<svg width="1000" height="1000" viewBox="0 0 1000 1000" fill="none" xmlns="http://www.w3.org/2000/svg">
<path d="M8 195.25C178.83 110.03 349.03 140.83 521.26 167.28C676.47 191.12 833.42 211.85 992 132.75V804.75C821.17 889.97 650.97 859.17 478.74 832.72C323.53 808.88 166.58 788.15 8 867.25V195.25Z" fill="black"/>
<path d="M8 195.25C178.83 110.03 349.03 140.83 521.26 167.28C676.47 191.12 833.42 211.85 992 132.75V580.75C821.17 665.97 650.97 635.17 478.74 608.72C323.53 584.88 166.58 564.15 8 643.25V195.25Z" fill="white"/>
<path d="M8 195.25C178.83 110.03 349.03 140.83 521.26 167.28C676.47 191.12 833.42 211.85 992 132.75V356.75C821.17 441.97 650.97 411.17 478.74 384.72C323.53 360.88 166.58 340.15 8 419.25V195.25Z" fill="#007A3D"/>
<path opacity="0.2" d="M8 195.25C178.83 110.03 349.03 140.83 521.26 167.28C676.47 191.12 833.42 211.85 992 132.75V804.75C821.17 889.97 650.97 859.17 478.74 832.72C323.53 808.88 166.58 788.15 8 867.25V195.25ZM39.25 214.64V819.14C345.81 690.88 650.43 915.18 960.75 785.36V180.86C654.19 309.12 349.57 84.82 39.25 214.64Z" fill="#1A1A1A"/>
<path d="M226.105 572.23C226.105 572.23 226.865 569.821 228.194 565.593C228.864 563.484 229.663 560.915 230.593 557.967C231.063 556.497 231.552 554.918 232.072 553.279C232.592 551.63 233.132 549.901 233.701 548.091C234.271 546.282 234.881 544.393 235.491 542.434C236.11 540.495 236.74 538.476 237.4 536.397C238.049 534.328 238.729 532.199 239.409 530.02C240.098 527.841 240.798 525.623 241.518 523.354C242.227 521.105 242.957 518.806 243.686 516.477C244.426 514.148 245.166 511.799 245.915 509.421C246.665 507.062 247.415 504.663 248.174 502.274C248.934 499.865 249.693 497.466 250.453 495.038C251.223 492.649 251.982 490.24 252.742 487.841C253.502 485.442 254.251 483.054 255.001 480.695C255.75 478.326 256.49 475.977 257.23 473.658C257.959 471.339 258.689 469.04 259.399 466.792C260.118 464.533 260.808 462.324 261.508 460.145C262.187 457.976 262.867 455.857 263.517 453.808C264.166 451.739 264.806 449.73 265.416 447.791C266.025 445.852 266.635 443.973 267.195 442.174C267.775 440.375 268.324 438.635 268.844 437.016C269.364 435.377 269.854 433.818 270.323 432.359C271.253 429.43 272.052 426.881 272.722 424.802C274.051 420.604 274.821 418.216 274.821 418.216C274.821 418.216 275.581 420.504 276.91 424.512C277.58 426.501 278.379 428.94 279.309 431.739C279.779 433.138 280.268 434.617 280.788 436.187C281.308 437.746 281.858 439.395 282.427 441.124C282.997 442.843 283.587 444.633 284.206 446.502C284.826 448.351 285.456 450.27 286.116 452.249C286.765 454.208 287.435 456.237 288.125 458.316C288.814 460.395 289.514 462.514 290.223 464.673C290.943 466.822 291.663 469.02 292.402 471.239C293.132 473.458 293.882 475.707 294.631 477.976C295.371 480.235 296.131 482.524 296.89 484.813C297.65 487.112 298.409 489.42 299.169 491.729C299.929 494.028 300.688 496.327 301.448 498.636C302.208 500.925 302.967 503.224 303.707 505.493C304.456 507.761 305.206 510.02 305.936 512.249C306.675 514.478 307.395 516.687 308.115 518.846C308.824 521.015 309.524 523.144 310.214 525.243C310.903 527.322 311.573 529.371 312.223 531.35C312.882 533.349 313.512 535.288 314.132 537.147C314.751 539.026 315.341 540.835 315.911 542.574C316.481 544.323 317.03 545.983 317.55 547.562C318.07 549.141 318.559 550.65 319.029 552.07C319.959 554.898 320.758 557.367 321.428 559.396C322.757 563.454 323.527 565.783 323.527 565.783C323.527 565.783 321.528 564.393 318.04 561.955C316.301 560.735 314.182 559.256 311.753 557.597C310.543 556.757 309.244 555.868 307.885 554.938C306.525 553.989 305.086 553.029 303.597 552C302.098 550.97 300.548 549.921 298.929 548.831C297.32 547.732 295.661 546.612 293.942 545.453C292.232 544.313 290.473 543.134 288.674 541.925C286.875 540.715 285.036 539.496 283.167 538.256C281.308 537.017 279.409 535.758 277.48 534.488C275.551 533.229 273.612 531.939 271.653 530.66C269.694 529.371 267.715 528.081 265.726 526.792C263.747 525.503 261.748 524.213 259.759 522.914C257.77 521.625 255.77 520.345 253.791 519.066C251.802 517.796 249.823 516.517 247.864 515.258C245.905 514.008 243.956 512.769 242.037 511.55C240.108 510.32 238.209 509.111 236.34 507.931C234.481 506.742 232.632 505.582 230.843 504.443C229.044 503.304 227.285 502.194 225.575 501.115C223.856 500.035 222.197 498.986 220.588 497.966C218.969 496.947 217.419 495.977 215.92 495.038C214.431 494.098 212.992 493.199 211.632 492.349C210.273 491.489 208.974 490.68 207.764 489.92C205.335 488.411 203.216 487.082 201.477 485.982C197.989 483.793 196 482.564 196 482.564C196 482.564 198.459 482.304 202.767 481.864C204.926 481.664 207.544 481.394 210.543 481.085C212.042 480.955 213.631 480.795 215.31 480.615C217.01 480.445 218.779 480.275 220.628 480.095C222.477 479.925 224.396 479.735 226.395 479.535C228.384 479.345 230.443 479.155 232.562 478.966C234.671 478.756 236.84 478.566 239.069 478.356C241.298 478.146 243.567 477.946 245.875 477.746C248.184 477.546 250.533 477.336 252.912 477.146C255.281 476.947 257.69 476.747 260.118 476.547C262.527 476.357 264.986 476.177 267.435 475.987C269.894 475.817 272.352 475.627 274.821 475.457C277.27 475.287 279.739 475.137 282.197 474.968C284.646 474.818 287.095 474.668 289.514 474.528C291.943 474.388 294.351 474.268 296.72 474.138C299.099 474.028 301.448 473.918 303.757 473.798C306.066 473.698 308.335 473.608 310.563 473.518C312.782 473.438 314.961 473.378 317.07 473.308C319.189 473.228 321.248 473.168 323.237 473.128C325.236 473.078 327.155 473.029 329.004 472.999C330.843 472.969 332.623 472.939 334.312 472.899C335.991 472.889 337.59 472.859 339.089 472.859C342.088 472.819 344.707 472.809 346.866 472.819C351.173 472.819 353.642 472.819 353.642 472.819M675.873 584.663C675.873 584.663 676.633 582.295 677.962 578.167C678.632 576.098 679.431 573.589 680.361 570.7C680.831 569.261 681.32 567.712 681.84 566.113C682.36 564.493 682.91 562.794 683.479 561.025C684.049 559.246 684.649 557.397 685.258 555.478C685.878 553.569 686.508 551.58 687.168 549.541C687.817 547.512 688.497 545.413 689.177 543.284C689.866 541.135 690.566 538.946 691.285 536.717C691.995 534.498 692.725 532.229 693.454 529.94C694.194 527.652 694.934 525.333 695.683 522.994C696.433 520.655 697.183 518.296 697.942 515.937C698.702 513.559 699.461 511.18 700.221 508.811C700.991 506.422 701.75 504.043 702.51 501.664C703.27 499.306 704.019 496.937 704.769 494.598C705.518 492.249 706.258 489.92 706.998 487.621C707.727 485.322 708.457 483.044 709.157 480.815C709.886 478.576 710.586 476.377 711.276 474.218C711.955 472.059 712.635 469.95 713.285 467.911C713.944 465.852 714.574 463.853 715.194 461.924C715.783 459.995 716.403 458.126 716.973 456.327C717.532 454.538 718.092 452.808 718.612 451.189C719.132 449.55 719.621 448.001 720.091 446.542C721.021 443.623 721.82 441.084 722.49 438.985C723.819 434.797 724.589 432.409 724.589 432.409C724.589 432.409 725.349 434.697 726.678 438.695C727.348 440.704 728.147 443.133 729.077 445.922C729.527 447.321 730.026 448.8 730.556 450.37C731.076 451.919 731.626 453.568 732.195 455.277C732.765 456.996 733.365 458.786 733.974 460.635C734.594 462.474 735.224 464.393 735.883 466.352C736.523 468.311 737.213 470.32 737.892 472.389C738.582 474.448 739.272 476.557 740.001 478.696C740.711 480.835 741.441 483.014 742.17 485.213C742.89 487.411 743.64 489.64 744.389 491.889C745.139 494.118 745.888 496.387 746.638 498.656C747.418 500.925 748.177 503.204 748.947 505.482C749.707 507.761 750.466 510.03 751.226 512.309C751.985 514.568 752.735 516.837 753.485 519.066C754.234 521.315 754.974 523.534 755.714 525.733C756.443 527.921 757.173 530.1 757.883 532.219C758.602 534.358 759.302 536.457 759.992 538.506C760.671 540.555 761.351 542.564 762.001 544.513C762.66 546.472 763.29 548.371 763.91 550.2C764.509 552.05 765.119 553.819 765.689 555.528C766.258 557.237 766.808 558.856 767.328 560.415C767.848 561.955 768.337 563.434 768.807 564.823C769.737 567.592 770.536 570.001 771.206 571.99C772.535 575.958 773.305 578.237 773.305 578.237C773.305 578.237 771.306 576.977 767.818 574.768C766.079 573.659 763.96 572.31 761.511 570.78C760.311 570.011 759.012 569.191 757.663 568.321C756.303 567.442 754.864 566.542 753.375 565.583C751.876 564.613 750.316 563.634 748.707 562.594C747.098 561.555 745.429 560.495 743.72 559.386C742.01 558.286 740.251 557.147 738.452 555.978C736.643 554.818 734.814 553.629 732.945 552.409C731.076 551.19 729.177 549.951 727.258 548.681C725.329 547.432 723.39 546.142 721.431 544.853C719.462 543.554 717.483 542.244 715.504 540.925C713.515 539.616 711.525 538.276 709.536 536.947C707.537 535.608 705.548 534.268 703.559 532.929C701.58 531.59 699.601 530.25 697.632 528.911C695.673 527.582 693.734 526.242 691.805 524.933C689.886 523.614 687.987 522.304 686.118 521.015C684.249 519.715 682.41 518.446 680.611 517.187C678.812 515.937 677.052 514.698 675.343 513.509C673.634 512.299 671.965 511.12 670.356 509.99C668.747 508.841 667.187 507.741 665.688 506.672C664.199 505.602 662.76 504.583 661.4 503.613C660.041 502.634 658.752 501.704 657.532 500.835C655.103 499.086 652.984 497.546 651.245 496.277C647.757 493.738 645.768 492.289 645.768 492.289C645.768 492.289 648.227 492.299 652.535 492.299C654.694 492.299 657.312 492.289 660.311 492.269C661.81 492.239 663.409 492.219 665.088 492.209C666.778 492.189 668.547 492.159 670.396 492.119C672.245 492.089 674.164 492.029 676.163 491.999C678.152 491.939 680.211 491.889 682.33 491.819C684.439 491.739 686.618 491.679 688.837 491.599C691.066 491.499 693.334 491.419 695.643 491.31C697.952 491.2 700.301 491.1 702.68 490.98C705.049 490.85 707.457 490.73 709.886 490.59C712.285 490.45 714.754 490.3 717.203 490.15C719.651 489.99 722.12 489.83 724.579 489.66C727.028 489.5 729.507 489.31 731.965 489.131C734.394 488.951 736.863 488.771 739.272 488.571C741.711 488.371 744.119 488.181 746.488 487.981C748.867 487.791 751.216 487.591 753.515 487.391C755.834 487.182 758.102 486.982 760.331 486.772C762.55 486.582 764.729 486.382 766.838 486.182C768.957 485.982 771.006 485.782 773.005 485.592C775.004 485.402 776.923 485.213 778.752 485.033C780.621 484.853 782.37 484.693 784.08 484.523C785.749 484.343 787.358 484.183 788.857 484.053C791.856 483.743 794.474 483.483 796.613 483.263C800.941 482.834 803.4 482.594 803.4 482.594M450.984 570.51C450.984 570.51 451.744 568.222 453.073 564.243C453.743 562.254 454.542 559.836 455.472 557.067C455.942 555.678 456.431 554.188 456.951 552.649C457.471 551.1 458.011 549.471 458.59 547.762C459.16 546.052 459.76 544.283 460.369 542.434C460.989 540.605 461.619 538.706 462.279 536.747C462.928 534.798 463.608 532.799 464.288 530.75C464.977 528.701 465.677 526.602 466.387 524.473C467.106 522.354 467.836 520.185 468.565 517.996C469.305 515.807 470.045 513.588 470.794 511.35C471.544 509.121 472.294 506.862 473.053 504.613C473.813 502.344 474.562 500.075 475.332 497.816C476.102 495.537 476.861 493.279 477.621 491.01C478.381 488.761 479.13 486.502 479.88 484.283C480.629 482.044 481.369 479.825 482.109 477.646C482.838 475.457 483.558 473.288 484.278 471.169C484.997 469.04 485.687 466.952 486.377 464.903C487.056 462.854 487.746 460.855 488.396 458.915C489.055 456.966 489.685 455.067 490.305 453.238C490.914 451.409 491.514 449.64 492.084 447.931C492.654 446.232 493.203 444.603 493.723 443.063C494.243 441.514 494.733 440.045 495.202 438.665C496.122 435.897 496.931 433.488 497.601 431.509C498.93 427.541 499.7 425.292 499.7 425.292C499.7 425.292 500.46 427.701 501.789 431.929C502.459 434.048 503.258 436.616 504.178 439.565C504.658 441.044 505.147 442.614 505.667 444.263C506.177 445.902 506.737 447.651 507.296 449.46C507.866 451.279 508.476 453.168 509.085 455.127C509.705 457.086 510.335 459.105 510.984 461.184C511.644 463.253 512.324 465.392 513.004 467.581C513.693 469.77 514.393 471.999 515.112 474.268C515.822 476.527 516.542 478.836 517.281 481.165C518.021 483.503 518.761 485.862 519.51 488.241C520.26 490.62 521.01 493.019 521.769 495.427C522.529 497.836 523.288 500.245 524.058 502.674C524.818 505.083 525.577 507.502 526.337 509.91C527.097 512.319 527.846 514.718 528.596 517.087C529.345 519.466 530.085 521.824 530.825 524.153C531.554 526.482 532.284 528.791 532.994 531.05C533.713 533.319 534.413 535.548 535.103 537.727C535.782 539.896 536.462 542.034 537.112 544.103C537.771 546.182 538.401 548.201 539.021 550.15C539.63 552.099 540.23 553.989 540.8 555.798C541.369 557.607 541.919 559.336 542.439 560.985C542.959 562.624 543.448 564.194 543.918 565.673C544.848 568.611 545.647 571.17 546.317 573.279C547.646 577.497 548.416 579.916 548.416 579.916C548.416 579.916 546.417 578.287 542.929 575.438C541.19 574.009 539.071 572.26 536.642 570.29C535.422 569.291 534.133 568.232 532.774 567.112C531.414 565.983 529.975 564.813 528.486 563.584C526.987 562.334 525.427 561.065 523.818 559.746C522.209 558.406 520.54 557.037 518.831 555.628C517.111 554.218 515.362 552.759 513.563 551.27C511.764 549.781 509.925 548.271 508.046 546.722C506.177 545.173 504.288 543.604 502.369 542.014C500.43 540.425 498.491 538.816 496.542 537.197C494.573 535.568 492.594 533.928 490.615 532.299C488.626 530.66 486.626 529.011 484.628 527.362C482.648 525.713 480.659 524.063 478.67 522.434C476.691 520.795 474.712 519.166 472.743 517.547C470.784 515.937 468.845 514.328 466.916 512.759C464.997 511.18 463.098 509.62 461.229 508.081C459.36 506.552 457.511 505.053 455.722 503.583C453.923 502.114 452.164 500.675 450.454 499.286C448.745 497.886 447.076 496.537 445.467 495.228C443.858 493.908 442.298 492.659 440.799 491.449C439.31 490.23 437.871 489.081 436.511 487.981C435.152 486.882 433.863 485.842 432.643 484.863C430.214 482.924 428.095 481.224 426.356 479.825C422.868 477.037 420.879 475.447 420.879 475.447C420.879 475.447 423.338 475.627 427.646 475.927C429.805 476.097 432.423 476.307 435.422 476.527C436.921 476.647 438.52 476.777 440.199 476.917C441.889 477.057 443.658 477.206 445.507 477.356C447.356 477.526 449.275 477.696 451.274 477.866C453.263 478.046 455.322 478.226 457.441 478.426C459.55 478.616 461.729 478.816 463.948 479.026C466.177 479.235 468.445 479.435 470.754 479.665C473.063 479.895 475.412 480.115 477.791 480.355C480.16 480.575 482.559 480.815 484.997 481.065C487.416 481.314 489.865 481.554 492.304 481.804C494.772 482.034 497.231 482.284 499.7 482.544C502.159 482.794 504.618 483.044 507.076 483.273C509.525 483.523 511.974 483.763 514.393 484.013C516.822 484.253 519.23 484.503 521.599 484.733C523.978 484.953 526.327 485.183 528.636 485.412C530.945 485.632 533.214 485.852 535.442 486.062C537.661 486.262 539.84 486.462 541.949 486.672C544.068 486.862 546.127 487.042 548.116 487.222C550.115 487.391 552.034 487.561 553.883 487.711C555.732 487.871 557.502 488.021 559.191 488.161C560.87 488.301 562.469 488.431 563.968 488.561C566.967 488.781 569.586 488.991 571.744 489.141C576.052 489.46 578.521 489.64 578.521 489.64" fill="#CE1126"/>
</svg>
