<svg xmlns="http://www.w3.org/2000/svg" width="1000" height="1000" fill="none"><path fill="#951A42" d="M8 195.25c327.5-163.36 652.78 101.94 984-62v672c-169.22 83.71-337.69 54.48-508.27 28.22C326.91 809.32 168.24 787.28 8 867.25v-672Z"/><path fill="#951A42" fill-rule="evenodd" d="M486.636 697.613a122.796 122.796 0 0 1-2.96-4.397 192.765 192.765 0 0 1-7.308-12.188 220.422 220.422 0 0 1-6.28-12.275 214.9 214.9 0 0 1-1.747-3.815c-3.641-8.101-6.775-16.461-9.45-24.971-2.787-8.869-5.079-17.898-6.937-26.965a301.346 301.346 0 0 1-1.387-7.234c-3.059-16.945-4.707-34.149-5.19-51.354a405.31 405.31 0 0 1-.105-16.722 379.63 379.63 0 0 1 1.673-30.024c1.387-14.641 3.604-29.207 6.787-43.563 2.849-12.832 6.466-25.516 11.197-37.791a209.024 209.024 0 0 1 3.518-8.447c1.449 2.824 2.96 6.057 4.484 9.624l5.586-6.429s-2.391 5.983-3.654 9.971c-.07.224-.198.645.047 1.251a224.428 224.428 0 0 1 5.549 15.656l4.744-3.765c-2.564 3.022-3.555 7.68-2.762 10.528 4.273 15.495 6.725 31.746 4.409 43.761 15.966-22.196 18.022-64.384.093-88.785a82.46 82.46 0 0 1 4.05 1.573l.843-5.066s.631 3.084 1.127 5.289c.149.694.557.892.755.979 3.852 1.758 7.618 3.827 11.978 6.639l1.648-7.073s.446 4.088.991 7.828c.123.891.606 1.412.842 1.573a110.469 110.469 0 0 1 15.718 13.377l3.319-6.837c-1.734 3.864.199 10.479 3.332 14.331 7.06 8.596 9.922 8.782 14.987 20.239 2.168-19.162 4.472-53.806-44.442-68.608 0 0 3.382-1.363 8.547-3.047l-3.951-4.335s3.381 1.82 6.131 3.133c.52.248 1.102.161 1.338.082 4.471-1.35 9.785-2.762 15.248-3.766l-3.357-3.802c2.712 2.13 7.085 3.158 9.513 2.873 7.456-.855 14.702-.631 19.916 1.871-8.175-11.433-30.953-22.419-69.091-12.3.966-3.852 2.168-6.887 3.878-9.488l-2.948-1.97s1.647.117 3.542.198c.693.023.941-.285 1.066-.434 2.663-3.072 6.354-5.549 11.717-8.212l-1.759-1.895s3.505 1.115 5.041.298c2.824-1.487 5.574-2.874 10.132-3.927-16.053-8.212-34.521-5.698-49.905 15.644-.093.124-.235.347-.434.645-12.151-24.414-40.379-26.42-57.212-25.665 8.757 2.911 17.155 7.172 24.215 12.869.483.397.966.805 1.462 1.177 2.948 2.229 7.345 2.96 7.345 2.96l-3.246 1.016c2.131 2.217 4.1 4.57 5.81 7.134.046.082.149.248.471.334.309.07 5.722 1.536 5.722 1.536l-4.508.781c1.436 2.65 3.096 6.292 4.087 9.388-21.949-21.49-56.89-31.783-98.038 4.212 11.495-2.577 24.785-3.667 36.701-3.01 2.465.16 7.866-1.04 11.668-4.298l-3.666 5.041c6.02.805 11.408 2.131 15.669 4.026.116.046.359.123.693-.047 1.846-.991 4.435-2.502 4.435-2.502l-2.577 3.84c1.672.954 3.122 2.019 4.249 3.208-23.608-.421-54.872 14.777-61.783 40.937 9.252-6.144 16.548-10.157 22.828-12.832 2.167-1.066 4.892-4.62 5.71-8.2l1.313 5.611c5.239-1.61 9.946-2.341 14.864-2.812.149-.011.421 0 .818-.644 1.449-2.341 3.641-6.268 3.641-6.268l-.397 6.577c1.066-.069 2.143-.148 3.258-.223-23.138 18.852-27.894 41.098-27.337 69.673 4.323-12.287 12.944-24.104 23.101-34.434 3.406-3.357 5.834-8.67 5.19-14.058l2.774 6.503a173.594 173.594 0 0 1 18.555-14.306c.187-.123.545-.272.768-1.288.504-2.362 1.024-4.72 1.561-7.073l1.338 5.995c5.437-3.418 10.578-6.181 15.087-8.175-18.58 37.023-29.467 81.539-32.675 126.12-1.796 25.132-1.165 50.276 1.92 74.12 1.907 14.715 4.744 28.934 8.509 42.336a242.466 242.466 0 0 0 4.186 13.402l1.561 4.509 51.851 24.652Z" clip-rule="evenodd"/><path fill="#FCED00" fill-rule="evenodd" d="M562.426 680.462c17.254-7.704 35.09-15.656 50.004-24.129 76.486-43.464 70.131-81.563 56.197-165.06-2.527-15.198-5.4-32.426-7.878-50.82-4.843-35.97 3.766-55.058 17.093-77.056l-60.037-57.038h-.012c-11.098 4.694-29.455 11.123-46.919 11.123-3.704 0-7.271-.285-10.628-.855-20.512-3.419-46.424-19.508-60.247-28.934h-.012c-13.823 9.426-39.748 25.516-60.235 28.934-3.357.57-6.924.855-10.627.855-17.465 0-35.821-6.428-46.919-11.123h-.012l-60.037 57.038c13.34 21.998 21.936 41.086 17.093 77.056-2.477 18.394-5.351 35.622-7.878 50.82-13.935 83.497-20.289 121.6 56.197 165.06 14.926 8.472 32.749 16.424 50.004 24.129 23.212 10.355 45.371 20.239 62.44 31.845 0-.012-.011-.012 0-.023v.012c17.056-11.606 39.215-21.477 62.415-31.832m-127.64-7.507c-15.495-6.924-31.164-14.084-44.393-21.59-10.516-5.971-19.335-11.804-26.804-17.65-31.92-25.02-37.84-50.45-34.199-89.293 1.425-15.124 4.261-32.266 7.593-52.233 2.54-15.223 5.426-32.476 7.915-50.994 4.905-36.403-3.79-56.903-15.52-76.832l54.066-51.354c12.312 4.917 29.244 10.144 45.693 10.144 4.013 0 7.903-.31 11.569-.929 20.053-3.344 44.616-17.935 59.293-27.683 14.665 9.748 39.228 24.327 59.306 27.683 3.654.62 7.556.929 11.569.929 16.449 0 33.381-5.227 45.681-10.144l54.066 51.354c-11.717 19.93-20.413 40.429-15.508 76.832 2.49 18.518 5.363 35.771 7.915 50.994 3.32 19.967 6.168 37.109 7.593 52.233 2.601 27.857.309 48.815-12.968 67.667-9.562 13.575-24.797 26.073-48.034 39.277-14.69 8.348-32.39 16.239-49.533 23.894-22.147 9.884-43.129 19.248-60.074 30.198-4.088-2.589-8.658-5.265-13.39-7.853l-51.836-24.65Z" clip-rule="evenodd"/><path fill="#951A42" fill-rule="evenodd" d="M555.796 537.712c-4.372-.123-8.745-.248-13.142-.347 4.397.105 8.769.224 13.142.347Z" clip-rule="evenodd"/><path fill="#FCED00" fill-rule="evenodd" d="M604.106 409.483c17.7 0 32.044-14.343 32.044-32.043s-14.344-32.044-32.044-32.044c-17.7 0-32.043 14.343-32.043 32.044 0 17.7 14.343 32.043 32.043 32.043Z" clip-rule="evenodd"/><path fill="#72BF44" fill-rule="evenodd" d="m586.886 602.263-14.975 67.703c-3.939 1.784-7.89 3.542-11.817 5.289-9.686 4.335-19.137 8.572-28.154 12.883l45.978-85.875v-3.393c-4.376-.337-8.757-.61-13.142-.818v4.211l-64.743 103.201c16.944-10.95 37.927-20.326 60.061-30.198 17.155-7.655 34.855-15.558 49.533-23.907 23.249-13.191 38.484-25.688 48.047-39.264-21.986-5.847-45.78-10.12-70.788-12.51v2.678Zm-31.09-4.63c-4.347-.136-8.745-.186-13.142-.211v4.844s-.013-.001-.013.01l-74.306 62.663a222.831 222.831 0 0 0 1.759 3.815 220.596 220.596 0 0 0 6.268 12.275l79.434-78.766v-4.63Zm-22.11-.16c-29.096.371-57.151 3.306-83.125 8.298.434 2.415.904 4.818 1.387 7.221 1.871 9.079 4.162 18.11 6.949 26.978l74.789-37.704v-4.793Zm-170.08 36.26c7.457 5.846 16.288 11.668 26.804 17.638 13.216 7.519 28.885 14.678 44.38 21.602-7.271-3.258-14.579-6.552-21.651-9.922l15.916-8.002c-3.765-13.402-6.602-27.608-8.509-42.335-20.685 5.66-39.971 12.769-56.94 21.019Z" clip-rule="evenodd"/><path fill="#0072BC" fill-rule="evenodd" d="M577.916 538.462c-4.31-.173-8.794-.359-13.142-.507v60.086c4.41.223 8.794.495 13.142.829v-60.408Zm-22.12-.75c-4.372-.123-8.745-.248-13.142-.347v60.061c4.397.023 8.794.07 13.142.211v-59.925Zm31.08 1.1v60.767c25.02 2.391 48.815 6.664 70.788 12.51 13.278-18.84 15.582-39.81 12.968-67.667-26.94-2.453-55.008-4.335-83.756-5.611" clip-rule="evenodd"/><path fill="#00C0F3" fill-rule="evenodd" d="M604.106 345.393c17.7 0 32.043 14.343 32.043 32.044 0 17.7-14.343 32.043-32.043 32.043s-32.043-14.343-32.043-32.043 14.343-32.044 32.043-32.044Zm-70.416 191.83.013-59.987c0-.706.569-1.276 1.263-1.276h2.019v-2.019c0-.693.57-1.276 1.276-1.276h44.046c.706 0 1.276.582 1.276 1.276v2.019h2.019c.693 0 1.263.57 1.263 1.276l.013 61.585c28.749 1.276 56.816 3.159 83.756 5.611-1.424-15.124-4.273-32.254-7.593-52.233-2.539-15.223-5.425-32.477-7.915-50.995-4.905-36.403 3.79-56.903 15.508-76.832l-54.054-51.354c-12.312 4.918-29.244 10.144-45.693 10.144-4.013 0-7.902-.31-11.569-.93-20.078-3.356-44.64-17.934-59.306-27.682-14.665 9.747-39.24 24.339-59.293 27.682-3.654.62-7.555.93-11.569.93-16.437 0-33.381-5.227-45.681-10.144l-54.066 51.354c11.717 19.93 20.413 40.429 15.508 76.832-2.489 18.518-5.363 35.772-7.915 50.995-3.319 19.979-6.168 37.109-7.592 52.233 28.687-2.613 58.525-4.558 89.231-5.834 3.195-44.578 14.083-89.095 32.675-126.12-4.522 1.994-9.662 4.756-15.099 8.175l-1.338-5.995s-.792 3.456-1.561 7.073c-.223 1.016-.57 1.164-.755 1.288a174.066 174.066 0 0 0-18.567 14.306l-2.775-6.49c.645 5.375-1.783 10.689-5.19 14.046-10.144 10.33-18.778 22.147-23.1 34.434-.557-28.575 4.199-50.821 27.337-69.673-1.101.069-2.192.149-3.257.223l.397-6.577s-2.193 3.939-3.63 6.267c-.408.645-.68.632-.829.645-4.918.471-9.612 1.201-14.851 2.812l-1.326-5.611c-.817 3.579-3.542 7.146-5.71 8.212-6.279 2.675-13.563 6.676-22.828 12.82 6.924-26.16 38.175-41.345 61.796-40.937-1.139-1.189-2.588-2.255-4.261-3.208l2.589-3.84s-2.601 1.523-4.447 2.502a.745.745 0 0 1-.693.047c-4.261-1.895-9.649-3.221-15.656-4.026l3.654-5.041c-3.803 3.257-9.203 4.459-11.668 4.298-11.903-.656-25.194.434-36.688 3.01 41.147-35.995 76.077-25.702 98.026-4.212-.991-3.096-2.651-6.738-4.087-9.389l4.508-.78-5.722-1.536c-.31-.082-.409-.248-.471-.335-1.71-2.564-3.679-4.918-5.81-7.135l3.258-1.015s-4.41-.731-7.357-2.961c-.496-.371-.966-.78-1.462-1.176-7.06-5.686-15.458-9.959-24.215-12.869 16.846-.755 45.062 1.251 57.213 25.665.198-.285.347-.52.434-.645 15.384-21.342 33.852-23.856 49.905-15.644-4.558 1.053-7.308 2.44-10.12 3.927-1.548.817-5.041-.298-5.041-.298l1.746 1.895c-5.363 2.663-9.054 5.153-11.717 8.212-.123.16-.371.458-1.065.434-1.896-.07-3.531-.198-3.531-.198l2.936 1.97c-1.709 2.601-2.911 5.635-3.877 9.5 38.137-10.132 60.916.855 69.091 12.287-5.214-2.502-12.448-2.725-19.917-1.871-2.428.286-6.8-.743-9.5-2.873l3.344 3.802c-5.462 1.003-10.776 2.416-15.248 3.778-.235.059-.817.161-1.338-.104-2.749-1.313-6.131-3.122-6.131-3.122l3.951 4.323c-5.152 1.685-8.546 3.047-8.546 3.047 48.914 14.802 46.61 49.446 44.442 68.608-5.066-11.457-7.927-11.643-14.987-20.239-3.134-3.852-5.066-10.466-3.332-14.331l-3.32 6.837a110.469 110.469 0 0 0-15.718-13.377c-.222-.16-.718-.681-.842-1.56a261.9 261.9 0 0 1-.991-7.841l-1.647 7.073c-4.348-2.812-8.126-4.881-11.978-6.639-.198-.082-.608-.273-.755-.979-.496-2.205-1.128-5.289-1.128-5.289l-.842 5.066a82.46 82.46 0 0 0-4.05-1.573c17.923 24.401 15.867 66.589-.093 88.785 2.328-12.015-.137-28.253-4.398-43.761-.805-2.849.186-7.506 2.75-10.528l-4.744 3.765a220.025 220.025 0 0 0-5.549-15.656c-.235-.607-.116-1.028-.046-1.25 1.275-3.989 3.654-9.971 3.654-9.971l-5.574 6.428c-1.536-3.567-3.047-6.8-4.497-9.624-1.226 2.799-2.415 5.611-3.505 8.447-4.732 12.275-8.348 24.958-11.21 37.791-3.183 14.356-5.4 28.922-6.788 43.563a380.595 380.595 0 0 0-1.66 30.024c23.311-1.04 72.435-.866 88.401-.47" clip-rule="evenodd"/><path fill="#00C0F3" fill-rule="evenodd" d="M577.916 479.363h-13.142v58.6c4.347.136 8.831.334 13.142.496v-59.096Zm-22.12 0h-13.142v57.993c4.397.105 8.769.222 13.142.347v-58.34Z" clip-rule="evenodd"/><path fill="#5EA14D" fill-rule="evenodd" d="M582.516 603.373c-2.353 0-4.595-1.102-4.595-1.102l-45.978 85.862c9.005-4.31 18.456-8.546 28.154-12.869 3.926-1.759 7.877-3.518 11.817-5.301l14.975-67.704v.011s-2.007 1.103-4.373 1.103Zm-44.44 0c-2.353 0-4.385-1.102-4.385-1.102l-74.789 37.692c2.676 8.51 5.797 16.87 9.439 24.971l74.306-62.662c-.137.058-2.28 1.102-4.571 1.102m26.7-1.111c-.024.012-2.031 1.103-4.385 1.103-2.341 0-4.595-1.103-4.595-1.103l-79.421 78.752a196.342 196.342 0 0 0 7.308 12.201c.958 1.484 1.945 2.95 2.96 4.397 4.732 2.589 9.302 5.252 13.39 7.853l64.743-103.203Zm-129.98 70.7-1.561-4.509a253.385 253.385 0 0 1-4.174-13.414l-15.929 8.002c7.085 3.369 14.393 6.663 21.664 9.921Z" clip-rule="evenodd"/><path fill="#0072BC" fill-rule="evenodd" d="M533.696 537.213c-15.966-.397-65.103-.57-88.401.471-.093 5.574-.058 11.16.081 16.722.496 17.217 2.131 34.409 5.19 51.354 25.962-4.992 54.029-7.915 83.125-8.299l.005-60.248Zm-170.09 96.52c16.969-8.249 36.255-15.359 56.94-21.02-3.084-23.831-3.728-48.988-1.92-74.12-30.706 1.276-60.544 3.233-89.219 5.846-3.641 38.831 2.267 64.261 34.199 89.294Z" clip-rule="evenodd"/><path fill="#FCED00" fill-rule="evenodd" d="M564.777 602.263v-122.9h13.142v122.9s2.254 1.115 4.595 1.115c2.366 0 4.372-1.115 4.372-1.115v-2.675l-.012-60.767v-61.585c0-.707-.57-1.276-1.276-1.276h-2.019v-2.019c0-.706-.57-1.276-1.276-1.276H538.27c-.706 0-1.276.57-1.276 1.276v2.019h-2.019c-.706 0-1.276.57-1.276 1.276v59.975l-.012 60.26v4.793s2.031 1.115 4.384 1.115c2.292 0 4.447-1.041 4.571-1.115h.013v-122.9h13.142v122.9s2.254 1.115 4.595 1.115c2.341 0 4.348-1.092 4.385-1.116Z" clip-rule="evenodd"/><path fill="#1A1A1A" d="M8 195.25c327.5-163.36 652.78 101.94 984-62v672c-169.22 83.71-337.69 54.48-508.27 28.22C326.91 809.32 168.24 787.28 8 867.25v-672Zm31.25 19.39v604.5c305.93-128.05 610.31 95.71 921.5-33.4v-604.5c-306.78 127.34-611.41-96.33-921.5 33.4Z" opacity=".2"/></svg>