<svg width="1000" height="1000" viewBox="0 0 1000 1000" fill="none" xmlns="http://www.w3.org/2000/svg">
<path d="M8 195.25C178.83 110.03 349.03 140.83 521.26 167.28C676.47 191.12 833.42 211.85 992 132.75V804.75C821.17 889.97 650.97 859.17 478.74 832.72C323.53 808.88 166.58 788.15 8 867.25V195.25Z" fill="#DA251D"/>
<path d="M8 195.25C178.83 110.03 349.03 140.83 521.26 167.28C676.47 191.12 833.42 211.85 992 132.75V580.75C821.17 665.97 650.97 635.17 478.74 608.72C323.53 584.88 166.58 564.15 8 643.25V195.25Z" fill="white"/>
<path d="M8 195.25C178.83 110.03 349.03 140.83 521.26 167.28C676.47 191.12 833.42 211.85 992 132.75V356.75C821.17 441.97 650.97 411.17 478.74 384.72C323.53 360.88 166.58 340.15 8 419.25V195.25Z" fill="#0C4076"/>
<path opacity="0.2" d="M8 195.25C178.83 110.03 349.03 140.83 521.26 167.28C676.47 191.12 833.42 211.85 992 132.75V804.75C821.17 889.97 650.97 859.17 478.74 832.72C323.53 808.88 166.58 788.15 8 867.25V195.25ZM39.25 214.64V819.14C345.81 690.88 650.43 915.18 960.75 785.36V180.86C654.19 309.12 349.57 84.82 39.25 214.64Z" fill="#1A1A1A"/>
<path d="M500.29 309L384.51 657.03C484.56 594.6 584.57 541.81 687.58 471.51C563.98 464.04 440.37 433.06 313 425.37C412.98 505.66 512.99 601.27 616.07 690.09L500.29 309Z" fill="#DA251D"/>
<path fill-rule="evenodd" clip-rule="evenodd" d="M500.636 282.617L550.864 447.945C596.866 454.793 642.482 460.77 688.063 463.524L711.406 464.935L692.09 478.118C654.957 503.459 618.096 526.602 581.487 548.738L631.742 714.154L610.848 696.15C573.183 663.696 536.079 630.477 499.305 597.484C462.211 619.282 425.364 640.967 388.745 663.817L369.912 675.569L419.571 526.294C382.291 493.389 345.18 461.473 307.991 431.607L288.394 415.87L313.482 417.384C359.737 420.177 405.467 426.018 450.716 432.673L500.636 282.617ZM456.188 441.57C453.51 441.171 450.831 440.775 448.152 440.382C408.019 434.497 367.638 429.288 326.885 426.299C322.261 425.96 317.633 425.65 313 425.37C316.598 428.259 320.196 431.169 323.795 434.097C356.584 460.779 389.388 489.023 422.314 518.049C424.486 519.964 426.658 521.882 428.831 523.803L384.51 657.03C388.052 654.82 391.593 652.622 395.135 650.435C427.732 630.306 460.336 611.099 493.053 591.874C494.854 590.815 496.656 589.757 498.458 588.698C499.07 588.338 499.681 587.979 500.293 587.619C502.377 589.489 504.461 591.358 506.545 593.229C539.036 622.374 571.73 651.635 604.729 680.281C608.505 683.559 612.286 686.829 616.07 690.09L572.023 545.109C574.377 543.691 576.732 542.27 579.088 540.843C611.426 521.268 643.96 500.888 676.788 478.819C680.382 476.403 683.979 473.967 687.58 471.51C683.257 471.249 678.933 470.958 674.61 470.642C634.278 467.686 593.93 462.402 553.438 456.415C550.519 455.983 547.6 455.548 544.68 455.11L500.29 309L456.188 441.57Z" fill="#FCD115"/>
</svg>
