<svg xmlns="http://www.w3.org/2000/svg" width="420" height="420" fill="none"><path fill="#EEE" d="M373.333 58.333H46.667C20.895 58.333 0 79.228 0 105v210c0 25.772 20.895 46.667 46.667 46.667h326.666C399.105 361.667 420 340.772 420 315V105c0-25.772-20.895-46.667-46.667-46.667Z"/><path fill="#000" d="M328.597 268.558c8.443-3.465 16.857-6.98 25.302-10.437-.446 1.278-1.03 2.74-2.53 3.386-7.785 3.183-15.555 6.393-23.338 9.574-.513.219-1.023.458-1.582.574.513-.875.997-1.761 1.491-2.642.106-.246.402-.345.657-.455Zm-26.292-12.046c1.818 1.18 3.471 2.529 4.63 3.982 2.145 2.801 2.699 6.434 1.367 9.585-.116.258-.359.451-.568.658.413-1.744.534-3.591-.111-5.305-.886-2.489-2.89-4.579-5.566-5.803.046-1.088.182-2.187.248-3.117Zm-69.655-1.516c1.131-.811 2.702-.89 4.118-.888 1.422.084 2.926.138 4.18.781.593.585.029 1.277-.578 1.644-2.466 1.509-5.181 2.818-7.182 4.799-.543.512-.261 1.309.425 1.608 1.037.441 2.238.462 3.378.437 2.707-.124 5.307-.993 7.572-2.23.631-.341 1.197-.765 1.849-1.081a28.491 28.491 0 0 1-4.697 3.898c-1.459.929-3.104 1.735-4.93 1.978-1.437.103-2.983.044-4.224-.644-1.382-.694-2.03-2.247-1.519-3.529.309-.721.881-1.33 1.483-1.892 1.552-1.394 3.45-2.461 5.343-3.49-1.283-.052-2.583-.11-3.858.022-.833.071-1.392.6-1.983 1.03-.179-.836-.183-1.828.623-2.443Zm-50.806-2.099c1.126-.467 2.678-.399 3.566.414.742.745.822 1.771.768 2.703-.596.673-1.281 1.292-1.78 2.024-1.043.164-2.139.02-3.16.28-.513.253-1.184.407-1.43.917-.322.658-.172 1.389-.036 2.07.53 2.379 1.511 4.717 1.46 7.167-.057.859-.124 1.751-.604 2.528-.111-1.362-.677-2.65-1.087-3.96-.774-2.388-1.388-4.838-1.479-7.32-.101-.956.547-1.778 1.201-2.498.966-1.145 2.697-1.481 4.234-1.728-.399-.313-.851-.673-1.443-.603-.826.102-1.386.688-1.84 1.228-.082-1.192.303-2.601 1.63-3.222Zm73.678-.461c.073-.065.17-.09.29-.073-.438.424-.678.959-1.014 1.44-.957 1.534-2.064 3.162-1.809 4.967.027.847.589 1.941 1.756 1.934.57-.24.718-.857 1.004-1.301-.036 1.321-.265 2.926-1.729 3.682-1.216-.166-2.129-1.081-2.177-2.113-.249-3.123 1.293-6.202 3.679-8.536Zm-218.08-17.592c.696-1.052 1.35-2.198 2.568-2.894-1.478 2.53-3.016 5.095-3.662 7.889-.215 1.068-.322 2.302.492 3.22.633.576 1.65.681 2.516.503 1.315-.246 1.927-1.412 2.47-2.338.416.69-.015 1.436-.207 2.124-.544 1.457-1.194 3.035-2.698 3.982-1.155.749-2.81.449-3.921-.21-1.465-.97-1.498-2.731-1.241-4.155.578-2.884 2.074-5.56 3.683-8.121Zm107.188-11.287c.429-.692 1.271-1.512 2.304-1.167 1.241.318 2.717 1.152 2.52 2.404-.333.426-.76.792-1.136 1.189-.402-.645-.852-1.471-1.795-1.608-1.226.341-1.96 1.384-2.347 2.377-.814 2.17-.995 4.462-1.222 6.717-.297.134-.593.266-.896.387.008-2.075-.524-4.28-2.167-5.888-.372-.533-1.199-.266-1.758-.522-1.044-.318-1.422-1.283-1.675-2.108-.126-.558-.351-1.229.088-1.726.924-.225 1.648.462 2.306.895 1.695 1.366 2.867 3.124 3.826 4.914.404-1.999.831-4.049 1.952-5.864Zm176.371-5.479c1.283-.374 2.634.118 3.683.746 1.752 1.098 3.12 2.591 4.176 4.194.563.929 1.207 1.947.98 3.028-.135.727-.202 1.508-.715 2.129-.568.596-1.635.535-2.35.18-.816-.392-1.594-.84-2.448-1.171-1.155 2.66-3.589 4.755-6.227 6.417-1.786 1.159-3.744 2.112-5.728 3.001-1.224.56-2.578.86-3.891 1.224-1.31.315-2.644.731-4.028.615.873-.043 1.563-.523 2.299-.865 3.837-1.892 7.595-3.927 11.009-6.339 1.814-1.33 3.667-2.716 4.889-4.488-.789-.145-1.58-.27-2.377-.361-.642-1.581-.648-3.516.736-4.825-.69-.449-.77-1.264-.886-1.942-.098-.59.136-1.339.878-1.543Zm3.441 3.918c.261 1.172.339 2.367.36 3.558 1.081.132 2.156.496 3.258.39.562-.069.541-.695.229-.993-1.024-1.196-2.446-2.097-3.847-2.955Zm-3.662 1.912c.553.868 1.807 1.09 2.831 1.368.211-.56.482-1.147.379-1.741-.37-.613-.873-1.416-1.803-1.412-.803.35-1.121 1.113-1.407 1.785Zm-70.967-7.48c.637-.699 1.717-1.04 2.735-1.067.706-.005 1.049.639 1.211 1.129.307 1.157.362 2.416-.303 3.495.345.212.692.428 1.046.638a21.956 21.956 0 0 0-.175 2.231c-.703-.319-1.243-.827-1.845-1.255-1.872 2.737-4.609 5.111-8.018 6.452a11.934 11.934 0 0 1-5.873.895c3.801-1.152 7.492-2.814 10.25-5.364a15.89 15.89 0 0 0 2.455-2.875c-.534-.483-1.174-.897-1.59-1.462-.333-.904-.577-1.985.107-2.817Zm1.043.891c.276.662.804 1.208 1.353 1.721.231-.572.534-1.195.195-1.783-.519-.086-1.041-.037-1.548.062Zm-213.194 7.165c7.628-4.06 15.287-8.083 22.928-12.122-.219 1.411-.788 3.042-2.391 3.748-7.074 3.718-14.165 7.415-21.229 11.146a3.647 3.647 0 0 1-.574.201c.45-.982.793-2.001 1.266-2.973Zm159.682-21.448a14.469 14.469 0 0 1 1.992-2.024c-.547 1.052-.221 2.2.034 3.276.288 1.177.677 2.332 1.113 3.477.305.863 1.472 1.166 2.406 1.336.56.151 1.245-.202 1.029-.744a27.171 27.171 0 0 0-1.927-4.071c.267-.883.57-1.757.826-2.641.354 0 .711.004 1.071.007.309 1.635 1.229 3.119 2.074 4.588.002 1.589-.109 3.246-.774 4.753-.444 1.068-1.929 1.399-3.128 1.314-1.592-.261-2.648-1.425-3.582-2.449-.465 1.343-1.78 2.385-3.336 2.805-1.317.411-2.836-.185-3.542-1.169-.774-1.092-.922-2.409-.886-3.658.07-1.785.478-3.866 2.367-4.937l.53.001-.341.127a5.68 5.68 0 0 0-.2 5.854c.297.579 1.048.997 1.807.861.947-.194 1.696-.765 2.341-1.353.023-1.785.015-3.572.126-5.353Zm-150.486-3.729c1.712-.314 3.27.594 4.489 1.505 1.63 1.35 2.989 2.959 3.849 4.754.26.542.376 1.134.28 1.718-.125.774-.196 1.622-.777 2.266-.681.533-1.756.417-2.48.007-.72-.403-1.47-.765-2.252-1.072-1.174 2.634-3.572 4.717-6.187 6.379-2.053 1.316-4.291 2.422-6.605 3.372a51.234 51.234 0 0 1-5.074 1.356c-.685.158-1.398.142-2.101.126.412-.082.852-.109 1.228-.289 3.766-1.802 7.438-3.759 10.86-6.002 2.312-1.578 4.607-3.249 6.248-5.369-.797-.154-1.599-.298-2.413-.364-.642-1.585-.66-3.515.692-4.845-.652-.483-.747-1.278-.864-1.96-.124-.66.273-1.443 1.106-1.582m3.197 3.947c.303 1.182.333 2.396.39 3.6 1.14.109 2.288.567 3.437.328.532-.253.157-.833-.12-1.129-1.05-1.093-2.38-1.965-3.707-2.799Zm-2.8.508c-.374.471-.81 1.013-.75 1.606.662.707 1.781 1.001 2.793 1.156.1-.339.217-.67.295-1.011.277-.692-.354-1.312-.858-1.794-.377-.387-1.153-.399-1.48.043Zm127.01-5.819c1.117.79 1.796 1.926 2.552 2.962 1.933 2.883 3.58 5.897 5.174 8.923 3.498 6.496 5.799 13.431 7.066 20.484.358 2.186.724 4.385.65 6.599.213 4.396.829 8.89 2.993 12.936 1.593 2.748 4.301 5.187 6.422 6.97 1.011.592 1.439.453 1.705.211.165-.15.1-2.078.437-2.984.479-1.487 1.577-2.753 2.745-3.907 1.306-1.212 2.785-2.325 4.531-3.058 3.496-1.503 7.12-2.782 10.78-3.966 2.756-.866 5.558-1.635 8.423-2.193-12.297.073-24.594.159-36.891.278a1011.89 1011.89 0 0 1 1.872-7.591c1.304-1.451 2.945-2.644 4.564-3.83 7.051-4.933 15.191-8.583 23.435-11.851-.965-1.283-2.307-2.477-2.52-4.052-.498-2.211.585-4.397 1.948-6.238.808-1.045 1.563-2.186 2.806-2.905 1.248-.733 2.936-.781 4.3-.26 4.571 1.74 9.286 4.803 12.772 7.554.349.299.797.558 1.016.949-.82 2.252-1.687 4.495-2.482 6.756-3.635.689-7.288 1.347-10.831 2.336.36 1.903 1.002 3.979.038 5.823-.336-.04-.793-.09-.85-.439-.136-1.6-1.045-3.055-1.979-4.417-4.52 1.509-9.03 3.069-13.292 5.054-3.435 1.617-6.918 3.372-9.463 5.959 18.906.005 37.814.005 56.721 0-1.212 2.258-2.508 4.485-3.742 6.733-12.379 2.557-24.735 5.291-36.744 8.925-5.04 1.566-10.076 3.289-14.545 5.842-.463.3-.73.852-.394 1.302.694.904 1.961 1.277 3.023 1.792 2.31 1.084 4.87 1.674 7.385 2.307 1.803.452 3.606.901 5.406 1.357-.149 2.706-.175 5.418-.368 8.12-1.475 0-2.979-.222-4.462-.332-2.905-.293-5.854-.489-8.656-1.245-3.816-1.023-7.253-2.967-9.945-5.467-2.956-2.696-5.093-5.969-6.624-9.398-2.091-4.752-3.256-10.573-3.66-15.621-.185-.022-.23.983-.409.967a40.89 40.89 0 0 1-2.017 6.348c-.166.51-.607.899-.997 1.294a114.847 114.847 0 0 1-8.954 7.911c-3.212 2.537-6.561 4.966-10.179 7.081-3.805 2.213-7.921 4.203-12.473 5.039-2.447.43-5.228.512-7.371-.743-2.394-1.387-3.561-3.798-4.192-6.109a206.982 206.982 0 0 1-6.627 4.115c-2.027 1.154-4.047 2.374-6.369 3.069-5.806 1.828-11.847 3.026-17.857 4.262-4.31.828-8.622 1.657-12.961 2.365 4.02-1.935 8.102-3.783 12.105-5.744 10.86-5.267 21.559-10.803 31.771-16.937 1.392-5.655 3.641-11.343 7.997-15.881l.221-.052c-.347.626-.513 1.312-.871 1.935-2.625 3.898-4.491 8.206-5.152 12.669 4.649-2.866 9.186-5.87 13.456-9.137 2.638-2.005 5.116-4.159 7.379-6.47.623-.654 1.469-1.216 1.704-2.075.103-.56.045-.905-.33-2.064-2.64-6.185-6.386-13.903-8.874-19.342.852-2.747 1.64-5.51 2.501-8.256 1.146.64 1.893 1.646 2.709 2.555 1.666 2.074 3.233 4.207 4.64 6.416.787 1.214.936 2.625 1.225 3.966-1.13-.861-1.917-2.029-3.17-2.766.054.196.13.387.229.574 1.983 3.319 3.34 6.895 4.219 10.536.543 2.163.779 4.381.627 6.592-.113 2.397-.498 4.853-1.796 7.015-1.153 1.921-2.703 3.642-4.323 5.293-5.49 5.462-11.925 10.169-18.46 14.702.009.264.362.336.573.48 2.339 1.238 5.265 1.113 7.877.728 1.969-.387 3.996-.681 5.799-1.498 4.731-2.099 8.856-5.025 12.838-8.007 5.221-4.028 10.138-8.334 14.829-12.803a798.236 798.236 0 0 0-4.852-14.105c-.901-2.45-1.738-4.922-2.815-7.32-1.786-3.164-3.502-6.365-5.059-9.612.629-2.481 1.42-4.934 2.091-7.409m47.582 12.759c-.572.192-1.051.727-.811 1.264.088.407.612.547.887.849a43.038 43.038 0 0 1 3.229 3.532c2.488-.766 5.015-1.432 7.526-2.136-1.87-1.514-3.946-2.955-6.441-3.639a7.323 7.323 0 0 0-4.39.13Zm55.05-3.26c7.663-4.023 15.284-8.101 22.958-12.108-.217 1.25-.64 2.62-1.851 3.444-7.43 3.928-14.902 7.803-22.329 11.738.318-1.048.818-2.049 1.222-3.074Zm-38.662-15.164c.709-.348 1.748-.323 2.228.312.66.845.837 1.951.48 2.921-.676 1.924-2.167 3.559-3.793 4.982-1.977 1.637-4.344 3.146-7.141 3.515.469-.492 1.154-.765 1.758-1.118 1.733-.99 3.401-2.081 4.857-3.356.764-.749 1.59-1.559 1.727-2.584.053-.86-.867-1.594-1.805-1.737-1.367.205-2.219 1.207-3.224 1.911-.24-.622.401-1.059.78-1.515 1.205-1.241 2.419-2.573 4.133-3.331Zm-99.808-4.166c2.343-1.225 4.64-2.519 7.013-3.704-.234 1.265-.718 2.729-2.167 3.358-5.183 2.689-10.309 5.458-15.511 8.119.581-1.007 1.153-2.025 1.792-3.006 2.933-1.619 5.92-3.174 8.873-4.767Zm225.722-7.876c3.416 1.949 6.233 4.731 7.758 7.989 1.502 3.158 1.489 6.742.28 9.968-.165.373-.516.653-.81.952.526-2.19.706-4.488-.025-6.66-1.035-3.442-3.995-6.3-7.594-8.03.179-1.403.219-2.816.391-4.219Zm-82.317 1.414c.587-.608 1.159-1.227 1.802-1.792-.612 1.212-.145 2.53.146 3.759.33 1.125.647 2.261 1.148 3.342.625.693 1.721 1.046 2.73 1.02a.566.566 0 0 0 .53-.801c-.494-1.355-1.135-2.671-1.865-3.946.14-.937.551-1.837.839-2.75.349.027.704.052 1.062.082.234 1.66 1.258 3.131 2.062 4.622-.034 1.2-.133 2.407-.406 3.588-.207.822-.566 1.774-1.547 2.145-.835.275-1.813.428-2.656.096-1.239-.465-2.119-1.382-2.88-2.298-.482 1.296-1.706 2.323-3.208 2.778-1.235.482-2.736-.023-3.519-.904-.898-1.04-1.056-2.379-1.071-3.629.051-1.2.162-2.436.772-3.538.396-.74 1.008-1.467 1.948-1.744-1.254 1.757-1.393 4.009-.467 5.896.267.534.816 1.052 1.548 1.069 1.113-.048 1.977-.727 2.714-1.371-.017-1.532.063-3.06.065-4.592.053-.345-.071-.761.253-1.032ZM96.206 169.218c2.795 1.535 5.021 3.871 6.085 6.558.864 2.172.803 4.562.034 6.746-.104.355-.419.621-.701.881.568-2.061.507-4.296-.511-6.252-1.037-2.02-2.939-3.685-5.191-4.763.122-1.055.183-2.114.284-3.17Zm90.222-2.294c.633-.665 1.199-1.43 2.04-1.915-.555.715-.322 1.598-.189 2.386.311 1.471.774 2.919 1.321 4.34.172.594.894.848 1.489 1.076.539.171 1.186.33 1.733.102.345-.257.183-.696.061-1.013-.526-1.245-1.064-2.493-1.804-3.66l.849-2.714c.371.025.741.047 1.117.066.171 1.671 1.254 3.13 2.034 4.63-.027 1.278-.136 2.567-.462 3.819-.185.739-.587 1.518-1.41 1.889-.944.317-2.07.465-2.993.025-1.071-.521-1.927-1.315-2.598-2.181-.538 1.328-1.832 2.38-3.403 2.814-1.081.344-2.367-.023-3.105-.749-.94-.828-1.193-2.026-1.283-3.13-.074-1.419.061-2.883.715-4.204a3.793 3.793 0 0 1 1.929-1.816c-.869 1.463-1.314 3.164-.828 4.779.214.847.572 1.928 1.684 2.193 1.201.131 2.156-.643 2.931-1.314.144-1.804.054-3.62.172-5.423Zm93.014-2.286c4.045-1.483 8.09-2.981 12.228-4.265-.126.797-.467 1.706-1.382 2.086-5.875 2.126-11.773 4.216-17.524 6.576-1.142.535-2.316 1.085-3.205 1.908.635.594 1.585.817 2.444 1.085-.011.575-.009 1.152-.009 1.729-1.216-.249-2.433-.626-3.376-1.344.055-.819.038-1.643.171-2.456.136-.738 1.026-1.086 1.67-1.487 2.85-1.505 5.936-2.651 8.983-3.832Zm-182.028-7.179.167.141c-.367.394-.18.915-.12 1.368.2.975.486 1.942.88 2.874.131.418.642.617 1.078.756.38.068.997.227 1.155-.205-.261-1.011-.888-1.913-1.275-2.883.183-.56.27-1.161.582-1.68.211.004.425.011.64.023.21 1.088.877 2.046 1.357 3.05-.028 1.032-.066 2.104-.524 3.074-.286.656-1.197.831-1.929.822-1.07-.128-1.773-.895-2.406-1.562-.409.974-1.452 1.735-2.668 1.869-1.022.045-1.889-.655-2.158-1.452-.355-1.053-.316-2.186-.027-3.247.225-.742.665-1.544 1.57-1.829-.714 1.021-.89 2.278-.491 3.418.156.471.444 1.061 1.1 1.129.728.01 1.269-.46 1.788-.826.135-1.166-.027-2.343.143-3.508.263-.501.79-.872 1.138-1.332Zm33.521-2.009c.446.101.768.41 1.136.629 2.23 1.557 4.087 3.581 4.973 5.933.829 2.129.778 4.467.04 6.609-.101.37-.379.67-.623.98-.019-.039-.057-.119-.078-.158.539-1.98.459-4.111-.481-5.994-1.016-2.063-2.92-3.771-5.217-4.847.059-1.052.156-2.104.25-3.152Zm20.229-1.837c.566-1.168 2.049-2.149 3.595-1.924.772.141 1.313.717 1.588 1.314.541 1.23.621 2.571.432 3.866.948.963 1.979 1.938 2.376 3.187.737 1.642.078 3.395-.549 4.98-.801 2.097-2.324 4.002-2.608 6.231-.099.551.151 1.152.816 1.343 1.069-.268 1.235-1.345 1.454-2.13.334-.067.858-.098.974.261.183.991-.331 1.945-.745 2.849-.374.687-.894 1.498-1.855 1.652-.768.119-1.355-.452-1.662-.974-.875-1.505-.6-3.29.132-4.793 1.14-2.395 2.646-4.806 2.508-7.463.004-1.129-.556-2.206-1.45-3.028-1.335 3.058-3.496 5.815-5.984 8.283-1.287 1.355-3.136 2.183-4.901 3.008-1.58.694-3.182 1.377-4.865 1.878 3.239-1.976 6.346-4.135 9.034-6.644 2.217-2.11 4.258-4.488 5.08-7.27l-.055-.157c-1.198-.656-2.639-1.236-3.264-2.395-.265-.66-.231-1.402-.051-2.074Zm1.202.336c-.31.169-.097.493.155.604.755.373 1.532.719 2.316 1.047-.019-.671.124-1.503-.568-1.981-.599-.425-1.42-.057-1.903.33Zm128.058-1.493c.404-.597 1.029-1.334 1.954-1.23.982.187 1.944.634 2.547 1.333.308.437.562 1.104.017 1.489-.286.238-.49.639-.843.758-.494-.547-.877-1.524-1.877-1.496-1.251.391-1.943 1.466-2.318 2.488-.776 2.107-.934 4.329-1.178 6.512-.248.218-.582.339-.881.494 0-2.213-.606-4.583-2.476-6.218-.9-.094-1.971-.185-2.475-.925-.615-.944-1.056-2.108-.631-3.171.953-.158 1.725.448 2.372.951 1.713 1.332 2.819 3.095 3.818 4.848.423-1.99.848-4.027 1.971-5.833Zm-243.573.719c.522-.781 1.098-1.586 2.002-2.087-1.443 2.639-3.121 5.261-3.658 8.173-.168.952-.174 2.043.545 2.844.673.719 1.898.731 2.85.48 1.067-.362 1.563-1.332 2.062-2.14.223.005.27.228.376.362-.561 1.87-1.104 3.9-2.768 5.318-1.546 1.385-4.596.672-5.355-1.049-.551-1.238-.369-2.607-.044-3.869.795-2.843 2.3-5.502 3.99-8.032Zm145.076-2.966c2.772 1.607 5.046 3.925 6.106 6.65.526 1.43.72 2.955.516 4.445-.152 1.086-.356 2.213-1.073 3.148-.101-.285-.034-.578.029-.862a8.072 8.072 0 0 0-1.247-6.364c-1.088-1.582-2.697-2.908-4.59-3.784.036-1.08.16-2.156.259-3.233Zm38.69-1.451c1.093.481 1.809 1.36 2.513 2.184 1.719 2.133 3.179 4.528 4.489 6.855.128.307.135.689.225 1.712-.791-.729-1.716-1.434-2.892-1.648a1.342 1.342 0 0 0-.029 1.211c1.527 3.971 3.254 7.887 4.733 11.872.942 2.599 1.769 5.268 1.8 8.003.065 2.54-.446 5.075-1.329 7.497-.888 2.275-2.249 4.531-4.519 6.032-1.868 1.286-4.36 1.819-6.737 1.63-2.9-.184-5.648-1.369-7.661-3.131-1.075-.869-1.947-1.894-2.766-2.939l.314-.062-.343.035c-1.818-2.596-3.166-5.43-3.944-8.378.069-.381-.789-.349-.703.031-1.108 4.299-2.877 8.539-5.806 12.202-1.71 2.104-3.922 3.982-6.668 5.093-2.991 1.197-6.514 1.275-9.663.508-3.164-.774-5.671-2.892-7.03-5.388-1.969-3.578-2.27-7.627-2.053-11.516.423-3.142 1.348-6.215 2.253-9.277.305-.941.576-1.954.183-2.91l-.501-.221c-.423.234-.858.464-1.188.792-2.319 2.168-3.635 4.939-4.687 7.687a42.508 42.508 0 0 0-1.832 6.761c-.553 3.616-1.401 7.275-3.364 10.552-1.064 1.743-2.663 3.552-5.071 3.952-2.232.253-4.617-.341-6.252-1.675-2.002-1.587-2.879-3.894-3.407-6.112-.842-3.982-.581-8.064-.053-12.062a67.042 67.042 0 0 1 1.487-7.334c.206-.016.414-.029.627-.04-.833 4.086-1.407 8.234-1.262 12.387.13 2.366.458 4.777 1.592 6.967.77 1.499 2.076 2.896 3.891 3.541 1.715.592 3.831.699 5.436-.183 1.66-.924 2.438-2.574 3.054-4.102 1.214-3.383 1.75-6.901 2.703-10.337.999-3.488 2.436-6.881 4.199-10.145 1.009-1.903 2.122-3.773 3.55-5.478 1.269-1.518 2.434-3.183 4.235-4.298l.534.023c.33 1.143-.059 2.327-.118 3.485-.111 1.911-.932 3.707-1.403 5.56-.585 2.118-1.085 4.255-1.586 6.389-.774 3.056-1.325 6.28-.351 9.355.736 2.411 2.699 4.538 5.349 5.636 1.723.769 3.656 1.16 5.595 1.218 2.726.234 5.577-.044 8.015-1.157 2.938-1.298 5.019-3.652 6.367-6.166a20.696 20.696 0 0 0 2.291-7.975c.029-5.444-.417-10.993-2.613-16.156-.28-.713-.646-1.453-.486-2.218.347-2.099 1.174-4.119 2.144-6.065.061-.223.376-.239.566-.353 1.037 2.627 2.044 5.271 2.673 7.994.793 3.54 1.25 7.126 1.719 10.703.372 2.554.481 5.147 1.237 7.65.626 2.078 1.602 4.111 3.136 5.831 1.864 2.195 4.661 3.825 7.772 4.448 2.663.524 5.507-.15 7.748-1.411 1.177-.681 2.4-1.83 2.008-3.13-3.729-8.317-6.796-16.833-9.844-25.341-.202-.702-.586-1.375-.65-2.097.396-2.25 1.326-4.408 2.373-6.492v.001Zm-104.206 6.99c1.275-2.44 2.547-4.881 3.849-7.31a87.912 87.912 0 0 1 6.102 15.188c.181 1.05-.185 2.106-.14 3.161-.88-1.323-1.889-2.58-2.811-3.882.238 2.383.669 4.752.93 7.135a1365.86 1365.86 0 0 1 4.636 42.269c1.517-.931 2.674-2.266 3.324-3.752.847-1.673 1.762-3.336 3.001-4.831.465-.536 1.079-1.225 1.98-1.059.509.025.751.489.801.865.225 1.325-.957 2.468-.755 3.782.055 1.079 1.049 2.005 2.232 2.331 2.044.626 4.266.346 6.362.095.947-.177 2.129-.329 2.59-1.161a45.721 45.721 0 0 0-1.66-3.959c.886-1.914 1.897-3.786 2.821-5.689.238-.449.397-.945.789-1.323.671 2.176.839 4.433 1.11 6.662.28 3.604-.401 7.345-2.522 10.516-1.142 1.623-2.848 3.097-5.073 3.566-1.94.394-4.071.214-5.829-.606-2.037-.983-3.433-2.709-4.159-4.569-1.102 2.147-2.552 4.177-4.396 5.922.214 2.786.454 5.569.618 8.357.122 3.108-.818 6.154-1.906 9.096-.527 1.264-1.047 2.536-1.699 3.759a73.082 73.082 0 0 1-22.655 20.458c-6.018 3.504-12.675 6.222-19.665 8.007-3.654.899-7.39 1.632-11.19 1.867-3.924.046-7.905-.383-11.572-1.603-3.441-1.138-6.447-3.21-8.376-5.888-6.778.593-13.595.92-20.41.934 6.078-1.847 12.097-3.843 18.014-6.04-1.58-6.532-.274-13.267 1.701-19.629 1.21-3.857 2.64-7.687 4.391-11.389 1.328-2.962 1.851-4.324 4.387-7.818-2.657 3.975-3.044 5.611-4.231 8.429-1.599 4.338-2.748 8.817-3.087 13.356-.334 4.989.088 10.228 2.831 14.744 7.293-2.891 14.392-6.14 21.2-9.785 5.771-3.135 11.348-6.555 16.415-10.476 2.402-1.883 4.737-3.848 6.71-6.066.583-.582.299-1.411.109-2.072a60.151 60.151 0 0 0-1.445-3.292c-3.45 1.184-7.124 1.995-10.866 1.981-2.04.05-4.14-.28-5.898-1.191-1.509-.789-2.628-2.083-3.082-3.535-.629-1.904-.356-3.914.021-5.834.597-2.78 1.805-5.56 4.1-7.664 1.611-1.47 3.744-2.6 6.108-2.896 2.674.01 5.192 1.116 7.1 2.651 2.43 1.953 4.087 4.485 5.362 7.083 2.379-1.175 4.665-2.566 6.437-4.372 1.737-1.532 3.525-3.096 5.744-4.125.553-.269 1.508-.567 1.876.063.402.934.019 1.961-.25 2.89-.715 1.355.149 2.896 1.218 3.932 1.487 1.423 3.931 1.56 6.003 1.241-2.17-18.911-4.377-37.82-6.55-56.731-.044-.635-.368-1.214-.645-1.794m-29.563 58.069c-1.064.388-2.396.964-2.553 2.05.25.826 1.394 1.081 2.254 1.258 2.767.454 5.642.445 8.406-.015-.05-.084-.156-.249-.208-.333-1.441-1.384-3.278-2.575-5.461-2.925-.801-.101-1.653-.296-2.438-.035Zm18.113 7.724c.286 3.854-.351 7.75-1.783 11.411-.553 1.271-1.014 2.618-2.057 3.677-5.13 5.813-11.74 10.562-18.705 14.731a140.405 140.405 0 0 1-19.606 9.631c1.17.483 2.398.872 3.675 1.102 3.42.644 6.952.298 10.378-.121 10.728-1.363 20.829-5.332 29.529-10.757 5.768-3.596 11.022-7.785 15.607-12.448 1.534-1.648 3.421-3.258 3.795-5.426-.366-3.679-.85-7.349-1.254-11.026-2.385.812-5.338 1.002-7.503-.353-2.627-1.681-3.626-4.551-4.04-7.201-2.266 2.581-4.931 4.92-8.036 6.78Zm131.33-71.028c.595-.838 1.163-1.764 2.179-2.292-1.477 2.507-2.983 5.057-3.648 7.825-.258 1.197-.347 2.654.812 3.55.673.279 1.45.445 2.184.225 1.342-.255 1.969-1.439 2.492-2.398.146.385.242.784.087 1.18-.478 1.666-1.113 3.41-2.55 4.671-1.618 1.469-4.88.624-5.496-1.259-.541-1.709-.046-3.499.547-5.15.862-2.212 2.057-4.321 3.393-6.352Zm-170.447 4.695c1.435-2.358 2.813-4.738 4.212-7.11 2.272 5.031 4.07 10.216 5.318 15.498.082.961-.228 1.919-.329 2.874-1.026-1.177-1.642-2.594-2.688-3.769.57 3.967.774 7.967 1.147 11.951.414 5.151.805 10.305 1.194 15.458 3.116-.442 5.915-2.002 7.796-4.131 2.83-3.189 4.085-7.201 4.44-11.128-.023-5.044-.34-10.176-2.21-15.005-.33-.988-.939-1.944-.926-2.991.223-1.945.99-3.81 1.803-5.627.206-.425.34-.965.946-1.092.924 2.42 1.879 4.838 2.493 7.331.953 3.905 1.413 7.882 1.944 11.841.353 2.396.458 4.832 1.173 7.181.928 3.158 2.809 6.235 5.905 8.243 2.328 1.498 5.303 2.523 8.265 2.126 2.088-.319 4.202-1.024 5.664-2.376.661-.599 1.115-1.476.833-2.296-2.991-6.529-5.433-13.225-7.902-19.904a1020.27 1020.27 0 0 1-2.499-6.98c-.236-.59.071-1.198.185-1.781.52-1.78 1.193-3.544 2.122-5.198 1.012.412 1.668 1.227 2.329 1.963 1.992 2.433 3.58 5.082 5.04 7.766-.07.342-.137.687-.192 1.033-.74-.78-1.691-1.479-2.881-1.677-.19.382-.181.799-.017 1.186 1.325 3.397 2.738 6.769 4.087 10.159 1.146 3.023 2.524 7.417 2.446 9.294-.241 2.637-.677 6.134-1.618 8.591-1.035 2.185-2.837 4.794-5.292 5.994-2.105 1.074-4.705 1.239-7.078.843-3.124-.529-5.803-2.241-7.722-4.349-2.697-2.971-4.352-6.541-5.332-10.171a58.02 58.02 0 0 0-.59.02c-.916 3.652-2.311 7.249-4.465 10.517-1.931 2.923-4.6 5.685-8.282 7.079.644 9.043 1.317 18.084 1.778 27.135.067 4.463-.145 8.925-.406 13.383-.004.606-.303 1.168-.526 1.735a138.596 138.596 0 0 1-2.297 5.77 3.15 3.15 0 0 1-.532.906c-.105-8.521-.957-17.022-1.637-25.521-.616-7.484-1.232-14.968-1.832-22.452-2.947-.056-5.982-.787-8.157-2.541-2.535-1.978-3.828-4.829-4.447-7.643-.547-2.493-.662-5.048-.433-7.572.505-3.295 1.5-6.517 2.449-9.738.13-.576.225-1.18.071-1.76-.059-.21-.116-.46-.404-.519-.441-.048-.77.232-1.068.459-1.654 1.355-2.735 3.108-3.68 4.862-1.79 3.626-2.843 7.49-3.418 11.383-.475 2.566-1.17 5.121-2.305 7.541-.902 1.797-2.028 3.648-3.984 4.775-1.67.975-3.879.856-5.706.296-2.314-.727-3.961-2.486-4.836-4.39-1.521-3.274-1.62-6.858-1.527-10.33.216-4.07.898-8.117 1.947-12.09.198-.036.398-.07.596-.102-.85 4.558-1.542 9.18-1.14 13.801.195 2.002.616 4.024 1.626 5.857.858 1.566 2.364 2.973 4.358 3.485 1.696.442 3.704.406 5.147-.56 1.57-1.065 2.312-2.728 2.886-4.308 1.35-4.004 1.858-8.174 3.256-12.167a54.196 54.196 0 0 1 5.484-11.302c1.323-1.862 2.754-3.682 4.415-5.341.493-.435.987-1.054 1.77-1.061.428.234.275.745.286 1.111-.22 1.801-.24 3.643-.876 5.385-1.16 3.576-1.943 7.23-2.795 10.864-.591 2.83-.749 5.852.528 8.566.94 2.07 2.896 3.75 5.256 4.685 1.283.513 2.67.827 4.073.998-.774-10.096-1.654-20.187-2.455-30.284-.183-1.571-.061-3.192-.783-4.679Zm312.473.039c1.265-2.543 2.434-5.116 3.713-7.654 1.96 5.477 3.875 10.969 5.473 16.529.24.957.553 1.908.671 2.883-.166.772-.444 1.53-.467 2.324a411.834 411.834 0 0 0-2.11-3.414c.892 14.225 1.969 28.443 3.172 42.653.373 4.57.917 9.132 1.115 13.711.362 8.483.013 17.149-3.027 25.304-1.142 2.947-2.595 5.82-4.442 8.502-2.482 3.467-6.168 6.2-10.221 8.301-7.219 3.682-15.482 5.597-23.732 6.78-.467.144-.656-.316-.921-.525 7.36-3.004 14.436-6.535 21.041-10.615 3.302-2.097 6.536-4.307 9.314-6.903 3.185-3.04 5.587-6.701 6.679-10.674 1.197-3.995.784-8.151.522-12.217-.69-9.373-1.544-18.736-2.272-28.107-1.121-14.44-2.251-28.883-3.374-43.323-.238-1.015-.985-1.885-1.33-2.873-.092-.242.122-.46.196-.683v.001Zm-18.643 2.479c4.302-3.829 8.473-7.762 12.607-11.725.183 3.561-1.978 6.835-4.39 9.617-1.292 1.617-3.114 2.828-4.752 4.172a74.922 74.922 0 0 0-2.299 1.851c.216.953.547 1.891.669 2.857-.063.897-.234 1.789-.36 2.682-.928-1.234-1.59-2.611-2.65-3.766.467 4.039.694 8.096 1.011 12.145a3734.946 3734.946 0 0 1 2.304 35.679c-.042.307.275.501.479.719 3.061 2.885 6.109 5.781 8.974 8.808 2.25 2.54 4.381 5.164 6.188 7.952 2.367 3.648 4.241 7.6 4.794 11.765.301 2.62.151 5.323-.854 7.832-1.772-6.874-5.033-13.124-8.833-17.459-3.197-3.693-6.695-7.311-10.225-10.778.246 4.24.492 8.482.684 12.725.187 5.472-.051 10.947-.324 16.414.002 1.036-.549 1.983-.833 2.973-.823 2.222-1.485 4.497-2.539 6.651-.168-5.05-.37-10.105-.73-15.15-.646-9.035-1.325-18.067-1.935-27.103-.091-.711-.044-1.437-.204-2.136-2.322-2.302-4.83-4.467-7.255-6.689-4.272-3.784-8.589-7.532-13.069-11.138.849 9.439 1.729 18.875 2.524 28.317.34 4.287.791 8.574.839 12.874.061 3.739.017 7.48-.082 11.218.013 2.359.051 4.797-.936 7.04-1.46 2.778-4.079 5.098-7.236 6.53-2.465 1.109-5.253 1.699-8.042 1.719-1.882.036-3.754-.389-5.418-1.118-2.913-1.393-4.992-3.768-6.329-6.325a19.86 19.86 0 0 1-1.931-5.523c-.207-.833-.425-1.796-1.303-2.316-.698-.4-1.533-.08-2.208.187-1.643.742-3.225 1.637-4.413 2.869-3.871 3.948-5.712 8.987-6.864 13.947-.564 2.14-1.458 4.267-3.027 6.034-1.138 1.259-2.763 2.464-4.687 2.496-1.506.026-2.959-.518-4.303-1.082-2.975-1.33-5.038-3.769-6.266-6.373-.329-.696-.729-1.275-1.374-3.74-.694-2.658-.934-6.695-.665-10.804.131-.398-.355-.542-.622-.763-1.06-.771-1.494-1.994-1.479-3.146-.03-4.228.694-8.529 2.793-12.397 1.702-3.19 4.251-5.975 6.733-8.75.234-.3.646-.539.76-.888-1.546-1.496-3.179-2.93-4.828-4.344-.94-.922-2.084-1.671-3.01-2.602-3.479-3.197-6.899-6.439-10.318-9.683.327 4.745.575 9.494.854 14.242.213 4.398.572 8.793.499 13.196.015 3.925-.194 7.846-.383 11.766-.01.977-.475 1.886-.77 2.817-.828 2.295-1.577 4.617-2.583 6.864-.187-1.858-.073-3.729-.212-5.588-.381-9.278-1.237-18.535-1.845-27.803-.518-7.09-.974-14.185-1.525-21.272-2.278-2.396-4.682-4.716-6.935-7.136-2.638-2.821-5.274-5.662-7.482-8.741-3.17-4.836-6.729-9.532-11.123-13.64-.251-.2-.173-.498-.171-.753.152-2.659.272-5.318.427-7.976 3.128 1.726 6.111 3.64 8.978 5.667 2.222 1.625 4.336 3.367 6.134 5.337.928.931 1.784 2.119 1.473 3.39-1.056-.355-2.148-.638-3.147-1.098a4.325 4.325 0 0 0-1.289-.364c-.066.744.532 1.33.98 1.915 3.258 4.046 6.657 8.007 10.145 11.912.448.501.942.979 1.287 1.543-.221-4.58-.633-9.154-.926-13.731-.494-7.068-1.001-14.135-1.495-21.204-.091-1.056-.03-2.145-.53-3.138-.242-.396.115-.758.313-1.101a232.995 232.995 0 0 0 3.49-5.933c.054-.139.317-.497.397-.153a84.922 84.922 0 0 1 5.063 14.608c.381 1.189-.088 2.402-.229 3.591-.803-1.346-1.714-2.642-2.606-3.948 1.142 12.413 1.805 24.857 2.661 37.283.578.824 1.466 1.477 2.173 2.229 6.826 6.673 13.912 13.148 20.995 19.623a1772.758 1772.758 0 0 1 15.912-14.767c.232-.182.39-.405.308-.681-1.605-15.452-3.212-30.905-4.82-46.356-.204-1.562-.149-3.171-.841-4.655 1.315-2.394 2.756-4.741 4.062-7.141.715 1.26 1.207 2.607 1.771 3.923 1.325 3.279 2.472 6.612 3.378 9.991.19.761.501 1.53.377 2.318-.095.711-.211 1.421-.301 2.134-.879-1.258-1.723-2.535-2.608-3.791 1.257 12.445 2.533 28.115 3.674 39.662 5.53-4.98 11.016-9.998 16.572-14.957.61-.589 1.304-1.115 1.866-1.739-2.703-3.079-5.226-6.27-7.741-9.46-.875-1.05-1.555-2.202-2.39-3.274-1.758-2.311-3.555-4.649-5.97-6.512-.21-3.003-.324-6.013-.475-9.021 5.671 4.201 11.432 8.32 16.943 12.675.529.401.949.893 1.244 1.442-.497-4.698-.951-9.399-1.42-14.099-.057-.432-.04-.881-.253-1.284-.141-.414-.53-.856-.214-1.279 1.304-2.273 2.534-4.577 3.824-6.858 2.257 4.529 4.015 9.234 5.408 14.005.143.671.488 1.329.383 2.021-.103.763-.164 1.53-.267 2.293-.797-1.124-1.594-2.247-2.383-3.372a7.695 7.695 0 0 1-.381-.539c.719 5.377 1.195 10.774 1.756 16.163 4.155-3.737 8.421-7.384 12.718-11.006 1.914-1.535 3.9-3.008 5.734-4.614-.172-2.087-.271-4.177-.465-6.261-.036-.662-.753-1.329-.25-1.962 1.357-2.186 2.642-4.406 3.908-6.633 1.483 2.889 2.485 5.942 3.557 8.953m-24.745 26.192c.065.844.149 1.687.24 2.529a125.575 125.575 0 0 0 4.148 4.176c5.437 5.204 11.062 10.262 16.579 15.404-.854-12.716-1.813-25.43-2.661-38.148a630.304 630.304 0 0 0-18.306 16.039Zm-11.744-11.534c1.744 2.311 3.559 4.589 5.494 6.787-.156-2.038-.389-4.074-.599-6.109-.106.18-.219.36-.308.544-1.314-.813-2.919-1.452-4.587-1.222Zm-11.178 32.894c-1.128 1.125-2.384 2.163-3.444 3.332.251 3.606.793 7.202 1.128 10.807.164 5.957-1.004 12.28-5.324 17.156.124-.776.065-1.56.076-2.342-.007-2.673.126-5.346.111-8.02-.014-2.563.04-2.387-.078-7.688-.049-2.213-.372-3.969-.582-5.526-1.509 1.352-2.945 2.76-4.449 4.116-2.96 2.803-6.106 5.456-9.14 8.2 3.082 2.814 5.015 6.518 5.513 10.329.503 4.053-.687 8.363-3.826 11.514-2.768 2.763-6.739 4.507-10.864 5.309-1.935.364-4.003.613-5.924.064.24 1.701.541 3.397.943 5.077.69 2.832 1.588 5.69 3.369 8.185.953 1.275 2.26 2.511 4.056 2.885 1.921.396 3.875-.421 5.225-1.541 1.203-.914 1.761-2.241 2.268-3.504 1.525-3.717 2.04-7.712 4.057-11.287 1.416-2.837 3.215-5.591 5.81-7.777 1.347-1.187 2.895-2.2 4.517-3.103 1.117-.567 2.469-1.039 3.784-.708 1.251.313 2.095 1.249 2.673 2.192 1.317 2.124 1.66 4.553 2.726 6.76.781 1.825 1.815 3.677 3.654 4.908 1.857 1.243 4.306 1.624 6.622 1.54 4.043-.146 10.691-2.939 11.028-3.728.35-.819-.573-7.018-.934-10.523-1.76-17.123-3.443-34.252-5.163-51.376-.059-.471-.558-.79-.804-1.19-5.779 5.234-11.38 10.605-17.028 15.939m-26.344 24.567c-1.209 1.184-2.351 2.42-3.489 3.654-2.165 2.475-4.331 4.978-5.934 7.753-.404.704-.772 1.584-.307 2.333.549.766 1.722.88 2.686.882 4.253-.144 8.22-1.758 11.674-3.773 1.155-.483 2.24-1.553 1.805-2.714-.572-1.56-1.656-2.937-2.716-4.287a56.838 56.838 0 0 0-3.494-3.862 18.1 18.1 0 0 0-.225.014Z"/></svg>