<svg xmlns="http://www.w3.org/2000/svg" width="420" height="420" fill="none"><path fill="#231F1E" fill-rule="evenodd" d="M0 104.667C0 78.895 20.895 58 46.667 58h326.666C399.105 58 420 78.895 420 104.667v210c0 23.874-17.932 43.563-41.061 46.333H41.061C17.93 358.23 0 338.541 0 314.667v-210Z" clip-rule="evenodd"/><path fill="#00A650" fill-rule="evenodd" d="M0 104.667C0 78.895 20.895 58 46.667 58h326.666C399.105 58 420 78.895 420 104.667V209.5H0V104.667Z" clip-rule="evenodd"/><path fill="#EF1923" fill-rule="evenodd" d="M16.32 350.119 227.25 209.5 16.54 69.027C6.424 77.587 0 90.377 0 104.667v210c0 14.185 6.33 26.893 16.32 35.452Z" clip-rule="evenodd"/></svg>