<svg xmlns="http://www.w3.org/2000/svg" xml:space="preserve" style="enable-background:new 0 0 45 45" viewBox="0 0 45 45"><defs><clipPath id="a" clipPathUnits="userSpaceOnUse"><path d="M0 36h36V0H0v36Z"/></clipPath><clipPath id="b" clipPathUnits="userSpaceOnUse"><path d="M4 31a4 4 0 0 1-4-4V9a4 4 0 0 1 4-4h28a4 4 0 0 1 4 4v18a4 4 0 0 1-4 4H4z"/></clipPath><clipPath id="c" clipPathUnits="userSpaceOnUse"><path d="M4.5 30A3.5 3.5 0 0 1 1 26.5v-17A3.5 3.5 0 0 1 4.5 6h25A3.5 3.5 0 0 1 33 9.5v17a3.5 3.5 0 0 1-3.5 3.5h-25z"/></clipPath><clipPath id="d" clipPathUnits="userSpaceOnUse"><path d="M0 36h36V0H0v36Z"/></clipPath></defs><g clip-path="url(#a)" transform="matrix(1.25 0 0 -1.25 0 45)"><path d="M0 0a4 4 0 0 0-4-4h-28a4 4 0 0 0-4 4v18a4 4 0 0 0 4 4h28a4 4 0 0 0 4-4V0Z" style="fill:#eee;fill-opacity:1;fill-rule:nonzero;stroke:none" transform="translate(36 9)"/></g><g clip-path="url(#b)" transform="matrix(1.25 0 0 -1.25 0 45)"><path d="M0 0v-20h19L0 0Z" style="fill:#003893;fill-opacity:1;fill-rule:nonzero;stroke:none" transform="translate(0 25)"/><path d="M0 0v-14h19L0 0Z" style="fill:#003893;fill-opacity:1;fill-rule:nonzero;stroke:none" transform="translate(0 31)"/></g><g clip-path="url(#c)" transform="matrix(1.25 0 0 -1.25 0 45)"><path d="M0 0v-16.804h15.204L0 0Z" style="fill:#dd2e44;fill-opacity:1;fill-rule:nonzero;stroke:none" transform="translate(1 22.804)"/><path d="M0 0v-10.804h15.204L0 0Z" style="fill:#dd2e44;fill-opacity:1;fill-rule:nonzero;stroke:none" transform="translate(1 28.804)"/></g><g clip-path="url(#d)" transform="matrix(1.25 0 0 -1.25 0 45)"><path d="m0 0 .586.816-1-.098.1 1-.817-.586-.414.916-.414-.916-.817.586.099-1-1 .098.586-.816-.916-.414.916-.414-.586-.817 1 .099-.099-1 .817.586.414-.916.414.916.817-.586-.1 1 1-.099L0-.828l.916.414L0 0Z" style="fill:#fff;fill-opacity:1;fill-rule:nonzero;stroke:none" transform="translate(6.291 11.959)"/><path d="m0 0 .001-.002L.002 0l.017-.002a2.8 2.8 0 0 1 2.785 2.567 3.203 3.203 0 0 0-1.595-1.442l-.175.244.611.277-.611.276.391.545L.757 2.4l.067.668-.547-.391-.276.612-.277-.612-.546.391.067-.668-.668.065.391-.545-.612-.276.612-.277-.168-.233a3.196 3.196 0 0 0-1.565 1.431A2.798 2.798 0 0 1 0 0" style="fill:#fff;fill-opacity:1;fill-rule:nonzero;stroke:none" transform="translate(4.745 19.106)"/></g></svg>