<svg xmlns="http://www.w3.org/2000/svg" xml:space="preserve" style="enable-background:new 0 0 45 45" viewBox="0 0 45 45"><defs><clipPath id="a" clipPathUnits="userSpaceOnUse"><path d="M0 36h36V0H0v36Z"/></clipPath></defs><g clip-path="url(#a)" transform="matrix(1.25 0 0 -1.25 0 45)"><path d="M0 0a4 4 0 0 0-4-4h-28a4 4 0 0 0-4 4v18a4 4 0 0 0 4 4h28a4 4 0 0 0 4-4V0Z" style="fill:#d42d27;fill-opacity:1;fill-rule:nonzero;stroke:none" transform="translate(36 9)"/><path d="M0 0h-5v5h-4V0h-5v-3.937h5V-9h4v5.063h5V0Z" style="fill:#fff;fill-opacity:1;fill-rule:nonzero;stroke:none" transform="translate(25 19.937)"/></g></svg>