<svg width="420" height="420" viewBox="0 0 420 420" fill="none" xmlns="http://www.w3.org/2000/svg">
<mask id="mask0_118_16" style="mask-type:alpha" maskUnits="userSpaceOnUse" x="0" y="60" width="420" height="300">
<path d="M379.873 60H40.1274C17.9656 60 0 77.9656 0 100.127V319.873C0 342.034 17.9656 360 40.1274 360H379.873C402.034 360 420 342.034 420 319.873V100.127C420 77.9656 402.034 60 379.873 60Z" fill="#003776"/>
</mask>
<g mask="url(#mask0_118_16)">
<path d="M-90 160H510V60H-90V160Z" fill="#007A3D"/>
<path d="M-90 260H510V160H-90V260Z" fill="white"/>
<path d="M-90 360H510V260H-90V360Z" fill="black"/>
<path d="M58.6552 251L85.602 168L112.549 251L42 199.703H129.202M307.453 251L334.4 168L361.347 251L290.798 199.703H378M183.051 251L209.998 168L236.945 251L166.396 199.703H253.598" fill="#CE1126"/>
</g>
</svg>
