<svg xmlns="http://www.w3.org/2000/svg" width="420" height="420" fill="none" viewBox="0 0 420 420"><mask id="a" width="420" height="300" x="0" y="60" maskUnits="userSpaceOnUse" style="mask-type:alpha"><path fill="#fff" d="M379.873 60H40.127C17.966 60 0 77.966 0 100.127v219.746C0 342.034 17.966 360 40.127 360h339.746C402.034 360 420 342.034 420 319.873V100.127C420 77.966 402.034 60 379.873 60"/></mask><g mask="url(#a)"><path fill="#0f204b" d="M-105 0h630v420h-630z"/></g><path fill="#ffb612" d="m348.629 96-5.452 16.778 8.389 2.726z"/><path fill="#ffb612" d="m348.629 96 5.452 16.778-8.39 2.726z"/><path fill="#ffb612" d="M365.408 108.191h-17.642v8.821z"/><path fill="#ffb612" d="m365.408 108.191-14.272 10.369-5.185-7.136z"/><path fill="#ffb612" d="m331.85 108.19 14.272 10.37 5.185-7.136z"/><path fill="#ffb612" d="M331.85 108.191h17.641v8.821z"/><path fill="#ffb612" d="m359 127.916-5.452-16.779-8.389 2.726z"/><path fill="#ffb612" d="m359 127.915-14.272-10.369 5.184-7.137z"/><path fill="#ffb612" d="m338.26 127.915 14.272-10.369-5.185-7.137z"/><path fill="#ffb612" d="m338.26 127.916 5.451-16.779 8.39 2.726zM63.549 168.114l-3.25 10.002 5.001 1.625z"/><path fill="#ffb612" d="m63.549 168.114 3.25 10.002-5.001 1.625z"/><path fill="#ffb612" d="M73.553 175.382H63.036v5.258z"/><path fill="#ffb612" d="m73.553 175.382-8.509 6.181-3.09-4.254z"/><path fill="#ffb612" d="m53.545 175.382 8.508 6.182 3.091-4.255z"/><path fill="#ffb612" d="M53.545 175.382h10.517v5.259z"/><path fill="#ffb612" d="m69.73 187.141-3.25-10.003-5 1.625z"/><path fill="#ffb612" d="m69.73 187.14-8.508-6.181 3.09-4.255z"/><path fill="#ffb612" d="m57.367 187.141 8.509-6.182-3.091-4.255z"/><path fill="#ffb612" d="m57.367 187.141 3.25-10.003 5.001 1.625zM114.797 187.14l-3.25 10.002 5.001 1.625z"/><path fill="#ffb612" d="m114.797 187.14 3.25 10.002-5.001 1.625z"/><path fill="#ffb612" d="M124.799 194.407h-10.517v5.259z"/><path fill="#ffb612" d="m124.799 194.407-8.509 6.182-3.091-4.254z"/><path fill="#ffb612" d="m104.793 194.407 8.509 6.182 3.09-4.254z"/><path fill="#ffb612" d="M104.793 194.407h10.517v5.259z"/><path fill="#ffb612" d="m120.977 206.167-3.25-10.003-5.002 1.625z"/><path fill="#ffb612" d="m120.977 206.166-8.509-6.182 3.091-4.254z"/><path fill="#ffb612" d="m108.611 206.167 8.509-6.182-3.091-4.255z"/><path fill="#ffb612" d="m108.611 206.167 3.25-10.003 5.002 1.625zM140.266 214.451l-3.25 10.002 5.001 1.625z"/><path fill="#ffb612" d="m140.266 214.451 3.25 10.002-5.002 1.625z"/><path fill="#ffb612" d="M150.268 221.719H139.75v5.258z"/><path fill="#ffb612" d="m150.268 221.718-8.509 6.182-3.091-4.254z"/><path fill="#ffb612" d="m130.262 221.718 8.508 6.182 3.091-4.254z"/><path fill="#ffb612" d="M130.262 221.719h10.517v5.258z"/><path fill="#ffb612" d="m146.445 233.478-3.25-10.003-5.001 1.625z"/><path fill="#ffb612" d="m146.445 233.477-8.508-6.182 3.091-4.254z"/><path fill="#ffb612" d="m134.08 233.477 8.509-6.182-3.091-4.254z"/><path fill="#ffb612" d="m134.08 233.477 3.25-10.002 5.001 1.625zM166.043 242.99l-3.25 10.002 5.001 1.625z"/><path fill="#ffb612" d="m166.043 242.99 3.25 10.002-5.001 1.625z"/><path fill="#ffb612" d="M176.045 250.257h-10.517v5.259z"/><path fill="#ffb612" d="m176.045 250.257-8.509 6.182-3.091-4.254z"/><path fill="#ffb612" d="m156.039 250.257 8.509 6.182 3.091-4.254z"/><path fill="#ffb612" d="M156.039 250.257h10.517v5.259z"/><path fill="#ffb612" d="m172.223 262.016-3.25-10.002-5.002 1.625z"/><path fill="#ffb612" d="m172.223 262.016-8.509-6.181 3.091-4.255z"/><path fill="#ffb612" d="m159.859 262.016 8.509-6.182-3.091-4.254z"/><path fill="#ffb612" d="m159.859 262.016 3.25-10.002 5.002 1.625zM242.76 270.301l-3.25 10.002 5.001 1.625z"/><path fill="#ffb612" d="m242.76 270.301 3.25 10.002-5.001 1.625z"/><path fill="#ffb612" d="M252.762 277.568h-10.517v5.259z"/><path fill="#ffb612" d="m252.762 277.568-8.509 6.182-3.091-4.254z"/><path fill="#ffb612" d="m232.756 277.568 8.508 6.182 3.091-4.254z"/><path fill="#ffb612" d="M232.756 277.568h10.517v5.259z"/><path fill="#ffb612" d="m248.941 289.327-3.25-10.002-5.001 1.625z"/><path fill="#ffb612" d="m248.941 289.327-8.508-6.181 3.091-4.255z"/><path fill="#ffb612" d="m236.576 289.327 8.509-6.182-3.091-4.254z"/><path fill="#ffb612" d="m236.578 289.327 3.25-10.002 5.001 1.625zM162.668 283.189l-3.25 10.003 5.001 1.625z"/><path fill="#ffb612" d="m162.668 283.189 3.25 10.003-5.001 1.625z"/><path fill="#ffb612" d="M172.67 290.457h-10.517v5.259z"/><path fill="#ffb612" d="m172.67 290.457-8.509 6.182-3.091-4.255z"/><path fill="#ffb612" d="m152.664 290.457 8.509 6.182 3.091-4.255z"/><path fill="#ffb612" d="M152.664 290.457h10.517v5.258z"/><path fill="#ffb612" d="m168.848 302.216-3.25-10.002-5.002 1.625z"/><path fill="#ffb612" d="m168.848 302.216-8.509-6.182 3.091-4.254z"/><path fill="#ffb612" d="m156.484 302.216 8.509-6.182-3.091-4.254z"/><path fill="#ffb612" d="m156.484 302.216 3.25-10.002 5.002 1.625zM220.359 302.215l-3.25 10.003 5.002 1.625z"/><path fill="#ffb612" d="m220.359 302.215 3.25 10.003-5.001 1.625z"/><path fill="#ffb612" d="M230.361 309.483h-10.517v5.258z"/><path fill="#ffb612" d="m230.361 309.482-8.508 6.182-3.091-4.254z"/><path fill="#ffb612" d="m210.355 309.482 8.509 6.182 3.091-4.254z"/><path fill="#ffb612" d="M210.355 309.483h10.518v5.258z"/><path fill="#ffb612" d="m226.539 321.242-3.25-10.003-5.001 1.625z"/><path fill="#ffb612" d="m226.539 321.241-8.509-6.181 3.091-4.255z"/><path fill="#ffb612" d="m214.176 321.242 8.508-6.182-3.091-4.254z"/><path fill="#ffb612" d="m214.176 321.242 3.25-10.003 5.001 1.625z"/></svg>