<svg xmlns="http://www.w3.org/2000/svg" width="420" height="420" fill="none" viewBox="0 0 420 420"><mask id="a" width="420" height="300" x="0" y="60" maskUnits="userSpaceOnUse" style="mask-type:alpha"><path fill="#0f204b" d="M379.873 60H40.127C17.966 60 0 77.966 0 100.127v219.746C0 342.034 17.966 360 40.127 360h339.746C402.034 360 420 342.034 420 319.873V100.127C420 77.966 402.034 60 379.873 60"/></mask><g mask="url(#a)"><path fill="#0f204b" d="M379.873 74H40.127C17.966 74 0 91.966 0 114.127v219.746C0 356.034 17.966 374 40.127 374h339.746C402.034 374 420 356.034 420 333.873V114.127C420 91.966 402.034 74 379.873 74"/><path fill="#bb133e" d="M-11 40h448v149.333H-11z"/><path fill="#fed700" d="M437 75v62.222l-224 52.111zM321.111 40h64.556L213 189.333zM234 40h37.333L213 189.333zM-11 75v62.222l224 52.111zm115.889-35H40.333L213 189.333zM192 40h-37.333L213 189.333z"/><path fill="#ce5c17" d="M213 114.667 261.522 264l-63.416-46.441-63.417-46.441h156.629L164.486 264z"/></g></svg>