<svg xmlns="http://www.w3.org/2000/svg" width="420" height="420" fill="none" viewBox="0 0 420 420"><path fill="#bf0a30" d="M379.873 60H40.127C17.966 60 0 77.966 0 100.127v219.746C0 342.034 17.966 360 40.127 360h339.746C402.034 360 420 342.034 420 319.873V100.127C420 77.966 402.034 60 379.873 60"/><path fill="#002868" d="M18 208.812 209.206 338 402 208.561 209.206 82z"/><path fill="#fff" d="m65.615 209.107 143.787 97.149 144.981-97.337-144.981-95.175z"/><path fill="#002868" d="M131.332 204.894h8.023l1.392 4.481h4.936l-7.659-21.737h-5.239l-7.75 21.737h4.783zm3.996-12.352h.061l2.694 8.598h-5.54zm13.282 16.833h4.449v-8.507h4.693q2.427-.022 3.031.946.604.967.511 3.171.001 1.648.129 2.649.127 1.001.355 1.741h5.026v-.575q-.697-.212-.848-1.109-.151-.898-.121-3.221-.005-2.933-.707-3.981-.703-1.047-2.048-1.529 1.621-.576 2.486-1.964t.875-3.213q.033-.999-.489-2.427-.523-1.428-2.01-2.543-1.485-1.113-4.344-1.175h-10.989v21.737zm4.449-12.171v-5.812h5.662q1.947.07 2.588.991.642.922.59 1.854.002 1.597-.87 2.29-.873.693-2.642.677zm22.303 4.814 2.119-2.179 6.721 9.536h5.843l-9.385-12.837 8.87-8.9h-5.873l-8.295 8.84v-8.84h-4.542v21.737h4.542zm21.606 2.876h8.022l1.393 4.481h4.935l-7.659-21.737h-5.238l-7.751 21.737h4.784zm3.996-12.352h.061l2.693 8.598h-5.54zm26.541 10.233h-.062l-8.627-15.137h-4.784v21.737h4.239v-15.501h.061l8.87 15.501h4.541v-21.737h-4.239zm7.498-.091q-.048 1.407.647 3.082t2.712 2.899 5.935 1.285q1.06.049 3.069-.391 2.01-.442 3.701-1.973t1.798-4.751q-.077-2.86-1.733-4.113t-3.959-1.73l-5.298-1.301a4.2 4.2 0 0 1-1.491-.579q-.751-.457-.809-1.692.074-1.453 1.244-2.04a5.4 5.4 0 0 1 2.539-.563q2.87.113 3.667 1.27.799 1.16.784 1.999h4.36q.013-1.388-.731-3.005-.746-1.617-2.595-2.79-1.85-1.172-5.151-1.229-3.487.056-5.302 1.196t-2.456 2.683q-.64 1.544-.599 2.812.104 3.462 2.135 4.681 2.032 1.22 4.768 1.707l2.332.545q1.755.367 2.83.916 1.076.548 1.106 1.779-.083 1.685-1.465 2.27-1.383.584-3.077.545-2.888-.107-3.777-1.302t-.824-2.21zm25.945 2.21h8.023l1.392 4.481h4.935l-7.66-21.737h-5.237l-7.751 21.737h4.784zm3.995-12.352h.062l2.693 8.598h-5.54zm12.161 10.142q-.048 1.407.647 3.082t2.712 2.899q2.019 1.225 5.935 1.285 1.06.049 3.069-.391 2.01-.442 3.702-1.973 1.69-1.531 1.797-4.751-.077-2.86-1.733-4.113t-3.958-1.73l-5.299-1.301a4.2 4.2 0 0 1-1.491-.579q-.752-.457-.809-1.692.074-1.453 1.245-2.04a5.4 5.4 0 0 1 2.539-.563q2.87.113 3.666 1.27.8 1.16.784 1.999h4.36q.014-1.388-.732-3.005-.744-1.617-2.594-2.79-1.849-1.172-5.151-1.229-3.487.056-5.301 1.196-1.817 1.14-2.456 2.683-.64 1.544-.599 2.812.102 3.462 2.134 4.681 2.033 1.22 4.769 1.707l2.33.545q1.757.367 2.832.916 1.075.548 1.105 1.779-.083 1.685-1.465 2.27-1.382.584-3.077.545-2.888-.107-3.776-1.302-.89-1.196-.826-2.21z"/><path fill="#fff" d="m214.591 107.58-5.653-4.096-5.644 4.116 2.146-6.647-5.655-4.1 6.979-.012 2.15-6.65 2.169 6.64 6.982-.01-5.64 4.117 2.167 6.642z"/><path fill="#002868" d="M220.203 250.96 210 258.211l-10.216-7.245 3.902 11.728-10.206 7.258 12.615-.003 3.909 11.731 3.895-11.729 12.62-.009-10.207-7.246zM187.166 250.96l-10.205-7.251-10.215 7.245 3.902-11.728-10.205-7.258 12.615.003 3.909-11.731 3.894 11.729 12.621.009-10.208 7.246z"/><path fill="#fff" d="m200.765 305.786-4.096 5.653 4.116 5.644-6.647-2.146-4.1 5.655-.012-6.979-6.649-2.149 6.64-2.169-.011-6.982 4.117 5.64zM218.211 305.786l4.096 5.653-4.116 5.644 6.647-2.146 4.1 5.655.013-6.979 6.648-2.149-6.639-2.169.01-6.982-4.116 5.64z"/><path fill="#002868" d="m253.242 250.96-10.204-7.251-10.216 7.245 3.902-11.728-10.204-7.258 12.614.003 3.909-11.731 3.894 11.729 12.621.009-10.207 7.246zM220.203 163.92l-10.204-7.251-10.216 7.245 3.902-11.728-10.205-7.258 12.615.003 3.909-11.731 3.894 11.729 12.621.009-10.207 7.246z"/><path fill="#fff" d="m355.877 183.93-4.096 5.654 4.115 5.643-6.647-2.145-4.1 5.654-.012-6.978-6.649-2.15 6.64-2.169-.01-6.981 4.116 5.639zM328.23 165.498l-4.096 5.654 4.116 5.643-6.647-2.145-4.1 5.654-.012-6.979-6.649-2.149 6.639-2.169-.01-6.981 4.117 5.639zM300.582 147.066l-4.096 5.653 4.115 5.644-6.646-2.146-4.101 5.655-.012-6.979-6.649-2.149 6.64-2.169-.01-6.981 4.116 5.639zM272.933 129.658l-4.096 5.653 4.116 5.644-6.647-2.146-4.1 5.655-.012-6.979-6.649-2.149 6.64-2.169-.011-6.981 4.117 5.639zM245.287 111.226l-4.096 5.654 4.115 5.643-6.646-2.145-4.1 5.654-.013-6.978-6.649-2.15 6.64-2.169-.01-6.981 4.116 5.639zM77.883 221.818l-4.096 5.654 4.115 5.643-6.647-2.145-4.1 5.654-.012-6.978-6.649-2.15 6.64-2.169-.01-6.981 4.116 5.639zM102.461 238.202l-4.096 5.654 4.115 5.643-6.647-2.145-4.1 5.654-.012-6.978-6.649-2.15 6.64-2.169-.01-6.981 4.116 5.639zM127.037 254.586l-4.096 5.654 4.115 5.643-6.646-2.145-4.1 5.654-.013-6.978-6.649-2.15 6.64-2.169-.01-6.981 4.116 5.639zM151.611 271.994l-4.096 5.654 4.116 5.643-6.647-2.145-4.1 5.654-.013-6.978-6.648-2.15 6.639-2.169-.01-6.981 4.117 5.639zM176.187 288.378l-4.096 5.653 4.116 5.644-6.647-2.146-4.1 5.655-.012-6.979-6.649-2.149 6.639-2.169-.01-6.981 4.117 5.639zM53.309 204.333l-4.096 5.654 4.115 5.643-6.647-2.145-4.1 5.654-.012-6.978-6.65-2.15 6.64-2.169-.01-6.981 4.117 5.639zM63.588 183.93l4.096 5.654-4.116 5.643 6.647-2.145 4.1 5.654.013-6.978 6.648-2.15-6.64-2.169.011-6.981-4.116 5.639zM91.236 165.498l4.096 5.654-4.115 5.643 6.647-2.145 4.1 5.654.012-6.979 6.649-2.149-6.64-2.169.01-6.981-4.116 5.639zM118.883 147.066l4.096 5.653-4.116 5.644 6.647-2.146 4.1 5.655.012-6.979 6.649-2.149-6.639-2.169.01-6.981-4.117 5.639zM146.531 129.658l4.096 5.653-4.115 5.644 6.646-2.146 4.101 5.655.012-6.979 6.649-2.149-6.64-2.169.01-6.981-4.116 5.639zM174.18 111.226l4.096 5.654-4.116 5.643 6.647-2.145 4.1 5.654.012-6.978 6.649-2.15-6.639-2.169.01-6.981-4.117 5.639zM365.668 204.333l4.096 5.654-4.116 5.643 6.647-2.145 4.1 5.654.013-6.978 6.648-2.15-6.639-2.169.01-6.981-4.116 5.639zM341.092 221.818l4.096 5.654-4.116 5.643 6.647-2.145 4.1 5.654.012-6.978 6.649-2.15-6.639-2.169.01-6.981-4.117 5.639zM316.516 238.202l4.096 5.654-4.116 5.643 6.647-2.145 4.1 5.654.012-6.978 6.649-2.15-6.64-2.169.011-6.981-4.117 5.639zM291.939 254.586l4.096 5.654-4.115 5.643 6.647-2.145 4.1 5.654.012-6.978 6.649-2.15-6.64-2.169.011-6.981-4.117 5.639zM267.363 271.994l4.096 5.654-4.115 5.643 6.647-2.145 4.1 5.654.012-6.978 6.649-2.15-6.64-2.169.01-6.981-4.116 5.639zM242.789 288.378l4.096 5.653-4.115 5.644 6.646-2.146 4.1 5.655.013-6.979 6.649-2.149-6.64-2.169.01-6.981-4.116 5.639z"/></svg>