<svg xmlns="http://www.w3.org/2000/svg" width="420" height="420" fill="none" viewBox="0 0 420 420"><mask id="a" width="420" height="300" x="0" y="60" maskUnits="userSpaceOnUse" style="mask-type:alpha"><path fill="#002868" d="M379.873 60H40.127C17.966 60 0 77.966 0 100.127v219.746C0 342.034 17.966 360 40.127 360h339.746C402.034 360 420 342.034 420 319.873V100.127C420 77.966 402.034 60 379.873 60"/></mask><g mask="url(#a)"><path fill="#002868" d="M-48 60h600v300H-48"/><path fill="#fff" d="M-48 160h600v100H-48"/><path fill="#bf0a30" d="M252 246.572a98.6 98.6 0 0 1-110.236 59.808A98.597 98.597 0 1 1 252 172.624l-91.402 36.974"/><path fill="gold" d="M160.598 258.896c27.227 0 49.298-22.071 49.298-49.298s-22.071-49.299-49.298-49.299-49.299 22.072-49.299 49.299 22.072 49.298 49.299 49.298"/></g></svg>