<svg xmlns="http://www.w3.org/2000/svg" width="420" height="420" fill="none" viewBox="0 0 420 420"><mask id="a" width="420" height="280" x="0" y="70" maskUnits="userSpaceOnUse" style="mask-type:alpha"><path fill="#fff" d="M379.873 70H40.127C17.966 70 0 87.966 0 110.127v199.746C0 332.034 17.966 350 40.127 350h339.746C402.034 350 420 332.034 420 309.873V110.127C420 87.966 402.034 70 379.873 70"/></mask><g mask="url(#a)"><path fill="#fff" d="M0 70h420v35.467H0zM0 175h420v35.467H0zM0 280h420v35.467H0z"/><path fill="#c8102e" d="M0 105h420v35H0zM0 210h420v35H0zM0 315h420v35H0z"/><path fill="#012169" d="M0 140h420v35H0zM0 245h420v35H0z"/><mask id="b" width="228" height="141" x="0" y="70" maskUnits="userSpaceOnUse" style="mask-type:alpha"><path fill="#d9d9d9" d="M0 70.467h227.85v140H0z"/></mask><g mask="url(#b)"><path fill="#d9d9d9" d="M0 70.467h227.85v140H0z"/><path fill="#012169" d="M0 70.467h520.8v280H0z"/><mask id="c" width="261" height="164" x="0" y="70" maskUnits="userSpaceOnUse" style="mask-type:luminance"><path fill="#fff" d="M0 70.467h260.4V233.8H0z"/></mask><g mask="url(#c)"><path fill="#012169" d="m0 70.467 303.8 186.666Zm227.85 0L0 210.467Z"/><path stroke="#fff" stroke-width="26.04" d="m0 70.467 303.8 186.666M227.85 70.467 0 210.467"/></g><mask id="d" width="239" height="153" x="0" y="70" maskUnits="userSpaceOnUse" style="mask-type:luminance"><path fill="#fff" d="M0 70.467v70h238.7v70h-10.85zm227.85 0H113.925v151.666H0v-11.666z"/></mask><g mask="url(#d)"><path fill="#012169" d="m0 70.467 303.8 186.666Zm227.85 0L0 210.467Z"/><path stroke="#c8102e" stroke-width="17.36" d="m0 70.467 303.8 186.666M227.85 70.467 0 210.467"/></g><path fill="#012169" d="M113.925 70.467V233.8ZM0 140.467h260.4Z"/><path stroke="#fff" stroke-width="43.4" d="M113.925 70.467V233.8M0 140.467h260.4"/><path fill="#fff" d="M520.8 70.467v46.666H238.7l-10.85-11.666v-35zm0 105v46.666H227.85v-46.666zm0 105v70H0v-70z"/><path fill="#c8102e" d="M520.8 105.467v49H0v-28h227.85v-21zm0 105v35H0v-35zm0 105v35H0v-35zm-419.895-245h26.04v151.666h-26.04z"/></g></g></svg>