<svg xmlns="http://www.w3.org/2000/svg" width="420" height="420" fill="none" viewBox="0 0 420 420"><mask id="a" width="420" height="300" x="0" y="60" maskUnits="userSpaceOnUse" style="mask-type:alpha"><path fill="#003776" d="M379.873 60H40.127C17.966 60 0 77.966 0 100.127v219.746C0 342.034 17.966 360 40.127 360h339.746C402.034 360 420 342.034 420 319.873V100.127C420 77.966 402.034 60 379.873 60"/></mask><g mask="url(#a)"><mask id="b" width="502" height="502" x="-39" y="-49" maskUnits="userSpaceOnUse" style="mask-type:alpha"><path fill="#003776" fill-rule="evenodd" d="M-39 202C-39 63.377 73.377-49 212-49S463 63.377 463 202 350.623 453 212 453-39 340.623-39 202" clip-rule="evenodd"/></mask><g mask="url(#b)"><path fill="#ba0c2f" d="M-169.52-49h753v502h-753z"/><path fill="#d69a2d" d="M68.093-49h277.774v502H68.093z"/><path fill="#041e42" d="M85.663-49h242.634v502H85.663z"/><path fill="#d69a2d" d="M198.096 97.004h9.223l2.858 3.916-4.605 1.515zm26.521 0h-9.222l-2.858 3.916 4.604 1.515zm-13.248-9.627 2.797 8.728-2.823 3.914-2.796-3.888zm8.116 25.172-7.398-5.342v-4.828l4.575 1.508zm-16.238 0 7.398-5.342v-4.828l-4.575 1.508z"/><path fill="#fff" d="m118.536 138.38 6.361 2.118 3.998-5.381-.043 6.671 6.335 2.143-6.398 2.043-.068 6.669-3.893-5.45-6.373 2.046 3.974-5.408zm-12.745 22.401 6.671.638 2.677-6.124 1.47 6.521 6.667.688-5.788 3.368 1.495 6.523-5.054-4.403-5.814 3.366 2.727-6.121zm.296 17.206 2.925 6.051 6.638-.913-4.807 4.648 2.928 6-5.907-3.171-4.859 4.644 1.175-6.56-5.908-3.171 6.612-.916zm-9.547 32.945 6.273-2.402-.325-6.697 4.218 5.235 6.247-2.402-3.652 5.602 4.244 5.235-6.515-1.738-3.677 5.6-.325-6.697zm3.883 25.51 5.582-3.743-1.867-6.444 5.316 4.141 5.581-3.742-2.314 6.279 5.291 4.115-6.716-.208-2.29 6.254-1.868-6.393zm10.956 13.273 6.069 2.883 4.652-4.823-.907 6.615 6.043 2.909-6.602 1.21-.933 6.639-3.133-5.884-6.63 1.185 4.626-4.85zm12.322 21.144 6.496 1.556 3.49-5.723.562 6.665 6.519 1.529-6.169 2.586.563 6.692-4.405-5.111-6.168 2.613 3.49-5.698zm57.238-175.475 3.688 5.575 6.494-1.747-4.205 5.246 3.69 5.549-6.307-2.367-4.18 5.248.276-6.685-6.282-2.365 6.496-1.746zm-23.946 9.438 4.845 4.654 5.892-3.159-2.924 6.039 4.846 4.627-6.638-.919-2.925 6.064-1.203-6.588-6.638-.921 5.945-3.156zm-10.138 13.794-1.626 6.53 5.706 3.52-6.67.512-1.627 6.505-2.527-6.21-6.699.51 5.146-4.351-2.527-6.209 5.68 3.545zm157.772 19.764-6.36 2.118-3.999-5.381.042 6.671-6.334 2.143 6.398 2.043.069 6.669 3.893-5.45 6.372 2.046-3.974-5.408zm12.746 22.401-6.671.638-2.677-6.124-1.47 6.521-6.668.688 5.789 3.368-1.495 6.523 5.054-4.403 5.814 3.366-2.727-6.121zm-.297 17.206-2.925 6.051-6.638-.913 4.807 4.648-2.928 6 5.908-3.171 4.859 4.644-1.176-6.56 5.908-3.171-6.612-.916zm9.547 32.945-6.272-2.402.324-6.697-4.217 5.235-6.248-2.402 3.652 5.602-4.244 5.235 6.515-1.738 3.677 5.6.325-6.697zm-3.883 25.51-5.581-3.743 1.866-6.444-5.316 4.141-5.581-3.742 2.315 6.279-5.292 4.115 6.717-.208 2.289 6.254 1.869-6.393zm-10.955 13.273-6.07 2.883-4.651-4.823.907 6.615-6.044 2.909 6.602 1.21.934 6.639 3.132-5.884 6.631 1.185-4.627-4.85zm-12.323 21.144-6.496 1.556-3.49-5.723-.561 6.665-6.52 1.529 6.17 2.586-.564 6.692 4.405-5.111 6.168 2.613-3.49-5.698zM242.225 95.384l-3.688 5.575-6.495-1.747 4.205 5.246-3.69 5.549 6.307-2.367 4.18 5.248-.276-6.685 6.282-2.365-6.496-1.746zm23.946 9.438-4.845 4.654-5.892-3.159 2.923 6.039-4.846 4.627 6.638-.919 2.925 6.064 1.203-6.588 6.638-.921-5.945-3.156zm10.135 13.794 1.628 6.53-5.706 3.52 6.671.512 1.626 6.505 2.527-6.21 6.699.51-5.146-4.351 2.527-6.209-5.68 3.545zM142.215 292.052l.131-.167c.389.048.779-.052 1.157-.323.374-.247.964-.893 1.774-1.923l.375-.476 2.672-3.397q.415-.527.462-.774c.024-.157-.015-.337-.125-.532l.133-.167q.589.502.885.751c.197.168.371.32.545.456.171.135.36.27.569.421s.511.375.929.676l-.131.168c-.205-.053-.389-.048-.535.013q-.23.104-.643.63l-3.047 3.874c-.81 1.029-1.299 1.755-1.461 2.168-.166.44-.17.843-.031 1.208l-.131.167a40.833 40.833 0 0 0-1.731-1.428 41 41 0 0 0-.94-.726c-.29-.213-.581-.429-.857-.619m10.492-1.986q-.873 1.339-1.75 2.677c-.928 1.417-1.443 2.418-1.567 2.988a2 2 0 0 0 .309 1.59l-.117.178a21 21 0 0 0-.671-.49c-.234-.166-.495-.336-.777-.521s-.554-.363-.799-.509a18 18 0 0 0-.729-.426c.034-.055.076-.117.117-.18.566.13 1.097.03 1.568-.31.461-.348 1.177-1.23 2.123-2.676q.892-1.365 1.786-2.729c.362-.553.537-.987.552-1.294.01-.3-.136-.625-.407-.968.034-.053.07-.108.1-.151.118.078.379.248.78.536.397.272.695.48.923.629.131.085.321.197.56.353.245.148.435.259.545.331.213 2.446.49 4.895.699 7.35l.571-.876c.94-1.436 1.455-2.436 1.584-2.989.117-.558-.004-1.084-.328-1.564q.064-.093.124-.187c.168.123.357.259.563.395.202.144.506.343.918.613.414.27.718.469.93.595.195.128.397.247.576.351l-.122.188c-.579-.136-1.108-.036-1.585.313-.478.35-1.183 1.24-2.112 2.657-1.044 1.596-2.088 3.195-3.128 4.782-.097-.064-.184-.122-.272-.178-.28-3.484-.671-6.988-.964-10.478m20.153 13.732a.6.6 0 0 1-.048.153 1.1 1.1 0 0 0-.9.426c-.245.292-.61.982-1.059 2.086l-.163.393-.196.484a7 7 0 0 1-2.221.173 6.8 6.8 0 0 1-2.139-.504c-.682-.278-1.247-.635-1.688-1.093a4.2 4.2 0 0 1-1.01-1.595c-.211-.649-.34-1.323-.309-2.012a5.9 5.9 0 0 1 .424-1.999 5.7 5.7 0 0 1 1.027-1.662c.42-.483.926-.863 1.492-1.196.648-.356 1.365-.535 2.118-.573a4.9 4.9 0 0 1 2.192.378c.61.248 1.159.578 1.657.999.49.406 1.009.95 1.502 1.623-.57.745-1.15 1.486-1.72 2.231-.064-.05-.116-.094-.18-.142.247-1.084.278-1.945.105-2.615-.178-.658-.581-1.11-1.191-1.358-.765-.313-1.548-.173-2.336.459-.786.623-1.455 1.614-2.019 2.994q-.807 1.98-.727 3.324c.056.885.418 1.471 1.052 1.728.431.176.843.161 1.194-.087.361-.233.677-.667.93-1.286.387-.948.568-1.597.55-1.961-.019-.365-.206-.658-.556-.928l.056-.138 1.016.45c.323.131.667.282 1.013.424.336.136.687.269 1.046.415q.544.205 1.088.409m4.5 7.339c.711.242 1.381.042 1.993-.593.598-.629 1.158-1.72 1.678-3.253.521-1.531.735-2.728.647-3.6-.103-.867-.504-1.419-1.226-1.664-.7-.237-1.363-.058-1.956.56-.585.634-1.143 1.715-1.673 3.278-.526 1.551-.745 2.759-.667 3.618.091.861.504 1.417 1.204 1.654m-3.23-6.209a5.9 5.9 0 0 1 1.066-1.93c.461-.553 1.035-.954 1.678-1.275a4.6 4.6 0 0 1 1.822-.45c.643-.041 1.278.062 1.916.279.662.225 1.241.534 1.719.943a4.8 4.8 0 0 1 1.164 1.486c.333.674.54 1.352.568 2.035a6 6 0 0 1-.321 2.162 6 6 0 0 1-.729 1.461 5 5 0 0 1-1.06 1.147 5.26 5.26 0 0 1-2.28 1.035c-.821.161-1.644.084-2.441-.187a4.9 4.9 0 0 1-1.72-.978c-.495-.437-.91-.948-1.177-1.534a4.8 4.8 0 0 1-.531-2.023 6 6 0 0 1 .326-2.171m15.277-.313q-.698 3.295-1.393 6.591c-.206.968-.258 1.587-.172 1.878.084.29.312.468.707.552q1.185.25 2.038-.776c.569-.674 1.01-1.756 1.324-3.234.318-1.509.348-2.656.105-3.447-.233-.789-.796-1.268-1.649-1.447a5 5 0 0 0-.41-.077 20 20 0 0 0-.55-.04m-5.495 8.573c.012-.062.028-.136.044-.209.387-.136.697-.407.931-.824.235-.418.489-1.3.773-2.644.03-.145.061-.292.091-.426.296-1.406.594-2.811.894-4.228.087-.416.111-.715.065-.878-.045-.162-.171-.32-.357-.446l.044-.208c.39.105.769.196 1.136.284.354.086.709.172 1.039.242q.516.106 1.226.238c.46.087.754.148.88.174 1.642.349 2.833 1.003 3.512 2.006.68.993.882 2.241.56 3.762-.353 1.667-1.057 2.854-2.09 3.594-1.035.738-2.339.94-3.88.615a25 25 0 0 1-1.071-.281 20 20 0 0 0-1.225-.303c-.19-.04-.435-.081-.768-.14-.331-.07-.933-.176-1.804-.328m30.749-6.733-.012.212q-.612.158-1.18.893c-.38.501-.785 1.224-1.191 2.183-.983 2.378-2.017 4.742-3 7.119l-.117-.006c-.679-2.305-1.399-4.592-2.065-6.886-.882 2.202-1.815 4.39-2.697 6.603-.039-.001-.078-.004-.13-.007-.839-2.882-1.731-5.755-2.57-8.636-.237-.804-.453-1.33-.656-1.62a1.18 1.18 0 0 0-.747-.492c.003-.075.007-.15.012-.214.091.006.219.013.412.036.798.078 1.352.133 1.648.15.35.022 1.035.041 2.043.069.259.004.453.015.583.023-.005.064-.01.139-.013.212-.25.039-.446.103-.571.234-.123.121-.187.309-.201.544-.008.128.009.288.037.472.028.183.081.369.134.586.375 1.325.774 2.652 1.149 3.988.865-2.117 1.765-4.222 2.63-6.34l.115.007c.721 2.265 1.482 4.511 2.19 6.765.234-.67.482-1.339.715-2.009.204-.608.393-1.153.512-1.626.119-.475.19-.812.203-1.024.02-.342-.041-.623-.17-.844a.9.9 0 0 0-.612-.389l.012-.212c.336.029.645.059.94.087.298.017.581.045.865.063.22.012.479.017.775.034.284.006.608.015.957.025m1.499 10.053-.018-.212c.32-.228.54-.567.636-1.001.109-.426.118-1.12.04-2.076l-.44-5.473q-.054-.67-.187-.882c-.077-.133-.228-.239-.442-.306l-.017-.212c.635-.03 1.231-.068 1.787-.102.57-.036 1.063-.064 1.476-.098l3.931-.315c.265.875.544 1.76.81 2.647l-.233.018c-.71-.755-1.403-1.275-2.04-1.587a3.85 3.85 0 0 0-2.06-.379l-.272.022c-.051.004-.103.018-.165.034.104 1.316.212 2.642.318 3.958.144.009.259 0 .339.005.078.005.142-.002.193-.005.7-.056 1.23-.239 1.611-.535.38-.298.629-.735.754-1.3l.233-.019.306 3.81-.233.019c-.214-.561-.531-.94-.954-1.185-.423-.233-.975-.315-1.673-.259a1.3 1.3 0 0 0-.193.025c-.077.017-.194.026-.334.059.064.785.126 1.559.188 2.344.061.743.207 1.255.452 1.557q.367.449 1.123.388c.583-.047 1.183-.34 1.778-.879.593-.54 1.197-1.292 1.768-2.278.079.015.146.031.225.046-.168 1.155-.362 2.304-.541 3.461-1.5.12-3 .242-4.513.362-.296.025-.775.062-1.434.126-.657.064-1.394.135-2.219.222m17.83-2.296-.047-.208c.297-.274.453-.636.493-1.105.032-.443-.096-1.309-.385-2.587l-.133-.592-1.008-4.478c-.042-.187-.084-.309-.136-.362-.048-.044-.118-.061-.22-.039-.315.072-.676.35-1.066.852a9.4 9.4 0 0 0-1.1 1.929l-.234.021c-.022-.979-.028-1.948-.035-2.919l7.709-1.737c.398.882.809 1.762 1.196 2.656l-.22.083c-.643-.565-1.255-.983-1.822-1.271s-1-.385-1.316-.315c-.101.024-.17.072-.195.131-.025.072-.009.199.033.386l.092.406 1.051 4.663c.288 1.279.543 2.117.775 2.501.223.407.534.666.918.786l.047.208c-.345.056-.687.122-1.055.193-.355.071-.759.161-1.161.252a39 39 0 0 0-1.157.271c-.364.092-.701.18-1.024.275m8.678-2.201c-.02-.061-.045-.131-.07-.201.264-.306.392-.688.367-1.154-.018-.444-.244-1.289-.675-2.525q-.101-.287-.199-.574l-1.422-4.08c-.147-.422-.283-.692-.392-.81-.119-.105-.292-.169-.517-.181l-.068-.202 1.086-.345c.367-.128.883-.296 1.519-.518l1.162-.404c1.541-.537 2.713-.754 3.5-.623q1.183.211 1.603 1.414c.217.623.143 1.202-.2 1.75-.356.553-.987 1.064-1.915 1.547q1-.195 1.746.056c.501.175.949.481 1.363.957q.24.272.645.789c.894 1.109 1.602 1.607 2.107 1.521l.059.17c-.562.196-.982.331-1.303.432l-.881.306-.832.29a8 8 0 0 0-.521.194c-.123-.195-.31-.456-.541-.804-1.566-2.329-2.768-3.342-3.587-3.056-.05.017-.147.052-.262.114-.013.005-.025.008-.033.023.125.361.254.734.384 1.105.438 1.257.802 2.065 1.072 2.445.281.376.607.601 1.004.676.023.07.048.142.07.201-.337.095-.671.2-1.03.314-.345.109-.724.241-1.129.382-.39.136-.769.268-1.108.398-.351.133-.691.262-1.002.393m1.531-6.507c.089-.02.167-.036.252-.065.09-.021.199-.058.371-.117.61-.214 1.015-.512 1.182-.898.168-.385.149-.908-.079-1.562-.213-.613-.505-1.018-.883-1.236-.373-.208-.841-.214-1.392-.022-.183.064-.319.111-.425.159a3 3 0 0 1-.285.122zm5.109-5.906c-.031-.068-.05-.142-.078-.2.576-.24 1.005-.426 1.292-.547s.551-.23.787-.339c.448-.206 1.095-.539 1.977-.982.013-.004.024-.009.049-.02l.089.193c-.235.331-.32.734-.26 1.176.064.451.372 1.273.917 2.455l.257.562q.382.826.763 1.656c.491 1.064 1.001 1.77 1.542 2.107.547.348 1.152.362 1.861.036a1.9 1.9 0 0 0 .807-.701 2.4 2.4 0 0 0 .371-1.086 3 3 0 0 0-.09-.91 10.4 10.4 0 0 0-.546-1.403l-.558-1.212c-.718-1.559-1.294-2.527-1.709-2.934-.404-.412-.914-.588-1.492-.57l-.089-.193c.189-.088.406-.175.634-.269.217-.087.559-.245 1.007-.451s.778-.359.986-.466c.22-.113.428-.22.604-.302l.089.194a1.94 1.94 0 0 0-.532 1.512c.031.597.406 1.658 1.119 3.208q.28.608.554 1.2c.637 1.386.802 2.519.529 3.384-.265.885-1.046 1.609-2.285 2.179-1.191.548-2.204.674-3.026.348-.817-.316-1.511-1.077-2.076-2.307l-.929-2.015c-.651-1.414-1.138-2.316-1.469-2.692-.318-.381-.693-.573-1.095-.611m15.08 3.328c-.334-.913-.651-1.825-.989-2.746.075-.028.145-.065.231-.101.674.696 1.393 1.124 2.129 1.305.736.179 1.389.065 1.927-.319.454-.326.731-.744.815-1.25.069-.507-.05-.985-.384-1.453-.284-.398-.613-.634-.98-.724-.384-.067-.846.001-1.402.229-.108.05-.275.106-.485.191-1.026.42-1.762.618-2.232.562a1.96 1.96 0 0 1-.976-.336 3.3 3.3 0 0 1-.869-.858c-.557-.779-.692-1.638-.453-2.554q.37-1.364 1.847-2.419c.443-.317.935-.59 1.464-.787a7.7 7.7 0 0 1 1.79-.468c.279.794.545 1.612.826 2.407-.064.045-.133.081-.197.126-.517-.612-1.107-.988-1.712-1.144a1.9 1.9 0 0 0-1.656.295q-.57.411-.648 1.038c-.053.418.056.838.34 1.236.273.381.584.592.91.645.333.064.916-.08 1.742-.422 1.074-.44 1.923-.615 2.564-.497q.949.185 1.691 1.223c.619.866.78 1.784.524 2.766-.267.989-.936 1.86-2.004 2.624a8 8 0 0 1-1.865 1.006c-.671.245-1.311.401-1.948.425m10.982-6.688-.128-.172c.15-.363.158-.766.005-1.211-.15-.42-.62-1.158-1.402-2.21q-.18-.243-.362-.487l-2.739-3.682c-.114-.153-.202-.248-.27-.276-.064-.021-.135-.006-.219.054-.259.195-.479.597-.632 1.216-.154.618-.237 1.357-.229 2.213l-.217.122c-.406-.893-.806-1.776-1.215-2.653l6.384-4.75q1.081.966 2.171 1.942l-.167.165a9.4 9.4 0 0 0-2.188-.418c-.637-.03-1.085.064-1.335.25-.093.07-.126.134-.126.201.008.074.073.184.187.339l.248.332 2.855 3.837c.782 1.05 1.355 1.712 1.723 1.969.372.281.76.391 1.152.352l.127.17c-.283.184-.581.393-.879.601-.309.217-.631.457-.965.705-.343.255-.666.495-.952.721-.295.233-.57.451-.827.67m-8.566-64.165c-.062-.031 1.881-.218 1.881-.218s1.569 0 3.167-.062c1.347-.157 2.727-.313 3.103-.375.407-.187.846-.376 1.222-.595l.879-.468.783-.595c1.066-.718 2.006-1.687 2.758-2.719 1.569-2.063 2.101-4.688 1.38-7.157s-2.382-4.689-4.358-6.47a20.8 20.8 0 0 0-4.701-3.189c-.158-.062-.345-.124-.596-.218-.597-.219-1.38-.531-2.226-.688-.439-.094-.846-.219-1.222-.313-.407-.062-.784-.062-1.097-.093a48 48 0 0 0-1.035-.094c-.408-.062-.815-.031-1.222-.062l-1.567-.031-2.257.156c-.754.093-1.538.218-2.29.312-3.009.532-5.987 1.439-8.996 2.407-4.044 1.281-8.182 2.814-12.507 3.688-.879.251-1.787.438-2.697.626-.314.312-.595.655-.877.969-1.694 1.968-3.479 3.906-5.393 5.719a23 23 0 0 1-1.284 1.187l.407.408c1.881 1.562 4.013 2.843 6.27 3.844 1.128.499 2.288.844 3.479 1.219 1.191.25 2.352.531 3.636.593l3.731.407 3.824.219 5.611.312s2.666.312 4.546.688c3.166.531 1.881.843-.095.97.189.031-4.763.062-4.763.062l-5.8-.314a153 153 0 0 1-3.762-.218l-3.793-.406c-1.223-.062-2.539-.376-3.792-.657-1.224-.406-2.477-.78-3.637-1.344a26 26 0 0 1-3.699-1.968c.69 1.124 1.411 2.187 2.257 3.125 2.758 3.157 6.739 5.157 10.846 6.219 4.044.938 8.402.626 12.633-.062 1.128-.281 2.257-.593 3.417-.907 1.222-.374 2.508-.749 3.761-1.125a46 46 0 0 1 3.95-1.03c.47-.125.94-.22 1.411-.314-.376-.125-.941-.281-1.411-.468-1.253-.531-.627-.845.125-.97m-99.41.786c.094.031-2.319.343-2.319.343h-2.415c.158.062.314.125.47.156a77 77 0 0 0 2.352.844c.626.25 1.066.375 1.066.375l1.128.437c.408.156.595.187 1.599.501.814.219 1.629.343 2.477.5.814.031 1.629.187 2.475.093 3.356-.125 6.772-1 9.938-2.405 3.323-1.469 6.427-3.499 9.216-5.906-3.917 1.999-8.181 3.156-12.413 4-.534.094-1.066.188-1.631.281 0 0-2.695.25-4.607.187-3.23-.062-1.976-.594-.063-.969-.095-.031 1.066-.218 2.257-.468 1.16-.25 2.351-.531 2.351-.531l.846-.125.941-.187c.815-.158 1.598-.345 2.414-.532a47 47 0 0 0 4.702-1.344 36.5 36.5 0 0 0 5.423-2.405c-.251-.25-.501-.5-.721-.749a40 40 0 0 1-2.57-3.25c-.408.094-.815.219-1.222.281l-1.505.125c-1.004.125-1.976.031-2.947.031-.565 0-1.097-.062-1.662-.125 0 0-2.727-.406-4.545-.999-3.105-.969-1.725-1.094.218-.969-.093-.031 1.098.125 2.29.156 1.191.094 2.413.094 2.413.094.439.031.91.093 1.349.093.908-.031 1.849.094 2.757-.031l1.38-.125.376-.093c-.345-.531-.721-1.063-1.066-1.594l-1.066-1.687-.657-1.155s-.095-.22-.282-.626c-.189-.375-.408-.874-.721-1.469-.032-.031-.032-.062-.063-.093-3.104-.406-6.238-.968-9.312-1.75-.939-.218-1.88-.593-2.82-.905-.941-.344-1.881-.562-2.791-1.001-1.19-.593-2.381-1.092-3.572-1.687a4 4 0 0 0-.596-.062c-2.384-.156-4.797-.625-7.243-.312-2.444.187-4.952.719-7.398 1.499-2.444.781-4.859 1.875-6.959 3.406-2.068 1.5-3.793 3.593-3.98 6.029-.22 2.47 1.097 4.906 2.789 6.968 1.662 2.062 3.981 3.437 6.614 4.123 2.195.626 4.545.939 6.929 1.532 0-.032.031-.063.031-.063.031 0 .563.031 1.316.063.754.062 1.756.124 2.759.093h4.044s1.285.156 2.226.439c1.567.374.972.749 0 .968m62.546-.569-1.097-1.342-.971-1.469-1.756-2.779c-.25-.375-.47-.687-.72-1.062-2.853 2.249-6.049 4.122-9.62 5.248.093.468.187.999.281 1.561.157 1.281.188 2.623.188 2.623s-.062.189-.188.501c-.094.312-.219.656-.439.937-.659.936-.877.249-.971-.25.031.062-.189-1.281-.189-1.281s0-1.124-.156-2.31c-.062-.47-.157-.938-.22-1.313q-1.269.28-2.538.468c.031.907 0 1.812-.031 2.718-.094 1.343-.22 2.686-.501 4.03-.126.561-.22 1.092-.376 1.654 0 0-.064.156-.158.437-.125.251-.25.657-.47 1.063-.376.874-.939 1.937-1.535 2.686-.784.999-1.222 1.374-1.41 1.405q-.094 0-.095-.094c-.062-.187.126-.593.376-1.155l2.382-9.964c0-.062.031-.125.031-.156.033-.843.033-1.655 0-2.499q-1.079.046-2.162 0c-.031.094-.062.219-.124.312-.189.501-.503 1.157-.784 1.781-.345.624-.659 1.25-.941 1.719-.281.437-.501.749-.501.749s-.156.125-.407.374a4 4 0 0 1-.94.593c-1.035.501-.941-.156-.69-.718-.031 0 .187-.249.314-.624l.313-.687s.188-.251.439-.657c.25-.406.532-.967.846-1.561.219-.499.47-1 .626-1.406-2.193-.25-4.45-.874-6.456-1.873-.908-.47-1.754-1-2.6-1.593-3.448 3.279-7.459 5.996-11.846 7.902a37 37 0 0 1-3.384 1.217c-.22 1.313-.158 2.655.343 3.968.408 1.217 1.066 2.374 1.85 3.498l2.382 1.219c3.352 1.654 6.706 3.279 10.185 4.59.501.187 1.002.406 1.535.562 0 0 .565.25 1.411.595.407.187.846.405 1.347.624.438.156.909.343 1.41.499 2.977 1.124 1.724 1.218-.313.937.125.031-1.097-.094-2.288-.437-1.191-.312-2.382-.656-2.382-.656-.47-.125-.909-.312-1.347-.499-3.009-1.126-5.892-2.468-8.775-3.874 3.635 3.437 8.054 6.185 12.755 8.121 2.507 1.031 5.077 1.812 7.709 1.656 2.664-.063 5.359-.531 7.96-1.155 4.921-1.188 9.652-3.031 13.632-5.717-4.199 1.312-8.524 2.124-12.817 2.686l-1.661.187s-.628.031-1.567.062c-.94 0-2.099-.031-3.039-.062-3.229-.219-1.943-.656 0-.999-.095 0 1.064-.187 2.255-.343a106 106 0 0 1 2.382-.406l1.38-.187c4.857-.625 9.683-1.532 14.226-3.155l2.634-1.063c.689-.78 1.284-1.592 1.723-2.467 1.066-2.029 1.128-4.372.877-6.621a27 27 0 0 0-.626-2.749 20.5 20.5 0 0 1-4.701-3.999m-49.741-50.917a49 49 0 0 0-6.518-2.407c-2.351-.687-4.795-1.219-7.239-1.438-2.476-.249-5.015-.187-7.302.626a6.7 6.7 0 0 0-2.882 1.875c-.815.844-1.222 1.938-1.599 3.126-.689 2.376-.565 4.938.125 7.376a21 21 0 0 0 1.786 4.252c.095.125.189.281.314.499.188.25.407.564.627.907.25.312.532.625.784.969.28.344.563.687.814 1.001.281.312.564.593.784.843.47.47.752.782.752.782.281.312.564.593.846.907.312.312.407.437 1.222 1.219 1.347 1.187 2.757 2.375 4.292 3.282.721.499 1.567.874 2.382 1.25l2.476 1.188 2.601.874c.878.282 1.724.595 2.632.782 2.257.562 4.576 1 6.894 1.344a10 10 0 0 1-.47-1.219 8 8 0 0 1-.314-1.25 59 59 0 0 1-3.947-1.376 86 86 0 0 1-8.18-3.594c-1.316-.657-2.631-1.313-3.916-2.032l-1.661-.907s-2.257-1.469-3.73-2.688c-2.538-2.001-1.222-1.656.565-.813-.095-.062.971.47 2.037 1.032l2.193 1.063 1.881 1.031c1.253.657 2.537 1.313 3.822 1.939a83 83 0 0 0 7.866 3.438c1.065.406 2.162.781 3.228 1.126.062-.032.094-.032.156.031.251.218.596 1.281 1.38 2.469-.064-.156.782 1.281 1.879 2.75.534.72 1.066 1.469 1.473 2.126.377.562.626.938.626.938l.628 1.061.314.533.501.75c.313.531.658 1.062 1.002 1.563 1.442 2.063 2.851 4.062 4.607 5.72 1.723 1.656 3.698 3 5.89 3.844 2.164.876 4.577 1.219 6.959 1.188a20.8 20.8 0 0 0 7.05-1.25c3.071-1.063 5.892-2.844 8.492-4.939l-.031.032.345-.281c.031-.031.062-.031.093-.064l.753-.656.031-.031c.093-.062.187-.156.251-.219l.125-.093c.659-.626 1.347-1.219 1.974-1.845 1.786-1.75 3.415-3.563 5.107-5.564.44-.469.848-.906 1.191-1.344.158-.219.314-.437.44-.656a1.2 1.2 0 0 0 .156-.282l.032-.063-.283-.156a6.6 6.6 0 0 0-1.503-.624 20 20 0 0 0-1.756-.501l-.939-.219a9 9 0 0 0-.846-.218 19 19 0 0 0-3.511-.343c-2.381-.032-4.794.405-7.176 1.031a51 51 0 0 0-3.571 1.093c-.596.189-1.16.407-1.881.594-.659.188-1.316.344-1.943.469-1.285.251-2.569.438-3.823.657l-1.88.281c-.846.125-1.661.031-2.382-.125-1.442-.312-2.696-.907-3.854-1.562-1.191-.658-2.288-1.471-3.291-2.189-2.069-1.5-4.074-2.907-6.205-3.657-1.253-.407-2.475-.563-3.697-.376-.063 0-.094.031-.158-.031-.281-.156-.657-.375-.877-.78-.218-.377-.281-.938.407-1.658.032 0 .127-.125.22-.125.094-.031.188-.031.314-.031-1.442-1.469-2.727-3.094-3.761-4.876-.533-.969-1.16-1.906-1.535-3l-.627-1.564-.439-1.656c-.345-1.063-.376-2.219-.501-3.376-.064-1.125.032-2.25.094-3.345.187-1.499.47-2.999.815-4.438m46.661-4.702c-.565-2.061-1.504-3.967-2.664-5.715l-.846-1.126c-.251-.343-.534-.624-.816-.936 0 0-.156-.156-.408-.47-.249-.312-.563-.78-1.033-1.248-.47-.5-1.035-1.063-1.598-1.656a105 105 0 0 0-4.358-3.248c-2.6-2.158-4.512-4.688-6.863-6.781-1.159-1.03-2.414-1.937-3.761-2.374-1.253-.374-2.633.063-3.98.814-2.633 1.56-4.921 3.934-7.021 6.372-2.069 2.468-4.012 5.092-5.704 7.809a51 51 0 0 0-1.912 3.655 40 40 0 0 0-.973 2.624c-.281.844-.563 1.687-.719 2.343l-.314 1.094c-.126.375-.282.78-.376 1.186l-.501 1.781c-.283.969-.44 1.968-.659 2.937-.157.968-.313 1.969-.407 2.968-.314 3.905.783 7.685 2.883 11.058 1.535 2.375 3.479 4.468 5.673 6.31.094.031.187.031.283.063 2.381.844 4.387 2.217 6.268 3.53.156-.499.532-.968 1.128-1.03.721.062 1.065.687 1.285 1.155v.062c0 .156-.094.344-.251.406a.38.38 0 0 1-.313-.031 2.4 2.4 0 0 1 .063.439c0-.032 0 .124-.031.343.187.156.376.281.594.406-.031-.219 0-.469.063-.656.157-.532.565-1.032 1.191-1.094.721.031 1.066.687 1.254 1.125 0 .032.032.032 0 .063 0 .187-.064.343-.22.406h-.031c-.062.031-.189.031-.314 0a1 1 0 0 1 .094.437c0-.032 0 .125-.094.405 0 .094-.093.25-.218.344q.375.235.752.376c.031-.125.031-.283.094-.407.156-.531.532-1.031 1.16-1.093.721.031 1.064.656 1.284 1.124v.062c0 .158-.094.345-.251.408a.38.38 0 0 1-.312-.032c.031.156.062.313.062.469 0-.032.031.031 0 .156h.031c.564.093.94.125 1.474.031l1.912-.312c.187-.031.343-.063.501-.094.031-.094.031-.187.062-.25-.094.032-.251.094-.407.032-.094-.063-.189-.156-.22-.377 0-.031-.032-.062 0-.093.189-.468.533-1.093 1.255-1.124.625.062 1.033.562 1.19 1.093.032.124.032.251.063.407.218-.062.47-.094.69-.156a1.07 1.07 0 0 1-.252-.782.53.53 0 0 1 .094-.406c-.094.031-.25.094-.407.031-.094-.031-.188-.156-.25-.374v-.094c.219-.437.563-1.094 1.285-1.125.625.062 1.002.562 1.159 1.094.125.343.125.718 0 1.092.031 0-.031.094-.125.25a7 7 0 0 0 .878-.25l.249-.062.252-.437c-.032 0-.032 0-.063-.031a1.02 1.02 0 0 1-.345-.874c0-.188.063-.314.125-.439-.094.063-.281.125-.439.063-.093-.063-.187-.156-.218-.375v-.094c.187-.468.532-1.092 1.253-1.155.501.063.815.375 1.035.75.312-.625.595-1.282.94-1.875.501-.968.97-1.937 1.315-2.967.345-1.001.753-1.999 1.098-3.031l.721-3.123c.47-2.093.721-4.28.877-6.404a28 28 0 0 0 0-3.219c-.031-.718-.094-1.123-.156-1.718 0 0-.189-2.53-.877-4.249-.283-.717-.503-1.155-.597-1.467-.124-.281-.093-.407.032-.376.22.031.877.564 1.473 1.438-.031-.094.627.969 1.066 2.186.439 1.188.657 2.468.657 2.468l.127.876.062 1.155c.031 1.125.031 2.217-.062 3.343-.158 2.218-.408 4.373-.91 6.529l-.784 3.249-1.128 3.092c-.344 1.063-.878 2.031-1.347 3.03-.501.938-.909 1.937-1.505 2.812.908-.281 1.85-.562 2.789-.813.408-.094.848-.187 1.286-.281 3.479-5.84 6.268-12.088 7.491-18.681.783-4.28.689-8.622-.533-12.746m-33.348-8.372c.063-.093-.533.907-1.128 1.968-.565 1.032-1.097 2.125-1.097 2.125l-.69 1.187c-.846 1.594-1.598 3.186-2.195 4.842a31 31 0 0 0-.814 2.717c0 .033-.032.033-.063.096-.345.281-1.097.718-1.629-.377 0 0-.032-.093-.032-.156.252-.967.533-1.937.878-2.873a41 41 0 0 1 2.319-5.06l.815-1.438s1.536-2.28 2.853-3.655c2.224-2.374 1.754-1.093.783.624m17.52 32.49c.626.062 1.002.593 1.16 1.124.125.313.125.719 0 1.094 0-.031-.158.53-.659.749-.218.094-.627.156-.908-.094-.283-.249-.345-.593-.345-.874 0-.187.062-.312.125-.406-.094.032-.25.094-.407.032-.125-.063-.188-.156-.252-.376v-.094c.22-.468.565-1.093 1.286-1.155m-3.636-.938c.189-.468.533-1.124 1.255-1.155.625.062 1.033.593 1.19 1.092.094.345.125.751 0 1.126 0-.031-.188.499-.689.718-.221.125-.597.187-.878-.063a1.02 1.02 0 0 1-.345-.874c0-.187.032-.312.094-.437-.094.063-.251.125-.407.063-.094-.063-.189-.156-.22-.408 0 0-.032-.062 0-.062m0 3.53c.189-.468.533-1.092 1.255-1.155.625.063 1.033.593 1.19 1.124a1.86 1.86 0 0 1 0 1.094c0-.031-.188.5-.689.718-.221.125-.597.188-.878-.062a1.03 1.03 0 0 1-.345-.876c0-.187.032-.312.094-.437-.094.063-.251.125-.407.063-.094-.063-.189-.156-.22-.406 0 0-.032-.063 0-.063m-2.538-4.716c.156-.531.563-1.032 1.159-1.095.753.032 1.098.689 1.285 1.126v.093c0 .157-.062.313-.218.375v.031l-.032-.031c-.064.031-.189.031-.313 0 .062.125.093.281.093.437 0-.031 0 .125-.093.406-.063.251-.408.688-.846.626-.377-.063-.69-.281-.848-.531-.187-.251-.25-.501-.25-.501a1.9 1.9 0 0 1 .063-.936m0 3.53c.156-.532.563-1.032 1.159-1.094.753.031 1.098.687 1.285 1.125v.094c0 .156-.062.312-.218.375v.031h-.032c-.064.031-.189.031-.313-.031a1 1 0 0 1 .093.437c0-.032 0 .156-.093.405-.063.281-.408.687-.846.625-.377-.063-.69-.25-.848-.531a1.6 1.6 0 0 1-.25-.499 1.9 1.9 0 0 1 .063-.937m-2.758-2.407c.156-.53.532-1.03 1.16-1.092.721.031 1.064.687 1.284 1.155v.062a.41.41 0 0 1-.251.376v.032a.38.38 0 0 1-.312-.032c.031.125.093.281.062.437 0-.031.031.157-.062.406-.064.281-.441.687-.848.625-.376-.063-.688-.25-.877-.531-.156-.25-.219-.468-.219-.468a2 2 0 0 1 .063-.97m-2.446 2.031c.158-.531.534-1.03 1.16-1.093.721.032 1.097.656 1.286 1.124v.063c0 .156-.094.345-.251.407a.39.39 0 0 1-.314-.031c.062.156.095.312.062.437 0-.031.033.156-.062.437-.063.25-.408.687-.846.593a1.12 1.12 0 0 1-.846-.5 2 2 0 0 1-.251-.499 1.9 1.9 0 0 1 .062-.938m.033 3c-.095.031-.189.031-.345-.031a1 1 0 0 1 .094.437c0-.032.031.156-.063.405-.062.281-.438.687-.846.625-.376-.063-.69-.25-.879-.531-.187-.25-.218-.468-.218-.468-.062-.344-.062-.656.062-.968.156-.532.533-1.032 1.16-1.094.721.031 1.066.687 1.285 1.157v.062a.49.49 0 0 1-.25.406m2.037 1.061c.062.125.093.281.093.437 0-.031 0 .158-.093.439-.063.25-.408.655-.846.593-.376-.063-.69-.25-.848-.531a1.6 1.6 0 0 1-.249-.47 2 2 0 0 1 .062-.967c.156-.5.563-1.03 1.16-1.093.752.031 1.097.687 1.284 1.155v.063a.45.45 0 0 1-.218.405h-.032c-.064.032-.188.032-.313-.031m2.633 1.594h-.033a.38.38 0 0 1-.312-.031c.062.124.093.28.093.437 0-.032 0 .156-.093.437-.063.251-.408.657-.848.594a1.22 1.22 0 0 1-.846-.532c-.187-.25-.249-.468-.249-.468a1.86 1.86 0 0 1 .062-.937c.156-.53.564-1.063 1.16-1.125.752.062 1.097.688 1.284 1.157v.062c0 .156-.062.343-.218.406m.093-3.531a.38.38 0 0 1-.313-.031.7.7 0 0 1 .062.439c0-.032.031.156-.062.437-.063.249-.408.655-.846.593-.376-.063-.69-.25-.846-.531-.189-.25-.251-.468-.251-.468a1.86 1.86 0 0 1 .062-.938c.158-.531.534-1.062 1.16-1.124.752.062 1.097.687 1.284 1.155v.062c0 .157-.093.344-.25.406m.408 1.812c.156-.53.563-1.061 1.159-1.123.753.062 1.098.686 1.285 1.155v.062c0 .156-.062.343-.218.406h-.032c-.064.031-.189.031-.313-.031.062.124.093.282.093.438 0-.031 0 .156-.093.437-.063.25-.408.656-.846.593-.377-.062-.69-.249-.848-.53a1.6 1.6 0 0 1-.25-.469 1.87 1.87 0 0 1 .063-.938m2.226 4.03h-.032c-.064.032-.189.032-.313-.031.062.156.093.312.093.437 0-.031 0 .156-.093.439-.063.249-.408.686-.846.593-.377-.063-.69-.25-.848-.531-.187-.251-.25-.47-.25-.47a1.86 1.86 0 0 1 .063-.936c.156-.531.563-1.063 1.159-1.125.753.062 1.098.688 1.285 1.156v.062c0 .157-.062.344-.218.406m2.662-1.718s-.187.532-.688.751c-.22.093-.596.187-.91-.094-.25-.219-.345-.595-.312-.876 0-.156.031-.312.093-.405-.093.062-.251.124-.407.031-.095-.031-.189-.125-.22-.375-.031 0-.031-.062 0-.093.189-.438.534-1.095 1.253-1.126.628.063 1.035.564 1.191 1.094.095.344.095.749 0 1.093m2.384-1.405s-.189.531-.69.749c-.22.094-.597.188-.878-.062a1.08 1.08 0 0 1-.344-.905c0-.158.031-.283.093-.408-.093.063-.251.125-.407.031-.094-.031-.189-.124-.22-.374 0 0-.031-.063 0-.094.189-.437.534-1.092 1.255-1.124.626.063 1.033.562 1.191 1.093.093.343.124.749 0 1.094m2.35-1.219c.031-.031-.158.531-.659.749-.22.094-.627.188-.908-.093-.282-.25-.345-.593-.345-.874 0-.188.063-.313.125-.406-.094.031-.251.093-.407.031-.094-.062-.188-.156-.252-.375v-.093c.22-.47.565-1.094 1.286-1.126.626.032 1.002.562 1.16 1.095.125.312.125.718 0 1.092m52.142-19.55c-.032-1.377-.158-2.658-.534-3.909-.312-1.219-.909-2.344-1.754-3.188-.377-.406-.846-.72-1.347-.97q-.143.234-.283.47c-1.598 2.813-1.442 1.469-.877-.438-.063.093.314-1.001.657-2.157a32 32 0 0 0 .534-2.282c.062-.281.125-.533.187-.782l.063-.406v-.094l.063-.501c.063-.437.063-.875.032-1.281-.095-1.658-1.066-2.877-2.665-3.47-1.567-.594-3.447-.719-5.264-.782-3.635-.062-7.27.72-10.531 2.313-3.259 1.596-6.173 3.909-8.679 6.596-2.195 2.409-4.076 5.065-5.736 7.879a32.6 32.6 0 0 1-.595 7.441c-1.16 5.907-3.417 11.411-6.268 16.569a18 18 0 0 0 1.567-1.063c.721-.563 1.409-1.189 2.099-1.782l7.334-7.129a260 260 0 0 0 3.008-3.251l1.097-1.219s1.912-1.876 3.353-3.126c.91-.813 1.38-1.157 1.567-1.157.282-.031-.156.845-.877 1.845.093-.062-.628.906-1.379 1.844l-1.504 1.938-2.883 3.158a124 124 0 0 1-3.416 3.563c-2.131 2.159-4.325 4.284-6.707 6.221l.596-.218c.846-.281 1.692-.72 2.538-1.063a20 20 0 0 0 1.442-.72s1.91-.78 4.23-1.718c1.097-.501 1.66-.657 1.849-.595.283.063-.438.72-1.442 1.471.095-.063-.877.624-1.912 1.25-1.033.655-2.13 1.281-2.13 1.281-.439.187-.846.406-1.285.595-.532.218-1.035.468-1.536.687.501.093 1.004.156 1.505.282 1.253.343 2.507.593 3.886 1.125q.516.187 1.034.469c.188.093.344.187.501.312.157.093.471.345.689.563.439.437.659 1.063.597 1.719 0 .157-.032.345-.096.532 3.668-1.032 7.177-2.752 10.217-5.065 2.946-2.219 5.516-5.001 7.584-8.096l1.474-2.377c.345-.811.783-1.562.971-2.438l.22-.719c.062-.188.093-.375.124-.562l.221-1.188s.062-.251.124-.626c.063-.406.157-.969.283-1.625.218-1.314.439-3.032.815-4.471.594-2.376 1.159-3 1.315-2.688.094.156.125.531.157 1.063-.032.499-.032 1.156-.032 1.907.032-.156 0 1.563.032 3.376 0 .907-.032 1.845-.063 2.563 0 .72-.094 1.219-.094 1.219l-.22 1.345c-.124.469-.187.656-.563 1.875-.156.501-.407.969-.628 1.439-.218.468-.438.969-.688 1.344-.534.844-1.003 1.72-1.598 2.5-1.912 2.783-4.231 5.284-6.832 7.441 3.008-.968 6.08-1.875 9.307-2.376 1.098-.187 2.224-.281 3.353-.343.095-.188.22-.344.314-.533 2.444-4.751 3.354-10.284 3.51-15.692.031-1.376.031-2.72-.031-4.095m-23.442 13.472c-.094.094-.376.377-.627.595-.25.25-.501.468-.501.468s-.25.22-.533.439c-.251.25-.627.437-.752.531-.22.124-.439.031-.752-.188.031-.437.031-.655.189-.782.093-.062.376-.187.625-.437.252-.218.502-.406.502-.406s.22-.188.471-.407c.218-.25.501-.499.595-.593.156-.156.376-.094.783 0 .125.375.156.624 0 .78"/><path fill="#041e42" d="M214.521 210.069c-1.892.489-5.811 1.054-9.439 1.503-3.101-.41-9.908-2.341-9.79-4.976.312-4.019 6.767-11.081 10.296-11.471 3.512-.391 10.356 7.921 11.8 10.321-1.756 2.927-1.112 2.927-2.867 4.623"/><path fill="#d69a2d" d="M213.508 210.333c-1.695.487-5.128 1.054-8.365 1.502-2.748-.409-8.695-1.97-8.598-4.605.117-.429 5.85-10.086 8.989-10.476 3.138-.39 9.163 8.468 10.412 8.837-1.56 2.927-.878 3.044-2.438 4.742"/></g></g></svg>