<svg xmlns="http://www.w3.org/2000/svg" width="420" height="420" fill="none" viewBox="0 0 420 420"><mask id="a" width="420" height="300" x="0" y="60" maskUnits="userSpaceOnUse" style="mask-type:alpha"><path fill="#fff" d="M379.873 60H40.127C17.966 60 0 77.966 0 100.127v219.746C0 342.034 17.966 360 40.127 360h339.746C402.034 360 420 342.034 420 319.873V100.127C420 77.966 402.034 60 379.873 60"/></mask><g mask="url(#a)"><path fill="#000" d="M0 60h420v300H0z"/><path fill="#eaaa00" d="M0 360V85l35 25v250h35V60h35v300h35V60h35v300h35V60h35v300h35V60h35v300h35V60h35v300h35v-25L35 60v50l350 250z"/><path fill="#fff" d="M210 60h105v150h105v-75H210z"/><path fill="#9d2235" d="M315 60h105v75H210v75h105z"/><path fill="#9d2235" d="M315 199.5c2.376 0 4.655-1.011 6.336-2.812 1.68-1.8 2.624-4.242 2.624-6.788v-4.8h8.68c2.376 0 4.655-1.011 6.336-2.812 1.68-1.8 2.624-4.242 2.624-6.788s-.944-4.988-2.624-6.788c-1.681-1.801-3.96-2.812-6.336-2.812h-8.68v-21.3h55.72v9.3c0 2.546.944 4.988 2.624 6.788 1.681 1.801 3.96 2.812 6.336 2.812s4.655-1.011 6.336-2.812c1.68-1.8 2.624-4.242 2.624-6.788v-9.3h7.84c2.376 0 4.655-1.011 6.336-2.812 1.68-1.8 2.624-4.242 2.624-6.788H315z"/><path fill="#fff" d="M315 199.5c-2.376 0-4.655-1.011-6.336-2.812-1.68-1.8-2.624-4.242-2.624-6.788v-4.8h-8.68c-2.376 0-4.655-1.011-6.336-2.812-1.68-1.8-2.624-4.242-2.624-6.788s.944-4.988 2.624-6.788c1.681-1.801 3.96-2.812 6.336-2.812h8.68v-21.3h-55.72v9.3c0 2.546-.944 4.988-2.624 6.788-1.681 1.801-3.96 2.812-6.336 2.812s-4.655-1.011-6.336-2.812c-1.68-1.8-2.624-4.242-2.624-6.788v-9.3h-7.84c-2.376 0-4.655-1.011-6.336-2.812-1.68-1.8-2.624-4.242-2.624-6.788H315zM315 70.5c2.376 0 4.655 1.011 6.336 2.812 1.68 1.8 2.624 4.242 2.624 6.788v4.8h8.68c2.376 0 4.655 1.011 6.336 2.812 1.68 1.8 2.624 4.242 2.624 6.788s-.944 4.988-2.624 6.788c-1.681 1.801-3.96 2.812-6.336 2.812h-8.68v21.3h55.72v-9.3c0-2.546.944-4.988 2.624-6.788 1.681-1.801 3.96-2.812 6.336-2.812s4.655 1.011 6.336 2.812c1.68 1.8 2.624 4.242 2.624 6.788v9.3h7.84c2.376 0 4.655 1.011 6.336 2.812 1.68 1.8 2.624 4.242 2.624 6.788H315z"/><path fill="#9d2235" d="M315 70.5c-2.376 0-4.655 1.011-6.336 2.812-1.68 1.8-2.624 4.242-2.624 6.788v4.8h-8.68c-2.376 0-4.655 1.011-6.336 2.812-1.68 1.8-2.624 4.242-2.624 6.788s.944 4.988 2.624 6.788c1.681 1.801 3.96 2.812 6.336 2.812h8.68v21.3h-55.72v-9.3c0-2.546-.944-4.988-2.624-6.788-1.681-1.801-3.96-2.812-6.336-2.812s-4.655 1.011-6.336 2.812c-1.68 1.8-2.624 4.242-2.624 6.788v9.3h-7.84c-2.376 0-4.655 1.011-6.336 2.812-1.68 1.8-2.624 4.242-2.624 6.788H315z"/><path fill="#fff" d="M0 210h105v150h105v-75H0z"/><path fill="#9d2235" d="M105 210h105v75H0v75h105z"/><path fill="#9d2235" d="M105 349.5c2.376 0 4.655-1.011 6.336-2.812 1.68-1.8 2.624-4.242 2.624-6.788v-4.8h8.68c2.376 0 4.655-1.011 6.336-2.812 1.68-1.8 2.624-4.242 2.624-6.788s-.944-4.988-2.624-6.788c-1.681-1.801-3.96-2.812-6.336-2.812h-8.68v-21.3h55.72v9.3c0 2.546.944 4.988 2.624 6.788 1.681 1.801 3.96 2.812 6.336 2.812s4.655-1.011 6.336-2.812c1.68-1.8 2.624-4.242 2.624-6.788v-9.3h7.84c2.376 0 4.655-1.011 6.336-2.812 1.68-1.8 2.624-4.242 2.624-6.788H105z"/><path fill="#fff" d="M105 349.5c-2.376 0-4.655-1.011-6.336-2.812-1.68-1.8-2.624-4.242-2.624-6.788v-4.8h-8.68c-2.376 0-4.655-1.011-6.336-2.812-1.68-1.8-2.624-4.242-2.624-6.788s.944-4.988 2.624-6.788c1.68-1.801 3.96-2.812 6.336-2.812h8.68v-21.3H40.32v9.3c0 2.546-.944 4.988-2.624 6.788-1.68 1.801-3.96 2.812-6.336 2.812s-4.655-1.011-6.336-2.812c-1.68-1.8-2.624-4.242-2.624-6.788v-9.3h-7.84c-2.376 0-4.655-1.011-6.336-2.812-1.68-1.8-2.624-4.242-2.624-6.788H105zM105 220.5c2.376 0 4.655 1.011 6.336 2.812 1.68 1.8 2.624 4.242 2.624 6.788v4.8h8.68c2.376 0 4.655 1.011 6.336 2.812 1.68 1.8 2.624 4.242 2.624 6.788s-.944 4.988-2.624 6.788c-1.681 1.801-3.96 2.812-6.336 2.812h-8.68v21.3h55.72v-9.3c0-2.546.944-4.988 2.624-6.788 1.681-1.801 3.96-2.812 6.336-2.812s4.655 1.011 6.336 2.812c1.68 1.8 2.624 4.242 2.624 6.788v9.3h7.84c2.376 0 4.655 1.011 6.336 2.812 1.68 1.8 2.624 4.242 2.624 6.788H105z"/><path fill="#9d2235" d="M105 220.5c-2.376 0-4.655 1.011-6.336 2.812-1.68 1.8-2.624 4.242-2.624 6.788v4.8h-8.68c-2.376 0-4.655 1.011-6.336 2.812-1.68 1.8-2.624 4.242-2.624 6.788s.944 4.988 2.624 6.788c1.68 1.801 3.96 2.812 6.336 2.812h8.68v21.3H40.32v-9.3c0-2.546-.944-4.988-2.624-6.788-1.68-1.801-3.96-2.812-6.336-2.812s-4.655 1.011-6.336 2.812c-1.68 1.8-2.624 4.242-2.624 6.788v9.3h-7.84c-2.376 0-4.655 1.011-6.336 2.812-1.68 1.8-2.624 4.242-2.624 6.788H105z"/></g></svg>