<svg xmlns="http://www.w3.org/2000/svg" width="420" height="420" fill="none" viewBox="0 0 420 420"><mask id="a" width="420" height="300" x="0" y="60" maskUnits="userSpaceOnUse" style="mask-type:alpha"><path fill="#52c9e8" d="M379.873 60H40.127C17.966 60 0 77.966 0 100.127v219.746C0 342.034 17.966 360 40.127 360h339.746C402.034 360 420 342.034 420 319.873V100.127C420 77.966 402.034 60 379.873 60"/></mask><g mask="url(#a)"><path fill="#52c9e8" d="M-24 360h600V60H-24z"/><path fill="#002d5d" d="M-24 60h336L210 210l102 150H-24z"/><path fill="#fff" d="m101.946 143.946-20.665 49.89 20.353 21.419 29.537-.754z"/><path fill="#fff" d="m101.946 275.946 20.665-49.889-20.352-21.419-29.537.754z"/><path fill="#fff" d="m148.615 163.277-49.89 20.665-.753 29.537 21.419 20.352z"/><path fill="#fff" d="m55.277 256.615 49.89-20.665.754-29.537-21.42-20.352z"/><path fill="#fff" d="m148.615 256.615-20.665-49.889-29.537-.754-20.352 21.419z"/><path fill="#fff" d="m55.277 163.277 20.665 49.89 29.537.754 20.353-21.419z"/><path fill="#fff" d="m35.946 209.946 49.89 20.665 21.419-20.352-.754-29.537z"/><path fill="#fff" d="m167.946 209.946-49.889-20.665-21.42 20.353.755 29.537z"/></g></svg>