<svg xmlns="http://www.w3.org/2000/svg" width="420" height="420" fill="none" viewBox="0 0 420 420"><path fill="#002a86" d="M379.873 60H40.127C17.966 60 0 77.966 0 100.127v219.746C0 342.034 17.966 360 40.127 360h339.746C402.034 360 420 342.034 420 319.873V100.127C420 77.966 402.034 60 379.873 60"/><path fill="#efae0e" d="m214.661 107.295 7.202-5.235-9.138.061L209.977 94l-2.518 8.044h-8.903l7.203 5.251-2.886 8.641 7.34-5.373 7.326 5.373-2.879-8.64m-65.332 20.817 7.064-5.495-9.032.383-3.015-8.114-2.48 8.252-8.779.39 7.095 5.036-2.38 8.58 7.202-5.633 7.462 5.113zm-39.395 60.68 9.146-.719-7.73-4.708 1.967-8.387-6.544 5.64-7.73-4.592 3.536 8.136-6.934 5.871 9.031-.773 3.298 8.441zm8.381 66.268 6.659-6.23-8.909 1.179-3.666-7.731-1.7 8.526-8.771 1.042 7.723 4.309-1.83 8.909 6.675-6.277 7.615 4.509zm46.069 46.536 1.569-8.909-6.651 6.352-7.593-4.049 3.904 7.792-6.422 6.154 8.779-1.179 3.796 8.236 1.692-9.024 8.901-1.172-7.983-4.186"/><path fill="#efae0e" d="m190.437 109.905-1.049-.521-1.041-.52-2.227-.253-2.098.13-1.698.391-2.098.52-1.707.123 2.626-1.439 3.398-1.952 3.406-2.365 1.179-1.178.918-1.049.658.13.773-.268.529-.383.39-.528.13-.773-.13-.796-.391-.658-.658-.39-.788-.253-.65.138-.651.39-.521.65-.13.781.13.659.261.658.52.52-.13.123-2.09 1.837-2.487 1.706-2.625 1.432-2.748 1.439-5.626 2.357-5.632 1.707 1.048-.658 1.071-.72 3.927-1.959 2.992-1.761 1.302-1.178 1.186-1.317 1.178-1.316.773-1.569.789-1.692.391-1.837-1.7.253-1.439.405-1.577.643-1.308.789-2.61 1.829-2.228 2.228-1.959 2.357-1.577 2.35-1.178 2.105-.781 1.553-.252.275-.659-.275-.26-.505.122-.789.26-.918.789-2.227.651-2.342h.658l.65-.268.529-.528.26-.658v-.643l-.26-.659-.529-.52-.65-.268h-.788l-.659.268-.382.52-.261.659-.13.643.26.527.261.383.528.391-.658 2.112-.919 2.342-1.179 2.495-1.178 1.96-5.626 3.398-.13-.513v-.788l.52-1.707.528-.91.911-.781 1.838-1.447.657-.91.521-1.44.26-1.837v-2.617l-.39.658-.788.528-1.96 1.294-2.097 1.569-.911.934-.789 1.163-.26.788.13 1.049.391 1.049.651 1.301.26.788v.781l-.13 1.707-1.692 1.308-.528.391-.13.39.13.253.138.137.773.13.788-.383 2.09-1.315 1.706-.261h1.96l.919.26.918.383.781.528.52.788-.39.659-.123.642.123.797.26.642.659.521.78.268.788-.13.781-.391.528-.658.252-.78-.122-.789-.39-.658-.528-.505-.651-.276h-.788l-.65.275-1.18-1.186-1.308-.91-1.439-.391-1.439-.13 2.61-1.569 1.438-.268 1.318.13 1.438.268 1.439.643 1.967 1.187 2.488 1.04 1.308.391 1.309.138h1.439l1.309-.392 2.227-.925.781-.252h.911l-.65-.919-1.18-1.056-2.349-2.082-1.569-.658-1.707-.269-1.7.138-1.438.521-1.837.781-1.837.535-1.699.253-1.569-.391 2.357-1.178 1.829-.91 6.154-2.091 1.577.116 1.7.658 1.561.78 1.446 1.041 2.219 1.187 2.228.658 2.357.268 2.358-.268 2.097-.658 1.951-.911 1.707-1.317 1.179-1.568-1.576.13-1.7-.253-1.699-.52-1.569-.919m-56.554 32.337-1.18.138-1.178.268-1.837 1.179-1.561 1.301-1.179 1.439-1.309 1.7-1.308 1.048 1.178-2.617 1.569-3.797 1.171-3.797.261-1.706v-1.302l.657-.382.392-.658.267-.659v-.658l-.398-.781-.521-.52-.78-.253-.781.115-.658.268-.521.659-.267.642v.796l.267.658.521.505.658.268.781.123v.137l-.651 2.748-.919 2.886-1.178 2.87-1.309 2.763-3.015 5.35-3.269 4.73.911-2.617 1.837-3.934 1.179-3.001.26-1.707.26-1.836v-1.707l-.26-1.822-.52-1.706-.789-1.707-1.048 1.186-1.049 1.316-.773 1.294-.658 1.439-.918 3.138-.392 3.154v3.008l.131 2.747.399 2.365.381 1.822-.122.39-.658.13-.52-.268-.399-.643-.39-.926-.65-2.227-.919-2.227.521-.391.26-.658.138-.643-.138-.65-.521-.529-.52-.39-.781-.115-.658.253-.52.39-.391.658-.13.643.26.659.391.52.39.391.528.13h.651l.78 1.959.659 2.495.65 2.618.13 2.35-2.227 6.153-.52-.382-.383-.659-.658-1.569-.13-1.186.26-1.163.528-2.228v-1.048l-.528-1.447-.919-1.692-1.569-2.105v.789l-.26.91-.658 2.228-.781 2.618-.122 1.316.122 1.301.26.781.658.788 1.041.659 1.309.52.659.39.52.659.918 1.438-.65 2.09v.658l.13.391.13.13h.26l.651-.398.52-.781.788-2.35 1.049-1.178 1.7-1.179.918-.391.911-.267h.918l.918.268v.658l.382.658.529.505.651.391h.918l.65-.253.659-.643.26-.658.13-.926-.39-.643-.521-.659-.788-.389h-.658l-.773.252-.529.391-.39.657-1.569-.252-1.569.122-1.446.521-1.179.788 1.049-2.885.918-.911 1.179-.788 1.308-.643 1.569-.406 2.228-.253 2.61-.658 1.308-.52 1.179-.781 1.049-.796.788-1.164 1.179-1.975.52-.642.651-.658-1.049-.268-1.561-.253-3.146-.138-1.569.391-1.577.926-1.308 1.171-.781 1.178-.91 1.822-1.18 1.585-1.179 1.033-1.438.796 1.049-2.365.91-1.822 3.536-5.503 1.439-.796 1.47-.581 2.058-.33 1.577-.115 2.488-.405 2.227-.781 1.96-1.302 1.706-1.583 1.439-1.822.919-1.96.512-1.959v-2.105l-1.171 1.179-1.438.781-1.707.658-1.829.268m-25.411 60.481-.918.781-.651.926-.919 2.089-.39 1.959v3.935l-.39 1.706-.65-2.885-1.049-3.796-1.439-3.789-.789-1.584-.78-1.179.26-.643v-.658l-.26-.658-.398-.521-.773-.39h-.788l-.659.137-.65.521-.391.658v.781l.26.773.52.536.53.39.78.123.65-.123.651-.52v.252l1.178 2.618 1.049 2.748.788 2.885.651 3.008.789 6.154.26 5.756-.628-1.103-.39-1.454-.682-4.24-.918-3.138-.781-1.584-.91-1.562-1.049-1.447-1.309-1.163-1.439-1.186-1.577-.788-.26 1.584v1.553l.52 3.139 1.18 3.022 1.576 2.749 1.822 2.479 1.837 2.098 1.699 1.699 1.439 1.186v.383l-.391.528-.512.13-.789-.268-.788-.52-1.83-1.439-1.048-.658-1.048-.521.13-.658-.13-.773-.383-.528-.528-.391-.65-.268-.659.138-.65.391-.399.519-.26.659.13.773.398.528.521.521.52.138h.65l.521-.268.398-.391 1.83 1.179 2.097 1.569 2.097 1.707 1.569 1.707 1.821 6.276h-.52l-.78-.253-1.44-.926-.78-.78-.528-1.049-.919-2.09-.78-.925-1.172-.781-1.707-.926-2.487-.505.39.505.39.926.79 2.227.91 2.48.658 1.186.918.911.773.52.919.138h1.179l1.439-.528h.788l.789.261 1.569.52.773 2.105.398.512.259.269h.261l.26-.269.268-.658-.138-.91-.781-2.212.261-1.707.52-1.96.398-.926.651-.658.788-.643.781-.268.521.521.657.252.781.138.659-.138.65-.505.528-.658.13-.773-.26-.797-.398-.788-.78-.39-.789-.123-.788.253-.651.391-.382.52-.138.781v.658l-1.439.796-1.179 1.041-.78 1.316-.529 1.301-.773-2.885.123-1.431.52-1.317.659-1.171.91-1.316 1.707-1.569 1.569-2.09.788-1.178.521-1.302.26-1.316v-1.439l-.26-2.357-.13-.781.26-.926-1.049.535-1.439.781-2.487 1.707-1.049 1.301-.65 1.569-.399 1.699.138 1.569.392 1.975v1.821l-.261 1.707-.788 1.44-.919-4.577-.521-6.415.651-1.584 1.049-1.431 1.178-1.302 1.309-1.186 1.707-1.699 1.308-2.097.774-2.227.398-2.228v-2.212l-.528-2.227-.773-1.837-1.179-1.691-.268 1.553-.65 1.57-.919 1.584zm16.892 63.504-.26 1.186.13 1.041.391 2.228.91 1.837 1.049 1.439 1.308 1.837.651 1.438-2.219-1.844-3.138-2.48-3.407-2.227-1.439-.659-1.438-.382-.13-.781-.399-.536-.65-.39-.658-.122-.781.122-.65.391-.521.658-.13.788.13.796.383.505.658.521.781.137.658-.137.65-.253.398-.52.261-.797.26.138 2.488 1.317 2.487 1.684 2.349 1.845 2.358 2.089 4.317 4.324 3.674 4.455-1.286-.59-1.072-.979-3.137-2.886-2.748-1.959-1.439-.797-1.707-.658-1.7-.39-1.707-.253h-1.829l-1.837.253.789 1.454 2.097 2.35 1.179 1.041 2.748 1.707 2.877 1.316 2.886.773 2.74.659 2.357.267 1.83.123.398.268v.658l-.398.391-.781.252h-.919l-2.357.138-2.479.253-.261-.659-.398-.505-.651-.276h-.658l-.78.276-.399.505-.26.659-.122.658.382.788.399.391.65.252.788.137.521-.267.398-.391.383-.39.13-.658 2.097-.115h2.617l2.748.115 2.228.405 5.227 3.797-.383.39-.788.253-1.699.252-1.179-.252-1.048-.521-1.959-1.048-1.049-.252h-1.577l-1.821.389-2.358.911.651.253.788.391 1.959 1.446 2.358 1.316 1.179.513 1.308.268h.918l.781-.528.919-.788.91-1.172.651-.382.659-.406 1.699-.391 1.837 1.049.52.268h.399l.259-.138.13-.252-.268-.788-.65-.643-1.967-1.316-.91-1.455-.659-1.822-.13-1.048v-.91l.26-.927.528-.773.651.13.788-.13.65-.391.392-.657.259-.781v-.789l-.39-.658-.651-.513-.788-.268h-.781l-.788.391-.52.658-.261.78.123.659.268.65.52.528-.788 1.432-.261 1.569v1.577l.529 1.308-2.488-1.837-.659-1.163-.382-1.316-.26-1.439.13-1.447.252-2.365v-2.61l-.122-1.439-.26-1.302-.658-1.315-.789-1.041-1.699-1.707-.521-.659-.267-.78-.651.926-.658 1.439-.911 3.008-.13 1.569.528 1.7.643 1.568 1.049 1.187 1.439 1.431 1.178 1.438.789 1.585.26 1.431-1.959-1.584-1.447-1.432-4.317-4.844-.528-1.569v-1.822l.138-1.844.39-1.684.391-2.366-.261-2.48-.658-2.226-1.041-1.975-1.447-1.822-1.699-1.439-1.7-1.048-1.966-.537.789 1.455.389 1.569.131 1.822-.261 1.837m90.485 59.034h2.748l1.576-.39 1.439-.773v-.269l-.26-.39-1.837-.658-2.748-1.049-1.576-.773-1.7-.918-2.487-1.309-1.7-.512-1.178-.406-.658-.383-.773-.797-1.439-2.088-1.049-2.617-.138-1.18v-1.049l.659-.252.528-.528.383-.658.13-.643-.268-.789-.383-.658-.65-.52-.919-.123-.78.253-.659.52-.398.658-.123.781.123.797.399.52.658.52.65.122.13 2.09.52 2.618.781 2.227.529.926.52.513-3.015-.26-1.172-.658-1.041-.911-1.048-1.041-.659-1.439-.918-2.09-1.439-2.365-.781-1.048-1.048-.926-1.049-.773-1.308-.513-2.358-.536-.658-.391-.773-.52v1.179l.252 1.569.659 3.008.78 1.447 1.308 1.301 1.44.91 1.446.391 1.96.405 1.707.773 1.439.797 1.178 1.163-2.617-.391-1.968-.382-6.283-1.96-1.179-1.048-.91-1.585-.789-1.554-.651-1.568-.918-2.365-1.439-1.837-1.837-1.569-1.96-1.301-2.096-.781-2.09-.399-2.097.131-1.967.528 1.309.773 1.308 1.186 1.049 1.432.658 1.707.521 1.178.528.91 1.569 1.57 1.821 1.186 1.577.651 1.96.781 1.446 1.048-3.122-.451-3.819-.46-3.928-.137-1.706.137-1.431.383-.521-.52-.658-.253h-.658l-.651.253-.651.52-.267.658-.13.797.26.642.528.659.65.39h.788l.781-.26.521-.383.39-.658.138-.796-.268-.643h.268l2.878-.13 2.878.13 3.015.252 3.139.529 5.885 1.569 5.504 1.821-2.756-.122-4.317-.773-3.276-.268-1.691.115-1.707.268-1.7.527-1.706.659-1.569.91-1.309 1.179 1.439.781 1.439.658 1.577.383 1.569.276h3.145l3.139-.391 3.008-.796 2.617-.911 2.098-1.049 1.699-.788h.39l.39.659-.122.52-.528.528-.789.658-2.089 1.179-.919.643-.918.788-.52-.398-.651-.122-.781.123-.528.398-.39.528-.26.658.13.773.39.528.52.52.659.138.781-.138.519-.39.392-.39.267-.536v-.643l-.138-.52 1.707-1.317 2.227-1.301 2.35-1.316 2.097-.782h1.837l1.7.392 1.561.389 1.577.253.918.138 1.041.405 2.097 1.295 1.967 1.438 1.7 1.569m55.13-196.92-6.942-5.487 8.909.252 3.001-7.983 2.487 8.236 8.91.39-7.326 4.845 2.48 8.772-7.194-5.619-7.462 4.976zM310.112 189l-8.901-.788 7.724-4.577-1.96-8.381 6.674 5.632 7.6-4.591-3.406 8.12 6.935 5.886-9.162-.772-3.406 8.25zm-8.25 66.26-6.545-6.161 8.771 1.178 3.667-7.861 1.836 8.504 8.902 1.186-7.853 4.317 1.822 8.91-6.667-6.292-7.861 4.317zm-45.954 46.475-1.569-8.78 6.415 6.3 7.722-4.073-3.667 7.869 6.117 6.146-8.772-1.186-3.629 8.136-1.699-8.909-8.909-1.187z"/><path fill="#efae0e" d="m229.854 110.181 1.049-.659 1.041-.39 2.227-.268 2.097.13 1.7.391 2.089.52h1.7l-2.61-1.294-3.407-1.974-3.268-2.35-1.308-1.179-.919-1.048h-.659l-.65-.138-.658-.383-.383-.658-.13-.781.13-.658.383-.658.658-.52.788-.123.781.122.658.406.391.643.129.788v.643l-.39.658-.528.391.138.13 2.219 1.845 2.351 1.683 2.617 1.569 2.756 1.455 5.755 2.365 5.503 1.684-1.049-.773-1.308-.781-3.797-1.837-2.885-1.837-1.308-1.049-1.164-1.301-1.049-1.447-.918-1.438-.659-1.707-.39-1.837 1.569.268 1.569.39 1.447.52 1.439.797 2.61 1.959 2.227 2.212 1.829 2.357 1.577 2.228 1.171 2.096.78 1.707.392.116.657-.253.131-.521v-.658l-.261-.91-.919-2.212-.65-2.366h-.658l-.651-.252-.39-.544-.261-.643v-.658l.261-.651.391-.528.78-.252h.659l.65.252.528.528.26.651v.528l-.13.658-.398.391-.391.382.529 2.098 1.041 2.342 1.048 2.503 1.309 1.952 5.503 3.413.13-.658v-.643l-.528-1.722-.52-.896-.919-.788-1.699-1.439-.651-.927-.65-1.438-.26-1.952v-2.503l.512.528.659.659 1.96 1.301 2.226 1.568.919.927.658 1.164.26.795v1.041l-.398 1.049-.78 1.316-.26.643v.926l.26 1.569 1.7 1.302.389.52.138.391v.267l-.268.123-.781.137-.788-.39-1.967-1.316-1.7-.253h-1.958l-1.041.252-.919.392-.788.535-.521.78.391.651.13.643v.796l-.391.658-.658.521-.78.122h-.789l-.781-.39-.52-.658-.13-.773v-.781l.391-.789.657-.39.651-.253h.658l.773.253 1.049-1.186 1.309-.911 1.446-.52h1.44l-2.618-1.707-1.309-.13-1.439.13-1.439.268-1.309.643-2.098 1.186-2.356 1.041-1.439.391-1.309.137h-1.439l-1.309-.39-2.098-.926-.78-.253h-.918l.65-.911 1.179-1.186 2.358-1.959 1.438-.651 1.707-.261 1.829.123 1.309.52 1.837.797 1.822.52 1.707.122 1.569-.252-2.358-1.302-1.821-.796-6.024-2.089-1.707.115-1.699.658-1.569.781-1.439.926-2.097 1.301-2.357.658-2.358.13-2.219-.13-2.228-.658-1.967-1.033-1.569-1.194-1.308-1.554 1.699.115 1.576-.252 1.699-.521 1.577-.911m56.555 32.346 1.308.137 1.049.253 1.96 1.064 1.568 1.431 1.049 1.439 1.309 1.699 1.309 1.048-1.179-2.747-1.439-3.666-1.308-3.796-.261-1.707v-1.432l-.651-.39-.398-.521-.26-.658.13-.658.268-.78.65-.521.651-.268h.781l.788.39.521.521.26.788-.122.781-.268.658-.521.52-.658.26h-.651v.269l.651 2.748.788 2.869 1.179 2.764 1.309 2.869 3.008 5.236 3.406 4.845-.919-2.617-1.959-3.919-1.048-3.154-.391-1.691-.26-1.7v-1.707l.26-1.836.521-1.707.788-1.684 1.171 1.178.91 1.302.79 1.316.658 1.432.918 3.138.391 3.138.129 3.023-.26 2.733-.26 2.364-.528 1.822.26.406.658.122.521-.26.382-.658.268-.91.65-2.229.919-2.226-.52-.521-.268-.52-.123-.659.253-.643.398-.658.651-.252.658-.138.65.138.659.505.26.535.13.781-.13.659-.391.505-.528.268-.52.267-.512-.13-.79 2.089-.788 2.488-.52 2.626-.268 2.35 2.228 6.023.527-.268.391-.643.658-1.707.123-1.041-.123-1.186-.528-2.227v-1.164l.39-1.454.911-1.699 1.577-1.96v.773l.26.934.788 2.228.651 2.48.13 1.43v1.318l-.391.78-.658.788-.91.528-1.447.643-.52.398-.659.643-.773 1.455.513 2.089v.91l-.26.276h-.253l-.658-.39-.391-.796-.788-2.358-1.178-1.17-1.569-1.179-.911-.521-.919-.137-1.048-.138-.91.405v.643l-.261.659-.528.52-.781.276-.788.13-.781-.406-.521-.52-.39-.773v-.781l.26-.796.521-.521.788-.39h.781l.651.26.52.399.398.642 1.699-.252 1.577.122 1.439.536 1.163.781-1.163-2.886-.919-.918-1.178-.926-1.309-.505-1.439-.391-2.357-.268-2.488-.781-1.309-.535-1.179-.643-1.041-.789-.918-1.17-1.178-2.106-.392-.643-.788-.52 1.049-.275 1.699-.253 3.016-.13 1.7.383 1.438.933 1.316 1.164.912 1.178.918 1.837 1.048 1.439 1.302 1.179 1.308.78-1.048-2.479-.91-1.707-3.529-5.503-1.447-.911-1.7-.52-1.699-.276-1.707-.115-2.486-.39-2.228-.788-1.967-1.302-1.7-1.584-1.308-1.829-.911-1.96-.52-2.089v-1.975l1.178 1.049 1.44.926 1.699.643 1.699.268m25.533 60.35.788.912.651.91.91 1.975.391 2.089.131 1.83v2.105l.389 1.553.659-2.732 1.048-3.934 1.309-3.796.773-1.447.788-1.171-.26-.659v-.657l.26-.643.529-.659.651-.268.788-.114.78.252.521.52.39.659v.78l-.13.789-.512.528-.659.383-.651.122-.788-.252-.52-.391-.138.138-1.179 2.61-1.041 2.87-.781 2.886-.65 3.008-.788 6.161-.269 5.756.529-1.172.39-1.446.911-4.187.918-3.275.651-1.569.918-1.432 1.179-1.439 1.179-1.316 1.439-1.041 1.706-.918.123 1.706v1.569l-.123 1.554-.398 1.584-1.178 3.008-1.569 2.748-1.7 2.48-1.836 2.097-1.7 1.707-1.446 1.041-.123.528.391.521h.65l.659-.253.78-.528 1.967-1.309 1.049-.781 1.049-.52-.261-.659.13-.658.392-.528.512-.383.658-.275.788.153.521.253.528.643.13.658-.13.658-.268.658-.651.391-.527.252h-.521l-.528-.252-.512-.391-1.83 1.179-2.098 1.569-1.967 1.692-1.699 1.706-1.837 6.292h.659l.65-.268 1.577-.911.65-.796.659-1.033.773-2.105.788-.91 1.179-.911 1.837-.797 2.487-.52-.528.52-.391.927-.658 2.211-1.04 2.504-.651 1.04-.919 1.049-.658.391-1.041.267-1.178-.138-1.447-.382h-.65l-.919.114-1.569.659-.781 2.097-.26.383-.39.268h-.26l-.268-.131-.261-.642.13-.927.789-2.35-.13-1.584-.528-1.959-.521-.911-.658-.773-.651-.528-.918-.391-.52.643-.659.276-.643.13-.789-.268-.657-.39-.391-.658-.13-.911.13-.789.529-.658.65-.39.788-.123.773.123.658.52.391.528.268.789-.138.643 1.446.796 1.18 1.041.78 1.316.528 1.301.91-3.001-.259-1.315-.391-1.317-.658-1.301-1.048-1.179-1.569-1.569-1.7-2.097-.658-1.301-.52-1.179-.391-1.316v-1.432l.391-2.365v-.78l-.269-.911 1.049.39 1.439.797 2.496 1.82 1.048 1.302.781 1.569.26 1.699-.13 1.454-.26 2.09-.131 1.829.391 1.699.528 1.439.65-2.617.392-1.96.527-6.414-.658-1.569-1.049-1.447-1.171-1.438-1.308-1.049-1.707-1.822-1.309-1.974-.789-2.227-.382-2.212.122-2.358.398-2.098.781-1.958 1.179-1.57.39 1.57.52 1.576 1.049 1.431 1.309 1.317m-16.877 63.489.13 1.178v1.18l-.52 2.211-.919 1.845-1.048 1.431-1.309 1.707-.658 1.569 2.227-1.822 3.145-2.503 3.407-2.226 1.561-.774 1.309-.39.26-.658.39-.521.528-.391.789-.137.773.138.658.39.391.521.129.78-.13.789-.39.658-.658.528-.643.115-.789-.114-.658-.406-.391-.513-.259-.659-.13.123-2.488 1.316-2.487 1.707-2.488 1.822-2.35 1.974-4.194 4.439-3.796 4.455 2.357-1.569 3.276-2.886 2.61-1.959 1.569-.796 1.576-.643 1.7-.52 1.829-.268h1.707l1.837.39-.789 1.317-.918 1.309-1.179 1.17-1.178 1.049-2.741 1.7-2.878 1.178-2.885.919-2.748.658-2.357.253h-1.837l-.26.398v.642l.39.391.658.268h3.399l2.357.26.26-.528.521-.521.658-.252h.658l.651.252.528.521.26.658v.658l-.26.659-.528.504-.651.276h-.658l-.658-.138-.391-.39-.26-.521-.122-.52-2.228-.26h-2.617l-2.618.26-2.357.398-5.235 3.796.52.391.658.252 1.829.138 1.049-.138 1.049-.52 1.959-1.179 1.179-.26h1.439l1.959.528 2.358.911-.781.268-.781.39-1.967 1.316-2.227 1.432-1.309.528-1.179.252-.903-.138-.918-.382-.919-.78-.918-1.179-.521-.391-.788-.39-1.569-.406-1.96 1.064-.52.253h-.398l-.26-.13v-.261l.13-.788.658-.643 1.959-1.316.919-1.432.65-1.959.26-.926v-1.033l-.26-.926-.52-.781-.781.122-.658-.122-.658-.268-.521-.658-.26-.773.13-.797.391-.642.527-.658.774-.131h.918l.658.383.521.659.268.657v.781l-.268.658-.521.521.651 1.439.391 1.569-.123 1.569-.528 1.316 2.487-1.844.659-1.163.52-1.317.13-1.431v-1.569l-.26-2.228-.13-2.755.13-1.316.391-1.301.527-1.317.774-1.025 1.706-1.707.521-.659.39-.91.528 1.048.659 1.431 1.04 3.008v1.585l-.39 1.691-.788 1.569-.911 1.179-1.577 1.302-1.216 1.583-.782 1.569-.214 1.432 2.09-1.7 1.438-1.301 4.325-4.844.39-1.707v-1.7l-.13-1.844-.39-1.7-.26-2.479.13-2.365.781-2.212 1.048-2.105 1.301-1.691 1.707-1.455 1.829-1.041 1.837-.658-.658 1.447-.52 1.707v1.691zm-90.607 59.05-1.179.13h-1.576l-1.569-.391-1.302-.926-.13-.252.383-.253 1.707-.658 2.748-1.049 1.707-.788 1.568-1.049 2.618-1.163 1.569-.658 1.171-.268.788-.391.651-.78 1.447-2.227 1.041-2.496.26-1.163-.123-1.048-.658-.269-.52-.52-.391-.658-.13-.781.26-.781.529-.658.65-.382.781-.138.781.268.658.39.391.781.137.788-.138.781-.39.52-.658.521-.651.138-.13 2.089-.391 2.488-.91 2.357-.391.911-.658.528 3.138-.268 1.187-.643 1.04-.926.919-1.171.781-1.316.91-2.09 1.309-2.365.789-1.041 1.048-1.033 1.179-.659 1.171-.528 2.357-.65.781-.276.789-.52-.13 1.178-.131 1.569-.788 3.008-.773 1.447-1.179 1.171-1.577 1.056-1.308.391-1.96.39-1.836.658-1.44.91-1.048 1.18 2.617-.383 1.967-.391 6.154-1.974 1.179-1.179 1.048-1.439.774-1.568.528-1.7 1.048-2.235 1.439-1.952 1.7-1.569 1.966-1.186 2.098-.773 2.227-.39 2.089.13 1.837.512-1.308.789-1.18 1.171-1.048 1.446-.788 1.707-.39 1.049-.659 1.041-1.561 1.569-1.7 1.048-1.706.797-1.96.772-1.315.911 2.884-.382 3.927-.391 4.064-.138 1.7.138 1.308.391.512-.529.659-.267h.658l.781.137.521.521.398.781v.788l-.261.658-.528.659-.65.252-.789.138-.788-.268-.513-.528-.26-.521-.13-.78.13-.659h-.13l-2.885-.13h-3.009l-3.015.391-3.008.535-6.016 1.432-5.503 1.959 2.878-.13 4.186-.781 3.276-.253 1.699.116 1.837.275 1.7.383 1.568.78 1.577.926 1.439 1.164-1.439.796-1.577.658-1.439.391-1.569.252h-3.276l-3.138-.39-2.886-.788-2.61-.919-2.227-1.041-1.569-.911-.391.131-.398.512.138.651.521.528.788.52 1.959 1.317 1.049.643.918.796.513-.391.659-.137.65.137.658.391.391.52-.108.72.108.581-.261.658-.65.406-.658.253-.659-.138-.65-.391-.383-.382-.137-.658v-.528l.137-.505-1.707-1.317-2.227-1.446-2.357-1.172-2.228-.788h-1.829l-1.692.383-1.576.39-1.439.138-1.048.252-.919.406-2.09 1.179-2.097 1.569-1.699 1.439M179.403 279.544l-3.312-1.419 1.813 3.137-2.438 2.793 3.602-.804 1.896 3.277.36-3.796 3.664-.81-3.465-1.486.351-3.717zm61.518.064 3.312-1.416-1.812 3.13 2.44 2.796-3.604-.807-1.899 3.284-.357-3.801-3.661-.81 3.459-1.485-.346-3.719zM209.928 132.263a1.374 1.374 0 0 0-1.375 1.376 1.375 1.375 0 1 0 2.752.001 1.38 1.38 0 0 0-1.377-1.377m-57.835 26.68a1.378 1.378 0 0 0-.002 2.754 1.376 1.376 0 0 0 .002-2.754m-17.664 37.197a1.377 1.377 0 0 0 0 2.756 1.38 1.38 0 0 0 .974-2.353 1.38 1.38 0 0 0-.974-.403m2.135 35.057a1.373 1.373 0 0 0-1.37 1.378c0 .761.612 1.38 1.37 1.38a1.379 1.379 0 0 0 0-2.758m108.879-90.546a1.38 1.38 0 0 1 1.375 1.379 1.38 1.38 0 0 1-1.647 1.347 1.377 1.377 0 0 1 .272-2.726m-54.536 142.48-1.746-.469.266-.997q.698.155.993.168c.307.013.588-.054.822-.201.163-.1.303-.254.429-.458.076-.121.118-.219.138-.284l1.215.327-1.984 7.46-1.494-.401zm15.257-.078-.045 1.189q-.355.321-.997 1.155a10.5 10.5 0 0 0-1.081 1.733 9.7 9.7 0 0 0-.655 1.731c-.208.685-.316 1.247-.332 1.691l-1.57-.064q.149-2.075 1.534-4.259c.595-.902 1.085-1.529 1.479-1.879l-3.834-.16.076-1.363zm11.972.162v1.188q-.341.337-.945 1.196c-.391.558-.73 1.152-1.012 1.773-.218.482-.407 1.069-.584 1.758q-.265 1.041-.267 1.705h-1.57c.049-1.383.5-2.822 1.361-4.32q.837-1.388 1.392-1.934h-3.834l.022-1.367zm10.923-1.518q-.69-.482-1.757-.377c-.498.051-.904.208-1.237.471a2.64 2.64 0 0 0-.768.982q-.31.693-.347 1.684c-.011.374.014.852.07 1.442q.153 1.496.788 2.391c.53.761 1.284 1.095 2.257.993.896-.091 1.525-.433 1.898-1.024.375-.589.516-1.242.45-1.96-.071-.719-.351-1.289-.83-1.71-.489-.416-1.065-.593-1.743-.522-.289.023-.57.105-.826.24a1.8 1.8 0 0 0-.604.552q-.024-.896.098-1.367.225-.86.958-.934c.326-.034.587.06.771.284.108.142.171.274.18.397l1.499-.155q-.168-.906-.857-1.387m-68.225-13.555-1.046-1.158q.348-.414.391-.758c.056-.413-.126-.86-.564-1.337q-.388-.426-.721-.611-.644-.34-1.134.11a.68.68 0 0 0-.218.654q.08.39.45 1.041l.419.739c.418.728.645 1.28.705 1.657q.122.951-.718 1.731-.78.71-1.808.613-1.036-.095-2.028-1.194c-.56-.607-.869-1.278-.939-2.006q-.101-1.09.79-1.964l1.061 1.164c-.326.339-.44.717-.326 1.136.07.275.238.555.496.83q.42.47.863.577a.81.81 0 0 0 .781-.203.67.67 0 0 0 .211-.696c-.036-.183-.185-.505-.449-.976l-.668-1.218q-.439-.799-.488-1.377-.062-.89.711-1.597.791-.726 1.87-.598c.714.085 1.411.5 2.083 1.237.687.756 1.052 1.507 1.106 2.256q.073 1.12-.83 1.948M148.356 257.422l1.047-.874 2.428 2.931 1.545-1.284-2.764-3.346 1.081-.902 3.79 4.577-6.021 5.015-3.664-4.428 1.067-.891 2.646 3.197 1.275-1.067zm-2.498-12.322-5.135 6.538.982 1.568 8.105-1.822-.912-1.45-1.648.401-1.54-2.445 1.095-1.288zm-4.74-7.507 1.292-.555 2.163 5.085-7.191 3.083-.643-1.506 5.899-2.532zm-.779-48.178-.391 1.603-6.253-1.521-.553 2.293-1.349-.33 1.491-6.176 1.349.327-.553 2.279zm-1.887-8.873 1.204-2.821-2.744-1.173.639-1.497 7.19 3.08-.635 1.503-3.21-1.378-1.205 2.822 3.211 1.375-.634 1.495-7.196-3.085.642-1.495zm7.153-13.274 1.146.73-2.038 3.219 1.693 1.082 2.325-3.666 1.189.761-3.184 5.016-6.599-4.215 3.08-4.857 1.17.746-2.221 3.505 1.397.894zm13.108-11.517 1.137-1.073c.277.225.537.353.759.385q.62.077 1.329-.587c.279-.265.482-.512.596-.739q.332-.649-.127-1.132a.65.65 0 0 0-.653-.206c-.266.055-.602.21-1.031.466l-.732.435c-.715.424-1.264.667-1.638.723-.63.097-1.204-.131-1.731-.694a2.24 2.24 0 0 1-.64-1.801q.08-1.034 1.159-2.047.9-.854 1.986-.973 1.082-.123 1.968.759l-1.144 1.08c-.347-.324-.716-.427-1.137-.309-.279.082-.553.248-.827.512-.302.288-.497.581-.559.879a.82.82 0 0 0 .212.777.68.68 0 0 0 .7.204q.267-.064.964-.467l1.204-.69q.782-.453 1.367-.505c.59-.051 1.127.176 1.6.686q.738.78.619 1.862c-.066.721-.476 1.427-1.198 2.112-.74.7-1.486 1.084-2.228 1.144q-1.115.09-1.955-.801m13.121-7.463-1.378.903-3.53-5.4-1.966 1.292-.759-1.162 5.296-3.488.761 1.164-1.954 1.287zm11.105-5.805-5.819-5.936-1.674.783.779 8.298 1.547-.726-.19-1.691 2.613-1.223 1.133 1.247zm7.341-2.283-1.585.444-1.728-6.223-2.266.637-.37-1.342 6.1-1.709.374 1.343-2.255.626zm10.519-6.957.203 1.344-3.752.579.3 1.994 4.279-.657.214 1.394-5.86.895-1.18-7.758 5.676-.869.205 1.373-4.093.626.251 1.65zm20.97-2.907c-1.116-.036-1.974.243-2.591.832-.818.695-1.245 1.761-1.29 3.199-.049 1.408.316 2.5 1.085 3.275.569.629 1.409.96 2.53.997q1.68.055 2.591-.834 1.217-1.083 1.288-3.197.065-2.154-1.081-3.273-.85-.945-2.532-.999m-.044 1.387q.971.031 1.52.771c.369.495.531 1.18.502 2.061-.027.881-.239 1.56-.637 2.023q-.59.703-1.566.669c-.641-.02-1.152-.277-1.52-.768-.372-.49-.541-1.179-.515-2.062.033-.885.245-1.558.645-2.025.399-.466.928-.688 1.571-.669m14.705 2.396-.439 1.305-3.719-1.249-.569 1.711 3.252 1.096-.432 1.293-3.254-1.099-1.045 3.122-1.54-.519 2.488-7.429zm20.49 10.277-1.031 6.223 3.444-4.251 1.182.964-4.934 6.09-1.268-1.035 1.023-6.348-3.501 4.328-1.184-.967 4.936-6.092zm10.555 13.413-.959.963-2.689-2.694-1.421 1.424 3.058 3.075-.992.996-4.191-4.205 5.53-5.55 4.057 4.07-.977.983-2.927-2.936-1.177 1.178zm6.659 9.322 1.091-1.092-1.406.635-4.297 1.832-.863-1.254 5.167-6.295.988 1.432-3.093 3.41-.899.899 1.133-.51 4.208-1.846.981 1.424-3.155 3.323-.886.909 1.119-.486 4.315-1.723.948 1.37-7.687 2.649-.889-1.287zm10.047 20.096.802 2.957 2.879-.788.423 1.573-7.542 2.067-.428-1.573 3.371-.919-.811-2.962-3.367.922-.424-1.566 7.542-2.066.43 1.567zM281.687 196.405l.251 1.696 1.668.303.42 2.863-1.52.733.262 1.76 7.334-3.893-.27-1.835zm3.318 2.238 3.188.552-2.898 1.418zm-.427 12.201 6.152 1.412v2.358l-7.824.007v-1.528l5.292-.006q.236 0 .641.006.413.006.635.005l-6.568-1.479v-1.593l6.564-1.482q-.224.001-.635.005c-.275.006-.492.009-.642.009l-5.292.006v-1.529l7.823-.009v2.384zm-1.898 8.19-.212 1.618 2.792.371-.222 1.652q-.169 1.293.31 2.066c.313.515.931.832 1.843.955q1.26.17 1.95-.45c.466-.41.744-1.007.848-1.787l.449-3.388zm3.911 2.167 2.283.306-.201 1.516c-.054.384-.177.669-.379.861q-.298.282-.905.203-.594-.079-.84-.438-.23-.354-.16-.931zm-3.331 7.981-.472 1.496c-.358-.062-.638-.049-.851.036-.388.157-.68.544-.868 1.16-.114.37-.165.683-.163.939q.03.728.657.929a.68.68 0 0 0 .677-.144q.302-.265.671-.913l.424-.737c.42-.721.78-1.202 1.081-1.433q.75-.594 1.849-.247 1.002.316 1.437 1.257c.284.626.284 1.412-.009 2.356q-.375 1.184-1.264 1.825c-.59.422-1.284.526-2.088.3l.473-1.502q.681.17 1.143-.287.303-.306.475-.851c.123-.402.146-.752.056-1.04a.83.83 0 0 0-.568-.576q-.397-.128-.712.167-.201.187-.612.879l-.715 1.192q-.466.784-.938 1.109-.74.503-1.731.189c-.687-.213-1.169-.654-1.457-1.321q-.427-.996.021-2.43c.306-.975.764-1.672 1.39-2.092q.93-.626 2.094-.261M281.247 241.8l-1.274 2.79 2.707 1.25-.678 1.479-7.108-3.276.682-1.479 3.173 1.46 1.274-2.786-3.172-1.462.673-1.477 7.108 3.275-.674 1.479zm-2.921 11.367-6.673-4.102.847-1.39 6.676 4.101zm-2.515 4.447-6.145-4.861-.987 1.258 2.408 1.906-1.046 1.331c-.294.378-.571.585-.808.622q-.357.048-.948-.407l-.582-.442a3.6 3.6 0 0 0-.568-.364 7 7 0 0 0-.396-.178l-1.111 1.419.156.121a.64.64 0 0 1 .531.043c.12.058.315.196.6.416l.407.327q.653.513 1.1.583.458.072.963-.22-.237.649.026 1.205c.16.37.384.672.681.903a2.18 2.18 0 0 0 1.504.483 1.9 1.9 0 0 0 .894-.249c.279-.158.599-.447.938-.875zm-13.274 10.489-.948-.979 2.732-2.654-1.399-1.449-3.108 3.025-.979-1.017 4.256-4.134 5.445 5.64-4.122 4.004-.968-1 2.977-2.888-1.154-1.197zm-132.001-51.356c-.59.609-.875 1.474-.836 2.595q.046 1.683.982 2.546c.731.777 1.822 1.142 3.254 1.105 1.4-.04 2.472-.468 3.193-1.283q.892-.912.837-2.594c-.027-1.124-.36-1.969-.982-2.546q-1.146-1.159-3.256-1.1c-1.431.04-2.492.465-3.193 1.277m-.972-11.318 1.373.003-.005 3.936 1.795.001.011-3.442 1.356.003-.004 3.442 3.278.006-.005 1.633-7.808-.015z"/><path fill="#002a86" d="M226.97 285.611a1.06 1.06 0 0 1 .656-.303q.473-.05.839.276.36.323.433.996c.042.402-.029.741-.192 1.011a.93.93 0 0 1-.749.46 1.06 1.06 0 0 1-.884-.306q-.371-.358-.435-.977-.076-.769.332-1.157m-81.091-34.928-3.146.794 2.084-2.477zM177.406 141.8l-.384-3.227 2.191 2.383zm94.57 118.269c-.326.147-.671.071-1.043-.224q-.519-.41-.388-.931c.05-.198.18-.441.414-.73l1.141-1.462 1.654 1.307-1.176 1.498c-.222.279-.418.458-.602.542m-136.067-39.341c-.465.401-1.142.615-2.021.635-.877.027-1.564-.149-2.05-.523-.491-.375-.74-.883-.761-1.534-.014-.651.207-1.172.678-1.566.472-.398 1.145-.603 2.022-.627q1.326-.038 2.05.514c.493.369.738.879.76 1.527.016.65-.208 1.171-.678 1.574"/><path fill="#fff" stroke="#000" stroke-width=".244" d="M141.887 210.716h136.232c-.002-17.21-7.22-35.208-19.157-47.873-12.742-13.52-30.8-21.12-49.244-20.387-16.126.641-32.093 6.131-44.061 16.429-14.544 12.512-23.77 32.313-23.77 51.831Z"/><path fill="#946922" fill-rule="evenodd" d="m264.919 223.97 12.752-.18-4.55 13.291-4.311 7.303-42.745 4.371-63.099-.12-8.063 2.32-6.965-12.128-4.728-12.821-.838-5.628 43.344 1.916z" clip-rule="evenodd"/><path fill="#4f9eff" d="M223.468 242.897c-1.398.558-21.623 2.9-24.58 4.278-.963-.551-4.456 3.656-6.45 1.397-4.974.865-12.461 2.989-18.041 2.243-4.938-.663-13.156 2.075-17.815 1.569 12.163 15.243 32.546 25.886 53.56 26.336 24.481.524 51.067-14.488 60.484-36.797.068-.111-10.756-1.042-14.004-.915 0 0-31.763 1.33-33.154 1.889"/><path fill="#efae0e" fill-rule="evenodd" d="M201.975 210.807a8.16 8.16 0 0 1 8.259-8.073 8.167 8.167 0 0 1 8.073 8.259l-8.166-.093z" clip-rule="evenodd"/><path stroke="#000" stroke-linecap="round" stroke-linejoin="round" stroke-miterlimit="6.3" stroke-width=".41" d="m245.518 214.022-.74-17.144-.109 3.265-.107 3.204-.356 10.654z" clip-rule="evenodd"/><path fill="#2a1510" fill-rule="evenodd" d="m242.993 196.581-19.083 10.147Z" clip-rule="evenodd"/><path stroke="#000" stroke-linecap="round" stroke-linejoin="round" stroke-miterlimit="6.3" stroke-width=".468" d="m242.993 196.581-19.083 10.147"/><path fill="#efae0e" fill-rule="evenodd" d="m220.182 208.352 16.27-4.809c.486.536.947 1.242.636 2.45l-16.725 3.326zm-.994-2.014 2.667-1.862c.324.369.281.886.042 1.481l-2.286 1.44zm-1.778-2.116 12.996-11.853c.903.324 1.607.847 1.947 1.735l-14.181 11.091zm3.598-8.848-5.546 7.578 1.101.677 5.969-6.942c-.276-.67-.687-1.204-1.524-1.313m-.762-12.064-6.985 18.753 1.313.592 8.17-18.626c-.757-.506-1.521-.986-2.498-.719m-8.339 8.466-1.44 9.694 1.313.169 2.074-9.651c-.802-.528-1.364-.339-1.947-.212m-5.673-10.964 1.059 21.251 1.693-.381.381-21.082c-.991-.037-1.832-.372-3.133.212m-4.191 11.26 2.836 10.88 1.355-.762-2.624-10.456c-.7-.243-1.205-.096-1.567.338m-6.519-8.72 8.34 20.108-.635.635-9.991-19.346c.543-.831 1.413-1.117 2.286-1.397m-.592 11.26 7.408 10.329-.678.762-8.17-10.117c.407-.762.922-.875 1.44-.974m-9.822-1.862 16.256 13.588-.466.72-18.414-12.954c.684-.705 1.603-1.099 2.624-1.354m2.286 8.339c-.54.439-.828.929-.804 1.482l13.377 6.265.381-.847zm-8.297 2.667c-.368.801-.615 1.627-.423 2.54l20.827 4.318.297-.804z" clip-rule="evenodd"/><path fill="#4f9eff" d="M142.952 222.695c18.329 2.992 103.178 7.659 107.141 6.936 1.424-.258 3.479.247 4.519.39 2.394.323 4.396.065 6.913-.712 2.255-.699 11.323-2.045 14.62-2.145 1.48-5.507 2.338-10.694 2.338-16.665 0 0-138.543 0-136.448.06"/><path stroke="#000" stroke-width=".234" d="M142.952 222.695c18.329 2.992 103.178 7.659 107.141 6.936 1.424-.258 3.479.247 4.519.39 2.394.323 4.396.065 6.913-.712 2.255-.699 11.323-2.045 14.62-2.145 1.48-5.507 2.338-10.694 2.338-16.665 0 0-138.543 0-136.448.06"/><path stroke="#000" stroke-linecap="round" stroke-linejoin="round" stroke-miterlimit="6.3" stroke-width=".41" d="m225.198 217.726.14-2.244 2.116.064-.079-1.942-1.964.079.075-2.061 1.812.065-.055-1.352-1.708-.062.074-1.987 1.549-.064-.066-1.643-1.429.153.053-1.454 1.218.044-.085-2.074-1.058-.042.085-1.99.973.042-.084-2.285-.805-.043.043-1.587.698-.021-.096-1.666-.5-.004"/><path fill="#2a1510" fill-rule="evenodd" d="m190.086 188.648-27.06 17.181Z" clip-rule="evenodd"/><path stroke="#000" stroke-linecap="round" stroke-linejoin="round" stroke-miterlimit="6.3" stroke-width=".468" d="m190.086 188.648-27.06 17.181"/><path stroke="#000" stroke-linecap="round" stroke-linejoin="round" stroke-miterlimit="6.3" stroke-width=".41" d="m225.283 217.218 1.059-29.209 1.185 29.336zm4.445.804-3.344-29.886 5.672 29.505z" clip-rule="evenodd"/><path stroke="#000" stroke-linecap="round" stroke-linejoin="round" stroke-miterlimit="6.3" stroke-width=".41" d="m226.544 187.465 9.698 31.011-3.472-.06-.958-1.436z" clip-rule="evenodd"/><path stroke="#000" stroke-linecap="round" stroke-linejoin="round" stroke-miterlimit="6.3" stroke-width=".468" d="m237.051 217.895.085-4.149m2.117-.084-.127 4.36m-7.874-4.445 10.498.127M242.894 214l2.497-.127v-1.1l-2.455.042.127-1.482h2.286l-.043-1.333-2.074-.064.127-1.566 1.863-.72.127-1.735-1.27-.254"/><path stroke="#000" stroke-linecap="round" stroke-linejoin="round" stroke-miterlimit="6.3" stroke-width=".41" d="m192.672 189.395 3.275 25.283-1.503.084-.106-1.354-1.913-22.118-.373-1.292.931 24.934 3.133.508-.36-2.075-2.773-.211-.084-1.313 2.582.085-.19-1.799-2.456-.021-.063-1.694 2.286.043-.212-1.736-2.117.085-.084-1.672 1.905-.275-.17-1.44-1.799.085-.063-1.82 1.651-.043-.212-2.285h-1.545l-.063-2.117 1.291-.127-.233-1.545-1.143.127-.064-1.672.995.042-.212-1.905-.867.127-.424-2.349z" clip-rule="evenodd"/><path stroke="#000" stroke-linecap="round" stroke-linejoin="round" stroke-miterlimit="6.3" stroke-width=".468" d="M158.146 203.51c4.601 7.161 10.736 13.093 17.062 19.157"/><path fill="#2a1510" fill-rule="evenodd" d="m223.49 187.718-41.015 23.877Z" clip-rule="evenodd"/><path stroke="#000" stroke-linecap="round" stroke-linejoin="round" stroke-miterlimit="6.3" stroke-width=".468" d="m223.49 187.718-41.015 23.877"/><path stroke="#000" stroke-linecap="round" stroke-linejoin="round" stroke-miterlimit="6.3" stroke-width=".41" d="m192.479 181.344.839-12.392m38.314 46.53-2.074-.042-.296-1.863 1.989.042-.338-1.905h-1.778l-.212-1.439h1.651l-.36-2.37-1.502.042-.254-2.54h1.27l-.414-2.159-1.237-.106-.212-1.884 1.1.043-.253-1.524-.995-.021-.191-1.969.805-.042-.359-1.99-.742-.042-.169-1.397.662-.092"/><path fill="#2a1510" stroke="#000" stroke-linecap="round" stroke-linejoin="round" stroke-width=".238" d="M170.13 210.305c-.045.651.023 3.936-.128 4.478-.217-.078-6.774-7.513-7.27-8.175zm-4.894-3.354c-.454-.179-.902-.37-1.342-.582-.578-.279-1.115-.636-1.661-.973-1.306-.804-3.862-2.499-3.862-2.499l-.658.509s1.38.956 2.02 1.496c1.231 1.037 2.353 2.197 3.488 3.338a116 116 0 0 1 3.921 4.146c1.087 1.206 2.172 2.418 3.173 3.696.657.84 1.237 1.736 1.856 2.604 2.599 3.648 7.977 11.271 7.977 11.271s2.971.431 4.55.583c5.944.573 11.758.841 17.705 1.377 11.548 1.041 23.196 2.169 34.738 3.278 2.599.249 5.2.444 7.798.703 1.133.113 3.367.419 3.367.419s.258-1.074.329-1.511c.028-.169-.005-.351.06-.509a.83.83 0 0 1 .27-.344c.249-.187.633-.141.868-.345.182-.158.431-.398.359-.628-.035-.111-.207-.105-.314-.15-.255-.107-.641-.045-.779-.284-.172-.299-.09-.804.18-1.018.145-.115.369.039.554.03.201-.01.457.054.598-.09.209-.211.232-.608.12-.883-.043-.105-.23-.056-.333-.104-.227-.104-.512-.062-.67-.255-.117-.143-.128-.421 0-.554.097-.101.28-.019.419-.015.266.008.538.146.794.075a.57.57 0 0 0 .438-.528c.01-.225-.276-.404-.488-.449-.346-.072-.489-.313-.624-.639-.063-.153-.006-.334.03-.494.044-.195.171-.362.225-.554.067-.244.135-.496.119-.749-.01-.16-.155-.304-.134-.464.022-.173.147-.324.269-.448.177-.181.417-.291.644-.404.358-.18.767-.248 1.122-.434.299-.157.612-.319.838-.569.141-.156.183-.379.3-.554.127-.192.292-.357.434-.539.194-.251.449-.469.568-.763.087-.215.044-.462.09-.689.052-.253.146-.497.21-.748.06-.238.081-.487.164-.718.154-.426.379-.825.614-1.213.289-.477.675-.889.973-1.362.176-.279.392-.549.479-.868.048-.178-.004-.37.015-.553.017-.167.062-.329.089-.494.045-.265-.929-.148-1.14-.313-.323-.25.379-.755.38-1.164.002-.348-.25-.653-.317-.994-.068-.348-.207-.727-.085-1.059 1.613-4.385 4.444-13.111 4.444-13.111l-.803-.35-5.355 14.71s-.171.222-.296.233c-3.689.324-11.028.508-11.028.508l.021-1.567 2.075-15.557 1.883.022.212-2.371-2.201-.042.465-5.355-1.058-.191-.571-.211-.339.127.021.571.762.212.042.465-.275 4.191-1.27-.085-.106 2.371h.424l-1.884 17.102-.042 3.048-.542.845s-3.232-.088-4.849-.134c-4.239-.121-8.485-.128-12.727-.197l.483-4.523 3.2-24.897 2.179.026-.01-1.915-1.888.034.203-3.679.801.108-.01-1.235-1.605-.206 1.194-12.936-.798.067-1.047 12.792-1.002-.047-.078 1.111.851.115-.249 3.978-1.419-.078-.199 1.786 1.68.062-3.662 24.836-.741 4.561c-3.423-.076-6.843-.211-10.255-.497a132 132 0 0 1-14.532-2.021c-1.878-.371-4.249-.939-6.706-1.558l3.413-23.541 1.257.06v-2.215l-1.137-.059s.104-2.85.359-4.491c.033-.209.391-.225.479-.418.074-.164.099-.39 0-.539-.251-.381-.839-.359-1.257-.539-.46-.199-.897-.457-1.377-.599-.088-.026-.189-.084-.277-.083a.16.16 0 0 0-.083.023c-.206.136-.217.475-.179.719.046.301.51.475.479.778-.195 1.909-.3 4.969-.3 4.969l-.778.12-.12 2.334.779.06-3.336 22.879c-5.789-1.504-11.406-3.108-11.406-3.108l.089 1.901s-4.662-2.047-7.019-3.008a32 32 0 0 0-1.163-.446z"/><path fill="#fff" stroke="#000" stroke-width=".238" d="M200.225 248.056c2.958-1.378 6.88-2.521 10.699-2.054 3.809.467 5.856-.278 6.781-.931.936-.654 2.144-1.403 4.277-1.12 2.143.274 3.812-.094 5.213-.655 1.391-.559 3.144-.794 4.274-.559 4.094.838 22.383-.239 25.767-1.775-3.969.501-25.181.491-27.157-.255-1.975-.747-4.222-.396-6.825.723-2.601 1.121-4.406 1.273-5.67.675-.712-.326-1.77-.28-2.381.349-.614.633-.374 1.308-3.163 1.308-2.786 0-12.267.149-17.664 1.081 1.992 2.257 4.883 2.662 5.849 3.213Z"/><path fill="#949492" stroke="#000" stroke-width=".238" d="M157.744 254.663c2.478 1.982 27.376-.273 28.681-.925 1.297-.655 2.419-1.191 5.299-1.365 3.188-.188 5.711-.56 8.187-3.021 2.904-2.027-2.794-5.429-6.603-5.043-1.146.116-2.234.097-3.442-.277-.626-.194-7.378-1.343-15.023-1.144-7.172.186-15.237 1.672-16.598 2.862-.225.204-2.38.95-2.622 1.163-1.756 1.544-1.263 2.593.538 5.433.524.82.835 1.719 1.583 2.317Z"/><path fill="#000" fill-rule="evenodd" stroke="#000" stroke-linecap="round" stroke-linejoin="round" stroke-miterlimit="6.3" stroke-width=".234" d="m206.214 262.81.233 2.117.169 1.778-1.969.973.191-4.423zm7.874-.021-.233 2.116-.17 1.778 1.969.974-.191-4.424z" clip-rule="evenodd"/><path fill="#efae0e" fill-rule="evenodd" stroke="#000" stroke-linecap="round" stroke-linejoin="round" stroke-miterlimit="6.3" stroke-width=".234" d="m165.99 228.55.449 2.723 83.604 6.017 22.447 1.687.03-.838-19.21-1.888z" clip-rule="evenodd"/><path stroke="#000" stroke-width=".351" d="M175.046 168.297c-.033-.714.743-1.544 1.458-1.573.754-.031 1.601.778 1.671 1.53.066.705-.57 1.63-1.274 1.701-.825.082-1.815-.83-1.855-1.658Zm-5.953-7.277c-.034-.714.743-1.544 1.457-1.575.756-.032 1.607.775 1.677 1.527.067.708-.573 1.635-1.28 1.705-.825.082-1.815-.829-1.854-1.657Zm-7.448 24.261c-.324-.638.042-1.715.682-2.036.673-.339 1.777.047 2.149.703.351.618.147 1.727-.47 2.081-.716.411-1.987-.012-2.361-.748Zm-7.819-3.376c-.325-.638.042-1.715.682-2.037.673-.338 1.777.047 2.149.703.351.618.147 1.727-.47 2.081-.716.411-1.987-.011-2.361-.747Zm-7.366 22.732c-.324-.638.042-1.715.682-2.037.673-.338 1.777.048 2.149.703.351.619.147 1.728-.47 2.082-.716.41-1.987-.012-2.361-.748Zm9.652 23.029c-.325-.638.042-1.715.682-2.037.673-.338 1.777.047 2.149.703.351.618.147 1.727-.47 2.081-.716.411-1.987-.012-2.361-.747Zm-7.662 2.497c-.325-.638.042-1.715.682-2.036.673-.339 1.777.047 2.149.702.351.619.146 1.728-.471 2.082-.715.411-1.986-.012-2.36-.748Zm16.679 16.129c-.325-.638.042-1.715.682-2.037.673-.338 1.777.048 2.149.703.351.619.146 1.727-.471 2.081-.716.411-1.986-.011-2.36-.747Zm-6.265 4.953c-.325-.638.042-1.715.681-2.037.674-.338 1.777.047 2.149.703.352.618.147 1.727-.47 2.081-.716.411-1.986-.012-2.36-.747Zm20.107 7.958c-.324-.638.043-1.715.682-2.037.674-.338 1.777.048 2.149.703.351.619.147 1.728-.47 2.082-.716.41-1.987-.012-2.361-.748Zm-3.429 7.154c-.324-.638.043-1.715.682-2.037.674-.338 1.777.048 2.149.703.351.619.147 1.728-.47 2.082-.716.411-1.986-.012-2.361-.748Zm15.377-114.917c-.035-.712.737-1.543 1.45-1.574.755-.033 1.605.776 1.676 1.528.066.707-.573 1.633-1.279 1.702-.823.081-1.808-.83-1.847-1.656Z"/><path fill="#efae0e" d="M200.104 272.248c.673-1.86 1.808-7.554 1.37-10.03-.006.014-.016.03-.016.042 0-.019.006-.042.01-.064.139-.687.16-1.67.047-1.977a63 63 0 0 0-4.303-.117c1.408 6.733-1.301 10.512-.31 13.126 1.18 1.259 2.526.885 3.202-.98m6.08-2.061c-.321 1.36-1.336 2.42-2.585 3.102.691.948 1.191 1.417 1.764 1.089.532-.303 1.982-1.843 2.701-3.308-.757-.023-1.447-.289-1.88-.883"/><path stroke="#000" stroke-width=".234" d="M201.468 262.196c-.004.022-.01.045-.01.064 0-.012.01-.028.016-.042.438 2.476-.697 8.17-1.37 10.03-.676 1.865-2.022 2.239-3.202.98-.991-2.614 1.718-6.393.31-13.126 1.694-.022 3.26.059 4.303.117.113.307.092 1.29-.047 1.977Zm0 0v-.001m4.716 7.992c-.321 1.36-1.336 2.42-2.585 3.102.691.948 1.191 1.417 1.764 1.089.532-.303 1.982-1.843 2.701-3.308-.757-.023-1.447-.289-1.88-.883Z"/><path fill="#efae0e" stroke="#000" stroke-width=".234" d="M205.782 269.333c-1.597-2.828.585-4.05.458-6.078-.028-.457-.172-1.087-.273-1.346-.768-2.036-4.887-1.029-4.493.309.438 2.476-.697 8.17-1.365 10.031-.681 1.861-2.239 1.476-3.425.215-.288 3.434 4.01 4.629 6.871 3.061 1.249-.685 2.257-1.742 2.585-3.102.098-.405.17-.864.227-1.349.033-.236.056-.474.078-.722a11 11 0 0 1-.663-1.019ZM214.093 270.187c.321 1.359 1.336 2.42 2.585 3.102-.691.948-1.191 1.417-1.764 1.089-.532-.303-1.982-1.843-2.701-3.308.756-.023 1.447-.289 1.88-.883Z"/><path fill="#efae0e" stroke="#000" stroke-width=".234" d="M210.134 263.268c-1.216.034-3.173 1.078-3.713 1.707.063.836-1.115 1.564-1.137 2.471-.027 1.042 1.541 3.979 2.996 5.461.499.51 1.745 1.067 1.858 1.067s1.356-.558 1.858-1.067c1.415-1.437 2.934-4.309 2.932-5.293-.002-.95-1.137-1.809-1.074-2.639-.54-.629-2.497-1.673-3.713-1.707h-.007Z"/><path fill="#efae0e" d="M220.172 272.248c-.673-1.86-1.808-7.554-1.369-10.03.005.014.016.03.016.042 0-.019-.006-.042-.01-.064-.14-.687-.16-1.67-.048-1.977a63 63 0 0 1 4.304-.117c-1.408 6.733 1.3 10.512.309 13.126-1.18 1.259-2.526.885-3.202-.98"/><path stroke="#000" stroke-width=".234" d="M218.809 262.196c.004.022.01.045.01.064 0-.012-.011-.028-.016-.042-.439 2.476.696 8.17 1.369 10.03.676 1.865 2.022 2.239 3.202.98.991-2.614-1.717-6.393-.309-13.126a63 63 0 0 0-4.304.117c-.112.307-.092 1.29.048 1.977Zm0 0v-.001"/><path fill="#efae0e" stroke="#000" stroke-width=".234" d="M214.495 269.333c1.596-2.828-.586-4.05-.459-6.078.029-.457.173-1.087.273-1.346.768-2.036 4.888-1.029 4.494.309-.439 2.476.696 8.17 1.365 10.031.68 1.861 2.238 1.476 3.425.215.287 3.434-4.01 4.629-6.872 3.061-1.248-.685-2.256-1.742-2.584-3.102-.098-.405-.17-.864-.228-1.349a13 13 0 0 1-.077-.722c.256-.344.467-.683.663-1.019Z"/><path fill="#3f863f" stroke="#000" stroke-width=".234" d="M201.898 157.268c1.593-1.299 3.463-2.503 4.675-3.154-1.963-1.207-4.016-1.301-6.071-1.301 1.396-.743 2.803-2.874 2.895-4.546-2.428-.372-5.882 1.205-7.001 3.063-.708 1.158-3.219 3.763-4.864 5.211.446-1.074 1.179-2.424 1.179-3.592 0-.485-.487-.627-.63-.048-.592 2.342-3.218 4.396-5.593 5.206-3.285 1.121-6.671 2.729-9.993 4.796-.487-.392-.61-.847-.597-1.227.058-.931 1.322-1.322 2.803-1.389 2.442-.106 10.765-5.048 9.418-9.492-.957 1.941-3.298 2.52-6.499 2.807-4.028.372-7.423 3.994-6.576 8.029.207.987.301 1.546.28 2.027a51 51 0 0 0-3.714 2.684c.159-1.358.172-3.076-.145-4.039-.206-.648-.932-1.426-.688-.069.196 1.094-.337 3.924-1.326 5.928a50.1 50.1 0 0 0-9.567 11.433c-.46-.176-.715-.485-.831-.792-.337-.865.635-1.748 1.95-2.429 1.99-2.48 7.639-9.066 4.548-12.539-.052 2.155-1.933 3.659-4.711 5.254-3.501 2.016-5.055 6.719-2.587 10.026.508.677.816 1.115 1.008 1.503a51 51 0 0 0-1.866 3.62c-.419-1.145-.999-2.366-1.587-2.996-.46-.506-1.44-.92-.657.219.543.788 1.131 2.968 1.24 4.981-1.963 4.167-3.481 9.299-4.304 15.044-.509.013-.865-.182-1.103-.423-.637-.682-.062-1.861.906-2.982.759-2.843 3.285-10.638-.462-13.317.754 2.022-.429 4.114-2.418 6.619-2.491 3.164-2.181 8.103 1.357 10.261.773.473 1.227.778 1.56 1.084a61 61 0 0 0-.348 3.456c-.906-1.012-2.152-2.143-3.07-2.543-.62-.28-1.694-.265-.506.46.912.561 2.574 2.695 3.444 4.699a72.4 72.4 0 0 0 1.227 15.766c-.398.13-.756.058-1.04-.084-.8-.416-.806-1.605-.468-2.843.571-2.036-1.521-10.798-5.797-11.465 1.446 1.553 1.321 3.699.709 6.431-.767 3.435 1.498 7.65 5.284 8.557.678.161 1.142.284 1.496.421a47 47 0 0 0 1.19 4.574c-1.243-.543-2.816-1.051-3.808-1.044-.689.003-1.652.454-.277.632 1.015.133 3.221 1.276 4.83 2.646 1.393 3.872 3.439 8.237 6.21 12.594-.368.353-.763.448-1.103.429-.932-.072-1.789-1.389-1.844-2.858-.069-2.428-4.446-10.702-8.94-9.428 1.935.975 2.487 3.315 2.735 6.495.321 4.008 3.915 7.43 7.987 6.639.849-.163 1.382-.244 1.822-.251a61 61 0 0 0 2.751 3.82c-1.337-.095-2.95-.05-3.87.281-.647.227-1.401.971-.051.686 1-.211 3.46.134 5.438.895a55 55 0 0 0 8.925 8.444c-.239.3-.535.448-.809.505-.924.176-2.92-1.063-3.361-2.474-.717-2.319-6.807-5.53-10.802-3.126 2.127.435 3.652-.235 4.729 2.769 1.375 3.783 6.485 5.157 9.597 3.661.685-.326 1.145-.537 1.533-.666q1.952 1.4 4.029 2.603c-1.167.47-2.429 1.121-3.058 1.74-.49.478-.865 1.471.25.645.725-.542 2.703-1.168 4.625-1.392 4.355 2.3 9.271 4.058 14.797 5.045-.062.483-.321.785-.569 1.007-.708.617-2.216.43-3.309-.564-2.136-1.222-11.285-3.835-13.497.249 2.052-.698 4.551-.046 7.014 1.999 3.107 2.57 8.085 2.402 10.354-1.051.525-.798.901-1.17 1.276-1.408q1.482.23 2.973.376c.191-.868.435-1.692.533-2.355a50 50 0 0 1-3.164-.46c.315-.892.826-1.905.399-3.082-.747-2.173-4.191-5.241-7.579-5.271-2.657-.04-4.942-2.902-7.041-3.123.767 1.29 1.248 2.293 1.525 3.665.721 3.614 4.739 5.825 9.613 5.428 1.24-.1 2.143 1.161 2.333 2.246-5.005-.956-10.08-2.693-14.885-5.145-1.237-1.446-1.657-2.792-1.828-3.61-.277-1.25-.875-1.446-.652.107.108.779.32 1.686.61 2.492a56 56 0 0 1-3.392-2.058c.657-.785 1.81-1.514 1.93-2.945.228-2.285-1.628-6.494-4.698-7.919-2.398-1.129-3.289-4.679-5.107-5.742.16 1.491.18 2.6-.14 3.964-.855 3.583 1.886 7.254 6.482 8.899 1.331.477 1.522 2.372 1.038 3.409-3.319-2.224-6.407-4.808-9.136-7.732-1.041-2.442-.819-4.302-.595-5.3.276-1.248-.182-1.676-.632-.176-.321 1.061-.555 2.42-.529 3.5a46 46 0 0 1-2.889-3.869c.678-.904 2.517-1.122 3.133-2.786.826-2.148.152-6.692-2.434-8.874-2.026-1.721-1.935-5.371-3.405-6.876-.247 1.481-.519 2.557-1.187 3.787-1.772 3.237-.104 7.493 3.9 10.284 1.38.96.679 3.437-.362 3.93-2.507-3.848-4.468-8.033-5.925-12.363-.162-2.64.667-4.328 1.212-5.192.678-1.086.388-1.64-.545-.377a13.2 13.2 0 0 0-1.544 2.758 72 72 0 0 1-1.039-4.137c.885-.226 2.281.106 3.174-.874 1.331-1.418 2.053-5.42.45-8.268-1.25-2.243-.127-5.197-.963-7.038-.637 1.113-.64 1.942-1.577 2.674-2.107 2.219-1.889 5.379-.133 9.969.81 1.191-.11 2.687-1.06 3.016-1.558-7.556-1.766-15.197-.859-21.924 1.087-.049 2.496.837 3.977.081 2.067-1.027 4.673-4.821 4.255-8.167-.31-2.627 2.239-5.258 2.178-7.353-1.183.925-2.123 1.534-3.454 1.987-3.506 1.188-5.18 5.447-4.139 10.193.337 1.531-1.593 2.814-2.735 2.687a62.6 62.6 0 0 1 3.662-13.823c2.011-2.231 4.009-2.797 5.092-2.981 1.271-.226 1.488-.809-.078-.654-1.303.129-2.955.531-3.944 1.102a56 56 0 0 1 2.258-4.519c1.104.234 2.097 1.771 3.859 1.601 2.305-.186 6.143-2.751 7.008-6.01.691-2.553 4.039-4.054 4.772-6.023-1.45.421-2.538.642-3.946.573-3.701-.192-6.848 3.144-7.657 7.934-.275 1.645-2.821 2.088-3.722 1.37 2.475-4.316 5.521-8.23 9.126-11.376 2.672-1.132 4.676-.832 5.716-.566 1.25.315 1.695-.129.196-.627-1.119-.371-2.591-.665-3.701-.638a59 59 0 0 1 4.018-2.892c.913.673 1.164 2.484 2.834 3.066 2.167.789 6.73.058 8.893-2.541 1.712-2.029 5.382-1.995 6.878-3.479-1.495-.218-2.585-.476-3.825-1.124-3.278-1.715-7.544 0-10.296 4.014-.94 1.365-3.404.727-3.942-.277 4.374-2.79 9.263-4.984 14.324-6.223 3.45-.845 9.091.509 10.634-.754Z"/><path fill="#d4212f" d="M175.046 168.297c-.033-.714.743-1.544 1.458-1.573.754-.031 1.601.778 1.671 1.53.066.705-.57 1.63-1.274 1.701-.825.082-1.815-.83-1.855-1.658m-5.953-7.277c-.034-.714.743-1.544 1.457-1.575.756-.032 1.607.775 1.677 1.527.067.708-.573 1.635-1.28 1.705-.825.082-1.815-.829-1.854-1.657m-7.448 24.261c-.324-.638.042-1.715.682-2.036.673-.339 1.777.047 2.149.703.351.618.147 1.727-.47 2.081-.716.411-1.987-.012-2.361-.748m-7.819-3.376c-.325-.638.042-1.715.682-2.037.673-.338 1.777.047 2.149.703.351.618.147 1.727-.47 2.081-.716.411-1.987-.011-2.361-.747m-7.366 22.732c-.324-.638.042-1.715.682-2.037.673-.338 1.777.048 2.149.703.351.619.147 1.728-.47 2.082-.716.41-1.987-.012-2.361-.748m9.652 23.029c-.325-.638.042-1.715.682-2.037.673-.338 1.777.047 2.149.703.351.618.147 1.727-.47 2.081-.716.411-1.987-.012-2.361-.747m-7.662 2.497c-.325-.638.042-1.715.682-2.036.673-.339 1.777.047 2.149.702.351.619.146 1.728-.471 2.082-.715.411-1.986-.012-2.36-.748m16.679 16.129c-.325-.638.042-1.715.682-2.037.673-.338 1.777.048 2.149.703.351.619.146 1.727-.471 2.081-.716.411-1.986-.011-2.36-.747m-6.265 4.953c-.325-.638.042-1.715.681-2.037.674-.338 1.777.047 2.149.703.352.618.147 1.727-.47 2.081-.716.411-1.986-.012-2.36-.747m20.107 7.958c-.324-.638.043-1.715.682-2.037.674-.338 1.777.048 2.149.703.351.619.147 1.728-.47 2.082-.716.41-1.987-.012-2.361-.748m-3.429 7.154c-.324-.638.043-1.715.682-2.037.674-.338 1.777.048 2.149.703.351.619.147 1.728-.47 2.082-.716.411-1.986-.012-2.361-.748m15.377-114.917c-.035-.712.737-1.543 1.45-1.574.755-.033 1.605.776 1.676 1.528.066.707-.573 1.633-1.279 1.702-.823.081-1.808-.83-1.847-1.656"/><path stroke="#000" stroke-width=".351" d="M245.23 168.297c.033-.714-.743-1.544-1.457-1.573-.755-.031-1.601.778-1.672 1.53-.065.705.57 1.63 1.275 1.701.825.082 1.815-.83 1.854-1.658Zm5.953-7.277c.034-.714-.742-1.544-1.457-1.575-.755-.032-1.606.775-1.677 1.527-.067.708.573 1.635 1.28 1.705.825.082 1.815-.829 1.854-1.657Zm7.448 24.261c.325-.638-.042-1.715-.682-2.036-.673-.339-1.777.047-2.149.703-.351.618-.146 1.727.471 2.081.715.411 1.986-.012 2.36-.748Zm7.819-3.376c.325-.638-.042-1.715-.682-2.037-.673-.338-1.776.047-2.149.703-.351.618-.146 1.727.471 2.081.716.411 1.986-.011 2.36-.747Zm7.366 22.732c.325-.638-.042-1.715-.682-2.037-.673-.338-1.777.048-2.149.703-.351.619-.146 1.728.471 2.082.715.41 1.986-.012 2.36-.748Zm-9.652 23.029c.325-.638-.042-1.715-.682-2.037-.673-.338-1.776.047-2.148.703-.352.618-.147 1.727.47 2.081.716.411 1.986-.012 2.36-.747Zm7.663 2.497c.324-.638-.043-1.715-.682-2.036-.674-.339-1.777.047-2.149.702-.351.619-.147 1.728.47 2.082.716.411 1.986-.012 2.361-.748Zm-16.679 16.129c.324-.638-.043-1.715-.682-2.037-.674-.338-1.777.048-2.149.703-.351.619-.147 1.727.47 2.081.716.411 1.987-.011 2.361-.747Zm6.265 4.953c.324-.638-.042-1.715-.682-2.037-.673-.338-1.777.047-2.149.703-.351.618-.147 1.727.47 2.081.716.411 1.987-.012 2.361-.747Zm-20.108 7.958c.325-.638-.042-1.715-.682-2.037-.673-.338-1.777.048-2.149.703-.351.619-.146 1.728.47 2.082.716.41 1.987-.012 2.361-.748Zm3.429 7.154c.325-.638-.042-1.715-.682-2.037-.673-.338-1.777.048-2.149.703-.351.619-.147 1.728.47 2.082.716.411 1.987-.012 2.361-.748ZM229.358 151.44c.034-.712-.737-1.543-1.45-1.574-.756-.033-1.606.776-1.676 1.528-.066.707.573 1.633 1.279 1.702.822.081 1.807-.83 1.847-1.656Z"/><path fill="#3f863f" stroke="#000" stroke-width=".234" d="M218.377 157.268c-1.593-1.299-3.463-2.503-4.675-3.154 1.963-1.207 4.016-1.301 6.071-1.301-1.396-.743-2.803-2.874-2.895-4.546 2.428-.372 5.882 1.205 7.001 3.063.708 1.158 3.219 3.763 4.864 5.211-.446-1.074-1.179-2.424-1.179-3.592 0-.485.487-.627.63-.048.592 2.342 3.218 4.396 5.592 5.206 3.286 1.121 6.672 2.729 9.994 4.796.487-.392.61-.847.597-1.227-.058-.931-1.322-1.322-2.803-1.389-2.442-.106-10.765-5.048-9.418-9.492.957 1.941 3.298 2.52 6.499 2.807 4.028.372 7.422 3.994 6.576 8.029-.207.987-.301 1.546-.28 2.027a51 51 0 0 1 3.714 2.684c-.159-1.358-.172-3.076.145-4.039.206-.648.932-1.426.688-.069-.196 1.094.337 3.924 1.326 5.928a50.1 50.1 0 0 1 9.567 11.433c.46-.176.714-.485.831-.792.337-.865-.635-1.748-1.95-2.429-1.99-2.48-7.639-9.066-4.548-12.539.052 2.155 1.933 3.659 4.711 5.254 3.501 2.016 5.055 6.719 2.587 10.026-.508.677-.816 1.115-1.008 1.503a51 51 0 0 1 1.866 3.62c.419-1.145.999-2.366 1.587-2.996.461-.506 1.44-.92.657.219-.543.788-1.131 2.968-1.241 4.981 1.964 4.167 3.482 9.299 4.305 15.044.509.013.865-.182 1.103-.423.637-.682.062-1.861-.906-2.982-.759-2.843-3.285-10.638.462-13.317-.754 2.022.428 4.114 2.418 6.619 2.491 3.164 2.181 8.103-1.357 10.261-.773.473-1.227.778-1.56 1.084q.224 1.723.348 3.456c.906-1.012 2.152-2.143 3.07-2.543.62-.28 1.694-.265.506.46-.912.561-2.574 2.695-3.444 4.699a72.3 72.3 0 0 1-1.228 15.766c.399.13.757.058 1.041-.084.8-.416.806-1.605.468-2.843-.571-2.036 1.521-10.798 5.797-11.465-1.446 1.553-1.321 3.699-.709 6.431.767 3.435-1.498 7.65-5.284 8.557-.679.161-1.142.284-1.496.421a47 47 0 0 1-1.19 4.574c1.243-.543 2.816-1.051 3.808-1.044.689.003 1.652.454.277.632-1.015.133-3.221 1.276-4.83 2.646-1.393 3.872-3.439 8.237-6.21 12.594.368.353.763.448 1.103.429.932-.072 1.789-1.389 1.844-2.858.069-2.428 4.446-10.702 8.94-9.428-1.935.975-2.487 3.315-2.735 6.495-.321 4.008-3.915 7.43-7.987 6.639-.849-.163-1.382-.244-1.822-.251a61 61 0 0 1-2.751 3.82c1.337-.095 2.95-.05 3.87.281.647.227 1.401.971.051.686-.999-.211-3.46.134-5.439.895a55 55 0 0 1-8.923 8.444c.238.3.534.448.808.505.924.176 2.92-1.063 3.36-2.474.718-2.319 6.808-5.53 10.803-3.126-2.127.435-3.652-.235-4.729 2.769-1.375 3.783-6.485 5.157-9.597 3.661-.685-.326-1.145-.537-1.534-.666a49 49 0 0 1-4.028 2.603c1.167.47 2.429 1.121 3.058 1.74.489.478.865 1.471-.25.645-.725-.542-2.703-1.168-4.625-1.392-4.355 2.3-9.271 4.058-14.797 5.045.062.483.321.785.569 1.007.708.617 2.216.43 3.309-.564 2.136-1.222 11.285-3.835 13.497.249-2.052-.698-4.551-.046-7.014 1.999-3.107 2.57-8.085 2.402-10.354-1.051-.525-.798-.901-1.17-1.276-1.408a54 54 0 0 1-2.973.376c-.191-.868-.435-1.692-.533-2.355a50 50 0 0 0 3.164-.46c-.315-.892-.826-1.905-.398-3.082.746-2.173 4.19-5.241 7.578-5.271 2.657-.04 4.942-2.902 7.041-3.123-.767 1.29-1.248 2.293-1.525 3.665-.721 3.614-4.739 5.825-9.613 5.428-1.24-.1-2.143 1.161-2.333 2.246 5.005-.956 10.08-2.693 14.885-5.145 1.237-1.446 1.657-2.792 1.828-3.61.277-1.25.875-1.446.652.107-.108.779-.32 1.686-.61 2.492a56 56 0 0 0 3.392-2.058c-.657-.785-1.81-1.514-1.929-2.945-.229-2.285 1.627-6.494 4.697-7.919 2.398-1.129 3.289-4.679 5.107-5.742-.16 1.491-.18 2.6.14 3.964.855 3.583-1.886 7.254-6.482 8.899-1.331.477-1.522 2.372-1.038 3.409 3.319-2.224 6.407-4.808 9.136-7.732 1.041-2.442.819-4.302.595-5.3-.276-1.248.182-1.676.632-.176.321 1.061.555 2.42.529 3.5a46 46 0 0 0 2.889-3.869c-.678-.904-2.517-1.122-3.133-2.786-.826-2.148-.152-6.692 2.434-8.874 2.026-1.721 1.935-5.371 3.405-6.876.247 1.481.519 2.557 1.187 3.787 1.772 3.237.104 7.493-3.9 10.284-1.38.96-.679 3.437.362 3.93 2.507-3.848 4.468-8.033 5.925-12.363.162-2.64-.667-4.328-1.212-5.192-.678-1.086-.388-1.64.545-.377a13.2 13.2 0 0 1 1.544 2.758 71 71 0 0 0 1.039-4.137c-.885-.226-2.281.106-3.174-.874-1.331-1.418-2.053-5.42-.45-8.268 1.25-2.243.127-5.197.963-7.038.636 1.113.64 1.942 1.577 2.674 2.107 2.219 1.889 5.379.133 9.969-.81 1.191.11 2.687 1.06 3.016 1.558-7.556 1.766-15.197.859-21.924-1.087-.049-2.496.837-3.976.081-2.068-1.027-4.673-4.821-4.256-8.167.31-2.627-2.238-5.258-2.178-7.353 1.183.925 2.123 1.534 3.454 1.987 3.506 1.188 5.18 5.447 4.139 10.193-.337 1.531 1.593 2.814 2.735 2.687a62.6 62.6 0 0 0-3.662-13.823c-2.011-2.231-4.009-2.797-5.092-2.981-1.271-.226-1.488-.809.078-.654 1.303.129 2.955.531 3.944 1.102a56 56 0 0 0-2.258-4.519c-1.104.234-2.097 1.771-3.859 1.601-2.305-.186-6.143-2.751-7.008-6.01-.691-2.553-4.039-4.054-4.772-6.023 1.45.421 2.538.642 3.946.573 3.701-.192 6.848 3.144 7.656 7.934.276 1.645 2.822 2.088 3.723 1.37-2.475-4.316-5.521-8.23-9.126-11.376-2.672-1.132-4.676-.832-5.716-.566-1.25.315-1.695-.129-.196-.627 1.119-.371 2.591-.665 3.701-.638a59 59 0 0 0-4.019-2.892c-.912.673-1.163 2.484-2.833 3.066-2.167.789-6.73.058-8.893-2.541-1.712-2.029-5.382-1.995-6.878-3.479 1.494-.218 2.585-.476 3.825-1.124 3.278-1.715 7.544 0 10.296 4.014.94 1.365 3.404.727 3.942-.277-4.374-2.79-9.263-4.984-14.324-6.223-3.45-.845-9.091.509-10.634-.754Z"/><path fill="#d4212f" d="M245.23 168.297c.033-.714-.743-1.544-1.457-1.573-.755-.031-1.601.778-1.672 1.53-.065.705.57 1.63 1.275 1.701.825.082 1.815-.83 1.854-1.658m5.953-7.277c.034-.714-.742-1.544-1.457-1.575-.755-.032-1.606.775-1.677 1.527-.067.708.573 1.635 1.28 1.705.825.082 1.815-.829 1.854-1.657m7.448 24.261c.325-.638-.042-1.715-.682-2.036-.673-.339-1.777.047-2.149.703-.351.618-.146 1.727.471 2.081.715.411 1.986-.012 2.36-.748m7.819-3.376c.325-.638-.042-1.715-.682-2.037-.673-.338-1.776.047-2.149.703-.351.618-.146 1.727.471 2.081.716.411 1.986-.011 2.36-.747m7.366 22.732c.325-.638-.042-1.715-.682-2.037-.673-.338-1.777.048-2.149.703-.351.619-.146 1.728.471 2.082.715.41 1.986-.012 2.36-.748m-9.652 23.029c.325-.638-.042-1.715-.682-2.037-.673-.338-1.776.047-2.148.703-.352.618-.147 1.727.47 2.081.716.411 1.986-.012 2.36-.747m7.663 2.497c.324-.638-.043-1.715-.682-2.036-.674-.339-1.777.047-2.149.702-.351.619-.147 1.728.47 2.082.716.411 1.986-.012 2.361-.748m-16.679 16.129c.324-.638-.043-1.715-.682-2.037-.674-.338-1.777.048-2.149.703-.351.619-.147 1.727.47 2.081.716.411 1.987-.011 2.361-.747m6.265 4.953c.324-.638-.042-1.715-.682-2.037-.673-.338-1.777.047-2.149.703-.351.618-.147 1.727.47 2.081.716.411 1.987-.012 2.361-.747m-20.108 7.958c.325-.638-.042-1.715-.682-2.037-.673-.338-1.777.048-2.149.703-.351.619-.146 1.728.47 2.082.716.41 1.987-.012 2.361-.748m3.429 7.154c.325-.638-.042-1.715-.682-2.037-.673-.338-1.777.048-2.149.703-.351.619-.147 1.728.47 2.082.716.411 1.987-.012 2.361-.748M229.358 151.44c.034-.712-.737-1.543-1.45-1.574-.756-.033-1.606.776-1.676 1.528-.066.707.573 1.633 1.279 1.702.822.081 1.807-.83 1.847-1.656"/><path fill="#d4212f" fill-rule="evenodd" stroke="#000" stroke-miterlimit="6.3" stroke-width=".234" d="M226.754 168.203s-.689.234-1.047.27a7.3 7.3 0 0 1-2.335-.12c-.864-.195-1.631-.692-2.455-1.018-1.844-.729-3.688-1.461-5.567-2.095-1.915-.646-3.805-1.463-5.807-1.736-1.009-.138-2.046-.085-3.054.06a7.6 7.6 0 0 0-1.975.539c-.518.226-1.114.434-1.437.898-.28.401-.342.949-.299 1.436.035.402.208.8.449 1.123.201.27.5.461.793.628.228.131.585.068.733.285a.33.33 0 0 1 0 .344c-.083.13-.273.145-.419.195-.348.118-.721.149-1.077.239-1.268.322-2.585.529-3.772 1.078-.522.241-1.069.515-1.437.958-.194.233-.289.542-.359.838-.078.33.016.686-.06 1.017-.082.358-.188.733-.419 1.018-.289.357-.739.55-1.137.778-.354.204-.716.41-1.108.524-.304.089-.675-.032-.943.12-.248.141.487.106.734.135.436.049.878.028 1.317.06.4.029.8.175 1.197.119.426-.06.867-.204 1.197-.479.345-.287.571-.714.719-1.137.119-.341-.029-.748.12-1.078.122-.27.346-.502.598-.658 1.005-.621 2.28-.621 3.413-.958.762-.227 1.605-.29 2.274-.719.25-.16.452-.401.599-.658.166-.29.28-.624.299-.958a2 2 0 0 0-.179-.958c-.159-.332-.522-.527-.719-.838-.104-.166-.314-.357-.239-.539.214-.52 1.017-.52 1.571-.613.867-.146 1.763-.01 2.635.104 1.13.148 2.249.409 3.337.749 1.069.333 2.104.774 3.113 1.257.887.424 1.768.875 2.574 1.437.604.421 1.077 1.01 1.677 1.437.583.414 1.183.835 1.856 1.077.799.288 1.667.349 2.514.419.557.046 1.676 0 1.676 0h.075z" clip-rule="evenodd"/><path fill="#fff" fill-rule="evenodd" d="m218.239 166.303-1.347 2.574.972.524 1.183-2.754zm1.137.494-1.242 2.798 1.062.689 1.093-3.188zM220.753 167.335l-1.153 3.218.958.853 1.063-3.711zm-8.322-.464s.137-.124.15-.209a.56.56 0 0 0-.135-.419c-.26-.321-.695-.457-1.077-.614a8.6 8.6 0 0 0-2.036-.539 7.7 7.7 0 0 0-1.766-.045 6 6 0 0 0-1.197.255c-.33.101-.682.183-.958.389-.173.13-.33.306-.404.509a.96.96 0 0 0-.015.509c.035.177.14.334.224.494.167.314.438.576.554.913.097.28.18.596.105.883-.084.317-.348.565-.584.793a2.7 2.7 0 0 1-.703.479c-.696.33-1.476.442-2.215.658-.638.187-1.296.315-1.916.554-.518.2-1.095.35-1.497.733-.165.158-.239.39-.329.599-.116.27-.269.838-.269.838s-.073.647-.24.913c-.143.228-.37.409-.614.524-.256.121-.559.095-.838.15-.52.101-1.052.166-1.556.329-.094.03-.359.12-.27.12.09 0 1.107.118 1.662.149.398.023.805.107 1.197.03.294-.057.594-.166.823-.359.347-.292.589-.713.749-1.137.154-.41-.013-.908.179-1.302.097-.2.275-.363.464-.479.881-.543 1.979-.61 2.963-.928.931-.301 1.928-.455 2.784-.928.193-.107.381-.24.509-.419.223-.312.354-.698.404-1.078.028-.208.009-.43-.06-.629-.087-.252-.264-.467-.434-.673-.127-.155-.318-.255-.434-.419-.111-.157-.26-.333-.239-.524.021-.198.188-.375.359-.479.454-.274 1.041-.233 1.572-.254.91-.036 1.822.093 2.724.224.771.112 2.289.479 2.289.479z" clip-rule="evenodd"/><path fill="#002a86" fill-rule="evenodd" d="m222.189 168.158-.539 3.937s.809.508.928.523c.12.015 1.991.12 1.991.12l1.931.015.194-4.535-1.033.27s-1.556 0-1.646-.015-1.332-.3-1.332-.3l-.464-.194z" clip-rule="evenodd"/><path fill="#fff" fill-rule="evenodd" d="m216.921 165.928-1.198 2.305.868.449 1.138-2.529zm-2.619-.957-1.138 2.275.958.404 1.018-2.365zm1.242.434-1.138 2.304.958.42 1.033-2.44-.853-.329z" clip-rule="evenodd"/><path fill="#fff" d="M225.767 169.386a.135.135 0 1 0 0-.27.135.135 0 0 0 0 .27M224.704 169.326a.135.135 0 1 0 0-.27.135.135 0 0 0 0 .27M223.836 169.251a.135.135 0 1 0 0-.27.135.135 0 0 0 0 .27M222.838 168.949c.074 0 .135-.06.135-.134a.135.135 0 0 0-.27 0c0 .074.061.134.135.134M222.731 169.654a.135.135 0 0 0 0-.27.135.135 0 0 0 0 .27M223.701 169.985a.135.135 0 1 0 0-.27.135.135 0 0 0 0 .27M224.57 170.064a.135.135 0 0 0 0-.27.135.135 0 0 0 0 .27M225.602 170.149a.135.135 0 1 0 0-.27.135.135 0 0 0 0 .27M225.483 170.838a.135.135 0 0 0 0-.27.135.135 0 0 0 0 .27M224.482 170.872a.135.135 0 0 0 0-.27.135.135 0 0 0 0 .27M223.596 170.763a.135.135 0 1 0 0-.27.135.135 0 0 0 0 .27M222.609 170.404a.135.135 0 0 0 0-.27.135.135 0 0 0 0 .27M222.47 171.167a.135.135 0 1 0 0-.27.135.135 0 0 0 0 .27M223.466 171.471a.135.135 0 1 0 0-.27.135.135 0 0 0 0 .27M224.377 171.547a.134.134 0 1 0 0-.269.135.135 0 0 0-.135.134c0 .075.061.135.135.135M225.348 171.601a.135.135 0 1 0 0-.27.135.135 0 0 0 0 .27M225.258 172.409a.135.135 0 1 0 0-.27.135.135 0 0 0 0 .27M224.165 172.319a.134.134 0 1 0 0-.269.135.135 0 0 0-.135.134c0 .075.061.135.135.135M223.293 172.189a.135.135 0 1 0 0-.27.135.135 0 0 0 0 .27M222.294 171.915a.134.134 0 1 0 0-.269.135.135 0 0 0-.135.134c0 .075.061.135.135.135"/><path stroke="#000" stroke-miterlimit="6.3" stroke-width=".234" d="M226.739 168.158s-.675.271-1.032.315a6.9 6.9 0 0 1-2.335-.12c-.864-.195-1.631-.692-2.455-1.018-1.844-.729-3.688-1.461-5.567-2.095-1.915-.646-3.805-1.463-5.807-1.736-1.009-.138-2.046-.085-3.054.06a7.6 7.6 0 0 0-1.975.539c-.518.226-1.114.434-1.437.898-.28.401-.359.951-.299 1.436.057.468.302.919.613 1.272.213.241.526.373.809.524.177.095.443.072.553.24a.34.34 0 0 1 0 .344c-.083.13-.273.145-.419.195-.348.118-.721.149-1.077.239-1.268.322-2.585.529-3.772 1.078-.522.241-1.069.515-1.437.958-.194.233-.289.542-.359.838-.078.33.016.686-.06 1.017-.082.358-.188.733-.419 1.018-.289.357-.739.55-1.137.778-.354.204-.716.41-1.108.524-.304.089-.675-.032-.943.12-.248.141.487.106.734.135.436.049.878.028 1.317.06.4.029.8.175 1.197.119.426-.06.867-.204 1.197-.479.345-.287.571-.714.719-1.137.119-.341-.029-.748.12-1.078.122-.27.346-.502.598-.658 1.005-.621 2.28-.621 3.413-.958.762-.227 1.605-.29 2.274-.719.25-.16.452-.401.599-.658.166-.29.28-.624.299-.958a2 2 0 0 0-.179-.958c-.159-.332-.522-.527-.719-.838-.104-.166-.314-.357-.239-.539.214-.52 1.017-.52 1.571-.613.867-.146 1.763-.01 2.635.104 1.13.148 2.249.409 3.337.749 1.069.333 2.104.774 3.113 1.257.887.424 1.768.875 2.574 1.437.604.421 1.077 1.01 1.677 1.437.583.414 1.183.835 1.856 1.077.799.288 1.667.349 2.514.419.557.046 1.676 0 1.676 0l.12.03z" clip-rule="evenodd"/><path fill="#fefdfe" fill-rule="evenodd" d="M258.98 200.348s-2.137-.373-3.217-.402c-1.308-.035-2.639-.011-3.916.275-.532.12-1.042.337-1.524.593-.273.145-.479.404-.762.529-.291.129-.623.132-.931.212-.391.101-.801.16-1.164.338-.258.127-.44.381-.698.508-.443.219-.945.285-1.419.424-.443.129-.877.307-1.333.381-.174.028-.529.021-.529.021s-1.044.91-1.101 2.328c-.047 1.174-.73 2.198-.592 3.387.831.249 1.64-.159 2.412-.424.514-.176.935-.562 1.44-.762.646-.255 1.373-.273 2.011-.55.555-.241.973-.754 1.545-.952.744-.259 1.561-.265 2.349-.275 1.19-.017 2.38.135 3.556.317.514.08 1.524.339 1.524.339z" clip-rule="evenodd"/><path fill="#d4212f" fill-rule="evenodd" d="M254.601 199.754c-.887-.009-1.798.03-2.681.24-.49.116-.96.31-1.394.552-.394.22-.627.547-.894.669-.561.258-1.309.192-2.036.459-.606.222-1.092.605-1.601.831-.311.137-.599.304-.912.402a8 8 0 0 1-1.373.319l-.224.001c-.145.132-.237.248-.336.366l.453-.005c.467-.023 1.064-.144 1.575-.283.35-.096.684-.229 1.006-.372.582-.257 1.06-.632 1.573-.82.591-.216 1.357-.144 2.071-.473.42-.193.66-.536.926-.685a5 5 0 0 1 1.274-.506c.825-.196 1.698-.235 2.568-.226.693.007 1.623.087 2.429.184.402.048.774.1 1.07.149s.381-.413.076-.462a27 27 0 0 0-1.091-.152c-.816-.098-1.755-.18-2.479-.188" clip-rule="evenodd"/><path fill="#d4212f" fill-rule="evenodd" d="M254.254 200.714c-.887-.009-1.798.029-2.681.239-.49.116-.96.31-1.394.553-.394.219-.627.546-.894.669-.561.258-1.309.192-2.035.458-.607.222-1.093.606-1.602.831a6 6 0 0 1-.936.347c-.555.14-1.878.246-1.878.246-.095.156-.155.31-.226.465 0 0 1.612-.103 2.219-.257a6.3 6.3 0 0 0 1.011-.373c.581-.257 1.059-.631 1.573-.819.591-.217 1.356-.144 2.07-.473.421-.194.66-.537.926-.686a5 5 0 0 1 1.274-.505c.825-.196 1.698-.236 2.568-.227.693.007 1.623.088 2.429.184.403.049.775.101 1.071.149.296.049.744-.324.744-.324a5 5 0 0 0-.669-.138 25 25 0 0 0-1.091-.151c-.816-.098-1.754-.181-2.479-.188" clip-rule="evenodd"/><path fill="#d4212f" fill-rule="evenodd" d="M253.895 201.709c-.887-.009-1.798.029-2.681.239-.49.116-.96.31-1.394.552-.394.22-.627.547-.894.669-.561.259-1.309.192-2.036.459-.606.222-1.092.606-1.601.831a6 6 0 0 1-.939.347c-.539.142-1.908.279-1.908.279a3 3 0 0 0-.056.47s1.503-.143 2.083-.296c.355-.093.689-.23 1.009-.372.582-.257 1.06-.631 1.573-.819.591-.217 1.357-.145 2.071-.473.42-.194.66-.537.926-.686a5 5 0 0 1 1.274-.505c.825-.196 1.698-.236 2.568-.227.693.007 1.623.088 2.428.184.403.048.775.101 1.071.149.297.049.381-.412.076-.462a27 27 0 0 0-1.091-.152c-.816-.098-1.755-.18-2.479-.187" clip-rule="evenodd"/><path fill="#d4212f" fill-rule="evenodd" d="M253.471 202.788c-.887-.009-1.798.03-2.681.24-.49.116-.96.31-1.394.552-.394.22-.627.546-.894.669-.561.258-1.309.192-2.036.459-.606.222-1.092.605-1.601.831-.316.14-.624.273-.933.346-.484.113-1.604.19-1.604.19l-.104.463s1.263-.068 1.815-.197c.365-.086.699-.234 1.015-.374.582-.258 1.06-.632 1.574-.82.591-.216 1.356-.144 2.07-.473.421-.193.66-.537.926-.685a5 5 0 0 1 1.274-.506c.825-.196 1.698-.235 2.568-.226.693.007 1.606.065 2.411.162.403.048.793.122 1.089.171.296.048.6.067.675.091l.069-.416a5 5 0 0 0-.669-.138 27 27 0 0 0-1.09-.151c-.817-.098-1.756-.18-2.48-.188" clip-rule="evenodd"/><path fill="#d4212f" fill-rule="evenodd" d="M253.069 203.677c-.887-.009-1.798.029-2.681.239-.49.116-.96.311-1.394.553-.394.219-.628.546-.894.669-.561.258-1.309.192-2.036.458-.606.223-1.092.606-1.601.831-.316.14-.624.272-.934.347-.435.105-1.439.19-1.439.19l-.12.441h.207c.439-.022.971-.058 1.462-.176.362-.087.696-.233 1.013-.373.582-.258 1.06-.632 1.573-.82.591-.217 1.357-.144 2.071-.473.42-.193.66-.537.926-.685a5 5 0 0 1 1.274-.506c.825-.196 1.698-.236 2.568-.227.693.007 1.623.088 2.429.185.402.048.774.1 1.07.149s.527.097.601.121l.199.074.167-.448-.222-.072a5 5 0 0 0-.669-.138 27 27 0 0 0-1.091-.151c-.816-.098-1.755-.181-2.479-.188" clip-rule="evenodd"/><path fill="#d4212f" fill-rule="evenodd" d="M252.752 204.609c-.887-.009-1.798.029-2.682.239-.489.116-.959.31-1.393.552-.394.22-.627.547-.894.669-.561.258-1.309.192-2.036.459-.606.222-1.092.606-1.602.831-.315.14-.623.272-.933.346-.395.094-1.343.122-1.343.122a4 4 0 0 0-.077.468s1.081-.027 1.529-.134c.363-.087.697-.233 1.014-.374.582-.257 1.06-.631 1.573-.819.591-.217 1.357-.145 2.071-.473.42-.194.66-.537.926-.686a5 5 0 0 1 1.274-.506c.825-.196 1.698-.235 2.568-.226.693.007 1.623.088 2.428.184.403.048.775.101 1.071.149.297.048.781.163.781.163l.162-.432s-.562-.144-.867-.193a27 27 0 0 0-1.091-.152c-.817-.098-1.755-.18-2.479-.187" clip-rule="evenodd"/><path fill="#d4212f" fill-rule="evenodd" d="M252.328 205.624c-.887-.009-1.798.03-2.681.24-.49.116-.96.31-1.393.552-.395.22-.628.547-.895.669-.56.258-1.308.192-2.035.459-.62.227-1.081.654-1.582.823-.55.186-1.364.286-1.778.306l-.189.003-.022.476.234-.012c.455-.022 1.274-.117 1.905-.329.629-.212 1.093-.644 1.593-.827.591-.217 1.356-.145 2.07-.473.421-.194.66-.537.926-.686a5 5 0 0 1 1.274-.506c.825-.196 1.699-.235 2.568-.226.693.007 1.624.088 2.429.184.403.048.785.117 1.082.166.296.048.796.192.796.192l.179-.48s-.606-.142-.911-.191a27 27 0 0 0-1.09-.152c-.817-.098-1.755-.18-2.48-.188" clip-rule="evenodd"/><path fill="#002868" d="M258.98 200.348s-.438-.204-.671-.264c-.673-.173-1.375-.212-2.068-.266-.754-.058-2.268-.06-2.268-.06s-.455 1.058-.608 1.611c-.171.618-.344 1.894-.344 1.894s1.751.032 2.619.13c.695.078 2.066.363 2.066.363z"/><path fill="#fff" fill-opacity=".994" d="m255.729 200.051-.037.176-.19.022.168.087-.037.177.14-.123.168.087-.081-.162.14-.123-.19.022zm.745.084-.119.14-.179-.063.105.15-.12.14.185-.047.105.15.009-.18.185-.047-.179-.063zm-1.447.167.055.172-.157.102.191.004.055.172.063-.169.191.004-.152-.109.064-.169-.158.102zm1.764.17.019.179-.176.072.187.039.019.178.097-.155.187.039-.127-.134.096-.155-.175.072zm-1.984.229-.089.159-.188-.03.133.128-.088.16.171-.08.134.128-.028-.178.172-.079-.189-.03zm2.399.27-.072.167-.191-.013.147.116-.072.166.162-.095.147.116-.046-.175.162-.095-.191-.013zm-2.673.308v.18l-.182.056.182.055v.18l.112-.146.182.055-.113-.145.113-.145-.183.056zm2.794.315-.146.116-.163-.095.073.167-.147.116.191-.013.073.166.045-.175.191-.013-.162-.094zm-2.446.268-.133.129-.172-.08.089.159-.133.129.188-.031.089.159.028-.178.188-.03-.171-.079zm1.96.221-.018.178-.187.039.176.072-.018.179.126-.135.176.072-.097-.155.127-.135-.187.039zm-1.668.192-.054.172-.192.005.158.101-.055.173.152-.11.158.102-.064-.169.152-.109-.191.004zm1.28.144-.104.15-.185-.046.12.139-.104.151.178-.064.121.14-.01-.18.179-.064-.185-.046zm-.817.094.037.177-.167.087.19.021.037.176.081-.162.189.021-.14-.122.081-.163-.168.087z"/><path stroke="#000" stroke-linecap="round" stroke-linejoin="round" stroke-miterlimit="6.3" stroke-width=".203" d="M254.601 199.755a18 18 0 0 0-.571.003h-.056v0c-.686.016-1.378.075-2.054.236-.49.116-.96.31-1.394.552-.394.22-.627.547-.893.669-.561.258-1.309.192-2.036.459-.607.222-1.093.606-1.602.831-.311.138-.599.304-.912.402a8 8 0 0 1-1.369.319l-.016.001h-.212a2 2 0 0 0-.153.154l-.018.019c-.058.065-.109.127-.162.19l-.002.003a4 4 0 0 0-.315.464h-.001a2 2 0 0 0-.077.139l-.052.107-.076.171-.022.049.002-.001a3 3 0 0 0-.167.563h-.002a3 3 0 0 0-.056.47 4 4 0 0 1-.114.771l-.028.125q-.065.257-.141.512l-.012.001-.12.442h.006a8 8 0 0 0-.104.42l-.004.001a3 3 0 0 0-.045.241 3 3 0 0 0-.031.224v.003a3 3 0 0 0-.015.382h-.002l-.022.475.234-.011c.455-.023 1.274-.117 1.905-.33.629-.212 1.093-.644 1.593-.827.591-.217 1.356-.144 2.07-.473.421-.194.66-.537.926-.686a5 5 0 0 1 1.274-.506c.825-.195 1.699-.235 2.568-.226.693.007 1.624.088 2.429.184.395.048.768.114 1.061.163.421.095.817.195.817.195l.179-.48.218-.582.161-.432.175-.467.167-.448.176-.47 1.273-3.407s-.437-.205-.67-.265c-.673-.173-1.375-.212-2.068-.265a20 20 0 0 0-1.017-.043 14 14 0 0 0-.624-.021z" clip-rule="evenodd"/><path fill="#fefdfe" fill-rule="evenodd" d="M255.64 215.797a1 1 0 0 0-.105.001s-1.814.304-2.724.434a99 99 0 0 1-3.682.464 65 65 0 0 1-3.412.284 69 69 0 0 1-3.607.075c-.25 0-.748-.015-.748-.015-.495.068-.327.525.029.569 0 0 1.856.105 2.784.09 1.3-.021 2.596-.153 3.892-.255 1.153-.09 2.308-.173 3.457-.314a56 56 0 0 0 3.278-.509c.305-.056.913-.194.913-.194.345-.063.414-.598-.075-.63m-77.259 3.973a.5.5 0 0 0-.149.009c-.092.019-.191.069-.239.15a.46.46 0 0 0-.03.419c.095.194.342.271.539.359 3.179 1.415 6.703 1.901 10.117 2.574 4.617.911 9.311 1.379 13.979 1.976 1.913.245 3.827.482 5.747.659 3.884.356 7.781.567 11.674.808 2.194.135 4.388.288 6.586.359 4.088.131 8.182.213 12.272.12 2.338-.054 4.672-.228 7.004-.389.719-.05 2.156-.18 2.156-.18l-.09-.539s-5.328.149-7.992.15a353 353 0 0 1-11.734-.21 224 224 0 0 1-6.286-.299c-4.084-.247-8.172-.489-12.243-.898a278 278 0 0 1-14.068-1.796c-2.665-.405-5.312-.917-7.963-1.407-2.588-.478-5.183-.928-7.752-1.496-.362-.081-.715-.197-1.078-.27-.149-.03-.3-.088-.45-.099m74.856 1.992c.201-.016.41-.659-.112-.539-1.811.293-3.656.11-5.485.171-.545-.004-.252.475-.082.458 1.786.02 3.654.074 5.679-.09" clip-rule="evenodd"/><path fill="#efae0e" fill-rule="evenodd" d="m170.893 213.008-.076.573 1.192.337.108-.664zm1.886.448-.076.573 1.191.338.109-.664zm2.152.63-.075.573 1.191.337.108-.664zm-4.637.448-.075.761 1.191.449.108-.883zm2.281 2.191s.654.768 1.047 1.078c.802.631 1.746 1.056 2.634 1.556.277.156.522.451.838.45a.43.43 0 0 0 .33-.18c.1-.14.132-.342.09-.509-.048-.186-.196-.348-.36-.449-.165-.101-.383-.062-.568-.12-.393-.122-.762-.311-1.138-.478-.966-.43-2.873-1.348-2.873-1.348m80.089 2.159c-.139.002-.293.146-.332.278-.145.498-.371.897-.508 1.347-.052.169-.016.448.149.509.19.07.453-.135.509-.329.152-.52.3-.762.449-1.228.062-.192-.017-.507-.209-.568a.2.2 0 0 0-.058-.008zm-3.279.018c-.138.002-.292.146-.331.278-.146.498-.371.897-.509 1.347-.052.169-.016.447.15.509.189.07.452-.135.509-.329.152-.52.3-.762.449-1.228.062-.192-.017-.508-.21-.568a.2.2 0 0 0-.058-.009m1.602.042c-.138.002-.292.146-.331.278-.146.498-.371.897-.509 1.347-.051.169-.016.447.15.509.189.07.452-.135.509-.329.152-.52.3-.762.449-1.228.062-.192-.017-.507-.21-.568a.2.2 0 0 0-.058-.009" clip-rule="evenodd"/><path stroke="#efae0e" stroke-linecap="round" stroke-linejoin="round" stroke-miterlimit="6.3" stroke-width=".539" d="m253.783 218.372-5.268.03m-78.156-7.334-.03 3.173.299.209 6.795 1.766.12-.808-.12-.479-.479-.419v-1.586l-.898-.21-.209.629-1.527-.389-.239-.958-.779-.09-.119.659-1.587-.479-.179-.868z"/><path fill="#d4212f" fill-rule="evenodd" stroke="#000" stroke-linecap="round" stroke-linejoin="round" stroke-miterlimit="6.3" stroke-width=".234" d="m179.28 223.88-3.262.03 3.592 5.119 2.544-.06zm2.066.18c-.177.654.658 1.393 1.407 2.125 0 0 17.044 1.201 25.563 1.856 11.079.851 33.226 2.694 33.226 2.694l-.36-1.168s-22.4-2.332-33.615-3.352c-8.734-.795-26.221-2.155-26.221-2.155m63.508 5.267c-.2.013-.411.251-.409.45.004.303.363.562.659.629 1.274.287 3.502.389 3.502.389l.12-1.018s-2.587-.332-3.832-.449zm.489 1.947c-.268-.013-.559.273-.599.538-.025.173.099.413.27.45 1.218.261 3.053.388 3.053.388l.269-1.077s-1.98-.252-2.993-.299m.21 1.826c-.198-.006-.408.221-.419.419-.011.177.153.393.329.419.692.102 1.945.179 1.945.179l.3-.838s-1.449-.158-2.155-.179" clip-rule="evenodd"/><path fill="#efae0e" fill-rule="evenodd" d="m187.316 227.173.016 2.395 3.246.352v-2.393zm8.234.884.004 2.394 3.412.353.036-2.389zm9.005.901.03 2.396 3.208.263-.041-2.396zm7.693.62-.078 2.387 3.978.385-.062-2.399zm8.347.836.063 2.399 3.532.366-.055-2.399zm8.244.814-.041 2.39 3.777.251v-2.394zm8.487.502.076 2.398 3.54.169-.015-2.395z" clip-rule="evenodd"/><path fill="#efae0e" fill-rule="evenodd" stroke="#000" stroke-linecap="round" stroke-linejoin="round" stroke-miterlimit="6.3" stroke-width=".234" d="M185.285 224.018a.7.7 0 0 0-.381.126c-.17.115-.348.28-.413.472-1.023 3.034-3.391 10.49-3.295 10.551.363.227.96.339 1.368.031.108-.082 2.057-7.076 3.009-10.456.057-.201.112-.442.018-.598-.057-.095-.189-.124-.306-.126m8.024.865a.64.64 0 0 0-.366.12c-.156.109-.313.266-.354.449-.636 2.884-2.054 9.97-1.95 10.027.393.217 1.006.323 1.375.03.098-.077 1.155-6.725 1.676-9.937.032-.191.056-.421-.058-.569-.07-.09-.207-.118-.323-.12m8.9.853a.6.6 0 0 0-.359.12c-.15.109-.299.266-.33.449-.48 2.884-1.514 9.97-1.407 10.027.405.217 1.024.323 1.377.03.094-.077.79-6.725 1.138-9.937.021-.191.032-.421-.09-.569-.074-.09-.213-.118-.329-.12m8.062.793a.56.56 0 0 0-.346.12c-.137.11-.268.266-.278.449-.152 2.884-.379 9.97-.265 10.028.429.216 1.06.323 1.38.03.085-.078.024-6.726.006-9.938-.001-.191-.015-.421-.154-.569-.085-.09-.226-.118-.343-.12m8.178.569a.53.53 0 0 0-.338.12c-.131.109-.253.266-.251.449.02 2.884.215 9.97.333 10.027.442.217 1.079.323 1.382.03.08-.077-.377-6.725-.587-9.937-.013-.191-.041-.421-.189-.569-.089-.09-.233-.118-.35-.12m7.506.6a.44.44 0 0 0-.317.123c-.111.112-.205.272-.171.46.536 2.955 1.999 10.216 2.126 10.275.481.222 1.136.331 1.386.031.067-.08-1.579-6.892-2.363-10.183-.047-.196-.116-.431-.29-.583a.6.6 0 0 0-.371-.123m15.461.3a.39.39 0 0 0-.301.125.49.49 0 0 0-.112.468c.91 3.002 3.294 10.38 3.429 10.44.509.225 1.178.336 1.39.031.056-.081-2.453-7.002-3.655-10.347-.071-.198-.171-.438-.364-.592a.65.65 0 0 0-.387-.125m-7.519.179a.4.4 0 0 0-.306.123c-.102.113-.182.274-.132.462.786 2.963 2.863 10.243 2.996 10.302.499.223 1.164.332 1.389.031.059-.08-2.163-6.91-3.226-10.21-.063-.196-.152-.433-.339-.585a.63.63 0 0 0-.382-.123" clip-rule="evenodd"/><path fill="#d4212f" fill-rule="evenodd" stroke="#000" stroke-miterlimit="6.3" stroke-width=".234" d="M193.153 169.763s-2.723.1-4.022.466c-1.257.355-2.49.895-3.555 1.651-1.14.809-2.047 1.916-2.921 3.006-.338.421-.801.821-.889 1.354-.064.389.073.819.296 1.143.304.442 1.093.442 1.312.931.105.234.019.529-.084.762-.363.824-1.021 1.546-1.778 2.032-.706.454-1.676.318-2.413.72-.686.374-1.327.887-1.778 1.524-.271.383-.586.85-.508 1.312.04.237.227.525.465.551.231.024.393-.254.551-.424.278-.297.389-.728.677-1.016.396-.395.872-.737 1.397-.931.56-.206 1.211-.026 1.778-.212a5.9 5.9 0 0 0 2.032-1.143c.652-.57 1.279-1.256 1.566-2.074.164-.466.262-1.039.043-1.481-.193-.39-.809-.407-1.059-.762-.118-.168-.211-.392-.169-.593.127-.608.715-1.033 1.185-1.439.412-.357.899-.627 1.397-.847a12.4 12.4 0 0 1 2.879-.847c.961-.166 2.921-.169 2.921-.169l.423.042z" clip-rule="evenodd"/><path fill="#fff" fill-rule="evenodd" d="m188.504 170.422.247 3.165.804-.141-.222-3.269zm-3.343 1.772.907 2.4-.544.35-.876-2.303zm-1.129 1.066-.523.586 1.117 1.868.447-.399zM182.432 175.148l1.743 1.877-.081-.446-1.259-1.918z" clip-rule="evenodd"/><path fill="#002a86" fill-rule="evenodd" d="m190.147 170.049-.068 3.329c.933-.055 1.859-.143 2.82-.059l.254-3.555c-1.022.074-2.097.095-3.006.285" clip-rule="evenodd"/><path fill="#fff" fill-rule="evenodd" d="m187.963 170.617-.739.313.446 2.958.693-.182zm-2.071 1.048.784 2.628.481-.198-.697-2.774zm-1.843 5.116s.098.297.224.49c.163.248.393.53.424.842.043.426-.174.844-.339 1.239a4.3 4.3 0 0 1-.582 1.005 4.9 4.9 0 0 1-1.111 1.058 3.2 3.2 0 0 1-.878.381c-.354.104-.729.107-1.09.18-.416.084-.851.124-1.239.297-.301.134-.563.347-.814.56a6 6 0 0 0-.741.773c-.191.23-.346.487-.519.73-.106.149-.197.308-.317.445-.154.173.031.307.031.307l.434.053s.428-.615.656-.911c.227-.293.423-.622.71-.857a3.2 3.2 0 0 1 1.005-.539c.305-.103.636-.094.952-.149.407-.07.832-.084 1.217-.232.648-.25 1.243-.639 1.778-1.08.284-.233.741-.815.741-.815s.301-.563.423-.857c.142-.341.319-.681.36-1.048.03-.264-.084-.794-.084-.794l-.657-.391c-.237-.187-.398-.449-.584-.687M192.502 170.187a.095.095 0 0 0-.064.026.1.1 0 0 0-.019.029.1.1 0 0 0-.007.035.1.1 0 0 0 .007.034.1.1 0 0 0 .019.029.1.1 0 0 0 .03.02.1.1 0 0 0 .034.007.09.09 0 0 0 .09-.09.1.1 0 0 0-.026-.064.1.1 0 0 0-.064-.026m-.619.068a.1.1 0 0 0-.035.007.1.1 0 0 0-.029.02.1.1 0 0 0-.019.029.09.09 0 0 0 .083.124.1.1 0 0 0 .034-.006.1.1 0 0 0 .03-.02.1.1 0 0 0 .019-.029.1.1 0 0 0 .007-.034.1.1 0 0 0-.007-.035.1.1 0 0 0-.019-.029.094.094 0 0 0-.064-.027m-.624.054a.09.09 0 0 0-.083.124.1.1 0 0 0 .019.029.1.1 0 0 0 .029.02.1.1 0 0 0 .069 0 .1.1 0 0 0 .049-.049.1.1 0 0 0 .006-.035.09.09 0 0 0-.089-.089m-.582.042a.1.1 0 0 0-.035.006.1.1 0 0 0-.049.049.1.1 0 0 0-.007.035q0 .018.007.034a.1.1 0 0 0 .02.03.1.1 0 0 0 .029.019.1.1 0 0 0 .035.007.1.1 0 0 0 .034-.007.1.1 0 0 0 .029-.02.1.1 0 0 0 .02-.029.1.1 0 0 0 .006-.034.09.09 0 0 0-.089-.09m1.82.381a.1.1 0 0 0-.035.007.1.1 0 0 0-.029.019.1.1 0 0 0-.019.029.1.1 0 0 0-.007.035q0 .017.007.034a.1.1 0 0 0 .019.029.1.1 0 0 0 .029.02.1.1 0 0 0 .035.007.1.1 0 0 0 .034-.007.1.1 0 0 0 .029-.02.1.1 0 0 0 .02-.029.1.1 0 0 0 .007-.034.09.09 0 0 0-.09-.09m-.635.137a.09.09 0 0 0-.09.09.1.1 0 0 0 .026.064.1.1 0 0 0 .064.026.09.09 0 0 0 .09-.09.1.1 0 0 0-.027-.063.1.1 0 0 0-.063-.027m-.635.011a.1.1 0 0 0-.064.026.1.1 0 0 0-.026.064.095.095 0 0 0 .026.064.09.09 0 0 0 .098.019.1.1 0 0 0 .03-.019.1.1 0 0 0 .019-.099.1.1 0 0 0-.02-.029.1.1 0 0 0-.029-.019.1.1 0 0 0-.034-.007m-.582.032a.091.091 0 0 0-.064.026.1.1 0 0 0-.019.029.1.1 0 0 0-.007.035.1.1 0 0 0 .007.034.1.1 0 0 0 .019.029.1.1 0 0 0 .029.02.1.1 0 0 0 .035.007.1.1 0 0 0 .034-.007.1.1 0 0 0 .029-.02.1.1 0 0 0 .02-.029.1.1 0 0 0 .007-.034.1.1 0 0 0-.007-.035.1.1 0 0 0-.02-.029.1.1 0 0 0-.029-.019.1.1 0 0 0-.034-.007m1.852.423a.091.091 0 0 0-.064.026.1.1 0 0 0-.019.029.1.1 0 0 0-.007.035.095.095 0 0 0 .026.064.1.1 0 0 0 .029.019.1.1 0 0 0 .035.007.1.1 0 0 0 .034-.007.1.1 0 0 0 .029-.019.1.1 0 0 0 .02-.03.1.1 0 0 0 .007-.034.09.09 0 0 0-.09-.09m-.656.085a.1.1 0 0 0-.035.007.1.1 0 0 0-.029.019.1.1 0 0 0-.019.029.1.1 0 0 0-.007.035q0 .037.026.063a.1.1 0 0 0 .064.027.1.1 0 0 0 .034-.007.1.1 0 0 0 .029-.02.1.1 0 0 0 .02-.029.1.1 0 0 0 .007-.034.1.1 0 0 0-.007-.035.1.1 0 0 0-.02-.029.08.08 0 0 0-.063-.026m-.614.053a.1.1 0 0 0-.064.026.09.09 0 1 0 .128 0 .1.1 0 0 0-.03-.02.1.1 0 0 0-.034-.006m-.614.074a.09.09 0 0 0-.09.09q.001.036.026.063a.1.1 0 0 0 .064.027.09.09 0 0 0 .09-.09.1.1 0 0 0-.026-.064.1.1 0 0 0-.064-.026m1.852.413a.1.1 0 0 0-.034.006.1.1 0 0 0-.03.02.1.1 0 0 0-.019.029.1.1 0 0 0-.007.034q0 .018.007.035a.08.08 0 0 0 .049.048.09.09 0 0 0 .098-.019.1.1 0 0 0 .026-.064.09.09 0 0 0-.09-.089m-.603.052a.09.09 0 0 0-.09.09q0 .018.007.035a.1.1 0 0 0 .019.029.1.1 0 0 0 .029.02.1.1 0 0 0 .069 0 .1.1 0 0 0 .03-.02.1.1 0 0 0 .019-.029.089.089 0 0 0-.02-.098.1.1 0 0 0-.063-.027m-.646.074a.1.1 0 0 0-.034.007.1.1 0 0 0-.029.02.1.1 0 0 0-.02.029.1.1 0 0 0-.007.034q0 .018.007.035a.1.1 0 0 0 .019.029.1.1 0 0 0 .03.02.103.103 0 0 0 .069 0 .1.1 0 0 0 .029-.02.1.1 0 0 0 .019-.029.1.1 0 0 0 .007-.035.09.09 0 0 0-.09-.09m-.624.032a.09.09 0 0 0-.09.09.1.1 0 0 0 .026.064q.027.025.064.026a.1.1 0 0 0 .034-.007.089.089 0 0 0 .049-.117.1.1 0 0 0-.02-.03.1.1 0 0 0-.029-.019.1.1 0 0 0-.034-.007m1.852.424a.1.1 0 0 0-.064.026.1.1 0 0 0-.026.063q0 .018.007.035a.1.1 0 0 0 .019.029.1.1 0 0 0 .029.02.1.1 0 0 0 .069 0 .1.1 0 0 0 .03-.02.1.1 0 0 0 .019-.029.1.1 0 0 0 .007-.035.1.1 0 0 0-.007-.034.1.1 0 0 0-.019-.029.1.1 0 0 0-.03-.02.1.1 0 0 0-.034-.006m-.603.021a.1.1 0 0 0-.035.006.1.1 0 0 0-.029.02.1.1 0 0 0-.019.029.1.1 0 0 0-.007.035q0 .037.026.063a.1.1 0 0 0 .064.027.1.1 0 0 0 .034-.007.1.1 0 0 0 .029-.02.1.1 0 0 0 .02-.029.1.1 0 0 0 .007-.034.1.1 0 0 0-.007-.035.1.1 0 0 0-.02-.029.1.1 0 0 0-.029-.02.1.1 0 0 0-.034-.006m-.625.053a.1.1 0 0 0-.034.006.1.1 0 0 0-.029.02.1.1 0 0 0-.02.029.1.1 0 0 0-.007.034q0 .018.007.035a.1.1 0 0 0 .019.029.1.1 0 0 0 .03.02.1.1 0 0 0 .034.007.1.1 0 0 0 .035-.007.1.1 0 0 0 .029-.02.1.1 0 0 0 .019-.029.09.09 0 0 0-.083-.124m-.603.052a.1.1 0 0 0-.034.007.1.1 0 0 0-.03.02.1.1 0 0 0-.019.029.1.1 0 0 0-.007.034q.001.037.026.064a.1.1 0 0 0 .064.026.1.1 0 0 0 .064-.026.09.09 0 0 0 0-.127.1.1 0 0 0-.029-.02.1.1 0 0 0-.035-.007" clip-rule="evenodd"/><path stroke="#000" stroke-miterlimit="6.3" stroke-width=".234" d="M193.153 169.763s-2.723.1-4.022.466c-1.257.355-2.49.895-3.555 1.651-1.14.809-2.047 1.916-2.921 3.006-.338.421-.801.821-.889 1.354-.064.389.073.819.296 1.143.304.442 1.093.442 1.312.931.105.234.019.529-.084.762-.363.824-1.021 1.546-1.778 2.032-.706.454-1.676.318-2.413.72-.686.374-1.327.887-1.778 1.524-.271.383-.586.85-.508 1.312.04.237.227.525.465.551.231.024.393-.254.551-.424.278-.297.389-.728.677-1.016.396-.395.872-.737 1.397-.931.56-.206 1.211-.026 1.778-.212a5.9 5.9 0 0 0 2.032-1.143c.652-.57 1.279-1.256 1.566-2.074.164-.466.262-1.039.043-1.481-.193-.39-.809-.407-1.059-.762-.118-.168-.211-.392-.169-.593.127-.608.715-1.033 1.185-1.439.412-.357.899-.627 1.397-.847a12.4 12.4 0 0 1 2.879-.847c.961-.166 2.921-.169 2.921-.169l.423.042z" clip-rule="evenodd"/><path fill="#efae0e" fill-rule="evenodd" d="M210.142 141.484a69.017 69.017 0 1 0 0 138.034 69.017 69.017 0 0 0 0-138.034m0 1.676a67.34 67.34 0 0 1 47.616 19.724 67.336 67.336 0 0 1 0 95.232A67.337 67.337 0 0 1 142.802 210.5a67.34 67.34 0 0 1 19.724-47.616 67.34 67.34 0 0 1 47.616-19.724" clip-rule="evenodd"/><path fill="#efae0e" fill-rule="evenodd" d="M210.141 124.721a85.783 85.783 0 0 0-85.779 85.779 85.783 85.783 0 0 0 85.779 85.779 85.78 85.78 0 0 0 79.249-52.953 85.77 85.77 0 0 0-18.594-93.481 85.77 85.77 0 0 0-60.655-25.124m0 1.677a84.1 84.1 0 0 1 84.102 84.102 84.1 84.1 0 0 1-24.633 59.469 84.09 84.09 0 0 1-59.469 24.633 84.103 84.103 0 0 1 0-168.204" clip-rule="evenodd"/><path fill="#efae0e" fill-rule="evenodd" d="M210.141 119.982a90.516 90.516 0 0 0-64.006 154.524 90.52 90.52 0 0 0 128.012 0 90.516 90.516 0 0 0-64.006-154.524m0 3.063a87.46 87.46 0 0 1 80.798 53.987 87.46 87.46 0 0 1-47.33 114.266 87.46 87.46 0 0 1-114.266-47.331 87.45 87.45 0 0 1 18.958-95.307 87.46 87.46 0 0 1 61.84-25.615" clip-rule="evenodd"/><path fill="#fff" d="M240.973 219.248h3.382v2.353h-3.382z"/><path fill="#fff" d="M244.62 221.601a275 275 0 0 1-3.397.066l-.031-2.354q1.685-.022 3.368-.065zm-5.775.087q-1.698.007-3.398-.006l.019-2.354q1.684.013 3.368.006zm-5.777-.035a275 275 0 0 1-3.397-.078l.069-2.353q1.683.049 3.368.077zm-5.775-.159a256 256 0 0 1-3.395-.151l.12-2.351q1.682.085 3.365.15zm-5.771-.283q-1.695-.103-3.391-.227l.173-2.347q1.679.122 3.36.224zm-5.762-.412a255 255 0 0 1-3.385-.302l.224-2.343q1.677.16 3.354.299zm-5.752-.54a254 254 0 0 1-3.377-.379l.278-2.337q1.671.2 3.345.375zm-5.738-.671a257 257 0 0 1-3.367-.457l.332-2.329q1.666.237 3.336.452zm-5.72-.804a254 254 0 0 1-3.355-.535l.387-2.321q1.66.277 3.323.53zm-5.699-.938a237 237 0 0 1-3.342-.615l.442-2.311q1.653.316 3.309.61zm-5.676-1.074a237 237 0 0 1-3.326-.696l.499-2.299q1.643.356 3.293.689zm-5.648-1.212a234 234 0 0 1-3.309-.778l.555-2.287q1.635.397 3.275.771z"/></svg>