<svg xmlns="http://www.w3.org/2000/svg" width="420" height="420" fill="none" viewBox="0 0 420 420"><mask id="a" width="420" height="300" x="0" y="60" maskUnits="userSpaceOnUse" style="mask-type:alpha"><path fill="#fff" d="M360 60H60c-18.638 0-27.956 0-35.307 3.045A40 40 0 0 0 3.045 84.693C0 92.043 0 101.362 0 120v180c0 18.638 0 27.956 3.045 35.307a40 40 0 0 0 21.648 21.648C32.043 360 41.363 360 60 360h300c18.638 0 27.957 0 35.307-3.045a40 40 0 0 0 21.648-21.648C420 327.956 420 318.638 420 300V120c0-18.638 0-27.957-3.045-35.307a40 40 0 0 0-21.648-21.648C387.957 60 378.638 60 360 60"/></mask><g mask="url(#a)"><path fill="#fff" d="M-25.435 360h449.999V60h-450z"/><path fill="#fff" d="M-25.435 360h449.999V60h-450z"/><path fill="#bf0a30" d="M-25.435 210h449.999V60h-450z"/><path fill="#bf0a30" d="M-25.435 210h449.999V60h-450z"/><path fill="#002868" fill-rule="evenodd" d="M-25.811 60h187.499v300h-187.5z" clip-rule="evenodd"/><path fill="#ffca00" fill-rule="evenodd" d="M23.188 130.97c-9.457 5.281-11.171 7.483-16.354 11.533l11.493.24c-.136 1.071-2.645 14.396-2.883 15.337 8.653-5.751 12.759-8.386 24.564-11.712 4.691-1.303-.369-6.069-.857-7.337-3.207 1.448-5.673 3.167-8.037 5.273" clip-rule="evenodd"/><path stroke="#002868" stroke-width=".756" d="M23.188 130.97c-9.457 5.281-11.171 7.483-16.354 11.533l11.493.24c-.136 1.071-2.645 14.396-2.883 15.337 8.653-5.751 12.759-8.386 24.564-11.712 4.691-1.303-.369-6.069-.857-7.337-3.207 1.448-5.673 3.167-8.037 5.273"/><path fill="#ffca00" fill-rule="evenodd" stroke="#002868" stroke-width=".756" d="M31.267 144.193c17.629-16.149 75.961-15.764 92.207.499.524-.189 11.035-17.921 10.511-17.732-31.897-22.345-89.051-18.517-113.039-.883l.285 1.053z" clip-rule="evenodd"/><path stroke="#002868" stroke-linecap="round" stroke-linejoin="round" stroke-width="2.363" d="M34.297 137.185c-.088-.23-5.126-9.612-5.126-9.612l8.246 7.267-1.918-10.619 5.4 9.086m23.306-12.328c.036-2.868 2.335-3.061 3.917-2.565.928.708 1.415 3.015.303 4.33l-2.234 1.904c-.772.966-1.628 2.068-1.572 3.282l5.047-.193m3.7-9.821c-.922.451-1.232 1.163-1.446 2.218-.138 1.213-.076 4.082.172 5.268.22.883.44 1.462 1.103 2.041.773.442 1.627.359 2.097.056.634-.359 1.075-1.104 1.296-1.987.358-1.13.33-4.44.082-5.654-.23-.809-.515-1.453-1.158-1.931-.773-.331-1.678-.259-2.147-.011M97.469 120.672c.96-.401 1.69-.892 2.492-1.833l-1.418 9.989M104.85 120.161c.115.043 4.797 1.405 4.797 1.405-2.283 2.852-4.155 5.386-5.681 8.607M113.737 122.649l4.641 2.29c-2.755 1.969-5.021 4.448-7.026 7.346M125.505 128.654l-3.04-1.782-2.689 3.64c1.931-.38 3.229.203 3.785 1.956.34 2.581-1.207 4.055-2.879 4.101-1.76-.04-2.668-1.006-2.915-3.034M43.481 132.007s.294-10.844.404-10.832c.047-.439 6.123 8.991 6.123 8.991m-6.328-2.021 4.128-1.215"/><path fill="#ffca00" fill-rule="evenodd" d="m19.585 234.32 6.031.081-.19-26.128 11.56 26.266h6.275v-38.431l-6.126.082.093 24.298-10.805-24.189-6.745.081zM129.809 208.301h6.423l-.077-3.386c-.183-2.188-1.009-4.959-3.167-7.009-1.436-1.598-3.137-2.501-5.342-3.104-1.873-.735-6.458-.519-8.785.783-2.752 1.537-5.076 4.278-6.627 8.694-2.036 7.436-1.117 16.748.173 21.129 1.536 4.644 3.945 7.123 7.152 8.686 1.995.67 5.477 1.182 8.735.3 3.549-1.343 5.171-3.673 6.581-6.159.855-1.682 1.837-4.908 1.666-8.482l-6.702.081c.005 1.309-.261 2.818-.593 4.126-.758 1.829-1.93 3.053-4.841 3.052-1.951-.002-3.27-.805-4.363-2.245-1.474-1.423-1.86-4.609-1.958-5.509-.444-4.067-.457-8.092.715-12.335.446-1.714 1.333-3.3 2.494-4.072 1.881-1.02 3.828-.869 4.928-.547 1.445.446 2.778 1.526 3.194 2.956.324 1.344.375 2.162.394 3.041" clip-rule="evenodd"/><path fill="#fff" fill-rule="evenodd" d="m92.52 235.582-14.398-11.189-14.777 11.12 5.855-17.415-14.981-11.024 18.017.427 5.518-17.933 5.28 17.678 18.391-.06-14.754 10.5z" clip-rule="evenodd"/><path stroke="#002868" stroke-width=".756" d="M31.317 144.203c.635.648 1.888.487 3.618.159 1.381-.166 2.955-.23 4.194-.373 2.05.168 3.224.647 2.382 1.62"/><path fill="#ffca00" fill-rule="evenodd" d="M131.632 131.54c9.457 5.281 11.171 7.483 16.354 11.533l-11.493.241c.137 1.07 2.646 14.396 2.884 15.336-8.653-5.75-12.759-8.386-24.565-11.712-4.691-1.302.538-6.153 1.026-7.421 3.207 1.448 5.927 3.167 7.868 5.358" clip-rule="evenodd"/><path stroke="#002868" stroke-width=".756" d="M131.632 131.54c9.457 5.281 11.171 7.483 16.354 11.533l-11.493.241c.137 1.07 2.646 14.396 2.884 15.336-8.653-5.75-12.759-8.386-24.565-11.712-4.691-1.302.538-6.153 1.026-7.421 3.207 1.448 5.927 3.167 7.868 5.358"/><path stroke="#002868" stroke-width=".756" d="M123.368 144.773c-1.062.491-2.158.274-3.483.159-1.258-.183-2.686-.397-4.099-.445-2.368.017-3.224 1.006-2.477 1.692"/><path stroke="#002868" stroke-linecap="round" stroke-linejoin="round" stroke-width="1.702" d="M78.834 121.629c1.83.033 3.601.106 3.601.106M84.457 119.237l-.214 8.725m4.012.396c.51-6.263-.31-6.487-3.335-6.473"/><path stroke="#002868" stroke-linecap="round" stroke-linejoin="round" stroke-width="1.702" d="m80.262 118.921-.134 7.253c-.02 1.376.408 1.768 1.605 1.768"/><path stroke="#002868" stroke-linecap="round" stroke-linejoin="round" stroke-width="2.363" d="m49.327 119.869 4.484 4.549.81 4.939m1.753-11.051-2.457 6.33"/><path fill="#ffca00" fill-rule="evenodd" d="M23.57 294.403c-9.457-5.164-11.171-7.318-16.354-11.278l11.493-.235c-.137-1.047-2.646-14.078-2.883-14.997 8.653 5.623 12.758 8.2 24.564 11.453 4.691 1.273-.369 5.934-.857 7.174-3.207-1.416-5.673-3.097-8.038-5.156" clip-rule="evenodd"/><path stroke="#002868" stroke-width=".756" d="M23.57 294.403c-9.457-5.164-11.171-7.318-16.354-11.278l11.493-.235c-.137-1.047-2.646-14.078-2.883-14.997 8.653 5.623 12.758 8.2 24.564 11.453 4.691 1.273-.369 5.934-.857 7.174-3.207-1.416-5.673-3.097-8.038-5.156"/><path fill="#ffca00" fill-rule="evenodd" stroke="#002868" stroke-width=".756" d="M31.649 281.472c17.629 15.792 75.96 15.415 92.207-.488.524.185 11.035 17.524 10.51 17.34-31.896 21.851-89.05 18.107-113.038.863l.285-1.029z" clip-rule="evenodd"/><path stroke="#002868" stroke-width=".756" d="M31.698 281.463c.634-.635 1.888-.477 3.618-.156 1.381.163 2.955.225 4.194.364 2.05-.163 3.224-.633 2.381-1.584"/><path fill="#ffca00" fill-rule="evenodd" d="M132.013 293.845c9.457-5.164 11.171-7.317 16.354-11.278l-11.493-.235c.136-1.046 2.645-14.077 2.883-14.997-8.653 5.623-12.758 8.201-24.564 11.453-4.691 1.274.538 6.017 1.026 7.257 3.207-1.416 5.927-3.097 7.868-5.239" clip-rule="evenodd"/><path stroke="#002868" stroke-width=".756" d="M132.013 293.845c9.457-5.164 11.171-7.317 16.354-11.278l-11.493-.235c.136-1.046 2.645-14.077 2.883-14.997-8.653 5.623-12.758 8.201-24.564 11.453-4.691 1.274.538 6.017 1.026 7.257 3.207-1.416 5.927-3.097 7.868-5.239"/><path stroke="#002868" stroke-width=".756" d="M123.75 280.905c-1.062-.48-2.158-.268-3.483-.156-1.258.179-2.686.389-4.099.435-2.368-.016-3.224-.983-2.477-1.654"/><path stroke="#002868" stroke-linecap="round" stroke-linejoin="round" stroke-width="2.363" d="M77.23 302.182c.76-2.606 2.49-2.287 4.033-1.93 1.24.85 1.417 3.168.233 4.516l-2.171 1.654c-.919.61-1.83 1.742-1.796 3.007l5.26-.104M71.92 301.83c.954-.518 1.182-.723 1.912-1.783l-.407 9.423"/><path stroke="#002868" stroke-linecap="round" stroke-width="2.363" d="M60.32 297.685c-.002.057-1.604 9.842-1.672 10.243l5.095.72"/><path stroke="#002868" stroke-linecap="round" stroke-linejoin="round" stroke-width="2.363" d="m54.337 307.406 1.568-10.674"/><path stroke="#002868" stroke-linecap="round" stroke-width="2.363" d="m36.132 301.81 3.888-9.871c1.164.584 2.665.814 3.959 1.968.84 1.397.453 4.262-1.955 4.534-1.326-.177-2.435-.819-3.598-1.346"/><path stroke="#002868" stroke-linecap="round" stroke-linejoin="round" stroke-width="2.332" d="M99.727 299.811c.769-.747 1.291-1.501 1.731-2.729l1.988 10.477"/><path stroke="#002868" stroke-linecap="round" stroke-linejoin="round" stroke-width="2.363" d="M104.214 296.796c.124-.032 5.089-1.768 5.089-1.768-.229 3.799-.299 7.446.176 10.818M111.909 294.13l5.09-1.993c-.218 3.853-.457 7.955.251 10.845M124.004 290.139c-.581-.962-1.47-1.315-2.719-.987-1.158 1.016-1.373 1.817-1.455 3.053.048 1.532.469 3.044 1.165 4.395.477 1.26 1.508 2.159 2.285 2.357.88.324 1.539.242 2.245-.369.538-.679.783-1.819.733-2.679-.167-1.14-.682-2.173-1.845-2.778-.899-.369-1.271-.444-2.084-.099-1.233.729-1.457 2.078-1.274 3.454"/><path stroke="#002868" stroke-linecap="round" stroke-linejoin="round" stroke-width="1.702" d="M84.054 303.028c1.829-.085 3.6-.127 3.6-.127"/><path stroke="#002868" stroke-linecap="round" stroke-linejoin="round" stroke-width="1.702" d="m85.305 300.233.333 7.247c.07 1.374.522 1.738 1.716 1.66M88.85 300.157l1.005 8.671m4.028-.168c-.367-6.273-1.21-6.38-4.204-5.944"/><path stroke="#002868" stroke-linecap="round" stroke-linejoin="round" stroke-width="2.363" d="M27.038 297.403s7.79-8.187 7.866-8.101c.343-.306-1.531 11.227-1.531 11.227m-3.487-5.976 4.04 1.938"/><path stroke="#002868" stroke-linecap="round" stroke-width="2.363" d="M44.61 305.349c-.002-.058 2.834-10.591 2.834-10.591 1.215.295 2.484.473 3.644.885.812.266 2.044 1.27 1.568 2.891-.224.984-.68 1.857-1.376 2.392"/><path stroke="#002868" stroke-linecap="round" stroke-linejoin="round" stroke-width="2.363" d="m46.195 299.905 3.877.994c1.044.376 1.297 1.289 1.299 1.347.194.857-.46 4.552-.46 4.552"/></g></svg>