<svg xmlns="http://www.w3.org/2000/svg" width="420" height="420" fill="none" viewBox="0 0 420 420"><path fill="gold" d="M379.873 60H40.127C17.966 60 0 77.966 0 100.127v219.746C0 342.034 17.966 360 40.127 360h339.746C402.034 360 420 342.034 420 319.873V100.127C420 77.966 402.034 60 379.873 60"/><path fill="#000" d="M226.164 137.767v145.466ZM215.05 126v169Zm-11.1 0v169Zm-11.114 11.767v145.466Z"/><path stroke="#bf0a30" stroke-linecap="round" stroke-width="23.89" d="M226.164 137.767v145.466M215.05 126v169m-11.1-169v169m-11.114-157.233v145.466"/><path fill="#000" d="M136.767 193.836h145.466ZM125 204.95h169Zm0 11.1h169Zm11.767 11.114h145.466Z"/><path stroke="#bf0a30" stroke-linecap="round" stroke-width="23.89" d="M136.767 193.836h145.466M125 204.95h169m-169 11.1h169m-157.233 11.114h145.466"/><path fill="gold" stroke="#bf0a30" stroke-width="11.945" d="M209.5 238.003c15.19 0 27.503-12.313 27.503-27.503s-12.313-27.503-27.503-27.503-27.503 12.314-27.503 27.503 12.314 27.503 27.503 27.503Z"/></svg>