<svg xmlns="http://www.w3.org/2000/svg" width="420" height="420" fill="none" viewBox="0 0 420 420"><path fill="#002d72" d="M379.873 60H40.127C17.966 60 0 77.966 0 100.127v219.746C0 342.034 17.966 360 40.127 360h339.746C402.034 360 420 342.034 420 319.873V100.127C420 77.966 402.034 60 379.873 60"/><path fill="#ff3515" stroke="#000" stroke-width=".246" d="M289.847 185.003c.567-2.555 1.729 1.314 1.729 1.314l3.071 3.426s3.258 27.644 3.634 29.735c.383 2.074-1.315.376-1.135 2.271.196 1.899 1.894 3.019.196 4.345-1.697 1.327-3.024 1.507-3.215 4.712-.18 3.215.568 29.48 1.135 33.831s.568 4.914 2.08 6.431c1.507 1.518 2.08 2.834 2.08 2.834-3.281-.251-13.638-.235-13.638-.235l-1.926-1.124s3.543-42.203 4.117-45.97c0 0 1.304-39.015 1.872-41.57Z"/><path fill="#fff" d="M209.812 296.039c14.61 0 16.635-1.07 30.736-3.849-1.728-4.647-2.265-8.44-4.029-13.73-1.763-5.279 6.552-5.039 12.601-5.279 6.049-.257 41.824.502 50.395.753 7.865.236 12.443.454 15.215 1.673.518.228 1.199 1.121.906 1.854-1.697 3.966-4.782 9.576-6.294 12.338-1.518 2.779-2.015 4.035-6.552 3.025l-1.004 3.03c-6.3-.252-8.085-1.649-6.551-3.778 2.299-3.192 3.024-5.301 3.024-5.301l-29.48.011c1.558 3.251 8.439 14.146 1.968 15.993 0 0-19.726 13.028-60.546 13.028-40.808 0-59.93-12.391-59.93-12.391-5.418-3.815-1.193-12.152.591-16.63l-29.475-.011s.497 2.271 3.014 5.301c2.522 3.019-.251 3.526-6.54 3.778l-1.01-3.03c-4.532 1.01-5.039-.246-6.551-3.025-1.507-2.762-4.845-8.644-6.295-12.338.307-.588.987-1.497 1.642-1.692 5.527-1.648 6.802-1.605 14.485-1.835 8.565-.251 44.346-1.01 50.395-.753 5.556-.29 13.353.657 12.595 5.279-1.396 5.472-2.055 8.494-3.773 13.365 14.102 2.767 15.865 4.214 30.48 4.214"/><path fill="#0077c8" d="M232.038 256.279c-.098.011-.197.011-.289.011.098 0 .196 0 .289-.011m.295-.033c-.066.011-.131.011-.197.022.06-.011.126-.011.197-.022m.595-.115c-.055.011-.104.039-.164.039.06-.011.109-.028.164-.039"/><path fill="#0077c8" d="m248.23 248.958-21.521.792s4.833 1.37 3.527 1.757c-.81.24-1.262-.125-2.522.252-1.076.321 2.11.488 3.281.758.701.162-.972.404-2.02.759-1.116.379 2.852.004 3.527.251.683.252-2.133.21-3.019.748-1.439.874 5.894-.141 5.044.246-1.577.717-3.764.584-5.044 1.256-1.414.741 4.782-.246 4.782-.246 4.579 1.404 9.16 2.8 13.954 3.347m-58.24-1.666c-.017.006-.033.006-.06.006.016 0 .038-.006.06-.006m-11.399 1.862c2.773.753 3.275 0 3.275 0s2.771-2.011 4.537-1.758c.751.108 1.18.608 1.534.668.489.082.797-1.104.475-1.176-1.395-.31-5.032-.306-3.778-.507 1.512-.243 6.052-.578 4.531-.754-1.733-.2-5.582.083-4.274-.507.955-.432 2.043-.375 3.27-.748.723-.22-4.677-.204-3.527-.497 1.062-.27 2.308-.526 3.234-.77.819-.215-4.174-.577-3.234-.748 1.558-.283 4.998-.391 4.286-.508-1.536-.252-6.698-.142-5.045-.491 1.613-.34 5.321-.729 7.452-1.181 1.316-.279 1.365-.588-3.668-.588-5.045 0-15.374-.759-15.374-.759h-.355c-.011 4.614-.016 8.091-.016 8.828v.322l.125-.082c4.286 0 3.773.508 6.546 1.256m10.99-1.714c-.027 0-.044.011-.066.011.022-.011.039-.011.066-.011m20.467-77.397H187.85c-2.954 5.858-7.998 10.383-14.091 12.66a20.92 20.92 0 0 1 4.559 13.07 20.96 20.96 0 0 1-6.393 15.035c.005 1.031.011 2.309.011 3.739l-.159.328s1.005-1.016 3.019-2.015c2.015-1.01 2.768-1.512 4.286-.502a14.4 14.4 0 0 0 3.019 1.518s2.014-1.267 3.778-2.517c1.763-1.267 1.255-2.009 3.527-1.518 2.265.508 7.806-1.004 9.826-2.003 2.015-1.01 3.019.24 4.783-2.02 1.763-2.277 1.763-2.015 4.28-3.036 2.522-.999 2.014-2.751 5.29-1.757 3.276.999 5.039.507 9.827 4.285 4.782 3.778 7.812 5.039 9.827 7.048a26.4 26.4 0 0 0 4.023 3.287s2.02-.759 4.035-1.769c2.009-.999 2.767-1.758 4.285-.748 1.512 1.01 2.768 1.25 2.768 1.25l-.158-.18c.005-1.288.011-2.435.011-3.39a20.93 20.93 0 0 1-1.835-28.094c-6.092-2.277-11.131-6.802-14.09-12.671h-22.28m-17.426-10.575s-.082 0-.224.016c2.015.333 6.917-.016 6.917-.016-2.266-.442-2.369-2.489-3.609-3.636-1.233-1.146-2.369-1.687-4.018-1.687-1.894 0-2.86 1.01-2.669 2.795.185 1.796 1.61 2.528 3.401 2.528m16.706-3.647c-1.234-1.146-2.37-1.676-4.013-1.676-1.054 0-1.96.759-3.216 1.168.153.148.328.323.535.508 1.234 1.158 1.338 3.205 3.609 3.647 0 0-.082 0-.224.016 2.015.333 6.917-.016 6.917-.016-2.271-.442-2.369-2.489-3.608-3.647m13.424 0c-1.234-1.146-2.369-1.676-4.018-1.676-1.048 0-1.954.759-3.21 1.168.153.148.327.323.535.508 1.234 1.158 1.332 3.205 3.603 3.647 0 0-.076 0-.218.016 2.009.333 6.917-.016 6.917-.016-2.271-.442-2.37-2.489-3.609-3.647"/><path fill="#0077c8" d="M224.755 163.961a15.92 15.92 0 0 0 2.484-8.576c0-8.861-7.179-16.023-16.034-16.023s-16.034 7.162-16.034 16.023c0 3.177.928 6.152 2.522 8.631l-.109.175c.246-.066.508-.115.764-.115 1.376 0 2.386.355 3.396 1.136l.426-.088c1.092-.431 1.921-1.048 2.877-1.048 1.332 0 2.32.328 3.308 1.065l.191.092c1.256-.409 2.162-1.179 3.216-1.179 1.381 0 2.402.377 3.439 1.19l.055-.011c1.255-.409 2.162-1.179 3.204-1.179 1.311 0 2.31.344 3.281 1.081l.208.098c1.114-.365 1.938-.999 2.844-1.146l-.06-.126"/><path fill="#ff3515" stroke="#000" stroke-width=".246" d="M124.33 189.21c-2.199 14.956-5.999 28.331-6.599 44.868 0 0 .523.479 2.083 1.21 0 0-.912 10.37-1.145 12.823-.091.962.663.915 1.89 1.501 0 0-1.89 9.653 1.703 13.808 3.592 4.171 5.858 9.057 7.747 8.876 1.882-.195 2.839-.579 2.839-.579.797-1.623 3.557-3.831 3.757-3.659 1.334-1.051.54-77.201-.088-79.352l-3.167-10.13z"/><path fill="#523178" d="M131.139 184.605c-.257 2.134-.176 2.384-.176 5.758 0 3.499.279 3.974.383 5.956.087 1.987-.192 1.987-.099 2.746.225 1.231.367 2.248.572-.044.481-1.337 1.028-5.159 1.694-5.721.666-.557.666-.087-.382-.846-1.038-.748-1.229-1.791-1.038-2.834.197-1.048 0-3.963.197-5.765.093-.95-.22-2.068-.346-2.538-.34 1.568-.838 3.381-.805 3.288"/><path fill="#0077c8" stroke="#000" stroke-width=".246" d="M129.697 166.98c1.217-1.867 2.025-2.505 2.872-2.364 0 0 1.162-.48 3.04-.78 1.889-.311 4.597-1.895 4.597-1.895v.055l9.581.699 7.114 3.319c1.692.279 3.614 4.903 5.508 6.89 1.889 1.987 2.085 3.343 2.085 4.571l-.42-.313c-.551-.677-1.102-.955-1.102-.955-3.118-.29-2.927 3.024-3.118 5.574.404.797 1.529 1.665 2.736 2.364l-.175.081s-1.42 6.049-2.271 8.31c-.841 2.271-25.408-3.647-25.408-3.647s-1.261-1.649-.502-4.663c.327-1.321.502-1.266-.251-1.899-.759-.628-.628-3.773-.628-3.773s-.628.868-.879 2.146c-.251 1.261-2.299 8.549-2.299 8.549-1.13 3.685-3.373 6.682-4.405 2.997l-1.692-14.047s3.723-8.325 5.617-11.219Z"/><path fill="#ffd100" d="M211.33 211.824a6.414 6.414 0 0 0 6.415-6.41 6.42 6.42 0 0 0-6.415-6.42c-3.537 0-6.409 2.877-6.409 6.42a6.413 6.413 0 0 0 6.409 6.41"/><path fill="#fff" d="m235.917 163.631-.746-39.587-.394-.485-.359.485-.759 39.574"/><path stroke="#000" stroke-width=".246" d="m235.917 163.631-.746-39.587-.394-.485-.359.485-.759 39.574"/><path fill="#ffd100" stroke="#000" stroke-width=".246" d="m233.793 169.08.028 2.404c.013 1.295 1.867 1.191 1.867.039 0-1.12-.071-2.607-.071-2.607z"/><path fill="#ffd100" d="M186.659 221.454c.224.016.437-1.321 1.114-1.589 1.807-.901 3.789-1.998 5.247-3.548l-.579.01c-2.828 1.933-5.858 3.287-9.314 3.942l-.557-.475c2.157-2.386 5.236-3.467 7.687-5.405l.159-.824-.443-.082-2.435.688-3.221.268-.12-.279 1.338-.813c.246-.503-.726-.262-1.032-.612l-.109-.409 3.467-1.447.169-.48c-.459-.361-1.332.354-1.753-.35.328-.573 1.24-.584 2.14-.791-.06-.11.574.333.437-.23.819-.207 1.976-.387 2.118-1.315-.698-.186-1.441.032-2.233-.05-1.921-.851.939-.66.65-1.561-1.605-.289-3.226-.011-5.006-.049-1.283-.087-3.172.202-3.783-.808.982-.349 2.222-.863 3.21-.912-.317.033-1.212-.436-1.332-.753l4.744-.279 4.04-.824c.415-.415-.224-.748-.361-.906-2.129-.737-4.52-1.829-6.971-2.724-.459-.322-1.218-.71-1.114-1.311 1.807-.218 3.352 1.278 5.017 1.038 1.796-.148 3.991 1.365 5.956.829-.049-.278-.158-.627-.556-.556-2.861-2.009-5.924-3.604-8.452-5.547-.092-.535.486-.284.585-.459l-.153-.365-3.347-2.13.459-.36c3.728.311 6.535 2.517 10.105 3.964.251.098.459-.383.213-.568-1.458-.939-2.883-1.807-4.198-3.019.775-1.283-1.125-1.572-1.01-2.664l.344-.028c3.548 2.004 7.419 5.241 11.257 6.677l.518-.289c-2.762-3.292-5.885-5.41-8.724-8.724.044-.366-.731-.868-.098-1.108l3.183 2.118.038-.743c2.435 1.447 4.559 3.936 6.83 5.132-1.36-1.862-1.824-3.871-3.341-5.71l-.503-1.338c.71-.349-.3-.726-.06-1.217.142-.301.443.109.672.098l5.618 6.753.453-.322-.213-.519c.174-.218-.148-.387-.295-.376-.693-1.633-1.458-2.697-2.009-4.319.617-.409.764 1.07 1.381.563-.224-.743.541-.459.71-.939.104-.612-.71-1.867-.169-2.686.507-.093.742.578.939.824.627 2.342 1.676 4.586 3.395 6.606.95.666.568 1.763 1.758 2.042 1.234-.885 1.043-2.665 2.047-3.882.563.06 1.103.311 1.349.906l.928-.546.835.732c.339-.033.754-.988 1.185-.453.284 1.239-.153 2.566-.41 3.876l.224.366.235-.126 3.543-8.282.557-.628.317.23-.939 3.466c.316.262.649-.349.911.022-.677 1.332.677.038.978.448.06 1.905-.983 3.538-.328 4.87.622.262 1.534-.115 1.938-.666 1.032-1.955 2.517-4.024 3.418-5.372l.573-.011c-.906 2.445-2.195 4.504-2.839 6.687.339.29.3-.737.863-.677l.365-.529c1.021-1.365 2.222-2.304 3.609-3.221.24-.502.934-.934 1.518-1.354.731.191.273.901.36 1.141l.344-.027c.644.355.011.906.197 1.354.371.071 1.026-.727 1.544-.53l.017.53-2.206 2.844-.245.175-1.245 1.375-1.638 2.55.175.448c1.812-1.677 3.647-2.124 5.306-3.767l1.054-.688.704-.148c.159.999 1.032.988.35 1.698l.671.077.311.3c-1.414.791-2.364 2.184-3.887 2.588-1.479 1.015-2.926 1.015-3.887 2.243l.202.508.18-.196c2.02-.459 3.795-1.043 6.044-1.529.606-.688 1.25-.617 1.987-.797.77-.153.464.568.382.988.219.131 1.381-.12 1.136.797l-.481.562.595.475c-.742.874-1.801 1.594-2.533 1.709-2.02.393-3.494.688-5.317 1.37l-.038.377 1.304-.06c2.08.033 4.646-1.217 7.065-1.021.349.644.497.655.977 1.196l-.524.628c.224.404 1.354.447.906 1.124-3.259.251-5.519.393-8.287.748l-.754.601.465.6.333.088c2.287-.437 4.416.283 6.911.742l-.022.644c-.256.623.546.552.743.874l-.672.606c-.316.84.77.278.573 1.01l-1.561.404-6.453-.415-.65.333c.95.415 1.939 1.507 2.834 1.594 1.692 1.55 4.313 2.02 6.289 3.336.273.371.715.458.606.753l.262.715c-.038 0-.628.158-.813-.164-2.779-.644-5.018-1.414-7.704-2.194l.186.322c.666.551-.404.6-.442.977 2.107 1.927 4.504 3.33 7.414 4.226 1.534.24 2.26 1.938 3.739 2.019l.481.814"/><path fill="#b3875a" stroke="#000" stroke-width=".246" d="M256.326 192.263c-.078 0-1.41-4.221-1.538-5.847l3.487 1.501s-.338 2.735-1.949 4.346Z"/><path fill="#ffd9ee" d="M253.23 178.003s-3.024-2.457-5.863-5.099c-2.833-2.648-4.154-3.407-5.672-5.307-1.518-1.883-3.344-2.425-4.59-2.577-1.448-.177-3.325-.034-4.215-.076-.724-.034-1.218.194-1.017.956.105.21.217.212.265.373.05.171-.194.257-.209.54-.013.236.266.41.265.579-.001.123-.172.149-.179.394-.008.293.165.374.174.535.007.121-.07.22-.052.321.014.082.151.455.679.506.686.067 1.568-.007 1.568-.007l.249.143c.152.125.707-.196.707-.196.239-.196.289-.24.337.473.267.177.736.386 1.558.597 2.107.54 1.91-.262 3.046 1.081 1.141 1.354 8.98 12.18 12.065 14.123 3.079 1.96 6.235 2.659 6.235 2.659-1.319-2.471 7.561-7.605-3.955-7.413l-1.39-2.605"/><path stroke="#000" stroke-width=".246" d="M253.23 178.003s-3.024-2.457-5.863-5.099c-2.833-2.648-4.154-3.407-5.672-5.307-1.518-1.883-3.344-2.425-4.59-2.577-1.448-.177-3.325-.034-4.215-.076-.724-.034-1.218.194-1.017.956.105.21.217.212.265.373.05.171-.194.257-.209.54-.013.236.266.41.265.579-.001.123-.172.149-.179.394-.008.293.165.374.174.535.007.121-.07.22-.052.321.014.082.151.455.679.506.686.067 1.568-.007 1.568-.007l.249.143c.152.125.707-.196.707-.196.239-.196.289-.24.337.473.267.177.736.386 1.558.597 2.107.54 1.91-.262 3.046 1.081 1.141 1.354 8.98 12.18 12.065 14.123 3.079 1.96 6.235 2.659 6.235 2.659-1.319-2.471 7.561-7.605-3.955-7.413l-1.39-2.605"/><path fill="#bbbcbc" d="M296.627 161.172c0-.53-.415-.95-.934-.95a.937.937 0 0 0-.933.95.94.94 0 0 0 .415.775l-.029 2.423 1.141-.104-.059-2.336a.92.92 0 0 0 .404-.758"/><path stroke="#000" stroke-width=".246" d="M296.627 161.172c0-.53-.415-.95-.934-.95a.937.937 0 0 0-.933.95.94.94 0 0 0 .415.775l-.029 2.423 1.141-.104-.059-2.336a.92.92 0 0 0 .404-.758"/><path fill="#ffd9ee" stroke="#000" stroke-width=".246" d="M294.984 177.424c.382-2.167 1.327-4.52 1.327-8.309 0 0-1.141 0-1.327-1.037-.191-1.027-.191-1.889-.191-1.889s-1.037-.279-.753-.655l.185-.29c-.284-.36-1.135-1.042 0-1.119 1.141-.098 1.987-.098 2.271-.098.279 0 .377 0 1.13.857.759.83 1.136.661 1.42 2.457.289 1.785.666 6.229-.377 10.383-1.043 4.155-2.741 10.673-4.346 12.284-1.61 1.605-2.833 1.326-3.024-.65a254 254 0 0 0-.278-2.931c.66-.475 3.963-9.003 3.963-9.003Z"/><path fill="#ffd9ee" d="M140.212 161.996s1.07-.568 1.387-1.447c.316-.868.256-1.446.191-3.264-.06-1.829-.126-2.206-.126-2.206s-1.07.502-1.135-.508c-.06-1.01.06-2.14.06-2.14s-.237-.582.085-1.663c.311-1.07 1.758-3.024 2.642-3.276.879-.251 2.206-1.315 2.206-1.315l3.165 1.203c1.004.376 1.467 1.404 1.718 3.484.245 2.075.06 2.261-.186 3.647-.251 1.392-.633 1.518-.693 3.653-.055 2.145-.388 3.455.436 5.049l-.185-.507s-.066 2.265-.442 3.838c-.377 1.572.06 2.074-1.19 2.074-1.262 0-3.402.06-4.221.131-.818.066-1.07.508-1.894-1.321-.819-1.823-1.829-5.421-1.829-5.421"/><path fill="#61619e" d="M126.138 188.299s2.485 1.121 2.43 2.772c0 0 .059-6.164-.225-7.862 0 0-.261 3.496-2.072 5.194"/><path fill="#f2a900" stroke="#000" stroke-width=".246" d="M123.015 146.732c-1.321 0-1.414-.382-1.414-.382s-.191-.759-.857-1.605c-.087-.95-.753-2.277-.753-2.277.092-.47.382-1.698-.093-2.55 1.042-.18 1.512-1.026 1.987-2.074.469-1.034.284-.652-.661-.746-.939-.094-2.828-.194-3.204 2.16-1.043 1.043-1.605 2.178-1.229 3.499-.562 1.698-.092 1.895.186 2.277-.377.66.082 1.408.082 1.408-.557 1.24-.459 1.988 0 2.834.054.109.104.153.142.196a1 1 0 0 0-.033.093c-.469 1.136-.642 1.983-.666 3.019-.004.172.441.25.753.197.754-.093 2.364-.579 3.303-.956l1.136-.649c2.173-1.507 3.112-2.648 3.396-3.494.158-.481.229-.874-.162-.907z"/><path fill="#000" d="M122.834 147.507c-1.327.442-1.823 1.141-2.964 1.709-1.136.557-.692.653-1.07.939-.398.299-.628.371-1.256.808-.409.284-.442.633-.622.955-.192.311.18.311.622-.125.437-.448.813-.448 2.14-1.071.573-.278 2.145-1.064 2.145-1.064.808-.251.748.317 1.316-.688.431-.77.426-.999.568-1.25.338-.109.688-.229.939-.393.568-.377-.497-.257-1.818.18"/><path fill="#fff" stroke="#000" stroke-width=".246" d="m122.688 159.151-1.313-9.906-.852.469 1.253 9.591z"/><path fill="#ffd9ee" stroke="#000" stroke-width=".246" d="M124.03 189.145c-2.479-1.059-4.406-5.153-5.295-12.223-.879-7.048-1.764-11.579-.754-13.228 1.01-1.627 1.261-3.893 1.638-4.772.377-.889.377-2.145 1.136-3.155.753-.999 2.014-1.638 1.386-.748-.633.884-.633.748-1.015 2.266-.371 1.506-.503 2.385.633 1.889 1.13-.503 3.088-.071 2.642.627-.305.479-.502.508-.502.508s1.13.424.371.999c-.282.104-.371.131-.371.131s1.005.377.502.879c-.269.184-.376.24-.376.24.422.272.627.77-.126 1.147 0 0-1.015.868-2.145 2.265-1.136 1.387-1.513.634-1.01 2.648.507 2.015 3.537 9.696 3.537 9.696 2.14-.382 4.63.721 4.155 4.024-.279 3.88-2.371 7.677-4.406 6.807Z"/><path fill="#f2a900" d="M214.491 210.983a6.39 6.39 0 0 0 3.254-5.58 6.42 6.42 0 0 0-6.415-6.42c-3.537 0-6.409 2.877-6.409 6.42a6.4 6.4 0 0 0 5.394 6.322"/><path stroke="#d18644" stroke-width=".246" d="M214.491 210.983a6.39 6.39 0 0 0 3.254-5.58 6.42 6.42 0 0 0-6.415-6.42c-3.537 0-6.409 2.877-6.409 6.42a6.4 6.4 0 0 0 5.394 6.322"/><path fill="#197352" d="M171.778 224.806s1.004-.999 3.019-2.009c2.009-1.016 2.768-1.518 4.28-.508a13.7 13.7 0 0 0 3.019 1.507s2.02-1.267 3.783-2.528c1.764-1.256 1.256-2.014 3.527-1.507 2.266.508 7.807-1.004 9.827-2.014 2.014-.999 3.019.262 4.782-2.009 1.763-2.266 1.763-2.026 4.286-3.025s2.009-2.762 5.29-1.769c3.27 1.01 5.033.508 9.821 4.297 4.783 3.772 7.812 5.039 9.827 7.048s4.034 3.287 4.034 3.287 2.015-.77 4.029-1.769c2.009-1.01 2.768-1.758 4.286-.759 1.512 1.01 2.768 1.25 2.768 1.25v18.403l-76.344.508-.256-18.403"/><path stroke="#000" stroke-width=".409" d="M171.778 224.806s1.004-.999 3.019-2.009c2.009-1.016 2.768-1.518 4.28-.508a13.7 13.7 0 0 0 3.019 1.507s2.02-1.267 3.783-2.528c1.764-1.256 1.256-2.014 3.527-1.507 2.266.508 7.807-1.004 9.827-2.014 2.014-.999 3.019.262 4.782-2.009 1.763-2.266 1.763-2.026 4.286-3.025s2.009-2.762 5.29-1.769c3.27 1.01 5.033.508 9.821 4.297 4.783 3.772 7.812 5.039 9.827 7.048s4.034 3.287 4.034 3.287 2.015-.77 4.029-1.769c2.009-1.01 2.768-1.758 4.286-.759 1.512 1.01 2.768 1.25 2.768 1.25v18.403l-76.344.508-.256-18.403"/><path fill="#bbbcbc" stroke="#000" stroke-width=".246" d="m296.404 169.115.459 7.195c-.639.325-1.347.374-2.163-.01l.47-7.644c.394.24.79.468 1.234.459Z"/><path fill="#2c5234" d="M188.15 262.852c2.773-.24 3.527.764 5.798.497 2.265-.252 9.575-2.255 9.575-2.255 3.778-1.769-2.02-2.277-2.02-2.277l-2.768-.251s-.502-.251-2.773-1.758c-2.271-1.517-2.768-.759-5.541.251-.153.071-1.559.589-2.375.601-.557.008-.884-.251-1.632-.36-1.764-.241-4.542 1.774-4.542 1.774s-.503.753-3.265 0c-2.773-.759-2.271-1.267-6.551-1.267l-.12.082c0 .219 0 .677.01.999.104.066.241.148.437.279 1.07.578 4.908 2.773 9.909 5.639.764-.398 3.527-1.736 5.891-1.954m59.43-4.286s-3.527.24-3.019-2.276c.508-2.495-2.009.518-2.009.518s-1.769-.262-5.296-2.527c-3.526-2.255-2.271 1.01-2.271 1.01s-2.882.915-3.27.999c-1.714.371-3.303 1.262-5.039 1.517-.994.147-1.25.999-3.013 0-1.775-1.01-4.035-2.02-6.301-1.768-2.265.251-3.526 3.526-3.526 3.526s-1.256 1.01.251 2.528c1.507 1.512-.508.999-2.768 1.512-2.271.492-2.779 0-4.788 0-5.541.251-11.841 2.512-6.049 3.27 5.798.748 15.625.508 18.398.748 2.768.251-1.518 2.528-7.31 2.528-5.798 0-11.339-.508-11.836-1.518-.507-1.01-4.034-2.26-4.788-1.01-.758 1.278-4.185 1.228-4.884 1.661 7.066 4.064 14.72 8.479 19.969 11.507h.071c11.535-6.671 34.776-20.036 37.68-21.635.202-.109.333-.202.437-.268l-.612-.322"/><path stroke="#000" stroke-width=".57" d="M150.863 286.786c-1.183 3.498-6.374 12.56-.581 16.641 0 0 18.881 12.573 59.695 12.573 40.82 0 55.769-11.261 60.77-13.221 5.178-2.028 2.078-8.923-1.968-15.993m-117.916 0-29.475-.011m29.475.011c1.673-3.745 2.765-6.738 6.3-5.296 4.034 1.758 23.688 7.316 25.954-3.019m-61.729 8.304s.502 2.282 3.019 5.301c2.522 3.019-.251 3.527-6.546 3.778l-1.01-3.036m4.537-6.043c-10.605.053-11.522 2.134-10.009 4.896m5.472 1.147c-4.753.62-5.039-.24-6.546-3.019-1.506-2.762-6.57-11.595-6.294-12.338 1.02-2.749 7.561-3.27 16.121-3.527 2.593-.076 7.682-.191 13.676-.327l6.311-.131c5.061-.093 10.846-.18 15.606-.251m-38.874 19.593c3.778-.24 5.515-2.57 8.087-.023m50.143-19.439c4.88.267 8.707 2.017 8.025 5.115-.974 4.42-2.254 8.321-3.773 13.348 14.107 2.757 16.133 4.215 30.742 4.215s16.372-1.07 30.485-3.843c-1.591-4.765-2.742-9.109-4.029-13.731-1.486-5.336 6.551-5.039 12.6-5.284 1.146-.039 3.363-.06 21.573.204 21.234.363 26.234.478 28.811.554 8.566.257 17.306.474 16.122 3.527-1.548 3.99-4.788 9.576-6.289 12.338-1.518 2.779-2.015 4.035-6.552 3.036m-149.091-11.027c-2.012 3.639 5.729 6.747 25.634 10.011m89.44-5.033 29.486-.011m-29.486.011c-2.009-3.538-2.265-7.059-6.294-5.296-4.029 1.758-23.689 7.316-25.954-3.019m61.734 8.304s-1.87 3.626-3.024 5.301m3.024-5.301c10.605-.07 11.473 2.177 9.955 4.939m-12.979.362c-1.54 2.235.251 3.527 6.551 3.778l1.004-3.019m-7.555-.759c1.427-2.296 3.986-.321 7.555.759m-36.785-11.094c1.513 4.035-5.918 5.804-25.451 10.46"/><path fill="#ffd9ee" stroke="#000" stroke-width=".246" d="M137.482 269.66s-1.365.564-2.178 1.501c-.803.925-1.886.949-.815 1.787 1.14.593 2.186 1.835 4.109.326 1.234-.459 3.632-3.082 3.632-3.082l-1.655-.628-1.048-.522-.688-.272zm144.951 5.652c1.117.418 2.493.273 2.948.186.944-.191 1.314-.78.956-1.113-.961-.894-.585-.714-1.185-1.04-.628-.341-3.043-1.914-2.791-2.167-.401-.853-2.599 2.012-2.599 2.012.58.664 1.495 1.682 2.671 2.122Z"/><path fill="#ffd9ee" d="m259.501 276.569 4.632-4.495s-5.293-3.553-5.67-3.739c-.382-.18-2.318 4.65-2.978 5.578-.661.955 4.016 2.656 4.016 2.656"/><path fill="#2c5234" d="M220.66 232.624s1.512-2.277-2.271-2.528c-3.772-.257-4.782-1.256-8.058-.759-3.276.502-5.541.502-5.541-.999 0-1.512 1.763-2.014 3.275-1.004 1.518 1.004 1.764-.257 3.527.24 1.769.497 2.266.497 3.532-.497 1.256-1.01 1.256-1.261 3.271-1.01 2.014.24 2.522 0-.503-1.261-3.019-1.267-3.275-.508-1.763-3.036 1.518-2.5 1.004-4.012-1.256-3.761-2.271.24-2.271 1.245-3.281 3.019-1.004 1.752 2.015 2.768-2.009 3.778-4.029 1.01-8.309.251-10.078.251-1.763 0-1.763-.508-3.019 1.758-1.261 2.271-1.261 2.014-5.29 2.533-4.034.491-4.034 1.507-3.024 2.249 1.01.77-.246 1.016-2.015 1.016-1.763 0-3.27.251-5.033.502s-.508 1.769-.508 1.769 2.522.759-1.005 1.01c-3.526.245-9.068 2.762-4.787 3.019 4.285.24 7.053.24 7.812 1.25.759.999 1.763 2.528 1.763 2.528h-12.343v-11.596c3.778-2.009 6.551-3.761 9.073-3.521 2.517.251 4.28 2.014 5.792 1.004 1.518-1.004 3.527-1.244 3.527-1.244s3.532 1.004 4.035.24c.502-.748 1.501-2.277 1.501-2.277s-3.014-1.501-4.024-1.758c-1.004-.251-1.517-1.01.503-1.501 2.014-.508.507-2.528.507-2.528l2.271-.256s1.507 2.014.748 3.275c2.271 0 2.02-.759 4.543 1.01 2.511 1.758 5.29.508 5.29.508s5.535-2.277 4.782-4.793c-.759-2.506-1.763-4.783.759-5.034 2.522-.256 2.266 1.25 2.266 1.25s2.522-.999 4.542-.999c2.009 0 3.521-.507 3.521-.507l2.773 2.014c-4.034.502-4.536 0-5.29 2.031-.759 2.004-1.004 3.521-1.512 4.269-.508.759 2.009.759 2.009.759s2.015.502 3.778-1.507c1.763-2.02 3.783-3.521 3.783-3.521s3.202 1.882 4.965 3.399c1.758 1.507 3.861 3.553 5.488 4.473 1.408 1.139 3.202 2.861 5.755 3.734 2.22.933 4.857 1.602 4.857 1.602l-.073 3.663s-4.117-2.267-7.147-.258c-3.019 2.02-2.773.77-5.044.77-2.266 0-5.034-.77-6.546-.77-1.507 0-5.787 1.517-7.807 1.517-2.014 0-2.266 0-5.039-1.015-2.762-1.01-2.517-.24-4.28.508-1.763.759-3.276 0-5.798 1.507s-4.285.764-4.285.764 2.02-.764.251-2.539c-1.764-1.752-1.005-3.019-1.005-3.019s-2.522-3.767 0-3.019c2.517.77 2.774 2.271 6.044 2.779 3.281.508 7.812.508 7.812.508h5.296"/><path fill="#63666a" d="M208.721 144.744c-.377-.769-.186-1.031.098-1.697.273-.683.18-.863.088-1.24-.088-.382-.852-.851.278-.567 1.136.289.944.098 1.605.174.666.104 1.043.574.759 1.043-.273.47 0 .759-.759 1.136-.748.371-1.125.562-1.316.851-.185.29-.758.29-.758.29m3.406-.841c.475-.18 1.141 0 .568.278-.568.273-.568-.278-.568-.278m-5.197.18c.284-.191.093-.48.475-.557.377-.093.377-.093.278-.671-.087-.568.088-.661-.469-.939-.568-.279-1.043-.377-.661.082.377.469.284.955.284.955l-.666.65s.475.671.759.475m8.216 2.948c0-.486.29-.677-.185-1.043-.475-.382-.858-.939-.192-.562.667.376 1.704.742 1.136 1.228-.562.469-.759.377-.759.377"/><path fill="#63666a" d="M214.295 146.819c0-.568.562-1.037.469-.48-.093.573-.469.48-.469.48m-13.774 7.512c.377-.213.071-.431.497-.333.431.093.382.093.567.311.191.219.306.421-.071.317-.382-.087-.278.044-.546-.044-.256-.082-.447-.251-.447-.251m-.519-.944c-.153-.666-.377-.776-.66-.677-.29.092-.617-.279-.262-.279.354 0 .382-.158.873.339.502.502.994 1.157.568 1.07-.426-.082-.475-.246-.519-.453"/><path fill="#63666a" d="M220.999 164.387c-.093-.841 0-1.217.382-1.987.377-.732.753-1.501.093-1.987-.661-.459-.568-.732-.568-1.218 0-.469.661-.851-.469-.939-1.141-.092-1.797.186-2.741.574-.945.365-1.611 0-2.173-.574-.568-.562-.759-1.042-.944-1.414-.191-.376.092-.955-.099-1.616-.174-.655-.082-1.228.377-1.987.481-.748.95-1.228.95-1.228l.278-.835s-.185-.383.666-.475c.852-.104 1.322-.486 1.895-.765.562-.278.562-.093.846.279.273.382.371.191 1.037.382.655.196.847.093.754-.191-.099-.279.093-.279.66-.382.568-.088 1.13-.279.945-.928-.186-.677-.186-.579-.661-.377-.469.18-.469 0-.753-.393-.284-.377-.377-.655 0-.945.371-.273.944-.562.185-.939-.758-.371-1.703-.48-1.228.29.47.748.753.748.377 1.304-.377.574.284 1.414-.284.863-.568-.573.284-.95-1.136-1.419-1.414-.47-1.414 0-.655.376.754.382 1.229.754 1.13 1.13-.082.372-.371-.087-.371-.087s-.284-.18-.944-.573c-.661-.377-1.262-.29-1.322.393-.098 1.026.284 1.217-.758 1.496-1.038.289-.945.098-1.13-.557-.197-.672-.667-1.141.278-1.141.95 0 1.135-.279.666-.65-.475-.387-.475-.387-.098-.955.382-.573.284-1.032 1.042-1.321.754-.29.754-.759.661-1.038-.093-.278-.377-.382-.852-.66-.469-.29-1.228-1.125-.851-.481.382.661.753 1.043.944 1.24.186.18-.191.731-.562.262-.382-.459-.382.207-.759-.17-.377-.393-.666-.949-.568-1.517.099-.563-.382-1.043.377-1.043s1.135 0 1.135-.557c0-.568.186-.387-1.042-.857-1.229-.469-2.266-.65-2.359-1.119v-.153c5.705.759 10.46 4.526 12.628 9.641l-.159-.431s0 .759.099 1.507c.087.759.18 1.43-.099 2.369-.273.955-.464.087-.846-.655-.376-.753-1.507-1.982-1.507-1.982l-.382.268s.945 1.228 1.611 2.178c.66.95 1.032 1.507 1.032 1.507l.562-.754s.196 2.08-.186 3.2c-.376 1.13-.464 1.517-.655 3.215-.185 1.698-.382 1.321-.66 2.08-.279.748-.814 1.819-1.371 2.851l-1.439.807-1.119-.772m-19.224.433s-.093-.758-.945-1.605c-.852-.84-1.135-1.687-1.518-2.746-.376-1.037-.469-1.605-.087-2.265.377-.65.655-.759 0-1.327-.661-.551-.95-.36-1.037-1.61-.093-1.218-.655-1.507-1.038-2.25-.376-.764-.66-.857-.191-2.467.475-1.605.284-3.112.666-3.762l-.436.939a16.04 16.04 0 0 1 8.227-7.37l.065.41c-.038.223-.016.578.262 1.091.563 1.049.661.847-.66 1.229-1.321.366-1.605.366-1.414 1.228.186.863 0 1.425 0 1.425s.464-.469.846-.759c.377-.289.377-.469.748-.857.382-.36.573.098.857.191.284.109.093-.382.382.956.273 1.321.557 2.729.088 2.26-.47-.481-.088-.661-.852-.759-.753-.093-1.037.185-1.037.185s.655.661 0 .863c-.655.169-.655-.202-1.032.169-.382.377-.759.109-1.332.759-.562.666-1.228 1.136-1.228 1.136s-.656-.077-.656.759c0 .851-.289 1.228-.382.649-.093-.557-.093-.846-.851-1.135-.754-.273-1.327-.47-1.513.578-.191 1.032-.087 2.544.377 1.988.475-.579 1.037-.497.595.158-.606.895-.3.966-.027 1.337.284.383.191.29.098.857-.098.574 0 1.043.279 1.043.283 0 .382.388.851 0 .464-.382.95-.382 1.512.088.563.469 1.136.098 1.791 1.141.661 1.037.759.835 1.327 1.135.562.279.093-.289 1.037 1.032s1.136 1.135 2.08 1.518c.95.365 3.024.748 2.08 1.594-.944.862-.852.759-.944 1.332-.093.573-.325.885-.325.885s-1.504-1.049-2.886-.918c-1.381.126-3.646 1.25-3.646 1.25l-.131-.371"/><path fill="#fff" stroke="#000" stroke-width=".246" d="m195.302 243.389 5.197-.114 1.13 3.133c-1.037 0-1.802-.469-1.802-.469l-5.186.087c1.182-1.747.661-2.637.661-2.637Zm-5.631-2.238-4.005-.322s.377-1.512-.475-3.292l4.556.721c.318.784.325 1.997-.076 2.893Zm-67.442-75.729s9.231 105.608 9.482 107.126c.058.342.046 1.078.247 1.127.75.187 1.145-.117 1.145-.117l-9.957-109.053z"/><path fill="#fff" stroke="#000" stroke-width=".246" d="M251.211 265.303c4.253-2.353 4.062-5.186 4.062-7.736v-39.684l-1.305-1.424a13.87 13.87 0 0 1-5.099-10.755c0-4.892 2.5-9.188 6.311-11.667l1.332-.895-3.336-6c-7.807-1.01-14.096-7.316-16.072-14.2h-54.053c-1.971 7.458-8.26 13.19-16.072 14.2l-3.331 6 1.327.895a13.9 13.9 0 0 1 6.306 11.667c0 4.334-1.988 8.194-5.099 10.755l-1.305 1.424v39.684c0 2.55-.191 5.372 4.056 7.736 4.247 2.37 41.027 23.597 41.027 23.597s36.998-21.227 41.251-23.597Zm-18.9-85.351a26 26 0 0 0 14.09 12.682 20.84 20.84 0 0 0-4.564 13.059c0 5.656 2.32 11.109 6.388 15.035-.039 8.773.016 34.694.016 36.839v.322c0 .219 0 .677-.016 1-.099.065-.23.147-.426.267-2.905 1.6-26.303 14.964-37.839 21.635-11.541-6.671-34.7-20.035-37.604-21.635-.196-.109-.333-.202-.431-.267-.017-.323-.017-.781-.017-1v-.322c0-2.145.06-28.066.017-36.839a20.96 20.96 0 0 0 6.393-15.035c0-4.794-1.611-9.358-4.559-13.059 6.093-2.277 11.132-6.813 14.091-12.682h44.461Z"/><path fill="#ffd90f" d="M250.605 264.239c3.445-1.917 3.44-3.975 3.434-6.361v-.311c0-2.375-.027-34.841-.005-39.203l-.934-1.027a15.04 15.04 0 0 1-5.464-11.633c0-5.132 2.565-9.887 6.867-12.688-.005 0 .164-.115.377-.262l-2.489-4.477c-7.654-1.228-13.883-7.233-16.215-14.107h-52.202c-2.325 7.436-8.56 12.879-16.214 14.107l-2.489 4.477c.218.147.382.262.376.262a15.09 15.09 0 0 1 6.874 12.688c0 4.52-1.999 8.756-5.471 11.633l-.933 1.027c.022 4.362-.006 36.828-.006 39.203v.311c-.005 2.386-.011 4.433 3.434 6.361 3.936 2.178 35.988 20.692 40.416 23.252 4.427-2.56 36.708-21.074 40.644-23.252m-17.54-85.505a24.8 24.8 0 0 0 15.455 13.343 19.66 19.66 0 0 0-5.465 13.627c0 5.541 2.32 10.787 6.399 14.51-.044 8.926.016 35.208.016 37.353v.322c.005.552.005 1.398-.087 1.616-.011.011-.197.279-.989.737-3.095 1.698-27.602 15.718-38.433 21.969-10.826-6.268-35.109-20.271-38.188-21.969-.797-.458-.983-.726-.999-.737-.082-.229-.082-1.064-.082-1.616v-.322c0-2.145.054-28.427.011-37.353a19.63 19.63 0 0 0 6.392-14.51c0-5.17-1.992-10.013-5.464-13.627a24.8 24.8 0 0 0 15.455-13.343h45.979"/><path fill="#ffd100" d="M202.377 165.741c-1.234-1.146-2.369-1.676-4.023-1.676-1.054 0-1.949.759-3.21 1.168.152.148.327.323.529.508 1.234 1.158 1.343 3.205 3.609 3.647 0 0-.077 0-.219.016 2.015.333 6.923-.016 6.923-.016-2.271-.442-2.37-2.489-3.609-3.647M215.785 165.741c-1.234-1.146-2.364-1.676-4.013-1.676-1.053 0-1.954.759-3.215 1.168.153.148.333.323.535.508 1.233 1.158 1.343 3.205 3.608 3.647 0 0-.082 0-.224.016 2.02.333 6.923-.016 6.923-.016-2.271-.442-2.369-2.489-3.614-3.647M225.186 164.065c-1.053 0-1.949.759-3.215 1.168.158.148.327.323.535.508 1.234 1.158 1.343 3.205 3.608 3.647 0 0-.082 0-.223.016 2.549.159 4.465.47 4.465-1.725 0-2.194-2.429-3.455-5.17-3.603"/><path fill="#f2a900" d="M202.77 109.273c-2.271-.241-2.648 1.629-2.648 1.629s1.518-.624 2.522-.242c.251.095.503.112.732.183l.267-.905-.868-.665"/><path fill="#ff3515" stroke="#000" stroke-width=".246" d="M261.54 168.356s-.944.759-2.08 1.321c-1.135.563-1.135 1.698-1.512 3.975-.377 2.26-1.507 1.124-3.014 2.26-1.512 1.136-1.779 1.284-1.894 2.26-.099.841 0 .77 1.136 2.271 1.135 1.518 3.492.278 3.492.278.947.946 4.394-2.576 3.994-4.685-.186-1.894 3.547-8.903 1.422-9.561z"/><path fill="#f2a900" stroke="#000" stroke-width=".246" d="M270.128 163.923c-2.129.393-6.333 1.321-7.174 2.735 0 0-.376 2.168-1.321 3.489-.939 1.321-1.067 1.631-1.321 2.555-.552 2.006 1.512 4.914-.371 6.229-1.894 1.321-2.26.642-2.457 1.6-.73 3.557 1.229 5.203-1.135 11.809 0 0 1.135 2.549 2.271 1.61 1.135-.945.185-1.807 1.61-4.16 1.408-2.369 6.6-9.63 6.6-9.63s1.987 5.382 1.136 7.659c-.846 2.26-1.136 3.395-.371 3.865 1.228-1.136 2.364-1.518 5.006-1.988.284-.06.529-.098.753-.136l2.391-.3c.432-.011.956-.01 1.769-.01 2.55 0 4.061.108 5.481.567 1.419.469 1.884.568 1.884.568s.19-.191.758-.846c.562-.666 3.303-1.141 3.685 1.135l.563 1.501s0-3.106.573-5.672c.562-2.544.18.196.846 0 .661-.191.945-1.316 1.414-2.817.475-1.518 1.327-1.894 1.895-3.794.369-1.233.886-1.845.627-2.282-.136-.229-.622-.243-1.155-.63-1.553-1.15-2.218-2.772-2.966-5.119-.754-2.364-1.327-3.215-1.89-4.351-.573-1.457-6.141-3.205-6.141-3.205l-4.748-2.518z"/><path fill="#b3875a" d="M277.323 175.437s-.264 2.468-1.177 3.079c-1.534 1.024-5.533-.153-5.533-.153s2.064.889 3.38 1.08c1.327.197 3.322-.119 3.322-.119l.274-3.308"/><path fill="#000" d="M258.234 275.355c.108-.209.2-.368.279-.493a2.8 2.8 0 0 0 .233-.491s-.226.171-.372.404a7 7 0 0 0-.286.506zM257.4 274.808c.17-.218.284-.378.367-.502.139-.208.194-.462.194-.462s-.196.17-.33.371c-.08.12-.192.277-.36.493zM256.596 274.107c.165-.169.267-.308.339-.426.065-.106.092-.238.113-.315.023-.083.047-.141.047-.141s-.189.188-.3.371c-.065.106-.16.236-.316.396z"/><path fill="#d18644" d="M277.793 273.525s1.506 1.518 3.019 2.167c1.512.666 2.074.748 3.302.579 1.234-.197 2.359-.382 2.359-.382-.061-.449.057-1.003-.077-1.011-.196.185-.44.269-.665.038-.147-.15-.37.213-.722.068-.082-.033-.386.427-.648.165-.122-.122-.492.293-.716.167-.666-.383-.284.185-1.419-.383-1.136-.562-2.179-1.697-2.179-1.697l2.08-1.698c.379-.304.238-1.735-2.034-.197-2.173 1.61-2.306 2.173-2.306 2.173"/><path stroke="#000" stroke-width=".246" d="M277.793 273.525s1.506 1.518 3.019 2.167c1.512.666 2.074.748 3.302.579 1.234-.197 2.359-.382 2.359-.382-.061-.449.057-1.003-.077-1.011-.196.185-.44.269-.665.038-.147-.15-.37.213-.722.068-.082-.033-.386.427-.648.165-.122-.122-.492.293-.716.167-.666-.383-.284.185-1.419-.383-1.136-.562-2.179-1.697-2.179-1.697l2.08-1.698c.379-.304.238-1.735-2.034-.197-2.173 1.61-2.306 2.173-2.306 2.173"/><path fill="#d18644" stroke="#000" stroke-width=".246" d="m261.725 273.432-1.321-1.425 1.023-1.592-.688-.472-1.094 1.775-2.307-.765.798-1.607s-1.379.623-1.875 1.93c-.475.84-1.797 3.019-1.038 3.668.748.666 1.884 2.173 2.926 2.173 1.038 0 1.42-.186 2.834-1.228s3.205-3.019 3.205-3.019l-1.09-1.019zm-3.042-.385c-.273.852-.102 1.136-.102 1.136s.415-.128.89-.598c.464-.486.939-.35 1.228-.06.278.289.661.469.661.469s-1.035 2.4-2.076 2.34c-.247-.014-.198-.589-.425-.607-.285-.022-.485-.096-.628-.324-.159-.254-.4-.08-.637-.25-.171-.122-.167-.156-.293-.328-.158-.217-.677.01-.755-.671-.026-.226-.289-.463-.285-.722.01-.687.815-1.893.815-1.893s1.897.662 1.607 1.508Z"/><path fill="#f2a900" stroke="#000" stroke-width=".246" d="M288.419 193.701c-.945-1.13-7.788-1.65-11.004-1.464-3.21.191-5.443.148-7.523.722-2.074.562-3.433 2.798-3.433 2.798s-.383 2.265-1.322 4.345c-.949 2.075-.949 4.914-1.697 11.705-.759 6.808-.191 9.827.376 13.616.563 3.767-.376 4.536-1.135 10.754-.759 6.235-1.136 10.979-1.895 15.123-.759 4.154-.944 5.486-.562 8.118.377 2.653-.759 3.969-1.894 6.049-1.136 2.074-2.317 4.149-2.317 6.224.944-2.064 2.879-3.009 4.588-1.507 1.698 1.512 3.487 3.086 3.487 3.086l12.383.506s1.507-.191 3.205-1.698c1.703-1.507 1.889-1.321 3.024-.191s2.024.795 3.019.557c1.002-.239 1.326-1.097 2.647-1.654 1.332-.573-1.135-11.372-1.135-17.607 0-6.24.568-22.115 1.144-26.164 0 0 .044-28.213.044-33.318Z"/><path fill="#b3875a" d="M286.861 227.514s-1.512 9.444-2.08 17.562c-.562 8.129-.191 13.605-1.136 17.383s-.185 7.747-.185 7.747-.191 1.512-.759-1.502c-.568-3.019-2.457-6.993-1.692-3.019.753 3.958 1.213 5.627 1.213 5.627.773.864 1.537 1.491 2.455 1.256 1.159-.297.475-.468 1.42-1.969.944-1.518 1.517-.197.567-5.301-.944-5.105.192-13.032.568-16.444.382-3.396-.191-3.767-.191-9.827 0-6.043-.185-11.524-.185-11.524"/><path stroke="#000" stroke-width=".246" d="M288.419 193.701c-.945-1.13-7.788-1.65-11.004-1.464-3.21.191-5.443.148-7.523.722-2.074.562-3.433 2.798-3.433 2.798s-.383 2.265-1.322 4.345c-.949 2.075-.949 4.914-1.697 11.705-.759 6.808-.191 9.827.376 13.616.563 3.767-.376 4.536-1.135 10.754-.759 6.235-1.136 10.979-1.895 15.123-.759 4.154-.944 5.486-.562 8.118.377 2.653-.759 3.969-1.894 6.049-1.136 2.074-2.317 4.149-2.317 6.224.944-2.064 2.879-3.009 4.588-1.507 1.698 1.512 3.487 3.086 3.487 3.086l12.383.506s1.507-.191 3.205-1.698c1.703-1.507 1.889-1.321 3.024-.191s2.024.795 3.019.557c1.002-.239 1.326-1.097 2.647-1.654 1.332-.573-1.135-11.372-1.135-17.607 0-6.24.568-22.115 1.144-26.164 0 0 .044-28.213.044-33.318Z"/><path fill="#b3875a" d="M271.743 267.006c1.512-9.816 3.019-18.327 3.592-21.171.563-2.822 1.698-6.611 1.698-10.575s.186-5.104 1.13-10.023c.945-4.913 1.327-8.309 1.327-13.403 0-5.11-1.136-10.782-1.136-10.782s.939-.939 1.316 1.136c.377 2.08.759 2.456 1.136 1.321.376-1.13.758-1.884 1.321-.563.573 1.322 1.332 1.322 1.332 1.322l.562-.383.945.939 1.321-1.315 1.212-1.979c-.274-.018-.054 3.228-.537 6.674-1.13 3.407-1.237 2.675-1.237 5.132s.191 3.412.191 3.412-.568.349-.759-2.08c-.191-2.457-.568-4.351-1.136.562-.562 4.913-2.457 9.636-1.698 4.531.754-5.093 1.321-11.339 0-10.203-1.326 1.135-1.894-.18-2.08 4.536-.191 4.728.382 4.532-.376 7.36-.759 2.833 0 3.783-.945 9.275-.95 5.459-1.512 5.29-1.703 8.871-.186 3.598.568 5.656.191 10.39-.377 4.733-.568 5.29-1.512 5.672-.939.377-.557 0-.939 4.531-.377 4.537-.945 7.752-.945 7.752-.136.905-2.529 2.631-2.271-.185"/><path fill="#d18644" stroke="#000" stroke-width=".246" d="M140.399 148.252c-.315.187-1.415.826-1.829 1.496-.379.611-.41 1.388-.477 2.105-.103 1.108.532 2.301.121 3.335-.413 1.037-.688.519-2.385 2.348-1.704 1.824-1.705 4.083-3.151 6.987 0 0 1.07-.376 2.964-.698 1.883-.311 4.586-1.856 4.586-1.856s1.071-.53 1.393-1.42c.316-.895.251-1.457.185-3.264-.071-1.829-.126-2.206-.126-2.206s-1.075.491-1.13-.519c-.071-.999.056-2.129.056-2.129s.567-.065.878-1.129c.311-1.07 1.609-2.93 2.452-3.269.928-.372 2.077-1.164 2.177-1.236.248.149.939.928 1.891 1.287 1.005.377 2.171.701 2.422 2.77.251 2.074.06 2.27-.191 3.657-.251 1.392-.633 1.518-.693 3.652-.066 2.146-.387 3.456.442 5.029 0 0 .813 1.272 2.893 1.894 2.08.628 3.909.956 3.909.956l.301-.012s-.453-1.98-.88-2.893c-.211-.451-.502-1.218-.819-1.25-.109-.028-.278-.611-.562-.704-1.135-.382-.125.125-.628-1.321-.507-1.447-.633-2.528-2.085-4.543.944-3.15-.938-6.546-1.632-7.49l-1.998-3.477c-.914-1.322-1.59-1.444-2.719-1.443-.26 0-.545.006-.862.006-1.704 0-2.267.688-2.709 1.311-.442.633-1.135 2.075-1.135 2.075-.217.655-.287.784-.659 1.951Z"/><path fill="#f2a900" stroke="#000" stroke-linecap="round" stroke-linejoin="round" stroke-width=".246" d="M149.451 146.041c-.12-.095-.62-.25-1.231-.475-.201-.075-.438-.253-.646-.312-.198-.057-.406.101-.588.041-.576-.188-.891-.482-1.106-.498-.168-.013-.427.285-.888.42-.284.083-.608-.132-.946-.035-.321.093-.709.329-1.034.452a18 18 0 0 0-2.092.946c-.174.557-.393.984-.521 1.672 1.332-.879 2.854-1.82 5.059-1.82 2.201 0 3.81.479 4.623.665z"/><path fill="#d18644" stroke="#000" stroke-width=".246" d="M185.098 248.488h14.369s1.316-.758 2.075-1.883c-2.834.639-12.852.462-14.555.459-1.663-.004-2.416-.356-2.924-.459z"/><path fill="#d18644" d="M207.406 204.039c.327-.661.507-.737 1.282-.699.776.027.841-.279 1.365-.251.508.027.59.458.59.458s-.355-.431-.89.033c-.71.628-1.78.399-1.78.399l-.644.327zm7.981 0c-.327-.661-.502-.737-1.277-.699-.781.027-.841-.279-1.36-.251-.524.027-.6.458-.6.458s.365-.431.89.033c.72.628 1.785.399 1.785.399l.644.327-.076-.267m-5.285 2.292c.508.082.95.142 1.327.082.376-.082.758-.082 1.004-.131.251-.049.497 0 .066.181-.443.191-.694.376-1.016.376-.317 0-.748-.114-1.004-.245-.246-.131-.377-.377-.186-.317m-.699 1.572c1.01-.06.879 0 1.572-.06.694-.054 1.758 0 1.758 0l.159.289s-.093.022-.655.022c-.568 0-1.196-.06-1.698 0-.508.071-1.25-.011-1.25-.011l.109-.229m2.844 1.136c-.568 0-1.07-.268-1.512-.268s-.819.453-.317.382m-.72-3.516s-1.07 1.06-1.262 1.245c-.185.202-.065.137-.065.77 0 .622-.377.742-.377.742s.819-2.074 1.518-2.707m2.953-.05 1.256 1.245c.186.202.066.137.066.77 0 .622.376.742.376.742s-.819-2.074-1.512-2.707"/><path fill="#d18644" stroke="#000" stroke-width=".246" d="M136.428 273.714c.806-.002 3.764-2.077 3.764-2.077s-.711-1.177-1.311-1.249c-.817-.098-2.141 1.233-2.141 1.233s.503-.802.661-1.244c.088-.247.155-.772.155-.772l.58-.385c.652.004 2.062 1.056 2.835 1.94l1.038-.843.901.758c-1.123.994-2.53 1.979-3.789 2.792-.767.423-1.892.745-2.89.784a1.5 1.5 0 0 1-.656-.125c-.673-.295-1.602-.976-1.77-1.312-.2-.397.276-.816.276-.816s.217.419.419.352c.059-.019.29.341.526.318.117-.011.284.285.516.283.093 0 .234.223.413.214.205-.011.341.12.473.149Z"/><path fill="#573f28" d="M214.89 136.698c-.202-1.493-.087-.599.726-.711.874-.117.623-1.887.623-1.887s2.642-.388 3.778-.388c1.13 0 .748-1.369 2.134-1.757 1.392-.376 1.01-.87 1.01-.87s.251-.393 1.512-.253c1.262.124 1.387-.505 1.387-.505v-.888l1.381-.253.126-1.122 2.014-.129.251-.764 1.638-.241-.125-.759.502-.253-.502-.999h1.512l.126-1.381 1.13-.376-.503-.758.879-.253-.382-1.263.759-.242v-.769l1.136-.494-.131-.882 1.381-.129-.246-.87v-.135s1.381-.371 2.14-1.887c.759-1.505 1.763-1.881 1.763-1.881l-.507-.623 1.004-.512.131-.875s2.015-.376 4.286-1.263c2.271-.882 2.773-3.016 2.773-3.016s-5.164.87-11.721 1.628c-6.546.759-12.218 1.388-15.117 2.275-2.893.87-.502 3.268-4.154 7.047-2.124 2.193-5.296.999-6.169-.635-.885-1.628-2.015-4.908-2.015-4.908h1.005l-1.005-1.887 1.005-.504s-.879-.506-2.894-1.517c-2.014-.994-3.527-.5-4.788.505-2.265-.241-2.642 1.646-2.642 1.646s1.512-.634 2.522-.253c1.005.376 1.884-.381 2.266 5.29.376 5.66-2.397 4.661-5.541 4.538-2.643-.382-3.282-1.14-3.909-3.274-.628-2.145.131-3.274-2.523-5.167-2.636-1.892-11.202-3.397-16.241-4.279-5.045-.887-11.967-2.768-11.967-2.768s.12 1.011 1.632 2.011c1.502 1.01 2.386 2.015 2.386 2.015s.131.13.879 1.253c.753 1.139 2.009 1.516 2.009 1.516s.502.887 1.01 1.64c.502.746 2.768 3.138 3.652 3.902.885.747 2.517.747 2.517.747-.628 0-.879.382-1.004 1.14.758.882 2.014 1.264 2.014 1.264l-.251.881 1.632.371-.245 1.258 2.271.505-.508.747 2.146.382-.503.758 1.638.364-.382.758 2.271.253-.382 1.011h2.14l-.502.882 1.768.253s3.396 2.263 5.798 2.879c2.391.647 1.25 1.394 4.275.394 1.791-.629 1.365-.576 2.02-.758.247-.068 1.632.505 1.256 1.252-.383.77.371 1.387 1.13 3.027.753 1.634.376 1.14 1.255 1.14.377 0 .546.036.655.312l1.016-.071c-.038-.253-.066-.394-.033-.623.131-.882.628-1.011.628-1.011l1.13.747s-.251-.747-.628-2.51c-.377-1.758-.131-2.139-.131-2.139l1.016.24s.748 2.528 2.522 3.791c.999.712 1.158.806 1.196 1.211l.906-.117"/><path fill="#b3875a" d="M268.348 182.25c-.197-1.13-.289-1.228 0-2.26.278-1.048.377-.382.186-2.266-.186-1.894-.093-.949-.852-1.424-.759-.47-1.136-.383-.568-1.889s1.42-1.049.852-2.746c-.568-1.687-.829-2.332-1.043-2.637-.228-.326-.284 1.026-.469 2.637-.197 1.616 0 1.894-.197 3.592-.186 1.698-.47 2.746-.186 3.106.29.399.8 1.745.8 1.745.483 1.379.756 2.78 1.093 4.182.448-.875.57-.915.384-2.04"/><path fill="#ff3515" stroke="#000" stroke-width=".246" d="M256.25 192.454s1.229 2.456 2.364 1.517c1.136-.939.186-1.807 1.611-4.154 1.414-2.369 6.6-9.636 6.6-9.636s1.987 5.372 1.135 7.66c-.84 2.26-1.135 3.384-.371 3.865l-1.135 4.051s-.377 2.276-1.321 4.345c-.95 2.086-.95 4.914-1.698 11.721-.759 6.803-.191 9.827.376 13.6.568 3.778-.376 4.536-1.135 10.766-.759 6.25-1.136 10.978-1.895 15.122-.758 4.16-.944 5.487-.562 8.123.377 2.648-.759 3.964-1.894 6.044-1.136 2.085-2.312 4.128-2.312 6.213l-.695 1.409s-4.576-.034-6.995.125c0 0 .743-.95 1.884-1.698 1.135-.759 1.512-.956 1.889-2.457.382-1.507.567-1.698 2.08-3.592 1.517-1.889 1.894-4.144 2.08-7.741.185-3.593.753-18.71.939-24.393.191-5.65-.377-30.228 0-32.881.376-2.637 0-3.21.191-4.144.18-.939-.754-2.828-.754-2.828z"/><path fill="#b3875a" d="M269.287 267.007c1.616-4.319 2.833-10.766 3.215-14.55.377-3.777.377-8.691-.573-3.592-.944 5.099-1.889 9.45-2.457 13.796s-.758 5.841-.191 4.346m2.271-23.629c.192-3.395.759-4.143 1.895-6.987 1.135-2.839.753-2.648 1.692-7.562s1.512-7.168 1.698-10.007c.191-2.833.573-3.963.573-3.963s-.191.944-1.703 6.42c-1.507 5.487-2.271 7.37-2.833 10.766s-.563 4.171-1.698 6.993c-1.136 2.834-.568 2.473-.754 4.914-.191 2.473.754 1.135 1.13-.574m-11.906-59.141c-.161-1.165-.945-3.401-.945-3.401s.186.186.759 0c.562-.185.562-.573 1.321 1.125.759 1.714.568 1.714.186 3.412-.371 1.698-1.306 4.563-1.306 4.563s.244-3.817-.015-5.699m3.215-.191c.759-.769.95-.371.95-2.828s-.568-2.653-.377-3.794c.186-1.124-.191-1.878-.573.202-.377 2.075-.185 2.451-.377 3.773-.185 1.332-.376 3.215-.376 3.215zm27.395-7.839-.377-1.796c-.851-2.266-.655-2.735-1.037-3.876-.377-1.131-1.419-2.266-.944-.557.475 1.698.185 3.204.66 4.051.301.54.524 1.621.503 2.636l-.175.863q-.074.416-.229.759c-.568 1.228-1.131 1.605-1.131 1.605s1.038 1.037 1.322 5.099c.284 4.067-.444 4.166-.444 4.166.218.093.883.802.629.562-.185-.284.197-3.696.573-5.574.377-1.895.563-3.216 1.038-4.341.475-1.141 1.228-1.141 1.605-1.424.376-.273.098-.552-.846-.175-.945.371-.945-.47-.945-.47z"/><path fill="#fff" d="M208.311 137.122a2.8 2.8 0 0 1 0-.635c.131-.87.628-1.005.628-1.005l1.136.764s-.251-.764-.628-2.522c-.377-1.769-.131-2.145-.131-2.145s.131-1.758-1.136-3.274c-1.255-1.516-4.154-3.144-4.285-.623-.126 2.528-.448 3.938-.448 3.938.459.212 1.076.6.83 1.093-.382.759.377 1.387 1.136 3.021.753 1.64.376 1.135 1.261 1.135a.64.64 0 0 1 .606.347l1.02-.083m6.606-.411a12 12 0 0 0-.551-1.746c-.628-1.645-.759-2.139-.131-2.645.628-.499.759-.87.759-.87s-.508-1.64-.759-3.538c-.246-1.881-3.019-2.257-3.396-1.258-.382 1.005-1.135 3.533-.508 5.167 0 0 .754 2.521 2.523 3.773.884.635 1.097.917 1.162 1.252l.901-.129m-3.576-19.144s-.879-.241-1.004 2.134c-.073 1.396-3.568-.312-5.861-.133-.197.269-.636.701-.961.836-.413 1.001-1.996 1.176-3.13 1.291-3.783.364-3.492-.96-7.647-5.509-4.154-4.52-3.687-3.533-9.49-5.167 0 0-6.541-1.763-10.575-2.762-4.029-.999-6.169-1.14-7.933-3.274 0 0 6.923 1.881 11.967 2.757 5.045.893 13.605 2.398 16.253 4.29 2.642 1.899 1.878 3.022 2.517 5.155.627 2.146 1.25 2.904 3.898 3.286 3.144.124 5.923 1.134 5.546-4.538-.289-4.243-.851-4.89-1.539-5.107l.267-.87-.942-.628c1.256-.999 2.837-1.577 4.851-.577 2.015 1.011 2.899 1.51 2.899 1.51l-1.005.506 1.005 1.886h-1.005s1.136 3.28 2.015 4.914c.879 1.628 4.056 2.822 6.169.629 3.658-3.773 1.261-6.166 4.16-7.047 2.894-.888 8.56-1.517 15.112-2.275 6.545-.758 11.715-1.628 11.715-1.628-4.662 1.881-16.293 3.859-19.187 4.747-2.893.869-3.605.117-6.504 4.414-2.899 4.279-6.769 5.197-8.662 4.1-1.679-1.341-1.93-1.929-1.93-1.929"/><path fill="#ff3515" stroke="#000" stroke-width=".246" d="m293.103 220.722-.385 4.144c-.158 1.69.156 2.359-.186 1.889-.318-.437-.508-2.055-.568-1.518-.052.468-.262 1.11-.759 1.895-.202.319.187-1.465 0-1.136-.461.811-.845.863-1.135 1.698-.171.491-.302-.994-.377-1.512-.085-.588-.576.764-.939 1.512-.147.303-.166-1.292-.205-1.663-.021-.198-.502 1.532-.53 1.005-.042-.799.203-1.541-.024-1.231-.339.464-.241.567-.615 1.026-.2.246-.166-.6-.324-1.026-.166-.448-.493 1.787-.567 1.316-.101-.641.307-2.431 0-1.884-.326.579-.468 2.087-.697 1.537-.224-.537-.11-1.159-.248-1.728-.095-.394-.767 1.355-.759.95.036-1.83.552-6.988.552-6.988s1.855.971 2.757 1.501c.865.509 1.605 1.611 2.544 1.611.95 0 1.319-.158 1.84-.525.293-.206.548-.396.625-.873Z"/><path fill="#000" d="M144.47 155.57c.164-.06.344-.032.48-.071.644-.191 1.048-.24 1.556-.24.36 0 .661.126.934.251.202.077.42.104.6.126 0 0-.715.071-1.157.251-.442.186-.688.186-1.065 0-.382-.18-1.348-.317-1.348-.317"/><path fill="#ff3515" stroke="#000" stroke-width=".246" d="m170.83 281.592 1.072-.358c.507-.037 1.829-.743 2.457-1.747.633-1.016.248-1.784.19-2.676-.069-1.054-.151-2.165-.633-3.104-.607-1.184-1.649-2.128-2.712-2.928-.68-.511-1.449-.964-2.28-1.145a3 3 0 0 0-.604-.05c-.674 0-1.456.125-1.456.125l-1.915 1.258s5.184 9.208 5.881 10.625Z"/><path fill="#000" d="M149.476 150.417c.688.458-2.331-.322-2.391.366-.066.687.245 1.697.442 2.205.186.502.186 1.25-.633 1.19-.814-.06-1.573.251-1.387-.251.191-.508.246-.437.246-.437s-.18.383.131.437c.316.06.382.06.693.06.317 0 .693 0 .753-.377.066-.382 0-.638-.245-1.381-.251-.769-.382-1.386-.131-1.769.245-.393.628-.562 1.321-.507.693.06 1.015.311 1.201.453m-3.838.879c.126-.562.06-1.01-.628-1.25-.693-.252-1.386-.06-2.02.436 0 0 .322.071 1.01-.054.694-.12 1.256.054 1.387.251.125.196.251.633.251.633m-.131 5.154c-.399-.257.95.12 1.261.12-.573.267-.884.142-1.261-.12"/><path fill="#bbbcbc" stroke="#000" stroke-linejoin="bevel" stroke-width=".246" d="M280.811 200.102c-3.096 0-5.672-1.796-5.672-3.865.296-.035 3.732-.135 5.599-.15 1.884-.015 5.652.063 5.652.063.017 2.172-2.478 3.952-5.579 3.952Z"/><path fill="#bbbcbc" stroke="#000" stroke-linecap="round" stroke-linejoin="bevel" stroke-width=".246" d="M310.303 200.102c-3.107 0-5.678-1.796-5.678-3.865 0 0 3.789-.076 5.574-.076 1.802 0 5.667-.011 5.667-.011.022 2.172-2.468 3.952-5.563 3.952Z"/><path fill="#bbbcbc" stroke="#000" stroke-width=".246" d="M310.767 178.003v-.759c-.284-.093-13.796-.944-13.796-.944s-1.166.101-1.228.098c-.349-.017-1.043-.098-1.043-.098s-13.506.835-13.796.944v.759l14.932-.377z"/><path fill="#61619e" d="m162.425 184.046 2.069-6.571c-.572-1.09-1.379-2.627-2.922-2.586-2.904.078-3.378 3.908-3.564 8.254-.191 4.34-.114 7.242-.114 7.242s.475 1.13.945 2.265c.475 1.125.932 1.207 1.402-.114.475-1.321 2.19-8.473 2.19-8.473"/><path stroke="#000" stroke-width=".246" d="m162.425 184.046 2.069-6.571c-.572-1.09-1.379-2.627-2.922-2.586-2.904.078-3.378 3.908-3.564 8.254-.191 4.34-.114 7.242-.114 7.242s.475 1.13.945 2.265c.475 1.125.932 1.207 1.402-.114.475-1.321 2.19-8.473 2.19-8.473"/><path fill="#0077c8" stroke="#000" stroke-width=".246" d="M131.525 201.238c-.568 4.345.011 8.725.202 11.564-2.085 7.932 1.502 12.163 2.069 18.866.341 4.023-1.423 5.77.568 12.098.182.576-.716 2.164-.756 3.288-.058 1.628 1.318 2.362.756 4.83-.568 2.446.496 3.679.679 5.525.365 3.69 2.155 4.684.833 11.093 1.884-.742 5.482 2.086 9.068 3.598 3.587 1.507 8.501.186 10.766-.939 2.271-1.152 5.8.996 5.8.996s-.081-.158-.51-1.378c-.944-2.834-2.642-4.914-2.642-4.914s-1.512-15.695-.95-20.8c.568-5.082 1.136-5.279 1.136-5.279s-.945-2.276-1.136-5.863.753-7.561 1.327-10.395c.567-2.833-.191-4.52-.191-4.52l-.006-.011a11 11 0 0 1-.753-.186c-1.316-.376-5.034-25.014-5.034-25.014s-4.908.513-7.299.644c-2.397.126-1.01-.759-3.658-2.009-2.647-1.267-6.965-.656-6.965-.656-2.443 2.269-2.741 5.122-3.304 9.462Z"/><path fill="#61619e" d="M134.138 187.474s.221.263 1.919.356c1.704.087 1.988-.29 3.123-.486 1.136-.18 2.364 0 3.581-.18 1.234-.175-.66.666 1.513.857 2.178.186 3.117.093 4.154.093s2.266 1.032 3.68-.47c1.425-1.512 2.08-1.414 1.894-3.319-.18-1.878-1.135-3.292-1.507-4.144-.382-.857-.475-1.048.563-2.178.784-1.479 1.898-.965 2.265-2.828.284-1.982-.133-2.341-.098-3.789.027-1.122.289-5.082.475-3.199.191 1.878 1.228 2.08 1.043 4.728-.191 2.642-.284 2.173.846 1.228 1.135-.95 3.396-2.549 1.605-.284-1.796 2.271-2.457 3.587-2.833 5.673-.377 2.058-1.136 10.726-1.136 10.726s-4.619-.157-6.136-.25c-1.512-.093-14.448-1.054-14.448-1.089z"/><path fill="#523178" d="M130.767 180.553c-.616-.838-1.678-1.286-2.549-1.9.944 1.059 1.251 2.335 1.359 3.619.143 1.685.317 2.774.158 4.51-.191 2.08.093 3.881.186 1.332.082-2.381.146-4.193.218-6.655.011-.368.459-.565.628-.906m10.777-2.648-.666 6.709s0 1.698.377.191c.376-1.512 2.265-11.344 2.456-12.283.181-.95 0-1.42-.191-.661-.185.77-.408 3.926-1.855 4.907-1.418.962-4.687.178-5.138-.092-.406-.242-.664.124.001.433 1.659.812 3.591 1.271 5.016.796m4.913-5.94s.748 5.852.945 7.736c.186 1.889.604 2.564.469.377-.135-2.2-.637-3.016.759-2.741 1.878.377 3.578.935 5.132.217 1.098-.509 2.102-1.661 2.233-2.865.079-.726-.562-3.772-.945-1.976-.376 1.785-.949 2.938-2.137 3.747-.957.651-2.405.784-3.437.495-1.031-.29-1.805.636-1.888-.18-.186-1.425-.608-3.967-.661-4.444-.081-.726-.568-1.316-.47-.377"/><path fill="#9bd9f4" stroke="#000" stroke-width=".246" d="M152.36 164.91s-.143 1.841-.52 4.298c-.376 2.457-1.419 2.167-3.117 2.276-.764.028-4.154.028-6.797.181-1.709.098-1.605-.29-2.456-2.37-.858-2.063-1.709-6.125-1.709-6.125a34 34 0 0 0 2.44-1.163s1.621 4.843 2.096 5.792c.464.939 0 .847 1.889.754 1.889-.104 2.635-.004 3.773 0 .828.003.93.19 1.234-1.512.469-2.266.584-4.335.584-4.335.609.915 1.476 1.778 2.583 2.204Z"/><path fill="#523178" d="M136.44 191.515c-.852 2.456-.852 2.822-1.043 3.958-.191 1.135.191 1.135.753-.186.573-1.316 1.709-3.303 1.987-3.592zm4.722.939c1.249 1.317 3.052 1.425 3.532 3.111.464 1.709.65 4.357 1.13 2.381.464-1.987 1.414-2.659 2.359-2.746.944-.109 2.047-.481 2.238 1.987.186 2.457.464 2.074.087 6.699-.371 4.624-.944 10.667-.371 8.795.562-1.895.846-4.641 1.234-8.037.366-3.406.366-3.226.65-2.746.289.47.758 1.42.758 1.42v-9.347s-9.914-1.698-11.519-1.807c-.173-.065-.458-.09-.098.29m-9.576 22.017c.503-2.637 1.01-1.878.759.388-.256 2.249.879 8.937 1.13 11.208.257 2.26.328 3.266-.33 1.108-1.875-6.062-2.066-10.067-1.559-12.704"/><path fill="#523178" d="M144.694 209.307c-.508 6.163-.885.633-.257 6.933.633 6.289 1.638 8.047.377 14.227-1.256 6.175-1.381 11.716-1.381 15.619 0 3.915.507 8.195 1.004 2.277.508-5.924 1.895-15.75 1.638-19.665-.251-3.892.502-9.324.622-13.73.126-4.411.628-8.446.503-12.207-.121-3.789-1.005-2.539-1.507-1.01-.502 1.507-.999 7.556-.999 7.556m7.932-.508c-.759 5.547-1.256 8.959-2.014 14.62-.759 5.667-2.271 10.58-2.899 15.876-.628 5.29-.508 9.444 0 4.913.507-4.537 1.632-8.697 2.768-14.62 1.135-5.912 2.145-12.48 2.145-12.48l.371-2.118.047-6.799c-.195.078-.337-.106-.418.608m-7.687-35.617c-.376 3.953-.191 7.37-.567 10.58-.377 3.216.567 3.582.66-.273.093-3.881.191-8.511.191-9.941 0-1.403-.098-1.976-.284-.355"/><path fill="#fff" stroke="#000" stroke-width=".246" d="M177.189 277.017c.295 0 .53-.235.53-.53 0-.3-.24-.54-.53-.54a.537.537 0 0 0-.535.54c0 .295.241.53.535.53Zm.472 1.084a.54.54 0 0 0 .535-.53.532.532 0 1 0-1.065 0c0 .284.241.53.53.53Zm.183 1.194c.29 0 .535-.24.535-.529a.54.54 0 0 0-.535-.541.535.535 0 1 0 0 1.07Zm-.166 1.216c.295 0 .535-.24.535-.53 0-.3-.24-.529-.535-.529a.523.523 0 0 0-.529.529c0 .29.24.53.529.53Zm-.387 1.108a.52.52 0 0 0 .524-.53.529.529 0 1 0-1.059 0c0 .301.24.53.535.53Z"/><path fill="#000" d="M206.026 109.2c.91.513-.339.094-1.245 0-.91-.074-.917-.388-.917-.388 1.104-.023 1.257-.101 2.162.388"/><path fill="#61619e" d="M133.42 180.552s.377.95.944 1.409c.563.469 1.698.289 1.043 1.239-.666.944-.759 3.019-.857 3.674-.093.666-.475.377-.475.377-.023-.675-.11-1.697.01-2.407.144-.855.495-1.386.377-2.006-.61-.566-1.04-1.176-.949-1.909z"/><path fill="#000" d="M235.709 166.513c.41-.595.601-.978.771-1.595-1.323-.027-2.715-.02-4.108-.013.989.673 2.986 2.119 3.337 1.608m-92.401-15.157c.436-.126.753-.633 1.13-.322.376.322.573.387.573.387s-.257.131-.628.312c-.382.185-.322 0-.573-.121l-.502-.245m4.28.049c.442-.131.759-.633 1.135-.311.377.311.574.366.574.366l-.634.311c-.382.191-.316 0-.567-.126-.252-.115-.508-.24-.508-.24m-26.647-12.093s-1.005.328-1.895.377c-.879.06-1.446.442-.627.694.818.256 1.744.903 1.744.723 0-.186-.227-1.106-.227-1.106zm-1.005 5.733c.563-.131.819-.251.819-.251l-.163-.809c-1.002.759-1.218 1.174-.656 1.06m-2.964 0c.628.185 1.386.065 1.386.065s-.125-.376-.693-.628c-.568-.256-1.045-.668-1.11-.166.079.411.417.729.417.729m1.96 3.663c.939-.704 1.441-1.07 1.441-1.07s.371-.699-.628.06c-1.01.759-1.512.868-2.014 1.01-.503.109-.853.181-.853.181s.42.318.174.957c-.3.742.93-.45 1.88-1.138m1.687 1.665.011.142s.125-.131-.011-.142m57.852 147.479-.032-.033c-.033-1.649-1.256-2.768-2.626-3.117-.721-.18-1.021-.066-1.163.507l-.432 1.709c1.125.262 2.042.229 2.637-.775l-.005-.011-.808 3.243.005.038c-.032-1.174-.829-1.676-1.96-1.965l-.78 3.237c-.142.579.049.819.78.999 1.567.388 3.298-.251 4.051-1.687l-.83 3.052-7.446-1.845-.044-.022c.874.213 1.485-.906 1.627-1.496l1.261-5.012c.137-.589 0-1.288-.857-1.506l.011-.033 7.261 1.796-.644 2.91m4.875 6.447.093-.458c.808.153.966.082 1.01-.099.043-.24-.033-.393-.131-.66l-.737-1.987-1.518 1.496c-.18.191-.284.343-.317.491-.049.278.181.469.972.622l-.082.486-3.357-.65-.038-.01c.671.06 1.452-.596 1.965-1.076l2.151-1.998-1.272-3.385c-.186-.497-.371-1.578-1.043-1.687l-.011.022 4.084.775h.005c-.764-.131-.982.361-1.043.65-.021.136.017.284.099.529l.595 1.72 1.332-1.299c.169-.158.289-.311.333-.492.038-.24-.104-.884-.715-.999l.027.022 3.161.606h-.027c-.956-.125-1.382.541-2.064 1.163l-1.774 1.616 1.49 4.024c.175.458.399 1.201 1.043 1.397h-.033l-4.182-.808m14.074-3.248-.038.011c-.415-1.774-1.414-2.823-2.811-2.992-1.485-.186-2.299 1.087-2.599 3.445-.3 2.446.355 3.832 1.987 4.023 1.589.197 2.905-.66 3.227-2.467l.245.038c-.262 2.091-1.61 3.216-3.799 2.948-2.834-.355-4.149-2.517-3.86-4.82.284-2.31 2.478-4.029 4.739-3.74.9.104 1.632.54 2.271.999l1.026-.371h-.022l-.366 2.92m9.396.525.011.032c-.344-1.594-1.818-2.544-3.232-2.615-.748-.032-1.01.126-1.043.71l-.049 1.796c1.158.049 2.075-.229 2.457-1.348l-.017.049-.163 3.363-.011.011c-.262-1.147-1.13-1.469-2.282-1.529l-.197 3.319c-.033.595.213.781.956.83 1.616.077 3.21-.89 3.674-2.44h-.017l-.223 3.161-7.665-.382-.011-.011c.895.038 1.228-.606 1.25-1.207l.284-5.743c.027-.601-.191-1.316-1.081-1.359l-.038.021 7.473.361-.071 2.97m2.059 5.383.016-.011c.901-.022 1.146-.705 1.136-1.305l-.153-5.743c-.022-.606-.284-1.267-1.18-1.245l-.043-.011 4.4-.12.011.011c-.895.022-1.179.699-1.163 1.305l.158 5.732c.011.573.235.742.841.72 1.212-.032 2.642-1.31 2.915-2.696l.017-.011.016 3.188-6.977.186m8.817-3.511.022.011c.458 1.278 1.916 2.582 3.445 2.424.819-.082 1.496-.53 1.397-1.539-.174-1.747-4.771-.667-5.055-3.434-.175-1.726 1.004-2.834 2.528-2.998 1.304-.125 1.807.459 2.129.426.235-.011.802-.333.917-.573l.005-.011.295 2.855-.016.011c-.475-1.266-1.845-2.293-3.101-2.167-.759.082-1.349.573-1.272 1.359.196 1.867 4.82.47 5.148 3.576.175 1.807-1.348 2.904-2.68 3.036-1.485.158-2.113-.421-2.501-.383-.235.033-.824.404-.906.574l-.033.011-.322-3.167m8.746 2.206h-.016c.884-.153 1.07-.852.977-1.447l-.939-5.683c-.093-.601-.508-1.218-1.392-1.07h.011l4.34-.721-.011.011c-.879.142-1.043.852-.945 1.447l.934 5.683c.098.595.475 1.201 1.359 1.07l.011.011-4.34.699m8.478-10.242c2.228-.502 4.586.966 5.116 3.221.529 2.277-.928 4.64-3.167 5.17-2.222.502-4.575-.977-5.104-3.243-.53-2.244.928-4.635 3.155-5.148m1.824 7.85c1.375-.316 1.599-1.834 1.07-4.11-.53-2.25-1.392-3.511-2.768-3.194-1.376.327-1.594 1.829-1.07 4.105.518 2.255 1.387 3.522 2.762 3.199m12.824-3.029c-.507.169-.753.267-.753.267-1.174.36-1.829-.131-2.331-1.458-.513-1.397-.672-1.747-1.977-1.539l.743 2.418c.196.655.59 1.338 1.55 1.021l-.016.028-4.094 1.25.01.011c.863-.251.923-.999.743-1.573l-1.682-5.508c-.174-.579-.638-1.119-1.49-.863l-.016-.027 4.05-1.228c1.966-.59 3.2-.12 3.609 1.217.459 1.518-.928 2.359-2.216 2.768l.016.038c1.469-.256 2.02.399 2.528 1.108.704 1.027.873 1.496 1.152 1.42 1.13-.35 1.277.267.174.65m-5.186-3.156c1.239-.448 1.96-.89 1.545-2.206-.289-.96-.972-1.457-1.774-1.228-.404.126-.705.388-.541.928l.764 2.506"/><path stroke="#000" stroke-linecap="round" stroke-width=".942" d="M166.285 220.051c0 1.747 4.187.6 4.187 2.358m-1.343-6.988c-1.173 1.278 2.67 3.287 1.496 4.564m-.076-6.491c-.966 1.447 3.155 2.817 2.189 4.275m-1.108-6.393c-.721 1.578 3.559 2.265 2.844 3.865m-2.113-6.153c-.458 1.687 3.882 1.687 3.423 3.374m-3.057-5.727c-.18 1.736 4.1 1.054 3.915 2.79m-3.937-5.17c.099 1.736 4.215.382 4.308 2.129m-4.701-4.493c.372 1.714 4.22-.284 4.592 1.414m-5.351-3.674c.634 1.632 4.111-.939 4.75.677m-5.869-2.762c.885 1.49 3.915-1.622 4.799-.121m-6.24-1.796c1.119 1.327 3.614-2.205 4.722-.868m-6.442-.78c1.316 1.151 3.216-2.746 4.526-1.595m.53-5.306c-1.605.671 1.07 4.078-.535 4.766m2.724-5.896c-1.518.862 1.507 3.947-.017 4.799m2.08-6.142c-1.419 1.004 1.933 3.75.508 4.76m1.376-6.332c-1.305 1.157 2.32 3.537 1.021 4.684m.682-6.459c-1.168 1.289 2.692 3.265 1.518 4.553m0-6.491c-1.021 1.414 3.024 2.954 2.004 4.362m-.71-6.447c-.857 1.517 3.325 2.604 2.467 4.122m-1.113-7.048c-1.027 1.397 3.363 3.073 2.342 4.471m-20.069 39.045c-.174 1.736 4.106 1.037 3.931 2.768m-4.253 1.523c0 1.747 4.187.622 4.187 2.358m18.125-46.06c1.742 0 .612-4.176 2.353-4.176m.546 4.176c1.747 0 .612-4.176 2.348-4.176m.551 4.176c1.742 0 .612-4.176 2.353-4.176m.541 4.176c1.747 0 .611-4.176 2.358-4.176m.541 4.176c1.741 0 .606-4.176 2.353-4.176m.546 4.176c1.747 0 .611-4.176 2.353-4.176m.545 4.176c1.742 0 .612-4.176 2.353-4.176m.541 4.176c1.747 0 .611-4.176 2.358-4.176m.541 4.176c1.741 0 .606-4.176 2.353-4.176m.546 4.176c1.747 0 .611-4.176 2.353-4.176m.546 4.176c1.747 0 .611-4.176 2.353-4.176m.546 4.176c1.741 0 .611-4.176 2.353-4.176m.54 4.176c1.742 0 .606-4.176 2.353-4.176m.546 4.176c1.747 0 .611-4.176 2.353-4.176m.546 4.176c1.747 0 .611-4.176 2.358-4.176m.541 4.176c1.741 0 .611-4.176 2.353-4.176m-68.133 50.438c0 1.737 4.187.606 4.187 2.353m-4.187.202c0 1.736 4.187.606 4.187 2.348m-4.187.196c0 1.737 4.187.623 4.187 2.359m-4.187.202c0 1.736 4.187.595 4.187 2.342m-4.187.202c0 1.736 4.187.6 4.187 2.358m-4.187.197c0 1.747 4.187.606 4.187 2.347m-4.187.197c0 1.747 4.187.622 4.187 2.358m-4.187.191c0 1.737 4.187.612 4.187 2.353m-4.187.213c0 1.731 4.187.59 4.187 2.337m-4.187.207c0 1.731 4.187.612 4.187 2.359m-4.187.191c0 1.747 4.187.606 4.187 2.353m-4.187.191c0 1.736 4.187.611 4.187 2.358m-3.996.568c0 1.736 4.049.555 4.049 2.302m-1.15 5.816c1.507.89 2.626-3.303 4.127-2.435m-1.67 3.86c1.507.885 2.626-3.303 4.127-2.435m-1.676 3.86c1.512.863 2.626-3.319 4.127-2.446m-1.67 3.871c1.512.857 2.626-3.319 4.127-2.446m-1.676 3.843c1.512.89 2.626-3.302 4.127-2.434m-1.67 3.859c1.512.885 2.626-3.303 4.127-2.445m-1.671 3.87c1.513.874 2.626-3.319 4.128-2.456m-1.676 3.87c1.512.868 2.626-3.324 4.127-2.446m-1.671 3.866c1.513.873 2.626-3.32 4.128-2.43m-1.676 3.844c1.512.884 2.626-3.303 4.127-2.435m-1.671 3.854c1.513.879 2.626-3.314 4.128-2.446m-1.671 3.865c1.512.858 2.626-3.324 4.127-2.445m-1.676 3.865c1.513.873 2.626-3.319 4.128-2.446m-1.671 3.86c1.512.868 2.626-3.319 4.127-2.435m-1.676 3.843c1.512.89 2.626-3.292 4.127-2.434m-2.041 3.603c1.506.879 2.62-3.314 4.121-2.457m-43.623-23.606c.578 1.649 3.901-.644 4.48.993m-3.712 1.966c1.233 1.239 3.384-2.539 4.618-1.31m-.245-68.739c-.585-1.048-1.867-1.157-2.905-1.048-1.048.109-1.747-.24-1.747-.24m20.658-12.011c.814-.502-.464-3.587.115-3.936"/><path stroke="#000" stroke-width=".246" d="m184.067 246.605-2.463-.393 4.847-5.323m13.948 2.441c.093 1.315-.287 1.752-.571 2.609l-.847.936-.572-.912m4.077-2.394 1.513 1.895-2.457 1.141m-9.548-13.141-.017 2.25m-.169 1.703-.048.684m.018 3.624-.161 1.277m0 2.456-.023 1.629m-4.053-9.193.014-2.454m.088 5.541-.012 1.479m10.023-3.345.014.52m-.095 2.619v1.124m0 2.648.041.954m-3.819-1.904-1.096 2.007m2.123-4.551-2.956 4.554m2.115-5.788-.945 1.802m1.605 2.926-.8 1.048m-6.289-1.556-.053 1.547m10.256-9.346.012-1.706 3.202 5.1m23.611 8.713-5.497-2.157m6.426 1.884v-12.911m.415 12.604 7.774-1.462m-9.779-7.673 1.584-3.022m.197 3.014 3.908-1.949m7.583-12.646s3.118 2.562 4.881 3.561c1.764 1.016 6.143 2.069 6.143 2.069m-55.643-61.75s-.082 0-.224.016c2.015.333 6.917-.016 6.917-.016-2.265-.442-2.369-2.49-3.608-3.636-1.234-1.146-2.37-1.687-4.018-1.687-1.895 0-2.861 1.01-2.67 2.795.186 1.796 1.611 2.528 3.401 2.528m32.385-5.427a15.92 15.92 0 0 0 2.484-8.576c0-6.508-4.068-12.205-9.636-14.711m-2.786-.919c-1.086-.229-2.455-.393-3.607-.393-.655 0-1.62.06-2.258.125m-1.368.309c-7.016 1.697-12.408 8.033-12.408 15.589 0 3.177.929 6.141 2.523 8.631m4.678 1.725c-1.234-1.146-2.369-1.676-4.023-1.676-1.054 0-1.949.759-3.21 1.168.153.148.327.322.529.508 1.234 1.157 1.343 3.205 3.609 3.647 0 0-.077 0-.219.016 2.015.333 6.923-.016 6.923-.016-2.271-.442-2.369-2.49-3.609-3.647Zm6.699 0c-1.234-1.146-2.369-1.676-4.013-1.676-1.053 0-1.96.759-3.215 1.168.153.148.327.322.535.508 1.234 1.157 1.337 3.205 3.608 3.647 0 0-.082 0-.223.016 2.014.333 6.917-.016 6.917-.016-2.272-.442-2.37-2.49-3.609-3.647Zm6.709 0c-1.233-1.146-2.363-1.676-4.012-1.676-1.054 0-1.955.759-3.216 1.168.153.148.333.322.535.508 1.234 1.157 1.343 3.205 3.609 3.647 0 0-.082 0-.224.016 2.02.333 6.923-.016 6.923-.016-2.272-.442-2.37-2.49-3.615-3.647Zm6.715 0c-1.233-1.146-2.369-1.676-4.018-1.676-1.048 0-1.954.759-3.21 1.168.153.148.328.322.535.508 1.234 1.157 1.332 3.205 3.603 3.647 0 0-.076 0-.218.016 2.009.333 6.917-.016 6.917-.016-2.271-.442-2.369-2.49-3.609-3.647Zm2.686-1.676c-1.053 0-1.949.759-3.215 1.168.158.148.327.322.535.508 1.234 1.157 1.343 3.205 3.608 3.647 0 0-.081 0-.223.016 2.549.159 4.465.47 4.465-1.725 0-2.194-2.429-3.456-5.17-3.603z"/><path stroke="#000" stroke-linecap="round" stroke-linejoin="bevel" stroke-width=".246" d="m311.561 196.094-.874-18.093m0 0-6.062 18.236m6.062-18.236 5.179 18.149"/><path stroke="#000" stroke-width=".246" d="M304.625 196.237s3.789.59 5.574.59c1.802 0 5.667-.677 5.667-.677"/><path stroke="#000" stroke-linejoin="bevel" stroke-width=".246" d="M275.139 196.237s3.788.59 5.579.59c1.796 0 5.672-.656 5.672-.656"/><path fill="#ffd100" stroke="#000" stroke-width=".246" d="M231.159 164.911s6.289.007 7.79.051c1.518.044 1.518-1.377 0-1.377h-7.839c-1.507 0-2.129 1.239.049 1.326Z"/><path fill="#000" d="M149.652 156.377c-.5 1.311-1.536 2.59-3.318 2.713-.69.047-1.341-.2-1.884-.524a8 8 0 0 1-1.358-1.025 3 3 0 0 1-.119-.115q.005.004.027.038a4 4 0 0 0 .347.411 4.8 4.8 0 0 0 1.019.832c.56.334 1.246.597 1.979.546 1.864-.128 2.944-1.464 3.46-2.817z"/><path stroke="#000" stroke-width=".246" d="M146.112 168.508c1.021.044.915.338 1.093 1.557.187 1.277-.195 1.513-.581 1.453"/><path fill="#000" d="M143.751 171.502c-.357.056-.443-.332-.335-1.215.046-.372.036-.76.036-.76s-.151.358-.198.74c-.112.911-.019 1.481.522 1.397z"/><path stroke="#000" stroke-width=".246" d="M120.558 249.613s4.733 1.512 3.215 3.98c-1.512 2.446-3.704 4.479-3.136 6.559m-1.421-25.156s2.696 1.343 5.125 2.344c2.429 1.002 2.642 1.513.753 3.205-1.883 1.698-6.363 6.25-6.431 7.636m7.693-9.366s-.848-7.057.855-16.704m7.524-33.217s-1.261-1.643-.507-4.657c.333-1.31.507-1.266-.251-1.899-.759-.617-.628-3.773-.628-3.773s-.628.879-.885 2.146c-.245 1.25-2.293 8.565-2.293 8.565-1.13 3.685-3.374 6.683-4.405 2.987m2.576-9.054c.099 4.34.807 8.713-.422 10.318"/><path fill="#523178" d="M153.636 218.757c-.251 5.399.377 4.908-1.518 13.108-1.888 8.189-2.265 8.817-3.019 14.609-.753 5.792-.873 2.14-1.506 7.938-.628 5.792-1.764 6.163.371 8.309 2.145 2.134 4.537 2.768 4.537 2.768s-1.638-1.25-2.643-2.637c-1.004-1.392-1.632-2.648-1.512-3.418.126-.731 1.512-.109 1.512-.109s-1.004-.508-.884-2.642c.125-2.151 1.512-2.402 1.512-2.402s-.131-3.653.508-8.309c.628-4.674.502-8.315 1.638-10.319 1.135-2.02 2.14-4.165 2.391.241.251 4.411.884 13.855.884 18.78 0 4.913.377 8.817 1.387 10.7.999 1.884 2.642 3.019 2.642 3.019s.009-48.503-.633-49.582c-.111-1.729-5.667-.054-5.667-.054"/><path fill="#000" d="M285.731 274.917c-.243-.559-.404-.629-.653-.747z"/><path fill="#000" d="M285.806 274.884a2.2 2.2 0 0 0-.257-.468.69.69 0 0 0-.471-.246s.212.172.341.346c.071.093.148.227.237.433zM258.923 275.778c.166-.169.288-.332.385-.478.176-.266.262-.579.262-.579s-.236.24-.399.488c-.092.14-.208.294-.365.454zM285.071 274.939a4 4 0 0 0-.214-.447c-.142-.227-.393-.226-.393-.226s.169.161.252.31c.054.09.114.219.205.428zM284.411 275.074a3 3 0 0 0-.229-.455c-.156-.229-.418-.232-.418-.232s.183.165.282.322c.059.09.124.222.215.43zM283.523 275.181a3.3 3.3 0 0 0-.237-.47.62.62 0 0 0-.437-.27s.186.178.299.358c.065.1.134.24.225.448z"/><path fill="#f2a900" fill-rule="evenodd" stroke="#000" stroke-linejoin="bevel" stroke-miterlimit="6.3" stroke-width=".246" d="m170.507 274.688 2.379-1.316-.939-1.241.553-1.71 1.448 2.574 1.588-1.186 1.025 1.674-1.847.322 1.857 3.036-2.228-1.084-.574-1.322-4.367 2.224-.631-1.149z" clip-rule="evenodd"/><path fill="#ff3515" d="M162.704 261.711c-.568-5.852-.371-14.544-.568-21.728-.185-7.179.568-18.704 1.327-27.39.753-8.696-.505-30.583-.505-30.583l-.532 2.227s-1.42 6.06-2.271 8.31c-.841 2.282-1.786-.645-2.457-3.402-.655-2.729-1.501-5.372-1.884-11.519-.475 2.834-.857 10.963-.857 10.963l-1.96 26.401s-.862 3.248.459 3.636c1.321.371 1.719.799 2.282.411.567-.371.967-.588 2.041-.227.257.087.536.138.792.176.087.518.758 1.714.175 4.531-.568 2.845-1.512 6.808-1.316 10.406.18 3.587 1.126 3.894 1.103 5.893-.019 1.788-.769 1.826-1.103 5.249-.573 5.105.848 20.589.945 20.79.118.245 1.692 2.091 2.637 4.913.213.644.708 2.58.795 2.831.104-.011 3.249-2.674 4.565-5.13 0 0-3.089-.906-3.652-6.769"/><path stroke="#000" stroke-linecap="square" stroke-miterlimit="15" stroke-width=".246" d="M162.704 261.711c-.568-5.852-.371-14.544-.568-21.728-.185-7.179.568-18.704 1.327-27.39.753-8.696-.505-30.583-.505-30.583l-.532 2.227s-1.42 6.06-2.271 8.31c-.841 2.282-1.786-.645-2.457-3.402-.655-2.729-1.501-5.372-1.884-11.519-.475 2.834-.857 10.963-.857 10.963l-1.96 26.401s-.862 3.248.459 3.636c1.321.371 1.719.799 2.282.411.567-.371.967-.588 2.041-.227.257.087.536.138.792.176.087.518.758 1.714.175 4.531-.568 2.845-1.512 6.808-1.316 10.406.18 3.587 1.126 3.894 1.103 5.893-.019 1.788-.769 1.826-1.103 5.249-.573 5.105.848 20.589.945 20.79.118.245 1.692 2.091 2.637 4.913.213.644.708 2.58.795 2.831.104-.011 3.249-2.674 4.565-5.13 0 0-3.089-.906-3.652-6.769"/><path fill="#523178" d="M151.616 267.394c-3.395-1.518-5.421-2.653-6.922-5.552-1.518-2.899-1.763-3.773-2.146-8.686-.376-4.913-1.386-12.475-1.135-7.932.251 4.525-.371 11.197-.131 16.11.251 4.914 2.391 4.782.131 4.782-2.271 0-4.914-.109-.131 1.141 4.788 1.262 1.763 3.904 5.295 2.523 3.527-1.376.885-2.763 5.039-2.386"/><path fill="#200400" stroke="#000" stroke-width=".246" d="M162.909 276.808c.782 1.998 1.785 4.116 3.005 5.692.307.396 1.271 1.834 1.428.47.137-1.188-1.49-5.943-2.058-7.33-.562-1.387-2.275-3.685-2.275-3.685-.617-.456-1.118.307-.786 1.849.156.725.283 1.974.686 3.004Z"/><path fill="#523178" d="M134.992 241.932c.246-.508 2.768-5.542 2.768-5.542s.257-1.255.377-2.899c.125-1.626-.754-1.135-1.632-.507-.885.638-1.633-.617-1.895 2.407-.246 3.014.131 4.406.382 6.541"/><path fill="#ffd9ee" stroke="#000" stroke-width=".246" d="M156.995 273.346s2.82 2.678 3.104 2.678c.278 0 1.45-.058 1.914.035.469.093.828-.202.828-.202s.38.027.768-.262c.528-.528.798-.476-.054-1.142-.857-.639-1.911-2.02-1.911-2.02-.067-.047-2.152-1.202-2.656-1.352-1.707-.509-2.78-.246-4.109.451z"/><path fill="#523178" d="M140.283 234.758c2.522-5.672 3.527-8.566 3.281-11.595-.251-3.019.126-6.038-.251-4.155-.377 1.894-1.638 6.3-1.135 3.03.502-3.281.502-4.913 1.004-4.913.508 0 .879 0 .879 3.635 0 3.664.628 5.815-.879 11.864-1.512 6.032-1.894 8.816-1.894 8.816s.131-2.653-.628-3.903c-.754-1.277-1.136-1.278-.377-2.779"/><path fill="#f2a900" stroke="#000" stroke-width=".246" d="M134.736 188.894s1.513.115 3.281-.365c1.753-.508 2.517-1.01 4.783 0 2.254.999 5.159 1.501 7.299 1.501 2.135 0 .999.633 2.768-.633 1.758-1.245 3.772-.628 2.642 1.381 1.632 1.517 1.467 2.199.336 2.958 0 0 4.321 17.072 4.321 20.217-4.155-.11-7.179 1.015-7.179 1.015l-.257-21.064s-4.913.406-7.304.526c-2.381.137-1.005-.748-3.647-2.009-2.642-1.256-6.949-.645-6.949-.645s.534-.731-.094-2.882Z"/><path fill="#f2a900" fill-rule="evenodd" stroke="#000" stroke-width=".246" d="M171.149 271.412c.251-1.135.317-2.331-1.135-2.708-.375-.096-.699-.197-.982-.28-.809-.238-1.277-.327-1.601.28-.442.814-1.386 2.206-1.386 2.206l.776 1.518.576-.374-.279-.445.624-.393.282.418.294-.226.56.708-.338.236.36.382-.58.477-.299-.303-.625.474.974 1.3s2.528-2.123 2.779-3.27Zm-8.597.448s1.086 1.199 1.498 1.89c1.111 1.865 1.952 3.904 2.564 5.988.351 1.196.62 3.687.62 3.687s.945-.674 2.96-.854c2.014-.169 2.444-.02 3.794-.049.783-.017 1.6.169 2.216-.781.559-.845 1.957-3.667.133-5.29-.225-.2-.513-.452-.831-.54-2.002-.555-4.58-.51-6.228.221l-.22-.402a8.5 8.5 0 0 0 2.36-2.032q.244-.306.452-.634.26-.408.447-.84c.163-.38.279-.771.333-1.167.151-1.089-.345-2.458-1.225-3.061-1.047-.717-1.994-1.069-3.06-.973-.841.075-1.723.539-2.24 1.186zm11.764 5.028c1.064.469 2.058 1.113 1.501 2.517-.552 1.386-.612 2.211-1.534 2.074-.923-.125-2.593-.196-2.593-.196l-.656-1.494.529-.22.181.401.694-.232-.17-.508.344-.153-.207-.77-.387.132-.214-.481-.693.191.121.381-.722.249-.491-1.591s3.232-.77 4.297-.3Z" clip-rule="evenodd"/><path fill="#d18644" stroke="#000" stroke-linecap="square" stroke-miterlimit="15" stroke-width=".246" d="M159.934 276.393c2.589.467 4.106.026 4.129-.133-.005-.319-.033-.84-.194-.88-.076-.019-.375-.128-.468-.113-.119.019-.113.287-.234.321-.15.042-.55-.123-.604-.098-.286.134-.009.337-.392.373-.246.022-.361-.146-.531-.145-.242.002-.398.278-.64.264-.253-.042-.415-.224-.603-.24-.23-.019-.494.099-.959-.365-.846-.863-2.078-2.148-2.078-2.148.035-.132.064-.682.911-.752.831-.059 1.507.212 2.148.586.961.561.739.541.592-.456-.04-.267.807.053.807.053l-.517-.653a14 14 0 0 0-1.986-.819s-2.276-.033-2.644 1.485c-.109 0-1.161-.731-1.792-1.14l-.79.294s3.197 4.01 5.845 4.566Z"/><path fill="#000" d="m172.057 304.018-.605 2.377.116.03q.555.141.894-.144t.58-.948l.164.042-.778 3.056-.164-.041q.075-.513-.011-.874-.083-.36-.275-.524-.19-.168-.609-.274l-.418 1.645q-.123.482-.112.599a.4.4 0 0 0 .11.216q.095.098.344.161l.349.089q.818.209 1.405-.046.592-.252 1.005-.973l.159.041-.735 1.789-5.046-1.285.04-.159.194.049a.83.83 0 0 0 .432.014.4.4 0 0 0 .225-.163q.074-.091.185-.531l.978-3.84q.102-.396.103-.492a.43.43 0 0 0-.1-.273q-.133-.162-.418-.235l-.193-.049.04-.159 4.887 1.244-.44 1.727-.163-.042q.036-.665-.122-.998-.154-.333-.534-.567-.222-.14-.885-.308zm7.215 4.552-.287 1.646q-.084.481-.049.618a.45.45 0 0 0 .176.234q.14.1.542.171l-.028.162-3.015-.526.028-.162q.411.072.569.023a.45.45 0 0 0 .24-.166q.084-.112.167-.593l.672-3.852q.084-.482.044-.614a.43.43 0 0 0-.17-.238q-.136-.1-.543-.171l.028-.162 2.587.451q1.278.223 1.754.775.477.552.357 1.235a1.48 1.48 0 0 1-.531.927q-.431.349-1.087.387-.443.032-1.454-.145m.507-2.906-.447 2.565q.142.033.217.047.534.093.878-.172.345-.269.46-.934.116-.661-.12-1.018-.235-.357-.808-.457zm8.06 4.798-.506 2.066-5.302-.714.022-.163.198.027a.84.84 0 0 0 .431-.036.4.4 0 0 0 .205-.188q.062-.1.123-.548l.529-3.928q.061-.458.028-.578a.43.43 0 0 0-.171-.225.77.77 0 0 0-.385-.142l-.198-.026.022-.163 3.184.428-.022.163-.26-.035a.84.84 0 0 0-.431.036.43.43 0 0 0-.209.187q-.063.099-.123.549l-.512 3.804q-.062.458-.026.593a.35.35 0 0 0 .182.212q.105.055.527.112l.498.067q.476.063.815-.061.34-.125.617-.455.282-.329.584-1.006zm.844-3.834 3.096.302-.016.163-.155-.015q-.35-.034-.489.028a.42.42 0 0 0-.205.181q-.066.123-.116.636l-.285 2.936q-.078.805.016 1.078.097.273.36.472.261.2.686.241.486.048.848-.136.366-.187.572-.556.21-.368.303-1.323l.238-2.445q.039-.403-.029-.584a.5.5 0 0 0-.189-.259q-.19-.121-.551-.156l.016-.164 2.074.202-.016.163-.124-.012a.8.8 0 0 0-.43.061.58.58 0 0 0-.273.282q-.072.135-.107.503l-.222 2.277q-.102 1.056-.289 1.512-.183.455-.761.796t-1.511.251q-.778-.076-1.182-.325-.552-.34-.748-.805-.195-.466-.123-1.213l.286-2.936q.05-.517.005-.647a.43.43 0 0 0-.18-.222q-.134-.09-.514-.122zm8.333 4.02-.105 1.685q-.03.488.019.62a.45.45 0 0 0 .201.213q.145.084.558.11l-.01.165-3.077-.192.01-.165q.417.026.568-.04a.45.45 0 0 0 .221-.191q.07-.12.1-.608l.243-3.902q.031-.487-.023-.616a.43.43 0 0 0-.196-.217q-.147-.084-.559-.11l.011-.164 2.793.174q1.09.068 1.587.25.496.183.79.611.294.423.26.968-.042.666-.547 1.07-.324.256-.882.359l1.319 2.126q.259.412.372.517a.76.76 0 0 0 .412.177l-.01.164-1.893-.118-1.767-2.861zm.184-2.949-.164 2.634.253.016q.616.039.929-.053a.92.92 0 0 0 .504-.378q.196-.286.226-.761.043-.687-.261-1.035-.298-.348-1.012-.393zm7.134 5.889-.006.164-3.148-.117.006-.165.2.008a.83.83 0 0 0 .425-.078.4.4 0 0 0 .186-.206q.052-.105.07-.558l.148-3.96q.017-.462-.027-.579a.43.43 0 0 0-.193-.207.76.76 0 0 0-.396-.104l-.2-.007.006-.165 3.148.118-.006.164-.2-.007a.83.83 0 0 0-.425.077.43.43 0 0 0-.19.207q-.053.104-.07.557l-.148 3.96q-.018.462.027.579a.5.5 0 0 0 .192.212q.148.09.401.1zm4.293-2.948q.854.213 1.196.503.492.411.482 1.056-.01.68-.563 1.115-.679.528-1.958.508l-3.061-.045.003-.165q.418.006.565-.067a.45.45 0 0 0 .212-.201q.064-.123.071-.612l.059-3.909q.007-.49-.053-.614a.42.42 0 0 0-.206-.208q-.15-.078-.563-.084l.003-.164 2.887.043q1.035.015 1.464.209.428.188.671.561.243.367.237.781-.006.435-.327.773-.321.332-1.119.52m-1.615-.144q.63.01.93-.128.305-.138.468-.393t.17-.655q.006-.4-.15-.655a1 1 0 0 0-.443-.398q-.29-.138-.94-.143zm-.006.347-.029 1.932-.008.222q-.003.24.115.366.123.122.362.126.356.005.656-.146.304-.156.469-.451.164-.299.17-.668a1.47 1.47 0 0 0-.185-.758 1.05 1.05 0 0 0-.53-.479q-.34-.138-1.02-.144m3.707-2.992 3.11-.058.003.165-.156.002q-.35.007-.482.085a.42.42 0 0 0-.183.203q-.051.13-.042.645l.055 2.95q.014.808.14 1.068.129.26.412.428t.709.16q.49-.01.827-.233.342-.228.504-.618.166-.39.148-1.349l-.045-2.457q-.008-.404-.095-.576a.5.5 0 0 0-.218-.236q-.201-.098-.566-.091l-.003-.165 2.083-.038.004.164-.125.002a.8.8 0 0 0-.42.11.58.58 0 0 0-.238.311q-.055.144-.049.512l.042 2.288q.02 1.062-.113 1.535-.13.474-.664.879t-1.472.423q-.781.014-1.212-.187-.587-.273-.835-.713-.249-.44-.262-1.191l-.055-2.949q-.009-.52-.069-.643a.43.43 0 0 0-.204-.201q-.144-.073-.525-.061zm10.392-.501.162 2.002-.182.01q-.17-.747-.703-1.175-.526-.433-1.113-.4-.452.027-.704.285a.73.73 0 0 0-.231.57.7.7 0 0 0 .114.349 1.5 1.5 0 0 0 .436.389q.216.135.992.465 1.085.458 1.479.899.39.441.424 1.035.042.754-.517 1.333-.554.575-1.459.626-.285.017-.54-.027a4 4 0 0 1-.647-.182.9.9 0 0 0-.355-.068.43.43 0 0 0-.239.102.6.6 0 0 0-.193.283l-.165.009-.128-2.271.164-.01q.25.947.832 1.422.588.47 1.231.433.496-.028.774-.316a.83.83 0 0 0 .262-.646.8.8 0 0 0-.139-.406 1.3 1.3 0 0 0-.363-.358q-.242-.17-.843-.424-.844-.357-1.219-.621a2.1 2.1 0 0 1-.59-.602 1.6 1.6 0 0 1-.235-.761 1.64 1.64 0 0 1 .459-1.255q.498-.535 1.302-.581a2.3 2.3 0 0 1 .571.039q.212.042.517.171.31.125.43.118a.24.24 0 0 0 .178-.081q.061-.075.105-.349zm2.931-.07 3.089-.356.019.164-.155.017q-.349.04-.472.131a.42.42 0 0 0-.163.22q-.037.134.021.646l.338 2.931q.092.803.241 1.05.154.245.452.386.297.14.721.091.486-.056.801-.311.319-.26.442-.664.129-.403.018-1.357l-.281-2.441q-.047-.401-.15-.564a.5.5 0 0 0-.239-.214q-.21-.078-.572-.037l-.019-.163 2.07-.238.019.163-.124.014a.8.8 0 0 0-.407.15.57.57 0 0 0-.208.332q-.04.148.001.515l.262 2.273q.121 1.054.034 1.539-.083.483-.576.938-.494.455-1.425.562-.777.09-1.224-.069-.61-.216-.9-.63-.29-.413-.375-1.16l-.338-2.93q-.059-.517-.131-.634a.43.43 0 0 0-.222-.18q-.15-.059-.529-.011z"/><path fill="#000" d="m232.28 306.224 3.552 3.191-.43-2.555q-.09-.534-.276-.697-.252-.217-.746-.126l-.028-.162 1.963-.331.027.162q-.368.112-.486.213a.5.5 0 0 0-.16.284q-.04.182.03.603l.834 4.946-.149.025-4.852-4.269.637 3.777q.087.512.349.653a.88.88 0 0 0 .569.089l.14-.024.028.162-2.107.355-.028-.162q.49-.086.65-.317.16-.23.079-.702l-.707-4.193-.153-.136q-.228-.206-.386-.255a1 1 0 0 0-.43-.013l-.027-.162zm4.11-.687 3.03-.699.037.16-.151.035q-.342.08-.455.183a.42.42 0 0 0-.137.236q-.023.138.093.64l.662 2.875q.183.788.358 1.016.18.228.492.334.311.106.727.01.476-.11.761-.399a1.35 1.35 0 0 0 .365-.709q.082-.415-.134-1.351l-.551-2.394q-.092-.394-.212-.543a.5.5 0 0 0-.262-.186q-.218-.056-.573.027l-.037-.16 2.031-.468.036.16-.121.028a.8.8 0 0 0-.388.194.58.58 0 0 0-.169.354q-.025.151.058.511l.514 2.229q.239 1.034.206 1.526-.029.49-.468.997-.44.507-1.353.717-.762.176-1.224.068-.631-.145-.965-.525t-.502-1.111l-.663-2.874q-.115-.507-.201-.615a.42.42 0 0 0-.24-.154q-.156-.042-.527.048z"/><path fill="#000" d="m247.457 306.756.328-4.283 2.332-.758.051.157-.186.06a.84.84 0 0 0-.377.221.43.43 0 0 0-.104.253q-.013.117.125.543l1.227 3.778q.144.44.225.534.083.094.254.133.17.033.41-.045l.186-.06.051.156-2.992.972-.05-.156.185-.061a.84.84 0 0 0 .377-.22.43.43 0 0 0 .103-.258q.014-.116-.126-.548l-1.38-4.246-.499 5.941-.101.033-3.917-4.464 1.311 4.035q.137.423.19.513a.64.64 0 0 0 .349.269q.228.07.622-.057l.05.157-1.96.637-.051-.157.059-.019a1 1 0 0 0 .336-.174.6.6 0 0 0 .192-.259.9.9 0 0 0 .03-.351 5 5 0 0 0-.131-.434l-1.178-3.625q-.141-.435-.222-.526a.43.43 0 0 0-.252-.128.8.8 0 0 0-.412.04l-.182.059-.051-.156 2.341-.761z"/><path fill="#fff" stroke="#000" stroke-width=".246" d="M170.517 267.217a.536.536 0 0 0 .287-.709.543.543 0 0 0-.689-.295.54.54 0 0 0 .402 1.004Zm1.125.459a.527.527 0 0 0 .295-.689.535.535 0 0 0-.692-.305.537.537 0 0 0-.296.701c.109.273.42.402.693.293Zm.841.831a.54.54 0 0 0 .3-.69.531.531 0 1 0-.988.395.537.537 0 0 0 .688.295Zm.614 1.041a.54.54 0 0 0 .3-.69.54.54 0 0 0-.697-.304.536.536 0 1 0 .397.994Zm.297 1.19a.534.534 0 0 0 .3-.69.526.526 0 0 0-.693-.293.52.52 0 0 0-.295.688c.107.269.42.402.688.295Zm.052 1.173a.52.52 0 0 0 .29-.686.53.53 0 1 0-.29.686Zm1.736 3.812a.535.535 0 0 0 .529-.552.54.54 0 0 0-.529-.529.542.542 0 0 0 0 1.081Zm-2.341-2.639c.294 0 .529-.24.529-.551a.54.54 0 0 0-.529-.53.54.54 0 0 0-.535.53c0 .311.24.551.535.551Zm1.135 2.481c.295 0 .53-.24.53-.551a.54.54 0 0 0-.53-.53.54.54 0 0 0 0 1.081Zm-4.839-8.579c.294 0 .529-.24.529-.551a.54.54 0 0 0-.529-.529.54.54 0 0 0 0 1.08Zm3.057 7.112c.295 0 .53-.241.53-.552a.54.54 0 0 0-.53-.529.542.542 0 0 0 0 1.081Zm.577 1.362c.295 0 .529-.24.529-.551a.54.54 0 0 0-.529-.529.54.54 0 0 0 0 1.08Zm-1.101-.279a.542.542 0 0 0 0-1.081.54.54 0 0 0-.535.53c0 .311.24.551.535.551Zm2.009-.979a.54.54 0 0 0 0-1.08.54.54 0 0 0 0 1.08ZM176.314 276.173c.295 0 .53-.24.53-.552a.54.54 0 0 0-.53-.529.542.542 0 0 0 0 1.081Z"/><path fill="#ffd9ee" stroke="#000" stroke-linejoin="round" stroke-miterlimit="3.1" stroke-width=".246" d="M165.068 179.231c3.024-1.703 7.648-4.34 10.11-6.327 2.457-1.987 2.173-1.42 3.593-2.55 1.403-1.135 1.981-1.315 4.051-1.894 2.08-.562 3.111-.65 3.963-.939.857-.289 1.523-.163 1.588.412.034.198.059.385.059.385s1.192.901 1.76 1.381c.567.459 1.233 1.687.098.945-1.141-.77-1.737-1.338-1.737-1.338s.237 1.483-.047 1.483c-.273 0-.786-1.568-.786-1.568s-.444.009-1.492.571c-1.037.562-2.926.644-2.926.644s-.289.301.661.77c.944.47 1.888 1.026 1.512 1.409-.382.376-.382.376-1.512-.082-1.136-.47-.377-.377-1.606-.284-1.233.093-2.363-.666-3.313 1.124-.945 1.802-6.235 9.358-10.766 11.541-1.512.639-1.698 1.032-3.396.377-1.703-.666-4.787-1.86-5.006-3.499-.227-1.702.295-6.372 2.911-5.585 1.209.364 1.811.841 2.281 3.024Z"/><path fill="#000" d="M188.372 168.418c.089.053.191.092.267.117a.6.6 0 0 0 .131.041s-.026-.051-.088-.107a1 1 0 0 0-.226-.191c-.268-.159-.644-.355-.921-.393h-.002l-.022-.002c-.373-.036-.739.101-.999.199a5 5 0 0 0-.407.173q-.08.037-.124.06-.022.013-.034.018l-.014.007.015-.006q.012-.004.037-.01l.132-.038c.104-.03.253-.071.423-.113.27-.065.637-.166.96-.127l.016.002h-.003c.249.034.595.213.859.37"/><path stroke="#000" stroke-linejoin="bevel" stroke-miterlimit="6.3" stroke-width=".246" d="M188.553 169.315c-.16-.184-.589-.206-.833-.094"/><path fill="#000" d="m163.357 275.26.001.001.001-.002.075-.031a1 1 0 0 0-.199-.296c-.218-.238-.523-.327-.523-.327s.211.226.403.437a.9.9 0 0 1 .167.249zM162.49 275.466h.002l.002-.002.08-.034a1.1 1.1 0 0 0-.22-.32c-.243-.257-.579-.349-.579-.349s.235.244.449.472a1 1 0 0 1 .186.267zM161.577 275.7h.002l.002-.002.084-.037a1.2 1.2 0 0 0-.232-.335c-.257-.269-.61-.365-.61-.365s.248.256.474.495q.132.138.196.28zM160.471 275.717l.002.001v-.002l.061-.023a.9.9 0 0 0-.154-.25c-.169-.199-.413-.28-.413-.28s.163.189.311.366a.8.8 0 0 1 .132.212zM134.558 272.827c.262-.133.432-.248.552-.36.225-.214.259-.517.259-.517s-.188.231-.371.397c-.105.098-.26.205-.514.333zM135.078 273.138c.206-.12.343-.226.446-.322.176-.166.271-.394.271-.394s-.201.146-.363.296a2.3 2.3 0 0 1-.421.304zm.508.256c.202-.125.332-.225.429-.31.163-.144.266-.344.266-.344s-.202.11-.354.244a3 3 0 0 1-.411.297zm.517.235a6 6 0 0 0 .442-.318c.168-.133.299-.315.299-.315s-.211.075-.382.21a6 6 0 0 1-.433.312z"/><path stroke="#000" stroke-linejoin="round" stroke-miterlimit="3.1" stroke-width=".246" d="M160.17 214.027s.104 1.319.133 1.98c.028.64.134 1.289.038 1.923-.063.416-.064.945-.4 1.199-.223.169-.584.156-.838.038-.11-.051-.282-.168-.532-.181m-5.842-25.082 3.116-.168"/><path fill="#000" d="M123.947 160.233a2.2 2.2 0 0 0-1.028-.07c-.321.051-.697.2-.91.271-.241.081-.409.116-.409.116s.172.006.429-.036c.256-.043.588-.138.915-.189.29-.045.601-.045.954.065zM123.983 161.364a4.5 4.5 0 0 0-.797.019 3 3 0 0 0-1.288.479s.634-.254 1.305-.332c.269-.03.535-.035.77-.019zM124.054 162.495a2.8 2.8 0 0 0-.698.026c-.607.092-1.138.384-1.138.384s.584-.145 1.16-.232c.231-.034.456-.047.659-.025z"/><path fill="#523178" d="M133.42 179.701s1.322.573.852-2.075c-.475-2.648-.666-2.555-.475-3.587.186-1.048.475-1.326-.098-3.122-.568-1.791-1.414.098-1.414.098s.284 1.212.093 2.926c-.186 1.698-.382 1.026-.568 1.698-.186.65-.186 2.648-.464 4.711-.289 2.08-.557 6.066-.289 5.012.267-1.054.316-.721.349-.814.352-1.254.645-2.59.824-3.117.365-2.048 1.125-3.024 1.149-2.999l.036 1.28"/><path fill="#000" d="M235.259 167.781c.091-.051.179-.111.256-.183.179-.169.309-.383.398-.533a5 5 0 0 0 .14-.247l.041-.079.016-.033-.023.028-.057.069c-.043.053-.108.13-.181.216-.11.129-.27.327-.436.463-.07.059-.149.108-.234.156-.224.124-.488.218-.696.391-.143.119-.347.259-.404.473-.043.161.014.337.09.466a.8.8 0 0 0 .421.359c.172.059.366.027.524-.027.174-.058.298-.208.433-.29.308-.188.615-.374.936-.531l.237-.113c.312-.142.524-.234.769-.292.081-.02.18-.025.237-.028l.108-.006c.027-.004.047-.002.052-.002a2.321 2.321 0 0 0-.159-.023c-.058-.007-.155-.02-.249-.012a2.8 2.8 0 0 0-.82.219q-.124.05-.247.11c-.327.16-.641.351-.949.539-.152.092-.257.226-.401.275-.14.047-.293.069-.419.026a.65.65 0 0 1-.332-.286c-.063-.108-.1-.238-.072-.342.041-.154.2-.264.35-.389.192-.16.438-.245.671-.374"/><path stroke="#000" stroke-linejoin="round" stroke-miterlimit="3.1" stroke-width=".246" d="M232.111 166.257s.943.424 1.441.556c.726.192 1.544.642 2.229.334a.48.48 0 0 0 .261-.401c.003-.089-.081-.158-.134-.229-.059-.079-.202-.215-.202-.215M232.194 167.338c.783.291 1.751.602 2.57.606m-2.566.363c.613.175 1.312.392 1.959.376"/><path fill="#000" d="m295.004 168.026.614-.13a2.7 2.7 0 0 0 .587-.207s-.319-.017-.62.047l-.615.13zM294.871 167.064l.665-.149c.281-.063.545-.206.545-.206s-.3-.017-.581.046l-.665.15zM294.816 166.267l.603-.184c.281-.086.538-.25.538-.25s-.305.007-.586.093l-.602.185z"/><path fill="#ffd9ee" d="M294.225 165.244s1.287-.305 1.513-.401z"/><path fill="#000" d="M294.244 165.324c.751-.178.432-.103.774-.191.381-.096.72-.29.72-.29s-.382.034-.76.132c-.341.087-.022.012-.772.19z"/><path fill="#ffd9ee" d="M294.225 165.244c.216.197.375.546.567.945Z"/><path stroke="#000" stroke-linecap="square" stroke-linejoin="round" stroke-miterlimit="3.1" stroke-width=".246" d="M294.225 165.244c.216.197.375.546.567.945"/><path stroke="#000" stroke-linecap="round" stroke-width=".942" d="M253.845 220.02c0 1.747-4.187.601-4.187 2.359m1.434-6.927c1.174 1.277-3.004 3.256-1.83 4.533m.411-6.46c.966 1.446-3.155 2.817-2.189 4.274m1.108-6.393c.721 1.578-3.834 2.022-3.118 3.622m2.387-5.909c.458 1.687-3.882 1.687-3.423 3.374m3.057-5.727c.18 1.736-4.1 1.054-3.915 2.79m3.937-5.17c-.099 1.736-4.215.382-4.308 2.129m4.701-4.493c-.372 1.714-4.22-.284-4.592 1.414m5.351-3.674c-.634 1.632-4.111-.939-4.75.677m5.869-2.763c-.885 1.491-3.915-1.621-4.799-.12m6.24-1.796c-1.119 1.327-3.614-2.206-4.722-.868m6.442-.781c-1.316 1.152-3.216-2.746-4.526-1.594m-.865-5.337c1.605.672-1.07 4.078.535 4.766m-2.724-5.896c1.518.863-1.507 3.947.016 4.799m-2.08-6.142c1.42 1.005-1.932 3.751-.507 4.761m-1.376-6.333c1.305 1.157-2.32 3.537-1.021 4.684m-.682-6.459c1.168 1.289-2.692 3.265-1.518 4.554m0-6.492c1.021 1.414-3.025 2.954-2.004 4.362m.71-6.447c.857 1.518-3.325 2.604-2.468 4.122m1.858-6.436c1.027 1.398-3.693 2.97-2.672 4.368m19.655 38.536c.174 1.736-3.969.946-3.794 2.677m4.359 1.584c0 1.747-4.187.622-4.187 2.358m4.187.202c0 1.736-4.187.606-4.187 2.353m4.187.202c0 1.736-4.187.606-4.187 2.348m4.187.196c0 1.736-4.187.623-4.187 2.359m4.187.202c0 1.736-4.187.595-4.187 2.342m4.187.202c0 1.736-4.187.6-4.187 2.358m4.187.197c0 1.747-4.187.606-4.187 2.347m4.187.197c0 1.747-4.187.622-4.187 2.358m4.187.191c0 1.736-4.187.612-4.187 2.353m4.187.213c0 1.731-4.187.59-4.187 2.337m4.187.207c0 1.731-4.187.612-4.187 2.359m4.187.191c0 1.747-4.187.606-4.187 2.353m4.187.191c0 1.736-4.187.611-4.187 2.358m4.301.568c0 1.736-4.353.554-4.353 2.301m.906 5.847c-1.507.89-2.626-3.303-4.128-2.435m1.671 3.86c-1.507.885-2.626-3.303-4.127-2.435m1.676 3.86c-1.512.863-2.626-3.319-4.127-2.446m1.67 3.871c-1.512.857-2.626-3.319-4.127-2.446m1.676 3.844c-1.512.889-2.626-3.303-4.127-2.435m1.67 3.86c-1.512.884-2.626-3.303-4.127-2.446m1.67 3.87c-1.512.874-2.626-3.319-4.127-2.456m1.676 3.87c-1.512.868-2.626-3.324-4.127-2.445m1.67 3.865c-1.512.873-2.625-3.319-4.127-2.43m1.676 3.844c-1.512.884-2.626-3.303-4.127-2.435m1.671 3.854c-1.513.879-2.626-3.314-4.128-2.446m1.671 3.866c-1.512.857-2.626-3.325-4.127-2.446m1.676 3.865c-1.513.874-2.626-3.319-4.128-2.446m1.671 3.86c-1.512.868-2.626-3.319-4.127-2.435m1.676 3.844c-1.513.889-2.626-3.292-4.128-2.435m2.042 3.603c-1.507.879-2.62-3.314-4.122-2.457m43.624-23.606c-.579 1.649-3.627-.797-4.206.841m3.438 2.118c-1.234 1.239-3.415-2.661-4.649-1.432m.276-68.617c.584-1.048 1.867-1.157 2.905-1.048 1.048.109 1.747-.24 1.747-.24"/><path stroke="#000" stroke-width=".819" d="M250.605 264.239c3.445-1.917 3.44-3.975 3.434-6.361v-.311c0-2.375-.027-34.841-.005-39.203l-.934-1.027a15.04 15.04 0 0 1-5.464-11.633c0-5.132 2.565-9.887 6.867-12.688-.005 0 .164-.115.377-.262l-2.489-4.477c-7.654-1.228-13.883-7.233-16.215-14.107h-52.202c-2.325 7.436-8.56 12.879-16.214 14.107l-2.489 4.477c.218.147.382.262.376.262a15.09 15.09 0 0 1 6.874 12.688c0 4.52-1.999 8.756-5.471 11.633l-.933 1.027c.022 4.362-.006 36.828-.006 39.203v.311c-.005 2.386-.011 4.433 3.434 6.361 3.936 2.178 35.988 20.692 40.416 23.252 4.427-2.56 36.708-21.074 40.644-23.252Zm-17.54-85.505a24.8 24.8 0 0 0 15.455 13.343 19.66 19.66 0 0 0-5.465 13.627c0 5.541 2.32 10.787 6.399 14.51-.044 8.926.016 35.208.016 37.353v.322c.005.552.005 1.398-.087 1.616-.011.011-.197.279-.989.737-3.095 1.698-27.602 15.718-38.433 21.969-10.826-6.268-35.109-20.271-38.188-21.969-.797-.458-.983-.726-.999-.737-.082-.229-.082-1.064-.082-1.616v-.322c0-2.145.054-28.427.011-37.353a19.63 19.63 0 0 0 6.392-14.51c0-5.17-1.992-10.013-5.464-13.627a24.8 24.8 0 0 0 15.455-13.343h45.979Z"/><path stroke="#000" stroke-width=".409" d="M171.778 224.806s1.004-.999 3.019-2.009c2.009-1.016 2.768-1.518 4.28-.508a13.7 13.7 0 0 0 3.019 1.507s2.02-1.267 3.783-2.528c1.764-1.256 1.256-2.014 3.527-1.507 2.266.508 7.807-1.004 9.827-2.014 2.014-.999 3.019.262 4.782-2.009 1.763-2.266 1.763-2.026 4.286-3.025s2.009-2.762 5.29-1.769c3.27 1.01 5.033.508 9.821 4.297 4.783 3.772 7.812 5.039 9.827 7.048s4.034 3.287 4.034 3.287 2.015-.77 4.029-1.769c2.009-1.01 2.768-1.758 4.286-.759 1.512 1.01 2.653 1.236 2.653 1.236m0 18.404-76.229.521-.256-18.403"/><path fill="#fff" stroke="#000" stroke-width=".246" d="m200.876 243.679 1.61-.11-1.517-2.456h-.563zm-13.149-.901-3.284-.448c.576 2.061.655 2.566 0 3.794l3.208-.675c.68-.726 1.225-1.515.076-2.671Z"/><path fill="#fff" stroke="#000" stroke-width=".246" d="m193.795 243.286-6.24-.836s.567.748 0 3.396l6.24-.666c.211-.695.194-1.321 0-1.894ZM189.721 237.43c.882-.392.484-1.182.007-1.88l3.963.289c.741.375.735.915.344 1.84-2.14-.287-4.314-.249-4.314-.249Z"/><path fill="#fff" stroke="#000" stroke-miterlimit="4.8" stroke-width=".246" d="M199.716 242.496c.303-.3.517-1.317.025-2.699l-5.099-.371c.301.448.623 1.275.18 3.106 1.709-.562 4.66-.138 4.894-.036Z"/><path fill="#fff" stroke="#000" stroke-width=".246" d="M199.043 239.064c.274-.292.366-.796.077-1.277-1.052-.056-2.105-.182-3.157-.168.159.377.203.711-.093 1.326 1.223-.071 2.115.079 3.173.119Zm-10.068 3.19c.758-1.24 1.135-2.654.567-4.248l5.119.219c.2.678.181 3.003-.954 3.998z"/><path fill="#d18644" stroke="#000" stroke-width=".246" d="M231.803 251.125s1.004-.557.627-1.954c0 0-5.857.579-9.319.442 0 0-.191.513.565 1.512z"/><path fill="#fff" stroke="#000" stroke-width=".246" d="M232.185 248.112c-3.276-4.035-3.211-9.565-3.211-9.565l-2.878 1.341-.015 9.343zm-8.075-8.376s-3.139 4.538-4.52 7.993l5.418 1.327c-1.073-3.084-1.842-7.114-.898-9.32Z"/><path fill="#ffd9ee" d="M278.688 148.582c-.07-.286-.64-.697-.908-.677-.208.015-3.48-.245-3.736 1.131 0 0-1.414 4.344-1.608 6.6-.216 2.515.508 7.556.508 7.556h.011c-.48.243-1.085.425-1.71.596 1.763 3.019 2.89 8.498 2.89 8.498l9.485-.412c-.771-2.63-.81-5.308-2.132-7.904l-1.36-.528s.252-1.883.252-4.017c0-2.14 1.586-1.465 1.564-3.048-.016-.945-.174-1.659-.223-2.336-.049-.731-2.907-4.962-3.033-5.459"/><path fill="#000" d="M280.383 159.095c.063-.09.045-.224.041-.251l-.002-.004q0-.001-.005.001c-.024.015-.138.083-.177.176-.286.523-1.121 1.803-2.382 1.702a7 7 0 0 1-1.093-.165c-.48-.109-.861-.219-1.21-.34a7 7 0 0 1-.345-.128l-.094-.039q-.033-.013-.037-.016a2.599 2.599 0 0 0 .12.076q.118.073.327.178c.318.157.729.321 1.202.429.336.076.712.139 1.118.168 1.36.109 2.242-1.247 2.537-1.787M241.531 111.507l-1.091.09c-.699.058-1.392.198-1.392.198s.706.024 1.405-.034l1.091-.09zM240.399 112.894l-1.088.035c-.572.018-1.142.118-1.142.118s.575.063 1.147.045l1.088-.034zM239.324 115.066l-1.485.069c-.767.036-1.53.154-1.53.154s.77.046 1.537.01l1.485-.069zM237.019 117.286l-1.215-.198a12 12 0 0 0-1.287-.127s.623.185 1.26.289l1.216.198zM235.884 118.42l-1.136-.192a11 11 0 0 0-1.236-.127s.598.185 1.209.288l1.135.193zM234.879 119.796l-.934-.161c-.611-.106-1.236-.131-1.236-.131s.597.187 1.208.292l.934.161zM234.121 120.807l-1.127-.201c-.556-.1-1.126-.118-1.126-.118s.541.18 1.097.279l1.127.201zM233.625 122.323l-1.323-.243a18 18 0 0 0-1.569-.205s.762.223 1.539.366l1.324.243zM232.999 123.458l-1.605-.327a20 20 0 0 0-1.665-.256s.808.248 1.633.416l1.604.328zM231.362 124.84l-1.903-.434c-.738-.168-1.494-.256-1.494-.256s.72.248 1.458.416l1.903.433zM231.365 126.092l-1.918-.51c-.731-.195-1.482-.31-1.482-.31s.709.274 1.44.468l1.918.511zM229.854 127.092l-3.507-.928c-.881-.232-1.783-.386-1.783-.386s.86.312 1.741.545l3.507.927zM227.588 127.985l-1.709-.47c-.769-.211-1.561-.344-1.561-.344s.748.29 1.518.502l1.709.47zM226.084 129.361l-1.52-.464a14 14 0 0 0-1.392-.339s.66.287 1.344.496l1.52.464zM223.322 130.995l-.831-.262a11 11 0 0 0-1.203-.294s.565.264 1.154.45l.83.262zM221.482 132.247l-.833-.233c-.488-.136-.999-.194-.999-.194s.467.215.955.352l.833.233zM195.267 131.343c.43-.145 1.132-.625 1.653-1.01.39-.288.68-.523.68-.523z"/><path fill="#000" d="M195.293 131.42c.379-.127.952-.5 1.434-.845q.124-.089.238-.182c.181-.145.337-.288.452-.398l.131-.13.052-.054q-.01.004-.064.039l-.157.096a20 20 0 0 0-.747.495c-.48.344-1.035.705-1.391.824zM193.465 130.552a3.8 3.8 0 0 0 1.376-.528 3.1 3.1 0 0 0 .82-.751l.041-.061q.012-.021.014-.025a1.308 1.308 0 0 1-.074.069 4 4 0 0 1-.198.159 8 8 0 0 1-.689.469c-.357.22-.803.423-1.316.507zm-1.336-.931c-.023.005-.032.085-.032.085s.041.07.067.064l.001.005c.536-.123 1.039-.398 1.438-.673l.006-.004c.438-.365.823-.785.84-.804-.022.014-.512.319-.945.678l.006-.005c-.39.268-.872.532-1.382.649zM190.94 129.027l.972-.613c.535-.337 1.026-.744 1.026-.744s-.578.268-1.113.605l-.972.613zM189.67 127.895l1.177-.659c.56-.314 1.081-.7 1.081-.7s-.601.243-1.162.557l-1.176.659zM187.873 126.802c-.003.002-.002.01-.002.01s.007.006.009.005l.036.064 1.229-.673c.469-.258.899-.587.899-.587s-.509.186-.978.443l-1.229.674zM186.014 125.877l1.146-.471c.604-.249 1.177-.573 1.177-.573s-.635.173-1.239.421l-1.146.471zM184.874 124.756l1.194-.406a10 10 0 0 0 1.078-.453s-.578.11-1.13.298l-1.195.406zM184.403 123.248c.627-.204 1.23-.486 1.23-.486s-.653.127-1.281.331l-1.168.379.05.156zM181.201 121.867l1.446-.306c.557-.117 1.097-.315 1.097-.315s-.574.037-1.131.155l-1.446.306zM179.819 120.615l1.926-.397a14 14 0 0 0 1.361-.365s-.705.062-1.394.204l-1.926.398zM178.721 118.051c-.062.002-.119.087-.119.087s.064.079.126.076l1.741-.074c.604-.025 1.204-.133 1.204-.133s-.607-.056-1.211-.03zM175.003 115.999c-.035 0-.069.083-.069.083s.036.081.071.081l2.197-.022a25 25 0 0 0 1.886-.101s-.944-.072-1.887-.063zM172.806 113.814l2.224.074c.906.03 1.813-.022 1.813-.022s-.902-.112-1.807-.142l-2.225-.074zM171.611 111.923l1.356.049c.477.017.957-.048.957-.048s-.474-.099-.951-.116l-1.356-.048zM168.819 109.225l.99.149c.348.052.707.023.707.023s-.335-.133-.683-.185l-.989-.149z"/><path fill="#ffd100" stroke="#000" stroke-width=".246" d="m285.064 173.281-1.987-8.976-1.998-.42c.196.142.497.661.802 2.348.508 2.756 1.136 5.421 1.136 5.421l-8.691.365s-1.01-5.29-2.774-8.314l-1.423.191c1.135 1.775 3.127 9.663 3.127 9.663l3.985-.098c.044.72.254 1.519.175 2.276-.234 2.223-1.327 4.537-1.895 6.431s-2.173 7.458-2.173 7.458l2.364-.268s1.321-3.597 2.457-6.999c1.13-3.395 1.469-4.734 1.703-7.184.056-.584-.073-1.758-.073-1.758z"/><path fill="#0077c8" d="M266.453 195.757s1.321-1.496 3.396-2.075c2.08-.562 4.346-.748 7.561-.95 3.21-.196 2.266.202 4.531.568 2.266.382 4.717 1.507 5.667 2.659 0 5.093-.376 11.322-1.135 16.994-.754 5.673-.762 3.766-1.079 5.66-.022.131-.057.395-.057.395l2.672 1.801s1.984 2.427 3.672 1.502c2.235-.878 1.212-.661 1.021-9.172-.186-8.495-2.834-21.351-2.834-21.351l-.562-1.125c-.377-2.271-3.117-1.791-3.68-1.136-.567.666-.758.847-.758.847s-.47-.099-1.895-.574c-1.414-.469-2.926-.562-5.475-.562-2.55 0-2.272 0-4.914.481-2.648.474-3.778.84-5.006 1.987l-1.136 4.051"/><path stroke="#000" stroke-width=".246" d="M266.453 195.757s1.321-1.496 3.396-2.075c2.08-.562 4.346-.748 7.561-.95 3.21-.196 2.266.202 4.531.568 2.266.382 4.717 1.507 5.667 2.659 0 5.093-.376 11.322-1.135 16.994-.754 5.673-.762 3.766-1.079 5.66-.022.131-.057.395-.057.395l2.672 1.801s1.984 2.427 3.672 1.502c2.235-.878 1.212-.661 1.021-9.172-.186-8.495-2.834-21.351-2.834-21.351l-.562-1.125c-.377-2.271-3.117-1.791-3.68-1.136-.567.666-.758.847-.758.847s-.47-.099-1.895-.574c-1.414-.469-2.926-.562-5.475-.562-2.55 0-2.272 0-4.914.481-2.648.474-3.778.84-5.006 1.987l-1.136 4.051"/><path stroke="#000" stroke-linecap="round" stroke-linejoin="bevel" stroke-miterlimit="3.6" stroke-width=".246" d="M282.094 196.083 281.027 178m0 0-5.888 18.237M281.027 178l5.363 18.15"/><path fill="#d18644" stroke="#000" stroke-width=".246" d="M280.626 147.278c-.284-1.125-.573-1.125-1.703-1.976-1.136-.846-2.179-.847-3.211-.847-1.043 0-1.801.846-2.555 1.698-.748.862-.649 1.714-.649 1.714v1.605s-.088.562-.754.955c-.666.366-.944 1.033-1.61 2.157-.655 1.136-.655 2.271-.093 3.685.568 1.425-.283 1.228-1.414 1.801-1.13.563-1.419 2.643-2.08 3.396-.66.748.661.852.186 1.791-.47.944-.47.667-.088 1.425l.017.06c2.266-.666 4.706-1.01 4.706-1.01a5.6 5.6 0 0 0 1.566-.53s.749-1.387.749-3.532c0-2.135-.377-3.652-.377-3.652s-.822-.067-.879-.382c-.119-.648 1.255-.748 1.14-1.251-.131-.507-.131-1.26-.131-1.26l.754-2.91c.251-1.376.759-1.245 1.141-.491.377.747 1.633.119 1.895-.885.246-1 1.005-.628 1.13-.12.126.497.879 1.627.879 1.627s1.195 3.28 1.571 3.903c.377.628.574.939.443 1.895-.213 1.572-.879 1.141-.879 3.27 0 2.134-.251 4.028-.251 4.028s.488.294.754.394c.72.271.905.343 2.244.548.609.093 1.069.309 2.325.757l.185-.088s-.093 0-.185-.29c-.093-.289.093-.649.464-.84.377-.191.186-.666-.273-2.075-.474-1.419-.852-1.238-1.796-2.079-.95-.846-.667-1.136-.759-3.303-.093-2.168-.568-3.112-1.321-4.914-.759-1.796-.494-2.41-.494-2.41z"/><path fill="#000" d="M275.712 157.536c.503-.508.628-.508 1.387-.508.754 0 .879.197 1.256.055.371-.115.879.442.879.442s-.508 0-1.136.262c-.622.24-.753-.142-1.261-.142a7 7 0 0 1-1.13-.12M276.472 155.385c.628.382.659.251 1.004.251s.826.044 1.005-.251c.179-.297-.246-1.01-.246-1.01s1.25 1.01.502 1.261c-.759.251-1.135.382-1.632.251-.508-.12-.628-.502-.628-.502"/><path fill="#f2a900" stroke="#000" stroke-width=".246" d="M272.688 149.336c1.894-1.01 3.526-1.769 4.536-1.507 1.01.24 4.035 1.256 4.035 1.256s.218-1.354-.508-1.633c-2.899-1.135-4.782-1.643-6.425-.633-.665.407-.893.508-1.638 1.01-.503.186-.47 1.796 0 1.507Z"/><path fill="#fff" stroke="#000" stroke-width=".246" d="M273.119 151.055c.191-.475.876-.675 1.37-.731 1.549-.174 3.159-.105 4.717.093.489.062.805.04 1.384.515.557.48.622 1.543.454 2.023-.179.511-.165 1.077-.396.824a2 2 0 0 0-.683-.239c-2.012-.391-6.142-.29-6.142-.29s-.776.263-.797.053c-.064-.651-.099-1.767.093-2.248Z"/><path fill="#ffd100" d="M208.688 138.509s-.295-.676-.377-1.387l-1.026.082c.213.376.191.976.268 1.305 0 .853.174 1.409-.819 1.688-.989.289-1.322.48-1.463 1.425.425-.426.753-1.043 1.184-.655.421.382 1.037.611 1.037.611s-.66-.852.284-1.141c.945-.284 2.599-.24 2.599-.24s-1.19-.546-1.376-.928c-.185-.377-.316-.76-.316-.76"/><path stroke="#000" stroke-width=".246" d="M208.688 138.509s-.295-.676-.377-1.387l-1.026.082c.213.376.191.976.268 1.305 0 .853.174 1.409-.819 1.688-.989.289-1.322.48-1.463 1.425.425-.426.753-1.043 1.184-.655.421.382 1.037.611 1.037.611s-.66-.852.284-1.141c.945-.284 2.599-.24 2.599-.24s-1.19-.546-1.376-.928c-.185-.377-.316-.76-.316-.76"/><path fill="#ffd100" stroke="#000" stroke-width=".246" d="m214.907 136.722-.901.135c.065.312-.027.7.224 1.517.093.376-.894.617-1.271 1.087 0 0 1.702-.076 1.669.419-.045.7.142 1.212.142 1.212s.284-.273.666-.469c0 0 .415.044 1.229.284.797.229 1.081.704 1.081.704s.425-1.228-.847-1.883c-1.086-.519-1.12-.365-1.463-.803-.359-.459-.447-1.839-.529-2.203Z"/><path fill="#ffd100" d="M202.762 109.344s.739.255.878.576c.125.289-.165.932-.165.932s-.863-.192-.946-.206a34 34 0 0 0-.575-.068l-.946.082s-.832.309-.864.247c-.057-.111.37-.957.48-.891.31-.28.642-.532 1.096-.631z"/><path stroke="#000" stroke-width=".246" d="M214.89 136.698c-.202-1.493-.087-.599.726-.711.874-.117.623-1.887.623-1.887s2.642-.388 3.778-.388c1.13 0 .748-1.369 2.134-1.757 1.392-.376 1.01-.87 1.01-.87s.251-.393 1.512-.253c1.262.124 1.387-.505 1.387-.505v-.888l1.381-.253.126-1.122 2.014-.129.251-.764 1.638-.241-.125-.759.502-.253-.502-.999h1.512l.126-1.381 1.13-.376-.503-.758.879-.253-.382-1.263.759-.242v-.769l1.136-.494-.131-.882 1.381-.129-.246-.87v-.135s1.381-.371 2.14-1.887c.759-1.505 1.763-1.881 1.763-1.881l-.507-.623 1.004-.512.131-.875s2.015-.376 4.286-1.263c2.271-.882 2.773-3.016 2.773-3.016s-5.164.87-11.721 1.628c-6.546.759-12.218 1.388-15.117 2.275-2.893.87-.502 3.268-4.154 7.047-2.124 2.193-5.296.999-6.169-.635-.885-1.628-2.015-4.908-2.015-4.908h1.005l-1.005-1.887 1.005-.504s-.879-.506-2.894-1.517c-2.014-.994-3.527-.5-4.788.505-2.265-.241-2.642 1.646-2.642 1.646s1.512-.634 2.522-.253c1.005.376 1.884-.381 2.266 5.29.376 5.66-2.397 4.661-5.541 4.538-2.643-.382-3.282-1.14-3.909-3.274-.628-2.145.131-3.274-2.523-5.167-2.636-1.892-11.202-3.397-16.241-4.279-5.045-.887-11.967-2.768-11.967-2.768s.12 1.011 1.632 2.011c1.502 1.01 2.386 2.015 2.386 2.015s.131.13.879 1.253c.753 1.139 2.009 1.516 2.009 1.516s.502.887 1.01 1.64c.502.746 2.768 3.138 3.652 3.902.885.747 2.517.747 2.517.747-.628 0-.879.382-1.004 1.14.758.882 2.014 1.264 2.014 1.264l-.251.881 1.632.371-.245 1.258 2.271.505-.508.747 2.146.382-.503.758 1.638.364-.382.758 2.271.253-.382 1.011h2.14l-.502.882 1.768.253s3.396 2.263 5.798 2.879c2.391.647 1.25 1.394 4.275.394 1.791-.629 1.365-.576 2.02-.758.247-.068 1.632.505 1.256 1.252-.383.77.371 1.387 1.13 3.027.753 1.634.376 1.14 1.255 1.14.377 0 .541.047.65.323l1.021-.082c-.038-.253-.066-.394-.033-.623.131-.882.628-1.011.628-1.011l1.13.747s-.251-.747-.628-2.51c-.377-1.758-.131-2.139-.131-2.139l1.016.24s.748 2.528 2.522 3.791c.999.712 1.158.806 1.196 1.211l.84-.117"/></svg>