<svg xmlns="http://www.w3.org/2000/svg" width="420" height="420" fill="none" viewBox="0 0 420 420"><path fill="#0073cf" d="M379.873 60H40.127C17.966 60 0 77.966 0 100.127v219.746C0 342.034 17.966 360 40.127 360h339.746C402.034 360 420 342.034 420 319.873V100.127C420 77.966 402.034 60 379.873 60"/><path fill="#000" d="M176.751 105.863c-.258.246-.478.605-.854.373.101-6.089-2.532-11.095-5.541-15.9-.329-.653-1.262-1.156-1.914-1.336 1.375 3.894.372 7.38 1.051 11.283.048.136.329.368 0 .504-.565-1.152-1.222-2.265-1.599-3.513-.661-1.156-1.782-2.08-2.947-2.72-1.858-.823-3.124-2.448-4.849-3.596-.684-.145-1.244-.999-1.853-1.113l-.937.027-.149.862c.026.36.179.745.153 1.074 2.3 3.43 5.804 5.908 7.175 9.855-.789-.088-1.446-.916-2.423-.824-.232.009-.276.285-.227.469.613 1.621 1.782 3.101 2.26 4.682-4.056-2.071-2.839-7.564-6.662-9.907-.561-.233-.986-1.385-1.682-1.008.521 1.113.757 2.265 1.138 3.43.377.933.338 1.625.574 2.602l-.14-.189c-1.397-.319-2.378-1.568-3.776-1.791l-.276.232c2.523 2.405 3.89 5.414 5.581 8.239 1.182 3.106 2.413 6.255 5.168 8.607-.411.539-.941.981-1.318 1.472l-1.029 1.042c-.767-.486-1.547-.968-2.339-1.318-.513-.18-.509.42-.504.744l1.673 2.449-.714.512-.07.088-.438.442c-3.057 4.183-5.567 8.033-7.126 12.869-.513-.096-1.306-.508-1.582.009-.884 1.086-.245 2.172.416 3.206l-.573 1.016c-.215-.381-.482-.736-.89-.972-1.944.99-.214 2.935-.157 4.275-1.647 4.192-2.593 8.848-3.171 13.272-.876 1.025-2.077 2.05-2.58 3.403l.092.092c-.276.421-.412.933-.495 1.45-.552.701-1.809.372-2.834.569-.692.189-.316.885-.408 1.345.517.933 1.49.276 2.326.591l.605.083c-.079 1.586-1.897 1.319-2.913 1.748-1.069.377-2.462.197-3.25.951.372.127.517.552.749.827.285.977-.92 1.301-1.332 2.094.057 1.866-.026 3.399.127 5.305.416.319.092.696-.087 1.064-.083 1.853-.443 3.675-.289 5.532-.092.512.464.276.652.556l.035 5.204c.189.416.6.179.833.412-.583 2.417.499 5.063.144 7.713.188.315.561.232.745.455-.219.933-.824 1.823-.859 2.703-.171 2.558-.617 5.396-.556 7.946l.188.188c.14.14.281-.048.421.044-.048.135.048.284-.092.368-.723 2.934.687 5.672.144 8.786.285.513 1.073.316 1.582.316-.268.556-.452 1.208-1.012 1.585-1.38 1.862-.114 3.627-.521 5.764l.657.316c0 .324-.325.473-.325.797.29 1.301.346 3.197 1.608 4.218.701.083.648-.745 1.016-1.174.044-.736.407-1.437.635-2.181 1.849-1.454 1.652-3.36 1.73-5.493-.284-1.437.868-2.659.951-4.192-.197-1.625.999-2.882 1.222-4.463-.517-1.625.959-2.707.81-4.183-1.454-2.269.995-4.424-.184-6.702 1.113-.744.64-1.857.96-2.934.871-1.717-1.087-2.677.389-4.266 1.152-1.498-.354-4.416 2.055-5.357l.845.924.092-.101.329.324c1.182 3.807 2.974 7.512 4.857 11.121 1.787 3.618 4.503 6.895 6.759 10.316-1.665 1.738-3.373 3.696-5.173 5.286-1.266-1.887-1.792-4.257-3.43-6.062l-.092.092-.188-.179c-1.165-.368-2.418-.035-3.342.95-1.157.701-1.66 1.726-2.212 2.944-1.052 2.65 2.444 3.745 3.521 5.172.513.421 1.533.456 1.538 1.157-2.063 3.679-5.953 6.167-8.673 9.343-1.796 2.479-5.501 4.686-5.852 7.989.097.512.657.832 1.073.548 6.43-4.311 11.551-10.062 17.556-15.681.28-.189.328.42.561.087.372.373.928.368 1.436.324.092-.608-.1-1.301-.333-1.909 1.936-2.055 4.709-4.069 6.974-6.133-.171 1.634-.951 3.172-1.45 4.749-.552.933-1.573 1.033-2.361 1.554-.789.233-1.446-.459-2.094-.17-.692.744-.127 1.804.11 2.601-.416.557-1.069-.087-1.577.241-1.253.614-.732 2.094-1.095 3.115.28.468.744.692 1.213.836-.184.736-.272 1.481-.591 2.182-.32.7-1.249 1.121-1.24 2.001.565 1.533-.306 2.988-.206 4.516l.329.508c.328.04 1.117-.105 1.485-.197.192 1.069-.872 1.446-1.568 1.87-.964 1.814-.342 4.179-.609 6.084-.132 1.025-.171 2.515.346 3.115-.092.744-.876 1.581-.311 2.326.101 1.397.67 3.39.355 4.879.008.828-.495 2.514.438 2.965-.035 1.91.442 3.347.267 5.204 1.073.828-.267 1.958.201 2.83.097.42.425.608.749.832-.359 1.489-.442 3.162.443 4.463-.079 1.389.714 2.646 1.187 3.894.696-.285.692-1.213.919-1.813 1.428-1.643 2.247-4.245 1.398-6.47 1.664-1.266.955-3.447.849-5.125.785-1.34.636-2.838.579-4.41.779-1.262.635-2.234.394-3.631 1.104-1.634.53-3.575 1.402-5.353.411-.745-.566-1.48.127-2.181.924-.241.919-1.354.727-2.002-.478-2.089.254-4.135-.04-6.364a16.3 16.3 0 0 0 1.231-3.68c.412-1.112-.434-2.225-.254-3.346.372-.377.407-1.489 1.34-1.078.653.044.508-.797.412-1.165-.613-1.301.732-2.093.399-3.302-.666-1.853-2.44-3.285-2.961-5.226.407-1.309.819-2.61 1.226-3.959.167.092.307.324.451.477l.373.718a2.6 2.6 0 0 0-.298.662c.806 2.361 3.578.433 4.66 2.567-.228.184-.228.56-.228.749.193 1.112 1.406 1.471 2.291 1.747.793.421 1.621-.565 2.094.495 2.702 1.428 5.274 3.592 8.02 5.015v.189c-.04.136-.223.048-.412.092-.087.556-.736.985-1.152 1.353-.977-.267-1.866-.876-3.026-.771-.044.333.188.469.1.789.232.512.793.88 1.257 1.068.837.18 1.906.075 2.506-.249-.276.652-.456 1.345-.824 2.002-1.287 1.677-3.14 3.079-5.322 3.193.049.512-.083 1.068-.17 1.581.096.6.56.744 1.02.924.237.412-.035.924-.079 1.248-.131 1.122-.587 2.475.763 3.115.14.736-.504 1.165-.403 1.909.048.504.56.64.841.92.092.184-.092.276-.136.421.333 1.625-.443 3.346 1.003 4.594-1.157.89.201 2.269-.443 3.251-.043.512.697.275.561.832-.504.565-.359 1.401-.403 2.19 1.17 1.104-.355 2.597-.298 3.994 1.078 1.858 1.143 4.499.552 6.457-.044.556.653.328.841.508.044.136-.092.136-.188.228.013 1.765-.999 3.491-.381 5.348.95 3.294.048 7.529 2.483 10.302a1.66 1.66 0 0 0 1.016-.754c1.1-2.33 1.503-4.559 1.954-6.981 1.292-1.122 1.327-2.839 1.546-4.289-.013-2.264.67-4.454.657-6.824 1.003-2.619 1.958-5.961.683-8.699-.324-.179-.56-.508-.608-.832.643-1.445 1.279-3.635.385-5.296-.236-.468.232-.28.508-.429.324-.136.556-.46.6-.836.088-.513.228-.933-.197-1.345-.942-2.361.994-4.472.561-6.741-1.822-1.805.254-4.004-.548-6.229-.517-.919-1.581-.219-2.33-.63-1.91-.916-.298-3.106-.447-4.499l.745.127c2.567 1.932 5.913 2.002 8.94 2.821.376.232 1.073.223 1.121.832.469.557.889.736 1.494.736 1.016.127 1.704-1.318 2.593-.709.696-.145.744.595 1.169 1.007.929.6 2.181-.018 3.11-.53l.386 1.165c-.193 1.257-.11 2.541-.215 3.763l-.14.179c-1.025-.223-1.818-1.187-2.523-1.975-.929.28-.968 1.121-1.52 1.769-.04.653.705 1.345 1.218 1.805-.184.14-.465.188-.601.197-.88.609-2.325.145-3.017.994.057 1.709-.211 3.115.311 4.687.42.421.88-.053 1.3-.144q.354 1.04.294 2.225c-2.597.898-.631 3.206-1.318 4.936-.5 1.393 1.169 1.007 1.681 1.104-.503.972.158 2.786-1.467 3.259-.416.324-.271.88-.271 1.445.052.736.981.64 1.357.872-.547 1.581-.63 3.534-.898 4.98 0 .512.513.547.749.828-.227.797-.315 1.953-.122 2.834-1.06 1.169-.863 3.079-.578 4.191.048.272.232.18.42.316-.131.136-.039.42-.083.609-.412 1.349-1.051 2.65.298 3.753-.359 1.542-.627 3.312-.71 4.748.333 1.814 1.463 3.579.688 5.528-.447 2.882 1.191 5.475 1.209 8.454 1.257.03 1.34-1.498 1.844-2.431.547-1.722 1.279-3.303 1.362-5.212-.061-2.23 1.183-4.14 2.146-6.054.688-1.082.495-2.466.395-3.67.687-1.03.727-2.423.906-3.588-.004-.416-.425-.692-.193-1.112 1.192-2.103 1.131-4.937 1.297-7.442.92-1.634.67-3.868.797-5.681.911-2.514.802-5.252 1.113-7.862-.101-.828-1.31-1.844.079-2.37.267-1.529.906-3.438.057-4.928l.832-1.016c.227-.609-.333-1.069-.521-1.581a13.4 13.4 0 0 1-2.44-3.561c-.469-.648-1.349-.083-1.765-.6.122-1.805.07-2.83.057-4.731l-.189-.376c1.954-.101 4.135-.119 5.808-.36 5.576.158 11.52-.727 17.039-2.755.42.644 1.301.224 1.813.311.005 1.025-.219 2.002-.398 3.027-.092.136-.324.232-.232.464-1.201.846-1.31-1.2-2.287-1.471-.6.376-.828 1.068-1.056 1.677-.183.648-.968 1.538-.214 2.094-.508.42-1.161.377-1.669.617-.745.272-.6.881-.504 1.49.097.503.749.639.981.919-.367.421-1.02.149-1.388.566-.315 1.857.066 3.254.447 5.015.096.6.797 1.436-.171 1.669-.692.792-.451 2.001-.123 2.785.465.141.837-.184 1.257.141-.368.512-.643 1.068-.919 1.633-.259 3.062.784 6.167.801 9.238l1.069.088c-.407 1.112-1.196 2.041-1.139 3.35 1.082 2.225 1.24 5.007.561 7.429.236.88.241 1.853.341 2.786.097.508.465.087.741.32l.113 3.153c.145.841.014 1.963.758 2.37l-.228.328c-.214 2.326-.249 4.275-.188 6.781-.039.42.285.977.749.744.74-.376 1.573-1.13 1.564-2.01.044-.701.175-1.529.499-2.273l-.096-.097c1.48-1.454 1.699-3.539 1.874-5.081.215-2.549.947-4.791 1.485-7.306-.346-3.114 1.218-5.996.5-9.014 1.064-1.082.63-2.466 1.511-3.635.267-1.345-.39-2.782.298-4.091.175-1.258-.666-2.226-.762-3.251.586-1.909-1.415-3.193-1.38-4.91.88-.565 2.277.031 2.829-1.046.132-.649-.241-1.249-.337-1.897.276-.232.6-.285.924-.377 1.161-.241-.008-1.217.5-1.677l-.184.188-1.358-1.848c-.329-.513.32-.933.083-1.393-1.31-1.577-2.251-3.474-2.777-5.427-1.445-.684-1.086-2.55-1.047-3.618 1.958.779 4.376.814 6.373.985 2.602-.293 4.109 2.532 6.798 1.625.697.088 1.665-.468 2.501-.521a143 143 0 0 0 2.024 3.745c-.096.096-.232.149-.324.188.004.933-.031 2.466-.351 3.259-.227.609.009 1.533.798 1.757-.828.889-.631 2.282-.995 3.447.048.556.605.044.929.324-1.66 1.213-.81 3.67-1.962 5.168-.32.701.144 1.258.424 1.761-.915 1.77-.157 3.627.684 5.204-.6.784-.916 1.905-.631 2.829 1.077 1.249-.587 2.147-.394 3.448.521 1.756.534 3.714-.662 5.251-.827 1.165.526 2.09.298 3.202-.639 1.678.854 2.97.355 4.643-.039.885.797 1.345 1.489 1.021.789-.469 1.016-1.446 1.012-2.19-.946-2.182 2.58-3.32 2.054-5.594-.013-2.361 1.739-3.964 2.05-6.237.881-.661 1.384-1.774 1.143-2.755-1.033-2.308 1.043-4.091 1.03-6.176-.307-2.019.758-3.399.955-5.256l.105-.793c1.239 1.419 2.212 3.062 3.202 4.577.985 1.669 2.531 3.097 3.241 4.858.232.096.228-.189.32-.281 1.41 2.037 3.6 2.953 5.558 4.004.876-.797-.293-2.046-.53-3.014-.096-.512-.657-.924-.613-1.34-.285-.653-1.073-1.345-1.17-1.901-.284-.504-.657-1.06-1.266-1.196-1.314-2.225-2.12-4.638-3.574-6.811-1.082-2.089-2.72-4.03-3.294-6.255l.929-.512c-.009-1.446-.066-2.694-.771-3.951-.188-.456-.657-1.012-.705-1.481.42.228.841.693 1.257.736.788-.376 1.016-1.257 1.244-2.001.272-1.069-.894-1.766-1.502-2.593.416-.145.88-.053 1.344-.106.929-.416.92-1.484 1.24-2.334-.048-.556-.561-.828-.754-1.332 1.985-2.431-1.83-3.526-2.312-5.843.368-.376.604-.337 1.161-.337 1.16-.009.639-1.581 1.007-2.326-.053-1.025-1.262-1.204-1.686-2.037-2.291-2.12.201-4.739-.373-7.433 2.015-1.174 1.849-3.329 1.446-5.44l.503-.306c.079.459.171.928.254 1.419.189.368.561.595 1.025.451.78-.701.754-1.949.557-3.123l.499-.399c.661-1.104 1.349-2.216 1.827-3.416.534-1.332 1.077-2.659 1.611-3.986l.167.464c-.149 1.463.42 3.062.315 4.534.005.595.745.547 1.165.639l-.827 1.069c-1.201 1.686-.027 3.399-.99 5.033.661 1.668-1.468 3.583.122 4.971-.276.324-.74.561-.832.981-.32.881.526 1.524.946 2.173-.044.376-.412.841-.644 1.257-.779 1.257.066 2.466-.065 3.767-.697.701-1.104 1.866-.728 2.702 1.45 1.292.066 3.062.679 4.639-1.66 2.194.587 4.411.692 6.688h.281c.924-1.121 2.124-2.295 2.391-3.78 1.017-1.165 1.332-2.654 2.252-3.92 1.493.78-.561-.6.46-1.025-.478-1.901 1.375-3.031.806-4.748.17-2.457 1.458-4.415 2.422-6.561.166-2.558 1.498-5.213 1.669-7.771 1.66-1.914 1.598-4.472 1.993-6.894-.382-2.361.622-4.551.372-7.109 2.221-2.107-.21-4.919 1.025-7.442-.386-1.953.67-4.235.285-5.852l.324-.333c-.285-.832-1.214-.508-1.91-.591l-1.603-3.57c-.329-.692.179-1.16.503-1.664.088-.429.548-1.121-.105-1.45-.556-.368-1.296-.083-1.664.526-1.248 1.152-1.389-.36-1.813-1.406l-.995-1.196a4.26 4.26 0 0 0-1.27-2.996c.898-4.976-.898-9.382-1.161-14.021-.008-1.769-.946-3.25-.867-4.928.092 0 .184-.043.232.097.416-.14.46-.565.412-.933-.495-1.2-1.45-2.16-2.527-2.917l-.145-.6c.14-.368-.328-.557-.285-.925.324-.232.885.18 1.113-.332.315-1.766-1.643-2.865-2.944-3.645-.008-.933-.661-1.585-.757-2.413-1.976-3.566-3.767-7.227-6.435-10.512 2.952-2.756 5.677-5.887 8.958-8.743.827-.986 1.936-1.875 2.071-3.272-.236-1.034-.819-1.976-1.489-2.812l.648-.609c.504-.307.982-.863 1.319-1.275-.425-.828-1.45-1.471-2.015-2.163-.788.42-1.568 1.173-1.936 1.918-.464-.42-.937-1.253-1.682-1.48-.837-.18-1.717-.035-2.321.53-2.383 2.505-5.13 4.31-7.144 7.082l-.754.307c-1.445-.828-1.62 1.077-2.593 1.454-.512-1.204-2.273-.263-2.746-1.743l.092-.097c.547-.376.359-.972-.009-1.392a5.24 5.24 0 0 0-2.825-.119l-.464-.744c-.29-.53-1.104-.868-1.42-1.389-3.78-2.523-7.328-5.011-11.427-6.706-4.617-2.102-9.365-3.517-14.485-4.507l.048-.088c.228-.332.276-.657.179-1.077-.424-.736-1.16.009-1.765.017-.972.837-2.645.522-3.903.627.417-.517 1.065-1.165.824-1.954-1.529.285-3.014.762-4.262 1.603-2.326-.214-4.288-.18-6.553-.188-5.527.872-11.379 1.555-16.618 3.447-.648.1-2.978.898-2.978.898-.136-.653-.776-.447-1.292-.77-1.761.656-1.744 2.934-3.649 3.363a24 24 0 0 0-2.024-3.75c-.889-1.344-2.247-3.008-3.964-2.667-.184.28-.324.605-.135.933 1.077 2.352 1.747 4.902 1.979 7.622"/><path fill="#9a3b26" d="M269.298 215.191c-.031.311-.014.627.061.951 1.209.32 2.698.311 3.434-.854.088-.469.223-.986.175-1.393-.876.298-1.787.556-2.632.937zm6.465.706c-.395-.618-.517-1.398-.565-2.02.14.04.28.04.372.136.841.46.88-.657 1.296-.985.89.876-.455 1.677-.543 2.558a3 3 0 0 1-.162.661l-.394-.35"/><path fill="#efe8c7" d="M278.891 204.732c-.596.206-.653 1.301-1.135 1.831-.236-.18-.517-.325-.749-.504-.928.092-.749-.6-.753-1.345h-.276c-.276.648.429 2.085-.631 2.379-.963 2.001-3.193 2.29-5.002 2.54-1.778-1.345.21-2.978-.355-4.603.92-1.161.307-2.602.487-3.859.131-1.069.963-1.906 1.467-2.839-.421-.096-.973.189-1.257-.276-.097-.88-.202-2.505-.254-3.67-.04-.342-.206-.719-.154-1.043l-.135-.99c2.339-5.834 4.485-11.703 5.177-18.208-.241-.933.6-.565.968-1.117.425 1.017.526 2.221.346 3.342-.088.881-.688 1.625-.819 2.37h.276c1.607-1.625 1.077-4.455.525-6.439l-.306-1.244c-.386-.998-1.209-1.905-.705-3.044l.516.692c.141.464-.035 1.345.474 1.481-.049-.692.175-1.573-.478-1.993l.416-.281.684.631c-.031.447.499.78.582 1.213.162 3.588.237 7.898.499 12.037.596-1.025.211-2.418.298-3.666.513.504.609 1.288 1.078 1.752.32-.648-.333-1.248-.57-1.857-.232-.044-.508.105-.6-.127-.061-2.234-.267-5.296-.236-7.53.977.504 1.524-.985 2.453-1.033.516.692-.263 1.436-.587 2.093-.132.977.517 1.669.757 2.501.469.837.846 1.665 1.131 2.589.324-.368.788-.28 1.3-.188.285.924.154 2.321-.026 3.442.53 2.738-1.222 4.748-.228 7.705.425.977-.639 1.594-.915 2.422.434 2.138-1.034 4.337-.28 6.417-.548 1.634-.254 3.259-.71 4.884-.797-.872-1.778-1.564-2.619-2.488-.14-.18-.053-.745-.513-.6.101 1.248.802 2.405 1.275 3.609.144.556.841.881.841 1.489a18 18 0 0 0-.482 1.516l-.771.009"/><path fill="#9a3b26" d="M279.547 205.165c-.464 1.866-.709 3.741-1.484 5.672l-.189-.188c-.705-.828-.762-2.597-2.107-2.488.005.968.062 2.317-.63 3.206-.605-.188-.241-1.16-.938-1.204a7.4 7.4 0 0 1-3.407 1.66l-.868.315c-.311-.341-.683-.683-.639-1.152.039-.516.46-.788.871-1.029 1.393-.241 2.83-.342 4.034-1.042.877-.986 1.941-1.643 2.304-2.852l1.03.736c1.016.241 1.099-1.016 1.476-1.796l.547.171"/><path fill="#efe8c7" d="M270.016 212.252c.259.307.43.631.163 1.052-.421.477-.723 1.033-.841 1.625l.994-.447c.902-.548 1.984-.596 2.961-.964.145.924.009 1.625-.311 2.462-1.113.429-2.037.942-3.25.486-.184.368.004.745-.083 1.209-.276.797-1.2 1.445-.824 2.422l1.249-1.261c1.213 1.103 2.369.122 3.762.061.329.044.469.653.841.324.504-.889 1.34-1.266 1.24-2.282.035-.109.074-.223.118-.333l-.53-.504c-.705-.696-.889-1.874-.727-2.636.604-.289.793.411 1.257.306.276-.512.504-1.34.78-1.581.56.083.241 1.353.889.828 0-.189-.048-.416.184-.513.039-.324.219-.827.171-1.34-.973-.464-1.214-1.713-1.783-2.593-.46.604.144 1.025-.171 1.678-.32.512-.315 1.34-1.06 1.445-.416.039-.561-.42-.701-.696.048-.092-.092-.145-.14-.228-1.178.53-2.146 1.266-3.416 1.283z"/><path fill="#9a3b26" d="M259.814 246.316c-.477-.508-1-.972-1.563-1.384-.04.929.385 2.085.946 2.966l-.416.105c.188.219.28.556.608.692.145-.565.263-.889.303-1.389l.118-.99"/><path fill="#efe8c7" d="M209.18 268.029c-.171-.241-.328-.478-.556-.701-.653-.136-.044.701-.46.933-.324-.232-.42-.653-.837-.508-.56.149-.368.885-.271 1.261.425 1.016 1.27 2.444.718 3.334-.188-.084-.42-.272-.604-.084l-.079 2.414c-.092.092-.184.228-.324.188-.092-.096-.232-.184-.232-.328-.377-.092-.701-.548-1.117-.263.337 1.993 2.571 2.952 2.724 4.993-.083 1.446-1.051 2.567-1.835 3.688-.837-.28-.981-1.301-1.77-1.669-.648.71-.455 1.774-.127 2.519.666 1.805-.017 4.363-.981 6.044-.657-1.112-.066-2.785-.863-3.762l-.832.657c.14-.46.039-1.297.407-1.813l.281.14c.328.188.744.083.972-.241.272-1.437-.434-3.022-.582-4.415-.377-.548-.938-.968-1.542-1.008.223-1.301.122-2.457.814-3.587 1.021-.377 2.037-.942 2.826-1.682.179-.609.779-1.165.403-1.866-1.301-.035-2.869 2.019-3.807.215.083-.377-.009-1.073.644-.933 1.016-.942 2.212-2.063 3.088-3.228-.841-1.205-2.51.197-3.535-.947-.008-1.165-.245-2.286.303-3.263a.918.918 0 0 1-.837-.271c.079-1.814.486-3.68.894-5.44-.469-.097-1.025-.044-1.354-.509-.657-1.852 1.989-1.87 1.511-3.771.228-.46-.236-1.393.732-1.489.508-.28 1.016-.793.968-1.349-.784.88-1.844 1.769-3.058 1.546l-.302-4.363c.416-.468 1.064-.941 1.52-1.357-.092-.885-.096-1.722-.337-2.646-.513-.044-.692.657-1.253.421-.372-.368-.053-.925-.381-1.24-.048-.894-.245-2.466.166-3.355 1.161-.197 2.453-.618 3.667-.951-.377-.648-1.358-1.156-1.363-1.984.276-.512.552-1.077 1.017-1.454.792.88 1.677 2.08 3.031 1.743.262-1.108.022-2.821.17-4.209l.018-.837c.517.088 1.064.097 1.586.162.048.189-.184.136-.228.276-.083.973.197 2.23.109 3.071.574 2.264-1.134 4.003-.657 6.132-.074 1.813 1.459 3.013 1.984 4.586l.325-.188c-.285-.925-.85-1.709-1.459-2.488-.237-1.122-.613-2.002-.342-3.259.035-.885.215-1.814.399-2.51.648.18 1.485-.057 1.77.727.197 1.586 1.966 2.457 2.536 3.842.604.652-.416.849-.644 1.257-.416.429.052.933.149 1.353.192 1.393.254 3.482-.951 4.415-.32.837.521 1.393.574 2.182-.315 2.001-.67 4.095-.613 6.092-.416.513-.228.929-.5 1.446-.424-.6-.565-1.345-.845-1.993-.285-.508-.565-1.157-1.077-1.433-.272 1.398.113 3.294.354 4.871l-.184.145c-.328 0-.56-.136-.841-.224-.004-.7-.608-1.344-.753-2.085h-.232c-.044.605.289 1.625.985 1.993l-.135.324c.376 1.06.898 2.077 1.182 3.198 1.17.867.482 2.151.53 3.338l-.652.205"/><path fill="#9a3b26" d="M208.886 268.235a.5.5 0 0 0-.166-.079c-.092.188-.088.512-.412.521-.464.096-.42-.416-.749-.596-.411.828.43 1.617.618 2.409.193.6.337 1.389.153 1.945l-.324.241c-.048-.14-.232-.044-.324-.096-.088.744-.131 1.581-.171 2.369-.228.565-.745.197-1.069.053-.096-.232-.328-.32-.512-.412l-.092.092c.609.977 1.218 1.945 2.107 2.773.687-1.301 1.143-3.071.574-4.464 1.138-1.029.906-2.72 1.208-4.165z"/><path fill="#efe8c7" d="M142.953 162.42c.039-.517-.013-.995.022-1.507-.933-.136-1.765.241-2.694.342-.14.232-.044.608-.088.836.657.736 1.582-.009 2.374.355z"/><path fill="#9a3b26" d="M276.06 171.228a4.4 4.4 0 0 1-.441-.854c-.382-1.156-.947-2.173-1.788-3.097-.42 0-.797-.88-1.353-.924-.28.053-.653-.083-.837.285.241 1.068 1.174 1.896 1.691 2.917.802 1.152 1.086 2.641 2.396 3.565.416-.1.228-.657.131-.933-.14-.232-.372-.42-.328-.744.35 0 .412.473.674.626zm-124.807-33.079c.175.272.337.548.455.819.701.693.473 1.249.154 2.09-.666-.447-.925-1.218-1.258-1.927zm16.653 76.736c-.569-.701-1.244-1.402-1.875-2.076.465-.233.784-.609 1.2-1.03 1.17 1.157 2.107 2.173 3.413 3.185-.601.197-1.761.289-2.226.245z"/><path fill="#9a3b26" d="M265.874 200.461c-.097-.495-.215-.968-.294-1.349 3.942-7.924 6.027-16.395 7.692-25.146.179-.881.311-1.906.587-2.694 2.093 1.524.578 3.526.639 5.528-.858 3.762-1.485 7.441-2.952 10.797-.18.889-.916 2.001-1.008 2.702-1.708 3.189-2.431 6.833-4.318 9.873zm3.184-60.336c.591.271 1.213.6 1.809.972l-.061-.639.127.017c-.149-.464.048-1.139-.719-1.2-.517-.46-1.261-.736-1.914-1.06-.074.359.083.745.302 1.078l.456.823"/><path fill="#efe8c7" d="M257.914 112.981c2.243 3.548 1.686 8.125 1.84 11.717 3.924-4.2 8.037-8.081 12.054-12.102.552-.754 1.012-1.406.582-2.379l-.184-.14-.092.097c-.477-2.138-2.667-3.285-3.933-5.09-.701-.412-1.165-.315-1.861-.079-2.563 2.278-5.655 4.604-7.815 7.521zm13.872-5.663c.355-.412.968-.635 1.139-1.2-.421-.64-1.122-1.052-1.682-1.564-.648.521-1.152 1.077-1.476 1.77.442.459.941.968 1.414 1.515z"/><path fill="#b3995d" d="M246.888 111.842a3 3 0 0 0-.271.215c-.048 0-.096-.053-.096-.14-.044.044-.044.087-.136.087l.004.889c1.349.403 3.342-.626 3.772 1.183-.373.188-.325.513-.412.837.517 1.156 1.577.127 2.51.214l1.774 1.249-.092.42c-1.573 1.025-2.957 2.615-4.341 3.872-.648.565-1.432 1.498-2.506.994-.372-.127 0-.411-.004-.648-.193-1.209.403-2.277-.158-3.434-1.16-.407-2.79-.495-4.371-.486-.136.609-.407 1.213-.407 1.678-.18.836-.268 1.677-.587 2.461l-3.671.027c-.504 1.165-.355 2.79-.394 3.994.28.232.933.464 1.257.232.469.368 1.721-.017 2.278.351.149.933-.355 2.286.346 2.834-7.017 7.201-14.595 14.218-21.423 21.607h-.281c-.337-1.949-.398-4.604-.6-6.408-.42-.272-.052-1.122-.793-.924-1.016 1.173-1.287 2.61-1.975 3.964-1.056 1.861-1.043 3.95-1.213 6.088-.132.661.333 1.301-.123 1.866-.364-5.62-.635-11.616-4.472-16.058-.377-.451-.565-.828-1.17-.915-.227.28-.411.609-.315 1.025 1.691 3.005.784 6.872-.123 9.943-.153-1.625-.07-3.202-.122-4.687.293-4.371-1.538-8.362-3.75-11.835-.42-.272-.981-.587-1.436-.263-.281.28.14.648.092 1.016.354 4.604.297 9.807-.46 14.459.197 2.225.915 4.551 1.34 6.68.053.933.337 1.765-.118 2.601-.324-.223-.609-.735-.933-1.007-.802-1.669-2.348-3.193-3.285-4.91.963-1.774 1.739-3.636 2.566-5.449 1.534-6.75.32-14.962-2.229-21.458-.705-1.113-1.226-2.873-2.808-3.001-.416.189-.227.701-.319.929 1.931 4.358-1.06 8.787.595 13.381.075 4.415 1.454 9.19-.096 13.802-.14.092-.276.333-.508.237-1.682-1.104-2.068-3.097-1.844-4.823 1.104-1.677 1.835-3.587 1.962-5.536-.079-4.928.307-10.368-3.67-14.297-1.214-.548-2.059-1.984-3.36-2.155-.495 1.721-.714 3.859-.241 5.62 1.919 2.404 2.685 5.93 2.33 8.677l-1.533-1.157c-.933-.127-1.809.806-2.409 1.411-.425-.925-1.174-1.709-1.507-2.729.092-.416.32-.837.644-1.025 1.135-4.236 2.69-8.292 1.174-12.79-.521-1.345 1.341-.429 1.752-1.266l.158-4.603c-1.209-.548-2.698-.583-3.859-.898-.285-1.165.075-2.558-.022-3.763-1.305-.6-2.702-1.147-4.1-1.047.044-.92-.197-1.896-.433-2.785-.005-.32-.473-.872.039-1.06.329.407.097.74.517 1.06 1.485-.241 1.476-2.011 2.584-2.756 3.058-1.23 6.255-2.128 9.505-2.807 5.186-.622 10.508-1.573 15.296-1.634l.578.079c-.193.434-.289.889-.119 1.366 1.49.5 2.217-1.923 3.89-1.555.328.18.359-.13 1.169.333.881-.017-.092.863.609 1.179 1.025.276 1.669-.802 2.501-1.126.465.272 1.069.18 1.49.504 2.93.35 5.356 1.822 8.151 2.453 6.075 2.877 12.51 5.041 18.042 9.119l.179.499"/><path fill="#9a3b26" d="M249.023 110.427c-7.814-6.714-17.788-10.998-27.735-12.846l-1.94 1.546c1.725.915 3.863.718 5.541 1.73 6.469 1.721 12.391 4.801 18.361 7.827 1.169.635 2.882 1.91 4.034 2.729l1.739-.99"/><path fill="#1691ff" d="M242.715 224.534c1.848 1.38 3.622 2.9 6.084 2.935.092-.044.324-.136.324-.324-.329-.136.044-.232-.188-.421l-1.844-4.722c-1.301.294-2.528 1.336-3.807 2.063z"/><path fill="#9a3b26" d="M242.115 224.1a9 9 0 0 0-.63-.42l.863-.727c1.362-.675 2.597-1.608 3.898-2.387.232.28.329.609.517.933-1.227.871-2.602 1.555-3.736 2.352l-.911.249m-10.451 3.943-.057.446c-.127.211-.215.495-.272.719-2.225.898-4.314 1.331-6.631 1.949-3.575.95-7.758.609-11.288 1.095-2.133.017-4.963.403-7.105.044l1.753-1.542c2.882.311 5.527-.171 8.458-.289 5.216-.662 9.877-.276 14.59-2.269z"/><path fill="#b3995d" d="M247.869 183.764c-.188.083-.376.179-.608.179-2.322-.078-3.842 2.155-4.994 3.702-1.747 3.083-2.374 6.657-4.818 9.369-.425-.977-1.358-1.752-1.507-2.917 1.341-1.078 2.217-2.523 3.088-3.916 2.948-4.161 1.796-9.685 2.138-14.564.451-2.05.762-4.192.144-6.132-.184-.241-.096-.798-.604-.653.048.285-.324.421-.416.661-6.014 4.354-3.36 12.379-5.97 18.34-.688 1.406-.399 2.926-.714 4.371a36 36 0 0 0-2.904-3.096l-.048-.408 2.071-3.416c1.192-2.23 1.967-4.937 2.786-7.315.67-4.087 2.646-7.819 2.571-11.949-.337-1.721-.162-3.671-1.612-4.963-.731 1.678-1.883 2.843-3.223 4.157-3.277 2.9-5.392 7.144-3.592 11.638l-.184.512c-.232-.043-.28-.411-.561-.275-1.949.293-2.908 2.619-3.272 4.388-.841-.827-1.125-1.94-1.178-3.009 1.98-2.523 3.031-5.23 2.873-8.572-.302-3.578-1.441-7.144-1.975-10.858 3.649-2.952 6.281-5.944 9.557-9.4l13.951-13.381c2.352-2.387 4.757-4.586 7.245-6.837-.495 1.866-.995 3.64-1.214 5.681.009 1.344 1.034 2.501 1.279 3.85-1.095 2.746-1.401 5.86-.267 8.686-.963 2.19-1.27 4.848-.976 7.306-1.704 2.334-.942 5.352-.272 8.042-1.384 2.19-.85 5.488-.136 7.945-1.06 1.678-2.164 3.456-2.058 5.502.056 1.384 1.782 2.584.63 3.942-.363 1.068.338 1.993.346 2.917-.604.482-.876 1.309-.823 2.01.004.745.657 1.437.429 2.09-.692.744-.451 1.857-.074 2.693-.233.189-.557.557-.644.933-.092.649.052 1.393.569 1.901-.131 1.108-.083 1.77.11 2.839.28.368.696-.145.836-.43-.144-.556.688-.889.316-1.392.319-.89.35-2.234.346-3.115.552-.985.495-2.282.442-3.355l.188.188.325-.376.065-3.807.324-.092c.276-.429.6-.933.596-1.353.504-1.349.679-3.071.482-4.507l.464-.421c.175-1.725 1.003-2.615.81-4.38-.1-.692-.105-1.204-.337-1.761-.193-.976-.666-1.901.399-2.654l-.092-.092c1.012-1.542.67-3.114.753-4.603.556-.745.64-1.906.819-2.747-.376-.88.644-1.204.408-2.093 2.4-2.528 1.958-5.957 1.616-8.975 1.84-2.712 1.029-6.049.591-8.975 1.235-2.935 1.722-6.049 1.428-9.531-.144-.513-.429-1.069-.477-1.49 1.314 1.669 2.255 3.706 3.105 5.655l-.14.18c-.092-.136-.232-.084-.372-.084-.324.136-.044.513-.228.649.377.88 1.31 1.524 2.194 1.756.07.403.241.907.473 1.358l.189.692c-.486-.144-.968-.333-1.349-.604-.184-.097-.465-.189-.741.092.014 2.233 2.523 2.08 3.649 3.885 2.129 5.935 2.541 12.431 2.676 18.983l-.464.009c-.736 1.165.526 2.181 1.178 3.053-.271.285.237 1.069-.411.933-.044-.044-.092-.092-.092-.136-.513-.18-1.117-.412-1.485.145-.224 1.633 1.454 2.645 1.931 4.082-1.655 9.715-3.823 19.452-8.09 28.16l-.517-.64c-.184-.188-.56-.324-.652-.284a6.6 6.6 0 0 0-.324 2.439l-.635.351c-.018-.084-.031-.18-.044-.263l-.329-.464c-.56-.513-.885.135-1.252.42-.509-.18.363-1.021-.513-.924-1.388 1.266-2.865 2.899-3.224 4.765.197 1.625-.858 3.531-1.642 4.884-.679-4.647 3.622-7.963 1.918-12.325-.473-1.345-.758-2.313-1.274-3.57-.237-.421-.193-1.113-.662-1.249.11 2.642-1.406 5.261-2.969 7.547-.64 1.582-1.56 3.027-2.247 4.608l-.145-.315c-.219-5.16.013-12.593.863-17.95.035-1.437.026-2.746-.443-3.806a10 10 0 0 0-2.273 1.765l-1.104.18m-31.725-8.524c-.959-.057-1.91.328-2.716.771-1.62.942-.402 2.326-.35 3.583-.928-.219-2.186-.075-3.346-.443-1.349-.223-2.655-.582-4.091-.665.363-.706 1.103-1.122 1.515-1.783l.219-.53c.692-.377.937-.495 1.494-.964 1.66-1.638 4.687-.867 6.452-.687.258.026.46.205.687.35z"/><path fill="#9a3b26" d="M233.463 218.985c1.498-.438 3.014-.933 4.63-1.104.333.924.105 1.717.018 2.737-1.577.198-3.115.027-4.74-.153l-.039-.429z"/><path fill="#b3995d" d="M188.305 142.201c-1.029-2.624-2.439-4.95-4.37-7.157-1.529.657-2.961 2.155-4.49 2.908-5.935 1.625-10.797-2.492-16.829-1.423-.416-.228-.832.149-1.068-.324.411-.881 1.568-1.726 2.396-2.427.604-.517 1.441-.377 2.089-.753-1.827-2.313-1.897-5.751-4.744-7.271-.087-.412-.464-.876-.232-1.253.276-.324.784-.425 1.152-.237 4.512.53 6.215 5.44 9.947 7.28 1.77.403 3.671.11 5.348.565 1.862.219 3.448 1.564 5.445 1.034-.71-1.849-2.12-4.209-4.398-4.38-2.654-.78-5.672-1.178-8.462-1.205-.092-.232-.696-.223-1.069-.368-2.514-.906-4.774-2.869-6.596-5.015l-.793.71c-.456.788-1.178 1.533-1.594 2.361-2.668 3.876-5.572 7.805-6.939 12.268.149 1.345 1.135 2.593.771 3.85-.284-.368-.933-.455-1.169-1.007l-.736 1.161c.517.88.894 1.76.854 2.873-.184.188-.368.421-.648.337l-.841-.6-.368.421c-.863 3.026-2.265 9.632-2.265 9.632-.74 7.577-.735 15.107 1.166 22.154.385 1.765.626 3.255.779 5.107.749.789 2.19 1.056 2.243 2.261-.46.565-1.113.429-1.717.477.004.556.289 1.064.057 1.625 1.121.876 2.518 1.191 3.364 2.304.28.513-.368.788-.741 1.025h-.508c.193 1.029.99 2.089 1.275 3.062 2.681 5.238 5.69 10.516 9.391 15.094l2.996-3.185 14.954-15.431c.21-.18 0-.285.232-.512.556-.053.885.407 1.349.503-.145-.924-.526-2.317.166-3.25 3.005-2.628 5.914-5.475 8.822-8.335-.609-.46-1.262-.775-1.682-1.332.508-.473 1.204-.705 1.669-1.077-1.349.048-3.018.622-4.372.162-1.16-.456-1.905-.403-3.026-.959-.324.144-.557-.224-.745-.36v-.324c.832-.241 1.432-.941 2.269-1.266-1.774-.696-4.148-1.651-4.069-3.981-.188-.407.276-.513.508-.605 1.765-.105 4.284 1.503 6.272.29 2.834-.666 6.693-.136 9.374-2.291-3.574.254-7.144 1.905-10.539 1.831-2.282-.688-4.84-1.13-6.802-2.843-1.209-.403-2.422-1.327-3.128-2.208 3.005-2.575 6.185.522 9.619-.153 2.274-.429 4.03-2.207 6.264-1.94 2.457-.482 5.536 1.349 7.52-.977-.372-.324-.473-.924-.889-1.113.088-.512-.521-1.016-.801-1.384-.469-.609-1.078-1.301-1.822-1.428-.973-.043-1.669.513-2.405.938-1.432.893-2.913 2.019-4.442 2.772-1.392.43-3.201.995-4.739.539-2.93-.718-5.957-1.581-8.064-3.85-1.125-1.476-1.831-3.145-2.956-4.582-.14-.368.228-.556.32-.696 1.112-.377 1.957.688 2.934.582 2.795 1.231 5.642 3.404 8.984 2.353 2.129-.982 4.643-.487 6.728-1.617l-1.735-2.076c-1.809.521-3.057 1.643-4.958 1.932-4.174 1.375-6.759-3.023-11.121-1.831-.929-.368-2.23-.316-3.167-.907-1.209-.179-1.862-.823-3.027-1.051-.793-.412-1.629-1.148-1.866-2.037-.512-.223-.425-.871-.937-1.239l.092-.044c-.561-.797-1.498-1.573-2.199-2.269.32-.745 1.253-.333 1.857-.425 1.766.399 3.487 1.043 5.029 1.726 1.673.504 3.294-.066 5.111.709 1.77.32 3.447 1.236 4.941 2.388.609.315 1.397.315 2.098.495.044-.417-.425-.785-.521-1.249-.145-.836-.105-1.853.263-2.597 1.226-.206 2.711-.329 4.016.065l-.07-.95"/><path fill="#9a3b26" d="M232.186 227.854c.534.154 1.059.316 1.563.504-.276.745-1.064 1.218-1.853 1.266-.359-.35-.013-.648.084-.972zm31.128-26.872c.054.268.11.53.163.806l.561-.052c-.062-.351-.11-.692-.149-1.034l-.517.403M161.893 118.89c.434.276 1.214.745 1.638.994.504-1.029 1.472-1.866 2.164-2.702-.464-.329-1.025-.556-1.537-.832-.381.665-.946 1.147-1.437 1.66zM211.178 98.65c.158-.28.342-.557.495-.82.276-.42.692-.753.872-1.165-2.37-.223-5.112-.412-8.086.053-5.707.819-11.095 1.651-16.285 3.583-.465.052-1.73.556-1.73.692 0 0-.211 1.507-.671 2.019 1.393-.333 2.83-1.034 4.315-1.375 4.866-1.608 9.373-1.74 14.529-2.602 1.831.079 3.92-.412 5.895-.377z"/><path fill="#000" d="M176.75 105.863a.6.6 0 0 1 .302-.188Z"/><path fill="#b3995d" d="M175.966 109.438c-.118 1.283-.337 2.584-.443 3.867.237.504.333 1.06.754 1.481-.153-2.331 1.599-4.004 1.305-6.29-.184.052-.355.298-.53.486z"/><path fill="#9a3b26" d="M216.579 95.285c-.595 1.301-2.168 2.2-3.088 3.364-.928.377-1.388 1.266-2.316 1.599.039-1.581 1.283-2.983 2.579-4.02.833-.513 1.852-.658 2.825-.943m4.933.806c.24 1.07-1.06 1.402-1.472 2.002-1.064.71-2.177 1.362-3.193 1.975-.053-.367.271-.836.503-1.213 1.104-1.542 2.493-2.295 4.162-2.764m-3.247 1.043-1.537 1.739-1.138-.062s-.565-.035-1.17-.254l1.476-1.594c.657.105 1.533-.009 2.37.17m-34.341 7.754c-.179.271-.319.648-.643.836-.526-2.085.53-4.319 2.286-5.541 1.406 1.709-1.187 3.071-1.642 4.705"/><path fill="#395839" d="M164.761 102.079c.754 1.209 2.195 1.608 3.085 2.628.893 1.06 2.382 2.12 2.396 3.653-.701-.127-1.306-.591-1.866-1.051-1.122-.876-2.747-.499-3.776-1.651-.661-1.533-1.691-2.918-2.26-4.494.836.179 1.542.779 2.422.915"/><path fill="#9a3b26" d="M182.755 103.126c-.368.46-.18 1.257-.596 1.673-.096-.368-.145-.744-.241-1.112.328-.101.464-.561.837-.561m3.81 7.175c.009 1.489-.359 2.558.022 3.911 1.349.171 2.79.215 3.863.898l-.157 3.995c-.373.376-1.025.052-1.441.289-.662-1.897-1.836-3.474-3.005-5.09-.28 0-.513-.324-.793-.083-.867 2.273.587 4.634.048 7.012-.223 1.669-.587 3.25-.298 4.783-.464.053-1.156-.074-1.76-.17 2.063-4.433 2.435-10.662-.561-14.963.131-.504.127-1.112.451-1.572 1.301.074 2.51.39 3.631.99"/><path fill="#1691ff" d="m168.175 112.005-.6.648-2.011-1.744.092-.052c.793.464 1.586.915 2.519 1.148"/><path fill="#9a3b26" d="M252.238 111.698c-1.761 1.117-3.434 1.086-5.291.872h-.14c.179-.701 1.156-.942 1.756-1.411 1.156-.565 2.506-.429 3.671.118zM170.18 113.244c-.183.232-.416.653-.74.556l-1.542-.959c.644-1.349 1.582.171 2.282.403M252.338 112.946c-.836-.035-1.664 1.402-2.277.206.6-.526 1.484-.337 2.089-.859-.188.053 0 .474.188.653"/><path fill="#000" d="m217.533 113.586.031 4.279c.832-.145 1.853.307 2.65.727.565.692.105 1.761.11 2.602-.46.648.105 2.409-1.38 2.002-.837.056-1.441-.403-2.278-.215-.311 2.326-.249 4.783-.977 6.929-1.204.889-2.742.298-4.183.119-1.301-.224-.337-1.805-.481-2.414.315-1.581-.022-3.342.201-5.116-1.073-.359-2.554.158-3.351-.622-.149-1.301.215-2.978.298-4.468 1.2-1.213 4.28.907 4.03-1.839.136-.881-.013-2.037.398-2.926 1.678.455 3.259.394 4.932.942"/><path fill="#efe8c7" d="M256.477 127.983c-.057.114-.122.215-.232.276-.087.513-.552.793-.968 1.161-8.729 8.283-18.015 16.898-25.952 25.361-1.34 1.305-2.584 2.615-4.065 3.789-.854-2.69-.876-5.896-3.21-7.692-.184 0-.325 0-.416.188.709 2.318-.574 4.643-.465 7.153.333 1.625-.582 3.259-.477 4.884l-.924.565c1.598-4.192.827-8.274.008-12.549l.092-.42c7.797-8.086 15.515-15.383 23.504-23.29 3.46-3.232 6.925-6.92 10.574-10.197.022 3.535 1.844 6.426 2.978 9.422zm.736-6.132c-.933-2.173-1.279-4.398-.775-6.837 1.06 2.304 1.314 5.032 1.169 7.665z"/><path fill="#773141" d="M256.675 122.228c-.815-2.098-1.34-4.328-.977-6.794.141-.46.412-.977.973-.745.701.504.705 1.24 1.034 1.901.438 3.251.88 6.733-.119 10.035l-.416 1.709c-.105.188-.293.385-.407.565-.727 2.799-2.514 6.39-.359 9.119l.324.088c.096.135-.092.232-.04.324.841 1.292 1.363 2.637 2.02 4.029.805 2.269 1.655 4.543 2.877 6.671 1.468-3.026.705-5.996-.052-8.961-2.808-3.058-3.671-6.947-4.669-10.758.092-.136.083-.416.324-.416.845 2.505 1.515 5.151 2.558 7.604.7 1.2 1.682 2.269 2.387 3.465.911-2.558 1.59-5.397 1.248-8.279-.525-2.365-2.216-5.186-4.866-5.725.092-.144.276-.096.416-.096l.083-.745c.302-3.854.416-7.901-.999-11.471-.324-.368-.608-1.301-1.257-.964-.551.973-1.712 1.213-2.076 2.335-.403 2.65.311 5.431 1.397 7.748.092.276.938 1.945 1.082 2.878l.092-.009c.184-.32-.004-.876.18-1.112.044-.368.083-.745.118-1.122z"/><path fill="#9a3b26" d="M217.025 113.87c.285 1.205-.166 3.018.119 4.232.376.367 1.025.035 1.489.267l1.253.503c.105 1.249-.07 2.55-.482 3.816-1.064.328-2.51-.64-3.342.205-.123 2.458-.25 4.503-.793 6.921-.74.429-1.673-.035-2.413.114-.513-.096-1.074-.14-1.494-.508.311-2.506.293-4.779.28-7.245-.792-.315-1.489-.083-2.326-.171l-.836-.136c-.057-1.576-.061-2.969.298-4.279 1.344-.469 2.137.088 3.482-.342.596-1.213.263-2.746.578-4.047z"/><path fill="#b3995d" d="M172.606 114.716c-.701-.136-1.586-.316-2.331-.636.644-1.169 1.582.311 2.331.636"/><path fill="#9a3b26" d="M254.06 113.638c.14.136.328.272.377.556-.649.377-1.437.325-2.182.43-.744-.044-1.436.521-2.089.192 0-.227.228-.416.416-.604.464.188.508-.324.832-.421.929-.332 1.761-.385 2.646-.153m-.031 2.129c-.42.009-.701-.368-1.025-.548.416-.092.837-.092 1.161-.333-.14.241-.184.565-.136.881"/><path fill="#b3995d" d="M179.776 117.909c.447.118.903.236 1.122.521.109 1.853-.259 3.114-.386 4.928-.749-.789-.893-1.993-1.599-2.917-.166-.907-.07-1.766.171-2.576z"/><path fill="#9a3b26" d="M179.79 117.453c.333.062.696.289 1.06.224-.145-.789-.473-1.428-.71-2.173a12.5 12.5 0 0 0-.88 1.849z"/><path fill="#b3995d" d="M174.722 119.07c.946 2.317 2.677 4.261 3.671 6.57-2.19-.351-3.32-2.764-5.458-3.123-3.026-.583-6.281-.981-8.988-2.541.412-.933 1.433-1.633 2.076-2.378 2.795.771 5.773 1.625 8.699 1.472"/><path fill="#9a3b26" d="m246.42 117.58.324.329c.057 1.485-.074 2.418-.158 3.951.329.368.793.368 1.257.315-1.844 2.243-4.2 4.345-6.373 6.316l-.022-3.022c-1.117-.504-2.181.017-3.438-.394-.149-1.016-.061-2.317.162-3.386 1.021-.197 2.742.254 3.903-.127.455-1.345.495-2.79.902-4.091 1.301-.105 2.23.403 3.443.109m-85.843 3.246c-1.326 1.511-2.29 2.4-2.785 3.368-2.579 3.268-4.042 6.903-5.646 10.583.285.652.474 1.436.85 2.089 1.779-5.304 5.199-9.627 9.054-15.033l-1.472-1.007"/><path fill="#d1b881" d="M259.938 124.948c-.294.298-.478.666-.407 1.196.981.223 2.054 1.011 2.522 1.703l-1.852-2.172z"/><path fill="#9a3b26" d="M260.209 124.689c.491-.407 1.104-.753 1.397-1.34h.14c2.436 3.368 4.363 6.938 6.246 10.503l.706 1.901c-2.786.289-2.48-3.096-3.881-4.577-1.323-1.936-2.611-4.021-4.31-5.742z"/><path fill="#b3995d" d="M184.907 126.853c.101 1.63 1.647 3.294.355 4.836-.802-1.669-3.272-3.044-2.453-5.331.657.324 1.489.079 2.098.495"/><path fill="#9a3b26" d="M152.012 135.25c.661 1.804 1.047 3.754 1.708 5.514-1.45-1.152-2.251-2.961-3.237-4.489-.236-.6.04-1.249.504-1.669.416-.009.928.223 1.025.644m119.778 3.684c-.044.188.141.473-.135.565-1.774-.828-3.171-1.888-4.941-2.523-.285-.281-.657-.6-.705-1.017 2.369.022 4.651.846 5.781 2.975m-121.281 1.02c.657 1.428 2.015 2.633 1.976 4.258-1.117-.272-2.287-1.608-2.619-2.729.188-.136-.233-.18-.233-.18-.144-1.016-1.265-1.993-.389-3.018.88.136.841 1.113 1.265 1.669"/><path fill="#773141" d="M260.98 149.139c.329.412-.179.885.381 1.253.25 2.558.5 5.484-1.16 7.534-.237-1.069-.434-2.558-.907-3.71-.858-3.715-3.666-6.719-3.692-10.662.083-1.445.49-2.882.902-4.288 1.879 3.158 2.462 6.768 4.476 9.873"/><path fill="#9a3b26" d="M273.596 144.777c-2.558.017-3.645-3.132-5.975-3.719-.232-.368-.885-.644-.749-1.113 2.65.631 5.729 2.103 6.724 4.832m-122.876-.973c-1.546 5.269-3.044 11.034-2.917 16.426-.118 3.302-.237 6.184.385 9.518.215 3.902 1.674 7.293 2.12 11.379-.749-.933-2.886-.674-2.479-2.264-1.143-4.407-.933-8.174-1.472-12.536l.088-.837.044.092s-.105-2.273-.066-3.25c.346-3.723-.285-8.366 1.082-12.413.442-2.611 1.266-5.125 2.129-7.587.236.504.753.872 1.082 1.472"/><path fill="#9a3b26" d="M273.091 146.371c1.139 3.618.937 8.213 1.936 11.787.013 1.813.394 3.806.035 5.528-.468-.653-1.489-.548-1.682-1.336-.263-4.687-.433-9.711-1.577-14.118-.105-1.572-.762-2.882-1.143-4.362.565 1.069 2.838.771 2.431 2.501"/><path fill="#000" d="M187.625 145.657c.281-.04.653.044 1.166.088.604.223 1.441.455 1.677 1.156-.556-.097-.744-.653-1.349-.644-1.073-.272-2.514-.591-3.487-.074-.188-.097-.096-.276-.096-.412.232.083.232-.189.324-.285.421.223 1.485-.057 1.765.171"/><path fill="#773141" d="m259.556 158.767-.232.236c.008 1.069.017 2.322-.351 3.347-.665-2.685-2.908-4.586-3.53-7.324-.153-2.181-.263-4.822.604-6.973 1.787 3.285 3.25 6.864 3.509 10.714"/><path fill="#b3995d" d="M209.978 159.551c-.556.42-.644.976-1.248 1.217-.609-.696-1.262-1.292-1.779-2.08.031-2.273.762-4.275 1.305-6.281l.32-1.349c.062 2.882.78 5.716 1.402 8.493"/><path fill="#1691ff" d="M145.567 159.397c-.657 1.266-.823 2.558-1.09 4.013.468.276.933.464 1.353.832.101-1.722.223-3.347.263-5.077z"/><path fill="#efe8c7" d="M146.035 158.39c.022-.898.041-1.813.066-2.746-.923.972-1.988 2.093-2.212 3.499-1.051 2.514-.376 5.944-.871 8.458-.547 1.678.114 3.671-.477 5.44-.368.706-.968 1.542-1.849 1.687-.424-.649.649-.701.92-1.17.692-1.353.819-2.978.486-4.371l-.832 1.025c-.227.28-.372-.127-.604-.18.648-.701 1.292-1.401 1.66-2.242-.009-1.437.674-3.115.482-4.048-1.384 1.406-3.57 1.139-5.331 1.805.28.368.517.924.429 1.441-2.689 1.358-.766 4.043-1.309 6.277.1.788 1.073.455 1.541.915.005.797-1.02.197-1.436.482a14.3 14.3 0 0 0-.197 5.808c.184.04.232-.188.416-.285.048.097.188.141.14.276l1.949-.284c.048.087.237.179.145.319-.649.281-1.441.197-2.09.434.049.42-.455 1.489.43 1.437.512.276 1.209.779 1.029 1.48.42.504.837-.197 1.349-.057.329.469-.088.837.009 1.297-.837.609-1.196 1.866-2.269 1.362.109 2.694.451 4.971.469 7.718.416.227 1.02-.149 1.349.315-.233.421-.513.136-.745.324-.456 1.397-1.051 2.755-.898 4.38l.832-.197c.797.6.154 1.993.578 2.834.789-.42 1.617-1.077 2.028-1.918.925-.425.421.832.89 1.156.652.044.6-.841 1.108-.933.14.127.048.368.096.504.561.044.657.744 1.17 1.02.324-.096.368-.473.552-.7.188-.053.28.135.42.179l-.004-1.02c-.986-1.293 1.52-1.726.674-3.071.644-1.489-.201-2.746.066-4.279-.613-1.292-1.459-3.053-.863-4.499.74-.092.701 1.157.889 1.249-.105-1.717 1.1-2.65 1.599-4.096.14-.232.372.04.469.127l-.132 1.538h.092c.556-.469.6-1.069.408-1.674.092-.096.183-.232.324-.188l.1-.42a3 3 0 0 1-.197-.232c.596-1.678-1.686-1.805-1.879-3.286-.28-.46-.241-1.392.408-1.581-1.187-3.85-.885-7.424-1.328-11.283-.797-1.292.714-3.859-1.327-4.314-.328-.272-.372.096-.604.24-.013-1.76.122-3.858 1.235-5.321l.644-.631"/><path fill="#9a3b26" d="M149.496 185.218c1.328 1.152 3.176 1.625 4.617 2.804.049.148.237.232.145.42-.324.469-.977.241-1.393.197-1.261-.692-2.514-.915-3.359-2.164-.031-.206.149-.481.144-.709l-.153-.548"/><path fill="#efe8c7" d="m214.629 167.422-1.217-1.113c.736-1.301-.017-2.873.346-4.319.263-2.277 1.038-4.371 1.209-6.697.631 3.807.753 8.502-.337 12.129"/><path fill="#773141" d="M258.517 163.703c.009 1.393.065 2.965-.67 4.183-1.743-3.473-4.507-7.126-3.092-11.27-.048-.228.087-.701.363-.928.627 2.873 3.518 4.901 3.399 8.015"/><path fill="#efe8c7" d="M210.118 159.962c.053 1.025.43 1.858.53 2.883-.376-.745-1.541-1.196-1.454-2.037.28-.228.648-.648.924-.837"/><path fill="#9a3b26" d="M275.07 164.658c.929.517 1.03 1.625 1.174 2.602.004.232-.272.556-.131.744-.986-1.533-3.088-3.14-3.75-4.997l.092-.228c.885.547 2.234.727 2.615 1.879"/><path fill="#b3995d" d="M205.633 163.721c-.18.363-.644.604-.828.972-.005-.324.368-.837.315-1.34.28-.053.329.219.513.368m16.416 6.088c-.1-.101-.228-.206-.298-.289-1.068-.232-1.997.377-2.781 1.13-.32.556-.692 1.117-.639 1.813-.329-.696-1.03-1.388-1.455-2.133.272-1.437 1.704-2.514 1.928-3.868.46-.972.867-2.229 1.979-2.794.408 2.256 1.45 3.679 1.52 6.106z"/><path fill="#1d5c42" d="M221.516 170.194c-.18-.153-.377-.289-.596-.162-.788.092-1.577.701-1.853 1.446-.276.376-.087.836-.315 1.077.473 1.249 1.594 2.173 2.435 3.233.557-.557.32-1.257.592-2.002.446-1.042.591-2.067.565-3.088z"/><path fill="#773141" d="M257.341 168.123c-.64 1.677.53 3.254.403 5.015.052 1.204-.408 1.905-.587 3.026h-.092c-1.511-3.942-3.863-8.392-2.265-12.719.802 1.616 1.739 3.105 2.541 4.678"/><path fill="#000" d="M145.003 165.823c-.088.745-.408 1.866.341 2.278 0 .363.377.595.425.92-.092.096-.184.232-.324.149-.237-.329-.381-.841-.753-1.069-.132.793-.872 1.914-.075 2.514.188.416.425.88.333 1.34-.469-.271-.517-.88-.845-1.248-.092.285-.136.701-.412.841h-.14c.219-2.046.814-3.671 1.033-5.633l.184-.136c0 .097.141.044.233.044"/><path fill="#9a3b26" d="M275.093 168.329c-.145-.964-1.726-1.24-1.271-2.405.517.788 1.866 1.472 1.271 2.405"/><path fill="#1d5c42" d="M186.679 171.784c-.052-.792-1.677-.735-2.334-1.519-.837-.509-1.31-1.336-1.363-2.313 1.766-.333 3.167.867 5.024.521 1.437-.613 3.062-.758 4.687-.915-2.177 1.09-3.837 2.772-6.014 4.226"/><path fill="#efe8c7" d="M211.204 169.997c-4.086.027-6.903 2.738-10.617 3.789-1.577.429-3.526.574-5.155.359.556-.468 1.064-.898 1.384-1.537.657-.513 2.194-1.24 2.194-1.24s3.807-.026 5.602-.394c1.713-.942 3.618-1.463 5.331-2.448z"/><path fill="#773141" d="m256.508 176.261-.184.136c.245 2.181.355 4.371-.565 6.237-.99-2.181-2.304-4.262-2.878-6.632-.057-1.76.911-3.123 1.643-4.612.709 1.533 1.323 3.255 1.984 4.871"/><path fill="#000" d="M220.657 172.446c-.648.836.613 1.717.294 2.514-.465-.232-.425-1.025-.802-1.481-.14-.376-.101-1.165.508-1.033"/><path fill="#b3995d" d="M193.666 174.386c.885-.241 1.949-.806 2.593-1.41-.832.657-1.476 1.537-2.593 1.41"/><path fill="#000" d="M142.462 175.14c-.136.648.057 1.533-.5 1.949-.096-.649.176-1.349.079-2.085.14-.189.416-.053.421.127m136.857.469c.052.932.941 1.625.67 2.601-.613-1.016-.99-2.181-1.415-3.25.46-.188.561.421.745.649"/><path fill="#efe8c7" d="M206.968 176.414c-1.02.469-1.375 2.729-2.729 1.761l-1.02-.083c1.156-.609 2.496-1.292 3.749-1.678"/><path fill="#000" d="M143.592 177.492c.241 1.393-1.003 3.079.771 4.183.092.284.377.6.097.88-.465-.368-.609-1.016-1.03-1.48-.271 1.165-.311 2.142-1.051 3.123-.092.232-.372.096-.508 0 1.752-1.822.618-4.74 1.721-6.706m76.123.591c-.465-.044-1.253-.044-1.674-.18l-.004-.232c.561.136 1.209-.008 1.678.412m-77.353 3.329c-.184.092-.232.228-.416.188-.005-.556-.198-1.669.451-1.866z"/><path fill="#9a3b26" d="M152.55 183.291c.096.473-.416.377-.644.565-1.721-.315-4.047-.666-4.481-2.803-.048-.189-.096-.421-.052-.653l.328-.188c1.814.727 3.312 2.019 4.849 3.079"/><path fill="#773141" d="M255.435 183.094c-.136 0-.228.188-.32.285l.009 1.489c-.845-1.437-2.207-3.285-1.476-5.099.565 1.06 1.086 2.361 1.787 3.325"/><path fill="#000" d="M228.567 181.46c-.412.788-.408 2.089-1.144 2.935l-.14-.281c.228-.324.412-.841.548-1.301-.005-.473-.149-1.533.736-1.353"/><path fill="#9a3b26" d="M138.008 183.615c-.044.377.004.797.425.933l1.02-.101c.005.692-.644.986-1.104 1.446-.372 0-.744.28-1.16.061-.333-.841-.11-2.142-.21-3.254.42.276.84.411 1.029.915"/><path fill="#000" d="M277.086 181.981c-.325.421-.736 1.03-1.297 1.174.184-.42.644-1.069 1.297-1.174m5.856.526c-.136.188.004.416-.228.377-.188-.329-.653-.517-.749-.841a.785.785 0 0 1 .977.464"/><path fill="#9a3b26" d="M250.257 218.95a12 12 0 0 1-.122-.403c.039-.084.105-.171.171-.25l1.13-.981c.346-.359.823-.653.963-.968l.092.087c.784-.696 1.336-1.541 1.98-2.518.675 2.492-2.094 3.022-3.613 4.297z"/><path fill="#1691ff" d="M251.187 218.717c.946-.81 2.186-1.419 3.071-2.146-.171 2.085-1.507 3.951-2.423 5.869-.394-.814-.955-1.839-1.366-2.899l.718-.815"/><path fill="#b3995d" d="M248.01 214.517a14.5 14.5 0 0 0-.889-1.897c1.345-.753 2.825-1.739 3.373-3.372-.079 2.089-.21 3.534-.942 5.348-.026.433-.42.736-.657 1.051l-.885-1.121"/><path fill="#1d5c42" d="M248.82 216.365c1.568-1.353 2.02-3.732 2.195-5.628.074-2.379-.171-4.74.648-7.026 1.139-3.728 4.376-6.627 4.862-10.622 1.222 3.106 2.457 7.048.293 10.074-1.555 3.732-.827 8.559-3.591 11.827l-2.081 2.019-1.112.955c-.18.153-.311.394-.364.582.289 1.805 1.323 3.338 2.028 5.007.653.083.324-.653.648-.933 1.888-2.755 2.979-6.246 2.773-9.404.35-3.259 3.447-5.97 3.285-9.544.364-1.446 1.607-2.567 2.58-3.689.683 5.62 1.283 11.695-1.288 16.965-1.419 3.499-4.144 6.022-6.075 9.237.758 2.225 2.308 4.451 3.482 6.676 3.714 6.579 8.169 12.772 11.231 19.579-.833.197-2.085.617-2.405 1.642-5.672-7.674-10.464-15.689-15.348-23.696.232-.368.561.136.648-.416l-.324-.232c-2.225 1.222-5.523 1.48-7.626-.276-2.606-.916-5.251-.246-7.858-1.113-2.422-.539-4.568-1.642-7.122-1.813-1.909-.684-3.823-1.503-5.133-3.404-.188-.367-.149-1.016.412-1.068 2.505-.438 4.327 1.358 6.929.933 2.413-.018 4.822-1.38 7.109-.189l2.698.539c2.799 2.164 5.65 4.284 9.229 4.31l.184-.324c-.666-1.949-1.419-3.85-2.317-5.699.048-.1-.701-1.204-.937-1.668-1.039-2.138-3.22-1.985-5.038-2.48-1.02-.275-2.041-.035-3.022-.297-2.878.569-5.563 1.931-8.673 2.137-2.742.066-5.856.548-7.358-2.361-.285-.701-.894-1.248-.942-1.993 4.371.942 9.203.359 13.285-.6 1.445.359 3.066-.438 4.463.07 1.49.587 2.935 1.367 4.521 1.871.832-.281.083-1.025-.013-1.49-.421-.919-1.17-1.664-1.687-2.496-2.545 1.55-6.312.924-9.049 1.217-3.679-1.362-7.503-3.158-11.774-2.242-1.021.144-2.273.801-3.11.057 1.016-.929 1.424-2.418 2.996-2.427 2.181-.942 4.512.289 6.838.232 2.413-.429 4.419.946 6.688.005l2.694-.57c.793.316 1.261 1.143 2.006 1.323l.092-.083c.372.324 1.073.411 1.581.223.232-.241-.096-.556-.328-.652-1.717.376-2.659-1.188-3.592-2.164-.193-.649.504-1.025.828-1.446.232.189.42.6.884.368 1.113-.565 1.258.64 2.283.631.608.788 1.077 1.48 1.778 2.177.092.144.228-.044.32-.096-.189-.828-1.074-1.525-1.59-2.081-.609-.972-.386-2.462.306-3.342-.425-.421.359-.889.596-1.165.92-.846 2.133-.153 3.246-.631.008 1.581.714 3.206.587 4.696-.276.827-1.201 1.349-1.38 2.282.092.043.188.223.324.14.876-.986 2.032-1.927 1.559-3.447-.753-1.301.027-2.791-.582-4.091 1.962-5.449-1.757-13.237 3.648-17.591l1.157-1.077c.534 3.858-.833 8.186-.666 12.233-.07 3.579-.223 7.622.21 11.191a6.23 6.23 0 0 1-2.707 5.55c-.508.14-.924.473-1.34.745.149.898.631 1.677 1.034 2.509l1.27 1.573"/><path fill="#000" d="M278.527 182.489c-.084 1.016.622 2.129-.211 2.83l-.017-2.83z"/><path fill="#9a3b26" d="m150.789 184.149.197 1.477a2.8 2.8 0 0 1-1.585-1.144l-.008-.841c.56-.092.888.465 1.396.508"/><path fill="#773141" d="M254.904 187.382c-.044.136-.091-.377-.372-.241-.135.333-.039.985.009 1.402-.845-1.341-2.159-3.386-.915-5.011.845 1.007 1.366 2.448 1.278 3.85"/><path fill="#000" d="M142.626 186.34c.192 1.108.714 2.076 1.182 3l-.232.285c-.701-.925-1.034-2.134-1.366-3.285-.276.416-.364 1.248-1.017 1.116.46-.7.828-1.357 1.104-2.102.605.092.097.701.329.986m132.581.065c.465-.232.973-.88 1.481-.981-.228.513-.828 1.078-1.48.981"/><path fill="#b3995d" d="M186.895 191.797c.451.719 1.047 1.616 2.015 1.446 4.813-2.773 8.317-7.359 12.334-11.38.28.136.561.232.841.421 2.978.622 5.497 2.606 8.388 3.609 3.714.258 6.995-2.361 9.816-4.661 1.02-.232 1.726.964 2.378 1.617.053.368.938.775.149 1.06-.889-.548-1.993.017-2.93-.162-.557.008-.74.7-.644 1.121.333 1.502 1.296 2.794 2.505 3.78l-.604.403-1.542.315c-2.65-.171-5.352-1.174-7.959-1.949-.652-.412-1.445-.547-2.19-.815-2.461-.127-5.208-.477-7.433.18-.184.512-.039 1.257.246 1.77 2.286 1.747 4.892 2.566 7.227 4.134 2.615 1.752 4.927-.078 7.428-.7l4.88-.123c.508-.048 1.161.044 1.673.223 1.581.333 3.198-.008 4.288-.924l1.253 1.248c-.543-.245-1.218.018-1.962.027-.881.232-2.23.144-3.062.438-.605.324-1.393.188-1.949.565-2.786.574-4.726 2.632-7.652 2.838-2.041.333-3.956-1.042-5.948-.061.105 1.721 1.318 2.781 2.536 3.841 1.774 1.253 4.603.859 6.272-.031l.092.04c.644-.443 1.283-.889 2.045-1.104l-.223 1.038c-1.656 2.606-4.306 3.89-7.232 4.139-.744.053-1.344.71-2.089.438.04-1.3.215-3.114-.214-4.279-.373-.127-.837-.412-1.253-.171-1.253-.6-2.317.062-3.526.438.377.648.057 1.761-.031 2.598-1.156.565-2.321-.022-3.526.538-.044.557-.363 1.074-.223 1.577-.412 1.214-.215 2.703.026 3.772.372.367.837-.101 1.253.17.56.044.885-.092 1.301.088-.171 2.273-.294 4.363-.281 6.5 1.674.456 3.443.495 5.02.385.495-1.9.394-3.942.569-5.755l3.57-.723c.596-.657.215-2.146.307-2.93l.184-.232c1.673.359 3.346.026 4.923-.127-1.156.937-2.497 1.734-3.653 2.532l.328.7c.561.451 1.446.495 2.094.215l.092.092c.837-.197 1.437-.618 2.273-.618-.319.833-1.2 1.165-1.519 2.006.473 1.109 1.953.732 2.93.675 1.761-.609 4.13-.718 5.852-.307 2.562.811 4.472 1.266 6.894 2.409-1.297.522-2.321.522-3.666.679-2.834.381-5.852.127-8.458-.455l-.189.179c.106 1.393 1.179 2.646 2.024 3.851 1.682 1.703 3.636 1.506 5.817 1.353 1.393.066 2.742-.215 4.082-.591l.105.81c-.035.25-.022.526 0 .771 1.717.223 3.675.582 5.436.293.32-.841.315-1.997.307-3.114.324-.517.976.04 1.393-.149 2.098.771 4.971-.171 5.873 2.567-1.577.985-2.961 2.063-4.581 2.952l.092.044c.074-.026.153-.053.227-.096l-.797.087c-1.051-.591-2.185-.994-3.526-.942-1.818-.683-4.231-.109-6.04.18-2.97.898-5.309-1.498-8.09-.788-.416.241-.648.608-.596 1.121 1.7 3.276 5.344 3.868 8.712 4.739l-.517.149c-1.76.613-3.569 1.187-5.462 1.511-5.571.359-11.471 1.183-16.907 1.363l-.324-.233c.412-.797 1.012-1.537 1.003-2.514-.372-.188-.512-.832-1.025-.6-1.248.933-1.888 2.611-3.228 3.364-.653-.276-1.397-.359-2.094-.539.552-1.029 2.869-1.782 1.787-3.219-.092-.145-.368 0-.46-.136-.416-.044-.836 0-1.02.513-1.34.521-1.892 1.738-3 2.531-.141.189-.421-.092-.513-.179-7.494-1.341-14.069-5.029-20.6-8.835-1.025-.504-.1-1.165-.289-1.993-.705-1.257-1.677-.368-2.514-.32-.74.565-1.257-.587-1.77-.915.228-.324.557-.324.785-.648a2.23 2.23 0 0 0-.101-1.533c-1.354-.504-2.839-.307-4.096-.443-.788-.968-1.817-1.796-2.707-2.68l-.092.096-.565-.828c2.221-2.199 4.762-4.314 6.785-6.64.11 2.549-.057 4.687-.039 7.245l.372.411c1.209-.241 2.974-.017 4.183-.341.447-1.919.39-3.588.701-5.546.88-.792 2.37.035 3.487-.245l.056-5.633c-.797-1.104-3.434.951-2.939-1.366 1.985-2.063 4.762-4.03 6.514-6.321.644-.653-.522-1.156-.618-1.756.11-.101.21-.197.307-.307l.433.745"/><path fill="#efe8c7" d="M186.705 190.777a3.5 3.5 0 0 1 .514-.452c-.145-.652-.71-1.436-1.271-1.993-.648.049-1.108 1.078-1.712.666-.657-.797-.85-1.993-.53-2.978 1.349.131 2.514.867 3.359 2.071.473 1.534 2.199 2.773 1.792 4.499.14-.009.232-.188.324-.28.083-1.91-1.367-3.159-2.028-4.731-.705-1.209-2.102-1.66-3.219-1.975 3.096-2.808 6.005-5.664 9.01-8.515 1.445 1.051 2.746.959 4.331 1.642-.14.14-.372.285-.416.513-.227.705-.039 1.301.614 1.721 1.208.171 2.417.307 3.447.898-2.957 3.232-6.049 6.461-9.238 9.264-1.108.797-1.984 1.783-3.333 1.695-.451-.241-.846-.626-1.157-1.051z"/><path fill="#1d5c42" d="M219.601 199.659c-1.125 2.786-4.278 4.249-7.104 4.582-.56.232-1.165.188-1.673.565.521 1.073 1.682 1.104 2.427 1.516 2.886.306 6.18.008 8.116-2.423 1.853-1.266 4.03-2.676 4.665-4.954-1.927.241-4.03 0-6.049-.039l-.381.753"/><path fill="#1d5c42" d="M205.056 166.095c.683.017 1.222.337 1.944.026.325-.188.833-.333.736-.837-.841-1.112-1.541-1.712-2.619-2.676l-.228.28c-.626 4.091-4.739 7.46-8.212 9.291-3.145 2.439-8.02 3.355-11.564 1.283 2.313-1.643 4.809-3.6 7.262-5.243 2.361-1.222 5.475-1.06 7.319-3.211-.556-.227-1.16.053-1.765.053-.276 0-.648.377-.88.009l.044-.044c-2.598.85-5.335 1.432-8.165 1.774-1.397.009-2.229-.591-3.583-.718-2.378-.824-4.525-2.208-6.579-3.868 1.941-1.586 4.643-.302 6.693.101 2.795.862 4.687-1.196 7.1-1.858 3.106-.53 6.838 1.074 9.286-.854l-.092-.043.276-.377c-.473-1.481-1.739-3.097-3.049-4.157-.652-.136-1.397-.412-1.997-.035-3.662 1.748-7.021 5.808-11.546 3.653-2.65-.215-4.752-1.734-6.715-3.53-1.029-1.481-1.922-3.014-2.86-4.534l.324-.149c2.322.403 4.372 1.551 6.47 2.611 3.867 2.019 6.412-.412 9.619-.618.928-.197 2.273-.245 2.501-1.274l-1.687-1.941c-1.953-.035-3.333 1.744-5.287 1.984-2.777 1.043-5.435-1.335-7.858-2.01-2.553.009-5.067-.18-7.538-1.139-2.79-.359-3.692-3.316-5.379-5.164-.188-.329-.744-.464-.841-.841 1.717-.425 3.119.583 4.608 1.047 1.63.963 3.772.907 5.677.981 3.206.123 4.989 3.123 8.147 3.294.6-.565.933.412 1.489.315.889.508 1.77.224 2.79.403.189-.009.325-.289.141-.425-1.49.101-3.023.066-4.192-1.226-.653-.736-.377-1.669-.429-2.598.827-1.261 2.737-.385 4.034-.446 1.489.359 1.962 1.94 2.851 2.864.232 0 .188.276.421.044-.145-.556-.798-.828-1.03-1.384a3.9 3.9 0 0 0-1.796-1.551l-.232-.933c-.819-2.89-2.654-5.405-4.45-7.792-.604-.223-.972.513-1.529.618-3.136 3.959-8.488 2.514-12.584 1.564-2.61-1.284-5.251-.154-8.138-.789.508-.648 1.432-1.393 2.173-2.01 1.02-.145 2.085-1.17 3.066-.434.227-.232-.053-.42-.145-.556 1.297-.609 2.781-1.047 4.179-.96-1.538-.494-3.255.163-4.599.78-2.011-1.892-1.844-4.827-4.083-6.487-.468-.46-1.401-1.007-1.082-1.752 4.324-.035 6.211 4.604 9.479 6.724 1.634 1.007 3.767.806 5.72 1.025 2.094.359 4.004 1.274 6.098 1.406.512.083.696-.473.6-.798-.662-1.572-1.599-3.149-3.049-4.156-1.673-.316-3.167-1.052-4.84-1.231-3.903.074-7.486-.6-10.245-3.184-1.17-1.104-2.383-2.405-3.557-3.741-.792-.46-1.489-1.1-2.146-1.888-.096-.324-.565-.692-.285-1.021 1.862 1.104 3.64 2.388 5.55 3.303 1.721.736 3.723.867 5.541 1.507 2.926-.07 4.936 2.098 7.271 3.526l.836.083c.325-.228.368-.512.368-.837-1.222-2.216-2.724-4.253-3.806-6.526-2.094-.311-4.371-.25-6.281-.933-3.443-.626-6.294-3.355-7.849-6.504-1.419-4.175-3.859-7.867-6.579-11.48l.092-.093c.981.872 2.562.819 3.5 1.976.946 3.149 2.825 6.211 5.768 8.186.648.324 1.397.592 1.682 1.38 2.054 2.085 4.481 3.504 7.271 3.907.421 0 .797.968 1.117.223-1.034-1.848-3.268-2.395-4.809-3.552 0 0-.189-.228-.324-.179l-4.801-2.103c-4.809-3.267-5.773-9.027-7.341-13.946.561.508 1.218.924 1.686 1.577.232.135-.184.595.232.315 2.199 2.08 1.757 5.423 3.999 7.595 1.494 1.524 3.583 1.516 5.449 2.243.793.648 1.822 1.524 2.935 1.147-.018-2.509-2.72-4.209-4.494-5.597-1.962-1.656-2.536-4.394-4.363-6.382-1.414-1.897-4.025-3.447-4.445-5.826l.718-.596c1.432.955 2.921 2.06 4.17 3.215 1.866 1.376 4.38 2.156 5.418 4.424.95 3.334 3.522 6.062 4.472 9.409 1.034 1.336.018 2.834.355 4.271.14.367.333 1.248.841 1.007-.14-.315-.237-.596-.421-.828.075-2.413-.03-4.551-1.204-6.64-3.237-4.481-1.507-9.742-2.606-14.945-.141-.18-.141-.272-.005-.513 3.745 4.442 5.778 9.82 6.281 15.528.999 3.522-1.629 7.218.762 10.223.233.324.285 1.205.749 1.06-1.222-2.593.666-4.739 1.025-7.109.254-4.003-.289-8.51-2.168-12.028-.004-.464.6-.464.924-.333 2.712 1.985 4.122 4.902 4.889 8.007.284 1.301.898 2.694.81 4.227-.854 3.303-2.79 5.874-3.982 8.988-.911 2.528 1.192 4.135 1.805 6.181.188.363.004.784.193 1.016.723-3.207 1.765-7.074-.022-10.32.175-1.296 1.331-2.418 1.743-3.771 2.909 4.345 2.252 10.718.097 15.059-.824 2.461 1.651 3.889 2.636 5.79l.605-.009c.46-.648.736-1.353.731-2.181-1.038-2.602-1.384-5.243-.749-8.221.727-2.475-.683-4.648-.096-7.109.889.692 1.174 1.892 1.927 2.772 1.923 3.053 1.998 7.657 1.323 11.095-.731 1.77-.39 3.951-1.822 5.449-.272 1.257.946 2.278 1.371 3.43l.416.179.118 3.399c.097.924 1.538.819 1.034 2.037.236.416.841.64 1.257.407-.889-1.248-.394-3.438-.543-4.875l-.28-.232c.197 1.669-.303 3.259.451 4.691l-.14.145c-.841-.421-.338-1.765-1.455-2.089-.008-1.06-.341-2.55-.113-3.483.271-.836 1.248-1.121 1.94-1.445 3.355 1.274.35 3.903.692 6.084l.184-.009c.044-.276.228-.653.136-.88 1.235-2.799 1.537-6.373.63-9.299-.105-2.458-3.088-3.973-2.128-6.676.083-.784.03-1.677.398-2.378l2.195 1.66c4.297 3.276 4.008 8.992 4.178 13.635.202 2.558-1.134 4.656-2.229 6.803.009 1.993.766 4.174 2.628 4.901.604-.092-.145-.504.416-.692.723-3.027 1.397-6.465.587-9.667.066-4.087-1.31-8.357-.223-12.645.455-2.041-.535-3.754-.447-5.62.46.188.88.692 1.165 1.113 3.289 5.781 4.13 13.543 3.706 19.96-.119 3.25-1.678 5.909-3.014 8.615.613 1.617 2.155 2.865 2.957 4.437.56.601.849 1.901 2.01 1.713 1.003-2.851-.78-5.252-.797-7.95-.85-2.549.385-5.672.46-8.081-.298-2.79.193-6.461-.473-8.778.184-.105.28.127.464.083 2.295 2.449 2.733 5.699 3.911 8.66-.065 3.859.517 7.81-.573 11.721-.543 2.002-1.323 4.192-1.31 6.088l4.402 4.998.232-.144c-.35-3.759-1.717-6.912-1.975-10.627-.903-3.753 1.213-6.657 1.191-10.376.035-1.616-.81-2.961-.867-4.45 1.967 2.448 3.705 5.089 4.279 8.195 1.056 4.783 1.183 10.355-.319 15.151-.5 1.585.394 3.438-.434 4.927.609.513.841.881 1.498 1.481-.14.096-.044.276-.092.42.188.092.28-.096.324-.144 1.327-3.491 1.629-7.306.955-11.064-.193-.837-.434-2.085.166-2.839h-.092c-.613-1.428.027-2.79-.03-4.502.683-2.23 1.506-4.42 2.794-6.286l.189.315c-.149 5.957 2.492 12.116 1.086 17.556-.394 3.167-1.962 6.014-3.382 8.905.377.832 1.122 1.577 1.691 2.216l.092-.092c.561 1.437 1.783 2.541 2.808 3.745.416 0 .556-.232.832-.469.403-2.098 1.134-4.047.937-6.049.027-3.105-2.501-5.974-1.125-9.093-.298-2.746.705-5.957.683-8.891.42.42.613.88.942 1.353 1.274 3.377 1.76 7.092 2.715 10.565 1.056 5.296 2.16 10.771-2.041 14.936.189.412.237.924.473 1.345.145.924 1.078 1.761 1.459 2.729.324.324.609.972 1.073 1.06-.004-.692-.937-1.249-.85-2.129.644-1.397.583-3.114 2.252-3.964.372-.092.928-.188 1.252.088a17.5 17.5 0 0 0-.477 5.116c1.077 1.572-1.375 2.325-.902 3.762.547-1.349 1.936-2.238 1.506-3.859-.569-2.282.622-4.516.189-6.969-2.453-5.843 4.073-9.745 6.789-13.99.981 1.993 1.283 4.731.788 6.921-1.502 5.348-2.391 10.977-4.919 15.922-.591 1.581-2.071 2.847-2.295 4.524l2.856 3.277c.324-.092.561.42.837-.009.022-3.25 1.353-6.233 2.028-9.308.385-4.875.446-10.17 4.932-13.508.284 1.029.433 2.225.254 3.346-1.31 6.141 1.104 12.961-3.228 18.103-.692.977-1.24 2.19-2.304 2.755-.32.513.149.925.241 1.437.512.648.981 1.573 1.265 2.317 1.301-.197 1.617-1.498 2.265-2.426 2.155-3.929 2.812-10.39 8.62-10.938l.285.215c-1.757 2.295-2.436 5.304-1.998 8.392-1.655 2.799-4.288 5.186-7.398 5.861.281.223.145.692.193 1.06.565.924 1.13 2.089 1.923 2.729.657 1.252-.727 2.475-.21 3.723-.557-.272-1.025-.6-1.673-.6-.522-1.196-1.266-2.361-2.3-3.233-1.073-1.344-2.65-.403-3.855-.07-3.469 2.16-6.846 4.88-10.928 5.835-2.273.481-4.406 1.568-6.728 1.576-.232-.043-.56-.276-.512-.503 5.322-3.15 9.842-8.48 16.154-9.729 1.16-.188 2.461.035 3.434-.53-.189-.788-.846-1.344-1.126-2.08h-.329l.005.232c-2.269 1.318-5.059 1.336-7.753 1.678-2.409.753-5.396-.942-7.613.88-1.804.71-3.986 1.095-5.948.359-1.117-.872-3.027-1.883-2.759-3.508.512-.092.976-.145 1.48-.25 2.891 1.012 6.277.385 8.778-1.213 1.896-1.078 4.03-1.744 6.119-2.076 1.515.162 2.742-.566 4.314-.303l-1.577-1.787c-1.217.556-2.439 1.183-3.854 1.025-1.818-.828-4.135.114-6.417-.289-2.554.162-4.814 2.361-7.284 1.213-2.243-1.428-4.621-2.479-6.903-3.718-.653-.421-1.402-1.065-1.314-1.901.74-.798 2.273-.289 3.066-.438 4.179-.579 7.21 1.721 10.889 2.356 1.564.228 3.495.793 4.976.171l1.038-.267c.613.438 1.27.814 1.936 1.104.048-.084.092-.233.184-.325.832-.135 1.669-.008 2.51-.438l-.005-.179c-.885-.368-1.857.429-2.926.302-2.234-.736-3.968-3.005-4.31-5.274.697-.332 1.582-.341 2.418-.341 1.064.087 1.765.687 2.422 1.515.281.557 1.03 1.249.522 1.805-.609-.504-1.442-.727-2.191-.727 1.025.42 1.958 1.012 2.896 1.839 0-.043.044-.135.136-.087.14-.184-.141-.552.275-.605-.608-1.068-.989-2.36-2.063-3.149.092-.188.233 0 .373 0-.189-.42-.193-1.165-.797-1.165-.565-.736-1.266-1.332-1.919-2.067-.512-.189-1.025-.465-1.581-.18-3.001 2.532-6.61 5.484-10.71 4.157-2.982-1.884-6.333-2.979-9.64-4.113-.841-.232-1.77-.18-2.514-.644-.329-.504-.101-1.156.403-1.437 3.337-1.599 6.644.053 10.131.118 3.21.719 6.934 1.345 9.951.688.509-.337 1.577-.293 1.525-1.038-.6.285-1.249.513-1.853.797-1.117-.087-2.83.53-3.671-.153-.372-.797-.889-1.577-.665-2.51.784-1.025 1.988-1.642 3.337-1.366.048.092.237.188.145.315 1.02.324 1.905.968 2.702 1.756-.043-.096.092-.14.136-.232-.096-.368-.42-.464-.657-.736-.604-.42-1.485-.556-1.769-1.209l-.561-.74c-.267-.276-.74-.473-1.117-.539-1.862.005-3.259-.77-5.02.022-2.409 1.56-5.05 2.593-7.595 3.815-1.673.009-3.254-.109-4.831.447-2.282-.539-4.564-1.13-6.382-2.558 2.221-1.498 4.823-1.051 7.381-1.204 3.758-.539 6.903-2.738 10.429-3.929.88-.145 1.905-.101 2.742-.342-.377-.788-1.078-1.428-1.691-2.173-1.441-.223-2.405 1.223-3.754 1.42-1.94 1.454-3.662 1.086-5.847 1.239-.416-.083-.741.429-1.069.009l1.572-1.257c.876-.933 1.757-1.735 2.493-2.711.118-.272.254-.557.416-.837l.981.039"/><path fill="#efe8c7" d="M204.244 165.77c.447-.718 1.016-1.393 1.625-1.831.609.474 1.073.881 1.45 1.481l-.324.285c-.657.416-1.375-.018-2.006-.027z"/><path fill="#9a3b26" d="M147.148 188.578c.009 1.257.202 2.602-.63 3.535-.513-.684-.754-1.901-.85-2.594.184.233.28.557.561.653 1.064-.617.359-2.19 1.235-3.04.188.513-.228.986-.316 1.446"/><path fill="#000" d="M281.396 187.115c.188.736.657 1.436.618 2.181-.609-.228-.662-1.161-.85-1.813-.048-.18-.004-.46.232-.368"/><path fill="#9a3b26" d="M152.869 189.195c1.937 5.099 4.898 9.821 7.665 14.45l.093-.096 2.816 3.938c.189.556-.692.933-1.016 1.393-4.962-6.141-8.773-13.233-11.423-20.556.653.136 1.257.639 1.866.871"/><path fill="#773141" d="M254.137 190.632c-.748-.683-1.265-1.752-.901-2.917l.14-.053c.377.933 1.406 1.945.762 2.97m-68.834-1.367.509-.42.937 1.34c-.368.276-1.248.797-1.012 1.398.237.512 1.122 1.112.337 1.668-5.961 5.388-11.55 10.675-17.275 16.518-3.464 2.86-7.025 6.084-10.49 8.94-.381-1.249-.994-2.405-1.095-3.754 1.896-1.498 3.276-3.644 5.313-5.05 6.136-7.109 13.342-13.842 19.846-20.951l.316-.17c.972.324 1.642 1.463 2.61.481"/><path fill="#000" d="M278.75 188.245c.096.556.245 1.393-.267 1.813l-.149-1.993c.136-.009.276.044.416.18m-2.085.994c-.368.145-.6.512-1.016.377.368-.557 1.016-.705 1.476-1.122.377.18-.272.596-.46.745m-132.63 6.653-.184.145c-.333-1.257-.618-2.221-1.091-3.43-.464.136-.508.692-.736 1.03l.057 1.896h-.14c-.942-1.888 1.284-3.123.946-5.072-.639 2.011 1.135 3.438 1.148 5.431"/><path fill="#773141" d="M254.015 193.098c-.421.048-.841-.591-1.121-.915-.285-.557-.149-1.354.171-1.866.889.744 1.217 1.572.95 2.781"/><path fill="#000" d="M278.403 191.828c-.275.924.295 2.186-.306 2.926l-.14-.136c-.004-.88-.202-2.234.446-2.79"/><path fill="#773141" d="M253.743 194.259c-.231.324-.227.744-.319 1.069-.096-.504-.193-1.293-.153-1.897.464 0 .332.556.472.828"/><path fill="#000" d="m276.607 194.438-.836.009c.417-.324 1.113-.385 1.481-.942.28.465-.32.745-.644.933"/><path fill="#b3995d" d="M245.281 201.241c-1.533.061-2.926.109-3.754 1.283-.232-.136-.236-.701-.608-.745-.421-.6-.706-1.292-1.174-1.901.556-.376-.285-.595-.193-1.016 1.345-.376 2.873-1.042 3.938-2.111 1.016-.705 1.984-1.875 2.72-2.952.066 2.746.499 5.116-.929 7.442"/><path fill="#000" d="M143.312 198.963c-.048.053-.092.105-.184.105-.376-.324-.192-.933-.613-1.165-.324.473-.596 1.165-1.06 1.406.596-1.165 1.612-2.295 1.323-3.776l.32-.836c-.04 1.204-.631 2.974.214 4.266m134.653-3.044c0 .42.097.924-.179 1.353h-.232c.136-.42-.004-1.068.412-1.353"/><path fill="#b3995d" d="M233.788 198.665c-1.297.333-2.926-.079-4.087.675-1.436.009-2.777 1.226-4.262 1.612.368-.653 1.012-1.31 1.008-2.006.604-.333 1.581-.057 2.321-.246 1.63-.008 3.018-.626 4.455-1.147z"/><path fill="#9a3b26" d="m264.926 199.349-.092.096c.753 1.152.946 2.549.631 3.85-.044.188-.232.324-.416.237-.754-1.529-.723-3.575-.732-5.335.372.271.561.735.609 1.152m-126.397.258.201 2.641c1.025.088 1.949-.981 2.545-1.831.285.789.661 1.669.018 2.422-.509.653-1.297.798-1.897 1.266-.793 0-1.156.889-1.901 1.174-.193-1.577-.07-3.994.289-5.672.232 0 .508-.377.745-.009m41.834 1.319c.929.127 1.809-.241 2.414.074l-.062 5.107c-1.156.386-2.79-.854-3.574.447.057 1.481-.346 3.671-.569 5.348a54 54 0 0 1-3.763.162c-.061-2.321.105-5.16.14-7.437l-.096-.092 4.989-4.775c.28.368-.272 1.078.521 1.166m100.152 1.633v.044c-.885-.832-1.314-2.08-1.691-3.245.565 1.068 2.799 1.936 1.691 3.201m-71.3-2.001c.245 1.668.022 2.926.123 4.454.096.18.328.14.512.14.832-.473.933.776 1.678 1.008l.836.223c-.083 1.161.198 2.138-.254 3.114-1.349.057-2.417.206-3.666.675-.083 1.866-.07 3.723-.289 5.62-1.393.197-2.742.017-4.187-.154-.241-1.905.065-4.463.284-6.596l-.188-.136-2.553-.079c-.29-1.625-.303-3.583.293-5.019 1.161-.105 2.181.118 3.25-.206l.184-.145.311-2.693c1.156-.706 2.321-.114 3.666-.206m53.346-.491c.389 2.181 1.988 5.475-.373 7.118-.197-1.814-.07-3.907-.591-5.712-.285-.609.359-1.585.964-1.406"/><path fill="#000" d="M275.526 199.887c-.227.697-.455 1.489-1.147 1.866.271-.648.688-1.445 1.147-1.866"/><path fill="#efe8c7" d="M145.086 207.325c-.925 1.117.109 2.829-.815 3.854.14.189-.184.377-.228.609l.097.044c-.097 0-.141.052-.189.092-.096-.596-1.209-.504-.845-1.332-1.257-1.248-.386-2.79-.535-4.323l-.232-.271c-.46.744-.035 1.857-.635 2.505.145.924-.688 1.678-.775 2.611.793.083.552-1.122 1.012-1.582.236.408.613 1.205.849 1.844-.367.706-.315 1.533-.635 2.234l-.609-.556c-.74.521-.363 1.542-.494 2.146-.649.797-.723 2.51-2.309 1.962-.184.101-.464.101-.6.333.096.692.789.044 1.108.18.513.083.929-.197 1.301-.429.092-.281.504-.837.78-1.257.285.6.381 1.533 1.174 1.712-.272 1.393-.027 2.83-.298 4.275.193 1.165-1.844 1.866-1.651 3.22-.373.135-.04.556-.368.744-.333-1.156-.662-2.321-.671-3.622 1.012-.981 2.024-2.427 1.463-4.012-.788.293-.876 1.266-1.712 1.362-.184-.276-.281-.736-.701-.736-.368.136-.18.556-.412.837-.333-.745-.153-1.853.171-2.598 1.2-.565 1.008-2.242 1.792-3.132.083-.841.639-1.721-.154-2.089-.289-1.437-.578-2.873-1.283-4.174-.513-.083-.648.377-.924.709.083-.792-.618-2.137.214-2.882l1.196-1.174.14.189c.832-.469 1.809-.854 2.361-1.599.377.692.613 1.625.758 2.506.14.14.464-.049.512-.281-.1-.933-.617-1.901-.81-2.926.556-.092.644-.701.828-1.068.666 2.128.771 4.13 2.133 6.075"/><path fill="#9a3b26" d="M145.354 205.836c.096.227.096.648.009.932-.942-1.625-1.279-3.482-1.709-5.286.329.271.701 1.007 1.165.503l.325-.333.092.092.223-.42c-.263 1.397-.81 2.978-.105 4.512"/><path fill="#efe8c7" d="M142.397 201.482c-.044.144-.092.28-.184.333v-.325z"/><path fill="#000" d="M275.912 201.652a7.4 7.4 0 0 1-1.103 1.814c-.145-.692.639-1.398 1.103-1.814"/><path fill="#b3995d" d="M237.069 203.251c-.648.044-1.301-.179-2.089.241-.184 0-.556.009-.832.197-.136.828-.219 2.129-.307 3.25-1.393.101-2.834.018-4.082.767l.004.933c-2.225.337-3.907-.578-6.044-.478.464-.324 1.209-.333 1.669-.845 1.896-.889 3.613-1.927 5.37-3.057.648-.281 1.248-1.078 2.085-1.266 1.064-.605 1.804-1.17 3.061-.854.373.46.841.639 1.165 1.112"/><path fill="#9a3b26" d="M238.292 204.911c-.692.648-2.269 1.319-1.752 2.567.096.228.42.416.425.692-2.094.018-4.499 1.419-6.689.46-.144-.513.083-1.108.736-1.117 1.069-.009 2.229-.294 3.158-.061.644-1.266.267-2.046.491-3.356 1.117-.008 3.429-1.366 3.631.815"/><path fill="#000" d="M243.329 207.947h-.184c-.101-.789.078-2.094.49-2.747-.087.797-.079 2.002-.306 2.747m30.752-2.011c-.652.241-1.436.889-2.089.429 0-.179.232-.096.324-.096v.096c.557.044 1.113-.473 1.765-.429"/><path fill="#9a3b26" d="M138.402 208.477c.285 1.3.85 2.413 1.047 3.766.789.36.145 1.341.105 1.993-.42.228-.972.745-1.441.425-.009-1.813.07-3.67-.451-5.295.136-.416.368-.657.74-.889"/><path fill="#773141" d="m154.07 210.053 2.028 4.403c-1.204.84-2.501 1.594-3.469 2.715.005.228-.368.416-.087.648-.044.097-.184.097-.281.097-1.401-1.621-5.037-2.895-4.213-5.502.683-1.774 2.347-3.311 4.156-3.696.881-.101 1.354.735 1.866 1.335"/><path fill="#000" d="M242.22 208.88c-.464.188-1.165-.412-1.813-.307l-.005-.324c.605.219 1.398.171 1.818.639"/><path fill="#9a3b26" d="M143.816 212.441c-.175 1.393-.582 3.258-1.178 4.796h-.14a5.54 5.54 0 0 1-.854-3.198c.512.316 1.02-.105 1.156-.565l.315-1.633c.325.043.421.42.701.6"/><path fill="#efe8c7" d="M166.645 214.293c-.135.368-.179.745-.411 1.113.005.473-.363.889-.315 1.31.193.788-.688 1.489-.403 2.181.526 2.317 3.789 4.021 2.457 6.588.005.556-.131 1.572.202 2.181-.373.504-.745.096-1.117.188-1.341 1.078-.868 2.379-.486 3.763.249 2.842-2.388 4.717-1.209 7.455-.732 1.572.022 3.061.035 4.778-.276.517-1.113.609-1.157 1.31.802 1.993-1.038 3.815-.613 5.948-1.66 1.314.767 3.206-.985 4.516-.044.789.1 1.573.013 2.273-.561-.459-.478-2.041-1.498-1.476.096.657.149 1.297.105 1.906-.276.135-.653-.412-.929.008-.127 1.573.806 2.685 1.419 3.938l.417-.188c.1.74.289 1.528-.123 2.273l-.508.469.092.096c-.465.188-.469-.692-1.025-.736-.513.044-.416.189-.648.609-.228.46.057 1.301.105 1.805-.232-.18-.513.009-.697.197-1.121-1.113.824-2.475-.438-3.347-.28-.092-.372.189-.652.097-.373-.6.039-1.253-.706-1.669 1.253-.188 1.66-1.542 1.936-2.519-.096-.604.132-1.213-.197-1.769.692-.513 1.104-1.446 1.52-2.19-.048-.189-.144-.46-.376-.513a33 33 0 0 0-1.38 2.523c-.464.097-.6.609-.92.933-.101-.828-.797-1.384-1.034-2.181.973-.324 1.433-1.542 2.26-1.919.968-.889.964-2.229.907-3.438-.705-1.016-1.437.565-2.273.618-.005-.789 1.476-2.147.306-2.791-.604 0-.74.609-1.248.85.044-.744-.285-1.301-.569-1.91l-.32-.083c.412-.797.307-1.866 1.371-2.295.092-.42.74-.692.504-1.165-.644-.127-.644.753-1.056 1.121l-.784.565c-.149-1.068-.158-2.225.066-3.342-.009-1.533-.25-3.066.249-4.739.32-.841 1.437-.565 1.66-1.459.044-.46.228-1.108.04-1.484-.513.1-1.021.613-1.577.433-.429-1.857.858-3.583.153-5.208 1.2-.889 1.424-2.19 1.647-3.543.329 0 .425.924.841.411-.048-.503-.565-.827-1.029-.968-.372-.043-.745-.223-.933-.595.131-.977.031-2.186.911-2.655.653.136 1.489.035 1.857-.521-.377-.692-.753-1.572-.342-2.37 1.166.736 2.322-.197 3.391-.486 1.8-1.498 2.019-3.775 2.658-5.83.325.241.745.557.841.925"/><path fill="#b3995d" d="M241.826 212.979c.705.828 1.13 1.752 1.55 2.677-.977-.368-2.002-.592-2.794-1.327-.653-.136-1.257-.412-1.91-.495.977-.062 2.225-.898 3.154-.855"/><path fill="#9a3b26" d="M237.139 213.842c-.464.092-.928.241-1.484.101.416-.28.972-.009 1.484-.101m-2.321.018c-.232.324-.653 0-1.025.188.232-.324.696-.096 1.025-.188"/><path fill="#efe8c7" d="m263.38 219.02.097.083c-.464.144-1.489.109-1.857.709-.083 1.634 1.503 2.269 2.348 3.474.188.42.797.924.429 1.533-.372.368-.648.88-.552 1.301 1.03.596.57 1.529.342 2.37-.315 1.392-2.746-.36-1.989 1.493.329.789 1.774 1.065 1.363 2.081-.368.521-.316 1.445-1.012 1.59-.469-.46-1.03-.692-1.586-.872-.464.421.053 1.069.333 1.481.753 1.344 1.367 3.017 1.191 4.406-.324.144-.652.144-.928.385-2.304-3.937-4.792-7.871-7.092-11.857l-.24-.924c1.795-2.987 4.428-5.466 5.799-8.633-.035 1.813-.762 3.903-1.542 5.672.092.145.232.189.421.189 1.007-1.958 1.506-4.289 1.629-6.382l-.276.008c.368-.652.683-2.001 1.003-3.031.337 2.046 3.732 2.484 2.12 4.915"/><path fill="#773141" d="M157.226 217.048c.334.841.667 1.858.671 2.646.324.18.329.828.425 1.248-.464-.087-1.117.009-1.257-.547-1.445-.359-2.983-1.327-4.104-2.343.407-1.586 2.216-2.199 3.416-3.185.561.513.614 1.437.85 2.181"/><path fill="#9a3b26" d="M174.928 216.186c.284.744-.32.933-.828 1.174-1.901.424-4.643.766-6.001-.894-.096-.364.088-.648.228-.837 1.997-.061 4.551-.538 6.461.145zm-.824 1.822c.237.324.653.368.749.736-.464.241-1.069.289-1.673.289-.188-.46-.745-.46-1.073-.828l2.089-.521c-.14.052-.044.232-.092.324m4.188 1.086c.1.653-.364 1.213-.916 1.59-1.253.473-2.742.574-4.091-.066-.372-.232-.749-.6-.749-1.06 2.094.399 3.522-1.095 5.431-.876z"/><path fill="#773141" d="M156.138 220.824c-5.729 5.287-10.801 11.17-17.28 15.576-.324-.18-.284-.692-.284-1.113l.828-1.393c3.78-4.301 7.709-7.998 11.633-12.062a10.5 10.5 0 0 0 1.932-2.944c1.029.736 2.146 1.24 3.171 1.936"/><path fill="#9a3b26" d="M138.348 222.327c-.604-.136-.332-1.205-.288-1.573.416-.144.227-.701.503-.985.145.284.565.652 1.025.464l.833-.753c-.084 1.121-.868 2.514-2.073 2.847m136.481-1.008c-.473-.836-1.174-1.393-2.103-1.248-1.112.333-2.176.99-3.241 1.507-.096-.368-.377-.78-.333-1.157.513-.144.644-.841 1.06-1.077 1.17.963 2.234.263 3.443-.018.28.232.561.504 1.021.412.324-.285.604-.473.832-.841.004.692.061 1.945-.679 2.422m-89.902 3.312c4.525 2.575 9.369 4.257 14.441 5.343-.508.653-1.345.754-1.756 1.459.044-.149-.145-.556-.421-.517-3.075-.81-6.605-.837-9.036-2.768l.092-.105c-1.069-.403-2.234-.675-3.215-1.319-2.886-1.331-5.554-3.771-8.489-5.287.6-.236 1.157-.424 1.621-.941 2.054 1.848 4.525 2.755 6.763 4.135"/><path fill="#000" d="M141.414 222.165c-.091.144-.231.188-.416.144l-.332-.88c.464-.324.516.464.748.736"/><path fill="#efe8c7" d="M274.787 221.823c.28.512.052 1.209-.083 1.721-.692.416-1.341.846-1.66 1.634-.189-.42-.609-.6-1.03-.6l-.092.101c-.048-.092.78-1.958-.753-1.437-.092-.28-.14-.556-.421-.744-.416-.092-.6.24-.972.24 0-.092 0-.459-.096-.648 1.252-.661 2.356-1.454 3.85-1.38.508.233.652.933 1.257 1.113"/><path fill="#9a3b26" d="m139.958 226.589-.18.7c-1.077-.924-.994-2.453-1.327-3.753.044-.325.088-.745.46-.841.149 1.397.39 2.645 1.047 3.894"/><path fill="#000" d="M260.055 222.335a18.4 18.4 0 0 1-.998 3.588h-.233c.46-1.166.403-2.51.955-3.588zm-97.944 2.449c.062 1.94-.398 3.25-.57 5.199-.275.337-.46.797-.876.985-.372.053-.463.053-.792-.043.232-.377 1.161-.565 1.248-1.257.088-.609.224-1.214.176-1.77l-.605.42c-.092-.087-.092-.275-.232-.319 1.064-.657 1.196-1.862 1.143-2.891-.372-.136-.556.377-.836-.224.087-.376.6-.188.832-.332l1.108-.933c.285.556-.368.744-.596 1.165"/><path fill="#9a3b26" d="M271.591 223.75c-.038 1.257-1.479 1.213-1.987 2.102l.096.097-.28.144c.232-.565.315-1.677-.013-2.326-.053-.788.836-.24 1.204-.617.004.469.565.933.981.6"/><path fill="#000" d="M163.978 225.603c.048.517.609 1.021.149 1.533l-.237-.504c-.464.316-.131 1.437-.687 1.573l-.141-.324c.084-1.345.495-2.558.811-3.763.517.324.052.973.105 1.485"/><path fill="#efe8c7" d="M271.111 228.446c-.38-.924.128-1.91-.761-2.593l1.156-.846c-.644 1.257 2.247 2.633-.394 3.439"/><path fill="#9a3b26" d="m272.949 225.743.514-.149c0 .232-.32 1.029-.688 1.489-.101-.692-1.029-1.152-.574-1.993.377.097.376.557.748.653"/><path fill="#000" d="M260.914 225.261c-.359 2.51.127 5.62-.648 7.994l-.325.004c.684-2.378.294-5.155.649-7.858.092-.096.184-.232.324-.14"/><path fill="#9a3b26" d="M270.121 226.461c.561.684-.127 2.129.946 2.497.276-.144.648-.333.832-.701l.232-.008c-.223 1.213-1.287 2.102-1.839 3.223-.197-1.677-1.695-3.241-1.008-5.011.237.368.557 0 .837 0m-65.658.973c-1.06 1.353-2.4 2.619-3.596 4.065-.697.284-1.345.941-2.23.573l-.42-.42c1.669-1.121 3.561-2.764 4.993-4.113.14-.096.648-.145.416-.429.281.096.605.096.837.324"/><path fill="#efe8c7" d="M186.627 228.481c-.46.784-.035 1.625-.635 2.325-.039 1.533.434 2.926.631 4.175.232.135.14.42.42.42.276-.473-.192-1.069-.289-1.585l-.241-1.341c.609.881 1.726.819 2.747.916.429 1.34-.031 2.737-.206 4.038-.088 1.161 1.222 2.085.766 3.386.198 1.625-.959 2.978-.713 4.604.004.889 1.077 1.857.109 2.601l-.837.101c-.324.513.145.933.241 1.437-1.029-1.016-.762-2.738-1.927-3.745-.622-2.234-.263-4.415-.416-6.649l-.14-.136-.184.232c.057 1.673-.346 4.231.315 6.04.053.793-.591 1.485-.495 2.418.154 2.142-.578 3.723-.284 6.093.236.504.836.083 1.165.263.289 1.721 2.65.547 2.431 2.404.289 1.669-.075 3.158-.206 4.372-.285-1.214-.434-2.694-1.371-3.43a1.45 1.45 0 0 0-.272 1.069l-.114 4.038c-.144-.736-.328-1.669-.749-2.036-.328-.092-.604.284-.604.512-.491 3.031 2.453 5.751 1.542 8.769-.171 1.813-.438 3.631-1.643 5.033.004.28.004.512.004.744 0-.232-.28-.832-.657-.968-.319.465-.17 1.165-.403 1.678-.459.745-.407 1.678-1.007 2.326-.285-1.437-.346-3.25-.911-4.823-.188-.188-.469-.368-.701-.188l-.32.333c-.521-1.489-.911-4.039-.271-5.58.372-.325.228-1.017.455-1.437 1.617-1.643 2.628-3.456 3.172-5.602l-.281-.276c-.644.652-1.62.705-2.08 1.594-.241-1.112-.898-2.321-2.112-2.917-.004-1.156.316-1.765.679-2.926 1.389-.618 3.01-1.603 3.653-3.088l-.188-.285c-1.204.482-2.409 1.222-3.806.96.179-.977.503-1.166 1.572-1.402.465-.188 1.205-.294 1.481-.942.044-.556.315-1.445-.246-1.765-.968.565-1.901.337-3.013.534l-.188-.188.595-1.261c-1.634-1.06-.762-2.821-1.099-4.402.28-.097 0-.465.324-.421-.377-.512-.745-.504-1.029-1.021.087-.928 1.007-2.282-.434-2.829-.149-1.248.263-2.046.254-3.25-.28-.513-.885-.464-1.117-.924l.175-1.582c2.041-.008 4.31-1.379 5.414-3.381.412-1.205 1.424-2.378.907-3.763.324.04.223-.337.46-.429.517.556 1.717.504 1.677 1.157"/><path fill="#9a3b26" d="M208.651 227.924c-.359 2.318-2.483 4.24-4.665 4.858-.232 0-.648-.044-.652-.315 1.253-.754 2.501-1.411 3.377-2.681.552-.701.92-1.634 1.752-2.05z"/><path fill="#efe8c7" d="M183.978 228.266c.565 1.113-.924.793-1.34 1.31-.745.092-1.393-.035-1.91-.456a1.18 1.18 0 0 1-.285-.933c1.301-.236 2.567 1.568 3.535.079"/><path fill="#000" d="M258.93 228.008c-.083 1.353-.258 2.798-.67 4.099-.092 0-.14.053-.136.092-.285-.512-.009-1.204.127-1.76l.495-2.423h.184"/><path fill="#9a3b26" d="M228.68 262.821c.237.263.574.521.693.749.232.328.744.359.976.079.368-.233.6-.513 1.113-.421-.079 2.002-2.628 3.268-1.919 5.304.232.233.701.6 1.117.325l1.157-1.266c.057 2.142-1.468 3.679-2.896 5.133-.718-3.25.841-6.417-.898-9.562a4.4 4.4 0 0 1 .106-.735z"/><path fill="#efe8c7" d="M228.287 261.945c.062-.162.141-.307.237-.46l-.092-.044c.447-2.282 3.276-3 2.47-5.646-.328-.271-1.02-.127-1.441-.403.272-.657.64-1.257.824-1.905-.377-.653-1.069.048-1.581.144-.46.324-.736.889-1.06 1.349-.29-2.085-1.095-4.634.613-6.276-.517-.644-2.046.341-1.682-1.148-.005-.701.223-1.393.828-1.677.692-.605-.149-1.161-.246-1.761-.429-1.481-.622-2.782-.534-4.507.736-.053 1.384-.522 1.752-1.122-.561-.324-1.533-.411-1.257-1.388l-.004-.281c.884-.096 1.572-.753 2.501-.762.092-.083.232-.179.232-.324-.281-.315-1.257-.315-.754-1.016l1.008-2.234c.701.46.898 1.805 2.01 1.66l.324-.285c.425 1.249.298 2.738.443 4.135.096.092.188.092.328.145.416-.333-.004-.889.084-1.354.179-1.436-.806-2.79-.119-3.994.132-1.069.403-2.234.399-3.259l.324-.324c.013 2.597 1.148 5.054.14 7.757.149 1.209 1.503 1.984 1.183 3.241.188.189.464-.039.512-.228.824-1.585-2.295-2.404-.679-4.038.04-1.445-.249-2.882-.35-4.183 1.31 1.48.95 3.71 2.681 4.954.096.377.512.556.516.972-.871 1.542 1.179 2.458 1.463 3.85-.368.653-1.3.053-1.524.85-.092.784.937 1.616.105 2.265-.464.197-1.064.289-1.485.249-.324.281-.928-.087-1.204.425.333 1.481 1.038 2.782 1.699 4.074-.227.797-.455 1.353.013 2.098-.188-.053-.372.092-.416.28 0 .136.092.368-.043.464-.141-.232-.469-.6-.793-.411-.184.227.048.271-.044.503-.28-.276-.464-.779-1.025-.735l-.184.24c.337 1.573 1.27 2.865 2.208 4.166.188.18.28 0 .416-.053.757 1.577-.903 3.031-.802 4.74-.508.521-.596.933-.407 1.677-.083 1.069.298 2.79-.298 3.859h-.092c-.289-1.301-1.134-2.404-1.511-3.662-.14-.087-.237-.232-.421-.179-.276.744-.175 1.669-.078 2.413.379 1.33.887 2.619 1.515 3.85.184.092.228-.096.368-.14-.044.232.053.924-.083 1.489-.841-.792-.754-1.905-1.454-2.737-.233-.092-.325.096-.509.241-.175 1.896.995 3.705.215 5.431-.504.841-1.616.71-2.264 1.454-.421-.42-.382-1.625-1.262-1.195l-.044.092c-.096-.189.136-.281.044-.513l-.14-.136c.644-.889 1.432-1.318 1.564-2.286.784-.845.823-2.19 1.042-3.268-.088-.179-.044-.556-.416-.503l-1.66 1.866c-.561-.224-.285-1.06-.245-1.534.271-1.528 2.312-2.334 1.647-4.095-.745-.32-1.345.289-1.853.613-.381-.245-.592-.666-.863-1.016l-.78-.464"/><path fill="#000" d="M163.094 232.817c-.092.136-.276.188-.416.188-.469-.744-.246-1.813-.202-2.61l.276-.324c.469.788-.267 1.905.342 2.746"/><path fill="#9a3b26" d="M204.718 230.78c-.924.513-1.94 1.551-3.062.762l.968-1.174c.701.141 1.349.412 2.094.412"/><path fill="#000" d="M184.749 232.44a9.5 9.5 0 0 0 .254 3.807c-.512-.083-1.064.473-1.388.845-.188-.596.692-.889 1.06-1.257-.096-.972-.149-1.761-.25-2.65-.324.145-.368.377-.6.657-.096-.46.552-1.077.924-1.402m-23.232.565-.407 2.234c-.929-.319.039-1.577.035-2.413.184-.053.232.083.372.179m97.686.771c-.048.04-.092.092-.184.092-.329-.46-.057-1.112.079-1.581.516.232.1 1.121.105 1.489"/><path fill="#9a3b26" d="M251.011 262.115c.71 1.595 0 3.5-.797 4.946-.324.42.188.464.425.643 1.668-.105 1.563-2.098 2.812-2.851.652-.092.981.464 1.45.736.963-1.266-.763-2.181-.767-3.438-.048.043-.092.144-.188.096-.324.28-.644 1.025-1.341.845-.389-.206-.854-.486-1.187-.836z"/><path fill="#efe8c7" d="M250.945 261.577c0-.11-.027-.215-.119-.28 2.046-.25 2.212-2.712 3.321-4.074.043-.315.319-.745.087-1.06-.188-.28-.609-.179-.836-.096-.281.188-.417.85-.833.617l-.937-.827c.276-.241.184-.609.276-.841 1.949-.342 2.816-2.344 3.46-3.881-.797-.688-1.48 1.033-1.91-.267-.232-.46-.236-1.017-.657-1.385-.841-.367-1.76 1.17-2.045-.17 2.269-.859 4.349-2.261 6.009-4.367 0-.416.32-.784.088-1.205-.889-1.016-1.713.889-2.597 1.222-1.017.421-1.801 1.266-2.729 1.739.179-1.257-.202-2.558 1.231-3.408a.475.475 0 0 0-.421-.595l-.416.008c.223-1.077.031-2.369.955-3.166.088-.89-1.397-.557-.942-1.533.228-1.161.592-2.418.351-3.575 2.251 3.373 4.226 6.846 6.478 10.224-.092.188-.841-.828-1.069.008-.131 1.113.482 2.278 1.091 3.242-.421-.224-.841-.828-1.402-.872-1.248.657-.127 1.91.018 2.83.516.42.661 1.165 1.309 1.388-.039.609.193 1.257-.127 1.678-.749-1.021-1.038-2.55-2.295-3.058-.32.894-.035 2.098.114 3.075.328 1.016.661 2.076 1.358 2.873-.548 1.06-.351 2.318-.158 3.483-1.073-1.104-1.454-2.55-2.207-3.842-.141-.043-.233.092-.325.189l.097.315-.421.188c-.731 1.866.075 3.912 1.617 5.243-.044.789-.316 1.866-.728 2.703-.7-.732-.661-1.853-1.366-2.589-.74.048-.828.933-1.476 1.069a4.9 4.9 0 0 1-1.117-.815l-.727-.179"/><path fill="#000" d="M161.944 235.322c.013 1.354.254 2.926.075 4.1-.184.188-.372.092-.421-.14l-.022-3.855c.141 0 .184-.149.368-.096m24.183 2.449-.092.083c-.328-.548-.429-1.428-.337-2.076.28.503.144 1.34.429 1.993m51.168.735-.135.325c-.793-.36-.938-1.249-1.174-1.985l.136-.333c.517.557.52 1.446 1.173 1.993m-30.432.942-.228.272c.56.42-.04 1.121.149 1.581-.64 1.721-.022 3.627-.522 5.536h-.328c.315-2.001-.118-4.415.613-6.46l-.096-.416-.416.512c-.141-.188-.329-.188-.237-.504l.74-.849c.233.043.184.328.325.328m-21.879 1.393c.105 1.489-.07 3.303-.806 4.604l-.184.008c-.096-.473.412-.661.504-1.077.035-1.441.582-2.926.109-4.271.237.127.237.504.377.736m47.821.11c-.266 2.181.211 4.323.321 6.64l-.416.009c-.014-2.099-.824-4.648-.044-6.649zm-70.817.547c-.412 1.218-.171 2.602-.766 3.859.096.285.236.788-.32.841l-.14.004c.455-1.485.306-3.298 1.038-4.704zm71.996 1.91c-.315 1.949.394 3.53.311 5.431-.092-.044-.14.053-.184.053l-.14-.136c-.245-1.818-.723-3.767-.315-5.624.044-.228.276-.333.508-.333.232.232-.184.377-.18.609"/><path fill="#9a3b26" d="M256.341 244.665c-1.38 1.875-3.368 3.509-5.642 4.122.267-2.129 2.633-2.755 4.157-3.789l1.388-1.257c.373.232.053.745.097.924"/><path fill="#000" d="M160.337 244.871c.237.924-.407 1.761-.915 2.273-.096-.368.412-1.016.5-1.581 0-.271.043-.692.416-.692m24.401.771c-.092.556-.411 1.069-.644 1.485-.232-.513.368-.929.412-1.485zm.097.639c.004.701.057 1.731-.311 2.287-.005-.653.131-1.489.219-2.278h.092"/><path fill="#9a3b26" d="M186.601 246.369c.706 1.257.579 3.018 2.116 3.662.241 1.384-.123 2.462-.486 3.719-.329.043-.416.464-.228.744l.14.136c-.836.188-.941-1.572-2.19-1.06-.065-2.593.434-4.643.465-7.201z"/><path fill="#000" d="M208.493 246.829c-.18 1.257-.403 2.654.534 3.671.189.092 0 .232-.092.324-.464-.18-.652-.784-.889-1.249-.193-.976-.201-2.181.307-2.926zm-5.02.171c-.411.429-.924.709-1.384 1.038-.236-.368.228-.473.412-.745.276-.188.696-.337.972-.293"/><path fill="#9a3b26" d="M156.93 250.088a1.96 1.96 0 0 0 1.253-.754c-.136.894-1.152 1.919-.403 2.663a3.32 3.32 0 0 0 1.804-.854c.053.649-.035 1.674-.214 2.418-1.065.662-1.477 2.002-2.729 2.387-.11-2.79.201-5.159-.561-7.853.377.6.197 1.533.85 1.993m102.14-.513a1.8 1.8 0 0 0-.272 1.205c-.657-.92-1.59-1.941-1.366-3.198.701.46 1.585 1.249 1.638 1.993"/><path fill="#000" d="m211.528 249.317-.136.241c-.421-.136-.609-.324-.933-.648l.088-.276c.372.179.652.411.981.683m21.108 1.218.416.043c-.403 2.094.354 4.74-1.306 6.233h-.188c1.104-1.861.999-4.095 1.078-6.141-.325.513-.316 1.49-1.012 1.446-.097-.368.319-.745.407-1.157.416-.845.171-1.769.732-2.374z"/><path fill="#9a3b26" d="M253.13 251.288c.241.692 1.026.368 1.489.263-.547 1.309-1.467 2.61-2.903 3.048-.521-.977-1.502-2.037-.766-3.21.184-.325.276-.828.223-1.161.464-.044.837-.285 1.253-.421l.705 1.481"/><path fill="#000" d="m234.038 252.243.004.377c-.604-.325-.425-1.113-.569-1.761l.092-.43c.28.473.425 1.166.473 1.814"/><path fill="#9a3b26" d="M182.274 252.44c-.465.285-1.021.149-1.485.42-.469-.271.131-1.06-.197-1.572.928-.053 2.002.074 2.926-.438.609.977-.596 1.309-1.244 1.59"/><path fill="#000" d="M207.048 253.675c-.131 1.117-.495 2.094-1.139 2.935h-.28c-.004-.6.504-.977.688-1.489.407-1.354.538-3.031.481-4.372.701.784.014 2.041.25 2.926"/><path fill="#9a3b26" d="m258.399 253.526-.407 1.678c-.937-1.292-1.183-2.874-1.283-4.499.56.977.941 1.993 1.69 2.821m-21.007-.092c.329.745-.499 1.581-.219 2.317-.609-1.007-1.541-1.848-1.782-3 .28.083.512.504.744.324.092-.105.232-.188.184-.333.237.272.416-.096.648-.096.189.276.053.692.425.788"/><path fill="#1d5c42" d="M268.71 253.136c.189.324.241.701.565.973.697-.565.657.652 1.17.779.937 1.393 1.642 2.874 2.072 4.499-2.19-1.24-4.665-2.532-5.979-4.661-.281-.556.219-1.156.736-1.353.464-.083.876-.513 1.432-.237"/><path fill="#9a3b26" d="M229.451 253.947c-.092.692-1.2 1.542-.315 2.098l1.257.083c.381 1.481-.776 2.514-1.792 3.259-.184 0-.464.42-.604.009.175-1.49-.298-2.747-.259-4.183.837.087.828-1.257 1.713-1.266m-45.588.385c-.596.837-1.573 1.266-2.313 1.779-.276-.18-.648-.18-.837-.504l-.004-.648c.977.039 2.278-.062 3.154-.627"/><path fill="#000" d="M233.315 255.129c-.044.745.521 1.853-.122 2.326-.285-.788-.198-1.393-.11-2.317z"/><path fill="#9a3b26" d="M257.466 260.048c-.048.368-.183.64-.416.924-.604-.14-1.073-.735-1.353-1.244-.661-1.296-.526-2.084-.442-3.574.241 1.49 1.41 2.637 2.212 3.894"/><path fill="#000" d="M184.809 256.693c-.272 1.402.201 2.514-.07 3.911h-.136c.039-.744-.101-1.068-.197-1.765-.232.232-.132.697-.556.701.359-.915.603-1.872.727-2.847z"/><path fill="#9a3b26" d="m253.078 257.14.6-.653.005.513c-.925 1.217-1.332 2.707-2.44 3.784h-.232c1.476-1.362-.53-2.886.482-4.468.56.18.845 1.249 1.585.824m-94.698 1.726.416-.421c.101.885.061 2.186-.863 2.746-.188-.092-.42.189-.604.285.271-1.209-.202-2.737-.259-4.13.605.407.11 2.369 1.31 1.52m52.241 1.239c.058 1.678-.022 3.399-.573 4.792-.333-1.204-1.034-2.172-1.367-3.338.557.088.789.18 1.113-.28-.057-1.353-.622-2.646-.539-3.995.473.925.758 1.941 1.367 2.821m-48.195-.709c-.736.797-.035 1.585-.263 2.466-.516-.925-1.033-1.849-1.182-2.918.236-.052.42.18.604-.008.324-.285.324-.789.32-1.113.377.46.613 1.06.521 1.573"/><path fill="#000" d="M206.469 257.718c.096.421-.083.977-.315 1.397-.373-.315-.005-.976.083-1.397z"/><path fill="#9a3b26" d="m187.872 263.416-.166 3.023h-.044c-.521-1.722-1.743-3.474-1.384-5.151.517.556-.075 1.677.85 1.993.788-.377.46-1.165.639-1.77l-.109-2.926c.473 1.489 1.414 3.43.214 4.831"/><path fill="#000" d="M160.153 260.105c.145.609.662 1.345.43 1.814-.508.148-.329-1.109-.837-.649.232.189-.048.324-.092.513h-.232c.039-.784.127-1.857.495-2.514.372.188.188.42.236.836m72.68-.228c-.127 1.625.346 2.966-.018 4.372-.184.039-.232-.097-.372-.189.175-1.436-.018-2.737.158-4.183z"/><path fill="#9a3b26" d="m182.339 263.127.28.189c.556-.473 1.108-1.122 1.712-1.362-.503 1.585-1.375 3.166-2.619 4.38l-.004-.084-.697-.096c.408-2.045.346-3.898-.267-5.852.745.789 1.59 1.66 1.595 2.825"/><path fill="#000" d="M206.5 261.905c-.048.092-.14.092-.232.092-.28-.324-.193-.836-.101-1.204.465.179.145.784.333 1.112"/><path fill="#9a3b26" d="M157.994 264.025h.794c-.412 1.166-.403 2.506.346 3.43a.96.96 0 0 1 .416-.092c-.504.837-.451 1.673-.399 2.606 1.533.267.197 1.993.53 3.014-1.217-1.292-.438-3.294-1.564-4.683-.381-1.108.859-2.742-.534-3.666-.004-.556-.377-.832-.009-1.344.092.271.14.556.42.735m77.358 4.105c-.477-1.385-1.178-2.642-1.375-4.175.565 1.345 1.27 2.729 1.375 4.175m-74.019 1.406c-.193-.653-.294-1.713-.622-2.51-.005-.648-.474-1.384-.202-2.182 1.218 1.113 1.371 3.202.824 4.692"/><path fill="#000" d="M206.532 267.013c.24 1.392-.912 2.562-1.371 3.403l-.329-.044c.184-.648.832-1.121 1.152-1.686.272-1.06.171-2.453.07-3.43.517.276.333 1.156.478 1.757"/><path fill="#efe8c7" d="M254.312 268.844c-.126 1.717-2.492 2.479-1.971 4.283l-1.484-.118c-.798-1.069-.11-2.707-.447-3.955l-.377-1.069c.657.653 1.253-.236 1.949-.197 1.301-.425 1.047-3.859 2.734-1.778z"/><path fill="#000" d="M183.824 269.807c-.372-.46.32-.692.412-1.161.087-.556.083-1.165.315-1.677.237.972.009 2.093-.727 2.838"/><path fill="#efe8c7" d="m160.916 270.372-.503.745c-.189-.46.407-1.345-.522-1.481l-.092.097c-.14-.285-.144-.885-.008-1.257.043-.557.276-.745.411-1.262.469.977.154 2.142.714 3.158"/><path fill="#9a3b26" d="M204.635 268.287c-1.108 1.025-1.888 2.471-3.421 2.847-.377-.832-.013-1.761-.018-2.694l.509-.744c.933.784 1.857.223 2.93.591m30.359 1.941h.183c-.451 1.992-.718 3.762-1.309 5.724.179-.893-1.178-2.321.258-2.842.456-1.437.079-2.55-.026-4.048.236.421.381 1.209.894 1.166m-31.572 4.568c-.741.188-1.345.618-1.993.845-.701-.692-.057-1.76-.018-2.693.329.179.517.6.981.788.789-.061 1.485-.618 2.274-.815l.092-.135c.004.648-.548 1.633-1.336 2.01m48.601-1.336-.096.096.421.084a1.89 1.89 0 0 1-.732 1.774c-.928.332-.517-.736-.845-1.104l.087-.894c.465.044.793.232 1.165.044m-69.705.447c.662 1.857.07 3.67 1.244 5.199.372.18.552-.289.736-.521.368-.933.688-1.949.907-2.839.337 1.626-.578 3.163-.798 4.788-.275.517-.411 1.261-1.016 1.498-1.686-2.173-1.283-4.919-1.721-7.613.324-.044.276-.503.648-.512m48.379.613c.096.149.328.285.42.188l-.092.097c.653.411.924-.618 1.485-.618.149 1.722-.959 3.167-2.063 4.525h-.421c-.24-1.393-.249-3.25-.262-4.739l.512-.281c.14.189.329.648.421.828"/><path fill="#efe8c7" d="M233.731 276.592c.149 1.581-.162 3.447-.898 4.892-.744-.324-1.204.566-1.949.566-.236-.557.175-1.49-.661-1.669.087-1.016.828-1.529 1.471-2.335.692-.88 1.293-2.045 1.236-3.206.376.46.289 1.301.801 1.752"/><path fill="#9a3b26" d="M202.296 280.425c.241 1.436.95 3.013.587 4.406-.789.145-.841-.456-.889-1.06-.381-1.248-1.087-2.457-.723-3.946.508-.228.696.411 1.025.6m28.593 2.325c.184-.28.417-.236.605-.376l-.097-.04c.469.316.605-.429 1.021-.385-1.244 1.41-.109 4.183-2.247 4.805-.101-1.813-.21-3.995.057-5.861.329.557-.407 1.678.661 1.857m-24.576.574.275-.28c-1.519 2.155-.757 5.072-1.905 7.451-.267 1.436-1.051 2.702-1.55 4.056-.193-.609-.198-1.586-.434-2.278-.289-1.625-1.178-3.338-.872-5.243.184-.189.416-.377.508-.609.233.276.237.788.333 1.156-.083 1.025.105 1.906.526 2.694.372-.136.788-.565.924-.942.64-1.993 1.551-4.559.425-6.688l-.009-.837c.657.416.802 1.625 1.779 1.529M177.149 106.034c-.311.307-.824.486-1.157.898.057.596.057 1.196.022 1.814l.666-.018c.236-.307.679-.482.99-.832.013-.683 0-1.349-.04-2.019zc.074-.087.14-.171.184-.276Z"/><path fill="#fff" d="M106.646 305.92q2.908 0 4.57.229 1.662.208 2.908.747 3.988 1.745 4.902 6.211.374 1.828.374 7.352 0 4.632-.292 6.336-.83 4.84-4.61 6.625-1.454.665-3.51.976-2.037.291-5.297.291-3.281 0-5.172-.332-1.89-.353-3.26-1.205-3.2-1.952-3.947-5.878-.312-1.641-.312-5.463 0-7.144.748-9.824 1.038-3.718 5.462-5.275 2.161-.77 7.436-.79m-.228 6.522q-2.68 0-3.614.395-1.288.52-1.641 1.931-.353 1.413-.353 5.962 0 4.361.498 5.691.395 1.017 1.433 1.391 1.04.353 3.594.354 2.347 0 3.282-.417.954-.414 1.433-1.619.56-1.412.56-6.128 0-2.928-.103-3.988-.084-1.08-.416-1.848-.435-1.018-1.391-1.351-.934-.352-3.282-.373m24.198-6.314v10.738h2.285l7.311-10.738h9.138l-9.99 13.916 10.821 14.436h-9.325l-7.893-11.175h-2.347v11.175h-7.623v-28.352zm29.244 0v21.83h11.922v6.522h-19.544v-28.352zm31.426 23.47h-10.198l-1.371 4.882h-7.893l8.516-28.352h11.507l8.62 28.352h-7.727zm-1.516-5.504-3.573-12.317-3.468 12.317zm37.822-17.966v28.352h-7.622v-11.155h-9.846v11.154h-7.622v-28.352h7.622v10.676h9.846v-10.676zm17.302-.207q2.908 0 4.57.228 1.661.207 2.907.748 3.988 1.745 4.903 6.21.373 1.828.373 7.353 0 4.632-.291 6.335-.83 4.84-4.611 6.626-1.454.664-3.51.976-2.036.29-5.297.29-3.281 0-5.171-.332-1.89-.353-3.261-1.205-3.199-1.952-3.947-5.878-.31-1.64-.311-5.462 0-7.146.748-9.824 1.038-3.719 5.462-5.276 2.16-.769 7.436-.789m-.229 6.521q-2.68 0-3.613.395-1.289.519-1.641 1.932-.354 1.411-.354 5.961 0 4.362.499 5.691.395 1.017 1.433 1.392 1.04.353 3.593.353 2.347 0 3.282-.416.956-.415 1.433-1.62.561-1.413.561-6.127 0-2.93-.104-3.988-.083-1.08-.416-1.849-.435-1.018-1.39-1.35-.935-.353-3.283-.374m51.678-6.314v28.352h-7.478v-8.495q.021-3.136.374-9.929l.187-3.302h-.249l-.997 3.24-.997 3.22-2.139 6.459-2.929 8.807h-6.563l-2.992-8.828a767 767 0 0 1-4.216-12.898h-.249l.187 3.302q.415 7.103.436 9.929v8.495h-7.478v-28.352h11.86l2.659 8.121q1.163 3.573 2.887 9.7h.291l.644-2.409q.997-3.781 2.056-7.249l2.576-8.163zm21.476 23.47h-10.198l-1.371 4.882h-7.893l8.516-28.352h11.507l8.62 28.352h-7.727l-1.454-4.881m-1.516-5.504-3.573-12.317-3.468 12.317z"/></svg>