<svg xmlns="http://www.w3.org/2000/svg" width="420" height="420" fill="none" viewBox="0 0 420 420"><mask id="a" width="420" height="301" x="0" y="60" maskUnits="userSpaceOnUse" style="mask-type:alpha"><path fill="#003776" d="M379.873 60.5H40.127C17.966 60.5 0 78.466 0 100.627v219.746C0 342.534 17.966 360.5 40.127 360.5h339.746c22.161 0 40.127-17.966 40.127-40.127V100.627c0-22.161-17.966-40.127-40.127-40.127"/></mask><g mask="url(#a)"><mask id="b" width="421" height="300" x="-1" y="65" maskUnits="userSpaceOnUse" style="mask-type:luminance"><path fill="#fff" d="M-1 364.5v-299l421 56.062L322.846 215 420 308.438z"/></mask><g mask="url(#b)"><path fill="#fff" d="M420 121.562-1 65.5v299l421-56.062"/><path stroke="#c1133d" stroke-width="79.733" d="M420 121.562-1 65.5v299l421-56.062"/><path fill="#fff" d="M-1 215h421Z"/><path stroke="#c1133d" stroke-width="39.867" d="M-1 215h421"/></g><path fill="#001c5a" d="M-1.303 65.5v298.303L297 214.651z"/><path fill="#fff" d="M90.879 270.583c30.89 0 55.932-25.042 55.932-55.932s-25.042-55.932-55.932-55.932-55.932 25.042-55.932 55.932 25.042 55.932 55.932 55.932"/><path fill="#c1133d" d="M90.878 251.939c20.593 0 37.288-16.694 37.288-37.288s-16.695-37.288-37.288-37.288c-20.594 0-37.288 16.695-37.288 37.288 0 20.594 16.694 37.288 37.288 37.288"/><path fill="#fff" d="m250.645 214.651-11.083-3.6-1.8 5.541z"/><path fill="#fff" d="m250.645 214.651-11.083 3.601-1.8-5.541z"/><path fill="#fff" d="M242.592 225.733v-11.652h-5.826z"/><path fill="#fff" d="m242.591 225.733-6.849-9.427 4.714-3.424z"/><path fill="#fff" d="m242.593 203.569-6.849 9.427 4.714 3.424z"/><path fill="#fff" d="M242.592 203.569v11.652h-5.826z"/><path fill="#fff" d="m229.562 221.5 11.083-3.601-1.801-5.541z"/><path fill="#fff" d="m229.563 221.5 6.849-9.427 4.714 3.425z"/><path fill="#fff" d="m229.563 207.802 6.849 9.427 4.714-3.424z"/><path fill="#fff" d="m229.562 207.802 11.083 3.601-1.801 5.541zM176.067 214.651l-11.083-3.601-1.8 5.541z"/><path fill="#fff" d="m176.067 214.651-11.083 3.601-1.8-5.541z"/><path fill="#fff" d="M168.016 225.733v-11.652h-5.827z"/><path fill="#fff" d="m168.015 225.733-6.849-9.427 4.714-3.424z"/><path fill="#fff" d="m168.015 203.569-6.849 9.427 4.714 3.425z"/><path fill="#fff" d="M168.014 203.569v11.653h-5.827z"/><path fill="#fff" d="m154.986 221.5 11.082-3.6-1.8-5.541z"/><path fill="#fff" d="m154.987 221.501 6.849-9.428 4.713 3.425z"/><path fill="#fff" d="m154.987 207.802 6.849 9.427 4.713-3.424z"/><path fill="#fff" d="m154.986 207.802 11.082 3.601-1.8 5.541zM211.623 194.12l-11.529-1.692-.846 5.764z"/><path fill="#fff" d="m211.621 194.12-10.322 5.408-2.704-5.161z"/><path fill="#fff" d="m205.541 206.395-1.953-11.488-5.744.977z"/><path fill="#fff" d="m205.541 206.395-8.332-8.145 4.073-4.167z"/><path fill="#fff" d="m201.828 184.545-5.172 10.441 5.221 2.586z"/><path fill="#fff" d="m201.828 184.544 1.953 11.488-5.744.977z"/><path fill="#fff" d="m191.989 204.405 10.322-5.408-2.704-5.161z"/><path fill="#fff" d="m191.988 204.405 5.172-10.442 5.221 2.586z"/><path fill="#fff" d="m189.693 190.901 8.332 8.145 4.073-4.166z"/><path fill="#fff" d="m189.692 190.901 11.529 1.692-.846 5.764zM211.622 235.182l-10.321-5.407-2.704 5.161z"/><path fill="#fff" d="m211.623 235.182-11.529 1.693-.846-5.765z"/><path fill="#fff" d="m201.828 244.758 1.953-11.487-5.744-.977z"/><path fill="#fff" d="m201.828 244.758-5.172-10.442 5.221-2.586z"/><path fill="#fff" d="m205.541 222.907-8.332 8.146 4.073 4.166z"/><path fill="#fff" d="m205.541 222.907-1.953 11.488-5.744-.977z"/><path fill="#fff" d="m189.692 238.401 11.529-1.692-.846-5.764z"/><path fill="#fff" d="m189.693 238.401 8.332-8.145 4.073 4.166z"/><path fill="#fff" d="m191.988 224.897 5.172 10.442 5.221-2.586z"/><path fill="#fff" d="m191.989 224.897 10.322 5.407-2.704 5.161zM128.974 290.846l-1.736-11.522-5.761.868z"/><path fill="#fff" d="m128.976 290.847-8.177-8.302 4.151-4.089z"/><path fill="#fff" d="m115.462 288.601 10.423-5.211-2.606-5.211z"/><path fill="#fff" d="m115.463 288.601 5.369-10.342 5.171 2.685z"/><path fill="#fff" d="m135.286 278.689-11.495-1.91-.955 5.747z"/><path fill="#fff" d="m135.288 278.689-10.423 5.211-2.605-5.211z"/><path fill="#fff" d="m113.423 275.056 8.177 8.301 4.151-4.088z"/><path fill="#fff" d="m113.423 275.056 11.495 1.91-.955 5.747z"/><path fill="#fff" d="m125.675 268.93-5.368 10.341 5.171 2.685z"/><path fill="#fff" d="m125.675 268.93 1.735 11.522-5.761.868zM87.05 299.754l4.094-10.909-5.454-2.047z"/><path fill="#fff" d="m87.048 299.754-3.099-11.233 5.617-1.549z"/><path fill="#fff" d="m76.34 291.213 11.64.523.262-5.82z"/><path fill="#fff" d="m76.341 291.213 9.725-6.419 3.21 4.863z"/><path fill="#fff" d="m98.48 292.209-9.109-7.266-3.633 4.555z"/><path fill="#fff" d="m98.48 292.209-11.64-.524.262-5.82z"/><path fill="#fff" d="m81.151 278.388 3.099 11.233 5.616-1.55z"/><path fill="#fff" d="m81.152 278.388 9.11 7.266-3.633 4.555z"/><path fill="#fff" d="m94.839 279.004-9.726 6.418 3.21 4.863z"/><path fill="#fff" d="m94.838 279.004-4.096 10.909-5.454-2.048zM46.091 287.118l8.89-7.534-3.767-4.445z"/><path fill="#fff" d="m46.092 287.118 2.764-11.32 5.66 1.381z"/><path fill="#fff" d="m40.898 274.442 9.912 6.126 3.064-4.956z"/><path fill="#fff" d="m40.898 274.442 11.62-.87.435 5.81z"/><path fill="#fff" d="m59.752 286.095-4.418-10.783-5.391 2.209z"/><path fill="#fff" d="m59.752 286.095-9.912-6.126 3.063-4.957z"/><path fill="#fff" d="m51.347 265.585-2.763 11.321 5.66 1.381z"/><path fill="#fff" d="m51.347 265.585 4.419 10.783-5.392 2.209z"/><path fill="#fff" d="m63 272.787-11.62.87.436 5.81z"/><path fill="#fff" d="m63 272.787-8.889 7.534-3.767-4.445zM44.867 328.156l7.5-8.917-4.459-3.75z"/><path fill="#fff" d="m44.867 328.156.826-11.623 5.812.413z"/><path fill="#fff" d="m37.621 316.531 10.799 4.378 2.189-5.4z"/><path fill="#fff" d="m37.62 316.531 11.31-2.806 1.403 5.655z"/><path fill="#fff" d="m58.161 324.858-6.163-9.889-4.944 3.081z"/><path fill="#fff" d="m58.162 324.858-10.799-4.378 2.19-5.399z"/><path fill="#fff" d="m46.438 306.048-.827 11.623 5.812.413z"/><path fill="#fff" d="m46.438 306.048 6.164 9.889-4.945 3.082z"/><path fill="#fff" d="M59.134 311.194 47.824 314l1.403 5.655z"/><path fill="#fff" d="m59.133 311.194-7.5 8.918-4.459-3.751zM9.933 306.568l10.026-5.937-2.969-5.013z"/><path fill="#fff" d="m9.933 306.569 4.622-10.697 5.348 2.311z"/><path fill="#fff" d="m6.939 293.201 8.745 7.701 3.85-4.372z"/><path fill="#fff" d="m6.938 293.201 11.601 1.091-.545 5.8z"/><path fill="#fff" d="m23.574 307.85-2.549-11.371-5.685 1.275z"/><path fill="#fff" d="m23.573 307.85-8.745-7.701 3.85-4.373z"/><path fill="#fff" d="m18.725 286.222-4.622 10.697 5.349 2.311z"/><path fill="#fff" d="m18.725 286.222 2.548 11.371-5.685 1.274z"/><path fill="#fff" d="m29.006 295.275-11.602-1.09-.545 5.8z"/><path fill="#fff" d="m29.005 295.275-10.026 5.937-2.97-5.013zM16.472 256.135l11.432-2.251-1.125-5.717z"/><path fill="#fff" d="m16.473 256.135 7.925-8.541 4.271 3.962z"/><path fill="#fff" d="m18.109 242.535 5.674 10.177 5.089-2.837z"/><path fill="#fff" d="m18.109 242.535 10.573 4.898-2.45 5.287z"/><path fill="#fff" d="m28.901 261.894 1.392-11.569-5.785-.696z"/><path fill="#fff" d="m28.903 261.894-5.674-10.178 5.088-2.837z"/><path fill="#fff" d="m31.547 239.888-7.926 8.542 4.27 3.963z"/><path fill="#fff" d="m31.546 239.888-1.392 11.569-5.784-.696z"/><path fill="#fff" d="m38.22 251.853-10.573-4.899-2.45 5.287z"/><path fill="#fff" d="m38.218 251.853-11.433 2.251-1.126-5.716zM5.69 214.651l11.081 3.601 1.8-5.541z"/><path fill="#fff" d="m5.69 214.651 11.081-3.6 1.8 5.541z"/><path fill="#fff" d="M13.742 203.569v11.652h5.826z"/><path fill="#fff" d="m13.743 203.569 6.849 9.427-4.714 3.425z"/><path fill="#fff" d="m13.743 225.733 6.849-9.427-4.714-3.424z"/><path fill="#fff" d="M13.742 225.733v-11.652h5.826z"/><path fill="#fff" d="m26.77 207.802-11.082 3.601 1.8 5.541z"/><path fill="#fff" d="m26.77 207.802-6.85 9.427-4.714-3.425z"/><path fill="#fff" d="m26.77 221.5-6.85-9.427-4.714 3.425z"/><path fill="#fff" d="m26.77 221.5-11.082-3.601 1.8-5.541zM128.974 138.456l-1.736 11.522-5.761-.867z"/><path fill="#fff" d="m128.976 138.456-8.177 8.302 4.151 4.088z"/><path fill="#fff" d="m115.462 140.701 10.423 5.211-2.606 5.211z"/><path fill="#fff" d="m115.463 140.701 5.369 10.342 5.171-2.684z"/><path fill="#fff" d="m135.284 150.613-11.495 1.91-.955-5.747z"/><path fill="#fff" d="m135.286 150.613-10.423-5.211-2.605 5.211z"/><path fill="#fff" d="m113.421 154.247 8.177-8.302 4.151 4.088z"/><path fill="#fff" d="m113.421 154.247 11.495-1.91-.955-5.748z"/><path fill="#fff" d="m125.673 160.373-5.368-10.342 5.171-2.684z"/><path fill="#fff" d="m125.675 160.373 1.735-11.523-5.761-.867zM87.047 129.548l4.096 10.909-5.455 2.047z"/><path fill="#fff" d="m87.048 129.548-3.099 11.233 5.617 1.549z"/><path fill="#fff" d="m76.34 138.089 11.64-.523.262 5.82z"/><path fill="#fff" d="m76.34 138.089 9.724 6.419 3.21-4.863z"/><path fill="#fff" d="m98.48 137.093-9.109 7.266-3.633-4.554z"/><path fill="#fff" d="m98.48 137.093-11.64.524.262 5.821z"/><path fill="#fff" d="m81.151 150.914 3.099-11.233 5.616 1.55z"/><path fill="#fff" d="m81.152 150.914 9.11-7.266-3.633-4.555z"/><path fill="#fff" d="m94.837 150.298-9.726-6.418 3.21-4.863z"/><path fill="#fff" d="m94.838 150.298-4.096-10.909-5.454 2.048zM46.09 142.185l8.888 7.534-3.767 4.444z"/><path fill="#fff" d="m46.09 142.185 2.763 11.32 5.66-1.382z"/><path fill="#fff" d="m40.896 154.86 9.913-6.126 3.063 4.956z"/><path fill="#fff" d="m40.896 154.86 11.62.87.435-5.809z"/><path fill="#fff" d="m59.75 143.208-4.418 10.782-5.391-2.209z"/><path fill="#fff" d="m59.75 143.208-9.912 6.126 3.063 4.956z"/><path fill="#fff" d="m51.345 163.717-2.763-11.32 5.66-1.382z"/><path fill="#fff" d="m51.347 163.717 4.419-10.782-5.392-2.21z"/><path fill="#fff" d="m62.999 156.515-11.62-.87.435-5.81z"/><path fill="#fff" d="m62.999 156.515-8.89-7.534-3.767 4.445zM44.863 101.146l7.5 8.918-4.459 3.75z"/><path fill="#fff" d="m44.863 101.146.827 11.624 5.811-.414z"/><path fill="#fff" d="m37.617 112.772 10.799-4.378 2.189 5.399z"/><path fill="#fff" d="m37.616 112.772 11.31 2.805 1.403-5.654z"/><path fill="#fff" d="m58.16 104.445-6.164 9.889-4.944-3.082z"/><path fill="#fff" d="m58.16 104.445-10.799 4.378 2.19 5.399z"/><path fill="#fff" d="m46.434 123.255-.827-11.623 5.812-.414z"/><path fill="#fff" d="m46.434 123.255 6.164-9.889-4.945-3.082z"/><path fill="#fff" d="m59.13 118.108-11.31-2.805 1.403-5.655z"/><path fill="#fff" d="m59.13 118.108-7.501-8.917-4.459 3.75zM9.933 122.734l10.026 5.937-2.969 5.013z"/><path fill="#fff" d="m9.933 122.734 4.622 10.697 5.348-2.311z"/><path fill="#fff" d="m6.939 136.101 8.745-7.701 3.85 4.372z"/><path fill="#fff" d="m6.938 136.101 11.601-1.09-.545-5.801z"/><path fill="#fff" d="m23.574 121.453-2.549 11.37-5.685-1.274z"/><path fill="#fff" d="m23.573 121.452-8.745 7.701 3.85 4.373z"/><path fill="#fff" d="m18.725 143.08-4.622-10.696 5.349-2.311z"/><path fill="#fff" d="m18.725 143.08 2.548-11.37-5.685-1.274z"/><path fill="#fff" d="m29.006 134.028-11.602 1.09-.545-5.801z"/><path fill="#fff" d="m29.005 134.028-10.026-5.938-2.97 5.014zM16.473 173.167l11.433 2.251-1.125 5.717z"/><path fill="#fff" d="m16.473 173.167 7.925 8.541 4.271-3.962z"/><path fill="#fff" d="m18.109 186.767 5.674-10.177 5.089 2.837z"/><path fill="#fff" d="m18.109 186.767 10.573-4.898-2.45-5.287z"/><path fill="#fff" d="m28.9 167.408 1.391 11.57-5.785.695z"/><path fill="#fff" d="m28.9 167.408-5.673 10.178 5.088 2.837z"/><path fill="#fff" d="m31.547 189.414-7.926-8.542 4.27-3.963z"/><path fill="#fff" d="m31.546 189.414-1.392-11.569-5.784.696z"/><path fill="#fff" d="m38.22 177.45-10.573 4.898-2.45-5.286z"/><path fill="#fff" d="m38.218 177.45-11.433-2.252-1.126 5.716z"/></g></svg>