<svg xmlns="http://www.w3.org/2000/svg" width="420" height="420" fill="none" viewBox="0 0 420 420"><mask id="a" width="420" height="300" x="0" y="60" maskUnits="userSpaceOnUse" style="mask-type:alpha"><path fill="#003776" d="M379.873 60H40.127C17.966 60 0 77.966 0 100.127v219.746C0 342.034 17.966 360 40.127 360h339.746C402.034 360 420 342.034 420 319.873V100.127C420 77.966 402.034 60 379.873 60"/></mask><g mask="url(#a)"><path fill="#c00" d="M-180 60h600v300h-600z"/><path fill="#fff" d="M375 60h45v300h-45z"/><path fill="#002d65" d="M382.5 60H420v300h-37.5z"/><path fill="#002d65" d="M382.5 60H420v300h-37.5z"/></g><path fill="#fff" d="M208.624 308.778c55.021 0 99.625-44.604 99.625-99.625s-44.604-99.624-99.625-99.624S109 154.132 109 209.153s44.603 99.625 99.624 99.625"/><path fill="#002d65" d="M208.625 301.114c50.789 0 91.961-41.172 91.961-91.961 0-50.788-41.172-91.961-91.961-91.961s-91.961 41.173-91.961 91.961c0 50.789 41.172 91.961 91.961 91.961"/><path fill="#fff" d="m207.439 212.798-25.525 35.132 17.566 12.763"/><path fill="#fff" d="M207.439 212.798v43.426h-21.713"/><path fill="#fff" d="m237.447 254.098-41.3-13.419-6.71 20.65"/><path fill="#fff" d="m237.447 254.098-41.3 13.419-6.71-20.65"/><path fill="#fff" d="M207.439 295.399v-43.426h-21.713"/><path fill="#fff" d="m207.439 295.399-25.525-35.133 17.566-12.762"/><path fill="#fff" d="m158.891 279.623 41.3-13.419-6.71-20.65"/><path fill="#fff" d="m158.891 279.623 25.525-35.132 17.566 12.763"/><path fill="#fff" d="m158.889 228.573 25.525 35.132 17.566-12.762"/><path fill="#fff" d="m158.889 228.573 41.3 13.419-6.709 20.65M206.062 206.306 188.4 166.635l-19.836 8.831"/><path fill="#fff" d="m206.062 206.306-37.607-21.713 10.856-18.804"/><path fill="#fff" d="m155.291 211.643 32.272-29.058-14.529-16.136"/><path fill="#fff" d="m155.291 211.643 9.029-42.477 21.238 4.514"/><path fill="#fff" d="m134.527 165.006 37.608 21.713 10.857-18.804"/><path fill="#fff" d="m134.527 165.006 43.188-4.539 2.27 21.594"/><path fill="#fff" d="m172.465 130.846-9.029 42.477 21.239 4.515"/><path fill="#fff" d="m172.465 130.846 17.663 39.672-19.836 8.831"/><path fill="#fff" d="m216.676 156.372-43.188 4.539 2.269 21.594"/><path fill="#fff" d="m216.676 156.372-32.272 29.057-14.529-16.136M212.371 208.357l43.188 4.539 2.27-21.594"/><path fill="#fff" d="m212.371 208.357 37.608-21.713 10.857 18.804"/><path fill="#fff" d="m233.135 161.72 9.029 42.477 21.238-4.515"/><path fill="#fff" d="m233.135 161.72 32.272 29.057-14.529 16.136"/><path fill="#fff" d="m283.906 167.056-37.608 21.713 10.857 18.804"/><path fill="#fff" d="m283.906 167.056-17.663 39.672-19.835-8.832"/><path fill="#fff" d="m294.521 216.991-32.271-29.058-14.529 16.136"/><path fill="#fff" d="m294.521 216.991-43.188-4.54 2.27-21.594"/><path fill="#fff" d="m250.309 242.516 17.663-39.672-19.836-8.831"/><path fill="#fff" d="m250.309 242.516-9.029-42.477 21.238-4.515"/></svg>