<svg xmlns="http://www.w3.org/2000/svg" width="420" height="420" fill="none" viewBox="0 0 420 420"><mask id="a" width="420" height="300" x="0" y="60" maskUnits="userSpaceOnUse" style="mask-type:alpha"><path fill="#003776" d="M379.873 60H40.127C17.966 60 0 77.966 0 100.127v219.746C0 342.034 17.966 360 40.127 360h339.746C402.034 360 420 342.034 420 319.873V100.127C420 77.966 402.034 60 379.873 60"/></mask><g mask="url(#a)"><path fill="#bf0d3e" d="M0 60h600v300H0z"/><path fill="#fff" d="M0 60h600v150H0z"/><path fill="#00205b" d="M0 60h200v300H0z"/><path fill="#fff" d="m97.973 142-20.276 62.403 27.734 9.012"/><path fill="#fff" d="m97.973 142 20.276 62.403-27.735 9.012"/><path fill="#fff" d="M160.377 187.339H94.762v29.162"/><path fill="#fff" d="m160.377 187.339-53.083 38.567-17.141-23.593"/><path fill="#fff" d="m136.541 260.698-20.276-62.403-27.735 9.011"/><path fill="#fff" d="M136.541 260.698 83.458 222.13l17.141-23.592"/><path fill="#fff" d="m59.406 260.698 53.084-38.567-17.141-23.593"/><path fill="#fff" d="m59.406 260.698 20.276-62.403 27.735 9.011"/><path fill="#fff" d="m35.57 187.338 53.084 38.568 17.141-23.593"/><path fill="#fff" d="M35.57 187.338h65.615V216.5"/></g></svg>