<svg xmlns="http://www.w3.org/2000/svg" width="420" height="420" fill="none" viewBox="0 0 420 420"><mask id="a" width="420" height="300" x="0" y="60" maskUnits="userSpaceOnUse" style="mask-type:alpha"><path fill="#003776" d="M379.873 60H40.127C17.966 60 0 77.966 0 100.127v219.746C0 342.034 17.966 360 40.127 360h339.746C402.034 360 420 342.034 420 319.873V100.127C420 77.966 402.034 60 379.873 60"/></mask><g mask="url(#a)"><path fill="#fff" d="M-90 60h600v300H-90z"/><path fill="#071d49" d="M510 60v146l-60-34.801-30 17.409-90-52.193-29.983 17.392L210 101.614l-90.017 52.193L90 136.415 0 188.608l-30-17.409L-90 206V60z"/><path fill="#aa0200" d="M510 245v115H-90V245H90l120 71.964L330 245z"/><path fill="#071d49" d="M293 257.758v-95.839L210.007 114 127 161.919v95.839l83.007 47.919z"/><path fill="#ffb81d" d="m210 122.692-75.473 43.58v87.146L210 296.998l75.473-43.58v-87.146zm71.879 128.65L210 292.845l-71.879-41.503v-82.994L210 126.845l71.879 41.503z"/><path fill="#ffb81d" d="M235.996 166.658h-51.953c-.998 0-1.504-1.225-.785-1.917 7.56-7.241 16.718-11.953 26.728-11.953s19.261 4.712 26.782 11.953c.718.692.226 1.917-.786 1.917zM247.883 185.24h-75.766c-1.49 0-2.449-1.584-1.77-2.902a73 73 0 0 1 4.952-8.213 6.45 6.45 0 0 1 5.298-2.755h58.834a6.45 6.45 0 0 1 5.297 2.769 73 73 0 0 1 4.925 8.199c.679 1.318-.279 2.902-1.77 2.902M254.738 203.809h-89.476a1.987 1.987 0 0 1-1.93-2.476c.759-2.929 1.531-5.697 2.343-8.133a4.755 4.755 0 0 1 4.525-3.261h79.613a4.78 4.78 0 0 1 4.526 3.261c.811 2.436 1.597 5.204 2.342 8.133.32 1.251-.639 2.476-1.93 2.476zM258.771 222.391h-97.528a1.99 1.99 0 0 1-1.957-2.356c.479-2.516.985-5.125 1.531-7.734a4.77 4.77 0 0 1 4.659-3.78h89.063a4.75 4.75 0 0 1 4.658 3.78 413 413 0 0 1 1.531 7.734 1.99 1.99 0 0 1-1.957 2.356M219.278 240.959a1.99 1.99 0 0 1-1.997-1.983c0-2.01-.812-3.82-2.13-5.138a7.26 7.26 0 0 0-5.151-2.13c-4.02 0-7.281 3.248-7.281 7.255a1.99 1.99 0 0 1-1.997 1.983h-42.634c-1.225 0-2.157-1.078-1.97-2.276.266-1.744.678-4.393 1.211-7.614a4.76 4.76 0 0 1 4.699-3.967h95.958a4.76 4.76 0 0 1 4.698 3.967c.533 3.221.946 5.87 1.212 7.614a1.98 1.98 0 0 1-1.97 2.276h-42.635z"/><path fill="#fff" d="m210 253.192 2.969 9.158h9.623l-7.786 5.657 2.981 9.144-7.787-5.657-7.787 5.657 2.969-9.144-7.774-5.657h9.611z"/></g></svg>