<svg xmlns="http://www.w3.org/2000/svg" width="420" height="420" fill="none">
  <mask id="mask0_42_306" width="420" height="300" x="0" y="60" maskUnits="userSpaceOnUse" style="mask-type:alpha">
    <path fill="#003776" d="M379.873 60H40.127C17.966 60 0 77.966 0 100.127v219.746C0 342.034 17.966 360 40.127 360h339.746C402.034 360 420 342.034 420 319.873V100.127C420 77.966 402.034 60 379.873 60Z"/>
  </mask>
  <g mask="url(#mask0_42_306)">
    <path fill="#fff" fill-rule="evenodd" d="M0 60h420v300H0V60Z" clip-rule="evenodd"/>
  </g>
  <path fill="#E81B39" d="M0 150.057h420v60H0v-60Zm0 90h420v60H0v-60ZM20 98.321l18.544 13.473-7.081 21.794 18.539-13.469 18.54 13.469-7.082-21.794 18.544-13.473H57.085l-7.082-21.796-7.082 21.796H20ZM180 98.321l18.544 13.473-7.081 21.794 18.539-13.469 18.539 13.469-7.081-21.794 18.544-13.473h-22.919l-7.082-21.796-7.082 21.796H180ZM340 98.321l18.544 13.473-7.081 21.794 18.539-13.469 18.539 13.469-7.081-21.794 18.544-13.473h-22.919l-7.082-21.796-7.082 21.796H340Z"/>
</svg>
