<svg xmlns="http://www.w3.org/2000/svg" width="420" height="420" fill="none"><path fill="#C00" d="M373.333 58.333H46.667C20.895 58.333 0 79.228 0 105v210c0 25.772 20.895 46.667 46.667 46.667h326.666C399.105 361.667 420 340.772 420 315V105c0-25.772-20.895-46.667-46.667-46.667Z"/><path fill="gold" d="m66.442 85-4.203 12.956H48.638l11.003 8.007-4.203 12.956 11.004-8.007 11.004 8.007-4.203-12.956 11.004-8.007H70.645L66.442 85Zm0 6.75 2.69 8.292h8.705l-7.043 5.124 2.69 8.292-7.042-5.124-7.042 5.124 2.69-8.292-7.043-5.124h8.705l2.69-8.292ZM36.388 152.842l9.316 9.37 8.786-8.715c13.364 14.318 27.38 28.119 40.64 42.492a5.122 5.122 0 0 0 7.241.025 5.11 5.11 0 0 0 .025-7.233c-14.233-13.414-28.51-26.938-42.748-40.402l11.837-11.742-16.467-2.278-18.63 18.483Z"/><path fill="gold" d="M66.442 122.5c7.664 4.312 13.483 10.5 16.915 16.968 3.479 6.557 5.008 13.401 5.04 18.874.064 11.221-9.107 20.318-20.34 20.318a20.297 20.297 0 0 1-15.105-6.711l-2.059 1.732a3.078 3.078 0 0 0-3.443.883 3.858 3.858 0 0 0-3.164 2.611c-1.548 3.102-4.265 5.535-7.552 6.649a.697.697 0 0 0-.087.039c-1.52.556-3.044 1.561-4.34 2.862-2.565 2.584-3.818 5.89-3.113 8.209a1.94 1.94 0 0 0 2.614 2.4c2.319.522 5.468-.763 7.93-3.236 1.396-1.406 2.441-3.071 2.955-4.702 1.144-3.268 3.604-5.93 6.728-7.427.075-.036.135-.072.189-.11a3.858 3.858 0 0 0 2.087-2.573c4.791 5.647 11.978 9.253 20.011 9.441 14.735.347 25.748-10.488 26.258-26.067.256-7.841-2.78-17.952-9.7-26.243-5.29-6.337-13.044-11.598-21.824-13.917Z"/></svg>