<svg xmlns="http://www.w3.org/2000/svg" width="420" height="420" fill="none"><path fill="#951A42" d="M373.333 58.333H46.667C20.895 58.333 0 79.228 0 105v210c0 25.772 20.895 46.667 46.667 46.667h326.666C399.105 361.667 420 340.772 420 315V105c0-25.772-20.895-46.667-46.667-46.667Z"/><path fill="#951A42" fill-rule="evenodd" d="M204.515 293.631a52.363 52.363 0 0 1-1.25-1.855 81.898 81.898 0 0 1-3.084-5.144 92.817 92.817 0 0 1-2.65-5.18 95.73 95.73 0 0 1-4.726-12.148 115.269 115.269 0 0 1-2.927-11.381 120.616 120.616 0 0 1-.585-3.053c-1.291-7.151-1.987-14.411-2.191-21.672a171.204 171.204 0 0 1-.044-7.058c.068-4.229.303-8.457.706-12.671.586-6.178 1.521-12.326 2.864-18.384 1.203-5.416 2.73-10.769 4.726-15.949a87.23 87.23 0 0 1 1.485-3.565 64.176 64.176 0 0 1 1.892 4.061l2.357-2.713s-1.008 2.525-1.542 4.208a.725.725 0 0 0 .02.528 95.495 95.495 0 0 1 2.342 6.607l2.002-1.589c-1.082 1.276-1.5 3.241-1.165 4.443 1.803 6.54 2.838 13.398 1.86 18.469 6.738-9.367 7.606-27.172.039-37.47.544.194 1.119.418 1.71.664l.355-2.138s.267 1.302.476 2.232c.063.293.236.377.319.413 1.625.743 3.215 1.616 5.055 2.802l.695-2.985s.188 1.725.418 3.304c.053.376.256.596.356.664a46.654 46.654 0 0 1 6.633 5.645l1.401-2.886c-.732 1.631.084 4.423 1.406 6.049 2.98 3.627 4.187 3.706 6.325 8.541.915-8.087 1.887-22.708-18.756-28.954 0 0 1.428-.575 3.608-1.286l-1.669-1.83s1.428.768 2.588 1.323c.22.104.466.067.565.034 1.887-.57 4.13-1.166 6.435-1.589l-1.416-1.605c1.144.899 2.989 1.333 4.014 1.212 3.147-.36 6.205-.266 8.406.79-3.451-4.825-13.064-9.461-29.159-5.191.408-1.626.915-2.907 1.636-4.004l-1.244-.831s.695.049 1.495.083c.293.01.397-.12.45-.183 1.124-1.297 2.681-2.342 4.945-3.466l-.742-.799s1.479.47 2.127.125c1.192-.627 2.353-1.212 4.276-1.657-6.774-3.466-14.569-2.404-21.061 6.603-.04.051-.099.146-.183.271-5.128-10.303-17.042-11.149-24.145-10.831 3.695 1.229 7.239 3.027 10.219 5.431.204.168.407.34.617.497 1.244.94 3.099 1.249 3.099 1.249l-1.369.429a21.816 21.816 0 0 1 2.452 3.011c.019.034.063.104.198.141.131.029 2.415.648 2.415.648l-1.902.33c.606 1.118 1.307 2.655 1.725 3.962-9.264-9.07-24.01-13.414-41.375 1.777 4.851-1.087 10.46-1.547 15.489-1.27 1.04.067 3.319-.44 4.924-1.814l-1.547 2.128c2.54.339 4.814.898 6.612 1.699.05.019.152.051.294-.02.778-.419 1.871-1.056 1.871-1.056l-1.087 1.62c.705.403 1.317.852 1.792 1.354-9.963-.178-23.157 6.236-26.074 17.277 3.905-2.593 6.984-4.287 9.634-5.416.915-.45 2.065-1.95 2.41-3.46l.554 2.368c2.211-.68 4.198-.989 6.273-1.187.063-.005.178 0 .345-.272.612-.988 1.537-2.645 1.537-2.645l-.167 2.776c.45-.03.904-.063 1.374-.095-9.765 7.957-11.772 17.345-11.536 29.405 1.824-5.186 5.462-10.173 9.749-14.532 1.437-1.417 2.462-3.66 2.19-5.934l1.171 2.745a73.166 73.166 0 0 1 7.831-6.037c.078-.053.229-.116.324-.544.324-1.527.659-2.985.659-2.985l.564 2.53c2.295-1.443 4.464-2.609 6.367-3.45-7.841 15.625-12.435 34.411-13.79 53.226-.757 10.606-.491 21.218.811 31.281.805 6.21 2.002 12.211 3.591 17.867a103.117 103.117 0 0 0 1.766 5.656l.659 1.903 21.883 10.403Z" clip-rule="evenodd"/><path fill="#FCED00" fill-rule="evenodd" d="M236.501 286.394c7.281-3.251 14.809-6.607 21.103-10.183 32.279-18.343 29.597-34.423 23.716-69.66-1.066-6.414-2.279-13.685-3.324-21.448-2.044-15.18 1.589-23.236 7.213-32.519l-25.337-24.073h-.005c-4.684 1.981-12.431 4.694-19.801 4.694-1.563 0-3.069-.12-4.486-.361-8.656-1.442-19.592-8.233-25.426-12.211h-.005c-5.834 3.978-16.775 10.769-25.42 12.211a26.83 26.83 0 0 1-4.485.361c-7.371 0-15.118-2.713-19.802-4.694h-.005L135.1 152.584c5.63 9.283 9.258 17.339 7.214 32.519-1.046 7.763-2.259 15.034-3.325 21.448-5.881 35.237-8.562 51.318 23.717 69.66 6.299 3.575 13.821 6.931 21.103 10.183 9.796 4.37 19.148 8.542 26.351 13.439 0-.004-.005-.004 0-.009v.005c7.198-4.898 16.55-9.065 26.341-13.435m-53.867-3.168c-6.54-2.922-13.152-5.944-18.735-9.111-4.438-2.52-8.16-4.982-11.312-7.449-13.472-10.559-15.97-21.291-14.434-37.684.602-6.383 1.799-13.618 3.205-22.044 1.072-6.425 2.29-13.706 3.34-21.522 2.07-15.363-1.599-24.015-6.549-32.425l22.817-21.673c5.196 2.076 12.341 4.281 19.283 4.281 1.694 0 3.336-.13 4.883-.392 8.463-1.411 18.829-7.569 25.023-11.683 6.189 4.114 16.555 10.267 25.029 11.683 1.542.262 3.189.392 4.882.392 6.943 0 14.089-2.206 19.279-4.281l22.818 21.673c-4.945 8.411-8.615 17.062-6.545 32.425 1.051 7.816 2.264 15.097 3.34 21.522 1.401 8.426 2.604 15.661 3.205 22.044 1.098 11.756.13 20.601-5.473 28.557-4.036 5.729-10.465 11.004-20.272 16.576-6.199 3.524-13.669 6.853-20.904 10.084-9.347 4.171-18.202 8.123-25.353 12.744a103.27 103.27 0 0 0-5.651-3.314l-21.876-10.403Z" clip-rule="evenodd"/><path fill="#951A42" fill-rule="evenodd" d="M233.703 226.149c-1.846-.051-3.691-.105-5.547-.146 1.856.044 3.701.095 5.547.146Z" clip-rule="evenodd"/><path fill="#FCED00" fill-rule="evenodd" d="M254.091 172.032c7.47 0 13.522-6.053 13.522-13.523s-6.052-13.523-13.522-13.523c-7.471 0-13.523 6.053-13.523 13.523s6.052 13.523 13.523 13.523Z" clip-rule="evenodd"/><path fill="#72BF44" fill-rule="evenodd" d="m246.823 253.391-6.32 28.574c-1.662.752-3.33 1.495-4.987 2.231-4.088 1.83-8.076 3.618-11.882 5.437l19.404-36.241v-1.432a188.592 188.592 0 0 0-5.546-.346v1.778l-27.323 43.553c7.151-4.621 16.006-8.578 25.347-12.745 7.24-3.23 14.71-6.565 20.904-10.089 9.812-5.566 16.242-10.841 20.278-16.57-9.279-2.468-19.321-4.271-29.875-5.28v1.13ZM233.703 251.437a212.36 212.36 0 0 0-5.547-.088v2.044s-.005 0-.005.004l-31.359 26.445a92.77 92.77 0 0 0 3.387 6.791l33.523-33.241.001-1.955ZM224.372 251.37c-12.28.156-24.12 1.395-35.081 3.502.182 1.02.381 2.033.585 3.048a116.206 116.206 0 0 0 2.932 11.385l31.564-15.912v-2.023ZM152.592 266.672c3.148 2.468 6.875 4.925 11.313 7.444 5.578 3.173 12.19 6.195 18.729 9.117-3.068-1.375-6.152-2.765-9.137-4.188l6.717-3.376c-1.589-5.656-2.786-11.652-3.591-17.867-8.73 2.389-16.869 5.388-24.031 8.87Z" clip-rule="evenodd"/><path fill="#0072BC" fill-rule="evenodd" d="M243.038 226.466c-1.819-.073-3.711-.152-5.547-.215v25.359c1.861.094 3.712.209 5.547.35v-25.494ZM233.703 226.149c-1.846-.051-3.691-.105-5.547-.146v25.348c1.856.01 3.711.029 5.547.089v-25.291ZM246.819 226.613v25.646c10.559 1.009 20.601 2.812 29.875 5.28 5.603-7.952 6.576-16.802 5.472-28.558a766.167 766.167 0 0 0-35.347-2.368Z" clip-rule="evenodd"/><path fill="#00C0F3" fill-rule="evenodd" d="M254.09 144.984c7.471 0 13.524 6.054 13.524 13.524 0 7.47-6.053 13.523-13.524 13.523-7.469 0-13.522-6.053-13.522-13.523s6.053-13.524 13.522-13.524Zm-29.717 80.958.005-25.316c0-.298.241-.538.533-.538h.852v-.852c0-.293.241-.539.539-.539h18.589a.54.54 0 0 1 .538.539v.852h.852c.293 0 .533.24.533.538l.006 25.991a764.863 764.863 0 0 1 35.347 2.368c-.601-6.383-1.803-13.612-3.204-22.044-1.071-6.424-2.289-13.706-3.34-21.521-2.071-15.364 1.599-24.015 6.544-32.426l-22.812-21.673c-5.196 2.076-12.342 4.281-19.284 4.281-1.694 0-3.334-.13-4.882-.392-8.474-1.417-18.839-7.569-25.029-11.683-6.189 4.114-16.56 10.272-25.023 11.683a29.413 29.413 0 0 1-4.883.392c-6.937 0-14.087-2.205-19.278-4.281l-22.818 21.673c4.945 8.412 8.615 17.062 6.545 32.426-1.051 7.815-2.263 15.097-3.341 21.521-1.4 8.432-2.603 15.661-3.204 22.044 12.107-1.103 24.699-1.924 37.658-2.463 1.349-18.813 5.944-37.6 13.79-53.225-1.908.841-4.077 2.006-6.372 3.45l-.565-2.531s-.334 1.459-.658 2.985c-.095.429-.241.492-.319.544a73.403 73.403 0 0 0-7.836 6.038l-1.171-2.74c.272 2.269-.752 4.511-2.19 5.928-4.281 4.36-7.925 9.347-9.749 14.532-.235-12.059 1.772-21.447 11.537-29.403-.465.029-.925.062-1.375.093l.168-2.775s-.926 1.662-1.532 2.645c-.173.272-.287.267-.35.272-2.075.199-4.056.507-6.268 1.186l-.559-2.367c-.345 1.51-1.495 3.015-2.41 3.466-2.65 1.129-5.724 2.817-9.634 5.41 2.922-11.041 16.111-17.449 26.08-17.277-.481-.502-1.093-.951-1.798-1.354l1.092-1.62s-1.098.642-1.876 1.055a.307.307 0 0 1-.293.02c-1.798-.799-4.073-1.359-6.607-1.699l1.542-2.127c-1.605 1.375-3.885 1.881-4.925 1.814-5.023-.277-10.632.183-15.483 1.27 17.365-15.191 32.107-10.847 41.37-1.777-.419-1.307-1.119-2.844-1.726-3.963l1.904-.329-2.415-.648c-.131-.034-.173-.105-.199-.142a21.95 21.95 0 0 0-2.452-3.011l1.375-.428s-1.861-.309-3.106-1.25c-.208-.157-.407-.329-.616-.496-2.979-2.4-6.524-4.203-10.22-5.431 7.11-.319 19.018.527 24.146 10.831.084-.12.147-.219.183-.272 6.492-9.007 14.287-10.068 21.062-6.602-1.924.444-3.085 1.029-4.271 1.657-.654.345-2.128-.126-2.128-.126l.737.8c-2.263 1.124-3.821 2.175-4.945 3.465-.052.068-.157.194-.449.184-.8-.03-1.491-.084-1.491-.084l1.239.831c-.721 1.098-1.228 2.379-1.635 4.01 16.095-4.276 25.708.361 29.158 5.186-2.201-1.057-5.253-1.151-8.406-.79-1.024.12-2.87-.314-4.009-1.212l1.411 1.604c-2.305.423-4.548 1.02-6.435 1.595-.099.024-.345.067-.564-.045a76.216 76.216 0 0 1-2.588-1.317l1.667 1.824a64.492 64.492 0 0 0-3.606 1.286c20.643 6.247 19.671 20.868 18.756 28.955-2.139-4.836-3.346-4.914-6.326-8.541-1.322-1.627-2.137-4.417-1.406-6.048l-1.401 2.885a46.609 46.609 0 0 0-6.633-5.646 1.003 1.003 0 0 1-.355-.658c-.231-1.584-.419-3.309-.419-3.309l-.695 2.985c-1.835-1.187-3.429-2.06-5.055-2.802-.084-.035-.256-.115-.319-.413-.209-.931-.475-2.232-.475-2.232l-.356 2.138a35.663 35.663 0 0 0-1.709-.665c7.564 10.299 6.696 28.103-.039 37.471.982-5.071-.058-11.924-1.856-18.469-.34-1.202.078-3.168 1.16-4.443l-2.002 1.589a92.657 92.657 0 0 0-2.342-6.607.74.74 0 0 1-.019-.528c.538-1.684 1.542-4.208 1.542-4.208l-2.353 2.713a67.576 67.576 0 0 0-1.897-4.062 83.737 83.737 0 0 0-1.48 3.565c-1.997 5.18-3.523 10.533-4.73 15.949-1.344 6.059-2.28 12.206-2.865 18.385a159.68 159.68 0 0 0-.7 12.671c9.837-.438 30.569-.366 37.307-.198" clip-rule="evenodd"/><path fill="#00C0F3" fill-rule="evenodd" d="M243.037 201.524h-5.546v24.73c1.835.058 3.728.142 5.546.21v-24.94ZM233.702 201.524h-5.546v24.475c1.856.044 3.701.094 5.546.146v-24.621Z" clip-rule="evenodd"/><path fill="#5EA14D" fill-rule="evenodd" d="M244.979 253.86c-.993 0-1.939-.465-1.939-.465l-19.405 36.236c3.801-1.819 7.79-3.607 11.883-5.431 1.657-.742 3.324-1.485 4.987-2.238l6.319-28.573v.005s-.847.466-1.845.466ZM226.224 253.86c-.993 0-1.85-.465-1.85-.465l-31.564 15.907a95.7 95.7 0 0 0 3.984 10.538l31.359-26.445c-.057.025-.962.465-1.929.465M237.492 253.391c-.01.005-.857.466-1.85.466-.989 0-1.94-.466-1.94-.466l-33.517 33.236a82.013 82.013 0 0 0 3.084 5.149c.402.622.815 1.239 1.249 1.855a100.756 100.756 0 0 1 5.651 3.315l27.323-43.555ZM182.637 283.229l-.659-1.903a107.27 107.27 0 0 1-1.762-5.662l-6.722 3.378c2.99 1.422 6.074 2.812 9.143 4.187Z" clip-rule="evenodd"/><path fill="#0072BC" fill-rule="evenodd" d="M224.375 225.938c-6.737-.167-27.475-.24-37.307.199-.04 2.352-.025 4.71.034 7.057.209 7.266.899 14.522 2.191 21.673 10.956-2.107 22.801-3.34 35.081-3.502l.001-25.427ZM152.592 266.672c7.162-3.481 15.302-6.482 24.031-8.871-1.302-10.057-1.573-20.674-.81-31.281-12.959.539-25.552 1.365-37.653 2.468-1.537 16.388.956 27.12 14.432 37.684Z" clip-rule="evenodd"/><path fill="#FCED00" fill-rule="evenodd" d="M237.492 253.391v-51.867h5.547v51.867s.951.471 1.939.471c.998 0 1.845-.471 1.845-.471v-1.129l-.005-25.645v-25.991a.538.538 0 0 0-.539-.538h-.852v-.852a.537.537 0 0 0-.538-.539h-18.583a.538.538 0 0 0-.539.539v.852h-.852a.537.537 0 0 0-.538.538v25.311l-.006 25.432v2.023s.857.47 1.851.47c.966 0 1.876-.439 1.928-.47h.006v-51.868h5.546v51.868s.952.47 1.94.47c.987 0 1.834-.46 1.85-.47v-.001Z" clip-rule="evenodd"/></svg>