<svg xmlns="http://www.w3.org/2000/svg" viewBox="0 0 36 36" fill="none"><path fill="#EE2024" d="M36 27v-4H0v4a4 4 0 0 0 4 4h28a4 4 0 0 0 4-4Z"/><path fill="#0A4EA2" d="M36 23H0V9a4 4 0 0 1 4-4h28a4 4 0 0 1 4 4v14Z"/><path fill="#EEE" d="M0 13h36v10H0V13Z"/><path fill="#EE2024" fill-rule="evenodd" d="m18.412 10.763 1.814 5.584h5.871l-4.75 3.451 1.815 5.585-4.75-3.451-4.75 3.45 1.814-5.584-4.75-3.45 5.871-.001 1.815-5.584Z" clip-rule="evenodd"/><path fill="#FFCD05" fill-rule="evenodd" d="m18.412 10 1.986 6.111h6.425l-5.198 3.778L23.61 26l-5.198-3.777L13.213 26l1.985-6.111L10 16.11h6.426L18.412 10Zm0 1.527-1.643 5.056h-5.317l4.301 3.125-1.643 5.057 4.302-3.125 4.301 3.125-1.643-5.057 4.302-3.125h-5.317l-1.643-5.056Z" clip-rule="evenodd"/></svg>