<svg xmlns="http://www.w3.org/2000/svg" width="420" height="420" fill="none"><g clip-path="url(#clip0_356_176)"><mask id="mask0_356_176" width="420" height="304" x="0" y="58" maskUnits="userSpaceOnUse" style="mask-type:alpha"><path fill="#D9D9D9" d="M373.333 58H46.667C20.895 58 0 78.895 0 104.667v210c0 25.772 20.895 46.667 46.667 46.667h326.666c25.772 0 46.667-20.895 46.667-46.667v-210C420 78.895 399.105 58 373.333 58Z"/></mask><g mask="url(#mask0_356_176)"><path fill="#1EB53A" d="M0 37h420v346.599H0"/><path fill="#000" d="M0 153.293h420v115.153H0"/></g><path fill="#00A3DD" d="M0 153h166V58"/><path fill="#FCD116" d="M-1.5 132 128 58h38v30.5l-115.5 66h-52V132Z"/><path fill="#000" d="M-.5 139.5 143.499 58h22.5v20.5L34.5 155.5h-35v-16Z"/></g><defs><clipPath id="clip0_356_176"><path fill="#fff" d="M0 0h420v420H0z"/></clipPath></defs></svg>