<svg xmlns="http://www.w3.org/2000/svg" width="512" height="512" fill="none"><g clip-path="url(#a)"><path fill="#fff" d="M0 0h512v512H0V0Z"/><path fill="#000" d="M400.463 326.701c10.249-4.204 20.463-8.468 30.715-12.663-.542 1.551-1.251 3.325-3.072 4.109-9.45 3.862-18.882 7.756-28.33 11.616-.623.266-1.241.556-1.92.697.623-1.063 1.21-2.138 1.81-3.207.128-.298.488-.418.797-.552Zm-31.915-14.615c2.207 1.432 4.213 3.068 5.62 4.831 2.605 3.399 3.276 7.807 1.66 11.63-.141.314-.437.547-.69.798.501-2.116.649-4.357-.135-6.436-1.075-3.021-3.508-5.557-6.756-7.041.055-1.321.221-2.654.301-3.782Zm-84.554-1.839c1.374-.985 3.281-1.08 5-1.078 1.726.102 3.551.167 5.073.948.72.71.036 1.549-.702 1.995-2.992 1.83-6.289 3.418-8.717 5.822-.659.621-.317 1.588.515 1.952 1.259.534 2.717.56 4.101.53 3.286-.152 6.442-1.205 9.192-2.707.766-.413 1.453-.928 2.245-1.311a34.599 34.599 0 0 1-5.702 4.73c-1.772 1.127-3.769 2.105-5.985 2.399-1.744.126-3.621.054-5.128-.781-1.677-.842-2.464-2.726-1.843-4.282.375-.874 1.07-1.614 1.8-2.295 1.884-1.692 4.187-2.986 6.486-4.234-1.558-.063-3.136-.135-4.683.025-1.011.087-1.691.73-2.408 1.251-.217-1.014-.222-2.218.756-2.964Zm-61.672-2.547c1.366-.566 3.251-.484 4.328.502.901.905.999 2.149.932 3.28-.722.816-1.555 1.567-2.16 2.456-1.267.199-2.597.024-3.835.34-.623.307-1.438.493-1.737 1.112-.39.798-.209 1.685-.043 2.511.643 2.887 1.833 5.723 1.772 8.696-.069 1.043-.151 2.125-.733 3.068-.135-1.653-.822-3.215-1.32-4.806-.94-2.897-1.685-5.869-1.795-8.881-.123-1.16.664-2.157 1.458-3.031 1.172-1.389 3.273-1.796 5.14-2.097-.485-.378-1.034-.815-1.752-.731-1.003.123-1.682.835-2.234 1.491-.1-1.447.368-3.157 1.979-3.91Zm89.436-.56a.427.427 0 0 1 .352-.089c-.531.515-.822 1.164-1.23 1.749-1.162 1.86-2.505 3.836-2.196 6.025.033 1.028.715 2.356 2.132 2.348.692-.292.871-1.041 1.218-1.58-.044 1.603-.322 3.551-2.099 4.468-1.476-.201-2.584-1.311-2.643-2.564-.301-3.788 1.571-7.525 4.466-10.357ZM47.033 285.796c.846-1.276 1.64-2.668 3.118-3.511-1.795 3.07-3.661 6.181-4.445 9.571-.26 1.296-.391 2.793.597 3.908.769.698 2.002.826 3.054.61 1.596-.299 2.339-1.714 2.998-2.837.505.838-.018 1.742-.25 2.577-.662 1.768-1.45 3.682-3.276 4.831-1.402.909-3.412.545-4.76-.255-1.777-1.177-1.818-3.312-1.507-5.041.703-3.499 2.518-6.746 4.471-9.853Zm130.115-13.695c.521-.84 1.543-1.835 2.796-1.415 1.507.385 3.299 1.397 3.059 2.916-.403.517-.922.961-1.378 1.443-.488-.783-1.035-1.785-2.179-1.951-1.488.413-2.379 1.679-2.849 2.884-.988 2.633-1.208 5.413-1.484 8.15-.36.162-.72.322-1.087.469.01-2.518-.636-5.192-2.63-7.144-.452-.647-1.456-.322-2.135-.634-1.266-.385-1.726-1.555-2.033-2.557-.153-.677-.426-1.491.108-2.094 1.121-.273 1.999.56 2.798 1.086 2.058 1.657 3.48 3.79 4.645 5.962.49-2.425 1.008-4.913 2.369-7.115Zm214.095-6.647c1.558-.454 3.197.143 4.471.904 2.127 1.333 3.787 3.144 5.068 5.089.685 1.127 1.466 2.363 1.19 3.674-.163.883-.245 1.83-.868 2.583-.689.723-1.984.649-2.852.219-.991-.476-1.935-1.019-2.972-1.422-1.402 3.228-4.356 5.771-7.558 7.787-2.168 1.407-4.546 2.562-6.953 3.641-1.486.68-3.131 1.043-4.724 1.485-1.591.383-3.21.887-4.89.746 1.06-.052 1.897-.634 2.791-1.049 4.657-2.296 9.22-4.765 13.364-7.692 2.201-1.614 4.451-3.295 5.934-5.445a43.073 43.073 0 0 0-2.885-.438c-.779-1.919-.787-4.266.893-5.854-.837-.545-.934-1.534-1.074-2.356-.12-.716.164-1.625 1.065-1.872Zm4.177 4.754c.317 1.421.411 2.871.437 4.316 1.312.16 2.617.601 3.955.474.682-.084.656-.844.278-1.205-1.243-1.452-2.969-2.545-4.67-3.585Zm-4.445 2.319c.671 1.054 2.193 1.322 3.437 1.66.255-.68.584-1.392.459-2.112-.449-.744-1.06-1.718-2.188-1.714-.976.424-1.361 1.35-1.708 2.166Zm-86.146-9.076c.773-.848 2.083-1.261 3.319-1.294.858-.006 1.274.775 1.471 1.37.373 1.404.439 2.931-.368 4.24.419.258.84.52 1.269.775a26.656 26.656 0 0 0-.212 2.706c-.853-.387-1.509-1.003-2.239-1.523-2.273 3.322-5.595 6.201-9.734 7.828a14.486 14.486 0 0 1-7.129 1.087c4.614-1.398 9.095-3.415 12.443-6.509a19.289 19.289 0 0 0 2.979-3.487c-.648-.587-1.424-1.089-1.93-1.775-.403-1.096-.699-2.407.131-3.418Zm1.266 1.082c.335.802.975 1.465 1.642 2.088.281-.695.648-1.45.237-2.164-.63-.104-1.264-.045-1.879.076Zm-258.794 8.693c9.259-4.926 18.556-9.807 27.832-14.708-.265 1.712-.957 3.691-2.903 4.548-8.587 4.511-17.195 8.996-25.769 13.523a4.47 4.47 0 0 1-.697.244c.547-1.192.963-2.427 1.537-3.607Zm193.836-26.023a17.571 17.571 0 0 1 2.418-2.456c-.663 1.276-.268 2.67.041 3.974.35 1.428.822 2.83 1.351 4.219.37 1.048 1.788 1.415 2.921 1.621.679.184 1.512-.244 1.249-.902-.626-1.697-1.425-3.343-2.339-4.94.324-1.071.692-2.131 1.003-3.204.429 0 .863.004 1.3.009.375 1.984 1.491 3.784 2.518 5.567.002 1.927-.133 3.937-.94 5.766-.539 1.296-2.341 1.698-3.797 1.594-1.933-.316-3.215-1.729-4.348-2.971-.565 1.63-2.161 2.893-4.05 3.404-1.599.497-3.442-.225-4.3-1.419-.94-1.325-1.118-2.923-1.075-4.438.084-2.166.58-4.691 2.873-5.991l.643.002c-.102.039-.311.115-.413.153a6.89 6.89 0 0 0-.243 7.103c.36.704 1.272 1.21 2.193 1.045 1.149-.235 2.059-.928 2.842-1.642.028-2.166.018-4.333.153-6.494Zm-182.674-4.524c2.079-.381 3.971.72 5.45 1.826 1.978 1.637 3.628 3.589 4.672 5.768.317.657.457 1.376.34 2.083-.151.939-.238 1.969-.943 2.75-.827.647-2.132.507-3.01.009a22.09 22.09 0 0 0-2.735-1.3c-1.425 3.195-4.336 5.722-7.51 7.739-2.492 1.597-5.208 2.938-8.017 4.091a62.22 62.22 0 0 1-6.16 1.645c-.831.192-1.697.173-2.55.153.5-.099 1.034-.132 1.491-.35 4.57-2.187 9.029-4.561 13.183-7.283 2.806-1.915 5.592-3.942 7.584-6.514-.968-.186-1.941-.362-2.93-.442-.778-1.923-.801-4.264.84-5.878-.79-.586-.906-1.551-1.049-2.378-.15-.801.333-1.751 1.344-1.919m3.881 4.788c.368 1.434.403 2.908.472 4.368 1.384.132 2.778.688 4.172.398.646-.307.192-1.01-.145-1.369-1.274-1.327-2.888-2.385-4.499-3.397Zm-3.399.616c-.454.572-.983 1.229-.911 1.95.804.856 2.163 1.213 3.39 1.402.12-.411.264-.814.358-1.227.337-.839-.429-1.592-1.042-2.177-.457-.469-1.399-.484-1.795.052Zm154.176-7.06c1.355.959 2.18 2.337 3.097 3.594 2.346 3.499 4.346 7.155 6.281 10.827 4.247 7.881 7.04 16.296 8.578 24.853.434 2.652.878 5.32.788 8.007.258 5.333 1.006 10.786 3.634 15.695 1.933 3.334 5.221 6.294 7.795 8.457 1.227.719 1.747.549 2.07.256.2-.182.121-2.521.53-3.62.582-1.804 1.915-3.341 3.332-4.74 1.586-1.472 3.381-2.822 5.5-3.711 4.244-1.824 8.643-3.375 13.086-4.812 3.345-1.051 6.746-1.984 10.224-2.661-14.926.089-29.854.192-44.781.337.745-3.072 1.504-6.142 2.272-9.21 1.583-1.761 3.575-3.208 5.541-4.647 8.559-5.985 18.44-10.413 28.448-14.38-1.172-1.555-2.801-3.005-3.059-4.915-.605-2.683.71-5.336 2.364-7.569.981-1.268 1.898-2.652 3.407-3.524 1.514-.89 3.563-.949 5.219-.316 5.549 2.111 11.273 5.827 15.504 9.165.424.363.968.677 1.233 1.151-.996 2.733-2.047 5.455-3.013 8.198-4.412.835-8.847 1.634-13.147 2.834.436 2.309 1.215 4.827.046 7.065-.409-.048-.963-.108-1.032-.533-.166-1.94-1.269-3.706-2.402-5.359-5.488 1.831-10.962 3.724-16.135 6.132-4.17 1.962-8.398 4.091-11.488 7.231 22.95.006 45.902.006 68.853 0-1.471 2.739-3.043 5.441-4.542 8.169-15.027 3.103-30.026 6.419-44.603 10.829-6.118 1.9-12.231 3.99-17.657 7.088-.561.364-.886 1.034-.477 1.579.843 1.097 2.38 1.55 3.669 2.175 2.804 1.315 5.911 2.031 8.965 2.8 2.188.547 4.377 1.092 6.562 1.646-.181 3.282-.212 6.573-.447 9.851-1.79 0-3.616-.268-5.416-.402-3.526-.355-7.106-.593-10.507-1.511-4.632-1.241-8.805-3.6-12.073-6.633-3.587-3.272-6.181-7.242-8.041-11.403-2.538-5.766-3.952-12.828-4.443-18.953-.224-.026-.278 1.193-.495 1.173-.636 2.701-1.384 5.097-2.449 7.702-.201.619-.738 1.091-1.21 1.571-3.416 3.362-7.06 6.558-10.869 9.598-3.899 3.079-7.964 6.025-12.356 8.592-4.619 2.685-9.616 5.099-15.142 6.114-2.97.521-6.345.621-8.947-.902-2.906-1.683-4.323-4.609-5.089-7.413-2.648 1.703-5.316 3.382-8.044 4.994-2.461 1.4-4.912 2.88-7.731 3.723-7.048 2.218-14.381 3.672-21.676 5.172-5.232 1.004-10.467 2.009-15.734 2.868 4.879-2.347 9.835-4.589 14.694-6.968 13.183-6.391 26.17-13.107 38.566-20.55 1.691-6.861 4.42-13.763 9.708-19.27l.268-.062c-.421.759-.623 1.592-1.057 2.347-3.187 4.73-5.451 9.957-6.253 15.372 5.643-3.477 11.15-7.122 16.334-11.086 3.201-2.432 6.209-5.046 8.957-7.85.756-.794 1.782-1.475 2.068-2.518.125-.679.055-1.097-.4-2.504-3.205-7.505-7.753-16.869-10.773-23.467 1.034-3.334 1.991-6.686 3.036-10.018 1.391.777 2.298 1.997 3.289 3.1 2.022 2.517 3.924 5.104 5.632 7.785.955 1.473 1.137 3.185 1.487 4.812-1.372-1.045-2.327-2.462-3.848-3.356.066.238.158.469.278.697 2.408 4.026 4.055 8.364 5.122 12.782.659 2.625.945 5.316.761 7.999-.138 2.908-.605 5.887-2.181 8.512-1.399 2.33-3.281 4.418-5.247 6.421-6.664 6.627-14.475 12.339-22.408 17.839.01.32.439.407.694.582 2.84 1.502 6.392 1.35 9.563.883 2.39-.47 4.851-.827 7.039-1.818 5.743-2.546 10.75-6.097 15.584-9.714 6.337-4.888 12.307-10.113 18.001-15.535a960.052 960.052 0 0 0-5.891-17.114c-1.092-2.973-2.109-5.971-3.416-8.881-2.168-3.838-4.251-7.722-6.141-11.662.763-3.01 1.723-5.987 2.538-8.99m57.76 15.481c-.695.233-1.277.882-.986 1.534.107.493.743.664 1.078 1.03a52.113 52.113 0 0 1 3.919 4.286c3.021-.931 6.088-1.738 9.136-2.592-2.27-1.837-4.79-3.585-7.819-4.416a8.894 8.894 0 0 0-5.328.158Zm66.824-3.955c9.302-4.881 18.553-9.83 27.868-14.691-.263 1.517-.776 3.178-2.247 4.178-9.019 4.766-18.088 9.468-27.104 14.243.385-1.273.993-2.486 1.483-3.73Zm-46.931-18.4c.86-.421 2.122-.391 2.704.379.802 1.026 1.016 2.367.582 3.544-.82 2.335-2.63 4.319-4.604 6.045-2.4 1.986-5.272 3.817-8.669 4.265.57-.597 1.402-.929 2.135-1.357 2.104-1.201 4.129-2.525 5.896-4.072.927-.909 1.93-1.891 2.096-3.135.064-1.043-1.052-1.934-2.19-2.107-1.66.249-2.694 1.464-3.915 2.319-.291-.755.488-1.285.947-1.839 1.463-1.506 2.937-3.122 5.018-4.042Zm-121.156-5.054c2.844-1.486 5.632-3.057 8.512-4.493-.283 1.534-.87 3.31-2.63 4.074-6.291 3.262-12.514 6.622-18.828 9.851.704-1.223 1.399-2.458 2.175-3.648 3.56-1.965 7.186-3.851 10.771-5.784Zm274.001-9.556c4.147 2.365 7.566 5.74 9.417 9.693 1.823 3.832 1.808 8.181.34 12.094-.199.453-.626.792-.983 1.156.638-2.657.858-5.446-.031-8.081-1.256-4.176-4.849-7.644-9.218-9.742.217-1.703.266-3.417.475-5.12Zm-99.924 1.716c.712-.738 1.407-1.489 2.188-2.175-.743 1.472-.176 3.07.177 4.561.4 1.365.786 2.744 1.394 4.055.758.841 2.088 1.27 3.314 1.237a.686.686 0 0 0 .643-.971c-.6-1.644-1.378-3.241-2.265-4.788.171-1.136.669-2.229 1.019-3.336.424.032.856.062 1.29.099.283 2.014 1.527 3.799 2.502 5.608-.041 1.456-.161 2.921-.493 4.353-.25.998-.687 2.153-1.877 2.603-1.013.333-2.201.519-3.225.117-1.503-.565-2.571-1.677-3.495-2.789-.585 1.573-2.071 2.819-3.894 3.371-1.499.584-3.322-.028-4.272-1.097-1.09-1.262-1.282-2.886-1.3-4.403.061-1.456.197-2.956.937-4.293.48-.898 1.223-1.78 2.365-2.116-1.522 2.132-1.691 4.864-.567 7.153.324.649.99 1.277 1.879 1.298 1.351-.058 2.4-.882 3.294-1.663-.021-1.859.077-3.713.079-5.572.064-.419-.086-.923.307-1.252ZM118.366 206.17c3.394 1.863 6.095 4.697 7.387 7.958 1.05 2.635.975 5.535.041 8.185-.125.431-.508.753-.85 1.069.689-2.501.615-5.212-.621-7.585-1.259-2.452-3.567-4.473-6.302-5.779.149-1.281.223-2.566.345-3.847v-.001Zm109.52-2.782c.768-.807 1.455-1.735 2.477-2.324-.674.868-.391 1.939-.23 2.895.378 1.785.94 3.542 1.604 5.266.209.721 1.085 1.028 1.807 1.305.654.208 1.44.4 2.104.123.419-.311.222-.843.074-1.229-.638-1.51-1.292-3.024-2.19-4.439l1.031-3.293c.45.03.899.056 1.356.08.207 2.027 1.522 3.797 2.469 5.616-.033 1.552-.166 3.116-.562 4.635-.224.896-.712 1.841-1.711 2.291-1.146.385-2.512.565-3.633.031-1.3-.632-2.339-1.595-3.153-2.647-.654 1.612-2.224 2.889-4.132 3.415-1.312.417-2.872-.028-3.769-.909-1.141-1.004-1.447-2.458-1.557-3.797-.09-1.722.074-3.499.868-5.102a4.598 4.598 0 0 1 2.342-2.202c-1.055 1.774-1.596 3.838-1.006 5.798.26 1.028.694 2.339 2.045 2.661 1.458.158 2.617-.781 3.557-1.594.176-2.19.066-4.393.209-6.58Zm112.909-2.774c4.911-1.8 9.821-3.617 14.844-5.175-.154.967-.567 2.07-1.678 2.531-7.131 2.579-14.291 5.115-21.272 7.979-1.387.649-2.812 1.316-3.892 2.315.771.721 1.926.991 2.967 1.316-.012.698-.01 1.397-.01 2.098-1.476-.303-2.954-.759-4.098-1.631.066-.993.046-1.993.207-2.979.166-.896 1.246-1.318 2.027-1.805 3.46-1.826 7.206-3.217 10.905-4.649Zm-220.961-8.71.201.171c-.444.478-.217 1.11-.145 1.659a18.317 18.317 0 0 0 1.069 3.488c.159.506.779.748 1.308.917.462.082 1.21.275 1.402-.249-.317-1.226-1.078-2.321-1.548-3.498.222-.679.327-1.409.707-2.038.256.004.516.013.777.028.255 1.32 1.064 2.482 1.646 3.7-.033 1.252-.079 2.553-.635 3.73-.348.796-1.453 1.008-2.342.997-1.3-.155-2.152-1.086-2.921-1.895-.495 1.181-1.762 2.105-3.238 2.268-1.241.054-2.293-.795-2.619-1.762-.432-1.278-.384-2.652-.034-3.94.274-.9.807-1.873 1.905-2.22-.865 1.24-1.08 2.766-.595 4.148.189.571.539 1.287 1.336 1.37.883.013 1.54-.559 2.17-1.002.164-1.415-.033-2.843.174-4.256.319-.608.958-1.058 1.382-1.616Zm40.69-2.439c.542.124.932.498 1.379.764 2.707 1.889 4.961 4.345 6.036 7.198 1.006 2.584.945 5.42.049 8.019-.123.45-.46.813-.756 1.19-.023-.048-.069-.145-.094-.193.653-2.401.556-4.987-.585-7.272-1.233-2.503-3.544-4.576-6.332-5.88.071-1.277.188-2.553.303-3.826Zm24.556-2.228c.687-1.417 2.487-2.607 4.364-2.335.937.171 1.593.87 1.928 1.595.656 1.493.753 3.12.523 4.691 1.152 1.168 2.403 2.351 2.885 3.866.894 1.993.095 4.12-.666 6.043-.973 2.544-2.822 4.855-3.166 7.56-.12.668.183 1.397.99 1.629 1.298-.325 1.499-1.631 1.765-2.584.406-.082 1.042-.119 1.182.316.222 1.203-.401 2.361-.904 3.458-.454.833-1.085 1.817-2.252 2.003-.932.145-1.645-.547-2.017-1.181-1.063-1.826-.728-3.992.16-5.816 1.384-2.905 3.213-5.831 3.044-9.055.005-1.369-.674-2.676-1.759-3.673-1.622 3.71-4.244 7.055-7.264 10.05-1.563 1.644-3.807 2.648-5.95 3.65-1.917.841-3.863 1.67-5.906 2.278 3.932-2.397 7.704-5.017 10.967-8.061 2.691-2.56 5.168-5.446 6.167-8.821l-.067-.191c-1.455-.796-3.204-1.499-3.963-2.905-.321-.801-.28-1.701-.061-2.517Zm1.458.407c-.375.206-.117.599.189.734.917.452 1.859.872 2.812 1.27-.024-.814.15-1.824-.69-2.404-.728-.515-1.724-.069-2.311.4Zm155.449-1.811c.49-.725 1.248-1.618 2.372-1.493 1.192.228 2.359.771 3.092 1.619.373.53.682 1.339.021 1.806-.348.288-.595.775-1.024.92-.6-.664-1.065-1.85-2.278-1.815-1.519.473-2.359 1.778-2.814 3.018-.942 2.557-1.134 5.253-1.43 7.901-.301.264-.707.411-1.07.6 0-2.685-.735-5.561-3.005-7.544-1.093-.115-2.392-.226-3.005-1.123-.746-1.145-1.282-2.558-.766-3.847 1.157-.193 2.094.543 2.88 1.153 2.079 1.616 3.422 3.756 4.635 5.883.513-2.415 1.028-4.886 2.392-7.078Zm-295.671.872c.633-.948 1.333-1.923 2.43-2.531-1.75 3.202-3.788 6.383-4.44 9.916-.204 1.155-.211 2.479.662 3.451.817.871 2.303.887 3.46.582 1.294-.44 1.897-1.617 2.502-2.597.27.007.327.277.457.439-.682 2.27-1.34 4.732-3.36 6.452-1.877 1.682-5.58.816-6.501-1.272-.669-1.501-.447-3.163-.054-4.695.966-3.448 2.794-6.675 4.844-9.745Zm176.107-3.598c3.365 1.949 6.125 4.762 7.412 8.068.638 1.735.873 3.585.625 5.394-.183 1.318-.431 2.685-1.302 3.819-.122-.346-.041-.701.036-1.045a9.799 9.799 0 0 0-1.514-7.722c-1.32-1.919-3.274-3.529-5.572-4.591.044-1.311.195-2.616.315-3.923Zm46.964-1.761c1.328.584 2.196 1.651 3.052 2.65 2.086 2.588 3.858 5.494 5.449 8.318.155.372.163.835.273 2.077-.96-.885-2.084-1.74-3.511-2-.253.474-.25.985-.036 1.469 1.854 4.819 3.95 9.57 5.746 14.405 1.143 3.153 2.147 6.391 2.185 9.71.08 3.081-.541 6.158-1.613 9.096-1.078 2.761-2.73 5.497-5.485 7.319-2.268 1.56-5.293 2.207-8.178 1.978-3.521-.223-6.856-1.662-9.3-3.799-1.305-1.054-2.364-2.298-3.358-3.566l.381-.076-.416.043c-2.206-3.15-3.843-6.588-4.788-10.165.085-.463-.957-.424-.853.037-1.345 5.217-3.493 10.362-7.047 14.806-2.076 2.553-4.762 4.831-8.095 6.179-3.631 1.452-7.908 1.547-11.73.617-3.841-.939-6.884-3.51-8.534-6.539-2.39-4.34-2.755-9.253-2.492-13.972.513-3.812 1.637-7.541 2.735-11.255.37-1.143.7-2.371.222-3.531l-.608-.268c-.513.283-1.042.562-1.442.96-2.814 2.631-4.413 5.993-5.689 9.328a51.55 51.55 0 0 0-2.224 8.202c-.672 4.388-1.701 8.828-4.083 12.804-1.292 2.114-3.233 4.31-6.156 4.794-2.71.308-5.605-.413-7.589-2.031-2.431-1.926-3.496-4.726-4.137-7.417-1.021-4.831-.705-9.784-.064-14.635a81.3 81.3 0 0 1 1.806-8.898c.25-.02.503-.035.76-.048-1.011 4.957-1.708 9.989-1.532 15.028.159 2.871.557 5.796 1.933 8.454.935 1.819 2.52 3.513 4.724 4.297 2.081.718 4.65.848 6.598-.223 2.015-1.121 2.959-3.122 3.708-4.977 1.473-4.104 2.124-8.372 3.281-12.542 1.213-4.232 2.956-8.349 5.096-12.309 1.226-2.308 2.577-4.578 4.31-6.647 1.54-1.841 2.955-3.862 5.14-5.214.164.006.485.022.649.028.401 1.387-.072 2.824-.143 4.228-.136 2.319-1.131 4.498-1.703 6.746-.71 2.57-1.318 5.162-1.926 7.752-.939 3.708-1.608 7.62-.426 11.35.894 2.925 3.276 5.507 6.493 6.839 2.092.933 4.438 1.407 6.793 1.478 3.309.283 6.769-.054 9.728-1.404 3.567-1.575 6.092-4.431 7.729-7.482a25.104 25.104 0 0 0 2.781-9.676c.036-6.605-.506-13.338-3.171-19.602-.34-.865-.784-1.763-.59-2.692.421-2.546 1.425-4.997 2.602-7.358.074-.27.457-.29.687-.428 1.258 3.187 2.481 6.395 3.245 9.699.963 4.295 1.517 8.646 2.086 12.986.452 3.099.585 6.245 1.502 9.282.76 2.521 1.945 4.987 3.807 7.075 2.262 2.663 5.658 4.641 9.434 5.396 3.233.636 6.685-.182 9.405-1.711 1.43-.827 2.913-2.22 2.438-3.797-4.527-10.092-8.25-20.425-11.949-30.747-.245-.853-.713-1.669-.789-2.545.48-2.73 1.608-5.348 2.88-7.877l-.001.001Zm-126.494 8.481c1.548-2.96 3.092-5.921 4.673-8.869 3.057 5.959 5.544 12.125 7.407 18.428.22 1.274-.224 2.555-.171 3.836-1.067-1.606-2.293-3.131-3.411-4.711.288 2.891.812 5.766 1.128 8.657 2.14 17.073 4.022 34.17 5.628 51.286 1.841-1.13 3.245-2.75 4.034-4.552 1.029-2.03 2.14-4.048 3.644-5.862.564-.651 1.31-1.486 2.403-1.285.618.03.912.593.973 1.05.273 1.607-1.162 2.994-.917 4.589.066 1.309 1.274 2.432 2.709 2.827 2.482.76 5.178.42 7.724.115 1.149-.214 2.584-.398 3.143-1.408a55.542 55.542 0 0 0-2.015-4.804c1.075-2.321 2.304-4.593 3.425-6.902.288-.545.482-1.146.957-1.605.815 2.64 1.019 5.379 1.348 8.083.34 4.373-.487 8.912-3.061 12.759-1.387 1.969-3.458 3.758-6.159 4.327-2.354.478-4.941.26-7.076-.735-2.471-1.193-4.167-3.287-5.048-5.544-1.338 2.605-3.097 5.068-5.337 7.186.261 3.379.552 6.756.751 10.139.148 3.771-.993 7.466-2.313 11.036-.641 1.534-1.272 3.077-2.063 4.561a88.722 88.722 0 0 1-27.5 24.823c-7.306 4.251-15.387 7.548-23.872 9.714-4.435 1.09-8.97 1.98-13.584 2.265-4.762.057-9.595-.465-14.047-1.945-4.177-1.38-7.826-3.894-10.167-7.144a291.224 291.224 0 0 1-24.776 1.134c7.38-2.242 14.685-4.663 21.867-7.328-1.917-7.926-.332-16.098 2.066-23.817 1.468-4.68 3.203-9.327 5.33-13.819 1.612-3.593 2.247-5.246 5.325-9.486-3.225 4.824-3.695 6.809-5.136 10.228-1.94 5.264-3.336 10.698-3.747 16.205-.406 6.054.107 12.41 3.437 17.889 8.852-3.508 17.47-7.45 25.733-11.872 7.006-3.803 13.776-7.953 19.927-12.711 2.916-2.285 5.75-4.669 8.145-7.36.707-.706.362-1.712.133-2.514-.534-1.348-1.139-2.675-1.755-3.994-4.187 1.436-8.648 2.421-13.19 2.403-2.477.061-5.025-.339-7.16-1.445-1.831-.956-3.19-2.527-3.74-4.288-.764-2.311-.432-4.749.025-7.08.725-3.373 2.191-6.746 4.976-9.298 1.956-1.783 4.545-3.155 7.416-3.514 3.245.013 6.301 1.354 8.617 3.217 2.949 2.369 4.962 5.441 6.509 8.594 2.888-1.426 5.664-3.114 7.814-5.305 2.109-1.859 4.279-3.756 6.973-5.005.672-.326 1.831-.688 2.278.076.487 1.134.023 2.38-.304 3.507-.868 1.644.181 3.514 1.478 4.771 1.806 1.726 4.773 1.893 7.288 1.506-2.635-22.945-5.314-45.888-7.951-68.833-.054-.77-.447-1.473-.784-2.177m-35.886 70.456c-1.292.472-2.908 1.17-3.1 2.488.304 1.002 1.693 1.311 2.738 1.525a31.47 31.47 0 0 0 10.203-.017c-.061-.102-.189-.303-.253-.405-1.749-1.678-3.978-3.124-6.628-3.548-.973-.123-2.007-.359-2.96-.043Zm21.988 9.372c.347 4.676-.427 9.403-2.165 13.845-.672 1.543-1.231 3.176-2.498 4.461-6.227 7.053-14.25 12.815-22.704 17.873-7.533 4.447-15.487 8.391-23.8 11.686 1.42.586 2.91 1.058 4.46 1.337 4.152.781 8.44.361 12.599-.147 13.022-1.653 25.284-6.469 35.844-13.051 7.002-4.364 13.38-9.446 18.946-15.104 1.861-1.999 4.152-3.953 4.606-6.584-.444-4.463-1.031-8.916-1.521-13.377-2.896.985-6.481 1.216-9.108-.428-3.19-2.04-4.402-5.522-4.905-8.737-2.751 3.131-5.986 5.97-9.754 8.226Zm159.419-86.18c.723-1.017 1.412-2.14 2.645-2.78-1.792 3.042-3.621 6.136-4.427 9.494-.314 1.452-.422 3.219.985 4.308.817.337 1.76.538 2.651.272 1.629-.309 2.39-1.746 3.025-2.91.177.468.294.952.105 1.433-.58 2.02-1.351 4.136-3.095 5.666-1.963 1.783-5.924.757-6.671-1.527-.657-2.073-.057-4.245.663-6.249 1.048-2.683 2.498-5.242 4.119-7.707Zm-206.903 5.697c1.742-2.86 3.414-5.749 5.112-8.626 2.758 6.103 4.941 12.395 6.455 18.803.1 1.166-.275 2.328-.398 3.488-1.246-1.428-1.994-3.148-3.263-4.574.692 4.814.94 9.667 1.391 14.5.504 6.251.978 12.504 1.45 18.757 3.782-.537 7.18-2.43 9.464-5.014 3.434-3.868 4.958-8.736 5.39-13.5-.028-6.121-.414-12.348-2.684-18.207-.4-1.198-1.138-2.358-1.123-3.628.271-2.361 1.202-4.624 2.188-6.829.25-.514.414-1.17 1.149-1.324 1.121 2.936 2.28 5.87 3.026 8.895 1.157 4.738 1.716 9.563 2.359 14.366.429 2.908.557 5.864 1.425 8.713 1.126 3.832 3.409 7.566 7.168 10.002 2.826 1.818 6.437 3.062 10.032 2.579 2.535-.387 5.102-1.242 6.876-2.882.802-.727 1.354-1.791 1.012-2.786-3.631-7.922-6.596-16.046-9.593-24.15-1.024-2.82-2.03-5.645-3.034-8.469-.286-.716.087-1.454.225-2.161.631-2.159 1.448-4.299 2.576-6.307 1.229.5 2.025 1.489 2.827 2.382 2.418 2.952 4.346 6.167 6.118 9.423a29.34 29.34 0 0 0-.233 1.252c-.898-.945-2.052-1.793-3.498-2.033-.229.463-.219.969-.02 1.439 1.609 4.121 3.324 8.213 4.961 12.325 1.392 3.668 3.064 8.999 2.97 11.277-.293 3.2-.823 7.442-1.964 10.424-1.257 2.651-3.444 5.816-6.424 7.272-2.556 1.303-5.712 1.504-8.592 1.023-3.792-.642-7.045-2.719-9.374-5.277-3.274-3.604-5.283-7.936-6.473-12.34-.179.004-.536.017-.715.023-1.113 4.432-2.806 8.796-5.421 12.761-2.344 3.546-5.584 6.898-10.053 8.59.782 10.971 1.599 21.941 2.158 32.923.082 5.415-.176 10.829-.493 16.238-.005.735-.368 1.417-.638 2.105a168.62 168.62 0 0 1-2.788 7.001 3.845 3.845 0 0 1-.647 1.099c-.127-10.34-1.161-20.654-1.986-30.965a12236.66 12236.66 0 0 1-2.224-27.242c-3.577-.067-7.262-.954-9.902-3.083-3.077-2.399-4.647-5.859-5.398-9.273-.664-3.025-.804-6.125-.526-9.187.613-3.998 1.82-7.908 2.972-11.815.159-.699.274-1.432.087-2.136-.071-.255-.14-.558-.49-.629-.536-.059-.934.281-1.297.556-2.007 1.644-3.32 3.771-4.466 5.9-2.173 4.398-3.452 9.087-4.15 13.81-.576 3.114-1.419 6.214-2.798 9.15-1.095 2.181-2.461 4.426-4.836 5.794-2.027 1.183-4.708 1.038-6.927.359-2.809-.883-4.808-3.016-5.87-5.327-1.846-3.972-1.966-8.321-1.854-12.533.263-4.938 1.09-9.849 2.365-14.669.24-.044.482-.085.722-.124-1.031 5.53-1.871 11.139-1.384 16.745.238 2.429.748 4.883 1.974 7.107 1.042 1.9 2.87 3.607 5.29 4.228 2.059.536 4.497.493 6.249-.68 1.905-1.291 2.806-3.31 3.503-5.227 1.64-4.857 2.255-9.918 3.953-14.762 1.647-4.749 3.886-9.355 6.656-13.713 1.607-2.259 3.343-4.468 5.36-6.48.597-.528 1.197-1.279 2.147-1.287.521.283.335.904.348 1.348-.266 2.185-.291 4.42-1.063 6.533-1.41 4.338-2.359 8.772-3.393 13.181-.718 3.434-.91 7.101.64 10.394 1.142 2.512 3.517 4.55 6.382 5.684 1.557.623 3.24 1.004 4.943 1.211-.94-12.25-2.007-24.493-2.98-36.744-.222-1.906-.074-3.872-.95-5.677Zm379.307.047c1.535-3.085 2.955-6.207 4.507-9.286 2.38 6.644 4.704 13.309 6.644 20.054.291 1.162.671 2.315.815 3.499-.202.936-.539 1.856-.567 2.819a528.94 528.94 0 0 0-2.561-4.141c1.082 17.259 2.389 34.509 3.85 51.751.452 5.545 1.113 11.079 1.353 16.636.439 10.292.016 20.807-3.674 30.701-1.387 3.576-3.151 7.062-5.393 10.316-3.013 4.206-7.486 7.523-12.407 10.071-8.763 4.468-18.793 6.792-28.807 8.226-.567.176-.797-.383-1.119-.636 8.934-3.646 17.524-7.93 25.542-12.88 4.009-2.544 7.933-5.225 11.306-8.375 3.866-3.689 6.782-8.131 8.107-12.951 1.453-4.847.953-9.89.634-14.823-.838-11.372-1.874-22.733-2.758-34.103-1.361-17.521-2.732-35.044-4.096-52.564-.288-1.231-1.195-2.287-1.613-3.486-.113-.294.148-.558.237-.828Zm-22.63 3.008c5.222-4.645 10.285-9.418 15.303-14.226.222 4.321-2.401 8.293-5.329 11.668-1.568 1.963-3.779 3.432-5.768 5.063a88.032 88.032 0 0 0-2.791 2.246c.263 1.155.664 2.293.812 3.466-.077 1.088-.284 2.17-.437 3.254-1.126-1.497-1.93-3.168-3.217-4.57.567 4.901.842 9.823 1.228 14.737a4542.044 4542.044 0 0 1 2.796 43.289c-.051.372.335.608.582.872 3.715 3.501 7.415 7.014 10.893 10.688 2.732 3.081 5.318 6.265 7.512 9.647 2.872 4.427 5.147 9.222 5.819 14.276.365 3.178.184 6.458-1.037 9.502-2.151-8.341-6.109-15.924-10.722-21.184-3.881-4.48-8.126-8.87-12.412-13.077.299 5.145.598 10.292.83 15.44.228 6.64-.061 13.282-.393 19.916.002 1.257-.666 2.406-1.011 3.607-.999 2.696-1.803 5.456-3.082 8.07-.204-6.128-.449-12.261-.886-18.382-.784-10.963-1.609-21.922-2.349-32.885-.11-.863-.054-1.743-.248-2.592-2.819-2.793-5.863-5.42-8.807-8.115-5.186-4.592-10.425-9.139-15.864-13.514 1.031 11.452 2.099 22.901 3.064 34.358.413 5.201.96 10.402 1.018 15.619.075 4.537.021 9.076-.099 13.611.015 2.863.061 5.82-1.136 8.542-1.772 3.371-4.951 6.186-8.784 7.923-2.993 1.346-6.376 2.062-9.761 2.086-2.286.043-4.558-.472-6.578-1.357-3.536-1.69-6.059-4.572-7.683-7.674-1.113-2.136-1.913-4.393-2.344-6.701-.25-1.01-.516-2.179-1.581-2.81-.847-.485-1.861-.098-2.681.227-1.994.9-3.914 1.986-5.357 3.481-4.698 4.79-6.933 10.904-8.332 16.922-.684 2.596-1.769 5.177-3.674 7.321-1.381 1.527-3.354 2.99-5.689 3.029-1.829.03-3.593-.63-5.224-1.313-3.611-1.614-6.115-4.574-7.607-7.733-.398-.844-.885-1.546-1.667-4.537-.843-3.226-1.134-8.124-.807-13.109.158-.483-.432-.658-.756-.926-1.287-.935-1.813-2.419-1.795-3.817-.036-5.13.843-10.348 3.391-15.041 2.066-3.871 5.16-7.251 8.173-10.617.284-.364.784-.654.922-1.078-1.877-1.815-3.858-3.554-5.86-5.27-1.141-1.119-2.53-2.027-3.654-3.157-4.223-3.879-8.375-7.812-12.524-11.748.395 5.757.697 11.519 1.036 17.28.258 5.335.695 10.668.605 16.01.018 4.762-.234 9.52-.464 14.276-.013 1.185-.577 2.289-.935 3.418-1.006 2.785-1.915 5.602-3.135 8.328-.228-2.254-.09-4.524-.258-6.78-.462-11.257-1.502-22.489-2.24-33.733-.628-8.602-1.182-17.212-1.851-25.81-2.765-2.908-5.684-5.723-8.418-8.658-3.202-3.423-6.402-6.87-9.083-10.607-3.848-5.867-8.168-11.564-13.502-16.549-.304-.242-.209-.604-.207-.913.184-3.226.33-6.452.519-9.678 3.797 2.095 7.417 4.416 10.898 6.876 2.696 1.971 5.263 4.085 7.446 6.476 1.126 1.129 2.165 2.57 1.787 4.113-1.282-.431-2.607-.775-3.82-1.333a5.266 5.266 0 0 0-1.565-.441c-.079.902.646 1.614 1.19 2.324 3.955 4.909 8.082 9.714 12.315 14.453.544.608 1.144 1.187 1.562 1.871-.268-5.556-.768-11.106-1.123-16.659-.6-8.577-1.216-17.151-1.816-25.728-.109-1.281-.035-2.602-.643-3.808-.294-.48.14-.919.38-1.335a285.253 285.253 0 0 0 4.237-7.198c.066-.169.385-.604.482-.186a103.072 103.072 0 0 1 6.146 17.724c.462 1.443-.107 2.914-.278 4.357-.975-1.633-2.081-3.206-3.164-4.79 1.387 15.061 2.191 30.159 3.23 45.236.702 1 1.78 1.792 2.638 2.705 8.286 8.096 16.888 15.952 25.486 23.808a2136.715 2136.715 0 0 1 19.316-17.917c.281-.221.472-.491.373-.826-1.949-18.748-3.899-37.498-5.85-56.245-.248-1.895-.182-3.847-1.022-5.647 1.596-2.906 3.345-5.753 4.931-8.665.868 1.529 1.466 3.163 2.15 4.76 1.609 3.978 3 8.022 4.101 12.122.229.924.607 1.856.457 2.813-.115.863-.256 1.724-.365 2.589-1.068-1.527-2.092-3.076-3.167-4.599 1.526 15.099 3.075 34.112 4.461 48.122 6.713-6.043 13.372-12.131 20.116-18.148.741-.714 1.583-1.352 2.265-2.11-3.281-3.736-6.343-7.607-9.397-11.477-1.062-1.275-1.887-2.672-2.901-3.973-2.134-2.804-4.315-5.64-7.246-7.901-.256-3.644-.394-7.296-.577-10.946 6.884 5.097 13.878 10.095 20.567 15.379a5.422 5.422 0 0 1 1.509 1.75c-.602-5.701-1.154-11.404-1.723-17.107-.069-.524-.049-1.069-.307-1.558-.171-.502-.643-1.039-.26-1.551 1.583-2.759 3.077-5.554 4.642-8.321 2.74 5.495 4.875 11.203 6.565 16.992.174.814.593 1.612.465 2.452-.125.926-.199 1.856-.324 2.782-.968-1.363-1.936-2.726-2.893-4.091a9.425 9.425 0 0 1-.463-.654c.874 6.524 1.451 13.072 2.133 19.611 5.043-4.535 10.221-8.959 15.438-13.353 2.323-1.863 4.734-3.65 6.96-5.6-.21-2.531-.33-5.067-.564-7.596-.044-.803-.915-1.612-.304-2.38 1.647-2.653 3.207-5.346 4.744-8.049 1.8 3.506 3.016 7.21 4.318 10.864m-30.038 31.779c.079 1.024.181 2.047.291 3.068a152.18 152.18 0 0 0 5.035 5.067c6.601 6.314 13.429 12.452 20.126 18.69-1.037-15.429-2.201-30.855-3.23-46.286a764.358 764.358 0 0 0-22.222 19.461Zm-14.256-13.994c2.117 2.804 4.32 5.567 6.669 8.235-.189-2.473-.472-4.944-.728-7.413-.127.219-.265.437-.372.66-1.596-.986-3.544-1.761-5.569-1.482Zm-13.569 39.91c-1.369 1.365-2.893 2.624-4.18 4.043.304 4.375.962 8.739 1.368 13.112.2 7.228-1.218 14.9-6.462 20.816.15-.941.079-1.893.092-2.841-.008-3.243.153-6.486.135-9.732-.017-3.109.049-2.896-.094-9.327-.06-2.686-.452-4.816-.708-6.705-1.83 1.64-3.574 3.349-5.4 4.993-3.593 3.402-7.412 6.621-11.094 9.951 3.74 3.414 6.087 7.908 6.692 12.531.61 4.918-.835 10.148-4.645 13.971-3.36 3.351-8.18 5.467-13.188 6.441-2.349.441-4.859.744-7.19.078a65.977 65.977 0 0 0 1.144 6.16c.837 3.435 1.927 6.904 4.09 9.931 1.157 1.547 2.743 3.046 4.923 3.5 2.331.481 4.703-.51 6.343-1.869 1.461-1.11 2.137-2.72 2.753-4.252 1.851-4.511 2.476-9.357 4.925-13.695 1.719-3.442 3.902-6.783 7.053-9.435 1.634-1.441 3.513-2.67 5.482-3.765 1.356-.688 2.998-1.262 4.593-.859 1.52.379 2.544 1.515 3.246 2.659 1.598 2.577 2.014 5.524 3.309 8.202.947 2.214 2.203 4.462 4.435 5.955 2.255 1.508 5.227 1.971 8.038 1.869 4.908-.177 12.979-3.567 13.388-4.524.424-.993-.697-8.515-1.134-12.768-2.136-20.776-4.18-41.558-6.268-62.335-.072-.571-.677-.959-.976-1.443-7.014 6.349-13.814 12.866-20.67 19.338m-31.978 29.808c-1.468 1.436-2.855 2.936-4.236 4.433-2.628 3.003-5.258 6.041-7.203 9.407-.491.855-.938 1.922-.373 2.83.666.931 2.091 1.069 3.26 1.071 5.163-.175 9.979-2.133 14.172-4.578 1.402-.586 2.719-1.884 2.191-3.293-.695-1.893-2.01-3.563-3.297-5.201a69.138 69.138 0 0 0-4.241-4.687l-.273.018Z"/></g><defs><clipPath id="a"><path fill="#fff" d="M0 0h512v512H0z"/></clipPath></defs></svg>