<svg width="600" height="600" viewBox="0 0 600 600" fill="none" xmlns="http://www.w3.org/2000/svg">
<g clip-path="url(#clip0_248_34971)">
<path d="M0 0H600V600H0V0Z" fill="white"/>
<path d="M600 0V600H0L600 0Z" fill="#003087"/>
<path d="M0 250V0H250L0 250Z" fill="#FFD700"/>
<path d="M168.5 150L233.452 262.5L168.5 375L103.548 262.5L168.5 150ZM281 262.5L168.5 327.452L56 262.5L168.5 197.548L281 262.5Z" fill="#101820"/>
<path d="M168.5 359.928C222.308 359.928 265.928 316.308 265.928 262.5C265.928 208.692 222.308 165.072 168.5 165.072C114.692 165.072 71.0723 208.692 71.0723 262.5C71.0723 316.308 114.692 359.928 168.5 359.928Z" fill="#101820"/>
<path d="M168.5 346.875C215.099 346.875 252.875 309.099 252.875 262.5C252.875 215.901 215.099 178.125 168.5 178.125C121.901 178.125 84.125 215.901 84.125 262.5C84.125 309.099 121.901 346.875 168.5 346.875Z" fill="white"/>
<path d="M168.5 318.75L119.786 234.375H217.214L168.5 318.75ZM168.5 206.25L217.214 290.625H119.786L168.5 206.25Z" fill="#D50032"/>
</g>
<defs>
<clipPath id="clip0_248_34971">
<rect width="600" height="600" fill="white"/>
</clipPath>
</defs>
</svg>
