<svg xmlns="http://www.w3.org/2000/svg" width="300" height="300" fill="none"><g clip-path="url(#a)"><path fill="#0F204B" d="M492 378h-685V-79h685z"/><path fill="#FFB612" d="m263.244 57-4.434 13.645 6.823 2.217z"/><path fill="#FFB612" d="m263.244 57 4.434 13.645-6.823 2.217z"/><path fill="#FFB612" d="M276.893 66.915h-14.348v7.173z"/><path fill="#FFB612" d="m276.891 66.914-11.608 8.434-4.217-5.804z"/><path fill="#FFB612" d="m249.6 66.914 11.607 8.434 4.217-5.804z"/><path fill="#FFB612" d="M249.6 66.915h14.347v7.173z"/><path fill="#FFB612" d="m271.68 82.956-4.434-13.645-6.823 2.217z"/><path fill="#FFB612" d="m271.68 82.956-11.608-8.433 4.217-5.804z"/><path fill="#FFB612" d="m254.812 82.956 11.608-8.433-4.217-5.804z"/><path fill="#FFB612" d="m254.812 82.956 4.434-13.645 6.823 2.217zM31.393 115.649l-2.644 8.135 4.068 1.322z"/><path fill="#FFB612" d="m31.39 115.649 2.644 8.135-4.068 1.322z"/><path fill="#FFB612" d="M39.527 121.56h-8.553v4.277z"/><path fill="#FFB612" d="m39.527 121.56-6.92 5.028-2.513-3.46z"/><path fill="#FFB612" d="m23.256 121.56 6.92 5.028 2.514-3.46z"/><path fill="#FFB612" d="M23.256 121.56h8.553v4.277z"/><path fill="#FFB612" d="m36.42 131.124-2.643-8.135-4.068 1.321z"/><path fill="#FFB612" d="m36.42 131.124-6.92-5.028 2.514-3.46z"/><path fill="#FFB612" d="m26.365 131.124 6.92-5.028-2.514-3.46z"/><path fill="#FFB612" d="m26.365 131.124 2.643-8.135 4.068 1.321zm46.707-.001-2.643 8.135 4.067 1.322z"/><path fill="#FFB612" d="m73.072 131.123 2.644 8.135-4.068 1.322z"/><path fill="#FFB612" d="M81.207 137.034h-8.553v4.276z"/><path fill="#FFB612" d="m81.207 137.034-6.92 5.027-2.514-3.46z"/><path fill="#FFB612" d="m64.938 137.034 6.92 5.027 2.513-3.46z"/><path fill="#FFB612" d="M64.938 137.034h8.553v4.276z"/><path fill="#FFB612" d="m78.1 146.597-2.644-8.135-4.067 1.322z"/><path fill="#FFB612" d="m78.1 146.597-6.92-5.028 2.513-3.46z"/><path fill="#FFB612" d="m68.043 146.597 6.92-5.027-2.514-3.46z"/><path fill="#FFB612" d="m68.043 146.597 2.643-8.135 4.068 1.322zm25.742 6.738-2.643 8.135 4.067 1.321z"/><path fill="#FFB612" d="m93.785 153.335 2.643 8.135-4.067 1.321z"/><path fill="#FFB612" d="M101.918 159.245h-8.554v4.277z"/><path fill="#FFB612" d="m101.918 159.245-6.92 5.028-2.514-3.46z"/><path fill="#FFB612" d="m85.65 159.245 6.92 5.028 2.514-3.46z"/><path fill="#FFB612" d="M85.65 159.245h8.554v4.277z"/><path fill="#FFB612" d="m98.813 168.809-2.644-8.135-4.067 1.322z"/><path fill="#FFB612" d="m98.813 168.809-6.92-5.028 2.513-3.46z"/><path fill="#FFB612" d="m88.756 168.809 6.92-5.028-2.514-3.46z"/><path fill="#FFB612" d="m88.756 168.809 2.643-8.135 4.067 1.322zm25.994 7.736-2.643 8.135 4.067 1.322z"/><path fill="#FFB612" d="m114.75 176.545 2.643 8.135-4.067 1.322z"/><path fill="#FFB612" d="M122.885 182.456h-8.554v4.276z"/><path fill="#FFB612" d="m122.885 182.456-6.92 5.027-2.514-3.46z"/><path fill="#FFB612" d="m106.615 182.456 6.92 5.027 2.514-3.46z"/><path fill="#FFB612" d="M106.615 182.456h8.554v4.277z"/><path fill="#FFB612" d="m119.777 192.019-2.643-8.134-4.067 1.321z"/><path fill="#FFB612" d="m119.777 192.019-6.92-5.027 2.514-3.46z"/><path fill="#FFB612" d="m109.721 192.019 6.92-5.027-2.514-3.46z"/><path fill="#FFB612" d="m109.721 192.019 2.643-8.135 4.067 1.322zm67.422 6.738-2.644 8.135 4.068 1.322z"/><path fill="#FFB612" d="m177.143 198.757 2.643 8.135-4.068 1.322z"/><path fill="#FFB612" d="M185.279 204.668h-8.553v4.276z"/><path fill="#FFB612" d="m185.279 204.668-6.92 5.027-2.513-3.46z"/><path fill="#FFB612" d="m169.008 204.667 6.92 5.028 2.514-3.46z"/><path fill="#FFB612" d="M169.008 204.668h8.553v4.276z"/><path fill="#FFB612" d="m182.17 214.231-2.643-8.135-4.068 1.322z"/><path fill="#FFB612" d="m182.17 214.231-6.92-5.027 2.514-3.46z"/><path fill="#FFB612" d="m172.113 214.231 6.92-5.028-2.514-3.46z"/><path fill="#FFB612" d="m172.113 214.231 2.643-8.135 4.068 1.322zm-60.109-4.992-2.643 8.135 4.067 1.322z"/><path fill="#FFB612" d="m112.004 209.239 2.643 8.135-4.067 1.322z"/><path fill="#FFB612" d="M120.139 215.15h-8.554v4.277z"/><path fill="#FFB612" d="m120.137 215.15-6.92 5.027-2.514-3.46z"/><path fill="#FFB612" d="m103.869 215.15 6.92 5.028 2.514-3.46z"/><path fill="#FFB612" d="M103.869 215.15h8.554v4.277z"/><path fill="#FFB612" d="m117.031 224.713-2.643-8.135-4.067 1.322z"/><path fill="#FFB612" d="m117.031 224.713-6.92-5.028 2.514-3.459z"/><path fill="#FFB612" d="m106.975 224.713 6.92-5.027-2.514-3.46z"/><path fill="#FFB612" d="m106.975 224.713 2.643-8.135 4.067 1.322zm51.949 0-2.643 8.135 4.067 1.321z"/><path fill="#FFB612" d="m158.924 224.713 2.643 8.135-4.067 1.321z"/><path fill="#FFB612" d="M167.061 230.623h-8.554v4.277z"/><path fill="#FFB612" d="m167.061 230.623-6.92 5.028-2.514-3.46z"/><path fill="#FFB612" d="m150.789 230.623 6.92 5.028 2.514-3.46z"/><path fill="#FFB612" d="M150.789 230.623h8.554v4.277z"/><path fill="#FFB612" d="m163.951 240.187-2.643-8.135-4.067 1.321z"/><path fill="#FFB612" d="m163.951 240.187-6.92-5.028 2.514-3.46z"/><path fill="#FFB612" d="m153.896 240.186 6.92-5.027-2.513-3.46z"/><path fill="#FFB612" d="m153.896 240.186 2.644-8.134 4.067 1.321z"/></g><defs><clipPath id="a"><path fill="#fff" d="M0 0h300v300H0z"/></clipPath></defs></svg>