<svg xmlns="http://www.w3.org/2000/svg" width="300" height="300" fill="none"><g clip-path="url(#a)"><mask id="b" width="300" height="300" x="0" y="0" maskUnits="userSpaceOnUse" style="mask-type:alpha"><path fill="#0F204B" d="M0 0h300v300H0z"/></mask><g fill="#BF0A30" mask="url(#b)"><path d="M0 0h300v300H0z"/><path d="M0 0h300v300H0z"/></g><path fill="#002868" d="M11 149.137 149.923 243 290 148.955 149.923 57z"/><path fill="#fff" d="m45.596 149.351 104.47 70.585 105.338-70.722-105.338-69.15z"/><path fill="#002868" d="M93.342 146.29h5.83l1.012 3.256h3.586l-5.565-15.794h-3.807l-5.63 15.794h3.475zm2.904-8.975h.044l1.958 6.248h-4.025zm9.65 12.231h3.233v-6.181h3.409q1.763-.015 2.203.687t.371 2.305q.001 1.197.094 1.924.092.728.258 1.265h3.651v-.418q-.506-.154-.616-.806t-.087-2.34q-.005-2.13-.515-2.892t-1.488-1.111q1.178-.419 1.807-1.427t.635-2.335q.025-.725-.355-1.763t-1.46-1.847q-1.08-.81-3.156-.855h-7.985v15.794zm3.233-8.843v-4.223h4.113q1.415.05 1.881.72t.429 1.348q0 1.16-.633 1.663t-1.919.492zm16.204 3.497 1.54-1.583 4.883 6.929h4.245l-6.819-9.327 6.445-6.467h-4.267l-6.027 6.423v-6.423h-3.3v15.794h3.3zm15.698 2.09h5.829l1.012 3.256h3.586l-5.565-15.794h-3.806l-5.631 15.794h3.475zm2.903-8.975h.045l1.957 6.248h-4.025zm19.284 7.435h-.044l-6.269-10.998h-3.476v15.794h3.081v-11.263h.043l6.445 11.263h3.3v-15.794h-3.081zm5.448-.065q-.034 1.022.47 2.239.506 1.216 1.971 2.106t4.312.933q.77.037 2.23-.284t2.689-1.433 1.306-3.452q-.055-2.077-1.26-2.988-1.203-.911-2.876-1.257l-3.849-.945a3 3 0 0 1-1.084-.421q-.545-.333-.587-1.229.053-1.058.904-1.482a3.9 3.9 0 0 1 1.845-.409q2.085.082 2.664.922.58.842.569 1.452h3.168q.01-1.008-.531-2.182-.542-1.175-1.885-2.028-1.345-.852-3.743-.893-2.533.041-3.852.869-1.32.829-1.784 1.95-.465 1.121-.435 2.043.073 2.515 1.551 3.4 1.476.887 3.464 1.241l1.694.396q1.275.267 2.056.665.781.399.804 1.293-.06 1.224-1.065 1.649-1.003.424-2.236.396-2.098-.077-2.743-.946-.647-.869-.599-1.605zm18.85 1.605h5.83l1.012 3.256h3.585l-5.565-15.794h-3.806l-5.631 15.794h3.476zm2.904-8.975h.044l1.957 6.248h-4.025zm8.835 7.37q-.036 1.022.471 2.239.504 1.216 1.97 2.106t4.312.933q.77.037 2.23-.284t2.689-1.433 1.306-3.452q-.057-2.077-1.259-2.988-1.203-.911-2.876-1.257l-3.85-.945a3 3 0 0 1-1.083-.421q-.547-.333-.588-1.229.054-1.058.904-1.482a3.9 3.9 0 0 1 1.845-.409q2.085.082 2.664.922.58.842.57 1.452h3.167q.01-1.008-.531-2.182-.542-1.175-1.886-2.028-1.342-.852-3.742-.893-2.533.041-3.852.869-1.319.829-1.784 1.95t-.435 2.043q.074 2.515 1.551 3.4 1.476.887 3.464 1.241l1.694.396q1.276.267 2.057.665.782.399.803 1.293-.06 1.224-1.064 1.649-1.005.424-2.236.396-2.099-.077-2.744-.946-.647-.869-.599-1.605z"/><path fill="#fff" d="m153.836 75.586-4.108-2.976-4.1 2.99 1.558-4.83-4.108-2.978 5.07-.01 1.563-4.83 1.576 4.824 5.072-.007-4.097 2.99z"/><path fill="#002868" d="m157.913 179.76-7.413 5.268-7.422-5.264 2.835 8.521-7.415 5.274 9.165-.002 2.84 8.523 2.83-8.522 9.169-.007-7.416-5.264zm-24.003 0-7.414-5.268-7.423 5.263 2.835-8.521-7.414-5.273 9.165.002 2.84-8.523 2.83 8.522 9.17.006-7.417 5.265z"/><path fill="#fff" d="m143.79 219.595-2.976 4.107 2.99 4.1-4.829-1.558-2.979 4.108-.009-5.07-4.831-1.562 4.824-1.576-.007-5.072 2.991 4.097zm12.675 0 2.976 4.107-2.99 4.1 4.829-1.558 2.979 4.108.009-5.07 4.831-1.562-4.824-1.576.008-5.072-2.991 4.097z"/><path fill="#002868" d="m181.917 179.76-7.414-5.268-7.422 5.263 2.835-8.521-7.414-5.273 9.165.002 2.84-8.523 2.83 8.522 9.169.006-7.416 5.265zm-24.004-63.24-7.413-5.268-7.423 5.263 2.835-8.521-7.414-5.273 9.165.002 2.84-8.523 2.83 8.522 9.169.006-7.416 5.265z"/><path fill="#fff" d="m256.489 131.059-2.976 4.107 2.99 4.1-4.829-1.558-2.979 4.108-.009-5.07-4.831-1.562 4.825-1.576-.008-5.072 2.991 4.097zm-20.088-13.393-2.976 4.108 2.991 4.1-4.83-1.558-2.979 4.108-.009-5.07-4.83-1.562 4.824-1.576-.008-5.072 2.991 4.097zm-20.087-13.392-2.976 4.108 2.99 4.1-4.83-1.558-2.979 4.108-.009-5.07-4.83-1.562 4.824-1.576-.008-5.072 2.991 4.097zm-20.088-12.647-2.976 4.107 2.99 4.1-4.83-1.558-2.978 4.108-.009-5.07-4.831-1.562 4.824-1.576-.008-5.072 2.991 4.097zm-20.088-13.392-2.976 4.107 2.99 4.1-4.829-1.558-2.979 4.108-.009-5.07-4.831-1.562 4.824-1.576-.007-5.072 2.99 4.097zM54.509 158.587l-2.976 4.107 2.99 4.1-4.83-1.558-2.978 4.108-.01-5.07-4.83-1.562 4.824-1.576-.007-5.072 2.99 4.097zm17.857 11.904-2.976 4.107 2.99 4.1-4.829-1.558-2.979 4.108-.009-5.07-4.83-1.562 4.824-1.576-.008-5.072 2.991 4.097zm17.856 11.903-2.976 4.108 2.99 4.1-4.83-1.558-2.978 4.108-.01-5.07-4.83-1.562 4.824-1.576-.008-5.072 2.991 4.097zm17.855 12.649-2.976 4.107 2.99 4.1-4.829-1.558-2.979 4.108-.009-5.07-4.83-1.562 4.823-1.576-.007-5.072 2.991 4.097zm17.856 11.903-2.976 4.108 2.99 4.1-4.829-1.558-2.979 4.108-.009-5.07-4.831-1.562 4.824-1.576-.008-5.072 2.991 4.097zm-89.28-61.063-2.976 4.107 2.99 4.1-4.829-1.558-2.979 4.108-.009-5.07-4.83-1.562 4.824-1.576-.008-5.072 2.991 4.097zm7.469-14.824 2.976 4.107-2.99 4.1 4.829-1.558 2.979 4.108.009-5.07 4.83-1.562-4.824-1.576.008-5.072-2.991 4.097zm20.088-13.393 2.975 4.108-2.99 4.1 4.83-1.558 2.979 4.108.008-5.07 4.831-1.562-4.824-1.576.008-5.072-2.991 4.097zm20.087-13.392 2.976 4.108-2.99 4.1 4.83-1.558 2.978 4.108.01-5.07 4.83-1.562-4.824-1.576.008-5.072-2.991 4.097zm20.088-12.647 2.976 4.107-2.99 4.1 4.829-1.558 2.979 4.108.009-5.07 4.831-1.562-4.824-1.576.007-5.072-2.99 4.097zm20.09-13.392 2.976 4.107-2.99 4.1 4.829-1.558 2.979 4.108.009-5.07 4.831-1.562-4.824-1.576.007-5.072-2.991 4.097zm139.127 67.648 2.976 4.107-2.99 4.1 4.829-1.558 2.979 4.108.009-5.07 4.831-1.562-4.824-1.576.007-5.072-2.991 4.097zm-17.855 12.704 2.976 4.107-2.991 4.1 4.83-1.558 2.979 4.108.009-5.07 4.83-1.562-4.824-1.576.008-5.072-2.991 4.097zm-17.856 11.904 2.976 4.107-2.99 4.1 4.829-1.558 2.979 4.108.009-5.07 4.831-1.562-4.824-1.576.007-5.072-2.991 4.097zm-17.857 11.903 2.976 4.108-2.99 4.1 4.829-1.558 2.979 4.108.009-5.07 4.831-1.562-4.825-1.576.008-5.072-2.991 4.097zm-17.856 12.649 2.976 4.107-2.99 4.1 4.829-1.558 2.979 4.108.009-5.07 4.831-1.562-4.824-1.576.007-5.072-2.99 4.097zm-17.855 11.903 2.976 4.108-2.99 4.1 4.829-1.558 2.979 4.108.009-5.07 4.831-1.562-4.824-1.576.007-5.072-2.991 4.097z"/></g><defs><clipPath id="a"><path fill="#fff" d="M0 0h300v300H0z"/></clipPath></defs></svg>