<svg xmlns="http://www.w3.org/2000/svg" width="300" height="300" fill="none"><g clip-path="url(#a)"><mask id="b" width="300" height="300" x="0" y="0" maskUnits="userSpaceOnUse" style="mask-type:alpha"><path fill="#0F204B" d="M0 0h300v300H0z"/></mask><g mask="url(#b)"><path fill="#0F204B" d="M0 0h300v300H0z"/><path fill="#0F204B" d="M0 0h300v300H0z"/><path fill="#BB133E" d="M-106 0h511v133.712h-511z"/><path fill="#FED700" d="M405 31.339v55.713l-255.5 46.66zM272.814 0h73.634L149.5 133.712zm-99.361 0h42.583L149.5 133.712zM-106 31.339v55.713l255.5 46.66zM26.186 0h-73.634L149.5 133.712zm99.361 0H82.964L149.5 133.712z"/><path fill="#CE5C17" d="m149.501 48.545 55.345 170.333-72.334-52.972-72.334-52.971h178.655L94.165 218.878z"/></g></g><defs><clipPath id="a"><path fill="#fff" d="M0 0h300v300H0z"/></clipPath></defs></svg>