<svg xmlns="http://www.w3.org/2000/svg" width="300" height="300" fill="none"><g clip-path="url(#a)"><path fill="#fff" d="M0 0h300v38H0zm0 112.5h300v38H0zM0 225h300v38H0z"/><path fill="#C8102E" d="M0 37.5h300V75H0zM0 150h300v37.5H0zm0 112.5h300V300H0z"/><path fill="#012169" d="M0 75h300v37.5H0zm0 112.5h300V225H0z"/><mask id="b" width="187" height="150" x="0" y="0" maskUnits="userSpaceOnUse" style="mask-type:alpha"><path fill="#D9D9D9" d="M0 0h187v150H0z"/></mask><g mask="url(#b)"><path fill="#D9D9D9" d="M0 0h187v150H0z"/><path fill="#012169" d="M0 0h427.429v300H0z"/><mask id="c" width="214" height="175" x="0" y="0" maskUnits="userSpaceOnUse" style="mask-type:luminance"><path fill="#fff" d="M0 0h213.714v175H0z"/></mask><g mask="url(#c)"><path fill="#012169" d="m0 0 249.333 200Zm187 0L0 150Z"/><path stroke="#fff" stroke-width="24.552" d="m0 0 249.333 200M187 0 0 150"/></g><mask id="d" width="196" height="163" x="0" y="0" maskUnits="userSpaceOnUse" style="mask-type:luminance"><path fill="#fff" d="M0 0v75h195.905v75H187zm187 0H93.5v162.5H0V150z"/></mask><g mask="url(#d)"><path fill="#012169" d="m0 0 249.333 200Zm187 0L0 150Z"/><path stroke="#C8102E" stroke-width="16.368" d="m0 0 249.333 200M187 0 0 150"/></g><path fill="#012169" d="M93.5 0v175ZM0 75h213.714Z"/><path stroke="#fff" stroke-width="40.92" d="M93.5 0v175M0 75h213.714"/><path fill="#fff" d="M427.429 0v50H195.905L187 37.5V0zm0 112.5v50H187v-50zm0 112.5v75H0v-75z"/><path fill="#C8102E" d="M427.429 37.5V90H0V60h187V37.5zm0 112.5v37.5H0V150zm0 112.5V300H0v-37.5zM82.814 0h21.372v162.5H82.814z"/></g></g><defs><clipPath id="a"><path fill="#fff" d="M0 0h300v300H0z"/></clipPath></defs></svg>