<svg xmlns="http://www.w3.org/2000/svg" width="300" height="300" fill="none"><path fill="#52C9E8" d="M0 300h300V0H0z"/><path fill="#002D5D" d="M0 0h216.5l-74 148.5 74 151.5H0z"/><path fill="#fff" d="m77 106.508-13.618 32.876 13.412 14.114 19.464-.497z"/><path fill="#fff" d="m77 193.492 13.617-32.876-13.411-14.114-19.464.497z"/><path fill="#fff" d="m107.753 119.247-32.875 13.617-.497 19.464 14.114 13.412z"/><path fill="#fff" d="m46.246 180.753 32.876-13.617.497-19.464-14.115-13.412z"/><path fill="#fff" d="m107.753 180.754-13.617-32.876-19.464-.497-13.412 14.114z"/><path fill="#fff" d="m46.247 119.247 13.617 32.875 19.464.497 13.412-14.114z"/><path fill="#fff" d="m33.508 150 32.875 13.617 14.115-13.411L80 130.742z"/><path fill="#fff" d="m120.492 150-32.876-13.618-14.114 13.412.497 19.464z"/></svg>