<svg xmlns="http://www.w3.org/2000/svg" width="300" height="300" fill="none"><mask id="a" width="300" height="300" x="0" y="0" maskUnits="userSpaceOnUse" style="mask-type:alpha"><path fill="#003776" d="M0 300h300V0H0z"/></mask><g mask="url(#a)"><path fill="#000" d="M-150 0h600v300h-600z"/><path fill="#EAAA00" d="M-150 300V25l50 25v250h50V0H0v300h50V0h50v300h50V0h50v300h50V0h50v300h50V0h50v300h50v-25L-100 0v50l500 250z"/><path fill="#fff" d="M150 0h150v150h150V75H150z"/><path fill="#9D2235" d="M300 0h150v75H150v75h150z"/><path fill="#fff" d="M300 139.5c-3.395 0-6.651-1.011-9.051-2.812s-3.749-4.242-3.749-6.788v-4.8h-12.4c-3.395 0-6.651-1.011-9.051-2.812S262 118.046 262 115.5s1.349-4.988 3.749-6.788c2.4-1.801 5.656-2.812 9.051-2.812h12.4V84.6h-79.6v9.3c0 2.546-1.349 4.988-3.749 6.788-2.401 1.801-5.656 2.812-9.051 2.812s-6.651-1.011-9.051-2.812S182 96.446 182 93.9v-9.3h-11.2c-3.395 0-6.651-1.011-9.051-2.812S158 77.546 158 75h142z"/><path fill="#9D2235" d="M300 10.5c-3.395 0-6.651 1.011-9.051 2.812S287.2 17.554 287.2 20.1v4.8h-12.4c-3.395 0-6.651 1.011-9.051 2.812S262 31.954 262 34.5s1.349 4.988 3.749 6.788 5.656 2.812 9.051 2.812h12.4v21.3h-79.6v-9.3c0-2.546-1.349-4.988-3.749-6.788S198.195 46.5 194.8 46.5s-6.651 1.011-9.051 2.812S182 53.554 182 56.1v9.3h-11.2c-3.395 0-6.651 1.011-9.051 2.812S158 72.454 158 75h142z"/><path fill="#fff" d="M-150 150H0v150h150v-75h-300z"/><path fill="#9D2235" d="M0 150h150v75h-300v75H0z"/><path fill="#9D2235" d="M0 289.5c3.395 0 6.65-1.011 9.051-2.812s3.749-4.242 3.749-6.788v-4.8h12.4c3.395 0 6.65-1.011 9.051-2.812S38 268.046 38 265.5s-1.349-4.988-3.749-6.788c-2.4-1.801-5.656-2.812-9.051-2.812H12.8v-21.3h79.6v9.3c0 2.546 1.349 4.988 3.749 6.788 2.4 1.801 5.656 2.812 9.051 2.812s6.651-1.011 9.051-2.812S118 246.446 118 243.9v-9.3h11.2c3.395 0 6.651-1.011 9.051-2.812S142 227.546 142 225H0z"/><path fill="#fff" d="M0 160.5c3.395 0 6.65 1.011 9.051 2.812s3.749 4.242 3.749 6.788v4.8h12.4c3.395 0 6.65 1.011 9.051 2.812S38 181.954 38 184.5s-1.349 4.988-3.749 6.788c-2.4 1.801-5.656 2.812-9.051 2.812H12.8v21.3h79.6v-9.3c0-2.546 1.349-4.988 3.749-6.788 2.4-1.801 5.656-2.812 9.051-2.812s6.651 1.011 9.051 2.812S118 203.554 118 206.1v9.3h11.2c3.395 0 6.651 1.011 9.051 2.812S142 222.454 142 225H0z"/></g></svg>