<svg xmlns="http://www.w3.org/2000/svg" width="300" height="300" fill="none"><path fill="#002A86" d="M0 300h300V0H0z"/><path fill="#FEC70B" d="M149.021 232.431c34.834 0 63.073-28.239 63.073-63.074s-28.239-63.073-63.073-63.073-63.074 28.239-63.074 63.073 28.239 63.074 63.074 63.074"/><path fill="#F7E47C" d="m98.789 135.409-6.087 9.841s-3.243 9.216-3.243 10.07c0 .853-1.194 10.865-1.194 10.865l.341 2.845 27.818 2.503 21.162-1.479-.91-1.138-1.024-1.877-.74-1.991-.455-2.845.626-1.422-3.299-7.964-3.527-6.884-3.414 2.56-1.365.853-.569.171-.853.228-1.821-.854s-1.593-3.413-1.763-3.641c-.171-.227-3.584-4.152-3.584-4.152l-2.674-2.105-2.901 2.617-1.707 1.422-1.479 1.138-4.608-5.632z"/><path fill="#fff" d="M98.22 137.514c-.512-.823.827-1.786 1.48-2.503.172-.191.38-.376.625-.455.162-.053.372-.098.512 0 .399.276.343.909.512 1.365.23.625.363 1.293.682 1.877.241.44.588.812.911 1.195q.379.445.796.853c.22.218.503.375.683.626.192.269.311.591.398.911.085.313-.013.668.114.966.164.385.428.771.796.967.168.09.382.092.569.057.292-.053.543-.243.797-.398a8.9 8.9 0 0 0 2.332-2.048c.402-.5.72-1.062 1.081-1.593.284-.417.536-.858.853-1.251.312-.387.568-.885 1.024-1.081.227-.098.499-.055.739 0 .431.097.851.293 1.195.569.264.211.46.502.626.796.318.565.434 1.222.682 1.821.193.462.341.954.626 1.365.414.594 1.091.965 1.536 1.536.272.348.461.755.683 1.138.175.301.28.65.512.91.28.314.724.444 1.024.739.338.333.61.731.853 1.138.462.772.838 1.599 1.138 2.446.052.148-.029.391.114.455.487.22.979-.44 1.422-.739.29-.196.522-.466.796-.683.607-.479 1.363-.787 1.877-1.365.232-.26.311-.626.512-.91.25-.351.471-.771.854-.968.339-.173.758-.143 1.138-.113.371.029.764.087 1.08.284.32.199.55.528.74.854.486.834.676 1.809.967 2.73.256.807.402 1.648.683 2.446.192.545.461 1.06.683 1.593.273.66.607 1.302.796 1.991.162.593.039 1.257.284 1.821.135.309.412.535.626.796.111.135.299.229.341.398.043.17-.132.339-.113.512.023.228.161.432.284.626.173.273.415.495.626.739.131.153.251.318.398.456.227.212.708.259.739.569.01.093-.146.127-.184.213-.049.109-.038.236-.043.355-.008.219.074.441.028.655-.017.082-.039.188-.113.227a.31.31 0 0 1-.327-.042c-.149-.129-.092-.384-.157-.569-.059-.171-.102-.356-.213-.498a.9.9 0 0 0-.37-.285c-.115-.046-.251-.077-.37-.042-.129.038-.187.305-.313.256-.231-.091-.009-.508-.099-.74-.105-.269-.338-.47-.498-.711-.118-.177-.222-.364-.341-.54-.244-.359-.629-.641-.768-1.053-.072-.211.023-.448-.014-.668a5.2 5.2 0 0 0-.456-1.394c-.272-.563-.709-1.031-1.038-1.564q-.506-.834-.967-1.692c-.163-.301-.374-.583-.469-.911-.076-.265-.031-.552-.071-.825a9 9 0 0 0-.214-1.024c-.085-.309-.161-.627-.312-.91-.141-.262-.425-.437-.541-.711-.073-.172-.046-.372-.085-.555-.049-.23-.051-.489-.185-.682-.153-.221-.408-.363-.654-.47a.9.9 0 0 0-.441-.085.95.95 0 0 0-.441.199c-.293.221-.448.584-.711.839-.349.339-.722.66-1.138.91-.235.142-.498.229-.754.327-.275.107-.564.176-.839.285-.431.172-.862.353-1.266.583-.145.083-.336.136-.412.285-.091.177-.036.404.014.597.046.176.214.306.256.484.065.272-.034.56-.014.838q.014.224.071.441c.038.147.109.283.157.427.088.268.117.557.242.811.218.445.593.795.867 1.209.372.56.682 1.159 1.052 1.72.275.418.617.791.868 1.223.226.389.376.817.569 1.223.14.296.218.631.426.882.305.368.738.615 1.152.853.269.155.565.258.854.37.187.073.397.094.569.199.162.101.248.301.412.399.162.096.366.097.54.17.159.067.317.14.456.242.247.184.449.424.654.654.423.478.785 1.006 1.18 1.508.269.342.577.656.811 1.024.159.25.254.537.398.796q.124.227.27.441c.137.197.3.375.441.569.054.074.206.15.157.228-.058.088-.218-.011-.314-.057-.203-.097-.321-.321-.511-.441-.176-.112-.398-.139-.569-.256-.23-.157-.388-.4-.598-.584a17 17 0 0 0-1.123-.881c-.287-.209-.594-.39-.882-.597-.184-.133-.371-.262-.54-.413-.363-.324-.64-.737-1.01-1.052-.351-.298-.715-.602-1.138-.782-.387-.166-.819-.206-1.237-.256-.377-.046-.759-.033-1.138-.043-.265-.007-.641.201-.796-.014-.114-.157.092-.378.17-.555.072-.161.213-.288.271-.455.07-.203.123-.428.085-.64-.061-.338-.291-.625-.484-.91-.242-.36-.647-.607-.839-.996-.185-.374-.177-.816-.27-1.223-.05-.223-.048-.467-.157-.668-.153-.287-.457-.464-.668-.711a25 25 0 0 1-1.436-1.849c-.194-.276-.401-.547-.541-.853-.103-.226-.107-.488-.213-.711-.192-.405-.553-.71-.754-1.11-.234-.466-.366-.978-.512-1.479-.178-.613-.252-1.253-.441-1.863-.14-.452-.355-.877-.512-1.323-.125-.356-.165-.746-.341-1.081a6 6 0 0 0-1.323-1.706c-.326-.289-.762-.424-1.123-.669a10 10 0 0 1-.996-.768c-.258-.229-.538-.449-.725-.739-.165-.257-.186-.584-.327-.853-.125-.239-.227-.526-.455-.669-.219-.137-.51-.127-.768-.113-.212.01-.421.063-.612.156-.162.081-.32.193-.426.341-.089.123-.076.299-.157.427-.126.201-.285.405-.497.512-.291.146-.653.044-.968.128a1.8 1.8 0 0 0-.483.199 2.6 2.6 0 0 0-.512.455c-.22.24-.394.518-.583.782-.151.211-.317.413-.441.64a4 4 0 0 0-.27.64c-.058.167-.131.335-.143.512a2.4 2.4 0 0 0 .114.825c.147.505.402.975.654 1.437.256.466.563.901.868 1.336.208.297.47.556.654.868a3 3 0 0 1 .384 1.138c.033.254-.004.513.029.767.025.193.051.391.128.569.154.362.407.676.654.981.261.324.59.587.868.896.198.221.403.438.568.683.135.201.266.411.341.64.061.182.077.378.086.569.011.247-.103.5-.043.74.067.264.278.468.427.697.182.28.393.54.569.824.139.226.277.455.384.697.119.271.233.549.284.839.032.178.004.361.015.541.017.304-.015.622.085.91.077.224.182.475.384.597.398.242.931.067 1.393.128.277.037.556.07.825.142.274.075.524.223.797.299.325.091.663.122.995.185.347.066.696.117 1.038.199.361.087.723.177 1.067.313.702.278 1.366.647 2.02 1.024.926.534 1.781 1.183 2.688 1.749.736.46 1.472.92 2.232 1.337.363.199.722.411 1.11.555.238.088.491.129.739.185.279.062.694-.075.839.17.033.056-.045.121-.057.185-.035.207.113.472-.026.629-.12.135-.354.085-.534.088a7 7 0 0 1-1.943-.248c-1.804-.487-5.032-2.196-5.162-2.19a1.57 1.57 0 0 1-.811-.199c-.321-.174-.581-.458-.796-.754-.161-.22-.199-.515-.356-.739-.183-.261-.401-.509-.668-.683-.272-.176-.598-.255-.911-.341-.334-.092-.686-.105-1.023-.185-.394-.093-.766-.279-1.167-.341-.201-.032-.412-.06-.611-.014-.234.053-.406.276-.64.327-.492.106-1.014.024-1.507-.071-.326-.063-.665-.142-.939-.327-.203-.138-.279-.421-.484-.555a1.4 1.4 0 0 0-.626-.199c-.232-.024-.489-.036-.696.071a.6.6 0 0 0-.299.341c-.058.187.004.399.071.584.045.122.108.25.213.327.183.131.464.05.654.17.256.162.39.464.584.697.213.256.445.497.639.768.154.212.31.428.413.669.052.121.032.27.1.383a.8.8 0 0 0 .27.256c.146.09.322.114.483.171.133.047.303.038.399.142.049.054.092.149.057.214-.068.122-.26.118-.399.128a1.2 1.2 0 0 1-.569-.1c-.464-.209-.816-.612-1.194-.953-.296-.267-.559-.57-.839-.853-.34-.343-.638-.735-1.024-1.024-.307-.231-.659-.399-1.01-.555-.477-.212-1.013-.277-1.479-.512-.369-.185-.694-.449-1.024-.697-.345-.259-.703-.508-.996-.824-.268-.29-.381-.712-.682-.968a1.05 1.05 0 0 0-.469-.227c-.271-.053-.553.097-.826.057-.406-.061-.777-.27-1.151-.441-.265-.121-.482-.361-.768-.412-.236-.043-.477.049-.712.099-.303.064-.611.13-.896.256-.479.211-.855.619-1.336.825a2.8 2.8 0 0 1-.711.185c-.334.044-.674.003-1.01.014-.27.009-.549-.024-.811.043-.117.03-.215.11-.327.156-.497.206-1.015.359-1.522.541-.341.122-.694.218-1.023.369-.342.157-.652.375-.982.555-.367.2-.723.424-1.11.583a4.5 4.5 0 0 1-.88.27c-.491.093-.996.149-1.494.114-.218-.016-.508.032-.64-.142-.432-.573-.39-1.651.128-2.148.338-.325.939-.043 1.408-.028.841.027 1.679.294 2.517.213.535-.052 1.053-.238 1.55-.441.68-.277 1.26-.764 1.934-1.052.39-.166.792-.317 1.21-.384.402-.065.823.069 1.222-.015.514-.106.957-.433 1.451-.611.619-.223 1.241-.47 1.891-.569.567-.086 1.158-.123 1.721-.014s1.069.419 1.593.654c.505.226 1.04.408 1.493.726.33.23.548.595.868.839.455.345.945.663 1.479.867.38.145.79.209 1.195.242a8 8 0 0 0 1.607-.057c.25-.031.559.02.739-.156.178-.174.157-.478.171-.726a1.9 1.9 0 0 0-.071-.597c-.094-.344-.258-.667-.427-.981-.318-.593-.814-1.082-1.095-1.693-.153-.332-.171-.714-.313-1.052a5.6 5.6 0 0 0-.512-.924 10 10 0 0 0-.853-1.096c-.633-.72-1.432-1.29-2.019-2.048a4.3 4.3 0 0 1-.513-.853c-.12-.263-.168-.554-.27-.825q-.176-.479-.398-.938c-.132-.269-.257-.547-.441-.782-.161-.207-.448-.31-.569-.541-.146-.281-.079-.629-.142-.939-.145-.714-.279-1.438-.54-2.119-.121-.315-.262-.63-.47-.896-.301-.387-.793-.595-1.095-.981-.306-.393-.47-.879-.697-1.323-.228-.448-.418-.915-.668-1.351-.159-.276-.304-.569-.526-.796-.331-.339-.793-.52-1.166-.811-.442-.345-.94-.652-1.266-1.109-.131-.184-.064-.508-.256-.626-.215-.132-.621.271-.754.057"/><path fill="#9DC8EB" d="m135.88 160.667-.854.228s-.401.461-.512.739c-.184.464-.225.981-.227 1.479a5.8 5.8 0 0 0 .227 1.593c.326 1.171 1.423 3.357 1.423 3.357l1.592 2.218 4.039 3.811 21.731 7.396 7.054 5.177 4.608 7.907 4.323 2.617 4.893.683.512 6.371s4.608 2.048 5.518 2.276 3.754.284 3.754.284l3.812-1.251 6.315-10.411 3.64-10.354 1.65-12.685.853-7.168-.565-4.196s-68.496-.355-68.78-.355-5.006.284-5.006.284"/><path fill="#A2D100" d="M88.981 167.644s1.387.287 2.091.322c.51.025 1.02-.043 1.529-.081.564-.041 1.126-.107 1.69-.16.563-.054 1.124-.2 1.689-.161.467.032.908.231 1.368.322 1.332.263 2.666.563 4.022.643 1.313.077 2.629-.238 3.942-.161.678.04 1.353.157 2.011.322.716.179 1.36.631 2.093.724.987.126 1.989-.109 2.976-.241 1.298-.174 2.559-.588 3.862-.724 1.146-.12 2.306-.123 3.459-.081 1.104.041 2.194.299 3.299.322 1.449.03 2.894-.257 4.344-.242.699.008 1.392.163 2.092.162 1.318-.004 2.628-.43 3.942-.322.661.054 1.294.294 1.93.482.789.235 2.334.805 2.334.805l2.654 2.252s2.897 1.529 3.701 1.851 3.379.563 3.379.563l4.023 1.287 5.55 2.092s7 2.172 7.483 2.333 2.252.805 2.252.805 4.586 3.459 5.069 3.861q.84.69 1.689 1.368l2.575 8.528.643.724s3.701.724 4.345.885 4.022.965 4.022.965.724-.241.724.161-.081 1.287-.081 1.287l-.482 1.69 3.218 3.218 1.528 1.367.644.724 2.816-.804 1.77-.563h.402l1.931 1.931-9.413 11.343s-13.757 8.528-14.079 8.528c-.321 0-13.837 4.908-16.01 4.827-2.172-.081-16.17.161-16.492.161s-22.446-7.401-22.446-7.401l-15.607-12.792-12.631-19.872-2.574-12.952-.242-9.332z"/><path fill="#FFD90F" d="M78.603 67a12.7 12.7 0 0 0-5.203 1.124 13.6 13.6 0 0 0-4.412 3.2 14.9 14.9 0 0 0-2.947 4.79 15.9 15.9 0 0 0-1.035 5.649c0 1.939.352 3.858 1.035 5.65a14.9 14.9 0 0 0 2.948 4.789 13.6 13.6 0 0 0 4.41 3.2 12.7 12.7 0 0 0 5.204 1.124 12.7 12.7 0 0 0 5.203-1.124 13.6 13.6 0 0 0 4.41-3.2 14.9 14.9 0 0 0 2.948-4.79 15.9 15.9 0 0 0 1.035-5.649c0-1.939-.351-3.858-1.035-5.65a14.9 14.9 0 0 0-2.947-4.789 13.6 13.6 0 0 0-4.411-3.2A12.7 12.7 0 0 0 78.603 67m27.112.804V95.56h8.126v-14.4l7.883 14.4h7.884V67.804h-8.044v13.758l-7.723-13.758zm37.168 0 .161 7.643h6.999V95.56h8.448V75.447h7.159v-7.642zm41.272 0-9.897 27.756h8.609l1.368-3.862h7.804l1.448 3.862h8.367l-9.735-27.756zm30.129 0V95.56h8.124v-14.4l7.885 14.4h7.884V67.804h-8.045v13.758l-7.724-13.758zm46.017 0-9.896 27.756h8.609l1.368-3.862h7.803l1.448 3.862H278l-9.735-27.756zm-239.06.08L21 95.56h8.125V78.424l4.103 17.136h6.114l4.425-17.538V95.48h7.643V67.885H40.067l-3.54 16.09-3.781-16.09zm57.321 6.276c.703 0 1.399.198 2.048.582s1.239.947 1.736 1.656c.496.71.89 1.553 1.16 2.48.268.927.407 1.921.407 2.925a10.6 10.6 0 0 1-.407 2.925 8.4 8.4 0 0 1-1.16 2.48c-.497.709-1.087 1.272-1.736 1.656a4 4 0 0 1-2.048.582c-1.418 0-2.78-.806-3.782-2.239-1.004-1.433-1.567-3.377-1.567-5.404s.563-3.971 1.567-5.404c1.003-1.434 2.364-2.239 3.782-2.239m109.695 2.413 2.254 9.091h-5.069zm76.147 0 2.253 9.091h-5.069z"/><path fill="#fff" d="m153.8 192.581-6.344 5.916s1.269.205 1.906.284c1.23.154 2.462.285 3.698.37 1.95.136 3.906.145 5.86.228 1.83.078 5.489.256 5.489.256s1.006.161 1.45-.028c.161-.069.315-.205.37-.37.089-.263-.001-.572-.113-.825-.126-.283-.378-.493-.598-.711a6 6 0 0 0-.483-.399l-.057-2.759-5.661-.824v-.996l-5.432-.313z"/><path fill="#969496" d="m152.416 192.332-7.512 7.382 1.217.04 7.743-7.23z"/><path fill="#E86F00" d="M91.565 189.85s1.697.866 2.616 1.081c1.647.385 3.378.198 5.063.342 1.671.141 3.338.339 5.006.511 1.631.169 3.272.262 4.893.512 1.396.217 2.766.579 4.152.854.796.157 1.636.157 2.39.455.396.156.755.408 1.081.683.194.164.383.348.512.569.151.259.242.556.284.853.076.526-.057 1.593-.057 1.593s2.008 2.138 3.357 2.332c.356.051.675-.251 1.024-.342a19 19 0 0 1 2.161-.398c.453-.06.91-.094 1.366-.114.189-.007.397-.08.569 0 .134.063.161.26.284.342.528.354 1.202.42 1.82.569.655.157 1.353.127 1.991.341.506.17 1.022.385 1.422.739.276.244.477.574.626.911.134.303.205.637.228.967.029.418-.087.833-.114 1.251-.102 1.61-.171 4.836-.171 4.836l-10.524 4.323-11.377 1.764-3.357-.739-6.2-7.168-5.69-8.249-3.014-7.509z"/><path fill="#fff" d="M136.343 159.418c-.156.012-.345-.007-.459.101-.253.238-.429.689-.282 1.005.181.386.75.434 1.167.523.197.042.461-.142.603 0 .124.123-.061.36 0 .523.051.134.141.3.282.322.155.025.305-.119.403-.241.079-.099.009-.299.12-.362.225-.13.567-.009.764.161.38.326.389.925.524 1.407.286 1.026.31 2.114.603 3.138.133.47.297.935.523 1.368.209.402.349.942.764 1.126.173.077.389-.005.563-.081.253-.11.386-.422.644-.522.2-.078.435.009.643-.04.199-.048.383-.146.563-.242.155-.082.344-.137.443-.282.122-.18.112-.425.121-.644.013-.363.2-.914-.121-1.086-.36-.191-.721.383-1.086.564-.226.112-.443.394-.684.321-.748-.227-.778-1.357-1.207-2.01-.417-.635-1.043-1.147-1.328-1.851-.137-.339-.224-.726-.161-1.086.035-.195.087-.489.282-.523.178-.031.289.222.403.362.203.252.164.784.482.845.169.031.297-.187.402-.322.119-.151.102-.392.242-.523.188-.177.471-.335.724-.282.26.055.394.36.563.564.197.237.229.67.523.764.259.082.516-.172.765-.282.318-.141.661-.256.924-.482.095-.082.108-.251.222-.302.067-.03.153-.008.222.02.232.096.439.276.582.483.129.186.148.429.222.643.053.155.022.376.16.463.149.093.358-.119.524-.06.089.031.14.127.2.201.116.143.24.289.302.462.06.165.01.355.06.523.043.144.109.284.202.403.179.228.501.322.663.562.12.176.094.422.202.604.075.126.158.355.301.322.199-.046.163-.381.181-.584.054-.605-.133-1.208-.221-1.81q-.09-.595-.202-1.187c-.055-.295-.287-.603-.18-.884.036-.094.143-.161.241-.181a.33.33 0 0 1 .261.06c.189.143.245.407.343.623.187.416.353.845.462 1.288.117.474.129.966.202 1.448.068.457.154.911.22 1.368.031.214-.058.477.081.643.085.103.25.1.382.121.152.023.351-.107.463 0 .116.111-.008.324.02.483.046.263.065.562.242.764.073.083.193.17.301.14.148-.04.22-.233.261-.381.26-.939-.014-1.958-.181-2.917-.103-.592-.331-1.154-.502-1.729-.099-.33-.394-.655-.302-.986a.53.53 0 0 1 .402-.362c.178-.024.352.117.482.241.258.244.372.605.524.926.143.305.282.617.362.945.228.937.193 1.92.322 2.876.062.464.018.965.221 1.387.086.18.235.333.402.443.074.049.182.033.253.088.023.018.027.053.049.073.123.11.28.193.442.221.173.031.357-.002.523-.06.037-.013.062-.063.101-.064.03 0 .05.046.08.044.177-.014.278-.22.423-.322.15-.106.281-.33.462-.302.137.022.157.231.261.322.178.154.372.324.604.363.19.031.392-.034.564-.121.16-.083.239-.284.401-.363.147-.07.323-.048.483-.08.392-.08.844-.045 1.167-.282a.84.84 0 0 0 .301-.502c.114-.55-.139-1.114-.221-1.669-.11-.74-.202-1.483-.362-2.213-.108-.49-.35-.95-.402-1.448-.023-.221-.108-.499.04-.663.082-.091.242-.086.362-.061.189.04.339.191.483.321.212.192.39.422.543.664.218.345.396.718.522 1.106.167.513.201 1.059.302 1.589.073.382.163.761.222 1.146.027.174-.033.374.06.524.059.095.196.109.282.181.098.082.202.168.262.282.075.145.069.321.1.482.029.154-.027.348.081.463.117.125.332.151.501.121.224-.042.38-.25.564-.383.178-.129.336-.285.523-.402.165-.103.328-.251.523-.262a.25.25 0 0 1 .161.061c.14.11.224.281.302.442.058.12.027.286.121.382.104.107.274.15.423.145.138-.006.246-.132.381-.165.183-.045.379-.079.563-.04.237.05.411.271.643.342.181.055.433.196.564.06.098-.102-.044-.281-.061-.422-.034-.294-.008-.598-.08-.885-.038-.148-.041-.362-.181-.423-.125-.053-.251.11-.383.141-.184.043-.377.096-.563.061-.238-.047-.41-.275-.643-.342-.084-.024-.19.032-.259-.02-.063-.048-.03-.163-.083-.222-.19-.212-.485-.327-.764-.381a1.96 1.96 0 0 0-1.086.08c-.128.051-.226.162-.322.261-.108.109-.146.291-.282.362-.095.05-.229.074-.322.02-.212-.124-.261-.425-.321-.663-.106-.417.013-.865-.061-1.288-.086-.497-.307-.962-.442-1.448-.097-.346-.327-.692-.262-1.046.03-.161.124-.357.282-.402.147-.042.296.095.422.181.205.138.324.377.523.523.152.112.316.29.503.262.159-.025.188-.295.342-.343.17-.052.355.161.522.101.198-.07.314-.293.403-.483.095-.203-.055-.522.121-.663.126-.101.322.008.483.02.127.009.273.108.381.04.151-.094.104-.342.181-.503.045-.092.067-.222.162-.261.236-.098.531.04.744.181.168.111.183.39.361.483.191.099.432.052.644.02.141-.022.26-.145.403-.141.195.005.352.177.542.221.282.066.672.275.866.061.105-.117-.044-.311-.081-.463-.085-.355-.031-.826-.322-1.046-1.391-1.051-3.485-.083-5.229-.121-5.202-.11-10.406-.152-15.608-.301a509 509 0 0 1-10.559-.403c-.33-.016-.66-.086-.989-.06m16.898 2.193a.5.5 0 0 1 .363.121c.195.177.212.483.321.723.244.538.53 1.058.744 1.609.209.537.361 1.096.523 1.649.174.593.401 1.178.483 1.79.017.128.11.316.002.387-.031.021-.066-.051-.102-.045-.102.02-.163.135-.222.221-.106.157-.081.396-.221.523-.083.076-.215.136-.322.101-.16-.052-.194-.273-.301-.403-.051-.061-.132-.103-.162-.178-.126-.318.018-.687-.019-1.028a13.5 13.5 0 0 0-.463-2.272c-.236-.814-.776-1.537-.905-2.375-.034-.225-.079-.488.041-.683a.33.33 0 0 1 .24-.14m37.049-1.267c-4.017-.029-8.033.002-12.048.04-2.153.02-4.58-.955-6.457.1-.318.178-.628.563-.583.925.027.222.376.267.483.463.104.192.055.435.121.643.048.155.047.393.201.443.116.038.252-.08.322-.181.08-.118-.004-.295.06-.423a.6.6 0 0 1 .281-.281c.335-.139.735-.087 1.087 0 .169.041.321.138.462.241a1 1 0 0 1 .281.282c.139.246.136.549.202.825l.161.683c.054.235.119.467.161.704.066.38.095.765.14 1.147.021.174.033.349.061.522.047.285-.029.648.181.845.133.125.394.189.542.081.198-.144.127-.48.121-.725-.017-.692-.313-1.35-.442-2.03-.094-.494-.216-.987-.241-1.489-.011-.221-.112-.502.04-.664.111-.118.329-.113.482-.06.099.034.165.133.222.221.299.464.479 1.007.583 1.549.059.303.004.617.02.925.038.705.142 1.406.182 2.112.027.489-.058.988.04 1.468.04.198.056.446.22.563.126.09.321.081.463.021.289-.123.499-.417.624-.705.11-.253.083-.548.081-.824-.009-.864-.181-1.719-.303-2.575-.051-.363-.093-.729-.181-1.086-.118-.479-.371-.922-.462-1.407-.044-.232-.181-.517-.041-.705.071-.094.226-.092.343-.079a.86.86 0 0 1 .462.22c.317.279.481.696.684 1.066.162.298.118.776.422.925.316.155.675-.245 1.026-.241.215.002.451.033.623.161.197.145.277.404.383.624.136.282.239.582.321.885.146.539.251 1.092.302 1.649.047.514.118 1.046 0 1.548-.045.19-.165.354-.261.523-.104.181-.309.318-.342.523-.021.13.001.296.101.382.189.163.494.089.743.081.354-.012.722-.039 1.046-.181.364-.159.672-.437.946-.724.129-.136.309-.275.322-.463.085-1.238-1.315-2.135-1.69-3.318-.1-.317-.033-.672-.14-.986-.172-.503-.683-.866-.785-1.387-.062-.313.037-.64.121-.946.04-.148.07-.316.181-.422.093-.09.233-.158.362-.141.156.021.279.161.382.281.094.109.14.252.2.382.135.289.25.587.363.886.137.365.308.723.382 1.106.076.388.104.793.06 1.186-.035.325-.302.621-.261.946.104.827.473 1.857 1.247 2.172.09.037.212-.012.281-.081.189-.187.196-.5.222-.764.051-.529-.075-1.061-.141-1.589-.094-.741-.236-1.476-.362-2.213-.071-.415-.258-.826-.222-1.246.014-.157.049-.333.162-.443.06-.059.162-.111.241-.081.216.084.239.397.342.604.158.321.322.643.422.986.138.469.139.969.242 1.448.093.433.255.851.341 1.287.059.299.076.604.121.905.03.202.02.416.1.603.093.216.283.376.423.564.235.314.365.747.704.945.187.108.442.158.643.08a.44.44 0 0 0 .242-.281c.141-.496-.098-1.033-.242-1.528-.131-.456-.425-.854-.563-1.308-.097-.32-.094-.663-.181-.986-.16-.591-.429-1.148-.623-1.729-.109-.326-.242-.648-.302-.986-.042-.238-.167-.518-.04-.724.061-.1.205-.146.322-.141.183.008.364.122.483.261.3.352.254.895.462 1.308.2.397.442.781.744 1.107.082.087.168.253.283.221.109-.031.103-.208.119-.322.054-.373-.15-.756-.079-1.126.04-.212.076-.514.28-.584.114-.039.24.075.323.162.238.249.292.624.422.944.191.47.415.933.523 1.428.071.323-.041.68.08.986.059.151.21.248.302.382.135.199.278.398.362.624.086.23.133.478.141.723.006.203.004.42-.081.604-.075.164-.3.233-.362.402-.069.19-.088.434.02.603.065.101.219.1.323.161.14.084.302.152.402.282.073.096.024.27.121.342.477.359 1.221.285 1.789.101.131-.043.19-.219.322-.262.121-.039.257-.007.382.02.212.047.388.218.604.242.162.017.319-.081.482-.08a.8.8 0 0 1 .342.06c.095.044.139.179.242.201.251.055.493-.147.744-.201.159-.035.322-.114.482-.081.133.028.209.197.342.222.229.043.456-.091.684-.141.114-.026.228-.11.342-.081.157.04.227.235.362.322.235.151.485.326.764.341.288.017.653-.029.825-.26.233-.312.214-.83.02-1.167-.061-.107-.203-.147-.322-.182-.238-.069-.519.067-.743-.04-.18-.085-.314-.264-.403-.442-.13-.262-.15-.572-.161-.865-.017-.445-.124-.97.141-1.327.143-.193.425-.249.663-.283.153-.02.331.147.458.06.097-.066.076-.223.085-.34a2.5 2.5 0 0 0-.08-.845c-.108-.4-.516-.713-.523-1.127a.87.87 0 0 1 .261-.623c.083-.08.211-.148.323-.121.156.039.229.23.321.362.252.362.477.751.623 1.166.132.374.153.778.222 1.168.058.327.037.676.161.985.057.143.123.313.261.383.15.075.35-.087.504-.021.121.053.13.331.26.302.239-.052.146-.466.202-.704.05-.213.103-.426.12-.644.054-.655-.006-1.314-.04-1.971-.013-.242-.148-.498-.06-.724.049-.129.166-.256.301-.282.163-.031.338.074.463.181.283.243.426.62.563.966.132.333.205.69.242 1.046.031.306-.024.616-.021.925.002.147-.036.306.021.442.113.277.432.419.603.665.15.216.279.453.362.703.089.264.086.552.141.825.04.196.122.384.14.583.024.254-.21.574-.04.765.228.255.743.252 1.026.06.141-.095.147-.314.162-.483.029-.351-.119-.696-.162-1.046-.063-.521-.025-1.056-.14-1.569-.111-.488-.271-.975-.524-1.407-.146-.251-.46-.393-.562-.665-.147-.388-.135-.846-.02-1.246.088-.308.223-.691.522-.805.143-.055.303.057.443.121.176.08.354.177.482.322.276.309.405.723.563 1.105q.166.391.262.805c.072.33-.003.692.121 1.006.053.138.158.254.261.362.201.211.416.657.684.543 1.76-.748 1.289-3.951.543-5.712-.302-.712-1.083-1.186-1.81-1.448-5.406-1.949-11.49-.261-17.237-.301zm1.568 2.453c.169-.264.636.13.885.322.084.065.12.175.181.262.094.134.215.252.282.401.121.271-.033.685.201.866.196.151.505.046.744-.021.341-.094.751-.214.925-.523.119-.21-.044-.484-.02-.723.018-.172-.025-.41.12-.503.149-.097.376 0 .523.1.125.085.099.334.242.382.183.062.351-.184.543-.201.149-.013.327-.014.442.081.172.142.166.413.242.623.171.472.366.939.483 1.428.164.692.234 1.404.302 2.112.026.287.173.609.04.865-.187.357-.625.684-1.027.644-.193-.02-.244-.324-.421-.403-.32-.143-.776-.302-1.047-.081-.172.142-.01.453-.081.664-.08.242-.188.498-.381.664-.098.084-.236.169-.362.141-.162-.037-.281-.208-.342-.363-.084-.211.004-.455 0-.683-.003-.168.028-.342-.02-.503-.056-.187-.25-.314-.302-.502-.077-.278.004-.577 0-.866-.003-.208.148-.5-.02-.622-.119-.087-.309.026-.422.119-.15.125-.201.338-.262.523-.086.266-.033.568-.141.826-.044.106-.087.297-.201.28-.329-.048-.23-.624-.322-.945-.218-.76-.292-1.561-.542-2.312-.206-.619-1.012-1.179-.785-1.79.07-.189.51-.064.543-.262"/><path fill="#F7E47C" d="M202.096 140.87s-2.446.91-2.73.967c-.285.057-2.048.683-2.048.683l-1.479.626-2.333.569s-1.194.398-1.479.398c-.284 0-3.015.284-3.015.284s-1.764.057-1.991.057-1.991.114-2.389.228c-.399.114-2.048.967-2.048.967l-2.048 1.65s-1.934.853-2.276.91-2.332.228-2.673.228-2.333-.683-2.333-.683l-2.048-.114s-1.251.228-2.105.512c-.853.285-4.607 2.105-4.607 2.105l-3.414 1.65s-1.479.569-1.877.625-1.251.285-1.251.285l-1.65.739h-1.024l-1.764-.512-3.128.228-2.276.739-2.048.057-2.332-.057h-1.991l-1.252.683-1.479.057-1.479 1.138-1.82 1.422s-.626.227-.626.455c0 .227-.114.626.284.853.399.228 21.561 2.219 21.561 2.219s3.868.17 4.266.17 2.389.057 2.389.057 1.366-.057 1.593-.057c.228 0 1.422-.113 1.422-.113s2.276-.342 3.414-.399 22.129-4.494 22.129-4.494l7.68-6.257 1.991-6.258z"/><path fill="#7D421D" d="M202.377 140.613s-1.396.804-2.133 1.126c-.964.421-2.018.613-2.977 1.045-.35.158-.648.424-1.005.564-.424.167-.877.254-1.327.322-.213.032-.439-.024-.644.04-.494.155-.862.578-1.328.804-.412.2-.837.395-1.287.483-.407.081-.835-.019-1.246.041-.261.037-.53.083-.765.201-.307.154-.514.459-.804.643-.442.278-.898.573-1.408.684-.629.138-1.292-.112-1.931-.04a5.2 5.2 0 0 0-1.126.282c-.306.106-.571.327-.886.401-.379.089-.78-.01-1.166.04a7 7 0 0 0-1.046.242c-.301.089-.576.267-.885.322-.211.037-.436-.054-.643 0-.134.034-.285.087-.363.202a.78.78 0 0 0-.08.642c.06.19.226.35.402.443.695.366 1.558.199 2.333.322.525.083 1.047.183 1.569.282.336.064.665.171 1.005.201.695.062 1.42-.225 2.092-.04.32.087.583.32.846.522.263.203.592.38.723.684.069.161.086.371 0 .523-.154.272-.507.385-.804.482-.55.181-1.151.186-1.73.162a7 7 0 0 1-1.81-.322c-.538-.172-.983-.581-1.529-.724-.377-.098-.777-.058-1.166-.08-.898-.052-1.814.056-2.695-.121-.532-.108-1.064-.283-1.529-.564-.324-.196-.524-.561-.845-.763-.208-.132-.439-.249-.683-.283a1.5 1.5 0 0 0-.644.081c-.177.06-.297.284-.483.282-.283-.003-.484-.292-.724-.443-.189-.118-.345-.316-.563-.362-.253-.053-.521.035-.764.121-.306.108-.558.332-.845.483-.462.243-.909.531-1.408.683-.376.114-.775.134-1.166.161-.923.063-1.868-.179-2.776 0-.555.109-1.07.379-1.569.644-.427.227-.778.581-1.206.804-.46.239-.96.391-1.449.564-.331.117-.66.257-1.006.322-.435.081-.884.057-1.327.08-.295.016-.637-.121-.885.041-.1.065-.182.203-.161.32.04.215.287.348.484.443.464.224 1.015.193 1.528.242.788.075 1.582.044 2.373.081.47.021.95-.028 1.408.08.099.023.222.037.282.121.109.153.066.376.04.562-.022.155-.043.34-.162.443-.248.215-.636.22-.964.201-.424-.024-.789-.334-1.208-.403a3.3 3.3 0 0 0-.965 0 4 4 0 0 0-1.006.283c-.243.103-.426.342-.684.402-.498.115-1.06.085-1.528-.121-.235-.103-.339-.399-.563-.523-.267-.149-.582-.201-.885-.242-.838-.112-1.702.145-2.534 0-.351-.061-.668-.251-1.006-.361-.319-.104-.635-.223-.965-.282-.199-.035-.407-.085-.603-.04-.316.073-.538.38-.845.482-.437.143-.91.129-1.368.161-.562.04-1.146-.107-1.69.041-.266.071-.46.32-.723.402-.528.164-1.097.155-1.65.161-.537.006-1.081-.015-1.609-.121-.166-.033-.313-.173-.483-.161-.359.026-.636.338-.965.483-.342.151-.696.274-1.046.403-.88.322-1.769.619-2.655.924-1.218.421-2.548.595-3.66 1.247-.156.092-.376.184-.403.363-.086.589.476 1.137.926 1.528.231.201.544.301.844.362.565.116 1.154-.011 1.731 0 1.381.027 2.762.092 4.143.16 1.784.089 3.564.259 5.349.323 3.685.13 7.375.1 11.062.12.497.003 1.016.149 1.489 0 .312-.098.5-.44.804-.563.239-.096.532-.009.765-.121.488-.232.783-.748 1.206-1.086.654-.522 1.301-1.078 2.052-1.448.365-.18.772-.26 1.166-.361.385-.099.819-.05 1.167-.242.439-.243.648-.778 1.045-1.087a6.2 6.2 0 0 1 1.488-.844c.655-.264 1.369-.345 2.052-.523.551-.144 1.087-.355 1.65-.442.583-.091 1.179-.085 1.77-.081.8.007 1.614-.02 2.396.149.671.146 1.262.555 1.925.734.267.073.563.03.818.137.141.058.342.118.371.268.025.124-.096.252-.201.321-.215.143-.506.105-.764.121-.401.025-.819.071-1.206-.04s-.666-.475-1.047-.604c-.589-.199-1.233-.317-1.85-.241-.329.04-.648.181-.925.362-.302.197-.465.563-.764.764-.229.154-.489.303-.765.322-.36.024-.685-.303-1.045-.282-.361.021-.68.249-1.007.403a6 6 0 0 0-.884.483c-.336.233-.552.637-.925.804-.395.176-.858.106-1.287.161-.51.065-1.048.017-1.529.201-.288.11-.5.365-.764.523-.325.194-.669.351-1.006.523-.187.095-.446.107-.563.281a.55.55 0 0 0-.041.483c.096.237.345.4.578.504.362.162.789.085 1.181.145.139.021.279.037.414.075.429.121.811.39 1.247.483.486.104.992.109 1.488.08.359-.021.706-.162 1.065-.182.844-.048 1.687.114 2.532.142 1.131.038 2.279-.159 3.393.035.368.064.683.365 1.056.367 2.297.019 4.263-.164 6.596-.04.086.005.144.072.229.076 1.826.076 3.517.018 5.298.026.391.002.716.222 1.084.279.363.057.733.074 1.1.064s.732-.085 1.098-.123c.282-.029.563-.067.845-.08.603-.029 1.21-.066 1.81 0 .154.017.302.077.455.101.572.091 1.153.106 1.729.162.252.023.502.064.755.072.296.01.592-.003.887-.028.268-.022.554-.108.8-.107 1.152.007 2.334.169 3.5.117.194-.009.384-.061.578-.071.838-.044 1.68.038 2.519.046.832.008 2.494.003 2.494.003s.18-3.708-.121-5.525c-.552-3.33-1.754-6.54-3.057-9.654-.72-1.721-1.771-3.284-2.614-4.948q-.348-.7-.683-1.407M99.761 173.397l-.161.763-.006 2.805 2.138-.069v-.523s-.04-.524-.06-.765l-.181-2.212zm25.101.12-1.69 1.247-.161 3.298 2.051.172s-.176-.997-.241-1.498c-.017-.134-.036-.268-.04-.403-.034-.938.08-2.816.08-2.816zm8.206.804-1.931.483-.161 3.741 2.173.483.201-.363s-.283-1.085-.323-1.246.041-3.098.041-3.098m-25.463.886-1.508.141-.02 2.191.442.282.925-.12zm64.598.083a10 10 0 0 0-.963.042 9 9 0 0 0-1.825.333c-.778.238-1.526.567-2.227.98-.738.437-1.482.847-2.042 1.566-2.606 3.348-7.742 10.028-7.742 10.028l-8.609.202s1.594-3.504 2.254-5.31c.124-.343.286-.683.321-1.046.025-.255.047-.542-.08-.764-.124-.216-.367-.365-.604-.442a.96.96 0 0 0-.562 0 1.44 1.44 0 0 0-.684.442c-1.692 2.007-3.098 7.241-3.098 7.241l-1.448.04s-1.215-2.804-2.413-3.621c-.261-.178-.611-.195-.926-.201-.232-.005-.498-.018-.683.121-.217.161-.343.455-.363.724-.012.169.089.329.161.482.463.975 1.73 2.736 1.73 2.736l-13.771.393s-.189-.654-.403-.907c-.224-.266-.543-.459-.87-.577-.317-.114-.67-.12-1.006-.107-.4.017-.841.011-1.181.223-.199.124-.333.345-.421.562-.236.588-.225 1.253-.23 1.886-.009 1.221.174 2.417.386 3.642.053.305.267.601.523.779.295.205.688.233 1.046.253.35.019.719.001 1.044-.132.235-.097.441-.269.603-.464.186-.224.31-.501.397-.779.071-.23.095-.719.095-.719l15.799-.031-4.546 10.218 2.012 1.045 4.425-9.814 7.602 10.297 1.686-.93-7.478-10.775s2.396-.132 3.594-.13c1.149 0 2.297.085 3.445.13.993.039 1.986.057 2.977.121.825.053 1.659.376 2.471.219.406-.078.777-.313 1.106-.563.363-.276.628-.661.926-1.006a45 45 0 0 0 .928-1.145s2.026-2.931 3.057-4.385c.689-.971 1.263-2.04 2.091-2.896.597-.616 1.308-1.121 2.037-1.573.702-.437 1.449-.8 2.227-1.081.472-.17.962-.327 1.463-.353.576-.029 1.152.358 1.715.232.265-.059.497-.246.684-.443.223-.235.456-.521.482-.844a.84.84 0 0 0-.24-.644c-.184-.177-.473-.204-.725-.241-.701-.102-1.423-.029-2.125.071a9.2 9.2 0 0 0-1.776.451c-.905.321-1.799.702-2.616 1.207-.584.361-1.115.811-1.609 1.288-1.155 1.117-2.128 2.409-3.137 3.66-1.267 1.572-3.661 4.827-3.661 4.827l-1.528-1.81s3.613-4.797 5.269-6.717c.582-.676 1.127-1.398 1.81-1.971.573-.481 1.222-.874 1.891-1.207.589-.293 1.207-.552 1.851-.684.641-.132 1.322.041 1.961-.102.258-.058.544-.116.734-.301.168-.164.254-.41.286-.643.03-.22-.003-.444-.095-.646-.074-.161-.175-.39-.352-.399q-.525-.033-1.05-.038m-53.295.038-1.529.28v.564l.032 1.357-.565.544 1.82.271.685-.282s-.013-.288-.031-.432c-.035-.284-.151-.443-.151-.845s-.261-1.457-.261-1.457m-6.456.213a.7.7 0 0 0-.221.027c-.241.081-.765.121-.765.121l-.11 2.373 1.096.071 1.026-.151-.483-2.374s-.294-.067-.543-.067m-9.423 7.158-1.659.432-.242.563.04 2.213 1.731.16zm8.035.331-1.458.664-.09 2.816 1.367.191zm6.035.382-1.208 1.046-.121 2.575h1.369zm9.28 5.529a.7.7 0 0 1 .213.027c.108.027.22.054.313.114.113.072.206.176.285.285.08.112.18.232.184.37.032 1.137.062 2.224.072 3.427.002.188-.211.327-.37.427a.64.64 0 0 1-.313.085c-.101.004-.2-.032-.299-.057-.106-.027-.217-.045-.312-.099a.7.7 0 0 1-.27-.242c-.111-.192-.119-.483-.128-.654-.052-.957-.167-1.973-.157-2.987.002-.157.127-.291.228-.412a.8.8 0 0 1 .241-.2.8.8 0 0 1 .313-.085zm-9.102 6.966a.6.6 0 0 0-.298.058c-.136.067-.202.226-.314.327-.134.124-.252.286-.425.342-.29.094-.611-.088-.912-.043-.219.033-.462.076-.625.228-.077.071-.043.226-.128.285-.063.043-.152.008-.227.014-.19.015-.396-.022-.569.057-.113.051-.157.204-.271.255-.143.065-.313.054-.469.043-.311-.022-.6-.189-.911-.213-.132-.011-.304-.066-.397.028-.231.234-.135.663-.057.981.103.424.361.814.668 1.124.547.551 1.273.915 1.991 1.209a9.2 9.2 0 0 0 2.773.654c1.068.079 2.149-.069 3.2-.27.418-.08.88-.118 1.223-.37.13-.095.262-.237.271-.398s-.138-.292-.228-.426c-.327-.486-.72-.928-1.123-1.352a17 17 0 0 0-1.635-1.507c-.456-.368-.871-.864-1.437-1.01a.5.5 0 0 0-.1-.016m14.933 7.824s-.429 1.241-.811 1.763c-.537.734-1.294 1.287-2.019 1.835-.695.525-1.417 1.038-2.218 1.38-.423.18-.88.292-1.337.341-.373.04-.752-.093-1.124-.043a2.4 2.4 0 0 0-.768.242c-.345.179-.574.543-.925.711-.237.113-1.16.179-.915.277 1.092.432 1.768.743 2.665.989 1.093.3 2.171.597 3.285.811 1.237.237 2.539.331 3.797.398.966.052 1.977.018 2.944 0 .346-.007.822.141 1.124-.028.152-.086.251-.511.284-.683.033-.17-.033-.352-.099-.513-.335-.804-.894-1.504-1.465-2.161-.344-.395-.834-.649-1.166-1.053-.286-.346-.566-.722-.697-1.151-.139-.454.006-.955-.072-1.423-.096-.578-.483-1.692-.483-1.692m-18.332 7.466-3.712.271s-2.133.427-2.247.483c-.114.057-.768.399-.768.399l-.725.341 5.546 4.466 2.062.526 2.631-2.475.299-2.574s-.654-1.352-.725-1.366-2.361-.071-2.361-.071m27.576 3.114c-.435.031-.302 3.519-.256 5.974.018.958-.186 1.444-.128 1.977.018.16.054.32.114.469.07.173.151.353.285.484.213.21 1.009.398 1.009.398l4.764-8.135s.017-.768 0-1.152c-.014-.323-.017-.65-.085-.967-.051-.24-.346-1.415-.583-1.351-.962.261-4.976 2.117-5.12 2.303m9.148-1.777s-.29.585-.341.825c-.068.317-.071.644-.085.967-.017.384 0 1.152 0 1.152l4.533 8.334s1.027-.387 1.241-.597c.134-.131.214-.311.285-.484.06-.149-.016-1.869-.075-2.958-.046-.825.112-2.421.06-3.243-.031-.504.423-2.93-.1-3.029-.32-.06-2.925-1.094-4.295-1.508-.413-.124-.925-.054-1.223.541"/><path fill="#008600" d="M101.538 164.892c-.096-.001-.194.01-.289.017-.424.032-.836.167-1.246.281-.245.068-.499.124-.725.242-.4.207-.829.434-1.086.804-.166.241-.133.572-.241.845-.194.49-.385 1.002-.724 1.407-.325.39-.817.603-1.206.926-.14.116-.333.195-.403.362-.13.309-.084.694.04 1.006.053.132.244.184.282.321.04.145-.026.303-.08.443-.073.191-.31.318-.322.523-.023.383.269.727.483 1.046.142.213.312.417.522.563.346.24.784.308 1.166.482.273.125.52.31.805.403.234.075.482.153.724.121.19-.026.357-.146.523-.242.242-.139.427-.375.684-.483a.95.95 0 0 1 .443-.079c.156.013.34.04.442.159.089.104-.006.297.081.403.064.079.18.11.282.121.258.025.504-.139.763-.162.335-.027.684.135 1.007.041.203-.059.349-.239.522-.362.149-.106.443-.321.443-.321s.282-.052.362.04c.263.305-.104.809-.04 1.206.049.31.11.653.321.885.171.186.436.277.684.322.159.029.328.007.483-.04.132-.04.226-.181.362-.202.19-.028.387.045.562.121.151.066.246.239.403.282.363.1.751-.046 1.126-.081.242-.022.509.031.725-.08a.83.83 0 0 0 .361-.403c.109-.246-.119-.623.081-.804.138-.125.407-.104.563 0 .205.137.142.481.282.684.167.242.377.478.643.603a.6.6 0 0 0 .322.041c.227-.027.417-.209.644-.242.186-.027.385-.022.562.041.155.054.243.248.403.281.335.07.68-.095 1.005-.201.183-.059.381-.113.524-.241.291-.261.385-.681.603-1.006.075-.111.123-.257.241-.322.153-.084.412-.175.523-.04.159.194-.167.476-.201.724-.036.266-.085.55 0 .805.063.19.197.367.363.483.229.16.534.317.804.241.174-.049.202-.319.362-.403.191-.1.428-.084.643-.08.164.003.341.002.483.081.142.078.17.307.322.362.255.092.57.015.805-.121.412-.24.702-.686.884-1.127.088-.212-.015-.475.081-.683.091-.199.233-.424.442-.483.094-.027.196.033.282.081.267.145.431.433.684.603.248.168.505.415.805.402.204-.009.366-.188.522-.321.094-.081.12-.258.241-.283.118-.023.202.162.322.162s.204-.144.323-.162c.296-.042.587.12.884.162.267.037.541.028.805.08.137.027.271.072.401.121.152.057.292.144.443.201.171.065.345.201.523.16.214-.048.362-.26.483-.441.133-.202.152-.46.241-.685.098-.245.322-.723.322-.723s.352.254.443.441c.1.207-.053.498.081.685.181.253.56.272.844.402q.359.168.724.321c.173.072.336.196.522.202.267.008.507-.171.765-.242.226-.062.45-.14.684-.16.214-.018.431.012.643.04.326.044.637.193.966.201.257.006.539.004.765-.121.233-.129.344-.405.522-.603.171-.191.302-.434.523-.563.25-.146.631-.006.844-.202.188-.172.208-.471.242-.724.036-.265-.116-.547-.04-.804.064-.222.335-.342.402-.563a2.2 2.2 0 0 0-.04-1.327c-.059-.173-.273-.268-.322-.443-.048-.168.097-.358.04-.523-.071-.207-.264-.356-.442-.483-.166-.117-.404-.113-.563-.241-.233-.186-.315-.512-.524-.724a2 2 0 0 0-.482-.362c-.15-.078-.34-.068-.482-.161-.151-.098-.216-.297-.363-.402-.166-.119-.403-.116-.563-.242-.158-.124-.182-.393-.362-.483-.12-.059-.273-.034-.402 0-.105.028-.178.13-.282.161-.232.069-.483.015-.724.041-.256.027-.537-.002-.764.121-.175.094-.259.304-.403.442-.164.158-.399.251-.522.443-.135.21-.155.477-.202.723-.047.252-.02.516-.08.765-.105.433-.313.835-.483 1.247a61 61 0 0 1-.562 1.287s-.167-.508-.242-.765c-.175-.599-.314-1.208-.483-1.809-.128-.458-.228-.925-.402-1.368-.132-.335-.18-.771-.483-.966-.315-.203-.762.053-1.126-.04-.261-.066-.477-.253-.724-.362-.303-.134-.716-.104-.925-.362-.154-.19.058-.557-.121-.724-.108-.101-.295-.06-.442-.04-.228.03-.495.068-.644.242-.126.145-.037.39-.12.563-.129.265-.348.482-.564.683-.168.158-.423.219-.563.403-.07.091-.042.239-.121.322-.141.148-.382.146-.563.241-.154.082-.348.134-.442.281-.155.239-.074.565-.121.845-.058.35-.067.717-.202 1.046-.091.224-.189.489-.402.604-.224.12-.509.008-.764 0-.416-.014-.843-.186-1.247-.081a1.2 1.2 0 0 0-.563.361c-.135.146-.13.396-.282.524-.162.136-.45.053-.602.201-.166.159-.174.425-.242.644-.033.105.014.263-.081.321-.105.065-.257-.015-.362-.081-.291-.181-.392-.569-.643-.804-.358-.336-.81-.556-1.207-.844-.109-.079-.19-.214-.321-.242-.351-.073-.705.138-1.047.242-.288.088-.556.232-.844.321-.33.102-.782-.021-1.006.242-.113.133-.022.349-.04.523-.021.215.014.449-.081.643-.066.136-.171.302-.321.322-.215.029-.419-.161-.564-.322-.334-.37-.334-.949-.603-1.367a4.3 4.3 0 0 0-.966-1.086c-.251-.196-.526-.451-.844-.443-.186.004-.337.166-.483.281-.275.218-.461.532-.724.765-.2.179-.393.386-.644.483-.138.052-.442.04-.442.04s-.362-.241-.322-.442c.041-.201.015-.491.081-.725.069-.242.285-.435.321-.684a1.37 1.37 0 0 0-.121-.804c-.17-.339-.562-.512-.804-.804-.319-.387-.499-.883-.844-1.248-.244-.257-.592-.396-.845-.643-.185-.18-.316-.408-.483-.604-.13-.151-.223-.355-.402-.442a.7.7 0 0 0-.275-.057m-3.257 10.65a.2.2 0 0 0-.089.026c-.094.058.007.254-.08.322-.148.116-.376-.016-.563 0-.244.02-.504.014-.724.121-.325.156-.567.453-.804.724-.172.196-.35.4-.443.643-.077.202-.21.471-.08.645.146.195.486.059.723.12.234.061.484.105.684.242.22.15.26.567.524.603.24.032.398-.274.603-.403.198-.126.387-.271.603-.361a4 4 0 0 1 1.086-.283c.475-.056.946.022 1.429.017.465-.004.941-.093 1.387.024.162.043.297.157.443.242.259.152.474.398.763.482.387.112.81.055 1.208 0 .193-.027.37-.193.562-.162.257.043.397.361.644.444.306.101.644.052.966.04a9 9 0 0 0 1.006-.121c.459-.075.903-.245 1.367-.282.295-.023.606-.056.885.04.109.038.282.202.282.202s-.489.232-.725.362c-.411.226-.822.456-1.207.724a6.4 6.4 0 0 0-.844.684c-.135.134-.326.255-.362.443-.051.262.146.514.242.763.058.152.218.282.201.443-.026.248-.422.355-.443.604-.02.239.133.496.322.643.152.118.404.013.563.121.16.109.186.345.321.483.115.117.24.288.403.281.209-.008.306-.29.483-.402.187-.119.385-.241.603-.282.198-.037.453-.094.603.041.173.154-.082.574.121.684.18.097.372-.168.563-.242.264-.103.526-.226.805-.281.224-.045.5.095.683-.041.252-.187.264-.577.322-.885a4.5 4.5 0 0 0 .041-1.528c-.057-.352-.202-.688-.363-1.006-.152-.303-.527-.508-.562-.845-.008-.071.08-.201.08-.201h2.735s-.276.261-.402.402c-.229.257-.503.491-.644.805-.195.434-.247.931-.241 1.408.005.341.029.709.201 1.005.071.123.252.157.322.282.039.071.044.16.04.242-.011.194-.175.368-.161.563.021.293.12.637.362.804.199.136.488.089.725.04.176-.037.318-.168.482-.242.197-.088.387-.228.603-.241.208-.012.401.114.604.161.133.031.265.086.402.081.488-.02.998-.137 1.408-.402.367-.239.695-.595.845-1.006.151-.416.084-.893 0-1.328a2.9 2.9 0 0 0-.403-1.005c-.22-.343-.638-.534-.844-.886-.092-.156-.161-.522-.161-.522s1.15-.075 1.769-.04c.19.01.249.292.403.402.267.193.564.366.885.442.261.062.538.024.804 0a7 7 0 0 0 1.126-.201c.493-.126.951-.373 1.448-.482.475-.104.978-.28 1.449-.161.205.052.326.284.523.363.252.099.541.055.805.119.399.098.757.363 1.166.402.391.039.776-.119 1.167-.161.173-.018.348-.028.523-.04.241-.016.487.01.723-.04.224-.047.431-.156.644-.241.162-.064.308-.189.483-.201.207-.014.408.089.603.161.321.118.593.361.925.442.795.194 1.636.071 2.454.081a93 93 0 0 0 4.023-.04c.483-.017.965-.058 1.448-.081.335-.016.703.106 1.005-.04.111-.054.232-.159.242-.282.019-.252-.217-.471-.402-.644-.189-.175-.427-.343-.684-.361-1.436-.104-2.667-.117-3.983-.323-.407-.063-.804-.19-1.207-.28-.629-.141-1.268-.233-1.89-.403-.245-.067-.477-.181-.724-.242a33 33 0 0 1-1.086-.321l.233.903s-.315.11-.515.103c-.362-.012-.728.058-1.086 0a2 2 0 0 1-.483-.161c-.139-.063-.188-.116-.393-.233a3.4 3.4 0 0 0-.491-.25c-.363-.143-.739-.284-1.127-.322-.335-.034-.674.139-1.005.081-.349-.062-.643-.299-.966-.443-.214-.096-.415-.233-.644-.281a2.3 2.3 0 0 0-.965 0c-.216.048-.711.289-.711.289l.108.877h-1.971l.031-.563s-.488-.038-.675-.121c-.122-.055-.194-.202-.322-.242-.257-.078-.542-.02-.804.041-.199.046-.363.206-.564.241-.237.042-.297-.007-.538-.026-.135-.01-.41-.055-.534-.004-.097.04-.285.322-.285.322l-.01.272h-1.891l-.011-.482c-.005-.202-1.857-.252-2.764-.122-.197.028-.371.146-.563.201-.19.054-.675.13-.675.13s-.244.3-.418.36c-.435.15-.967.14-1.378-.067-.101-.05-.281-.146-.215-.262.056-.098 0-.332 0-.332s-.382-.304-.573-.392c-.296-.136-.64-.134-.965-.161a7 7 0 0 0-1.126 0 5 5 0 0 0-.804.121c-.141.036-.481.136-.481.136l-.033.533c-.01.166-.159.14-.48.142-.325.002-.78-.124-.78-.124l-.074-.396.003-.351s-.6-.282-.811-.383c-.245-.117-.495-.248-.764-.282-.362-.043-.722.134-1.086.121-.3-.01-.596-.082-.885-.161-.303-.082-.845-.274-.845-.274l.038.908c-.632.063-1.372-.016-2.116-.102l-.018-.474s-.647.081-.88-.098c-.125-.096-.043-.339-.162-.443a.42.42 0 0 0-.273-.106m4.077 3.002c-.291.004-.563.191-.827.323a5.3 5.3 0 0 0-1.045.684c-.24.201-.486.413-.644.683a1.8 1.8 0 0 0-.202.644 3.6 3.6 0 0 0 0 1.006c.034.261.145.507.202.764.065.293-.008.637.161.885.213.314.589.657.965.604.179-.025.204-.316.362-.403.143-.078.32-.088.483-.08.263.012.522.096.764.201.16.07.275.233.442.282.155.044.325.026.484 0 .209-.034.399-.141.602-.202.2-.059.418-.068.604-.161.274-.135.724-.563.724-.563s.136-.533.121-.804c-.018-.306-.217-.581-.242-.886-.023-.268.109-.535.08-.804a2.1 2.1 0 0 0-.28-.884 1 1 0 0 0-.322-.323c-.169-.106-.376-.133-.564-.2-.403-.146-.815-.268-1.207-.443-.207-.093-.376-.306-.603-.322q-.029-.002-.058-.001m1.752 6.571a2 2 0 0 0-.246.027c-.172.029-.315.15-.482.202-.131.039-.458.08-.458.08l-.016.394s-.68.109-1.029.053a1.2 1.2 0 0 1-.549-.206c-.161-.121-.304-.228-.483-.241-.211-.015-.4.139-.603.201-.28.086-.555.201-.845.241-.2.029-.447-.127-.603 0-.105.087-.13.275-.08.402.09.233.391.31.603.443.192.121.38.276.603.322.158.033.327.002.483-.04.33-.09.59-.374.925-.443.355-.074.733-.043 1.086.04.158.037.282.161.443.201s.641.146.965.202q.3.051.604.08c.227.022.491.163.684.041.122-.078.133-.261.16-.403.046-.237.09-.501 0-.725a1.56 1.56 0 0 0-.764-.804.86.86 0 0 0-.398-.067m14.671.406a3 3 0 0 0-.274.024c-.252.033-.477.182-.725.241-.184.044-.656.071-.656.071s0 .47.008.727c-.041.098-.059.164-.156.207-.208.095-.46.086-.684.041-.176-.037-.332-.145-.483-.242a2 2 0 0 1-.2-.161c-.202-.04-.381.031-.564.081-.209.056-.394.188-.604.241-.222.057-.507-.067-.683.081a.41.41 0 0 0-.121.402c.061.201.297.306.483.402.284.146.624.137.925.241.221.077.414.234.643.282.289.06.591-.016.886 0 .242.013.48.079.723.08a5.3 5.3 0 0 0 1.208-.121c.194-.043.373-.139.563-.201.318-.103.699-.078.965-.281.225-.172.449-.441.442-.724-.008-.309-.311-.54-.522-.765-.21-.222-.438-.455-.725-.562a1.2 1.2 0 0 0-.449-.064m-7.837.064-.047.848s-.42.05-.625.009c-.265-.054-.743-.326-.743-.326l.011-.337c-.161.04-.927-.045-1.372.007-.191.022-.401.017-.562.121a.9.9 0 0 0-.363.482c-.049.168-.078.395.04.523.175.189.508.101.765.121q.523.04 1.046 0c.27-.02.537-.168.804-.121.166.03.282.191.443.242.218.069.454.082.684.081.298-.004.678.093.884-.121.094-.098.059-.269.041-.403a1.35 1.35 0 0 0-.202-.523c-.135-.218-.296-.444-.523-.563-.084-.044-.281-.04-.281-.04m62.835.621c-.218 0-.392.273-.524.459-.099.139-.135.316-.171.484-.071.334.018.697-.086 1.023-.078.251-.206.502-.397.682-.155.146-.422.133-.569.285-.219.225-.254.576-.398.854-.228.437-.482.859-.739 1.279-.155.251-.274.535-.484.74-.248.24-.691.253-.883.54-.17.255-.175.606-.141.911.06.537.162 1.185.596 1.507.275.204.684.118 1.025.085.245-.023.469-.15.71-.199.291-.059.592-.17.883-.114.17.033.293.192.454.257.209.084.43.193.655.17.515-.051.918-.479 1.394-.682.279-.119.67-.072.853-.314.213-.28.091-.7.085-1.052a5 5 0 0 0-.113-1.024c-.097-.439-.288-.852-.427-1.28-.222-.681-.532-1.341-.654-2.047-.049-.281.015-.573-.029-.854-.032-.205-.071-.415-.17-.597-.103-.188-.298-.312-.427-.484-.149-.198-.154-.585-.398-.625a.2.2 0 0 0-.045-.004m11.069 11.818c-.318.003-.654.055-.955.047-.674-.018-1.366-.052-2.02.113-.344.088-.763.164-.967.455-.18.258.095.682-.085.939-.193.275-.609.28-.91.426-.229.111-.494.172-.683.342-.169.15-.33.347-.37.569-.037.211.047.434.142.626.164.332.41.638.711.853.265.188.595.267.91.341.343.082.701.101 1.053.114.275.01.553-.07.825-.028.338.052.652.208.967.341.429.183.822.443 1.251.626.444.189.89.402 1.366.484.336.058.682.013 1.024 0 .352-.014.738.072 1.053-.086.269-.136.605-.38.597-.682-.016-.57-.777-.837-1.195-1.223-.327-.302-.689-.563-1.024-.854-.203-.176-.431-.33-.598-.54-.195-.247-.385-.52-.455-.826a1.1 1.1 0 0 1 .029-.512c.044-.164.188-.29.228-.454.041-.176.018-.362 0-.541-.01-.096.014-.22-.057-.285-.222-.203-.52-.248-.838-.245z"/><path fill="#fff" d="m137.843 201.569 5.319 2.304s1.494.552 2.19 1.024c.126.086.166.273.17.427.006.21-.105.41-.199.597-1.104 2.215-2.425 4.401-4.21 6.115-.525.506-1.124 1.088-1.848 1.167-.391.042-.778-.188-1.11-.398-.407-.259-.744-.631-1.024-1.025-.205-.289-.343-.624-.462-.958a12 12 0 0 1-.561-2.341 17.6 17.6 0 0 1-.171-3.185c.022-.593.064-1.194.228-1.764.163-.571.358-1.166.739-1.622.096-.114.23-.2.37-.255.178-.071.569-.086.569-.086"/><path fill="#969496" d="m143.303 203.901 1.707.74s.356.17.484.313a.6.6 0 0 1 .142.284c.03.19-.02.389-.085.569-.146.401-.442.73-.666 1.093q-.297.477-.597.954c-.258.415-.5.842-.772 1.248-.427.639-.861 1.277-1.35 1.871-.323.392-1.042 1.114-1.042 1.114l-.637-.05-.113-.285.455-.797 3.356-4.408.199-.455s-.017-.335-.085-.484c-.087-.19-.171-.37-.398-.484-.228-.113-.601-.128-.796-.341-.102-.11-.139-.277-.143-.426a.5.5 0 0 1 .085-.313c.061-.077.256-.143.256-.143m-7.025 5.092c-.164.258.028.613.092.912.082.386.231.755.374 1.123.061.155.126.309.206.456q.134.249.306.472c.161.207.278.533.537.578.353.061.654-.299.953-.496q.346-.22.632-.514c.122-.127.253-.261.313-.426a.85.85 0 0 0 .029-.427c-.025-.142-.051-.318-.171-.398-.103-.068-.261-.058-.37 0-.259.14-.255.554-.484.739-.142.116-.329.213-.511.2-.233-.018-.451-.174-.608-.347-.186-.206-.249-.499-.337-.763-.063-.184-.078-.382-.136-.569-.062-.197-.072-.439-.224-.579-.069-.063-.176-.081-.27-.079-.117.004-.269.019-.331.118"/><path fill="#fff" d="M158.712 198.678s-.254 1.24-.514 1.812c-.293.646-.715 1.231-1.159 1.784-.22.272-.446.551-.737.746-.144.097-.309.201-.484.199-.291-.005-.797-.359-.797-.359l-1.297 1.108s.104.671 0 .981c-.132.395-.469.692-.75 1a9 9 0 0 1-1.166 1.053c-.319.247-1.011.666-1.011.666s1.091.128 1.637.102a6.2 6.2 0 0 0 1.422-.228 6.8 6.8 0 0 0 1.451-.626c.538-.304 1.065-.648 1.507-1.08.441-.431.798-.948 1.11-1.479a9 9 0 0 0 .853-1.935c.21-.699.406-1.431.37-2.161-.027-.547-.435-1.583-.435-1.583"/><path fill="#969496" d="m154.649 203.173-.925.795s-.05.397-.091.593c-.055.265-.071.552-.211.784-.184.307-.501.515-.784.735a7.5 7.5 0 0 1-1.107.703c-.328.173-.663.353-1.026.433-.288.063-.884.03-.884.03s.332.204.513.272c.212.079.438.124.664.15.253.03.514.062.764.011a3 3 0 0 0 1.207-.534c.316-.241.553-.581.754-.925.185-.317.34-.664.402-1.026.049-.284-.03-.864-.03-.864l1.086-1.036zm4.063-4.495s-.173.53-.262.794c-.135.403-.229.824-.412 1.207-.171.358-.401.686-.634 1.006-.274.378-.553.758-.895 1.076a1.7 1.7 0 0 1-.422.301c-.138.066-.442.121-.442.121l.15.211s.266.024.393-.009a1.9 1.9 0 0 0 .664-.353c.288-.229.503-.539.724-.834.216-.29.424-.591.583-.915.175-.359.3-.741.402-1.127.09-.339.163-.685.181-1.035.008-.148-.03-.443-.03-.443"/><path fill="#fff" d="M134.57 157.645c.111.136.299.229.341.399.043.169-.132.338-.114.512.025.227.163.432.285.626.173.272.415.494.626.739.131.153.251.317.398.455.227.213.708.26.74.569.009.094-.147.127-.185.213-.049.109-.038.237-.043.356-.008.218.074.441.029.654-.018.083-.039.188-.114.228a.32.32 0 0 1-.327-.043c-.149-.129-.092-.384-.157-.569-.059-.17-.102-.355-.213-.498a.9.9 0 0 0-.37-.284c-.115-.047-.251-.078-.37-.043-.129.038-.187.306-.312.256-.232-.091-.009-.508-.1-.739-.105-.27-.338-.471-.498-.712-.118-.177-.221-.364-.341-.54-.244-.359-.629-.64-.768-1.053m15.844-42.814c-.176-.03-.342.101-.511.157-.11.035-.213.125-.327.113-.1-.01-.161-.126-.256-.157-.132-.042-.3-.107-.413-.029-.139.1-.342-.022-.512-.013-.038.001-.086-.013-.114.013-.059.057.013.183-.043.243-.08.086-.225.072-.341.085-.462.049-.929-.036-1.394-.043-.142-.002-.298-.061-.426 0-.115.055-.139.224-.242.299-.193.14-.432.221-.668.256-.202.03-.419.025-.612-.042-.135-.047-.219-.199-.356-.243-1.066-.34-2.237-.051-3.356-.071-.735-.012-1.47-.039-2.204-.028-.233.003-.471.081-.697.028-.115-.027-.202-.127-.313-.17a2.3 2.3 0 0 0-.612-.157 2.6 2.6 0 0 0-.739.043c-.118.023-.221.108-.341.114-.248.011-.478-.146-.726-.171-.169-.018-.407-.121-.511.014-.063.081.007.219.07.299.123.152.34.198.526.256.206.064.43.05.641.1.092.021.206.015.27.085.073.078.084.206.071.313-.006.052-.027.112-.071.142-.15.098-.448-.126-.541.028-.04.067.041.163.1.214.094.08.233.093.356.098.183.009.371-.027.54-.098.166-.07.273-.25.441-.314.165-.062.359-.113.526-.056.112.037.18.152.255.241.111.131.144.332.286.427.136.092.318.1.483.1.233 0 .45-.142.682-.143.146 0 .284.066.427.086.283.04.569.091.853.071.277-.02.535-.197.811-.184.185.008.343.147.527.17.221.028.45.005.668-.043.154-.034.284-.173.441-.17.159.002.282.18.441.184.267.007.492-.216.753-.27.219-.045.445-.043.668-.042.414.001.843-.038 1.238.085.142.044.246.172.384.227.28.112.581.188.882.199.192.008.378-.068.569-.085.316-.028.637.006.953-.028.177-.02.347-.098.526-.1.143-.002.282.063.427.071.44.025.883-.033 1.322-.071.519-.045 1.03-.164 1.55-.184.493-.02.988.009 1.48.057.31.029.617.086.923.141.472.084.939.193 1.409.285.653.127 1.297.346 1.963.37.372.013.738-.095 1.108-.128.303-.027.608-.035.911-.057.446-.033.905.002 1.336-.114.173-.046.31-.189.484-.227.565-.124 1.158-.024 1.735.014.272.017.548.03.811.099.308.082.569.307.881.37.228.046.475.065.698 0 .167-.05.268-.26.441-.284.245-.035.468.162.71.213.304.064.625.192.925.114.171-.045.26-.255.426-.314.193-.067.427-.113.612-.028.119.056.126.251.242.313.269.142.644.203.91.057.181-.099.296-.334.298-.54.004-.198-.099-.427-.27-.527-.679-.399-1.574.047-2.361.086-.521.026-1.049.19-1.564.1-.163-.029-.292-.167-.455-.2-.599-.123-1.223.006-1.835.014-.991.014-1.982.101-2.972.057-.305-.014-.618-.009-.91-.099a2 2 0 0 1-.583-.314c-.203-.148-.307-.431-.54-.525-.581-.233-1.252.037-1.877.014-.295-.011-.599.01-.882-.071-.169-.048-.297-.211-.471-.242-.318-.059-.643.149-.966.113-.255-.028-.474-.205-.726-.255-.26-.052-.53-.041-.796-.043-.251-.002-.522-.069-.754.029-.133.056-.201.206-.312.298-.081.067-.156.152-.257.185-.176.057-.384.073-.554 0-.126-.054-.177-.213-.285-.299-.146-.116-.302-.235-.483-.284-.159-.044-.34.051-.497 0-.123-.04-.187-.206-.314-.227m13.449.24c-.079.003-.143.022-.166.072-.03.067.076.138.143.17.102.051.24.068.341.015.055-.028.115-.096.1-.156-.007-.025-.246-.106-.418-.101m-2.885.279a.7.7 0 0 0-.295.049c-.049.021-.126.062-.114.114.035.152.287.129.441.157.331.059.686.109 1.009.014.05-.015.123-.035.129-.086.006-.067-.083-.113-.143-.142-.155-.074-.341-.047-.512-.057-.169-.009-.345-.048-.515-.049m-29.814.517c-.343 0-.701.088-1.007.206-.067.025-.161.069-.161.14 0 .09.131.125.201.181.045.036.086.082.141.1.42.138.932.22 1.327.02.052-.026.057-.103.101-.14.068-.058.213-.035.242-.121.023-.071-.037-.162-.101-.201a1.4 1.4 0 0 0-.743-.185m41.353.979a.5.5 0 0 0-.13.018c-.093.028-.143.134-.227.185-.07.043-.168.043-.229.1-.066.061-.15.153-.127.241.048.186.299.261.484.313.187.053.392.025.582-.014.19-.038.35-.182.541-.213.183-.03.432.167.555.029.092-.105.01-.299-.071-.413-.085-.12-.24-.187-.384-.214-.137-.025-.274.054-.413.057-.194.004-.391-.091-.581-.09zm-27.105 3.677q-.14 0-.271.034c-.16.041-.278.19-.436.236-.222.064-.46.04-.69.046-.396.01-.819-.163-1.188-.02-.146.056-.198.258-.341.321-.148.066-.323.063-.483.041-.149-.022-.282-.108-.422-.162-.141-.053-.276-.127-.423-.16-.191-.042-.393-.082-.583-.04-.164.036-.28.196-.443.241-.281.077-.582.03-.874.032-.944.008-1.897.072-2.833-.057-.286-.039-.554-.164-.838-.216-.179-.033-.367-.011-.542-.06-.108-.03-.243-.047-.302-.141-.996-.066-2.025-.034-3.038-.04-.315-.003-.631-.022-.945 0-.149.009-.406-.085-.442.06-.05.2.433.167.502.361.026.072.016.218-.06.221-.704.03-1.126-.009-1.689 0-.382.007-.766.01-1.147.041-.323.026-.698-.063-.965.121-.082.056-.157.164-.141.261.038.225.29.382.503.463.457.175.979-.008 1.468-.02.59-.014 1.187.034 1.77-.061.304-.049.58-.217.885-.261.551-.08 1.113 0 1.669 0 .651 0 1.303.045 1.952 0 .195-.014.387-.061.582-.081.203-.02.408-.041.612-.038.354.005.707.052 1.058.099.114.015.234.019.342.06.279.105.484.362.764.463.255.092.544.196.805.121.119-.034.173-.183.282-.242.171-.092.368-.137.562-.161.187-.022.393-.058.563.02a.57.57 0 0 1 .242.262c.057.11-.021.291.081.361.166.117.4-.091.603-.08.192.011.371.114.563.141.339.048.683.035 1.026.04.703.011 1.417.094 2.111-.02.342-.056.645-.262.986-.321.476-.083.965-.047 1.448-.04.363.004.723.046 1.086.06.288.011.587.095.865.02.197-.054.325-.268.523-.322.42-.115.872.024 1.308.02.382-.003.814.15 1.146-.04.076-.044.15-.134.14-.221-.015-.142-.184-.222-.301-.302a1 1 0 0 0-.363-.162c-.637-.131-1.315.157-1.951.021a.55.55 0 0 1-.26-.121c-.051-.047-.032-.179-.101-.181-.84-.029-1.434.148-2.294.121-.167-.006-.282-.189-.441-.242-.253-.083-.539-.022-.791-.108-.211-.072-.363-.276-.578-.334a1 1 0 0 0-.271-.034m8.874.994a5 5 0 0 0-.757.083c-.185.033.236.32.399.426.247.163.547.245.838.3.289.054.589.03.882.028.2-.002.429.079.597-.028.077-.049.173-.163.129-.242-.058-.105-.238-.014-.356-.029-.234-.028-.534.056-.697-.113-.076-.079.033-.248-.043-.327-.086-.092-.245-.062-.37-.072-.229-.017-.414-.031-.622-.026m3.875.366-.45.002c-.074.067-.091.219-.029.298.083.105.264.049.398.057.45.025.902-.001 1.351-.043.215-.02.611.114.64-.099.016-.114-.203-.111-.313-.142-.142-.041-.293-.046-.441-.057-.236-.018-.473-.012-.711-.014a22 22 0 0 0-.445-.002m5.364 5.649c-.232-.002-.469.06-.694.115-.299.073-.561.254-.856.342a8.5 8.5 0 0 1-1.317.261c-.574.075-1.157.037-1.73.111-.349.045-.687.161-1.036.201-.384.043-.773-.003-1.156.04-.268.03-.543.055-.795.151-.156.06-.439.094-.433.262.006.154.262.179.413.211.303.062.617-.043.925-.061.433-.024.865-.058 1.298-.06.627-.003 1.253.086 1.88.071.306-.008.611-.043.915-.081.273-.033.541-.106.815-.131.344-.031.696.043 1.036-.02.301-.056.563-.256.864-.312.333-.061.685-.089 1.016-.02.235.05.421.244.654.302.277.07.573.096.855.05.196-.031.356-.199.553-.221.152-.017.305.03.452.071.268.073.501.263.774.311.48.084.973-.037 1.459-.05.614-.015 1.227-.003 1.84-.03.514-.023 1.033-.016 1.538-.111.169-.031.327-.11.494-.151.192-.048.385-.1.582-.11.185-.009.371.021.553.05.272.042.531.167.806.181.337.017.672-.069 1.005-.121.28-.044.554-.126.834-.161.164-.021.329-.021.493-.029.603-.033 1.207-.086 1.811-.081.336.003.677.134 1.005.06.115-.026.29-.054.312-.17.014-.073-.076-.136-.141-.172-.345-.194-.791-.078-1.176-.17-.214-.052-.409-.169-.625-.212-.438-.09-.89-.077-1.336-.1-.322-.017-.647-.073-.966-.031-.299.04-.569.205-.865.262-.195.037-.398.01-.593.05-.232.047-.44.187-.674.221-.219.032-.443-.014-.664-.02-.797-.022-1.594-.054-2.393-.06-1.2-.01-2.402.1-3.6.031-.243-.015-.481-.09-.724-.092a1.4 1.4 0 0 0-.352.04c-.167.043-.312.165-.483.192a1.4 1.4 0 0 1-.604-.04c-.129-.039-.232-.138-.351-.201-.142-.075-.283-.154-.433-.212-.254-.099-.534-.122-.785-.231-.06-.026-.105-.086-.17-.101a1 1 0 0 0-.23-.024m-54.608 5.374c-.1 0-1.87.04-1.991.06s-.281.161-.281.161l.06.1-.744.021-.261.08-.283.282.605.161 1.206.06s.442-.181 1.005-.121c.563.061 1.589.061 1.589.061l.363-.121.241-.201.02-.201c-.1.02-1.186 0-1.186 0l-.02-.242s-.222-.1-.323-.1m83.018.28a5 5 0 0 0-.747.047c-.356.043-.695.186-1.052.227-1.733.2-3.489.086-5.234.086-1.157 0-2.317.043-3.47-.057-.602-.052-1.187-.29-1.792-.284-.375.003-.78.017-1.109.198-.147.081-.188.301-.342.37-.328.149-.72.017-1.08.029-.626.023-1.278-.096-1.878.085-.212.064-.613.125-.569.342.101.487.984.16 1.48.199.766.061 1.543-.051 2.304.057.184.026.371.063.54.141.179.084.31.249.484.342.277.149.567.361.882.341.355-.023.597-.409.938-.512.319-.096.663-.066.995-.085 3.106-.17 6.219-.231 9.33-.227.702.001 1.488.391 2.106.057.126-.069.291-.241.227-.37-.089-.179-.399-.035-.598-.057-.361-.041-.841.131-1.08-.142-.069-.079-.047-.22 0-.313.079-.158.457-.14.426-.314s-.336-.12-.512-.141a3 3 0 0 0-.249-.018zm-80.162.082-.241.08-.1.162-.322.16.563.101 1.73-.061s.724-.02.965.02c.242.041.322.142.322.142s-.262.181-.141.201.242-.061.644 0c.402.06 1.649.08 1.83.08s.684-.121.684-.121-.222-.241-.342-.261a5 5 0 0 1-.342-.081s-.241-.181-.362-.181h-.785l-.381-.08-.221-.161h-1.047l-.442.121-.664-.041-.382-.04c-.081 0-.966-.04-.966-.04m51.626 5.17c-.228 0-.569.228-.796.284-.228.057-1.138 0-1.138 0l-.085.2s-.057.284-.057.398.341.17.682.228.37.227.37.227l.853-.142s.115-.028.37 0c.256.029.484.142.683.114.199-.029 1.223-.114 1.479-.142.256-.029.74-.057 1.309-.057.568 0 .255.17.398.256.142.085.967 0 1.678.057s.995.113 1.166.141c.171.029.739-.057.91-.113.171-.057.426-.057.654-.057s2.076 0 2.219-.028c.142-.029.597.028.739.057.143.028.313.199.626.284s.512-.227.512-.227.456-.057.853-.057c.399 0 .598.198.74.198s.796-.284.796-.284.54-.085.739-.114c.2-.028.456 0 .598.029s.512.199.967.17.484-.255.484-.255.711.028.853.056c.142.029.341.199.626.228.284.028.597-.199.711-.313s.227-.028.455-.028c.227 0 .597-.142.683-.256.085-.114 0-.228-.086-.342s-.37-.029-.54-.057c-.171-.029-.313-.142-.54-.199s-.883-.028-1.48-.057c-.597-.028-1.422 0-1.621 0s-.853.143-1.138.171-.853.171-1.279.171c-.427 0-.598-.171-.797-.2s-.91.057-1.394.114-.569.085-1.223.057-.426-.056-1.024-.199c-.597-.142-.824-.057-1.08-.085s-1.764-.029-1.935-.029c-.17 0-.853.228-.853.228s-4.295-.17-4.409-.17-.91-.228-.91-.228-.54-.029-.768-.029m-24.478-13.204a1 1 0 0 0-.22.039.87.87 0 0 0-.527.518c-1.019 4.577-1.663 9.224-2.135 14.053.044.415.121.797.405 1.023.254.203.665.278.958.14.375-.175.52-.519.666-1.064a83.7 83.7 0 0 0 1.894-13.932c.033-.205-.19-.468-.387-.597a1.12 1.12 0 0 0-.654-.18m-8.622.5c-.204.006-.41.06-.571.164a.84.84 0 0 0-.374.637c.373 4.562 1.148 9.077 2.155 13.713.172.372.368.705.726.833.32.114.76.063 1.016-.151.326-.274.366-.636.347-1.186a75.5 75.5 0 0 0-2.364-13.529c-.029-.2-.337-.38-.577-.443a1.3 1.3 0 0 0-.358-.038m18.151 3.333a.84.84 0 0 0-.597.222c-2.935 3.546-5.576 7.323-8.152 11.34-.148.383-.253.753-.109 1.082.128.294.45.547.764.561.403.017.68-.219 1.051-.63a82.7 82.7 0 0 0 7.888-11.344c.121-.164.046-.497-.065-.7-.141-.256-.408-.473-.691-.522a1 1 0 0 0-.089-.01zm-26.346 1.334-.084.007c-.269.036-.549.192-.693.422a.78.78 0 0 0-.067.668c1.955 3.75 4.212 7.324 6.698 10.922.272.259.55.475.881.462.297-.011.627-.204.753-.473.16-.343.061-.664-.154-1.126a74 74 0 0 0-6.799-10.695c-.084-.14-.332-.195-.535-.187m32.752 4.88a.8.8 0 0 0-.362.071c-3.923 2.409-7.643 5.13-11.378 8.1-.263.315-.483.631-.453.989.026.319.249.662.542.777.376.146.714.013 1.198-.256a83 83 0 0 0 11.129-8.19c.167-.116.205-.454.164-.683-.05-.287-.233-.579-.484-.717a.8.8 0 0 0-.356-.091m1.997 7.654-.085.007c-4.178 1.093-8.26 2.524-12.424 4.174-.323.211-.606.437-.677.767-.065.296.041.666.273.851.297.234.637.208 1.145.099a77.4 77.4 0 0 0 12.227-4.324c.182-.059.308-.354.334-.572.033-.273-.05-.585-.238-.779a.78.78 0 0 0-.555-.223m16.964 20.039a.1.1 0 0 0-.035.001c-.029.004-.051.033-.061.06-.145.368.095.795.04 1.187a1.5 1.5 0 0 1-.181.563c-.099.161-.335.225-.402.402-.076.201.011.431.04.645.031.224.015.474.141.663.072.108.266.103.322.221.066.14.063.347-.04.463-.183.203-.573.017-.806.161-.158.098-.235.288-.34.442-.103.148-.258.284-.283.462-.017.124.007.281.101.363.164.141.438.013.643.08.146.047.261.164.403.222s.303.183.443.119c.183-.083.17-.363.261-.542.122-.238.267-.463.382-.704.105-.223.178-.46.281-.684.074-.157.218-.29.242-.462.056-.4-.157-.792-.242-1.187-.128-.605-.186-1.231-.402-1.81-.069-.186-.141-.383-.281-.524-.061-.061-.141-.134-.226-.141m-3.714 2.887c-.071.001-.141.022-.183.071-.152.17.008.455 0 .683-.008.175-.092.357-.041.524.038.122.118.266.242.301.136.04.26-.136.402-.14.125-.005.28.006.362.1.094.107-.016.302.06.422.061.094.175.214.281.181.132-.041.133-.247.162-.382.069-.328.145-.695.02-1.006-.077-.132.02-.384-.121-.443-.1-.041-.185.112-.281.162-.085.044-.167.137-.262.121-.112-.02-.167-.156-.241-.242-.088-.101-.118-.269-.242-.321a.4.4 0 0 0-.158-.031m34.793 3.469-.302.02-.161.584.06.824.805.02s.22-.08.301-.161c.081-.08-.08-.341-.1-.421-.02-.081-.201-.363-.201-.363zm-46.05 1.436c-.426.01-.855.115-1.275.053-.042-.007-.093-.073-.121-.041-.138.159.107.446.281.564.256.174.684-.114.926.08.174.142.024.505.201.644.338.265.857.077 1.287.08.859.007 2.096.593 2.574-.121.111-.165-.108-.386-.202-.562-.085-.162-.162-.353-.321-.443-.269-.152-.616-.072-.925-.081-.456-.013-.915.093-1.368.041-.261-.03-.503-.171-.764-.202a2 2 0 0 0-.293-.012m14.438.278c-.152.005-.273.045-.307.177-.08.307.621.281.764.564.091.179-.124.444 0 .602.171.219.53.164.804.202 1.369.188 3.096-.78 4.143.121.114.097-.026.337.081.442.242.238.668.189 1.006.161.507-.041 1.244-.017 1.448-.483.118-.269-.174-.579-.362-.805-.136-.163-.317-.314-.524-.361-.594-.137-1.199.245-1.809.281-1.098.065-2.318.379-3.298-.12-.213-.108-.239-.44-.443-.563-.257-.155-.585-.154-.885-.162-.175-.004-.422-.061-.618-.056m-5.674.02c-.485.012-1.063.364-1.391.036-.197-.097-.515.183-.523.403-.007.18.235.295.402.362a2.17 2.17 0 0 0 1.408.04c.285-.087.718-.225.724-.523.002-.153-.217-.232-.362-.282a.8.8 0 0 0-.258-.036m37.219 1.685c-.39.009-.777.089-1.16.162-.368.07-.712.285-1.086.282-.348-.004-.681-.406-1.006-.282-.209.079-.459.361-.362.562.326.681 1.503.153 2.253.242.819.097 1.643.168 2.453.322.543.103 1.061.335 1.609.402a9.5 9.5 0 0 0 2.415 0c.151-.02.353.005.441-.121.27-.386.248-1.113-.121-1.407-.529-.422-1.333.272-2.01.282-.729.01-1.452-.135-2.173-.242-.364-.054-.718-.19-1.086-.202q-.084-.002-.167 0m-19.234 4.586a1.8 1.8 0 0 0-.671.121c-.333.139-.465.603-.805.724-.481.17-1.019-.048-1.528-.081-.524-.033-1.046-.082-1.569-.121-.375-.027-.75-.081-1.126-.079-.161.001-.413-.106-.483.039-.126.262.28.517.483.725.228.234.493.462.804.563.727.236 1.532-.036 2.293.041.583.058 1.173.134 1.729.321.313.105.567.357.886.442.674.181 1.392.118 2.091.121.55.002 1.099-.06 1.649-.08.59-.021 1.186-.126 1.77-.041.475.069.893.381 1.368.443.479.062.97-.005 1.448-.081.52-.082 1.008-.321 1.528-.402.518-.08 1.046-.081 1.569-.08.484 0 1.008.28 1.448.08.218-.098.493-.329.443-.562-.06-.282-.488-.323-.764-.403-.659-.19-1.367-.122-2.052-.161-.777-.044-1.566.054-2.333-.081-.389-.067-.734-.32-1.126-.362-.415-.044-.831.083-1.247.121-.469.043-1.027.398-1.408.121-.145-.105-.1-.346-.121-.523-.012-.107.074-.244 0-.322-.517-.545-1.509-.011-2.253-.121-.45-.065-.873-.281-1.327-.321-.227-.021-.464-.045-.696-.041m-4.311 4.054q-.252-.001-.503.009c-.433.018-.857.128-1.288.161-.481.037-.976-.061-1.448.04-.34.073-.839.078-.965.403-.08.207.117.453.281.603.211.19.57.121.805.281.204.14.266.443.482.564 2.323 1.298 5.245.914 7.885 1.247.427.053.857.157 1.286.121 1.122-.097 2.147-.714 3.259-.886.65-.1 1.317-.147 1.971-.08.44.045.847.276 1.287.321.347.036.734.117 1.046-.04.23-.116.508-.347.483-.603-.022-.227-.313-.354-.523-.442-.261-.11-.64.114-.845-.081-.137-.131.039-.416-.08-.564-.143-.178-.415-.237-.644-.24-.327-.004-.601.283-.925.321-.79.093-1.598-.063-2.373-.241-.612-.14-1.154-.521-1.77-.643-.606-.121-1.233-.087-1.85-.081-.645.006-1.287.128-1.931.121-.633-.008-1.263-.082-1.891-.161-.081-.011-.16-.032-.241-.041a16 16 0 0 0-1.508-.089m8.628 3.992a2.9 2.9 0 0 0-1.046.2c-.292.112-.504.397-.805.483-.799.229-1.662.052-2.494.041-.939-.013-1.876-.093-2.815-.121-.778-.023-1.565-.158-2.334-.041-.293.045-.754 0-.844.282-.056.174.162.354.322.443.47.262 1.2-.229 1.609.121.136.116.055.355.12.522.089.23.265.418.362.644.072.168.079.36.161.522.142.283.68.471.563.765-.055.139-.293.093-.442.081-.241-.02-.446-.2-.684-.242-1.069-.19-2.193-.252-3.258-.04-.2.04-.504.046-.564.242-.065.213.177.439.363.563.249.167.777-.12.884.16.055.143-.209.227-.282.362-.079.15-.215.323-.16.483.079.229.367.351.603.403.332.072.667-.175 1.006-.161.676.027 1.337.245 1.971.482.438.164.796.52 1.247.644.44.121.911.085 1.367.081.996-.012 1.984-.307 2.977-.242.191.012.419-.006.564.121.181.159.314.453.241.684-.069.22-.489.183-.563.402-.046.132.014.311.121.402.721.612 1.872.446 2.815.362.49-.043 1.129-.037 1.408-.442.122-.178-.184-.484-.041-.645.189-.21.583.061.846-.04.258-.098.386-.419.643-.522.873-.353 1.874-.217 2.816-.242.804-.021 1.622.226 2.413.081.616-.113 1.163-.462 1.731-.724.723-.336 1.544-.547 2.131-1.086.225-.208.274-.692.415-.968-.488.148-1.2-.18-1.742-.279-.334-.061-.627-.291-.966-.322-.296-.028-.589.089-.885.121-.348.036-.696.09-1.046.08-.297-.009-.586-.125-.884-.121-.245.004-.481.101-.725.121-.173.014-.387-.11-.522 0-.308.251.066.916-.242 1.166-.301.246-.779.018-1.167 0-.148-.006-.314-.114-.442-.04-.14.082-.072.345-.201.443-.27.206-.672.093-1.005.161-.38.078-.741.254-1.127.281-.39.028-.942.2-1.166-.121-.096-.135.021-.349.12-.482.251-.337.763-.374 1.086-.643.423-.353 1.315-.746 1.087-1.248-.234-.513-1.127.008-1.69 0-.469-.007-.967-.202-1.407-.04-.17.062-.238.29-.403.362a2.2 2.2 0 0 1-1.328.121c-.211-.046-.523-.11-.563-.323-.067-.355.395-.625.684-.844.733-.554 1.668-.778 2.534-1.085.276-.099.696.011.845-.242.118-.202.006-.52-.161-.684-.499-.49-1.352-.435-2.052-.442zm13.368 4.06a.65.65 0 0 0 .309-.199c-.149-.027-.24.063-.31.199zm-5.479 7.919a5 5 0 0 0-.207.008c-.162.009-.362-.031-.482.08-.203.187-.032.586-.202.805-.102.132-.278.202-.441.241-.418.1-.859-.053-1.288-.04-.296.009-.589.071-.885.081-.483.014-.97.031-1.448-.041-.344-.052-.66-.234-1.005-.282-.386-.052-.872-.252-1.168 0-.195.168-.233.533-.119.764.222.453.842.587 1.327.725.724.205 1.501.089 2.252.121.429.018.858.056 1.287.04a18 18 0 0 0 2.254-.242c.528-.089 1.044-.248 1.568-.362.455-.099.937-.105 1.368-.282.34-.14.778-.265.925-.603.092-.212.048-.526-.121-.684-.532-.498-1.446-.183-2.172-.242-.48-.038-.962-.095-1.443-.087"/><path fill="#006BAD" d="M143.71 160.603c-.056.018-.116.005-.163.02-.107.034-.166.17-.181.281-.02.139.129.064.12.203-.007.117-.094.216-.141.323-.053.121-.145.23-.161.362-.034.291.108.576.161.864.047.248.16.493.141.745-.009.12-.004.306-.121.341-.128.039-.196-.196-.322-.242-.113-.041-.271-.1-.362-.02-.211.187-.047.564-.059.845-.019.443-.006.886-.02 1.328-.005.127.097.334-.02.382-.084.035-.154-.104-.202-.181-.212-.343-.185-.787-.322-1.166a4.4 4.4 0 0 0-.362-.805c-.129-.212-.314-.385-.463-.583-.153-.204-.336-.392-.442-.624-.094-.207-.004-.499-.161-.664-.144-.152-.404-.247-.603-.18-.173.058-.275.266-.322.442-.069.254.028.527.08.784.054.269.197.515.242.784.035.212.122.456.02.645-.038.068-.124.131-.202.121-.173-.025-.191-.339-.361-.383-.129-.034-.269.19-.382.121-.104-.064-.041-.242-.06-.363-.047-.281.008-.601-.142-.844-.13-.212-.358-.395-.603-.442-.184-.036-.418.001-.543.14-.095.106-.08.282-.06.423.062.436.335.817.542 1.207.168.313.301.665.564.904.122.111.278.212.443.222.178.01.328-.143.501-.182.139-.031.284-.018.423-.04.15-.024.329-.002.443-.1.126-.108.016-.455.181-.462s.165.286.222.441c.089.247-.017.593.18.765.106.093.284.01.423.041.118.026.272.021.341.12.105.148-.082.381 0 .543.08.154.25.296.423.301.127.005.243-.101.322-.201.078-.1-.006-.344.121-.361.119-.016.094.244.2.301a.45.45 0 0 0 .423 0c.153-.095.146-.33.242-.482.081-.13.129-.368.281-.363.097.004.071.206.16.242a.46.46 0 0 0 .463-.1c.212-.215.151-.586.182-.886.013-.14-.046-.289 0-.422.085-.248.379-.382.482-.624a2.64 2.64 0 0 0 .202-1.307c-.041-.365-.204-.717-.403-1.025-.161-.251-.438-.41-.624-.644-.123-.157-.342-.106-.321-.304-.031-.148-.234-.296-.4-.241m20.978.757a.2.2 0 0 0-.063.009c-.192.06-.222.346-.262.544-.128.638.023 1.303.101 1.95.034.284.069.573.161.845.101.298.293.557.422.844.096.211.197.422.261.644.075.262.094.536.141.804.046.262.048.536.141.785.087.234.173.507.382.644.142.091.345.12.503.06a.55.55 0 0 0 .301-.342c.079-.236-.001-.502-.06-.744-.09-.374-.363-.689-.442-1.066-.066-.315-.022-.644-.02-.966.001-.201.099-.418.02-.603-.109-.258-.462-.335-.624-.563a1.55 1.55 0 0 1-.261-.624c-.064-.371.116-.755.06-1.126-.02-.134-.087-.258-.141-.383-.065-.151-.107-.322-.22-.441-.107-.113-.253-.27-.4-.272zm-9.354.183a.2.2 0 0 0-.042.007c-.127.035-.293.079-.342.202-.108.271.227.551.242.844a.85.85 0 0 1-.081.442c-.079.146-.296.19-.362.343-.085.197-.044.433 0 .643.045.214.187.397.262.603.104.29.195.585.261.885.06.271.065.553.121.825.036.177.12.343.141.523.024.213-.063.433-.02.643.041.203.112.42.261.563.215.206.538.262.825.342.209.059.465.224.643.101.108-.074.093-.253.081-.382-.03-.312-.218-.587-.362-.865-.157-.302-.565-.525-.543-.865.009-.147.228-.204.281-.341a.93.93 0 0 0 .02-.524c-.057-.257-.272-.455-.362-.703a3 3 0 0 1-.181-.805c-.022-.295.096-.591.06-.885a2.6 2.6 0 0 0-.3-.946c-.141-.248-.305-.525-.564-.643a.1.1 0 0 0-.039-.007m14.556.287q-.029 0-.056.002a.7.7 0 0 0-.442.22c-.14.149-.191.366-.242.564-.053.209-.052.429-.06.644-.017.422-.019.846.02 1.267.033.352-.003.743.181 1.046.109.179.294.349.502.382.14.022.272-.196.403-.141.13.054.127.252.181.382.17.414.247.865.443 1.267.086.179.161.384.321.503a.72.72 0 0 0 .483.14c.194-.018.423-.093.523-.26.099-.167.057-.406-.02-.584-.106-.243-.466-.317-.564-.564-.079-.199.052-.43.02-.642a2.4 2.4 0 0 0-.221-.665c-.086-.185-.265-.325-.321-.522-.09-.316.063-.664 0-.986-.038-.192-.086-.402-.221-.543-.123-.127-.338-.12-.483-.221-.133-.092-.337-.181-.343-.342-.004-.143.219-.195.283-.322a.55.55 0 0 0 .06-.282c-.007-.072-.028-.152-.081-.201a.57.57 0 0 0-.366-.142m24.217.298-.078.005c-.133.019-.242.134-.322.242a1.23 1.23 0 0 0-.24.664c-.011.278.127.542.22.803.084.235.199.458.302.685.131.289.273.573.402.865.112.252.241.5.323.764.09.294.114.605.18.905.056.249.052.524.182.744.129.221.364.361.563.523.249.204.488.437.784.563.207.088.449.188.663.121a.59.59 0 0 0 .383-.382c.056-.224-.103-.454-.202-.663-.165-.356-.512-.617-.643-.987-.086-.241.011-.524-.08-.764a.9.9 0 0 0-.302-.422c-.233-.166-.604-.059-.825-.242a1.12 1.12 0 0 1-.381-.744c-.015-.16.127-.302.139-.462a1.2 1.2 0 0 0-.08-.564c-.076-.174-.294-.263-.361-.442-.062-.163-.004-.349-.021-.523-.012-.128-.021-.259-.06-.382-.009-.029-.018-.061-.04-.081-.135-.122-.323-.222-.506-.226m7.368.085a.1.1 0 0 0-.034.003.1.1 0 0 0-.031.017c-.123.115.006.344.061.504.089.258.325.448.422.704.089.229.099.481.141.724.046.26.098.521.121.784.023.261-.103.553.02.784.135.255.482.319.703.504.208.172.426.343.584.562.127.175.234.373.282.584.066.288 0 .589 0 .884 0 .309-.056.623 0 .926.044.24.085.515.262.683.158.15.405.206.622.202.158-.003.361-.028.444-.161.092-.149.005-.36-.061-.523-.136-.337-.563-.516-.664-.865-.085-.291.083-.602.081-.905-.003-.256.019-.529-.081-.764-.102-.242-.413-.357-.502-.603s.024-.525 0-.785c-.031-.32-.009-.675-.181-.945-.111-.174-.323-.263-.503-.362-.203-.112-.484-.095-.644-.262-.098-.103-.126-.261-.14-.402-.02-.196.089-.387.08-.583-.007-.145-.018-.304-.1-.423a.58.58 0 0 0-.302-.201c-.11-.033-.229.011-.343 0-.076-.008-.165-.076-.237-.081m-21.36.43c-.113.007-.234.121-.305.214-.096.126-.074.308-.101.463-.017.107.014.228-.04.321-.067.116-.26.123-.322.242-.087.166-.03.376-.02.563.02.372.087.741.161 1.106.079.387.152.78.302 1.146.148.365.356.705.582 1.027.107.152.181.385.363.422.103.02.217-.059.282-.141.11-.141.128-.344.121-.523-.014-.303-.228-.567-.283-.865-.104-.575 0-1.171-.08-1.749-.032-.232-.097-.459-.161-.684-.064-.224-.358-.475-.221-.664.184-.232.068-.742-.202-.865a.15.15 0 0 0-.076-.013m-27.269.079a.2.2 0 0 0-.108.035c-.251.179-.075.616-.06.925.02.42.145.83.201 1.247.077.575.062 1.162.181 1.73.077.365.152.745.341 1.066.08.135.172.298.322.341.233.067.551.007.705-.18.076-.094.04-.243.02-.362-.056-.323-.309-.587-.382-.906-.056-.242-.003-.498-.041-.743a6.5 6.5 0 0 0-.281-1.086c-.128-.379-.361-.721-.463-1.107-.07-.262.076-.601-.101-.805a.46.46 0 0 0-.334-.155m38.428.698c-.169.252.013.607.06.905.047.294.079.604.222.865.122.225.385.348.523.564.086.134.151.285.18.442.051.277-.004.563-.02.845-.009.154.051.338-.04.462-.073.1-.252.056-.341.142-.139.132-.247.33-.242.522a.57.57 0 0 0 .221.422c.082.062.2.048.301.061.12.015.265-.052.363.02.092.068.033.248.121.322.078.066.209.104.301.06.13-.062.167-.242.202-.382a1.4 1.4 0 0 0 0-.644c-.042-.175-.203-.307-.242-.482-.083-.381.11-.784.04-1.167-.047-.257-.178-.494-.302-.724-.165-.306-.455-.541-.582-.865-.125-.315-.116-.669-.161-1.006-.025-.18.092-.444-.061-.542-.161-.103-.437.022-.543.181zm-5.876-.203c-.149.009-.296.116-.399.224-.096.1-.131.246-.161.381-.061.269-.106.558-.041.825.045.181.218.308.282.483.092.249.091.524.141.784.044.229.012.49.141.684.13.197.351.362.584.402a.46.46 0 0 0 .381-.1c.155-.145.223-.392.201-.603-.024-.239-.256-.409-.362-.624-.109-.221-.236-.442-.281-.684-.054-.29.049-.591.02-.885-.021-.212-.031-.441-.14-.624-.069-.114-.171-.243-.302-.26q-.033-.004-.064-.003m1.901.082c-.161.012-.276.211-.43.282-.115.054-.281.023-.362.121-.163.198-.141.51-.101.765.037.228.131.468.302.622.117.105.309.079.443.161.181.113.368.251.462.443.115.236-.074.571.081.784.163.226.485.345.764.342.111-.001.258-.039.302-.141.126-.292-.223-.596-.302-.905-.084-.329-.011-.71-.181-1.005-.14-.243-.538-.283-.644-.543-.076-.187.134-.416.06-.604-.058-.15-.2-.306-.361-.321q-.016-.002-.033-.001m-23.945.147a.55.55 0 0 0-.278.075c-.112.065-.178.199-.221.321-.096.274-.067.577-.061.866.006.236.015.477.081.703.111.38.279.754.523 1.067.173.22.363.527.643.542.145.009.272-.128.362-.241.15-.185.259-.426.262-.663.005-.278-.128-.554-.282-.785-.121-.182-.398-.241-.483-.442-.083-.198.057-.432.021-.644-.023-.127-.117-.235-.142-.362-.045-.153-.116-.333-.26-.403a.4.4 0 0 0-.166-.034zm42.347.131c-.133-.001-.291.067-.328.185-.027.089.112.153.141.242.077.23.085.481.08.724-.006.264-.231.544-.12.784.069.15.26.297.422.262.07-.016.094-.114.121-.181.093-.241.097-.507.121-.765.025-.28.124-.583.019-.844-.07-.176-.215-.371-.402-.403a.3.3 0 0 0-.055-.005zm-30.194.323-.021.003c-.226.061-.364.323-.443.543-.119.335-.09.723 0 1.066.063.238.2.459.362.644.149.169.387.239.543.402.124.128.146.356.302.442.147.082.34-.021.503.02a.9.9 0 0 1 .361.181c.173.146.233.396.403.544.103.091.224.197.362.201.111.005.198-.103.302-.141.117-.043.247-.15.362-.1.119.051.129.223.18.341.124.286.069.678.302.886.118.104.306.116.463.1.218-.021.489-.075.604-.262.116-.188.03-.453-.041-.664-.119-.358-.385-.652-.623-.945-.228-.279-.471-.555-.765-.764a2.1 2.1 0 0 0-.582-.281c-.163-.051-.36.009-.504-.081-.159-.1-.205-.315-.322-.462-.112-.142-.196-.33-.361-.403-.19-.084-.436.088-.624 0-.142-.066-.232-.221-.302-.361-.079-.161-.052-.359-.121-.523-.048-.117-.103-.242-.201-.323-.039-.031-.089-.065-.139-.063m6.906.691a.2.2 0 0 0-.069.016c-.126.057-.081.265-.101.402q-.067.48-.04.966c.015.271.023.551.121.804.148.384.444.693.684 1.026.288.4.577.8.905 1.167.224.251.396.625.723.703a.38.38 0 0 0 .323-.101c.192-.181.318-.481.281-.743-.033-.233-.303-.361-.423-.564a4.7 4.7 0 0 1-.421-.945c-.073-.228-.016-.5-.141-.704a.8.8 0 0 0-.382-.301c-.15-.063-.361.046-.483-.06-.116-.101-.118-.29-.121-.443-.003-.124.067-.24.08-.362.014-.127-.09-.292 0-.382.031-.164-.311-.113-.462-.181-.162-.074-.314-.298-.474-.298m23.705 1.671a.1.1 0 0 0-.041.015c-.024.015.013.054.02.08.08.297.183.587.261.885.053.2.112.399.142.604.035.246.04.495.04.743-.001.236-.206.538-.04.705.094.095.309.076.402-.021.215-.22.04-.617.02-.925-.023-.352-.056-.709-.161-1.046-.087-.277-.201-.557-.382-.785-.071-.087-.166-.259-.261-.254zm-10.084 5.464c-.16.007-.336.072-.416.202-.13.213-.065.529.06.744.164.279.522.387.805.543.161.089.361.106.503.222.116.094.188.233.261.362.109.19.166.405.262.603.086.178.125.403.282.523.186.143.453.2.683.161.172-.029.317-.161.443-.282.118-.113.15-.304.282-.402.135-.102.336-.074.482-.161.142-.085.299-.188.362-.342a.67.67 0 0 0-.02-.543c-.086-.161-.269-.263-.442-.322-.445-.151-1.008.205-1.409-.04-.071-.044-.088-.143-.12-.221-.065-.162-.028-.37-.14-.503a.45.45 0 0 0-.343-.161c-.141.008-.233.165-.362.222-.108.048-.224.105-.342.1-.115-.004-.259-.024-.321-.121-.05-.076-.078-.26-.018-.309-.138.02-.263-.264-.425-.274zm.492.275a.1.1 0 0 0 .038-.012.05.05 0 0 0-.038.012m-26.391-.252a.3.3 0 0 0-.141.039c-.083.047-.164.176-.121.261.086.164.36.096.544.1.156.005.4.082.463-.06.033-.075-.074-.154-.141-.201-.04-.028-.093-.031-.141-.04-.148-.029-.315-.105-.463-.099m-5.599.623c-.309-.002-.635.058-.937.079-.246.016-.49.063-.724.141-.199.067-.473.092-.564.281a.52.52 0 0 0 .121.564c.215.182.563.047.845.04.216-.005.43-.091.644-.061.071.011.14.042.201.081.148.095.212.318.382.362.181.047.363-.091.543-.141.142-.038.276-.111.422-.121.176-.01.348.062.524.081.206.022.418.076.623.04.116-.02.278-.031.321-.14.038-.095-.036-.224-.121-.283-.376-.256-1.049.288-1.367-.04-.075-.076.029-.218 0-.322-.042-.15-.107-.322-.242-.402-.201-.121-.431-.158-.672-.159zm24.398.64-.134.002c-.286.011-.569.083-.845.161-.179.051-.457.026-.522.202-.04.106.062.245.161.301.205.115.469-.031.703-.04.315-.012.632-.054.946-.02.143.015.282.065.422.1.336.084.66.242 1.005.261.095.005.215.027.282-.04.077-.076-.018-.296.012-.373-.322.153-.722-.345-1.098-.431a4.4 4.4 0 0 0-.932-.123m2.03.553a.3.3 0 0 0 .048-.028q-.037-.001-.048.028m-30.945.013c-.352-.271-.848.277-1.287.342-.418.061-.844.035-1.267.04-.557.005-1.129-.152-1.67-.02-.288.07-.662.151-.784.422-.086.188-.011.463.141.603.363.336.975.267 1.468.221.367-.033.702-.226 1.045-.362.246-.097.468-.259.725-.322.437-.106.898-.059 1.347-.08.375-.018.772.085 1.126-.041.095-.033.248-.08.242-.181-.026-.416-.877-.261-1.086-.622m42.857.505c-.205.002-.414.047-.62.057-.275.014-.564-.046-.825.041-.207.067-.436.172-.542.362-.083.146-.056.339-.021.503.054.249.124.549.341.683.194.12.469.074.684 0 .177-.06.3-.222.443-.341.125-.103.201-.309.361-.322.127-.011.21.143.323.202.187.095.373.25.583.24.183-.01.395-.101.482-.261.094-.17.047-.409-.039-.583-.063-.128-.202-.206-.322-.283-.197-.125-.414-.239-.644-.281a1 1 0 0 0-.204-.017m-20.217.231a1.1 1.1 0 0 0-.416.067c-.197.082-.281.332-.463.443a1.1 1.1 0 0 1-.401.141c-.304.055-.645-.107-.926.02-.181.083-.241.325-.401.443-.155.114-.336.284-.524.241-.134-.031-.197-.199-.261-.321-.078-.149-.005-.386-.141-.483-.224-.16-.617-.141-.825.04-.138.121-.137.363-.1.543.08.394.358.744.663 1.006.134.115.306.217.483.221.246.005.464-.171.685-.282.174-.088.318-.237.501-.302.282-.098.597-.192.886-.121.168.042.266.228.422.302.308.149.658.376.986.283.182-.053.224-.317.381-.423.143-.097.316-.144.484-.181.295-.068.604-.113.905-.081.335.036.629.283.965.302.245.013.564.046.724-.141.113-.132.078-.359.02-.523-.044-.126-.195-.186-.261-.301-.281-.219-.72.004-1.066-.081-.397-.097-.747-.332-1.127-.483-.252-.1-.495-.237-.763-.282a3 3 0 0 0-.43-.047m-16.828 1.094c-.313-.036-.61.172-.924.2-.221.021-.443-.017-.664-.02-.249-.003-.513-.09-.744 0-.221.087-.598.258-.524.483.079.237.495.07.744.081.335.015.675-.073 1.007-.02.28.044.52.291.804.281.27-.009.52-.17.744-.322.126-.085.348-.172.322-.322-.048-.278-.484-.329-.765-.361m18.847 2.769q-.021 0-.042.006c-.21.059-.285.335-.461.462-.098.071-.203.148-.323.162-.171.019-.332-.149-.503-.121-.163.026-.273.189-.421.261-.123.06-.247.149-.383.141-.134-.007-.244-.117-.362-.181-.116-.063-.21-.192-.342-.202-.159-.011-.303.104-.442.182-.079.045-.132.18-.221.161-.144-.03-.09-.318-.222-.383-.176-.086-.407-.006-.584.081-.144.072-.189.289-.34.342-.115.04-.241-.044-.363-.04-.157.005-.339-.016-.463.08-.116.09-.079.297-.181.403-.093.097-.228.191-.362.181-.163-.012-.253-.212-.401-.282-.164-.076-.347-.175-.524-.14-.141.027-.318.12-.342.261-.051.3.278.558.503.764.23.211.513.422.824.443.229.015.423-.183.644-.242.197-.053.402-.125.604-.101.203.025.359.263.563.242.196-.021.305-.257.483-.342.132-.064.277-.101.422-.121q.382-.048.764 0c.212.024.423.213.624.141.144-.051.147-.288.281-.362.165-.092.376-.033.563-.06.27-.038.565-.012.805-.141.197-.104.336-.3.462-.482a2 2 0 0 0 .222-.464c.044-.123-.306-.658-.482-.649m13.137 1.085c-.159.001-.322.017-.467.027-.281.02-.524.23-.804.262-.234.027-.474-.109-.704-.06-.165.034-.458.074-.443.241.019.211.399.146.604.202.224.06.49.009.683.14.14.094.134.34.281.422.323.18.761.167 1.107.04a.75.75 0 0 0 .422-.382c.09-.202.142-.494 0-.663-.156-.186-.413-.229-.679-.229m-9.42.299a4 4 0 0 0-.702.05c-.265.046-.564.08-.763.262-.098.089-.181.231-.162.361.045.292.355.48.584.664.204.165.424.408.684.383.227-.022.31-.362.523-.443.238-.091.513-.067.764-.02.186.035.339.177.523.221.261.064.556.165.804.061.105-.044.17-.16.222-.262.067-.135.148-.299.1-.443-.109-.325-.471-.524-.784-.663-.334-.147-.722-.12-1.086-.141-.235-.013-.471-.029-.707-.03m6.158.124c-.123-.001-.269.143-.403.168-.178.032-.467-.125-.544.04-.051.113.112.243.222.301.19.1.445.099.644.02.106-.041.214-.131.242-.241.021-.089-.067-.171-.081-.261a.13.13 0 0 0-.08-.027m5.515 1.869c-.232 0-.452.031-.628.169-.123.096-.239.306-.161.443.153.265.618.054.905.16.285.106.502.355.785.463.351.135.731.184 1.106.221.266.027.55.086.804 0 .271-.092.411-.434.684-.523.511-.165 1.073.024 1.609.041.53.016 1.061.109 1.589.06.212-.02.444-.025.623-.141.113-.073.157-.218.242-.322.096-.118.248-.2.301-.342-.407-.398-1.139.034-1.709.04-.61.008-1.225-.07-1.831 0-.437.051-.848.262-1.287.302-.414.038-.868.112-1.247-.06-.185-.085-.237-.357-.422-.443-.202-.093-.442-.045-.663-.04-.223.005-.467-.028-.699-.028zm-21.442.927c-.181.006-.36.135-.506.248-.105.082-.118.269-.241.321-.155.066-.335-.073-.503-.061-.152.012-.353-.004-.442.121-.117.164-.037.418.04.604.164.395.509.7.844.965.215.17.454.353.725.382.201.023.389-.105.583-.16.161-.046.324-.193.483-.141.168.055.207.288.322.422.246.289.455.636.784.825.203.116.48.275.684.161.185-.104.179-.392.201-.603.019-.181-.127-.374-.06-.543.045-.116.158-.257.281-.242.295.035.237.642.523.724.173.051.355-.097.503-.201.066-.046.085-.152.161-.181a.38.38 0 0 1 .321.04c.083.051.071.206.161.242.198.079.419-.084.624-.141.184-.052.354-.208.543-.181.152.021.238.206.382.261s.316.112.463.061c.183-.065.219-.359.402-.423.359-.124.747.165 1.126.162.374-.005.744-.09 1.107-.182.433-.11.864-.248 1.266-.443.157-.076.274-.235.443-.28.33-.09.744.234 1.026.04.069-.049.113-.164.08-.242-.111-.259-.502-.258-.764-.362-.301-.12-.613-.39-.926-.302-.169.048-.215.279-.341.402-.204.201-.417.401-.664.544-.18.104-.376.233-.584.22-.257-.016-.429-.316-.683-.361-.193-.034-.395.024-.584.081-.206.062-.366.276-.582.28-.285.006-.559-.167-.785-.341-.136-.104-.162-.342-.322-.402-.255-.097-.542.212-.804.141-.179-.05-.271-.257-.423-.363-.101-.07-.199-.192-.322-.181-.208.019-.287.326-.482.403-.113.044-.26.084-.363.02-.16-.1-.095-.382-.22-.524-.098-.11-.236-.213-.383-.221-.116-.007-.218.086-.321.141-.099.053-.175.212-.282.181-.12-.035-.09-.237-.161-.342-.061-.091-.112-.23-.221-.241-.358-.034-.505.642-.865.644-.249.001-.411-.284-.603-.443-.198-.163-.312-.477-.564-.523zm14.23 1.42c-.179.001-.349.032-.395.175-.061.186.205.361.382.442.225.103.501-.05.744 0 .165.035.299.164.463.202.15.034.322.083.462.02a.43.43 0 0 0 .242-.301.33.33 0 0 0-.121-.302c-.252-.179-.622.015-.926-.041-.187-.034-.351-.171-.542-.181-.09-.004-.201-.015-.309-.014m-2.061 1.903a3 3 0 0 0-.365.022c-.257.034-.441.271-.665.402q-.3.175-.603.342c-.294.163-.556.413-.885.483-.335.072-.691-.155-1.026-.08-.157.035-.427.079-.422.241.007.27.537.168.725.362.077.079.159.192.139.301-.034.196-.296.268-.421.423-.14.174-.432.352-.363.563.084.252.484.332.744.281.242-.047.309-.425.544-.502.172-.057.392.162.543.06.144-.097.082-.339.141-.503.061-.172.099-.366.221-.503.149-.168.439-.168.583-.341.101-.121.038-.346.161-.443.233-.184.591-.059.885-.1.276-.04.609.035.825-.141.128-.105.254-.314.181-.463-.151-.306-.558-.401-.942-.404m4.792 1.185a.2.2 0 0 0-.129.024c-.172.094-.159.367-.162.563-.003.193.259.409.141.563-.22.287-.724-.003-1.086.02-.188.012-.379.018-.563.06-.195.045-.376.132-.563.202-.209.077-.425.14-.624.241a6 6 0 0 0-.804.523c-.231.168-.443.361-.664.543-.154.127-.278.307-.463.382-.293.12-.63.044-.945.081-.41.047-.895-.066-1.226.181-.09.066-.187.2-.141.301.179.394.815.331 1.247.362.337.024.666-.144 1.005-.141.292.003.577.096.865.141.355.056.708.19 1.066.161.196-.016.42-.046.563-.181.204-.193.175-.535.302-.784.118-.229.212-.496.422-.644.327-.23.768-.256 1.167-.282.249-.016.498.119.744.081a.7.7 0 0 0 .362-.161c.133-.13.088-.398.242-.502.239-.163.601.059.864-.061a.75.75 0 0 0 .383-.382c.066-.169.097-.406-.021-.544-.177-.208-.547-.069-.805-.161-.271-.096-.497-.293-.763-.401-.132-.054-.278-.169-.414-.185m6.931 2.352c-.197-.008-.363.21-.544.306-.283.151-.525.444-.845.463-.18.011-.322-.211-.502-.201-.312.018-.581.249-.825.443-.175.139-.266.366-.442.502-.131.101-.278.211-.443.221-.278.017-.507-.289-.785-.282a.54.54 0 0 0-.382.162c-.172.199-.206.501-.201.764.005.253.119.493.222.724.111.25.196.55.422.704.129.089.314.13.462.081.279-.093.384-.45.604-.644.137-.121.269-.266.442-.322.389-.127.825.073 1.227 0 .374-.068.751-.19 1.067-.402.294-.199.519-.493.723-.785.177-.253.3-.54.423-.824.047-.111.091-.225.121-.342.021-.085.095-.193.04-.262-.107-.129-.353.053-.504-.02-.111-.053-.119-.258-.24-.281a.2.2 0 0 0-.041-.005zm-23.788 1.941c-.081 0-.153.019-.207.075-.126.13-.057.379.02.543.119.254.361.465.623.563.314.117.672.014 1.005-.02.258-.026.507-.115.765-.141.307-.031.623-.08.925-.02.13.026.253.086.362.161.235.161.362.455.604.604.263.158.559.255.865.282.35.031.711-.033 1.045-.142.188-.06.333-.226.523-.281.284-.082.589-.06.885-.06.208-.001.454.161.624.04.124-.089.21-.319.121-.443-.158-.217-.552.051-.805-.04-.126-.046-.191-.214-.321-.242-.303-.065-.61.116-.906.202-.383.11-.729.366-1.127.402-.29.026-.692.095-.864-.141-.108-.148.054-.363.08-.544.021-.133.151-.3.061-.401-.368-.417-1.113.046-1.669.04-.457-.004-.92.03-1.368-.06-.287-.057-.537-.251-.825-.302-.128-.022-.282-.075-.416-.075m16.59.337a.3.3 0 0 0-.125.02c-.188.071-.207.352-.361.482-.167.141-.38.221-.583.302a4.8 4.8 0 0 1-1.046.302c-.285.043-.577.021-.865.02-.202-.001-.447-.147-.603-.02-.116.094-.175.326-.081.442.305.375.966.055 1.448.041.464-.014.924-.101 1.388-.121.476-.021.952-.007 1.428 0 .43.006.874.158 1.287.04.116-.033.252-.091.302-.201.042-.092-.014-.204-.04-.302-.018-.07-.084-.129-.081-.201-.152-.286-.665.003-.965-.121-.282-.117-.446-.435-.724-.562-.117-.054-.251-.118-.379-.121m4.755 6.911a1.2 1.2 0 0 0-.474.088c-.206.087-.29.35-.483.462-.199.117-.46.094-.664.202-.152.08-.386.15-.402.321-.012.132.137.255.261.302.462.174.988-.088 1.469-.202.323-.076.66-.149.945-.321.135-.08.318-.167.343-.321.021-.137-.098-.271-.202-.363a.6.6 0 0 0-.302-.121 3 3 0 0 0-.491-.047m-4.559 1.101c-.176-.003-.375.042-.541.052-.157.01-.37-.027-.463.101-.079.109-.059.312.041.402.173.158.471.036.703 0 .202-.03.456-.022.584-.181.05-.062.071-.179.02-.242-.083-.098-.207-.13-.344-.132"/><path fill="#FEC70B" d="M149.021 106.283a63.074 63.074 0 1 0 0 126.147 63.074 63.074 0 0 0 0-126.147m0 3.54a59.536 59.536 0 0 1 55.002 82.316 59.6 59.6 0 0 1-12.905 19.315 59.55 59.55 0 0 1-42.097 17.437 59.534 59.534 0 0 1 0-119.068"/><path fill="#F7E47B" d="M112.448 209.173q-.23 0-.461.018c-.202.018-.542-.08-.598.115-.088.309.455.459.712.654.471.358.993.645 1.507.939.39.223.833.359 1.195.625.291.215.541.486.768.769.099.122.222.243.255.398.067.309-.017.648-.141.938-.232.541-.704.944-1.082 1.394-.526.627-1.05 1.262-1.649 1.82q-.439.41-.939.74c-.216.142-.968.685-.91.853.035.1.181.119.284.142 1.774.409 3.642.016 5.462-.056 1.652-.066 3.295-.345 4.949-.342.656.002 1.317.026 1.962.142.933.168 1.816.548 2.731.797 1.114.304 2.227.618 3.357.853 1.683.35 3.377.699 5.091.825 1.419.105 2.854.112 4.267-.057.676-.08 1.99-.455 1.99-.455s.124-3.147.114-4.693a1.5 1.5 0 0 1 .256-.854c.149-.21.401-.327.626-.455q.38-.215.796-.341c.397-.12.816-.149 1.223-.228.733-.14 1.495-.18 2.197-.434.181-.066.423-.103.505-.277.137-.29-.01-.674-.18-.945-.142-.226-.398-.372-.644-.477-.31-.132-.66-.144-.996-.17-.681-.054-1.367-.018-2.048.028-.781.053-1.555.188-2.332.285-1.28.158-2.555.369-3.84.483-.738.065-1.478.098-2.219.113-.948.02-1.898.034-2.844-.027a27 27 0 0 1-3.101-.371c-1.027-.185-2.031-.482-3.043-.739-1.398-.355-2.789-.737-4.181-1.11-.845-.225-1.669-.542-2.532-.682-.797-.129-1.611-.115-2.417-.142-.901-.032-1.801-.017-2.702-.029-.463-.005-.926-.048-1.388-.047m69.545.72q-.973.013-1.941.124c-.976.107-1.945.287-2.901.512-.876.206-1.734.484-2.588.768-.806.268-1.58.628-2.39.882-.794.249-1.599.474-2.418.625a22 22 0 0 1-4.92.314c-.629-.034-1.253-.121-1.877-.2a57 57 0 0 1-2.702-.398c-.658-.115-1.303-.294-1.963-.398-.82-.13-1.649-.202-2.475-.284-.443-.045-.885-.105-1.33-.114-.932-.02-1.893-.121-2.794.118-.359.095-.855.165-.991.511-.081.205.062.472.223.622.313.292.815.267 1.235.35.613.122 1.257.07 1.865.219.414.101.829.237 1.195.455.226.134.456.29.597.512.153.24.228.825.228.825l.113 4.437s.468.192.711.256c.782.204 1.589.295 2.39.398.935.12 1.874.224 2.816.257.891.031 1.783-.015 2.674-.057 1.034-.05 2.071-.104 3.1-.228a39 39 0 0 0 3.556-.598c.766-.164 1.511-.419 2.275-.597.509-.118 1.02-.231 1.536-.312a15 15 0 0 1 1.763-.2c.768-.029 1.538.023 2.304.086 1.181.098 2.347.344 3.527.455.634.06 1.27.085 1.906.114.551.024 1.257.309 1.564-.114.046-.064-.014-.162-.057-.228-.183-.283-.527-.422-.796-.626-.562-.427-1.175-.787-1.707-1.251-.524-.459-.969-1.002-1.45-1.508-.295-.311-.67-.565-.882-.939-.102-.18-.182-.389-.17-.596.012-.226.127-.441.256-.626.265-.38.665-.646 1.023-.939.527-.429 1.067-.848 1.65-1.194.397-.237.9-.299 1.252-.598.088-.074.236-.175.199-.284-.099-.293-.581-.218-.882-.285a12 12 0 0 0-2.077-.256 14 14 0 0 0-.647-.01m-33.257 5.472c-1.14.005-2.253.353-3.385.483-1.097.125-3.299.284-3.299.284s-.168 3.992.028 5.973c.034.346.1.691.199 1.024.051.167.061.378.199.484.175.134.435.075.654.085a10 10 0 0 0 1.536-.057c.727-.075 1.445-.227 2.162-.369.553-.109 1.09-.308 1.65-.37a6 6 0 0 1 1.166 0c.528.047 1.044.187 1.565.284.74.139 1.477.298 2.218.427.426.074.88.361 1.28.199.22-.09.325-.355.426-.569.085-.177.12-.375.143-.569.265-2.184-.029-6.599-.029-6.599s-1.632-.088-2.445-.17c-1.361-.138-2.7-.547-4.068-.54"/><path fill="#7D421D" stroke="#7D421D" stroke-linecap="round" stroke-linejoin="round" stroke-miterlimit="6.7" stroke-width=".344" d="M123.106 202.665a2.2 2.2 0 0 0-.668.159c-.209.09-.397.221-.554.385-.166.171-.3.37-.397.587q-.195.444-.195 1.096 0 1.021.562 1.604.564.58 1.518.58.942 0 1.505-.582.562-.587.562-1.623 0-1.043-.569-1.629-.566-.587-1.511-.587-.13 0-.253.01m54.362-3.373-.872.193-1.637 4.834.782-.172q.116-.349.239-.707.124-.357.24-.707l1.61-.354.481 1.203.793-.173zm-50.267 3.741v4.475l.757.023v-1.836l1.141.033a.8.8 0 0 1 .296.06q.113.045.195.134a.6.6 0 0 1 .142.38v.679l.002.126q.007.07.02.151.016.081.045.165.032.084.08.163l.827.023a2 2 0 0 1-.163-.341.9.9 0 0 1-.058-.288v-.647q0-.134-.031-.271a1 1 0 0 0-.1-.259.9.9 0 0 0-.173-.223.8.8 0 0 0-.254-.155 1.26 1.26 0 0 0 .462-.433q.154-.255.154-.55 0-.241-.096-.478a1.3 1.3 0 0 0-.279-.428 1.5 1.5 0 0 0-.453-.315 1.6 1.6 0 0 0-.616-.133zm-3.833.36q.534 0 .855.362.324.362.324 1.096 0 .744-.333 1.118-.33.37-.846.37t-.851-.374q-.336-.376-.335-1.102 0-.738.326-1.102.327-.368.86-.368m51.67-3.441-3.59 1.042v.639l1.418-.412v3.838l.757-.22v-3.838l1.415-.411zm-16.293 1.572V206l.756.029v-1.801l1.014.039q.343.013.61-.089a1.3 1.3 0 0 0 .449-.284q.182-.183.276-.42t.096-.494a1.3 1.3 0 0 0-.096-.481 1.44 1.44 0 0 0-.722-.765 1.5 1.5 0 0 0-.613-.142zm-30.788 2.17 1.143.032a.7.7 0 0 1 .272.063.6.6 0 0 1 .215.151.6.6 0 0 1 .145.221.74.74 0 0 1-.003.55.63.63 0 0 1-.37.341.7.7 0 0 1-.26.041l-1.142-.033zm49.068-3.364.568 1.466-1.139.251zm-42.854 3.081a2.2 2.2 0 0 0-.669.15 1.7 1.7 0 0 0-.554.377c-.165.168-.3.365-.396.58q-.196.441-.196 1.094 0 1.021.564 1.612.561.588 1.516.601.941.013 1.505-.562.562-.579.562-1.614 0-1.044-.569-1.638-.565-.594-1.51-.607a3 3 0 0 0-.253.007m28.953-1.931v4.475l2.911.086v-.649l-2.154-.063v-3.827zm5.564-.069-1.636 4.587.782-.053q.116-.332.238-.671.126-.339.241-.671l1.61-.11.481 1.276.793-.055-1.636-4.363zm-9.187.78.854.033q.203.008.356.065a.8.8 0 0 1 .263.154q.105.095.161.224a.7.7 0 0 1 .054.275.8.8 0 0 1-.045.28.5.5 0 0 1-.141.22.7.7 0 0 1-.257.145 1.2 1.2 0 0 1-.391.039l-.854-.033zm-25.068 1.951q.533.008.854.374.324.365.324 1.101 0 .744-.333 1.112a1.07 1.07 0 0 1-.845.359 1.11 1.11 0 0 1-.852-.385q-.335-.381-.335-1.108 0-.738.326-1.097.327-.363.861-.356m34.685-1.821.568 1.553-1.139.078zm-22.406 3.328 1.617 2.594v1.771l.76-.053v-1.771l1.621-2.815-.864.059-1.123 2.06-1.151-1.904zm-3.105 2.684v.654l1.665-.114v-.654zm8.62-.535v.654l1.666-.114v-.654z"/></svg>