<svg xmlns="http://www.w3.org/2000/svg" width="300" height="300" fill="none"><path fill="#002D72" d="M0 300h300V0H0z"/><path fill="#FF3515" stroke="#000" stroke-width=".209" d="M217.894 127.97c.483-2.171 1.469 1.117 1.469 1.117l2.61 2.91s2.767 23.486 3.087 25.262c.325 1.763-1.117.32-.964 1.93.167 1.614 1.609 2.565.167 3.692-1.443 1.127-2.57 1.28-2.732 4.003-.153 2.732.482 25.046.964 28.743.483 3.696.483 4.174 1.768 5.464 1.28 1.289 1.767 2.407 1.767 2.407-2.788-.214-11.587-.2-11.587-.2l-1.636-.955s3.01-35.855 3.497-39.055c0 0 1.108-33.147 1.59-35.318Z"/><path fill="#fff" d="M149.898 222.306c12.412 0 14.133-.909 26.113-3.27-1.468-3.949-1.924-7.171-3.423-11.665-1.498-4.485 5.566-4.281 10.705-4.485 5.14-.218 35.534.426 42.816.64 6.682.2 10.572.385 12.927 1.421.439.193 1.018.952.769 1.575-1.442 3.369-4.063 8.135-5.347 10.482-1.29 2.361-1.712 3.428-5.566 2.57l-.854 2.574c-5.352-.213-6.869-1.4-5.566-3.21 1.954-2.712 2.57-4.503 2.57-4.503l-25.046.009c1.324 2.763 7.17 12.019 1.672 13.588 0 0-16.759 11.068-51.439 11.068-34.671 0-50.917-10.527-50.917-10.527-4.603-3.241-1.013-10.325.503-14.129l-25.042-.009s.422 1.929 2.56 4.503c2.143 2.565-.213 2.997-5.556 3.21l-.858-2.574c-3.85.858-4.281-.209-5.566-2.57-1.28-2.347-4.116-7.344-5.348-10.482.26-.5.838-1.272 1.395-1.438 4.696-1.4 5.779-1.363 12.306-1.558 7.278-.214 37.676-.858 42.816-.64 4.72-.247 11.344.558 10.7 4.485-1.186 4.648-1.745 7.216-3.205 11.354 11.98 2.352 13.479 3.581 25.895 3.581"/><path fill="#0077C8" d="M168.78 188.526c-.084.009-.167.009-.246.009.083 0 .167 0 .246-.009m.25-.028c-.056.009-.111.009-.167.018.051-.009.107-.009.167-.018m.506-.098c-.047.01-.089.033-.14.033.051-.009.093-.023.14-.033"/><path fill="#0077C8" d="m182.538 182.306-18.284.672s4.106 1.165 2.996 1.494c-.688.204-1.072-.107-2.143.213-.914.273 1.793.415 2.788.645.595.137-.826.343-1.716.645-.949.321 2.423.002 2.996.213.581.213-1.812.178-2.565.635-1.223.743 5.008-.12 4.286.209-1.34.61-3.198.496-4.286 1.067-1.201.63 4.063-.209 4.063-.209 3.891 1.193 7.783 2.379 11.855 2.843m-49.48-1.414c-.014.004-.028.004-.051.004zm-9.685 1.581c2.356.64 2.783 0 2.783 0s2.355-1.708 3.854-1.493c.639.091 1.003.516 1.304.567.415.07.677-.938.403-.999-1.185-.263-4.275-.26-3.209-.431 1.284-.206 5.142-.49 3.849-.64-1.472-.17-4.742.07-3.631-.431.811-.367 1.735-.318 2.778-.636.614-.187-3.974-.173-2.996-.422.901-.229 1.96-.447 2.747-.654.696-.183-3.546-.49-2.747-.635 1.323-.241 4.246-.332 3.641-.432-1.305-.214-5.69-.121-4.286-.417 1.37-.289 4.52-.619 6.331-1.003 1.118-.238 1.16-.5-3.117-.5-4.285 0-13.061-.645-13.061-.645h-.301c-.01 3.92-.014 6.874-.014 7.5v.274l.106-.069c3.641 0 3.205.431 5.562 1.066m9.336-1.456c-.023 0-.037.009-.055.009.018-.009.032-.009.055-.009m17.389-65.756h-18.845a22.1 22.1 0 0 1-11.971 10.756 17.78 17.78 0 0 1 3.873 11.104c0 4.805-1.976 9.439-5.432 12.773.005.877.009 1.962.009 3.178l-.134.278s.853-.863 2.565-1.712c1.711-.858 2.351-1.284 3.641-.426a12.2 12.2 0 0 0 2.565 1.289s1.711-1.076 3.21-2.138c1.498-1.076 1.066-1.707 2.996-1.289 1.925.431 6.632-.854 8.349-1.703 1.711-.858 2.565.204 4.063-1.716 1.498-1.934 1.498-1.711 3.636-2.579 2.143-.848 1.712-2.337 4.494-1.493 2.783.849 4.282.431 8.349 3.641 4.063 3.209 6.638 4.281 8.349 5.988a22.4 22.4 0 0 0 3.418 2.792s1.717-.645 3.428-1.503c1.707-.849 2.352-1.493 3.641-.635 1.285.858 2.352 1.062 2.352 1.062l-.135-.153c.005-1.095.009-2.069.009-2.881a17.78 17.78 0 0 1-1.558-23.868c-5.176-1.934-9.457-5.779-11.971-10.765h-18.929m-14.805-8.984s-.07 0-.19.014c1.711.283 5.876-.014 5.876-.014-1.924-.376-2.013-2.115-3.065-3.089-1.049-.974-2.013-1.434-3.414-1.434-1.61 0-2.431.858-2.268 2.375.157 1.526 1.368 2.148 2.889 2.148m14.193-3.099c-1.048-.974-2.013-1.424-3.409-1.424-.895 0-1.665.645-2.732.993.13.125.279.274.455.431 1.048.984 1.136 2.723 3.066 3.099 0 0-.07 0-.19.014 1.711.283 5.876-.014 5.876-.014-1.929-.376-2.013-2.115-3.066-3.099m11.406 0c-1.049-.974-2.013-1.424-3.414-1.424-.891 0-1.661.645-2.727.993.13.125.278.274.454.431 1.048.984 1.132 2.723 3.061 3.099 0 0-.064 0-.185.014 1.707.283 5.877-.014 5.877-.014-1.93-.376-2.013-2.115-3.066-3.099"/><path fill="#0077C8" d="M162.593 110.093a13.53 13.53 0 0 0 2.11-7.286c0-7.528-6.099-13.614-13.623-13.614s-13.622 6.086-13.622 13.614c0 2.699.789 5.227 2.143 7.333l-.093.148c.209-.056.431-.097.649-.097 1.169 0 2.027.301 2.885.964l.362-.074c.928-.366 1.633-.89 2.445-.89 1.131 0 1.971.278 2.81.904l.163.079c1.066-.348 1.836-1.002 2.732-1.002 1.173 0 2.04.32 2.922 1.011l.046-.009c1.067-.348 1.837-1.002 2.723-1.002 1.113 0 1.962.292 2.787.918l.176.084c.947-.311 1.647-.849 2.417-.974l-.051-.107"/><path fill="#FF3515" stroke="#000" stroke-width=".209" d="M77.272 131.544c-1.869 12.707-5.097 24.07-5.606 38.12 0 0 .444.407 1.77 1.028 0 0-.776 8.81-.973 10.894-.078.818.563.778 1.605 1.276 0 0-1.605 8.201 1.447 11.73 3.052 3.544 4.977 7.695 6.582 7.542 1.599-.166 2.412-.492 2.412-.492.677-1.379 3.022-3.255 3.192-3.109 1.134-.893.458-65.59-.075-67.417l-2.69-8.606z"/><path fill="#523178" d="M83.057 127.632c-.218 1.813-.15 2.025-.15 4.892 0 2.973.237 3.376.326 5.06.074 1.688-.163 1.688-.084 2.333.19 1.046.311 1.91.486-.037.408-1.136.873-4.383 1.439-4.861.566-.473.566-.074-.325-.719-.881-.635-1.043-1.521-.881-2.407.167-.891 0-3.367.167-4.898.079-.807-.187-1.758-.294-2.156-.289 1.332-.712 2.872-.684 2.793"/><path fill="#0077C8" stroke="#000" stroke-width=".209" d="M81.832 112.658c1.034-1.586 1.72-2.129 2.44-2.008 0 0 .987-.408 2.583-.663 1.605-.265 3.905-1.61 3.905-1.61v.046l8.14.594 6.044 2.82c1.438.237 3.07 4.165 4.68 5.854 1.605 1.688 1.771 2.84 1.771 3.883l-.356-.266c-.469-.575-.937-.811-.937-.811-2.649-.246-2.486 2.569-2.649 4.735.343.678 1.299 1.415 2.324 2.009l-.149.069s-1.205 5.139-1.929 7.06c-.714 1.929-21.586-3.099-21.586-3.099s-1.072-1.4-.427-3.961c.278-1.122.427-1.076-.213-1.614-.645-.533-.534-3.205-.534-3.205s-.533.738-.746 1.823c-.214 1.071-1.953 7.263-1.953 7.263-.96 3.131-2.867 5.678-3.743 2.547L77.06 122.19s3.162-7.074 4.772-9.532Z"/><path fill="#FFD100" d="M151.187 150.757c3.011 0 5.45-2.44 5.45-5.446a5.453 5.453 0 0 0-5.45-5.454 5.45 5.45 0 0 0-5.445 5.454 5.45 5.45 0 0 0 5.445 5.446"/><path fill="#fff" d="m172.075 109.813-.633-33.633-.335-.412-.305.412-.645 33.621"/><path stroke="#000" stroke-width=".209" d="m172.075 109.813-.633-33.633-.335-.412-.305.412-.645 33.621"/><path fill="#FFD100" stroke="#000" stroke-width=".209" d="m170.271 114.442.024 2.043c.011 1.1 1.586 1.011 1.586.032 0-.951-.06-2.215-.06-2.215z"/><path fill="#FFD100" d="M130.227 158.938c.19.014.371-1.122.946-1.349 1.535-.766 3.219-1.698 4.457-3.015l-.492.009c-2.402 1.642-4.976 2.792-7.912 3.349l-.473-.404c1.832-2.027 4.448-2.945 6.53-4.591l.135-.701-.376-.069-2.069.584-2.736.227-.102-.236 1.136-.691c.209-.427-.617-.223-.877-.52l-.092-.348 2.945-1.229.144-.408c-.39-.306-1.132.301-1.489-.297.278-.487 1.053-.496 1.818-.672-.051-.093.487.283.371-.195.696-.176 1.679-.33 1.8-1.118-.594-.158-1.225.028-1.897-.042-1.633-.723.797-.561.552-1.326-1.364-.246-2.742-.01-4.254-.042-1.09-.074-2.694.172-3.214-.686.835-.297 1.888-.733 2.727-.775-.269.028-1.029-.371-1.131-.64l4.03-.237 3.433-.7c.352-.353-.191-.636-.307-.77-1.808-.626-3.84-1.554-5.923-2.314-.389-.274-1.034-.603-.946-1.114 1.535-.185 2.848 1.086 4.263.882 1.526-.126 3.39 1.159 5.06.705-.042-.237-.134-.534-.473-.473-2.43-1.707-5.033-3.062-7.18-4.713-.079-.454.413-.241.496-.39l-.13-.31-2.843-1.809.39-.306c3.168.264 5.552 2.138 8.585 3.367.214.084.39-.325.181-.482-1.238-.798-2.449-1.536-3.567-2.565.659-1.09-.955-1.336-.858-2.264l.292-.023c3.015 1.702 6.304 4.453 9.564 5.673l.441-.246c-2.347-2.797-5-4.597-7.412-7.412.037-.311-.621-.738-.083-.942l2.704 1.8.032-.631c2.069 1.229 3.873 3.344 5.803 4.36-1.155-1.582-1.55-3.288-2.839-4.851l-.427-1.137c.603-.297-.255-.617-.051-1.034.121-.255.376.093.571.083l4.773 5.738.385-.274-.181-.44c.148-.186-.126-.33-.251-.321-.589-1.386-1.238-2.291-1.707-3.668.524-.348.65.909 1.174.477-.19-.63.459-.389.603-.797.088-.52-.603-1.587-.144-2.282.431-.079.631.491.798.7.533 1.99 1.424 3.896 2.885 5.612.807.566.482 1.498 1.493 1.735 1.048-.751.886-2.264 1.74-3.298.477.051.936.265 1.145.77l.789-.464.709.622c.288-.028.64-.84 1.007-.385.241 1.053-.13 2.18-.348 3.293l.19.311.2-.107 3.01-7.036.473-.534.269.195-.798 2.946c.269.222.552-.297.775.018-.575 1.132.575.033.83.38.051 1.619-.835 3.006-.278 4.138.528.222 1.303-.098 1.646-.566.877-1.661 2.138-3.419 2.904-4.564l.487-.009c-.77 2.077-1.865 3.826-2.412 5.681.287.246.255-.626.733-.575l.31-.45c.868-1.159 1.888-1.957 3.066-2.736.204-.427.793-.793 1.29-1.15.621.162.232.765.306.969l.292-.023c.547.301.009.77.167 1.15.315.06.872-.617 1.313-.45l.014.45-1.874 2.417-.209.148-1.058 1.169-1.391 2.166.148.38c1.54-1.424 3.099-1.804 4.509-3.2l.895-.585.598-.125c.135.849.877.84.297 1.443l.571.065.264.255c-1.201.672-2.008 1.855-3.302 2.198-1.257.863-2.486.863-3.303 1.906l.172.432.153-.167c1.716-.39 3.223-.886 5.134-1.299.515-.584 1.063-.524 1.689-.677.654-.13.394.482.324.839.186.112 1.174-.102.965.678l-.408.477.506.404c-.631.742-1.531 1.354-2.153 1.452-1.716.334-2.968.584-4.517 1.164l-.033.32 1.109-.051c1.767.028 3.947-1.034 6.002-.867.297.547.422.556.83 1.015l-.445.534c.19.343 1.15.38.77.955-2.769.214-4.69.334-7.041.636l-.64.51.394.51.283.074c1.943-.371 3.752.241 5.872.631l-.019.547c-.218.529.464.469.631.742l-.57.515c-.269.715.654.237.487.858l-1.327.344-5.482-.353-.552.283c.807.353 1.646 1.28 2.407 1.354 1.438 1.318 3.664 1.717 5.343 2.834.232.316.608.39.515.64l.223.608c-.033 0-.534.135-.691-.139-2.361-.547-4.263-1.201-6.545-1.865l.158.274c.566.468-.343.51-.376.83 1.79 1.638 3.827 2.83 6.299 3.59 1.303.204 1.92 1.647 3.177 1.716l.408.691"/><path fill="#B3875A" stroke="#000" stroke-width=".209" d="M189.415 134.138c-.066 0-1.198-3.586-1.307-4.968l2.963 1.276s-.288 2.324-1.656 3.692Z"/><path fill="#FFD9EE" d="M186.786 122.023s-2.57-2.087-4.982-4.332c-2.407-2.25-3.529-2.895-4.819-4.509-1.289-1.6-2.841-2.061-3.9-2.19-1.229-.15-2.824-.029-3.58-.064-.615-.029-1.035.165-.864.812.089.179.184.18.224.317.043.145-.164.218-.177.459-.011.2.226.349.225.492-.001.104-.146.126-.152.334-.007.249.141.318.149.455.005.103-.06.187-.045.273.012.07.129.386.577.43.583.057 1.332-.007 1.332-.007l.211.122c.13.107.601-.166.601-.166.203-.167.246-.205.287.402.226.15.625.328 1.323.507 1.79.459 1.623-.223 2.588.918.969 1.15 7.63 10.348 10.25 11.999 2.616 1.665 5.297 2.259 5.297 2.259-1.12-2.099 6.425-6.461-3.36-6.298l-1.181-2.213"/><path stroke="#000" stroke-width=".209" d="M186.786 122.023s-2.57-2.087-4.982-4.332c-2.407-2.25-3.529-2.895-4.819-4.509-1.289-1.6-2.841-2.061-3.9-2.19-1.229-.15-2.824-.029-3.58-.064-.615-.029-1.035.165-.864.812.089.179.184.18.224.317.043.145-.164.218-.177.459-.011.2.226.349.225.492-.001.104-.146.126-.152.334-.007.249.141.318.149.455.005.103-.06.187-.045.273.012.07.129.386.577.43.583.057 1.332-.007 1.332-.007l.211.122c.13.107.601-.166.601-.166.203-.167.246-.205.287.402.226.15.625.328 1.323.507 1.79.459 1.623-.223 2.588.918.969 1.15 7.63 10.348 10.25 11.999 2.616 1.665 5.297 2.259 5.297 2.259-1.12-2.099 6.425-6.461-3.36-6.298l-1.181-2.213"/><path fill="#BBBCBC" d="M223.655 107.723a.796.796 0 0 0-.794-.807.796.796 0 0 0-.793.807c0 .269.14.515.353.659l-.024 2.058.969-.088-.05-1.984a.78.78 0 0 0 .343-.645"/><path stroke="#000" stroke-width=".209" d="M223.655 107.723a.796.796 0 0 0-.794-.807.796.796 0 0 0-.793.807c0 .269.14.515.353.659l-.024 2.058.969-.088-.05-1.984a.78.78 0 0 0 .343-.645"/><path fill="#FFD9EE" stroke="#000" stroke-width=".209" d="M222.259 121.531c.325-1.841 1.127-3.84 1.127-7.059 0 0-.969 0-1.127-.882-.162-.872-.162-1.604-.162-1.604s-.882-.237-.64-.557l.157-.246c-.241-.306-.965-.886 0-.951.97-.083 1.689-.083 1.93-.083.236 0 .32 0 .96.728.645.705.965.561 1.206 2.087.246 1.517.566 5.293-.32 8.822-.886 3.53-2.329 9.068-3.692 10.436-1.369 1.364-2.408 1.127-2.57-.552-.153-1.688-.236-2.49-.236-2.49.561-.404 3.367-7.649 3.367-7.649Z"/><path fill="#FFD9EE" d="M90.765 108.423s.91-.482 1.178-1.229c.27-.737.218-1.229.163-2.773-.051-1.554-.107-1.874-.107-1.874s-.91.427-.965-.431c-.05-.859.051-1.819.051-1.819s-.201-.494.072-1.413c.265-.909 1.494-2.57 2.245-2.783.747-.213 1.874-1.117 1.874-1.117s1.831.697 2.69 1.022c.853.32 1.245 1.193 1.459 2.96.208 1.763.05 1.92-.158 3.098-.213 1.183-.538 1.29-.59 3.103-.046 1.823-.328 2.936.372 4.291l-.158-.432s-.055 1.925-.375 3.261.05 1.763-1.012 1.763c-1.071 0-2.89.051-3.585.111-.696.056-.909.431-1.61-1.122-.695-1.55-1.553-4.606-1.553-4.606"/><path fill="#61619E" d="M78.808 130.77s2.111.953 2.065 2.356c0 0 .05-5.238-.192-6.68 0 0-.221 2.97-1.76 4.412"/><path fill="#F2A900" stroke="#000" stroke-width=".209" d="M76.155 95.455c-1.123 0-1.202-.325-1.202-.325s-.162-.644-.728-1.363c-.074-.807-.64-1.934-.64-1.934.079-.4.325-1.443-.079-2.166.886-.154 1.285-.872 1.688-1.763.4-.878.242-.554-.56-.633-.799-.08-2.403-.165-2.724 1.834-.885.886-1.363 1.851-1.043 2.974-.478 1.442-.079 1.609.158 1.934-.32.56.07 1.196.07 1.196-.474 1.053-.39 1.689 0 2.407.046.093.087.13.12.168l-.028.078c-.399.965-.546 1.685-.566 2.565-.003.146.374.212.64.167.64-.079 2.008-.491 2.806-.811l.965-.552c1.846-1.28 2.644-2.25 2.885-2.969.135-.408.195-.742-.137-.77z"/><path fill="#000" d="M76.002 96.114c-1.128.375-1.55.97-2.52 1.451-.964.474-.586.556-.908.798-.338.255-.534.316-1.067.687-.347.241-.376.538-.529.811-.162.265.153.265.529-.106.371-.38.691-.38 1.818-.91.487-.236 1.823-.904 1.823-.904.687-.213.636.27 1.118-.584.366-.654.362-.85.482-1.062.288-.093.585-.195.798-.334.482-.32-.422-.218-1.545.153"/><path fill="#fff" stroke="#000" stroke-width=".209" d="m75.877 106.006-1.115-8.416-.724.399 1.065 8.148z"/><path fill="#FFD9EE" stroke="#000" stroke-width=".209" d="M77.018 131.489c-2.106-.9-3.744-4.378-4.5-10.385-.746-5.988-1.498-9.837-.64-11.238.858-1.382 1.072-3.307 1.392-4.054.32-.756.32-1.823.965-2.681.64-.848 1.711-1.391 1.178-.635-.538.751-.538.635-.863 1.925-.315 1.28-.427 2.027.538 1.605.96-.427 2.623-.06 2.245.533-.26.406-.427.431-.427.431s.96.361.316.849a7 7 0 0 1-.316.111s.854.32.427.747c-.229.157-.32.204-.32.204.358.231.533.654-.107.974 0 0-.863.738-1.823 1.925-.964 1.178-1.284.538-.858 2.25.432 1.711 3.006 8.237 3.006 8.237 1.818-.325 3.933.612 3.53 3.419-.238 3.296-2.015 6.522-3.743 5.783Z"/><path fill="#F2A900" d="M153.873 150.042a5.43 5.43 0 0 0 2.764-4.74 5.454 5.454 0 0 0-5.45-5.455 5.453 5.453 0 0 0-5.445 5.455 5.44 5.44 0 0 0 4.583 5.371"/><path stroke="#D18644" stroke-width=".209" d="M153.873 150.042a5.43 5.43 0 0 0 2.764-4.74 5.454 5.454 0 0 0-5.45-5.455 5.453 5.453 0 0 0-5.445 5.455 5.44 5.44 0 0 0 4.583 5.371"/><path fill="#197352" d="M117.583 161.786s.853-.849 2.565-1.707c1.707-.862 2.352-1.289 3.636-.431a11.7 11.7 0 0 0 2.565 1.28s1.716-1.076 3.215-2.147c1.498-1.067 1.066-1.712 2.996-1.28 1.925.431 6.632-.854 8.349-1.712 1.711-.849 2.565.223 4.063-1.707 1.498-1.925 1.498-1.721 3.641-2.569 2.143-.849 1.707-2.347 4.494-1.503 2.778.858 4.277.431 8.344 3.65 4.063 3.205 6.638 4.281 8.349 5.988a22.5 22.5 0 0 0 3.428 2.792s1.711-.654 3.423-1.503c1.707-.858 2.351-1.493 3.641-.644 1.285.858 2.351 1.062 2.351 1.062v15.635l-64.861.432-.218-15.636"/><path stroke="#000" stroke-width=".348" d="M117.583 161.786s.853-.849 2.565-1.707c1.707-.862 2.352-1.289 3.636-.431a11.7 11.7 0 0 0 2.565 1.28s1.716-1.076 3.215-2.147c1.498-1.067 1.066-1.712 2.996-1.28 1.925.431 6.632-.854 8.349-1.712 1.711-.849 2.565.223 4.063-1.707 1.498-1.925 1.498-1.721 3.641-2.569 2.143-.849 1.707-2.347 4.494-1.503 2.778.858 4.277.431 8.344 3.65 4.063 3.205 6.638 4.281 8.349 5.988a22.5 22.5 0 0 0 3.428 2.792s1.711-.654 3.423-1.503c1.707-.858 2.351-1.493 3.641-.644 1.285.858 2.351 1.062 2.351 1.062v15.635l-64.861.432-.218-15.636"/><path fill="#BBBCBC" stroke="#000" stroke-width=".209" d="m223.465 114.472.39 6.112c-.543.277-1.144.318-1.837-.008l.398-6.494c.335.204.672.398 1.049.39Z"/><path fill="#2C5234" d="M131.493 194.11c2.356-.204 2.997.649 4.926.422 1.925-.213 8.136-1.915 8.136-1.915 3.209-1.503-1.717-1.935-1.717-1.935l-2.351-.213s-.427-.213-2.356-1.494c-1.93-1.289-2.352-.644-4.708.214-.13.06-1.324.5-2.018.51-.473.007-.751-.213-1.387-.306-1.498-.204-3.859 1.507-3.859 1.507s-.426.64-2.773 0c-2.357-.644-1.93-1.076-5.566-1.076l-.102.07c0 .185 0 .575.009.849.088.055.204.125.371.236.909.492 4.17 2.356 8.418 4.791.65-.338 2.997-1.474 5.005-1.66m50.492-3.641s-2.997.204-2.565-1.934c.431-2.12-1.707.44-1.707.44s-1.503-.222-4.499-2.147c-2.996-1.916-1.93.858-1.93.858s-2.449.778-2.778.849c-1.457.315-2.807 1.072-4.281 1.289-.844.125-1.062.849-2.56 0-1.508-.858-3.428-1.716-5.353-1.502s-2.996 2.996-2.996 2.996-1.067.858.213 2.147c1.28 1.285-.431.849-2.351 1.285-1.93.418-2.361 0-4.068 0-4.708.213-10.06 2.134-5.139 2.778 4.926.636 13.274.432 15.631.636 2.351.213-1.29 2.147-6.211 2.147-4.926 0-9.634-.431-10.056-1.289-.431-.858-3.427-1.92-4.067-.858-.645 1.085-3.556 1.043-4.15 1.411 6.003 3.452 12.506 7.203 16.965 9.776h.06c9.801-5.668 29.546-17.022 32.013-18.381.172-.093.283-.172.371-.227l-.519-.274"/><path stroke="#000" stroke-width=".484" d="M99.814 214.444c-1.005 2.972-5.415 10.671-.493 14.138 0 0 16.041 10.682 50.717 10.682 34.679 0 47.38-9.567 51.629-11.232 4.399-1.723 1.765-7.582-1.672-13.588m-100.18 0-25.042-.009m25.041.009c1.422-3.181 2.35-5.724 5.353-4.499 3.428 1.493 20.125 6.215 22.05-2.565m-52.444 7.055s.426 1.938 2.565 4.503c2.143 2.565-.214 2.997-5.562 3.21l-.858-2.579m3.855-5.134c-9.01.045-9.789 1.812-8.504 4.159m4.65.975c-4.04.527-4.282-.204-5.562-2.565-1.28-2.347-5.582-9.851-5.348-10.482.867-2.336 6.424-2.778 13.697-2.996 2.203-.065 6.526-.163 11.619-.279l5.361-.111c4.3-.079 9.215-.153 13.259-.213m-33.027 16.646c3.21-.204 4.686-2.183 6.87-.02m42.602-16.515c4.146.227 7.397 1.714 6.818 4.346-.827 3.755-1.915 7.07-3.205 11.34 11.985 2.343 13.706 3.581 26.118 3.581s13.91-.909 25.899-3.265c-1.351-4.048-2.329-7.739-3.423-11.665-1.262-4.534 5.566-4.281 10.705-4.49.974-.033 2.858-.051 18.328.174 18.041.308 22.289.406 24.478.471 7.278.218 14.704.402 13.697 2.996-1.315 3.389-4.068 8.135-5.343 10.482-1.29 2.361-1.712 3.428-5.566 2.579m-126.667-9.368c-1.709 3.092 4.867 5.732 21.778 8.505m75.988-4.276 25.051-.009m-25.051.009c-1.707-3.006-1.925-5.997-5.348-4.499-3.423 1.493-20.125 6.215-22.05-2.565m52.449 7.055s-1.589 3.08-2.569 4.503m2.569-4.503c9.01-.06 9.748 1.849 8.458 4.196m-11.027.307c-1.308 1.9.213 2.997 5.566 3.21l.853-2.565m-6.419-.645c1.212-1.95 3.387-.272 6.419.645m-31.252-9.425c1.285 3.428-5.028 4.931-21.624 8.887"/><path fill="#FFD9EE" stroke="#000" stroke-width=".209" d="M88.446 199.894s-1.16.48-1.85 1.275c-.683.786-1.603.806-.693 1.519.969.503 1.857 1.559 3.491.276 1.048-.389 3.086-2.618 3.086-2.618l-1.407-.534-.89-.443-.584-.231zm123.15 4.802c.948.355 2.117.232 2.504.158.802-.163 1.117-.663.812-.946-.817-.76-.497-.606-1.007-.883-.533-.29-2.585-1.626-2.371-1.841-.34-.725-2.208 1.709-2.208 1.709.493.564 1.27 1.429 2.27 1.803Z"/><path fill="#FFD9EE" d="m192.113 205.764 3.935-3.819s-4.497-3.019-4.817-3.176c-.324-.153-1.969 3.95-2.53 4.738-.561.812 3.412 2.257 3.412 2.257"/><path fill="#2C5234" d="M159.114 168.428s1.285-1.934-1.929-2.147c-3.205-.218-4.063-1.067-6.846-.645-2.783.427-4.708.427-4.708-.849 0-1.285 1.498-1.711 2.783-.853 1.289.853 1.498-.218 2.996.204 1.503.422 1.925.422 3.001-.422 1.067-.858 1.067-1.072 2.779-.858 1.711.204 2.142 0-.427-1.072-2.565-1.076-2.783-.431-1.498-2.579 1.289-2.124.853-3.409-1.067-3.195-1.93.204-1.93 1.057-2.788 2.565-.853 1.488 1.712 2.351-1.707 3.209-3.423.858-7.059.214-8.562.214-1.498 0-1.498-.432-2.565 1.493-1.071 1.93-1.071 1.712-4.494 2.152-3.428.418-3.428 1.28-2.57 1.911.858.654-.208.863-1.711.863-1.498 0-2.778.213-4.277.427-1.498.213-.431 1.502-.431 1.502s2.143.645-.853.858c-2.997.209-7.704 2.347-4.068 2.565 3.641.204 5.992.204 6.637 1.063.645.848 1.498 2.147 1.498 2.147H117.82v-9.852c3.21-1.706 5.566-3.195 7.709-2.991 2.138.213 3.636 1.711 4.921.853 1.29-.853 2.996-1.057 2.996-1.057s3.001.853 3.428.204c.427-.636 1.276-1.934 1.276-1.934s-2.561-1.276-3.419-1.494c-.853-.213-1.289-.858.427-1.275 1.711-.432.431-2.148.431-2.148l1.93-.218s1.28 1.712.635 2.783c1.93 0 1.716-.645 3.859.858 2.134 1.494 4.495.431 4.495.431s4.703-1.934 4.063-4.072c-.645-2.129-1.498-4.063.644-4.276 2.143-.218 1.925 1.062 1.925 1.062s2.143-.849 3.859-.849c1.707 0 2.992-.431 2.992-.431l2.356 1.711c-3.427.427-3.854 0-4.494 1.726-.645 1.702-.854 2.991-1.285 3.627-.431.644 1.707.644 1.707.644s1.711.427 3.21-1.28c1.498-1.716 3.214-2.991 3.214-2.991s2.72 1.598 4.218 2.888c1.494 1.28 3.281 3.018 4.663 3.8 1.196.968 2.72 2.43 4.889 3.172 1.886.793 4.127 1.361 4.127 1.361l-.063 3.112s-3.497-1.926-6.072-.219c-2.565 1.716-2.356.654-4.285.654-1.925 0-4.277-.654-5.562-.654-1.28 0-4.916 1.289-6.632 1.289-1.712 0-1.925 0-4.281-.863-2.347-.858-2.139-.204-3.637.432-1.498.645-2.783 0-4.926 1.28-2.142 1.28-3.641.649-3.641.649s1.717-.649.214-2.156c-1.498-1.489-.854-2.565-.854-2.565s-2.142-3.201 0-2.565c2.139.654 2.357 1.929 5.135 2.361 2.787.431 6.637.431 6.637.431h4.499"/><path fill="#63666A" d="M148.971 93.767c-.321-.654-.158-.877.083-1.443.232-.58.153-.733.074-1.053-.074-.324-.723-.723.237-.482.964.246.802.084 1.363.148.566.088.886.487.645.886-.232.4 0 .645-.645.965-.635.316-.955.478-1.117.724-.158.245-.645.245-.645.245m2.894-.714c.404-.153.969 0 .482.237-.482.232-.482-.237-.482-.237m-4.415.153c.241-.162.078-.408.403-.473.32-.079.32-.079.237-.57-.075-.483.074-.562-.399-.798-.483-.237-.886-.32-.562.07.321.398.242.811.242.811l-.566.552s.403.57.645.404m6.98 2.504c0-.413.246-.575-.158-.886-.403-.324-.728-.797-.162-.477s1.447.63.965 1.043c-.478.4-.645.32-.645.32"/><path fill="#63666A" d="M153.706 95.53c0-.483.477-.882.399-.409-.079.487-.399.408-.399.408m-11.703 6.381c.32-.181.061-.366.422-.283.367.079.325.079.483.265.162.185.26.357-.06.269-.325-.074-.237.037-.464-.037-.218-.07-.381-.214-.381-.214m-.44-.802c-.13-.566-.32-.659-.561-.575-.246.079-.525-.237-.223-.237.301 0 .325-.134.742.288.427.427.844.983.482.909-.361-.07-.403-.209-.44-.385"/><path fill="#63666A" d="M159.401 110.455c-.078-.714 0-1.034.325-1.688.32-.622.64-1.276.079-1.689-.561-.389-.482-.621-.482-1.034 0-.399.561-.723-.399-.798-.97-.079-1.526.158-2.329.487-.802.311-1.368 0-1.846-.487-.482-.477-.644-.886-.802-1.201-.162-.32.079-.812-.084-1.373-.148-.556-.069-1.043.32-1.688.409-.636.807-1.044.807-1.044l.237-.71s-.158-.324.566-.403c.723-.088 1.122-.413 1.609-.65.478-.236.478-.078.719.237.232.325.316.163.881.325.557.167.719.079.641-.162-.084-.237.078-.237.561-.325.482-.074.96-.237.802-.789-.157-.575-.157-.491-.561-.32-.399.153-.399 0-.64-.334-.241-.32-.32-.556 0-.802.315-.232.802-.478.158-.798-.645-.315-1.448-.408-1.044.246.399.636.64.636.32 1.109-.32.487.241 1.2-.241.732-.483-.487.241-.807-.965-1.206-1.201-.398-1.201 0-.556.32.64.325 1.043.64.96.96-.07.316-.316-.074-.316-.074s-.241-.153-.802-.487c-.561-.32-1.072-.245-1.123.334-.083.872.242 1.035-.644 1.271-.882.246-.803.084-.96-.473-.167-.57-.566-.97.236-.97.807 0 .965-.236.566-.551-.404-.33-.404-.33-.084-.812.325-.487.242-.877.886-1.122.64-.246.64-.645.562-.882-.079-.236-.32-.324-.724-.56-.399-.247-1.044-.956-.724-.409.325.561.641.886.803 1.053.158.153-.162.621-.478.222-.325-.39-.325.177-.645-.143-.32-.334-.565-.807-.482-1.29.084-.477-.325-.886.32-.886s.965 0 .965-.473c0-.482.158-.329-.886-.728s-1.925-.552-2.004-.95v-.13c4.847.644 8.887 3.844 10.728 8.19l-.134-.366s0 .645.083 1.28c.075.645.153 1.215-.083 2.013-.232.812-.394.074-.719-.556-.32-.64-1.28-1.684-1.28-1.684l-.325.227s.803 1.044 1.368 1.851c.562.807.877 1.28.877 1.28l.478-.64s.167 1.767-.158 2.718c-.32.96-.394 1.289-.556 2.732-.158 1.442-.325 1.122-.562 1.767-.236.635-.691 1.546-1.164 2.422l-1.222.686-.951-.656m-16.333.368s-.079-.645-.803-1.364c-.723-.714-.965-1.433-1.289-2.333-.32-.881-.399-1.363-.074-1.924.32-.552.556-.645 0-1.128-.562-.468-.807-.306-.882-1.368-.079-1.034-.556-1.28-.881-1.911-.32-.649-.561-.728-.162-2.096.403-1.364.241-2.644.566-3.196l-.371.798a13.62 13.62 0 0 1 6.989-6.262l.056.348c-.032.19-.014.492.223.928.477.89.561.719-.562 1.043-1.122.311-1.363.311-1.201 1.044.158.733 0 1.21 0 1.21s.394-.398.719-.644c.32-.246.32-.4.635-.728.325-.307.487.083.729.162.241.093.078-.325.324.812.232 1.122.473 2.319.075 1.92-.399-.408-.075-.561-.724-.645-.64-.079-.881.158-.881.158s.556.561 0 .733c-.557.143-.557-.172-.877.143-.325.32-.645.093-1.132.645-.477.566-1.043.965-1.043.965s-.557-.065-.557.645c0 .723-.246 1.043-.324.551-.079-.473-.079-.718-.724-.964-.64-.232-1.127-.4-1.285.491-.162.877-.074 2.162.32 1.689.404-.492.881-.422.506.134-.515.761-.255.821-.023 1.137.241.324.162.245.083.728-.083.487 0 .886.237.886.241 0 .324.329.723 0 .394-.325.807-.325 1.285.074s.965.083 1.521.969c.562.882.645.71 1.127.965.478.237.079-.246.882.877.802 1.122.964.964 1.767 1.289.807.311 2.569.636 1.767 1.354-.802.733-.724.645-.802 1.132s-.277.752-.277.752-1.277-.891-2.451-.78c-1.173.107-3.098 1.063-3.098 1.063l-.111-.316"/><path fill="#fff" stroke="#000" stroke-width=".209" d="m137.57 177.575 4.415-.098.96 2.663c-.881 0-1.53-.399-1.53-.399l-4.406.074c1.004-1.484.561-2.24.561-2.24Zm-4.784-1.902-3.403-.274s.32-1.284-.403-2.796l3.871.612c.27.666.276 1.697-.065 2.458Zm-57.299-64.338s7.843 89.723 8.057 91.012c.049.291.039.916.21.959.637.158.972-.1.972-.1l-8.46-92.651z"/><path fill="#fff" stroke="#000" stroke-width=".209" d="M185.069 196.192c3.613-1.999 3.451-4.406 3.451-6.572v-33.715l-1.109-1.211a11.79 11.79 0 0 1-4.332-9.137c0-4.156 2.125-7.806 5.362-9.912l1.132-.761-2.834-5.097c-6.633-.858-11.976-6.215-13.655-12.064h-45.923c-1.674 6.336-7.018 11.206-13.655 12.064l-2.829 5.097 1.127.761a11.8 11.8 0 0 1 5.357 9.912c0 3.683-1.688 6.962-4.332 9.137l-1.109 1.211v33.715c0 2.166-.162 4.564 3.447 6.572 3.608 2.013 34.856 20.048 34.856 20.048s31.433-18.035 35.046-20.048Zm-16.057-72.513a22.1 22.1 0 0 0 11.971 10.774 17.7 17.7 0 0 0-3.878 11.095 17.8 17.8 0 0 0 5.427 12.773c-.032 7.454.014 29.476.014 31.299v.274c0 .185 0 .575-.014.849a12 12 0 0 1-.362.227c-2.467 1.359-22.347 12.713-32.147 18.381-9.805-5.668-29.481-17.022-31.948-18.381-.167-.093-.283-.172-.367-.227-.014-.274-.014-.664-.014-.849v-.274c0-1.823.051-23.845.014-31.299a17.8 17.8 0 0 0 5.432-12.773c0-4.073-1.369-7.95-3.873-11.095 5.176-1.934 9.457-5.788 11.971-10.774z"/><path fill="#FFD90F" d="M184.555 195.288c2.926-1.628 2.922-3.377 2.917-5.403v-.265c0-2.017-.023-29.601-.005-33.307l-.793-.872a12.78 12.78 0 0 1-4.642-9.884c0-4.36 2.179-8.4 5.834-10.779-.004 0 .14-.098.32-.223l-2.115-3.803c-6.502-1.044-11.795-6.146-13.775-11.985h-44.351c-1.976 6.317-7.273 10.941-13.775 11.985l-2.115 3.803c.185.125.324.223.32.223a12.82 12.82 0 0 1 5.839 10.779c0 3.841-1.697 7.44-4.647 9.884l-.793.872c.018 3.706-.005 31.29-.005 33.307v.265c-.005 2.026-.009 3.766 2.917 5.403 3.345 1.851 30.576 17.58 34.337 19.755 3.762-2.175 31.188-17.904 34.532-19.755m-14.903-72.644a21.08 21.08 0 0 0 13.131 11.336 16.7 16.7 0 0 0-4.643 11.577c0 4.708 1.971 9.165 5.436 12.328-.037 7.584.014 29.912.014 31.735v.274c.005.468.005 1.187-.074 1.373-.01.009-.167.236-.84.626-2.63 1.442-23.451 13.353-32.653 18.664-9.197-5.325-29.828-17.222-32.444-18.664-.677-.39-.835-.617-.849-.626-.07-.195-.07-.905-.07-1.373v-.274c0-1.823.047-24.151.01-31.735a16.68 16.68 0 0 0 5.431-12.328c0-4.392-1.693-8.506-4.643-11.577a21.08 21.08 0 0 0 13.131-11.336z"/><path fill="#FFD100" d="M143.58 111.605c-1.048-.974-2.013-1.424-3.418-1.424-.895 0-1.656.645-2.727.993.129.125.278.274.449.431 1.049.984 1.141 2.723 3.066 3.099 0 0-.065 0-.185.014 1.711.283 5.881-.014 5.881-.014-1.929-.376-2.013-2.115-3.066-3.099m11.392 0c-1.048-.974-2.008-1.424-3.409-1.424-.895 0-1.661.645-2.732.993.13.125.283.274.455.431 1.048.984 1.141 2.723 3.065 3.099 0 0-.069 0-.19.014 1.716.283 5.882-.014 5.882-.014-1.93-.376-2.013-2.115-3.071-3.099m7.987-1.424c-.895 0-1.655.645-2.731.993.134.125.278.274.454.431 1.048.984 1.141 2.723 3.066 3.099 0 0-.07 0-.19.014 2.166.134 3.794.398 3.794-1.466 0-1.865-2.064-2.936-4.393-3.061"/><path fill="#F2A900" d="M143.915 63.63c-1.93-.204-2.25 1.384-2.25 1.384s1.289-.53 2.143-.205c.213.08.427.095.621.155l.228-.77-.738-.564"/><path fill="#FF3515" stroke="#000" stroke-width=".209" d="M193.844 113.827s-.802.645-1.767 1.122-.965 1.443-1.285 3.377c-.32 1.92-1.28.956-2.56 1.92-1.285.965-1.512 1.091-1.609 1.92-.084.715 0 .654.964 1.93.965 1.289 2.968.236 2.968.236.804.804 3.732-2.189 3.393-3.98-.158-1.61 3.014-7.564 1.208-8.123z"/><path fill="#F2A900" stroke="#000" stroke-width=".209" d="M201.141 110.061c-1.809.334-5.381 1.122-6.095 2.323 0 0-.32 1.842-1.123 2.965-.798 1.122-.906 1.385-1.122 2.17-.469 1.704 1.285 4.175-.315 5.292-1.61 1.123-1.921.546-2.088 1.359-.62 3.022 1.044 4.421-.964 10.033 0 0 .964 2.166 1.929 1.368.965-.802.158-1.535 1.368-3.534 1.197-2.013 5.608-8.182 5.608-8.182s1.688 4.573.964 6.507c-.719 1.92-.964 2.885-.315 3.284 1.044-.965 2.008-1.29 4.253-1.689.242-.051.45-.083.64-.116l2.032-.254c.366-.009.812-.009 1.503-.009 2.166 0 3.45.092 4.656.482 1.206.399 1.601.483 1.601.483s.162-.163.644-.72c.478-.566 2.806-.969 3.131.965l.478 1.276s0-2.64.487-4.82c.477-2.161.153.167.719 0 .561-.162.802-1.118 1.201-2.393.404-1.29 1.127-1.609 1.61-3.223.314-1.048.752-1.568.532-1.939-.115-.194-.528-.207-.981-.536-1.319-.976-1.884-2.354-2.52-4.349-.64-2.008-1.127-2.731-1.605-3.696-.487-1.238-5.218-2.723-5.218-2.723l-4.034-2.139z"/><path fill="#B3875A" d="M207.254 119.843s-.224 2.097-1 2.615c-1.303.871-4.7-.129-4.7-.129s1.753.755 2.871.918c1.127.167 2.823-.102 2.823-.102l.233-2.811"/><path fill="#000" d="M191.037 204.733c.091-.178.17-.313.237-.42.119-.19.198-.417.198-.417s-.192.146-.316.343c-.07.111-.15.249-.243.43zm-.71-.465c.145-.185.242-.321.312-.427.118-.176.165-.392.165-.392s-.166.144-.281.315a8 8 0 0 1-.305.419zm-.683-.596c.141-.144.228-.261.289-.361.055-.091.078-.203.096-.268.019-.071.039-.12.039-.12s-.16.16-.254.315c-.055.09-.136.201-.269.337z"/><path fill="#D18644" d="M207.653 203.178s1.28 1.289 2.565 1.841c1.285.566 1.763.635 2.806.492 1.048-.167 2.004-.325 2.004-.325-.052-.381.049-.852-.065-.858-.167.156-.374.228-.565.032-.126-.128-.315.18-.614.058-.07-.029-.327.362-.55.139-.104-.103-.418.25-.609.142-.566-.325-.241.158-1.206-.325-.964-.477-1.85-1.442-1.85-1.442l1.767-1.443c.321-.258.201-1.473-1.729-.167-1.846 1.368-1.959 1.846-1.959 1.846"/><path stroke="#000" stroke-width=".209" d="M207.653 203.178s1.28 1.289 2.565 1.841c1.285.566 1.763.635 2.806.492 1.048-.167 2.004-.325 2.004-.325-.052-.381.049-.852-.065-.858-.167.156-.374.228-.565.032-.126-.128-.315.18-.614.058-.07-.029-.327.362-.55.139-.104-.103-.418.25-.609.142-.566-.325-.241.158-1.206-.325-.964-.477-1.85-1.442-1.85-1.442l1.767-1.443c.321-.258.201-1.473-1.729-.167-1.846 1.368-1.959 1.846-1.959 1.846"/><path fill="#D18644" stroke="#000" stroke-width=".209" d="m194.003 203.099-1.123-1.211.869-1.352-.584-.401-.929 1.507-1.961-.65.678-1.365s-1.171.529-1.593 1.64c-.404.714-1.526 2.565-.881 3.117.635.565 1.6 1.846 2.486 1.846.881 0 1.206-.158 2.407-1.044s2.723-2.565 2.723-2.565l-.926-.865zm-2.585-.327c-.231.723-.086.965-.086.965s.352-.109.755-.508c.394-.413.798-.297 1.044-.051.236.245.561.399.561.399s-.879 2.038-1.764 1.987c-.209-.012-.168-.5-.361-.515-.242-.019-.411-.082-.533-.276-.135-.215-.339-.068-.541-.212-.145-.104-.142-.133-.249-.279-.134-.184-.575.009-.642-.569-.022-.192-.245-.394-.242-.614.009-.584.693-1.608.693-1.608s1.611.562 1.365 1.281Z"/><path fill="#F2A900" stroke="#000" stroke-width=".209" d="M216.681 135.36c-.802-.96-6.616-1.402-9.348-1.244-2.727.162-4.624.126-6.392.613-1.762.478-2.917 2.377-2.917 2.377s-.324 1.925-1.122 3.692c-.807 1.763-.807 4.175-1.443 9.945-.644 5.783-.162 8.348.32 11.567.478 3.201-.32 3.855-.964 9.138-.645 5.296-.965 9.327-1.61 12.848-.645 3.529-.802 4.661-.478 6.897.32 2.254-.644 3.372-1.609 5.139-.965 1.762-1.969 3.525-1.969 5.288.803-1.754 2.447-2.556 3.898-1.281a748 748 0 0 0 2.963 2.622l10.521.43s1.28-.162 2.722-1.442c1.447-1.281 1.605-1.123 2.57-.163s1.719.675 2.565.473c.851-.203 1.126-.931 2.249-1.405 1.131-.487-.964-9.661-.964-14.958 0-5.302.482-18.79.971-22.229 0 0 .037-23.97.037-28.307Z"/><path fill="#B3875A" d="M215.357 164.087s-1.285 8.024-1.767 14.921c-.478 6.906-.162 11.558-.965 14.768s-.158 6.582-.158 6.582-.162 1.284-.644-1.276c-.483-2.565-2.087-5.941-1.438-2.565.64 3.363 1.031 4.78 1.031 4.78.657.735 1.306 1.268 2.086 1.068.985-.252.403-.398 1.206-1.673.802-1.29 1.289-.167.482-4.504-.802-4.337.162-11.072.482-13.97.325-2.885-.162-3.201-.162-8.349 0-5.135-.158-9.792-.158-9.792"/><path stroke="#000" stroke-width=".209" d="M216.681 135.36c-.802-.96-6.616-1.402-9.348-1.244-2.727.162-4.624.126-6.392.613-1.762.478-2.917 2.377-2.917 2.377s-.324 1.925-1.122 3.692c-.807 1.763-.807 4.175-1.443 9.945-.644 5.783-.162 8.348.32 11.567.478 3.201-.32 3.855-.964 9.138-.645 5.296-.965 9.327-1.61 12.848-.645 3.529-.802 4.661-.478 6.897.32 2.254-.644 3.372-1.609 5.139-.965 1.762-1.969 3.525-1.969 5.288.803-1.754 2.447-2.556 3.898-1.281a748 748 0 0 0 2.963 2.622l10.521.43s1.28-.162 2.722-1.442c1.447-1.281 1.605-1.123 2.57-.163s1.719.675 2.565.473c.851-.203 1.126-.931 2.249-1.405 1.131-.487-.964-9.661-.964-14.958 0-5.302.482-18.79.971-22.229 0 0 .037-23.97.037-28.307Z"/><path fill="#B3875A" d="M202.514 197.64c1.284-8.34 2.565-15.571 3.052-17.987.477-2.398 1.442-5.617 1.442-8.985s.158-4.336.96-8.515c.803-4.175 1.127-7.06 1.127-11.387 0-4.342-.964-9.161-.964-9.161s.797-.797 1.117.965c.32 1.767.645 2.087.965 1.123.32-.961.645-1.601 1.123-.478.487 1.122 1.131 1.122 1.131 1.122l.478-.324.802.797 1.123-1.117 1.029-1.682c-.232-.015-.045 2.743-.455 5.671-.96 2.894-1.052 2.272-1.052 4.359s.162 2.899.162 2.899-.482.297-.644-1.767c-.163-2.087-.483-3.697-.965.478-.478 4.174-2.087 8.186-1.442 3.85.64-4.328 1.122-9.634 0-8.669-1.128.964-1.61-.153-1.768 3.854-.162 4.017.325 3.85-.32 6.252-.644 2.408 0 3.215-.802 7.881-.807 4.638-1.285 4.494-1.447 7.537-.158 3.056.482 4.805.162 8.826s-.482 4.495-1.285 4.819c-.797.32-.473 0-.797 3.85-.32 3.855-.803 6.586-.803 6.586-.116.769-2.149 2.236-1.929-.157"/><path fill="#D18644" stroke="#000" stroke-width=".209" d="M90.925 96.747c-.269.159-1.203.701-1.555 1.27-.322.52-.348 1.18-.405 1.789-.088.941.452 1.955.103 2.834-.35.88-.584.441-2.027 1.994-1.447 1.55-1.448 3.469-2.677 5.937 0 0 .91-.32 2.519-.594 1.6-.264 3.896-1.577 3.896-1.577s.91-.449 1.183-1.206c.27-.76.213-1.238.158-2.773-.06-1.554-.107-1.874-.107-1.874s-.914.417-.96-.441c-.06-.849.047-1.809.047-1.809s.482-.055.746-.96c.264-.909 1.367-2.489 2.083-2.776.789-.317 1.765-.99 1.85-1.05.21.126.797.788 1.606 1.093.854.32 1.845.595 2.058 2.353.213 1.763.051 1.929-.162 3.107-.214 1.183-.538 1.29-.589 3.103-.056 1.823-.329 2.937.376 4.272 0 0 .69 1.081 2.458 1.61 1.767.533 3.321.812 3.321.812l.255-.01s-.384-1.682-.747-2.458c-.18-.383-.427-1.035-.696-1.063-.093-.023-.236-.519-.477-.597-.965-.325-.107.106-.534-1.123-.431-1.229-.538-2.147-1.772-3.859.803-2.676-.797-5.562-1.386-6.364l-1.698-2.954c-.776-1.123-1.35-1.227-2.31-1.226-.221 0-.463.006-.733.006-1.447 0-1.925.584-2.3 1.113-.376.538-.965 1.763-.965 1.763-.184.556-.244.666-.56 1.658Z"/><path fill="#F2A900" stroke="#000" stroke-linecap="round" stroke-linejoin="round" stroke-width=".209" d="M98.614 94.868c-.102-.08-.527-.212-1.046-.404-.17-.063-.372-.214-.549-.265-.168-.048-.345.086-.499.035-.49-.16-.757-.41-.94-.423-.142-.01-.362.243-.754.357-.241.07-.517-.113-.804-.03-.273.08-.603.28-.878.384a16 16 0 0 0-1.778.804c-.147.473-.334.836-.442 1.42C92.056 96 93.348 95.2 95.222 95.2c1.87 0 3.236.407 3.927.565z"/><path fill="#D18644" stroke="#000" stroke-width=".209" d="M128.9 181.907h12.208s1.118-.645 1.763-1.6c-2.407.542-10.919.392-12.366.389-1.413-.003-2.052-.302-2.484-.389z"/><path fill="#D18644" d="M147.852 144.142c.278-.561.431-.626 1.09-.593.659.023.714-.237 1.16-.214.431.024.501.39.501.39s-.302-.366-.757.028c-.602.533-1.512.338-1.512.338l-.547.279zm6.781 0c-.278-.561-.427-.626-1.085-.593-.663.023-.715-.237-1.155-.214-.445.024-.51.39-.51.39s.31-.366.756.028c.612.533 1.516.338 1.516.338l.548.279-.065-.228m-4.49 1.948c.431.07.807.121 1.127.07.32-.07.645-.07.853-.111.214-.042.423 0 .056.153-.376.162-.589.32-.863.32-.269 0-.635-.098-.853-.209-.209-.111-.32-.32-.158-.269m-.593 1.336c.858-.051.746 0 1.335-.051.589-.046 1.494 0 1.494 0l.134.246s-.078.018-.556.018c-.483 0-1.016-.051-1.443 0-.431.061-1.062-.009-1.062-.009l.093-.195m2.416.965c-.482 0-.909-.227-1.284-.227-.376 0-.696.385-.269.324m-.613-2.987s-.909.9-1.071 1.058c-.158.171-.056.116-.056.654 0 .529-.32.631-.32.631s.696-1.763 1.29-2.301m2.509-.042 1.067 1.058c.158.171.055.116.055.654 0 .529.32.631.32.631s-.695-1.763-1.284-2.301"/><path fill="#D18644" stroke="#000" stroke-width=".209" d="M87.55 203.338c.686-.002 3.199-1.764 3.199-1.764s-.605-1-1.114-1.061c-.695-.084-1.819 1.047-1.819 1.047s.427-.681.56-1.057c.076-.21.133-.656.133-.656l.493-.326c.553.002 1.752.897 2.409 1.647l.882-.716.765.644c-.954.844-2.15 1.682-3.22 2.372-.651.36-1.607.633-2.454.666a1.3 1.3 0 0 1-.558-.106c-.572-.25-1.361-.83-1.504-1.115-.17-.337.234-.693.234-.693s.185.356.357.3c.05-.017.246.289.447.27.1-.01.24.242.438.24.078 0 .198.189.35.181.175-.008.29.103.402.127Z"/><path fill="#573F28" d="M154.212 86.93c-.172-1.268-.075-.508.617-.603.742-.1.528-1.603.528-1.603s2.245-.33 3.21-.33c.96 0 .635-1.163 1.814-1.493 1.182-.32.858-.74.858-.74s.213-.334 1.284-.214c1.072.105 1.178-.43 1.178-.43v-.754l1.174-.214.107-.954 1.711-.11.213-.649 1.392-.205-.107-.644.427-.215-.427-.849h1.285l.107-1.173.96-.32-.427-.644.747-.215-.325-1.073.645-.205v-.654l.965-.42-.112-.749 1.174-.11-.209-.739v-.114s1.174-.315 1.818-1.603c.645-1.279 1.498-1.598 1.498-1.598l-.431-.53.854-.434.111-.744s1.711-.32 3.641-1.073c1.929-.75 2.356-2.563 2.356-2.563s-4.388.74-9.958 1.384c-5.561.644-10.381 1.179-12.843 1.932-2.459.74-.427 2.777-3.53 5.988-1.804 1.862-4.499.849-5.241-.54-.752-1.383-1.712-4.17-1.712-4.17h.854l-.854-1.602.854-.43s-.747-.429-2.459-1.288c-1.711-.844-2.996-.424-4.067.43-1.925-.205-2.245 1.398-2.245 1.398s1.285-.54 2.143-.215c.853.32 1.6-.324 1.924 4.494.32 4.81-2.036 3.96-4.707 3.855-2.245-.324-2.788-.968-3.321-2.781-.534-1.823.111-2.782-2.143-4.39-2.24-1.608-9.518-2.886-13.799-3.635-4.286-.754-10.167-2.352-10.167-2.352s.102.859 1.387 1.708c1.275.859 2.027 1.713 2.027 1.713s.111.11.747 1.064c.64.968 1.707 1.288 1.707 1.288s.426.754.858 1.393c.426.634 2.351 2.666 3.103 3.316.751.634 2.138.634 2.138.634-.534 0-.747.325-.854.969.645.749 1.712 1.073 1.712 1.073l-.214.75 1.387.314-.208 1.069 1.929.43-.431.633 1.823.325-.427.644 1.391.31-.324.644 1.929.215-.325.859h1.819l-.427.749 1.503.214s2.885 1.923 4.925 2.447c2.032.55 1.063 1.184 3.632.334 1.522-.534 1.16-.489 1.716-.643.21-.059 1.387.429 1.067 1.063-.325.654.316 1.179.96 2.572.64 1.388.32.969 1.067.969.32 0 .464.03.557.264l.862-.06c-.032-.215-.055-.334-.027-.53.111-.748.533-.858.533-.858l.96.634s-.213-.634-.533-2.132c-.32-1.493-.112-1.817-.112-1.817l.863.204s.635 2.147 2.143 3.22c.849.605.984.685 1.016 1.03l.77-.1"/><path fill="#B3875A" d="M199.628 125.631c-.167-.96-.246-1.043 0-1.92.237-.89.32-.325.158-1.925-.158-1.609-.079-.807-.724-1.21-.645-.399-.965-.325-.482-1.605.482-1.28 1.206-.891.723-2.333-.482-1.433-.704-1.981-.886-2.24-.194-.277-.241.871-.398 2.24-.167 1.373 0 1.609-.167 3.052-.158 1.442-.399 2.333-.158 2.639.246.338.679 1.482.679 1.482.411 1.172.643 2.362.929 3.554.381-.744.484-.778.326-1.734"/><path fill="#FF3515" stroke="#000" stroke-width=".209" d="M189.35 134.3s1.044 2.087 2.008 1.29c.965-.798.158-1.536 1.369-3.53 1.201-2.013 5.607-8.187 5.607-8.187s1.688 4.564.965 6.508c-.714 1.92-.965 2.876-.315 3.284l-.965 3.441s-.32 1.934-1.123 3.692c-.807 1.772-.807 4.175-1.442 9.959-.645 5.779-.163 8.348.32 11.553.482 3.21-.32 3.855-.965 9.147-.645 5.311-.965 9.327-1.609 12.848-.645 3.534-.803 4.661-.478 6.901.32 2.25-.645 3.368-1.61 5.135-.964 1.772-1.963 3.507-1.963 5.279l-.591 1.197s-3.888-.029-5.943.106c0 0 .631-.807 1.6-1.443.965-.645 1.285-.812 1.605-2.087.325-1.28.483-1.443 1.767-3.052 1.29-1.605 1.61-3.52 1.768-6.577.157-3.052.64-15.895.797-20.724.163-4.8-.32-25.681 0-27.936.32-2.24 0-2.727.163-3.52.153-.798-.64-2.403-.64-2.403z"/><path fill="#B3875A" d="M200.427 197.64c1.373-3.669 2.407-9.147 2.732-12.361.32-3.21.32-7.384-.487-3.052-.802 4.332-1.605 8.029-2.087 11.721s-.645 4.962-.163 3.692m1.93-20.075c.162-2.885.645-3.52 1.609-5.937.965-2.411.64-2.249 1.438-6.423.798-4.175 1.285-6.09 1.443-8.502.162-2.408.487-3.368.487-3.368s-.163.803-1.447 5.455c-1.281 4.661-1.93 6.261-2.408 9.146-.477 2.885-.477 3.544-1.442 5.942-.965 2.407-.482 2.101-.64 4.174-.163 2.102.64.965.96-.487m-10.116-50.245c-.136-.991-.802-2.89-.802-2.89s.157.158.644 0c.478-.158.478-.487 1.123.955.644 1.457.482 1.457.157 2.899-.315 1.443-1.109 3.877-1.109 3.877s.207-3.243-.013-4.841m2.732-.163c.645-.654.807-.315.807-2.402s-.482-2.255-.32-3.224c.158-.955-.162-1.595-.487.172-.32 1.762-.158 2.082-.32 3.205a90 90 0 0 0-.32 2.732zm23.274-6.66-.32-1.526c-.723-1.925-.556-2.324-.881-3.293-.32-.96-1.206-1.925-.802-.473.403 1.442.157 2.722.561 3.441.255.459.445 1.378.427 2.24l-.149.733q-.062.354-.194.645c-.483 1.044-.961 1.364-.961 1.364s.882.881 1.123 4.332c.241 3.455-.377 3.539-.377 3.539.185.079.75.682.535.477-.158-.241.167-3.14.487-4.735.32-1.61.477-2.732.881-3.688.403-.969 1.043-.969 1.363-1.21.32-.232.084-.469-.718-.149-.803.316-.803-.399-.803-.399z"/><path fill="#fff" d="M148.623 87.29a2.3 2.3 0 0 1 0-.54c.111-.738.533-.853.533-.853l.965.65s-.214-.65-.534-2.143c-.32-1.503-.111-1.823-.111-1.823s.111-1.493-.965-2.78c-1.066-1.29-3.529-2.672-3.641-.53-.106 2.147-.38 3.345-.38 3.345.39.18.914.51.705.929-.325.644.32 1.179.965 2.567.64 1.393.32.964 1.071.964.26 0 .413.115.515.294l.867-.07m5.613-.35c-.07-.304-.2-.793-.469-1.483-.533-1.397-.645-1.817-.111-2.247.533-.424.645-.739.645-.739s-.432-1.393-.645-3.006c-.209-1.597-2.565-1.917-2.885-1.068-.325.854-.965 3-.432 4.389 0 0 .641 2.142 2.143 3.206.752.54.933.78.988 1.063l.766-.11m-3.038-16.263s-.747-.205-.854 1.812c-.062 1.186-3.031-.265-4.979-.113-.168.228-.541.596-.817.71-.35.851-1.695 1-2.659 1.097-3.214.31-2.967-.815-6.497-4.68-3.529-3.84-3.132-3.001-8.063-4.39 0 0-5.556-1.498-8.984-2.346-3.423-.85-5.241-.969-6.739-2.782 0 0 5.881 1.598 10.167 2.342 4.285.76 11.558 2.037 13.808 3.645 2.245 1.614 1.595 2.567 2.138 4.38.533 1.823 1.062 2.467 3.312 2.791 2.671.105 5.032.964 4.712-3.855-.246-3.605-.724-4.155-1.308-4.34l.227-.738-.8-.533c1.067-.85 2.41-1.34 4.121-.49a64 64 0 0 1 2.463 1.282l-.853.43.853 1.603h-.853s.964 2.786 1.711 4.175c.747 1.383 3.446 2.397 5.241.534 3.108-3.206 1.072-5.239 3.535-5.988 2.458-.754 7.272-1.288 12.838-1.932 5.562-.644 9.954-1.383 9.954-1.383-3.961 1.598-13.843 3.278-16.301 4.032-2.459.74-3.063.1-5.526 3.75-2.463 3.636-5.751 4.416-7.359 3.484-1.427-1.14-1.64-1.638-1.64-1.638"/><path fill="#FF3515" stroke="#000" stroke-width=".209" d="m220.661 158.317-.327 3.52c-.133 1.437.133 2.004-.158 1.605-.269-.371-.431-1.745-.482-1.289-.044.397-.223.942-.645 1.609-.172.272.159-1.244 0-.965-.391.69-.718.734-.964 1.443-.145.417-.256-.844-.32-1.285-.073-.499-.49.649-.798 1.285-.125.258-.141-1.097-.175-1.413-.017-.168-.426 1.302-.45.854-.036-.679.172-1.309-.02-1.046-.289.395-.205.482-.523.872-.17.208-.141-.51-.275-.872-.141-.381-.419 1.519-.482 1.118-.086-.545.261-2.065 0-1.6-.277.491-.397 1.772-.592 1.305-.191-.456-.093-.984-.21-1.468-.081-.334-.652 1.152-.645.807.03-1.554.468-5.937.468-5.937s1.576.825 2.343 1.276c.735.432 1.363 1.368 2.161 1.368.807 0 1.121-.134 1.564-.446.248-.175.465-.336.53-.741Z"/><path fill="#000" d="M94.383 102.964c.139-.051.292-.028.408-.06.547-.162.89-.204 1.322-.204.306 0 .561.107.793.213.172.065.357.088.51.107 0 0-.607.06-.983.213-.376.158-.585.158-.905 0-.324-.153-1.145-.269-1.145-.269"/><path fill="#FF3515" stroke="#000" stroke-width=".209" d="m116.779 210.031.911-.304c.43-.031 1.553-.631 2.087-1.485.538-.862.21-1.515.161-2.273-.058-.895-.128-1.839-.538-2.637-.516-1.005-1.4-1.808-2.304-2.487-.577-.434-1.231-.819-1.937-.973a2.5 2.5 0 0 0-.513-.043c-.573.001-1.237.106-1.237.106l-1.627 1.069s4.405 7.823 4.997 9.027Z"/><path fill="#000" d="M98.636 98.586c.585.39-1.98-.274-2.031.31-.056.585.208 1.443.375 1.874.158.427.158 1.063-.538 1.012-.69-.051-1.335.213-1.178-.214.163-.431.209-.371.209-.371s-.153.325.111.371c.27.051.325.051.59.051.268 0 .588 0 .64-.32.055-.325 0-.542-.21-1.173-.213-.654-.324-1.178-.11-1.503.208-.334.533-.478 1.122-.431.589.05.862.264 1.02.385m-3.26.746c.106-.477.05-.858-.534-1.062-.589-.213-1.178-.05-1.716.371 0 0 .274.06.858-.046.59-.102 1.067.046 1.178.213.107.167.213.538.213.538m-.11 4.379c-.34-.218.806.102 1.07.102-.486.227-.75.12-1.07-.102"/><path fill="#BBBCBC" stroke="#000" stroke-linejoin="bevel" stroke-width=".209" d="M210.218 140.798c-2.63 0-4.82-1.526-4.82-3.284.252-.03 3.171-.115 4.757-.127 1.601-.013 4.803.053 4.803.053.014 1.846-2.106 3.358-4.74 3.358Z"/><path fill="#BBBCBC" stroke="#000" stroke-linecap="round" stroke-linejoin="bevel" stroke-width=".209" d="M235.273 140.798c-2.639 0-4.824-1.526-4.824-3.284 0 0 3.219-.065 4.736-.065 1.53 0 4.814-.009 4.814-.009.019 1.846-2.096 3.358-4.726 3.358Z"/><path fill="#BBBCBC" stroke="#000" stroke-width=".209" d="M235.668 122.023v-.645c-.241-.079-11.721-.802-11.721-.802s-.991.085-1.043.083c-.297-.014-.886-.083-.886-.083s-11.475.709-11.721.802v.645l12.685-.32z"/><path fill="#61619E" d="m109.638 127.157 1.758-5.583c-.486-.926-1.172-2.232-2.483-2.196-2.467.066-2.87 3.32-3.028 7.012-.162 3.687-.097 6.152-.097 6.152s.404.96.803 1.925c.403.956.792 1.025 1.191-.097.403-1.122 1.861-7.199 1.861-7.199"/><path stroke="#000" stroke-width=".209" d="m109.638 127.157 1.758-5.583c-.486-.926-1.172-2.232-2.483-2.196-2.467.066-2.87 3.32-3.028 7.012-.162 3.687-.097 6.152-.097 6.152s.404.96.803 1.925c.403.956.792 1.025 1.191-.097.403-1.122 1.861-7.199 1.861-7.199"/><path fill="#0077C8" stroke="#000" stroke-width=".209" d="M83.385 141.763c-.482 3.692.01 7.413.172 9.825-1.772 6.739 1.276 10.334 1.758 16.028.29 3.418-1.21 4.902.482 10.279.154.489-.608 1.838-.642 2.793-.05 1.384 1.12 2.007.642 4.104-.482 2.078.422 3.125.577 4.694.31 3.135 1.83 3.979.708 9.425 1.6-.631 4.657 1.771 7.704 3.056 3.047 1.28 7.222.158 9.147-.798 1.929-.978 4.927.847 4.927.847s-.068-.134-.433-1.171c-.802-2.408-2.245-4.175-2.245-4.175s-1.285-13.335-.807-17.671c.483-4.319.965-4.486.965-4.486s-.802-1.934-.965-4.981.64-6.424 1.127-8.831c.483-2.407-.162-3.841-.162-3.841l-.005-.009a9 9 0 0 1-.64-.158c-1.118-.32-4.276-21.252-4.276-21.252s-4.17.436-6.201.547c-2.037.107-.859-.644-3.108-1.706-2.25-1.077-5.918-.558-5.918-.558-2.075 1.928-2.329 4.352-2.807 8.039Z"/><path fill="#61619E" d="M85.605 130.069s.188.224 1.63.303c1.448.074 1.689-.246 2.653-.413.965-.153 2.009 0 3.043-.153 1.048-.149-.561.566 1.285.728 1.85.158 2.648.079 3.53.079.88 0 1.924.876 3.126-.399 1.21-1.285 1.767-1.201 1.609-2.82-.153-1.596-.965-2.797-1.28-3.521-.325-.728-.403-.89.478-1.85.666-1.256 1.613-.82 1.925-2.403.241-1.683-.114-1.989-.084-3.219.023-.953.246-4.318.404-2.718.162 1.596 1.043 1.767.886 4.017-.163 2.245-.242 1.846.719 1.044.964-.807 2.884-2.166 1.363-.242-1.526 1.93-2.087 3.048-2.407 4.819-.32 1.749-.965 9.113-.965 9.113s-3.924-.133-5.213-.212c-1.285-.079-12.275-.895-12.275-.925z"/><path fill="#523178" d="M82.741 124.189c-.523-.712-1.425-1.092-2.166-1.614.803.9 1.063 1.984 1.155 3.075.121 1.431.27 2.356.135 3.831-.163 1.767.079 3.298.157 1.132.07-2.023.124-3.563.186-5.654.009-.312.39-.48.533-.77m9.156-2.25-.566 5.701s0 1.442.32.162c.32-1.285 1.925-9.638 2.088-10.436.152-.807 0-1.206-.163-.561-.158.654-.346 3.335-1.576 4.169-1.205.816-3.982.151-4.365-.078-.345-.206-.564.105 0 .368 1.41.689 3.051 1.079 4.262.675m4.174-5.046s.636 4.972.803 6.572c.158 1.605.514 2.178.399.32-.116-1.869-.542-2.561.645-2.328 1.595.32 3.039.794 4.359.184.934-.432 1.786-1.411 1.897-2.434.067-.616-.477-3.205-.802-1.679-.32 1.517-.806 2.496-1.816 3.184-.813.553-2.043.666-2.92.42s-1.534.541-1.604-.153c-.158-1.21-.516-3.37-.562-3.775-.068-.617-.482-1.118-.398-.32"/><path fill="#9BD9F4" stroke="#000" stroke-width=".209" d="M101.086 110.899s-.121 1.564-.441 3.652-1.206 1.841-2.649 1.934c-.65.023-3.53.023-5.774.153-1.452.083-1.364-.246-2.088-2.013-.728-1.753-1.451-5.204-1.451-5.204a29 29 0 0 0 2.073-.988s1.377 4.114 1.781 4.921c.394.798 0 .719 1.605.64 1.605-.088 2.238-.003 3.205 0 .703.002.79.162 1.048-1.285.399-1.925.496-3.683.496-3.683.518.778 1.254 1.511 2.195 1.873Z"/><path fill="#523178" d="M87.56 133.502c-.724 2.088-.724 2.398-.886 3.363s.162.965.64-.158c.487-1.117 1.452-2.806 1.689-3.052zm4.012.798c1.061 1.119 2.593 1.211 3.001 2.644.394 1.452.552 3.701.96 2.022.394-1.688 1.201-2.259 2.004-2.333.802-.093 1.74-.408 1.901 1.688.158 2.088.395 1.763.075 5.692-.316 3.928-.803 9.063-.316 7.472.478-1.61.72-3.943 1.049-6.828.31-2.894.31-2.741.551-2.333.246.399.645 1.206.645 1.206v-7.94s-8.423-1.443-9.786-1.536c-.148-.055-.39-.077-.084.246m-8.135 18.706c.426-2.24.858-1.596.644.329-.218 1.911.747 7.593.96 9.523.219 1.92.279 2.775-.28.941-1.593-5.15-1.756-8.553-1.324-10.793"/><path fill="#523178" d="M94.573 148.618c-.431 5.237-.751.538-.218 5.891.538 5.343 1.392 6.837.32 12.087-1.066 5.246-1.173 9.954-1.173 13.27 0 3.326.431 6.962.853 1.934.432-5.032 1.61-13.381 1.392-16.707-.213-3.307.427-7.922.529-11.665.106-3.748.533-7.175.426-10.371-.102-3.219-.853-2.157-1.28-.858-.426 1.28-.849 6.419-.849 6.419m6.74-.431c-.645 4.712-1.067 7.611-1.712 12.421-.644 4.815-1.93 8.989-2.463 13.488-.533 4.494-.431 8.024 0 4.174.432-3.854 1.387-7.388 2.352-12.421.965-5.023 1.823-10.603 1.823-10.603l.315-1.799.04-5.777c-.166.066-.287-.09-.355.517m-6.53-30.26c-.32 3.358-.163 6.262-.483 8.989-.32 2.732.482 3.043.56-.232.08-3.298.163-7.231.163-8.446 0-1.192-.083-1.679-.24-.302"/><path fill="#fff" stroke="#000" stroke-width=".209" d="M122.181 206.144c.251 0 .45-.199.45-.45a.455.455 0 0 0-.45-.459.456.456 0 0 0-.454.459c0 .251.204.45.454.45Zm.401.921c.25 0 .454-.208.454-.45a.452.452 0 1 0-.904 0c0 .242.204.45.45.45Zm.156 1.015a.457.457 0 0 0 .454-.45.46.46 0 0 0-.454-.459.454.454 0 1 0 0 .909Zm-.141 1.033c.25 0 .454-.204.454-.45a.45.45 0 0 0-.454-.45.444.444 0 0 0-.45.45c0 .246.204.45.45.45Zm-.33.941a.444.444 0 0 0 .446-.45.45.45 0 1 0-.446.45Z"/><path fill="#000" d="M146.68 63.569c.774.435-.288.08-1.057 0-.774-.064-.779-.33-.779-.33.938-.02 1.067-.086 1.836.33"/><path fill="#61619E" d="M84.995 124.189s.32.807.802 1.196c.478.399 1.443.246.886 1.053-.565.803-.644 2.565-.728 3.122-.079.566-.403.32-.403.32-.02-.574-.094-1.442.008-2.045.123-.727.42-1.177.32-1.704-.518-.481-.883-.999-.806-1.622z"/><path fill="#000" d="M171.899 112.261c.348-.505.511-.831.655-1.355-1.124-.023-2.307-.017-3.491-.011.84.571 2.537 1.8 2.836 1.366M93.395 99.384c.371-.107.64-.538.96-.274.32.274.487.33.487.33s-.218.11-.533.264c-.325.157-.274 0-.487-.102l-.427-.21m3.636.043c.376-.112.645-.538.965-.265.32.265.487.311.487.311l-.538.264c-.324.163-.269 0-.482-.106a20 20 0 0 1-.431-.204M74.393 89.16s-.853.278-1.61.32c-.746.051-1.228.376-.532.589.695.218 1.482.768 1.482.615 0-.158-.193-.94-.193-.94zm-.853 4.87c.478-.111.696-.213.696-.213l-.139-.687c-.851.645-1.035.998-.557.9m-2.519 0c.534.158 1.178.056 1.178.056s-.106-.32-.588-.534c-.483-.218-.888-.568-.944-.141.068.35.354.62.354.62m1.666 3.112c.797-.598 1.224-.909 1.224-.909s.315-.593-.533.051c-.858.645-1.285.738-1.712.858-.427.093-.724.154-.724.154s.356.27.147.813c-.255.63.79-.382 1.598-.967m1.433 1.415.009.12s.107-.11-.01-.12m49.151 125.297-.028-.028c-.028-1.401-1.067-2.352-2.231-2.648-.612-.153-.867-.056-.988.431l-.366 1.452c.955.222 1.734.195 2.24-.659l-.005-.009-.686 2.755.005.032c-.028-.997-.705-1.424-1.666-1.669l-.663 2.75c-.12.492.042.696.663.849 1.332.329 2.802-.213 3.442-1.433l-.705 2.592-6.327-1.567-.037-.019c.742.181 1.262-.77 1.383-1.271l1.071-4.258c.116-.501 0-1.094-.728-1.28l.009-.028 6.169 1.526-.547 2.473m4.142 5.477.078-.389c.687.13.821.069.858-.084.038-.204-.027-.334-.111-.561l-.626-1.688-1.289 1.271c-.154.162-.242.292-.269.417-.042.237.153.399.825.529l-.069.413-2.853-.552-.032-.01c.57.051 1.233-.505 1.669-.913l1.828-1.698-1.081-2.876c-.158-.422-.315-1.34-.886-1.433l-.009.019 3.469.658h.005c-.649-.111-.835.306-.886.552-.019.116.014.241.084.45l.505 1.461 1.132-1.104c.144-.134.246-.264.283-.417.032-.204-.088-.752-.608-.849l.023.019 2.686.514h-.023c-.812-.106-1.174.46-1.754.988l-1.507 1.373 1.266 3.419c.149.389.339 1.02.886 1.187h-.028l-3.553-.686m11.958-2.76-.033.009c-.352-1.507-1.201-2.398-2.388-2.542-1.262-.157-1.953.923-2.208 2.927-.255 2.078.301 3.256 1.688 3.418 1.35.167 2.468-.561 2.741-2.096l.209.032c-.223 1.777-1.368 2.732-3.228 2.505-2.407-.301-3.525-2.138-3.279-4.095.241-1.962 2.105-3.423 4.026-3.178.765.088 1.386.46 1.929.849l.872-.315h-.018l-.311 2.481m7.982.445.009.028c-.292-1.354-1.544-2.161-2.745-2.221-.636-.028-.858.106-.886.603l-.042 1.526c.983.041 1.762-.195 2.087-1.146l-.014.042-.139 2.857-.009.009c-.223-.974-.96-1.248-1.939-1.299l-.167 2.82c-.028.506.181.664.812.705 1.373.065 2.727-.756 3.121-2.073h-.014l-.19 2.686-6.512-.325-.009-.009c.761.032 1.043-.515 1.062-1.025l.241-4.88c.023-.51-.162-1.118-.918-1.155l-.033.019 6.35.306-.06 2.523m1.748 4.573.014-.009c.766-.018.974-.598.965-1.108l-.13-4.88c-.018-.515-.241-1.076-1.002-1.057l-.037-.01 3.739-.102.009.01c-.761.018-1.002.593-.988 1.108l.134 4.87c.01.487.2.631.715.613 1.029-.028 2.245-1.114 2.477-2.292l.013-.009.014 2.709-5.927.157m7.49-2.982.019.009c.39 1.086 1.628 2.194 2.927 2.06.695-.07 1.271-.45 1.187-1.308-.148-1.484-4.054-.566-4.295-2.918-.148-1.465.854-2.407 2.148-2.546 1.108-.107 1.535.39 1.809.362.199-.01.681-.283.779-.487l.004-.01.251 2.426-.014.01c-.404-1.077-1.568-1.949-2.635-1.842-.644.07-1.145.487-1.08 1.155.167 1.586 4.095.399 4.374 3.038.148 1.535-1.146 2.468-2.278 2.579-1.261.134-1.795-.357-2.124-.325-.2.028-.7.344-.77.487l-.028.01-.274-2.691m7.431 1.874h-.014c.751-.13.909-.723.83-1.229l-.798-4.828c-.078-.51-.431-1.035-1.182-.909h.009l3.687-.613-.009.01c-.747.12-.886.723-.802 1.229l.793 4.828c.083.506.403 1.021 1.155.909l.009.01-3.687.593m7.203-8.701c1.892-.427 3.896.821 4.346 2.736.45 1.935-.789 3.943-2.69 4.393-1.888.427-3.887-.83-4.337-2.755-.45-1.907.788-3.938 2.681-4.374m1.549 6.67c1.169-.269 1.359-1.559.909-3.493-.45-1.911-1.183-2.982-2.352-2.713-1.168.278-1.354 1.554-.909 3.488.441 1.915 1.178 2.991 2.347 2.718m10.895-2.575c-.431.144-.64.228-.64.228-.997.306-1.553-.112-1.98-1.239-.436-1.187-.571-1.484-1.679-1.308l.631 2.055c.167.557.501 1.136 1.317.867l-.014.024-3.479 1.062.01.009c.732-.213.783-.849.63-1.336l-1.428-4.68c-.149-.491-.543-.951-1.266-.733l-.014-.023 3.441-1.043c1.67-.501 2.718-.102 3.066 1.034.39 1.289-.788 2.004-1.883 2.352l.014.032c1.248-.218 1.716.339 2.147.942.599.872.743 1.27.979 1.206.96-.297 1.085.227.148.551m-4.406-2.68c1.053-.381 1.665-.756 1.313-1.874-.246-.817-.826-1.239-1.508-1.044-.343.107-.598.329-.459.789l.65 2.129"/><path stroke="#000" stroke-linecap="round" stroke-width=".801" d="M112.917 157.746c0 1.485 3.558.51 3.558 2.004m-1.141-5.937c-.998 1.085 2.268 2.792 1.27 3.878m-.065-5.515c-.821 1.229 2.681 2.393 1.86 3.632m-.941-5.432c-.612 1.341 3.024 1.925 2.416 3.284m-1.795-5.227c-.389 1.433 3.298 1.433 2.908 2.866m-2.597-4.865c-.153 1.475 3.483.895 3.326 2.37m-3.344-4.393c.083 1.475 3.58.325 3.659 1.809m-3.993-3.817c.315 1.456 3.585-.241 3.9 1.201m-4.545-3.121c.538 1.387 3.492-.798 4.035.575m-4.986-2.347c.751 1.266 3.326-1.378 4.077-.102m-5.301-1.526c.95 1.127 3.07-1.874 4.012-.737m-5.473-.664c1.117.979 2.731-2.333 3.845-1.354m.45-4.508c-1.364.57.909 3.464-.455 4.049m2.314-5.01c-1.289.733 1.281 3.354-.013 4.077m1.767-5.218c-1.206.854 1.642 3.187.431 4.045m1.169-5.38c-1.109.983 1.971 3.005.867 3.979m.58-5.487c-.993 1.095 2.287 2.774 1.289 3.868m0-5.514c-.867 1.201 2.57 2.509 1.703 3.706m-.603-5.478c-.729 1.289 2.824 2.212 2.096 3.502m-.946-5.988c-.872 1.187 2.857 2.611 1.99 3.798m-17.05 33.173c-.149 1.475 3.488.881 3.339 2.352m-3.613 1.294c0 1.484 3.558.528 3.558 2.003m15.398-39.132c1.48 0 .52-3.549 1.999-3.549m.464 3.549c1.485 0 .52-3.549 1.995-3.549m.468 3.549c1.48 0 .52-3.549 1.999-3.549m.459 3.549c1.485 0 .52-3.549 2.004-3.549m.459 3.549c1.48 0 .515-3.549 1.999-3.549m.464 3.549c1.484 0 .52-3.549 1.999-3.549m.464 3.549c1.48 0 .52-3.549 1.999-3.549m.459 3.549c1.485 0 .52-3.549 2.004-3.549m.459 3.549c1.48 0 .515-3.549 1.999-3.549m.464 3.549c1.484 0 .52-3.549 1.999-3.549m.464 3.549c1.484 0 .52-3.549 1.999-3.549m.464 3.549c1.48 0 .519-3.549 1.999-3.549m.459 3.549c1.48 0 .515-3.549 1.999-3.549m.464 3.549c1.484 0 .52-3.549 1.999-3.549m.464 3.549c1.484 0 .519-3.549 2.004-3.549m.459 3.549c1.479 0 .519-3.549 1.999-3.549m-57.885 42.853c0 1.475 3.558.515 3.558 1.999m-3.558.172c0 1.475 3.558.515 3.558 1.994m-3.558.167c0 1.475 3.558.529 3.558 2.004m-3.558.171c0 1.475 3.558.506 3.558 1.99m-3.558.172c0 1.475 3.558.51 3.558 2.004m-3.558.166c0 1.485 3.558.515 3.558 1.995m-3.558.167c0 1.484 3.558.529 3.558 2.004m-3.558.162c0 1.475 3.558.519 3.558 1.999m-3.558.181c0 1.47 3.558.501 3.558 1.985m-3.558.176c0 1.471 3.558.52 3.558 2.004m-3.558.162c0 1.485 3.558.515 3.558 1.999m-3.558.163c0 1.475 3.558.519 3.558 2.003m-3.396.483c0 1.475 3.44.471 3.44 1.955m-.977 4.942c1.28.756 2.231-2.806 3.507-2.069m-1.42 3.279c1.281.752 2.231-2.806 3.507-2.068m-1.424 3.279c1.285.733 2.231-2.82 3.506-2.078m-1.419 3.289c1.285.728 2.231-2.82 3.507-2.078m-1.424 3.265c1.285.756 2.231-2.806 3.506-2.069m-1.419 3.28c1.285.751 2.231-2.807 3.506-2.078m-1.419 3.288c1.285.742 2.231-2.82 3.507-2.087m-1.424 3.288c1.284.738 2.231-2.824 3.506-2.077m-1.419 3.283c1.285.743 2.231-2.82 3.506-2.064m-1.424 3.266c1.285.751 2.231-2.806 3.507-2.069m-1.419 3.275c1.284.746 2.231-2.816 3.506-2.078m-1.419 3.284c1.285.728 2.231-2.825 3.506-2.078m-1.424 3.284c1.285.742 2.231-2.821 3.507-2.078m-1.419 3.279c1.284.737 2.231-2.82 3.506-2.069m-1.424 3.265c1.285.756 2.231-2.796 3.507-2.068m-1.735 3.061c1.28.747 2.226-2.815 3.502-2.087m-37.063-20.055c.492 1.4 3.315-.548 3.807.843m-3.154 1.67c1.048 1.053 2.876-2.157 3.924-1.113m-.209-58.4c-.496-.89-1.586-.983-2.468-.89-.89.092-1.484-.205-1.484-.205m17.551-10.204c.691-.426-.394-3.047.098-3.344"/><path stroke="#000" stroke-width=".209" d="m128.024 180.307-2.091-.334 4.117-4.522m11.85 2.073c.079 1.118-.244 1.489-.485 2.217l-.72.795-.485-.775m3.464-2.033 1.285 1.609-2.088.97m-8.112-11.165-.014 1.912m-.144 1.446-.04.582m.015 3.079-.137 1.084m0 2.088-.019 1.383m-3.443-7.81.011-2.085m.075 4.708-.01 1.257m8.516-2.842.011.441m-.081 2.225v.955m0 2.25.035.81m-3.244-1.617-.931 1.705m1.803-3.866-2.511 3.869m1.796-4.918-.802 1.531m1.364 2.486-.68.89m-5.343-1.322-.045 1.315m8.713-7.94.01-1.45 2.72 4.333m20.061 7.402-4.671-1.832m5.459 1.6v-10.969m.353 10.709 6.605-1.243m-8.308-6.519 1.346-2.567m.167 2.56 3.32-1.655m6.442-10.744s2.649 2.177 4.148 3.026c1.498.862 5.218 1.757 5.218 1.757m-47.273-52.462s-.07 0-.19.014c1.711.282 5.876-.014 5.876-.014-1.925-.376-2.013-2.115-3.066-3.089-1.048-.974-2.013-1.434-3.413-1.434-1.61 0-2.431.858-2.268 2.375.157 1.526 1.368 2.148 2.889 2.148m27.514-4.611a13.53 13.53 0 0 0 2.11-7.286c0-5.53-3.456-10.37-8.187-12.498m-2.366-.781a16 16 0 0 0-3.064-.335c-.557 0-1.377.052-1.919.107m-1.163.262c-5.96 1.443-10.541 6.825-10.541 13.245 0 2.699.789 5.218 2.143 7.333m3.975 1.465c-1.048-.974-2.013-1.424-3.418-1.424-.896 0-1.656.645-2.728.993.13.125.279.274.45.431 1.049.984 1.141 2.723 3.066 3.099 0 0-.065 0-.185.014 1.711.282 5.881-.014 5.881-.014-1.93-.376-2.013-2.115-3.066-3.099Zm5.691 0c-1.048-.974-2.013-1.424-3.409-1.424-.895 0-1.665.645-2.732.993.13.125.278.274.455.431 1.048.984 1.136 2.723 3.066 3.099 0 0-.07 0-.191.014 1.712.282 5.877-.014 5.877-.014-1.93-.376-2.013-2.115-3.066-3.099Zm5.701 0c-1.049-.974-2.009-1.424-3.41-1.424-.895 0-1.66.645-2.731.993.129.125.282.274.454.431 1.048.984 1.141 2.723 3.066 3.099 0 0-.07 0-.19.014 1.716.282 5.881-.014 5.881-.014-1.929-.376-2.013-2.115-3.07-3.099Zm5.705 0c-1.049-.974-2.013-1.424-3.414-1.424-.891 0-1.661.645-2.727.993.129.125.278.274.454.431 1.048.984 1.132 2.723 3.061 3.099 0 0-.065 0-.185.014 1.707.282 5.876-.014 5.876-.014-1.929-.376-2.013-2.115-3.065-3.099Zm2.282-1.424c-.896 0-1.656.645-2.732.993.134.125.278.274.454.431 1.048.984 1.141 2.723 3.066 3.099 0 0-.07 0-.19.014 2.166.134 3.794.398 3.794-1.466 0-1.865-2.064-2.936-4.392-3.061z"/><path stroke="#000" stroke-linecap="round" stroke-linejoin="bevel" stroke-width=".209" d="m236.342 137.393-.743-15.372m0 0-5.15 15.493m5.15-15.493 4.4 15.419"/><path stroke="#000" stroke-width=".209" d="M230.449 137.514s3.219.501 4.736.501c1.53 0 4.814-.575 4.814-.575"/><path stroke="#000" stroke-linejoin="bevel" stroke-width=".209" d="M205.398 137.514s3.219.501 4.741.501c1.526 0 4.819-.557 4.819-.557"/><path fill="#FFD100" stroke="#000" stroke-width=".209" d="M168.033 110.9s5.343.006 6.619.043c1.289.037 1.289-1.17 0-1.17h-6.661c-1.28 0-1.809 1.053.042 1.127Z"/><path fill="#000" d="M98.785 103.65c-.425 1.114-1.305 2.2-2.82 2.304-.585.041-1.138-.169-1.6-.444a7 7 0 0 1-1.154-.871l-.073-.07-.028-.028q.004.003.023.032l.062.08q.082.105.234.27c.214.227.505.491.865.706.476.284 1.059.507 1.681.464 1.585-.109 2.502-1.244 2.94-2.393z"/><path stroke="#000" stroke-width=".209" d="M95.778 113.956c.867.038.777.287.929 1.323.158 1.085-.166 1.286-.494 1.234"/><path fill="#000" d="M93.773 116.5c-.304.047-.377-.282-.285-1.033.039-.316.03-.645.03-.645s-.128.304-.168.628c-.095.775-.016 1.259.444 1.187z"/><path stroke="#000" stroke-width=".209" d="M74.068 182.862s4.02 1.285 2.731 3.382c-1.284 2.077-3.147 3.805-2.664 5.572m-1.207-21.372s2.29 1.14 4.354 1.992c2.063.851 2.245 1.284.64 2.722-1.6 1.443-5.406 5.31-5.464 6.488m6.536-7.958s-.72-5.995.727-14.191m6.392-28.221s-1.072-1.396-.431-3.956c.282-1.114.43-1.076-.214-1.615-.645-.524-.533-3.205-.533-3.205s-.534.747-.752 1.823c-.208 1.062-1.948 7.278-1.948 7.278-.96 3.13-2.866 5.677-3.743 2.537m2.19-7.692c.083 3.687.684 7.402-.36 8.766"/><path fill="#523178" d="M102.171 156.647c-.214 4.587.32 4.17-1.29 11.136-1.605 6.958-1.925 7.491-2.565 12.412s-.742 1.819-1.28 6.744c-.533 4.921-1.498 5.237.316 7.06 1.822 1.813 3.854 2.351 3.854 2.351s-1.392-1.062-2.245-2.24c-.853-1.183-1.387-2.25-1.285-2.904.107-.621 1.285-.092 1.285-.092s-.853-.432-.751-2.245c.106-1.828 1.284-2.041 1.284-2.041s-.11-3.103.432-7.059c.533-3.971.426-7.064 1.391-8.767.965-1.716 1.818-3.539 2.032.204.213 3.748.751 11.772.751 15.956 0 4.174.32 7.491 1.178 9.091.849 1.6 2.245 2.565 2.245 2.565s.008-41.209-.537-42.124c-.095-1.47-4.815-.047-4.815-.047"/><path fill="#000" d="M214.398 204.36c-.207-.475-.344-.535-.555-.634z"/><path fill="#000" d="M214.461 204.332a2 2 0 0 0-.219-.397c-.157-.2-.399-.209-.399-.209s.18.146.289.293c.061.08.126.193.202.369zm-22.84.76c.141-.144.245-.282.327-.407.149-.226.223-.491.223-.491s-.201.204-.339.415a2.6 2.6 0 0 1-.31.385zm22.216-.713a4 4 0 0 0-.182-.38c-.121-.193-.334-.192-.334-.192s.144.137.215.264a4 4 0 0 1 .173.364zm-.56.115a2.6 2.6 0 0 0-.195-.387c-.133-.195-.355-.197-.355-.197s.155.14.239.274c.05.076.106.188.183.365zm-.756.091a3 3 0 0 0-.201-.4.53.53 0 0 0-.372-.229s.159.151.255.304c.055.085.114.204.191.38z"/><path fill="#F2A900" fill-rule="evenodd" stroke="#000" stroke-linejoin="bevel" stroke-miterlimit="6.3" stroke-width=".209" d="m116.505 204.166 2.021-1.118-.798-1.055.47-1.452 1.23 2.187 1.349-1.008.871 1.422-1.569.273 1.578 2.58-1.893-.921-.488-1.123-3.71 1.889-.536-.976z" clip-rule="evenodd"/><path fill="#FF3515" d="M109.874 193.141c-.482-4.973-.315-12.357-.482-18.461-.158-6.099.482-15.89 1.127-23.27.64-7.388-.429-25.983-.429-25.983l-.452 1.893s-1.206 5.148-1.93 7.059c-.714 1.939-1.516-.547-2.087-2.89-.556-2.319-1.275-4.564-1.6-9.786-.404 2.407-.728 9.313-.728 9.313l-1.665 22.431s-.733 2.759.389 3.089c1.123.315 1.461.679 1.939.349.482-.315.822-.5 1.734-.193.218.074.455.117.673.15.074.44.644 1.456.149 3.85-.483 2.416-1.285 5.783-1.118 8.84.153 3.047.956 3.309.937 5.006-.017 1.52-.654 1.552-.937 4.461-.487 4.336.72 17.492.802 17.662.101.208 1.438 1.776 2.241 4.174.18.548.601 2.192.675 2.406.089-.009 2.761-2.272 3.878-4.359 0 0-2.624-.769-3.102-5.751"/><path stroke="#000" stroke-linecap="square" stroke-miterlimit="15" stroke-width=".209" d="M109.874 193.141c-.482-4.973-.315-12.357-.482-18.461-.158-6.099.482-15.89 1.127-23.27.64-7.388-.429-25.983-.429-25.983l-.452 1.893s-1.206 5.148-1.93 7.059c-.714 1.939-1.516-.547-2.087-2.89-.556-2.319-1.275-4.564-1.6-9.786-.404 2.407-.728 9.313-.728 9.313l-1.665 22.431s-.733 2.759.389 3.089c1.123.315 1.461.679 1.939.349.482-.315.822-.5 1.734-.193.218.074.455.117.673.15.074.44.644 1.456.149 3.85-.483 2.416-1.285 5.783-1.118 8.84.153 3.047.956 3.309.937 5.006-.017 1.52-.654 1.552-.937 4.461-.487 4.336.72 17.492.802 17.662.101.208 1.438 1.776 2.241 4.174.18.548.601 2.192.675 2.406.089-.009 2.761-2.272 3.878-4.359 0 0-2.624-.769-3.102-5.751"/><path fill="#523178" d="M100.454 197.969c-2.884-1.289-4.605-2.254-5.88-4.717-1.29-2.463-1.499-3.205-1.824-7.38-.32-4.174-1.178-10.598-.964-6.739.213 3.845-.316 9.513-.112 13.688.214 4.174 2.032 4.063.112 4.063-1.93 0-4.175-.093-.112.969 4.068 1.071 1.498 3.316 4.5 2.143 2.996-1.169.75-2.347 4.28-2.027"/><path fill="#200400" stroke="#000" stroke-width=".209" d="M110.049 205.967c.664 1.698 1.516 3.496 2.553 4.836.26.337 1.079 1.558 1.213.399.116-1.009-1.266-5.049-1.749-6.228-.477-1.178-1.932-3.13-1.932-3.13-.525-.388-.95.26-.668 1.57.132.617.241 1.678.583 2.553Z"/><path fill="#523178" d="M86.331 176.336c.209-.431 2.352-4.708 2.352-4.708s.218-1.066.32-2.462c.106-1.383-.64-.965-1.387-.432-.752.543-1.387-.524-1.61 2.046-.208 2.56.112 3.743.325 5.556"/><path fill="#FFD9EE" stroke="#000" stroke-width=".209" d="M105.025 203.025s2.395 2.276 2.636 2.276c.237 0 1.232-.049 1.626.03a.92.92 0 0 0 .704-.172s.323.023.653-.222c.449-.449.678-.405-.046-.971-.728-.542-1.624-1.716-1.624-1.716-.057-.04-1.828-1.021-2.257-1.149-1.449-.432-2.361-.209-3.49.384z"/><path fill="#523178" d="M90.826 170.242c2.142-4.819 2.996-7.278 2.787-9.852-.213-2.565.107-5.13-.213-3.53-.32 1.61-1.392 5.353-.965 2.575.427-2.788.427-4.175.853-4.175.432 0 .747 0 .747 3.089 0 3.113.534 4.94-.747 10.079-1.284 5.125-1.609 7.491-1.609 7.491s.111-2.254-.533-3.316c-.64-1.086-.965-1.086-.32-2.361"/><path fill="#F2A900" stroke="#000" stroke-width=".209" d="M86.113 131.276s1.285.097 2.788-.311c1.489-.431 2.138-.858 4.063 0 1.915.849 4.383 1.276 6.201 1.276 1.814 0 .849.538 2.352-.538 1.493-1.058 3.205-.534 2.245 1.173 1.387 1.29 1.246 1.869.285 2.513 0 0 3.671 14.505 3.671 17.176-3.53-.092-6.099.863-6.099.863l-.218-17.895s-4.174.344-6.206.446c-2.022.116-.853-.635-3.098-1.707-2.245-1.066-5.904-.548-5.904-.548s.454-.621-.08-2.448Z"/><path fill="#F2A900" fill-rule="evenodd" stroke="#000" stroke-width=".209" d="M117.05 201.383c.214-.965.269-1.981-.964-2.301-.319-.082-.594-.168-.834-.238-.688-.202-1.085-.278-1.36.238-.376.691-1.178 1.874-1.178 1.874l.659 1.289.49-.317-.238-.378.531-.334.239.355.25-.192.476.602-.288.2.306.325-.492.405-.254-.257-.531.402.828 1.105s2.147-1.804 2.36-2.778Zm-7.304.38s.923 1.019 1.273 1.606c.944 1.584 1.658 3.317 2.178 5.087.298 1.016.527 3.133.527 3.133s.803-.573 2.515-.726c1.711-.144 2.076-.017 3.223-.042.666-.014 1.359.144 1.883-.663.475-.718 1.663-3.116.113-4.494-.192-.171-.436-.384-.706-.459-1.701-.472-3.891-.434-5.292.188l-.186-.342a7.2 7.2 0 0 0 2.005-1.727q.208-.26.384-.538.22-.346.38-.714c.138-.322.236-.655.283-.991.128-.925-.294-2.088-1.041-2.601-.889-.609-1.694-.908-2.6-.826-.715.064-1.464.458-1.903 1.007zm9.995 4.272c.904.399 1.748.946 1.275 2.138-.468 1.178-.519 1.878-1.303 1.763-.784-.107-2.203-.167-2.203-.167l-.557-1.269.449-.187.154.341.589-.198-.144-.431.292-.13-.176-.654-.328.112-.182-.409-.589.162.103.324-.613.211-.418-1.351s2.746-.654 3.651-.255Z" clip-rule="evenodd"/><path fill="#D18644" stroke="#000" stroke-linecap="square" stroke-miterlimit="15" stroke-width=".209" d="M107.521 205.615c2.201.396 3.489.021 3.509-.114-.005-.27-.028-.713-.165-.747-.065-.016-.319-.109-.398-.096-.101.015-.096.243-.198.272-.128.036-.468-.104-.514-.083-.243.114-.007.286-.333.317-.209.019-.307-.124-.451-.123-.205.002-.338.236-.543.224-.216-.036-.353-.191-.513-.204-.195-.016-.42.085-.815-.31a269 269 0 0 1-1.765-1.825c.03-.112.055-.58.773-.639.706-.05 1.281.18 1.826.498.816.477.628.46.502-.387-.033-.227.686.045.686.045l-.439-.555a12 12 0 0 0-1.687-.696s-1.934-.028-2.246 1.262c-.093 0-.987-.621-1.523-.969l-.671.25s2.716 3.407 4.965 3.88Z"/><path fill="#000" d="m117.82 229.085-.514 2.019.098.025q.472.12.76-.122.288-.243.493-.806l.139.036-.661 2.597-.139-.035a2 2 0 0 0-.01-.743q-.07-.306-.233-.445-.162-.143-.517-.233l-.356 1.397q-.105.41-.095.51.013.1.094.183.08.084.292.137l.296.076q.696.177 1.194-.039.503-.215.854-.827l.135.035-.625 1.519-4.287-1.091.035-.135.164.041a.7.7 0 0 0 .367.012.34.34 0 0 0 .191-.138q.063-.078.158-.451l.831-3.263q.086-.336.087-.418a.36.36 0 0 0-.085-.232.65.65 0 0 0-.355-.199l-.164-.042.034-.135 4.152 1.057-.374 1.467-.139-.036q.032-.564-.103-.848a1.13 1.13 0 0 0-.454-.482q-.188-.117-.751-.261zm6.13 3.867-.244 1.398q-.071.41-.042.525a.4.4 0 0 0 .149.199q.12.085.462.145l-.024.138-2.562-.447.024-.138q.35.061.483.019a.38.38 0 0 0 .205-.14q.07-.094.141-.504l.571-3.272q.072-.41.037-.523a.36.36 0 0 0-.144-.201q-.115-.086-.462-.146l.024-.137 2.198.383q1.086.19 1.49.659.405.468.304 1.049a1.26 1.26 0 0 1-.451.787q-.366.296-.924.329-.376.027-1.235-.123m.431-2.469-.38 2.179q.12.028.184.04.454.078.746-.146.293-.229.391-.794.099-.561-.102-.865-.2-.303-.687-.388zm6.848 4.076-.431 1.755-4.504-.606.019-.138.168.022a.7.7 0 0 0 .366-.03.35.35 0 0 0 .174-.16q.053-.084.104-.466l.45-3.336q.053-.39.024-.492a.36.36 0 0 0-.146-.191.65.65 0 0 0-.326-.12l-.169-.023.019-.139 2.705.365-.019.138-.221-.03a.7.7 0 0 0-.366.031.36.36 0 0 0-.177.159q-.054.084-.105.466l-.435 3.232q-.052.389-.022.503a.3.3 0 0 0 .155.181q.088.046.448.095l.422.057q.405.054.693-.052.288-.105.524-.386.24-.28.496-.855zm.717-3.257 2.63.256-.014.139-.131-.013q-.297-.028-.416.024a.35.35 0 0 0-.174.154q-.056.105-.098.54l-.243 2.495q-.066.684.013.915a.9.9 0 0 0 .306.401q.223.17.583.205.414.04.721-.116.31-.159.486-.472.178-.312.257-1.124l.202-2.078q.033-.342-.024-.495a.43.43 0 0 0-.16-.22q-.162-.103-.469-.133l.013-.139 1.762.171-.013.139-.105-.01a.7.7 0 0 0-.366.052.5.5 0 0 0-.232.239q-.06.115-.09.427l-.189 1.935q-.087.898-.246 1.284-.155.387-.646.677-.49.29-1.283.213-.662-.065-1.005-.276-.469-.289-.635-.684t-.105-1.03l.243-2.495q.042-.44.004-.549a.37.37 0 0 0-.152-.19q-.114-.075-.438-.103zm7.079 3.415-.089 1.432q-.026.414.016.527a.4.4 0 0 0 .17.18q.124.072.475.094l-.009.14-2.614-.163.008-.14q.354.022.483-.034a.4.4 0 0 0 .188-.162q.059-.103.085-.517l.207-3.315q.025-.415-.021-.523a.36.36 0 0 0-.166-.185q-.125-.072-.474-.094l.008-.139 2.374.148q.927.059 1.348.213.422.155.671.518.25.36.221.823-.034.566-.465.909-.275.218-.749.305l1.12 1.806q.22.35.317.44a.64.64 0 0 0 .35.15l-.009.139-1.609-.1-1.501-2.431zm.157-2.505-.14 2.238.215.013q.523.033.789-.045a.8.8 0 0 0 .429-.321q.166-.243.191-.646.036-.585-.221-.88-.254-.296-.86-.334zm6.06 5.003-.005.14-2.674-.101.005-.139.17.006a.7.7 0 0 0 .361-.066.34.34 0 0 0 .158-.175q.044-.089.059-.474l.126-3.364q.015-.393-.023-.492a.36.36 0 0 0-.164-.176.64.64 0 0 0-.336-.088l-.17-.007.005-.139 2.675.1-.006.139-.169-.006a.7.7 0 0 0-.362.066.37.37 0 0 0-.161.175q-.045.089-.059.474l-.126 3.364q-.015.393.023.492a.4.4 0 0 0 .163.18.7.7 0 0 0 .341.085zm3.648-2.504q.725.18 1.016.426.418.351.409.897a1.18 1.18 0 0 1-.478.948q-.577.449-1.664.432l-2.6-.039.002-.14q.356.006.48-.056a.38.38 0 0 0 .18-.171q.055-.105.061-.52l.05-3.322q.006-.415-.045-.521a.36.36 0 0 0-.175-.177q-.127-.066-.478-.071l.002-.14 2.453.037q.88.013 1.243.177.364.16.571.477.207.313.201.664a.94.94 0 0 1-.278.656q-.272.283-.95.443m-1.373-.123q.536.008.791-.109a.9.9 0 0 0 .397-.334q.14-.217.145-.556t-.128-.557a.84.84 0 0 0-.376-.338q-.247-.117-.799-.121zm-.004.295-.025 1.641-.007.189q-.003.204.098.311.104.103.308.106.301.005.556-.123a.93.93 0 0 0 .399-.383 1.2 1.2 0 0 0 .144-.568 1.24 1.24 0 0 0-.156-.644.9.9 0 0 0-.451-.407q-.289-.117-.866-.122m3.149-2.543 2.642-.048.003.139-.132.003q-.299.005-.411.071a.36.36 0 0 0-.155.173q-.044.11-.035.548l.046 2.506q.013.687.119.908.11.22.35.363t.603.136q.416-.007.702-.198.291-.194.428-.525.142-.33.126-1.146l-.038-2.087q-.006-.343-.081-.489a.43.43 0 0 0-.185-.201q-.17-.082-.481-.078l-.002-.139 1.77-.033.002.14-.105.001a.7.7 0 0 0-.357.094.5.5 0 0 0-.203.264q-.047.121-.041.435l.036 1.944q.017.902-.097 1.304-.11.402-.564.746-.453.345-1.25.36-.664.012-1.03-.159-.499-.232-.71-.606t-.222-1.011l-.046-2.506q-.009-.442-.06-.546a.36.36 0 0 0-.173-.171q-.122-.062-.446-.052zm8.829-.425.138 1.701-.155.009q-.145-.635-.597-.999-.448-.368-.946-.339-.384.021-.598.242a.62.62 0 0 0-.196.483.57.57 0 0 0 .096.297q.12.172.371.331.183.114.842.395.922.39 1.257.764.332.374.36.879.036.64-.438 1.133-.472.488-1.241.531-.24.014-.458-.023a3.4 3.4 0 0 1-.55-.154.8.8 0 0 0-.302-.058.36.36 0 0 0-.203.087.53.53 0 0 0-.164.24l-.139.008-.11-1.93.14-.008q.212.805.707 1.208.499.399 1.046.368.421-.025.657-.268a.7.7 0 0 0 .223-.55.7.7 0 0 0-.118-.345 1.1 1.1 0 0 0-.309-.304q-.204-.143-.716-.36-.716-.303-1.035-.527a1.8 1.8 0 0 1-.502-.512 1.35 1.35 0 0 1-.199-.647 1.4 1.4 0 0 1 .389-1.065q.424-.455 1.107-.494.248-.013.485.033.18.035.44.145.263.106.364.1a.2.2 0 0 0 .151-.069q.054-.063.09-.296zm2.49-.059 2.625-.302.015.138-.131.015q-.296.034-.401.111a.36.36 0 0 0-.138.187q-.033.114.017.549l.287 2.49q.08.682.205.892a.9.9 0 0 0 .384.328q.253.118.613.078.413-.048.68-.265.271-.22.376-.564.109-.343.015-1.153l-.238-2.073q-.04-.342-.128-.48a.43.43 0 0 0-.203-.181q-.179-.067-.486-.032l-.016-.139 1.758-.202.016.139-.105.012a.7.7 0 0 0-.346.127.5.5 0 0 0-.176.283q-.036.125.001.436l.222 1.932q.103.896.029 1.307-.07.411-.49.797-.418.387-1.21.478-.66.076-1.04-.059-.519-.184-.765-.535-.245-.351-.318-.985l-.287-2.49q-.051-.44-.111-.538a.36.36 0 0 0-.189-.153q-.128-.051-.449-.009z"/><path fill="#000" d="m168.985 230.959 3.018 2.71-.366-2.17q-.077-.454-.234-.592-.216-.186-.635-.107l-.023-.138 1.668-.281.023.137q-.314.096-.414.181a.44.44 0 0 0-.135.241q-.035.156.025.513l.709 4.202-.127.021-4.122-3.626.541 3.208q.073.435.297.555a.75.75 0 0 0 .483.075l.119-.02.024.138-1.791.302-.023-.138q.417-.074.552-.269t.068-.597l-.601-3.562-.13-.116a1 1 0 0 0-.328-.217.9.9 0 0 0-.365-.011l-.024-.137zm3.491-.584 2.575-.594.031.136-.128.03q-.291.067-.387.155a.35.35 0 0 0-.116.201q-.02.117.079.543l.563 2.443q.155.67.303.863a.9.9 0 0 0 .418.284q.266.09.618.008.405-.093.646-.339a1.14 1.14 0 0 0 .311-.602q.069-.353-.114-1.147l-.469-2.034q-.076-.336-.18-.462a.43.43 0 0 0-.222-.158q-.185-.047-.487.023l-.031-.136 1.725-.398.031.136-.103.024a.7.7 0 0 0-.33.165.5.5 0 0 0-.143.3q-.021.13.049.434l.437 1.895q.202.879.175 1.296-.024.415-.398.847-.373.43-1.149.609-.647.15-1.04.058-.537-.125-.82-.446-.284-.322-.426-.944l-.563-2.442q-.1-.43-.171-.522a.36.36 0 0 0-.205-.131q-.132-.036-.447.041z"/><path fill="#000" d="m181.88 231.41.278-3.638 1.982-.644.043.133-.158.051a.7.7 0 0 0-.32.187.37.37 0 0 0-.089.216q-.011.1.106.461l1.043 3.21q.122.373.191.454a.4.4 0 0 0 .215.112.7.7 0 0 0 .349-.038l.158-.051.043.133-2.541.826-.044-.133.158-.052a.7.7 0 0 0 .321-.187.37.37 0 0 0 .087-.219q.012-.099-.107-.465l-1.172-3.608-.424 5.047-.087.028-3.327-3.792 1.113 3.428q.117.359.162.436.105.164.297.229.194.06.528-.049l.043.133-1.666.541-.043-.132.05-.017a.8.8 0 0 0 .285-.148.53.53 0 0 0 .163-.22.7.7 0 0 0 .026-.298 4 4 0 0 0-.112-.368l-1-3.08q-.12-.37-.189-.447a.37.37 0 0 0-.214-.109.67.67 0 0 0-.35.034l-.154.05-.044-.132 1.989-.647z"/><path fill="#fff" stroke="#000" stroke-width=".209" d="M116.512 197.818a.46.46 0 0 0-.341-.852.46.46 0 0 0 .341.852Zm.956.39a.455.455 0 0 0-.337-.844.456.456 0 0 0-.252.595.45.45 0 0 0 .589.249Zm.714.707a.456.456 0 0 0-.337-.845.456.456 0 0 0 .337.845Zm.522.884a.46.46 0 0 0 .255-.587.46.46 0 0 0-.593-.257.454.454 0 1 0 .338.844Zm.253 1.011a.454.454 0 0 0 .254-.587.45.45 0 0 0-.589-.249.445.445 0 0 0-.25.585.454.454 0 0 0 .585.251Zm.043.996a.443.443 0 0 0 .247-.583.45.45 0 1 0-.247.583Zm1.475 3.239a.46.46 0 0 0 0-.919.458.458 0 0 0 0 .919Zm-1.989-2.242c.251 0 .45-.204.45-.468a.46.46 0 0 0-.45-.45.46.46 0 0 0 0 .918Zm.965 2.108c.251 0 .45-.204.45-.468a.46.46 0 0 0-.45-.45.46.46 0 0 0 0 .918Zm-4.112-7.288a.46.46 0 0 0 0-.919.458.458 0 0 0 0 .919Zm2.598 6.041c.251 0 .45-.204.45-.468a.46.46 0 0 0-.45-.45.46.46 0 0 0 0 .918Zm.49 1.158a.46.46 0 0 0 0-.918.458.458 0 0 0 0 .918Zm-.935-.237a.46.46 0 0 0 0-.919.459.459 0 0 0 0 .919Zm1.707-.832a.46.46 0 0 0 0-.918.458.458 0 0 0 0 .918Zm2.238 1.674a.46.46 0 0 0 0-.918.458.458 0 0 0 0 .918Z"/><path fill="#FFD9EE" stroke="#000" stroke-linejoin="round" stroke-miterlimit="3.1" stroke-width=".209" d="M111.883 123.066c2.57-1.447 6.498-3.687 8.59-5.375 2.087-1.689 1.846-1.206 3.052-2.166 1.192-.965 1.684-1.118 3.442-1.61 1.767-.478 2.643-.552 3.367-.798.728-.245 1.294-.138 1.349.35.029.168.05.328.05.328s1.013.765 1.495 1.173c.483.39 1.049 1.433.084.802-.97-.654-1.476-1.136-1.476-1.136s.201 1.26-.04 1.26c-.232 0-.668-1.332-.668-1.332s-.377.007-1.267.485c-.881.478-2.486.547-2.486.547s-.246.255.561.654c.802.399 1.605.872 1.285 1.197-.325.32-.325.32-1.285-.07-.965-.399-.32-.32-1.364-.241-1.048.079-2.008-.566-2.815.956-.802 1.53-5.297 7.949-9.147 9.805-1.284.542-1.442.876-2.884.32-1.448-.566-4.068-1.58-4.254-2.973-.193-1.446.251-5.414 2.473-4.745 1.028.309 1.539.714 1.938 2.569Z"/><path fill="#000" d="M131.682 113.88c.076.045.162.078.226.099.064.028.112.035.112.035s-.022-.043-.074-.091a1 1 0 0 0-.193-.163c-.227-.135-.547-.301-.782-.333h-.002l-.019-.002c-.317-.031-.627.086-.848.169a5 5 0 0 0-.451.198l-.029.016-.012.005.012-.005q.01-.004.032-.008l.112-.033c.089-.025.215-.06.359-.095.229-.056.541-.142.816-.109l.013.002h-.002c.212.029.506.182.73.315"/><path stroke="#000" stroke-linejoin="bevel" stroke-miterlimit="6.3" stroke-width=".209" d="M131.836 114.642c-.136-.157-.501-.176-.708-.08"/><path fill="#000" d="m110.43 204.652.001-.001.063-.026a.9.9 0 0 0-.168-.252c-.186-.202-.445-.277-.445-.277s.179.191.342.371q.096.104.143.211zm-.738.174.002.001.001-.002.068-.029a1 1 0 0 0-.186-.272 1.2 1.2 0 0 0-.492-.296s.199.207.381.401q.107.111.158.227zm-.775.199.002.001.001-.002.072-.031a1 1 0 0 0-.198-.285c-.218-.228-.518-.31-.518-.31s.211.217.402.42a.8.8 0 0 1 .167.238zm-.939.015h.001v-.001l.052-.02a.8.8 0 0 0-.131-.212c-.144-.169-.351-.238-.351-.238s.138.161.264.311q.076.089.112.18zm-22.017-2.456c.223-.112.367-.21.469-.305.19-.182.22-.44.22-.44s-.16.197-.315.338a2 2 0 0 1-.437.283zm.442.265c.175-.102.291-.192.379-.274.15-.141.23-.334.23-.334s-.171.124-.308.251a2 2 0 0 1-.358.259zm.431.218c.172-.107.283-.191.365-.264.139-.122.226-.292.226-.292s-.171.093-.301.207a2.6 2.6 0 0 1-.35.252zm.44.199c.17-.113.286-.2.375-.27.143-.113.254-.268.254-.268s-.18.064-.324.179c-.087.068-.2.154-.368.265z"/><path stroke="#000" stroke-linejoin="round" stroke-miterlimit="3.1" stroke-width=".209" d="M107.721 152.629a68 68 0 0 0 .114 1.682c.023.544.114 1.095.032 1.633-.054.354-.054.803-.34 1.019-.189.144-.496.133-.711.033-.094-.044-.241-.143-.453-.154m-4.963-21.309 2.647-.144"/><path fill="#000" d="M76.946 106.926a1.9 1.9 0 0 0-.873-.06c-.273.043-.592.17-.773.231a4 4 0 0 1-.348.098s.147.005.365-.031c.217-.036.5-.117.778-.16.246-.038.51-.038.81.055zm.032.96a4 4 0 0 0-.678.017 2.56 2.56 0 0 0-1.094.406s.538-.216 1.108-.282a4 4 0 0 1 .655-.016zm.059.962a2.3 2.3 0 0 0-.593.022c-.516.078-.966.326-.966.326s.496-.124.986-.197c.196-.03.386-.04.56-.022z"/><path fill="#523178" d="M84.996 123.465s1.122.487.723-1.762c-.403-2.25-.566-2.171-.403-3.048.157-.89.403-1.127-.084-2.653-.482-1.521-1.201.084-1.201.084s.241 1.029.079 2.486c-.158 1.442-.325.872-.483 1.442-.157.552-.157 2.25-.394 4.003-.246 1.767-.473 5.153-.246 4.258.228-.895.269-.613.297-.692.3-1.065.548-2.2.7-2.647.31-1.74.956-2.57.977-2.549l.03 1.087"/><path fill="#000" d="M171.516 113.338q.118-.064.219-.155c.152-.144.262-.326.338-.453.05-.084.091-.157.119-.21l.034-.067.014-.028-.02.024-.048.058-.154.184c-.093.11-.229.278-.37.394q-.09.072-.199.131c-.19.106-.415.186-.591.333-.122.101-.295.22-.343.402-.037.136.011.286.075.396a.7.7 0 0 0 .358.305c.147.05.311.022.445-.023.148-.05.254-.177.369-.246.262-.16.522-.318.795-.452q.1-.05.201-.095c.266-.121.445-.2.653-.249.069-.017.153-.021.202-.024l.091-.005q.037-.003.045-.001a.2.2 0 0 1-.044-.007l-.091-.013c-.049-.006-.132-.017-.212-.01a2.4 2.4 0 0 0-.696.186q-.107.043-.21.094a10 10 0 0 0-.807.457c-.129.079-.218.192-.34.234a.57.57 0 0 1-.356.022.55.55 0 0 1-.283-.243c-.053-.092-.085-.202-.061-.29.035-.132.17-.225.298-.331.163-.136.372-.208.569-.318"/><path stroke="#000" stroke-linejoin="round" stroke-miterlimit="3.1" stroke-width=".209" d="M168.843 112.043s.801.361 1.224.473c.617.163 1.312.546 1.894.284a.41.41 0 0 0 .222-.341c.001-.075-.07-.134-.115-.195a2 2 0 0 0-.171-.183m-2.984.881c.665.247 1.488.511 2.183.515m-2.18.308c.521.149 1.115.333 1.665.32"/><path fill="#000" d="m222.275 113.546.522-.11c.257-.054.499-.176.499-.176s-.271-.014-.527.04l-.523.11zm-.113-.817.565-.127c.239-.053.463-.175.463-.175s-.254-.014-.493.04l-.565.127zm-.045-.677.511-.156c.239-.073.458-.213.458-.213s-.259.007-.498.08l-.512.156z"/><path fill="#FFD9EE" d="M221.614 111.183s1.094-.259 1.286-.341z"/><path fill="#000" d="M221.63 111.251c.638-.151.367-.088.658-.162.324-.082.611-.247.611-.247s-.324.029-.646.112c-.289.074-.018.01-.655.162z"/><path fill="#FFD9EE" d="M221.614 111.183c.184.167.319.464.483.803Z"/><path stroke="#000" stroke-linecap="square" stroke-linejoin="round" stroke-miterlimit="3.1" stroke-width=".209" d="M221.614 111.183c.184.167.319.464.483.803"/><path stroke="#000" stroke-linecap="round" stroke-width=".801" d="M187.308 157.72c0 1.485-3.558.511-3.558 2.004m1.219-5.885c.997 1.085-2.553 2.766-1.556 3.852m.35-5.489c.821 1.229-2.681 2.393-1.86 3.631m.942-5.431c.612 1.34-3.258 1.718-2.65 3.077m2.028-5.02c.39 1.433-3.298 1.433-2.908 2.866m2.597-4.865c.153 1.474-3.483.895-3.325 2.37m3.344-4.393c-.084 1.475-3.581.325-3.66 1.809m3.994-3.817c-.316 1.456-3.586-.241-3.901 1.201m4.545-3.121c-.538 1.387-3.492-.798-4.035.575m4.986-2.347c-.751 1.266-3.325-1.378-4.077-.102m5.302-1.526c-.951 1.127-3.071-1.874-4.012-.738m5.473-.663c-1.118.979-2.732-2.333-3.845-1.354m-.735-4.534c1.364.57-.909 3.464.455 4.049m-2.315-5.01c1.29.733-1.28 3.354.014 4.077m-1.767-5.218c1.206.854-1.642 3.187-.431 4.045m-1.169-5.38c1.108.983-1.971 3.005-.868 3.979m-.579-5.487c.992 1.095-2.287 2.774-1.29 3.868m0-5.514c.868 1.201-2.569 2.509-1.702 3.706m.603-5.478c.728 1.289-2.825 2.212-2.097 3.502m1.579-5.468c.872 1.188-3.138 2.524-2.27 3.711m16.698 32.74c.148 1.475-3.372.804-3.223 2.274m3.704 1.346c0 1.484-3.558.529-3.558 2.003m3.558.172c0 1.475-3.558.515-3.558 1.999m3.558.172c0 1.475-3.558.515-3.558 1.994m3.558.167c0 1.475-3.558.529-3.558 2.004m3.558.172c0 1.474-3.558.505-3.558 1.989m3.558.172c0 1.475-3.558.51-3.558 2.004m3.558.167c0 1.484-3.558.514-3.558 1.994m3.558.167c0 1.484-3.558.529-3.558 2.004m3.558.162c0 1.475-3.558.52-3.558 1.999m3.558.181c0 1.47-3.558.501-3.558 1.985m3.558.176c0 1.471-3.558.52-3.558 2.004m3.558.162c0 1.485-3.558.515-3.558 2m3.558.162c0 1.475-3.558.519-3.558 2.004m3.654.482c0 1.475-3.698.471-3.698 1.955m.769 4.968c-1.28.756-2.231-2.806-3.506-2.069m1.419 3.279c-1.28.752-2.231-2.806-3.506-2.068m1.424 3.279c-1.285.733-2.231-2.82-3.507-2.078m1.419 3.289c-1.284.728-2.231-2.82-3.506-2.078m1.424 3.265c-1.285.756-2.231-2.806-3.507-2.069m1.42 3.28c-1.285.751-2.231-2.807-3.507-2.078m1.419 3.288c-1.284.742-2.231-2.82-3.506-2.087m1.424 3.288c-1.285.738-2.231-2.824-3.507-2.077m1.42 3.283c-1.285.743-2.231-2.82-3.507-2.064m1.424 3.266c-1.285.751-2.231-2.806-3.506-2.069m1.419 3.275c-1.285.746-2.231-2.816-3.507-2.078m1.42 3.284c-1.285.728-2.231-2.825-3.507-2.078m1.424 3.284c-1.285.742-2.231-2.821-3.506-2.078m1.419 3.279c-1.285.737-2.231-2.82-3.506-2.069m1.423 3.265c-1.284.756-2.231-2.796-3.506-2.068m1.735 3.061c-1.281.747-2.227-2.815-3.502-2.087m37.062-20.055c-.491 1.4-3.082-.678-3.573.714m2.921 1.799c-1.048 1.053-2.902-2.26-3.95-1.217m.235-58.296c.496-.89 1.586-.983 2.467-.89.891.092 1.484-.205 1.484-.205"/><path stroke="#000" stroke-width=".696" d="M184.555 195.288c2.926-1.628 2.922-3.377 2.917-5.403v-.265c0-2.017-.023-29.601-.005-33.307l-.793-.872a12.78 12.78 0 0 1-4.642-9.884c0-4.36 2.179-8.4 5.834-10.779-.004 0 .14-.098.32-.223l-2.115-3.803c-6.502-1.044-11.795-6.146-13.775-11.985h-44.351c-1.976 6.317-7.273 10.941-13.775 11.985l-2.115 3.803c.185.125.324.223.32.223a12.82 12.82 0 0 1 5.839 10.779c0 3.841-1.697 7.44-4.647 9.884l-.793.872c.018 3.706-.005 31.29-.005 33.307v.265c-.005 2.026-.009 3.766 2.917 5.403 3.345 1.851 30.576 17.58 34.337 19.755 3.762-2.175 31.188-17.904 34.532-19.755Zm-14.903-72.644a21.08 21.08 0 0 0 13.131 11.336 16.7 16.7 0 0 0-4.643 11.577c0 4.708 1.971 9.165 5.436 12.328-.037 7.584.014 29.912.014 31.735v.274c.005.468.005 1.187-.074 1.373-.01.009-.167.236-.84.626-2.63 1.442-23.451 13.353-32.653 18.664-9.197-5.325-29.828-17.222-32.444-18.664-.677-.39-.835-.617-.849-.626-.07-.195-.07-.905-.07-1.373v-.274c0-1.823.047-24.151.01-31.735a16.68 16.68 0 0 0 5.431-12.328c0-4.392-1.693-8.506-4.643-11.577a21.08 21.08 0 0 0 13.131-11.336z"/><path stroke="#000" stroke-width=".348" d="M117.583 161.786s.853-.849 2.565-1.707c1.707-.862 2.352-1.289 3.636-.431a11.7 11.7 0 0 0 2.565 1.28s1.716-1.076 3.215-2.147c1.498-1.067 1.066-1.712 2.996-1.28 1.925.431 6.632-.854 8.349-1.712 1.711-.849 2.565.223 4.063-1.707 1.498-1.925 1.498-1.721 3.641-2.569 2.143-.849 1.707-2.347 4.494-1.503 2.778.858 4.277.431 8.344 3.65 4.063 3.205 6.638 4.281 8.349 5.988a22.5 22.5 0 0 0 3.428 2.792s1.711-.654 3.423-1.503c1.707-.858 2.351-1.493 3.641-.644 1.285.858 2.254 1.05 2.254 1.05m0 15.635-64.764.444-.218-15.636"/><path fill="#fff" stroke="#000" stroke-width=".209" d="m142.305 177.821 1.368-.093-1.289-2.087h-.478zm-11.171-.766-2.79-.38c.489 1.75.556 2.18 0 3.223l2.725-.573c.577-.617 1.041-1.287.065-2.27Z"/><path fill="#fff" stroke="#000" stroke-width=".209" d="m136.29 177.487-5.302-.71s.483.635 0 2.885l5.302-.566c.179-.59.165-1.123 0-1.609Zm-3.462-4.975c.75-.333.411-1.005.006-1.598l3.367.246c.63.319.625.777.292 1.563-1.818-.243-3.665-.211-3.665-.211Z"/><path fill="#fff" stroke="#000" stroke-miterlimit="4.8" stroke-width=".209" d="M141.319 176.816c.257-.255.439-1.12.021-2.293l-4.332-.316c.256.381.53 1.084.153 2.64 1.452-.478 3.959-.118 4.158-.031Z"/><path fill="#fff" stroke="#000" stroke-width=".209" d="M140.748 173.9c.233-.248.312-.676.066-1.085-.894-.048-1.789-.155-2.683-.143.136.321.173.604-.079 1.127 1.04-.06 1.797.067 2.696.101Zm-8.554 2.71c.645-1.053.965-2.254.483-3.609l4.348.186c.171.576.155 2.552-.81 3.397z"/><path fill="#D18644" stroke="#000" stroke-width=".209" d="M168.581 184.147s.853-.473.533-1.66c0 0-4.976.491-7.917.375 0 0-.162.436.48 1.285z"/><path fill="#fff" stroke="#000" stroke-width=".209" d="M168.905 181.587c-2.782-3.428-2.727-8.126-2.727-8.126l-2.445 1.139-.013 7.938zm-6.859-7.116s-2.667 3.855-3.841 6.791l4.604 1.127c-.912-2.62-1.566-6.044-.763-7.918Z"/><path fill="#FFD9EE" d="M208.415 97.027c-.06-.243-.545-.592-.772-.575-.177.012-2.957-.208-3.175.96 0 0-1.2 3.692-1.365 5.608-.184 2.137.431 6.419.431 6.419h.01c-.408.207-.922.361-1.453.507 1.498 2.565 2.455 7.22 2.455 7.22l8.059-.35c-.656-2.234-.689-4.51-1.812-6.715l-1.155-.449s.214-1.6.214-3.413c0-1.818 1.347-1.245 1.329-2.59-.014-.802-.148-1.409-.19-1.984-.042-.621-2.47-4.216-2.576-4.638"/><path fill="#000" d="M209.854 105.959c.054-.077.038-.191.035-.214l-.002-.003-.004.001c-.021.013-.118.07-.151.15-.243.444-.952 1.531-2.023 1.446a6 6 0 0 1-.929-.14 10 10 0 0 1-1.028-.289 7 7 0 0 1-.293-.109l-.08-.033a.1.1 0 0 1-.031-.014s.014.008.028.019l.074.046q.1.061.277.151a4.7 4.7 0 0 0 1.022.364c.285.065.604.118.949.143 1.156.093 1.905-1.059 2.156-1.518m-33.009-40.431-.927.077c-.594.05-1.183.168-1.183.168s.6.02 1.195-.03l.926-.076zm-.962 1.179-.924.03a8 8 0 0 0-.971.1s.489.053.975.038l.925-.029zm-.913 1.845-1.262.059c-.651.03-1.3.13-1.3.13s.655.04 1.307.009l1.261-.059zm-1.958 1.886-1.033-.168c-.541-.088-1.093-.108-1.093-.108s.53.157 1.071.245l1.033.169zm-.964.964-.965-.164c-.52-.088-1.051-.107-1.051-.107s.508.156 1.028.245l.964.163zm-.854 1.168-.793-.136c-.519-.09-1.05-.111-1.05-.111s.507.158 1.026.248l.794.137zm-.643.86-.958-.172c-.472-.084-.956-.1-.956-.1s.46.153.932.237l.957.172zm-.422 1.288-1.125-.207c-.66-.121-1.332-.174-1.332-.174s.647.19 1.307.31l1.125.208zm-.532.964-1.363-.278a17 17 0 0 0-1.416-.218s.687.211 1.388.354l1.363.278zm-1.39 1.174-1.617-.369c-.627-.142-1.27-.218-1.27-.218s.612.211 1.239.354l1.617.368zm.002 1.064-1.63-.434c-.62-.165-1.259-.263-1.259-.263s.603.233 1.224.398l1.629.433zm-1.285.849-2.979-.788c-.748-.198-1.514-.328-1.514-.328s.73.265 1.478.463l2.98.787zm-1.924.759-1.452-.4c-.654-.179-1.326-.292-1.326-.292s.635.247 1.289.427l1.452.4zm-1.278 1.169-1.291-.394c-.582-.178-1.183-.289-1.183-.289s.561.244 1.142.422l1.291.394zm-2.347 1.388-.705-.222a9 9 0 0 0-1.023-.25s.48.224.981.382l.705.223zm-1.563 1.064-.707-.198a6 6 0 0 0-.849-.165s.396.183.811.3l.708.197zm-22.273-.769c.366-.122.962-.53 1.405-.857.331-.245.577-.445.577-.445z"/><path fill="#000" d="M137.562 82.447c.321-.108.808-.426 1.218-.72q.106-.073.202-.153a6 6 0 0 0 .495-.449l.045-.046-.055.033-.133.082a14 14 0 0 0-.635.42c-.408.292-.879.6-1.181.7zm-1.552-.738a3.2 3.2 0 0 0 1.168-.45 2.6 2.6 0 0 0 .697-.637l.035-.052.012-.02a4 4 0 0 1-.232.194 7 7 0 0 1-.585.397c-.303.187-.682.36-1.118.43zm-1.136-.791c-.02.004-.027.072-.027.072s.034.06.057.054l.001.005c.455-.105.882-.339 1.221-.572l.005-.004c.373-.31.7-.666.714-.683-.019.012-.435.271-.802.576l.005-.004c-.332.228-.742.452-1.175.551zm-1.011-.505.826-.52c.455-.287.872-.632.872-.632s-.492.227-.946.514l-.826.52zm-1.079-.962.999-.56c.477-.267.92-.594.92-.594s-.511.206-.988.473l-.999.56zm-1.526-.928c-.002.001-.001.009-.001.009s.005.005.007.003l.03.055 1.045-.572c.398-.219.764-.499.764-.499s-.432.158-.831.377l-1.044.572zm-1.579-.786.974-.4c.512-.211.999-.487.999-.487s-.54.147-1.052.358l-.974.4zm-.969-.952 1.015-.345c.469-.16.915-.385.915-.385s-.491.093-.96.253l-1.015.345zm-.4-1.281c.533-.174 1.045-.413 1.045-.413s-.555.107-1.088.28l-.993.323.043.132zm-2.721-1.174 1.229-.26c.473-.1.932-.268.932-.268s-.488.032-.961.132l-1.228.26zm-1.173-1.063 1.636-.338c.585-.12 1.156-.31 1.156-.31s-.599.053-1.184.174l-1.636.337zm-.934-2.179c-.052.002-.101.074-.101.074s.055.067.107.065l1.48-.063c.513-.022 1.023-.113 1.023-.113s-.516-.048-1.029-.026zm-3.158-1.743c-.03 0-.059.07-.059.07s.03.07.06.069l1.867-.019a21 21 0 0 0 1.602-.085s-.802-.062-1.603-.054zm-1.867-1.857 1.89.063c.769.025 1.54-.019 1.54-.019s-.766-.095-1.535-.12l-1.89-.063zm-1.016-1.606 1.152.041c.405.015.813-.04.813-.04s-.403-.084-.808-.099l-1.152-.04zm-2.371-2.292.841.126c.295.044.601.02.601.02s-.285-.113-.581-.158l-.84-.126z"/><path fill="#FFD100" stroke="#000" stroke-width=".209" d="m213.831 118.011-1.689-7.626-1.697-.357c.167.121.422.562.681 1.995.432 2.342.965 4.605.965 4.605l-7.384.311s-.858-4.494-2.356-7.064l-1.209.163c.964 1.507 2.656 8.209 2.656 8.209l3.386-.083c.037.612.216 1.291.148 1.934-.199 1.888-1.127 3.854-1.609 5.464-.482 1.609-1.846 6.336-1.846 6.336l2.008-.228s1.123-3.056 2.087-5.946c.961-2.885 1.248-4.022 1.448-6.104.047-.496-.063-1.493-.063-1.493z"/><path fill="#0077C8" d="M198.019 137.106s1.122-1.271 2.885-1.762c1.767-.478 3.692-.636 6.424-.807 2.727-.167 1.925.171 3.85.482 1.925.325 4.007 1.28 4.814 2.259 0 4.327-.32 9.62-.965 14.439-.64 4.819-.646 3.199-.916 4.808-.019.111-.048.335-.048.335l2.27 1.531s1.685 2.062 3.119 1.276c1.899-.746 1.03-.562.868-7.793-.158-7.217-2.408-18.14-2.408-18.14l-.477-.955c-.32-1.93-2.649-1.522-3.127-.965-.482.566-.644.719-.644.719s-.399-.084-1.61-.487c-1.201-.399-2.486-.478-4.652-.478s-1.929 0-4.174.408c-2.25.404-3.21.715-4.254 1.689l-.964 3.441"/><path stroke="#000" stroke-width=".209" d="M198.019 137.106s1.122-1.271 2.885-1.762c1.767-.478 3.692-.636 6.424-.807 2.727-.167 1.925.171 3.85.482 1.925.325 4.007 1.28 4.814 2.259 0 4.327-.32 9.62-.965 14.439-.64 4.819-.646 3.199-.916 4.808-.019.111-.048.335-.048.335l2.27 1.531s1.685 2.062 3.119 1.276c1.899-.746 1.03-.562.868-7.793-.158-7.217-2.408-18.14-2.408-18.14l-.477-.955c-.32-1.93-2.649-1.522-3.127-.965-.482.566-.644.719-.644.719s-.399-.084-1.61-.487c-1.201-.399-2.486-.478-4.652-.478s-1.929 0-4.174.408c-2.25.404-3.21.715-4.254 1.689l-.964 3.441"/><path stroke="#000" stroke-linecap="round" stroke-linejoin="bevel" stroke-miterlimit="3.6" stroke-width=".209" d="m211.308 137.383-.907-15.363m0 0-5.003 15.494m5.003-15.494 4.557 15.42"/><path fill="#D18644" stroke="#000" stroke-width=".209" d="M210.059 95.919c-.241-.956-.486-.955-1.446-1.679-.965-.719-1.851-.72-2.728-.72-.886 0-1.531.72-2.171 1.443-.635.733-.551 1.457-.551 1.457v1.363s-.075.478-.641.812c-.566.31-.802.877-1.368 1.832-.556.965-.556 1.93-.079 3.131.483 1.211-.241 1.043-1.201 1.53-.96.478-1.206 2.246-1.767 2.886-.561.635.561.723.157 1.521-.398.802-.398.566-.074 1.211l.015.051c1.925-.566 3.997-.858 3.997-.858a4.8 4.8 0 0 0 1.331-.451s.636-1.178.636-3.001c0-1.813-.32-3.103-.32-3.103s-.698-.057-.747-.324c-.1-.55 1.067-.636.969-1.062-.111-.432-.111-1.071-.111-1.071l.64-2.472c.214-1.17.645-1.058.97-.418.32.635 1.387.102 1.609-.752.209-.849.854-.533.961-.101.106.422.746 1.382.746 1.382s1.015 2.787 1.335 3.316c.32.533.488.798.376 1.609-.18 1.336-.746.97-.746 2.779 0 1.813-.214 3.422-.214 3.422s.415.25.641.335c.612.23.769.291 1.907.465.517.079.908.263 1.974.643l.158-.074s-.079 0-.158-.246c-.078-.246.08-.552.395-.714.32-.163.158-.566-.232-1.763-.403-1.206-.724-1.052-1.526-1.767-.807-.718-.566-.965-.645-2.806s-.482-2.644-1.122-4.174c-.645-1.526-.42-2.048-.42-2.048z"/><path fill="#000" d="M205.886 104.634c.426-.431.533-.431 1.178-.431.64 0 .746.167 1.066.046.316-.097.747.376.747.376s-.431 0-.965.222c-.528.204-.64-.12-1.071-.12-.427 0-.96-.102-.96-.102m.649-1.818c.534.324.56.213.854.213s.701.038.853-.213c.152-.252-.209-.859-.209-.859s1.063.859.427 1.072c-.645.213-.965.325-1.387.213-.431-.102-.533-.426-.533-.426"/><path fill="#F2A900" stroke="#000" stroke-width=".209" d="M203.316 97.667c1.609-.858 2.996-1.502 3.854-1.28.858.204 3.428 1.067 3.428 1.067s.185-1.15-.432-1.387c-2.463-.964-4.063-1.396-5.459-.538-.564.346-.758.432-1.391.858-.427.158-.399 1.526 0 1.28Z"/><path fill="#fff" stroke="#000" stroke-width=".209" d="M203.682 99.128c.162-.403.745-.574 1.165-.621 1.315-.148 2.683-.09 4.007.079.415.052.684.034 1.176.437.473.408.528 1.312.385 1.719-.152.434-.14.915-.336.7a1.7 1.7 0 0 0-.58-.203c-1.709-.332-5.218-.246-5.218-.246s-.66.223-.677.045c-.055-.553-.084-1.502.078-1.91Z"/><path fill="#FFD100" d="M148.943 88.469s-.251-.574-.32-1.179l-.872.07c.18.32.162.83.227 1.109 0 .724.148 1.198-.696 1.434-.839.246-1.122.408-1.243 1.21.362-.361.64-.885 1.007-.556.357.325.881.52.881.52s-.561-.724.241-.97c.802-.241 2.208-.204 2.208-.204s-1.011-.464-1.169-.788a6 6 0 0 1-.269-.646"/><path stroke="#000" stroke-width=".209" d="M148.943 88.469s-.251-.574-.32-1.179l-.872.07c.18.32.162.83.227 1.109 0 .724.148 1.198-.696 1.434-.839.246-1.122.408-1.243 1.21.362-.361.64-.885 1.007-.556.357.325.881.52.881.52s-.561-.724.241-.97c.802-.241 2.208-.204 2.208-.204s-1.011-.464-1.169-.788a6 6 0 0 1-.269-.646"/><path fill="#FFD100" stroke="#000" stroke-width=".209" d="m154.225 86.95-.765.115c.055.265-.023.595.19 1.289.079.32-.76.524-1.08.923 0 0 1.446-.064 1.419.357a2.8 2.8 0 0 0 .12 1.03s.241-.232.566-.4c0 0 .353.038 1.044.242.677.195.918.598.918.598s.362-1.043-.719-1.6c-.923-.44-.952-.31-1.243-.682-.305-.39-.38-1.562-.45-1.871Z"/><path fill="#FFD100" d="M143.908 63.69s.627.217.745.49c.107.246-.14.792-.14.792s-.733-.163-.803-.175-.489-.058-.489-.058l-.804.07s-.707.262-.734.21c-.048-.095.314-.814.408-.758.263-.237.545-.451.932-.535z"/><path stroke="#000" stroke-width=".209" d="M154.212 86.93c-.172-1.268-.075-.508.617-.603.742-.1.528-1.603.528-1.603s2.245-.33 3.21-.33c.96 0 .635-1.163 1.814-1.493 1.182-.32.858-.74.858-.74s.213-.334 1.284-.214c1.072.105 1.178-.43 1.178-.43v-.754l1.174-.214.107-.954 1.711-.11.213-.649 1.392-.205-.107-.644.427-.215-.427-.849h1.285l.107-1.173.96-.32-.427-.644.747-.215-.325-1.073.645-.205v-.654l.965-.42-.112-.749 1.174-.11-.209-.738v-.115s1.174-.315 1.818-1.603c.645-1.279 1.498-1.598 1.498-1.598l-.431-.53.854-.434.111-.744s1.711-.32 3.641-1.073c1.929-.75 2.356-2.563 2.356-2.563s-4.388.74-9.958 1.384c-5.561.644-10.381 1.179-12.843 1.932-2.459.74-.427 2.777-3.53 5.988-1.804 1.862-4.499.849-5.241-.54-.752-1.383-1.712-4.17-1.712-4.17h.854l-.854-1.602.854-.43s-.747-.429-2.459-1.288c-1.711-.844-2.996-.424-4.067.43-1.925-.205-2.245 1.398-2.245 1.398s1.285-.54 2.143-.215c.853.32 1.6-.324 1.924 4.494.32 4.81-2.036 3.96-4.707 3.855-2.245-.324-2.788-.968-3.321-2.781-.534-1.823.111-2.782-2.143-4.39-2.24-1.608-9.518-2.886-13.799-3.635-4.286-.754-10.167-2.352-10.167-2.352s.102.859 1.387 1.708c1.275.859 2.027 1.713 2.027 1.713s.111.11.747 1.064c.64.968 1.707 1.288 1.707 1.288s.426.754.858 1.393c.426.634 2.351 2.666 3.103 3.316.751.634 2.138.634 2.138.634-.534 0-.747.325-.854.969.645.749 1.712 1.073 1.712 1.073l-.214.75 1.387.314-.208 1.069 1.929.43-.431.633 1.823.325-.427.644 1.391.31-.324.644 1.929.215-.325.859h1.819l-.427.749 1.503.214s2.885 1.923 4.925 2.447c2.032.55 1.063 1.184 3.632.334 1.522-.534 1.16-.489 1.716-.643.21-.059 1.387.429 1.067 1.063-.325.654.316 1.179.96 2.572.64 1.388.32.969 1.067.969.32 0 .459.04.552.274l.867-.07c-.032-.215-.055-.334-.027-.53.111-.748.533-.858.533-.858l.96.634s-.213-.634-.533-2.132c-.32-1.493-.112-1.817-.112-1.817l.863.204s.635 2.147 2.143 3.22c.849.605.984.685 1.016 1.03l.714-.1"/></svg>