<svg xmlns="http://www.w3.org/2000/svg" width="300" height="300" fill="none"><path fill="gold" d="M0 300h300V0H0z"/><path fill="#000" d="M165.77 79.488v142.024ZM154.919 68v165Zm-10.838 0v165ZM133.23 79.488v142.024Z"/><path stroke="#BF0A30" stroke-linecap="round" stroke-width="23.325" d="M165.77 79.488v142.024M154.919 68v165M144.081 68v165M133.23 79.488v142.024"/><path fill="#000" d="M78.488 134.23h142.024ZM67 145.081h165Zm0 10.838h165Zm11.488 10.851h142.024Z"/><path stroke="#BF0A30" stroke-linecap="round" stroke-width="23.325" d="M78.488 134.23h142.024M67 145.081h165M67 155.919h165M78.488 166.77h142.024"/><path fill="gold" stroke="#BF0A30" stroke-width="11.662" d="M149.5 177.352c14.83 0 26.852-12.022 26.852-26.852s-12.022-26.852-26.852-26.852-26.853 12.022-26.853 26.852 12.023 26.852 26.853 26.852Z"/></svg>