<svg xmlns="http://www.w3.org/2000/svg" width="300" height="300" fill="none"><path fill="#0073CF" d="M0 300h300V0H0z"/><path fill="#000" d="M116.393 44.791c-.258.245-.476.602-.851.371.1-6.062-2.521-11.047-5.517-15.832-.327-.65-1.256-1.151-1.906-1.33 1.37 3.877.371 7.349 1.047 11.235.048.135.327.366 0 .502-.563-1.148-1.217-2.255-1.592-3.498-.659-1.152-1.775-2.072-2.935-2.709-1.85-.82-3.11-2.438-4.828-3.58-.68-.144-1.239-.995-1.845-1.108l-.934.026-.148.86c.026.357.179.74.153 1.068 2.29 3.415 5.779 5.883 7.144 9.813-.785-.087-1.44-.912-2.412-.82-.231.009-.275.283-.227.466.611 1.614 1.775 3.088 2.251 4.663-4.04-2.063-2.827-7.532-6.634-9.866-.558-.23-.982-1.378-1.675-1.003.52 1.108.755 2.255 1.134 3.415.375.93.336 1.618.571 2.59l-.14-.187c-1.39-.318-2.367-1.561-3.759-1.783l-.275.23c2.513 2.395 3.873 5.391 5.557 8.205 1.177 3.092 2.403 6.228 5.146 8.57-.41.536-.937.977-1.312 1.465l-1.025 1.038c-.764-.484-1.54-.964-2.33-1.313-.51-.179-.505.419-.5.742l1.665 2.438-.71.51-.07.087-.437.44c-3.044 4.166-5.543 8-7.096 12.815-.51-.096-1.3-.506-1.574.008-.881 1.082-.244 2.164.414 3.193l-.571 1.012c-.214-.38-.48-.733-.885-.969-1.937.986-.214 2.923-.158 4.257-1.64 4.174-2.581 8.81-3.157 13.215-.872 1.02-2.067 2.041-2.569 3.39l.092.09c-.275.42-.41.93-.493 1.444-.55.698-1.801.371-2.822.567-.69.188-.314.881-.406 1.339.515.929 1.483.275 2.316.589l.602.083c-.078 1.579-1.888 1.313-2.9 1.74-1.064.375-2.451.196-3.236.947.37.126.514.549.745.824.284.972-.916 1.295-1.326 2.085.057 1.858-.026 3.384.127 5.281.414.319.092.694-.087 1.06-.083 1.845-.44 3.659-.288 5.509-.092.51.462.274.65.553l.035 5.182c.187.414.597.179.828.41-.58 2.407.498 5.042.144 7.68.188.314.558.231.742.454-.218.929-.82 1.814-.855 2.691-.17 2.547-.615 5.373-.554 7.911l.188.188c.14.139.279-.048.418.043-.048.136.048.284-.091.367-.72 2.922.684 5.648.144 8.749.283.51 1.068.314 1.574.314-.266.554-.45 1.204-1.008 1.579-1.373 1.853-.113 3.611-.518 5.739l.654.314c0 .323-.323.471-.323.794.288 1.295.345 3.184 1.6 4.2.698.083.646-.741 1.013-1.169.043-.732.405-1.43.632-2.172 1.84-1.448 1.644-3.345 1.723-5.469-.284-1.43.863-2.647.946-4.174-.196-1.618.994-2.87 1.217-4.444-.515-1.618.955-2.695.807-4.165-1.448-2.259.99-4.405-.183-6.673 1.107-.742.636-1.849.955-2.922.868-1.71-1.082-2.665.388-4.248 1.147-1.492-.353-4.397 2.045-5.334l.842.92.092-.1.327.322c1.177 3.79 2.961 7.48 4.837 11.074 1.78 3.603 4.483 6.865 6.729 10.271-1.657 1.732-3.358 3.681-5.15 5.264-1.261-1.879-1.784-4.239-3.416-6.036l-.091.092-.188-.179c-1.16-.366-2.407-.035-3.327.946-1.152.698-1.653 1.719-2.203 2.931-1.047 2.639 2.434 3.729 3.507 5.151.51.419 1.526.454 1.53 1.151-2.054 3.664-5.927 6.141-8.635 9.303-1.788 2.469-5.478 4.667-5.827 7.956.096.51.654.828 1.069.545 6.402-4.292 11.5-10.018 17.48-15.614.28-.188.327.419.558.087.371.371.925.366 1.43.323.093-.606-.1-1.296-.33-1.902 1.927-2.045 4.688-4.051 6.943-6.106-.17 1.627-.947 3.158-1.444 4.728-.549.929-1.566 1.029-2.351 1.548-.785.231-1.439-.458-2.084-.17-.69.742-.127 1.797.109 2.591-.415.554-1.065-.087-1.57.24-1.248.61-.729 2.085-1.09 3.101.278.466.74.689 1.207.833-.183.732-.27 1.474-.589 2.172s-1.243 1.116-1.234 1.993c.563 1.526-.305 2.974-.205 4.497l.327.505c.328.04 1.112-.104 1.479-.196.192 1.064-.868 1.439-1.561 1.862-.96 1.806-.34 4.161-.607 6.059-.13 1.02-.17 2.503.345 3.1-.092.742-.873 1.575-.31 2.316.1 1.392.668 3.376.353 4.859.01.824-.492 2.503.437 2.953-.035 1.901.44 3.332.266 5.181 1.068.824-.266 1.95.2 2.817.096.419.423.607.746.829-.358 1.483-.44 3.149.44 4.444-.078 1.383.712 2.635 1.183 3.878.693-.284.689-1.208.915-1.806 1.422-1.635 2.238-4.226 1.392-6.442 1.657-1.26.95-3.432.846-5.103.78-1.334.632-2.826.575-4.392.777-1.256.633-2.224.393-3.615 1.099-1.627.528-3.559 1.396-5.33.41-.741-.563-1.474.126-2.172.92-.24.916-1.347.724-1.993-.475-2.08.253-4.117-.039-6.337a16.2 16.2 0 0 0 1.225-3.664c.41-1.107-.431-2.215-.253-3.332.371-.375.406-1.483 1.335-1.073.65.044.506-.793.41-1.16-.611-1.295.728-2.084.397-3.288-.663-1.845-2.429-3.271-2.948-5.203.405-1.304.815-2.6 1.221-3.943.166.091.305.323.449.475l.371.716a2.6 2.6 0 0 0-.297.658c.803 2.351 3.563.432 4.641 2.556-.227.183-.227.558-.227.746.192 1.108 1.4 1.465 2.281 1.74.789.419 1.614-.563 2.085.493 2.691 1.422 5.251 3.576 7.985 4.994v.187c-.039.135-.222.048-.41.092-.087.554-.732.981-1.147 1.347-.972-.266-1.858-.872-3.013-.767-.044.331.187.466.1.785.231.51.789.876 1.252 1.064.833.179 1.897.074 2.494-.249-.274.65-.453 1.339-.82 1.994-1.282 1.67-3.127 3.066-5.299 3.179.048.51-.082 1.064-.17 1.574.096.598.559.742 1.016.921.236.41-.034.92-.078 1.243-.131 1.116-.584 2.464.759 3.101.139.732-.502 1.16-.401 1.901.048.502.558.637.837.916.092.183-.092.275-.135.419.331 1.618-.441 3.332.999 4.575-1.152.885.2 2.259-.441 3.236-.044.51.694.275.558.829-.501.562-.357 1.395-.401 2.181 1.165 1.099-.353 2.586-.296 3.977 1.072 1.849 1.138 4.479.549 6.429-.044.554.65.327.837.506.044.135-.091.135-.187.227.013 1.757-.995 3.476-.38 5.325.947 3.28.048 7.497 2.473 10.258a1.65 1.65 0 0 0 1.012-.75c1.095-2.321 1.496-4.541 1.945-6.952 1.287-1.117 1.322-2.827 1.54-4.27-.013-2.255.667-4.436.654-6.795.999-2.608 1.95-5.936.681-8.662-.323-.179-.559-.506-.607-.829.641-1.439 1.274-3.62.384-5.273-.235-.466.231-.279.506-.427.323-.135.554-.458.598-.833.087-.51.226-.929-.197-1.339-.937-2.351.99-4.453.559-6.712-1.815-1.797.253-3.987-.546-6.202-.514-.916-1.574-.218-2.32-.628-1.901-.912-.296-3.092-.445-4.479l.742.126c2.555 1.923 5.888 1.993 8.901 2.809.375.231 1.069.222 1.117.829.467.553.885.732 1.487.732 1.012.127 1.697-1.313 2.582-.706.693-.144.741.593 1.165 1.003.924.597 2.172-.018 3.096-.528l.384 1.16c-.192 1.252-.109 2.53-.214 3.747l-.139.178c-1.021-.222-1.81-1.181-2.513-1.967-.924.28-.963 1.117-1.513 1.762-.039.65.702 1.339 1.213 1.797-.184.14-.463.188-.598.197-.877.606-2.316.144-3.005.99.057 1.701-.209 3.101.31 4.666.418.419.876-.052 1.295-.144q.352 1.037.292 2.216c-2.586.894-.628 3.193-1.313 4.915-.497 1.387 1.165 1.003 1.675 1.099-.501.969.157 2.774-1.461 3.245-.414.323-.27.877-.27 1.44.052.732.977.636 1.352.868-.545 1.574-.628 3.519-.894 4.958 0 .511.51.546.745.825-.226.794-.314 1.945-.122 2.822-1.055 1.164-.859 3.066-.575 4.173.048.271.231.179.418.314-.13.136-.039.419-.082.607-.41 1.343-1.047 2.638.296 3.737-.358 1.536-.624 3.298-.706 4.728.331 1.806 1.456 3.563.684 5.504-.445 2.87 1.187 5.452 1.204 8.418 1.252.03 1.335-1.492 1.836-2.421.545-1.714 1.274-3.288 1.357-5.19-.061-2.22 1.177-4.121 2.137-6.027.684-1.078.493-2.456.392-3.655.685-1.025.724-2.412.903-3.572-.004-.415-.423-.689-.192-1.108 1.186-2.093 1.125-4.915 1.291-7.41.916-1.627.667-3.851.794-5.657.907-2.503.798-5.229 1.108-7.828-.101-.825-1.304-1.837.078-2.36.266-1.522.903-3.424.057-4.907l.829-1.011c.226-.607-.332-1.065-.519-1.575a13.3 13.3 0 0 1-2.43-3.546c-.466-.645-1.343-.083-1.757-.597.122-1.797.069-2.818.056-4.711l-.187-.375c1.945-.1 4.117-.117 5.783-.357 5.552.157 11.47-.724 16.966-2.744.418.642 1.295.223 1.805.31.005 1.021-.218 1.993-.396 3.014-.092.135-.323.231-.232.462-1.195.842-1.304-1.195-2.276-1.465-.598.375-.825 1.064-1.051 1.67-.184.646-.964 1.531-.214 2.085-.506.419-1.156.375-1.662.615-.741.27-.597.876-.501 1.483.096.501.745.636.977.916-.367.418-1.017.148-1.383.562-.314 1.849.065 3.241.445 4.994.096.598.794 1.431-.17 1.662-.689.789-.449 1.993-.122 2.774.462.139.833-.184 1.251.139-.366.51-.641 1.064-.915 1.627-.258 3.049.78 6.141.798 9.198l1.064.087c-.406 1.108-1.191 2.033-1.134 3.337 1.077 2.215 1.234 4.985.558 7.397.236.876.24 1.845.34 2.774.096.506.463.087.737.318l.114 3.14c.144.838.013 1.954.754 2.36l-.226.327c-.214 2.316-.249 4.257-.188 6.751-.039.419.283.973.746.742.737-.375 1.566-1.126 1.557-2.002.043-.698.174-1.522.497-2.264l-.096-.096c1.474-1.448 1.692-3.524 1.867-5.059.213-2.538.942-4.771 1.478-7.275-.344-3.101 1.213-5.97.497-8.975 1.06-1.078.629-2.456 1.505-3.62.266-1.339-.388-2.77.297-4.074.174-1.252-.663-2.216-.759-3.236.584-1.902-1.409-3.18-1.374-4.889.877-.563 2.268.03 2.817-1.043.131-.645-.239-1.243-.335-1.888.274-.231.597-.284.92-.375 1.156-.24-.009-1.213.497-1.671l-.183.188-1.352-1.841c-.327-.51.318-.929.083-1.387-1.304-1.57-2.242-3.458-2.765-5.403-1.44-.681-1.082-2.539-1.043-3.603 1.95.776 4.357.811 6.346.981 2.591-.292 4.091 2.521 6.769 1.619.693.087 1.657-.467 2.49-.519a145 145 0 0 0 2.015 3.729c-.096.095-.231.148-.322.187.004.929-.031 2.456-.349 3.245-.227.606.008 1.526.793 1.749-.824.885-.628 2.272-.99 3.432.048.554.602.044.925.323-1.653 1.208-.807 3.655-1.954 5.147-.318.697.144 1.251.423 1.753-.911 1.762-.157 3.611.681 5.181-.598.781-.912 1.897-.629 2.818 1.073 1.243-.584 2.137-.392 3.432.519 1.749.532 3.699-.659 5.229-.824 1.16.524 2.081.297 3.189-.637 1.67.85 2.957.353 4.623-.039.881.794 1.339 1.483 1.016.785-.467 1.012-1.439 1.008-2.181-.942-2.172 2.568-3.306 2.045-5.569-.013-2.351 1.732-3.947 2.041-6.211.877-.659 1.378-1.766 1.139-2.743-1.03-2.299 1.038-4.074 1.025-6.15-.306-2.011.754-3.384.95-5.234l.105-.789c1.234 1.413 2.202 3.049 3.188 4.558.981 1.661 2.521 3.083 3.228 4.836.231.096.226-.187.318-.279 1.404 2.028 3.585 2.94 5.535 3.987.872-.794-.293-2.037-.528-3.001-.096-.51-.654-.92-.611-1.335-.283-.649-1.068-1.339-1.164-1.892-.284-.502-.654-1.056-1.261-1.191-1.308-2.216-2.111-4.619-3.559-6.782-1.077-2.08-2.708-4.013-3.279-6.228l.924-.51c-.008-1.44-.065-2.683-.767-3.934-.188-.454-.655-1.008-.703-1.475.419.227.838.689 1.252.733.785-.375 1.012-1.252 1.239-1.993.27-1.064-.89-1.758-1.496-2.582.414-.144.876-.052 1.339-.105.924-.414.916-1.478 1.234-2.324-.048-.554-.558-.825-.75-1.326 1.976-2.421-1.823-3.511-2.303-5.818.366-.375.602-.336 1.156-.336 1.156-.009.637-1.575 1.003-2.316-.052-1.021-1.256-1.199-1.679-2.028-2.281-2.111.2-4.719-.371-7.401 2.006-1.169 1.841-3.315 1.439-5.417l.502-.306c.078.458.17.925.253 1.414.187.366.558.593 1.02.449.777-.698.751-1.941.554-3.11l.498-.397c.658-1.099 1.343-2.207 1.818-3.402.532-1.326 1.073-2.647 1.605-3.969l.166.463c-.148 1.456.419 3.048.314 4.514.004.593.742.545 1.16.637l-.824 1.064c-1.195 1.679-.026 3.384-.986 5.011.659 1.662-1.461 3.568.122 4.95-.274.323-.737.558-.828.977-.319.877.523 1.518.942 2.163-.044.375-.41.838-.641 1.252-.777 1.252.065 2.456-.066 3.751-.693.698-1.099 1.858-.724 2.691 1.444 1.287.066 3.049.676 4.619-1.653 2.185.585 4.392.689 6.66h.279c.921-1.117 2.116-2.286 2.382-3.764 1.012-1.161 1.326-2.643 2.242-3.904 1.487.777-.559-.597.457-1.02-.475-1.893 1.37-3.018.803-4.728.17-2.447 1.452-4.396 2.412-6.534.166-2.547 1.491-5.19 1.662-7.737 1.652-1.906 1.591-4.453 1.984-6.865-.379-2.35.619-4.531.371-7.078 2.211-2.098-.21-4.898 1.02-7.41-.384-1.945.668-4.218.284-5.827l.322-.331c-.283-.829-1.208-.506-1.901-.589l-1.596-3.555c-.327-.689.178-1.156.501-1.657.087-.427.545-1.117-.104-1.444-.554-.366-1.291-.083-1.658.524-1.243 1.147-1.382-.358-1.805-1.4l-.99-1.191a4.25 4.25 0 0 0-1.265-2.983c.894-4.955-.894-9.342-1.156-13.961-.009-1.762-.942-3.236-.864-4.907.092 0 .184-.043.232.096.414-.14.457-.562.41-.929-.493-1.195-1.444-2.15-2.517-2.904l-.144-.598c.14-.366-.327-.554-.283-.92.322-.231.881.179 1.107-.332.314-1.757-1.635-2.852-2.931-3.628-.008-.93-.658-1.58-.754-2.403-1.967-3.55-3.751-7.197-6.407-10.468 2.94-2.743 5.652-5.861 8.919-8.705.824-.982 1.928-1.867 2.063-3.258-.235-1.03-.815-1.967-1.483-2.8l.646-.606c.501-.306.977-.86 1.312-1.27-.423-.824-1.443-1.465-2.006-2.154-.785.419-1.561 1.169-1.928 1.91-.462-.419-.933-1.247-1.674-1.474-.833-.179-1.71-.035-2.312.528-2.372 2.495-5.107 4.291-7.113 7.052l-.75.306c-1.44-.825-1.614 1.072-2.582 1.448-.511-1.2-2.264-.262-2.735-1.736l.092-.096c.545-.375.357-.968-.009-1.387a5.2 5.2 0 0 0-2.813-.118l-.463-.741c-.287-.528-1.099-.864-1.413-1.383-3.764-2.512-7.296-4.99-11.379-6.677-4.596-2.094-9.324-3.502-14.423-4.488l.048-.087c.227-.332.275-.655.179-1.073-.423-.733-1.156.008-1.758.017-.968.833-2.634.52-3.886.624.415-.515 1.06-1.16.82-1.945-1.522.283-3 .758-4.243 1.596-2.316-.214-4.27-.179-6.525-.188-5.504.868-11.331 1.549-16.547 3.433-.646.1-2.966.894-2.966.894-.135-.65-.772-.445-1.286-.768-1.754.654-1.736 2.922-3.634 3.35a24 24 0 0 0-2.014-3.734c-.886-1.339-2.238-2.996-3.948-2.656-.183.28-.322.602-.135.93 1.073 2.341 1.74 4.88 1.972 7.588"/><path fill="#9A3B26" d="M208.544 153.652q-.048.464.061.947c1.203.318 2.686.309 3.419-.851.087-.467.222-.981.174-1.387-.872.297-1.779.554-2.621.933zm6.437.702c-.392-.615-.515-1.391-.563-2.01.14.039.28.039.371.135.838.458.877-.654 1.291-.981.885.872-.453 1.67-.541 2.547a3.2 3.2 0 0 1-.161.658l-.393-.349"/><path fill="#EFE8C7" d="M218.097 143.237c-.593.205-.65 1.295-1.13 1.823-.235-.179-.514-.323-.745-.501-.925.091-.746-.598-.751-1.339h-.274c-.275.645.427 2.076-.628 2.368-.96 1.993-3.18 2.281-4.981 2.53-1.771-1.339.209-2.966-.353-4.584.916-1.156.305-2.591.484-3.843.131-1.064.959-1.897 1.461-2.826-.419-.096-.968.188-1.252-.275-.096-.876-.2-2.494-.253-3.655-.039-.34-.205-.715-.152-1.038l-.136-.985c2.329-5.81 4.466-11.654 5.156-18.131-.24-.929.597-.562.963-1.112.423 1.012.524 2.211.345 3.328-.087.877-.685 1.618-.816 2.36h.275c1.601-1.619 1.073-4.436.523-6.412l-.305-1.238c-.384-.995-1.204-1.898-.702-3.032l.515.69c.139.462-.035 1.338.471 1.474-.048-.689.174-1.566-.476-1.985l.415-.279.68.628c-.031.445.497.777.58 1.208.161 3.572.236 7.864.497 11.985.593-1.02.21-2.407.297-3.65.51.501.606 1.282 1.073 1.744.318-.645-.332-1.243-.567-1.849-.231-.043-.506.105-.598-.126-.061-2.225-.266-5.273-.235-7.497.972.501 1.518-.982 2.442-1.03.515.689-.262 1.431-.584 2.085-.131.973.514 1.662.754 2.49.467.833.842 1.658 1.125 2.578.323-.366.786-.279 1.296-.188.283.921.152 2.312-.026 3.428.527 2.726-1.217 4.728-.227 7.672.423.973-.637 1.588-.912 2.412.432 2.128-1.029 4.318-.279 6.389-.545 1.627-.253 3.245-.706 4.863-.794-.867-1.771-1.557-2.608-2.477-.14-.179-.053-.741-.511-.597.101 1.243.798 2.394 1.269 3.593.144.554.838.877.838 1.483q-.273.745-.48 1.509l-.768.009"/><path fill="#9A3B26" d="M218.75 143.669c-.463 1.858-.707 3.724-1.479 5.648l-.187-.188c-.703-.824-.759-2.586-2.098-2.477.004.964.061 2.307-.628 3.193-.602-.188-.24-1.156-.934-1.2a7.4 7.4 0 0 1-3.393 1.653l-.863.314c-.31-.34-.681-.68-.637-1.147.039-.515.458-.785.868-1.025 1.387-.24 2.817-.34 4.017-1.038.872-.981 1.932-1.635 2.294-2.839l1.025.733c1.011.239 1.094-1.012 1.469-1.789l.546.171"/><path fill="#EFE8C7" d="M209.259 150.726c.258.305.428.628.162 1.046-.419.476-.72 1.03-.838 1.618l.99-.444c.899-.546 1.976-.594 2.949-.96.144.92.008 1.618-.31 2.451-1.108.428-2.028.938-3.236.484-.183.367.004.742-.083 1.204-.275.794-1.195 1.439-.82 2.412l1.243-1.256c1.208 1.099 2.359.122 3.746.061.328.043.467.65.838.323.501-.886 1.334-1.261 1.234-2.273q.052-.166.118-.331l-.528-.502c-.702-.693-.885-1.866-.724-2.625.602-.288.79.41 1.252.305.275-.51.501-1.335.776-1.574.558.082.24 1.347.886.824 0-.188-.048-.414.183-.51.039-.323.218-.825.17-1.335-.968-.462-1.208-1.705-1.775-2.582-.458.602.144 1.021-.17 1.67-.319.511-.314 1.335-1.056 1.44-.414.039-.558-.419-.698-.694.048-.091-.091-.144-.139-.227-1.173.528-2.137 1.261-3.402 1.278z"/><path fill="#9A3B26" d="M199.103 184.644a11.3 11.3 0 0 0-1.558-1.378c-.039.925.384 2.076.943 2.953l-.415.104c.188.218.279.554.606.689.144-.562.262-.885.301-1.382l.118-.986"/><path fill="#EFE8C7" d="M148.684 206.264c-.17-.24-.327-.476-.554-.698-.65-.135-.043.698-.458.929-.323-.231-.419-.65-.833-.506-.558.148-.366.881-.27 1.256.423 1.012 1.265 2.434.715 3.319-.188-.083-.419-.27-.602-.083l-.078 2.403c-.092.092-.184.227-.323.188-.092-.096-.231-.183-.231-.327-.375-.092-.698-.545-1.112-.262.335 1.984 2.56 2.94 2.712 4.972-.083 1.439-1.046 2.556-1.827 3.672-.833-.279-.977-1.295-1.762-1.661-.646.706-.454 1.766-.127 2.507.663 1.797-.017 4.344-.977 6.019-.654-1.108-.065-2.774-.859-3.746l-.828.654c.139-.458.039-1.291.405-1.806l.279.14c.327.187.742.083.969-.24.27-1.431-.432-3.009-.58-4.396-.376-.545-.934-.964-1.536-1.003.223-1.296.122-2.447.812-3.572 1.016-.375 2.028-.938 2.813-1.675.178-.606.776-1.16.401-1.858-1.295-.035-2.857 2.01-3.79.214.083-.376-.009-1.069.641-.929 1.012-.938 2.202-2.055 3.075-3.215-.838-1.199-2.499.197-3.52-.942-.009-1.16-.244-2.276.301-3.249a.92.92 0 0 1-.833-.27c.079-1.806.484-3.664.89-5.417-.467-.096-1.021-.044-1.348-.506-.654-1.845 1.98-1.863 1.505-3.755.227-.458-.236-1.387.728-1.483.506-.279 1.012-.79.964-1.344-.781.877-1.836 1.762-3.044 1.54l-.301-4.344c.414-.467 1.06-.938 1.513-1.352-.091-.881-.096-1.714-.336-2.634-.51-.044-.689.654-1.247.418-.371-.366-.052-.92-.379-1.234-.048-.89-.245-2.455.165-3.341 1.156-.196 2.443-.615 3.651-.946-.375-.646-1.352-1.152-1.357-1.976.275-.51.55-1.073 1.012-1.448.79.877 1.671 2.072 3.018 1.736.262-1.103.022-2.809.17-4.191l.018-.833c.515.087 1.06.096 1.579.161.048.188-.183.135-.227.275-.083.968.196 2.22.109 3.057.571 2.255-1.13 3.986-.654 6.106-.074 1.806 1.452 3.001 1.975 4.566l.323-.187c-.283-.92-.846-1.701-1.452-2.477-.236-1.117-.611-1.993-.34-3.245.035-.881.213-1.806.397-2.499.645.179 1.478-.057 1.762.724.196 1.579 1.958 2.446 2.525 3.825.602.649-.415.846-.641 1.251-.415.428.052.929.148 1.348.192 1.387.253 3.467-.946 4.396-.319.833.519 1.387.571 2.172-.314 1.993-.667 4.078-.611 6.067-.414.51-.227.925-.497 1.439-.423-.597-.563-1.339-.842-1.984-.283-.506-.562-1.152-1.073-1.426-.27 1.391.114 3.279.354 4.85l-.183.143c-.328 0-.559-.135-.838-.222-.004-.698-.606-1.339-.75-2.076h-.231c-.044.602.288 1.618.981 1.984l-.135.323c.375 1.056.894 2.068 1.178 3.184 1.164.864.479 2.141.527 3.323l-.65.205"/><path fill="#9A3B26" d="M148.393 206.469a.5.5 0 0 0-.166-.079c-.091.188-.087.51-.41.519-.462.096-.418-.414-.746-.593-.41.824.428 1.609.615 2.399.192.597.336 1.382.153 1.936l-.323.24c-.048-.139-.231-.043-.322-.096-.088.742-.131 1.575-.171 2.36-.226.562-.741.196-1.064.052-.096-.231-.327-.318-.51-.41l-.092.092c.607.972 1.213 1.936 2.098 2.76.685-1.295 1.139-3.057.572-4.444 1.134-1.025.902-2.708 1.203-4.148z"/><path fill="#EFE8C7" d="M82.74 101.106c.04-.515-.013-.99.022-1.5-.93-.136-1.758.24-2.683.34-.14.231-.043.606-.087.833.654.732 1.575-.009 2.364.353z"/><path fill="#9A3B26" d="M215.278 109.877a4.4 4.4 0 0 1-.44-.851c-.379-1.151-.942-2.163-1.779-3.083-.419 0-.794-.877-1.348-.921-.279.053-.65-.082-.833.284.24 1.064 1.169 1.888 1.684 2.905.798 1.147 1.081 2.63 2.385 3.55.415-.1.227-.654.131-.929-.14-.231-.371-.419-.327-.742.349 0 .41.471.672.624zM91.005 76.939c.174.27.336.546.453.816.698.69.472 1.243.153 2.08-.663-.444-.92-1.212-1.252-1.919zm16.582 76.408c-.567-.698-1.239-1.396-1.867-2.067.463-.232.781-.607 1.195-1.025 1.165 1.151 2.098 2.163 3.398 3.17-.598.197-1.754.288-2.216.245z"/><path fill="#9A3B26" d="M205.134 138.985c-.096-.493-.214-.964-.292-1.344 3.925-7.889 6.001-16.324 7.658-25.038.179-.877.31-1.898.585-2.683 2.085 1.518.576 3.511.637 5.504-.855 3.747-1.479 7.41-2.94 10.751-.179.886-.912 1.993-1.003 2.691-1.701 3.175-2.421 6.804-4.3 9.831zm3.171-60.079c.589.27 1.208.598 1.801.969l-.061-.637.126.017c-.148-.462.048-1.134-.715-1.195-.514-.458-1.256-.733-1.906-1.055-.074.357.083.741.301 1.073l.454.82"/><path fill="#EFE8C7" d="M197.209 51.879c2.233 3.532 1.679 8.09 1.832 11.667 3.908-4.183 8.003-8.047 12.002-12.051.55-.75 1.008-1.4.58-2.368l-.183-.14-.091.096c-.476-2.128-2.656-3.271-3.917-5.068-.698-.41-1.16-.314-1.853-.078-2.552 2.268-5.631 4.583-7.781 7.488zm13.813-5.64c.353-.41.963-.632 1.134-1.195-.419-.636-1.117-1.046-1.675-1.557-.646.52-1.147 1.073-1.47 1.762.44.458.938.964 1.409 1.51z"/><path fill="#B3995D" d="M186.231 50.745a3 3 0 0 0-.27.214c-.048 0-.096-.053-.096-.14-.043.043-.043.087-.135.087l.004.886c1.344.4 3.328-.624 3.755 1.177-.37.188-.322.51-.409.833.514 1.151 1.57.127 2.499.214l1.766 1.243-.092.419c-1.565 1.02-2.944 2.603-4.322 3.855-.645.563-1.426 1.492-2.494.99-.371-.126 0-.41-.005-.645-.192-1.204.401-2.268-.157-3.42-1.156-.405-2.778-.493-4.353-.484-.135.606-.405 1.208-.405 1.67-.179.834-.266 1.67-.585 2.452l-3.654.026c-.502 1.16-.354 2.778-.393 3.977.279.232.929.463 1.252.232.466.366 1.714-.018 2.268.349.148.928-.354 2.276.344 2.821-6.987 7.17-14.532 14.157-21.331 21.515h-.28c-.335-1.94-.396-4.584-.597-6.38-.419-.271-.052-1.117-.789-.92-1.012 1.168-1.283 2.599-1.967 3.946-1.052 1.854-1.038 3.934-1.209 6.063-.13.658.332 1.295-.122 1.858-.362-5.596-.632-11.567-4.453-15.99-.375-.449-.562-.824-1.164-.911-.227.28-.41.606-.314 1.02 1.683 2.993.781 6.844-.122 9.901-.153-1.618-.07-3.188-.122-4.667.292-4.352-1.531-8.326-3.734-11.784-.418-.27-.977-.585-1.43-.262-.279.28.139.646.091 1.012.354 4.584.297 9.765-.458 14.397.197 2.215.912 4.531 1.335 6.651.052.93.336 1.758-.118 2.59-.323-.222-.606-.732-.929-1.002-.798-1.662-2.338-3.18-3.271-4.89.96-1.766 1.732-3.62 2.556-5.425 1.526-6.721.318-14.899-2.22-21.367-.702-1.107-1.221-2.86-2.796-2.987-.414.187-.226.698-.318.925 1.923 4.339-1.056 8.748.593 13.324.074 4.396 1.448 9.15-.096 13.742-.139.092-.275.332-.506.236-1.675-1.1-2.058-3.084-1.836-4.802 1.099-1.67 1.827-3.572 1.954-5.513-.079-4.907.305-10.323-3.655-14.236-1.208-.545-2.05-1.975-3.345-2.145-.493 1.714-.711 3.842-.24 5.595 1.91 2.395 2.674 5.906 2.32 8.64l-1.526-1.151c-.929-.127-1.801.802-2.399 1.404-.423-.92-1.169-1.7-1.5-2.717.091-.414.318-.833.641-1.02 1.129-4.218 2.678-8.257 1.169-12.736-.519-1.339 1.334-.427 1.744-1.26l.157-4.584c-1.203-.545-2.686-.58-3.842-.894-.284-1.16.074-2.547-.022-3.747-1.3-.597-2.691-1.142-4.082-1.042.043-.916-.196-1.888-.432-2.774-.004-.318-.471-.868.039-1.055.327.405.096.737.515 1.055 1.478-.24 1.47-2.002 2.573-2.743 3.044-1.226 6.228-2.12 9.464-2.796 5.164-.62 10.463-1.565 15.23-1.627l.576.079c-.192.432-.288.885-.118 1.36 1.483.498 2.207-1.914 3.873-1.548.327.18.358-.13 1.165.332.876-.018-.092.859.606 1.173 1.021.275 1.662-.798 2.49-1.12.463.27 1.065.178 1.483.5 2.918.35 5.334 1.815 8.117 2.443 6.049 2.866 12.456 5.02 17.964 9.08l.179.498"/><path fill="#9A3B26" d="M188.355 49.336c-7.781-6.686-17.712-10.951-27.616-12.792l-1.932 1.54c1.718.911 3.846.715 5.517 1.722 6.442 1.714 12.338 4.78 18.283 7.794 1.164.633 2.87 1.902 4.017 2.717l1.731-.985"/><path fill="#1691FF" d="M182.074 162.955c1.841 1.374 3.607 2.887 6.058 2.922.092-.043.323-.135.323-.323-.327-.135.044-.231-.188-.418l-1.836-4.702c-1.295.292-2.516 1.33-3.79 2.054z"/><path fill="#9A3B26" d="M181.478 162.523a8 8 0 0 0-.628-.418l.859-.724c1.357-.672 2.587-1.601 3.882-2.377.231.279.327.606.515.929-1.222.867-2.591 1.548-3.721 2.342zm-10.406 3.925-.057.445c-.126.21-.213.493-.27.716-2.216.894-4.296 1.325-6.603 1.94-3.559.947-7.724.607-11.24 1.091-2.124.017-4.941.401-7.074.043l1.745-1.535c2.869.31 5.504-.17 8.422-.288 5.194-.658 9.835-.274 14.527-2.259z"/><path fill="#B3995D" d="M187.208 122.359c-.187.083-.375.179-.606.179-2.311-.079-3.825 2.146-4.972 3.685-1.74 3.071-2.364 6.63-4.797 9.329-.423-.972-1.352-1.744-1.501-2.904 1.335-1.073 2.207-2.513 3.075-3.9 2.935-4.143 1.788-9.643 2.129-14.501.449-2.041.758-4.174.143-6.106-.183-.24-.096-.794-.601-.65.048.283-.323.419-.415.659-5.988 4.335-3.345 12.325-5.944 18.261-.685 1.4-.397 2.913-.711 4.352a36 36 0 0 0-2.892-3.083l-.048-.406 2.063-3.402c1.186-2.22 1.958-4.915 2.774-7.283.667-4.069 2.634-7.785 2.56-11.898-.336-1.714-.161-3.655-1.605-4.942-.728 1.671-1.875 2.831-3.21 4.139-3.262 2.888-5.369 7.114-3.576 11.589l-.183.51c-.232-.044-.28-.41-.559-.275-1.941.292-2.896 2.608-3.258 4.37-.837-.824-1.121-1.932-1.173-2.996 1.971-2.512 3.018-5.207 2.861-8.535-.301-3.563-1.435-7.114-1.967-10.812 3.633-2.94 6.254-5.919 9.517-9.36l13.891-13.324c2.342-2.377 4.736-4.566 7.214-6.808-.493 1.858-.99 3.624-1.208 5.657.008 1.339 1.029 2.49 1.273 3.834-1.09 2.734-1.396 5.835-.266 8.648-.96 2.18-1.265 4.828-.973 7.275-1.696 2.325-.937 5.33-.27 8.008-1.378 2.18-.846 5.464-.135 7.911-1.056 1.671-2.155 3.441-2.05 5.478.057 1.378 1.775 2.573.628 3.925-.362 1.064.336 1.985.345 2.905-.602.48-.873 1.304-.82 2.002.004.741.654 1.43.427 2.08-.689.742-.449 1.849-.074 2.683-.231.187-.554.553-.641.928-.092.646.052 1.387.567 1.893-.131 1.104-.083 1.762.109 2.827.279.366.693-.144.833-.428-.144-.554.685-.885.314-1.387.318-.885.349-2.224.344-3.101.55-.981.493-2.272.441-3.341l.187.188.323-.375.066-3.79.322-.092c.275-.427.598-.929.593-1.347.502-1.344.676-3.058.48-4.488l.462-.419c.175-1.718.999-2.604.807-4.361-.1-.69-.104-1.2-.335-1.754-.192-.972-.663-1.893.396-2.643l-.091-.091c1.007-1.536.667-3.101.75-4.584.554-.742.637-1.897.816-2.735-.375-.876.641-1.2.405-2.084 2.39-2.517 1.95-5.932 1.61-8.937 1.831-2.7 1.024-6.023.588-8.937 1.23-2.922 1.714-6.023 1.422-9.49-.144-.51-.427-1.064-.475-1.483 1.308 1.662 2.246 3.69 3.092 5.63l-.14.18c-.091-.136-.231-.083-.37-.083-.323.135-.044.51-.227.645.375.877 1.304 1.518 2.185 1.75.07.4.24.902.471 1.351l.188.69c-.485-.145-.964-.332-1.344-.603-.183-.096-.462-.187-.737.092.013 2.224 2.512 2.072 3.633 3.868 2.12 5.91 2.53 12.378 2.665 18.903l-.462.009c-.733 1.16.523 2.172 1.173 3.039-.27.284.235 1.065-.41.929-.044-.043-.092-.091-.092-.135-.51-.179-1.112-.41-1.478.144-.223 1.627 1.448 2.634 1.923 4.065-1.648 9.674-3.807 19.369-8.055 28.039l-.515-.636c-.183-.188-.558-.323-.65-.284a6.6 6.6 0 0 0-.323 2.429l-.632.349c-.017-.082-.03-.178-.044-.261l-.327-.463c-.558-.51-.881.136-1.247.419-.506-.179.362-1.016-.51-.92-1.383 1.26-2.853 2.887-3.21 4.745.196 1.618-.855 3.515-1.636 4.863-.676-4.627 3.607-7.929 1.91-12.273-.471-1.339-.754-2.303-1.269-3.555-.235-.418-.192-1.107-.658-1.243.109 2.63-1.4 5.239-2.957 7.515-.637 1.575-1.553 3.014-2.238 4.588l-.144-.314c-.218-5.137.013-12.539.86-17.873.034-1.43.026-2.734-.441-3.79a10 10 0 0 0-2.263 1.758l-1.1.179m-31.589-8.488c-.955-.056-1.902.328-2.704.768-1.614.938-.402 2.316-.349 3.568-.925-.218-2.177-.074-3.332-.441-1.344-.222-2.643-.58-4.074-.663.362-.702 1.099-1.116 1.509-1.775l.218-.528c.689-.375.934-.492 1.488-.959 1.652-1.631 4.666-.864 6.424-.685.257.026.458.205.685.349z"/><path fill="#9A3B26" d="M172.863 157.429c1.492-.436 3.001-.929 4.61-1.099.332.92.105 1.71.018 2.726-1.57.196-3.101.026-4.719-.153l-.04-.427z"/><path fill="#B3995D" d="M127.898 80.974c-1.025-2.613-2.429-4.929-4.352-7.127-1.523.654-2.949 2.146-4.471 2.896-5.91 1.618-10.751-2.482-16.756-1.417-.415-.227-.829.148-1.064-.323.409-.877 1.561-1.719 2.385-2.416.602-.515 1.435-.376 2.081-.75-1.819-2.303-1.889-5.727-4.724-7.24-.087-.41-.462-.873-.231-1.248.275-.323.781-.423 1.147-.235 4.492.527 6.189 5.417 9.905 7.248 1.762.402 3.655.11 5.325.563 1.854.218 3.433 1.557 5.421 1.03-.706-1.841-2.111-4.192-4.379-4.362-2.643-.776-5.648-1.173-8.426-1.2-.091-.23-.693-.222-1.064-.366-2.503-.903-4.754-2.857-6.568-4.994l-.79.707c-.453.785-1.173 1.526-1.587 2.35-2.656 3.86-5.548 7.773-6.909 12.217.149 1.339 1.13 2.582.768 3.834-.283-.367-.929-.454-1.165-1.004l-.732 1.156c.514.877.89 1.753.85 2.861-.183.188-.366.419-.645.336l-.838-.597-.366.418c-.86 3.014-2.255 9.591-2.255 9.591-.737 7.545-.733 15.043 1.16 22.06a37 37 0 0 1 .777 5.085c.745.785 2.18 1.052 2.233 2.251-.458.563-1.108.427-1.71.475.004.554.288 1.06.057 1.618 1.116.873 2.508 1.187 3.35 2.294.278.511-.367.786-.738 1.021h-.506c.192 1.025.986 2.08 1.27 3.049 2.669 5.216 5.665 10.471 9.35 15.029l2.983-3.171 14.89-15.365c.21-.179 0-.283.231-.51.554-.053.881.405 1.344.501-.144-.92-.524-2.307.165-3.236 2.992-2.617 5.888-5.452 8.784-8.3-.606-.457-1.256-.772-1.674-1.325.505-.471 1.199-.703 1.661-1.073-1.343.048-3.005.619-4.352.161-1.156-.454-1.898-.401-3.014-.955-.323.144-.554-.223-.742-.358v-.322c.829-.24 1.427-.938 2.26-1.261-1.767-.693-4.131-1.644-4.052-3.964-.188-.406.275-.511.506-.602 1.757-.105 4.265 1.496 6.245.288 2.822-.663 6.665-.136 9.334-2.281-3.559.253-7.114 1.897-10.494 1.823-2.272-.685-4.819-1.126-6.773-2.831-1.204-.401-2.412-1.321-3.114-2.198 2.992-2.565 6.158.519 9.578-.153 2.263-.427 4.012-2.198 6.236-1.932 2.447-.48 5.513 1.343 7.489-.972-.371-.323-.471-.92-.885-1.108.087-.51-.52-1.012-.799-1.378-.466-.607-1.073-1.296-1.814-1.422-.968-.044-1.662.51-2.394.933-1.427.89-2.901 2.01-4.423 2.76-1.387.428-3.188.99-4.719.537-2.918-.715-5.931-1.574-8.029-3.833-1.121-1.47-1.823-3.132-2.944-4.562-.14-.367.227-.554.318-.694 1.108-.375 1.95.685 2.922.58 2.783 1.226 5.618 3.389 8.946 2.342 2.119-.977 4.623-.484 6.699-1.61l-1.727-2.066c-1.802.519-3.045 1.635-4.938 1.923-4.156 1.37-6.729-3.01-11.073-1.823-.925-.366-2.22-.314-3.153-.903-1.204-.179-1.854-.82-3.014-1.047-.79-.41-1.623-1.142-1.858-2.028-.51-.222-.423-.868-.933-1.234l.091-.044c-.558-.793-1.491-1.565-2.189-2.259.318-.741 1.247-.331 1.849-.423 1.758.397 3.472 1.038 5.007 1.719 1.666.501 3.28-.066 5.09.706 1.762.319 3.432 1.23 4.919 2.377.606.314 1.392.314 2.089.493.044-.414-.423-.78-.519-1.243-.144-.833-.104-1.845.262-2.586 1.221-.205 2.7-.328 3.999.065l-.069-.946"/><path fill="#9A3B26" d="M171.59 166.261c.532.153 1.056.314 1.557.502-.275.741-1.06 1.212-1.845 1.26-.357-.349-.013-.645.083-.968zm30.996-26.757c.053.266.109.527.162.802l.558-.052a18 18 0 0 1-.148-1.029l-.515.401M101.598 57.762a67 67 0 0 0 1.632.99c.501-1.025 1.465-1.858 2.154-2.69-.462-.328-1.02-.554-1.531-.83-.379.664-.942 1.143-1.43 1.654zm49.075-20.154c.157-.279.34-.554.493-.815.275-.42.689-.75.868-1.16-2.36-.223-5.09-.41-8.051.052-5.683.815-11.048 1.644-16.216 3.567-.462.053-1.723.554-1.723.69 0 0-.209 1.5-.667 2.01 1.387-.331 2.817-1.03 4.296-1.37 4.845-1.6 9.333-1.73 14.467-2.59 1.823.079 3.903-.41 5.87-.375z"/><path fill="#000" d="M116.393 44.792a.6.6 0 0 1 .301-.188Z"/><path fill="#B3995D" d="M115.612 48.35c-.117 1.278-.335 2.574-.44 3.852.235.501.331 1.055.75 1.474-.153-2.32 1.592-3.987 1.3-6.263-.183.052-.354.296-.528.484z"/><path fill="#9A3B26" d="M156.049 34.259c-.592 1.295-2.159 2.19-3.075 3.35-.923.374-1.381 1.26-2.306 1.591.039-1.574 1.278-2.97 2.569-4.004.829-.51 1.844-.654 2.812-.937m4.912.802c.24 1.064-1.056 1.396-1.466 1.993-1.059.707-2.167 1.357-3.179 1.967-.052-.366.27-.833.502-1.208 1.099-1.535 2.481-2.285 4.143-2.752m-3.233 1.038-1.53 1.732-1.134-.061s-.562-.035-1.164-.253l1.47-1.588c.654.105 1.526-.009 2.359.17m-34.194 7.72c-.178.27-.318.645-.64.833-.524-2.076.527-4.3 2.276-5.517 1.4 1.7-1.182 3.057-1.635 4.684"/><path fill="#395839" d="M104.454 41.023c.751 1.204 2.186 1.6 3.071 2.617.89 1.056 2.373 2.11 2.386 3.637-.698-.126-1.3-.588-1.858-1.046-1.117-.873-2.735-.498-3.76-1.645-.658-1.526-1.683-2.904-2.25-4.474.833.178 1.535.776 2.412.911"/><path fill="#9A3B26" d="M122.372 42.066c-.366.458-.179 1.251-.593 1.666-.096-.367-.144-.742-.24-1.108.327-.1.462-.558.833-.558m3.795 7.144c.008 1.483-.358 2.547.021 3.894 1.344.17 2.779.214 3.847.894l-.157 3.978c-.371.375-1.02.052-1.435.288-.658-1.889-1.827-3.459-2.992-5.068-.279 0-.51-.323-.789-.083-.864 2.264.584 4.614.048 6.983-.223 1.661-.585 3.236-.297 4.762-.462.053-1.151-.074-1.753-.17 2.054-4.413 2.425-10.615-.558-14.898.131-.502.126-1.108.449-1.566 1.295.074 2.499.388 3.616.986"/><path fill="#1691FF" d="m107.853 50.906-.597.646-2.002-1.736.092-.053c.789.463 1.578.912 2.507 1.143"/><path fill="#9A3B26" d="M191.557 50.6c-1.754 1.113-3.42 1.082-5.269.869h-.14c.179-.698 1.152-.938 1.749-1.405 1.152-.562 2.495-.427 3.655.118zm-81.707 1.54c-.183.232-.414.65-.737.554l-1.535-.955c.641-1.343 1.575.17 2.272.402m81.807-.297c-.833-.035-1.658 1.395-2.268.205.597-.524 1.478-.336 2.08-.855-.187.052 0 .47.188.65"/><path fill="#000" d="m157.002 52.48.03 4.262c.829-.144 1.845.305 2.639.724.563.689.105 1.753.109 2.59-.458.646.105 2.4-1.374 1.994-.833.056-1.435-.402-2.268-.214-.309 2.316-.248 4.763-.972 6.9-1.2.885-2.731.296-4.166.117-1.295-.222-.335-1.797-.479-2.403.314-1.574-.022-3.328.2-5.094-1.068-.358-2.542.157-3.336-.62-.148-1.295.214-2.965.296-4.448 1.195-1.208 4.262.903 4.013-1.832.135-.876-.013-2.028.397-2.913 1.67.453 3.245.392 4.911.938"/><path fill="#EFE8C7" d="M195.779 66.817a.6.6 0 0 1-.231.274c-.087.51-.549.79-.964 1.156-8.692 8.248-17.938 16.826-25.841 25.253-1.334 1.3-2.573 2.603-4.047 3.772-.851-2.678-.873-5.87-3.197-7.658-.183 0-.323 0-.414.187.706 2.307-.572 4.623-.463 7.122.332 1.618-.58 3.245-.475 4.863l-.92.563c1.591-4.174.824-8.239.008-12.496l.092-.418c7.763-8.051 15.448-15.317 23.403-23.19 3.446-3.219 6.896-6.89 10.529-10.153.021 3.52 1.836 6.398 2.965 9.381zm.733-6.106c-.929-2.164-1.273-4.38-.772-6.809 1.056 2.294 1.309 5.012 1.165 7.633z"/><path fill="#773141" d="M195.975 61.086c-.811-2.09-1.335-4.31-.973-6.765.14-.458.41-.972.968-.741.698.501.703 1.234 1.03 1.893.436 3.236.876 6.703-.118 9.992l-.414 1.7c-.105.188-.293.384-.406.563-.724 2.787-2.503 6.363-.358 9.08l.323.088c.096.135-.091.23-.039.323.837 1.286 1.356 2.625 2.01 4.012.803 2.26 1.649 4.523 2.866 6.642 1.461-3.013.702-5.97-.052-8.923-2.796-3.044-3.655-6.917-4.65-10.712.092-.135.083-.414.323-.414.842 2.495 1.509 5.13 2.547 7.572.698 1.195 1.675 2.259 2.377 3.45.907-2.548 1.583-5.374 1.243-8.244-.523-2.355-2.207-5.164-4.845-5.7.091-.144.274-.096.414-.096l.083-.742c.301-3.837.414-7.867-.995-11.422-.322-.366-.606-1.295-1.251-.96-.55.969-1.706 1.209-2.068 2.325-.401 2.639.31 5.408 1.392 7.715.091.275.933 1.937 1.077 2.866l.091-.009c.184-.318-.004-.872.179-1.108.044-.366.083-.741.118-1.116z"/><path fill="#9A3B26" d="M156.495 52.764c.283 1.2-.166 3.005.117 4.213.376.367 1.021.035 1.483.266l1.248.502c.104 1.243-.07 2.538-.48 3.799-1.06.327-2.499-.637-3.328.205-.122 2.446-.248 4.483-.789 6.89-.737.428-1.666-.034-2.403.114-.511-.096-1.069-.14-1.488-.506.31-2.495.293-4.758.28-7.214-.79-.314-1.483-.083-2.316-.17l-.833-.135c-.057-1.57-.061-2.957.296-4.261 1.339-.467 2.129.087 3.467-.34.594-1.208.262-2.735.576-4.03z"/><path fill="#B3995D" d="M112.266 53.606c-.698-.135-1.579-.314-2.321-.633.641-1.164 1.575.31 2.321.633"/><path fill="#9A3B26" d="M193.371 52.533c.14.135.328.27.375.554-.645.375-1.43.323-2.171.427-.742-.043-1.431.52-2.081.192 0-.227.227-.414.414-.602.463.188.506-.322.829-.418.925-.332 1.753-.384 2.634-.153m-.031 2.12c-.418.008-.698-.367-1.02-.546.415-.091.833-.091 1.156-.331-.139.24-.183.563-.135.877"/><path fill="#B3995D" d="M119.405 56.785c.445.118.898.236 1.117.52.109 1.844-.258 3.1-.384 4.906-.746-.785-.89-1.985-1.592-2.905-.166-.903-.07-1.758.17-2.564z"/><path fill="#9A3B26" d="M119.42 56.332c.332.06.694.288 1.056.222-.144-.785-.471-1.422-.707-2.163a12.5 12.5 0 0 0-.876 1.84z"/><path fill="#B3995D" d="M114.374 57.941c.942 2.307 2.664 4.244 3.654 6.542-2.18-.349-3.306-2.752-5.434-3.11-3.014-.58-6.254-.976-8.949-2.53.41-.928 1.426-1.626 2.067-2.367 2.782.767 5.748 1.618 8.662 1.465"/><path fill="#9A3B26" d="m185.765 56.458.323.327c.056 1.479-.074 2.408-.157 3.934.327.367.789.367 1.251.314-1.836 2.233-4.182 4.327-6.345 6.29l-.022-3.01c-1.112-.501-2.172.018-3.424-.392-.148-1.012-.061-2.308.161-3.372 1.017-.196 2.731.253 3.887-.126.453-1.34.492-2.778.898-4.074 1.295-.104 2.22.402 3.428.11m-85.476 3.232c-1.32 1.505-2.28 2.39-2.773 3.354-2.568 3.254-4.025 6.874-5.622 10.537.284.65.472 1.43.847 2.08 1.77-5.281 5.177-9.586 9.015-14.968z"/><path fill="#D1B881" d="M199.223 63.794c-.292.297-.475.663-.405 1.19.977.223 2.045 1.008 2.512 1.697l-1.845-2.163z"/><path fill="#9A3B26" d="M199.494 63.537c.489-.406 1.099-.75 1.391-1.335h.14c2.425 3.354 4.344 6.909 6.219 10.459l.703 1.893c-2.774.287-2.469-3.084-3.865-4.558-1.317-1.928-2.599-4.004-4.291-5.718z"/><path fill="#B3995D" d="M124.514 65.691c.101 1.623 1.64 3.28.354 4.815-.799-1.661-3.258-3.03-2.443-5.308.654.323 1.483.08 2.089.493"/><path fill="#9A3B26" d="M91.758 74.052c.659 1.797 1.043 3.738 1.701 5.491-1.443-1.147-2.242-2.948-3.223-4.47-.235-.598.04-1.243.502-1.662.414-.009.924.222 1.02.641m119.267 3.668c-.044.188.14.471-.135.563-1.766-.825-3.158-1.88-4.92-2.513-.283-.279-.654-.597-.702-1.011 2.36.021 4.631.841 5.757 2.961M90.262 78.736c.654 1.422 2.007 2.621 1.967 4.24-1.112-.27-2.276-1.601-2.608-2.718.188-.135-.23-.178-.23-.178-.145-1.012-1.261-1.985-.39-3.005.877.135.838 1.107 1.261 1.661"/><path fill="#773141" d="M200.262 87.882c.327.41-.179.881.38 1.247.248 2.548.497 5.461-1.156 7.502-.236-1.064-.432-2.547-.903-3.694-.855-3.698-3.651-6.69-3.677-10.616.083-1.439.489-2.87.899-4.27 1.871 3.145 2.451 6.739 4.457 9.831"/><path fill="#9A3B26" d="M212.823 83.538c-2.547.018-3.628-3.118-5.949-3.703-.231-.366-.881-.64-.745-1.107 2.638.628 5.704 2.093 6.694 4.81m-122.35-.968c-1.54 5.247-3.031 10.986-2.905 16.355-.118 3.289-.235 6.158.384 9.477.214 3.886 1.666 7.262 2.11 11.331-.745-.929-2.873-.671-2.468-2.254-1.138-4.388-.929-8.139-1.465-12.483l.087-.833.044.092s-.105-2.264-.066-3.236c.345-3.708-.283-8.33 1.078-12.36.44-2.6 1.26-5.104 2.12-7.555.235.502.75.868 1.077 1.466"/><path fill="#9A3B26" d="M212.321 85.126c1.134 3.602.933 8.177 1.928 11.736.013 1.806.392 3.79.035 5.504-.467-.649-1.483-.545-1.675-1.33-.262-4.667-.432-9.67-1.57-14.057-.105-1.565-.759-2.87-1.139-4.344.563 1.065 2.827.768 2.421 2.49"/><path fill="#000" d="M127.221 84.415c.28-.04.651.043 1.161.087.602.222 1.435.454 1.67 1.151-.553-.096-.741-.65-1.343-.64-1.068-.271-2.503-.59-3.472-.075-.187-.096-.095-.275-.095-.41.231.083.231-.187.322-.283.419.222 1.479-.057 1.758.17"/><path fill="#773141" d="m198.844 97.469-.231.235c.009 1.064.018 2.312-.349 3.332-.663-2.673-2.896-4.566-3.515-7.292-.153-2.172-.262-4.802.602-6.943 1.779 3.27 3.236 6.834 3.493 10.668"/><path fill="#B3995D" d="M149.479 98.25c-.554.418-.642.972-1.243 1.212-.607-.694-1.257-1.287-1.771-2.072.03-2.264.759-4.257 1.3-6.254l.318-1.344c.061 2.87.776 5.692 1.396 8.457"/><path fill="#1691FF" d="M85.344 98.097c-.654 1.26-.82 2.547-1.086 3.995.467.274.929.462 1.348.828.1-1.714.222-3.332.261-5.055z"/><path fill="#EFE8C7" d="M85.81 97.093c.022-.894.04-1.805.066-2.734-.92.968-1.98 2.085-2.203 3.485-1.047 2.503-.374 5.918-.867 8.421-.545 1.671.113 3.655-.475 5.417-.367.702-.964 1.535-1.84 1.679-.424-.645.645-.697.915-1.164.69-1.348.816-2.966.484-4.353l-.829 1.021c-.226.279-.37-.127-.602-.179.646-.698 1.287-1.396 1.653-2.233-.008-1.431.672-3.101.48-4.03-1.378 1.4-3.554 1.134-5.308 1.797.28.366.515.92.428 1.435-2.678 1.352-.763 4.025-1.304 6.25.1.785 1.068.453 1.535.911.004.794-1.016.196-1.43.48a14.2 14.2 0 0 0-.197 5.783c.183.039.231-.187.415-.283.047.096.187.139.14.274l1.94-.283c.048.087.235.179.144.318-.646.279-1.435.197-2.08.432.047.419-.454 1.483.427 1.431.51.274 1.204.776 1.025 1.474.419.501.833-.196 1.343-.057.327.467-.087.833.009 1.291-.833.606-1.19 1.858-2.26 1.357.11 2.682.45 4.95.467 7.684.415.227 1.017-.148 1.344.314-.231.419-.51.136-.742.323-.453 1.391-1.046 2.743-.894 4.361l.829-.196c.793.598.152 1.985.576 2.822.785-.419 1.609-1.073 2.019-1.91.92-.423.418.828.885 1.151.65.044.598-.837 1.104-.929.14.127.048.367.096.502.558.043.654.741 1.164 1.016.323-.096.366-.471.55-.698.187-.052.279.135.418.179l-.004-1.016c-.981-1.287 1.513-1.719.672-3.058.64-1.482-.201-2.734.065-4.261-.61-1.286-1.452-3.04-.86-4.479.738-.091.699 1.152.886 1.243-.105-1.71 1.095-2.639 1.592-4.078.14-.231.37.039.467.127l-.131 1.531h.091c.554-.467.598-1.065.406-1.667.092-.095.183-.231.323-.187l.1-.419a3 3 0 0 1-.196-.231c.593-1.67-1.68-1.797-1.871-3.271-.28-.458-.24-1.387.405-1.574-1.181-3.834-.88-7.393-1.321-11.235-.794-1.287.71-3.843-1.322-4.296-.327-.271-.37.096-.601.24-.014-1.754.122-3.843 1.23-5.3l.64-.628"/><path fill="#9A3B26" d="M89.256 123.807c1.322 1.147 3.162 1.618 4.597 2.791.049.149.236.231.144.419-.322.467-.972.24-1.386.196-1.257-.689-2.504-.911-3.346-2.154-.03-.205.149-.48.144-.707z"/><path fill="#EFE8C7" d="m154.11 106.087-1.212-1.108c.733-1.295-.017-2.861.345-4.3.262-2.268 1.034-4.353 1.204-6.67.628 3.791.75 8.466-.336 12.078"/><path fill="#773141" d="M197.809 102.384c.01 1.387.066 2.952-.666 4.165-1.736-3.459-4.488-7.096-3.079-11.222-.048-.227.087-.698.362-.925.623 2.861 3.502 4.88 3.384 7.982"/><path fill="#EFE8C7" d="M149.618 98.66c.053 1.02.428 1.848.528 2.869-.375-.741-1.535-1.191-1.448-2.028.279-.227.646-.646.92-.833"/><path fill="#9A3B26" d="M214.293 103.335c.925.514 1.025 1.618 1.169 2.59.004.231-.271.554-.131.742-.981-1.527-3.075-3.127-3.733-4.977l.091-.226c.881.545 2.225.723 2.604 1.871"/><path fill="#B3995D" d="M145.152 102.401c-.178.362-.641.602-.824.968-.004-.322.367-.833.314-1.334.279-.052.327.218.51.366m16.347 6.063c-.1-.101-.227-.205-.297-.288-1.064-.231-1.988.375-2.769 1.125-.318.554-.689 1.112-.637 1.806-.327-.694-1.025-1.383-1.448-2.124.271-1.431 1.697-2.504 1.919-3.852.458-.968.864-2.219 1.972-2.782.405 2.246 1.443 3.663 1.513 6.08z"/><path fill="#1D5C42" d="M160.967 108.847c-.179-.152-.375-.287-.593-.161-.785.092-1.57.698-1.845 1.439-.275.375-.087.833-.314 1.073.471 1.243 1.587 2.163 2.425 3.219.554-.554.318-1.252.589-1.993.444-1.038.588-2.059.562-3.075z"/><path fill="#773141" d="M196.638 106.784c-.637 1.671.528 3.241.401 4.994.053 1.2-.405 1.897-.584 3.014h-.092c-1.504-3.925-3.846-8.356-2.254-12.666.798 1.61 1.731 3.093 2.529 4.658"/><path fill="#000" d="M84.782 104.495c-.088.741-.406 1.858.34 2.268 0 .362.375.593.423.915-.092.096-.183.232-.323.149-.235-.327-.38-.838-.75-1.064-.131.789-.868 1.906-.074 2.503.187.414.423.877.331 1.335-.466-.271-.514-.877-.842-1.243-.091.283-.135.697-.41.837h-.14c.219-2.037.812-3.655 1.03-5.609l.183-.135c0 .096.14.044.231.044"/><path fill="#9A3B26" d="M214.315 106.989c-.144-.959-1.718-1.234-1.264-2.394.514.785 1.858 1.465 1.264 2.394"/><path fill="#1D5C42" d="M126.279 110.431c-.053-.79-1.671-.733-2.325-1.514-.833-.506-1.304-1.33-1.356-2.303 1.757-.331 3.153.864 5.002.519 1.431-.61 3.049-.754 4.667-.911-2.168 1.086-3.821 2.761-5.988 4.209"/><path fill="#EFE8C7" d="M150.7 108.651c-4.07.026-6.874 2.726-10.572 3.773-1.571.427-3.511.571-5.134.357.554-.466 1.06-.894 1.378-1.531.655-.51 2.185-1.234 2.185-1.234s3.79-.026 5.579-.392c1.705-.938 3.602-1.457 5.307-2.438z"/><path fill="#773141" d="m195.809 114.888-.183.135c.244 2.172.353 4.353-.563 6.211-.986-2.172-2.294-4.244-2.865-6.603-.057-1.754.907-3.11 1.635-4.593.707 1.527 1.317 3.241 1.976 4.85"/><path fill="#000" d="M160.112 111.089c-.646.833.61 1.71.292 2.504-.462-.232-.423-1.021-.798-1.475-.14-.375-.1-1.16.506-1.029"/><path fill="#B3995D" d="M133.236 113.021c.881-.24 1.941-.802 2.582-1.404-.828.654-1.47 1.531-2.582 1.404"/><path fill="#000" d="M82.25 113.771c-.135.646.057 1.527-.497 1.941-.096-.645.175-1.343.079-2.076.14-.187.414-.052.419.127m136.272.466c.052.929.937 1.618.667 2.591-.611-1.012-.986-2.172-1.409-3.236.458-.188.558.419.742.645"/><path fill="#EFE8C7" d="M146.481 115.041c-1.016.466-1.369 2.717-2.717 1.753l-1.016-.083c1.151-.606 2.486-1.287 3.733-1.67"/><path fill="#000" d="M83.376 116.113c.24 1.387-.999 3.066.768 4.166.091.283.375.597.096.876-.463-.366-.606-1.012-1.025-1.474-.27 1.16-.31 2.133-1.047 3.11-.092.231-.37.096-.506 0 1.745-1.815.615-4.719 1.714-6.678m75.797.589c-.462-.043-1.247-.043-1.666-.179l-.004-.231c.558.135 1.203-.009 1.67.41m-77.022 3.315c-.184.091-.232.227-.415.187-.004-.553-.196-1.661.45-1.858z"/><path fill="#9A3B26" d="M92.295 121.888c.096.471-.414.375-.64.563-1.715-.314-4.03-.663-4.463-2.792-.047-.187-.095-.418-.052-.65l.327-.187c1.806.724 3.297 2.011 4.828 3.066"/><path fill="#773141" d="M194.741 121.692c-.135 0-.227.187-.318.283l.008 1.483c-.841-1.43-2.198-3.271-1.469-5.077.562 1.056 1.081 2.351 1.779 3.311"/><path fill="#000" d="M167.987 120.065c-.41.785-.406 2.08-1.138 2.922l-.14-.279c.227-.323.41-.838.545-1.295-.004-.472-.148-1.527.733-1.348"/><path fill="#9A3B26" d="M77.816 122.211c-.044.375.004.794.423.929l1.016-.101c.005.689-.64.982-1.099 1.44-.37 0-.741.279-1.156.061-.331-.838-.109-2.133-.209-3.241.419.275.837.41 1.025.912"/><path fill="#000" d="M216.299 120.584c-.323.419-.733 1.025-1.291 1.169.183-.419.641-1.064 1.291-1.169m5.831.523c-.135.188.004.415-.227.375-.187-.327-.65-.514-.746-.837a.784.784 0 0 1 .973.462"/><path fill="#9A3B26" d="M189.585 157.394a10 10 0 0 1-.122-.401 1.3 1.3 0 0 1 .17-.249l1.125-.977c.345-.357.82-.649.96-.963l.091.087c.781-.694 1.331-1.535 1.972-2.508.671 2.482-2.085 3.009-3.598 4.278z"/><path fill="#1691FF" d="M190.51 157.163c.942-.807 2.177-1.413 3.058-2.137-.171 2.076-1.501 3.934-2.412 5.844-.393-.811-.951-1.832-1.361-2.887l.715-.811"/><path fill="#B3995D" d="M187.348 152.98a14 14 0 0 0-.885-1.888c1.339-.75 2.813-1.731 3.358-3.358-.078 2.08-.209 3.519-.938 5.325-.026.432-.418.733-.654 1.047l-.881-1.117"/><path fill="#1D5C42" d="M188.156 154.821c1.561-1.348 2.01-3.716 2.185-5.604.074-2.369-.17-4.719.645-6.996 1.134-3.712 4.357-6.599 4.841-10.576 1.217 3.092 2.447 7.017.293 10.031-1.549 3.716-.825 8.522-3.577 11.776l-2.071 2.01-1.108.951c-.179.153-.31.392-.362.58.288 1.797 1.317 3.323 2.019 4.985.65.083.323-.65.646-.929 1.879-2.743 2.965-6.219 2.76-9.364.349-3.245 3.433-5.944 3.271-9.503.362-1.44 1.601-2.556 2.569-3.673.681 5.596 1.278 11.645-1.282 16.892-1.413 3.485-4.126 5.997-6.049 9.198.754 2.216 2.298 4.431 3.467 6.647 3.699 6.551 8.134 12.718 11.183 19.496-.829.196-2.076.614-2.395 1.635-5.648-7.641-10.419-15.622-15.282-23.595.231-.366.558.135.645-.414l-.322-.232c-2.216 1.217-5.5 1.475-7.594-.274-2.595-.912-5.229-.245-7.824-1.108-2.412-.537-4.549-1.636-7.092-1.806-1.901-.68-3.807-1.496-5.111-3.389-.188-.366-.148-1.011.41-1.064 2.495-.436 4.309 1.352 6.9.929 2.403-.017 4.802-1.374 7.078-.187l2.687.536c2.787 2.155 5.626 4.266 9.189 4.292l.183-.323c-.662-1.941-1.413-3.834-2.307-5.674.048-.101-.698-1.2-.933-1.662-1.034-2.128-3.206-1.976-5.016-2.468-1.016-.275-2.032-.035-3.009-.297-2.865.567-5.539 1.923-8.636 2.128-2.73.066-5.831.546-7.327-2.35-.283-.698-.889-1.243-.937-1.985 4.352.938 9.163.358 13.228-.597 1.439.357 3.053-.437 4.444.069 1.483.585 2.922 1.361 4.501 1.863.829-.279.083-1.021-.013-1.483-.419-.916-1.165-1.658-1.679-2.486-2.534 1.544-6.285.92-9.011 1.212-3.664-1.356-7.471-3.144-11.723-2.233-1.017.144-2.264.798-3.097.057 1.012-.925 1.417-2.408 2.983-2.416 2.172-.938 4.492.288 6.808.231 2.403-.428 4.401.942 6.66.004l2.682-.567c.79.314 1.257 1.139 1.998 1.317l.092-.082c.37.322 1.068.409 1.574.222.231-.24-.096-.554-.327-.65-1.71.375-2.647-1.182-3.576-2.154-.192-.646.501-1.021.824-1.44.231.188.419.598.881.367 1.108-.563 1.252.636 2.272.628.606.785 1.073 1.474 1.771 2.167.092.144.227-.043.318-.096-.187-.824-1.068-1.517-1.583-2.071-.606-.969-.384-2.451.305-3.328-.423-.419.358-.885.594-1.16.915-.842 2.124-.153 3.231-.628.009 1.574.711 3.192.585 4.675-.275.825-1.195 1.344-1.374 2.273.092.043.187.222.323.139.872-.981 2.023-1.919 1.552-3.432-.75-1.296.027-2.779-.58-4.074 1.954-5.425-1.749-13.18 3.633-17.515l1.152-1.073c.532 3.842-.829 8.151-.663 12.181-.07 3.563-.223 7.589.209 11.144a6.2 6.2 0 0 1-2.695 5.525c-.506.14-.92.472-1.335.742.149.894.628 1.67 1.029 2.499l1.265 1.566"/><path fill="#000" d="M217.735 121.09c-.083 1.012.619 2.119-.21 2.817l-.017-2.817z"/><path fill="#9A3B26" d="m90.541 122.743.196 1.47a2.8 2.8 0 0 1-1.578-1.139l-.009-.837c.559-.092.885.462 1.391.506"/><path fill="#773141" d="M194.211 125.962c-.044.135-.091-.376-.371-.24-.134.331-.038.981.01 1.395-.842-1.334-2.15-3.371-.912-4.989.842 1.003 1.36 2.438 1.273 3.834"/><path fill="#000" d="M82.413 124.924c.191 1.103.71 2.067 1.177 2.987l-.231.284c-.698-.921-1.03-2.124-1.36-3.271-.276.414-.363 1.243-1.013 1.112.458-.698.825-1.352 1.1-2.094.601.092.095.698.326.982m132.014.065c.463-.231.969-.877 1.475-.977-.227.51-.824 1.073-1.474.977"/><path fill="#B3995D" d="M126.494 130.358c.449.715 1.042 1.609 2.006 1.439 4.794-2.761 8.283-7.327 12.282-11.331.279.135.558.231.837.419 2.966.619 5.474 2.595 8.353 3.594 3.698.257 6.965-2.351 9.773-4.641 1.017-.231 1.719.96 2.369 1.609.052.367.933.772.148 1.056-.885-.545-1.984.017-2.918-.161-.554.008-.737.697-.641 1.116.332 1.496 1.291 2.783 2.495 3.764l-.602.401-1.535.314c-2.639-.17-5.33-1.169-7.925-1.941-.65-.41-1.439-.545-2.181-.811-2.451-.126-5.185-.475-7.401.179-.183.51-.039 1.252.244 1.762 2.277 1.74 4.872 2.556 7.197 4.117 2.603 1.745 4.906-.078 7.397-.698l4.858-.122c.506-.048 1.156.044 1.666.223 1.575.331 3.184-.009 4.27-.921l1.247 1.243c-.54-.244-1.212.018-1.954.027-.876.231-2.22.143-3.048.436-.602.322-1.387.187-1.941.562-2.774.572-4.706 2.621-7.619 2.826-2.033.332-3.939-1.038-5.923-.061.105 1.714 1.313 2.77 2.525 3.825 1.766 1.248 4.584.855 6.246-.03l.091.039c.641-.44 1.278-.885 2.037-1.099l-.222 1.034c-1.649 2.595-4.288 3.873-7.201 4.121-.742.053-1.339.707-2.081.436.04-1.295.214-3.101-.213-4.261-.371-.126-.833-.41-1.248-.17-1.247-.597-2.307.061-3.511.436.376.646.057 1.754-.03 2.587-1.151.562-2.312-.022-3.511.536-.044.554-.362 1.069-.222 1.57-.41 1.208-.214 2.691.026 3.755.37.367.833-.1 1.247.17.558.044.881-.091 1.295.088-.17 2.263-.292 4.344-.279 6.472 1.666.454 3.428.493 4.998.384.493-1.893.393-3.925.567-5.731l3.555-.72c.593-.654.214-2.137.305-2.918l.184-.231c1.666.358 3.332.027 4.902-.126-1.152.933-2.486 1.727-3.638 2.521l.327.698c.559.449 1.44.492 2.085.213l.092.092c.833-.196 1.43-.615 2.263-.615-.318.829-1.195 1.16-1.513 1.997.471 1.104 1.945.729 2.918.672 1.753-.606 4.113-.715 5.827-.305 2.551.807 4.453 1.26 6.864 2.399-1.291.519-2.311.519-3.65.676-2.822.379-5.827.126-8.422-.454l-.188.179c.105 1.387 1.174 2.634 2.015 3.833 1.675 1.697 3.62 1.501 5.792 1.348 1.387.066 2.731-.214 4.065-.589l.105.807a3.5 3.5 0 0 0 0 .768c1.71.222 3.659.58 5.412.292.319-.837.314-1.989.306-3.101.322-.515.972.039 1.387-.148 2.089.767 4.95-.17 5.848 2.556-1.57.981-2.948 2.054-4.562 2.939l.092.044c.074-.026.152-.053.227-.096l-.794.087c-1.047-.589-2.176-.99-3.511-.938-1.81-.68-4.213-.109-6.014.179-2.958.894-5.286-1.491-8.056-.785-.414.24-.645.606-.593 1.117 1.692 3.262 5.321 3.851 8.675 4.719l-.515.148c-1.753.611-3.554 1.182-5.439 1.505-5.547.357-11.422 1.177-16.835 1.356l-.322-.231c.41-.794 1.007-1.531.998-2.504-.37-.187-.51-.828-1.02-.597-1.243.929-1.88 2.599-3.215 3.35-.649-.275-1.391-.358-2.084-.537.549-1.025 2.856-1.775 1.779-3.206-.091-.144-.366 0-.458-.135-.414-.043-.833 0-1.016.51-1.335.52-1.884 1.732-2.988 2.521-.139.188-.418-.091-.51-.178-7.462-1.335-14.009-5.007-20.512-8.797-1.02-.502-.1-1.161-.287-1.985-.703-1.252-1.671-.366-2.504-.318-.737.562-1.252-.585-1.762-.912.227-.322.554-.322.781-.645a2.22 2.22 0 0 0-.1-1.527c-1.348-.501-2.827-.305-4.078-.44-.785-.964-1.81-1.788-2.696-2.669l-.091.096-.563-.825c2.211-2.189 4.741-4.296 6.756-6.612.109 2.539-.057 4.667-.039 7.214l.37.41c1.204-.24 2.962-.017 4.166-.34.444-1.91.388-3.572.697-5.522.877-.789 2.36.035 3.472-.244l.057-5.609c-.794-1.099-3.42.947-2.927-1.36 1.976-2.055 4.741-4.013 6.486-6.294.641-.65-.519-1.151-.615-1.749.109-.1.209-.196.305-.305l.432.741"/><path fill="#EFE8C7" d="M126.305 129.342c.149-.153.306-.306.511-.45-.144-.649-.706-1.43-1.265-1.984-.645.048-1.103 1.073-1.705.663-.654-.794-.846-1.985-.528-2.966 1.344.131 2.504.864 3.346 2.063.471 1.527 2.189 2.761 1.783 4.479.14-.008.232-.187.323-.279.083-1.901-1.361-3.144-2.019-4.71-.702-1.204-2.094-1.653-3.206-1.967 3.084-2.796 5.98-5.64 8.972-8.479 1.439 1.047 2.734.955 4.313 1.636-.139.139-.371.283-.414.51-.227.702-.04 1.295.61 1.714 1.204.17 2.408.305 3.433.894-2.944 3.219-6.023 6.433-9.198 9.225-1.104.793-1.976 1.775-3.319 1.687-.45-.239-.842-.623-1.152-1.046z"/><path fill="#1D5C42" d="M159.06 138.187c-1.12 2.773-4.261 4.23-7.074 4.562-.558.231-1.16.187-1.666.562.519 1.069 1.675 1.099 2.417 1.509 2.874.306 6.153.009 8.081-2.412 1.845-1.26 4.013-2.664 4.645-4.932-1.919.24-4.012 0-6.023-.04l-.379.751"/><path fill="#1D5C42" d="M144.575 104.765c.68.018 1.217.336 1.937.026.322-.187.828-.331.732-.833-.837-1.108-1.535-1.705-2.608-2.665l-.227.28c-.623 4.073-4.719 7.427-8.177 9.25-3.132 2.429-7.986 3.341-11.514 1.278 2.302-1.636 4.788-3.585 7.231-5.221 2.351-1.216 5.452-1.055 7.288-3.197-.554-.226-1.156.053-1.758.053-.275 0-.645.375-.877.008l.044-.043c-2.586.846-5.312 1.426-8.13 1.766-1.391.009-2.22-.589-3.567-.715-2.368-.82-4.506-2.198-6.551-3.851 1.932-1.579 4.623-.301 6.664.1 2.783.859 4.667-1.19 7.07-1.85 3.092-.527 6.808 1.069 9.246-.85l-.091-.043.274-.375c-.471-1.474-1.731-3.084-3.035-4.14-.65-.134-1.391-.41-1.989-.034-3.646 1.74-6.991 5.783-11.497 3.637-2.638-.213-4.732-1.727-6.686-3.515-1.025-1.474-1.914-3-2.848-4.514l.323-.148c2.312.4 4.353 1.544 6.442 2.6 3.851 2.01 6.385-.41 9.578-.616.924-.196 2.263-.244 2.49-1.269l-1.679-1.932c-1.945-.035-3.319 1.736-5.264 1.976-2.766 1.038-5.413-1.33-7.825-2.002-2.543.008-5.046-.18-7.506-1.134-2.778-.358-3.676-3.302-5.356-5.142-.187-.328-.741-.463-.837-.838 1.71-.423 3.105.58 4.588 1.043 1.623.96 3.755.902 5.653.977 3.192.122 4.967 3.11 8.112 3.28.597-.563.929.41 1.483.313.885.506 1.762.223 2.778.402.187-.01.323-.288.139-.423-1.482.1-3.009.065-4.173-1.222-.65-.732-.375-1.661-.428-2.586.824-1.256 2.726-.384 4.017-.445 1.483.358 1.954 1.932 2.839 2.853.231 0 .188.274.419.043-.144-.554-.794-.824-1.025-1.378a3.9 3.9 0 0 0-1.788-1.544l-.231-.929c-.816-2.879-2.643-5.382-4.431-7.759-.602-.222-.969.51-1.523.615-3.122 3.943-8.452 2.503-12.53 1.557-2.599-1.278-5.229-.153-8.103-.785.506-.645 1.426-1.387 2.163-2.002 1.016-.144 2.076-1.164 3.053-.432.227-.23-.052-.418-.144-.553 1.291-.607 2.769-1.043 4.161-.956-1.531-.493-3.241.162-4.58.777-2.002-1.885-1.836-4.807-4.065-6.46-.466-.457-1.395-1.003-1.077-1.744 4.305-.035 6.185 4.584 9.438 6.695 1.627 1.003 3.751.802 5.696 1.02 2.085.358 3.987 1.27 6.071 1.4.511.083.694-.47.598-.794-.659-1.565-1.592-3.135-3.036-4.139-1.666-.314-3.153-1.046-4.819-1.225-3.886.074-7.454-.598-10.201-3.17-1.165-1.1-2.373-2.395-3.542-3.725-.789-.458-1.483-1.095-2.137-1.88-.096-.323-.563-.69-.284-1.017 1.854 1.1 3.625 2.377 5.526 3.289 1.714.733 3.708.864 5.518 1.5 2.913-.07 4.915 2.09 7.24 3.511l.833.083c.322-.227.366-.51.366-.833-1.217-2.207-2.713-4.235-3.79-6.498-2.085-.31-4.353-.249-6.254-.93-3.428-.623-6.268-3.34-7.816-6.476-1.413-4.157-3.842-7.833-6.55-11.431l.09-.092c.978.868 2.552.816 3.486 1.967.942 3.136 2.813 6.185 5.743 8.152.646.322 1.392.588 1.675 1.373 2.046 2.076 4.462 3.49 7.24 3.89.419 0 .794.965 1.112.223-1.029-1.84-3.253-2.385-4.788-3.537 0 0-.188-.227-.323-.179l-4.78-2.093c-4.79-3.254-5.749-8.989-7.31-13.887.558.506 1.213.92 1.68 1.57.23.135-.184.593.23.314 2.19 2.072 1.75 5.4 3.982 7.563 1.487 1.518 3.568 1.509 5.426 2.233.789.645 1.814 1.518 2.922 1.143-.017-2.5-2.708-4.192-4.475-5.574-1.954-1.649-2.525-4.375-4.344-6.355-1.409-1.888-4.008-3.432-4.427-5.8l.716-.594c1.426.951 2.909 2.05 4.152 3.202 1.858 1.37 4.361 2.145 5.395 4.405.946 3.319 3.506 6.036 4.453 9.368 1.029 1.33.017 2.822.353 4.252.14.367.331 1.243.837 1.004-.139-.314-.235-.594-.418-.825.074-2.403-.031-4.531-1.2-6.612-3.223-4.461-1.5-9.7-2.595-14.88-.139-.18-.139-.271-.004-.511 3.729 4.422 5.753 9.778 6.254 15.461.995 3.507-1.622 7.188.759 10.18.231.322.284 1.199.746 1.055-1.217-2.582.663-4.719 1.02-7.078.253-3.987-.287-8.475-2.158-11.977-.005-.462.597-.462.92-.331 2.7 1.975 4.104 4.88 4.867 7.972.284 1.296.894 2.683.807 4.209-.85 3.288-2.778 5.849-3.965 8.95-.907 2.516 1.187 4.117 1.797 6.154.188.361.005.78.192 1.011.72-3.192 1.758-7.043-.022-10.275.175-1.291 1.326-2.408 1.736-3.755 2.896 4.326 2.242 10.672.096 14.994-.82 2.451 1.645 3.873 2.626 5.766l.602-.009c.458-.645.732-1.347.728-2.172-1.034-2.59-1.378-5.22-.746-8.186.724-2.464-.68-4.628-.096-7.079.886.69 1.169 1.885 1.919 2.761 1.915 3.04 1.989 7.624 1.317 11.048-.728 1.762-.388 3.934-1.814 5.425-.27 1.252.942 2.268 1.365 3.415l.415.179.117 3.384c.096.92 1.531.816 1.03 2.028.235.415.837.637 1.251.406-.885-1.243-.392-3.424-.54-4.854l-.28-.231c.197 1.661-.301 3.245.45 4.67l-.14.145c-.837-.419-.336-1.758-1.448-2.08-.009-1.056-.34-2.539-.113-3.468.27-.833 1.243-1.117 1.932-1.44 3.341 1.27.349 3.887.689 6.059l.183-.009c.044-.275.227-.65.135-.877 1.23-2.787 1.531-6.346.628-9.259-.104-2.447-3.075-3.956-2.119-6.647.083-.78.03-1.67.397-2.368l2.185 1.653c4.278 3.262 3.99 8.954 4.16 13.577.201 2.547-1.129 4.636-2.22 6.773.009 1.985.764 4.157 2.617 4.88.602-.09-.144-.5.415-.688.719-3.014 1.391-6.438.584-9.626.065-4.07-1.304-8.321-.222-12.591.453-2.033-.532-3.738-.445-5.596.458.188.876.69 1.16 1.108 3.275 5.757 4.113 13.485 3.69 19.875-.118 3.236-1.671 5.883-3.001 8.579.611 1.609 2.146 2.852 2.944 4.418.558.597.846 1.893 2.002 1.705.999-2.84-.777-5.23-.794-7.916-.846-2.538.384-5.648.458-8.047-.297-2.778.192-6.433-.471-8.74.183-.105.279.127.462.083 2.286 2.438 2.722 5.674 3.895 8.622-.065 3.843.515 7.777-.571 11.672-.541 1.993-1.317 4.173-1.304 6.062l4.383 4.976.231-.144c-.349-3.742-1.71-6.882-1.967-10.58-.898-3.738 1.208-6.63 1.186-10.333.035-1.609-.807-2.948-.863-4.43 1.958 2.437 3.689 5.067 4.261 8.16 1.051 4.762 1.177 10.31-.319 15.085-.497 1.579.393 3.424-.431 4.907.606.51.837.877 1.491 1.474-.139.096-.043.275-.091.419.187.091.279-.096.322-.144 1.322-3.476 1.623-7.275.951-11.017-.192-.833-.432-2.076.166-2.826h-.092c-.61-1.422.026-2.778-.03-4.484.68-2.22 1.5-4.4 2.782-6.258l.188.314c-.148 5.931 2.482 12.063 1.082 17.48-.393 3.154-1.954 5.988-3.367 8.867.375.829 1.116 1.57 1.683 2.207l.092-.092c.558 1.431 1.775 2.53 2.795 3.729.415 0 .554-.231.829-.466.401-2.09 1.13-4.03.933-6.023.026-3.093-2.49-5.949-1.121-9.055-.296-2.734.703-5.931.681-8.853.418.418.61.876.937 1.347 1.27 3.363 1.754 7.061 2.705 10.52 1.051 5.273 2.15 10.725-2.033 14.872.188.41.236.921.471 1.339.144.921 1.073 1.754 1.453 2.717.322.323.606.969 1.068 1.056-.004-.689-.933-1.243-.846-2.12.641-1.391.58-3.101 2.242-3.947.37-.091.924-.187 1.247.087a17.4 17.4 0 0 0-.475 5.095c1.073 1.565-1.37 2.315-.899 3.746.545-1.343 1.928-2.229 1.501-3.842-.567-2.273.619-4.497.187-6.939-2.442-5.819 4.056-9.705 6.76-13.931.977 1.985 1.278 4.711.785 6.891-1.496 5.326-2.381 10.93-4.898 15.854-.588 1.574-2.062 2.835-2.285 4.505l2.844 3.263c.322-.092.558.418.833-.009.022-3.236 1.347-6.206 2.019-9.268.384-4.854.445-10.127 4.911-13.451.284 1.025.432 2.216.253 3.332-1.304 6.115 1.099 12.906-3.214 18.026-.689.973-1.235 2.181-2.294 2.743-.319.511.148.921.239 1.431.511.646.977 1.566 1.261 2.307 1.295-.196 1.609-1.491 2.255-2.416 2.146-3.912 2.8-10.345 8.583-10.89l.283.213c-1.748 2.286-2.425 5.282-1.988 8.357-1.649 2.787-4.27 5.164-7.367 5.835.279.223.144.689.192 1.056.563.92 1.125 2.08 1.915 2.717.654 1.247-.724 2.464-.21 3.707-.553-.27-1.02-.597-1.666-.597-.519-1.191-1.26-2.351-2.289-3.219-1.069-1.339-2.639-.401-3.838-.07-3.455 2.15-6.817 4.859-10.882 5.809-2.264.48-4.388 1.562-6.699 1.571-.231-.044-.558-.275-.511-.502 5.3-3.136 9.801-8.444 16.085-9.687 1.156-.187 2.451.035 3.42-.527-.188-.785-.842-1.339-1.121-2.072h-.327l.004.231c-2.259 1.313-5.037 1.33-7.72 1.671-2.398.75-5.373-.938-7.58.876-1.797.707-3.969 1.091-5.923.358-1.112-.868-3.013-1.876-2.747-3.494.51-.091.972-.144 1.474-.248 2.878 1.007 6.25.384 8.74-1.208 1.889-1.073 4.013-1.736 6.093-2.068 1.509.162 2.73-.562 4.296-.301l-1.57-1.779c-1.212.554-2.429 1.177-3.838 1.02-1.81-.824-4.117.114-6.39-.287-2.542.161-4.793 2.35-7.253 1.208-2.233-1.422-4.601-2.469-6.873-3.703-.65-.419-1.396-1.06-1.309-1.893.738-.794 2.264-.288 3.053-.436 4.161-.576 7.179 1.714 10.843 2.346 1.557.227 3.48.79 4.954.17l1.034-.266c.611.437 1.265.812 1.928 1.099.048-.082.091-.231.183-.322.829-.135 1.662-.009 2.499-.436l-.004-.179c-.881-.367-1.849.427-2.914.301-2.224-.733-3.951-2.992-4.291-5.251.693-.332 1.574-.341 2.407-.341 1.06.088 1.758.685 2.412 1.509.279.554 1.025 1.243.519 1.797-.606-.501-1.435-.724-2.181-.724 1.021.419 1.95 1.008 2.883 1.832 0-.043.044-.135.135-.087.14-.183-.139-.55.275-.602-.606-1.064-.985-2.351-2.054-3.136.092-.187.231 0 .371 0-.188-.419-.192-1.16-.794-1.16-.563-.733-1.261-1.326-1.91-2.059-.511-.187-1.021-.462-1.575-.178-2.987 2.521-6.581 5.46-10.663 4.139-2.971-1.876-6.307-2.966-9.6-4.096-.837-.231-1.762-.179-2.503-.641-.327-.501-.101-1.151.401-1.43 3.323-1.592 6.616.052 10.088.117 3.197.716 6.904 1.339 9.909.685.506-.336 1.57-.292 1.518-1.034-.598.284-1.243.511-1.845.794-1.112-.087-2.818.528-3.655-.152-.371-.794-.885-1.571-.663-2.5.781-1.02 1.98-1.635 3.323-1.36.048.091.236.187.144.314 1.017.322 1.898.964 2.691 1.749-.043-.096.092-.14.136-.231-.096-.367-.419-.463-.655-.733-.602-.419-1.478-.554-1.762-1.204l-.558-.737c-.266-.275-.737-.471-1.112-.536-1.854.004-3.245-.768-4.998.021-2.399 1.553-5.029 2.582-7.563 3.799-1.666.009-3.24-.109-4.811.445-2.272-.536-4.544-1.125-6.354-2.547 2.211-1.492 4.802-1.047 7.349-1.199 3.742-.537 6.873-2.726 10.384-3.913.877-.144 1.898-.1 2.731-.34-.375-.785-1.073-1.422-1.684-2.163-1.435-.223-2.394 1.217-3.738 1.413-1.932 1.448-3.646 1.082-5.822 1.234-.414-.083-.737.428-1.064.009l1.565-1.252c.873-.929 1.749-1.727 2.482-2.699.118-.271.253-.554.414-.833l.977.039"/><path fill="#EFE8C7" d="M143.77 104.442c.444-.715 1.011-1.387 1.618-1.823.606.471 1.068.877 1.443 1.474l-.323.284c-.654.414-1.369-.017-1.997-.026z"/><path fill="#9A3B26" d="M86.918 127.152c.008 1.252.2 2.591-.629 3.52-.51-.681-.75-1.893-.846-2.582.183.231.28.554.559.65 1.06-.615.357-2.181 1.23-3.027.187.51-.227.981-.314 1.439"/><path fill="#000" d="M220.59 125.695c.188.733.655 1.431.615 2.172-.606-.226-.658-1.155-.846-1.805-.048-.179-.004-.458.231-.367"/><path fill="#9A3B26" d="M92.613 127.767c1.929 5.077 4.877 9.778 7.633 14.388l.092-.095 2.804 3.92c.188.554-.689.929-1.012 1.387-4.941-6.114-8.736-13.175-11.374-20.468.65.135 1.252.637 1.858.868"/><path fill="#773141" d="M193.448 129.198c-.745-.681-1.26-1.745-.898-2.905l.14-.052c.375.929 1.4 1.936.759 2.957m-68.541-1.361.507-.419.933 1.335c-.366.275-1.243.794-1.007 1.391.235.51 1.116 1.108.336 1.662-5.936 5.364-11.501 10.629-17.202 16.447-3.45 2.848-6.995 6.058-10.445 8.901-.38-1.243-.99-2.394-1.09-3.737 1.888-1.492 3.262-3.629 5.29-5.029 6.11-7.079 13.285-13.782 19.761-20.861l.314-.17c.969.323 1.636 1.457 2.6.48"/><path fill="#000" d="M217.957 126.821c.096.554.244 1.387-.266 1.805l-.148-1.984c.135-.009.275.044.414.179m-2.076.99c-.366.144-.597.51-1.012.375.367-.554 1.012-.702 1.47-1.117.375.179-.27.593-.458.742m-132.063 6.625-.183.144c-.332-1.252-.615-2.212-1.086-3.415-.463.135-.506.689-.733 1.025l.057 1.888h-.14c-.937-1.88 1.278-3.11.942-5.05-.636 2.002 1.13 3.423 1.143 5.408"/><path fill="#773141" d="M193.328 131.653c-.419.048-.838-.589-1.117-.911-.283-.554-.148-1.348.17-1.858.886.741 1.213 1.565.947 2.769"/><path fill="#000" d="M217.61 130.388c-.274.921.293 2.177-.305 2.914l-.139-.135c-.004-.877-.201-2.225.444-2.779"/><path fill="#773141" d="M193.057 132.809c-.23.323-.226.741-.317 1.064-.096-.501-.192-1.287-.153-1.888.462 0 .331.554.47.824"/><path fill="#000" d="m215.823 132.988-.833.008c.415-.322 1.108-.383 1.474-.937.28.462-.318.741-.641.929"/><path fill="#B3995D" d="M184.632 139.761c-1.527.061-2.914.109-3.738 1.278-.231-.135-.236-.698-.606-.742-.419-.597-.702-1.286-1.169-1.892.554-.375-.284-.594-.192-1.012 1.339-.375 2.861-1.038 3.921-2.102 1.012-.703 1.976-1.867 2.708-2.94.066 2.735.498 5.094-.924 7.41"/><path fill="#000" d="M83.097 137.493c-.048.052-.091.105-.183.105-.375-.323-.192-.929-.61-1.16-.323.471-.594 1.16-1.056 1.4.593-1.16 1.605-2.286 1.317-3.76l.319-.833c-.04 1.2-.629 2.962.213 4.248m134.078-3.031c0 .419.097.92-.178 1.348h-.231c.135-.419-.005-1.065.41-1.348"/><path fill="#B3995D" d="M173.186 137.197c-1.291.331-2.914-.079-4.069.671-1.431.009-2.765 1.221-4.244 1.605.366-.65 1.008-1.304 1.003-1.997.602-.332 1.575-.057 2.312-.245 1.622-.008 3.005-.623 4.435-1.142z"/><path fill="#9A3B26" d="m204.191 137.877-.091.096c.75 1.147.942 2.538.628 3.834-.044.187-.231.322-.414.235-.751-1.522-.72-3.559-.729-5.312.371.27.559.733.606 1.147m-125.856.257.2 2.63c1.02.087 1.94-.977 2.534-1.823.284.785.659 1.662.017 2.412-.505.65-1.29.794-1.888 1.26-.79 0-1.151.886-1.893 1.169-.192-1.57-.07-3.977.288-5.648.231 0 .506-.375.742-.008m41.655 1.312c.925.127 1.802-.24 2.403.074l-.061 5.086c-1.151.384-2.778-.851-3.559.445.057 1.474-.344 3.655-.567 5.325q-1.941.15-3.746.161c-.061-2.311.105-5.137.14-7.405l-.096-.092 4.967-4.754c.279.367-.27 1.073.519 1.16m99.724 1.627v.044c-.881-.829-1.309-2.072-1.684-3.232.563 1.064 2.787 1.928 1.684 3.188m-70.995-1.993c.244 1.662.022 2.913.122 4.436.096.178.327.139.51.139.829-.471.929.772 1.671 1.003l.833.223c-.083 1.155.196 2.128-.253 3.101-1.344.056-2.408.205-3.651.671-.083 1.858-.07 3.707-.288 5.596-1.387.196-2.73.017-4.169-.153-.24-1.897.065-4.444.283-6.568l-.187-.135-2.543-.079c-.288-1.618-.301-3.567.292-4.998 1.156-.105 2.172.118 3.236-.205l.184-.144.309-2.682c1.152-.702 2.312-.113 3.651-.205m53.117-.488c.388 2.171 1.98 5.451-.37 7.087-.197-1.806-.07-3.891-.589-5.687-.284-.607.357-1.579.959-1.4"/><path fill="#000" d="M214.746 138.413c-.227.694-.453 1.483-1.142 1.858.27-.645.684-1.439 1.142-1.858"/><path fill="#EFE8C7" d="M84.864 145.819c-.92 1.112.11 2.817-.811 3.838.14.188-.183.375-.227.606l.096.044c-.096 0-.14.052-.188.091-.096-.593-1.203-.501-.841-1.325-1.252-1.243-.384-2.779-.532-4.305l-.232-.271c-.458.742-.035 1.85-.632 2.495.144.92-.685 1.671-.772 2.6.79.082.55-1.117 1.008-1.575.235.406.61 1.2.846 1.836-.367.702-.314 1.527-.633 2.225l-.606-.554c-.737.519-.362 1.535-.493 2.137-.645.794-.72 2.499-2.298 1.954-.184.1-.463.1-.598.331.096.689.785.044 1.104.179.51.083.924-.196 1.295-.427.092-.28.502-.833.776-1.252.284.597.38 1.526 1.17 1.705-.271 1.387-.027 2.818-.297 4.257.192 1.16-1.837 1.858-1.645 3.205-.37.136-.039.554-.366.742-.332-1.151-.659-2.312-.667-3.607 1.007-.977 2.015-2.416 1.456-3.995-.785.292-.872 1.26-1.705 1.356-.183-.274-.28-.732-.698-.732-.366.135-.179.554-.41.833-.331-.742-.152-1.845.17-2.587 1.195-.562 1.004-2.233 1.784-3.118.083-.837.637-1.714-.153-2.08-.287-1.431-.575-2.861-1.277-4.157-.51-.083-.646.375-.92.707.082-.79-.616-2.129.213-2.87l1.19-1.169.14.188c.829-.467 1.802-.851 2.351-1.592.375.689.61 1.618.755 2.494.14.14.462-.048.51-.279-.1-.929-.615-1.893-.807-2.913.554-.092.641-.698.824-1.064.663 2.119.768 4.113 2.124 6.049"/><path fill="#9A3B26" d="M85.13 144.336c.096.227.096.646.008.929-.937-1.618-1.273-3.467-1.7-5.264.327.27.697 1.003 1.16.501l.322-.331.092.092.222-.419c-.261 1.391-.806 2.966-.104 4.492"/><path fill="#EFE8C7" d="M82.185 140.001c-.044.144-.091.279-.183.331v-.322z"/><path fill="#000" d="M215.13 140.171a7.3 7.3 0 0 1-1.099 1.806c-.144-.689.637-1.392 1.099-1.806"/><path fill="#B3995D" d="M176.454 141.763c-.646.043-1.296-.179-2.081.24-.183 0-.554.008-.828.196-.136.824-.218 2.12-.306 3.236-1.387.1-2.821.018-4.064.763l.004.929c-2.216.336-3.89-.575-6.019-.475.462-.323 1.204-.331 1.662-.842 1.888-.885 3.598-1.919 5.347-3.044.645-.279 1.243-1.073 2.076-1.26 1.06-.602 1.797-1.165 3.049-.851.37.458.837.637 1.16 1.108"/><path fill="#9A3B26" d="M177.669 143.416c-.689.645-2.259 1.313-1.744 2.556.096.226.419.414.423.689-2.085.017-4.479 1.413-6.66.458-.144-.511.083-1.104.733-1.113 1.064-.008 2.22-.292 3.144-.061.641-1.26.266-2.036.489-3.34 1.112-.009 3.415-1.361 3.615.811"/><path fill="#000" d="M182.685 146.438h-.183c-.1-.785.078-2.084.488-2.734-.087.794-.078 1.993-.305 2.734m30.622-2.002c-.65.24-1.431.886-2.081.428 0-.179.231-.096.323-.096v.096c.554.043 1.108-.471 1.758-.428"/><path fill="#9A3B26" d="M78.208 146.966c.283 1.295.846 2.403 1.042 3.751.785.358.144 1.335.105 1.984-.419.227-.968.742-1.435.423-.009-1.805.07-3.654-.45-5.273.136-.414.367-.654.738-.885"/><path fill="#773141" d="m93.81 148.536 2.02 4.383c-1.2.838-2.491 1.588-3.455 2.704.004.227-.367.415-.087.646-.044.096-.184.096-.28.096-1.395-1.614-5.015-2.883-4.195-5.478.68-1.766 2.337-3.297 4.139-3.681.876-.1 1.347.733 1.858 1.33"/><path fill="#000" d="M181.581 147.367c-.462.188-1.16-.41-1.805-.305l-.005-.323c.602.218 1.392.17 1.81.637"/><path fill="#9A3B26" d="M83.6 150.913c-.175 1.387-.58 3.245-1.173 4.776h-.14a5.5 5.5 0 0 1-.85-3.184c.51.314 1.016-.105 1.151-.563l.314-1.626c.323.043.419.418.698.597"/><path fill="#EFE8C7" d="M106.329 152.758c-.135.366-.178.741-.409 1.108.004.471-.362.885-.314 1.304.191.785-.685 1.483-.402 2.172.524 2.307 3.773 4.004 2.447 6.559.004.554-.131 1.566.201 2.172-.371.502-.742.096-1.113.188-1.334 1.073-.863 2.368-.484 3.746.249 2.831-2.377 4.698-1.203 7.423-.729 1.566.021 3.049.035 4.759-.275.514-1.108.606-1.152 1.304.798 1.984-1.034 3.799-.611 5.923-1.652 1.308.764 3.192-.981 4.496-.043.785.1 1.566.013 2.264-.558-.458-.475-2.033-1.491-1.47.096.654.148 1.291.104 1.897-.274.135-.65-.41-.924.009-.127 1.566.802 2.673 1.413 3.921l.414-.188c.1.737.288 1.522-.122 2.264l-.506.467.092.095c-.463.188-.467-.689-1.021-.732-.51.043-.414.187-.645.606-.227.458.056 1.295.104 1.797-.23-.179-.51.009-.693.196-1.117-1.108.82-2.464-.436-3.332-.28-.092-.371.188-.65.096-.37-.598.04-1.247-.702-1.662 1.247-.187 1.653-1.535 1.927-2.508-.096-.601.131-1.208-.196-1.762.69-.51 1.099-1.439 1.514-2.18-.048-.188-.144-.458-.376-.51a33 33 0 0 0-1.373 2.512c-.463.096-.598.606-.916.929-.1-.825-.794-1.379-1.03-2.172.969-.323 1.427-1.536 2.251-1.911.964-.885.959-2.22.903-3.423-.702-1.012-1.43.562-2.264.615-.004-.785 1.47-2.137.305-2.779-.601 0-.737.607-1.242.847.043-.742-.284-1.296-.568-1.902l-.318-.083c.41-.794.305-1.858 1.365-2.285.092-.419.737-.689.502-1.16-.641-.127-.641.75-1.051 1.116l-.781.563c-.148-1.064-.157-2.216.065-3.328-.008-1.527-.248-3.053.249-4.719.318-.837 1.43-.563 1.653-1.452.044-.458.227-1.104.04-1.479-.511.1-1.017.611-1.57.432-.428-1.849.854-3.568.152-5.186 1.195-.885 1.417-2.181 1.64-3.528.327 0 .423.92.837.41-.048-.502-.562-.825-1.025-.964-.37-.044-.741-.223-.929-.593.131-.973.03-2.177.907-2.643.65.135 1.483.035 1.85-.519-.375-.689-.75-1.566-.34-2.36 1.16.733 2.311-.196 3.375-.484 1.793-1.492 2.011-3.759 2.647-5.805.323.24.742.554.838.92"/><path fill="#B3995D" d="M181.189 151.45c.702.824 1.125 1.744 1.544 2.664-.973-.366-1.993-.588-2.783-1.321-.649-.135-1.251-.41-1.901-.493.972-.061 2.215-.894 3.14-.85"/><path fill="#9A3B26" d="M176.524 152.309c-.463.091-.925.24-1.479.1.414-.279.968-.009 1.479-.1m-2.312.017c-.231.323-.65 0-1.021.188.232-.323.694-.096 1.021-.188"/><path fill="#EFE8C7" d="m202.652 157.464.096.083c-.462.144-1.482.109-1.849.706-.083 1.627 1.496 2.26 2.338 3.459.187.419.794.92.427 1.526-.37.367-.645.877-.549 1.296 1.025.593.567 1.522.34 2.359-.314 1.387-2.735-.357-1.98 1.488.327.785 1.766 1.059 1.356 2.071-.366.519-.314 1.439-1.007 1.583-.467-.458-1.025-.689-1.579-.868-.462.419.052 1.065.331 1.475.751 1.339 1.361 3.005 1.187 4.387-.323.144-.65.144-.925.384-2.294-3.921-4.771-7.837-7.061-11.806l-.24-.921c1.788-2.974 4.409-5.443 5.775-8.596-.035 1.806-.759 3.886-1.536 5.648.092.144.232.188.419.188 1.003-1.95 1.5-4.27 1.623-6.355l-.275.009c.366-.65.68-1.993.999-3.018.335 2.036 3.715 2.473 2.11 4.893"/><path fill="#773141" d="M96.952 155.501c.332.838.664 1.849.668 2.635.323.178.328.824.423 1.243-.462-.088-1.112.008-1.251-.546-1.44-.357-2.97-1.321-4.087-2.333.406-1.579 2.207-2.189 3.402-3.171.558.511.61 1.431.846 2.172"/><path fill="#9A3B26" d="M114.578 154.642c.284.742-.318.929-.824 1.169-1.893.423-4.623.763-5.975-.89-.096-.362.087-.645.226-.833 1.989-.061 4.532-.536 6.434.144zm-.82 1.814c.236.323.65.367.746.733-.462.24-1.064.288-1.666.288-.188-.458-.742-.458-1.069-.824l2.081-.519c-.14.052-.044.231-.092.322m4.17 1.082c.1.65-.362 1.208-.912 1.583-1.247.471-2.73.572-4.073-.065-.371-.231-.746-.598-.746-1.056 2.084.397 3.506-1.09 5.408-.872z"/><path fill="#773141" d="M95.868 159.261c-5.705 5.264-10.755 11.121-17.206 15.509-.323-.179-.284-.689-.284-1.108l.825-1.387c3.764-4.283 7.676-7.964 11.584-12.011a10.4 10.4 0 0 0 1.923-2.931c1.025.733 2.137 1.234 3.158 1.928"/><path fill="#9A3B26" d="M78.155 160.757c-.601-.135-.33-1.2-.287-1.566.414-.144.227-.698.501-.981.144.283.563.65 1.02.462l.83-.75c-.083 1.116-.865 2.503-2.064 2.835m135.898-1.003c-.471-.833-1.169-1.387-2.094-1.243-1.108.331-2.167.985-3.227 1.5-.096-.366-.375-.776-.332-1.151.511-.144.641-.838 1.056-1.073 1.164.959 2.224.261 3.428-.018.279.231.558.502 1.016.41.323-.283.602-.471.829-.837.004.689.061 1.936-.676 2.412m-89.518 3.297c4.505 2.564 9.329 4.239 14.379 5.321-.506.65-1.339.75-1.749 1.452.044-.148-.143-.554-.418-.514-3.062-.807-6.577-.833-8.998-2.757l.092-.105c-1.064-.401-2.225-.671-3.202-1.312-2.874-1.326-5.53-3.755-8.452-5.265.598-.235 1.151-.423 1.614-.937 2.045 1.84 4.505 2.743 6.734 4.117"/><path fill="#000" d="M81.208 160.596c-.09.143-.23.187-.414.143l-.331-.876c.462-.323.514.462.745.733"/><path fill="#EFE8C7" d="M214.009 160.255c.279.511.053 1.204-.083 1.714-.689.415-1.334.842-1.653 1.627-.187-.419-.606-.597-1.025-.597l-.091.1c-.048-.092.776-1.95-.75-1.431-.092-.279-.14-.554-.419-.741-.414-.092-.597.24-.968.24 0-.092 0-.458-.096-.646 1.247-.658 2.346-1.448 3.834-1.374.505.232.649.929 1.251 1.108"/><path fill="#9A3B26" d="m79.756 165.001-.179.697c-1.073-.92-.99-2.442-1.321-3.737.043-.323.087-.742.458-.838.148 1.392.388 2.635 1.042 3.878"/><path fill="#000" d="M199.342 160.766a18.4 18.4 0 0 1-.994 3.571h-.232c.458-1.16.402-2.499.951-3.571zm-97.526 2.438c.062 1.932-.396 3.236-.567 5.177-.274.335-.458.793-.872.981-.371.052-.462.052-.79-.044.232-.375 1.157-.562 1.244-1.252.087-.606.222-1.208.174-1.762l-.602.419c-.091-.087-.091-.275-.231-.318 1.06-.654 1.191-1.854 1.139-2.879-.371-.135-.554.375-.833-.222.087-.375.597-.188.828-.332l1.104-.929c.283.554-.367.742-.593 1.161"/><path fill="#9A3B26" d="M210.83 162.174c-.038 1.252-1.473 1.208-1.979 2.094l.096.096-.279.144c.231-.563.314-1.671-.013-2.316-.053-.785.833-.24 1.199-.615.004.466.563.929.977.597"/><path fill="#000" d="M103.675 164.019c.048.515.606 1.016.148 1.527l-.235-.502c-.462.314-.131 1.431-.685 1.566l-.139-.323c.083-1.339.492-2.547.807-3.746.514.322.052.968.104 1.478"/><path fill="#EFE8C7" d="M210.35 166.85c-.379-.921.127-1.902-.758-2.582l1.151-.842c-.641 1.252 2.238 2.621-.392 3.424"/><path fill="#9A3B26" d="m212.18 164.159.511-.149c0 .232-.318 1.025-.685 1.483-.1-.689-1.025-1.147-.571-1.984.375.096.374.554.745.65"/><path fill="#000" d="M200.197 163.679c-.358 2.499.126 5.596-.646 7.96l-.322.004c.68-2.368.292-5.133.645-7.824.092-.096.183-.232.323-.14"/><path fill="#9A3B26" d="M209.364 164.874c.559.68-.126 2.12.942 2.486.275-.144.646-.331.829-.698l.231-.009c-.222 1.209-1.282 2.094-1.832 3.21-.196-1.67-1.687-3.227-1.003-4.989.236.366.554 0 .833 0m-65.377.968c-1.056 1.348-2.39 2.608-3.581 4.048-.693.283-1.339.937-2.22.571l-.418-.419c1.661-1.116 3.545-2.752 4.972-4.095.139-.096.645-.144.414-.427.279.095.602.095.833.322"/><path fill="#EFE8C7" d="M126.227 166.885c-.458.78-.035 1.618-.632 2.316-.039 1.526.432 2.913.628 4.156.231.135.139.419.419.419.274-.471-.192-1.065-.288-1.579l-.24-1.335c.606.877 1.718.816 2.734.912.428 1.334-.03 2.726-.205 4.021-.087 1.156 1.217 2.076.764 3.371.196 1.618-.956 2.966-.711 4.584.004.886 1.073 1.849.109 2.591l-.833.1c-.323.51.144.929.24 1.431-1.025-1.012-.759-2.726-1.919-3.729-.62-2.225-.262-4.397-.415-6.621l-.139-.135-.183.231c.056 1.666-.345 4.213.314 6.014.052.79-.589 1.479-.493 2.408.152 2.133-.576 3.707-.284 6.067.236.501.833.082 1.16.261.288 1.714 2.639.545 2.421 2.395.288 1.661-.074 3.144-.205 4.352-.284-1.208-.432-2.682-1.365-3.415a1.45 1.45 0 0 0-.271 1.065l-.113 4.021c-.144-.733-.327-1.662-.746-2.028-.327-.092-.602.283-.602.51-.488 3.018 2.443 5.727 1.536 8.732-.171 1.805-.437 3.615-1.636 5.011.004.279.004.51.004.741 0-.231-.279-.828-.654-.964-.318.463-.17 1.161-.401 1.671-.458.741-.406 1.67-1.003 2.316-.284-1.431-.345-3.236-.907-4.802-.188-.188-.467-.367-.698-.188l-.319.332c-.519-1.483-.907-4.021-.27-5.557.371-.322.227-1.012.454-1.43 1.609-1.636 2.616-3.441 3.157-5.578l-.279-.275c-.641.65-1.614.702-2.072 1.587-.239-1.107-.894-2.311-2.102-2.904-.004-1.152.314-1.758.676-2.914 1.383-.615 2.997-1.596 3.638-3.075l-.188-.283c-1.199.48-2.399 1.217-3.79.955.179-.973.502-1.16 1.566-1.396.462-.187 1.199-.292 1.474-.937.044-.554.314-1.44-.244-1.758-.964.563-1.893.336-3.001.532l-.187-.187.593-1.256c-1.627-1.056-.759-2.809-1.095-4.384.279-.096 0-.462.323-.418-.375-.511-.742-.502-1.025-1.017.087-.924 1.003-2.272-.432-2.817-.148-1.243.262-2.037.253-3.236-.279-.51-.881-.462-1.112-.92l.174-1.575c2.033-.009 4.292-1.374 5.391-3.367.41-1.199 1.417-2.368.903-3.746.323.039.222-.336.458-.428.514.554 1.709.502 1.67 1.152"/><path fill="#9A3B26" d="M148.155 166.331c-.357 2.307-2.472 4.222-4.645 4.837-.23 0-.644-.044-.649-.314 1.248-.751 2.491-1.405 3.363-2.67.55-.698.916-1.626 1.745-2.041l.187.188"/><path fill="#EFE8C7" d="M123.588 166.671c.562 1.108-.92.789-1.335 1.304-.741.091-1.387-.035-1.901-.454a1.18 1.18 0 0 1-.284-.929c1.295-.235 2.556 1.562 3.52.079"/><path fill="#000" d="M198.221 166.414c-.083 1.347-.257 2.787-.667 4.082-.092 0-.14.052-.136.091-.283-.51-.008-1.199.127-1.753l.493-2.412h.183"/><path fill="#9A3B26" d="M168.101 201.078c.236.262.572.519.69.746.231.327.741.357.972.078.367-.231.598-.51 1.108-.418-.079 1.993-2.617 3.253-1.91 5.281.231.231.697.598 1.112.323l1.151-1.26c.057 2.132-1.461 3.663-2.883 5.111-.715-3.236.838-6.389-.894-9.521.018-.257.048-.497.105-.733z"/><path fill="#EFE8C7" d="M167.71 200.206a2.5 2.5 0 0 1 .235-.458l-.091-.044c.444-2.272 3.262-2.987 2.459-5.622-.327-.27-1.016-.126-1.435-.401.271-.654.637-1.252.82-1.897-.375-.65-1.064.048-1.574.144-.458.323-.733.885-1.056 1.343-.287-2.076-1.09-4.614.611-6.25-.515-.641-2.037.34-1.675-1.142-.004-.698.223-1.387.825-1.671.689-.602-.149-1.156-.245-1.753-.427-1.474-.619-2.77-.532-4.488.733-.052 1.378-.519 1.745-1.117-.558-.322-1.527-.41-1.252-1.382l-.004-.279c.881-.096 1.565-.75 2.49-.759.092-.083.231-.179.231-.323-.279-.314-1.251-.314-.75-1.012l1.003-2.224c.698.458.894 1.797 2.002 1.653l.323-.284c.423 1.243.296 2.726.44 4.118.096.091.188.091.327.143.415-.331-.004-.885.083-1.347.179-1.431-.802-2.778-.117-3.978.13-1.064.401-2.224.396-3.245l.323-.322c.013 2.586 1.143 5.033.14 7.724.148 1.203 1.496 1.975 1.177 3.227.188.188.463-.039.511-.227.82-1.579-2.286-2.394-.676-4.021.039-1.439-.249-2.87-.349-4.165 1.304 1.474.946 3.694 2.669 4.933.096.375.51.554.515.968-.868 1.535 1.173 2.447 1.456 3.834-.366.649-1.295.052-1.518.846-.091.78.934 1.609.105 2.255-.462.196-1.06.287-1.478.248-.323.279-.925-.087-1.2.423.332 1.474 1.034 2.77 1.692 4.056-.226.794-.453 1.348.014 2.089-.188-.052-.371.092-.415.28 0 .135.092.366-.043.462-.14-.231-.467-.598-.79-.41-.183.227.048.27-.043.501-.28-.274-.463-.776-1.021-.732l-.183.24c.336 1.565 1.265 2.852 2.198 4.147.187.179.279 0 .414-.052.755 1.57-.898 3.018-.798 4.719-.506.519-.593.929-.405 1.67-.083 1.065.296 2.779-.297 3.843h-.092c-.287-1.296-1.129-2.395-1.504-3.646-.14-.088-.236-.231-.419-.179-.275.741-.174 1.662-.079 2.403a21.3 21.3 0 0 0 1.51 3.834c.183.091.226-.096.366-.14-.044.231.052.92-.083 1.483-.837-.789-.75-1.897-1.448-2.726-.231-.091-.323.096-.506.24-.174 1.888.99 3.69.214 5.408-.502.838-1.61.707-2.255 1.448-.419-.419-.379-1.618-1.256-1.191l-.044.092c-.096-.188.135-.279.044-.51l-.14-.135c.641-.886 1.427-1.313 1.557-2.277.781-.842.82-2.181 1.038-3.254-.087-.179-.043-.554-.414-.501l-1.653 1.858c-.558-.223-.283-1.056-.244-1.527.27-1.522 2.303-2.324 1.64-4.078-.742-.318-1.339.288-1.845.611-.38-.244-.589-.663-.859-1.012l-.777-.462"/><path fill="#000" d="M102.794 171.202c-.092.136-.275.188-.414.188-.467-.741-.245-1.806-.201-2.599l.275-.323c.466.785-.266 1.897.34 2.734"/><path fill="#9A3B26" d="M144.24 169.174c-.92.511-1.932 1.544-3.049.759l.964-1.169c.698.14 1.344.41 2.085.41"/><path fill="#000" d="M124.356 170.827a9.4 9.4 0 0 0 .253 3.79c-.511-.082-1.06.471-1.383.842-.187-.593.689-.885 1.056-1.252-.096-.968-.149-1.753-.249-2.638-.323.144-.366.375-.598.654-.096-.458.55-1.073.921-1.396m-23.133.563-.406 2.224c-.924-.318.039-1.57.035-2.403.183-.052.231.083.371.179m97.268.768c-.048.039-.092.091-.183.091-.327-.458-.057-1.108.078-1.574.515.231.1 1.116.105 1.483"/><path fill="#9A3B26" d="M190.335 200.376c.707 1.587 0 3.485-.794 4.924-.322.419.188.462.424.641 1.661-.105 1.557-2.089 2.8-2.839.649-.092.977.462 1.443.732.96-1.26-.759-2.172-.763-3.423-.048.043-.092.144-.188.096-.322.279-.641 1.02-1.334.841-.388-.205-.851-.484-1.182-.833z"/><path fill="#EFE8C7" d="M190.27 199.839c0-.109-.026-.213-.118-.279 2.037-.248 2.203-2.699 3.306-4.056.044-.314.319-.741.087-1.055-.187-.279-.606-.179-.833-.096-.279.187-.414.846-.828.615l-.934-.825c.275-.239.184-.606.275-.837 1.941-.34 2.805-2.333 3.446-3.864-.794-.685-1.474 1.029-1.902-.266-.231-.458-.235-1.012-.654-1.378-.837-.367-1.753 1.164-2.037-.171 2.259-.854 4.331-2.25 5.984-4.348 0-.414.318-.781.087-1.199-.885-1.012-1.705.885-2.586 1.217-1.012.418-1.793 1.26-2.717 1.731.179-1.252-.201-2.547 1.225-3.393a.473.473 0 0 0-.418-.593l-.415.008c.223-1.072.031-2.359.951-3.153.087-.885-1.391-.554-.938-1.526.227-1.156.589-2.408.349-3.559 2.242 3.358 4.209 6.817 6.451 10.179-.092.188-.838-.824-1.064.009-.131 1.108.479 2.268 1.086 3.227-.419-.222-.838-.824-1.396-.867-1.243.654-.127 1.901.017 2.817.515.419.659 1.16 1.304 1.383-.039.606.192 1.251-.126 1.67-.746-1.016-1.034-2.538-2.285-3.044-.319.889-.035 2.089.113 3.061.327 1.012.659 2.068 1.352 2.862-.545 1.055-.349 2.307-.157 3.467-1.069-1.099-1.448-2.539-2.198-3.825-.14-.044-.231.091-.323.187l.096.314-.419.188c-.728 1.858.075 3.895 1.61 5.221-.044.785-.314 1.858-.724 2.691-.698-.729-.659-1.845-1.361-2.578-.737.048-.824.929-1.47 1.064a5 5 0 0 1-1.112-.811l-.724-.179"/><path fill="#000" d="M101.65 173.697c.013 1.348.253 2.914.074 4.082-.183.188-.37.092-.418-.139l-.022-3.838c.139 0 .183-.148.366-.096m24.08 2.438-.092.083c-.327-.545-.427-1.422-.336-2.068.279.502.144 1.335.428 1.985m50.949.733-.135.322c-.789-.357-.933-1.243-1.169-1.975l.136-.332c.514.554.518 1.439 1.168 1.985m-30.303.937-.226.271c.558.418-.04 1.116.148 1.574-.637 1.714-.022 3.611-.519 5.513h-.327c.314-1.993-.118-4.396.61-6.433l-.096-.414-.414.51c-.139-.188-.327-.188-.235-.502l.737-.846c.231.044.183.327.322.327m-21.785 1.387c.105 1.483-.07 3.289-.802 4.584l-.183.009c-.096-.471.409-.659.501-1.073.035-1.435.58-2.914.109-4.252.236.126.236.501.375.732m47.617.109c-.265 2.172.21 4.305.319 6.612l-.414.009c-.013-2.089-.82-4.628-.044-6.621zm-70.514.545c-.41 1.213-.17 2.591-.763 3.843.096.283.235.785-.319.837l-.139.005c.453-1.479.305-3.285 1.033-4.685zm71.688 1.902c-.314 1.941.393 3.515.31 5.408-.092-.043-.14.053-.183.053l-.14-.136c-.244-1.81-.719-3.75-.314-5.6.044-.227.275-.331.506-.331.231.231-.183.375-.179.606"/><path fill="#9A3B26" d="M195.643 183c-1.374 1.867-3.354 3.493-5.618 4.104.266-2.12 2.622-2.743 4.139-3.773l1.383-1.251c.371.231.052.741.096.92"/><path fill="#000" d="M100.05 183.205c.236.92-.405 1.753-.911 2.264-.096-.367.41-1.012.497-1.575 0-.27.044-.689.415-.689m24.297.768c-.092.554-.41 1.064-.641 1.478-.231-.51.366-.924.41-1.478zm.096.636c.004.698.057 1.723-.31 2.277-.004-.65.131-1.483.218-2.268h.092"/><path fill="#9A3B26" d="M126.2 184.697c.702 1.251.576 3.005 2.107 3.646.24 1.378-.122 2.451-.484 3.703-.327.043-.415.462-.227.741l.139.135c-.833.188-.937-1.565-2.18-1.055-.066-2.582.432-4.623.462-7.17z"/><path fill="#000" d="M147.998 185.155c-.178 1.251-.401 2.643.533 3.654.187.092 0 .232-.092.323-.462-.179-.65-.781-.885-1.243-.192-.972-.201-2.172.305-2.913zm-4.998.17c-.41.427-.92.706-1.378 1.033-.235-.366.227-.471.41-.741.275-.188.693-.336.968-.292"/><path fill="#9A3B26" d="M96.657 188.399a1.94 1.94 0 0 0 1.247-.75c-.135.89-1.147 1.91-.401 2.652a3.3 3.3 0 0 0 1.797-.851c.052.646-.035 1.666-.214 2.408-1.06.658-1.47 1.993-2.717 2.377-.11-2.778.2-5.138-.558-7.82.375.597.196 1.526.846 1.984m101.703-.51c-.228.356-.323.78-.27 1.199-.654-.915-1.583-1.932-1.361-3.183.698.458 1.579 1.243 1.631 1.984"/><path fill="#000" d="m151.021 187.632-.135.24c-.419-.136-.606-.323-.929-.646l.087-.275c.371.179.65.41.977.681m21.018 1.212.414.044c-.401 2.085.353 4.719-1.3 6.206h-.187c1.099-1.853.994-4.078 1.073-6.115-.323.511-.314 1.483-1.008 1.44-.096-.367.319-.742.406-1.152.414-.841.17-1.762.728-2.364z"/><path fill="#9A3B26" d="M192.446 189.594c.24.69 1.021.367 1.483.262-.545 1.304-1.461 2.6-2.891 3.036-.519-.973-1.496-2.028-.763-3.197.183-.323.274-.825.222-1.156.462-.044.833-.283 1.247-.419l.703 1.474"/><path fill="#000" d="m173.436 190.545.004.375c-.602-.322-.423-1.107-.567-1.753l.092-.427c.279.471.423 1.16.471 1.805"/><path fill="#9A3B26" d="M121.892 190.741c-.463.284-1.017.149-1.479.419-.467-.27.131-1.055-.196-1.566.924-.052 1.993.075 2.913-.436.606.973-.593 1.304-1.238 1.583"/><path fill="#000" d="M146.56 191.971c-.131 1.112-.493 2.085-1.134 2.922h-.279c-.005-.597.501-.972.684-1.482.406-1.348.537-3.018.48-4.353.698.781.013 2.032.249 2.913"/><path fill="#9A3B26" d="m197.694 191.823-.406 1.67c-.933-1.286-1.178-2.861-1.278-4.479.558.973.938 1.985 1.684 2.809m-20.918-.092c.327.742-.497 1.575-.218 2.308-.606-1.004-1.535-1.841-1.775-2.988.279.083.51.502.742.323.091-.105.231-.188.183-.332.235.271.414-.096.645-.096.188.275.053.689.423.785"/><path fill="#1D5C42" d="M207.96 191.435c.188.323.24.698.563.968.694-.563.654.65 1.165.776.933 1.387 1.635 2.861 2.063 4.48-2.181-1.235-4.645-2.521-5.954-4.641-.279-.554.218-1.151.733-1.348.462-.083.872-.51 1.426-.235"/><path fill="#9A3B26" d="M168.87 192.242c-.092.689-1.195 1.535-.314 2.089l1.251.083c.38 1.474-.772 2.503-1.783 3.245-.184 0-.463.418-.602.008.174-1.483-.297-2.734-.258-4.165.833.087.825-1.252 1.706-1.26m-45.394.384c-.593.833-1.566 1.26-2.303 1.77-.274-.179-.645-.179-.833-.501l-.004-.646c.973.039 2.268-.061 3.14-.623"/><path fill="#000" d="M172.716 193.419c-.043.742.519 1.845-.122 2.316-.283-.785-.196-1.387-.109-2.307z"/><path fill="#9A3B26" d="M196.763 198.317c-.048.367-.183.637-.415.92-.601-.139-1.068-.732-1.347-1.238-.658-1.291-.523-2.076-.44-3.559.24 1.483 1.404 2.625 2.202 3.877"/><path fill="#000" d="M124.418 194.976c-.27 1.396.201 2.504-.07 3.895h-.135c.039-.741-.1-1.064-.196-1.758-.231.232-.131.694-.554.698a11.8 11.8 0 0 0 .724-2.835z"/><path fill="#9A3B26" d="m192.394 195.421.598-.65.004.511c-.92 1.212-1.326 2.695-2.429 3.768h-.231c1.47-1.357-.528-2.874.48-4.449.558.179.841 1.243 1.578.82m-94.293 1.719.414-.419c.1.881.061 2.176-.859 2.734-.187-.091-.419.188-.602.284.27-1.204-.2-2.726-.257-4.113.602.406.109 2.36 1.304 1.514m52.018 1.234c.057 1.67-.022 3.384-.571 4.771-.331-1.199-1.029-2.163-1.361-3.323.554.087.785.179 1.108-.279-.057-1.348-.619-2.635-.536-3.978.471.92.754 1.932 1.36 2.809m-47.988-.707c-.733.794-.035 1.579-.262 2.456-.514-.92-1.029-1.841-1.177-2.905.235-.052.418.179.601-.009.323-.283.323-.785.319-1.107.375.458.61 1.055.519 1.565"/><path fill="#000" d="M145.985 195.997c.096.419-.083.973-.314 1.391-.371-.314-.005-.972.082-1.391z"/><path fill="#9A3B26" d="m127.467 201.671-.166 3.009h-.044c-.519-1.714-1.735-3.458-1.378-5.129.515.554-.074 1.671.846 1.985.785-.375.458-1.16.637-1.762l-.109-2.914c.471 1.483 1.409 3.415.214 4.811"/><path fill="#000" d="M99.867 198.374c.144.606.659 1.339.427 1.806-.505.148-.327-1.104-.833-.646.232.188-.048.323-.091.51h-.231c.039-.78.126-1.849.493-2.503.37.187.187.419.235.833m72.369-.227c-.127 1.618.344 2.953-.018 4.353-.183.039-.231-.096-.37-.188.174-1.43-.018-2.726.157-4.165z"/><path fill="#9A3B26" d="m121.959 201.383.279.188c.554-.471 1.103-1.117 1.705-1.357-.501 1.579-1.369 3.154-2.608 4.362l-.004-.083-.694-.096c.406-2.037.345-3.882-.266-5.827.742.785 1.583 1.653 1.588 2.813"/><path fill="#000" d="M146.014 200.167c-.048.091-.139.091-.231.091-.279-.323-.192-.833-.1-1.199.462.179.144.78.331 1.108"/><path fill="#9A3B26" d="M97.716 202.277h.79c-.41 1.16-.4 2.495.345 3.415a1 1 0 0 1 .414-.091c-.501.833-.449 1.666-.397 2.595 1.527.266.197 1.984.528 3-1.212-1.286-.436-3.279-1.557-4.662-.38-1.103.855-2.73-.532-3.65-.004-.554-.375-.829-.009-1.339.092.27.14.554.418.732m77.028 4.087c-.476-1.378-1.174-2.63-1.37-4.156.563 1.339 1.265 2.717 1.37 4.156m-73.704 1.4c-.192-.65-.292-1.705-.619-2.499-.004-.646-.471-1.378-.201-2.172 1.213 1.108 1.366 3.188.82 4.671"/><path fill="#000" d="M146.046 205.252c.24 1.387-.907 2.551-1.365 3.389l-.327-.044c.183-.645.828-1.117 1.147-1.679.27-1.056.17-2.443.069-3.415.515.275.332 1.151.476 1.749"/><path fill="#EFE8C7" d="M193.624 207.075c-.126 1.71-2.481 2.469-1.963 4.265l-1.478-.117c-.794-1.064-.109-2.696-.445-3.939l-.375-1.064c.654.65 1.248-.235 1.941-.196 1.295-.423 1.042-3.843 2.722-1.771z"/><path fill="#000" d="M123.437 208.035c-.371-.458.318-.69.41-1.156.087-.554.083-1.16.314-1.671.235.969.009 2.085-.724 2.827"/><path fill="#EFE8C7" d="m100.626 208.597-.502.741c-.187-.458.406-1.339-.519-1.474l-.091.096c-.14-.283-.144-.881-.009-1.252.044-.553.275-.741.41-1.256.467.973.153 2.133.711 3.145"/><path fill="#9A3B26" d="M144.156 206.521c-1.104 1.02-1.88 2.46-3.406 2.835-.375-.829-.013-1.753-.018-2.682l.506-.742c.929.781 1.849.223 2.918.589m30.229 1.932h.183c-.449 1.984-.715 3.746-1.304 5.7.179-.889-1.173-2.311.257-2.83.454-1.431.079-2.539-.026-4.03.236.419.379 1.204.89 1.16m-31.437 4.549c-.737.188-1.339.615-1.985.842-.697-.689-.056-1.754-.017-2.683.327.179.515.598.977.786.785-.062 1.478-.615 2.263-.812l.092-.135c.004.646-.545 1.627-1.33 2.002m48.394-1.33-.096.096.419.083a1.88 1.88 0 0 1-.729 1.766c-.924.331-.514-.733-.841-1.099l.087-.89c.462.044.789.231 1.16.044m-69.407.445c.658 1.849.069 3.654 1.238 5.177.371.178.55-.288.733-.519.366-.929.685-1.941.903-2.827.336 1.618-.576 3.149-.794 4.767-.275.515-.41 1.256-1.012 1.492-1.679-2.163-1.278-4.898-1.714-7.58.323-.044.275-.502.646-.51m48.171.61c.096.148.327.284.419.188l-.092.096c.65.41.921-.615 1.479-.615.148 1.714-.955 3.153-2.054 4.505h-.419c-.24-1.387-.249-3.236-.262-4.719l.511-.279c.139.187.327.645.418.824"/><path fill="#EFE8C7" d="M173.13 214.79c.148 1.575-.161 3.433-.894 4.872-.741-.323-1.199.563-1.941.563-.235-.554.175-1.483-.658-1.662.087-1.012.824-1.522 1.465-2.325.689-.876 1.287-2.037 1.23-3.192.375.458.288 1.295.798 1.744"/><path fill="#9A3B26" d="M141.828 218.606c.24 1.431.947 3.001.585 4.388-.785.144-.838-.454-.886-1.055-.379-1.243-1.081-2.447-.719-3.93.506-.227.693.41 1.02.597m28.472 2.316c.183-.279.414-.235.601-.375l-.096-.039c.467.314.602-.427 1.017-.384-1.239 1.405-.109 4.165-2.238 4.785-.1-1.806-.209-3.978.057-5.836.327.554-.406 1.67.659 1.849m-24.472.572.274-.279c-1.513 2.145-.754 5.05-1.897 7.418-.266 1.431-1.047 2.691-1.544 4.039-.192-.606-.196-1.579-.431-2.268-.288-1.618-1.174-3.323-.868-5.221.183-.187.414-.375.506-.606.231.275.235.785.331 1.152-.083 1.02.105 1.897.523 2.682.371-.135.785-.563.921-.938.636-1.984 1.544-4.54.423-6.66l-.009-.833c.654.415.798 1.618 1.771 1.522M116.79 44.962c-.31.305-.82.484-1.151.894.056.593.056 1.19.021 1.805l.663-.017c.236-.305.676-.48.986-.829.013-.68 0-1.343-.039-2.01zc.074-.088.14-.17.183-.275Z"/><path fill="#fff" d="M46.588 243.993q2.895 0 4.55.228 1.654.206 2.896.744 3.97 1.737 4.88 6.184.373 1.82.373 7.321 0 4.612-.29 6.308-.827 4.82-4.591 6.598-1.448.661-3.495.972-2.028.29-5.275.289-3.266 0-5.149-.331-1.882-.351-3.247-1.199-3.184-1.944-3.93-5.853-.31-1.634-.31-5.44 0-7.114.745-9.782 1.034-3.702 5.439-5.253 2.151-.765 7.404-.786m-.228 6.494q-2.668 0-3.598.393-1.283.517-1.634 1.923-.352 1.407-.352 5.936 0 4.344.497 5.667.393 1.013 1.427 1.386 1.034.351 3.578.352 2.337 0 3.268-.415.951-.413 1.427-1.613.558-1.406.558-6.101 0-2.916-.103-3.971-.084-1.074-.414-1.84-.435-1.014-1.385-1.345-.931-.351-3.269-.372m24.095-6.287v10.693h2.275l7.28-10.693h9.1l-9.948 13.857 10.775 14.373H80.65l-7.859-11.126h-2.337v11.126h-7.59V244.2zm29.12 0v21.736h11.871v6.494H91.984V244.2zm31.291 23.37h-10.155l-1.365 4.86h-7.859l8.48-28.23h11.458l8.583 28.23h-7.694zm-1.51-5.48-3.557-12.265-3.453 12.265zm37.661-17.889v28.229h-7.589v-11.107h-9.804v11.107h-7.59v-28.231h7.59v10.63h9.803v-10.63h7.59m17.228-.206q2.895 0 4.55.227 1.655.206 2.895.745 3.972 1.736 4.882 6.183.371 1.82.372 7.322 0 4.611-.29 6.308-.827 4.819-4.591 6.597-1.448.661-3.495.972-2.028.29-5.275.289-3.267 0-5.149-.331-1.882-.35-3.247-1.199-3.184-1.944-3.93-5.853-.31-1.633-.31-5.439 0-7.115.745-9.782 1.034-3.703 5.439-5.254 2.151-.765 7.404-.785m-.228 6.493q-2.668 0-3.598.393-1.283.517-1.634 1.924-.352 1.406-.352 5.936 0 4.342.497 5.667.392 1.012 1.427 1.385 1.034.351 3.577.352 2.338 0 3.269-.415.95-.413 1.426-1.613.56-1.405.559-6.1 0-2.917-.104-3.971-.083-1.076-.414-1.841-.433-1.014-1.385-1.345-.93-.351-3.268-.372m51.457-6.287v28.231h-7.446v-8.459q.021-3.123.372-9.886l.186-3.289h-.247l-.993 3.227-.993 3.206-2.13 6.431-2.916 8.77h-6.535l-2.979-8.79a770 770 0 0 1-4.199-12.844h-.248l.186 3.289q.415 7.072.435 9.886v8.459h-7.445v-28.231h11.809l2.647 8.087q1.158 3.556 2.875 9.658h.289l.641-2.399q.993-3.765 2.048-7.218l2.565-8.128zm21.385 23.37h-10.155l-1.365 4.861h-7.86l8.48-28.231h11.458L266 272.43h-7.694zm-1.51-5.481-3.558-12.264-3.453 12.264z"/></svg>