<svg xmlns="http://www.w3.org/2000/svg" width="300" height="300" fill="none"><path fill="#fff" d="M0 0h300v300H0z"/><path fill="#FEC500" stroke="#FEC500" stroke-width=".608" d="M148.722 106.952s-.429 47.914-.429 51.4 0 8.276-3.851 7.404c-3.842-.871-8.547-.871-15.389-5.662-6.837-4.79-6.837-5.662-6.837-5.662l6.412-2.18s-6.412-1.305-10.688-4.353c-4.276-3.052-7.696-5.666-7.696-5.666s-.426 6.537 1.71 11.328c2.14 4.791 6.412 9.148 6.412 9.148v-5.662s5.986 5.662 8.126 6.971c2.136 1.305 10.687 4.79 14.104 6.971 3.421 2.172 9.688 8.272 9.688 8.272s6.56-6.971 10.836-8.714 9.833-4.353 12.398-6.096c2.566-1.742 9.403-8.276 9.403-8.276v7.405s4.702-5.662 5.986-9.585c1.285-3.919 1.711-10.891 1.711-10.891s-3.421 2.615-6.412 3.924c-2.995 1.305-11.543 4.79-11.543 4.79l6.837 1.743s-11.113 8.714-14.959 10.457c-7.006 3.368-11.972 2.61-11.972-1.743s.429-55.323.429-55.323zm.426-16.118h2.991V103.9h-2.991z"/><path fill="#FEC500" stroke="#fff" stroke-width=".608" d="M127.777 103.904s11.968-2.614 23.081-2.614c11.114 0 22.656 2.61 22.656 2.61v4.795s-15.389 2.176-24.366 2.176-21.375-2.614-21.375-2.614z"/><path fill="#FEC500" fill-rule="evenodd" stroke="#fff" stroke-width=".608" d="M157.696 101.505a7.35 7.35 0 0 0-2.004-5.082 6.8 6.8 0 0 0-2.175-1.54c-.409-.181-.337-.25-.782-.346l.013 2.49c.537.264.662.527 1.068 1 .812.947 1.315 2.254 1.315 3.697 0 2.885-2.011 4.755-4.487 4.755s-4.487-1.87-4.487-4.755c0-1.443.503-2.75 1.315-3.697.406-.473.531-.736 1.068-1l.013-2.49c-.446.095-.373.165-.782.346a6.8 6.8 0 0 0-2.175 1.54 7.35 7.35 0 0 0-2.004 5.082c0 3.972 3.255 7.19 7.052 7.19s7.052-3.218 7.052-7.19Z" clip-rule="evenodd"/><path fill="#003271" stroke="#fff" stroke-linejoin="round" stroke-width=".405" d="M110.863 185.113s5.678 5.188 11.235 5.926c5.556.741 14.307 3.351 14.307 3.351s.231 7.993-.041 8.686-.446.875-1.244.904c-2.59.093-8.896.101-15.758-1.496-8.969-2.087-17.768-7.486-17.768-7.486 2.051-.843 7.011-1.584 10.213-2.379zm79.138 0s-5.678 5.188-11.235 5.926c-5.557.741-14.307 3.351-14.307 3.351s-.231 7.993.041 8.686c.271.693.445.875 1.244.904 2.59.093 8.896.101 15.758-1.496 8.969-2.087 17.768-7.486 17.768-7.486-2.051-.843-7.012-1.584-10.214-2.379z"/><path fill="#003271" stroke="#fff" stroke-linejoin="round" stroke-width=".405" d="M129.057 197.118c-.989-.308-1.565.337-1.565.337V183.61s.6-.543 1.646-.085c3.688 1.609 13.196 4.871 21.294 4.871s17.606-3.262 21.294-4.871c1.046-.458 1.646.081 1.646.081v13.849s-.576-.649-1.565-.337c-3.931 1.22-14.209 4.256-21.375 4.256s-17.444-3.036-21.375-4.252z"/><path fill="#003271" d="M173.372 197.455c.608 1.621-8.989 3.12-8.872 5.621Zm-45.879 0c-.608 1.621 8.989 3.12 8.871 5.621Z"/><path stroke="#fff" stroke-linejoin="round" stroke-width=".405" d="M173.372 197.455c.608 1.621-8.989 3.12-8.872 5.621m-37.007-5.621c-.608 1.621 8.989 3.12 8.871 5.621"/><path fill="#FEC500" d="m150.432 50 9.529 29.328-24.947-18.126h30.836l-24.947 18.126zm46.142 11.372-5.19 30.397-13.668-27.643 27.306 14.33-30.513 4.457zm35.572 31.512-18.721 24.503.743-30.828 17.519 25.377-29.089-10.233zm16.86 44.45-27.966 12.993 14.988-26.95 3.715 30.612-20.999-22.582zm-5.729 47.176-30.801-1.49 25.794-16.899-10.935 28.833-8.101-29.754zm-26.997 39.111-26.581-15.633 30.693-2.977-23.081 20.45 6.653-30.111zm-42.078 22.087-16.273-26.194 28.561 11.626-29.94 7.382 19.883-23.57zM104.289 61.372l5.19 30.397 13.668-27.643-27.305 14.33 30.513 4.457zM68.715 92.884l18.72 24.503-.742-30.828-17.52 25.377 29.09-10.233zm-16.858 44.45 27.966 12.993-14.988-26.95-3.715 30.612 21-22.582zm5.73 47.176 30.8-1.49-25.794-16.899 10.935 28.833L81.63 165.2zm26.997 39.111 26.58-15.633-30.692-2.977 23.081 20.45-6.654-30.111zm42.078 22.087 16.272-26.194-28.561 11.626 29.94 7.382-19.883-23.57zm37.244-57.818c2.285-.622 4.549-1.321 6.805-2.043q.045 1.048.072 2.103c-1.433.441-2.865.878-4.299 1.295q.006.776.007 1.553c1.335-.383 2.67-.782 4.008-1.182q.01 1.01.006 2.024c-1.343.387-2.68.777-4.017 1.155q-.005.966-.016 1.934c1.479-.412 2.959-.835 4.446-1.246q-.024 1.134-.071 2.275c-2.329.614-4.644 1.275-6.971 1.885q.052-4.887.03-9.753m-10.536 2.078a46 46 0 0 0 4.361-.629c.945-.18 1.647-.077 2.112.338q.252.222.412.547.288.583.287 1.505a4.4 4.4 0 0 1-.292 1.637 3.5 3.5 0 0 1-.471.839c-.502.662-1.274 1.106-2.319 1.291q-.71.125-1.425.23a360 360 0 0 1-.032 3.599q-1.314.185-2.636.288.065-4.83.003-9.645m2.668 3.795q.32-.047.64-.1c.501-.081.853-.246 1.055-.481q.303-.362.302-.832-.002-.457-.266-.725c-.177-.18-.508-.223-.996-.141a46 46 0 0 1-.743.12q.008 1.08.008 2.159m-14.967.048c-.008-1.581.371-2.722 1.139-3.447.771-.728 1.839-.958 3.222-.768 1.414.194 2.508.706 3.281 1.605.773.895 1.167 2.095 1.168 3.642q0 1.685-.513 2.753c-.336.705-.824 1.244-1.457 1.601-.629.352-1.413.481-2.35.364-.951-.12-1.743-.42-2.369-.874-.624-.454-1.132-1.101-1.524-1.931s-.591-1.816-.597-2.945m2.595.52q.007 1.461.484 2.175c.322.474.757.752 1.304.823.563.073.999-.089 1.308-.473q.462-.577.46-2.19c-.001-.906-.165-1.579-.491-2.028a1.85 1.85 0 0 0-1.314-.787c-.531-.071-.955.074-1.275.448q-.481.56-.476 2.032m-13.856-8.642q1.248.447 2.507.864-.04 1.695-.05 3.402 1.4.444 2.802.853 0-1.698.012-3.388 1.277.379 2.564.719-.003 4.83.052 9.7-1.289-.332-2.573-.692a403 403 0 0 1-.046-3.951q-1.405-.405-2.81-.838.013 1.984.067 3.984-1.273-.376-2.542-.755-.207-5.02.017-9.898"/></svg>