<svg xmlns="http://www.w3.org/2000/svg" width="300" height="300" fill="none"><path fill="#041E42" d="M0 300h300V0H0z"/><path fill="#fff" fill-rule="evenodd" d="M19.504 63.358c-9.622 32.077 29.067 57.996 55.42 34.74 27.638-29.02-3.204-68.215-35.234-55.704 23.377-4.02 37.31 22.99 21.592 39.844-15.184 15.51-42.872 5.318-41.778-18.88m168.82-3.977c-1.226.57-2.132 2.229-2.649 3.538-1.228 3.654-2.491 7.3-3.725 10.949-.644 1.64-1.265 3.31-1.914 4.937-1.19-.16.47-2.194.378-3.065.394-1.786 1.268-3.532 1.343-5.355-.299-1.365.03-3.137-.647-4.248-1.012 2.334-2.293 4.57-3.164 6.957-.654 2.864-1.533 5.677-1.9 8.6-.22 1.512-.486 3.004-.977 4.454-1.211-.113-.891-2.248-1.604-3.128-.646-2.056-1.948-3.835-2.889-5.765-.481-.478-1.586-3.838-1.566-1.965-.108 1.353-.201 2.707-.325 4.059-2.692-5.031-5.392-10.058-8.087-15.087.219 1.634-.007 3.395.587 4.938 1.307 2.818 2.501 5.687 3.75 8.531-.657.622-.789-.405-1.118-.823l-7.47-13.19c-1.006.707-.306 2.01-.435 3.028.41 1.428 1.357 2.708 2.002 4.06 1.178 2.206 2.39 4.4 3.6 6.582-.868.956-1.34-1.752-1.961-2.362-2.252-3.906-4.48-7.827-6.799-11.694-1.016.35-1.33 1.095-1.159 2.08-.168.986.24 1.825.811 2.618 1.742 3.015 3.501 6.022 5.258 9.029-.596.69-.778-.319-1.125-.723l-8.48-13.42c-.688-.309-1.661-1.134-1.441.236-.326 1.716 1.538 2.916 2.148 4.4 2.515 3.89 5.105 7.801 7.609 11.654-.524.706-.764-.196-1.102-.584l-4.766-6.76c-.593-.154-1.356-.539-1.132.424-.039.61-.202 1.255.317 1.715 2.541 3.814 5.13 7.61 7.642 11.435.815 1.667 1.558 3.384 2.417 5.02l4.354 4.48c-1.042.84-2.097-1.823-3.135-2.304-1.099-1.237-2.577-2.225-3.197-3.809-.754-1.178-1.187-2.585-2.35-3.447-1.287-.967-2.277-2.727-3.771-3.164-.483 1.064-.089 3.46 1.357 4.283.144.397 2.173 1.763 1.059 1.483-2.184-.24-4.235-1.004-6.281-1.758-1.236 1.186 2.952 2.135.601 2.619-1.7.023-3.012-1.519-4.566-2.09-3.874-2.118-7.843-4.07-11.804-6.012l-2.467-.744c-.229 1.435 2.013 1.84 2.758 2.854 3.005 1.622 6.083 3.16 9.094 4.79-.096.905-.913.22-1.459.133l-16.906-5.444c-.946-.226-.781.27-.398.91.094.737.828.774 1.401.988 4.423 1.484 8.842 2.981 13.268 4.457.175.698.321 1.402.473 2.105-1.006-.829-1.997-1.776-3.374-1.865-2.881-.714-5.85-.109-8.771-.076-1.558-.373-1.76.885-.208 1.153 1.247.97 2.855.425 4.305.502q3.538-.105 7.074-.23c.418 1.344-2.302.445-2.405 1.536-.272 1.295 2.173 1.296 3.055 1.03 1.349.023 2.284-1.976 3.43-1.635-.3 1.282-2.551 1.568-2.807 2.895-.169 1.329 2.543.938 3.323.37.905-.752 2.464-1.887 2.547.127.263 1.82 2.67 1.116 3.979 1.732 2.333.356 4.721.504 7.033.886 2.211 1.003 4.43 2 6.637 3.007-.454 1.253-2.399-.646-3.407-.572-1.67-.466-3.208-1.414-4.982-1.432-1.534-.281-3.074-.248-4.613-.07-4.663.39-9.335.706-13.992 1.142-4.335.732-8.68 1.433-13.013 2.149-1.101.342-3.495.987-1.203 1.431 4.921-.231 9.832-.645 14.744-1.016.355.859-.701.566-1.229.703l-12.255 1.244c-1.257.93-2.936 1.442-3.621 2.963.197 2.165 2.908.185 4.251.329 3.534-.594 7.055-1.157 10.463-2.247 1.016.081 3.554-1.732 3.708-.43-3.854 1.189-7.717 2.394-11.603 3.471l-2.482.58c-.242 1.989 2.767.829 3.993 1.145 2.697-.63 5.267-1.719 7.932-2.474 1.422-.117 3.575-1.783 4.605-1.099-.915.934-3.041 1.427-4.369 2.2-2.743 1.2-5.524 2.301-8.196 3.663-1.761 1.784 1.87 1.62 2.762.697 2.855-1.31 5.675-2.693 8.488-4.103.69.57-.324.843-.683 1.234-1.594 1.248-3.148 2.538-4.926 3.519-.688.553-1.814.746-1.948 1.76 1.561.887 3.052-.189 4.451-.888a446 446 0 0 1 11.079-6.942c1.61-.721 3.261-1.345 4.895-2.004.632.63-.4.822-.792 1.192-1.796 1.202-3.599 2.396-5.391 3.603-1.959 2.027-3.733 4.255-6.047 5.9-1.079.902-2.18 1.715-3.033 2.71-1.691 1.702-3.443 3.343-5.119 5.06-.523 1.734-1.638 3.365-1.515 5.225.022 2.004-.206 4.029-.017 6.019.205.826.683 2.712.844.827.091-.862.686-3.833 1.324-1.748.351.78.696 3.131 1.111 2.723.609-1.206.722-2.899 1.702-3.814.873.51 1.563 1.767 2.395.321 1.056-1.23.899-3.077 1.425-4.573q.678-2.913 1.362-5.825c.827-.239.631.763.837 1.277l.795 3.59c1.805-.783 1.068-3.224 1.65-4.768.116-1.157.484-4.205 1.727-1.879.73 1.751 2.753-.267 2.692-1.541.413-2.017.808-4.039 1.231-6.054.541.965 1.107 1.918 1.66 2.877 1.886-.088 2.534-1.979 3.757-3.1 1.1-1.141 2.08-2.463 3.3-3.456 1.39-.716 2.692-1.673 4.122-2.29 1.395 1.289-.71 3.03-1.503 4.137-1.769 2.185-3.952 3.985-5.804 6.101-.731.844-1.874 1.552-1.567 2.808.929.414 1.898.79 2.834 1.21-1.414.709-2.933 1.318-4.237 2.176-1.263 1.093-2.626 2.062-3.951 3.078-.357.961-.588 2.046.833 1.646 1.015-.175 3.749.259 1.601 1.259-2.019 1.32-4.357 2.144-6.356 3.45-.553.739-2.039 1.899-.229 1.846 1.209-.173 3.019-2.016 3.917-1.083-1.271 1.404-2.918 2.759-4.308 4.162-.709.548-2.279 2.072-1.35 2.5 2.204-1.053 3.752-3.033 5.629-4.542.66-1.048 2.427-1.978 1.868.064-2.18 2.714-4.286 5.504-6.529 8.146.226 2.654 1.932-.761 2.773-1.473 1.31-1.548 2.529-3.205 4.242-4.337.595-.129 2.163-2.364 2.246-1.45-.04.76.195 1.608-.451 2.199-1.355 1.827-2.261 3.916-3.371 5.891-.183.853-.373 3.303.859 2.147 1.467-2.735 3.257-5.293 4.412-8.19 1.183-2.484 1.982-5.151 2.974-7.698.835-1.246 1.243-.824 1.127.479.135 1.212.084 3.804.92 3.987 1.521-3.474 3.429-6.759 5.05-10.181.561-1.67 1.228-3.31 1.921-4.934.873-.092.472.856.558 1.407-.059 1.104.117 2.247-.086 3.328-.942 2.705-1.648 5.495-2.962 8.056-.796 1.646-1.922 3.13-2.692 4.786-.771 1.005-.485 1.013.385.422 1.537-.704 2.57-2.025 3.637-3.281 1.677-1.345.432 1.714.045 2.362-.912 2.587-1.503 5.3-2.535 7.854-.013.774-.281 2.554.705 1.191 1.851-1.447 2.525-3.765 3.632-5.743.671.982 1.935 1.548 2.546.339-.102-1.528-.807-3.111-.119-4.591a64 64 0 0 0 1.62-7.449c.185-1.526.287-3.068.476-4.588.849-.437.49.91.558 1.422v3.488c.832.091 2.357-1.382 2.792-.415-.84.719-2.121 1.164-2.881 1.946l-.097 2.921 3.106-1.89c.735.517-.239.874-.571 1.301l-2.549 2.378-.043 2.061c.72-.226 1.445-.437 2.161-.673.591.672-.428.824-.85 1.174-.478.444-1.551.52-1.396 1.354a426 426 0 0 1-.216 6.29c.379-.75 1.714-2.554 1.519-2.657-.438.857-2.031.914-.946.023.451-.548 2.909-2.298 2.041-.549-.846 1.22-1.581 2.844-2.469 3.846-.253-.024-.556 1.769.21 1.415.635.433 2.596.63 1.242 1.382-.58.582-1.306 1.1-1.797 1.721.04 1.755-.402 4.678-.059 5.698.518-.728 2.222-2.042 1.864-2.386-.718.344-2.908.18-1.376-.378.934-.353 3.542-.453 1.876 1.017-.888 1.583-3.003 2.081-2.604 3.812.008 1.278-.515 2.058 1.049 1.824 1.789-.156 1.914 1.587.301 2.064-1.109.648-2.079.605-1.409 2.076.346.966 2.732 1.619 2.133 2.62-.089-1.129-.343.435-.961-.698-.76-.606-1.738-2.046-1.417-.135a6662 6662 0 0 1-.428 10.938c.753-.23 2.087.824 2.1 1.312-.776.719-2.627-2.422-2.146.065.026 1.121-.268 3.191-.04 3.713.373-.314.965.584 1.424.739l1.568 1.085c-.288.888-.901-.028-1.392-.264l-1.728-1.196c.135 1.482-.516 4.209.08 4.976.681.502 2.458 1.943 2.414 2.749-.879.235-2.149-2.389-2.703-2.239-.086 2.212-.165 4.425-.249 6.637.923.31 2.794 1.513 3.282 2.27-.835.707-2.596-1.919-3.319-1.585-.131 1.787-.023 3.614-.279 5.381-.339 1.284 3.199.967 2.434 2.279-1.305-.43-3.116-2.297-3.126.116-.279 1.923-2.03 3.887-.667 5.71.524 1.48 2.205 2.11 3.464 2.863 1.486-.235 2.913-.969 4.461-1.027 2.281-.354 4.602-.481 6.875-.848.961-.701 2.152-1.362.704-2.26-1.153-1.416-.879-3.433-1.548-5.04-.002-1.308-.27-1.877-1.421-.933-.902.179-2.305 2.103-2.816.904 1.348-.652 2.571-1.501 3.936-2.133-.161-1.712-.492-3.414-.458-5.138-1.078.695-2.671 2.141-3.706 1.942.422-.963 2.484-1.387 3.363-2.4.638-.009.221-.915.33-1.45l-.044-4.476c-.999 1.127-2.195 1.932-3.707 2.175-1.125-.983 1.717-.629 2.084-1.466.68-.768 1.937-1.247 1.6-2.448l-.034-3.958c-.879.583-2.49 2.677-3.339 1.81.918-.818 2.905-1.601 3.321-2.824l-.054-5.141a6.78 6.78 0 0 1-3.771 2.532c-.751.833-2.284.093-.756-.324 1.49-.494 2.995-1.033 3.921-2.388.843-.451.559-1.253.59-2.085l-.041-3.661c-1.78 1.578-3.388 3.328-5.153 4.924-.929-.981 1.727-1.832 2.104-2.806.879-1.053 2.369-2.07 3.047-2.975l-.041-3.995c-.678.627-1.777 1.422-.386.672.622.701-.471.772-.928 1.077-.631.295-1.263.586-1.892.884-.658-1.235 2.129-1.841 2.685-2.928.752.185.473-.524.507-1.256l-.029-2.787c-.93 1.694-2.783.712-4.261.404-1.092-.089-.065-.422.389-.692l3.514-1.887c.661.666-.429.793-.87 1.119l-2.078 1.099c1.298.728 2.891.262 3.289-.999a132 132 0 0 0-.169-6.658c-1.026 1.031-1.616 2.159-2.891 2.619.596-.276 3.057.082 1.402.515-.949.19-4.117.311-1.9-.898 1.132-.445 1.868-1.272 2.588-2.222.856-.493.848-.828.732-1.836l-.174-4.119c-.52.639-2.733 2.389-2.169 2.387.663-.418 3.26-.539 1.716.211-.991-.063-3.131 1.316-3.484.108 1.38-.793 2.395-2.03 3.547-3.121.675.087.23-.905.315-1.519l-.498-12.365c-.648.575-3.363 2.769-2.37.592.665-.763 1.343-2.097 2.082-2.356.484-.249.042-1.149.155-1.658.112-1.262-.658-2.336-1.034-3.495-.026-.473-.913-1.3-.159-1.44.821.697 1.21 2.591 1.875 3.712 1.012 2.342 2.167 4.633 3.058 7.021.493 1.987 1.017 3.968 1.088 6.026.505-.184 1.448.121 1.413-.667.118-.775.678-1.575.186-2.317-2.216-6.033-4.737-11.945-7.081-17.928.556-.578.74.21.958.678 1.364 2.718 2.254 5.642 3.39 8.461 1.153 3.057 2.366 6.096 3.753 9.053 2.136-1.242.37-3.467.068-5.275-.998-3.306-2.347-6.496-3.504-9.749-.343-.578-1.093-.85-1.593-1.31-.735-.543-1.489-1.092-2.213-1.629.602-1.138 1.939.862 2.864.961 1.589 1.675 1.981-.9 3.391-1.196.396 1.452-2.285 2.626-.858 4.303 1.029 3.509 1.952 7.055 3.315 10.454l.678 1.838c-.461.663.195 3.498 1.135 2.767.322-1.53 1.301-3.045.469-4.593-1.22-4.664-2.895-9.194-4.306-13.803.019-1.68 1.068.716 1.185 1.438 1.622 4.403 3.376 8.765 4.809 13.232-.305 1.312-.295 4.088 1.417 2.519.077-1.751.213-3.546-.515-5.195-1.483-3.945-2.661-8.005-3.98-12.01-.753.82-2.17.035-2.39-.87.253-1.99-1.39-1.934-2.873-1.806-.649-.064 1.132-.994 1.341-1.332.802-.44 2.51-1.789.863-2.15-.526-.242-1.05-.49-1.578-.727.786-1.353 1.6-2.681 2.642-3.858.641-1.17.154-3.268-1.091-3.982-.903-.496-.801-1.639-1.158-2.487-.471-.499.001-1.461.377-.737l.704 2.419c1.359.729 1.99 1.926 1.959 3.436.62 1.408-1.014 2.263-1.617 3.329-.359.522-.662 1.085-1.001 1.623.757.356 1.53.681 2.276 1.059.157 1.422-2.298 2.363-2.118 2.848 2.383-.639.936 2.682 2.735 2.954.611-.006 1.142-.614 1.721-.867 1.032.195-.433.676-.19 1.137 1.923 5.23 3.898 10.463 5.725 15.714-.174 1.899 1.636 2.147 2.763 2.934.156 1.013.64 2.936 1.709 2.523.046-2.709.215-5.434.223-8.134.155-.925-1.417-3.166-.129-3.278.723 2.118 1.68 4.184 2.177 6.364.35 1.417-.347 3.718 1.684 3.928.897.365.203-2.891 1.163-2.004l1.589 1.259c2.15.052.551-2.305.587-3.507-.676-1.681-1.318-3.382-1.99-5.067 1.001-.414-.537.147-.248-.927-.231-1.662-1.308-2.912-2.272-4.211-.409-.881-.381-1.924-1.145-.673-.909.752-.509 1.994.129 2.787 1.037 1.605.934 3.726 2.229 5.176.569.935 1.334 1.878 1.136 3.037.05.534.093 1.595-.573 1.082-.089-.906.243-1.886-.317-2.606-.687-1.349-1.672-2.191-1.945-3.708-.297-1.524-1.147-2.827-1.789-4.208.144-.335-2.139.184-1.962-.53.632-.088.52-.366 1.59-.128.81-.685.802-1.976.258-2.834-1.075-2.409-2.731-4.521-3.937-6.857-.304-1.524.302-3.401-1.16-4.463-1.51-1.471-2.275-3.455-3.119-5.342-.971-1.352-2.551-2.149-3.679-3.378-.614.195-2.93.267-1.78-.427 1.584-.633 2.675.271 3.684 1.343 1.149.894 2.371 1.819 2.756 3.287.717 1.714 1.65 3.3 2.979 4.615 1.17 1.099.566 2.856.878 4.265 1.44 2.613 3.367 4.999 4.337 7.844-.21 1.244.343-.398.934-.253-.056-1.409.435-3.315-.476-4.628-.952-1.769-2.06-3.475-2.92-5.282-.599-1.29-1.332-2.903-1.999-4.31-.701-1.627-1.719-3.087-2.682-4.564.96-1.004 1.46 1.887 2.204 2.39 1.677 2.965 2.732 6.241 4.564 9.122.535 1.265 1.668 2.375 1.908 3.722.184.805-.32 3.414.334 3.197.326-.628.658-1.254.981-1.885.522-.247 1.556-.089 1.682-.661.181-1.758-1.59-3.038-1.768-4.764-.5-2.353-1.443-4.58-2.614-6.674-1.256-2.758-3.1-5.207-4.094-8.086-.263-1.679 1.098.465 1.127 1.249.967 2.2 2.378 4.176 3.377 6.369.951 1.784 1.861 3.583 2.384 5.548.358 1.847 1.12 3.555 2.082 5.173.165.738-.022 1.314.607 1.381.291.678-1.122.335-.563 1.374.161.651-.169 3.109-.656 1.71.042-1.154.586-3.03-1.062-2.146-.439.38-.607 1.105-.944 1.615-.277.693-1.315.644-.608 1.628.924 1.376 2.153 2.601 2.395 4.314.196 1.528 1.465 2.563 2.233 3.883.833.856 1.809 3.475 2.644 3.005.373-1.627-1.055-2.712-1.578-4.125-1.117-2.391-2.131-4.829-3.198-7.243.867.626 1.972.99 2.467 2.017 1.985 2.644 3.937 5.316 5.978 7.917 2.138 1.027.825-1.638.172-2.476-1.631-3.291-3.863-6.235-5.79-9.356-.418-.426-1.756-2.503-.507-1.864l6.597 8.142c.743.508 2.085.931 1.639-.334-1.886-3.443-4.287-6.57-6.387-9.886-2.195-3.123-4.06-6.461-6.03-9.733 1.037-.839 2.397 1.267 3.552 1.543 1.849 1.009 3.496 2.298 5.009 3.756 2.55 2.217 5.001 4.563 7.651 6.657 1.32.723 2.35 1.987 3.77 2.458.024-.477-1.452-2.269-.832-2.257 1.488.419 2.895 1.037 4.27 1.725.922.453 3.804 1.537 2.359-.341-.459-.94-2.649-1.449-2.291-2.469.406-.218 1.066.468 1.57.598 1.157.695 2.457 1.011 3.784 1.198 1.941-.087.722-2.108-.589-2.121-3.008-1.603-5.993-3.252-8.987-4.879.621-1.257 2.652.739 3.822.673.684-.215 3.197.302 2.317-.884-.372-.456-1.141-.471-1.674-.749-4.102-1.486-8.212-2.953-12.309-4.45-1.748-1.178-3.525-2.319-5.281-3.478.268-1.077 2.03.31 2.905.2 1.535.401 3.077.732 4.672.713 1.024.028 3.171.288 3.543.118-.678-.366-3.669-1.232-1.962-1.699.857-.052 3.55-.106 1.254-.192-1.628-.169-3.329-.111-4.902-.543.202-.582 1.015-.363 2.077-.25 1.16.398 3.509-.283 3.963.689 1.151.369 3.173-.104 4.654-.015 2.05-.18 4.305.103 6.226-.403.67-1.043 2.672-1.382 2.635-2.735-.133-1.256-.148-2.551-.354-3.784-.427-.465-.517-1.412-1.239-1.455-1.936-.317-3.787-.85-5.623-1.509-3.82-.093-7.656-.058-11.465-.286-1.235-.08-2.705 1.038-4.123.96-2.191.22-4.429.038-6.554.716-.819.635-1.959-.281-.646-.445 1.642-.434 3.303-.731 5.006-.706 1.732-.055 3.474-.184 5.079-.894.985-.667 1.203.467 1.396-.771.901-.342 3.784-.1 3.105-1.05-3.558.12-7.118.164-10.678.23-1.28-.127-2.913.664-4.18 1.273-1.484.6-.259-.905.659-.945 1.576-.934 3.536-.703 5.067-1.717 2.392-1.115 4.64-2.526 6.971-3.75.605-.537 2.291-1.372.508-1.545-1.399-.323-2.895.483-4.344.5-1.912.337.002-1.328.72-1.65a92 92 0 0 0 6.551-3.732c.677-.517 2.676-.87 2.033-1.732-1.81.604-3.601 1.469-5.454 1.975-.626.15-3.468.5-2.065-.607 2.729-1.802 5.414-3.67 8.12-5.505.901-1.21.248-1.242-.833-.748-1.253.382-2.187 1.406-3.354 2.002-.4.702-2.645 1.296-1.453.08 1.208-1.05 2.389-2.136 3.65-3.123.638-.888 1.291-3.002-.44-2.006-1.116.588-2.551.676-3.329 1.761-1.374 1.428-2.774 2.846-4.132 4.281-.993-.93 1.575-1.957 1.891-2.943 1.115-1.277 2.29-2.519 3.291-3.885.211-1.12.26-1.908-.876-1.127l-1.658.712c.166 1.156-2.285 2.362-3.063 3.507-1.317 1.124-3.107 1.596-4.266 2.935-.925-.989 1.622-1.739 2.276-2.32 1.852-.9 3.104-2.597 4.595-3.964-1.631.33-3.511.263-4.466 1.89-2.47 2.347-4.873 4.777-7.4 7.056a261 261 0 0 1-9.376 6.227c-1.446.582-3.502.103-4.187 1.848-1.208 1.7-2.639 3.22-3.986 4.807 1.448-.318 2.822.012 4.13.654 1.256.44 2.324 1.308 3.528 1.851-.268 1.197-1.919 2.103-3.218 1.884-.816-.022-1.552-.574-2.336-.81.078-.941.876-.182 1.409-.049 1.046.567 2.466.346 3.237-.582-.403-.826-2.537-1.66-3.776-2.122-1.125-.676-2.413-.21-3.632-.196-1.443.328.402-.95.616-1.45 1.596-1.793 3.123-3.643 4.508-5.606-.101-1.45 1.507-2.474 2.041-3.81 1.575-2.321 2.388-5.056 3.595-7.578.514-1.051.249-2.28.383-3.418-.038-.618.18-1.29-.036-1.87-1.12 2.062-2.273 4.122-3.349 6.198-1.326.076-.137-2.025.245-2.57 1.019-2.06 2.169-4.085 3.122-6.16l.082-2.607c-.858-.746-1.29 1.8-1.972 2.397-1.492 2.484-2.87 5.05-4.425 7.488-.153.824-1.8 1.423-1.14.255a920 920 0 0 1 6.785-12.207c.916-1.625.622-3.522.752-5.304-.878-1.388-1.491.747-2.195 1.298-.9 1.118-1.231 2.587-1.923 3.843-1.122 2.436-2.285 4.857-3.425 7.283-1.275-.525.736-2.43.753-3.501q1.638-4.239 3.269-8.48c-.545-1.134-1.769 1.859-2.347 2.548-1.039 2.32-2.244 4.561-3.393 6.828-1.228-.535.75-2.421.696-3.448.595-1.718 1.377-3.418 1.952-5.112-.086-.639.82-2.3.015-2.333m7.872 30.803c.283 1.13-1.419 1.645-2.118 2.52-.88.328-4.024 1.1-2.671 1.807.895-.474 1.792-.944 2.685-1.42 1.143 1.084 2.873 2.246 2.738 3.903-1.086.272-.623-2.13-1.916-2.353-.596-1.03-1.351-.768-2.153-.2-.638.344-1.29.664-1.918 1.025-1.068-1.458.116-2.637 1.652-2.81 1.524-.239 2.411-1.552 3.558-2.429l.032-.026zm8.102 3.15c.106 1.274-2.136.718-2.74 1.794-.978.472-1.968 1.925-2.841 1.913-.964-.188 1.159-1.12 1.497-1.644 1.222-.98 2.469-1.882 4.084-2.064m10.392 4.98c-.074.19-.248.238 0 0m-29.358 1.246c1.329.5 2.744.817 3.869 1.735 1.453.514 1.522 2.176 1.944 3.431.04.809-.658 3.381-1.391 2.831.296-1.186 1.348-2.647.459-4.003-.117-1.491-1.665-1.906-2.713-2.625l-2.368-.839zm37.416.143c2.699.11 5.42.229 8.102.487.299.316-.539.335-.415.501-3.475-.158-6.95-.581-10.428-.293-1.629-.209-3.051 1.035-4.701.684-.879.172-2.903-.298-1.518-.663 1.58.177 3.188.196 4.662-.481 1.397-.255 2.876-.085 4.298-.235m-4.151 2.262c2.788.397 5.588.644 8.406.61 1.775.099 3.853-.078 5.448.205-.265 1.182-2.745.042-3.805.395-3.129-.037-6.265-.037-9.361-.552-.6.017-.786-.077-.688-.658m3.021 3.12c1.147 1.195 2.789 1.41 4.44 1.142 1.942-.126 3.932.4 5.816-.323 1.638-.152-.119.922-.977.815-1.904.4-3.85-.129-5.772.112-1.537.544-2.795-.751-3.898-1.039-.825.487-1.731.593-2.663.524h-4.017c-.272-.893.757-.486 1.292-.572 1.339-.01 2.682.019 4.018-.015.58-.227 1.145-.527 1.761-.644m-54.722 1.818c1.395.574-1.134 1.956-.722 2.864.062.953.175 1.63.622.314.204-.616.394-1.237.615-1.847.564.93 1.305 1.451 2.376 1.46.458.785.677 2.565 1.159.921.442-.849.783-1.829 1.418-2.524 1.033.59-.143 2.689.157 3.765-.085 1.694.275 3.39.036 5.088.148 1.012-.85 3.586.948 2.358.62-.295.702-1.17 1.082-1.723.689-1.332.434-2.954.883-4.364 1.334-.342.123 3.706 1.41 2.422.375-1.37-.64-2.524-.752-4.039v-2.691c.893-.271.486.757.573 1.293-.066 1.078.047 2.151.515 3.144 1.471.794 1.235-1.941 2.405-2.49 1.274-.51.558-3.167 1.846-2.878-.119 1.638-1.031 2.993-2.161 4.109-.463.78-.678 2.663-2.004 1.903.962.987-.13 3.055-1.317 2.706-.262-.877-.283-1.903-.423-.405-.042 1.251-.916 2.24-1.366 3.368-1.081.593-3.025 1.243-2.314-.767.132-2.155.288-4.311.024-6.462-.025-.706.36-2.929.009-2.492-.497 1.005-.972 2.028-1.469 3.036-.615-.921-.371-3.094-1.828-2.874-.808-.161-1.093-1.125-1.293.183-.357.387-.802 2.549-1.445 1.575-.157-1.19-.059-3.038-1.417-1.589-.25-.967-.486-1.938-.73-2.906.801-.486.659.61.871 1.111-.046 1.644 1.713.042 1.92-.81q.185-.381.372-.759m22.444 7.257c1.526 3.092 3.143 6.148 4.781 9.19.884 2.158 1.953 4.266 2.326 6.589-.35 1.103 2.25 2.599.98 2.886-1.402-1.095-1.546-2.836-1.932-4.437-.916-2.857-2.236-5.58-3.702-8.198-1.057-1.88-1.954-3.834-2.94-5.744zm-3.12 3.378c1.458.167-1.326 1.685.488 1.856.94.154.697 1.482 1.549 1.705 2.143.123-.232 3.171 1.97 2.723 1.058.832-.054 2.986 1.604 3.535 1.377.663.987 2.295 1.63 3.427.154.867.65.736 1.249.308.445-.295 1.336-.754 1.168.06l-2.33 1.158c-.618-1.198-1.169-2.433-1.302-3.793-1.213-.913-2.312-1.928-2.122-3.594.288-1.279-2.147.023-1.504-1.586.843-1.635-1.045-1.425-1.435-2.522-.107-1.101-1.758-.921-1.853-1.888.272-.479.614-.912.888-1.389m-8.746 15.788c-.24.712-2.53 2.85-.836 1.499.876-.53 1.001-.185.842-1.36l-.004-.1zm-.344 5.082c1.656.282-2.058 1.875-1.261 1.915.486-.353 1.525-.308.985.305l-2.415.743c-.6-1.286 2.038-1.927 2.663-2.935zm.172 5.482c1.359.042-.744 1.415-1.131 2.004-1.483 1.205 1.764-1.195 1.503-.003-.621.436-2.876 1.854-3.655 1.069.975-1.11 2.373-1.834 3.283-3.07m-8.159 4.909c-.075 1.047-.275 2.362.731 1.061 1.12-.687-.117-.656-.731-1.061m-.486 12.668c-.025.983-.396 2.547.901 1.317.961-.418 1.68-1.172.135-1.159-.345-.056-.692-.104-1.036-.158m-.244 10.736c.864.526 3.07.658 3.014 1.642-.618-.096-2.905-.623-3.014-1.368zm-3.936 36.171c-3.381.093-6.773-.017-10.149.1-1.458.929-3.144 1.54-4.285 2.885-.863 1.214 1.45 2.253 2.639 1.981.6.399 2.74-.38 2.376.745-.56 1.624-2.387 1.91-3.592 2.891-.744 1.545 1.021 3.463 2.347 1.99.786-.747 1.465-.833 2.021.089.921.721-.644 2.664 1.372 2.559 1.316-.664 2.492-1.822 3.728-2.701.821-1.049 2.15-2.215 2.67-.234 1.205 1.031 2.717.775 4.157.68 1.769-.061 3.716-.298 4.733-1.964 1.653-.79 3.23.823 4.063 2.117 1.117.733 2.978.83 2.409-1.027-.438-1.216-.059-2.501 1.402-1.718 1.6.306 2.842 1.518 4.377 1.941-.093-1.167-.109-3.365 1.511-1.871 1.366.989 2.792 1.949 4.444 2.386.059-.689-.123-1.443.1-2.089 1.061-1.092 3.185 2.109 2.72-.33.221-.837-.926-2.688.243-2.562 1.613.681 3.316 1.151 5.038 1.46-1.14-1.896-3.176-2.938-4.909-4.208-1.673-.697-3.442-1.249-5.272-1.214-1.976-.18-4-.098-5.949-.387-.835-.607-.698-.065-.545.112-1.166 1.671-3.248 1.347-5.011 1.663-2.463.235-4.951.481-7.285 1.358-1.612.209-3.039-1.213-4.206-2.205-.513-.711-.756-1.645-1.147-2.447" clip-rule="evenodd"/></svg>