<svg xmlns="http://www.w3.org/2000/svg" width="300" height="300" fill="none"><mask id="a" width="300" height="300" x="0" y="0" maskUnits="userSpaceOnUse" style="mask-type:alpha"><path fill="#003776" d="M0 300h300V0H0z"/></mask><g mask="url(#a)"><path fill="#BF0D3E" d="M-50 0h600v300H-50z"/><path fill="#fff" d="M-50 0h600v150H-50z"/><path fill="#00205B" d="M-50 0h200v300H-50z"/><path fill="#fff" d="m64.047 103-14.87 45.762 20.34 6.609"/><path fill="#fff" d="m64.047 103 14.869 45.762-20.339 6.609"/><path fill="#fff" d="M109.811 136.248H61.693v21.386"/><path fill="#fff" d="m109.811 136.248-38.928 28.283-12.57-17.301"/><path fill="#fff" d="m92.33 190.045-14.869-45.762-20.339 6.608"/><path fill="#fff" d="m92.33 190.045-38.928-28.283 12.57-17.301"/><path fill="#fff" d="m35.764 190.045 38.927-28.283-12.57-17.301"/><path fill="#fff" d="m35.764 190.045 14.869-45.762 20.339 6.608"/><path fill="#fff" d="m18.285 136.248 38.928 28.283 12.57-17.301"/><path fill="#fff" d="M18.285 136.248h48.118v21.386"/></g></svg>