<svg xmlns="http://www.w3.org/2000/svg" width="300" height="300" fill="none"><path fill="#C00" d="M0 0h300v300H0z"/><path fill="#fff" d="M255 0h45v300h-45z"/><path fill="#002D65" d="M262.5 0H300v300h-37.5z"/><path fill="#002D65" d="M262.5 0H300v300h-37.5z"/><path fill="#fff" d="M129.363 231.816c45.487 0 82.362-36.875 82.362-82.362 0-45.488-36.875-82.363-82.362-82.363C83.875 67.09 47 103.966 47 149.454s36.875 82.362 82.363 82.362"/><path fill="#002D65" d="M129.363 225.481c41.989 0 76.027-34.039 76.027-76.027s-34.038-76.027-76.027-76.027-76.027 34.038-76.027 76.027c0 41.988 34.038 76.027 76.027 76.027"/><path fill="#fff" d="m128.383 152.466-21.103 29.045 14.523 10.551"/><path fill="#fff" d="M128.383 152.466v35.902h-17.951"/><path fill="#fff" d="m153.191 186.611-34.144-11.095-5.547 17.073"/><path fill="#fff" d="m153.191 186.611-34.144 11.094-5.547-17.072"/><path fill="#fff" d="M128.385 220.755v-35.901h-17.951"/><path fill="#fff" d="m128.385 220.755-21.103-29.045 14.523-10.551"/><path fill="#fff" d="m88.244 207.713 34.145-11.094-5.547-17.072"/><path fill="#fff" d="m88.244 207.713 21.103-29.045 14.522 10.551"/><path fill="#fff" d="m88.244 165.508 21.103 29.045 14.522-10.551"/><path fill="#fff" d="m88.244 165.508 34.145 11.095-5.547 17.072m10.4-46.576-14.602-32.797-16.4 7.301"/><path fill="#fff" d="m127.242 147.099-31.092-17.95 8.976-15.546"/><path fill="#fff" d="m85.268 151.511 26.68-24.023-12.012-13.34"/><path fill="#fff" d="m85.268 151.511 7.464-35.117 17.559 3.732"/><path fill="#fff" d="m68.102 112.955 31.091 17.951 8.976-15.546"/><path fill="#fff" d="m68.102 112.955 35.705-3.753 1.876 17.853"/><path fill="#fff" d="m99.467 84.714-7.465 35.117 17.559 3.733"/><path fill="#fff" d="m99.467 84.714 14.602 32.798-16.399 7.301"/><path fill="#fff" d="m136.018 105.817-35.705 3.752 1.876 17.853"/><path fill="#fff" d="m136.018 105.817-26.681 24.023-12.011-13.341m35.135 32.296 35.705 3.753 1.876-17.853"/><path fill="#fff" d="m132.461 148.795 31.092-17.951 8.975 15.546"/><path fill="#fff" d="m149.627 110.239 7.464 35.117 17.559-3.732"/><path fill="#fff" d="m149.627 110.239 26.68 24.023-12.011 13.34"/><path fill="#fff" d="m191.6 114.65-31.092 17.951 8.975 15.546"/><path fill="#fff" d="m191.6 114.65-14.603 32.798-16.399-7.301"/><path fill="#fff" d="m200.377 155.933-26.68-24.023-12.012 13.34"/><path fill="#fff" d="m200.377 155.933-35.705-3.753 1.876-17.852"/><path fill="#fff" d="m163.824 177.035 14.603-32.797-16.399-7.302"/><path fill="#fff" d="m163.824 177.035-7.464-35.117 17.558-3.732"/></svg>