<svg xmlns="http://www.w3.org/2000/svg" width="300" height="300" fill="none">
  <mask id="mask0_42_281" width="300" height="300" x="0" y="0" maskUnits="userSpaceOnUse" style="mask-type:alpha">
    <path fill="#003776" d="M0 300h300V0H0v300Z"/>
  </mask>
  <g mask="url(#mask0_42_281)">
    <path fill="#fff" fill-rule="evenodd" d="M0 0h300v300H0V0Z" clip-rule="evenodd"/>
  </g>
  <path fill="#E81B39" d="M0 90.057h300v60H0v-60Zm0 90h300v60H0v-60ZM120 38.321l18.541 13.471-7.082 21.796L150 60.118l18.541 13.47-7.082-21.796L180 38.322h-22.918L150 16.524l-7.082 21.796H120ZM228 38.321l18.544 13.473-7.081 21.794 18.539-13.469 18.539 13.47-7.081-21.795 18.544-13.473h-22.919l-7.082-21.796-7.082 21.796H228ZM12 38.321l18.544 13.473-7.081 21.794L42.002 60.12l18.54 13.47-7.082-21.795 18.544-13.473H49.085l-7.082-21.796-7.082 21.796H12Z"/>
</svg>
