<svg xmlns="http://www.w3.org/2000/svg" width="600" height="300" fill="none"><g clip-path="url(#a)"><path fill="#fff" d="M0 0h600v300H0z"/><path fill="#000" d="M438.36 217.98c9.85-4.042 19.667-8.143 29.52-12.176-.521 1.491-1.203 3.197-2.952 3.95-9.083 3.714-18.148 7.458-27.228 11.17-.599.256-1.193.534-1.845.67.598-1.022 1.163-2.056 1.74-3.083.122-.287.468-.402.765-.531m-30.673-14.053c2.121 1.376 4.049 2.95 5.402 4.645 2.503 3.269 3.148 7.506 1.595 11.182-.135.302-.42.527-.663.768.481-2.034.623-4.19-.13-6.189-1.033-2.904-3.372-5.342-6.493-6.77.053-1.27.212-2.551.289-3.636m-81.264-1.769c1.32-.946 3.153-1.038 4.805-1.036 1.659.098 3.414.16 4.876.912.692.682.035 1.489-.674 1.918-2.877 1.76-6.045 3.287-8.379 5.598-.633.597-.304 1.527.496 1.876 1.21.514 2.611.539 3.941.51 3.158-.145 6.192-1.158 8.835-2.602.736-.398 1.396-.893 2.157-1.261a33.3 33.3 0 0 1-5.48 4.548c-1.703 1.083-3.622 2.024-5.753 2.307-1.676.121-3.479.052-4.927-.751-1.613-.81-2.368-2.622-1.772-4.117.361-.841 1.028-1.552 1.73-2.208 1.811-1.626 4.024-2.87 6.233-4.071-1.497-.06-3.013-.129-4.501.025-.971.083-1.624.701-2.314 1.203-.208-.976-.213-2.133.727-2.851m-59.272-2.448c1.313-.545 3.124-.466 4.159.482.867.87.96 2.066.896 3.154-.694.784-1.494 1.506-2.076 2.361-1.217.192-2.496.023-3.686.327-.599.295-1.381.474-1.669 1.069-.375.768-.201 1.621-.041 2.416.618 2.775 1.762 5.502 1.703 8.361-.067 1.002-.145 2.043-.705 2.949-.13-1.589-.79-3.091-1.268-4.62-.904-2.786-1.62-5.644-1.726-8.54-.117-1.115.638-2.074 1.402-2.915 1.126-1.335 3.146-1.726 4.94-2.015-.467-.365-.994-.785-1.684-.704-.964.119-1.617.803-2.147 1.434-.096-1.392.353-3.035 1.902-3.759m85.956-.539q.129-.113.339-.085c-.511.495-.791 1.119-1.183 1.681-1.117 1.789-2.408 3.688-2.111 5.794.032.988.687 2.265 2.049 2.257.665-.281.837-1.001 1.171-1.519-.042 1.542-.309 3.414-2.017 4.296-1.419-.193-2.484-1.261-2.54-2.465-.29-3.643 1.509-7.236 4.292-9.959M98.683 178.648c.812-1.227 1.575-2.565 2.996-3.377-1.725 2.952-3.519 5.944-4.272 9.204-.25 1.246-.376 2.686.574 3.757.739.672 1.924.795 2.935.587 1.534-.287 2.248-1.648 2.881-2.728.486.805-.017 1.675-.24 2.478-.636 1.7-1.394 3.541-3.149 4.645-1.347.874-3.279.525-4.574-.245-1.708-1.132-1.748-3.185-1.448-4.847.675-3.364 2.42-6.487 4.297-9.474m125.052-13.169c.5-.807 1.482-1.764 2.687-1.36 1.448.37 3.171 1.343 2.94 2.804-.388.497-.886.923-1.325 1.387-.469-.753-.994-1.716-2.093-1.876-1.431.397-2.288 1.614-2.739 2.773-.95 2.532-1.161 5.205-1.426 7.837a26 26 0 0 1-1.045.451c.01-2.421-.611-4.993-2.528-6.869-.434-.622-1.399-.31-2.052-.61-1.217-.37-1.659-1.496-1.953-2.459-.147-.651-.41-1.433.103-2.014 1.077-.262 1.921.539 2.69 1.045 1.978 1.593 3.344 3.644 4.464 5.733.471-2.332.969-4.724 2.277-6.842m205.764-6.391c1.497-.437 3.072.137 4.297.869 2.044 1.282 3.639 3.023 4.871 4.894.658 1.083 1.409 2.271 1.144 3.532-.157.849-.236 1.76-.835 2.484-.662.695-1.906.624-2.741.21-.952-.457-1.86-.98-2.856-1.366-1.348 3.103-4.187 5.548-7.265 7.487-2.083 1.352-4.368 2.463-6.682 3.501-1.428.653-3.008 1.003-4.54 1.427-1.529.369-3.084.853-4.699.718 1.018-.05 1.823-.61 2.682-1.009 4.476-2.207 8.861-4.581 12.844-7.396 2.116-1.552 4.278-3.168 5.703-5.236a42 42 0 0 0-2.773-.42c-.748-1.846-.756-4.103.859-5.63-.805-.524-.898-1.475-1.033-2.265-.115-.689.158-1.563 1.024-1.8m4.014 4.571c.305 1.367.396 2.761.42 4.15 1.261.154 2.516.579 3.802.456.655-.081.63-.812.267-1.159-1.195-1.396-2.854-2.446-4.489-3.447m-4.272 2.23c.645 1.013 2.108 1.271 3.303 1.596.246-.653.562-1.338.442-2.031-.432-.715-1.019-1.652-2.103-1.647-.938.407-1.308 1.298-1.642 2.082m-82.794-8.727c.743-.815 2.003-1.213 3.19-1.244.825-.006 1.225.745 1.414 1.317.358 1.35.422 2.819-.354 4.077.403.248.808.5 1.22.745a26 26 0 0 0-.204 2.603c-.819-.373-1.45-.966-2.152-1.465-2.184 3.194-5.377 5.963-9.355 7.527a13.9 13.9 0 0 1-6.852 1.045c4.435-1.344 8.742-3.283 11.959-6.258a18.6 18.6 0 0 0 2.864-3.354c-.623-.564-1.37-1.046-1.855-1.706-.388-1.055-.673-2.315.125-3.287m1.217 1.04c.322.772.938 1.409 1.578 2.008.27-.668.623-1.394.228-2.081-.606-.099-1.214-.043-1.806.073m-248.724 8.36c8.899-4.737 17.834-9.431 26.749-14.143-.255 1.646-.92 3.549-2.79 4.373-8.253 4.337-16.526 8.65-24.766 13.003a4.4 4.4 0 0 1-.67.235c.525-1.147.925-2.335 1.477-3.468m186.294-25.023a17 17 0 0 1 2.324-2.362c-.638 1.228-.258 2.567.039 3.822.336 1.373.79 2.721 1.299 4.057.355 1.007 1.717 1.36 2.807 1.558.653.177 1.453-.235 1.2-.868-.601-1.631-1.37-3.214-2.248-4.749.312-1.03.665-2.049.964-3.081q.62.001 1.25.008c.36 1.908 1.433 3.639 2.419 5.353.003 1.854-.127 3.786-.903 5.544-.518 1.246-2.25 1.633-3.649 1.533-1.858-.303-3.09-1.662-4.179-2.856-.543 1.567-2.076 2.782-3.892 3.273-1.537.478-3.308-.217-4.133-1.365-.903-1.273-1.075-2.811-1.033-4.267.081-2.083.557-4.51 2.761-5.761l.618.002c-.098.037-.299.11-.397.148a6.62 6.62 0 0 0-.233 6.83c.346.676 1.222 1.163 2.108 1.004 1.104-.226 1.978-.892 2.731-1.579.027-2.082.017-4.166.147-6.244m-175.566-4.351c1.998-.366 3.816.693 5.237 1.756 1.902 1.575 3.487 3.452 4.491 5.547.304.632.439 1.323.326 2.003-.145.903-.228 1.893-.905 2.644-.795.622-2.05.487-2.894.009a21 21 0 0 0-2.628-1.251c-1.369 3.073-4.167 5.503-7.217 7.442-2.396 1.535-5.007 2.825-7.706 3.934a60 60 0 0 1-5.92 1.581c-.8.185-1.631.167-2.451.148.481-.096.994-.127 1.433-.337 4.393-2.103 8.677-4.385 12.67-7.003 2.697-1.841 5.375-3.79 7.288-6.264-.93-.179-1.865-.347-2.814-.424-.749-1.849-.771-4.1.807-5.652-.761-.564-.871-1.492-1.009-2.287-.144-.77.32-1.683 1.292-1.845m3.73 4.604c.353 1.379.387 2.796.454 4.2 1.33.127 2.67.661 4.009.383.621-.296.185-.972-.139-1.317-1.225-1.275-2.776-2.293-4.324-3.266m-3.267.592c-.437.55-.944 1.182-.876 1.875.773.824 2.079 1.167 3.259 1.348.116-.395.253-.782.344-1.18.324-.807-.413-1.531-1.002-2.092-.439-.452-1.344-.467-1.725.049m148.176-6.788c1.303.922 2.096 2.247 2.977 3.456 2.255 3.364 4.177 6.879 6.037 10.41 4.081 7.578 6.766 15.669 8.244 23.897.417 2.551.844 5.116.758 7.699.248 5.128.967 10.371 3.492 15.091 1.858 3.207 5.018 6.053 7.492 8.133 1.179.69 1.679.528 1.989.245.193-.174.117-2.423.509-3.48.56-1.735 1.841-3.212 3.203-4.558 1.524-1.415 3.249-2.713 5.286-3.568 4.078-1.754 8.307-3.245 12.577-4.627 3.215-1.011 6.484-1.908 9.826-2.559-14.346.085-28.692.185-43.039.325q1.075-4.432 2.184-8.856c1.522-1.694 3.436-3.086 5.326-4.469 8.226-5.754 17.722-10.013 27.34-13.826-1.126-1.496-2.692-2.89-2.94-4.727-.581-2.58.683-5.13 2.273-7.277.942-1.22 1.823-2.551 3.273-3.39 1.456-.855 3.425-.911 5.017-.303 5.333 2.03 10.834 5.603 14.901 8.813.407.349.93.651 1.185 1.106-.957 2.628-1.968 5.245-2.896 7.883-4.24.803-8.503 1.571-12.636 2.725.42 2.22 1.168 4.642.044 6.793-.392-.046-.925-.104-.991-.512-.16-1.866-1.22-3.563-2.309-5.153-5.274 1.76-10.536 3.581-15.507 5.896-4.008 1.887-8.071 3.934-11.041 6.953q33.086.009 66.174 0c-1.413 2.634-2.925 5.232-4.366 7.855-14.442 2.983-28.857 6.172-42.867 10.412-5.879 1.827-11.755 3.837-16.969 6.816-.54.349-.852.994-.459 1.518.81 1.055 2.287 1.49 3.526 2.091 2.695 1.265 5.681 1.954 8.616 2.692 2.103.527 4.206 1.051 6.307 1.584-.174 3.155-.204 6.32-.43 9.472-1.72 0-3.475-.258-5.205-.387-3.389-.341-6.83-.57-10.098-1.452-4.452-1.195-8.462-3.462-11.603-6.379-3.448-3.145-5.941-6.963-7.728-10.964-2.439-5.544-3.799-12.335-4.27-18.225-.216-.025-.268 1.148-.477 1.129-.611 2.596-1.329 4.901-2.353 7.406-.194.595-.709 1.048-1.163 1.51-3.283 3.233-6.785 6.306-10.446 9.229-3.748 2.96-7.655 5.794-11.876 8.261-4.439 2.582-9.241 4.904-14.552 5.879-2.854.502-6.098.597-8.599-.867-2.793-1.619-4.155-4.431-4.891-7.128a240 240 0 0 1-7.73 4.802c-2.366 1.346-4.722 2.769-7.431 3.58-6.774 2.133-13.821 3.531-20.833 4.972-5.028.966-10.059 1.933-15.122 2.759 4.69-2.257 9.453-4.412 14.123-6.701 12.67-6.145 25.151-12.603 37.066-19.76 1.624-6.597 4.247-13.233 9.33-18.528l.257-.06c-.405.73-.599 1.531-1.016 2.257-3.062 4.548-5.239 9.574-6.01 14.781 5.423-3.343 10.717-6.848 15.698-10.66 3.078-2.338 5.969-4.851 8.609-7.547.727-.764 1.713-1.419 1.988-2.422.12-.652.052-1.055-.385-2.408-3.08-7.216-7.451-16.22-10.354-22.565.994-3.205 1.915-6.428 2.918-9.632 1.338.747 2.209 1.92 3.161 2.981 1.944 2.42 3.772 4.908 5.414 7.485.917 1.417 1.092 3.063 1.428 4.627-1.318-1.005-2.236-2.367-3.698-3.227q.095.343.267.67c2.314 3.872 3.897 8.043 4.923 12.291.633 2.524.908 5.112.731 7.692-.132 2.796-.581 5.66-2.095 8.184-1.345 2.24-3.154 4.248-5.043 6.174-6.405 6.372-13.913 11.865-21.537 17.153.01.308.422.391.668.56 2.729 1.444 6.143 1.298 9.19.849 2.297-.452 4.663-.795 6.766-1.748 5.519-2.449 10.331-5.863 14.977-9.341 6.091-4.699 11.828-9.723 17.301-14.937a937 937 0 0 0-5.662-16.456c-1.05-2.858-2.027-5.742-3.283-8.54-2.084-3.69-4.086-7.425-5.902-11.213.733-2.894 1.656-5.757 2.439-8.644m55.512 14.885c-.667.225-1.227.849-.947 1.475.103.474.714.639 1.036.99a51 51 0 0 1 3.767 4.121c2.903-.894 5.85-1.67 8.78-2.492-2.182-1.766-4.604-3.447-7.514-4.246a8.56 8.56 0 0 0-5.122.152m64.224-3.803c8.94-4.693 17.832-9.451 26.784-14.126-.253 1.459-.746 3.056-2.16 4.017-8.667 4.584-17.384 9.104-26.05 13.695.371-1.223.955-2.39 1.426-3.586m-45.105-17.692c.827-.405 2.04-.376 2.599.365.771.986.977 2.275.56 3.407-.788 2.245-2.528 4.153-4.425 5.813-2.307 1.91-5.068 3.67-8.332 4.1.548-.574 1.348-.892 2.052-1.304 2.022-1.155 3.968-2.428 5.666-3.915.891-.874 1.856-1.819 2.015-3.015.062-1.003-1.011-1.86-2.105-2.026-1.595.239-2.589 1.408-3.762 2.23-.28-.726.468-1.236.91-1.768 1.406-1.448 2.822-3.002 4.822-3.887m-116.442-4.859c2.734-1.429 5.414-2.94 8.182-4.321-.272 1.475-.837 3.183-2.528 3.917-6.047 3.137-12.027 6.368-18.096 9.472.677-1.175 1.345-2.363 2.091-3.507 3.421-1.889 6.906-3.703 10.351-5.561m263.34-9.189c3.986 2.274 7.272 5.519 9.051 9.32 1.752 3.685 1.737 7.866.326 11.629-.191.435-.601.762-.945 1.111.614-2.554.825-5.236-.029-7.77-1.207-4.015-4.66-7.35-8.859-9.367.208-1.638.255-3.286.456-4.923m-96.036 1.65c.685-.71 1.352-1.432 2.103-2.091-.714 1.414-.169 2.952.17 4.385.385 1.313.756 2.638 1.34 3.899.729.809 2.007 1.221 3.185 1.19a.66.66 0 0 0 .618-.934c-.576-1.581-1.325-3.117-2.177-4.604.165-1.092.643-2.143.98-3.208.407.031.822.06 1.239.096.272 1.936 1.467 3.653 2.405 5.392-.039 1.4-.155 2.808-.474 4.186-.24.959-.66 2.07-1.803 2.502-.975.321-2.116.5-3.1.113-1.445-.543-2.471-1.613-3.36-2.682-.562 1.512-1.99 2.711-3.742 3.241-1.441.562-3.193-.027-4.106-1.055-1.048-1.212-1.232-2.775-1.249-4.233.059-1.4.189-2.842.901-4.128.461-.863 1.175-1.712 2.272-2.034-1.463 2.049-1.625 4.677-.545 6.878.312.624.952 1.227 1.806 1.248 1.299-.056 2.307-.849 3.166-1.6-.02-1.787.074-3.57.076-5.357.062-.403-.083-.888.295-1.204M167.24 102.084c3.262 1.791 5.858 4.517 7.099 7.652 1.009 2.534.938 5.322.04 7.87-.121.414-.489.724-.817 1.028.662-2.405.591-5.012-.597-7.294-1.21-2.357-3.428-4.3-6.056-5.556.142-1.232.213-2.468.331-3.699zm105.258-2.675c.739-.776 1.399-1.669 2.381-2.235-.648.835-.376 1.864-.221 2.784.363 1.716.903 3.406 1.541 5.064.201.693 1.043.988 1.737 1.254.629.2 1.384.385 2.023.119.402-.3.213-.811.071-1.182-.614-1.452-1.242-2.908-2.106-4.269l.992-3.166c.432.03.863.054 1.303.077.199 1.95 1.462 3.651 2.373 5.401-.032 1.491-.16 2.995-.54 4.456-.216.861-.685 1.77-1.644 2.203-1.102.37-2.415.543-3.492.029-1.25-.607-2.248-1.533-3.031-2.544-.628 1.55-2.138 2.777-3.971 3.283-1.261.401-2.761-.027-3.622-.874-1.097-.965-1.391-2.363-1.497-3.651-.086-1.656.071-3.364.835-4.906a4.42 4.42 0 0 1 2.25-2.117c-1.014 1.705-1.534 3.69-.967 5.575.251.988.668 2.249 1.966 2.559 1.401.152 2.515-.751 3.418-1.534.169-2.105.064-4.223.201-6.326m108.516-2.667c4.719-1.731 9.438-3.479 14.266-4.977-.147.93-.545 1.991-1.613 2.435-6.853 2.48-13.735 4.918-20.444 7.672-1.332.624-2.702 1.265-3.74 2.226.741.692 1.85.953 2.852 1.265-.013.671-.01 1.343-.01 2.017-1.419-.291-2.839-.73-3.939-1.568.064-.955.044-1.916.199-2.865.159-.861 1.197-1.267 1.948-1.735 3.326-1.756 6.926-3.093 10.481-4.47M168.65 88.366l.194.165c-.427.46-.208 1.067-.14 1.595a17.7 17.7 0 0 0 1.028 3.354c.152.487.749.72 1.257.882.444.079 1.163.264 1.347-.24-.304-1.179-1.035-2.231-1.487-3.363.213-.653.314-1.355.68-1.96q.369.006.746.027c.245 1.27 1.023 2.386 1.582 3.558-.031 1.204-.076 2.454-.611 3.586-.333.766-1.396.97-2.25.96-1.249-.15-2.069-1.045-2.807-1.823-.477 1.136-1.694 2.024-3.112 2.18-1.193.052-2.204-.763-2.518-1.693-.415-1.23-.368-2.55-.032-3.789.263-.865.776-1.801 1.831-2.134-.832 1.192-1.038 2.659-.572 3.988.182.55.518 1.238 1.284 1.317.849.012 1.479-.537 2.085-.963.157-1.361-.032-2.734.167-4.093.307-.584.921-1.017 1.328-1.554m39.108-2.344c.52.118.895.478 1.325.734 2.601 1.816 4.768 4.177 5.801 6.922.967 2.484.908 5.211.047 7.71-.118.432-.442.782-.727 1.144-.022-.046-.066-.139-.09-.185.628-2.309.535-4.795-.562-6.993-1.186-2.407-3.407-4.4-6.086-5.654.069-1.227.181-2.455.292-3.678m23.6-2.143c.66-1.363 2.39-2.507 4.194-2.245.901.165 1.531.837 1.853 1.534.63 1.435.724 3 .503 4.51 1.107 1.123 2.309 2.261 2.773 3.718.859 1.915.09 3.96-.641 5.81-.935 2.447-2.712 4.668-3.043 7.269-.115.643.177 1.344.952 1.567 1.247-.313 1.441-1.569 1.696-2.484.39-.079 1.001-.115 1.136.303.214 1.157-.385 2.27-.868 3.325-.437.801-1.043 1.747-2.165 1.926-.896.14-1.58-.526-1.939-1.136-1.021-1.756-.699-3.838.155-5.592 1.33-2.794 3.087-5.606 2.925-8.706.005-1.317-.648-2.574-1.691-3.533-1.558 3.568-4.078 6.784-6.981 9.664-1.502 1.581-3.659 2.546-5.718 3.509-1.843.81-3.713 1.606-5.676 2.191 3.779-2.305 7.404-4.825 10.54-7.752 2.586-2.46 4.967-5.236 5.926-8.481l-.063-.183c-1.399-.766-3.08-1.442-3.809-2.794-.309-.77-.27-1.636-.059-2.42m1.401.391c-.36.198-.112.577.182.706.881.435 1.787.838 2.702 1.221-.022-.782.145-1.754-.663-2.311-.699-.496-1.656-.067-2.221.385m149.4-1.74c.472-.698 1.2-1.557 2.28-1.436 1.146.218 2.268.74 2.972 1.556.358.51.655 1.288.02 1.737-.334.277-.572.745-.984.884-.577-.638-1.024-1.778-2.189-1.745-1.461.455-2.268 1.71-2.705 2.902-.905 2.459-1.089 5.051-1.374 7.598-.29.254-.68.395-1.028.576 0-2.582-.707-5.347-2.889-7.254-1.05-.11-2.299-.216-2.888-1.08-.717-1.1-1.232-2.459-.736-3.699 1.112-.185 2.012.522 2.768 1.11 1.998 1.553 3.288 3.61 4.454 5.656.493-2.322.989-4.698 2.299-6.806m-284.166.838c.61-.912 1.281-1.85 2.337-2.434-1.684 3.079-3.642 6.137-4.268 9.534-.196 1.111-.204 2.384.636 3.318.785.839 2.213.853 3.325.56 1.244-.422 1.823-1.554 2.405-2.496.26.006.314.266.439.422-.655 2.182-1.288 4.55-3.23 6.204-1.803 1.616-5.362.784-6.247-1.224-.643-1.443-.43-3.041-.052-4.514.928-3.316 2.685-6.418 4.655-9.37m169.254-3.46c3.235 1.874 5.888 4.579 7.124 7.758.614 1.668.84 3.447.602 5.186-.177 1.267-.415 2.582-1.252 3.672-.118-.333-.039-.674.034-1.005a9.42 9.42 0 0 0-1.455-7.425c-1.269-1.845-3.146-3.393-5.355-4.414.042-1.26.187-2.516.302-3.772m45.138-1.694c1.276.562 2.11 1.588 2.932 2.55 2.005 2.487 3.708 5.281 5.237 7.996.15.359.157.804.263 1.998-.923-.851-2.003-1.673-3.374-1.923-.243.456-.241.947-.035 1.413 1.782 4.633 3.797 9.201 5.522 13.851 1.099 3.031 2.064 6.145 2.101 9.336.076 2.963-.52 5.921-1.551 8.746-1.036 2.655-2.623 5.286-5.271 7.038-2.18 1.5-5.088 2.122-7.86 1.902-3.385-.215-6.59-1.598-8.938-3.654-1.254-1.013-2.272-2.209-3.227-3.428l.366-.073-.4.042c-2.121-3.029-3.694-6.335-4.602-9.774.081-.446-.92-.408-.819.035-1.294 5.016-3.358 9.963-6.774 14.236-1.995 2.455-4.576 4.646-7.779 5.942-3.49 1.396-7.601 1.487-11.274.593-3.691-.903-6.617-3.375-8.202-6.287-2.297-4.174-2.648-8.898-2.395-13.435.493-3.666 1.573-7.251 2.628-10.823.356-1.098.673-2.28.214-3.395l-.584-.258c-.494.273-1.002.541-1.387.924-2.704 2.53-4.24 5.763-5.467 8.969a49.6 49.6 0 0 0-2.138 7.887c-.645 4.219-1.634 8.488-3.924 12.311-1.242 2.033-3.107 4.144-5.916 4.61-2.604.296-5.387-.397-7.294-1.953-2.336-1.852-3.36-4.544-3.976-7.132-.981-4.645-.677-9.407-.061-14.072a78 78 0 0 1 1.735-8.556q.36-.028.731-.046c-.972 4.766-1.642 9.605-1.472 14.45.152 2.761.535 5.574 1.857 8.128.899 1.75 2.422 3.379 4.54 4.132 2 .691 4.469.816 6.342-.214 1.936-1.078 2.844-3.002 3.563-4.785 1.416-3.946 2.042-8.051 3.153-12.06 1.166-4.069 2.842-8.028 4.899-11.836 1.178-2.22 2.476-4.402 4.142-6.39 1.48-1.771 2.839-3.714 4.94-5.014l.623.027c.386 1.333-.068 2.714-.137 4.065-.13 2.23-1.087 4.325-1.637 6.486-.682 2.472-1.266 4.964-1.85 7.454-.903 3.566-1.546 7.327-.41 10.914.859 2.813 3.148 5.295 6.24 6.576 2.01.897 4.266 1.352 6.528 1.421 3.181.272 6.506-.052 9.35-1.35 3.429-1.515 5.856-4.261 7.429-7.194a24.1 24.1 0 0 0 2.672-9.304c.035-6.352-.486-12.826-3.048-18.848-.326-.832-.753-1.696-.567-2.588.405-2.45 1.37-4.806 2.501-7.076.071-.26.439-.278.66-.412 1.21 3.065 2.386 6.15 3.119 9.327.926 4.13 1.458 8.313 2.005 12.486.435 2.98.562 6.005 1.443 8.925.732 2.424 1.87 4.796 3.659 6.803 2.175 2.561 5.438 4.463 9.068 5.189 3.107.611 6.425-.175 9.039-1.646 1.374-.795 2.8-2.134 2.343-3.651-4.351-9.703-7.929-19.639-11.484-29.564-.236-.82-.685-1.605-.759-2.447.462-2.625 1.546-5.142 2.768-7.574M190.813 86.37c1.487-2.846 2.972-5.694 4.491-8.528 2.937 5.73 5.327 11.659 7.119 17.719.211 1.225-.216 2.456-.165 3.688-1.025-1.544-2.203-3.01-3.278-4.53.277 2.78.78 5.545 1.084 8.325a1595 1595 0 0 1 5.409 49.313c1.769-1.086 3.119-2.644 3.877-4.377.989-1.952 2.057-3.892 3.502-5.636.543-.626 1.259-1.429 2.31-1.236.594.029.876.571.935 1.009.262 1.546-1.117 2.88-.881 4.413.063 1.259 1.224 2.338 2.603 2.719 2.386.73 4.977.404 7.423.11 1.105-.206 2.484-.382 3.021-1.354a54 54 0 0 0-1.936-4.619c1.033-2.232 2.214-4.416 3.291-6.636.277-.524.464-1.103.92-1.544.783 2.538.979 5.172 1.296 7.773.326 4.204-.469 8.569-2.942 12.268-1.333 1.893-3.323 3.613-5.92 4.161-2.262.459-4.748.249-6.8-.708-2.376-1.146-4.005-3.16-4.852-5.33-1.286 2.505-2.976 4.873-5.129 6.909.251 3.25.53 6.497.722 9.749.142 3.626-.955 7.18-2.223 10.612-.616 1.475-1.223 2.958-1.983 4.386a85.3 85.3 0 0 1-26.43 23.868c-7.022 4.088-14.789 7.258-22.943 9.34-4.263 1.049-8.621 1.904-13.056 2.179-4.576.054-9.222-.448-13.5-1.871-4.014-1.327-7.521-3.744-9.772-6.869a280 280 0 0 1-23.811 1.09c7.092-2.155 14.113-4.483 21.016-7.046-1.843-7.621-.319-15.479 1.985-22.901 1.411-4.5 3.079-8.968 5.123-13.287 1.549-3.456 2.159-5.045 5.118-9.121-3.1 4.638-3.551 6.546-4.937 9.834-1.865 5.061-3.206 10.287-3.601 15.582-.39 5.821.103 11.932 3.303 17.2 8.508-3.372 16.791-7.162 24.732-11.415 6.734-3.657 13.24-7.647 19.152-12.222 2.802-2.196 5.526-4.489 7.828-7.077.68-.678.348-1.646.128-2.418-.513-1.296-1.095-2.571-1.686-3.84-4.025 1.382-8.312 2.328-12.678 2.311-2.38.059-4.829-.326-6.881-1.389-1.76-.92-3.065-2.43-3.595-4.124-.734-2.222-.415-4.566.024-6.807.697-3.243 2.106-6.486 4.783-8.941 1.88-1.714 4.368-3.033 7.127-3.379 3.119.013 6.057 1.303 8.283 3.094 2.834 2.278 4.768 5.232 6.255 8.263 2.776-1.371 5.443-2.993 7.51-5.101 2.027-1.787 4.113-3.611 6.702-4.812.645-.314 1.759-.661 2.189.073.468 1.09.022 2.288-.292 3.372-.835 1.581.174 3.379 1.421 4.587 1.734 1.66 4.586 1.821 7.003 1.448-2.532-22.062-5.107-44.122-7.641-66.186-.052-.74-.43-1.416-.754-2.092m-34.489 67.746c-1.242.453-2.795 1.125-2.979 2.392.292.964 1.627 1.261 2.631 1.467 3.227.53 6.581.52 9.806-.017-.059-.097-.182-.291-.243-.389-1.681-1.614-3.823-3.004-6.371-3.412-.935-.118-1.929-.345-2.844-.041m21.132 9.012c.334 4.496-.41 9.041-2.081 13.312-.645 1.483-1.183 3.054-2.4 4.29-5.985 6.782-13.696 12.322-21.821 17.186-7.24 4.275-14.884 8.067-22.874 11.236 1.364.564 2.797 1.017 4.287 1.285 3.99.751 8.111.348 12.108-.141 12.516-1.589 24.3-6.22 34.45-12.549 6.729-4.196 12.859-9.083 18.209-14.523 1.789-1.922 3.99-3.801 4.427-6.331-.427-4.291-.992-8.573-1.463-12.862-2.783.946-6.228 1.169-8.753-.412-3.066-1.962-4.231-5.31-4.715-8.401-2.643 3.01-5.752 5.74-9.374 7.91m153.216-82.866c.695-.978 1.357-2.058 2.542-2.673-1.722 2.925-3.479 5.9-4.255 9.129-.302 1.395-.405 3.095.947 4.142.786.324 1.691.518 2.548.262 1.565-.298 2.297-1.68 2.908-2.798.169.45.282.915.1 1.377-.557 1.943-1.298 3.978-2.974 5.448-1.887 1.715-5.694.728-6.412-1.468-.631-1.993-.054-4.082.638-6.009 1.006-2.58 2.4-5.04 3.958-7.41m-198.852 5.478c1.674-2.75 3.281-5.528 4.913-8.295 2.651 5.869 4.749 11.918 6.204 18.08.096 1.122-.265 2.24-.383 3.354-1.197-1.373-1.916-3.027-3.136-4.398.665 4.629.903 9.295 1.338 13.943.483 6.01.94 12.023 1.394 18.035 3.634-.516 6.9-2.337 9.094-4.821 3.301-3.719 4.766-8.4 5.181-12.981-.027-5.886-.398-11.873-2.579-17.506-.386-1.153-1.095-2.268-1.08-3.49.26-2.269 1.156-4.445 2.103-6.565.24-.495.397-1.126 1.104-1.273 1.078 2.823 2.191 5.644 2.908 8.552 1.112 4.556 1.649 9.195 2.268 13.814.412 2.796.535 5.638 1.369 8.378 1.082 3.684 3.276 7.275 6.889 9.617 2.716 1.748 6.186 2.944 9.642 2.48 2.437-.372 4.903-1.194 6.609-2.771.77-.699 1.3-1.723.971-2.68-3.489-7.616-6.339-15.428-9.219-23.22a1290 1290 0 0 1-2.916-8.143c-.274-.689.084-1.398.216-2.079.607-2.076 1.392-4.133 2.477-6.064 1.18.48 1.946 1.431 2.716 2.29 2.324 2.838 4.177 5.93 5.88 9.06-.081.4-.16.802-.223 1.205-.864-.909-1.973-1.724-3.362-1.955-.221.445-.211.932-.02 1.383 1.546 3.963 3.195 7.897 4.768 11.852 1.338 3.526 2.945 8.653 2.854 10.843-.281 3.077-.79 7.156-1.887 10.023-1.208 2.549-3.311 5.592-6.174 6.993-2.457 1.252-5.49 1.445-8.258.984-3.645-.618-6.771-2.615-9.009-5.075-3.146-3.465-5.078-7.63-6.221-11.866-.172.004-.515.017-.687.023-1.07 4.261-2.697 8.457-5.21 12.27-2.253 3.41-5.367 6.633-9.662 8.259.751 10.55 1.536 21.097 2.074 31.657.078 5.208-.17 10.413-.474 15.614-.005.707-.353 1.362-.613 2.024a163 163 0 0 1-2.68 6.732c-.15.372-.344.736-.621 1.057-.123-9.942-1.117-19.86-1.909-29.775-.719-8.731-1.438-17.463-2.138-26.194-3.438-.064-6.979-.917-9.516-2.964-2.957-2.308-4.467-5.634-5.188-8.917-.638-2.908-.773-5.89-.506-8.833.589-3.845 1.75-7.604 2.857-11.361.152-.672.263-1.377.083-2.054-.068-.245-.135-.536-.471-.605-.515-.056-.898.27-1.246.535-1.929 1.581-3.191 3.626-4.293 5.673-2.088 4.229-3.317 8.738-3.987 13.279-.555 2.994-1.365 5.975-2.69 8.798-1.053 2.097-2.366 4.256-4.648 5.571-1.948 1.138-4.525.999-6.657.345-2.7-.849-4.621-2.9-5.642-5.122-1.775-3.819-1.89-8.001-1.782-12.051.253-4.748 1.048-9.47 2.273-14.105q.346-.062.694-.119c-.991 5.318-1.799 10.71-1.33 16.101.228 2.336.72 4.695 1.897 6.834 1.001 1.826 2.758 3.468 5.085 4.065 1.978.516 4.321.474 6.005-.653 1.83-1.242 2.697-3.183 3.367-5.027 1.575-4.67 2.167-9.536 3.798-14.194 1.583-4.566 3.735-8.996 6.398-13.185 1.544-2.172 3.213-4.296 5.151-6.231.574-.508 1.151-1.23 2.064-1.238.501.272.322.87.334 1.296-.255 2.101-.28 4.25-1.021 6.283-1.355 4.171-2.268 8.434-3.262 12.673-.689 3.302-.873 6.828.616 9.995 1.097 2.415 3.38 4.375 6.133 5.465 1.497.599 3.114.965 4.751 1.165-.903-11.779-1.929-23.552-2.864-35.331-.213-1.833-.071-3.724-.913-5.46zm364.548.045c1.475-2.966 2.839-5.968 4.332-8.929 2.287 6.389 4.52 12.797 6.385 19.283.279 1.117.645 2.226.783 3.364-.194.901-.518 1.785-.545 2.711a493 493 0 0 0-2.462-3.982c1.041 16.595 2.297 33.182 3.701 49.761.434 5.332 1.07 10.653 1.301 15.996.422 9.896.014 20.007-3.532 29.52-1.332 3.439-3.028 6.79-5.183 9.919-2.895 4.045-7.195 7.234-11.924 9.684-8.422 4.296-18.062 6.531-27.686 7.91-.545.169-.766-.368-1.075-.611 8.586-3.506 16.842-7.625 24.547-12.385 3.853-2.447 7.625-5.024 10.867-8.053 3.715-3.547 6.518-7.818 7.792-12.453 1.396-4.66.915-9.51.608-14.253-.805-10.935-1.801-21.859-2.65-32.791-1.308-16.847-2.626-33.696-3.937-50.543-.277-1.184-1.148-2.2-1.55-3.352-.109-.282.142-.536.228-.796m-21.75 2.892c5.019-4.466 9.885-9.056 14.707-13.679.214 4.155-2.307 7.974-5.121 11.22-1.507 1.887-3.632 3.3-5.544 4.868a86 86 0 0 0-2.682 2.16c.253 1.11.638 2.204.78 3.332-.073 1.047-.272 2.087-.419 3.129-1.082-1.44-1.856-3.046-3.092-4.394.544 4.712.809 9.445 1.18 14.17a4357 4357 0 0 1 2.687 41.624c-.049.358.322.585.56.839 3.57 3.366 7.126 6.744 10.468 10.276 2.626 2.963 5.112 6.025 7.22 9.277 2.761 4.257 4.948 8.867 5.593 13.726.351 3.056.177 6.21-.996 9.137-2.068-8.02-5.872-15.311-10.305-20.369-3.731-4.308-7.811-8.529-11.929-12.574.287 4.947.574 9.896.797 14.846.219 6.384-.058 12.771-.378 19.15.003 1.209-.64 2.313-.971 3.468-.96 2.592-1.733 5.247-2.962 7.76-.197-5.892-.432-11.79-.852-17.675-.753-10.541-1.546-21.079-2.258-31.62-.105-.83-.051-1.677-.238-2.492-2.709-2.686-5.634-5.212-8.464-7.804-4.984-4.414-10.02-8.787-15.247-12.994.991 11.012 2.017 22.021 2.945 33.037.397 5.001.922 10.002.979 15.018.071 4.363.02 8.727-.096 13.088.015 2.752.059 5.596-1.092 8.213-1.703 3.242-4.758 5.948-8.442 7.619-2.876 1.294-6.128 1.982-9.381 2.005-2.197.042-4.381-.453-6.322-1.304-3.399-1.625-5.823-4.396-7.384-7.38a23.2 23.2 0 0 1-2.253-6.443c-.24-.971-.496-2.095-1.519-2.702-.815-.466-1.789-.094-2.577.219-1.916.865-3.762 1.909-5.148 3.347-4.516 4.606-6.663 10.485-8.008 16.271-.658 2.496-1.701 4.978-3.531 7.039-1.328 1.469-3.224 2.876-5.468 2.913-1.758.029-3.453-.605-5.021-1.263-3.47-1.552-5.877-4.397-7.31-7.435-.383-.812-.851-1.487-1.602-4.363-.811-3.101-1.091-7.811-.776-12.605.152-.464-.415-.632-.727-.89-1.237-.899-1.742-2.326-1.725-3.67-.034-4.933.81-9.95 3.259-14.463 1.985-3.722 4.96-6.971 7.855-10.208.272-.35.753-.629.886-1.037-1.804-1.745-3.708-3.418-5.632-5.067-1.097-1.076-2.432-1.95-3.512-3.036-4.059-3.73-8.049-7.512-12.037-11.296.381 5.535.67 11.076.996 16.615.248 5.131.668 10.259.582 15.395.017 4.579-.226 9.154-.447 13.726-.012 1.14-.554 2.201-.898 3.287-.967 2.678-1.84 5.386-3.013 8.008-.219-2.168-.086-4.35-.248-6.52-.444-10.824-1.443-21.623-2.152-32.435-.604-8.272-1.137-16.55-1.78-24.817-2.657-2.796-5.462-5.503-8.091-8.326-3.077-3.291-6.152-6.605-8.728-10.198-3.699-5.642-7.851-11.12-12.977-15.913-.292-.233-.201-.581-.199-.878.177-3.102.317-6.204.498-9.306 3.649 2.014 7.129 4.247 10.474 6.612 2.592 1.895 5.058 3.928 7.157 6.227 1.082 1.086 2.08 2.471 1.717 3.954-1.231-.414-2.505-.744-3.671-1.281a5 5 0 0 0-1.504-.424c-.076.867.621 1.552 1.143 2.234 3.802 4.72 7.767 9.341 11.836 13.897.523.585 1.099 1.142 1.502 1.8-.258-5.343-.739-10.679-1.08-16.019-.577-8.246-1.168-16.491-1.745-24.738-.105-1.232-.034-2.503-.618-3.661-.282-.462.135-.885.365-1.284 1.397-2.289 2.747-4.6 4.072-6.922.064-.162.37-.58.464-.179a99 99 0 0 1 5.906 17.043c.445 1.387-.103 2.802-.267 4.19-.937-1.571-2-3.084-3.041-4.606 1.333 14.481 2.106 28.998 3.105 43.496.675.961 1.71 1.723 2.535 2.601 7.963 7.785 16.231 15.338 24.494 22.892a2068 2068 0 0 1 18.564-17.228c.27-.212.454-.472.359-.794q-2.81-27.042-5.623-54.082c-.238-1.822-.174-3.699-.981-5.43 1.534-2.794 3.215-5.531 4.739-8.332.834 1.47 1.408 3.042 2.066 4.577 1.546 3.826 2.884 7.714 3.941 11.656.221.888.584 1.785.439 2.705-.11.83-.245 1.658-.351 2.49-1.025-1.469-2.009-2.958-3.043-4.423 1.467 14.519 2.956 32.8 4.287 46.272 6.452-5.811 12.852-11.665 19.334-17.451.711-.686 1.521-1.3 2.176-2.028-3.153-3.593-6.096-7.314-9.031-11.036-1.021-1.226-1.813-2.57-2.787-3.82-2.052-2.696-4.148-5.423-6.965-7.598-.246-3.503-.378-7.015-.555-10.524 6.616 4.901 13.338 9.707 19.768 14.787a5.2 5.2 0 0 1 1.45 1.683c-.579-5.481-1.109-10.965-1.657-16.45-.066-.503-.046-1.027-.294-1.497-.164-.483-.619-.999-.25-1.492 1.521-2.652 2.957-5.34 4.461-8 2.633 5.283 4.685 10.772 6.31 16.338.166.783.569 1.55.446 2.357-.12.89-.191 1.785-.311 2.676-.93-1.31-1.86-2.621-2.781-3.934a9 9 0 0 1-.444-.629c.839 6.273 1.394 12.57 2.049 18.857 4.847-4.36 9.824-8.615 14.838-12.84 2.233-1.791 4.549-3.51 6.689-5.384-.201-2.434-.317-4.872-.542-7.304-.042-.772-.879-1.55-.292-2.289 1.582-2.55 3.082-5.14 4.559-7.738 1.731 3.37 2.899 6.932 4.15 10.446m-28.869 30.556c.076.984.174 1.968.279 2.95a148 148 0 0 0 4.84 4.873c6.344 6.07 12.906 11.972 19.343 17.97-.997-14.835-2.116-29.668-3.105-44.505a735 735 0 0 0-21.357 18.712m-13.701-13.456c2.034 2.696 4.152 5.353 6.409 7.918-.181-2.377-.454-4.753-.699-7.127-.123.21-.255.42-.358.635-1.534-.949-3.406-1.694-5.352-1.426m-13.042 38.375c-1.315 1.313-2.78 2.524-4.017 3.888.292 4.207.925 8.403 1.316 12.608.191 6.95-1.171 14.327-6.212 20.015.145-.905.076-1.82.089-2.732-.008-3.118.147-6.237.13-9.357-.017-2.99.047-2.785-.091-8.969-.057-2.582-.434-4.63-.68-6.447-1.759 1.577-3.435 3.221-5.19 4.802-3.453 3.27-7.124 6.366-10.663 9.567 3.595 3.283 5.851 7.604 6.432 12.05.587 4.729-.802 9.757-4.463 13.433-3.23 3.223-7.863 5.258-12.675 6.194-2.258.424-4.67.715-6.911.075.28 1.984.63 3.963 1.099 5.922.805 3.304 1.853 6.639 3.932 9.549 1.111 1.488 2.635 2.93 4.731 3.367 2.241.461 4.52-.491 6.096-1.798 1.404-1.067 2.054-2.615 2.646-4.088 1.779-4.337 2.38-8.997 4.733-13.169 1.652-3.31 3.75-6.522 6.779-9.072 1.57-1.386 3.376-2.567 5.268-3.62 1.304-.662 2.882-1.213 4.415-.826 1.46.364 2.444 1.456 3.119 2.557 1.536 2.477 1.936 5.311 3.181 7.887.91 2.128 2.117 4.289 4.262 5.725 2.167 1.45 5.024 1.895 7.726 1.797 4.717-.17 12.473-3.429 12.866-4.35.408-.955-.669-8.187-1.089-12.276-2.054-19.977-4.018-39.96-6.025-59.939-.069-.549-.65-.921-.937-1.387-6.742 6.105-13.277 12.372-19.866 18.594m-30.734 28.662c-1.411 1.381-2.744 2.823-4.071 4.263-2.526 2.887-5.053 5.808-6.923 9.045-.471.822-.901 1.848-.359 2.721.641.895 2.01 1.028 3.134 1.03 4.962-.168 9.591-2.051 13.62-4.402 1.347-.564 2.614-1.812 2.106-3.166-.668-1.821-1.932-3.427-3.168-5.002a67 67 0 0 0-4.077-4.506z"/></g><defs><clipPath id="a"><path fill="#fff" d="M0 0h600v300H0z"/></clipPath></defs></svg>