<svg xmlns="http://www.w3.org/2000/svg" width="600" height="300" fill="none"><g clip-path="url(#a)"><path fill="#000001" fill-rule="evenodd" d="M0 0h600v300H0z" clip-rule="evenodd"/><path fill="#090" fill-rule="evenodd" d="M400.031 0H600v300H400.031z" clip-rule="evenodd"/><path fill="#BF0000" fill-rule="evenodd" d="M199.969 0h200.062v300H199.969z" clip-rule="evenodd"/><path fill="#fff" fill-rule="evenodd" stroke="#BD6B00" stroke-miterlimit="4.25" stroke-width=".538" d="M319.15 175.53h8.366c0 3.224 2.018 6.658 4.539 8.573h-16.126c2.52-2.219 3.221-5.045 3.221-8.573Z" clip-rule="evenodd"/><path fill="#fff" fill-rule="evenodd" d="m265.941 127.828 4.633 5.045 57.435.199 4.633-5.045-14.714-.303-7.049-5.046h-23.175l-6.651 5.141h-15.112z" clip-rule="evenodd"/><path fill="#fff" fill-rule="evenodd" stroke="#BD6B00" stroke-miterlimit="4.25" stroke-width=".538" d="M289.419 121.977h19.849c2.625-1.413 3.525-5.946 3.525-8.469 0-7.464-5.344-11.096-10.583-11.295-.806 0-1.715-.607-1.914-1.309-.502-1.612-.408-2.721-1.004-2.627-.408 0-.304 1.006-.702 2.419-.303.806-1.108 1.517-2.018 1.612-6.452.303-10.677 5.045-10.583 11.19.105 4.031.607 6.459 3.43 8.469z" clip-rule="evenodd"/><path fill="#fff" fill-rule="evenodd" d="M256.874 192.676h84.939l-7.56-6.155H264.33zM295.871 169.375l1.516 4.638h3.525l-2.824-4.638zm-2.018 4.638 1.004 4.637h4.027l-1.516-4.637h-3.524zm7.049 0 2.824 4.637h5.94l-4.633-4.637zm-34.762 10.489c3.127-2.921 5.135-5.349 5.135-8.877h7.656c0 2.02.701 3.129 1.809 3.025h7.76v-4.542h-5.647v-24.914c-.199-8.876 10.678-13.921 15.112-13.921h-26.5v-.807h55.72v.807h-26.7c7.959 0 15.614 7.567 15.719 13.921v7.056h-1.005l-.104-6.961c0-6.961-8.764-13.409-15.822-13.21-6.045.104-15.52 5.946-15.415 13.106v2.219l14.41.104-.104 2.523 2.217 1.413 4.538 1.413v3.831l3.222.911v3.727l3.828 1.716v3.832l2.52 1.517-.104 3.936 3.325 2.323h-7.854l4.936 5.548h-7.352l-3.629-5.548h-4.737l2.112 5.444h-5.04l-1.307-5.444h-6.244v5.852h-22.474zm22.37-15.127v4.638h5.343l-1.004-4.638h-4.339" clip-rule="evenodd"/><path stroke="#BD6B00" stroke-miterlimit="4.25" stroke-width=".538" d="m293.853 174.013 1.004 4.637h4.027l-1.516-4.637h-3.524zm0 0h-5.343v-4.638h4.339zm2.018-4.638 1.516 4.638h3.525l-2.824-4.638zm5.031 4.638 2.824 4.637h5.94l-4.633-4.637zm-34.762 10.489c3.127-2.921 5.135-5.349 5.135-8.877h7.656c0 2.02.701 3.129 1.809 3.025h7.76v-4.542h-5.647v-24.914c-.199-8.876 10.678-13.921 15.112-13.921h-26.5v-.807h55.72v.807h-26.7c7.959 0 15.614 7.567 15.719 13.921v7.056h-1.005l-.104-6.961c0-6.961-8.764-13.409-15.822-13.21-6.045.104-15.52 5.946-15.416 13.106v2.219l14.411.104-.104 2.523 2.217 1.413 4.538 1.413v3.831l3.222.911v3.727l3.828 1.716v3.832l2.52 1.517-.104 3.936 3.325 2.323h-7.854l4.936 5.548h-7.352l-3.629-5.548h-4.737l2.112 5.444h-5.04l-1.307-5.444h-6.244v5.852h-22.474z"/><path stroke="#BD6B00" stroke-miterlimit="4.25" stroke-width=".538" d="M288.822 161.305h3.326v7.663h-3.326z"/><path stroke="#BD6B00" stroke-miterlimit="4.25" stroke-width=".538" d="M284.085 169.48h3.221v-5.653c0-2.418 2.217-4.94 3.222-5.045 1.212 0 2.918 2.324 3.022 4.837v5.851h3.43v-14.519h-12.895v14.529Zm25.79 3.328h4.026v3.225h-4.026zm-2.416-5.348h4.026v3.129h-4.026zm-3.932-5.444h4.026v3.13h-4.026zm-3.326-4.543h4.027v3.13h-4.027z"/><path stroke="#BD6B00" stroke-miterlimit="4.25" stroke-width=".538" d="m297.482 169.48 4.235.199 7.352 6.458v-3.831l-2.52-1.812v-3.025l-3.629-2.02v-3.329l-3.524-1.213v-4.334l-1.715-1.518z"/><path fill="#fff" fill-rule="evenodd" stroke="#BD6B00" stroke-miterlimit="4.25" stroke-width=".538" d="M315.019 159.901h1.005v7.16h-1.005zM256.476 135.898c-1.213-2.019-2.719 2.827-7.854 6.354-2.322 1.613-4.027 5.947-4.027 8.773 0 2.02.199 3.935 0 5.851-.104 1.11-1.412 3.831-.502 4.543 2.217 1.612 5.135 5.443 6.452 6.761 1.213 1.006 2.217-5.348 3.022-8.07 1.005-3.025.607-6.762 3.222-9.484 1.809-2.02 6.452-3.831 6.044-4.637l-6.348-10.081z" clip-rule="evenodd"/><path fill="#BF0000" fill-rule="evenodd" stroke="#BD6B00" stroke-miterlimit="4.25" stroke-width=".538" d="M256.173 151.423a10.3 10.3 0 0 0-1.611-2.627 6.14 6.14 0 0 0-2.416-1.811 5.3 5.3 0 0 1-2.416-1.518 3.6 3.6 0 0 1-.805-1.517 6 6 0 0 1 0-2.02l-.303.303c-2.322 1.613-4.027 5.947-4.027 8.773a31 31 0 0 0 0 2.323c.199.503.303 1.005.606 1.309l1.109.806 2.719.702a7.1 7.1 0 0 1 2.624 2.02c.73.777 1.346 1.659 1.81 2.627l.199-.806c.805-2.722.701-5.947 2.615-8.573h-.104z" clip-rule="evenodd"/><path stroke="#BD6B00" stroke-miterlimit="4.25" stroke-width=".538" d="M248.915 141.845c-.502 3.328 1.412 4.542 3.222 5.14 1.809.702 3.325 2.627 4.026 4.438m-11.786 1.517c.805 3.026 2.823 2.627 4.633 3.225 1.81.702 3.724 3.025 4.538 4.836"/><path fill="#fff" fill-rule="evenodd" stroke="#BD6B00" stroke-miterlimit="4.25" stroke-width=".538" d="m254.761 133.879 1.004-.607 17.832 30.157-1.005.607z" clip-rule="evenodd"/><path fill="#fff" fill-rule="evenodd" stroke="#BD6B00" stroke-miterlimit="4.25" stroke-width=".538" d="M256.675 132.665c0 1.109-.9 2.02-2.018 2.02a2.015 2.015 0 0 1-2.018-2.02c0-1.119.9-2.02 2.018-2.02s2.018.901 2.018 2.02Zm15.311-24.202h7.257v1.612h-7.257zm0 3.129h7.257v13.922h-7.257zm-.408-5.045h8.063c.199-2.722-2.52-5.652-4.026-5.652-1.611.104-4.131 3.025-4.027 5.652z" clip-rule="evenodd"/><path fill="#BD6B00" fill-rule="evenodd" d="M292.044 104.935c-1.516.607-2.72 2.323-3.43 4.334-.701 2.02-1.005 4.334-.607 6.155 0 .701.304 1.109.503 1.517.198.303.407.503.606.503.303 0 .606 0 .701-.304l.199-.806c-.104-2.02-.104-3.831.303-5.444a7.73 7.73 0 0 1 3.023-4.438c.303-.199.407-.502.502-.702a.98.98 0 0 0-.303-.701c-.408-.304-1.005-.408-1.516-.105m.199.408c.407-.199.805 0 1.004.104l.104.2c0 .104 0 .199-.303.407a8.32 8.32 0 0 0-3.127 4.638 16.9 16.9 0 0 0-.303 5.652c0 .218-.066.427-.199.607 0 0 0 .104-.199 0 0 0-.199 0-.407-.304a4.2 4.2 0 0 1-.408-1.213c-.303-1.812 0-4.031.701-6.051.702-1.811 1.81-3.433 3.023-4.03h.104z" clip-rule="evenodd"/><path fill="#BD6B00" fill-rule="evenodd" d="M294.658 106.85c-1.515.702-2.52 2.324-3.022 4.24a13.85 13.85 0 0 0-.303 5.946c.199 1.309 1.004 2.02 1.611 2.02.303.104.606 0 .805-.304.199-.303.303-.607.199-1.005-.407-1.612-.502-3.433-.303-5.14.303-1.717 1.004-3.224 2.217-4.135.303-.303.502-.502.502-.806a.84.84 0 0 0-.199-.607 1.59 1.59 0 0 0-1.516-.199m.199.503c.407-.2.805-.105 1.004 0l.105.303-.304.408a6.57 6.57 0 0 0-2.416 4.438c-.303 1.811-.104 3.727.199 5.245.105.407 0 .606 0 .806l-.502.104c-.303 0-1.004-.503-1.213-1.717-.303-1.716-.199-3.935.304-5.747.502-1.811 1.516-3.328 2.823-3.831" clip-rule="evenodd"/><path fill="#fff" fill-rule="evenodd" stroke="#BD6B00" stroke-miterlimit="4.25" stroke-width=".538" d="M271.588 136.799h8.063v11.096h-8.063zm.502 17.545h7.76v2.418h-7.76zm-.199 4.135h8.063v8.772h-8.063zm-.606 10.593h8.764v4.941h-8.764zm1.108-16.739h7.049l1.412-2.418h-9.673zm9.475-8.677.104-6.05h4.832a17.55 17.55 0 0 0-4.936 6.05Z" clip-rule="evenodd"/><path stroke="#BD6B00" stroke-miterlimit="4.25" stroke-width=".538" d="M272.895 146.179c0 1.308 1.516.806 1.516.104v-5.652c0-1.005 2.416-.806 2.416-.105v6.051c0 1.005 1.715.91 1.611 0v-7.056c0-2.219-5.543-2.115-5.543-.104zm0 13.409h5.742v7.056h-5.742z"/><path fill="#fff" fill-rule="evenodd" d="M276.524 162.623h2.018v1.005h-2.018zm-3.524 0h2.018v1.005H273zm2.018-3.025h1.516v3.025h-1.516zm0 4.03h1.516v3.13h-1.516zm-31.939-75.64c.407 5.548-1.412 8.677-4.33 8.165-.805-3.025 1.004-5.14 4.33-8.165m-6.547 12.404c-2.624-1.308-.701-11.598.303-15.932.701 5.548 2.018 13.41-.303 15.932" clip-rule="evenodd"/><path stroke="#BD6B00" stroke-miterlimit="4.25" stroke-width=".538" d="M275.018 162.623H273v1.005h2.018m0-1.005v1.005m0-1.005h1.516v-3.025h-1.516zm0 1.005h1.516v3.13h-1.516zm1.506-1.005h2.018v1.005h-2.018zm-33.445-74.635c.407 5.548-1.412 8.677-4.33 8.165-.805-3.025 1.004-5.14 4.33-8.165Zm-6.547 12.404c-2.624-1.308-.701-11.598.303-15.932.701 5.548 2.018 13.41-.303 15.932Z"/><path fill="#fff" fill-rule="evenodd" stroke="#BD6B00" stroke-miterlimit="4.25" stroke-width=".538" d="M237.432 100.895c4.434 1.517 8.063-3.224 9.172-8.772-3.629 5.045-9.57 5.045-9.068 8.772zm-3.325 5.14c-3.43-.911-1.412-11.798-.702-16.141.702 4.543 3.127 14.624.702 16.141Zm1.212-.304c.199-3.727 3.932-2.721 6.547-4.741-.502 2.02-2.018 5.244-6.547 4.741Zm-4.235 5.046c-3.43-1.006-1.412-12.708-1.61-17.545 1.004 4.24 4.235 16.435 1.61 17.545Zm1.611-.503c2.823.91 6.547-1.005 6.85-4.334-2.52 1.717-6.348.408-6.85 4.334Z" clip-rule="evenodd"/><path fill="#fff" fill-rule="evenodd" stroke="#BD6B00" stroke-miterlimit="4.25" stroke-width=".538" d="M228.46 115.926c-3.222.304-1.81-9.682-1.81-18.957 1.213 8.677 4.538 16.643 1.81 18.957Z" clip-rule="evenodd"/><path fill="#fff" fill-rule="evenodd" stroke="#BD6B00" stroke-miterlimit="4.25" stroke-width=".538" d="M229.672 115.518c2.218 1.006 6.149-.701 7.258-4.438-4.027 1.717-6.651 0-7.258 4.438Zm25.79-22.39c-.606 4.94-2.624 7.767-5.542 7.264-.806-3.025 1.61-5.045 5.542-7.264Zm-7.854 12.509c4.936.701 6.651-3.026 10.071-7.966-4.737 3.433-10.28 4.03-10.071 8.07z" clip-rule="evenodd"/><path fill="#fff" fill-rule="evenodd" stroke="#BD6B00" stroke-miterlimit="4.25" stroke-width=".538" d="M246.092 105.134c-2.625-3.224 0-7.36 2.018-10.792-.407 5.14 1.307 8.07-2.018 10.792Zm-1.004 5.349c-.408-3.225 5.04-3.936 7.456-5.652-.909 1.811-2.018 6.761-7.561 5.652z" clip-rule="evenodd"/><path fill="#fff" fill-rule="evenodd" stroke="#BD6B00" stroke-miterlimit="4.25" stroke-width=".538" d="M243.884 110.483c-3.723-.408-2.217-6.762.502-10.186-1.108 4.837 2.019 8.166-.502 10.186Z" clip-rule="evenodd"/><path fill="#fff" fill-rule="evenodd" stroke="#BD6B00" stroke-miterlimit="4.25" stroke-width=".538" d="M241.061 115.822c-4.235-2.02-1.516-7.264 0-10.385-.606 4.135 2.823 7.265 0 10.29v.104z" clip-rule="evenodd"/><path fill="#fff" fill-rule="evenodd" stroke="#BD6B00" stroke-miterlimit="4.25" stroke-width=".538" d="M241.866 115.215c2.217 3.025 6.547-.806 7.457-5.244-3.724 3.129-6.547 2.627-7.457 5.348zm-9.673 20.475c-.408-4.334 2.823-12.101.502-16.34-.303-.607.701-2.115 1.412-1.214 1.004 1.517 2.018 5.747 2.52 4.135.407-1.717.502-4.638 2.018-5.245 1.004-.303 2.321-.607 1.914 1.006-.408 1.413-1.213 3.433-.303 3.527.502 0 2.018-2.02 3.325-3.025 1.004-.806 2.625.607 1.004 1.812-4.832 4.03-9.569 5.946-12.392 15.325zm-8.764 65.047c-.607 0-1.308-.303-.607.607 5.742 7.056 7.353 9.076 15.719 8.071 8.366-1.11 10.374-3.433 16.324-6.762a14.7 14.7 0 0 1 11.285-1.005c1.61.502 2.624.502 1.411-.702-1.213-1.11-2.52-2.722-4.026-3.831a17.64 17.64 0 0 0-12.801-2.722c-6.044 1.005-11.18 4.941-17.329 6.458a25.2 25.2 0 0 1-9.976 0v-.114Zm48.159 12.604c1.004.199 1.715 2.219 2.321.91.806-2.323.199-4.03-.805-3.935-1.213.303-3.127 3.025-1.516 3.025Z" clip-rule="evenodd"/><path fill="#fff" fill-rule="evenodd" d="M219.497 132.361c-1.213-1.413-.91-1.811 1.004-1.916 1.412 0 4.235 1.006 5.344.105 1.004-.702.502-3.727 1.004-5.045.199-.911.701-2.02 2.018-.2 3.629 5.852 8.063 12.907 10.072 19.764 1.004 3.831 0 9.882-3.43 13.922 0-3.433-1.213-5.747-2.719-8.678-2.018-3.727-9.172-14.121-13.303-18.056v.104z" clip-rule="evenodd"/><path fill="#fff" fill-rule="evenodd" stroke="#BD6B00" stroke-miterlimit="4.25" stroke-width=".538" d="M234.504 163.021c4.027 0 4.738-5.348 4.738-6.856-2.018.408-5.439 3.727-4.738 6.856Zm34.763 52.34c2.823.607 2.719-6.25-.199-9.18 1.307 4.438-2.018 8.469.104 9.076l.104.104zm-1.213-.104c.199 3.224-8.063-.408-10.072-3.026 4.832 2.115 9.873.408 10.072 3.026Zm-3.525-4.638c.304 3.13-7.049.304-9.37-2.115 4.936 1.612 9.067-.502 9.37 2.02v.105zm1.308.408c2.918.702 2.416-6.458-.408-8.877 1.412 4.742-1.809 8.166.408 8.877Zm-3.023-4.334c2.919.702 1.213-5.444-.909-7.862.407 4.438-1.004 7.568 1.004 7.862h-.104zm-1.515 0c.303 3.224-5.439.806-7.656-2.324 4.832 1.518 7.352-.303 7.656 2.324Zm-1.516-2.523c1.809-1.308-.105-4.836-3.724-4.637.408 2.115 1.611 5.946 3.724 4.637Zm14.107 14.823c.104 3.224-8.063 1.612-10.678-1.811 5.24 1.005 10.375-.806 10.584 1.811h.104zm-32.649-5.851c.303 3.224-8.669-.408-10.886-3.433 4.737 1.612 10.583.806 10.886 3.433Zm5.438 1.308c1.914-1.308-1.914-4.741-5.04-5.547.407 2.114 3.022 6.856 5.04 5.652zm.607 2.324c.199 2.921-9.57 1.309-12.09-1.413 8.366 1.517 11.786-1.11 12.09 1.413Z" clip-rule="evenodd"/><path fill="#fff" fill-rule="evenodd" stroke="#BD6B00" stroke-miterlimit="4.25" stroke-width=".538" d="M251.938 218.699c1.004 2.722-8.366 2.02-11.692.503 5.344 0 10.886-2.419 11.692-.503Z" clip-rule="evenodd"/><path fill="#fff" fill-rule="evenodd" stroke="#BD6B00" stroke-miterlimit="4.25" stroke-width=".538" d="M256.277 220.71c1.004 2.418-7.655 2.418-11.891 1.005 5.647 0 10.887-3.433 11.891-1.005Zm6.348 1.308c1.611 2.921-7.655 3.13-10.583 1.717 5.239-.702 9.266-4.031 10.583-1.717Zm-10.782-4.941c-2.918 1.812-2.719-3.632-5.041-7.359 3.629 3.329 7.05 5.652 5.041 7.359Z" clip-rule="evenodd"/><path fill="#fff" fill-rule="evenodd" stroke="#BD6B00" stroke-miterlimit="4.25" stroke-width=".538" d="M257.082 219.097c-2.416 2.115-4.434-5.348-6.651-9.578 3.629 4.03 8.868 7.767 6.651 9.483v.105zm6.85 2.02c-2.018 2.419-8.062-7.055-10.279-12.101 3.325 3.936 11.89 10.081 10.279 12.101Zm-5.845 7.265c-1.005 3.632-16.325-3.433-18.135-7.16 8.869 4.637 18.334 3.632 18.135 7.055zm-49.069-74.427c-.408-.503-1.412 0-1.213 1.11.303 1.517 2.52 9.275 6.348 11.901 2.719 2.02 17.13 5.141 23.573 6.554 3.629.701 6.547 2.522 8.963 5.348a94 94 0 0 0-3.023-9.882c-1.212-3.025-4.434-6.249-7.854-6.353-6.149-.304-14.202-.807-20.152-3.329a16.23 16.23 0 0 1-6.756-5.349h.114Z" clip-rule="evenodd"/><path fill="#fff" fill-rule="evenodd" stroke="#BD6B00" stroke-miterlimit="4.25" stroke-width=".538" d="M244.585 184.71c2.019 1.413 4.131-3.727 1.715-8.677-.104 4.741-3.827 6.354-1.715 8.677Z" clip-rule="evenodd"/><path fill="#fff" fill-rule="evenodd" stroke="#BD6B00" stroke-miterlimit="4.25" stroke-width=".538" d="M246.499 189.452c2.719.806 3.525-4.031 1.81-7.862.303 4.135-4.33 6.657-1.81 7.862Z" clip-rule="evenodd"/><path fill="#fff" fill-rule="evenodd" stroke="#BD6B00" stroke-miterlimit="4.25" stroke-width=".538" d="M248.612 193.283c2.625 1.309 3.525-3.632 1.715-7.16.199 4.543-3.724 5.946-1.715 7.056z" clip-rule="evenodd"/><path fill="#fff" fill-rule="evenodd" stroke="#BD6B00" stroke-miterlimit="4.25" stroke-width=".538" d="M247.504 193.587c-1.005 3.025-7.049-2.722-8.063-5.852 3.723 3.727 8.764 3.225 8.063 5.747z" clip-rule="evenodd"/><path fill="#fff" fill-rule="evenodd" stroke="#BD6B00" stroke-miterlimit="4.25" stroke-width=".538" d="M244.784 188.845c-1.212 3.025-8.764-5.045-10.478-8.772 3.723 3.727 11.284 6.553 10.478 8.677v.104z" clip-rule="evenodd"/><path fill="#fff" fill-rule="evenodd" stroke="#BD6B00" stroke-miterlimit="4.25" stroke-width=".538" d="M243.278 184.103c-1.213 3.528-9.37-5.851-11.786-9.18 4.026 3.632 12.696 6.658 11.786 9.18Zm-.303-3.433c3.022-.607-.104-3.025-3.724-6.961-.104 4.135.502 7.056 3.724 6.961Z" clip-rule="evenodd"/><path fill="#fff" fill-rule="evenodd" stroke="#BD6B00" stroke-miterlimit="4.25" stroke-width=".538" d="M238.039 178.252c1.307-1.309-1.109-1.916-4.131-5.349-.503 2.324 2.823 6.553 4.235 5.349zm14.107 15.325c1.611 1.005 2.625-2.323.701-5.244-.502 3.224-2.113 4.03-.701 5.244Zm-34.459-20.475c-3.325 2.02-8.669-6.05-10.071-9.379 2.918 3.831 10.678 7.264 10.071 9.379Z" clip-rule="evenodd"/><path fill="#fff" fill-rule="evenodd" stroke="#BD6B00" stroke-miterlimit="4.25" stroke-width=".538" d="M220.605 177.749c-1.914 2.02-7.759-3.528-9.777-6.354 3.022 2.722 10.583 3.026 9.777 6.354Z" clip-rule="evenodd"/><path fill="#fff" fill-rule="evenodd" stroke="#BD6B00" stroke-miterlimit="4.25" stroke-width=".538" d="M223.732 181.988c-.606 2.826-9.067-3.528-11.085-6.553 3.628 3.528 11.691 3.225 11.085 6.553Z" clip-rule="evenodd"/><path fill="#fff" fill-rule="evenodd" stroke="#BD6B00" stroke-miterlimit="4.25" stroke-width=".538" d="M222.415 185.108c-1.308 2.523-8.262-3.831-9.977-7.055 4.33 3.632 11.085 4.542 10.072 7.055h-.105zm-3.525-12.404c2.113-2.323 1.213-3.433-.407-7.056-.805 3.727-2.113 5.245.407 7.056Zm2.919 4.334c4.026.199 0-4.637-1.005-8.772.408 4.637-1.004 8.374 1.005 8.772Z" clip-rule="evenodd"/><path fill="#fff" fill-rule="evenodd" stroke="#BD6B00" stroke-miterlimit="4.25" stroke-width=".538" d="M224.329 180.879c2.719-.607 2.018-4.543-.199-9.275.502 5.14-2.321 8.07.199 9.275Zm-1.004 7.767c-1.005 3.025-8.869-4.031-10.072-6.857 4.027 3.433 10.782 4.543 10.072 6.857Z" clip-rule="evenodd"/><path fill="#fff" fill-rule="evenodd" stroke="#BD6B00" stroke-miterlimit="4.25" stroke-width=".538" d="M228.062 193.482c-1.109 3.026-9.371-3.224-11.891-6.657 4.936 4.03 12.497 3.632 11.891 6.657Z" clip-rule="evenodd"/><path fill="#fff" fill-rule="evenodd" stroke="#BD6B00" stroke-miterlimit="4.25" stroke-width=".538" d="M232.894 198.423c-1.308 4.334-9.977-2.627-12.497-6.05 5.438 4.239 13.094 3.025 12.497 6.05Zm-8.063-11.095c2.321 1.109 3.221-5.444 1.914-10.186 0 5.046-4.737 8.877-2.018 10.081z" clip-rule="evenodd"/><path fill="#fff" fill-rule="evenodd" stroke="#BD6B00" stroke-miterlimit="4.25" stroke-width=".538" d="M228.763 192.572c2.823.806 2.018-6.354-.502-11.096-.303 4.742-2.322 9.076.502 11.096Zm5.04 4.941c3.023.104 1.005-6.155-1.61-9.683.407 4.543-1.005 9.076 1.61 9.683Zm-5.542 2.627c-1.005 1.612-3.222-1.309-7.049-3.528 3.429 1.005 7.456 2.02 7.049 3.528Zm-1.81-53.146c3.023-2.219.701-6.249 0-10.081-1.004 3.632-3.43 8.469 0 10.081Zm0 5.349c-4.538-.503-3.828-6.155-4.027-9.787 1.412 4.941 5.041 5.747 4.027 9.882v-.105zm.606-.702c3.724-.199 3.525-4.438 3.724-8.677-1.914 3.935-4.027 4.542-3.724 8.677Z" clip-rule="evenodd"/><path fill="#fff" fill-rule="evenodd" stroke="#BD6B00" stroke-miterlimit="4.25" stroke-width=".538" d="M226.953 156.876c-3.022.303-4.434-2.627-5.04-7.056 2.719 4.135 5.135 2.826 5.04 7.056Zm1.005-.303c3.723.502 3.022-3.832 3.022-7.056-1.213 3.025-4.235 4.03-3.022 7.056Z" clip-rule="evenodd"/><path fill="#fff" fill-rule="evenodd" stroke="#BD6B00" stroke-miterlimit="4.25" stroke-width=".538" d="M222.112 154.752c.303 2.826 2.113 7.662 5.04 6.553 1.109-3.433-2.624-4.135-5.04-6.553Z" clip-rule="evenodd"/><path fill="#fff" fill-rule="evenodd" stroke="#BD6B00" stroke-miterlimit="4.25" stroke-width=".538" d="M227.958 161.608c-1.213-2.418 3.022-3.727 3.827-6.961.502 4.638.105 7.663-3.827 7.056v-.104zm-11.995-29.446c2.321-2.418.303-6.458-.408-10.29-1.004 3.633-2.52 8.469.408 10.29Zm0 4.637c-4.027.503-5.041-7.767-5.543-11.399 1.412 4.941 6.045 7.056 5.543 11.494v-.104zm.805 0c2.824-1.517 2.217-4.741 3.022-7.055-1.809 2.921-3.628 3.328-3.022 7.055Z" clip-rule="evenodd"/><path fill="#fff" fill-rule="evenodd" stroke="#BD6B00" stroke-miterlimit="4.25" stroke-width=".538" d="M215.868 142.252c-4.131.304-6.651-8.876-6.85-12.508 1.307 4.941 7.456 7.568 6.954 12.508zm.91-.199c4.026-.91 3.524-3.528 2.918-7.662-1.308 4.239-3.525 3.328-2.918 7.662Z" clip-rule="evenodd"/><path fill="#fff" fill-rule="evenodd" stroke="#BD6B00" stroke-miterlimit="4.25" stroke-width=".538" d="M215.868 147.497c-4.633.806-4.33-6.658-8.063-12.006 3.222 4.03 9.067 9.075 8.063 12.006Zm1.004-.304c3.629.2 4.027-5.14 3.828-7.359-.91 2.219-5.04 4.239-3.723 7.464z" clip-rule="evenodd"/><path fill="#fff" fill-rule="evenodd" stroke="#BD6B00" stroke-miterlimit="4.25" stroke-width=".538" d="M208.611 141.74c1.714 5.747 4.235 11.494 7.257 11.096 1.516-3.329-2.918-3.727-7.257-11.096Z" clip-rule="evenodd"/><path fill="#fff" fill-rule="evenodd" stroke="#BD6B00" stroke-miterlimit="4.25" stroke-width=".538" d="M216.977 151.926c-1.213-2.523 3.022-3.727 3.827-6.961.502 4.637.104 7.662-3.827 6.961Zm-7.154-3.633c2.52 5.141 3.629 11.096 7.049 10.186 1.308-4.031-3.827-4.837-7.049-10.186Z" clip-rule="evenodd"/><path fill="#fff" fill-rule="evenodd" stroke="#BD6B00" stroke-miterlimit="4.25" stroke-width=".538" d="M217.583 157.578c-1.516-2.826 2.719-3.727 3.828-7.464.502 4.837 0 8.374-3.828 7.36zm7.257-34.795c2.416.607 5.041-2.115 4.131-6.25-2.823.607-4.026 3.225-4.131 6.25Zm-7.958-2.115c.199 1.214 1.715 1.309 1.213-.408a5.33 5.33 0 0 1 0-3.433 7.6 7.6 0 0 0 0-4.637c-.408-1.006-1.81-.408-1.213.408.606.91.701 2.826.199 3.727-.607 1.308-.408 3.025-.199 4.334zm23.07 16.141c-1.004 1.309-2.918.408-1.411-1.517 1.212-1.518 3.022-2.827 3.022-4.439.199-2.02 1.308-5.045 2.416-6.155 1.109-1.109 2.416.408 1.213 1.214-1.308.806-2.217 4.439-2.113 5.852-.104 2.02-2.018 3.528-3.127 5.045Zm-3.022-2.324c-1.004 1.414-2.416.503-1.611-1.716.701-1.517.806-3.528 1.611-4.637 1.213-1.717 3.022-3.13 4.131-4.24 1.213-1.005 2.018 0 1.004 1.006a27.7 27.7 0 0 0-3.325 4.03c-1.412 2.219-.806 4.031-1.81 5.548zm-15.823-7.264c-.104 2.02 1.516 2.418 1.412-.408 0-3.025-2.217-5.851-1.004-10.384.805-2.219.805-6.354.407-8.469-.407-2.219-2.018-.806-1.307.911.606 2.019-.104 5.652-.607 7.567-1.516 5.444 1.213 8.071 1.005 10.793h.104zm4.33-11.096c-.199 1.916-1.809 2.02-1.307-.502.407-2.02.407-3.632 0-5.349-.607-2.115-.408-5.747 0-7.264.502-1.612 2.018-.702 1.412.502a10.03 10.03 0 0 0-.304 5.946c.607 2.02.503 4.837.199 6.762v-.104zm-15.718 37.413c.805.91 2.018.303 1.004-1.005-1.004-1.006-.701-1.214-1.307-2.419-.607-1.413-.502-2.115-1.213-3.025-.701-1.005-1.611 0-1.004.702.805 1.005.606 1.612 1.004 2.522 1.004 1.518.701 2.324 1.516 3.225Zm20.55 24.809a8.66 8.66 0 0 1 4.434 6.761c.105 2.514.796 4.96 2.019 7.16-2.019-.502-3.023-3.727-3.326-6.856-.303-3.224-2.018-4.543-3.022-7.056h-.105zm5.136 5.946c1.714 3.129 4.026 4.334 4.235 6.657.199 2.722.407 2.826 1.108 5.444-2.018-.503-2.52-.702-3.022-4.742-.303-2.826-2.625-4.742-2.321-7.359Z" clip-rule="evenodd"/><path fill="#fff" fill-rule="evenodd" d="M288.415 213.35c1.004 1.812 2.018 4.543 4.026 4.031 0-1.309-2.112-2.324-4.026-4.031m3.022.607c3.724 1.612 7.049 1.214 7.561 3.632-3.629.408-5.041-1.005-7.656-3.632h.105zm-16.22-12.812a14.12 14.12 0 0 1 5.04 7.767 29.2 29.2 0 0 0 3.629 7.862 13.1 13.1 0 0 1-5.344-7.464c-.701-3.025-1.61-5.348-3.325-8.07v-.104zm3.126 0c2.824 2.219 5.439 4.837 6.244 7.966.805 2.921 1.308 5.14 3.221 8.071-3.022-1.916-4.131-4.742-5.04-7.862-.701-3.025-2.52-5.245-4.434-8.071v-.104zm9.266 7.359a1.12 1.12 0 0 1 .702-1.214 35 35 0 0 1 2.624-.806c1.004-.303 1.611.408 1.611.911v2.02c0 .701-.199.806-.701.91-.702.104-1.715.199-2.416.702-.607.408-1.213.104-1.516-.503zm10.678 0c0-.607-.199-1.109-.606-1.214a5.55 5.55 0 0 0-2.416-.407c-1.004 0-1.109.199-1.109.607v2.114q0 .807.408 1.006c.701 0 1.809 0 2.52.607.502.303 1.004 0 1.109-.607l.104-2.115z" clip-rule="evenodd"/><path fill="#fff" fill-rule="evenodd" stroke="#BD6B00" stroke-miterlimit="4.25" stroke-width=".538" d="M342.524 135.898c1.213-2.019 2.719 2.827 7.854 6.354 2.322 1.613 4.027 5.947 4.027 8.773 0 2.02-.199 3.935 0 5.851.104 1.11 1.412 3.831.502 4.543-2.217 1.612-5.135 5.443-6.452 6.761-1.213 1.006-2.217-5.348-3.022-8.07-1.005-3.025-.607-6.762-3.222-9.484-1.809-2.02-6.452-3.831-6.044-4.637l6.348-10.081z" clip-rule="evenodd"/><path fill="#BF0000" fill-rule="evenodd" stroke="#BD6B00" stroke-miterlimit="4.25" stroke-width=".538" d="M342.827 151.423c.398-.948.948-1.84 1.611-2.627a6.14 6.14 0 0 1 2.416-1.811 5.3 5.3 0 0 0 2.416-1.518c.388-.436.663-.948.805-1.517a6 6 0 0 0 0-2.02l.303.303c2.322 1.613 4.027 5.947 4.027 8.773.029.768.029 1.546 0 2.323-.199.503-.303 1.005-.606 1.309l-1.109.806-2.719.702a7.1 7.1 0 0 0-2.624 2.02 10.4 10.4 0 0 0-1.81 2.627l-.199-.806c-.805-2.722-.701-5.947-2.615-8.573h.104z" clip-rule="evenodd"/><path stroke="#BD6B00" stroke-miterlimit="4.25" stroke-width=".538" d="M350.075 141.845c.502 3.328-1.411 4.542-3.221 5.14-1.81.702-3.326 2.627-4.027 4.438m11.787 1.517c-.806 3.026-2.824 2.627-4.634 3.225-1.809.702-3.723 3.025-4.538 4.836"/><path fill="#fff" fill-rule="evenodd" stroke="#BD6B00" stroke-miterlimit="4.25" stroke-width=".538" d="m344.239 133.879-1.004-.607-17.832 30.157 1.005.607z" clip-rule="evenodd"/><path fill="#fff" fill-rule="evenodd" stroke="#BD6B00" stroke-miterlimit="4.25" stroke-width=".538" d="M342.325 132.665c0 1.109.9 2.02 2.018 2.02a2.015 2.015 0 0 0 2.018-2.02c0-1.119-.9-2.02-2.018-2.02a2.015 2.015 0 0 0-2.018 2.02Zm-15.311-24.202h-7.257v1.612h7.257zm0 3.129h-7.257v13.922h7.257zm.408-5.045h-8.063c-.199-2.722 2.52-5.652 4.026-5.652 1.611.104 4.131 3.025 4.027 5.652z" clip-rule="evenodd"/><path fill="#BD6B00" fill-rule="evenodd" d="M306.956 104.935c1.516.607 2.72 2.323 3.43 4.334.701 2.02 1.005 4.334.607 6.155 0 .701-.304 1.109-.502 1.517-.199.303-.408.503-.607.503-.303 0-.606 0-.701-.304l-.199-.806c.104-2.02.104-3.831-.303-5.444a7.73 7.73 0 0 0-3.023-4.438c-.303-.199-.407-.502-.502-.702 0-.265.114-.521.303-.701.408-.304 1.005-.408 1.516-.105m-.199.408c-.407-.199-.805 0-1.004.104l-.104.2c0 .104 0 .199.303.407a8.32 8.32 0 0 1 3.127 4.638c.417 1.849.521 3.765.303 5.652 0 .218.066.427.199.607 0 0 0 .104.199 0 0 0 .199 0 .407-.304.199-.379.332-.787.408-1.213.303-1.812 0-4.031-.701-6.051-.702-1.811-1.81-3.433-3.023-4.03h-.104z" clip-rule="evenodd"/><path fill="#BD6B00" fill-rule="evenodd" d="M304.332 106.85c1.516.702 2.52 2.324 3.022 4.24.531 1.934.635 3.964.304 5.946-.199 1.309-1.005 2.02-1.611 2.02-.303.104-.606 0-.805-.304-.199-.303-.304-.607-.199-1.005.407-1.612.502-3.433.303-5.14-.303-1.717-1.004-3.224-2.217-4.135-.303-.303-.502-.502-.502-.806a.84.84 0 0 1 .199-.607 1.59 1.59 0 0 1 1.516-.199m-.199.503a1.14 1.14 0 0 0-1.005 0l-.104.303.303.408a6.56 6.56 0 0 1 2.416 4.438c.303 1.811.104 3.727-.199 5.245-.104.407 0 .606 0 .806l.502.104c.304 0 1.005-.503 1.213-1.717.303-1.716.199-3.935-.303-5.747s-1.516-3.328-2.823-3.831" clip-rule="evenodd"/><path fill="#fff" fill-rule="evenodd" stroke="#BD6B00" stroke-miterlimit="4.25" stroke-width=".538" d="M327.412 136.799h-8.063v11.096h8.063zm-.502 17.545h-7.76v2.418h7.76zm.199 4.135h-8.063v8.772h8.063zm.606 10.593h-8.764v4.941h8.764zm-1.108-16.739h-7.049l-1.412-2.418h9.673zm-9.475-8.677-.104-6.05h-4.832a17.55 17.55 0 0 1 4.936 6.05Z" clip-rule="evenodd"/><path stroke="#BD6B00" stroke-miterlimit="4.25" stroke-width=".538" d="M326.095 146.179c0 1.308-1.516.806-1.516.104v-5.652c0-1.005-2.416-.806-2.416-.105v6.051c0 1.005-1.715.91-1.61 0v-7.056c0-2.219 5.542-2.115 5.542-.104zm0 13.409h-5.741v7.056h5.741z"/><path fill="#fff" fill-rule="evenodd" d="M322.466 162.623h-2.018v1.005h2.018zm3.525 0h-2.018v1.005h2.018zm-2.018-3.025h-1.516v3.025h1.516zm0 4.03h-1.516v3.13h1.516zm31.939-75.64c-.408 5.548 1.411 8.677 4.329 8.165.806-3.025-1.004-5.14-4.329-8.165m6.546 12.404c2.625-1.308.702-11.598-.303-15.932-.701 5.548-2.018 13.41.303 15.932" clip-rule="evenodd"/><path stroke="#BD6B00" stroke-miterlimit="4.25" stroke-width=".538" d="M323.973 162.623h2.018v1.005h-2.018m0-1.005v1.005m0-1.005h-1.516v-3.025h1.516zm0 1.005h-1.516v3.13h1.516zm-1.507-1.005h-2.018v1.005h2.018zm33.446-74.635c-.408 5.548 1.411 8.677 4.329 8.165.806-3.025-1.004-5.14-4.329-8.165Zm6.546 12.404c2.625-1.308.702-11.598-.303-15.932-.701 5.548-2.018 13.41.303 15.932Z"/><path fill="#fff" fill-rule="evenodd" stroke="#BD6B00" stroke-miterlimit="4.25" stroke-width=".538" d="M361.568 100.895c-4.434 1.517-8.063-3.224-9.172-8.772 3.629 5.045 9.57 5.045 9.068 8.772zm3.325 5.14c3.43-.911 1.412-11.798.702-16.141-.702 4.543-3.127 14.624-.702 16.141Zm-1.212-.304c-.199-3.727-3.932-2.721-6.547-4.741.502 2.02 2.018 5.244 6.547 4.741Zm4.235 5.046c3.43-1.006 1.412-12.708 1.611-17.545-1.005 4.24-4.236 16.435-1.611 17.545Zm-1.611-.503c-2.823.91-6.547-1.005-6.85-4.334 2.52 1.717 6.348.408 6.85 4.334Z" clip-rule="evenodd"/><path fill="#fff" fill-rule="evenodd" stroke="#BD6B00" stroke-miterlimit="4.25" stroke-width=".538" d="M370.531 115.926c3.221.304 1.809-9.682 1.809-18.957-1.212 8.677-4.538 16.643-1.809 18.957Z" clip-rule="evenodd"/><path fill="#fff" fill-rule="evenodd" stroke="#BD6B00" stroke-miterlimit="4.25" stroke-width=".538" d="M369.328 115.518c-2.218 1.006-6.149-.701-7.258-4.438 4.027 1.717 6.651 0 7.258 4.438Zm-25.79-22.39c.606 4.94 2.624 7.767 5.542 7.264.806-3.025-1.61-5.045-5.542-7.264Zm7.854 12.509c-4.936.701-6.651-3.026-10.071-7.966 4.737 3.433 10.28 4.03 10.071 8.07z" clip-rule="evenodd"/><path fill="#fff" fill-rule="evenodd" stroke="#BD6B00" stroke-miterlimit="4.25" stroke-width=".538" d="M352.899 105.134c2.624-3.224 0-7.36-2.018-10.792.407 5.14-1.308 8.07 2.018 10.792Zm1.004 5.349c.407-3.225-5.041-3.936-7.457-5.652.91 1.811 2.019 6.761 7.561 5.652z" clip-rule="evenodd"/><path fill="#fff" fill-rule="evenodd" stroke="#BD6B00" stroke-miterlimit="4.25" stroke-width=".538" d="M355.116 110.483c3.723-.408 2.217-6.762-.502-10.186 1.108 4.837-2.019 8.166.502 10.186Z" clip-rule="evenodd"/><path fill="#fff" fill-rule="evenodd" stroke="#BD6B00" stroke-miterlimit="4.25" stroke-width=".538" d="M357.939 115.822c4.235-2.02 1.516-7.264 0-10.385.607 4.135-2.823 7.265 0 10.29v.104z" clip-rule="evenodd"/><path fill="#fff" fill-rule="evenodd" stroke="#BD6B00" stroke-miterlimit="4.25" stroke-width=".538" d="M357.134 115.215c-2.217 3.025-6.547-.806-7.457-5.244 3.724 3.129 6.547 2.627 7.457 5.348zm9.673 20.475c.408-4.334-2.823-12.101-.502-16.34.303-.607-.701-2.115-1.412-1.214-1.004 1.517-2.018 5.747-2.52 4.135-.407-1.717-.502-4.638-2.018-5.245-1.004-.303-2.321-.607-1.914 1.006.408 1.413 1.213 3.433.303 3.527-.502 0-2.018-2.02-3.325-3.025-1.004-.806-2.625.607-1.004 1.812 4.832 4.03 9.569 5.946 12.392 15.325zm8.764 65.047c.607 0 1.308-.303.607.607-5.742 7.056-7.353 9.076-15.719 8.071-8.366-1.11-10.374-3.433-16.324-6.762a14.7 14.7 0 0 0-11.285-1.005c-1.61.502-2.624.502-1.411-.702 1.213-1.11 2.52-2.722 4.026-3.831a17.64 17.64 0 0 1 12.801-2.722c6.044 1.005 11.18 4.941 17.329 6.458a25.2 25.2 0 0 0 9.976 0v-.114Zm-48.159 12.604c-1.004.199-1.715 2.219-2.321.91-.806-2.323-.199-4.03.805-3.935 1.213.303 3.127 3.025 1.516 3.025Z" clip-rule="evenodd"/><path fill="#fff" fill-rule="evenodd" d="M379.503 132.361c1.213-1.413.91-1.811-1.004-1.916-1.412 0-4.235 1.006-5.344.105-1.004-.702-.502-3.727-1.004-5.045-.199-.911-.701-2.02-2.018-.2-3.629 5.852-8.063 12.907-10.072 19.764-1.004 3.831 0 9.882 3.43 13.922 0-3.433 1.213-5.747 2.719-8.678 2.019-3.727 9.172-14.121 13.303-18.056v.104z" clip-rule="evenodd"/><path fill="#fff" fill-rule="evenodd" stroke="#BD6B00" stroke-miterlimit="4.25" stroke-width=".538" d="M364.486 163.021c-4.027 0-4.737-5.348-4.737-6.856 2.018.408 5.438 3.727 4.737 6.856Zm-34.762 52.34c-2.824.607-2.719-6.25.199-9.18-1.308 4.438 2.018 8.469-.104 9.076l-.105.104zm1.213-.104c-.199 3.224 8.062-.408 10.071-3.026-4.832 2.115-9.872.408-10.071 3.026Zm3.524-4.638c-.303 3.13 7.049.304 9.37-2.115-4.936 1.612-9.067-.502-9.37 2.02v.105zm-1.307.408c-2.919.702-2.416-6.458.407-8.877-1.412 4.742 1.81 8.166-.407 8.877Zm3.022-4.334c-2.918.702-1.213-5.444.91-7.862-.408 4.438 1.004 7.568-1.005 7.862h.105zm1.516 0c-.303 3.224 5.438.806 7.655-2.324-4.832 1.518-7.352-.303-7.655 2.324Zm1.516-2.523c-1.81-1.308.104-4.836 3.723-4.637-.407 2.115-1.61 5.946-3.723 4.637ZM325.1 218.993c-.104 3.224 8.063 1.612 10.678-1.811-5.239 1.005-10.375-.806-10.583 1.811h-.104zm32.65-5.851c-.304 3.224 8.669-.408 10.886-3.433-4.737 1.612-10.583.806-10.886 3.433Zm-5.439 1.308c-1.914-1.308 1.914-4.741 5.041-5.547-.408 2.114-3.023 6.856-5.041 5.652zm-.606 2.324c-.199 2.921 9.569 1.309 12.089-1.413-8.366 1.517-11.786-1.11-12.089 1.413Z" clip-rule="evenodd"/><path fill="#fff" fill-rule="evenodd" stroke="#BD6B00" stroke-miterlimit="4.25" stroke-width=".538" d="M347.053 218.699c-1.004 2.722 8.366 2.02 11.691.503-5.343 0-10.886-2.419-11.691-.503Z" clip-rule="evenodd"/><path fill="#fff" fill-rule="evenodd" stroke="#BD6B00" stroke-miterlimit="4.25" stroke-width=".538" d="M342.723 220.71c-1.004 2.418 7.655 2.418 11.891 1.005-5.647 0-10.887-3.433-11.891-1.005Zm-6.348 1.308c-1.611 2.921 7.655 3.13 10.583 1.717-5.239-.702-9.266-4.031-10.583-1.717Zm10.782-4.941c2.918 1.812 2.719-3.632 5.041-7.359-3.629 3.329-7.05 5.652-5.041 7.359Z" clip-rule="evenodd"/><path fill="#fff" fill-rule="evenodd" stroke="#BD6B00" stroke-miterlimit="4.25" stroke-width=".538" d="M341.918 219.097c2.416 2.115 4.434-5.348 6.651-9.578-3.629 4.03-8.868 7.767-6.651 9.483v.105zm-6.85 2.02c2.018 2.419 8.062-7.055 10.279-12.101-3.325 3.936-11.89 10.081-10.279 12.101Zm5.845 7.265c1.005 3.632 16.325-3.433 18.135-7.16-8.869 4.637-18.334 3.632-18.135 7.055zm49.069-74.427c.408-.503 1.412 0 1.213 1.11-.303 1.517-2.52 9.275-6.348 11.901-2.719 2.02-17.13 5.141-23.573 6.554-3.629.701-6.547 2.522-8.963 5.348a94 94 0 0 1 3.023-9.882c1.212-3.025 4.434-6.249 7.854-6.353 6.149-.304 14.202-.807 20.152-3.329a16.23 16.23 0 0 0 6.756-5.349h-.114Z" clip-rule="evenodd"/><path fill="#fff" fill-rule="evenodd" stroke="#BD6B00" stroke-miterlimit="4.25" stroke-width=".538" d="M354.415 184.71c-2.019 1.413-4.131-3.727-1.715-8.677.104 4.741 3.827 6.354 1.715 8.677Z" clip-rule="evenodd"/><path fill="#fff" fill-rule="evenodd" stroke="#BD6B00" stroke-miterlimit="4.25" stroke-width=".538" d="M352.501 189.452c-2.719.806-3.525-4.031-1.81-7.862-.303 4.135 4.33 6.657 1.81 7.862Z" clip-rule="evenodd"/><path fill="#fff" fill-rule="evenodd" stroke="#BD6B00" stroke-miterlimit="4.25" stroke-width=".538" d="M350.378 193.283c-2.624 1.309-3.524-3.632-1.714-7.16-.199 4.543 3.723 5.946 1.714 7.056z" clip-rule="evenodd"/><path fill="#fff" fill-rule="evenodd" stroke="#BD6B00" stroke-miterlimit="4.25" stroke-width=".538" d="M351.487 193.587c1.004 3.025 7.049-2.722 8.063-5.852-3.724 3.727-8.764 3.225-8.063 5.747z" clip-rule="evenodd"/><path fill="#fff" fill-rule="evenodd" stroke="#BD6B00" stroke-miterlimit="4.25" stroke-width=".538" d="M354.206 188.845c1.213 3.025 8.764-5.045 10.479-8.772-3.724 3.727-11.284 6.553-10.479 8.677v.104z" clip-rule="evenodd"/><path fill="#fff" fill-rule="evenodd" stroke="#BD6B00" stroke-miterlimit="4.25" stroke-width=".538" d="M355.722 184.103c1.213 3.528 9.37-5.851 11.786-9.18-4.026 3.632-12.695 6.658-11.786 9.18Zm.303-3.433c-3.022-.607.104-3.025 3.724-6.961.104 4.135-.502 7.056-3.724 6.961Z" clip-rule="evenodd"/><path fill="#fff" fill-rule="evenodd" stroke="#BD6B00" stroke-miterlimit="4.25" stroke-width=".538" d="M360.962 178.252c-1.308-1.309 1.108-1.916 4.13-5.349.503 2.324-2.823 6.553-4.235 5.349zm-14.108 15.325c-1.611 1.005-2.625-2.323-.701-5.244.502 3.224 2.113 4.03.701 5.244Zm34.459-20.475c3.325 2.02 8.669-6.05 10.071-9.379-2.918 3.831-10.677 7.264-10.071 9.379Z" clip-rule="evenodd"/><path fill="#fff" fill-rule="evenodd" stroke="#BD6B00" stroke-miterlimit="4.25" stroke-width=".538" d="M378.395 177.749c1.914 2.02 7.759-3.528 9.777-6.354-3.022 2.722-10.583 3.026-9.777 6.354Z" clip-rule="evenodd"/><path fill="#fff" fill-rule="evenodd" stroke="#BD6B00" stroke-miterlimit="4.25" stroke-width=".538" d="M375.268 181.988c.606 2.826 9.067-3.528 11.085-6.553-3.628 3.528-11.691 3.225-11.085 6.553Z" clip-rule="evenodd"/><path fill="#fff" fill-rule="evenodd" stroke="#BD6B00" stroke-miterlimit="4.25" stroke-width=".538" d="M376.576 185.108c1.307 2.523 8.261-3.831 9.976-7.055-4.33 3.632-11.085 4.542-10.071 7.055h.104zm3.524-12.404c-2.113-2.323-1.213-3.433.408-7.056.805 3.727 2.112 5.245-.408 7.056Zm-2.918 4.334c-4.027.199 0-4.637 1.004-8.772-.407 4.637 1.005 8.374-1.004 8.772Z" clip-rule="evenodd"/><path fill="#fff" fill-rule="evenodd" stroke="#BD6B00" stroke-miterlimit="4.25" stroke-width=".538" d="M374.662 180.879c-2.719-.607-2.018-4.543.199-9.275-.502 5.14 2.321 8.07-.199 9.275Zm1.004 7.767c1.004 3.025 8.868-4.031 10.071-6.857-4.026 3.433-10.782 4.543-10.071 6.857Z" clip-rule="evenodd"/><path fill="#fff" fill-rule="evenodd" stroke="#BD6B00" stroke-miterlimit="4.25" stroke-width=".538" d="M370.938 193.482c1.109 3.026 9.371-3.224 11.891-6.657-4.936 4.03-12.497 3.632-11.891 6.657Z" clip-rule="evenodd"/><path fill="#fff" fill-rule="evenodd" stroke="#BD6B00" stroke-miterlimit="4.25" stroke-width=".538" d="M366.097 198.423c1.307 4.334 9.976-2.627 12.497-6.05-5.439 4.239-13.094 3.025-12.497 6.05Zm8.063-11.095c-2.322 1.109-3.222-5.444-1.914-10.186 0 5.046 4.737 8.877 2.018 10.081z" clip-rule="evenodd"/><path fill="#fff" fill-rule="evenodd" stroke="#BD6B00" stroke-miterlimit="4.25" stroke-width=".538" d="M370.228 192.572c-2.824.806-2.018-6.354.502-11.096.303 4.742 2.321 9.076-.502 11.096Zm-5.041 4.941c-3.022.104-1.004-6.155 1.611-9.683-.408 4.543 1.004 9.076-1.611 9.683Zm5.543 2.627c1.004 1.612 3.221-1.309 7.049-3.528-3.43 1.005-7.457 2.02-7.049 3.528Zm1.809-53.146c-3.022-2.219-.701-6.249 0-10.081 1.005 3.632 3.43 8.469 0 10.081Zm0 5.349c4.539-.503 3.828-6.155 4.027-9.787-1.412 4.941-5.04 5.747-4.027 9.882v-.105zm-.606-.702c-3.723-.199-3.524-4.438-3.723-8.677 1.913 3.935 4.026 4.542 3.723 8.677Z" clip-rule="evenodd"/><path fill="#fff" fill-rule="evenodd" stroke="#BD6B00" stroke-miterlimit="4.25" stroke-width=".538" d="M372.047 156.876c3.022.303 4.434-2.627 5.04-7.056-2.719 4.135-5.135 2.826-5.04 7.056Zm-1.005-.303c-3.723.502-3.022-3.832-3.022-7.056 1.213 3.025 4.235 4.03 3.022 7.056Z" clip-rule="evenodd"/><path fill="#fff" fill-rule="evenodd" stroke="#BD6B00" stroke-miterlimit="4.25" stroke-width=".538" d="M376.879 154.752c-.303 2.826-2.113 7.662-5.041 6.553-1.108-3.433 2.625-4.135 5.041-6.553Z" clip-rule="evenodd"/><path fill="#fff" fill-rule="evenodd" stroke="#BD6B00" stroke-miterlimit="4.25" stroke-width=".538" d="M371.033 161.608c1.213-2.418-3.022-3.727-3.828-6.961-.502 4.638-.104 7.663 3.828 7.056v-.104zm11.995-29.446c-2.321-2.418-.303-6.458.407-10.29 1.005 3.633 2.52 8.469-.407 10.29Zm0 4.637c4.026.503 5.04-7.767 5.542-11.399-1.411 4.941-6.044 7.056-5.542 11.494v-.104zm-.806 0c-2.823-1.517-2.217-4.741-3.022-7.055 1.81 2.921 3.629 3.328 3.022 7.055Z" clip-rule="evenodd"/><path fill="#fff" fill-rule="evenodd" stroke="#BD6B00" stroke-miterlimit="4.25" stroke-width=".538" d="M383.132 142.252c4.131.304 6.651-8.876 6.85-12.508-1.307 4.941-7.456 7.568-6.954 12.508zm-.91-.199c-4.026-.91-3.524-3.528-2.918-7.662 1.308 4.239 3.525 3.328 2.918 7.662Z" clip-rule="evenodd"/><path fill="#fff" fill-rule="evenodd" stroke="#BD6B00" stroke-miterlimit="4.25" stroke-width=".538" d="M383.132 147.497c4.633.806 4.33-6.658 8.063-12.006-3.221 4.03-9.067 9.075-8.063 12.006Zm-1.004-.304c-3.629.2-4.027-5.14-3.828-7.359.91 2.219 5.04 4.239 3.723 7.464z" clip-rule="evenodd"/><path fill="#fff" fill-rule="evenodd" stroke="#BD6B00" stroke-miterlimit="4.25" stroke-width=".538" d="M390.38 141.74c-1.715 5.747-4.235 11.494-7.257 11.096-1.516-3.329 2.918-3.727 7.257-11.096Z" clip-rule="evenodd"/><path fill="#fff" fill-rule="evenodd" stroke="#BD6B00" stroke-miterlimit="4.25" stroke-width=".538" d="M382.023 151.926c1.213-2.523-3.022-3.727-3.827-6.961-.502 4.637-.104 7.662 3.827 6.961Zm7.154-3.633c-2.52 5.141-3.629 11.096-7.049 10.186-1.308-4.031 3.827-4.837 7.049-10.186Z" clip-rule="evenodd"/><path fill="#fff" fill-rule="evenodd" stroke="#BD6B00" stroke-miterlimit="4.25" stroke-width=".538" d="M381.417 157.578c1.516-2.826-2.719-3.727-3.828-7.464-.502 4.837 0 8.374 3.828 7.36zm-7.257-34.795c-2.416.607-5.041-2.115-4.131-6.25 2.823.607 4.026 3.225 4.131 6.25Zm7.958-2.115c-.199 1.214-1.715 1.309-1.213-.408a5.33 5.33 0 0 0 0-3.433 7.6 7.6 0 0 1 0-4.637c.408-1.006 1.81-.408 1.213.408-.606.91-.701 2.826-.199 3.727.607 1.308.408 3.025.199 4.334zm-23.07 16.141c1.004 1.309 2.918.408 1.411-1.517-1.212-1.518-3.022-2.827-3.022-4.439-.199-2.02-1.308-5.045-2.416-6.155-1.109-1.109-2.416.408-1.213 1.214 1.308.806 2.217 4.439 2.113 5.852.104 2.02 2.018 3.528 3.127 5.045Zm3.022-2.324c1.004 1.414 2.416.503 1.611-1.716-.701-1.517-.806-3.528-1.611-4.637-1.213-1.717-3.022-3.13-4.131-4.24-1.213-1.005-2.018 0-1.004 1.006a27.5 27.5 0 0 1 3.325 4.03c1.412 2.219.806 4.031 1.81 5.548zm15.823-7.264c.104 2.02-1.516 2.418-1.412-.408 0-3.025 2.217-5.851 1.004-10.384-.805-2.219-.805-6.354-.407-8.469.407-2.219 2.018-.806 1.307.911-.606 2.019.104 5.652.607 7.567 1.516 5.444-1.213 8.071-1.005 10.793h-.104zm-4.33-11.096c.199 1.916 1.809 2.02 1.307-.502-.407-2.02-.407-3.632 0-5.349.607-2.115.408-5.747 0-7.264-.502-1.612-2.018-.702-1.412.502a10.03 10.03 0 0 1 .304 5.946c-.607 2.02-.503 4.837-.199 6.762v-.104zm15.718 37.413c-.805.91-2.018.303-1.004-1.005 1.004-1.006.701-1.214 1.307-2.419.607-1.413.502-2.115 1.213-3.025.701-1.005 1.611 0 1.004.702-.805 1.005-.606 1.612-1.004 2.522-1.004 1.518-.701 2.324-1.516 3.225Zm-20.55 24.809a8.66 8.66 0 0 0-4.434 6.761 16.1 16.1 0 0 1-2.019 7.16c2.019-.502 3.023-3.727 3.326-6.856.303-3.224 2.018-4.543 3.022-7.056h.105zm-5.136 5.946c-1.714 3.129-4.026 4.334-4.235 6.657-.199 2.722-.407 2.826-1.108 5.444 2.018-.503 2.52-.702 3.022-4.742.303-2.826 2.625-4.742 2.321-7.359Z" clip-rule="evenodd"/><path fill="#fff" fill-rule="evenodd" d="M310.585 213.35c-1.004 1.812-2.018 4.543-4.026 4.031 0-1.309 2.112-2.324 4.026-4.031m-3.022.607c-3.724 1.612-7.049 1.214-7.561 3.632 3.629.408 5.041-1.005 7.656-3.632h-.105zm16.22-12.812a14.12 14.12 0 0 0-5.04 7.767 29.2 29.2 0 0 1-3.629 7.862 13.1 13.1 0 0 0 5.344-7.464c.701-3.025 1.61-5.348 3.325-8.07v-.104zm-3.126 0c-2.824 2.219-5.439 4.837-6.244 7.966-.805 2.921-1.308 5.14-3.221 8.071 3.022-1.916 4.131-4.742 5.04-7.862.701-3.025 2.52-5.245 4.434-8.071v-.104zm-9.266 7.359a1.12 1.12 0 0 0-.702-1.214 35 35 0 0 0-2.624-.806c-1.004-.303-1.611.408-1.611.911v2.02c0 .701.199.806.701.91.702.104 1.715.199 2.416.702.607.408 1.213.104 1.516-.503zm-10.678 0c0-.607.199-1.109.606-1.214a5.55 5.55 0 0 1 2.416-.407c1.004 0 1.109.199 1.109.607v2.114q0 .807-.408 1.006c-.701 0-1.809 0-2.52.607-.502.303-1.004 0-1.108-.607l-.105-2.115z" clip-rule="evenodd"/><path fill="#fff" fill-rule="evenodd" d="M328.217 236.85c0 1.214.199 2.22 1.005 3.13a19.14 19.14 0 0 0-13.909 1.11c-1.81.806-4.027-1.006-1.914-2.722 3.023-2.324 9.778-1.005 14.809-1.518m-57.937 0a7 7 0 0 1-.407 3.026c4.434-1.717 9.171-.199 13.7 1.612 3.022 1.309 3.325-1.005 2.823-1.717a6.55 6.55 0 0 0-5.04-2.921h-11.086zm3.828-21.887c-1.308-.503-2.719 0-4.027 1.413-4.33 4.239-9.475 8.374-13.605 11.702-1.516 1.309-3.023 3.727 3.429 6.051.304.199 5.041 2.02 8.063 2.02 1.308 0 1.308 1.811 1.004 2.323-.502 1.005-.104 1.413-1.108 2.324-1.109 1.005 0 2.114 1.004 1.308 3.629-3.224 9.674-1.109 15.415.702 1.412.408 3.828.304 3.828-1.612 0-2.02 1.516-3.433 2.416-3.528 2.416.408 14.108.503 17.632.104 2.018-.303 2.217 2.921 3.326 4.031.805.91 3.723 1.109 5.846.199 4.026-1.811 10.071-1.811 12.591 0 1.005.702 1.914 0 1.308-.702-.805-1.005-.701-1.612-1.109-2.418-1.004-2.02-.199-2.418.806-2.523 11.085-1.517 14.714-5.244 11.284-8.374-4.434-3.831-9.266-7.767-13.501-12.3-1.213-1.214-2.018-1.716-4.33-.702a66.9 66.9 0 0 1-25.496 5.947 76.5 76.5 0 0 1-24.786-5.852v-.104z" clip-rule="evenodd"/><path fill="#BD6B00" fill-rule="evenodd" d="m326.304 215.569-1.611.408c-9.067 3.225-17.329 5.444-25.894 5.444s-17.13-2.419-25.089-5.652a2.3 2.3 0 0 0-1.516 0 2.85 2.85 0 0 0-1.307.701 116 116 0 0 1-11.891 10.385c-.701.502-.606 1.811.502 2.219 8.366 3.025 16.524 8.573 39.898 8.374 23.677-.199 32.043-5.652 39.499-8.165.502-.2 1.005-.503 1.308-1.006.142-.246.18-.531.104-.806a2.05 2.05 0 0 0-.606-.806c-4.33-3.528-8.869-6.354-11.891-10.489-.303-.502-.91-.607-1.516-.502v-.105zm0 .503c.502 0 1.004 0 1.108.304 3.022 4.334 7.76 7.055 11.995 10.593l.407.701a.5.5 0 0 1 0 .408c-.104.304-.606.607-1.004.702-7.655 2.627-15.823 8.07-39.291 8.27-23.374.199-31.437-5.349-39.803-8.374-.805-.408-.701-1.214-.407-1.413 4.235-3.225 8.262-6.857 11.891-10.489a2.5 2.5 0 0 1 1.108-.607h1.213a68.6 68.6 0 0 0 25.193 5.652c8.764 0 17.13-2.219 26.197-5.349a7 7 0 0 1 1.516-.407h-.104z" clip-rule="evenodd"/><path fill="#fff" fill-rule="evenodd" d="M268.973 63.378c0-1.413 2.018-1.517 1.81.408-.304 2.323 4.538 8.374 4.936 12.1.303 2.523-1.516 4.638-3.221 6.051a6.63 6.63 0 0 1-6.851.503c-.909-.806-1.715-3.329-1.004-4.334.199-.303 1.308 3.727 3.724 3.727 3.325 0 6.044-2.523 6.044-4.742.199-3.831-5.343-9.882-5.438-13.713m9.569 9.484c.607-.408 1.412 1.308.806 1.716-.503.304-1.516-1.309-.806-1.811v.104zm1.516-3.528c-.303.199-.805 0-.701-.2a12.2 12.2 0 0 1 3.629-3.328c.407-.2 1.004.408.805.702a11.1 11.1 0 0 1-3.723 2.826m12.696-10.081c.303-.607 2.112-1.309 2.624-1.717.407-.502.606.408.407.702-.303.702-1.913 1.717-2.624 1.811-.303 0-.606-.407-.407-.701v-.105zm4.329.303a8.47 8.47 0 0 1 2.521-3.433c.502-.303 1.307 0 1.108.408a9.06 9.06 0 0 1-2.918 3.329c-.303.303-.805 0-.701-.304m-3.724 2.722c-.303.2-.104.702.105.806.606.2 1.516.2 2.018 0 .606-.408.303-2.92-.502-1.612-.607.806-1.005.607-1.611.806m-7.352 5.652c-1.308-1.005.407-2.418 1.715-1.413 2.719 2.02-4.027 9.882-7.656 13.514-.701.702-1.307-1.005-.407-1.916a34 34 0 0 0 6.755-7.662c.407-.503.701-1.612-.407-2.523m15.415-6.657c.104-1.006-1.611 0-1.611-1.309 0-.702 1.914-1.214 2.719-.408 1.308 1.413.303 3.727-2.018 3.936-1.809 0-5.04 2.722-4.538 3.224.502.702 5.438 1.11 8.366.702 1.81-.303 1.412 1.309-.407 1.517-1.82.21-3.222 0-4.833.607-2.018.503-2.823 3.026-3.931 4.03-.199.2-.806-.805-.607-1.213.806-1.214 2.018-3.025 3.43-3.632.805-.304-2.416-.408-3.43-.702-.805-.2-.606-1.309-.303-1.916.407-.806 3.43-3.935 4.737-3.831 1.109 0 2.322-.303 2.416-1.005m5.041.199c.606-.503 1.004-1.309 1.516-1.811.303-.304.909 0 .805.806-.104.701-1.004 1.214-1.516 1.716-.502.304-1.004-.408-.701-.702h-.104zm6.547-2.324c.909 0 1.004 1.613.199 1.812-.607.199-1.005-1.717-.199-1.812m-2.113 5.046c0 1.517.701 1.413 2.018 1.308 1.307 0 2.416 0 2.416-1.213 0-1.31-.701-2.523-1.004-1.613-.105.806-.304 2.22-.806 1.612-.407-.502-.199-.606-1.004.2-.502.502-.502-.2-.805-.607-.199-.304-.806.199-.806.407v-.104zm-9.266 7.264c-.303 1.916 0 4.543.909 4.543 1.213 0 3.629-4.03 4.832-6.25.701-1.214 1.81-1.413 1.308-.104-.701 1.915-.607 6.05 0 7.264.407.607 3.022-.607 3.43-1.517.805-1.717.104-4.837.407-6.762.104-1.214 1.307-1.517 1.213-.303a77 77 0 0 0-.104 7.567c0 1.006 2.918 2.419 3.325-.607.199-1.811 1.213-3.727 0-5.747-.805-1.308 1.109-1.213 2.113.607.701 1.214-.606 3.225-.502 4.742 0 2.418-1.81 3.831-3.127 3.831-1.213 0-2.018-1.517-3.022-1.517s-2.217 1.717-3.023 1.612c-3.628-.199-1.715-5.348-2.823-5.443-1.213 0-2.52 5.045-4.027 4.94-1.411-.198-3.022-4.238-2.321-5.85.502-1.613 1.516-2.02 1.412-1.006m17.026-8.07c-1.715-1.006 0-3.727.909-2.826 1.611 2.02 3.221 6.553 4.434 6.96.701.2.607-3.433 1.109-5.045.407-1.309 1.809-.91 1.61.702-.104.503-2.018 6.458-1.809 6.657a47.3 47.3 0 0 1 3.325 7.862c.304 1.214-1.108.408-1.307.2-.91-1.414-2.416-6.554-2.416-6.25l-1.715 7.767c-.199 1.005-1.715.806-1.308-1.006.304-1.413 2.322-8.374 2.217-8.677a17.34 17.34 0 0 0-5.04-6.354" clip-rule="evenodd"/><path fill="#fff" fill-rule="evenodd" d="M321.661 80.126c-.407 0-1.213 1.005 1.213 1.517 3.126.607 6.651-.502 7.655-3.632 1.308-3.727 2.018-7.264 2.719-8.573.806-1.517 1.81-1.413 1.005-3.632-.502-1.717-1.516-1.214-1.715-.304-.502 2.324-2.625 10.081-3.326 11.4-1.213 2.617-3.723 3.632-7.56 3.224" clip-rule="evenodd"/><path fill="#fff" fill-rule="evenodd" d="M328.113 67.816c-.407-.701-1.213 0-1.004.702a1.206 1.206 0 0 0 1.213 1.005c.701 0 2.217.105 2.217-1.005 0-.806-.701-1.517-1.109-.607-.502.806-1.004.702-1.307 0v-.104zm.701-3.025c-.199.2 0 1.11.304 1.005a7.1 7.1 0 0 0 3.325-.806c.199-.199.104-.701-.199-.701-1.004 0-2.624 0-3.43.502m8.869 2.324c.805-1.214 2.823-1.31 2.018.407a590 590 0 0 1-6.348 12.405c-.806 1.413-1.412.702-.806-.408.701-1.413 4.937-12.1 5.136-12.404" clip-rule="evenodd"/><path fill="#fff" fill-rule="evenodd" d="M329.923 81.937c-.199-.806-1.516-2.02-1.308.2.199 3.83 5.543 2.626 7.049 1.308s.304 4.334 2.217 4.941c1.005.304 3.023-1.11 4.027-2.418 2.719-3.528 4.538-8.678 7.049-12.101 1.005-1.413-.502-2.418-1.004-1.309-2.416 3.831-5.239 11.703-8.366 13.713-2.52 1.612-1.715-2.02-1.81-3.224-.104-.806-1.108-2.02-2.416-.91a5.57 5.57 0 0 1-3.723 1.213c-.701 0-1.412 0-1.715-1.413" clip-rule="evenodd"/><path fill="#fff" fill-rule="evenodd" d="M339.397 74.882c0-.304-1.108-.408-1.004.701 0 .806 1.004 1.006 1.109 1.006 1.516-1.214-.304-.607-.105-1.812zm-2.321 4.438c-.303 0-.606 1.005.199 1.11l3.932-.2c.407 0 .606-.91-.407-.806-1.213 0-2.72-.303-3.724 0zM274.61 62.582c.502 0 1.611 1.413 1.516 1.915 0 .2-1.212 0-1.516-.303-.303-.304-.199-1.613 0-1.613m-5.343 10.488c-1.005.607.199 1.717 1.004 1.214 2.823-1.916 7.049-3.831 8.063-7.568.303-1.214 1.412-3.13 2.52-3.528 1.004-.502 2.625 1.916 3.629 0 .606-1.005 2.719.702 3.221-.407.607-1.31.303-2.02.303-3.433 0-.806-.701-1.006-1.212.303-.199.607 0 1.214-.105 1.612-.199.2-.606.408-1.004.2-.199-.2 0-.702-.606-1.006-.199 0-.607-.104-.806.2-.701 1.308-1.004 2.522-2.112 1.005-.91-1.006-1.412-3.13-2.019-.304-.199 1.005-1.714 2.418-2.624 2.418-1.109 0-.805-3.025-3.221-2.522-1.308.303-1.213 2.722-1.005 3.528.304 1.308 4.027.407 3.724 1.214-.607 2.721-4.434 5.443-7.76 7.055m-22.871 13.315c-.105.503.502 1.717 1.108 1.811.606 0 1.004-1.308.805-1.81-.199-.304-1.809-.304-1.913 0m3.325 4.941c-.407-.408-1.61.702-.606 1.517.502.503 2.52 1.11 3.022.2.806-1.214-.701-5.548 0-6.05.502-.504 2.824 2.825 4.027 3.024 2.719.408 2.018-4.637 5.04-4.239 1.914.2 2.113-2.219 1.81-3.831-.199-1.517-2.624-3.632-3.724-4.638-1.411-1.214-2.112 1.006-1.212 1.613 1.212 1.005 3.325 2.92 3.629 4.134.104.607-1.412 1.812-2.019 1.518-1.411-.806-2.624-4.03-3.827-4.742-.408-.2-1.412.303-1.005 1.309.607 1.11 3.023 2.722 3.127 3.935.104 1.006-1.004 3.225-1.81 3.225-.909 0-3.022-2.722-3.723-4.03-.408-.503-1.516-.503-1.715.407a22.3 22.3 0 0 0 .502 5.548c.199 1.612-.909 1.717-1.516 1.11m-4.027-8.678c-.407.408.806 1.214 1.005 1.005.407-.407 2.113-2.323 1.809-3.025-.303-.607-2.624-2.02-3.022-1.309-.701 1.11 2.217 1.717 1.715 2.02a7.4 7.4 0 0 0-1.516 1.31m4.131-8.47s.805 2.523 1.412 1.413c.407-.701-1.412-1.413-1.412-1.413m1.213 4.03c-.199 0-1.005.703-.502 1.006.805.408 2.918.806 2.416-.702-.304-.91 3.221 0 2.321-2.418a3.72 3.72 0 0 0-1.715-1.716c-.408 0-1.516.502-.805.91.502.2 2.018 1.11 1.515 1.716-.701.607-1.108-.303-1.913-.104-.408 0-.105 1.214-.408 1.517 0 .2-.701-.407-.909-.303v.104zm5.542-9.577a3.5 3.5 0 0 0-1.212 2.02c0 .199.303.606.502.502a3.22 3.22 0 0 0 1.212-1.916c0-.303-.199-.806-.502-.606m2.824-.304c-.806-1.005 1.004-2.617 1.715-.503.502 1.31 5.542 7.966 6.547 10.186.805 1.517 0 2.115-.91 1.005-2.52-3.225-4.633-7.264-7.352-10.688m5.239.104c.91-1.005 2.719-3.025 2.217-4.03-.407-1.005-1.516-1.005-1.715-.702-1.004 1.309.806 1.005.502 1.413-.502 1.005-1.004 1.612-1.307 2.618-.104.303.104.91.303.701m78.393 3.225c-.701-.503.606-3.025 1.516-2.02 2.321 2.722 3.429 11.702 4.131 18.455 0 0-1.005.91-1.005.701 0-3.527-1.516-14.519-4.633-17.146m-53.503-8.677c-.805-1.811 1.109-2.419 1.412-1.214 1.307 5.851 4.538 10.29 7.049 14.216.701 1.214 0 2.02-1.715.806-1.213-.806-2.52-3.936-3.022-4.03-1.213-.2-3.828 5.045-9.172 3.527-1.411-.408-1.307-4.542-1.411-6.354 0-.91 1.004-1.005 1.004 0 0 1.717 0 5.245 2.113 5.444 1.809 0 5.647-2.418 6.452-4.438s-1.914-5.947-2.719-8.071v.104z" clip-rule="evenodd"/><path fill="#fff" fill-rule="evenodd" d="M344.438 87.38c.407-1.213 6.149-10.896 6.954-13.01.408-1.006 2.018 1.81.408 3.328-1.412 1.214-5.543 8.07-6.348 10.489-.408 1.005-1.412.503-1.005-.806" clip-rule="evenodd"/><path fill="#fff" fill-rule="evenodd" d="M354.206 78.21c1.004-4.03 3.629.607 1.308 2.826-3.43 3.433-4.539 9.986-10.072 10.992-1.412.303-4.027-.702-4.832-1.309-.303-.2.199-1.612 1.109-.91 1.307 1.005 4.131 1.308 5.647.104a25.7 25.7 0 0 0 6.85-11.703m-57.435 12.813c-.303.303-1.004.303-1.109.701-.303 1.413 0 2.22-.303 3.632-.303 1.413-1.307 1.414-1.213.304 0-1.413 1.308-3.528.408-3.632-.607-.105-1.005-.91-.408-1.309 1.109-.702 1.715-.607 2.416-.408.304.105.408.503.199.702" clip-rule="evenodd"/><path fill="#fff" fill-rule="evenodd" d="M295.975 88.993c-1.411 1.413-2.823 1.916-4.13 3.528-.607.607-.503 1.517-.91 2.418-.303.91-1.412 1.006-1.715.91-.502-.407-.407-2.02-1.004-1.213-.607.91-.91 2.02-1.715 2.02-.701 0-2.018-1.518-1.308-1.518 2.322-.303 2.217-2.02 3.023-2.219 1.004-.104 1.004 1.518 1.715 1.214.407-.199.701-2.115 1.212-2.627 1.516-1.612 2.72-2.418 4.33-3.632.701-.607 1.308.503.502 1.214v-.104zm5.344 5.045c-1.213.2-1.004 1.717-.606 1.812.502.303 1.411.407 1.715-1.31.199-.7.303 3.529 1.809 1.917 1.005-1.006 3.127.199 4.027-1.006.701-.91 1.004-1.517.407-2.721-.199-.304-1.004-.2-1.004.701 0 .806-.502 1.717-1.307 1.612-.408-.104.199-1.915-.199-2.418a.504.504 0 0 0-.702 0c-.303.408.304 2.22-.606 2.418-1.213.2-.606-1.213-1.004-1.413-1.715-.806-1.81.2-2.52.304v.104zm9.067-3.025c.91-.2.607-.2 2.018-1.309.503-.407.607.806.503 1.31 0 .7-1.005.198-1.308.91-.407.91-.199 3.025-.407 3.83 0 .409-.806.409-.806 0-.199-1.004.104-2.02 0-3.328 0-.408-.502-1.11 0-1.309zm-5.04-2.523c-.199.91-.199 1.613-.199 2.324 0 .503 1.004.2 1.004.104 0-.806.199-2.02 0-2.323-.199-.105-.701-.304-.805-.105" clip-rule="evenodd"/><path fill="#fff" fill-rule="evenodd" d="m298.998 79.111-1.412 5.652-2.018-3.83v3.935l-4.434-5.245 1.516 5.652-4.027-3.433 2.217 3.832-7.049-4.543 4.434 5.245-5.647-2.827 4.027 3.434-9.067-3.434 8.764 4.334a29.3 29.3 0 0 1 12.696-2.626c4.936 0 9.37 1.005 12.592 2.626l8.868-4.334-9.067 3.434 4.026-3.434-5.542 2.827 4.33-5.245-7.05 4.543 2.217-3.832-4.026 3.33 1.516-5.549-4.33 5.245v-3.936l-2.018 3.831z" clip-rule="evenodd"/><path fill="#fff" d="m291.844 184.375-.282 1.625h-.374l-.094-1.125a5 5 0 0 0-.469-1 3.5 3.5 0 0 0-.469-.812l-.937-.875.75-1.376c.628.426 1.106.938 1.406 1.501.328.643.487 1.318.469 2m6.562-2.625c0 .437-.187.75-.469.937-.187.188-.562.375-1.218.438l.375.937c.093.413.093.838 0 1.25a8 8 0 0 1-.094.813h-.375c0-.275-.028-.544-.094-.813a2.5 2.5 0 0 0-.187-.625l-.375-.625a6 6 0 0 0-.657-.875l-.937-1.063.563-1.25.937.626c.281.124.563.187.938.187.75 0 1.124-.25 1.124-.813h.376v.876m6 3-.469 1.312c-.375 0-.563-.187-.75-.437l-.375-.813a5 5 0 0 1-.094-1.062c-.3.068-.619.112-.938.125a2.6 2.6 0 0 1-1.218-.25c-.291-.15-.46-.382-.469-.625 0-.563.281-1.063.656-1.438.469-.437.938-.625 1.407-.688.468 0 .75.063.937.251.159.168.253.362.281.562v1.25c0 .563.094.938.281 1.188 0 .187.282.375.751.625m-1.875-2.188c0-.375-.282-.5-.751-.5-.196-.019-.393 0-.562.062-.187.063-.187.126-.187.188 0 .188.281.313.937.313zm8.156 1.875-.282 1.625a3.3 3.3 0 0 1-1.312-1.25 12.6 12.6 0 0 1-1.219-2.562 26.6 26.6 0 0 1-1.687 3.437c-.206.175-.46.325-.75.438V184.5c.562-.437.844-.687.937-.937.319-.332.563-.688.75-1.063l.469-1.688h.375l.844 1.688c.187.375.469.75.844 1l.937.875"/><path fill="#BF0000" d="M328.875 199.625c.375.25.562.5.656.75l.375 1-.75.062a5.1 5.1 0 0 0-.937-.937 15 15 0 0 0-1.031-.75 46 46 0 0 0-1.594-.937 30 30 0 0 0-1.875-1.063c-.375-.125-.563-.25-.563-.313a1 1 0 0 1-.281-.499 4.6 4.6 0 0 1-.187-1l2.531 1.375c.806.437 1.584.899 2.343 1.374zM319.969 196l-.188 1.25h-2.906l.281-1.25zm7.875 5.562L320.719 203l-1.219-1.25 6.094-1.25-.656-.5a2.9 2.9 0 0 0-.844-.375c0 .231-.132.456-.375.625a2.3 2.3 0 0 1-.938.375c-.553.1-1.134.1-1.687 0-.478-.037-.91-.194-1.219-.438-.412-.406-.647-.881-.656-1.374q0-.938.843-1.126c.657-.125 1.688.001 2.813.438 1.106.344 2.072.856 2.812 1.5zm-5.438-2.5a4.7 4.7 0 0 0-.75-.187 1.4 1.4 0 0 0-.562 0 .76.76 0 0 0-.469.187c-.122.113-.122.263 0 .376l.469.124h.562l.375-.187zm-7.5-1-.469 1.25-2.999-.187.468-1.25 2.906.187m7.032 4.813-1.594.25a7.6 7.6 0 0 1-1.594 0 4.7 4.7 0 0 1-1.406-.25c-.281.313-.75.625-1.406.75a10 10 0 0 1-1.5.375l-1.125.188-.938-1.25 1.032-.188c.412-.063.825-.144 1.218-.25l.844-.312-.938-.313h-.656a.5.5 0 0 0-.187 0c-.094.05-.16.112-.188.187h-.469c-.468-.5-.562-.937-.281-1.25s.844-.5 1.875-.625a9.7 9.7 0 0 1 2.438-.124q1.125.093 1.406.562c.188.125.187.313.187.438l-.375.749h.469q.281.029.563 0l1.594-.187zm-7.5 1.125-1.5.188c-.713.1-1.453.006-2.063-.251-.75-.431-1.303-.993-1.594-1.624l-.749-1.375c-.141-.257-.404-.475-.75-.626a5 5 0 0 0-.844-.312l.562-1.313c.563.188.938.375 1.313.625l.937 1.063.469.938 1.031 1.374c.281.188.656.251.938.188l1.594-.125zm-6.563-4.688-.937 1.188-2.813-.437.938-1.188zm1.688 5.25-7.031.438-.375-1.25 5.812-.438a1.65 1.65 0 0 0-.563-.5c-.3-.137-.609-.262-.937-.375l.469-1.25c.656.25 1.125.563 1.5.813.281.313.562.75.75 1.312zm-5.625.625a25 25 0 0 1-2.063-.124 15 15 0 0 1-1.593-.313c-.394.119-.797.2-1.219.25-.535.031-1.06.031-1.594 0H295.5c-.394 0-.778-.062-1.125-.187-.281-.125-.469-.313-.75-.625a4.4 4.4 0 0 1-1.406.625l-1.594.062h-1.594l.188-1.312h1.594c.75 0 1.406-.001 1.968-.251.713-.175 1.191-.618 1.219-1.124l.656.062c-.037.269-.075.544-.093.812 0 .188-.001.313.281.438.281.125.562.187.937.187h1.407c.937 0 1.5.001 1.874-.124.563-.125.844-.313.938-.688l.094-.25s.281 0 .469-.125l.468-.125v.437l-.281.688c.609.138 1.237.244 1.875.313.094-.125 0-.251-.094-.438l-.281-.375c0-.069.038-.131.094-.188l.281-.125.937-.562.469.625v.625zm-10.594-5.437-1.875.812-1.219-.562-1.312.625-1.781-.625 1.687-.812 1.406.5 1.406-.626 1.688.626m-2.813 5.125-6.843-.751.75-1.25 5.812.626c0-.25 0-.438-.187-.626a3.4 3.4 0 0 0-.469-.499l1.5-1.063c.375.375.563.625.656 1 0 .313-.187.75-.468 1.313zm-5.718-.625-1.5-.188q-1.266-.187-1.406-.75c-.188-.375.093-.938.749-1.75l1.126-1.25q.421-.469.281-.75a1.2 1.2 0 0 0-.281-.438l2.062-1c.281.313.281.625.281.875 0 .313-.281.688-.656 1.126l-.75.875c-.422.412-.712.881-.844 1.375 0 .25.188.374.469.437l1.5.25zm-3.563-5-2.344.687-1.687-1.062 2.438-.625zm-.937 4.124a6.4 6.4 0 0 1-1.5.876c-.488.2-1.031.331-1.594.374l-2.25-.062a20 20 0 0 1-2.625-.438c-1.209-.224-2.306-.656-3.187-1.25-.563-.5-.563-.937 0-1.375a6.9 6.9 0 0 1 1.875-.999c.75-.313 1.874-.625 3.562-1l.375.312-2.625.75c-.469.187-.937.375-1.219.625-.375.25-.281.625.188 1 1.687.875 3.769 1.356 5.906 1.375 1.125 0 1.875-.188 2.156-.438.281-.187.375-.375.469-.625l.188-1 2.343-.937q.017.469-.093.937c-.197.375-.516.719-.938 1z"/></g><defs><clipPath id="a"><path fill="#fff" d="M0 0h600v300H0z"/></clipPath></defs></svg>