<svg xmlns="http://www.w3.org/2000/svg" width="600" height="300" fill="none"><g clip-path="url(#a)"><path fill="red" d="M0 0h600v300H0z"/><path fill="#000001" d="M266.789 50c-3.135 0-8.383 1.022-8.315 3.407-8.859-1.43-9.745 2.181-9.2 5.452.818-1.294 1.84-2.044 2.658-2.112 1.159-.205 2.385.204 3.68.954 1.22.763 2.324 1.71 3.271 2.794-3.134.75-5.588.273-8.041-.136a11.2 11.2 0 0 1-3.885-1.636c-1.022-.681-1.363-1.363-2.93-2.93-1.84-1.908-3.816-1.363-3.203 1.567 1.431 2.726 3.816 3.953 6.815 4.498 1.431.204 3.612.681 6.065.681s5.179-.34 6.679 0c-.886.545-1.909 1.568-3.953 1.909-2.044.408-5.111-1.227-7.019-1.636.204 1.567 2.249 3.067 6.201 3.884 6.543 1.363 11.926 2.454 15.538 4.43a25.5 25.5 0 0 1 7.428 6.27c3.203 3.748 3.408 6.678 3.544 7.36.682 5.997-1.431 9.404-5.384 10.495-1.908.477-5.452-.477-6.678-1.977-1.363-1.499-2.522-4.088-2.181-8.177.341-1.5 2.113-5.657.613-6.475a187 187 0 0 0-22.012-10.29c-1.703-.681-3.066 1.636-3.612 2.59a34.22 34.22 0 0 1-24.533-16.152c-2.862-5.179-7.701 0-6.883 4.975 1.295 5.452 5.452 9.405 10.495 12.267 5.111 2.794 11.585 5.588 18.059 5.452 3.544.681 3.476 5.18-.681 6.065-8.246 0-14.857-.136-21.058-6.133-4.702-4.294-7.292.817-5.997 3.68 2.317 8.927 15.061 11.449 27.941 8.587 5.043-.818 2.044 4.497.681 4.566-5.452 3.884-15.061 7.632-23.579 0-3.885-3-6.543-.546-5.043 3.748 3.748 11.244 18.195 8.859 28.077 3.407 2.521-1.431 4.838 1.84 1.772 4.362-12.335 8.586-18.468 8.723-24.057 5.452-6.951-2.795-7.496 4.906-3.407 7.496 4.566 2.726 16.219.681 24.806-4.771 3.68-2.725 3.816 1.568 1.499 3.272-10.154 8.791-14.175 11.108-24.738 9.677-5.247-.409-5.179 6.065-1.09 8.586 5.656 3.476 16.696-2.248 25.215-9.404 3.612-1.908 4.225 1.227 2.453 4.975a36.74 36.74 0 0 1-14.856 12.267c-4.771 1.84-9.268 1.567-12.471.477-3.953-1.363-4.43 2.726-2.249 6.406 1.295 2.248 6.678 2.93 12.539.885s12.131-6.951 16.424-12.607c3.748-3.339 3.339 1.09 1.567 4.225-8.586 13.63-16.492 18.673-26.918 17.855-4.566-.818-5.657 2.726-2.726 6.134 5.179 4.225 11.585 4.088 17.309-.137 4.975-4.77 14.584-15.265 19.627-20.853 3.544-2.794 4.703 0 3.612 5.724-.954 3.271-3.271 6.815-9.745 9.268-4.43 2.522-1.09 5.998 2.181 6.134 1.84 0 5.52-2.181 8.382-5.316 3.68-4.225 3.953-7.019 5.997-13.561 1.908-3.135 5.384-1.636 5.384 1.635-1.704 6.542-3.067 7.701-6.474 10.359-3.203 3.067 2.249 4.089 4.089 2.794 5.315-3.544 7.223-8.178 8.995-12.403 1.363-2.999 5.043-1.568 3.271 3.407-4.089 11.858-10.903 16.492-22.693 18.946-1.159.204-1.908.886-1.499 2.249l4.77 4.77c-7.292 2.181-13.221 3.407-20.581 5.452l-10.086-6.679c-.886-2.18-1.363-5.588-6.679-3.203-3.543-1.635-5.247-1.022-7.223.682 2.862 0 4.089.818 5.247 2.112 1.499 3.885 4.907 4.294 8.382 3.203 2.249 1.84 3.408 3.34 5.725 5.248l-11.381-.341c-4.089-4.293-7.224-4.089-10.086-.681-2.249.34-3.135.34-4.634 2.998 2.317-.954 3.816-1.227 4.839-.204 4.293 2.521 7.087 1.976 9.2 0l11.926.749c-1.5 1.363-3.544 2.045-5.112 3.271-6.133-1.771-9.404.682-10.494 5.657a11.6 11.6 0 0 0-.818 6.338c.545-2.045 1.567-3.749 3.339-4.771 5.452 1.363 7.496-.886 7.837-4.157 2.726-2.181 6.679-2.658 9.337-4.838 3.134.954 4.634 1.567 7.769 2.589 1.09 3.408 3.611 4.702 7.7 3.817 4.771.136 3.953 2.18 4.362 3.748 1.363-2.249 1.295-4.498-1.704-6.543-1.09-2.93-3.544-4.293-6.678-2.589-2.999-.818-3.749-2.045-6.747-2.931 7.496-2.385 12.812-2.93 20.308-5.315l5.248 4.634c1.022.613 1.976.75 2.589 0 4.703-6.815 6.815-12.744 11.108-17.242 1.704-1.908 3.817-4.361 6.134-4.975 1.158-.34 2.59-.136 3.544.886.886.954 1.635 2.794 1.363 5.589-.477 3.884-1.432 5.179-2.522 7.496-1.158 2.385-2.453 3.816-3.884 5.656-2.726 3.612-6.406 5.725-8.587 7.156-4.362 2.794-6.134 1.567-9.541 1.363-4.361.477-5.452 2.59-1.908 5.52 3.271 1.772 6.27 1.976 8.723 1.499 2.044-.409 4.498-3.067 6.27-4.498 1.908-2.249 5.179.409 2.93 3.067-4.021 4.77-7.973 7.905-12.948 7.837-5.248.682-4.226 3.612-.818 5.043 6.27 2.522 11.858-2.249 14.72-5.452 2.181-2.385 3.748-2.453 3.407 1.295-2.248 6.747-5.179 9.336-10.086 9.677-3.952-.409-4.02 2.726-1.09 4.771 6.542 4.497 11.313-3.272 13.562-7.906 1.567-4.225 4.02-2.249 4.293 1.227 0 4.702-2.044 8.451-7.701 13.221 4.294 6.883 9.337 13.902 13.63 20.785l13.085-145.838L299.5 81.144c-1.363-1.227-5.997-6.679-7.156-7.496-.477-.41-.681-.682-.068-.954.614-.273 2.045-.546 3.067-.682-2.726-2.794-5.179-3.68-10.427-5.18 1.295-.544 2.522-.272 6.338-.408a20.56 20.56 0 0 0-9.2-6.951c2.862-2.045 3.407-2.181 6.27-4.566a59 59 0 0 1-13.289-2.59A25.4 25.4 0 0 0 266.857 50zm.545 5.724c2.589 0 4.157.886 4.157 1.977 0 1.09-1.568 1.976-4.157 1.976s-4.225-1.022-4.225-2.044c0-1.09 1.635-1.909 4.225-1.909"/><path fill="#000001" d="M332.211 50c3.135 0 8.383 1.022 8.314 3.407 8.86-1.43 9.746 2.181 9.201 5.452-.818-1.294-1.84-2.044-2.658-2.112-1.159-.205-2.385.204-3.68.954a14.7 14.7 0 0 0-3.271 2.794c3.134.75 5.588.273 8.041-.136a11.2 11.2 0 0 0 3.885-1.636c1.022-.681 1.363-1.363 2.93-2.93 1.84-1.908 3.816-1.363 3.203 1.567-1.431 2.726-3.816 3.953-6.815 4.498-1.431.204-3.612.681-6.065.681s-5.179-.34-6.679 0c.886.545 1.908 1.568 3.953 1.909 2.044.408 5.111-1.227 7.019-1.636-.204 1.567-2.249 3.067-6.201 3.884-6.543 1.363-11.926 2.454-15.538 4.43a25.5 25.5 0 0 0-7.428 6.27c-3.203 3.748-3.408 6.678-3.544 7.36-.682 5.997 1.431 9.404 5.384 10.495 1.908.477 5.452-.477 6.678-1.977 1.363-1.499 2.522-4.088 2.181-8.177-.341-1.5-2.113-5.657-.613-6.475a187 187 0 0 1 22.012-10.29c1.703-.681 3.066 1.636 3.612 2.59a34.22 34.22 0 0 0 24.533-16.152c2.862-5.179 7.701 0 6.883 4.975-1.295 5.452-5.452 9.405-10.495 12.267-5.111 2.794-11.585 5.588-18.059 5.452-3.544.681-3.476 5.18.681 6.065 8.246 0 14.857-.136 21.058-6.133 4.702-4.294 7.292.817 5.997 3.68-2.317 8.927-15.061 11.449-27.941 8.587-5.043-.818-2.044 4.497-.681 4.566 5.452 3.884 15.061 7.632 23.579 0 3.885-3 6.543-.546 5.043 3.748-3.748 11.244-18.195 8.859-28.077 3.407-2.521-1.431-4.839 1.84-1.772 4.362 12.335 8.586 18.468 8.723 24.057 5.452 6.951-2.795 7.496 4.906 3.407 7.496-4.566 2.726-16.219.681-24.806-4.771-3.68-2.725-3.816 1.568-1.499 3.272 10.154 8.791 14.175 11.108 24.738 9.677 5.247-.409 5.179 6.065 1.09 8.586-5.656 3.476-16.696-2.248-25.215-9.404-3.612-1.908-4.225 1.227-2.453 4.975a36.74 36.74 0 0 0 14.856 12.267c4.77 1.84 9.268 1.567 12.471.477 3.953-1.363 4.43 2.726 2.249 6.406-1.295 2.248-6.678 2.93-12.539.885s-12.131-6.951-16.424-12.607c-3.748-3.339-3.339 1.09-1.567 4.225 8.586 13.63 16.492 18.673 26.918 17.855 4.566-.818 5.657 2.726 2.726 6.134-5.179 4.225-11.585 4.088-17.31-.137-4.974-4.77-14.583-15.265-19.626-20.853-3.544-2.794-4.703 0-3.612 5.724.954 3.271 3.271 6.815 9.745 9.268 4.43 2.522 1.09 5.998-2.181 6.134-1.84 0-5.52-2.181-8.382-5.316-3.68-4.225-3.953-7.019-5.997-13.561-1.908-3.135-5.384-1.636-5.384 1.635 1.704 6.542 3.067 7.701 6.474 10.359 3.203 3.067-2.249 4.089-4.089 2.794-5.315-3.544-7.223-8.178-8.995-12.403-1.363-2.999-5.043-1.568-3.271 3.407 4.089 11.858 10.903 16.492 22.693 18.946 1.159.204 1.908.886 1.499 2.249l-4.77 4.77c7.292 2.181 13.221 3.407 20.581 5.452l10.086-6.679c.886-2.18 1.363-5.588 6.678-3.203 3.544-1.635 5.248-1.022 7.224.682-2.862 0-4.089.818-5.247 2.112-1.499 3.885-4.907 4.294-8.383 3.203-2.248 1.84-3.407 3.34-5.724 5.248l11.381-.341c4.089-4.293 7.224-4.089 10.086-.681 2.249.34 3.135.34 4.634 2.998-2.317-.954-3.816-1.227-4.839-.204-4.293 2.521-7.087 1.976-9.2 0l-11.926.749c1.5 1.363 3.544 2.045 5.111 3.271 6.134-1.771 9.405.682 10.495 5.657a11.6 11.6 0 0 1 .818 6.338c-.545-2.045-1.567-3.749-3.339-4.771-5.452 1.363-7.497-.886-7.837-4.157-2.726-2.181-6.679-2.658-9.337-4.838-3.134.954-4.634 1.567-7.769 2.589-1.09 3.408-3.611 4.702-7.7 3.817-4.771.136-3.953 2.18-4.362 3.748-1.363-2.249-1.295-4.498 1.704-6.543 1.09-2.93 3.544-4.293 6.678-2.589 2.999-.818 3.749-2.045 6.747-2.931-7.496-2.385-12.812-2.93-20.308-5.315l-5.248 4.634c-1.022.613-1.976.75-2.589 0-4.703-6.815-6.815-12.744-11.109-17.242-1.703-1.908-3.816-4.361-6.133-4.975-1.158-.34-2.59-.136-3.544.886-.886.954-1.635 2.794-1.363 5.589.477 3.884 1.432 5.179 2.522 7.496 1.158 2.385 2.453 3.816 3.884 5.656 2.726 3.612 6.406 5.725 8.587 7.156 4.362 2.794 6.133 1.567 9.541 1.363 4.361.477 5.452 2.59 1.908 5.52-3.271 1.772-6.27 1.976-8.723 1.499-2.044-.409-4.498-3.067-6.27-4.498-1.908-2.249-5.179.409-2.93 3.067 4.021 4.77 7.973 7.905 12.948 7.837 5.248.682 4.225 3.612.818 5.043-6.27 2.522-11.858-2.249-14.72-5.452-2.181-2.385-3.748-2.453-3.408 1.295 2.249 6.747 5.18 9.336 10.086 9.677 3.953-.409 4.021 2.726 1.091 4.771-6.542 4.497-11.313-3.272-13.562-7.906-1.567-4.225-4.021-2.249-4.293 1.227 0 4.702 2.044 8.451 7.701 13.221-4.294 6.883-9.337 13.902-13.63 20.785L286.415 104.11 299.5 81.144c1.363-1.227 5.997-6.679 7.156-7.496.477-.41.681-.682.068-.954-.614-.273-2.045-.546-3.067-.682 2.726-2.794 5.179-3.68 10.427-5.18-1.295-.544-2.522-.272-6.338-.408a20.56 20.56 0 0 1 9.2-6.951c-2.862-2.045-3.407-2.181-6.27-4.566a59 59 0 0 0 13.289-2.59A25.4 25.4 0 0 1 332.143 50zm-.545 5.724c-2.59 0-4.157.886-4.157 1.977 0 1.09 1.567 1.976 4.157 1.976s4.225-1.022 4.225-2.044c0-1.09-1.635-1.909-4.225-1.909"/></g><defs><clipPath id="a"><path fill="#fff" d="M0 0h600v300H0z"/></clipPath></defs></svg>