<svg xmlns="http://www.w3.org/2000/svg" width="600" height="300" fill="none"><g clip-path="url(#a)"><path fill="#D0103A" d="M0 0h600v300H0z"/><path fill="#FEDF00" d="M0 0h408v300H0z"/><path fill="#0018A8" d="M0 0h192v300H0z"/><path fill="#C7B37F" d="M280.701 50c7.432 0 10.521 6.37 17.953 6.37 4.536 0 7.239-1.448 11.292-3.764 2.799-1.544 4.537-2.413 7.722-2.413s5.308.965 7.046 3.86c.965 1.545 1.737 4.73 1.254 6.468a38.2 38.2 0 0 1-2.606 8.01c-.675 1.545-1.254 2.413-1.254 4.054 0 3.957 5.405 5.309 9.072 5.405.772 0 7.432 0 11.582-4.054-2.219-.096-4.729-1.93-4.729-4.15 0-2.51 1.737-4.15 4.15-4.922.483-.097 1.255.29 1.641 0 .676-.29.386-.965.965-1.352 1.159-.965 1.931-1.544 3.475-1.544.965 0 1.544.097 2.413.676.386.386.579.772.965.772 1.158 0 1.737-.772 2.896-.772.772.01 1.534.212 2.22.579.579.29.579 1.448 1.351 1.448.386 0 2.316-.869 3.378-.869 2.123 0 3.282.772 4.633 2.413.386.483.579 1.351.965 1.351a6 6 0 0 1 4.633 2.896c.289.386.675 1.351 1.062 1.448.579.29.965.193 1.64.675a5.8 5.8 0 0 1 2.703 4.633c0 .676-.29 1.544-.483 2.123-1.737 6.274-6.08 8.301-10.424 13.803-1.93 2.316-3.378 4.15-3.378 7.142 0 .675.965 2.027 1.255 2.606-.193-1.351.483-3.089 1.93-3.185a3.866 3.866 0 0 1 3.861 3.474 4.4 4.4 0 0 1-.29 1.738 9.2 9.2 0 0 1 3.861-1.352h1.834c3.185 0 6.756 1.834 8.976 3.668a20.25 20.25 0 0 1 7.046 16.215c-.772 5.019-.29 14.285-13.319 17.953 2.412.965 4.053 2.895 4.053 5.018.106 2.394-1.747 4.431-4.14 4.537h-.107a4.25 4.25 0 0 1-3.378-1.351c-2.702 2.702-3.185 5.501-3.185 9.362 0 2.316.386 3.667 1.352 5.791.965 2.123 1.737 3.378 3.571 4.922.965-1.447 2.027-2.509 3.86-2.509 1.641 0 3.089.579 3.765 2.123.193.483 0 .869.289 1.351.29.58.772.676 1.062 1.255.482.965 0 1.738.482 2.606.29.676.869.772 1.159 1.351.386.966.482 1.545.482 2.606 0 2.896-2.606 5.019-5.501 5.019-.965 0-1.352-.386-2.22-.289 1.641 1.641 2.895 2.413 4.15 4.343a17.1 17.1 0 0 1 2.896 9.941 21.26 21.26 0 0 1-2.703 10.81 19.3 19.3 0 0 1-6.756 8.205 33.9 33.9 0 0 1-15.443 6.177 71.4 71.4 0 0 1-10.617 1.351l-13.609.772c-6.949.386-11.775 1.448-16.698 6.37 2.317 1.641 3.861 3.378 3.861 6.177s-1.737 5.116-4.536 5.985c-.676.193-1.158 0-1.834.386s-.676 1.254-1.351 1.64a5.94 5.94 0 0 1-3.668.966 7.74 7.74 0 0 1-6.177-2.413c-2.124 1.737-2.896 3.281-5.309 4.729-.772.386-1.158.965-2.027.965-1.447 0-2.123-.965-3.281-1.737a22.4 22.4 0 0 1-4.247-3.861c-2.22 1.255-3.475 2.317-6.081 2.317a6.7 6.7 0 0 1-3.86-.966c-.579-.482-.772-1.158-1.448-1.544-.676-.482-1.255-.289-2.027-.676-2.896-1.254-4.826-3.378-4.826-6.563 0-2.799 1.737-4.536 4.247-5.791-4.826-4.826-9.652-5.598-16.408-5.984l-13.513-.772c-4.246-.29-6.563-.676-10.617-1.351-3.185-.483-5.019-.676-7.914-2.027-9.845-4.633-16.215-10.907-17.373-21.717-.193-.965-.193-1.448-.193-2.413 0-5.598 2.22-9.072 6.177-13.03-.965-.289-1.641 0-2.703-.289-2.413-.965-4.247-2.606-4.247-5.309 0-.965 0-1.64.483-2.509.386-.579.965-.676 1.158-1.351.193-.966 0-1.545.386-2.413.29-.483.773-.579.966-1.159.965-1.833 1.93-3.281 3.957-3.281 1.737 0 2.895.965 3.667 2.413 1.738-.772 2.124-2.027 3.089-3.571a14.96 14.96 0 0 0 1.351-12.837c-.386-1.448-.579-2.413-1.737-3.571-.965.965-1.93 1.351-3.282 1.351-2.799 0-4.826-2.413-4.826-5.116a4.63 4.63 0 0 1 2.896-4.439c-1.544-1.352-2.896-1.448-4.536-2.51-2.51-1.544-3.378-3.282-5.019-5.791-1.158-1.544-1.448-2.703-1.931-4.536a18.5 18.5 0 0 1-.965-7.529c.579-4.826 1.448-7.721 4.44-11.485 1.737-2.22 2.896-3.572 5.598-4.73 2.22-.965 3.571-1.641 5.984-1.641l1.931.097a6.66 6.66 0 0 1 2.702.772c.386.193 1.062.869 1.062.386 0-.482-.29-.772-.29-1.255 0-1.93 1.448-3.86 3.475-3.86 1.448 0 2.027 1.351 2.799 2.606.386-.772.675-1.352.675-2.22 0-3.282-1.833-5.02-3.86-7.625-4.537-5.598-10.135-8.204-10.135-15.443 0-2.123.966-3.571 2.896-4.73.482-.289 1.255 0 1.737-.289.483-.29.386-.965.676-1.351.482-.676.965-.965 1.544-1.544.965-.966 1.93-.58 2.992-1.448.579-.386.772-.966 1.158-1.352 1.255-1.544 2.413-2.316 4.44-2.316.965 0 1.545 0 2.413.386l.965.483c.29-.193.773-.772 1.448-1.062a3.83 3.83 0 0 1 2.124-.58c1.061 0 1.737.58 2.895.58.29 0 .386-.386.772-.58.965-.675 1.448-.964 2.606-.964s1.738.29 2.703.965c.965.482.965 1.255 1.93 1.737.483.29.965.193 1.448.386 2.509.869 4.343 2.51 4.343 5.116 0 1.448-.289 2.413-1.351 3.378-.869.675-1.641.579-2.703.965a15.42 15.42 0 0 0 10.907 3.378c4.054 0 8.976-1.64 8.976-5.694 0-1.93-.965-2.896-1.737-4.633a18.1 18.1 0 0 1-2.027-8.204c0-2.703.289-4.344 1.834-6.467 1.544-2.22 3.474-2.799 6.273-2.799"/><path stroke="#703D29" stroke-linejoin="round" stroke-width=".7" d="M253.676 71.62a3.48 3.48 0 0 0 2.317 2.316c.772.29 2.606.193 3.667-1.35.966-1.159.966-2.703.58-3.861a4.5 4.5 0 0 0-1.641-2.124z"/><path stroke="#703D29" stroke-linecap="round" stroke-width=".7" d="M377.798 146.035c-1.158-2.799-4.15-1.544-4.246 0-.483 3.572 2.606 4.633 4.826 4.054a3.84 3.84 0 0 0 2.413-1.93c.579-.965.772-2.317.386-3.571a4.8 4.8 0 0 0-.773-1.545 5 5 0 0 0-1.254-1.158c-.869-.579-1.834-.579-3.282-.579-5.308 0-10.038 6.274-11.582 12.934-.579 2.123-1.255 7.045-.29 11.582a21.63 21.63 0 0 0 5.695 10.906 24.85 24.85 0 0 0 9.555 5.598 7.6 7.6 0 0 0 3.861.097c3.089-.676 4.536-3.668 2.896-6.757-1.255-2.412-5.116-3.86-6.95-.579-.096.29-.386.869-.386 1.448 0 .869.386 1.931.965 2.317 1.448.868 3.668.579 3.572-1.931"/><path stroke="#703D29" stroke-width=".8" d="M361.197 182.616a10.9 10.9 0 0 1 6.371-3.571c2.895-.387 5.405.482 7.914 1.93a17.86 17.86 0 0 1 10.424 16.408c0 3.475-.965 7.239-1.93 9.073-.773 1.64-2.896 8.686-14.768 13.512-6.852 2.896-17.373 3.475-24.805 3.861-10.038.289-19.303.676-24.612 7.335"/><path stroke="#703D29" stroke-width=".7" d="M363.707 193.908c-.29-.965 0-2.027.772-3.185 1.158-1.544 3.571-2.027 5.791-.965a7.2 7.2 0 0 1 2.413 2.123l1.062 1.545c.675 1.061.965 1.93.965 2.413 2.413 6.756-1.351 13.995-6.274 16.987-3.86 2.316-8.397 3.281-13.898 3.861-2.413.386-3.861.289-6.274.482h-9.266a69 69 0 0 0-6.949 0c-2.799.29-4.826.386-7.335.772a43.5 43.5 0 0 0-5.212.966c-.579 0-1.159.193-1.738.386l-1.158.289c-3.475 1.062-6.756 2.317-9.459 4.054-.772.482-1.737.965-2.413 1.641l-1.254 1.158c-1.931 1.93-3.765 3.861-4.247 6.467v1.544c0 1.737 1.351 4.15 5.212 4.826m5.308-164.08c.772 1.35 1.255 2.22.772 3.764-.579 1.64-1.737 2.702-3.474 2.702-3.861 0-6.081-4.633-4.343-7.528 3.088-5.116 8.976-2.22 14.477.29-.289-1.256-.772-1.738-.675-3.379.096-4.054 3.088-5.791 4.343-9.652.676-2.22.965-4.15-.676-5.79-1.448-1.256-3.088-1.256-4.922-.58-3.668 1.448-8.204 5.695-16.022 5.791-7.915-.096-12.354-4.343-16.119-5.791-1.93-.676-3.474-.676-4.922.676-1.641 1.544-1.351 3.474-.676 5.79 1.255 3.668 4.247 5.502 4.344 9.653 0 1.544-.386 1.93-.676 3.281 5.502-2.51 11.582-5.694 14.478-.29 1.64 3.09-.483 7.432-4.344 7.432-1.737 0-2.895-.965-3.474-2.606-.386-1.447 0-2.702.772-3.86"/><path stroke="#703D29" stroke-linecap="round" stroke-width=".7" d="M294.407 72.489a5.1 5.1 0 0 1 2.316 4.826c-.193 2.413-.772 2.992-2.702 4.343m2.316-3.668c-.096 1.448-.675 2.413-2.22 2.992"/><path fill="#C7B37F" d="m257.827 66.119.675.482.772.772.483.965.193.773v1.834l-.193.772-.483.579-.579.579-.868.482-.966.194-.965.192-.965-.482-.869-.58-.482-.771-.386-.965v-.387z"/><path stroke="#703D29" stroke-linecap="round" stroke-width=".7" d="M256.379 69.883c-.29-1.641-2.124-1.93-2.896-.965-1.061 1.447-.289 3.86 1.931 4.536a3.84 3.84 0 0 0 3.764-1.351c.965-1.255.869-2.703.482-3.861a4.4 4.4 0 0 0-1.64-2.123c-2.606-1.93-6.853-1.545-8.301 1.93-1.737 4.247 2.124 7.528 5.791 9.941 4.44 3.089 9.652 3.668 13.513 3.668 8.879-.097 15.636-4.343 19.979-6.756.965-.58 2.027-.483 2.606.193a1.93 1.93 0 0 1-.29 2.606"/><path stroke="#703D29" stroke-width=".7" d="m230.126 189.565-1.93.676-1.931 1.544-.965 1.255-1.062 1.93-.482 1.448-.386 1.737-.193 1.351m18.338-9.748-.096 1.737-.29 1.159-.965 2.123-1.255 1.737-1.448 1.159-1.061.482-1.545.386"/><path stroke="#703D29" stroke-width=".8" d="M299.329 235.797c-.289 1.641-1.834 3.475-5.115 4.054l-.579.193"/><path stroke="#703D29" stroke-width=".9" d="M380.887 184.739a17.67 17.67 0 0 1 5.405 13.03c0 3.475-.965 7.239-1.93 9.073-.772 1.641-2.896 8.686-14.768 13.512a82.2 82.2 0 0 1-24.708 3.861c-9.942.29-19.111.676-24.516 7.046"/><path stroke="#703D29" stroke-width=".6" d="M364.769 191.206c.772-.965 3.378-2.317 5.598-1.062a5.95 5.95 0 0 1 2.22 1.93"/><path stroke="#703D29" stroke-width=".9" d="m378.378 182.423 1.351.482a6.73 6.73 0 0 0 3.861 0c2.702-.772 4.439-3.281 3.088-6.659a5.8 5.8 0 0 0-1.737-2.027"/><path stroke="#703D29" stroke-linecap="round" stroke-width=".7" d="M222.694 110.999c-1.93 1.062-3.185 1.352-4.633 2.992a27 27 0 0 0-2.509 6.564m44.398-49.9c0 1.737-1.158 2.702-2.896 3.088"/><path stroke="#703D29" stroke-width=".6" d="M374.034 103.471c10.125.203 18.165 8.58 17.962 18.705 0 .135 0 .27-.009.406 0 15.442-9.556 17.855-13.32 18.917"/><path stroke="#703D29" stroke-width=".7" d="M375.289 103.471c7.818-.289 15.925 5.502 16.312 19.979.289 11.293-7.722 16.408-11.583 17.374"/><path stroke="#703D29" stroke-width=".6" d="m370.849 157.907.097-1.544.579-2.413.675-1.93.869-1.545.965-1.254m7.529-3.282v1.448l-.483.965-.676 1.062-.772.579-1.158.482h-1.062l-.772-.096m-13.802-50.962.29-1.64.772-1.545.965-1.448 1.544-2.123 1.352-1.351 1.93-2.124 1.93-1.833 1.062-1.255 1.448-1.834 1.351-1.93.772-1.641.483-2.124.096-2.606-.193-.772m-11.871 123.736 1.544-.386 1.158-.579.676-.675.482-.773.29-1.158v-.868m-152.692-11.679h2.606l1.545-.579m4.826-35.229-.194 1.351-.386.579-.386.579-.675.483-.676.289-.965.097h-.579m9.555-14.96-.289 2.026-.483.966-.772 1.158-1.158.868-1.159.58-2.22.482m14.768-38.317-.483 1.254-.482.965-.773.966-.965.965-1.158.482-1.062.29-.579-.097m.29-5.984v.965"/><path stroke="#703D29" stroke-linecap="round" stroke-width=".6" d="M236.207 134.357a6.7 6.7 0 0 1-2.027 1.351m145.259 43.24.483.193c1.351.772 4.054-.193 3.281-2.316"/><path stroke="#703D29" stroke-width=".6" d="M374.71 149.414c.965 1.254 2.799 1.64 4.247 1.254a3.84 3.84 0 0 0 2.413-1.93c.579-.965.772-2.316.386-3.571a4.7 4.7 0 0 0-.869-1.544 6.6 6.6 0 0 0-1.255-1.448l-.386-.193m6.177 32.816c.049-.222.087-.444.097-.676a3.88 3.88 0 0 0-1.255-2.895l-.772-.773m.386.483c0-1.737-1.448-3.088-3.282-3.378m-4.053 2.702-1.255-.965a15.13 15.13 0 0 1-4.15-10.327c0-4.054 1.544-8.108 3.474-9.652m-54.532 81.558 1.737-1.545 1.158-.965 2.22-1.351 2.124-.965 1.544-.483 2.895-.579 3.475-.579m-28.473 18.725a16.43 16.43 0 0 1-7.335 5.887 17.1 17.1 0 0 1-7.335-5.887"/><path stroke="#703D29" stroke-linecap="round" stroke-width=".6" d="M294.214 239.175a9.65 9.65 0 0 1-2.123 4.054"/><path stroke="#703D29" stroke-width=".6" d="m294.503 237.148-.386 2.124m-2.22 4.15-.965.965-1.641.869-1.93.579m-5.405-171.609c.29-.772.483-1.351.483-2.51-.097-4.053-3.089-5.887-4.344-9.651m0 0c-.675-2.22-.965-4.15.676-5.791 1.351-1.352 3.089-1.352 4.826-.58 3.861 1.448 8.3 5.599 16.118 5.792-7.818-.193-12.354-4.344-16.022-5.791-1.93-.773-3.667-.965-5.115.482-1.641 1.544-1.158 3.668-.483 5.888Zm0 0c1.255 3.764 4.054 5.598 4.151 9.652 0 1.158-.29 1.737-.483 2.51m17.856-13.224c7.721-.386 14.381-5.598 16.504-6.08 1.931-.387 2.896-.194 4.344 1.061-1.351-1.255-2.896-1.158-4.826-.482-3.668 1.447-8.108 5.598-16.022 5.79m76.828 108.969a14.97 14.97 0 0 1-5.984-11.968c0-3.957 1.641-8.107 3.475-9.652m-67.563 94.202c-1.255 1.93-4.15 4.826-7.335 5.984a17.1 17.1 0 0 1-7.336-5.984"/><path stroke="#703D29" stroke-linecap="round" stroke-width=".6" d="m286.782 76.157 2.22-1.255c.965-.58 2.22-.483 2.799.193s.676 1.93-.193 2.702"/><path stroke="#703D29" stroke-width=".6" d="M275.2 81.561c5.308-1.158 9.652-3.474 12.933-5.308m31.079 158.482c.483.29.772.966.772.966.097.193.29.482.29.772.289 1.448-.676 2.316-1.931 2.509a3.206 3.206 0 0 1-3.378-1.93M274.91 81.272c5.309-1.062 9.652-3.475 12.934-5.309m94.201 103.178c-.965.386-1.544.29-2.895-.193l-1.738-.965a20 20 0 0 1-8.107-8.687 17.8 17.8 0 0 1-1.641-4.44 11.4 11.4 0 0 1-.482-3.185 24.7 24.7 0 0 1 4.536-14.767c1.062-1.544 2.027-2.413 4.054-2.509m-138.697-37.932a6.84 6.84 0 0 1 2.606 5.502c0 2.992-2.509 7.914-8.686 9.651a8.01 8.01 0 0 1-6.081-.772"/><path stroke="#703D29" stroke-width=".6" d="M238.137 116.597c1.062.773 1.544 1.641 1.544 3.185 0 .966-.675 2.317-1.834 3.572a11.97 11.97 0 0 1-8.493 3.86c-1.931 0-3.861-.386-5.791-1.64a8.66 8.66 0 0 1-3.668-5.212"/><path stroke="#703D29" stroke-width=".6" d="M238.04 123.064c1.255 1.158 1.641 2.606 1.641 4.44 0 2.606-1.061 4.633-3.571 6.756-.579.579-1.158.965-1.93 1.448m124.991-21.33v3.378m-.29-4.247v4.826m.29-15.25v6.37m-.29-7.721v8.59m-1.834 79.145a18.2 18.2 0 0 1-4.054 5.405 18.9 18.9 0 0 1-5.598 3.957 23.9 23.9 0 0 1-6.37 2.123 31.4 31.4 0 0 1-6.563.869c-2.413 0-3.764 0-6.177-.193-2.51-.193-3.861-.579-6.467-.772-2.123-.193-3.282-.386-5.405-.29a27.3 27.3 0 0 0-10.617 1.737c-2.509.966-5.501 2.896-6.081 3.668a21.2 21.2 0 0 0-6.177-3.668 21.3 21.3 0 0 0-4.922-1.351c-2.22-.386-3.378-.386-5.598-.386s-3.282.097-5.405.29c-2.51.289-3.861.579-6.467.772-2.413.193-3.764.289-6.177.193a31.8 31.8 0 0 1-12.933-2.896 18.8 18.8 0 0 1-6.178-4.633m40.634 51.541 1.738-.193m29.245-2.316 1.737-.097 1.641-.676 1.158-.772 1.641-1.93.289-.579.29-1.641v-.772m45.363-131.94c.676-2.51-.193-5.212-2.702-5.116m-127.404 44.881a7.9 7.9 0 0 1-3.378 4.537m3.475-45.074a6.3 6.3 0 0 1-3.475 3.86c-1.834.772-3.861 0-5.019-.772"/><path stroke="#703D29" stroke-linecap="round" stroke-width=".6" d="M226.072 113.509c1.448.772 2.992-.386 2.703-2.317a2.8 2.8 0 0 0-2.413-2.123"/><path stroke="#703D29" stroke-width=".6" d="M232.249 194.777c.29.29.386.676.773.772.675.193 1.158.386 1.833-.482.772-1.062.29-2.703-.482-3.765a4.82 4.82 0 0 0-5.598-.965c-.772.483-1.641.965-2.51 2.124l-1.061 1.544c-.676 1.062-.966 1.93-1.062 2.316-1.93 5.695.386 11.583 3.957 15.154"/><path stroke="#703D29" stroke-linecap="round" stroke-width=".6" d="m319.116 234.542.675.773.193.868c.29 1.448-.675 2.317-1.93 2.51-1.544.193-2.703-.772-3.185-1.931"/><path stroke="#703D29" stroke-width=".6" d="M366.602 67.566a7.134 7.134 0 0 1 6.081 6.757c0 4.246-1.448 5.79-3.668 8.88-2.413 3.28-10.327 9.265-10.327 16.118 0 4.15 1.158 6.756 4.15 8.107 1.931.965 4.15 0 5.212-.965 2.51-2.316 1.448-6.274-1.158-6.756-3.089-.58-3.764 4.44-.676 4.15m17.277 66.598a3.57 3.57 0 0 0-3.475-2.896 3.575 3.575 0 0 0-3.571 3.571c0 .965.386 1.931.965 2.51"/><path stroke="#703D29" stroke-width=".6" d="M361.294 106.463a6.84 6.84 0 0 0-2.606 5.502c0 2.992 2.509 7.914 8.687 9.651 2.316.676 4.632.579 5.984-.289m-150.568-9.942a9.1 9.1 0 0 0-4.633 3.379 16.34 16.34 0 0 0-2.124 12.257 15.25 15.25 0 0 0 2.22 5.405c.28.415.608.801.965 1.159l1.159.965m61.771 88.796c4.729 2.027 8.108 3.571 11.003 8.204a9.6 9.6 0 0 1 1.158 4.73c0 2.606-.965 5.501-3.185 7.335a8.02 8.02 0 0 1-6.466 1.93c-1.834-.193-3.572-1.544-3.861-2.509m-44.881-108.583c2.606 2.124 3.764 4.054 3.764 7.239a8.12 8.12 0 0 1-3.861 7.239"/><path stroke="#703D29" stroke-linecap="round" stroke-width=".6" d="M233.504 146.325c3.861 4.922 6.081 7.818 6.177 13.609.097 5.502-1.641 9.266-4.826 13.223"/><path stroke="#703D29" stroke-width=".6" d="M309.078 81.561a3.97 3.97 0 0 0 1.447-2.123c.483-1.448.483-2.703-.193-3.86.966 1.35.966 2.412.676 3.86-.097.965-.772 1.448-1.544 2.22m49.706 83.102v15.636l-.096 2.413c-.087.55-.183 1.1-.29 1.641"/><path stroke="#703D29" stroke-width=".6" d="M358.881 163.312v19.207l-.483 2.51m.483-41.503v14.092m.29-12.934v11.389m0-25.866v8.493m-.29-9.555v10.617m.29-18.339v3.379m-.29-4.054v4.826m-1.737 62.929-.386.676a18 18 0 0 1-3.958 5.502 19 19 0 0 1-5.694 3.86 24 24 0 0 1-6.274 2.124c-2.606.579-4.054.772-6.66.868-2.413 0-3.764 0-6.08-.193-2.606-.193-3.958-.482-6.564-.772-2.123-.193-3.281-.289-5.405-.289s-3.378 0-5.501.386a21 21 0 0 0-5.019 1.351c-2.606 1.062-5.502 2.895-6.177 3.668-.579-.773-3.571-2.606-6.081-3.668a21 21 0 0 0-5.019-1.351c-2.123-.386-3.378-.386-5.598-.386s-3.281.096-5.405.289c-2.509.29-3.86.579-6.466.772-2.413.193-3.765.29-6.081.193a32 32 0 0 1-13.03-2.895 18.9 18.9 0 0 1-5.598-3.957 21.5 21.5 0 0 1-2.413-2.703m-1.93-3.089a9.76 9.76 0 0 1-2.22 7.432c-.772.869-2.51 2.51-4.826 2.51-3.571 0-4.633-2.413-4.826-3.089"/><path stroke="#703D29" stroke-width=".6" d="M237.461 187.345c.676.676 1.255 1.448 1.834 2.413.965 1.737.579 4.633-.096 5.984a4 4 0 0 1-.29.386m-19.593 17.374c2.22 2.316 5.501 4.825 10.52 6.852 6.853 2.896 17.47 3.475 24.805 3.861 9.652.29 18.628.676 24.13 6.756m16.698-3.86a11.6 11.6 0 0 1 3.86 5.308m-7.045 11.1a8 8 0 0 1-.676.675 8.03 8.03 0 0 1-6.37 1.931c-1.931-.193-3.668-1.545-4.151-2.51m-5.212-2.799.29.386a7.38 7.38 0 0 0 4.922 2.317m26.06 0a17.36 17.36 0 0 1-7.432 5.887 17.1 17.1 0 0 1-7.335-5.887l-.29-.483m15.057.386.676.676a8.02 8.02 0 0 0 6.467 1.93 5.31 5.31 0 0 0 3.86-2.413l.483-.675"/><path stroke="#703D29" stroke-width=".6" d="m317.957 243.036-.675 1.158-1.062.965-1.641.676h-1.544"/><path stroke="#703D29" stroke-width=".6" d="M321.818 232.129a7.4 7.4 0 0 1 2.316 2.8c.29.675.387 1.447.483 2.219a5.6 5.6 0 0 1-1.448 4.054 7.24 7.24 0 0 1-5.212 2.317h-.386m.193-.193a6.59 6.59 0 0 1-5.019-2.124m61.482-65.536a23 23 0 0 1-4.633-6.177 18 18 0 0 1-1.64-4.343 11.5 11.5 0 0 1-.483-3.185 25.1 25.1 0 0 1 4.44-14.767c.676-.772 1.351-1.738 2.027-2.124m-1.255-73.257c2.413.193 4.633 2.896 4.633 5.502 0 3.667-1.255 5.308-4.247 8.976-2.509 3.088-10.231 8.686-9.941 13.995 0 .965.482 1.93 1.061 2.702m-3.088 3.379a6.9 6.9 0 0 0 1.93 1.351 4.85 4.85 0 0 0 4.15-.29m-20.268-41.599a5.84 5.84 0 0 1 2.123 2.51c1.737 4.343-2.123 7.624-5.791 10.037a20.6 20.6 0 0 1-8.011 3.185"/><path stroke="#703D29" stroke-width=".6" d="M342.666 74.13a4.04 4.04 0 0 1-2.992-1.448 3.4 3.4 0 0 1-.676-.965m-14.477 4.729a4.4 4.4 0 0 1-1.159-.965c-.965-.965-1.447-2.22-.772-4.247.579-1.834 3.571-6.95 3.668-10.52.193-5.405-1.931-8.687-5.116-9.845"/><path stroke="#703D29" stroke-linecap="round" stroke-width=".6" d="m325.968 59.555-.096 1.93-.579 2.124-.965 2.896-.966 1.833-.772 1.834-.386 1.255-.193.965.097.869m36.676 121.902.58.772c.675.965 3.088 2.896 5.308 2.896 3.571 0 4.44-2.51 4.536-3.089.483-2.799-.482-3.474-1.93-4.343 0 0-.772-.386-1.834-.193"/><path stroke="#703D29" stroke-width=".6" d="M219.509 183.002a6.6 6.6 0 0 1-3.571 0c-2.799-.869-5.019-3.475-3.861-6.756m12.934-30.693c.289.289.386.676.386.965.386 3.668-2.703 4.633-4.826 4.054a5.4 5.4 0 0 1-2.896-2.22 4.5 4.5 0 0 1-.675-2.22m21.233-22.778c.58.482.966.965 1.255 1.641m-1.061-8.204c.482.386.868.868 1.061 1.254"/><path stroke="#703D29" stroke-linecap="round" stroke-width=".6" d="M239.681 121.327a8 8 0 0 1-1.544 2.316 11.98 11.98 0 0 1-8.494 3.861c-1.93 0-3.86-.386-5.791-1.641a9.17 9.17 0 0 1-3.86-5.405"/><path stroke="#703D29" stroke-width=".6" d="M237.268 106.656a7.6 7.6 0 0 1 2.317 3.282"/><path stroke="#703D29" stroke-linecap="round" stroke-width=".6" d="M239.585 114.281c-.869 2.896-3.378 6.37-8.301 7.625-2.316.579-5.405-.193-6.37-.965"/><path stroke="#703D29" stroke-width=".6" d="M222.405 113.702c.289 2.509 1.93 4.44 5.212 4.44 4.536.096 7.335-6.467 3.281-11.1"/><path stroke="#703D29" stroke-linecap="round" stroke-width=".6" d="M212.174 135.805q1.013 1.302 2.316 2.316a16.2 16.2 0 0 0 5.791 3.185m5.019.483c4.054-.483 6.37-3.572 5.791-7.046-.289-2.703-2.702-4.826-4.44-4.923"/><path stroke="#703D29" stroke-width=".6" d="M231.863 99.707a2.75 2.75 0 0 1 2.799 2.895"/><path stroke="#703D29" stroke-linecap="round" stroke-width=".6" d="M231.477 75.48a11.13 11.13 0 0 0 4.826 5.695m139.179 29.921c1.641 2.22.579 6.756-3.861 6.756a5.01 5.01 0 0 1-4.343-2.413"/><path stroke="#703D29" stroke-width=".6" d="M359.171 81.368v15.347"/><path stroke="#703D29" stroke-linecap="round" stroke-width=".6" d="M226.072 113.412c1.351.966 3.185-.675 2.413-2.509-.482-1.158-2.123-2.51-4.536-.869-2.703 1.834-1.931 7.529 3.088 7.625 4.537 0 7.336-6.563 3.282-11.196-3.861-4.44-10.907-3.475-15.443.193a20.64 20.64 0 0 0-6.949 11.293 21.8 21.8 0 0 0 0 8.879 20.1 20.1 0 0 0 2.895 7.239l1.255 1.641c.772.772.965 1.158 1.93 1.93a14.5 14.5 0 0 0 10.038 3.572c4.44-.193 7.046-3.282 6.564-7.046-.387-3.668-4.054-5.502-6.467-3.764-1.641 1.158-2.22 4.729.675 5.598 1.545.482 2.993-1.641 1.931-2.896m124.991-69.3c2.606-1.351 4.632-1.158 6.08.965a9.57 9.57 0 0 1 1.545 6.95 8.9 8.9 0 0 1-3.379 5.598"/><path stroke="#703D29" stroke-linecap="round" stroke-width=".6" d="M358.012 64.864c2.992-1.93 6.274-1.062 8.011 1.544 1.255 1.93 1.641 3.475 1.545 5.888a10.81 10.81 0 0 1-5.502 8.88"/><path stroke="#703D29" stroke-width=".6" d="M372.007 71.813c2.51.193 4.44 2.413 4.44 4.923 0 3.667-.965 5.308-3.86 8.976-2.606 3.185-10.231 8.686-10.038 14.091 0 2.027 1.737 3.861 3.185 4.054"/><path stroke="#703D29" stroke-linecap="round" stroke-width=".6" d="M372.393 113.412c-1.447.966-3.185-.579-2.413-2.316.483-1.158 2.124-2.703 4.537-1.062 2.606 1.834 1.93 7.529-3.185 7.625-4.537 0-7.722-6.37-3.282-11.196 3.861-4.44 11.293-3.571 15.926.097 1.93 1.544 5.887 5.791 6.756 11.582.965 6.756.869 15.057-6.177 20.268-2.896 2.027-6.757 2.993-10.231 2.896-4.44-.193-7.046-3.378-6.563-7.142.482-3.668 3.86-5.212 6.466-3.765 2.703 1.448 2.22 5.212-.675 5.599-1.641.193-2.992-1.641-1.931-2.896"/><path stroke="#703D29" stroke-width=".6" d="M369.981 111.096c.772-3.378 3.571-3.668 5.984-3.668 6.273.097 10.713 7.722 10.81 14.961 0 9.169-3.861 14.67-10.617 14.96-1.834 0-4.826-.772-4.826-2.896"/><path stroke="#703D29" stroke-linecap="square" stroke-width=".6" d="M373.938 109.552c6.659 1.544 8.976 7.528 8.976 13.319 0 4.73-.483 11.196-9.652 13.416"/><path stroke="#703D29" stroke-width=".6" d="M384.941 174.219a3.76 3.76 0 0 0-3.108-4.324 3.76 3.76 0 0 0-4.324 3.108 3.78 3.78 0 0 0 1.351 3.542"/><path stroke="#703D29" stroke-linecap="round" stroke-width=".6" d="M371.428 168.524c1.352 1.93 2.896 3.957 6.081 5.791m-1.255 10.135c-3.088-2.124-9.169-4.826-14.477-2.124a7.31 7.31 0 0 0-4.247 4.247 9.66 9.66 0 0 0 1.737 9.169c.869.965 2.606 2.51 4.826 2.606 3.668 0 4.536-2.509 4.633-3.088.386-2.703-1.158-3.765-1.931-3.958-.675-.289-2.702-.193-3.088 1.255-.193.483-.193 1.255.193 1.93"/><path stroke="#703D29" stroke-linecap="round" stroke-width=".6" d="M319.405 235.121c.965 2.124-.193 3.089-1.544 3.282-2.124.29-3.185-1.351-3.282-2.895a4.246 4.246 0 0 1 3.948-4.527h.202c2.22 0 3.958 1.448 4.826 3.378.29.676.483 1.448.483 2.316a5.58 5.58 0 0 1-1.351 3.958 7.24 7.24 0 0 1-5.212 2.413c-4.054.096-7.239-3.668-7.239-7.529 0-7.432 11.003-11.582 15.443-12.547a80.8 80.8 0 0 1 17.276-2.317c3.379-.096 5.985 0 9.749-.482 3.378-.29 5.212-.483 8.686-1.255a26.24 26.24 0 0 0 12.162-6.177c2.799-2.606 4.343-4.343 5.694-7.914a16.4 16.4 0 0 0-1.254-13.417 13.79 13.79 0 0 0-9.942-6.563c-3.571-.482-6.756 1.062-8.686 4.633-.966 1.737-.58 4.633.096 5.984a5.8 5.8 0 0 0 4.633 2.896c3.668 0 4.536-2.51 4.633-3.089.386-2.702-1.158-3.764-1.931-4.054-.675-.193-2.702-.096-3.088 1.352-.193.482-.193 1.254.193 1.93"/><path stroke="#703D29" stroke-linecap="round" stroke-width=".6" d="M316.22 223.346c-4.633 2.027-8.108 3.572-11.003 8.204a9.5 9.5 0 0 0-1.158 4.73c0 2.606 1.061 5.501 3.185 7.335a8.02 8.02 0 0 0 6.467 1.931c1.93-.194 3.571-1.545 3.86-2.51"/><path stroke="#703D29" stroke-width=".6" d="M362.452 134.453c-2.22.772-3.764 4.054-3.764 7.239a8.12 8.12 0 0 0 3.861 7.239"/><path stroke="#703D29" stroke-linecap="round" stroke-width=".6" d="M364.865 146.325c-3.861 4.922-6.081 7.818-6.177 13.609 0 5.502 1.641 9.266 4.922 13.223"/><path stroke="#703D29" stroke-width=".6" d="m343.921 64.864.289-.483c1.641-2.316 4.537-2.992 6.66-1.448 2.509 1.93 3.185 5.212 2.509 8.687-.482 2.123-1.93 3.957-3.86 5.308"/><path stroke="#703D29" stroke-linecap="round" stroke-width=".6" d="M246.631 63.706c-2.51-1.159-4.537-.966-6.081.965a8.41 8.41 0 0 0-1.544 6.95c.579 2.605 1.351 3.667 3.378 5.597"/><path stroke="#703D29" stroke-width=".6" d="M240.357 64.864a5.6 5.6 0 0 0-7.818 1.254 5 5 0 0 0-.193.29 8.8 8.8 0 0 0-1.544 5.888c.193 4.053 2.702 7.335 5.598 8.88"/><path stroke="#703D29" stroke-width=".6" d="M231.767 67.566a6.56 6.56 0 0 0-5.791 6.37c0 4.344.965 6.081 3.378 9.266 2.413 3.282 10.327 9.266 10.327 16.119 0 4.15-1.158 6.756-4.15 8.107-1.93.965-4.15 0-5.212-.965-2.51-2.316-1.448-6.274 1.158-6.756 3.185-.58 3.764 4.44.676 4.15"/><path stroke="#703D29" stroke-width=".6" d="M226.265 71.813c-2.413.193-4.826 2.22-4.826 4.826 0 3.668 1.448 5.405 4.44 9.073 2.51 3.185 9.748 8.686 9.555 13.995 0 1.93-1.447 4.44-2.799 4.15"/><path stroke="#703D29" stroke-linecap="round" stroke-width=".6" d="M220.474 146.035c1.255-2.799 4.247-1.544 4.44 0 .386 3.572-2.702 4.633-4.922 4.054a3.84 3.84 0 0 1-2.413-1.93 4.6 4.6 0 0 1-.386-3.571c.193-.57.482-1.091.868-1.545a4.8 4.8 0 0 1 1.158-1.158c.966-.579 1.834-.579 3.282-.579 5.309 0 10.038 6.274 11.582 12.934.579 2.123 1.255 7.045.29 11.582a21.6 21.6 0 0 1-5.598 10.906 24.9 24.9 0 0 1-9.652 5.598 6.75 6.75 0 0 1-3.764.097c-2.703-.869-4.44-3.378-3.089-6.757 1.158-2.509 5.212-3.86 7.046-.579.193.29.386.869.386 1.448 0 .869-.386 1.931-.965 2.317-1.351.868-3.571.579-3.475-1.931"/><path stroke="#703D29" stroke-width=".6" d="M216.42 179.141c.966.386 1.545.29 2.799-.193l1.738-.965c2.509-1.448 5.405-3.668 8.107-8.783a17.9 17.9 0 0 0 1.641-4.344c.29-.965.483-2.123.579-3.185a24.7 24.7 0 0 0-4.633-14.767c-1.061-1.544-1.93-2.413-4.053-2.509m-9.17 29.92a3.757 3.757 0 0 1 3.002-4.391 3.758 3.758 0 0 1 3.069 6.611"/><path stroke="#703D29" stroke-width=".6" d="M214.876 170.455a3.57 3.57 0 0 1 3.571-2.896 3.57 3.57 0 0 1 3.475 3.571c0 .927-.338 1.824-.965 2.51"/><path stroke="#703D29" stroke-width=".6" d="M221.825 170.358a14.97 14.97 0 0 0 5.985-11.968c0-3.958-1.545-8.108-3.475-9.652"/><path stroke="#703D29" stroke-linecap="round" stroke-width=".6" d="M226.941 168.524a15.9 15.9 0 0 1-6.081 5.791"/><path stroke="#703D29" stroke-width=".6" d="M236.496 182.326c-.965-2.123-2.702-3.088-5.598-3.378-2.895-.289-5.308.483-7.914 1.834a17.97 17.97 0 0 0-10.424 16.408 24.2 24.2 0 0 0 1.93 9.169c.869 1.544 2.896 8.687 14.767 13.513a83.2 83.2 0 0 0 24.805 3.764c10.038.386 19.304.772 24.709 7.335"/><path stroke="#703D29" stroke-linecap="round" stroke-width=".6" d="M222.115 184.45c3.185-2.124 9.169-4.826 14.574-2.124a7.72 7.72 0 0 1 4.15 4.247 9.66 9.66 0 0 1-1.737 9.169c-.869.965-2.606 2.51-4.826 2.606-3.667 0-4.536-2.509-4.633-3.088-.386-2.703 1.159-3.765 1.931-4.054.675-.193 2.702-.097 3.088 1.351.193.483.193 1.255-.193 1.93"/><path stroke="#703D29" stroke-width=".6" d="M234.662 193.908c.29-.965.193-2.123-.772-3.185a4.92 4.92 0 0 0-5.791-.965c-.676.483-1.544.965-2.316 2.124-.386.386-.966 1.061-1.159 1.544-.675 1.062-.965 1.93-.965 2.413-2.413 6.756 1.448 13.898 6.274 16.987 4.247 2.702 8.494 3.475 13.899 3.861 2.412.289 3.86.289 6.273.482h9.266a69 69 0 0 1 6.949 0c2.896.29 4.923.386 7.336.772 1.544.193 3.378.483 5.212.966.579 0 1.158.193 1.737.386l1.158.289c3.475 1.062 6.756 2.317 9.459 4.054.772.483 1.737.965 2.413 1.641l1.255 1.158c1.93 1.93 3.86 3.861 4.246 6.467v1.544c0 1.737-1.351 4.15-5.115 4.826"/><path stroke="#703D29" stroke-width=".6" d="M278.964 235.122c-.965 2.123.193 3.088 1.544 3.281 2.124.29 3.185-1.351 3.379-2.895.164-2.336-1.612-4.363-3.948-4.527-.097 0-.203-.01-.299-.01a5.31 5.31 0 0 0-4.826 3.378 6.6 6.6 0 0 0-.483 2.317 5.59 5.59 0 0 0 1.351 3.957 7.24 7.24 0 0 0 5.212 2.413c4.054.097 7.239-3.668 7.239-7.528 0-7.432-11.003-11.583-15.443-12.548a80.8 80.8 0 0 0-17.276-2.316c-3.378-.097-5.984 0-9.749-.483-3.378-.289-5.212-.482-8.686-1.255a26.2 26.2 0 0 1-12.065-6.177c-6.65-4.922-8.59-14.024-4.536-21.234a13.79 13.79 0 0 1 9.941-6.659c3.668-.483 6.756 1.061 8.687 4.633.965 1.737.579 4.632-.097 5.984a5.8 5.8 0 0 1-4.633 2.895c-3.667 0-4.536-2.509-4.633-3.088-.386-2.703 1.159-3.765 1.931-4.054.675-.193 2.702-.097 3.088 1.351.193.483.193 1.255-.193 1.93"/><path stroke="#703D29" stroke-linecap="round" stroke-width=".6" d="m254.545 64.864-.386-.483c-1.641-2.316-4.536-2.992-6.66-1.448-2.509 1.93-3.185 5.212-2.413 8.687a8.68 8.68 0 0 0 3.861 5.308"/><path stroke="#703D29" stroke-width=".6" d="M344.789 72.2c-3.86 4.246-7.818 5.597-13.609 5.79-1.93 0-5.308-.579-7.335-2.027-1.255-.965-2.703-2.51-1.834-5.308.579-1.834 3.571-6.95 3.668-10.52.289-5.406-1.834-8.398-5.116-9.556-5.984-2.123-12.547 3.86-16.408 5.212-2.027.676-3.088.772-4.922.772-1.931 0-2.896-.096-5.019-.772-3.861-1.351-10.328-7.335-16.408-5.212-3.282 1.158-5.309 4.15-5.116 9.652.097 3.475 3.089 8.687 3.668 10.424.965 2.799-.483 4.343-1.834 5.308-1.93 1.448-5.501 2.027-7.239 1.93-5.791-.096-9.748-1.447-13.609-5.694"/><path stroke="#703D29" stroke-linecap="round" stroke-width=".6" d="M277.709 221.609c.772.29.193-.193 5.116 1.93a21.23 21.23 0 0 1 10.906 8.59 10.14 10.14 0 0 1 .869 7.046"/><path stroke="#703D29" stroke-width=".6" d="M278.095 242.457a7.7 7.7 0 0 0 3.089.869c4.054.096 7.239-3.668 7.239-7.529 0-2.702-1.448-5.019-3.475-6.756"/><path stroke="#703D29" stroke-linecap="round" stroke-width=".6" d="M278.964 235.122c-.965 2.219.386 3.378 1.737 3.571 2.124.193 3.282-1.352 3.475-2.896a4.36 4.36 0 0 0-2.123-4.054"/><path stroke="#703D29" stroke-width=".6" d="M367.278 67.566c3.089 0 5.791 3.475 5.791 6.95 0 4.15-2.123 6.66-3.764 8.493-1.255 1.544-2.606 2.896-4.247 4.537"/><path stroke="#703D29" stroke-linecap="round" stroke-width=".6" d="M363.61 64.285a8.8 8.8 0 0 1 2.703 2.316c1.255 1.93 1.641 3.571 1.544 5.984-.193 4.054-3.088 6.853-5.791 8.687m-4.536-16.987.579.675c1.834 2.124 1.93 5.212 1.544 6.95a7.9 7.9 0 0 1-3.668 5.212m-4.826-13.899c2.51 1.93 3.282 5.212 2.413 8.687-.579 2.413-2.123 3.86-4.053 5.019m10.713 39.668c.29.966.869 1.255 1.448 1.931a13.05 13.05 0 0 0 5.984 3.378c2.316.676 4.44.193 6.081-.869m-157.325 52.12c1.159 0 2.413.869 3.185 2.22.097.193.387.772.387 1.448 0 .868-.387 1.737-.966 2.123-1.447.965-3.86.483-3.86-1.93"/><path stroke="#703D29" stroke-width=".6" d="M223.852 141.403c4.826.965 9.363 6.659 10.81 12.836.579 2.22 1.255 7.046.29 11.583a21.6 21.6 0 0 1-5.791 11.003 16 16 0 0 1-2.027 1.834l-.965.675m-7.722-11.679c1.931 0 3.668 1.834 3.668 3.861 0 .927-.338 1.824-.965 2.51"/><path stroke="#703D29" stroke-width=".6" d="M217.193 169.779c2.026 0 3.957 1.93 3.957 4.054a3.76 3.76 0 0 1-1.351 2.895"/><path stroke="#703D29" stroke-linecap="round" stroke-width=".6" d="M235.917 149.317a17.36 17.36 0 0 1 3.668 7.432m0 8.204a16.8 16.8 0 0 1-1.448 3.861 17.2 17.2 0 0 1-3.475 4.536"/><path stroke="#703D29" stroke-width=".6" d="M236.207 134.646c1.737 1.448 2.895 2.896 3.378 4.633"/><path stroke="#703D29" stroke-linecap="round" stroke-width=".6" d="M239.681 130.013a9.63 9.63 0 0 1-3.281 4.44m-8.88-16.601 2.123-.579 1.255-.965.772-1.062.676-1.737.289-1.448"/><path stroke="#703D29" stroke-width=".6" d="M223.37 110.517c-.676.193-1.545.386-2.413.772a8.66 8.66 0 0 0-3.378 2.896 16.42 16.42 0 0 0-2.124 12.257 15.25 15.25 0 0 0 2.22 5.405l.965 1.352c1.352 1.254 2.51 1.93 4.44 1.64"/><path stroke="#703D29" stroke-linecap="round" stroke-width=".6" d="M234.952 101.348c-.29 1.254-.965 2.799-2.896 2.606"/><path stroke="#703D29" stroke-width=".6" d="M227.906 109.745c-1.93-1.834-5.791-2.317-9.748.193l-1.545 1.254a8.3 8.3 0 0 0-1.351 1.545 17 17 0 0 0-2.316 4.826c-.676 2.895-.676 5.405-.579 6.08 0 .965.193 1.834.289 2.606.579 2.703 1.351 4.633 2.22 5.984.869 1.448 2.896 4.826 7.432 5.212 1.737.097 4.633-.675 4.826-2.895"/><path stroke="#703D29" stroke-linecap="round" stroke-width=".6" d="M341.894 69.69c.289-1.544 2.22-1.834 2.895-.965 1.159 1.544.386 4.053-1.93 4.729-1.38.25-2.78-.27-3.668-1.351-.965-1.255-.868-2.703-.482-3.861.193-.772.868-1.448 1.641-2.123 2.605-1.93 6.852-1.545 8.3 1.93 1.737 4.247-2.123 7.528-5.791 9.941-4.44 3.089-9.652 3.668-13.513 3.572-8.879 0-15.539-4.247-19.979-6.757-.965-.482-2.027-.386-2.606.29a1.93 1.93 0 0 0 .29 2.606"/><path stroke="#703D29" stroke-linecap="round" stroke-width=".6" d="M343.631 68.242c.965 0 1.158.386 1.448.772 1.158 1.448.289 3.957-1.931 4.73m17.181 49.706c-3.378 3.668-.193 9.942 2.316 11.389.869.676 1.255.29 1.93.676"/><path stroke="#703D29" stroke-width=".6" d="M360.522 116.404c-1.062.773-1.448 1.641-1.545 3.186a5.13 5.13 0 0 0 1.352 3.86 13.52 13.52 0 0 0 8.976 3.571c1.93 0 3.861-.386 5.791-1.64a8.67 8.67 0 0 0 3.668-5.212m-20.076 59.648-.193 2.413a18.4 18.4 0 0 1-1.93 6.756 18.3 18.3 0 0 1-4.054 5.405 19.1 19.1 0 0 1-5.695 3.861 23.9 23.9 0 0 1-6.273 2.22 42.2 42.2 0 0 1-12.741.579c-2.606-.193-3.957-.483-6.563-.772-2.123-.097-3.282-.29-5.405-.29a27.4 27.4 0 0 0-10.521 1.834c-2.606.965-5.501 2.895-6.177 3.668-.579-.869-3.571-2.703-6.08-3.668a21.2 21.2 0 0 0-5.019-1.448c-2.124-.386-3.378-.386-5.598-.386s-3.282.193-5.405.386c-2.51.193-3.861.579-6.467.676-2.413.193-3.764.289-6.081.193a32 32 0 0 1-6.756-.772 24 24 0 0 1-6.274-2.124 18.9 18.9 0 0 1-5.598-3.957 18 18 0 0 1-4.053-5.502 18.3 18.3 0 0 1-1.931-6.659c-.193-.965-.193-2.413-.193-2.413V81.561h118.91z"/><path fill="#C7B37F" stroke="#C7B37F" stroke-width=".3" d="M230.126 193.812a2.414 2.414 0 1 1 4.828.002 2.414 2.414 0 0 1-4.828-.002Zm-14.96-16.987c0-1.255.772-2.22 1.737-2.22s1.641.965 1.641 2.22c0 1.158-.772 2.123-1.641 2.123-.965 0-1.737-.965-1.737-2.123Z"/><path fill="#C7B37F" d="M223.659 133.971c0-.966.772-1.738 1.641-1.738.965 0 1.641.772 1.641 1.738 0 .965-.676 1.737-1.641 1.737s-1.641-.772-1.641-1.737m29.631-63.316c0-.965.483-1.93 1.352-1.93.868-.097 1.64.579 1.737 1.544 0 .965-.483 1.93-1.351 1.93-.869.097-1.545-.579-1.738-1.544"/><path stroke="#C7B37F" stroke-linecap="round" stroke-width=".6" d="M221.729 144.009c-.386.096-.579.193-.772.482-.29.29-.386.386-.579.869l-.193 1.158m4.536 25.77.965-.965.579-.965.483-.965.675-1.255m-1.254 13.513-1.448.675-1.062.579c-.424.242-.849.493-1.255.773l-1.158.965m14.478-36.581-.772-.772-.965-.772-.869-.772"/><path stroke="#C7B37F" stroke-width=".6" d="m236.11 135.322-1.158.483c-.463.164-.956.27-1.448.289"/><path stroke="#C7B37F" stroke-linecap="round" stroke-width=".6" d="M219.895 119.3c.193.579.193.965.483 1.448.193.675.482 1.062.868 1.641a8 8 0 0 0 2.51 2.606l1.448.772m-.966-5.598 1.255.579a7.1 7.1 0 0 0 2.896.579l1.737-.097m6.949-39.282-1.93-1.159c-.869-.482-1.255-.868-1.93-1.447a8.8 8.8 0 0 1-1.062-1.255l-.772-1.255m7.239-4.44.579 1.641a7.5 7.5 0 0 0 1.351 1.93c.965.966 1.641 1.255 2.702 2.124m1.352-5.791c.289.675.289.965.675 1.544.193.483.386.772.772 1.158l1.255 1.255c.676.58 1.158.676 1.93 1.062"/><path fill="#703D29" stroke="#703D29" stroke-width=".2" d="M312.456 64.478c0-1.641-1.641-1.738-2.317-1.738-1.737 0-2.22 1.062-4.439 2.22a11.5 11.5 0 0 1-6.467 1.93 11.6 11.6 0 0 1-6.467-1.93c-2.22-1.158-2.606-2.22-4.44-2.22a2.223 2.223 0 0 0-2.123 2.317v.868l.289.194c0-.773.097-1.159.483-1.641a2.15 2.15 0 0 1 1.544-.772c1.738 0 2.413 1.158 4.633 2.316 2.896 1.544 4.054 1.834 6.467 1.93a11.56 11.56 0 0 0 6.563-1.93c2.22-1.158 2.896-2.413 4.633-2.413.579 0 .965.386 1.255.965v.869l.193.096c0-.29.193-.386.193-.965z"/><path fill="#703D29" d="M245.955 201.919c.483-.482.869-.289.965-.579q0-.192-.289-.289l-.869-.193-.772-.386c-.097 0-.386-.193-.483 0-.096.386.965.386.579 1.351-.183.434-.444.83-.772 1.158l-2.509 2.896-.193.096v-4.15l.096-1.737c.193-.387.772 0 .869-.387 0-.096 0-.193-.29-.289-.193 0-.482 0-1.061-.29l-.966-.482c-.193 0-.482-.193-.579 0l.097.289c.386.193.482.386.482.965v7.143c0 .482.097.579.193.675.097 0 .193 0 .387-.289z"/><path fill="#703D29" d="M248.947 203.078c.29-1.062.965-.386.965-.773.097-.193 0-.193-.193-.289l-1.255-.386c-.386 0-.772-.29-1.158-.386 0 0-.289-.097-.386 0-.096.482 1.062.482.772 1.448L246.051 208c-.289.965-.965.579-1.061.965v.097l1.158.386 1.544.482h.29c.193-.386-1.158-.289-.676-1.64zm3.571.965c.193-.579.483-.483.869-.386.965.289 1.351 1.254.965 2.413-.193.579-.386 1.158-1.93.772-.29-.097-.676-.193-.579-.483l.675-2.22zm-2.702 4.826c-.483 1.351-1.159.772-1.255 1.158 0 .193.193.193.289.289l1.545.387.772.289h.386c.097-.483-.965-.289-.676-1.448l.579-1.93c.097-.386.097-.483.58-.29.579.097.675.29.772.773l.289 1.93c.193.869.29 1.641.965 1.93.483 0 1.159 0 1.352-.386l-.193-.193h-.29s-.289 0-.289-.289l-.676-3.475c0-.193.386-.193.772-.29.483-.26.84-.714.965-1.254.097-.483.386-2.124-1.737-2.799l-2.027-.483-1.158-.386h-.29c-.096.483 1.062.386.676 1.641zm8.107 2.413c-.386 1.351-1.351.482-1.448.965q0 .29.29.289l1.448.29 1.351.386c.29 0 .483.193.579-.097 0-.289-1.255-.289-.965-1.737l1.255-5.019c0-.579.193-.579.579-.482l.965.193c1.062.289.483 1.447.965 1.544.193 0 .193-.386.193-.579l.097-.965v-.386l-3.185-.676-3.089-.772c-.097 0-.193 0-.193.193l-.483 1.448c-.096.096-.193.386 0 .386.483.096.483-1.448 1.641-1.159l.869.194c.386.096.482.193.386.772zm12.258-3.185c.386-.58.772-.483.869-.676 0-.193-.193-.193-.386-.29h-.869l-.869-.289c-.096 0-.386-.097-.386.096-.096.386.965.193.772 1.255 0 .193-.096.579-.579 1.255l-1.93 3.185-.29.193v-.193l-.675-3.861a5.3 5.3 0 0 1-.097-1.737c0-.483.676-.193.676-.483q0-.192-.386-.289l-1.062-.097c-.386 0-.676-.193-.965-.289-.193 0-.483-.097-.579.096l.096.193c.483.193.579.386.676.869l1.255 7.046c.096.482.193.675.289.675.097 0 .193 0 .386-.289zm.579 6.563q0 .29.193.482c.579.193.965.579 1.641.676 1.351.193 2.509-.676 2.702-2.123.29-1.448-.289-2.027-1.351-2.799-1.255-.869-1.737-1.062-1.641-1.931.097-.675.676-.965 1.352-.965 1.737.29 1.544 2.509 1.737 2.509.289 0 .289-.096.289-.386l.194-1.544v-.386h-.58c-.386 0-.675-.483-1.544-.676-1.158-.193-2.22.676-2.413 1.931-.193 1.158.386 1.737 1.158 2.316 1.545 1.062 2.124 1.351 1.931 2.317-.097.965-.869 1.351-1.641 1.254-1.158-.193-1.544-1.351-1.737-2.509 0-.193 0-.29-.193-.29s-.193.29-.193.483v1.641zm15.25-4.344c.289-.675.772-.579.772-.868 0-.193-.096-.097-.386-.193h-.869l-.868-.097c-.097 0-.386 0-.386.193 0 .386.965 0 .965 1.062 0 .193-.097.579-.483 1.351l-1.737 3.378-.097.29-.096-.29-1.062-3.86a5.3 5.3 0 0 1-.289-1.545c0-.482.675-.289.675-.579q0-.192-.386-.193h-1.158l-.965-.193c-.193 0-.483-.096-.579.097l.193.193c.386.193.579.289.675.772l2.027 6.853.386.675c.097 0 .193 0 .29-.386z"/><path fill="#703D29" d="M287.651 215.914c0 1.159-.965.966-.965 1.448 0 .193.096.097.289.097h2.123l.387-.097c0-.579-1.352.193-1.352-1.93v-4.054l.097-.096.193.096 4.922 6.081.29.096.193-.289v-6.467c0-1.255.965-.965.965-1.255 0 0 0-.193-.289-.193h-2.22c-.193 0-.193.097-.193.193 0 .386 1.254.193 1.254 1.255v3.861l-.096.386-.386-.29-4.054-5.115c-.193-.29-.097-.29-.386-.29h-1.737l-.194.097c0 .579 1.159-.193 1.159 2.027zm10.038-5.308c0-1.062.772-.676.772-1.062 0-.096 0-.193-.386-.193h-2.51s-.289 0-.289.193c0 .386 1.061 0 1.061 1.158v5.502c0 1.062-.772.772-.772 1.158 0 0 0 .193.193.193h2.703c.193 0 .289 0 .289-.193 0-.386-1.158.193-1.158-1.255zm4.343 5.308c0 1.448-1.158.966-1.158 1.352 0 .193.193.193.386.193h2.895c.29 0 .483 0 .483-.29 0-.289-1.351 0-1.351-1.351v-5.212q0-.579.482-.579h.965c1.159-.097.773 1.158 1.255 1.158.193 0 .097-.386.097-.579l-.097-.965c0-.193 0-.386-.193-.386l-3.185.096h-3.185l-.193.29-.097 1.544.097.386c.482 0 .193-1.544 1.351-1.544h.869c.386 0 .482 0 .579.579zm6.081-2.123h-.387l.097-.483.676-2.123v-.193l.193.097.965 2.026.193.386c0 .194-.193.194-.386.194zm1.737.483q.29 0 .772.965l.193.772c0 .676-.676.579-.676.965 0 .097.193.097.386 0h1.159l1.254-.096c.29 0 .387 0 .387-.193 0-.386-.58 0-.966-.676l-3.281-6.756-.29-.386c-.193 0-.193.193-.289.386l-2.124 7.142c-.193.676-.772.676-.675.965h2.219c.194-.096.483 0 .483-.289 0-.29-1.158 0-1.255-.869l.193-.965c.193-.772.386-.772.579-.772l2.027-.193zm8.011-4.826c-.097-.772 0-.772 1.158-.965 1.93-.193 1.351 1.254 1.93 1.158.193 0 0-.386 0-.579l-.096-1.062c0-.097-.097-.193-.29-.193-.965 0-1.64.193-2.316.289l-2.703.387c-.193 0-.289 0-.289.193.096.482 1.255 0 1.351.965l.676 5.308c.193 1.448-.676.965-.579 1.448 0 0 0 .097.193 0l1.351-.096 1.158-.097c.29 0 .483 0 .483-.29 0-.289-1.158.097-1.352-1.158l-.193-1.641c-.096-.675-.096-.868.29-.965h.772c1.062-.193.965 1.062 1.255.965.289 0 .193-.386.096-.482l-.289-2.027c0-.29-.193-.29-.193-.29-.29 0-.097 1.062-.965 1.159l-.676.096c-.483.097-.483 0-.579-.482zm3.861 2.702c.386 2.22 2.026 3.571 4.053 3.185 3.282-.675 3.378-3.474 3.089-5.115-.483-2.413-2.22-3.571-4.247-3.185-2.413.482-3.378 2.606-2.895 5.115m1.061-.965c-.289-1.544 0-3.282 1.641-3.571 1.351-.29 2.896.772 3.282 3.281.289 1.931 0 3.475-1.738 3.861-1.834.386-2.895-1.93-3.185-3.474zm8.011-3.957c-.096-.676.193-.772.579-.869.966-.193 1.738.483 2.027 1.544.193.676.29 1.352-1.254 1.738-.29 0-.676.096-.773-.193l-.482-2.22zm0 5.501c.386 1.352-.482 1.255-.482 1.545.096.289.289.193.386.096.579 0 .965-.289 1.544-.386l.965-.193c.193 0 .193-.096.193-.193 0-.386-.965.29-1.254-.965l-.483-1.931c0-.386-.193-.386.386-.482.483-.193.676-.097 1.062.289l1.254 1.545c.483.579.966 1.254 1.738 1.061.482-.096.965-.482.965-.868l-.193-.097-.29.097s-.289.096-.386 0l-2.316-2.799.482-.579c.193-.386.386-.869.193-1.545-.096-.482-.675-2.027-2.895-1.544l-2.027.579-1.158.193c-.193 0-.29.097-.193.193 0 .483 1.061-.193 1.351.965zm8.397-1.93c.29 1.351-.965 1.158-.868 1.544 0 .29.289.193.482.193l1.351-.482 1.448-.29c.29 0 .483 0 .386-.386 0-.289-1.254.386-1.64-.965l-1.255-5.116c-.193-.482 0-.579.289-.675l.966-.193c1.061-.386 1.061.965 1.447.868.29 0 0-.482 0-.675l-.386-.965s0-.29-.193-.193l-3.088.868-3.089.676v.289l.097 1.545c0 .193 0 .386.289.386.483-.097-.289-1.544.965-1.834l.772-.193c.387-.097.58 0 .676.483zm5.309-7.046c-.29-.965.579-.868.386-1.255h-.29l-1.351.387-1.158.289s-.29 0-.29.193c.097.386 1.159-.193 1.448.772l1.544 5.405c.193.965-.579.965-.482 1.255 0 .097 0 .193.193.096l1.062-.289 1.544-.386c.289 0 .289-.097.289-.29-.096-.289-1.061.483-1.447-.868zm2.22 2.606c.675 2.22 2.509 3.282 4.536 2.606 3.089-1.062 2.896-3.957 2.316-5.501-.772-2.317-2.702-3.185-4.632-2.606-2.317.868-3.089 3.088-2.22 5.501m.965-.965c-.579-1.641-.579-3.378 1.062-3.861 1.254-.482 2.895.386 3.764 2.799.579 1.738.482 3.475-1.158 4.054-1.738.579-3.089-1.448-3.668-3.089zm7.335-5.308c-.193-.676 0-.773.386-.966.966-.289 1.931.29 2.317 1.352.193.579.386 1.254-1.062 1.833-.289 0-.676.193-.772 0zm.772 5.405c.58 1.351-.386 1.351-.193 1.64 0 .29.193.097.386.097l1.448-.676.869-.193c.193-.096.193-.193.193-.289-.193-.386-.965.386-1.351-.773l-.772-1.833c-.194-.386-.194-.483.289-.676s.676-.097 1.062.29l1.544 1.351c.483.482 1.062 1.061 1.93.772.29-.193.869-.676.676-.965l-.193-.097-.193.193h-.483l-2.702-2.413.386-.675a1.96 1.96 0 0 0 0-1.545c-.097-.579-.965-1.93-2.992-1.158l-1.93.869-1.159.386-.193.193c.193.386 1.062-.386 1.545.772l1.93 4.826z"/><path fill="#D52B1E" d="M245.694 87.594h50.711v50.652h-50.711z"/><path fill="#fff" d="M269.476 127.436s0 1.854-.492 3.272q-.618 1.67-1.177 2.471a8.1 8.1 0 0 1-2.346 2.471c-1.235.743-2.471 1.11-3.706.985-3.34-.251-4.942-3.958-5.685-6.921-.801-3.146-3.089-4.942-4.633-3.706-.868.618-.868 1.728-.183 2.838a5.6 5.6 0 0 0 2.529 1.727l-1.796 2.288s-3.889-.493-4.633-4.575c-.308-1.545.435-4.382 3.031-5.251 3.272-1.11 5.309 1.236 6.361 3.214 1.361 2.722 1.978 7.664 5.81 6.921 2.104-.435 3.089-3.456 3.089-4.884l1.486-1.602 2.287.743h.058zM272.623 127.436s0 1.854.492 3.272q.617 1.67 1.178 2.471a8.1 8.1 0 0 0 2.345 2.471c1.235.743 2.471 1.11 3.706.985 3.34-.251 4.942-3.958 5.685-6.921.801-3.146 3.089-4.942 4.633-3.706.869.618.869 1.728.183 2.838a5.6 5.6 0 0 1-2.528 1.727l1.795 2.288s3.89-.493 4.633-4.575c.309-1.545-.435-4.382-3.031-5.251-3.272-1.11-5.308 1.236-6.36 3.214-1.361 2.722-1.979 7.664-5.811 6.921-2.104-.435-3.088-3.456-3.088-4.884l-1.487-1.602-2.287.743h-.058z"/><path fill="#FEDF00" d="m275.586 105.942 6.669-7.23s.985-.8.985-2.103l-1.361.25-.309-.743-.058-.675 1.853-.435v-.8l.184-.802-1.979.126.183-.869.309-.618 1.178-.25h1.177c1.11-2.105 5.685-3.958 8.899-.618 2.346 2.47 1.853 6.92-1.235 8.155a3.9 3.9 0 0 1-4.199-.675l1.236-2.471c1.67 1.052 3.088-.183 2.963-1.486-.126-1.67-1.236-2.655-2.654-2.78-1.419-.126-2.471.617-3.089 1.853-.367.801-.183 1.36-.309 2.22-.125.926 0 1.419-.309 2.345a5.34 5.34 0 0 1-1.486 2.22l-6.795 7.413-26.562 28.666-1.978-1.854 26.687-28.849z"/><path fill="#fff" d="M256.07 108.413s1.67 8.281 7.355 20.693c2.905-1.052 4.575-1.728 7.663-1.728s4.691.618 7.596 1.728a105.6 105.6 0 0 0 7.355-20.693l-14.951-19.15-15.008 19.15z"/><path fill="#FEDF00" d="m272.497 95.692 10.376 13.406s-1.361 6.486-5.559 16.244c-1.67-.367-3.089-.676-4.817-.801zm-2.905 0-10.376 13.406s1.361 6.486 5.56 16.244c1.67-.367 3.089-.676 4.816-.801zM301.839 87.546h50.768v50.671h-50.768z"/><path fill="#D52B1E" d="M308.981 87.546h7.529v50.671h-7.529zm14.478 0h7.528v50.671h-7.528zm14.478 0h7.624v50.671h-7.624z"/><path fill="#FEDF00" d="M245.858 182.133c.097.965.483 2.51 1.352 4.15.965 1.448.579 1.352 2.606 3.668a14.7 14.7 0 0 0 3.86 2.799 31.6 31.6 0 0 0 14.478 2.51c2.606-.097 4.633-.387 6.37-.676a68.5 68.5 0 0 1 10.617-.579c1.448 0 2.896.289 4.537.579 3.378.676 6.756 1.93 6.756 1.93v-52.795h-50.769v36.001l.193 2.317z"/><path fill="#D52B1E" stroke="#D52B1E" stroke-width=".3" d="m251.746 191.399 2.413 1.448 3.282 1.158v-50.383h-5.695zm28.183 2.316v-50.093h-5.598v50.962l5.598-.676zm11.293-50.093h-5.598v50.286c1.834.193 3.667.579 5.598.965zm-22.585 0v51.541s-3.668.193-5.598 0v-51.541z"/><path fill="#FEDF00" d="M352.434 182.172a12.6 12.6 0 0 1-1.361 4.073c-.927 1.419-.618 1.419-2.655 3.706a16.26 16.26 0 0 1-8.03 4.324 32 32 0 0 1-10.25.985c-2.654-.126-4.633-.435-6.361-.618-2.345-.367-4.14-.56-6.794-.618a37 37 0 0 0-3.832 0 51 51 0 0 0-11.302 2.596v-52.998h50.778v36.137l-.184 2.413z"/><path fill="#D52B1E" d="m314.811 147.946-.367.126-.492.492c-.251.251-.434.309-.743.492l-.367.309c-.183.184 0 .367-.183.618-.058.251-.184.367-.367.618-.251.251-.435.309-.618.617l-.743.618-.184.058h-.366c-.251.125-.309.367-.493.492l.184.367.492.869c.126.183.126.434.309.492.309.125.56.125.801.058.492.125.801.125 1.235.309l.927.492c.309.183.492.251.801.309h1.11v.183l1.236.618a1 1 0 0 0-.058.251c-.058.183-.126.434-.058.492.366 1.178.743 1.853.926 1.979.367.125.493.559.676.926l-.183.184c-.367.366-.744.617-1.053 1.11-.434.743-.743.743-.183 1.727l.927 1.487c.251.434.366.743.492 1.235.125.434.183.743.183 1.235l.618.184.434-.367.367-.743v-.618c-.125-.058-.183-.251-.125-.434 0-.251.309-.184.434-.367.183-.309-.251-.492-.434-.676-.367-.434-.869-.559-.985-1.177 0-.126 0-.251.251-.434l1.236-1.11a.95.95 0 0 0 .617.058l.801.251c.367.125.56 0 .744 0h.25l.058.366c.058.618-.058 1.853.126 2.162l.183.367.126.367v1.235l-.126 1.052c0 .251-.125.435-.309.618-.125.251-.366.251-.617.434v.618l.675.309.801.183.435-.183.058-.367.308-.309c.251-.125.493 0 .56-.058.126-.183 0-.251 0-.492 0-.367-.125-.618-.183-.984a7.4 7.4 0 0 1-.058-1.728c0-.367 0-.618.126-.927.057-.617.25-.868.366-1.36.184-.618.184-.985.251-1.545 2.085.319 4.208.184 6.235-.367.493.435 1.052.744 1.67.985v.618c0 .183 0 .251.126.434l.183.183c.183 0 .309 0 .434-.125.126-.126.126-.251.126-.434v-.435h1.11v.676c.058.183.183.251.309.251.115.058.25.058.366 0 .184-.126.126-.367.184-.618v-.434l.617-.251c.02.183.02.367 0 .56l-.183.559c-.125.367-.309.493-.492.869-.251.367-.309.618-.618.927l-.367.434-.366.56-.56.618c-.435.366-.744.125-1.236.559l-.183.618.869.367.801.125.251-.125c0-.184 0-.367.183-.492.125-.184.251-.184.434-.251.251 0 .493 0 .618-.126.251-.183.251-.618.434-.926a7.8 7.8 0 0 1 1.853-2.413l1.053-.869c.125-.251.308-.309.308-.618l-.125-.367-.126-.617c.927.434.618.434.744.868.183.367 0 .618.058 1.052.057.493.308.676.308 1.178.058.56-.058.869-.183 1.419-.058.492-.058.801-.309 1.235a2.4 2.4 0 0 1-.675.927l-.367.309-.058.617.675.251.985.251.251-.183c.125-.434 0-1.052.251-1.052.251-.058.434 0 .492-.184v-.434l.434-2.78.251-1.177.251-1.052c.435-1.236-.125-1.419-.617-2.22-.309-.434-.435-.618-.435-.927v-1.795a26 26 0 0 1 0-1.728l.251-.125c.743-.434 1.052-.56 1.487-1.544a2.04 2.04 0 0 0 .183-.927v-.618l-.251-.617a2 2 0 0 0-.367-.493c-.434-.617-1.052-.675-1.669-.926-.927-.309-1.545-.251-2.471-.309-1.11-.125-1.67-.125-2.722 0-1.236 0-1.911.251-3.147.434l-3.03.251c-1.419 0-2.722-.309-3.581-.251-1.486.126-1.544.493-3.832.676-.782.068-1.563.106-2.345.125l-1.361-.434c.56-.183.675-.309.926-.618.184-.251.126-.434.367-.675l.434-.618a1.35 1.35 0 0 0-.559-.251h-.618a1.8 1.8 0 0 0-.743.184l-.492.366-1.361-.743a5.4 5.4 0 0 0-1.854-.56v.126z"/><path stroke="#FEDF00" stroke-linecap="round" stroke-miterlimit="2.56" stroke-width=".64" d="m342.116 155.668-.492.183c-.56.251-.985.251-1.603.309-1.602.126-2.654-.675-4.324-.56-.868.058-1.235.744-2.162.985a5.5 5.5 0 0 1-1.052.125l.309-.617s-.743.183-1.235.183c-.328 0-.666-.048-.985-.125l.618-.618-.801-.126a2.7 2.7 0 0 1-.618-.434c.357-.048.705-.106 1.052-.183.927-.251 1.236-.744 2.413-.869.676 0 1.853 0 4.691.492 1.853.309 2.722.126 3.397-.183.493-.184.618-.618.676-1.11s-.251-.869-.492-1.11c-.058 0-.309-.183-.676-.251"/><path fill="#FCD900" stroke="#FEDF00" stroke-miterlimit="2.56" stroke-width=".32" d="M314.936 150.166c-.308 0-.559 0-.801.184-.309.183-.366.434-.617.675.308.058.492.251.743.184.251 0 .309-.126.492-.309.183-.251.251-.434.251-.743h-.058z"/><path stroke="#FEDF00" stroke-linecap="round" stroke-miterlimit="2.56" stroke-width=".64" d="M321.857 158.322c.164.492.366.965.617 1.419.126.492 0 .743.126 1.235v.985m4.198-4.324-.183.801-.618 2.162v.434m-6.795-2.471c.56.126.367 2.037 1.178 2.471"/><path stroke="#FEDF00" stroke-miterlimit="2.56" stroke-width=".64" d="m336.74 162.028.251-.183a5.3 5.3 0 0 0 1.67-1.11"/><path stroke="#FEDF00" stroke-linecap="round" stroke-miterlimit="2.56" stroke-width=".64" d="M331.991 160.918c2.162-.559 3.648-1.602 4.691-1.795m-2.471-.926h.492c.927-.184 1.052.366 1.67.743 1.178.618 1.293 1.419 2.654 2.104l.251.058.492.251"/><path fill="#FCD900" stroke="#FEDF00" stroke-miterlimit="2.56" stroke-width=".32" d="M310.554 152.579h.435l.492-.125c.183 0 .309 0 .434.125.126 0 .126.058.184.184 0 .125.125.183.058.309 0 .125-.184.251-.367.251-.126 0-.251 0-.309-.184a.28.28 0 0 1 0-.251.63.63 0 0 1-.56 0 .62.62 0 0 1-.367-.309Z"/><path fill="#0065BD" d="m315.12 158.573-1.236-.56c.251-.125.435-.125.618-.309.183-.251.183-.492.309-.801.125-.309.125-.617.434-.868.184-.126.493-.126.676-.058.251 0 .492.251.56.434 0 .367-.126.618-.184.927 0 .366-.183.559-.125.868 0 .251.125.367.251.618l-1.236-.251h-.067m-.618.618a.372.372 0 0 1 .734-.116.38.38 0 0 1-.3.425.366.366 0 0 1-.424-.3v-.067.058zm-1.052-10.25h-.125c-.251-.251-.251-.493-.367-.744a2.4 2.4 0 0 1-.184-.743v-1.235c0-.184 0-.367-.125-.56 0-.125-.251-.183-.183-.251 0-.058.183 0 .25 0 .251 0 .367.058.618.251.184.183.309.367.367.618l.251.926.183.493.309.366-.434.493-.56.366zm2.22 6.544 1.361.617a5.7 5.7 0 0 0 2.162-2.345c.56-1.11.618-1.67.868-2.722l-1.109-.309h-.251c-.309 1.11-.435 1.67-.985 2.596-.492.802-1.052 1.419-1.602 1.854l-.434.309zm3.088 11.244.493-.801.868-.676h.251c0 .589-.115 1.178-.309 1.728l-.25.618-.309.308c-.309-.492-.801-.801-.801-1.235zm20.385 1.11.869.367.926.559v.309l-.926.126c-.27.019-.541.019-.801 0h-.618l-.367-.251c.309-.435.492-.985.869-1.11h.058zm-6.052-1.236.869.309.927.618c0 .058.058.183 0 .251a5.4 5.4 0 0 1-1.67.183l-.618-.058-.434-.183c.367-.434.56-1.052.926-1.11m-10.752 1.293.927.309.926.618v.309a5.5 5.5 0 0 1-1.727.125h-.618l-.367-.251c.309-.434.493-.984.869-1.11M316.79 149.5c-.367-.183-.618-.617-.367-.984.058-.126.251-.126.367-.251.125-.183.057-.309 0-.492l-.058-.618-.126-.618c0-.366 0-.617.251-.984.126-.184.434-.367.492-.367.126.058 0 .309 0 .492 0 .309.058.435.184.743l.434.802c.126.366.251.492.251.868 0 .309 0 .435-.125.743a1.2 1.2 0 0 1-.367.493 1.35 1.35 0 0 1-.492.251.6.6 0 0 1-.367 0l-.058-.058z"/><path fill="#D52B1E" d="m314.811 170.551-.367.126-.492.492c-.251.251-.434.309-.743.492l-.367.309c-.183.183 0 .367-.183.618-.058.25-.184.366-.367.617-.251.251-.435.309-.618.618l-.743.618-.184.058h-.366c-.251.125-.309.366-.493.492l.184.367.492.868c.126.184.126.435.309.493.309.125.56.125.801.057.492.126.801.126 1.235.309l.927.493c.309.183.492.25.801.308h1.11v.184l1.236.617a1 1 0 0 0-.058.251c-.058.184-.126.435-.058.493.366 1.177.743 1.853.926 1.978.367.126.493.56.676.927l-.183.183c-.367.367-.744.618-1.053 1.11-.434.743-.743.743-.183 1.728l.927 1.486c.251.435.366.743.492 1.236.125.434.183.743.183 1.235l.618.184.434-.367.367-.743v-.618c-.125-.058-.183-.251-.125-.434 0-.251.309-.184.434-.367.183-.309-.251-.493-.434-.676-.367-.434-.869-.56-.985-1.177 0-.126 0-.251.251-.435l1.236-1.11a.94.94 0 0 0 .617.058l.801.251c.367.126.56 0 .744 0h.25l.058.367c.058.618-.058 1.853.126 2.162l.183.367.126.366v1.236l-.126 1.052c0 .251-.125.434-.309.618-.125.251-.366.251-.617.434v.618l.675.309.801.183.435-.183.058-.367.308-.309c.251-.126.493 0 .56-.058.126-.183 0-.251 0-.492 0-.367-.125-.618-.183-.985a7.4 7.4 0 0 1-.058-1.727c0-.367 0-.618.126-.927.057-.618.25-.869.366-1.361.184-.618.184-.984.251-1.544 2.085.318 4.208.183 6.235-.367.493.434 1.052.743 1.67.985v.617c0 .184 0 .251.126.435l.183.183c.183 0 .309 0 .434-.125.126-.126.126-.251.126-.435v-.434h1.11v.676c.058.183.183.25.309.25.115.058.25.058.366 0 .184-.125.126-.366.184-.617v-.435l.617-.251c.02.184.02.367 0 .56l-.183.56c-.125.367-.309.492-.492.869-.251.366-.309.617-.618.926l-.367.435-.366.559-.56.618c-.435.367-.744.126-1.236.56l-.183.618.869.366.801.126.251-.126c0-.183 0-.366.183-.492.125-.183.251-.183.434-.251.251 0 .493 0 .618-.125.251-.184.251-.618.434-.927a7.8 7.8 0 0 1 1.853-2.413l1.053-.868c.125-.251.308-.309.308-.618l-.125-.367-.126-.618c.927.435.618.435.744.869.183.367 0 .618.058 1.052.057.492.308.676.308 1.178.058.559-.058.868-.183 1.418-.058.493-.058.802-.309 1.236a2.4 2.4 0 0 1-.675.926l-.367.309-.058.618.675.251.985.251.251-.183c.125-.435 0-1.053.251-1.053.251-.057.434 0 .492-.183v-.434l.434-2.78.251-1.177.251-1.053c.435-1.235-.125-1.418-.617-2.219-.309-.435-.435-.618-.435-.927v-1.795a26 26 0 0 1 0-1.728l.251-.125c.743-.435 1.052-.56 1.487-1.545.135-.289.193-.608.183-.926v-.618l-.251-.618a2 2 0 0 0-.367-.492c-.434-.618-1.052-.676-1.669-.926-.927-.309-1.545-.251-2.471-.309-1.11-.126-1.67-.126-2.722 0-1.236 0-1.911.251-3.147.434l-3.03.251c-1.419 0-2.722-.309-3.581-.251-1.486.125-1.544.492-3.832.676a38 38 0 0 1-2.345.125l-1.361-.434c.56-.184.675-.309.926-.618.184-.251.126-.434.367-.676l.434-.617a1.3 1.3 0 0 0-.559-.251h-.618c-.261 0-.512.077-.743.183l-.492.367-1.361-.743a5.4 5.4 0 0 0-1.854-.56v.125z"/><path stroke="#FEDF00" stroke-linecap="round" stroke-miterlimit="2.56" stroke-width=".64" d="m342.116 178.272-.492.184c-.56.251-.985.251-1.603.309-1.602.125-2.654-.676-4.324-.56-.868.058-1.235.743-2.162.984a5.5 5.5 0 0 1-1.052.126l.309-.618s-.743.183-1.235.183c-.328 0-.666-.048-.985-.125l.618-.618-.801-.125a2.8 2.8 0 0 1-.618-.435c.357-.048.705-.106 1.052-.183.927-.251 1.236-.743 2.413-.869.676 0 1.853 0 4.691.493 1.853.309 2.722.125 3.397-.184.493-.183.618-.617.676-1.11.058-.492-.251-.868-.492-1.11-.058 0-.309-.183-.676-.251"/><path fill="#FCD900" stroke="#FEDF00" stroke-miterlimit="2.56" stroke-width=".32" d="M314.936 172.78c-.308 0-.559 0-.801.184-.309.183-.366.434-.617.675.308.058.492.251.743.184.251 0 .309-.126.492-.309.183-.251.251-.434.251-.743h-.058z"/><path stroke="#FEDF00" stroke-linecap="round" stroke-miterlimit="2.56" stroke-width=".64" d="M321.857 180.936c.164.493.366.965.617 1.419.126.492 0 .743.126 1.236v.984m4.198-4.324-.183.801-.618 2.162v.434m-6.795-2.47c.56.125.367 2.036 1.178 2.47"/><path stroke="#FEDF00" stroke-miterlimit="2.56" stroke-width=".64" d="m336.74 184.643.251-.184a5.3 5.3 0 0 0 1.67-1.11"/><path stroke="#FEDF00" stroke-linecap="round" stroke-miterlimit="2.56" stroke-width=".64" d="M331.991 183.523c2.162-.56 3.648-1.602 4.691-1.795m-2.471-.927h.492c.927-.183 1.052.367 1.67.743 1.178.618 1.293 1.419 2.654 2.104l.251.058.492.251"/><path fill="#FCD900" stroke="#FEDF00" stroke-miterlimit="2.56" stroke-width=".32" d="M310.554 175.184h.435l.492-.126c.183 0 .309 0 .434.126.126 0 .126.058.184.183 0 .126.125.184.058.309 0 .125-.184.251-.367.251-.126 0-.251 0-.309-.183a.28.28 0 0 1 0-.251.64.64 0 0 1-.56 0 .62.62 0 0 1-.367-.309Z"/><path fill="#0065BD" d="m315.12 181.178-1.236-.56c.251-.126.435-.126.618-.309.183-.251.183-.492.309-.801.125-.309.125-.618.434-.869.184-.125.493-.125.676-.058.251 0 .492.251.56.435 0 .366-.126.617-.184.926 0 .367-.183.56-.125.869 0 .251.125.367.251.618l-1.236-.251h-.067m-.618.617a.371.371 0 1 1 .434.309.364.364 0 0 1-.424-.299v-.068.058zm-1.052-10.25h-.125c-.251-.251-.251-.492-.367-.743a2.4 2.4 0 0 1-.184-.743v-1.236c0-.183 0-.366-.125-.559 0-.126-.251-.184-.183-.251 0-.058.183 0 .25 0 .251 0 .367.058.618.251.184.183.309.366.367.617l.251.927.183.492.309.367-.434.492-.56.367zm2.22 6.544 1.361.618a5.7 5.7 0 0 0 2.162-2.346c.56-1.11.618-1.669.868-2.721l-1.109-.309h-.251c-.309 1.11-.435 1.67-.985 2.596-.492.801-1.052 1.419-1.602 1.853l-.434.309zm3.088 11.244.493-.801.868-.675h.251c0 .588-.115 1.177-.309 1.727l-.25.618-.309.309c-.309-.492-.801-.801-.801-1.235zm20.385 1.11.869.367.926.56v.309l-.926.125c-.27.02-.541.02-.801 0h-.618l-.367-.251c.309-.434.492-.984.869-1.11h.058zm-6.052-1.235.869.309.927.618c0 .057.058.183 0 .25a5.4 5.4 0 0 1-1.67.184l-.618-.058-.434-.183c.367-.435.56-1.052.926-1.11m-10.752 1.293.927.309.926.618v.308a5.5 5.5 0 0 1-1.727.126h-.618l-.367-.251c.309-.434.493-.985.869-1.11m-5.559-18.406c-.367-.183-.618-.618-.367-.984.058-.126.251-.126.367-.251.125-.184.057-.309 0-.493l-.058-.617-.126-.618c0-.367 0-.618.251-.985.126-.183.434-.366.492-.366.126.058 0 .308 0 .492 0 .309.058.434.184.743l.434.801c.126.367.251.492.251.869 0 .309 0 .434-.125.743a1.17 1.17 0 0 1-.367.492 1.3 1.3 0 0 1-.492.251.6.6 0 0 1-.367 0l-.058-.058z"/><path stroke="#703D29" stroke-width=".5" d="M245.665 87.546h50.769v50.671h-50.769zm56.174 0h50.768v50.671h-50.768zm-55.981 94.587c.097.965.483 2.51 1.352 4.15.965 1.448.579 1.352 2.606 3.668a14.7 14.7 0 0 0 3.86 2.799 31.6 31.6 0 0 0 14.478 2.51c2.606-.097 4.633-.386 6.37-.676a68.5 68.5 0 0 1 10.617-.579c1.448 0 2.896.289 4.537.579 3.378.676 6.756 1.93 6.756 1.93v-52.795h-50.769v36.001l.193 2.317zm106.556 0a12.6 12.6 0 0 1-1.351 4.15c-.965 1.448-.579 1.352-2.606 3.668a14.9 14.9 0 0 1-3.861 2.799c-1.254.676-2.22.965-4.246 1.544a31.5 31.5 0 0 1-10.231.966c-2.606-.097-4.633-.483-6.274-.676a70 70 0 0 0-6.949-.579 41 41 0 0 0-3.765 0c-1.447 0-2.895.289-4.536.579-3.378.676-6.756 1.93-6.756 1.93v-52.892h50.865v36.195l-.193 2.316z"/></g><defs><clipPath id="a"><path fill="#fff" d="M0 0h600v300H0z"/></clipPath></defs></svg>