<svg xmlns="http://www.w3.org/2000/svg" width="600" height="300" fill="none"><g clip-path="url(#a)"><path fill="red" fill-rule="evenodd" d="M0 0h600v152.25H0z" clip-rule="evenodd"/><path fill="#000001" fill-rule="evenodd" d="M0 147.75h600V300H0z" clip-rule="evenodd"/><path fill="#FFEC00" fill-rule="evenodd" d="M272.556 63.215c135.204 35.438 48.287 209.19-58.354 136.841L207 211.187c62.773 44.686 124.892 8.675 142.406-37.975 18.17-48.124-6.22-115.808-75.786-122.764z" clip-rule="evenodd"/><path fill="#FFEC00" fill-rule="evenodd" d="m224.514 212.66 17.76 8.266-8.348 17.842-17.76-8.348zm121.946-81.433h19.642v19.642H346.46zm-9.576-31.837 18.251-7.039 7.121 18.251-18.251 7.12zm-21.279-23.817L329.6 61.742l13.832 13.913-13.913 13.832zM294.163 43l18.332 6.875-6.956 18.333-18.333-6.875zm49.842 119.9 18.251 7.284-7.366 18.169-18.169-7.284zm-57.208 57.29 18.005-7.612 7.775 18.006-18.005 7.693zm-32.328 2.291h19.642v19.642h-19.642zm33.801-94.937-16.614-12.277-16.614 11.949 6.547-18.824-16.614-12.276h20.052l6.956-18.496 6.384 18.578 20.215-.246-16.041 12.522z" clip-rule="evenodd"/><path fill="#FE0" fill-rule="evenodd" d="M360.373 225.427c-.982.328-5.074 10.149-7.938 14.896l3.028.818c11.13 3.929 16.696 7.53 21.443 14.323a6.47 6.47 0 0 0 8.348.573s2.291-.819 5.237-4.092c2.456-3.683 1.801-6.548-1.145-9.085-9.003-6.547-18.742-11.458-28.973-17.433" clip-rule="evenodd"/><path fill="#000001" fill-rule="evenodd" d="M384.353 247.034a3.563 3.563 0 0 1-3.56 3.56 3.563 3.563 0 0 1-3.56-3.56 3.51 3.51 0 0 1 3.519-3.519 3.523 3.523 0 0 1 3.519 3.519zm-17.514-11.131a3.563 3.563 0 0 1-3.56 3.561 3.563 3.563 0 0 1-3.56-3.561 3.563 3.563 0 0 1 3.56-3.56 3.563 3.563 0 0 1 3.56 3.56m8.921 5.729a3.563 3.563 0 0 1-3.56 3.561 3.563 3.563 0 0 1-3.561-3.561 3.563 3.563 0 0 1 3.561-3.56 3.563 3.563 0 0 1 3.56 3.56" clip-rule="evenodd"/><path fill="#FE0" fill-rule="evenodd" d="M350.961 239.586c-34.865-19.887-71.448-41.33-106.395-61.218-15.305-9.576-16.041-27.336-5.729-40.84.982-1.882 2.291-1.473 2.782-.409 1.228 6.548 4.911 13.341 9.331 17.596a4335 4335 0 0 1 107.786 70.058c-2.782 4.747-4.91 10.066-7.775 14.731z" clip-rule="evenodd"/><path fill="#FFEC00" fill-rule="evenodd" d="m328.618 191.954 14.568 13.095-13.094 14.568-14.568-13.095z" clip-rule="evenodd"/><path stroke="#000" stroke-width="3" d="M356.69 227.392 254.387 165.6m89.7 47.551-34.456-22.343m14.895 34.947-35.11-20.297"/></g><defs><clipPath id="a"><path fill="#fff" d="M0 0h600v300H0z"/></clipPath></defs></svg>