<svg xmlns="http://www.w3.org/2000/svg" width="600" height="300" fill="none"><g clip-path="url(#a)"><path fill="#fff" d="M0 0h600v300H0z"/><path fill="#012169" d="M0 0h600v300H0z"/><path fill="#fff" d="M405.464 74.168c0 79.546 8.535 106.913 25.782 125.391a158 158 0 0 0 30.798 26.399 158.2 158.2 0 0 0 30.798-26.399c17.159-18.478 25.782-45.845 25.782-125.391-12.495 5.72-19.622 8.535-29.918 8.36a69.1 69.1 0 0 1-26.662-8.36 69.1 69.1 0 0 1-26.662 8.36c-10.295.175-17.423-2.64-29.918-8.36"/><path fill="#F90" d="M463.857 114.003c2.587 6.344 11.21 13.392 13.454 16.912-2.93 3.52-3.449 3.168-3.106 9.512 5.174-5.464 5.174-6.168 8.623-5.288 7.242 7.4 1.382 23.433-4.831 26.952-5.86 3.696-4.83 0-13.797 4.585 3.968 3.52 8.799-.528 12.759.528 2.068 2.64-1.038 7.224.686 11.8 3.45-.352 3.107-7.576 3.793-10.216 2.587-9.512 17.933-16.033 18.628-24.841 3.274-1.584 6.38-.528 10.348 1.76-1.9-8.104-8.447-8.104-10.172-10.568-4.135-6.521-7.761-13.745-16.56-15.857-6.556-1.232-6.037.528-10.348-2.464-2.763-2.111-10.868-5.992-9.486-2.815"/><path fill="#fff" d="M481.623 122.635c.763 0 1.381-.63 1.381-1.408s-.618-1.408-1.381-1.408-1.382.63-1.382 1.408.619 1.408 1.382 1.408"/><path fill="#F90" d="M442.368 141.21c4.277-5.297 6.354-16.375 8.351-20.045 4.417 1.004 4.356 1.637 9.688-1.636-7.145-2.121-7.752-1.795-8.606-5.315 3.019-9.996 19.641-12.187 25.589-8.228 5.94 3.564 2.253 4.365 10.41 10.322 1.196-5.227-4.567-7.699-5.509-11.773 1.32-3.107 6.732-2.438 9.891-6.134-1.918-2.947-8.008.73-10.621 1.347-9.442 2.103-22.263-8.712-30.208-5.218-2.904-2.218-3.441-5.518-3.309-10.164-6.124 5.5-3.062 11.413-4.391 14.123-3.704 6.785-8.271 13.428-5.983 22.36 1.997 6.494 3.282 5.2 2.701 10.497-.537 3.476-.106 12.61 1.997 9.882"/><path fill="#fff" d="M440.31 123.23c.763-.004 1.378-.638 1.374-1.415-.005-.778-.627-1.405-1.389-1.4a1.394 1.394 0 0 0-1.374 1.415 1.395 1.395 0 0 0 1.389 1.4"/><path fill="#F90" d="M477.205 144.862c-6.652-1.003-17.009 2.922-21.127 3.071-1.443-4.382-.88-4.655-6.38-7.62 1.919 7.339 2.508 7.708-.008 10.269-9.944 2.534-20.371-10.859-20.134-18.109-.079-7.04 2.491-4.224 3.265-14.44-4.998 1.654-4.092 7.972-7.022 10.902-3.282.449-5.526-4.628-10.26-5.473-1.478 3.203 4.761 6.617 6.617 8.588 6.653 7.163 4.206 23.961 11.246 29.1-.361 3.687-2.842 5.86-6.811 8.148 7.779 2.508 11.158-3.229 14.114-3.467 7.603-.264 15.531.282 21.84-6.327 4.409-5.103 2.667-5.561 7.401-7.787 3.194-1.329 10.621-6.432 7.25-6.855"/><path fill="#fff" d="M463.363 156.694c.004-.778-.61-1.412-1.373-1.417a1.395 1.395 0 0 0-1.39 1.4 1.394 1.394 0 0 0 1.372 1.416c.763.005 1.386-.622 1.391-1.399"/><path fill="#9CF" d="M419.543 182.664a68.7 68.7 0 0 0 11.703 16.895 157.9 157.9 0 0 0 30.798 26.398 158.4 158.4 0 0 0 30.798-26.398 68.4 68.4 0 0 0 11.615-16.895z"/><path fill="#FDC301" d="M403 71c0 82.89 8.975 111.4 26.926 130.671a164.6 164.6 0 0 0 32.118 27.366 164 164 0 0 0 32.03-27.366C512.025 182.4 521 153.89 521 71c-13.023 5.984-20.503 8.887-31.238 8.8-9.679-.265-19.887-5.016-27.718-8.8-7.919 3.784-18.127 8.535-27.718 8.8-10.823.087-18.215-2.816-31.326-8.8m3.52 4.4c12.319 5.72 19.358 8.447 29.478 8.271a67.1 67.1 0 0 0 26.046-8.271c7.391 3.52 16.983 8.095 26.046 8.271 10.12.176 17.071-2.64 29.39-8.271 0 78.314-8.447 105.241-25.342 123.367a154.7 154.7 0 0 1-30.094 25.871 154.4 154.4 0 0 1-30.182-25.871c-16.895-18.126-25.254-45.141-25.254-123.367z"/><g clip-path="url(#b)"><path fill="#fff" d="M0 0h300v150H0z"/><path fill="#012169" d="M0 0v150h300V0z"/><path fill="#000" d="m0 0 300 150Zm300 0L0 150Z"/><path stroke="#fff" stroke-width="30" d="m0 0 300 150m0-150L0 150"/><mask id="c" width="300" height="150" x="0" y="0" maskUnits="userSpaceOnUse" style="mask-type:luminance"><path fill="#fff" d="M150 75h150v75zm0 0v75H0zm0 0H0V0zm0 0V0h150z"/></mask><g mask="url(#c)"><path fill="#000" d="m0 0 300 150Zm300 0L0 150Z"/><path stroke="#C8102E" stroke-width="20" d="m0 0 300 150m0-150L0 150"/></g><path fill="#000" d="M150 0v150ZM0 75h300Z"/><path stroke="#fff" stroke-width="50" d="M150 0v150M0 75h300"/><path fill="#000" d="M150 0v150ZM0 75h300Z"/><path stroke="#C8102E" stroke-width="30" d="M150 0v150M0 75h300"/></g></g><defs><clipPath id="a"><path fill="#fff" d="M0 0h600v300H0z"/></clipPath><clipPath id="b"><path fill="#fff" d="M0 0h300v150H0z"/></clipPath></defs></svg>