<svg xmlns="http://www.w3.org/2000/svg" width="600" height="300" fill="none"><g clip-path="url(#a)"><path fill="#006233" d="M0 0v300h600V0z"/><path fill="#fff" fill-rule="evenodd" stroke="#fff" stroke-width=".234" d="M265.592 155.462c-5.453 7.449-1.517 12.293 4.103 12.634 3.705.249 11.403-4.768 11.386-10.666l-2.107-1.071c1.181 3.027-.041 3.982-2.547 6.048-4.943 4.081-15.043 4.364-10.835-6.95z" clip-rule="evenodd"/><path fill="#fff" fill-rule="evenodd" stroke="#fff" stroke-width=".584" d="M308.794 174.995c30.684.787 40.442-26.229 21.504-49.356l-1.876 2.547c1.221 10.776 2.987 21.402 3.155 32.45-3.705 3.965-9.094 2.489-10.164-1.915.063-5.973-2.084-11.025-4.799-15.852l-1.516 2.546c1.765 3.965 3.681 8.427 4.08 13.306-8.751 9.555-18.435 11.488-14.835-1.071-6.922 11.008 3.554 18.763 15.426 1.817 2.547 11.564 12.392 4.387 12.983 1.893 1.071-7.582.526-19.793-1.644-29.447 8.543 13.462 8.838 23.167 4.295 29.655-5.053 7.217-16.034 10.585-26.62 13.421z" clip-rule="evenodd"/><path fill="#fff" fill-rule="evenodd" stroke="#fff" stroke-width=".584" d="M326.194 144.454c-6.564.44-9.933-.787-6.379-5.208 3.513-4.329 6.795-.88 7.681 4.902.822 5.417-11.53 12.327-15.802 12.327-6.459 0-9.446-7.564-3.49-14.359-7.658 19.834 16.543 8.328 17.99 2.338Zm-4.544-4.595c-.799-.04-1.389 1.244-.99 1.493 1.158.729 2.987.29 3.178-.075.399-.804-1.071-1.377-2.188-1.418Z" clip-rule="evenodd"/><path fill="#fff" fill-rule="evenodd" stroke="#fff" stroke-width=".584" d="M290.55 153.819c-6.315 11.297-.023 15.967 8.081 14.665 4.711-.787 10.69-3.831 14.14-7.981.064-9.15-.087-18.225-.967-27.091 3.155-3.426-.272-3.409-1.47-7.084-.55 2.141-1.875 4.462-.59 6.129.903 8.942 1.412 17.999 1.389 27.224-6.355 4.653-11.131 6.378-14.54 6.338-7.05-.058-8.566-5.458-6.037-12.195z" clip-rule="evenodd"/><path fill="#fff" fill-rule="evenodd" stroke="#fff" stroke-width=".584" d="M303.446 156.805c-.104-8.519-.254-18.19-1.094-24.14 3.282-3.31-.168-3.391-1.238-7.101-.631 2.107-2.02 4.404-.799 6.106.55 9.115 1.071 18.225 1.181 27.34.758-.44 1.62-.614 1.956-2.199z" clip-rule="evenodd"/><path fill="#fff" fill-rule="evenodd" d="M278.951 156.406c-.799-.921-1.366-1.951-2.02-2.854-.105-1.284.839-2.471.966-3.119 1.071 1.51 1.702 2.662 2.57 3.409m1.135.596c1.58.573 3.513.573 5.302.613 6.899.116 14.163-.92 13.382 7.582-.475 6.604-6.448 11.766-13.718 11.853-8.775-.075-16.265-8.884-2.738-25.101 1.302-.191 3.01.134 4.416.249 2.42.174 4.903-.04 7.745-2.106-.336-5.342-.336-10.395-1.053-15.221-1.222-1.702.167-3.982.798-6.106 1.071 3.715 4.504 3.79 1.239 7.124.781 5.359.862 10.817.862 14.07-1.643 2.28-2.923 4.687-7.721 5.608-4.903-.649-7.114-6.893-12.225-4.827 1.413-5.631 14.396-6.91 15.698-2.471-.863 4.635-12.983 2.778-16.201 17.75-.99 4.612 4.358 8.866 9.845 8.519 5.366-.324 11.091-3.716 11.658-9.422.44-4.769-6.946-4.213-10.037-4.155-4.503.098-7.345-.539-9.047-1.436m4.608-10.319c.798-.689 3.6-1.169 4.607-.058-.758.457-1.493.955-2.107 1.551-1.053-.497-1.748-.995-2.506-1.493z" clip-rule="evenodd"/><path stroke="#fff" stroke-width=".234" d="M278.951 156.406c-.799-.921-1.366-1.951-2.02-2.854-.105-1.284.839-2.471.966-3.119 1.071 1.51 1.702 2.662 2.57 3.409m1.135.596c1.58.573 3.513.573 5.302.613 6.899.116 14.163-.92 13.382 7.582-.475 6.604-6.448 11.766-13.718 11.853-8.775-.075-16.265-8.884-2.738-25.101 1.302-.191 3.01.134 4.416.249 2.42.174 4.903-.04 7.745-2.106-.336-5.342-.336-10.395-1.053-15.221-1.222-1.702.167-3.982.798-6.106 1.071 3.715 4.504 3.79 1.239 7.124.781 5.359.862 10.817.862 14.07-1.643 2.28-2.923 4.687-7.721 5.608-4.903-.649-7.114-6.893-12.225-4.827 1.413-5.631 14.396-6.91 15.698-2.471-.863 4.635-12.983 2.778-16.201 17.75-.99 4.612 4.358 8.866 9.845 8.519 5.366-.324 11.091-3.716 11.658-9.422.44-4.769-6.946-4.213-10.037-4.155-4.503.098-7.345-.539-9.047-1.436m4.608-10.319c.798-.689 3.6-1.169 4.607-.058-.758.457-1.493.955-2.107 1.551-1.053-.497-1.748-.995-2.506-1.493z"/><path fill="#fff" fill-rule="evenodd" stroke="#fff" stroke-width=".584" d="M291.285 130.808a8.8 8.8 0 0 1 1.117 4.022c-.463 1.991-2.338 3.849-4.271 3.907-1.198.04-2.547-.267-3.491-1.974-.104-.208-.607-.706-1.094-.48-2.124 3.177-3.704 4.52-5.62 4.497-3.832-.058-2.691-3.16-6.228-4.115-1.47-.041-3.895 1.319-5.134 3.981-4.712 12.16-9.006-.04-7.177-5.706.272 5.417 1.701 8.635 3.177 8.537 1.071-.099 2.02-2.356 3.386-4.729 1.054-1.817 3.577-5.093 6.252-5.093 2.442.058.903 4.138 5.788 4.08 2.356-.04 4.526-1.684 6.714-4.977.486-.075.608.706.718.978.336 1.129 2.483 4.231 5.389 1.395-.145-.614-.087-1.626-.822-1.84l1.302-2.489z" clip-rule="evenodd"/><path fill="#fff" fill-rule="evenodd" d="M306.624 120.737c-2.587 1.169-4.48.099-5.557-.937 1.876-.348 3.323-.955 3.745-2.298-.839-1.725-2.842-2.471-5.661-2.489-3.768.099-5.701 1.476-5.932 3.369 1.748.058 3.322-.382 3.999 1.146-3.091 1.377-6.732 1.875-10.691 1.857-6.482.307-7.426-2.355-9.133-4.687-.128-.151-.695-.4-.99-.365-1.997 0-3.473 6.355-5.725 6.337-2.251-.266-1.748-4.097-2.396-6.279-.55 3.426.695 16.176 7.658 2.338.208-.457.503-.324.694.058 1.876 3.866 5.684 5.209 9.788 5.4 3.433.173 7.808-1.187 12.497-3.6 1.239 1.244 2.228 2.662 4.839 2.928 3.05.133 6.315-1.875 7.05-4.364.376-1.284.44-3.808-1.054-3.848-2.083-.058-3.6 4.537-3.114 8.675.041-.058.272-1.036.272-1.036m-9.214-5.515c1.366-.573 2.691-.845 3.745.422a6.1 6.1 0 0 0-1.766.764c-.59-.422-1.389-.631-1.979-1.186m10.059 2.853c.336-1.36.527-2.448 1.748-3.16.255 1.435.296 2.24-1.748 3.16m8.208 2.107c-.399-1.169-.799-2.182-.926-3.444-.295-2.564 2.124-4.022 4.312-3.808 2.252.208 3.745.978 5.892 1.644 1.685.515 3.954.92 6.124 1.475 1.222.498 0 1.8-.318 1.974-5.429 1.933-9.278 4.995-12.728 5.133-2.061.099-3.896-1.128-5.557-3.64-.104-4.861-.295-10.568-.822-14.15.799-.73.967-1.262 1.349-1.858.422 4.728.59 9.705.694 14.723.44.863.99 1.592 1.98 1.951m3.473.382c-2.906.746-2.547-1.494-2.819-2.871-.318-1.609-.104-3.426 2.148-2.969 2.923.706 5.597 1.644 8.184 2.645z" clip-rule="evenodd"/><path stroke="#fff" stroke-width=".234" d="M306.624 120.737c-2.587 1.169-4.48.099-5.557-.937 1.876-.348 3.323-.955 3.745-2.298-.839-1.725-2.842-2.471-5.661-2.489-3.768.099-5.701 1.476-5.932 3.369 1.748.058 3.322-.382 3.999 1.146-3.091 1.377-6.732 1.875-10.691 1.857-6.482.307-7.426-2.355-9.133-4.687-.128-.151-.695-.4-.99-.365-1.997 0-3.473 6.355-5.725 6.337-2.251-.266-1.748-4.097-2.396-6.279-.55 3.426.695 16.176 7.658 2.338.208-.457.503-.324.694.058 1.876 3.866 5.684 5.209 9.788 5.4 3.433.173 7.808-1.187 12.497-3.6 1.239 1.244 2.228 2.662 4.839 2.928 3.05.133 6.315-1.875 7.05-4.364.376-1.284.44-3.808-1.054-3.848-2.083-.058-3.6 4.537-3.114 8.675.041-.058.272-1.036.272-1.036m-9.214-5.515c1.366-.573 2.691-.845 3.745.422a6.1 6.1 0 0 0-1.766.764c-.59-.422-1.389-.631-1.979-1.186Zm10.059 2.853c.336-1.36.527-2.448 1.748-3.16.255 1.435.296 2.24-1.748 3.16Zm8.208 2.107c-.399-1.169-.799-2.182-.926-3.444-.295-2.564 2.124-4.022 4.312-3.808 2.252.208 3.745.978 5.892 1.644 1.685.515 3.954.92 6.124 1.475 1.222.498 0 1.8-.318 1.974-5.429 1.933-9.278 4.995-12.728 5.133-2.061.099-3.896-1.128-5.557-3.64-.104-4.861-.295-10.568-.822-14.15.799-.73.967-1.262 1.349-1.858.422 4.728.59 9.705.694 14.723.44.863.99 1.592 1.98 1.951Zm3.473.382c-2.906.746-2.547-1.494-2.819-2.871-.318-1.609-.104-3.426 2.148-2.969 2.923.706 5.597 1.644 8.184 2.645z"/><path fill="#fff" fill-rule="evenodd" d="m316.597 125.141.399 1.783h.319l-.128-1.667" clip-rule="evenodd"/><path stroke="#fff" stroke-width=".234" d="m316.597 125.141.399 1.783h.319l-.128-1.667"/><path fill="#fff" fill-rule="evenodd" stroke="#fff" stroke-linecap="round" stroke-linejoin="round" stroke-width="2.338" d="m270.286 143.748 1.47-1.377 1.702 1.319-1.581 1.285-1.597-1.227zm3.745-.457 1.493-1.377 1.702 1.319-1.58 1.285-1.621-1.227zm-10.419-14.284 1.493-1.377 1.702 1.32-1.58 1.284-1.621-1.227zm.671 4.058 1.494-1.378 1.684 1.32-1.58 1.284zm27.043 6.794 1.366-1.013 1.262 1.245-1.43.92-1.198-1.146zm-18.054-25.98.967-.897 1.117.862-1.03.845-1.054-.804zm2.46-.289.967-.921 1.117.88-1.03.822-1.054-.787zm51.683 10.278-.926.706-.886-.822.967-.648.839.764z" clip-rule="evenodd"/><path fill="#fff" fill-rule="evenodd" stroke="#fff" stroke-width=".234" d="m283.859 149.281-.104 1.511 2.651.231 2.124-1.452z" clip-rule="evenodd"/><path fill="#fff" fill-rule="evenodd" stroke="#fff" stroke-width=".584" d="m306.265 121.021.781-.151-.086 1.974-.487.174-.208-1.991z" clip-rule="evenodd"/><path fill="#fff" d="M300.5 200.42c29.867 0 54.177-22.109 54.177-49.31a47.39 47.39 0 0 0-18.869-37.271 40.64 40.64 0 0 1 11.113 27.78c0 23.613-20.779 42.769-46.421 42.769s-46.421-19.156-46.421-42.827c0-10.591 4.167-20.314 11.113-27.78a47.33 47.33 0 0 0-18.869 37.387c0 27.143 24.31 49.252 54.177 49.252"/><path fill="#fff" stroke="#000" stroke-width="2" d="M293.166 227.87c-11.946 5.434-26.886 3.953-39.51-3.461-.544-.249-.816.121-.272 1.481 1.36 3.583 2.443 6.425-1.626 11.738-1.766 2.349.272 2.72 3.259 2.471 15.205-1.36 30.144-4.445 37.339-7.044l.816-5.185zm-.272 6.424c-4.752 1.73-12.902 3.831-21.995 5.313-3.664.492-3.531 2.593 2.987 3.333 6.651.62 15.206-3.704 20.369-7.535z"/><path fill="#fff" d="M300.5 222.435c1.627 0 4.619-.619 7.606-.99 5.568-.862 1.493 6.917-7.606 6.917v2.592c9.232 0 18.875-9.144 16.838-13.218-2.854-5.932-10.726-.863-16.838-.863s-13.984-5.064-16.838.863c-2.037 4.074 7.606 13.218 16.838 13.218v-2.592c-9.099 0-13.168-7.785-7.606-6.917 2.987.371 5.974.99 7.606.99"/><path stroke="#000" stroke-width="2" d="M300.5 228.362c9.099 0 13.174-7.779 7.606-6.917-2.987.371-5.979.99-7.606.99-1.632 0-4.619-.619-7.606-.99-5.562-.868-1.493 6.917 7.606 6.917Zm0 0v2.592m0 0c9.232 0 18.875-9.144 16.838-13.218-2.854-5.932-10.726-.863-16.838-.863s-13.984-5.064-16.838.863c-2.037 4.074 7.606 13.218 16.838 13.218Z"/><path fill="#fff" stroke="#000" stroke-width="2" d="M307.834 227.87c11.947 5.434 26.886 3.953 39.51-3.461.544-.249.816.121.272 1.481-1.36 3.583-2.443 6.425 1.626 11.738 1.766 2.349-.272 2.72-3.258 2.471-15.206-1.36-30.145-4.445-37.34-7.044l-.816-5.185zm.272 6.424c4.752 1.73 12.763 3.831 21.995 5.313 3.664.492 3.531 2.593-2.987 3.333-6.65.62-15.205-3.704-20.368-7.535z"/><path fill="#fff" stroke="#000" stroke-width="2" d="M300.905 233.055c.272 2.101.677 6.673 3.803 4.694 4.208-2.593 5.157-4.572 5.157-8.276 0-2.35-3.125-5.805-9.371-5.805-6.245 0-9.371 3.461-9.371 5.805 0 3.704.949 5.683 5.157 8.276 3.126 1.979 3.392-2.593 3.803-4.694.133-.74.816-.492.816 0zM296.564 74.808c-1.765-9.145-16.566-9.758-18.875-11.24-2.715-1.603-2.31 0-1.36 2.472 2.714 6.424 11.946 9.016 16.16 9.757 3.392.492 4.48.741 4.075-.99Z"/><path fill="#fff" stroke="#000" stroke-width="2" d="M301.044 75.057c1.493-9.388-13.168-13.838-14.933-15.94-2.038-2.222-2.31-.862-1.361 1.731 1.766 5.562 8.144 12.108 11.947 13.838 3.126 1.482 4.075 2.101 4.347.37Z"/><path fill="#fff" stroke="#000" stroke-width="2" d="M313.13 80.49c1.36-11.239-10.593-12.969-13.712-16.551-2.038-2.223-2.171-.99-1.494 1.603 1.361 5.683 7.334 12.35 10.998 14.451 2.853 1.603 4.075 2.223 4.208.492z"/><path fill="#fff" stroke="#000" stroke-width="2" d="M309.46 78.02c-12.358-7.287-21.046-3.212-24.576-3.583-3.392-.37-4.481 1.603 1.36 4.572 7.194 3.583 17.243 3.09 21.179 1.73 4.075-1.48 2.853-2.222 2.037-2.72Zm18.603 4.942c-3.803-12.107-12.629-10.128-15.205-11.61s-2.854-1.11-2.31 1.604c1.088 4.815 10.182 10.128 14.662 11.737 1.626.492 3.664 1.233 2.853-1.73Z"/><path fill="#fff" stroke="#000" stroke-width="2" d="M326.298 85.063c-10.592-7.784-18.875-1.98-22.134-2.842-2.443-.619-1.36.863-.405 1.482 6.789 4.323 15.205 6.673 21.723 3.953 2.581-.99 2.714-1.233.816-2.593Zm22.944 7.906c.133-7.657-17.243-10.87-20.912-15.563-2.171-2.842-4.075-1.36-2.987 3.212 1.626 5.933 13.579 12.478 20.096 13.71 3.936.742 3.803-.491 3.803-1.36Z"/><path fill="#fff" stroke="#000" stroke-width="2" d="M348.704 94.329c-10.998-9.017-20.23-6.054-23.627-6.916-3.392-.741-4.752 1.11.544 4.815 6.517 4.445 16.565 5.313 20.773 4.445s3.126-1.73 2.31-2.35zm19.686 13.218c-3.126-13.097-13.035-15.811-15.478-18.282-2.31-2.472-4.752-1.73-2.715 4.201 2.443 7.044 10.454 13.219 14.662 14.701 4.075 1.603 3.803.37 3.531-.62Z"/><path fill="#fff" stroke="#000" stroke-width="2" d="M368.256 109.278c-8.01-11.737-18.464-11.367-21.723-12.97-3.125-1.73-5.296-.249-1.088 4.816 4.886 6.175 14.934 9.636 19.553 9.885 4.619.248 3.803-.863 3.258-1.731Z"/><path fill="#fff" stroke="#000" stroke-width="2" d="M378.571 123.237c4.619-13.34-5.973-18.282-7.062-20.505-1.221-2.222-2.442-2.222-3.125.122-2.987 9.515 6.65 18.775 8.144 20.632 1.493 1.731 1.765.863 2.037-.249z"/><path fill="#fff" stroke="#000" stroke-width="2" d="M376.4 126.941c-3.664-14.949-13.307-14.08-15.477-16.181-2.31-2.101-2.582-.62-2.171 2.101 1.088 7.286 10.726 12.229 15.073 14.7 1.36.741 2.986 1.603 2.581-.62zm9.233 17.542c6.65-14.081-1.222-23.595-3.664-25.696-2.443-1.979-3.936-2.842-3.126 0 1.088 4.323-2.715 15.441 3.126 23.596 1.898 2.72 2.17 5.312 3.664 2.1Z"/><path fill="#fff" stroke="#000" stroke-width="2" d="M382.102 147.325c1.493-8.646-3.936-16.552-9.777-19.643-3.391-1.852-3.53-1.36-3.53 1.233.272 8.027 8.555 14.7 10.997 18.404 2.31 3.461 2.171.863 2.31 0z"/><path fill="#fff" stroke="#000" stroke-width="2" d="M380.608 169.81c-4.885-16.31 5.297-25.697 8.416-27.549 2.987-1.979 4.886-2.72 3.531.37-2.037 4.573.133 17.294-7.606 25.327-2.442 2.72-3.391 5.561-4.346 1.852z"/><path fill="#fff" stroke="#000" stroke-width="2" d="M381.697 166.227c4.074-14.208-4.753-22.236-7.467-23.844-2.582-1.604-4.208-2.223-2.987.37 1.627 3.953-.133 15.071 6.651 21.987 2.17 2.349 2.986 4.693 3.803 1.481z"/><path fill="#fff" stroke="#000" stroke-width="2" d="M376.672 159.554c-7.333 7.165-7.466 17.663-4.208 23.844 2.038 3.583 2.31 3.334 4.208.741 5.158-7.535 2.038-18.404 2.31-23.225.133-4.572-1.494-2.101-2.31-1.36Z"/><path fill="#fff" stroke="#000" stroke-width="2" d="M388.758 170.92c0 9.886-6.65 17.913-13.712 20.384-4.075 1.36-4.075.99-3.531-1.979 1.899-11.118 11.27-15.192 14.662-18.775 3.258-3.461 2.581-.619 2.581.37Z"/><path fill="#fff" stroke="#000" stroke-width="2" d="M363.504 200.321c11.947-9.885 5.569-16.801 6.113-23.225.272-3.461-1.222-2.593-2.582-1.36-7.605 6.794-8.011 18.902-6.384 23.596.677 2.1 1.765 1.852 2.853.989Z"/><path fill="#fff" stroke="#000" stroke-width="2" d="M379.526 193.897c-3.936 10.869-14.395 17.542-23.216 17.912-5.158.249-5.025-.121-3.259-3.333 6.651-11.61 18.464-12.97 23.76-15.939 4.886-2.72 3.126.249 2.715 1.36Z"/><path fill="#fff" stroke="#000" stroke-width="2" d="M347.072 214.281c15.477-7.044 12.357-18.775 15.205-21.744 2.038-2.101-.405-1.852-1.626-1.111-9.099 4.815-16.427 12.478-16.566 20.632 0 3.091.272 3.461 2.987 2.223Z"/><path fill="#fff" stroke="#000" stroke-width="2" d="M325.893 227.378c19.552 2.841 28.651-10.626 34.352-11.859 2.987-.619.817-1.73-.677-1.852-13.035-1.36-29.6 4.202-34.625 10.377-2.037 2.471-2.037 2.963.95 3.334Z"/><path fill="#fff" stroke="#000" stroke-width="2" d="M345.717 206.253c-3.936 11.737-18.603 21.374-29.601 22.114-5.157.371-5.157-.121-3.258-3.212 8.827-14.578 24.171-17.05 29.6-20.754 4.619-3.212 3.664.741 3.259 1.852Zm-41.275-131.44c1.765-9.144 16.566-9.757 18.875-11.239 2.715-1.603 2.309 0 1.36 2.471-2.714 6.424-11.947 9.017-16.16 9.758-3.392.492-4.48.74-4.075-.99Z"/><path fill="#fff" stroke="#000" stroke-width="2" d="M299.956 75.057c-1.494-9.388 13.168-13.838 14.933-15.94 2.038-2.222 2.31-.862 1.361 1.731-1.766 5.562-8.144 12.108-11.947 13.838-3.126 1.482-4.075 2.101-4.347.37Z"/><path fill="#fff" stroke="#000" stroke-width="2" d="M287.87 80.49c-1.36-11.239 10.593-12.969 13.712-16.551 2.038-2.223 2.171-.99 1.494 1.603-1.361 5.683-7.334 12.35-10.998 14.451-2.853 1.603-4.075 2.223-4.208.492z"/><path fill="#fff" stroke="#000" stroke-width="2" d="M291.54 78.02c12.358-7.287 21.046-3.212 24.576-3.583 3.392-.37 4.481 1.603-1.36 4.572-7.194 3.583-17.243 3.09-21.179 1.73-4.075-1.48-2.853-2.222-2.037-2.72Zm-18.603 4.942c3.803-12.107 12.629-10.128 15.205-11.61s2.854-1.11 2.31 1.604c-1.088 4.815-10.182 10.128-14.662 11.737-1.626.492-3.664 1.233-2.853-1.73Z"/><path fill="#fff" stroke="#000" stroke-width="2" d="M274.702 85.063c10.592-7.784 18.875-1.98 22.134-2.842 2.443-.619 1.36.863.405 1.482-6.789 4.323-15.205 6.673-21.723 3.953-2.581-.99-2.714-1.233-.816-2.593Zm-22.944 7.906c-.133-7.657 17.243-10.87 20.912-15.563 2.171-2.842 4.075-1.36 2.987 3.212-1.626 5.933-13.579 12.478-20.096 13.71-3.936.742-3.803-.491-3.803-1.36Z"/><path fill="#fff" stroke="#000" stroke-width="2" d="M252.296 94.329c10.998-9.017 20.23-6.054 23.628-6.916 3.391-.741 4.752 1.11-.545 4.815-6.517 4.445-16.565 5.313-20.773 4.445s-3.126-1.73-2.31-2.35zm-19.685 13.218c3.125-13.097 13.035-15.811 15.477-18.282 2.31-2.472 4.752-1.73 2.715 4.201-2.443 7.044-10.454 13.219-14.662 14.701-4.074 1.603-3.802.37-3.53-.62Z"/><path fill="#fff" stroke="#000" stroke-width="2" d="M232.744 109.278c8.01-11.737 18.464-11.367 21.723-12.97 3.125-1.73 5.296-.249 1.088 4.816-4.885 6.175-14.934 9.636-19.553 9.885-4.619.248-3.803-.863-3.258-1.731Z"/><path fill="#fff" stroke="#000" stroke-width="2" d="M222.429 123.237c-4.619-13.34 5.974-18.282 7.062-20.505 1.221-2.222 2.442-2.222 3.125.122 2.987 9.515-6.65 18.775-8.144 20.632-1.493 1.731-1.765.863-2.037-.249z"/><path fill="#fff" stroke="#000" stroke-width="2" d="M224.6 126.941c3.663-14.949 13.307-14.08 15.477-16.181 2.31-2.101 2.582-.62 2.171 2.101-1.088 7.286-10.726 12.229-15.073 14.7-1.36.741-2.986 1.603-2.581-.62zm-9.233 17.542c-6.65-14.081 1.222-23.595 3.664-25.696 2.443-1.979 3.936-2.842 3.126 0-1.088 4.323 2.715 15.441-3.126 23.596-1.898 2.72-2.17 5.312-3.664 2.1Z"/><path fill="#fff" stroke="#000" stroke-width="2" d="M218.898 147.325c-1.493-8.646 3.936-16.552 9.777-19.643 3.391-1.852 3.53-1.36 3.53 1.233-.272 8.027-8.555 14.7-10.997 18.404-2.31 3.461-2.171.863-2.31 0z"/><path fill="#fff" stroke="#000" stroke-width="2" d="M220.392 169.81c4.885-16.31-5.297-25.697-8.416-27.549-2.987-1.979-4.886-2.72-3.531.37 2.037 4.573-.133 17.294 7.606 25.327 2.442 2.72 3.258 5.561 4.346 1.852z"/><path fill="#fff" stroke="#000" stroke-width="2" d="M219.303 166.227c-4.074-14.208 4.752-22.236 7.467-23.844 2.582-1.604 4.208-2.223 2.987.37-1.627 3.953.133 15.071-6.651 21.987-2.17 2.349-2.986 4.693-3.803 1.481z"/><path fill="#fff" stroke="#000" stroke-width="2" d="M224.328 159.554c7.333 7.165 7.466 17.663 4.208 23.844-2.038 3.583-2.31 3.334-4.208.741-5.158-7.535-2.038-18.404-2.31-23.225-.133-4.572 1.493-2.101 2.31-1.36Z"/><path fill="#fff" stroke="#000" stroke-width="2" d="M212.242 170.92c0 9.886 6.65 17.913 13.712 20.384 4.075 1.36 4.075.99 3.531-1.979-1.899-11.118-11.27-15.192-14.662-18.775-3.258-3.461-2.581-.619-2.581.37Z"/><path fill="#fff" stroke="#000" stroke-width="2" d="M237.496 200.321c-11.947-9.885-5.569-16.801-6.113-23.225-.272-3.461 1.222-2.593 2.582-1.36 7.606 6.794 8.011 18.902 6.384 23.596-.677 2.1-1.765 1.852-2.853.989Z"/><path fill="#fff" stroke="#000" stroke-width="2" d="M221.474 193.897c3.936 10.869 14.395 17.542 23.216 17.912 5.158.249 5.025-.121 3.259-3.333-6.65-11.61-18.464-12.97-23.76-15.939-4.886-2.72-3.126.249-2.715 1.36Z"/><path fill="#fff" stroke="#000" stroke-width="2" d="M253.928 214.281c-15.477-7.044-12.358-18.775-15.205-21.744-2.038-2.101.405-1.852 1.626-1.111 9.099 4.815 16.427 12.478 16.566 20.632 0 3.091-.272 3.461-2.987 2.223Z"/><path fill="#fff" stroke="#000" stroke-width="2" d="M275.107 227.378c-19.552 2.841-28.651-10.626-34.353-11.859-2.986-.619-.816-1.73.678-1.852 13.035-1.36 29.6 4.202 34.625 10.377 2.037 2.471 2.037 2.963-.95 3.334Z"/><path fill="#fff" stroke="#000" stroke-width="2" d="M255.283 206.253c3.936 11.737 18.603 21.373 29.601 22.114 5.157.371 5.157-.121 3.258-3.212-8.827-14.578-24.171-17.05-29.6-20.754-4.619-3.212-3.664.741-3.259 1.852Z"/><path fill="#006233" d="M323.421 86.174c-2.547-1.736-12.039-.752-13.833-1.91 3.415 2.605 10.997.753 13.891 1.91zm22.979 4.399c-2.026-3.3-14.123-5.556-15.917-8.508 3.183 5.672 12.502 4.92 15.917 8.508m-1.736 3.82c-4.515-3.936-14.934-2.315-18.117-4.63 7.351 6.018 11.403 1.33 18.059 4.63zm-26.221-17.537c2.837 1.39 6.367 2.72 8.104 5.962-2.026-2.49-5.673-3.473-8.682-5.556.173 0 .405-.232.578-.406m44.569 25.465c-1.794-3.704-8.103-7.755-8.624-9.144 1.736 4.804 6.946 5.961 8.566 9.144zm1.563 6.54c-5.441-7.755-13.949-6.945-17.364-9.839 2.604 2.836 12.386 4.631 17.364 9.839m12.618 11.98c.406-8.276-6.367-11.343-6.598-16.031-.174 5.556 6.946 13.08 6.598 16.031m-3.357 4.457c-1.389-7.177-10.592-7.64-12.213-11.865 0 3.936 10.824 8.045 12.155 11.865zm7.583-4.051c4.92 5.44 1.505 13.716 3.531 19.735-2.431-4.456-1.216-15.568-3.473-19.735zm-7.988 23.15c7.293 7.234 4.341 15.221 7.293 18.693-3.646-4.803-3.125-14.179-7.293-18.636zm15.223 1.041c-6.309 6.309-2.489 15.8-5.788 20.257 3.704-3.82 3.183-15.627 5.788-20.257m-7.93 0c-.81-7.292-8.277-11.112-8.914-15.047-.868 3.935 7.178 10.128 8.914 15.047m-3.762 17.363c1.158 5.093-3.299 15.973-1.91 19.33-3.01-5.787 2.547-16.784 1.91-19.272zm9.608 11.633c-2.952 9.028-8.971 8.449-10.824 13.89 1.332-5.209 9.261-9.897 10.824-13.89m-19.39 4.225c-3.936 6.076-.695 12.964-3.936 17.304 4.63-4.34 2.142-12.385 3.936-17.304m9.492 16.552c-4.746 8.044-14.528 7.292-18.464 13.08 3.936-7.293 16.033-8.508 18.522-13.08zm-17.248-.984c-8.393 5.324-5.788 10.88-12.213 16.784 7.987-5.904 7.351-12.443 12.213-16.784m-3.936 21.529c-8.104-.289-19.796 9.376-26.857 8.624 7.061 1.389 20.085-7.292 26.857-8.681zm-13.139-8.681c-.579 7.524-21.764 12.385-24.021 17.421 2.546-6.656 21.184-11.575 24.021-17.363zm-47.926-138.9c-2.721-2.141-6.02-3.877-6.946-5.961.694 2.72 3.357 4.63 6.077 6.54.29-.116.579-.521.869-.637zm-4.631 2.142c-4.225-1.852-9.087-1.737-11.287-4.283 1.389 2.546 5.962 3.53 9.898 4.92.405-.232.984-.522 1.389-.58zm-12.213 15.8c2.547-1.737 12.039-.695 13.834-1.853-3.415 2.605-10.998.753-13.892 1.852zM254.6 90.572c2.026-3.3 14.123-5.556 15.917-8.508-3.125 5.672-12.502 4.92-15.917 8.508m1.736 3.82c4.515-3.936 14.992-2.315 18.117-4.63-7.351 6.018-11.402 1.33-18.059 4.63zm18.117-11.576c2.547-4.977 9.84-5.555 11.808-8.565-2.894 4.456-9.087 5.209-11.808 8.566m20.838-4.34c7.524-3.183 14.875-.463 18.406-1.968-4.341 2.084-14.702 1.1-18.348 1.968zm-57.245 23.844c1.736-3.704 7.987-7.813 8.566-9.144-1.736 4.804-6.946 5.961-8.566 9.144m-1.621 6.54c5.441-7.755 13.949-6.945 17.365-9.839-2.547 2.836-12.329 4.631-17.365 9.839m-12.618 11.98c-.405-8.276 6.367-11.343 6.656-16.031.116 5.556-6.946 13.08-6.656 16.031m3.357 4.457c1.389-7.177 10.592-7.64 12.213-11.865 0 3.936-10.824 8.045-12.155 11.865zm-7.583-4.051c-4.862 5.44-1.505 13.658-3.473 19.735 2.374-4.456 1.158-15.568 3.473-19.735m7.988 23.15c-7.293 7.234-4.341 15.221-7.293 18.693 3.647-4.803 3.126-14.179 7.293-18.636zm-15.165 1.041c6.251 6.309 2.431 15.8 5.672 20.257-3.646-3.82-3.125-15.627-5.672-20.257m7.872 0c.81-7.292 8.277-11.112 8.914-15.047.868 3.935-7.178 10.128-8.914 15.047m3.762 17.363c-1.157 5.093 3.3 15.973 1.91 19.33 3.01-5.787-2.546-16.784-1.91-19.272zm-9.608 11.633c3.01 9.028 8.972 8.449 10.882 13.89-1.389-5.209-9.261-9.897-10.882-13.89m19.39 4.225c3.936 6.076.695 12.964 3.936 17.304-4.63-4.34-2.141-12.385-3.936-17.304m-9.492 16.552c4.746 8.044 14.528 7.292 18.522 13.08-3.994-7.293-16.091-8.508-18.522-13.08m17.248-.984c8.393 5.324 5.847 10.88 12.214 16.784-7.988-5.904-7.294-12.443-12.214-16.784m3.936 21.472c8.104-.232 19.854 9.433 26.858 8.681-7.004 1.331-20.085-7.292-26.858-8.681m13.197-8.682c.521 7.582 21.706 12.386 24.021 17.479-2.604-6.656-21.184-11.575-24.078-17.421zm30.794-128.309c1.62-6.655 9.839-7.87 10.881-11.864-.405 4.225-10.071 8.913-10.881 11.864m24.02-16.552c-1.157 5.093-10.013 7.929-11.229 11.749.406-5.209 9.493-8.103 11.229-11.749m-6.945 12.038c4.225-6.193 12.907-4.63 15.917-8.16-2.199 4.167-12.907 4.282-15.917 8.102z"/><path stroke="#F7C608" stroke-linecap="round" stroke-linejoin="round" stroke-width="1.052" d="M364.054 150.473c0 32.121-28.535 58.107-63.843 58.107s-63.844-25.986-63.844-58.049 28.594-58.106 63.844-58.106 63.843 26.043 63.843 58.106z"/><path fill="#F7C608" d="m287.766 208.638-.289.695c-.174.463-.637.752-1.216.694l-4.63-1.1 1.504-4.456 4.631.984c.521.116.81.579.579 1.042l-.116.578m-10.997-2.778.231-.694c.116-.521.637-.752 1.158-.579 1.481.55 2.992 1.03 4.514 1.447l-1.447 4.456c-1.62-.405-3.125-.81-4.572-1.331-.463-.231-.579-1.157-.405-1.678"/><path fill="#006233" d="m286.84 208.233-.174.52c-.115.348-.579.521-.984.463l-3.82-.926 1.042-3.241c1.389.406 2.836.695 3.82.869.463.115.695.463.579.81l-.116.405m-9.145-2.315.174-.579c.115-.289.52-.463.926-.347 1.099.347 2.315.81 3.762 1.157l-1.042 3.241a56 56 0 0 1-3.762-1.099c-.405-.232-.579-.868-.405-1.216"/><path fill="#F7C608" d="m270.228 203.024-.405.579c-.29.463-.869.579-1.39.405-1.157-.695-2.72-1.447-4.051-2.257l2.778-3.936a45 45 0 0 0 4.11 2.142c.463.231.579.752.289 1.157l-.347.579m-9.666-5.556.405-.579c.289-.463.868-.579 1.331-.289 1.042.752 2.373 1.678 3.878 2.546l-2.836 3.936a52 52 0 0 1-3.878-2.431c-.405-.405-.232-1.331 0-1.736"/><path fill="#006233" d="m269.533 202.387-.347.463c-.174.29-.637.347-1.1.174-.926-.579-2.199-1.158-3.357-1.852l2.026-2.836c1.158.752 2.489 1.389 3.415 1.794.347.232.521.579.289.926l-.289.347m-7.988-4.572.29-.463c.231-.289.636-.347 1.042-.116a51 51 0 0 0 3.241 2.084l-2.026 2.836c-1.158-.695-2.315-1.331-3.241-2.026-.348-.289-.29-.984-.058-1.273"/><path fill="#F7C608" d="m255.237 193.127-.579.463c-.463.347-1.042.29-1.505 0-.868-.926-2.142-2.025-3.184-3.183l3.878-3.067c1.158 1.215 2.431 2.315 3.3 3.125.405.347.347.868-.058 1.157l-.521.463m-7.525-7.755.579-.521c.405-.289.984-.289 1.331.116a43 43 0 0 0 2.894 3.473l-3.878 3.009c-1.099-1.157-2.141-2.257-3.01-3.357-.289-.463.174-1.273.579-1.62"/><path fill="#006233" d="m254.716 192.375-.464.347c-.289.232-.694.174-1.099-.116l-2.663-2.662 2.836-2.199a43 43 0 0 0 2.721 2.604c.289.348.289.753 0 .984l-.405.29m-6.252-6.482.406-.348c.347-.231.752-.173 1.041.116a46 46 0 0 0 2.489 2.894l-2.836 2.141-2.489-2.778c-.231-.347.058-.984.348-1.215"/><path fill="#F7C608" d="m243.892 179.816-.753.289c-.463.232-1.042 0-1.389-.347l-2.084-3.935 4.689-1.91c.752 1.447 1.563 2.894 2.199 3.82.232.463 0 .926-.463 1.157l-.579.232m-4.862-9.376.695-.347c.521-.174 1.042 0 1.273.463a40 40 0 0 0 1.737 4.051l-4.631 1.91a36 36 0 0 1-1.91-3.936c-.116-.579.579-1.215 1.1-1.447"/><path fill="#006233" d="m243.602 178.948-.521.173c-.347.174-.752 0-1.042-.347l-1.736-3.241 3.357-1.389a40 40 0 0 0 1.852 3.183c.174.405.058.811-.289.926l-.463.174m-4.052-7.813.579-.174c.347-.173.752 0 .926.347.434 1.141.92 2.258 1.447 3.357l-3.299 1.389a34 34 0 0 1-1.563-3.299c-.116-.405.347-.926.695-1.099"/><path fill="#F7C608" d="m237.12 164.074-.811.116a1.15 1.15 0 0 1-1.157-.695l-.869-4.283 5.094-.636c.243 1.424.573 2.836.984 4.225.058.521-.289.926-.81.984l-.695.115m-1.736-10.244.81-.115c.521-.116.984.231 1.042.694.058 1.273.173 2.72.405 4.341l-5.094.636a43 43 0 0 1-.578-4.282c.115-.521.984-.984 1.504-1.042"/><path fill="#006233" d="m237.119 163.206-.578.058c-.348.058-.695-.174-.869-.579l-.636-3.588 3.646-.463c.191 1.186.446 2.367.753 3.53.058.405-.174.753-.579.81l-.463.058m-1.447-8.507.579-.116c.405 0 .752.231.752.637.116 1.041.174 2.315.405 3.588l-3.646.463a26 26 0 0 1-.463-3.531c0-.405.636-.81 1.042-.868"/><path fill="#F7C608" d="m235.499 147.29-.81-.116c-.579 0-.869-.463-.926-.983.173-1.158.289-2.778.578-4.283l5.036.694a38 38 0 0 0-.405 4.283c-.058.521-.521.81-1.042.752l-.695-.115m1.505-10.244.811.058c.521.115.868.521.81.984a40 40 0 0 0-.984 4.282l-5.094-.694c.232-1.447.464-2.894.811-4.283.231-.463 1.215-.694 1.736-.579"/><path fill="#006233" d="M235.788 146.422h-.579c-.405-.116-.578-.463-.636-.868l.463-3.53 3.646.463a38 38 0 0 0-.347 3.588c-.058.405-.405.637-.81.579h-.463m1.215-8.624.579.116c.405 0 .637.405.579.81-.232.984-.579 2.2-.753 3.473l-3.646-.405.636-3.589c.174-.405.869-.578 1.274-.578"/><path fill="#F7C608" d="m239.145 130.796-.752-.347c-.521-.174-.695-.637-.579-1.158.579-1.157 1.158-2.662 1.852-3.993l4.631 1.968a40 40 0 0 0-1.737 4.051c-.173.405-.694.579-1.157.405l-.695-.289m4.631-9.492.752.347c.463.174.695.695.463 1.158a41 41 0 0 0-2.199 3.82l-4.689-1.968c.637-1.331 1.332-2.72 2.084-3.878.347-.405 1.389-.405 1.852-.173"/><path fill="#006233" d="m239.724 130.044-.579-.232c-.347-.116-.463-.579-.347-.926l1.505-3.299 3.357 1.389a37 37 0 0 0-1.447 3.357c-.174.347-.579.521-.926.347l-.463-.173m3.878-7.871.521.231c.347.116.463.521.289.926a40 40 0 0 0-1.852 3.183l-3.299-1.389c.579-1.157 1.1-2.315 1.736-3.241.232-.347.984-.405 1.332-.231"/><path fill="#F7C608" d="m247.77 115.864-.637-.521c-.405-.289-.463-.81-.231-1.273.926-.926 1.968-2.257 3.009-3.357l3.936 3.068a43 43 0 0 0-2.894 3.472.985.985 0 0 1-1.389 0l-.521-.347m7.409-7.929.579.463c.463.347.463.868.116 1.273a45 45 0 0 0-3.3 3.068l-3.936-3.068c1.1-1.157 2.142-2.257 3.242-3.183.463-.289 1.447 0 1.852.29"/><path fill="#006233" d="m248.522 115.285-.463-.347c-.289-.231-.289-.637-.058-.984l2.489-2.836 2.779 2.2a40 40 0 0 0-2.431 2.893c-.29.29-.695.348-1.042.116l-.348-.289m6.136-6.598.463.347c.289.232.289.637 0 .926a48 48 0 0 0-2.778 2.662l-2.779-2.199c.926-.984 1.737-1.91 2.663-2.662.405-.289 1.157-.116 1.389.116"/><path fill="#F7C608" d="m260.562 103.71-.406-.578c-.289-.463-.173-.926.232-1.332 1.158-.636 2.547-1.62 3.936-2.43l2.778 3.935a45 45 0 0 0-3.878 2.547.985.985 0 0 1-1.273-.232l-.405-.579m9.55-5.671.405.578c.348.463.174.984-.231 1.216a48 48 0 0 0-4.168 2.141l-2.778-3.935c1.331-.81 2.72-1.62 4.052-2.258.578-.115 1.389.406 1.678.81"/><path fill="#006233" d="m261.546 103.363-.348-.405c-.173-.347-.058-.694.232-.984.984-.579 2.142-1.389 3.299-2.025l1.968 2.778a56 56 0 0 0-3.183 2.141c-.406.231-.811.174-1.042-.174l-.29-.347m7.93-4.746.347.463c.174.29.058.695-.289.868a49 49 0 0 0-3.473 1.795l-1.968-2.778 3.357-1.91c.463-.116 1.1.231 1.332.52"/><path fill="#F7C608" d="m276.768 95.434-.289-.752c-.116-.463.116-.926.579-1.158l4.573-1.33 1.447 4.456a48 48 0 0 0-4.515 1.504c-.521.116-.984-.115-1.158-.578l-.173-.58m10.881-3.124.232.752c.173.463-.116.926-.579 1.042a52 52 0 0 0-4.688.984l-1.447-4.457a49 49 0 0 1 4.63-1.157c.521 0 1.158.752 1.331 1.157"/><path fill="#006233" d="m277.695 95.319-.174-.58c-.058-.288.174-.578.579-.81l3.762-1.157 1.042 3.241a48 48 0 0 0-3.762 1.158c-.406.173-.811 0-.926-.348l-.174-.405m9.087-2.546.174.52c.116.348-.116.695-.579.81-1.1.174-2.431.464-3.82.811l-1.042-3.183a51 51 0 0 1 3.82-.926c.463-.058.926.463 1.042.81"/><path fill="#F7C608" d="M294.712 91.557v-.753c0-.463.463-.868.984-.984l4.746-.115v4.688q-2.378-.001-4.746.231c-.579 0-.926-.347-.926-.868v-.579m11.402-.116v.695c0 .52-.405.868-.984.868q-2.369-.224-4.746-.231v-4.688c1.621 0 3.299 0 4.746.115.579.116.984.984.984 1.505"/><path fill="#006233" d="M295.754 91.73v-.579c0-.347.289-.578.752-.694l3.994-.058v3.357c-1.505 0-2.952.058-3.994.174-.405 0-.752-.29-.752-.58v-.52m9.435-.058v.52c0 .348-.29.58-.753.58a47 47 0 0 0-3.936-.116v-3.357l3.936.058c.463.116.753.695.753 1.1"/><path fill="#F7C608" d="m312.076 92.367.174-.695c.174-.463.637-.694 1.216-.694l4.63 1.042-1.447 4.514a49 49 0 0 0-4.63-.926c-.521-.174-.811-.579-.637-1.1l.173-.578m10.998 2.72-.231.694c-.116.521-.637.753-1.158.579a51 51 0 0 0-4.515-1.39l1.447-4.513c1.563.405 3.126.81 4.515 1.33.463.232.579 1.158.463 1.621"/><path fill="#006233" d="m312.945 92.772.115-.52c.116-.348.579-.522.984-.464l3.821.868-.984 3.241a47 47 0 0 0-3.878-.81c-.406-.116-.637-.463-.579-.81l.173-.405m9.146 2.315-.174.463a.685.685 0 0 1-.926.405 51 51 0 0 0-3.762-1.158l.984-3.24c1.331.346 2.662.694 3.82 1.099.405.173.579.868.405 1.157"/><path fill="#F7C608" d="m329.557 97.865.405-.579c.289-.463.868-.579 1.389-.405 1.158.637 2.72 1.39 4.11 2.2l-2.721 3.993a48 48 0 0 0-4.225-2.084c-.405-.289-.579-.81-.29-1.215l.406-.579m9.724 5.498-.463.579a.99.99 0 0 1-1.274.289 47 47 0 0 0-3.878-2.488l2.721-3.994c1.389.81 2.778 1.563 3.936 2.431.405.347.231 1.273-.058 1.736"/><path fill="#006233" d="m330.309 98.502.289-.463c.232-.29.637-.348 1.1-.232.926.579 2.2 1.158 3.357 1.852l-1.968 2.894a47 47 0 0 0-3.473-1.794c-.347-.232-.463-.579-.231-.926l.231-.405m8.104 4.572-.347.463c-.232.289-.579.347-1.042.115a47 47 0 0 0-3.242-2.083l1.968-2.836 3.3 1.968c.347.347.289.984.058 1.331"/><path fill="#F7C608" d="m344.664 107.646.579-.521c.405-.289.984-.289 1.447 0l3.241 3.183-3.82 3.068a43 43 0 0 0-3.357-3.068c-.348-.347-.348-.868.058-1.157l.521-.463m7.64 7.697-.579.521a.983.983 0 0 1-1.389-.116 43 43 0 0 0-2.894-3.414l3.878-3.068c1.042 1.158 2.142 2.199 3.01 3.299.231.463-.174 1.331-.579 1.621"/><path fill="#006233" d="m345.185 108.398.405-.347c.289-.231.752-.174 1.158.058.694.81 1.736 1.736 2.662 2.662l-2.778 2.199a43 43 0 0 0-2.779-2.604c-.289-.289-.289-.694 0-.926l.406-.289m6.367 6.366-.463.405c-.29.232-.753.174-1.042-.116a45 45 0 0 0-2.489-2.836l2.778-2.199 2.547 2.72c.231.406-.058 1.042-.347 1.274"/><path fill="#F7C608" d="m356.124 120.899.753-.347c.463-.173 1.042 0 1.389.405l2.142 3.82-4.689 2.026c-.752-1.505-1.62-2.894-2.315-3.82-.174-.463 0-.926.521-1.158l.579-.289m4.978 9.376-.753.289c-.463.232-1.042 0-1.215-.405a41 41 0 0 0-1.795-4.051l4.631-1.968a47 47 0 0 1 1.91 3.993c.116.521-.579 1.158-1.042 1.389"/><path fill="#006233" d="m356.414 121.767.521-.231c.347-.174.752 0 1.042.347l1.736 3.183-3.357 1.447a45 45 0 0 0-1.852-3.183c-.174-.347-.058-.752.289-.926l.463-.174m4.052 7.814-.463.173c-.405.174-.753 0-.984-.347-.405-.984-.868-2.141-1.505-3.357l3.357-1.447 1.621 3.299c.058.463-.405.984-.753 1.158"/><path fill="#F7C608" d="m363.012 136.526.811-.116a1.15 1.15 0 0 1 1.215.694l.868 4.225-5.093.753a38 38 0 0 0-.984-4.225c-.058-.521.231-.926.81-.984l.637-.116m1.852 10.244-.81.116c-.521.058-.984-.232-1.042-.753a41 41 0 0 0-.463-4.282l5.093-.753c.232 1.505.463 2.952.579 4.341 0 .521-.926.984-1.447 1.042"/><path fill="#006233" d="m363.012 137.394.579-.058c.405-.058.753.231.868.578.174 1.042.521 2.315.695 3.531l-3.647.579a38 38 0 0 0-.752-3.589c-.058-.405.116-.752.579-.752l.463-.116m1.505 8.508-.579.116c-.405 0-.753-.232-.81-.579a39 39 0 0 0-.406-3.646l3.647-.521c.231 1.273.463 2.488.521 3.588 0 .405-.637.81-1.042.868"/><path fill="#F7C608" d="m364.807 153.309.81.058c.579.058.926.521.984 1.042l-.521 4.283-5.094-.637c.232-1.562.348-3.183.348-4.341.058-.463.579-.81 1.1-.694l.636.058m-1.389 10.302-.81-.116c-.579 0-.869-.463-.811-.984.348-1.158.695-2.662.926-4.225l5.094.579c-.231 1.505-.463 3.009-.752 4.283-.232.521-1.216.752-1.737.694"/><path fill="#006233" d="M364.517 154.177h.579c.405.116.637.463.695.868l-.463 3.589-3.647-.463.347-3.589c0-.405.348-.694.753-.636h.521m-1.158 8.623-.579-.058c-.405-.058-.636-.405-.579-.81.232-1.042.521-2.199.695-3.53l3.647.463a45 45 0 0 1-.579 3.472c-.174.463-.926.695-1.274.579"/><path fill="#F7C608" d="m361.334 169.861.752.29c.521.231.695.694.579 1.157l-1.736 4.052-4.747-1.91a38 38 0 0 0 1.737-4.052c.173-.463.694-.636 1.157-.463l.695.232m-4.573 9.549-.694-.289c-.521-.232-.753-.695-.521-1.158a32 32 0 0 0 2.199-3.819l4.689 1.91a47 47 0 0 1-2.026 3.877c-.347.405-1.389.405-1.91.174"/><path fill="#006233" d="m360.813 170.614.579.174c.289.173.405.578.347.984l-1.505 3.298-3.415-1.331a37 37 0 0 0 1.447-3.356c.174-.406.579-.579.926-.463l.463.231m-3.762 7.871-.579-.174c-.347-.173-.463-.578-.231-.926a41 41 0 0 0 1.736-3.183l3.415 1.331a48 48 0 0 1-1.736 3.241c-.29.348-1.042.406-1.39.232"/><path fill="#F7C608" d="m352.883 184.851.637.463c.405.347.463.868.231 1.331-.926.926-1.968 2.2-3.01 3.357l-3.936-3.067c1.158-1.158 2.2-2.489 2.895-3.473.347-.347.926-.347 1.331-.058l.521.405m-7.293 7.987-.579-.463c-.463-.347-.521-.868-.174-1.215.984-.868 2.142-1.91 3.299-3.183l3.936 3.067a49 49 0 0 1-3.183 3.241c-.463.289-1.447 0-1.852-.347"/><path fill="#006233" d="m352.131 185.43.463.347c.289.232.289.579.057.984l-2.488 2.778-2.837-2.141c.984-1.042 1.853-2.084 2.431-2.894.29-.289.753-.347 1.042-.116l.348.29m-6.02 6.655-.463-.347c-.29-.232-.29-.637 0-.984a45 45 0 0 0 2.662-2.604l2.894 2.141c-.926.984-1.794 1.91-2.72 2.72-.347.232-1.042.058-1.389-.173"/><path fill="#F7C608" d="m340.149 197.063.405.579c.29.463.174.984-.173 1.331l-3.878 2.488-2.895-3.935a45 45 0 0 0 3.879-2.547.985.985 0 0 1 1.273.232l.405.521m-9.492 5.787-.406-.578c-.347-.463-.231-.984.232-1.274a49 49 0 0 0 4.167-2.141l2.779 3.935-4.052 2.315c-.521.116-1.331-.405-1.679-.81"/><path fill="#006233" d="m339.223 197.41.289.463c.232.289.116.694-.231.984l-3.242 2.025-2.025-2.778 3.241-2.141c.347-.231.81-.174.984.116l.289.405m-7.872 4.804-.347-.463c-.173-.29-.058-.695.29-.926a49 49 0 0 0 3.472-1.795l1.968 2.778c-1.157.695-2.315 1.389-3.357 1.91-.405.174-1.099-.173-1.273-.463"/><path fill="#F7C608" d="m324.116 205.513.231.694c.174.463-.115.984-.579 1.158l-4.514 1.447-1.505-4.515a45 45 0 0 0 4.457-1.504c.521-.116 1.042.115 1.157.578l.232.579m-10.882 3.183-.231-.752c-.174-.463.115-.926.578-1.042a46 46 0 0 0 4.631-1.042l1.563 4.515c-1.563.405-3.126.868-4.631 1.157-.579 0-1.157-.752-1.331-1.157"/><path fill="#006233" d="m323.074 205.628.231.521c.116.347-.173.695-.578.868l-3.705 1.158-1.1-3.241a49 49 0 0 0 3.705-1.158c.463-.173.868 0 .984.347l.116.406m-9.03 2.604-.174-.521c-.115-.347.116-.694.579-.81a48 48 0 0 0 3.82-.868l1.1 3.241q-1.893.528-3.82.926c-.463 0-.984-.463-1.158-.811"/><path fill="#F7C608" d="M306.115 209.506v.752c0 .521-.406.868-.927.984-1.389 0-3.125.174-4.746.174l-.058-4.688a48 48 0 0 0 4.747-.29c.578 0 .926.348.926.869v.578m-11.345.232v-.695c0-.521.347-.868.926-.868 1.331.058 2.952.174 4.746.174v4.688l-4.746-.058c-.521-.116-.926-.984-.926-1.505"/><path fill="#006233" d="M305.131 209.39v.521c0 .347-.348.579-.811.695l-3.936.115v-3.299c1.447 0 2.894-.173 3.936-.231.463 0 .753.231.811.579v.463m-9.493.173v-.578c0-.29.289-.579.752-.579 1.158.058 2.489.173 3.994.116v3.356h-3.936c-.463-.115-.81-.752-.81-1.099"/></g><defs><clipPath id="a"><path fill="#fff" d="M0 0h600v300H0z"/></clipPath></defs></svg>