<svg xmlns="http://www.w3.org/2000/svg" width="600" height="300" fill="none"><g clip-path="url(#a)"><path fill="#74ACDF" d="M0 0h600v300H0z"/><path fill="#fff" d="M0 100h600v100H0z"/><path fill="#F6B40E" d="m297.929 150.843 18.454 40.144s.323.776.843.58c.519-.256.195-1.039.195-1.039l-15.344-41.439m-.452 15.668c-.256 6.084 3.494 9.456 3.042 14.892-.519 5.504 2.462 8.546 3.238 10.684.647 2.138-.776 3.365-.196 3.689.648.324 1.943-1.362 1.551-4.404-.452-2.981-2.718-3.885-2.198-10.556.519-6.67-2.718-8.221-1.943-14.244"/><path stroke="#85340A" stroke-miterlimit="3.84" stroke-width="1.06" d="m297.929 150.843 18.454 40.144s.323.776.843.58c.519-.256.195-1.039.195-1.039l-15.344-41.439m-.452 15.668c-.256 6.084 3.494 9.456 3.042 14.892-.519 5.504 2.462 8.546 3.238 10.684.647 2.138-.776 3.365-.196 3.689.648.324 1.943-1.362 1.551-4.404-.452-2.981-2.718-3.885-2.198-10.556.519-6.67-2.718-8.221-1.943-14.244"/><path fill="#F6B40E" d="m297.761 149.987 1.686 44.15s0 .843.553.863c.58-.041.573-.884.573-.884l1.68-44.156m-6.415 14.305c-2.569 5.524-.384 10.07-2.886 14.926-2.583 4.883-.998 8.835-1.1 11.108-.222 2.219-2.003 2.812-1.591 3.339.472.546 2.313-.513 3.122-3.474.722-2.927-1.025-4.627 2.004-10.596 3.028-5.962.634-8.64 3.655-13.9"/><path stroke="#85340A" stroke-miterlimit="3.84" stroke-width="1.06" d="m297.761 149.987 1.686 44.15s0 .843.553.863c.58-.041.573-.884.573-.884l1.68-44.156m-6.415 14.305c-2.569 5.524-.384 10.07-2.886 14.926-2.583 4.883-.998 8.835-1.1 11.108-.222 2.219-2.003 2.812-1.591 3.339.472.546 2.313-.513 3.122-3.474.722-2.927-1.025-4.627 2.004-10.596 3.028-5.962.634-8.64 3.655-13.9"/><path fill="#F6B40E" d="m297.943 149.13-15.337 41.432s-.324.776.182 1.005c.546.182.87-.594.87-.594l18.453-40.15m-11.398 10.757c-4.486 4.121-4.216 9.16-8.377 12.68-4.256 3.528-4.303 7.783-5.268 9.841-1.052 1.969-2.927 1.834-2.745 2.475.23.688 2.334.411 4.216-2.017 1.787-2.428.822-4.667 5.908-9.017 5.079-4.351 3.892-7.736 8.7-11.446"/><path stroke="#85340A" stroke-miterlimit="3.84" stroke-width="1.06" d="m297.943 149.13-15.337 41.432s-.324.776.182 1.005c.546.182.87-.594.87-.594l18.453-40.15m-11.398 10.757c-4.486 4.121-4.216 9.16-8.377 12.68-4.256 3.528-4.303 7.783-5.268 9.841-1.052 1.969-2.927 1.834-2.745 2.475.23.688 2.334.411 4.216-2.017 1.787-2.428.822-4.667 5.908-9.017 5.079-4.351 3.892-7.736 8.7-11.446"/><path fill="#F6B40E" d="m298.428 148.408-30.027 32.408s-.593.594-.215.998c.438.378 1.032-.216 1.032-.216l32.414-30.033m-14.649 5.578c-5.72 2.09-7.399 6.845-12.592 8.511-5.281 1.626-6.954 5.544-8.633 7.082-1.727 1.416-3.406.573-3.487 1.234-.054.722 1.996 1.275 4.66-.249 2.577-1.558 2.55-4 8.91-6.07s6.555-5.659 12.417-7.244"/><path stroke="#85340A" stroke-miterlimit="3.84" stroke-width="1.06" d="m298.428 148.408-30.027 32.408s-.593.594-.215.998c.438.378 1.032-.216 1.032-.216l32.414-30.033m-14.649 5.578c-5.72 2.09-7.399 6.845-12.592 8.511-5.281 1.626-6.954 5.544-8.633 7.082-1.727 1.416-3.406.573-3.487 1.234-.054.722 1.996 1.275 4.66-.249 2.577-1.558 2.55-4 8.91-6.07s6.555-5.659 12.417-7.244"/><path fill="#85340A" d="M302.785 165.796c.324 5.827 3.629 8.417 2.982 13.793 1.423-4.209-2.01-7.514-1.815-13.726m-4.984-15.411 12.626 27.585-10.555-28.421"/><path fill="#85340A" d="M296.526 165.661c-1.929 5.51.129 9.166-2.529 13.88 2.927-3.345 1.019-7.709 3.582-13.374m1.288-16.147 1.106 30.317 1.126-30.296"/><path fill="#85340A" d="M290.8 163.138c-3.891 4.351-3.386 8.519-7.648 11.857 3.986-1.969 3.892-6.731 8.424-10.987m7.372-14.419-10.576 28.428 12.64-27.565"/><path fill="#85340A" d="M286.47 158.62c-5.261 2.529-6.387 6.569-11.6 8.026 4.431-.297 6.171-4.728 11.985-6.927m12.329-10.501-20.652 22.223 22.223-20.625"/><path fill="#F6B40E" d="m299.157 147.929-40.144 18.454s-.776.323-.58.843c.256.519 1.039.195 1.039.195l41.438-15.344m-15.667-.452c-6.084-.256-9.456 3.494-14.892 3.042-5.504-.519-8.546 2.462-10.684 3.238-2.138.647-3.365-.776-3.689-.196-.324.648 1.362 1.943 4.404 1.551 2.981-.452 3.885-2.718 10.555-2.198 6.671.519 8.222-2.718 14.245-1.943"/><path stroke="#85340A" stroke-miterlimit="3.84" stroke-width="1.06" d="m299.157 147.929-40.144 18.454s-.776.323-.58.843c.256.519 1.039.195 1.039.195l41.438-15.344m-15.667-.452c-6.084-.256-9.456 3.494-14.892 3.042-5.504-.519-8.546 2.462-10.684 3.238-2.138.647-3.365-.776-3.689-.196-.324.648 1.362 1.943 4.404 1.551 2.981-.452 3.885-2.718 10.555-2.198 6.671.519 8.222-2.718 14.245-1.943"/><path fill="#F6B40E" d="m300.013 147.761-44.15 1.686s-.843 0-.863.553c.04.58.884.573.884.573l44.156 1.68m-14.305-6.414c-5.524-2.57-10.07-.385-14.926-2.887-4.883-2.583-8.835-.998-11.108-1.1-2.219-.222-2.813-2.003-3.339-1.591-.546.472.513 2.313 3.474 3.123 2.927.721 4.627-1.026 10.596 2.003 5.962 3.028 8.639.634 13.9 3.655"/><path stroke="#85340A" stroke-miterlimit="3.84" stroke-width="1.06" d="m300.013 147.761-44.15 1.686s-.843 0-.863.553c.04.58.884.573.884.573l44.156 1.68m-14.305-6.414c-5.524-2.57-10.07-.385-14.926-2.887-4.883-2.583-8.835-.998-11.108-1.1-2.219-.222-2.813-2.003-3.339-1.591-.546.472.513 2.313 3.474 3.123 2.927.721 4.627-1.026 10.596 2.003 5.962 3.028 8.639.634 13.9 3.655"/><path fill="#F6B40E" d="m300.87 147.943-41.432-15.337s-.776-.324-1.005.182c-.182.546.593.87.593.87l40.151 18.453m-10.758-11.398c-4.121-4.485-9.159-4.216-12.679-8.377-3.528-4.256-7.784-4.303-9.841-5.268-1.969-1.052-1.834-2.927-2.475-2.745-.688.23-.411 2.334 2.017 4.216 2.428 1.787 4.667.823 9.017 5.908 4.35 5.079 7.736 3.892 11.446 8.701"/><path stroke="#85340A" stroke-miterlimit="3.84" stroke-width="1.06" d="m300.87 147.943-41.432-15.337s-.776-.324-1.005.182c-.182.546.593.87.593.87l40.151 18.453m-10.758-11.398c-4.121-4.485-9.159-4.216-12.679-8.377-3.528-4.256-7.784-4.303-9.841-5.268-1.969-1.052-1.834-2.927-2.475-2.745-.688.23-.411 2.334 2.017 4.216 2.428 1.787 4.667.823 9.017 5.908 4.35 5.079 7.736 3.892 11.446 8.701"/><path fill="#F6B40E" d="m301.592 148.428-32.408-30.026s-.594-.594-.998-.216c-.378.438.216 1.032.216 1.032l30.033 32.414m-5.577-14.649c-2.091-5.72-6.846-7.399-8.512-12.592-1.626-5.281-5.544-6.954-7.082-8.633-1.416-1.727-.573-3.406-1.234-3.487-.722-.054-1.275 1.996.249 4.66 1.558 2.577 4 2.55 6.07 8.91s5.659 6.556 7.244 12.417"/><path stroke="#85340A" stroke-miterlimit="3.84" stroke-width="1.06" d="m301.592 148.428-32.408-30.026s-.594-.594-.998-.216c-.378.438.216 1.032.216 1.032l30.033 32.414m-5.577-14.649c-2.091-5.72-6.846-7.399-8.512-12.592-1.626-5.281-5.544-6.954-7.082-8.633-1.416-1.727-.573-3.406-1.234-3.487-.722-.054-1.275 1.996.249 4.66 1.558 2.577 4 2.55 6.07 8.91s5.659 6.556 7.244 12.417"/><path fill="#85340A" d="M284.204 152.785c-5.827.324-8.417 3.629-13.793 2.982 4.209 1.423 7.514-2.01 13.726-1.815m15.411-4.984-27.585 12.626 28.421-10.555"/><path fill="#85340A" d="M284.339 146.527c-5.51-1.929-9.166.128-13.88-2.53 3.345 2.927 7.709 1.019 13.374 3.582m16.147 1.288-30.317 1.106 30.296 1.126"/><path fill="#85340A" d="M286.861 140.8c-4.35-3.891-8.518-3.385-11.857-7.648 1.97 3.986 6.732 3.892 10.987 8.424m14.42 7.372-28.428-10.576 27.565 12.64"/><path fill="#85340A" d="M291.38 136.47c-2.529-5.26-6.569-6.387-8.026-11.6.297 4.431 4.728 6.171 6.927 11.985m10.501 12.329-22.223-20.652 20.625 22.223"/><path fill="#F6B40E" d="m302.071 149.157-18.454-40.144s-.323-.776-.843-.58c-.519.256-.195 1.039-.195 1.039l15.344 41.438m.452-15.667c.256-6.084-3.494-9.456-3.042-14.892.519-5.504-2.462-8.546-3.238-10.684-.647-2.138.776-3.365.196-3.689-.648-.324-1.943 1.362-1.551 4.404.452 2.981 2.718 3.885 2.198 10.555-.519 6.671 2.718 8.222 1.943 14.245"/><path stroke="#85340A" stroke-miterlimit="3.84" stroke-width="1.06" d="m302.071 149.157-18.454-40.144s-.323-.776-.843-.58c-.519.256-.195 1.039-.195 1.039l15.344 41.438m.452-15.667c.256-6.084-3.494-9.456-3.042-14.892.519-5.504-2.462-8.546-3.238-10.684-.647-2.138.776-3.365.196-3.689-.648-.324-1.943 1.362-1.551 4.404.452 2.981 2.718 3.885 2.198 10.555-.519 6.671 2.718 8.222 1.943 14.245"/><path fill="#F6B40E" d="m302.239 150.013-1.686-44.15s0-.843-.553-.863c-.58.04-.573.884-.573.884l-1.68 44.156m6.414-14.305c2.57-5.524.385-10.07 2.887-14.926 2.583-4.883.998-8.835 1.099-11.108.223-2.219 2.004-2.813 1.592-3.339-.472-.546-2.313.513-3.123 3.474-.721 2.927 1.026 4.627-2.003 10.596-3.028 5.962-.634 8.639-3.655 13.9"/><path stroke="#85340A" stroke-miterlimit="3.84" stroke-width="1.06" d="m302.239 150.013-1.686-44.15s0-.843-.553-.863c-.58.04-.573.884-.573.884l-1.68 44.156m6.414-14.305c2.57-5.524.385-10.07 2.887-14.926 2.583-4.883.998-8.835 1.099-11.108.223-2.219 2.004-2.813 1.592-3.339-.472-.546-2.313.513-3.123 3.474-.721 2.927 1.026 4.627-2.003 10.596-3.028 5.962-.634 8.639-3.655 13.9"/><path fill="#F6B40E" d="m302.057 150.87 15.337-41.432s.324-.776-.182-1.005c-.546-.182-.87.593-.87.593l-18.453 40.151m11.398-10.758c4.485-4.121 4.216-9.159 8.377-12.679 4.256-3.528 4.303-7.784 5.268-9.841 1.052-1.969 2.927-1.834 2.745-2.475-.23-.688-2.334-.412-4.216 2.017-1.787 2.428-.823 4.667-5.908 9.017-5.079 4.35-3.892 7.736-8.701 11.446"/><path stroke="#85340A" stroke-miterlimit="3.84" stroke-width="1.06" d="m302.057 150.87 15.337-41.432s.324-.776-.182-1.005c-.546-.182-.87.593-.87.593l-18.453 40.151m11.398-10.758c4.485-4.121 4.216-9.159 8.377-12.679 4.256-3.528 4.303-7.784 5.268-9.841 1.052-1.969 2.927-1.834 2.745-2.475-.23-.688-2.334-.412-4.216 2.017-1.787 2.428-.823 4.667-5.908 9.017-5.079 4.35-3.892 7.736-8.701 11.446"/><path fill="#F6B40E" d="m301.571 151.592 30.027-32.408s.594-.594.216-.998c-.438-.378-1.032.216-1.032.216l-32.414 30.033m14.649-5.578c5.719-2.09 7.399-6.845 12.592-8.511 5.281-1.626 6.954-5.544 8.633-7.082 1.727-1.416 3.406-.573 3.487-1.234.054-.722-1.996-1.275-4.66.249-2.577 1.558-2.55 4-8.91 6.07s-6.556 5.659-12.417 7.244"/><path stroke="#85340A" stroke-miterlimit="3.84" stroke-width="1.06" d="m301.571 151.592 30.027-32.408s.594-.594.216-.998c-.438-.378-1.032.216-1.032.216l-32.414 30.033m14.649-5.578c5.719-2.09 7.399-6.845 12.592-8.511 5.281-1.626 6.954-5.544 8.633-7.082 1.727-1.416 3.406-.573 3.487-1.234.054-.722-1.996-1.275-4.66.249-2.577 1.558-2.55 4-8.91 6.07s-6.556 5.659-12.417 7.244"/><path fill="#85340A" d="M297.214 134.204c-.323-5.827-3.628-8.417-2.981-13.793-1.423 4.209 2.01 7.514 1.815 13.726m4.984 15.411-12.626-27.585 10.555 28.421"/><path fill="#85340A" d="M303.473 134.339c1.929-5.51-.128-9.166 2.53-13.88-2.928 3.345-1.019 7.709-3.582 13.374m-1.288 16.147-1.106-30.317-1.126 30.296"/><path fill="#85340A" d="M309.2 136.862c3.891-4.351 3.385-8.519 7.648-11.857-3.986 1.969-3.892 6.731-8.424 10.987m-7.372 14.419 10.576-28.428-12.64 27.565"/><path fill="#85340A" d="M313.53 141.38c5.26-2.529 6.387-6.569 11.6-8.026-4.431.297-6.171 4.728-11.985 6.927m-12.329 10.501 20.652-22.223-22.223 20.625"/><path fill="#F6B40E" d="m300.843 152.071 40.144-18.454s.776-.323.58-.843c-.256-.519-1.039-.195-1.039-.195l-41.439 15.344m15.668.452c6.084.256 9.456-3.494 14.892-3.042 5.504.519 8.546-2.462 10.684-3.238 2.138-.647 3.365.776 3.689.196.324-.648-1.362-1.943-4.404-1.551-2.981.452-3.885 2.718-10.556 2.198-6.67-.519-8.221 2.718-14.244 1.943"/><path stroke="#85340A" stroke-miterlimit="3.84" stroke-width="1.06" d="m300.843 152.071 40.144-18.454s.776-.323.58-.843c-.256-.519-1.039-.195-1.039-.195l-41.439 15.344m15.668.452c6.084.256 9.456-3.494 14.892-3.042 5.504.519 8.546-2.462 10.684-3.238 2.138-.647 3.365.776 3.689.196.324-.648-1.362-1.943-4.404-1.551-2.981.452-3.885 2.718-10.556 2.198-6.67-.519-8.221 2.718-14.244 1.943"/><path fill="#F6B40E" d="m299.987 152.239 44.15-1.686s.843 0 .863-.553c-.04-.58-.883-.573-.883-.573l-44.157-1.68m14.305 6.414c5.524 2.57 10.07.385 14.926 2.887 4.883 2.583 8.835.998 11.108 1.099 2.219.223 2.813 2.004 3.339 1.592.546-.472-.513-2.313-3.474-3.123-2.927-.721-4.627 1.026-10.595-2.003-5.963-3.028-8.64-.634-13.901-3.655"/><path stroke="#85340A" stroke-miterlimit="3.84" stroke-width="1.06" d="m299.987 152.239 44.15-1.686s.843 0 .863-.553c-.04-.58-.883-.573-.883-.573l-44.157-1.68m14.305 6.414c5.524 2.57 10.07.385 14.926 2.887 4.883 2.583 8.835.998 11.108 1.099 2.219.223 2.813 2.004 3.339 1.592.546-.472-.513-2.313-3.474-3.123-2.927-.721-4.627 1.026-10.595-2.003-5.963-3.028-8.64-.634-13.901-3.655"/><path fill="#F6B40E" d="m299.13 152.057 41.432 15.337s.776.324 1.005-.182c.182-.546-.593-.87-.593-.87l-40.151-18.453m10.758 11.398c4.12 4.486 9.159 4.216 12.679 8.377 3.528 4.256 7.784 4.303 9.841 5.268 1.969 1.052 1.834 2.927 2.475 2.745.688-.23.411-2.334-2.017-4.216-2.428-1.787-4.667-.822-9.017-5.908-4.35-5.079-7.736-3.892-11.446-8.7"/><path stroke="#85340A" stroke-miterlimit="3.84" stroke-width="1.06" d="m299.13 152.057 41.432 15.337s.776.324 1.005-.182c.182-.546-.593-.87-.593-.87l-40.151-18.453m10.758 11.398c4.12 4.486 9.159 4.216 12.679 8.377 3.528 4.256 7.784 4.303 9.841 5.268 1.969 1.052 1.834 2.927 2.475 2.745.688-.23.411-2.334-2.017-4.216-2.428-1.787-4.667-.822-9.017-5.908-4.35-5.079-7.736-3.892-11.446-8.7"/><path fill="#F6B40E" d="m298.408 151.571 32.408 30.027s.594.594.998.216c.378-.438-.216-1.032-.216-1.032l-30.033-32.414m5.578 14.649c2.09 5.719 6.845 7.399 8.511 12.592 1.626 5.281 5.544 6.954 7.082 8.633 1.416 1.727.573 3.406 1.234 3.487.722.054 1.275-1.996-.249-4.66-1.558-2.577-4-2.55-6.07-8.91s-5.659-6.556-7.244-12.417"/><path stroke="#85340A" stroke-miterlimit="3.84" stroke-width="1.06" d="m298.408 151.571 32.408 30.027s.594.594.998.216c.378-.438-.216-1.032-.216-1.032l-30.033-32.414m5.578 14.649c2.09 5.719 6.845 7.399 8.511 12.592 1.626 5.281 5.544 6.954 7.082 8.633 1.416 1.727.573 3.406 1.234 3.487.722.054 1.275-1.996-.249-4.66-1.558-2.577-4-2.55-6.07-8.91s-5.659-6.556-7.244-12.417"/><path fill="#85340A" d="M315.796 147.214c5.827-.323 8.417-3.628 13.793-2.981-4.209-1.423-7.514 2.01-13.726 1.815m-15.411 4.984 27.585-12.626-28.421 10.555"/><path fill="#85340A" d="M315.661 153.473c5.51 1.929 9.166-.128 13.88 2.53-3.345-2.928-7.709-1.019-13.374-3.582m-16.147-1.288 30.317-1.106-30.297-1.127"/><path fill="#85340A" d="M313.139 159.2c4.35 3.891 8.518 3.385 11.857 7.648-1.97-3.986-6.732-3.892-10.987-8.424m-14.42-7.372 28.428 10.576-27.565-12.64"/><path fill="#85340A" d="M308.62 163.53c2.529 5.261 6.569 6.387 8.026 11.6-.297-4.431-4.728-6.171-6.927-11.985m-10.501-12.329 22.223 20.652-20.625-22.223"/><path fill="#F6B40E" stroke="#85340A" stroke-width="1.4" d="M300 168.008c9.946 0 18.008-8.062 18.008-18.008s-8.062-18.008-18.008-18.008-18.008 8.062-18.008 18.008 8.062 18.008 18.008 18.008Z"/><path fill="#843511" d="M306.07 146.156c-1.147 0-2.361.539-3.035 1.618 1.349 1.282 4.451 1.349 6.542-.135a4.7 4.7 0 0 0-3.44-1.483zm0 .269c1.214 0 2.361.54 2.495 1.079-1.348 1.552-3.574 1.349-4.991.27.675-.944 1.619-1.349 2.563-1.349z"/><path fill="#85340A" d="M306.34 145.279c-1.821 0-2.226.404-3.035 1.146-.81.675-1.282.54-1.349.675-.203.135 0 .539.202.404.337-.135.877-.404 1.686-1.079.81-.674 1.686-.674 2.496-.674 2.495 0 3.844 2.023 4.114 1.888.337-.135-1.349-2.36-4.114-2.36"/><path fill="#85340A" d="M311.331 146.156c-3.17-2.766-7.217-3.238-9.443-1.147a5.4 5.4 0 0 0-1.011 2.293q-.405 2.428 1.416 5.059l-.539.269c-1.08-2.09-1.484-4.249-1.08-6.34l.405-1.551c3.035-2.495 7.217-2.698 10.252 1.349z"/><path fill="#85340A" d="M306.07 148.719a1.214 1.214 0 1 0 0-2.428 1.214 1.214 0 0 0 0 2.428"/><path fill="#85340A" d="M309.645 148.314c-2.361 1.821-4.721 1.686-6.07.876-1.349-.876-1.349-1.146-1.08-1.146.27 0 .54.27 1.619.877 1.147.539 2.765.539 5.531-.607M297.302 152.495a1.217 1.217 0 1 0 1.214 1.963c.445.277.958.418 1.484.405h.135c.405 0 1.079-.068 1.551-.405.203.337.607.472 1.012.472a1.22 1.22 0 0 0 1.315-1.113 1.22 1.22 0 0 0-1.113-1.315c.337.135.54.405.54.81a.81.81 0 0 1-.81.809.81.81 0 0 1-.809-.809 2.01 2.01 0 0 1-1.754 1.146 2.01 2.01 0 0 1-1.686-1.146c0 .472-.404.809-.876.809-.405 0-.81-.405-.81-.809 0-.405.202-.675.54-.81h.067zm1.349 3.643c-1.416 0-2.023 1.348-3.237 2.09.674-.269 1.214-.809 2.225-1.349.945-.539 1.754.135 2.361.135.54 0 1.349-.674 2.361-.135.944.54 1.551 1.08 2.225 1.349-1.281-.809-1.821-2.023-3.237-2.023-.27 0-.809.135-1.349.405z"/><path fill="#85340A" d="M298.112 157.824c-.54 0-1.215.135-2.294.404 2.496-.539 3.035.338 4.182.338 1.079 0 1.686-.877 4.114-.338-2.698-.809-3.305-.269-4.114-.269-.54 0-.944-.203-1.888-.135"/><path fill="#85340A" d="M295.953 158.228h-.539c2.9.338 1.551 2.024 4.586 2.024s1.686-1.686 4.586-2.024c-3.035-.269-2.09 1.552-4.586 1.552-2.361 0-1.619-1.552-4.047-1.552M302.495 162.747a2.5 2.5 0 0 0-2.495-2.495 2.503 2.503 0 0 0-2.496 2.495 2.565 2.565 0 0 1 4.991 0M288.804 146.156c3.17-2.766 7.217-3.238 9.442-1.147a5.4 5.4 0 0 1 1.012 2.293q.405 2.428-1.416 5.059l.539.269c1.079-2.09 1.484-4.249 1.079-6.34l-.404-1.551c-3.035-2.495-7.217-2.698-10.252 1.349z"/><path fill="#85340A" d="M293.795 145.279c1.821 0 2.226.404 3.035 1.146.81.675 1.282.54 1.349.675.202.135 0 .539-.202.404-.337-.135-.877-.404-1.686-1.079-.81-.674-1.687-.674-2.496-.674-2.495 0-3.844 2.023-4.114 1.888-.337-.135 1.349-2.36 4.114-2.36"/><path fill="#843511" d="M293.66 146.156c-1.147 0-2.361.539-3.035 1.618 1.349 1.282 4.451 1.349 6.542-.135a4.7 4.7 0 0 0-3.44-1.483zm0 .269c1.214 0 2.361.54 2.495 1.079-1.348 1.552-3.574 1.349-4.991.27.675-.944 1.619-1.349 2.563-1.349z"/><path fill="#85340A" d="M293.862 148.719a1.214 1.214 0 1 0 0-2.428 1.214 1.214 0 0 0 0 2.428"/><path fill="#85340A" d="M290.49 148.314c2.361 1.821 4.721 1.686 6.07.876 1.349-.876 1.349-1.146 1.079-1.146s-.539.27-1.618.877c-1.147.539-2.766.539-5.531-.607"/></g><defs><clipPath id="a"><path fill="#fff" d="M0 0h600v300H0z"/></clipPath></defs></svg>