<svg xmlns="http://www.w3.org/2000/svg" width="600" height="300" fill="none"><g clip-path="url(#a)"><path fill="#fff" d="M0 0h600v300H0z"/><path fill="#012169" d="M0 0h600v300H0z"/><path fill="#fff" d="m137 178 10.63 27.926 28.462-9.1-15.206 25.722 24.86 16.578-29.591 4.149 2.539 29.773L137 252.5l-21.694 20.548 2.539-29.773-29.591-4.149 24.86-16.578-15.206-25.722 28.462 9.1zM451 27l4.89 12.846 13.092-4.186-6.995 11.832 11.436 7.626-13.612 1.909 1.168 13.695L451 61.27l-9.979 9.452 1.168-13.695-13.612-1.909 11.436-7.626-6.995-11.832 13.092 4.186zM531.423 75l4.89 12.846 13.092-4.186-6.994 11.832 11.436 7.626-13.612 1.909 1.168 13.695-9.98-9.452-9.979 9.452 1.168-13.695L509 103.118l11.436-7.626-6.995-11.832 13.092 4.186zM369.423 106l4.89 12.846 13.092-4.186-6.994 11.832 11.436 7.626-13.612 1.909 1.168 13.695-9.98-9.452-9.979 9.452 1.168-13.695L347 134.118l11.436-7.626-6.995-11.832 13.092 4.186zM457.423 223l4.89 12.846 13.092-4.186-6.994 11.832 11.436 7.626-13.612 1.909 1.168 13.695-9.98-9.452-9.979 9.452 1.168-13.695L435 251.118l11.436-7.626-6.995-11.832 13.092 4.186zM497.5 150l3.312 6.941 7.625 1.005-5.578 5.295 1.401 7.563-6.76-3.669-6.76 3.669 1.401-7.563-5.578-5.295 7.625-1.005z"/><g clip-path="url(#b)"><path fill="#fff" d="M0 0h300v150H0z"/><path fill="#012169" d="M0 0v150h300V0z"/><path fill="#000" d="m0 0 300 150Zm300 0L0 150Z"/><path stroke="#fff" stroke-width="30" d="m0 0 300 150m0-150L0 150"/><mask id="c" width="300" height="150" x="0" y="0" maskUnits="userSpaceOnUse" style="mask-type:luminance"><path fill="#fff" d="M150 75h150v75zm0 0v75H0zm0 0H0V0zm0 0V0h150z"/></mask><g mask="url(#c)"><path fill="#000" d="m0 0 300 150Zm300 0L0 150Z"/><path stroke="#C8102E" stroke-width="20" d="m0 0 300 150m0-150L0 150"/></g><path fill="#000" d="M150 0v150ZM0 75h300Z"/><path stroke="#fff" stroke-width="50" d="M150 0v150M0 75h300"/><path fill="#000" d="M150 0v150ZM0 75h300Z"/><path stroke="#C8102E" stroke-width="30" d="M150 0v150M0 75h300"/></g></g><defs><clipPath id="a"><path fill="#fff" d="M0 0h600v300H0z"/></clipPath><clipPath id="b"><path fill="#fff" d="M0 0h300v150H0z"/></clipPath></defs></svg>