<svg xmlns="http://www.w3.org/2000/svg" width="600" height="300" fill="none"><g clip-path="url(#a)"><path fill="#3F9C35" d="M0 0h600v300H0z"/><path fill="#ED2939" d="M0 0h600v200H0z"/><path fill="#00B9E4" d="M0 0h600v100H0z"/><path fill="#fff" d="M285.625 193.5c24.646 0 44.625-19.588 44.625-43.75S310.271 106 285.625 106 241 125.588 241 149.75s19.979 43.75 44.625 43.75"/><path fill="#ED2939" d="M295.542 186.208c20.538 0 37.187-16.323 37.187-36.458s-16.649-36.458-37.187-36.458-37.188 16.323-37.188 36.458 16.65 36.458 37.188 36.458"/><path fill="#fff" d="m335.208 125.444 4.773 13.065 12.767-5.955-6.074 12.578L360 149.75l-13.326 4.679 6.074 12.517-12.767-5.955-4.773 13.065-4.772-13.065-12.768 5.955 6.074-12.517-13.325-4.679 13.325-4.679-6.074-12.517 12.768 5.955z"/></g><defs><clipPath id="a"><path fill="#fff" d="M0 0h600v300H0z"/></clipPath></defs></svg>