<svg xmlns="http://www.w3.org/2000/svg" width="600" height="300" fill="none"><g clip-path="url(#a)"><path fill="#B20000" d="M0 0h600v300H0z"/><path fill="#429F00" d="M0 194h600v106H0z"/><path fill="#fff" d="M0 0h72v300H0z"/><path fill="#B20000" fill-rule="evenodd" d="M3.426 5.1H6.85v5.1H3.426zm10.284 0h10.283v5.1H13.71zM17.142 0h3.426v5.1h-3.426zm17.142 0h3.426v5.1h-3.426zm13.71 5.1h10.283v5.1H47.993zM51.418 0h3.426v5.1h-3.426zM10.284 10.194h6.858v5.037h-6.858zm10.284 0h6.858v5.037h-6.858zm23.993 0h6.858v5.037h-6.858zm10.284 0h6.858v5.037h-6.858zM6.858 15.238h6.858v5.1H6.858zm17.142 0h6.858v5.1H24zm17.142 0H48v5.1h-6.858zm17.142 0h6.858v5.1h-6.858zM65.142 5.1h3.426v5.1h-3.426zM3.426 20.331h6.858v5.1H3.426zm23.993 0h6.858v5.1H27.42zm34.277 0h6.858v5.1h-6.858zM6.858 35.57h6.858v5.1H6.858zm3.426 5.1h6.858v5.1h-6.858zm13.71-5.038h6.857v5.038h-6.858zm-3.426 5.038h6.858v5.1h-6.858zm-6.858 5.1h10.283v5.1H13.71z" clip-rule="evenodd"/><path fill="#B20000" fill-rule="evenodd" d="M17.142 50.863h3.426v5.1h-3.426zm23.993-15.238h6.858v5.038h-6.858zm3.426 5.038h6.858v5.1H44.56zm13.71-5.038h6.857v5.038H58.27zm-3.426 5.038h6.858v5.1h-6.858zm-6.858 5.1H58.27v5.1H47.986zm3.425 5.1h3.426v5.1h-3.426zM34.27 45.706h3.426v5.1H34.27zM0 45.7h3.426v5.1H0zm68.554 0h3.426v5.1h-3.426zM17.142 71.131h3.426v5.1h-3.426zm-3.426 5.156H24v5.038H13.716zm-3.425 5.038h17.141v5.1H10.284v-5.1zm41.135-10.138h3.425v5.1h-3.425zM48 76.288h10.284v5.038H48zm-3.426 5.038h17.142v5.1H44.574zM48 106.756h17.142v5.1H48zm-6.858-20.331h23.993v5.1h-24v-5.1zm-34.277 0H30.85v5.1H6.858v-5.1zm3.426 25.431h10.283v5.1h-10.29v-5.1zm-3.426-5.1h17.142v5.1H6.858v-5.1zM54.85 96.675h17.142v5.1H54.851zm-3.425 15.237h10.283v5.1H51.426z" clip-rule="evenodd"/><path fill="#B20000" fill-rule="evenodd" d="M13.71 116.956h3.425v5.1H13.71zm41.135 0h3.425v5.1h-3.425zM0 96.619h17.142v5.1H0zm30.851 10.137h10.284v5.1H30.851zm3.426 5.157h3.426v5.1h-3.426zM23.993 96.675h23.994v5.1H23.993zm13.71-76.344h6.858v5.1h-6.858zm-6.858 5.1h10.283v5.1H30.845zm-3.426 5.1h6.858v5.038h-6.858zm10.284 0h6.858v5.038h-6.858zM0 25.431h6.858v5.1H0zm3.426 5.1h6.858v5.038H3.426zm61.696-5.1h6.858v5.038h-6.858zm-3.426 5.038h6.858v5.037h-6.858zM0 76.175h3.426v5.1H0zm68.554 0h3.426v5.1h-3.426zM30.851 116.9h10.284v5.1H30.851zm-3.425 5.1h6.858v5.038h-6.858zm10.283 0h6.859v5.038h-6.859zM24 127.038h6.858v5.1H24zm17.142 0H48v5.1h-6.858zm-20.568 5.1h6.858v5.1h-6.858zm23.994 0h6.858v5.1h-6.858zm-27.42 5.156h6.859v5.1h-6.858zm30.852 0h6.858v5.1H48zm-37.703 5.1h10.284v5.1H10.284v-5.1zm41.135 0h10.284v5.1H51.432zm6.859-5.1h6.858v5.1H58.29zm3.425-5.1h6.858v5.1h-6.858zm3.426-5.1H72v5.1h-6.858zM6.858 137.288h6.858v5.1H6.858zm-3.426-5.1h6.852v5.1H3.426v-5.1zM0 127.15h6.858v5.1H0zm13.71 20.394h3.425v5.037H13.71zm41.135 0h3.425v5.037h-3.425zm-20.568-15.238h3.426v5.038h-3.426zm-10.284 15.238h3.426v5.037h-3.426zm20.568 0h3.425v5.037h-3.425zm-10.284 0h3.426v5.037h-3.426zm-34.277 0h3.426v5.037H0zm68.554 0h3.426v5.037h-3.426zM34.277 76.287h3.426v5.038h-3.426zM17.142 25.431h3.426v5.1h-3.426zm34.277 0h3.426v5.1h-3.426zM30.85 61h10.284v5.1H30.851zm-6.858 5.1h10.284v5.1H23.993zm3.426 5.1h3.426v5.1h-3.426zM20.56 61.006h6.858v5.1H20.56zm3.425-5.037H34.27v5.037H23.986zm3.426-5.1h3.426v5.1h-3.426zm10.284 5.1H47.98v5.037H37.696zm3.426-5.1h3.425v5.1h-3.425zm3.425 10.137h6.858v5.1h-6.858zm-6.858 5.1h10.284v5.1H37.689zm3.426 5.1h3.425v5.1h-3.425zm13.71-10.193h6.857v5.1h-6.858zm3.425-5.038h10.284v5.038H58.25zm6.858 5.038h6.858v5.1h-6.858zm-6.858 5.1h10.284v5.1H58.25zm3.426 5.1H65.1v5.1h-3.425zm0-20.332H65.1v5.1h-3.425zM0 60.938h6.858v5.1H0zM3.426 55.9h10.283v5.038H3.426zm6.858 5.038h6.858v5.1h-6.858zm-6.858 5.1h10.283v5.1H3.426z" clip-rule="evenodd"/><path fill="#B20000" fill-rule="evenodd" d="M6.858 71.194h3.426v5.1H6.858zm0-20.332h3.426v5.1H6.858zM3.432 91.526h13.71v5.1H3.426v-5.1zm17.142 0h13.71v5.1H20.568v-5.1zm17.142 0h13.71v5.1h-13.71zm17.142 0h13.71v5.1h-13.71zM27.44 101.72h17.142v5.037H27.44zm-23.993 0h17.122v5.037H3.426v-5.037zm47.986 0h17.142v5.037H51.432zm17.142 20.331H72v5.038h-3.426zM0 122.05h3.426v5.038H0zM3.426 294.9H6.85v-5.037H3.426zm10.283 0h10.284v-5.037H13.71zm3.426 5.1h3.426v-5.1h-3.426zm17.142 0h3.426v-5.1h-3.426zm13.71-5.1H58.27v-5.1H47.986zm3.425 5.1h3.426v-5.1h-3.426zm-41.135-10.194h6.858v-5.037h-6.851v5.037zm10.284 0h6.858v-5.037H20.56zm23.993 0h6.858v-5.037h-6.858zm10.284 0h6.858v-5.037h-6.858zm-30.851-5.037h6.858v-5.1h-6.858zm17.141 0h6.858v-5.1h-6.858zm17.142 0h6.858v-5.1H58.27zm6.858 10.137h3.426v-5.1h-3.426zM3.426 279.669h6.858v-5.1H3.426zm23.993 0h6.858v-5.1h-6.858zm34.277 0h6.858v-5.1h-6.858zM6.85 264.431h6.858v-5.1H6.86v5.1zm3.426-5.1h6.858v-5.1h-6.851v5.1zm13.71 5.1h6.858v-5.1h-6.858zm-3.426-5.1h6.858v-5.1H20.56zm-6.858-5.1h10.284v-5.1H13.702zm3.425-5.1h3.426v-5.037h-3.426zm23.994 15.238h6.858v-5.038h-6.858zm3.425-5.038h6.858v-5.1h-6.858zm13.71 5.1h6.858v-5.1h-6.858zm-3.426-5.1h6.858v-5.1h-6.858zm-6.858-5.1h10.284v-5.1H47.973zm3.426-5.1h3.425v-5.037H51.4zm-17.142 5.157h3.425v-5.1h-3.425zM0 254.3h3.426v-5.1H0zm68.554 0h3.426v-5.1h-3.426zm-51.419-25.431h3.426v-5.1h-3.426zm-3.426-5.156h10.284v-5.038H13.71zm-3.425-5.038h17.142v-5.1H10.284zm41.135 10.138h3.426v-5.1h-3.426z" clip-rule="evenodd"/><path fill="#B20000" fill-rule="evenodd" d="M47.987 223.713H58.27v-5.038H47.986zm-3.426-5.038h17.142v-5.1H44.56zm3.425-25.431h17.142v-5.156H47.987zm-6.858 20.331h23.994v-5.1H41.135v5.1zm-34.277 0h24v-5.1H6.858v5.1zm3.426-25.431h10.284v-5.1H10.284v5.1zm-3.426 5.1h17.142v-5.156H6.858v5.156zm47.987 10.075H71.98v-5.1H54.838zm-3.426-15.238h10.284v-5.1H51.412zM0 203.319h17.142v-5.1H0zm30.851-10.138h10.284v-5.1H30.851zm3.426-5.1h3.426v-5.1h-3.426zm-10.284 15.238h23.994v-5.1H23.993zm13.71 76.287h6.858v-5.1h-6.858zm-6.858-5.1h10.283v-4.981H30.845zm-3.426-5.1h6.858v-5.1h-6.858zm10.284 0h6.858v-5.1h-6.858zM0 274.569h6.858v-5.038H0zm3.426-5.1h6.858v-5.038H3.426zm61.696 5.1h6.858v-5.038h-6.858zm-3.426-5.1h6.858v-5.038h-6.858zM0 223.825h3.426v-5.1H0zm68.554 0h3.426v-5.1h-3.426zm-41.135-45.819h6.858v-5.037h-6.858zm10.284 0h6.858v-5.037h-6.858zm-13.71-5.037h6.858v-5.1h-6.858zm17.142 0h6.858v-5.1h-6.858zm-20.567-5.1h6.858v-5.1h-6.858zm23.993 0h6.858v-5.1H44.56zm-27.42-5.156H24v-5.1h-6.858zm30.852 0h6.858v-5.1h-6.858zm-37.702-5.1h10.283v-5.1h-10.29v5.1zm41.135 0h10.283v-5.1H51.426zm6.858 5.1h6.858v-5.1h-6.858zm3.425 5.1h6.859v-5.1h-6.859zm3.426 5.1h6.858v-5.1h-6.858zm-58.27-10.194h6.858v-5.1H6.858v5.1zm-3.426 5.1h6.845v-5.1H3.426v5.1zM0 172.85h6.858v-5.1H0zm13.71-20.387h3.425v-5.038H13.71zM34.276 167.7h3.426v-5.037h-3.426zm0 55.956h3.426v-5.037h-3.426zm-17.142 50.857h3.426v-4.982h-3.426zm34.277 0h3.426v-4.982h-3.426zm-20.567-35.45h10.283v-5.1H30.845zm-6.858-5.1H34.27v-5.1H23.986zm3.425-5.1h3.426v-5.1h-3.426zm-6.858 10.193h6.858v-5.1h-6.858zm3.426 4.982h10.284v-4.982H23.98zm3.425 5.1h3.426V244.1h-3.426zm10.284-5.1h10.284v-4.982H37.689zm3.426 5.1h3.425V244.1h-3.425zM44.54 239H51.4v-5.1H44.54zm-6.858-5.1h10.284v-5.1H37.682zm3.426-5.1h3.426v-5.1h-3.426zm13.71 10.256h6.858v-5.1h-6.858zm3.425 4.982h10.284v-4.982H58.243zM65.101 239h6.858v-5.1h-6.858zm-6.858-5.1h10.284v-5.1H58.243zm3.426-5.1h3.425v-5.1H61.67zm0 20.331h3.425v-5.037H61.67zM0 239.063h6.858v-5.1H0zm3.426 4.981h10.283v-4.981H3.426z" clip-rule="evenodd"/><path fill="#B20000" fill-rule="evenodd" d="M10.284 239.006h6.858v-5.1h-6.858zm-6.858-5.1h10.283v-5.1H3.426zm3.425-5.1h3.426v-5.1H6.851zm0 20.331h3.426V244.1H6.851zm-3.425-40.662h13.716v-5.1H3.426zm17.142 0h13.709v-5.1h-13.71zm17.141 0h13.71v-5.1h-13.71zm17.142 0h13.71v-5.1H54.85zm-27.419-10.194h17.142v-5.037H27.432zm-23.993 0h17.129v-5.037H3.426v5.037zm47.987 0h17.142v-5.037H51.426zm17.142-20.275h3.425v-5.156h-3.425zm-68.568 0h3.426v-5.156H0zm30.851-25.487h3.426v5.1h-3.426zm6.858 0h3.426v5.1H37.71zm0-10.138h3.426v5.1H37.71zm-6.858 0h3.426v5.1h-3.426zM6.858 279.669h6.858v5.1H6.858zm47.987-96.619h3.425v-5.1h-3.425zm-41.136 0h3.426v-5.1H13.71zm17.142-5.1h10.284v5.1H30.851z" clip-rule="evenodd"/></g><defs><clipPath id="a"><path fill="#fff" d="M0 0h600v300H0z"/></clipPath></defs></svg>