<svg xmlns="http://www.w3.org/2000/svg" width="600" height="300" fill="none"><path fill="#CE1126" d="M0 0h600v300H0z"/><path fill="#003F87" d="M0 22h600v256H0z"/><path fill="#fff" d="M301 266c64.065 0 116-51.935 116-116S365.065 34 301 34 185 85.935 185 150s51.935 116 116 116"/><path stroke="#552300" stroke-width="3.9" d="M301.001 245.519c53.093 0 96.133-43.041 96.133-96.134s-43.04-96.134-96.133-96.134-96.134 43.04-96.134 96.134 43.041 96.134 96.134 96.134Z"/><path fill="#007F00" d="M289.929 47.408c8.611-9.349 16.545 1.415 16.299 6.52-.184 5.043-8.918 16.114-16.914 7.196 8.242 2.091 10.702-7.073 14.823-7.196-4.121.123-5.843-8.98-14.269-6.52zM199.393 120.6c-4.552-11.932 8.61-14.146 13.1-11.686 4.49 2.399 10.641 15.131-.984 18.206 5.536-6.397-1.66-12.609.123-16.361-1.783 3.691-10.763 1.23-12.239 9.841m195.035-11.809c11.932 4.675 4.674 15.869-.123 17.468-4.859 1.66-18.452-2.461-12.917-13.04.985 8.365 10.456 7.381 12.117 11.133-1.599-3.813 6.335-8.611.923-15.561M238.756 234.509c-12.731-1.23-8.795-13.962-4.613-16.853 4.183-2.89 18.452-2.644 15.992 9.042-3.26-7.75-12.117-4.183-14.761-7.381 2.644 3.198-3.691 10.026 3.382 15.192m128.732-9.226c.185 12.732-12.978 10.333-16.36 6.52-3.322-3.814-4.736-17.837 7.257-16.791-7.38 4.059-2.829 12.424-5.781 15.376 2.952-2.952 10.517 2.46 14.884-5.043zM208.742 96.49c-1.169-12.67 12.178-11.256 15.807-7.75 3.69 3.568 6.15 17.468-5.905 17.345 7.073-4.675 1.845-12.609 4.551-15.746-2.706 3.076-10.64-1.722-14.453 6.15m13.654 118.706c-12.609-2.153-7.811-14.577-3.444-17.16 4.305-2.583 18.513-1.415 15.376 10.087-2.768-7.996-11.871-4.92-14.208-8.365 2.337 3.383-4.428 9.841 2.276 15.377zM322.097 47.9c11.44-5.658 14.946 7.197 12.916 11.87-1.968 4.614-14.146 11.933-18.329.8 6.889 4.86 12.486-2.89 16.422-1.476-3.936-1.414-2.275-10.456-11.009-11.194m24.418 193.313c-5.72 11.379-16.299 3.26-17.53-1.661-1.23-4.92 3.998-18.021 14.147-11.686-8.488.308-8.242 9.841-12.178 11.071 3.936-1.23 8.18 7.012 15.561 2.276m55.662-109.911c9.595 8.427-1.045 16.484-6.15 16.422-5.044-.061-16.484-8.488-7.688-16.606-1.846 8.241 7.38 10.456 7.626 14.515-.184-4.121 8.919-6.028 6.151-14.331zm-161.76-66.918c2.891-12.301 15.069-6.889 17.468-2.399 2.337 4.49.307 18.452-11.071 14.639 8.18-2.276 5.72-11.44 9.226-13.532-3.506 2.091-9.534-4.92-15.623 1.292M202.529 170.48c-11.194-6.15-2.583-16.299 2.461-17.283 4.92-1.045 17.959 4.736 11.071 14.577.123-8.426-9.472-8.611-10.579-12.609 1.107 3.998-7.381 7.812-2.953 15.377zm162.13-98.163c12.67-1.845 11.932 11.502 8.611 15.254-3.383 3.813-17.222 7.011-17.776-4.92 5.044 6.765 12.794 1.168 16.115 3.69-3.321-2.522 1.169-10.641-6.95-14.024m-72.085 181.073c-11.686 5.167-14.638-7.811-12.486-12.301 2.215-4.613 14.7-11.44 18.452-.061-6.766-5.167-12.609 2.337-16.483.799 3.874 1.538 1.845 10.579 10.517 11.563m104.867-70.793c5.29 11.563-7.749 14.577-12.362 12.424-4.613-2.152-11.563-14.515-.123-18.267-5.167 6.704 2.46 12.486.861 16.361 1.537-3.875 10.64-1.846 11.686-10.518zm-199.955-37.272c-7.381-10.456 4.92-15.807 9.841-14.516 4.92 1.23 14.023 12.178 3.506 17.96 3.813-7.565-4.675-11.871-3.875-15.93-.8 4.059-10.149 3.752-9.472 12.424zm69.071 100.377c-12.055 4.367-14.146-8.734-11.625-13.162 2.461-4.429 15.377-10.395 18.391 1.23-6.335-5.597-12.732 1.476-16.484-.308 3.69 1.784 1.107 10.641 9.718 12.24m-3.506-193.128c7.135-10.58 16.607-1.23 17.222 3.875.553 4.982-6.335 17.344-15.623 9.718 8.488.8 9.472-8.611 13.532-9.35-4.06.739-7.197-7.995-15.131-4.305zM386.186 207.63c.799 12.67-12.486 10.886-15.992 7.196-3.567-3.629-5.597-17.591 6.397-17.098-7.196 4.428-2.214 12.547-5.043 15.622 2.829-3.075 10.64 2.03 14.638-5.72m-3.26-119.567c12.547 2.46 7.381 14.761 2.891 17.221-4.429 2.46-18.575.8-15.008-10.579 2.461 8.058 11.687 5.351 13.901 8.857-2.214-3.506 4.736-9.656-1.845-15.5zm-158.931-8.98c.123-12.67 13.224-9.964 16.484-6.09 3.259 3.876 4.305 18.022-7.627 16.607 7.504-3.875 3.075-12.3 6.15-15.192-3.075 2.891-10.456-2.768-15.007 4.675m-15.868 114.585c-11.441-5.781-3.137-16.237 1.783-17.406 4.921-1.23 18.144 4.121 11.686 14.146-.246-8.426-9.841-8.241-11.071-12.178 1.23 3.937-7.134 8.057-2.46 15.377zM345.285 58.356c11.993-4.49 14.146 8.611 11.686 13.04s-15.315 10.517-18.391-1.046c6.397 5.535 12.732-1.6 16.545.184-3.813-1.783-1.23-10.64-9.84-12.178m-25.402 193.621c-9.349 8.733-16.422-2.522-15.869-7.566.554-5.043 10.026-15.561 17.345-6.089-7.996-2.644-11.071 6.397-15.315 6.151 4.182.246 5.228 9.41 13.839 7.504m81.618-97.18c8.734 9.288-2.706 16.299-7.75 15.684-5.043-.553-15.622-10.025-6.027-17.221-2.707 7.996 6.335 11.071 6.15 15.192.185-4.121 9.472-5.167 7.627-13.655"/><path fill="#005800" d="M289.314 61.124c8.242 2.091 10.272-6.95 14.454-7.073-2.46 2.89-8.734 10.271-14.454 7.073m.615-13.716c8.611-9.349 16.545 1.415 16.299 6.52-7.073-12.301-9.226-10.456-16.36-6.52zm-78.481 79.712c5.535-6.397-1.722-12.24 0-15.992 1.599 3.445 5.474 12.363 0 15.992m-12.117-6.581c-4.551-11.871 8.611-14.085 13.101-11.686-14.208.861-13.531 3.69-13.101 11.686m181.996-7.258c.984 8.303 10.271 6.95 11.871 10.764-3.629-1.231-12.917-4.367-11.871-10.826zm13.039-4.49c11.932 4.675 4.675 15.869-.184 17.468 9.041-10.948 6.458-12.301.184-17.468M250.135 226.698c-3.26-7.75-11.809-3.937-14.392-7.196 3.813.184 13.531.738 14.392 7.196m-11.379 7.811c-12.731-1.23-8.795-13.962-4.613-16.853-5.658 12.978-2.829 13.593 4.613 16.853m119.629-19.497c-7.38 4.059-2.583 12.055-5.535 14.946-.246-3.691-.8-13.409 5.535-14.946m9.103 10.271c.185 12.732-12.978 10.333-16.36 6.52 13.715 4.059 13.961 1.23 16.36-6.52M218.582 105.962c7.074-4.613 1.661-12.178 4.306-15.377.615 3.752 1.845 13.409-4.306 15.377m-9.902-9.472c-1.169-12.67 12.178-11.256 15.807-7.75-13.962-3.014-14.023-.123-15.807 7.75m25.525 111.633c-2.706-7.996-11.502-4.674-13.839-8.119 3.752.431 13.47 1.661 13.839 8.119m-11.871 7.073c-12.608-2.153-7.811-14.577-3.444-17.16-6.52 12.609-3.69 13.408 3.444 17.16m94.289-154.625c6.95 4.859 12.116-2.891 16.053-1.538-3.322 1.845-11.871 6.52-15.992 1.538zm5.474-12.67c11.44-5.66 14.946 7.195 12.916 11.87-2.153-14.023-4.92-12.978-12.916-11.87m21.035 179.965c-8.488.308-7.873 9.595-11.871 10.825 1.538-3.444 5.536-12.301 11.871-10.763zm3.383 13.347c-5.72 11.379-16.299 3.26-17.53-1.661 10.272 9.841 11.81 7.381 17.53 1.661m41.824-110.095c-1.907 8.241 7.319 10.025 7.503 14.146-3.013-2.337-10.579-8.426-7.503-14.146m13.838.184c9.595 8.427-1.045 16.484-6.15 16.422 12.239-7.38 10.271-9.472 6.15-16.422m-155.363-54.74c8.18-2.214 5.412-11.071 8.98-13.224-.616 3.69-2.461 13.224-8.98 13.286zm-6.397-12.178c2.891-12.301 15.069-6.889 17.468-2.399-12.301-7.196-13.286-4.428-17.468 2.46zm-24.295 103.33c.062-8.365-9.349-8.181-10.456-12.178 3.445 1.66 12.24 5.966 10.456 12.239zm-13.531 2.767c-11.256-6.15-2.645-16.299 2.399-17.283-10.333 9.78-7.996 11.44-2.461 17.283zm152.903-87.83c5.044 6.766 12.425.984 15.746 3.506-3.752.738-13.347 2.522-15.746-3.506m9.165-10.333c12.67-1.845 11.932 11.502 8.611 15.254 2.275-13.962-.615-13.84-8.611-15.254M298.54 241.03c-6.766-5.167-12.24 2.398-16.053.861 3.383-1.722 12.117-6.028 15.992-.861zm-5.966 12.362c-11.686 5.167-14.638-7.811-12.486-12.301 1.661 14.023 4.429 13.162 12.486 12.301m92.382-76.697c-5.167 6.704 2.46 12.116.922 15.93-1.722-3.322-6.15-11.994-.922-15.992zm12.485 5.843c5.29 11.563-7.749 14.576-12.362 12.424 14.146-1.722 13.285-4.429 12.362-12.424m-186.547-33.829c3.814-7.565-4.736-11.44-3.936-15.499 2.337 2.952 8.303 10.64 3.936 15.499m-13.408-3.505c-7.381-10.395 4.92-15.684 9.841-14.454-13.593 4.305-12.178 6.765-9.841 14.515zm75.837 88.568c-6.335-5.597-12.301 1.538-16.115-.246 3.506-1.476 12.547-5.228 16.115.184zm-6.766 11.932c-12.055 4.367-14.146-8.734-11.625-13.162.677 14.146 3.506 13.47 11.625 13.162m-1.845-179.535c8.426.8 9.041-8.488 13.101-9.226-1.907 3.26-7.012 11.563-13.163 9.226zm-1.661-13.655c7.135-10.517 16.607-1.107 17.222 3.875-8.919-11.07-10.825-8.795-17.222-3.875M376.652 197.73c-7.196 4.428-2.029 12.178-4.858 15.253-.431-3.752-1.415-13.408 4.92-15.253zm9.595 9.902c.8 12.67-12.485 10.886-15.991 7.196 13.777 3.506 13.962.615 15.991-7.196M370.871 94.706c2.46 8.058 11.379 5.105 13.593 8.611-3.691-.615-13.409-2.153-13.532-8.61zm12.117-6.642c12.547 2.46 7.38 14.761 2.89 17.221 6.951-12.362 4.183-13.285-2.89-17.221m-150.075 1.599c7.504-3.937 2.891-12.055 5.905-14.885.184 3.752.492 13.47-5.905 14.885m-8.856-10.58c.123-12.67 13.223-9.963 16.483-6.088-13.531-4.367-13.9-1.477-16.483 6.15zm-2.461 111.326c-.184-8.426-9.595-7.872-10.825-11.809 3.506 1.476 12.424 5.536 10.825 11.809m-13.469 3.26c-11.379-5.781-3.076-16.237 1.845-17.406-9.964 10.087-7.566 11.686-1.845 17.406M338.642 70.411c6.396 5.536 12.301-1.722 16.114 0-3.505 1.6-12.485 5.351-16.114 0m6.643-12.055c11.993-4.49 14.146 8.611 11.686 13.101-.738-14.146-3.568-13.47-11.686-13.1m-23.926 179.966c-7.996-2.644-10.702 6.274-14.885 6.151 2.645-2.768 9.472-9.718 14.885-6.151m-1.476 13.655c-9.349 8.733-16.422-2.522-15.869-7.566 6.151 12.732 8.488 11.01 15.869 7.566m67.841-98.717c-2.707 7.996 6.273 10.64 6.089 14.761-2.768-2.583-9.718-9.41-6.089-14.761m13.777 1.537c8.734 9.288-2.706 16.299-7.75 15.684 12.916-6.089 11.133-8.364 7.75-15.684"/><path fill="#730000" stroke="#000" stroke-width=".5" d="M318.836 76.378s.369-.8 1.046-.37c.615.493.8 2.584.8 2.584l-.985.492s.554-.8-.799-2.707zm-5.412 18.882s.492-.615-.185-2.091l.923-.308s.369 1.107-.123 2.399zm16.606-3.322-2.275 1.415 1.168.492 2.768-1.599zm-30.568 8.98c-.615.492-.615 1.292-1.046 1.845-.246.431-1.23 1.108-1.23 1.846-.123.676-.184 1.168.123 2.152.369.923 1.846 5.228 1.23 8.427-.615 3.259-.369 4.613-.184 5.105.246.492.984 1.845 1.415 1.845.984-.123.553-.431.922-1.046.861-1.537 0-13.654-.43-16.975-.308-2.584-1.538-4.92-1.661-5.167l-.492-1.599c-.923-2.153-2.03-3.998-2.03-8.55 0 0-2.891.677-5.412-5.043-1.353-2.89-3.26-2.583-5.536-3.506l.984-.676s1.968.984 2.891.984c.984 0 .615-1.968.615-1.968l1.046-.923v4.183c0 1.906 2.644 4.55 4.182 5.35.984.493 2.214-1.476 1.907-3.444-.308-1.845 0-4.49 0-4.49l1.353.8s-.492.8-.369 1.291c.184.493.799-.43 1.292-.922 0 0 .123.123.615.123l-1.415 2.46c-.492.738-.492 3.814-.492 4.92 0 1.23.43 3.814.43 4.675 0 .615 1.108 3.075 2.03 4.552l.984 2.152c.738 1.169.8 1.968 1.23 2.891.246.492.615 1.845.984 4.305l.431 4.306c.123 1.476 1.353.369 2.768-.615 1.476-1.107 1.476-3.691 1.476-3.691s1.107-.984.922-.43c-.123.615.616 1.23.616 1.23-.862 2.03-.37 1.784.553 1.722.923-.123 3.998-2.46 3.998-2.46.43-.123 2.337-.123 2.03 0-.369.184-.861 1.045-.861 1.045l2.029-.246c-.676.554-3.383 2.092-3.998 2.461a54 54 0 0 1-5.289 2.521c-1.415.615-4.121 1.969-4.244 3.322 0 1.414.184 5.105 0 6.335l-.615 6.519h-6.397s1.23-4.674 0-5.966c-1.291-1.291-4.305-5.166-6.15-6.458-1.968-1.23 1.23-.307 1.23-.307v-1.292l2.952 3.506s5.105-4.49 0-10.641c-1.599-1.906-3.26-4.859-4.49-5.166-1.353-.369-2.03-.615-4.244 0-2.275.677-7.749.677-10.025-2.952l1.907-.308 1.66-.615s-.676 2.276 3.875 2.276 5.167 0 4.798-4.183l1.353-.676.984.922s-.677 2.338-.308 3.26c.308.984 1.845 1.661 3.137 2.583.615.431.984.493 1.353.493.554-.062.615-.062 1.353-.8 1.107-1.23.861-1.107 1.968-2.091l.615-.984z"/><path fill="#730000" d="M300.385 97.72c.308-.246.739-1.169 1.231-1.907.676-1.23 1.537-1.968 2.46-3.444.922-1.353 1.23-3.444.922-4.859l.862.492v2.276l1.66-1.23.492.246s-3.629 3.69-6.95 9.78zm-31.552-12.486c.492.861.984 2.46 2.399 3.69l.984-.245s-2.214-2.584-2.214-3.69zm5.659-1.476s.307 3.075-.493 4.244l.985-.492s.615-2.091.43-3.26zm31.614-9.656s-.185 4.305.676 6.95l1.169-.308s-.185-.8.738-1.168c.984-.308 3.26-1.23 4.428-2.214l-.369-.985s-1.722 1.415-2.583 1.784c-.8.308-1.23.615-1.907.43-.676-.184-1.476-1.23-.984-3.69zm12.731 20.174s-.246 3.075-.123 4.428l1.046.246s-.246-3.69.43-3.998l-1.353-.615m4.613 2.276s-1.168 1.968-2.46 2.153l2.091-.431s.615-.307 1.476-1.23z"/><path stroke="#000" stroke-width=".5" d="M318.837 94.276s-.246 3.075-.123 4.428l1.046.246s-.246-3.69.43-3.998l-1.353-.615m-18.452 3.383c.308-.246.739-1.169 1.231-1.907.676-1.23 1.537-1.968 2.46-3.444.922-1.353 1.23-3.444.922-4.859l.862.492v2.276l1.66-1.23.492.246s-3.629 3.69-6.95 9.78zm-31.552-12.486c.492.861.984 2.46 2.399 3.69l.984-.245s-2.214-2.584-2.214-3.69zm5.659-1.476s.307 3.075-.493 4.244l.985-.492s.615-2.091.43-3.26zm31.614-9.656s-.185 4.305.676 6.95l1.169-.308s-.185-.8.738-1.168c.984-.308 3.26-1.23 4.428-2.214l-.369-.985s-1.722 1.415-2.583 1.784c-.8.308-1.23.615-1.907.43-.676-.184-1.476-1.23-.984-3.69zm17.344 22.51s-1.168 1.969-2.46 2.154l2.091-.431s.615-.307 1.476-1.23z"/><path fill="#289400" stroke="#030" stroke-width=".5" d="m305.06 87.51.799.492.8.123 1.968 1.6c.738.614.738-.124.738-.124l.492 1.907h.615l-.123 1.968 1.107-.984 1.353 1.168s.923-.86 1.415-.86.677-.493.677-.493h.061c-3.198-1.476-4.551-3.075-3.629-4.674 1.599-2.706 4.183-.984 4.982-.615l11.686 6.273s.8-.492.246-.984c-.615-.492-.861-1.66-.615-2.152.123-.492 1.477 1.476 2.092 1.66l2.152.43v-.614s1.845 1.353 1.845 2.03c0 0 1.415-.739.923-1.17-.43-.43 2.153 1.046 2.276 1.846l.615-.615c-.123 0 .123-1.968.799-2.83.289-.504.714-.91 1.231-1.168 0 0 .615-1.046 1.23-1.046 0 0-.615-.368-.861-.86-.308-.493-.985-.739-.985-.739s.862-.615 1.108-.922c.246-.37.492-.43.492-.43s-1.354-1.17-2.338-1.354c0 0-.061-1.538-1.23-1.66h.492s-.861-1.723-1.722-1.723c0 0 .554-.615.984-.676 0 0-.984-1.353-2.398-.861l.922-.37s-.615-.676-2.706-.368c0 0 .184-.8-.738-1.477 0 0-.738 0-.738.615 0 0-.738-.615-1.661-.615-.861 0 .308.984.308.984s-1.231-.799-1.907-.614c0 0 .307-1.354-.492-2.03 0 0-.861.43-1.107 1.045l-.246-.615s-1.23 1.477-1.476 1.046c-.185-.246-.369-1.23-.369-1.23l-.677 1.045.123-1.476s-.861.492-1.538 2.03c0 0-.799.8-.799 1.476 0 0-.677-.738-1.23 0-.615.861 0 .677 0 .677s-.308.307-.923.43l.123.492s-.738-.43-1.353-.246l.307.738s-1.599.123-1.66-1.23c0 0-1.292-.615-1.476.123l-.984.615s-.308-.615-.8-.738c-.615-.184-.123.8-.123.8s-.185-.738-.923-1.107c-.738-.308-.123.615-.123.615s-.922-.738-.492-1.353c0 0-.861.86-.43 1.66l-.615.43s-.308-.307-.246-.614c0-.185-1.046.8-1.046.8s-.615-1.6 0-1.6c.062 0-1.107 0-1.291 1.353 0 0-.8 0-1.538.246s.615.8.615.8-1.23-.246-1.845.123l.43.553s-.43-.43-1.476-.061c-1.045.308.246.492.246.492s-1.045-.246-1.599 0 .185.615.185.615-1.969-.615-2.276-.369c-.308.184.615 1.107.615 1.107s-1.23.308-1.415 1.23l1.107.43s-.492.247-.738.677c-.246.492.738.246.738.246s-1.353.984-1.353 1.722c0 0 .984.308 1.661-.43.738-.738.246-.492.246-.492l.061.492s1.415-.615 1.415-.984c0-.308-.246.492-.246.492l1.353-.738z"/><path fill="#289400" stroke="#030" stroke-width=".5" d="m303.891 68.812-.307-1.353 3.075.37.554-1.231s1.476.615 1.906 1.107c0 0 2.83-.738 3.691-.43l-.369 1.291s2.583.185 3.444.492c.738.308-.369.984-.369.984s2.952.37 4.182 1.107c1.354.8 1.354 1.477.677 1.661l1.599 2.583s-2.583.308-3.075.923c-.431.677-.923-.615-.923-.615l-.492 1.784s-1.599-.862-2.276-1.477c0 0-.799.985-.307 1.477l-2.952-1.907s-1.23-.185-1.23.922l-1.846-2.09-1.599.491s-.492-.615-1.045-.86c-.677-.124-.185.86-.185.86l-.984-1.168-.984-1.107s-.8 1.107-1.476 1.107c-.615 0-.615-.738-.492-1.292.184-.492-1.907-.615-2.091 0 0 0-.616-2.46 1.599-3.075l2.275-.615zm-11.686 8.18-.984.985-.615-.308-1.168 1.292-.247-.677-.615 1.046-1.045-.37-.492.8-.923-.184s-.738.738-1.23.922c-.492.123 0-1.107 0-1.107s-.738 1.23-1.23 1.23c-.554 0-.369-.615-.369-.615s-.308.861-.861.984c-.554 0-.308-.615-.308-.615l-.984.738v-.615l-.43-.184s.246-1.107.676-1.353-.43-.923-.43-.923l.43-.492s-1.23-.308-1.23-.062c0 0 .615-1.599 1.476-1.906l.062-1.845s.861-.677 1.599-.738c.861-.123-.246-1.415-.246-1.415l1.968-1.107.246-1.415 2.891.246.615-1.23 2.337.615 2.03-1.045 1.415 1.66 2.152.185v1.906s2.522.8 2.829 1.046c0 0-.492 1.538-.492 1.845 0 0 1.846-.492 2.338-.369l.246 2.091s3.075.985 3.259 1.538c0 0-.615.43-1.045.984 0 0 .369 1.845.369 2.46l-.246.308s-.861-.8-1.599-.923l-.615 1.292-1.046-.677h-.676s-.554-.615-.985-.615v-.615l-.861.554s-1.353-.677-1.353-1.107l.062-.923-1.353.923s-.308-.677-.246-.984c0-.308-.554.676-.554.676s-.738-1.23-.615-1.476l-.246 1.046s-1.415-.492-1.599-1.476z"/><path fill="#289400" stroke="#030" stroke-width=".5" d="M273.015 82.897s2.522 1.23 2.522 1.845c0 0 .677-1.291.307-1.845l.985.676s.307-1.168-.062-1.537c-.307-.308 2.153-1.292 2.706.307 0 0 1.476-1.537-1.414-2.89 0 0-.246-.984 1.537-.739 0 0-.123-.614-.553-.799h1.66s-.984-.861-2.46-1.107-.615-.43-.615-.738c-.123-.308 0-1.353 0-1.353s-.861-.308-1.538 0l.247-.246s-1.538-.43-2.153-.062c0 0-.923-.369-.8-1.291 0 0-.922-.062-1.291.86 0 0-.861.985-2.03.985-.185 0-1.046-.492-1.046-.492l-.738 1.66h-1.107l.308.615s-1.722-.492-2.276 0c0 0 .677 1.046.492 1.723 0 0-1.353.246-1.661.492-.369.246.492.43.492.43s-1.599.492-1.968.984l.615.43-.738.985.615.123-1.537.492c-.554.184.922.307.922.307l-.676.615 1.107.185s-.861 2.46-.923 3.567c0 0 1.353-1.66 1.722-1.845l-1.107 1.845s2.091-.615 2.276-.984l.307-.615.062.984s.8-1.045.923-1.476c.061-.43 1.23.43 1.23.43v-.614l1.476.43c.43 0 .492-.184.492-.184l.984-.123-.185.86s.738-.491.923-.983c.123-.492.492 0 .492 0l.492-1.907zm-8.242 8.488.985 2.03c-.8 0-1.907.922-1.907.922.184 3.321-.615 3.137-.615 3.137.184.615-.185 1.722-.185 1.722l4.736-2.83.062-.307 5.658-2.645.185.308 1.599-.923 1.169 3.014-1.169.615c.061 1.046 1.292 2.83 1.292 2.83l1.476-.37 1.66-.615v.615c0-.184 1.784-.8 1.784-.8l.8.8c.615-.061 1.66-1.537 1.66-1.537l1.23.492s.431-.738.431-1.23 1.599-.492 1.599-.492l1.046.738 1.414-1.107s.431.8.984.922c.615.062 2.092 1.23 2.092.984s.615-1.537.615-1.537l2.521.984c-.307-1.107-1.23-2.46-1.23-2.46s1.23-.984 1.046-1.23c-.246-.247-.984 0-.984 0l.738-1.477h-.984l.307-.369-1.537-.615.799-1.722c-.369-.43-4.49-1.23-4.49-1.23l.984-.923s-.492-.738-.984-.738-3.014.062-3.075-.184l-1.107-1.107-1.599 1.168-.8-.246-1.353.492s0 .8-.184.246c-.185-.492-1.415-1.722-1.415-1.722-.246.43-1.845 2.337-1.845 2.337s-.308 1.046-.8.308c-.615-.738-1.845-1.476-2.091-.923-.123.677-1.292 1.23-1.538 1.107-.246-.184-1.537-.061-1.66.308-.062.43-1.538 1.476-1.538 1.476-.861-.43-2.337-.184-2.337-.184s-.431.676-.492 1.23zm27.186 24.356v-1.23l1.415.923.861-.923 1.107 1.046.615-1.046v1.722l1.661-1.415.922.37v-1.354s1.169-1.906.677-2.275l.984-.308s-1.661-1.599-2.091-1.907c-.492-.369-1.169-.369-1.169-.369s-1.23-1.23-2.091-1.66c-.8-.308-1.23.369-1.23.369s-.492-.923-1.353-1.107c-.8-.185-.8.615-.8.615s-.615-.615-1.353-.861c-.8-.369-.246.738-.246.738l-2.768-.861.369.861-2.583-.677.307.923-1.845-.308-.123.8-2.583.492.492.861-1.599-.677v1.169l-1.845.615.676.615-2.891 1.476c-.43.308.985.984.985.984l-2.584-.369.984.861-2.275 2.092 1.599 1.168-.984 1.415 2.46.492.923 1.599 1.968-.369v1.845l2.891-2.276s2.091 1.846 2.275 1.292c.123-.492.123-2.091.123-2.091h1.046v-1.599l.738.615 1.353-1.907 1.722 2.399 1.353-3.075zm11.748-7.258-.246-2.767-.861.861.369-2.584-1.354-.246.492-2.521-.984-.492.246-1.23.984-.677 1.723-1.722 4.059.061.431-1.291 2.89.492c.492.492 2.03-1.107 2.03-1.107h.615l.615 1.23s2.091-.246 3.075.369l-1.168 1.599 2.153.184 1.414.308 1.476-.492 1.968-.123.431.8h1.845l-.615.676 2.337 1.107-.492.492s1.353.492 2.276.492h.492s.492 1.107-.184 1.599c0 0 .676 1.6 2.091 1.907q1.476.307 1.66.615c.185.369 0 1.968-1.66 1.968v1.661s-1.23 1.107-1.415 1.599l-.984-.615s-.8.923-.8 1.538c0 0-2.152-2.768-2.89-2.891-.861-.123-.615 1.599-.615 1.599l-2.338-1.907-.307 1.292-1.907-1.599-1.168.799-2.03-2.152-1.968.246.738-.984h-2.399l-.43-2.092-.37 1.723-1.476-.984-1.845 2.029s-.246-.246-.553-1.23c-.308-.922-1.107 1.23-1.107 1.23l-.677-1.537-.8 1.476s-.615-1.107-1.291-1.476c-.615-.308-1.23 1.845-1.476 2.767Zm.369 6.335.123-.984 3.444-1.353 2.891-1.045 1.414-.677.677 1.169.861-1.661 1.292 1.722.738-.922 1.107.861h.984l.184 1.23s2.399.184 2.584-.308c.184-.492.492 1.661.492 1.661l2.275.307.492 2.584s1.108 2.398.739 3.321c-.308 1.046-1.231-1.23-1.231-1.23s-.184 1.784-.369 2.276c-.123.492-3.075-.492-3.075-.492l-1.23 2.398s-1.353-1.906-1.968-1.906-.615 1.906-.615 1.906l-2.768-3.26c-.8-.922-.984.985-.984.985s-1.23-2.092-1.23-2.707-1.169-1.353-1.169-1.353-1.968 2.276-3.444 2.891c0 0 .184-1.415-.308-1.845-.43-.554-1.845.922-1.845.922s-1.045-2.214 0-4.551z"/><path stroke="#004B00" stroke-width=".5" d="m319.944 78.96.307 1.23s1.107-.245 1.845-.184l-.43 1.353s1.415-.245 2.091.185l-.307.738 1.66.738-1.537 1.23s2.46.923 3.013 1.66c0 0-1.66 1.108-1.845 1.047-.307-.123-.123.492.308 1.045l-1.353-.061s.553 1.23.492 1.722c-.123.492-2.338.369-2.338.369m8.673-3.26s.43-2.399-.246-3.014c0 0 1.537 1.353 2.583 1.415 1.107 0 0-1.968 0-1.968s1.415.738 2.153.922c.738.123-.554-1.476-.554-1.476s.431-.8 1.661-.061m-27.924-9.534s0-.615-.184-.86c-1.477-1.97 1.476 1.475 2.091 1.598m2.768 0s.984.738 1.414.738c.492 0-.307-1.906-.553-2.152-.185-.246 1.783.8 2.46.86.738.185.861-1.23.861-1.23s2.214.431 2.706.739m-15.376-.43-.308-1.846m-14.884 7.811c-.123-.184.615-1.23.307-1.784 0 0 .431.37.861.431.37.062.246-1.353.246-1.353l.431.184s1.23-.615 1.046-1.107c-.246-.492.861.738.861.738s.676-.738.676-1.045c0-.308.861.738.861.738s.923-.185.923-.738c0-.554 1.107.184 1.107.184s.492-.615.431-1.107m-12.117 6.028s.553-1.23-.062-2.091m-14.515 6.027c0-.615.308-2.214 0-2.46-.246-.246.615.246 1.353.43m5.72-.245c-.738-.677-1.168-1.046-2.275-1.046m-9.964 5.105c.184-.43.492-1.476.307-2.03m15.377 31.799.799-1.599.984 2.275.615-1.414.246.43 1.476-1.538 1.538 2.338m25.033-10.149 1.046-2.029 1.414.738.615-2.03 1.476.923.8-1.846 1.661.431.123-1.353s1.107.615 1.414 1.168c.369.431 0-1.66 0-1.66l1.353.615s.923-.984-.369-1.476"/><path stroke="#004B00" stroke-width=".5" d="m315.516 102.702 1.414 2.091 1.231-1.353 1.045 2.337 1.415-.861 1.968 1.169.923-.738 2.152 1.537.861-1.845 1.969.615 1.23-2.152m-51.911-5.659s.861-1.415.615-2.091c-.431-.615 1.722 1.107 1.722 1.107s.431-1.415.184-2.091c-.369-.615 2.399 1.968 2.399 1.968s.431-2.276 0-2.706c-.492-.492 2.645.615 2.645.615s1.23-.37.738-.984c-.492-.677 2.091.922 2.091.922s.615-1.599 0-2.214 1.968.8 1.968.8l-.984-1.722 2.092.123-.185-1.969m18.636 27.739 1.353-.615 1.231 1.231 1.353-2.153 1.599 1.537.246-1.537 1.722.738.369-.984 1.907 1.045.184-1.476.984.308.185-.923"/><path fill="#9DD7FF" d="M278.305 185.735a43 43 0 0 1-3.691-7.996l26.079-22.88 26.017 22.819a40 40 0 0 1-3.814 8.18l-.184.307-1.968-.738s-.861.8-1.538.861c-.861.123-1.661-.799-1.661-.799s-1.107.984-2.275.799c-1.169-.123-1.6-.861-1.6-.861s-1.23.984-2.091.8c-.738-.185-1.291-.738-1.291-.738s-.738.922-1.723.738c-.984-.185-1.845-.738-1.845-.738s-1.537.615-2.46.799c-.984.185-1.845-.861-1.845-.861s-1.23.861-1.722.861-2.276-.861-2.276-.861-1.845.615-2.522.615c-.615 0-2.46-.799-2.46-.799s-1.784.492-2.522.492c-.861 0-2.091-.492-2.091-.492s-1.415.676-2.214.492c-.861-.185-1.476-.492-1.476-.492s-1.599.676-2.583.492-2.092-.861-2.092-.861-.184.492-2.091.861"/><path fill="#fff" d="M300.692 128.534v26.386l-26.017 23.004a51.7 51.7 0 0 1-2.706-16.668v-32.783h28.723"/><path stroke="#000" stroke-width=".7" d="M300.692 128.534v26.386l-26.017 23.004a51.7 51.7 0 0 1-2.706-16.668v-32.783h28.723"/><path fill="#FFD83C" d="M300.693 128.534v26.386l25.955 23.004a51.7 51.7 0 0 0 2.645-16.668v-32.783h-28.6"/><path stroke="#000" stroke-width=".7" d="M300.693 128.534v26.386l25.955 23.004a51.7 51.7 0 0 0 2.645-16.668v-32.783h-28.6"/><path fill="#730000" stroke="#000" stroke-width=".5" d="M283.901 180.261c1.969 1.045 1.23.738 5.351 2.153a38 38 0 0 0 12.732 1.722c4.921 0 7.627-.431 9.226-.861 1.538-.431 1.907-1.107 1.907-1.107l-3.998 4.12s-16.176.861-19.067-1.045c-1.23-.615-3.69-2.583-6.151-4.921z"/><path stroke="#000" stroke-width=".5" d="M307.643 172.634s5.166 2.952 0 8.611m-23.249-.615 7.38-7.135-.799 9.472m3.875.861V167.96m12.793 15.868v-16.852m-6.458 17.16v-18.145"/><path fill="#FF0018" d="m294.85 168.821-3.321 1.045 3.321.369zm6.335-2.461-3.567 1.292 3.567.123v-1.476m6.459.984-3.568 1.353 3.568.185zm2.091 7.627c-.185-.677 2.091-.615 2.091-.615s.615 2.398 0 3.875l-1.907-.369s.185-1.6-.184-2.891"/><path stroke="#000" stroke-width=".5" d="m301.185 166.36-3.567 1.292 3.567.123v-1.476m-6.335 2.522-3.321 1.045 3.321.369zm12.794-1.538-3.568 1.353 3.568.185zm2.091 7.627c-.185-.677 2.091-.615 2.091-.615s.615 2.398 0 3.875l-1.907-.369s.185-1.6-.184-2.891Z"/><path fill="#fff" stroke="#000" stroke-width=".5" d="m285.5 179.584 6.336-6.15-.308 3.69s-3.26 2.153-3.26 3.629zm3.383 1.292s.615-1.907 2.461-2.891l-.185 3.875zm9.042-10.641s2.583-.369 4.551 0c0 0-.307 2.584 0 3.076 0 0-3.567-.861-4.982.492 0 0-.492-2.461.431-3.568Zm-5.474.615s2.583-.307 4.551 0c0 0-.492 2.953-.184 3.383 0 0-2.891-1.599-4.306-.246 0 0-.984-2.03 0-3.075z"/><path fill="#fff" d="M292.328 174.233s2.583-.246 4.49 0c0 0-.307 2.645 0 3.075 0 0-3.383-.738-4.797.493 0 0-.677-2.399.307-3.568m5.167-.43s3.69-.492 5.597-.185c0 0-.738 2.091.184 3.506 0 0-3.998-1.046-5.535.184 0 0-1.23-2.398-.246-3.505m-5.536 3.998 5.044.369s-.492 3.69-.185 4.12c0 0-4.059-.922-4.797.369 0 0-1.354-3.321 0-4.858zm5.659 0s4.305-.308 6.335 0c0 0-1.169 2.767.123 5.166 0 0-5.659-1.599-6.458-.308 0 0-1.292-3.321 0-4.858m6.642-7.566s2.583-.369 4.49 0c0 0-.307 2.584 0 3.076 0 0-3.567-.861-4.92.492 0 0-.554-2.461.43-3.568m0 3.568s2.583-.308 4.49 0c0 0-.307 2.583 0 3.075 0 0-3.567-.8-4.92.43 0 0-.554-2.398.43-3.505m.308 3.69s2.583-.369 4.551 0c0 0-.615 4.059-.369 4.551 0 0-2.952-1.414-4.305-.184 0 0-.861-3.198.123-4.306z"/><path stroke="#000" stroke-width=".5" d="M292.021 177.801c1.414-1.231 4.797-.493 4.797-.493-.307-.43 0-3.075 0-3.075-1.907-.246-4.49 0-4.49 0-.984 1.169-.307 3.568-.307 3.568Zm0 0c-1.354 1.537 0 4.858 0 4.858.738-1.291 4.797-.369 4.797-.369-.307-.43.185-4.12.185-4.12l-5.044-.369zm5.474-3.998s3.69-.492 5.597-.185c0 0-.738 2.091.184 3.506 0 0-3.998-1.046-5.535.184 0 0-1.23-2.398-.246-3.505Zm.123 3.998s4.305-.308 6.335 0c0 0-1.169 2.767.123 5.166 0 0-5.659-1.599-6.458-.308 0 0-1.292-3.321 0-4.858Zm6.642-7.566s2.583-.369 4.49 0c0 0-.307 2.584 0 3.076 0 0-3.567-.861-4.92.492 0 0-.554-2.461.43-3.568Zm0 3.568s2.583-.308 4.49 0c0 0-.307 2.583 0 3.075 0 0-3.567-.8-4.92.43 0 0-.554-2.398.43-3.505Zm.308 3.69s2.583-.369 4.551 0c0 0-.615 4.059-.369 4.551 0 0-2.952-1.414-4.305-.184 0 0-.861-3.198.123-4.306z"/><path fill="#fff" stroke="#000" stroke-width=".5" d="M309.918 177.8s.8 3.076 1.845 3.445l-1.353 1.722s-1.783-1.23-1.968-2.706c0 0 1.169-1.292 1.476-2.461Z"/><path fill="#006AC8" d="M322.774 186.104a40.7 40.7 0 0 1-22.142 17.406 41.4 41.4 0 0 1-22.327-17.714h.061c1.846-.43 2.092-.922 2.092-.922s1.107.676 2.091.861 2.583-.492 2.583-.492.615.307 1.476.492c.8.184 2.214-.492 2.214-.492s1.231.492 2.03.492c.8 0 2.522-.492 2.522-.492s1.845.799 2.46.799c.677 0 2.583-.615 2.583-.615s1.784.862 2.276.862c.431 0 1.722-.862 1.722-.862s.861 1.046 1.845.862c.923-.123 2.461-.8 2.461-.8s.861.553 1.845.738 1.722-.738 1.722-.738.554.553 1.292.738c.861.185 2.029-.8 2.029-.8s.492.739 1.661.862c1.107.184 2.276-.8 2.276-.8s.799.923 1.66.8c.677-.062 1.538-.862 1.538-.862l2.03.615"/><path stroke="#000" stroke-width=".5" d="M321.727 187.642c-.861.061-.984-.492-.984-.492s-1.23.984-2.337.799c-1.23-.184-1.784-.922-1.784-.922s-1.23.984-2.091.799a3.06 3.06 0 0 1-1.414-.676s-.8.861-1.846.676c-.984-.123-1.845-.676-1.845-.676s-1.66.615-2.706.799c-.984.185-1.845-.922-1.845-.922s-2.337.738-2.829.738c-.554 0-2.215-.738-2.215-.738s-1.168.676-1.845.676c-.676 0-2.583-.8-2.583-.8s-1.845.493-2.645.493c-.861 0-2.153-.493-2.153-.493s-1.537.616-2.398.493l-1.476-.493s-1.661.616-2.707.493c-.984-.246-2.214-.862-2.214-.862s-.184.431-2.153.862h-.061"/><path fill="#5AC800" stroke="#000" stroke-width=".6" d="M284.456 190.102s-.185.43-1.722.738l-.431.123.369-.123-.43.184a27.1 27.1 0 0 0 7.196 6.766c2.768 1.845 5.904 4.059 11.317 5.659a43.8 43.8 0 0 0 10.948-5.536c3.69-2.768 5.659-4.428 7.75-7.196-1.661.923-1.415.923-2.276.8-.8-.185-1.415-.8-1.415-.8s-.799.923-1.845.8c-.984-.185-1.845-.8-1.845-.8s-1.353.923-2.706.861c-.984-.061-1.845-.984-1.845-.984s-2.338.799-2.83.799c-.553 0-2.214-.799-2.214-.799s-1.168.738-1.845.738-2.583-.861-2.583-.861-1.845.492-2.645.492-2.091-.492-2.091-.492-1.538.615-2.46.492c-.8-.185-1.477-.492-1.477-.492s-1.66.615-2.706.492c-.984-.185-2.214-.861-2.214-.861Z"/><path fill="#FFD800" stroke="#000" stroke-width=".6" d="M300.755 203.449a54.7 54.7 0 0 0 10.517-5.29c-.615 0-2.46-.615-1.783-.738 0 0-.738.615-1.415.615s-2.583-.799-2.583-.799-1.845.43-2.645.43c-.861 0-2.091-.43-2.091-.43s-1.599.615-2.46.43l-1.477-.43s-1.722.615-2.706.43c-.984-.184-2.214-.8-2.214-.8s-1.476.8-2.46.862a33.9 33.9 0 0 0 11.317 5.72Z"/><path fill="#B34B00" stroke="#000" stroke-width=".5" d="M296.818 155.535c1.168-.984 1.845-1.845 1.414-2.583-.43-.615-1.107.369-1.845.123 0 0-1.23-.676-1.537-1.23-.616-.738-1.538-1.414-2.03-2.091-.554-.615-2.583-3.26-5.597-6.335-.923-.554-.677-2.706-1.353-3.383 0-.492-6.151-6.52-8.242-8.611-.923-.676-1.353-1.107-2.891.308-1.23 1.045-1.661 2.214-.061 3.567l7.872 7.196c1.169 1.107 2.768 1.292 3.445 1.845l7.995 8.242c1.046.861 1.538 1.476.923 2.214-.615 1.231.062 1.415.185 1.415.123.062.676.062 1.045-.246z"/><path stroke="#000" stroke-width=".5" d="m276.828 134.008 8.242 8.119"/><path fill="#fff" stroke="#000" stroke-width=".6" d="m287.961 137.699.677-1.538c.123-.246 2.337-3.813 3.444-3.875l6.95 5.044c0 .307-3.075 4.797-3.259 4.428 0 0-8.119-3.383-7.812-4.059Z"/><path fill="#CCB8C8" d="M292.389 138.929c-.984-.738-2.521-1.476-3.813-2.338l-.554 1.231c.431.492 6.151 3.136 7.135 3.69 0 0-1.107-1.23-2.829-2.583z"/><path stroke="#000" stroke-width=".4" d="M288.577 136.469q1.495 1.013 3.075 1.906c1.661 1.23 2.706 2.461 3.936 3.199"/><path fill="#782121" stroke="#000" stroke-width=".5" d="m274.615 157.995 15.683-19.497c.308-.246 1.784-.246 1.969 1.23l-14.885 20.297s-1.66-.184-2.767-2.091z"/><path fill="#730000" stroke="#000" stroke-width=".5" d="M327.263 158.18c-.615.431-1.476.492-1.476.492-1.046-1.168-1.845-2.46-3.322-3.998l-15.684-19.251 1.661-1.599 14.146 16.545c.37.43 2.83 3.014 5.167 6.027 0 0 .185 1.231-.492 1.784Z"/><path fill="#fff" stroke="#000" stroke-width=".5" d="m312.133 137.883-2.46-3.075s-1.969.307-2.338 1.292c0 0-1.353 2.275-5.043 2.521 0 0 1.046 4.306 5.289 6.581 0 0 1.538-4.428 3.076-5.166 0 0 1.537-1.169 1.476-2.214z"/><path fill="#730000" d="M305.86 151.23c-.369-.185-.738 0-1.23.246-.554.308-1.107.185-1.046-.431 0-.492 0-.43.615-.861a3.9 3.9 0 0 1 3.075-.307l-1.414 1.291m17.098-17.037c-.123-.43-.246-.861.185-1.353.43-.492.43-1.353-.615-.922-1.046.43-1.353 1.537-.554 3.321z"/><path stroke="#000" stroke-width=".5" d="M305.86 151.23c-.369-.185-.738 0-1.23.246-.554.308-1.107.185-1.046-.431 0-.492 0-.43.615-.861a3.9 3.9 0 0 1 3.075-.307l-1.414 1.291m17.098-17.037c-.123-.43-.246-.861.185-1.353.43-.492.43-1.353-.615-.922-1.046.43-1.353 1.537-.554 3.321z"/><path fill="#fff" stroke="#000" stroke-width=".5" d="m305.49 151.538 17.775-17.653 4.367 4.675s-.922-.369-1.23-.123.308 1.168.308 1.168-.8-.307-1.169-.061c-.43.246 0 1.23 0 1.23s-.738-.492-1.107-.307c-.307.246 0 1.414 0 1.414s-.923-.307-1.23-.061c-.185.246 0 1.23 0 1.23s-.923-.431-1.415 0c-.492.43.246 1.168.246 1.168s-1.23-.492-1.66.246c-.492.739.061 1.354.061 1.354s-.984-.431-1.23-.246c-.246.246 0 1.414 0 1.414s-.8-.492-1.353.123c-.554.615.061 1.23.061 1.23s-.799-.492-1.23-.246c-.369.246.123 1.353.123 1.353s-.738-.553-1.291 0c-.554.615 0 1.231 0 1.231s-.615-.616-1.353 0c-.615.615 0 1.291 0 1.291s-.923-.492-1.292 0c-.431.492.123 1.169.123 1.169s-.738-.431-1.23-.185c-.431.246 0 1.292 0 1.292s-.677-.8-.984-.369c-.369.43 0 1.476 0 1.476s-.615-.8-.984-.369c-.431.369.246 1.23.246 1.23s-1.23-.492-.923-.492z"/><path fill="#7E4B7E" d="m322.221 135.361-1.354 1.354.308 4.736s.307-1.354.676-.431c0 0 .124-1.107.431-.923-.246-.123 0-4.797 0-4.797m-2.645 2.645-.984.922.369 4.736s.246-1.783.677-.369v-5.289m-10.825 10.579-.923 1.045.246 2.891s.308-1.845.677-.43l-.123-1.6z"/><path stroke="#7E4B7E" stroke-width=".9" d="M307.704 136.653c.615.615 2.46 3.075 2.46 3.075m-1.599-1.783c-.123.369-.369 1.414-.922 1.968m1.23-1.722c-.123.246-.123 1.045-.923 1.845m1.23-1.476c-.184.43-.246.738-.492 1.045m.615-.615c0 .246-.184.308-.246.492m-1.968-1.66a18 18 0 0 1-2.952 1.722m2.46-1.107a8.7 8.7 0 0 1-1.907 1.353m1.722-.615c-.307.246-.922.861-1.414 1.045m1.107-.307c-.246.307-.615.492-.923.676"/><path stroke="#7E4B7E" stroke-linecap="square" stroke-width=".9" d="M295.65 140.59c.184-.37.553-1.108.984-1.723.615-.861.799-.984 1.107-1.23"/><path fill="#289400" stroke="#060" stroke-width=".5" d="M237.649 188.995c.923.43 0-2.953.308-4.183.369-1.353 2.952 3.199 4.182 3.814 1.353.615 9.411-3.199 9.411-3.199l1.906-3.567 1.046 2.952s2.214-2.583 2.829-3.567c.677-.984 0 1.907-.615 2.891-.677.922 1.907 1.291 1.599 3.26-.307 1.845 2.583-1.354 2.583-1.354l7.443.616s1.23-4.49 3.259-7.074l.616 2.953 3.075-3.137a40.53 40.53 0 0 0 25.402 24.11 40.96 40.96 0 0 0 24.725-22.511l4.121 4.305s3.26-.984 3.875-1.353a43 43 0 0 1 9.533 3.445c.615.43.185-2.153.185-2.153s3.567.676 3.26 2.583c0 0 .738-1.784 1.414-2.091.677-.308 2.214 1.661 2.583 2.276.308.615 7.996 1.599 9.042 2.214 0 0 .799.984.799 1.661 0 0 1.661-.185 2.891-.185 0 0-.922.492-.922 1.476s-.493 1.784-1.477 2.214c-.922.492 0 .861 1.231.984 1.353.185 0 1.846-2.522 2.768 0 0-.615 1.415.492 1.907 0 0-2.276.184-2.583-.492 0 0-.8 1.538-.8 2.337 0 0-2.46-.799-3.075-1.169 0 0-.984.985-.308 1.415 0 0-4.367-.43-5.228-2.091 0 0-1.537.492-1.23 1.046 0 0-3.075-2.092-4.059-2.092l-.615 1.046s-2.153-1.23-2.768-1.23-.123.922-.123.922l-2.952-1.783-1.169 1.845-3.075-1.661c-.615-.492-.738.984-1.23 1.169 0 0-.985-1.353-2.276-1.169 0 0-.492 1.599-.308 2.091l-4.367-.922c-.676-.185-.307.738 0 1.414 0 0-2.767-.799-3.382-1.23l-.185 1.23s-2.276-.184-2.768-.615l-1.414 1.907h-2.153l-.431 1.784s-4.059-1.169-4.428-.492c-.308.615.185 1.599.185 1.599l-3.506-.431-.308 1.415s-4.121-1.23-5.043-.615c0 0-1.23 1.23-2.092 1.599-.799.308 0-.492 0-.492l-1.23-1.784s-1.476.8-2.337.492c-.799-.369-3.383 1.231-4.182.8 0 0 0-1.169-.677-1.476-.615-.246-1.722-.246-2.214.492l-1.353-1.845c-.738-1.353-1.907.061-1.907.061l-.184-1.537-2.215-.185c-1.353-.184-1.599-1.353-1.599-1.353s-3.444.369-3.936.184l.861-.799s-4.674.984-5.659.615c-1.045-.308 1.108-1.599 1.108-1.599l-5.167-1.23c-.799-.246-5.535.738-6.151.738s-.984-1.107-.984-1.107-1.107.984-2.091 1.291c0 0-.799-1.906-.307-2.091 0 0-3.076.8-3.26 1.599 0 0-.738-1.23-.615-1.845 0 0-1.476 2.337-2.153 2.829-.615.492-.123-1.168-.123-1.168s-1.784 2.275-2.46 2.46v-1.599s-5.167 2.768-6.581 2.398c0 0 0-1.168.492-1.476l-3.26-.123c-.8-.123-1.722-.492-2.583-.676-.8-.123 1.168-.984 2.46-.615 0 0-3.567-1.292-4.674-.615 0 0-.493-1.353 1.414-1.846 0 0-2.46-2.398-3.875-2.214 0 0 1.599-.984 2.953-.492 0 0-1.538-4.059-2.461-4.551 0 0 3.383-.615 4.367-.123Z"/><path fill="#730000" stroke="#000" stroke-width=".5" d="m232.667 118.509 43.731-22.634c.184-1.23-.431-2.091-1.169-3.076-12.486 6.151-23.864 13.655-37.765 18.145-.799.307-7.688 3.198-11.255 7.442a4.75 4.75 0 0 0-1.23 2.768s.123 1.906.553 2.46c0 0 .062.492.738.923 0 0 .431.184.677.123.307 0 .861 0 1.599-1.231a32.5 32.5 0 0 1 4.121-4.92Z"/><path fill="#fff" stroke="#000" stroke-width=".5" d="m267.849 96.121 5.658-2.706s1.907 1.414 1.723 3.075c0 0 .43 3.69 5.043 6.274 0 0-3.875 4.92-10.702 5.289 0 0 .738-6.397-.677-8.303 0 0-.246.246-.123-.062.185-.615-.123-2.767-1.045-3.26z"/><path stroke="#7E4B7E" stroke-width=".8" d="M274.491 96.859c-1.23.492-5.105 2.522-5.105 2.522m3.199-1.292c0 .615-.37 2.03 0 3.075m-.493-2.89c0 .307-.492 1.353 0 2.829m-.615-2.522c-.123.615-.246.923 0 1.599m-.492-1.23c-.123.308 0 .492 0 .738m3.568-.922c.184.43 1.783 2.952 2.767 3.997m-2.521-2.89c.184.492 1.045 2.214 1.722 2.89m-1.845-1.845c.246.615.676 1.661 1.23 2.276m-1.23-1.107c.135.547.363 1.07.676 1.537"/><path fill="#B34B00" stroke="#000" stroke-width=".5" d="m314.715 93.599 16.053 7.873c3.199 1.537 4.367.123 6.151.922l31.737 16.115c2.768 1.23 4.305 1.537 3.875 2.952-.062 2.276 1.045 2.276 1.353 2.337.246 0 1.292-.123 1.722-.738l.369-.369c.369-.369.308-.43.431-.615 1.291-1.845 2.029-3.567.615-4.613-1.538-.799-1.722.923-3.445.738 0 0-2.952-1.107-4.059-1.906-1.968-1.108-4.797-2.399-5.412-3.076-2.03-.369-17.222-8.98-25.894-13.285-.923-.738-1.415-3.629-3.26-4.551-.492-.8-12.178-6.151-18.329-9.226-2.214-.8-3.506-1.353-5.105 1.414-1.415 2.707-1.107 4.183 3.198 6.028Z"/><path stroke="#000" stroke-width=".5" d="m316.069 90.216 17.96 8.98"/><path fill="url(#a)" d="M262.443 99.873c-.117.356-.412.117-.412.233-.234 1.298-.179 1.95-.474 2.658a4.2 4.2 0 0 1-1.833 1.537c-1.181.412-2.657 1.833-5.019.529l-.356-.295s.652 2.423-1.772 3.659l-9.269 4.841s-.885 1.655-.295 3.838c0 .357.179.652-.178.886-.591.412-1.593 1.654-2.184 3.542 0 0-1.771-.768-1.771-1.888 0-1.181.707-1.771.886-2.595.178-.769.59-2.774.412-3.365-.234-.652-1.36-.885-1.772-1.181-.356-.178-.824.296-.768.825.061.59.473.473.947.59 0 0-.529 1.181-.474 2.005l-5.431 2.835.947 1.36c.234.412.769 6.021 2.362 8.678s2.184 1.888 2.54 2.245l1.181 1.181c.474.295 2.362.474 2.657-.59a5.3 5.3 0 0 1 1.889-2.424c1.18-.947 3.542-3.186 3.542-4.25 0 0 1.36 4.017 1.181 7.319 0 0 5.019 1.003 9.509 1.12 4.49 0 6.79-.886 6.79-.886s.591-3.776.357-4.545c0 0 .707 2.479 1.298 3.309.59 1.064 1.242 3.131 2.54 3.247 1.298.062 2.362-1.242 2.479-1.771v-4.016h5.135s2.245.885 2.953.769c.769-.062 1.181-.769.473-1.003l-.233-.178c.707 0 1.537.412 1.537.412h2.54l-.061-.296c-.178-.707-1.538-1.297-2.479-1.771-.947-.295-2.066-.707-2.774-.769-1.224-.11-2.46-.03-3.659.234-.474 0-2.301.234-3.426.769-.295.178-.591.234-.474-.591.179-.768.117-4.606-.769-6.199-.707-1.181-.59-2.129-.529-3.07a52 52 0 0 0 0-5.197c-.178-1.002-1.476-2.362-3.899-2.595-2.245-.296-4.133-2.184-4.312-3.66-.178-1.538.234-4.25.474-5.492"/><path stroke="#000" stroke-miterlimit="3.84" stroke-width=".48" d="M262.443 99.873c-.117.356-.412.117-.412.233-.234 1.298-.179 1.95-.474 2.658a4.2 4.2 0 0 1-1.833 1.537c-1.181.412-2.657 1.833-5.019.529l-.356-.295s.652 2.423-1.772 3.659l-9.269 4.841s-.885 1.655-.295 3.838c0 .357.179.652-.178.886-.591.412-1.593 1.654-2.184 3.542 0 0-1.771-.768-1.771-1.888 0-1.181.707-1.771.886-2.595.178-.769.59-2.774.412-3.365-.234-.652-1.36-.885-1.772-1.181-.356-.178-.824.296-.768.825.061.59.473.473.947.59 0 0-.529 1.181-.474 2.005l-5.431 2.835.947 1.36c.234.412.769 6.021 2.362 8.678s2.184 1.888 2.54 2.245l1.181 1.181c.474.295 2.362.474 2.657-.59a5.3 5.3 0 0 1 1.889-2.424c1.18-.947 3.542-3.186 3.542-4.25 0 0 1.36 4.017 1.181 7.319 0 0 5.019 1.003 9.509 1.12 4.49 0 6.79-.886 6.79-.886s.591-3.776.357-4.545c0 0 .707 2.479 1.298 3.309.59 1.064 1.242 3.131 2.54 3.247 1.298.062 2.362-1.242 2.479-1.771v-4.016h5.135s2.245.885 2.953.769c.769-.062 1.181-.769.473-1.003l-.233-.178c.707 0 1.537.412 1.537.412h2.54l-.061-.296c-.178-.707-1.538-1.297-2.479-1.771-.947-.295-2.066-.707-2.774-.769-1.224-.11-2.46-.03-3.659.234-.474 0-2.301.234-3.426.769-.295.178-.591.234-.474-.591.179-.768.117-4.606-.769-6.199-.707-1.181-.59-2.129-.529-3.07a52 52 0 0 0 0-5.197c-.178-1.002-1.476-2.362-3.899-2.595-2.245-.296-4.133-2.184-4.312-3.66-.178-1.538.234-4.25.474-5.492"/><path fill="url(#b)" d="M252.226 93.082c-.412 1.95-.412 3.605-.357 5.493.062 1.242.652 2.718 1.181 3.955a5.9 5.9 0 0 0 1.655 2.3c2.128 1.359 4.133-.117 5.252-.59a3.76 3.76 0 0 0 1.593-1.477c.296-.707.179-1.242.474-2.657l.412-.233c.591-.886.412-1.181.707-1.772.357-.59-.295-1.297-1.064-1.18.357-1.12.591-2.363.234-3.482-.117-.357.295-1.298-.357-1.064-2.718 1.064-5.904.824-8.74.824-.233 0-.473-.473-.824-.412l-.178.295"/><path stroke="#000" stroke-miterlimit="3.84" stroke-width=".48" d="M252.226 93.082c-.412 1.95-.412 3.605-.357 5.493.062 1.242.652 2.718 1.181 3.955a5.9 5.9 0 0 0 1.655 2.3c2.128 1.359 4.133-.117 5.252-.59a3.76 3.76 0 0 0 1.593-1.477c.296-.707.179-1.242.474-2.657l.412-.233c.591-.886.412-1.181.707-1.772.357-.59-.295-1.297-1.064-1.18.357-1.12.591-2.363.234-3.482-.117-.357.295-1.298-.357-1.064-2.718 1.064-5.904.824-8.74.824-.233 0-.473-.473-.824-.412l-.178.295"/><path fill="#000001" d="M251.992 94.085c-.295-.234-.357-.769 0-1.888.412-1.181 0-1.181.652-1.888.652-.708.529-.948.947-1.12.412-.117 1.655-.117 2.067-.295a6.5 6.5 0 0 1 5.314-.178c.885.473 1.476 1.654 2.005 2.128.59.412 1.002 2.128.885 4.662-.178 2.54-.707 2.066-.707 2.066s-.707-1.18-1.298-.178c0 0 0-1.003.117-1.771.062-.652-.356-2.005.062-2.891 0 0-3.426 1.064-5.136 1.002-1.771-.116-4.367-.528-4.49-.947l-.412 1.298"/><path stroke="#000" stroke-miterlimit="3.84" stroke-width=".48" d="M251.992 94.085c-.295-.234-.357-.769 0-1.888.412-1.181 0-1.181.652-1.888.652-.708.529-.948.947-1.12.412-.117 1.655-.117 2.067-.295a6.5 6.5 0 0 1 5.314-.178c.885.473 1.476 1.654 2.005 2.128.59.412 1.002 2.128.885 4.662-.178 2.54-.707 2.066-.707 2.066s-.707-1.18-1.298-.178c0 0 0-1.003.117-1.771.062-.652-.356-2.005.062-2.891 0 0-3.426 1.064-5.136 1.002-1.771-.116-4.367-.528-4.49-.947l-.412 1.298"/><path fill="#fff" stroke="#fff" stroke-miterlimit="3.84" stroke-width=".48" d="M253.764 92.018c-.178-.356-1.064-1.71-.357-2.128.591-.356.234 1.655 1.181 2.067 0 0-.357.886-.824.061Z"/><path stroke="#000" stroke-miterlimit="3.84" stroke-width=".48" d="m255.713 96.92-.529 1.889m6.262.947c.117.357.233.178.59.234m.179-2.362c.295-.296.707-.117.473.769m-10.45-2.891 1.655.59c.885.357.357 1.71.117 2.54-.117.413-.591 1.181-.357 1.477.295.473.652.178 1.181.233 0-.178.357-.295.473-.295.413 0 .652.295 1.003.178.357-.178.295-.707.178-1.002m-.061-2.657c0-.234.59-.474.886-.53 1.242-.233 2.128-.411 3.186.296m-3.365 6.557c-1.064.233-2.128.412-3.069-.117m0-.474c.474-.234.652-.473 1.242-.178q.313-.159.652-.234c.474 0 .825.178 1.298.474m-3.247.178c.59-.178 1.949-.178 3.186.062"/><path fill="#fff" stroke="#000" stroke-miterlimit="3.84" stroke-width=".29" d="M252.171 96.92c.412 0 .947-.529 1.888.179.652.473-1.064.885-.769.824-.824.117-1.064-.295-1.119-.707 0-.062-.117-.296 0-.296Zm4.957.474c.413-.824 1.064-.59 1.655-.474.59.179.412.062 1.003.412-.708.062-.529.117-1.003.357-.529.295-1.003.412-1.359.179-.117-.117-.412-.296-.412-.591 0 .117 0 .178.116.178z"/><path fill="#000001" stroke="#000" stroke-miterlimit="3.84" stroke-width=".29" d="M253.056 97.683c.234 0 .412-.234.412-.474 0-.356-.178-.59-.412-.59-.295 0-.529.234-.529.59 0 .234.234.474.529.474Zm5.08.117c.234 0 .412-.234.412-.59a.474.474 0 0 0-.473-.474c-.234 0-.412.178-.412.474 0 .356.233.59.473.59Z"/><path stroke="#000" stroke-miterlimit="3.84" stroke-width=".48" d="M283.816 128.565a2.23 2.23 0 0 0-1.12-.824l-1.181-.591c-.412-.233-1.002-.295-1.414-.529m.295 1.538-.529-.295c-.178 0-.412 0-.591-.117 0 0 0-.117-.116-.117a2.05 2.05 0 0 1-1.415-.769m-37.082-5.492c.591.412 1.888 1.298 2.005 3.014.105.615.308 1.211.591 1.771m-7.793-4.49c.295 1.003.357 4.367 3.543 7.91m-2.953-12.634c-.233.652-.59 1.298.117 1.772m8.5 6.316c.652-1.537 2.719-1.414 2.719-2.835"/><path stroke="#000" stroke-miterlimit="3.84" stroke-width=".48" d="M247.742 124.789c-.178-1.71-.59-2.657-.233-5.136.117-.707.233-3.481 0-4.785 0 0 .947 4.607-2.184 5.492m20.309 7.381c0-2.362.591-3.66.591-3.66.707-3.309-.707-4.545-.178-5.375.528-.708 1.18-2.245.295-5.253 0 0 1.654 6.2-2.657 6.2-4.312 0-4.25-1.593-4.25-1.593"/><path stroke="#000" stroke-miterlimit="3.84" stroke-width=".48" d="M247.502 114.868c0 1.181 0 4.957 5.314 4.957 1.655 0 3.426-1.181 4.367-1.95m1.298-1.593c-.179-1.181-.179-2.595-.179-4.133m-8.032-2.005c1.414-.178 2.595-.357 5.314-.357m.117-3.721c.295 1.298-.179 3.426 2.362 3.721m2.54-4.194c-.357.947-.357 1.949-.474 2.595m.117 1.593c1.003 0 2.952-.652 5.314-.178m.824 13.463c.529.948.591 2.245 2.128 3.66m-18.716-6.729c.117.769-1.064 3.365-.178 5.493a7.28 7.28 0 0 1-.708 6.495m3.955-11.219c-.529 1.003-1.359 1.95-1.537 2.774m3.899-.947c0 .59-1.593 5.136-2.774 6.433 0 0 2.128.825 1.772 3.9m4.366-12.4c0 .708-.116.947.591 1.415m1.415 0c.768.947 3.247 3.838 2.718 5.431m-4.367-3.838c.179.59.179 3.721-.357 5.314m-1.242-.117c-.652 0-1.654.474-1.771 1.593m5.135-1.771c.652-.179 1.95.947 1.95 4.133m9.269-6.021c-1.242.356-1.771 1.002-1.415.652-.652.59-1.297.947-1.297.947"/><path fill="#000001" stroke="#000" stroke-miterlimit="3.84" stroke-width=".29" d="M250.694 119.296c.356 0 .652-.233.652-.59 0-.179-.296-.412-.652-.412-.295 0-.591.233-.591.473 0 .296.296.529.591.529Zm13.58.179c.357 0 .652-.234.652-.591 0-.234-.295-.412-.59-.412-.357 0-.652.178-.652.474 0 .295.295.529.59.529Z"/><path fill="#fff" stroke="#000" stroke-miterlimit="3.84" stroke-width=".48" d="M245.202 143.978c.769-4.723 2.953-8.561 3.014-8.973 0 0 2.301.529 6.261.885 3.9.413 4.958.234 6.791.117l4.016-.473s.707 1.414.769 2.835c.178 3.069 1.359 16.355 1.476 19.897 0 0 .474 2.128.474 7.264 0 5.671 1.537 17.123 1.537 23.262l-1.537.295s-8.562.652-8.562-.474c0-1.242-.474-15.942.824-24.86 0 0-.295-1.772-.824-3.248-.474-1.476-2.54-5.905-2.54-6.907 0 0-3.365 9.447-3.543 11.102-.178 1.537-.707 22.671-1.002 24.387 0 0-4.841 3.721-5.493 4.133-.652.234-5.314-2.005-5.492-2.596a124 124 0 0 1 2.718-19.601c.824-4.195.357-4.958.357-6.139s.061-16.237.769-20.899z"/><path stroke="#000" stroke-miterlimit="3.84" stroke-width=".48" d="M253.352 164.761c-.357 1.298-1.003 2.541-2.129 3.365m-1.593-31.651c-.178.769-1.359 4.311-4.25 6.433m8.445-5.787c-.652 2.128-3.247 13.402-3.721 26.804m-.178 4.195-1.003 12.282m-.473 1.772a41.9 41.9 0 0 0-1.593 11.04m19.011-21.256c-.117 1.18-.59 9.268 2.128 16.532m-10.923-50.779c-.179 1.359-.474 9.859-.474 10.511 0 .708.947 1.655 1.415 1.772 0 0-.948.357-1.181 3.543m-2.362-7.56c-.178 1.003-1.181 5.019-1.771 6.674m7.675-15.057s2.953.591 3.131 0c0 0 .947 17.419 2.245 27.161m-6.612-24.916-.357 9.743m1.477 1.242s1.119 1.655.824 2.362m-10.512-16.533 1.772.474m3.069.947c-.178.529-.357 2.719-.357 2.719m5.197 22.966c.357.473.825 1.181.474 2.595"/><path fill="#9B5F00" stroke="#000" stroke-miterlimit="3.84" stroke-width=".48" d="M247.86 134.882s0-1.888.652-2.836c0 0 2.066.412 4.957.708 2.952.295 5.314.529 7.442.295 2.184-.234 4.367-.769 4.367-.769s.591 2.835.296 3.248c0 0-2.362.473-4.902.59a50.5 50.5 0 0 1-8.562-.474 33 33 0 0 1-4.312-.768h.062z"/><path fill="#fff" d="m249.63 135.122.412-2.836h.591l-.117 3.014-.824-.117m12.99-2.423.061 3.247.769-.117-.061-3.309zm-9.214 0-.233 3.13h.412l.412-3.13z"/><path stroke="#000" stroke-miterlimit="3.84" stroke-width=".48" d="m249.63 135.122.412-2.836h.591l-.117 3.014-.824-.117m12.99-2.423.061 3.247.769-.117-.061-3.309zm-9.214 0-.233 3.13h.412l.412-3.13z"/><path fill="#FFA54B" stroke="#000" stroke-miterlimit="3.84" stroke-width=".48" d="M243.019 191.805c-.178.769-.473 1.889-.59 3.248 0 .295-.357 1.95.59 2.005.591 0 .824-1.71.824-1.71s-.59 1.95.179 2.184c1.064.233 1.181-2.128 1.181-2.128-.117.651-.825 2.361.178 2.54 1.119.178 1.415-2.301 1.415-2.301s-.948 2.479.178 2.541c1.002 0 1.002-2.362 1.002-2.362s-.528 2.952.886 2.657c.824-.117 1.003-1.181 1.181-1.772.234-.885.769-2.005.117-3.899-.474-1.359-.295-1.771-.295-1.771s-1.71 1.297-3.014 2.128c-.591.356-3.838-1.36-3.838-1.36zm17.535-2.595c-.295-.178-.233 1.119-.356 1.71-.062.59.117 1.888 2.128 1.771 2.005-.178 3.955-.59 5.252-.295 1.243.357 3.131.412 4.134.412 1.002 0 1.654-.117 2.183-.295.412-.179 1.298.233 1.771.233.474 0 1.003-.59.948-1.064 0-.768-.769-.768-1.772-.824a13 13 0 0 1-2.952-.59c-.652-.179-1.833-.886-3.364-1.181l-3.482.117c-.59 0-4.133.178-4.49 0z"/><path fill="#FFB366" stroke="#000" stroke-miterlimit="3.84" stroke-width=".48" d="M230.558 114.456c-.295.178-.652-1.181.234-1.71 0 0 .233-1.181 1.181-1.243 0 0 .824-1.119 1.949-1.002 0 0 1.298-.886 1.772-.769.529.061 1.771 1.242 1.771 1.71.117.412 0 1.119-.295 1.414-.357.357-.591-.061-.652-.59 0 0 .234.947-.474 1.298-.707.412-.652.117-.707-.357 0 0-.234.947-.707 1.119-.474.179-.769-.295-1.181-.295 0 0 .652.529.233.886-.412.295-.885.178-1.181-.062-.295-.295-.707-1.119-1.949-.356v-.062z"/><path stroke="#000" stroke-miterlimit="3.84" stroke-width=".48" d="M236.462 112.211c-.295-.886-1.297-1.772-2.361-1.655m1.297 2.596c-.178-.234-.233-.474-.473-.707-.529-.886-1.655-.825-2.596-1.065m1.415 2.658c-.357-.234-.474-.708-.824-.886-.591-.234-1.181-.529-1.95-.412"/><path fill="url(#c)" d="M338.85 99.873c.412-.179.295.356.357.59.233.769.233 1.593.529 2.3.356.652.473.886 1.064 1.181.947.591 3.776 2.128 5.787.886q.23-.12.413-.295s-.769 2.423 1.771 3.659l9.213 4.841s.886 1.593.357 3.838c-.117.357-.233.652.117.886.591.412 1.538 1.654 2.245 3.542 0 0 1.771-.768 1.771-1.888 0-1.181-.768-1.771-.947-2.595-.117-.769-.59-2.774-.357-3.365.234-.652 1.243-.885 1.655-1.181.412-.178.947.296.769.824 0 .591-.474.474-.947.591 0 0 .59 1.181.473 2.005l5.548 2.835-.947 1.36c-.295.412-.886 6.021-2.479 8.623-1.654 2.657-2.183 1.95-2.478 2.362l-1.243 1.064c-.357.295-2.245.529-2.657-.529a5.33 5.33 0 0 0-1.833-2.424c-1.181-.947-3.543-3.186-3.543-4.25 0 0-1.359 4.017-1.18 7.32 0 0-4.958 1.002-9.565 1.119-4.49 0-6.79-.886-6.79-.886s-.59-3.776-.357-4.545c0 0-.707 2.479-1.181 3.309-.652 1.064-1.297 3.131-2.595 3.248-1.298.061-2.362-1.243-2.479-1.772v-4.016h-5.136s-2.244.886-2.952.769c-.769-.062-1.119-.769-.529-1.003l.234-.178a4.1 4.1 0 0 0-1.476.412h-2.54l.061-.295c.179-.708 1.538-1.298 2.54-1.772.948-.295 1.95-.707 2.719-.769 1.119-.116 1.888-.061 3.659.234.474 0 2.362.234 3.426.769.296.178.591.234.474-.591-.178-.768-.707-3.247.178-4.902.591-1.119.529-2.066.474-3.069-.117-1.002-.652-3.309-.652-4.311 0-3.365 2.596-4.724 4.84-5.431 2.541-.824 4.195-1.655 4.134-3.131-.117-1.593.295-4.133.061-5.314"/><path stroke="#000" stroke-miterlimit="3.84" stroke-width=".48" d="M338.85 99.873c.412-.179.295.356.357.59.233.769.233 1.593.529 2.3.356.652.473.886 1.064 1.181.947.591 3.776 2.128 5.787.886q.23-.12.413-.295s-.769 2.423 1.771 3.659l9.213 4.841s.886 1.593.357 3.838c-.117.357-.233.652.117.886.591.412 1.538 1.654 2.245 3.542 0 0 1.771-.768 1.771-1.888 0-1.181-.768-1.771-.947-2.595-.117-.769-.59-2.774-.357-3.365.234-.652 1.243-.885 1.655-1.181.412-.178.947.296.769.824 0 .591-.474.474-.947.591 0 0 .59 1.181.473 2.005l5.548 2.835-.947 1.36c-.295.412-.886 6.021-2.479 8.623-1.654 2.657-2.183 1.95-2.479 2.362l-1.242 1.064c-.357.295-2.245.529-2.657-.529a5.33 5.33 0 0 0-1.833-2.424c-1.181-.947-3.543-3.186-3.543-4.25 0 0-1.359 4.017-1.18 7.32 0 0-4.958 1.002-9.565 1.119-4.49 0-6.79-.886-6.79-.886s-.59-3.776-.357-4.545c0 0-.707 2.479-1.181 3.309-.652 1.064-1.297 3.131-2.595 3.248-1.298.061-2.362-1.243-2.479-1.772v-4.016h-5.136s-2.244.886-2.952.769c-.769-.062-1.119-.769-.529-1.003l.234-.178a4.1 4.1 0 0 0-1.476.412h-2.54l.061-.295c.179-.708 1.538-1.298 2.54-1.772.948-.295 1.95-.707 2.719-.769 1.119-.116 1.888-.061 3.659.234.474 0 2.362.234 3.426.769.296.178.591.234.474-.591-.178-.768-.707-3.247.178-4.902.591-1.119.529-2.066.474-3.069-.117-1.002-.652-3.309-.652-4.311 0-3.365 2.596-4.724 4.84-5.431 2.541-.824 4.195-1.655 4.134-3.131-.117-1.593.295-4.133.061-5.314"/><path fill="url(#d)" d="M349.004 93.083c.375 1.008.615 2.06.708 3.13 0 .708-.296.824-.062 1.655.412 1.414-.473 2.952-1.476 4.723-.474.708-.824 1.772-1.593 2.245-2.005 1.243-4.428-.233-5.671-.768a2.18 2.18 0 0 1-1.181-1.298c-.233-.708-.295-1.36-.473-2.362 0-.178 0-.707-.357-.53-.769-.823-.591-1.18-.947-1.77-.296-.59.59-1.298 1.181-1.181a5.9 5.9 0 0 1-.117-3.482c.117-.356-.357-1.297.295-1.064 2.657 1.064 5.905.825 8.74.825.234 0 .412-.474.769-.413l.178.296"/><path stroke="#000" stroke-miterlimit="3.84" stroke-width=".48" d="M349.004 93.083c.375 1.008.615 2.06.708 3.13 0 .708-.296.824-.062 1.655.412 1.414-.473 2.952-1.476 4.723-.474.708-.824 1.772-1.593 2.245-2.005 1.243-4.428-.233-5.671-.768a2.18 2.18 0 0 1-1.181-1.298c-.233-.708-.295-1.36-.473-2.362 0-.178 0-.707-.357-.53-.769-.823-.591-1.18-.947-1.77-.296-.59.59-1.298 1.181-1.181a5.9 5.9 0 0 1-.117-3.482c.117-.356-.357-1.297.295-1.064 2.657 1.064 5.905.825 8.74.825.234 0 .412-.474.769-.413l.178.296"/><path fill="#000001" stroke="#000" stroke-miterlimit="3.84" stroke-width=".48" d="M349.299 94.085c.234-.234.062-1.36-.234-2.54-.061-.59-.59-.886-1.181-1.538-.59-.652-.947-.59-1.359-.824-.357-.117-1.181-.117-1.654-.295-.357-.178-1.298-.062-2.184.061-1.181.179-1.888.117-2.774.59-.885.474-1.654 1.065-1.949 1.95-.234.591-.591 1.477-.474 4.017s.59 2.067.59 2.067.652-1.003 1.12-.357l-.179-2.128c-.061-.708 0-1.655.296-2.719 0 0 2.718 1.003 5.314 1.003 1.771 0 4.133-.179 4.194-.59l.413 1.297h.061z"/><path stroke="#000" stroke-miterlimit="3.84" stroke-width=".48" d="M345.517 96.92c.412 1.064.061.77.234 1.415m-6.022 1.18c0 .475-.357.358-.59.358"/><path stroke="#000" stroke-miterlimit="3.84" stroke-width=".48" d="M349.355 96.152c-.59-.412-1.593-.117-2.067.061-.885.412-.412 1.36-.116 2.184.116.412.59 1.002.295 1.414-.234.474-.412.234-.947.295 0-.178-.474 0-.652 0-.357 0-.591.234-.886.117-.357-.178-.295-.707-.178-1.002m.061-2.657c0-.234-.769-.474-1.593-.53-1.359 0-1.476.062-2.479.77m6.791 5.314c-.234-.357-.591-.591-1.243-.234 0-.117-.947-.234-.947-.234-.474 0-.769.179-1.242.412m3.309.357c-.591-.357-1.95-.117-3.309-.117m.117.474c1.002.295 2.066.473 3.069 0"/><path fill="#fff" stroke="#000" stroke-miterlimit="3.84" stroke-width=".29" d="M349.059 96.92c-.412 0-.59-.529-1.833.179-.652.412 1.064.885.825.824.707.117.947-.295 1.002-.707 0-.062.117-.296 0-.296zm-4.902.474c0-.474-1.064-.59-1.71-.474-.59.179-.295.062-.885.412.59.062.412.117.947.357.529.296.59.53 1.359.179.179-.062.412-.296.474-.59 0 .116-.117.177-.179.177v-.061z"/><path fill="#000001" stroke="#000" stroke-miterlimit="3.84" stroke-width=".29" d="M348.298 97.683a.474.474 0 0 1-.474-.473c0-.357.179-.59.474-.59.234 0 .412.233.412.59 0 .233-.178.473-.412.473Zm-5.136.117c-.234 0-.412-.234-.412-.59 0-.296.234-.474.474-.474s.412.178.412.474c0 .356-.179.59-.474.59Z"/><path stroke="#000" stroke-miterlimit="3.84" stroke-width=".48" d="M317.471 128.565c.276-.387.67-.676 1.119-.824l1.181-.59c.412-.234 1.003-.296 1.415-.529m-.296 1.537.529-.295c.179 0 .412 0 .591-.117 0 0 0-.117.117-.117a2.05 2.05 0 0 0 1.414-.769m37.082-5.492c-.59.412-1.888 1.298-2.005 3.014a6.2 6.2 0 0 1-.59 1.771m7.792-4.49c-.295 1.003-.356 4.367-3.542 7.91m2.952-12.633c.234.652.59 1.297-.117 1.771m-8.5 6.317c-.652-1.538-2.719-1.415-2.719-2.836"/><path stroke="#000" stroke-miterlimit="3.84" stroke-width=".48" d="M353.55 124.789c.179-1.71.591-2.657.234-5.136-.117-.707-.234-3.481 0-4.785 0 0-.947 4.607 2.183 5.492m-20.309 7.381c0-2.362-.59-3.66-.59-3.66-.708-3.309.707-4.545.178-5.375-.529-.707-1.181-2.245-.295-5.253 0 0-1.655 6.2 2.657 6.2 4.311 0 4.25-1.593 4.25-1.593"/><path stroke="#000" stroke-miterlimit="3.84" stroke-width=".48" d="M353.784 114.868c0 1.181 0 4.957-5.314 4.957-1.655 0-3.426-1.181-4.367-1.949m-1.298-1.593c.178-1.181.178-2.596.178-4.134m8.033-2.005c-1.415-.178-2.595-.356-5.314-.356m-.117-3.722c-.295 1.298.179 3.426-2.362 3.722m-2.54-4.195c.357.947.357 1.95.474 2.595m-.117 1.593c-1.003 0-2.952-.652-5.314-.178m-.824 13.464c-.529.947-.591 2.245-2.129 3.659m18.717-6.729c-.117.769 1.064 3.365.178 5.493a7.27 7.27 0 0 0 .707 6.495m-3.954-11.219c.529 1.003 1.359 1.95 1.537 2.774m-3.899-.947c0 .59 1.593 5.136 2.774 6.434 0 0-2.128.824-1.772 3.899m-4.367-12.4c0 .708.117.948-.59 1.415m-1.415 0c-.769.947-3.247 3.838-2.718 5.431m4.367-3.838c-.179.591-.179 3.721.356 5.314m1.243-.117c.652 0 1.654.474 1.771 1.593m-5.136-1.771c-.652-.178-1.949.947-1.949 4.133m-9.269-6.021c1.242.356 1.771 1.002 1.414.652.652.59 1.298.947 1.298.947"/><path fill="#000001" stroke="#000" stroke-miterlimit="3.84" stroke-width=".29" d="M350.597 119.296c-.357 0-.652-.233-.652-.59 0-.178.295-.412.652-.412.295 0 .591.234.591.473 0 .296-.296.529-.591.529Zm-13.58.179c-.357 0-.652-.234-.652-.591 0-.233.295-.412.59-.412.357 0 .652.179.652.474s-.295.529-.59.529Z"/><path fill="#fff" stroke="#000" stroke-miterlimit="3.84" stroke-width=".48" d="M356.091 143.979c-.769-4.724-2.953-8.562-3.014-8.974 0 0-2.301.529-6.262.886-3.899.412-4.957.233-6.79.116l-4.016-.473s-.707 1.414-.769 2.835c-.178 3.069-1.359 16.355-1.476 19.897 0 0-.474 2.129-.474 7.264 0 5.671-1.537 17.123-1.537 23.262l1.537.295s8.562.652 8.562-.474c0-1.242.474-15.942-.824-24.86 0 0 .295-1.772.824-3.248.474-1.476 2.54-5.904 2.54-6.907 0 0 3.365 9.447 3.543 11.102.178 1.538.707 22.671 1.002 24.387 0 0 4.841 3.721 5.493 4.133.652.234 5.314-2.005 5.492-2.595a124 124 0 0 0-2.718-19.602c-.824-4.195-.357-4.958-.357-6.139 0-1.18-.061-16.237-.769-20.899z"/><path stroke="#000" stroke-miterlimit="3.84" stroke-width=".48" d="M347.941 164.762c.357 1.297 1.002 2.54 2.128 3.364m1.593-31.651c.178.769 1.359 4.312 4.25 6.433m-8.445-5.787c.652 2.128 3.248 13.402 3.721 26.804m.179 4.195 1.002 12.282m.474 1.772a42 42 0 0 1 1.593 11.04m-19.012-21.256c.117 1.181.591 9.269-2.128 16.532m10.924-50.779c.178 1.36.473 9.86.473 10.512 0 .707-.947 1.654-1.414 1.771 0 0 .947.357 1.181 3.543m2.362-7.559c.178 1.002 1.18 5.019 1.771 6.673m-7.676-15.057s-2.952.591-3.131 0c0 0-.947 17.419-2.245 27.161m6.612-24.916.357 9.743m-1.476 1.242s-1.12 1.655-.824 2.362m10.511-16.533-1.771.474m-3.07.947c.179.529.357 2.719.357 2.719m-5.197 22.966c-.357.474-.824 1.181-.474 2.596"/><path fill="#9B5F00" stroke="#000" stroke-miterlimit="3.84" stroke-width=".48" d="M353.434 134.882s0-1.888-.652-2.835c0 0-2.067.412-4.958.707-2.952.295-5.314.529-7.442.295-2.183-.234-4.367-.769-4.367-.769s-.59 2.836-.295 3.248c0 0 2.362.473 4.902.59a50.6 50.6 0 0 0 8.561-.473 33 33 0 0 0 4.312-.769h-.061z"/><path fill="#fff" d="m351.661 135.122-.412-2.836h-.59l.117 3.014.824-.117m-12.99-2.423-.062 3.247-.768-.116.061-3.309zm9.213 0 .234 3.131h-.412l-.412-3.131z"/><path stroke="#000" stroke-miterlimit="3.84" stroke-width=".48" d="m351.661 135.122-.412-2.836h-.59l.117 3.014.824-.117m-12.99-2.423-.062 3.247-.768-.116.061-3.309zm9.213 0 .234 3.131h-.412l-.412-3.131z"/><path fill="#730000" stroke="#000" stroke-miterlimit="3.84" stroke-width=".48" d="M358.273 191.806c.179.768.474 1.888.591 3.247 0 .295.356 1.95-.591 2.005-.59 0-.824-1.71-.824-1.71s.591 1.95-.178 2.184c-1.064.234-1.181-2.128-1.181-2.128.117.652.824 2.362-.179 2.54-1.119.178-1.414-2.3-1.414-2.3s.947 2.478-.179 2.54c-1.002 0-1.002-2.362-1.002-2.362s.529 2.952-.886 2.657c-.824-.117-1.002-1.181-1.181-1.771-.233-.886-.768-2.005-.117-3.9.474-1.359.296-1.771.296-1.771s1.71 1.298 3.013 2.128c.591.357 3.838-1.359 3.838-1.359zm-17.535-2.596c.295-.178.234 1.119.357 1.71.061.59-.117 1.888-2.128 1.771-2.005-.178-3.955-.59-5.253-.295-1.242.357-3.131.412-4.133.412s-1.655-.117-2.184-.295c-.412-.178-1.297.234-1.771.234s-1.003-.591-.947-1.064c0-.769.769-.769 1.771-.825a13 13 0 0 0 2.952-.59c.652-.178 1.833-.886 3.365-1.181l3.481.117c.591 0 4.133.178 4.49 0zM369.849 116.639c.295.117 1.181-1.181.295-1.771 0 0-.295-1.181-1.181-1.181 0 0-.824-1.181-2.005-1.002 0 0-1.181-.886-1.71-.825-.59.117-1.771 1.298-1.771 1.772-.117.295 0 1.064.295 1.414.357.296.591-.061.591-.59 0 0-.179.886.529 1.298.707.412.652 0 .707-.412 0 0 .178.947.652 1.18.529.117.824-.295 1.181-.295 0 0-.591.474-.178.769.412.357.885.178 1.18 0 .357-.295.179-1.064 1.415-.357Z"/><path stroke="#000" stroke-miterlimit="3.84" stroke-width=".48" d="M364.473 114.456c.295-1.064 1.298-1.888 2.362-1.71m-1.181 2.595c.062-.233.117-.473.295-.707.591-.947 1.772-.947 2.719-1.119m-1.476 2.657c.356-.234.473-.652.824-.824a3.12 3.12 0 0 1 1.888-.413"/><path fill="#730000" d="M364.356 112.684c-.529.413-1.064 1.064-1.119 1.298 0 .412 0 1.12.295 1.476.357.296.591 0 .652-.473 0 .295 0 .885.474 1.181.768.412.707.061.768-.412 0 0 .179.947.591 1.181.529.116.824-.296 1.181-.296 0 0-.591.474-.179.769.413.357.886.178 1.181 0 .357-.295.179-1.064 1.476-.357.117.117.474-.233.591-.652l-4.545-3.247-1.36-.474z"/><path stroke="#000" stroke-miterlimit="3.84" stroke-width=".48" d="M363.409 113.509c-.885 1.537.295 2.423.652 1.537-.061 1.415 1.003 1.36 1.359.886.413 1.476 1.12.824 1.772.707-.769 1.36.824.947 1.181.591.59-.769.824-.117 1.181-.179l.768-.768m-4.723-3.365c-1.003.591-1.476 1.298-1.538 2.184m2.952-1.298c-1.064.59-1.537 1.298-1.537 2.183m3.186-1.002c-1.003.529-1.064 1.002-1.476 1.654"/><path fill="#5AC800" d="m250.873 193.485-.123-2.768 1.169.984.246-2.091c.492-.123 1.291.799 1.291.799l-.123-2.091 1.722 1.907s-.123-1.599.492-2.583c0 0 1.354 1.168 1.354 2.46 0 1.168 1.107-1.599 1.107-1.599.326 1.027.658 2.048.984 3.075l.799-1.169.615 2.461 1.477-2.153 1.107 2.46 2.583-.184.307 1.476 1.169-1.23 1.476.922s1.23-.369 1.907-.369c.676 0 1.476.861 1.476.861s.492-.861.923-1.168c.43-.308 1.168.492 1.353.984l.984-1.784s1.23 1.23 1.414 1.784c0 0 .185-1.476.492-1.968.308-.431.739.184 1.108.799l.799-2.583s.861.184 1.415 1.168c.676.923.676-1.476.676-1.476s1.477 1.968 1.846 3.26c0 0-9.964 3.444-16.976 2.46a190 190 0 0 1-15.069-2.644m68.21-.308s.431-1.292 1.107-1.968c0 0 1.23 1.476 1.23 1.968l1.046-.615.984.923 1.107-.8 1.107.984 1.968-.861.8.861 3.075-.369 1.107.492 1.107-1.415.984 1.108 1.661-1.6s.8.616.923 1.108c0 0 1.353-.615 1.66-1.108 0 0 1.23-.492 1.415.308 0 0 .8-.615.738-1.23-.061-.738.923-.246 1.23.615 0 0 .308-1.353 1.23-1.476 0 0 .738.799.554 2.275 0 0 1.414-1.168 2.091-1.291 0 0 .308 1.599-.184 3.075 0 0 1.476-2.46 1.845-1.66.061.492.43 2.152.061 3.259l1.353-.799.492 1.599 1.415-.308s-8.549 1.292-16.607.554c-7.995-.8-15.561-3.629-15.561-3.629m-5.904 5.966c.369-.246-2.706 6.335-10.149 6.704-10.394.492-19.251-4.736-19.251-4.736s1.107-1.783 1.784-2.275c0 0 1.414 1.168 1.845 2.583 0 0 .246-.923.738-1.784 0 0 1.784.861 2.091 1.968 0 0 .615-1.107 1.107-1.414.492-.369.984 1.23.984 2.214 0 0 1.169-1.23 1.846-1.23 0 0 1.23.615 1.599 2.645 0 0 1.23-1.108 1.599-.923 0 0 1.415.923 1.107 2.276-.185.738 1.415-.861 3.383-1.353l1.784 1.353 2.091-2.891s1.291.492 1.291 1.23c0 0 .615-2.276 1.107-2.46.492-.308 1.108.676 1.108 1.353 0 0 .184-1.722 1.168-2.091 0 0 .984.615.984 1.291 0 0 .984-1.968 1.784-2.46"/><path stroke="#060" stroke-width=".5" d="m250.873 193.485-.123-2.768 1.169.984.246-2.091c.492-.123 1.291.799 1.291.799l-.123-2.091 1.722 1.907s-.123-1.599.492-2.583c0 0 1.354 1.168 1.354 2.46 0 1.168 1.107-1.599 1.107-1.599l.984 3.075.799-1.169.615 2.461 1.477-2.153 1.107 2.46 2.583-.184.307 1.476 1.169-1.23 1.476.922s1.23-.369 1.907-.369c.676 0 1.476.861 1.476.861s.492-.861.923-1.168c.492-.308 1.168.492 1.353.984l.984-1.784s1.23 1.292 1.414 1.784c0 0 .185-1.476.492-1.968.308-.431.739.184 1.108.799l.799-2.583s.861.184 1.415 1.168c.676.923.676-1.476.676-1.476s1.477 1.968 1.846 3.26m36.103-.492s.493-1.292 1.169-1.968c0 0 1.23 1.476 1.23 1.968l1.046-.615.984.923 1.107-.8 1.107.984 1.968-.861.8.861 3.075-.369 1.107.492 1.107-1.353.984 1.046 1.661-1.6s.738.616.923 1.108c0 0 1.353-.615 1.66-1.108 0 0 1.23-.492 1.415.308 0 0 .8-.615.738-1.23-.061-.738.923-.246 1.23.615 0 0 .308-1.353 1.23-1.476 0 0 .738.799.554 2.275 0 0 1.414-1.168 2.091-1.23 0 0 .308 1.538-.184 3.014 0 0 1.476-2.46 1.845-1.66.061.492.43 2.152.061 3.259l1.353-.799.492 1.599 1.415-.308m-67.533 4.921s1.107-1.845 1.783-2.276c0 0 1.415 1.107 1.907 2.583 0 0 .184-.984.615-1.845 0 0 1.845.861 2.153 1.968 0 0 .615-1.107 1.168-1.414.431-.369.923 1.23.923 2.214 0 0 1.169-1.23 1.845-1.23 0 0 1.23.615 1.599 2.706 0 0 1.23-1.169 1.599-.984 0 0 1.477.984 1.108 2.276-.185.738 1.414-.861 3.382-1.292l1.784 1.292 2.091-2.891s1.292.492 1.292 1.23c0 0 .615-2.214 1.107-2.46.492-.308 1.169.676 1.169 1.353 0 0 .184-1.722 1.107-2.091 0 0 .984.615.984 1.291 0 0 .984-1.968 1.845-2.46"/><path fill="#fff" d="M300.693 224.975c13.531.123 21.527-4.797 25.832-7.749 10.333-6.889 12.486-7.135 14.147-7.012 1.906.185 4.735.8 4.92 2.46.123 2.645-4.059 3.752-6.458 3.752s-8.918-1.599-8.918-1.599l-1.661 1.169c1.107.492 14.269 4.92 16.791.738 2.583-4.183 5.166-11.01 5.166-11.01s-2.89-5.166-9.287-5.166-12.793 4.121-16.976 7.196c-4.243 3.075-9.533 7.258-23.556 7.258s-19.436-4.183-23.619-7.258c-4.243-3.075-10.517-7.196-16.975-7.196a11.06 11.06 0 0 0-9.349 5.166s2.583 6.766 5.166 11.071c2.522 4.121 15.684-.307 16.792-.861l-1.6-1.107s-6.396 1.599-8.856 1.599-6.705-1.107-6.52-3.69c.123-1.722 2.952-2.337 4.92-2.522 1.661-.123 3.814.123 14.085 7.012a44.3 44.3 0 0 0 25.956 7.749"/><path fill="#fff" d="M278.919 209.046s0-1.169-.184-2.83c-.246-2.152-1.476-2.706-2.46-2.398-.739.246-2.03 1.845-2.03 1.845v.061a19 19 0 0 0-1.845-1.107 11 11 0 0 1 3.875-2.214c.615 0 8.918 3.321 11.563 5.597.615.615 1.107 4.305.738 5.535a28.6 28.6 0 0 1-9.657-4.428m-3.998 8.365s-1.783 1.845-1.845 5.105c0 3.875 2.768 4.059 4.613 3.998 2.276 0 4.06-1.292 3.998-5.474 0 0-3.69-1.538-6.766-3.691m47.421-8.364.246-2.83c.246-2.152 1.477-2.706 2.461-2.398.615.246 1.968 1.845 1.968 1.845v.061l1.845-1.107c-.431-.615-3.198-2.214-3.813-2.214s-8.919 3.321-11.563 5.597c-.616.615-1.108 4.305-.8 5.535a28 28 0 0 0 9.656-4.428zm3.998 8.426s1.784 1.845 1.845 5.105c.123 3.875-2.767 4.059-4.612 3.998-2.215 0-3.998-1.292-3.998-5.474 0 0 3.69-1.538 6.765-3.691"/><path fill="#69F" d="M271.047 214.827s-6.396 1.599-8.795 1.599-6.704-1.107-6.52-3.69c.123-1.722 2.953-2.337 4.921-2.522 1.414-.123 3.26 0 10.456 4.613m59.107 0s6.458 1.599 8.918 1.599 6.581-1.107 6.397-3.69c-.123-1.722-2.952-2.337-4.859-2.522-1.415-.123-3.321 0-10.456 4.613m-51.296-5.72a61 61 0 0 1-1.907-1.415c-.922-.676-1.845-1.23-2.767-1.968 0 0 1.291-1.661 1.968-1.845 1.045-.369 2.275.184 2.521 2.337.185 1.661.185 2.891.185 2.891m-4.367 16.976c1.107.615 2.399.615 3.137.492 2.276 0 4.059-1.292 3.998-5.474 0 0 2.768 1.414 7.257 2.46 0 0 .739.922.862 2.706.184 1.538-.862 3.137-2.03 3.075 0 0-6.335-1.23-10.149-1.845-2.275-.43-3.075-1.414-3.075-1.414m47.79-16.976 1.968-1.415 2.707-1.968s-1.292-1.661-1.969-1.845c-.984-.369-2.214.184-2.46 2.337zm4.367 16.976c-1.107.615-2.399.615-3.137.492-2.214 0-3.998-1.292-3.998-5.474 0 0-2.767 1.414-7.196 2.46 0 0-.799.922-.922 2.706-.123 1.538.922 3.137 2.091 3.075 0 0 6.335-1.23 10.148-1.845 2.214-.43 3.076-1.414 3.076-1.414"/><path stroke="#000" stroke-width=".7" d="M300.693 224.975c13.531.123 21.527-4.797 25.832-7.749 10.333-6.889 12.486-7.135 14.147-7.012 1.906.185 4.735.8 4.92 2.46.123 2.645-4.059 3.752-6.458 3.752s-8.918-1.599-8.918-1.599l-1.661 1.169c1.107.492 14.269 4.92 16.791.738 2.583-4.183 5.166-11.01 5.166-11.01s-2.89-5.166-9.287-5.166-12.793 4.121-17.037 7.196c-4.182 3.075-9.472 7.258-23.495 7.258s-19.436-4.183-23.619-7.258c-4.243-3.075-10.517-7.196-16.975-7.196s-9.349 5.166-9.349 5.166 2.583 6.766 5.166 11.071c2.522 4.121 15.684-.307 16.853-.861l-1.661-1.107s-6.396 1.599-8.856 1.599-6.705-1.107-6.52-3.69c.123-1.722 2.952-2.337 4.92-2.522 1.661-.123 3.814.123 14.085 7.012a44.3 44.3 0 0 0 25.956 7.749Z"/><path stroke="#000" stroke-width=".7" d="M271.048 214.827s-6.397 1.599-8.796 1.599-6.704-1.107-6.519-3.69c.123-1.722 2.952-2.337 4.92-2.522 1.415-.123 3.26 0 10.456 4.613zm59.168 0s6.458 1.599 8.919 1.599c2.46 0 6.581-1.107 6.396-3.69-.123-1.722-2.952-2.337-4.859-2.522-1.414-.123-3.321 0-10.456 4.613Zm-51.296-5.72a61 61 0 0 1-1.906-1.415c-.923-.676-1.845-1.23-2.768-1.968 0 0 1.292-1.661 1.968-1.845 1.046-.369 2.276.184 2.522 2.337.184 1.722.184 2.891.184 2.891Z"/><path stroke="#000" stroke-width=".7" d="M278.919 209.046s0-1.169-.184-2.83c-.246-2.152-1.476-2.706-2.46-2.398-.739.246-2.03 1.845-2.03 1.845v.061a20 20 0 0 0-1.845-1.107 11 11 0 0 1 3.875-2.214c.615 0 8.918 3.321 11.563 5.597.615.615 1.107 4.305.738 5.535a28.6 28.6 0 0 1-9.657-4.428m-3.998 8.365s-1.783 1.845-1.845 5.105c0 3.875 2.768 4.059 4.613 3.998 2.276 0 4.06-1.292 3.998-5.474 0 0-3.69-1.538-6.766-3.691z"/><path stroke="#000" stroke-width=".7" d="M276.459 218.333s-1.414 1.538-1.66 3.998c-.123 1.906 1.107 3.014 2.768 2.891 2.275-.123 3.136-3.26 2.091-4.982l-3.199-1.846"/><path stroke="#000" stroke-width=".7" d="M274.552 226.082c1.108.616 2.399.616 3.199.493 2.214 0 3.998-1.292 3.936-5.474 0 0 2.768 1.414 7.258 2.46 0 0 .738.922.861 2.768.184 1.476-.861 3.075-2.03 2.952l-10.148-1.784c-2.276-.43-3.076-1.415-3.076-1.415Zm47.791-16.975 2.029-1.415c.8-.676 1.722-1.23 2.706-1.968 0 0-1.353-1.661-2.029-1.845-.984-.369-2.214.184-2.46 2.337z"/><path stroke="#000" stroke-width=".7" d="m322.343 209.046.246-2.83c.246-2.152 1.476-2.706 2.46-2.398.615.246 1.969 1.845 1.969 1.845v.061c.596-.4 1.211-.775 1.845-1.107-.431-.553-3.199-2.214-3.814-2.214s-8.918 3.321-11.563 5.597c-.615.615-1.107 4.305-.799 5.535a28.1 28.1 0 0 0 9.656-4.428m3.998 8.365s1.784 1.845 1.845 5.105c.123 3.875-2.768 4.059-4.613 3.998-2.214 0-3.998-1.292-3.998-5.474 0 0 3.691-1.538 6.766-3.691z"/><path stroke="#000" stroke-width=".7" d="M324.803 218.333s1.477 1.538 1.723 3.998c.184 1.906-1.169 3.014-2.768 2.891-2.276-.123-3.137-3.26-2.091-4.982l3.136-1.846"/><path stroke="#000" stroke-width=".7" d="M326.772 226.083a5.36 5.36 0 0 1-3.199.492c-2.214 0-3.998-1.292-3.998-5.474 0 0-2.767 1.414-7.196 2.46 0 0-.799.922-.922 2.768-.123 1.476.922 3.075 2.091 2.952l10.148-1.784c2.215-.43 3.076-1.414 3.076-1.414Z"/><path stroke="#fff" stroke-width=".7" d="M288.453 224.668s2.029 1.476-.431 3.26m-5.535-4.183 6.15 2.645m-5.105-1.291 4.429 1.906m-2.83-3.075 3.322 1.538m24.417-.8s-2.029 1.476.369 3.26m5.536-4.183-6.151 2.645m5.167-1.291-4.428 1.906m2.829-3.075-3.322 1.538"/><path fill="#000" stroke="#000" stroke-width=".7" d="M264.711 206.216c.123.123.123.246.185.431.024.16.024.332 0 .492a1.49 1.49 0 0 1-.738.984c-.4.252-.886.344-1.353.246a2.2 2.2 0 0 1-.615-.246 2.6 2.6 0 0 1-.615-.369l-.185.246-.246-.062.246-1.783.308.061c0 .246 0 .431.123.615l.184.615.431.369c.123.123.307.185.553.246h.431a.75.75 0 0 0 .553-.369q.095-.175.123-.369a1.05 1.05 0 0 0-.061-.615 1.1 1.1 0 0 0-.431-.43c-.166-.105-.326-.209-.492-.308l-.492-.369c-.307-.184-.492-.369-.615-.615s-.123-.492-.061-.861c0-.184.123-.369.246-.492a1.54 1.54 0 0 1 .922-.615c.203-.037.412-.037.615 0l.615.246.492.369.185-.246.307.061-.307 1.723-.308-.062a9 9 0 0 0 0-.615 2.1 2.1 0 0 0-.246-.492 1.1 1.1 0 0 0-.307-.431 1.3 1.3 0 0 0-.492-.246.84.84 0 0 0-.615.123c-.246.123-.369.308-.369.493v.615l.43.43.492.308c.277.19.548.393.8.615.123 0 .246.184.307.307Zm7.381.984-.307-.061a.9.9 0 0 0-.308-.062.34.34 0 0 0-.308.185c-.141.19-.264.4-.369.615l-1.107 1.907c-.227.449-.67.75-1.168.799h-.677a2.6 2.6 0 0 1-.615-.307 2.7 2.7 0 0 1-.615-.492 1.8 1.8 0 0 1-.43-.615 1.4 1.4 0 0 1-.062-.616q.01-.26.123-.492l1.476-2.644a.6.6 0 0 0 .062-.246v-.185a1.3 1.3 0 0 0-.185-.184l-.246-.185.123-.184 1.907 1.045-.123.185-.185-.062a1 1 0 0 0-.246-.061h-.246a.6.6 0 0 0-.123.184l-1.353 2.46c-.08.136-.141.283-.184.431-.037.16-.037.332 0 .492 0 .123 0 .308.123.431l.553.492.615.184c.339.037.677-.074.923-.307l.307-.369.984-1.846.308-.615v-.369c0-.123-.123-.184-.246-.307a2 2 0 0 0-.246-.185l.123-.246 1.845 1.046c-.043.061-.08.123-.123.184Zm2.645 4.613a1.18 1.18 0 0 1-.492 1.599c-.185.111-.4.173-.615.185l-.615-.062a2.4 2.4 0 0 1-.554-.246l-2.153-1.23.123-.246q.242.111.492.185a.32.32 0 0 0 .185 0 .45.45 0 0 0 .185-.185l1.845-3.26a.7.7 0 0 0 .061-.184.4.4 0 0 0-.061-.246 1.4 1.4 0 0 0-.185-.185l-.184-.123.123-.246 2.091 1.23.43.308.369.431a.97.97 0 0 1 0 .984 1.2 1.2 0 0 1-.369.369l-.43.184a1.95 1.95 0 0 1-.923-.123v.062q.204.165.369.369zm-.369-1.107c.123 0 .246-.123.307-.184.117-.105.222-.234.308-.369.123-.246.184-.492.123-.738q-.092-.278-.554-.554l-.246-.123-.246-.185-.984 1.723.369.246.492.184zm-.369 1.661c.123-.246.184-.492.061-.8 0-.246-.246-.492-.615-.676a11 11 0 0 0-.307-.246l-.246-.062-.923 1.538a.37.37 0 0 0 0 .43c.062.123.246.246.431.308.307.184.615.246.861.184.307-.123.492-.307.738-.615zm11.624 2.645a2 2 0 0 0-.307 0 .84.84 0 0 0-.369-.062c-.062 0-.185.062-.246.246a3.4 3.4 0 0 0-.308.615l-.922 2.03c-.062.246-.246.43-.431.615a1.6 1.6 0 0 1-.615.246 2.1 2.1 0 0 1-.676 0 2.66 2.66 0 0 1-1.354-.615 1.9 1.9 0 0 1-.43-.492 1.36 1.36 0 0 1-.185-.615c0-.191.037-.382.123-.554l1.23-2.768a.54.54 0 0 0 0-.246.4.4 0 0 0-.061-.184 1.3 1.3 0 0 0-.185-.185l-.246-.123.123-.246 2.03.861-.123.246a3 3 0 0 0-.246-.061 2 2 0 0 0-.246 0h-.184a.7.7 0 0 0-.123.184l-1.169 2.645-.123.431c-.049.307.037.627.246.861.123.184.307.307.615.43l.615.123c.357 0 .695-.153.923-.43.098-.111.184-.234.246-.369l.799-1.907.185-.615v-.43l-.246-.246a3 3 0 0 0-.308-.185l.123-.246 1.907.861zm5.659 6.642-2.214-.615v-.246h.369l.246.062a.53.53 0 0 0 .246-.123.44.44 0 0 0 .123-.185l1.045-3.567h-.061l-2.952 3.69h-.185l-.369-4.859-.923 2.952-.123.677.062.369.307.246c.099.068.197.135.308.185l-.123.246-1.968-.615v-.246h.369a.7.7 0 0 0 .307 0c.123 0 .185-.124.308-.247l.184-.615.739-2.583c.043-.117.061-.246.061-.369a.6.6 0 0 0-.061-.246.8.8 0 0 0-.247-.246 1.2 1.2 0 0 0-.307-.123l.061-.246 1.723.492.369 4.121 2.152-2.768.185-.307c.049-.08.086-.16.123-.246l1.661.492-.062.246a3 3 0 0 0-.308 0 1.6 1.6 0 0 0-.246-.062.28.28 0 0 0-.184.062.7.7 0 0 0-.062.246l-1.045 3.567a.5.5 0 0 0 0 .185l.061.184q.232.156.492.246zm5.351-1.599c.314.252.474.646.43 1.046l-.246.615c-.123.184-.307.246-.492.369-.184.123-.369.123-.615.184h-.615l-2.46-.307v-.246h.308c.08.012.166.012.246 0a.33.33 0 0 0 .184-.123.44.44 0 0 0 .062-.246l.492-3.691a.5.5 0 0 0 0-.184.4.4 0 0 0-.185-.185 1.2 1.2 0 0 0-.246-.123h-.184v-.307l2.398.307c.185 0 .369 0 .554.123l.43.246a.97.97 0 0 1 .369.923l-.123.492a1.04 1.04 0 0 1-.369.307 1.5 1.5 0 0 1-.369.185c-.16.061-.326.105-.492.123l.492.185zm-.8-.923.246-.307.123-.431a.92.92 0 0 0-.184-.676c-.123-.185-.369-.308-.677-.308a21 21 0 0 0-.615-.061l-.246 1.968h.492c.185.061.369 0 .492 0a.8.8 0 0 0 .369-.185Zm.308 1.723c0-.308 0-.615-.185-.8-.184-.184-.492-.308-.861-.369l-.43-.061h-.246l-.185 1.783a.37.37 0 0 0 .123.369l.492.185c.369 0 .615 0 .923-.246.184-.185.307-.431.369-.861Zm7.012 1.599h-1.354a23 23 0 0 0-.861-1.23l-.799-1.107h-.615v1.66l.061.246.185.123h.246l.307.062v.246h-2.214v-.246h.246l.246-.062a.4.4 0 0 0 .185-.369v-3.936l-.185-.185a2 2 0 0 0-.246 0l-.246-.061v-.246h3.014c.197.049.387.129.553.246l.369.369c.148.357.148.75 0 1.107-.049.16-.135.307-.246.43a1.5 1.5 0 0 1-.43.247q-.242.11-.492.184l.615.861c.184.246.43.492.615.861.16.215.369.382.615.492q.242.063.492.062zm-1.907-3.814c0-.307-.123-.615-.246-.738-.185-.184-.492-.307-.8-.307h-.615v2.214h.492c.308 0 .615-.061.8-.308.246-.184.369-.492.369-.861Zm7.996 3.445-2.215.184v-.246l.431-.123c.123 0 .184-.123.184-.123v-.184l-.553-1.107-1.845.123a5 5 0 0 0-.123.43l-.062.369q-.035.118-.061.246v.185c0 .123.061.184.246.184l.553.062v.246l-1.968.184v-.246q.128-.017.246-.061a.8.8 0 0 0 .431-.369l.123-.308.676-2.214.677-2.214h.307l2.092 4.305.123.185c.11.129.264.215.43.246h.246v.246zm-2.276-1.907-.984-1.968-.615 2.091zm9.656-4.121c-.08.043-.166.08-.246.123a1.9 1.9 0 0 0-.492-.553c-.246-.123-.43-.246-.615-.185h-.184l-.369.123-.861.246.553 1.968.615-.123.369-.184.185-.246.061-.246v-.369l.246-.123.554 1.968-.246.061a1.6 1.6 0 0 0-.185-.307l-.246-.246a.52.52 0 0 0-.307-.123c-.123 0-.252.024-.369.061l-.615.185.492 1.722s0 .123.123.185q.073.093.184.123h.246l.246-.062.062.246-2.153.615-.061-.246c.079-.037.166-.08.246-.123l.246-.123a.33.33 0 0 0 .123-.184.5.5 0 0 0 0-.185l-.985-3.629a.7.7 0 0 0-.123-.184l-.184-.123a2 2 0 0 0-.246 0 1.2 1.2 0 0 0-.308 0l-.061-.185 3.936-1.107zm5.782-.43.615 1.476-3.69 1.722-.123-.185.246-.184a.8.8 0 0 0 .184-.123.33.33 0 0 0 .062-.185.6.6 0 0 0 0-.246l-1.661-3.321a.7.7 0 0 0-.123-.184.29.29 0 0 0-.246 0h-.246a1.4 1.4 0 0 0-.246 0l-.123-.185 2.03-.984.123.246a2 2 0 0 0-.246.123q-.102.083-.185.184a.25.25 0 0 0-.123.185c0 .086.018.172.061.246l1.538 3.075c0 .185.123.308.185.369l.184.123h.246l.431-.184.246-.123.246-.185.184-.123a.33.33 0 0 0 .123-.184c.105-.4.148-.818.123-1.23zm2.768-5.105c.338.098.652.264.922.492l.738.861q.277.49.369 1.045c.068.326.068.658 0 .984-.08.333-.221.646-.43.923a2.5 2.5 0 0 1-.738.615 2.45 2.45 0 0 1-1.968.246 2.5 2.5 0 0 1-.862-.43 3.1 3.1 0 0 1-.738-.861 3.2 3.2 0 0 1-.369-1.046 2.8 2.8 0 0 1 0-1.046 2.47 2.47 0 0 1 1.23-1.476c.277-.184.591-.307.923-.369.308-.037.621-.018.923.062Zm1.414 3.444c0-.271-.037-.541-.123-.8a4.5 4.5 0 0 0-.43-.861 4.4 4.4 0 0 0-.615-.799 2.5 2.5 0 0 0-.615-.492 1.4 1.4 0 0 0-.615-.123c-.308 0-.493.061-.739.184-.246.185-.43.369-.553.615-.105.191-.166.4-.185.615 0 .308.062.554.185.8.191.59.504 1.138.922 1.599.185.246.431.369.616.492.227.123.479.191.738.185.184 0 .43 0 .676-.185.449-.246.732-.713.738-1.23Zm6.458-3.506-1.168.8-1.415-.554-1.23-.369-.492.308.984 1.291.123.185h.246c.062-.013.123-.037.185-.062l.246-.184.184.246-1.845 1.23-.123-.185a4 4 0 0 0 .369-.307.29.29 0 0 0 0-.246.5.5 0 0 0 0-.185l-2.214-3.075a.6.6 0 0 0-.123-.123.186.186 0 0 0-.246 0 1.8 1.8 0 0 0-.431.185l-.184-.246 1.968-1.354q.259-.186.553-.307.268-.113.554-.123l.492.061c.338.179.584.492.677.861v.492a1.5 1.5 0 0 1-.123.431 3 3 0 0 1-.308.492l.984.308.984.307c.24.08.492.099.738.062h.246c.086-.056.173-.117.246-.185zm-3.813-2.03c-.185-.246-.369-.369-.615-.43-.246-.062-.554 0-.8.184l-.492.369 1.23 1.846.431-.308c.246-.184.431-.43.492-.738 0-.308 0-.615-.246-.923Zm8.119-1.23.43 1.476-4.059 1.477-.123-.246q.26-.1.492-.246a.34.34 0 0 0 .123-.185.4.4 0 0 0 0-.246l-1.353-3.444a.6.6 0 0 0-.062-.185l-.246-.061h-.246a1.2 1.2 0 0 0-.307 0l-.062-.185 3.752-1.414.431 1.168-.246.062a1.8 1.8 0 0 0-.492-.431l-.554-.184c-.086.036-.166.08-.246.123l-.369.123-.738.246.676 1.906.616-.184c.123 0 .246-.123.307-.185a.52.52 0 0 0 .185-.246v-.676l.246-.062.676 1.845-.246.123a1.6 1.6 0 0 0-.184-.307 1 1 0 0 0-.246-.185.52.52 0 0 0-.308-.123c-.123 0-.246 0-.369.123l-.554.185.554 1.476.123.307a.3.3 0 0 0 .185.185h.307l.431-.185.307-.123c.215-.055.425-.135.615-.246l.123-.184.123-.615v-.615zm4.367-3.567c.246.185.492.431.615.8.184.307.307.615.369 1.045.067.363.067.744 0 1.107a2.5 2.5 0 0 1-.492.923 2.404 2.404 0 0 1-3.506.43 2.5 2.5 0 0 1-.615-.738 3 3 0 0 1-.369-1.045 3.1 3.1 0 0 1 0-1.169l.492-.922a2.47 2.47 0 0 1 1.661-.923c.325-.068.658-.068.984 0zm-.062 3.69c.123-.246.185-.492.185-.799v-.923a4.4 4.4 0 0 0-.246-.922 2.4 2.4 0 0 0-.431-.738 1.5 1.5 0 0 0-.553-.431 1.4 1.4 0 0 0-.677-.062c-.308 0-.615.123-.738.308a1.13 1.13 0 0 0-.431.615c-.098.234-.16.486-.184.738a4.3 4.3 0 0 0 .246 1.845l.43.677a.78.78 0 0 0 .554.43c.185.123.431.123.738.123.228-.049.437-.153.615-.307.215-.154.388-.369.492-.615z"/><path stroke="#000" d="M329.292 128.534v32.598c0 6.52-.861 32.353-28.6 42.44-27.862-10.087-28.723-35.92-28.723-42.44v-32.598z"/><defs><radialGradient id="a" cx="0" cy="0" r="1" gradientTransform="matrix(26.1132 0 0 17.2612 258.95 117.473)" gradientUnits="userSpaceOnUse"><stop stop-color="#FFEF5D"/><stop offset="1" stop-color="#EA5700"/></radialGradient><radialGradient id="b" cx="0" cy="0" r="1" gradientTransform="matrix(5.86766 0 0 6.71521 257.822 97.901)" gradientUnits="userSpaceOnUse"><stop stop-color="#FFEF5D"/><stop offset="1" stop-color="#EA5700"/></radialGradient><radialGradient id="c" cx="0" cy="0" r="1" gradientTransform="matrix(26.1349 0 0 17.2756 343.881 117.561)" gradientUnits="userSpaceOnUse"><stop stop-color="#952D1A"/><stop offset="1" stop-color="#570A00"/></radialGradient><radialGradient id="d" cx="0" cy="0" r="1" gradientTransform="matrix(6.05464 0 0 6.58112 344.453 99.645)" gradientUnits="userSpaceOnUse"><stop stop-color="#952D1A"/><stop offset="1" stop-color="#570A00"/></radialGradient></defs></svg>