<svg xmlns="http://www.w3.org/2000/svg" width="600" height="300" fill="none"><g clip-path="url(#a)"><path fill="#CF142B" d="M0 0h600v300H0z"/><path fill="#fff" d="M525.759 81v129.989c0 34.669-69.299 46.011-69.299 46.011S387 245.739 387 210.828V81h138.759"/><path fill="#2F8F22" d="M525.759 210.989c0 34.669-69.299 46.011-69.299 46.011S387 245.739 387 210.828c0 0 0-2.815 1.447-4.344 0 0-.804 5.712 3.618 10.136 0 0-3.457-6.274 0-12.307 0 0-1.367 7.883 3.537 12.307 0 0-2.653-6.355.322-13.434 0 0-1.447 11.503 3.778 13.916 0 0 1.447-6.756-.643-10.939 0 0 3.618 1.448 3.457 11.1 0 0 1.125-1.448 1.447-8.446 0 0 .161 8.044 2.814 9.894 0 0 .964-.804-.241-4.424-1.287-3.539.482-4.826.803-4.826 0 0-.643 4.022 2.734 7.078 0 0-1.447-6.354.563-7.239 0 0-.483 5.389 3.858 6.515 0 0 .242-1.528-.643-3.217 0 0-.804-2.011-.241-3.62 0 0 1.367 4.826 3.216 5.631 0 0-1.126-2.896 0-5.631 0 0 .161 4.022 3.778 5.711 0 0-2.411-3.217-1.527-6.596l23.073 1.126 12.059.563 35.936-2.413 6.109-5.389s2.493 3.298-1.447 8.687c0 0 3.859-.643 5.065-6.676 0 0 1.608 3.298-.563 7.078 0 0 4.261-4.343 4.824-9.089 0 0 1.688 4.665-2.331 9.653 0 0 3.537-1.287 5.064-6.516 0 0 1.287 3.218-2.17 7.642 0 0 6.512-3.298 6.351-10.457 0 0 2.653 3.861-.402 9.331 0 0 3.216-2.977 3.618-7.481 0 0 1.849 2.011-.161 7.561 0 0 4.019-3.861 4.663-7.963 0 0 .804 3.861-2.573 8.687 0 0 2.331-.644 4.582-5.309 0 0 .563 1.931-1.447 5.309 0 0 2.251-.402 3.698-4.746 0 0 .242 2.574-.402 4.826 0 0 1.689-1.045 2.091-5.872a7.24 7.24 0 0 0 .964 3.54v.643z"/><path fill="#D40000" stroke="#000" stroke-linejoin="round" stroke-width="1.2" d="M490.145 135.779s-2.412.482-5.628-.483c-3.055-.965-4.261-.563-5.226 0 0 0 1.206-2.493-1.849-4.504 0 0 .965 2.574-.402 3.7 0 0-.562.563-1.286-.242 0 0-1.045-1.206-2.251-1.93 0 0 2.653-.965 2.171-3.62-.483-2.654-1.93-2.896-2.653-3.298a4.8 4.8 0 0 0 0 1.931s-2.814-1.609.964-3.781c3.859-2.172 3.216-3.539 2.493-4.665a10.5 10.5 0 0 0-2.814-2.896s.804 1.287.563 2.333c-.081.965-1.93 1.608-1.608-.081.402-1.93 0-1.609 0-3.459 0 0 3.376 1.126 4.823-2.252 0 0 1.287-3.459-3.055-5.148 0 0 1.046 1.448.563 2.413 0 0-.965 1.77-2.01.483-1.045-1.368-1.768-1.77-1.688-3.379 0 0 3.939.563 2.894-3.78 0 0-.723 2.895-5.788-.966 0 0 3.376-3.378 2.01-6.113 0 0-.402-1.207-3.94-.563 0 0 3.055-1.93 1.85-3.62 0 0-.724-1.045-3.699.322 0 0 1.206-1.85-1.688-4.022 0 0-1.929.965-2.894 1.93 0 0-1.929-2.413-3.216-3.458 0 0-2.251.885-2.813 3.459 0 0-1.046-1.207-3.457-1.931 0 0-1.126 2.252.402 4.022 0 0-1.126 0-3.216-.885 0 0-2.251-.965-1.849.885.241 1.93.482 2.413.965 3.378 0 0-5.226-1.206-4.985 1.61a7.09 7.09 0 0 0 2.412 4.986s-2.814 3.861-5.306.966c0 0-.965.965.965 3.378 0 0 1.929 2.011.241 3.379 0 0-2.01 1.608-2.975-1.609 0 0-3.296 3.298.643 5.791 0 0 2.412 1.448 5.065-.804 0 0-.804 6.435-3.215 5.148 0 0-1.528-.965 1.125-2.333 0 0-3.859-.482-4.422 3.218 0 0-.482 2.815 2.814 4.022 0 0 2.492.965 0 2.896 0 0-2.01 1.367-.723 3.539 0 0 1.447 2.252-2.332 2.574 0 0-1.929 0-2.653-.322 0 0-.804 1.609-.321 3.218 0 0-1.849-1.368-6.03.161-4.18 1.608-3.939.482-4.18.965l-1.287 1.93s2.251 2.896 2.332 2.655l-.483 3.217 1.126.483 8.682-3.861 8.844-4.585 7.155.322 4.502 1.045 5.788.483 4.341-2.252h6.11l6.753 3.378 7.638 4.585 4.019.805 3.136-.242v-6.274z"/><path fill="#D40000" stroke="#000" stroke-linejoin="round" stroke-width="1.2" d="M420.042 143.018s3.376 1.77 4.823-.241c0 0 1.769-3.539-2.251-4.826 0 0 2.251-2.574-.16-4.988 0 0-1.287-1.287-3.377-.402 0 0-.965-1.85-2.974-1.769 0 0-1.93 0-2.412 2.011 0 0-2.573-.966-3.939.482 0 0-2.412 2.574.884 4.666l2.331.241 2.251-1.126 2.653.724s-.723 2.574 2.171 5.228Z"/><path fill="#64B4D1" stroke="#000" stroke-width="1.2" d="M495.129 136.905a5.38 5.38 0 0 1 5.547 3.057c2.09 4.987-2.412 7.722-2.412 7.722.322 1.045.402 2.574.402 2.574 6.271.804 5.146 7.883 5.146 7.883l-2.091-1.77c-3.617-1.448-7.476 1.77-10.129 6.918-2.734 5.309-1.447 7.642-.965 13.916.482 6.194 10.451 9.974 10.451 9.974l-7.798 20.11c-3.055 8.044-9.647 4.746-11.496 2.976-1.849-1.609-2.332-.643-3.216 0-.884.804 4.261 4.826-5.225 8.687-9.406 3.781-11.014 6.677-12.622 7.642s-8.04.402-8.683-.482c-.804-.805-.321-.805-2.813-2.333-2.412-1.368-6.593-2.816-11.095-4.987s-4.341-4.988-4.261-5.551c0-.563 1.528-5.228-3.778-1.528-5.226 3.781-9.728-1.77-9.728-1.77-.964-1.367-5.466-13.192-5.466-13.192a74 74 0 0 0-3.457-9.652s-.322.643 3.617-1.609c3.859-2.172 5.628-5.872 6.995-9.572s0-10.055-.483-11.262c-.482-1.287-3.376-7.159-6.994-8.365-3.537-1.287-6.029 1.93-6.029 1.93s-1.046-7.239 5.305-8.044c0 0 0-1.448.322-2.493 0 0-4.502-2.735-2.412-7.722 0 0 1.447-3.459 5.467-3.057l-.884 1.93s-.965 10.136 13.827 3.379c14.873-6.918 14.471-8.205 23.073-3.861l6.11-.081s8.843-4.263 11.818-2.413c2.814 1.85 13.104 7.561 13.104 7.561s9.969 3.781 11.979-3.217z"/><path fill="#fff" stroke="#00247D" stroke-miterlimit="10" stroke-width="1.2" d="M450.27 181.066s-.483-3.137-.965-5.148c0 0-1.206-3.137.804-5.47l2.251-2.655s1.447-1.93 3.216-2.171c0 0 1.849 0 1.929-.403.241-.402 2.251-3.619 6.914 0 0 0 1.447-2.413 3.859-2.895 0 0 2.412-.644 3.618 1.126 0 0 2.813-2.092 5.145 1.367 0 0 3.296-1.93 5.788 1.85 0 0 3.216-1.608 5.145 1.69 2.01 3.458 1.608 4.826 1.608 4.826l1.608 5.47 5.225 6.435-12.219 4.665h-5.628l-11.014 2.896-19.535 1.528-5.387-6.435 7.718-6.676z"/><path fill="#D40000" stroke="#000" stroke-linejoin="round" stroke-width="1.2" d="M433.789 213.643s-2.894.081-4.422.966c-1.447.643-2.653 1.448-4.341 2.574 0 0-.804 1.045-4.181.402 0 0-5.788-1.367-5.788 3.218 0 0-7.075.482-4.18 6.676 0 0 1.849 4.826 5.868 1.448 0 0-2.572 3.62 2.412 5.067 0 0 3.537.966 4.663-2.815 0 0 .563-1.448-.804-3.217 0 0 1.688-.322 2.894-2.172 0 0-3.698 4.665.402 6.435 0 0 5.065 1.206 5.306-4.022 0 0-.482-2.574 1.608-3.459 0 0 4.02-.965 5.628-5.309 0 0-5.628-3.137-5.065-5.792Zm-11.818-46.252s-4.502-2.011-6.753 0c0 0-2.814-1.769-6.03 0 0 0-2.974 1.931-5.064 4.183 0 0-1.447 1.207-.965 5.148 0 0 .804 2.815.402 4.102 0 0-.965-.16-2.975 2.253 0 0-2.492 2.815-4.823.241 0 0 .804 3.7 4.904 3.057 0 0-2.01 1.609-.242 5.63 0 0 1.287 2.896-.803 6.596 0 0 3.617-1.447 3.537-5.791 0 0-.402-2.896.804-4.826 0 0-1.206 1.769 1.286 5.711 0 0 1.93 2.895.402 5.791 0 0 3.537-1.287 3.216-5.63-.322-4.344-2.412-2.574-1.126-6.596 0 0 .402 2.091 1.447 3.217a5.793 5.793 0 0 1 1.93 5.631s2.09-2.735 1.608-5.47a10.6 10.6 0 0 0-1.045-3.539l6.753-3.861 3.457-6.033z"/><path stroke="#000" stroke-miterlimit="10" stroke-width="1.2" d="M411.681 184.685s-2.814-.161-3.216-2.413m-4.904-1.448s.965 0 1.929.966c0 0 .563.965 1.528.804"/><path fill="#000" d="M415.861 176.4s-1.447 0-2.412-.643c0 0-.723-.563-1.206.322 0 0-.803 1.286.644 1.849 0 0 1.768.966-.965 2.735 0 0 3.216-1.287 1.929-2.895 0 0-1.447-.966-.964-1.368 0 0 .16-.321.804 0 .482.483 1.607.322 2.17 0"/><path fill="#784421" stroke="#000" stroke-width="1.2" d="m459.756 184.283 1.688-.482-11.255-38.611h-.321z"/><path fill="#000" d="M422.453 227.157s-2.572-1.528-4.823.241c0 0 .321-.965 1.929-1.367 0 0 .965-2.574 3.457-2.333 0 0-1.045 1.287-2.412 2.252 0 0 1.447.161 1.93 1.207z"/><path fill="#64B4D1" stroke="#00247D" stroke-miterlimit="2.6" stroke-width="1.2" d="M413.208 233.19s-4.18-2.574-1.849-6.998c0 0 .643-1.207 1.849-.965 0 0 2.653.804.643 4.424 0 0-1.125 2.333-.643 3.62zm8.441 4.263s-5.949-2.734-4.1-7.4c0 0 .563-1.609 1.93-1.448 0 0 2.251.161 1.849 3.218 0 0-.724 2.896.321 5.63Z"/><path fill="#000" d="M420.443 220.159s-1.849 1.367-2.492 2.252c0 0-.804-.965-1.768-1.448 0 0 1.206-.241 1.768.242 0 0 .965-.805 2.412-1.046z"/><path fill="#64B4D1" stroke="#00247D" stroke-miterlimit="2.6" stroke-width="1.2" d="M425.669 236.246s4.824-1.126 3.859-6.032c0 0-.483-2.091-2.412-1.77 0 0-2.412.644-.804 3.7 0 0 .884 2.091-.643 4.102Z"/><path fill="#F5CE00" stroke="#000" stroke-miterlimit="2.6" stroke-width="1.2" d="m446.893 134.17 4.582 1.528s4.342 1.85 9.889 0l4.18-1.608-2.813 4.343v2.333l1.688 2.574s-1.045.483-4.341-1.609c0 0-3.538-2.735-7.718 0 0 0-2.412 1.609-4.341 1.609l2.813-3.057-1.045-2.815-2.894-3.459z"/><path fill="#fff" d="M427.518 230.536s.161-.322 0-.403l-.402.161s-.482.805 0 1.931c0 0 .402.724.242 1.447v.322s.241-.08.241-.322c0 0 .322-.643-.161-1.447 0 0-.483-1.126.08-1.689"/><path fill="#D40000" stroke="#000" stroke-linejoin="round" stroke-width="1.2" d="M492.235 143.018s-3.377 1.77-4.824-.241c0 0-1.688-3.539 2.332-4.826 0 0-2.251-2.574.08-4.988 0 0 1.287-1.287 3.377-.402 0 0 .964-1.85 2.974-1.769 0 0 1.93 0 2.412 2.011 0 0 2.653-.966 4.02.482 0 0 2.251 2.574-.965 4.666l-2.331.241-2.332-1.126-2.412.724s.644 2.574-2.411 5.228z"/><path fill="#F5CE00" stroke="#000" stroke-miterlimit="2.6" stroke-width="1.2" d="M465.544 140.364s0 .643-.643.804c0 0-.804.241-1.206-.724v-.241c0-.402-.241-1.609 1.126-2.655 0 0 2.09-1.689 6.11.403a154 154 0 0 0 11.898 6.032s2.492 1.288 6.351 1.448c0 0 5.226.403 7.477-3.298 0 0 1.688-2.815 0-4.665 0 0-.724-.804-1.849-.644a2.42 2.42 0 0 0-1.448.966s-.803 1.126.081 2.011c0 0 1.286.804 1.769-.805 0 .161.401 1.368-.322 2.333 0 0-3.216 4.826-11.979-.08l-11.496-6.516s-5.708-2.976-9.326 1.689c0 0-2.733 3.861.885 6.355 0 0 2.733 1.609 4.341-.965 0 0 1.447-2.494-.804-3.54 0 0-1.929-.965-2.653.966-.804 1.93 1.447 2.413 1.608 1.045 0 0 0-.321.241 0z"/><path fill="#E4CB5E" stroke="#000" stroke-miterlimit="2.6" stroke-width="1.2" d="M419.881 160.313v-7.24c0-.643 0-.965.965-1.77.804-.643 1.688-1.85 2.974 1.368 0 0 2.573-2.815 3.377-3.218 0 0 1.608-1.206 2.653.563 0 0 1.286-2.091 2.412-2.574 0 0 2.572-1.608 2.653 3.379l2.009-1.931s1.608-1.206 3.377.563c0 0 2.814 2.896 3.216 3.701 0 0 .643.804.804 2.171 0 0 0 1.609.803 2.414 0 0 .885.804 1.769.965 0 0 2.01.08 2.894 2.091 0 0 .241-.402 1.287 9.009v17.295l-11.577 13.755-18.571-5.309-7.396-3.137-1.769-5.309 7.236-4.746 3.859-10.457-1.206-7.481-1.769-4.183z"/><path fill="#784421" stroke="#000" stroke-width="1.2" d="m471.011 169.322.965-1.207 2.01-1.609s3.216 8.366 3.376 10.216v2.574s4.824 1.287 5.789 8.607l-4.02 7.4-6.271-3.539-1.849-1.206z"/><path fill="#fff" d="M412.083 227.238s.161-.242 0-.483l-.402.322s-1.206 1.367-.161 3.539c0 0 0 .321.241.161 0 0 .242 0 0-.242 0 0-.884-1.93.322-3.217z"/><path stroke="#000" stroke-miterlimit="10" stroke-width="1.2" d="M430.895 225.79s.08-.644-.322-1.287c0 0-.241-.483-.161-1.207m4.502-72.475s0 1.85.563 3.217c.483 1.287 2.332 3.62 2.412 4.746"/><path fill="#D40000" stroke="#000" stroke-linejoin="round" stroke-width="1.2" d="M478.568 213.644s2.894.08 4.421.965c1.608.643 2.734 1.448 4.422 2.574 0 0 .804 1.046 4.18.402 0 0 5.789-1.367 5.789 3.218 0 0 6.994.482 4.18 6.676 0 0-1.929 4.826-5.949 1.448 0 0 2.573 3.62-2.412 5.068 0 0-3.537.965-4.582-2.816 0 0-.643-1.448.804-3.217 0 0-1.689-.322-2.814-2.172 0 0 3.618 4.665-.402 6.435 0 0-5.065 1.206-5.386-4.022 0 0 .401-2.574-1.608-3.459 0 0-4.02-.965-5.789-5.309 0 0 5.789-3.137 5.226-5.791z"/><path stroke="#000" stroke-miterlimit="10" stroke-width="1.2" d="m432.583 158.865 4.824 38.449m-3.618-38.53 5.306 35.876m-4.422-36.037 6.271 35.554"/><path fill="#784421" stroke="#000" stroke-width="1.2" d="m444.481 191.121 1.769-.563-11.255-38.611h-.402z"/><path stroke="#000" stroke-miterlimit="10" stroke-width="1.2" d="m438.13 157.176 11.336 28.555m-12.059-28.153 10.933 29.762"/><path fill="#fff" d="M419.56 234.638s-1.367-1.207-1.126-3.459c0 0 0-.482-.241-.563 0 0-.241-.08-.241.483 0 0-.402 2.332 1.206 3.619 0 0 .081.241.322.161 0 0 .161 0 0-.241z"/><path stroke="#000" stroke-miterlimit="10" stroke-width="1.2" d="m438.773 156.773 11.497 26.062m-14.712-24.453 7.235 35.152"/><path fill="#F5CE00" stroke="#000" stroke-miterlimit="2.6" stroke-width="1.2" d="M493.843 184.283c-5.065-2.895-6.191-9.17-6.191-9.17a19.8 19.8 0 0 1 1.287-11.502c3.215-6.918 8.923-8.286 8.923-8.286s-5.547 3.861-7.074 9.01c0 0-1.126 4.424-.483 8.606.643 4.425.402 3.298 1.447 6.677l2.091 4.826z"/><path fill="#784421" stroke="#000" stroke-width="1.2" d="m471.895 167.954-21.384 6.838-1.126 9.652c-5.065 7.32-15.435 8.607-15.435 8.607l8.039 8.607 15.275 3.218 8.2-6.275 7.396-6.756c-.804-3.62-.402-9.01-.402-9.01 0-.965.402-3.056.402-3.056s-1.206-8.607-.965-11.664z"/><path stroke="#000" stroke-miterlimit="10" stroke-width="1.2" d="M449.627 182.031s14.149-4.424 22.51-8.044m-29.263 16.088s17.686-3.218 29.986-10.296l4.502-3.057"/><path stroke="#000" stroke-miterlimit="10" stroke-width="1.2" d="m477.362 179.296-4.823 3.539s-19.697 9.01-34.73 9.331m34.649-2.895s-15.114 7.883-23.636 7.883"/><path fill="#D40000" stroke="#000" stroke-linejoin="round" stroke-width="1.2" d="M490.466 167.391s4.502-2.011 6.753 0c0 0 2.895-1.769 6.11 0 0 0 2.894 1.931 4.985 4.183 0 0 1.447 1.207.964 5.148 0 0-.804 2.815-.241 4.102 0 0 .885-.16 2.814 2.253 0 0 2.653 2.815 4.824.241 0 0-.644 3.7-4.824 3.057 0 0 1.929 1.609.241 5.63 0 0-1.286 2.896.804 6.596 0 0-3.698-1.447-3.537-5.791 0 0 .321-2.896-.804-4.826 0 0 1.125 1.769-1.367 5.711 0 0-1.929 2.895-.321 5.791 0 0-3.618-1.287-3.216-5.63.241-4.344 2.412-2.574 1.045-6.596 0 0-.322 2.091-1.367 3.217a5.8 5.8 0 0 0-1.929 5.631s-2.09-2.735-1.608-5.47c.482-2.815.965-3.539.965-3.539l-6.673-3.861-3.377-6.033z"/><path fill="#fff" stroke="#00247D" stroke-miterlimit="10" stroke-width="1.2" d="M413.931 191.845s.644-2.977 3.457-1.931c0 0 .965-4.826 6.191-4.987 5.225-.161 5.466 5.148 5.466 5.47 0 0 1.608-2.253 4.1-2.011 0 0 4.422-.242 2.895 6.837l.804.965s3.296-7.963 10.209-5.952c0 0 6.754 2.091 2.412 8.607 0 0 3.377 4.424 6.11 4.022 2.894-.402 5.387-1.287 8.2-6.275 2.894-4.987 9.406-5.791 11.014-5.469 1.608.241 2.975 1.448 3.216 2.574 0 0 3.457-11.503 15.918-9.814l4.984 2.655 1.93.804-2.895 8.044-6.753 15.444-5.306 1.609-5.466-3.137-1.93.965v4.746l-7.235 5.148-4.984 2.011-5.467 3.861-1.367 3.379s-2.974-1.368-6.431 0l-1.126-2.896-3.216-2.977-12.541-5.952-2.171-7.239-2.331-1.046-2.573 2.896-3.617.482-5.628-3.861-5.949-16.892z"/><path stroke="#000" stroke-miterlimit="2.6" stroke-width="1.2" d="M468.277 135.216s-4.823-.161-4.582 4.825"/><path fill="#F5CE00" stroke="#000" stroke-miterlimit="2.6" stroke-width="1.2" d="M499.47 187.742c-8.2-2.574-10.451-11.503-10.451-11.503a20.52 20.52 0 0 1 .965-12.468c3.859-8.848 10.21-8.848 10.21-8.848a3.22 3.22 0 0 1 3.617 2.574c.322 1.931-1.045 2.655-1.045 2.655-2.17 1.206-3.617-.402-3.617-.402-.965-1.287-.242-2.333-.242-2.333.563-.805 1.608-.322 1.608-.322 1.045.161.804 1.287.804 1.287s.322-1.287-.965-1.448c0 0-2.572-.563-5.466 3.057 0 0-3.779 4.907-3.779 11.342 0 0-.482 11.905 11.818 14.961 0 0-1.286 1.931-3.698 8.929 0 0-2.653 9.009-5.145 13.916 0 0-3.457 6.918-11.175 4.102 0 0-4.502-2.011-4.502-5.228 0 0-.241-3.057 2.412-3.218 0 0 2.653-.241 2.653 2.011 0 0 0 2.413-2.814 1.931 0 0-.965-.242-.884-1.207 0 0 .161-.965 1.447-.482 1.206.482 0 0 0-.081 0 0-.483-.241-.965 0 0 0-.482 0-.482.804 0 0 0 .483.563.885l1.366.161s.804 1.609 2.412 2.172a6.42 6.42 0 0 0 5.708-.965 8.6 8.6 0 0 0 2.412-3.459 91 91 0 0 0 4.18-10.859s1.447-4.585 2.734-6.998z"/><path fill="#F5CE00" stroke="#000" stroke-miterlimit="2.6" stroke-width="1.2" d="M476.157 210.346s1.608-.161 1.608 1.206c0 0-.081 1.931-2.573 1.528 0 0-2.412-.482-1.608-3.217 0 0 .643-1.85 2.894-1.609 0 0 2.251 0 3.216 3.057 0 0 .804 2.654-.563 4.826-1.447 2.413-4.984 4.022-6.753 4.826 0 0-6.994 2.655-9.084 4.264 0 0-3.216 2.332-1.769 4.504 0 0 .563.885 1.367.885 0 0 .965 0 1.045-.965 0 0 0 .563-.563.804 0 0-.643.322-1.366-.241 0 0-.804-.804-.161-1.931 0 0 .804-1.287 2.894-.482 0 0 1.608.885.965 2.654 0 0-.724 1.689-2.734 1.609 0 0-1.527 0-2.572-.965-1.608-1.689-1.608-4.827-.161-6.435 0 0 1.206-1.69 3.778-2.896l7.236-2.815c2.09-.885 3.939-1.851 5.145-3.298 0 0 1.045-1.127 1.447-3.218 0 0 .322-1.609-.643-1.931l-.965-.241z"/><path stroke="#000" stroke-miterlimit="2.6" stroke-width="1.2" d="M476.317 210.345s1.688-.322 2.814 1.77c0 0 .562 1.206.643 2.01m.563-7.238s-1.689.241-.804 2.734c.884 2.333 2.411 2.976 2.813 3.378"/><path fill="#F5CE00" stroke="#000" stroke-miterlimit="2.6" stroke-width="1.2" d="M446.893 140.364s0 .643.804.804c0 0 .644.161 1.046-.724v-.241c0-.402.241-1.609-.965-2.655 0 0-2.251-1.689-6.271.403 0 0-3.216 1.608-5.386 2.895 0 0-5.708 3.057-6.432 3.218 0 0-2.572 1.287-6.431 1.448 0 0-5.226.402-7.396-3.298 0 0-1.769-2.815 0-4.666 0 0 .643-.804 1.768-.643.483.08.965.322 1.447.965 0 0 .804 1.126-.08 2.011 0 0-1.286.805-1.769-.804 0 .161-.241 1.287.402 2.413 0 0 3.216 4.746 11.899-.241l11.496-6.435s5.788-2.977 9.325 1.608c0 0 2.734 3.861-.804 6.435 0 0-2.653 1.609-4.421-.965 0 0-1.286-2.413.804-3.539 0 0 1.929-.965 2.814.965.803 1.931-1.608 2.413-1.769 1.046 0 0 0-.322-.081 0Zm-28.298 44c5.065-2.816 6.271-9.251 6.271-9.251 1.125-6.435-1.367-11.502-1.367-11.502-3.216-6.918-8.843-8.286-8.843-8.286s5.467 3.861 6.994 9.01c0 0 1.286 4.424.482 8.606-.643 4.425-.402 3.298-1.447 6.677z"/><path stroke="#000" stroke-miterlimit="2.6" stroke-width="1.2" d="M444.32 135.216s4.824-.161 4.502 4.825"/><path fill="#F5CE00" stroke="#000" stroke-miterlimit="2.6" stroke-width="1.2" d="M412.887 187.742c8.28-2.574 10.451-11.503 10.451-11.503a20.52 20.52 0 0 0-.885-12.468c-3.858-8.848-10.209-8.848-10.209-8.848a3.216 3.216 0 0 0-3.618 2.574c-.241 1.931 1.045 2.655 1.045 2.655 2.251 1.206 3.698-.402 3.698-.402.884-1.287.161-2.333.161-2.333-.563-.805-1.608-.322-1.608-.322-.965.161-.804 1.287-.804 1.287s-.241-1.287.965-1.448c0 0 2.572-.563 5.466 3.057 0 0 3.859 4.907 3.859 11.342 0 0 .483 11.905-11.898 14.961 0 0 1.367 1.931 3.698 8.929 0 0 2.734 9.009 5.306 13.916 0 0 3.377 6.918 11.014 4.102 0 0 4.502-2.011 4.502-5.228 0 0 .322-3.057-2.412-3.218 0 0-2.653-.241-2.653 2.011 0 0 0 2.413 2.894 1.931 0 0 .965-.242.804-1.207 0 0-.16-.965-1.366-.482-1.287.482 0 0 0-.081 0 0 .402-.241.884 0 0 0 .482 0 .482.804 0 0 0 .483-.562.885l-1.206.161s-.804 1.609-2.573 2.172a6.02 6.02 0 0 1-5.627-.965 8.6 8.6 0 0 1-2.412-3.459 91 91 0 0 1-4.261-10.859s-1.447-4.585-2.573-6.998l-.482-.966z"/><path fill="#F5CE00" stroke="#000" stroke-miterlimit="2.6" stroke-width="1.2" d="M436.361 210.346s-1.608-.161-1.608 1.206c0 0 0 1.931 2.573 1.528 0 0 2.412-.482 1.528-3.217 0 0-.563-1.85-2.895-1.609 0 0-2.17 0-3.215 3.057 0 0-.724 2.654.643 4.826 1.447 2.413 4.984 4.022 6.672 4.826 0 0 6.995 2.655 9.165 4.264 0 0 3.136 2.332 1.689 4.504 0 0-.483.885-1.367.885 0 0-.965 0-1.045-.965 0 0 0 .563.562.804 0 0 .724.322 1.367-.241 0 0 .804-.804.161-1.931 0 0-.804-1.287-2.733-.482 0 0-1.769.885-.965 2.654 0 0 .563 1.689 2.572 1.609 0 0 1.608 0 2.573-.965 1.608-1.689 1.608-4.827.322-6.435 0 0-1.367-1.69-3.859-2.896-1.528-.483-4.422-1.689-7.236-2.815-2.17-.885-4.019-1.851-5.225-3.298 0 0-1.045-1.127-1.447-3.218 0 0-.242-1.609.723-1.931l.965-.241z"/><path stroke="#000" stroke-miterlimit="2.6" stroke-width="1.2" d="M436.12 210.346s-1.688-.322-2.733 1.769c0 0-.563 1.207-.724 2.011m-.562-7.239s1.768.241.884 2.735c-.965 2.332-2.412 2.976-2.894 3.378m22.027-73.28s4.181-2.654 8.361.242m-31.916 25.177s.563-2.413-2.09-6.435c0 0-1.769-3.781-2.573-6.033m5.949-2.655 1.85 5.309 2.411 5.47"/><path stroke="#000" stroke-miterlimit="10" stroke-width="1.2" d="M430.493 167.633s1.608 1.689 1.447 4.504m-6.512-6.355s1.688.805 1.527 5.47c0 0-.08 3.218 2.412 4.987m-4.261 1.127s5.387-.563 5.789 2.815c0 0 0 3.218 1.929 3.459 0 0 2.653.241 3.216 2.896m-9.165-5.47s.965 1.367 1.93 2.091m4.984-5.631s1.286 2.172 1.608 3.298m4.261-28.153s1.286 1.689 2.492 2.413m2.492 7.722s2.733 1.287 2.412 8.044c0 0-.483 4.022.723 6.194"/><path fill="#784421" stroke="#000" stroke-width="1.2" d="m432.021 158.221.321.643s4.824.242 7.316-3.056l-.241-.643s-4.261-.242-7.236 3.056z"/><path stroke="#000" stroke-miterlimit="10" stroke-width="1.2" d="M449.385 183.88s16.561-4.826 22.993-7.721"/><path fill="#784421" stroke="#000" stroke-width="1.2" d="m447.616 153.314-.16-.483 8.119-3.217.241.644z"/><path stroke="#000" stroke-miterlimit="10" stroke-width="1.2" d="m448.34 152.993 5.467 26.786m-4.502-27.028 6.19 26.545m-5.145-27.027 6.753 26.464m-4.019-27.43 9.245 19.788m-8.04-20.109 9.889 19.466m-9.085-19.949 10.773 19.547m-12.461 9.974 4.181-1.287m-7.316-1.287s12.22-3.62 21.706-7.4m-22.028 8.607s15.677-4.022 21.867-7.079m-17.043 19.788.804 2.654 2.251-.804-.804-2.494m4.019-1.045.804 2.413 2.251-.724-.804-2.413m-12.862-14.157-.161-3.379 20.5-6.194 1.045 2.896m-12.863.644 1.045 3.056m6.11-5.148 1.287 2.896m.402-3.459 1.286 2.655m.321-3.218 1.287 2.896m0-3.218 2.251-1.287.964 2.494m-2.09-1.85 1.126 2.654"/><path stroke="#00247D" stroke-miterlimit="10" stroke-width="1.2" d="M421.087 203.669s-4.019-4.102 0-8.044c0 0-4.421-2.091-3.698-5.63m10.934 16.892s-4.261.563-2.975-7.562c0 0-1.769 3.218-2.331 4.827a3.78 3.78 0 0 0 1.607 4.343c.724.483 4.422 1.448 5.628-.965m-6.673-13.031s-1.688 1.528-.482 4.344m2.251-4.022s.161 2.815 1.608 4.344m-.402-5.39s0 3.218 2.331 5.309m-1.206-6.435s0 3.62 2.734 5.952m10.853-.563s1.286-3.137 4.18-2.895c0 0-1.366.643-1.366 2.011 0 0-.161 2.413 2.331 2.574 0 0 2.01.321 3.055-.805"/><path stroke="#00247D" stroke-miterlimit="10" stroke-width="1.2" d="M448.099 211.713s-7.155-3.378-6.432-8.124c0 0 .322-2.896 3.216-4.344m-1.608 3.057s-.643 2.011.804 3.459m.884-4.827s-.964 2.252.563 3.861m1.206-5.067s-1.126 1.93.161 3.619m-6.753 8.849s3.859 3.458 6.913 3.458m-8.119-2.332s3.617 2.896 5.949 3.378m-7.236-2.574s4.422 3.942 7.236 4.183m11.014 3.7s-4.422 2.413-.965 4.987m-1.929-7.561 7.235-3.7m-5.386 4.987s7.235-4.424 9.406-5.389m-5.628 5.791s6.19-4.183 9.567-6.033m-5.467 5.712s4.261-3.218 8.441-5.712m1.367-4.102s-2.09-3.137-9.004 0c0 0 2.653-2.333 7.637-4.183m6.834-13.111s.643 2.493 0 4.022"/><path stroke="#00247D" stroke-miterlimit="10" stroke-width="1.2" d="M466.911 205.761s1.447-2.092 5.065-3.218c0 0 .964 2.413 3.859 2.011 0 0 4.18-.885 2.894-5.631 0 0-.885-3.378-5.789-3.78m14.552-5.872s4.904.965 4.823 4.906c0 0 .483 6.114-5.949 7.24m5.306-9.653s1.286-2.976 4.422-4.183m-3.698-1.769s1.366 2.252 2.251 2.493m-2.894-.804s1.205 1.689 1.607 2.011m-2.09-.402c.341.482.747.915 1.206 1.287m-26.771-24.775s.965-1.609 3.457-.966m9.728 12.71s1.607-6.275 6.833-4.022m-2.09-.483s.482-2.896-.804-4.424m-2.894 4.183s.723 1.206.08 2.172"/><path fill="#64B4D1" stroke="#00247D" stroke-miterlimit="2.6" stroke-width="1.2" d="M490.787 237.373s5.95-2.655 4.1-7.32c0 0-.562-1.609-1.929-1.448 0 0-2.251.081-1.849 3.218 0 0 .804 3.056-.402 5.63z"/><path fill="#fff" d="M492.878 234.638s1.367-1.207 1.206-3.459c0 0-.16-.482 0-.563 0 0 .322-.08.322.483 0 0 .402 2.332-1.126 3.619 0 0-.08.241-.322.161 0 0-.16 0 0-.241z"/><path fill="#64B4D1" stroke="#00247D" stroke-miterlimit="2.6" stroke-width="1.2" d="M499.229 233.189s4.181-2.573 1.93-6.997c0 0-.724-1.207-1.93-.965 0 0-2.572.804-.563 4.423 0 0 .965 2.333.563 3.62z"/><path fill="#fff" d="M500.274 227.238s-.161-.242 0-.483l.322.322s1.206 1.367.241 3.539c0 0-.08.321-.402.161v-.242s.965-1.93-.161-3.217z"/><path fill="#64B4D1" stroke="#00247D" stroke-miterlimit="2.6" stroke-width="1.2" d="M486.607 236.246s-4.662-1.126-3.778-6.032c0 0 .482-2.091 2.492-1.77 0 0 2.412.644.804 3.7 0 0-.884 2.091.563 4.102z"/><path fill="#fff" d="M484.839 230.536v-.403s.321 0 .402.161c0 0 .482.805.08 1.931 0 0-.402.724-.161 1.447 0 0 0 .242-.241.322l-.161-.322s-.241-.643.161-1.447c0 0 .483-1.126 0-1.689z"/><path fill="#000" d="M489.984 227.156s2.733-1.528 4.823.242c0 0-.16-.965-1.929-1.368 0 0-.804-2.573-3.377-2.332 0 0 .965 1.287 2.412 2.252 0 0-1.447.161-1.929 1.206m1.929-6.997s1.93 1.367 2.573 2.252c0 0 .723-.965 1.608-1.448 0 0-.965-.241-1.608.242 0 0-.884-.805-2.412-1.046z"/><path stroke="#000" stroke-miterlimit="10" stroke-width="1.2" d="M481.623 225.79s-.241-.644.241-1.287c0 0 .322-.483.161-1.207m18.812-38.61s2.814-.161 3.216-2.414m4.823-1.448s-.965 0-1.769.966c0 0-.723.965-1.607.804"/><path fill="#000" d="M496.737 176.4s1.447 0 2.17-.643c0 0 .885-.563 1.367.322 0 0 .804 1.286-.643 1.849 0 0-1.769.966 1.045 2.735 0 0-3.376-1.287-1.929-2.895 0 0 1.447-.966.804-1.368 0 0-.161-.321-.724 0-.563.483-1.688.322-2.09 0"/><path fill="#64B4D1" stroke="#00247D" stroke-miterlimit="2.6" stroke-width="1.2" d="M498.666 141.328s.643-.965.402-3.538c-.322-2.574 2.09-2.976 2.894-2.253 0 0 .965.805 0 2.494a6.67 6.67 0 0 1-3.296 3.297Z"/><path fill="#fff" d="M499.47 139.237s.965-.884.483-2.895l.161-.161h.241s.483 2.252-.483 3.378c0 0-.16.241-.402 0z"/><path fill="#64B4D1" stroke="#00247D" stroke-miterlimit="2.6" stroke-width="1.2" d="M497.943 140.363s0-1.126-1.849-2.895c-1.93-1.931-.402-3.539.803-3.539 0 0 1.046 0 1.608 1.85a6.68 6.68 0 0 1-.562 4.584Z"/><path fill="#fff" d="M497.703 137.95s0-1.287-1.77-2.654v-.322h.322s1.85 1.448 1.85 3.057c0 0 0 .241-.242.241 0 0-.16 0-.16-.322"/><path fill="#64B4D1" stroke="#00247D" stroke-miterlimit="2.6" stroke-width="1.2" d="M495.45 139.478s-.563-.804-2.814-1.689c-2.331-.804-1.768-2.815-.804-3.217 0 0 1.045-.402 2.091.885a6.1 6.1 0 0 1 1.447 4.021z"/><path fill="#fff" d="M494.325 137.87s-.482-1.126-2.572-1.689c0 0-.161 0-.161-.241 0 0 0-.161.241-.081 0 0 2.331.483 2.975 1.931l-.081.241s-.241 0-.321-.161z"/><path fill="#64B4D1" stroke="#00247D" stroke-miterlimit="2.6" stroke-width="1.2" d="M496.818 140.364s-1.045.402-3.538-.805c-2.492-1.206-3.537.885-3.055 1.85 0 0 .402 1.287 2.251.965a6.67 6.67 0 0 0 4.342-1.93z"/><path fill="#fff" d="M491.109 141.168s1.125.804 3.135 0h.241s0 .161-.16.241c0 0-2.091.966-3.538.081 0 0-.161 0 0-.241z"/><path stroke="#000" stroke-miterlimit="2.6" stroke-width="1.2" d="M493.28 132.561s1.126.644.965 2.011"/><path stroke="#000" stroke-miterlimit="10" stroke-width="1.2" d="M498.666 132.803s.483 1.528 0 2.412"/><path fill="#64B4D1" stroke="#00247D" stroke-miterlimit="2.6" stroke-width="1.2" d="M413.61 141.328s-.643-.965-.401-3.539c.321-2.734-2.01-2.975-2.814-2.252 0 0-.965.805-.161 2.494a6.67 6.67 0 0 0 3.376 3.297Z"/><path fill="#fff" d="M412.726 139.237s-.804-.884-.482-2.895v-.161h-.322s-.402 2.252.563 3.378c0 0 .161.241.241 0z"/><path fill="#64B4D1" stroke="#00247D" stroke-miterlimit="2.6" stroke-width="1.2" d="M414.414 140.363s0-1.126 1.929-2.895c1.849-1.931.322-3.539-.804-3.539 0 0-1.286 0-1.607 1.85a6.67 6.67 0 0 0 .482 4.584Z"/><path fill="#fff" d="M414.655 137.95s0-1.287 1.609-2.654c0 0 .241-.241 0-.322h-.161s-1.93 1.448-1.93 3.057c0 0 0 .241.322.241 0 0 .16 0 .16-.322"/><path fill="#64B4D1" stroke="#00247D" stroke-miterlimit="2.6" stroke-width="1.2" d="M416.906 139.478s.482-.804 2.813-1.689c2.251-.804 1.608-2.815.724-3.217 0 0-.965-.402-2.09.885a6.1 6.1 0 0 0-1.447 4.021Z"/><path fill="#fff" d="M417.951 137.87s.483-1.126 2.573-1.689c0 0 .161 0 .161-.241 0 0 0-.161-.161-.081 0 0-2.332.483-2.975 1.931v.241s.322 0 .402-.161"/><path fill="#64B4D1" stroke="#00247D" stroke-miterlimit="2.6" stroke-width="1.2" d="M415.459 140.364s1.126.402 3.538-.805c2.412-1.206 3.537.885 3.216 1.85 0 0-.563 1.287-2.412.965a6.67 6.67 0 0 1-4.342-1.93z"/><path fill="#fff" d="M421.167 141.168s-1.045.804-3.135 0h-.161v.241s2.251.966 3.618.081c0 0 .161 0 0-.241z"/><path stroke="#000" stroke-miterlimit="2.6" stroke-width="1.2" d="M419.077 132.561s-1.206.644-.965 2.011"/><path stroke="#000" stroke-miterlimit="10" stroke-width="1.2" d="M413.61 132.803s-.482 1.528 0 2.412"/><path fill="#000" d="M467.071 118.806s.804 2.172.483 4.183c-.242 1.931.16 2.333.804 2.735.562.241 1.929-.322 2.009-1.77 0 0 1.608 3.057-1.447 5.068 0 0-2.17 1.367-4.019-.322-.643-.724-.965-2.413-.563-4.022 0 0 .482-2.172-.402-4.424 0 0 1.286 1.287.965 3.942 0 0-.643 4.826 2.894 4.504 0 0 2.412 0 2.412-2.896 0 0-.885.966-1.93.644a1.93 1.93 0 0 1-1.447-2.252c.081-1.287.482-3.459.241-5.39m-3.778 7.561s-.322 3.862-3.698 4.746c0 0 .482-.724-.241-2.654 0 0-.804-.965-.804-2.655 0 0-.965.805.241 3.057.804 1.368 0 2.896-.081 2.976-.321.081 5.548-.804 4.502-5.389zm-4.502-3.619s-.885-.966-.965-3.057c0-2.172-.402-2.735-.723-2.896 0 0 .402 1.85.321 2.896a5.6 5.6 0 0 0 .322 2.413s-1.93.242-3.136-2.413c-1.045-2.654-2.17-2.413-2.733-2.413 0 0 .643.08 1.929 2.413 1.287 2.413 1.689 2.976 4.985 2.976zm-8.683-5.631s.965 2.574 1.126 3.861c0 0-2.492-.804-3.216-2.815 0 0-2.573.804-1.608 3.78 0 0-2.331-.804-3.376-2.574 0 0 1.286.966 2.492 1.368 0 0-.161-2.494 2.894-3.379 0 0 .482 2.172 2.09 2.655zm4.02-4.344s.965 1.207 2.733 1.207a2.89 2.89 0 0 0 2.573-1.207s-.08 2.092-2.573 2.172c0 0-2.653 0-2.653-2.172zm-10.773 14.881 1.608 1.529s.965.965 1.608-.241c0 0 1.045-1.931 2.331-1.77 0 0-.964.563-1.929 2.413 0 0-.161.563-.965.644-.402 0-.804.16-1.447-.564 0 0-.563-.723-1.206-1.93zm13.426-23.649c-2.573 0-.402 1.931-.402 1.931 0 3.218-2.492 4.344-4.261 3.378-1.769-.965-.321-3.217-.321-3.217s-1.93 1.206-.804 3.137c1.286 1.931 4.582.965 5.788-.724 1.206 1.77 4.582 2.655 5.708.724 1.367-1.931-.643-3.218-.643-3.218s1.447 2.333-.402 3.218c-1.688 1.046-4.341 0-4.181-3.218 0 0 2.171-2.011-.402-2.011zm1.608-3.539s.965 1.609.804 4.022c0 0 .723-2.413-.804-3.941zm-8.04 3.781s-.241-1.77-1.929-1.931c0 0 1.528 1.046 1.929 1.931m12.863 0s.242-1.77 2.01-1.931c0 0-1.447 1.046-1.929 1.931zm-15.435 2.574s1.286.402 2.09-.563zm-4.341-10.538s1.527-.08 3.055 2.172c0 0-1.528.805-1.93 1.287 0 0 0-.804.804-1.367 0 0-.321-1.126-1.929-2.011zm25.726 0s-1.608-.08-3.136 2.172c0 0 1.608.805 1.93 1.287 0 0 0-.804-.804-1.367 0 0 .321-1.126 2.01-2.011zm-11.818 1.77s1.366.402 3.055-.563c0 0 2.09-1.126 3.457 0 0 0-1.126-.563-3.457.563 0 0-2.171 1.287-3.055 0"/><path fill="#fff" d="M458.791 99.5s1.126-2.01 4.824-1.608c0 0-1.045 2.896-4.824 1.609"/><path fill="#784421" d="M461.203 99.742c.355 0 .643-.396.643-.885 0-.488-.288-.885-.643-.885s-.643.397-.643.885c0 .489.288.885.643.885"/><path fill="#000" d="M461.203 99.42c.222 0 .402-.252.402-.563s-.18-.563-.402-.563-.402.252-.402.563.18.563.402.563M451.073 95.077s2.251.241 3.698.965c0 0 1.447.965 3.055-.241 0 0 1.769-1.126 2.975-2.494 0 0-2.814 1.85-3.859 2.172 0 0-.965-.804-1.206-1.85 0 0 0-.805 1.608-2.172 0 0-2.01.644-2.412 2.333.256.682.638 1.31 1.126 1.85 0 0-.322.241-1.287-.483 0 0-2.251-.643-3.698 0zm5.789 13.674c-1.93 1.69 0 1.529 0 1.529s1.929.161 0-1.609zm-1.126-10.618s-1.447.403-3.216-.563c0 0-2.09-1.126-3.457 0 0 0 1.206-.563 3.457.563 0 0 2.332 1.288 3.216 0"/><path fill="#fff" d="M454.289 99.5s-1.206-2.01-4.824-1.608c0 0 .965 2.896 4.824 1.609"/><path fill="#784421" d="M451.797 99.742c.356 0 .644-.396.644-.885 0-.488-.288-.885-.644-.885-.355 0-.643.397-.643.885 0 .489.288.885.643.885"/><path fill="#000" d="M451.797 99.42c.222 0 .402-.252.402-.563s-.18-.563-.402-.563-.402.252-.402.563.18.563.402.563"/><path stroke="#000" stroke-width="1.2" d="M526 81v129.989C526 245.658 456.701 257 456.701 257s-69.46-11.261-69.46-46.011V81z"/><g clip-path="url(#b)"><path fill="#fff" d="M0 0h300v150H0z"/><path fill="#012169" d="M0 0v150h300V0z"/><path fill="#000" d="m0 0 300 150Zm300 0L0 150Z"/><path stroke="#fff" stroke-width="30" d="m0 0 300 150m0-150L0 150"/><mask id="c" width="300" height="150" x="0" y="0" maskUnits="userSpaceOnUse" style="mask-type:luminance"><path fill="#fff" d="M150 75h150v75zm0 0v75H0zm0 0H0V0zm0 0V0h150z"/></mask><g mask="url(#c)"><path fill="#000" d="m0 0 300 150Zm300 0L0 150Z"/><path stroke="#C8102E" stroke-width="20" d="m0 0 300 150m0-150L0 150"/></g><path fill="#000" d="M150 0v150ZM0 75h300Z"/><path stroke="#fff" stroke-width="50" d="M150 0v150M0 75h300"/><path fill="#000" d="M150 0v150ZM0 75h300Z"/><path stroke="#C8102E" stroke-width="30" d="M150 0v150M0 75h300"/></g></g><defs><clipPath id="a"><path fill="#fff" d="M0 0h600v300H0z"/></clipPath><clipPath id="b"><path fill="#fff" d="M0 0h300v150H0z"/></clipPath></defs></svg>