<svg xmlns="http://www.w3.org/2000/svg" width="600" height="300" fill="none"><g clip-path="url(#a)"><path fill="#fff" d="M0 0h600v300H0z"/><path fill="#FFD520" d="M0 0h600v300H0z"/><path fill="#FF4E12" d="M0 300h600V0z"/><path fill="#fff" stroke="#000" stroke-width=".246" d="M309.865 89.73c-2.461-.801-4.061.43-3.937 3.633 0 3.14 1.722 4.926 4.183 3.756z"/><path fill="#fff" stroke="#000" stroke-width=".246" d="M312.018 83.818c-2.03-1.601-3.937-.924-4.922 2.094-.922 3.079.062 5.295 2.769 4.926z"/><path fill="#fff" stroke="#000" stroke-width=".246" d="M315.402 78.03c-1.723-1.848-3.691-1.478-5.168 1.354-1.415 2.833-.8 5.234 1.969 5.358zm-2.215 28.018c-3.014 1.109-3.322 5.234-1.415 7.759 1.846 2.525 5.353 3.018 7.26 0z"/><path fill="#fff" stroke="#000" stroke-width=".246" d="M309.68 97.304c-2.83-.924-5.414 2.894-5.845 6.343-.553 4.31-6.767 5.788-3.322 12.377.738-4.187 3.507-6.527 5.722-6.651 2.215-.184 5.537-.615 6.952-3.325zm9.044 16.996c-3.322.8-3.815 5.234-1.415 8.375 2.03 2.709 8.429 2.093 8.244-.616zm9.413 26.725c.185-2.894-4.43-4.002-6.645-3.448-2.214.616-6.459-.062-7.382-2.463-.862 1.909.307 4.002 3.507 5.049 2.46.739 2.399 2.463 1.661 3.326 1.845.308 7.198.308 8.859-2.464Z"/><path fill="#fff" stroke="#000" stroke-width=".246" d="M325.554 122.798c-3.261-1.478-5.168.739-6.399 2.833-1.845 3.079-7.444-.863-9.351 3.263 2.584-1.108 5.168 1.232 6.398 2.032 3.507 2.279 10.213 1.601 11.197-3.818z"/><path fill="#fff" stroke="#000" stroke-width=".246" d="M327.46 126.554c-3.261 2.463-4.553 5.419-4.43 7.39.062 1.97 2.83 6.342 5.845 6.589 1.723-3.572 2.645-11.085-1.415-13.979Zm-13.535 15.334c0-1.232 1.722-1.663 2.953-1.232 1.169.369 3.015 1.539 2.338 2.833zm-17.842-6.589c-.308-1.417 1.969-3.88 5.045-2.525s3.507 3.941 2.215 4.988z"/><path fill="#fff" d="M303.589 138.008c-.246-.8 2.031-2.402 5.784-1.478 3.814.985 4.737 3.449 4.614 5.358zm-7.936-2.648c2.03-1.478 1.23-4.31-.554-5.234-3.199-1.601-2.03-5.665-4.122-6.466-2.03-.801-3.999-2.217-4.122-3.695-.984 2.032-.369 3.818 1.046 5.111 1.415 1.232-1.108 6.405.738 7.759zm-42.451-1.108c-1.661-2.587-5.599-2.156-7.26-.308-1.661 1.847-1.415 4.495.123 5.727zm9.536-3.88c-.615-3.51-4.86-3.879-7.137-3.017-2.338.862-3.876 4.372-2.399 6.897z"/><path stroke="#000" stroke-width=".246" d="M253.202 134.252c-1.661-2.587-5.599-2.156-7.26-.308-1.661 1.847-1.415 4.495.123 5.727zm0 0c-1.477-2.525.061-6.035 2.399-6.897 2.277-.862 6.522-.493 7.137 3.017zm50.387 3.756c-.246-.8 2.031-2.402 5.784-1.478 3.814.985 4.737 3.449 4.614 5.358zm-7.936-2.648c2.03-1.478 1.23-4.31-.554-5.234-3.199-1.601-2.03-5.665-4.122-6.466-2.03-.801-3.999-2.217-4.122-3.695-.984 2.032-.369 3.818 1.046 5.111 1.415 1.232-1.108 6.405.738 7.759z"/><path fill="#fff" stroke="#000" stroke-width=".246" d="M269.014 129.88c1.538-2.895-1.415-7.267-4.737-7.883-2.769-.615-6.03-.554-7.137-3.263-.615 2.34 1.107 3.879 3.199 5.234 2.03 1.355-.369 4.803 2.953 6.774z"/><path fill="#fff" stroke="#000" stroke-width=".246" d="M268.767 130.003c-.738-2.094.677-4.927 3.507-4.68 2.892.184 4.492 2.216 3.261 4.864z"/><path fill="#fff" stroke="#000" stroke-width=".246" d="M275.104 130.187c-.43-2.216 1.354-4.803 4.184-4.187 2.769.616 4.061 2.894 2.461 5.234l-6.645-1.108z"/><path fill="#fff" stroke="#000" stroke-width=".246" d="M281.318 131.173c-.246-2.217 1.661-4.68 4.429-3.941s3.938 3.079 2.215 5.357l-6.583-1.416zm-47.742 36.332c-5.353 0-6.645 1.231-7.383 6.773-.985 6.774 8.305 7.575 7.383-6.773Z"/><path fill="#fff" stroke="#000" stroke-width=".246" d="M235.914 160.361c-8.121-3.078-12.551 9.853-20.672 7.513 2.892 4.619 9.905 0 12.551.493 4.43.8 14.027-.862 8.121-8.006Zm-5.291 17.674c-4.061-1.848-8.367 4.31-7.629 7.082 1.046 3.386 10.274.615 7.629-7.082Zm-18.826 26.664c2.215.616 4.922 1.847 4.429 6.158-.492 4.31-8.613 12.993-15.873 13.547-7.259.431-9.843 9.237-16.18 6.774 5.906-1.108 5.906-7.759 10.459-9.853-3.322-1.231-5.045 6.343-9.352 6.343-4.306 0-6.337 6.835-11.566 6.343-5.23-.431-5.722 8.313-16.242 8.436-7.998.062-17.842 9.422-21.472 5.358 7.813-1.109 10.951-5.419 15.565-10.161 7.383-7.574 15.812-4.187 18.704-10.9a19.43 19.43 0 0 1-11.259 3.326c-4.922-.124-10.213 7.759-15.689 4.31 3.138-.431 5.23-1.786 8.552-5.296 3.384-3.571 8.429-1.231 12.366-4.926 6.153-5.665 11.505-.924 17.411-8.005-1.661-.862-5.229-.308-8.551 1.478-3.323 1.724-7.568-1.232-11.382.862.43-4.68 9.351-2.032 14.888-5.235 6.276-3.694 11.444-2.586 16.366-2.155-6.891 0-9.536-6.589-19.073-4.68-4.122.862-7.444-5.727-11.566-2.402.123-2.463 4.43-4.433 8.859-2.032 4.43 2.402 6.214-2.093 15.074 3.51 3.691 2.279 9.905-1.478 13.842.986-.492-1.478-2.768-2.464-5.414-2.217 1.661-3.449 12.428-3.018 17.104.431Z"/><path fill="#fff" stroke="#000" stroke-width=".246" d="M218.811 199.526c-3.445-2.709-8.306.554-11.689-.739 0 2.217 1.169 5.542 4.798 6.836 1.108-.801 6.153-5.173 6.891-6.097Z"/><path fill="#fff" stroke="#000" stroke-width=".246" d="M224.287 191.829c-5.476-2.771-6.399 4.125-10.705 2.709.184 1.971 1.784 4.434 5.229 4.988z"/><path fill="#fff" stroke="#000" stroke-width=".246" d="M227.547 185.548c-8.06-3.141-9.106 4.618-13.843 3.079 1.108 2.709 7.875 4.187 11.382 3.202zm11.074-33.992c-2.153-3.079-6.644-.616-7.383 3.017-.676 3.572 1.046 8.56 4.061 7.39z"/><path fill="#fff" stroke="#000" stroke-width=".246" d="M244.097 142.072c-3.692-.923-7.998-.492-7.506 3.079-1.477.678-1.846 5.358 2.03 6.405z"/><path fill="#fff" stroke="#000" stroke-width=".246" d="M246.558 139.609c-3.692-4.31-7.691-4.249-9.967-2.463-4.245 3.387-8.306 1.478-8.429 4.803 2.523-1.97 4.799.37 6.768-.308 2.091-.739 3.63 3.264 9.351 1.601zm-8.798 63.981c.553 1.047 3.937 1.478 5.598-.246 2.215-2.34-.184-8.744-3.691-9.237-3.507-.431-3.814 7.266-1.907 9.483Z"/><path fill="#fff" stroke="#000" stroke-width=".246" d="M233.822 203.714c4.922 1.847 7.075-2.279 4.43-4.927a49 49 0 0 1-4.43 4.927Z"/><path fill="#fff" d="M215.119 210.549c-.985 2.894-5.907 3.325-11.444 12.193-5.537 8.929-10.828 5.172-12.181 11.269 6.644-5.358 11.874-1.848 15.873-7.144 5.967-8.066 10.951-6.896 13.289-12.315 3.322-7.821 17.842-7.636 18.703-19.891-4.922-.923-20.487 12.255-24.24 15.888M340.134 90.653c6.337 2.094 6.46 10.284 13.781 12.994 7.26 2.709 7.998 9.237 13.966 7.635-5.537-1.539-5.168-7.943-10.951-9.544-6.768-1.848-9.352-12.193-14.766-13.794m27.071 45.753c1.107 2.587.923 7.082-3.076 8.252 2.153 1.355 5.352.123 7.075-2.833-2.584 5.789-.862 11.023 3.26 12.07-1.968-4.064 2.461-5.973 1.046-8.621 2.584 1.17 4.922 4.742 4.799 6.958 3.445-3.817-2.461-8.929-1.415-12.5zm-41.159 40.766c-3.876-3.387-5.538.924-7.383-.616-1.846-1.354-4.184-1.539-5.107-.184 3.323.123 1.723 2.709 8.183 3.325-6.46.431-5.291 7.697-9.598 7.328 4.553 4.311 6.952-3.88 10.705-2.525-1.107.308 1.723 2.894-.246 6.404 3.199-.061 4.491-4.495 4.922-6.773zm-85.518 37.071c-1.353-1.231-5.537-1.786-7.075-.8-1.6.923-1.046 1.231.861 1.354 1.907.124 4.307 3.203.246 3.387-1.907.062-1.23 4.68-5.229 4.988 1.599 1.971 6.275.678 7.936-1.478-.307 1.786 2.031 3.387 1.108 5.542 2.891.308 1.23-5.973 5.844-5.665-1.845.246-1.107 4.557 2.215 3.449-1.968.923-.923 3.263 1.231 2.709-1.354.431-1.846 2.279.123 3.325 1.907-2.648-.246-12.008-7.198-16.811zm172.635-87.505a11 11 0 0 0 8.313-2.911 11.02 11.02 0 0 0 3.522-8.08 11.03 11.03 0 0 0-3.522-8.081 10.993 10.993 0 0 0-8.313-2.911 11 11 0 0 0-7.251 3.494 11.03 11.03 0 0 0 0 14.995 11 11 0 0 0 7.251 3.494"/><path stroke="#000" stroke-width=".246" d="M340.134 90.653c6.337 2.094 6.46 10.284 13.781 12.994 7.26 2.709 7.998 9.237 13.966 7.635-5.537-1.539-5.168-7.943-10.951-9.544-6.768-1.848-9.352-12.193-14.766-13.794M215.119 210.549c-.985 2.894-5.907 3.325-11.444 12.193-5.537 8.929-10.828 5.172-12.181 11.269 6.644-5.358 11.874-1.848 15.873-7.144 5.967-8.066 10.951-6.896 13.289-12.315 3.322-7.821 17.842-7.636 18.703-19.891-4.922-.923-20.487 12.255-24.24 15.888Zm154.116-76.852c1.107 2.587.923 7.082-3.076 8.252 2.153 1.355 5.352.123 7.075-2.833-2.584 5.789-.862 11.023 3.26 12.07-1.968-4.064 2.461-5.973 1.046-8.621 2.584 1.17 4.922 4.742 4.799 6.958 3.445-3.817-2.461-8.929-1.415-12.5zm-41.159 40.766c-3.876-3.387-5.538.924-7.383-.616-1.846-1.354-4.184-1.539-5.107-.184 3.323.123 1.723 2.709 8.183 3.325-6.46.431-5.291 7.697-9.598 7.328 4.553 4.311 6.952-3.88 10.705-2.525-1.107.308 1.723 2.894-.246 6.404 3.199-.061 4.491-4.495 4.922-6.773zm-85.518 37.071c-1.353-1.231-5.537-1.786-7.075-.8-1.6.923-1.046 1.231.861 1.354 1.907.124 4.307 3.203.246 3.387-1.907.062-1.23 4.68-5.229 4.988 1.599 1.971 6.275.678 7.936-1.478-.307 1.786 2.031 3.387 1.108 5.542 2.891.308 1.23-5.973 5.844-5.665-1.845.246-1.107 4.557 2.215 3.449-1.968.923-.923 3.263 1.231 2.709-1.354.431-1.846 2.279.123 3.325 1.907-2.648-.246-12.008-7.198-16.811zm172.635-87.505a11 11 0 0 0 8.313-2.911 11.02 11.02 0 0 0 3.522-8.08 11.03 11.03 0 0 0-3.522-8.081 10.993 10.993 0 0 0-8.313-2.911 11 11 0 0 0-7.251 3.494 11.03 11.03 0 0 0 0 14.995 11 11 0 0 0 7.251 3.494Z"/><path fill="#fff" stroke="#000" stroke-width=".246" d="M357.854 137.269c3.384-3.141 8.429-4.742 11.935-2.34 3.446 2.34 15.012 5.173 20.734 1.232s8.429-6.035 10.951-5.543c1.846 2.833 4.184 4.188 7.014 4.434.861.985 3.999 1.724 5.721 1.54 2.523.615 5.599-.185 8.06-2.895 3.814.616 7.383-2.278 8.736-6.589 4.061-.431 4.307-4.926 1.723-8.005-2.338-.431-.554-8.498-9.167-6.897 3.691 2.217.861 6.651 3.876 8.744-2.03 0-4.737.863-5.353 3.942.8-2.094-.123-3.572-.615-4.003 0-1.848-3.999-6.343-7.813-4.68 2.707.616 1.23 4.926 3.199 6.65a4.98 4.98 0 0 0-3.815 2.033c-1.046-1.848-4.675-3.695-6.89-3.88 0-.616-.123-1.847-.431-2.525-.984-1.909-1.846-4.187-1.415-7.081a29.6 29.6 0 0 0-4.43 7.02c-3.014-2.094-10.459.923-13.965 1.724-3.446.8-15.197-1.109-17.842-3.941a30.25 30.25 0 0 0-12.92-6.035c-6.768-1.971-6.768-9.36-14.212-14.471-.185 9.237 13.781 38.425 16.919 41.566Zm-77.643 70.139c2.823 0 5.53-1.122 7.527-3.12a10.66 10.66 0 0 0 0-15.066 10.641 10.641 0 0 0-18.17 7.533c0 2.825 1.121 5.535 3.117 7.533a10.64 10.64 0 0 0 7.526 3.12Z"/><path fill="#fff" d="M254.864 199.218c2.153 2.771 5.783 2.587 7.321 2.402 1.231 3.325 5.291 3.202 7.014 5.049 1.784 1.848 7.69 1.663 9.413.616-1.538-.123-3.63-1.108-5.537-2.771-2.461-1.971-1.354-6.035-3.2-7.39a6.77 6.77 0 0 0 1.354-5.295c1.477-.862 2.584-2.279 2.707-3.018a9.22 9.22 0 0 0 5.906-2.525c1.354 1.232 4.738-.369 6.583 1.725.369-5.235-4.614-8.006-7.998-6.22-1.292-.739-4.86-.246-5.537.678-1.046-.493-4.183 1.108-5.537 2.155 1.538-.862 1.784-3.51 1.169-4.434 1.353-.616 2.83-2.402 3.015-3.695 1.845.308 4.737-.985 5.967-.677-2.03-2.71-5.414-3.695-8.921-3.387-3.629.185-5.167 2.71-5.66 5.419-2.091 1.293-2.83 5.542-2.03 7.082-1.23 0-2.399 1.17-2.83 1.847a16.4 16.4 0 0 0-5.783-1.231m.8-4.311c-.739-2.094.184-3.941.676-5.542 1.231-4.188.493-5.296-3.26-4.742a29 29 0 0 0 2.584 10.284"/><path stroke="#000" stroke-width=".246" d="M254.864 199.218c2.153 2.771 5.783 2.587 7.321 2.402 1.231 3.325 5.291 3.202 7.014 5.049 1.784 1.848 7.69 1.663 9.413.616-1.538-.123-3.63-1.108-5.537-2.771-2.461-1.971-1.354-6.035-3.2-7.39a6.77 6.77 0 0 0 1.354-5.295c1.477-.862 2.584-2.279 2.707-3.018a9.22 9.22 0 0 0 5.906-2.525c1.354 1.232 4.738-.369 6.583 1.725.369-5.235-4.614-8.006-7.998-6.22-1.292-.739-4.86-.246-5.537.678-1.046-.493-4.183 1.108-5.537 2.155 1.538-.862 1.784-3.51 1.169-4.434 1.353-.616 2.83-2.402 3.015-3.695 1.845.308 4.737-.985 5.967-.677-2.03-2.71-5.414-3.695-8.921-3.387-3.629.185-5.167 2.71-5.66 5.419-2.091 1.293-2.83 5.542-2.03 7.082-1.23 0-2.399 1.17-2.83 1.847a16.4 16.4 0 0 0-5.783-1.231m.8-4.311c-.739-2.094.184-3.941.676-5.542 1.231-4.188.493-5.296-3.26-4.742a29 29 0 0 0 2.584 10.284Z"/><path fill="#fff" stroke="#000" stroke-width=".246" d="M250.311 171.199c.984.986 4.306 1.417 4.675-1.601.431-3.448-.984-4.803-3.999-3.448-.246.8-.492 4.003-.615 5.049z"/><path fill="#fff" stroke="#000" stroke-width=".246" d="M251.049 166.027c1.23.492 3.999 1.539 5.537-1.417 1.23-2.463-.431-4.31-3.076-4.187-.615.739-1.846 3.264-2.461 5.604Z"/><path fill="#fff" stroke="#000" stroke-width=".246" d="M253.387 160.177c.307.985 3.568 4.126 5.906 1.847 2.399-2.278 2.399-5.727-1.169-6.958-.923.123-3.814 3.448-4.737 5.111Z"/><path fill="#fff" stroke="#000" stroke-width=".246" d="M258.124 155.004c.677 2.032 2.953 5.419 7.075 3.88 4.122-1.602 2.338-6.774.431-7.821a20.3 20.3 0 0 0-7.506 4.003z"/><path fill="#fff" stroke="#000" stroke-width=".246" d="M265.63 151.063c-.308 1.786 0 6.527 5.66 6.466 5.599-.123 4.061-6.712 2.584-7.636-2.276 0-6.152.062-8.244 1.232z"/><path fill="#fff" stroke="#000" stroke-width=".246" d="M274.12 150.078c-.615 1.416-2.03 10.283 8.982 7.82 1.415-.308 5.107-8.498-8.982-7.759z"/><path fill="#fff" stroke="#000" stroke-width=".246" d="M280.15 150.94c-1.107 1.108 1.723 10.037 9.229 8.559 7.382-1.539 1.168-10.037-9.229-8.621z"/><path fill="#fff" stroke="#000" stroke-width=".246" d="M286.487 152.295c-1.231 2.463.615 9.729 9.782 9.729 8.306 0-.431-9.606-9.782-9.729Z"/><path fill="#fff" stroke="#000" stroke-width=".246" d="M293.684 154.388c-.615 1.417-1.292 9.114 9.537 9.791 7.813.493 5.906-10.653-9.537-9.791Z"/><path fill="#fff" stroke="#000" stroke-width=".246" d="M305.312 157.652c-1.292 2.402-2.707 8.313 9.167 8.806 7.568.308 2.892-8.621-9.105-8.806z"/><path fill="#fff" stroke="#000" stroke-width=".246" d="M315.217 159.499c-1.722 2.34-.43 7.02 3.999 7.883 5.537 1.108 6.337-4.126 2.523-6.651-3.815-2.463-6.522-1.232-6.522-1.232Z"/><path fill="#fff" stroke="#000" stroke-width=".246" d="M320.693 160.546c-1.292 2.279-.553 7.636 7.875 7.636 1.723 0 8.367-6.774-7.936-7.574zM255.54 264c3.263 0 6.393-1.298 8.701-3.607a12.326 12.326 0 0 0 0-17.418 12.3 12.3 0 0 0-8.701-3.607 12.3 12.3 0 0 0-8.701 3.607 12.326 12.326 0 0 0 0 17.418A12.3 12.3 0 0 0 255.54 264Z"/><path fill="#fff" stroke="#000" stroke-width=".246" d="M345.979 84.619a21.7 21.7 0 0 0-3.322 4.926c-4.122 12.316 6.891 21.553 13.289 34.916a38.83 38.83 0 0 1-3.445 37.378c-2.707 3.572-1.907 4.619-5.414 8.252-1.354 1.416-2.83 3.202-2.338 8.252 2.215-.801 5.352 1.231 5.968 3.079 1.599-.862 3.814-.554 4.614.431 2.707-1.232 4.922-.616 7.321 1.847 2.03-.246 4.307 0 6.337 2.279 1.108-2.217 3.322-3.079 4.922-2.525-.185-2.894 2.645-4.927 5.168-3.818a4.69 4.69 0 0 1 1.381-4.552 4.67 4.67 0 0 1 4.648-.99c2.892-2.217 8.614-2.402 11.444.923-5.107-1.416-4.922 4.003-9.229 3.511 1.107 3.14-1.723 4.987-4.553 6.034 1.846-.862 3.815-1.909 4.43-.8 1.6-1.417 4.737-.862 5.537-.185 2.092-.616 4.122-.123 5.045 2.402 2.892 1.724 4.799 6.158 2.707 9.483-.615-3.449-3.015-3.325-3.937-4.742-2.215.801-4.43.801-5.107-.616-1.23 1.232-5.537 2.402-7.383.493-.738 2.833-3.199 5.234-6.09 5.234.799 2.217-1.416 5.974-3.138 7.883 2.707 1.416 1.846 4.618 1.23 6.527 4.184.616.616 4.311 7.814 6.651-3.507 1.108-10.336 0-11.259-4.311-3.507-.123-5.845-3.633-5.722-7.266-2.707-2.525-3.076-6.158.616-8.745-3.138.986-4.922-4.125-9.475-2.032-2.276 1.047-8.306-.739-8.244-2.832-.923 1.539-6.768.923-7.506-1.786-1.907 1.047-6.337-.678-6.275-3.326-2.461 1.109-5.784-.862-5.599-3.386-2.338-.308-2.584-2.402-2.461-4.126-2.03-.986-1.477-2.956-.615-5.296-1.477-1.601-.862-3.818.246-5.912-1.538-1.601-1.231-3.448-.8-5.727-7.567-.615-17.103-2.463-38.944-9.175-32.977-10.161-41.836 13.671-34.576 28.573 8.428 17.242-.923 20.937 1.907 33.746 3.076.615 4.614 3.202 4.43 5.911 1.845.062 3.076 1.724 2.461 4.927a5.533 5.533 0 0 1 4.675 1.416c1.108-2.094 4.799-2.586 6.645-.185 4.122-.308 6.214 3.079 6.029 7.143a11.094 11.094 0 0 1-.923 11.885c.246-1.662 0-4.002-.061-5.48-.185-2.587-3.815-3.141-3.446-5.296-1.845.185-3.691-.862-4.306-2.279a4.18 4.18 0 0 1-4.061.801c2.092.924 3.815 4.742 3.138 7.266 1.107 1.909.861 5.419-.431 6.897-.615 3.079-3.076 4.188-6.152 2.833 1.784-1.109 2.399-3.079 2.338-4.742a6.16 6.16 0 0 1-1.784-3.879c-3.077.492-7.383-2.156-8.121-3.202a12.3 12.3 0 0 0-8.723 3.629 12.33 12.33 0 0 0-3.582 8.748c-.369-2.525-3.568-5.049-3.138-7.205-1.907-5.85.8-11.33 8.552-12.439-.984-2.217 2.338-4.495 1.107-7.02a59.7 59.7 0 0 0-9.044-12.377c2.707-4.619 1.846-10.777.308-14.595-2.276-5.48-4.43-4.126-12.489 4.742-13.166 14.471-30.762 10.468-46.266 20.013-4.122 2.463-8.244 3.449-3.814-.985s16.119-8.867 23.748-12.685c14.273-7.144 26.332-19.029 31.069-42.182 11.136-54.437 52.295-36.456 78.258-26.357 24.425 9.545 19.995-12.008 7.629-25.062-14.889-15.58-11.874-27.896-4.922-37.749 12.489-1.724 36.545 2.648 31.684 6.835Z"/><path fill="#fff" stroke="#000" stroke-width=".246" d="M390.153 218.308a13.557 13.557 0 0 0 12.534-8.382 13.6 13.6 0 0 0 0-10.393 13.58 13.58 0 0 0-7.342-7.348 13.53 13.53 0 0 0-14.762 2.934 13.553 13.553 0 0 0 0 19.159 13.53 13.53 0 0 0 9.57 3.968z"/><path stroke="#000" stroke-width=".246" d="M338.412 85.234c-3.076 13.363-.492 19.398 3.937 25.248 9.167 12.131 16.489 39.78 6.03 57.885"/><path stroke="#000" stroke-linecap="round" stroke-width=".246" d="M354.224 152.726c1.23-.431 3.691-1.971 4.183-4.557m-3.199-1.232c.369-2.278 3.937-3.264 3.999-5.727m-3.937-3.202c-.247-2.402 3.568-4.557 3.014-6.897m-5.106-1.663c-.308-1.354 3.199-3.879 2.215-6.034m-4.799-2.34c-.739-1.478 1.661-3.203.615-4.804m-4.43-1.847c-.246-.985 1.231-3.264.431-4.618m-4.245-3.203c.307-.431 1.599-1.354 1.107-2.524m-3.691-3.264c.492-.246 2.03-.739 1.846-1.847"/><path stroke="#000" stroke-linecap="round" stroke-linejoin="round" stroke-width=".246" d="M261.015 250.391c-3.076-1.109-7.075.431-7.875 3.14m2.4 2.464c.369-2.71 4.491-3.88 5.721-2.648-2.584-1.417-3.876 3.694-1.538 3.818m21.287-63.92c-1.845.985-2.461 4.434 0 7.082m2.83-6.282c-1.292 1.109-1.23 4.434.739 5.235-1.662-1.232 0-3.264 1.23-3.326 1.169-.061 1.969 1.355.492 2.772m108.897 3.202c-4.43-1.232-7.998 3.941-3.938 8.559-.123-4.433 3.076-7.389 6.952-6.589m-1.845 3.079a1.66 1.66 0 0 0-1.662 1.663c0 .862.739 1.724 1.969 1.724.8 0 1.477-.924 1.477-1.663m13.904-99.143c.738 2.71 4.43 3.88 7.383 3.202m0-1.724c-2.277.062-4.184-2.094-4.061-3.879 0 1.354 3.076 1.97 4.061 1.108"/><path stroke="#000" stroke-linecap="round" stroke-width=".246" d="M262.185 201.62c-.616-1.601 1.845-3.202 1.968-4.68.062-1.54 2.83-2.71 5.722.123m-1.354-16.873-1.538.739m7.014 7.882c-.677 0-2.092 0-2.83-.554m0 3.572c-.492.308-1.723.739-2.461.923m-24.671 46.986c-.123 1.416 1.354 3.51 2.092 4.125m4.06-7.512a6.15 6.15 0 0 0-.799 4.68m12.612 0c-1.415-.924-.492-3.325-.615-4.927-.185-1.601 1.661-4.125 5.229-1.97m-17.903-2.155c1.415-.247 2.892-.185 3.876.246m14.15-4.742a5.1 5.1 0 0 0-.861 2.463m7.567-2.647c-1.107 0-2.091.8-2.584 1.601m-12.797-42.182c1.231.431 4.553 2.463 4.676 4.556m8.798-14.902c-3.876-.061-5.414-4.002-2.461-4.002m9.413 9.36c-1.476.615-.8 3.202 1.354 4.495m-10.644 20.383c-.738-.985.246-3.695 2.707-2.894m3.076 31.836c.185-2.463 3.2-3.818 4.43-1.108m-15.688 8.005c-.185-2.648 1.23-3.51 2.338-3.695 1.23-.123 2.891.863 3.691 2.587m-29.593 3.079c.123-1.601 1.477-3.264 2.892-3.018m142.119-67.368c-1.046.739-1.723 4.126 2.153 4.434m-8.183 1.17c0 .369.493.924.8 1.232m17.842 5.111c-.984-.801-3.691 2.463-1.23 4.741m-23.995 21.923c-.553-2.279 1.539-2.895 3.569-2.402m-8.613-13.671c1.23-.739 2.461-1.662 3.937-2.032m-4.553 10.777c0-1.848.985-3.51 1.846-3.941m5.168-17.92a9.85 9.85 0 0 0 1.477 5.665m17.349-5.542c-1.169.369-2.153.801-2.584 1.786m1.292 4.741c.615-.492 1.231-1.046 1.477-1.416m28.485-67.861c0 2.217-2.768 3.449-4.614 2.032m10.643-1.908c1.231.923 5.476 0 4.492-2.464m-9.721 15.21a6.76 6.76 0 0 1-3.015-1.847m11.751-4.742c-1.415.308-2.399 0-3.076-.307m-19.441 8.251a10.5 10.5 0 0 0 3.999-.985m-6.214-13.055c-1.046-.123-1.846.062-2.4.493m18.334 3.387a6.77 6.77 0 0 1-1.845 3.202"/><path stroke="#000" stroke-linecap="round" stroke-linejoin="round" stroke-width=".246" d="M403.442 128.402c1.969-.862 4.43 5.85 9.229 3.51m.369-7.02a6.95 6.95 0 0 0-1.107 3.448"/><path stroke="#000" stroke-width=".246" d="M318.232 114.608c.616-.123 1.785-.308 2.031-1.109m-83.549 74.943c2.399 1.355 4.06 3.633 3.076 7.02m105.882-88.182c.738.492 3.384.492 4.922 0m1.845 1.601c0 1.108.308 5.296-1.845 6.158m.799-.493c1.969.616 5.907.37 7.199-3.264m-2.769 3.079c1.046 1.602 1.354 4.681-1.723 6.343m2.461-3.695c2.338.739 7.629.863 7.076-3.694m-1.846 3.694c1.661 2.156 8.613 4.804 7.506.185m-13.843 6.158c2.645.677 6.46-1.17 4.922-5.912m7.567 2.402c.369 1.847 9.229 3.695 8.06-.431m-1.661 2.402c1.661 3.818 10.459 3.51 7.69-1.601m-1.415 4.002c1.723 2.094 9.536.862 6.398-4.31m-.061 4.187c4.86 3.695 10.459-1.539 4.307-5.357m2.83 4.187c4.306 3.387 9.536-2.771 5.783-4.495m-39.621 3.079c1.353.369 4.183.246 4.86-2.217m-1.107 1.662c-.123 3.572 5.906 4.927 7.444.801m-2.03 2.278c1.107 2.402 6.46 3.326 7.321-.061m-.861 1.601c.861 2.34 5.475 2.094 6.767-.369m-1.722 1.601c1.415 3.079 7.321 3.079 8.613-1.417m-.984 1.971c2.276 1.416 7.198.862 6.767-3.572m-.923 3.202c3.446 2.771 8.244.062 5.845-4.618m-.185 8.252c1.846-.308 2.769-3.942.862-4.927m-43.067 5.542c3.692-2.032 4.492-5.542 1.846-8.929m1.354 5.481c2.399 1.416 6.89-.123 7.69-3.572m-4.43 3.941c1.354 1.725 1.6 3.88-.184 5.85m1.23-3.633c4.245-2.586 9.475 2.217 5.537 5.173m-.615-5.419c.923-.246 2.584-1.971 2.707-3.941m-.861 5.788c1.784-1.847 13.658 1.848 6.152 5.727m-.615-10.715c2.338.862 3.507 4.126 0 5.235m3.076 2.709c2.461-2.648 10.459-.985 7.567 2.34m-1.907-3.387c1.415-4.865 9.906-1.847 7.137.123m-8.859-4.926c.246.924.307 3.264-1.231 4.557m8.367-5.542a3.76 3.76 0 0 1-.492 3.263m5.845-3.202c.492.862 1.23 2.525-.492 3.88M329.368 91.7c.062 4.495 1.661 7.513 7.752 4.68m-5.845.678c-3.076 4.064.369 8.436 6.337 4.064m-15.688-2.155c4.122 4.433 11.505 1.231 6.767-5.543m4.922 9.361c-.738 4.372 2.83 5.234 5.722 3.263m-21.041-6.343c.738 4.373 5.229 7.821 9.598 5.173m-4.246.862c0 6.281 8.614 6.959 10.644.493m-3.076 3.941c2.768 5.727 8.798 3.387 10.766-.062m-16.857-9.052c1.107 2.771 3.322 5.85 8.429 3.572m-24.302-4.927c.738 2.279 4.86 5.05 9.598 1.848m-6.645 1.108c-2.584 3.695 2.461 7.205 8.613 1.663m-5.598 2.894c.984 5.235 3.076 9.484 10.459 2.71m-3.692 2.709c2.707 3.326 6.829 5.358 10.705-.246"/><path stroke="#000" stroke-width=".246" d="M335.643 113.623c-.246 4.002.492 5.973 3.63 5.788 2.461-.123 4.737-2.032 6.091-4.126m-6.645 4.126c-.123 4.557 3.446 8.129 10.152 3.51m-7.383 1.847c-1.23 3.387 2.522 8.93 9.967 6.097m-25.779-15.149c-.43 4.311 3.569 7.267 10.09 1.663m-6.89 3.14c.246 3.572 4.306 7.883 10.213 1.663m-7.383 2.894c-.431 6.097 5.168 7.821 9.905 3.141m-18.334-7.698c1.231.124 2.276-.985 2.892-1.847m-.246 6.281c1.107.247 3.076-.739 3.691-2.032m-.861 9.237c1.23 1.416 5.537.431 6.09-1.416m-1.353 1.354c2.338 5.543 8.675 5.358 11.32-.923m-1.23 2.217c1.23 3.263 4.245 5.295 9.167 4.187m-6.768-.862c-2.768 4.495.862 9.853 7.075 4.618m-5.537 2.156c-.307 2.832 2.277 6.096 5.845 6.466m-17.596-14.78c-.923 6.405 3.692 9.484 9.413 6.035m-16.119-2.956c1.477 1.17 4.184 1.294 6.768.37m3.076 3.695c-1.477 5.419 4.061 9.298 8.798 3.263m-16.55-6.465c.123 2.771 2.769 5.788 7.444 4.926m13.105 5.542c-3.199 2.094-3.815 5.912.615 8.375m-8.367-9.483c.123 3.202 1.661 5.049 5.229 5.357m-9.905-7.02c-4.799 4.311-.123 9.422 5.537 5.111m-2.215 1.355c-1.599 4.988 4.307 8.005 7.506 2.956m-17.349-13.548c-1.723 4.927.492 8.129 4.552 7.821m-10.828-8.806c.246 2.956 2.769 4.003 5.66 3.325m-3.814-.246c-2.153 4.126 1.107 6.343 5.414 4.803m12.92 9.237c-.615 2.586-.246 4.434 3.63 5.357m-3.322-1.662c-4.676 2.093-5.107 6.65-1.477 9.545m-2.338-14.595a4.685 4.685 0 0 0 .738 7.575m-21.533-22.046c-2.645 2.648-.123 9.976 5.845 5.973m9.659 3.264c-3.691 3.079-2.03 8.498 3.999 7.02m-10.028-9.237c-1.907 5.358-.123 7.267 4.183 7.328"/><path stroke="#000" stroke-width=".246" d="M318.418 142.75a5.04 5.04 0 0 0-2.154 3.548 5.05 5.05 0 0 0 1.231 3.964c1.415 1.601 4.122.863 4.922-1.17m-10.828-8.498c-3.63 4.68 0 10.223 5.168 8.622m14.335 5.295c-3.692 1.294-6.583 4.68-4.307 7.698 1.415 1.724 7.26 1.97 8.921-4.803m-11.32-7.267c-2.154 3.079-1.477 6.035 2.461 7.513m-2.707-1.724c-2.338 1.231-3.815 2.771-3.261 5.542m-1.907-10.407c-.862 3.695.184 6.035 2.461 7.143m-2.523-2.709c-3.568-.247-5.414 1.231-4.183 4.803m.307-3.941c-3.507-1.232-4.06-4.311-2.522-7.39m-.492 4.68c-3.815.123-5.538 2.032-5.538 4.619"/><path stroke="#000" stroke-width=".246" d="M306.851 138.809c-2.769 1.17-3.692 4.926-2.646 6.958s4.307 2.217 6.276.862m-11.321-10.776c-2.522 2.832.369 8.436 4.922 7.081m-11.443-9.298c-2.338 3.325.246 8.867 6.337 7.266m.307 15.457c-.615-3.941 3.507-6.528 8.614-1.417m-2.461-8.005a6.22 6.22 0 0 0-2.031 5.234m-17.226-20.444c-2.646 4.434.554 8.498 6.152 6.897m8.49 4.126c-3.691 3.694-2.46 7.451.308 9.606m-2.707-5.234c-5.599.061-5.906 6.589-1.353 8.621m-2.892-15.149c-2.338 1.601-3.076 5.974.923 7.698m-1.108 2.094c-2.399-1.109-5.229.246-4.983 3.017m1.415-2.956c-2.153-5.049-8.367-4.187-7.813 1.047m9.536-7.328c-1.292.246-3.999 1.047-5.045 3.079m.369-8.806a4.3 4.3 0 0 0-1.114 3.924 4.31 4.31 0 0 0 2.652 3.096m-9.105-15.087c-.493 3.449.861 5.111 5.168 4.803m-3.692-.431c-1.6 4.126.615 5.974 4.922 5.727m-3.938-.616c-2.522 3.018-.799 6.22 1.662 7.575m-2.83-3.757c-4.553-.615-5.23 4.68-3.692 7.082"/><path stroke="#000" stroke-width=".246" d="M277.565 130.064c-2.768 1.232-4.368 4.68-2.891 6.774 1.538 2.155 4.552 1.478 6.152.369m-5.168.616c-2.338 3.51-.246 6.158 2.215 7.144"/><path stroke="#000" stroke-width=".246" d="M266.737 129.633c-1.846 1.909-.677 5.789 3.691 5.912 3.63 0 5.414-3.325 4.307-5.727m-4.922 5.727c-1.415 3.14-.492 6.589 4.922 6.035m2.215 4.926c-3.261-1.478-7.752 0-5.845 4.003m-.431-9.607c-1.353 1.909-.923 4.619.616 6.281m-.862-1.231c-2.215.431-4.368 1.601-3.076 5.111m-.308-2.833c-2.83-.862-6.46 1.232-4.306 4.126m-.431-2.771c-2.461-.431-5.352 2.217-3.014 4.803m-.923-2.155c-2.215.616-4.861 3.079-2.523 5.111m13.72-17.55c-3.199 1.416-3.507 4.988-2.03 7.636m-1.354-14.164c-4.737 1.848-4.676 8.129.615 10.099m-2.276-1.416c-2.83 1.663-3.384 4.865-1.477 6.897m-3.506-17.981c-1.846.616-1.723 6.466 3.322 6.342m-8.552-4.372c-3.814 2.525.8 8.929 6.952 4.311m-3.384 1.663c-.553 2.586.185 5.419 4.369 5.788m-4.122-2.34c-3.015 1.108-3.569 7.328 1.845 7.821m-11.443-13.425c-3.876 3.572 3.199 6.651 5.783 1.478m-11.136 4.434c-1.907 2.34 4.738 8.375 7.691-1.724m.677-.185c.184 2.463 1.599 3.818 4.491 4.003m0 2.278c-4.738.739-6.214 6.589-.985 7.882m-7.69-8.621c-.185 2.155 2.153 4.003 4.737 3.633m2.4 4.803c-4.307.986-4.861 6.528-1.046 6.158m-1.969 5.173c-3.568-1.047-3.691-5.296-.492-6.897"/><path stroke="#000" stroke-width=".246" d="M248.526 162.27c-3.014 1.848-1.845 6.158-.246 6.774 1.6.616 2.892-.123 3.076-1.478m-.307 6.158c.369 2.032-7.321 1.232-3.384-5.172m0 5.48c-2.584 4.064 1.6 7.39 4.245 3.88m-3.937.985c-1.046 3.264 2.891 5.604 5.414 3.079m-13.905-33.499c-1.415 2.894 5.722 4.002 6.153-2.033m-8.121 6.343c-1.415 5.727 9.351 4.557 6.583-2.833m.246 3.818a5.04 5.04 0 0 0 7.136-3.879m-3.26 4.064a6.16 6.16 0 0 0 2.891 3.88m-8.059-2.402c-.492 3.079 2.645 5.665 6.152 5.419m-5.599-2.402c-1.722 2.402-2.276 6.959 3.2 7.267m-11.628-6.404c-.862 2.463 4.306 4.988 7.26.923m-8.86 5.358c-.431 1.847 4.184 4.31 6.768-3.572m-2.031 4.003c1.108 1.97 4.861 3.571 7.137-.308m-3.691 2.401c-.985 2.772 1.661 5.358 4.799 4.619m-10.767-5.234c-.615 3.941 3.999 6.219 6.768 4.187m-9.783-2.463c-1.353 5.049 5.168 6.958 7.629 3.14m-1.661 1.54c.246 2.833 4.676 5.296 8.121 2.956m-16.057-.616c-.308 1.293 4.983 2.586 5.783-1.847m-2.707 3.017c1.23 3.202 5.537 4.003 7.998 0m-1.415 1.601c.615 3.079 4.429 4.742 7.875 2.648m1.415 1.232c-.862 4.002 3.322 7.266 5.906 5.049m-12.674-5.788c-1.23 4.433 4.307 6.958 7.383 4.495m-14.027-6.774c-.308 4.188 2.953 6.651 6.644 4.803m-13.719-4.31c-1.108 2.648 4.798 4.865 7.567 2.586m-11.197 4.742c1.538 1.724 6.767 0 7.198-3.88m-1.415 2.833c1.907 2.217 6.46 3.448 8.244-1.355m-1.6 2.463c0 3.449 6.03 5.912 7.998-.369m7.199 1.232c-.616 1.662.738 4.31 3.506 4.618m-8.551-5.665c-.369 1.847 2.399 4.557 5.352 3.51m.554.8c-.8 2.032-.123 4.988 2.645 4.927m-2.399-1.109c-2.092 1.724-1.23 4.865 1.784 4.927m-2.83-1.971c-2.953 1.971-1.907 6.343 1.969 6.096m-10.89-14.656c0 4.311 5.353 4.927 6.337.986m-2.03 2.463c-.8 2.586 1.23 5.049 4.491 4.31m-3.876 26.357c.738 1.046 3.692-.739 2.892-2.464-.8-1.724-3.938-.8-3.569 1.047m2.83-1.786c.37-3.448-3.691-4.002-4.737-.985m1.477-1.786c1.046-1.724-2.461-4.126-3.876-1.539m1.23-1.047c.985-2.525-2.953-3.695-3.261-1.355m-.922-3.325c.492-1.232 4.922-.493 3.076 2.155m3.384 3.141c1.722-1.601-1.231-4.803-3.077-3.695m14.766 8.56c-1.353.123-2.769 1.046-1.784 4.002.738 2.032 3.753 2.094 4.245.924"/><path stroke="#000" stroke-width=".246" d="M257.632 222.68c-1.353-.924-4.307.616-2.953 3.449m0 0c.984 2.155 3.568 1.231 3.937.123m-3.937-.123c-.615 1.231-3.938 1.847-4.676.615m2.338-3.941c.738-.492 2.03.123 2.276.739m-2.46-20.321c-2.338 1.539-.923 6.158 2.645 4.926m-3.445-1.17c-1.846 1.417-.123 5.912 3.26 4.188m-2.645 0c-1.292 1.293-.062 4.803 3.199 4.125m-3.691-2.34c-.739-.307-2.584-.123-3.384 1.109m1.292-17.242c-1.723 1.724-.861 5.111 2.338 5.419m-2.953-1.848c-2.461 1.232-2.461 6.158 2.461 6.343m-2.646-.801c-1.415 1.109-.738 5.419 2.83 4.865m-1.722-.185c-.493.555-.616 1.848-.123 2.402m-1.416-4.003c-1.23 0-2.953.924-3.383 2.279m-2.277-4.619c.431-1.231 4.368-1.231 4.676 2.525m.369-4.434c-.553.124-1.599.616-1.845 1.725m.123-13.363c-1.662 1.601-2.461 6.466 2.645 7.389m-6.091 2.71c0-1.293 3.569-2.463 4.799-.493m-7.075-6.589c.492.985 2.953 2.34 4.43 1.232m-17.227-8.991a3.89 3.89 0 0 0 1.275 3.043 3.88 3.88 0 0 0 3.155.96c2.645-.308 3.199-2.586 2.399-4.126m-1.969 4.249c-1.784 2.094.37 5.111 2.338 4.249m-.369-5.788c1.046-.37 4.43-.863 5.476.738m-16.489-.123c-.799 1.232 4.123 2.402 5.784.123m-1.661 1.17c-.185 1.602.615 4.311 4.675 3.141"/><path stroke="#000" stroke-width=".246" d="M232.592 198.479c.615-1.355-2.338-3.571-4.676-1.108-2.276 2.463.369 5.234 1.784 4.31m-7.629-8.498c-1.23 2.094 3.384 5.85 6.03 2.34"/><path stroke="#000" stroke-width=".246" d="M218.995 196.755c-1.661 1.724.431 4.865 2.892 3.88 2.522-.924 2.276-3.572 1.661-4.249"/><path stroke="#000" stroke-width=".246" d="M215.796 199.957c-1.353 1.232 0 4.064 1.846 4.064s3.014-1.416 2.645-3.325m3.076-.985c-.246 1.847 2.461 3.079 4.246 1.355m0-3.326c.307-.369.123-1.047-.308-1.416m-14.396 6.035c-1.539 1.231 1.845 4.68 3.875 1.539m8.06-2.155c-.984.924.615 3.387 2.215 2.648m-7.629-.924c.246 1.663 3.568 2.956 5.66.37m-3.876 1.293c-.492 1.108.554 2.771 1.846 2.586m29.716 7.267c-1.231 2.401 2.707 5.234 5.537 2.278m-2.707 1.293c-.615 1.293.123 3.141 1.23 3.818m-4.922-1.047c.246-1.231 1.969-2.34 3.507-1.785m-5.537-1.355c.185-1.109 1.6-2.156 2.707-1.848m92.162-40.334c-4.86 1.786-7.26-7.267-1.599-7.328-3.384.739-6.03-.678-6.276-2.525m4.43 9.237c-1.108 1.786 1.046 4.68 3.445 2.956m-.615.369c-1.723 2.771 4.245 7.02 6.644 2.648m-1.907 1.663c0 2.648 7.691 4.31 6.583-.924m-.738 2.833c1.846 3.079 8.613 3.387 7.936-1.232m-1.538 3.202c1.415 2.094 8.121 3.326 7.875-.923m-34.883-25.125c.922 2.463 4.183 3.325 7.752 1.847m-9.844-.123c2.276 1.417-.985 7.944-4.368 5.296m4.429-1.231c2.461 1.17 5.476.307 6.337-3.203m-7.629 4.619c3.2 2.709-1.415 8.252-3.507 5.727m4.676-3.695c1.538 1.108 5.414.493 5.783-2.463m-1.722 2.463c.307 1.909 1.845 2.648 3.937 2.71m-8.859-.062c1.6 2.217 5.537 2.833 7.321-.062m-1.784 1.663c-.123 2.094 2.215 3.88 4.676 3.387m-13.228 1.293c2.031 1.047 4.307-2.894 2.523-5.542m-.123 9.668c2.461.123 2.768-3.572.43-5.665m5.168 9.052c2.092-.493 1.415-4.988-3.568-5.358m9.844 8.683c1.968-.554.369-5.542-5.107-5.234m12.613 7.02c1.353-2.094-3.077-5.542-6.768-3.695m10.459 6.528c2.461.739 4.184-5.789-3.63-4.742m8.183 4.742c2.153-.616 3.691-4.434-2.584-3.203m7.383 3.51c1.845.986 2.707-4.618-3.077-3.078m-28.916-14.164c2.4 1.293 6.153-.246 5.784-3.264m-.923 2.587c.8 1.416.492 4.187-1.046 4.926m1.23-1.601c1.6.616 3.753.062 5.045-2.463m-2.215 2.463c.431 1.109.616 3.325-.43 4.434m.799-2.525c1.785.985 3.815-.308 4.676-2.155m-1.107 1.601c1.23.8 2.399 4.495.246 6.035m1.23-1.725c1.477 0 3.692 0 5.107-1.847m-1.046 1.047c1.353.369 2.953 2.586 2.399 4.557m.062-.678c1.538-.184 4.122-1.231 4.86-3.079m-.738 1.232a4.07 4.07 0 0 1 1.969 4.003m0-1.293c1.538-.062 2.891-.863 3.26-2.525m-.369 1.108c1.108.37 2.461 1.663 2.523 3.141m-.185-.924c1.108-.185 1.907-.862 2.646-1.97m3.014-.185c1.415 1.416-.492 6.158-3.445 5.296M337.243 92.316c-2.891 1.786-11.259 1.231-7.136-5.665m7.998.985c-5.845 2.34-12.92-2.155-5.538-6.959m-1.968-1.6c-4.799 0-8.06 7.758-1.6 10.468m-17.165-7.205c-1.23 2.463 3.261 5.173 6.337 2.71 2.399-1.91 2.215-7.082.8-9.053m-9.598 12.193c-1.599 5.234 10.09 5.542 8.244-2.771m-8.859 10.592c.369 3.94 11.136 2.648 7.69-5.358m1.231-2.217c.861 1.232 3.261 3.264 7.321 2.833m-5.537-8.313c.369 1.416 2.769 2.463 5.845 1.416M211.428 203.53c-2.769 1.909 1.477 4.988 3.015 1.601m-5.168-.123c-2.707 1.97 1.476 5.049 3.014 1.662m-5.291-.184c-2.707 1.97 1.477 4.988 3.076 1.662m-5.414-.308c-2.645 1.417.431 4.804 3.077 1.848m-5.661-.554c-2.645 1.416.431 4.803 3.077 1.847m10.212-5.912c-.061 2.032 3.753 2.833 5.168-.184m-2.768 2.032c-1.231 1.539.984 3.387 2.153 2.709m-7.26-2.956c-.123 1.725 3.2 2.71 4.799.801m-3.014.985c-1.046 1.355 1.046 3.264 2.461 2.71m-6.46-2.956c.123 1.355 2.03 2.894 4.06 2.032m-2.83-.185c-.8.678-.431 2.34.677 2.894m-4.799-3.078c-.308 1.231 1.784 3.448 3.937 2.032m-3.506-.616c-1.231 1.047-1.108 2.525.492 2.771m-3.569-2.894c-.123.862.923 2.217 2.277 2.032m-9.044-2.094c-1.231.677 1.969 4.126 3.999.924m-7.137.492c-1.599.739 2.338 4.557 4.122.678m6.153-.801c-1.231.247-2.031 2.032-.985 2.771m-3.076-2.155c-.123.739 1.415 1.847 2.646 1.478m-3.63-1.17c-1.231.739-.554 2.833.861 2.525m-5.106-1.109c-1.108.801-.308 2.463 1.23 2.094m.8-2.217c0 .431 1.046 1.109 1.846.801m-7.691-1.54c-1.415.616-1.292 4.064 3.384 2.217m-6.522-.8c-1.968.923-1.292 3.571 2.954 1.046m.307.185c-.492.431-1.046 2.155.923 1.478m-4.43-.616c-.799.678-.307 2.156 1.415 1.601m-5.537-1.354c-1.415.8 1.723 1.909 3.815-.308m-2.83 1.293c-.616.616-.616 2.525.984 1.847m-5.045-1.047c-.923.678.615 1.663 3.692.308m-2.461.678c-1.169.923-1.046 2.093.615 1.724m-3.938-1.232c-1.23 1.17.554 1.909 2.707.986m-2.707.307c-2.091.924-1.169 2.71.123 2.033m70.014 4.002c-.492 1.047 1.107 1.909 2.645 1.663 1.416-.185 2.831-1.416 1.723-3.079m.062 2.094c1.476 1.108 3.999-.185 3.999-1.848"/><path fill="#fff" stroke="#000" stroke-width=".246" d="M341.488 60.787c-6.337-3.079-19.503-8.99-23.256-4.249 3.445-1.416 13.412.062 21.656 7.698z"/><path fill="#fff" stroke="#000" stroke-width=".246" d="M345.303 60.48c-7.321-8.56-11.689-6.651-16.919-9.546-4.922-2.77-12.797-3.325-14.335 1.047 7.199-3.51 13.843 1.848 17.965 2.587 5.537.862 8.736 5.234 10.398 7.204l2.891-1.231zm27.624-1.11c-3.814-8.682-11.935-6.403-15.504-10.098-5.229-5.42-18.457-10.469-23.994-6.712 12.059-.616 17.227 8.313 23.625 11.453 4.614 2.217 9.536 6.959 15.873 5.358Z"/><path fill="#fff" stroke="#000" stroke-width=".246" d="M358.654 58.447c-6.46-8.067-16.489-15.21-21.041-12.562 6.029.37 7.936 4.557 12.181 7.266 4.307 2.648 2.4 6.59 8.86 5.296Zm-30.885 14.287c-6.768-2.525-20.118-3.818-26.332 3.94 10.336 1.786 25.84.801 26.332-3.94Z"/><path fill="#fff" stroke="#000" stroke-width=".246" d="M326.476 75.751c-6.768-3.202-12.12 1.232-18.519.616-12.181-1.232-20.917-.493-22.025 5.419 6.952-6.281 18.703-1.109 23.441-2.402 4.737-1.231 22.333-.184 27.87 2.217-2.83-3.51-7.26-4.434-10.767-5.85Zm21.41-18.166c-1.599-5.234-1.476-10.776 6.337-10.407-1.969-2.463-9.228-3.695-10.459 5.48-8.613-6.342-18.088-7.45-19.81-1.97 4.429-3.818 11.32-1.047 19.564 8.313a14.6 14.6 0 0 1 4.368-1.416Z"/><path fill="#fff" stroke="#000" stroke-width=".246" d="M336.012 64.79c-4.922-3.202-11.566-8.314.062-10.407-4.922-2.648-12.305-1.478-11.505 7.697-13.289-5.357-22.825-3.571-24.856 1.786-2.214 5.85 6.03 9.114 7.445 5.358-1.477.615-6.645-1.109-3.938-4.434s16.489-.8 29.593 6.035c3.691 1.847 16.181 1.6 3.199-6.035Z"/><path fill="#fff" stroke="#000" stroke-width=".246" d="M332.506 73.534c-3.753-7.759-16.057-.739-18.518-8.252-3.446 11.023 17.472 4.927 18.518 8.252Zm78.197 8.375c2.583 1.293 4.798-.739.861-2.279 2.584 1.232 4.86-.677.923-2.278 2.584 1.232 4.798-.677.861-2.278-1.046 1.047-2.522 4.926-2.645 6.835Zm1.353-14.902c5.722-6.035-.431-8.067 6.521-14.287 5.722-5.05 1.108-8.436 6.46-12.316 1.785-1.293 5.538-3.818 5.907-6.404 2.276 5.727-7.137 6.527-6.522 15.703.431 5.85-3.568 5.357-5.045 15.272-.307 2.032-1.784 6.65-7.321 2.032Z"/><path fill="#fff" stroke="#000" stroke-width=".246" d="M414.578 69.716c3.199-6.774 6.829-6.712 8.613-9.36 3.323-5.111 10.336.862 16.304-3.695-1.046 6.466-9.044 4.188-12.551 8.314-3.445 4.125-6.337 5.973-12.304 4.741z"/><path fill="#fff" stroke="#000" stroke-width=".246" d="M415.44 71.933c5.537-4.434 9.597-1.478 13.412-3.818 9.659-5.85 13.535 1.232 22.148-1.601-2.215 5.542-15.011.8-20.549 4.926-5.537 4.126-25.04 8.129-15.073.493zm-16.181 31.652c-.123-2.525-2.461-5.788-5.783-6.158-3.322-.431-4.799-3.941-7.321-4.064-2.523-.185-4.184-5.234-7.691-5.173-3.445.062-4.922 4.618 3.261 8.744s17.227 8.868 17.534 6.651Zm-10.336 2.155c-3.445.123-3.937 5.235-7.26 5.358 4.553 2.463 7.937-1.109 10.275-4.311l-2.953-1.047z"/><path fill="#fff" stroke="#000" stroke-width=".246" d="M391.814 106.356c-3.076 2.525-3.937 7.821.431 9.36-2.584-3.633 4.614-5.234 2.4-8.621z"/><path fill="#fff" stroke="#000" stroke-width=".246" d="M394.767 106.541c-2.338 4.557 3.753 5.111 2.153 8.621 3.507-.801 4.061-7.39.861-9.114l-3.014.431z"/><path fill="#fff" stroke="#000" stroke-width=".246" d="M371.512 96.688c5.721-.308 10.889 2.771 14.396 7.759 2.215 3.141 9.659 4.434 12.243 1.848 2.461-2.464 1.108-7.883-5.229-6.158-1.6-2.648-6.152-1.725-8.429-3.942-2.215-2.216-10.766-8.56-12.981.493Z"/><path fill="#fff" d="M392.921 100.198c-1.538.308-2.03 2.894-1.046 4.249zm3.261 1.54c.431.8.123 1.909-.123 2.463zm-15.627-4.804c2.892.124 3.445 2.279 6.645 3.079z"/><path stroke="#000" stroke-linecap="round" stroke-width=".246" d="M392.921 100.198c-1.538.308-2.03 2.894-1.046 4.249m4.307-2.709c.431.8.123 1.909-.123 2.463m-15.504-7.267c2.892.124 3.445 2.279 6.645 3.079"/><path fill="#fff" stroke="#000" stroke-width=".246" d="M378.586 89.73a99 99 0 0 1 23.133 7.574c4.983 2.833 12.735 3.695 19.441 1.724 6.768-1.847 19.811-3.633 19.134 4.803 3.568-4.249-.923-8.744-9.967-9.544.185-4.126-4.245-7.821-7.382-5.358 2.891-.431 5.414 5.05-.37 7.266a5.18 5.18 0 0 0-1.667-5.325 5.17 5.17 0 0 0-5.531-.71c2.707.801 5.537 5.42-.615 7.144-3.876 1.108-9.475-.308-13.658-2.833-4.184-2.525-27.686-11.7-22.518-4.803z"/><path fill="#fff" stroke="#000" stroke-width=".246" d="M404.12 85.604c-3.138 1.416-1.108 4.741-5.968 6.65-4.922 1.848-8.367 6.22-7.26 9.976 3.322-7.328 9.229-6.958 11.259-9.853 2.092-2.832 5.106-7.02 1.969-6.773Z"/><path fill="#fff" stroke="#000" stroke-width=".246" d="M404.98 86.035c-.123 5.788-4.676 3.695-2.892 11.823.554 2.525 1.6 6.651-.184 10.777 5.106-3.695 1.846-11.516 4.122-14.472 1.107-1.478 2.584-3.694 3.076-5.542-1.169 3.264-1.046 9.483 2.153 11.085-2.584-6.159 7.076-11.27.431-18.474-.984 1.847-3.999 4.926-6.644 4.803zm-16.119-5.789c.8 1.232 1.599 4.188.861 5.912 1.6-.985 3.876-3.448 4.614-5.111 3.261.493 4.492 4.495 1.415 6.281 1.846 0 5.168 0 6.953-2.155-2.215-2.463-9.106-6.281-13.843-4.927Z"/><path fill="#fff" stroke="#000" stroke-width=".246" d="M339.581 68.854a6.15 6.15 0 0 0-2.954-1.231c-4.798-.986-2.276-5.296 1.785-5.235 8.736-9.545 13.596-2.217 24.24-5.172 3.691-1.109 6.275-.801 8.244.123 4.799-3.203 10.336-2.34 14.396 1.416a3.26 3.26 0 0 1 1.846-1.478c3.753-1.047 6.768 2.094 7.814 6.22 2.891-.493 6.213.923 8.428 2.894 3.015-1.54 5.045-1.601 5.845 0 2.707-1.232 6.152-2.094 7.936 2.217 1.785 4.31-4.122 3.017-5.106 12.07-.615 5.541-6.768 7.758-11.689 4.433-7.875-5.357-15.566-6.158-19.38 1.847-3.753 8.129-6.768 12.809-15.996 10.161a9.84 9.84 0 0 0-10.275 4.003c-2.707 3.695-6.767.246-11.689.616 6.152-.924 3.753-2.464 9.167-2.833 4.922-.308 3.63-4.926 6.767-5.542-12.304 3.14-11.874-1.478-22.025 1.724 4.43-5.727 11.443-2.525 14.889-5.85-9.167-.185-13.289-6.158-17.411-3.695-6.46 4.003-3.692 15.272-20.611 14.287-8.244-.431-13.473.615-18.334 5.542 8.552-17.735 20.18-8.006 25.84-13.61a41.8 41.8 0 0 0 7.567-9.051 3.76 3.76 0 0 1 2.461-1.971c-14.088-4.434-5.537-11.392 8.245-11.885Z"/><path fill="#fff" d="M409.226 66.33c.184.492.307 1.108.307 1.847 0 3.448-5.229 3.571-5.537 8.744-.184 2.71-.492 4.187-2.276 3.88-1.846-.308-3.445-3.141-1.723-6.466"/><path stroke="#000" stroke-linecap="round" stroke-width=".246" d="M409.226 66.33c.184.492.307 1.108.307 1.847 0 3.448-5.229 3.571-5.537 8.744-.184 2.71-.492 4.187-2.276 3.88-1.846-.308-3.445-3.141-1.723-6.466"/><path fill="#fff" d="M342.227 63.681a6.7 6.7 0 0 0-3.815-1.293zm28.669-6.404c4.184 1.847 6.214 6.158 12.305 6.404 5.906.185 9.536 8.745 19.38 3.14q.366-.19.738-.369m-18.026-7.697a7.83 7.83 0 0 0-.861 5.05zm-19.195 17.981c-7.383 0-9.352 3.757-9.352 7.39 0 3.695 3.507 8.436 9.659 8.436s9.536-3.818 9.536-7.944-3.814-7.943-9.843-7.943z"/><path stroke="#000" stroke-width=".246" d="M342.227 63.681a6.7 6.7 0 0 0-3.815-1.293m32.484-5.11c4.184 1.846 6.214 6.157 12.305 6.403 5.906.185 9.536 8.745 19.38 3.14q.366-.19.738-.369m-18.026-7.697a7.83 7.83 0 0 0-.861 5.05m-18.334 12.931c-7.383 0-9.352 3.757-9.352 7.39 0 3.695 3.507 8.436 9.659 8.436s9.536-3.818 9.536-7.944-3.814-7.943-9.843-7.943z"/><path fill="#fff" d="M367.451 92.378c-.123-2.033-3.876-1.725-3.691-3.326.123-1.6 2.03-2.217 2.03-4.434s3.322-2.401 4.429-.615c1.108 1.724 4.43 5.11 5.168 3.386m-5.168-3.386a6.1 6.1 0 0 0-.246 8.067m2.646-5.42c-.615 1.232-.738 3.08-.062 4.188z"/><path stroke="#000" stroke-width=".246" d="M367.451 92.378c-.123-2.033-3.876-1.725-3.691-3.326.123-1.6 2.03-2.217 2.03-4.434s3.322-2.401 4.429-.615m0 0c1.108 1.724 4.43 5.11 5.168 3.386m-5.168-3.386a6.1 6.1 0 0 0-.246 8.067m2.646-5.42c-.615 1.232-.738 3.08-.062 4.188M402.211 80.862c5.845.493 6.768-5.973 2.461-6.343m-9.659-10.96c-1.969-2.587-6.644-3.45-6.767 1.97"/><path fill="#fff" d="M387.754 71.748c-1.969-4.926-7.075-5.603-9.721-3.14-2.276 2.032-2.338 7.39 2.461 8.498 1.723-2.032 4.922-4.619 7.26-5.358m-2.153-3.079c-2.892-2.524-7.076 2.279-3.261 6.65zm-54.326 12.008c1.969-.43 4.738.493 9.044 2.463 2.646 1.294 10.767 4.003 15.812 1.294-5.23 1.909-9.229-5.974-13.166-5.05-3.938.985-11.197 2.463-14.212-.493 7.383.493 11.382-5.419 19.934-.307a14.75 14.75 0 0 0 8.059 2.216c-6.952-8.374-16.119-3.017-17.103-9.852 4.183 4.557 14.458-.985 19.687 7.45m-18.149-6.157c-.985-1.232-.616-2.463-1.6-3.387z"/><path stroke="#000" stroke-width=".246" d="M385.601 68.67c-2.892-2.525-7.076 2.278-3.261 6.65m-51.065 5.357c1.969-.43 4.738.493 9.044 2.463 2.646 1.294 10.767 4.003 15.812 1.294-5.23 1.909-9.229-5.974-13.166-5.05-3.938.985-11.197 2.463-14.212-.493 7.383.493 11.382-5.419 19.934-.307a14.75 14.75 0 0 0 8.059 2.216c-6.952-8.374-16.119-3.017-17.103-9.852 4.183 4.557 14.458-.985 19.687 7.45m-18.149-6.157c-.985-1.232-.616-2.463-1.6-3.387m48.173 2.894c-1.969-4.926-7.075-5.603-9.721-3.14-2.276 2.032-2.338 7.39 2.461 8.498 1.723-2.032 4.922-4.619 7.26-5.358Z"/><path fill="#000" d="M395.013 63.558c-1.723-1.847-5.537-.43-4.43 3.325a5.91 5.91 0 0 1 4.43-3.386zm-10.766 10.16a13 13 0 0 1 3.506-1.97 7.63 7.63 0 0 0-2.338-3.202c-.922-.616-3.506 2.894-1.168 5.111z"/><path stroke="#000" stroke-linecap="round" stroke-width=".246" d="M379.572 67.253c-2.831-1.909-5.476-1.724-6.337-.185-2.031 0-3.753 1.478-3.815 4.434m4.368 1.293c-3.383-2.34-8.059-1.478-7.752 3.757m-2.091 3.017c1.661-1.355 4.06-2.34 5.906 0m19.564-5.173c-.615.862-1.107 2.217-.061 4.31-1.231-1.723-4.43-1.723-7.875 2.71m15.442-7.266c-4.122.492-3.999 3.202-.677 4.31m-28.608-14.41c-3.507-.676-6.029 1.356-1.23 3.08m7.875-5.42c-4.922-1.23-6.891.062-4.676 1.232m-9.536 18.474c-.123 1.786.799 4.065 3.691 1.478m-2.707 3.757c0 .492-.062 1.046-.431 1.478M349.61 63.497c-3.015-.924-3.569-3.695 0-3.449m-.985 9.853c-3.322-1.17-3.322-4.372-.615-4.064m6.768 2.34c-3.876-.924-3.999-3.634-1.108-3.203m1.6-5.049c-2.092-.123-5.23 2.155.061 3.51m5.722 1.108c-4.86-.677-4.737 1.232-1.907 2.525m5.537-7.143c-3.692-.677-4.984 1.54-2.461 2.463m-9.229 11.27c-.922-.74-1.661-4.311 2.646-3.264m6.337 2.155c-2.892-.8-5.66 2.093-3.015 3.695m6.891-7.082c-3.076-.616-5.66.308-3.999 1.416"/><path fill="#fff" d="M394.891 63.558a5.9 5.9 0 0 0-4.307 3.325"/><path stroke="#000" stroke-width=".246" d="M394.891 63.558a5.9 5.9 0 0 0-4.307 3.325"/></g><defs><clipPath id="a"><path fill="#fff" d="M0 0h600v300H0z"/></clipPath></defs></svg>