<svg width="600" height="300" viewBox="0 0 600 300" fill="none" xmlns="http://www.w3.org/2000/svg">
<g clip-path="url(#clip0_248_34957)">
<path d="M0 0H600V300H0V0Z" fill="white"/>
<path d="M600 0V300H0L600 0Z" fill="#003087"/>
<path d="M0 125V0H250L0 125Z" fill="#FFD700"/>
<path d="M140.5 66L184.667 142.5L140.5 219L96.3327 142.5L140.5 66ZM217 142.5L140.5 186.667L64 142.5L140.5 98.3327L217 142.5Z" fill="#101820"/>
<path d="M140.5 208.751C177.089 208.751 206.751 179.089 206.751 142.5C206.751 105.911 177.089 76.2491 140.5 76.2491C103.911 76.2491 74.249 105.911 74.249 142.5C74.249 179.089 103.911 208.751 140.5 208.751Z" fill="#101820"/>
<path d="M140.5 199.875C172.187 199.875 197.875 174.187 197.875 142.5C197.875 110.813 172.187 85.125 140.5 85.125C108.813 85.125 83.125 110.813 83.125 142.5C83.125 174.187 108.813 199.875 140.5 199.875Z" fill="white"/>
<path d="M140.499 180.75L107.374 123.375H173.625L140.499 180.75ZM140.499 104.25L173.625 161.625H107.374L140.499 104.25Z" fill="#D50032"/>
</g>
<defs>
<clipPath id="clip0_248_34957">
<rect width="600" height="300" fill="white"/>
</clipPath>
</defs>
</svg>
