<svg xmlns="http://www.w3.org/2000/svg" width="600" height="300" fill="none"><g clip-path="url(#a)"><path fill="#fff" d="M0 0h600v300H0z"/><path fill="#009" d="M0 0h600v300H0z"/><path fill="#fff" fill-rule="evenodd" d="m475.501 285.145-15.958-11.69-16.358 11.632 6.177-19.119-16.129-11.805h20.019l6.177-19.118 6.12 19.176h20.018l-16.015 11.92zM522 291.134l-20.018-.058-6.12-19.176-6.177 19.119h-20.018l16.129 11.805-6.177 19.118 16.357-11.632L511.991 322l-6.006-19.004zm-88.995-61.733 16.014-11.92-20.018-.058-6.12-19.119-6.177 19.119-20.018-.057 16.129 11.805-6.177 19.176 16.358-11.69 16.014 11.748zm-36.777-37.143 16.015-11.863-20.018-.057-6.12-19.177-6.234 19.119h-19.962l16.129 11.805-6.177 19.119 16.358-11.633 15.958 11.69zm-36.433-36.625 16.015-11.92h-20.019l-6.062-19.234-6.177 19.118h-20.019l16.129 11.748-6.177 19.176 16.358-11.69 16.015 11.748-6.006-19.004zm-36.833-37.028 16.014-11.863-20.018-.057-6.12-19.177-6.234 19.119h-19.961l16.186 11.805-6.177 19.119 16.358-11.633 15.957 11.69-5.948-19.003zm-36.376-36.798 15.957-11.92h-20.018l-6.063-19.234-6.234 19.176H250.21l16.243 11.748-6.234 19.119 16.357-11.633 15.901 11.748zm-36.605-36.855 15.957-11.92H245.92l-6.063-19.234-6.234 19.176h-20.018l16.243 11.748-6.291 19.176 16.415-11.69 15.9 11.747zM213.376 8.097l15.9-11.92h-20.018L203.138-23l-6.12 19.119H177l16.186 11.747-6.177 19.119 16.358-11.632 15.9 11.747z" clip-rule="evenodd"/><path fill="#FC0" d="M569 300 422.555 160.535 261 0h308z"/></g><defs><clipPath id="a"><path fill="#fff" d="M0 0h600v300H0z"/></clipPath></defs></svg>