<svg xmlns="http://www.w3.org/2000/svg" width="600" height="300" fill="none"><g clip-path="url(#a)"><path fill="#fff" d="M0 0h600v300H0z"/><path fill="#229E45" fill-rule="evenodd" d="M0 0h600v300H0z" clip-rule="evenodd"/><path fill="#F8E509" fill-rule="evenodd" d="M301.464 285 509 150.207 300.225 15 92 150.482z" clip-rule="evenodd"/><path fill="#2B49A3" fill-rule="evenodd" d="M381 150.563c0 44.42-36.08 80.437-80.626 80.437a80.5 80.5 0 0 1-74.289-49.796A80.5 80.5 0 1 1 381 150.563" clip-rule="evenodd"/><path fill="#FFFFEF" fill-rule="evenodd" d="m273.898 198.774-2.527-1.453-2.528 1.264.569-2.844-2.022-2.148 2.843-.316 1.39-2.527 1.201 2.654 2.78.505-2.085 1.896m54.341 16.618-2.465-1.453-2.527 1.263.505-2.843-1.958-2.085 2.843-.316 1.327-2.591 1.264 2.654 2.78.505-2.149 1.959m-22.873-18.956-2.148-1.264-2.212 1.138.505-2.464-1.769-1.833 2.528-.253 1.137-2.274 1.011 2.338 2.464.442-1.895 1.706m54.972-5.371-2.148-1.264-2.212 1.138.506-2.465-1.706-1.769 2.464-.253 1.137-2.211 1.011 2.275 2.402.442-1.833 1.643m-55.162-13.901-2.527-1.39-2.528 1.263.506-2.906-1.959-2.086 2.843-.315 1.327-2.591 1.264 2.654 2.78.505-2.148 2.022m-66.094-22.115-2.527-1.39-2.528 1.263.632-2.906-2.085-2.085 2.907-.316 1.263-2.591 1.264 2.654 2.78.505-2.085 1.959m8.404 36.143-2.527-1.453-2.528 1.264.569-2.844-2.022-2.085 2.843-.379 1.327-2.528 1.264 2.654 2.78.506-2.085 1.959m83.407-42.525-2.275-1.264-2.275 1.137.506-2.527-1.77-1.896 2.528-.316 1.2-2.274 1.075 2.401 2.527.442-1.896 1.706m-4.233 24.201-1.706-1.011-1.833.884.38-2.022-1.391-1.453 2.022-.253.948-1.769.822 1.896 1.895.316-1.39 1.39m-89.851 31.846-1.707-.948-1.706.821.38-1.895-1.327-1.39 1.895-.253.885-1.706.821 1.769 1.896.379-1.453 1.264m126.5 9.668-1.391-.695-1.39.631.316-1.453-1.074-1.011 1.517-.189.758-1.264.632 1.264 1.579.316-1.2.947" clip-rule="evenodd"/><path fill="#FFFFEF" fill-rule="evenodd" d="m233.459 180.64-1.707-.948-1.706.822.38-1.896-1.327-1.39 1.895-.253.885-1.706.821 1.769 1.896.379-1.453 1.264" clip-rule="evenodd"/><path fill="#FFFFEF" fill-rule="evenodd" d="m233.459 180.64-1.707-.948-1.706.821.38-1.895-1.327-1.39 1.895-.253.885-1.706.821 1.769 1.896.379-1.453 1.264m26.728 1.896-1.643-.885-1.706.821.379-1.895-1.327-1.39 1.896-.253.884-1.706.822 1.769 1.895.316-1.453 1.327m-3.033 10.742-1.643-.948-1.706.885.379-1.896-1.327-1.453 1.896-.253.884-1.706.822 1.769 1.895.379-1.453 1.264m55.225-14.027-1.642-1.011-1.77.884.379-1.895-1.263-1.454 1.895-.189.885-1.706.758 1.769 1.896.316-1.39 1.327m-15.86 1.895-1.706-.947-1.706.884.379-1.895-1.264-1.454 1.896-.189.884-1.769.759 1.832 1.895.316-1.39 1.327m-43.472-3.665-1.075-.632-1.074.506.253-1.201-.822-.885 1.201-.126.506-1.074.505 1.137 1.201.19-.885.821m106.027 28.687-1.642-.948-1.706.885.379-1.896-1.327-1.453 1.895-.253.885-1.706.821 1.769 1.896.379-1.453 1.264m-13.143 3.791-1.39-.884-1.454.758.316-1.643-1.074-1.137 1.58-.19.758-1.453.632 1.516 1.58.253-1.201 1.138m6.571 1.453-1.263-.758-1.327.632.253-1.454-1.011-1.074 1.453-.19.695-1.263.632 1.263 1.453.316-1.074 1.011m18.387-14.406-1.263-.632-1.264.632.316-1.454-1.011-1.074 1.453-.189.632-1.264.632 1.327 1.327.253-1.011 1.011m-24.517 26.412-1.579-.885-1.706.758.379-1.769-1.264-1.264 1.896-.189.821-1.58.758 1.643 1.896.316-1.454 1.201m.38 8.972-1.517-.885-1.516.822.379-1.769-1.201-1.264 1.706-.253.759-1.58.695 1.643 1.706.316-1.264 1.264m-12.006-14.596-1.2-.758-1.264.632.253-1.391-.948-1.074 1.39-.126.632-1.264.632 1.264 1.39.253-1.011 1.011m-11.247 1.453-1.264-.758-1.264.632.316-1.391-1.011-1.074 1.454-.126.631-1.264.632 1.264 1.327.253-1.011 1.011m-19.209-15.544-1.263-.695-1.264.631.316-1.453-1.011-1.011 1.39-.189.632-1.264.632 1.264 1.39.316-1.011.947m2.338 36.017-1.011-.569-1.138.569.253-1.264-.821-.885 1.2-.126.569-1.074.505 1.137 1.201.19-.885.821m-29.192-54.72-2.527-1.453-2.528 1.264.569-2.843-2.022-2.086 2.843-.379 1.39-2.527 1.201 2.654 2.78.505-2.085 1.959" clip-rule="evenodd"/><path fill="#fff" fill-rule="evenodd" d="M375.692 179.503a79 79 0 0 0 3.665-12.511c-42.841-37.596-90.547-56.868-150.827-52.888a78.7 78.7 0 0 0-5.371 13.206c71.401-6.824 123.846 24.77 152.533 52.193" clip-rule="evenodd"/><path fill="#309E3A" d="m356.484 158.398 1.453.822a2.15 2.15 0 0 0-.189 1.39c.148.457.464.841.884 1.074.443.316.885.505 1.264.442.379 0 .632-.189.821-.442a.82.82 0 0 0 .127-.569 1.46 1.46 0 0 0-.316-.632 7.7 7.7 0 0 0-.948-1.137 4.86 4.86 0 0 1-1.137-1.896 2.336 2.336 0 0 1 1.263-2.78 2.4 2.4 0 0 1 1.454-.126 4.4 4.4 0 0 1 1.643.758c.884.632 1.453 1.264 1.642 2.022a2.59 2.59 0 0 1-.379 2.085l-1.516-.948c.189-.379.253-.758.126-1.074-.063-.316-.316-.632-.758-.884a2.03 2.03 0 0 0-1.137-.443.64.64 0 0 0-.569.316c-.126.19-.126.379-.063.632s.379.758 1.011 1.39a9.6 9.6 0 0 1 1.263 1.58 2.47 2.47 0 0 1-.189 2.654c-.296.429-.714.76-1.201.947a2.5 2.5 0 0 1-1.516.19c-.569-.126-1.137-.379-1.769-.821q-1.422-.948-1.706-2.086a3.4 3.4 0 0 1 .379-2.527zm-7.33-4.802 1.58.821c-.196.437-.24.926-.126 1.391.161.433.476.793.884 1.011.506.315.885.442 1.264.379.379 0 .632-.19.821-.506a.82.82 0 0 0 .127-.505c0-.19-.127-.443-.316-.632q-.486-.586-1.011-1.138c-.695-.695-1.138-1.263-1.264-1.769a2.34 2.34 0 0 1 .253-1.959c.24-.39.592-.698 1.011-.884.434-.2.918-.266 1.39-.19a4.45 4.45 0 0 1 1.643.632c.948.632 1.516 1.264 1.706 1.959a2.59 2.59 0 0 1-.253 2.148l-1.58-.884c.19-.443.253-.759.127-1.075-.127-.316-.379-.631-.822-.884a2 2 0 0 0-1.2-.379.64.64 0 0 0-.506.316c-.126.189-.126.379-.063.631.063.253.442.759 1.074 1.391.632.631 1.074 1.137 1.264 1.516a2.47 2.47 0 0 1 0 2.654 2.66 2.66 0 0 1-1.137 1.011 2.53 2.53 0 0 1-1.517.189 5 5 0 0 1-1.832-.695 3.8 3.8 0 0 1-1.769-2.022 3.4 3.4 0 0 1 .252-2.527m-8.972-2.401 4.612-7.583 5.561 3.476-.758 1.263-4.044-2.527-1.011 1.706 3.791 2.338-.822 1.264-3.791-2.338-1.264 2.085 4.234 2.527-.758 1.264-5.687-3.475zm-13.08-10.742.695-1.264 3.412 1.706-1.579 3.16c-.506.126-1.138.189-1.896.126a5.9 5.9 0 0 1-2.085-.632 4.86 4.86 0 0 1-1.896-1.643 3.8 3.8 0 0 1-.632-2.211 5.4 5.4 0 0 1 .632-2.338c.38-.76.945-1.412 1.643-1.896a3.93 3.93 0 0 1 2.275-.695c.632 0 1.263.19 2.022.632 1.011.442 1.643 1.074 1.959 1.769.328.69.395 1.476.189 2.212l-1.706-.506c.104-.423.06-.869-.126-1.263-.19-.379-.506-.632-1.011-.885a2.405 2.405 0 0 0-1.959-.189c-.632.189-1.201.758-1.643 1.642-.442.885-.632 1.706-.442 2.401a2.33 2.33 0 0 0 1.263 1.517c.316.19.696.316 1.075.316.377.057.76.057 1.137 0l.505-1.011zm-56.994-14.091 1.263-8.846 2.654.443.695 6.192 2.464-5.687 2.654.379-1.263 8.72-1.706-.253 1.074-6.887-2.78 6.635-1.707-.253-.695-7.14-1.011 6.95zm-8.91-1.074.822-8.846 6.508.632-.126 1.516-4.739-.442-.19 1.896 4.423.442-.19 1.517-4.423-.443-.189 2.401 4.928.443-.126 1.516zM231.69 119.791c0-.948.189-1.643.442-2.275.222-.449.521-.855.885-1.2a3.4 3.4 0 0 1 1.137-.758c.632-.19 1.264-.316 1.896-.316 1.327 0 2.338.505 3.159 1.263a4.67 4.67 0 0 1 1.011 3.476c0 1.39-.442 2.527-1.264 3.349a4.1 4.1 0 0 1-3.159 1.074 4.17 4.17 0 0 1-3.033-1.264 4.62 4.62 0 0 1-1.074-3.349"/><path fill="#F7FFFF" d="M233.521 119.791c0 .948.19 1.706.632 2.275.443.505 1.011.821 1.77.821a2.212 2.212 0 0 0 1.769-.695c.442-.505.632-1.264.695-2.338 0-1.011-.126-1.769-.632-2.275a2.22 2.22 0 0 0-1.706-.821 2.27 2.27 0 0 0-1.769.758c-.506.506-.695 1.264-.759 2.275"/><path fill="#309E3A" d="m242.115 124.341.127-8.847h3.791c.948 0 1.579.127 2.022.316.442.127.758.443 1.011.822s.379.884.379 1.453a2.4 2.4 0 0 1-.632 1.643 2.84 2.84 0 0 1-1.706.758l.948.758c.253.253.568.759.948 1.454l1.074 1.769h-2.149l-1.263-2.022-.885-1.264a1.3 1.3 0 0 0-.569-.379 3.2 3.2 0 0 0-.884-.126h-.379v3.665z"/><path fill="#fff" d="M244.011 119.286h1.263c.885 0 1.454 0 1.643-.127.19 0 .379-.189.506-.316.126-.126.189-.442.189-.631 0-.38-.063-.632-.252-.759-.127-.189-.379-.316-.632-.379h-1.264l-1.453-.063z"/><path fill="#309E3A" d="m252.226 115.937 3.285.189c.695 0 1.264.063 1.643.19.492.178.928.483 1.264.884.364.442.623.96.758 1.517q.285.852.19 2.085a5.9 5.9 0 0 1-.316 1.896 3.9 3.9 0 0 1-1.074 1.516 3.2 3.2 0 0 1-1.264.632c-.379.126-.948.126-1.58.126l-3.349-.189z"/><path fill="#fff" d="m253.932 117.516-.316 5.877h2.401c.316 0 .569-.127.759-.316.189-.19.379-.443.505-.822a5.3 5.3 0 0 0 .253-1.642l-.063-1.58a2.04 2.04 0 0 0-.506-.885 1.7 1.7 0 0 0-.758-.442 8.3 8.3 0 0 0-1.453-.19z"/><path fill="#309E3A" d="m295.572 131.734 2.085-8.594 2.781.632 2.022.632c.442.253.821.632 1.011 1.2.252.506.252 1.075.126 1.77-.126.505-.316.947-.632 1.263a2.47 2.47 0 0 1-1.895.885c-.443 0-1.075-.126-1.896-.316l-1.074-.316-.759 3.286z"/><path fill="#fff" d="m298.984 125.036-.505 2.401.947.252c.632.127 1.138.253 1.39.19a1.2 1.2 0 0 0 1.011-.948c0-.316 0-.568-.126-.821a1.27 1.27 0 0 0-.632-.569l-1.2-.316-.822-.189z"/><path fill="#309E3A" d="m303.786 134.198 2.97-8.341 3.475 1.264c.948.316 1.517.632 1.896.885.316.315.568.631.632 1.137.063.505.126.948 0 1.453-.253.632-.632 1.074-1.138 1.39q-.758.38-1.895.19c.252.316.505.632.632 1.011l.505 1.706.379 1.959-1.959-.695-.631-2.275a12 12 0 0 0-.443-1.517 1.3 1.3 0 0 0-.379-.505c-.126-.19-.379-.316-.821-.442l-.316-.127-1.264 3.539z"/><path fill="#fff" d="m307.198 129.965 1.201.442c.821.316 1.326.442 1.579.442.19 0 .379 0 .569-.189a.92.92 0 0 0 .379-.569.8.8 0 0 0 0-.758 1.07 1.07 0 0 0-.506-.569l-1.263-.442-1.264-.443-.758 2.086z"/><path fill="#309E3A" d="M314.149 133.882a5.7 5.7 0 0 1 1.074-2.022c.32-.382.705-.703 1.138-.948a3.8 3.8 0 0 1 1.264-.443c.631 0 1.263 0 1.958.253a4.1 4.1 0 0 1 2.654 2.085c.506 1.011.506 2.212.127 3.602a4.68 4.68 0 0 1-2.149 2.843c-.948.569-2.085.632-3.286.253a4.17 4.17 0 0 1-2.653-2.085 4.62 4.62 0 0 1-.127-3.538"/><path fill="#fff" d="M315.918 134.387c-.253.948-.316 1.769 0 2.401s.758 1.011 1.453 1.264c.632.189 1.264.126 1.896-.253.632-.316 1.011-1.011 1.327-2.022.316-.948.316-1.706 0-2.338a2.214 2.214 0 0 0-1.39-1.263 2.28 2.28 0 0 0-1.896.189c-.632.379-1.074 1.011-1.39 2.022"/><path fill="#309E3A" d="m331.398 146.203 4.044-7.835 3.349 1.706a6.3 6.3 0 0 1 1.706 1.201c.316.315.506.695.506 1.2 0 .506 0 .948-.253 1.39a2.4 2.4 0 0 1-1.264 1.264c-.632.126-1.263.126-1.958-.126.252.379.379.758.505 1.074.126.379.19.948.253 1.769l.126 2.022-1.895-.948-.253-2.338q-.045-.796-.19-1.579a1.25 1.25 0 0 0-.316-.632l-.758-.443-.316-.189-1.706 3.286z"/><path fill="#fff" d="m335.316 142.475 1.201.632c.758.379 1.264.632 1.453.632s.443 0 .632-.127c.19-.063.316-.252.442-.505.127-.253.19-.506.127-.758a1.26 1.26 0 0 0-.443-.632 15 15 0 0 0-1.137-.632l-1.264-.632z"/><path fill="#309E3A" d="M364.13 162.379a5.6 5.6 0 0 1 1.579-1.643 4.2 4.2 0 0 1 1.391-.569 3.5 3.5 0 0 1 1.39 0c.632.127 1.2.38 1.769.759a4.17 4.17 0 0 1 1.895 2.78c.19 1.074-.126 2.275-.884 3.475a4.6 4.6 0 0 1-2.844 2.085 4.1 4.1 0 0 1-3.285-.695 4.17 4.17 0 0 1-1.896-2.78c-.189-1.137.127-2.275.885-3.412"/><path fill="#fff" d="M365.71 163.39c-.632.821-.822 1.58-.696 2.275a2.28 2.28 0 0 0 1.011 1.579q.948.664 1.896.379c.632-.189 1.264-.631 1.833-1.516.568-.885.821-1.643.695-2.275-.064-.632-.443-1.2-1.011-1.643-.569-.442-1.264-.505-1.896-.316q-.948.19-1.896 1.517z"/><path fill="#309E3A" d="m285.588 128.132 1.453-6.193 4.55 1.075-.19 1.011-3.349-.759-.316 1.39 3.096.696-.252 1.074-3.097-.759-.379 1.707 3.476.821-.253 1.011z"/></g><defs><clipPath id="a"><path fill="#fff" d="M0 0h600v300H0z"/></clipPath></defs></svg>