<svg xmlns="http://www.w3.org/2000/svg" width="600" height="300" fill="none"><g clip-path="url(#a)"><path fill="#fff" d="M0 0h600v300H0z"/><path fill="#006" d="M0 0h600v300H0z"/><path fill="#fff" d="m367.939 41.994 150.314-.54-.301 133.866s5.283 20.41-63.031 51.325c24.553-2.521 51.326-28.694 51.326-28.694s10.865-13.987 16.208-6.183c5.282 7.803 10.265 11.765 14.167 14.827 3.902 3.001 6.963 11.406 1.14 17.529-5.883 6.183-15.067 6.963-17.588-.541-3.902 1.981-27.854 30.976-76.958 32.356-49.945-.84-77.258-32.656-77.258-32.656s-6.664 10.625-16.208 2.281c-9.185-10.925-2.221-17.889-2.221-17.889s7.803-4.442 10.085-7.503c3.601-4.202 4.742-9.785 10.805-9.785 7.323.6 10.085 6.423 10.085 6.423s25.092 26.473 52.166 29.835c-61.051-29.295-63.332-47.424-63.032-51.866z"/><path fill="#006129" stroke="#000" stroke-width=".983" d="m371.541 45.656 143.35-.84v128.823c.3 16.808-27.913 33.796-71.975 55.527-45.442-23.411-71.675-37.638-71.916-55.827z"/><path stroke="#FFC72C" stroke-width=".983" d="m391.05 64.685 8.404-12.426 8.585 12.486"/><path fill="#FFC72C" stroke="#000" stroke-width=".466" d="M401.195 60.003a1.68 1.68 0 0 1-1.681 1.68 1.683 1.683 0 0 1-1.189-2.869 1.683 1.683 0 0 1 2.87 1.189Z"/><path fill="#FFC72C" d="M392.611 73.87h13.146s.18-1.681-1.38-2.702c6.903-.96 5.102-6.963 10.805-7.323 1.201.18-3.002 2.581-3.002 2.581s-3.421 2.401-1.8 3.662c1.2 1.02 1.8-.6 1.921-1.801.18-1.2 5.582-1.981 4.802-5.403-1.261-2.821-8.824 1.921-8.824 1.921l-5.403-.06c-.36-.6-1.801-3.001-3.362-3.001-1.801 0-3.121 3.001-3.121 3.001h-12.186s-.421 3.182 5.763 3.782c1.38 1.8 2.461 2.281 3.721 2.761-.84.66-1.08 1.501-1.08 2.582m.96-2.642h10.926z"/><path stroke="#000" stroke-width=".466" d="M393.571 71.228h10.926m-11.886 2.642h13.146s.18-1.681-1.38-2.702c6.903-.96 5.102-6.963 10.805-7.323 1.201.18-3.002 2.581-3.002 2.581s-3.421 2.401-1.8 3.662c1.2 1.02 1.8-.6 1.921-1.801.18-1.2 5.582-1.981 4.802-5.403-1.261-2.821-8.824 1.921-8.824 1.921l-5.403-.06c-.36-.6-1.801-3.001-3.362-3.001-1.801 0-3.121 3.001-3.121 3.001h-12.186s-.421 3.182 5.763 3.782c1.38 1.8 2.461 2.281 3.721 2.761-.84.66-1.08 1.501-1.08 2.582Z"/><path fill="#FFC72C" d="M388.589 64.805s.84 5.103 4.922 6.303z"/><path stroke="#000" stroke-width=".466" d="M388.589 64.805s.84 5.103 4.922 6.303"/><path fill="url(#b)" stroke="#000" stroke-width=".466" d="M387.928 64.685c.361-1.92 1.141-2.281 1.921-4.802.12-2.401-1.921-2.101-1.32-3.602 1.08-1.74.54-3.362-1.501-4.622.42 2.22-2.641 4.322-2.641 6.123 0 1.8 1.56 1.44 1.38 4.202.12 1.56-.42 1.2-.6 2.701z"/><path fill="#FFC72C" stroke="#000" stroke-width=".466" d="M401.075 52.62a1.56 1.56 0 0 1-2.664 1.103 1.56 1.56 0 0 1 1.103-2.665 1.56 1.56 0 0 1 1.561 1.561Z"/><path stroke="#FFC72C" stroke-width=".983" d="m390.57 89.477 8.404-12.426 8.584 12.486"/><path fill="#FFC72C" stroke="#000" stroke-width=".466" d="M400.715 84.795a1.68 1.68 0 0 1-1.681 1.68 1.683 1.683 0 0 1-1.681-1.68 1.682 1.682 0 0 1 3.362 0Z"/><path fill="#FFC72C" d="M392.131 98.662h13.146s.18-1.681-1.38-2.702c6.903-.96 5.102-6.963 10.805-7.323 1.201.18-3.002 2.581-3.002 2.581s-3.421 2.401-1.8 3.662c1.2 1.02 1.8-.6 1.921-1.8.18-1.201 5.582-1.982 4.802-5.403-1.261-2.822-8.824 1.92-8.824 1.92l-5.403-.06c-.36-.6-1.801-3.001-3.362-3.001-1.801 0-3.121 3.001-3.121 3.001h-12.186s-.421 3.182 5.763 3.782c1.38 1.801 2.461 2.281 3.721 2.762-.84.66-1.08 1.5-1.08 2.58m.96-2.641h10.926z"/><path stroke="#000" stroke-width=".466" d="M393.091 96.02h10.926m-11.886 2.642h13.146s.18-1.681-1.38-2.702c6.903-.96 5.102-6.963 10.805-7.323 1.201.18-3.002 2.581-3.002 2.581s-3.421 2.401-1.8 3.662c1.2 1.02 1.8-.6 1.921-1.8.18-1.201 5.582-1.982 4.802-5.403-1.261-2.822-8.824 1.92-8.824 1.92l-5.403-.06c-.36-.6-1.801-3.001-3.362-3.001-1.801 0-3.121 3.001-3.121 3.001h-12.186s-.421 3.182 5.763 3.782c1.38 1.801 2.461 2.281 3.721 2.762-.84.66-1.08 1.5-1.08 2.58Z"/><path fill="#FFC72C" d="M388.109 89.597s.84 5.103 4.922 6.304z"/><path stroke="#000" stroke-width=".466" d="M388.109 89.597s.84 5.103 4.922 6.304"/><path fill="url(#c)" stroke="#000" stroke-width=".466" d="M387.448 89.477c.361-1.92 1.141-2.28 1.921-4.802.12-2.401-1.921-2.101-1.32-3.602 1.08-1.74.54-3.361-1.501-4.622.42 2.221-2.641 4.322-2.641 6.123 0 1.8 1.56 1.44 1.38 4.202.12 1.56-.42 1.2-.6 2.701z"/><path fill="#FFC72C" stroke="#000" stroke-width=".466" d="M400.595 77.411a1.564 1.564 0 0 1-1.561 1.561 1.562 1.562 0 0 1-1.104-2.664 1.562 1.562 0 0 1 2.665 1.103Z"/><path stroke="#FFC72C" stroke-width=".983" d="m390.39 113.909 8.404-12.426 8.584 12.486"/><path fill="#FFC72C" stroke="#000" stroke-width=".466" d="M400.535 109.227a1.68 1.68 0 0 1-2.869 1.188 1.676 1.676 0 0 1 0-2.377 1.68 1.68 0 0 1 2.869 1.189Z"/><path fill="#FFC72C" d="M391.951 123.094h13.146s.18-1.681-1.381-2.702c6.904-.96 5.103-6.963 10.806-7.323 1.2.18-3.002 2.581-3.002 2.581s-3.421 2.401-1.801 3.662c1.201 1.02 1.801-.6 1.921-1.801.18-1.201 5.583-1.981 4.803-5.403-1.261-2.821-8.825 1.921-8.825 1.921l-5.402-.06c-.36-.6-1.801-3.001-3.362-3.001-1.801 0-3.121 3.001-3.121 3.001h-12.186s-.421 3.182 5.762 3.782c1.381 1.801 2.462 2.281 3.722 2.761-.84.661-1.08 1.501-1.08 2.582m.96-2.642h10.926z"/><path stroke="#000" stroke-width=".466" d="M392.911 120.452h10.926m-11.886 2.642h13.146s.18-1.681-1.381-2.702c6.904-.96 5.103-6.963 10.806-7.323 1.2.18-3.002 2.581-3.002 2.581s-3.421 2.401-1.801 3.662c1.201 1.02 1.801-.6 1.921-1.801.18-1.201 5.583-1.981 4.803-5.403-1.261-2.821-8.825 1.921-8.825 1.921l-5.402-.06c-.36-.6-1.801-3.001-3.362-3.001-1.801 0-3.121 3.001-3.121 3.001h-12.186s-.421 3.182 5.762 3.782c1.381 1.801 2.462 2.281 3.722 2.761-.84.661-1.08 1.501-1.08 2.582Z"/><path fill="#FFC72C" d="M387.929 114.029s.84 5.103 4.922 6.303z"/><path stroke="#000" stroke-width=".466" d="M387.929 114.029s.84 5.103 4.922 6.303"/><path fill="url(#d)" stroke="#000" stroke-width=".466" d="M387.268 113.909c.36-1.921 1.141-2.281 1.921-4.802.12-2.401-1.921-2.101-1.32-3.602 1.08-1.741.54-3.362-1.501-4.622.42 2.221-2.641 4.322-2.641 6.123s1.56 1.441 1.38 4.202c.12 1.561-.42 1.2-.6 2.701z"/><path fill="#FFC72C" stroke="#000" stroke-width=".466" d="M400.415 101.843a1.562 1.562 0 1 1-3.123-.002 1.562 1.562 0 0 1 3.123.002Z"/><path stroke="#FFC72C" stroke-width=".983" d="m406.417 140.382 8.405-12.426 8.584 12.486"/><path fill="#FFC72C" stroke="#000" stroke-width=".466" d="M416.563 135.7a1.68 1.68 0 0 1-2.87 1.188 1.68 1.68 0 0 1 1.189-2.869 1.684 1.684 0 0 1 1.681 1.681Z"/><path fill="#FFC72C" d="M407.979 149.567h13.146s.18-1.681-1.381-2.701c6.904-.961 5.103-6.964 10.806-7.324 1.2.18-3.002 2.581-3.002 2.581s-3.422 2.401-1.801 3.662c1.201 1.021 1.801-.6 1.921-1.801.18-1.2 5.583-1.981 4.803-5.403-1.261-2.821-8.825 1.921-8.825 1.921l-5.402-.06c-.361-.6-1.801-3.001-3.362-3.001-1.801 0-3.122 3.001-3.122 3.001h-12.186s-.42 3.182 5.763 3.782c1.381 1.801 2.461 2.281 3.722 2.762-.84.66-1.08 1.5-1.08 2.581m.96-2.641h10.925z"/><path stroke="#000" stroke-width=".466" d="M408.939 146.926h10.925m-11.885 2.641h13.146s.18-1.681-1.381-2.701c6.904-.961 5.103-6.964 10.806-7.324 1.2.18-3.002 2.581-3.002 2.581s-3.422 2.401-1.801 3.662c1.201 1.021 1.801-.6 1.921-1.801.18-1.2 5.583-1.981 4.803-5.403-1.261-2.821-8.825 1.921-8.825 1.921l-5.402-.06c-.361-.6-1.801-3.001-3.362-3.001-1.801 0-3.122 3.001-3.122 3.001h-12.186s-.42 3.182 5.763 3.782c1.381 1.801 2.461 2.281 3.722 2.762-.84.66-1.08 1.5-1.08 2.581Z"/><path fill="#FFC72C" d="M403.957 140.502s.84 5.103 4.922 6.304z"/><path stroke="#000" stroke-width=".466" d="M403.957 140.502s.84 5.103 4.922 6.304"/><path fill="url(#e)" stroke="#000" stroke-width=".466" d="M403.296 140.382c.36-1.921 1.141-2.281 1.921-4.802.12-2.401-1.921-2.101-1.321-3.602 1.081-1.741.541-3.361-1.5-4.622.42 2.221-2.642 4.322-2.642 6.123s1.561 1.441 1.381 4.202c.12 1.561-.42 1.201-.6 2.701z"/><path fill="#FFC72C" stroke="#000" stroke-width=".466" d="M416.442 128.316a1.56 1.56 0 1 1-3.121.001 1.56 1.56 0 0 1 3.121-.001Z"/><path stroke="#FFC72C" stroke-width=".983" d="m388.289 162.053 8.404-12.426 8.584 12.486"/><path fill="#FFC72C" stroke="#000" stroke-width=".466" d="M398.433 157.371a1.68 1.68 0 1 1-3.361 0 1.682 1.682 0 0 1 2.869-1.189c.315.315.492.743.492 1.189Z"/><path fill="#FFC72C" d="M389.85 171.237h13.146s.18-1.681-1.381-2.701c6.904-.96 5.103-6.963 10.806-7.324 1.2.18-3.002 2.582-3.002 2.582s-3.421 2.401-1.801 3.661c1.201 1.021 1.801-.6 1.921-1.8.18-1.201 5.583-1.981 4.803-5.403-1.261-2.821-8.825 1.921-8.825 1.921l-5.402-.06c-.361-.6-1.801-3.002-3.362-3.002-1.801 0-3.122 3.002-3.122 3.002h-12.186s-.42 3.181 5.763 3.782c1.381 1.801 2.462 2.281 3.722 2.761-.84.66-1.08 1.501-1.08 2.581m.96-2.641h10.925z"/><path stroke="#000" stroke-width=".466" d="M390.81 168.596h10.925m-11.885 2.641h13.146s.18-1.681-1.381-2.701c6.904-.96 5.103-6.963 10.806-7.324 1.2.18-3.002 2.582-3.002 2.582s-3.421 2.401-1.801 3.661c1.201 1.021 1.801-.6 1.921-1.8.18-1.201 5.583-1.981 4.803-5.403-1.261-2.821-8.825 1.921-8.825 1.921l-5.402-.06c-.361-.6-1.801-3.002-3.362-3.002-1.801 0-3.122 3.002-3.122 3.002h-12.186s-.42 3.181 5.763 3.782c1.381 1.801 2.462 2.281 3.722 2.761-.84.66-1.08 1.501-1.08 2.581Z"/><path fill="#FFC72C" d="M385.828 162.173s.84 5.102 4.922 6.303z"/><path stroke="#000" stroke-width=".466" d="M385.828 162.173s.84 5.102 4.922 6.303"/><path fill="url(#f)" stroke="#000" stroke-width=".466" d="M385.167 162.053c.36-1.921 1.141-2.281 1.921-4.803.12-2.401-1.921-2.101-1.32-3.601 1.08-1.741.54-3.362-1.501-4.623.42 2.221-2.642 4.322-2.642 6.123s1.561 1.441 1.381 4.202c.12 1.561-.42 1.201-.6 2.702z"/><path fill="#FFC72C" stroke="#000" stroke-width=".466" d="M398.314 149.987c0 .414-.165.811-.457 1.104a1.565 1.565 0 0 1-2.207 0 1.562 1.562 0 1 1 2.664-1.104Z"/><path stroke="#FFC72C" stroke-width=".983" d="m388.769 187.626 8.404-12.426 8.584 12.486"/><path fill="#FFC72C" stroke="#000" stroke-width=".466" d="M398.914 182.944a1.681 1.681 0 1 1-3.362 0 1.681 1.681 0 0 1 3.362 0Z"/><path fill="#FFC72C" d="M390.33 196.81h13.146s.18-1.681-1.381-2.701c6.904-.96 5.103-6.963 10.806-7.324 1.2.18-3.002 2.582-3.002 2.582s-3.421 2.401-1.801 3.661c1.201 1.021 1.801-.6 1.921-1.8.18-1.201 5.583-1.981 4.803-5.403-1.261-2.821-8.825 1.921-8.825 1.921l-5.402-.06c-.361-.6-1.801-3.002-3.362-3.002-1.801 0-3.122 3.002-3.122 3.002h-12.186s-.42 3.181 5.763 3.782c1.381 1.801 2.461 2.281 3.722 2.761-.84.66-1.08 1.501-1.08 2.581m.96-2.641h10.925z"/><path stroke="#000" stroke-width=".466" d="M391.29 194.169h10.925m-11.885 2.641h13.146s.18-1.681-1.381-2.701c6.904-.96 5.103-6.963 10.806-7.324 1.2.18-3.002 2.582-3.002 2.582s-3.421 2.401-1.801 3.661c1.201 1.021 1.801-.6 1.921-1.8.18-1.201 5.583-1.981 4.803-5.403-1.261-2.821-8.825 1.921-8.825 1.921l-5.402-.06c-.361-.6-1.801-3.002-3.362-3.002-1.801 0-3.122 3.002-3.122 3.002h-12.186s-.42 3.181 5.763 3.782c1.381 1.801 2.461 2.281 3.722 2.761-.84.66-1.08 1.501-1.08 2.581Z"/><path fill="#FFC72C" d="M386.308 187.746s.84 5.102 4.922 6.303z"/><path stroke="#000" stroke-width=".466" d="M386.308 187.746s.84 5.102 4.922 6.303"/><path fill="url(#g)" stroke="#000" stroke-width=".466" d="M385.647 187.626c.36-1.921 1.141-2.281 1.921-4.803.12-2.401-1.921-2.101-1.321-3.601 1.081-1.741.541-3.362-1.5-4.623.42 2.221-2.642 4.322-2.642 6.123s1.561 1.441 1.381 4.202c.12 1.561-.42 1.201-.6 2.702z"/><path fill="#FFC72C" stroke="#000" stroke-width=".466" d="M398.794 175.56a1.56 1.56 0 1 1-3.122-.001 1.56 1.56 0 0 1 3.122.001Z"/><path stroke="#FFC72C" stroke-width=".983" d="m478.873 65.105 8.404-12.426 8.584 12.486"/><path fill="#FFC72C" stroke="#000" stroke-width=".466" d="M489.018 60.423a1.681 1.681 0 1 1-3.363 0 1.681 1.681 0 0 1 3.363 0Z"/><path fill="#FFC72C" d="M480.434 74.29h13.147s.18-1.681-1.381-2.702c6.903-.96 5.102-6.963 10.805-7.323 1.201.18-3.001 2.581-3.001 2.581s-3.422 2.401-1.801 3.662c1.2 1.02 1.801-.6 1.921-1.801.18-1.2 5.583-1.98 4.802-5.403-1.26-2.821-8.824 1.921-8.824 1.921l-5.403-.06c-.36-.6-1.801-3.001-3.362-3.001-1.8 0-3.121 3.001-3.121 3.001H472.03s-.42 3.182 5.763 3.782c1.38 1.801 2.461 2.281 3.722 2.761-.841.66-1.081 1.501-1.081 2.582m.961-2.642h10.925z"/><path stroke="#000" stroke-width=".466" d="M481.395 71.649h10.925m-11.886 2.64h13.147s.18-1.68-1.381-2.7c6.903-.961 5.102-6.964 10.805-7.324 1.201.18-3.001 2.581-3.001 2.581s-3.422 2.401-1.801 3.662c1.2 1.02 1.801-.6 1.921-1.801.18-1.2 5.583-1.98 4.802-5.403-1.26-2.821-8.824 1.921-8.824 1.921l-5.403-.06c-.36-.6-1.801-3.001-3.362-3.001-1.8 0-3.121 3.001-3.121 3.001H472.03s-.42 3.182 5.763 3.782c1.38 1.801 2.461 2.281 3.722 2.761-.841.66-1.081 1.501-1.081 2.582Z"/><path fill="#FFC72C" d="M476.412 65.226s.841 5.102 4.923 6.303z"/><path stroke="#000" stroke-width=".466" d="M476.412 65.226s.841 5.102 4.923 6.303"/><path fill="url(#h)" stroke="#000" stroke-width=".466" d="M475.752 65.105c.36-1.92 1.14-2.28 1.921-4.802.12-2.401-1.921-2.101-1.321-3.602 1.081-1.74.54-3.361-1.501-4.622.42 2.221-2.641 4.322-2.641 6.123 0 1.8 1.561 1.44 1.381 4.202.12 1.56-.421 1.2-.601 2.701z"/><path fill="#FFC72C" stroke="#000" stroke-width=".466" d="M488.898 53.04a1.56 1.56 0 1 1-3.121 0 1.56 1.56 0 0 1 2.664-1.104c.293.292.457.69.457 1.103Z"/><path stroke="#FFC72C" stroke-width=".983" d="m478.033 89.417 8.404-12.426 8.584 12.486"/><path fill="#FFC72C" stroke="#000" stroke-width=".466" d="M488.178 84.735a1.681 1.681 0 1 1-3.363 0 1.681 1.681 0 0 1 3.363 0Z"/><path fill="#FFC72C" d="M479.594 98.602h13.146s.18-1.681-1.38-2.702c6.903-.96 5.102-6.963 10.805-7.323 1.2.18-3.002 2.58-3.002 2.58s-3.421 2.402-1.801 3.663c1.201 1.02 1.801-.6 1.921-1.801.181-1.2 5.583-1.981 4.803-5.403-1.261-2.821-8.825 1.921-8.825 1.921l-5.402-.06c-.36-.6-1.801-3.001-3.362-3.001-1.801 0-3.121 3.001-3.121 3.001H471.19s-.421 3.182 5.762 3.782c1.381 1.8 2.462 2.281 3.722 2.761-.84.66-1.08 1.501-1.08 2.582m.96-2.642h10.926z"/><path stroke="#000" stroke-width=".466" d="M480.554 95.96h10.926m-11.886 2.642h13.146s.18-1.681-1.38-2.702c6.903-.96 5.102-6.963 10.805-7.323 1.2.18-3.002 2.58-3.002 2.58s-3.421 2.402-1.801 3.663c1.201 1.02 1.801-.6 1.921-1.801.181-1.2 5.583-1.981 4.803-5.403-1.261-2.821-8.825 1.921-8.825 1.921l-5.402-.06c-.36-.6-1.801-3.001-3.362-3.001-1.801 0-3.121 3.001-3.121 3.001H471.19s-.421 3.182 5.762 3.782c1.381 1.8 2.462 2.281 3.722 2.761-.84.66-1.08 1.501-1.08 2.582Z"/><path fill="#FFC72C" d="M475.572 89.537s.84 5.103 4.922 6.304z"/><path stroke="#000" stroke-width=".466" d="M475.572 89.537s.84 5.103 4.922 6.304"/><path fill="url(#i)" stroke="#000" stroke-width=".466" d="M474.911 89.417c.361-1.92 1.141-2.28 1.921-4.802.12-2.401-1.921-2.101-1.32-3.602 1.08-1.74.54-3.362-1.501-4.622.42 2.221-2.641 4.322-2.641 6.123 0 1.8 1.56 1.44 1.38 4.202.12 1.56-.42 1.2-.6 2.701z"/><path fill="#FFC72C" stroke="#000" stroke-width=".466" d="M488.058 77.351a1.56 1.56 0 1 1-3.121 0 1.56 1.56 0 0 1 2.664-1.103c.293.292.457.69.457 1.103Z"/><path stroke="#FFC72C" stroke-width=".983" d="m476.953 114.329 8.404-12.426 8.584 12.486"/><path fill="#FFC72C" stroke="#000" stroke-width=".466" d="M487.098 109.647a1.683 1.683 0 0 1-2.87 1.189 1.682 1.682 0 1 1 2.87-1.189Z"/><path fill="#FFC72C" d="M478.513 123.514h13.147s.18-1.681-1.381-2.701c6.903-.961 5.102-6.964 10.805-7.324 1.201.18-3.001 2.581-3.001 2.581s-3.422 2.401-1.801 3.662c1.201 1.021 1.801-.6 1.921-1.801.18-1.2 5.583-1.981 4.802-5.402-1.26-2.822-8.824 1.92-8.824 1.92l-5.403-.06c-.36-.6-1.801-3.001-3.361-3.001-1.801 0-3.122 3.001-3.122 3.001h-12.186s-.42 3.182 5.763 3.782c1.381 1.801 2.461 2.281 3.722 2.762-.841.66-1.081 1.5-1.081 2.581m.961-2.641h10.925z"/><path stroke="#000" stroke-width=".466" d="M479.474 120.873h10.925m-11.886 2.641h13.147s.18-1.681-1.381-2.701c6.903-.961 5.102-6.964 10.805-7.324 1.201.18-3.001 2.581-3.001 2.581s-3.422 2.401-1.801 3.662c1.201 1.021 1.801-.6 1.921-1.801.18-1.2 5.583-1.981 4.802-5.402-1.26-2.822-8.824 1.92-8.824 1.92l-5.403-.06c-.36-.6-1.801-3.001-3.361-3.001-1.801 0-3.122 3.001-3.122 3.001h-12.186s-.42 3.182 5.763 3.782c1.381 1.801 2.461 2.281 3.722 2.762-.841.66-1.081 1.5-1.081 2.581Z"/><path fill="#FFC72C" d="M474.491 114.45s.841 5.102 4.923 6.303z"/><path stroke="#000" stroke-width=".466" d="M474.491 114.45s.841 5.102 4.923 6.303"/><path fill="url(#j)" stroke="#000" stroke-width=".466" d="M473.831 114.33c.36-1.921 1.14-2.281 1.921-4.803.12-2.401-1.921-2.101-1.321-3.602 1.081-1.74.54-3.361-1.501-4.622.421 2.221-2.641 4.322-2.641 6.123s1.561 1.441 1.381 4.202c.12 1.561-.42 1.201-.601 2.702z"/><path fill="#FFC72C" stroke="#000" stroke-width=".466" d="M486.978 102.264c0 .414-.165.811-.458 1.103a1.557 1.557 0 0 1-2.207 0 1.557 1.557 0 0 1 0-2.207 1.56 1.56 0 0 1 2.665 1.104Z"/><path stroke="#FFC72C" stroke-width=".983" d="m478.213 138.762 8.404-12.427 8.584 12.487"/><path fill="#FFC72C" stroke="#000" stroke-width=".466" d="M488.358 134.079a1.68 1.68 0 0 1-1.681 1.681 1.684 1.684 0 0 1-1.681-1.681 1.68 1.68 0 0 1 2.869-1.188c.316.315.493.742.493 1.188Z"/><path fill="#FFC72C" d="M479.773 147.946h13.147s.18-1.681-1.381-2.701c6.904-.961 5.103-6.964 10.806-7.324 1.2.18-3.002 2.581-3.002 2.581s-3.422 2.402-1.801 3.662c1.201 1.021 1.801-.6 1.921-1.801.18-1.2 5.583-1.981 4.802-5.402-1.26-2.822-8.824 1.921-8.824 1.921l-5.403-.06c-.36-.601-1.8-3.002-3.361-3.002-1.801 0-3.122 3.002-3.122 3.002h-12.186s-.42 3.181 5.763 3.781c1.381 1.801 2.461 2.282 3.722 2.762-.84.66-1.081 1.501-1.081 2.581m.961-2.641h10.925z"/><path stroke="#000" stroke-width=".466" d="M480.734 145.305h10.925m-11.886 2.641h13.147s.18-1.681-1.381-2.701c6.904-.961 5.103-6.964 10.806-7.324 1.2.18-3.002 2.581-3.002 2.581s-3.422 2.402-1.801 3.662c1.201 1.021 1.801-.6 1.921-1.801.18-1.2 5.583-1.981 4.802-5.402-1.26-2.822-8.824 1.921-8.824 1.921l-5.403-.06c-.36-.601-1.8-3.002-3.361-3.002-1.801 0-3.122 3.002-3.122 3.002h-12.186s-.42 3.181 5.763 3.781c1.381 1.801 2.461 2.282 3.722 2.762-.84.66-1.081 1.501-1.081 2.581Z"/><path fill="#FFC72C" d="M475.751 138.882s.841 5.102 4.923 6.303z"/><path stroke="#000" stroke-width=".466" d="M475.751 138.882s.841 5.102 4.923 6.303"/><path fill="url(#k)" stroke="#000" stroke-width=".466" d="M475.091 138.762c.36-1.921 1.141-2.281 1.921-4.803.12-2.401-1.921-2.101-1.321-3.601 1.081-1.741.541-3.362-1.5-4.623.42 2.221-2.642 4.322-2.642 6.123s1.561 1.441 1.381 4.202c.12 1.561-.42 1.201-.6 2.702z"/><path fill="#FFC72C" stroke="#000" stroke-width=".466" d="M488.238 126.696a1.56 1.56 0 1 1-3.122-.001 1.56 1.56 0 0 1 3.122.001Z"/><path stroke="#FFC72C" stroke-width=".983" d="m477.913 163.254 8.404-12.426 8.584 12.486"/><path fill="#FFC72C" stroke="#000" stroke-width=".466" d="M488.058 158.571a1.682 1.682 0 1 1-3.364 0 1.682 1.682 0 0 1 3.364 0Z"/><path fill="#FFC72C" d="M479.474 172.438h13.146s.18-1.681-1.381-2.701c6.904-.961 5.103-6.964 10.806-7.324 1.2.18-3.002 2.582-3.002 2.582s-3.421 2.401-1.801 3.661c1.201 1.021 1.801-.6 1.921-1.801.18-1.2 5.583-1.98 4.803-5.402-1.261-2.822-8.825 1.921-8.825 1.921l-5.402-.06c-.361-.601-1.801-3.002-3.362-3.002-1.801 0-3.122 3.002-3.122 3.002h-12.186s-.42 3.181 5.763 3.782c1.381 1.8 2.462 2.281 3.722 2.761-.84.66-1.08 1.501-1.08 2.581m.96-2.641h10.925z"/><path stroke="#000" stroke-width=".466" d="M480.434 169.797h10.925m-11.885 2.641h13.146s.18-1.681-1.381-2.701c6.904-.961 5.103-6.964 10.806-7.324 1.2.18-3.002 2.582-3.002 2.582s-3.421 2.401-1.801 3.661c1.201 1.021 1.801-.6 1.921-1.801.18-1.2 5.583-1.98 4.803-5.402-1.261-2.822-8.825 1.921-8.825 1.921l-5.402-.06c-.361-.601-1.801-3.002-3.362-3.002-1.801 0-3.122 3.002-3.122 3.002h-12.186s-.42 3.181 5.763 3.782c1.381 1.8 2.462 2.281 3.722 2.761-.84.66-1.08 1.501-1.08 2.581Z"/><path fill="#FFC72C" d="M475.452 163.374s.84 5.102 4.922 6.303z"/><path stroke="#000" stroke-width=".466" d="M475.452 163.374s.84 5.102 4.922 6.303"/><path fill="url(#l)" stroke="#000" stroke-width=".466" d="M474.791 163.254c.36-1.921 1.141-2.281 1.921-4.803.12-2.401-1.921-2.101-1.32-3.601 1.08-1.741.54-3.362-1.501-4.623.42 2.221-2.641 4.322-2.641 6.123s1.56 1.441 1.38 4.202c.12 1.561-.42 1.201-.6 2.702z"/><path fill="#FFC72C" stroke="#000" stroke-width=".466" d="M487.938 151.188a1.557 1.557 0 0 1-1.561 1.56c-.414 0-.811-.164-1.103-.457a1.56 1.56 0 0 1 0-2.207 1.557 1.557 0 0 1 2.207 0c.293.293.457.69.457 1.104Z"/><path stroke="#FFC72C" stroke-width=".983" d="m478.033 187.866 8.404-12.426 8.584 12.486"/><path fill="#FFC72C" stroke="#000" stroke-width=".466" d="M488.178 183.183a1.682 1.682 0 1 1-3.364 0 1.682 1.682 0 0 1 3.364 0Z"/><path fill="#FFC72C" d="M479.594 197.05h13.146s.18-1.681-1.38-2.701c6.903-.961 5.102-6.963 10.805-7.324 1.2.18-3.002 2.582-3.002 2.582s-3.421 2.401-1.801 3.661c1.201 1.021 1.801-.6 1.921-1.8.181-1.201 5.583-1.981 4.803-5.403-1.261-2.822-8.825 1.921-8.825 1.921l-5.402-.06c-.36-.601-1.801-3.002-3.362-3.002-1.801 0-3.121 3.002-3.121 3.002H471.19s-.421 3.181 5.762 3.782c1.381 1.801 2.462 2.281 3.722 2.761-.84.66-1.08 1.501-1.08 2.581m.96-2.641h10.926z"/><path stroke="#000" stroke-width=".466" d="M480.554 194.409h10.926m-11.886 2.641h13.146s.18-1.681-1.38-2.701c6.903-.961 5.102-6.963 10.805-7.324 1.2.18-3.002 2.582-3.002 2.582s-3.421 2.401-1.801 3.661c1.201 1.021 1.801-.6 1.921-1.8.181-1.201 5.583-1.981 4.803-5.403-1.261-2.822-8.825 1.921-8.825 1.921l-5.402-.06c-.36-.601-1.801-3.002-3.362-3.002-1.801 0-3.121 3.002-3.121 3.002H471.19s-.421 3.181 5.762 3.782c1.381 1.801 2.462 2.281 3.722 2.761-.84.66-1.08 1.501-1.08 2.581Z"/><path fill="#FFC72C" d="M475.572 187.986s.84 5.102 4.922 6.303z"/><path stroke="#000" stroke-width=".466" d="M475.572 187.986s.84 5.102 4.922 6.303"/><path fill="url(#m)" stroke="#000" stroke-width=".466" d="M474.911 187.866c.361-1.921 1.141-2.281 1.921-4.803.12-2.401-1.921-2.101-1.32-3.601 1.08-1.741.54-3.362-1.501-4.623.42 2.221-2.641 4.322-2.641 6.123s1.56 1.441 1.38 4.202c.12 1.561-.42 1.201-.6 2.702z"/><path fill="#FFC72C" stroke="#000" stroke-width=".466" d="M488.058 175.8a1.562 1.562 0 1 1-3.124-.001 1.562 1.562 0 0 1 3.124.001ZM451.679 199.451s3.422 7.924 7.324 3.002c3.902-4.803 2.521-6.904 2.521-6.904l-8.764-4.742-2.581 5.403z"/><path fill="#FFC6B5" stroke="#000" stroke-width=".466" d="M459.243 198.431s.601.06 1.021-.781c.48-.84-1.021-1.2-1.741-2.161l-.72 1.501zm-19.809-2.161-7.684 4.202s-3.842.78-4.082 0c-.3-.721.06-1.381 2.101-1.501 1.981-.06 7.383-5.042 7.383-5.042l2.282 2.401zm.12-136.808.24 2.762c.12.96-1.501 3.001-1.561 2.881-.12-.12-.901.12-.78.66.06.6 1.2.78 1.2.78s-.42 1.982 0 2.102c.48.06-1.2 2.521 0 3.182 1.261.66 3.362 1.56 4.322 1.38.961-.24 0 3.662 0 3.662l-2.701 5.703 14.647-1.501-3.001-4.802s-1.441-1.02-1.081-3.782c.42-2.702-.18-15.188-.18-15.188l-10.445-1.44zm-2.702 21.731s-4.742 2.161-4.562 8.044c-1.201 5.703-1.861 11.406-1.861 11.406s-5.643 6.363-7.324 8.704c-1.74 2.281-4.322 6.903-5.222 8.164-.961 1.201-4.682 5.283-4.622 6.843.12 1.501-.841 8.284 2.881 9.005.961.42 4.022-7.804 4.022-7.804s.18-3.482-.9-4.202c-1.021-.6 2.281-2.882 2.281-2.882l7.804-5.822c1.44-1.201 5.342-5.523 5.342-5.523z"/><path fill="#fff" stroke="#000" stroke-width=".466" d="M442.315 76.691s1.2 3.362 3.962 2.761c2.761-.6 6.003-3.121 6.003-3.121s2.581-.12 2.941.3c.36.36 6.964 6.723 6.724 8.704-.181 2.041-3.002 1.441-4.082 2.762-1.021 1.32-2.762 4.682-2.282 7.203.481 2.401 1.921 5.643 1.741 6.904-.18 1.2-1.2 1.62-1.2 2.281 0 .6.84 1.801.84 3.001 0 1.261-1.201 3.062-.96 4.322.18 1.201.24 4.803.24 4.803l-.24 16.808s.96.54 1.02 1.501c.12.9 6.483 28.574 6.483 28.574s-.3.9-.96.78 2.581 4.262 2.641 5.523c.12 1.2 3.362 10.925 3.242 12.246-.06 1.321-.601 4.322-.841 4.382-.3.12 2.101 6.123 1.681 7.023-.36.961-4.202.901-4.202.901l-1.08-.24s.06 1.26-.661 1.38c-.78.061-6.363-.3-6.363-.3s-1.621 2.462-2.581 2.402c-.961-.121-2.221-1.801-2.461-1.561-.301.3.84 1.921.6 2.401-.36.48-5.163 1.501-6.123-.78-.961-2.282.6-1.681.24-2.162-.24-.48-2.401-1.74-3.122-1.38-.6.42 1.741.96 1.621 1.921-.06.96-2.101 2.401-2.821 2.401-.78 0-2.581-3.542-5.283-3.182-2.641.421-4.322 1.081-4.322 1.081s-3.181 1.321-4.502 1.02c-1.321-.24-1.921-1.32-1.921-1.861 0-.6.96-3.061.9-3.841-.12-.721-.9-1.501-.9-2.642 0-1.2 2.221-5.042 2.221-5.042l-.12-17.529s-1.981 0-2.101-1.2c-.06-1.201 3.061-27.674 3.602-29.415l1.681-7.804s-1.441.721-1.561 0c-.06-.6 4.322-15.727 4.322-15.727s.72-7.564.72-9.545-.36-4.743-.36-4.743-3.902-1.68-4.022-4.202c-.36-4.022 3.722-6.243 4.202-7.563l1.921-5.403s2.101-3.602 5.523-4.142Z"/><path fill="#FFC72C" stroke="#000" stroke-width=".466" d="M440.874 197.47s-9.244 4.803-10.565 5.223c-1.32.36-2.161-1.621-.84-1.981 1.32-.42 3.422-.6 3.422-.6s-3.122-2.461-3.002-2.582l4.322-1.56c.12 0 1.321 2.401 2.161 2.281a18.7 18.7 0 0 0 3.362-2.101z"/><path fill="#FFC6B5" stroke="#000" stroke-width=".466" d="M453.841 200.112c.9 1.14 1.2 3.061 3.241 1.921 1.981-1.141-1.02-3.242-1.02-3.242z"/><path fill="#FFC6B5" stroke="#000" stroke-width=".466" d="M457.503 199.932s.96.78 1.8-.12c.841-.841-1.68-2.642-1.68-2.642l-1.261 1.441zm4.082-114.117c.12 0 3.121 9.365 3.541 11.766.36 2.401 1.621 11.886 1.141 13.207-.48 1.32-5.343 7.684-5.883 9.304-.6 1.621-4.022 7.804-4.022 7.804s-.84 6.123-1.201 6.363c-.42.3.961 1.801.841 2.281-.18.601-2.762 3.242-3.902 3.002-1.201-.3-3.002-1.621-3.002-2.882-.18-1.2 0-5.342.901-6.363.84-1.08 5.342-11.585 5.583-12.246.3-.72 4.082-9.004 4.202-10.385.12-1.441-1.201-4.742-2.522-5.943-3.001-8.824-1.8-14.107 4.323-15.908Z"/><path fill="#9C5100" stroke="#000" stroke-width=".466" d="M439.193 58.922s2.161.3 3.302-.36c1.14-.66 2.461-.96 3.422.36.96 1.32 1.62 1.2 1.62 1.2s-1.44 3.602 0 3.963c1.381.36 2.101.36 2.161.84.12.48-1.2 1.5-.84 1.981.36.48 1.021 1.02 1.141 1.44.06.361-.841 1.982-.601 2.402.3.36 1.201 1.86 1.741 1.86.6 0 .18 2.402 1.921 1.802 1.681-.6 1.621-2.101 1.621-2.101s1.801-.24 2.281-1.861c.42-1.62 1.561-2.041 1.561-2.041s2.281-1.2-.721-3.122c0-13.326-8.764-11.885-8.764-11.885s-1.02-2.402-2.761-2.102c-1.681.3-1.801 2.282-3.002 2.102-1.26-.18-1.561-1.021-1.621-.961-.12.12-1.2 2.041-1.2 2.461 0 .48-3.302-.6-3.002 1.801.301 2.521 1.921 2.401 1.801 2.221z"/><path stroke="#000" stroke-width=".466" d="M454.681 80.413s-8.464 5.403-8.284 7.324m10.205-6.364s-1.921 2.101-2.041 2.101m4.562.18s-4.202 3.422-3.542 5.583m-16.208-9.304s-1.26 2.58-.96 3.421c.24.84 2.401 4.082 2.641 6.063.3 2.041 0 3.422 0 3.422m-3.902-8.164s.361 3.001.961 3.602c.6.6 2.101 3.181 2.281 4.202m-4.022 4.862s2.521 1.2 4.802-3.542m3.662-3.301c-.06 0-1.801 4.622 1.261 6.363 3.001 1.74 5.342 1.5 6.603 1.02 1.381-.42 2.821-1.32 2.821-1.32m-12.005-.36s.18 6.243 9.424 12.426m-9.004-6.543s-.12 5.522 3.481 7.983M442.015 95.6s-2.762 8.224-4.983 9.005m4.142-3.002s-.12 5.883-.9 7.984m-.72 1.441s1.861 2.401 3.962 2.161c2.101-.18 3.001-2.641 4.382-2.281 1.44.42 2.761 1.561 6.063 1.26m-4.743 2.462s0 4.862.901 5.342c.84.481.42 4.923.42 4.923m-12.906-12.546s-.12 4.562-.661 6.183c-.6 1.62-1.741 4.382-1.5 6.783m-3.662 2.641c.48-.18 2.101-1.621 2.101-1.621m.84 1.021s-4.082 17.529-2.941 27.974m3.902-27.074s-2.101 13.087-1.141 15.608m.12-16.028 7.984.6m1.141-1.08s2.161 1.201 5.222.96m-6.183 5.463s-.36 22.391-.96 27.374m12.666-22.271s2.461 19.689 3.902 21.49m-8.644-19.029s1.5 17.408 2.401 18.969m-24.012 6.063s3.001-.96 5.643-3.782c3.001 4.082 7.684.18 7.684.18s7.203 4.923 10.445-.6c4.982 3.242 7.443-.48 7.443-.48s1.801 2.761 3.122 2.461m-7.864 1.921s3.662 17.409 9.185 22.331"/><path stroke="#000" stroke-width=".466" d="M435.592 164.274s.42 14.527 1.26 24.792m-1.981-8.344s-.48 9.485-1.02 10.205m-4.562.901s1.02 4.142 6.243.3c5.222-3.782 5.342 1.441 5.522 1.981.181.6 1.021 4.682 3.002 1.26m4.202-5.582s-.84 8.404 6.663 2.281c7.504-6.183 8.765-.12 9.005 1.801M448.378 55.681s-.66 4.202 3.782 3.782c-.6 2.34 1.201 3.061 1.201 3.061m3.241 2.581c.12 0 2.041 1.2 0 2.762m-6.423.54s.96 1.2 1.981.9c1.08-.3 2.761 1.02 2.761 1.02s1.441.481 1.621.181m-12.186 1.5s3.242 1.261 5.403-3.841m-11.346-1.561 1.861.12m-22.991 59.91.18 4.142m-4.082-4.503s2.701 4.503 2.401 6.844"/><path stroke="#000" stroke-linejoin="round" stroke-width=".466" d="M438.653 68.527h1.741l-1.501.66m10.326 66.453s1.981-.24 1.92 3.122c1.261-4.202 3.842-4.262 3.842-4.262"/><path stroke="#000" stroke-linejoin="round" stroke-width=".88" d="M441.054 63.184c.3 0 1.321-.36 1.501-.06.24.24-1.141.48-1.501.06Z"/><path fill="#FFC72C" stroke="#000" stroke-width=".983" d="M442.375 230.847a96.3 96.3 0 0 0 65.793-30.435c-.24-.24 5.342-8.044 9.785-6.963 4.442 1.14 10.865 14.227 18.669 17.048 3.902 6.123-1.081 11.706-2.761 12.786-1.681 1.141-9.245 4.202-10.326-.24-1.14-4.502-3.361-3.602-3.361-3.602s-35.718 34.818-76.958 33.437c-42.621.24-77.798-33.497-77.798-33.497l-3.062 3.362s-3.362 3.602-5.042 3.362c-1.681-.3-8.945-5.043-9.485-9.785-.6-4.742 4.442-7.804 4.442-7.804s12.306-9.485 13.687-14.467c2.821-2.821 8.104 1.921 8.104 1.921s32.356 37.098 68.313 34.817z"/><path stroke="#000" stroke-width=".983" d="M351.491 209.236s3.301-.84 4.502.54c1.201 1.381 9.605 9.605 9.605 9.605"/><path stroke="#000" stroke-width=".983" d="m359.055 213.138-3.362 2.461s8.404 1.681 6.483 7.204m171.444-13.807s-1.62-.9-4.202 1.021c-2.641 1.981-9.184 9.304-9.184 9.304"/><path stroke="#000" stroke-width=".983" d="m526.176 212.898 3.602 2.762s-7.504.54-5.883 7.623"/><path fill="#000" d="M393.992 218.121c-.241.6-.841 0-1.321.12-1.201 0-2.281.84-3.362 1.44l-11.045 6.423c-.36-.12-.3-.42-.18-.72l3.001-13.807c.12-.78.36-1.801-.42-2.401-.3-.24.18-.66.42-.24l5.643 4.022c-.18.54-.54.12-.84-.06-.781-.78-1.741-.06-1.681.9l-2.041 9.065c2.521-1.441 5.042-2.882 7.563-4.442.841-.361 1.501-1.561.601-2.281-.36-.241-.961-.781-.36-.901zm3.961 19.209c-.12.36-.3.42-.6.18l-6.603-3.602c.06-.42.24-.48.54-.24.6.42 1.561.6 2.041-.12l2.401-4.382 3.362-6.123c.48-.78-.06-1.681-.78-1.981-.24-.12-.601-.24-.301-.48.121-.18.481.18.661.24l6.363 3.482q-.09.54-.54.18c-.601-.421-1.561-.601-2.041.12l-2.402 4.382-3.361 6.123c-.48.72.06 1.681.78 1.981zm25.573-6.003-1.801 5.042c-.78-.06-.24-1.02-.48-1.5a5.7 5.7 0 0 0-4.202-4.923c-1.801-.48-3.602.421-4.682 1.861a13.75 13.75 0 0 0-2.642 7.324 4.2 4.2 0 0 0 1.921 3.842 6 6 0 0 0 3.542.9l1.261-3.782c.18-.84-.721-1.38-1.381-1.56-.12-.241.12-.601.42-.301l6.603 2.402c0 .78-.96-.12-1.5.24-.781.3-.841 1.26-1.201 1.981l-.78 2.281c-3.002.18-6.003-.42-8.645-1.921-2.461-1.561-4.202-4.622-3.661-7.624.36-2.581 1.981-4.982 4.322-6.123 2.161-1.2 4.802-1.14 7.083-.24 1.201.42 2.281 1.201 3.242 2.041.6.78 1.681.78 2.161-.06zm10.745 17.289c0 .24 0 .54-.36.36l-7.564-1.141c0-.3 0-.54.361-.36.6.12 1.56.12 1.801-.6.36-1.021.42-2.101.6-3.122l1.32-8.764c.181-.6 0-1.321-.66-1.561-.42-.18-.78-.18-1.2-.3 0-.24 0-.48.36-.36l7.563 1.2c0 .24 0 .481-.36.36-.6-.18-1.5-.12-1.801.601-.36.96-.42 2.041-.6 3.061l-1.321 8.765c-.18.6 0 1.38.721 1.62l1.2.241zm20.53-4.923-.3 5.343-13.566.66c-.06-.3 0-.48.36-.42.66 0 1.561-.3 1.681-1.081l-.18-3.962-.421-8.044c.06-.78-.6-1.38-1.38-1.32-.24-.12-.901.24-.841-.18-.12-.361.42-.18.601-.24l7.563-.421c0 .361 0 .541-.42.481-.66 0-1.561.12-1.801.96-.06 1.141.06 2.281.12 3.422l.42 8.404c0 .66.601 1.321 1.321 1.2 1.081-.06 2.221 0 3.302-.3 1.5-.42 2.281-1.921 2.701-3.301.3-.36 0-1.321.6-1.201zm10.506-13.086c-.361 0-.18.48-.301.72-.6 4.502-1.14 9.004-1.8 13.447-.12 1.02-.361 2.161-1.321 2.641-.36.18-.06.72.3.42l4.502-1.381c-.06-.72-.96 0-1.44-.18-1.021 0-1.201-1.26-1.021-2.041 0-.6.12-1.08.18-1.62l5.163-1.561c.66.84 1.38 1.621 1.981 2.521.48.84-.601 1.201-1.201 1.381-.36 0-.12.6.18.36l6.784-2.041c0-.78-.961 0-1.381-.6-1.321-.901-2.221-2.221-3.242-3.422zm0 5.402 3.601 4.382-4.382 1.321zm23.171-15.487 1.981 3.601c-.6.601-.96-.66-1.501-.84a2.82 2.82 0 0 0-3.301-.3l-1.201.66 5.883 10.986c.3.9 1.441 1.08 2.221.6.24-.24.54-.36.6.06-.96.6-2.101 1.141-3.121 1.681l-3.902 2.101c-.3-.3-.12-.48.24-.6a1.44 1.44 0 0 0 .89-.944 1.43 1.43 0 0 0-.23-1.278l-5.823-10.805c-1.08.6-2.401 1.081-2.701 2.401-.3.901.12 1.921.12 2.642-.3.36-.42-.12-.6-.361l-1.621-3.121zm9.185-5.463 3.721 4.982c.841-.6 1.561-1.56 1.321-2.641.12-.84-1.081-1.801-.66-2.401.24-.12.42.48.6.66l4.322 5.703c-.6.6-.96-.66-1.561-.84-.84-.601-1.981-.901-2.881-.24-.66.24-.6.6-.18 1.02.96 1.261 1.921 2.641 3.001 3.902.601.6 1.441 0 1.981-.48 1.441-.961 2.702-2.521 2.642-4.322.12-.841-.421-1.681-.421-2.402.361-.42.421.241.601.481l2.041 3.601-10.566 7.984c-.42-.3 0-.54.301-.72.96-.6.66-1.861 0-2.521l-6.844-8.945c-.6-.78-1.681-.36-2.221.18-.3.361-.6-.3-.18-.36l9.905-7.503 2.701 3.601c-.6.601-1.2-.78-1.861-.84-1.32-.72-2.881-.18-3.962.72l-1.86 1.381"/><g clip-path="url(#n)"><path fill="#fff" d="M0 0h300v150H0z"/><path fill="#012169" d="M0 0v150h300V0z"/><path fill="#000" d="m0 0 300 150Zm300 0L0 150Z"/><path stroke="#fff" stroke-width="30" d="m0 0 300 150m0-150L0 150"/><mask id="o" width="300" height="150" x="0" y="0" maskUnits="userSpaceOnUse" style="mask-type:luminance"><path fill="#fff" d="M150 75h150v75zm0 0v75H0zm0 0H0V0zm0 0V0h150z"/></mask><g mask="url(#o)"><path fill="#000" d="m0 0 300 150Zm300 0L0 150Z"/><path stroke="#C8102E" stroke-width="20" d="m0 0 300 150m0-150L0 150"/></g><path fill="#000" d="M150 0v150ZM0 75h300Z"/><path stroke="#fff" stroke-width="50" d="M150 0v150M0 75h300"/><path fill="#000" d="M150 0v150ZM0 75h300Z"/><path stroke="#C8102E" stroke-width="30" d="M150 0v150M0 75h300"/></g></g><defs><linearGradient id="b" x1="386.069" x2="379.241" y1="61.029" y2="60.022" gradientUnits="userSpaceOnUse"><stop stop-color="red"/><stop offset="1" stop-color="#FF0"/></linearGradient><linearGradient id="c" x1="385.589" x2="378.761" y1="85.821" y2="84.814" gradientUnits="userSpaceOnUse"><stop stop-color="red"/><stop offset="1" stop-color="#FF0"/></linearGradient><linearGradient id="d" x1="385.409" x2="378.581" y1="110.253" y2="109.246" gradientUnits="userSpaceOnUse"><stop stop-color="red"/><stop offset="1" stop-color="#FF0"/></linearGradient><linearGradient id="e" x1="401.436" x2="394.608" y1="136.726" y2="135.719" gradientUnits="userSpaceOnUse"><stop stop-color="red"/><stop offset="1" stop-color="#FF0"/></linearGradient><linearGradient id="f" x1="383.308" x2="376.48" y1="158.396" y2="157.39" gradientUnits="userSpaceOnUse"><stop stop-color="red"/><stop offset="1" stop-color="#FF0"/></linearGradient><linearGradient id="g" x1="383.788" x2="376.959" y1="183.969" y2="182.963" gradientUnits="userSpaceOnUse"><stop stop-color="red"/><stop offset="1" stop-color="#FF0"/></linearGradient><linearGradient id="h" x1="473.892" x2="467.064" y1="61.449" y2="60.442" gradientUnits="userSpaceOnUse"><stop stop-color="red"/><stop offset="1" stop-color="#FF0"/></linearGradient><linearGradient id="i" x1="473.052" x2="466.224" y1="85.761" y2="84.754" gradientUnits="userSpaceOnUse"><stop stop-color="red"/><stop offset="1" stop-color="#FF0"/></linearGradient><linearGradient id="j" x1="471.971" x2="465.143" y1="110.673" y2="109.667" gradientUnits="userSpaceOnUse"><stop stop-color="red"/><stop offset="1" stop-color="#FF0"/></linearGradient><linearGradient id="k" x1="473.231" x2="466.403" y1="135.105" y2="134.099" gradientUnits="userSpaceOnUse"><stop stop-color="red"/><stop offset="1" stop-color="#FF0"/></linearGradient><linearGradient id="l" x1="472.932" x2="466.104" y1="159.597" y2="158.591" gradientUnits="userSpaceOnUse"><stop stop-color="red"/><stop offset="1" stop-color="#FF0"/></linearGradient><linearGradient id="m" x1="473.052" x2="466.224" y1="184.209" y2="183.203" gradientUnits="userSpaceOnUse"><stop stop-color="red"/><stop offset="1" stop-color="#FF0"/></linearGradient><clipPath id="a"><path fill="#fff" d="M0 0h600v300H0z"/></clipPath><clipPath id="n"><path fill="#fff" d="M0 0h300v150H0z"/></clipPath></defs></svg>