<svg xmlns="http://www.w3.org/2000/svg" width="600" height="300" fill="none"><g clip-path="url(#a)"><path fill="#F7E017" d="M0 0h600v300H0z"/><path fill="#fff" d="M0 20.813v133.375l600 62.5v-70.876z"/><path fill="#000001" d="M0 91.688v62.5l600 125v-62.5z"/><path fill="#CF1126" d="M290.59 230.882a45.4 45.4 0 0 1-19.131-6.661c-.929-.62-1.781-1.162-1.936-1.162s-.233.736-.233 1.588c0 2.478-1.007 3.718-3.485 4.376-2.401.62-6.041-.62-8.985-3.098a26.4 26.4 0 0 0-9.565-5.228 15.45 15.45 0 0 0-10.843 1.394 3.4 3.4 0 0 1-1.085.503c-.426 0-.387-2.672.078-3.485.581-1.162 1.975-2.246 3.64-2.827.852-.31 1.549-.697 1.549-.891 0-.155-.31-.774-.658-1.394-1.123-1.975-.658-3.872 1.317-5.383 2.013-1.549 5.421-1.781 8.403-.658q.756.323 1.549.542c.387 0 .155-.581-.929-2.169-1.239-1.82-1.511-2.71-1.356-4.918a5.696 5.696 0 0 1 5.228-5.228c2.246-.155 3.641.62 6.971 3.757a55.77 55.77 0 0 0 33.305 16.11c3.214.387 9.604.193 13.36-.388a60.4 60.4 0 0 0 31.678-15.8c2.478-2.323 3.64-2.943 5.693-2.943 1.742 0 2.982.542 4.26 1.936 1.161 1.278 1.549 2.479 1.394 4.454-.078 1.239-.271 1.82-1.007 3.059-1.084 1.743-.891 1.936 1.239 1.084 2.943-1.161 6.545-.619 8.481 1.24 1.704 1.626 1.859 3.253.542 5.421-.503.814-.89 1.549-.89 1.704 0 .233.387.31 2.13.62 2.323.387 3.679 2.091 3.679 4.724 0 .775-.117 1.433-.233 1.433s-1.007-.348-1.936-.735c-2.711-1.123-4.26-1.395-7.436-1.356-2.401 0-3.214.116-4.879.658a22.3 22.3 0 0 0-7.552 4.454c-2.478 2.207-4.027 2.904-6.428 2.866-2.246 0-3.757-.659-4.57-1.937-.426-.697-.503-1.084-.387-2.633.077-1.007.039-1.82 0-1.82-.116 0-.968.542-1.936 1.2a31.2 31.2 0 0 1-7.165 3.834 70.3 70.3 0 0 1-31.871 3.757"/><path fill="#CF1126" d="M294.695 213.649a52.83 52.83 0 0 1-37.913-21.571c-9.449-12.857-12.393-29.857-9.527-45.387 1.549-7.087 4.647-14.173 9.875-19.208a44.4 44.4 0 0 0-3.369 28.774c3.485 19.285 19.75 35.589 39.23 38.416 7.745 2.207 15.684-.155 23.042-2.517 16.265-5.732 28.657-21.145 30.129-38.378 1.278-9.294-.117-19.014-4.338-27.495 2.401 1.278 5.422 6.273 7.203 9.604 6.197 12.005 6.468 26.372 2.827 39.191-4.957 16.303-17.426 30.593-33.885 35.783a64.2 64.2 0 0 1-23.236 2.788zM219.45 192.234c-.968-.155-2.053.813-1.665 1.82.697 1.007 1.936 1.549 3.02 2.014a21 21 0 0 0 8.985 1.394c2.245 0 4.473-.393 6.583-1.162 1.162-.387 2.634-.775 3.098-2.091.504-.814-.387-1.666-1.2-1.511-1.162.271-2.324.775-3.486 1.123a22.3 22.3 0 0 1-7.861.775 21 21 0 0 1-5.577-1.627c-.619-.271-1.2-.658-1.897-.735"/><path fill="#CF1126" d="M220.534 188.206c-.968-.155-1.82 1.007-1.433 1.937.774 1.084 2.052 1.665 3.253 2.168a16.4 16.4 0 0 0 6.583 1.123h.581a14.6 14.6 0 0 0 5.577-1.084c1.045-.426 2.362-.852 2.827-2.014.348-.658.077-1.587-.775-1.665-.697 0-1.355.465-2.052.658a17.16 17.16 0 0 1-7.978 1.24c-1.704-.194-3.291-.814-4.841-1.549-.58-.271-1.084-.697-1.742-.775z"/><path fill="#CF1126" d="M221.889 184.372c-.852-.116-1.432.852-1.278 1.588.117.697.698 1.162 1.201 1.549a11.62 11.62 0 0 0 7.203 2.053h.62a10.85 10.85 0 0 0 4.647-1.085c.968-.387 2.091-.89 2.44-2.013.154-.504.232-1.24-.349-1.549-.62-.31-1.201.193-1.743.387a13.16 13.16 0 0 1-6.002 1.51 10.46 10.46 0 0 1-5.073-1.549c-.581-.271-1.046-.774-1.666-.891"/><path fill="#CF1126" d="M207.638 127.483c-1.239 1.278-.271 3.602-.387 5.228.697 5.112 1.51 10.263 3.408 15.104 2.323 4.647 7.28 7.164 10.262 11.308 1.085 1.975.697 4.376.93 6.583.155 5.925.116 11.889 0 17.814 2.711 1.394 5.615 2.711 8.713 2.207 1.82-.426 5.228-.697 5.615-2.517l-.387-30.787c-1.046-3.137-4.26-4.763-6.622-6.777a60 60 0 0 1-5.499-6.235c-1.007-1.743-4.996-2.324-3.563.62.852 2.594 2.982 4.492 3.524 7.203.116 1.51 1.936 4.26.387 5.112a9.5 9.5 0 0 0-4.143-3.873c-1.704-1.278-4.531-1.82-5.151-4.066a16.6 16.6 0 0 0-4.26-8.52c.581-2.866 0-6.467-2.478-8.326z"/><path fill="#CF1126" d="M211.472 128.064c-1.162.194-1.084 1.627-.581 2.401a10.5 10.5 0 0 1 .426 5.19 17.1 17.1 0 0 1 4.105 8.403c0 1.162 1.239 1.549 2.053 2.13 1.897 1.201 3.988 2.091 5.692 3.602.349.387.62.774.388 0-.272-1.007-.388-2.091-1.162-2.827-1.085-1.162-2.401-2.169-3.95-2.479-.116-1.626-.891-3.098-1.588-4.492-.775-1.355-1.588-2.788-2.905-3.64 0-2.362.001-4.841-1.006-7.048-.31-.542-.775-1.201-1.472-1.24"/><path fill="#CF1126" d="M214.686 128.994c-.774.232-.619 1.239-.387 1.82.338 1.681.468 3.398.387 5.112 1.511 1.161 2.401 2.865 3.253 4.492.542 1.084 1.007 2.246 1.201 3.446 1.2.388 2.246 1.162 3.175 1.937-.387-1.085-1.161-1.937-1.742-2.982s-1.162-2.169-1.433-3.369c-1.162-1.201-1.782-2.943-1.549-4.647.077-1.821-.504-3.718-1.743-5.112-.31-.31-.697-.659-1.162-.697"/><path fill="#CF1126" d="M218.365 129.536c-.464.078-.697.465-.929.813-.116.349.31.697.387 1.085a8.44 8.44 0 0 1 .542 4.027c-.038.968.31 1.937.775 2.711a1.51 1.51 0 0 1 1.355-1.084c.194 0 .542.077.388-.271-.155-1.859-.426-3.718-1.085-5.422a3.7 3.7 0 0 0-1.084-1.743.43.43 0 0 0-.387-.116zM380.55 192.234c.968-.155 2.053.813 1.665 1.82-.697 1.007-1.936 1.549-3.02 2.014a21 21 0 0 1-8.985 1.394c-2.245 0-4.473-.393-6.583-1.162-1.162-.387-2.634-.775-3.098-2.091-.504-.814.387-1.666 1.2-1.511 1.162.271 2.324.775 3.486 1.123 2.553.723 5.215.986 7.861.775a21 21 0 0 0 5.577-1.627c.619-.271 1.2-.658 1.897-.735"/><path fill="#CF1126" d="M379.466 188.206c.968-.155 1.82 1.007 1.433 1.937-.774 1.084-2.052 1.665-3.253 2.168a16.4 16.4 0 0 1-6.583 1.123h-.581a14.6 14.6 0 0 1-5.577-1.084c-1.045-.426-2.362-.852-2.827-2.014-.348-.658-.077-1.587.775-1.665.697 0 1.355.465 2.052.658a17.16 17.16 0 0 0 7.978 1.24c1.704-.194 3.291-.814 4.841-1.549.58-.271 1.084-.697 1.742-.775z"/><path fill="#CF1126" d="M378.111 184.372c.852-.116 1.432.852 1.278 1.588-.117.697-.698 1.162-1.201 1.549a11.62 11.62 0 0 1-7.203 2.053h-.62a10.85 10.85 0 0 1-4.647-1.085c-.968-.387-2.091-.89-2.44-2.013-.154-.504-.232-1.24.349-1.549.62-.31 1.201.193 1.743.387a13.16 13.16 0 0 0 6.002 1.51 10.46 10.46 0 0 0 5.073-1.549c.581-.271 1.046-.774 1.666-.891"/><path fill="#CF1126" d="M392.362 127.483c1.239 1.278.271 3.602.387 5.228-.697 5.112-1.51 10.263-3.408 15.104-2.323 4.647-7.28 7.164-10.262 11.308-1.085 1.975-.697 4.376-.93 6.583-.155 5.925-.116 11.889 0 17.814-2.711 1.394-5.615 2.711-8.713 2.207-1.82-.426-5.228-.697-5.615-2.517l.387-30.787c1.046-3.137 4.26-4.763 6.622-6.777a60 60 0 0 0 5.499-6.235c1.007-1.743 4.996-2.324 3.563.62-.852 2.594-2.982 4.492-3.524 7.203-.116 1.51-1.936 4.26-.387 5.112a9.5 9.5 0 0 1 4.143-3.873c1.704-1.278 4.531-1.82 5.151-4.066a16.6 16.6 0 0 1 4.26-8.52c-.581-2.866 0-6.467 2.478-8.326z"/><path fill="#CF1126" d="M388.528 128.064c1.162.194 1.084 1.627.581 2.401a10.5 10.5 0 0 0-.426 5.19 17.1 17.1 0 0 0-4.105 8.403c0 1.162-1.239 1.549-2.053 2.13-1.897 1.201-3.988 2.091-5.692 3.602-.349.387-.62.774-.388 0 .272-1.007.388-2.091 1.162-2.827 1.085-1.162 2.401-2.169 3.95-2.479.116-1.626.891-3.098 1.588-4.492.775-1.355 1.588-2.788 2.905-3.64 0-2.362-.001-4.841 1.006-7.048.31-.542.775-1.201 1.472-1.24"/><path fill="#CF1126" d="M385.314 128.994c.774.232.619 1.239.387 1.82a21 21 0 0 0-.387 5.112c-1.511 1.161-2.401 2.865-3.253 4.492-.542 1.084-1.007 2.246-1.201 3.446-1.2.388-2.246 1.162-3.175 1.937.387-1.085 1.161-1.937 1.742-2.982s1.162-2.169 1.433-3.369c1.162-1.201 1.782-2.943 1.549-4.647-.077-1.821.504-3.718 1.743-5.112.31-.31.697-.659 1.162-.697"/><path fill="#CF1126" d="M381.635 129.536c.464.078.697.465.929.813.116.349-.31.697-.387 1.085a8.44 8.44 0 0 0-.542 4.027c.038.968-.31 1.937-.775 2.711a1.51 1.51 0 0 0-1.355-1.084c-.194 0-.542.077-.388-.271.155-1.859.426-3.718 1.085-5.422a3.7 3.7 0 0 1 1.084-1.743.43.43 0 0 1 .387-.116zM298.334 194.596a13.79 13.79 0 0 1-11.579-9.295c.117-.852 1.162.465 1.666.581a7.36 7.36 0 0 0 3.098 1.007c1.355.581 2.207 1.936 3.524 2.672.619.465 2.788 1.394 2.362-.116-.503-.775-.852-1.781-.387-2.711.697-1.588 1.82-2.982 2.982-4.337.813-.271 1.394 1.394 1.975 1.936.813 1.278 1.82 2.827 1.316 4.376-.464.581-.774 2.324.504 1.782 1.549-.698 2.827-1.859 4.105-2.944 1.162-.774 2.594-.813 3.756-1.549.581-.116 1.704-1.2 1.937-.619a17.4 17.4 0 0 1-2.866 4.763 12.43 12.43 0 0 1-7.281 4.221q-2.556.464-5.112.233"/><path fill="#CF1126" d="M304.453 188.477c.117-1.046-.116-2.091-.658-3.098-.813-1.627-1.936-3.098-3.098-4.608-1.084-.62-1.665 1.432-2.362 2.013-1.123 1.666-2.518 3.369-2.595 5.422-.62.968-1.781-.775-2.285-1.355a7.36 7.36 0 0 1-1.549-4.648 19.7 19.7 0 0 1 1.394-7.977c.775-2.169 1.975-4.26 1.859-6.584.078-1.82-.271-3.756-1.704-4.957-1.394-1.084.891-1.316 1.588-.774 1.239.116 1.898 2.13 3.021 1.626.426-1.045.542-2.323 1.471-3.136.891-1.24 1.82.503 2.13 1.355.658.697 0 2.517 1.007 2.556 1.239-.891 2.13-2.324 3.718-2.672.658-.387 1.742 0 .89.697-1.161 1.123-2.168 2.478-2.401 4.144-.348 2.052.155 4.143 1.046 5.963 1.743 3.641 3.098 7.746 2.207 11.812-.387 1.781-1.626 3.33-3.098 4.376-.193.116-.503.116-.581-.155"/><path fill="#CF1126" d="M302.595 161.136a8.2 8.2 0 0 0-2.169-2.71c-.929 0-1.51 1.161-2.13 1.781-.426.813-.968 2.169-2.052 1.123-1.743-1.007-2.014-3.214-2.014-5.034-.116-2.944 1.084-5.693 2.13-8.365.658-1.665.503-3.563.077-5.267-.503-1.936-2.091-3.33-3.291-4.879.077-.581 1.626-.272 2.207-.155 1.317.348 2.091 1.471 3.059 2.323.697-.232.388-1.626.736-2.285 0-.929 1.239-2.13 1.743-.813.774.852 0 2.517.968 3.021.929-.349 1.394-1.356 2.246-1.82a3.1 3.1 0 0 1 3.021-.194c.348.852-1.007 1.549-1.395 2.324a7.9 7.9 0 0 0-1.471 6.97c.542 1.937 1.472 3.679 1.82 5.616.418 2.208.352 4.48-.194 6.66-.348 1.317-1.471 2.169-2.633 2.711-.31-.271-.465-.658-.658-1.007"/><path fill="#CF1126" d="M296.747 136.855c-1.317-.968-1.743-1.859-1.743-3.679 0-.891.194-1.394.775-2.246.929-1.239.775-1.627-.503-1.278-2.053.581-3.021.077-3.099-1.665 0-.852.155-1.201 1.278-2.595.93-1.084 1.278-1.665 1.085-1.859-.194-.155-1.278.775-3.486 3.021a48 48 0 0 1-4.414 4.105c-3.796 2.556-7.436 2.943-9.101.968-.852-1.007-.813-1.549.155-2.169a10.6 10.6 0 0 0 1.704-1.432 33.3 33.3 0 0 1 6.235-4.493c1.394-.697 1.704-1.161.813-1.161-1.162 0-4.841 2.401-7.668 4.956-.813.775-2.014 1.627-2.633 1.937a9.84 9.84 0 0 1-5.383.387c-.852-.271-2.44-1.743-2.44-2.285 0-.116.387-.426.775-.697a11.6 11.6 0 0 0 1.781-1.239c2.246-1.936 6.506-3.989 9.875-4.725 1.085-.193.659-.774-.542-.697a21.7 21.7 0 0 0-9.681 4.531c-3.215 2.672-8.055 2.401-9.605-.503-.271-.504-.464-.968-.387-1.046a36 36 0 0 0 7.9-3.02 20 20 0 0 1 7.01-2.518c1.084-.193 1.162-.735.116-.852-1.394-.155-3.485.543-7.164 2.324-4.764 2.362-6.119 2.788-8.598 2.633-2.323-.155-3.601-.736-5.421-2.478-1.239-1.162-2.943-4.066-2.634-4.415a24.6 24.6 0 0 0 6.119.503c3.214 0 4.105-.077 5.809-.58a32.6 32.6 0 0 0 9.294-4.686 22.27 22.27 0 0 1 14.252-5.267c4.802 0 7.822 1.084 10.533 3.834.929.929 1.704 1.51 1.82 1.394s.233-1.743.271-3.602c0 0 1.433-.154 1.743.272 0 2.981 0 3.253.465 3.253.271 0 .581-.31.774-.775.387-.968 1.936-2.324 3.563-3.176 3.485-1.742 9.565-1.82 14.445-.116a24.2 24.2 0 0 1 6.467 3.679 35 35 0 0 0 9.294 4.647c2.634.775 7.358.969 9.721.388q1.036-.24 2.091-.388c.89 0-.62 2.944-2.401 4.686-3.253 3.176-7.474 3.137-13.399-.038-3.718-2.014-8.133-3.099-8.133-2.014 0 .232.232.387.581.387 1.278 0 3.756.852 7.242 2.517a20.8 20.8 0 0 0 7.087 2.517c.89 0 .929.581.077 1.821-.891 1.316-2.401 1.936-4.531 1.936-2.052 0-3.214-.426-5.034-1.936-3.098-2.556-10.689-5.422-10.418-3.873.078.271.426.465 1.24.581a21.7 21.7 0 0 1 8.945 4.26l2.285 1.665c.426.232.426.31.078.968-.543 1.084-2.014 1.898-3.563 2.053-2.014.232-3.795-.388-5.615-1.937-3.873-3.214-7.475-5.538-8.636-5.538-.969 0-.543.543 1.161 1.433a31 31 0 0 1 6.119 4.26c.775.736 1.665 1.433 1.936 1.588.736.387.698.929-.077 1.936s-2.091 1.472-3.756 1.278c-3.331-.348-5.964-1.936-10.069-6.196a27.4 27.4 0 0 0-3.176-3.021c-.542 0-.193.736.852 1.937 1.317 1.433 1.549 2.246 1.046 3.485-.426 1.007-1.162 1.278-2.634.852-1.549-.387-1.781 0-.774 1.201 1.471 1.897 1.278 4.143-.581 5.731-.384.37-.83.672-1.317.891-.155 0-.542-.388-.89-.93-1.162-1.781-2.208-1.781-3.37 0q-.368.594-.774 1.162a46 46 0 0 1-1.162-.852"/><path fill="#CF1126" d="m302.594 100.491-2.013 1.549-1.782-1.316v10.765h3.795z"/><path fill="#CF1126" d="M290.28 89.377a34.2 34.2 0 0 1-3.486 12.508l4.299-3.989 2.982 3.563 3.253-3.64 3.292 3.098 3.175-3.214 3.292 3.872 2.866-3.175 4.879 3.485c-1.781-3.872-4.144-7.203-3.872-12.702-4.686 3.485-15.878 4.105-20.68.155z"/><path fill="#CF1126" d="M298.838 86.782c-1.742 0-3.562.04-5.189.388a7.8 7.8 0 0 0-3.021 1.161c.117 3.33 15.878 4.686 20.099.078a7.75 7.75 0 0 0-3.175-1.278c-1.549-.31-3.331-.31-4.996-.387v2.75h-3.718z"/><path fill="#CF1126" d="M301.897 69.898h-2.439v19.13h2.478z"/><path fill="#CF1126" d="m301.898 70.362-.93 9.178 9.411 4.609-4.764-6.39 6.506-2.13zM300.852 68c-1.433 0-2.478.542-2.478 1.162s1.045 1.162 2.478 1.162 2.478-.543 2.478-1.162c0-.62-1.045-1.162-2.478-1.162"/><path fill="#F7E017" d="M296.513 228.616c1.568-.523 2.44-1.453 3.079-3.253.29-.93.523-1.859.464-2.091-.116-.581-.813-.581-1.51.058-.523.406-.581.639-.465 1.51.407 2.149-.406 2.73-4.472 3.137-.407 0-1.627 0-2.614-.175-1.975-.232-2.672 0-1.975.581.375.24.787.417 1.219.523 1.104.291 5.112.116 6.274-.29m8.539-.349c.232-.232.988-.581 1.743-.871.987-.291 1.51-.581 1.917-1.278 1.22-1.743.987-3.311-.755-5.402-.988-1.162-1.395-1.104-2.15.174-.697 1.045-.639 1.162.291 1.394.523.116.987.465 1.22.929 1.045 1.801.755 2.905-.814 2.905-1.394 0-1.742.232-2.149 1.162l-.348 1.103c0 .349.58.291 1.045-.116m-2.788-2.033c.232-.755.348-2.033.29-4.647a19 19 0 0 0-.174-3.718c-.232-.232-1.336.465-1.51.988-.058.428.045.863.29 1.22.349.697.407 1.394.291 4.066-.175 3.485.058 4.066.813 2.091"/><path fill="#F7E017" d="m295.7 224.607.407-2.904c.058-.988.29-2.207.406-2.73.407-1.336 0-1.685-1.045-.93l-.756.581.117 1.917c.174 1.743-.117 4.938-.523 6.216-.116.348.058.232.523-.291.348-.406.755-1.278.871-1.917zm-5.809.93c1.394-1.162 1.22-3.253 1.568-4.88 0-1.103.698-2.381.233-3.369-1.336.233-2.149 1.511-1.452 2.73 0 1.453 0 3.021-.756 4.299-.58.871-2.555.639-2.439-.581.464-1.743-1.685-.871-2.498-.407-.639.465-2.033.523-1.51-.58-.349-1.569-2.266-.581-3.311-.581-.988 0-.059-2.033-1.511-1.743-2.614-.174-5.518.058-7.842-1.51-1.336-.639-1.162-2.266-.406-3.311.813-1.394 1.045-3.195 2.323-4.299 1.336-1.22-1.162-.697-1.743-.29-1.277.697-.116 2.497-1.161 3.485-.581 1.046-1.394 2.44-2.789 2.265-2.033-.406-3.194-2.323-4.647-3.485-1.278-.29-.581 1.975.117 2.44a12.7 12.7 0 0 0 4.298 2.091c1.51-.29 1.569 1.743 2.905 2.033 2.323 1.162 4.995 1.452 7.609 1.627 1.046.058.465 1.917 1.801 1.51.755.232 2.498-.291 2.556.581-1.162 1.394 1.104 1.336 1.917 1.162 1.103-.233 2.44-.581 2.73.813.871.987 2.498.813 3.601.29z"/><path fill="#F7E017" d="M266.772 213.803a14 14 0 0 0 1.394-2.44 9.3 9.3 0 0 1 1.162-2.091c.697-.697.29-1.162-.813-.93-.581.117-.814.349-.872.872a13.4 13.4 0 0 1-1.452 4.066c-.988 1.452-.988 1.51-.581 1.51.174 0 .697-.464 1.162-.987m-14.522-9.12c-1.104 0-1.162.697-.117 1.045.581.175.988.581 1.337 1.336.987 2.034 1.626 2.44 4.356 2.673l1.743.116.116 1.103c0 .581.174 1.046.29 1.046l1.511-.581c1.278-.697 2.498-2.207 2.498-3.195 0-.581-1.046-1.278-1.975-1.278-.407 0-1.162.349-1.801.814-1.975 1.394-4.066 1.161-5.228-.698-.871-1.51-1.859-2.323-2.73-2.323zm9.468 3.776c.523 0 .581.406.349 1.161a.524.524 0 0 1-.988 0c-.232-.58.058-1.161.581-1.161zm73.483-2.324c-.756 0-.93.116-1.395.813-.755 1.104-.813 3.486-.116 4.299.407.523.465.523 1.336.116 1.278-.523 1.511-.465 1.453.174 0 1.743-2.44 5.054-4.996 6.797a5.6 5.6 0 0 0-1.394 1.162c-.174.464.755.406 1.917-.233a12.2 12.2 0 0 0 4.589-4.647c.639-1.336.755-1.743.871-4.066 0-2.208 0-2.905-.348-3.602-.465-.813-.581-.871-1.627-.871h-.29zm.058 1.452c.581 0 .581.116.697.93 0 .581-.058.987-.407 1.336-.465.406-.581.406-.929-.233-.581-.929-.233-2.033.639-2.033m-11.734 16.556c2.265-1.162 3.601-2.382 4.414-4.183q.454-.868.756-1.801c0-.348-1.104-.871-1.743-.871s-.813-.465-.581-1.743c.291-1.219 0-2.788-.581-2.788-.174 0-.581.291-.755.639-.348.581-.407.813-.116 1.569.406 1.161.058 2.091-.988 2.846-.522.348-.755.755-.755 1.162l.058.581 1.22-.581 1.162-.697.639.581c.407.232.697.697.697.987 0 1.394-3.95 3.718-6.622 3.95-1.452.116-1.743 0-2.208-.465-.406-.406-.522-.755-.406-1.161l.29-1.511c.233-1.22-.232-1.045-1.161.349-.698 1.162-.93 2.381-.523 3.02.348.581 2.556 1.046 4.182.93.988 0 1.975-.291 3.021-.813m15.103-8.423c1.394-1.452 2.033-3.195 2.033-5.809v-2.033l1.162-.581c1.568-.697 3.02-2.149 3.02-2.963 0-.813-.406-.813-1.045.116-.523.639-1.162 1.046-3.486 2.15-.58.232-.639.406-.813 2.904-.116 2.905-.581 3.95-2.149 5.925-.988 1.162-1.046 1.394-.349 1.394.291 0 1.046-.522 1.627-1.161zm-15.51-1.627c.116-.406-.697-.697-.987-.348a.38.38 0 0 0-.117.523c.233.348.93.232 1.104-.175m21.377-5.518c.174-.465-.639-.755-.988-.407-.116.174-.174.407-.058.581.233.349.93.232 1.046-.174m-25.734-15.045c-.58.29-.871.871-1.219 1.336-.291.174-.059.348.058.581.987.987 1.394 2.439 1.859 3.775.464 1.569 1.045 3.253.58 4.88-.174.581-.697 1.22-1.394 1.046-1.162-.059-2.323-.407-3.485-.407-1.104.058-1.917 1.046-2.963.929-.697 0-.697-1.394-1.278-.987-.348.755-.174 1.568-.232 2.323.116.175.465.058.639.117h2.149c.117.697.117 1.568.581 2.149.755.232 1.627 0 2.324-.291.697-.348.813-1.219 1.045-1.917.233-.755 1.162-.58 1.743-.871a3.31 3.31 0 0 0 2.324-3.311c-.117-2.265-.93-4.298-1.627-6.39-.29-.929-.523-1.917-.871-2.846zm-3.485 12.663c.755 0 1.104.93.93 1.569-.291.871-1.395.348-1.569-.291-.406-.581-.174-1.336.581-1.278z"/><path fill="#F7E017" d="M286.057 198.932c-.348 0-.755.116-1.162.407-2.033 1.452-2.614 3.137-1.161 3.834.987.464.755 1.045-.872 1.858-2.323 1.162-4.356.988-8.248-.58-.93-.407-1.162-.233-.988.58.233.872 1.046 1.337 2.963 1.743 2.091.581 4.647.407 6.273-.29a8.1 8.1 0 0 0 2.498-1.975l1.278-1.336 1.452.174c1.801.232 1.859.232 1.859 1.104 0 .697 0 .697 1.685.871l2.73.116c.755 0 1.162.174 1.394.523.349.407.523.465 3.253.232 2.556-.232 3.021-.232 4.182.175.814.232 1.743.348 2.382.29 1.975-.232 4.647-1.801 5.054-2.963 0-.174.755-.406 1.568-.58 1.975-.407 2.033-.814.233-1.046a13.3 13.3 0 0 1-2.673-.639 7.1 7.1 0 0 0-2.033-.523c-.987 0-1.917.581-1.917 1.278 0 .407.117.465 1.336.349 1.046-.117 1.395-.058 1.976.406.406.291.638.639.58.755-.29.465-2.614 1.511-3.601 1.685a2.73 2.73 0 0 1-1.743-.29c-.929-.465-2.207-.523-2.498-.117-.116.175-.348.058-.755-.29l-.581-.581-1.394.581c-1.394.581-1.917.581-1.917-.116 0-.291-.406-.349-2.439-.175-2.266.117-2.498.059-2.905-.406-.407-.407-.407-.581-.116-.988.232-.464.232-.581 0-.871-.232-.232-.581-.232-1.452 0-2.266.581-2.905.29-2.905-1.452 0-1.104-.581-1.743-1.336-1.743m-.581 1.627c.117 0 .233.058.407.232s.29.581.174.755c-.174.523-1.162.523-1.336 0-.116-.29 0-.581.291-.755z"/><path fill="#F7E017" d="M281.41 202.185c1.394-.871 1.394-.813 1.569-3.195.116-1.742.116-1.859-.349-1.859-.697 0-1.046.756-1.046 2.15 0 .929-.116 1.336-.58 1.742-1.162 1.162-3.95.639-4.357-.755-.116-.464.058-.929.639-1.742 1.22-1.743.987-2.208-.581-.872-.987.93-1.162.93-.987.175s-.175-1.046-1.046-.814c-.407.116-.697.349-.755.93-.116.464-.349.755-.755.871-.697.174-1.859-.465-1.859-1.046 0-.406 1.742-2.555 4.008-4.879.813-.871 1.51-1.743 1.51-1.801 0-.116-.465-.232-.987-.232-.814 0-1.046.116-1.046.465 0 .232-1.104 1.742-2.498 3.311-2.904 3.253-3.137 3.892-1.742 4.763a3.49 3.49 0 0 0 3.833-.116l.93-.639v1.162c0 1.452.29 2.033 1.452 2.614a4.65 4.65 0 0 0 4.647-.233m60.645-20.099c-1.046.639-.232 1.975 0 2.905-.465 1.162-2.033 1.51-3.195 1.743-1.626.29-2.788 1.626-3.369 3.078-.349.93-1.162 2.324-2.033.93-.755-.755-2.149-1.394-3.021-.465-.697.639-.871 1.568-1.162 2.44-.406-.639-.58-1.627-1.394-1.859-1.394.174-.871 1.917-.232 2.614.581.871 1.162 1.917.581 2.904-.581 1.162-2.324 1.975-3.311.988-.93-.523-.291-2.324-1.278-2.44-.465.349-.465 2.266-1.22 1.22-.581-.871-.232-2.091-.929-2.846-.756.116-1.395 1.452-1.162 2.149 1.045 1.394 1.51 3.137 1.917 4.821.232.697-.058 2.033.581 2.324.406-1.104 0-2.324.348-3.427 1.046-.117 2.149.348 3.195.116 1.568-.175 2.73-1.511 3.253-2.847.174-1.045 0-2.091-.058-3.136 1.162.232 2.44.232 3.601.58.581.872-.174 2.15-.348 3.079-.581 1.975-2.149 3.369-3.602 4.647-.639.407-.697 1.394.175.872a8.71 8.71 0 0 0 4.356-4.647c.639-1.511.117-3.195.581-4.706.581-1.161 2.033-.929 3.137-.929s2.033-1.336 1.685-2.44c-.349-1.278.987-1.859 1.858-2.323 1.22-.581 2.15-1.801 2.034-3.195 0-.755 0-2.091-.988-2.15m-4.24 7.262c1.277.348-.233 2.788-.93 1.219-.232-.58.291-1.219.93-1.219m-5.984 1.742c1.685-.058 1.046 2.324-.348 1.278-.755-.406-.523-1.278.348-1.278m-60.877 9.469c0-.233-.116-.407-.348-.407-.407 0-.697.407-.523.755.232.407.755.175.871-.348m19.75-2.092c0-.406-.174-.522-.464-.464-.639.116-.755.987-.058.987.348 0 .522-.174.522-.581zm-24.397-11.85c-.755-.174-1.278.523-1.568 1.162-.581.988-1.278 1.975-2.324 2.498-.755.232-1.568-.058-2.265-.465-.755-.406-.581-1.336-.93-1.975-.581-.464-1.568.175-1.51.872-.058.929.755 1.452 1.51 1.8.581.407 1.511.581 1.743 1.336 0 .639.232 1.395.987 1.162.872 0 1.162 1.046.756 1.685a3.65 3.65 0 0 0-.407 2.323c.407.407.813-.581 1.162-.813l.581-.813c1.568.058 3.078.29 4.647.232 1.162 0 2.033-.697 2.73-1.51 1.046-1.046 1.859-2.266 2.962-3.137.814-.232.407-1.743-.464-1.278-.755.291-.988 1.162-1.511 1.685a18 18 0 0 1-2.904 3.02c-.871.349-1.801.175-2.672 0-.349-.29.697-.581.871-.929.465-.465 1.046-.93 1.336-1.569-.29-.58-1.103-.58-1.684-.58-1.394.116-2.498 1.336-3.95 1.452-1.104 0-.523-1.162 0-1.569.929-1.161 1.975-2.207 2.962-3.311.291-.348 1.336-.697.697-1.161-.232-.117-.523-.117-.755-.117m.697 5.809c.755.407-.465 1.046-.929.988-.639.174-.697-.465-.116-.581.348-.232.697-.407 1.045-.407m-2.207 1.511c.406 0 1.278.406.465.639-.581.464-1.162-.465-.465-.639"/><path fill="#F7E017" d="M282.223 194.866c0-.581-.929-.465-1.045.116-.117.349 0 .407.464.349.349 0 .581-.233.581-.465m43.393-3.834c.116-.523-.581-.871-.988-.465-.406.349 0 1.104.465.988.232 0 .465-.291.581-.523zm-67.442-5.286c.639-.581.698-.639.407-1.917-.465-1.801-.407-2.033.291-2.207.871-.175 3.078.987 3.485 1.917.465.755.406.813-.232 1.394-.698.639-.698 1.394 0 1.394.58 0 2.149-1.51 2.149-2.033 0-.755-1.743-2.556-3.137-3.195a6.2 6.2 0 0 0-2.672-.581c-1.801 0-2.033.407-1.568 2.44.58 2.439-.175 2.788-2.15.929a6.04 6.04 0 0 1-2.033-4.995c0-2.324.93-3.544 2.963-3.834 1.394-.175 1.336-.523 0-.697-2.092-.349-3.834 1.045-4.473 3.485-.755 2.73.929 6.041 3.892 7.726 1.568.871 2.149.929 3.078.174m80.86-3.021c.174-.116.291-.522.291-.813s.29-.929.639-1.394c.348-.465.58-.929.58-1.046 0-.464-.755-.464-1.336 0-.639.523-1.161.581-1.161 0l.697-.522c.929-.407.987-.872.232-1.22-.987-.465-2.033.348-2.091 1.742-.058.93 0 1.046.697 1.453.639.406.755.581.639 1.161-.174.93.232 1.278.813.639m7.552-.813c.581-.581 1.045-1.104 1.045-1.278s.523-.697 1.104-1.162c1.627-1.161 2.033-2.323 1.278-4.24-.29-.755-1.162-1.743-3.195-3.485a15 15 0 0 0-3.137-2.556c-.522 0-.406 1.975.116 2.149.988.349 1.627.755 3.137 2.149 1.859 1.627 2.672 3.195 2.208 4.067-.407.813-.988.58-2.614-1.162a8 8 0 0 0-1.859-1.685c-.174 0-.291.349-.291.813 0 .581.291 1.162 1.162 2.034 1.336 1.51 1.452 2.381.407 3.194a2.9 2.9 0 0 1-.813.581 19.3 19.3 0 0 0-5.228-5.809c-.175 0-.291.233-.291.814 0 .755.116.987.697 1.278a22 22 0 0 1 4.066 4.066l1.046 1.162a5.3 5.3 0 0 0 1.162-.988zm3.485-9.759c-.29-.697-4.879-5.46-5.402-5.46-.233 0-.291.29-.233 1.045 0 .93.175 1.046.814 1.22a11.6 11.6 0 0 1 2.672 2.15 9.9 9.9 0 0 0 2.149 1.742zm-27.766 53.791a.5.5 0 0 1 .018.267.54.54 0 0 1-.128.246.7.7 0 0 1-.246.172.82.82 0 0 1-.625 0 .7.7 0 0 1-.246-.172.54.54 0 0 1-.128-.246.5.5 0 0 1 .019-.267.5.5 0 0 1-.019-.268.54.54 0 0 1 .128-.246.7.7 0 0 1 .246-.172.82.82 0 0 1 .625 0c.097.041.182.1.246.172a.54.54 0 0 1 .128.246.5.5 0 0 1-.018.268m2.439-.814a.5.5 0 0 1-.053.223.6.6 0 0 1-.151.188.7.7 0 0 1-.226.126.83.83 0 0 1-.534 0 .7.7 0 0 1-.226-.126.6.6 0 0 1-.151-.188.5.5 0 0 1 0-.445.6.6 0 0 1 .151-.188.7.7 0 0 1 .226-.126.8.8 0 0 1 .76.126.6.6 0 0 1 .151.188q.053.106.053.222"/></g><defs><clipPath id="a"><path fill="#fff" d="M0 0h600v300H0z"/></clipPath></defs></svg>