<svg xmlns="http://www.w3.org/2000/svg" width="600" height="300" fill="none"><g clip-path="url(#a)"><path fill="#fff" d="M0 0h600v300H0z"/><path fill="#18B637" fill-rule="evenodd" d="m0 0 300 150L0 300zm600 0L300 150l300 150z" clip-rule="evenodd"/><path fill="#CF0921" fill-rule="evenodd" d="m0 0 300 150L600 0zm0 300 300-150 300 150z" clip-rule="evenodd"/><path fill="#fff" fill-rule="evenodd" d="M600 0h-55.9L0 272.051V300h55.9L600 27.95z" clip-rule="evenodd"/><path fill="#fff" fill-rule="evenodd" d="M395 149.984a95.02 95.02 0 0 1-27.825 67.186 94.99 94.99 0 0 1-134.35 0A95.02 95.02 0 0 1 205 149.984a95 95 0 0 1 27.815-67.164 94.959 94.959 0 0 1 134.305 0 95 95 0 0 1 27.816 67.164z" clip-rule="evenodd"/><path fill="#fff" fill-rule="evenodd" d="M0 0v27.95L544.1 300H600v-27.949L55.9 0z" clip-rule="evenodd"/><path fill="#CF0921" fill-rule="evenodd" stroke="#18B637" stroke-width="3.656" d="m317.731 114.678-12.05.188-6.243 10.267-6.181-10.267-11.987-.251 5.806-10.58-5.744-10.517 11.988-.25L299.563 83l6.181 10.33 11.987.25-5.806 10.518zm-40.332 69.867-11.987.188L259.168 195l-6.181-10.267-11.987-.251 5.806-10.58-5.744-10.517 11.988-.251 6.243-10.267 6.181 10.33 11.987.25-5.806 10.518zm81.539 0-11.988.188L340.707 195l-6.244-10.267-11.924-.251 5.806-10.58-5.806-10.517 11.987-.251 6.243-10.267 6.244 10.33 11.987.25-5.869 10.518z" clip-rule="evenodd"/></g><defs><clipPath id="a"><path fill="#fff" d="M0 0h600v300H0z"/></clipPath></defs></svg>