<svg xmlns="http://www.w3.org/2000/svg" width="600" height="300" fill="none"><g clip-path="url(#a)"><path fill="#081873" d="M0 0h600v300H0z"/><path fill="#081873" d="M0 0h600v300H0z"/><path fill="#fff" d="M0 137h600v91H0z"/><path fill="#DE3929" d="M0 166h600v32H0z"/><path fill="#FFCE08" fill-rule="evenodd" d="m175.038 232.039 4.163 12.808h13.496l-10.974 7.973 4.163 12.87-10.848-8.036-10.973 7.974 4.225-12.871-10.973-7.973h13.559M292.341 138.62l4.226 12.87H310l-10.974 7.911 4.163 12.87-10.974-7.973-10.973 7.973 4.162-12.87-10.973-7.911h13.622m-140.007 40.432 4.162 12.87h13.56l-10.911 8.036 4.226 12.808-10.974-7.911-10.973 7.911 4.162-12.808-10.974-7.973h13.56m148.457-16.575 4.226 12.808H310l-10.974 7.973 4.163 12.808-10.974-7.911-10.973 7.973 4.162-12.87-10.973-7.973h13.622M262.511 99.57l4.226 12.807h13.622l-10.974 7.974 4.163 12.87-10.974-7.973-10.973 7.973 4.225-12.87-11.036-7.974h13.622M217.734 84l4.226 12.87h13.559l-10.974 7.911 4.163 12.87-10.974-7.91-10.973 7.91 4.225-12.87-10.973-7.91h13.496m-40.678 1.82 4.225 12.87h13.56l-10.974 7.911 4.226 12.87-11.037-7.973-10.974 7.973 4.226-12.87-10.974-7.911h13.623m-21.947 27.122 4.162 12.87h13.622l-11.036 7.911 4.225 12.87-10.973-7.973-10.974 7.973 4.163-12.87L129 151.553h13.559m75.175 93.796 4.226 12.87h13.559l-10.974 7.911 4.226 12.87-11.037-7.973L206.761 279l4.225-12.87-10.973-7.911h13.496m51.84-26.18 4.162 12.808h13.56l-10.911 7.973 4.226 12.87-10.974-7.973-11.036 7.973 4.225-12.87-10.973-7.973h13.559" clip-rule="evenodd"/></g><defs><clipPath id="a"><path fill="#fff" d="M0 0h600v300H0z"/></clipPath></defs></svg>