<svg xmlns="http://www.w3.org/2000/svg" width="600" height="300" fill="none"><g clip-path="url(#a)"><path fill="#032EA1" d="M0 0h600v300H0z"/><path fill="#E00025" d="M0 75h600v150H0z"/><path fill="#fff" stroke="#000" stroke-linejoin="bevel" stroke-width=".821" d="M253.75 140.191h93.402v35.949H253.75z"/><path fill="#fff" stroke="#000" stroke-linejoin="bevel" stroke-width=".821" d="M342.392 159.971h2.872v13.543h-2.872zm-88.642-6.648h93.402v4.104H253.75zm0-5.745h93.402v3.775H253.75z"/><path fill="#fff" stroke="#000" stroke-linejoin="bevel" stroke-width=".739" d="M253.75 141.997h93.402v3.529H253.75z"/><path fill="#fff" stroke="#000" stroke-linejoin="bevel" stroke-width=".821" d="M278.373 159.971h2.955v13.543h-2.955zm40.217 0h2.955v13.543h-2.955zm-64.019 0h2.873v13.543h-2.873zm5.746 0h2.872v13.543h-2.872zm6.155 0h2.873v13.543h-2.873zm6.156 0h2.872v13.543h-2.872zm51.543 0h2.955v13.543h-2.955zm6.156 0h2.954v13.543h-2.954zm6.155 0h2.955v13.543h-2.955z"/><path fill="#fff" stroke="#000" stroke-width=".821" d="M217.227 177.946a7.63 7.63 0 0 0 3.611-4.35h158.487a7.64 7.64 0 0 0 3.612 4.35z"/><path fill="#fff" stroke="#000" stroke-width=".821" d="M298.071 85.447s-.082-3.365 1.888-3.447c1.888 0 1.806 3.447 1.806 3.447zm-10.259 44.731v-4.514c0-2.298-2.298-2.462-2.298-4.104 0 0-.329-2.462.328-3.611.903 3.283 2.462 2.708 2.462 1.313 0-1.149-.82-2.298-2.708-5.171-.657-.902-.246-3.775.574-4.842.329 2.462.739 3.693 1.806 3.693.657 0 1.149-.41 1.149-1.641 0-1.642-1.067-2.462-1.641-3.94a4.1 4.1 0 0 1 .902-4.35c.411 2.463.329 3.447 1.396 3.447 2.216-.738 0-3.939-.493-4.76-.492-.903.821-2.79.821-2.79.657 2.216.821 2.38 1.641 2.133.985-.246.821-1.641-.328-2.79-.739-.82-.656-1.888.164-2.709.821 1.56 1.806 1.478 1.888.493l-.657-3.611H307.1l-.739 3.529c-.164.985 1.149 1.23 1.97-.41.82.82.902 1.97.164 2.708-1.149 1.149-1.313 2.544-.329 2.79.821.247.985 0 1.642-2.133 0 0 1.231 1.231.821 2.79-.493.821-2.709 4.104-.493 4.76 1.067 0 .985-.984 1.396-3.447a4.101 4.101 0 0 1 .82 4.35c-.492 1.478-1.641 2.298-1.641 3.94 0 1.231.574 1.641 1.231 1.641 1.067 0 1.477-1.149 1.806-3.693.82 1.067 1.231 3.94.574 4.924-1.888 2.791-2.79 3.94-2.79 5.089 0 1.395 1.641 1.97 2.462-1.313.738 1.149.41 3.611.41 3.611 0 1.642-2.216 1.806-2.298 4.104v4.514zm5.909-37.754-.328-2.545h13.05l-.328 2.544zm.821-2.627-.164-2.052h11.08l-.246 2.052zm1.888-2.134-.246-2.134h7.386l-.082 2.134zm27.085 90.283c-1.642-.575-4.104-2.38-4.104-4.104v-19.944l2.134-2.791h-43.172l2.052 2.791v19.944c0 1.724-1.641 3.529-3.283 4.104z"/><path fill="#fff" stroke="#000" stroke-linejoin="bevel" stroke-width=".821" d="M285.924 159.971h2.955v13.543h-2.955zm24.951 0h2.954v13.543h-2.954z"/><path fill="#fff" stroke="#000" stroke-width=".821" d="M277.552 128.454v22.653h44.321v-22.653a3.45 3.45 0 0 0-2.134 2.298v9.685h-39.971v-9.685s-.492-1.641-2.298-2.298z"/><path fill="#fff" stroke="#000" stroke-width=".821" d="M315.799 177.946c-1.477-.575-4.596-2.38-4.596-4.104v-22.324c.329-1.231 1.97-1.97 3.037-2.791h-29.301c1.395.821 2.955 1.396 3.529 2.791v22.324c0 1.724-2.462 3.529-3.939 4.104z"/><path fill="#fff" stroke="#000" stroke-width=".821" d="M319.739 148.973v-16.086h-4.022v-1.56h-31.845v1.642h-4.103v16.004zm-10.177 28.973c-1.478-.575-3.529-2.38-3.529-4.104v-19.041l1.149-1.724h-14.528l1.231 1.642v19.123c0 1.724-2.133 3.529-3.529 4.104z"/><path fill="#fff" stroke="#000" stroke-width=".821" d="M296.184 153.077h7.386v24.869h-7.386z"/><path fill="#fff" stroke="#000" stroke-linejoin="bevel" stroke-width=".821" d="M307.428 147.578c0-1.641 4.76-1.723 7.223-3.119h-29.547c2.462 1.396 7.14 1.478 7.14 3.119l.985 3.201 12.311.492z"/><path fill="#fff" stroke="#000" stroke-width=".821" d="M313.173 130.178c0-4.022.164-5.499 1.395-5.499v12.64c-3.036 1.149-5.17 4.924-5.17 4.924h-19.042s-2.134-3.775-5.17-4.924v-12.722c1.477 0 1.477 1.642 1.477 5.499zm1.395-1.641c0-4.597 4.022-5.089 4.022-5.089v4.104c-1.559-.082-2.298 1.313-2.298 3.283 0 2.052 1.231 2.052 1.231 2.052v11.654h-2.955zM285.185 128.537c0-4.597-4.021-5.089-4.021-5.089v4.104c1.559-.082 2.298 1.313 2.298 3.283 0 2.052-1.231 2.052-1.231 2.052v11.654h2.954z"/><path stroke="#000" stroke-width=".657" d="M292.982 96.773h14.117m-15.758 4.433h17.236m-18.878 5.334h20.437m-22.16 6.484h24.212m-24.787 7.387h24.951"/><path stroke="#000" stroke-width=".821" d="M279.851 144.705h39.888m-27.249 0h14.774v5.417H292.49z"/><path fill="#fff" stroke="#000" stroke-width=".821" d="M290.685 132.558c2.462 2.955 2.134 7.961 2.134 10.916H307.1c0-2.955-.329-7.961 2.134-10.916zm7.961-33.65-1.97-1.068v-2.872c.821.246 1.642.328 1.806 1.641.246-1.887.82-1.723 1.559-2.462.821.739 1.231.575 1.56 2.462 0-1.313.984-1.395 1.723-1.641v2.872l-1.888.985z"/><path fill="#fff" stroke="#000" stroke-width=".821" d="m298.482 103.586-3.283-2.298v-2.545c1.231.247 2.462.41 2.626 1.806.328-2.052 1.067-3.037 2.216-3.858 1.067.821 1.806 1.806 2.216 3.858.082-1.395 1.395-1.56 2.462-1.806v2.627l-3.2 2.216z"/><path fill="#fff" stroke="#000" stroke-width=".821" d="m298.235 110.89-3.693-3.283v-3.857c1.313.328 2.791.492 2.955 2.544.41-2.872 1.231-4.432 2.462-5.581 1.313 1.149 2.134 2.709 2.626 5.581.165-2.052 1.642-2.216 2.955-2.544v3.857l-3.775 3.283zm6.895 4.35-3.283 4.679h-3.858l-3.365-4.679zm-12.476 7.798c1.642.902 2.298 2.79 2.463 6.237h9.52c.164-3.447.821-5.335 2.463-6.237z"/><path fill="#fff" stroke="#000" stroke-linejoin="bevel" stroke-width=".821" d="M307.264 115.158v-4.596a4.27 4.27 0 0 0-3.119 2.709c0-1.642-2.052-5.171-4.268-6.977-2.216 1.97-4.35 5.253-4.268 6.894-.41-1.231-1.477-2.216-3.119-2.626v4.678z"/><path fill="#fff" stroke="#000" stroke-linejoin="bevel" stroke-width=".821" d="M307.92 123.038v-4.597c-1.723.493-2.872 1.396-3.365 2.709 0-1.642-2.216-5.171-4.678-6.976-2.462 2.051-4.76 5.252-4.678 6.976-.411-1.231-1.642-2.216-3.366-2.709v4.679z"/><path fill="#fff" stroke="#000" stroke-linejoin="bevel" stroke-width=".821" d="M309.89 132.64v-5.417a7.9 7.9 0 0 0-4.186 3.119c0-2.873-3.283-7.387-5.827-8.782-2.626 1.477-5.827 6.074-5.827 8.782a7.96 7.96 0 0 0-4.268-3.119v5.417z"/><path fill="#fff" stroke="#000" stroke-linejoin="bevel" stroke-width=".821" d="M308.741 144.705v-5.581c-1.97.739-2.462 2.544-3.119 3.858.246-5.663-3.119-11.655-5.745-13.214-2.627 1.559-6.074 7.715-5.745 13.132-.657-1.149-1.232-3.037-3.119-3.776v5.499z"/><path fill="#fff" stroke="#000" stroke-width=".821" d="M307.427 153.077v-5.581c-2.051.492-2.133 1.231-2.79 2.462.246-3.365-2.134-7.222-4.76-8.7-2.627 1.478-4.925 5.335-4.761 8.7-.656-1.231-.738-1.97-2.79-2.462v5.581zM220.921 173.596v-16.743c-.575-2.134-2.462-4.104-3.775-4.433v-14.773l3.036 1.641 3.53 15.513v18.877z"/><path fill="#fff" stroke="#000" stroke-width=".821" d="M220.921 173.678v-16.825c-.575-2.134-2.462-4.104-3.775-4.432v-15.759c2.051 0 3.036 2.627 3.036 2.627l3.53 15.512v18.795z"/><path fill="#fff" stroke="#000" stroke-width=".821" d="M218.705 177.946c1.395-.575 3.447-2.38 3.447-4.104v-21.011l-.985-1.642h35.867l-1.395 1.642v21.011a4.92 4.92 0 0 0 2.79 4.104z"/><path fill="#fff" stroke="#000" stroke-width=".821" d="M251.125 177.946c-1.395-.575-3.447-2.38-3.447-4.104v-19.944l2.954-2.791h-24.294l2.955 2.791v19.944c0 1.724-2.052 3.529-3.447 4.104z"/><path fill="#fff" stroke="#000" stroke-width=".821" d="M247.759 177.946c-1.395-.575-3.529-2.38-3.529-4.104v-18.056l1.97-2.709h-15.43l1.97 2.709v18.056c0 1.724-2.052 3.529-3.53 4.104z"/><path fill="#fff" stroke="#000" stroke-width=".821" d="M234.874 153.077h7.304v24.951h-7.386z"/><path fill="#fff" d="M224.778 159.972h2.955v13.542h-2.955zm25.279 0h2.873v13.542h-2.955zm-27.823-22.817h3.611v13.953h-3.611zm0-2.627h3.529v2.627h-3.529zm29.219 5.664h5.006v10.669h-5.006z"/><path stroke="#000" stroke-linejoin="bevel" stroke-width=".821" d="M222.234 137.155h3.611v13.953h-3.611zm0 0h3.529v-2.627h-3.529zm2.544 22.817h2.955v13.542h-2.955zm25.279 0h2.873v13.542h-2.955zm1.396-19.78h5.006v10.669h-5.006z"/><path fill="#fff" stroke="#000" stroke-width=".821" d="M225.764 150.943v-23.801c.985 0 1.149 3.529 3.447 3.529 1.231 0 1.149-1.478.41-2.627-.574-1.067-1.313-2.462-.328-5.17.739 2.052 2.544 2.708 2.216 1.477-.574-2.216-2.298-2.626-.985-5.991.41 2.79 2.216 2.708 1.806 1.066-.493-1.887-1.56-2.708-.246-5.334.738 3.036 1.641 2.872 1.641.985 0-2.791 0-5.746 3.447-6.813 0 0 .246-2.462 1.56-2.462 1.231 0 1.477 2.462 1.477 2.462 3.529 1.067 3.447 4.104 3.447 6.813 0 1.887.903 2.051 1.642-.985 1.313 2.626.246 3.447-.247 5.334-.41 1.642 1.396 1.724 1.806-1.066 1.313 3.365-.41 3.775-.985 5.991-.328 1.231 1.478.575 2.216-1.477.985 2.708.246 4.103-.328 5.17-.657 1.149-.821 2.627.41 2.627 2.298 0 2.463-3.447 3.447-3.447v23.719zm-5.663-17.974v18.138h2.051v-18.138c-.738-.41-1.395-.41-2.051 0Z"/><path fill="#fff" stroke="#000" stroke-width=".821" d="M220.264 144.705c2.544 1.313 5.089 2.873 5.745 6.402h-5.745zm35.457-5.417v11.819h1.641v-11.819c-.492-.246-1.231-.328-1.641 0Z"/><path fill="#fff" stroke="#000" stroke-width=".821" d="M257.362 144.705c-2.544 1.232-5.088 2.709-5.745 6.32h5.745zm-16.907-27.659 1.477-1.231v-1.642c-.492 0-.82.247-1.231.821a4.1 4.1 0 0 0-2.052-2.462 4.1 4.1 0 0 0-2.134 2.38c-.41-.574-.656-.656-1.231-.821v1.642l1.478 1.313z"/><path fill="#fff" stroke="#000" stroke-width=".821" d="m241.276 121.068.656-1.56v-2.052c-.492 0-.82.246-1.231.821a4.1 4.1 0 0 0-2.052-2.462 4.1 4.1 0 0 0-2.134 2.38c-.41-.575-.656-.657-1.231-.739v2.052l.657 1.56z"/><path fill="#fff" stroke="#000" stroke-width=".821" d="m241.44 126.485 2.134-2.709v-2.626c-.821 0-1.231.41-1.806 1.313-.575-1.888-1.641-2.216-3.119-3.119-1.559.821-2.626 1.231-3.119 3.037-.656-.903-1.067-1.149-1.887-1.231v2.626l2.216 2.709z"/><path fill="#fff" stroke="#000" stroke-width=".821" d="M242.014 131.819s2.626-2.216 2.708-3.447V125.5c-.985.082-1.887.328-2.626 1.559-.657-2.38-1.642-3.037-3.447-4.104-1.888 1.067-2.873 1.724-3.447 4.104-.821-1.231-1.642-1.477-2.709-1.641v2.954a12.3 12.3 0 0 0 2.709 3.447z"/><path fill="#fff" stroke="#000" stroke-width=".821" d="M243.081 141.669s3.612-3.858 3.694-5.417v-4.432c-1.313.164-2.627 1.067-3.612 2.954-.82-3.693-2.133-6.237-4.514-8.043-2.462 1.806-3.775 4.35-4.596 8.043-.985-1.887-2.216-2.79-3.529-2.954v4.432c.246 1.559 3.611 5.417 3.611 5.417z"/><path fill="#fff" stroke="#000" stroke-width=".821" d="M243.081 147.496s3.037-3.037 3.694-4.35v-4.432c-1.313.164-2.627 1.067-3.612 2.873a11.5 11.5 0 0 0-4.514-7.551c-2.462 1.805-3.775 3.857-4.596 7.551-.985-1.806-2.216-2.709-3.529-2.873v4.432c.821 1.313 3.611 4.35 3.611 4.35z"/><path fill="#fff" stroke="#000" stroke-width=".821" d="M244.312 150.943c-.82-3.857-1.641-6.73-5.827-9.603-4.268 2.873-5.006 5.746-5.909 9.603z"/><path fill="#fff" stroke="#000" stroke-width=".821" d="M246.529 153.077v-5.581c-1.97.821-3.694 1.888-4.35 3.119-.657-3.119-2.052-4.432-3.776-6.32-1.723 1.888-2.872 3.283-3.611 6.32-.657-1.231-2.38-2.38-4.268-3.119v5.581zM379.08 173.596v-16.743c.574-2.134 2.462-4.104 3.775-4.433v-14.773l-3.037 1.641-3.529 15.513v18.877z"/><path fill="#fff" stroke="#000" stroke-width=".821" d="M379.08 173.678v-16.825c.574-2.134 2.462-4.104 3.775-4.432v-15.759c-2.052 0-3.037 2.627-3.037 2.627l-3.529 15.512v18.795z"/><path fill="#fff" stroke="#000" stroke-width=".821" d="M381.295 177.946c-1.395-.575-3.447-2.38-3.447-4.104v-21.011l.985-1.642h-35.867l1.396 1.642v21.011a4.93 4.93 0 0 1-2.791 4.104z"/><path fill="#fff" stroke="#000" stroke-width=".821" d="M348.876 177.946c1.395-.575 3.447-2.38 3.447-4.104v-19.944l-2.955-2.791h24.294l-2.954 2.791v19.944c0 1.724 2.052 3.529 3.447 4.104z"/><path fill="#fff" stroke="#000" stroke-width=".821" d="M352.241 177.946c1.395-.575 3.529-2.38 3.529-4.104v-18.056l-1.97-2.709h15.43l-1.97 2.709v18.056c0 1.724 2.052 3.529 3.53 4.104z"/><path fill="#fff" stroke="#000" stroke-width=".821" d="M365.127 153.077h-7.305v24.951h7.387z"/><path fill="#fff" d="M375.222 159.972h-2.955v13.542h2.955zm-25.279 0h-2.873v13.542h2.955zm27.823-22.817h-3.611v13.953h3.611zm0-2.627h-3.529v2.627h3.529zm-29.219 5.664h-5.006v10.669h5.006z"/><path stroke="#000" stroke-linejoin="bevel" stroke-width=".821" d="M377.766 137.155h-3.611v13.953h3.611zm0 0h-3.529v-2.627h3.529zm-2.544 22.817h-2.955v13.542h2.955zm-25.279 0h-2.873v13.542h2.955zm-1.396-19.78h-5.006v10.669h5.006z"/><path fill="#fff" stroke="#000" stroke-width=".821" d="M374.237 150.943v-23.801c-.985 0-1.149 3.529-3.447 3.529-1.232 0-1.149-1.478-.411-2.627.575-1.067 1.313-2.462.328-5.17-.738 2.052-2.544 2.708-2.216 1.477.575-2.216 2.299-2.626.985-5.991-.41 2.79-2.216 2.708-1.805 1.066.492-1.887 1.559-2.708.246-5.334-.739 3.036-1.642 2.872-1.642.985 0-2.791 0-5.746-3.447-6.813 0 0-.246-2.462-1.559-2.462-1.231 0-1.477 2.462-1.477 2.462-3.53 1.067-3.448 4.104-3.448 6.813 0 1.887-.902 2.051-1.641-.985-1.313 2.626-.246 3.447.246 5.334.41 1.642-1.395 1.724-1.806-1.066-1.313 3.365.411 3.775.985 5.991.329 1.231-1.477.575-2.216-1.477-.985 2.708-.246 4.103.329 5.17.656 1.149.82 2.627-.411 2.627-2.298 0-2.462-3.447-3.447-3.447v23.719zm5.663-17.974v18.138h-2.052v-18.138c.739-.41 1.395-.41 2.052 0Z"/><path fill="#fff" stroke="#000" stroke-width=".821" d="M379.736 144.705c-2.544 1.313-5.088 2.873-5.745 6.402h5.745zm-35.456-5.417v11.819h-1.642v-11.819c.493-.246 1.232-.328 1.642 0Z"/><path fill="#fff" stroke="#000" stroke-width=".821" d="M342.638 144.705c2.544 1.232 5.089 2.709 5.745 6.32h-5.745zm16.908-27.659-1.478-1.231v-1.642c.493 0 .821.247 1.231.821a4.1 4.1 0 0 1 2.052-2.462 4.1 4.1 0 0 1 2.134 2.38c.411-.574.657-.656 1.231-.821v1.642l-1.477 1.313z"/><path fill="#fff" stroke="#000" stroke-width=".821" d="m358.725 121.068-.657-1.56v-2.052c.493 0 .821.246 1.231.821a4.1 4.1 0 0 1 2.052-2.462 4.1 4.1 0 0 1 2.134 2.38c.411-.575.657-.657 1.231-.739v2.052l-.656 1.56z"/><path fill="#fff" stroke="#000" stroke-width=".821" d="m358.56 126.485-2.134-2.709v-2.626c.821 0 1.231.41 1.806 1.313.575-1.888 1.641-2.216 3.119-3.119 1.559.821 2.626 1.231 3.119 3.037.656-.903 1.067-1.149 1.887-1.231v2.626l-2.216 2.709z"/><path fill="#fff" stroke="#000" stroke-width=".821" d="M357.986 131.819s-2.626-2.216-2.708-3.447V125.5c.985.082 1.887.328 2.626 1.559.657-2.38 1.642-3.037 3.447-4.104 1.888 1.067 2.873 1.724 3.447 4.104.821-1.231 1.642-1.477 2.709-1.641v2.954a12.3 12.3 0 0 1-2.709 3.447z"/><path fill="#fff" stroke="#000" stroke-width=".821" d="M356.919 141.669s-3.611-3.858-3.693-5.417v-4.432c1.313.164 2.626 1.067 3.611 2.954.821-3.693 2.134-6.237 4.514-8.043 2.462 1.806 3.776 4.35 4.596 8.043.985-1.887 2.216-2.79 3.53-2.954v4.432c-.247 1.559-3.612 5.417-3.612 5.417z"/><path fill="#fff" stroke="#000" stroke-width=".821" d="M356.919 147.496s-3.037-3.037-3.693-4.35v-4.432c1.313.164 2.626 1.067 3.611 2.873a11.5 11.5 0 0 1 4.514-7.551c2.462 1.805 3.776 3.857 4.596 7.551.985-1.806 2.216-2.709 3.53-2.873v4.432c-.821 1.313-3.612 4.35-3.612 4.35z"/><path fill="#fff" stroke="#000" stroke-width=".821" d="M355.688 150.943c.82-3.857 1.641-6.73 5.827-9.603 4.268 2.873 5.006 5.746 5.909 9.603z"/><path fill="#fff" stroke="#000" stroke-width=".821" d="M353.472 153.077v-5.581c1.97.821 3.693 1.888 4.35 3.119.656-3.119 2.052-4.432 3.775-6.32 1.724 1.888 2.873 3.283 3.612 6.32.656-1.231 2.38-2.38 4.268-3.119v5.581zM199.335 198.3h201.33v10.26h-201.33zM194 208.56h212v10.259H194zm15.923-25.69h180.072v6.648H209.923zM204.67 189.518h190.742v8.7H204.67zm8.372-11.737h173.999v5.089H213.042z"/><path fill="#fff" stroke="#000" stroke-width=".821" d="M231.919 177.781h13.132v41.038h-13.132z"/><path fill="#fff" stroke="#000" stroke-width=".821" d="M234.873 177.781h7.305v41.038h-7.387zm58.273 0h13.132v41.038h-13.132z"/><path fill="#fff" stroke="#000" stroke-width=".821" d="M296.184 177.781h7.386v41.038h-7.386zm58.683 0h13.132v41.038h-13.132z"/><path fill="#fff" stroke="#000" stroke-width=".821" d="M357.74 177.781h7.387v41.038h-7.387z"/><path stroke="#000" stroke-width=".821" d="M220.921 173.596h158.405M234.71 213.648h7.55m-7.55-5.17h7.55m-7.55-5.089h7.55m-7.55-5.171h7.55m-7.55-5.088h7.55m-7.55-5.171h7.55m-7.55-5.089h7.55m54.006 30.778h7.058m-7.058-5.17h7.058m-7.058-5.089h7.058m-7.058-5.171h7.058m-7.058-5.088h7.058m-7.058-5.171h7.058m-7.058-5.089h7.058m54.334 30.778h7.551m-7.551-5.17h7.551m-7.551-5.089h7.551m-7.551-5.171h7.551m-7.551-5.088h7.551m-7.551-5.171h7.551m-7.551-5.089h7.551"/></g><defs><clipPath id="a"><path fill="#fff" d="M0 0h600v300H0z"/></clipPath></defs></svg>