<svg xmlns="http://www.w3.org/2000/svg" width="600" height="300" fill="none"><g clip-path="url(#a)"><path fill="#fff" d="M0 0h600v300H0z"/><path fill="#006" d="M0 0h600v300H0z"/><path fill="#fff" stroke="#fff" stroke-linejoin="round" stroke-width="4.918" d="M516.949 134.726v47.922c0 41.56-19.622 55.824-45.904 67.112-26.283-11.288-46.11-25.552-46.11-67.112v-47.974h92.014z"/><path fill="#FCEA83" stroke="#fff" stroke-linejoin="round" stroke-width="4.918" d="M396.398 245.861c1.486 3.899 12.04 9.081 24.336 2.463 8.351-4.721 13.73-11.288 18.905-23.09 1.434-2.975 2.203-6.67-1.23-8.876-2.715-2.001-7.172-4.207-9.119-6.157-.974-1.026-1.947-1.745-2.664-2.463.512.513.973.975 1.434 1.693 4.919 5.901-.205 14.521-5.635 19.703-3.945 3.694-11.015 12.776-21.364 4.156-2.203-1.95-7.378 6.157-4.611 12.571zm149.293 0c-1.742 3.899-12.296 9.081-24.336 2.463-8.299-4.721-13.73-11.288-19.11-23.09-1.229-2.975-1.998-6.67 1.435-8.876 2.715-2.001 7.173-4.207 9.119-6.157.974-1.026 1.691-1.745 2.665-2.463-.513.513-.974.975-1.435 1.693-4.918 5.901.205 14.521 5.379 19.703 3.945 3.694 11.272 12.776 21.621 4.156 2.203-1.95 7.121 6.157 4.611 12.571z"/><path fill="#FCEA83" stroke="#fff" stroke-linejoin="round" stroke-width="4.918" d="M471.044 267c19.623 0 49.85-8.876 66.091-39.867 2.664-5.131 0-7.85-3.228-9.544a37.4 37.4 0 0 1-9.837-7.183c3.945 3.951 3.177 6.67.513 11.083-12.552 20.934-29.715 31.504-53.539 31.504-23.823 0-40.986-10.57-53.538-31.504-2.664-4.413-3.432-7.132.256-11.031a33.8 33.8 0 0 1-9.836 7.131c-3.177 1.694-5.892 4.413-3.177 9.544C420.939 258.124 451.371 267 471.044 267Z"/><path fill="#C8102E" stroke="#fff" stroke-linejoin="round" stroke-width="4.918" d="M425.601 225.44c-.512-2.463-3.637-1.488-4.611 1.488a35 35 0 0 1-3.484-5.439c-2.92-4.413-3.432-7.388.769-11.544 1.947-1.95 5.892-4.208 8.556-1.745 5.635 4.669 2.715 12.314-1.23 17.24Zm90.631 0c.512-2.463 3.945-1.488 4.918 1.488 1.23-1.745 2.46-3.438 3.433-5.439 2.92-4.413 3.433-7.388-1.025-11.544-1.69-1.95-5.635-4.208-8.555-1.745-5.431 4.669-2.716 12.314 1.229 17.24Zm-119.833 20.421c-2.46-3.694-4.406-13.341-4.919-15.752-.717-2.206-.973-4.207 1.742-5.131 2.715-1.026 5.123 2.412 6.353 5.387 1.23 2.925 3.228 7.338 5.431 12.776-5.431-3.181-9.837-1.026-8.607 2.72Zm149.292 0c2.203-3.694 4.15-13.341 4.918-15.752.513-2.206.974-4.207-1.742-5.131-2.715-1.026-5.123 2.412-6.352 5.387-1.23 2.925-3.228 7.338-5.431 12.776 5.431-3.181 9.58-1.026 8.607 2.72Z"/><path fill="#fff" stroke="#fff" stroke-linejoin="round" stroke-width="4.918" d="M452.14 134.469c-3.177.719-5.38.975-8.351-1.744-1.947-1.95-1.486-5.388.512-6.67 2.203-1.437 4.15-2.412 6.865-1.694 2.716.77 9.837 7.389 8.095 7.645-1.742 0-4.406 1.694-7.121 2.463Zm7.582-11.801c1.025-.769 2.255-1.231 5.431-1.539 2.972-.205 5.123-.205 5.892 2.052 1.024 2.668 1.742 5.85 3.689 7.338-1.23.718-7.378 1.487-9.581.256-2.92-1.488-3.689-7.183-5.379-8.107zm21.159.257c.974-.77 2.204-.77 5.38-.513 3.176.256 4.406.513 5.123 2.719.769 2.463 0 5.644 1.537 7.85-1.537.513-6.404.513-8.146-1.231-2.664-1.95-2.459-7.645-3.894-8.877z"/><path fill="#073163" stroke="#fff" stroke-linejoin="round" stroke-width="4.918" d="M495.586 124.361c-2.203-.513-3.689-.718-4.611 0 1.178 1.488.205 7.389 2.664 9.338 1.69 1.232 6.148 1.54 7.121-1.231 1.23-2.463 1.23-6.157-5.123-8.107zm-25.258-2.463c.717-.718 2.203-.975 5.123-.975 3.228 0 5.123.514 6.148 2.463 1.025 2.463.717 5.644 2.459 7.645-.717.975-7.377.975-9.324-.513-2.716-1.744-2.972-7.388-4.406-8.62Zm-20.852 2.207c0-1.232 1.691-1.437 6.148-1.694 4.355-.513 4.611-.256 6.097 2.925.717 1.745 1.69 4.669 3.688 5.644-5.43 1.283-7.172 2.001-10.092.257a15 15 0 0 1-5.124-5.388c-.256-.718-.256-1.488-.768-1.744z"/><path fill="#059334" stroke="#fff" stroke-linejoin="round" stroke-width="4.918" d="M449.937 102.247c-1.742 0-3.176-.718-4.201-1.95-1.691-2.257-6.353-3.232-8.351-1.231-.717.513-1.691.513-2.408.718-1.23 0-2.715 1.232-2.254 3.695 1.024-.77 1.229 0 1.998 0 .512-.257.256.256.256.718 0 1.231 2.664 3.694 5.123 3.438 2.716 0 3.945 1.026 4.406 1.539.769.667.256.462.769 1.693.717.718.973.975-.256 1.95a4.97 4.97 0 0 0-1.787 3.822 4.977 4.977 0 0 0 1.787 3.823c3.176 2.411 11.271 6.157 20.39-1.026 8.812-6.876 22.543-2.925 23.567-.513 1.23 2.514 1.691 3.95 1.947 5.182.256 1.026 1.486 2.001 3.228 1.744 1.691 0 3.637.719 4.611 1.488 1.281.719 2.971.513 2.51-1.744-1.024-6.876-5.174-7.851-5.635-11.032 2.408.205 4.098.206 5.123-.769.717-.975 1.691-2.72 2.715-3.182.718-.513.718-1.026-.256-.769-1.229.256-1.947.769-4.201.513-11.271-1.231-42.933-9.851-49.081-8.107Z"/><path fill="#000001" stroke="#fff" stroke-linejoin="round" stroke-width="4.918" d="M500.043 110.61a17.9 17.9 0 0 0-4.714 4.926c-2.408 3.181-9.785 6.362-18.905 6.362-8.812 0-14.191-1.436-18.136-4.617a31 31 0 0 0-5.431-3.489c-2.664-1.232-3.176-3.951-2.459-6.157-.717 1.231-1.178 2.462-2.664 2.206-1.025 0-2.972 0-2.459 1.026-.257-.513-.257-1.231-.513-1.539l-.512-.462c.768.513 2.51-.975 3.74-.975.973.257 2.203-.975 1.947-2.463l-.717-3.181c1.946-1.026 27.717 3.694 32.891 4.156 5.123.257 19.878 2.463 17.932 4.207Z"/><path fill="#059334" stroke="#fff" stroke-linejoin="round" stroke-width="4.918" d="M453.37 101.272c2.459-2.462 5.379-3.694 8.351-2.976h.717c1.537-1.23 4.918-1.487 6.916-.513h.974c2.92-.974 8.556 0 10.554 2.001l.717.514c6.66-.514 10.554 2.411 15.216 7.132.512.513 1.23 1.436 2.459 1.693 1.486.256 1.742 1.026.513 1.744a19.4 19.4 0 0 0-5.124 4.618c-2.254 2.976-9.375 5.952-18.239 5.952-8.556 0-13.73-1.539-17.675-4.464-2.203-1.693-3.894-2.668-5.123-3.438-1.486-.513-3.433-2.463-2.716-4.412.513-1.95-.717-4.413-1.69-6.876.717-.513 2.664-1.231 3.637-.718z"/><path fill="#00493D" stroke="#fff" stroke-linejoin="round" stroke-width="4.918" d="M496.815 107.43c-4.611-4.721-8.556-7.645-15.217-7.184 0 .257 0 1.027-.256 1.54a34 34 0 0 1 12.04 9.081c1.025-1.026 2.715-2.206 3.433-3.437Zm-15.934-7.645c-1.998-1.95-7.634-2.976-10.554-1.95 0 .975 0 2.463-.512 3.438 1.742.718 3.176 2.462 4.662 4.156 1.025-.257 3.433-.975 4.662-1.232a22.6 22.6 0 0 0 1.742-4.412Zm-11.527-2.001c-1.998-.975-5.431-.719-6.917.513-.512 1.026-.717 2.976-.717 3.95 1.025 0 2.459.719 2.92 1.232 1.537-.513 3.484-1.488 4.201-2.206.257-1.027.718-2.463.513-3.438zm-15.985 3.489c2.459-2.463 5.38-3.695 8.351-2.976-.512.77-.717 2.206-.717 3.694-2.715-.257-6.148.513-7.634 1.488z"/><path fill="#00493D" stroke="#fff" stroke-linejoin="round" stroke-width="4.918" d="M492.409 111.329a32.9 32.9 0 0 0-11.272-8.62c0 .257-.512 1.232-.768 2.001 1.486 2.206 4.406 7.132 5.636 9.851 1.229-.513 4.662-2.001 6.404-3.232Zm-18.649 5.439c.425-3.354.664-6.728.717-10.108 1.23-.257 3.689-.975 4.662-1.231 1.23 2.001 4.201 7.183 5.431 9.594-2.971.719-7.89 1.95-10.81 1.745Zm-8.607-11.801c1.229-.513 2.971-1.54 4.15-2.463 1.024.718 2.971 2.463 3.688 3.438 0 2.206-.717 8.619-.973 10.774-1.947 0-5.123-.461-6.865-1.436.256-3.694.512-7.85 0-10.313Zm-12.296 2.924c.256-.513.512-2.206.512-2.924 1.947-1.232 6.865-2.463 10.554-.513.256 2.462 0 8.62-.256 10.107a49.4 49.4 0 0 0-10.759-6.67z"/><path fill="#000001" d="M440.613 103.427c-.513 0-.769-1.436-1.742-1.436-.256 0-.974.256-1.23 0 0 .513.256 1.026.512 1.231.257.718 1.486.257 2.46.257z"/><path stroke="#fff" stroke-linejoin="round" stroke-width="4.918" d="M440.613 107.635c2.92 0 3.432-3.695 4.918-3.9m-3.228 4.156c2.203 1.026 3.945-4.156 5.636-3.951m-10.042-2.411c.718 0 1.23-1.026 2.459.205.513.513 1.23.77 1.742.77m-.512 2.668c-1.025 1.539-2.715 2.463-3.689 2.001m-.512-8.107c-.717.513-1.178 1.437-1.691 2.206m-.717 1.437v1.231"/><path fill="#000" d="M461.259 99.066c-5.174-3.95-11.322-7.645-16.958-8.364a143.4 143.4 0 0 1 16.702 13.033"/><path stroke="#fff" stroke-linejoin="round" stroke-width="4.918" d="M461.259 99.066c-5.174-3.95-11.322-7.645-16.958-8.364a143.4 143.4 0 0 1 16.702 13.033"/><path fill="#000" d="M464.179 95.372c-6.148-4.208-13.269-8.877-20.134-9.338a63.6 63.6 0 0 1 16.907 14.263m11.066-11.8a47.7 47.7 0 0 1 12.04-16.522c-2.459 5.182-5.124 15.752-6.404 19.959"/><path stroke="#fff" stroke-linejoin="round" stroke-width="4.918" d="M464.179 95.372c-6.148-4.208-13.269-8.877-20.134-9.338a63.6 63.6 0 0 1 16.907 14.263m11.066-11.8a47.7 47.7 0 0 1 12.04-16.522c-2.459 5.182-5.124 15.752-6.404 19.959"/><path fill="#000" d="M477.449 87.265A24.82 24.82 0 0 1 489.95 74.18a51.95 51.95 0 0 0-9.325 17.958"/><path stroke="#fff" stroke-linejoin="round" stroke-width="4.918" d="M477.449 87.265A24.82 24.82 0 0 1 489.95 74.18a51.95 51.95 0 0 0-9.325 17.958"/><path fill="#000" d="M479.652 92.14a43.3 43.3 0 0 1 19.366-16.215c-6.148 6.158-15.216 17.446-17.419 21.91m1.485-.257c4.406-2.463 13.27-6.414 19.623-5.131-3.894 1.437-15.678 6.824-20.852 11.801"/><path stroke="#fff" stroke-linejoin="round" stroke-width="4.918" d="M479.652 92.14a43.3 43.3 0 0 1 19.366-16.215c-6.148 6.158-15.216 17.446-17.419 21.91m1.485-.257c4.406-2.463 13.27-6.414 19.623-5.131-3.894 1.437-15.678 6.824-20.852 11.801"/><path fill="#000" d="M482.111 95.834c4.15-4.413 11.784-11.032 19.878-13.751-5.891 5.644-18.443 18.471-20.134 20.421m-11.528-9.339c-2.971-9.133-7.377-17.701-13.986-20.42a67.2 67.2 0 0 1 10.759 25.09m-2.459-4.926c-4.868-5.9-11.528-11.801-19.11-13.033a46.2 46.2 0 0 1 16.907 19.908"/><path stroke="#fff" stroke-linejoin="round" stroke-width="4.918" d="M482.111 95.834c4.15-4.413 11.784-11.032 19.878-13.751-5.891 5.644-18.443 18.471-20.134 20.421m-11.528-9.339c-2.971-9.133-7.377-17.701-13.986-20.42a67.2 67.2 0 0 1 10.759 25.09m-2.459-4.926c-4.868-5.9-11.528-11.801-19.11-13.033a46.2 46.2 0 0 1 16.907 19.908"/><path fill="#000" d="M467.407 92.652c-6.148-11.082-10.861-13.032-13.525-15.238 2.203 4.156 7.582 15.238 10.759 19.907"/><path stroke="#fff" stroke-linejoin="round" stroke-width="4.918" d="M467.407 92.652c-6.148-11.082-10.861-13.032-13.525-15.238 2.203 4.156 7.582 15.238 10.759 19.907M455.111 91.934a29.6 29.6 0 0 1 8.812 8.569"/><path fill="#000" d="M455.111 97.065c1.435 1.231 4.15 2.72 6.609 4.926zm29.203 3.694c2.459-1.95 7.839-5.13 10.554-6.157zm-1.742-1.693c2.459-3.233 7.378-7.645 9.12-9.133zm6.865-15.29a147 147 0 0 0-9.324 11.596zm-6.353-2.206a81 81 0 0 0-6.148 10.826zm-19.417.513c1.486 3.95 4.201 10.57 5.123 13.289zm-2.203 4.156c1.025 1.539 2.972 4.925 3.689 7.388z"/><path stroke="#fff" stroke-linejoin="round" stroke-width="4.918" d="M455.111 97.065c1.435 1.231 4.15 2.72 6.609 4.926m22.594-1.232c2.459-1.95 7.839-5.13 10.554-6.157m-12.296 4.464c2.459-3.233 7.378-7.645 9.12-9.133m-2.255-6.157a147 147 0 0 0-9.324 11.596m2.971-13.802a81 81 0 0 0-6.148 10.826m-13.269-10.313c1.486 3.95 4.201 10.57 5.123 13.289m-7.326-9.133c1.025 1.539 2.972 4.925 3.689 7.388"/><path fill="#000" stroke="#fff" stroke-linejoin="round" stroke-width="4.918" d="M469.815 85.008c0-2.207 1.486-4.618 2.972-4.618 1.691 0 2.92 2.924 2.92 4.618 0 2-1.486 3.694-2.92 3.694-1.537 0-2.972-1.437-2.972-3.694Z"/><path fill="#000" stroke="#fff" stroke-linejoin="round" stroke-width="4.918" d="M466.639 87.009c.256-2.463 1.946-4.413 3.432-4.208 1.486.257 2.203 3.233 1.947 4.926-.256 1.95-1.947 3.438-3.176 3.181-1.23 0-2.46-1.693-2.203-3.9Zm6.609.718c-.513-2.206.512-4.618 1.998-4.926 1.434-.205 2.92 2.206 3.176 4.207.513 1.95-.768 3.9-1.998 3.9-1.178.257-2.92-.975-3.176-3.181Z"/><path fill="#000" stroke="#fff" stroke-linejoin="round" stroke-width="4.918" d="M469.559 89.677c0-2.412 1.486-4.618 2.972-4.618 1.69 0 2.92 2.668 2.92 4.618 0 2-1.435 3.694-2.92 3.694-1.486 0-2.972-1.437-2.972-3.694Z"/><path fill="#000" stroke="#fff" stroke-linejoin="round" stroke-width="4.918" d="M465.153 90.908c0-2.206 1.742-4.618 3.177-4.618 1.537 0 2.971 2.925 2.971 4.618 0 2.001-1.742 3.694-2.971 3.694-1.435 0-3.177-1.436-3.177-3.694Zm9.069-.975c0-2.206 1.537-4.618 2.971-4.618 1.691 0 2.92 2.925 2.92 4.618 0 2.001-1.434 3.694-2.92 3.694s-2.971-1.488-2.971-3.694Z"/><path fill="#000" stroke="#fff" stroke-linejoin="round" stroke-width="4.918" d="M473.248 91.934c0-2.463 1.742-4.669 3.176-4.669 1.537 0 2.972 2.668 2.972 4.618 0 2-1.486 3.745-2.972 3.745-1.434 0-3.176-1.539-3.176-3.694Z"/><path fill="#000" stroke="#fff" stroke-linejoin="round" stroke-width="4.918" d="M469.354 94.14c0-2.462 1.435-4.669 2.92-4.669 1.742 0 2.972 2.925 2.972 4.618 0 2.052-1.537 3.746-2.972 3.746-1.485 0-2.971-1.54-2.971-3.694zm-6.148 0c0-2.462 1.23-4.669 2.459-4.669s2.203 2.925 2.203 4.618c0 2.052-1.229 3.746-2.203 3.746-1.229 0-2.459-1.54-2.459-3.694Zm13.73-.461c0-2.258 1.23-4.464 2.46-4.464s2.459 2.72 2.459 4.412c0 2.207-1.486 3.695-2.459 3.695-1.23 0-2.46-1.488-2.46-3.695z"/><path fill="#000" stroke="#fff" stroke-linejoin="round" stroke-width="4.918" d="M478.423 97.783c.512-2.411 1.946-4.412 2.92-4.104 1.025.205 1.229 3.13.768 4.874-.256 2.206-1.742 3.438-2.715 3.181-1.025-.205-1.486-1.95-1.025-3.9z"/><path fill="#000" stroke="#fff" stroke-linejoin="round" stroke-width="4.918" d="M473.76 97.065c.256-2.206 1.691-4.412 2.92-4.156 1.486 0 2.203 2.925 1.998 4.618-.256 2.258-1.537 3.746-2.715 3.489-1.229 0-2.459-1.745-2.203-3.95Zm-6.865.719c-.769-2.412-2.254-4.105-3.228-3.9-.973.257-1.229 3.181-.717 4.926.512 1.949 1.947 3.181 2.92 2.924.769-.205 1.537-1.95 1.025-3.9z"/><path fill="#000" stroke="#fff" stroke-linejoin="round" stroke-width="4.918" d="M465.153 97.322c0-2.207 1.23-4.413 2.46-4.413 1.485 0 2.459 2.72 2.459 4.413 0 2.206-1.23 3.694-2.459 3.694-1.025 0-2.46-1.488-2.46-3.694Z"/><path fill="#000" stroke="#fff" stroke-linejoin="round" stroke-width="4.918" d="M468.842 98.297c0-2.463 1.485-4.618 2.92-4.618 1.742 0 2.971 2.668 2.971 4.618 0 2.001-1.485 3.694-2.971 3.694-1.435 0-2.92-1.488-2.92-3.694Zm1.229-27.04c-.512 1.95-2.203 3.694-1.024 6.413-2.152-.77-4.099-1.026-5.841.975 2.203-.256 4.15.513 5.123 1.95-1.947-.257-2.92.77-3.432 2.001 1.742-.513 3.432-1.026 4.201-.77-.769.77-1.998 1.95-2.203 2.976 1.434-1.231 3.176-1.026 4.15-1.744-.718 1.744.717 3.438 1.947 5.13-.205-2.41 1.229-4.104.512-5.387 2.203.513 2.459 2.463 5.635 2.463-1.229-.718-1.946-3.181-3.432-3.181.717-.257 3.689-.513 4.201 0-.512-1.026-2.254-1.95-3.228-1.95 1.025-1.026 2.716-2.976 3.945-3.489-1.742.257-4.406.513-5.379 2.001 2.408-2 1.947-5.644 4.611-6.157-1.435-.256-3.638.719-5.38 2.463.769-1.488.769-3.438 1.742-3.95-1.998.512-4.201 2.975-4.918 4.207a9.24 9.24 0 0 0-1.23-3.951Z"/><path fill="#000" d="M471.301 75.208c0 .718 0 2.206-.256 2.668zm3.177-.257c-.513.513-1.486 2.206-1.486 3.694z"/><path stroke="#fff" stroke-linejoin="round" stroke-width="4.918" d="M471.301 75.208c0 .718 0 2.206-.256 2.668m3.433-2.925c-.513.513-1.486 2.206-1.486 3.694M475.963 77.876a3.9 3.9 0 0 0-1.742 2.257"/><path fill="#FCEA83" stroke="#000" stroke-width=".717" d="M396.398 245.861c1.486 3.899 12.04 9.081 24.336 2.463 8.351-4.721 13.73-11.288 18.905-23.09 1.434-2.975 2.203-6.67-1.23-8.876-2.715-2.001-7.172-4.207-9.119-6.157-.974-1.026-1.947-1.745-2.664-2.463.512.513.973.975 1.434 1.693 4.919 5.901-.205 14.521-5.635 19.703-3.945 3.694-11.015 12.776-21.364 4.156-2.203-1.95-7.378 6.157-4.611 12.571zm149.293 0c-1.742 3.899-12.296 9.081-24.336 2.463-8.299-4.721-13.73-11.288-19.11-23.09-1.229-2.975-1.998-6.67 1.435-8.876 2.715-2.001 7.173-4.207 9.119-6.157.974-1.026 1.691-1.745 2.665-2.463-.513.513-.974.975-1.435 1.693-4.918 5.901.205 14.521 5.379 19.703 3.945 3.694 11.272 12.776 21.621 4.156 2.203-1.95 7.121 6.157 4.611 12.571z"/><path fill="#FCEA83" stroke="#000" stroke-width=".717" d="M471.044 267c19.623 0 49.85-8.876 66.091-39.867 2.664-5.131 0-7.85-3.228-9.544a37.4 37.4 0 0 1-9.837-7.183c3.945 3.951 3.177 6.67.513 11.083-12.552 20.934-29.715 31.504-53.539 31.504-23.823 0-40.986-10.57-53.538-31.504-2.664-4.413-3.432-7.132.256-11.031a33.8 33.8 0 0 1-9.836 7.131c-3.177 1.694-5.892 4.413-3.177 9.544C420.939 258.124 451.371 267 471.044 267Z"/><path fill="#C8102E" stroke="#000" stroke-width=".717" d="M425.601 225.44c-.512-2.463-3.637-1.488-4.611 1.488a35 35 0 0 1-3.484-5.439c-2.92-4.413-3.432-7.388.769-11.544 1.947-1.95 5.892-4.208 8.556-1.745 5.635 4.669 2.715 12.314-1.23 17.24Zm90.631 0c.512-2.463 3.945-1.488 4.918 1.488 1.23-1.745 2.46-3.438 3.433-5.439 2.92-4.413 3.433-7.388-1.025-11.544-1.69-1.95-5.635-4.208-8.555-1.745-5.431 4.669-2.716 12.314 1.229 17.24Zm-119.833 20.421c-2.46-3.694-4.406-13.341-4.919-15.752-.717-2.206-.973-4.207 1.742-5.131 2.715-1.026 5.123 2.412 6.353 5.387 1.23 2.925 3.228 7.338 5.431 12.776-5.431-3.181-9.837-1.026-8.607 2.72Zm149.292 0c2.203-3.694 4.15-13.341 4.918-15.752.513-2.206.974-4.207-1.742-5.131-2.715-1.026-5.123 2.412-6.352 5.387-1.23 2.925-3.228 7.338-5.431 12.776 5.431-3.181 9.58-1.026 8.607 2.72Z"/><path fill="#00493D" d="m410.641 223.695-1.946 1.027c-.513.205-.513.718-.513.974h-.256l-.973-2.206h.256c0 .205.256.513.717.205l4.201-2.206c.512-.256.512-.513.256-.718l.205-.257 1.23 2.463h-.205c-.256-.256-.512-.513-1.025-.256l-1.69 1.026.717 1.436 1.998-.718c.512-.256.205-.77.205-1.026h.256l1.025 2.257c-.256-.256-.513-.513-1.025-.256l-4.15 2.206c-.512.257-.512.513-.256.719l-.256.256-1.23-2.206.256-.257c.257.257.513.513 1.025.257l1.947-1.026zm4.202 3.233c.512-.257.512-.513.204-1.026h.257l2.459 3.694-1.691 1.231v-.205c.973-.77.974-1.744.717-2.001-.256-.256-.512-.513-.512-.718-.205 0-.205-.257-.717.256l-1.742 1.232c.256.205.512.975 1.742.205h.256l-2.715 2.001v-.257c1.229-1.026.717-1.744.512-1.949l-1.742 1.231c-.512.205-.512.513-.512.718.256 0 .256.257.512.514.256.513 1.025.974 2.203.513l.256.205-1.947.718-2.459-3.899h.256c.205.205.513.513.974.205zm3.893 9.338-1.69 1.437c-.257.256-.257.769 0 1.026h-.257l-1.742-1.745.257-.256c.256.256.512.513 1.024 0l3.177-3.181c.512-.257.512-.513.205-1.026l1.742 2.052c-.257-.308-.718-.308-1.025 0l-1.435 1.437 1.23 1.231 1.486-1.231c.512-.514.256-.719 0-1.027l.256-.205 1.691 1.95h-.257c-.205 0-.512-.205-.973.256l-3.176 2.976c-.513.513-.513.719-.257.975v.257l-1.69-2.001c.205 0 .717.256.973 0l1.691-1.693zm3.689 5.182.768.719.974-2.207s-.769.206-1.998.975zm0 0-.256.206-.513-.514c-.204.257-.461.257-.717.514-.717.513-.512.769-.205 1.026v.205l-1.229-1.231h.205l1.024-.257 4.867-2.668.257.205s-.257.257-2.46 5.182c0 .513-.205.719 0 1.232l-1.946-1.693.256-.257c.256.513.717.513.973 0 0-.257.256-.77.256-1.026l-.768-.718.256-.257zm1.947 4.875.256-.257c.256.257.512.257 1.025 0l3.176-4.156-.256-.256c-.512-.257-1.23-.257-1.947.513v-.257l.973-1.231 3.689 2.719-1.229 1.437h-.257c.718-.719.513-1.694 0-1.95v-.257l-3.176 4.208c-.512.256-.256.718 0 .975h-.256z"/><path fill="#00493D" d="m430.776 247.297-1.23 1.745c-.256.513 0 .718.257 1.026l-.257.205-1.946-1.488v-.256c.512.256.717.256.973-.206l2.715-3.694c.205-.513 0-.769-.256-1.026l.256-.205 1.947 1.436v.257c-.512-.257-.717-.257-1.024.257l-1.179 1.744 1.486.975 1.23-1.745c.204-.513 0-.718-.257-.974l.257-.257 1.946 1.488v.257c-.256-.257-.717-.257-1.024.256l-2.408 3.9c-.513.256-.256.513 0 .769v.205l-2.203-1.436h.256c.205 0 .512 0 .717-.257l1.23-1.95zm4.918 6.927.257-.257c.256.257.717.257.973-.256l1.947-4.156c.256-.513 0-.77-.256-1.026l4.201 2.001-1.025 1.95-.205-.257c.717-.975 0-1.95-.256-2.206-.256 0-.512-.257-.717-.257-.256 0-.256 0-.513.513-.256.257-.973 1.693-.973 1.693.256.257.717.77 1.742-.513h.205l-1.435 2.976-.256-.205c.717-1.539-.256-1.744-.512-1.744l-.974 1.949c-.256.513 0 .77.257.77v.256zm7.122 3.438c-.717-.513-.717-2.001 0-3.438.512-1.539 1.486-2.719 2.459-2.258.717.257.512 1.745 0 3.233-.769 1.693-1.742 2.668-2.459 2.463h-.256c1.742.718 2.971-.257 3.688-2.001.718-1.437.513-3.181-1.024-3.9-1.435-.769-2.921.205-3.638 1.95s-.512 3.438 1.025 3.951zm7.582.461 1.025-2.924c.205-.513 0-.77-.256-1.026l1.229.256v.257c-.256 0-.512 0-.768.513l-.974 2.924c-.512 1.232-1.229 2.207-2.664 1.745-1.024-.257-1.742-1.488-1.229-2.719l1.229-3.182c.205-.513 0-.769-.256-1.026v-.205l2.203.975v.256c-.256-.256-.717-.256-.717.257l-1.281 3.13c-.256.975-.256 1.95.512 2.206.718.257 1.435-.256 1.896-1.488zm2.254-3.181c0-.256 0-.256-.256-.256l1.691.256 1.537 4.669.717-2.975c.205-.514 0-.719-.256-.975l1.435.256-.205.257c-.257 0-.513 0-.769.513l-1.229 5.387h-.205l-1.998-5.9-1.23 3.951c0 .718.256.718.512.974v.257l-1.485-.513v-.257c.256.257.717 0 .717-.513l1.229-4.412zm8.351 4.926c-.512 2.206-1.537 2.719-1.998 2.719h-.512s-.205-.256 0-.513l.768-4.925c.257-.257.257-.513.513-.257h.512c.461 0 .922 1.026.717 2.976l.718.257c.512-2.463-.513-3.489-1.742-3.695-.974-.256-2.459-.513-2.459-.513v.257c.256.256.768.256.512 1.026l-.717 4.361q-.385.77-.769.77h-.205l2.408.513c1.23.205 2.459 0 2.972-2.719zm2.203-2.001c0-.513-.512-.718-.768-.718v-.257l4.457.513-.256 1.95c0-1.232-.768-1.693-1.23-1.693-.256-.257-.512-.257-.768-.257-.205 0-.205 0-.205.718l-.256 2.002c.256 0 .973.205 1.486-1.232l-.257 3.181h-.256c0-1.488-.717-1.488-1.024-1.488l-.205 2.207c0 .513 0 .513.256.513l.512.256c.717 0 1.435-.256 1.947-1.744h.256l-.512 1.949-4.662-.513c.512 0 .717-.205 1.024-.667zm8.095 2.976c0 2.206-.768 2.924-1.486 2.924-.256-.205-.256-.205-.512-.205l-.205-.256.256-5.131c0-.308 0-.308.205-.308h.513c.512 0 1.229.77 1.229 2.976h.974c0-2.463-1.23-3.181-2.46-3.181-1.024-.257-2.459-.257-2.459-.257v.257c.256 0 .769.205.769.718l-.256 4.669c0 .513-.257.718-.513.718v.257h2.203c1.23 0 2.459-.513 2.716-3.181h-1.025zm7.122 1.95c0 .513.256.513.717.513v.256l-2.716.205c.257-.205.769-.513.769-.974l-.512-4.618c-.257-.513-.513-.513-.974-.513v-.257l2.716-.256c-.257.256-.769.513-.513 1.026zm2.459.513v-.257c.256 0 .512-.256.512-.718l-1.025-5.131h-.256c-.512.205-.973.667-.717 1.693h-.256l-.256-1.744 4.457-.719.205 1.693h-.205c0-.974-.769-1.231-1.537-1.231h-.205l1.025 5.131c0 .513.205.77.717.77v.256zm10.554-4.926-1.025-2.925c0-.513-.461-.513-.717-.513v-.256l1.229-.513v.256c-.256.257-.256.257-.256.77l1.025 3.181c.205 1.026.205 2.463-1.23 2.976-1.024.205-2.203-.257-2.459-1.745l-1.025-3.181c-.204-.513-.461-.513-.717-.513l-.256-.256 2.459-.719v.257c-.205.256-.512.513-.205.975l.718 3.181c.256 1.026 1.024 1.488 1.69 1.488.769-.257 1.025-1.232.769-2.463m2.715-1.744c1.178-.514.973-1.181.717-1.95-.256-.719-.717-1.232-1.229-.975-.256 0-.513.256-.256.513zm.205.256.512 2.001c.256.513.718.513 1.025.205v.257l-2.254 1.026-.256-.256c.512-.257.512-.514.512-1.027l-1.742-4.156c-.256-.718-.512-.513-.973-.513v-.205l2.459-1.026c1.024-.205 1.947 0 2.459 1.026.256 1.231-.256 1.95-1.23 2.463-.256 0-.512.205-.512.205M500.248 257.354c-.718.308-1.691-.719-2.46-2.412-.717-1.488-.717-2.976 0-3.181.769-.256 1.742.718 2.46 2.206.768 1.488.768 2.925 0 3.438 1.537-.513 1.998-2.206 1.229-3.951-.717-1.488-2.203-2.463-3.689-1.949a2.883 2.883 0 0 0-1.569 2.855c.039.384.154.757.34 1.095.768 1.693 2.254 2.668 3.689 1.95zm.256-6.824h-.461l1.434-1.027 4.457 2.463-1.537-2.668c-.204-.513-.717-.513-.922-.513v-.256l1.23-.513c-.256.307-.512.513 0 1.026l2.459 4.925-.256.257-5.431-2.976 1.998 3.694c.205.513.718.513.974.257v.256l-1.23.719v-.257c.256-.256.256-.513 0-.975l-1.947-3.951zm11.066.718v-.257c0-.256.256-.513 0-.974l-2.971-4.156h-.257c-.512.205-.717 1.231 0 1.949l-.205.257-1.024-1.745 3.689-2.463 1.024 1.54c-.768-.77-1.537-.77-1.998-.513l-.256.205 2.971 4.207c.257.513.718.513 1.025.257v.205z"/><path fill="#00493D" d="m514.286 245.348 1.434 1.744c.256.205.769.205 1.025 0v.205l-1.998 1.745v-.257c.256-.256.256-.513 0-.974l-2.921-3.695c-.256-.513-.512-.256-1.024-.256l1.998-1.693v.256c0 .205-.256.513 0 .975l1.229 1.437 1.435-.975-1.178-1.693c-.257-.514-.769-.257-1.025-.257l1.998-1.744v.256c-.256.257-.256.513 0 1.026l2.92 3.643q.385.386.769 0l.205.257-1.947 1.744-.256-.256c.256-.257.512-.513.256-1.026l-1.486-1.694zm2.203-5.182c-.257-.206-.769-.206-1.025 0v-.206l3.228-2.976 1.485 1.488h-.256c-.768-1.026-1.742-.513-2.203-.256 0 .256-.256.256-.512.513 0 0 0 .205.256.718l1.486 1.488c.205-.256.973-.769 0-2.001h.205l1.998 2.258v.205c-1.23-1.231-1.742-.513-1.998-.205l1.537 1.436c.205.513.461.513.461.513l.717-.718c.256-.256.512-1.026 0-2.463h.256l.974 1.693-3.177 3.182-.256-.206c.256-.256.512-.513 0-1.026zm5.891-6.876c-.256.257-.256.77.205 1.026.513.462 1.025.462 1.998 0 .513-.256 1.435-.513 2.203.206 1.23 1.231.718 2.206.513 2.719-.256.256-.769.513-1.025.718-.256 0-.256 0-.256.257v.256l-1.691-1.488h.256c.974.513 1.947.719 2.46 0 .512-.513 0-1.026-.257-1.231-.512-.513-1.024-.513-1.742 0-.717.257-1.69.257-2.459-.257-.973-.974-.973-1.693-.512-2.462l1.025-.719c.256 0 .256 0 0-.513l1.742 1.232h-.257c-1.229-.513-1.998-.206-2.203.256m2.203-1.95c-.512-.256-.768 0-1.024.257h-.205l2.715-3.951 1.691 1.232-.256.256a1.69 1.69 0 0 0-2.203 0c0 .257-.257.513-.257.718-.204 0-.204.257.257.514.256.256 1.742 1.231 1.742 1.231.256-.257.717-.77-.257-1.745v-.256l2.46 2.001c-1.486-.77-1.742 0-1.947.205l1.69 1.232c.513.256.718.256.718.256 0-.256.256-.513.512-.718.256-.513.512-1.232-.512-2.206l.256-.257 1.229 1.488-2.459 3.694h-.256c.256-.513.256-.769-.205-1.231zm6.609-4.412-.717 1.231c-1.025-1.026-1.486-1.744-1.486-1.744zm.513 0c.256 0 .717.205.973.205.717.257.513.513.256 1.026h.257l1.229-2.257c-.512.513-.768.256-1.229.256-5.175-.975-5.636-1.231-5.636-1.231v.256l3.894 4.413c.256.256.256.77.256 1.026h.256l.717-1.231-.256-.257c-.256.513-.512.718-.973 0l-.513-.513zm-1.998-5.439c-.205.257-.205.77.512 1.026.717.206 1.025 0 1.742-.513s1.434-1.026 2.408-.513c1.537.77 1.229 2.001 1.024 2.463l-.768 1.026v.462l-1.947-1.026c1.23.256 2.203 0 2.459-.719.256-.513-.256-.974-.512-1.231-.512-.205-.973 0-1.691.513-.768.718-1.537 1.026-2.459.513-1.025-.513-1.486-1.231-1.025-2.001 0-.513.513-.718.769-.975 0-.256 0-.256-.256-.513v-.205l1.998.975h-.256c-1.23-.257-1.998.256-1.998.718"/><path fill="#fff" stroke="#000" stroke-width=".717" d="M452.14 134.469c-3.177.719-5.38.975-8.351-1.744-1.947-1.95-1.486-5.387.512-6.67 2.203-1.437 4.15-2.412 6.865-1.693 2.716.769 9.837 7.388 8.095 7.645-1.742 0-4.406 1.693-7.121 2.462Zm7.582-11.801c1.025-.769 2.255-1.231 5.431-1.539 2.972-.205 5.123-.205 5.892 2.052 1.024 2.669 1.742 5.85 3.689 7.338-1.23.718-7.378 1.488-9.581.256-2.92-1.488-3.689-7.183-5.379-8.107zm21.159.257c.974-.77 2.204-.77 5.38-.513 3.176.256 4.406.513 5.123 2.719.769 2.463 0 5.644 1.537 7.85-1.537.514-6.404.514-8.146-1.231-2.664-1.95-2.459-7.645-3.894-8.876z"/><path fill="#073163" stroke="#000" stroke-width=".717" d="M495.586 124.361c-2.203-.513-3.689-.718-4.611 0 1.178 1.488.205 7.389 2.664 9.338 1.69 1.232 6.148 1.54 7.121-1.231 1.23-2.463 1.23-6.157-5.123-8.107zm-25.258-2.463c.717-.718 2.203-.974 5.123-.974 3.228 0 5.123.513 6.148 2.462 1.025 2.463.717 5.644 2.459 7.645-.717.975-7.377.975-9.324-.513-2.716-1.744-2.972-7.388-4.406-8.62Zm-20.852 2.207c0-1.232 1.691-1.437 6.148-1.693 4.355-.514 4.611-.257 6.097 2.924.717 1.745 1.69 4.669 3.688 5.644-5.43 1.283-7.172 2.001-10.092.257a15 15 0 0 1-5.124-5.388c-.256-.718-.256-1.488-.768-1.744z"/><path fill="#F9D050" d="M461.259 99.066c-5.174-3.95-11.322-7.645-16.958-8.363a143.4 143.4 0 0 1 16.702 13.032"/><path stroke="#000" stroke-width=".307" d="M461.259 99.066c-5.174-3.95-11.322-7.645-16.958-8.363a143.4 143.4 0 0 1 16.702 13.032"/><path fill="#F9D050" d="M464.179 95.372c-6.148-4.207-13.269-8.876-20.134-9.338a63.5 63.5 0 0 1 16.907 14.264m11.066-11.801a47.7 47.7 0 0 1 12.04-16.522c-2.459 5.182-5.124 15.752-6.404 19.96"/><path stroke="#000" stroke-width=".307" d="M464.179 95.372c-6.148-4.207-13.269-8.876-20.134-9.338a63.5 63.5 0 0 1 16.907 14.264m11.066-11.801a47.7 47.7 0 0 1 12.04-16.522c-2.459 5.182-5.124 15.752-6.404 19.96"/><path fill="#F9D050" d="M477.449 87.265a24.82 24.82 0 0 1 12.501-13.084 51.95 51.95 0 0 0-9.325 17.958"/><path stroke="#000" stroke-width=".307" d="M477.449 87.265a24.82 24.82 0 0 1 12.501-13.084 51.95 51.95 0 0 0-9.325 17.958"/><path fill="#F9D050" d="M479.652 92.14a43.3 43.3 0 0 1 19.366-16.214c-6.148 6.157-15.216 17.445-17.419 21.909m1.485-.257c4.406-2.463 13.27-6.413 19.623-5.13-3.894 1.436-15.678 6.823-20.852 11.8"/><path stroke="#000" stroke-width=".307" d="M479.652 92.14a43.3 43.3 0 0 1 19.366-16.214c-6.148 6.157-15.216 17.445-17.419 21.909m1.485-.257c4.406-2.463 13.27-6.413 19.623-5.13-3.894 1.436-15.678 6.823-20.852 11.8"/><path fill="#F9D050" d="M482.111 95.834c4.15-4.413 11.784-11.032 19.878-13.751-5.891 5.644-18.443 18.471-20.134 20.421m-11.528-9.338c-2.971-9.133-7.377-17.702-13.986-20.421a67.2 67.2 0 0 1 10.759 25.09m-2.459-4.926c-4.868-5.9-11.528-11.8-19.11-13.032a46.2 46.2 0 0 1 16.907 19.908"/><path stroke="#000" stroke-width=".307" d="M482.111 95.834c4.15-4.413 11.784-11.032 19.878-13.751-5.891 5.644-18.443 18.471-20.134 20.421m-11.528-9.338c-2.971-9.133-7.377-17.702-13.986-20.421a67.2 67.2 0 0 1 10.759 25.09m-2.459-4.926c-4.868-5.9-11.528-11.8-19.11-13.032a46.2 46.2 0 0 1 16.907 19.908"/><path fill="#F9D050" d="M467.407 92.653c-6.148-11.083-10.861-13.033-13.525-15.24 2.203 4.157 7.582 15.24 10.759 19.909"/><path stroke="#000" stroke-width=".307" d="M467.407 92.653c-6.148-11.083-10.861-13.033-13.525-15.24 2.203 4.157 7.582 15.24 10.759 19.909M455.111 91.934a29.6 29.6 0 0 1 8.812 8.569"/><path fill="#F9D050" d="M455.111 97.065c1.435 1.231 4.15 2.72 6.609 4.926zm29.203 3.694c2.459-1.95 7.839-5.13 10.554-6.157zm-1.742-1.693c2.459-3.232 7.378-7.645 9.12-9.133zm6.865-15.29a147 147 0 0 0-9.324 11.596zm-6.353-2.206a81 81 0 0 0-6.148 10.826zm-19.417.513c1.486 3.95 4.201 10.57 5.123 13.289zm-2.203 4.156c1.025 1.54 2.972 4.926 3.689 7.388z"/><path stroke="#000" stroke-width=".307" d="M455.111 97.065c1.435 1.231 4.15 2.72 6.609 4.926m22.594-1.232c2.459-1.95 7.839-5.13 10.554-6.157m-12.296 4.464c2.459-3.232 7.378-7.645 9.12-9.133m-2.255-6.157a147 147 0 0 0-9.324 11.596m2.971-13.802a81 81 0 0 0-6.148 10.826m-13.269-10.313c1.486 3.95 4.201 10.57 5.123 13.289m-7.326-9.133c1.025 1.54 2.972 4.926 3.689 7.388"/><path fill="#F9D050" stroke="#000" stroke-width=".307" d="M469.815 85.008c0-2.206 1.486-4.618 2.972-4.618 1.691 0 2.92 2.925 2.92 4.618 0 2-1.486 3.694-2.92 3.694-1.537 0-2.972-1.437-2.972-3.694Z"/><path fill="#F9D050" stroke="#000" stroke-width=".307" d="M466.639 87.009c.256-2.463 1.946-4.413 3.432-4.207 1.486.256 2.203 3.232 1.947 4.925-.256 1.95-1.947 3.438-3.176 3.181-1.23 0-2.46-1.693-2.203-3.9Zm6.609.718c-.513-2.206.512-4.618 1.998-4.925 1.434-.206 2.92 2.206 3.176 4.207.513 1.95-.768 3.9-1.998 3.9-1.178.256-2.92-.976-3.176-3.182Z"/><path fill="#F9D050" stroke="#000" stroke-width=".307" d="M469.559 89.677c0-2.412 1.486-4.618 2.972-4.618 1.69 0 2.92 2.668 2.92 4.618 0 2-1.435 3.694-2.92 3.694-1.486 0-2.972-1.436-2.972-3.694Z"/><path fill="#F9D050" stroke="#000" stroke-width=".307" d="M465.153 90.908c0-2.206 1.742-4.618 3.177-4.618 1.537 0 2.971 2.925 2.971 4.618 0 2.001-1.742 3.695-2.971 3.695-1.435 0-3.177-1.437-3.177-3.695Zm9.069-.975c0-2.206 1.537-4.617 2.971-4.617 1.691 0 2.92 2.924 2.92 4.617 0 2.001-1.434 3.695-2.92 3.695s-2.971-1.488-2.971-3.695Z"/><path fill="#F9D050" stroke="#000" stroke-width=".307" d="M473.248 91.934c0-2.462 1.742-4.669 3.176-4.669 1.537 0 2.972 2.668 2.972 4.618 0 2.001-1.486 3.746-2.972 3.746-1.434 0-3.176-1.54-3.176-3.695Z"/><path fill="#F9D050" stroke="#000" stroke-width=".307" d="M469.354 94.14c0-2.462 1.435-4.668 2.92-4.668 1.742 0 2.972 2.924 2.972 4.617 0 2.053-1.537 3.746-2.972 3.746-1.485 0-2.971-1.54-2.971-3.694zm-6.148 0c0-2.462 1.23-4.668 2.459-4.668s2.203 2.924 2.203 4.617c0 2.053-1.229 3.746-2.203 3.746-1.229 0-2.459-1.54-2.459-3.694Zm13.73-.461c0-2.258 1.23-4.464 2.46-4.464s2.459 2.72 2.459 4.413c0 2.206-1.486 3.694-2.459 3.694-1.23 0-2.46-1.488-2.46-3.694z"/><path fill="#F9D050" stroke="#000" stroke-width=".307" d="M478.423 97.784c.512-2.412 1.946-4.413 2.92-4.105 1.025.205 1.229 3.13.768 4.874-.256 2.206-1.742 3.438-2.715 3.181-1.025-.205-1.486-1.95-1.025-3.9z"/><path fill="#F9D050" stroke="#000" stroke-width=".307" d="M473.76 97.066c.256-2.207 1.691-4.413 2.92-4.157 1.486 0 2.203 2.925 1.998 4.618-.256 2.258-1.537 3.746-2.715 3.489-1.229 0-2.459-1.744-2.203-3.95Zm-6.865.718c-.769-2.412-2.254-4.105-3.228-3.9-.973.257-1.229 3.182-.717 4.926.512 1.95 1.947 3.181 2.92 2.925.769-.206 1.537-1.95 1.025-3.9z"/><path fill="#F9D050" stroke="#000" stroke-width=".307" d="M465.153 97.322c0-2.206 1.23-4.413 2.46-4.413 1.485 0 2.459 2.72 2.459 4.413 0 2.206-1.23 3.694-2.459 3.694-1.025 0-2.46-1.488-2.46-3.694Z"/><path fill="#F9D050" stroke="#000" stroke-width=".307" d="M468.842 98.297c0-2.463 1.485-4.618 2.92-4.618 1.742 0 2.971 2.668 2.971 4.618 0 2.001-1.485 3.694-2.971 3.694-1.435 0-2.92-1.488-2.92-3.694Zm1.229-27.04c-.512 1.95-2.203 3.694-1.024 6.414-2.152-.77-4.099-1.027-5.841.974 2.203-.256 4.15.514 5.123 1.95-1.947-.256-2.92.77-3.432 2.001 1.742-.513 3.432-1.026 4.201-.77-.769.77-1.998 1.95-2.203 2.977 1.434-1.232 3.176-1.027 4.15-1.745-.718 1.745.717 3.438 1.947 5.131-.205-2.411 1.229-4.105.512-5.387 2.203.513 2.459 2.462 5.635 2.462-1.229-.718-1.946-3.18-3.432-3.18.717-.257 3.689-.514 4.201 0-.512-1.027-2.254-1.95-3.228-1.95 1.025-1.027 2.716-2.976 3.945-3.49-1.742.257-4.406.514-5.379 2.001 2.408-2 1.947-5.644 4.611-6.157-1.435-.256-3.638.719-5.38 2.463.769-1.488.769-3.437 1.742-3.95-1.998.513-4.201 2.975-4.918 4.207a9.24 9.24 0 0 0-1.23-3.951Z"/><path fill="#F9D050" d="M471.301 75.208c0 .718 0 2.206-.256 2.668zm3.177-.257c-.513.513-1.486 2.207-1.486 3.695z"/><path stroke="#000" stroke-width=".307" d="M471.301 75.208c0 .718 0 2.206-.256 2.668m3.433-2.925c-.513.513-1.486 2.207-1.486 3.695M475.963 77.876a3.9 3.9 0 0 0-1.742 2.257"/><path fill="#059334" stroke="#000" stroke-width=".717" d="M449.937 102.247c-1.742 0-3.176-.718-4.201-1.949-1.691-2.258-6.353-3.233-8.351-1.232-.717.513-1.691.513-2.408.718-1.23 0-2.715 1.232-2.254 3.695 1.024-.77 1.229 0 1.998 0 .512-.257.256.256.256.718 0 1.231 2.664 3.694 5.123 3.438 2.716 0 3.945 1.026 4.406 1.539.769.667.256.462.769 1.693.717.718.973.975-.256 1.95a4.97 4.97 0 0 0-1.787 3.822 4.977 4.977 0 0 0 1.787 3.823c3.176 2.411 11.271 6.157 20.39-1.026 8.812-6.876 22.543-2.925 23.567-.513 1.23 2.514 1.691 3.95 1.947 5.182.256 1.026 1.486 2.001 3.228 1.744 1.691 0 3.637.719 4.611 1.488 1.281.719 2.971.513 2.51-1.744-1.024-6.876-5.174-7.85-5.635-11.032 2.408.206 4.098.206 5.123-.769.717-.975 1.691-2.72 2.715-3.181.718-.513.718-1.027-.256-.77-1.229.257-1.947.77-4.201.513-11.271-1.231-42.933-9.851-49.081-8.107Z"/><path fill="#000001" stroke="#000" stroke-width=".717" d="M500.043 110.611a17.8 17.8 0 0 0-4.714 4.925c-2.408 3.181-9.785 6.363-18.905 6.363-8.812 0-14.191-1.437-18.136-4.618a31 31 0 0 0-5.431-3.489c-2.664-1.232-3.176-3.951-2.459-6.157-.717 1.231-1.178 2.462-2.664 2.206-1.025 0-2.972 0-2.459 1.026-.257-.513-.257-1.231-.513-1.539l-.512-.462c.768.513 2.51-.975 3.74-.975.973.257 2.203-.975 1.947-2.463l-.717-3.181c1.946-1.026 27.717 3.694 32.891 4.156 5.123.257 19.878 2.463 17.932 4.208Z"/><path fill="#059334" stroke="#000" stroke-width=".717" d="M453.37 101.273c2.459-2.463 5.379-3.695 8.351-2.976h.717c1.537-1.232 4.918-1.488 6.916-.513h.974c2.92-.975 8.556 0 10.554 2l.717.514c6.66-.513 10.554 2.411 15.216 7.132.512.513 1.23 1.436 2.459 1.693 1.486.256 1.742 1.026.513 1.744a19.4 19.4 0 0 0-5.124 4.618c-2.254 2.976-9.375 5.952-18.239 5.952-8.556 0-13.73-1.539-17.675-4.464-2.203-1.693-3.894-2.668-5.123-3.438-1.486-.513-3.433-2.462-2.716-4.412.513-1.95-.717-4.413-1.69-6.876.717-.513 2.664-1.231 3.637-.718z"/><path fill="#00493D" stroke="#000" stroke-width=".717" d="M496.815 107.43c-4.611-4.721-8.556-7.645-15.217-7.183 0 .256 0 1.026-.256 1.539a34 34 0 0 1 12.04 9.081c1.025-1.026 2.715-2.206 3.433-3.437Zm-15.934-7.645c-1.998-1.95-7.634-2.976-10.554-1.95 0 .975 0 2.463-.512 3.438 1.742.718 3.176 2.463 4.662 4.156 1.025-.257 3.433-.975 4.662-1.232a22.6 22.6 0 0 0 1.742-4.412Zm-11.527-2.001c-1.998-.975-5.431-.719-6.917.513-.512 1.026-.717 2.976-.717 3.951 1.025 0 2.459.718 2.92 1.231 1.537-.513 3.484-1.488 4.201-2.206.257-1.026.718-2.463.513-3.438zm-15.985 3.489c2.459-2.463 5.38-3.695 8.351-2.976-.512.77-.717 2.206-.717 3.694-2.715-.257-6.148.513-7.634 1.488z"/><path fill="#00493D" stroke="#000" stroke-width=".717" d="M492.409 111.329a32.9 32.9 0 0 0-11.272-8.62c0 .257-.512 1.232-.768 2.001 1.486 2.207 4.406 7.132 5.636 9.852 1.229-.513 4.662-2.001 6.404-3.233Zm-18.649 5.439c.425-3.354.664-6.728.717-10.108 1.23-.256 3.689-.975 4.662-1.231 1.23 2.001 4.201 7.183 5.431 9.594-2.971.719-7.89 1.95-10.81 1.745Zm-8.607-11.801c1.229-.513 2.971-1.539 4.15-2.463 1.024.718 2.971 2.463 3.688 3.438 0 2.206-.717 8.62-.973 10.775-1.947 0-5.123-.462-6.865-1.437.256-3.694.512-7.85 0-10.313Zm-12.296 2.924c.256-.513.512-2.206.512-2.924 1.947-1.232 6.865-2.463 10.554-.513.256 2.463 0 8.62-.256 10.108a49.4 49.4 0 0 0-10.759-6.671z"/><path fill="#000001" d="M440.613 103.427c-.513 0-.769-1.436-1.742-1.436-.256 0-.974.256-1.23 0 0 .513.256 1.026.512 1.231.257.718 1.486.257 2.46.257z"/><path stroke="#000" stroke-width=".717" d="M440.613 107.635c2.92 0 3.432-3.694 4.918-3.9m-3.228 4.156c2.203 1.026 3.945-4.156 5.636-3.95m-10.042-2.412c.718 0 1.23-1.026 2.459.205.513.513 1.23.77 1.742.77m-.512 2.668c-1.025 1.539-2.715 2.463-3.689 2.001m-.512-8.107c-.717.513-1.178 1.437-1.691 2.206m-.717 1.437v1.232"/><path fill="#fff" d="M516.949 134.726v47.922c0 41.56-19.622 55.824-45.904 67.112-26.283-11.288-46.11-25.552-46.11-67.112v-47.974h92.014z"/><path fill="#C8102E" d="M471.045 175.26c2.203 0 5.635-1.95 8.607-4.926 3.176-3.438 8.607-4.618 14.242 0 5.636 4.669 9.069 2.719 12.04 0 2.92-2.668 5.38-3.694 11.015-3.694v-31.914h-92.065v31.965c5.635 0 8.095 1.026 11.066 3.694 2.92 2.72 6.353 4.669 12.04 0 5.892-4.618 11.015-3.437 14.447 0 2.716 2.976 6.148 4.926 8.608 4.926z"/><path fill="#0B50A0" d="M471.045 199.888c2.971 0 8.863-3.233 10.297-3.951 5.431-3.233 9.325-.257 12.552 1.231 3.433 1.437 9.786 3.181 13.731 0 3.945-3.232 6.148-2.976 8.863-2.976.512-3.694.512-7.388.512-11.544v-2.976c-3.483-.718-5.174.256-8.863 3.489-3.689 3.181-7.89 2.463-13.32.513-5.124-2.258-10.247-6.157-15.421 0a12.4 12.4 0 0 1-8.351 4.105c-3.689 0-6.866-2.412-8.351-4.105-5.38-6.157-10.298-2.258-15.473 0-5.379 1.95-9.836 2.668-13.474-.513-3.433-3.233-5.174-4.207-8.863-3.489v2.976c0 4.156.256 7.85.717 11.544 2.715 0 4.713-.256 8.607 2.976 3.945 3.181 10.554 1.437 13.782 0 3.432-1.488 7.326-4.464 12.757-1.231 1.486.718 7.121 3.899 10.298 3.899zm0 10.569a26.1 26.1 0 0 0 12.039-3.694c4.919-2.719 8.351-1.539 13.27.975 5.123 2.463 9.324 1.693 12.295 0 1.435-1.026 2.665-2.976 5.841-2.206-1.435 6.157-3.689 11.544-6.353 15.957a16.63 16.63 0 0 1-12.808-.975c-5.123-2.463-11.527-3.951-14.96-1.745a18.4 18.4 0 0 1-9.324 2.976c-2.716 0-6.148-1.026-9.325-2.976-3.432-2.206-9.837-.718-14.96 1.745a16.63 16.63 0 0 1-12.808 1.026c-2.664-4.464-4.867-9.903-6.353-16.008 3.177-.77 4.406 1.231 5.892 2.206a12.24 12.24 0 0 0 12.04 0c5.123-2.463 8.555-3.694 13.474-1.026a26.1 26.1 0 0 0 12.04 3.745m0 39.303a98.3 98.3 0 0 0 26.282-15.239c-1.998-.718-3.176-.256-4.918-1.488s-6.866-1.693-11.272.77a19.95 19.95 0 0 1-20.134 0c-4.457-2.463-9.581-2.001-11.271-.77-1.742 1.232-2.972.77-4.97 1.539a94.6 94.6 0 0 0 26.283 15.188"/><path fill="#F9D050" stroke="#000" stroke-width=".717" d="M464.641 146.732c.256.513-.205 1.744 0 2.206.512 1.026.512 1.539 1.229 2.001h1.742c5.38 0 11.784-2.206 17.163-2.206 5.175 0 8.351 1.693 11.271 1.693 1.742 0 3.228-1.231 3.228-2.463s-1.947-1.95-6.148-1.95c-5.892 0-9.068 1.488-13.986 1.488-7.378 0-8.608-2.719-8.608-3.95s1.23-2.925 5.175-2.925c1.23 0 2.203-.257 2.715-.77.256-.513.974-1.488 2.459-2.206 1.691-1.026 5.124 0 6.866-1.231 0 1.026-1.486 2.463-2.716 2.976 2.459-.77 5.124-.77 5.636 1.231-1.23-.77-3.177-.257-3.894 0-1.024.205-1.486.513-2.459.718.973-.256 1.486 1.694 2.92 1.694-1.434 1.231-3.893 1.231-6.353.256-.768-.256-2.715-.975-3.945-.975-2.459 0-3.944.513-3.944 1.488 0 1.232 1.537 1.95 5.891 1.95 4.458 0 6.917-1.231 13.526-1.231-.513-.719.256-1.488-.717-2.207 2.459 0 5.123.719 6.148 2.463-.257-1.744 1.178-3.181.717-4.669 1.486.256 2.715 1.693 2.92 2.925 0-.719 1.025-.719 1.025-1.437a3.8 3.8 0 0 1 1.947 3.899c.717-1.231 1.485-.718 1.946-2.206.513 1.026.257 3.951-1.485 4.926 1.537-1.026 3.688-1.026 5.174.718-1.486-.205-2.203.513-2.92.77a22.7 22.7 0 0 1-11.579 2.463c-3.893-.257-4.406-1.027-6.865-1.027 1.486.257 4.406 3.233 7.173 3.233 1.69 0 2.92 0 3.637-.257.717-.256 1.947 0 2.92.513.769.719 2.255 1.437 3.228 1.232-.256.975-.768 1.436-1.486 1.693 1.23.77.513 1.231 1.742 2.206-.512 0-1.024.513-1.742.257.718.718.718 1.744 1.486 2.206-.256 0-1.025.257-1.486 0 .718 1.026 0 2.206.718 2.719.768 1.027-.718 2.207-1.947 1.232.256.718-.513 1.488-1.23 1.231s-1.229-1.026-1.024-1.231c0-.257 0-.257.307-.513-.512.769-1.486.769-1.998.513-.205-.257-.512-.513-.512-.718-1.691.513-2.408-1.027-2.152-1.745.205-.718 1.69-1.026 2.203-.718.512.205.973.513 1.486 0 .512-.257.717-.77.717-1.232 0-.769-.717-2.976-3.945-2.719-3.689.256-9.581-.718-12.501-1.745-.256-.205-.512-.205-.768-.513 0 1.027-.974 1.54-.974 2.514 0 1.232.512 2.207 1.998 2.669-.768 1.231-1.998 1.026-2.459.256 0 .77-1.025 1.231-1.025 2.206-.205-.513-.512-.718-.717-1.231-.717 1.744-2.715 2.719-3.689 2.258-1.229.974-2.664.718-3.176-.257-.717.513-1.742.513-2.203 0 0 .718-.512.513-.769 1.488 0 .513-.973.718-1.434.513-.512-.308-.769-1.283-.256-1.744-.718.513-1.486.513-1.947 0 0-.514 0-1.232.512-1.54h.461c-.512-.205-1.229 0-1.742-.205-.512-.513-.512-1.026-.256-1.488.256-.256 1.025-.718 1.537-.256l.205.256c0-.513.256-.975.512-.975.513-.256 1.179-.256 1.947.513.513.719.974.719 2.459.513 1.23 0 3.177-1.282 4.611-2.514-4.098-.718-1.69-3.437-.461-4.412-.973-.257-2.459-.257-3.432.256-5.124 2.72-10.554 5.901-13.987 4.926.048.514.224 1.008.513 1.437-.769 0-2.255 0-2.716-.719-.256.513-.717 1.745-.256 2.72-.512-.514-1.947-1.027-2.715-1.232.512.513 0 1.488.256 2.206-.717-.718-1.947-1.231-2.459-.718-.513.513-1.486.718-2.203.513a3.85 3.85 0 0 1-1.947 1.437c0-.513 0-1.232-.256-1.488-.257.77-1.025 1.744-1.947 2.206 0-.513 0-1.231-.256-1.693 0 .975-1.947 1.488-2.203 2.206.256-.718.256-1.488.256-1.949a3.74 3.74 0 0 1-2.459 1.693c.205-.513.512-1.026.205-1.488-.205 1.026-1.691 1.539-2.921 1.231 0 .513-1.024 1.232-2.203.513-.768-.256-1.229-1.026-.768-1.488-.974 0-1.947-.975-1.435-1.693 0-.256.205-.513.205-.77-.717-.513-.973-1.487-.205-2.206.205-.256.974-.256 1.435-.256 0-1.95 1.742-1.95 2.459-.513.512.769 1.998 2.001 3.228 1.744.512 0 .717-.256 1.229-.256a22 22 0 0 0 6.148-3.182c.205-.718.205-1.231.205-1.693-.973.513-1.947.975-2.459 1.693v-.718c-.717 0-1.947-.256-2.459-.256.256-.257.512-1.488 1.024-1.745-1.229.257-2.459 0-3.483-.205.512-.513.512-1.232.768-2.001-.512.256-1.742-.206-2.715 0 .256-.719.512-1.693 1.229-1.95-1.024.257-2.203 0-3.432-.513 1.024 0 1.485-1.232 2.203-1.232-1.947 0-2.459-.974-3.433-1.436.717.205 1.23-.513 1.947-.513-.717-.257-1.947-1.488-1.435-2.207-.256.257-.512.719-1.024 1.027-.513.205-1.435 0-2.203-.77-.513-1.026-.256-2.206.768-2.463a1.17 1.17 0 0 1-.622-.227 1.17 1.17 0 0 1-.456-1.188c.045-.221.153-.424.31-.586.256-.513 1.229-1.18 1.742-.513l.717 1.026c-.256-.513-.256-1.488-.256-2.206.256-.718.768-.718 1.537-1.026.666 0 1.178.769 1.178 1.539 0 .718.256 1.18.512 2.206l.205-1.026c0-.975 1.23-.718 1.998-.513.718.308.974 1.745 0 2.514-.512.513-.256 1.232.257 1.693 1.69 2.72 4.611 4.926 7.121 5.183 0-1.027.512-1.95 1.23-2.72 0-.513.204-1.231.512-1.693.205-1.488.922-2.206 1.896-1.744-.205-.257-.513-.514-.513-.719-.717-.769-1.434-2.001-.922-2.976s1.947-.718 2.459-.205c-.256-1.539 1.435-2.719 1.435-3.489.256.77.768 1.745.512 2.463.256-.975 1.947-2.206 3.176-2.668-.512.718 1.025 1.95.769 2.668.512-1.232 2.459-1.95 3.894-1.95-.513.513-.513 1.488-.513 1.95.769 0 2.05-.205 2.511-.975 0 1.026-.513 2.001-1.025 2.463.256-.257 1.23-.257 1.998-.257-.768.77-.512 1.54-1.229 2.001.973-.513 2.203-.513 2.459.513.512.719-.256 1.95-.769 2.668-.512.257-.973.719-1.229.719Z"/><path stroke="#000" stroke-width=".717" d="M449.476 149.708c-1.742.718-2.255 2.463-2.511 3.438"/><path stroke="#000" stroke-width=".717" d="M449.219 151.401c-2.459 1.539-3.484 2.719-2.971 5.439m4.15 2.001c1.537-.513 2.459-1.026 3.688-3.233"/><path stroke="#000" stroke-width=".717" d="M453.369 156.583c-.512 1.027 0 2.72-.717 3.438a4.517 4.517 0 0 0 2.459-3.438"/><path stroke="#000" stroke-width=".717" d="M453.881 159.303c.974-.513 2.46-2.001 3.177-3.695-.256.719 0 1.95-.513 2.72 1.23-1.232 1.742-2.001 1.999-3.233l.204 1.027c.513-.514 1.025-1.027 1.025-2.002m-.051.719v1.231c1.025-.718 1.281-1.693 1.281-2.924"/><path stroke="#000" stroke-width=".717" d="M460.747 154.634c1.485-1.027 1.69-2.463 1.69-4.669m0 2.462c1.025-.769 1.23-1.231 1.23-3.489m-3.177-6.619c-.512 0-1.024.257-1.024 1.027 0 .461-.718 1.18-.718 1.949-.204.975-.717 1.232-1.434.975-.769-.513-.769-.513-.769-1.231 0-1.026 1.23-1.232 1.23-2.206.256-.514.512-1.232.769-1.232-1.23.718-2.972.205-3.228-1.231"/><path stroke="#000" stroke-width=".717" d="M462.694 143.038c-.513.256-1.025-.513-1.691-.205-.256 0-1.025.205-1.23 0"/><path stroke="#000" stroke-width=".717" d="M459.261 144.269c.256.257 1.486.77 2.715.257-1.024.256-1.742-.975-.768-1.693m-4.15-1.027c-1.025 0-1.742.77-1.486 1.54.256.718 1.23.718 1.947.205m-2.203 10.57c.256-.257.512-.719.512-1.027.513 0 1.025-.205 1.23-.461.973 0 1.691-.719 1.947-1.437.512 0 .768-1.231 1.024-1.745.205.257.718 0 .974-1.026.512.308 1.229 0 1.434-.718m-10.041-1.693c0 .256-.513.718-1.025 1.026.256.462 0 1.693-.461 1.898.256.513 0 1.232-.256 1.745 0 .256.256 1.026.256 1.231m2.459-10.826c-.512 1.232-.256 2.72.717 2.976"/><path stroke="#000" stroke-width=".717" d="M453.882 144.987c-.257 1.283-.257 2.976-.513 3.746-.256.513-.717 2.206 1.23 2.668 2.203.513 3.432.256 4.662-3.438m3.689 9.595c0 .257-.256.77-.717.77m2.407-1.232c0 .513-.512 1.232-.717 1.437m2.459-1.95c0 .513 0 1.232-.512 1.488m-14.448-16.727c.205 0 .513.513.718.975-.718-.513-1.486.719-1.025 1.488m-.461 1.693-.974.77m.257 1.437c-.257 0-.513.256-.718.256m-11.066-4.669c0-.256 0-.256.256-.513m-2.459-.205c-.256 0-.256 0-.512-.257m.717 3.694h.512m-1.485-1.487a2.56 2.56 0 0 0-1.435-.719m14.96 9.851c-1.742 1.437-2.459 2.669-2.715 4.413m4.406-3.232a5.65 5.65 0 0 1-1.947 2.257m-7.583 5.131a5.624 5.624 0 0 1-4.918-.718c-.256-.257-.512-.257-.768-.513m13.013-2.155c-.205.923-.513 2.155-.974 2.411 1.998-1.026 3.689-2.463 3.945-4.669m-17.214 6.875c.769-.256 1.537.257 1.998-.256m40.73-7.85c.512.256 1.23.513 1.486.718.256-.513 1.23-1.231 1.947-1.437m-20.852 5.901c-.256-1.026.256-2.206 1.742-2.719m-11.323 6.875c.257-.513.257-1.231.513-1.693m-11.323 2.463c-.256.513-.717.974-.717 1.436m-2.971-.975s0-.256.256-.256c.512-.205 1.229-.719 1.486-1.232m31.661-1.949c-.512.256-.717 0-.973-.257m.717 1.488s-.205.257-.512.257m1.742.974c-.256.257-.513.514-.717.514m7.838 0c.512-.257.769-.77 1.025-1.745m-4.201 1.488c.717-.257 1.229-.77 1.947-1.488m4.918-.513c0-.513 0-.975.256-1.437m17.932 3.695c-.513-.514-.513-1.232.256-1.745.512-.257.717-.513 1.229-.718"/><path stroke="#000" stroke-width=".717" d="M483.546 156.788c-3.894-1.693-3.638-3.899-6.866-3.643m24.336 11.34c.256.205 0 .975 0 1.18m2.203-1.18c-.256.718-.256.975-.256 1.693m-18.649-24.834h-2.049m-18.598 8.364c0 .513.769 1.488 2.716 1.488-.257 0-.513-.257-.513-.257m-1.229-4.207c-.205.256-.513 0-.513 0-.461-.513.308-1.437 1.025-1.95-.717.257-1.23.257-1.742.257-.512 1.488-1.947 2.206-2.92 1.231-.256.975-1.486 2.206-2.459 1.95-1.025-.513-1.23-1.232-1.025-1.95-1.178 1.437-2.664.513-3.125 0-.256-.513 0-1.744.512-3.232"/><path fill="#000" d="M480.369 156.07c-.717.513-1.486 0-2.203.77-.512.513.256.718.717.718-.204.77-.204 1.026 1.025 1.026-.512.719.974.975.717 1.95a2.364 2.364 0 0 0 .513-2.463c-.256-.769-1.537-1.231-.769-2.001"/><path fill="#073163" d="M458.032 148.22c-1.025-.513-1.23-1.232-1.025-1.95-.205.513-.666.718-1.178.718-1.025 2.207-2.203 4.208-3.689 4.208-1.742.205-1.486 1.95-.256 1.95 2.715.513 3.945-.514 6.148-4.926m-24.285-5.901c.717-.718.205-1.488-.256-1.693-.768-.256-2.203 0-2.971 1.18.768-.205 1.537-.205 1.741.257.257.513.718 1.026 1.486.256m1.23-4.412c1.69 0 2.203.256 2.408.975.256.513-.205 1.231-.718 1.231-.717 0-1.485-.513-1.229-.718.256-.513.256-1.232-.512-1.54zm4.867 3.899c1.229.257 1.742-.513 1.025-1.436-.257-.77-1.025-1.232-2.255-1.027 1.23.77 0 2.001 1.23 2.463m-9.068 4.208a2.05 2.05 0 0 0 2.459 1.026c.717-.308 1.025-1.026.717-1.54-.512-.718-1.229-.974-1.434 0-.513 1.027-1.23.77-1.742.514m3.688 14.982c-.512-.975-1.946-.975-3.176 0 .512-.257 1.435 0 1.691.513s.768.513 1.024.513c.205-.257.718-.513.461-1.026m1.947-1.437c0-1.231-1.69-1.539-2.664-1.026.513 0 1.23.513 1.23 1.026.205.513.717.718.973.718.513-.256.717-.513.513-.718zm-2.459 4.413c-1.434-.257-2.203 1.488-2.203 2.668.256-.719 1.025-1.18 1.742-.975.717 0 .973-.205.973-.718.257-.514 0-.719-.512-1.027zm.256 4.156c.513.256 1.025-.257 1.23-.975 0-.513 1.025-.513 1.229-.257.513.257.513 1.232-.256 1.745-.512.256-1.69.513-2.203-.513m34.121-7.389c-.512-.205-1.69-.718-2.664 0 .717-.205 1.23.257 1.435.77 0 .513.768.718 1.024.256.205-.256.513-.769.205-1.026m-2.203 1.745c-.973-.513-2.203.718-2.459 1.744a3.6 3.6 0 0 1 1.742-.769c.512.256.973 0 .973-.513.257-.206.257-.462-.256-.462m1.281 2.001c-.768 0-1.742.975-1.742 1.95.205-.514.717-.77 1.23-.514.512 0 1.229-.256 1.229-.718q0-.77-.768-.77zm2.152 1.95c-.512-.257-1.23 0-1.23.718s0 1.488-.205 1.744c.513-.513.974-.769 1.435-1.026.256-.205.512-.975 0-1.436m27.768-2.207c-.512-.513-1.229-.256-1.486.205-.256.514-.512 1.745 0 2.72 0-.513.513-1.232 1.025-1.232.717-.256.922-1.231.461-1.693m1.486.975c-1.025.513-1.025 2.206-.256 3.181 0-.513.256-1.231.717-1.488.768 0 1.025-.975.768-1.436-.512-.513-1.024-.257-1.229-.257m2.92.975c-.512-.257-1.025.257-1.025.718-.204.77.308 1.745 1.025 2.207 0-.514.256-.975.512-1.232.718-.513.513-1.436-.512-1.693m2.203-.257c-.512 0-.973.719-.512 1.488.256.513.768.719 1.742.513-.256 0-.718-.769-.513-1.026.257-.513 0-.975-.717-.975"/><path fill="#F9D050" d="m435.694 211.894 12.296-37.866 12.295 37.866-32.225-23.345h39.859z"/><path fill="#024919" d="m438.153 208.457 25.514-18.677h-31.406l25.258 18.677-9.529-29.965z"/><path fill="#F9D050" d="m481.855 211.894 12.296-37.866 12.296 37.866-32.226-23.345h39.859z"/><path fill="#024919" d="m484.314 208.457 25.514-18.677h-31.406l25.258 18.677-9.529-29.965z"/><path fill="#F9D050" d="m458.748 238.677 12.296-37.865 12.296 37.865-32.225-23.345h39.859z"/><path fill="#024919" d="m461.208 235.24 25.514-18.677h-31.406l25.258 18.677-9.53-29.964z"/><path stroke="#000" stroke-width=".717" d="M516.949 134.726v47.922c0 41.56-19.622 55.824-45.904 67.112-26.283-11.288-46.11-25.552-46.11-67.112v-47.974h92.014z"/><path fill="#012169" d="M0 0v150h300V0z"/><path fill="#000" d="m0 0 300 150Zm300 0L0 150Z"/><path stroke="#fff" stroke-width="30" d="m0 0 300 150m0-150L0 150"/><mask id="b" width="300" height="150" x="0" y="0" maskUnits="userSpaceOnUse" style="mask-type:luminance"><path fill="#fff" d="M150 75h150v75zm0 0v75H0zm0 0H0V0zm0 0V0h150z"/></mask><g mask="url(#b)"><path fill="#000" d="m0 0 300 150Zm300 0L0 150Z"/><path stroke="#C8102E" stroke-width="20" d="m0 0 300 150m0-150L0 150"/></g><path fill="#000" d="M150 0v150ZM0 75h300Z"/><path stroke="#fff" stroke-width="50" d="M150 0v150M0 75h300"/><path fill="#000" d="M150 0v150ZM0 75h300Z"/><path stroke="#C8102E" stroke-width="30" d="M150 0v150M0 75h300"/></g><defs><clipPath id="a"><path fill="#fff" d="M0 0h600v300H0z"/></clipPath></defs></svg>