<svg xmlns="http://www.w3.org/2000/svg" width="600" height="300" fill="none"><g clip-path="url(#a)"><path fill="#fff" d="M0 0h600v300H0z"/><path fill="#039" d="M0 0h600v300H0z"/><path stroke="#FC0" stroke-width="19.296" d="M295.183 175.464c11.807 0 21.377-9.548 21.377-21.325 0-11.778-9.57-21.326-21.377-21.326s-21.376 9.548-21.376 21.326c0 11.777 9.57 21.325 21.376 21.325Z"/><path stroke="#FC0" stroke-width="19.296" d="M295.183 216.08c34.292 0 62.091-27.732 62.091-61.941s-27.799-61.941-62.091-61.941-62.091 27.732-62.091 61.941 27.799 61.941 62.091 61.941Z"/><path fill="#039" d="m354.743 94.723 59.559 59.416-59.559 59.416-59.56-59.416z"/><path fill="#FC0" d="M193.714 144.529h41.628v19.29h-41.628zm182.195 0H438v19.29h-62.091zm-50.489-34.163 27.284-27.217 13.642 13.679-27.214 27.147zM285.55 13h19.337v75.13H285.55zM228.451 100.475c5.321 0 9.634-4.303 9.634-9.61 0-5.308-4.313-9.61-9.634-9.61-5.32 0-9.634 4.302-9.634 9.61s4.314 9.61 9.634 9.61M171.634 163.749c5.32 0 9.633-4.303 9.633-9.61 0-5.308-4.313-9.611-9.633-9.611-5.321 0-9.634 4.303-9.634 9.611 0 5.307 4.313 9.61 9.634 9.61M295.183 256.065c5.321 0 9.634-4.303 9.634-9.611 0-5.307-4.313-9.61-9.634-9.61-5.32 0-9.633 4.303-9.633 9.61 0 5.308 4.313 9.611 9.633 9.611M295.183 287c5.321 0 9.634-4.303 9.634-9.61 0-5.308-4.313-9.611-9.634-9.611-5.32 0-9.633 4.303-9.633 9.611 0 5.307 4.313 9.61 9.633 9.61M357.275 163.749c5.32 0 9.633-4.303 9.633-9.61 0-5.308-4.313-9.611-9.633-9.611-5.321 0-9.634 4.303-9.634 9.611 0 5.307 4.313 9.61 9.634 9.61M216.637 218.465l13.712-13.609 13.642 13.609-13.642 13.679zm143.942 14.731 13.712-13.679 13.712 13.679-13.712 13.609z"/></g><defs><clipPath id="a"><path fill="#fff" d="M0 0h600v300H0z"/></clipPath></defs></svg>