<svg xmlns="http://www.w3.org/2000/svg" width="600" height="300" fill="none"><g clip-path="url(#a)"><path fill="#EE1C25" d="M0 0h600v300H0z"/><path fill="#FF0" d="M48.357 141.133 78.89 49.527l30.535 91.606L28 85.152h101.783zM180.796 51.283l-31.424 6.963 20.961-24.425-2.056 32.874-17.438-29.104zM212.511 91.476l-31.665-5.769 28.793-14.384-14.644 29.503-4.787-33.588zM207.889 147.865l-26.559-18.182 32.156-1.39-25.404 20.965 9.329-32.62zM167.945 184.703l-17.476-27.03 30.198 11.138-31.53 9.527 21.204-26.486z"/></g><defs><clipPath id="a"><path fill="#fff" d="M0 0h600v300H0z"/></clipPath></defs></svg>