<svg xmlns="http://www.w3.org/2000/svg" width="600" height="300" fill="none"><path fill="green" d="M0 0h600v300H0z"/><path fill="#FFE000" d="M337.032 204.666c28.774 0 52.099-23.326 52.099-52.099 0-28.774-23.325-52.099-52.099-52.099s-52.099 23.325-52.099 52.099 23.326 52.099 52.099 52.099"/><path fill="green" d="M353.279 195.449c23.683 0 42.882-19.199 42.882-42.882s-19.199-42.882-42.882-42.882c-23.684 0-42.883 19.199-42.883 42.882s19.199 42.882 42.883 42.882"/><path fill="#FFE000" d="m462.054 218.054 3.442 10.704 10.515-3.983-6.22 9.369 9.672 5.739-11.209.977 1.542 11.14-7.742-8.154-7.747 8.149 1.542-11.135-11.204-.982 9.671-5.739-6.224-9.369 10.515 3.983zM399.559 119.103l3.443 10.704 10.515-3.983-6.22 9.369 9.672 5.739-11.21.977 1.543 11.14-7.743-8.154-7.747 8.149 1.542-11.135-11.204-.982 9.672-5.739-6.225-9.369 10.515 3.983zM462.054 51.4l3.442 10.703 10.515-3.983-6.22 9.37 9.672 5.738-11.209.978 1.542 11.14-7.742-8.155-7.747 8.15 1.542-11.135-11.204-.983 9.671-5.738-6.224-9.37 10.515 3.983zM517.606 102.438l3.442 10.703 10.515-3.983-6.22 9.37 9.672 5.738-11.209.978 1.542 11.14-7.742-8.155-7.748 8.15 1.543-11.135-11.205-.982 9.672-5.739-6.225-9.369 10.516 3.982zM487.053 152.583l2.723 6.671 7.182.526-5.505 4.652 1.721 6.994-6.121-3.8-6.121 3.804 1.717-6.993-5.506-4.652 7.192-.526zM122.1 179c33.413 0 60.5-27.087 60.5-60.5S155.513 58 122.1 58s-60.5 27.087-60.5 60.5S88.687 179 122.1 179"/><path fill="#802000" stroke="#7B3100" stroke-width="1.3" d="M117.939 164.178h15.169s.607-1.386-.174-2.08c-.866-.693-4.073-.867-3.207-3.294 1.734-5.027 2.081-3.467 3.207-15.428a640 640 0 0 0 1.734-30.77h-2.254s.434 5.807-.866 13.435c-1.214 7.627-1.647 8.234-3.034 14.128a55 55 0 0 1-2.86 9.708c-1.214 3.467-1.387 3.554-3.294 6.761-1.994 3.12-1.3 1.906-2.34 3.813-.607.954-1.214.694-1.647 1.387-.347.694-.434 2.34-.434 2.34Z"/><path fill="green" d="M129.467 74.469a19.9 19.9 0 0 1-1.04 7.974 23 23 0 0 0-1.993 8.494c-1.56.52-3.207-3.38-4.767-1.04 1.126 3.207 3.813 5.72 5.547 8.58.346.867 2.947 3.208 1.387 3.728-3.727-1.3-4.681-6.067-6.934-8.928a16.47 16.47 0 0 0-13.435-8.667c-2.167.086-9.015-.434-7.281 3.207 2.6 1.733 5.894 2.947 8.494 4.94 1.994.173 5.461 3.467 5.287 4.68-3.467-1.386-5.027-3.033-8.667-4.507-5.027-1.906-11.875-.78-14.735 4.161-.433 1.3-1.214 5.027.433 5.461 1.907-2.947 4.594-6.328 8.581-5.374 3.121.26-3.467 5.807-.953 4.68.866-.347 2.6-1.56 3.987-1.733 1.3 0 1.993.866 2.947 1.04 1.993.26 2.6 1.04 2.34 1.56-.173.52-.867 0-2.86.693-.954.347-1.474 1.214-2.601 1.647-1.213.347-3.64.434-4.507 0-3.207-1.3-8.407-1.127-9.36 2.86 0 1.734-1.56-.173-2.254.607-.607 1.907-.694 3.814-3.467 3.641-1.734 1.733-3.467 3.64-5.721 4.94 1.3 2.947 6.327-2.947 6.067-.433-2.166 3.033 1.214 3.64 2.6 1.3 2.514-2.6 5.635-5.807 9.275-3.12 1.733 1.646 2.774-.867 4.074-.867.867 2.167 1.82.173 2.773-.434 1.474-.173 1.041 1.907 2.774.607 3.554-2.34 7.888-.347 11.355-2.6 3.727-1.734.52 1.3-.434 2.514-1.647 3.12-.26 7.28-3.727 9.187-1.473 3.727 1.647 8.668-1.473 11.441-.434 1.734 3.987 1.561 5.2 2.254 2.254 0 0-5.027 2.167-5.721 2.947 1.734 2.774-3.293 2.167-4.853.347-3.468.52-7.455 2.254-10.662 1.907-3.9 3.64 1.647 1.56 3.207-1.214 3.554-2.947 8.148-.26 11.528.867.174 1.473 2.081 2.427 2.601 1.04.606 2.427-.087 2.6-1.821 1.387-5.2.693-10.747 2.6-15.861 1.3-1.561 3.121-.26 3.901 1.213 2.6 3.034 4.42 6.761 7.541 9.274a13 13 0 0 1 6.76 6.328c0 2.253 6.414 2.6 4.507 0-1.82-2.34-.606-4.854 1.214-6.501 1.04.26.78-1.56 0-.867-1.3-.26-1.387-2.6.347-1.473 3.033.953-.174-2.167-1.3-2.254-2.514-1.56-5.374-3.293-6.588-6.067 3.294 0 6.674 1.82 9.968.78 2.687-1.387 5.374 0 6.327 2.427 2.08-.347 1.214-2.427 0-3.12 1.474-.607 2.601-1.907.694-3.034-.867-1.214 1.3-3.467-1.474-3.294.087-2.167-.693-4.074-3.034-4.854-2.34-1.906-9.187 2.947-8.927-1.473-.694-2.427 2.773-.347 3.727-1.56.953-2.6-4.767-2.254-2.86-4.334 1.213-.694 7.02-1.82 2.513-2.687a7.19 7.19 0 0 1-6.067-.954c-1.647 2.688-6.241-1.56-5.461 3.294-.606 1.82-4.767 6.588-5.894 2.947.867-2.86 5.894-3.727 4.334-7.627-.26-2.34-2.253.433-3.12.26-.52-1.474 1.387-3.294 2.773-3.64 2.601 2.08 2.601-2.601 5.201-2.168 1.82-.433-.607-1.213-1.127-1.56.52-1.3 3.381-1.993.607-3.207-2.514-1.733-4.334 1.82-6.327 1.994-1.907-2.167 1.733-3.207 2.773-4.334.087-.867-2.08-.26-1.473-1.04.606-.954 4.507-1.04 2.6-2.6a12.74 12.74 0 0 0-8.841.52c-1.734.52-2.167 4.333-3.64 4.16-.607-1.733.26-5.027-2.081-5.46m13.002 36.664c2.08-.347 0 3.207-.867 3.12 0-1.214-3.12-1.127-1.127-2.254a6.3 6.3 0 0 1 1.994-.866"/></svg>