<svg xmlns="http://www.w3.org/2000/svg" width="600" height="300" fill="none"><g clip-path="url(#a)"><mask id="b" width="601" height="300" x="0" y="0" maskUnits="userSpaceOnUse" style="mask-type:luminance"><path fill="#fff" d="M0 0h600.029v300H0z"/></mask><g fill-rule="evenodd" clip-rule="evenodd" mask="url(#b)"><path fill="#FFD100" d="M0 0h600v75H0z"/><path fill="#fff" d="M0 75h600v75H0z"/><path fill="#BE0027" d="M0 150h600v75H0z"/><path fill="#3B5AA3" d="M0 225h600v75H0z"/><path fill="#239E46" d="M0 0v300l300-149.59z"/></g><path fill="#fff" fill-rule="evenodd" d="M109.541 75.128c-55.985-2.832-81.606 41.824-81.54 76.338-.132 40.836 38.596 74.427 74.295 72.451-19.233-9.089-42.812-34.711-42.944-72.649-.198-34.316 19.43-64.218 50.255-76.14z" clip-rule="evenodd"/><path fill="#fff" fill-rule="evenodd" d="m108.75 111.749-7.903-6.125-9.617 3.03 3.425-9.485-5.796-8.167 10.012.395 5.927-8.102 2.833 9.683 9.484 3.161-8.299 5.599zm-.197 34.316-7.904-6.192-9.616 3.03 3.49-9.418-5.861-8.168 10.077.33 5.928-8.036 2.766 9.616 9.55 3.228-8.364 5.598zm.131 34.645-7.903-6.192-9.55 3.03 3.424-9.418-5.796-8.168 10.012.33 5.927-8.036 2.833 9.616 9.484 3.162-8.299 5.664zm-.131 34.908-7.904-6.125-9.682 3.029 3.49-9.484-5.861-8.167 10.077.395 5.928-8.102 2.766 9.683 9.551 3.161-8.365 5.599z" clip-rule="evenodd"/></g><defs><clipPath id="a"><path fill="#fff" d="M0 0h600v300H0z"/></clipPath></defs></svg>