<svg xmlns="http://www.w3.org/2000/svg" width="600" height="300" fill="none"><g clip-path="url(#a)"><path fill="#006" d="M0 0h600v300H0z"/><path fill="#fff" fill-rule="evenodd" d="m432.47 81.276 4.164-13.389-11.212-8.498 14.095-.16L444.323 46l4.484 13.229 14.176.4-11.293 8.419 4.005 13.389-11.613-8.018m21.704 10.423 8.329-11.144-7.769-11.866 13.375 4.65 8.809-10.823v14.11l13.135 5.131-13.455 4.009-.641 14.03-8.169-11.545M400.595 92.42l-.56-14.03-13.455-4.169 13.375-4.97V55.3l8.729 10.823 13.455-4.49-7.849 11.785 8.249 11.225-13.615-3.608m-31.714 32.791-5.926-12.668-13.936 1.443 10.252-9.86-5.286-13.07 12.173 6.575 10.652-9.46-2.723 13.95 11.932 7.135-13.854 2.004m-14.176 44.577-10.651-8.899-12.013 7.376 5.125-13.389-10.331-9.3 13.855.561 5.606-13.149 3.444 13.79 13.775 1.203-11.693 7.857m2.563 48.424-13.214-3.848-8.089 11.625-.561-14.351L331 167.944l12.894-4.971v-14.431l8.569 11.304 13.134-4.49-7.688 12.026m23.626 40.729-13.615 1.924-2.803 13.95-6.247-12.828-13.695 1.283 9.771-9.861-5.686-13.149 12.253 6.815 10.251-9.461-2.242 13.951m36.039 30.465-12.093 6.575 2.082 14.11-10.171-9.941-12.494 6.093 5.847-12.748-9.851-10.342 13.855 2.084 6.407-12.426 2.723 13.95m43.086 7.215-6.647 12.267 9.37 10.583-13.935-2.646L416.613 268l-1.923-13.87-13.774-3.207 12.653-5.933-1.361-14.03 9.77 10.262m45.97-10.503-.4 13.951 13.054 5.131-13.615 4.008-.961 14.031-8.009-11.465-13.614 3.527 8.649-11.144-7.528-11.785 13.294 4.57m43.647-162.832 9.611 10.102 12.734-5.933-6.648 12.667 9.21 10.503-13.614-2.245-7.208 12.427-1.682-14.111-13.615-2.806 12.574-6.414m27.389 16.837 4.405 13.309 14.015.24-11.372 8.579 3.764 13.469-11.292-8.018-11.693 8.098 4.325-13.469-11.052-8.499 14.095-.32m15.617 26.617-1.602 13.95L553 169.868l-13.855 2.886-2.162 13.87-6.968-12.106-13.935 2.325 9.61-10.423-6.487-12.426 12.814 5.772m2.403 31.909-6.247 12.507 9.53 10.182-13.935-2.165-6.727 12.267-2.402-13.87-13.936-2.646 12.494-6.414-1.842-13.95 10.091 9.861m-7.849 31.348-11.772 7.376 3.043 13.87-10.812-9.22-12.013 6.895 5.046-13.068-10.492-9.701 13.935 1.203 5.607-12.828 3.523 13.79" clip-rule="evenodd"/><path fill="#012169" d="M0 0h271v161H0z"/><path fill="#fff" d="m31.758 0 103.319 60.71L237.972 0H271v20.796l-101.625 60.04L271 140.54V161h-33.875L135.5 100.96 34.298 161H0v-20.125l101.202-59.704L0 21.467V0z"/><path fill="#C8102E" d="M179.538 94.252 271 147.583V161L156.248 94.252zm-77.913 6.708 2.541 11.74-81.3 48.3H0zM271 0v1.006L165.564 64.065l.847-14.759L249.828 0zM0 0l101.202 59.033H75.795L0 14.088z"/><path fill="#fff" d="M102.048 0v161h67.75V0zM0 53.667v53.666h271V53.667z"/><path fill="#C8102E" d="M0 64.735v32.2h271v-32.2zM115.598 0v161h40.65V0z"/></g><defs><clipPath id="a"><path fill="#fff" d="M0 0h600v300H0z"/></clipPath></defs></svg>