<svg xmlns="http://www.w3.org/2000/svg" width="600" height="300" fill="none"><g clip-path="url(#a)"><g clip-path="url(#b)"><path fill="#171796" d="M0 0h600v300H0z"/><path fill="#fff" d="M0 0h600v200H0z"/><path fill="red" d="M0 0h600v100H0z"/><path fill="#fff" d="M300.4 224.804a56.98 56.98 0 0 0 56.861-56.798v-67.849H243.602v67.787a56.985 56.985 0 0 0 56.798 56.798z"/><path fill="red" d="M267.563 102.269h-21.789v24.023h21.851zm0 48.046h21.912v-24.023h-21.974zm-21.789 17.567c0 2.173.125 4.345.373 6.456h21.478v-24.023h-21.851zm65.614-17.567h-21.851v24.023h21.851zm0 48.046h21.85v-24.023h-21.85zm21.85 13.16a55.4 55.4 0 0 0 12.477-13.16H333.3v13.16zm-65.675-13.16h21.912v-24.023h-21.974zm-12.477 0a55.4 55.4 0 0 0 12.477 13.16v-13.16zm49.101 24.023a53.5 53.5 0 0 0 7.139-.993v-23.03h-21.851v23.03c2.335.487 4.699.819 7.077.993 2.545.186 5.09.124 7.635 0M354.655 174.338c.248-2.111.372-4.283.372-6.456v-17.567h-21.851v24.023zm-43.329-24.023h21.85v-24.023h-21.85zm0-48.046h-21.85v24.023h21.85zm43.701 24.023v-24.023h-21.851v24.023z"/><path fill="#fff" d="M356.268 98.295 369.8 67.568l-10.304-16.636-17.133 6.332-12.043-13.781-15.767 9.125L300.4 41l-14.091 11.546-15.829-9.063-12.043 13.78-17.133-6.393L231 67.63l13.532 30.665a135.2 135.2 0 0 1 55.868-11.98c19.864 0 38.797 4.283 55.868 11.98"/><path fill="#0093DD" d="m258.81 58.567-17.009-6.207-9.497 15.332 3.662 8.256 9.187 20.92a136.4 136.4 0 0 1 21.478-7.45z"/><path fill="#fff" stroke="#000" stroke-width=".186" d="M257.816 73.775a8.24 8.24 0 0 1 .993 3.849c0 4.532-3.724 8.256-8.318 8.256a8.32 8.32 0 0 1-8.132-6.704 8.32 8.32 0 0 0 7.263 4.283 8.32 8.32 0 0 0 8.194-9.684Z"/><path fill="#000" d="m243.042 70.486.621-3.042-2.359-1.986-.062-.062.124-.062 2.856-.993.621-2.98v-.124l.124.062 2.296 1.986 2.856-.993h.124v.124l-.621 2.98 2.297 1.986.124.124h-.186l-2.855.994-.621 2.98v.123l-.062-.062-2.297-1.986-2.855.993h-.187z"/><path fill="#F7DB17" d="m246.767 66.513 2.173 1.862 2.669-.931zm0-.125 4.842.994-2.11-1.863zm-5.152-.993 4.842.931-2.173-1.862zm4.842 1.056-4.842-.932 2.111 1.863zm.248-.187 3.228-3.724-2.669.93zm-3.476 3.973 3.228-3.724-2.669.93zm3.29-3.662-3.228 3.724 2.669-.931zm3.476-3.973-3.228 3.724 2.67-.93zm-3.476 3.724-1.614-4.717-.558 2.793zm1.676 4.966-1.552-4.655-.558 2.793zm-1.49-4.717 1.614 4.655.559-2.793zm-1.676-4.966 1.552 4.655.621-2.793z"/><path fill="#171796" d="m286.433 53.974-15.767-8.94L258.81 58.63l7.821 30.79a136.4 136.4 0 0 1 22.409-3.725z"/><path fill="red" d="M264.707 81.784a144 144 0 0 1 23.712-3.973l-.62-8.008a152.5 152.5 0 0 0-25.079 4.159zm-3.911-15.52a160 160 0 0 1 26.32-4.345l-.683-7.883c-9.32.76-18.559 2.296-27.623 4.593z"/><path fill="#0093DD" d="m314.484 53.992-.033.02-14.002-11.467-13.971 11.443 2.63 31.718c3.741-.309 7.522-.473 11.341-.473 3.837 0 7.636.166 11.393.478z"/><path fill="#000" d="M300.42 68.255c-.026-.003-.065.015-.101.066-.274.368-.529.69-.802 1.06-.287.09-.356.264-.246.511-.384-.038-.428.284-.444.636q-.553-.838-1.198-.452c-.016-.338-.275-.497-.646-.576a1.2 1.2 0 0 1-.641-.214c-.088-.061-.162-.094-.25-.156-.186-.13-.333-.007-.253.11l1.18 1.915a.27.27 0 0 0 .129.3l.206.584-.047.166c-.325-.154-.652-.174-.977-.196-.25-.011-.422-.073-.531-.201-.079-.093-.134-.038-.135.12-.005.786.238 1.492.881 2.196q-.51.008-1.021.03c-.116.01-.14.058-.107.153.185.448.498.852 1.209 1.127a.96.96 0 0 0-.525.765c-.014.33-.111.562-.312.67-.088.047-.119.095-.036.156.373.272.832.284 1.317.164a2.06 2.06 0 0 0-.291 1.25c.306.083.606.023.903-.076-.042.09-.065.258-.076.455q-.016.254-.153.505c-.047.048-.096.123.006.15.494.134.953.076 1.346-.07 0 .358.003.717.112 1.07.026.085.103.15.183.038.228-.314.474-.582.776-.76.045.132.11.247.229.316q.212.122.225.505c0 .044-.003.088.052.132.219.01.756-.559.866-.878.303.178.418.362.646.678.081.112.146.043.189-.037.091-.357.098-.707.097-1.065.392.146.851.203 1.346.07.101-.029.053-.104.006-.15a1.4 1.4 0 0 1-.167-.538c-.013-.196-.02-.332-.063-.422.297.1.596.159.903.077.043-.437-.078-.852-.31-1.251.485.118.964.107 1.336-.165.084-.06.051-.109-.035-.156-.201-.107-.299-.34-.312-.67a.96.96 0 0 0-.526-.764c.711-.275 1.024-.681 1.21-1.127.032-.097.009-.146-.108-.153-.339-.015-.706-.035-1.046-.04.643-.703.892-1.414.889-2.2-.002-.158-.056-.214-.135-.12-.109.128-.264.202-.512.215-.327.022-.64.035-.965.188l-.048-.166c.068-.194.156-.383.226-.578.12-.078.15-.181.129-.3.393-.639.755-1.277 1.149-1.916.079-.116-.068-.238-.252-.109-.088.062-.161.095-.25.156a1.24 1.24 0 0 1-.643.214c-.369.08-.613.245-.629.584q-.646-.387-1.198.451c-.016-.351-.06-.672-.444-.635.11-.247.025-.428-.262-.518-.274-.368-.674-.692-.947-1.06-.046-.05-.075-.069-.102-.066z"/><path fill="#F7DB17" d="M304.143 70.304c-.075-.038-.183.025-.239.14s-.048.25.028.288c.059.03.124-.009.175-.082l.033-.053q.005-.006.007-.013c.056-.115.072-.24-.003-.277zm-7.368 0c.076-.038.182.025.238.14s.058.243-.019.28c-.076.04-.151-.034-.207-.15-.056-.114-.089-.232-.014-.27zm6.678 1.332a.087.087 0 1 0 0 .174.086.086 0 0 0 .086-.088.087.087 0 0 0-.086-.086m-5.932 0a.1.1 0 0 0-.062.025.1.1 0 0 0-.025.062q0 .036.026.061a.085.085 0 0 0 .122 0 .09.09 0 0 0 .026-.062.09.09 0 0 0-.026-.061.09.09 0 0 0-.061-.025m6.317-.448a28 28 0 0 0-3.325-.195c-1.109 0-2.22.06-3.338.169-.038.012-.031.132.021.126a35 35 0 0 1 3.319-.166c1.093 0 2.184.059 3.277.19.058.006.08-.118.047-.124z"/><path fill="#F7DB17" d="M297.146 71.065c1.13-.11 2.251-.173 3.367-.171 1.11 0 2.217.062 3.327.195l.163-.27a.17.17 0 0 1-.132-.008c-.112-.055-.136-.236-.053-.403.082-.167.241-.257.353-.203.057.028.091.092.1.168l.656-1.087c-.3.191-.483.315-.855.37-.413.06-.602.205-.541.452.056.23-.084.196-.296.08-.462-.252-.796.104-.959.519-.108.274-.234.266-.247-.02-.006-.102 0-.192-.011-.293-.031-.328-.131-.421-.317-.33-.237.115-.258.037-.202-.085.041-.088.127-.189.097-.325-.013-.099-.097-.136-.222-.144-.268-.36-.687-.711-.955-1.07-.268.359-.55.71-.818 1.07-.126.007-.209.044-.223.144-.03.136.076.23.117.319.056.12.034.198-.201.084-.187-.09-.274-.005-.305.323q-.014.153-.019.308c-.013.285-.14.293-.247.019-.163-.415-.518-.77-.981-.52-.214.117-.299.15-.268-.079.034-.253-.158-.391-.571-.451-.372-.055-.555-.18-.855-.371l.617 1.003a.17.17 0 0 1 .078-.084c.112-.055.27.036.353.203s.059.35-.053.403a.2.2 0 0 1-.047.015l.147.24zm6.457 1.34c-.01.004-.01.006-.035.016-.068.028-.118.097-.198.182a2.5 2.5 0 0 1-.31.277c-.018.015-.037.028-.065-.009s-.01-.051.009-.065c.118-.09.219-.182.3-.267q.067-.071.113-.136-.21-.023-.417-.044c-.117.035-.231.081-.327.14a.6.6 0 0 0-.202.184c-.011.02-.023.04-.064.016-.04-.023-.028-.044-.016-.065a.65.65 0 0 1 .232-.216q.074-.044.156-.08a25 25 0 0 0-.472-.036.5.5 0 0 0-.09.069.6.6 0 0 0-.082.099c-.014.019-.027.038-.065.011-.038-.026-.027-.045-.012-.064a.7.7 0 0 1 .094-.114l.013-.013-.354-.02-.012.01a.5.5 0 0 0-.137.185c-.008.022-.017.043-.06.027-.043-.018-.034-.039-.025-.06a.7.7 0 0 1 .066-.12l.04-.049a30 30 0 0 0-.506-.017.1.1 0 0 1-.021.016.5.5 0 0 0-.097.075.4.4 0 0 0-.07.093c-.012.02-.024.041-.064.017-.041-.023-.029-.042-.017-.063a.5.5 0 0 1 .086-.113l.031-.028a33 33 0 0 0-1.066-.001l.032.029a.6.6 0 0 1 .087.113c.012.02.023.04-.018.063-.041.024-.051.003-.065-.017a.4.4 0 0 0-.07-.093.5.5 0 0 0-.097-.075.05.05 0 0 1-.022-.018q-.254.005-.508.017a.535.535 0 0 1 .109.17c.009.022.018.043-.025.06s-.051-.004-.06-.026a.492.492 0 0 0-.152-.2q-.179.009-.357.02.01.007.019.017.052.05.094.113c.013.02.026.038-.012.065-.038.026-.051.007-.065-.012a.526.526 0 0 0-.176-.17l-.007-.005q-.243.014-.486.034.096.039.18.09a.65.65 0 0 1 .232.216c.012.02.024.04-.016.065-.04.023-.052.004-.065-.017a.6.6 0 0 0-.201-.183 1.5 1.5 0 0 0-.362-.15h-.003q-.199.015-.395.035.05.072.127.156.122.129.3.267c.019.014.037.028.009.065s-.047.022-.065.009a2.6 2.6 0 0 1-.31-.277c-.055-.055-.146-.163-.199-.206a2.4 2.4 0 0 0-.846-.216c-.225-.02-.468-.013-.674-.116.053.125.111.241.186.337.078.1.176.178.307.216.012.003.031.024.033.037q.061.346.248.568a1 1 0 0 0 .277.219 1.5 1.5 0 0 1-.253-.37 1.2 1.2 0 0 1-.114-.617c.002-.024.005-.047.05-.043.048.004.045.028.043.052-.016.18.013.376.106.569.082.174.234.349.428.509.035.028 0 .093-.042.08a1.16 1.16 0 0 1-.564-.339 1.25 1.25 0 0 1-.265-.584.7.7 0 0 1-.326-.241 1.4 1.4 0 0 1-.174-.302c.041.63.268 1.179.671 1.673.09.11.243.268.375.318.135.051.14.147-.029.148q-.075.002-.155.002.188.068.343.154c.187.108.319.239.329.402.002.023.003.047-.042.05-.047.003-.049-.02-.05-.043-.009-.126-.121-.235-.283-.328a3 3 0 0 0-.591-.235c-.227 0-.459-.002-.675.004.057.041.117.084.192.124.121.064.277.126.505.18q.196.046.343.133a1 1 0 0 1 .26.22c.015.018.03.038-.007.067s-.05.012-.066-.007a.8.8 0 0 0-.234-.199 1.2 1.2 0 0 0-.318-.124c-.237-.055-.4-.119-.527-.188a2 2 0 0 1-.27-.18c.264.577.662.842 1.228 1.013l.09.028q.007 0 .013.003.19.047.391.08c.136.023.245.042.384.055.024.001.047.004.043.05-.004.047-.028.044-.05.043-.146-.014-.256-.033-.391-.056a6 6 0 0 1-.252-.049 1 1 0 0 1-.157.018c-.342.02-.618.33-.64.727q0 .012-.002.023a2.5 2.5 0 0 1 .402-.312c.172-.1.351-.151.535-.101.022.006.046.012.033.057-.012.046-.034.04-.058.033-.156-.042-.312.004-.465.092a3 3 0 0 0-.463.372c-.035.217-.121.42-.302.555.09.05.153.096.24.066.127-.057.253-.115.384-.159.134-.045.271-.076.415-.084.024 0 .047 0 .049.046.001.047-.021.047-.046.049a1.4 1.4 0 0 0-.388.078q-.167.059-.327.134c.325.069.677-.002.981-.117.089-.032.155-.062.196-.06.075-.044.165-.078.253-.116a1 1 0 0 1 .268-.084c.023-.003.047-.006.051.041.006.047-.017.049-.041.052a.6.6 0 0 0-.327.116c0 .03-.097.084-.185.141a1 1 0 0 0-.128.099c-.14.126-.212.266-.277.422a2 2 0 0 0-.1.33q.12-.242.296-.446a1.5 1.5 0 0 1 .508-.39c.02-.01.042-.02.061.022.02.043-.001.051-.022.062a1.4 1.4 0 0 0-.476.367 2.2 2.2 0 0 0-.322.508c-.046.094-.012.002-.062.127.162-.18.312-.33.475-.452.194-.147.416-.231.615-.196.022.005.046.009.038.055-.007.045-.031.04-.054.038-.171-.031-.368.047-.543.178a4 4 0 0 0-.539.531c.271.038.539-.038.798-.125.134-.044.269-.199.351-.224a2 2 0 0 1 .234-.245c.018-.015.036-.03.067.006.03.035.011.05-.006.066a2 2 0 0 0-.142.138 2 2 0 0 0-.135.166c-.009.012-.019.025-.035.024-.089.103-.222.238-.253.353-.084.309-.037.544-.18.847a.9.9 0 0 0 .258-.197c.078-.088.138-.198.188-.338.054-.153.14-.287.246-.398.11-.113.242-.2.384-.252.022-.008.044-.017.06.027.016.045-.006.052-.028.06a.95.95 0 0 0-.35.232 1 1 0 0 0-.225.363 1.1 1.1 0 0 1-.208.368.9.9 0 0 1-.229.187c.076-.005.115-.015.178-.01a.96.96 0 0 0 .41-.176.76.76 0 0 0 .227-.303c.009-.022.019-.042.062-.023s.034.04.023.062a.85.85 0 0 1-.254.34.8.8 0 0 1-.289.136c.237-.007.458-.062.687-.147.096-.035.128-.247.187-.306.047-.085.097-.165.155-.232a.64.64 0 0 1 .241-.187c.022-.009.043-.018.06.026.018.043-.004.052-.025.06a.55.55 0 0 0-.204.16c-.053.061-.1.136-.144.216.014.107-.075.335-.078.449a3 3 0 0 0 .078.9q.117-.156.238-.283l.001-.022c.027-.156.049-.322.059-.488a2.5 2.5 0 0 0-.009-.484c-.002-.024-.005-.047.04-.052.047-.006.05.018.052.042.02.163.02.332.01.5a5 5 0 0 1-.044.395c.079-.075.078-.075.113-.151q.082-.177.099-.349a1 1 0 0 0-.019-.338c-.006-.022-.011-.046.035-.056.045-.01.051.012.056.035q.044.178.02.371a1.2 1.2 0 0 1-.072.293q.123-.091.262-.18a4 4 0 0 1-.004-.334c.003-.1.01-.197.026-.28.006-.028.011-.058.069-.048s.055.04.049.071a2 2 0 0 0-.024.26c-.003.115 0 .239.006.358.008.12.072.272.184.338.152.091.233.24.274.403a2.6 2.6 0 0 0 .004-.588 1.4 1.4 0 0 0-.168-.541c-.011-.021-.023-.04.018-.065.04-.024.052-.003.063.017q.14.243.18.579a2.8 2.8 0 0 1-.019.718c.15-.121.56-.38.518-.874a.5.5 0 0 0-.042-.11c-.01-.021-.02-.042.021-.062.041-.021.052 0 .062.02a.7.7 0 0 1 .057.162 1 1 0 0 1 .016.112c.019-.01.067-.064.075-.058.036.024.086.056.118.08a1.089 1.089 0 0 1-.041-.633c.006-.022.01-.045.056-.035.045.01.04.034.035.056a1 1 0 0 0-.019.338q.02.17.099.349c.005.012.011.023.007.037q.052.044.103.095a5 5 0 0 1-.041-.375 2.5 2.5 0 0 1 .01-.502c.003-.023.006-.047.051-.04.046.005.043.029.04.05-.019.157-.019.32-.009.485a5 5 0 0 0 .061.498c.079.087.139.177.223.289.081-.299.108-.599.097-.9-.003-.112-.101-.334-.095-.445a1.4 1.4 0 0 0-.147-.222.54.54 0 0 0-.205-.159c-.022-.009-.042-.018-.026-.06.017-.043.039-.035.06-.027a.65.65 0 0 1 .241.187q.084.1.152.227c.084.01.115.263.21.312.227.084.439.138.667.147a.8.8 0 0 1-.287-.137.85.85 0 0 1-.255-.34c-.009-.022-.019-.043.024-.062s.051.003.062.024c.055.126.129.23.226.303.125.097.425.182.589.187a1 1 0 0 1-.231-.189 1.1 1.1 0 0 1-.208-.367 1 1 0 0 0-.225-.364.94.94 0 0 0-.35-.23c-.022-.01-.043-.017-.028-.061.016-.043.038-.035.06-.028.142.053.274.138.384.253.106.109.192.244.246.397.05.14.11.249.188.339q.103.118.261.198c-.144-.304-.097-.54-.18-.849-.051-.19-.341-.407-.284-.47.067-.076.196.129.365.186.258.087.525.164.795.126a4 4 0 0 0-.539-.532c-.175-.132-.349-.206-.518-.176-.023.004-.045.009-.054-.038-.008-.046.015-.05.038-.055.199-.035.396.047.59.194.163.124.296.258.458.439-.027-.07 0-.02-.045-.114a2.3 2.3 0 0 0-.323-.507 1.5 1.5 0 0 0-.477-.368c-.02-.01-.041-.019-.022-.062.019-.04.041-.032.062-.022.201.096.369.231.507.39.12.137.217.291.299.452a1.6 1.6 0 0 0-.1-.334 1.1 1.1 0 0 0-.277-.422c-.091-.083-.307-.206-.306-.264-.042-.022-.048-.016-.092-.035a1 1 0 0 0-.242-.077c-.023-.003-.047-.006-.041-.051.006-.047.028-.044.052-.041.073.009.169.04.268.082.048.02.097.063.144.088.078.006.204.07.306.11.303.114.656.185.98.116a4 4 0 0 0-.329-.134 1.4 1.4 0 0 0-.388-.078c-.023-.002-.047-.002-.046-.049s.025-.046.049-.046c.144.006.281.039.415.084.131.044.257.102.384.16.087.039.148-.011.24-.067-.181-.135-.267-.338-.302-.553l-.003-.003c-.15-.14-.304-.28-.463-.372-.153-.089-.309-.134-.465-.093-.022.006-.046.012-.058-.032-.011-.046.011-.052.033-.058.184-.048.363.002.535.102.139.08.274.194.403.313l-.001-.025c-.022-.397-.299-.706-.64-.727-.115-.007-.278.031-.274-.047.006-.087.143-.064.345-.126.566-.17.963-.436 1.229-1.015-.079.06-.161.122-.273.182a2 2 0 0 1-.527.188q-.18.043-.318.124a.9.9 0 0 0-.234.199c-.014.017-.029.036-.066.007-.037-.03-.02-.047-.007-.066a1 1 0 0 1 .26-.22q.149-.088.343-.135c.228-.053.384-.115.505-.18.075-.039.135-.08.192-.123-.217-.006-.448-.004-.675-.004-.21.064-.425.14-.591.235-.162.093-.274.2-.283.328-.001.024-.003.047-.05.043-.047-.003-.045-.027-.042-.05.011-.163.142-.294.329-.402.102-.057.219-.109.343-.154q-.078 0-.153-.002c-.171-.003-.165-.097-.03-.148.133-.05.28-.208.37-.318.398-.491.606-1.05.671-1.663a1.4 1.4 0 0 1-.17.292.7.7 0 0 1-.326.241 1.25 1.25 0 0 1-.265.584 1.1 1.1 0 0 1-.543.338c-.043.012-.076-.051-.043-.08a1.5 1.5 0 0 0 .409-.507c.092-.192.123-.388.106-.569-.001-.023-.004-.047.043-.051.046-.005.049.019.05.042.018.197-.015.41-.115.618a1.5 1.5 0 0 1-.253.37q.162-.088.275-.22.187-.221.251-.568c.001-.011.02-.032.032-.036a.6.6 0 0 0 .307-.217c.075-.095.133-.21.186-.335-.206.101-.448.094-.673.115-.313.028-.542.1-.815.223z"/><path fill="#F7DB17" d="M303.516 72.147c-1.001-.13-2-.166-3.003-.168a29 29 0 0 0-3.028.165c-.029.01-.022.049-.02.068.003.041.054.051.178.04.946-.089 1.89-.137 2.842-.137.992 0 1.988.03 2.998.15.049.013.114-.125.033-.12z"/><path fill="#F7DB17" fill-rule="evenodd" d="M297.515 72.043a29 29 0 0 1 2.998-.162q1.488-.002 2.98.187l.045-.187a.18.18 0 0 1-.245-.073.18.18 0 0 1 .009-.185.2.2 0 0 1 .072-.064.18.18 0 0 1 .245.093l.088-.25a28 28 0 0 0-3.194-.18 35 35 0 0 0-3.226.158l.085.24a.18.18 0 0 1 .149-.079.181.181 0 0 1 0 .362.2.2 0 0 1-.053-.009l.049.139zm4.512-.612a.18.18 0 1 0 0 .362.18.18 0 0 0 0-.362m0 .094a.088.088 0 0 0-.082.087.09.09 0 0 0 .082.087c.047 0 .087-.04.087-.087a.087.087 0 0 0-.087-.087m-1.592-.134a.182.182 0 0 0-.128.31.182.182 0 0 0 .279-.028.18.18 0 0 0-.151-.281m0 .094a.09.09 0 0 0-.061.026.09.09 0 0 0 0 .123.1.1 0 0 0 .062.025q.036 0 .061-.025a.1.1 0 0 0 .026-.062.088.088 0 0 0-.088-.087m-1.565-.058a.186.186 0 0 0-.133.05.2.2 0 0 0-.041.06.2.2 0 0 0 0 .141q.015.035.041.06t.061.039a.18.18 0 0 0 .195-.044.18.18 0 0 0 0-.25.18.18 0 0 0-.123-.056m0 .094a.087.087 0 0 0-.087.087c0 .048.039.086.087.086a.1.1 0 0 0 .058-.027.08.08 0 0 0 .024-.06.08.08 0 0 0-.024-.06.1.1 0 0 0-.058-.026" clip-rule="evenodd"/><path fill="#000" d="M300.502 70.298a.48.48 0 0 0-.147-.257.5.5 0 0 0-.275-.13c-.049-.006-.058-.085-.01-.1a.47.47 0 0 0 .231-.195 1 1 0 0 0 .139-.377c.008-.05.094-.052.102-.002a.65.65 0 0 0 .143.306.7.7 0 0 0 .283.203c.046.018.037.093-.011.1a.33.33 0 0 0-.208.129.9.9 0 0 0-.147.325c-.012.048-.091.045-.101-.003zm.049-.173a.8.8 0 0 1 .119-.215.5.5 0 0 1 .145-.124.788.788 0 0 1-.317-.347 1 1 0 0 1-.111.233.6.6 0 0 1-.159.17q.111.043.198.12a.6.6 0 0 1 .125.163m1.175 7.525-.758.303c-.025.01-.051.02-.07-.031-.021-.05.006-.06.031-.07l.757-.304c.025-.01.052-.02.071.031.021.05-.006.06-.031.07m.087-.48-.889.483c-.023.013-.048.026-.075-.022-.026-.049-.001-.062.022-.076l.889-.482c.023-.013.049-.026.075.022.026.049.001.062-.022.075m-2.686-.096.888.483c.024.013.049.026.022.075-.026.049-.05.035-.075.022l-.888-.482c-.024-.014-.049-.027-.022-.075.026-.049.05-.036.075-.022m.075.474.757.303c.027.01.052.02.031.07-.02.052-.045.042-.072.032l-.758-.303c-.025-.01-.05-.02-.031-.07.021-.052.046-.042.071-.032zm.329.639c.202.048.384.07.527.045a.35.35 0 0 0 .281-.215v-.725a1.7 1.7 0 0 1-.446-.06.42.42 0 0 1-.296-.262c-.06-.157-.039-.346-.006-.484.008-.026.014-.053.067-.04.053.014.047.04.039.067-.029.12-.048.285.002.417a.31.31 0 0 0 .223.196c.134.037.292.056.452.056.158 0 .315-.02.447-.059a.57.57 0 0 0 .283-.181.35.35 0 0 0 .084-.259.18.18 0 0 0-.072-.118.36.36 0 0 0-.189-.054c-.069-.003-.138.01-.209.023l-.113.02c-.028.003-.054.007-.062-.047-.007-.055.021-.06.047-.062l.108-.018c.076-.015.154-.03.234-.026a.46.46 0 0 1 .247.075.27.27 0 0 1 .118.192.45.45 0 0 1-.108.343.67.67 0 0 1-.337.217 1.7 1.7 0 0 1-.403.061V78a.03.03 0 0 1 .003.024c.055.121.15.184.277.208.142.026.325.003.526-.046.027-.007.053-.013.067.04.011.054-.014.06-.042.066-.214.052-.41.075-.57.047a.46.46 0 0 1-.317-.194.46.46 0 0 1-.316.194c-.16.03-.356.006-.571-.047-.026-.006-.054-.012-.041-.066.012-.053.04-.047.066-.04zm.524.309.591-.014c.028 0 .056-.001.056.055.002.056-.026.056-.054.056l-.592.013c-.028 0-.054.001-.056-.054-.001-.056.027-.056.055-.056m.872-4.535c.222-.183.431-.334.623-.436.195-.106.373-.164.528-.157.028.002.054.002.053.058-.002.054-.03.054-.058.053-.135-.006-.294.047-.473.143a3.8 3.8 0 0 0-.604.425c-.02.017-.042.035-.078-.008-.035-.042-.013-.06.008-.078zm-.89.083a3 3 0 0 0-.654-.462c-.205-.105-.395-.159-.535-.147-.027.003-.054.006-.058-.05-.006-.055.022-.058.05-.06.161-.014.37.046.594.158.224.114.463.281.678.478.021.02.041.037.003.078-.037.04-.057.022-.078.003zm-.313 1.477q.082-.182.2-.322.118-.139.256-.25c.02-.018.043-.036.076.007.036.043.014.06-.007.078q-.131.105-.241.235a1.3 1.3 0 0 0-.184.296c-.012.025-.022.05-.072.028s-.04-.047-.028-.072m.546-2.551q.109.144.167.328.059.18.058.41c.007.118.009.243-.011.367a.8.8 0 0 1-.142.362.424.424 0 0 1-.484.156c.042.147.075.306.009.453-.012.026-.049.04-.075.026a5 5 0 0 0-.189-.091 2 2 0 0 0-.187-.075l-.001-.002a2 2 0 0 1-.347-.164.8.8 0 0 1-.221-.183l.001.003a.6.6 0 0 1-.129-.25 1.2 1.2 0 0 1-.032-.256 4 4 0 0 1-.286-.17 1.6 1.6 0 0 1-.237-.193c-.019-.02-.038-.04.002-.078s.059-.018.078.001q.086.089.221.178.132.09.3.178.273.031.544.16.233.112.466.283c.019.01.028.024.04.03l.037.028a.35.35 0 0 0 .223.023.3.3 0 0 0 .18-.124.7.7 0 0 0 .124-.314c.017-.114.016-.231.008-.345v-.003a1.2 1.2 0 0 0-.051-.38 1 1 0 0 0-.15-.295c-.016-.022-.033-.044.01-.076.043-.033.06-.01.077.01zm-.552 1.54a2.7 2.7 0 0 0-.458-.28 1.7 1.7 0 0 0-.462-.144q.005.106.027.2a.45.45 0 0 0 .104.202l.002.002a.7.7 0 0 0 .191.157q.131.079.331.156l-.001-.001q.099.035.195.079.068.03.137.065c.028-.123-.015-.264-.054-.393l-.014-.043zm1.142-1.475a.9.9 0 0 0-.15.295 1.2 1.2 0 0 0-.052.38v.003c-.007.113-.009.232.009.344.018.11.054.218.123.315a.32.32 0 0 0 .18.124.35.35 0 0 0 .224-.024l.036-.028c.009-.006.019-.018.04-.03.155-.113.31-.21.466-.282q.271-.129.545-.16.166-.089.3-.178.134-.09.219-.178c.019-.02.038-.04.078-.002s.021.058 0 .078a1.5 1.5 0 0 1-.237.193 4 4 0 0 1-.285.17q-.003.135-.033.257a.6.6 0 0 1-.129.25l.001-.003a.8.8 0 0 1-.22.182q-.139.083-.349.165l-.001.001a2 2 0 0 0-.187.075 4 4 0 0 0-.189.092.06.06 0 0 1-.075-.027c-.066-.147-.033-.306.009-.453a.43.43 0 0 1-.241.01.4.4 0 0 1-.243-.166.8.8 0 0 1-.142-.362 1.7 1.7 0 0 1-.011-.366 1.3 1.3 0 0 1 .058-.41 1 1 0 0 1 .167-.329c.017-.022.033-.044.077-.01.044.032.028.055.01.076zm1.382 1.052a1.6 1.6 0 0 0-.461.144 2.7 2.7 0 0 0-.458.28l-.012.042c-.039.13-.082.27-.054.393l.137-.065q.095-.044.195-.08l-.001.002q.2-.077.331-.156a.7.7 0 0 0 .193-.157l.001-.002a.5.5 0 0 0 .104-.203 1 1 0 0 0 .028-.198z"/><path fill="#000" fill-rule="evenodd" d="M301.765 74.165a.32.32 0 0 0-.319.318.32.32 0 0 0 .319.319.32.32 0 0 0 .309-.319.32.32 0 0 0-.309-.318m0 .101a.217.217 0 1 0 0 .433.217.217 0 0 0 0-.433m0 .088a.127.127 0 0 0-.091.219.1.1 0 0 0 .042.028q.023.01.049.01a.129.129 0 0 0 .128-.128.13.13 0 0 0-.128-.129m-2.497-.182a.32.32 0 0 1 .319.318.32.32 0 0 1-.319.319.319.319 0 0 1 0-.637m0 .101a.217.217 0 1 1-.001.433.217.217 0 0 1 .001-.433m0 .089a.128.128 0 1 1 0 .256.128.128 0 0 1 0-.256" clip-rule="evenodd"/><path fill="#000" d="M293.945 53.799c-.027-.002-.064.017-.099.07-.259.378-.501.71-.761 1.09-.283.1-.345.277-.226.52-.385-.023-.416.3-.419.652q-.584-.815-1.214-.405c-.029-.337-.294-.486-.668-.551a1.2 1.2 0 0 1-.649-.189c-.09-.058-.165-.088-.256-.146-.19-.122-.332.005-.248.118l1.252 1.87a.27.27 0 0 0 .141.294l.228.576-.04.168c-.331-.142-.658-.149-.984-.158-.25-.002-.425-.058-.538-.181-.083-.09-.136-.034-.131.125.026.786.295 1.482.965 2.16q-.51.028-1.019.07c-.116.013-.138.063-.102.157.203.44.531.832 1.252 1.08a.96.96 0 0 0-.495.784c-.001.33-.089.566-.286.681-.087.05-.116.1-.03.157.383.258.842.252 1.322.114a2.06 2.06 0 0 0-.243 1.261c.309.07.607-.001.9-.11-.039.09-.055.259-.059.456q-.005.255-.134.51c-.045.05-.09.128.012.15.499.115.956.04 1.343-.12.013.357.03.715.152 1.064.03.084.109.146.186.031.215-.323.451-.6.745-.79.051.13.12.243.242.307q.216.115.244.496c.002.044 0 .088.056.13.22.002.735-.587.833-.91.309.166.431.345.671.652.085.109.147.037.187-.044.077-.36.071-.71.056-1.068.398.13.859.17 1.348.018.1-.032.049-.105 0-.15a1.4 1.4 0 0 1-.187-.53c-.021-.196-.033-.332-.079-.42.3.088.601.136.905.042.026-.439-.11-.849-.358-1.238.49.099.967.07 1.329-.216.081-.063.047-.11-.042-.154-.204-.1-.311-.329-.337-.657a.96.96 0 0 0-.554-.745c.699-.302.997-.72 1.165-1.172.029-.098.003-.146-.113-.149-.34-.002-.707-.008-1.047 0 .615-.727.837-1.446.803-2.231-.007-.16-.064-.213-.139-.116-.104.132-.256.212-.504.235-.325.034-.638.06-.957.225l-.053-.165c.06-.196.141-.388.202-.586.118-.082.143-.186.118-.305.368-.653.705-1.305 1.075-1.958.075-.12-.077-.236-.256-.1-.086.066-.158.101-.244.166-.167.125-.37.212-.634.238-.366.094-.603.27-.607.608q-.66-.36-1.179.497c-.03-.35-.086-.67-.468-.618.1-.251.008-.428-.282-.507-.287-.357-.7-.665-.987-1.022-.048-.05-.078-.066-.104-.062"/><path fill="#F7DB17" d="M297.743 55.704c-.076-.035-.181.032-.233.149-.051.116-.039.252.039.287.06.027.123-.014.172-.09l.03-.053.007-.014c.052-.117.063-.242-.013-.276zm-7.362.283c.075-.041.183.018.243.13.061.113.067.24-.008.282-.075.04-.153-.03-.213-.142-.06-.113-.097-.23-.024-.27zm6.724 1.074a.09.09 0 0 0-.084.09.087.087 0 0 0 .09.083.086.086 0 0 0 .084-.09.087.087 0 0 0-.09-.083m-5.928.227a.09.09 0 0 0-.06.028.087.087 0 0 0 .128.118.1.1 0 0 0 .023-.062.087.087 0 0 0-.091-.084m6.296-.689a28 28 0 0 0-3.33-.068 34 34 0 0 0-3.329.297c-.038.014-.026.134.025.126a35 35 0 0 1 3.31-.294 28 28 0 0 1 3.283.064c.057.004.075-.12.042-.125z"/><path fill="#F7DB17" d="M290.781 56.733a34 34 0 0 1 3.358-.3 28 28 0 0 1 3.331.068l.153-.277a.17.17 0 0 1-.132-.002c-.114-.052-.145-.232-.069-.401.076-.17.231-.267.345-.217.059.026.095.088.107.164l.614-1.111c-.293.202-.47.333-.84.403-.411.076-.594.227-.524.472.065.227-.076.199-.292.09-.472-.233-.792.136-.939.556-.097.278-.223.276-.248-.01-.009-.102-.007-.192-.021-.293-.044-.327-.147-.415-.33-.317-.233.124-.256.047-.205-.077.038-.09.119-.194.084-.33-.017-.097-.102-.13-.227-.135-.281-.348-.714-.683-.995-1.032-.254.37-.523.731-.777 1.1-.126.013-.207.053-.217.153-.025.138.085.228.129.315.061.118.042.197-.198.091-.19-.082-.273.006-.292.335a5 5 0 0 0-.007.308c-.002.286-.128.298-.246.029-.179-.408-.547-.75-1.001-.481-.208.124-.292.161-.27-.07.024-.254-.173-.385-.588-.429-.374-.04-.561-.158-.868-.338l.654.98a.17.17 0 0 1 .075-.087c.109-.06.272.024.36.189.089.163.073.346-.037.405a.2.2 0 0 1-.047.016l.157.234zm6.503 1.091-.034.018c-.067.03-.114.101-.19.19a2.6 2.6 0 0 1-.3.288c-.017.015-.036.029-.065-.007-.029-.035-.012-.05.006-.065q.172-.144.29-.279.064-.074.108-.14-.211-.016-.419-.027c-.115.04-.228.09-.321.152a.6.6 0 0 0-.195.191c-.011.021-.022.04-.064.019-.04-.022-.029-.043-.018-.064a.65.65 0 0 1 .224-.225q.071-.047.152-.086a25 25 0 0 0-.473-.018.5.5 0 0 0-.165.174c-.013.02-.025.04-.065.014-.039-.025-.028-.044-.014-.064a.7.7 0 0 1 .09-.117l.013-.014-.355-.007-.012.011a.5.5 0 0 0-.129.19c-.008.023-.016.044-.06.03-.043-.017-.035-.037-.027-.06a.6.6 0 0 1 .062-.121q.018-.026.037-.05-.254-.001-.506.001-.01.012-.02.017a.432.432 0 0 0-.161.174c-.011.021-.022.042-.063.02-.042-.022-.031-.041-.02-.062a.5.5 0 0 1 .083-.117l.029-.029q-.269.005-.536.015-.265.01-.529.025l.033.028q.052.049.091.11c.013.02.025.038-.015.064-.04.025-.051.005-.065-.016a.45.45 0 0 0-.174-.16.1.1 0 0 1-.023-.017q-.253.014-.507.035a.57.57 0 0 1 .116.166c.009.022.019.042-.023.062s-.052-.003-.061-.024a.482.482 0 0 0-.159-.194q-.178.014-.357.032l.02.017a.6.6 0 0 1 .098.11c.014.018.028.037-.009.065s-.051.01-.065-.01a.599.599 0 0 0-.191-.168q-.241.025-.483.053.098.035.182.083a.65.65 0 0 1 .241.207c.012.02.025.039-.014.066-.039.025-.051.006-.065-.014a.6.6 0 0 0-.209-.176 1.5 1.5 0 0 0-.367-.136h-.003q-.197.023-.393.05.052.07.133.151c.084.082.189.17.31.256.02.013.038.027.011.065-.026.038-.046.023-.064.01a2.6 2.6 0 0 1-.321-.264c-.056-.053-.152-.157-.206-.198a2.4 2.4 0 0 0-.854-.183c-.225-.012-.468.004-.678-.09.058.122.12.236.199.329a.6.6 0 0 0 .315.204c.012.003.032.023.034.036q.075.343.27.558.12.128.285.208a1.5 1.5 0 0 1-.267-.36 1.17 1.17 0 0 1-.137-.612c.001-.024.003-.047.048-.045.048.003.046.026.045.05-.009.181.028.376.128.565.089.17.247.34.447.492.036.027.004.093-.04.082a1.16 1.16 0 0 1-.576-.317 1.26 1.26 0 0 1-.287-.574.7.7 0 0 1-.335-.228 1.4 1.4 0 0 1-.185-.295 2.87 2.87 0 0 0 .734 1.646c.094.106.253.258.387.303.138.046.146.141-.023.15l-.155.007c.126.04.245.088.349.14.191.101.328.227.345.39.002.023.004.047-.041.051-.047.005-.049-.019-.052-.04-.013-.127-.129-.231-.295-.318a3 3 0 0 0-.6-.212c-.226.009-.458.016-.674.03.059.04.121.08.197.117a2 2 0 0 0 .511.16q.197.038.348.12.16.089.269.21c.015.018.03.036-.005.067-.036.03-.05.014-.067-.005a.8.8 0 0 0-.241-.19 1.2 1.2 0 0 0-.322-.11 2 2 0 0 1-.534-.169 2 2 0 0 1-.277-.17c.286.568.694.817 1.266.966l.091.024q.007.002.013.003.192.04.394.066c.136.016.246.031.386.04.024 0 .047.002.045.047-.003.048-.027.046-.049.045a6.206 6.206 0 0 1-.646-.08 1 1 0 0 1-.157.024c-.34.034-.604.355-.611.75l-.001.024c.125-.122.254-.24.389-.327.169-.106.346-.165.532-.122.022.005.046.01.034.056-.01.047-.032.041-.056.035-.157-.035-.311.016-.461.11a3 3 0 0 0-.449.39c-.027.218-.104.424-.28.566.092.047.157.09.242.057.125-.062.249-.124.378-.174.132-.05.268-.086.411-.1.024-.002.047-.003.051.044s-.019.048-.044.05a1.4 1.4 0 0 0-.385.093 4 4 0 0 0-.321.147c.327.056.676-.028.976-.154.087-.036.152-.068.193-.068.073-.047.162-.084.248-.126.096-.044.191-.082.265-.094.023-.004.046-.007.053.04.007.046-.016.049-.04.052a.6.6 0 0 0-.321.13c.001.03-.094.087-.18.148-.052.037-.1.08-.124.103a1.1 1.1 0 0 0-.261.432 2 2 0 0 0-.087.334 2.2 2.2 0 0 1 .279-.457c.132-.164.294-.307.492-.41.02-.01.042-.02.062.02.021.042.001.052-.019.063-.187.096-.339.23-.463.386a2.2 2.2 0 0 0-.302.52c-.042.095-.012.001-.057.128.155-.185.299-.341.458-.47.188-.154.407-.246.607-.219.022.004.046.008.04.053-.006.046-.029.043-.053.04-.172-.024-.366.062-.536.2a4 4 0 0 0-.517.55c.272.029.536-.058.792-.155.132-.049.261-.209.342-.237l.08-.102q.07-.085.145-.152c.017-.016.034-.031.066.003s.014.05-.003.066a2 2 0 0 0-.136.144 2 2 0 0 0-.129.171c-.008.013-.018.026-.034.025-.084.107-.213.247-.24.363-.071.312-.015.545-.146.854a.9.9 0 0 0 .249-.207c.075-.092.131-.204.176-.346.048-.155.128-.292.23-.406.106-.118.235-.21.374-.268.022-.008.043-.017.061.026s-.004.052-.025.061a.991.991 0 0 0-.552.616 1.1 1.1 0 0 1-.194.376 1 1 0 0 1-.222.195c.076-.007.114-.019.178-.017a1 1 0 0 0 .403-.19.76.76 0 0 0 .215-.312c.008-.022.017-.043.061-.026.043.017.035.038.026.06a.85.85 0 0 1-.242.35.75.75 0 0 1-.283.148c.237-.016.455-.08.681-.173.095-.04.119-.252.175-.313q.065-.132.146-.239a.63.63 0 0 1 .234-.195c.021-.01.042-.02.061.024.019.042-.003.051-.023.06a.55.55 0 0 0-.198.168c-.051.063-.095.14-.136.221.019.107-.062.338-.06.452.001.301.02.6.112.896q.111-.16.227-.291l.001-.022c.02-.157.036-.324.04-.49a2.7 2.7 0 0 0-.027-.484c-.004-.023-.008-.047.037-.053.047-.008.051.016.053.04.027.162.034.33.03.499a4 4 0 0 1-.029.397c.076-.078.075-.078.107-.156a1.08 1.08 0 0 0 .053-.69c-.006-.021-.012-.045.033-.057.046-.012.052.01.058.033q.05.177.035.37a1.3 1.3 0 0 1-.061.295 4 4 0 0 1 .254-.189 5 5 0 0 1-.017-.334c-.001-.1.003-.197.016-.28.005-.03.008-.06.067-.051.059.008.056.038.051.069a2 2 0 0 0-.013.26c.001.116.009.239.02.358.012.12.082.269.196.33.155.086.242.232.289.393a2.6 2.6 0 0 0-.018-.588 1.4 1.4 0 0 0-.188-.535c-.013-.02-.025-.038.015-.065.039-.025.051-.005.064.015q.149.238.201.571.05.322.009.718c.145-.126.545-.4.484-.893a.5.5 0 0 0-.046-.109c-.011-.02-.022-.04.018-.062.041-.022.052-.002.063.018a.7.7 0 0 1 .084.27c.019-.01.064-.065.073-.06.036.023.087.053.12.075a1.2 1.2 0 0 1-.071-.259 1.1 1.1 0 0 1 .006-.371c.005-.023.008-.046.054-.038s.041.033.038.055a1 1 0 0 0-.006.339q.025.17.112.344c.006.012.012.023.008.037q.055.044.107.091a5 5 0 0 1-.056-.373 2.6 2.6 0 0 1-.009-.502c.002-.023.005-.047.05-.043s.044.028.042.05q-.017.237.01.484a5 5 0 0 0 .079.496c.083.084.147.171.235.28a3 3 0 0 0 .062-.904c-.007-.111-.114-.33-.112-.44a1.4 1.4 0 0 0-.156-.216.54.54 0 0 0-.21-.151c-.023-.008-.044-.016-.029-.06.016-.043.038-.036.059-.028a.65.65 0 0 1 .248.177c.059.064.112.14.16.22.085.008.125.26.223.304.229.075.443.122.671.122a.77.77 0 0 1-.559-.456c-.01-.021-.021-.042.021-.062.042-.021.052 0 .063.02q.089.189.238.295c.128.092.432.166.595.164a.96.96 0 0 1-.459-.539 1 1 0 0 0-.239-.354.95.95 0 0 0-.359-.218c-.022-.008-.043-.014-.03-.059.014-.043.037-.037.059-.03.143.047.279.128.393.238.11.105.201.237.261.388.055.137.12.244.201.33q.107.115.268.189c-.156-.299-.118-.536-.212-.841-.059-.188-.357-.395-.302-.46.064-.078.201.122.372.173.261.077.531.143.799.094a4 4 0 0 0-.559-.51c-.18-.125-.356-.192-.524-.156-.023.005-.045.01-.056-.036-.009-.046.013-.051.036-.056.197-.043.398.032.597.171.168.117.306.246.474.42-.029-.068-.001-.02-.048-.11a2.3 2.3 0 0 0-.343-.496 1.5 1.5 0 0 0-.491-.349c-.02-.01-.041-.018-.024-.06.018-.043.04-.035.061-.025.205.088.378.216.522.37.124.132.227.283.316.44a1.7 1.7 0 0 0-.113-.33 1.1 1.1 0 0 0-.293-.411c-.094-.08-.315-.194-.315-.252-.044-.02-.05-.014-.094-.032a1 1 0 0 0-.244-.067c-.024-.002-.048-.004-.044-.05.005-.047.027-.045.05-.043.074.006.171.035.271.072.049.019.1.06.148.083.078.003.207.061.309.097.308.103.663.16.984.079a4 4 0 0 0-.333-.122 1.4 1.4 0 0 0-.391-.063c-.024 0-.047 0-.047-.047-.001-.047.023-.046.046-.047.145 0 .283.027.418.068.133.039.261.091.39.144.088.036.148-.016.237-.075-.186-.129-.279-.328-.323-.541l-.003-.003a2.8 2.8 0 0 0-.477-.355c-.156-.082-.314-.121-.468-.074-.022.007-.045.013-.059-.03-.013-.046.009-.052.03-.059.182-.056.364-.012.539.08.142.076.281.184.415.298l-.002-.024c-.038-.396-.326-.695-.668-.702-.115-.003-.276.041-.275-.037.003-.087.14-.07.339-.14.56-.191.946-.471 1.19-1.06a2 2 0 0 1-.266.192 2 2 0 0 1-.519.208q-.18.05-.313.136a.9.9 0 0 0-.226.208c-.014.018-.028.037-.066.01-.038-.029-.022-.047-.01-.067a1 1 0 0 1 .252-.23q.144-.092.337-.147c.226-.062.38-.13.498-.199.073-.042.132-.086.187-.13-.217.002-.448.012-.674.021a3 3 0 0 0-.582.258c-.159.099-.266.21-.27.339-.001.023-.001.047-.048.044-.048-.001-.047-.025-.045-.048.006-.164.131-.3.314-.414.099-.061.215-.117.337-.168l-.153.005c-.171.003-.169-.091-.036-.148.131-.055.272-.218.357-.331a3.1 3.1 0 0 0 .607-1.687c-.045.107-.094.21-.158.297-.08.11-.181.2-.317.254a1.25 1.25 0 0 1-.242.594q-.195.246-.53.359c-.042.013-.078-.049-.046-.08a1.5 1.5 0 0 0 .39-.521c.083-.196.107-.393.084-.573-.003-.023-.007-.047.04-.053.046-.006.05.017.052.04.025.197.001.41-.091.623a1.5 1.5 0 0 1-.239.378 1 1 0 0 0 .267-.23q.178-.227.228-.577c.001-.011.019-.033.031-.037a.6.6 0 0 0 .299-.228 1.5 1.5 0 0 0 .172-.343c-.202.11-.443.111-.667.14-.312.04-.539.122-.806.255z"/><path fill="#F7DB17" d="M297.188 57.57c-1.005-.091-2.005-.09-3.007-.052a29 29 0 0 0-3.019.28c-.029.01-.021.05-.018.069.004.041.056.05.179.033.942-.125 1.884-.21 2.835-.246a26 26 0 0 1 3.002.035c.049.011.108-.13.028-.12z"/><path fill="#F7DB17" fill-rule="evenodd" d="M291.187 57.696q1.5-.216 2.99-.277a23 23 0 0 1 2.984.073l.038-.189a.18.18 0 0 1-.246-.25.18.18 0 0 1 .256-.055.2.2 0 0 1 .063.073l.078-.254a28 28 0 0 0-3.198-.056 34 34 0 0 0-3.218.28l.094.239a.18.18 0 0 1 .146-.085.18.18 0 0 1 .188.173.184.184 0 0 1-.174.188.2.2 0 0 1-.054-.007l.054.137-.002.01zm4.485-.785a.18.18 0 0 0-.125.058.18.18 0 0 0-.048.13.18.18 0 0 0 .057.126.183.183 0 0 0 .256-.01.18.18 0 0 0 .048-.13.181.181 0 0 0-.188-.174m.004.094a.1.1 0 0 0-.057.03.08.08 0 0 0-.021.06q.001.035.026.059a.1.1 0 0 0 .059.025.087.087 0 0 0-.007-.173m-1.596-.072a.2.2 0 0 0-.099.034.2.2 0 0 0-.064.084.2.2 0 0 0-.006.105.2.2 0 0 0 .053.09.18.18 0 0 0 .199.032.182.182 0 0 0 .105-.171.18.18 0 0 0-.188-.174m.004.094a.1.1 0 0 0-.061.028.1.1 0 0 0-.023.062.087.087 0 0 0 .151.056.087.087 0 0 0-.067-.146m-1.567.001a.18.18 0 0 0-.13.055.19.19 0 0 0-.051.133.18.18 0 0 0 .123.165.18.18 0 0 0 .193-.052.19.19 0 0 0 .046-.127.19.19 0 0 0-.055-.123.18.18 0 0 0-.126-.05m.004.094a.086.086 0 0 0-.083.09.085.085 0 0 0 .09.084.1.1 0 0 0 .057-.03.087.087 0 0 0-.064-.144" clip-rule="evenodd"/><path fill="#000" d="M294.106 55.837a.47.47 0 0 0-.157-.251.5.5 0 0 0-.28-.119c-.049-.004-.06-.083-.014-.1a.46.46 0 0 0 .223-.204 1 1 0 0 0 .126-.382c.005-.05.092-.055.101-.005a.66.66 0 0 0 .154.3c.085.094.19.158.292.192.046.016.04.091-.008.1a.33.33 0 0 0-.202.136.9.9 0 0 0-.135.331c-.01.049-.089.05-.102.001zm.042-.175a.8.8 0 0 1 .111-.22.5.5 0 0 1 .14-.128.77.77 0 0 1-.33-.335 1 1 0 0 1-.102.237.7.7 0 0 1-.152.176.607.607 0 0 1 .333.27m1.463 7.474-.745.332c-.025.012-.051.023-.072-.028-.022-.049.004-.06.028-.072l.746-.331c.024-.012.05-.023.071.028.023.049-.003.06-.028.072m.069-.482-.87.516c-.023.014-.047.029-.076-.019-.028-.047-.003-.062.02-.076l.869-.516c.023-.014.047-.028.076.02.028.047.004.06-.019.075m-2.688.007.906.449c.024.012.05.024.025.074s-.049.037-.074.025l-.907-.448c-.024-.013-.049-.025-.025-.075.025-.05.049-.037.075-.025m.093.471.768.274c.027.009.053.018.034.07-.019.051-.044.042-.071.033l-.769-.274c-.025-.01-.05-.019-.033-.07s.044-.042.069-.033zm.354.625c.203.041.386.056.528.026a.35.35 0 0 0 .272-.226l-.028-.724a1.7 1.7 0 0 1-.447-.044.42.42 0 0 1-.306-.25c-.066-.155-.053-.344-.024-.483.006-.027.011-.054.064-.043s.049.038.042.065c-.024.122-.037.287.018.417a.31.31 0 0 0 .231.187c.135.032.293.045.453.039.158-.006.314-.031.445-.076a.56.56 0 0 0 .275-.192.34.34 0 0 0 .074-.262.17.17 0 0 0-.076-.114.37.37 0 0 0-.191-.048c-.069 0-.137.016-.208.032l-.112.023c-.028.004-.054.01-.064-.044-.009-.054.019-.06.045-.064l.107-.022c.076-.017.153-.035.232-.035a.46.46 0 0 1 .25.065c.064.04.11.102.125.188a.45.45 0 0 1-.094.347.67.67 0 0 1-.328.23c-.121.04-.26.065-.401.076l.028.71q.006.012.004.024a.35.35 0 0 0 .284.197c.143.02.325-.01.524-.066.027-.009.053-.016.068.037.014.054-.011.06-.039.068-.212.06-.407.09-.568.069a.46.46 0 0 1-.324-.182.46.46 0 0 1-.308.206c-.159.035-.356.02-.572-.025-.027-.005-.055-.01-.044-.065.01-.053.038-.048.064-.042zm.535.289.59-.036c.028-.001.056-.004.058.052.004.056-.024.057-.052.058l-.591.036c-.027.001-.054.004-.058-.052-.003-.056.025-.057.053-.058m.697-4.564a4 4 0 0 1 .606-.46c.191-.114.367-.178.521-.177.028 0 .055 0 .055.055.001.055-.027.056-.055.056-.135-.001-.292.058-.468.16-.18.106-.377.26-.586.448-.02.019-.041.037-.078-.004s-.016-.06.004-.078zm-.886.116a3 3 0 0 0-.672-.436c-.208-.097-.4-.144-.539-.127-.028.004-.054.008-.061-.048-.008-.054.02-.058.048-.06.161-.021.372.031.6.134.228.105.474.263.696.452.021.018.043.035.006.078-.035.04-.057.024-.078.006zm-.256 1.488a1.4 1.4 0 0 1 .187-.33 2 2 0 0 1 .247-.26c.019-.018.041-.036.076.005.037.041.016.06-.004.078a2 2 0 0 0-.232.245q-.104.134-.173.302c-.01.026-.02.051-.071.031s-.041-.045-.03-.07m.447-2.57q.115.14.18.321.065.18.074.408c.011.118.018.243.003.367a.8.8 0 0 1-.128.367.42.42 0 0 1-.478.174c.048.146.087.303.026.453a.06.06 0 0 1-.074.03 4 4 0 0 0-.192-.085 2 2 0 0 0-.189-.068l-.002-.001a2 2 0 0 1-.353-.151.8.8 0 0 1-.227-.174l.001.003a.6.6 0 0 1-.139-.245 1.2 1.2 0 0 1-.042-.255 4 4 0 0 1-.292-.16 1.5 1.5 0 0 1-.244-.183c-.02-.02-.04-.038-.001-.078.038-.04.058-.02.078-.001q.089.084.227.17.135.082.307.166.274.02.55.139.237.102.477.264c.019.01.029.023.041.028l.037.027c.077.029.155.035.225.015a.3.3 0 0 0 .174-.13.7.7 0 0 0 .112-.32 1.6 1.6 0 0 0-.005-.345v-.003a1.3 1.3 0 0 0-.066-.377 1 1 0 0 0-.161-.29c-.017-.021-.034-.042.007-.076.042-.034.06-.013.077.007zm-.492 1.56a2.7 2.7 0 0 0-.468-.261 1.7 1.7 0 0 0-.467-.127q.009.106.034.198a.46.46 0 0 0 .112.199l.002.001a.7.7 0 0 0 .197.15q.134.075.337.143l-.002-.001a2.5 2.5 0 0 1 .338.131c.023-.123-.025-.263-.07-.39zm1.084-1.518a1 1 0 0 0-.138.301 1.2 1.2 0 0 0-.037.382v.002c-.003.114 0 .233.022.344s.063.216.135.31c.05.064.115.102.185.117a.35.35 0 0 0 .222-.033l.036-.029c.008-.006.018-.018.038-.03.15-.12.302-.223.456-.3q.266-.14.537-.182.164-.094.293-.19.13-.095.213-.186c.018-.02.036-.04.077-.004.042.036.023.056.003.078q-.09.101-.229.201-.123.09-.278.182.001.135-.023.257a.6.6 0 0 1-.12.255l.002-.003a.8.8 0 0 1-.214.19q-.134.09-.342.179l-.001.001a2 2 0 0 0-.184.082q-.092.046-.185.099a.06.06 0 0 1-.076-.024c-.072-.144-.045-.304-.008-.453a.44.44 0 0 1-.241.02.4.4 0 0 1-.249-.157.8.8 0 0 1-.157-.356 1.7 1.7 0 0 1-.024-.366 1.3 1.3 0 0 1 .042-.412 1 1 0 0 1 .155-.335c.015-.022.03-.045.076-.013.045.03.03.053.013.076zm1.423.998a1.7 1.7 0 0 0-.457.162 2.8 2.8 0 0 0-.446.297l-.01.043c-.035.13-.072.273-.039.395q.066-.036.134-.07.094-.048.192-.087l-.001.001q.196-.084.325-.168a.7.7 0 0 0 .186-.165l.002-.002a.5.5 0 0 0 .096-.207 1 1 0 0 0 .02-.199z"/><path fill="#000" fill-rule="evenodd" d="M295.515 59.652a.318.318 0 0 0-.204.552.32.32 0 0 0 .229.085.317.317 0 0 0 .296-.33.317.317 0 0 0-.321-.307m.004.102a.216.216 0 1 0 .017.431.216.216 0 0 0-.017-.431m.004.088a.128.128 0 0 0-.112.181.13.13 0 0 0 .072.067.128.128 0 1 0 .04-.248m-2.502-.087a.32.32 0 0 1 .331.306.32.32 0 0 1-.307.331.32.32 0 0 1-.024-.637m.004.102a.216.216 0 1 1 .016.432.216.216 0 0 1-.016-.432m.003.088q.026 0 .05.008a.13.13 0 0 1 .071.067.1.1 0 0 1 .012.048.1.1 0 0 1-.008.05.125.125 0 0 1-.115.083.128.128 0 0 1-.01-.256" clip-rule="evenodd"/><path fill="#000" d="M306.894 53.842c-.026-.004-.065.012-.104.062-.288.357-.554.669-.842 1.027-.29.08-.366.252-.265.503-.382-.053-.439.267-.469.618q-.52-.858-1.179-.498c-.003-.338-.256-.507-.623-.6a1.2 1.2 0 0 1-.633-.238c-.086-.066-.158-.1-.244-.166-.18-.136-.332-.02-.257.1l1.106 1.959c-.025.116 0 .222.118.304q.09.297.183.592l-.054.164c-.318-.167-.644-.198-.968-.233-.25-.021-.419-.09-.523-.221-.076-.096-.132-.044-.14.115-.035.785.181 1.5.796 2.227q-.508-.01-1.021-.008c-.117.004-.142.052-.113.148.168.454.465.87 1.165 1.173a.96.96 0 0 0-.554.744c-.026.33-.132.558-.338.657-.09.044-.122.091-.041.155.362.286.82.315 1.309.215-.246.388-.363.8-.339 1.238.303.094.605.046.906-.041-.046.088-.075.254-.094.45a1.2 1.2 0 0 1-.172.5c-.049.046-.101.119 0 .15.489.152.95.112 1.348-.018-.014.357-.025.716.07 1.073.024.086.098.154.183.045.24-.305.495-.564.804-.73.04.134.1.251.217.325q.207.13.205.513c-.001.044-.006.088.047.134.218.019.777-.53.899-.844.296.19.404.377.62.702.076.115.144.048.189-.03.105-.353.126-.703.138-1.06.387.16.844.236 1.343.12.102-.023.057-.1.011-.149a1.4 1.4 0 0 1-.145-.543c-.006-.196-.008-.333-.047-.424.293.111.589.181.899.11.06-.434-.045-.853-.262-1.26.481.136.959.144 1.341-.114.087-.057.056-.107-.029-.157-.196-.115-.285-.351-.286-.681a.96.96 0 0 0-.495-.785c.72-.247 1.049-.641 1.251-1.08.037-.095.015-.145-.101-.156-.339-.028-.704-.063-1.044-.08.67-.678.945-1.379.973-2.164.004-.159-.048-.217-.131-.126-.114.124-.271.192-.52.195-.327.01-.641.011-.971.152l-.041-.168c.075-.192.17-.377.247-.57.124-.073.157-.175.141-.294.417-.623.803-1.248 1.222-1.87.083-.113-.059-.241-.248-.119-.09.059-.165.088-.256.146a1.23 1.23 0 0 1-.65.189c-.372.065-.623.222-.652.56q-.631-.413-1.214.405c-.002-.352-.034-.675-.419-.653.119-.242.041-.426-.242-.527-.259-.378-.647-.717-.906-1.095-.044-.053-.073-.072-.099-.07z"/><path fill="#F7DB17" d="M310.534 56.032c-.073-.041-.183.018-.243.13-.061.113-.059.249.016.29.058.031.124-.004.179-.076l.034-.051.008-.014c.06-.112.081-.236.007-.276zm-7.362-.283c.078-.035.181.032.233.149.051.117.048.245-.03.28s-.15-.041-.202-.158c-.051-.117-.079-.236-.003-.27zm6.622 1.587a.09.09 0 0 0-.091.083.09.09 0 0 0 .084.09.087.087 0 0 0 .007-.174m-5.928-.228a.088.088 0 0 0-.09.084.1.1 0 0 0 .023.062.086.086 0 0 0 .123.005.1.1 0 0 0 .028-.06.1.1 0 0 0-.023-.063.1.1 0 0 0-.061-.028m6.33-.204a28 28 0 0 0-3.315-.323 34 34 0 0 0-3.342.04c-.039.011-.036.132.016.128a35 35 0 0 1 3.322-.039c1.093.042 2.181.143 3.269.316.057.008.083-.115.051-.122z"/><path fill="#F7DB17" d="M303.514 56.524a34 34 0 0 1 3.371-.042c1.109.043 2.213.147 3.317.324l.173-.265a.17.17 0 0 1-.132-.012c-.109-.06-.126-.242-.037-.405.088-.164.251-.248.36-.19.057.031.088.096.094.172l.697-1.061c-.307.18-.494.296-.868.338-.416.044-.609.18-.558.43.047.232-.092.192-.299.068-.452-.269-.799.074-.978.482-.118.27-.244.258-.247-.028-.002-.103.008-.193.001-.295-.018-.329-.114-.425-.305-.341-.241.105-.258.027-.198-.093.045-.087.134-.183.11-.321-.01-.1-.092-.14-.217-.153-.253-.369-.659-.736-.913-1.105-.281.348-.577.689-.858 1.037-.127.003-.211.036-.229.136-.035.135.068.233.105.323.052.123.026.2-.204.076-.184-.097-.274-.015-.317.312a5 5 0 0 0-.031.306c-.024.285-.151.288-.248.01-.147-.42-.488-.79-.96-.557-.218.108-.304.139-.265-.09.044-.25-.142-.396-.553-.472-.37-.07-.547-.201-.84-.404l.578 1.026a.17.17 0 0 1 .081-.08c.114-.052.269.045.345.216s.045.35-.069.4a.2.2 0 0 1-.047.014l.138.245zm6.4 1.587-.035.015c-.069.025-.122.092-.204.174a3 3 0 0 1-.321.265c-.018.014-.038.026-.065-.011-.026-.038-.008-.052.012-.065.121-.086.226-.174.31-.256q.07-.069.118-.13a21 21 0 0 0-.416-.06c-.117.03-.233.071-.331.126a.6.6 0 0 0-.209.176c-.012.02-.025.039-.065.014-.039-.025-.026-.045-.014-.065a.66.66 0 0 1 .241-.208q.075-.04.159-.073-.236-.03-.471-.055a.57.57 0 0 0-.178.16c-.014.02-.028.038-.065.01s-.025-.046-.01-.065a1 1 0 0 1 .099-.11l.014-.012-.354-.034-.012.01a.5.5 0 0 0-.144.18c-.01.021-.019.042-.061.024-.042-.02-.033-.04-.023-.062a.6.6 0 0 1 .071-.116q.02-.023.041-.047a29 29 0 0 0-.505-.037.1.1 0 0 1-.021.015.446.446 0 0 0-.174.161c-.012.02-.025.04-.064.016-.04-.025-.028-.044-.015-.064a.5.5 0 0 1 .123-.137 32 32 0 0 0-1.066-.042.5.5 0 0 1 .114.147c.011.021.022.04-.02.063-.042.021-.052 0-.064-.02a.43.43 0 0 0-.161-.175.1.1 0 0 1-.022-.018 20 20 0 0 0-.508-.004.507.507 0 0 1 .103.175c.008.023.016.044-.028.06-.043.015-.051-.007-.059-.03a.535.535 0 0 0-.144-.206l-.358.006.019.019a.7.7 0 0 1 .09.117c.012.02.025.039-.015.064-.039.025-.051.005-.064-.014a.58.58 0 0 0-.177-.182q-.243.005-.486.015.094.043.176.096a.65.65 0 0 1 .224.225c.011.021.022.04-.019.064-.041.022-.052.003-.064-.018a.6.6 0 0 0-.195-.192 1.5 1.5 0 0 0-.355-.164h-.003a17 17 0 0 0-.396.02q.046.074.121.161.117.133.289.28c.019.013.036.029.007.064-.03.036-.048.02-.065.007a2.6 2.6 0 0 1-.3-.289c-.052-.058-.139-.169-.19-.213a2.4 2.4 0 0 0-.837-.249c-.225-.029-.467-.03-.669-.142.048.127.101.246.172.344.074.103.17.185.299.228.012.003.03.025.031.038q.048.348.227.577a.9.9 0 0 0 .268.23 1.5 1.5 0 0 1-.239-.38 1.2 1.2 0 0 1-.09-.62c.003-.024.007-.048.052-.042.047.007.043.03.041.053-.023.18-.002.377.084.573.075.177.22.358.408.526.034.029-.004.092-.046.079a1.16 1.16 0 0 1-.55-.362 1.24 1.24 0 0 1-.242-.593.7.7 0 0 1-.317-.254 1.4 1.4 0 0 1-.162-.308c.017.63.222 1.188.606 1.697.086.114.232.277.363.332.133.057.134.153-.035.148q-.075-.001-.155-.005c.122.05.238.106.337.168.182.114.31.25.314.414 0 .023.001.047-.045.048-.047.001-.048-.022-.048-.044-.004-.127-.112-.24-.27-.34a3 3 0 0 0-.582-.257c-.226-.009-.458-.02-.675-.022.056.044.115.089.188.131.118.07.272.137.497.199q.195.055.338.147a1 1 0 0 1 .252.23c.014.019.028.038-.01.066s-.051.01-.066-.01a.8.8 0 0 0-.226-.207 1.2 1.2 0 0 0-.313-.136 2 2 0 0 1-.519-.208 2 2 0 0 1-.264-.191c.243.588.629.867 1.189 1.06l.089.031.013.004q.188.053.388.095c.134.028.242.05.381.07.024.002.047.006.041.051-.006.047-.03.043-.052.04a6.85 6.85 0 0 1-.638-.13c-.039.01-.095.011-.158.013-.342.008-.63.308-.668.702q0 .011-.002.024a2.5 2.5 0 0 1 .413-.297c.176-.093.358-.138.539-.08.022.006.046.013.031.058s-.036.038-.059.03c-.154-.047-.312-.007-.468.075-.162.086-.322.22-.477.354-.044.215-.137.414-.323.543.088.053.149.101.237.075.129-.052.257-.105.39-.144.135-.04.273-.066.418-.068.023 0 .047 0 .046.048 0 .047-.022.046-.047.046-.134.001-.265.026-.391.063a4 4 0 0 0-.332.122c.322.081.677.024.985-.079.09-.029.157-.056.198-.053.077-.04.168-.071.257-.106.099-.038.197-.068.271-.074.024-.002.047-.004.05.044.004.047-.019.047-.043.05a.6.6 0 0 0-.331.103c-.001.03-.1.08-.191.134a1 1 0 0 0-.131.094 1.1 1.1 0 0 0-.293.41q-.07.153-.112.326c.087-.155.189-.303.312-.434.144-.153.317-.283.522-.37.021-.01.044-.017.061.025s-.003.051-.024.06a1.4 1.4 0 0 0-.491.35 2.2 2.2 0 0 0-.341.495c-.049.092-.012 0-.067.124a3.4 3.4 0 0 1 .493-.433c.199-.14.424-.215.622-.172.021.005.045.01.036.056-.009.045-.033.04-.056.036-.17-.038-.37.033-.55.157a4 4 0 0 0-.558.51c.269.048.54-.018.802-.095.135-.039.276-.188.36-.21a2 2 0 0 1 .243-.236c.018-.014.036-.028.066.008.029.037.01.05-.009.066a2 2 0 0 0-.146.133 2 2 0 0 0-.142.16c-.009.012-.02.025-.036.023-.092.1-.231.23-.266.343-.096.306-.058.543-.212.84a.9.9 0 0 0 .265-.187c.081-.085.145-.193.201-.33a1.065 1.065 0 0 1 .654-.626c.022-.007.045-.015.059.03.015.044-.008.051-.03.059a.95.95 0 0 0-.359.217 1 1 0 0 0-.239.355 1.1 1.1 0 0 1-.221.36 1 1 0 0 1-.237.177c.077-.001.116-.01.179-.003a.96.96 0 0 0 .416-.16q.149-.106.238-.294c.01-.021.021-.041.063-.02.042.02.032.04.021.062a.85.85 0 0 1-.267.33.8.8 0 0 1-.293.125c.236.002.459-.044.692-.12.097-.032.137-.242.198-.299q.075-.126.163-.226a.65.65 0 0 1 .249-.178c.022-.008.043-.016.059.03.016.042-.006.05-.027.058a.55.55 0 0 0-.211.151c-.055.06-.105.133-.152.211.01.108-.088.332-.095.445-.022.301-.026.602.043.903q.123-.15.249-.273l.002-.022c.033-.155.061-.32.078-.486.017-.164.023-.327.01-.484-.002-.023-.004-.047.041-.05.048-.004.05.02.05.043a2.6 2.6 0 0 1-.009.5 4 4 0 0 1-.059.394c.082-.072.081-.072.119-.147q.088-.173.112-.344a1 1 0 0 0-.006-.34c-.005-.022-.009-.045.037-.054.046-.008.051.014.055.038.023.118.027.244.006.37a1.3 1.3 0 0 1-.083.29q.125-.086.268-.169c-.001-.11.002-.225.009-.334.007-.1.018-.196.037-.278.007-.029.013-.058.071-.046s.053.042.046.073a2 2 0 0 0-.034.26 5 5 0 0 0-.008.357c.003.12.062.274.171.345a.63.63 0 0 1 .258.413q.048-.32.027-.588a1.4 1.4 0 0 0-.147-.547c-.011-.021-.022-.04.02-.064.041-.022.052-.001.063.02q.13.248.157.585.026.324-.047.716c.155-.115.575-.358.551-.853a.5.5 0 0 0-.036-.112c-.01-.021-.019-.042.022-.061.042-.019.052.002.061.023a.6.6 0 0 1 .063.276c.02-.01.069-.06.078-.054.034.025.083.059.114.084a1.104 1.104 0 0 1-.017-.634c.007-.022.012-.045.058-.033.045.012.038.035.033.057a1 1 0 0 0-.032.337q.012.172.085.353c.005.012.011.024.006.037q.05.047.099.1a4 4 0 0 1-.027-.377 2.6 2.6 0 0 1 .03-.501c.003-.024.007-.047.053-.04.045.008.041.032.037.054a2.7 2.7 0 0 0-.027.483c.004.166.02.332.04.49l.001.01c.076.09.133.182.212.297a3 3 0 0 0 .132-.896c.001-.111-.089-.337-.078-.447a1.4 1.4 0 0 0-.139-.228.53.53 0 0 0-.198-.167c-.022-.01-.042-.019-.024-.06.019-.043.041-.035.061-.025.09.042.168.111.234.196q.079.104.143.232c.083.014.104.268.198.32.223.092.433.155.66.172a.8.8 0 0 1-.281-.147.84.84 0 0 1-.241-.35c-.008-.022-.018-.043.025-.06.044-.018.052.004.061.025a.75.75 0 0 0 .215.312c.121.102.418.199.581.21a1 1 0 0 1-.224-.198 1.1 1.1 0 0 1-.193-.375 1 1 0 0 0-.211-.372.94.94 0 0 0-.341-.244c-.022-.01-.042-.018-.025-.062.017-.042.039-.033.061-.025a1.085 1.085 0 0 1 .604.674c.045.141.101.252.175.345q.098.122.253.209c-.133-.31-.076-.544-.147-.856-.044-.191-.325-.42-.266-.48.069-.073.191.136.358.2.254.096.518.183.789.155a4 4 0 0 0-.518-.551c-.17-.14-.34-.22-.51-.196-.024.003-.046.007-.053-.04s.016-.05.04-.054c.2-.027.394.063.582.217.158.13.286.269.44.456-.023-.07.001-.02-.039-.115a2.3 2.3 0 0 0-.304-.52 1.5 1.5 0 0 0-.463-.386c-.02-.01-.04-.02-.019-.062.02-.04.042-.031.062-.02.198.103.361.245.493.41.113.14.205.299.281.462a1.8 1.8 0 0 0-.087-.338 1.1 1.1 0 0 0-.261-.432c-.088-.086-.299-.218-.295-.275-.042-.024-.048-.018-.092-.039a1 1 0 0 0-.238-.086c-.023-.003-.047-.007-.039-.053s.03-.043.053-.039c.073.012.168.048.265.093.047.022.094.067.14.093.078.01.202.078.302.121.298.126.648.21.974.154a4 4 0 0 0-.322-.146 1.4 1.4 0 0 0-.385-.093c-.024-.003-.047-.004-.044-.05.003-.048.027-.045.05-.044.144.011.28.049.412.1.129.048.253.11.377.173.085.043.149-.005.242-.057-.175-.142-.253-.348-.28-.564l-.003-.003a2.8 2.8 0 0 0-.448-.39c-.15-.094-.304-.146-.461-.11-.023.004-.046.01-.057-.035-.01-.046.013-.051.035-.056.186-.042.363.015.531.122.135.086.266.204.391.328l-.001-.025c-.006-.397-.271-.717-.611-.75-.114-.012-.279.02-.272-.058.009-.087.145-.06.349-.113.573-.15.98-.398 1.268-.967-.082.057-.166.115-.28.171a2 2 0 0 1-.534.168 1.2 1.2 0 0 0-.322.112.9.9 0 0 0-.242.19c-.015.016-.03.035-.066.004-.036-.03-.019-.048-.005-.067a1 1 0 0 1 .269-.21q.151-.082.348-.12c.229-.045.388-.1.511-.16.076-.038.138-.076.197-.117-.217-.014-.448-.021-.675-.03a3 3 0 0 0-.6.212c-.165.087-.281.19-.294.317-.003.024-.005.047-.052.041s-.045-.028-.041-.052c.018-.162.154-.288.345-.388.104-.054.223-.1.348-.141l-.152-.008c-.171-.01-.161-.103-.024-.15.134-.044.287-.196.381-.303a3.1 3.1 0 0 0 .734-1.635 1.4 1.4 0 0 1-.18.284.7.7 0 0 1-.336.229q-.081.35-.287.574-.213.23-.555.317c-.043.01-.075-.055-.04-.083.201-.153.338-.32.428-.49.099-.189.137-.383.128-.565 0-.023-.002-.047.045-.05.046-.002.048.021.048.045.01.198-.03.408-.138.613a1.5 1.5 0 0 1-.267.36.9.9 0 0 0 .283-.21q.195-.212.272-.557c.002-.012.022-.032.034-.035a.6.6 0 0 0 .315-.205c.079-.092.14-.205.198-.328-.21.094-.45.077-.676.09-.314.015-.546.078-.823.191z"/><path fill="#F7DB17" d="M309.838 57.85c-.995-.168-1.992-.243-2.994-.283a29 29 0 0 0-3.032.049c-.03.007-.024.047-.023.066.001.042.052.054.176.047a31 31 0 0 1 2.846-.027c.991.038 1.985.107 2.99.265.048.015.118-.121.037-.118z"/><path fill="#F7DB17" fill-rule="evenodd" d="M303.845 57.516a29 29 0 0 1 3.002-.047c.992.038 1.981.135 2.97.301l.053-.185a.179.179 0 0 1-.242-.082.2.2 0 0 1-.018-.095.181.181 0 0 1 .349-.05l.098-.246a28 28 0 0 0-3.185-.302 34 34 0 0 0-3.23.034l.076.244a.18.18 0 0 1 .152-.074.18.18 0 0 1 .174.188.183.183 0 0 1-.188.174.2.2 0 0 1-.053-.01l.044.14-.004.01zm4.532-.439a.181.181 0 1 0-.014.362.181.181 0 0 0 .014-.362m-.004.094a.09.09 0 0 0-.085.084.1.1 0 0 0 .022.06.09.09 0 0 0 .057.03.09.09 0 0 0 .09-.084.087.087 0 0 0-.084-.09m-1.585-.195a.2.2 0 0 0-.102.027.2.2 0 0 0-.069.079q-.022.049-.015.104a.2.2 0 0 0 .046.094.18.18 0 0 0 .196.047.182.182 0 0 0-.056-.35m-.004.095a.088.088 0 0 0-.09.084.1.1 0 0 0 .023.062.1.1 0 0 0 .061.027.087.087 0 0 0 .067-.146.1.1 0 0 0-.061-.027m-1.562-.12a.18.18 0 0 0-.134.046.2.2 0 0 0-.044.058.2.2 0 0 0-.017.07.186.186 0 0 0 .11.174q.035.014.071.014a.18.18 0 0 0 .126-.05.18.18 0 0 0-.112-.31m-.003.095a.086.086 0 0 0-.09.083.086.086 0 0 0 .083.09.087.087 0 0 0 .085-.083.1.1 0 0 0-.021-.06.1.1 0 0 0-.057-.03" clip-rule="evenodd"/><path fill="#000" d="M306.898 55.887a.48.48 0 0 0-.137-.263.5.5 0 0 0-.27-.14c-.049-.008-.054-.088-.007-.1a.46.46 0 0 0 .238-.187 1 1 0 0 0 .155-.371c.009-.05.096-.048.101.002a.64.64 0 0 0 .131.312c.077.1.177.171.276.213.045.02.033.094-.016.1a.33.33 0 0 0-.212.12.85.85 0 0 0-.159.32c-.014.047-.093.041-.102-.008zm.055-.172a.8.8 0 0 1 .127-.21.5.5 0 0 1 .15-.118.8.8 0 0 1-.203-.184.8.8 0 0 1-.101-.175 1 1 0 0 1-.119.228.7.7 0 0 1-.165.164.595.595 0 0 1 .311.295m.886 7.565-.769.274c-.026.009-.052.018-.07-.034-.018-.05.009-.06.034-.07l.769-.273c.025-.01.052-.019.069.033.019.051-.008.06-.033.07m.105-.476-.907.448c-.024.012-.049.025-.074-.025s.001-.062.025-.074l.907-.448c.024-.012.049-.025.074.025s-.001.062-.025.074m-2.681-.199.869.517c.023.014.048.028.02.075-.029.048-.052.034-.076.02l-.87-.517c-.023-.014-.047-.028-.019-.076.029-.047.052-.033.076-.019m.057.477.745.331c.026.012.051.023.028.072-.022.05-.047.04-.073.028l-.745-.332c-.025-.01-.049-.022-.028-.071.022-.051.047-.04.071-.029zm.305.65c.199.056.381.085.524.066a.35.35 0 0 0 .289-.204l.028-.725a1.7 1.7 0 0 1-.443-.077.42.42 0 0 1-.286-.273c-.054-.16-.026-.347.013-.484.009-.026.015-.052.068-.037.052.015.045.041.037.068-.034.119-.059.283-.015.417.031.09.096.166.216.204.133.042.289.067.45.073.157.007.315-.007.449-.041a.57.57 0 0 0 .289-.17.34.34 0 0 0 .094-.256.17.17 0 0 0-.068-.12.36.36 0 0 0-.186-.062c-.069-.005-.139.005-.21.016q-.055.008-.114.014c-.028.002-.054.006-.059-.049-.006-.054.022-.058.049-.06q.052-.006.108-.013c.077-.012.155-.024.235-.018a.46.46 0 0 1 .244.085.27.27 0 0 1 .11.197.45.45 0 0 1-.12.338.67.67 0 0 1-.345.203c-.124.03-.264.046-.406.047l-.027.71a.03.03 0 0 1 .002.023c.05.123.143.19.269.218.141.032.324.016.528-.025.026-.006.053-.011.064.042.01.055-.015.06-.043.065-.217.043-.414.059-.573.025a.46.46 0 0 1-.308-.206.46.46 0 0 1-.324.181c-.161.024-.356-.007-.568-.069-.027-.006-.054-.013-.039-.067.014-.053.041-.046.068-.037zm.511.329.592.01c.028 0 .055 0 .053.056 0 .056-.028.055-.056.054l-.592-.01c-.028 0-.054 0-.053-.056 0-.056.028-.055.056-.054m1.046-4.497c.229-.176.443-.318.639-.413.199-.099.379-.149.533-.136.028.003.055.004.051.06-.004.054-.031.053-.059.05-.135-.01-.296.036-.479.125a3.7 3.7 0 0 0-.619.401c-.022.017-.044.034-.078-.01s-.011-.06.01-.078zm-.893.048c-.2-.2-.424-.37-.636-.487-.2-.112-.388-.174-.528-.167-.028.001-.055.003-.057-.053-.004-.054.024-.056.052-.057.163-.008.369.06.588.18.219.122.452.3.659.504.02.02.04.039 0 .078-.038.039-.058.02-.078 0zm-.369 1.464q.089-.18.212-.315a2 2 0 0 1 .265-.24c.021-.017.044-.033.076.01.034.045.011.061-.01.078a2 2 0 0 0-.25.226 1.3 1.3 0 0 0-.195.289c-.013.024-.024.049-.073.025s-.038-.049-.025-.073m.643-2.529q.103.149.155.335.051.183.041.412c.003.118 0 .243-.024.366a.8.8 0 0 1-.156.356.42.42 0 0 1-.49.137c.037.149.063.309-.009.453-.012.026-.05.038-.076.024a5 5 0 0 0-.184-.098 2 2 0 0 0-.184-.083l-.002-.001a2 2 0 0 1-.34-.178.8.8 0 0 1-.214-.19l.002.002a.6.6 0 0 1-.12-.255 1.2 1.2 0 0 1-.023-.257 4 4 0 0 1-.278-.181 1.5 1.5 0 0 1-.23-.202c-.018-.021-.036-.041.005-.078s.059-.015.078.005q.082.09.213.186.129.093.294.19.272.04.537.18.229.12.455.3c.019.012.028.025.039.032q.017.015.036.029a.35.35 0 0 0 .222.032.3.3 0 0 0 .184-.117.7.7 0 0 0 .136-.31c.022-.112.025-.23.022-.343v-.003a1.2 1.2 0 0 0-.037-.381 1 1 0 0 0-.138-.301c-.016-.023-.031-.046.013-.076.044-.031.061-.008.076.013zm-.611 1.519a2.7 2.7 0 0 0-.446-.297 1.7 1.7 0 0 0-.456-.162q0 .105.019.2a.46.46 0 0 0 .096.206l.002.002a.7.7 0 0 0 .185.164q.128.085.325.169l-.002-.002q.097.039.193.087l.134.07c.032-.12-.005-.264-.039-.394zm1.198-1.431a1 1 0 0 0-.161.29q-.06.164-.066.377l-.001.003a1.7 1.7 0 0 0-.004.344c.013.111.046.22.111.32.045.067.107.11.175.13a.35.35 0 0 0 .224-.015l.038-.027c.009-.005.02-.017.041-.027a2.8 2.8 0 0 1 .477-.265q.276-.118.55-.14.17-.08.307-.166a1.4 1.4 0 0 0 .226-.169c.019-.018.039-.038.078.002.038.04.018.058-.003.078a1.5 1.5 0 0 1-.244.183 4 4 0 0 1-.292.16q-.009.134-.042.254a.6.6 0 0 1-.139.245l.001-.003a.8.8 0 0 1-.227.174 2.3 2.3 0 0 1-.355.151l-.002.002a2 2 0 0 0-.189.067 4 4 0 0 0-.192.084.06.06 0 0 1-.074-.029c-.06-.15-.022-.307.026-.452a.44.44 0 0 1-.241 0 .42.42 0 0 1-.236-.175.8.8 0 0 1-.129-.367 1.7 1.7 0 0 1 .004-.366q.007-.229.073-.408.065-.183.18-.322c.017-.021.034-.043.077-.007.043.034.026.055.007.077zm1.341 1.104q-.232.026-.467.126-.232.1-.468.262l-.013.042c-.045.128-.093.268-.07.39l.14-.059q.097-.04.198-.072l-.001.002a2 2 0 0 0 .336-.143.7.7 0 0 0 .199-.15l.002-.002a.5.5 0 0 0 .112-.198q.026-.092.035-.198z"/><path fill="#000" fill-rule="evenodd" d="M308.011 59.799a.319.319 0 0 0-.025.636.32.32 0 0 0 .24-.531.32.32 0 0 0-.215-.105m-.004.101a.217.217 0 0 0-.225.208.216.216 0 1 0 .225-.208m-.004.088a.13.13 0 0 0-.092.034.13.13 0 0 0-.041.09q0 .024.008.049.01.023.026.042a.128.128 0 1 0 .188-.174.13.13 0 0 0-.089-.04m-2.488-.278a.32.32 0 0 1 .307.33.32.32 0 0 1-.331.307.317.317 0 0 1-.296-.33.317.317 0 0 1 .32-.307m-.003.102a.216.216 0 1 1-.018.433.216.216 0 0 1 .018-.433m-.004.088a.128.128 0 0 1 .112.181.13.13 0 0 1-.072.067.128.128 0 1 1-.04-.248" clip-rule="evenodd"/><path fill="#171796" d="m342.114 58.63-11.981-13.657-15.642 9-2.67 31.721a136.4 136.4 0 0 1 22.472 3.725z"/><path fill="#000" d="M317.595 60.554c.497-.124 1.055-.124 1.614.186a.97.97 0 0 1 .497.373c.248-.187.434-.373.745-.497.311-.3.697-.515 1.117-.62a4.5 4.5 0 0 1 1.676-.56h1.738c.497 0 .993.125 1.428.373l1.241.62c.497.249.931.497 1.366.621.89.338 1.851.444 2.793.31.249-.123.435.063.124.25-2.048 1.24-3.662.123-5.028-.373q.696.473 1.304 1.055c.497.497 1.117.993 2.173 1.49.965.46 2.049.611 3.103.434l.249.062-.062.31a3 3 0 0 1-1.614.435 6.2 6.2 0 0 1-3.228-.807c-.869-.434-1.428-.993-2.049-1.49a4.65 4.65 0 0 0-1.862-.868 3.7 3.7 0 0 0-1.8 0c.186.062.31.124.372.248.311.186.621.248 1.242.31.248 0 .124.186-.311.435a1.23 1.23 0 0 1-.993.496c-.621.373-.807.124-1.055-.124 0 .186 0 .31-.124.497a.38.38 0 0 1 0 .248l.124.434c0 .125 0 .187.124.249a.56.56 0 0 1 .186.434c0 .125.062.187.186.249l.373.372c.372.124.496.435.621.745a.79.79 0 0 1 .434.559c.124 0 .248.124.373.248l1.614.062c.496.062.869.373 1.241.745h.745c.257-.107.529-.17.807-.186h1.428c.31.124.558.248.745.496.31.31.744.249 1.117.124a1.67 1.67 0 0 1 1.49 0c.195-.087.407-.13.62-.124.249-.186.435-.248.621-.248.373 0 .621 0 .559.497 0 .124-.124.248-.186.248-.187.372-.435.434-.807.434-.062.249-.186.435-.311.497.187.559 0 .807-.434.745 0 .186-.186.248-.373.248a.86.86 0 0 1-.62.31l.248.373c.248.435-.124.62-.497.62v.746c.435.248.497.496.124.745.249.434.187.807-.31.993 0 .248 0 .496-.186.62-.124.125-.311.187-.186.373.186.31.124.683-.125.745l-.124.062-.124.124a6 6 0 0 0-.931.62c-.062 0-.124.063-.124 0a6 6 0 0 1-1.117 1.49c0 .311-.249.621-.621.684a.25.25 0 0 1-.186.248c.186.186.31.372.124.62-.222.233-.5.404-.807.497-.621.186-1.056.124-1.242-.124-.248-.186-.186-.372 0-.434-.434 0-.496-.125-.496-.435 0-.124.062-.124.186-.062.248 0 .434-.124.621-.186l.31-.373c0-.434.31-.62.683-.807.31-.124.621-.372.869-.745l.559-.93a.75.75 0 0 1-.187-.435.94.94 0 0 1-.31-.373c-.31 0-.435-.124-.435-.31a.7.7 0 0 1-.186 0c-.186.062-.31.186-.434.124q-.308.348-.683.62c-.124.187-.248.311-.435.311-.62.062-.931.745-1.241 1.055-.124.063-.186.249-.248.435 0 .372-.063.62-.249.62h-.248a.8.8 0 0 0-.248 0q.279.28 0 .56c-.062.186-.249.248-.497.248a2.2 2.2 0 0 1-.993-.124c-.248-.125-.311-.31-.311-.435-.186-.124-.248-.186-.186-.31 0-.124.124-.187.249-.124l.372-.125a3.2 3.2 0 0 1 1.117-.869q.182-.253.435-.434c0-.31.31-.621.621-.87l.062-.372v-.186c-.124-.186-.187-.434-.062-.62a.8.8 0 0 1 0-.373c-.683.372-.932.248-.994-.062-.248.186-.496.31-.62 0-.249.062-.497.186-.745.062l-.497.124-.248.434c0 .31-.124.621-.311.932a5.7 5.7 0 0 1-.434.93.6.6 0 0 1-.062.311c0 .373-.124.559-.311.62-.05.18-.135.349-.248.498v.124c.062.186.062.434-.124.62l-.621.373h-.62c-.249-.186-.249-.248-.187-.373a.37.37 0 0 1-.31 0l-.248-.186c-.062-.124-.062-.248.062-.31l.558-.373c0-.124.125-.186.249-.248.124-.248.248-.372.372-.434l.435-.932c.062-.062.124-.186.062-.248l.062-.186s.124-.062 0-.124a.868.868 0 0 1 .124-.745c.186-.249.372-.87.186-1.242v-.496h-.186c-.124-.124-.248 0-.372.124l-.249.372c-.062.497-.31.931-.621.993v.745c0 .249 0 .435-.124.435s-.248.124-.31.31a.6.6 0 0 0-.062.187c.186.186.124.434-.062.62-.373.373-.869.31-1.366.186-.372-.186-.496-.31-.434-.496-.497 0-.435-.435 0-.559.496-.124.869-.434 1.179-.869 0-.496.124-.807.435-.869 0-.31.124-.62.248-.869.124-.248.186-.496.124-.807-.248-.186-.248-.372 0-.62.062 0 .062 0 0-.125-.186 0-.186-.186-.186-.31s0-.124-.124-.124c-.373-.062-.311-.249-.125-.435.063 0 .125-.186 0-.248l-.062-.248c-.248-.187-.124-.373 0-.56l-.248-.496c-.434 0-.621-.248-.372-.558q.192-.217.434-.373c.062-.186.186-.372.124-.496-.124-.373.311-.621.621-.87a.55.55 0 0 1-.062-.248c-.186-.186-.124-.372.062-.496a.6.6 0 0 1-.062-.31c-.497.123-.497-.187-.248-.622-.311-.186-.249-.496.31-.93a.6.6 0 0 1 0-.249c-.22.006-.434.07-.621.186-.186.187-.372.124-.558.062a.9.9 0 0 0-.249-.248.38.38 0 0 1-.124-.372c-.621 0-.683-.435-.372-.621.186-.186.372-.373.434-.559.124-.372.435-.62.807-.93v-.311a1 1 0 0 0-.434-.186.75.75 0 0 0-.373-.435c-.062 0-.124-.124 0-.248-.372-.249-.31-.435-.186-.621"/><path fill="#F7DB17" d="M328.024 75.452a1 1 0 0 1-.124 0q-.234.233-.497.434c-.124-.186-.31 0-.124.062l-.124.125c0 .186-.124.248-.311.248h-.062a2 2 0 0 1 0-.186 3 3 0 0 1 0-.249 3 3 0 0 0-.062.249 2 2 0 0 0 0 .248c-.496.186-.807.683-1.179 1.055l-.248.497c0 .124 0 .558-.187.558h-.124c0-.062-.124-.062-.248 0h-.621c-.124.125.248.125.435.187.062.062.124.186.062.31-.124.434-1.118.31-1.428.124-.124-.062-.124-.186-.124-.31h.186c.124 0 .248 0 .31-.124 0 0 .063 0 0-.062q0-.093 0 0a.8.8 0 0 1-.31 0q-.155.015-.31 0h-.124c0-.062.124 0 .124 0l.434-.187a3.3 3.3 0 0 1 1.18-.869l.496-.434c0-.435.249-.621.497-.931l.186-.435v-.186c-.124-.248-.186-.435-.062-.62a.93.93 0 0 1 0-.498.2.2 0 0 0 0-.062q.233-.206.497-.372v.497a.8.8 0 0 0-.125.186.3.3 0 0 0 0 .124v.062a.25.25 0 0 1 0-.186l.187-.124.434-.249.435-.372v.62l-.373.435v.062h.062q.115-.246.311-.434c.182-.161.393-.288.621-.373v.621a.93.93 0 0 0 .31.559"/><path fill="#F7DB17" d="m318.402 69.865.124-.124.248-.373q.137-.201.311-.372a2.4 2.4 0 0 0-.249.434 4 4 0 0 0-.248.31v.125c.062.186.062.31.186.434l.186-.248q.103-.146.249-.248c.129-.1.235-.227.31-.373h.062l-.124.249a1.3 1.3 0 0 1-.186.186l-.248.186a.8.8 0 0 0-.125.248v.187c-.124.186-.31.31 0 .434a.37.37 0 0 0 .062.31l-.062.435c-.186.124 0 .124.062.124l.249-.248q.086-.13.186-.248l.248-.31.062-.311h.062a.9.9 0 0 1-.062.372 1.2 1.2 0 0 1-.31.31q-.07.121-.124.25-.105.115-.186.247c.124.062.124.249.124.435h.062l.124-.124.124-.249h.062l-.124.249-.124.186c.124.062.124.186 0 .31-.248.187-.186.249 0 .435v.745l.062.186h-.062v-.186c-.248.434-.373.683-.435 1.117-.372.062-.31.497-.372.807a2.42 2.42 0 0 1-1.179.931c-.063 0-.311.062-.311.186 0 .063.124.187.248.125.249-.31.435-.125.125.124v.186c.31.248.993.31 1.365.124.186-.186.311-.31.124-.559 0-.31.125-.62.497-.744v-.249l.062-.807.124-.062c.124 0 .373-.434.435-.807v-.248q.093-.186.186 0c0-.124 0-.186.124-.248.124-.187.31-.373.497-.249a1.9 1.9 0 0 1-.062-.496 1.7 1.7 0 0 1 0-.621l.124-.124.186-.435.186-.434h.062l-.186.434-.186.497v.062c-.063.2-.084.412-.062.62l.124.56.124.248v.372c.248.373 0 1.055-.186 1.366a.61.61 0 0 0-.062.496c.124.125 0 .249-.062.373v.062c0 .124 0 .248-.124.31l-.435.994c-.248.062-.31.186-.372.434-.187.062-.187.124-.249.248-.159.16-.349.288-.558.373-.187.062 0 .124.124.248.124.062.248-.124.372-.248.124-.186.186-.124.124 0a1.3 1.3 0 0 0-.124.434l.435.186c.248 0 .558-.248.745-.372s.124-.31.062-.497a1.3 1.3 0 0 1-.311 0 2 2 0 0 1-.31-.186c.198.08.408.121.621.124v-.186a1.7 1.7 0 0 0 .31-.496c.248-.125.248-.249.248-.56l.062-.31q.261-.477.435-.993c.248-.248.31-.558.31-.869q0-.186.187-.186a2.4 2.4 0 0 0 .186-.31l.062-.249a.5.5 0 0 1 .124-.124.6.6 0 0 0 0-.31.7.7 0 0 0-.062-.248.3.3 0 0 1-.062-.125v-.124h.062v.062a.3.3 0 0 0 0 .124c.124.125.124.187.124.31a.6.6 0 0 1 0 .311.4.4 0 0 0-.124.124 1 1 0 0 0 0 .187l.372-.062.249-.31.124-.373q.007.222-.062.434l-.186.187c.248.124.434 0 .62 0v-.808l.249-.434q.093 0 0 0l-.125.497v.62c.063.249.125.31.311.186l.248-.124v-.062q.526-.533 1.118-.993c.062.062 0 .062 0 .062a4 4 0 0 0-.497.435l-.497.434v.187c0 .186.062.31.373.186l.372-.124a.8.8 0 0 1 .186-.125q.152-.098.311-.186l.31-.186q.012-.189.062-.373l.435-.806c.3-.142.541-.383.683-.683h.062l-.249.434a1.5 1.5 0 0 1-.434.31l-.435.746q-.045.151-.062.31v.062a1.7 1.7 0 0 0 0 .496c.124 0 .249 0 .435-.186l.434-.434q.038-.166.124-.31a.63.63 0 0 1 .249-.249h.062v.062a.55.55 0 0 0-.248.186q-.087.146-.125.31v.684l.621-.31v.62c0 .186.124.372.248.497q.13-.209.311-.373l.186-.186.124-.124.186-.124-.124.186-.124.124-.186.124v.31h.372c0 .31 0 .373.311.373a2 2 0 0 1 0-.31l.062-.31h.062q-.053.15-.062.31a2 2 0 0 0 0 .31c.124.186.186.248.434.372l.124-.31a.9.9 0 0 0 0-.248h.063v.31l-.187.31v.31q.057-.096.124-.185l.187-.249q.093 0 0 0c0 .125 0 .187-.124.249a3 3 0 0 0-.125.248l.125.124c-.373.62-.807 1.552-1.552 1.862-.373.124-.559.31-.621.745a.62.62 0 0 0-.31.373l-.745.186c0 .186 0 .248.186.248l.434-.186c.062 0 0 .31-.31.497v.062c.248.372.869.248 1.179.124.249 0 .621-.31.745-.559.062-.124 0-.248-.124-.372-.496.062-.372-.373 0-.187.124 0 .186 0 .186-.186.373-.124.559-.31.621-.62.373-.435.745-.87.993-1.304.062-.124.125-.248.062-.31a.63.63 0 0 0 .125-.31l.062-.25h.062v.311a3 3 0 0 1-.124.186c0 .063 0 .125.124.125l.931-.621c0-.186.124-.248.248-.248l.124-.062c.062-.249 0-.373-.124-.497-.062-.248.062-.31.248-.435.125-.124.125-.434.125-.62v-.124a2 2 0 0 0 0-.187l.062.187v.061c.186-.061.372-.186.434-.372a.7.7 0 0 0-.186-.496 6 6 0 0 1-.372.124q.222-.115.434-.249a.8.8 0 0 0 .186-.124c.124-.186-.186-.31-.31-.372l-.435-.435v-.062l.435.373v-.683l-.124-.249a.7.7 0 0 1-.311-.248.6.6 0 0 1-.062-.31l.124.248.249.248h.621c.186-.186-.125-.434-.187-.558l-.062-.31h.062a.6.6 0 0 0-.124-.125.4.4 0 0 0-.062 0v-.124a.4.4 0 0 1 .124.062l.124.124h.062c.187 0 .311-.124.435-.31a2 2 0 0 0-.186-.248 6 6 0 0 0-.311-.187v-.062h.062q.285.213.497.497c.248 0 .248 0 .373-.186a1 1 0 0 0-.125-.249 1.5 1.5 0 0 0-.186-.248c.124 0 .186.124.248.186l.125.31.248-.061c.186-.125 0-.497 0-.621h-.062l-.124-.124h.124l.124.062.248-.373c0-.248 0-.124.311-.186.248 0 .372 0 .558-.372.062 0 .124 0 .124-.187 0-.186 0-.248-.186-.248-.31 0-.496 0-.621.186v.187l-.124-.125c-.248 0-.434 0-.682.124h-.125l.125.187.062.248a.6.6 0 0 0-.125-.248 1 1 0 0 0-.186-.248 1.6 1.6 0 0 0-.621-.125l.125.062.124.124v.063l-.124-.124a4 4 0 0 1-.125-.125q-.29.015-.558.125l-.373.124.249.31.124.372a1.177 1.177 0 0 0-.435-.62 1.1 1.1 0 0 1-.31 0l.124.186-.186-.248a.9.9 0 0 1-.311-.124q.105.459.125.93a5 5 0 0 0-.125-.558 3 3 0 0 0-.062-.435 1 1 0 0 1-.124-.124 1.3 1.3 0 0 0-.372-.248.63.63 0 0 1-.124.435.5.5 0 0 0 .062-.497 2 2 0 0 0-.621-.124q.178.235.31.496l.187.31v.311a1.3 1.3 0 0 0-.063-.31.43.43 0 0 0-.186-.249 3.4 3.4 0 0 0-.372-.558h-.249.063a.4.4 0 0 1 0 .186.3.3 0 0 0 0-.124.4.4 0 0 0-.125-.062h-.496c.325.415.538.906.621 1.427a3 3 0 0 0-.249-.745 3.2 3.2 0 0 0-.434-.62h-.373q.145.103.249.248 0 .093 0 0a1 1 0 0 0-.187-.062 1.5 1.5 0 0 0-.186-.124 3 3 0 0 0-.186 0l-.062.062c.242.193.451.424.621.683a2.4 2.4 0 0 0-.373-.373 3 3 0 0 0-.372-.248h-.373c.166.33.271.688.311 1.055h-.062a2.2 2.2 0 0 0-.125-.496 4 4 0 0 0-.186-.559 5 5 0 0 1-.248 0q.137.488.186.993v.062a6 6 0 0 0-.124-.62 6 6 0 0 0-.186-.497 2.4 2.4 0 0 0-.807-.62c.161.19.249.432.248.682v.062a1 1 0 0 0-.124-.434 1.1 1.1 0 0 0-.248-.373 1 1 0 0 0-.187 0 10 10 0 0 0-.62 0c.124.062.248.248.248.373 0-.125-.186-.31-.373-.435h-.372l.186.186.124.31.125.373.248.248q0 .094 0 0a.7.7 0 0 1-.311-.186.94.94 0 0 1-.124-.434.8.8 0 0 0-.124-.249 1.6 1.6 0 0 0-.186-.248h-.435l.125.497.062.62h-.062a5 5 0 0 0 0-.62 3 3 0 0 0-.187-.497.62.62 0 0 0-.372-.31.37.37 0 0 1 0 .186h-.062a.3.3 0 0 0 0-.186c-.124-.31-.186-.435-.373-.497v.248l-.124.249h-.062l.062-.31v-.249c0-.373-.124-.62-.496-.745v.124l-.062.31h-.063v-.31a1 1 0 0 0 0-.186l-.31-.31q.033.217 0 .434a1.9 1.9 0 0 1-.248.497h-.062q.128-.235.186-.497a1.4 1.4 0 0 0 .062-.496.6.6 0 0 1-.124-.187v.124h-.062v-.124l.062-.062v-.062a.44.44 0 0 0-.186-.31 1 1 0 0 1-.125.31h-.062l.062-.186.063-.186a.6.6 0 0 1-.063-.124.5.5 0 0 1-.062.124.7.7 0 0 1-.124.124c-.062-.062 0-.062 0-.062l.062-.124a.4.4 0 0 0 .062-.124v-.125c0-.186 0-.248-.124-.434a.6.6 0 0 0-.186 0q-.17.106-.31.248v-.062q.116-.102.248-.186a.56.56 0 0 1 .248-.062.24.24 0 0 0 0-.124l-.621.186a1 1 0 0 1-.558-.124h.496c.187 0 .435 0 .683-.125l.124-.372a1 1 0 0 1-.31 0l.372-.062v-.124c0-.124.187-.124.249 0 .124 0 .186.124.248.186.186.124.373 0 .559-.124h-.124v-.062h.186c.372 0 .621 0 .869-.31a4 4 0 0 1-.621 0c-.124 0-.248 0-.372-.125l.434.062h.621l.31-.186a3.35 3.35 0 0 1-1.241-.372.9.9 0 0 0-.373-.186c-.31 0-.62 0-.869.186l-.186-.186-.248-.125h-.373.745a2.8 2.8 0 0 1 1.056-.186 3.5 3.5 0 0 1 1.055-.124v-.124q.279-.28.186-.559c-.062-.124-.248-.31-.497-.434h-.807a2.5 2.5 0 0 0-.496.062l.372.248.249.62v.063h-.125a1.24 1.24 0 0 0-.248-.62c-.062-.125-.372-.187-.434-.25l-.807.125-.435.248c.186-.062.373 0 .497 0 .186.124.31.248.372.497v.062h-.124a.61.61 0 0 0-.31-.435c-.249-.124-.745 0-.994.187a2.6 2.6 0 0 0-.372.372h-.124v-.124l.434-.373.435-.248c.173-.16.388-.268.621-.31l.807-.124a.63.63 0 0 0-.311-.31.87.87 0 0 0-.496 0c-.311.061-.621.247-.931.434h.31l.062.124h-.31a.9.9 0 0 0-.249 0l-.931.745c-.31 0-.496 0-.621.124l-.062.372-.124.435c-.31.31-.621.559-.807.931a.9.9 0 0 1-.186.31.3.3 0 0 1 .186.063v-.125l.124-.248h.062a.8.8 0 0 0-.062.248v.31h-.124a.2.2 0 0 0-.062-.123.3.3 0 0 0-.186 0l-.186.124-.124.186c0 .186.124.186.31.186.372 0 .062.248.248.435l.311.248h.31c0-.248 0-.372.124-.372a.5.5 0 0 1 .124-.249.5.5 0 0 0 0 .124.5.5 0 0 0-.062.125v.248a1.5 1.5 0 0 1 .621-.124c.434-.497.621-.373.248 0l-.062.124a.9.9 0 0 0-.124.372c-.124.062-.621.497-.435.621.125 0 .249 0 .187.124s-.249.373-.187.559h.187q.231-.17.434-.373.186-.228.311-.496h.062a6 6 0 0 1 .186-.497c0-.124.062-.31.186-.434l.186.186q.063.015.125 0a.25.25 0 0 0 .186 0l.124-.186h.062a.7.7 0 0 1-.186.248.3.3 0 0 1-.186 0 .3.3 0 0 1-.125 0 .7.7 0 0 1-.186-.186 7 7 0 0 0-.31.869v.062a3.5 3.5 0 0 1-.745.869l.124.31.621-.62.496-.621a4 4 0 0 1-.186.372v.683h-.062v-.558l-.186.186q-.292.329-.621.62c-.186.187-.372.187-.124.435l.186-.186.248-.186h.063v.062l-.249.186-.248.186q.006.1.062.186a.3.3 0 0 1 .062 0l.497-.372c.062 0 0 .062 0 .062l-.435.372a.4.4 0 0 1-.062 0c-.186.187-.745.497-.621.745l.373-.124.372-.31c.062 0 0 0 0 .062a1.6 1.6 0 0 1-.372.31v.124-.062a2.2 2.2 0 0 1-.435.062c.062.249 0 .435-.186.621 0 .062-.621.559-.372.62a.6.6 0 0 0 .186.125"/><path fill="#F7DB17" d="M318.65 61.858a1.4 1.4 0 0 0-.372-.187.9.9 0 0 0-.31-.31c-.125-.124-.125-.062-.062-.186l.124-.062a.6.6 0 0 1 .186 0 .25.25 0 0 1 .124.124h.062a.3.3 0 0 0-.124-.124.6.6 0 0 0-.248-.062.44.44 0 0 0-.249 0l-.124-.31.249.061.124.062a.5.5 0 0 0-.124-.124 1 1 0 0 0-.125 0 1.8 1.8 0 0 1 1.304.124c.248.062.372.187.497.373l-.125.124c-.31 0-.496 0-.62.124-.124.062-.124.248-.124.373z"/><path fill="#000" d="m328.334 75.328-.248.124c0-.186.124-.248.186-.372v.124zm1.242 2.607a1.5 1.5 0 0 1-.249.248q-.144.136-.31.249v-.062l.248-.249.248-.248zm.806-.993-.124.186h-.062l.124-.186zm-.434 0a.7.7 0 0 1-.124.186.62.62 0 0 1-.311.248v-.062a.6.6 0 0 0 .249-.186.6.6 0 0 0 .062-.248zm.745-.993a.6.6 0 0 0-.062.124.7.7 0 0 0-.062.124h-.062a.7.7 0 0 1 .186-.31zm.621 0v.31l-.187.31.062-.31zm-.249-3.725c.187.31.249.62.249.931a4 4 0 0 1 .062-.372.87.87 0 0 0 .186-.683c0-.062.062 0 .062 0v.373q-.056.204-.186.372l-.124.62h-.062v-.061c0-.373 0-.745-.249-1.118zm-.496.62v.187h-.062v-.248zm-.124.87q.112.428.124.869a1 1 0 0 1 .062-.062l.186-.186h.062a.6.6 0 0 0-.186.186.43.43 0 0 0-.124.248 3 3 0 0 0-.062-.558 4 4 0 0 0-.125-.497zm.62.31a2.2 2.2 0 0 1 .062.745v-.372a2 2 0 0 0-.062-.373m.621-.124v.373a1 1 0 0 1 0 .31.76.76 0 0 0 0 .373l.062.372a1.6 1.6 0 0 1-.186-.373.8.8 0 0 1 0-.372.9.9 0 0 0 .124-.31 1.5 1.5 0 0 0 0-.373m.31-.93-.062.185v.124h-.062v-.372zm-.31-1.49q.093 0 0 0m.124-1.366v.496a.5.5 0 0 0-.124.186.9.9 0 0 0 0 .373h-.062a.9.9 0 0 1 0-.373.56.56 0 0 1 .186-.248zm-1.241-.435c.248.124.372.248.496.435q.187.186.187.558l-.373-.124v1.117c-.124.31-.31.497-.621.621.09-.367.09-.75 0-1.117h.062a2.2 2.2 0 0 1 0 .993.93.93 0 0 0 .435-.497c.123-.38.145-.787.062-1.179l.372.124c0-.186-.062-.31-.186-.496a1.6 1.6 0 0 0-.434-.373zm3.228-.62v.124h-.062v-.125zm-.745 0 .186.061q.04.058.062.125v.062a.5.5 0 0 0-.124-.124.4.4 0 0 0-.124-.125m-1.118.31.187.31v.373q-.093 0 0 0l-.062-.373a.6.6 0 0 0-.187-.31zm-3.724.31v.248l-.062.063v-.31zm.621-.372.124.248v.062h-.062v-.062l-.062-.186zm1.489.993v.062a.4.4 0 0 0-.062 0V70.3zm.497-1.117v.124a.12.12 0 0 1 0 .124.06.06 0 0 0 .044-.018.06.06 0 0 0 .018-.044.06.06 0 0 0-.018-.044.06.06 0 0 0-.044-.018c-.062-.062-.062-.062 0-.062zm-3.414.186c-.015.155.03.31.124.434.124.062.124.187.186.249v.248h-.062v-.248a.55.55 0 0 0-.124-.187.6.6 0 0 1-.124-.248.7.7 0 0 1-.062-.248zm1.366.93.124.435v.435c0 .186 0 .372.124.496l.372.435a1.8 1.8 0 0 1-.062-.62l.186-.621c.125 0 .125-.125.187-.187v-.248h.062v.248a.9.9 0 0 1-.186.31 1 1 0 0 0-.187.56c0 .186 0 .372.124.62h-.062c-.248-.124-.372-.31-.496-.497a.8.8 0 0 1-.124-.496v-.435a1.1 1.1 0 0 0-.125-.372c0-.062.063 0 .063 0zm-.559.87c0 .124 0 .31-.124.434q-.105.2-.249.373h.187a1.4 1.4 0 0 0 .434-.373l.186-.186a2 2 0 0 1-.124.248 2 2 0 0 1-.186.125v.248-.124a1 1 0 0 0-.062-.062q-.118.075-.248.124l-.249.124v-.062l.249-.435zm-.621 0v.062h-.062v-.124z"/><path fill="#000" d="M327.092 70.3c.124.186.124.372.124.62a1.2 1.2 0 0 1-.248.497 1.2 1.2 0 0 0-.311.372 1.6 1.6 0 0 0-.124.373l.124-.187.311-.186c.255-.15.485-.338.682-.558h.063a2.5 2.5 0 0 1-.745.62.6.6 0 0 0-.249.187q-.145.138-.248.31c0-.248 0-.434.124-.62l.311-.373.248-.497c0-.186 0-.372-.124-.559zm1.428 2.172.062.248.062.063c.124.186.186.31.186.496l-.062.62h-.062a1.1 1.1 0 0 0-.249-.62 2.1 2.1 0 0 0-.496-.372v-.062c.248.124.434.248.559.434l.186.373a2 2 0 0 0 0-.373.8.8 0 0 0-.062-.434l-.062-.125c-.125-.124-.187-.186-.125-.248zm.62 0 .062.124h-.062l-.124-.124zm1.056 2.67a.18.18 0 0 1 0-.125zm-.435-.745v.186l-.124.248v-.248l.062-.249h.062zm-.621 0h.062v.061zm-.683-.373q-.03.063-.062.124v.124h-.062v-.248h.124m-1.055 1.117a.4.4 0 0 0-.062.124 1 1 0 0 0 0 .125s-.062.062-.124 0v-.124a.5.5 0 0 1 .124-.187zm-2.979 2.856a.4.4 0 0 1 0 .124.7.7 0 0 1-.125.062q-.093 0 0 0a.5.5 0 0 0 .063-.186zm.496-.248a.19.19 0 0 1-.062.124.4.4 0 0 1-.124 0 .3.3 0 0 0 .062-.062.2.2 0 0 0 0-.062zm.621-.373a.3.3 0 0 1 0 .062.3.3 0 0 1-.124.062.26.26 0 0 0 0-.124zm.931-2.359-.062.249a.9.9 0 0 0 0 .248h-.062a.9.9 0 0 1 0-.248v-.31h.062zm.621-6.393a.6.6 0 0 1-.062.186 1 1 0 0 1-.124.186h-.062l.124-.186a.5.5 0 0 0 0-.186l.062-.063zm-.621-.621c.076.197.098.412.062.62a1 1 0 0 0 0-.31 1 1 0 0 0-.124-.248zm-.869 1.055a.9.9 0 0 1-.248-.248.43.43 0 0 1-.062-.249l.124.249zm.931 1.614v.124h-.062v-.124zm-1.241-1.242.372.621.062.497c.124 0 .186-.062.248-.186v-.56q.127-.168.187-.372.042-.152.062-.31h.062l.248.497.186.558h-.062a1.8 1.8 0 0 0-.186-.558 2.5 2.5 0 0 0-.186-.373q.009.124 0 .249a1.3 1.3 0 0 1-.186.31l-.062.62-.249.187v.248h-.062c0-.248 0-.496-.124-.745a1.24 1.24 0 0 0-.31-.62zm.745 3.104v.186l-.063.249h-.062v-.497h.062q.094 0 0 0zm-1.366.559v.186l-.062-.186c0-.062.062 0 .062 0m1.179-1.552a1.4 1.4 0 0 1-.124.373l-.186.31a.7.7 0 0 0-.186.372 1.1 1.1 0 0 0 0 .435 1.2 1.2 0 0 1-.062-.435.67.67 0 0 1 .186-.434q.115-.143.186-.31.09-.177.124-.373zm-.31-.497v.373c-.08.141-.186.268-.31.372a1.1 1.1 0 0 0-.249.31l-.124.311h-.062l.124-.372.311-.31a1.3 1.3 0 0 0 .186-.311.62.62 0 0 0 .062-.373zm-1.49.745c0 .249 0 .435-.124.621a.97.97 0 0 1-.372.497h-.063v-.062a.96.96 0 0 0 .373-.497c.124-.124.124-.373.124-.62zm-1.862 1.056v.124l.062.062v.062h-.062l-.062-.124v-.124zm-.807 0q-.029.217 0 .434l.248.373.062.31v.248l.249-.31a.9.9 0 0 0 .124-.373q.035.187 0 .373l-.311.372h-.062a2 2 0 0 0 0-.31 1 1 0 0 0-.124-.248 1.3 1.3 0 0 1-.186-.435 1.6 1.6 0 0 1-.062-.434zm.124 2.607a1.6 1.6 0 0 1 .062-.497h.062a1.6 1.6 0 0 0-.062.497zm-.124.683v-.249s0-.062.062 0v.249zm-.497 1.241.124-.186.125-.186h.062a3 3 0 0 1-.124.248l-.125.124q-.093 0 0 0zm-.683-4.097v.124h-.062v-.124zm-1.241 2.794v-.187h.062v.187zm3.104-4.966-.186.62c0 .186.062.373.186.435.186.124.248.248.31.434v-.248a.19.19 0 0 0 0-.248h.062c.039.205.039.415 0 .62h-.062v-.124l-.31-.372c-.187-.124-.249-.249-.249-.497l.125-.62zm-.249-.808q.04.25 0 .497-.072.226-.186.435a1.5 1.5 0 0 0-.124.62c0 .249.062.435.186.621v.062a1.55 1.55 0 0 1-.124-1.303q.083-.21.124-.435c0-.186.062-.31 0-.497zm-1.427 2.049a.5.5 0 0 0 0 .248l.062.31a.9.9 0 0 1-.186-.31.55.55 0 0 1 .062-.31zm-.621-.248v.186q.015.093 0 .186a.2.2 0 0 0-.05.087.24.24 0 0 0-.012.1l.062.123v.063a.5.5 0 0 1-.124-.187.31.31 0 0 1 0-.248.5.5 0 0 0 .062-.124zm3.6-5.339c-.046.323.02.651.187.931a1.6 1.6 0 0 1-.249-.434 1.4 1.4 0 0 1 0-.497zm-.434.435c.181.324.287.684.31 1.055h-.062a2.36 2.36 0 0 0-.31-.993v-.062zm-2.235.062c-.248.31-.31.62-.372.807l.124.559.124.496a1.6 1.6 0 0 1-.124.497v-.497a1.4 1.4 0 0 0 0-.496 1.05 1.05 0 0 1-.186-.621q0-.28.372-.745zm2.049-.87v.311l-.249.249a.5.5 0 0 0-.186.248v.434a1.2 1.2 0 0 1 0-.434.63.63 0 0 1 .186-.31.6.6 0 0 0 .186-.249.37.37 0 0 0 0-.248zm-2.173.187v.434c0 .125-.124.249-.248.373a.75.75 0 0 0-.249.372 1.8 1.8 0 0 0-.062.435h-.062a1.9 1.9 0 0 1 .062-.497c0-.124.124-.248.249-.372l.248-.372a.62.62 0 0 0 0-.373zm1.241.062a.5.5 0 0 0 0 .124c0 .067.022.133.063.187a.4.4 0 0 1-.125-.125.5.5 0 0 1 0-.186zm0-.31a.5.5 0 0 0-.31.248l-.124.434.124.31v.435q.031-.217 0-.434l-.186-.248a1.24 1.24 0 0 0-.311.745c0 .31.063.62.311.93h-.062a1.7 1.7 0 0 1-.311-.93c0-.31.125-.56.373-.807 0-.187 0-.373.124-.497a.62.62 0 0 1 .31-.248zm-.434-.497c0 .186 0 .373-.124.435a.5.5 0 0 0-.124.186 1 1 0 0 0-.062.248h-.063a1 1 0 0 1 0-.248.63.63 0 0 1 .187-.248c.124-.062.124-.249.124-.373v-.062zm3.538 3.725.062.31v.248a.9.9 0 0 0 0-.248 1.2 1.2 0 0 0-.124-.248zm0 1.241v.373l-.124.372-.186.373.124-.373q.09-.177.124-.372a1 1 0 0 0 0-.435h.062zm-.745-1.117a1.55 1.55 0 0 1 .435 1.552h-.062a1.49 1.49 0 0 0-.373-1.49zm0 1.241a3.3 3.3 0 0 1-.62.87 1.55 1.55 0 0 0-.311.62.9.9 0 0 0-.062-.372 1.2 1.2 0 0 0-.124-.249.87.87 0 0 1-.186-.558l.186-.497.186-.372a1.5 1.5 0 0 0 0-.373h.062c.009.28-.055.559-.186.807a.62.62 0 0 0-.186.435c0 .186 0 .372.124.496.097.15.161.32.186.497a1.6 1.6 0 0 1 .311-.497 3 3 0 0 0 .31-.372l.186-.435zm-1.986-.62c.005.306.09.606.248.869v.062h-.062a1.4 1.4 0 0 1-.186-.435 2 2 0 0 1 0-.434zm-1.055.62v.186h-.062zm.372-.993-.062.31a.9.9 0 0 1-.186.31l.124-.31a.9.9 0 0 0 0-.31zm-.993 1.924a2.04 2.04 0 0 1-.186-1.055c0-.31.186-.497.372-.62l.248-.435c.062-.124.125-.31.062-.62-.062-.311.063 0 .063 0v.62l-.373.434a1.2 1.2 0 0 0-.31.621c0 .31 0 .62.186 1.055zm-.621-.682a.5.5 0 0 0 0 .186l.062.248a.6.6 0 0 1-.124-.248.5.5 0 0 1 0-.249zm2.856-1.987c.062.124.186.31.186.497 0 .186 0 .372-.124.558h-.062l.124-.558a.93.93 0 0 0-.187-.497zm.869-.683c.128.34.128.716 0 1.056a1.1 1.1 0 0 0-.125-.497.9.9 0 0 0-.31-.31c0-.062 0-.062.062 0a1 1 0 0 1 .373.62v-.372a1.5 1.5 0 0 0-.062-.497zm.496-.745.249.497v.62a2.2 2.2 0 0 0-.063-.62.9.9 0 0 0-.248-.434c0-.063 0 0 .062 0zm-1.365-.124a.6.6 0 0 0-.187.31v.435a1.3 1.3 0 0 1 0-.434c0-.124 0-.249.124-.31q.094 0 0 0zm-2.732 1.863a1.24 1.24 0 0 1-.186.62 1.55 1.55 0 0 1-.497.435l.435-.435a1.05 1.05 0 0 0 .186-.62zm0-.994v.31a1.4 1.4 0 0 1-.186.311l.062-.31v-.31zm1.8-.124v.62h-.062zm.435-.807c-.124.186-.186.31-.186.497l.124.434.186.745c0 .249-.124.435-.248.683l.186-.683a1.18 1.18 0 0 0-.186-.745l-.124-.434c0-.186 0-.373.186-.497zm-2.856-5.028c.174-.16.389-.268.621-.31.249 0 .497 0 .745.186-.248.31-.496.434-.683.434a.62.62 0 0 1-.558-.124q0-.093 0 0a.62.62 0 0 0 .558 0c.124 0 .373-.062.621-.31a1.2 1.2 0 0 0-.621-.062 1.24 1.24 0 0 0-.62.248c-.063 0 0 0 0-.062z"/><path fill="#000" d="M320.016 62.416a.186.186 0 0 1 .186.186.19.19 0 0 1-.186.125.19.19 0 0 1-.125-.125.187.187 0 0 1 .125-.186m1.117.993c.198-.102.369-.25.497-.434.062 0 0 0 0 .062a1.4 1.4 0 0 1-.125.186l-.31.248c-.062-.062 0-.062 0-.062zm2.297-.993a.3.3 0 0 1 .186 0q.107.042.186.124a.4.4 0 0 0-.186 0 .3.3 0 0 0-.124 0l-.062-.062zm-1.242.062a.5.5 0 0 1 .186-.248l.435-.062v.062a.62.62 0 0 0-.435 0 .437.437 0 0 0-.186.31q-.093 0 0 0zm.124.248a.25.25 0 0 1 0-.186.4.4 0 0 1 .187-.062h.062a.3.3 0 0 0-.187.124.2.2 0 0 0 0 .125zm-2.234.683-.062.187a.5.5 0 0 0 0 .186l-.063.062a.7.7 0 0 1 0-.248c0-.062.001-.125.125-.187m.248-.372q.093.015.186 0h.186a1 1 0 0 1-.186.062.6.6 0 0 1-.186 0s-.062 0 0-.062m.372-1.242a.2.2 0 0 0-.124.063.25.25 0 0 0-.062.124h-.062a.3.3 0 0 1 .124-.187.25.25 0 0 1 .124 0m-.62.124a.5.5 0 0 0-.125 0 .2.2 0 0 0 0 .125h-.062a.26.26 0 0 1 0-.124.6.6 0 0 1 .187-.062zm-.435 0a1 1 0 0 0-.062.063.4.4 0 0 0-.062.124h-.062a.4.4 0 0 1 .062-.124.6.6 0 0 1 .124-.124zm-.496.435q-.145.103-.249.248v-.062q.106-.141.249-.248zm0 .559v.062l-.125.124q-.093 0 0 0v-.124zm0 0q.093 0 0 0m-.435.124v.186l-.062.062v-.248zm.621.869v.372h-.062v-.372zm-.373-.248v.186h-.062v-.186zm-.372-2.794a.43.43 0 0 1 .31.249v.062h-.062a.43.43 0 0 0-.124-.187.4.4 0 0 0-.124-.062zm3.228 4.16a.99.99 0 0 1 0 .868h-.062a1 1 0 0 0 0-.807v-.062zm-1.056 1.24c0-.185.125-.31.187-.434l.248-.372a.56.56 0 0 0 .186-.435 1.1 1.1 0 0 0 0-.434h.062a1.24 1.24 0 0 1-.186.93q-.132.15-.248.311zm-1.365-.372a.43.43 0 0 1 .124-.186.6.6 0 0 1 .186-.062.5.5 0 0 0-.124.124.4.4 0 0 0-.124.124zm-.248-.124.186-.186.186-.124v.062a.6.6 0 0 0-.186.124q-.071.087-.124.186-.093 0 0 0zm1.427-1.365h.124a.5.5 0 0 0 .187 0v.062a.5.5 0 0 1-.373 0q0-.093 0 0zm-.745-.062.062-.063q.093 0 0 0v.063zm15.023 4.345a.7.7 0 0 1 .124.186h-.062v-.062a.5.5 0 0 0-.125-.124zm-16.637 7.76.187.185a.6.6 0 0 0 .31 0v.062a.6.6 0 0 1-.31 0 1 1 0 0 1-.249-.186q0-.093 0 0z"/><path fill="red" d="M330.754 61.547q.528.056 1.055 0c-.372.187-.744.373-1.241.435a.5.5 0 0 0 .186-.248.25.25 0 0 0 0-.187m-.869-.062h.745v.248s0 .125-.124.187c0 0-.062 0 0 .062a3.5 3.5 0 0 1-.807 0 .63.63 0 0 0 .186-.31.38.38 0 0 0 0-.249zm-6.518-1.862c.435-.124.807-.124 1.242-.124a.6.6 0 0 1 .31.248c.062.124.124.31.062.497l.062.062h.062l-.062-.621a.6.6 0 0 0-.186-.124h.124c.457.026.902.154 1.304.372.124.124.186.187.124.31l-.186.311v.124h.124l.186-.434a.45.45 0 0 0 0-.187l1.055.497a.3.3 0 0 1 0 .31.6.6 0 0 1-.31.187v.062l.062.062c.186 0 .31-.124.372-.248a.37.37 0 0 0 0-.249l.745.373v.186c0 .124-.062.186-.186.248 0 0-.062 0 0 .062a.42.42 0 0 0 .373-.248.3.3 0 0 0 0-.186l.248.062q.392.158.807.248a.3.3 0 0 1 .058.118.3.3 0 0 1 .004.13.43.43 0 0 1-.124.187v.124c-.869-.062-1.676-.559-2.545-.87l-.311-.123-.993-.373-.062-.062a5.3 5.3 0 0 0-.931-.248 3.8 3.8 0 0 0-.993 0h-.062l-.062-.497a.8.8 0 0 0-.311-.248z"/><path fill="red" d="M321.878 59.933c.4-.152.817-.256 1.241-.31.249.062.373.186.435.31v.373a2.6 2.6 0 0 0-1.055.124.745.745 0 0 0-.435-.373.8.8 0 0 0-.186-.062zm4.593 2.421a6 6 0 0 0-.31-.248 4.35 4.35 0 0 0-1.862-.497c.186-.248.248-.496.186-.683a1.06 1.06 0 0 0-.434-.496h.62c.429.07.846.194 1.242.372 0 .187.062.373 0 .497 0 .186-.124.31-.311.434 0 0-.062 0 0 .062q0 .094 0 0c.249-.062.373-.248.435-.434v-.497l.621.373.62.496c0 .249 0 .373-.186.497h-.558v.124z"/><path fill="red" d="m327.713 63.285-1.117-.869c.248 0 .434 0 .62-.124a.74.74 0 0 0 .187-.497l.683.621.372.31v.249a.3.3 0 0 1 0 .124.37.37 0 0 1-.248.124h-.435z"/><path fill="red" d="M329.078 64.154a7.3 7.3 0 0 1-1.241-.807h.434a.5.5 0 0 0 .249-.124l.062-.248a.6.6 0 0 0 0-.124q.599.512 1.303.869c0 .186 0 .248-.186.31a1.9 1.9 0 0 1-.621.062z"/><path fill="red" d="M330.445 64.713a7.4 7.4 0 0 1-1.242-.496c.248 0 .435 0 .621-.125.124 0 .186-.124.186-.31q.392.213.807.372v.249l-.31.248z"/><path fill="red" d="M333.424 64.403s.248-.062.124 0c-.869.62-1.924.62-2.979.31.186-.062.31-.124.372-.248a.38.38 0 0 0 0-.31l1.055.248a.24.24 0 0 1-.012.1.2.2 0 0 1-.05.086l-.31.186s-.062 0 0 .062c.186 0 .31-.124.372-.186a.37.37 0 0 0 .124-.248q.621.069 1.242 0zM327.403 79.3l-.124.248-.745.186c0 .186 0 .248.186.248l.434-.186c.062 0 0 .31-.31.497v.062c.248.372.869.248 1.179.186.322-.128.601-.343.807-.62l-.186-.373c-.248.062-.372 0-.31-.124a2.4 2.4 0 0 0-.931-.124m-9.374-2.98a1.65 1.65 0 0 1-.62.372c-.125 0-.373.063-.373.187 0 .062.124.186.248.124.249-.31.435-.124.125.124v.186c.31.249.993.31 1.365.124.186-.124.373-.31.124-.558a1 1 0 0 1 0-.124h-.372l-.248-.187zm6.208 2.173h-.062c-.124.124.186.124.372.186.124.062.124.186.124.31-.186.435-1.179.31-1.489.124-.125-.062-.125-.186-.125-.31h.187c.124 0 .248 0 .372-.124v-.124h-.124a.8.8 0 0 1-.248.124q-.156.015-.311 0l-.124-.124h.124l.435-.124.062-.062c.31 0 .621 0 .807.124m-4.47-.249-.124.187c-.159.16-.349.287-.558.372-.125.062 0 .124.124.248.124.062.31-.124.372-.248.124-.186.186-.124.124 0l-.124.434.435.187c.248 0 .62-.248.745-.373.186-.124.124-.31.062-.496a1.3 1.3 0 0 1-.311 0 2 2 0 0 1-.31-.186zm1.739-16.388h.186l.372.063c.337-.13.695-.193 1.056-.187a3.5 3.5 0 0 1 1.055-.124v-.124q.279-.279.186-.559c-.062-.124-.248-.31-.497-.434h-.807a2.5 2.5 0 0 0-.496.062l.372.248.249.621c-.125.062-.125 0-.125 0 0-.248-.124-.373-.186-.559l-.496-.248a5.6 5.6 0 0 0-.807.124c-.187 0-.311.124-.435.186l.497.062c.186.063.31.249.372.497-.062.062-.062 0-.062 0a.62.62 0 0 0-.31-.372c-.249-.125-.807 0-1.056.124a2.6 2.6 0 0 0-.372.372l1.241.248zm-1.428-.248v-.062l.434-.372.435-.249c.173-.16.388-.268.621-.31l.807-.124a.62.62 0 0 0-.311-.31l-.496-.063-.931.497h.31l.062.124h-.248a.9.9 0 0 0-.249 0h-.062l-.807.62c.187.063.373.125.435.25"/><path fill="#0093DD" d="m355.647 96.868 12.912-29.176-9.497-15.332-16.947 6.207-7.884 30.914a136 136 0 0 1 21.416 7.387"/><path fill="#fff" d="M339.259 69.865a156 156 0 0 1 24.582 8.504l-4.966 11.298a144 144 0 0 0-22.657-7.884z"/><path fill="red" d="m359.62 87.866 3.352-7.573a154.3 154.3 0 0 0-24.209-8.38l-1.987 7.697a146.4 146.4 0 0 1 22.968 7.946z"/><path fill="#000" d="M341.121 77.81c.186-.186.434-.123.683-.061.186-.124.434-.124.62-.124l.373-.125c.124 0 .124-.124 0-.186a.37.37 0 0 1 0-.186c-.435-.248-.621-.62-.745-.931-.186 0-.31-.124-.31-.186h-.311c-.496 0-.621-.187-.807-.31a.62.62 0 0 1-.372-.25l-.186-.185c-.125-.187-.063-.435.124-.435h.434c.179-.063.37-.084.559-.062.186 0 .31-.186.559-.372v-.249s0-.124.124-.062a.62.62 0 0 1 .496.31c.311 0 .621.187.745.435.435 0 .683.186.745.31 0 .125-.124.249-.31.373v.124l.248.248.621.435c.621-.062 1.614.372 2.979 1.241.875.15 1.729.4 2.546.745h.558c1.49-.248 2.918 0 4.221.931.497.063.931.249 1.366.435.31.124.621.186.993.186.559.053 1.105.2 1.614.435.621.124 1.18.372 1.49.745.248.31.186.62-.124.745-.186.372-.559.372-1.118.186-.372.062-.807-.248-1.241-.559-.497-.124-.993-.496-1.49-.807l-.807-.372h-.496v.124c.124.124.248.248.248.496v.621c0 .249.186.373.434.559l.621.248q.186 0 .186.186l.249 1.056.248.186c.372.31.124.62-.186.62-.224.23-.501.401-.807.497-.249.124-.373 0-.435-.124a.31.31 0 0 1-.248-.124c-.31-.248-.062-.62.621-.435l.124-.124a.93.93 0 0 1 0-.558l-.186-.125a1.7 1.7 0 0 1-.621-.372c-.373-.31-.931-.62-1.49-.87-.435 0-.745-.247-1.117-.434h-.497c-.124 0-.248 0-.31.124-.124.187-.311.125-.497.125h-.993c-.248 0-.435 0-.621.186-.124.124-.248.124-.434 0a.6.6 0 0 1-.187-.124c-.186 0-.31 0-.31-.124-.31-.062-.372-.124-.372-.249-.373-.062-.187-.372 0-.372l.869.062c.248.062.62 0 .745-.124l.31-.31a2.5 2.5 0 0 1-1.117-.311c-.683-.434-1.242-.559-1.739-.186-.124.124-.186.124-.372.062a.6.6 0 0 0-.31 0c-.311.062-.559 0-.807-.062-.368.085-.75.085-1.118 0-.372.186-.62.248-.745.124a6 6 0 0 1-.372-.248c-.248-.062-.31-.124-.31-.187-.249 0-.311-.124-.311-.248-.124-.124 0-.186 0-.248.248-.124.435-.124.621 0 .186 0 .31.124.372.186h.373c.062-.124.31-.124.621-.124l.434-.124v-.124c-.248 0-.372-.249-.559-.435a1.86 1.86 0 0 1-.931-.31c-.248 0-.434-.062-.62-.186h-.435a1.55 1.55 0 0 1-.869 0h-.497a.62.62 0 0 1-.62.124.93.93 0 0 0-.497-.31c-.186-.063-.248-.125-.248-.249-.249-.124-.187-.248 0-.31.186-.062.31-.125.62 0z"/><path fill="#fff" d="M350.805 80.728s0-.124-.186 0c-.497 0-.993 0-1.366-.248-.434-.249-.807-.497-1.241-.497l.434-.248h.931c.435 0 .869.124 1.242.248.248.124.496.31.621.497.187.118.355.264.496.434q-.217.03-.434 0a1.8 1.8 0 0 1-.497-.186"/><path fill="#000" d="M351.923 58.505v.124l.558 3.042-2.296 1.986-.124.063.124.062 2.917.993.621 3.041v.125l.124-.062 2.297-2.049 2.855.993h.187v-.062l-.621-3.041 2.297-1.987.124-.124h-.186l-2.856-.993-.621-3.042v-.124l-.124.062-2.297 2.048z"/><path fill="#F7DB17" d="m350.433 63.657 2.172-1.862 2.732.87zm5.276-1.055 2.111-1.862 2.731.93zm4.842-.807-2.111 1.862-2.731-.93zm-5.214.993-2.173 1.862-2.669-.93zm-3.104-3.972 2.669.868.497 2.856zm3.414 3.972 2.731.931.559 2.794zm3.166 3.787-2.669-.931-.559-2.794zm-3.476-3.973-2.67-.931-.558-2.794zm1.862-4.78.621 2.856-2.173 1.862zm-1.676 5.028.496 2.856-2.11 1.862zm-1.738 4.656-.559-2.793 2.173-1.863zm1.738-4.966-.559-2.855 2.173-1.863z"/></g></g><defs><clipPath id="a"><path fill="#fff" d="M0 0h600v300H0z"/></clipPath><clipPath id="b"><path fill="#fff" d="M0 0h600v300H0z"/></clipPath></defs></svg>