<svg xmlns="http://www.w3.org/2000/svg" width="600" height="300" fill="none"><g clip-path="url(#a)"><path fill="#fff" d="M0 0h600v300H0z"/><path fill="#435125" d="M289.966 262a.5.5 0 0 1-.138-.138h-.07l-.899-.969-2.63-3.115-3.392-4.36-.415-.623-4.291-1.315-3.184-1.453 1.661-1.869 5.814 2.422 4.291.9 7.959 5.883-2.284 2.007a26 26 0 0 0-2.284 2.422l.485-.346.554.416zm-29.484-8.859a21.95 21.95 0 0 1-11.074-3.114s.484-.9 1.592-1.662c1.107-.83 3.045-1.73 6.229-1.799 3.737 0 8.305 1.315 13.496 3.737a19.93 19.93 0 0 1-10.243 2.769zm-16.265-3.599c-.692 0-1.384-.277-1.799-.692a3.6 3.6 0 0 1-.762-1.661 8 8 0 0 1-.207-2.353c.288-.103.593-.15.899-.139 1.385 0 2.492 1.177 2.976 2.353.277.693.346 1.246.139 1.731-.139.415-.692.692-1.246.692zm28.584-3.322c-9.62-1.384-13.703-4.845-15.434-7.544-1.799-2.838-1.384-5.537-1.384-5.537s.554-.139 1.384-.139c2.63 0 9.136 1.315 15.434 13.151zm-19.725-1.938c-4.083 0-7.198-.692-9.274-2.076a5.75 5.75 0 0 1-2.077-2.284 3.8 3.8 0 0 1-.276-1.108 12.6 12.6 0 0 1 4.983-.969 18.7 18.7 0 0 1 7.144 1.7 18.7 18.7 0 0 1 5.937 4.322q-3.53.415-6.437.415m-19.864-.692c-4.291 0-10.243-1.384-13.98-5.053 0 0 4.083-1.038 8.582-1.176h.83c4.084 0 7.198.761 9.275 2.353.692.554 1.107 1.038 1.176 1.523.07.415-.138.83-.553 1.176-.969.692-2.63 1.108-4.984 1.108h-.346zm-14.05-7.267a1.81 1.81 0 0 1-1.384-.693 3.26 3.26 0 0 1-.554-1.384c-.207-.969-.138-1.938-.138-2.007.218-.095.454-.142.692-.138.623 0 1.108.346 1.384.692.421.384.752.857.969 1.384.139.623.208 1.107 0 1.523 0 .277-.415.692-.899.692zm32.461-.693c-.692 0-1.385-.276-1.8-.692a3.6 3.6 0 0 1-.761-1.661 8.1 8.1 0 0 1-.208-2.353 2.4 2.4 0 0 1 .9-.138c1.384 0 2.561 1.176 2.976 2.353.277.692.346 1.246.208 1.73-.208.415-.692.692-1.385.692zm-15.781-.692c-8.72-.276-13.288-2.768-15.503-4.844a10.1 10.1 0 0 1-2.353-2.977c-.346-.692-.485-1.245-.485-1.384s.831-.277 2.077-.277h.277c2.906 0 8.928 1.246 15.918 9.482zm9.413-.83a21.32 21.32 0 0 1-13.081-6.437 13.4 13.4 0 0 1-2.837-4.845s.83-.207 2.076-.277a10 10 0 0 1 .692 0c3.461.07 9.897 1.662 13.15 11.559m-35.99-3.461a29 29 0 0 1-6.575-.692c-3.668-.969-5.26-2.353-5.952-3.391a3.5 3.5 0 0 1-.554-1.384 2.3 2.3 0 0 1 0-.554s2.423-.692 5.814-.761a24 24 0 0 1 5.122.415 15.02 15.02 0 0 1 8.859 5.606s-2.769.83-6.714.83zm16.265-5.814a2.35 2.35 0 0 1-1.73-.692 3.6 3.6 0 0 1-.762-1.661c-.277-1.107-.207-2.215-.207-2.353.262-.118.543-.188.83-.208h.069c1.385 0 2.492 1.246 2.976 2.423.277.692.277 1.246.139 1.661-.208.484-.692.761-1.315.761zm-12.181-1.73a26.7 26.7 0 0 1-6.645-2.907c-3.045-1.868-6.852-5.191-7.267-10.381l.692-.07h.208c.9 0 2.768.208 5.052 1.938 2.907 2.215 5.537 6.091 7.96 11.42m7.959-.277a21.6 21.6 0 0 1-5.26-3.391 33.56 33.56 0 0 1-9.205-12.873s.623-.346 1.592-.416h.415c1.384 0 3.391.623 5.606 3.046 2.63 2.768 4.914 7.336 6.921 13.634zm-20.694-.623c-2.7 0-3.599-1.384-3.876-2.076a4.15 4.15 0 0 1-.277-2.076 6 6 0 0 1 1.384-.139 5.54 5.54 0 0 1 4.499 2.077c.138.276.554.969.208 1.592-.277.415-.9.692-1.938.692zm-5.883-7.474a35.4 35.4 0 0 1-6.229-.485c-2.354-.415-3.669-2.422-4.43-4.083-.692-1.731-.969-3.461-.969-3.461 7.337.208 10.866 2.353 12.458 4.153a6.5 6.5 0 0 1 1.8 3.806s-1.108.139-2.63.139zm7.613-7.614a29 29 0 0 1-1.661-2.353c-.9-1.384-1.661-2.768-1.661-3.876 0-1.176-.277-3.46-.415-4.845l-.416-3.114c.208 0 4.568 1.661 4.568 5.814 0 4.152-.415 8.305-.415 8.305zm-5.675-.415h-.139a30.25 30.25 0 0 1-12.596-7.475c-1.177-1.384-1.938-3.599-2.146-6.506-.138-2.076 0-3.806 0-4.014.248-.066.506-.089.761-.069.969 0 2.077.415 3.461 1.384a27.5 27.5 0 0 1 3.599 3.045 55 55 0 0 1 3.945 4.43c.208.277 1.384 2.561 2.422 4.775a15.2 15.2 0 0 1 1.108 3.184c.069.415.138.692 0 .969a.5.5 0 0 1-.208.277.6.6 0 0 1-.277 0z"/><path fill="#435125" d="M274.808 262a.6.6 0 0 0 .138-.138h.069l.9-.969 2.63-3.115 3.391-4.36.416-.623 4.291-1.315 3.183-1.453-1.661-1.869-5.813 2.422-4.292.9-7.959 5.883 2.284 2.007a26 26 0 0 1 2.284 2.422l-.484-.346-.554.416zm29.484-8.859a21.95 21.95 0 0 0 11.074-3.114s-.485-.9-1.592-1.662c-1.108-.83-3.046-1.73-6.229-1.799-3.738 0-8.306 1.315-13.497 3.737a19.94 19.94 0 0 0 10.244 2.769zm16.264-3.599c.693 0 1.385-.277 1.8-.692a3.6 3.6 0 0 0 .761-1.661 8.1 8.1 0 0 0 .208-2.353 2.4 2.4 0 0 0-.9-.139c-1.384 0-2.491 1.177-2.976 2.353-.277.693-.346 1.246-.138 1.731.138.415.692.692 1.245.692zm-28.584-3.322c9.62-1.384 13.704-4.845 15.434-7.544 1.8-2.838 1.384-5.537 1.384-5.537s-.553-.139-1.384-.139c-2.63 0-9.136 1.315-15.434 13.151zm19.725-1.938c4.084 0 7.198-.692 9.275-2.076a5.76 5.76 0 0 0 2.076-2.284c.148-.353.242-.727.277-1.108a12.6 12.6 0 0 0-4.983-.969 18.678 18.678 0 0 0-13.081 6.022q3.53.415 6.436.415m19.864-.692c4.291 0 10.243-1.384 13.981-5.053 0 0-4.084-1.038-8.582-1.176h-.831c-4.083 0-7.198.761-9.274 2.353-.692.554-1.108 1.038-1.177 1.523-.069.415.139.83.554 1.176.969.692 2.63 1.108 4.983 1.108h.346zm14.05-7.267a1.8 1.8 0 0 0 1.384-.693c.29-.412.479-.886.554-1.384.208-.969.138-1.938.138-2.007a1.7 1.7 0 0 0-.692-.138c-.623 0-1.107.346-1.384.692a3.9 3.9 0 0 0-.969 1.384c-.138.623-.208 1.107 0 1.523 0 .277.415.692.9.692zm-32.46-.693c.692 0 1.384-.276 1.799-.692a3.6 3.6 0 0 0 .762-1.661c.183-.77.253-1.563.207-2.353a2.4 2.4 0 0 0-.9-.138c-1.384 0-2.56 1.176-2.976 2.353-.276.692-.346 1.246-.207 1.73.207.415.692.692 1.384.692zm15.78-.692c8.721-.276 13.289-2.768 15.503-4.844a10.1 10.1 0 0 0 2.354-2.977c.346-.692.484-1.245.484-1.384s-.83-.277-2.076-.277h-.277c-2.907 0-8.928 1.246-15.919 9.482zm-9.413-.83a21.32 21.32 0 0 0 13.081-6.437 13.4 13.4 0 0 0 2.838-4.845s-.831-.207-2.076-.277a10 10 0 0 0-.693 0c-3.46.07-9.897 1.662-13.15 11.559m35.99-3.461c2.211.02 4.417-.212 6.575-.692 3.669-.969 5.261-2.353 5.953-3.391.283-.416.472-.888.553-1.384q.033-.277 0-.554s-2.422-.692-5.813-.761a24 24 0 0 0-5.122.415 15.02 15.02 0 0 0-8.859 5.606s2.768.83 6.713.83zm-16.264-5.814a2.34 2.34 0 0 0 1.73-.692 3.6 3.6 0 0 0 .761-1.661c.277-1.107.208-2.215.208-2.353a2.4 2.4 0 0 0-.831-.208h-.069c-1.384 0-2.492 1.246-2.976 2.423-.277.692-.277 1.246-.138 1.661.207.484.692.761 1.315.761zm12.181-1.73a26.7 26.7 0 0 0 6.644-2.907c3.045-1.868 6.852-5.191 7.267-10.381l-.692-.07h-.207c-.9 0-2.769.208-5.053 1.938-2.907 2.215-5.537 6.091-7.959 11.42m-7.96-.277a21.6 21.6 0 0 0 5.261-3.391 33.6 33.6 0 0 0 9.205-12.873s-.623-.346-1.592-.416h-.415c-1.385 0-3.392.623-5.607 3.046-2.63 2.768-4.914 7.336-6.921 13.634zm20.695-.623c2.699 0 3.599-1.384 3.876-2.076a4.15 4.15 0 0 0 .276-2.076 6 6 0 0 0-1.384-.139 5.54 5.54 0 0 0-4.499 2.077c-.138.276-.553.969-.207 1.592.277.415.9.692 1.938.692zm5.883-7.474c2.086.022 4.171-.14 6.229-.485 2.353-.415 3.668-2.422 4.429-4.083.692-1.731.969-3.461.969-3.461-7.336.208-10.866 2.353-12.458 4.153a6.5 6.5 0 0 0-1.799 3.806s1.107.139 2.63.139zm-7.614-7.614a30 30 0 0 0 1.662-2.353c.899-1.384 1.661-2.768 1.661-3.876 0-1.176.276-3.46.415-4.845l.415-3.114c-.207 0-4.568 1.661-4.568 5.814 0 4.152.415 8.305.415 8.305zm5.676-.415h.138a30.25 30.25 0 0 0 12.597-7.475c1.176-1.384 1.938-3.599 2.145-6.506.139-2.076 0-3.806 0-4.014a2.3 2.3 0 0 0-.761-.069c-.969 0-2.076.415-3.461 1.384a27.5 27.5 0 0 0-3.599 3.045c-2.214 2.215-3.945 4.43-3.945 4.43-.207.277-1.384 2.561-2.422 4.775a15.2 15.2 0 0 0-1.107 3.184c-.07.415-.139.692 0 .969a.48.48 0 0 0 .207.277.6.6 0 0 0 .277 0z"/><path fill="#D47600" d="m436.14 39-1.245.484-.554.208-1.523-.07-1.522.693-2.631 1.8-.069.069-1.038.277-.9-.416-.484.277-.208 1.038-.484.762-.623.415-2.076.208-1.731.969-2.353-.693-1.038.485-2.284 2.076-1.177.485h-.346l-1.592-.07-.623.208-.969.9-1.799.138-.623.416-.9 1.8-.969 1.106-.553.07-.554-.208-.485.07-.207 1.176-.415.484-1.246.416-.969.83-.9.415h-1.384l-1.177.693-2.145.138-.9.83-.208.208-.415.208-.692.415-.139.139-.83-.139-.969.346-.415-.554-.692.347-.831.069-1.107-.485-.9-.415-.623.138-.208 1.038v.139l-.692.83-1.176.762-.139.208-1.384 1.799-2.63 2.768-2.215 1.108-2.284.692-1.592 1.315-4.152 2.076-6.714 3.323-1.384.415-1.938.277-3.461 1.315-3.045.9-.208.069-.553.207-4.361 1.315-2.007-.277-1.176.485-3.115-.346h-2.146l-1.384.277-2.561 1.246-4.36 2.076-1.384 1.384-2.215 1.107-2.63.831v-1.107l-.9.276-.692.208-2.076.277h-1.177l-.761-.208h-.139l-4.291 1.454-4.844.484-2.423.761h-1.799l-1.108.347-2.215.276-.83-.207-.139-.07-6.505.277-2.977-.346-1.384.346-2.422-.83-3.461-.415-.83-.208-1.8-.554-.83.485-.692.069-1.385-.554h-.553l-1.246.416-.692-.139-.692-.553-1.454-.208-.969-.761-5.191.692-1.384-.416-4.776-1.384h-.692l-.969.692-1.384.554-1.315.277-1.661.069-1.938-.484-1.938-.97-.761-.207-1.661.207h-.485l-3.045-1.591-3.876-2.423-2.63-1.315-1.038-.138-.139.484.485 1.523.208 1.592v1.384l-.07.9.208.761.969 1.108.415 1.038.277 2.907v2.976l-.484 4.706-.139.692-.553 2.492-.485 2.284-2.007 6.021-.485.692-1.384.9-2.976 2.076-2.215 1.246-.692.277-1.799.139h-1.108l-1.384-.762-1.384-.346-1.8-1.315-1.938-.415-2.214-1.246-.554-.692-1.177-.139-1.661-.484-.623-.208-.415-.069-2.076-.069-2.007-.9-1.039-.277h-1.384l-1.453.692-.762.277-.969-.346h-.692l-.692 1.177-.138.207-.554.277h-1.177l-.553.208-.762.346-.692.277-.346.138h-.207l-.346.139h-.416l-.83-.416-.415-.207-.693-.139-.346.208-.069 1.315-.346.761-1.107.969-1.108.969-.692 1.108-2.076 4.637-1.315 1.869-.346.484-1.384 1.454-1.177.899-2.699 2.077-2.561 1.038-2.215.415h-1.107l-2.077-.277-1.799-.553-2.077-1.246-2.145-1.8-3.253-3.114-.415-.277-.139-.069-.969-.692h-.761l-.277.553-.208.692-.138.623-.346 3.461v.207l.208 1.454 2.491 3.46.692 1.8.139.208.484.83.416.692.899 2.492-.623 1.384.277.969-.692.554-.138.83 2.145 2.769.485 1.176-.485 1.661-.899.969-.208.208.138.692.969.969 1.731 1.523.899 2.215.692.692.831-.208.415.346h.692l.692.692.416.139.692.346.554.692.069 2.215 1.038 2.63v1.73l.692 1.038.138.831-.346 2.284.831.692.83-.139.554.07.9.761 1.107 1.661 1.108-.138.692.276 3.253 2.976.692.416.623.277.692.692.969-.692h.138l1.108-.139.484.346.969.623h1.177l2.768.831 1.108.277 2.353 1.453 1.038.623.554.484.83.692 1.523.693 1.384.276.692.139.623.208 2.907 1.176 1.592.346 1.384.554 1.107.346h.831l1.107-.9h1.039l.899.139.9-.139 1.384-.83.208-.416.969-.415 3.322-.415.969.277 2.492-1.039 1.661.416 1.384-.485 3.253.692.83.623.969 1.038h1.177l-.484.762 1.384 1.522 1.315 1.869.069.277.9 2.699.692.969.484 1.315v.831l-.692.623-.138.277v.138l.138.346.277-.138.485-.277.692-.139 1.107.139.761.069 1.177-.554.831-.415 1.245.554h1.385l.623.207 1.661.762.83.069.277-.208.208-.415-.07-.554-.692-.761-1.384-1.661-.554-.831-.415-1.176-.138-1.523-.139-1.038.208-1.384.346-.485.277-1.107.069-.277.831-1.038 2.076-1.384 2.215-1.938 1.73-1.177 1.799-.761v-.208l.277.069 4.568-1.592 2.077-.346 13.842.969.484-.138.485-1.315.208-.208.207-.138 1.523-.692.692-.139 1.938.485.83.207 1.315-.692h.9l1.869-1.038h1.177l.484-.138 2.284-1.661 2.146-.623.553-.277.208-.139 2.284-1.176 1.384-1.108 1.246-.692 1.384-.277 3.461-.276.761-1.177 1.523-.208.899-1.038 1.039-.415.761-1.107.692-.9.831-.485 2.837-.207 3.322.415.485-.277.692-2.699.831-.485 2.076-3.114v-1.108l.069-.969.346-1.384-.207-2.353.276-2.492 1.315-3.114 1.177-1.246 1.869-1.315.969-.415 1.384-.208h.138l.346-.138h6.368l1.592-.069 3.945.692h.277l1.315.484 1.522 1.177 1.661 1.592.277.276 1.038.485.347.138.83-.138 1.246-.692.969-.692 1.246-.692v-.139l.761-1.038.277-.485 2.491-.968 2.907-.139.346-.208h.139l.761-.968h.692l1.8.692 1.176-.277.969.346.762-.069 1.384-.208 1.592 1.107.9.139 3.114 1.799h.277l.138.07.346-.139.554-.138h.069l.07.069.415.484.484.07.554-.693-.208-.415-.069-.138-1.176-.208-.969-1.73.969-1.038-1.523-1.8-.277-.346v-.069l-.554-.831-2.63-4.014-3.46-2.768-1.177-.9-.415-.346-1.869-1.869-1.315-1.73-.138-.346-.277-.623-.762-1.661-1.384-1.038-1.107-1.246-2.353-3.184-.346-.484-.554-.347h-1.177l-.069-.138h-.069v-.069l.554-.554.692-.138.207-.623-1.176-3.392v-.138l-.07-1.038.9-4.914.139-.623 1.661-3.253.969-.83 1.107-2.146.969-1.384.9-.9.138-.07 1.592-.968 1.384-.208 1.315-.208 2.284.693h2.077l.484-.07.969-.138 1.592-.485.761-.484.416-.554.83-2.768.277-.9.485-.969 2.976-3.391 2.214-2.077 4.984-3.599 2.422-1.453 1.246-.761 11.143-4.984 2.907-2.907 1.522-1.522 2.63-1.8 3.115-1.315 2.768-2.076.554-.761.692-2.423.692-.138.485-1.177.208-.346 2.145-1.523.277-.138 8.513-4.291 1.246.208.692-1.039 2.422-.415h.485l.623-.346.484-.9v-.207l.069-2.354.554-.623.277-1.522.277-.415.277-.346.692-.485z"/></g><defs><clipPath id="a"><path fill="#fff" d="M0 0h600v300H0z"/></clipPath></defs></svg>