<svg xmlns="http://www.w3.org/2000/svg" width="600" height="300" fill="none"><g clip-path="url(#a)"><path fill="#fff" d="M0 0h600v300H0z"/><path fill="#fff" d="M0 0h600v300H0z"/><path fill="#002D62" d="M0 0h255v120H0zm345 180h255v120H345z"/><path fill="#CE1126" d="M0 180h255v120H0zM345 0h255v120H345z"/><path fill="#201B18" d="M289.628 111.978a30.16 30.16 0 0 0-16.416 4.234c-2.246 1.382-2.764 1.814-1.555 4.06l-2.851.951a33 33 0 0 0-5.184 2.333c-1.037.604-1.382 1.036-2.16 1.814l4.579-.346-.604 1.037c-.864 1.123-1.296 1.987-1.988 3.197 1.296-.864 2.506-1.728 3.975-2.419 3.283-1.728 9.244-1.728 11.664-4.666.604-.777.259-1.209-.26-2.419 1.728-.518 2.506-.95 4.666-1.469 5.27-1.209 8.899.26 11.491-.432.864-.172 1.555-.604 1.641-1.468l-.432-2.592h8.64c0 1.468-1.469 3.456 1.21 4.06 2.419.692 7.257-.691 11.491.432l4.665 1.555-.432 1.124c-.259.518-.172.864.173 1.209a5.55 5.55 0 0 0 1.728 1.383 19.3 19.3 0 0 0 4.838 1.728c4.925 1.123 5.357 1.468 9.072 3.974-.259-.778-1.987-3.37-2.592-4.32l4.579.432c-.864-1.21-3.196-2.506-4.579-3.024l-5.616-2.074c.519-.863.864-1.727.432-2.591a20.7 20.7 0 0 0-6.652-3.716 59 59 0 0 0-6.048-1.382l-5.875-.605c-.259-.259.518-1.728-.691-2.851-.692-.518-1.728-.777-2.852-.864-4.32-.432-10.022-.259-14.342 0-1.296.087-2.16.259-2.851.864-.864.864-.95 1.296-.864 2.851"/><path fill="#002D62" d="M290.751 115.002c.691-.518.778-.691 1.728-1.036 2.246-.778 5.702-.692 8.035-.692 1.901 0 3.715 0 5.616.173s2.938.432 4.234 1.469c.259-1.296.518-2.419.518-3.888.086-1.555-.864-1.987-2.16-2.246-2.246-.519-6.048-.432-8.64-.432a54.4 54.4 0 0 0-8.38.518c-1.037.346-1.901 1.21-1.728 2.592 0 .778.518 3.11.864 3.542z"/><path fill="#002D62" d="M274.076 122.433c.346-.346.087-.692 1.901-1.728a30 30 0 0 1 8.035-2.938c2.246-.432 4.579-.432 6.912-.259 1.037.086 2.419.259 3.456.086 0 0 1.123-.259 1.469-.518.345-.346.345-1.21.345-1.21-.777-.604-2.937 1.555-4.838.864-.605-.173-.864-1.209-1.037-1.987l-.691-2.333a30.3 30.3 0 0 0-12.96 2.42c-1.555.691-3.974 1.9-4.925 2.851-.864.864 0 2.073.519 2.678.518.778 1.382 1.728 1.728 2.074zm30.758-6.567c-.173 1.21.691 1.555 1.814 1.728 2.333.346 5.789-.691 10.368.173 1.894.399 3.746.977 5.53 1.728.691.346 3.11 1.382 3.542 1.901l.864 1.037c.259-.087 1.555-1.728 1.814-2.074.605-.605 1.296-1.728.519-2.678a21.6 21.6 0 0 0-4.925-2.851 33.5 33.5 0 0 0-6.739-1.815c-2.16-.345-6.566-.691-6.566-.691s-.26 4.061-1.383 4.406c-2.16.691-3.283-1.209-4.838-.864"/><path fill="#002D62" d="M322.114 120.964c-.173.518-.432.605.777 1.555 2.592 2.246 7.258 2.333 10.022 3.542 1.469.692 2.247 1.21 3.543 1.988-.087-.432-1.728-2.765-2.16-3.456l4.233.172-.173-.172c-1.9-1.642-6.825-3.197-9.244-3.975l-2.16 2.419c-.259.26-.519.519-1.123.346-.692-.259-1.296-.864-1.728-1.296-.519-.432-1.383-1.123-1.987-1.21zm-17.28-5.53c1.469.087 1.641.346 2.592.864l1.555.173c.778 0 .864-.173 1.037-.777.259-.864-1.123-1.383-1.728-1.469l-3.024-.519zm-8.64 0-.346-1.728c-.864 0-5.183.692-4.838 1.988.173.604.259.691.864.864 1.901.086 2.246-1.037 4.32-1.124m-21.772 7.258c.604 1.123 2.246-.864 3.196-1.555.519-.432.605-.346 1.21-.605l-.346-.605-2.332 1.123c-.692.432-1.556.864-1.728 1.728z"/><path fill="#002D62" d="M322.2 120.532c.259 0 .432.086.691.259 1.383.778 3.024 2.851 3.715 2.074.346-.432-1.123-1.469-1.555-1.728l-2.419-1.123a1.4 1.4 0 0 0-.432.518m-43.372.432c.173.605.432.691-.691 1.642-2.765 2.159-7.258 2.332-10.109 3.542-1.469.605-2.246 1.123-3.456 1.901 0-.346 1.728-2.765 2.16-3.456l-4.32.259.26-.173c1.9-1.728 6.739-3.197 9.158-4.061l.777.864q.665.844 1.383 1.642c.345.259.518.432 1.123.259.778-.173 1.382-.864 1.728-1.209.518-.432 1.382-1.21 1.987-1.21"/><path fill="#EAC102" d="M279.519 114.743c-.432 0-.777.173-1.123.259-.086 0-.432.173-.173.259.173.087.173.346.26.519l.259.777.432 1.21c0 .086 0 .346.173.259l.691-.259c.259-.086.518-.259.691-.605l.173-.432a.7.7 0 0 0 0-.345c0-.173 0-.346-.173-.519a1.55 1.55 0 0 0-.346-.691c-.172-.173-.345-.346-.604-.346a.7.7 0 0 0-.26-.086m-.172.259c.172 0 .432.173.518.432l.346.605.172 1.123c0 .173-.259.259-.432.432-.172 0-.345-.086-.345-.259l-.173-.518-.346-.864a4 4 0 0 1-.172-.692c0-.172.172-.259.345-.259zm1.468-.777.26.259.172.518.087.432.173.605.172.518v.519s0 .173.087 0h.432c.086 0 .259 0 .259-.173l-.173-.259-.173-.691-.172-.432-.087-.346-.259-.778v-.259c0-.173-.173 0-.259 0zm2.592-.692c-.259 0-.518.087-.691.26l-.259.777v.691l.518 1.037.605.346h.518c.26-.087.519-.346.605-.605l.087-.691v-.605a2.3 2.3 0 0 0-.346-.605l-.432-.432a.96.96 0 0 0-.605-.173m0 .173c.173 0 .346.259.432.519l.346 1.036.086.432v.605c-.173.173-.432.259-.605.087l-.345-.432-.173-.692-.086-.518c0-.259-.173-.518 0-.864zm1.987-.432-.259.432.087.605a.7.7 0 0 0 .345.346l.778.432a.37.37 0 0 1 .345.345v.432c0 .087-.172.259-.345.173a.6.6 0 0 1-.346-.173 1.04 1.04 0 0 1-.345-.518l-.173.086v.519l.345.172.432.173c.173 0 .346 0 .519-.173.173 0 .259-.172.345-.345a.86.86 0 0 0 0-.605.94.94 0 0 0-.518-.691 3.4 3.4 0 0 0-.518-.259l-.519-.432c0-.173 0-.432.173-.432h.518l.26.432c0 .172.172.086.086 0 0-.173.173-.432 0-.519a1.2 1.2 0 0 0-.518-.173.87.87 0 0 0-.519.087zm9.677-3.801-.778.172-.345.087a.6.6 0 0 1 .173.345v1.296l.086.692v.518c-.173.086 0 .173.173.086h.518c.173 0 0-.172 0-.259l-.086-.518v-.519l.518-.086c.346-.086.691-.346.778-.691a.95.95 0 0 0-.346-.864 1.2 1.2 0 0 0-.691-.259m0 .259c.173 0 .346.173.346.432v.432c0 .259-.173.432-.432.518-.087 0-.26 0-.26-.173v-.518c0-.259-.172-.432 0-.605h.26zm2.246-.346c-.172 0-.345.087-.259.259l-.173.605q-.063.436-.172.864l-.26 1.037c0 .086-.172.259 0 .259h.432c.173 0 0-.173 0-.259v-.432s0-.173.087-.086h.691v.518c0 .086 0 .259.173.259h.605c.172-.086 0-.259-.087-.345l-.173-.605-.259-.778-.086-.432a8 8 0 0 1-.259-.864zm-.172.691.345 1.124c.087.086 0 .172-.173.172-.086 0-.432.087-.432-.086l.087-.432q.102-.297.173-.605zm2.592-.863h-1.124a.68.68 0 0 1 0 .431l-.086.346.259-.259c.087 0 .173-.259.346-.173h.259v2.506l-.086.172h.777c.087 0 .087-.086 0-.086v-2.592c0-.086.087-.173.259 0h.173l.173.346h.173l-.087-.432c0-.087 0-.259-.172-.259zm2.419 0h-.691s-.173 0-.087.086c.173.086.087.259.087.432v2.16c0 .086 0 .259-.173.345h.864c0-.086-.173-.172-.087-.259v-1.037q.26 0 .26.26l.172.432c0 .172.173.259.26.432.172 0 .259.172.432.259l.259.086-.173-.259-.259-.691a1.7 1.7 0 0 1-.173-.432c0-.173.086-.087.173-.173a.87.87 0 0 0 .432-.346v-.518l-.173-.432c-.086-.173-.259-.173-.346-.259a2.8 2.8 0 0 0-.518-.086zm.259.172c.173 0 .259.087.346.259a.7.7 0 0 1 .172.346v.346c-.086.172-.259.345-.432.345h-.432v-1.123c0-.173.173-.173.346-.173m1.901.346v1.037l-.087 1.209a.7.7 0 0 1-.173.346l.346.086h.432c.173 0 0 0 0-.173v-2.332c.086-.087 0-.259.173-.346v-.173h-.864zm2.16-.173-.26.778-.086.432-.259.691c-.087.345-.173.691-.346.864-.173 0-.086.259 0 .173h.432c.173 0 .087.086 0 0v-.519c0-.173.087-.259.259-.173h.519l.086.519c0 .173-.173.345 0 .345h.605l-.086-.864-.173-.864-.087-.777a1.6 1.6 0 0 0-.086-.432s0-.173-.173-.087h-.345zm0 .691c.172.173.086.346.172.519v.691c.173.259-.172.086-.259.086-.173 0-.345 0-.259-.173l.086-.345.173-.432zm5.616 3.024c0 .173.172.259.086.346v2.505a.26.26 0 0 1 0 .26h1.641v-.692c-.172.26-.345.432-.604.432h-.432v-.432a28 28 0 0 1 0-2.073l.086-.346zm1.987 3.111h.864l-.173-.346v-2.506l.173-.259h-.864c0 .173.172 0 .172.259v2.506zm1.296-3.197c0 .173.172.259.086.345v1.037q-.027.606-.086 1.21l-.087.432s-.173.086 0 .086l.951.173c.259 0 .518 0 .691-.173.345-.173.432-.605.345-.864 0-.173-.172-.259-.259-.432a11 11 0 0 0-.345-.259.69.69 0 0 0 .604-.432c0-.259 0-.518-.172-.691l-.173-.173-.432-.086zm.691.345.518.087c.173.259.173.518 0 .864l-.173.086h-.432v-.691zm-.173 1.296c.259 0 .518 0 .691.26.173.172 0 .432.087.604 0 .346-.26.519-.519.519q-.26 0-.259-.259a8 8 0 0 1 0-1.124m1.555 1.728.259.173.778.173.691.086.173-.432c0-.172-.086-.259-.173-.086a.85.85 0 0 1-.777.086c-.173 0-.26-.172-.26-.345l.173-1.037.346.086c.173 0 .259.173.345.346l.087-.259v-.605c-.087 0-.173.346-.346.173-.173 0-.432 0-.345-.173l.086-.691a.7.7 0 0 1 .778.259l.259.259v-.605l-.432-.172-1.123-.26c-.26 0 0 .173 0 .26l-.173 1.468-.173 1.037a.43.43 0 0 1-.173.259m2.592-2.419v.519l-.259 1.382-.173.864c0 .086-.345.173-.086.259l.605.173c.172 0 0-.173 0-.259l.172-.605.087-.346c.173 0 .086.26.173.346 0 .346.172.691.259.95l.518.432-.173-.432v-1.209c.087 0 .26 0 .432-.173.173-.259.26-.605.173-.864a1.111 1.111 0 0 0-.518-.691l-1.037-.346a1 1 0 0 0-.173 0m.691.346a.6.6 0 0 1 .519.345c.086.346 0 .692-.087.951-.172.173-.345.173-.518.086-.173 0-.346 0-.259-.173l.173-.864a.6.6 0 0 1 .172-.345m1.296 1.037.432-.173s.26-.087.346 0c.086.086 0 .259 0 .345l-.086.605-.346 1.383-.259.345c0 .173.173.173.259.173l.518.173c0-.087-.086-.173 0-.346l.173-1.037q.154-.695.346-1.382c.173 0 .345.173.432.259l.173.432c.086 0 0-.173 0-.345l.086-.346-.691-.259-.519-.259-.604-.173zm0 0a.3.3 0 0 0 0 .086Zm2.938.691c-.173 0-.173.173-.259.345 0 .173-.173.26-.259.432l-.778 1.21a.96.96 0 0 1-.346.346c-.172.172.087.172.173.259.087 0 .259.173.346.086 0-.173-.173-.259 0-.432 0-.086 0-.345.259-.259l.518.346v.432c0 .086-.259.172-.172.345l.431.259s.26.173.173 0v-.691l.087-.432v-.691l.172-1.037c0-.173.087-.345 0-.345zm-.259.605s.086.086 0 .172v1.124c0 .172-.26 0-.346 0-.086-.087-.346-.173-.173-.346l.346-.518zm1.9.432-.086.518-.346.518-.345.605-.432.864h-.173l.432.432.518.518c.26.173.692.26.951.087l.432-.432q.155-.247.259-.518v-.864c0-.346-.173-.778-.432-1.037l-.518-.519zm.519.777c.259.173.432.432.345.691 0 .432-.172.864-.432 1.21-.172.259-.345.518-.604.518-.173.087-.432 0-.519-.259l.173-.518.691-1.21c0-.173.173-.345.259-.432z"/><path fill="#006300" d="m290.838 183.343 2.16.864 1.555 2.938c.605.432.518.345 1.123.518l-3.715 1.555c-1.037.346-.605 1.296-.087 1.469.519.173 1.728-.259 2.074-.432 1.814-.864 3.456-1.728 5.184-2.851.259-.173 1.469-.95 1.728-.864l6.566 3.629c.519.259 1.469.864 1.987.518.259-.173.519-.518.432-.864-.086-.432-.345-.518-.691-.605l-3.542-1.555.777-.259c.26-.173-.172-.605.173-.518l1.642-2.679 1.987-.777c0-1.815-15.379-3.024-19.353-.087"/><path fill="#FF0" d="M291.874 189.65c-.518.173-.432 1.21.692.864.777-.259.172-1.123-.692-.864m16.416 0c-.259.432-.259.605.173.864.432.087.605.087.864-.172.432-.346.086-.519-.173-.692-.345-.172-.086-.172-.345 0z"/><path fill="#006300" d="M322.805 128.739v.26c1.469 2.764.864 1.468 2.074 5.097l-.692-.95a26 26 0 0 1-1.728-2.592 1.1 1.1 0 0 0-.345-.519c-.173.26.345 1.728.518 2.16.432 1.728 1.815 3.802 2.851 5.444l-.777-.605c-.864-.691-.605-.519-1.123-1.469a17.6 17.6 0 0 1-1.21-2.592 45 45 0 0 0-.691-1.901l-.173.173v.778l.518 3.11c-.691-.259-.518-.346-1.123-.864-.173 0-.345-.518-.518-.518l-.605-.692c-.086.346.864 2.074 1.037 2.247.345.518 1.555 1.382 1.728 1.728a12 12 0 0 0 1.814 3.196l.778.951-1.642-1.555a28 28 0 0 0-2.937-2.592c0 .345.518.691.777.864l1.987 2.246c.605.864 1.383 1.555 1.901 2.419l1.296 2.16a12 12 0 0 0-.691-.95l-1.987-2.419c-.691-.864-1.383-1.383-2.247-2.074a22 22 0 0 0-1.728-1.209c0 .259 1.642 2.332 2.765 2.937l1.037 1.123 1.037 1.123a31 31 0 0 1 1.641 2.592l.778 1.296c-.605-.172-3.456-3.456-4.061-4.06-.605-.605-.864-.864-1.555-1.296 0 .345 1.987 2.592 2.419 3.024l.432.518.864.95c.519.692 1.555 1.901 1.901 2.592l.605 1.21a17 17 0 0 0-1.296-1.728 6.7 6.7 0 0 0-.778-.864c-.605-.691-1.641-1.901-2.419-2.419l-1.901-1.123c-.086.172.346.518.519.691l.777.691a18.7 18.7 0 0 1 2.679 2.938c.518.518.864 1.036 1.209 1.727a2.7 2.7 0 0 1-.605-.604l-.604-.605-1.383-1.037-3.11-1.555c0 .259 1.123.864 1.382 1.037.605.432 1.728 1.037 2.16 1.641l.605.605c.432.432.864.864 1.123 1.382l1.037 1.469.864 1.728 1.123 3.888c-.345-1.296-1.037-2.592-1.469-3.974-.345-.864-1.209-3.283-2.419-2.851-.432.172-.691.691-.864 1.036-.259.605-.691-.172-1.728 1.728a15.7 15.7 0 0 0-1.037 3.716v.604c.26-.086.432-.777.519-1.036.432-1.21.864-1.988 1.641-3.111l-.95 4.234c.346-.087.432-.605.518-.864l1.21-3.197c1.382.95 1.728 6.221 1.987 8.035a18.5 18.5 0 0 0-.95-2.592l-1.469-2.419c-.864.086-.864 1.21-1.037 1.814-.259-.345-.518-.864-1.123-.864-.432 0-.691.692-.778 1.21a6.7 6.7 0 0 0 0 1.901l.346 1.382.173.173.259-3.543c.518.26 1.555 2.592 1.382 3.456-.518 3.456-.864 4.58-2.678 7.431l-1.037 1.468q-.242.359-.518.692l-.605.691c.95-1.728 1.383-2.333 2.074-4.234a20.7 20.7 0 0 0 1.036-4.32v-.777c-.259 0-.259.345-.345.605-1.555 4.924-1.815 5.184-4.406 9.503l.432-2.851c-.173 0-.173.173-.26.519l-.172.518a15.4 15.4 0 0 1-1.383 3.11c0-.259.259-.691.346-.95a22.5 22.5 0 0 0 .605-2.938v-.604c-.26 0-.346.518-.432.864-.346 1.036-.864 1.9-1.21 2.851v-.259c0-.605.259-1.556.086-2.16v-.26c-.259.087-.345.605-.432.864l-.259.864c-.605 1.642-1.296 2.679-2.16 4.32-.173 0-.518-.086 0 0q2.456.51 4.925.951c2.419-.087 3.974-.259 6.393 0 .346 0 1.815.259 2.074 0-.691-.346-1.382-.519-2.16-.778l-2.333-.518 6.48-.173-.518-.346c-1.123-.432-3.975-.604-5.184-.691 2.16-.173 3.801-.345 5.875-.345.605-.173 2.505.432 1.728-.432-.864-.519-3.283-.605-4.061-.519l3.802-.173c.605-.172 4.579.692 3.196-.172-1.123-.605-3.455-1.037-4.665-1.21.691-.432 1.296-.864 1.987-1.123a35 35 0 0 1 4.579-1.469c1.728-.259 3.024-1.123.778-.777-1.383.172-3.024.604-4.32.691l1.123-.605c1.123-.519 2.333-.778 3.456-1.123.259-.087.173 0 .259-.173l-.173-.086h-.691a56 56 0 0 0 6.048-1.728c.259 0 .605 0 .778-.173l-.173-.087a75 75 0 0 0-5.53.692l-1.728.259 4.32-1.728c.346 0 1.383-.173 1.556-.432-.26-.173-.519-.087-.951 0-1.375.254-2.732.6-4.061 1.037l-1.555.432c4.839-1.815 2.938-1.296 7.43-2.16.519-.087.864 0 .951-.346l-2.592-.173c-.864 0-1.728.173-2.333.259l1.901-1.641c.518-.432.259-.605 1.21-.605h1.727c-.691-.778-.863-.432-1.555-.778l.864-.864.432-.864c.087-.086.087-.086 0-.172h-.259l-1.987 1.728c-.346.172-.259.172-.778.172l-2.592.519a21.4 21.4 0 0 1 2.592-1.815l1.469-.864c.432-.172 1.382-.518 1.469-.691l-3.11.778c-.901.355-1.768.789-2.592 1.296a39.6 39.6 0 0 1 5.011-4.493c.172-.086.691-.345.777-.605h-.259c-.864.173-2.765 1.469-3.456 1.815a31 31 0 0 0-3.283 2.419q1.09-1.202 2.333-2.246l.432-.432.95-.864c.691-.519 1.296-1.037 1.901-1.728l.95-.778c.259-.173.864-.605.864-.864a48 48 0 0 0-3.801 2.333l-1.815 1.296-1.814 1.382c.778-1.209 1.555-2.505 2.506-3.542a39.5 39.5 0 0 1 4.06-3.802c.346-.259.691-.691 1.037-.864v-.173c-.346 0-1.382.778-1.641.951a33 33 0 0 0-4.061 3.456l-.605.691a13 13 0 0 0-1.728 2.074 54 54 0 0 0-2.074 3.11c.432-1.901 1.728-3.456 2.765-4.493l2.333-2.592.346-.432a8.64 8.64 0 0 0 2.592-5.011l-1.124 1.555-.604.605-4.666 5.443c.173-.777 1.123-2.419 1.555-3.024a55 55 0 0 1 4.839-6.48l.259-.259c0-.259.345-.432.691-.777l.864-.692c-.432-.432-2.074.519-2.333.778-2.073 1.382-3.542 3.37-5.097 5.27a22.5 22.5 0 0 1 2.073-4.924c.432-.692.864-1.556 1.383-2.16l1.382-2.074c-.346 0-.691.432-.864.691l-.432.346c-1.728 1.987-2.851 4.147-4.147 6.48.086-1.123 1.123-3.197 1.728-4.147l2.419-3.629c-.432-.087-1.728 1.382-1.987 1.728-.519.691-1.123 1.382-1.555 2.246a26.8 26.8 0 0 0-2.333 4.752l-.173.346c.086-1.555 1.728-5.271 2.333-6.567l1.382-1.9.432-.605.951-1.21.95-1.296c-.605-.172-2.765 2.247-3.197 2.765l-1.469 2.16c.26-1.21 1.124-2.851 1.815-3.888l1.814-2.333.605-.864c-.691 0-3.456 3.197-4.061 3.888l-.605.951-.95 1.468-.173.26-.173.259a32 32 0 0 1 1.21-4.579l1.728-3.888c-.432 0-1.382 1.209-1.642 1.555l-1.036 2.16c.086-1.037 1.555-4.32 2.073-5.616-.259 0-.432.518-.691.864l-1.987 3.283c.086-1.123.864-2.246 1.296-3.197-.864.346-2.419 3.629-2.765 4.58l-.432 1.382-.173.518c0-2.419.432-4.924.864-7.344-.259 0-.345.26-.432.519l-.259.605-.518 1.382-.691 2.938c-1.037-1.469-1.296-4.148-3.37-7.258-.605-.95-.864-1.037-1.728-1.728zm1.123 29.203c.864 2.419 1.123 3.197 1.728 5.702a.6.6 0 0 0-.173.26l-.345 1.036-.691-2.16c-.173-.864.172-2.419-.173-2.678-.173.432-.173.432-.173 1.21l-.432-.864c-.432-1.383-.518-.951-.173-1.728 0-.259.173-.605.432-.778"/><path stroke="olive" stroke-width=".173" d="M312.005 177.727c.864-1.641 1.555-2.678 2.16-4.32l.259-.864c.087-.259.173-.777.432-.864v.26c.173.604-.086 1.555-.086 2.16v.259c.346-.951.864-1.815 1.21-2.851.086-.346.172-.864.432-.864v.604a22.5 22.5 0 0 1-.605 2.938c-.087.259-.346.691-.346.95a15.4 15.4 0 0 0 1.383-3.11l.172-.518c.087-.346.087-.519.26-.519l-.432 2.851c2.591-4.319 2.851-4.579 4.406-9.503.086-.26.086-.605.345-.605v.777a20.7 20.7 0 0 1-1.036 4.32c-.691 1.901-1.124 2.506-2.074 4.234l.605-.691q.276-.333.518-.692l1.037-1.468c1.814-2.851 2.16-3.975 2.678-7.431.173-.864-.864-3.196-1.382-3.456l-.259 3.543-.173-.173-.346-1.382a6.7 6.7 0 0 1 0-1.901c.087-.518.346-1.21.778-1.21.605 0 .864.519 1.123.864.173-.604.173-1.728 1.037-1.814l1.469 2.419c.381.839.698 1.706.95 2.592-.259-1.814-.605-7.085-1.987-8.035l-1.21 3.197c-.086.259-.172.777-.518.864l.95-4.234c-.777 1.123-1.209 1.901-1.641 3.111-.087.259-.259.95-.519 1.036v-.604c.191-1.277.54-2.525 1.037-3.716 1.037-1.9 1.469-1.123 1.728-1.728.173-.345.432-.864.864-1.036 1.21-.432 2.074 1.987 2.419 2.851.432 1.382 1.124 2.678 1.469 3.974l-1.123-3.888-.864-1.728-1.037-1.469c-.259-.518-.691-.95-1.123-1.382l-.605-.605c-.432-.604-1.555-1.209-2.16-1.641-.259-.173-1.382-.778-1.382-1.037l3.11 1.555 1.383 1.037.604.605c.168.232.372.437.605.604-.345-.691-.691-1.209-1.209-1.727a18.7 18.7 0 0 0-2.679-2.938l-.777-.691c-.173-.173-.605-.519-.519-.691l1.901 1.123c.778.518 1.814 1.728 2.419 2.419q.426.398.778.864.701.823 1.296 1.728l-.605-1.21c-.346-.691-1.382-1.9-1.901-2.592l-.864-.95-.432-.518c-.432-.432-2.419-2.679-2.419-3.024.691.432.95.691 1.555 1.296.605.604 3.456 3.888 4.061 4.06l-.778-1.296a31 31 0 0 0-1.641-2.592l-1.037-1.123-1.037-1.123c-1.123-.605-2.765-2.678-2.765-2.937q.893.563 1.728 1.209c.864.691 1.556 1.21 2.247 2.074l1.987 2.419q.37.458.691.95l-1.296-2.16c-.518-.864-1.296-1.555-1.901-2.419l-1.987-2.246c-.259-.173-.777-.519-.777-.864a28 28 0 0 1 2.937 2.592l1.642 1.555-.778-.951a12 12 0 0 1-1.814-3.196c-.173-.346-1.383-1.21-1.728-1.728-.173-.173-1.123-1.901-1.037-2.247l.605.692c.173 0 .345.518.518.518.605.518.432.605 1.123.864l-.518-3.11v-.778l.173-.173q.367.943.691 1.901c.332.895.737 1.762 1.21 2.592.518.95.259.778 1.123 1.469l.777.605c-1.036-1.642-2.419-3.716-2.851-5.444-.173-.432-.691-1.9-.518-2.16.162.137.281.317.345.519a26 26 0 0 0 1.728 2.592l.692.95c-1.21-3.629-.605-2.333-2.074-5.097v-.346c.864.691 1.123.778 1.728 1.728 2.074 3.11 2.333 5.789 3.37 7.258l.691-2.938.518-1.382.259-.605c.087-.259.173-.519.432-.519-.432 2.42-.864 4.925-.864 7.344l.173-.518.432-1.382c.346-.951 1.901-4.234 2.765-4.58-.432.951-1.21 2.074-1.296 3.197l1.987-3.283c.259-.346.432-.864.691-.864-.518 1.296-1.987 4.579-2.073 5.616l1.036-2.16c.26-.346 1.21-1.555 1.642-1.555l-1.728 3.888a32 32 0 0 0-1.21 4.579l.173-.259.173-.26.95-1.468.605-.951c.605-.691 3.37-3.888 4.061-3.888l-.605.864-1.814 2.333c-.691 1.037-1.555 2.678-1.815 3.888l1.469-2.16c.432-.518 2.592-2.937 3.197-2.765l-.95 1.296-.951 1.21-.432.605-1.382 1.9c-.605 1.296-2.247 5.012-2.333 6.567l.173-.346a26.8 26.8 0 0 1 2.333-4.752c.432-.864 1.036-1.555 1.555-2.246.259-.346 1.555-1.815 1.987-1.728l-2.419 3.629c-.605.95-1.642 3.024-1.728 4.147 1.296-2.333 2.419-4.493 4.147-6.48l.432-.346c.173-.259.518-.691.864-.691l-1.382 2.074c-.519.604-.951 1.468-1.383 2.16a22.5 22.5 0 0 0-2.073 4.924c1.555-1.9 3.024-3.888 5.097-5.27.259-.259 1.901-1.21 2.333-.778l-.864.692c-.346.345-.691.518-.691.777l-.259.259a55 55 0 0 0-4.839 6.48c-.432.605-1.382 2.247-1.555 3.024l4.666-5.443.604-.605 1.124-1.555a8.64 8.64 0 0 1-2.592 5.011l-.346.432-2.333 2.592c-1.037 1.037-2.333 2.592-2.765 4.493a54 54 0 0 1 2.074-3.11 13 13 0 0 1 1.728-2.074l.605-.691a33 33 0 0 1 4.061-3.456c.259-.173 1.295-.951 1.641-.951v.173c-.346.173-.691.605-1.037.864a39.5 39.5 0 0 0-4.06 3.802c-.951 1.037-1.728 2.333-2.506 3.542l1.814-1.382 1.815-1.296a48 48 0 0 1 3.801-2.333c0 .259-.605.691-.864.864l-.95.778c-.605.691-1.21 1.209-1.901 1.728l-.95.864-.432.432a24 24 0 0 0-2.333 2.246 31 31 0 0 1 3.283-2.419c.691-.346 2.592-1.642 3.456-1.815h.259c-.086.26-.605.519-.777.605a39.6 39.6 0 0 0-5.011 4.493 16.5 16.5 0 0 1 2.592-1.296l3.11-.778c-.087.173-1.037.519-1.469.691l-1.469.864a21.4 21.4 0 0 0-2.592 1.815l2.592-.519c.519 0 .432 0 .778-.172l1.987-1.728h.259c.087.086.087.086 0 .172l-.432.864-.864.864c.692.346.864 0 1.555.778h-1.727c-.951 0-.692.173-1.21.605l-1.901 1.641c.605-.086 1.469-.259 2.333-.259l2.592.173c-.087.346-.432.259-.951.346-4.492.864-2.591.345-7.43 2.16l1.555-.432a31 31 0 0 1 4.061-1.037c.432-.087.691-.173.951 0-.173.259-1.21.432-1.556.432l-4.32 1.728 1.728-.259q2.752-.45 5.53-.692l.173.087c-.173.173-.519.173-.778.173a56 56 0 0 1-6.048 1.728h.691l.173.086c-.086.173 0 .086-.259.173-1.123.345-2.333.604-3.456 1.123l-1.123.605c1.296-.087 2.937-.519 4.32-.691 2.246-.346.95.518-.778.777a35 35 0 0 0-4.579 1.469c-.691.259-1.296.691-1.987 1.123 1.21.173 3.542.605 4.665 1.21 1.383.864-2.591 0-3.196.172l-3.802.173c.778-.086 3.197 0 4.061.519.777.864-1.123.259-1.728.432-2.074 0-3.715.172-5.875.345 1.209.087 4.061.259 5.184.691l.518.346-6.48.173 2.333.518c.778.259 1.469.432 2.16.778-.259.259-1.728 0-2.074 0-2.419-.259-3.974-.087-6.393 0a179 179 0 0 1-4.925-.951Zm0 0c-.518-.086-.173 0 0 0Zm11.923-19.785c.864 2.419 1.123 3.197 1.728 5.702a.6.6 0 0 0-.173.26l-.345 1.036-.691-2.16c-.173-.864.172-2.419-.173-2.678-.173.432-.173.432-.173 1.21l-.432-.864c-.432-1.383-.518-.951-.173-1.728 0-.259.173-.605.432-.778Z"/><path fill="#008F4C" d="M330.235 153.882c.346-3.284 4.32-11.059 5.616-11.232.173 0-1.382 2.16-2.419 4.32a49 49 0 0 0-2.592 6.307 15 15 0 0 1-.605 2.246zm8.813-1.988s-.691.778-1.642 1.556a38.3 38.3 0 0 0-8.294 11.923c-1.728 4.319-1.296 3.196-.777 1.123a30.5 30.5 0 0 1 8.38-13.046c1.21-1.037 2.419-1.815 2.333-1.556m-10.195-7.43c0-2.937.346-3.974 2.074-7.603 1.036-2.333 1.468-3.024 1.641-2.851 0 .086 0 .518-.259.864a43.2 43.2 0 0 0-2.938 10.109c-.036.504-.153 1-.345 1.468a6 6 0 0 1-.173-1.987m-4.838 16.761a17.5 17.5 0 0 1-1.21 7.603c-.605 1.556-3.024 5.184-3.629 5.53-.259 0-.172 0 .432-.864a19.1 19.1 0 0 0 4.32-11.577c-.173-2.247 0-2.592.087-.778z"/><path fill="#008F4C" d="M331.445 158.374c.346 1.037.432 3.456 0 4.752a9.5 9.5 0 0 1-2.297 4.021 9.5 9.5 0 0 1-3.924 2.459q-.546.196-1.123.259a4.7 4.7 0 0 1 1.037-.605 10.719 10.719 0 0 0 6.307-9.503c0-.864-.086-1.21-.173-1.383 0-.345-.086-.604 0-.691z"/><path fill="#008F4C" d="m339.998 164.941-3.801.691a169 169 0 0 0-8.035 1.382.8.8 0 0 1-.087-.259 146 146 0 0 1 11.923-1.814m-15.983-34.301c1.296 1.556 1.555 2.247 2.246 4.925.432 1.728.518 2.247.432 2.247l-.346-.605a29.7 29.7 0 0 0-2.764-6.653 3.3 3.3 0 0 1-.519-.864c.328.246.619.537.864.864zm-1.383 1.901c.519 1.901.951 2.592 2.851 4.579 1.21 1.21 1.642 1.642 1.642 1.469 0 0-.086-.346-.346-.518a29.4 29.4 0 0 1-3.974-5.962 3.3 3.3 0 0 0-.518-.864s0 .605.345 1.296m11.578 6.048c-2.074 1.901-5.443 7.949-4.925 8.899.086.087.95-1.296 1.901-3.11a42 42 0 0 1 2.937-5.011l1.21-1.728zm.864 1.555c-2.247 2.074-5.962 8.813-5.443 9.85.086.172 1.036-1.383 2.073-3.456a47 47 0 0 1 3.37-5.53q.722-.854 1.296-1.814zm-13.133-6.134c.346 1.987.691 2.592 2.246 4.838 1.037 1.469 1.469 1.901 1.469 1.728 0 0 0-.345-.259-.518a29.7 29.7 0 0 1-3.197-6.48 3.3 3.3 0 0 0-.432-.95z"/><path fill="#008F4C" d="m325.051 137.984 2.247.605c0-.173-.346-.259-.605-.345-1.469-.432-5.529-2.247-5.616-2.938l-.864-1.296s3.456 3.456 4.838 3.974m13.997 7.171c-3.11 2.16-8.64 9.677-8.208 11.059 0 .26 1.469-1.468 3.111-3.801a57 57 0 0 1 4.924-6.307 16.5 16.5 0 0 0 1.815-1.987s-.864.432-1.642 1.036m-.432 4.58c-1.382 2.764-6.653 8.035-7.776 7.775a13 13 0 0 1 2.679-2.851 45 45 0 0 0 4.319-4.665q.62-.921 1.383-1.728c0 .173-.259.864-.605 1.469m-18.489 19.007c-.519 2.678-3.888 8.467-4.925 8.554-.086 0 .605-1.469 1.728-3.197a41 41 0 0 0 2.592-5.011l.864-1.728zm8.64-16.329c-.605-1.728-2.16-3.802-4.32-5.702-2.074-1.901-2.765-2.16-.864-.432a25 25 0 0 1 5.443 7.603s0-.692-.259-1.469m1.555 22.031c-2.419-.691-8.64-.604-9.072.087 0 .173 1.382.173 3.283.086a41 41 0 0 1 6.912.259zm-2.592 1.037c-2.506-.605-8.64-.259-9.072.519h3.197a40.6 40.6 0 0 1 7.084-.087zm-2.765 1.383c-2.419-.605-8.64 0-9.072.691l3.283-.173a41.3 41.3 0 0 1 6.999-.173z"/><path fill="#008F4C" d="M323.323 178.419c-1.987-.864-7.43-.864-7.775-.259-.173.172 1.123.259 2.764.172a31 31 0 0 1 4.493.26l1.555.259a8 8 0 0 0-1.037-.432m9.677-7.69c-5.184 1.469-11.232 2.333-11.577 3.543 0 .172 2.246-.173 4.492-1.037a49 49 0 0 1 6.48-2.074c1.296-.259 2.333-.518 2.333-.691 0 0-.864.346-1.728.259m6.566-3.196-4.492.864q-3.469.581-6.912 1.296c-2.074.431-2.506.518-2.592.259a.9.9 0 0 1-.173-.259 170 170 0 0 1 14.169-2.16m-1.555-1.296-3.715 1.036a151 151 0 0 0-7.776 2.16.8.8 0 0 1-.173-.172 145 145 0 0 1 11.664-3.024"/><path fill="#008F4C" d="M336.801 160.189c-3.542 1.468-10.54 7.603-10.367 9.071 0 .26 1.728-1.123 3.801-3.11a56 56 0 0 1 6.048-5.011 16 16 0 0 0 2.246-1.555z"/><path fill="#008F4C" d="M339.394 161.917c-3.456.259-11.491 3.801-11.664 5.184 0 .259 1.814-.432 4.233-1.728a48.4 48.4 0 0 1 6.739-2.765l2.419-.691z"/><path fill="#008F4C" d="M339.221 162.262c-8.899 7.517-13.91 11.232-15.725 10.368-.259 0 3.284-2.074 6.307-4.061a67.4 67.4 0 0 0 8.122-6.048l2.592-2.332q-.566 1.088-1.296 2.073m-9.504 2.419c1.728-2.937 2.592-3.801 6.48-6.22 2.505-1.556 3.369-2.074 3.456-1.728l-.864.691a48.5 48.5 0 0 0-10.195 9.244zm.95-8.467c.346-3.283 5.876-14.255 7.085-14.428.173 0-1.296 2.16-2.333 4.32a49.4 49.4 0 0 0-2.592 6.307 64 64 0 0 1-2.419 6.048zm-2.332-12.614c-.951-2.246-1.037-3.11-.346-6.221.432-1.987.691-2.678.864-2.591v.777a24.8 24.8 0 0 0 .173 9.504s-.432-.691-.691-1.469m1.728 12.01a12.95 12.95 0 0 0-3.888-5.184c-1.901-1.728-2.506-1.988-.778-.346a22.5 22.5 0 0 1 4.234 5.702l.604 1.123zm-8.64 2.505c1.728-6.393 3.197-5.27 3.197-5.27 3.801 3.628 1.9 16.156 1.9 16.156 0-25.574-5.097-10.886-5.097-10.886"/><path fill="#008F4C" d="M322.891 157.683c1.728-6.393 2.16-6.048 2.16-6.048 3.197.605 3.024 14.688 3.024 14.688-1.382-24.192-5.184-8.64-5.184-8.64m-1.727 4.925c0-4.579.863-3.888.863-3.888 2.592 2.333 3.456 11.232 3.456 11.232-3.974-17.971-4.319-7.344-4.319-7.344m7.775-13.392c-.691-2.505-3.11-5.011-5.529-8.208-3.024-2.765-3.974-3.197-1.296-.605 1.728 1.037 5.184 6.048 6.221 9.072.518 1.037.95 1.815 1.036 1.728.173 0 0-.95-.345-1.987z"/><path fill="#008F4C" d="M328.767 147.056a15.55 15.55 0 0 0-4.493-6.393l-1.383-1.296a51.8 51.8 0 0 1 6.135 9.244c.086 0 0-.777-.259-1.555m-12.96 25.315c-.087 1.296-1.555 4.406-2.074 4.493l.691-1.728a20.7 20.7 0 0 0 1.469-3.456v.691zm-1.21.777c-.173 1.383-1.641 4.407-2.16 4.493l.691-1.641a21 21 0 0 0 1.556-3.543v.691zm1.901.087c-.173 1.382-1.642 4.493-2.16 4.493l.778-1.642a20.7 20.7 0 0 0 1.468-3.542z"/><path fill="#00873F" d="M269.411 138.243c0 .692.173.864.518 1.296v-1.296c-.173-.172-.259 0-.518 0"/><path stroke="#006300" stroke-width=".442" d="m267.556 148.344-.663-.59m1.326-3.387-.59-.736m-1.251 9.941c-.221-1.547-1.105-2.062-1.105-2.062m8.321 22.09c-3.976-4.418-5.228-12.297-5.228-12.297 1.252-3.387 2.945-4.123 2.945-4.123m-2.945 4.05c-1.326-5.155-.957-10.457-.957-10.457a52.1 52.1 0 0 1 2.503-12.37m-2.577 14.211c1.031-4.86 5.081-4.27 5.081-4.27"/><path stroke="#006300" stroke-width=".442" d="M267.261 153.498c3.682-1.473 3.167-4.639 3.829-5.891.958-1.988 1.694-2.577 1.694-2.577m-1.915 24.226c-1.251-3.093.221-3.682.221-3.682m-.736 2.651c-1.546-1.988-3.534-1.841-3.534-1.841m2.871-7.584c.958-1.768 0-3.535 0-3.535m.442 12.003-2.798-3.608m1.694-22.385c.368-1.473-.737-2.136-.737-2.136"/><path fill="red" stroke="#006300" stroke-width=".231" d="M268.382 138.737a.693.693 0 1 1-1.384.001.693.693 0 0 1 1.384-.001Z"/><path fill="red" stroke="#006300" stroke-width=".248" d="M270.297 154.621a.87.87 0 0 1-.203.566.65.65 0 0 1-.489.235.65.65 0 0 1-.49-.235.87.87 0 0 1-.203-.566c0-.212.073-.416.203-.566a.65.65 0 0 1 .49-.235c.183 0 .359.084.489.235s.203.354.203.566Z"/><path fill="red" stroke="#006300" stroke-width=".231" d="M269.634 156.483a.693.693 0 1 1-1.385 0 .693.693 0 0 1 1.385 0Z"/><path fill="red" stroke="#006300" stroke-width=".249" d="M267.737 163.063a.747.747 0 1 1-1.494-.001.747.747 0 0 1 1.494.001ZM266.78 166.156a.745.745 0 0 1-.747.746.747.747 0 1 1 .747-.746ZM267.958 167.334a.747.747 0 1 1-1.494-.001.747.747 0 0 1 1.494.001Z"/><path fill="red" stroke="#006300" stroke-width=".181" d="M281.717 173.638a.543.543 0 1 1-1.085 0 .543.543 0 0 1 1.085 0ZM282.527 174.595a.543.543 0 1 1-1.085 0 .543.543 0 0 1 1.085 0Z"/><path stroke="#006300" stroke-width=".442" d="M270.207 157.622a1.32 1.32 0 0 0-.81-.884m10.824 17.746c1.178.884 1.473.368 1.473.368"/><path fill="#006300" d="M281.679 176.95c-.777-2.592-.604-3.111-.604-3.111Zm-6.22-4.579s-.432-1.037.345-1.642c.346-.346 2.16.691 3.111-3.369 0 0-.605 0-1.815.604v-.345s-.345-.864-.172-1.987c0 0 .604-.951.604-1.383 0 0-1.123-.432-3.456 2.506 0 0-.172-.605-1.814-1.728 0 0-.864 2.592-.432 3.974.346 1.123.346 1.555 1.555 2.333 0 0 .864.432 1.037 1.728l1.037-.087zm-1.728 2.937c-.259.173-.432.432-1.123.519-2.852.345-4.493-3.456-4.493-3.456-.087-.864.259-.432.864-.173.777.259 1.037 0 1.901 0 1.209-.173 2.505.95 2.505.95.691.691.864 1.987.864 1.987-.173.173-.432.173-.432.173zm-3.456-6.912c-2.938-1.296-4.752.173-4.752.173-.173.173.173.259.173.259 1.901.26 1.296.087 2.073 1.21 1.383 1.901 3.802 1.469 3.802 1.469.432.172.95.691.95.691-.173-1.642-2.16-3.802-2.16-3.802zm-5.184-12.095c-.605-.432-.518.345-.518.345-1.21-2.16-4.58-2.333-4.58-2.333a.6.6 0 0 1-.432-.259c-.518 0 .173 1.123.173 1.123.951 2.679 1.901 3.024 1.901 3.024-1.123.605-2.938-.777-2.592.26 1.814 1.814 3.024 2.073 3.024 2.073 2.246.605 3.197 0 3.197 0 .518.95.864 1.123.864 1.123 2.073.605 2.505 1.728 2.505 1.728 0-2.246-.864-4.924-.864-4.924a10.3 10.3 0 0 0-2.678-2.16"/><path fill="#006300" d="M280.816 177.727c-1.124.346-1.21 1.124-1.21 1.124-1.037 1.468-4.838 0-4.838 0-1.21-.26-.864-.605-.864-.605.506-.208.973-.5 1.382-.864a7.43 7.43 0 0 1-2.333-4.32c3.111-.605 4.061 0 4.061 0-.173-1.21-1.21-1.21-1.21-1.21-.259-.432.26-.432.26-.432a6.74 6.74 0 0 1 4.32 1.988c1.036 1.468.691 2.937.691 2.937.259 1.469-.259 1.382-.259 1.382m-12.874-12.7c-1.555-.432-2.419 0-2.419 0-.864.345-2.246-.519-2.246-.519-1.901-1.641-2.247-2.591-2.247-2.591 0-.26 1.642-.26 1.642-.26 2.246 0 2.765.432 2.765.432 1.123.605 1.036 1.21 1.382 1.469.45.216.859.508 1.21.864.259.432.345.778-.087.605m2.938.864c1.123-1.296 2.592-.432 2.592-.432 2.16.259 2.851-2.246 2.851-2.246l.864-1.469c.086-.605-.951-.087-.951-.087-1.9.432-1.987.605-1.987.605l.346-2.937c0-.519-.519-.173-.519-.173-2.678 1.555-3.024 2.678-3.024 2.678l-1.123-2.073c-.345-.864-.604.086-.604.086-.519 2.592-.26 2.765-.26 2.765.346 1.382.692 1.728.692 1.728.604.864.604 1.209.604 1.209z"/><path fill="#006300" d="M286.863 172.803c-.432.086-1.555 1.901-1.555 1.901-1.382-2.592-3.197-2.938-3.197-2.938-.345.086 0 .691 0 .691.605 1.383 0 2.419 0 2.419-.173 1.037 0 1.21 0 1.21-2.16-1.123-2.246-.95-2.246-.95 0 1.382 1.555 3.887 1.555 3.887l3.888-.864 1.296-.172c1.037-3.111.259-5.184.259-5.184m-17.452-13.997c1.382.605 1.469 1.555 1.469 1.555.345 1.124 3.542 1.469 3.542 1.469 2.592-.259 2.333-.864 2.333-.864-1.469-1.209-1.037-1.123-1.728-1.728-1.124-1.123-2.592-1.209-2.592-1.209-1.987.345-2.419 0-2.419 0-.778.345-.605.777-.605.777m-3.111-4.665c-.604-2.333 1.469-5.184 1.469-5.184 1.728 3.283 1.469 4.147 1.469 4.147a21 21 0 0 1-1.469 3.888c-.345-1.728-1.209-1.987-1.469-2.851"/><path fill="#006300" d="M265.091 155.091c-2.16 0-4.32-2.505-4.32-2.505 3.37-.864 4.061-.346 4.061-.346a19.6 19.6 0 0 1 3.11 2.16c-1.555 0-1.987.691-2.765.691z"/><path fill="#006300" d="M263.363 151.894c-1.383.26-2.592-1.123-2.592-1.123-1.901-2.592-1.296-3.456-1.296-3.456.173 0 .345.259.345.259.605.519 1.728.692 1.728.692-3.11-1.901-1.036-6.135-1.036-6.135.345-.432.518.605.518.605.335.718.876 1.32 1.555 1.728.691.864.691 1.21.691 1.21.26-1.383.692-1.037.692-1.037.345 1.123 1.641 1.987 1.728 2.765.518 2.16.172 2.419.172 2.419-.259 1.209-.259 2.16-.259 2.16-1.209-.432-2.16 0-2.16 0zm7.257 5.184c.691-1.037 0-2.851 0-2.851-.259-1.987 2.679-3.888 2.679-3.888.864 1.642.777 2.592.777 2.592l2.765-.691c.086 1.209-1.123 3.11-1.123 3.11 1.814.519 2.505-.345 2.505-.345-.864 4.06-4.838 3.283-4.838 3.283a7.6 7.6 0 0 0-2.765-1.21"/><path fill="#006300" d="M264.486 145.069c.259-2.506.691-2.592.691-2.592.26.086.346 1.209.692 1.382 1.555.691 1.555 2.419 1.555 2.419 0 1.988-.346 1.728-.346 1.728-2.16 0-2.592-2.937-2.592-2.937m7.171.518c.778-2.851.259-3.11.259-3.11-.259 0-.864 1.123-1.382 1.209-1.987.087-2.592 1.988-2.592 1.988-.864 2.16-.432 2.073-.432 2.073 2.419.864 3.888-1.209 4.147-2.16"/><path fill="#006300" d="M264.573 140.403c.259-2.851.864-3.024.864-3.024.259.173.432 1.469.864 1.642 1.728.864 1.728 2.765 1.728 2.765 0 2.332-.346 2.16-.346 2.16-2.592 0-3.197-2.506-3.11-3.456zm8.121.692c.864-2.765.346-3.024.346-3.024-.346 0-.951 1.123-1.383 1.123a3.2 3.2 0 0 0-2.764 1.901c-.778 2.159-.346 2.159-.346 2.159 2.333.864 3.801-1.123 4.147-2.159m3.283 7.775c2.333-1.728 2.16-2.246 2.16-2.246-.259-.173-1.469.346-1.814.173-1.728-1.123-3.37 0-3.37 0-1.9 1.209-1.555 1.382-1.555 1.382 1.382 2.16 3.802 1.383 4.579.778z"/><path fill="#006300" d="M275.891 150.426c2.246-.951 2.16-1.383 2.16-1.383-.173-.259-1.296 0-1.555-.259-1.21-1.037-2.679-.518-2.679-.518-1.814.691-1.555.864-1.555.864.778 1.9 2.851 1.727 3.629 1.296m-7.517-13.306c-.864-2.592 1.728-6.048 1.728-6.048q.497 1.45.864 2.938c2.074-2.16 3.974-2.506 3.974-2.506l-.086 1.728a5.9 5.9 0 0 0 1.987-.518c-.345 2.073-2.937 4.233-2.937 4.233-1.037.605-2.247.346-2.247.346-1.901.605-2.333 1.814-2.333 1.814-.172-1.123-.345 0-.95-1.987m3.802 8.64c1.209-1.469 3.024-.864 3.024-.864 1.728.173 3.196-1.555 3.196-1.555a4.8 4.8 0 0 1 1.21-1.555c0-.432-.519-.346-.519-.346l-.95.259c.778-2.851.346-2.937.346-2.937-.26 0-.432.173-.432.173-.432 1.295-2.247 1.209-2.247 1.209-.086-1.901-.518-1.641-.518-1.641-.259.518-.864.864-.864.864-1.814 1.727-1.814 2.505-1.814 2.505.086 2.074-.432 3.974-.432 3.974z"/><path fill="#00863D" d="m271.83 156.128 1.21-.864c.432-.259.259-.173.432-.605l.432-.605-.26.778 1.21-.691c0 .259-.432.432-.778.691q-.425.27-.864.518l-1.641 1.383c1.555-.346 1.209-.087 1.987-.173 1.642-.259 2.419-2.592 2.938-3.888a8.6 8.6 0 0 0-3.024.95c-1.037.692-1.037 1.383-1.642 2.592zm-4.147 5.789c0-.26-.346-.692-.518-.864-.432-.864-.432-1.037-1.037-1.988l-.432-.864c.173 0 .518.692.777.864v-.864c.26 0 .173.26.173.519 0 .864 0 .777.519 1.728l1.123 1.901c0-.346-.173-.605-.26-.864-.345-1.21.432-2.679-2.591-4.493l-.778-.432c0 1.469.259 3.888 1.555 4.665l.864.346zm-.691-18.576c0-.346-.259-.691-.346-1.123-.173-.346 0-.259-.345-.432l-.346-.432.432.173a2.9 2.9 0 0 0-.346-.692c-.259-.345-.172-.086-.432-.604.519-.087 1.037 1.468 1.124 1.814.432 1.21.345 1.037 1.123 1.987 0-.173-.346-.432-.346-.691-.173-.605.519-1.469-.173-2.938-.432-.864-1.296-.864-1.728-1.641l-.345-.691a6.6 6.6 0 0 0-.346 1.555c0 1.037.173 2.333.864 3.024.259.259.864.605 1.21.691m3.888-7.344c.172 0 .432-.432.691-.691l.691-.605-.086-.691c.172 0 0 0 .259.432l.864-1.21c0 .26-.346.864-.519 1.037-.172.346-.345.605-.691.864l-1.382 1.728.864-.259c.864-.173 1.209-.259 1.814-1.296a8.6 8.6 0 0 0 1.037-3.283c-1.296.518-2.678 1.123-3.37 2.332-.259.432-.172.864-.172 1.728zm-8.208 12.355c-.432-.864-1.469-2.074-1.555-2.592l-.173-1.123c.259 0 .173 0 .173.173l.172.864.432.864c0-.605 0-.346.173-.864.259.345-.086.864.173 1.382l.691 1.037c0-.864.519-2.074-.345-3.197-.346-.432-.692-.605-1.124-.864l-.777-1.209c-.605 1.296-.432 3.887.777 4.751l.692.432.345.173zm5.875-5.184c.518-.345.345-.518 1.555-1.469l.778-.777.777-.778c.087.259-.691 1.037-.95 1.383h.518c-.086.345-.432.086-.864.259-.259 0-1.209 1.123-1.469 1.382l.692-.173c.777-.172 1.296 0 2.073-1.036.691-.864.864-1.988 1.296-3.024-1.037.259-2.333.864-2.937 1.382-.864.864-.778 1.469-1.037 2.246l-.432.692zm-4.147 8.035a4.3 4.3 0 0 0-.691-.691c-.432-.259-.519-.259-1.037-.346l-1.728-.95c.173-.173.259.086.691.346l.864.345-.173-.432c.173 0 .173 0 .259.173v.259c.864.087.692.087 1.469.605 0-.346-.086-.346-.345-.518l-.432-.432-.346-.519c-.691-1.037-1.469-.605-1.901-.691l-1.296-.518a4.84 4.84 0 0 0 1.469 2.678c.346.346.778.691 1.382.778zm-.691 6.48a7 7 0 0 0-.864-.605c-.173-.173-.26-.173-.519-.173l-.605-.172h.605l-.259-.26-.864-.864c.173-.086.259 0 .432.173l1.987 1.555.951.519c0-.519-.864-2.074-1.556-2.419l-3.196-.864c.345.85.779 1.661 1.296 2.419.864 1.296 1.036.864 1.728.777h.864zm1.555-6.998-1.21-3.975c.173.087.173.346.259.864l.346.778.259-.605c.173.173 0 .519 0 .778-.173.345-.173.259 0 .691l.519 1.382v-.864c.259-.864.432-1.382 0-2.419-.432-.864-1.124-1.469-1.728-2.16l-.26 1.555c-.172 1.037-.086 2.42.692 3.024.691.519.259.087 1.123.864zm2.333 5.011v-4.061c.172.087.172.259.172.346v1.296l.346-.605c.259.086 0 .346-.087.518l-.345.692.086 1.814.346-.691c.432-.605.864-1.555.691-2.419l-1.037-2.938-.691 1.382a6.3 6.3 0 0 0-.432 1.642c-.259 1.382.173 1.642.605 2.333zm1.641-17.539c0-.346.173-2.16.086-2.333l-.172-.345-.173-.778c.259 0 .173.259.345.518v.087l.087-.519c0-.345 0-.172.173-.518.172.086 0 0 .086.173q.006.13 0 .259c-.173 1.21-.173 2.592-.259 3.715l.345-.691c.26-.605.864-1.728.778-2.419l-.691-3.542-.691 1.382c-.432.95-.864 2.419-.605 3.456l.605 1.382v.173zm-9.504 20.39.951.864c.604.432 1.987 1.037 2.678 1.037l1.555-.346-.173-.691-.864.086a6 6 0 0 1-1.036 0q-.435-.071-.864-.172c-.519-.173-.346 0-.778-.346l1.728.259c-.518-.345-.346-.173-.691-.605.259 0 .777.432 1.037.605l1.382-.086-.086-.864c-.692-.259-1.728-.259-2.506 0-1.469.518-.864.345-2.333.259m1.901 3.715c0 .259 1.555 1.987 1.901 2.16l3.369.087q-.717-.345-1.468-.605c-.692-.259-.692-.173-1.728 0 0-.259.259-.259.864-.346l-1.296-.432-.173-.173h.432l3.456 1.296a3.9 3.9 0 0 1-.951-.864c-1.382-1.728-2.764-1.209-4.406-1.123m11.491-18.403.432-.864c.259-.604-.086-.604 0-1.296.259 0 .173 0 .259.605l.605-1.382c.173.518-.778 2.246-.95 2.765l-.346.864c.864-.864 1.728-1.296 1.901-2.074l.086-3.456c-.518.432-1.296 1.21-1.728 1.814-.518.864-.518 1.728-.345 3.024zm-1.555 20.909.864-.432c1.296-.346.777.259 1.555-.864l-.173.605c.605-.26.691-.605 1.123-1.037.173.259-.172.605-.345.777-.778.692-1.469.432-1.901.605l-.864.432c.95-.173.864 0 1.728.173 1.555.259 2.074-1.382 2.592-2.419l.432-.691a8.3 8.3 0 0 0-3.888 1.9l-.518.519c-.26.173-.432.173-.605.432"/><path fill="#00863D" d="M271.484 155.955c.519-.518.432-1.814.864-2.592 0-.173.173-.259.259-.345.087-.173 0-.173.26-.173.086.173-.26.345-.346.605l-.259.864.086-.087a.8.8 0 0 0 .087-.173c.432-.518.777-.691 1.382-1.036l-.605-2.074-1.037.864a4.9 4.9 0 0 0-.863 1.037c-.692 1.296.086 1.901.172 3.11m-.345 8.64 1.382-2.246v-1.037c.173 0 .086-.087.259.605.432-.692.173-.605.691-.864a5.1 5.1 0 0 1-.691 1.209l-1.296 2.16c.346 0 .778-.518.951-.777l.518-.432.605-.346.605-3.11a8.6 8.6 0 0 0-2.333 1.728c-.864 1.036-.864 1.382-.691 3.11m3.024-7.776 1.728-.259c0 .259-.26.259-.778.346l-3.11.086.777.432.691.345c.605.346 1.21.26 1.815 0l2.333-2.073c-1.21.259-.519.346-2.16 0l-.864.864-.432.173zm-12.528-4.32c.518 1.037 1.987 2.247 3.283 2.074.605 0 .691-.259 1.037-.605h-.087a.6.6 0 0 0-.172-.086c-1.037-.26-1.124-.173-2.16 0l.432-.26-.778-.172-.691-.346c.173-.086.086-.086.345 0 1.296.432 1.642.346 3.111.605-.173-.432-1.296-1.037-1.901-1.123-1.037-.087-1.382.432-2.419-.087m8.64 11.75-.432-2.851c.259 0 .173.173.259.778l.518 2.592c0-1.037.346-1.728.087-2.765l-1.037-1.901a7.8 7.8 0 0 0-.259 2.333c0 .864.259 1.123.691 1.642zm3.888-29.116.345-.432.432-.345c0 .259-.345.518-.518.864-.346.432-.605.518-.778.691-.605.864-.518.691-1.555 1.123 2.074.173 3.283-2.074 4.147-3.629-1.987.259-1.641.432-1.814 1.037zm.691 8.986.605-.951c.345-.518.518-.173 1.123-.691-.173-.173-.173-.086-.778.086l1.037-1.296c-.605.087-1.728 1.988-1.987 2.42l-.691.777c.432-1.209.259-2.333.864-2.851l3.196-1.987c-.086.777-.432 1.814-.777 2.592-.519.95-1.296 1.382-2.592 1.901m-7.949 3.801-.95-1.382-.432-1.901c.259 0 .259.518.259.778l.259.864c.173-.692-.086-.26.259-.864.173.432-.259.95 0 1.296l.605.863c.259-.863.259-1.987-.259-2.591l-1.469-1.556c-.345.519-.345 2.074 0 2.852.259.863.605 1.036 1.123 1.295zm1.21-.259c.432-.432 1.296-.864 1.469-1.123l1.209-1.728c-.259-.087-.432.432-.605.605l-.518.777c0-.691.173-.173 0-.864-.346.346-.173 1.037-.518 1.296l-.951.691c0-.95.432-2.16 1.21-2.592l2.16-1.209c.172.777-.432 2.419-.951 3.11-.691.864-1.036.864-1.728.864zm3.974.259c.518 0 2.16 0 2.592-.346l.691-.259c0 .173 0 0-.259.346h.95c0 .086.173.086-.518.173l-1.728.172-2.333.26c1.555.518 1.728 1.382 3.456.691 1.383-.519 1.728-1.037 2.592-2.074-2.246.519-2.419-1.296-4.493 0z"/><path fill="#00863D" d="M274.94 149.216c.519 0 .26 0 .778.173-.259.173-1.21 0-1.555 0h-1.555c.518.691 1.382 1.037 2.505.864 1.123-.087 1.469-.346 2.333-.864l-1.728-.605zm-.691 9.936a2.8 2.8 0 0 0-.777-.432c-.864-.432-1.728 0-2.16 0l-1.124-.173a5.2 5.2 0 0 0 2.074.864c1.469.259.432.605 1.987-.259m.173 1.037.432.432c-.086 0-.259 0-.432-.173l-.086 1.037 1.987-.26a15 15 0 0 0-1.728-1.9zm-2.592.604 1.21-.864c-.26-.345-.864-.259-1.296-.432l-1.124-.432.605.864zm5.789-17.798c-.519.346-.864.778-1.469 1.037-.778.346-1.555 0-2.074.519 1.296-.087 2.16.431 3.197-.519.691-.605 1.21-1.469 1.728-2.246-.368.031-.723.15-1.037.345l-.259.432c-.259.346 0 0 0 .432zm-4.32 30.24.864 1.901 1.382 1.727.864-.604 1.123-.346c-.604-.259-.604-.518-.95-.605h-1.469c.087-.259 0-.172.691-.172h.692c-.432-.432-.951-.692-1.383-1.037l1.383.777v-.95c.345 0 .086.605.259 1.123.086.173.518.519.864.605.432.259.605.173 1.037.346l1.123.345c-.432-.691-.173.086-.951-1.555a2.94 2.94 0 0 0-1.209-1.382c-1.296-.778-2.851-.26-4.32-.173m1.641-1.987v-2.333l-.259-1.815c.173 0 .173.087.259.346l.087.518c.173-.864.259-.864.691-1.382 0 .173-.432.864-.518 1.728l-.087 2.333.173-.259.259-.26.432-.518c1.123-1.728.432-2.765.432-3.283l.346-1.728a8.2 8.2 0 0 0-1.555 1.123c-.864.864-1.728 2.419-1.124 3.715l.432.864.346.951z"/><path fill="#00863D" d="m274.335 177.987 1.556.518c.95.346 2.592.432 3.283-.518.432-.519.691-.605 1.123-1.037-.691 0-1.296.346-1.901.432-.518.173-.518.518-.95.864l-.346.259c0-.259.432-.691.691-.95h-1.555c0-.259.519-.173 1.123-.173 1.296-.173 1.556-.518 2.938-.691a.6.6 0 0 0 .259 0c-2.073 0-2.592-1.469-5.097.345zm9.504-1.296v-1.037c-.432-.346-.432-.518-.691-1.037.259 0 .346.432.778.691 0-.518-.26-1.382-.432-1.9.259 0 .345.691.432.95.345 1.21 0 2.16.259 2.592l.605.864c.172-.864 1.123-1.469 0-3.542-.605-1.296-1.124-1.556-2.16-2.333.086.605.259.864.172 1.555l-.345 1.382c-.173 1.124.259 1.037.432 1.124zm-10.368-1.987-.259-.692c-.864 0-1.123.346-2.419-.518-.259-.173-.259-.173-.432-.518l1.383.864-.519-.864c0-.087 0-.173.087 0h.172l.605.864h.864l-.173-.605c-.086-.346 0-.346-.259-.519a2.4 2.4 0 0 0-1.209-.518l-1.383.173-1.382-.259c0 .259.605 1.123.691 1.382.605.864 2.16 1.987 3.456 1.469zm-7.171-6.48.173.086c.366.155.691.391.951.691.432.346.432.605.95 1.037.864.778 1.814.691 3.024.864a7 7 0 0 0-.518-.605c-.951-1.037-.864-.95-1.383-.864h-.95c0-.173.605-.173 1.037-.259a2.7 2.7 0 0 0-.605-.259c-.519 0-.173 0-.778-.173.259-.346 1.555.173 2.16.691l1.383 1.555-.692-1.468c-.691-1.296-2.592-1.728-3.888-1.469q-.442.03-.864.173m8.122 3.369c-.432-1.555-1.296-2.246-1.469-3.197-.173-.604-.086-.604 0-1.209.346.432-.259.691.691 2.246 0-.518-.173-.691-.086-1.296l.345-1.209c-.086-.259-1.209-1.296-1.468-1.642-.173 1.383-.519 2.592-.087 3.974s1.21 1.124 2.074 2.333m7.43 6.912.95-.173a5.4 5.4 0 0 1-.604-.864c-.432-.604-.346-.604-.173-.864l.086.519.346.345c.173.346.345.519.691.778 0-.519-.173-.691 0-1.037.173.087 0 0 .086.173l.087.864 1.123-.346c-.778-1.296-2.16-1.728-3.456-2.246l.346 1.555zm-1.728-2.765-.432-.864c-.345-.864-.345-1.123-1.037-1.9l-.345-.346-.259-.259v-.087c.172 0 .691.519.864.692.432.345 1.382 2.419 1.728 3.024-.087-.26-.26-.605-.173-.864.345-.864-.432-2.074-.864-2.333l-3.024-1.296c.345.345.605.518.864 1.037.173.518.259.086 1.037.864.864.95.864 2.073 1.728 2.332z"/><path fill="#00863D" d="m285.74 175.74.087-.432c.172-.259 0-.173.259-.345.173.172 0 .259-.087.604l-.604 2.16c.691-.086.604-.086.864-.604.259-.346.345-.778.432-1.124l-.087-2.851-.864 1.123c-.432.605-.173.26 0 1.469m-9.158-6.48c.259-.086.691-.691.95-.864.087.173-.432.778-.604.864-.519.519-.173 0-.864.864 1.382.173 1.9-1.555 2.332-2.419l-1.296.346c-.172.086-.086 0-.172.259l-.087.346c0 .259-.173.432-.259.691z"/><path fill="#CE1126" stroke="#000" stroke-width=".173" d="m289.801 185.59 1.641.864-.95 1.814c.691-.086 3.11-.95 3.974-1.209-.259-.605-.345-.605-.259-1.383l-.259-1.296-1.987.691q-1.063.331-2.16.519Zm21.427-.259-1.642.864.95 1.727c-.691 0-3.11-.863-3.974-1.123.259-.604.346-.691.259-1.382l.259-1.296 1.988.691z"/><path fill="#CE1126" stroke="#000" stroke-width=".173" d="M295.676 188.182a10.7 10.7 0 0 0 3.456-1.21c.345.259 1.814 0 1.814 0q.481-.056.95-.173a8.7 8.7 0 0 0 3.284 1.383c1.641-.087 1.728-1.383 1.728-1.383l-.26-1.123c.864-1.382 0-2.419 0-2.419-.518-.518-3.024.259-3.024.259-1.728.864-1.728.432-1.728.432-.518-.691-2.246-.605-3.023 0l-2.16-.518c-1.901-.778-2.16-.346-2.16-.346-.692.864-.432 1.728-.432 1.728l.086.864c-.346 2.419 1.555 2.592 1.555 2.592z"/><path fill="#CE1126" stroke="#000" stroke-width=".173" d="M301.897 186.108c4.06.951 3.801 1.555 3.801 1.555-.259.432-1.469-.172-1.469-.172-3.11-1.037-2.332-1.383-2.332-1.383Zm-2.506 0c-4.061.951-3.715 1.555-3.715 1.555.259.432 1.382-.172 1.382-.172 3.197-1.037 2.333-1.296 2.333-1.296z"/><path fill="#AA241E" stroke="#000" stroke-width=".173" d="M299.65 183.43c-1.728.259-.432 1.555-.345 2.419 0 .432-.432 1.123 0 1.296.432.259 1.296 0 1.814 0 .691 0 1.123 0 1.037-.864 0-.605-.259-.864-.259-1.728 0-.518.086-1.21-.519-1.21a11 11 0 0 0-1.728 0z"/><path stroke="#000" stroke-width=".173" d="M301.983 184.38c4.579 0 4.32-.777 4.32-.777m-4.32 2.159c4.665.605 4.061 1.296 4.061 1.296m-6.826-1.382c-4.32.864-3.888 1.642-3.888 1.642m3.456-3.024c-4.406.259-3.974-.432-3.974-.432"/><path fill="#000" d="M281.593 178.851c-2.333.864-3.888 1.382-6.048 2.678l-2.851-4.32a6.05 6.05 0 0 0-1.901-1.555c-1.296-.605-1.728-.432-2.592.259l-.518-1.123c-1.123-1.987-2.333-2.851-3.542-4.493l-1.21-1.296-.346-.432c.432 1.642.864 3.111 1.124 4.925-.692-.432-1.383-.864-2.074-1.123a7.8 7.8 0 0 0-2.592-.432l.864.777a10.2 10.2 0 0 1 2.851 4.752 14.4 14.4 0 0 0 3.629 5.616 6.8 6.8 0 0 0 1.728 1.296c1.728.691 1.641 0 2.246-.259a27 27 0 0 0 3.629 5.011 6.91 6.91 0 0 0 6.48 1.642c1.037-.26 1.728-.605 2.592-1.037 2.937-1.728 1.469-3.11 1.123-4.493a94 94 0 0 1 6.221-1.728c4.838-.864 13.823-1.037 19.612-.173.519.087 6.307 1.642 6.912 1.988a4.66 4.66 0 0 0-.518 2.505c0 .951.864 1.469 1.728 1.901a8.64 8.64 0 0 0 5.529 1.123 6.65 6.65 0 0 0 4.234-2.765c1.555-1.728 1.987-2.764 2.764-4.06 0 0 .432.432.778.518.259.086 1.296 0 1.555-.173.691-.259 1.21-.864 1.728-1.296a13.4 13.4 0 0 0 3.542-5.702 10.37 10.37 0 0 1 3.715-5.443c-2.419.086-3.283.777-4.665 1.555l.518-2.592.605-2.333-3.024 3.456c-.432.691-.95 1.21-1.469 1.815-.95 1.555-.777 1.555-1.123 2.073-3.456-1.901-5.011 2.679-7.257 5.53-4.32-2.419-8.035-3.111-13.133-4.061l-3.024-.346a76.7 76.7 0 0 0-19.612.173c-3.283.432-5.27 1.037-8.208 1.728z"/><path fill="#CE1126" d="M277.187 188.786c.432-1.123.864-1.382 1.9-1.814 3.111-1.469 4.666-2.074 8.208-3.024a46 46 0 0 1 6.221-1.123 58.3 58.3 0 0 1 10.627-.346 47.1 47.1 0 0 1 17.798 4.407c1.296.604 1.123.691 1.901 1.9.864-.691 1.641-2.073 2.16-2.937l.864-1.728c.345-.951-.259-1.296-.691-1.642-1.556-1.382-4.58-2.592-7.172-3.283a74.73 74.73 0 0 0-36.892 0 21.4 21.4 0 0 0-7.775 3.802c-.692.777.345 2.16.691 2.764l.864 1.728z"/><path fill="#CE1126" d="M266.387 179.023c1.209.26 1.728.605 2.505 1.728 1.728 2.419 1.815 4.147 4.839 7.431a5.2 5.2 0 0 0 2.246 1.814 6.5 6.5 0 0 0 3.629.518 7.8 7.8 0 0 0 3.024-1.036s1.123-.605 1.469-1.037c.259-.346.345-1.296.345-1.296-.864-.259-2.592 1.469-3.629 2.16-1.9 1.296-2.592.864-4.06-.432-1.124-.951-1.556-2.074-2.333-3.456-.346-.519-.864-1.296-.691-2.16l1.468-1.469-1.814-2.765c-.691-1.123-1.123-1.9-2.073-2.592-.519-.432-1.642-1.036-2.42-.604l-1.728 1.728c-.259.432-.604.864-.777 1.468"/><path fill="#CE1126" d="m264.313 174.358-1.814-1.123-2.333-.864 1.296 1.469c1.383 1.728 1.383 3.283 2.592 5.529a14.1 14.1 0 0 0 3.629 4.32c.864.691 1.641.864 2.073.259.087-.432-.95-1.123-1.468-1.382a9.5 9.5 0 0 1-1.815-1.21c-1.382-1.382-.345-3.024.692-4.233l.691-.864c.173-.519-.951-2.074-1.555-2.851-.605-.778-2.16-2.592-2.938-3.284l.432 2.16zm20.045 12.355-.519-1.296c-.777.086-4.406 1.728-5.27 2.246-.259.173-1.296.951-.864 1.469 1.469 1.555 3.629-.691 4.838-1.728a2.68 2.68 0 0 1 1.728-.691z"/><path fill="#CE1126" d="M270.275 183.775c-.259-.086-.259-.518-1.037-1.123-.345-.259-2.246-1.296-2.592-1.641 0 0-.518-.432-.518-1.037.086-.519.518-.605.518-.605 1.728 0 3.629 4.147 3.543 4.32zm64.453-4.665c-1.296.259-1.728.605-2.505 1.728-1.728 2.419-1.815 4.147-4.839 7.43-.691.778-1.209 1.382-2.333 1.814a6.5 6.5 0 0 1-3.542.519 7.8 7.8 0 0 1-3.11-1.037s-1.123-.605-1.383-1.037a3.3 3.3 0 0 1-.345-1.296c.864-.345 2.592 1.469 3.542 2.16 1.987 1.296 2.679.864 4.061-.432 1.209-.95 1.641-2.073 2.419-3.456.346-.518.864-1.296.691-2.16l-1.469-1.468 1.728-2.765c.864-1.123 1.21-1.901 2.16-2.592.519-.432 1.642-1.037 2.42-.605l1.641 1.728c.259.432.691.864.864 1.469"/><path fill="#CE1126" d="m336.802 174.444 1.814-1.123 2.246-.864-1.209 1.469c-1.469 1.728-1.469 3.283-2.592 5.529a14.3 14.3 0 0 1-3.629 4.32c-.864.691-1.814.691-2.073.259-.087-.432.864-1.123 1.468-1.382.691-.346 1.296-.864 1.815-1.21 1.382-1.382.345-3.023-.692-4.233l-.691-.864a7.8 7.8 0 0 1 1.555-2.851l2.852-3.283c0 .604-.26 1.468-.432 2.16zm-20.045 12.355.519-1.296c.777.087 4.406 1.728 5.27 2.247.259.172 1.296.95.864 1.468-1.469 1.555-3.629-.691-4.925-1.728-.432-.259-.95-.691-1.728-.691"/><path fill="#CE1126" d="M330.927 183.862c.172-.087.172-.605.95-1.21.346-.259 2.246-1.209 2.592-1.555 0 0 .518-.432.432-1.037 0-.518-.432-.605-.432-.605-1.728 0-3.629 4.148-3.542 4.32z"/><path fill="#EAC102" d="M280.988 181.443h-.518l-.778.345v.259c.173 0 .087.26.173.432l.173.519.173.691.172.691c0 .087-.172.346 0 .259l.605-.172c.087 0 .259-.173 0-.173-.086-.087 0-.346-.173-.519l-.086-.518c0-.173.259 0 .259.086l.432.432.519.26a.7.7 0 0 0 .518 0c-.259-.173-.519-.346-.605-.605l-.432-.519c.173-.172.432-.432.432-.691a.87.87 0 0 0-.345-.777 1.1 1.1 0 0 0-.519 0m-.173.172c.173 0 .26.173.346.26.086.172.173.345.086.604a.5.5 0 0 1-.092.201.5.5 0 0 1-.167.145c-.086.086-.345.259-.432 0l-.173-.864q0-.26.26-.259a1 1 0 0 1 .172 0zm1.21-.604c0 .086.259.172.173.345l.172.605.173.605v.432l.173.518c0 .087-.173.259 0 .259l1.555-.432c.173 0 .173 0 .173-.172v-.519c-.173 0-.173.259-.259.346l-.778.345c-.086 0-.173-.086-.173-.259l-.086-.345-.173-.605h.605c.086 0 .173.173.259 0v-.432c-.086 0-.086-.346-.259-.259 0 .086 0 .259-.173.345a1.3 1.3 0 0 1-.432.087l-.086-.432c0-.173-.087-.432.086-.432a.69.69 0 0 1 .691 0c.087 0 .26.259.26 0 0-.087 0-.346-.173-.432h-.432zm3.542-.951h-.605l-.691.259c-.173.087.173.173.173.346v.432l.173.432.086.691.087.605v.346c.172 0 .432 0 .604-.173.173 0 .173-.087 0-.173v-.432l-.172-.518a1.73 1.73 0 0 0 .864-.432.79.79 0 0 0 .345-.605.95.95 0 0 0-.173-.605.86.86 0 0 0-.345-.173zm-.259.173a.43.43 0 0 1 .432.346l.086.604c0 .087-.086.26-.259.26l-.345.172-.087-.345-.173-.691c0-.173 0-.26.173-.26a.7.7 0 0 1 .173 0zm2.851-.778.259.26v.432l.173.518v.432l.087.605a.54.54 0 0 1-.212.344.53.53 0 0 1-.393.088.35.35 0 0 1-.259-.173.86.86 0 0 1-.173-.432l-.087-.605a7 7 0 0 0-.086-.605l-.086-.432c0-.086.172-.259 0-.259l-.692.087c-.172.172.087.172.087.345l.086.432.173.864v.432c0 .173.173.259.259.432.087.087.259.259.432.259.346 0 .691 0 .951-.259l.259-.432-.087-.691-.086-.691-.086-.519a.42.42 0 0 1 0-.259c0-.086.172-.259 0-.259h-.346a.17.17 0 0 0-.173.086m2.247-.432-.864.173-.432.087.172.345c0 .346 0 .691.173.951v.604l.087.692c0 .086-.173.259 0 .259l.432-.087q.258-.018.518 0 .315-.099.605-.259l.259-.259a.52.52 0 0 0 .173-.346c0-.172 0-.432-.259-.604l-.346-.173c-.086 0-.259-.087 0-.173a.7.7 0 0 0 .259-.432.52.52 0 0 0-.086-.432c0-.173-.259-.259-.432-.259a1.6 1.6 0 0 0-.259 0zm-.432.26c.259 0 .432 0 .604.172v.519c0 .173-.172.259-.345.345-.087 0-.346.087-.346-.086v-.432a4 4 0 0 1 0-.432zm.259 1.296.432.086c.173.086.173.346.173.518l-.087.432-.518.173c-.173-.086-.173-.345-.173-.432v-.777a.4.4 0 0 1 .173 0m1.469-1.728s.172 0 .086.172l.086.519v.432l.087.605v1.036c-.087.087.086 0 .172 0h1.037l.519-.086v-.778c0 .173-.173.26-.26.346a.6.6 0 0 1-.259.173h-.259l-.346-.087v-.604l-.086-1.037v-.605c0-.086.173-.259 0-.259h-.346l-.345.086a1 1 0 0 0-.086 0zm2.159-.26.087.173.086.346v.345l.173 1.383v.345s-.173.173-.086.26q.437.01.864-.087l-.087-.173-.086-.345-.087-.605v-.518l-.086-.692v-.432s.173-.172 0-.172a5 5 0 0 0-.778.086zm3.456 1.728c-.172 0-.259.173-.345.26 0 .172-.259.172-.346.259-.259 0-.345-.087-.518-.259a1.4 1.4 0 0 1-.259-.432v-.432a3 3 0 0 1 0-.778c0-.173 0-.346.172-.432.173-.086.432 0 .605.086l.173.432c.173.173.173-.086.173-.172l.086-.346a.86.86 0 0 0-.432-.173 1.04 1.04 0 0 0-.95.173.9.9 0 0 0-.259.259.9.9 0 0 0-.087.346l-.173.518.26 1.037c0 .173.172.259.345.432l.432.173a.87.87 0 0 0 .605-.173c.173 0 .259-.259.346-.346a.84.84 0 0 0 .172-.345zm1.124-2.159h-.346l-.086.691-.173.432-.173 1.123-.259.605v.086h.605l-.173-.259v-.432c0-.173.259 0 .345 0l.432-.087.173.519s-.173.259 0 .259h.605c.173-.086 0-.259 0-.346l-.259-.691-.259-.864-.26-.864zm-.26.691.346 1.123-.173.086h-.345c-.087-.086 0-.259 0-.345l.086-.519zm3.716-.864-.864.086.172.259v2.506c0 .086-.345.259-.086.259h1.21a.87.87 0 0 0 .345-.259l.346-.432.086-.605a2.4 2.4 0 0 0 0-.605l-.173-.518-.259-.346a1.5 1.5 0 0 0-.345-.172l-.432-.087zm0 .259q.389 0 .518.259a.86.86 0 0 1 .086.432v1.21a1.2 1.2 0 0 1-.172.518l-.26.173-.432-.087v-2.246c0-.173.173-.259.346-.259zm2.591-.086a.7.7 0 0 0-.432.086l-.432.518-.172.691v.692l.172.432a.95.95 0 0 0 .864.691c.26 0 .519-.173.692-.346l.345-.605v-1.036a1.7 1.7 0 0 0-.173-.519l-.345-.518a.77.77 0 0 0-.432-.086zm0 .172c.26 0 .432.259.432.432l.087.519v.777l-.087.519a.86.86 0 0 1-.259.432c-.086.086-.259.172-.345 0-.173 0-.173-.26-.26-.346v-1.642c0-.172 0-.345.173-.518a.35.35 0 0 1 .346-.173zm1.21 3.024h.518c.087-.086-.172-.173-.086-.345a1.7 1.7 0 0 1 0-.519l.086-.518.087-.519.086-.432.087.432v.605l.172.519v.518c.087.173 0 .432.26.346.172 0 .086-.173.172-.26l.173-.864.173-.432.259-.777v2.16c0 .086-.259.259 0 .259h.519c.172.086.086 0 0-.086v-2.679s.172-.173 0-.173h-.605l-.173.432a8 8 0 0 1-.173.605l-.086.605s-.087.173-.087 0v-.518c0-.087-.172-.26-.086-.346l-.173-.864c0-.173-.173 0-.345-.173h-.346v1.037l-.173 1.123-.086.432c0 .173-.087.259-.259.346zm2.851.259.519.087h.259l-.173-.346v-.518l.173-.432a19 19 0 0 1 0-.951 1.1 1.1 0 0 1 0-.432l.173-.172c.086-.173-.087-.087-.173-.087l-.605-.086s.173.173.086.259v1.469l-.086.432q.021.215 0 .432zm.951.26h.432c.086 0 .259.086.172 0a.7.7 0 0 1-.086-.432v-.778a1.7 1.7 0 0 1 .086-.518v-.519c.173.087.173.259.26.432l.691 1.728c0 .173 0 .346.173.346.172 0 .172-.087.172-.259v-.432l.087-.432v-.519l.173-.518v-.519s.345-.172.172-.259h-.518l.173.346-.087.95-.086.519-.173-.432-.259-.519-.173-.518-.259-.605a3 3 0 0 1-.518-.086c-.173 0 0 .172 0 .345.086.259 0 .519 0 .691q.018.26 0 .519l-.087.518-.086.519c0 .172-.173.259-.259.345zm2.592-2.592c.086.172.259.259.172.345v.432a2.6 2.6 0 0 1-.086.432l-.086.605v.432l-.087.259v.259l-.173.173c-.086.087.173 0 .26.087l.432.086s.086 0 0-.086v-.864l.086-.432v-.346c.086-.173 0-.346.173-.518v-.346c0-.086 0-.259.172-.346a1 1 0 0 0-.345 0l-.346-.172a.16.16 0 0 0-.086 0zm.95 2.073c-.02.403.103.801.345 1.123 0 .173.26.173.346.26h.518c.087 0 .26 0 .346-.173l.259-.432c0-.173-.173.086-.259.173-.173.086-.432.172-.605 0a.7.7 0 0 1-.259-.346v-.432a6 6 0 0 1 0-.605v-.432l.259-.432a.44.44 0 0 1 .259-.173c.173 0 .26.173.346.26.075.13.106.282.086.432 0 .086.087.259.173.086l.173-.432c0-.173-.173-.259-.259-.346l-.259-.172h-.692a1 1 0 0 0-.259.345c-.172.087-.259.346-.345.519q-.085.296-.087.604zm3.024-1.123-.519 1.21c0 .086 0 .259-.172.432l-.26.604-.259.346c-.086 0-.086.173 0 .173l.432.086c.173 0 0-.173 0-.259v-.346c.173-.172.346 0 .432 0h.346v.692c-.087 0 0 .172 0 .172l.432.173c.086 0 .259 0 .173-.086-.087-.259 0-.432 0-.691l-.087-.519v-1.814zm0 .691v1.296l-.519-.086c-.086-.173.087-.259.087-.432l.345-.605zm1.296 2.851v-1.209l.173-.432v-.519c.172-.172.172 0 .172.087l.26.864.172.518.173.778c0 .086.087.345.259.259l.173-.518.087-.519.172-.864.173-.691s.346-.173.087-.259c-.087 0-.26-.173-.432-.087l.086.346v.518a4 4 0 0 0-.173.432l-.086.519c-.173-.087-.087-.259-.173-.432l-.173-.605q-.104-.297-.173-.605a1.8 1.8 0 0 1-.086-.432c-.086-.173-.346-.173-.432-.259-.173 0-.259 0-.173.173v.864l-.259.864-.086.518-.26.346c-.172.173.173.173.26.259a.6.6 0 0 0 .259 0zm2.937-1.987-.259.605-.345.605-.692 1.123s-.172.173 0 .173l.432.173v-.692l.432.087c.087.086.346 0 .346.259l-.086.518c-.087 0-.173.087 0 .173l.259.087c.173 0 .259.172.345.086v-3.11zm0 .605v1.382l-.432-.172s-.259 0-.172-.173l.259-.605z"/><path fill="#fff" d="M281.593 130.087v31.316c0 2.776 0 4.55 1.389 6.247a8.5 8.5 0 0 0 4.627 3.24c1.312.231 5.94.154 7.559.154 3.548-.231 4.011.617 5.399 2.314 1.543-2.391 3.163-2.468 6.325-2.314 1.543 0 5.091.077 6.479-.231a7.25 7.25 0 0 0 4.165-2.546c1.851-2.082 1.697-4.628 1.697-7.404v-29.542c0-1.388-.154-1.002.54-1.696l4.473-4.628H276.58l4.936 5.168z"/><path fill="#002D62" d="M296.48 143.971V124.92h-19.669l4.86 5.167v13.884z"/><path fill="#CE1126" d="M304.347 143.971V124.92h20.054l-5.168 5.476v13.652zm-7.868 7.944h-14.886l-.077 12.033c.694 5.245 4.628 7.096 8.022 7.019h6.941z"/><path fill="#002D62" d="M304.347 151.916h14.963v12.109c-.386 5.245-4.628 7.096-8.099 7.019h-6.941z"/><path stroke="#000" stroke-width=".386" d="M281.67 130.087v31.316c0 2.776 0 4.473 1.389 6.402a7.1 7.1 0 0 0 4.628 3.085c1.311.231 5.939.154 7.558.154 2.083 0 3.008-.154 4.397 1.234.463.463.54.617.848 1.157a6.26 6.26 0 0 1 2.314-2.16c1.08-.385 2.931-.231 4.165-.231 1.62 0 5.091.077 6.479-.231a8.2 8.2 0 0 0 4.165-2.546c1.851-2.082 1.697-4.628 1.697-7.404v-29.542c0-1.388-.154-1.002.54-1.696l4.473-4.628h-47.589z"/><path fill="#EAC102" stroke="#000" stroke-width=".231" d="M299.719 129.625v2.159h-2.314v1.774h2.16v7.713h1.774v-7.713h2.236v-1.774h-2.236v-2.159z"/><path fill="#fff" d="M287.301 132.401v3.548l-1.466-1.542.232 24.682c0 3.625 2.622 6.633 5.862 6.633 3.239 0 5.862-2.931 5.939-6.556l-.232-12.65-1.542-1.696-.077-1.312z"/><path fill="#002D62" d="M287.301 132.556v3.548l-1.466-1.543.155 14.038 6.324 6.093v-13.421l-.154-.308v-2.314z"/><path fill="#CE1126" d="m294.166 141.271 1.851 2.314v.849l-1.851-1.928zm3.47 5.4.155 8.793c-.926 1.697-2.777.771-2.777.771l.077-12.187z"/><path fill="#002D62" d="M297.868 159.86c-2.468 1.851-3.085-.771-3.085-.771a3.4 3.4 0 0 0 3.085-2.314z"/><path fill="#CE1126" d="M285.99 152.224a41.6 41.6 0 0 0 6.17 5.785c.771 5.939 4.242 3.934 5.476 3.085-.771 2.777-3.008 4.782-5.707 4.782-3.24 0-5.862-3.008-5.862-6.633z"/><path stroke="#000" stroke-width=".231" d="M296.017 144.434v-.849l-8.716-11.184v3.086zm-10.182-9.95.232 24.605c0 3.625 2.622 6.633 5.939 6.633 3.162 0 5.785-2.931 5.862-6.556l-.232-12.65z"/><path fill="#EAC102" d="M290.618 130.242c-.617-1.08-.463-1.543-.078-2.006l-2.313-2.314.694 3.24c.617-.154 1.08 0 1.697 1.08m-2.314-4.32 2.314 4.32Z"/><path stroke="#000" stroke-width=".077" d="M290.618 130.242c-.617-1.08-.463-1.543-.078-2.006l-2.313-2.314.694 3.24c.617-.154 1.08 0 1.697 1.08Zm0 0-2.314-4.32"/><path fill="#EAC102" stroke="#000" stroke-width=".077" d="m299.719 145.282-.54.232-9.256-15.735.617-.309z"/><path fill="#EAC102" d="M289.692 129.779c-.077-.154 0-.386.386-.54.231-.154.539-.154.617 0 0 .154-.078.386-.386.54-.232.154-.54.154-.617 0m-3.085 1.234c-.772-1.003-.695-1.543-.309-2.005l-2.545-2.006 1.08 3.085c.617-.231 1.079-.077 1.774.926m-2.854-4.011 2.854 4.011Z"/><path stroke="#000" stroke-width=".077" d="M286.607 131.013c-.772-1.003-.695-1.543-.309-2.005l-2.545-2.006m2.854 4.011c-.695-1.003-1.157-1.157-1.774-.926l-1.08-3.085m2.854 4.011-2.854-4.011m5.939 2.777c-.077-.154 0-.386.386-.54.231-.154.539-.154.617 0 0 .154-.078.386-.386.54-.232.154-.54.154-.617 0Z"/><path fill="#EAC102" stroke="#000" stroke-width=".077" d="m297.636 144.742-.539.309-11.107-14.424.463-.385z"/><path fill="#EAC102" d="M285.681 130.705c-.154-.155 0-.463.232-.618.308-.231.539-.231.694-.077 0 .077 0 .386-.309.54-.308.155-.54.232-.617.077zm.309 3.548c-.849-1.003-.849-1.543-.54-2.006l-2.777-1.697 1.388 3.008c.618-.308 1.08-.308 1.929.695m-3.317-3.703 3.317 3.625Z"/><path stroke="#000" stroke-width=".077" d="m282.673 130.55 2.777 1.697c-.309.463-.309 1.003.54 2.006-.849-1.003-1.311-1.003-1.929-.695zm0 0 3.317 3.625m-.309-3.47c-.154-.155 0-.463.232-.618.308-.231.539-.231.694-.077 0 .077 0 .386-.309.54-.308.155-.54.232-.617.077z"/><path fill="#EAC102" stroke="#000" stroke-width=".077" d="m297.945 146.979-12.65-13.112.463-.386 12.65 13.113z"/><path fill="#EAC102" stroke="#000" stroke-width=".077" d="M284.987 133.944c-.154-.077 0-.386.231-.617.232-.231.463-.309.617-.154.078.154 0 .385-.231.617s-.54.308-.617.154Z"/><path fill="#fff" d="M313.911 132.401v3.548l1.465-1.542-.231 24.682c0 3.625-2.623 6.633-5.862 6.633-3.24 0-5.862-2.931-5.939-6.556l.231-12.65 1.543-1.696.077-1.312z"/><path fill="#002D62" d="M313.911 132.556v3.548l1.465-1.543-.154 14.038-6.325 6.093v-13.421l.155-.308v-2.314z"/><path fill="#CE1126" d="m307.046 141.271-1.851 2.314v.849l1.851-1.928zm-3.471 5.4-.154 8.793c.926 1.697 2.777.771 2.777.771l-.077-12.187z"/><path fill="#002D62" d="M303.344 159.86c2.468 1.851 3.085-.771 3.085-.771a3.4 3.4 0 0 1-3.085-2.314z"/><path fill="#CE1126" d="M315.222 152.224a41.6 41.6 0 0 1-6.171 5.785c-.771 5.939-4.242 3.934-5.476 3.085.772 2.777 3.008 4.782 5.708 4.782 3.239 0 5.862-3.008 5.862-6.633z"/><path stroke="#000" stroke-width=".231" d="M305.195 144.434v-.849l8.716-11.184v3.086zm10.181-9.95-.231 24.605c0 3.625-2.623 6.633-5.939 6.633-3.163 0-5.785-2.931-5.862-6.556l.231-12.65z"/><path fill="#EAC102" d="M310.594 130.242c.617-1.08.463-1.543.077-2.006l2.314-2.314-.694 3.24c-.617-.154-1.08 0-1.697 1.08m2.314-4.32-2.314 4.32Z"/><path stroke="#000" stroke-width=".077" d="M310.594 130.242c.617-1.08.463-1.543.077-2.006l2.314-2.314-.694 3.24c-.617-.154-1.08 0-1.697 1.08Zm0 0 2.314-4.32"/><path fill="#EAC102" stroke="#000" stroke-width=".077" d="m301.493 145.282.54.232 9.255-15.735-.617-.309z"/><path fill="#EAC102" d="M311.52 129.779c.077-.154 0-.386-.386-.54-.231-.154-.54-.154-.617 0 0 .154.077.386.386.54.231.154.54.154.617 0m3.085 1.234c.771-1.003.694-1.543.309-2.005l2.545-2.006-1.08 3.085c-.617-.231-1.08-.077-1.774.926m2.854-4.011-2.854 4.011Z"/><path stroke="#000" stroke-width=".077" d="M314.605 131.013c.771-1.003.694-1.543.309-2.005l2.545-2.006m-2.854 4.011c.694-1.003 1.157-1.157 1.774-.926l1.08-3.085m-2.854 4.011 2.854-4.011m-5.939 2.777c.077-.154 0-.386-.386-.54-.231-.154-.54-.154-.617 0 0 .154.077.386.386.54.231.154.54.154.617 0Z"/><path fill="#EAC102" stroke="#000" stroke-width=".077" d="m303.575 144.742.54.309 11.107-14.424-.463-.385z"/><path fill="#EAC102" d="M315.53 130.705c.155-.155 0-.463-.231-.618-.308-.231-.54-.231-.694-.077 0 .077 0 .386.308.54.309.155.54.232.617.077zm-.308 3.548c.848-1.003.848-1.543.54-2.006l2.777-1.697-1.389 3.008c-.617-.308-1.08-.308-1.928.695m3.317-3.703-3.317 3.625Z"/><path stroke="#000" stroke-width=".077" d="m318.539 130.55-2.777 1.697c.308.463.308 1.003-.54 2.006.848-1.003 1.311-1.003 1.928-.695zm0 0-3.317 3.625m.308-3.47c.155-.155 0-.463-.231-.618-.308-.231-.54-.231-.694-.077 0 .077 0 .386.308.54.309.155.54.232.617.077z"/><path fill="#EAC102" stroke="#000" stroke-width=".077" d="m303.267 146.979 12.649-13.112-.463-.386-12.649 13.113z"/><path fill="#EAC102" stroke="#000" stroke-width=".077" d="M316.225 133.944c.154-.077 0-.386-.232-.617-.231-.231-.463-.309-.617-.154-.077.154 0 .385.231.617.232.231.54.308.618.154Z"/><path fill="#CE1126" stroke="#000" stroke-width=".154" d="m298.716 155.926-.462 7.791c-.463 0-1.466-.078-1.543-.772 0-.308 1.003-6.71 1.003-7.327z"/><path fill="#002D62" stroke="#000" stroke-width=".154" d="m298.022 155.618-.231 2.391c.154.771 1.079.617 1.542.694l.155-4.011q-.74.518-1.543.926z"/><path fill="#002D62" stroke="#000" stroke-width=".154" d="M298.099 165.568c1.234-1.543 3.703-.386 3.703-.386 2.622.617 1.928-2.391 1.928-2.391-.54-6.016-1.157-10.181-1.157-10.181l-3.857 2.622z"/><path fill="#002D62" stroke="#000" stroke-width=".154" d="M298.099 165.722c-.308 1.774 1.543 1.543 1.543 1.543 2.082 0 1.465-2.314 1.465-2.314-2.314-.694-3.085.771-3.085.771z"/><path fill="#CE1126" stroke="#000" stroke-width=".154" d="m299.565 154.538-.155 6.942c.078 1.62 1.929.771 1.929.771.462-.231.925-.077.925-.077v-2.16c3.085-.231 2.314-2.005 2.314-2.005-1.234-5.862-1.388-5.631-1.388-5.631z"/><path stroke="#000" stroke-width=".154" d="M302.264 160.014c-1.928 0-2.776.772-2.776.772v.154"/><path fill="#fff" stroke="#000" stroke-width=".154" d="m302.033 165.105-.694-11.647 1.388-.925 1.157 10.952v.077c0 2.083-1.851 1.543-1.851 1.543Z"/><path fill="#000001" d="m292.16 146.439 5.245 9.564 11.338-7.481-5.939-8.639z"/><path fill="#fff" stroke="#000" stroke-width=".231" d="m292.392 146.362 10.566-6.17 5.862 8.33-11.261 7.25z"/><path fill="#000001" d="m297.714 155.155 10.567-6.788-.772-1.311-5.322-7.173-3.856 3.085-4.86 2.7-.848-.54.154 1.157z"/><path fill="#fff" stroke="#000" stroke-width=".077" d="M298.331 143.045c-1.543-.771-3.394 1.543-3.857 2.006-.617.463-1.62.231-1.62.231l4.782 8.485c1.389.617 2.314-1.157 2.931-1.774 1.234-1.003 2.623-.926 2.623-.926z"/><path fill="#fff" stroke="#000" stroke-width=".077" d="M298.485 143.123c0-1.852 2.314-2.391 2.854-2.777.617-.309.771-1.466.771-1.466l5.399 8.176c-.154 1.543-2.005 1.774-2.777 2.16-1.388.771-1.542 1.928-1.542 1.928zm-1.08 10.721a464 464 0 0 0-4.705-8.485v.926c3.548 5.785 5.013 8.87 5.013 8.87z"/><path fill="#000001" d="M294.243 146.439v.154l.077-.077.154.077h-.154l.077.155.154-.155-.231.232-.155-.309h-.077l.309-.231v.154zm.308-.231.154.308v.155c-.077 0 0 0 0-.078l-.077-.077-.154-.231zm.386-.232h-.154v.078h.308v.231a.16.16 0 0 1-.077.021.16.16 0 0 1-.077-.021v.077l-.077-.077h.154c.077 0 .077-.077 0-.077h-.077l-.154-.077v-.155a.2.2 0 0 1 .077 0v-.077zm.385.155h-.154v-.077l.077-.078v-.077h-.077v.077a.16.16 0 0 1 0-.154l.154.077zm0 0v-.077l-.077.077zm.078-.309.077-.077h.077l.154.154-.077.155v-.078l-.077-.077v-.077zm0 .154h.077l-.077.155zm.231-.462.077.077h.077v.231l-.154-.154a.4.4 0 0 0 0-.154m.231 0a.15.15 0 0 1 .155 0 .15.15 0 0 1 .077.077.16.16 0 0 1 0 .154q0 .031-.023.055a.08.08 0 0 1-.054.022.08.08 0 0 1-.055-.022.08.08 0 0 1-.022-.055.16.16 0 0 1-.096-.097.16.16 0 0 1 .018-.134m0 0v.077l.155.154v-.231zm-1.234 1.542.077.154v-.077l.155.155h-.155l.078.077h.077l.077-.077v-.078.155l-.232.154v-.077l-.154-.232.232-.231v.077h-.155m.54.154-.231-.154.077-.077v.077h.154c0-.077 0-.154-.077-.077v-.077.154zm.232-.231v.154h-.155v-.154l.077-.077c0-.077-.077 0-.077 0a.16.16 0 0 1 .015-.089.16.16 0 0 1 .062-.065l.078.077.077.154zm.154-.308c.077-.078.154 0 .154 0l.077.077v.154l-.154-.154zm0 0v.308l-.077-.154-.077-.077v-.077zm.308-.232v.232h.155v.154a.3.3 0 0 1-.155 0l-.077-.077v-.077a.1.1 0 0 1-.038.01.1.1 0 0 1-.039-.01v-.155a.2.2 0 0 1 .077 0zm0 0v.154q.115 0 0 0a.2.2 0 0 0 0-.077zm.155.309s-.077 0 0 .077zm.231-.386h-.154l.077.154zm0 0a.14.14 0 0 1 0 .077h-.154a.2.2 0 0 1 0-.077c-.077 0 0-.154 0-.154a.07.07 0 0 1 .077 0 .2.2 0 0 1 .077 0zm-.077-.308.231.308h.077l-.154.077v-.077zm.308 0 .078.231v.077l-.078-.077-.077-.154zm.155-.078a.2.2 0 0 1 .077 0l.077.155a.2.2 0 0 1 0 .077q0 .031-.023.054a.076.076 0 0 1-.131-.054.157.157 0 0 1-.053-.116q0-.033.014-.063a.2.2 0 0 1 .039-.053m0 0v.232h.154v-.154zm0 0q0-.115 0 0m-1.543 1.697.077.155c0-.078-.154-.078-.154 0h.154l.154.077v.154a.15.15 0 0 1-.065.062.15.15 0 0 1-.089.015l-.154-.077h.231v-.077h-.308a.15.15 0 0 1-.039-.179.2.2 0 0 1 .039-.053.16.16 0 0 1 .154 0zm.463 0-.154.155h.154a.2.2 0 0 1 0 .077h-.154a.2.2 0 0 1-.078 0v-.232a.08.08 0 0 1 .078-.077q.031 0 .054.023a.07.07 0 0 1 .023.054zm.077-.154a.14.14 0 0 1 0 .077v.077h.154v.077a.3.3 0 0 1-.154.078l-.077-.078a.14.14 0 0 1 0-.077.073.073 0 0 1-.077 0v-.231a.14.14 0 0 1 .077 0m0 0v.154a.24.24 0 0 0 0-.154m.308-.232.155.232-.155.154-.154-.231.154.154h.078v-.077zm.232-.077v-.077h.154l.077.154-.077.155v-.155zm0 0v.309l-.154-.154v-.155zm.463-.462h-.155v.077h.309v.231a.15.15 0 0 1-.154 0v.077l-.078-.077h.155v-.077h-.232a.157.157 0 0 1-.052-.116q0-.033.014-.063a.2.2 0 0 1 .038-.052.14.14 0 0 1 .077 0v-.078zm.385.154-.077.077h-.077a.15.15 0 0 1 0-.154.15.15 0 0 1 0-.155q0-.031.023-.054a.076.076 0 0 1 .131.054v.155h.077zm0 0-.077-.077v.077zm.077-.309.077-.077h.078l.154.154-.077.155-.077-.155v-.077zm0 0v.155h.077l-.077.154v-.154l-.154-.078zm.309-.385.231-.077.077.231v.154a.15.15 0 0 1-.077.077h-.077v-.077h.077v-.154zm.54-.155.077.232-.077.154a.1.1 0 0 1-.039.01.1.1 0 0 1-.038-.01l-.155-.231h.077l.078.154h.077zm.308.078h-.154v-.232.077c-.077 0 0 0 0-.077h.154v.077h.077zm0 0v-.078l-.077.078zm.077-.309.078-.077h.077l.154.154-.077.077-.077-.077v-.077zm0 0v.154h.078l-.078.155zm-2.082 3.625a.2.2 0 0 0-.077-.021.16.16 0 0 0-.14.087.16.16 0 0 0-.014.088l.077.155h.231v-.155.078q.021.036.021.077a.15.15 0 0 1-.021.077.157.157 0 0 1-.116.052.2.2 0 0 1-.063-.014.2.2 0 0 1-.052-.038.23.23 0 0 1-.077-.309.23.23 0 0 1 .154-.077zm.463 0-.155.154v.155-.155l-.077-.308.309.231a.1.1 0 0 0 .038.011.1.1 0 0 0 .039-.011l-.154.077v-.154m0 0h-.232v.154l.155-.077zm.154-.154.077.154h.077l-.154.077v-.077l-.077-.231h-.077l.154-.154h.077c.077 0 .077.077 0 .154a.3.3 0 0 1 0 .077zm0 0 .077-.077a.076.076 0 0 0 .077-.077.08.08 0 0 0-.022-.055.08.08 0 0 0-.055-.022l-.154.077zm.463 0h-.155l-.077-.309h-.077l.077-.077v.077l.155.232zm.077-.617h-.154l.154.308h.077l-.154.155c.077 0 0-.078 0-.155l-.077-.231h-.078v.154l-.077-.077zm.308-.154h.155v.231l.077.077a.23.23 0 0 1-.155.154.15.15 0 0 1-.088-.015.15.15 0 0 1-.066-.062v-.154h-.154l.154-.154v.077l.077.154.077.077a.16.16 0 0 0 .155 0 .077.077 0 0 0 .077-.077q0-.031-.023-.054a.07.07 0 0 0-.054-.023l-.155-.154zm.54 0 .077.077-.308.154-.077-.309h-.077l.154-.077v.077l.077.232h.077l.077-.077zm.077-.386h.232a.22.22 0 0 1 .071.105.23.23 0 0 1 .006.126.23.23 0 0 1-.231.155.23.23 0 0 1-.155-.078.23.23 0 0 1 0-.231.24.24 0 0 1 .077-.077m0 0q-.031 0-.054.023a.076.076 0 0 0 .054.131.3.3 0 0 0 0 .154h.155a.15.15 0 0 0 .154-.077.3.3 0 0 0-.077-.154.15.15 0 0 0-.066-.062.15.15 0 0 0-.088-.015zm.772-.463h-.077v.54l-.309-.231h.077l.232.154v-.231s0-.078-.078 0l.078-.155zm.308.232-.154.154v-.154l-.154-.232.077-.077v.077l.154.232zm.155-.078-.078.078v-.078l-.154-.231h-.077l.154-.154v.154l.077.231zm.231-.154-.154.154v-.077l-.155-.308h-.077l.155-.077v.077l.154.231zm-3.085 3.24v-.155h.154v.078a.092.092 0 0 1 .05-.044.1.1 0 0 1 .033-.004.1.1 0 0 1 .033.009q.015.007.026.021a.1.1 0 0 1 .017.029.09.09 0 0 1-.005.066q.021.036.021.077a.15.15 0 0 1-.021.077.2.2 0 0 1-.077.077c.077-.077.077-.154 0-.154h-.077q.032 0 .054-.023a.076.076 0 0 0-.054-.131zm.308-.232v-.154l.232.309h.077l-.077.154v-.154zm.54-.385.154-.078v.309c0 .077 0 .077.077 0v.077l-.154.077v-.154l-.231-.077.077-.154v.077l.154.077zm.617 0h-.154a.155.155 0 0 1 0-.232v-.154l.231.231zm0 0v-.155h-.154v.077l.077.078zm.077-.232.155.077v-.077h.077v.154a.08.08 0 0 1-.023.055.08.08 0 0 1-.054.023.08.08 0 0 1-.078-.078.23.23 0 0 1-.077-.154.2.2 0 0 1 0-.077q0-.031.023-.054a.076.076 0 0 1 .109 0 .08.08 0 0 1 .023.054zm0 0h.155l-.078-.077s-.077 0 0 .077zm.463-.154q.021.036.021.077a.15.15 0 0 1-.021.077.076.076 0 0 1-.077.077.08.08 0 0 1-.055-.022.08.08 0 0 1-.022-.055l-.077-.077v-.154a.08.08 0 0 1 .022-.055.08.08 0 0 1 .055-.022.077.077 0 0 1 .077.077h-.077v.077a.14.14 0 0 0 0 .077q0 .032.022.055a.08.08 0 0 0 .055.022.077.077 0 0 0 .077-.077zm.077-.154.154.231h-.077l-.077-.154zm.309.077v.077h-.155v-.077a1 1 0 0 1 .078-.077.1.1 0 0 0 .01-.039.1.1 0 0 0-.01-.038zm0 0v-.077l-.077.077a.2.2 0 0 0 .077 0m.077-.463.154-.077.077.231v.155-.078zm.308 0 .155.154.077-.077v.077a.076.076 0 0 1-.077.077.08.08 0 0 1-.055-.022.08.08 0 0 1-.022-.055.14.14 0 0 1 0-.077.15.15 0 0 1-.021-.077q0-.041.021-.077h.154zm0 0h.155s0-.077-.077 0zm.309-.231c-.077.077 0 .154 0 .077zm0 0q.015 0 .029.005.015.006.025.017a.1.1 0 0 1 .017.025.1.1 0 0 1 .006.03v.077h-.154.077v-.077h-.154v-.077a.14.14 0 0 1 0-.077zm.308-.155.078.155v.077c-.078.077-.155.077-.155 0l-.154-.077v-.077l.154.154h.077zm.155-.154c-.077.077 0 .154 0 .154h.077a.1.1 0 0 1 .038-.01q.021 0 .039.01h-.231v-.077zm.462 0v.077h-.154v-.077l.077-.077a.1.1 0 0 0 .011-.039.1.1 0 0 0-.011-.038zm0 0v-.077h-.154l.077.154a.14.14 0 0 0 0-.077zm-3.239 2.7a.15.15 0 0 1 .077-.021q.041 0 .077.021a.14.14 0 0 1 0 .077q.021.036.021.077a.15.15 0 0 1-.021.077.1.1 0 0 1-.038.01.1.1 0 0 1-.039-.01.154.154 0 0 1-.154-.154.15.15 0 0 1 .077-.077m0 0a.23.23 0 0 0 .006.126.22.22 0 0 0 .071.105h.077v-.154zm.308-.232v.077h-.077.155a.08.08 0 0 1 .077.078q0 .031-.023.054a.07.07 0 0 1-.054.023v.077-.154h-.155v-.155zm.232-.154.154.231v.155-.232zm.308-.154.155.154v.077l-.155.077-.154-.077v-.154l.154.154v-.231m.386 0-.077.154h-.154a.157.157 0 0 1-.053-.116.15.15 0 0 1 .053-.115h.077v-.155h-.077zm0 0h-.154v-.077c-.077 0-.077 0 0 .077v.077h.077zm0-.232.154.155v.077h-.077l-.077-.154zm.154-.154a.2.2 0 0 1 .077-.021q.042 0 .078.021a.16.16 0 0 1 .062.065.16.16 0 0 1 .015.089.2.2 0 0 1 0 .078q0 .031-.023.054a.076.076 0 0 1-.109 0 .08.08 0 0 1-.023-.054.16.16 0 0 1-.062-.066.16.16 0 0 1-.015-.089.2.2 0 0 1 0-.077m0 0v.077c.005.06.033.115.077.155h.155v-.155h-.155zm.309-.154v.077h.154v.154h-.154.154v-.077h-.231a.08.08 0 0 1-.055-.022.08.08 0 0 1-.022-.055q0-.031.022-.055a.08.08 0 0 1 .055-.022zm.386-.309.231.309h-.309a.16.16 0 0 1 0-.154v-.078h.078zm.077.232h-.155l.078.154q.017.01.038.01a.1.1 0 0 0 .039-.01zm.231-.386.077.231v.078h-.154.077v-.232h-.077zm.154 0 .077.154.078-.077v.077a.08.08 0 0 1-.023.055.08.08 0 0 1-.055.022.077.077 0 0 1-.077-.077.2.2 0 0 1 0-.077.16.16 0 0 1 0-.154.1.1 0 0 1 .039-.01q.02 0 .038.01l-.077.154zm.232-.386.231.309v.077l-.077-.077-.154-.231zm.231.155h.154v-.077h.077v.154a.077.077 0 0 1-.077.077.07.07 0 0 1-.054-.023.07.07 0 0 1-.023-.054.16.16 0 0 1-.077-.077.2.2 0 0 1-.021-.077q0-.042.021-.078 0-.032.023-.054a.076.076 0 0 1 .131.054zm0 0 .154-.155h-.077s-.077 0 0 .078zm-2.854 2.391.077.231.077-.154a.1.1 0 0 1 .039-.01q.021 0 .039.01l.077.154h.077l-.077.154v-.154l-.077-.077h-.078v.231-.077l-.154-.231zm.54.154c-.077.077-.154.077-.154 0a1 1 0 0 1 0-.154c0 .077-.077.077-.077 0 .077 0 .077-.077.154 0zm0 0q0 .115 0 0m0 0-.077-.154v.154zm0-.309h.154a.155.155 0 0 1 0 .232c-.077 0-.077.077-.154 0l-.154-.232zm0 0 .154.155h.078v-.155zm.309-.231.154.231-.077.078v-.078l-.077-.077v-.154m.308.154h-.154v-.077a1 1 0 0 1 .077-.077h-.077l.077-.077zm0 0v-.154l-.077.077v.077zm.077-.308h.155l.077.154v.077zm0 0v.154h.077l-.077.077-.077-.154h-.077a.2.2 0 0 1 0-.077zm.617-.232a.15.15 0 0 1 0 .155.077.077 0 0 1-.077.077.07.07 0 0 1-.054-.023.07.07 0 0 1-.023-.054h-.077v-.232q0-.032.023-.054a.076.076 0 0 1 .131.054h-.077l-.077.077a.15.15 0 0 0 .015.089.15.15 0 0 0 .062.066q0 .031.023.054a.076.076 0 0 0 .131-.054zm0-.231v.309h.078l-.078.077-.077-.155v-.154zm.155 0 .154.077v-.077h.077v.154a.076.076 0 0 1-.077.077.08.08 0 0 1-.055-.022.08.08 0 0 1-.022-.055.152.152 0 0 1-.077-.154.14.14 0 0 1 0-.077.08.08 0 0 1 .022-.055.08.08 0 0 1 .055-.022.077.077 0 0 1 .077.077zm0 0a.1.1 0 0 0-.011.039q0 .02.011.038zm.231-.231.154.154v.154l-.077-.154-.077-.077zm.386 0-.077.154h-.155a.157.157 0 0 1-.052-.116q0-.033.014-.063a.2.2 0 0 1 .038-.052h.077v-.155h-.077zm0 0h-.077l-.078-.077v.154h.155zm0-.309a.2.2 0 0 1 .052-.038.15.15 0 0 1 .179.038.15.15 0 0 1 0 .154.15.15 0 0 1 0 .155.16.16 0 0 1-.154 0 .155.155 0 0 1 0-.232zm0 0v.154a.23.23 0 0 0 .154.078h.077v-.078l-.077-.077h-.077zm-.772-7.096.155.077a.12.12 0 0 0-.034-.082.12.12 0 0 0-.082-.034.12.12 0 0 0-.082.034.12.12 0 0 0-.034.082v.077h.232a.08.08 0 0 1 .065-.004q.034.011.05.043t.005.066a.1.1 0 0 1-.043.05h-.077l-.077.077v-.077h.077v-.078h-.155c-.077-.077-.077-.154 0-.154zm.155-.077.154.231h.077l-.077.077-.077-.154v-.077zm.231 0 .154.154v-.231.308zm.309-.231q0-.033.022-.055a.08.08 0 0 1 .055-.023q.032.001.054.023a.08.08 0 0 1 .023.055v.231a.15.15 0 0 1-.089-.015.15.15 0 0 1-.065-.062.08.08 0 0 1-.055-.023.08.08 0 0 1-.023-.054.08.08 0 0 1 .023-.055.08.08 0 0 1 .055-.022m0 0v.154h.154v-.077s-.077-.077-.077 0zm.231-.155v.077h.154v.155h-.077c.077 0 0-.077 0-.077h-.077zm.231-.077a.1.1 0 0 1 .039-.01q.02 0 .038.01l.078.154s-.078.078-.155 0a.14.14 0 0 1-.077 0 .077.077 0 0 1-.077-.077q0-.031.023-.054a.07.07 0 0 1 .054-.023zm0 0v.154h.155v-.077zm.077-.231v.077h.155v.154l-.077-.077zm.232 0v.154h.154l-.154.077v-.154h-.077zm.154-.077a.073.073 0 0 1 .077 0l.077.154h-.077a.16.16 0 0 1-.077.021.16.16 0 0 1-.077-.021.077.077 0 0 1-.077-.077.08.08 0 0 1 .022-.055.08.08 0 0 1 .055-.022.1.1 0 0 1 .039-.011q.02 0 .038.011m0 0v.077l.077.077h.077v-.077zm.231-.155v.077h.078s.077 0 0 .078v.077h-.078.155l-.077-.077h-.078zm-1.542 1.851c0-.077.077-.077.077 0l.077.078a.077.077 0 0 1-.077.077v.077h.077l-.077.077zm0 0h.154q0 .117 0 0v-.077zm.231-.154h.155v.077a.1.1 0 0 1-.039.011.1.1 0 0 1-.039-.011.16.16 0 0 1-.077-.077.077.077 0 0 1-.077-.077q0-.032.023-.054a.07.07 0 0 1 .054-.023q0-.031.023-.055a.08.08 0 0 1 .054-.022.08.08 0 0 1 .055.022.1.1 0 0 1 .023.055zm.232-.231v.154h.154l-.154.077v-.154h-.077zm.154 0v-.154h.154c0-.078.077 0 .077 0h-.077v.154h.077l-.077.077v-.154zm0 0 .077.154v.077-.077l-.154-.077v-.077zm.463-.154c-.077.077-.155 0-.077 0v-.078q0-.116 0 0h-.078v-.077h.078zm0 0a.2.2 0 0 0-.077 0v.077a.2.2 0 0 0 .077 0m.077-.232h.154v.155-.078zm.231-.077h.154a.08.08 0 0 1-.022.055.08.08 0 0 1-.055.022.077.077 0 0 1-.077-.077.077.077 0 0 1-.077-.077q0-.031.023-.054a.07.07 0 0 1 .054-.023.1.1 0 0 1 .039-.01q.02 0 .038.01zm0 0 .077-.077h-.077zm.386-.154v.077q0 .031-.023.055a.08.08 0 0 1-.054.022.08.08 0 0 1-.055-.022.08.08 0 0 1-.022-.055h-.078a.07.07 0 0 1-.054-.023.076.076 0 0 1 .054-.131.16.16 0 0 0 0 .154h.155v-.077zm0-.154.077.077h.077v-.077.154a.077.077 0 0 1-.077.077.077.077 0 0 1-.077-.077.15.15 0 0 1 0-.154.1.1 0 0 1-.01-.039q0-.02.01-.038a.1.1 0 0 1 .038-.011q.021 0 .039.011zm0 0c0-.077 0-.077-.077 0Zm.077-.155v.309h.077l-.154-.154zm.231 0h.155q0 .032-.023.055a.08.08 0 0 1-.054.023.08.08 0 0 1-.078-.078.14.14 0 0 1-.077 0 .077.077 0 0 1-.077-.077q0-.031.023-.054a.07.07 0 0 1 .054-.023q0-.031.023-.054a.076.076 0 0 1 .109 0 .08.08 0 0 1 .023.054zm0-.385c.078 0 .155 0 .078.077zm.155.154.077.154-.077-.077zm.154-.154v.077h.077s.077.077 0 .154h-.077.154s0-.077-.077 0h-.077zm-2.083 2.314h.155a.1.1 0 0 1-.039.01.1.1 0 0 1-.038-.01.2.2 0 0 1-.078 0 .07.07 0 0 1-.054-.023.07.07 0 0 1-.023-.054q0-.033.023-.055a.08.08 0 0 1 .054-.023.1.1 0 0 1 .039-.01q.021 0 .039.01zm0-.077c0-.078 0-.078-.077 0Zm.155-.155.077.077v.078zm0 0v.155h.077v.077l-.154-.155zm.308-.231v-.077h.154v-.077.308h.078-.078v-.077zm0 0 .077.154h-.077zm.309-.309.154.232h-.077v-.155h-.077zm.154 0v-.077h.154s.077.154 0 .154a.1.1 0 0 1 .011.039.1.1 0 0 1-.011.039v.154zm.154 0c0 .077.077.077.077 0zm.309-.077c-.077.077-.077 0-.077 0v-.154.077h-.078v-.077h.155zm0 0v-.077h-.077c0 .077 0 .154.077.077m0-.385.154.231v.077l-.154-.231zm.385.154-.077.077h-.077v-.231zm0 0-.077-.077v.154a.14.14 0 0 0 0-.077zm0-.232v-.077h.155a.16.16 0 0 1 0 .155q.01.018.01.038a.1.1 0 0 1-.01.039h-.077l-.155-.232zm0 0 .078.155h.077v-.155zm.232-.154q.115 0 0 0l.077.154v.078l-.077-.155zm.308 0v.077h-.154l.077-.154zm-2.005 1.851c-.077.077 0 .077 0 .077h.077v.155h-.077.077v-.077h-.154v-.155zm.154 0h.154v.077a.08.08 0 0 1-.022.055.08.08 0 0 1-.055.023.08.08 0 0 1-.054-.023.08.08 0 0 1-.023-.055.2.2 0 0 1 0-.077.1.1 0 0 1-.01-.038q0-.021.01-.039a.1.1 0 0 1 .039-.01q.02 0 .038.01zm.154-.231v.154h.078l-.078.077-.077-.154zm.155 0 .077.077h.077a.1.1 0 0 1-.039.01.1.1 0 0 1-.038-.01.14.14 0 0 1-.077 0 .076.076 0 0 1-.077-.077.08.08 0 0 1 .022-.055.08.08 0 0 1 .055-.022.08.08 0 0 1 .022-.055.08.08 0 0 1 .055-.022.077.077 0 0 1 .077.077zm0 0q0-.115 0 0m.308-.309.154.232-.077-.154zm.232-.077c-.077.077 0 .077 0 .077h.077v.155-.077h-.155v-.155zm.154-.077.077-.077.154.154v-.154h-.077v-.077l.077.231zm.308-.154.078.077h.077v-.077.154a.076.076 0 0 1-.077.077.08.08 0 0 1-.055-.022.08.08 0 0 1-.023-.055.16.16 0 0 1 0-.154.1.1 0 0 1-.01-.039q0-.02.01-.038a.1.1 0 0 1 .039-.011q.021 0 .039.011zm0 0c0-.077 0-.077-.077 0Zm.078-.232v.309h.077l-.155-.154zm.385 0a.09.09 0 0 1 .039.116.08.08 0 0 1-.05.043.08.08 0 0 1-.066-.004.16.16 0 0 1-.154 0 .2.2 0 0 1-.039-.052.2.2 0 0 1-.013-.064.15.15 0 0 1 .052-.116h.077v-.154zm0 0h-.077c0-.077-.077-.077-.077 0v.078h.154zm.154 0h-.077v-.154h-.077.154c0 .077.078 0 .078 0zm0 0v-.154l-.077.077s0 .077.077 0zm.232-.231q.01.018.01.039a.1.1 0 0 1-.01.038.15.15 0 0 1-.154 0 .15.15 0 0 1-.021-.077q0-.041.021-.077v-.154zm0 0v-.077h-.154l.077.154zm0-.154.154.077h.077q0 .031-.022.055a.08.08 0 0 1-.055.022.077.077 0 0 1-.077-.077.077.077 0 0 1-.077-.077.08.08 0 0 1 .022-.055.08.08 0 0 1 .055-.022.1.1 0 0 1 .039-.011q.02 0 .038.011zm0 0h.154c0-.077 0-.077-.077 0zm.231-.232v.155h.077l-.077.154v-.309m.309 0v.155l-.077-.077v-.155.077h-.078v-.077h.155zm0 0h-.077c0 .078 0 .155.077.078zm.077-.154v-.077h.154v-.077.308-.077zm.386-.154h.154v.077q0 .031-.023.055a.08.08 0 0 1-.054.022.08.08 0 0 1-.055-.022.08.08 0 0 1-.022-.055.15.15 0 0 1-.078-.077.07.07 0 0 1-.054-.023.076.076 0 0 1 .054-.131.08.08 0 0 1 .023-.055.078.078 0 0 1 .132.055zm.154-.154v-.155h.154v.155h.077v.077l-.077-.154zm0 0v.308l-.077-.154zm.154-.309v.077h.077v.155-.078h-.077a.151.151 0 0 0 0-.154m.231.077v.077h.155v-.077.155q0 .031-.023.054a.076.076 0 0 1-.109 0 .08.08 0 0 1-.023-.054.16.16 0 0 1 0-.155.1.1 0 0 1-.01-.038q0-.021.01-.039zm0 0q0-.115 0 0m-3.47 2.931h.154v-.077h.077l.077.154-.077-.077h-.077v.155h.077-.077v-.078zm.231-.385s.077 0 0 .077zm.077.154.154.154h-.077v-.077h-.077zm.231-.154-.077.077h.155v.154h-.078c.078 0 0-.077 0 0h-.077v-.231zm.386 0q.01.018.01.038a.1.1 0 0 1-.01.039.16.16 0 0 1-.154 0 .15.15 0 0 1 0-.155v-.154zm0 0c-.077 0-.154-.078-.154 0l.077.154zm0-.309.154.231-.077-.154h-.077zm.154-.077v.077h.155v.154-.077h-.155zm.386 0v.077a.076.076 0 0 1-.077.077.08.08 0 0 1-.055-.022.08.08 0 0 1-.022-.055.076.076 0 0 1-.077-.077.08.08 0 0 1 .022-.055.08.08 0 0 1 .055-.022h.077-.154a.15.15 0 0 0 .077.154h.077v-.077zm0-.231.154.231-.077-.154zm.154 0h.155v.154q.01.018.01.038a.1.1 0 0 1-.01.039h-.078v.077zm0 0 .155.154c.077 0 0-.077 0-.154zm.232-.232.154.232-.154-.155zm.077-.154.154.308-.154-.231zm.231 0a.1.1 0 0 1 .039-.01q.02 0 .038.01l.077.154-.077.077a.15.15 0 0 1-.154-.077.077.077 0 0 1-.077-.077q0-.031.023-.055a.08.08 0 0 1 .054-.022.1.1 0 0 1 .039-.01q.02 0 .038.01m0 0v.154h.154v-.077h-.154zm.232-.154v.077h.077s.077.077 0 .154h-.077.154s0-.077-.077 0h-.077zm-1.312 3.316v-.154a.1.1 0 0 1 .039-.01q.021 0 .039.01zm0 0a.1.1 0 0 1 .05-.043.08.08 0 0 1 .066.005q.032.016.043.05a.08.08 0 0 1-.004.065.16.16 0 0 1 0 .155h-.077c.077 0 0-.077 0-.155zm.463-.077-.154.154v-.308h-.077a.1.1 0 0 1 .038-.01q.021 0 .039.01h.077v.231h.077zm.309-.54.154-.077v.463-.077l-.077-.077-.232-.078.078-.154v.077l.154.077zm.54 0a.1.1 0 0 1-.006.03.1.1 0 0 1-.017.025.1.1 0 0 1-.025.016.1.1 0 0 1-.03.006l-.077-.077a.077.077 0 0 1-.077-.077q0-.031.023-.054a.07.07 0 0 1 .054-.023h.155s0 .077-.078 0c0 0-.077 0 0 .077a.2.2 0 0 0 0 .077zm.077-.231a.1.1 0 0 1 .038-.01q.021 0 .039.01l.077.077-.077.154a.154.154 0 0 1-.154-.154.1.1 0 0 1-.011-.039q0-.02.011-.038a.1.1 0 0 1 .038-.01q.021 0 .039.01m0 0v.077l.077.077h.077v-.154zm.231-.077v-.155h.077l.077.155v.077zm0 0v.154h.077v.077l-.154-.154v-.077zm.232-.232a.1.1 0 0 1 .038-.01q.021 0 .039.01l.077.155s0 .077-.077 0a.16.16 0 0 1-.155 0 .08.08 0 0 1-.054-.023.08.08 0 0 1-.023-.055q0-.031.023-.054a.07.07 0 0 1 .054-.023zm0 0v.232l.154-.077v-.078c-.077 0-.154-.077-.154 0zm.385 0a.1.1 0 0 1 .005.066.1.1 0 0 1-.017.029.1.1 0 0 1-.026.021.1.1 0 0 1-.033.009.1.1 0 0 1-.033-.004.1.1 0 0 1-.05-.044v-.077a.08.08 0 0 1-.055-.022.08.08 0 0 1-.022-.055.077.077 0 0 1 .077-.077h.077l-.154.077a.15.15 0 0 0 .077.077h.154m0-.154h.154v.077a.07.07 0 0 1-.077 0 .16.16 0 0 1-.077-.077.1.1 0 0 1-.01-.039q0-.02.01-.038a.1.1 0 0 1 .039-.01q.02 0 .038.01zm.154-.231v.154h.078v.077l-.155-.154zm.232 0v.077h.154a.077.077 0 0 1-.077.077.077.077 0 0 1-.077-.077.076.076 0 0 1-.077-.077.08.08 0 0 1 .022-.055.08.08 0 0 1 .055-.022zm0 0q0-.115 0 0m.154-.232.077.155h.077l-.077.077-.077-.155zm.154-.077v.077h.077s.078.077 0 .077v.078h-.077.155l-.078-.078h-.077zm.155-.308.231.308h-.077l-.154-.231zm.385.231c-.077.077-.154 0-.154 0l.077-.077h-.077v-.077h.154zm0 0h-.077v.077zm-3.085 2.545.154.155v-.232.309zm.231-.154.078.077h.077v-.077.154a.073.073 0 0 1-.077 0 .16.16 0 0 1-.063-.065.16.16 0 0 1-.015-.089.1.1 0 0 1-.01-.039q0-.02.01-.038a.08.08 0 0 1 .023-.055.08.08 0 0 1 .055-.022.077.077 0 0 1 .077.077zm0 0q0-.115 0 0m.232-.231v.308-.154h-.077zm.308.077a.1.1 0 0 1 .011.038.1.1 0 0 1-.011.039.16.16 0 0 1-.077.021.2.2 0 0 1-.077-.021.2.2 0 0 1-.021-.077q0-.041.021-.077v-.155zm0 0c-.077 0-.154-.077-.154 0l.077.154zm.232-.154-.077.077h-.078v-.155zm.231-.078a.1.1 0 0 1-.038.011.1.1 0 0 1-.039-.011.15.15 0 0 1-.077.021.15.15 0 0 1-.077-.021.151.151 0 0 1 0-.154h.077v-.154h-.077zm0 0-.077-.154h-.154v.077l.154.077zm.154 0h-.077q.115 0 0 0v.078zm.155-.231v-.154h-.077v-.077zm.154-.54.231.309h-.077l-.154-.232zm.386.154-.078.077v-.154h-.077v-.077h.077zm0-.231.154-.077.154.154v-.154h-.077v-.077l.077.231-.154-.077zm.385-.154h.154v.077a.077.077 0 0 1-.077.077.07.07 0 0 1-.054-.023.07.07 0 0 1-.023-.054.07.07 0 0 1-.054-.023.076.076 0 0 1 .054-.131.073.073 0 0 1 .077 0zm0 0a.1.1 0 0 0-.01.038q0 .021.01.039m.154-.232v.155h.078l-.078.154v-.077l-.077-.154zm.386 0a.09.09 0 0 1 .039.116.09.09 0 0 1-.05.043.08.08 0 0 1-.066-.004.16.16 0 0 1-.154 0 .155.155 0 0 1 0-.232h.077v-.154zm0 0h-.077c0-.077-.077-.077-.077 0v.078h.154zm.154 0h-.077v-.154h-.077v-.077h.154zm0-.077h-.077v.155a.15.15 0 0 0 .077-.078m.232-.154q.01.018.01.039a.1.1 0 0 1-.01.038.15.15 0 0 1-.154 0 .15.15 0 0 1-.021-.077q0-.041.021-.077v-.154zm0 0h-.154l.077.154h.077zm.231-.385c.154 0 .154.077.154.154 0 0-.077.154-.154.077a.16.16 0 0 1-.077-.077.1.1 0 0 1-.01-.039q0-.02.01-.038zm0 0v.308h.154l-.077-.154h-.077zm.232-.155v.077h-.078.155v.155h-.155v-.155zm-3.548 2.931v.155l.154-.078.154.155h-.077l-.077-.155h-.077v.078l.077.154h-.077l-.077-.232zm.462.077-.077.078h-.077v-.155h.077zm0-.231v.154h.077l-.077.077-.077-.154zm.309 0v.154l-.154-.077.077-.154c-.077.077-.077 0-.077 0h.077zm0 0a.3.3 0 0 0-.077 0v.077a.14.14 0 0 0 .077 0zm.077-.386.154.232h.077l-.077.077-.154-.232zm.154-.077.155.232-.078-.078v-.077zm.232 0h.154q.02.036.021.077a.16.16 0 0 1-.021.077.1.1 0 0 1-.039.011.1.1 0 0 1-.038-.011l-.232-.154v-.077zm0 0v.154h.154v-.154zm.154-.154v.154h.077l-.077.077-.077-.154zm.154 0 .077.077h.155a.08.08 0 0 1-.023.055.078.078 0 0 1-.132-.055.14.14 0 0 1-.077 0 .07.07 0 0 1-.054-.023.076.076 0 0 1 .131-.208.08.08 0 0 1 .055.022.08.08 0 0 1 .022.055zm0 0q0-.115 0 0m.232-.231v.077h.154v.154h-.077v-.077h-.077z"/></g><defs><clipPath id="a"><path fill="#fff" d="M0 0h600v300H0z"/></clipPath></defs></svg>