<svg xmlns="http://www.w3.org/2000/svg" width="600" height="300" fill="none"><g clip-path="url(#a)"><mask id="b" width="603" height="301" x="-1" y="0" maskUnits="userSpaceOnUse" style="mask-type:luminance"><path fill="#fff" d="M-.187 0h601.629v300.8H-.188z"/></mask><g fill-rule="evenodd" clip-rule="evenodd" mask="url(#b)"><path fill="#108C00" d="M0 0h600v301H0z"/><path fill="#FFD600" d="M0 105h600v29H0z"/><path fill="#FFD600" d="M234.225 0h42.74v300.8h-42.652z"/><path fill="#000001" d="M275.467 0h42.652v300.8h-42.652z"/><path fill="#000001" d="M-154.406 133.127h909.979v29.493h-909.979z"/><path fill="#fff" d="M-154 163h754v29h-754z"/><path fill="#fff" d="M318.119 0h42.741v300.8h-42.741z"/></g><path fill="#E72910" d="M215 149.87c0 46.873 37.832 84.871 84.5 84.871S384 196.743 384 149.87 346.168 65 299.5 65 215 102.998 215 149.87"/><path fill="#000" fill-rule="evenodd" d="m295.057 76.172 3.456-9.876 3.148 9.69s10.555.31 10.555.124c0-.185-8.333 6.358-8.333 6.358l3.765 10.863c-.123-.309-9.135-6.728-9.135-6.728s-9.135 6.42-8.95 6.42 3.457-10.494 3.457-10.494l-8.209-6.234 10.246-.185z" clip-rule="evenodd"/><path fill="#FFE700" fill-rule="evenodd" d="m295.55 76.604 2.901-8.457 2.715 8.395s9.197.247 9.197.123c0-.123-7.221 5.555-7.221 5.555l3.209 9.383c-.123-.31-7.9-5.802-7.9-5.802s-7.901 5.555-7.778 5.555 3.087-9.135 3.087-9.135l-7.16-5.432 8.888-.124z" clip-rule="evenodd"/><path fill="#108C00" fill-rule="evenodd" d="m296.784 78.023 1.728-4.938 1.605 4.877s5.247.123 5.247 0c0-.124-4.136 3.21-4.136 3.21l1.852 5.431c-.062-.185-4.568-3.333-4.568-3.333l-4.444 3.21c.124 0 1.728-5.247 1.728-5.247l-4.073-3.086z" clip-rule="evenodd"/><path fill="#000" fill-rule="evenodd" d="m360.731 122.342 3.456-9.876 3.086 9.69s10.617.371 10.617.186c0-.186-8.333 6.357-8.333 6.357l3.704 10.864c-.124-.309-9.074-6.728-9.074-6.728s-9.135 6.419-8.95 6.419 3.457-10.493 3.457-10.493l-8.21-6.296 10.247-.185z" clip-rule="evenodd"/><path fill="#FFE700" fill-rule="evenodd" d="m361.162 122.835 3.025-8.579 2.716 8.456s9.135.247 9.135.123c0-.123-7.222 5.556-7.222 5.556l3.272 9.32c-.124-.247-7.901-5.802-7.901-5.802s-7.901 5.555-7.777 5.555 3.024-9.135 3.024-9.135l-7.098-5.37z" clip-rule="evenodd"/><path fill="#108C00" fill-rule="evenodd" d="m362.459 124.255 1.728-4.938 1.543 4.815 5.309.123-4.198 3.148s1.976 5.555 1.852 5.432c0-.185-4.506-3.333-4.506-3.333l-4.506 3.148 1.729-5.247-4.074-3.086z" clip-rule="evenodd"/><path fill="#000" fill-rule="evenodd" d="m341.596 195.669 3.456-9.876 3.087 9.753s10.616.308 10.616.185-8.333 6.358-8.333 6.358l3.704 10.801c-.124-.308-9.074-6.666-9.074-6.666s-9.135 6.358-9.011 6.358c.123 0 3.518-10.493 3.518-10.493l-8.209-6.173z" clip-rule="evenodd"/><path fill="#FFE700" fill-rule="evenodd" d="m342.028 196.163 3.024-8.518 2.716 8.394s9.135.309 9.135.124-7.222 5.555-7.222 5.555l3.272 9.382c-.124-.309-7.901-5.802-7.901-5.802s-7.9 5.555-7.777 5.555 3.024-9.135 3.024-9.135l-7.098-5.37z" clip-rule="evenodd"/><path fill="#108C00" fill-rule="evenodd" d="m343.324 197.583 1.729-4.938 1.543 4.876s5.308.185 5.308.062c0-.124-4.197 3.21-4.197 3.21l1.851 5.37c0-.124-4.505-3.334-4.505-3.334l-4.506 3.21 1.728-5.246-4.074-3.087z" clip-rule="evenodd"/><path fill="#000" fill-rule="evenodd" d="m249.813 195.669 3.456-9.876 3.086 9.753s10.555.308 10.555.185-8.333 6.358-8.333 6.358l3.827 10.801c-.185-.308-9.135-6.666-9.135-6.666s-9.135 6.358-9.012 6.358c.124 0 3.519-10.493 3.519-10.493l-8.21-6.173z" clip-rule="evenodd"/><path fill="#FFE700" fill-rule="evenodd" d="m250.306 196.163 2.963-8.518 2.716 8.394s9.135.309 9.135.124-7.222 5.555-7.222 5.555l3.272 9.382c-.124-.309-7.901-5.802-7.901-5.802s-7.901 5.555-7.777 5.555 3.024-9.135 3.024-9.135l-7.098-5.37z" clip-rule="evenodd"/><path fill="#108C00" fill-rule="evenodd" d="m251.541 197.583 1.728-4.938 1.543 4.876s5.309.185 5.309.062c0-.124-4.198 3.21-4.198 3.21l1.852 5.37c0-.124-4.506-3.334-4.506-3.334l-4.506 3.21 1.729-5.246-4.074-3.087z" clip-rule="evenodd"/><path fill="#000" fill-rule="evenodd" d="m233.024 120.428 3.456-9.876 3.148 9.753s10.555.308 10.555.123-8.333 6.419-8.333 6.419l3.765 10.802c-.185-.309-9.135-6.666-9.135-6.666s-9.135 6.296-8.95 6.296 3.457-10.493 3.457-10.493l-8.21-6.173z" clip-rule="evenodd"/><path fill="#FFE700" fill-rule="evenodd" d="m233.517 120.922 2.963-8.518 2.777 8.395s9.074.308 9.074.123-7.222 5.555-7.222 5.555l3.272 9.382c-.124-.308-7.901-5.802-7.901-5.802s-7.901 5.555-7.716 5.555c.186 0 2.963-9.135 2.963-9.135l-7.098-5.37z" clip-rule="evenodd"/><path fill="#108C00" fill-rule="evenodd" d="m234.751 122.342 1.728-4.938 1.605 4.876 5.246.062-4.135 3.209 1.852 5.37c-.062-.123-4.568-3.333-4.568-3.333l-4.444 3.21c.123 0 1.728-5.247 1.728-5.247l-4.074-3.086z" clip-rule="evenodd"/><path fill="#000" fill-rule="evenodd" d="m340.794 99.071-3.457 9.876-3.086-9.69s-10.616-.31-10.616-.186 8.332-6.357 8.332-6.357l-3.703-10.802c.124.309 9.073 6.666 9.073 6.666s9.136-6.357 8.95-6.357-3.456 10.493-3.456 10.493l8.209 6.172z" clip-rule="evenodd"/><path fill="#FFE700" fill-rule="evenodd" d="M340.362 98.578c0 .185-3.086 8.579-3.086 8.579l-2.655-8.394s-9.135-.309-9.135-.185c0 .123 7.222-5.494 7.222-5.494l-3.271-9.382c.123.309 7.9 5.802 7.9 5.802s7.901-5.555 7.778-5.555-3.025 9.135-3.025 9.135l7.098 5.37z" clip-rule="evenodd"/><path fill="#108C00" fill-rule="evenodd" d="m339.066 97.158-1.728 4.938-1.543-4.815s-5.309-.185-5.309-.061c0 .123 4.198-3.21 4.198-3.21l-1.852-5.37c0 .124 4.506 3.333 4.506 3.333l4.506-3.21c-.124 0-1.79 5.247-1.79 5.247l4.135 3.086-5.123.124z" clip-rule="evenodd"/><path fill="#000" fill-rule="evenodd" d="m367.149 170.795-3.456 9.876-3.086-9.753s-10.617-.308-10.617-.123 8.333-6.358 8.333-6.358l-3.703-10.863c.123.308 9.073 6.666 9.073 6.666s9.135-6.358 8.95-6.358-3.457 10.493-3.457 10.493l8.271 6.235z" clip-rule="evenodd"/><path fill="#FFE700" fill-rule="evenodd" d="m366.717 170.301-3.024 8.518-2.716-8.395s-9.135-.246-9.135-.123 7.221-5.555 7.221-5.555l-3.271-9.382c.124.308 7.901 5.802 7.901 5.802s7.9-5.555 7.777-5.555-3.024 9.135-3.024 9.135l7.098 5.432z" clip-rule="evenodd"/><path fill="#108C00" fill-rule="evenodd" d="m365.421 168.881-1.728 4.938-1.543-4.876s-5.308-.123-5.308 0c0 .124 4.197-3.21 4.197-3.21l-1.852-5.431c0 .185 4.506 3.333 4.506 3.333l4.506-3.21c-.123 0-1.79 5.308-1.79 5.308l4.135 3.087z" clip-rule="evenodd"/><path fill="#000" fill-rule="evenodd" d="m301.784 223.26-3.456 9.876-3.086-9.753s-10.617-.308-10.617-.185c0 .124 8.333-6.357 8.333-6.357l-3.704-10.802c.124.309 9.074 6.666 9.074 6.666s9.135-6.357 8.95-6.357-3.457 10.493-3.457 10.493l8.209 6.234z" clip-rule="evenodd"/><path fill="#FFE700" fill-rule="evenodd" d="m301.352 222.705-3.024 8.641-2.716-8.456s-9.135-.309-9.135-.124 7.221-5.555 7.221-5.555l-3.271-9.382c.123.309 7.901 5.802 7.901 5.802s7.9-5.555 7.777-5.555-3.025 9.135-3.025 9.135l7.099 5.37-8.827.185z" clip-rule="evenodd"/><path fill="#108C00" fill-rule="evenodd" d="m300.056 221.347-1.728 4.938-1.543-4.877s-5.308-.185-5.308-.061c0 .123 4.197-3.21 4.197-3.21l-1.852-5.37c0 .124 4.506 3.333 4.506 3.333l4.506-3.209-1.729 5.246 4.074 3.086z" clip-rule="evenodd"/><path fill="#000" fill-rule="evenodd" d="m240.43 170.795-3.518 9.876-3.087-9.753s-10.616-.308-10.616-.123 8.333-6.358 8.333-6.358l-3.704-10.863c.124.308 9.074 6.666 9.074 6.666l9.073-6.296-3.518 10.493 8.209 6.234-10.246.185z" clip-rule="evenodd"/><path fill="#FFE700" fill-rule="evenodd" d="m239.936 170.301-3.024 8.518-2.716-8.395s-9.135-.246-9.135-.123 7.221-5.555 7.221-5.555l-3.271-9.382c.123.308 7.901 5.802 7.901 5.802s7.9-5.555 7.777-5.555-3.025 9.135-3.025 9.135l7.099 5.432z" clip-rule="evenodd"/><path fill="#108C00" fill-rule="evenodd" d="m238.64 168.881-1.728 4.938-1.543-4.876s-5.308-.123-5.308 0c0 .124 4.197-3.21 4.197-3.21l-1.852-5.431c0 .185 4.506 3.333 4.506 3.333l4.506-3.21-1.729 5.308 4.074 3.087z" clip-rule="evenodd"/><path fill="#000" fill-rule="evenodd" d="m263.083 100.121-3.456 9.875-3.21-9.69s-10.493-.309-10.493-.185c0 .123 8.333-6.358 8.333-6.358l-3.766-10.802c.124.309 9.074 6.667 9.074 6.667s9.135-6.358 9.012-6.358c-.124 0-3.457 10.493-3.457 10.493l8.148 6.172z" clip-rule="evenodd"/><path fill="#FFE700" fill-rule="evenodd" d="m262.588 99.627-3.024 8.641-2.716-8.456s-9.135-.308-9.135-.123 7.222-5.555 7.222-5.555l-3.272-9.383c.124.31 7.901 5.802 7.901 5.802s7.901-5.555 7.777-5.555-2.963 9.135-2.963 9.135l7.037 5.37-8.827.186z" clip-rule="evenodd"/><path fill="#108C00" fill-rule="evenodd" d="m261.293 98.27-1.728 4.937-1.543-4.876s-5.247-.185-5.247-.062 4.136-3.21 4.136-3.21l-1.852-5.37c0 .124 4.506 3.334 4.506 3.334l4.506-3.21-1.728 5.246 4.073 3.087z" clip-rule="evenodd"/><path fill="#009200" stroke="#000" stroke-width=".323" d="M304.589 189.802c2.446-.306 4.429-10.372 4.429-22.484s-1.983-21.683-4.429-21.377c-2.446.305-4.429 10.372-4.429 22.484s1.983 21.683 4.429 21.377Z"/><path fill="#009200" stroke="#000" stroke-width=".335" d="M310.251 189.476c2.621-.328 4.745-10.412 4.745-22.524s-2.124-21.665-4.745-21.338c-2.621.328-4.745 10.412-4.745 22.524s2.124 21.666 4.745 21.338Z"/><path fill="#009200" stroke="#000" stroke-width=".314" d="M308.005 192.609c2.097-.262 3.796-11.275 3.796-24.598s-1.699-23.912-3.796-23.65-3.796 11.276-3.796 24.599 1.7 23.911 3.796 23.649Z"/><path fill="#A95600" fill-rule="evenodd" stroke="#000" stroke-width=".321" d="M281.943 173.133c3.852-.193 2.183-2.118 4.109-3.21 1.925-1.027 4.686-.385 5.52.899.835 1.284.193 2.568 1.284 2.568s30.171-1.605 31.198-.578c1.027 1.091 1.284 3.21.192 4.044-1.027.899-37.809 1.926-39.093 1.027-1.284-.898-3.21-4.493-3.21-4.75Z" clip-rule="evenodd"/><path fill="#FF0" fill-rule="evenodd" stroke="#000" stroke-width=".307" d="M302.062 180.74c0 2.567 4.391 1.784 4.506 3.928-.067 2.273-7.385.225-7.568-3.928.183-4.16 7.222-6.291 7.385-3.916.116 1.964-4.333 1.348-4.333 3.916z" clip-rule="evenodd"/><path fill="#FF0" fill-rule="evenodd" stroke="#000" stroke-width=".307" d="M304.628 180.804c0 2.567 4.391 1.784 4.507 3.928-.068 2.273-7.386.225-7.569-3.928.183-4.16 7.222-6.291 7.386-3.916.115 1.964-4.333 1.348-4.333 3.916z" clip-rule="evenodd"/><path fill="#FF0" fill-rule="evenodd" stroke="#000" stroke-width=".307" d="M307.39 180.675c0 2.568 4.391 1.785 4.506 3.929-.067 2.272-7.385.225-7.568-3.929.183-4.159 7.222-6.291 7.386-3.915.115 1.964-4.334 1.348-4.334 3.915z" clip-rule="evenodd"/><path fill="#FF0" fill-rule="evenodd" stroke="#000" stroke-width=".307" d="M309.957 180.675c0 2.568 4.39 1.785 4.506 3.929-.068 2.272-7.386.225-7.568-3.929.182-4.159 7.221-6.291 7.385-3.915.115 1.964-4.333 1.348-4.333 3.915z" clip-rule="evenodd"/><path fill="#A95600" stroke="#000" stroke-width=".289" d="M322.318 188.483c1.365.025 2.491-1.079 2.515-2.465s-1.063-2.53-2.428-2.555c-1.365-.024-2.491 1.079-2.515 2.465-.024 1.387 1.063 2.53 2.428 2.555Z"/><path fill="#009200" stroke="#000" stroke-width=".374" d="M306.946 186.292c1.247-.127 2.035-2.435 1.758-5.155-.276-2.72-1.511-4.822-2.758-4.695s-2.035 2.434-1.758 5.154c.276 2.72 1.511 4.823 2.758 4.696Z"/><path fill="#009200" stroke="#000" stroke-width=".374" d="M303.171 185.966c1.247-.127 2.034-2.435 1.758-5.155s-1.511-4.822-2.759-4.696-2.034 2.435-1.758 5.155c.277 2.72 1.512 4.822 2.759 4.696Z"/><path fill="#009200" stroke="#000" stroke-width=".374" d="M300.487 181.141c1.248-.127 2.035-2.434 1.758-5.155-.276-2.72-1.511-4.822-2.758-4.695s-2.034 2.434-1.758 5.154 1.511 4.823 2.758 4.696Z"/><path fill="#009200" stroke="#000" stroke-width=".38" d="M303.255 180.262c1.174-.12 1.88-2.628 1.578-5.603s-1.499-5.291-2.672-5.171c-1.174.119-1.881 2.627-1.579 5.603s1.499 5.29 2.673 5.171Z"/><path fill="#009200" stroke="#000" stroke-width=".369" d="M308.546 180.897c1.174-.119 1.894-2.489 1.609-5.295s-1.467-4.982-2.641-4.863-1.894 2.49-1.609 5.295 1.467 4.983 2.641 4.863Z"/><path fill="#009200" stroke="#000" stroke-width=".369" d="M305.657 179.126c1.174-.119 1.895-2.489 1.61-5.295s-1.468-4.982-2.642-4.863-1.894 2.49-1.609 5.295 1.467 4.983 2.641 4.863Z"/><path fill="#009200" stroke="#000" stroke-width=".369" d="M302.044 176.59c1.174-.119 1.894-2.49 1.609-5.295s-1.467-4.983-2.641-4.863-1.894 2.489-1.609 5.295 1.467 4.982 2.641 4.863Z"/><path fill="#009200" stroke="#000" stroke-width=".369" d="M298.669 175.126c1.174-.119 1.894-2.49 1.609-5.295s-1.467-4.983-2.641-4.863-1.894 2.49-1.609 5.295 1.467 4.982 2.641 4.863Z"/><path fill="#804BFF" fill-rule="evenodd" stroke="#000" stroke-width=".321" d="M295.553 122.934s-7.511 6.419-6.484 23.687c1.156 17.332 17.011 25.356 17.011 25.356s3.98-4.943 3.338-18.937c-1.284-20.413-8.858-29.336-8.858-29.336l-5.007-.834z" clip-rule="evenodd"/><path fill="#009200" stroke="#000" stroke-width=".374" d="M311.248 186.994c1.249.098 2.437-2.032 2.651-4.757.215-2.726-.625-5.015-1.874-5.114-1.25-.098-2.437 2.032-2.652 4.758-.214 2.725.625 5.015 1.875 5.113Z"/><path fill="#009200" stroke="#000" stroke-width=".374" d="M307.592 185.998c1.249.098 2.436-2.032 2.651-4.757.214-2.726-.625-5.015-1.875-5.114-1.249-.098-2.436 2.032-2.651 4.758s.625 5.015 1.875 5.113Z"/><path fill="#009200" stroke="#000" stroke-width=".374" d="M305.814 180.771c1.25.099 2.437-2.031 2.651-4.757.215-2.726-.624-5.015-1.874-5.113s-2.437 2.031-2.651 4.757c-.215 2.726.624 5.015 1.874 5.113Z"/><path fill="#009200" stroke="#000" stroke-width=".38" d="M308.694 180.401c1.176.093 2.32-2.249 2.555-5.23.234-2.982-.529-5.473-1.705-5.566s-2.32 2.249-2.555 5.23c-.234 2.982.529 5.473 1.705 5.566Z"/><path fill="#009200" stroke="#000" stroke-width=".369" d="M313.788 181.973c1.176.092 2.309-2.111 2.53-4.922s-.553-5.165-1.729-5.257c-1.176-.093-2.309 2.111-2.531 4.921s.553 5.165 1.73 5.258Z"/><path fill="#009200" stroke="#000" stroke-width=".369" d="M311.26 179.713c1.177.093 2.309-2.111 2.531-4.922s-.553-5.164-1.73-5.257c-1.176-.092-2.309 2.111-2.53 4.922s.553 5.165 1.729 5.257Z"/><path fill="#009200" stroke="#000" stroke-width=".369" d="M308.159 176.571c1.176.093 2.309-2.111 2.53-4.922s-.553-5.164-1.729-5.257-2.309 2.111-2.53 4.922c-.222 2.811.552 5.165 1.729 5.257Z"/><path fill="#009200" stroke="#000" stroke-width=".369" d="M305.1 174.528c1.176.092 2.309-2.111 2.53-4.922.222-2.811-.553-5.165-1.729-5.257-1.176-.093-2.309 2.111-2.53 4.922s.553 5.164 1.729 5.257Z"/><path fill="#C90000" stroke="#000" stroke-width=".142" d="M317.673 172.636c3.307-1.24 2.772-10.286-1.196-20.204s-9.864-16.952-13.171-15.712-2.772 10.285 1.196 20.203 9.864 16.953 13.171 15.713Z"/><path fill="#009200" stroke="#000" stroke-width=".334" d="M306.795 139.745c1.532.026 2.792-1.064 2.816-2.436s-1.198-2.505-2.729-2.532-2.792 1.064-2.816 2.435c-.024 1.372 1.198 2.506 2.729 2.533Z"/><path fill="#009200" stroke="#000" stroke-width=".333" d="M307.689 136.229c1.34.024 2.446-1.069 2.469-2.441.024-1.372-1.042-2.503-2.382-2.526-1.34-.024-2.446 1.069-2.47 2.441s1.043 2.503 2.383 2.526Z"/><path fill="#009200" stroke="#000" stroke-width=".333" d="M304.351 136.171c1.34.024 2.446-1.069 2.47-2.441s-1.043-2.503-2.383-2.527c-1.34-.023-2.446 1.07-2.47 2.442s1.043 2.503 2.383 2.526Z"/><path fill="#009200" stroke="#000" stroke-width=".325" d="M305.643 130.678c1.416.025 2.582-.956 2.604-2.191.021-1.234-1.11-2.255-2.526-2.28s-2.582.956-2.604 2.191c-.021 1.234 1.109 2.255 2.526 2.28Z"/><path fill="#009200" stroke="#000" stroke-width=".325" d="M305.371 127.784c1.417.025 2.583-.956 2.604-2.191.022-1.235-1.109-2.255-2.525-2.28-1.417-.025-2.583.956-2.604 2.191-.022 1.234 1.109 2.255 2.525 2.28Z"/><path fill="#009200" stroke="#000" stroke-width=".333" d="M301.173 134.318c1.34.023 2.446-1.07 2.47-2.442s-1.043-2.503-2.383-2.526-2.445 1.07-2.469 2.442c-.024 1.371 1.042 2.502 2.382 2.526Z"/><path fill="#009200" stroke="#000" stroke-width=".333" d="M301.845 132.532c1.34.023 2.446-1.07 2.47-2.441.024-1.372-1.043-2.503-2.383-2.527-1.34-.023-2.446 1.07-2.469 2.442-.024 1.372 1.042 2.503 2.382 2.526Z"/><path fill="#009200" stroke="#000" stroke-width=".334" d="M299.11 131.264c1.531.027 2.792-1.063 2.816-2.435s-1.198-2.506-2.729-2.533c-1.532-.026-2.793 1.064-2.817 2.436-.023 1.372 1.199 2.505 2.73 2.532Z"/><path fill="#009200" stroke="#000" stroke-width=".325" d="M303.508 124.22c1.417.025 2.582-.956 2.604-2.19.022-1.235-1.109-2.256-2.526-2.281-1.416-.024-2.582.956-2.604 2.191-.021 1.235 1.11 2.256 2.526 2.28Z"/><path fill="#009200" stroke="#000" stroke-width=".333" d="M299.468 129.023c1.34.024 2.446-1.069 2.47-2.441s-1.043-2.503-2.383-2.526c-1.34-.024-2.446 1.069-2.469 2.441-.024 1.372 1.042 2.503 2.382 2.526ZM294.226 131.372c1.34.023 2.446-1.07 2.47-2.442.024-1.371-1.043-2.502-2.383-2.526-1.34-.023-2.446 1.07-2.47 2.442s1.043 2.503 2.383 2.526Z"/><path fill="#009200" stroke="#000" stroke-width=".333" d="M295.068 130.937c1.34.023 2.445-1.07 2.469-2.442.024-1.371-1.042-2.503-2.382-2.526s-2.446 1.07-2.47 2.442c-.024 1.371 1.043 2.502 2.383 2.526Z"/><path fill="#009200" stroke="#000" stroke-width=".333" d="M296.13 128.965c1.34.024 2.446-1.07 2.47-2.441.024-1.372-1.043-2.503-2.383-2.527-1.34-.023-2.445 1.07-2.469 2.442s1.043 2.503 2.382 2.526Z"/><path fill="#009200" stroke="#000" stroke-width=".298" d="M319.51 181.578c4.215-1.434 3.803-12.878-.92-25.561s-11.969-21.802-16.184-20.368c-4.216 1.433-3.804 12.877.92 25.56 4.723 12.683 11.969 21.803 16.184 20.369Z"/><path fill="#009200" stroke="#000" stroke-width=".305" d="M319.26 167.38c.779-.374.573-2.83-.461-5.485s-2.504-4.504-3.283-4.129c-.779.374-.572 2.83.462 5.485s2.503 4.504 3.282 4.129Z"/><path fill="#009200" fill-rule="evenodd" stroke="#000" stroke-width=".308" d="M316.384 162.293c6.334 8.741 5.379 14.169 4.592 18.753-1.938-5.366-2.95-8.736-9.284-17.477-6.333-8.742-2.955-14.665-2.442-17.833.921 2.778.801 7.816 7.134 16.557Z" clip-rule="evenodd"/><path fill="#009200" fill-rule="evenodd" stroke="#000" stroke-width=".308" d="M316.836 169.226c6.333 8.741 5.378 14.169 4.591 18.753-1.938-5.366-2.95-8.736-9.283-17.477-6.334-8.742-2.956-14.665-2.443-17.833.921 2.778.801 7.816 7.135 16.557Z" clip-rule="evenodd"/><path fill="#009200" fill-rule="evenodd" stroke="#000" stroke-width=".308" d="M317.335 174.788c6.534 8.593 5.699 14.044 5.014 18.648-2.06-5.322-3.148-8.668-9.681-17.262-6.534-8.593-3.285-14.597-2.843-17.777.984 2.757.976 7.798 7.51 16.391Z" clip-rule="evenodd"/><path fill="#009200" stroke="#000" stroke-width=".308" d="M315.735 163.38c1.528-.377 1.289-4.529-.533-9.273-1.823-4.745-4.539-8.285-6.067-7.908-1.527.378-1.288 4.529.534 9.274s4.539 8.285 6.066 7.907Z"/><path fill="#009200" stroke="#000" stroke-width=".3" d="M312.999 165.932c1.383-.217 1.365-3.558-.041-7.464-1.406-3.905-3.667-6.896-5.051-6.679-1.383.217-1.365 3.559.041 7.465s3.667 6.895 5.051 6.678Z"/><path fill="#009200" stroke="#000" stroke-width=".299" d="M308.542 168.851c1.383-.189 1.449-3.531.147-7.466s-3.478-6.971-4.862-6.782c-1.383.188-1.449 3.531-.148 7.465 1.302 3.935 3.479 6.971 4.863 6.783Z"/><path fill="#009200" stroke="#000" stroke-width=".306" d="M311.375 155c1.103-.189 1.005-2.687-.218-5.58-1.224-2.893-3.111-5.085-4.214-4.896-1.103.188-1.006 2.686.218 5.579s3.11 5.086 4.214 4.897Z"/><path fill="#009200" stroke="#000" stroke-width=".309" d="M309.165 157.852c1.129-.122 1.2-2.637.158-5.617-1.041-2.98-2.801-5.296-3.929-5.173-1.129.122-1.2 2.637-.159 5.617 1.042 2.98 2.801 5.296 3.93 5.173Z"/><path fill="#009200" fill-rule="evenodd" d="M305.1 149.338c1.807 5.151 2.476 9.762 1.489 10.295-.988.533-3.253-3.218-5.06-8.369" clip-rule="evenodd"/><path stroke="#000" stroke-width=".309" d="M305.1 149.338c1.807 5.151 2.476 9.762 1.489 10.295-.988.533-3.253-3.218-5.06-8.369"/><path fill="#009200" stroke="#000" stroke-width=".309" d="M308.979 151.869c1.129-.122 1.2-2.637.159-5.617-1.042-2.98-2.801-5.296-3.93-5.173-1.129.122-1.2 2.637-.158 5.617 1.041 2.98 2.801 5.296 3.929 5.173Z"/><path fill="#009200" stroke="#000" stroke-width=".309" d="M305.717 154.056c1.128-.095 1.241-2.61.252-5.619s-2.706-5.371-3.835-5.277-1.242 2.61-.253 5.619c.99 3.008 2.707 5.371 3.836 5.277Z"/><path fill="#009200" fill-rule="evenodd" d="M302.123 142.375c1.807 3.492 2.756 6.731 2.113 7.232s-2.628-1.93-4.435-5.422" clip-rule="evenodd"/><path stroke="#000" stroke-width=".309" d="M302.123 142.375c1.807 3.492 2.756 6.731 2.113 7.232s-2.628-1.93-4.435-5.422"/><path fill="#009200" fill-rule="evenodd" d="M303.463 140.128c1.807 3.492 2.756 6.731 2.113 7.232s-2.628-1.93-4.435-5.422" clip-rule="evenodd"/><path stroke="#000" stroke-width=".309" d="M303.463 140.128c1.807 3.492 2.756 6.731 2.113 7.232s-2.628-1.93-4.435-5.422"/><path fill="#009200" fill-rule="evenodd" d="M309.305 141.358c2.515 4.801 3.828 9.25 2.926 9.932s-3.67-2.666-6.184-7.467" clip-rule="evenodd"/><path stroke="#000" stroke-width=".309" d="M309.305 141.358c2.515 4.801 3.828 9.25 2.926 9.932s-3.67-2.666-6.184-7.467"/><path fill="#009200" fill-rule="evenodd" d="M305.487 138.032c1.807 3.841 2.755 7.407 2.112 7.961s-2.628-2.117-4.435-5.958" clip-rule="evenodd"/><path stroke="#000" stroke-width=".305" d="M305.487 138.032c1.807 3.841 2.755 7.407 2.112 7.961s-2.628-2.117-4.435-5.958"/><path fill="#804BFF" fill-rule="evenodd" stroke="#000" stroke-width=".301" d="M308.138 124.66c-1.264 1.299.041 3.558 1.232 4.335 1.335 1.088 8.895 8.219 13.999 1.695-4.19.113-12.191-8.925-15.231-6.03Z" clip-rule="evenodd"/><path fill="#804BFF" fill-rule="evenodd" stroke="#000" stroke-width=".301" d="M307.239 120.872c-1.263 1.299.041 3.559 1.233 4.336 1.335 1.087 8.894 8.219 13.999 1.694-4.191.113-12.192-8.925-15.232-6.03Z" clip-rule="evenodd"/><path fill="#804BFF" fill-rule="evenodd" stroke="#000" stroke-width=".301" d="M306.085 117.277c-1.263 1.3.041 3.559 1.232 4.336 1.336 1.087 8.895 8.219 14 1.695-4.191.113-12.192-8.926-15.232-6.031Z" clip-rule="evenodd"/><path fill="#804BFF" fill-rule="evenodd" stroke="#000" stroke-width=".301" d="M303.581 113.169c-1.263 1.299.041 3.559 1.233 4.335 1.335 1.088 8.894 8.22 13.999 1.695-4.191.113-12.192-8.925-15.232-6.03Z" clip-rule="evenodd"/><path fill="#804BFF" fill-rule="evenodd" stroke="#000" stroke-width=".313" d="M292.111 111.352c2.435-1.902 6.996-2.464 10.604-.568 3.01 1.519 8.097 7.669 11.846 9.126a8.5 8.5 0 0 1-3.016.144 8.5 8.5 0 0 1-2.877-.92c-3.244 2.475-4.405 2.832-7.772 3.323-4.653.676-8.57-.593-9.98-3.12-1.467-2.383-.961-6.207 1.195-7.985Z" clip-rule="evenodd"/><path fill="red" stroke="#000" stroke-width=".289" d="M299.225 115.504c1.258.022 2.288-.521 2.3-1.212s-.998-1.269-2.256-1.291c-1.259-.022-2.289.52-2.301 1.212-.012.691.999 1.269 2.257 1.291Z"/><path fill="#FF0" stroke="#000" stroke-width=".319" d="M293.681 121.061c1.663-.632 2.705-1.927 2.327-2.892-.377-.965-2.032-1.235-3.695-.603-1.664.632-2.706 1.927-2.328 2.892s2.032 1.235 3.696.603Z"/><path fill="#000" d="M295.621 118.972a.744.744 0 1 0 .026-1.488.744.744 0 0 0-.026 1.488"/><path fill="#FF0" fill-rule="evenodd" stroke="#000" stroke-width=".379" d="M296.64 115.834c.266.929-.469 2.2-2.172 2.663-1.732.648-2.996 2.095-3.653 4.456-2.937-5.351-1.344-7.64 1.465-8.207 2.414-.698 3.889-.621 4.36 1.088Z" clip-rule="evenodd"/><path fill="#000" d="M289.426 121.548a.604.604 0 1 0 .02-1.208.604.604 0 0 0-.02 1.208"/></g><defs><clipPath id="a"><path fill="#fff" d="M0 0h600v300H0z"/></clipPath></defs></svg>