<svg xmlns="http://www.w3.org/2000/svg" width="600" height="300" fill="none"><g clip-path="url(#a)"><path fill="#fff" d="M0 204h600v13.5H0zM0 82.5h600V96H0z"/><path fill="#0087FF" d="M0 217.5h600V300H0zM0 0h600v82.5H0z"/><path fill="red" d="M0 181.5h600V204H0z"/><path fill="#000001" d="M0 96h600v22.5H0z"/><path fill="#FF0" d="M0 129h600v42H0z"/><path fill="#008300" d="M0 171h600v10.5H0zM0 118.5h600V129H0z"/><path fill="#fff" stroke="#000" stroke-width="1.125" d="M299.578 99a45.003 45.003 0 0 0-31.895 76.673l-19.239 6.188 1.744 4.388-6.188 1.35L248.5 202h102.156l4.444-14.401-6.187-1.35 1.743-4.444-19.238-6.132a45 45 0 0 0 12.19-23.015 45 45 0 0 0-19.122-46.048A45 45 0 0 0 299.578 99Z"/><path fill="#008300" d="m249.457 187.824 3.937 12.713h92.368l3.882-12.713z"/><path fill="#fff" d="m251.932 189.455 2.869 9.451H344.3l2.869-9.451h-95.237"/><path fill="#000" d="M258.239 195.022q0 .31-.064.595a1.2 1.2 0 0 1-.223.477 1.06 1.06 0 0 1-.425.333 1.7 1.7 0 0 1-.681.119 1.9 1.9 0 0 1-.638-.095 2 2 0 0 1-.457-.238l.287-.75q.159.107.351.178.18.084.393.084.319 0 .458-.179.138-.167.138-.583v-2.798h.861zm2.339 1.524q-.414 0-.702-.119a1.3 1.3 0 0 1-.489-.357 1.5 1.5 0 0 1-.287-.536 2.7 2.7 0 0 1-.085-.69v-2.679h.861v2.583q0 .263.054.441a.9.9 0 0 0 .148.297q.086.12.213.167a.9.9 0 0 0 .298.048.65.65 0 0 0 .51-.215q.191-.213.191-.738v-2.595h.872v2.679q0 .369-.106.69a1.5 1.5 0 0 1-.276.548 1.3 1.3 0 0 1-.5.345 1.9 1.9 0 0 1-.702.119zm3.424-4.381q.107.202.234.512l.276.643.277.714.265.69.256-.69.276-.714.276-.643a6 6 0 0 1 .234-.512h.787l.106.952.075 1.107q.042.571.064 1.155l.053 1.084h-.84l-.043-1.369-.085-1.489-.212.584-.256.631q-.106.32-.223.607l-.191.488h-.606l-.181-.488-.234-.607-.244-.631-.213-.584q-.064.75-.085 1.489l-.043 1.369h-.85l.053-1.084.064-1.155.085-1.095.106-.964zm5.465 4.381q-.404 0-.702-.119a1.3 1.3 0 0 1-.489-.357 1.5 1.5 0 0 1-.287-.536 2.7 2.7 0 0 1-.085-.69v-2.679h.861v2.583q0 .263.053.441a.9.9 0 0 0 .149.297q.096.12.213.167a.9.9 0 0 0 .297.048.65.65 0 0 0 .511-.215q.19-.213.191-.738v-2.595h.872v2.679q0 .369-.106.69a1.5 1.5 0 0 1-.277.548 1.3 1.3 0 0 1-.499.345 1.9 1.9 0 0 1-.702.119zm2.403-4.381h.872v4.298h-.862zm3.168 1.762.447-.881q.212-.44.383-.881h.957q-.32.69-.66 1.345t-.712 1.31v1.643h-.861v-1.631a31 31 0 0 1-.723-1.31 39 39 0 0 1-.66-1.357h1.011q.17.44.382.881zm4.275 2.536-.139-.453-.149-.476h-1.488l-.16.476-.127.453h-.915l.415-1.286.372-1.107.372-.988q.182-.477.372-.917h.83q.19.44.372.917l.361.988.383 1.107.415 1.286zm-1.042-3.334a1.5 1.5 0 0 1-.086.262l-.127.369-.16.476-.17.524h1.095l-.17-.536-.159-.464-.128-.357zm5.199.798.446-.881q.213-.44.383-.881h.957q-.32.69-.649 1.345-.339.655-.723 1.31v1.643h-.85v-1.631l-.723-1.31a29 29 0 0 1-.649-1.357h1l.382.881zm4.274 2.536-.138-.453-.149-.476h-1.489l-.148.476-.139.453h-.893l.404-1.286.383-1.107.362-.988q.18-.477.382-.917h.819q.192.44.372.917l.372.988.383 1.107.404 1.286zm-1.031-3.334-.085.262-.128.369-.159.476-.171.524h1.085l-.17-.536-.16-.464-.127-.357zm6.358 3.334-.138-.453-.149-.476h-1.489l-.149.476-.138.453h-.893l.404-1.286q.192-.595.383-1.107l.361-.988q.181-.477.373-.917h.829q.19.44.372.917l.361.988.383 1.107.415 1.286zm-1.042-3.334-.075.262-.127.369-.16.476-.18.524h1.095l-.17-.536-.16-.464-.127-.357zm2.467 3.334v-4.298h2.573v.809h-1.701v.905h1.509v.81h-1.52v1.786zm4.306-4.346q.86 0 1.318.346.468.345.468 1.071 0 .453-.191.738a1.3 1.3 0 0 1-.532.441l.245.357.244.44.245.476.212.477h-.957l-.223-.429-.213-.417-.233-.392-.213-.334h-.425v1.572h-.872v-4.239q.286-.059.585-.083l.531-.024zm.053.822h-.191l-.139.024v1.166h.245q.489 0 .702-.143.212-.13.212-.464 0-.321-.212-.44-.213-.143-.638-.143zm2.52-.774h.861v4.298h-.861zm4.019 4.298a6 6 0 0 0-.277-.453l-.35-.488a6.148 6.148 0 0 0-.777-.881v1.822h-.871v-4.298h.871v1.619q.341-.393.67-.821l.638-.798h1.032a23 23 0 0 1-.798 1q-.393.488-.829.976.457.429.882 1.024.436.595.83 1.31zm4.221 0-.128-.453-.148-.476h-1.489l-.159.476-.128.453h-.904l.415-1.286.372-1.107.372-.988q.182-.477.372-.917h.83q.19.44.372.917l.361.988.383 1.107.415 1.286zm-1.031-3.334-.075.262-.127.369-.17.476-.171.524h1.096l-.171-.536-.159-.464-.128-.357zm4.816-.964q.106.202.223.512l.277.643.276.714.266.69.255-.69.277-.714.276-.643a6 6 0 0 1 .234-.512h.787l.106.952.075 1.107q.042.571.063 1.155l.054 1.084h-.84l-.043-1.369-.085-1.489-.213.584-.255.631a10 10 0 0 1-.223.607l-.191.488h-.606l-.181-.488-.234-.607-.245-.631-.212-.584q-.064.75-.085 1.489l-.043 1.369h-.851l.054-1.084.063-1.155.085-1.095.107-.964zm6.528 4.298-.148-.453-.139-.476h-1.499l-.149.476-.138.453h-.893l.404-1.286.383-1.107.361-.988q.181-.477.383-.917h.819q.19.44.372.917.192.475.372.988l.383 1.107.404 1.286zm-1.041-3.334-.086.262-.127.369-.16.476-.17.524h1.085l-.17-.536-.16-.464-.127-.357zm3.615 2.596q.18 0 .297-.036a.8.8 0 0 0 .192-.084.5.5 0 0 0 .106-.142.7.7 0 0 0 .021-.179.44.44 0 0 0-.181-.357q-.17-.143-.606-.298l-.382-.166a2 2 0 0 1-.33-.239 1.3 1.3 0 0 1-.245-.357 1.15 1.15 0 0 1-.106-.512q0-.297.106-.535a1.21 1.21 0 0 1 .734-.667 1.9 1.9 0 0 1 .585-.083q.382 0 .67.083.276.096.468.214l-.256.762a2 2 0 0 0-.361-.166 1.3 1.3 0 0 0-.468-.072q-.319 0-.446.095-.14.096-.139.298 0 .119.053.19a.7.7 0 0 0 .139.155l.212.119.266.107q.298.12.521.239.212.118.362.285.148.166.223.381t.074.524q0 .595-.382.941-.373.321-1.127.321a3 3 0 0 1-.468-.036 1.6 1.6 0 0 1-.362-.083l-.276-.095-.181-.119.245-.762a1.9 1.9 0 0 0 1.042.274m4.486-3.56h.872v4.298h-.872v-1.822h-1.446v1.822h-.871v-4.298h.871v1.631h1.446zm4.317 4.298-.127-.453-.149-.476h-1.489l-.159.476-.128.453h-.904q.213-.691.426-1.286.18-.595.372-1.107l.361-.988q.181-.477.372-.917h.83q.19.44.372.917l.361.988.383 1.107.415 1.286zm-1.031-3.334-.075.262-.127.369-.17.476-.17.524h1.095l-.17-.536-.16-.464-.127-.357zm3.583-1.012q.872 0 1.329.346.457.345.457 1.071 0 .453-.18.738a1.4 1.4 0 0 1-.532.441l.244.357.245.44.245.476.212.477h-.957l-.223-.429-.223-.417-.213-.392-.234-.334h-.425v1.572h-.861v-4.239q.276-.059.574-.083zm.053.822h-.159l-.139.024v1.166h.245q.489 0 .702-.143.213-.13.212-.464 0-.321-.212-.44-.213-.143-.638-.143zm2.52-.774h.872v4.298h-.872zm4.019 4.298a3.4 3.4 0 0 0-.276-.453 6 6 0 0 0-.341-.488 6 6 0 0 0-.382-.476 5 5 0 0 0-.404-.405v1.822h-.851v-4.298h.851v1.619q.34-.393.68-.821l.638-.798h1.021q-.394.523-.787 1-.393.488-.829.976.457.429.882 1.024.426.595.829 1.31zm1.531-4.298h.851v4.298h-.851z"/><path fill="#008300" fill-rule="evenodd" d="m249.457 187.824 5.85-1.575-1.8-3.206 10.069-3.769v3.431h3.094v5.232h-16.876z" clip-rule="evenodd"/><path fill="#fff" fill-rule="evenodd" d="M265.208 187.937h-12.264l12.264-3.319zm-2.701-5.176h-5.456l5.625-2.137zm-7.144.9 1.238 2.25 8.157-2.25z" clip-rule="evenodd"/><path fill="#008300" fill-rule="evenodd" d="m349.644 187.824-5.85-1.575 1.8-3.206-10.07-3.769v3.431h-3.094v5.232h16.877z" clip-rule="evenodd"/><path fill="#fff" fill-rule="evenodd" d="M333.893 187.937h12.264l-12.264-3.319zm2.701-5.176h5.456l-5.625-2.137zm7.144.9-1.238 2.25-8.156-2.25z" clip-rule="evenodd"/><path fill="#FF0" stroke="#000" stroke-width=".675" d="M298.509 104.344a39.828 39.828 0 0 0-13.332 76.842v-4.388a35.724 35.724 0 0 1-20.564-39.932 35.73 35.73 0 0 1 12.335-20.38 35.73 35.73 0 0 1 22.405-8.092h.282a35.725 35.725 0 0 1 34.94 28.362 35.72 35.72 0 0 1-20.54 40.042v4.388a39.767 39.767 0 0 0 10.966-67.7 39.78 39.78 0 0 0-25.423-9.142z"/><path fill="#fff" fill-rule="evenodd" stroke="#000" stroke-width=".506" d="m310.492 172.805.056 5.962c-3.6.563-7.594 4.276-8.663 4.951-1.069.731-2.813 2.137-3.769 2.025-1.631-.225-.45-1.519-.45-1.519s-1.125 1.35-1.913.731c-.787-.506.45-1.518.45-1.518s-.393.562-1.237.281c-.788-.225-.225-1.125-.225-1.125s-2.138 1.125-2.532.731c-.562-.731.225-1.406.225-1.406l5.007-4.219c2.756-1.125 3.544.45 4.782.337a15.7 15.7 0 0 0 5.737-2.869c.957-.956.675-1.969 1.407-2.25.731-.281 1.125-.112 1.125-.112Z" clip-rule="evenodd"/><path fill="#fff" fill-rule="evenodd" stroke="#000" stroke-width=".45" d="m288.553 173.255-.056 5.512c3.375.45 7.144 4.051 8.156 4.726.957.619 2.644 1.687 3.544 1.575 1.463-.169 1.125-.731 1.125-.731s.675.337 1.575 0c.901-.338.45-.957.45-.957s1.351.394 1.913-.337c.563-.619-.562-1.294-.562-1.294s.562-.394-.338.112c-.9.45-2.7-1.575-4.5-1.687-1.857 0-2.025 1.8-3.15.956-1.182-.9.9-2.363 1.631-2.588 2.869-.956 5.569.225 2.081-1.125-1.8-.675-3.206.619-4.387.563-1.238-.056-4.276-1.688-5.063-2.588-.9-.9-.675-1.8-1.35-2.081-.675-.225-1.069-.113-1.125-.056z" clip-rule="evenodd"/><path stroke="#000" stroke-width=".45" d="m303.404 183.38-2.419-1.012m.619 2.081-2.813-1.688"/><path fill="#008300" fill-rule="evenodd" stroke="#000" stroke-width=".225" d="M283.94 170.386c-6.976 3.375-7.313-5.513-10.463-5.4 5.906-3.938 4.95 3.375 10.463 5.4Zm-2.7-9.788c-3.488 6.356 4.669 7.2 4.387 10.294 3.994-5.4-2.812-4.95-4.387-10.294Z" clip-rule="evenodd"/><path fill="#008300" fill-rule="evenodd" stroke="#000" stroke-width=".225" d="M277.865 163.073c-8.607 1.462-6.244-5.963-9.844-6.582 7.594-2.25 4.331 3.488 9.844 6.582Z" clip-rule="evenodd"/><path fill="#008300" fill-rule="evenodd" stroke="#000" stroke-width=".225" d="M276.965 154.297c-4.726 5.569 2.081 5.85 1.293 8.776 4.894-4.501-.168-4.332-1.293-8.776Zm-4.951 1.013c-8.55-1.238-3.15-9.957-5.738-11.814 7.032.507 2.476 8.157 5.738 11.814Z" clip-rule="evenodd"/><path fill="#008300" fill-rule="evenodd" stroke="#000" stroke-width=".225" d="M275.277 144.284c-7.876 3.769.056 7.819-3.038 11.251 7.763-.394.9-5.457 3.038-11.138zm-4.388.281c-9.169-4.162.394-12.038-1.238-14.907 6.245 6.357-3.262 8.719 1.238 14.907Z" clip-rule="evenodd"/><path fill="#008300" fill-rule="evenodd" stroke="#000" stroke-width=".225" d="M276.739 133.99c-7.875 1.012-3.937 8.269-5.569 10.857 6.188-1.407 1.238-5.063 5.626-10.857zm-3.825-2.194c-4.444-6.75 2.982-8.269 3.488-11.701 2.138 8.888-2.925 6.019-3.488 11.701Z" clip-rule="evenodd"/><path fill="#008300" fill-rule="evenodd" stroke="#000" stroke-width=".225" d="M281.802 126.171c-7.313-2.082-5.963 5.287-8.438 7.031 6.188 1.013 4.894-4.894 8.438-7.031Zm-3.375-3.151c-1.463-5.85 1.463-4.894 4.782-7.481 1.8 4.725-2.644 4.162-4.782 7.481Zm9.338-.9c-5.625-4.162-6.244 1.463-9.169 2.25 5.4 3.207 5.625-1.575 9.169-2.193zm-3.375-2.812c.169-2.532 3.544-5.851 7.032-4.726-.169 4.219-4.219 5.288-7.032 4.782zM315.16 170.386c6.976 3.375 7.313-5.513 10.464-5.401-5.907-3.937-4.951 3.376-10.464 5.401Zm2.701-9.788c3.487 6.356-4.669 7.2-4.388 10.294-3.994-5.4 2.812-4.95 4.388-10.294Z" clip-rule="evenodd"/><path fill="#008300" fill-rule="evenodd" stroke="#000" stroke-width=".225" d="M321.236 163.073c8.607 1.462 6.244-5.963 9.845-6.582-7.595-2.25-4.332 3.488-9.845 6.582Z" clip-rule="evenodd"/><path fill="#008300" fill-rule="evenodd" stroke="#000" stroke-width=".225" d="M322.136 154.297c4.725 5.569-2.081 5.851-1.294 8.776-4.894-4.501.169-4.332 1.294-8.776Zm4.95 1.013c8.551-1.238 3.151-9.957 5.738-11.813-7.031.506-2.475 8.156-5.738 11.813Z" clip-rule="evenodd"/><path fill="#008300" fill-rule="evenodd" stroke="#000" stroke-width=".225" d="M323.824 144.284c7.875 3.769-.056 7.819 3.037 11.251-7.763-.394-.9-5.457-3.037-11.138zm4.388.281c9.169-4.162-.394-12.038 1.237-14.907-6.244 6.357 3.263 8.72-1.237 14.907Z" clip-rule="evenodd"/><path fill="#008300" fill-rule="evenodd" stroke="#000" stroke-width=".225" d="M322.361 133.99c7.876 1.012 3.938 8.269 5.569 10.857-6.188-1.407-1.237-5.063-5.625-10.857zm3.825-2.194c4.444-6.751-2.981-8.269-3.487-11.701-2.138 8.888 2.925 6.019 3.487 11.701Z" clip-rule="evenodd"/><path fill="#008300" fill-rule="evenodd" stroke="#000" stroke-width=".225" d="M317.298 126.171c7.313-2.082 5.963 5.287 8.438 7.031-6.188 1.013-4.894-4.894-8.438-7.031Zm3.376-3.151c1.462-5.85-1.463-4.894-4.782-7.481-1.8 4.725 2.644 4.162 4.782 7.481Zm-9.339-.9c5.626-4.162 6.245 1.463 9.17 2.25-5.401 3.207-5.626-1.575-9.17-2.193zm3.376-2.812c-.169-2.532-3.544-5.851-7.032-4.726.169 4.219 4.219 5.288 7.032 4.782z" clip-rule="evenodd"/><path fill="#000" d="m292.667 111.992.336 1.971 1.048-.21a.74.74 0 0 0 .545-.21q.189-.188.126-.629h.126l.294 1.678h-.126l-.168-.419-.252-.168h-.461l-1.09.209.251 1.636.126.42.126.041h.252l.838-.125.588-.168.335-.294c.126-.167.252-.419.336-.755h.167l-.209 1.259-3.775.671-.042-.126h.168l.293-.168c.084-.084.126-.126.126-.21v-.503l-.587-3.187c0-.294-.084-.504-.168-.546a.55.55 0 0 0-.461-.083h-.168v-.084l3.775-.671.21 1.09h-.126a1.7 1.7 0 0 0-.252-.503l-.335-.168a1.7 1.7 0 0 0-.504 0zm7.214 2.39h-1.929l-.336.797a1.3 1.3 0 0 0-.126.419c0 .084.042.168.126.21.084.084.21.084.461.126v.126h-1.551v-.126c.209 0 .335-.084.419-.126l.419-.755 1.678-4.11h.168l1.761 4.152q.189.504.378.629c.126.126.251.168.461.168v.168h-1.971v-.126c.21 0 .335-.042.419-.126.084-.042.084-.126.084-.21s0-.251-.126-.503zm-.084-.293-.839-2.013-.881 2.055zm7.465-2.307-.167 1.678h-.126a2.13 2.13 0 0 0-.42-1.175 1.68 1.68 0 0 0-.964-.503 1.7 1.7 0 0 0-.923.084c-.33.133-.609.368-.797.671-.209.335-.335.797-.419 1.342a2.9 2.9 0 0 0 0 1.174c.084.378.251.671.503.839.252.252.587.419.965.461.293.042.587.042.839-.042.293-.083.587-.335.964-.671l.126.084c-.336.42-.671.671-1.049.839-.377.126-.754.168-1.258.084-.797-.168-1.384-.545-1.677-1.258a2.64 2.64 0 0 1-.252-1.678c.084-.461.252-.923.545-1.258.294-.419.671-.671 1.091-.839a2.35 2.35 0 0 1 2.348.336l.168.126.21-.042.168-.252z"/><path fill="red" d="M298.228 121.051c-.562 0-1.125.113-1.631.225a7.3 7.3 0 0 1-3.938 3.263l-.338.113a7.53 7.53 0 0 1-5.456.168 23.3 23.3 0 0 0-4.275 3.657 7.37 7.37 0 0 1-1.125 5.344 7.54 7.54 0 0 1-4.051 3.6c-.562 1.8-.9 3.713-.956 5.625 1.125.844 2.081 2.476 2.475 4.444l.113.394c.393 2.138 0 4.163-.788 5.344a23.5 23.5 0 0 0 2.813 4.894c1.35-.112 3.15.563 4.725 1.744l.281.281c1.688 1.407 2.701 3.151 2.813 4.613 1.744.9 3.544 1.575 5.457 1.969 1.012-.956 2.812-1.687 4.837-1.687h.394c2.194 0 4.107.675 5.175 1.687 1.913-.394 3.713-1.125 5.401-1.969a7.43 7.43 0 0 1 2.812-4.669 7.66 7.66 0 0 1 5.063-1.969 22.7 22.7 0 0 0 2.813-4.781 7.3 7.3 0 0 1-.844-5.007v-.337c.45-2.194 1.463-3.938 2.644-4.838a23 23 0 0 0-.956-5.625 7.32 7.32 0 0 1-3.825-3.319l-.225-.338c-1.126-1.912-1.463-3.938-1.126-5.344a22 22 0 0 0-4.444-3.769 7.3 7.3 0 0 1-5.062 0l-.394-.169a7.6 7.6 0 0 1-4.275-3.375c-.9-.112-1.857-.169-2.813-.169h-1.35z"/><path fill="#FBF014" stroke="#000" stroke-width=".225" d="M319.324 144.059a19.777 19.777 0 0 1-19.774 19.773 19.772 19.772 0 1 1 0-39.546 19.77 19.77 0 0 1 19.774 19.773Z"/><path fill="#FBF014" stroke="#000" stroke-width=".225" d="M317.636 144.059a18.115 18.115 0 0 1-36.227 0 18.113 18.113 0 1 1 36.227 0Z"/><path fill="#0087FF" fill-rule="evenodd" stroke="#000" stroke-width=".225" d="m294.178 135.171 5.963 1.069-.787 5.963-5.063 3.487-2.813-3.094.169-4.894z" clip-rule="evenodd"/><path fill="#fff" fill-rule="evenodd" stroke="#000" stroke-width=".225" d="m292.491 139.559-2.363.112h-.225v.113h-.056l-.057.168-.225.113v.112l-.168.113-.225.112h-.057l-.056-.225h-.337l-.169.057v-.282l-.056-.056v-.562h.112v-.507l.056-.112v-.113l.169-.169.169-.056v-.168l.056-.169.056-.057-.056-.112-.169.112-.168-.112v-.338l.168-.112.057.056.112-.45.169-.169-.113-.281.113-.169-.056-.225.506-.168v-.169l.056-.225.225-.056.169-.113.112.281v.169h.113l.112-.225.113-.056v-.169l.337-.394.113-.112.225-.113h.225l.169-.225v-.225h.112l.113-.112-.056-.169v-.394h-.113v-.112l-.112.168-.113-.056v-.169h-.338l-.112-.225-.113.057v.168l-.112-.056v-.225h-.225l.056-.225.225-.394v-.225l-.225-.225.169-.45.225-.225v-.281l-.169.056.225-.281.394-.169h.225l.338.225.112-.056h.169l.281-.225.281.225v.169h.225l.057.112h.168v-.168l.394-.169.563-.056.506-.282.281.225h.619l.956-.844 2.926.676-.169 5.062-3.038 1.688-.169-.113-.056.057h-.056v-.282h-.169v.338h-.225l-.225-.113v-.112h.225v-.056l-.169-.057h-.168v-.112l.168-.113v-.056l-.168.113-.113-.057-.113.057.113.168-.169.113v.112l-.225-.056v.113h.113l-.338.225-.112-.113v-.056l-.169.112h-.225v-.056l.225-.056-.056-.056h-.169v-.169l-.056.169h-.113v.281h-.225l-.056-.113s-.169 0-.113.113v.169l-.168-.113h-.113v.169h-.112l-.225-.113.112.169h-.225l-.112.056.112.113.056.113.113.112-.056.056h-.057l-.168.169h-.113l-.056.169-.113.056.057.113h.056v.112h-.056l-.225.225v.056h.168z" clip-rule="evenodd"/><path fill="#fff" fill-rule="evenodd" stroke="#000" stroke-width=".225" d="m296.541 139.615 6.469 3.544.056.506-.225.113.056.225.225.056.057.225 2.531 1.8.169-.113.225.113.056-.225.169-.169.281-.619-.169-.056.113-.225h.112l.225-.281v-.225l-.112-.169.169.056.225-.506.225-.056.056-.394.112-.113s-.112-.45 0-.618c.169-.169.732-.169.732-.169l.337-.394v-.112l.225-.169-.225-.394.45.113.338-.113h.225l.337-.45v-.169l-1.068-1.35v-6.581l.618-.563 1.013-1.406-.281-.113-1.013.113-.281-.338h-.113l-.056-.225-.225-.112-1.688.787-.056.281-.394.338v.225h-.112l-.113-.056-1.743-.394-.113.113h-.562l-2.082-1.519h-1.519l-.337-.113v-.169h-2.813l-.562.563.112.731h.281l.113.338h.281l-.056.337h-.056v.394l.112.169.169.112v.282l.337.168.057.394.225.113v.168l-.113.225.225.338-.056.225.112.281v.113l-.056.337-.169.113-.056.225h-.112v.45h-.282l-.112.169-.169-.057v.394l-.169.225h-.168v.169l-.225.112-.057.282v.281l-.281.112v.507l.169.056h.112l-.056.169.169.056.112.281.225-.169v-.168h.282l.337-.169.113.225.112.169h-.225l-.056.112h-.169l-.281-.056v.112l.112.113-.168.112-.057-.112-.168.056h-.113l-.169-.112v.225h-.112l-.113.281.169.169.169.112-.169.225zm9.9 12.263.225-.169v-.112h.225l.113-.282v.282l-.113.112v.169h-.112v.169l-.056-.113zm-.675-3.15v-.394l-.056-.056.225-.169v-.225l.281-.112v.225h-.168v.337l.112.169v.169l.169.112.169.225v.169l-.169.056-.225-.281-.225.056zm.844-1.463v-.225l.113-.225-.169-.45h.225l.056.225h.113v-.169s.112-.056.112 0l-.056.507.056.225-.112.168-.169.169z" clip-rule="evenodd"/><path fill="#fff" fill-rule="evenodd" stroke="#000" stroke-width=".225" d="m307.904 156.378-.731.563-1.013.45-.281.169h-.506l-.394.112-.225.113-.281.281-.45-.281h-.563l-.168.168v.282l-.394.168h-.169l-.169.113-.562-.056-.225-.225-.282.056-.45.337-.225-.056v-.112h-.168l-.113.112-.281-.056v-.225h-.169l-.225-.338h-.281l-.056.169-.225.169-.225-.056h-.844l-.225-.394h-.225l-.225-.563v-.281l.112-.112v-.338l-.225-.169.056-.562-.056-.113-.056-.225-.394-.393v-.169l-.45-.338h-.169v.338l-.225-.057-.112-.168-.563.112-.225-.281-.281.056-.225-.169h-.281l-.225-.225h-.507l-.112-.337h-.338l-.112-.056h-.394v-.169l-.45-.056-.225-.169v-.281l-.337-.169-.282.056-.112-.337-.281-.225-.057-.338-.393-.562v-.225l-.226-.225v-.451l-.168-.225v-.225h.112v-.168l-.281-.225-.113-.225-.45-.338h-.337l-.394-.45v-.225l.169-.225h.225l.056-.169v-.168l-.394-.563v-.281l.169-.113-.056-.337-.338-.338v-.337l.057-.282v-.112l.337-.113.169-.112.169-.169v-.169l.337-.112v-.169l.281-.337v-.169l.169-.281.394-.169v-.113l.281-.168v-.563l-.112-.056h-.169l-.169-.056h-.281v-.169l.169-.225-.113-.113.169-.337.563-.057v-.393l.056-.169-.225-.281v-.563l-.113-.169v-.168l-.281-.169-.225-.394h.337l.169-.169h1.969l.056.169v.225l-.112.281-.056.169v.113l-.057.225v.225l-.112.112v.169l-.113.112h.169v.282l-.112.225h.45l-.169.337-.056.225.056.338.225-.225.169.169v-.282l.056-.225.225.113.056-.113-.112-.225.225-.225.225.281.168.057.113.281.169-.338.056.225h.225v.226l.169.225-.225.112v.281h.168v-.281h.225l-.112-.281-.056-.225.225-.338h.225l.112.281h.394l.338-.337.45-.169-.113-.281h-.112l-.169.169-.506-.057-.169-.112-.113.112h-.168l-.451-.168v-.169l-.112-.056.225-.113.112.169h.113l.169-.056.225.168.337-.056v-.169l-.225-.056v-.169h.394l.056-.112.282-.113-.169-.225v-.112l.562.112-.281-.225.056-.225.338.225v-.112l-.225-.169.337-.337 6.526 3.544.056.506-.225.169v.225h.281v.225l2.532 1.687.168.281-.168.169-.113.225-.056.394-.113.225v.338l-.225.225-.168.393v.282l.168.225-.112.337.281.225h.169l.506.563.225.225.113.281-.113.281-.169.056-.168.563v.338l.225.225-.057.225-.112.337-.113.338.113.337.112.281.113.113v.225h-.113l.169.281.225.113v.45h-.056v.112l.225.169.112.563-.112.168v.113h.337l.113.281.225-.056.394.169.169.281z" clip-rule="evenodd"/><path fill="#fff" fill-rule="evenodd" stroke="#000" stroke-width=".281" d="M287.484 142.09c-.169-.169.562-.562.45-.844 0-.562.281-.731.9-.956l.338-.225c.168.112.168.394.337.225.169-.112.563-.731.844-.619-.169.225.169.675.394.844l.337 1.069c-.112.394-.337.394-.787.337-.45-.168-.563.169-.9-.112-.057.394 0 .731-.507.9-.281 0-.562 0-.562-.169-.225-.281-.563-.281-.675 0-.057-.112-.169-.169-.169-.45Z" clip-rule="evenodd"/><path fill="#fff" fill-rule="evenodd" d="M287.653 142.54c.281-.619.619.056.731.056.844.113.844-.056 1.013-.843.45.337.281 0 1.237.225-.168 0-.562.45-.281.45-.225.618.281.618.619.562-.169.225.281.338-.169.563-.281.168-.281 0-.281.393l-.338.057c-.056.112.169.337.113.337 0 0-.113.281-.338.45-.281.169-.394.45-.731.563l-.394.112-.562-1.012c-.057-.282 0-.619-.169-.9v-.507c-.169-.168-.338-.281-.45-.562" clip-rule="evenodd"/><path stroke="#000" stroke-width=".281" d="M287.653 142.54c.281-.619.619.056.731.056.844.113.844-.056 1.013-.843.45.337.281 0 1.237.225-.168 0-.562.45-.281.45-.225.618.281.618.619.562-.169.225.281.338-.169.563-.281.168-.281 0-.281.393l-.338.057c-.056.112.169.337.113.337 0 0-.113.281-.338.45-.281.169-.394.45-.731.563l-.394.112-.562-1.012c-.057-.282 0-.619-.169-.9v-.507c-.169-.168-.338-.281-.45-.562"/></g><defs><clipPath id="a"><path fill="#fff" d="M0 0h600v300H0z"/></clipPath></defs></svg>