<svg xmlns="http://www.w3.org/2000/svg" width="600" height="400" fill="none"><g clip-path="url(#a)"><path fill="#000001" d="M0 266.667h600V400H0z"/><path fill="#fff" d="M0 133.333h600v133.334H0z"/><path fill="#CE1126" d="M0 0h600v133.333H0z"/><path fill="#fff" stroke="#C09300" stroke-linejoin="round" stroke-width=".713" d="M300.439 201.081 338 235.956l-2.687-63.334c-.384-9.596-8.718-7.402-14.805-3.948-6.087 3.948-13.16 3.948-20.508 1.371-7.403 2.577-14.421 2.577-20.508-1.371-6.032-3.454-14.421-5.648-14.805 3.948L262 235.956z"/><path fill="#C09300" d="m269.019 170.429-2.632 61.579-4.387 3.948 2.687-63.333a13.1 13.1 0 0 1 4.332-2.194m5.264 4.387-2.194 51.544-4.386 4.496 2.632-59.495c.877.878 3.454 3.016 3.948 3.455m4.77 3.948-1.699 42.99-3.565 3.454 2.194-49.021c.877.822 2.632 2.083 3.07 2.577m5.21 2.193-1.7 36.629-3.455 2.797 1.7-40.742c.877.384 2.577 1.316 3.455 1.316m4.825 0-1.261 30.543-3.564 3.454 1.37-33.613c.823 0 3.071 0 3.455-.384M330.981 170.429l2.632 61.579 4.387 3.948-2.687-63.333a13.1 13.1 0 0 0-4.332-2.194m-5.264 4.387 2.194 51.544 4.386 4.496-2.632-59.495c-.877.878-3.454 3.016-3.948 3.455m-4.77 3.948 1.699 42.99 3.565 3.454-2.194-49.021c-.877.822-2.632 2.083-3.07 2.577m-5.21 2.193 1.7 36.629 3.455 2.797-1.7-40.742c-.877.384-2.577 1.316-3.455 1.316m-4.825 0 1.261 30.543 3.564 3.454-1.37-33.613c-.823 0-3.071 0-3.455-.384"/><path fill="#C09300" stroke="#C09300" stroke-width=".603" d="m301.754 207.99 5.264 24.018-1.755 1.754-1.809-1.37-2.961-21.386 1.261 21.386-1.755 2.193-1.7-2.193 1.262-21.386-3.016 21.386-1.81 1.37-1.755-1.754 5.265-23.963h3.509z"/><path fill="#fff" stroke="#C09300" stroke-linejoin="round" stroke-width=".658" d="m288.212 197.462-10.474 37.123 14.422 2.193 6.086-27.91z"/><path stroke="#C09300" stroke-linejoin="round" stroke-width=".713" d="m284.758 210.184 1.261 3.016 6.799-6.471"/><path stroke="#C09300" stroke-linejoin="round" stroke-width=".713" d="m289.472 202.507 1.426 13.325 4.332-5.703m-1.755 2.194 2.358 8.225m.932-3.016-4.77 7.238m1.48 7.238-1.535-7.238m0 0-1.316-7.348-3.235 4.332-1.371-4.99-4.497 4.606 2.249 8.335 3.18-5.154 1.7 5.264z"/><path stroke="#C09300" stroke-linejoin="round" stroke-width=".713" d="m280.809 233.762 2.906-4.112 1.864 6.306 2.632-4.387 1.7 5.264"/><path fill="#fff" stroke="#C09300" stroke-linejoin="round" stroke-width=".658" d="m311.788 197.462 10.474 37.123-14.422 2.193-6.086-27.91z"/><path stroke="#C09300" stroke-linejoin="round" stroke-width=".713" d="m315.242 210.184-1.261 3.016-6.799-6.471"/><path stroke="#C09300" stroke-linejoin="round" stroke-width=".713" d="m310.528 202.507-1.426 13.325-4.332-5.703m1.755 2.194-2.358 8.225m-.932-3.016 4.77 7.238m-1.48 7.238 1.535-7.238m0 0 1.316-7.348 3.235 4.332 1.371-4.99 4.497 4.606-2.249 8.335-3.18-5.154-1.7 5.264z"/><path stroke="#C09300" stroke-linejoin="round" stroke-width=".713" d="m319.191 233.762-2.906-4.112-1.864 6.306-2.632-4.387-1.7 5.264"/><path fill="#fff" stroke="#C09300" stroke-linecap="round" stroke-linejoin="round" stroke-width="1.316" d="M300.001 251.2c10.967 0 21.385-.878 27.526-2.578 2.578-.493 2.578-1.809 2.578-3.564 2.632-.877 1.316-3.948 3.125-3.948-1.864.549-2.193-3.016-4.387-2.577 0-3.071-3.125-3.455-5.702-2.577-5.209 1.7-14.422 2.138-23.14 2.138-8.774-.438-17.876-.438-23.14-2.193-2.577-.823-5.648-.439-5.648 2.632-2.193-.439-2.577 3.071-4.387 2.577 1.81 0 .439 3.126 3.071 3.948 0 1.755 0 3.071 2.632 3.564 6.032 1.7 16.56 2.578 27.472 2.578"/><path fill="#fff" stroke="#C09300" stroke-linecap="round" stroke-linejoin="round" stroke-width=".713" d="M285.14 234.585c3.509.494 7.457.878 10.528.494 1.755 0 3.016 3.016-.493 3.454-3.016.384-7.842 0-10.419-.438a127 127 0 0 1-10.089-2.194c-3.071-1.316-.878-3.838.877-3.509a57.7 57.7 0 0 0 9.596 2.193m29.72 0c-3.509.494-7.457.878-10.418.494-1.865 0-3.126 3.016.383 3.454 3.071.384 7.842 0 10.419-.438 2.193-.439 7.019-1.262 10.089-2.194 3.071-1.316.878-3.838-.877-3.509a57.7 57.7 0 0 1-9.596 2.193"/><path fill="#fff" stroke="#C09300" stroke-linecap="round" stroke-linejoin="round" stroke-width=".713" d="M274.228 232.885c-2.632-.493-3.838 2.577-3.016 4.332.384-.877 2.194-.877 2.578-1.755.493-1.316-.384-1.316.493-2.577zm10.528 8.061c0-1.755 1.7-1.535 1.7-3.29 0-.823-.438-2.194-1.316-2.194a1.87 1.87 0 0 0-1.754 1.755c-.384 1.7 1.37 1.974 1.37 3.729m12.448-4.99c2.577 0 2.303 3.455 1.096 5.209 0-1.261-2.193-1.754-2.193-2.632 0-1.316 1.974-1.316 1.097-2.577m28.513-3.071c2.687-.493 3.948 2.577 3.071 4.332-.384-.877-2.193-.877-2.577-1.755-.494-1.316.384-1.316-.494-2.577m-10.363 8.006c0-1.755-1.755-1.535-1.755-3.29 0-.823.439-2.193 1.316-2.193a1.863 1.863 0 0 1 1.755 1.754c.384 1.7-1.371 1.974-1.371 3.729zm-12.612-4.935c-2.577 0-2.303 3.455-1.097 5.209 0-1.261 2.194-1.754 2.194-2.632 0-1.316-1.974-1.316-1.097-2.577"/><path fill="#fff" stroke="#C09300" stroke-linecap="round" stroke-linejoin="round" stroke-width=".494" d="M275.16 233.762c.878 0 2.194.384 2.577.878zm4.332 1.316c.439 0 2.193.384 3.016.878zm15.683 1.755c-.823 0-2.578 0-3.016.384l3.016-.439zm-4.771 0c-.493-.493-2.193-.493-3.071 0zm34.436-3.071a4.4 4.4 0 0 0-2.577.878zm-4.277 1.316c-.549 0-2.194.384-3.071.878zm-15.738 1.755c.823 0 2.578 0 3.071.384l-3.071-.439zm4.771 0c.493-.493 2.193-.493 3.071 0z"/><path fill="#C09300" d="M274.395 240.671c-.275-.054-.439-.329-.329-.548.054-.384.329-.548.548-.439.219 0 .493.329.493.439l-.219.384-.11.055c0 .109-.219.109-.383.109m30.158 2.139c-.109 0-.329-.274-.329-.384 0-.219.329-.548.549-.548l.438.219a.45.45 0 0 1-.055.658c-.109.11-.438.11-.603 0zm.165 1.371c-.22-.11-.274-.219-.329-.439 0-.274 0-.329.274-.493l.219-.11.22.11c.219.109.384.219.384.438 0 .165-.165.329-.384.439-.165.11-.22.11-.384 0z"/><path fill="#C09300" d="M276.861 238.149c-.219 0-.493.22-.658.329-.329.055-.767.274-1.096 0-.329-.055-.768 0-.823.439.055.384.548.548.877.329.22-.274.823-.494.933 0-.275.439-.22.932-.439 1.316 0 .274-.165.493-.274.713-.274 0-.549 0-.768.164a1.1 1.1 0 0 0-.877.439c-.22.329-.439.658-.494 1.097.055.329.549.438.878.493l1.096.329 1.755.494c.877.274 1.755.383 2.632.603l.274.055c.384.109.548-.275.548-.549l.549-1.974c.109-.274.274-.822-.22-.713-.274.165-.548.439-.877.439-.493 0-.219.548 0 .713 0 .329-.11.713-.274.987-.329.164-.658 0-.987-.11-.274 0-.932-.164-.658-.548l.274-.987c.165-.329.165-.713.274-1.097-.219-.384-.548.165-.822.22-.22.109-.878.164-.549.548.329.219.11.603 0 .932 0 .384-.438.548-.767.384-.329 0-.823-.274-.549-.603l.275-.987.383-1.097c0-.384.165-.658.329-.987 0-.384.275-.713.275-1.097 0-.164-.11-.219-.22-.219zm-2.029 4.003a.2.2 0 0 1 .083-.022.2.2 0 0 1 .082.022q.165.165 0 .329l-.165.11c-.274 0-.329-.055-.329-.165 0-.055 0-.109.165-.164a.8.8 0 0 1 .219-.11zm-.548 2.742c-.274-.22-.219-.384.165-.713.219-.11.274-.11.493.055.329.274.329.438 0 .713-.11.109-.164.109-.274.109-.165 0-.219 0-.384-.109zm1.645.548a.496.496 0 0 1-.329-.603c.11-.219.165-.274.494-.274.383 0 .438.055.493.384 0 .219 0 .274-.164.383a.55.55 0 0 1-.439.11zm48.912 0c-.11-.055-.164-.11-.164-.274 0-.219.109-.384.438-.494.329-.164.549-.164.658.11.165.329.165.439-.055.658-.109.165-.164.165-.438.165s-.329 0-.439-.11zm-46.609.658c-.219 0-.329-.219-.329-.439 0-.164 0-.219.11-.329l.329-.109.329.055q.411.328.164.658c-.164.219-.329.219-.658.164zm11.954.548-.11-.164c0-.329 0-.603.11-.932.055-.274 0-.549.11-.823l.219-1.535c0-.274 0-.548.11-.768.054-.438 0-.822.109-1.206 0-.165.165-.548.329-.329.22.329.494.548.768.822.219.165 0 .384-.165.439-.219.055-.274.329-.274.548l-.109.658c0 .384 0 .713-.11 1.097l-.055.987-.11.658c0 .219 0 .494-.219.603-.164.11-.439.11-.548-.055zm16.286-5.373-.713.658c-.329.274.274.384.329.603.109.329.109.658.109.987.11.329.165.603.11.932 0 .384-.439.274-.658.494-.274.109-.384.383-.548.548a2.3 2.3 0 0 0-.22.877c0 .274-.164.549 0 .768l.055.11h.274l.823-.055c.658-.11 1.371-.11 2.029-.165l1.206-.109c.329.054.494-.275.494-.549-.22-.384-.055-.767-.22-1.096-.109-.439-.055-.823-.109-1.207 0-.329-.384-.438-.549-.219-.219.219-.548.274-.658.493-.164.329.329.329.439.549l.055.822c.055.329-.274.329-.549.384-.274.11-.658.165-.822-.164-.11-.275-.11-.549-.11-.823 0-.548-.164-.987-.164-1.48 0-.549-.165-1.152-.165-1.755 0-.274-.055-.658-.438-.603m-.329 4.496h.164v.439l-.164.055a2 2 0 0 1-.22.054 1 1 0 0 1-.109 0c-.11-.109-.11-.274.054-.438zm-16.451-5.045c-.164 0-.438.384-.658.329-.493.055-.438.549-.054.713v.439c.054.439-.22.822-.165 1.261 0 .439-.164.932-.164 1.426-.165.493-.165.987-.22 1.48-.055.439-.384.274-.658.165v-.549c.055-.493-.274-.603-.658-.658-.384 0-.548-.274-.438-.603.164-.219.548-.164.822-.164.548.109.494-.603.219-.878-.219-.329-.658-.548-.767-.877 0-.439-.274-.932-.658-1.151-.603-.055-1.097.438-1.261.987-.275 0-.549.109-.768.219-.384.11-.932.768-.384 1.042.274.055 1.206.274.768.658-.22.438-.658.438-1.042.329-.384 0-.823-.22-.823-.658-.055-.439-.055-.878-.219-1.261-.11-.439-.603-.329-.658.109-.384.274-.329.768-.055 1.097.165.384 0 .877-.164 1.206-.11.549-.658.549-1.042.658-.165.11-.878 0-.603.384.411.189.87.247 1.316.165.438 0 .822-.384 1.096-.768.274-.274.768-.11 1.207-.11.383 0 .822.274 1.261.055.11-.274.658-.822.822-.274 0 .493.384.713.823.658.493 0 .274.329.274.658 0 .493.384.768.823.987h.438c.384-.165.823-.329.987-.768.165-.384.165-.822.274-1.206.11-.603.22-1.261.22-1.864.164-.549.109-1.152.219-1.755l.165-1.261c0-.274-.11-.274-.275-.22m-3.673 2.249c.054 0 .109.109.109.274 0 .219.11.384.274.438v.165l-.438.11a.9.9 0 0 1-.658-.275l-.11-.109.164-.11.275-.274c.164-.165.274-.219.384-.219m36.19-4.332a4.5 4.5 0 0 0-.932.164c-.549 0-.823.549-.274.878.329.822.822-.22 1.37-.11.768.11.823.987.988 1.645 0 .603.219 1.206.383 1.809.549.604-.383.987-.767.549-.329-.384-1.097-.823-1.481-.329-.493.219-.548.877-.932 1.096-.658.165-.713-.658-1.097-.987-.329-.493-.932-.548-1.425-.658-.22-.493-.11-1.316-.549-1.645-.438.165-1.206.933-.548 1.316.548.549-.274.768-.548 1.097-.439.494-.549 1.097-.549 1.645-.713.384-.822-.439-.932-.932 0-.603-.548-.439-.932-.219-.548.219-.768.712-1.097 1.096v1.097c.11.493.658.274.987.219.549-.219.768.384.329.713-.329.329-1.206.165-1.096.768h.877c.548-.165 1.206-.603 1.261-1.261.11-.549.932-.494 1.371-.604.548-.164 1.261-.219 1.426.549.383.384 1.206.822 1.645.274a1.32 1.32 0 0 0 .603-1.261c-.055-.439.713-.439.932-.165.274.439 1.151.329 1.59 0 .439-.274.548-.877 1.207-.877l2.961-.823c.767-.164-.11-.658-.329-.987-.549-.274-1.097.933-1.755.329-.548-.383-.494-1.096-.658-1.699-.165-.768-.11-1.645-.658-2.194-.329-.384-.878-.493-1.371-.493m-3.729 5.209c.055 0 .165 0 .274.11.22.109.384.329.384.548 0 .11 0 .11-.164.164l-.274.11c-.11 0-.384-.164-.384-.274v-.219c-.11-.22-.11-.22 0-.329zm3.564.219c.22 0 .329 0 .439.165.055.219 0 .329-.219.438l-.274.11-.22-.164c-.109-.055-.164-.11-.164-.22 0-.164.219-.329.438-.384zm-4.935 0c.11 0 .165 0 .22.11.109.11.164.164.164.329v.329c0 .164 0 .11-.329.11s-.384 0-.384-.329c0-.22 0-.275.165-.384.055-.11.164-.11.219-.11zm-2.961.823a.33.33 0 0 1 .22.219c0 .165 0 .274-.11.329-.164.055-.439.11-.548 0a.3.3 0 0 1 0-.055q-.165-.082 0-.164v-.055l.109-.165a.276.276 0 0 1 .329-.109m5.045.658.274.055v.329h-.658l-.055-.11c0-.11 0-.165.11-.219zm-9.377 2.632c-.054 0-.164-.055-.054-.11.054-.164.274-.219.438-.329a1.9 1.9 0 0 0 .768-.548c0-.22.219-.329.219-.549l-.054-.767a1 1 0 0 0-.439-.549c-.165-.054-.384-.109-.439-.329 0-.164.165-.329.22-.493l.329-.658c.164-.165.383 0 .438.11l.274.548c.165.164.275.329.329.548.11.22.22.384.22.549l.109.712c0 .275 0 .604-.109.878l-.329.438c-.165.165-.329.329-.549.384-.164.055-.274.22-.493.22h-.823zm-3.783.219c-.11-.11-.165-.164-.165-.329 0-.164 0-.164.165-.329.219-.219.329-.219.768 0 .383.219.548.219.548.055.055-.11.274-.274.548-.274a.44.44 0 0 1 .274.109c.11.11.165.165.165.384 0 .274 0 .274-.165.439-.164.11-.164.11-.383.11a.493.493 0 0 1-.439-.329c0-.11 0-.165-.11-.055l-.109.055c-.11 0-.329.164-.439.274l-.274.055c-.22 0-.22 0-.384-.165m-10.857-4.88c-.384 0-.768.329-.823.713.11.384.439.822.22 1.206.164.548-.439.768-.823.494-.219-.549-.329-1.097-.713-1.645-.438-.11-.603.603-.932.877.165.384.603.768.658 1.261.11.548-.219 1.097-.603 1.316-.384.384-.932.274-1.371.329-.548.329.384.439.658.439.548.055 1.152 0 1.645-.439.384-.164.329-.932.823-.987l2.632.165c.438.109 1.151-.055 1.48.274 0 .548.549.987 1.042 1.206.274.11.548-.274.823-.329.548-.164.383-.822.712-1.097h2.742c.11 0 .165-.274.329-.383l-.11-1.042c-.164-.439 0-.987-.274-1.371-.493-.11-.877.274-1.316.329-.548.219-.932.713-.987 1.261-.274.494-.767-.11-.548-.548l-.055-.549c-.274-.274-.768-.164-1.151-.219l-1.645-.11c-.549 0-1.042.055-1.481-.054-.548 0-.548-.549-.548-.987a.55.55 0 0 0-.384-.11m1.096 2.029.549.055h.713c.548.109 1.096.109 1.645.109.109 0 .219.11.329.22v1.096c0 .165 0 .384-.11.439a.4.4 0 0 1-.11.11.545.545 0 0 1-.383-.275v-.767a.72.72 0 0 0-.384-.165l-1.426-.055-1.097-.054c-.164-.055-.384 0-.493-.22-.11-.109.055-.329.219-.384.172-.077.36-.114.548-.109m6.197.164c.055 0 .109 0 .109.165l.11.274c0 .055 0 .11-.11.11-.274.109-.548.109-.658 0 0-.055 0-.275.11-.329z"/><path fill="#fff" stroke="#C09300" stroke-width=".603" d="M300 214.68c17.876-13.708 16.34-33.887 16.34-33.887l-1.371.109c-3.783 0-12.721-2.193-14.805-4.88-2.193 2.468-11.405 4.935-15.134 4.935l-1.371-.164s-1.59 20.124 16.341 33.887Z"/><path fill="#fff" stroke="#C09300" stroke-width=".494" d="M314.916 182.219h-.439c-3.4 0-11.296-1.7-14.367-4.332-3.18 2.412-11.241 4.386-14.585 4.386a2.6 2.6 0 0 1-.439-.054c.03 3.465.509 6.912 1.426 10.254a38.93 38.93 0 0 0 13.489 20.343 39.04 39.04 0 0 0 13.489-20.398 40 40 0 0 0 1.426-10.199Z"/><path fill="#C09300" d="M294.188 180.574a34.1 34.1 0 0 1-9.102 1.645l.055 2.248c.187 2.69.646 5.354 1.371 7.951a38.9 38.9 0 0 0 7.676 14.695zm11.296 0v26.978a39 39 0 0 0 8.006-15.134 40 40 0 0 0 1.371-7.951l.055-2.194h-.439c-2.084 0-5.703-.658-8.993-1.754z"/><path fill="#fff" stroke="#C09300" stroke-width=".658" d="M306.744 173.993c.384.055-.493-1.919-.493-1.919.987.987 4.606 1.261 4.606 1.261-2.193-.987-4.387-8.28-4.113-14.147.22-5.812-.822-8.115-1.645-8.993-1.096-1.096-4.66-2.083-6.963-2.193-1.371-.055-1.097.987-1.097.987-2.468-.603-4.935-.877-6.032-.11-.987.658-1.206 4.113-.439 3.51 1.81-1.481 3.4-.11 4.497 1.48.987 1.371.932 5.319-.494 9.98a32.9 32.9 0 0 1-5.483 9.706c2.193 0 5.264-1.919 5.264-1.919l-.713 3.015c2.303-1.096 4.113-2.796 4.113-2.796l2.193 2.303c.713-.987 2.193-2.303 2.193-2.303s1.81 1.919 4.606 2.193z"/><path stroke="#C09300" stroke-width=".713" d="M297.861 160.066s-1.206 8.992-3.509 11.515m5.483-11.789s-.548 9.157-2.084 12.063m3.784-11.68s0 9.98.548 11.68m1.645-11.186s.439 8.389 2.523 11.405"/><path fill="#C09300" stroke="#C09300" stroke-width=".165" d="M295.613 155.679a4.4 4.4 0 0 0-.548-1.81c-1.097-1.645-2.687-2.961-4.497-1.48 0 0 .604-1.919 1.974-1.974.987-.055 3.345.768 5.429 4.277 0 0-1.535-.329-1.919 0-.658.548-.384.987-.384.987z"/><path fill="#C09300" stroke="#C09300" stroke-width=".165" d="M290.35 150.031c.164-.548.383-.987.712-1.152 1.097-.767 3.51-.548 5.977.11 0 0-.219-1.042 1.097-.987 2.303.11 5.812 1.097 6.909 2.193.351.386.63.832.823 1.316-.549-.767-2.084-.712-2.468-.658-.548.055-.932 0-1.7.22-.384.109-.932.219-1.261.438-.219.22-.439.878-.768.878-.548 0-.548-.11-.712-.274-.165-.275-.275-.604-.494-.549-.548.055-1.535-.384-2.742-1.371-1.261-.987-1.754-1.206-3.29-1.096-1.645.109-2.083 1.042-2.083 1.042z"/><path fill="#fff" d="M299.342 151.457a.659.659 0 1 0-.001-1.317.659.659 0 0 0 .001 1.317"/></g><defs><clipPath id="a"><path fill="#fff" d="M0 0h600v400H0z"/></clipPath></defs></svg>