<svg xmlns="http://www.w3.org/2000/svg" width="600" height="300" fill="none"><g clip-path="url(#a)"><path fill="#E32118" d="M0 0h600v300H0z"/><path fill="#fff" d="M0 0h600v200H0z"/><path fill="#3E9A00" d="M0 0h600v100H0z"/><path fill="#0073CE" d="M0 0v300l168.75-150z"/><path fill="#fff" stroke="#000" stroke-width=".65" d="M275.533 118.68h49.756v52.094c0 17.538-22.864 4.028-24.813 13.381-3.378-9.613-24.813 4.287-24.813-14.42z"/><path fill="#73452B" stroke="#000" stroke-width=".13" d="M303.983 175.841s-.649.65-1.819.13-1.299-33.387-1.299-33.387c2.598-2.858 4.677-3.768 4.677-3.768l1.559 1.3c-5.846 2.987-5.326 7.275-4.807 14.68.13 2.728.13 6.235.78 9.613.909 4.287 2.728 7.925 2.858 10.653.13 1.689-1.949.779-1.949.779Z"/><path fill="#73452B" stroke="#000" stroke-width=".13" d="M299.957 138.037h2.339c-1.949 18.837-.26 30.009-.26 35.465 0 1.819 1.039 2.469.909 2.469-2.338 2.598-3.507-.13-3.507-.13z"/><path fill="#A36629" d="M296.319 175.841c-2.208 1.039-2.468-1.039-2.338-1.299 4.806-9.743 6.885-31.179 2.468-33.517l.26-2.079c1.689.52 3.248 2.728 3.248 2.728.649 24.034 0 33.907-.39 34.297-2.339 2.468-3.248-.39-3.378-.65"/><path stroke="#000" stroke-width=".13" d="M296.319 175.841c-2.208 1.039-2.468-1.039-2.338-1.299 4.806-9.743 6.885-31.179 2.468-33.517l.26-2.079c1.689.52 3.248 2.728 3.248 2.728.649 24.034 0 33.907-.39 34.297-2.339 2.468-3.248-.39-3.378-.65"/><path stroke="#000" stroke-width=".13" d="M296.188 175.451c-.389-2.078 3.378-7.405 3.118-12.991m3.248 4.547c1.169 3.248 1.689 6.106 1.429 8.834"/><path fill="#009A3B" stroke="#000" stroke-width=".13" d="M307.622 129.203c.78-.91.78-.91 2.209-.91.26-1.948 3.507-1.948 3.767.52 2.598-.52 3.118 1.039 2.079 2.598 2.468-.649 4.677 0 4.027 2.858 4.417 1.169 2.728 4.287.779 4.937-.259 1.949-2.078 2.598-4.546 1.819-3.118 2.208-4.937 1.429-6.366-.78-3.508.52-3.768-.26-5.327-2.208-2.728 1.169-3.247 1.169-5.586-.26-.13 1.819-.779 1.299-1.948 1.169.13 2.338-.78 3.378-2.858 2.598 1.559 3.248-2.469 4.677-4.417 1.949-1.819.13-1.949-.39-2.858-1.039-.78 2.598-3.638 2.208-4.158.779-3.637-.519-3.247-2.468-.259-2.598.259-2.079 2.078-1.689 3.247-1.429.13-1.299.91-1.039 1.559-.78-.389-.909-.13-1.429 1.04-1.688-1.689-2.209-.65-2.988 1.039-3.768-.91-2.078.649-1.949 1.819-2.078-.13-2.209.519-2.599 2.858-2.858-.26-.78.13-1.43 1.429-1.43-.78-2.208.26-2.728 2.598-2.338.39-3.248 7.275-1.689 6.755 2.728 1.949.26 2.599.65 3.118 2.209Z"/><path stroke="#000" stroke-width=".13" d="M293.721 128.033c.52.26 1.169 0 1.299 1.429 1.039-1.818 2.339-.779 2.339 1.3m7.145-3.768c-.52.78-2.469.78-2.209 2.858-.649-.909-1.948-1.169-2.468-.26m7.795-.389c0 .519-.13 2.078-.65 2.858m8.704-.65c.13.13-1.819 0-2.728.65m7.535 7.145c-.52-.26-1.559-.91-2.339.13 0-.52 0-1.949-1.429-1.949m-.779 3.638c0-1.3-.26-1.689-.52-2.079m-3.767.26c-1.039-.78-2.079.39-2.079 1.039m-5.456-2.208c0-.52-.39-1.559.52-1.949m-15.33 7.405c.26-1.299 1.169-1.299 1.039-1.949m0 0c-.13-1.039-1.299-1.948-2.728-.519m2.728.519c.78-.26 1.559-.13 1.819.26m-4.027-5.067c.52-.519 1.819-.389 2.598 0m0-3.117c.65 0 1.819-.26 2.209.909 1.429-2.208 2.468-1.949 2.728-1.429m2.598-.26c1.039-.39 2.858.65 3.897 2.468.52-1.429 1.299-1.169 2.079-1.299m4.937 1.299c1.688-.779 2.728.78 3.247 1.429.78-1.039 1.429-1.039 2.209-1.039m-21.176 2.728c.39-.649 1.299-.779 1.949-.389-.13-1.17.649-1.689 1.169-1.429"/><path fill="gold" stroke="#000" stroke-width=".455" d="m298.787 111.34-2.858.13-1.429 2.598-1.559-2.468-2.858.13 1.299-2.598-1.559-2.404 2.988-.13L294.11 104l1.559 2.468 2.858-.13-1.299 2.599zm-12.212.974-2.858.65-.779 2.793-2.079-2.079-2.728.65.779-2.728-1.948-2.079 2.728-.714.779-2.793 2.079 2.078 2.858-.649-.909 2.793zm-11.822 2.404-2.598 1.299-.13 2.858-2.468-1.559-2.599 1.299.26-2.923-2.468-1.559 2.598-1.299.26-2.923 2.338 1.624 2.599-1.299-.13 2.858zm27.801-3.378 2.858.13 1.299 2.598 1.559-2.468 2.858.13-1.299-2.598 1.559-2.404-2.858-.13-1.429-2.598-1.559 2.468-2.858-.13 1.299 2.599zm12.212.974 2.728.65.779 2.793 2.079-2.079 2.728.65-.779-2.728 2.078-2.079-2.858-.714-.779-2.793-2.079 2.078-2.728-.649.78 2.793zm11.692 2.404 2.598 1.299.13 2.858 2.468-1.559 2.599 1.299-.13-2.923 2.338-1.559-2.598-1.299-.13-2.923-2.468 1.624-2.599-1.299.26 2.858z"/><path fill="#fff" stroke="#000" stroke-width=".455" d="m329.966 169.735 3.247 4.677 2.988-4.417-2.078-3.768zm-20.656 13.641.26 4.677s1.299 0 2.468-.39c1.039-.39 1.949-1.169 1.949-1.169l-.13-2.469zm-17.408 0-.26 4.547s-1.169 0-2.339-.26c-1.039-.26-1.948-.91-1.948-.91l-1.299-3.117zm-20.916-13.641-3.378 4.677-3.637-5.976 2.728-2.858z"/><path fill="#fff" stroke="#000" stroke-width=".455" d="M287.225 192.729c0 4.417 26.761 4.417 26.761 0v-6.235c0 3.247-26.761 2.598-26.761 0z"/><path fill="#fff" stroke="#000" stroke-width=".455" d="M263.322 178.309c2.339 11.952 23.904 12.212 23.904 12.212v-4.027c-.52-1.559.39-2.079 3.897-2.599 1.429-.13.78-2.208.78-2.208s-9.354 1.689-15.979-.91c-8.964-3.637-10.263-10.652-10.263-10.652s-.65 5.456-2.339 8.184Zm74.44 0c-2.209 11.952-23.774 12.212-23.774 12.212v-4.027c.389-1.559-.52-2.079-4.028-2.599-1.429-.13-.649-2.208-.649-2.208s9.354 1.689 15.979-.91c8.834-3.637 9.873-10.652 9.873-10.652s.91 5.456 2.599 8.184Z"/><path fill="#fff" stroke="#000" stroke-width=".455" d="M265.01 173.762c-5.975-3.247-1.299-6.625-.779-16.239.909 5.846 7.535 8.315 6.755 12.082-2.728.13-4.027-4.027-5.326.52zm71.062 0c5.976-3.377 1.039-6.625.52-16.239-.91 5.846-7.405 8.315-6.626 12.082 2.598.13 3.898-4.027 5.197.52l.909 3.507z"/><path fill="#000" d="m268.647 178.179.65.52-1.429 1.559c-.65.65-.715 1.039-.325 1.429.455.455.845.26 1.299-.26l1.624-1.689.52.52-1.559 1.819c-.845.974-1.624.779-2.339.13-.519-.52-.909-1.299 0-2.274zm2.599 2.209.649.39-.13 3.118 1.429-2.209.65.39-2.079 3.378-.779-.39.13-3.118-1.429 2.208-.65-.389zm1.169 5.456 1.819-3.637.649.389-1.689 3.508zm2.858-3.118-1.429 3.768 1.429.519c1.299.455 1.949-.129 2.338-1.234.455-1.169.26-1.948-1.039-2.533zm.52.91c1.299.454 1.429.974 1.039 1.948-.39.845-.65 1.17-1.949.52zm3.767.519-2.338 3.508.909.26.52-.91 1.559.39.129.91.91.13-.91-4.158zm.26.91.26 1.559-1.04-.13zm1.948-.585-.129 4.027h1.494c1.429.065 1.818-.649 1.883-1.948 0-1.169-.454-1.949-1.883-1.949zm.78.65c1.429.065 1.624.519 1.624 1.494-.065.974-.26 1.364-1.689 1.169v-2.598zm12.861 5.001v4.158h.91v-1.559s.779 0 1.429-.13c.454-.13.844-.455.844-1.299 0-.78-.455-1.17-1.234-1.17zm.91.65h.909c.714 0 .649 1.169 0 1.169h-.909zm3.767-.65-1.689 4.158h.91l.389-1.04h1.689l.39 1.04h.909l-1.689-4.158zm.39.91.649 1.559h-1.169zm2.208 2.468 2.209-2.728h-1.949v-.65h3.118v.65l-2.339 2.728h2.339v.78h-3.378zm13.121-8.054.78-.13.389 2.338c.13.844-.259 1.364-.844 1.624-.65.26-1.559 0-1.624-1.104l.65-.13c.13.649.389.714.649.649.325-.13.455-.519.39-.909zm1.299-.26.715-.13.39 1.948c.13.845.389 1.17.974 1.105.649-.13.714-.52.585-1.299l-.455-2.014.779-.13.52 2.144c.26 1.299-.39 1.753-1.299 1.948-.715.13-1.559 0-1.819-1.299zm4.028 1.818.649-.259c.325.584.78.519 1.169.389.52-.259.65-.714.325-.909-.39-.195-1.299.13-1.754 0-.584-.26-.844-.65-.779-1.104 0-.65.52-.91 1.104-1.104.65-.195 1.299-.13 1.754.649l-.78.26c-.259-.455-.649-.39-.909-.26s-.649.325-.39.65c.13.324 1.105.13 1.624.13s.91.389.975.844c.129.714-.13 1.104-.975 1.429-.974.39-1.883 0-2.013-.715m3.507-3.247-1.039.519-.26-.649 2.858-1.169.26.519-1.039.52 1.169 2.858-.65.39zm1.689-1.429.65-.39 1.818 3.378-.649.389zm4.417.259.78-.259a1.56 1.56 0 0 1-1.559 2.143c-1.949 0-2.209-2.208-1.884-2.923.52-1.234 1.949-1.169 2.598-.519l-.649.519c-.39-.519-1.3-.195-1.3.26a1.76 1.76 0 0 0 .91 1.949c.649.26 1.559-.52 1.104-1.17m-.39-2.728.65-.519 2.338 3.118-.649.519zm2.469-1.948-.65.519 1.429 3.898.65-.65-.39-.779 1.169-1.04.78.39.649-.52zm.259.909 1.3.65-.78.779z"/></g><defs><clipPath id="a"><path fill="#fff" d="M0 0h600v300H0z"/></clipPath></defs></svg>