<svg xmlns="http://www.w3.org/2000/svg" width="600" height="300" fill="none"><g fill-rule="evenodd" clip-path="url(#a)" clip-rule="evenodd"><path fill="#BE0027" d="M0 0h600v300H0z"/><path fill="#B4D7F4" d="m0 300 600-.188V150z"/><path fill="#239E46" d="m0 0 600 .188V150z"/><path fill="#F3E295" d="M115.712 227.92c-6.954 1.95-10.919 7.344-10.854 12.414l34.317-.13c.26-5.46-4.224-10.529-11.049-12.544 33.537-.65 62.655-13.259 67.984-21.318-5.199-2.275-11.309 1.365-15.598.52 10.204-4.745 40.946-24.633 35.941-45.951-3.899 11.829-15.598 21.643-20.668 24.308 11.504-17.419 27.168-35.617 13.584-49.656.65 8.124-5.2 17.094-7.799 17.809 6.694-18.459 12.999-41.597-1.365-56.805 1.885 5.524 1.105 21.058-1.495 21.773-.78-12.544-2.925-38.867-16.119-38.542 4.16 3.77 5.98 13.909 6.11 24.178a37.37 37.37 0 0 0-13.714-17.549A76.9 76.9 0 0 0 148.015 59c1.169 8.254 2.144 14.754 13.648 23.333-5.979-.39-11.959-11.764-18.393-12.089-5.135-.26-9.099 4.615-17.483 1.82.909 2.73 4.809 3.965 5.654 5.98-1.82 1.3-6.044-.196-9.554-1.95 4.874 6.499 12.349 10.399 18.718 9.099 7.605-1.43 15.729-.65 23.528 3.77a41 41 0 0 1-14.624.39c4.485 4.549 7.475 7.604 15.339 7.539 6.954 0 10.659-3.77 12.414-1.43 4.42 5.199 7.344 10.399 11.049 16.508-8.124.845-5.655-9.164-14.689-14.299-5.134 10.4 5.85 22.878 13.194 28.078a42.25 42.25 0 0 0 4.615 20.473c2.274 4.225 5.199 8.579 4.094 18.134-4.484-3.25-8.774-14.169-7.149-22.813-5.59 1.494-7.799 11.309-5.2 16.248 1.95 3.705 3.25 10.919 1.04 14.104-2.209 2.99-2.404 2.6-2.404 9.099.065 3.77-2.08 8.319-5.525 11.504a23.1 23.1 0 0 0 .715-10.269c-2.73 4.679-9.684 9.489-11.829 14.559-2.145 5.004-2.665 13.778-12.999 15.793-13.389 2.6-18.003 4.94-26.517 8.449-.975-6.499 1.884-20.148 7.344-19.303 5.264.91 21.448-5.589 15.599-19.173-1.105 4.289-4.875 8.449-9.035 8.644 4.485-5.719 12.349-11.699 8.515-21.318a27.7 27.7 0 0 1-10.595 11.699c5.46-10.399.65-13.649-5.849-4.94-2.47 3.315-3.965 10.01-5.524 18.524-2.6-6.89-2.405-15.989-5.46-23.398-3.12-7.994 4.225-10.074 7.669-9.424 8.45 2.274 22.683 2.274 21.643-11.764-3.704 4.744-10.074 6.174-17.028 4.549 7.799-5.719 13.909-16.443 5.199-22.098a20.15 20.15 0 0 1-10.984 15.664 33.04 33.04 0 0 1-.195-16.119c-3.379 3.64-5.849 11.049-7.864 19.629-.195-8.45 1.43-14.494 2.6-19.044 1.82-6.564 6.239-2.274 12.999-1.82 6.629.39 15.598-3.249 13.909-12.153-2.21 3.574-6.825 4.939-11.504 4.549 5.654-3.445 15.468-9.489 10.074-18.848-2.275 3.51-2.99 6.499-9.555 7.604 1.69-3.899 1.95-9.554 7.15-11.699-9.099-1.885-14.299 4.095-17.029 13.454-1.04-6.499-2.339-8.839-2.599-13.649 4.939-5.394 5.459-16.118-5.2-18.458a22.76 22.76 0 0 0 .78 11.309c-5.005-2.99-12.024-4.615-16.768-.455 3.249 3.445 8.124 6.5 15.728 2.73-1.82 5.849-6.499 4.874-12.869 2.6 3.9 7.344 8.839 8.644 14.299 7.799 2.86 7.539 2.99 13.259-5.395 24.178.39-6.76-.065-11.829-5.459-17.354-4.68-4.549-8.449.195-1.17 10.269-4.42-3.249-9.36-9.749-10.854-16.313-1.43 8.059-.13 17.613 4.355 23.008-2.145 2.274-4.55-.26-8.125-5.85 1.3 17.809 8.905 21.253 19.109 17.289.26 9.749.26 18.783.845 30.547-5.915-8.579-13.454-14.949-17.614-16.509-1.3 4.745 3.575 11.049 6.37 14.494-4.225-.91-13.324-7.799-13.324-7.799-.91 7.864 9.294 15.208 15.923 18.458-7.799-.325-11.244-3.25-16.248-8.059.13 21.968 23.788 18.133 28.272 14.753l1.95 34.122c-6.694-1.17-6.174-3.249-11.894-3.704-15.923-.65-28.532-19.109-32.692-32.692-1.235 2.209-.26 4.549-1.365 7.344-2.6-6.694-5.85-15.339-10.334-19.368 1.17 3.899 1.3 7.864.91 15.143-1.56-4.679-2.925-6.174-3.055-11.699.065-4.224 4.095-7.344 3.9-13.323-.195-4.355-4.16-13.844-4.745-21.123-1.95 7.539-3.12 15.468-6.109 20.148 1.495-8.06 1.04-13.649 3.51-19.044 2.86-5.654 5.264-10.789 3.38-16.508-1.82 2.21-1.235 4.225-5.85 9.619-.975-5.849 5.98-15.274 12.739-19.043 4.744-2.47 10.724-11.439 6.824-17.549-4.484 3.25-6.5 7.54-12.804 14.949 4.55-17.548 16.249-22.228 30.223-22.293 3.054 0 9.294-1.105 11.049-5.2-3.9 1.495-8.58 1.69-12.74.91 3.055-4.484 9.36-3.9 15.339-3.9 4.615 0 11.894-.65 14.819-7.279a33 33 0 0 1-20.148 1.235c8.904-4.55 22.748-5.07 29.897-11.114-8.124-6.044-28.402 1.43-41.206 10.204 3.575-3.25 9.229-9.099 12.349-13.778-7.02-3.38-24.698 16.248-30.808 27.947-5.849 3.25-8.124 8.45-10.399 12.024 3.055-10.464 3.38-18.068 5.98-26.648C46.689 83.373 54.878 120.16 50.588 129c.52-9.749.065-22.163-3.9-28.598-6.109 4.68-6.629 32.172-.91 55.05-2.08-6.109-5.979-11.829-7.214-19.303-9.099 16.509 5.33 36.072 17.354 51.475-9.1-4.744-18.004-14.883-23.918-23.397 1.625 29.637 32.497 35.746 37.307 43.026-6.5-3.055-18.914-9.035-24.243-2.73a64.4 64.4 0 0 1 20.993 7.864c8.06 10.009 23.203 14.429 49.655 15.534"/></g><defs><clipPath id="a"><path fill="#fff" d="M0 0h600v300H0z"/></clipPath></defs></svg>