<svg xmlns="http://www.w3.org/2000/svg" width="600" height="300" fill="none"><g clip-path="url(#a)"><path fill="#298C08" d="M0 0h600v300H0z"/><path fill="#FFC621" d="M0 100h600v100H0z"/><path fill="#EF2118" d="M0 200h600v100H0z"/><path fill="#006BC6" d="M300.5 225c41.697 0 75.5-33.803 75.5-75.5S342.197 74 300.5 74 225 107.802 225 149.5s33.803 75.5 75.5 75.5"/><path fill="#FFC621" fill-rule="evenodd" d="m266.637 95.997-4.551 3.15 16.453 23.104 4.41-2.8zm20.583 54.609-6.791-4.76 2.801-8.892-33.676.49-9.802-7.491 45.998-.49 8.541-25.835 4.621 10.502zm53.56-49.498-4.411-3.361-17.013 22.684 3.921 3.291zm-45.788 36.056 2.45-7.841h9.312l-10.642-32.066 4.201-11.552 14.352 43.688 27.165.35-8.542 7.491zm63.431 35.846 1.89-5.181-26.815-9.311-1.96 4.901zm-48.379-32.485 8.192-.07 2.87 8.821 27.165-19.953 12.322.42-37.176 27.094 8.051 26.045-9.802-5.881zm-13.862 71.412 5.531.14.21-28.355-5.181-.35zm15.403-56.22 2.66 7.772-7.491 5.601 27.585 19.393 3.5 11.762-37.526-26.605-22.054 15.893 2.45-11.202 30.806-22.614zm-72.323 9.102 1.61 5.251 27.095-8.542-1.4-5.041zm58.25-2.801-6.581 4.971-7.561-5.391-9.942 32.206-10.082 7.001 13.652-43.898-21.983-16.102 11.412-1.121z" clip-rule="evenodd"/></g><defs><clipPath id="a"><path fill="#fff" d="M0 0h600v300H0z"/></clipPath></defs></svg>