<svg xmlns="http://www.w3.org/2000/svg" width="600" height="300" fill="none"><g clip-path="url(#a)"><path fill="#039" d="M0 0h600v300H0z"/><path fill="#FC0" d="m300.117 45-4.519 15.065 7.532 1.507z"/><path fill="#FC0" d="m300.117 45 4.52 15.065-7.533 1.507z"/><path fill="#FC0" d="m314.445 55.41-15.724.357.895 7.63z"/><path fill="#FC0" d="m314.445 55.41-12.931 8.954-3.761-6.699z"/><path fill="#FC0" d="m308.974 72.254-5.198-14.845-6.98 3.209z"/><path fill="#FC0" d="m308.975 72.253-12.512-9.531 5.209-5.647z"/><path fill="#FC0" d="m285.789 55.41 15.725.357-.895 7.63z"/><path fill="#FC0" d="m285.789 55.41 12.932 8.954 3.76-6.699z"/><path fill="#FC0" d="m291.262 72.254 5.199-14.845 6.979 3.209z"/><path fill="#FC0" d="m291.262 72.253 12.511-9.531-5.208-5.647zM300.117 225.784l-4.519 15.066 7.532 1.506z"/><path fill="#FC0" d="m300.117 225.784 4.52 15.066-7.533 1.506z"/><path fill="#FC0" d="m314.445 236.194-15.724.357.895 7.63z"/><path fill="#FC0" d="m314.445 236.194-12.931 8.954-3.761-6.698z"/><path fill="#FC0" d="m308.974 253.038-5.198-14.845-6.98 3.209z"/><path fill="#FC0" d="m308.975 253.038-12.512-9.532 5.209-5.646z"/><path fill="#FC0" d="m285.789 236.194 15.725.357-.895 7.63z"/><path fill="#FC0" d="m285.789 236.194 12.932 8.954 3.76-6.698z"/><path fill="#FC0" d="m291.262 253.038 5.199-14.845 6.979 3.209z"/><path fill="#FC0" d="m291.262 253.038 12.511-9.532-5.208-5.646zM209.725 135.392l-4.52 15.066 7.533 1.506z"/><path fill="#FC0" d="m209.725 135.392 4.519 15.066-7.533 1.506z"/><path fill="#FC0" d="m224.053 145.802-15.725.357.895 7.63z"/><path fill="#FC0" d="m224.053 145.802-12.932 8.954-3.76-6.699z"/><path fill="#FC0" d="m218.582 162.646-5.199-14.845-6.98 3.209z"/><path fill="#FC0" d="m218.582 162.645-12.511-9.531 5.208-5.647z"/><path fill="#FC0" d="m195.398 145.802 15.725.357-.895 7.63z"/><path fill="#FC0" d="m195.399 145.802 12.931 8.954 3.761-6.699z"/><path fill="#FC0" d="m200.869 162.646 5.199-14.845 6.98 3.209z"/><path fill="#FC0" d="m200.869 162.645 12.512-9.531-5.209-5.647zM247.176 85.047l12.511-9.531-5.208-5.647z"/><path fill="#FC0" d="m247.176 85.047 5.199-14.845 6.979 3.209z"/><path fill="#FC0" d="m241.701 68.203 12.932 8.954 3.76-6.698z"/><path fill="#FC0" d="m241.701 68.203 15.725.357-.895 7.63z"/><path fill="#FC0" d="m256.029 57.794-4.519 15.065 7.532 1.506z"/><path fill="#FC0" d="m256.029 57.794 4.52 15.065-7.533 1.506z"/><path fill="#FC0" d="m264.885 85.047-12.512-9.531 5.209-5.647z"/><path fill="#FC0" d="m264.885 85.047-5.199-14.845-6.98 3.209z"/><path fill="#FC0" d="m270.357 68.203-12.931 8.954-3.761-6.698z"/><path fill="#FC0" d="m270.358 68.203-15.725.357.895 7.63zM231.373 118.559l-5.199-14.845-6.979 3.209z"/><path fill="#FC0" d="m231.373 118.559-12.511-9.532 5.208-5.646z"/><path fill="#FC0" d="m213.662 118.559 12.512-9.532-5.209-5.646z"/><path fill="#FC0" d="m213.662 118.559 5.199-14.845 6.98 3.209z"/><path fill="#FC0" d="m208.19 101.715 12.931 8.954 3.761-6.699z"/><path fill="#FC0" d="m208.189 101.715 15.725.357-.895 7.63z"/><path fill="#FC0" d="m236.846 101.715-12.932 8.954-3.76-6.699z"/><path fill="#FC0" d="m236.846 101.715-15.725.357.895 7.63z"/><path fill="#FC0" d="m222.517 91.305 4.52 15.066-7.533 1.506z"/><path fill="#FC0" d="m222.518 91.305-4.52 15.066 7.533 1.506zM236.863 192.324l-15.724.357.895 7.63z"/><path fill="#FC0" d="m236.863 192.324-12.931 8.954-3.761-6.698z"/><path fill="#FC0" d="m231.39 209.168-5.198-14.845-6.98 3.209z"/><path fill="#FC0" d="m231.391 209.168-12.512-9.532 5.209-5.646z"/><path fill="#FC0" d="m213.679 209.168 12.512-9.532-5.208-5.646z"/><path fill="#FC0" d="m213.68 209.168 5.199-14.845 6.979 3.209z"/><path fill="#FC0" d="m222.535 181.915 4.52 15.065-7.533 1.506z"/><path fill="#FC0" d="m222.535 181.915-4.519 15.065 7.532 1.506z"/><path fill="#FC0" d="m208.207 192.324 15.725.357-.895 7.63z"/><path fill="#FC0" d="m208.207 192.324 12.932 8.954 3.76-6.698zM269.559 222.647l-15.725.357.895 7.63z"/><path fill="#FC0" d="m269.558 222.648-12.931 8.954-3.76-6.699z"/><path fill="#FC0" d="m264.086 239.491-5.199-14.845-6.98 3.209z"/><path fill="#FC0" d="m264.086 239.491-12.512-9.532 5.209-5.646z"/><path fill="#FC0" d="m246.375 239.491 12.511-9.532-5.208-5.646z"/><path fill="#FC0" d="m246.375 239.491 5.199-14.845 6.98 3.209z"/><path fill="#FC0" d="m255.23 212.237 4.52 15.066-7.533 1.506z"/><path fill="#FC0" d="m255.231 212.237-4.52 15.066 7.533 1.506z"/><path fill="#FC0" d="m240.904 222.647 15.725.357-.895 7.63z"/><path fill="#FC0" d="m240.904 222.648 12.932 8.954 3.76-6.699zM390.51 135.392l4.519 15.066-7.532 1.506z"/><path fill="#FC0" d="m390.51 135.392-4.52 15.066 7.533 1.506z"/><path fill="#FC0" d="m376.181 145.802 15.725.357-.895 7.63z"/><path fill="#FC0" d="m376.182 145.802 12.931 8.954 3.761-6.699z"/><path fill="#FC0" d="m381.653 162.646 5.198-14.845 6.98 3.209z"/><path fill="#FC0" d="m381.652 162.645 12.512-9.531-5.209-5.647z"/><path fill="#FC0" d="m404.838 145.802-15.725.357.895 7.63z"/><path fill="#FC0" d="m404.838 145.802-12.932 8.954-3.76-6.699z"/><path fill="#FC0" d="m399.365 162.646-5.199-14.845-6.979 3.209z"/><path fill="#FC0" d="m399.365 162.645-12.511-9.531 5.208-5.647zM353.059 85.047l-12.512-9.532 5.209-5.646z"/><path fill="#FC0" d="m353.058 85.047-5.198-14.845-6.98 3.209z"/><path fill="#FC0" d="m358.533 68.203-12.931 8.953-3.761-6.698z"/><path fill="#FC0" d="m358.533 68.203-15.724.356.895 7.63z"/><path fill="#FC0" d="m344.205 57.793 4.52 15.065-7.533 1.507z"/><path fill="#FC0" d="m344.205 57.793-4.519 15.065 7.532 1.507z"/><path fill="#FC0" d="m335.349 85.047 12.512-9.532-5.208-5.646z"/><path fill="#FC0" d="m335.35 85.047 5.199-14.845 6.979 3.209z"/><path fill="#FC0" d="m329.877 68.203 12.931 8.954 3.761-6.699z"/><path fill="#FC0" d="m329.877 68.203 15.724.357-.894 7.63zM368.862 118.559l5.198-14.845 6.98 3.209z"/><path fill="#FC0" d="m368.861 118.559 12.512-9.532-5.209-5.646z"/><path fill="#FC0" d="m386.572 118.559-12.511-9.532 5.208-5.646z"/><path fill="#FC0" d="m386.572 118.559-5.199-14.845-6.979 3.209z"/><path fill="#FC0" d="m392.045 101.715-12.932 8.954-3.76-6.699z"/><path fill="#FC0" d="m392.045 101.715-15.725.357.895 7.63z"/><path fill="#FC0" d="m363.389 101.715 12.931 8.954 3.761-6.699z"/><path fill="#FC0" d="m363.389 101.715 15.724.357-.895 7.63z"/><path fill="#FC0" d="m377.717 91.305-4.52 15.066 7.533 1.506z"/><path fill="#FC0" d="m377.717 91.305 4.519 15.066-7.532 1.506zM363.371 192.324l15.725.357-.895 7.63z"/><path fill="#FC0" d="m363.371 192.324 12.932 8.954 3.76-6.698z"/><path fill="#FC0" d="m368.844 209.168 5.199-14.845 6.979 3.209z"/><path fill="#FC0" d="m368.844 209.168 12.511-9.532-5.208-5.646z"/><path fill="#FC0" d="m386.555 209.168-12.512-9.532 5.209-5.646z"/><path fill="#FC0" d="m386.554 209.168-5.198-14.845-6.98 3.209z"/><path fill="#FC0" d="m377.699 181.915-4.519 15.065 7.532 1.506z"/><path fill="#FC0" d="m377.699 181.915 4.52 15.065-7.533 1.506z"/><path fill="#FC0" d="m392.027 192.324-15.724.357.895 7.63z"/><path fill="#FC0" d="m392.027 192.324-12.931 8.954-3.761-6.698zM330.676 222.647l15.724.357-.895 7.63z"/><path fill="#FC0" d="m330.676 222.647 12.931 8.954 3.761-6.698z"/><path fill="#FC0" d="m336.149 239.491 5.198-14.845 6.98 3.209z"/><path fill="#FC0" d="m336.148 239.491 12.512-9.532-5.209-5.646z"/><path fill="#FC0" d="m353.86 239.491-12.512-9.532 5.208-5.646z"/><path fill="#FC0" d="m353.859 239.491-5.199-14.845-6.979 3.209z"/><path fill="#FC0" d="m345.004 212.237-4.52 15.066 7.533 1.506z"/><path fill="#FC0" d="m345.004 212.237 4.519 15.066-7.532 1.506z"/><path fill="#FC0" d="m359.332 222.647-15.724.357.894 7.63z"/><path fill="#FC0" d="m359.332 222.647-12.932 8.954-3.76-6.698z"/></g><defs><clipPath id="a"><path fill="#fff" d="M0 0h600v300H0z"/></clipPath></defs></svg>