<svg xmlns="http://www.w3.org/2000/svg" width="600" height="300" fill="none"><g clip-path="url(#a)"><path fill="#fff" d="M0 0h600v300H0z"/><path fill="#00247D" d="M0 0h600v300H0z"/><path fill="url(#b)" fill-rule="evenodd" stroke="#fff" stroke-width="4.862" d="M399.644 199.782a7 7 0 0 0-1.206 0c-2.128.426-5.391 8.03-7.094 12.507-2.909 3.838-4.399 6.822-5.534 9.026-.496.852-1.206 1.847-.993 2.984-4.257 1.137-4.469 5.259-4.469 6.823 0 1.776.496 2.629.496 2.629l2.554 5.33v.071c2.696 6.396 6.669 14.853 9.01 15.492 3.122 1.066 11.351-2.345 17.594-8.314 11.965 5.595 24.784 8.516 37.742 8.599 14.473 0 27.456-3.909 37.601-8.599 6.243 5.969 14.472 9.38 17.736 8.314 2.128-.71 6.172-9.238 8.939-15.492l2.483-5.401s.496-.853.496-2.558c0-1.564-.212-5.686-4.469-6.823.213-1.137-.426-2.132-.922-3.055-1.206-2.275-2.696-5.259-5.463-9.239-1.845-4.406-5.108-11.868-7.094-12.223-2.98-.569-9.223 1.066-9.223 1.705v.284l-12.557 13.219c0 .355.638 9.949 3.05 18.477-9.857 3.95-20.255 5.922-30.718 5.827-12.061 0-22.348-2.416-30.648-5.898a103.4 103.4 0 0 0 3.05-18.477l-12.486-13.148v-.284c0-.497-4.824-1.776-7.875-1.776Zm3.122 16.345c1.632 0 3.263 1.563 4.611 3.127l-.071.923a59 59 0 0 1-1.986 7.249 53 53 0 0 1-8.655-7.035c1.348-1.635 3.547-3.838 5.817-4.122h.284zm89.815 0h.284c2.341.426 4.469 2.629 5.888 4.264a52.8 52.8 0 0 1-8.726 7.106 59 59 0 0 1-1.986-7.32 12 12 0 0 1-.142-.923c1.419-1.635 3.05-3.056 4.682-3.056zm-101.024 18.761c1.702 1.421 3.831 3.127 6.456 4.833a7.1 7.1 0 0 1-2.27 1.137c-1.136.284-2.2.213-3.335 0a13.2 13.2 0 0 1-.709-3.98 53 53 0 0 1-.142-1.99Zm112.233 0-.071 1.99a13.5 13.5 0 0 1-.709 3.909 6.6 6.6 0 0 1-2.936.118 6.9 6.9 0 0 1-2.74-1.184c2.625-1.706 4.825-3.412 6.456-4.833Z" clip-rule="evenodd"/><path fill="url(#c)" fill-rule="evenodd" stroke="#000" stroke-width=".583" d="M409.08 221.599s-4.327-7.888-7.874-7.249c-3.619.498-7.095 5.543-7.237 5.828a35.5 35.5 0 0 1-5.321-6.752c.213-.284 5.534-14.852 8.514-15.492 2.837-.64 9.01 1.066 9.01 1.635z" clip-rule="evenodd"/><path fill="url(#d)" fill-rule="evenodd" stroke="#000" stroke-width=".583" d="M418.729 213.142c0 .569-1.561 21.462-7.733 28.711-6.101 7.32-16.317 11.797-20.006 10.731-3.547-1.137-11.706-22.244-11.706-22.244s8.655 10.092 15.111 8.386c6.456-1.634 10.358-14.284 11.564-20.538 1.206-6.112.213-18.264.213-18.264l12.628 13.218z" clip-rule="evenodd"/><path fill="url(#e)" fill-rule="evenodd" stroke="#000" stroke-width=".583" d="M484.777 221.599s4.399-7.888 7.946-7.249c3.547.498 6.953 5.543 7.236 5.828a35.4 35.4 0 0 0 5.321-6.752c-.284-.284-5.604-14.852-8.513-15.492s-9.081 1.066-9.081 1.635z" clip-rule="evenodd"/><path fill="url(#f)" fill-rule="evenodd" stroke="#000" stroke-width=".583" d="M475.129 213.142c0 .569 1.561 21.462 7.733 28.711 6.172 7.32 16.317 11.797 20.006 10.731 3.547-1.137 11.777-22.244 11.777-22.244s-8.726 10.092-15.182 8.386c-6.385-1.634-10.287-14.284-11.493-20.538-1.277-6.112-.284-18.264-.284-18.264z" clip-rule="evenodd"/><path fill="url(#g)" fill-rule="evenodd" stroke="#000" stroke-width=".729" d="M391.345 212.076c-2.838 3.909-4.327 6.965-5.604 9.239-1.206 2.274-.426 5.472 2.27 9.949 3.05 4.761 27.668 23.736 59.664 23.736 32.067 0 56.613-18.904 59.593-23.736 2.838-4.548 3.547-7.675 2.341-9.949s-2.767-5.33-5.605-9.239c0 5.899-20.361 27.36-56.329 27.36s-56.33-21.461-56.33-27.36Z" clip-rule="evenodd"/><path fill="url(#h)" fill-rule="evenodd" stroke="#000" stroke-width=".583" d="m502.372 249.457 5.534-10.731-2.767-2.274c-.71 2.7-3.902 3.624-4.47 7.106-.496 3.34 2.129 6.68 1.703 5.899Z" clip-rule="evenodd"/><path fill="url(#i)" fill-rule="evenodd" stroke="#000" stroke-width=".583" d="M507.409 246.401s.994-4.833-2.128-5.401c-3.122-.569-4.824 2.7-4.328 1.421.426-1.421 2.271-2.842 2.625-7.604.213-4.761-.283-7.32-.283-7.32s1.277-6.182 6.243-5.33c5.108.924 5.32 5.401 5.32 7.036a6.4 6.4 0 0 1-.425 2.487z" clip-rule="evenodd"/><path fill="#000" d="m489.247 230.198 1.064 1.99.709-.427-.496-1.421.071-.213 1.206-.853 3.121 6.183v.355l-.709.498.354.568 2.98-2.132-.284-.568-.709.426h-.213l-3.122-6.254 1.136-.853h.283l.71 1.137.709-.497-1.064-1.99-5.675 4.051zm-7.449 4.761.283.569.639-.284.213.071 2.766 6.324-.071.285-.567.426.213.569 2.908-1.777-.212-.569-.639.285h-.284l-1.277-3.056 3.051-1.706 1.277 2.843v.355l-.709.427.283.639 2.98-1.776-.284-.569-.638.284-.213-.142-2.696-6.254v-.284l.568-.426-.213-.569-2.909 1.777.213.568.709-.355.213.142 1.064 2.559-2.979 1.776-1.136-2.629.142-.284.568-.356-.284-.639zm-1.703 5.401.142.569.851-.213.284.071.638 2.629-.567.284c-1.774.569-3.122-.355-3.76-2.629-.568-2.274.142-3.98 1.773-4.548.324-.1.662-.125.994-.071l.212.142.568 1.208.851-.284-.496-2.132c-.923 0-1.774.142-2.483.426-2.554.924-3.689 3.198-3.051 5.827.709 2.63 2.767 3.838 5.108 3.056a7.7 7.7 0 0 0 2.412-1.421l-.851-2.914.142-.284.638-.284-.213-.64zm-6.882 7.32 3.335-1.208-.213-.64-.71.143-.212-.072-1.845-6.822.071-.213.709-.355-.142-.569-3.334 1.137.213.64.709-.214.284.143 1.774 6.751-.142.284-.71.284.213.64zm-18.09 3.269 5.888-.568-.213-2.417-.709.071-.142 1.422-.142.213-2.483.284-.284-3.482 1.419-.142.213.213.142.924h.709l-.284-3.127h-.709v.995l-.142.284-1.419.071-.284-3.127 2.2-.213.141.142.284 1.208.781-.071-.142-2.132-5.534.569v.639h.71l.212.214.497 7.035-.071.213-.709.143v.71zm-8.798-8.741v.711h.71l.142.213.071 7.035-.142.214-.639.142v.568h3.122v-.639h-.71l-.141-.285v-3.411h3.121v3.269l-.142.213-.638.072v.71h3.121v-.71h-.709l-.071-.285-.142-7.106.142-.214h.709v-.71h-3.192v.71l.709.072.142.213v2.842l-3.05.071-.142-2.842.213-.213h.638v-.711zm-6.668-.213v2.345h.709l.213-1.421.142-.214h1.348v7.249l-.213.284h-.709v.711h3.263v-.639l-.709-.072-.213-.284.071-7.106h1.277l.212.142.213 1.421h.71v-2.345zm-10.145 7.533 5.675.284.142-2.345h-.709l-.213 1.35-.142.142-2.483-.071.142-3.553 1.348.142.142.213.142.995h.567l.142-3.056h-.639l-.141.853-.142.213h-1.419l.142-3.269 2.128.142.142.143.071 1.208h.78v-2.061l-5.321-.285v.64l.71.142.071.213-.284 7.036-.142.213h-.709v.711m-13.196-3.838 3.122 1.137.142-.568-.71-.356v-.284l1.774-6.751.213-.142.709.213.142-.569-3.051-1.208-.142.64.639.284.142.284-1.916 6.681-.142.213-.709-.213zm-5.392-2.345c.55.499 1.175.884 1.845 1.137 1.703.569 3.051-.142 3.405-1.563.103-.385.124-.792.063-1.188a2.7 2.7 0 0 0-.417-1.086l-1.277-1.422c-.426-.639-.568-1.137-.426-1.776.213-.64.78-.995 1.561-.711.283.142.567.284.709.497v.214l-.142 1.421.71.213.567-1.99a5.6 5.6 0 0 0-1.773-1.208c-1.419-.568-2.696.213-3.122 1.564a2.7 2.7 0 0 0-.05 1.027c.049.343.163.671.334.962.284.711.709 1.066 1.064 1.422.638.71.851 1.421.709 2.061-.212.71-.851 1.066-1.702.71a2.8 2.8 0 0 1-.852-.568l-.071-.213.284-1.564-.78-.284zm-6.952-3.269 5.25 2.843.851-2.132-.709-.356-.639 1.208-.213.072-2.199-1.28 1.277-3.055 1.277.71v.213l-.213.924.568.356 1.135-2.843-.568-.284-.496.781-.213.143-1.206-.711 1.135-2.843 1.915 1.066.071.213-.283 1.137.709.356.709-1.848-4.824-2.771-.284.568.568.426.071.285-2.554 6.396h-.213l-.638-.214zm-.781-10.66-2.624-2.061-.355.569.496.497.071.284-3.263 5.828-.284.071-.496-.355-.355.568 2.554 1.99c.993.711 1.773 1.066 2.554.995 1.135-.142 2.128-.853 2.838-2.132 1.277-2.416.922-4.69-1.136-6.254m-1.135 0 .568.427c1.419 1.066 1.561 2.629.355 4.69-1.206 2.132-2.483 2.558-3.831 1.421l-.568-.284 3.547-6.183zm20.787 9.239-.071.568.639.213.07.285-1.206 6.893-.212.142h-.71v.569l2.909.71.142-.568-.71-.284-.071-.214.497-2.913h.213c1.064.284 1.277.924 1.277 2.274.071.639.071 1.208.567 1.919.213.284.497.568.994.639q.527.117 1.064.142l.071-.568h-.071c-.71-.213-1.064-.498-1.064-1.279-.142-.711 0-1.422-.284-2.132a1.95 1.95 0 0 0-.922-.995c1.206 0 1.915-.64 2.128-1.777.284-1.421-.355-2.487-2.058-2.843zm2.128 1.208.426.142c.993.284 1.419.995 1.206 2.061-.213 1.208-.851 1.634-1.986 1.279l-.355-.071.638-3.411zm38.452.71.071.711h.709l.213.142.993 6.965-.141.213-.71.213.142.569 3.192-.569v-.711l-.78.143-.213-.214-.425-2.842h.212c1.136-.356 1.561.142 2.129 1.35.213.569.354 1.137 1.064 1.563q.426.32 1.277.214a8 8 0 0 0 1.135-.356l-.071-.639h-.142c-.78.213-1.206 0-1.561-.64-.283-.568-.496-1.279-.922-1.776-.284-.356-.709-.569-1.277-.569 1.206-.569 1.774-1.421 1.632-2.629-.213-1.422-1.206-2.132-2.98-1.777zm2.483.356h.497c1.135-.284 1.773.142 1.986 1.279.142 1.137-.355 1.848-1.561 2.132h-.425l-.568-3.411z"/><path fill="url(#j)" fill-rule="evenodd" stroke="#000" stroke-width=".583" d="m391.557 249.457-5.534-10.731 2.767-2.274c.71 2.7 3.902 3.624 4.47 7.106.496 3.34-2.129 6.68-1.703 5.899Z" clip-rule="evenodd"/><path fill="url(#k)" fill-rule="evenodd" stroke="#000" stroke-width=".583" d="M386.449 246.401s-.993-4.833 2.128-5.401c3.122-.569 4.825 2.7 4.399 1.421-.497-1.421-2.341-2.842-2.625-7.604-.284-4.761.213-7.32.213-7.32s-1.206-6.182-6.243-5.33c-5.037.924-5.321 5.401-5.321 7.036 0 1.563.497 2.487.497 2.487z" clip-rule="evenodd"/><path fill="#0072C4" fill-rule="evenodd" stroke="#fff" stroke-width="1.896" d="M447.602 233.325s-58.174-19.188-57.748-91.959L390.28 45h114.432l.426 95.797c.355 72.772-57.748 92.457-57.748 92.457z" clip-rule="evenodd"/><path fill="#BCBCBC" fill-rule="evenodd" d="m397.8 68.096 1.419-1.421c.922-.569 1.702-1.208 2.625-1.706.709-.426 2.128-.781 2.625-1.137a6.8 6.8 0 0 0 2.128-1.99c.142-1.208.355-2.131.355-3.553a8.5 8.5 0 0 1 2.554-1.421c1.206-.427 1.419-.995 2.696-1.208.709-.284 1.986-.284 3.121-.284s1.916.994 2.98 1.137c1.277.568 1.844.995 2.908 1.99.413.863 1.05 1.6 1.845 2.131.78.427 1.561 1.137 2.412 1.422 1.064.64 1.916.995 2.696 1.99.709.568.993 1.42 1.632 1.918a19 19 0 0 0 2.412 1.99c1.064.782 2.128 1.422 3.689 1.208.922 0 1.844-.213 2.838 0 1.277 0 2.412 0 3.405.356 1.277 0 2.27.142 3.405.284a25 25 0 0 0 3.335.213c1.064.355 2.128.284 3.405.284h6.74c1.206 0 2.412.071 3.334.285a24 24 0 0 0 3.334-.285c1.348 0 2.341-.213 3.548-.284h4.114c1.064.355 2.412.569 3.122 1.208.993.284 1.419.782 2.412 1.066.93.494 1.75 1.17 2.412 1.99a14.6 14.6 0 0 1 1.915 3.127c.71 1.066.923 2.345 1.419 3.695.284 1.28.497 2.488.497 3.909.284 1.208.213 2.558.213 3.98-.213 1.279-.284 2.7-.71 3.908 0 1.422-.283 2.63-.496 3.696-.142 1.137-.426 1.919-.497 3.34v3.98c0 1.279-.284 2.274-.426 3.624a44 44 0 0 0-1.702 4.264 8.2 8.2 0 0 0-1.916 2.274c-.496.355-.78.924-.709 1.137.993.355.709 1.137.709 2.487l.497 3.696c.071 1.421.355 2.132.709 3.127.426.568.497.284-.496.284-.71.569-1.419.284-1.632-.853a7.6 7.6 0 0 1-.993-3.127c-.142-1.279-.355-2.558-.71-3.411-.141-1.563-.496-1.563-1.915-1.705-.71-.64-1.561-.782-2.838-.782-1.419 0-1.419-.142-1.419 1.421v3.98c-.283 1.137-.709 1.99-1.064 3.056-.709.568-.993 1.563-1.915 2.274-.355 1.279-.994 1.421-2.129 1.705l-1.419-1.989c.71-1.28 1.206-1.422 1.632-2.843a23 23 0 0 0 1.206-2.843c-.496-.853-.922-1.279-1.419-2.487a16.5 16.5 0 0 1-1.206-3.127c-.78-.284-2.057-.355-2.625-.853-1.206-.284-1.489 1.208-2.837 1.208h-3.406c-1.49 0-1.844.853-3.121.782-.355.142-1.277 0-2.625 0-1.064.426-2.27.284-3.406.284-1.206 0-2.128-.355-3.121-.568-1.064-.356-2.128-.711-3.334-.853-1.419 0-1.916.142-2.838.853-.71.497-1.845 1.634-2.625 2.274-.355.924-.568 2.487-1.064 3.624-.213 1.208-.639 1.848-.852 2.843a11.8 11.8 0 0 0-.709 3.411c-.142 1.848-.497 1.635-1.49 1.137-.426-.853-1.064-1.634-1.419-2.558.142-1.422.497-2.132.497-3.625-.284-1.208-.781-1.066-1.419-.355 0 1.492 0 2.63-.568 3.411a3.8 3.8 0 0 1-.516 1.263c-.243.378-.55.698-.902.94a3.34 3.34 0 0 1-1.916 1.99c-.142 0 0-.355 0-1.137-.568-1.208 0-2.345 0-3.909 0-1.421-.142-2.345.284-3.624 0-1.421-.568-2.7-.71-3.695-.496-1.066-.78-1.564-1.986-1.99-.851-.427-2.128-.853-2.625-1.777-.557-.863-1.32-1.529-2.199-1.919-1.064-.426-1.632-.852-2.412-1.421-.71-.924-1.348-1.279-1.632-2.487-.497-.853-.568-2.488-.922-3.696a14 14 0 0 0-.71-3.34 15.7 15.7 0 0 0-.709-3.411l-.781-3.695c0-1.35 0-2.7-.283-3.909v-3.98c-.142-1.208-.213-2.842-.426-3.695 0-1.493-.213-2.345-.568-3.411-.496-.995-.496-1.422-1.418-1.635-.568.853-1.561 1.28-2.838 1.422-.852-.214-2.129-.427-3.122-.853-.993-.285-1.561-.711-2.341-1.208a25 25 0 0 0-1.49-2.132c-.142-1.493-.425-2.275-.496-3.767 0-1.066 0-.426.993-1.919" clip-rule="evenodd"/><path fill="#FEFEFE" fill-rule="evenodd" d="m411.989 78.33.213-.284c-.426.497-.284.213.709-.214.426-.284 1.419-.995 1.774-1.421.425-.213 1.206-.497 1.56-.924a8.2 8.2 0 0 1 1.561-1.563c.639-.71 1.206-.924 1.987-1.422.922-.142 1.347-.568 2.199-.213.851.213 1.206.213 1.844-.64.71-.426 1.49-.994 1.774-1.705v-1.28c0 1.28-.284 1.778-1.064 2.133-.497.782-1.277 1.563-1.561 2.274-.497.853-.638 1.35-1.135 1.777-.497.64-1.206.995-1.419 1.99.284.497 0 .71.568.781.496.498.993.284 1.702 0a8.5 8.5 0 0 0 1.348-2.345l1.206-2.06c.568-.427.922-.783 1.135-1.564.71-.427 1.277-.924 1.774-1.422.497-.284.709-.64 1.419-.781a3.94 3.94 0 0 1-.497 2.203c-.142 1.137-.071 1.634.213 2.345.497.426.426.71.709 1.421.284-.71.426-1.919.497-2.772v-.142c0 .782 0 1.99-.213 2.559 0 1.137.284 1.705.568 2.558.213.498.496.71.78.995 0-1.137.355-1.848.426-2.914l.284 2.772c0 .924.354 1.635.709 2.345.355.284.497 1.066.639.427.425-1.422.425-2.843.709-4.407 0-.71 0-1.847.355-2.345l-.426 2.345c.071-.71.142-1.776.426-2.345v-.284q.283 1.62.354 3.269c0 .853-.071 1.706.142 2.558.497-.284.852-.995 1.206-1.776a10.8 10.8 0 0 1 1.348-2.203l-1.419 2.132c.393-.775.869-1.492 1.419-2.132v-.142q-.14 1.346-.142 2.7c0 .924 0 1.99.142 2.63.213 1.066.426 1.208.497 2.345 0 .568-.071 1.208.142 1.421.709.213.709-.213.851-1.421 0-1.208.284-2.132.355-3.34 0-1.493.142.213.355.71.31.859.478 1.774.496 2.7 0 .57 0 1.138.142 1.422.71-.355.922-1.208 1.419-1.634.284-.995.709-1.422.993-1.99.851-.213.851-.64.851-1.777 0-.995-.07-1.99.213-2.843q.386-1.294.639-2.629c.284-.142.638.355.851.853.355.64.284 1.563.284 2.558.201.842.511 1.655.922 2.416a9 9 0 0 0 1.135 1.99c.213.64.213 1.777.213 2.63.71-.853.71-2.132.781-3.412-.071-.852-.071-1.99-.284-2.842 0-.853-.213-1.706-.355-2.345-.497-.285-.709-.569-.142-1.422.497-.497 1.135-.284 1.987-.142.496.498.638.782.709 1.99 0 1.066 0 1.848.355 2.558.284.569.638.995.851 1.99.213.285.426.711.78.213.213-.568.355-1.705.568-2.416.142-.71.426-1.137.78-1.421 0 1.137 0 1.777.426 2.63l.78 2.202c.355.285.426.924.923 1.209l.142-3.198v-2.843c0-.853.283-1.421.496-2.132.568.782.568 1.066.568 2.132.496-.213.567-.71.78-1.35.355-.427.568-.569.71.426.071 1.066.283 1.99.496 2.985.355.426.71 1.563 1.135 1.99a9.7 9.7 0 0 0 1.064 1.634c.284.569.284.995 1.065 1.137 0-1.35 0-2.7-.213-3.98 0-1.136-.213-1.563-.355-2.629-.284-.64-.426-1.705-.355-1.99a6.4 6.4 0 0 1 1.561 2.416l1.064 2.63c.487.611.915 1.278 1.277 1.99.639.568.923 1.208 1.561 1.776.284.356 1.064.569 1.206.356 0-1.137-.213-2.132-.497-3.127a5.8 5.8 0 0 0-.567-2.416c-.71-.64-1.206-1.066-1.561-1.99-.213-.284-.213-.427-.284-.995a14.7 14.7 0 0 1 2.412 2.771 3.86 3.86 0 0 0 1.348 1.422c.284.426 1.277.995 1.987 1.137.421.617 1.025 1.046 1.703 1.208l-1.703-1.137c.432.591 1.034.993 1.703 1.137v.284a8.3 8.3 0 0 0-.994-3.269 5.03 5.03 0 0 0-1.561-2.132 5.1 5.1 0 0 0-1.702-1.776c-.426-.64-1.135-1.706-1.561-1.99.78-.64 1.632.284 2.412.71.71.853 1.277 1.92 1.703 2.417.399.96.925 1.846 1.561 2.63.709.496 1.206.923 1.844 1.563.993.284.639-.072.355-.995-.355-1.137 0-1.137.709-.427.426.427.994.995 1.703 1.421.213.427.709.711 1.135.427.213-.284.213-.284.213-.569-.355-1.279-.71-2.274-1.561-2.63-.355-.639-1.064-1.207-1.561-1.776-.354-.568-.709-.924-.993-1.634l.993 1.563c-.354-.568-.709-.853-.993-1.563h-.142c.993 0 1.419.355 2.129.853a3.66 3.66 0 0 1 1.56 1.42c.355.427.852.925 1.206 1.493l1.703 1.422c.568.852.71 1.42.71 2.558.283.64.354 1.777.496 2.416-.142 1.137-.497.213-.567-.426-.071-.853-.426-.782-.994-.569 0 1.208.142 1.564.497 2.416a5.05 5.05 0 0 1-.639 1.99c-.425.285-.496-.568-.851-.995 0-1.208-.355-1.42-1.064-1.99v.782c.426.853.851 1.635.851 2.772.29.838.434 1.73.426 2.63 0 .994 0 1.918-.213 2.842 0 .995-.213 1.421-.213 2.558v5.615a15.5 15.5 0 0 0-.142 2.558l.142-2.558c-.142.71-.142 1.563-.142 2.558v.142c-.283-.995-.709-1.848-.851-2.843a6.2 6.2 0 0 1-1.135-2.132c-.213-.852-.213-1.847-.355-2.558-.284-.71-.567-1.421-1.064-.995-.213 1.422 0 2.345.497 3.767.283.924.283 1.776.567 2.629.355 1.066.71 1.137 0 2.345-.425.711-.567.853-.709 1.635-.639.355-.781.568-.852 1.421-.212-.782-.709-1.705-.993-2.629-.354-.995-.709-1.99-.851-2.843-.426-.64-.922-1.706-1.419-2.132l-1.277-2.345c-.709-.924-.851-1.421-1.419-1.848-.071-.355-.284-.924-.709-.568 0 .924 0 1.918.213 2.771.212 1.137.496 1.777.567 2.985v2.132c-.426-1.137-.922-2.061-1.206-3.127-.426-.64-.78-1.777-1.206-2.132-.284-.853-.497-1.492-.851-2.06-.071-.57-.355-.57-.568-.996 0 1.137.355 1.564.568 2.345.354.853.425 2.061.354 2.488-.425-1.422-.851-2.914-1.418-4.264a18.4 18.4 0 0 1-1.277-2.63c-.568-.64-1.065-.71-1.561-1.137a3.1 3.1 0 0 1-1.206-.995c.142 1.066.496 1.777.709 2.559.142.995.497 1.847.639 2.63-.142 1.42-.426-.356-.71-.996-.142-1.137-.496-1.705-.78-2.345-.497-.426-.922-1.066-1.419-1.421-.497-.213-.284 0-.284.71 0 1.28 0 2.132.355 2.843.355.569.355 1.35.355 2.416-.071.995-.213 1.706-.213 2.843v1.492c-.355-.781-.71-1.35-1.064-2.345-.497-.924-.71-1.634-1.135-2.63-.355-.141-1.065-.284-1.419 0 .142.996.496 1.422.567 2.63-.709.711-.567.995-.993-.213-.426-.924-.851-.853-1.419-1.421-.851-.071-.567-.711-.78-1.635 0-.71 0-1.421-.213-2.132-.922 0-1.419 0-2.057.569-.213.568-.142 1.776 0 2.63v2.771c-.213.71-.497.71-.71 1.634-.284.782-.355 1.777-.638 2.345-.639.64-.355.711-.71-.355v-6.396c0-1.066.213-1.634.213-2.63-.355-.781-.426-.994-1.561-.994a4.3 4.3 0 0 0 0 1.99c0 .995.071 1.918.213 2.629l.142 2.558c0 1.066-.213 1.919-.71 2.346-.567.284 0 .71-.638.923a7.8 7.8 0 0 1-1.845-1.421c-.709-.213-1.277-.426-2.199-.426-1.135 0-1.135-.142-1.561-1.137a20 20 0 0 1-.709-3.27c-.355-.923-.426-1.563-.709-2.629a3.6 3.6 0 0 0-.994-1.421c-.213 1.137-.425 1.919-.425 3.056-.213.497-.284 1.705-.426 2.132-.284-.498-.426-1.706-.709-2.488-.213-1.208-.497-1.99-1.632-1.563-1.135 0-1.135 0-1.135 1.421l1.348 2.274v2.843c0 1.137 0 1.492-.71 1.706-.284-1.137-.851-2.346-1.561-3.341 0-.781-.283-.568-.993-.568-.425 0-.922-.071-1.206.213v1.706c-.355.142-.496 0-.78-.356-.355.64-.142 1.422 0 2.132a7.1 7.1 0 0 1-.852 2.274c-.141-.284-.283-.142 0-.142-1.206-.568-2.128-.852-3.121-1.208-.497 0-.993.711-1.277 1.208-.922.285-1.277.569-2.27.569l-2.129.142c-.709.213-1.418.284-2.27.284-.425-.213-1.277-.213-1.49-.426.355-.569.71-.853.994-1.777q.767-.638 1.418-1.421l1.277-1.635c.284-.995.71-1.137 1.206-1.563 1.065 0 1.207.426 2.2.568.993.427 1.561.64 2.128-.213.71-.355 1.419-.995 2.27-1.137l1.703-1.208c.709-.497 1.064-1.066 1.703-1.634.212-.782.709-1.422.496-2.346-.922-.284-1.49-.213-2.128.356-.639.71-.71.995-1.632 1.563-.709.284-.993.64-1.844.853-.71.284-1.561.142-2.342.142-.78 0-1.773 0-2.199.284.71-.568 1.632-1.208 2.341-1.421.71-.497.994-.71 1.916-.853.426-.568.78-.568.993-1.563.284-1.137-.709-.782-1.419-.356-.638.143-1.419.711-1.986.924a6.7 6.7 0 0 1-2.129.427c-.283-.356.071-.64.284-1.137.71-.356.922-.498.993-1.422-.922.143-1.206.498-2.057.569-.881.238-1.785.381-2.696.426H416.6c-.851 0-1.277-.213-2.27-.213-.71-.426-.71-.568-.71-1.777.568-.71 1.065-.568 2.129-.568l1.844-1.066c.639-.142.993-.427.852-.71h-2.342c-.993-.498 0-.711.497-1.067.709 0 1.632 0 2.128.356 1.065 0 1.419-.356 2.2-1.138.709-.568 1.064-.994 1.773-1.42.497-.64.993-.996 1.348-1.564.71-.71 1.206-1.208 1.561-1.848.426-.284.709-.569.497-.995-1.065.142-1.561.64-2.271 1.208-.391.46-.846.844-1.348 1.137a4 4 0 0 1-2.199.924c-.851 0-1.561-.213-2.341-.284-.922-.071-.142-.355.142-.782.355-.213.638-.853.355-1.421-.71-.213-1.561-.142-2.342-.142h-2.412c-.922 0-1.277-.285-1.915-.64-.142-.568 0-.355.709-.355a8.5 8.5 0 0 0 2.2-.427c.78-.213.922-.568 1.064-1.563-.852 0-1.703 0-2.2-.213zm-14.686-4.62c-.142-1.42-.496-2.203-.496-3.695 0-1.066 0-.426.993-1.919l1.419-1.421c.922-.569 1.702-1.208 2.625-1.706.709-.426 2.128-.781 2.625-1.137a6.8 6.8 0 0 0 2.128-1.99c.142-1.208.284-2.131.284-3.553.993-.71 1.773-1.137 2.625-1.421 1.206-.427 1.419-.995 2.696-1.208.709-.284 1.986-.284 3.121-.284s1.916.994 2.98 1.137c1.277.568 1.844.995 2.837 1.99.568.852.994 1.563 1.916 2.131.78.427 1.561 1.137 2.412 1.422 0 .995.213.852-.426.852-.071 1.066-.283.924-1.206.995a4.4 4.4 0 0 1-1.56-1.634c.425-.995.212.853 0 1.208-.355.426-.639.853-1.136.426-.283-.995-.496-1.634-.496-2.842-.142-1.208-.497-.356-.71.213-.212 1.066-.141 1.421.213 2.203-.922 0-1.561-.142-2.199-.213-.639-.213-1.419 0-2.128.426-.852.64-.497.64-.142 1.422.78.213 1.419.71 2.128 1.137l2.341-.569c.781-.355 1.561-.142 2.341 0 .426.284.994.284 1.206.569 0 .64 0 1.279-.212 1.634-.284.284-.71.995-1.206 1.137a7.9 7.9 0 0 1-2.271 1.066c-1.064 0-1.489.284-2.27.71-.071 1.138-.355 1.351-1.206 1.706a4.8 4.8 0 0 1-2.341.569c-.497 0-.993 0-1.206-.213a7.6 7.6 0 0 0 1.419-2.346c.142-.497.425-.71.142-1.065-.994 0-1.277 0-1.419 1.137-.071 1.137-.426 1.35-1.135 1.705.212-.995.213-1.776.496-2.63q-1.057.207-2.128.214c-.568.355-.78.497-.568 1.137-.709.284-1.56.142-2.412 0-.709 0-.283-.355-.851-.71-.355-.782-.709-.996-1.561-.996-.355.569-.993.711-1.419 1.138-.78.284-1.277 0-1.915-.356-.851 0-.71.284-.497.995.355.213 0 .498.497.569.496.497.922.64 1.844.64.71-.285 1.561-.214 2.412-.214.852 0 .71.213.71 1.137-.568.498-1.419.427-2.27.427a7.9 7.9 0 0 1-2.058-.57c-.709 0-1.419-.212-1.986 0-.284.356-1.064.498-.142.57.355.426 2.341.213 2.412.923.497.569.355 1.35-.426 1.35a1.04 1.04 0 0 0-.603-.195c-.213 0-.422.068-.603.196l-2.199.07c1.277.143-.922-1.563-1.419-2.273" clip-rule="evenodd"/><path fill="#BCBCBC" fill-rule="evenodd" d="m402.624 67.102-.993.71-2.058 1.635c-.354.355-.354.568-.78.568.709-.07 1.135-.355 1.844-.71.852-.143 1.703-.356 2.129-.853.496-.142 0-.924-.142-1.421zm7.804-9.381c.142 0 .355.568.709.995.284.71.497 1.279.497 2.132.213-.924.567-1.706.709-2.772-.284-.568-.284-.71-1.064-.782 0 .569.142.143-.851.427" clip-rule="evenodd"/><path fill="#C4C4C2" fill-rule="evenodd" stroke="#000" stroke-width=".513" d="M405.758 64.769c-.384 0 .616-.45 1.001-.54.307-.72.461-1.17 1-1.62.846 0 1.308.36 1.692.99.77.27 1.001.63 1.847.81.385.36.769.36 0 .63-.462.27-1.154.36-2 .36a4.9 4.9 0 0 0-2.001.63c-1.154 0-1 0-1.539-1.26Z" clip-rule="evenodd"/><path fill="#BCBCBC" fill-rule="evenodd" d="M413.549 57.863v.213c0-.568 0-.284.142.853a5.8 5.8 0 0 1 .354 2.345 3.96 3.96 0 0 0 1.065-1.776c0-1.564-.284-1.493-1.561-1.635m6.243 22.954h.213c-.568 0-.213 0 .638-.568.568-.426 1.064-1.137 1.845-1.421a6.6 6.6 0 0 1 2.199-1.422c.426-.213.78-.568 1.206-.142-.071.924-.284 1.421-1.064 1.777-.355.568-.922.924-1.419 1.137-.568.355-1.206.355-1.419 1.066-.922.497-1.064.355-2.128-.427zm3.263 5.828c.213-.284 1.348-1.564 1.845-1.99a8.4 8.4 0 0 1 1.703-1.99c.496-.853 1.135-1.421 1.56-2.203l1.348-1.99c0 .853-.142 1.99.142 2.559a4.57 4.57 0 0 1-.567 2.416c-.355.71-.71 1.137-1.561 1.634-.71.427-1.135.569-1.774 1.137q-.75.556-1.561.995c-.496.214-.283.214-1.135-.568m-5.32 4.548h.212c-.496 0-.283 0 .71-.569.709-.852 1.277-1.208 2.128-1.563a4.8 4.8 0 0 0 2.128-.64c.355-.07.71-.355.923 0 .567.853.709 1.066-.142 1.635a4.7 4.7 0 0 1-1.703.995c-.425.355-1.277.355-2.128.568-.568 0-.993.072-1.277-.426l1.419.426c-.71 0-1.064.072-2.27-.426m7.307 0v-.142c0 .568 0 .284.354-.853.71-1.137.852-1.777 1.703-1.99.355-.568 1.064-.71 1.845-.995.354.569.071 1.28 0 1.99-.213.71-.781 1.28-1.206 1.848-.497.355-.71.782-1.561.995-.568 0-.213 0-1.135-.853" clip-rule="evenodd"/><path fill="#000" fill-rule="evenodd" d="M408.442 65.325c0 .497-.355.995-.851.995-.497 0-.852-.498-.852-.995 0-.569.426-.995.852-.995.496 0 .851.355.851.995" clip-rule="evenodd"/><path fill="#005120" fill-rule="evenodd" stroke="#002B0D" stroke-width=".76" d="M410.939 119.64h.693c-2.154 0-.847-.18 2.693 3.15 1.538-1.44 1.538-1.62 2.692.901.77 1.35.924-.18 2.078-1.621.538 2.881.846 5.852 2.693 3.151 2.154 0 4.308-.18 5.462.81 1.385 2.971.923-.54 2 .81 3.078.361 3.001-3.06 6.232-3.961 2.001 2.971 2.924.721 5.386-.72 1.923.54 3.693 3.871 4.078.63 1.538-2.88 1.615-2.7 2.692 0 1.539 1.621 2.155-.72 3.386-1.53 2.308 1.53 4.847 1.8 8.155.81.616 2.611 2 1.441 3.462.72 3.001 1.531 4.001 1.981 7.463 0 1.693-2.34.77.09 2.001 1.621 2.538-.9 1.846-1.08 4.77-.81 3 0 3.231 0 4.077-2.341 1.539 1.71 2.001 2.971 4.078.81 3.231 0 2.231.45 4.078-.9 1.462 3.601 1.769 1.08 3.462 2.431-.952 2.659-2.629 4.875-4.77 6.301-1.308 2.701-2.154 5.402-4.77 6.482-1.924 2.25-4.001 3.601-6.155 5.581-2.924.9-6.155.72-9.464.72h-28.62c-2.001 1.261-5.386 1.801-8.156 2.431-3.077 0-6.693 0-8.847-.81-1.462-1.711-4.001-3.601-5.386-5.582-1.539-1.35-1.539-3.961-2.77-5.581-1.077-2.251-1.539-5.851-2.693-7.922z" clip-rule="evenodd"/><path fill="#005120" fill-rule="evenodd" d="M476.875 126.842v.72c0-2.161.077-.99-1.385 3.241-.23.99-.923 1.26-2 1.62m-2.693-2.431h.693c-2.539 2.701-4.232 4.051-4.771 7.202l4.771-7.202c-2.539 2.701-4.232 4.051-4.771 7.202m-5.462-11.163s-.077 2.791-.692 3.961zm-8.155.811h.692-.769c.307 0 .538 0 0 0zm-38.084 0c.307 0 1.692 2.52 3.385 3.961-.385 2.34-1.077 5.041 0 7.201m2.077-6.391c.308 0 1.616 2.52 3.385 3.961zc.308 0 1.616 2.52 3.385 3.961v.81c0-2.521-.154-5.041.693-6.392.769 1.531 1.692 3.871 2 1.621 3.847-.18 5.694-1.441 8.156-2.431 0 1.17-.154.63.769 1.621m46.162-3.241h.693c-1.308 1.26-2.308 3.871-3.385 5.581m-25.159-7.922h5.386z" clip-rule="evenodd"/><path stroke="#002B0D" stroke-width=".76" d="M476.875 126.842v.72c0-2.161.077-.99-1.385 3.241-.23.99-.923 1.26-2 1.62m-2.693-2.431h.693m0 0c-2.539 2.701-4.232 4.051-4.771 7.202zm-10.233-3.961s-.077 2.791-.692 3.961m-2.001 1.621v.72m-5.539-5.491h.769-.769Zm0 0c.307 0 .538 0 0 0Zm-38.007 0c.307 0 1.692 2.52 3.385 3.961-.385 2.34-1.077 5.041 0 7.201m5.462-2.43c-1.769-1.441-3.077-3.961-3.385-3.961zm0 0v.81c0-2.521-.154-5.041.693-6.392.769 1.531 1.692 3.871 2 1.621 3.847-.18 5.694-1.441 8.156-2.431 0 1.17-.154.63.769 1.621m46.162-3.241h.693c-1.308 1.26-2.308 3.871-3.385 5.581m-25.159-7.922h5.386"/><path fill="#fff" fill-rule="evenodd" d="M408.867 132.553c-8.159 0-10.925 9.594-19.084 9.594h-.426v.569c0 6.68.426 12.863 1.277 18.619 7.52-.569 10.287-9.523 18.233-9.523 8.159 0 10.854 9.523 19.013 9.523 8.23 0 10.925-9.523 19.084-9.523s10.925 9.523 19.084 9.523 10.854-9.523 19.013-9.523c7.804 0 10.642 8.883 18.162 9.523a125 125 0 0 0 1.348-19.188h-.497c-8.159 0-10.855-9.523-19.013-9.523s-10.925 9.594-19.013 9.594c-8.159 0-10.925-9.594-19.155-9.594-8.088 0-10.854 9.594-19.013 9.594-8.088 0-10.854-9.594-19.013-9.594zm0 37.452c-6.385 0-9.365 5.827-14.331 8.386a94 94 0 0 0 6.102 14.568c2.341-1.99 4.753-3.695 8.229-3.695 8.159 0 10.854 9.594 19.013 9.594 8.23 0 10.925-9.594 19.084-9.594s10.925 9.594 19.013 9.594 10.925-9.594 19.084-9.594c2.953.121 5.781 1.375 8.017 3.553a95 95 0 0 0 6.101-14.497c-4.753-2.63-7.804-8.315-14.189-8.315-8.088 0-10.854 9.594-19.013 9.594s-10.925-9.594-19.013-9.594-10.925 9.594-19.084 9.594c-8.088 0-10.854-9.594-19.013-9.594m38.097 37.452c-8.159 0-10.925 9.594-19.084 9.594-7.733 0-10.571-8.528-17.736-9.523a93.7 93.7 0 0 0 27.881 23.452c2.554-2.275 5.179 2.558 8.868 2.558 3.76 0 6.385-4.904 8.868-2.701 10.449-5.702 19.838-13.588 27.668-23.238-6.952 1.208-9.932 9.452-17.452 9.452-8.159 0-10.854-9.594-19.013-9.594" clip-rule="evenodd"/><path stroke="#512007" stroke-width=".284" d="M396.354 170.911a75 75 0 0 1 8.051-2.69l12.498 14.078-10.275 2.421z"/><path stroke="#512007" stroke-width=".279" d="M421.008 193.887c.195-3.268 5.722-22.024 5.722-22.024m-3.837 22.238 4.357-22.096m-2.861 22.167 3.641-22.167m-6.827 19.183c.975-.569 3.771-1.421 3.771-1.421m-2.406-1.848c.911 0 2.796-.852 2.796-.852m-2.275-1.634a14.5 14.5 0 0 1 2.861-.853m-2.471-2.273 3.056-.569m-1.691-2.131c0 .213 2.081.213 2.081.213m-1.561-2.629 2.081.355"/><path stroke="#512007" stroke-width=".264" d="M456.699 207.566c-.23-5.585-6.747-37.635-6.747-37.635m4.524 36.542-5.138-36.42m2.837 33.628c-.153-2.064-3.757-33.507-3.757-33.507m8.051 32.779c-1.15-.972-4.447-2.428-4.447-2.428m2.837-3.157c-1.074 0-3.297-1.457-3.297-1.457m2.684-2.792a13.5 13.5 0 0 0-3.374-1.457m2.913-3.885-3.603-.971m1.993-3.642c0 .364-2.453.364-2.453.364m1.84-4.491-2.454.607"/><path stroke="#512007" stroke-width=".284" d="M475.652 196.074c-.23-4.124-6.747-27.798-6.747-27.798m4.524 26.991-5.138-26.901m2.837 24.839c-.153-1.525-3.757-24.749-3.757-24.749m8.051 24.211c-1.15-.717-4.447-1.794-4.447-1.794m2.837-2.331c-1.073 0-3.297-1.076-3.297-1.076m2.684-2.062a16.3 16.3 0 0 0-3.374-1.077m2.914-2.869-3.604-.717m1.993-2.691c0 .269-2.453.269-2.453.269m1.84-3.317-2.454.448"/><path fill="#DD8B59" fill-rule="evenodd" stroke="#512007" stroke-width=".284" d="m444.507 198.53.69-65.46s1.994-.269 1.994 0-.23 65.191-.46 65.46-2.454.448-2.224 0Zm21.853-62.591-.46 54.969-1.534 2.152.46-57.121z" clip-rule="evenodd"/><path fill="#DD8B59" fill-rule="evenodd" stroke="#512007" stroke-width=".284" d="M419.74 187.769s2.301 26.902 27.911 26.095 32.741-27.081 32.741-27.081l-11.118-.538c-.23 0-8.895 12.554-20.09 12.285s-14.722-3.408-17.175-6.008c-2.454-2.69-4.601-6.546-4.601-6.546l-13.035-6.008.767 5.739zm69.24-2.69-.767-3.587v-3.049l1.227-3.228s-19.399 3.318-19.399 3.587l-.077 6.098 19.016.089z" clip-rule="evenodd"/><path stroke="#512007" stroke-width=".284" d="M418.896 187.5c.691 0 5.828 1.345 5.828 1.345l5.367 8.34m55.208-18.742-.46 5.381h3.144l-.23-5.381zm-3.297.269-.23 5.739 1.993-.269.23-5.47zm-3.374 5.739v-4.483l1.994-.807.23 4.483zm-3.834-.269.46-3.945 2.301.269.153 4.214zm-4.217 0 .23-3.407 2.3-.269v3.945z"/><path stroke="#512007" stroke-width=".284" d="M422.654 188.576c.23.269 4.678 17.755 26.071 17.755 21.392 0 26.53-19.817 26.53-19.817"/><path stroke="#512007" stroke-width=".284" d="M478.629 187.052s-10.275 26.005-29.904 24.211c-19.553-1.793-22.697-10.402-24.23-14.885a120 120 0 0 1-2.454-8.071"/><path fill="#DD8B59" fill-rule="evenodd" stroke="#512007" stroke-width=".284" d="M427.561 185.976c.23-1.524.23-48.781.23-48.781l-1.303-.18-.23 48.154 1.303.897zm-31.821-15.334 16.869 9.595-.383 1.345s-16.256-8.967-16.256-9.236.154-1.345-.23-1.793z" clip-rule="evenodd"/><path fill="#DD8B59" fill-rule="evenodd" stroke="#512007" stroke-width=".284" d="M403.484 167.772c0 .718 2.454 16.679 2.454 16.679s1.534.269 1.534 0l-2.607-16.41zm15.643.449c.843 0 16.102-2.87 16.102-2.87l-.307 2.87-14.952 1.793z" clip-rule="evenodd"/><path fill="#FECF3E" fill-rule="evenodd" stroke="#512007" stroke-width=".284" d="M421.273 146.61c.537 0 5.368 2.87 7.438 2.152 2.07-.717.69-2.69 1.074-2.69.46 0 1.993 1.345 2.913.269.92-.986 1.534-4.125 1.15-3.856-.46.269-12.268 5.201-12.498 4.125z" clip-rule="evenodd"/><path fill="#DD8B59" fill-rule="evenodd" stroke="#512007" stroke-width=".284" d="M419.357 153.156c.844.269 18.25-5.47 18.25-5.47s0 1.793-.23 1.793l-18.02 5.47z" clip-rule="evenodd"/><path fill="#FECF3E" fill-rule="evenodd" stroke="#512007" stroke-width=".284" d="M459.612 145.086s1.15 3.138 2.3 2.6c1.151-.538 2.224-1.614 2.224-1.614s.92 2.69 2.454 2.152c1.533-.538 2.453-3.407 2.453-3.407s1.534.538 2.224.269 1.534-4.484 1.534-4.484zm-1.303 25.287c-.23.538 1.15 1.794 2.3 1.794s1.533-1.794 1.763-1.256c.231.449.231 2.87 3.068 2.063s2.913-3.139 2.913-3.139-.843.807 1.15 1.076c1.994.269 3.988-3.407 3.834-3.407-.306 0-14.568 3.138-15.028 2.869Z" clip-rule="evenodd"/><path fill="#DD8B59" fill-rule="evenodd" stroke="#512007" stroke-width=".284" d="M420.047 145.534a5.2 5.2 0 0 0 .153 2.421l14.569-5.739s.613-1.345 0-1.345c-.614 0-14.952 5.201-14.799 4.753zm19.169-3.587c.383 0 14.875-5.47 14.875-5.47s.23 2.332 0 2.332l-13.572 4.662-1.38-1.524z" clip-rule="evenodd"/><path fill="#FECF3E" fill-rule="evenodd" stroke="#512007" stroke-width=".284" d="M458.309 153.425s-2.224 2.87-1.534 6.725c.69 3.946 1.534 7.353 1.764 7.353s2.684-5.2 5.367-5.469c2.684-.269 7.591 2.869 7.591 2.869s-.69-6.277-.46-9.146 3.988-7.802 3.988-7.802l-16.716 5.38z" clip-rule="evenodd"/><path fill="#DD8B59" fill-rule="evenodd" stroke="#512007" stroke-width=".284" d="M438.066 148.672s-.46 2.422-.23 2.422l18.939-5.739v-1.704l-18.709 4.932z" clip-rule="evenodd"/><path fill="#B6B6B4" fill-rule="evenodd" stroke="#512007" stroke-width=".284" d="M413.99 180.237s-4.448-.717-4.218.538c.23 1.345 2.224 2.601 2.454 3.408s-.69 3.586.69 3.407c1.304-.269 2.607-1.345 2.607-2.152l-.23-4.484z" clip-rule="evenodd"/><path fill="#DD8B59" fill-rule="evenodd" stroke="#512007" stroke-width=".284" d="M438.756 167.234v1.794l16.025-2.601-.46-1.345z" clip-rule="evenodd"/><path fill="#FECF3E" fill-rule="evenodd" stroke="#512007" stroke-width=".284" d="M419.74 170.373c.306 0 0 2.331 1.84 1.793 1.764-.538 2.224-1.793 2.224-1.793s.46 2.869 2.913 2.6c2.454-.269 3.834-3.407 3.834-3.407s.154 2.331 1.687 1.524 1.994-2.6 1.994-2.6l-14.032 2.331zm0-15.424s-1.994.807-1.304 5.47 2.301 7.353 2.454 7.353c.23 0 1.994-4.483 4.677-5.201 2.684-.896 7.361 2.332 7.361 2.332s-.46-4.215.23-8.071c.493-2.511 1.492-4.847 2.914-6.815 0 0-15.642 4.932-16.256 4.932z" clip-rule="evenodd"/><path fill="#DD8B59" fill-rule="evenodd" stroke="#512007" stroke-width=".284" d="m457.236 168.49.23 1.614s16.102-2.332 16.102-2.69c0-.18 0-1.794-.307-1.794-.23 0-15.795 3.139-16.102 2.87zm-.23-16.679.23 1.793 18.939-5.918s.46-1.614.23-1.614-18.939 6.546-19.399 5.739Z" clip-rule="evenodd"/><path stroke="#512007" stroke-width=".284" d="m488.673 173.691-13.802-25.467m-1.84 17.665c.23-.717.92-16.409.92-16.409m-14.952-6.008s-.23 1.614 0 1.614 14.032-3.946 14.032-4.215 1.38-1.793.23-1.524c-1.074.269-13.802 4.932-14.262 4.125Z"/><path fill="#FECF3E" fill-rule="evenodd" stroke="#512007" stroke-width=".284" d="M439.676 142.754c.767.179 2.377 2.87 3.298 2.332.92-.539 2.223-2.153 2.223-2.153s-.23 3.139 1.534 2.691c1.84-.538 2.07-2.691 2.07-2.691s1.304.897 2.454 0c1.073-.717 2.147-4.662 1.763-4.662s-12.958 4.662-13.418 4.483zm-.46 7.533c0 .538-2.3 4.662-1.533 8.608s1.917 7.532 2.147 7.532 3.604-4.125 6.517-4.932c2.837-.807 7.131 2.601 6.901 2.601s-1.15-3.946-1.15-6.815 3.374-11.657 3.374-11.657zm0 18.831c0 .179.614 1.972 2.224 1.972 1.534 0 1.764-1.793 1.764-1.793s-.23 3.138 2.223 2.869c2.454-.269 3.297-3.138 3.297-3.138s.23 1.614 2.301.807c1.993-.807 4.6-3.408 4.447-3.408-.23 0-16.102 3.408-16.332 2.691z" clip-rule="evenodd"/><path fill="#BE0F17" fill-rule="evenodd" stroke="#512007" stroke-width=".279" d="M441.056 159.136c.316.014.613.175.827.448.215.273.328.635.316 1.007s-.15.723-.382.976a1.09 1.09 0 0 1-.854.374 1.12 1.12 0 0 1-.827-.448 1.56 1.56 0 0 1-.315-1.007 1.52 1.52 0 0 1 .381-.976c.232-.253.539-.387.854-.374ZM449.154 156.722c.315.014.613.175.827.448s.328.635.315 1.007a1.52 1.52 0 0 1-.381.976 1.09 1.09 0 0 1-.854.374 1.12 1.12 0 0 1-.827-.448 1.55 1.55 0 0 1-.315-1.007 1.52 1.52 0 0 1 .381-.976c.232-.253.539-.388.854-.374ZM445.104 161.689c.316.014.613.175.827.448.214.272.328.635.315 1.007a1.52 1.52 0 0 1-.381.976 1.1 1.1 0 0 1-.854.373 1.12 1.12 0 0 1-.827-.447 1.56 1.56 0 0 1-.315-1.007c.012-.372.149-.723.381-.977.232-.253.539-.387.854-.373ZM445.104 154.101c.316.014.613.175.827.448s.328.635.315 1.007a1.52 1.52 0 0 1-.381.976 1.1 1.1 0 0 1-.854.374 1.12 1.12 0 0 1-.827-.448 1.56 1.56 0 0 1-.315-1.007 1.52 1.52 0 0 1 .381-.976c.232-.253.539-.388.854-.374Z" clip-rule="evenodd"/><path stroke="#512007" stroke-width=".284" d="M446.73 133.787c0-.179 6.901 3.408 6.901 3.677s24.537 38.379 24.767 38.379m-12.268-38.379 6.287 3.138 1.994 5.739m-47.08-9.326c-.23 0 6.901 6.277 6.901 6.277l.92 5.111m-32.051 26.633c3.067-1.525 24.69-23.673 24.69-23.673m-30.518 19.458 24.307-23.942m16.256 3.587 23.003 44.656m-2.761-26.184s2.684 10.492 5.368 12.106a65 65 0 0 1 5.827 4.125"/><path stroke="#512007" stroke-width=".284" d="M457.772 169.207s1.917 12.375 4.601 14.706a155 155 0 0 1 5.367 4.932M439.309 169.104s2.607 17.217 7.974 21.162a724 724 0 0 1 9.815 7.264"/><path stroke="#512007" stroke-width=".284" d="M439.078 168.835s5.751 13.63 10.735 17.755c4.831 4.214 11.502 8.07 11.502 8.07m-40.946-24.659c1.534 3.138 1.304 9.146 3.067 11.208a59 59 0 0 1 4.448 6.816m-7.131-17.845c.92 1.524 3.373 9.326 4.907 11.657 1.15 2.152 12.498 15.424 12.498 15.424"/><path fill="#000" fill-rule="evenodd" stroke="#512007" stroke-width=".284" d="M434.401 197.889c0 .259-.044.515-.128.755a2 2 0 0 1-.366.64 1.7 1.7 0 0 1-.547.427 1.5 1.5 0 0 1-.646.15c-.221 0-.441-.051-.645-.15a1.7 1.7 0 0 1-.548-.427 2 2 0 0 1-.365-.64 2.3 2.3 0 0 1-.129-.755c0-.524.178-1.025.494-1.395.317-.37.746-.578 1.193-.578s.877.208 1.193.578.494.871.494 1.395Zm8.205 4.214c0 .452-.154.885-.427 1.205a1.36 1.36 0 0 1-1.03.499c-.387 0-.757-.18-1.03-.499a1.86 1.86 0 0 1-.427-1.205c0-.452.153-.885.427-1.205.273-.319.643-.499 1.03-.499.386 0 .757.18 1.03.499.273.32.427.753.427 1.205Zm10.504 1.076c0 .452-.153.885-.426 1.205-.274.32-.644.499-1.03.499-.387 0-.757-.179-1.031-.499a1.86 1.86 0 0 1-.426-1.205c0-.452.153-.885.426-1.204.274-.32.644-.5 1.031-.5s.756.18 1.03.5c.273.319.426.752.426 1.204Zm9.125-4.035c0 .897-.537 1.524-1.227 1.524s-1.227-.717-1.227-1.524.537-1.614 1.227-1.614 1.227.717 1.227 1.614Zm7.361-5.111c0 .807-.69 1.434-1.457 1.434s-1.457-.627-1.457-1.434.69-1.435 1.457-1.435 1.457.628 1.457 1.435Z" clip-rule="evenodd"/><path fill="red" fill-rule="evenodd" stroke="#512007" stroke-width=".284" d="M426.349 138.078c-.69.538-11.808 3.676-10.274 3.407 1.533-.269 10.504 2.69 10.274 1.794-.23-.897 0-4.663 0-5.201Zm18.94-3.856c-.46 0-6.901 2.869-6.671 2.869s7.361 2.332 7.131 1.794-.23-3.946-.46-4.663Zm19.399 2.6c-.46.269-8.051 2.332-6.671 2.601s6.441 2.331 6.441 1.793c0-.448 0-4.125.23-4.484z" clip-rule="evenodd"/><path stroke="#512007" stroke-width=".284" d="M456.637 197.799c.23-4.125 6.747-27.798 6.747-27.798m-4.524 26.991 5.138-26.902m-2.837 24.839c.153-1.524 3.757-24.749 3.757-24.749m-8.051 24.211c1.15-.717 4.447-1.793 4.447-1.793m-2.837-2.332c1.073 0 3.297-1.076 3.297-1.076m-2.684-2.062a16.3 16.3 0 0 1 3.374-1.076m-2.914-2.87 3.604-.717m-1.993-2.69c0 .269 2.453.269 2.453.269m-1.84-3.318 2.454.448"/><path stroke="#512007" stroke-width=".29" d="M437.621 200.806c.23-4.315 6.748-29.081 6.748-29.081m-4.524 29.363 5.137-29.175m-3.374 29.268 4.294-29.268m-8.051 25.328c1.15-.75 4.447-1.876 4.447-1.876m-2.837-2.439c1.074 0 3.297-1.126 3.297-1.126m-2.683-2.157a15.8 15.8 0 0 1 3.374-1.126m-2.914-3.002 3.604-.75m-1.994-2.815c0 .282 2.454.282 2.454.282m-1.841-3.471 2.454.469"/><path stroke="#512007" stroke-width=".286" d="M437.56 198.916c-.23-4.189-6.748-28.226-6.748-28.226m4.524 27.406-5.137-27.315m2.837 25.221c-.154-1.548-3.758-25.13-3.758-25.13m8.052 24.584c-1.151-.729-4.448-1.821-4.448-1.821m2.837-2.368c-1.073 0-3.297-1.092-3.297-1.092m2.684-2.094a16 16 0 0 0-3.374-1.093m2.914-2.914-3.604-.728m1.994-2.732c0 .274-2.454.274-2.454.274m1.84-3.369-2.453.455"/><path fill="#DD8B59" fill-rule="evenodd" stroke="#512007" stroke-width=".284" d="m468.354 186.245 21.163.538.23-1.794-21.853-.269zm.92-6.546c2.453 0 20.933-4.125 20.933-4.125s.69-2.69 0-2.69-20.933 5.021-20.933 5.021z" clip-rule="evenodd"/><path fill="#BE0F17" fill-rule="evenodd" stroke="#512007" stroke-width=".279" d="M445.104 157.895c.316.014.613.175.827.448s.328.635.315 1.007a1.52 1.52 0 0 1-.381.976 1.1 1.1 0 0 1-.854.374 1.12 1.12 0 0 1-.827-.448 1.56 1.56 0 0 1-.315-1.007 1.52 1.52 0 0 1 .381-.976 1.09 1.09 0 0 1 .854-.374Z" clip-rule="evenodd"/><g clip-path="url(#l)"><path fill="#fff" d="M0 0h300v150H0z"/><path fill="#012169" d="M0 0v150h300V0z"/><path fill="#000" d="m0 0 300 150Zm300 0L0 150Z"/><path stroke="#fff" stroke-width="30" d="m0 0 300 150m0-150L0 150"/><mask id="m" width="300" height="150" x="0" y="0" maskUnits="userSpaceOnUse" style="mask-type:luminance"><path fill="#fff" d="M150 75h150v75zm0 0v75H0zm0 0H0V0zm0 0V0h150z"/></mask><g mask="url(#m)"><path fill="#000" d="m0 0 300 150Zm300 0L0 150Z"/><path stroke="#C8102E" stroke-width="20" d="m0 0 300 150m0-150L0 150"/></g><path fill="#000" d="M150 0v150ZM0 75h300Z"/><path stroke="#fff" stroke-width="50" d="M150 0v150M0 75h300"/><path fill="#000" d="M150 0v150ZM0 75h300Z"/><path stroke="#C8102E" stroke-width="30" d="M150 0v150M0 75h300"/></g></g><defs><linearGradient id="b" x1="261.798" x2="278.787" y1="384.861" y2="376.252" gradientUnits="userSpaceOnUse"><stop stop-color="#A43907"/><stop offset="1" stop-color="#fff"/></linearGradient><linearGradient id="c" x1="410.043" x2="388.212" y1="218.659" y2="208.028" gradientUnits="userSpaceOnUse"><stop stop-color="#A43907"/><stop offset="1" stop-color="#fff"/></linearGradient><linearGradient id="d" x1="420.578" x2="375.052" y1="227.364" y2="222.042" gradientUnits="userSpaceOnUse"><stop stop-color="#A43907"/><stop offset="1" stop-color="#fff"/></linearGradient><linearGradient id="e" x1="505.428" x2="484.561" y1="206.506" y2="207.494" gradientUnits="userSpaceOnUse"><stop stop-color="#A43907"/><stop offset="1" stop-color="#fff"/></linearGradient><linearGradient id="f" x1="516.599" x2="471.95" y1="218.888" y2="221.283" gradientUnits="userSpaceOnUse"><stop stop-color="#A43907"/><stop offset="1" stop-color="#fff"/></linearGradient><linearGradient id="g" x1="510.229" x2="385.178" y1="233.461" y2="233.461" gradientUnits="userSpaceOnUse"><stop stop-color="#A43907"/><stop offset="1" stop-color="#fff"/></linearGradient><linearGradient id="h" x1="387.571" x2="569.837" y1="243.371" y2="243.951" gradientUnits="userSpaceOnUse"><stop stop-color="#A43907"/><stop offset="1" stop-color="#fff"/></linearGradient><linearGradient id="i" x1="516.685" x2="501.803" y1="230.971" y2="231.358" gradientUnits="userSpaceOnUse"><stop stop-color="#A43907"/><stop offset="1" stop-color="#fff"/></linearGradient><linearGradient id="j" x1="384.66" x2="398.954" y1="248.643" y2="249.482" gradientUnits="userSpaceOnUse"><stop stop-color="#A43907"/><stop offset="1" stop-color="#fff"/></linearGradient><linearGradient id="k" x1="395.211" x2="368.731" y1="245.015" y2="239.147" gradientUnits="userSpaceOnUse"><stop stop-color="#A43907"/><stop offset="1" stop-color="#fff"/></linearGradient><clipPath id="a"><path fill="#fff" d="M0 0h600v300H0z"/></clipPath><clipPath id="l"><path fill="#fff" d="M0 0h300v150H0z"/></clipPath></defs></svg>