<svg xmlns="http://www.w3.org/2000/svg" width="600" height="300" fill="none"><g clip-path="url(#a)"><path fill="#fff" d="M0 0h600v300H0z"/><path fill="#68BFE5" d="M0 0h600v300H0z"/><path fill="#fff" d="M399.084 81v115.036c0 37.615 68 59.88 68 59.88S535 233.651 535 196.036V81z"/><path fill="#D21034" d="M457.635 121.482v51.783h-58.551v18.807h58.551v60.302l9.449 3.626 9.365-3.626v-60.217H535v-18.892h-58.551v-51.783z"/><path fill="#D21034" d="M399.084 81H535v44.53H399z"/><path fill="#fff" stroke="#000" stroke-miterlimit="3" stroke-width=".532" d="M409.961 114.229c4.213 0 7.628-2.762 7.628-6.168s-3.415-6.168-7.628-6.168c-4.214 0-7.629 2.761-7.629 6.168s3.415 6.168 7.629 6.168Z"/><path fill="#fff" stroke="#000" stroke-miterlimit="3" stroke-width=".532" d="M409.961 108.285c3.748 0 6.787-1.532 6.787-3.421s-3.039-3.42-6.787-3.42-6.787 1.531-6.787 3.42 3.039 3.421 6.787 3.421ZM409.961 115.181c3.748 0 6.787-1.531 6.787-3.42s-3.039-3.42-6.787-3.42-6.787 1.531-6.787 3.42 3.039 3.42 6.787 3.42Z"/><path fill="#fff" stroke="#000" stroke-miterlimit="3" stroke-width=".532" d="M409.961 111.481c3.748 0 6.787-1.531 6.787-3.42s-3.039-3.421-6.787-3.421-6.787 1.532-6.787 3.421 3.039 3.42 6.787 3.42Z"/><path fill="#FFD100" stroke="#000" stroke-miterlimit="3" stroke-width=".8" d="m531.626 116.59-1.097-3.036s-3.037-1.265-3.29-2.867c-.507-4.301-2.025-5.904-4.387-6.579a5.07 5.07 0 0 0-3.797.422c-.675 1.012-4.218 1.012-6.074 1.097-1.941 0-2.025-.844-2.025-.844-1.434 0-2.109-1.096-2.109-1.096-.928-1.94-1.688-2.699-2.194-2.952 2.531 0 4.387-1.096 7.256-4.048 3.037-3.205 5.23-2.024 5.23-2.024-1.518 3.036.507 2.783.507 2.783 4.049-2.109.506-7.337-.675-7.084-1.266.253-1.603-.59-1.603-.59 0 .927-1.35 1.349-1.35 1.349 1.012-5.988-2.531-7.59-2.531-7.59-.506.505-.844 1.602-.844 1.602-1.012 3.626-4.303 3.036-8.015 1.265-3.712-1.687-13.498 1.855-16.62 3.12s-8.774 3.12-13.836.338c-5.062-2.868-6.328-2.362-8.353-1.772-1.94.506-5.483 1.35-6.749.675a7.2 7.2 0 0 0-2.868-.759c.337-.169-.169-1.012-.169-1.012-1.603-2.108.169-3.373.169-3.373s-2.869.843-1.688 5.735l.506.674s.338 1.603 1.182 2.024v.338s.759-.338.928.674c.253 1.012 1.349 0 1.771-.843 0 0-.759 4.554 4.809 5.65 0 0-.59-.758-.422-1.18.253-.506-.675-.844-.59-1.518.084-.76-1.35-1.012-.253-1.603 1.181-.506 1.687-1.602 4.218-.084 2.447 1.434 4.387 1.096 4.387 1.096s-1.518-3.036-.675-3.036c.844 0 4.556 4.554 6.328 4.386 1.856-.253 5.399-2.362 7.171-1.603 0 0 .169-.843 6.918-2.024 6.749-1.18 15.186-4.554 18.308-1.602 0 0 .337 2.361 1.687 2.952 0 0-.253 4.891-8.605 2.192L499.144 95s-.506-1.434-16.451 2.699c0 0-.928.337-1.603.759-.591.422-1.434-.253-4.64.843-3.122 1.265-14.933 5.061-22.189 3.711-1.603-.506-3.037-.253-3.122-.506 0-.253.844.084.844.084-.506-.59-.759-.674-.759-.674-6.075-.675-5.062-3.374-5.062-3.374l.337.844c1.013-1.35-.337-4.386-.337-4.386h-.085a3 3 0 0 0 0-.253l.422-.337c2.953-2.53 6.328-2.952 6.328-2.952-2.025-2.53-6.243-1.18-6.243-1.18.084-2.953-1.181-6.495-1.181-6.495a10.13 10.13 0 0 0-6.497 3.964c-.168-3.12-4.134-4.891-4.134-4.891 1.519 1.77.591 6.072.591 6.072h.169-.422l-.085.928h-.168s-1.435.506-3.122 4.385c0 0-.169.843-.844 1.687v-.338s-1.94 2.53-6.243 0c0 0-5.905-3.457-8.099-3.373-2.025.169-3.375 1.096-3.29 1.687 0 0-4.809-.338-6.412 2.361 0 0-3.628 1.35-.506 4.217 0 0 .421 1.349 1.265 2.024 0 0-.084-2.699.591-1.94l.421.506c.085.338.422 1.35 1.013 1.94l.506-.169c0-.674.169-1.518.338-1.855h.168l.844 1.349.844-.506c.506 0 1.096.422 1.096.422l1.097-.928c1.097.169 1.434-2.024 1.434-2.024a3.38 3.38 0 0 0 2.616-.421c.506 1.686 4.387 3.626 4.387 3.626h.169l-.507.337c1.772 1.265 5.062.928 5.062.928-1.349.506-1.181 3.121-1.181 3.121-.843.337-.843 1.096-.843 1.096 2.699 1.096 4.471.169 4.471.169.169.843 0 1.012 0 1.012-1.097 2.277-1.603 4.554-1.603 4.554h.084v.169s-4.808 1.686-6.833 3.963c0 0-.253-.674-.844-.674s-2.362-1.518-3.206-1.771-2.109.253-2.531-.169c-.253-.337-.084-3.036-.675-3.373l-.59-1.687c-.338.843-2.025.674-2.025.674l-.675.507-.675-.085c-.169 0-.338.422-.422.844l-.253.253v-.506c-.253.253-.928-.085-1.181-.085-.169 0-.338.338-.422.759l-1.603.085c-.253.168 0 2.192 0 2.192-1.94 1.012-1.012 2.615-1.012 2.615 1.012 5.06 9.702 2.783 10.377 3.458.675.674 2.193.843 2.953.843.843 0 1.771 1.855 2.868 2.024s0-1.518 5.146-2.699c5.147-1.265 6.919-3.373 6.919-3.373 1.603-.338 2.024-2.277 2.109-3.036l.169 1.18c.253 1.771-1.013 2.531-1.013 2.531l4.472-1.434c1.771-.422 1.518-2.024 1.518-2.024 1.688 4.891 4.809 5.229 4.809 5.229.591-1.856.506-2.446.506-2.446h1.435c0-1.097-.844-1.856-1.435-2.193l2.194 1.265.844-.084c0 .759 1.096 1.433 1.096 1.433l.169-1.012c1.012 1.35 2.869.844 2.869.844a6 6 0 0 0-.169-.675c3.965 2.446 10.293-.675 10.293-.675 1.687.338 1.94-.674 1.94-.674 1.856.253 2.362-1.097 2.362-1.097 4.472-.337 7.678-3.542 7.678-3.542 2.278-.168 2.362-1.771 2.362-1.771s2.194.422 4.387-2.277c5.062-7.169 12.486-3.374 12.486-3.374l-4.302.253c-11.39-.084-6.665 7.591-6.665 7.591h.675c1.096.169 4.809 3.12 3.374 5.229v.168c-2.362 3.121-6.58.169-7.846-2.53-1.181-2.698-3.712-2.108-3.712-2.108s-6.328 1.096-3.712 6.157c.084 1.265.844 2.698 3.206 4.048 1.265 1.855 5.484 2.024 8.521 1.349 1.519-.169 9.112-3.542 9.112-3.542.59-1.687 2.531-1.265 4.218-3.711 1.687-2.361-2.447-3.205-3.375-4.554-.843-1.265.253-1.012.253-1.012 3.712 1.94 4.05-4.386 4.05-4.386a5.56 5.56 0 0 0 3.628 4.639c1.94-1.94.506-6.072.506-6.072 4.809 8.602 7.677 7.168 7.677 7.168-2.531-1.518-1.265-3.711-1.265-3.711 2.278 9.109 11.811 1.181 11.811 1.181-.506 1.35 0 2.109.844 2.952s1.856 1.181 1.35 2.783c-.422 1.518-4.893 1.181-4.893 1.181s-4.219-.169-3.881 3.373c.253.844 3.037 1.181 4.218.928 0 0-.506.169 1.097.337h1.856c1.772 0 3.796-.337 3.796-.337 2.447-.506 2.025-1.349 2.025-1.349 3.797-.675 4.219-3.205 4.219-3.205z"/><path fill="#000" d="M406.425 100.819s.253-.421.591-.506c.337 0 .675.169 1.012.675l.253-.169s-1.012-1.518-.675-2.53c.253-.506.675-.843 1.35-.928v-.253c-.843.17-1.35.506-1.518 1.097a1.7 1.7 0 0 0-.169.59c0 .506.169 1.012.422 1.434a.93.93 0 0 0-1.081-.006.85.85 0 0 0-.269.343zm118.958 20.241c-2.531.422-6.328.591-6.665-.168 0-.169 0-.675 2.025-2.025l-.169-.421c-1.772 1.18-2.531 1.94-2.278 2.53.591 1.518 6.075.675 7.171.506zm-49.271 1.434c-.59-.843-.253-2.108.844-3.627l-.422-.253c-1.181 1.687-1.434 3.037-.843 4.217z"/><path fill="#000" d="M472.652 118.615c0 1.602 1.182 3.036 3.291 4.301l.253-.422c-2.025-1.181-3.037-2.53-3.037-3.879-.169-2.109 2.109-3.796 2.193-3.796l-.253-.337c-.169 0-2.531 1.771-2.447 4.217zm43.871.59c-.675 1.096-.422 2.361-.422 2.361h.422c0-.084-.168-1.18.422-2.108a2.54 2.54 0 0 1 1.687-1.012v-.422c-.928.169-1.687.591-2.024 1.181zM416.042 99.47h-.169v.169s-.168 1.349-.843 1.686a.67.67 0 0 1-.507 0l-1.096-.59c-.169-.169-.338-.253-.675-.169a1.5 1.5 0 0 1-.338-1.18c.085-.59.506-1.181 1.35-1.687l-.169-.253c-.843.59-1.35 1.265-1.434 1.94 0 .843.422 1.349.422 1.349v.084h.169c.253-.084.253 0 .506.169l1.181.675h.844c.59-.422.843-1.603.843-1.856 2.7.591 4.894-2.783 5.062-2.867l-.253-.169s-2.278 3.374-4.893 2.699"/><path fill="#000" d="M409.377 98.964a2.53 2.53 0 0 0 .338 1.686c.253.422.59.675.844.759.421 0 .674-.253 1.012-.506.169-.168.337-.337.506-.337l.253.169.169-.169-.422-.253c-.253 0-.506.169-.675.422s-.506.421-.843.421c-.169 0-.422-.253-.675-.674a1.87 1.87 0 0 1-.254-1.434c.338-1.18 1.772-2.109 1.772-2.109l-.084-.252c-.085 0-1.603 1.012-1.941 2.277m-3.712 17.457c.085-.506.506-.843 1.097-1.18-.169 0 .506.506 1.097.506l.422-.253c.168.168 1.181 1.096 1.181 2.277 0 .253 0 .506-.169.759l.253.084c.759-1.771-1.181-3.373-1.181-3.373h-.169l-.337.253c-.506 0-1.097-.506-1.097-.506-.844.337-1.181.843-1.35 1.349zm8.69-4.554c-.591.085-2.109.338-2.615 1.181-.169.337-.253.675-.085 1.012l.169.506c.506 1.349 1.012 2.699 1.603 3.036l.084-.253c-.506-.253-1.012-1.687-1.434-2.867l-.169-.506a.85.85 0 0 1 0-.844c.422-.59 1.856-.843 2.531-.927.338 0 .422 1.265.507 2.024h.253c-.085-1.181-.253-2.362-.844-2.362"/><path fill="#000" d="M410.052 113.217c-.337.253-.253.674-.253.759s.169 3.373 1.687 4.048l.085-.253c-1.35-.59-1.519-3.795-1.519-3.88 0 0 0-.337.169-.506.253-.168.675-.253 1.35 0l.084-.253c-.759-.253-1.265-.168-1.603 0z"/><path fill="#000" d="M408.787 113.47c-.675.506-.59 1.855-.59 1.939h.253s0-1.349.506-1.686c.253-.169.506-.169.843 0l.084-.338c-.421-.168-.843-.168-1.096 0zM445.915 95.332s.729 1.682.729 2.972c0 .224-.112.392-.168.56l-.28-.729-.169.561s-.336.785.169 1.626c.673 1.122 2.355 1.795 5.048 2.075v.056a.45.45 0 0 0-.224.056l-.113.112v.225c.113.28.393.28 1.01.28l.393.056.336.112-.056-.056c.561 0 1.29.168 2.019.449l-.56.112.617.28c.056 0 4.88 1.963 6.843 3.533-.561.504-2.973 2.243-7.124 1.233l-.673-.168.449.561s2.748 3.14 3.309 5.046c-.953 0-4.599 0-5.89-1.121l-.28.28s1.683 2.58 2.132 4.542c-.561.112-1.683.168-2.412-.785l-.337-.392-.168 1.121c-.337-.28-.786-.617-.786-1.065v-.225l-1.009.169-2.132-1.29a4 4 0 0 0-.336-.224l-.225.392.337.168c.449.337 1.234.954 1.29 1.851h-1.346v.28c0 .168 0 .785-.505 2.075-.617-.112-2.973-.953-4.375-4.935l-.449.113v.112c0 .392-.112 1.289-1.346 1.626l-3.646 1.121a2.53 2.53 0 0 0 .449-1.57v-.448q-.104-.725-.113-1.458c0-.841.169-1.346.786-1.682l-.225-.449c-.056 0-5.385 2.187-8.021 1.29.112-.561.561-2.355 1.458-4.262l-.112.112c.169-.112.337-.336.169-1.233v-.281l-.281.112s-1.683.785-4.151-.112c0-.224.169-.56.673-.785l.169-.056v-.448c0-.673.056-2.243 1.009-2.58l-.112-.448s-2.861.224-4.599-.729a6.2 6.2 0 0 1 2.524-1.066h.168v-.224a3.4 3.4 0 0 0-.28-1.29c.673.225 1.458.393 1.738.169l.113-.056-.113-1.739h-.448l.056 1.458-1.683-.392-.673-.225.449.561c.271.395.409.867.392 1.346a7.1 7.1 0 0 0-2.804 1.29l-.281.224.281.168c1.346.897 3.421 1.009 4.487.953a4.7 4.7 0 0 0-.729 2.524v.224a1.732 1.732 0 0 0-.842 1.233v.169l.113.056c1.391.64 2.97.74 4.431.28v.505a27 27 0 0 0-1.683 4.654v.224h.168c2.188.897 6.002-.28 7.741-.897a2.75 2.75 0 0 0-.393 1.402q.011.96.169 1.906c0 1.29-.842 1.795-.898 1.795l.169.448 4.487-1.346c1.01-.28 1.402-.897 1.571-1.401 1.738 4.149 4.487 4.485 4.655 4.541h.169l.056-.168a7.9 7.9 0 0 0 .561-2.243q.672-.026 1.346-.056v-.28c0-.393-.056-.729-.225-1.009l.786.448.729-.112c.168.729 1.066 1.346 1.178 1.402l.28.168.169-.953c1.121.953 2.636.673 2.748.673l.168-.056v-.225c-.224-1.514-1.234-3.308-1.851-4.261 1.964.897 5.553.841 5.722.841h.224v-.28a16.8 16.8 0 0 0-3.141-5.047c4.599.841 7.068-1.57 7.18-1.682l.168-.168-.224-.113a30.2 30.2 0 0 0-6.507-3.532l.505-.112-.561-.281a7.2 7.2 0 0 0-3.254-.785c-.56-.673-.841-.729-.897-.785-3.141-.336-4.263-1.177-4.712-1.85v-.168l.112-.169c.281-.392.393-.897.393-1.457 0-1.458-.729-3.084-.729-3.14z"/><path fill="#000" d="M431.611 94.435s-.336 1.682-1.795 2.523c-1.121.56-2.524.56-4.263-.168l-.224-.056v.224a2.8 2.8 0 0 0 1.122 1.794c.729.561 1.851.785 3.309.673-.504.561-2.019 2.467-2.019 4.374v.28c.224.112 2.58.785 3.702-.617 0 .561.225 2.524.954 3.253.448.448.561 1.009.561 1.514 0 .448-.113.785-.113.785l-.112.336.281-.224c.112-.056 2.3-1.682 2.973-3.757 0 0 .392-.561 1.065-.729v.28c0 .841.337 2.299 2.693 3.196l.168.057v-.169a4 4 0 0 1 0-.392c0-.617 0-1.682.617-2.243a1.567 1.567 0 0 0 .337-1.85c.505.112 1.626.504 2.075 1.345.673 1.234 2.973.225 3.085.225l-.056-.281s-1.01.224-1.627-.168a1.17 1.17 0 0 1-.448-.841l-.112-1.346c0-.561-.113-.953-.393-1.233.28 0 .897 0 1.122.56.448.897 1.851.954 1.907.954l.505.056-.393-.281s-1.234-.785-1.01-1.85l.169-.785c.336-1.402.897-3.701.392-5.159l-.224.112c.112.337.168.785.168 1.234 0 1.233-.392 2.803-.561 3.757l-.224.785a1.5 1.5 0 0 0 0 .28c0 .729.393 1.234.729 1.514-.393-.056-.953-.28-1.122-.729-.392-.785-1.29-.785-1.682-.729l-.337.056.224.225c.393.224.449.56.449 1.289l.112 1.29c.056.448.281.785.561 1.009.337.224.673.224.954.281-.673.168-1.627.28-1.963-.337-.618-1.233-2.412-1.514-2.469-1.57h-.28l.112.224s.225.337.225.785c0 .281-.113.673-.393.954-.617.616-.729 1.794-.729 2.411v.224c-2.02-.841-2.356-2.075-2.356-2.804v-.56l.112-.169h-.224a1.97 1.97 0 0 0-1.403 1.01 8.4 8.4 0 0 1-2.636 3.476q.048-.278.056-.56c0-.505-.112-1.122-.561-1.627-.841-.785-.953-3.364-.953-3.364v-.448l-.225.392c-.897 1.57-3.478.785-3.534.785-.112-1.962 2.244-4.542 2.244-4.598l.224-.224h-.336c-1.515.224-2.693 0-3.478-.56a2.58 2.58 0 0 1-.897-1.403c1.682.617 3.141.673 4.263.056a4.15 4.15 0 0 0 1.907-2.691c1.683-3.7 3.085-4.318 3.085-4.318l-.056-.224c-.112 0-1.571.56-3.254 4.486"/><path fill="#000" d="M435.37 88.884h-.112l-1.346 1.85h.393c4.185.33 8.11 2.162 11.05 5.159l.168.168 1.29-1.402-.112-.168c-3.646-5.72-11.274-5.607-11.387-5.607zm.113.504c.897 0 7.404.169 10.769 5.215l-.729.785a18.5 18.5 0 0 0-10.826-4.99q.392-.506.786-1.01"/><path fill="#000" d="M434.304 92.697a6.16 6.16 0 0 0-1.178 2.691l.056.224a4.09 4.09 0 0 0-1.122 3.084c0 .73.112 1.458.337 2.131l.168.393c.673 1.906 1.29 3.588 4.375 2.579 2.917-.897 3.029-1.122 3.758-2.355l.225-.28c.392-.673.841-.785 1.29-.954.561-.168 1.122-.336 1.683-1.345l.448-.73c.561-.728 1.234-1.682 1.29-2.803h-.224a5.5 5.5 0 0 1-1.234 2.635l-.561.785a2.01 2.01 0 0 1-1.458 1.234 2.18 2.18 0 0 0-1.459 1.009l-.224.337c-.673 1.177-.785 1.345-3.646 2.243-2.805.897-3.366-.505-4.039-2.468l-.168-.392c-.785-2.13-.168-4.262.897-5.047l.337-.28-.505.056v-.056c0-.392.393-1.458 1.122-2.523.673-.897 2.244-1.738 2.244-1.794l-.112-.225c-.113.056-1.627.953-2.3 1.85"/><path fill="#000" d="M432.958 100.491c.505.336 1.178.28 2.075 0 0 .28 0 .953.561 1.401.673.561 1.683.673 3.085.337v-.281c-1.346.337-2.356.225-2.917-.28a1.69 1.69 0 0 1-.504-1.346v-.224l-.169.112c-.841.337-1.514.393-2.019 0-.841-.56-.785-2.075-.785-2.075h-.225s-.112 1.683.898 2.356"/><path fill="#000" d="M434.528 98.416a.63.63 0 0 0-.449.617v.168c.112.673.842 1.121 1.459 1.29.673.168 1.458.224 1.739-.169.112-.168.224-.448 0-.953a2.08 2.08 0 0 0-2.693-.953zm1.122 1.85c-.561-.168-1.234-.56-1.29-1.121 0 0-.056-.393.28-.505a1.853 1.853 0 0 1 2.356.897c.168.225.168.449.056.561-.168.28-.785.336-1.402.168m-.225 1.514c-.168 1.402 0 1.458.057 1.458h.112l.112-.056.785-1.121-1.009-.449v.168zm.281.225.393.168-.449.617zm-2.356-1.346-.056 1.289 1.122-1.345-1.122-.112v.168zm.224.112h.337l-.337.449z"/><path fill="#000" d="M432.566 100.21s.842 1.626 1.01 2.243c.056.337.561.785 1.122.953.561.225 1.122.225 1.514-.056l.729-.617c.225-.28.337-.336.561-.28v-.28c-.336 0-.505.112-.729.336l-.729.561c-.449.336-.954.224-1.234.112-.561-.168-.954-.561-1.01-.841-.168-.561-.953-2.187-1.009-2.243zm1.122-4.822a2.8 2.8 0 0 0-1.346 1.57l.224.056s.393-1.01 1.178-1.402a1.63 1.63 0 0 1 1.346 0l.056-.224c-.561-.224-1.009-.224-1.514 0zm6.058 2.916c.112 0 1.795 1.346.841 2.915l.169.169c1.121-1.85-.842-3.309-.842-3.365zm-5.161.224s-.28.953 1.122 1.29c0 0-1.29 0-1.402-.337-.056-.336 0-1.065.28-.953m4.207 1.121c0 .113-.112.169-.168.169a.169.169 0 0 1-.168-.112q0-.17.168-.169c.056 0 .168.056.168.168zm.113.673c0 .056 0 .112-.113.112a.16.16 0 0 1-.102-.028.16.16 0 0 1-.066-.084c0-.044.018-.087.049-.119a.17.17 0 0 1 .119-.049c.057 0 .113.056.113.168M437.894 100.154a.168.168 0 1 0 0-.336.168.168 0 1 0 0 .336M438.343 100.883a.17.17 0 0 1-.05.119.168.168 0 0 1-.287-.119c0-.056.056-.112.168-.112zm-3.983-4.093a.17.17 0 0 1-.049.119.17.17 0 0 1-.119.049.17.17 0 0 1-.119-.05.17.17 0 0 1-.05-.118.171.171 0 0 1 .22-.055.16.16 0 0 1 .061.055zM434.304 97.575a.168.168 0 1 0 0-.336.168.168 0 0 0 0 .336M433.462 97.294a.168.168 0 1 0 0-.336.168.168 0 0 0 0 .336M433.856 98.023a.17.17 0 0 1-.028.103.17.17 0 0 1-.085.065.17.17 0 0 1-.119-.049.17.17 0 0 1 0-.238.17.17 0 0 1 .119-.05.17.17 0 0 1 .085.066q.03.047.028.103m2.692-5.383s1.963 1.234.056 3.533c0 0 .954-.73 1.01-1.907.112-1.177-.673-2.13-1.122-1.626zm7.573 3.308c-.674.337-1.571-.28-2.02-.84-.448-.561-1.402-.73-2.019.336-.561 1.01-1.402 1.402-1.402 1.402s.841-.449 1.682-1.402c.842-.897 1.347-.168 2.188.28.785.449.954.56 1.514.28v-.056z"/><path fill="#000" d="M443.953 96.117a.955.955 0 0 1-1.235-.056c-.56-.448-.953-1.01-1.57-.673-.673.337-1.851 1.234-1.851 1.234s1.963-1.346 2.356-1.01c.336.28 1.234 1.01 1.739.786z"/><path fill="#000" d="M442.438 96.902c-.617-.448-1.234.56-1.739.449-.561-.112-.954-1.01-.954-1.01s.449.898 1.122.73c.729-.225 1.178-.674 1.627-.337.392.336-.056.168-.056.168"/><path fill="#000" d="M441.483 97.07a1.12 1.12 0 0 1-1.345-1.065s.392 1.01 1.458.841z"/><path fill="#000" d="M441.428 96.285c.056.28.056.449-.28.449-.337 0-.561-.112-.561-.449 0-.28.785-.224.841 0m-4.375-1.682a.395.395 0 0 1-.393.336c-.224 0-.28-.112-.28-.336s0-.393.28-.393c.281 0 .393.169.393.393"/><path fill="#000" d="M435.651 93.201s2.13 0 1.121 2.636c0 0 .785-1.29.28-2.243-.56-.897-1.289-.673-1.289-.673s-.225.168-.112.28"/><path fill="#000" d="M435.651 94.267c0 .56.336 1.065 1.009 1.626l.168-.225c-.617-.504-.953-.953-.953-1.402s.337-.728.337-.728l-.169-.169s-.392.337-.448.897z"/><path fill="#000" d="M436.099 94.715c.056.28.336.561.673.673l.112-.224c-.281-.112-.505-.337-.561-.56-.112-.45.224-.954.224-.954l-.224-.168s-.393.673-.224 1.233m2.86 1.458s.393.841-.168 1.738l-.561.898s.673-1.29.393-1.795c-.225-.56.336-.84.336-.84m8.19 8.86c2.131.392 7.011 4.205 7.011 4.205l.281-.336c-.169-.169-4.992-3.925-7.236-4.318l-.112.449zm1.907 5.327c.112 1.962 2.244 3.14 2.244 3.196l.28-.393s-1.963-1.121-2.075-2.803zm-5.217.448c0 2.131 2.02 4.71 2.132 4.822l.336-.28s-2.019-2.579-2.019-4.542zm-6.787.224c.337.729.337 1.066.225 1.234-.113.224-.337.224-.337.224l.056.449a.81.81 0 0 0 .673-.449c.225-.392.168-.953-.224-1.682z"/><path fill="#fff" stroke="#000" stroke-miterlimit="3" stroke-width=".2" d="M406.425 100.482s.084 1.434 1.181 2.277c0 0-.084-1.518.253-2.193 0 0-.591-.674-1.434-.084Zm2.193.843s.253 1.35 1.013 1.94l.506-.084s.169-1.687.422-1.856c.253-.168-1.097.591-1.941 0Z"/><path fill="#fff" d="m410.559 101.326.844 1.349 1.012-.59-.168-1.519s-.591-.168-1.688.76m3.966.253-1.097.927s-.591-.421-1.013-.421l.169-1.434s.844-.591 1.941.928m-7.846 13.494s-.169-2.025 0-2.109c0 0 .843.253 1.181 0 0 0 .422 1.518.337 2.193-.169.675-.928.422-1.518 0zm5.062-2.025s-.085-1.686.168-1.939c0 0 1.688.253 2.025-.675l.591 1.687s-1.772-.253-2.869.843z"/><path stroke="#000" stroke-miterlimit="3" stroke-width=".2" d="m412.415 102.085-1.012.59-.844-1.349c1.097-.928 1.688-.76 1.688-.76zm0 0c.422 0 1.013.421 1.013.421l1.097-.927c-1.097-1.519-1.941-.928-1.941-.928zm-5.736 12.988s-.169-2.025 0-2.109c0 0 .843.253 1.181 0 0 0 .422 1.518.337 2.193-.169.675-.928.422-1.518 0zm5.062-2.025s-.085-1.686.168-1.939c0 0 1.688.253 2.025-.675l.591 1.687s-1.772-.253-2.869.843z"/><path fill="#fff" stroke="#000" stroke-miterlimit="3" stroke-width=".2" d="M409.969 113.386s.253-1.772.59-1.856c0 0 .844.253 1.097-.084v2.193s0-.928-1.687-.253Zm-1.941.253s.422-1.603.675-1.603.844.422 1.181.169v1.181s-1.349-.338-1.603 1.602z"/><path fill="#00A651" stroke="#000" stroke-miterlimit="4.8" stroke-width=".5" d="M433.506 146.108s4.387 4.133 3.29 7.759c0 0 2.784-6.156-.253-8.012-3.037-1.686-3.122-.421-3.037.253Z"/><path fill="#964B36" stroke="#000" stroke-miterlimit="4.8" stroke-width=".5" d="M427.853 150.072s-1.096 1.687.169 2.783c0 0-1.434 2.025-.337 3.711 0 0-.844 1.771-.675 3.711 0 0-.675 2.952.843 4.301 0 0 1.688.844 2.532.085 0 0 1.434-2.193.506-4.47 0 0 1.012-1.94-.169-4.386 0 0 .337-1.349-.591-2.952 0 0 .591-1.012.085-1.855 0 0-2.109-2.277-2.363-.843z"/><path fill="#00A651" stroke="#000" stroke-miterlimit="4.8" stroke-width=".5" d="M429.12 144.928s-5.231-10.121-8.943-10.542c-3.712-.422-3.881-4.049-3.881-4.049s.422 1.687 3.375 1.687 8.605 4.217 9.28 7.337c.591 3.121 1.265 2.699 1.265 2.699z"/><path fill="#00A651" stroke="#000" stroke-miterlimit="4.8" stroke-width=".5" d="M429.119 144.169s1.941-12.735 10.293-12.988c8.352-.169 5.568.675 7.593-.675 0 0-5.568 2.868-9.027 3.374-3.544.337-6.412 7.168-6.243 8.433 0 1.265-1.941 3.711-2.869 2.868-1.012-.844.253-1.012.253-1.012Z"/><path fill="#00A651" stroke="#000" stroke-miterlimit="4.8" stroke-width=".5" d="M431.06 148.976s1.94-5.06 5.146-3.374c0 0-2.531-4.891-7.087-.674 0 0 2.025 2.783 1.941 4.048Zm-6.328-5.06s2.7 11.301-1.518 14.759c0 0 .168-5.82-2.447-9.277-2.531-3.543 2.531-7.338 3.965-5.482Z"/><path fill="#00A651" stroke="#000" stroke-miterlimit="4.8" stroke-width=".5" d="M425.069 145.855s4.978 4.808 5.231 6.41c.338 1.518 1.519-4.807-.844-6.578s-4.809-2.109-4.809-2.109l.422 2.362z"/><path fill="#964B36" stroke="#000" stroke-miterlimit="4.8" stroke-width=".5" d="M415.873 158.422s.422 1.939 1.687 2.361c0 0 0 1.434 1.182 1.856 0 0-.591 1.265.337 2.024 0 0-.169 2.53.675 2.951 0 0 2.278-.084 3.037-.759 0 0 .422-1.602-.844-3.204 0 0 .254-1.518-1.012-2.362 0 0 .422-2.108-1.181-2.867 0 0-.253-1.687-1.181-2.53 0 0-1.856 2.614-2.7 2.53Z"/><path fill="#00A651" stroke="#000" stroke-miterlimit="4.8" stroke-width=".5" d="M418.32 155.891s-6.496-2.361-10.124 1.012c0 0 5.569.844 6.243 1.94s4.134-1.855 3.881-2.952Z"/><path fill="#00A651" stroke="#000" stroke-miterlimit="4.8" stroke-width=".5" d="m416.295 159.94-1.181-.843c-.59-.506-6.074-1.94-6.834 3.373 0 0-2.024-5.313.844-5.904 2.953-.843 5.231.844 7.171 3.374Zm-4.218-10.795s1.94 4.385 2.7 4.554c.759.253 1.265-.506 1.265-.506s-2.615-3.88-4.049-4.048zm-1.519-6.663s-1.687-5.566-3.712-4.048c-2.025 1.434-1.518 5.482-1.518 5.482s-3.966-4.217-1.688-7.422c2.363-3.289 6.918.338 6.918 5.988Z"/><path fill="#964B36" stroke="#000" stroke-miterlimit="4.8" stroke-width=".5" d="M415.114 154.036s0 1.096.76 1.349c.674.338 2.109.844 2.109.253 0-.59-1.097-3.12-1.519-2.783s-1.181.338-1.35 1.181Z"/><path fill="#00A651" d="M413.848 147.458s-.253-4.807 2.953-6.663c0 0 .591.169.928-.843 0 0-2.531 6.157-1.771 9.277l-.085.337"/><path stroke="#000" stroke-miterlimit="4.8" stroke-width=".5" d="M413.848 147.458s-.253-4.807 2.953-6.663c0 0 .591.169.928-.843 0 0-2.531 6.157-1.771 9.277l-.085.337"/><path fill="#00A651" stroke="#000" stroke-miterlimit="4.8" stroke-width=".5" d="M414.439 141.554s5.737-11.807 12.656-7.674c0 0-7.256 1.433-9.871 6.662l-2.616 3.88z"/><path fill="#00A651" d="M411.402 145.855s-1.687-7.927-2.784-8.939c-1.012-1.097-2.784-2.193-4.977-.422 0 0 3.712-3.289 7.593-.506 3.965 2.699 3.121 7.084 3.121 7.084l-.422 5.482-2.615-2.446"/><path stroke="#000" stroke-miterlimit="4.8" stroke-width=".5" d="M411.402 145.855s-1.687-7.927-2.784-8.939c-1.012-1.097-2.784-2.193-4.977-.422 0 0 3.712-3.289 7.593-.506 3.965 2.699 3.121 7.084 3.121 7.084l-.422 5.482-2.615-2.446"/><path fill="#00A651" stroke="#000" stroke-miterlimit="4.8" stroke-width=".5" d="M417.561 155.301s-7.003-13.241-11.559-3.795c0 0-.843 2.445.085 3.373 0 0-2.531-1.94-1.35-6.578 1.181-4.639 8.858-2.53 11.136 1.265 2.194 3.795 2.784 5.735 2.531 5.904-.337.253-.843-.169-.843-.169Zm19.657 3.795s5.062-10.458 8.015-5.735c0 0 .844 2.362-.422 3.374 0 0-2.025-2.53-3.796.506-1.856 2.951-1.097 2.698-1.097 2.698s-1.856.506-2.7-.843Z"/><path fill="#00A651" stroke="#000" stroke-miterlimit="4.8" stroke-width=".5" d="M444.728 156.735s2.784 1.434 1.856 4.385c0 0 3.712-7.084-1.35-7.759 0 0 .928 2.278-.422 3.374zm.421-7.253s6.665 1.94 6.834 4.807c0 0 1.181-5.566-2.615-7.253 0 0-4.556.844-4.219 2.53z"/><path fill="#00A651" d="M448.101 140.711c2.869-5.566 6.412 1.771 6.412 1.771s1.266-5.819-2.278-6.831c-3.627-1.097-5.905 12.397-5.905 12.397l-4.219.844s1.097-11.639 7.425-12.651h.843"/><path stroke="#000" stroke-miterlimit="4.8" stroke-width=".5" d="M448.101 140.711c2.869-5.566 6.412 1.771 6.412 1.771s1.266-5.819-2.278-6.831c-3.627-1.097-5.905 12.397-5.905 12.397l-4.219.844s1.097-11.639 7.425-12.651h.843"/><path fill="#00A651" stroke="#000" stroke-miterlimit="4.8" stroke-width=".5" d="M443.039 144.085s-4.049-8.265-6.749-9.109 1.434-2.108 3.122-.506 4.893 3.627 4.555 7.844zm-4.218 11.301s1.181-5.566 4.387-7.253 6.159-1.097 6.159-1.097-3.797.844-4.472 2.784c-.59 1.855-1.687 2.024-1.687 2.024z"/><path fill="#964B36" stroke="#000" stroke-miterlimit="4.8" stroke-width=".5" d="M437.134 159.097s-1.687 3.373-1.35 3.879c0 0-1.856 2.783-1.097 4.217 0 0 1.856 1.434 2.7.843 0 0 2.194-3.12 1.603-4.807 0 0 1.519-2.024.928-3.289 0 0-2.193.084-2.7-.843z"/><path fill="#000001" d="M427.854 153.024c.168.084 1.265.59 1.94.337l.506-.421-.421-.169c-.254.506-1.435.084-1.772-.084l-.169.337zm-.085 3.374-.168.421c.084 0 2.278.422 3.29-.506l-.338-.337c-.843.759-2.784.337-2.868.337zm-.59 3.71-.253.338s2.531 1.771 4.134-.169l-.422-.253c-1.266 1.603-3.375.169-3.459 0zm-9.702.506.084.253c.084 0 2.193-.843 2.362-2.445h-.253c-.084 1.349-2.109 2.192-2.193 2.192m1.181 1.94v.253c.168 0 2.109-.168 2.446-1.518h-.253c-.337 1.097-2.109 1.265-2.193 1.265m.422 2.024v.253c.084 0 2.277.085 3.037-1.096l-.253-.169c-.675 1.097-2.784 1.012-2.784 1.012m16.62-1.433s.928 1.012 2.025.927a1.94 1.94 0 0 0 1.434-.674l-.338-.338c-.337.422-.674.591-1.096.591-.844 0-1.688-.844-1.688-.844z"/><path fill="#964B36" d="M501.253 170.903a.9.9 0 0 0-.253.253l.337-.253zm7.846-1.939c-.084-.169-.168-.085-.253-.169l-.337-.675h-.253l-.591-1.18a.34.34 0 0 0 0-.253 6 6 0 0 0 0-.338s-.169 0-.253-.168v-1.35l-.084-.422a1.7 1.7 0 0 1-.254-.927v-.844c.085-.337-.084-.506-.084-.843l.084-.759v-4.554l-.084-.844-.084-.337v-1.349 2.192l-.169-3.626-2.869-1.35s-.253 5.229-.168 5.904c0 .759.337 5.651.168 6.241l-.421 3.627s-1.35 1.012-1.856 2.024c-.591 1.096-.422 1.433-.591 1.433l1.266-.168-.929.674a.6.6 0 0 1 .591.085l.169.168.169-.168c.253 0 .421.337.59.253l.338-.169.168-.337c.085-.085.253 0 .338 0h.59c.253 0 .507-.422.76-.591a.77.77 0 0 1 .59-.253c.253 0 .506.253.844.253.169 0 .253 0 .422-.168l.337-.506.675-.085.338.085h.506l.253.168.169-.337z"/><path stroke="#000" stroke-miterlimit="4.8" stroke-width=".3" d="m501.337 170.903-.337.253a.9.9 0 0 1 .253-.253zm0 0 .929-.674-1.266.168c.169 0 0-.337.591-1.433.506-1.012 1.856-2.024 1.856-2.024l.421-3.627c.169-.59-.168-5.482-.168-6.241-.085-.675.168-5.904.168-5.904l2.869 1.35.169 3.626v-2.192 1.349l.084.337.084.844v4.554l-.084.759c0 .337.169.506.084.843v.844c-.007.327.081.649.254.927l.084.422v1.35c.084.168.253.168.253.168q.004.169 0 .338a.34.34 0 0 1 0 .253l.591 1.18h.253l.337.675c.085.084.169 0 .253.169l.085.337-.169.337-.253-.168h-.506l-.338-.085-.675.085-.337.506c-.169.168-.253.168-.422.168-.338 0-.591-.253-.844-.253a.77.77 0 0 0-.59.253c-.253.169-.507.591-.76.591h-.59c-.085 0-.253-.085-.338 0l-.168.337-.338.169c-.169.084-.337-.253-.59-.253l-.169.168-.169-.168a.597.597 0 0 0-.591-.085Z"/><path fill="#964B36" d="M503.362 170.819h.506v.169a.172.172 0 0 0 .169 0l.253.168h.253l.338.085c.169.084.337 0 .506-.085.169-.168.253 0 .506.169.085.084.085.084.169 0l.084-.084.254-.085.253-.084.337-.169.338.169a.7.7 0 0 1 .168 0l.591-.422c.253-.168.422 0 .59 0h.254c.084-.084.168 0 .337 0 0-.084 0-.168.169-.253l.59.338c.085.084.591.168.507-.169 0-.337-.338-.084-.422-.337v-.506a.6.6 0 0 0-.253-.338c-.169 0-.169.084-.338 0l-.169-.506-.253.169c-.168 0-.168-.085-.253-.253-.253-.253-.337.168-.59.084-.169 0-.338-.422-.422-.59-.085-.085-.253-.422-.422-.338-.169.085 0 .422 0 .591h-.422c-.169 0-.169 0-.253.168-.169.338-.253.591-.591.506-.084 0-.253-.084-.337 0l-.422.169a.8.8 0 0 1-.337 0l-.338-.337a.1.1 0 0 0-.024-.06.084.084 0 0 0-.12 0 .08.08 0 0 0-.025.06l-.084-.169c-.169 0-.169 0-.253.253l-.084.422-.254.337-.337.085c-.169 0-.337.253-.337 0-.169-.338.253-.928-.169-.844-.085 0-.169 0-.253.169v.59c-.085.253-.591.675-.506.844 0 .253.337 0 .337 0l.169.337c.168.253.59-.337.59 0m-1.771-2.277v-.169l-.338-.084c-.169 0-.337.253-.422.337-.168.337-.168.844-.506.844h-.422v.843s-.168 0-.168.169c-.085.337.168.168.337.168h.844l.421-.084c.169 0 .338 0 .422-.169q.102-.16.169-.337v-.337c0-.169.253-.085.253-.338.085-.59-.506-.169-.422-.759"/><path stroke="#000" stroke-miterlimit="4.8" stroke-width=".3" d="M503.362 170.819h.506v.169a.172.172 0 0 0 .169 0l.253.168h.253l.338.085c.169.084.337 0 .506-.085.169-.168.253 0 .506.169.085.084.085.084.169 0l.084-.084.254-.085.253-.084.337-.169.338.169a.7.7 0 0 1 .168 0l.591-.422c.253-.168.422 0 .59 0h.254c.084-.084.168 0 .337 0 0-.084 0-.168.169-.253l.59.338c.085.084.591.168.507-.169 0-.337-.338-.084-.422-.337v-.506a.6.6 0 0 0-.253-.338c-.169 0-.169.084-.338 0l-.169-.506-.253.169c-.168 0-.168-.085-.253-.253-.253-.253-.337.168-.59.084-.169 0-.338-.422-.422-.59-.085-.085-.253-.422-.422-.338-.169.085 0 .422 0 .591h-.422c-.169 0-.169 0-.253.168-.169.338-.253.591-.591.506-.084 0-.253-.084-.337 0l-.422.169a.8.8 0 0 1-.337 0l-.338-.337a.08.08 0 0 0-.025-.06.084.084 0 0 0-.119 0 .08.08 0 0 0-.025.06l-.084-.169c-.169 0-.169 0-.253.253l-.084.422-.254.337-.337.085c-.169 0-.337.253-.337 0-.169-.338.253-.928-.169-.844-.085 0-.169 0-.253.169v.59c-.085.253-.591.675-.506.844 0 .253.337 0 .337 0l.169.337c.168.253.59-.337.59 0m-1.771-2.277v-.169l-.338-.084c-.169 0-.337.253-.422.337-.168.337-.168.844-.506.844h-.422v.843s-.168 0-.168.169c-.085.337.168.168.337.168h.844l.421-.084c.169 0 .338 0 .422-.169q.102-.16.169-.337v-.337c0-.169.253-.085.253-.338.085-.59-.506-.169-.422-.759"/><path fill="#000" stroke="#000" stroke-miterlimit="4.8" stroke-width=".5" d="M508.677 152.434c0 .759-.506 1.349-1.181 1.349-.59 0-1.181-.59-1.181-1.349s.591-1.35 1.181-1.35c.675 0 1.181.591 1.181 1.35Zm-3.796-1.687c0 .759-.506 1.35-1.181 1.35s-1.181-.591-1.181-1.35c0-.843.59-1.349 1.181-1.349.59 0 1.181.59 1.181 1.349Z"/><path fill="#000" stroke="#000" stroke-miterlimit="4.8" stroke-width=".5" d="M506.905 151.253c0 .844-.506 1.35-1.18 1.35-.675 0-1.181-.591-1.181-1.35s.506-1.349 1.181-1.349c.674 0 1.18.59 1.18 1.349Z"/><path fill="#000" stroke="#000" stroke-miterlimit="4.8" stroke-width=".5" d="M504.964 152.518c0 .759-.506 1.35-1.181 1.35-.674 0-1.18-.591-1.18-1.35s.506-1.349 1.18-1.349c.675 0 1.181.59 1.181 1.349Z"/><path fill="#000" stroke="#000" stroke-miterlimit="4.8" stroke-width=".5" d="M506.736 153.615c0 .674-.506 1.349-1.18 1.349-.591 0-1.181-.59-1.181-1.349 0-.844.59-1.434 1.181-1.434.674 0 1.18.59 1.18 1.349z"/><path fill="#00A651" stroke="#000" stroke-miterlimit="4.8" stroke-width=".5" d="M507.327 138.602s11.727-16.361 24.298.591c0 0 .084 1.686-1.097 3.542l-.253-1.434-.844.253-.168-.843-1.35-.085.422-1.855-1.435 1.181.169-1.265-1.687 1.686.253-3.626-1.856 3.12.253-2.108-.675.928-.337-1.266-.591 1.266-.844-.591v.844l-1.518-1.266-.507 1.687-.759-1.855-.169 1.265-.759-1.434-.084 1.603-2.447-1.097.506 1.518-1.096-.843.168.843-1.603-.337.169.928-1.687-.338.253.844-2.278-.253.844.843-.254.506s12.656-4.217 13.499 11.639l-2.278 1.096.675-1.265-.675-.422-1.94-1.434.59-2.024-.675.253-.084-1.18-.337.168-.76-1.096-.168.422-.507-1.434-.59 1.012-.253-2.361-.844 1.518-.169-.844-.253.506-1.097-1.265-.337.844-.422-.675-.253.843-1.181-1.18v.843l-.844-.59-.253.421-1.772-.928-.084.844-1.012-.844-.253.844s11.473 6.578 7.93 17.205l-.675 1.349-.169-3.542-1.096 1.855.759-4.132-.759.843-.085-1.687-.928 1.687-.337-1.855-.422.506-.675-2.699-.506 1.096-.844-3.036-.675 1.265-.422-2.614-.421 1.602-1.266-2.361-.169.928-.759-1.856-.422.59s-2.109-.084-2.784-.59c-.591-.59-2.362 3.121-2.362 3.121l.168-2.193-.759 1.518v-1.518l-1.35 4.47-.337-3.205-.675 2.783-.338-.843-.253 1.096-.422-.422-.337 1.265-.675-.506v1.687l-.675-.843-.506 2.53-.338-1.012v1.096l-.506-.59-.506 2.53-.844-1.096v1.855l.253 1.349-.843-.421.337 2.192s-3.29-6.072.675-11.975c3.881-5.904 9.196-7.591 9.196-7.591l-.59-.506v-.506l-3.206 1.603v-.928l-.844.675-.169-1.013-.506.928-.084-.421-.844 1.18-.337-1.687-.507 2.025-.506-1.434-1.097 2.952v-2.193l-.843 2.361-.338-2.53-.59 2.868v-2.53l-1.013 2.53-.59-2.53-.422 2.53-.675-1.94-.591 2.867-1.012-2.53-.506 3.795-.591-1.518-.169 2.784-.674-1.687.674 3.542-.843-1.349.253 2.192-1.35-2.445v2.867l-.675-.928-.337 1.097s-.254-10.964 7.255-13.157c7.509-2.108 12.318.675 12.318.675l-2.869-2.362.338-.759h-1.013l.422-.843-2.278.084.675-.843-1.687.253v-.506l-1.097.843.422-1.012-1.434 1.012-.085-1.434-.843 1.181-.338-1.265-3.375 3.374.844-3.458-.59.759-.085-.844-.928 1.519-.253-1.013-.422 1.266-.337-1.519-.675 1.519-.844-1.35-.253 1.771-.506-.927-.675 1.349-.844-.843v.843l-1.687-.759.337 1.265-1.265-1.012-.338 1.687-.674-.844-.591 2.109-.506-2.024-.506 1.602s6.58-17.036 23.285-5.904c0 0 1.856 1.771 2.278 3.037.422 1.265.084.168.084.168l-.337-11.723.675 5.061.421-1.687-.084 2.53 1.687-3.627s-2.024 6.073-1.265 8.35c0 0 .759-7.084 3.29-7.928l-2.362 5.06.759-.084-.506 1.012h.591l-.76 1.687-.422.843.422.844z"/><path fill="#000" d="m505.555 145.434.338.337s1.097-1.181 2.868.337l.253-.337c-2.109-1.771-3.374-.337-3.374-.337zm-.506-5.735v.421l.76-.337-.591 1.012 1.265-.422-1.518 1.94.337.253 2.447-3.12-1.519.506.675-1.097-1.35.506.254-1.602h-.422z"/><path fill="#000" d="m502.856 139.867.506 1.097-.844-.338 2.447 4.386.338-.422-.507 1.265.422.169 1.013-2.699-.338-.253-.844 1.097-1.518-2.615.675.253-.675-1.434.928.506v-1.602h-.422v.843l-1.519-.927zm-1.603 5.398.169.422c.675-.253 1.265-.338 1.687-.169.422.253.591.759.591.843l.421-.168s-.168-.759-.843-1.012c-.506-.253-1.181-.253-2.025.084m1.94 4.554-.421-2.361h.506l.337 2.277zm3.206-.337-.59-1.856.422-.084.59 1.687zm1.181 1.265-.421-1.771.421-.085.507 1.771z"/><path fill="#00A651" d="M417.392 204.976s-2.025-.844-2.953-.169c-.844.591-.759 1.603-1.519 1.518 0 0 3.038.675 3.628-.084l.844-1.012m.337.59s-1.35 1.687-.843 2.783c.421 1.012 1.434 1.097 1.181 1.856 0 0 1.265-2.783.675-3.627-.591-.843-.844-.927-.844-.927m-2.362-4.892s-2.109.675-2.362 1.687c-.169 1.18.506 1.771-.085 2.277 0 0 2.7-1.518 2.616-2.53v-1.265m1.012.59s1.012-1.94.422-2.867c-.675-1.013-1.688-.844-1.519-1.687 0 0-.844 2.952 0 3.711l.928.843m-1.856-.759s0-2.193-.844-2.699c-1.012-.59-1.856-.084-2.109-.843 0 0 .591 3.036 1.519 3.373l1.265.253m3.713 3.542s2.277-.843 2.531 1.687c.168 2.53-.169 1.687-.169 1.687s-1.181-2.699-2.531-3.12z"/><path stroke="#000" stroke-miterlimit="4.8" stroke-width=".5" d="M417.392 204.976s-2.025-.844-2.953-.169c-.844.591-.759 1.603-1.519 1.518 0 0 3.038.675 3.628-.084l.844-1.012m.337.59s-1.35 1.687-.843 2.783c.421 1.012 1.434 1.097 1.181 1.856 0 0 1.265-2.783.675-3.627-.591-.843-.844-.927-.844-.927m-2.362-4.892s-2.109.675-2.362 1.687c-.169 1.18.506 1.771-.085 2.277 0 0 2.7-1.518 2.616-2.53v-1.265m1.012.59s1.012-1.94.422-2.867c-.675-1.013-1.688-.844-1.519-1.687 0 0-.844 2.952 0 3.711l.928.843m-1.856-.759s0-2.193-.844-2.699c-1.012-.59-1.856-.084-2.109-.843 0 0 .591 3.036 1.519 3.373l1.265.253m3.713 3.542s2.277-.843 2.531 1.687c.168 2.53-.169 1.687-.169 1.687s-1.181-2.699-2.531-3.12z"/><path fill="#000" d="m417.73 205.904.169 1.855h.337l-.253-1.855.843-4.133h-.337l-.843 4.133z"/><path fill="#000" d="m415.62 205.313-.084.253c1.097.422 2.531-.843 2.615-.843l-.168-.253s-1.435 1.096-2.363.843m2.869-2.445-5.062-2.531.169-.421 5.062 2.53z"/><path fill="#000" d="m414.777 202.277-.338-.337 1.013-1.012.337.337zm1.772-.506-1.097-2.361.422-.169 1.096 2.361zm1.518 2.868v.506c1.434-.085 1.688.843 1.688.843l.506-.169c0-.253-.591-1.265-2.194-1.18"/><path fill="#fff" d="M441.522 205.651c1.687-.843 2.024-4.217 2.024-4.217-.422 1.181-3.543 2.446-3.543 2.446 2.278-1.434 5.062-7.928 5.062-7.928-.675 2.277-6.749 4.217-10.63 6.41s-1.856 8.434-1.856 8.434c-1.097-.76-3.206-4.049-3.628-7-.422-2.952-1.519-4.133-4.219-4.47-2.615-.338-4.218 2.698-4.218 2.698l-3.965 2.025 4.049.168s2.869.928 2.869 3.205c0 2.193-2.531 11.217 1.687 16.277 2.784 3.458 13.499 5.482 13.499 5.482"/><path stroke="#000" stroke-miterlimit="4.8" stroke-width=".7" d="M441.522 205.651c1.687-.843 2.024-4.217 2.024-4.217-.422 1.181-3.543 2.446-3.543 2.446 2.278-1.434 5.062-7.928 5.062-7.928-.675 2.277-6.749 4.217-10.63 6.41s-1.856 8.434-1.856 8.434c-1.097-.76-3.206-4.049-3.628-7-.422-2.952-1.519-4.133-4.219-4.47-2.615-.338-4.218 2.698-4.218 2.698l-3.965 2.025 4.049.168s2.869.928 2.869 3.205c0 2.193-2.531 11.217 1.687 16.277 2.784 3.458 13.499 5.482 13.499 5.482"/><path fill="#fff" d="M433.675 212.651s.843-4.048 3.459-3.88 3.375-3.036 4.978-3.458c1.602-.506 9.702-2.698 10.545-6.578 0 0-.759 6.41-8.183 9.615 0 0 5.99-1.94 6.749-3.29 0 0-2.7 5.735-9.196 6.663 0 0 6.075-.506 6.918-2.108 0 0-2.699 3.542-7.171 4.048 0 0 4.218 1.687 5.231.253 0 0-2.278 2.699-5.062 2.867l.843.169s-2.699 3.205-5.652 1.096-3.037.506-3.037.506"/><path stroke="#000" stroke-miterlimit="4.8" stroke-width=".7" d="M433.675 212.651s.843-4.048 3.459-3.88 3.375-3.036 4.978-3.458c1.602-.506 9.702-2.698 10.545-6.578 0 0-.759 6.41-8.183 9.615 0 0 5.99-1.94 6.749-3.29 0 0-2.7 5.735-9.196 6.663 0 0 6.075-.506 6.918-2.108 0 0-2.699 3.542-7.171 4.048 0 0 4.218 1.687 5.231.253 0 0-2.278 2.699-5.062 2.867l.843.169s-2.699 3.205-5.652 1.096-3.037.506-3.037.506"/><path fill="#fff" d="M439.666 218.723s3.459 5.735 3.796 8.771c0 0 6.581 7.169 9.028 7.59 0 0-1.182.506-3.375-1.265 0 0 1.856 1.856 2.193 1.94.338 0-1.434-.169-1.687-.675.318.487.718.915 1.181 1.265l-.422-.168s-.843-.085-1.35-.422c-.421-.337-.084.843-.084.843s-1.012-.253-1.35-.59c-.337-.337.085.759.085.759l-.844-.253-.675.422s0 .421-.422 0c-.422-.253-1.181 0-1.181 0s-.506.506-.844.168c-.253-.337-1.265 1.35-1.265 1.35l-4.219-10.374"/><path stroke="#000" stroke-miterlimit="4.8" stroke-width=".7" d="M439.666 218.723s3.459 5.735 3.796 8.771c0 0 6.581 7.169 9.028 7.59 0 0-1.182.506-3.375-1.265 0 0 1.856 1.856 2.193 1.94.338 0-1.434-.169-1.687-.675.318.487.718.915 1.181 1.265l-.422-.168s-.843-.085-1.35-.422c-.421-.337-.084.843-.084.843s-1.012-.253-1.35-.59c-.337-.337.085.759.085.759l-.844-.253-.675.422s0 .421-.422 0c-.422-.253-1.181 0-1.181 0s-.506.506-.844.168c-.253-.337-1.265 1.35-1.265 1.35l-4.219-10.374"/><path fill="#000" d="m443.799 237.446-5.4-10.289.507-.337 5.399 10.373zm4.724-.675-9.28-10.373.506-.422 9.281 10.374zm2.11-.843-10.546-10.036.422-.422 10.545 9.868zM424.096 202.599s-.673-1.234-1.29-.729c-.561.448-.898.561-1.01.504 0 0 .561 0 .954-.28.336-.336.897-.168 1.346.561zm-3.702-.561.393.785-.449 1.29.336.112.393-1.402-.393-.897z"/><path fill="#000" d="M423.983 202.431s-.561.56-1.234.448l-.728-.168h1.009c.392 0 .897-.168.953-.28"/><path fill="#000" d="M423.816 202.543s-.673-.673-1.122-.449c0 0 .785-.28 1.234.393z"/><path fill="#000" d="M423.703 202.431s-.729.504-1.514 0l-.056-.112h.112s.953.392 1.458.112"/><path fill="#000" d="M423.087 202.543a.224.224 0 1 0 0-.45.224.224 0 0 0 0 .45M423.636 221.337s-.591 1.012-.254 1.687c.254.591 1.688.844 1.772 1.687.169.843.675.843 1.266.843l.759-.253s-2.615-1.349-3.375-3.626z"/><path fill="#964B36" stroke="#000" stroke-miterlimit="4.8" stroke-width=".3" d="M507.497 200.422s4.724-6.241 8.943-4.639c4.218 1.687 6.833 2.53 6.833 2.53s.085 4.133-2.109 4.133-4.387-4.217-6.412-2.952a10.96 10.96 0 0 0-3.796 3.542c-.085.59-5.315.675-3.459-2.614Z"/><path fill="#964B36" stroke="#000" stroke-miterlimit="4.8" stroke-width=".5" d="M489.611 230.446s-1.35 1.349-.759 1.687c.59.337 1.771 0 1.771-.507 0-.506-.844-1.349-1.012-1.18Z"/><path fill="#964B36" stroke="#000" stroke-miterlimit="4.8" stroke-width=".5" d="M488.598 231.795s-2.531-1.434-4.387 1.856c-1.94 3.204-3.459 8.518-4.556 9.277-1.096.674 10.799-5.229 10.968-7.759 0 0 .759-3.205-.506-3.121-1.266 0-1.35.169-1.603-.337z"/><path fill="#964B36" d="M488.851 232.132s-2.531.591-3.037 4.133-3.965 5.313-4.218 5.482m41.677-43.518s-3.712 1.349-3.121 3.964z"/><path stroke="#000" stroke-miterlimit="4.8" stroke-width=".3" d="M488.851 232.132s-2.531.591-3.037 4.133-3.965 5.313-4.218 5.482m41.677-43.518s-3.712 1.349-3.121 3.964"/><path fill="#FFF200" d="M494.25 205.904s.169-8.94 7.509-8.603c1.35.169.675 1.771.675 1.771s1.687-1.096 2.362.675c0 0 2.278-1.012 2.531 1.265 0 0 2.531-.337 2.193 1.687 0 0 1.688-.422 1.688 1.012 0 0 1.94-.759 1.687 1.265 0 0 2.194-1.434 1.941 1.181 0 0 2.193-1.603 2.952 1.012.844 2.699-2.193 8.265-5.146 9.699"/><path stroke="#000" stroke-miterlimit="4.8" stroke-width=".3" d="M494.25 205.904s.169-8.94 7.509-8.603c1.35.169.675 1.771.675 1.771s1.687-1.096 2.362.675c0 0 2.278-1.012 2.531 1.265 0 0 2.531-.337 2.193 1.687 0 0 1.688-.422 1.688 1.012 0 0 1.94-.759 1.687 1.265 0 0 2.194-1.434 1.941 1.181 0 0 2.193-1.603 2.952 1.012.844 2.699-2.193 8.265-5.146 9.699"/><path fill="#000" d="M514.667 206.494s.928 6.916-2.953 9.53l.084.169c4.134-2.53 3.122-9.699 3.122-9.783h-.253zm-4.809 7.59.169.169c2.531-2.446 3.121-8.94 3.121-9.277h-.253s-.59 6.747-3.037 9.108m-2.278-1.602h.253a21.9 21.9 0 0 1 3.459-8.687l-.169-.084s-3.205 4.638-3.543 8.771m-1.856-1.181h.253c.422-4.807 3.712-8.433 3.712-8.518l-.169-.168s-3.374 3.795-3.796 8.686m-2.531-1.686h.253c.253-5.651 4.05-8.434 4.05-8.434l-.169-.253s-3.881 2.867-4.218 8.771zm-2.362-1.35h.253c-.169-5.229 3.796-8.434 3.881-8.434l-.169-.168s-4.218 3.205-3.965 8.602m-4.219-1.94h.253a8.61 8.61 0 0 1 5.737-7.084v-.253a8.86 8.86 0 0 0-5.99 7.337"/><path fill="#00A651" d="M489.947 216.783s-1.265-8.349 3.713-10.964c0 0 .928-.168 1.434 1.012 0 0 2.615-1.096 2.7 1.097 0 0 1.35-1.012 1.687.421 0 0 2.784-.59 2.278 1.519 0 0 2.362-.675 2.109 1.349 0 0 2.362-.843 2.025.843 0 0 2.531-.506 1.856 1.518 0 0 3.122-.337 2.194 1.771 0 0 2.277-.59 1.687 1.181 0 0 3.037.591 1.687 2.53a20.3 20.3 0 0 1-8.268 5.904"/><path stroke="#000" stroke-miterlimit="4.8" stroke-width=".3" d="M489.947 216.783s-1.265-8.349 3.713-10.964c0 0 .928-.168 1.434 1.012 0 0 2.615-1.096 2.7 1.097 0 0 1.35-1.012 1.687.421 0 0 2.784-.59 2.278 1.519 0 0 2.362-.675 2.109 1.349 0 0 2.362-.843 2.025.843 0 0 2.531-.506 1.856 1.518 0 0 3.122-.337 2.194 1.771 0 0 2.277-.59 1.687 1.181 0 0 3.037.591 1.687 2.53a20.3 20.3 0 0 1-8.268 5.904"/><path fill="#00A651" d="M487.248 225.133s-2.025-6.916 1.856-8.687c0 0 .759-.169.843.506 0 0 .844-1.096 1.519-.084 0 0 1.94-.928 2.447.506 0 0 1.265-1.097 1.94.506 0 0 1.266-.506 1.266.843 0 0 1.687-.843 1.687.843 0 0 1.687-.674 1.265 1.013 0 0 2.532.421 1.772 1.602 0 0 2.278.59 1.434 1.518 0 0 2.363-.253 1.097 1.349 0 0 1.856-.59.844 1.434-1.097 2.024-4.387 4.217-6.749 4.554"/><path stroke="#000" stroke-miterlimit="4.8" stroke-width=".3" d="M487.248 225.133s-2.025-6.916 1.856-8.687c0 0 .759-.169.843.506 0 0 .844-1.096 1.519-.084 0 0 1.94-.928 2.447.506 0 0 1.265-1.097 1.94.506 0 0 1.266-.506 1.266.843 0 0 1.687-.843 1.687.843 0 0 1.687-.674 1.265 1.013 0 0 2.532.421 1.772 1.602 0 0 2.278.59 1.434 1.518 0 0 2.363-.253 1.097 1.349 0 0 1.856-.59.844 1.434-1.097 2.024-4.387 4.217-6.749 4.554"/><path fill="#00A651" stroke="#000" stroke-miterlimit="4.8" stroke-width=".3" d="M489.695 230.614s-4.303-4.216-2.278-5.397c0 0 .843.253 1.265 1.181 0 0 1.013-1.519 1.688 0 0 0 1.518-.507 1.518.59l1.181.843s1.435-.084 1.182.844c0 0 1.603-.253 1.518.59 0 0 1.35.084 1.266 1.012 0 0 2.362.422 1.265 1.602 0 0-4.049.844-7.002-.337 0 0-1.435-.506-1.603-.928Z"/><path fill="#000" d="M504.543 223.699v.253a30.4 30.4 0 0 0 7.255-7.337l-.253-.169c0 .084-4.556 6.325-7.002 7.253m-1.519-1.096.169.253c2.193-1.265 6.665-7.169 6.749-7.422l-.084-.169c-.084.085-4.64 6.073-6.749 7.338zm-1.265-.506.168.168a40.5 40.5 0 0 0 5.906-8.686l-.169-.085s-3.543 6.663-5.905 8.603m-1.097-1.518h.253c.422-3.205 5.062-8.35 5.062-8.434l-.253-.084c-.169.168-4.64 5.229-5.062 8.518m-9.196-3.964h.253c-.338-4.639 3.459-9.699 3.543-9.699l-.253-.169s-3.965 5.229-3.543 9.868m2.446.421h.254c-.675-3.71 3.712-8.939 3.712-9.024l-.169-.168c-.169.253-4.471 5.397-3.797 9.192m3.713 1.35h.253c-.169-4.217 3.881-8.434 3.965-8.434l-.169-.253c0 .084-4.218 4.386-4.049 8.687m-8.859 7.59h.253c-1.518-3.964 1.013-8.94 1.097-8.94l-.253-.168s-2.616 5.144-1.097 9.193zm1.687.338.254-.085c-1.35-3.964.843-9.277.843-9.277l-.169-.169s-2.277 5.482-.928 9.531m7.003 3.963v.169c4.218-1.434 7.002-5.313 7.002-5.313l-.253-.169s-2.699 3.795-6.749 5.313m-.844-.927v.253c3.375-1.518 6.497-5.735 6.497-5.735l-.169-.169s-3.122 4.217-6.328 5.651m-.843-.338.168.253c2.531-1.939 5.906-6.747 5.906-6.747l-.169-.168s-3.374 4.807-5.905 6.662m-4.219-2.445h.338a17.7 17.7 0 0 1 2.109-9.193l-.253-.085s-2.7 5.061-2.109 9.278zm1.856 1.18.169.169c2.7-2.446 3.628-8.94 3.628-9.277h-.253s-.844 6.747-3.544 9.108m1.856.675.169.253a14.34 14.34 0 0 0 4.809-8.012h-.253s-1.012 5.06-4.725 7.843zm.422-11.301v.759l-2.868 9.277.253.084 2.868-9.277c-.422-4.554 3.544-9.53 3.628-9.53l-.253-.169s-3.628 4.47-3.628 8.856"/><path fill="#000" d="M498.722 219.398c0 .169-.928 6.494-4.387 8.855l.169.253c3.543-2.445 4.387-8.686 4.387-9.024 1.518-1.771 5.062-8.181 5.062-8.181l-.169-.168s-3.543 6.409-5.062 8.265m-10.124 7c0 .084.506 3.373 1.181 4.385l.253-.084c-.675-1.096-1.265-4.301-1.265-4.385l-.253.084zm1.603 0-.084 4.47h.253v-4.47z"/><path fill="#000" d="m490.286 230.952.253.084c1.097-2.361 1.434-4.048 1.434-4.048h-.253s-.337 1.602-1.434 3.964m.253.084.169.253a5.56 5.56 0 0 0 2.531-3.373h-.253s-.506 2.024-2.447 3.12m.422.169v.253c2.025-.169 3.375-2.615 3.375-2.783h-.169s-1.35 2.361-3.206 2.53"/><path fill="#000" d="M491.129 231.374v.253c3.29-.253 4.724-2.193 4.724-2.278l-.168-.084s-1.435 1.856-4.556 2.109"/><path fill="#000" d="M491.382 231.373v.253c.084 0 4.218.928 5.652-1.18l-.253-.169c-1.265 2.024-5.399 1.181-5.399 1.096"/><path stroke="#000" stroke-miterlimit="4.8" stroke-width="2.8" d="M399.084 81v115.036c0 37.615 68 59.88 68 59.88S535 233.651 535 196.036V81z"/><g clip-path="url(#b)"><path fill="#fff" d="M0 0h300v150H0z"/><path fill="#012169" d="M0 0v150h300V0z"/><path fill="#000" d="m0 0 300 150Zm300 0L0 150Z"/><path stroke="#fff" stroke-width="30" d="m0 0 300 150m0-150L0 150"/><mask id="c" width="300" height="150" x="0" y="0" maskUnits="userSpaceOnUse" style="mask-type:luminance"><path fill="#fff" d="M150 75h150v75zm0 0v75H0zm0 0H0V0zm0 0V0h150z"/></mask><g mask="url(#c)"><path fill="#000" d="m0 0 300 150Zm300 0L0 150Z"/><path stroke="#C8102E" stroke-width="20" d="m0 0 300 150m0-150L0 150"/></g><path fill="#000" d="M150 0v150ZM0 75h300Z"/><path stroke="#fff" stroke-width="50" d="M150 0v150M0 75h300"/><path fill="#000" d="M150 0v150ZM0 75h300Z"/><path stroke="#C8102E" stroke-width="30" d="M150 0v150M0 75h300"/></g></g><defs><clipPath id="a"><path fill="#fff" d="M0 0h600v300H0z"/></clipPath><clipPath id="b"><path fill="#fff" d="M0 0h300v150H0z"/></clipPath></defs></svg>