<svg xmlns="http://www.w3.org/2000/svg" width="600" height="300" fill="none"><g clip-path="url(#a)"><mask id="b" width="600" height="300" x="0" y="0" maskUnits="userSpaceOnUse" style="mask-type:luminance"><path fill="#fff" d="M0 0h600v300H0z"/></mask><g mask="url(#b)"><path fill="#fff" d="M0 0h600v300H0z"/><path fill="#fff" d="M0 0h600v300H0z"/><path fill="#DE2010" fill-rule="evenodd" d="M0 225h600v75H0zM0 0h600v75H0z" clip-rule="evenodd"/></g><path fill="#083D9C" fill-rule="evenodd" stroke="#083D9C" stroke-width="1.709" d="M270.943 213.657s6.92-5.639 13.712-5.639 8.585 4.677 13.327 5.062c4.677.384 8.586-4.677 14.416-4.87 5.831-.192 13.135 4.101 13.135 4.101L300.032 220l-29.089-6.407zm-14.673-8.33 86.755.449s-7.496-8.138-16.338-8.33c-8.842-.128-6.408 3.844-13.135 4.357-6.792.577-8.458-4.101-14.673-3.973-6.151.193-9.739 3.973-14.417 4.165-4.741.192-10.7-4.677-14.288-4.485s-16.339 5.574-16.339 5.574l2.435 2.307zm-11.085-10.252 107.003.321c1.73-2.435-5.254-8.266-11.597-8.778-5.254.192-8.971 5.446-13.328 5.638s-9.226-5.446-14.096-5.254-9.931 5.254-14.801 5.254c-4.933 0-8.457-5.446-14.673-5.446s-8.97 5.959-13.711 5.638c-4.678-.384-8.842-6.023-13.327-6.023-4.486 0-11.982 6.728-13.456 6.408-1.538-.449 1.858 2.755 1.986 2.178z" clip-rule="evenodd"/><path fill="red" fill-rule="evenodd" stroke="#000" stroke-linejoin="round" stroke-width="1.602" d="m286.321 135.552 24.604 6.535v-35.112c-11.277.641-20.632-21.4-.769-22.874-19.542-2.82-21.785 2.242-24.028 7.689z" clip-rule="evenodd"/><path fill="#083D9C" fill-rule="evenodd" d="m270.751 161.053 55.552.192Z" clip-rule="evenodd"/><path stroke="#083D9C" stroke-linecap="round" stroke-width="3.204" d="m270.751 161.053 55.552.192"/><path stroke="#000" stroke-linecap="round" stroke-width="2.563" d="m273.378 147.789 6.599 8.779m-6.599 0 7.112-8.65m-3.332-.769-.192 5.446m6.92-4.87 6.599 8.843m-6.599 0 7.112-8.65m-3.332-.769-.192 5.446m7.112-4.87 6.6 8.843m-6.6 0 7.112-8.65m-3.331-.769-.193 5.446m7.497-4.87 6.535 8.843m-6.535 0 7.112-8.65m-3.396-.769-.128 5.446m7.048-4.87 6.6 8.843m-6.536 0 7.112-8.65m-3.396-.769-.192 5.446"/><path fill="#EF7D08" fill-rule="evenodd" d="m233.396 161.629 23.643.193v-14.801L230 145.675zm-1.153-20.503 25.18 2.499-.192-10.508-24.604-9.803-.384 17.876zm5.125-20.952 19.287 9.355 2.755-2.884s-1.794-1.217-1.666-2.37c0-1.09 1.794-1.282 1.794-2.563 0-1.09-1.922-1.282-1.986-2.371-.129-1.281 1.537-2.563 1.537-2.563l-17.428-15.185-4.357 18.581zm126.866 41.648h-24.989l-.192-14.481 27.423-2.05zm-24.797-17.877 29.666-3.588-6.407-17.107-23.451 9.995zm21.593-25.373-21.401 11.277c-.32-1.281-.576-2.435-2.05-3.396 0 0 1.282-.769 1.282-2.05 0-1.282-1.666-1.538-1.666-2.243s1.537-1.409 1.666-3.139c-.193-1.154-1.666-2.82-1.41-3.14l16.659-12.686zm-46.389 25.053 10.7-.449.192-4.293zm-32.678-.321-11.212-.32v-4.485l11.277 4.805zm0-1.281-11.212-5.767v-7.56s-1.282.192-1.154-1.282c.064-3.139 8.266 5.703 12.431 8.586zm32.678-.705v-4.933s10.123-9.099 12.238-10.829c0 1.922-1.153 3.332-1.153 3.332v7.176zm-65.675-41.071 11.405 12.623c.256-1.154 2.883-1.346 5.51-1.154 2.563.193 4.677-.192 4.677 1.666s-1.281 1.602-1.281 2.948 1.922 1.217 1.922 2.883-1.409 1.345-1.409 2.627c0 1.089 1.537 1.153 1.537 1.153l10.636 10.316v-11.021L260.05 87.881zm17.556-13.07 14.929 30.434s.128-28.064 2.627-29.538l-4.165-7.689zm64.714 1.217-16.659 29.601v-12.494s1.409-2.05-.769-1.922c-2.179.192-4.806-.128-4.806-.128L315.666 80zm17.043 12.622c-.192.32-11.212 11.533-11.212 11.533-.513-1.281-3.845-.64-7.049-.64-3.139 0-3.588 1.025-3.395 1.858.32 2.114 1.409.512 1.409 2.563 0 1.986-1.538 1.281-1.73 2.691.192 1.73 2.435 1.281 1.089 2.563l-12.75 12.302v-11.662l23.771-36.906z" clip-rule="evenodd"/><path fill="red" fill-rule="evenodd" stroke="#000" stroke-linejoin="round" stroke-width="1.602" d="M291.767 167.268c-5.318 8.842-19.607 6.215-23.003 0-.961-.257-.384-38.124-.384-38.124s-1.602-.705-1.666-1.922c-.064-1.153 2.179-1.282 2.179-2.755 0-1.474-2.307-.897-2.371-2.435 0-1.41 2.499-1.282 2.371-2.563-.129-1.538-2.756-1.281-2.884-2.691 0-1.089 1.923-2.05 2.435-2.563a38 38 0 0 1-1.794 0l-4.101.064c-2.947 0 0 .641 0 2.307 0 1.089-1.473 1.858-1.601 2.755-.065 1.025 2.05 1.666 2.114 2.883 0 1.025-2.114 1.089-2.05 2.115.128 1.601 1.922 1.986 1.858 3.011 0 .961-2.307 1.346-2.371 2.114.128 1.538.384 38.957.384 38.957 3.653 19.094 24.861 23.899 30.884-1.153Zm14.032 0c5.318 8.842 19.606 6.215 22.938 0 1.025-.257.449-38.124.449-38.124s1.601-.705 1.666-1.922c.064-1.153-2.051-1.282-2.051-2.755 0-1.474 2.179-.897 2.179-2.435 0-1.41-2.243-1.282-2.115-2.691.128-1.474 1.922-1.282 1.987-2.691.064-1.218-1.09-1.922-1.666-2.435h1.73l4.1.064c2.884 0 0 .641 0 2.307 0 1.089 1.474 1.858 1.602 2.755 0 1.025-2.05 1.666-2.114 2.883 0 1.025 2.114 1.089 2.05 2.115-.128 1.601-1.922 1.986-1.922 3.011.064.961 2.371 1.346 2.371 2.114l-.321 38.957c-3.652 19.094-24.924 23.899-30.883-1.153Z" clip-rule="evenodd"/><path fill="#083D9C" fill-rule="evenodd" stroke="#083D9C" stroke-width="1.709" d="M286.577 184.696h23.899c.192-.192-5.382-8.33-11.917-7.689-7.369.192-12.367 7.689-11.982 7.689Zm76.183-.641h-32.677s4.228-2.435 5.382-4.741c2.114 1.153 1.538 2.306 5.766 2.499 4.229.192 8.266-4.806 12.303-4.614 4.036.193 9.226 7.048 9.226 6.92zm-128.787 0h32.677s-4.229-2.435-5.382-4.741c-2.115 1.153-1.538 2.306-5.767 2.499-4.229.192-8.329-4.806-12.302-4.614-4.036.193-9.226 7.048-9.226 6.92zm2.434-10.252 23.259.193s-1.474-3.204-1.666-7.113c-6.023-2.05-10.892 4.486-15.249 4.678-4.293.192-8.778-4.678-8.778-4.678zm124.303 0-23.323.193s1.474-3.204 1.666-7.113c6.023-2.05 10.892 4.486 15.249 4.678 4.293.192 8.778-4.678 8.778-4.678zm-68.174.257 11.789-.321s.192-3.588-5.959-3.588-5.638 4.101-5.83 3.909Zm-7.177-5.062a10.9 10.9 0 0 0 5.254-4.87l-8.073.193s-3.716 2.242-5.574 4.677zm26.142 0a10.9 10.9 0 0 1-5.254-4.87l8.074.193s3.716 2.242 5.574 4.677z" clip-rule="evenodd"/></g><defs><clipPath id="a"><path fill="#fff" d="M0 0h600v300H0z"/></clipPath></defs></svg>