<svg xmlns="http://www.w3.org/2000/svg" width="600" height="300" fill="none"><g clip-path="url(#a)"><path fill="#002395" d="M0 0h600v300H0z"/><path fill="#fff" d="M0 0h239v160.639H0z"/><path fill="#002395" d="M0 0h78.36v156.721H0z"/><path fill="#ED2939" d="M156.722 0h78.36v156.721h-78.36z"/><path fill="#fff" d="m411.33 101 11.712 18.709h33.463v65.252l-25.097-39.243-33.767 53.845h16.427l17.34-31.029L467 232.417l35.592-63.883 17.34 31.029h16.427l-33.767-53.845-25.097 39.243v-36.048h15.058l11.18-17.796h-26.238v-11.408h33.463L522.67 101zm39.243 79.854h-36.505v12.777h36.505zm69.359 0h-36.505v12.777h36.505zM467 245.194l11.225 34.68-29.477-21.447h36.504l-29.477 21.447zM425.932 214.165l11.225 34.68-29.477-21.447h36.505l-29.478 21.447zM508.068 214.165l11.225 34.68-29.478-21.447h36.505l-29.477 21.447z"/><path fill="#fff" d="m391.252 121.99 11.226 34.68L373 135.223h36.505l-29.478 21.447zM542.748 121.99l11.225 34.68-29.478-21.447H561l-29.478 21.447z"/></g><defs><clipPath id="a"><path fill="#fff" d="M0 0h600v300H0z"/></clipPath></defs></svg>