<svg xmlns="http://www.w3.org/2000/svg" width="600" height="300" fill="none"><g clip-path="url(#a)"><path fill="#fff" d="M0 0h600v300H0z"/><path fill="red" d="M270 0h60v300h-60z"/><path fill="red" d="M0 120h600v60H0z"/><path fill="red" fill-rule="evenodd" d="M189.642 235.298c.638-10.704 2.549-19.814 2.549-19.814s-6.244.637-9.43.637c-3.122 0-9.43-.637-9.43-.637s1.911 9.11 2.549 19.877c-10.768-.637-19.88-2.548-19.88-2.548s.637 4.714.637 9.429-.637 9.429-.637 9.429 9.112-1.911 19.88-2.548c-.638 10.767-2.549 19.877-2.549 19.877s4.715-.637 9.43-.637 9.43.637 9.43.637-1.911-9.11-2.549-19.877c10.769.637 19.88 2.548 19.88 2.548s-.637-6.244-.637-9.429c0-3.122.637-9.429.637-9.429s-9.111 1.911-19.816 2.548zM424.12 51.814C424.758 41.11 426.669 32 426.669 32s-6.244.637-9.43.637c-3.122 0-9.43-.637-9.43-.637s1.911 9.11 2.549 19.814c-10.769-.637-19.88-2.485-19.88-2.485s.637 4.715.637 9.43-.637 9.428-.637 9.428 9.111-1.911 19.88-2.548c-.638 10.767-2.549 19.877-2.549 19.877s4.715-.637 9.43-.637 9.43.637 9.43.637-1.911-9.11-2.549-19.814c10.768.638 19.88 2.549 19.88 2.549s-.637-6.371-.637-9.493.637-9.429.637-9.429-9.112 1.911-19.88 2.548zm-234.478 0C190.28 41.11 192.191 32 192.191 32s-6.244.637-9.43.637c-3.122 0-9.43-.637-9.43-.637s1.911 9.11 2.549 19.877C165.112 51.24 156 49.33 156 49.33s.637 4.715.637 9.43-.637 9.428-.637 9.428 9.112-1.911 19.88-2.548c-.638 10.767-2.549 19.877-2.549 19.877s4.715-.637 9.43-.637 9.43.637 9.43.637-1.911-9.11-2.549-19.877c10.769.637 19.88 2.548 19.88 2.548s-.637-6.243-.637-9.429c0-3.122.637-9.429.637-9.429s-9.111 1.911-19.816 2.548zM424.12 235.298c.638-10.704 2.549-19.814 2.549-19.814s-6.244.637-9.43.637c-3.122 0-9.43-.637-9.43-.637s1.911 9.11 2.549 19.877c-10.769-.637-19.88-2.548-19.88-2.548s.637 4.714.637 9.429-.637 9.429-.637 9.429 9.111-1.911 19.88-2.548C409.72 259.89 407.809 269 407.809 269s4.715-.637 9.43-.637 9.43.637 9.43.637-1.911-9.11-2.549-19.877c10.768.637 19.88 2.548 19.88 2.548s-.637-6.244-.637-9.429c0-3.122.637-9.429.637-9.429s-9.112 1.911-19.88 2.548z" clip-rule="evenodd"/></g><defs><clipPath id="a"><path fill="#fff" d="M0 0h600v300H0z"/></clipPath></defs></svg>