<svg xmlns="http://www.w3.org/2000/svg" width="600" height="300" fill="none"><g clip-path="url(#a)"><path fill="#DA000C" d="M0 0h600v300H0z"/><path fill="#fff" d="M0 0h600v201H0z"/><path fill="#000001" d="M230.869 124.951h73.946v50.838h-73.946z"/><path fill="#DA000C" d="M269.228 168.394h-45.061l-10.052 6.586v6.932h55.113m-18.833-42.75c6.47 0 11.785 5.431 11.785 12.132v16.985h8.435v-64.703h-46.563v64.703h14.558v-16.985c0-6.47 5.199-12.132 11.785-12.132"/><path stroke="#000" stroke-linecap="square" stroke-width="1.155" d="M269.228 168.394h-45.061l-10.052 6.586v6.932h55.113m-18.833-42.75c6.47 0 11.785 5.431 11.785 12.132v16.985h8.435v-64.703h-46.563v64.703h14.558v-16.985c0-6.47 5.199-12.132 11.785-12.132Z"/><path fill="#000001" d="M239.996 59.901h21.491v39.284h-21.491z"/><path fill="#DA000C" d="M261.372 93.062h-18.718V86.36h-13.749v6.702h-9.244V86.36H214v12.016h47.372m-41.826 0h40.439v5.2h-40.439zm16.176-52.802v40.902h6.932V75.268c0-4.16 2.889-7.625 7.048-7.856h.462a7.857 7.857 0 0 1 7.857 7.856v11.208h6.586V45.574zm-2.658-5.545v5.545h33.854V40.03zm-4.275-10.515V40.03h40.439V29.514h-6.123v5.43h-7.626v-5.43h-11.554v5.43h-7.51v-5.43zM214 174.98h55.459zm91.277-3.235h-37.435l-11.323 5.43v8.088h48.758"/><path stroke="#000" stroke-linecap="square" stroke-width="1.155" d="M261.372 93.062h-18.718V86.36h-13.749v6.702h-9.244V86.36H214v12.016h47.372M214 174.98h55.459m35.818-3.235h-37.435l-11.323 5.43v8.088h48.758m-85.731-86.887h40.439v5.2h-40.439zm16.176-52.802v40.902h6.932V75.268c0-4.16 2.889-7.625 7.048-7.856h.462a7.857 7.857 0 0 1 7.857 7.856v11.208h6.586V45.574zm-2.658-5.545v5.545h33.854V40.03zm-4.275-10.515V40.03h40.439V29.514h-6.123v5.43h-7.626v-5.43h-11.554v5.43h-7.51v-5.43z"/><path fill="#DA000C" d="M256.52 177.175h49.913z"/><path stroke="#000" stroke-width="1.155" d="M256.52 177.175h49.913"/><path fill="#000001" d="M368.131 124.951h-73.946v50.838h73.946z"/><path fill="#DA000C" d="M329.772 168.394h45.061l10.052 6.586v6.932h-55.113m18.833-42.75c-6.47 0-11.785 5.431-11.785 12.132v16.985h-8.435v-64.703h46.563v64.703H360.39v-16.985c0-6.47-5.199-12.132-11.785-12.132"/><path stroke="#000" stroke-linecap="square" stroke-width="1.155" d="M329.772 168.394h45.061l10.052 6.586v6.932h-55.113m18.833-42.75c-6.47 0-11.785 5.431-11.785 12.132v16.985h-8.435v-64.703h46.563v64.703H360.39v-16.985c0-6.47-5.199-12.132-11.785-12.132Z"/><path fill="#000001" d="M359.004 59.901h-21.491v39.284h21.491z"/><path fill="#DA000C" d="M337.628 93.062h18.718V86.36h13.749v6.702h9.244V86.36H385v12.016h-47.372m41.826 0h-40.439v5.2h40.439zm-16.176-52.802v40.902h-6.932V75.268c0-4.16-2.889-7.625-7.048-7.856h-.462a7.857 7.857 0 0 0-7.857 7.856v11.208h-6.586V45.574zm2.658-5.545v5.545h-33.854V40.03zm4.275-10.515V40.03h-40.439V29.514h6.123v5.43h7.626v-5.43h11.554v5.43h7.51v-5.43zM385 174.98h-55.459zm-91.277-3.235h37.435l11.323 5.43v8.088h-48.758"/><path stroke="#000" stroke-linecap="square" stroke-width="1.155" d="M337.628 93.062h18.718V86.36h13.749v6.702h9.244V86.36H385v12.016h-47.372M385 174.98h-55.459m-35.818-3.235h37.435l11.323 5.43v8.088h-48.758m85.731-86.887h-40.439v5.2h40.439zm-16.176-52.802v40.902h-6.932V75.268c0-4.16-2.889-7.625-7.048-7.856h-.462a7.857 7.857 0 0 0-7.857 7.856v11.208h-6.586V45.574zm2.658-5.545v5.545h-33.854V40.03zm4.275-10.515V40.03h-40.439V29.514h6.123v5.43h7.626v-5.43h11.554v5.43h7.51v-5.43z"/><path fill="#DA000C" d="M342.48 177.175h-49.913z"/><path stroke="#000" stroke-width="1.155" d="M342.48 177.175h-49.913"/><path fill="#F8D80E" stroke="#000" stroke-linecap="round" stroke-width=".924" d="M319.488 163.888c-3.119 1.155-5.777 2.773-8.665 4.39a83.6 83.6 0 0 0-10.283 6.933c-1.156.808-2.311 1.617-3.12 2.773-1.155.924-2.311 2.31-2.08 4.044 0 .693.925-.925 1.618-1.04a5.08 5.08 0 0 1 3.582-.462c1.502-1.618 3.466-2.658 5.083-3.929a89.5 89.5 0 0 1 15.021-8.781z"/><path fill="#F8D80E" d="M304.584 172.438v4.506zm2.773-1.964v4.506zm2.773-1.734v4.391zm2.888-1.733v4.622z"/><path stroke="#000" stroke-linecap="round" stroke-width="1.155" d="M304.584 172.438v4.506m2.773-6.47v4.506m2.773-6.24v4.391m2.888-6.124v4.622"/><path fill="#F8D80E" stroke="#000" stroke-linecap="round" stroke-width=".924" d="m279.742 164.119-1.387 3.813a100 100 0 0 1 18.256 9.243c1.964 1.386 4.044 2.657 5.546 4.506.346.924-.578 1.733-1.502 1.386-.809-.231-1.733-.577-2.542 0-1.271.578-2.426 2.542-.578 3.12 2.773 1.849 7.048 1.04 8.319-2.08.693-1.617.809-3.697-.578-5.083-2.31-2.658-5.546-4.622-8.55-6.586a103 103 0 0 0-16.984-8.319Z"/><path fill="#F8D80E" d="m297.189 173.131-.347 3.928zm3.235 1.964-.925 3.813zm3.466 2.658-2.08 3.004zm1.04 7.163-3.004-1.617zm.924-3.235-3.466.347zm-4.39 4.968-.231-3.004zm-1.387-3.35-2.773 2.079zm-13.634-16.06v3.581zm7.279 3.928v4.044zm-3.697-1.964v3.813z"/><path stroke="#000" stroke-linecap="round" stroke-width="1.155" d="m297.189 173.131-.347 3.928m3.582-1.964-.925 3.813m4.391-1.155-2.08 3.004m3.12 4.159-3.004-1.617m3.928-1.618-3.466.347m-.924 4.621-.231-3.004m-1.156-.346-2.773 2.079m-10.861-18.139v3.581m7.279.347v4.044m-3.697-6.008v3.813"/><path fill="#F8D80E" stroke="#000" stroke-width="1.155" d="M276.16 253.547v9.243h5.777v-4.621h7.972v4.621h6.24v-9.243zm0 12.71v9.243h19.873v-9.243h-6.239v4.621h-7.972v-4.621z"/><path fill="#F8D80E" stroke="#000" stroke-width="1.155" d="M296.033 214.379h5.777v67.014h-5.777z"/><path fill="#F8D80E" stroke="#000" stroke-width="1.155" d="M296.032 220.156h5.777v57.77h-5.777zm3.004-22.299 12.248 7.163-12.248 7.164-12.362-7.164zm-16.522 4.621h-3.119v5.084h3.119l16.522 9.59 16.407-9.59h3.235v-5.084h-3.235l-16.407-9.59z"/><path fill="#F8D80E" stroke="#000" stroke-width="1.155" d="M298.691 180.41a5.774 5.774 0 0 0-4.622 5.893v12.94a5.776 5.776 0 0 0 5.315 5.315 5.66 5.66 0 0 0 5.546-3.235l-1.964-1.155a3.355 3.355 0 0 1-3.467 2.079c-1.848 0-3.35-1.848-3.119-3.581v-12.941a3.346 3.346 0 0 1 3.466-3.004c.693-.231 1.733.809 2.195 0 .694-1.04-.462-1.733-1.155-2.311zm6.701 4.506a5.8 5.8 0 0 1-2.195 1.849v8.665l2.311 1.271v-11.785z"/><path fill="#000001" d="M281.939 34.945h33.854v61.467h-33.854z"/><path fill="#DA000C" stroke="#000" stroke-width="1.155" d="M279.627 34.945V86.36h10.745V71.11c0-3.466 2.311-8.435 9.128-8.435s9.243 4.969 9.243 8.435v15.367h10.63V34.945zm18.256 5.777h3.235v17.562h-3.235zm-9.59 3.466h3.466v12.825h-3.466zm19.064 0h3.351v12.825h-3.467zM275.93 27.55v7.28h47.14v-7.28zM271.539 19v8.55h56.037V19h-7.048v4.622h-8.087V19h-9.013v4.622h-7.856V19h-9.128v4.622h-7.741V19zm-10.398 84.576v5.315h76.834v-5.315z"/><path fill="#DA000C" stroke="#000" stroke-width="1.155" d="M257.906 86.36v17.331h83.189v-17.33h-7.856v6.7h-10.63v-6.7h-14.096v6.7h-18.255v-6.7h-14.096v6.7h-10.399v-6.7z"/><path fill="#DA000C" stroke="#000" stroke-linejoin="round" stroke-width="1.155" d="M267.959 108.891v62.854h14.789v-23.571c0-10.976 7.395-16.175 16.754-16.175 9.012 0 16.753 5.199 16.753 16.175v23.571h14.789v-62.854z"/></g><defs><clipPath id="a"><path fill="#fff" d="M0 0h600v300H0z"/></clipPath></defs></svg>