<svg xmlns="http://www.w3.org/2000/svg" width="600" height="300" fill="none"><g clip-path="url(#a)"><path fill="#0D5EAF" fill-rule="evenodd" d="M0 0h600v33.313H0z" clip-rule="evenodd"/><path fill="#fff" fill-rule="evenodd" d="M0 33.313h600v33.375H0z" clip-rule="evenodd"/><path fill="#0D5EAF" fill-rule="evenodd" d="M0 66.688h600V100H0z" clip-rule="evenodd"/><path fill="#fff" fill-rule="evenodd" d="M0 100h600v33.312H0z" clip-rule="evenodd"/><path fill="#0D5EAF" d="M0 0h191v167H0z"/><path fill="#0D5EAF" fill-rule="evenodd" d="M0 133.312h600v33.376H0z" clip-rule="evenodd"/><path fill="#fff" fill-rule="evenodd" d="M0 166.688h600V200H0z" clip-rule="evenodd"/><path fill="#0D5EAF" fill-rule="evenodd" d="M0 200h600v33.312H0z" clip-rule="evenodd"/><path fill="#fff" fill-rule="evenodd" d="M0 233.312h600v33.376H0z" clip-rule="evenodd"/><path fill="#0D5EAF" d="M0 266.688h600V300H0z"/><path fill="#fff" fill-rule="evenodd" d="M76.414 0h38.171v167h-38.17z" clip-rule="evenodd"/><path fill="#fff" fill-rule="evenodd" d="M0 66.813h191v33.375H0z" clip-rule="evenodd"/></g><defs><clipPath id="a"><path fill="#fff" d="M0 0h600v300H0z"/></clipPath></defs></svg>