<svg xmlns="http://www.w3.org/2000/svg" width="600" height="300" fill="none"><g clip-path="url(#a)"><path fill="#fff" d="M0 0h600v300H0z"/><path fill="#D00C33" d="M0 0h600v300H0z"/><path fill="#fff" d="M0 0h600v150H0z"/><path fill="#D00C33" d="M254 149.5c0-26.389-10.325-51.697-28.704-70.357C206.918 60.483 181.991 50 156 50s-50.918 10.483-69.296 29.143S58 123.11 58 149.5h196"/><path fill="#fff" d="M254 149.5c0 26.389-10.325 51.697-28.704 70.357C206.918 238.517 181.991 249 156 249s-50.918-10.483-69.296-29.143S58 175.889 58 149.5h196"/></g><defs><clipPath id="a"><path fill="#fff" d="M0 0h600v300H0z"/></clipPath></defs></svg>