<svg xmlns="http://www.w3.org/2000/svg" width="600" height="300" fill="none"><g clip-path="url(#a)"><path fill="#BE0027" fill-rule="evenodd" d="M0 0h600v300H0z" clip-rule="evenodd"/><path fill="#3B5AA3" fill-rule="evenodd" d="M17 17h566v268H17z" clip-rule="evenodd"/><path fill="#CBE0E5" fill-rule="evenodd" d="M297.33 257.987a6.207 6.207 0 0 0 5.213.063c85.502-45.482 85.502-170.199.062-215.06a6.2 6.2 0 0 0-5.399.125c-83.33 45.543-83.578 168.833.062 214.872z" clip-rule="evenodd"/><path fill="#ADD2D9" fill-rule="evenodd" d="M297.331 260.284c1.241 1.054 3.971.93 5.212 0 62.979-47.157 63.289-76.506 60.559-76.506H238.385c-1.862 0 1.117 29.907 58.946 76.506" clip-rule="evenodd"/><path fill="#FDF9A1" fill-rule="evenodd" d="M248.25 207.108a24.32 24.32 0 0 1 17.312 1.055c4.715 2.482 7.445 2.482 12.533 2.482 5.337.124 9.494 4.033 15.264 4.219 10.61.248 15.078 5.522 6.826 5.584-3.847 0-12.224-2.668-16.257-2.109-8.439.868-13.775 2.73-21.717 11.603l9.183 6.205c7.942-3.165 9.245-6.826 13.651-6.95 4.964-.186 6.639-3.226 12.409-3.226a57.5 57.5 0 0 0 20.476-1.986c9.183-2.11 4.84-8.563-.744-10.858-4.53-1.924-12.906-.062-18.118-1.986-3.971-1.551-.745-4.033 1.427-4.529 2.109-.435 4.405.31 7.073.744 4.778.373 10.797-.062 14.954-.744 8.687-1.303 8.314-3.847 12.41-3.909 3.102-.187 5.398-1.055 7.445-2.544 2.482-1.676 5.026-4.964 8.004-4.84l7.881.31-11.169 25.068-31.458 32.078-16.319 6.205-35.864-23.392-18.056-27.735z" clip-rule="evenodd"/><path fill="#179A3B" fill-rule="evenodd" d="m289.512 182.785 71.976-.372 1.241-6.391s-2.544-.372-4.654-.496c-2.544-.186-7.011 2.73-9.927 2.668-2.172 0-4.53-3.723-6.639-3.723-3.723 0-3.971 3.288-7.446 3.413-2.792-.125-3.971-2.234-7.632-1.986-3.723.186-3.475 2.296-8.253 2.172-6.328-.186-8.872-5.647-13.96-5.709-8.439-.124-8.687 8.066-14.768 10.362z" clip-rule="evenodd"/><path fill="#FDF9A1" fill-rule="evenodd" d="m289.513 184.275 74.085-.373v-1.985l-75.823.372z" clip-rule="evenodd"/><path fill="#A79270" fill-rule="evenodd" d="M319.916 206.55c1.179 4.343 2.358 5.832 6.95 7.011 4.529 1.055 11.479-3.35 7.197-7.632-4.095-3.971-8.438-4.964-12.099-8.562-7.756-7.632-19.421-26.371-19.421-39.587 0-11.355-1.117-34.623-1.117-56.65 0-1.427-4.343 3.971-4.343 5.46.248 19.421.248 34.127.992 53.734 1.241 14.333 8.067 24.012 14.085 32.699 2.668 4.22 6.577 8.687 7.756 13.527" clip-rule="evenodd"/><path fill="#BD0728" d="M273.2 146.306a5.5 5.5 0 0 0-.653-1.358 4.2 4.2 0 0 0-.953-1.035 4 4 0 0 0-1.245-.653 5 5 0 0 0-1.531-.225 4.56 4.56 0 0 0-2.483.705q-1.118.705-1.778 2.078t-.66 3.369q0 1.995.668 3.368.667 1.373 1.808 2.078 1.14.706 2.565.706 1.321 0 2.326-.563 1.013-.57 1.575-1.606.571-1.043.571-2.453l.57.12h-4.622v-1.65h5.852v1.65q0 1.899-.81 3.301a5.6 5.6 0 0 1-2.221 2.176q-1.41.765-3.241.765-2.04 0-3.586-.96-1.538-.96-2.4-2.731-.856-1.77-.856-4.201 0-1.823.488-3.279.495-1.463 1.395-2.49a6.1 6.1 0 0 1 2.131-1.576q1.23-.548 2.708-.548 1.216 0 2.266.368 1.058.36 1.883 1.028.833.66 1.388 1.583.555.915.765 2.033z"/><path fill="#fff" d="m273.2 146.306-.628.205.149.455h.479zm-.653-1.358-.553.361.006.008zm-.953-1.035-.406.52.003.003zm-1.245-.653.202-.628zm-5.792 2.558.595.286zm.008 6.737-.594.289zm1.808 2.078-.348.562zm4.891.143.322.576.002-.001zm1.575-1.606-.579-.316-.001.001zm.571-2.453.136-.646-.797-.167v.813zm.57.12v.66l.136-1.306zm-4.622 0h-.66v.66h.66zm0-1.65v-.66h-.66v.66zm5.852 0h.66v-.66h-.66zm-.81 4.951-.572-.33-.001.002zm-2.221 2.176.315.58.001-.001zm-6.827-.195-.349.56h.001zm-2.4-2.731-.595.287.001.002zm-.368-7.48-.625-.211-.001.002zm1.395-2.49.497.435zm2.131-1.576-.268-.603zm4.974-.18-.218.623.005.002zm1.883 1.028-.415.513.005.004zm1.388 1.583-.566.34.001.002zm.765 2.033v.66h.796l-.147-.782zm-1.293-.205a6 6 0 0 0-.733-1.522l-1.094.738q.349.516.572 1.194zm-.728-1.514a4.8 4.8 0 0 0-1.102-1.197l-.806 1.046q.464.356.803.873zM272 143.392a4.7 4.7 0 0 0-1.449-.76l-.405 1.256q.592.192 1.042.545zm-1.449-.76a5.6 5.6 0 0 0-1.733-.257v1.32c.496 0 .937.067 1.328.193zm-1.733-.257c-1.03 0-1.981.268-2.835.807l.704 1.116a3.9 3.9 0 0 1 2.131-.603zm-2.835.807c-.866.546-1.535 1.341-2.021 2.35l1.19.572c.395-.821.91-1.411 1.535-1.806zm-2.021 2.35c-.494 1.028-.725 2.255-.725 3.655h1.32c0-1.261.209-2.28.595-3.083zm-.725 3.655c0 1.401.234 2.628.734 3.657l1.187-.578c-.39-.802-.601-1.819-.601-3.079zm.734 3.657c.492 1.012 1.174 1.806 2.054 2.351l.695-1.123c-.64-.396-1.164-.987-1.562-1.806zm2.054 2.351c.872.539 1.848.804 2.913.804v-1.321c-.835 0-1.569-.205-2.218-.606zm2.913.804c.977 0 1.866-.209 2.648-.647l-.644-1.152c-.559.312-1.22.478-2.004.478zm2.65-.648a4.65 4.65 0 0 0 1.831-1.865l-1.16-.631a3.33 3.33 0 0 1-1.319 1.346zm1.831-1.864c.442-.809.651-1.74.651-2.77h-1.321c0 .85-.171 1.555-.489 2.137zm-.145-2.124.57.12.272-1.292-.57-.12zm.706-1.186h-4.622v1.32h4.622zm-3.961.66v-1.65h-1.321v1.65zm-.661-.99h5.852v-1.32h-5.852zm5.192-.66v1.65h1.32v-1.65zm0 1.65c0 1.17-.249 2.152-.722 2.971l1.144.66c.607-1.051.898-2.27.898-3.631zm-.723 2.973a4.93 4.93 0 0 1-1.964 1.924l.632 1.159a6.25 6.25 0 0 0 2.478-2.427zm-1.963 1.924c-.83.45-1.8.685-2.926.685v1.32c1.315 0 2.506-.275 3.556-.845zm-2.926.685c-1.252 0-2.324-.293-3.237-.861l-.697 1.121c1.147.713 2.466 1.06 3.934 1.06zm-3.236-.86c-.911-.569-1.631-1.381-2.157-2.46l-1.187.578c.625 1.282 1.505 2.29 2.645 3.002zm-2.156-2.458c-.518-1.072-.79-2.37-.79-3.914h-1.32c0 1.697.299 3.2.921 4.488zm-.79-3.914c0-1.157.155-2.178.454-3.069l-1.252-.419c-.352 1.049-.522 2.214-.522 3.488zm.453-3.067c.306-.904.731-1.656 1.267-2.267l-.993-.87c-.665.758-1.17 1.667-1.524 2.714zm1.267-2.267a5.44 5.44 0 0 1 1.902-1.408l-.536-1.206a6.75 6.75 0 0 0-2.359 1.744zm1.902-1.408c.728-.324 1.538-.49 2.44-.49v-1.321c-1.068 0-2.064.199-2.976.605zm2.44-.49q1.113.001 2.048.33l.436-1.246a7.5 7.5 0 0 0-2.484-.405zm2.053.332a5.4 5.4 0 0 1 1.681.916l.83-1.026a6.7 6.7 0 0 0-2.085-1.14zm1.686.92q.738.584 1.232 1.406l1.132-.681a6.5 6.5 0 0 0-1.544-1.76zm1.233 1.408q.491.806.681 1.813l1.298-.244a6.7 6.7 0 0 0-.85-2.254zm1.33 1.031h-1.92v1.32h1.92z"/><path fill="#BD0728" d="M291.759 141.587h1.861v10.173q0 1.575-.743 2.813-.735 1.23-2.078 1.943-1.342.705-3.151.705-1.807 0-3.151-.705-1.343-.713-2.085-1.943-.736-1.238-.736-2.813v-10.173h1.861v10.022q0 1.126.495 2.004.495.87 1.411 1.372.923.496 2.205.496t2.206-.496a3.5 3.5 0 0 0 1.41-1.372q.495-.878.495-2.004z"/><path fill="#fff" d="M291.759 141.587v-.661h-.66v.661zm1.861 0h.66v-.661h-.66zm-.743 12.986-.566-.34v.001zm-2.078 1.943.307.584.003-.001zm-6.302 0-.309.583.002.001zm-2.085-1.943-.568.337.002.004zm-.736-12.986v-.661h-.66v.661zm1.861 0h.66v-.661h-.66zm.495 12.026-.575.324.001.002zm1.411 1.372-.318.579.005.003zm4.411 0 .312.582.004-.002zm1.41-1.372-.575-.325-.001.002zm.495-11.366h1.861v-1.321h-1.861zm1.201-.66v10.173h1.32v-10.173zm0 10.173c0 .941-.221 1.76-.649 2.473l1.132.679c.563-.937.837-1.994.837-3.152zm-.649 2.474c-.425.711-1.026 1.277-1.821 1.699l.619 1.166c.995-.528 1.779-1.257 2.335-2.188zm-1.819 1.697c-.784.412-1.725.63-2.844.63v1.32c1.292 0 2.452-.252 3.458-.781zm-2.844.63c-1.119 0-2.06-.218-2.844-.63l-.614 1.169c1.007.529 2.166.781 3.458.781zm-2.841-.628c-.796-.423-1.4-.989-1.83-1.701l-1.131.682c.561.929 1.347 1.657 2.342 2.185zm-1.828-1.697c-.424-.714-.642-1.533-.642-2.476h-1.321c0 1.157.272 2.213.828 3.15zm-.642-2.476v-10.173h-1.321v10.173zm-.661-9.513h1.861v-1.321h-1.861zm1.201-.66v10.022h1.32v-10.022zm0 10.022c0 .851.188 1.633.58 2.328l1.15-.649c-.268-.475-.41-1.028-.41-1.679zm.581 2.33a4.2 4.2 0 0 0 1.667 1.625l.635-1.157a2.9 2.9 0 0 1-1.154-1.121zm1.672 1.628c.731.392 1.578.574 2.518.574v-1.321c-.77 0-1.393-.148-1.893-.416zm2.518.574c.94 0 1.788-.182 2.518-.574l-.624-1.163c-.5.268-1.123.416-1.894.416zm2.522-.576a4.14 4.14 0 0 0 1.67-1.63l-1.152-.645a2.83 2.83 0 0 1-1.15 1.116zm1.669-1.628c.392-.695.581-1.477.581-2.328h-1.321c0 .651-.142 1.204-.41 1.679zm.581-2.328v-10.022h-1.321v10.022z"/><path fill="#BD0728" d="M305.331 156.951h-1.951l5.642-15.364h1.921l5.641 15.364h-1.95l-4.592-12.934h-.12zm.72-6.002h7.863v1.651h-7.863z"/><path fill="#fff" d="M305.331 156.951v.66h.466l.156-.439zm-1.951 0-.619-.228-.326.888h.945zm5.642-15.364v-.661h-.461l-.159.433zm1.921 0 .619-.228-.158-.433h-.461zm5.641 15.364v.66h.946l-.326-.888zm-1.95 0-.622.221.156.439h.466zm-4.592-12.934.623-.221-.156-.439h-.467zm-.12 0v-.66h-.466l-.156.439zm-3.871 6.932v-.66h-.66v.66zm7.863 0h.66v-.66h-.66zm0 1.651v.66h.66v-.66zm-7.863 0h-.66v.66h.66zm-.72 3.691h-1.951v1.32h1.951zm-1.331.888 5.642-15.365-1.24-.455-5.641 15.364zm5.022-14.932h1.921v-1.321h-1.921zm1.301-.433 5.642 15.365 1.239-.456-5.642-15.364zm6.261 14.477h-1.95v1.32h1.95zm-1.328.439-4.591-12.934-1.245.442 4.592 12.934zm-5.214-13.373h-.12v1.32h.12zm-.742.439-4.591 12.934 1.244.442 4.592-12.934zm-3.249 7.813h7.863v-1.32h-7.863zm7.202-.66v1.651h1.321v-1.651zm.661.991h-7.863v1.32h7.863zm-7.203.66v-1.651h-1.32v1.651z"/><path fill="#BD0728" d="M324.094 141.504h2.221l5.221 12.754h.18l5.222-12.754h2.22v15.365h-1.74v-11.673h-.15l-4.802 11.673h-1.68l-4.802-11.673h-.15v11.673h-1.74z"/><path fill="#fff" d="M324.094 141.504v-.66h-.66v.66zm2.221 0 .611-.25-.168-.41h-.443zm5.221 12.754-.611.25.168.41h.443zm.18 0v.66h.443l.168-.41zm5.222-12.754v-.66h-.443l-.168.41zm2.22 0h.661v-.66h-.661zm0 15.365v.66h.661v-.66zm-1.74 0h-.66v.66h.66zm0-11.673h.66v-.661h-.66zm-.15 0v-.661h-.443l-.168.409zm-4.802 11.673v.66h.443l.168-.409zm-1.68 0-.611.251.169.409h.442zm-4.802-11.673.611-.252-.168-.409h-.443zm-.15 0v-.661h-.66v.661zm0 11.673v.66h.661v-.66zm-1.74 0h-.66v.66h.66zm0-14.704h2.221v-1.321h-2.221zm1.61-.41 5.221 12.753 1.222-.5-5.221-12.754zm5.832 13.163h.18v-1.32h-.18zm.791-.41 5.222-12.753-1.222-.501-5.222 12.754zm4.611-12.343h2.22v-1.321h-2.22zm1.56-.661v15.365h1.321v-15.365zm.66 14.705h-1.74v1.32h1.74zm-1.08.66v-11.673h-1.32v11.673zm-.66-12.334h-.15v1.321h.15zm-.761.409-4.801 11.674 1.221.502 4.801-11.673zm-4.191 11.265h-1.68v1.32h1.68zm-1.07.409-4.801-11.674-1.221.503 4.801 11.673zm-5.412-12.083h-.15v1.321h.15zm-.81.661v11.673h1.321v-11.673zm.66 11.013h-1.74v1.32h1.74zm-1.08.66v-15.365h-1.32v15.365z"/><path fill="#239E46" fill-rule="evenodd" d="M263.328 101.44c-.93 1.862 2.234-.558 2.979-.806 4.157-1.49 5.77-6.702 12.906-3.537 5.584 2.42 13.092.993 9.183 3.475-4.84 2.916-14.581 6.142-14.768 20.6.807 1.365.869 1.178 1.552-.373 1.489-3.35 8.5-12.471 11.975-11.727 1.427.372 5.522-4.157 5.584-2.854.435 3.599-5.584 10.92-5.46 20.662 0 2.296 2.792 3.04 4.095 1.427 1.365-1.427 2.11-2.854 4.468-4.716 4.095-3.35 2.978-17.745 3.474-17.063 2.917 3.723 3.351 14.457 7.694 18.801 3.661 3.661 6.577 1.861 5.771-3.103-1.551-10.176-6.329-7.259-8.625-17.745-.496-2.048-.62-3.847 2.11-3.041 3.288.993 5.274 2.482 7.694 6.205 2.482 3.599 7.073 7.012 9.741 9.059 4.654 3.599 6.329.496 4.096-4.095a24.57 24.57 0 0 0-13.031-11.293c-3.847-1.365-5.212-1.489-8.562-2.11-.931-.186-1.862-2.11-.248-3.164a26.37 26.37 0 0 1 12.161-4.778c4.157-.124 7.446 3.227 10.362 4.096 5.833 1.489 5.833-2.172 3.227-4.964-2.11-2.296-6.578-6.205-10.735-5.647-8.376 1.055-7.818.807-13.03 4.22-1.861 1.116-3.971 2.357-3.164.992 1.861-3.412.124-2.792 3.04-6.266 2.234-2.482 3.909-4.344 6.205-4.964 2.109-.559 4.964-2.792 5.77-3.971 2.11-2.855.311-4.53-2.916-3.537-2.854.744-4.343 2.606-6.205 3.102-4.591 1.49-8.252 11.79-8.811 13.278-.682 1.738-1.489.87-1.365-.62.621-7.26 1.241-19.545-1.241-24.571-3.971-7.446-3.598-3.971-5.088-.434-2.233 5.584-1.427 10.858 0 16.318.621 2.73 2.855 5.833 3.289 8.004.31 1.676-.993-.496-1.737-1.55-2.42-3.724-4.22-6.206-8.191-8.253a21.9 21.9 0 0 0-12.533-1.241c-1.117.372 1.241 1.986 2.171 2.73 2.668 2.11 7.694 2.792 11.169 4.902 2.854 1.8 5.088 2.916 6.081 5.398.372 1.861.992 4.592-.249 4.53-3.164-.187-8.066-2.979-18.242-1.862-5.212.745-9.679 5.15-12.596 10.486" clip-rule="evenodd"/><path fill="#000" fill-rule="evenodd" d="M285.479 194.326h2.917v4.902h-2.917z" clip-rule="evenodd"/><path fill="#FDF9FF" fill-rule="evenodd" d="M270.836 161.627c11.665 16.132 30.403 25.564 30.776 32.886h-36.485c8.377-10.052 13.527-16.878 5.709-32.886" clip-rule="evenodd"/><path fill="#A68861" fill-rule="evenodd" d="M260.226 194.885c15.884 3.537 34.809 5.522 46.908-.497.124 3.537-3.909 8.687-7.259 8.687h-30.404c3.537-.558 5.584-1.613 11.293-1.861l-16.133.124c-1.861.062-4.964-4.716-4.405-6.453" clip-rule="evenodd"/><path fill="#BE0027" fill-rule="evenodd" d="M296.214 265.31c1.613.93 4.157.868 5.584.124 91.707-48.832 91.769-182.67.124-230.82a6.64 6.64 0 0 0-5.832.125c-89.35 48.893-89.598 181.18.124 230.633zm.434-10.983a5.78 5.78 0 0 0 4.964.062c76.691-45.171 77.622-164.49.062-207.24-1.489-1.118-3.661-.745-5.15 0-73.465 43.495-77.56 157.912.124 207.178" clip-rule="evenodd"/><path fill="#BD0728" d="M269.036 141.461q2.11 0 3.723.869 2.172 1.117 2.668 4.095h-1.923q-.372-1.613-1.613-2.482-1.117-.744-2.917-.744-2.048 0-3.536 1.675-1.428 1.551-1.427 4.716 0 2.606 1.178 4.343 1.242 1.675 3.909 1.675 2.048 0 3.351-1.179 1.427-1.179 1.427-3.847h-4.715v-1.675h6.577v8.066h-1.303l-.497-1.985q-.993 1.179-1.861 1.675-1.365.745-3.413.745-2.668 0-4.653-1.738-2.11-2.234-2.11-6.018 0-3.786 2.047-6.019 1.986-2.172 5.088-2.172M283.68 141.895v9.432q0 1.613.62 2.668.87 1.675 3.103 1.675 2.544 0 3.537-1.737.496-.993.496-2.606v-9.494h2.11v8.563q0 2.73-.869 4.343-1.303 2.668-5.088 2.668-3.909 0-5.274-2.73-.744-1.551-.745-4.281v-8.563zM312.222 150.83l-2.296-6.639-2.482 6.639zm-3.35-8.997h2.295l5.585 15.202h-2.358l-1.489-4.529h-6.019l-1.675 4.529h-2.048zM323.763 141.833h3.041l4.281 12.844 4.343-12.844h2.917v15.14h-1.986v-12.782l-4.343 12.782h-1.924l-4.343-12.782v12.782h-1.986z"/></g><defs><clipPath id="a"><path fill="#fff" d="M0 0h600v300H0z"/></clipPath></defs></svg>