<svg xmlns="http://www.w3.org/2000/svg" width="600" height="300" fill="none"><g clip-path="url(#a)"><path fill="#D21034" d="M0 0h600v300H0z"/><path fill="#00209F" d="M0 0h600v150H0z"/><path fill="#fff" d="M234.088 97h131.925v105H234.088z"/><path fill="#016A16" stroke="#016A16" stroke-width=".261" d="m326.627 172.896-27.013.872-26.751.261s-13.768 5.054-19.431 6.187c-5.577 1.133-4.88 2.963-9.15 4.008-3.485.785-3.921.959-5.925 1.133-1.307 0-2.789 1.046-4.357 2.091V202h132.012v-13.855c-1.394-.784-2.788-1.307-4.182-1.742-1.917-.697-3.224-1.394-6.71-2.179-4.357-.958-3.659-2.875-9.236-4.008-5.664-1.133-19.257-7.32-19.257-7.32Z"/><path fill="#F1B517" stroke="#000" stroke-width=".279" d="M292.383 140.481h1.952l3.625 14.918-.837 4.74z"/><path fill="#fff" stroke="#000" stroke-width=".279" d="m290.291 130.443 1.394 11.572h1.394l-2.788-11.432z"/><path fill="#F1B517" stroke="#000" stroke-width=".279" d="m294.056 155.957-5.995-16.033 2.23-.14 6.971 19.519z"/><path fill="#fff" stroke="#000" stroke-width=".279" d="m285.271 130.722 2.51 11.153h1.952z"/><path fill="#F1B517" stroke="#000" stroke-width=".279" d="m288.757 150.38-3.486-7.668 1.395-.279 6.552 12.548z"/><path fill="#fff" stroke="#000" stroke-width=".279" d="m280.531 133.929 4.043 10.596h1.952l-5.855-10.596z"/><path fill="#0A328C" stroke="#000" stroke-width=".279" d="m289.315 151.496-16.033-17.428c-5.019 3.904-4.043 11.154-4.043 11.154l18.124 14.22z"/><path fill="#D20014" stroke="#000" stroke-width=".279" d="m298.517 160.976-11.851-11.99c-5.019.279-1.115 7.668-.836 8.644l12.548 10.735z"/><path fill="#F1B517" stroke="#000" stroke-width=".279" d="m297.402 159.024-24.398-26.211-.976.698 25.932 28.72zM271.61 131.14l-.558-.697v-1.254l-5.019-3.207 2.231 5.158 1.812.279.419.558z"/><path fill="#F1B517" stroke="#000" stroke-width=".279" d="M268.961 132.953a11.7 11.7 0 0 1 3.764-3.068l1.394 2.092-3.067 2.509-2.091-1.394z"/><path fill="#0A328C" stroke="#0A328C" stroke-width=".279" d="m266.311 137.414.836 1.394c.558-.139 5.577-4.879 5.577-4.879h3.764l.976-1.255c-2.788-2.789-5.158.418-5.158.418z"/><path fill="#D20014" stroke="#D20014" stroke-width=".279" d="M269.379 139.784c0-1.394 2.51-4.461 2.789-4.601 1.812.558 3.485 1.673 5.437-2.509-1.673 1.952-4.88 0-4.88 0l-1.394 1.115v.558l-4.183 3.904z"/><path fill="#0A328C" stroke="#000" stroke-width=".279" d="m282.345 156.096-20.076-15.894c-3.486 3.486-.558 14.221-.558 14.221l19.519 10.596.976-8.923z"/><path fill="#D20014" stroke="#000" stroke-width=".279" d="m298.935 169.062-16.591-13.384c-5.577.836-1.115 9.062-.837 10.038l17.428 9.481z"/><path fill="#F1B517" stroke="#000" stroke-width=".279" d="m298.239 166.274-35.692-26.769-.697.837 37.364 29.278zm-37.365-28.163-.557-.557-.279-1.116-5.577-2.37 3.207 4.601h1.812l.558.558z"/><path fill="#F1B517" stroke="#000" stroke-width=".279" d="M258.643 140.342a11.4 11.4 0 0 1 3.206-3.625l1.673 1.812-2.509 2.928z"/><path fill="#0A328C" stroke="#0A328C" stroke-width=".279" d="M256.83 144.803v1.534c.558-.279 5.159-5.159 5.159-5.159l3.485-.697.837-1.115c-2.51-2.928-5.159.976-5.159.976z"/><path fill="#D20014" stroke="#D20014" stroke-width=".279" d="M259.62 147.452c-.279-1.394 1.673-5.298 1.952-5.577 2.23.697 4.182 1.673 4.879-2.788-1.394 2.231-4.879.558-4.879.558l-1.116 1.394v.697l-3.485 4.601z"/><path fill="#0A328C" stroke="#000" stroke-width=".279" d="M280.811 165.855a3806 3806 0 0 1-25.793-14.639c-1.812 3.207-.139 7.668.697 8.365 0 2.092-.836 3.207.976 7.669.558 2.788 1.813 5.437 3.764 6.97 2.231 8.923 11.433 9.62 14.918 2.231z"/><path fill="#D20014" stroke="#000" stroke-width=".279" d="m297.68 175.336-17.428-10.178c-5.576.698 0 11.154.419 12.13l17.009 5.995z"/><path fill="#F1B517" stroke="#000" stroke-width=".279" d="m294.753 171.572-39.456-20.913-.697.837 41.826 23.283zm-41.408-22.028-.697-.418-.418-1.116-5.716-1.394 3.764 4.043 1.673-.279.837.419z"/><path fill="#F1B517" stroke="#000" stroke-width=".279" d="M251.533 152.053c.558-1.394 1.116-2.649 2.51-4.182l1.952 1.533-1.952 3.346z"/><path fill="#0A328C" stroke="#0A328C" stroke-width=".279" d="m250 156.793.837 1.673 4.182-6.413 3.486-1.255.697-1.394c-2.789-2.51-4.88 1.952-4.88 1.952z"/><path fill="#D20014" stroke="#D20014" stroke-width=".279" d="M253.763 159.024c-.279-1.394.697-5.855.976-5.995 2.091.697 3.904.837 4.461-3.625-1.394 2.092-4.601 1.394-4.601 1.394l-.975 1.395.139.557-2.788 5.577z"/><path fill="#F1B517" stroke="#000" stroke-width=".279" d="M307.578 140.481h-1.952l-3.625 14.918.837 4.741z"/><path fill="#fff" stroke="#000" stroke-width=".279" d="m309.67 130.444-1.394 11.571h-1.394l2.788-11.432z"/><path fill="#F1B517" stroke="#000" stroke-width=".279" d="m305.905 155.957 5.995-16.033-2.23-.139-6.971 19.518z"/><path fill="#fff" stroke="#000" stroke-width=".279" d="m314.689 130.722-2.509 11.154h-1.952z"/><path fill="#F1B517" stroke="#000" stroke-width=".279" d="m311.204 150.38 3.485-7.668-1.394-.278-6.552 12.547z"/><path fill="#fff" stroke="#000" stroke-width=".279" d="m319.43 133.929-4.043 10.596h-1.952l5.855-10.596z"/><path fill="#0A328C" stroke="#000" stroke-width=".279" d="m310.646 151.496 16.033-17.428c5.019 3.904 4.043 11.154 4.043 11.154l-18.124 14.221z"/><path fill="#D20014" stroke="#000" stroke-width=".279" d="m301.444 160.976 11.85-11.99c5.02.279 1.116 7.668.837 8.644l-12.548 10.735z"/><path fill="#F1B517" stroke="#000" stroke-width=".279" d="m302.558 159.024 24.399-26.21.976.697-25.932 28.72zm25.793-27.883.558-.697v-1.255l5.019-3.207-2.231 5.159-1.812.279-.419.557z"/><path fill="#F1B517" stroke="#000" stroke-width=".279" d="M331 132.953a11.7 11.7 0 0 0-3.764-3.067l-1.395 2.091 3.068 2.51 2.091-1.395z"/><path fill="#0A328C" stroke="#0A328C" stroke-width=".279" d="m333.65 137.414-.836 1.395c-.558-.14-5.577-4.88-5.577-4.88h-3.764l-.976-1.255c2.788-2.788 5.158.418 5.158.418z"/><path fill="#D20014" stroke="#D20014" stroke-width=".279" d="M330.582 139.784c0-1.394-2.51-4.461-2.789-4.6-1.812.557-3.485 1.673-5.437-2.51 1.673 1.952 4.88 0 4.88 0l1.394 1.115v.558l4.182 3.904z"/><path fill="#0A328C" stroke="#000" stroke-width=".279" d="m317.616 156.096 20.076-15.894c3.486 3.486.558 14.221.558 14.221l-19.519 10.596-.976-8.923z"/><path fill="#D20014" stroke="#000" stroke-width=".279" d="m301.026 169.062 16.591-13.384c5.577.837 1.115 9.062.836 10.038l-17.427 9.481z"/><path fill="#F1B517" stroke="#000" stroke-width=".279" d="m301.722 166.274 35.692-26.768.697.836-37.365 29.278zm37.365-28.162.557-.558.279-1.115 5.577-2.371-3.207 4.601h-1.812l-.558.558z"/><path fill="#F1B517" stroke="#000" stroke-width=".279" d="M341.318 140.342a11.4 11.4 0 0 0-3.206-3.625l-1.673 1.813 2.509 2.928z"/><path fill="#0A328C" stroke="#0A328C" stroke-width=".279" d="M343.131 144.804v1.533c-.558-.279-5.159-5.158-5.159-5.158l-3.485-.697-.837-1.116c2.51-2.928 5.159.976 5.159.976z"/><path fill="#D20014" stroke="#D20014" stroke-width=".279" d="M340.341 147.452c.279-1.394-1.673-5.298-1.952-5.576-2.23.697-4.182 1.673-4.879-2.789 1.394 2.231 4.879.558 4.879.558l1.116 1.394v.697l3.485 4.601z"/><path fill="#0A328C" stroke="#000" stroke-width=".279" d="M319.15 165.856a3920 3920 0 0 0 25.793-14.639c1.812 3.206.139 7.668-.697 8.365 0 2.091.836 3.206-.976 7.668-.558 2.788-1.813 5.437-3.764 6.971-2.231 8.923-11.433 9.62-14.918 2.23z"/><path fill="#D20014" stroke="#000" stroke-width=".279" d="m302.281 175.336 17.428-10.177c5.576.697 0 11.153-.419 12.129l-17.009 5.995z"/><path fill="#F1B517" stroke="#000" stroke-width=".279" d="m305.208 171.572 39.456-20.913.697.837-41.826 23.283zm41.408-22.028.697-.418.418-1.116 5.716-1.394-3.764 4.043-1.673-.278-.837.418z"/><path fill="#F1B517" stroke="#000" stroke-width=".279" d="M348.428 152.053c-.558-1.394-1.116-2.649-2.51-4.182l-1.952 1.533 1.952 3.347z"/><path fill="#0A328C" stroke="#0A328C" stroke-width=".279" d="m349.961 156.793-.837 1.673-4.182-6.413-3.486-1.255-.697-1.394c2.789-2.51 4.88 1.952 4.88 1.952z"/><path fill="#D20014" stroke="#D20014" stroke-width=".279" d="M346.198 159.024c.279-1.394-.697-5.855-.976-5.995-2.091.698-3.904.837-4.461-3.624 1.394 2.091 4.6 1.394 4.6 1.394l.976 1.394-.139.558 2.788 5.576z"/><path fill="#016A16" stroke="#016A16" stroke-width=".279" d="m298.376 115.525-.697 12.548h4.043l-.557-12.548 4.182-.418-.418-5.019-10.456.418v4.462z"/><path fill="#016A16" d="M299.771 110.366c-10.875-10.874-19.38-5.576-21.332-4.043 1.395.279 2.51-.557 3.207-.697l-1.394 1.673s3.485-1.394 3.904-1.394c-.558.418-1.116 1.394-1.116 1.394.279 0 2.231-1.533 2.51-1.533-.558.557-.697 2.091-.697 2.091l1.673-.697c.418.279-.14.836.139.836 2.789-.279 6.553 2.37 6.971 3.207"/><path stroke="#000" stroke-width=".279" d="M299.771 110.366c-10.875-10.874-19.38-5.576-21.332-4.043 1.395.279 2.51-.557 3.207-.697l-1.394 1.673s3.485-1.394 3.904-1.394c-.558.418-1.116 1.394-1.116 1.394.279 0 2.231-1.533 2.51-1.533-.558.557-.697 2.091-.697 2.091l1.673-.697c.418.279-.14.836.139.836 2.789-.279 6.553 2.37 6.971 3.207"/><path fill="#016A16" d="M297.121 112.318c-1.115-2.509-21.749-6.971-25.932.418 1.673.419 3.207-1.394 3.207-1.394v1.673l2.649-2.231-.976 2.231 2.091-1.812v1.812l2.789-2.788-.418 1.533 2.37-.976-.279 1.395"/><path stroke="#000" stroke-width=".279" d="M297.121 112.318c-1.115-2.509-21.749-6.971-25.932.418 1.673.419 3.207-1.394 3.207-1.394v1.673l2.649-2.231-.976 2.231 2.091-1.812v1.812l2.789-2.788-.418 1.533 2.37-.976-.279 1.395"/><path fill="#016A16" d="M296.145 112.737c-5.298-3.486-13.384-1.116-13.384-1.116-5.298 2.789-8.086 2.37-8.644 7.808.418-.14 1.813-1.952 1.813-1.952l1.115 2.091.279-2.928.836 2.371 1.395-3.904.278 2.649 1.952-2.649.837.836.836-2.091.837 1.394s1.394-.836 2.091-.418l1.394-1.673.419 1.255 1.394-1.394.418.975 1.255-1.115v.837h4.182"/><path stroke="#000" stroke-width=".279" d="M296.145 112.737c-5.298-3.486-13.384-1.116-13.384-1.116-5.298 2.789-8.086 2.37-8.644 7.808.418-.14 1.813-1.952 1.813-1.952l1.115 2.091.279-2.928.836 2.371 1.395-3.904.278 2.649 1.952-2.649.837.836.836-2.091.837 1.394s1.394-.836 2.091-.418l1.394-1.673.419 1.255 1.394-1.394.418.975 1.255-1.115v.837h4.182"/><path fill="#016A16" d="M295.031 113.294c-3.765 0-14.361 4.043-17.01 8.086q.884-.467 1.813-.836l.418 1.673.697-1.673.14 1.394c.418-1.115.836-1.115 1.673-.139l.279-1.534.418 1.394.697-1.533s.418 1.673.697 1.673c0 0 1.115-3.067 1.673-3.207l.139 1.952.698-1.952.697 1.394v-1.952l.836 1.395s.279-1.395.837-1.673l1.115.976 4.74-3.486"/><path stroke="#000" stroke-width=".279" d="M295.031 113.294c-3.765 0-14.361 4.043-17.01 8.086q.884-.467 1.813-.836l.418 1.673.697-1.673.14 1.394c.418-1.115.836-1.115 1.673-.139l.279-1.534.418 1.394.697-1.533s.418 1.673.697 1.673c0 0 1.115-3.067 1.673-3.207l.139 1.952.698-1.952.697 1.394v-1.952l.836 1.395s.279-1.395.837-1.673l1.115.976 4.74-3.486"/><path fill="#016A16" d="M295.727 114.27c-4.879 1.812-9.341 8.644-8.922 11.432 2.091-2.788 1.673-2.37 2.649.837 0 0 .278-2.789.697-3.068l.697 1.952.139-2.649h.697l-.139-1.533.976.697c-.279-.976-.418-1.255.557-2.091 0 0-1.394.139-.278-2.092l.976.837s-.279-.976 0-1.394l3.624-1.116"/><path stroke="#000" stroke-width=".279" d="M295.727 114.27c-4.879 1.812-9.341 8.644-8.922 11.432 2.091-2.788 1.673-2.37 2.649.837 0 0 .278-2.789.697-3.068l.697 1.952.139-2.649h.697l-.139-1.533.976.697c-.279-.976-.418-1.255.557-2.091 0 0-1.394.139-.278-2.092l.976.837s-.279-.976 0-1.394l3.624-1.116"/><path fill="#016A16" d="m296.146 114.688-1.812 3.625.976.279-2.231 1.534 1.812-.14s-2.788.976-3.067 3.764l2.789-1.394s-2.371 2.51-2.789 4.043l1.813-1.394s-1.673 1.673-1.395 4.183l1.255-1.394c-.279 3.206-.279 3.485 1.116 5.855 0 0-.279-3.625 0-4.182l3.206 3.346-1.673-4.601s1.952 2.788 3.067 2.649l-2.509-3.764 2.509 1.951-2.788-4.182 2.51.836s-1.813-2.37-1.673-3.903l1.812 1.951s-.697-2.091-.558-2.788l.976.14-1.812-1.952 1.255-.279-.14-1.394.837-.14v-1.533m-1.534 0c-3.067 4.182-1.534 10.456-3.346 13.802z"/><path stroke="#000" stroke-width=".279" d="m296.146 114.688-1.812 3.625.976.279-2.231 1.534 1.812-.14s-2.788.976-3.067 3.764l2.789-1.394s-2.371 2.51-2.789 4.043l1.813-1.394s-1.673 1.673-1.395 4.183l1.255-1.394c-.279 3.206-.279 3.485 1.116 5.855 0 0-.279-3.625 0-4.182l3.206 3.346-1.673-4.601s1.952 2.788 3.067 2.649l-2.509-3.764 2.509 1.951-2.788-4.182 2.51.836s-1.813-2.37-1.673-3.903l1.812 1.951s-.697-2.091-.558-2.788l.976.14-1.812-1.952 1.255-.279-.14-1.394.837-.14v-1.533m-1.534 0c-3.067 4.182-1.534 10.456-3.346 13.802"/><path fill="#016A16" d="M300.188 110.366c10.875-10.874 19.38-5.576 21.332-4.043-1.395.279-2.51-.557-3.207-.697l1.394 1.673s-3.485-1.394-3.904-1.394c.558.418 1.116 1.394 1.116 1.394-.279 0-2.231-1.533-2.51-1.533.558.557.697 2.091.697 2.091l-1.673-.697c-.418.279.14.836-.139.836-2.789-.279-6.553 2.37-6.971 3.207"/><path stroke="#000" stroke-width=".279" d="M300.188 110.366c10.875-10.874 19.38-5.576 21.332-4.043-1.395.279-2.51-.557-3.207-.697l1.394 1.673s-3.485-1.394-3.904-1.394c.558.418 1.116 1.394 1.116 1.394-.279 0-2.231-1.533-2.51-1.533.558.557.697 2.091.697 2.091l-1.673-.697c-.418.279.14.836-.139.836-2.789-.279-6.553 2.37-6.971 3.207"/><path fill="#016A16" d="M302.838 112.318c1.115-2.509 21.749-6.971 25.932.418-1.673.419-3.207-1.394-3.207-1.394v1.673l-2.649-2.231.976 2.231-2.091-1.812v1.812l-2.789-2.788.418 1.533-2.37-.976.279 1.395"/><path stroke="#000" stroke-width=".279" d="M302.838 112.318c1.115-2.509 21.749-6.971 25.932.418-1.673.419-3.207-1.394-3.207-1.394v1.673l-2.649-2.231.976 2.231-2.091-1.812v1.812l-2.789-2.788.418 1.533-2.37-.976.279 1.395"/><path fill="#016A16" d="M303.814 112.737c5.298-3.486 13.384-1.116 13.384-1.116 5.298 2.789 8.086 2.37 8.644 7.808-.418-.14-1.813-1.952-1.813-1.952l-1.115 2.091-.279-2.928-.836 2.371-1.395-3.904-.278 2.649-1.952-2.649-.837.836-.836-2.091-.837 1.394s-1.394-.836-2.091-.418l-1.394-1.673-.419 1.255-1.394-1.394-.418.975-1.255-1.115v.837h-4.182"/><path stroke="#000" stroke-width=".279" d="M303.814 112.737c5.298-3.486 13.384-1.116 13.384-1.116 5.298 2.789 8.086 2.37 8.644 7.808-.418-.14-1.813-1.952-1.813-1.952l-1.115 2.091-.279-2.928-.836 2.371-1.395-3.904-.278 2.649-1.952-2.649-.837.836-.836-2.091-.837 1.394s-1.394-.836-2.091-.418l-1.394-1.673-.419 1.255-1.394-1.394-.418.975-1.255-1.115v.837h-4.182"/><path fill="#016A16" d="M304.928 113.294c3.765 0 14.361 4.043 17.01 8.086a19 19 0 0 0-1.813-.836l-.418 1.673-.697-1.673-.14 1.394c-.418-1.115-.836-1.115-1.673-.139l-.279-1.534-.418 1.394-.697-1.533s-.418 1.673-.697 1.673c0 0-1.115-3.067-1.673-3.207l-.139 1.952-.698-1.952-.697 1.394v-1.952l-.836 1.395s-.279-1.395-.837-1.673l-1.115.976-4.74-3.486"/><path stroke="#000" stroke-width=".279" d="M304.928 113.294c3.765 0 14.361 4.043 17.01 8.086a19 19 0 0 0-1.813-.836l-.418 1.673-.697-1.673-.14 1.394c-.418-1.115-.836-1.115-1.673-.139l-.279-1.534-.418 1.394-.697-1.533s-.418 1.673-.697 1.673c0 0-1.115-3.067-1.673-3.207l-.139 1.952-.698-1.952-.697 1.394v-1.952l-.836 1.395s-.279-1.395-.837-1.673l-1.115.976-4.74-3.486"/><path fill="#016A16" d="M304.232 114.27c4.879 1.812 9.341 8.644 8.922 11.432-2.091-2.788-1.673-2.37-2.649.837 0 0-.278-2.789-.697-3.068l-.697 1.952-.139-2.649h-.697l.139-1.533-.976.697c.279-.976.418-1.255-.557-2.091 0 0 1.394.139.278-2.092l-.976.837s.279-.976 0-1.394l-3.624-1.116"/><path stroke="#000" stroke-width=".279" d="M304.232 114.27c4.879 1.812 9.341 8.644 8.922 11.432-2.091-2.788-1.673-2.37-2.649.837 0 0-.278-2.789-.697-3.068l-.697 1.952-.139-2.649h-.697l.139-1.533-.976.697c.279-.976.418-1.255-.557-2.091 0 0 1.394.139.278-2.092l-.976.837s.279-.976 0-1.394l-3.624-1.116"/><path fill="#016A16" d="m303.813 114.688 1.812 3.625-.976.279 2.231 1.534-1.812-.14s2.788.976 3.067 3.764l-2.789-1.394s2.371 2.51 2.789 4.043l-1.813-1.394s1.673 1.673 1.395 4.183l-1.255-1.394c.279 3.206.279 3.485-1.116 5.855 0 0 .279-3.625 0-4.182l-3.206 3.346 1.673-4.601s-1.952 2.788-3.067 2.649l2.509-3.764-2.509 1.951 2.788-4.182-2.51.836s1.813-2.37 1.673-3.903l-1.812 1.951s.697-2.091.558-2.788l-.976.14 1.812-1.952-1.255-.279.14-1.394-.837-.14v-1.533m1.534 0c3.067 4.182 1.534 10.456 3.346 13.802z"/><path stroke="#000" stroke-width=".279" d="m303.813 114.688 1.812 3.625-.976.279 2.231 1.534-1.812-.14s2.788.976 3.067 3.764l-2.789-1.394s2.371 2.51 2.789 4.043l-1.813-1.394s1.673 1.673 1.395 4.183l-1.255-1.394c.279 3.206.279 3.485-1.116 5.855 0 0 .279-3.625 0-4.182l-3.206 3.346 1.673-4.601s-1.952 2.788-3.067 2.649l2.509-3.764-2.509 1.951 2.788-4.182-2.51.836s1.813-2.37 1.673-3.903l-1.812 1.951s.697-2.091.558-2.788l-.976.14 1.812-1.952-1.255-.279.14-1.394-.837-.14v-1.533m1.534 0c3.067 4.182 1.534 10.456 3.346 13.802"/><path fill="#F1B517" stroke="#000" stroke-width=".279" d="M301.444 172.548s1.534-13.942 1.534-19.798c0-4.74-1.116-15.057-1.116-15.057h-4.6s-.697 10.317-.558 15.057c0 5.856 1.534 19.798 1.534 19.798z"/><path fill="#F1B517" stroke="#000" stroke-width=".279" d="M296.842 138.39h5.577l-.698-3.764h-4.043z"/><path fill="#F1B517" stroke="#000" stroke-width=".279" d="M297.262 135.323h4.879l-.976-3.765h-3.067z"/><path fill="#F1B517" stroke="#000" stroke-width=".279" d="M297.539 132.395h4.183l-.837-3.764h-2.649z"/><path fill="#F1B517" d="M301.025 128.212h-2.789l-.418 1.394h3.485zm.557 41.408h-3.625zm.279-2.789h-4.182zm.558-2.788h-5.298zm.279-2.928h-5.577zm0-3.067h-5.716zm.139-2.789h-6.134zm0-2.37h-6.413zm0-3.067h-6.413zm-.139-2.928h-6.274zm-.279-3.067h-5.716zm-.279-2.788h-5.158z"/><path stroke="#000" stroke-width=".279" d="M301.582 169.62h-3.625m3.904-2.789h-4.182m4.74-2.788h-5.298m5.577-2.928h-5.577m5.577-3.067h-5.716m5.855-2.789h-6.134m6.134-2.37h-6.413m6.413-3.067h-6.413m6.274-2.928h-6.274m5.995-3.067h-5.716m5.437-2.788h-5.158m4.043-12.827h-2.789l-.418 1.394h3.485z"/><path fill="#0A328C" stroke="#0A328C" stroke-width=".279" d="M300.048 106.324c-1.115-.418-3.206-1.813-2.649-2.649l.976-1.673c1.395-3.067 0-1.952 0-2.789-.278-1.115 5.298-.278 5.298 1.813 0 .697-.418.279-.279 3.625l-1.115 2.091a4.9 4.9 0 0 1-2.37-.279z"/><path fill="#F1B517" stroke="#000" stroke-width=".279" d="m300.607 114.689-1.394-1.255.418-9.899 1.394.419-.418 10.596z"/><path fill="#D20014" stroke="#D20014" stroke-width=".279" d="M302.42 106.742c.837-.558 1.394-2.091.837-2.928-1.395-1.812-2.371-1.115-4.741-1.952-.418.558-1.394 1.394-1.254 2.231 3.206 1.394 1.951.279 3.067.418.557 0 .836.697 2.091 2.092z"/><path fill="#016A16" stroke="#fff" stroke-linecap="round" stroke-width=".279" d="M284.016 163.904c-.278-.697-1.394-1.255-2.788-1.255s-2.37.558-2.788 1.255a1.1 1.1 0 0 1 0-.558c0-.976 1.254-1.673 2.788-1.673 1.673 0 2.928.697 2.928 1.673.047.183.047.375 0 .558zM283.877 165.995c0 1.673-1.255 3.206-2.649 3.206s-2.509-1.394-2.509-3.346v-1.673h5.158z"/><path fill="#fff" d="M281.228 164.88c1.386 0 2.51-.562 2.51-1.255s-1.124-1.255-2.51-1.255-2.509.562-2.509 1.255 1.123 1.255 2.509 1.255"/><path fill="#016A16" stroke="#F1B517" stroke-width=".279" d="m280.67 164.88-.418-4.461h1.952l-.279 4.601h-1.255z"/><path fill="#016A16" stroke="#fff" stroke-linecap="round" stroke-width=".279" d="M284.016 163.625c-.278.697-1.394 1.255-2.788 1.255s-2.37-.558-2.788-1.255a1.1 1.1 0 0 0 0 .558c0 .976 1.254 1.673 2.788 1.673 1.673 0 2.928-.697 2.928-1.673a1.1 1.1 0 0 0 0-.558z"/><path fill="#F1B517" stroke="#000" stroke-width=".279" d="m294.473 181.331-9.759-3.067-4.322-7.389-15.197-.698.558 5.577 12.966 2.37 1.115 2.231 14.918 4.183z"/><path fill="#503200" stroke="#000" stroke-width=".279" d="m284.296 183.423-15.615-23.004-.697.697 15.336 22.865z"/><path fill="#fff" stroke="#000" stroke-width=".279" d="m270.214 161.394-1.673-2.788c-.418-.558-.837-.697-1.534-.279-.697.279-.557.976-.279 1.534l1.395 2.649z"/><path fill="#F1B517" stroke="#000" stroke-width=".279" d="m286.108 169.202-31.369-3.207-.837 4.601 31.23 3.207z"/><path fill="#F1B517" stroke="#000" stroke-width=".279" d="m254.041 164.88-.697 6.273h1.394l.836-5.716zm5.298.976-.279 5.716h.836l.698-4.88zm21.331 2.509-.837 5.298h1.534l.697-5.298zm4.601.14-.976 6.134 1.673.279.557-3.207c0 .697.698 1.116 1.395 1.116.836 0 1.394-.698 1.394-1.395 0-.836-.558-1.394-1.394-1.394a1.39 1.39 0 0 0-1.395.837l.419-2.231zm-11.154.975-4.461 4.88.557.558 5.577-3.765zM263.8 181.61l4.322-4.88-.418-.557-5.577 3.764zm11.293-1.255-5.158-4.043-.558.418 4.183 5.298zm-12.966-9.341 5.437 3.904.558-.418-4.182-5.298zm5.856-3.207.557 6.414h.698l1.673-6.274zm1.673 15.337-.418-6.274h-.837l-.976 6.413zm7.11-8.366-6.692.558v.697l6.692.837zm-15.894 2.092 6.553-.976v-.558l-6.692-.697v2.231z"/><path fill="#F1B517" stroke="#000" stroke-width=".279" d="M268.959 177.149c1.001 0 1.812-.749 1.812-1.673s-.811-1.673-1.812-1.673-1.813.749-1.813 1.673.812 1.673 1.813 1.673Z"/><path fill="#F1B517" fill-rule="evenodd" stroke="#000" stroke-linecap="round" stroke-width=".279" d="M278.301 175.476c0 4.879-4.182 9.062-9.341 9.062a9.203 9.203 0 0 1-9.341-9.062c0-5.019 4.183-9.063 9.341-9.063a9.22 9.22 0 0 1 6.548 2.597 9.2 9.2 0 0 1 2.793 6.466Zm-1.812 0a7.4 7.4 0 0 1-.616 2.817 7.407 7.407 0 0 1-4.074 3.924 7.4 7.4 0 0 1-2.839.508 7.38 7.38 0 0 1-5.315-2.114 7.4 7.4 0 0 1-2.213-5.275 7.388 7.388 0 0 1 7.528-7.11 7.388 7.388 0 0 1 7.529 7.25Z" clip-rule="evenodd"/><path fill="#F1B517" d="m263.103 170.875-1.394-1.116zm10.457-1.116 1.394-1.394zm2.788 11.433-1.534-1.255zm-13.245 1.394 1.394-1.394zm31.648-16.173 1.534 8.365-1.255.558-1.394-8.783z"/><path stroke="#000" stroke-width=".279" d="m263.103 170.875-1.394-1.116m11.851 0 1.394-1.394m1.394 12.827-1.534-1.255m-11.711 2.649 1.394-1.394m30.254-14.779 1.534 8.365-1.255.558-1.394-8.783z"/><path fill="#fff" stroke="#000" stroke-width=".279" d="M293.916 165.437c-.697-.418-1.673.14-3.346-1.812-2.649 2.37 0 2.788.278 5.159.698.278 1.255-1.952 3.207-2.092l3.207-.279-.697-.976z"/><path fill="#fff" stroke="#000" stroke-width=".279" d="m295.03 166.971-.278-2.37c-.419-.976-1.395-.139-1.395.279l.279 2.37z"/><path fill="#F1B517" fill-rule="evenodd" stroke="#000" stroke-width=".279" d="M287.222 173.803v2.231c-.836.279-.697.836-.697 1.673v6.552c-.139.558-.976.558-1.394.837-.418.418-.279 1.115 1.394 1.394l1.395.14c2.091-.419 2.509-1.116 1.394-1.395-.419-.278-1.255-.557-1.394-.836v-1.673h1.394c.279 0 .976-.837.976-1.534v-3.485c0-1.952-1.395-2.231-1.952-2.092v-1.812zm2.231 3.764c0-.557-.836-1.115-1.115-1.115s-.976.697-.976 1.255v1.394c0 .558.418 2.231 1.255 2.37.278 0 .836-.558.836-1.115z" clip-rule="evenodd"/><path fill="#fff" d="M278.161 180.634c-.976-.279-.976 1.673-.976 1.673h1.394c.697.279 1.115 1.116.837 1.673-.419.279-3.068-.697-3.207 0 .418 2.649 4.043 3.625 5.298 2.51 1.255-1.255 1.534-4.183-2.51-5.159zm.836.837-.418.836z"/><path stroke="#000" stroke-width=".279" d="M278.579 182.307h-1.394s0-1.952.976-1.673l.836.697c4.044.976 3.765 3.904 2.51 5.159-1.255 1.115-4.88.139-5.298-2.51.139-.697 2.788.279 3.207 0 .278-.557-.14-1.394-.837-1.673Zm0 0 .418-.836"/><path fill="#F1B517" d="m251.252 181.61-1.394-5.577zm1.534-.279-2.091-4.322zm3.485-1.115-4.6-2.51zm2.092-.558-8.644-3.764z"/><path stroke="#000" stroke-width=".279" d="m251.252 181.61-1.394-5.577m2.928 5.298-2.091-4.322m5.576 3.207-4.6-2.51m6.692 1.952-8.644-3.764"/><path fill="#D20014" stroke="#D20014" stroke-width=".279" d="m244.561 171.851-3.625.139c-.279.14.697 1.255.558 1.534-.837 1.533-6.135 1.394-6.553 1.115-.697-.697 4.88-1.115 5.019-1.394 0-.558-.836-1.673-.697-2.37 0-.976 2.37-1.394 2.37-1.394z"/><path fill="#503200" stroke="#000" stroke-width=".279" d="m248.743 174.639-6.971-5.856s-.418-.278-.697 0c-.279.279 0 .558 0 .558l7.529 6.134.139-.697z"/><path fill="#F1B517" stroke="#000" stroke-width=".279" d="m255.714 180.495-5.856-5.02-.418-1.394-1.115.837c-.418.279-.837 1.115-.837 1.115h1.534l5.019 4.74 1.534-.278zM275.652 188.302a.976.976 0 1 0 0-1.952.976.976 0 0 0 0 1.952ZM273.003 186.351a.976.976 0 1 0 0-1.952.976.976 0 0 0 0 1.952ZM269.517 187.605a.976.976 0 1 0 0-1.952.976.976 0 0 0 0 1.952ZM264.079 188.72a.976.976 0 1 0 0-1.952.976.976 0 0 0 0 1.952ZM261.71 188.999a.975.975 0 1 0 .002-1.95.975.975 0 0 0-.002 1.95ZM259.339 188.999a.975.975 0 1 0 .002-1.95.975.975 0 0 0-.002 1.95ZM257.109 188.999a.975.975 0 1 0 .002-1.95.975.975 0 0 0-.002 1.95ZM258.224 187.187a.976.976 0 1 0 0-1.952.976.976 0 0 0 0 1.952ZM260.454 187.326a.976.976 0 1 0 0-1.952.976.976 0 0 0 0 1.952ZM262.546 187.047a.976.976 0 1 0 0-1.952.976.976 0 0 0 0 1.952Z"/><path fill="#F1B517" stroke="#000" stroke-width=".279" d="M261.57 185.375a.976.976 0 1 0 0-1.952.976.976 0 0 0 0 1.952ZM259.339 185.235a.976.976 0 1 0 0-1.952.976.976 0 0 0 0 1.952Z"/><path fill="#F1B517" fill-rule="evenodd" stroke="#000" stroke-width=".279" d="M281.229 188.581c0-.419-1.116-.279-1.116-.837s1.673 0 1.813.418c.976-.836 1.394-.278 1.952 0 .836-1.115 1.812-1.115 2.788-.278.558-.558 1.952-.419 2.37.278.976-.836 1.813-.697 2.37 0 .279-.418.697-.418.976 0 .418-.975 1.673-.697 2.231 0 .418-.557.976-.139 1.533.14.419-.279 1.116-.279 1.116 0 0 .558-.837.418-.837.836 0 .279.558 0 .558.558 0 .418-.837.558-.976 0-.418.558-1.534.279-1.673-.279a1.1 1.1 0 0 1-.836.378 1.11 1.11 0 0 1-.837-.378c-.418.279-.976.279-1.115 0-.697.697-1.952.558-2.37-.279h-.419a1.38 1.38 0 0 1-1.045.472 1.4 1.4 0 0 1-1.046-.472c-1.255.837-1.952.558-2.649 0-.697.976-1.952.976-2.091 0-.558.419-1.673.558-1.673 0 0-.278.976-.139.976-.557Zm2.23.139c0 .279-.278.418-.557.418s-.558-.139-.558-.418.139-.279.558-.279c.418 0 .557.14.557.279Zm2.649-.279c0 .279-.418.419-.836.419s-.697-.14-.697-.419c0-.139.279-.418.697-.418s.697.279.697.418zm4.88.279c0 .279-.279.418-.697.418s-.558-.139-.558-.418c0-.139.279-.418.558-.418s.697.139.697.418Zm-2.649 0c0 .279-.279.418-.697.418s-.558-.139-.558-.557c0-.279.279-.558.558-.558s.697.279.697.558zm5.577 0c0 .14-.14.418-.418.418-.419 0-.698-.278-.698-.557s.279-.419.698-.419c.278 0 .557.14.557.419zm-1.673 0c0 .279 0 .418-.279.418q-.418 0-.418-.418c0-.279.139-.279.418-.279zm3.346.14c0 .278 0 .557-.418.557-.14 0-.419-.279-.419-.557 0-.279.279-.419.419-.419q.418 0 .418.419Z" clip-rule="evenodd"/><path fill="#F1B517" stroke="#000" stroke-width=".279" d="m305.488 181.331 9.759-3.067 4.322-7.389 15.197-.698-.558 5.577-12.966 2.37-1.115 2.231-14.918 4.183z"/><path fill="#503200" stroke="#000" stroke-width=".279" d="m315.665 183.423 15.614-23.004.698.697-15.337 22.865z"/><path fill="#fff" stroke="#000" stroke-width=".279" d="m329.747 161.394 1.673-2.788c.418-.558.837-.697 1.534-.279.697.279.557.976.278 1.534l-1.394 2.649z"/><path fill="#F1B517" stroke="#000" stroke-width=".279" d="m313.853 169.202 31.369-3.207.837 4.601-31.23 3.207z"/><path fill="#F1B517" stroke="#000" stroke-width=".279" d="m345.92 164.88.697 6.273h-1.394l-.837-5.716zm-5.298.976.279 5.716h-.837l-.697-4.88zm-21.331 2.509.837 5.298h-1.534l-.697-5.298zm-4.601.14.976 6.134-1.673.279-.558-3.207c0 .697-.697 1.116-1.394 1.116-.836 0-1.394-.698-1.394-1.395 0-.836.558-1.394 1.394-1.394a1.39 1.39 0 0 1 1.394.837l-.418-2.231zm11.154.975 4.461 4.88-.558.558-5.576-3.765zm10.317 12.13-4.322-4.88.418-.557 5.577 3.764zm-11.293-1.255 5.158-4.043.558.418-4.183 5.298zm12.966-9.341-5.438 3.904-.557-.418 4.182-5.298zm-5.856-3.207-.557 6.414h-.698l-1.673-6.274zm-1.673 15.337.418-6.274h.837l.976 6.413zm-7.11-8.366 6.692.558v.697l-6.692.837zm15.894 2.092-6.553-.976v-.558l6.692-.697v2.231z"/><path fill="#F1B517" stroke="#000" stroke-width=".279" d="M331.002 177.149c-1.001 0-1.812-.749-1.812-1.673s.811-1.673 1.812-1.673 1.812.749 1.812 1.673-.811 1.673-1.812 1.673Z"/><path fill="#F1B517" fill-rule="evenodd" stroke="#000" stroke-linecap="round" stroke-width=".279" d="M321.66 175.476c0 4.879 4.182 9.062 9.341 9.062a9.203 9.203 0 0 0 9.341-9.062c0-5.019-4.183-9.063-9.341-9.063a9.22 9.22 0 0 0-6.548 2.597 9.2 9.2 0 0 0-2.793 6.466Zm1.812 0c.018.97.227 1.927.616 2.817a7.407 7.407 0 0 0 4.074 3.924 7.4 7.4 0 0 0 2.839.508 7.38 7.38 0 0 0 5.315-2.114 7.4 7.4 0 0 0 2.213-5.275 7.388 7.388 0 0 0-7.528-7.11 7.388 7.388 0 0 0-7.529 7.25Z" clip-rule="evenodd"/><path fill="#F1B517" d="m336.858 170.875 1.394-1.116zm-10.457-1.116-1.394-1.394zm-2.788 11.433 1.534-1.255zm13.245 1.394-1.394-1.394zm-31.648-16.173-1.534 8.365 1.255.558 1.394-8.783z"/><path stroke="#000" stroke-width=".279" d="m336.858 170.875 1.394-1.116m-11.851 0-1.394-1.394m-1.394 12.827 1.534-1.255m11.711 2.649-1.394-1.394m-30.254-14.779-1.534 8.365 1.255.558 1.394-8.783z"/><path fill="#fff" stroke="#000" stroke-width=".279" d="M306.045 165.437c.697-.418 1.673.14 3.346-1.812 2.649 2.37 0 2.788-.278 5.159-.698.278-1.255-1.952-3.207-2.092l-3.207-.279.697-.976z"/><path fill="#fff" stroke="#000" stroke-width=".279" d="m304.93 166.971.279-2.37c.419-.976 1.395-.139 1.395.279l-.279 2.37z"/><path fill="#F1B517" fill-rule="evenodd" stroke="#000" stroke-width=".279" d="M312.738 173.803v2.231c.837.279.698.836.698 1.673v6.552c.139.558.976.558 1.394.837.418.418.279 1.115-1.394 1.394l-1.395.14c-2.091-.419-2.509-1.116-1.394-1.395.418-.278 1.255-.557 1.394-.836v-1.673h-1.394c-.279 0-.976-.837-.976-1.534v-3.485c0-1.952 1.394-2.231 1.952-2.092v-1.812zm-2.23 3.764c0-.557.836-1.115 1.115-1.115s.976.697.976 1.255v1.394c0 .558-.418 2.231-1.255 2.37-.279 0-.836-.558-.836-1.115z" clip-rule="evenodd"/><path fill="#fff" d="M321.8 180.634c.976-.279.976 1.673.976 1.673h-1.394c-.697.279-1.116 1.116-.837 1.673.419.279 3.068-.697 3.207 0-.418 2.649-4.043 3.625-5.298 2.51-1.255-1.255-1.534-4.183 2.51-5.159zm-.836.837.418.836z"/><path stroke="#000" stroke-width=".279" d="M321.382 182.307h1.394s0-1.952-.976-1.673l-.836.697c-4.044.976-3.765 3.904-2.51 5.159 1.255 1.115 4.88.139 5.298-2.51-.139-.697-2.788.279-3.207 0-.279-.557.14-1.394.837-1.673Zm0 0-.418-.836"/><path fill="#F1B517" d="m348.709 181.61 1.394-5.577zm-1.534-.279 2.091-4.322zm-3.486-1.115 4.601-2.51zm-2.091-.558 8.644-3.764z"/><path stroke="#000" stroke-width=".279" d="m348.709 181.61 1.394-5.577m-2.928 5.298 2.091-4.322m-5.577 3.207 4.601-2.51m-6.692 1.952 8.644-3.764"/><path fill="#D20014" stroke="#D20014" stroke-width=".279" d="m355.4 171.851 3.625.139c.279.14-.697 1.255-.558 1.534.837 1.533 6.135 1.394 6.553 1.115.697-.697-4.88-1.115-5.019-1.394 0-.558.836-1.673.697-2.37 0-.976-2.37-1.394-2.37-1.394z"/><path fill="#503200" stroke="#000" stroke-width=".279" d="m351.218 174.639 6.971-5.856s.418-.278.697 0c.279.279 0 .558 0 .558l-7.529 6.134-.139-.697z"/><path fill="#F1B517" stroke="#000" stroke-width=".279" d="m344.247 180.495 5.856-5.02.418-1.394 1.115.837c.418.279.837 1.115.837 1.115h-1.534l-5.019 4.74-1.534-.278zM324.309 188.302a.976.976 0 1 1 0-1.952.976.976 0 0 1 0 1.952ZM326.958 186.351a.976.976 0 1 1 0-1.952.976.976 0 0 1 0 1.952ZM330.444 187.605a.976.976 0 1 1 0-1.952.976.976 0 0 1 0 1.952ZM335.881 188.72a.975.975 0 1 1 0-1.95.975.975 0 0 1 0 1.95ZM338.251 188.999a.975.975 0 1 1-.002-1.95.975.975 0 0 1 .002 1.95ZM340.622 188.999a.975.975 0 1 1-.002-1.95.975.975 0 0 1 .002 1.95ZM342.852 188.999a.975.975 0 1 1-.002-1.95.975.975 0 0 1 .002 1.95ZM341.737 187.187a.976.976 0 1 1 0-1.952.976.976 0 0 1 0 1.952ZM339.506 187.326a.975.975 0 1 1 0-1.95.975.975 0 0 1 0 1.95ZM337.415 187.047a.976.976 0 1 1 0-1.952.976.976 0 0 1 0 1.952Z"/><path fill="#F1B517" stroke="#000" stroke-width=".279" d="M338.391 185.375a.976.976 0 1 1 0-1.952.976.976 0 0 1 0 1.952ZM340.622 185.235a.976.976 0 1 1 0-1.952.976.976 0 0 1 0 1.952Z"/><path fill="#F1B517" fill-rule="evenodd" stroke="#000" stroke-width=".279" d="M318.732 188.581c0-.419 1.116-.279 1.116-.837s-1.673 0-1.813.418c-.976-.836-1.394-.278-1.952 0-.836-1.115-1.812-1.115-2.788-.278-.558-.558-1.952-.419-2.37.278-.976-.836-1.813-.697-2.37 0-.279-.418-.697-.418-.976 0-.418-.975-1.673-.697-2.231 0-.418-.557-.976-.139-1.534.14-.418-.279-1.115-.279-1.115 0 0 .558.837.418.837.836 0 .279-.558 0-.558.558 0 .418.836.558.976 0 .418.558 1.533.279 1.673-.279a1.1 1.1 0 0 0 .836.378 1.11 1.11 0 0 0 .837-.378c.418.279.976.279 1.115 0 .697.697 1.952.558 2.37-.279h.419a1.38 1.38 0 0 0 1.045.472 1.4 1.4 0 0 0 1.046-.472c1.255.837 1.952.558 2.649 0 .697.976 1.952.976 2.091 0 .558.419 1.673.558 1.673 0 0-.278-.976-.139-.976-.557Zm-2.23.139c0 .279.278.418.557.418s.558-.139.558-.418-.139-.279-.558-.279c-.418 0-.557.14-.557.279Zm-2.649-.279c0 .279.418.419.836.419s.697-.14.697-.419c0-.139-.279-.418-.697-.418s-.697.279-.697.418zm-4.88.279c0 .279.279.418.697.418s.558-.139.558-.418c0-.139-.279-.418-.558-.418s-.697.139-.697.418Zm2.649 0c0 .279.279.418.697.418s.558-.139.558-.557c0-.279-.279-.558-.558-.558s-.697.279-.697.558zm-5.577 0c0 .14.14.418.418.418.419 0 .698-.278.698-.557s-.279-.419-.698-.419c-.278 0-.557.14-.557.419zm1.673 0c0 .279 0 .418.279.418q.418 0 .418-.418c0-.279-.139-.279-.418-.279zm-3.346.14c0 .278 0 .557.418.557.14 0 .419-.279.419-.557 0-.279-.279-.419-.419-.419q-.418 0-.418.419Z" clip-rule="evenodd"/><path fill="#0A328C" stroke="#0A328C" stroke-width=".279" d="M299.772 171.432c-3.486 0-6.274 1.395-6.274 2.928 0 .279 0 .558.279.837.697.836 3.207 1.394 6.134 1.394 2.789 0 5.019-.418 5.856-1.255.279-.279.418-.558.418-.976 0-1.533-2.788-2.788-6.413-2.788z"/><path fill="#F1B517" stroke="#000" stroke-width=".279" d="M306.185 174.639v9.759c0 1.255-2.788 2.092-6.274 2.092-3.485 0-6.413-.837-6.413-2.092v-9.759c0 1.116 2.788 2.091 6.274 2.091 3.625 0 6.413-.975 6.413-2.091Z"/><path fill="#D20014" stroke="#D20014" stroke-width=".279" d="M293.498 174.639v1.394l3.067 9.76 2.51-7.529 2.788 7.668 1.813-7.25 2.509 4.88v-2.649l-2.231-4.74q-.413.154-.836.279l-1.394 5.298-2.092-5.02q-.487.012-.975 0l-2.092 5.02-2.23-6.135c-.558-.279-.837-.697-.837-.976Z"/><path fill="#0A328C" stroke="#0A328C" stroke-width=".279" d="M306.185 182.586v1.812c0 1.255-2.788 2.092-6.274 2.092-3.485 0-6.413-.837-6.413-2.092v-1.812c0 1.255 2.788 2.091 6.274 2.091 3.625 0 6.413-.836 6.413-2.091Z"/><path fill="#F1B517" stroke="#000" stroke-width=".279" d="m302.421 184.398-1.534.279v1.813l1.673-.14zm-6.692-.139v1.812l1.533.279v-1.812a13 13 0 0 1-1.533-.279Zm-2.231-1.673v1.812c0 .419.279.697.697.976v-1.812c-.418-.279-.697-.558-.697-.976Zm12.687.279c0 .279-.557.697-1.115.976v1.812c.697-.279 1.115-.697 1.115-1.255z"/><path stroke="#000" stroke-width=".279" d="M306.185 174.639v9.759c0 1.255-2.788 2.092-6.274 2.092-3.485 0-6.413-.837-6.413-2.092v-9.759"/><path fill="#fff" stroke="#fff" stroke-width=".279" d="M304.789 173.942c0 .697-2.23 1.394-4.879 1.394-2.789 0-5.019-.697-5.019-1.394s2.23-1.254 4.879-1.254c2.789 0 5.019.557 5.019 1.394z"/><path fill="#F1B517" stroke="#000" stroke-width=".279" d="m298.237 174.918.279 1.673h1.394l.14-1.673zm5.716-.418-1.394.279.139 1.673 1.395-.279zm-7.528-2.789-.976.419.139 1.394.837-.279zm3.346-.418h-.419l.279 1.673h.837l.279-1.673a13 13 0 0 0-.976 0Zm3.764.558-.139 1.394.976.418v-1.394a7 7 0 0 0-.837-.418Zm-9.062 3.903.279-1.812-1.395-.697v2.091zm11.711-.418v-1.812l-1.115.418zm12.966-11.85c1.115 0 2.788 1.394 2.928 3.485 0 1.394-2.37 1.394-2.37 1.394 0 .697-1.395 1.255-2.51 1.394-1.115 0 .279-2.091.279-2.091-.697-1.812.279-3.764.279-3.764z"/><path fill="#F1B517" d="M317.477 167.668h1.115s0 .418.279.418.418-.557.418-.557h1.673"/><path stroke="#000" stroke-width=".279" d="M317.477 167.668h1.115s0 .418.279.418.418-.557.418-.557h1.673"/><path fill="#D20014" stroke="#F1B517" stroke-width=".279" d="M319.708 164.74c.976-.697.139-2.091-.558-2.091h-1.394c-.837 0-1.952.837-1.812 1.394 0 .697.557.976 1.115.837.279 0 .836-.837 1.115-.837.419 0 1.394.837 1.534.697Z"/><path fill="#F1B517" fill-rule="evenodd" stroke="#000" stroke-width=".279" d="M250.138 184.12c-.836.139-.976 1.115-.697 2.091-3.625.976-6.971 2.37-10.317 3.346-.139-.697 1.673-2.51 1.673-2.51.418.14.837 1.255.837 1.255 0-2.231 2.23-3.625 2.23-3.625-1.394-.279-5.158 1.395-5.576 1.952 0 0 1.394-.279 1.673 0 0 0-3.068 3.207-3.207 4.183.558.976 5.577 1.812 5.577 1.812 0 .279-1.395 1.394-1.395 1.394 2.092.279 5.159-1.115 5.995-1.951 0 0-2.37-.279-4.182-1.813 0 0 .279.976 0 1.394 0 0-2.788-.836-3.207-1.394 0 0 6.971-1.673 10.317-2.788.14.697.837 1.812 1.673 1.533.419-.139.279-1.115 0-1.952a1.12 1.12 0 0 0 .837.279.953.953 0 0 0 .976-.976.953.953 0 0 0-.976-.976 1.12 1.12 0 0 0-.976.697c-.14-.697-.558-1.951-1.115-1.812zm2.789 2.23c0 .279-.279.419-.558.419a.42.42 0 0 1-.391-.06.42.42 0 0 1-.167-.359c0-.279.279-.557.558-.557s.418.278.418.557z" clip-rule="evenodd"/><path fill="#F1B517" stroke="#000" stroke-width=".279" d="M359.999 188.441c.279-.557 0-3.067 0-3.067-.697 0-1.394.976-1.394.976.697-2.231-1.115-5.577-1.115-5.577 1.255.14 5.437 4.183 5.577 5.019 0 0-1.813-.697-2.092-.557.419 2.091 1.813 3.067 2.37 4.182 0 0-2.37.418-2.23 2.51h-1.534c-.557-.697.14-1.813.14-1.813l-10.736-4.461c-.697-.279-2.23-1.115-1.952-1.952.14-.697 2.789.418 3.347.697z"/><path fill="#F1B517" stroke="#000" stroke-width=".279" d="m349.683 186.49 1.394-2.231c.418-.697-.558-1.394-1.255-.558l-1.394 2.092c-.558 1.254.697 1.533 1.394.697z"/><path fill="#fff" stroke="#000" stroke-width=".261" d="m274.085 191.892-.087-2.614-3.05.261-.175 2.701z"/><path fill="#fff" stroke="#000" stroke-width=".261" d="m251.602 195.464-4.095-2.353c16.905 1.569 20.39-4.357 24.486-4.618 2.614-.261 2.875 2.788-2.005 1.307l1.307 3.137s-12.024 6.797-23.875 4.008zm73.893-3.573.087-2.614 3.747.175.174 2.701z"/><path fill="#fff" stroke="#000" stroke-width=".261" d="m348.761 194.854 3.921-2.178c-19.518.61-15.074-3.137-24.747-4.183-2.614-.348-4.356 2.963 1.917 1.307l-1.22 3.137h3.05c6.623 4.357 15.511 4.793 21.436 3.399z"/><path fill="#fff" stroke="#000" stroke-width=".261" d="M269.988 189.888v4.357s10.718 4.008 29.975 4.008c19.345 0 29.975-4.008 29.975-4.008v-4.357s-8.103 3.747-29.975 3.747c-21.784 0-29.975-3.747-29.975-3.747Z"/><path fill="#000001" d="m271.557 194.245.958-3.224.436.174-.872 2.788 1.743.436-.174.436zm3.137-1.395v-.61l.174-.61.523.175-.175.523-.261.61zm4.618-.261.436.174-.349 1.83-.349.871a1.05 1.05 0 0 1-.435.349h-.872a1.74 1.74 0 0 1-.784-.349.87.87 0 0 1-.348-.522l.087-.872.435-1.917.436.087-.436 1.917a1.9 1.9 0 0 0 0 .698c.019.132.08.254.175.348l.435.174h.872l.348-.871zm.523 3.485.522-3.224h.523l1.307 2.963.436-2.614h.436l-.523 3.398-.436-.087-1.394-2.875-.436 2.614zm3.485.61.523-3.311h.436l-.436 3.311h-.523m1.394-1.481c0-.523.262-.958.61-1.22.349-.265.784-.39 1.22-.348.349 0 .61.087.872.261l.435.697c.175.262.175.61.087.871a1.9 1.9 0 0 1-.261.872 1.5 1.5 0 0 1-.697.61 1.73 1.73 0 0 1-.871.087 1.76 1.76 0 0 1-.872-.261 1.5 1.5 0 0 1-.436-.698 1.8 1.8 0 0 1-.087-.871m.436 0c0 .436 0 .871.261 1.046.175.261.436.435.785.435.348 0 .61 0 .871-.261.261-.174.349-.523.436-.871a1.65 1.65 0 0 0 0-.872 1.05 1.05 0 0 0-.436-.435 1.13 1.13 0 0 0-.61-.262c-.261 0-.61 0-.871.262-.175.174-.349.522-.436 1.045zm3.224 2.004.261-3.311h.523l1.569 2.788.174-2.614h.436l-.262 3.399h-.435l-1.656-2.789-.174 2.614zm4.88.349.087-3.311 2.353.087v.435l-1.83-.087-.087.959 1.655.087v.436l-1.743-.088v1.569zm2.614.087 1.307-3.311h.523l1.307 3.485h-.523l-.349-1.133h-1.481l-.348 1.046zm.871-1.307h1.22l-.348-.872a8 8 0 0 1-.175-.784l-.174.697-.436.959zm2.701 1.394v-3.311h.523v3.311zm2.179 0v-2.875h-1.133v-.349h2.701v.349h-1.132v2.962zm3.485 0-.261-3.485h.523l.087 2.962h1.743v.349l-2.179.087zm2.266-.174 1.046-3.486h.522l1.743 3.224h-.61l-.436-.871h-1.481l-.261 1.133zm.871-1.482h1.22l-.435-.871-.349-.784a4 4 0 0 1-.087.697zm4.096 1.046-.349-3.311 2.266-.262.087.436-1.83.174v1.046l1.743-.174v.435l-1.656.175.174 1.481zm2.614-1.83a1.75 1.75 0 0 1 .174-1.394c.286-.34.691-.559 1.133-.61l.871.087c.349.087.523.262.697.523l.349.871-.087.872a1.4 1.4 0 0 1-.523.697c-.228.18-.498.299-.784.348a1.74 1.74 0 0 1-.872-.087 1.48 1.48 0 0 1-.697-.523 1.8 1.8 0 0 1-.348-.871zm.436-.087c0 .349.174.697.435.871.262.262.523.262.872.262.348 0 .61-.174.871-.436.174-.261.174-.61.174-1.045a1.75 1.75 0 0 0-.261-.698 1.13 1.13 0 0 0-.523-.435c-.2-.052-.41-.052-.61 0-.349 0-.61.087-.871.348-.087.262-.175.61-.087 1.133m3.572 1.133-.523-3.311 1.482-.262h.697c.174 0 .348 0 .435.175l.262.522c0 .262 0 .436-.174.61-.088.175-.349.349-.61.436q.135.029.261.087l.436.436.871.784h-.61l-.61-.523a6 6 0 0 0-.436-.435 1 1 0 0 0-.261-.175.7.7 0 0 0-.261 0h-.262l-.523.087.349 1.482h-.523zm.174-1.917.872-.174c.183-.025.361-.084.523-.175a.52.52 0 0 0 .261-.523.52.52 0 0 0-.174-.348h-.61l-1.133.087zm5.49-.349h.436c0 .349-.087.697-.262.872a1.73 1.73 0 0 1-.871.522 1.74 1.74 0 0 1-.871 0 1.4 1.4 0 0 1-.698-.522 2.3 2.3 0 0 1-.435-.872 1.9 1.9 0 0 1 0-.871c0-.349.261-.61.435-.784l.785-.349h.871c.349.174.523.349.697.697l-.436.175a1.05 1.05 0 0 0-.435-.436.95.95 0 0 0-.61 0 .87.87 0 0 0-.61.261.96.96 0 0 0-.262.61v.61c.07.253.188.49.349.697.087.175.261.349.523.349h.61a.96.96 0 0 0 .523-.262c.174-.174.261-.435.261-.697m1.22.872-.871-3.224 2.352-.61.175.348-2.005.523.262.959 1.83-.436.174.348-1.917.523.348 1.046 2.092-.523v.349z"/></g><defs><clipPath id="a"><path fill="#fff" d="M0 0h600v300H0z"/></clipPath></defs></svg>