<svg xmlns="http://www.w3.org/2000/svg" width="600" height="300" fill="none"><g clip-path="url(#a)"><path fill="#fff" d="M0 0h600v300H0z"/><path fill="#18C3DF" d="M0 0h600v300H0z"/><path fill="#fff" d="M0 100h600v100H0z"/><path fill="#18C3DF" d="m294.549 152.316 9.341 1.864-3.736-20.5z"/><path fill="#18C3DF" d="m305.758 152.316-9.341 1.864 3.736-20.5z"/><path fill="#18C3DF" d="m298.423 146.999 1.11 9.438 18.39-9.88z"/><path fill="#18C3DF" d="m301.886 157.634-4.663-8.287 20.699-2.79z"/><path fill="#18C3DF" d="m298.422 157.634 4.664-8.287-20.7-2.79z"/><path fill="#18C3DF" d="m301.887 146.999-1.11 9.438-18.39-9.879z"/><path fill="#18C3DF" d="m304.689 149.03-8.656 3.969 15.103 14.394z"/><path fill="#18C3DF" d="m295.62 155.602 6.459-6.984 9.057 18.775z"/><path fill="#18C3DF" d="m304.688 155.602-6.459-6.984-9.056 18.775z"/><path fill="#18C3DF" d="m295.62 149.03 8.655 3.969-15.102 14.394zM386.895 122.636l9.341 1.864-3.737-20.5z"/><path fill="#18C3DF" d="m398.104 122.636-9.342 1.864 3.737-20.5z"/><path fill="#18C3DF" d="m390.767 117.32 1.11 9.438 18.39-9.88z"/><path fill="#18C3DF" d="m394.232 127.954-4.663-8.286 20.699-2.79z"/><path fill="#18C3DF" d="m390.768 127.954 4.663-8.286-20.699-2.79z"/><path fill="#18C3DF" d="m394.231 117.32-1.11 9.438-18.39-9.88z"/><path fill="#18C3DF" d="m397.034 119.35-8.655 3.969 15.102 14.395z"/><path fill="#18C3DF" d="m387.966 125.923 6.459-6.985 9.057 18.776z"/><path fill="#18C3DF" d="m397.034 125.923-6.459-6.985-9.057 18.776z"/><path fill="#18C3DF" d="m387.966 119.35 8.655 3.969-15.102 14.395zM386.895 178.636l9.341 1.864-3.737-20.5z"/><path fill="#18C3DF" d="m398.104 178.636-9.342 1.864 3.737-20.5z"/><path fill="#18C3DF" d="m390.767 173.319 1.11 9.438 18.39-9.88z"/><path fill="#18C3DF" d="m394.232 183.953-4.663-8.286 20.699-2.79z"/><path fill="#18C3DF" d="m390.768 183.953 4.663-8.286-20.699-2.79z"/><path fill="#18C3DF" d="m394.231 173.319-1.11 9.438-18.39-9.88z"/><path fill="#18C3DF" d="m397.034 175.35-8.655 3.969 15.102 14.395z"/><path fill="#18C3DF" d="m387.966 181.922 6.459-6.985 9.057 18.776z"/><path fill="#18C3DF" d="m397.034 181.922-6.459-6.985-9.057 18.776z"/><path fill="#18C3DF" d="m387.966 175.35 8.655 3.969-15.102 14.395zM201.895 122.636l9.341 1.864-3.737-20.5z"/><path fill="#18C3DF" d="m213.104 122.636-9.342 1.864 3.737-20.5z"/><path fill="#18C3DF" d="m205.767 117.32 1.11 9.438 18.39-9.88z"/><path fill="#18C3DF" d="m209.232 127.954-4.663-8.286 20.699-2.79z"/><path fill="#18C3DF" d="m205.768 127.954 4.663-8.286-20.699-2.79z"/><path fill="#18C3DF" d="m209.231 117.32-1.11 9.438-18.39-9.88z"/><path fill="#18C3DF" d="m212.034 119.35-8.655 3.969 15.102 14.395z"/><path fill="#18C3DF" d="m202.966 125.923 6.459-6.985 9.057 18.776z"/><path fill="#18C3DF" d="m212.034 125.923-6.459-6.985-9.057 18.776z"/><path fill="#18C3DF" d="m202.966 119.35 8.655 3.969-15.102 14.395zM201.895 178.636l9.341 1.864-3.737-20.5z"/><path fill="#18C3DF" d="m213.104 178.636-9.342 1.864 3.737-20.5z"/><path fill="#18C3DF" d="m205.767 173.319 1.11 9.438 18.39-9.88z"/><path fill="#18C3DF" d="m209.232 183.953-4.663-8.286 20.699-2.79z"/><path fill="#18C3DF" d="m205.768 183.953 4.663-8.286-20.699-2.79z"/><path fill="#18C3DF" d="m209.231 173.319-1.11 9.438-18.39-9.88z"/><path fill="#18C3DF" d="m212.034 175.35-8.655 3.969 15.102 14.395z"/><path fill="#18C3DF" d="m202.966 181.922 6.459-6.985 9.057 18.776z"/><path fill="#18C3DF" d="m212.034 181.922-6.459-6.985-9.057 18.776z"/><path fill="#18C3DF" d="m202.966 175.35 8.655 3.969-15.102 14.394z"/></g><defs><clipPath id="a"><path fill="#fff" d="M0 0h600v300H0z"/></clipPath></defs></svg>