<svg xmlns="http://www.w3.org/2000/svg" width="600" height="300" fill="none"><g clip-path="url(#a)"><path fill="#DA0000" d="M600 0H0v300h600z"/><path fill="#fff" d="M600 0H0v200h600z"/><path fill="#239F40" d="M600 0H0v100h600z"/><path stroke="#fff" stroke-width="2.877" d="M0 83.048h35.616M1.37 93.836v-5.993h10.959v4.794h10.959v-4.794h-6.85M5.48 92.637h2.74m27.397 0h-6.849v-4.794h10.959m0-5.993v10.787h10.959V81.85m-5.48 0v10.787"/><path stroke="#fff" stroke-width="5.753" d="M0 98.63h24.658m2.74 0h24.657M0 201.37h24.658m2.74 0h24.657"/><path stroke="#fff" stroke-width="2.877" d="M0 207.363h35.616M1.37 218.151v-5.993h10.959v4.794h10.959v-4.794h-6.85M5.48 216.952h2.74m27.397 0h-6.849v-4.794h10.959m0-5.993v10.787h10.959v-10.787m-5.48 0v10.787M54.795 83.048H90.41M56.165 93.836v-5.993h10.959v4.794h10.959v-4.794h-6.85m-10.959 4.794h2.74m27.397 0h-6.849v-4.794h10.959m0-5.993v10.787h10.959V81.85m-5.48 0v10.787"/><path stroke="#fff" stroke-width="5.753" d="M54.795 98.63h24.658m2.74 0h24.657M54.795 201.37h24.658m2.74 0h24.657"/><path stroke="#fff" stroke-width="2.877" d="M54.795 207.363H90.41m-34.246 10.788v-5.993h10.959v4.794h10.959v-4.794h-6.85m-10.959 4.794h2.74m27.397 0h-6.849v-4.794h10.959m0-5.993v10.787h10.959v-10.787m-5.48 0v10.787M109.59 83.048h35.616M110.96 93.836v-5.993h10.959v4.794h10.959v-4.794h-6.85m-10.959 4.794h2.74m27.397 0h-6.849v-4.794h10.959m0-5.993v10.787h10.959V81.85m-5.48 0v10.787"/><path stroke="#fff" stroke-width="5.753" d="M109.59 98.63h24.657m2.74 0h24.658M109.59 201.37h24.657m2.74 0h24.658"/><path stroke="#fff" stroke-width="2.877" d="M109.59 207.363h35.616m-34.246 10.788v-5.993h10.959v4.794h10.959v-4.794h-6.85m-10.959 4.794h2.74m27.397 0h-6.849v-4.794h10.959m0-5.993v10.787h10.959v-10.787m-5.48 0v10.787M164.385 83.048h35.616m-34.246 10.788v-5.993h10.959v4.794h10.958v-4.794h-6.849m-10.959 4.794h2.74m27.397 0h-6.849v-4.794h10.959m0-5.993v10.787h10.959V81.85m-5.48 0v10.787"/><path stroke="#fff" stroke-width="5.753" d="M164.385 98.63h24.657m2.74 0h24.658M164.385 201.37h24.657m2.74 0h24.658"/><path stroke="#fff" stroke-width="2.877" d="M164.385 207.363h35.616m-34.246 10.788v-5.993h10.959v4.794h10.958v-4.794h-6.849m-10.959 4.794h2.74m27.397 0h-6.849v-4.794h10.959m0-5.993v10.787h10.959v-10.787m-5.48 0v10.787M219.178 83.048h35.616m-34.246 10.788v-5.993h10.959v4.794h10.958v-4.794h-6.849m-10.959 4.794h2.74m27.397 0h-6.849v-4.794h10.959m0-5.993v10.787h10.959V81.85m-5.48 0v10.787"/><path stroke="#fff" stroke-width="5.753" d="M219.178 98.63h24.657m2.74 0h24.658M219.178 201.37h24.657m2.74 0h24.658"/><path stroke="#fff" stroke-width="2.877" d="M219.178 207.363h35.616m-34.246 10.788v-5.993h10.959v4.794h10.958v-4.794h-6.849m-10.959 4.794h2.74m27.397 0h-6.849v-4.794h10.959m0-5.993v10.787h10.959v-10.787m-5.48 0v10.787M273.973 83.048h35.616m-34.246 10.788v-5.993h10.958v4.794h10.959v-4.794h-6.849m-10.959 4.794h2.74m27.397 0h-6.849v-4.794h10.959m0-5.993v10.787h10.959V81.85m-5.48 0v10.787"/><path stroke="#fff" stroke-width="5.753" d="M273.973 98.63h24.657m2.74 0h24.657M273.973 201.37h24.657m2.74 0h24.657"/><path stroke="#fff" stroke-width="2.877" d="M273.973 207.363h35.616m-34.246 10.788v-5.993h10.958v4.794h10.959v-4.794h-6.849m-10.959 4.794h2.74m27.397 0h-6.849v-4.794h10.959m0-5.993v10.787h10.959v-10.787m-5.48 0v10.787M328.768 83.048h35.616m-34.247 10.788v-5.993h10.959v4.794h10.959v-4.794h-6.849m-10.959 4.794h2.74m27.397 0h-6.849v-4.794h10.959m0-5.993v10.787h10.959V81.85m-5.48 0v10.787"/><path stroke="#fff" stroke-width="5.753" d="M328.768 98.63h24.657m2.74 0h24.657M328.768 201.37h24.657m2.74 0h24.657"/><path stroke="#fff" stroke-width="2.877" d="M328.768 207.363h35.616m-34.247 10.788v-5.993h10.959v4.794h10.959v-4.794h-6.849m-10.959 4.794h2.74m27.397 0h-6.849v-4.794h10.959m0-5.993v10.787h10.959v-10.787m-5.48 0v10.787M383.562 83.048h35.617m-34.247 10.788v-5.993h10.959v4.794h10.959v-4.794h-6.849m-10.959 4.794h2.74m27.397 0h-6.849v-4.794h10.959m0-5.993v10.787h10.958V81.85m-5.479 0v10.787"/><path stroke="#fff" stroke-width="5.753" d="M383.562 98.63h24.658m2.74 0h24.657M383.562 201.37h24.658m2.74 0h24.657"/><path stroke="#fff" stroke-width="2.877" d="M383.562 207.363h35.617m-34.247 10.788v-5.993h10.959v4.794h10.959v-4.794h-6.849m-10.959 4.794h2.74m27.397 0h-6.849v-4.794h10.959m0-5.993v10.787h10.958v-10.787m-5.479 0v10.787M438.357 83.048h35.617m-34.247 10.788v-5.993h10.959v4.794h10.959v-4.794h-6.849m-10.959 4.794h2.74m27.397 0h-6.849v-4.794h10.958m0-5.993v10.787h10.959V81.85m-5.479 0v10.787"/><path stroke="#fff" stroke-width="5.753" d="M438.357 98.63h24.658m2.74 0h24.657M438.357 201.37h24.658m2.74 0h24.657"/><path stroke="#fff" stroke-width="2.877" d="M438.357 207.363h35.617m-34.247 10.788v-5.993h10.959v4.794h10.959v-4.794h-6.849m-10.959 4.794h2.74m27.397 0h-6.849v-4.794h10.958m0-5.993v10.787h10.959v-10.787m-5.479 0v10.787M493.152 83.048h35.617m-34.247 10.788v-5.993h10.959v4.794h10.959v-4.794h-6.849m-10.959 4.794h2.74m27.397 0h-6.85v-4.794h10.959m0-5.993v10.787h10.959V81.85m-5.479 0v10.787"/><path stroke="#fff" stroke-width="5.753" d="M493.152 98.63h24.658m2.74 0h24.657M493.152 201.37h24.658m2.74 0h24.657"/><path stroke="#fff" stroke-width="2.877" d="M493.152 207.363h35.617m-34.247 10.788v-5.993h10.959v4.794h10.959v-4.794h-6.849m-10.959 4.794h2.74m27.397 0h-6.85v-4.794h10.959m0-5.993v10.787h10.959v-10.787m-5.479 0v10.787M547.947 83.048h35.617m-34.247 10.788v-5.993h10.959v4.794h10.959v-4.794h-6.849m-10.959 4.794h2.739m27.398 0h-6.85v-4.794h10.959m0-5.993v10.787h10.959V81.85m-5.479 0v10.787"/><path stroke="#fff" stroke-width="5.753" d="M547.947 98.63h24.658m2.74 0h24.657M547.947 201.37h24.658m2.74 0h24.657"/><path stroke="#fff" stroke-width="2.877" d="M547.947 207.363h35.617m-34.247 10.788v-5.993h10.959v4.794h10.959v-4.794h-6.849m-10.959 4.794h2.739m27.398 0h-6.85v-4.794h10.959m0-5.993v10.787h10.959v-10.787m-5.479 0v10.787"/><path fill="#DA0000" d="M278.074 184.098a34.7 34.7 0 0 0 24.539-.75c7.852-3.232 14.4-9.231 18.532-16.979s5.593-16.764 4.134-25.518-5.748-16.706-12.137-22.503c4.157 6.487 6.52 14.067 6.825 21.89.304 7.823-1.463 15.582-5.103 22.406-3.64 6.825-9.009 12.446-15.506 16.235-6.498 3.789-13.867 5.596-21.284 5.219"/><path fill="#DA0000" d="M324.733 176.718c5.269-3.211 9.508-8.008 12.175-13.775s3.64-12.244 2.795-18.599-3.47-12.299-7.539-17.071c-4.069-4.771-9.396-8.153-15.299-9.712 4.206 3.335 7.747 7.512 10.42 12.292a43.7 43.7 0 0 1 5.155 15.565 44.4 44.4 0 0 1-.896 16.46 43.2 43.2 0 0 1-6.811 14.84M300 191l-2-42.181 2-33.209a12.6 12.6 0 0 0 4.721 4.18v24.793l-1.609 41.899zM299.199 112.965l.8.792c.814 1.22 2.024 2.083 3.401 2.424a5.5 5.5 0 0 0 4.069-.573c1.244-.71 2.197-1.877 2.679-3.28a6.4 6.4 0 0 0-.066-4.328 5.85 5.85 0 0 1-1.537 3.036 5.36 5.36 0 0 1-2.905 1.568 5.2 5.2 0 0 1-3.235-.461 5.58 5.58 0 0 1-2.406-2.326"/><path fill="#DA0000" d="M321.926 184.098a34.7 34.7 0 0 1-24.539-.75c-7.852-3.232-14.4-9.231-18.532-16.979s-5.593-16.764-4.134-25.518 5.748-16.706 12.137-22.503c-4.157 6.487-6.52 14.067-6.825 21.89-.304 7.823 1.463 15.582 5.103 22.406 3.64 6.825 9.009 12.446 15.506 16.235 6.498 3.789 13.867 5.596 21.284 5.219"/><path fill="#DA0000" d="M275.267 176.718c-5.269-3.211-9.508-8.008-12.175-13.775s-3.64-12.244-2.795-18.599 3.47-12.299 7.539-17.071c4.069-4.771 9.396-8.153 15.299-9.712-4.206 3.335-7.747 7.512-10.42 12.292a43.7 43.7 0 0 0-5.155 15.565 44.4 44.4 0 0 0 .896 16.46 43.2 43.2 0 0 0 6.811 14.84M300 191l2-42.181-2-33.209a12.6 12.6 0 0 1-4.721 4.18v24.793l1.609 41.899zM300.799 112.965l-.8.792c-.814 1.22-2.024 2.083-3.401 2.424a5.5 5.5 0 0 1-4.069-.573c-1.244-.71-2.197-1.877-2.679-3.28a6.4 6.4 0 0 1 .066-4.328 5.85 5.85 0 0 0 1.537 3.036 5.36 5.36 0 0 0 2.905 1.568 5.2 5.2 0 0 0 3.235-.461 5.58 5.58 0 0 0 2.406-2.326"/></g><defs><clipPath id="a"><path fill="#fff" d="M0 0h600v300H0z"/></clipPath></defs></svg>