<svg xmlns="http://www.w3.org/2000/svg" width="600" height="300" fill="none"><g clip-path="url(#a)"><path fill="#fff" d="M0 100h600v100H0z"/><path fill="#CE1126" d="M0 0h600v100H0z"/><path fill="#000001" d="M0 200h600v100H0z"/><path fill="#007A3D" d="M347.679 129.805a5.9 5.9 0 0 1-1.651-1.183c-.354-.592-.118-.592 1.415-.237 2.714.828 4.483.473 6.252-.947l1.534-1.302 1.769.829c1.062.592 2.124.947 2.36.828.825-.236 2.477-2.367 2.359-3.077 0-.828.708-.592 1.18.355.707 1.894-.354 4.142-2.36 4.616-.825.236-1.651.118-3.067-.355-1.651-.592-2.005-.592-2.831 0a6.36 6.36 0 0 1-6.96.473m6.842-6.272a9.5 9.5 0 0 1-1.179-4.734c.117-.71.353-.947.943-.71 1.18.355 1.416 1.183 1.18 3.55 0 2.13-.354 2.722-.944 1.894m-79.743-2.249c-.118 1.539 2.831 5.444 4.129 6.154-.944.355-2.006.237-2.831.592-4.719 4.734-21.706 21.302-24.773 25.326 9.201.237 19.346-.118 27.958-.473 0-6.273 5.898-6.628 9.909-8.876 2.005 3.195 7.077 2.958 7.785 7.811v20.829h-78.446a11.48 11.48 0 0 1-5.287 7.675 11.41 11.41 0 0 1-9.222 1.201c2.359-2.367 6.37-3.314 7.786-6.746 1.179-7.574-2.36-12.19-4.719-16.569a28.3 28.3 0 0 0 8.257-4.26c-2.713 8.284 7.314 7.456 14.628 7.219.236-2.84.118-6.154-2.005-6.627 2.713-1.065 3.185-1.421 7.785-5.208v11.362l54.381-.119c0-3.55.944-9.349-1.887-9.349-2.595 0 0 7.337-2.124 7.337H243.99v-7.1c1.769-1.894 1.533-1.776 13.683-13.965 1.18-1.184 9.791-8.995 17.223-16.214zm105.105-.355c2.949 1.657 5.309 3.787 8.848 4.734-.354 1.538-1.77 2.13-2.124 3.669v31.953c4.011.829 4.955-1.538 6.842-2.722.472 5.089 3.775 10.06 3.539 14.202h-17.105zm-22.885 17.16s6.252-5.325 6.252-5.562v27.812h4.483l-.118-31.126c1.77-1.893 5.426-4.497 6.252-6.39v49.705h-39.4c-.589-10.296-.707-20.947 11.325-18.698v-4.143c-.354-.71-1.062.119-1.18-.828 1.888-1.894 2.477-2.367 7.668-6.864l.118 18.344h4.6zm-14.863 22.013c.826 1.183 3.775 1.183 3.539-.947-.354-1.775-4.129-1.183-3.539.947"/><path fill="#007A3D" d="M227.947 180.931a2.363 2.363 0 0 0 2.359-2.367 2.363 2.363 0 0 0-2.359-2.367 2.363 2.363 0 0 0-2.359 2.367 2.363 2.363 0 0 0 2.359 2.367M302.264 121.047c2.949 1.539 5.308 3.787 8.965 4.734-.472 1.42-1.77 2.012-2.123 3.551v31.953c4.01.829 4.836-1.42 6.723-2.722.59 5.089 3.775 10.178 3.657 14.202h-17.222z"/></g><defs><clipPath id="a"><path fill="#fff" d="M0 0h600v300H0z"/></clipPath></defs></svg>