<svg xmlns="http://www.w3.org/2000/svg" width="600" height="300" fill="none"><path fill="#fff" d="M0 0h600v300H0z"/><path fill="#0038B8" d="M0 35h600v45H0zM0 220h600v45H0z"/><path fill="#0038B8" fill-rule="evenodd" d="m243.205 116.542 56.284 97.948 57.512-97.488z" clip-rule="evenodd"/><path fill="#fff" fill-rule="evenodd" d="m288.906 181.517 10.685 18.148 10.939-18.046z" clip-rule="evenodd"/><path fill="#0038B8" fill-rule="evenodd" d="M243 182.948 299.335 85l57.461 97.539z" clip-rule="evenodd"/><path fill="#fff" fill-rule="evenodd" d="m288.906 117.002 10.684-18.148 10.94 18.097zm-22.391 40.641-11.093 18.404 20.96-.051-9.867-18.404zm-10.889-33.995 21.062.153-10.122 18.557zm77.295 34.251 10.685 18.148-21.318-.256zm10.48-34.251-21.062.153 10.122 18.557zm-58.431 0-14.519 26.276 14.723 25.714 26.992.613 16.359-26.327-15.132-26.583z" clip-rule="evenodd"/></svg>