<svg xmlns="http://www.w3.org/2000/svg" width="600" height="300" fill="none"><g clip-path="url(#a)"><path fill="#fff" d="M0 0h600v300H0z"/><path fill="#000" d="m1.219-.048 597.55 300.055zm0 300.055L598.769-.048z"/><path fill="#CF142B" d="M0-.048v18.073L262.963 149.98 0 281.996v17.949h41.25l258.744-131.398 258.557 131.46h41.437v-18.196L337.025 149.98 599.988 17.963V.014h-41.249L299.994 131.288 41.249-.048z"/><path fill="#CF142B" stroke="maroon" stroke-miterlimit="140.8" stroke-width=".5" d="M325.992 48.321c6.358 25.905 2.825 57.814-26.022 75.593-28.848-17.779-32.38-49.688-26.022-75.593 6.829-6.181 37.796-10.008 52.044 0Z"/><path fill="gold" stroke="#806600" stroke-miterlimit="135.2" stroke-width=".2" d="M285.311 63.628c-.482.01-.961-.07-1.413-.235a3.5 3.5 0 0 1-.824-1.178 6.1 6.1 0 0 1-1.59.118 4.2 4.2 0 0 1-1.236-.706 2.36 2.36 0 0 0 1.295-.53 6.3 6.3 0 0 1-1.472-.295c-.471-.235-.883-.47-1.236-.765.471-.118.942-.118 1.236-.47l-1.413-.178a5 5 0 0 1-1.001-.765c.471 0 .942-.177 1.296-.589a4.8 4.8 0 0 1-1.354-.058 7 7 0 0 1-1.413-.942c.546 0 1.079-.164 1.53-.471l-.353-.59c-.353-.706-1.06-.411-1.59-.647a1.42 1.42 0 0 1-.824-1.06c0-.53.236-1.354 1.413-1.177-.589-.942.059-1.59.707-1.884.588-.235 1.177-.118 1.589.883q.378-.295.824-.47a.88.88 0 0 1 1.06.352v.707c-.176.353-.589.589-.589 1.06-.176.47.295 1.413.295 1.413s2.355 1.883 3.356 2.825l1.648 1.767h2.414l.176 3.885h-2.59z"/><path fill="#377BC8" stroke="#2C5AA0" stroke-miterlimit="135.2" stroke-width=".2" d="M278.895 50.794a1.408 1.408 0 0 1 .412 1.413c.118.176.294.294.589.235a.6.6 0 0 0 .374-.292.58.58 0 0 0 .038-.473c-.236-.177-.295-.648-1.413-.942zm-2.649.294a2.7 2.7 0 0 0-.648.059 1.42 1.42 0 0 1 .942 1.177c.177.06.471.06.589-.058a.59.59 0 0 0 .24-.665.6.6 0 0 0-.123-.219c-.235 0-.471-.294-.942-.294zm-.766 2.473c-.294.059-.706-.236-1.589.47a1.41 1.41 0 0 1 1.354.59c.176 0 .412-.06.53-.236a.59.59 0 0 0-.295-.824Z"/><path fill="gold" stroke="#806600" stroke-miterlimit="135.2" stroke-width=".2" d="M298.558 65.394c-.353-.117-.883-.588-1.295-.588a1.18 1.18 0 0 0-1.001.588 1.06 1.06 0 0 0 .236.883l.765.472c-.262.267-.463.589-.589.942a.95.95 0 0 0 .354.647c.235.294.353.471.706.471q.445.02.883-.059c-.031.218-.011.44.059.648a1.36 1.36 0 0 0 1.236.647.83.83 0 0 0 .707-.353c.176-.235.176-.824.412-1.118l1.119-.942c.471.235.471.706.353 1.177.354-.224.672-.502.942-.824q.218-.51.294-1.06a1.18 1.18 0 0 1 .471 1.178c.343-.194.66-.432.942-.707.227-.36.386-.76.471-1.177.353.412.471.942.294 1.354.389-.25.728-.57 1.001-.942q.173-.458.236-.942c.942.059 1.648-.353 1.648-.824 0-.295-.353-.766-1.118-.942a4 4 0 0 1-.354-.707 1.07 1.07 0 0 1 0-.648c.186-.463.49-.87.883-1.177a11 11 0 0 1 1.649-.883l-.353-1.707-3.827-.59-4.357 1.06c.825.354 2.532 1.59 2.414 2.061 0 .177-.412.353-.589.589-.117.118 0 .47.118.589.118.235.589.294.766.53.117.176.117.47 0 .588-.295.412-1.296.589-1.767.766l-2.355 1.236a3.2 3.2 0 0 1-1.295-.236z"/><path fill="gold" stroke="#806600" stroke-miterlimit="135.2" stroke-width=".2" d="M307.683 60.155s-.059 1.413-.647 1.766a1.07 1.07 0 0 1-.824.059 1.06 1.06 0 0 1-.589-.589l-.177-.647a5.5 5.5 0 0 0-1.354-.413c-.706 0-1.413.177-2.119.354a4.7 4.7 0 0 1 1.589-1.884l2.296-.177z"/><path fill="gold" d="M313.865 50.911c.648-.059 2.002-.353 2.473-.765l.824-.824c-.118 1.354-.824 2.178-2.237 2.767a8.1 8.1 0 0 1-3.65.47 17 17 0 0 1-2.237-.47c.824.824.412 1.413-.589 1.766 0 0 .118-.765-.118-.883-.589-.236-1.413.059-2.061.471a4.06 4.06 0 0 1-1.766.353 4.7 4.7 0 0 1-2.119-.294c-.471-.118-1.354-.766-1.649-.707-.824.118-1.766.236-2.178.825-.118.176-.118.47 0 .706.376.482.925.799 1.531.883a14 14 0 0 0 4.945.177l5.652-1.119c1.766-.294 4.003-.824 5.299-1.118a20.1 20.1 0 0 1 5.239-.59c3.121.06 4.121 1.65 4.062 3.298-.117 1.648-1.942 2.413-3.532 2.943-2.826.825-6.711.354-9.184.236l1.177.942c.471.353.707 1.06 1.178 1.177.765.236 1.884-.235 2.649-.235 1.119-.118 2.944 0 2.944 0 .21-.22.474-.383.765-.471.232-.06.475-.06.707 0 .353.118.588.47.471 1.177.117.118.294.295.588.354h1.001l.942.47-.883.295a1.8 1.8 0 0 0-.412.412c.412 0 .765 0 1.177.177.274.145.515.345.707.588a1.7 1.7 0 0 0-.766.118 3.5 3.5 0 0 0-.47.353s.941-.058 1.295.177l.647.706a4 4 0 0 0-.765 0l-.471.236c.354.177.673.416.942.706.235.236.294.59.353.942a5 5 0 0 0-.647-.353 1.7 1.7 0 0 0-.471 0l.117 1.295c0 .354.589.707.589.942a.59.59 0 0 1-.059.707 1.29 1.29 0 0 1-1.295.412 1.8 1.8 0 0 1-.589-.353q-.225.33-.53.588c-.294.236-.353.236-.765.236a1.18 1.18 0 0 1-.765-.294 2.5 2.5 0 0 1-.412-.943l-.942.177a1.3 1.3 0 0 1-.883-.412.944.944 0 0 1 .176-1.06c.236-.235.942-.294 1.295-.47.364-.188.685-.448.942-.766a23 23 0 0 1-2.237-1.766 15 15 0 0 1-.942-1.236s-2.001.588-2.767.588a15.3 15.3 0 0 1-3.768 0c-2.826 0-4.71-3.885-7.241-4.827a2.95 2.95 0 0 0-1.943 0c-2.944.588-6.123 4.003-9.007 4.71-1.237.235-2.532.353-3.768.412a3.3 3.3 0 0 1-.766 1 4.2 4.2 0 0 1-1.53.295 4.9 4.9 0 0 1-.589 1.354c-.347.32-.745.578-1.178.765a1.94 1.94 0 0 0 0-1.354 5.3 5.3 0 0 1-.883 1.178q-.614.39-1.295.647c.118-.353.294-.765 0-1.236a4.5 4.5 0 0 1-.706 1.06c-.354.294-.766.47-1.178.588a1.4 1.4 0 0 0 0-1.354 4 4 0 0 1-.706 1.119 7.2 7.2 0 0 1-1.531.765 2.17 2.17 0 0 0 .235-1.413h-.706c-.883 0-.942.766-1.354 1.119a1.59 1.59 0 0 1-1.413.235c-.471-.235-1.001-.824-.294-1.766-1.178.118-1.767-.589-1.767-1.295 0-.589.177-1.119 1.413-1.06a2.4 2.4 0 0 1-.117-.824.823.823 0 0 1 .883-.706c.235 0 .471.176.706.353.236.235.295.647.707.942.471.353 1.589.294 1.589.294a30 30 0 0 1 3.65-1.648c.766-.236 2.944-.59 2.944-.59v-5.474a51 51 0 0 1 7.654.647l3.061-.176s4.945-.766 7.3-1.001a24 24 0 0 1 3.591-.118c1.767.118 3.297.53 5.064.589 1.236.176 2.531.235 3.767.176 2.061-.117 5.711 0 6.889-1.766a1.177 1.177 0 0 0-.354-1.53 1.83 1.83 0 0 0-1.766-.471c-.471.058-.942.353-1.001.706a.83.83 0 0 0 .177.648c.118.235.353.412.647.53-.439.07-.89.01-1.295-.177a3.8 3.8 0 0 1-.824-1.295 1.18 1.18 0 0 0-.294.883c0 .353.117.706.412.942a2.47 2.47 0 0 1-1.413-.471 4 4 0 0 1-.53-1.295c-.273.241-.441.579-.471.942 0 .353.177.588.294 1a2.95 2.95 0 0 1-1.295-.706 3.8 3.8 0 0 1-.412-1.295l-5.299 1.06-5.592.941a14.1 14.1 0 0 1-6.653-.47c-.942-.472-1.413-.766-1.649-1.59a1.9 1.9 0 0 1 .589-1.59 5.77 5.77 0 0 1 2.944-1.53 45 45 0 0 1 5.181-.942 19.8 19.8 0 0 1 5.593.235c.824.118 1.766-.059 1.942-.353.236-.236.589-.471.118-1.06.471 0 .824.294 1.06.707.176.235 0 .941 0 .941z"/><path stroke="#806600" stroke-miterlimit="135.2" stroke-width=".2" d="M313.865 50.911c.648-.059 2.002-.353 2.473-.765l.824-.824c-.118 1.354-.824 2.178-2.237 2.767a8.1 8.1 0 0 1-3.65.47 17 17 0 0 1-2.237-.47c.824.824.412 1.413-.589 1.766 0 0 .118-.765-.118-.883-.589-.236-1.413.059-2.061.471a4.06 4.06 0 0 1-1.766.353 4.7 4.7 0 0 1-2.119-.294c-.471-.118-1.354-.766-1.649-.707-.824.118-1.766.236-2.178.825-.118.176-.118.47 0 .706.376.482.925.799 1.531.883a14 14 0 0 0 4.945.177l5.652-1.119c1.766-.294 4.003-.824 5.299-1.118a20.1 20.1 0 0 1 5.239-.59c3.121.06 4.121 1.65 4.062 3.298-.117 1.648-1.942 2.413-3.532 2.943-2.826.825-6.711.354-9.184.236l1.177.942c.471.353.707 1.06 1.178 1.177.765.236 1.884-.235 2.649-.235 1.119-.118 2.944 0 2.944 0 .21-.22.474-.383.765-.471.232-.06.475-.06.707 0 .353.118.588.47.471 1.177.117.118.294.295.588.354h1.001l.942.47-.883.295a1.8 1.8 0 0 0-.412.412c.412 0 .765 0 1.177.177.274.145.515.345.707.588a1.7 1.7 0 0 0-.766.118 3.5 3.5 0 0 0-.47.353s.941-.058 1.295.177l.647.706a4 4 0 0 0-.765 0l-.471.236c.354.177.673.416.942.706.235.236.294.59.353.942a5 5 0 0 0-.647-.353 1.7 1.7 0 0 0-.471 0l.117 1.295c0 .354.589.707.589.942a.59.59 0 0 1-.059.707 1.29 1.29 0 0 1-1.295.412 1.8 1.8 0 0 1-.589-.353c-.117.235-.294.412-.53.588a1.05 1.05 0 0 1-.765.295 1.18 1.18 0 0 1-.765-.353 2.5 2.5 0 0 1-.412-.943l-.942.177a1.3 1.3 0 0 1-.883-.412.945.945 0 0 1 .176-1.06c.236-.235.942-.294 1.295-.47.364-.188.685-.448.942-.766a23 23 0 0 1-2.237-1.766 15 15 0 0 1-.942-1.236s-2.001.588-2.767.588a15.3 15.3 0 0 1-3.768 0c-2.826 0-4.71-3.885-7.241-4.827a2.95 2.95 0 0 0-1.943 0c-2.944.588-6.123 4.003-9.007 4.71-1.237.235-2.532.353-3.768.412a3.3 3.3 0 0 1-.766 1 4.2 4.2 0 0 1-1.53.295 4.9 4.9 0 0 1-.589 1.354c-.347.32-.745.578-1.178.765a1.94 1.94 0 0 0 0-1.413 5.3 5.3 0 0 1-.883 1.178q-.61.421-1.295.706c.118-.353.294-.765 0-1.236a4.5 4.5 0 0 1-.706 1.06c-.354.294-.766.47-1.178.588a1.4 1.4 0 0 0 0-1.354 4 4 0 0 1-.706 1.119 7.2 7.2 0 0 1-1.531.765 2.17 2.17 0 0 0 .235-1.413h-.706c-.883 0-.942.766-1.354 1.119a1.59 1.59 0 0 1-1.413.235c-.471-.235-1.001-.824-.294-1.766-1.178.118-1.767-.589-1.767-1.295 0-.589.177-1.119 1.413-1.06a2.4 2.4 0 0 1-.117-.824.823.823 0 0 1 .883-.706c.235 0 .471.176.706.353.236.235.295.647.707.942.471.353 1.589.294 1.589.294a30 30 0 0 1 3.65-1.648c.766-.236 2.944-.59 2.944-.59v-5.474a51 51 0 0 1 7.654.647l3.061-.176s4.945-.766 7.3-1.001a24 24 0 0 1 3.591-.118c1.767.118 3.297.53 5.064.589 1.236.176 2.531.235 3.767.176 2.061-.117 5.711 0 6.889-1.766a1.177 1.177 0 0 0-.354-1.53 1.83 1.83 0 0 0-1.766-.471c-.471.058-.942.353-1.001.706 0 .236 0 .471.177.589.176.235.353.412.647.588 0 0-1 0-1.412-.235a2.7 2.7 0 0 1-.707-1.236 1.18 1.18 0 0 0-.294.883c0 .353.117.706.412.942a2.47 2.47 0 0 1-1.413-.471 4 4 0 0 1-.53-1.295c-.273.241-.441.579-.471.942 0 .353.177.588.294 1a2.95 2.95 0 0 1-1.295-.706 3.8 3.8 0 0 1-.412-1.295l-5.299 1.06-5.592.941a12.95 12.95 0 0 1-6.653-.588c-.942-.354-1.413-.648-1.649-1.472a1.89 1.89 0 0 1 .589-1.649 5.77 5.77 0 0 1 2.944-1.471 45 45 0 0 1 5.181-.942 19.8 19.8 0 0 1 5.534.235c.824.118 1.766-.059 2.001-.353.236-.236.589-.471.059-1.06a1.18 1.18 0 0 1 1.06.707c.177.235 0 .941 0 .941z"/><path fill="gold" d="M292.67 58.506c.588.412 1.177-.059 1.295-.118a1.5 1.5 0 0 1-.471-.647 4.2 4.2 0 0 1-.118-1.178c0-.942.353-1.118.353-1.06.329-.099.646-.237.942-.411a1.4 1.4 0 0 0 .412-.883 3 3 0 0 0-.117-1.12c-.942 0-1.178.06-1.413.354a4.3 4.3 0 0 0-.118-.942 2.8 2.8 0 0 0-.353-.706 1.3 1.3 0 0 0-.295-.354c0 .295-.235.471-.353.648a3.9 3.9 0 0 0-.353-1.236 3.7 3.7 0 0 0-.707-.589 3.7 3.7 0 0 0-.883.118 3.9 3.9 0 0 0-.942.942 1.4 1.4 0 0 1 .059-.766c-.118 0-.294 0-.471.118a2.8 2.8 0 0 0-.647.412 4.2 4.2 0 0 0-.589.707c0-.412-.236-.59-1.001-1.119a3 3 0 0 0-.707.942 1.4 1.4 0 0 0-.117.942c.117.353.353.589.588.883 0-.059.236.294-.294 1.06a4.3 4.3 0 0 1-.765.883 1.53 1.53 0 0 1-.766.294c.177.53.236.766 1.06.883-1.766 1.296-2.002 3.356-.589 5.122.139-.315.317-.612.53-.883.021.562.228 1.1.589 1.53.118.178.235 1.178.471 1.414l.589.589s.176-.766.53-.883l1.177-.354c.53-.176 1.236-1.118 1.236-1.118l-.117 1.177c2.355-.824 2.943-2.472 2.355-4.65"/><path fill="#504416" d="M288.078 55.621a4.8 4.8 0 0 1-.471 2.355l1.472.589 1.59.236c-.177-.648.471-1.884.765-2.238h-1.118l-.471-.47-.942.176z"/><path fill="#fff" d="M288.313 55.975a1.9 1.9 0 0 0 0 1.177l.471-.942zm2.238.706-.118 1.06c.296-.264.503-.614.588-1.001zm-2.238.765a1.9 1.9 0 0 0-.588 1.001h.529zm1.943.53-.412.942.353.236c.145-.377.166-.79.059-1.178m-1.766-5.063c-.294 0-.471.118-.589.353 0 .236.177.59.589.707a.82.82 0 0 0 1.001-.412c.118-.295-.236-.471-.707-.589a1.5 1.5 0 0 0-.294-.059m3.179.942c-.235 0-.353 0-.471.236a.83.83 0 0 0 .648.824c.471.176.824 0 .942-.295.059-.353-.236-.588-.589-.706z"/><path fill="#D1B948" d="M288.489 52.795q-.151.005-.294.06a.47.47 0 0 0-.353.353c0 .176 0 .353.118.53.117.176.353.294.529.353.471.117.942 0 1.06-.471a.41.41 0 0 0-.118-.471 1.7 1.7 0 0 0-.588-.236 1.5 1.5 0 0 0-.354-.118m0 .236q.147-.015.295 0l.471.235c.176 0 .235.236.176.295a.704.704 0 0 1-.883.412.83.83 0 0 1-.471-.353.47.47 0 0 1 0-.354.35.35 0 0 1 .177-.235zm3.18.706h-.118a.41.41 0 0 0-.412.295.8.8 0 0 0 .155.62.82.82 0 0 0 .551.322c.177.118.471.118.589 0a.38.38 0 0 0 .353-.353.464.464 0 0 0-.059-.471 1.18 1.18 0 0 0-.588-.295zm0 .177.471.059c.176 0 .353.177.471.235.058.118.117.236.058.413a.47.47 0 0 1-.294.294h-.53a.7.7 0 0 1-.583-.544.7.7 0 0 1-.006-.28c0-.118.118-.118.295-.177z"/><path fill="gold" d="M288.549 52.266a.77.77 0 0 0-.589.117c-.118.118-.118.413-.118.413h.236l.412.059.765.353h.883l-.706-.412c-.295-.118-.589-.471-.942-.59zm4.121 1.177c-.354-.117-.648 0-.942 0l-.825-.059.707.471.883.118.353.118.236.176.176-.353a.77.77 0 0 0-.588-.47m-5.063 4.534c-.766 2.06 2.354 3.06 2.825.824a6.5 6.5 0 0 1-2.825-.825"/><path fill="#806600" d="m287.608 57.8-.118.176a1.59 1.59 0 0 0 0 1.413 1.649 1.649 0 0 0 3.179-.47v-.236h-.177a6.3 6.3 0 0 1-2.826-.766zm.058.235c.9.47 1.878.769 2.885.883a1.9 1.9 0 0 1-.647 1.001c-.408.178-.862.22-1.296.118a2.07 2.07 0 0 1-.942-.824 1.53 1.53 0 0 1 0-1.119z"/><path fill="#377BC8" stroke="#2C5AA0" stroke-miterlimit="135.2" stroke-width=".2" d="M288.961 56.21a8.94 8.94 0 0 0-.471 4.24c.941-1.06 1.412-2.473 1.766-3.769 0-.117-.236-.176-.295-.235l-.235-.353a2 2 0 0 1-.412.235 1.2 1.2 0 0 1-.353-.059z"/><path fill="gold" d="M291.374 50.205q-.452.035-.883.177a3.9 3.9 0 0 0-.942.942 1.4 1.4 0 0 1 0-.765c-.118 0-.294 0-.412.117a2.8 2.8 0 0 0-.706.413 4.2 4.2 0 0 0-.589.647c.235 0 .942-.589 1.177-.53.236 0 .118.589.295.648.294 0 .588-.471.942-.707.259-.249.587-.413.942-.47a1.408 1.408 0 0 1 .588.942c.177.47.295.941.53 1.118.177.059.354-.471.589-.471.294.118.412 1 .648 1.178a4.3 4.3 0 0 0-.118-.943 2.8 2.8 0 0 0-.412-.706 1.3 1.3 0 0 0-.295-.353c0 .235-.235.47-.353.647a3.9 3.9 0 0 0-.294-1.236 3.6 3.6 0 0 0-.707-.589zm-3.826 3.356c-.354.589 0 1.178.706 1.236l-.235.648.353.766.706.235.589-.235.53.588.589.118.765-.471.294-.53h.471l.471-.235.118-.53a1.35 1.35 0 0 1-1.531.235c.012.303-.094.598-.294.825a.6.6 0 0 1-.589.117 1.35 1.35 0 0 1-.706-.589c-.295.177-.471.354-.707.295a.83.83 0 0 1-.588-.589.94.94 0 0 1 .294-.824c-1.413-.412-.942-.824-1.295-1.06zm-.766.177a11.7 11.7 0 0 1-1.177 1.648 1.53 1.53 0 0 1-.766.295c.177.53.236.765 1.06.883-1.766 1.295-2.002 3.355-.589 5.122q.21-.476.53-.883c.021.561.228 1.1.589 1.53.118.177.235 1.178.471 1.413l.589.589s.176-.765.53-.883l1.177-.353c.53-.177 1.236-1.119 1.236-1.119l-.059 1.178c2.355-.825 2.944-2.473 2.297-4.651.588.412 1.177-.06 1.295-.118a1.53 1.53 0 0 1-.471-.707 4.6 4.6 0 0 1-.118-1.177l-.118-.648-.294 1.001v1.06a3.2 3.2 0 0 1-1.119-.589q.313 1.162.471 2.355c0 .53-.059 1.06-.235 1.59a4.1 4.1 0 0 1-1.001 1q.13-.7.177-1.413c0-.47-.236-1.766-.236-1.766a9.7 9.7 0 0 1-.471 1.767l-.765 1.177c.176-1.236.117-1.295-.059-1.766 0 0-.294 1.53-.883 2.178q-.446.289-.942.471c-.187.07-.351.193-.471.353l-.353-1.06a12 12 0 0 1-.707-1.412c-.177-.707.765-2.12.765-2.12-.353 0-.706.412-1.118.824q-.416.508-.765 1.06a9.3 9.3 0 0 1-.295-1.413c.023-.46.165-.907.412-1.295a12.7 12.7 0 0 1 2.002-1.943 2.65 2.65 0 0 1-1.766 0s.765-.765.824-.942c.213-.357.334-.762.353-1.177zm3.062.706h-.766v.353l.354.118.47.589 1.001-.294.177-.236a3.8 3.8 0 0 0-.942-.53 1.5 1.5 0 0 0-.294 0"/><path stroke="#806600" stroke-miterlimit="135.2" stroke-width=".2" d="M292.67 58.507c.588.412 1.177-.06 1.295-.118a1.5 1.5 0 0 1-.471-.648 4.2 4.2 0 0 1-.118-1.177c0-.942.353-1.119.353-1.06.329-.1.646-.238.942-.412a1.4 1.4 0 0 0 .412-.883 3 3 0 0 0-.117-1.119c-.942 0-1.178.06-1.413.353a4.3 4.3 0 0 0-.118-.941 2.8 2.8 0 0 0-.353-.707 1.3 1.3 0 0 0-.295-.353c0 .294-.235.47-.353.647a2.36 2.36 0 0 0-1.06-1.884c-.824 0-1.295.471-1.884 1.06a1.4 1.4 0 0 1 .118-.706c-.163.009-.323.049-.471.117a2.8 2.8 0 0 0-.647.413q-.333.32-.589.706c0-.412-.236-.589-1.001-1.119a3 3 0 0 0-.707.942 1.4 1.4 0 0 0-.117.942c.117.354.353.59.588.883 0-.058.236.295-.294 1.06a4.3 4.3 0 0 1-.765.883 1.53 1.53 0 0 1-.766.295c.177.53.236.765 1.06.883-1.766 1.295-2.002 3.355-.589 5.122q.21-.476.53-.883c.021.561.228 1.1.589 1.53.118.177.235 1.178.471 1.413l.589.589s.176-.765.53-.883l1.177-.353c.53-.177 1.236-1.119 1.236-1.119l-.117 1.178c2.355-.825 2.943-2.473 2.355-4.651Z"/><path fill="#806600" d="M286.9 51.383a1.9 1.9 0 0 0-.353.942c.143.362.342.7.589 1l.235-1.412c0-.236-.471-.59-.471-.59zm1.236 1.236a.5.5 0 0 0-.176.059c-.118.118-.236.118-.353.353l.471-.235a.23.23 0 0 1 .176 0c.236.235.471.294.707.412.369.073.749.073 1.118 0q-.022.244-.117.47s-.413.119-.589.295q-.091.116-.177.236a.6.6 0 0 0-.176.176v.471h.117c.236.06.471.295.471.589l.118.118a.3.3 0 0 0 .177 0h.235c.177-.177.471-.236.765-.177h.059l.059-.059c.118-.117.118-.176.118-.353v-.177a5 5 0 0 0-.059-.353l-.235-.589.058-.53c.264.297.584.537.942.707l.825.059.176.118.295.353c0-.177 0-.353-.118-.471-.059-.118-.177-.118-.294-.118-.236-.117-.589 0-.766-.117a2.36 2.36 0 0 1-.883-.59l-.177-.117-.058.118-.177.706.235.707q.042.204.059.412v.059a1.3 1.3 0 0 0-1 .294h-.059c-.139-.33-.389-.6-.707-.765v-.177l.059-.118.236-.176c.117-.177.471-.295.588-.471.118-.177.177-.412.177-.589v-.236h-.177c-.337.13-.702.17-1.059.118l-.707-.353a.5.5 0 0 0-.177 0zm-.588.824a.94.94 0 0 0-.177 1.001c.177.236.412.412.707.471l-.059.118-.118.47c.059.354.235.59.471.825.214.176.489.26.765.236.175-.038.337-.119.471-.236l.354.471c.223.155.497.218.765.177a1.06 1.06 0 0 0 1.06-.883v-.06a.94.94 0 0 0 .824-.117c.235-.235.412-.589.412-.942-.236.177 0 .471-.589.824a.65.65 0 0 1-.647 0l-.236-.176v.588a1.3 1.3 0 0 1-.177.295 1.08 1.08 0 0 1-.706.294.83.83 0 0 1-.471-.118 1.2 1.2 0 0 1-.353-.47v-.295l-.177.177-.294.176a.8.8 0 0 1-.295.06.82.82 0 0 1-.529-.178 1.17 1.17 0 0 1-.471-.706l.117-.294a.8.8 0 0 1 .118-.236l.118-.235h-.236a.83.83 0 0 1-.588-.354c-.354-.353 0-.588-.059-.883m7.064.118s-.588 0-.765.236a5.2 5.2 0 0 0-.471 1.354c.341-.149.659-.347.942-.59.19-.298.293-.645.294-1"/><path fill="#2B2200" d="M288.784 53.09a.353.353 0 0 0-.118.648.36.36 0 0 0 .35.078.36.36 0 0 0 .238-.267.353.353 0 0 0-.47-.4zm3.179.942a.356.356 0 0 0-.213.439.36.36 0 0 0 .259.237.36.36 0 0 0 .341-.11.35.35 0 0 0 .07-.351.35.35 0 0 0-.272-.232.35.35 0 0 0-.185.017"/><path fill="#377BC8" stroke="#2C5AA0" stroke-miterlimit="135.2" stroke-width=".2" d="M276.538 63.922c-.294.177-.706-.117-1.589.59a1.41 1.41 0 0 1 1.413.588c.176 0 .412-.118.471-.353a.59.59 0 0 0-.295-.824Zm19.958.942c-.294.177-.706-.117-1.589.59a1.41 1.41 0 0 1 1.413.588.59.59 0 0 0 .471-.294.588.588 0 0 0-.295-.884Zm-21.43 1.178c-.235.177-.706.118-1.236 1.118a1.41 1.41 0 0 1 1.531 0 .73.73 0 0 0 .294-.588.59.59 0 0 0-.589-.589zm21.783 1.53c-.235.236-.706.177-1.118 1.178a1.41 1.41 0 0 1 1.472-.118c.235-.059.294-.294.294-.47a.58.58 0 0 0-.212-.465.59.59 0 0 0-.494-.124zm-20.37.766a.8.8 0 0 0-.353.118c-.118.294-.53.47-.471 1.59a1.41 1.41 0 0 1 1.295-.766c.118-.177.177-.412 0-.589a.58.58 0 0 0-.471-.353Zm43.449.177h-.295c-.059.294-.588.47-.647 1.59a1.41 1.41 0 0 1 1.413-.59c.117-.235.117-.47.117-.647a.59.59 0 0 0-.588-.353Zm-20.724.706a.77.77 0 0 0-.353.177c0 .294-.471.47-.294 1.59a1.41 1.41 0 0 1 1.177-.825c.118-.236.118-.471 0-.589a.58.58 0 0 0-.471-.353zm25.787.118a.59.59 0 0 0-.589.353c.118.294-.177.707.471 1.59a1.42 1.42 0 0 1 .648-1.355.59.59 0 0 0-.295-.588.8.8 0 0 0-.235 0Zm-2.826.353c-.118 0-.236.059-.412.236 0 .235-.354.588.059 1.648a1.41 1.41 0 0 1 1-1.177.59.59 0 0 0-.176-.59.6.6 0 0 0-.471-.117Z"/><path fill="gold" stroke="#806600" stroke-miterlimit="128.6" stroke-width=".2" d="M285.369 84.823c-.438.019-.877-.04-1.295-.177a3.4 3.4 0 0 1-.883-1.06 5.3 5.3 0 0 1-1.472 0 4 4 0 0 1-1.177-.589 2.24 2.24 0 0 0 1.236-.588 6 6 0 0 1-1.413-.177 6.6 6.6 0 0 1-1.177-.765c.412-.118.883-.118 1.177-.471a5.2 5.2 0 0 1-1.236-.177 4.7 4.7 0 0 1-1.06-.706 1.7 1.7 0 0 0 1.295-.59 4.6 4.6 0 0 1-1.354-.117 6.6 6.6 0 0 1-1.295-.883c.495.02.985-.103 1.413-.353l-.294-.589c-.354-.706-1.06-.47-1.531-.648a1.29 1.29 0 0 1-.765-.942c-.059-.53.176-1.295 1.354-1.177-.589-.824 0-1.472.588-1.766.589-.236 1.178-.118 1.531.824.249-.198.527-.357.824-.47a.824.824 0 0 1 .942.352.75.75 0 0 1 0 .707c-.117.294-.471.47-.588.942-.118.47.353 1.413.353 1.413s2.237 1.766 3.238 2.708l1.53 1.59h2.238l.176 3.709z"/><path fill="#377BC8" stroke="#2C5AA0" stroke-miterlimit="128.6" stroke-width=".2" d="M279.247 72.636a1.41 1.41 0 0 1 .353 1.354c.177.235.354.235.589.235a.59.59 0 0 0 .353-.706c-.235-.236-.235-.589-1.295-.883Zm-2.472.294a2.6 2.6 0 0 0-.707 0 1.41 1.41 0 0 1 .942 1.177.59.59 0 0 0 .589 0 .592.592 0 0 0 0-.883c-.118 0-.353-.294-.824-.294Zm-.766 2.355c-.294 0-.647-.177-1.53.47a1.42 1.42 0 0 1 1.295.59c.235 0 .471-.118.53-.295a.59.59 0 0 0-.295-.765Z"/><path fill="gold" stroke="#806600" stroke-miterlimit="128.6" stroke-width=".2" d="M297.969 86.589c-.353-.118-.824-.648-1.236-.648a1.17 1.17 0 0 0-.942.589 1 1 0 0 0 .235.824l.707.53a2.5 2.5 0 0 0-.471.824.8.8 0 0 0 .074.357c.05.112.126.212.22.29.236.295.236.413.707.472q.355.004.706-.06c0 .178 0 .472.177.59a1.3 1.3 0 0 0 1.118.588c.295 0 .589-.059.707-.294.118-.236.118-.824.353-1.06l1.06-.942c.471.295.412.648.353 1.119.327-.191.625-.43.883-.707.165-.352.264-.73.294-1.118a1.17 1.17 0 0 1 .471 1.177 4.3 4.3 0 0 0 .942-.706l.413-1.001a1.3 1.3 0 0 1 .235 1.177c.371-.251.691-.57.942-.942q.191-.396.294-.824c.942 0 1.472-.353 1.531-.765 0-.294-.353-.766-1.06-.883q-.243-.331-.412-.707a.95.95 0 0 1 0-.647c.198-.424.502-.789.883-1.06a10.3 10.3 0 0 1 1.59-.942l-.353-1.53-3.65-.59-4.122 1.001c.766.354 2.414 1.531 2.355 2.002-.117.118-.53.294-.647.471-.118.236 0 .471.117.589.177.294.589.353.707.53a.47.47 0 0 1 0 .588c-.236.412-1.178.53-1.648.707l-2.238 1.177a3.1 3.1 0 0 1-1.295-.235z"/><path fill="gold" stroke="#806600" stroke-miterlimit="128.6" stroke-width=".2" d="M306.682 81.526s-.059 1.354-.589 1.648a1 1 0 0 1-.883.177 1.06 1.06 0 0 1-.471-.648l-.177-.588a5.3 5.3 0 0 0-1.354-.413 7.8 7.8 0 0 0-1.942.354c.314-.7.8-1.307 1.413-1.767l2.237-.176z"/><path fill="gold" d="M312.569 72.753c.589-.059 1.884-.353 2.355-.706l.706-.766c-.059 1.178-.706 2.002-2.119 2.59a7.7 7.7 0 0 1-3.474.413 16 16 0 0 1-2.06-.471c.765.883.353 1.413-.589 1.766 0 0 .177-.765-.118-.883-.589-.236-1.295.118-2.001.47a3.8 3.8 0 0 1-1.649.354 5.4 5.4 0 0 1-2.002-.294c-.471-.118-1.295-.766-1.589-.707-.765.177-1.649.236-2.061.825a.65.65 0 0 0 0 .706c.382.425.905.697 1.472.765a12.7 12.7 0 0 0 4.71.177c1.648-.236 3.65-.707 5.299-1l5.18-1.178c1.624-.351 3.286-.49 4.946-.412 2.943 0 3.885 1.471 3.826 3.002-.117 1.649-1.884 2.355-3.414 2.826-2.708.824-6.358.353-8.655.294l1.119.825c.412.353.589 1 1.178 1.177.647.177 1.766-.235 2.472-.294l2.826.059c.118-.177.412-.354.707-.471.194-.042.394-.042.588 0 .354.117.589.47.471 1.118.144.148.329.25.53.294.353.118.765 0 1.001.118l.883.354-.883.353q-.202.152-.353.353a4.5 4.5 0 0 1 1.177.177c.177.117.412.294.589.588a1.6 1.6 0 0 0-.707 0q-.254.184-.471.413s.942-.06 1.296.176l.588.589a3.7 3.7 0 0 0-.706.118 2.3 2.3 0 0 0-.471.176c.35.157.67.377.942.648.169.287.27.61.294.942a4.5 4.5 0 0 0-.588-.353 1.7 1.7 0 0 0-.471 0l.117 1.236c0 .294.471.647.589.883.118.235.059.589-.118.706a1.29 1.29 0 0 1-1.177.354 1.8 1.8 0 0 1-.589-.354 2.8 2.8 0 0 1-.471.59c-.235.235-.412.176-.765.176a1.06 1.06 0 0 1-.766-.236 2.4 2.4 0 0 1-.353-.883l-.883.177a1.18 1.18 0 0 1-.824-.412.94.94 0 0 1 .118-1.001c.235-.294.942-.294 1.295-.471.318-.18.598-.42.824-.707a21 21 0 0 1-2.061-1.707 14 14 0 0 1-.941-1.177l-2.65.588a14.5 14.5 0 0 1-3.532 0c-2.708 0-4.475-3.709-6.888-4.592a2.83 2.83 0 0 0-1.884 0c-2.826.589-5.829 3.768-8.596 4.475a26 26 0 0 1-3.532.412 3.1 3.1 0 0 1-.765.942c-.471.176-.942.294-1.413.294a4.7 4.7 0 0 1-.589 1.236 4 4 0 0 1-1.178.766c.177-.471.236-.883 0-1.296a5 5 0 0 1-.765 1.12q-.556.381-1.177.647c0-.354.176-.766 0-1.178a4.3 4.3 0 0 1-.766 1.001 3.4 3.4 0 0 1-1.118.589 1.42 1.42 0 0 0 0-1.295 3.8 3.8 0 0 1-.648 1c-.439.31-.913.568-1.413.766.177-.471.295-.883.177-1.295h-.648c-.765 0-.824.647-1.236 1a1.53 1.53 0 0 1-1.295.236c-.53-.236-1.001-.824-.354-1.766-1.118.176-1.648-.53-1.648-1.178 0-.53.177-1.06 1.295-1a2.3 2.3 0 0 1-.118-.766.83.83 0 0 1 .883-.589c.236 0 .471 0 .648.236.236.235.294.589.707.942a3.4 3.4 0 0 0 1.53.235 28 28 0 0 1 3.415-1.53c.765-.236 2.826-.59 2.826-.59v-5.121h1.825c1.531 0 5.475.589 5.475.589l2.826-.177s4.71-.706 7.065-.942a23 23 0 0 1 3.355-.118c1.767.06 3.18.471 4.769.589 1.237.118 2.473.177 3.65.118 1.943-.06 5.417 0 6.476-1.766a1.18 1.18 0 0 0-.235-1.355 1.77 1.77 0 0 0-1.766-.47c-.354.058-.883.353-.883.706a.82.82 0 0 0 .117.648l.589.47a2.2 2.2 0 0 1-1.177-.176 3.5 3.5 0 0 1-.766-1.236c-.2.226-.306.522-.294.824a1.303 1.303 0 0 0 .412.942 2.35 2.35 0 0 1-1.354-.471 3.8 3.8 0 0 1-.53-1.237c-.264.224-.432.54-.471.884 0 .353.236.588.353.942a2.8 2.8 0 0 1-1.177-.648 3.6 3.6 0 0 1-.53-1.236l-5.004.942a60 60 0 0 1-5.299.942c-2.708.353-4.71.176-6.358-.471-.883-.354-1.295-.707-1.531-1.413a1.76 1.76 0 0 1 .471-1.59 5.54 5.54 0 0 1 2.826-1.413q2.445-.616 4.945-.942a18.8 18.8 0 0 1 5.299.294c.824.06 1.648-.117 1.884-.353.235-.235.589-.47.118-1.06.412 0 .765.295.942.707.176.236 0 .942 0 .942z"/><path fill="gold" stroke="#806600" stroke-miterlimit="128.6" stroke-width=".2" d="M312.569 72.753c.589-.059 1.884-.353 2.355-.706l.706-.766c-.059 1.178-.706 2.002-2.119 2.59a7.7 7.7 0 0 1-3.474.413 16 16 0 0 1-2.06-.471c.765.883.353 1.413-.589 1.766 0 0 .177-.765-.118-.883-.589-.236-1.295.118-2.001.47a3.8 3.8 0 0 1-1.649.354 5.4 5.4 0 0 1-2.002-.294c-.471-.118-1.295-.766-1.589-.707-.765.177-1.649.236-2.061.825a.65.65 0 0 0 0 .706c.382.425.905.697 1.472.765a12.7 12.7 0 0 0 4.71.177c1.648-.236 3.65-.707 5.299-1l5.18-1.178c1.624-.351 3.286-.49 4.946-.412 2.943 0 3.885 1.471 3.826 3.002-.117 1.649-1.884 2.355-3.414 2.826-2.708.824-6.358.353-8.655.294l1.119.825c.412.353.589 1 1.178 1.177.647.177 1.766-.235 2.472-.294l2.826.059c.118-.177.412-.354.707-.471.194-.042.394-.042.588 0 .354.117.589.47.471 1.118.144.148.329.25.53.294.353.118.765 0 1.001.118l.883.354-.883.353q-.202.152-.353.353a4.5 4.5 0 0 1 1.177.177c.177.117.412.294.589.588a1.6 1.6 0 0 0-.707 0q-.254.184-.471.413s.942-.06 1.296.176l.588.589a3.7 3.7 0 0 0-.706.118 2.3 2.3 0 0 0-.471.176c.35.157.67.377.942.648.169.287.27.61.294.942a4.5 4.5 0 0 0-.588-.353 1.7 1.7 0 0 0-.471 0l.117 1.236c0 .294.471.647.589.883.118.235.059.589-.118.706a1.29 1.29 0 0 1-1.177.354 1.8 1.8 0 0 1-.589-.354 2.8 2.8 0 0 1-.471.59 1 1 0 0 1-.765.293 1.07 1.07 0 0 1-.766-.353 2.4 2.4 0 0 1-.353-.883l-.883.177a1.18 1.18 0 0 1-.824-.412.94.94 0 0 1 .118-1.001c.235-.294.942-.294 1.295-.471.318-.18.598-.42.824-.707a21 21 0 0 1-2.061-1.707 14 14 0 0 1-.941-1.177l-2.65.588a14.5 14.5 0 0 1-3.532 0c-2.708 0-4.475-3.709-6.888-4.592a2.83 2.83 0 0 0-1.884 0c-2.826.589-5.829 3.768-8.596 4.475a26 26 0 0 1-3.532.412 3.1 3.1 0 0 1-.765.942c-.45.183-.928.282-1.413.294a4.7 4.7 0 0 1-.589 1.236 4 4 0 0 1-1.178.766c.177-.471.236-.883 0-1.296a5 5 0 0 1-.765 1.12q-.556.381-1.177.647c0-.354.176-.766 0-1.178a4.3 4.3 0 0 1-.766 1.001 3.4 3.4 0 0 1-1.118.589 1.42 1.42 0 0 0 0-1.295 3.8 3.8 0 0 1-.648 1c-.439.31-.913.568-1.413.766.177-.471.295-.883.177-1.295h-.648c-.765 0-.824.647-1.236 1a1.53 1.53 0 0 1-1.295.236c-.589-.236-1.001-.824-.354-1.766-1.118.176-1.648-.53-1.648-1.178 0-.53.177-1.06 1.295-1a2.3 2.3 0 0 1-.118-.766.83.83 0 0 1 .883-.589c.236 0 .471 0 .648.236.236.235.294.589.707.942a3.4 3.4 0 0 0 1.53.235 28 28 0 0 1 3.415-1.53c.765-.236 2.826-.59 2.826-.59v-5.121h1.825c1.531 0 5.475.589 5.475.589l2.826-.177s4.71-.706 7.065-.942a23 23 0 0 1 3.355-.118c1.767.06 3.18.471 4.769.589 1.237.118 2.473.177 3.65.118 1.943-.06 5.417 0 6.476-1.766a1.18 1.18 0 0 0-.235-1.355 1.77 1.77 0 0 0-1.766-.47c-.354.058-.883.353-.883.706a.709.709 0 0 0 .117.589l.589.53a2.9 2.9 0 0 1-1.295-.236 2.6 2.6 0 0 1-.648-1.177c-.2.226-.306.522-.294.824a1.303 1.303 0 0 0 .412.942 2.35 2.35 0 0 1-1.354-.471 3.8 3.8 0 0 1-.53-1.237c-.264.224-.432.54-.471.884 0 .353.236.588.353.942a2.8 2.8 0 0 1-1.177-.648 3.6 3.6 0 0 1-.53-1.236l-5.004.942a60 60 0 0 1-5.299.942c-2.708.353-4.71.176-6.358-.471-.883-.354-1.295-.707-1.531-1.413a1.76 1.76 0 0 1 .471-1.59 5.54 5.54 0 0 1 2.826-1.413q2.445-.616 4.945-.942a18.8 18.8 0 0 1 5.299.294c.824.06 1.648-.058 1.884-.353.235-.235.589-.47.118-1.06.412 0 .765.295.942.707.176.236 0 .942 0 .942z"/><path fill="gold" d="M292.318 79.995c.589.353 1.177-.118 1.354-.118a1.47 1.47 0 0 1-.471-.706 4 4 0 0 1-.177-1.06c0-.942.295-1.06.354-.942q.439-.187.824-.47c.235-.177.412-.472.471-.766a2.8 2.8 0 0 0-.118-1.119c-.883 0-1.06.118-1.295.354a4 4 0 0 0-.177-.884 2.7 2.7 0 0 0-.294-.706 1.2 1.2 0 0 0-.353-.294c0 .235-.177.47-.354.588a3.8 3.8 0 0 0-.235-1.177.945.945 0 0 0-1.107-.683.94.94 0 0 0-.424.212 3.8 3.8 0 0 0-.942.883 1.3 1.3 0 0 1 .118-.706 1.2 1.2 0 0 0-.471.117q-.322.167-.589.412-.36.287-.647.648c0-.353-.177-.589-.942-1a2.8 2.8 0 0 0-.648.941c-.101.263-.122.55-.059.824q.188.44.471.825c.059 0 .295.235-.235 1a4 4 0 0 1-.707.825c-.235.176-.471.294-.765.294.235.471.294.706 1.06.824-1.767 1.178-1.884 3.18-.589 4.887.118-.295.294-.589.53-.825-.013.53.153 1.049.471 1.472.176.177.294 1.06.471 1.354l.588.59s.177-.766.53-.884l1.178-.353c.449-.261.848-.6 1.177-1.001l-.176 1.06c2.237-.766 2.826-2.355 2.178-4.416"/><path fill="#504416" d="M287.961 77.17a4.6 4.6 0 0 1-.471 2.354l1.531.589 1.413.118c-.118-.59.471-1.767.706-2.12h-1l-.471-.47-.884.176-.824-.589z"/><path fill="#fff" d="M288.196 77.581a1.77 1.77 0 0 0 0 1.119l.412-.942zm2.119.648-.117 1c.292-.242.498-.572.588-.942h-.471zm-2.119.706c-.271.251-.456.58-.53.942l.412.059zm1.884.589-.471.883.412.177a1.77 1.77 0 0 0 0-1.119zm-1.708-4.828c-.294 0-.47.06-.529.236-.059.294.176.588.588.765a.77.77 0 0 0 .942-.353c0-.353-.235-.471-.647-.589zm3.062.825c-.236 0-.353.117-.471.235a.77.77 0 0 0 .589.824c.529.177.765 0 .883-.294s-.118-.53-.589-.648a2 2 0 0 0-.471-.118z"/><path fill="#D1B948" d="M288.373 74.579a.8.8 0 0 0-.236 0 .47.47 0 0 0-.294.353c-.059.176 0 .353.059.47.117.236.294.295.471.354a.82.82 0 0 0 1.059-.47.36.36 0 0 0-.176-.354 1.6 1.6 0 0 0-.589-.294 1.4 1.4 0 0 0-.294 0zm0 .117.294.06.471.235a.236.236 0 0 1 .118.294.71.71 0 0 1-.825.353.83.83 0 0 1-.412-.235.41.41 0 0 1-.117-.412.356.356 0 0 1 .235-.236zm3.061.766a1 1 0 0 0-.118 0 .353.353 0 0 0-.412.294.9.9 0 0 0 .015.325.826.826 0 0 0 .692.617.94.94 0 0 0 .588 0c.118-.118.295-.235.354-.412a.468.468 0 0 0-.177-.471 1.2 1.2 0 0 0-.471-.236 2 2 0 0 0-.471-.117m0 .176.412.06c.177 0 .294.117.471.235l.059.353a.42.42 0 0 1-.294.235.82.82 0 0 1-.471 0 .705.705 0 0 1-.589-.706c0-.177.118-.177.294-.177z"/><path fill="gold" d="M288.431 73.99a.7.7 0 0 0-.589.177c-.117.058-.117.353-.117.353h.353l.294.118.766.294h.824l-.707-.353c-.235-.118-.471-.53-.824-.59m3.886 1.177c-.236-.117-.589.06-.883 0l-.766-.058.707.47.824.118.353.118.236.118.117-.295a.7.7 0 0 0-.588-.47m-4.71 4.357c-.824 1.884 2.237 2.826 2.708.765a6.2 6.2 0 0 1-2.708-.765"/><path fill="#806600" d="M287.49 79.288v.177a1.53 1.53 0 0 0 0 1.354 1.53 1.53 0 0 0 1.659.932 1.53 1.53 0 0 0 1.285-1.403v-.177h-.118a6 6 0 0 1-2.708-.765l-.118-.059zm.118.295c.834.39 1.731.628 2.649.706-.082.389-.289.74-.589 1.001a1.77 1.77 0 0 1-1.177.118 2 2 0 0 1-.942-.825 1.47 1.47 0 0 1 0-1z"/><path fill="#377BC8" stroke="#2C5AA0" stroke-miterlimit="128.6" stroke-width=".2" d="M288.844 77.875a8.5 8.5 0 0 0-.471 3.945c.942-.942 1.413-2.355 1.707-3.592l-.294-.235a4 4 0 0 1-.177-.294 2 2 0 0 1-.412.176 1.2 1.2 0 0 1-.353 0Z"/><path fill="gold" d="M291.14 72.106a3.5 3.5 0 0 0-.824.118 3.7 3.7 0 0 0-.942.883 1.3 1.3 0 0 1 0-.707c-.117 0-.235 0-.353.118-.255.1-.493.24-.706.412a4 4 0 0 0-.589.589c.353 0 1.001-.59 1.177-.471.236 0 0 .588.295.588.294 0 .53-.353.883-.647.294-.295.706-.471.942-.412.269.202.457.495.53.824.117.47.235.942.471 1.06.176.117.353-.471.588-.412.236.117.354.941.589 1.118a4 4 0 0 0-.118-.883 2.7 2.7 0 0 0-.353-.707 1.2 1.2 0 0 0-.294-.294c0 .236-.236.471-.354.589a3.8 3.8 0 0 0-.294-1.178 3.5 3.5 0 0 0-.648-.588m-3.709 3.238c-.294.47.118 1 .766 1.118l-.295.589.413.706.588.236.648-.236.412.59.589.117.765-.471.294-.471h.471l.354-.236.117-.47c-.353.353-.942.47-1.413.235a1.17 1.17 0 0 1-.235.765.6.6 0 0 1-.589.118 1.3 1.3 0 0 1-.647-.53c-.295.118-.471.295-.648.236a.82.82 0 0 1-.589-.589.882.882 0 0 1 .236-.765c-1.413-.412-.942-.766-1.178-.942zm-.706.118a11 11 0 0 1-1.06 1.53c-.235.177-.471.294-.765.294.235.471.294.707 1.06.825-1.767 1.177-1.884 3.179-.589 4.886.118-.294.294-.588.53-.824-.013.53.153 1.048.471 1.472.176.176.294 1.06.471 1.354l.588.589s.177-.766.53-.883l1.178-.354c.449-.26.848-.6 1.177-1l-.176 1.06c2.296-.766 2.826-2.356 2.178-4.416.589.353 1.177-.118 1.354-.118a1.47 1.47 0 0 1-.471-.706 4.4 4.4 0 0 1-.177-1.06v-.648l-.353.942a4.8 4.8 0 0 0 0 1.001 3.1 3.1 0 0 1-1.06-.471c.236.706.354 1.413.471 2.178 0 .471-.117 1.001-.294 1.472a3.9 3.9 0 0 1-.942 1l.177-1.353-.177-1.649a9.3 9.3 0 0 1-.471 1.59l-.706 1.177c.059-1.177 0-1.295-.118-1.707 0 0-.294 1.472-.765 2.12a4.4 4.4 0 0 1-.942.412c-.168.077-.31.2-.413.353l-.353-1a12 12 0 0 1-.706-1.296c-.177-.707.706-2.12.706-2.12-.353 0-.647.413-1.001.825q-.41.448-.765.942a9 9 0 0 1-.294-1.296c0-.47.176-.883.412-1.236.353-.589 1.943-1.766 1.943-1.766a2.47 2.47 0 0 1-1.649 0l.707-1a2.5 2.5 0 0 0 .294-1.12m2.944.647h-.707v.294l.295.177.471.589.942-.295.176-.235a3.6 3.6 0 0 0-.883-.471 1.4 1.4 0 0 0-.235 0z"/><path stroke="#806600" stroke-miterlimit="128.6" stroke-width=".2" d="M292.318 79.995c.589.353 1.177-.118 1.354-.118a1.47 1.47 0 0 1-.471-.706 4 4 0 0 1-.177-1.06c0-.942.295-1.06.354-.942q.439-.188.824-.471c.235-.177.412-.471.471-.765a2.8 2.8 0 0 0-.118-1.12c-.883 0-1.06.119-1.295.354a4 4 0 0 0-.177-.883 2.7 2.7 0 0 0-.294-.707 1.2 1.2 0 0 0-.353-.294c0 .236-.177.471-.354.589a2.23 2.23 0 0 0-.942-1.766c-.765 0-1.236.412-1.766 1a1.3 1.3 0 0 1 0-.706 1.2 1.2 0 0 0-.353.118 2.7 2.7 0 0 0-.589.412q-.36.287-.647.647c0-.353-.177-.588-.942-1a2.8 2.8 0 0 0-.648.942c-.101.262-.122.55-.059.824q.188.439.471.824c.059 0 .295.236-.235 1.001a4 4 0 0 1-.707.824c-.235.177-.471.294-.765.294.235.471.294.707 1.06.825-1.767 1.177-1.884 3.179-.589 4.886.118-.294.294-.588.53-.824-.013.53.153 1.048.471 1.472.176.176.294 1.06.471 1.354l.588.589s.177-.766.53-.883l1.178-.354c.449-.26.848-.6 1.177-1l-.176 1.06c2.237-.766 2.826-2.356 2.178-4.416Z"/><path fill="#806600" d="M286.841 73.166a1.8 1.8 0 0 0-.294.942c.127.339.306.657.53.942l.294-1.296c-.059-.235-.471-.588-.471-.588zm1.178 1.177a.5.5 0 0 0-.177.118c-.118.059-.235.059-.235.235l.412-.117a.17.17 0 0 1 .117 0l.707.353h1.119l-.177.47-.53.236-.235.236-.118.235v.354h.118a.59.59 0 0 1 .471.53l.117.117a.3.3 0 0 0 .118.059h.236a.584.584 0 0 1 .706-.177h.059l.059-.059a.8.8 0 0 0 .176-.353v-.235a4 4 0 0 0-.117-.236c0-.235-.177-.588-.177-.588l.059-.471c.248.272.548.492.883.647l.765.06c.118 0 .177 0 .177.117l.235.294a.47.47 0 0 0-.058-.47l-.295-.119-.765-.058a2.24 2.24 0 0 1-.824-.59l-.118-.117-.059.118a1.18 1.18 0 0 0-.236.706l.236.589q.072.202.118.412a.6.6 0 0 1-.118.177 1.3 1.3 0 0 0-.883.235h-.059a1.47 1.47 0 0 0-.706-.765v-.177l.117-.059c0-.117.118-.176.177-.176.177-.177.471-.295.53-.471.117-.177.235-.353.235-.589v-.176h-.176a2 2 0 0 1-.942.058c-.236 0-.471-.235-.707-.294a.5.5 0 0 0-.176 0zm-.53.824a.88.88 0 0 0-.118.942.94.94 0 0 0 .589.471v.06c-.118.176-.118.352-.118.47 0 .353.236.589.471.766.177.176.471.294.707.235.164 0 .326-.04.471-.118l.294.354c.235.117.471.235.765.176a1.06 1.06 0 0 0 .942-.824v-.118a.88.88 0 0 0 .824-.059.94.94 0 0 0 .354-.883c-.177.177 0 .471-.471.766-.236.117-.471.117-.648 0l-.235-.177v.53l-.177.294a.94.94 0 0 1-.589.353.82.82 0 0 1-.588-.176 1.05 1.05 0 0 1-.236-.412l-.118-.295-.117.177-.236.118-.294.117c-.177 0-.412 0-.471-.176a1.17 1.17 0 0 1-.412-.707v-.294c0-.118.058-.177.176-.236l.059-.176h-.235a.82.82 0 0 1-.589-.295c-.295-.412 0-.588 0-.883m6.711.118s-.588 0-.706.236c-.208.37-.366.766-.471 1.177.332-.09.65-.23.942-.412.176-.353.235-.648.235-.942z"/><path fill="#2B2200" d="M288.667 74.815a.328.328 0 1 0-.117.647.29.29 0 0 0 .29-.154.3.3 0 0 0 .022-.226.303.303 0 0 0-.254-.209zm3.003.941a.297.297 0 0 0-.259.482.3.3 0 0 0 .417.042.305.305 0 0 0 .107-.2.3.3 0 0 0-.155-.29.3.3 0 0 0-.11-.034"/><path fill="#377BC8" stroke="#2C5AA0" stroke-miterlimit="128.6" stroke-width=".2" d="M277.01 85.176c-.294.117-.706-.118-1.471.588a1.41 1.41 0 0 1 1.295.471.59.59 0 0 0 .471-.294.59.59 0 0 0-.295-.765Zm19.016.883c-.294.118-.647-.118-1.472.588a1.41 1.41 0 0 1 1.296.53c.235 0 .471-.176.471-.353a.59.59 0 0 0-.295-.765Zm-20.429 1.06c-.235.176-.706.117-1.177 1.06a1.41 1.41 0 0 1 1.413 0c.235-.06.353-.295.353-.472a.59.59 0 0 0-.589-.588Zm20.724 1.471c-.177.236-.589.236-1.06 1.178a1.41 1.41 0 0 1 1.413-.118.59.59 0 0 0 .353-.471.58.58 0 0 0-.212-.464.58.58 0 0 0-.494-.125Zm-19.311.825a.7.7 0 0 0-.294.117c-.118.236-.53.471-.471 1.472a1.41 1.41 0 0 1 1.177-.706.59.59 0 0 0 .059-.59.59.59 0 0 0-.471-.293Zm41.329.117h-.235c-.118.353-.589.471-.589 1.531a1.41 1.41 0 0 1 1.236-.589c.177-.176.177-.412.177-.589a.59.59 0 0 0-.589-.353Zm-19.663.707a.7.7 0 0 0-.354.176c0 .295-.471.471-.294 1.531a1.42 1.42 0 0 1 1.177-.824.585.585 0 0 0-.224-.81.6.6 0 0 0-.305-.073Zm24.491.117a.59.59 0 0 0-.589.354c.118.235-.118.589.53 1.472a1.41 1.41 0 0 1 .589-1.237.536.536 0 0 0-.295-.588.7.7 0 0 0-.235 0Zm-2.591.295a.65.65 0 0 0-.471.235c0 .295-.353.59.059 1.531a1.41 1.41 0 0 1 .942-1c.059-.236 0-.472-.118-.59a.59.59 0 0 0-.471-.176z"/><path fill="gold" stroke="#806600" stroke-miterlimit="103.2" stroke-width=".2" d="M290.022 103.486a3 3 0 0 1-1.001-.177 2.7 2.7 0 0 1-.707-.824h-1.177a3.2 3.2 0 0 1-.942-.471c.353-.061.681-.225.942-.471a4.8 4.8 0 0 1-1.119-.177 5.3 5.3 0 0 1-.942-.589c.354-.117.707-.058.942-.412a4 4 0 0 1-1-.117 3.8 3.8 0 0 1-.884-.59 1.36 1.36 0 0 0 1.06-.411 3.7 3.7 0 0 1-1.06-.06 5.3 5.3 0 0 1-1-.706 2.35 2.35 0 0 0 1.059-.294l-.235-.47c-.236-.59-.824-.413-1.178-.53a1.05 1.05 0 0 1-.647-.825c0-.412.176-1 1.06-.942-.471-.589 0-1.177.529-1.413.471-.118.883-.059 1.178.707.211-.176.45-.315.706-.412a.647.647 0 0 1 .825.353v.53c-.177.235-.471.412-.471.765a2.17 2.17 0 0 0 .235 1.118s1.766 1.413 2.59 2.179c.471.412 1.178 1.295 1.178 1.295h1.766l.177 2.944z"/><path fill="#377BC8" stroke="#2C5AA0" stroke-miterlimit="103.2" stroke-width=".2" d="M285.135 93.654c.294.353.412.765.294 1.177a.48.48 0 0 0 .471.118.474.474 0 0 0 .295-.589c-.236-.118-.236-.471-1.06-.648zm-2.002.294a2 2 0 0 0-.471 0 1.18 1.18 0 0 1 .707.942.47.47 0 0 0 .471-.059.47.47 0 0 0 0-.648c-.177 0-.295-.235-.707-.235Zm-.588 1.884a1.77 1.77 0 0 0-1.178.353 1.18 1.18 0 0 1 1.001.471c.118 0 .294 0 .353-.236a.47.47 0 0 0-.176-.588Z"/><path fill="gold" stroke="#806600" stroke-miterlimit="103.2" stroke-width=".2" d="M298.793 104.839c-.353-.059-.766-.471-1.06-.471a.94.94 0 0 0-.442.139.93.93 0 0 0-.323.332.825.825 0 0 0 .176.707l.589.353a2 2 0 0 0-.412.706c0 .177.059.354.236.53.176.236.235.295.529.353l.648-.058c0 .176 0 .353.118.471a1.06 1.06 0 0 0 .942.471c.176.058.412 0 .53-.236.117-.177.058-.589.294-.824l.824-.765c.353.235.353.529.294.883q.398-.243.707-.589c.118-.236.235-.53.235-.824.295.235.471.588.354.942q.391-.249.706-.589a3.6 3.6 0 0 0 .353-.824c.236.235.354.588.236.942.297-.186.556-.426.765-.707l.177-.706c.765 0 1.236-.236 1.236-.589.059-.294-.235-.589-.824-.707a3 3 0 0 1-.294-.588.8.8 0 0 1 0-.471c.153-.352.397-.656.706-.883a8.3 8.3 0 0 1 1.295-.766l-.294-1.236-2.944-.471-3.355.824c.588.236 2.001 1.178 1.883 1.59 0 .118-.294.235-.471.471-.117.059 0 .235.059.471.177.118.471.176.589.353a.354.354 0 0 1 0 .471c-.177.294-.942.412-1.354.589-.589.235-1.766.942-1.766.942a2.5 2.5 0 0 1-1.001-.236z"/><path fill="gold" stroke="#806600" stroke-miterlimit="103.2" stroke-width=".2" d="M304.681 100.836s0 1.119-.413 1.354c-.235.118-.471.177-.706.059a.83.83 0 0 1-.412-.471l-.118-.471a4.2 4.2 0 0 0-1.06-.294c-.588 0-1.059.058-1.589.294a3.66 3.66 0 0 1 1.177-1.472l1.766-.176 1.413 1.177z"/><path fill="gold" d="M308.096 93.771c.471 0 1.295-.235 1.589-.588l.471-.589a2.36 2.36 0 0 1-1.354 2.12 4.3 4.3 0 0 1-2.355.294 9 9 0 0 1-1.413-.295c.589.59.295 1.06-.353 1.413 0 0 .118-.588-.118-.706-.353-.236-.824 0-1.236.294-.353.177-.707.353-1.177.353a3 3 0 0 1-1.296-.235c-.294-.177-.824-.589-1.001-.589-.471.118-1.177.177-1.413.589v.589a1.47 1.47 0 0 0 .942.647c1.06.295 2.12.295 3.121.118 1.177-.177 2.472-.589 3.591-.824 1.177-.236 2.532-.589 3.415-.883 1.073-.29 2.186-.41 3.297-.353 1.883 0 2.59 1.177 2.531 2.413-.118 1.296-1.295 1.884-2.296 2.237-1.766.648-4.239.295-5.711.236l.766.706c.235.236.353.825.706.942.471.118 1.178-.176 1.649-.235a17 17 0 0 1 1.884 0c.124-.156.286-.277.471-.353h.471c.176.059.294.353.235.883l.353.294h.648l.589.353a3.3 3.3 0 0 0-.53.236 1.3 1.3 0 0 0-.295.353l.766.059.471.471a.93.93 0 0 0-.471.059q-.196.158-.354.353s.589-.059.884.118l.353.471a2 2 0 0 0-.471 0l-.295.235c.228.138.428.318.589.53.118.236.177.471.177.765a3 3 0 0 0-.353-.294 1 1 0 0 0-.354-.059l.118 1.06c0 .235.353.471.412.706.118.177 0 .413-.118.589-.117.236-.471.353-.765.236a1.2 1.2 0 0 1-.412-.236l-.236.471c-.235.118-.294.118-.588.118a.585.585 0 0 1-.412-.236 2.2 2.2 0 0 1-.295-.706l-.588.177c-.236 0-.471-.177-.589-.354a.82.82 0 0 1 .118-.765c.176-.236.588-.236.883-.353a2.4 2.4 0 0 0 .588-.589 15 15 0 0 1-1.471-1.413l-.589-.942s-1.178.471-1.708.471a8 8 0 0 1-2.354 0c-1.825 0-3.003-2.944-4.593-3.65a1.53 1.53 0 0 0-1.236 0c-1.884.412-3.885 3.002-5.652 3.532a14 14 0 0 1-2.355.354 2.5 2.5 0 0 1-.529.765 2.26 2.26 0 0 1-.942.177c-.071.367-.19.723-.354 1.059a2.6 2.6 0 0 1-.765.589 1.76 1.76 0 0 0 0-1.001 4 4 0 0 1-.589.824 4.2 4.2 0 0 1-.765.589 1.4 1.4 0 0 0 0-.942 3.6 3.6 0 0 1-.471.765 3 3 0 0 1-.765.471 1.3 1.3 0 0 0 0-1c-.103.272-.241.53-.413.765a4.2 4.2 0 0 1-.941.589c.134-.336.175-.703.117-1.06h-.471c-.588 0-.588.589-.824.883a.88.88 0 0 1-.883.177c-.353-.118-.589-.648-.236-1.354a.95.95 0 0 1-.783-.205.94.94 0 0 1-.335-.737c0-.471.177-.883.883-.883a2.2 2.2 0 0 1 0-.589c0-.353.235-.589.471-.53.235 0 .353.118.471.235.177.177.235.471.471.707.305.17.652.251 1.001.235a17.4 17.4 0 0 1 2.355-1.236q.9-.282 1.825-.471V99.07c.412 0 .824.118 1.177 0 1.237.118 2.473.294 3.65.53l1.884-.177s3.179-.588 4.592-.706c.766-.177 1.531-.177 2.296-.177 1.119.118 2.12.471 3.18.471.824.177 1.589.177 2.354.177 1.355-.118 3.651 0 4.357-1.413a1.17 1.17 0 0 0-.233-1.158 1.19 1.19 0 0 0-1.121-.373c-.235.118-.589.294-.589.589 0 .176 0 .353.118.47.059.177.236.295.412.472a1.18 1.18 0 0 1-.824-.236 3 3 0 0 1-.53-.942c-.14.208-.203.458-.177.707 0 .235.059.47.236.706a1.4 1.4 0 0 1-.883-.412 3.4 3.4 0 0 1-.353-.942c-.118.177-.236.412-.236.648 0 .294.059.588.177.824a1.77 1.77 0 0 1-.825-.589 3.4 3.4 0 0 1-.294-.942l-3.297.766-3.532.765c-1.766.236-3.12.118-4.239-.412a1.53 1.53 0 0 1-.942-1.177 1.6 1.6 0 0 1 .294-1.237 3.53 3.53 0 0 1 1.884-1.177 24 24 0 0 1 3.238-.707 10.4 10.4 0 0 1 3.533.177c.471.176.883 0 1.177-.236a.59.59 0 0 0 .118-.824c.294 0 .53.294.589.589.048.213.048.434 0 .647"/><path fill="gold" d="M310.215 92.594c-.252.455-.57.871-.942 1.236a4 4 0 0 1-1.766.648 6.3 6.3 0 0 1-1.766-.118 7.8 7.8 0 0 1-1.648-.53c.218.323.377.681.471 1.06a2.2 2.2 0 0 0-.942-.06l-.942.472c-.471.117-1.06 0-1.413-.118-.471-.059-.589-.235-1.001-.177l-.412.177 1.236.707 1.178.176.765-.176.824-.472.707-.058.176.294v.471l.471-.471.059-.294-.118-.59.942.177 1.06.118 1.178-.235 1.059-.471.53-.648zm3.062 3.179a1.54 1.54 0 0 0-.766.294 1.3 1.3 0 0 0-.353 1.001 10 10 0 0 1-.471-1.236c-.471.47-.471 1.06-.588 1.59a9 9 0 0 1-.471-1.473 2.8 2.8 0 0 0-.825 1.355 2.8 2.8 0 0 1-.294-1.178h-.118c-1.53.236-4.827 1.354-7.418 1.59-1.413.117-3.061 0-3.944-.59a1.76 1.76 0 0 1-.766-1.177l-.117.59.471.764.942.59 1.766.411 2.001-.235 1.178-.06 5.887-1.412v.765l.471.471.471.295-.118-.648v-.47l.236-.295.294.824.412.353.589.118-.294-.412v-.53l.176-.471.295.765.294.295h.765l-.471-.412-.117-.471.353-.412.648-.177.588.235.354.412.117.59-.059.47c1.001-.942 0-2.12-1.177-2.12zm2.002.942a2.66 2.66 0 0 1-.648 1.648c-1.766 1.943-5.77 1.295-7.654.648l-.824-.118a9 9 0 0 0-.471-.177 4.7 4.7 0 0 0-1.177-.176 12.5 12.5 0 0 0-2.296.176c-1.413.118-4.592.707-4.592.707l-1.884.177a27 27 0 0 0-3.65-.471 5.6 5.6 0 0 1-1.178 0v.647l1.649.353h-.236l-1.119 2.12-.235-.942-.059 1.472-.235.412-1.413.353-1.413.589-1.06.824-1.06-.294-.471-.766c.059.412.236.766.412 1.178.295.294 1.178.353 1.178.353q.933-.651 1.943-1.178l.942-.353c.255.305.578.547.942.707 0-.942.588-.942 1.413-1.413v.589s1.589-.589 2.001-1.06a2.9 2.9 0 0 0 .648-1.119c.107-.403.127-.825.059-1.236q.53.007 1.059 0c1.59-.059 3.297-.765 4.828-.942 1.177-.236 2.649-.471 3.768-.236.942.177 1.295.59 2.119 1.178.707.471 1.413 1.884 2.355 1.884 0 0 .53 0 .824-.118.471 0 .766-.235 1.178-.294q.712-.011 1.413.117c.412-.588.589-.588.706-.471.236.118.236.471.059.766a1.3 1.3 0 0 0 1.119.471c-.236.235-.471.471-.589.765.344-.057.697.006 1.001.177a1.95 1.95 0 0 0-.471.706c.321.007.64.067.942.177-.236.118-.471.235-.471.471l.765.589c-.353 0-.471 0-.588.176l.529 1.001-.117-.942.353.118c.118 0 .294.118.353.294.011-.26-.029-.52-.118-.765a2.1 2.1 0 0 0-.588-.53l.235-.177h.471a4 4 0 0 0-.353-.53c-.236-.176-.883-.117-.883-.117a2.3 2.3 0 0 1 .353-.353.94.94 0 0 1 .471 0 1.5 1.5 0 0 0-.471-.53c-.25-.06-.509-.08-.765-.059l.294-.353q.255-.141.53-.236a3.4 3.4 0 0 0-.589-.353h-.647a.7.7 0 0 1-.354-.295c.059-.471-.059-.765-.235-.883a.77.77 0 0 0-.471 0 .67.67 0 0 0-.471.412 17 17 0 0 0-1.884 0c-.471 0-1.178.295-1.649.177-.353-.118-.471-.706-.706-.942l-.765-.706h1.707l1.766.117h1.06c1.295-.353 2.767-.706 3.356-2.237v-1.177zm-13.188 3.002c-.486 0-.967.1-1.413.295a17.5 17.5 0 0 0-3.003 2.06q-.897.66-1.883 1.178c-.885.231-1.795.35-2.709.353 0 0-.235.942-.588 1.118-.236.177-.883-.176-.883-.176l-.059.765a3.5 3.5 0 0 1-.295.824 2.6 2.6 0 0 0-.176-.588 3 3 0 0 0-.471-.589q-.086.421-.236.824l-.53.824a3 3 0 0 0-.117-.471 5 5 0 0 0-.471-.706 8 8 0 0 1-.236.824l-.294.589a3 3 0 0 0-.118-.294 7 7 0 0 0-.471-.707l-.412.883-.353.471a1.5 1.5 0 0 0-.118-.706.71.71 0 0 0-.589-.177c-.589.118-.883.707-1.236 1.236-.118.118-.294.177-.236 0a.46.46 0 0 0 0-.412.35.35 0 0 0-.412-.176c-.235.176.471-.707.471-.707q-.473.015-.942-.059c-.235-.059.059 0 .059-.471 0-.53-.471-.471-.294-.471.255-.054.521-.034.765.059 0 0-.235-.235-.118-.471 0-.059.295-.235.354-.471a.64.64 0 0 0-.295-.588c-.059.235-.471.117-.471.412v.647c-.706 0-.883.412-.883.883a.96.96 0 0 0 .086.425.946.946 0 0 0 1.092.517c-.53.707-.177 1.178.176 1.354a.88.88 0 0 0 .883-.176c.295-.295.295-.883.825-.883h.471c.051.377.011.76-.118 1.118.338-.154.655-.352.942-.588l.471-.825a1.3 1.3 0 0 1 0 1.001c.256-.123.494-.282.706-.471a3.6 3.6 0 0 0 .471-.824c.122.322.122.678 0 1.001q.417-.251.766-.589.345-.375.588-.824c.097.326.097.674 0 1.001.29-.147.55-.347.766-.589q.24-.479.353-1.001c.353 0 .589-.059.942-.235.201-.225.361-.485.471-.766q1.19-.048 2.355-.294c1.884-.589 3.827-3.179 5.71-3.65a1.53 1.53 0 0 1 1.178 0c1.648.765 2.885 3.768 4.592 3.768.824 0 1.236.176 2.355 0l1.766-.53.589.942q.66.754 1.413 1.413a2.1 2.1 0 0 1-.589.588c-.177.118-.647.118-.824.354a.82.82 0 0 0-.059.765c.118.177.294.294.589.353l.53-.176c.037.247.117.486.235.706.118.177.353.236.471.294.236 0 .471 0 .589-.235l.235-.471c.118.177.236.235.412.294a.77.77 0 0 0 .766-.294c.176-.177 0-.765-.059-1.001a5 5 0 0 0 0 .707.472.472 0 0 0-.883 0 .83.83 0 0 1-.412-.471l-.118.588c-.059.118 0 .354-.177.354 0-.589-.412-.589-.706-.471a1.2 1.2 0 0 1 0-.589 4 4 0 0 1-.589.294c-.177 0 0-.118-.118-.294 0-.177-.353-.118-.235-.177l.883-.471c.242-.238.442-.517.589-.824a15 15 0 0 1-1.472-1.413l-.883-1.413c-.922.284-1.868.481-2.826.589a4.36 4.36 0 0 1-2.002-.236c-1.06-.529-1.648-1.825-2.531-2.531-.589-.471-1.119-1.001-1.767-1.119a2 2 0 0 0-.235 0"/><path stroke="#806600" stroke-miterlimit="103.2" stroke-width=".2" d="M308.096 93.771c.471 0 1.295-.235 1.589-.588l.471-.589a2.36 2.36 0 0 1-1.354 2.12 4.3 4.3 0 0 1-2.355.294 9 9 0 0 1-1.413-.295c.589.59.295 1.06-.353 1.413 0 0 .118-.588-.118-.706-.353-.236-.824 0-1.236.294-.353.177-.707.353-1.177.353a3 3 0 0 1-1.296-.235c-.294-.177-.824-.589-1.001-.589-.471.118-1.177.177-1.413.589v.589a1.47 1.47 0 0 0 .942.647c1.06.295 2.12.295 3.121.118 1.177-.177 2.472-.589 3.591-.824 1.177-.236 2.532-.589 3.415-.883 1.073-.29 2.186-.41 3.297-.353 1.883 0 2.59 1.177 2.531 2.413-.118 1.296-1.295 1.884-2.296 2.237-1.766.648-4.239.295-5.711.236l.766.706c.235.236.353.825.706.942.471.118 1.178-.176 1.649-.235a17 17 0 0 1 1.884 0c.124-.156.286-.277.471-.353h.471c.176.059.294.353.235.883l.353.294h.648l.589.353a3.3 3.3 0 0 0-.53.236 1.3 1.3 0 0 0-.295.353l.766.059.471.471a.93.93 0 0 0-.471.059q-.196.158-.354.353s.589-.059.884.118l.353.471a2 2 0 0 0-.471 0l-.295.235.589.53c.118.236.177.471.177.765a3 3 0 0 0-.353-.294 1 1 0 0 0-.354-.059l.118 1.06c0 .235.353.471.412.706.118.177 0 .413-.118.589-.117.236-.471.353-.765.236a1.2 1.2 0 0 1-.412-.236l-.236.471a.58.58 0 0 1-.588.177.7.7 0 0 1-.412-.295 2.2 2.2 0 0 1-.295-.706l-.588.177c-.236 0-.471-.177-.589-.354a.82.82 0 0 1 .118-.765c.176-.236.588-.236.883-.353a2.4 2.4 0 0 0 .588-.589 15 15 0 0 1-1.471-1.413l-.589-.942s-1.178.471-1.708.471a8 8 0 0 1-2.354 0c-1.825 0-3.003-2.944-4.593-3.65a1.53 1.53 0 0 0-1.236 0c-1.884.412-3.885 3.002-5.652 3.532a14 14 0 0 1-2.355.354 2.5 2.5 0 0 1-.529.765 2.26 2.26 0 0 1-.942.177c-.071.367-.19.723-.354 1.059a2.6 2.6 0 0 1-.765.589 1.76 1.76 0 0 0 0-1.001 4 4 0 0 1-.589.824 4.2 4.2 0 0 1-.765.589 1.4 1.4 0 0 0 0-.942 3.6 3.6 0 0 1-.471.765 3 3 0 0 1-.765.471 1.3 1.3 0 0 0 0-1c-.103.272-.241.53-.413.765a4.2 4.2 0 0 1-.941.589c.134-.336.175-.703.117-1.06h-.471c-.588 0-.588.589-.824.883a.88.88 0 0 1-.883.177c-.353-.118-.589-.648-.236-1.354a.95.95 0 0 1-.783-.205.94.94 0 0 1-.335-.737c0-.471.177-.883.883-.883a2.2 2.2 0 0 1 0-.589c0-.353.235-.589.471-.53.235 0 .353.118.471.235.177.177.235.471.471.707.305.17.652.251 1.001.235a17.4 17.4 0 0 1 2.355-1.236q.9-.282 1.825-.471V99.07c.412 0 .824.118 1.177 0 1.237.118 2.473.294 3.65.53l1.884-.177s3.179-.588 4.592-.706c.766-.177 1.531-.177 2.296-.177 1.119.118 2.12.471 3.18.471.824.177 1.589.177 2.354.177 1.355-.118 3.651 0 4.357-1.413a1.17 1.17 0 0 0-.233-1.158 1.19 1.19 0 0 0-1.121-.373c-.235.118-.589.294-.589.589 0 .176 0 .294.118.47l.412.472a1.6 1.6 0 0 1-.942-.236 2.24 2.24 0 0 1-.412-.942c-.14.208-.203.458-.177.707 0 .235.059.47.236.706a1.4 1.4 0 0 1-.883-.412 3.4 3.4 0 0 1-.353-.942c-.118.177-.236.412-.236.648 0 .294.059.588.177.824a1.77 1.77 0 0 1-.825-.589 3.4 3.4 0 0 1-.294-.942l-3.297.766-3.532.765c-1.766.236-3.12.118-4.239-.412a1.53 1.53 0 0 1-.942-1.177 1.6 1.6 0 0 1 .294-1.237 3.53 3.53 0 0 1 1.884-1.177 24 24 0 0 1 3.238-.707 10.4 10.4 0 0 1 3.533.177c.471.176.883 0 1.177-.236a.6.6 0 0 0 .23-.387.6.6 0 0 0-.112-.437c.294 0 .53.294.589.589.117.176.059.412 0 .647Z"/><path fill="gold" d="M294.202 99.659c.471.235.942-.118 1.059-.177a1.2 1.2 0 0 1-.353-.47 3.2 3.2 0 0 1-.177-.943c0-.706.295-.765.295-.765q.34-.113.647-.294c.177-.177.354-.413.413-.648.02-.3-.02-.6-.118-.883-.707 0-.883 0-1.06.235a3.2 3.2 0 0 0-.118-.706 2.2 2.2 0 0 0-.294-.589 1 1 0 0 0-.236-.176c0 .176-.117.353-.235.47a3 3 0 0 0-.294-.941.824.824 0 0 0-1.178-.413 2.9 2.9 0 0 0-.706.707 1.05 1.05 0 0 1 0-.589 1 1 0 0 0-.295.118q-.29.137-.53.353-.263.24-.471.53c0-.294-.117-.471-.765-.824-.219.2-.399.44-.53.706-.1.222-.121.471-.059.707l.412.647s.236.236-.176.883q-.256.334-.589.59c-.171.13-.375.211-.589.235.118.47.177.588.766.706-1.413.942-1.472 2.532-.471 3.886l.471-.707c0 .471.176.883.412 1.178.118.176.176.942.353 1.177l.412.412s.236-.588.471-.647l.942-.295a3.5 3.5 0 0 0 .942-.883l-.118.942c1.825-.706 2.238-1.884 1.767-3.532"/><path fill="#504416" d="M290.668 97.363a3.65 3.65 0 0 1-.354 1.825l1.178.47 1.177.177c-.117-.47.354-1.413.589-1.766h-.883l-.353-.353-.648.176-.706-.47z"/><path fill="#fff" d="M290.905 97.657a1.4 1.4 0 0 0 0 .883l.294-.707zm1.648.589-.059.765c.177-.236.353-.471.412-.765zm-1.648.588a1.4 1.4 0 0 0-.471.707h.353l.118-.766zm1.471.353-.353.707.295.177a1.42 1.42 0 0 0 0-.883zm-1.354-3.885c-.235 0-.353 0-.412.235-.059.236.059.471.471.59a.59.59 0 0 0 .707-.295c.059-.236-.177-.412-.471-.471a1.2 1.2 0 0 0-.295-.06m2.473.706c-.235 0-.353 0-.412.177a.59.59 0 0 0 .471.648c.412.117.647 0 .706-.236.118-.235-.059-.47-.471-.589a1.5 1.5 0 0 0-.294 0"/><path fill="#D1B948" d="M291.021 95.302a.6.6 0 0 0-.176 0 .35.35 0 0 0-.294.294.47.47 0 0 0 .117.353c.059.177.236.236.353.295a.65.65 0 0 0 .825-.353.35.35 0 0 0-.118-.354c-.139-.11-.3-.19-.471-.235a1.2 1.2 0 0 0-.236 0m0 .118h.236l.353.235c.118 0 .177.059.118.177-.118.294-.412.353-.648.294a.6.6 0 0 1-.353-.235.35.35 0 0 1-.059-.295.24.24 0 0 1 .177-.176zm2.473.588h-.118a.35.35 0 0 0-.353.177.65.65 0 0 0 .589.765h.412a.47.47 0 0 0 .294-.353.348.348 0 0 0-.117-.294.9.9 0 0 0-.354-.236 1.5 1.5 0 0 0-.353-.117zm0 .118h.295c.176 0 .235.118.412.236a.24.24 0 0 1 0 .235.36.36 0 0 1-.236.236h-.353a.59.59 0 0 1-.471-.59c0-.117.118-.117.235-.117z"/><path fill="gold" d="M291.023 94.83a.59.59 0 0 0-.471.119v.235h.176l.295.118.589.294.706-.059-.589-.294c-.235-.059-.412-.412-.706-.471zm3.179.884h-1.295l.589.353.588.06.354.117.176.118.059-.236a.59.59 0 0 0-.471-.412m-3.827 3.532c-.588 1.531 1.825 2.355 2.179.59a4.95 4.95 0 0 1-2.179-.59"/><path fill="#806600" d="M290.315 99.07v.118a1.19 1.19 0 0 0 0 1.06c.134.215.327.387.557.494s.487.143.737.106a1.3 1.3 0 0 0 1.061-.954v-.176h-.117a4.8 4.8 0 0 1-2.12-.59zm.118.177c.666.32 1.384.52 2.12.588a1.48 1.48 0 0 1-.471.825c-.3.118-.63.139-.942.059a1.6 1.6 0 0 1-.766-.589 1.18 1.18 0 0 1 0-.883z"/><path fill="#377BC8" stroke="#2C5AA0" stroke-miterlimit="103.2" stroke-width=".2" d="M291.376 97.893a6.8 6.8 0 0 0-.353 3.179 6.8 6.8 0 0 0 1.413-2.944l-.295-.118a3 3 0 0 1-.117-.235l-.354.117z"/><path fill="gold" d="m293.26 93.3-.707.06a3 3 0 0 0-.706.706 1.05 1.05 0 0 1 0-.589 1 1 0 0 0-.295.118 2.2 2.2 0 0 0-.588.353q-.26.212-.471.471c.235 0 .765-.471.942-.412.176 0 .058.47.235.47.177.06.412-.235.707-.47.235-.236.588-.412.706-.353a.91.91 0 0 1 .471.647c.118.412.177.825.353.883.177.06.295-.412.471-.294.236 0 .295.765.53.824a3.2 3.2 0 0 0-.118-.706 2.2 2.2 0 0 0-.294-.589 1 1 0 0 0-.236-.177c0 .177-.176.354-.294.471a3 3 0 0 0-.235-.942 2.8 2.8 0 0 0-.471-.47m-2.944 2.59c-.294.413 0 .766.53.943l-.177.47.236.59.588.117.471-.176.354.47.471.118.588-.412.236-.412h.353l.294-.118.177-.412a1.06 1.06 0 0 1-1.236.177.95.95 0 0 1-.177.589.47.47 0 0 1-.471.117 1.06 1.06 0 0 1-.471-.412c-.235.118-.471.236-.589.177a.65.65 0 0 1-.471-.471.711.711 0 0 1 .177-.589c-1.06-.294-.706-.647-.942-.765zm-.589.119q-.42.628-.942 1.177c-.171.13-.374.212-.588.235.176.471.235.59.824.707-1.413.942-1.472 2.532-.471 3.886l.471-.707c0 .471.176.883.412 1.178.118.176.176.942.353 1.177l.412.412s.236-.589.471-.647l.942-.295a3.5 3.5 0 0 0 .942-.883l-.118.942c1.825-.706 2.238-1.884 1.767-3.532.471.235.942-.118 1.059-.177a1.2 1.2 0 0 1-.353-.47 3.6 3.6 0 0 1-.177-.943v-.47l-.294.764q-.039.383 0 .766a2.5 2.5 0 0 1-.824-.412l.353 1.766c0 .412-.059.824-.235 1.177a3.1 3.1 0 0 1-.707.825l.118-1.06-.177-1.354a7.4 7.4 0 0 1-.412 1.295l-.589.942c.118-.942.118-1.001 0-1.413a5.3 5.3 0 0 1-.647 1.707 3.5 3.5 0 0 1-.707.354.8.8 0 0 0-.353.294l-.294-.824a9 9 0 0 1-.589-1.06c-.118-.53.589-1.648.589-1.648-.236 0-.471.294-.766.647l-.647.766a7 7 0 0 1-.236-1.06c.018-.334.119-.658.295-.942a9.7 9.7 0 0 1 1.589-1.53 2 2 0 0 1-1.354.058l.589-.765c.176-.295.294-.59.294-.942zm2.355.47h-.589v.295l.236.059.353.47.824-.235.118-.176a3 3 0 0 0-.706-.354 1.2 1.2 0 0 0-.236 0z"/><path stroke="#806600" stroke-miterlimit="103.2" stroke-width=".2" d="M294.202 99.658c.471.236.942-.117 1.059-.176a1.2 1.2 0 0 1-.353-.471 3.2 3.2 0 0 1-.177-.942c0-.707.295-.766.295-.766q.34-.112.647-.294c.177-.177.354-.412.413-.647.02-.3-.02-.6-.118-.884-.707 0-.883 0-1.06.236a3.2 3.2 0 0 0-.118-.707 2.2 2.2 0 0 0-.294-.588 1 1 0 0 0-.236-.177c0 .177-.117.353-.235.471.096-.156.155-.332.172-.515a1.19 1.19 0 0 0-.389-.983 1.18 1.18 0 0 0-1.85.378 1.2 1.2 0 0 0-.111.531 1.05 1.05 0 0 1 0-.588 1 1 0 0 0-.295.058q-.29.138-.53.354-.263.24-.471.53c0-.295-.117-.471-.765-.825-.219.2-.399.44-.53.707-.1.222-.121.471-.059.706l.412.648s.236.235-.176.883a3.2 3.2 0 0 1-.589.589 1.2 1.2 0 0 1-.589.235c.118.471.177.589.766.707-1.413.942-1.472 2.531-.471 3.885l.471-.706c0 .471.176.883.412 1.177.118.177.176.942.353 1.119l.412.471s.236-.589.471-.648l.942-.353a3.5 3.5 0 0 0 .942-.824l-.118.942c1.825-.707 2.238-1.884 1.767-3.533Z"/><path fill="#806600" d="M289.785 94.183c-.159.206-.261.45-.295.707.115.278.274.537.471.765.118-.353.236-.706.236-1.06 0-.176-.412-.47-.412-.47zm.942.942a.4.4 0 0 0-.118 0c-.118.059-.177.059-.236.294a.32.32 0 0 0 .295-.176.18.18 0 0 1 .176 0l.589.294c.272.051.552.051.824 0l-.117.353-.413.236-.117.177a.47.47 0 0 0-.177.176v.353h.059c.235.06.353.236.353.472h.059l.118.058h.294a.47.47 0 0 1 .589-.117v-.06l.176-.235v-.176a3 3 0 0 0-.058-.236c0-.176-.236-.47-.236-.47 0-.177 0-.295.118-.413.176.236.471.412.706.471.177.118.412.118.589.118h.118l.235.353a.414.414 0 0 0 0-.412l-.294-.059-.589-.059a1.8 1.8 0 0 1-.647-.47l-.118-.119-.118.118a.95.95 0 0 0-.059.589l.118.412q.04.174.059.353a.5.5 0 0 1 0 .118 1.06 1.06 0 0 0-.765.236 1.18 1.18 0 0 0-.589-.59.5.5 0 0 1 0-.176l.059-.059q.084-.091.176-.176l.412-.295.177-.53v-.117h-.942c-.118 0-.294-.177-.53-.177a.4.4 0 0 0-.118 0zm-.471.589a.71.71 0 0 0-.059.765c.117.177.235.353.471.353v.118a1 1 0 0 0-.059.353c0 .236.118.472.294.59.236.117.412.235.589.235a.8.8 0 0 0 .412-.118l.236.235a.84.84 0 0 0 .588.236.825.825 0 0 0 .766-.706v-.06c.235 0 .471 0 .706-.117.177-.118.236-.412.236-.648-.177.118 0 .353-.354.589h-.53l-.176-.177v.413a1 1 0 0 1-.118.235.82.82 0 0 1-.589.294l-.353-.059a.8.8 0 0 1-.235-.353v-.235l-.177.118a1 1 0 0 1-.177.117h-.235a.6.6 0 0 1-.412-.117.94.94 0 0 1-.353-.472l.058-.294.118-.177.059-.117h-.177a.64.64 0 0 1-.471-.295c-.235-.294 0-.47 0-.706zm5.416.118s-.471 0-.589.176a3.9 3.9 0 0 0-.353 1.001c.275-.097.533-.236.765-.412a1.4 1.4 0 0 0 .177-.765"/><path fill="#2B2200" d="M291.198 95.479a.235.235 0 1 0 0 .47.235.235 0 0 0 0-.47m2.473.706a.238.238 0 0 0-.217.381.24.24 0 0 0 .158.09.235.235 0 1 0 0-.47z"/><path fill="#377BC8" stroke="#2C5AA0" stroke-miterlimit="103.2" stroke-width=".2" d="M284.545 103.78c-.177 0-.471-.118-.942.471a.83.83 0 0 1 .824.353.35.35 0 0 0 .353-.236.467.467 0 0 0-.235-.588Zm12.599.706a1.65 1.65 0 0 0-1.178.471 1.18 1.18 0 0 1 1.06.353.47.47 0 0 0 .412-.235.47.47 0 0 0-.294-.589Zm-13.541.824c-.118.177-.471.118-.707.884a.82.82 0 0 1 .942 0 .46.46 0 0 0 .236-.413.413.413 0 0 0-.471-.471Zm13.776 1.178c-.117.235-.471.176-.824.942a1.18 1.18 0 0 1 1.119-.059.473.473 0 0 0-.236-.883zm-12.775.706a.4.4 0 0 0-.236.059c-.225.35-.329.763-.294 1.178.235-.412.412-.471.765-.589a.47.47 0 0 0 .059-.412.35.35 0 0 0-.294-.236Zm27.317.059a.5.5 0 0 0-.118.059 1.83 1.83 0 0 0-.412 1.178.82.82 0 0 1 .824-.471c.118-.118.118-.354.118-.471a.36.36 0 0 0-.144-.235.35.35 0 0 0-.268-.06Zm-12.658.589-.294.059a1.66 1.66 0 0 0-.236 1.295 1.2 1.2 0 0 1 .387-.446c.165-.113.356-.182.555-.202a.466.466 0 0 0-.174-.644.47.47 0 0 0-.238-.062Zm15.896.059c-.177 0-.236.059-.353.235 0 .471 0 .942.294 1.237 0-.354.059-.766.412-1.001a.6.6 0 0 0-.176-.471.4.4 0 0 0-.177 0Zm-1.766.235a.4.4 0 0 0-.295.236c-.099.389-.078.8.059 1.177a1.07 1.07 0 0 1 .589-.824.46.46 0 0 0 .034-.243.46.46 0 0 0-.093-.228.36.36 0 0 0-.294-.118Z"/><path fill="gold" stroke="#806600" stroke-linecap="round" stroke-linejoin="round" stroke-width=".5" d="M334.529 22.594v-.177l.471-.942a5.3 5.3 0 0 0-4.062 1.178 10.3 10.3 0 0 0-1.649 2.178 6.9 6.9 0 0 0-.471 1.884 10.5 10.5 0 0 0-1.118-.942 1.6 1.6 0 0 0-.766-.236 2.83 2.83 0 0 0-1.884.884 3.54 3.54 0 0 0-.883 1.766c-.235.942 0 1.884-.588 2.708l-.942 1.06c.505.209 1.043.328 1.589.353a2.47 2.47 0 0 0 1.649-.883c.353-.471.53-1.119 1.059-1.472a.83.83 0 0 1 .707-.118c.294.118.353.707.235.942l-.588 2.002-1.06-.236-.824.471-.354.177.707 1.06.294.117q-.117.06-.235.118l-1.943.942-.235.118-1.413.059a6.5 6.5 0 0 1-.942-.118l-1.413-.471q-.213-.106-.412-.235l-.766-.825a7.1 7.1 0 0 1-1.236-2.531 3.41 3.41 0 0 0 2.944-3.356v-.471a3 3 0 0 0-.059-.235 2.5 2.5 0 0 0-.177-.59 3 3 0 0 0-.177-.352 4 4 0 0 0-.353-.59 4 4 0 0 0-.235-.235 3.18 3.18 0 0 0-2.061-1h-.765a3.4 3.4 0 0 0-1.884.941c-.373.361-.655.805-.824 1.296l-.118.47a4.4 4.4 0 0 0-.059.766 3.42 3.42 0 0 0 1.884 3.061 16 16 0 0 1-1.59 1.531 8.95 8.95 0 0 1-5.122 2.355 8.48 8.48 0 0 1-6.24-1.766 7.2 7.2 0 0 1-1.354-1.649h.765l.942-.942h.059l-.294-.235-.707-.589h-.294l.235-2.237c0-.353.236-.942.589-.942a.94.94 0 0 1 .824.471c.471.589.236 1.236.471 1.884a2.7 2.7 0 0 0 1.413 1.53c.707.177 1.295.295 1.943.236l-.53-1.413c-.353-1.06.294-1.884.471-2.943a3.4 3.4 0 0 0-.118-2.12 3.3 3.3 0 0 0-1.766-1.648c-.31-.071-.632-.071-.942 0l-1.648.47s.471-1.412.294-2.119a8.8 8.8 0 0 0-.942-2.826 13.3 13.3 0 0 0-2.06-2.178 13.3 13.3 0 0 0-2.061 2.178 8.8 8.8 0 0 0-.942 2.826c-.118.707.294 2.12.294 2.12a14 14 0 0 0-1.648-.471c-.31-.071-.632-.071-.942 0a3.3 3.3 0 0 0-1.766 1.648 3.4 3.4 0 0 0-.118 2.12c.177 1.06.824 1.884.471 2.943l-.589 1.413c.707 0 1.296 0 1.943-.235a2.71 2.71 0 0 0 1.413-1.531c.294-.589.118-1.354.589-1.884a.765.765 0 0 1 .706-.471c.412 0 .648.589.648.942l.235 2.178h-.294l-.942.942.942.883h.765a7.2 7.2 0 0 1-1.413 1.649 8.48 8.48 0 0 1-6.24 1.766 8.95 8.95 0 0 1-5.063-2.355 16 16 0 0 1-1.531-1.53 3.41 3.41 0 0 0 2.002-3.062 3.53 3.53 0 0 0-1.06-2.473 3.4 3.4 0 0 0-1.943-.942l-.176-.117h-.589a3.18 3.18 0 0 0-2.002 1.06 3.9 3.9 0 0 0-.765 1.177l-.177.588a3 3 0 0 0 0 .236 3.4 3.4 0 0 0 0 .471 3.42 3.42 0 0 0 2.767 3.356 7.1 7.1 0 0 1-1.236 2.531l-.824.825a4 4 0 0 1-.471.235l-1.354.471a6.5 6.5 0 0 1-.942.118l-1.354-.06-.236-.058-2.002-1-.176-.119.294-.117.707-1.06-.354-.177-.824-.47-1.001.235-.647-1.943c-.118-.294-.059-.883.235-1a.83.83 0 0 1 .707.117c.471.353.706 1.06 1.059 1.472a2.47 2.47 0 0 0 1.649.883 4.7 4.7 0 0 0 1.589-.353l-.942-1.06c-.647-.824-.353-1.766-.588-2.767a3.54 3.54 0 0 0-.883-1.766 2.83 2.83 0 0 0-1.884-.825 1.6 1.6 0 0 0-.766.236q-.621.429-1.177.942a6.8 6.8 0 0 0-.412-1.884 10.3 10.3 0 0 0-1.649-2.178A5.06 5.06 0 0 0 265 21.475l.412.942v.177h.059l4.828 10.832-.648.118-.707 1.178 1.119.588 1.413-.353c.471 1.178.824 2.296 1.177 3.415l-1.177.117c-.235.295-.353.295-.353.59 0 .176.059.47.235.588l.177.118.294.176h.589l.118.766-.059-.06v1.178l-.707 1.53 1.119 1.414.471 1.236.353-.235.059.412h-.177l.295.589-.412.117c-.236.236-.295.295-.295.59 0 .117 0 .411.177.588l.471.294c2.237-.294 4.71-.589 7.182-.765l2.355-.177c4.121-.294 8.36-.294 12.54-.353h8.007c2.532 0 7.83 0 12.599.353q.648.055 1.295.118l1.354.059q1.562.132 3.12.294l3.768.471.177-.118.412-.412a.6.6 0 0 0 0-.353c0-.294-.118-.353-.294-.589l-.412-.059.117-.53.118-.53.294.236.471-1.177 1.178-1.413-.707-1.649v-1.118h-.117l.176-.766.53.06c.118 0 .177 0 .236-.118.353-.236.471-.471.471-.766 0-.235-.118-.353-.354-.589l-1.354-.117q.629-1.744 1.295-3.474l1.472.412 1.178-.588-.707-1.178-.706-.118 4.886-10.773h.059z"/></g><defs><clipPath id="a"><path fill="#fff" d="M0 0h600v300H0z"/></clipPath></defs></svg>