<svg xmlns="http://www.w3.org/2000/svg" width="600" height="300" fill="none"><g clip-path="url(#a)"><path fill="#00ABC2" d="M0 0h600v300H0z"/><path fill="#FFEC2D" d="M47.051 14.703s-3.048-2.598-4.096-1.299c-1.65 2.06 5.144 12.358 5.144 15.97 0 5.957-4 7.573-8.89 8.396-3.303.57-8.669-.222-8.669-.222 1.016-1.362 1.683-1.774 3.366-1.869-1.905-.95-3.81-3.105-3.81-6.432 0-5.101 2.095-7.224 2.095-12.991 0-3.137-2.604-7.256-2.604-7.256 4.636.475 6.923 4.753 5.62 8.175a2.23 2.23 0 0 0 2.001-.602c.318.95-.19 2.06-.92 3.01.57.317 1.015.127 1.904-.063-.063.95-.635 2.027-2.095 3.01 4.191-1.078 6.731 1.806 6.731 4.848 0 2.313-1.587 3.96-3.175 3.96-.508 0-1.27-.222-1.683-.538-.317.633-.127 1.489.159 2.122-1.143-.316-1.905-1.013-1.365-2.44-.89-.063-1.588-.38-2.064-.95.476-.634 1.206-.95 2.063-.95-.634-1.331.096-2.06 1.144-2.662 0 0-.667 2.662 1.016 2.662.762 0 1.46-.222 1.46-1.363 0-.982-.857-2.345-2.857-2.25-1.97.095-3.589 1.363-3.589 4.531 0 2.916 2.382 4.373 5.494 4.436 2.794.127 4.922-1.394 4.922-4.277 0-3.866-5.557-12.61-5.557-16.033 0-2.566 2.286-4.024 4.572-4.024 2.921 0 5.398 2.915 5.398 2.915l-1.715 2.155z"/><path fill="#FFEC2D" d="M47.687 84.126c0 6.432-5.78 9.727-10.32 9.727-6.096 0-9.367-3.643-9.367-8.428 0-2.693.508-4.404 1.746-6.97l14.035-29.056a8.54 8.54 0 0 0 .635-3.866c0-2.598-2.54-4.721-5.175-4.753-2.414-.095-5.081 2.218-5.081 4.848 0 3.2 1.683 4.626 3.398 4.626 2.095 0 2.92-.855 2.92-2.345 0-1.014-.475-1.457-1.206-1.457-1.81 0-1.27 2.408-1.27 2.408a1.654 1.654 0 0 1-1.347-1.507c-.017-.242.02-.485.109-.711a3.24 3.24 0 0 1-1.747-1.046c.477-.475 1.048-.823 1.747-.95-.413-1.394.158-2.06 1.365-2.377a2.4 2.4 0 0 0-.159 1.521c1.906-.57 4.859.317 4.859 3.613s-2.287 6.051-6.573 5.386c1.016.475 1.524 1.457 1.65 2.566-.793-.316-1.65-.316-1.65-.316.508.855 1.206 1.584 1.175 3.358-.794-.38-1.556-1.045-2.54-.633 1.587 3.168-.382 7.477-5.399 8.491 1.842-2.154 2.731-4.436 2.731-6.749 0-7.446-2.064-8.681-2.064-13.878a7.6 7.6 0 0 1 3.334-6.084v.096a4.45 4.45 0 0 1-2.953-2.123 19.73 19.73 0 0 1 10.796.095 7.95 7.95 0 0 1 5.716 3.802 11.39 11.39 0 0 1 0 9.157c-2 4.12-11.336 23.954-14.257 30.165-.635 1.33-.985 2.724-.985 4.245 0 3.803 3.493 5.133 5.462 5.133 2.381 0 4.826-1.806 4.826-4.055 0-1.426-.794-2.313-1.905-2.313-2.699 0-2.54 2.281-2 3.739-1.683-.76-2.636-2.092-2.382-3.486a4.45 4.45 0 0 1-2.667-1.52c.635-.825 1.46-1.458 2.667-1.49-.54-2.186.953-3.105 2.382-3.612-.445 1.584-.762 3.454 2 3.454 2 0 3.556.316 4.477 1.647l.222-8.555c.127-2.566-3.429-2.535-5.715-1.743.857-2.946 2.604-4.562 6.668-4.15a3.17 3.17 0 0 1-2.032-3.106c0-2.408 1.969-5.07 3.239-5.861l.635 25.031z"/><path fill="#FFEC2D" d="M47.687 103.391c0-6.432-5.78-9.727-10.32-9.727-6.096 0-9.367 3.643-9.367 8.428 0 2.693.508 4.404 1.746 6.971l14.035 29.055a8.54 8.54 0 0 1 .635 3.866c0 2.598-2.54 4.721-5.175 4.753-2.414.095-5.081-2.218-5.081-4.848 0-3.2 1.683-4.626 3.398-4.626 2.095 0 2.92.855 2.92 2.344 0 1.014-.475 1.458-1.206 1.458-1.81 0-1.27-2.408-1.27-2.408a1.65 1.65 0 0 0-1.142.818 1.65 1.65 0 0 0-.096 1.4 3.24 3.24 0 0 0-1.747 1.045c.477.476 1.048.824 1.747.951-.413 1.394.158 2.06 1.365 2.376a2.4 2.4 0 0 1-.159-1.521c1.906.571 4.859-.316 4.859-3.612 0-3.295-2.287-6.052-6.573-5.386 1.016-.475 1.524-1.458 1.65-2.567-.793.317-1.65.317-1.65.317.508-.855 1.206-1.584 1.175-3.358-.794.38-1.556 1.045-2.54.633 1.587-3.168-.382-7.478-5.399-8.491 1.842 2.154 2.731 4.435 2.731 6.749 0 7.446-2.064 8.681-2.064 13.878a7.6 7.6 0 0 0 3.334 6.083v-.095A4.45 4.45 0 0 0 30.54 150c3.537.973 7.277.94 10.796-.095a7.95 7.95 0 0 0 5.716-3.802 11.4 11.4 0 0 0 0-9.157c-2-4.119-11.336-23.954-14.257-30.165-.635-1.33-.985-2.725-.985-4.246 0-3.802 3.493-5.133 5.462-5.133 2.381 0 4.826 1.806 4.826 4.056 0 1.426-.794 2.313-1.905 2.313-2.699 0-2.54-2.281-2-3.739-1.683.761-2.636 2.092-2.382 3.486a4.44 4.44 0 0 0-2.667 1.521c.635.823 1.46 1.457 2.667 1.489-.54 2.186.953 3.105 2.382 3.612-.445-1.584-.762-3.454 2-3.454 2 0 3.556-.317 4.477-1.647l.222 8.555c.127 2.566-3.429 2.535-5.715 1.742.857 2.947 2.604 4.563 6.668 4.151a3.18 3.18 0 0 0-1.519 1.225 3.16 3.16 0 0 0-.513 1.88c0 2.408 1.969 5.07 3.239 5.862l.635-25.031zM47.052 14.703s3.048-2.598 4.096-1.299c1.65 2.06-5.144 12.358-5.144 15.97 0 5.957 4 7.573 8.89 8.396 3.303.57 8.669-.222 8.669-.222-1.016-1.362-1.683-1.774-3.366-1.869 1.905-.95 3.81-3.105 3.81-6.432 0-5.101-2.095-7.224-2.095-12.991 0-3.137 2.604-7.256 2.604-7.256-4.636.475-6.923 4.753-5.62 8.175a2.23 2.23 0 0 1-2.001-.602c-.318.95.19 2.06.92 3.01-.57.317-1.015.127-1.904-.063.063.95.635 2.027 2.095 3.01-4.191-1.078-6.731 1.806-6.731 4.848 0 2.313 1.587 3.96 3.175 3.96.508 0 1.27-.222 1.683-.538.317.633.127 1.489-.159 2.122 1.143-.316 1.905-1.013 1.366-2.44.889-.063 1.587-.38 2.063-.95-.476-.634-1.206-.95-2.063-.95.634-1.331-.096-2.06-1.144-2.662 0 0 .667 2.662-1.016 2.662-.762 0-1.46-.222-1.46-1.363 0-.982.857-2.345 2.857-2.25 1.97.095 3.589 1.363 3.589 4.531 0 2.916-2.382 4.373-5.494 4.436-2.794.127-4.921-1.394-4.921-4.277 0-3.866 5.556-12.61 5.556-16.033 0-2.566-2.286-4.024-4.572-4.024-2.921 0-5.398 2.915-5.398 2.915l1.715 2.155z"/><path fill="#FFEC2D" d="M46.417 84.126c0 6.432 5.779 9.727 10.32 9.727 6.096 0 9.366-3.643 9.366-8.428 0-2.693-.507-4.404-1.746-6.97L50.322 49.398a8.54 8.54 0 0 1-.635-3.866c0-2.598 2.54-4.721 5.176-4.753 2.413-.095 5.08 2.218 5.08 4.848 0 3.2-1.682 4.626-3.397 4.626-2.096 0-2.921-.855-2.921-2.345 0-1.014.476-1.457 1.206-1.457 1.81 0 1.27 2.408 1.27 2.408a1.65 1.65 0 0 0 1.347-1.507 1.65 1.65 0 0 0-.108-.711 3.24 3.24 0 0 0 1.746-1.046c-.476-.475-1.048-.823-1.746-.95.412-1.394-.159-2.06-1.366-2.377.218.477.273 1.01.16 1.521-1.906-.57-4.859.317-4.859 3.613s2.286 6.051 6.573 5.386c-1.016.475-1.524 1.457-1.651 2.566.793-.316 1.65-.316 1.65-.316-.507.855-1.206 1.584-1.174 3.358.794-.38 1.556-1.045 2.54-.633-1.587 3.168.381 7.477 5.398 8.491-1.842-2.154-2.73-4.436-2.73-6.749 0-7.446 2.063-8.681 2.063-13.878a7.6 7.6 0 0 0-3.334-6.084v.096a4.45 4.45 0 0 0 2.953-2.123 19.73 19.73 0 0 0-10.796.095 7.95 7.95 0 0 0-5.715 3.802 11.39 11.39 0 0 0 0 9.157c2 4.12 11.336 23.954 14.257 30.165.635 1.33.984 2.724.984 4.245 0 3.803-3.493 5.133-5.461 5.133-2.382 0-4.827-1.806-4.827-4.055 0-1.426.794-2.313 1.905-2.313 2.7 0 2.54 2.281 2 3.739 1.684-.76 2.636-2.092 2.382-3.486a4.45 4.45 0 0 0 2.668-1.52c-.636-.825-1.461-1.458-2.668-1.49.54-2.186-.952-3.105-2.381-3.612.444 1.584.762 3.454-2 3.454-2.001 0-3.557.316-4.478 1.647l-.222-8.555c-.127-2.566 3.43-2.535 5.715-1.743-.857-2.946-2.603-4.562-6.668-4.15a3.17 3.17 0 0 0 2.033-3.106c0-2.408-1.97-5.07-3.24-5.861l-.634 25.031z"/><path fill="#FFEC2D" d="M46.417 103.391c0-6.432 5.779-9.727 10.32-9.727 6.096 0 9.366 3.643 9.366 8.428 0 2.693-.507 4.404-1.746 6.971l-14.035 29.055a8.54 8.54 0 0 0-.635 3.866c0 2.598 2.54 4.721 5.176 4.753 2.413.095 5.08-2.218 5.08-4.848 0-3.2-1.682-4.626-3.397-4.626-2.096 0-2.921.855-2.921 2.344 0 1.014.476 1.458 1.206 1.458 1.81 0 1.27-2.408 1.27-2.408a1.64 1.64 0 0 1 1.142.818 1.65 1.65 0 0 1 .097 1.4c.68.152 1.292.519 1.746 1.045-.476.476-1.048.824-1.746.951.412 1.394-.159 2.06-1.366 2.376.218-.476.273-1.01.16-1.521-1.906.571-4.859-.316-4.859-3.612 0-3.295 2.286-6.052 6.573-5.386-1.016-.475-1.524-1.458-1.651-2.567.793.317 1.65.317 1.65.317-.507-.855-1.206-1.584-1.174-3.358.794.38 1.556 1.045 2.54.633-1.587-3.168.381-7.478 5.398-8.491-1.842 2.154-2.73 4.435-2.73 6.749 0 7.446 2.063 8.681 2.063 13.878a7.6 7.6 0 0 1-3.334 6.083v-.095A4.45 4.45 0 0 1 63.563 150c-3.537.973-7.276.94-10.796-.095a7.95 7.95 0 0 1-5.715-3.802 11.4 11.4 0 0 1 0-9.157c2-4.119 11.336-23.954 14.257-30.165.635-1.33.984-2.725.984-4.246 0-3.802-3.493-5.133-5.461-5.133-2.382 0-4.827 1.806-4.827 4.056 0 1.426.794 2.313 1.905 2.313 2.7 0 2.54-2.281 2-3.739 1.684.761 2.636 2.092 2.382 3.486a4.44 4.44 0 0 1 2.668 1.521c-.636.823-1.461 1.457-2.668 1.489.54 2.186-.952 3.105-2.381 3.612.444-1.584.762-3.454-2-3.454-2.001 0-3.557-.317-4.478-1.647l-.222 8.555c-.127 2.566 3.43 2.535 5.715 1.742-.857 2.947-2.603 4.563-6.668 4.151a3.163 3.163 0 0 1 2.032 3.105c0 2.408-1.968 5.07-3.238 5.862l-.635-25.031zM47.051 285.297s-3.048 2.598-4.096 1.299c-1.65-2.06 5.144-12.357 5.144-15.97 0-5.956-4-7.572-8.89-8.396-3.303-.57-8.669.222-8.669.222 1.016 1.362 1.683 1.774 3.366 1.869-1.905.951-3.81 3.105-3.81 6.432 0 5.102 2.095 7.224 2.095 12.991 0 3.137-2.604 7.256-2.604 7.256 4.636-.475 6.923-4.753 5.62-8.175a2.23 2.23 0 0 1 2.001.602c.318-.95-.19-2.059-.92-3.01.57-.317 1.015-.126 1.904.064-.063-.951-.635-2.028-2.095-3.01 4.191 1.077 6.731-1.807 6.731-4.848 0-2.313-1.587-3.961-3.175-3.961-.508 0-1.27.222-1.683.539-.317-.634-.127-1.49.159-2.123-1.143.317-1.905 1.014-1.365 2.439-.89.064-1.588.381-2.064.951.476.634 1.206.951 2.063.951-.634 1.33.096 2.059 1.144 2.661 0 0-.667-2.661 1.016-2.661.762 0 1.46.221 1.46 1.362 0 .982-.857 2.345-2.857 2.25-1.97-.095-3.589-1.363-3.589-4.531 0-2.915 2.382-4.373 5.494-4.436 2.794-.127 4.922 1.394 4.922 4.277 0 3.866-5.557 12.611-5.557 16.033 0 2.567 2.286 4.024 4.572 4.024 2.921 0 5.398-2.915 5.398-2.915l-1.715-2.155z"/><path fill="#FFEC2D" d="M47.687 215.874c0-6.432-5.78-9.727-10.32-9.727-6.096 0-9.367 3.643-9.367 8.428 0 2.693.508 4.404 1.746 6.971l14.035 29.055a8.54 8.54 0 0 1 .635 3.866c0 2.598-2.54 4.721-5.175 4.753-2.414.095-5.081-2.218-5.081-4.848 0-3.2 1.683-4.626 3.398-4.626 2.095 0 2.92.855 2.92 2.344 0 1.014-.475 1.458-1.206 1.458-1.81 0-1.27-2.408-1.27-2.408a1.65 1.65 0 0 0-1.142.818 1.65 1.65 0 0 0-.096 1.4 3.24 3.24 0 0 0-1.747 1.045c.477.476 1.048.824 1.747.951-.413 1.394.158 2.06 1.365 2.376a2.4 2.4 0 0 1-.159-1.52c1.906.57 4.859-.317 4.859-3.613s-2.287-6.052-6.573-5.386c1.016-.475 1.524-1.458 1.65-2.567-.793.317-1.65.317-1.65.317.508-.855 1.206-1.584 1.175-3.358-.794.38-1.556 1.045-2.54.633 1.587-3.168-.382-7.477-5.399-8.491 1.842 2.154 2.731 4.436 2.731 6.749 0 7.446-2.064 8.681-2.064 13.878a7.6 7.6 0 0 0 3.334 6.083v-.095a4.45 4.45 0 0 0-2.953 2.123c3.537.973 7.277.94 10.796-.095a7.95 7.95 0 0 0 5.716-3.802 11.4 11.4 0 0 0 0-9.157c-2-4.119-11.336-23.954-14.257-30.165-.635-1.33-.985-2.725-.985-4.245 0-3.803 3.493-5.134 5.462-5.134 2.381 0 4.826 1.807 4.826 4.056 0 1.426-.794 2.313-1.905 2.313-2.699 0-2.54-2.281-2-3.739-1.683.761-2.636 2.092-2.382 3.486a4.45 4.45 0 0 0-2.667 1.521c.635.823 1.46 1.457 2.667 1.489-.54 2.186.953 3.105 2.382 3.612-.445-1.584-.762-3.454 2-3.454 2 0 3.556-.317 4.477-1.647l.222 8.555c.127 2.566-3.429 2.535-5.715 1.742.857 2.947 2.604 4.563 6.668 4.151a3.164 3.164 0 0 0-2.032 3.105c0 2.408 1.969 5.07 3.239 5.862l.635-25.031z"/><path fill="#FFEC2D" d="M47.687 196.609c0 6.433-5.78 9.728-10.32 9.728-6.096 0-9.367-3.644-9.367-8.429 0-2.693.508-4.404 1.746-6.97l14.035-29.056a8.5 8.5 0 0 0 .635-3.865c0-2.599-2.54-4.722-5.175-4.753-2.414-.095-5.081 2.218-5.081 4.848 0 3.2 1.683 4.626 3.398 4.626 2.095 0 2.92-.856 2.92-2.345 0-1.014-.475-1.458-1.206-1.458-1.81 0-1.27 2.409-1.27 2.409a1.655 1.655 0 0 1-1.347-1.508c-.017-.242.02-.484.109-.71a3.25 3.25 0 0 1-1.747-1.046c.477-.475 1.048-.824 1.747-.951-.413-1.394.158-2.059 1.365-2.376a2.4 2.4 0 0 0-.159 1.521c1.906-.57 4.859.317 4.859 3.612s-2.287 6.052-6.573 5.387c1.016.475 1.524 1.457 1.65 2.566-.793-.317-1.65-.317-1.65-.317.508.856 1.206 1.584 1.175 3.359-.794-.38-1.556-1.046-2.54-.634 1.587 3.169-.382 7.478-5.399 8.492 1.842-2.155 2.731-4.436 2.731-6.749 0-7.446-2.064-8.682-2.064-13.878a7.612 7.612 0 0 1 3.334-6.084v.095A4.45 4.45 0 0 1 30.54 150a19.7 19.7 0 0 1 10.796.095 7.93 7.93 0 0 1 5.716 3.802 11.4 11.4 0 0 1 0 9.158c-2 4.119-11.336 23.954-14.257 30.164-.635 1.331-.985 2.725-.985 4.246 0 3.802 3.493 5.133 5.462 5.133 2.381 0 4.826-1.806 4.826-4.056 0-1.426-.794-2.313-1.905-2.313-2.699 0-2.54 2.282-2 3.739-1.683-.76-2.636-2.091-2.382-3.485a4.45 4.45 0 0 1-2.667-1.521c.635-.824 1.46-1.458 2.667-1.489-.54-2.187.953-3.106 2.382-3.613-.445 1.585-.762 3.454 2 3.454 2 0 3.556.317 4.477 1.648l.222-8.555c.127-2.567-3.429-2.535-5.715-1.743.857-2.947 2.604-4.563 6.668-4.151a3.17 3.17 0 0 1-2.032-3.105c0-2.408 1.969-5.07 3.239-5.862l.635 25.032zM47.052 285.297s3.048 2.598 4.096 1.299c1.65-2.06-5.144-12.357-5.144-15.97 0-5.956 4-7.572 8.89-8.396 3.303-.57 8.669.222 8.669.222-1.016 1.362-1.683 1.774-3.366 1.869 1.905.951 3.81 3.105 3.81 6.432 0 5.102-2.095 7.224-2.095 12.991 0 3.137 2.604 7.256 2.604 7.256-4.636-.475-6.923-4.753-5.62-8.175a2.23 2.23 0 0 0-2.001.602c-.318-.95.19-2.059.92-3.01-.57-.317-1.015-.126-1.904.064.063-.951.635-2.028 2.095-3.01-4.191 1.077-6.731-1.807-6.731-4.848 0-2.313 1.587-3.961 3.175-3.961.508 0 1.27.222 1.683.539.317-.634.127-1.49-.159-2.123 1.143.317 1.905 1.014 1.366 2.439.889.064 1.587.381 2.063.951-.476.634-1.206.951-2.063.951.634 1.33-.096 2.059-1.144 2.661 0 0 .667-2.661-1.016-2.661-.762 0-1.46.221-1.46 1.362 0 .982.857 2.345 2.857 2.25 1.97-.095 3.589-1.363 3.589-4.531 0-2.915-2.382-4.373-5.494-4.436-2.794-.127-4.921 1.394-4.921 4.277 0 3.866 5.556 12.611 5.556 16.033 0 2.567-2.286 4.024-4.572 4.024-2.921 0-5.398-2.915-5.398-2.915l1.715-2.155z"/><path fill="#FFEC2D" d="M46.417 215.874c0-6.432 5.779-9.727 10.32-9.727 6.096 0 9.366 3.643 9.366 8.428 0 2.693-.507 4.404-1.746 6.971l-14.035 29.055a8.54 8.54 0 0 0-.635 3.866c0 2.598 2.54 4.721 5.176 4.753 2.413.095 5.08-2.218 5.08-4.848 0-3.2-1.682-4.626-3.397-4.626-2.096 0-2.921.855-2.921 2.344 0 1.014.476 1.458 1.206 1.458 1.81 0 1.27-2.408 1.27-2.408a1.64 1.64 0 0 1 1.142.818 1.65 1.65 0 0 1 .097 1.4c.68.152 1.292.519 1.746 1.045-.476.476-1.048.824-1.746.951.412 1.394-.159 2.06-1.366 2.376a2.4 2.4 0 0 0 .16-1.52c-1.906.57-4.859-.317-4.859-3.613s2.286-6.052 6.573-5.386c-1.016-.475-1.524-1.458-1.651-2.567.793.317 1.65.317 1.65.317-.507-.855-1.206-1.584-1.174-3.358.794.38 1.556 1.045 2.54.633-1.587-3.168.381-7.477 5.398-8.491-1.842 2.154-2.73 4.436-2.73 6.749 0 7.446 2.063 8.681 2.063 13.878a7.6 7.6 0 0 1-3.334 6.083v-.095a4.45 4.45 0 0 1 2.953 2.123c-3.537.973-7.276.94-10.796-.095a7.95 7.95 0 0 1-5.715-3.802 11.4 11.4 0 0 1 0-9.157c2-4.119 11.336-23.954 14.257-30.165.635-1.33.984-2.725.984-4.245 0-3.803-3.493-5.134-5.461-5.134-2.382 0-4.827 1.807-4.827 4.056 0 1.426.794 2.313 1.905 2.313 2.7 0 2.54-2.281 2-3.739 1.684.761 2.636 2.092 2.382 3.486a4.45 4.45 0 0 1 2.668 1.521c-.636.823-1.461 1.457-2.668 1.489.54 2.186-.952 3.105-2.381 3.612.444-1.584.762-3.454-2-3.454-2.001 0-3.557-.317-4.478-1.647l-.222 8.555c-.127 2.566 3.43 2.535 5.715 1.742-.857 2.947-2.603 4.563-6.668 4.151a3.163 3.163 0 0 1 2.032 3.105c0 2.408-1.968 5.07-3.238 5.862l-.635-25.031z"/><path fill="#FFEC2D" d="M46.417 196.609c0 6.433 5.779 9.728 10.32 9.728 6.096 0 9.366-3.644 9.366-8.429 0-2.693-.507-4.404-1.746-6.97l-14.035-29.056a8.5 8.5 0 0 1-.635-3.865c0-2.599 2.54-4.722 5.176-4.753 2.413-.095 5.08 2.218 5.08 4.848 0 3.2-1.682 4.626-3.397 4.626-2.096 0-2.921-.856-2.921-2.345 0-1.014.476-1.458 1.206-1.458 1.81 0 1.27 2.409 1.27 2.409a1.655 1.655 0 0 0 1.347-1.508 1.64 1.64 0 0 0-.108-.71 3.25 3.25 0 0 0 1.746-1.046c-.476-.475-1.048-.824-1.746-.951.412-1.394-.159-2.059-1.366-2.376.218.476.273 1.01.16 1.521-1.906-.57-4.859.317-4.859 3.612s2.286 6.052 6.573 5.387c-1.016.475-1.524 1.457-1.651 2.566.793-.317 1.65-.317 1.65-.317-.507.856-1.206 1.584-1.174 3.359.794-.38 1.556-1.046 2.54-.634-1.587 3.169.381 7.478 5.398 8.492-1.842-2.155-2.73-4.436-2.73-6.749 0-7.446 2.063-8.682 2.063-13.878a7.612 7.612 0 0 0-3.334-6.084v.095A4.45 4.45 0 0 0 63.563 150a19.7 19.7 0 0 0-10.796.095 7.93 7.93 0 0 0-5.715 3.802 11.4 11.4 0 0 0 0 9.158c2 4.119 11.336 23.954 14.257 30.164.635 1.331.984 2.725.984 4.246 0 3.802-3.493 5.133-5.461 5.133-2.382 0-4.827-1.806-4.827-4.056 0-1.426.794-2.313 1.905-2.313 2.7 0 2.54 2.282 2 3.739 1.684-.76 2.636-2.091 2.382-3.485a4.45 4.45 0 0 0 2.668-1.521c-.636-.824-1.461-1.458-2.668-1.489.54-2.187-.952-3.106-2.381-3.613.444 1.585.762 3.454-2 3.454-2.001 0-3.557.317-4.478 1.648l-.222-8.555c-.127-2.567 3.43-2.535 5.715-1.743-.857-2.947-2.603-4.563-6.668-4.151a3.17 3.17 0 0 0 2.033-3.105c0-2.408-1.97-5.07-3.24-5.862l-.634 25.032zM300 176.779c23.817 0 43.123-19.389 43.123-43.305 0-23.917-19.306-43.305-43.123-43.305s-43.123 19.388-43.123 43.305 19.307 43.305 43.123 43.305M300 84.28c2.563-.032 3.524-1.64 3.524-3.571 0-2.574-3.524-14.832-3.524-14.832s-3.524 12.258-3.524 14.832c0 1.93.961 3.571 3.524 3.571M348.986 133.474c.032 2.573 1.634 3.539 3.557 3.539 2.563 0 14.769-3.539 14.769-3.539s-12.206-3.539-14.769-3.539c-1.923 0-3.557.965-3.557 3.539M300 182.666c-2.563.032-3.524 1.641-3.524 3.571 0 2.574 3.524 14.832 3.524 14.832s3.524-12.258 3.524-14.832c0-1.93-.961-3.571-3.524-3.571M251.014 133.473c-.032-2.574-1.634-3.539-3.556-3.539-2.563 0-14.77 3.539-14.77 3.539s12.207 3.539 14.77 3.539c1.922 0 3.556-.965 3.556-3.539M318.746 88.025c2.38.955 3.881-.162 4.617-1.945.981-2.378 2.396-15.057 2.396-15.057s-7.927 9.97-8.908 12.348c-.736 1.784-.473 3.669 1.895 4.654M345.257 152.298c-.951 2.391.161 3.898 1.937 4.637 2.368.985 14.994 2.406 14.994 2.406s-9.929-7.961-12.297-8.946c-1.776-.738-3.653-.475-4.634 1.903M281.254 178.921c-2.38-.955-3.881.162-4.617 1.945-.981 2.378-2.396 15.057-2.396 15.057s7.927-9.97 8.908-12.348c.736-1.783.473-3.669-1.895-4.654M254.743 114.648c.951-2.39-.161-3.898-1.937-4.636-2.368-.985-14.993-2.407-14.993-2.407s9.928 7.961 12.296 8.946c1.776.739 3.653.475 4.634-1.903M334.638 98.689c1.835 1.797 3.648 1.342 5.007-.023 1.812-1.82 7.951-12.99 7.951-12.99s-11.123 6.165-12.935 7.985c-1.359 1.365-1.835 3.208-.023 5.028M334.638 168.258c-1.789 1.842-1.336 3.662.023 5.027 1.812 1.82 12.935 7.986 12.935 7.986s-6.139-11.171-7.951-12.991c-1.359-1.365-3.194-1.842-5.007-.022M265.362 168.258c-1.835-1.797-3.648-1.342-5.007.023-1.812 1.82-7.951 12.99-7.951 12.99s11.123-6.165 12.935-7.985c1.359-1.365 1.835-3.208.023-5.028M265.362 98.689c1.789-1.843 1.336-3.663-.023-5.028-1.812-1.82-12.935-7.985-12.935-7.985s6.139 11.17 7.951 12.99c1.359 1.365 3.194 1.843 5.007.023M345.257 114.648c1.011 2.366 2.858 2.642 4.634 1.903 2.368-.985 12.297-8.945 12.297-8.945s-12.626 1.421-14.994 2.406c-1.776.739-2.918 2.258-1.937 4.636M318.746 178.921c-2.356 1.015-2.631 2.871-1.895 4.654.981 2.378 8.908 12.349 8.908 12.349s-1.416-12.68-2.396-15.058c-.736-1.783-2.249-2.93-4.617-1.945M254.743 152.299c-1.011-2.366-2.858-2.642-4.634-1.903-2.368.985-12.297 8.945-12.297 8.945s12.626-1.421 14.994-2.406c1.776-.739 2.918-2.259 1.937-4.636M281.254 88.025c2.355-1.015 2.63-2.87 1.895-4.654-.981-2.378-8.908-12.348-8.908-12.348s1.415 12.679 2.396 15.057c.736 1.783 2.249 2.93 4.617 1.945M309.599 85.234c2.52.473 3.776-.916 4.153-2.809.502-2.524-.562-15.237-.562-15.237s-5.848 11.326-6.35 13.85c-.377 1.893.246 3.692 2.759 4.196M348.037 143.112c-.471 2.53.912 3.792 2.797 4.17 2.513.505 15.173-.564 15.173-.564s-11.279-5.872-13.792-6.377c-1.885-.378-3.676.247-4.178 2.771M290.402 181.712c-2.52-.472-3.776.916-4.153 2.809-.502 2.524.562 15.238.562 15.238s5.847-11.327 6.35-13.851c.376-1.893-.246-3.691-2.759-4.196M251.964 123.834c.471-2.53-.912-3.792-2.797-4.17-2.513-.504-15.173.564-15.173.564s11.279 5.873 13.792 6.377c1.885.378 3.676-.247 4.178-2.771M327.251 92.596c2.147 1.405 3.837.605 4.906-.999 1.426-2.139 5.288-14.294 5.288-14.294s-9.719 8.218-11.145 10.356c-1.069 1.605-1.179 3.505.951 4.937M340.707 160.839c-1.399 2.157-.603 3.854.994 4.928 2.13 1.432 14.234 5.31 14.234 5.31s-8.183-9.76-10.313-11.192c-1.597-1.074-3.49-1.184-4.915.954M272.749 174.353c-2.147-1.405-3.837-.606-4.906.999-1.426 2.138-5.288 14.293-5.288 14.293s9.719-8.217 11.145-10.356c1.069-1.604 1.179-3.504-.951-4.936M259.293 106.109c1.399-2.157.603-3.854-.994-4.928-2.13-1.432-14.234-5.31-14.234-5.31s8.183 9.76 10.313 11.192c1.597 1.074 3.49 1.184 4.915-.954M340.754 106.178c1.449 2.124 3.315 2.034 4.914.963C347.8 105.713 356 95.967 356 95.967s-12.11 3.857-14.243 5.285c-1.599 1.071-2.425 2.785-1.003 4.926M327.18 174.399c-2.115 1.455-2.025 3.328-.959 4.934 1.422 2.142 11.127 10.376 11.127 10.376s-3.841-12.161-5.263-14.303c-1.067-1.606-2.773-2.435-4.905-1.007M259.246 160.768c-1.449-2.124-3.315-2.034-4.914-.963C252.2 161.233 244 170.979 244 170.979s12.11-3.857 14.243-5.286c1.599-1.071 2.425-2.784 1.003-4.925M272.821 92.547c2.115-1.455 2.025-3.328.959-4.934-1.422-2.142-11.127-10.376-11.127-10.376s3.841 12.162 5.263 14.303c1.067 1.606 2.773 2.435 4.905 1.007M348.054 123.919c.529 2.518 2.287 3.153 4.173 2.778 2.514-.5 13.803-6.353 13.803-6.353s-12.658-1.091-15.172-.591c-1.886.375-3.302 1.641-2.804 4.166M309.515 181.729c-2.508.532-3.139 2.297-2.766 4.191.498 2.525 6.326 13.862 6.326 13.862s1.086-12.712.588-15.237c-.373-1.893-1.634-3.315-4.148-2.816M251.947 143.028c-.529-2.518-2.287-3.153-4.173-2.778-2.514.5-13.803 6.353-13.803 6.353s12.658 1.091 15.172.591c1.886-.375 3.302-1.641 2.804-4.166M290.486 85.217c2.508-.532 3.139-2.297 2.766-4.191-.498-2.525-6.326-13.862-6.326-13.862s-1.086 12.712-.588 15.237c.373 1.894 1.634 3.316 4.148 2.816"/><path fill="#FFEC2D" d="M298.521 209.081c-1.121 2.027-1.794 4.375-3.204 6.209-4.357-3.957-10.636-3.861-16.147-4.086-4.549-.257-9.483-.676-13.007-3.925-3.684-3.056-6.728-6.982-10.829-9.459a26.6 26.6 0 0 1-10.604-4.922c-6.472-5.309-10.188-13.191-16.532-18.661-1.185-1.158-2.627-2.091-3.973-3.089-1.281.322-.704 3.089-2.274 1.673-.865-.643-3.012-.675-3.204.194 1.922 2.573 3.877 5.469 4.165 8.751-1.346.128-3.684-.29-4.325.193a27 27 0 0 0 6.536 6.853c-1.218.193-3.621.096-4.101.579a18.9 18.9 0 0 0 8.586 4.729c.641.901-.993 2.638.416 3.41.801.322 3.492.901 1.634 1.834-1.281.837-.801 2.864.833 2.799 1.025.547 3.332.644 3.524 1.609-.929.901-3.748 1.995-1.345 2.896a16.6 16.6 0 0 0 7.401 2.155c-1.282 1.094-2.884 1.705-4.197 2.735 5.927 3.507 12.494 5.791 19.03 8.043 2.563.837 5.222 1.641 7.913 2.156-7.817-.451-15.378-2.767-22.49-5.952-3.684-1.609-7.369-3.185-11.149-4.569 1.634-.868 3.556-1.094 5.286-1.834-3.588-.707-7.465-.965-10.573-2.895.449-.901 2.243-.933 3.268-1.384 1.923-.45 3.076-.965.417-1.158-2.691-.74-5.767-.418-8.17-2.027.16-.965 2.659-.643 3.652-1.061 1.282-.226 2.692-.419 3.717-1.287-4.165-1.706-9.611-.483-12.879-4.183-.737-1.416 2.338-.289 3.203-.515 2.243 0 4.646.708 6.792-.193-6.087-2.67-12.59-5.147-17.204-10.102-.512-.804-2.05-2.992-.801-3.25 3.588.483 6.183 4.408 10.06 3.797.513-.676-2.243-1.802-2.947-2.799a73.7 73.7 0 0 1-14.994-16.409c-.256-2.155 3.043-2.477 3.908-.836 4.294 4.182 8.17 9.008 13.52 11.84 1.923.933-1.089-1.094-1.473-1.834a96 96 0 0 1-13.104-18.629c-.641-1.222-1.634-3.442.225-4.086 1.826-.933 3.684.322 4.613 1.931 3.62 4.601 6.311 10.07 10.829 13.899-3.845-7.497-7.978-15.443-8.074-24.066.096-1.673.192-4.182 2.467-4.15 1.922-.29 1.602 2.155 2.243 3.314 1.858 6.37 2.659 13.255 6.407 18.853-.801-4.697-2.05-9.555-1.217-14.349.192-1.609 1.922-2.059 3.108-1.094.929 2.252 1.121 5.116 1.954 7.561a76.23 76.23 0 0 0 29.795 40.924 78.2 78.2 0 0 0 39.503 13.609c1.281.129 2.563.161 3.812.226m43.7 29.309c-2.307 1.416-4.101-1.094-6.023-1.834-1.41.773-1.538 3.282-2.82 4.505-1.537 1.769-3.46-.515-3.299-2.252-1.859 1.576-2.788 5.147-5.767 4.632-1.442-1.158-2.499-3.603-3.589-.804-.865 1.351-3.203 3.282-4.453 1.223-.384-1.802-1.281-3.925-2.242-1.062-.705 2.059-2.884 3.539-4.934 2.638-1.154-.933.897-4.407-.545-4.182-2.178 1.48-3.46 5.051-6.504 4.761-1.185-1.287.737-3.571-.576-5.051-1.506 1.963-3.204 4.858-5.863 5.051-1.282-1.029.064-4.021-.769-4.44-2.691 1.609-5.575 4.537-8.971 3.636 1.314-5.148 6.888-6.917 11.534-7.303 8.041-.998 16.499.836 24.253-2.092 1.249-.772 4.261-1.833 3.203-3.603-.961-1.416 2.467-.869 2.788-2.509-.193-2.06 1.602-1.77 3.332-1.931 7.817-.354 15.538 1.287 23.323 1.577.577 3.796-3.62 6.466-7.048 5.308-1.602.258-4.005-3.732-3.524-.836-.321 1.544-.128 3.539-1.506 4.568m-66.447-7.786c1.795 1.641 3.076-.321 4.774-1.061a63 63 0 0 0 15.474-8.784c2.948-2.445 5.511-5.63 9.484-6.434 7.753-2.349 15.986-2.059 23.74-4.247 5.927-8.108 15.954-11.036 24.38-15.701 1.891-.579 2.627-2.155 3.204-3.86 3.204-5.116 7.593-9.62 12.783-12.709a11.88 11.88 0 0 1 8.138-1.48 13.66 13.66 0 0 1-4.389 8.526c1.89-.032 3.524-1.223 5.382-1.158.641 3.41-3.012 5.18-4.966 7.303 1.089.258 5.254.579 2.98 1.673-2.884 1.995-6.184 3.378-8.843 5.727 2.467.45 2.756.965.257 1.866-1.378.901-3.973 1.223-4.229 3.024 1.858 1.159-.833 2.252-1.891 2.639-1.986.482-4.101 1.351-1.441 2.895-.994 1.512-3.172 1.834-4.934 1.673.544 1.737 1.313 3.668-.897 4.44a34.44 34.44 0 0 1-17.173 7.207c7.85.579 15.955-.869 22.651-5.148.897-1.062 5.543-2.22 2.948-3.089-1.218-.514-3.845-1.093-4.037-2.026 3.652-2.253 8.234-1.448 12.142-2.767.096-1.287-2.979-.933-4.133-1.223-2.723-.225-2.563-.933.064-1.19 3.332-.901 7.113-1.062 9.932-3.218-2.274-1.094-5.158-.161-7.593-1.029 4.133-1.802 9.003-1.995 12.719-4.73 1.698-1.898-2.178-1.287-3.3-1.254-2.274.418-3.332-.708-.737-1.641 4.454-3.314 10.06-5.438 13.2-10.199.737-1.062 1.73-4.279-.641-3.153-3.075 1.062-5.799 4.536-9.355 3.475 6.985-5.438 13.584-11.583 18.358-19.079.256-2.188-3.14-2.413-4.005-.708-4.485 4.311-8.522 9.427-14.257 12.162a90.2 90.2 0 0 0 13.969-18.146c.865-1.931 3.14-4.279 1.922-6.435-2.018-1.673-4.517-.128-5.542 1.834-3.492 4.569-6.12 9.877-10.573 13.609 3.877-7.496 7.946-15.507 8.01-24.13 0-1.801-.321-4.439-2.756-4.086-1.922.322-1.441 3.218-2.242 4.666-1.73 5.919-2.563 12.322-6.088 17.47.801-4.794 2.179-9.813 1.122-14.639-.513-2.188-4.005-1.255-3.524.901-4.165 21.202-18.358 39.734-36.844 50.447-8.49 4.826-17.941 7.915-27.617 9.33-2.563.547-5.382.226-7.849 1.127-6.023 4.6-9.643 12.354-17.236 14.767-3.428 1.705-7.849 2.059-10.284 5.212a2.8 2.8 0 0 0-.257 1.351m16.564-3.313c-1.153.064-2.275.193-3.396.546-1.506.226-2.948.74-4.421.966l-.609.128-.993.097a3.5 3.5 0 0 1 0 1.641 1.9 1.9 0 0 1-.449.643 1.74 1.74 0 0 1-.705.579c-.26.129-.543.205-.833.226-.288 0-.576 0-.865-.129a2.3 2.3 0 0 1-.8-.483l-.898.161h-.833l-.897-.322a5 5 0 0 1-.833-.418c-1.089.644-2.306 1.255-2.979 2.381a3.56 3.56 0 0 0-.513 1.705c-.064.772.128 1.544.449 2.252.128.193.224-.74.577-.868.608-.515 1.377-.869 2.146-1.062.641-.322.545 0 .288.515-.064.289-.416 1.287.064.772a20.8 20.8 0 0 1 6.921-1.319c3.396-.354 6.792-.451 10.188-.483l9.611.193c1.538.064 3.076.386 4.581.129.353-.097.93-.097 1.154-.322-.705-.386-1.506-.418-2.243-.515h-6.119c-1.698-.161-3.46-.193-5.062-.836-.449-.161-.833-.579-1.25-.129a7.7 7.7 0 0 1-1.89.418c-1.121.065-2.242-.161-3.268-.579.737-1.029 1.634-1.93 2.467-2.895l-1.986-.419c1.185-.804 2.243-1.737 3.396-2.573"/><path fill="#FFEC2D" d="M280.644 231.055a.77.77 0 0 0 .769-.772.77.77 0 1 0-1.538 0c0 .426.345.772.769.772"/><path fill="#FFEC2D" stroke="#FFEC2D" stroke-width=".128" d="M280.58 230.475a.321.321 0 0 0 0-.642.32.32 0 0 0 0 .642Z"/></g><defs><clipPath id="a"><path fill="#fff" d="M0 0h600v300H0z"/></clipPath></defs></svg>