<svg xmlns="http://www.w3.org/2000/svg" width="600" height="300" fill="none"><g clip-path="url(#a)"><path fill="#fff" d="M0 0h600v300H0z"/><path fill="red" d="M0 0h600v300H0z"/><path fill="#FF0" fill-rule="evenodd" d="M194.07 153.399c9.531-11.634 29.365-.28 45.554-8.62-19.203 1.051-29.645-9.251-44.783-7.779 15.699-9.672 29.084 3.153 46.605-1.963-23.197-1.962-22.216-12.404-43.381-13.876 18.782-7.989 28.033 8.27 46.465 4.555-21.726-4.975-24.529-17.731-40.648-20.464 23.547-3.504 22.006 10.372 45.063 12.054-23.408-10.021-17.311-18.782-36.864-26.42 21.936-.491 20.464 14.717 42.751 18.641-19.063-12.054-16.75-23.057-32.378-31.677 18.571.35 20.324 19.343 39.316 25.23-16.89-13.386-12.475-24.74-27.052-36.724 18.502 4.346 15.769 20.745 35.041 31.257-14.297-15.838-8.83-27.192-21.235-40.157 17.801 5.677 11.003 21.305 29.435 36.162-10.512-17.45-3.995-28.593-14.437-43.24 16.539 8.48 8.55 24.458 23.828 40.297-7.218-17.871 0-28.944-7.359-44.783 14.157 10.513 5.747 27.543 17.171 43.802-4.205-22.427 5.466-26.07 2.453-45.694 10.722 13.176-1.262 26.351 7.008 45.764-1.051-22.076 10.722-27.192 8.69-44.853 10.583 15.839-5.957 29.645.981 46.605 1.752-20.885 15.488-26.351 15.699-42.61 8.41 14.927-9.812 25.72-6.868 45.554 5.957-21.866 20.604-24.53 22.426-39.247 4.976 17.24-14.998 25.23-13.806 44.433 5.957-19.413 24.248-21.726 28.033-36.023 2.313 18.222-15.699 21.515-20.815 41.699 9.461-16.47 26.071-17.8 33.5-30.836-.561 18.081-20.885 20.464-27.122 37.354 11.704-14.367 26.421-11.914 38.125-24.599-1.262 16.329-21.936 15.418-32.939 32.308 12.685-11.704 31.817-8.2 41.559-18.291-.491 14.437-25.861 13.315-37.845 26.281 14.718-8.13 33.5-3.364 44.293-10.863-1.963 12.615-28.734 9.671-41.559 19.623 17.66-4.906 31.326 2.593 45.553-2.803-6.938 12.264-31.257 4.485-44.152 12.474 15.418-2.593 31.678 6.728 45.624 3.715-4.555 10.652-31.257-.701-45.554 5.957 17.1-.141 28.244 10.862 44.152 10.092-8.62 9.671-32.027-3.575-45.694-1.332 16.68 3.504 29.435 17.24 42.05 17.941-10.442 7.919-29.785-10.162-45.554-7.919 16.26 4.345 29.856 22.777 39.106 23.197-10.021 6.868-29.785-15.768-43.311-14.927 16.47 7.428 23.969 26.281 34.831 28.944-13.385 4.275-26.561-20.464-40.928-21.376 16.68 10.513 17.591 26.632 30.416 33.78-13.526 3.294-23.127-24.669-37.354-27.052 13.666 10.022 15.769 31.538 24.809 38.266-13.736.7-18.712-28.524-32.798-32.729 12.054 10.092 9.18 31.958 18.571 41.349-14.296-3.014-12.474-28.454-27.402-37.074 10.723 13.596 5.256 32.869 12.265 43.732-13.947-5.607-7.92-28.454-21.165-41.349 7.218 14.437-.561 31.257 5.186 45.203-12.755-6.237-4.205-33.219-13.947-43.942 4.486 16.68-3.784 30.486-.42 45.414-13.036-15.068 1.962-30.276-9.321-45.624 2.943 17.591-9.391 29.925-7.429 44.643-10.302-12.055 5.607-31.327-2.453-46.535 1.682 17.31-14.227 32.518-13.105 43.451-8.41-14.016 9.321-30.556 4.555-46.465-.981 16.54-17.1 25.51-20.114 40.578-5.396-16.609 13.737-28.594 12.055-44.923-5.467 15.488-21.025 21.726-26.492 36.794-4.485-16.61 18.222-25.37 18.783-42.751-7.009 16.259-25.581 19.904-31.748 32.378-2.313-16.469 23.688-23.828 24.669-39.456-8.41 14.997-28.734 15.628-35.742 27.542-1.051-16.399 26.351-18.431 30.626-35.602-8.34 12.755-30.626 11.143-39.947 21.516 1.472-15.208 31.117-16.119 35.882-29.856-11.073 10.653-31.537 6.308-43.1 14.718 6.447-14.998 34.27-11.844 40.507-22.637-12.264 6.378-34.06.14-44.853 6.588 9.812-14.157 31.397-5.677 43.662-15.418-19.904 2.873-31.888-5.046-45.694-1.402z" clip-rule="evenodd"/><path fill="#FF0" fill-rule="evenodd" d="M369.628 149.894a69.56 69.56 0 0 1-118.742 49.185 69.56 69.56 0 0 1-20.372-49.185 69.52 69.52 0 1 1 139.044 0z" clip-rule="evenodd"/><path fill="red" fill-rule="evenodd" d="M360.656 150.035a60.48 60.48 0 0 1-103.248 42.767 60.48 60.48 0 1 1 85.533-85.534 60.48 60.48 0 0 1 17.715 42.767" clip-rule="evenodd"/><path fill="#FF0" fill-rule="evenodd" d="M352.247 150.175a51.93 51.93 0 0 1-51.931 51.931 51.932 51.932 0 1 1 51.931-51.931" clip-rule="evenodd"/><path fill="red" fill-rule="evenodd" d="M256.094 116.186c14.367-.351 32.238.981 44.082 10.372a68.05 68.05 0 0 1 42.4-10.022l7.709 14.087a70.8 70.8 0 0 0-35.041 5.746 59.777 59.777 0 0 1 24.248 50.53c-1.892 2.383-4.905 4.976-6.798 7.359 2.804-19.974-7.709-42.26-23.057-53.964 12.475 17.941 19.834 34.06 17.801 56.346l-7.008 4.486c3.224-19.623-1.402-42.751-15.909-56.066 8.41 12.264 16.68 34.34 11.494 56.767-2.243.7-5.747 2.593-7.99 3.223a67.269 67.269 0 0 0-7.569-55.155c-9.671 13.877-12.825 35.042-7.358 54.665-2.663-.701-4.696-1.542-7.429-2.173-3.995-21.025 1.542-44.853 11.143-57.257-9.811 5.676-18.992 29.925-16.399 54.664l-6.518-3.013c-3.154-18.432 5.186-42.47 17.17-56.347-13.596 8.55-24.669 29.645-22.777 52.282-2.102-1.822-3.994-2.733-6.097-4.626-2.383-19.763 9.111-39.666 22.497-51.58-11.284-5.117-21.025-6.098-35.042-5.887 2.173-4.556 4.205-9.882 6.448-14.508z" clip-rule="evenodd"/></g><defs><clipPath id="a"><path fill="#fff" d="M0 0h600v300H0z"/></clipPath></defs></svg>