<svg xmlns="http://www.w3.org/2000/svg" width="600" height="300" fill="none"><g clip-path="url(#a)"><mask id="b" width="600" height="300" x="0" y="0" maskUnits="userSpaceOnUse" style="mask-type:luminance"><path fill="#fff" d="M.03 0H599.97v300H.029z"/></mask><g fill-rule="evenodd" clip-rule="evenodd" mask="url(#b)"><path fill="#EE161F" d="M0 225h600v75H0zM0 0h600v75H0z"/><path fill="#fff" d="M0 75h600v150H0z"/><path fill="#fff" stroke="#fff" stroke-linecap="round" stroke-linejoin="round" stroke-width="3" d="M271.875 177.539c1.67-3.574 3.867-6.797-6.328-9.902-10.195-3.106 5.098 12.363 6.328 9.961zm12.041-7.207c-2.021.176-3.164 5.156.967 6.563 4.57.468.879-6.504-.967-6.563m11.865-.586c-2.109.469-2.197 7.5 5.274 6.211 7.558-1.23 0-6.738-5.274-6.152zm13.887-17.988c1.582-1.758-.088-8.789-6.504-5.859-6.504 2.988 4.395 6.328 6.504 5.859m-14.063-5.859c2.022-.528 2.198-4.864-3.515-3.692-5.537 1.113 2.021 4.57 3.515 3.692m-12.656 1.699s-3.955-3.633-7.031-2.871c-3.779 2.461 7.295 2.929 7.031 2.871m-43.594 11.601c1.67.117 14.063-1.347 18.37-4.57 4.306-3.223-22.061 1.348-22.061 1.406 0 .059 2.461 2.871 3.691 3.164m124.014-20.508c.615-.761-6.592-4.16-10.898-2.812-1.143 2.52 10.898 3.34 10.898 2.812m-24.433-8.203c1.406-1.289-3.077-6.621-12.041-3.632-8.965 2.929 9.404 5.742 12.041 3.691zm-28.213-3.105s2.197-4.805 7.558-3.867c6.153 3.105-7.295 4.043-7.558 3.867m-5.274-3.633c-.879-1.348-6.416-.586-12.832 2.285-6.504 2.754 14.766.821 12.832-2.344zm16.436-12.949s5.713-1.758 7.47 0c2.374 2.519-7.558 0-7.47 0m-4.834-1.699c-1.143-1.524-7.471-1.7-7.295.586-1.055 1.757 8.262 1.406 7.295-.586m-15.117 0c-.616-.879-9.668 0-12.305 3.632 4.394 1.407 14.326-1.347 12.305-3.632m-19.336 3.691s-11.778 4.863-12.569 8.379c.352 3.047 14.766-5.508 14.766-5.508s1.23-3.398-2.109-2.871zm-13.096-4.394c.352-.997 5.889-3.282 6.328-3.106.44.996-4.482 3.691-6.328 3.106m3.779 18.515c.264-1.465-14.062-1.348-8.701 3.047 4.57 3.691 9.668-2.402 8.701-3.047m-13.183 6.27c-.703-.938-1.758-3.516-3.692-3.75-1.67 0-10.283 1.172-10.986 2.109-.352.762 3.603 5.508 4.922 5.625 1.582.41 9.58-3.516 9.844-3.984zm77.695 32.343c.439-1.054 15.205-4.394 20.215-1.171 5.976 5.449-20.567 2.929-20.215 1.171m40.43 6.387c3.252-3.633-9.932-7.969-15.469-3.808 1.933 4.98 12.832 6.796 15.469 3.808"/></g><path fill="#00A850" d="M296.061 76.058c-4.523 9.003-7.539 9.003-15.077 15.102-3.016 2.963-7.539 4.473-1.508 7.551-6.089 2.962-9.104 4.473-12.12 10.513l1.508 1.511s5.799-2.788 6.031-1.511c1.044 1.22-7.539 5.809-8.641 6.564l-6.378 4.066c-7.597 5.983-12.178 4.473-16.643 13.534l15.077-1.51c3.015 10.571-7.539 12.081-15.077 16.612l-12.12 7.551c3.074 10.571 12.12 4.53 19.658 1.51l1.508 1.51v3.021l-15.077 7.551s-17.861 10.223-18.15 10.571c-.116.581 0 3.02 0 3.02 6.03 1.511 15.077 3.021 21.165 0 7.539-3.02 9.047-6.04 18.093-6.04a58.3 58.3 0 0 1-30.154 12.081v6.041c9.046 0 15.077 0 22.615-1.51l19.601-6.041c4.523 0 9.104 4.531 7.538 9.061-4.465 16.613-22.615 13.592-28.646 27.184l24.123-9.119c6.031-3.021 12.062-5.983 19.6-4.473 9.046 3.021 9.046 9.061 21.108 12.082l-3.015-7.551c3.015 1.51 6.031 1.51 9.104 3.02 7.539 3.021 9.046 6.041 18.092 4.531-7.538-9.061-9.046-7.551-15.077-13.592-6.03-9.061-9.104-22.653 0-24.163l10.554 3.02c10.554 1.51 10.554-1.51 25.631 4.531 9.105 3.02 12.12 7.551 22.616 4.53-4.465-10.571-21.05-18.122-31.662-21.143 12.12-7.551 9.046 3.021 25.689-1.51v-3.02c-12.004-9.119-16.585-16.67-33.169-16.67l25.689-3.021v-3.02s-25.341-6.622-25.921-6.912c.174-.755.811-1.917 2.493-2.614 4.813 3.136 19.31 2.788 20.18 2.73-.464-3.718-7.364-6.796-13.337-9.817 0 0-25.921-15.973-26.037-17.367.522-4.066 10.612.639 21.456 3.776-3.016-6.041-9.047-9.062-15.077-10.572l9.046-1.51c-6.031-13.592-21.108-12.082-30.154-18.122-6.089-4.531-6.089-7.552-15.135-12.024z"/><path fill="#fff" fill-rule="evenodd" stroke="#fff" stroke-linecap="round" stroke-linejoin="round" stroke-width="3" d="M279.766 176.545c1.102-3.543 2.552-6.738-4.175-9.816s3.364 12.256 4.175 9.874zm7.945-7.144c-1.334.174-2.088 5.111.638 6.505 3.015.465.58-6.447-.638-6.505m7.828-.581c-1.391.464-1.449 7.435 3.48 6.157 4.987-1.22 0-6.68-3.48-6.099zm9.163-17.832c1.043-1.743-.058-8.713-4.292-5.809-4.291 2.963 2.9 6.273 4.292 5.809m-9.279-5.809c1.334-.523 1.45-4.821-2.319-3.659-3.653 1.104 1.334 4.531 2.319 3.659m-8.35 1.685s-2.61-3.602-4.639-2.846c-2.494 2.439 4.813 2.904 4.639 2.846m-28.762 11.5c1.101.117 9.278-1.335 12.119-4.53 2.842-3.195-14.555 1.336-14.555 1.394s1.624 2.846 2.436 3.136m81.822-20.329c.406-.755-4.349-4.124-7.191-2.788-.754 2.497 7.191 3.311 7.191 2.788m-16.121-8.132c.928-1.278-2.03-6.564-7.945-3.601-5.914 2.904 6.205 5.692 7.945 3.659zm-18.615-3.079s1.45-4.762 4.987-3.833c4.06 3.078-4.813 4.008-4.987 3.833m-3.479-3.601c-.58-1.336-4.233-.581-8.466 2.266-4.291 2.73 9.742.813 8.466-2.324zm10.844-12.837s3.769-1.742 4.929 0c1.566 2.498-4.987 0-4.929 0m-3.189-1.684c-.754-1.51-4.929-1.684-4.813.581-.696 1.742 5.45 1.394 4.813-.581m-9.974 0c-.406-.871-6.379 0-8.119 3.601 2.9 1.394 9.452-1.336 8.119-3.601m-12.758 3.659s-7.77 4.821-8.292 8.306c.232 3.021 9.742-5.459 9.742-5.459s.812-3.369-1.392-2.847zm-8.64-4.356c.232-.987 3.885-3.253 4.175-3.078.29.987-2.958 3.659-4.175 3.078m2.493 18.355c.174-1.452-9.278-1.336-5.741 3.02 3.016 3.66 6.379-2.381 5.741-3.02m-8.698 6.215c-.464-.929-1.16-3.485-2.436-3.718-1.101 0-6.784 1.162-7.248 2.091-.232.756 2.377 5.46 3.247 5.577 1.044.406 6.321-3.485 6.495-3.95zm51.262 32.063c.29-1.046 10.032-4.357 13.337-1.162 3.944 5.402-13.569 2.904-13.337 1.162m26.675 6.331c2.145-3.601-6.553-7.9-10.206-3.776 1.276 4.938 8.466 6.738 10.206 3.776" clip-rule="evenodd"/></g><defs><clipPath id="a"><path fill="#fff" d="M0 0h600v300H0z"/></clipPath></defs></svg>