<svg xmlns="http://www.w3.org/2000/svg" width="600" height="300" fill="none"><g clip-path="url(#a)"><path fill="#fff" d="M0 0h600v300H0z"/><path fill="#009543" d="M0 210h600v90H0z"/><path fill="#00209F" d="M0 0h600v90H0z"/><path fill="#000" stroke="#000" d="M299.5 96.064c-1.688 0-3.375 1.875-3.375 1.875l.187 20.25-6.437 6.688h5.187v11.562l-30.625 41.25-4.5-1.625L252 192.939s19.562 12.25 47.937 11.875c31.125-.312 48.063-12.437 48.063-12.437l-8.125-16.625-4.062 1.75-31.001-41v-11.938h5.125l-6.999-6.625V97.814s-1.688-1.875-3.438-1.812z"/><path stroke="#000" stroke-width="5" d="M310.187 144.439H289s-7.625-16.187-6.438-27.5c1.25-11.5 7.875-16.937 16.625-17.062 10.375-.063 15.75 5.062 17.375 16.625 1.625 11.437-6.375 27.937-6.375 27.937Z"/><path fill="#fff" d="M262.562 183.001c-.375.438-2.937 5.563-2.937 5.563l4.375-.938zm2.5 6.563-4.624 1.5 5.562 2.187zm2.063-6.438 2.312 6.813 5.625-1.625-1.437-3.25zm3.625 9.25.75 2.75 7.5 1.875-3-6.375zm8.25-5.812 2.687 6.375 5.625-2.188-1.875-2.812zm3.75 8.687.875 2.375 8.75 1.25-3.688-5.75-5.999 2.125zm8.375-6.875 3.25 5.688 8.125-3-.875-2.188-10.5-.437zm4.75 7.75 1.687 3 10.126-.312-3.75-5.625-8.125 2.937zm10.687-7.5 2.75 4.75 6.501-3.125-1.751-2.5zm10.625 3.625-6.437 3.188 1.687 2.812 8.625-1.375zm2.063-5 3.312 4.188 5.438-4.313-1.875-1.875zm9.937 2.188L324 193.376l1.375 2.438 7.125-1.875zm7.125-8.125 1.25 1.812-3.562 5.313-3.688-4.75zm2.438 4.562 2.187 4.375-4.375 1.5-.375-2.062 2.5-3.75z"/></g><defs><clipPath id="a"><path fill="#fff" d="M0 0h600v300H0z"/></clipPath></defs></svg>