<svg xmlns="http://www.w3.org/2000/svg" width="600" height="300" fill="none"><g clip-path="url(#a)"><mask id="b" width="601" height="300" x="0" y="0" maskUnits="userSpaceOnUse" style="mask-type:luminance"><path fill="#fff" d="M0 0h600.029v300H0z"/></mask><g fill-rule="evenodd" clip-rule="evenodd" mask="url(#b)"><path fill="#fff" d="M0 0h600v300H0z"/><path fill="#C00" d="M0 272.402h600V300H0z"/><path fill="#C00" d="M0 272.695h600V300H0zm0-54.433h600v27.07H0zm0-54.61h598.515v27.364H0zM181.821 0h418.101v27.246H181.821zm0 108.984h418.101v27.422H181.821zm0-54.316h418.101v27.246H181.821z"/></g><path fill="#006" fill-rule="evenodd" d="M0 0h181v164H0z" clip-rule="evenodd"/><path fill="#fff" fill-rule="evenodd" d="m123.737 134.759-33.139-24.865L57.655 135l12.223-40.827L37 68.987l40.721-.32L90.337 28l12.942 40.586H144l-32.747 25.427z" clip-rule="evenodd"/></g><defs><clipPath id="a"><path fill="#fff" d="M0 0h600v300H0z"/></clipPath></defs></svg>