<svg xmlns="http://www.w3.org/2000/svg" width="600" height="300" fill="none"><g clip-path="url(#a)"><path fill="#fff" d="M0 0h600v300H0z"/><path fill="#000001" d="M0 0h600v300H0z"/><path fill="#fff" d="M313.35 118.883a38.45 38.45 0 0 0-39.832-2.869 38.3 38.3 0 0 0-15.186 14.082A38.14 38.14 0 0 0 252.724 150c0 7.022 1.94 13.909 5.608 19.904a38.3 38.3 0 0 0 15.186 14.082 38.45 38.45 0 0 0 39.832-2.869 44.2 44.2 0 0 1-22.601 12.038 44.3 44.3 0 0 1-25.503-2.505 44.1 44.1 0 0 1-19.808-16.206A43.9 43.9 0 0 1 238 150a43.9 43.9 0 0 1 7.438-24.444 44.1 44.1 0 0 1 19.808-16.206 44.3 44.3 0 0 1 25.503-2.505 44.2 44.2 0 0 1 22.601 12.038M303.603 150 363 130.781l-36.726 50.336v-62.234L363 169.219z"/><path fill="#E70013" d="M0 0h600v75H0z"/><path fill="#239E46" d="M0 225h600v75H0z"/></g><defs><clipPath id="a"><path fill="#fff" d="M0 0h600v300H0z"/></clipPath></defs></svg>