<svg xmlns="http://www.w3.org/2000/svg" width="600" height="300" fill="none"><g clip-path="url(#a)"><path fill="#002B7F" d="M0 0h600v150H0z"/><path fill="#CE1126" d="M0 150h600v150H0z"/><path fill="#FFD83D" d="m118.372 63.998-1.07 35.172H81.579c-4.395-8.554-8-15.757-8-25.605 0-8.216 6.479-14.744 15.776-14.744 9.86 0 20.735 3.32 29.017 5.177M77.861 65.63v20.259zm2.818-2.082V90.56zm2.93-1.407v32.19zm2.817-.675v25.267zm2.873-.113v25.493zm2.874-.956v26.449zm2.873 0v26.449zm2.874.28v26.45zm2.874.282v26.393zm2.873 1.632v26.45zm2.818.282v29.769zm2.929 0v26.449zm2.818 0v26.449z"/><path stroke="#000" stroke-linecap="round" stroke-linejoin="round" stroke-width="1.2" d="M77.861 65.63v20.259m2.818-22.341V90.56m2.93-28.419v32.19m2.817-32.865v25.267m2.873-25.38v25.493m2.874-26.45v26.45m2.873-26.45v26.45m2.874-26.168v26.449m2.874-26.168v26.393m2.873-24.76V89.04m2.818-26.167v29.769m2.929-29.77v26.45m2.818-26.45v26.45"/><path fill="#000001" stroke="#000" stroke-linecap="round" stroke-linejoin="round" stroke-width="1.2" d="M95.835 61.579c6.085.956 19.382 7.203 17.861 15.588-2.141 11.93-9.128 7.147-18.368 5.458l-6.987 2.308c-2.536 2.532-6.198 4.895-8.677 1.8h-4.17v16.207h45.865V63.83z"/><path fill="#FFD83D" stroke="#000" stroke-linecap="round" stroke-linejoin="round" stroke-width="1.6" d="M116.343 61.522a2.76 2.76 0 0 0 2.761-2.758 2.76 2.76 0 0 0-2.761-2.757 2.76 2.76 0 0 0-2.761 2.757 2.76 2.76 0 0 0 2.761 2.758M110.089 60.003a2.76 2.76 0 0 0 2.761-2.758 2.76 2.76 0 0 0-2.761-2.757 2.76 2.76 0 0 0-2.761 2.757 2.76 2.76 0 0 0 2.761 2.758M103.722 58.427a2.76 2.76 0 0 0 2.761-2.757 2.76 2.76 0 0 0-2.761-2.758 2.76 2.76 0 0 0-2.761 2.758 2.76 2.76 0 0 0 2.761 2.757M97.355 57.358a2.76 2.76 0 0 0 2.761-2.758 2.76 2.76 0 0 0-2.761-2.757 2.76 2.76 0 0 0-2.761 2.757 2.76 2.76 0 0 0 2.76 2.758M90.99 56.739a2.76 2.76 0 0 0 2.76-2.758 2.76 2.76 0 0 0-2.76-2.757 2.76 2.76 0 0 0-2.761 2.757 2.76 2.76 0 0 0 2.76 2.758M84.79 57.076a2.76 2.76 0 0 0 2.761-2.757 2.76 2.76 0 0 0-2.76-2.758 2.76 2.76 0 0 0-2.762 2.758 2.76 2.76 0 0 0 2.761 2.757M78.818 59.102a2.76 2.76 0 0 0 2.76-2.757 2.76 2.76 0 0 0-2.76-2.758 2.76 2.76 0 0 0-2.761 2.758 2.76 2.76 0 0 0 2.76 2.757M73.804 62.817a2.76 2.76 0 0 0 2.76-2.758 2.76 2.76 0 0 0-2.76-2.757 2.76 2.76 0 0 0-2.761 2.757 2.76 2.76 0 0 0 2.76 2.758M70.253 67.937a2.76 2.76 0 0 0 2.761-2.757 2.76 2.76 0 0 0-2.76-2.758 2.76 2.76 0 0 0-2.762 2.758 2.76 2.76 0 0 0 2.761 2.757M68.507 74.015a2.76 2.76 0 0 0 2.76-2.757 2.76 2.76 0 0 0-2.76-2.758 2.76 2.76 0 0 0-2.76 2.758 2.76 2.76 0 0 0 2.76 2.757M68.564 80.262a2.76 2.76 0 0 0 2.76-2.758 2.76 2.76 0 0 0-2.76-2.757 2.76 2.76 0 0 0-2.761 2.757 2.76 2.76 0 0 0 2.76 2.757M69.804 86.396a2.76 2.76 0 0 0 2.76-2.758 2.76 2.76 0 0 0-2.76-2.757 2.76 2.76 0 0 0-2.761 2.757 2.76 2.76 0 0 0 2.76 2.758"/><path fill="#FFD83D" stroke="#000" stroke-linecap="round" stroke-linejoin="round" stroke-width="1.6" d="m117.584 62.422-.282 3.658c-6.931-1.125-16.735-4.952-25.919-4.952-8.452 0-14.988 3.376-14.988 11.93 0 8.385 3.55 16.039 8.283 23.804l-4.902 2.251c-4.395-8.44-8.057-15.757-8.057-25.548 0-8.216 6.48-16.32 17.636-16.32 9.86 0 19.946 3.377 28.229 5.177"/><path fill="#FFD83D" d="m124.684 63.998 1.071 35.172h35.723c4.394-8.554 8.001-15.757 8.001-25.605 0-8.216-6.48-14.744-15.777-14.744-9.86 0-20.735 3.32-29.018 5.177M165.195 65.63v20.259zm-2.817-2.082V90.56zm-2.93-1.407v32.19zm-2.817-.675v25.267zm-2.874-.113v25.493zm-2.873-.956v26.449zm-2.874 0v26.449zm-2.873.28v26.45zm-2.874.282v26.393zm-2.874 1.632v26.45zm-2.817.282v29.769zm-2.93 0v26.449zm-2.817 0v26.449z"/><path stroke="#000" stroke-linecap="round" stroke-linejoin="round" stroke-width="1.2" d="M165.195 65.63v20.259m-2.817-22.341V90.56m-2.93-28.419v32.19m-2.817-32.865v25.267m-2.874-25.38v25.493m-2.873-26.45v26.45m-2.874-26.45v26.45m-2.873-26.168v26.449m-2.874-26.168v26.393m-2.874-24.76V89.04m-2.817-26.167v29.769m-2.93-29.77v26.45m-2.817-26.45v26.45"/><path fill="#000001" stroke="#000" stroke-linecap="round" stroke-linejoin="round" stroke-width="1.2" d="M147.222 61.579c-6.085.956-19.383 7.203-17.861 15.588 2.141 11.93 9.128 7.147 18.368 5.458l6.987 2.308c2.535 2.532 6.198 4.895 8.677 1.8h4.169v16.207h-45.864V63.83z"/><path fill="#FFD83D" stroke="#000" stroke-linecap="round" stroke-linejoin="round" stroke-width="1.6" d="M126.714 61.522a2.76 2.76 0 0 1-2.761-2.758 2.76 2.76 0 0 1 2.761-2.757 2.76 2.76 0 0 1 2.761 2.757 2.76 2.76 0 0 1-2.761 2.758M132.968 60.003a2.76 2.76 0 0 1-2.761-2.758 2.76 2.76 0 0 1 2.761-2.757 2.76 2.76 0 0 1 2.761 2.757 2.76 2.76 0 0 1-2.761 2.758M139.335 58.427a2.76 2.76 0 0 1-2.761-2.757 2.76 2.76 0 0 1 2.761-2.758 2.76 2.76 0 0 1 2.761 2.758 2.76 2.76 0 0 1-2.761 2.757M145.702 57.358a2.76 2.76 0 0 1-2.761-2.758 2.76 2.76 0 0 1 2.761-2.757 2.76 2.76 0 0 1 2.761 2.757 2.76 2.76 0 0 1-2.761 2.758M152.067 56.739a2.76 2.76 0 0 1-2.761-2.758 2.76 2.76 0 0 1 2.761-2.757 2.76 2.76 0 0 1 2.761 2.757 2.76 2.76 0 0 1-2.761 2.758M158.266 57.076a2.76 2.76 0 0 1-2.76-2.757 2.76 2.76 0 0 1 2.76-2.758 2.76 2.76 0 0 1 2.761 2.758 2.76 2.76 0 0 1-2.761 2.757M164.239 59.102a2.76 2.76 0 0 1-2.761-2.757 2.76 2.76 0 0 1 2.761-2.758A2.76 2.76 0 0 1 167 56.345a2.76 2.76 0 0 1-2.761 2.757M169.253 62.817a2.76 2.76 0 0 1-2.761-2.758 2.76 2.76 0 0 1 2.761-2.757 2.76 2.76 0 0 1 2.761 2.757 2.76 2.76 0 0 1-2.761 2.758M172.804 67.937a2.76 2.76 0 0 1-2.761-2.757 2.76 2.76 0 0 1 2.761-2.758 2.76 2.76 0 0 1 2.76 2.758 2.76 2.76 0 0 1-2.76 2.757M174.55 74.015a2.76 2.76 0 0 1-2.761-2.757 2.76 2.76 0 0 1 2.761-2.758 2.76 2.76 0 0 1 2.761 2.758 2.76 2.76 0 0 1-2.761 2.757M174.493 80.262a2.76 2.76 0 0 1-2.761-2.758 2.76 2.76 0 0 1 2.761-2.757 2.76 2.76 0 0 1 2.761 2.757 2.76 2.76 0 0 1-2.761 2.757M173.253 86.396a2.76 2.76 0 0 1-2.761-2.758 2.76 2.76 0 0 1 2.761-2.757 2.76 2.76 0 0 1 2.761 2.757 2.76 2.76 0 0 1-2.761 2.758"/><path fill="#FFD83D" stroke="#000" stroke-linecap="round" stroke-linejoin="round" stroke-width="1.6" d="m125.473 62.422.282 3.658c6.93-1.125 16.734-4.952 25.919-4.952 8.451 0 14.987 3.376 14.987 11.93 0 8.385-3.549 16.039-8.282 23.804l4.902 2.251c4.394-8.44 8.057-15.757 8.057-25.548 0-8.216-6.48-16.32-17.636-16.32-9.86 0-19.946 3.377-28.229 5.177M121.528 25.056l-2.93 5.459 2.93 5.402 2.873-5.402L121.528 25zm0 13.731-2.93 5.403 2.93 5.458 2.817-5.515zM111.16 37.38l4.564 2.87 4.564-2.87-4.508-2.926zm11.551 0 4.564 2.87 4.62-2.87-4.62-2.926z"/><path fill="#FFD83D" stroke="#000" stroke-linecap="round" stroke-linejoin="round" stroke-width="1.6" d="M121.528 39.632a2.196 2.196 0 0 0 2.197-2.195 2.196 2.196 0 0 0-2.197-2.195 2.196 2.196 0 0 0-2.198 2.195c0 1.212.984 2.195 2.198 2.195M121.528 57.358a5.913 5.913 0 0 0 5.916-5.909 5.913 5.913 0 0 0-5.916-5.908 5.913 5.913 0 0 0-5.917 5.908 5.913 5.913 0 0 0 5.917 5.91"/><path stroke="#000" stroke-linecap="round" stroke-linejoin="round" stroke-width="1.2" d="M120.007 45.765v3.714c-1.397.068-2.79.218-4.169.45m11.381 0a35 35 0 0 0-4.226-.45v-3.714m-7.212 7.147a34.7 34.7 0 0 1 5.747-.506c1.916 0 3.832.168 5.635.506"/><path fill="#FFD83D" stroke="#000" stroke-linecap="round" stroke-linejoin="round" stroke-width="1.6" d="M115.522 61c-.563 9.567-1.69 19.415-5.465 26.505l6.085-2.476c2.141-8.047 2.592-18.458 3.212-23.41zm11.494 0-3.887.619c.676 4.952 1.127 15.363 3.211 23.41l6.086 2.476c-3.719-7.09-4.846-16.882-5.41-26.505"/><path fill="#FFD83D" stroke="#000" stroke-linecap="round" stroke-linejoin="round" stroke-width="1.6" d="M121.528 82.231c-7.325 0-12.677 3.377-12.959 12.156-1.803-3.152-9.297-12.944-16.34-11.65-4.17.788-7.888 6.585-7.212 13.169C81.523 86.002 71.437 84.37 64 90.278c6.592 5.347 9.522 21.272 15.044 28.138h84.912c5.522-6.866 8.452-22.791 15.044-28.138-7.381-5.908-17.523-4.276-20.96 5.628.563-6.584-3.099-12.38-7.325-13.168-6.987-1.295-14.481 8.497-16.284 11.648-.282-8.722-5.634-12.155-12.959-12.155z"/><path fill="#000001" stroke="#000" stroke-linecap="round" stroke-linejoin="round" stroke-width="1.2" d="M163.843 118.416c0 3.151-18.932 6.584-42.315 6.584-23.384 0-42.372-3.377-42.372-6.584 0-3.095 18.988-4.784 42.372-4.784 23.326 0 42.315 1.689 42.315 4.784"/><path fill="#FFD83D" stroke="#000" stroke-linecap="round" stroke-linejoin="round" stroke-width="1.2" d="M121.529 61.522a1.97 1.97 0 0 0 1.972-1.97 1.97 1.97 0 0 0-1.972-1.969 1.97 1.97 0 0 0-1.972 1.97 1.97 1.97 0 0 0 1.972 1.97M121.528 65.911a2.083 2.083 0 1 0 0-4.164 2.084 2.084 0 0 0-2.085 2.082c0 1.15.934 2.082 2.085 2.082M121.529 70.751a2.308 2.308 0 1 0 0-4.614 2.309 2.309 0 1 0 0 4.614M121.529 76.21a2.646 2.646 0 1 0 0-5.29 2.647 2.647 0 0 0-2.648 2.645 2.647 2.647 0 0 0 2.648 2.645M121.528 82.119a2.87 2.87 0 0 0 2.873-2.87 2.87 2.87 0 0 0-2.873-2.87 2.87 2.87 0 0 0-2.874 2.87 2.87 2.87 0 0 0 2.874 2.87"/><path fill="#000001" d="M120.401 84.764c-.338 0-.619.281-.563.788l.338 2.42c.113.843.564.562.733 0 .112-.676.056-1.126.112-2.308 0-.619-.338-.9-.676-.9zm2.254 0c-.338 0-.62.281-.62.9 0 1.182 0 1.632.113 2.251.113.675.564.9.733 0l.281-2.364c.113-.562-.225-.787-.507-.787m-4.338.337a.565.565 0 0 0-.564.563c0 .563.169 1.294.226 2.138.112.845.732.563.788 0 0-.45.113-1.238 0-2.194 0-.338-.112-.507-.338-.563a.5.5 0 0 0-.112 0zm6.254 0c-.169 0-.338.17-.394.563q-.046 1.074.112 2.138c0 .563.676.845.733 0 0-.844.225-1.519.225-2.082 0-.337-.282-.562-.563-.619a.5.5 0 0 0-.113 0m-8.677.957c-.282.056-.564.394-.451.732.169.731.338 1.519.338 2.25 0 .62.507.394.564 0q.065-1.124.056-2.25c0-.563-.282-.788-.563-.732zm11.044 0c-.17.056-.339.281-.339.732l.113 2.25c0 .394.564.62.564 0 0-.731.112-1.519.281-2.25.113-.338-.169-.676-.394-.732a.34.34 0 0 0-.169 0zm-33.244.112c-.338 0-.564.394-.338.845.338.787.732 1.238 1.07 2.025.282.732.79.282.62-.225l-.789-2.082c-.169-.394-.394-.562-.563-.562m55.669 0c-.226 0-.395.17-.564.563-.507 1.07-.676 1.576-.845 2.082-.113.563.338.957.676.225l1.015-2.025c.225-.45 0-.844-.282-.844m-53.415 0c-.282.113-.395.394-.282.732.338.675.733 1.407 1.014 2.138.226.62.79.45.564-.112l-.564-2.082c-.225-.563-.563-.732-.732-.675m50.992 0c-.225.057-.451.282-.563.676-.395 1.125-.451 1.463-.62 2.082-.226.563.338.732.563.112l1.014-2.138c.113-.338 0-.619-.225-.731a.34.34 0 0 0-.169 0m-48.175.563c-.338.057-.563.507-.338 1.07.225.675.563 1.294.901 2.082s.846.619.733.112c-.17-.506-.282-1.294-.676-2.532-.17-.563-.395-.788-.62-.732m45.527 0c-.226 0-.507.17-.676.732-.338 1.238-.564 2.026-.62 2.532-.169.563.394.675.676-.112.338-.788.676-1.407.901-2.083.226-.562 0-1.012-.281-1.069m-52.514.394c-.338 0-.563.563-.394.957.282.563.507.788.789 1.463.338.675.676.169.563-.281a9 9 0 0 1-.45-1.576c-.113-.45-.339-.563-.564-.563zm59.501 0c-.226 0-.395.113-.564.563l-.394 1.576c-.113.45.225.956.563.281.282-.675.451-.844.789-1.463.169-.394-.113-.9-.394-.957m-37.752 1.576c-.394 0-.732.45-.563.844.113.675.451 1.238.62 2.082.225.732.732.394.676-.112a16 16 0 0 0-.282-2.251c-.113-.394-.282-.563-.507-.563zm16.002 0c-.169 0-.394.169-.45.563a16 16 0 0 0-.338 2.25c0 .507.507.845.676.113l.676-2.082c.113-.394-.226-.844-.564-.844m-8.001.675c-.45 0-.507.563-.507.957a6.9 6.9 0 0 1-1.127 3.601c-.563.676-1.296.507-1.972.113a12.6 12.6 0 0 1-1.859-1.238c-.789-.563-1.352-.225-.451 1.07 2.592 3.713 5.409 6.865 5.409 12.942 0 .732.169.957.507.957s.451-.225.451-1.013c0-6.021 2.817-9.173 5.409-12.943.902-1.238.338-1.576-.394-1.013a12 12 0 0 1-1.86 1.238c-.732.394-1.465.563-1.972-.113a6.9 6.9 0 0 1-1.127-3.601c-.056-.394-.112-.957-.563-.957zm-19.889-.9a.3.3 0 0 0-.113 0c-.169.056-.225.225-.169.563l.62 2.194c.169.563.789.394.676-.281l-.338-1.745c-.113-.45-.451-.731-.676-.731m39.779 0c-.282 0-.563.281-.676.731-.225.788-.225 1.013-.338 1.689-.169.731.507.844.62.337l.676-2.25c0-.282-.056-.45-.226-.507a.3.3 0 0 0-.112 0zm-51.612.225c-.338 0-.563.45-.225 1.013.338.675.958 1.463 1.24 1.97.281.45.788.112.45-.45-.338-.564-.45-1.295-.901-2.14a.56.56 0 0 0-.564-.393m63.388 0c-.169 0-.394.112-.563.394-.395.844-.564 1.52-.845 2.138-.338.563.112.9.394.45.282-.506.902-1.294 1.24-1.97.338-.562.112-1.012-.226-1.012m-81.25 1.857c-.337 0-.45.675-.112 1.126a11 11 0 0 0 1.465 1.519c.45.45.564-.113.338-.563l-1.014-1.52c-.282-.393-.507-.562-.676-.562m99.112 0c-.169 0-.395.169-.62.563l-1.071 1.52c-.225.45-.112 1.012.395.562a10.7 10.7 0 0 0 1.465-1.52c.338-.45.225-1.125-.169-1.125m-96.238.563c-.338 0-.563.225-.281.731l1.07 2.139c.282.563 1.127.731.79-.113l-.733-2.138a.95.95 0 0 0-.846-.563zm93.42 0c-.338 0-.732.225-.901.619l-.676 2.138c-.338.844.507.675.789.113.281-.563.732-1.407 1.014-2.139.281-.506.056-.731-.226-.731m-98.941.225c-.451 0-.451.394-.057.675.507.394 1.127.788 1.69 1.294.733.563.958 0 .564-.45-.338-.45-.676-.9-1.634-1.407-.225-.112-.394-.112-.563-.112m104.407 0c-.113 0-.338 0-.564.112-.901.507-1.296.957-1.69 1.407-.338.507-.056 1.013.62.45.563-.506 1.239-.9 1.69-1.294.451-.281.395-.675 0-.675zm-61.754.394c-.282 0-.451.281-.395.675l.564 2.026c.112.619.845.619.732 0-.112-.563-.169-1.294-.394-2.195-.056-.337-.226-.506-.451-.562a.3.3 0 0 0-.056 0zm19.044 0c-.169 0-.338.169-.45.563-.226.844-.282 1.575-.395 2.194-.113.563.62.563.733-.056l.563-2.026c.113-.394-.113-.675-.338-.675a.3.3 0 0 0-.113 0m-36.06-1.126c-.17 0-.282.394-.113.957.597 1.622.903 3.337.901 5.065-.169.675-.563.731-1.07.562a10.6 10.6 0 0 1-1.578-.956c-.45-.282-.958.056-.281.619 3.38 2.813 5.803 6.021 6.76 9.904.114.788.621.9.508 0-.789-4.896-.958-8.948.225-11.424.451-.956 0-1.857-.676-.337-.507 1.013-1.24 1.406-1.86.562a27 27 0 0 1-2.253-4.333c-.113-.394-.282-.562-.45-.619a.2.2 0 0 0-.057 0zm53.02 0c-.169 0-.338.225-.451.563-.394 1.126-1.634 3.489-2.253 4.39s-1.353.45-1.803-.563c-.733-1.52-1.127-.62-.733.337 1.183 2.476 1.014 6.528.282 11.424-.169.9.338.788.563 0a18.23 18.23 0 0 1 6.649-9.904c.676-.563.169-.9-.282-.563q-.752.492-1.577.844c-.564.225-.902.169-1.071-.563-.113-.675.113-2.194.958-5.064.113-.45 0-.844-.169-.9a.17.17 0 0 0-.113 0m-70.15 1.35c-.281 0-.563.226-.394.676.226.788.676 1.576.846 2.026.168.506.676.281.563-.394l-.282-1.744c0-.338-.394-.563-.732-.563m87.392 0c-.338 0-.676.226-.733.564l-.225 1.744c-.113.675.394.9.563.394.113-.45.564-1.238.789-2.026.169-.45-.056-.675-.394-.675m-76.798-.956c-.338-.056-.395.844-.113 1.238l1.578 1.745c.45.563.732.056.45-.394l-1.465-2.139c-.169-.281-.338-.45-.45-.45m66.205 0c-.113 0-.282.169-.451.45l-1.465 2.139c-.282.45 0 .956.507.394l1.522-1.745c.281-.394.281-1.294-.113-1.238m-74.375 2.251c-.226 0-.395.113-.282.563.112.675.282 1.125.45 1.744.17.563.564.507.564-.056l-.169-1.8a.62.62 0 0 0-.563-.507zm82.545 0a.56.56 0 0 0-.564.45l-.169 1.801c0 .563.451.675.564.056l.507-1.688c.113-.506-.113-.675-.338-.675zm-75.164.788c-.338 0-.62.394-.226.9.62.844 1.353 1.407 1.634 1.689.226.337.846.225.451-.394l-1.296-1.97c-.112-.225-.338-.281-.563-.225m67.614 0c-.113 0-.282.056-.338.225l-1.353 1.97c-.394.619.226.731.507.45.226-.338.958-.9 1.634-1.745.395-.562.057-.9-.281-.9a.5.5 0 0 0-.113 0zm-79.278 2.307c-.225 0-.338.225 0 .732a9.6 9.6 0 0 1 1.86 3.601c.056.788-.282.788-.62.788-1.07 0-1.578-.788-2.48-1.013-.957-.169-1.126.282-.45.788a30.1 30.1 0 0 1 8.283 7.766c.563 1.069 1.296 1.407.901.45a13.3 13.3 0 0 1-1.352-7.09c.282-1.576.676-2.589.62-3.49 0-.844-.564-.787-.733 0l-.563 1.576c-.226.282-1.014.45-1.69-.506a27 27 0 0 0-3.156-3.264 1.5 1.5 0 0 0-.563-.338zm91.11 0c-.169 0-.394.113-.62.338a27 27 0 0 0-3.099 3.264c-.732.956-1.521.788-1.69.563a6.8 6.8 0 0 1-.563-1.632c-.226-.788-.733-.844-.789 0 0 .9.338 1.913.619 3.489.282 1.575 0 4.051-1.295 7.09-.451.957.338.563.901-.45a29.9 29.9 0 0 1 8.226-7.766c.677-.506.564-.957-.394-.788-.958.225-1.465 1.013-2.479 1.013-.338 0-.733 0-.676-.788.056-.731 1.014-2.476 1.859-3.601.338-.563.282-.732 0-.732"/><path fill="#FFD83D" d="m81.016 114.871 1.126 3.432zm2.253-.676 1.015 3.489zm2.48-.45.676 3.602zm2.253-.394.733 3.546zm2.874-.281.563 3.601zm3.099 0 .62 3.545zm3.043-1.013.45 3.601zm2.817.169.451 3.601zm2.761-.338.45 3.602zm2.704-.338.282 3.658zm2.987 0 .225 3.658zm2.704-.168.169 3.657zm2.93-.169.169 3.601zm3.381-.113.169 3.658zm44.681 3.771-1.127 3.432zm-2.254-.676-.957 3.489zm-2.422-.45-.676 3.602zm-2.254-.394-.733 3.546zm-2.986-.281-.564 3.601zm-3.043 0-.62 3.601zm-2.986-1.013-.451 3.601zm-2.874.169-.451 3.601zm-2.704-.338-.508 3.602zm-2.761-.338-.282 3.658zm-2.987 0-.225 3.658zm-2.648-.168-.169 3.657zm-2.986-.169-.113 3.601zm-3.381-.113-.113 3.658zm-4.169-.281v4.052z"/><path stroke="#000" stroke-linecap="round" stroke-linejoin="round" stroke-width="1.2" d="m81.016 114.871 1.126 3.432m1.127-4.108 1.015 3.489m1.465-3.939.676 3.602m1.577-3.996.733 3.546m2.141-3.827.563 3.601m2.536-3.601.62 3.545m2.423-4.558.45 3.601m2.367-3.432.451 3.601m2.31-3.939.45 3.602m2.254-3.94.282 3.658m2.705-3.658.225 3.658m2.479-3.826.169 3.657m2.761-3.826.169 3.601m3.212-3.714.169 3.658m44.512.113-1.127 3.432m-1.127-4.108-.957 3.489m-1.465-3.939-.676 3.602m-1.578-3.996-.733 3.546m-2.253-3.827-.564 3.601m-2.479-3.601-.62 3.601m-2.366-4.614-.451 3.601m-2.423-3.432-.451 3.601m-2.253-3.939-.508 3.602m-2.253-3.94-.282 3.658m-2.705-3.658-.225 3.658m-2.423-3.826-.169 3.657m-2.817-3.826-.113 3.601m-3.268-3.714-.113 3.658m-4.056-3.939v4.052"/></g><defs><clipPath id="a"><path fill="#fff" d="M0 0h600v300H0z"/></clipPath></defs></svg>