<svg xmlns="http://www.w3.org/2000/svg" width="600" height="300" fill="none"><g clip-path="url(#a)"><mask id="b" width="600" height="300" x="0" y="0" maskUnits="userSpaceOnUse" style="mask-type:luminance"><path fill="#fff" d="M0 0h600v300H0z"/></mask><g mask="url(#b)"><path fill="#C00" d="M0 0h600v300H0z"/><path fill="#C00" d="M0 0h600v21.438H0z"/><path fill="#fff" d="M0 21.438h600v21.437H0z"/><path fill="#C00" d="M0 42.875h600v21.438H0z"/><path fill="#fff" d="M0 64.313h600v21.312H0z"/><path fill="#C00" d="M0 85.688h600v21.437H0z"/><path fill="#fff" d="M0 107.125h600v21.438H0z"/><path fill="#C00" d="M0 128.562h600V150H0z"/><path fill="#fff" d="M0 150h600v21.437H0z"/><path fill="#C00" d="M0 171.438h600v21.437H0z"/><path fill="#fff" d="M0 192.875h600v21.437H0z"/><path fill="#C00" d="M0 214.312h600v21.313H0z"/><path fill="#fff" d="M0 235.688h600v21.437H0z"/><path fill="#C00" d="M0 257.125h600v21.438H0z"/><path fill="#fff" d="M0 278.562h600V300H0z"/><path fill="#006" d="M-1 0h221v172H-1z"/></g><path fill="#FC0" d="m138.405 46.047 3.655 24.675 14.01-20.613-7.553 23.765 21.625-12.61-17.118 18.188L178 77.512l-23.331 8.972L178 95.457l-24.976-1.94 17.118 18.187-21.625-12.61 7.492 23.826-14.01-20.673-3.655 24.674-3.594-24.674-14.011 20.612 7.554-23.765-21.626 12.61 17.057-18.187-24.976 1.94 23.392-8.973-23.33-8.972 24.975 1.94-17.118-18.188 21.626 12.61-7.554-23.826 14.011 20.674zm-20.285 1.03a43.5 43.5 0 0 0-41.21 3.243 43.2 43.2 0 0 0-14.468 15.591 42.94 42.94 0 0 0-5.238 20.573 42.94 42.94 0 0 0 5.238 20.573 43.2 43.2 0 0 0 14.469 15.591 43.44 43.44 0 0 0 20.19 6.83 43.5 43.5 0 0 0 21.019-3.587 48.93 48.93 0 0 1-50.683 3.758 48.64 48.64 0 0 1-19.316-17.883A48.33 48.33 0 0 1 41 86.484a48.33 48.33 0 0 1 7.146-25.268 48.64 48.64 0 0 1 19.328-17.861 48.93 48.93 0 0 1 50.646 3.723"/></g><defs><clipPath id="a"><path fill="#fff" d="M0 0h600v300H0z"/></clipPath></defs></svg>