<svg xmlns="http://www.w3.org/2000/svg" width="600" height="300" fill="none"><g clip-path="url(#a)"><path fill="#CE0000" fill-rule="evenodd" d="M300 0h300v300H300z" clip-rule="evenodd"/><path fill="#fff" fill-rule="evenodd" d="M0 0h300v300H0z" clip-rule="evenodd"/><path fill="#F1EEEE" fill-rule="evenodd" d="M145.265 96.81c0 1.014-1.014 1.69-2.254 1.69-1.353 0-2.255-.676-2.255-1.578 0-.901.902-1.69 2.255-1.69 1.24 0 2.254.788 2.254 1.69z" clip-rule="evenodd"/><path fill="#C00" fill-rule="evenodd" d="M73 88.918v41.939h42.051c0 6.989 6.99 13.979 13.98 13.979v41.939h42.051v-41.939c6.99 0 13.98-6.99 13.98-13.979H227V88.918h-42.051c0-6.99-6.99-13.98-13.98-13.98V33h-41.938v41.939c-7.103 0-14.092 6.99-14.092 13.979z" clip-rule="evenodd"/><path fill="#FFE600" fill-rule="evenodd" d="M74.465 90.271v39.233h41.938c0 6.989 6.99 13.979 13.98 13.979v41.939h39.12v-41.826c6.99 0 13.979-6.99 13.979-13.98h42.052V90.384h-41.939c0-6.99-6.99-13.98-13.979-13.98V34.353h-39.233v41.939c-6.99 0-13.98 6.99-13.98 13.979z" clip-rule="evenodd"/><path fill="#707070" fill-rule="evenodd" d="M75.818 91.737v36.301h41.939c0 6.99 6.99 13.98 13.979 13.98v41.938h36.415v-41.938c6.989 0 13.979-6.99 13.979-13.98h41.939V91.736H182.13c0-6.99-6.99-13.979-13.979-13.979V35.818h-36.415v41.826c-6.989 0-13.979 6.99-13.979 13.98z" clip-rule="evenodd"/><path fill="#A0A0A0" fill-rule="evenodd" d="M77.285 93.09v33.595h41.938c0 6.99 6.99 13.98 13.98 13.98v41.826h33.483v-41.939c6.99 0 13.979-6.99 13.979-13.979h41.939V92.977h-41.939c0-6.99-6.989-13.98-13.979-13.98V37.172h-33.483V79.11c-6.99 0-13.98 6.99-13.98 13.98H77.172z" clip-rule="evenodd"/><path fill="#D0D0D0" fill-rule="evenodd" d="M133.541 75.615c2.368 2.48.451 8.455-4.509 13.416-4.961 4.96-10.823 6.764-13.304 4.51-2.48-2.594-.45-8.569 4.51-13.53s10.823-6.763 13.303-4.396" clip-rule="evenodd"/><path fill="gray" fill-rule="evenodd" d="M130.497 78.546c2.481 2.48 1.804 7.103-1.465 10.485s-7.892 3.946-10.372 1.466-1.804-7.103 1.465-10.372 7.892-3.946 10.372-1.579" clip-rule="evenodd"/><path fill="#D0D0D0" fill-rule="evenodd" d="m118.209 85.987.902-.902 3.946 1.917-1.917-3.946 1.015-1.015 3.946 7.892zm5.862-5.862 1.128-1.128 5.862 6.088-1.015.902zM184.16 93.428c-2.48 2.48-8.456.45-13.303-4.51s-6.99-10.823-4.51-13.303 8.456-.45 13.416 4.51 6.764 10.822 4.51 13.303z" clip-rule="evenodd"/><path fill="gray" fill-rule="evenodd" d="M181.228 90.496c-2.48 2.48-7.102 1.804-10.372-1.465s-3.946-7.892-1.578-10.372c2.48-2.48 7.215-1.804 10.485 1.465s3.945 7.892 1.465 10.372" clip-rule="evenodd"/><path fill="#D0D0D0" fill-rule="evenodd" d="m173.788 78.095 1.014 1.015-2.029 3.946 3.946-2.03 1.127 1.128-8.004 3.833zm5.975 5.975.902.902-5.863 5.975-1.014-1.014zM166.348 144.16c-2.481-2.481-.451-8.456 4.509-13.416 4.961-4.961 10.823-6.877 13.303-4.51 2.48 2.481.451 8.456-4.509 13.416-4.961 4.961-10.823 6.877-13.303 4.51" clip-rule="evenodd"/><path fill="gray" fill-rule="evenodd" d="M169.392 141.116c-2.48-2.48-1.804-7.103 1.466-10.372s7.891-3.946 10.372-1.466 1.803 7.103-1.466 10.372-7.892 3.946-10.485 1.466z" clip-rule="evenodd"/><path fill="#D0D0D0" fill-rule="evenodd" d="m181.681 133.675-1.015 1.128-3.946-2.03 2.03 3.946-1.015.902-3.946-7.892zm-5.75 5.975-1.127 1.015-5.863-5.975 1.015-1.015zM115.727 126.347c2.48-2.48 8.455-.451 13.303 4.397s6.877 10.935 4.509 13.303c-2.48 2.48-8.455.564-13.415-4.397-4.961-4.96-6.765-10.935-4.51-13.303z" clip-rule="evenodd"/><path fill="gray" fill-rule="evenodd" d="M118.658 129.279c2.48-2.481 7.102-1.804 10.372 1.465s3.946 7.892 1.465 10.372c-2.367 2.48-7.102 1.804-10.372-1.466s-3.945-7.891-1.465-10.371" clip-rule="evenodd"/><path fill="#D0D0D0" fill-rule="evenodd" d="m126.1 141.68-1.015-1.128 2.029-3.833-3.946 1.917-1.127-1.015 8.005-3.946-3.946 7.892zm-5.975-5.975-.902-1.015 5.862-5.862 1.015.902z" clip-rule="evenodd"/><path stroke="#707070" stroke-width=".52" d="M179.397 109.913c0 16.179-13.144 29.359-29.372 29.359s-29.334-13.141-29.334-29.359c0-16.22 13.145-29.36 29.373-29.36s29.372 13.14 29.372 29.36z"/><path stroke="#707070" stroke-width=".396" d="M172.269 109.853c0 12.327-10.015 22.369-22.379 22.369s-22.349-10.012-22.349-22.369 10.015-22.37 22.379-22.37 22.378 10.013 22.378 22.37z"/><path fill="#D0D0D0" fill-rule="evenodd" d="M140.191 133.675c0 .374-.148.732-.412.997a1.412 1.412 0 0 1-2.406-.997 1.409 1.409 0 0 1 2.818 0m22.323 0a1.41 1.41 0 1 1-2.818-.002 1.41 1.41 0 0 1 2.818.002m-13.529 0v1.466h-1.804c-1.916 0-1.916 1.465 0 1.465h1.804v1.353c0 1.578 1.691 1.691 1.804.113v-1.579h1.916c1.917 0 1.917-1.352 0-1.352h-1.803v-1.466c0-1.466-1.917-1.466-1.917 0" clip-rule="evenodd"/><path fill="#D0D0D0" fill-rule="evenodd" stroke="#707070" stroke-width=".113" d="M143.01 112.931v.902s-.451.564-3.269.789-3.269 0-3.269 0c.112.789.676 2.142.451 3.721.112 1.916-.451 3.607-.451 3.607 0 .113-.339.226-.902.113.451-.451.451-1.578.451-3.382 0-1.579-1.691-4.172-1.353-4.848s8.342-.902 8.342-.902ZM154.059 110l7.328-.113s1.127 2.255 1.014 3.382c0 1.128-.451 2.255-.902 1.691-.563-.563.226-.451.339-1.691 0-1.353-.902-2.593-.902-2.593s-2.03.79-4.961.677c-2.931-.226-1.578-1.353-1.916-1.353Z" clip-rule="evenodd"/><path fill="#D0D0D0" fill-rule="evenodd" stroke="#707070" stroke-width=".113" d="M154.96 112.142c2.706-.113 4.51.226 4.51.226s1.127 2.254 1.127 3.382c-.113 1.127-.451 2.254-1.015 1.691-.451-.451.226-.339.339-1.691 0-1.24-.902-2.593-.902-2.593s-1.917.789-4.848.676c-2.931-.225-2.029-.338-2.368-.451-.338 0-.45.902-4.847 1.015-4.51 0-6.765-1.015-6.765-1.015s-.45.677-3.156.902h-3.382c.112.676.676 2.029.563 3.72 0 1.804-.563 3.608-.563 3.608h-.789c.45-.338.338-1.578.45-3.269 0-1.691-1.803-4.172-1.465-4.961.451-.676 2.48 0 2.818-.338.339-.451-1.803-3.044-1.353-5.411.339-2.368 2.706-1.692 5.525-1.692 2.818.113 9.019.902 10.597 0 1.578-.789.902-3.833 2.255-5.749a4.62 4.62 0 0 1 3.72-1.691c1.015 0 2.255 3.382 2.255 4.171l-.338.451h-.451v.338c-1.128.113-1.24-.902-1.917-1.578-.225 1.127.902 4.96.902 7.441 0 2.029-.789 2.931-.902 2.818Z" clip-rule="evenodd"/><path fill="#D0D0D0" fill-rule="evenodd" stroke="#707070" stroke-width=".113" d="M146.055 108.535c0 .789-3.495 2.705-3.833 3.382-.226.789.901 1.127.563 1.578s-.676.226-.789.338l-1.353-2.818s3.382-1.579 3.27-2.255-2.481-1.127-2.932-2.706-.225-4.847-.563-5.524-4.51-1.353-4.51-2.255c0-1.127 4.284-3.833 4.735-4.284s.902.451.451.79c-.451.45-3.72 3.043-3.72 3.382 0 .45 2.706.902 3.607.902 1.015 0 1.466-.451 1.466-.902 0-.338-1.015-.338-1.015-1.128s.564-1.353 1.466-1.353c.451 0 1.353.564 1.353 1.24 0 .677-.789.79-.902 1.24-.113.564.902.903 1.804.903s4.058 2.367 4.509 2.818c.564.338 1.015.338.564.789s-.226.902-.677.451a1.7 1.7 0 0 1-.45-.789c0-.338-3.383-2.029-3.946-1.691-.451.451 0 5.411 0 5.862 0 .789 1.014.789.902 2.03Z" clip-rule="evenodd"/><path fill="#A7A7A7" fill-rule="evenodd" d="M140.191 98.952h5.637v5.749h-5.637z" clip-rule="evenodd"/><path fill="gray" d="m158.126 119.7-18.501-27.772c-.173-.259-.402-.421-.511-.363-.11.059-.059.316.113.575l18.501 27.772c.173.259.402.422.512.363s.059-.316-.114-.575"/><path fill="#D0D0D0" fill-rule="evenodd" stroke="#707070" stroke-width=".164" d="M141.652 94.439c0 .22-.098.43-.271.585a.99.99 0 0 1-.655.243.98.98 0 0 1-.654-.243.79.79 0 0 1-.271-.585c0-.22.097-.43.271-.586a.98.98 0 0 1 .654-.243c.246 0 .481.088.655.243a.79.79 0 0 1 .271.586Z" clip-rule="evenodd"/><path fill="gray" fill-rule="evenodd" d="M157.78 101.883c0 .338-2.255.789-4.623.789-2.48 0-4.622-.451-4.622-.789s2.142.564 4.51.564c2.593 0 4.735-.902 4.735-.564" clip-rule="evenodd"/><path fill="#A7A7A7" fill-rule="evenodd" d="M140.643 104.701h4.622v1.691h-4.51z" clip-rule="evenodd"/><path fill="gray" fill-rule="evenodd" d="M155.636 100.643c-.451.902-.789 1.465-.902 1.353 0 0 .226-.902.677-1.691l.902-1.353c.112.112-.226.902-.677 1.691m1.128 2.254-.902.564c.233-.392.54-.736.902-1.014.563-.451 1.014-.677 1.014-.564l-.902.902z" clip-rule="evenodd"/><path fill="gray" fill-rule="evenodd" d="m156.314 101.77.563 1.353-.902-1.127-.563-1.353zm-.451 3.608s-1.353.225-3.157.225-3.269-.113-3.269-.225l3.269-.226c1.804 0 3.157 0 3.157.226m-10.598-.451c0 .113-1.014.225-2.254.225-1.353 0-2.255 0-2.255-.225 0 0 .902-.226 2.255-.226 1.24 0 2.254.113 2.254.226" clip-rule="evenodd"/><path fill="#D0D0D0" fill-rule="evenodd" stroke="gray" stroke-width=".113" d="M135.119 119.357s.789 1.804 4.059 1.804c3.156 0 4.284-.564 3.044-1.465s-3.833-.677-3.383.112c.226.902-1.014 1.128-1.24.564-.338-.564-1.465-2.368.564-2.48 2.142-.113 6.539-.789 7.666.451s-1.24 2.254.564 2.593c1.691.225 2.029-.339 5.073-.451 3.044-.226 4.284.563 5.299.451 1.127 0 .902-1.917 0-2.255-.789-.564-2.368-.677-2.819-1.127-.338-.564-1.465 0-1.352-.677 0-.564 1.578.338 1.578.113l.225-.226h-.338l.113-.225-.226.113.113-.226s-.338.226-.338 0h-.226c.226-.225.113-.225 0-.338h-.338v-.338c-.225 0-.225 0-.338.225v-.563c0-.113.225-.226.564-.226.789 0 1.127.902 1.465.902.226 0 .564-.902 1.579-.564l1.691.677c.563.338-.339.676 0 1.127.338.451 2.367 1.917 1.803 3.608-.563 1.578-2.254 1.803-2.254 2.48-.226.676 4.847.451 6.088.676.862.157 1.63.642 2.142 1.353l-2.255.113s-1.128-.564-3.946-.677c-2.818 0-3.833-1.127-4.96-1.352l-4.51.225-3.382-.338c-.677-.113-4.735 1.804-4.735 2.255h-2.706s.338-1.015 1.917-1.128c1.465-.225 3.044-.902 2.931-1.353l.451-2.931c0-.676.676-1.127.564-1.353-.113-.451-1.917-.789-3.608-.789s-3.495.113-3.833.451c-.226.451 0 1.691.338 1.466.338 0-.113-.902.226-1.015a7.7 7.7 0 0 1 2.254-.338c.902 0 2.368.789 2.368 1.127 0 .113.451.902-.226 1.24a9.2 9.2 0 0 1-3.495.451 8.4 8.4 0 0 1-3.382-.902c-.451-.338-.789-1.127-.789-1.24Z" clip-rule="evenodd"/><path fill="#000" fill-rule="evenodd" d="M155.637 116.539a.337.337 0 0 1-.65.129.338.338 0 1 1 .65-.129" clip-rule="evenodd"/><path fill="#D0D0D0" d="m173.112 111.24 1.804.338 3.044-2.029-.226 1.127-1.578 1.015-.902.451.564.902 1.015 1.578-.226 1.128-1.917-3.27-1.803-.338zm-3.044-13.303 3.382-1.578-.902-2.03.451-.225 2.255 4.96-.338.226-1.015-2.142-3.382 1.69zm-5.411-6.539 3.156-2.931.677.676v4.96l2.48-2.254.564.677-3.157 2.93-.676-.676v-4.96l-2.48 2.255zm-13.98-5.637.564-4.284h.902l-.564 3.946 3.382.338v.564zm-6.877.677-.789-4.284.902-.226.676 3.833 3.383-.676v.564zm-12.739 6.2-.338-.338 2.254-1.804 1.128 1.128a6.4 6.4 0 0 1-.902 1.353 6.4 6.4 0 0 1-1.015 1.127 5.9 5.9 0 0 1-1.578.902c-.564.113-1.127.225-1.466 0a1.8 1.8 0 0 1-1.127-.564 1.9 1.9 0 0 1-.338-1.127c0-.451.113-1.015.451-1.466.225-.45.676-.902 1.127-1.24a5.4 5.4 0 0 1 1.24-.79l1.015-.225c.225 0 .564 0 .789.226l-.451.564a1.46 1.46 0 0 0-.676-.113l-.677.113a3.6 3.6 0 0 0-.789.563c-.338.226-.676.451-.789.79-.19.196-.343.425-.451.676v.564c0 .338.113.676.338.901l.789.564 1.128-.113a4.62 4.62 0 0 0 2.367-2.254l-.451-.677zm-.113 31.229-3.607 2.593-2.706-3.833.451-.339 2.255 3.044 1.014-.789-1.804-2.593.339-.225 1.916 2.593 1.578-1.128zm-5.299-5.637c.564-.113.902-.451 1.128-1.015v-1.691a2.93 2.93 0 0 0-1.015-1.465c-.338-.339-.902-.451-1.353-.339a1.58 1.58 0 0 0-.902.564c-.112.225-.338.564-.338.902l.113 1.24c.225.676.451 1.127.902 1.578.338.339.902.451 1.465.226m.339.902a1.91 1.91 0 0 1-1.917-.451 4.2 4.2 0 0 1-1.24-2.03c-.225-.676-.225-1.127-.225-1.803 0-.677.225-.902.451-1.24a1.8 1.8 0 0 1 2.254-.677c.451.226.789.451 1.128.902a5.08 5.08 0 0 1 .902 3.382 2.6 2.6 0 0 1-.451 1.24 1.76 1.76 0 0 1-.902.677m.338-8.794h-4.51v-3.156l.226-1.353.451-.79a.91.91 0 0 1 .676-.225c.338 0 .564.113.789.451.113.338.339.789.339 1.466.148-.476.421-.904.789-1.241l1.24-1.127v1.127l-.902.79-.676.676a2 2 0 0 0-.339.451 2 2 0 0 0 0 .451v.451l-.112 1.127h2.029zm-2.48-1.014v-1.917a4.5 4.5 0 0 0 0-1.015 1.1 1.1 0 0 0-.226-.451.56.56 0 0 0-.338-.225.62.62 0 0 0-.564.338l-.225 1.128v2.254zm12.063-19.053v-5.073l.902-.564 4.622 2.255-.902.563-1.353-.676-2.367 1.466v1.578zm.789-2.593 2.029-1.127-1.127-.677a9 9 0 0 1-1.015-.564l.113.902zm20.969-1.353 4.735-1.917.789.564-.338 5.186-.789-.676.113-1.466-2.255-1.691-1.466.564zm2.706-.225 1.916 1.352V86.1q.08-.57.226-1.128-.362.328-.789.564zm11.612 16.121 4.284-1.015.676 3.044.226 1.353-.226.789a.9.9 0 0 1-.563.451c-.339 0-.677 0-.902-.225a3.17 3.17 0 0 1-.79-1.353q.028.281 0 .564l-.45.902-.902 1.352-.226-1.127.677-1.127.451-.677c.152-.276.23-.587.225-.902a4 4 0 0 0-.113-.563l-.225-1.015-1.917.451zm2.593.338.451 1.917c0 .338.225.676.338.902 0 .225.225.338.338.451l.451.112c.113 0 .338-.225.338-.451a2.36 2.36 0 0 0 0-1.127l-.563-2.142z"/></g><defs><clipPath id="a"><path fill="#fff" d="M0 0h600v300H0z"/></clipPath></defs></svg>