<svg xmlns="http://www.w3.org/2000/svg" width="600" height="300" fill="none"><g clip-path="url(#a)"><path fill="#fff" d="M0 0h600v300H0z"/><path fill="#E2AE57" d="M0 290.4V0h600v63.6z"/><path fill="#003893" d="M0 285.6V0h600v4.8zm0 9.6v4.8h600V122.4z"/><path fill="#fff" d="m115.301 16.536 4.042 63.852 14.097-35.184-6.303 37.164 23.217-30.516-16.219 34.356 30.732-23.772-25.01 29.196 36.151-15.396-32.122 22.044 39.133-5.988-37.036 13.404 67.213 3.84-67.213 3.84 37.036 13.392-39.133-5.988 32.122 22.056-36.151-15.408 25.01 29.196-30.732-23.76 16.219 34.344-23.217-30.516 6.303 37.176-14.097-35.184-4.042 63.852-4.042-63.852-14.11 35.184 6.304-37.176-23.205 30.516 16.207-34.344-30.733 23.76 25.023-29.196-36.164 15.408 32.122-22.056-39.12 5.988 37.036-13.392-67.213-3.84 67.213-3.84-37.036-13.404 39.12 5.988-32.122-22.044 36.164 15.396-25.023-29.196 30.733 23.772-16.207-34.356 23.205 30.516-6.304-37.164 14.11 35.184z"/></g><defs><clipPath id="a"><path fill="#fff" d="M0 0h600v300H0z"/></clipPath></defs></svg>