<svg xmlns="http://www.w3.org/2000/svg" width="600" height="300" fill="none"><g clip-path="url(#a)"><path fill="#CD2A3E" d="M0 0h600v300H0z"/><path fill="#006233" d="M0 45h600v210H0z"/><path fill="#FFC400" d="M396.157 107.103a96.471 96.471 0 0 1-192.941 0A99.6 99.6 0 0 0 200 132.314a99.7 99.7 0 0 0 29.197 70.489 99.69 99.69 0 0 0 140.978 0 99.69 99.69 0 0 0 29.197-70.489 99.3 99.3 0 0 0-3.215-25.211"/><path fill="#FFC400" d="m299.686 68-8.682 26.69h-27.977l22.703 16.464-8.682 26.626 22.702-16.464 22.703 16.464-8.682-26.626 22.703-16.464h-28.041z"/></g><defs><clipPath id="a"><path fill="#fff" d="M0 0h600v300H0z"/></clipPath></defs></svg>