<svg xmlns="http://www.w3.org/2000/svg" width="600" height="300" fill="none"><g clip-path="url(#a)"><path fill="#CE1126" d="M400.031 0H600v300H400.031z"/><path fill="#006847" d="M0 0h199.969v300H0z"/><path fill="#fff" d="M200.625 0h200.063v300H200.625z"/><path fill="#FCCA3E" stroke="#AA8C30" stroke-width=".3" d="m335.747 199.817.2 4.5 1.7-1.1-1.3-3.7z"/><path fill="#FCCA3E" stroke="#AA8C30" stroke-width=".2" d="M335.547 200.017a1.4 1.4 0 1 0 0-2.8 1.4 1.4 0 0 0 0 2.8Z"/><path fill="#FCCA3E" stroke="#AA8C30" stroke-width=".3" d="m341.047 206.817-3.2-3.1-1.5 1.2 4.5 2.6z"/><path fill="#FCCA3E" stroke="#AA8C30" stroke-width=".2" d="M340.847 208.617c-.5-.6-.3-1.5.3-2 .7-.5 1.6-.4 2 .2.5.6.3 1.5-.3 2-.7.5-1.6.4-2-.2Z"/><path fill="#FCCA3E" stroke="#AA8C30" stroke-width=".3" d="m366.247 160.017 3.4 3.3.4-1.7-3.1-2z"/><path fill="#FCCA3E" stroke="#AA8C30" stroke-width=".2" d="M365.847 160.517a1.4 1.4 0 1 0 0-2.8 1.4 1.4 0 0 0 0 2.8Z"/><path fill="#FCCA3E" stroke="#AA8C30" stroke-width=".3" d="m375.147 162.017-5.2 1.4.5-1.7 4.4-.4z"/><path fill="#FCCA3E" stroke="#AA8C30" stroke-width=".2" d="M375.947 162.617a1.399 1.399 0 1 0 0-2.8 1.4 1.4 0 0 0 0 2.8Z"/><path fill="#FCCA3E" stroke="#AA8C30" stroke-width=".3" d="m357.947 187.217-3.2-4.8.5-.3 3.5 4.2z"/><path fill="#FCCA3E" stroke="#AA8C30" stroke-width=".2" d="M354.447 182.617a1.399 1.399 0 1 0 0-2.8 1.4 1.4 0 0 0 0 2.8Z"/><path fill="#FCCA3E" stroke="#AA8C30" stroke-width=".3" d="m358.047 187.417 4 .7.1-.5-3.3-1.4z"/><path fill="#FCCA3E" stroke="#AA8C30" stroke-width=".2" d="M363.247 189.517a1.4 1.4 0 1 0 0-2.8 1.4 1.4 0 0 0 0 2.8ZM264.547 198.417c0 .8-.5 1.2-1 1.2s-1-.5-1-1.2.5-1.3 1-1.3 1 .7 1 1.4z"/><path fill="#FCCA3E" stroke="#AA8C30" stroke-width=".3" d="m264.547 200.717 1 5-1.3-.5-.4-4.3z"/><path fill="#FCCA3E" stroke="#AA8C30" stroke-width=".2" d="M265.647 199.017c.6.7-.4 1.9-1.4 2.2s-2.4-.2-2.4-1.2 1.6-.5 2-.6c.6-.2 1.2-1.2 1.8-.4ZM256.947 207.817c.884 0 1.6-.492 1.6-1.1 0-.607-.716-1.1-1.6-1.1-.883 0-1.6.493-1.6 1.1s.717 1.1 1.6 1.1Z"/><path fill="#FCCA3E" stroke="#AA8C30" stroke-width=".3" d="m259.547 206.417 4.8-.2-.8-1-4 .4z"/><path fill="#FCCA3E" stroke="#AA8C30" stroke-width=".2" d="M259.947 205.817c.5 1.3.5 3-.9 2.7-1.4-.1-1-1.4-1.2-1.8-.2-.9-1-1.7-.2-2.5s2 .4 2.3 1.6ZM244.347 181.017c.497 0 .9-.627.9-1.4s-.403-1.4-.9-1.4-.9.627-.9 1.4.403 1.4.9 1.4Z"/><path fill="#FCCA3E" stroke="#AA8C30" stroke-width=".3" d="m244.347 182.817.1 4.6-1.2-1v-3.8z"/><path fill="#FCCA3E" stroke="#AA8C30" stroke-width=".2" d="M246.148 181.417c.3 1-1.3 1.6-2.4 1.4-1-.2-1.9-.7-1.7-1.7.1-1 1.5-.8 2-.5.4.3 1.8-.8 2.1.7zM236.147 187.617c.884 0 1.6-.314 1.6-.7 0-.387-.716-.7-1.6-.7-.883 0-1.6.313-1.6.7s.717.7 1.6.7Z"/><path fill="#FCCA3E" stroke="#AA8C30" stroke-width=".3" d="m239.047 186.917 3.6-.3 1.6 1.2-5.3-.2z"/><path fill="#FCCA3E" stroke="#AA8C30" stroke-width=".2" d="M237.747 184.917c1 0 1.6 1.1 1.5 2.3-.2 1.1-1 2-2 2-.9-.2-.8-1-.8-1.2 0-.3.5-.7.6-1 0-.4-.3-1.3-.1-1.6 0-.4.3-.5.8-.5Zm-3-28.3c-.4.6-1.2 1.1-1.6.9-.4-.3-.2-1.2.2-1.8.4-.7 1-1 1.4-.8.4.3.4 1 0 1.7Z"/><path fill="#FCCA3E" stroke="#AA8C30" stroke-width=".3" d="m230.647 163.917 2-4.8-.2-.3-2.4 3.4z"/><path fill="#FCCA3E" stroke="#AA8C30" stroke-width=".2" d="M232.347 159.117c-1-.7-1.2-1.5-1-2.3.4-.7 1.2-.2 1.2-.2l.8.7c.4.2 1 0 1.4.6.5.6.2 1.2-.1 1.4-.4.1-1.5.4-2.3-.2Zm-8.5-.6c.7.4 1.1 1 .9 1.5-.3.5-1 .5-1.8 0-.7-.3-1-1-.8-1.5.2-.4 1-.5 1.7 0Z"/><path fill="#FCCA3E" stroke="#AA8C30" stroke-width=".3" d="m225.947 160.617 3.8 2.2-.1 1.8-4.1-3.5z"/><path fill="#FCCA3E" stroke="#AA8C30" stroke-width=".2" d="M225.947 161.017c-.8 1-1.6 1-2.3.7-.7-.5-.1-1.2-.1-1.2l.8-.7c.2-.4 0-1 .7-1.4s1.2 0 1.3.3c.1.4.3 1.5-.4 2.3Z"/><path fill="#AA8C30" d="m336.547 200.217-.4.4-.3 1v-1.5l.5-.3zm.2-.9s-.3.5-1.1.5-1.2-.4-1.3-.8-.1-.7.2-1.2c.2-.5-.4.4-.4.4v1l.6.6.5.2h.4l.7-.2.4-.3zm4.2 7.3s-.4.2-.7.1c-1.9-.6-3.5-1.8-3.5-1.8l3.8 2.4zm2.4 1.1s0 .7-.8 1c-.7.3-1.2.2-1.5-.1s-.4-.6-.4-1.2l-.1.6.4.8.8.4.5-.1.5-.2.4-.5.3-.5zm24.3-47.6-.1.4v.7l-.9-1 .4-.5zm-.5-1.2c0 .7-.9 1.6-1.6 1.3s-1.2-1-.9-1.8l-.2.3.1 1.1.7.6h.9l.6-.3.4-.7zm10 1.8c.1.4-.6 1.7-1.4 1.6-.7-.1-1-.8-1-1.4s-.1.2-.1.2v.8l.5.4.6.4.6-.2.7-.3.2-.6v-.9z"/><path fill="#AA8C30" d="M373.747 161.417s0 .4-.4.7l-1.3.7 2.8-.8-.2-.7zm-17.1 22.5-.1.5v.8l-1.6-2.5.5-.3zm-.9-2.4c-.2.7-1.4 1-2 .8-.5-.4-1-1.6-.3-2l-.4.2-.1.7.2.7.6.7.5.1.8-.2.6-.4s.4-1.3.1-.6m5.6 5.7s0 .3-.5.3h-1.6l2.6.6.2-.6z"/><path fill="#AA8C30" d="M364.547 187.917c.3.8-.5 1.7-1.5 1.4s-1.3-1.3-1-1.8l-.2.6.2.8.6.6h1.3l.6-.7.2-.7-.1-.2zm-99 11.1c.3.3-.1 1.5-1.2 2-1.2.4-1.7 0-2-.4s-.3-.8-.3-.8l-.2.2.2.6.5.5 1 .2.8-.1.7-.5.4-.3.3-.5v-.6z"/><path fill="#AA8C30" d="m264.547 201.517-.3.4-.3.8v-1.4l.5-.3zm-3.8 4s0 .3.2.5l1 .3h-1.8l-.2-.7h.8zm-.6 1.2v.2a1.4 1.4 0 0 1-.1.5c-.2.5-.3 1-1 .9a1.2 1.2 0 0 1-1-1.1c0-.4-.2-.6-.2-.6v.6l.4 1 .7.3h.5l.5-.2.2-.6.1-.5zm-4.7-.1s.2.8 1.2.8 1.2-.2 1.2-.2v.3l-.2.2h-1.7l-.3-.3-.3-.5v-.3zm-9.4-25.4v.4c-.1.3-.7 1-1.8 1-1 0-1.5-.3-1.8-.7-.3-.3-.4-.8-.4-.8v.5l.4.7 1.1.5h1l1-.3.5-.5.1-.6zm-1.7 2.3s-.4 0-.6.2a4 4 0 0 0-.4.4v-1.3h1zm-4.7 3.4.5.3c.5.3 3.1.5 3.1.5h-4.1l.1-.8zm-.5 0-.2.6c-.2.5-.7 1.6-1.6 1.4-.9-.1-.7-.8-.7-.8v-.4l-.2.7.2.4.4.2.7.1.4-.2.6-.5.2-.5.2-.6zm-2.2.2s0 .2-.7.2-1.7-.3-1.7-.3l.4.4.5.2h1.3zm-2-29s0 .5-.3.8c-.4.3-1.3.5-1.8.2s-1.5-1.3-1.5-1.3l.4.8.7.6 1 .3 1-.2.4-.4.2-.3z"/><path fill="#AA8C30" d="M231.947 159.517v.6l-.2 1.1.9-2-.4-.2zm-5.4 1.5.2.5c.2.5 2.3 2.6 2.3 2.6l-3.3-2.9.4-.5zm-1 .3s-.5.3-1 .3c-.3 0-1 0-1-.4-.1-.5.1-.7.1-.7l-.3.6.1.4.5.3h.7l.6-.3.2-.2zm-1.5-1.4h-.5c-.7 0-1.4-.8-1.4-.8l.5.8 1 .5z"/><path fill="#9CA168" d="M379.847 150.617c-.3 3.8-4.1 5.8-6.1 7.2s-3 3.2-3 3.2l-.6 2.2-.3 1.5-.1.5c.1.4.3 1 .3 2l-.1 4.3 2.7-1.9 1.9-.7.6-.1s-2.2 2.1-3 4.4-2.4 7.2-5.3 8.8c-3 1.6-4.8 1-5.7 1.8-1 .8-1 1-1 1l-1.3 1.8-1 1.2-.9.7-.6.4a7.4 7.4 0 0 1-.2 1.7l-.7 2.4s.6-.4 1.3-.5h1.3s-.5.6-.7 1.3c-.2.6.1 4.6-3.6 7-3.8 2.3-13.4 2-13.4 2l-1.8.7-1.7 1.3-1.6 1.7v.4s-1.3 1.5-2.1 2l-2.8 1.9 2.2.1 3.5 1.5s-2.2 0-3.6.5c-1.5.6-8.2 4.4-11.4 4.3-3.3-.1-8-4.9-8-4.9l-2-1.4-3.5-.7-4.3-.2v-.6l.1-.7s1.5-.2 3.8.1c2 .2 2.7 1 4.4 1.1 1.7.2 3 0 3.5-.3.7-.3 5.9-4.7 5.9-4.7l5.8-2 2.3.3 1 .2.9.3-1 1c-.42.423-.89.792-1.4 1.1l.7.6 3.7-.6 1.2.3.3.2c0-.3.2-.8.6-1.3.4-.6 2.5-2.3 3.4-2.9l1.4-1c.3-.3 1.5-3.3 1.5-3.3l.1-1.6 4.1-4 2.8-2.9 1.2-3.3-.2-.7s1 1 .9 3c-.2 2.2-.7 2.9-.7 2.9s2.8-2 4.3-2.6c1.2-.5 2-.5 2.4-.5.4-.2 1.5-.9 2.1-1.8.8-1.2 1-1.5 1-2l.2-2.8-.3-7 2.4-5.4 3.5-3.1.7-.4-.4 1.2v1.5s1.8-2.5 2.7-2.9l.5-.3a7 7 0 0 0 .8-2l.3-3v-3l-.5-2.3-1.7-4.3v-5.8l-1.2-1.6s1.1 0 2.5 2a13.5 13.5 0 0 1 1.9 5l3.3-10.3s.9 1.2 1.5 3.3l.8 3.3 1.4-2.8.1 1c.2 1 2.3 2.1 2 6m-67.3 65s-.7-1.6-3.9-3.2c-3.1-1.5-5.5-1.8-5.5-1.8v1.1l5 2.2 2.4 2z"/><path fill="#717732" d="M335.347 206.017c.3-.4 3-2.8 4.4-3.5s3.2-.8 3.2-.8c1.9-.4 2.2-.1 6.6-2.5 4.3-2.4 5.3-5.2 6.2-5.9.8-.7 2.3-.8 2.3-.8l-3.4 3.9a28.5 28.5 0 0 1-5.8 4.5 17.8 17.8 0 0 1-7.6 1.8 7.7 7.7 0 0 0-4 2c-1.3 1-2 2.2-2 2.2s-.2-.5 0-.9zm12-12.7c-4 3.7-5.3 7.2-5.3 7.2l5.4-4.9c1.9-1.8 4.5-2.6 5.6-3.7 1.2-1.1 1.3-2 2-2.7l1.3-1s-1.8-1.4-9 5.1m-8.5 8.6s1.7-.8 2.4-2.3c.5-1.2.2-1.5 1-2.8 0 0 4.2-4 5.7-5.8 2.6-3.1 1.4-5.7 1.4-5.7s.3 1.3-.8 2.7c-1 1.4-6.5 5-7.2 7.2-.6 2.2-.3 2.3-.6 3.4-.6 2.6-1.9 3.3-1.9 3.3m-2.8 10.5s-2.1-1.4-4.5-1.3c-4.9.4-9 3.4-12.2 3.4-3.1.1-4.4-1.5-6.9-3.2-2.6-1.8-9.2-1.5-9.2-1.5v.3s4.4 0 6.4.6c3.6 1 5.6 4.8 9.7 4.6 5.5-.3 9.9-3.6 12-3.6 3.8 0 4.7.7 4.7.7m-24-2.4s3.7.6 6.6-1.5c3-2.1 6.4-5 8.3-5.2 2 0 4 .4 4 .4s-2.5-1-4.4-1c-2 0-4 .2-5.8 1.3s-2.7 3-4.6 4.3a12.8 12.8 0 0 1-4.1 1.7m-.7 5c-.5 0-1.1.3-1.3.3s-1.3-1.2-3-2c-1.6-1-4-1.4-4-1.4s-.3 0 .3.2l3.8 1.5a8.6 8.6 0 0 1 2.6 2.1c.1.3.6.9 1.5.8 1 0 1.3-.5 1.2-1 0-.3-.6-.5-1.1-.5m2.6-3.6s1.5.8 4 .8c5.2-.2 8.6-3.8 12-5 3.4-1.4 5.2-.3 5.2-.3s.1-.2 0-.2a7 7 0 0 0-3.9-1.2c-5.7 0-11.2 3.7-13.5 4.7s-3.8 1.2-3.8 1.2m56-39.9c-1.8 1.9-4.5 7.7-5.6 9.3-1.2 1.6-2.7 2-3.3 2.7-.6.6-2.7 3.5-3.2 4.1-.5.7-.6.5-1 .8-.3.3-.5.3.1.2s.8-.5 1.6-1.5c1-1 .9-1.4 2.3-2.7 1.4-1.2 3.9-2.6 5.1-4.2 1.3-1.5 3.8-7.5 5.2-9s4-2.4 4-2.4-2-.6-5.3 2.7zm-9 11.1s-.1-1 1.2-2.6 1.7-1.3 2.8-3.6c1-2.3 1.5-4.5 2.3-6.9.9-2.4 2.3-4.8 2.3-4.8s-1.3.2-2.7 2a34.5 34.5 0 0 0-4.8 8.7c-1.1 3.4-1.1 7.2-1.1 7.2m-1.7 2.2s.5-.2.5-3.2c.1-2.9-.1-7 .7-9 .9-2 5.4-7 5.4-7s-1.9.5-4.5 2.5-3.7 4.7-3.6 6.7c.2 2 1.3 4.2 1.4 6.1l.1 4zm10.5-20.1s1.1-4 1.6-5 .5-1.5 2.7-4c1.3-1.5 2.6-2.4 3.1-4.4.6-2 .6-7.7.6-7.7s-.6.5-1.1 1.5-.1 4.7-1 6.4c-.8 1.7-2.7 5.6-3.7 6.5 0 0-.2-2.9.2-5.7.3-3 1.3-3.8 1.7-5.7s.2-6.7.2-6.7-1.5 1.5-2.3 3.4c-.8 1.8-1.2 5-1.2 7.5s.5 4.5.6 5.9.2 2-.4 3.6l-.6 2q-.3 1.314-.7 2.6zm-3.5-21.6s1.4 1.7 1.2 3.6c-.3 2-1 4.5-.2 6.5.7 2 1.9 2.2 2.2 3.4s.3 3.4.3 3.4.6-4.3.2-5.5c-.5-1.1-.7-.6-1.3-1.8s0-4.7-.4-6.7c-.5-2-2-2.9-2-2.9"/><path fill="#9CA168" d="M286.647 215.217s.4-1 3.1-2.4a34 34 0 0 1 7.3-3c.3.3-.3 1.8-.3 1.8l-2.6.8-2.1 1.2-2.5 1.6z"/><path fill="#9CA168" d="M293.547 208.117c-3.4.1-5.3 1-6 1-.2.1-.7.5-1.2.3a4.9 4.9 0 0 1-1.5-1.5l-.7-.7-.2 2.5-5-4.4-.6 3-.7 1.3-5-4.8.2 3.7-1.4.1-3.6-2.5-1 .4 1.2 2.2-4.6.3-1 .8q-.556.443-1 1v.4h1.9c.4-.2.6-.7.7-.5.2.2.3 1.2.9 1.1.6 0 2.7-1.7 4.2-1 1.7.8-2.2 2-1.8 3.1.4 1.2 3.2.7 4 .3.6-.3 2.7-3 3.6-2 1.2 1.4-2.5 2.5-1.8 3.9.6 1.3 2.7 1 3.7.4 1-.5 3.4-4.1 3.9-3.4.9 1.4-2 2.7-1.3 3.7.8 1 2.3 0 3.4-.8s1.5-2.5 3-3.3c1.4-.8 1.3-.5 1.7-.5s1.5-1.1 1.5-1.1l3.5-1.5 1.6.2.9.4 1.7.2.2-1.4s-2-1-3.3-1zm-27.4 0 .7-1.3-.4-.6s-1.2-.7-2.3-1.8a6.9 6.9 0 0 0-2-1.6l-2.2-1.4-.8-2.8-.5-.9-1.3.6-1.7-6.1-.3-1.1h-.7l-1.5 3.6-1.5-2.3-.4-5-1 1-1.3 1.4-2.3-4.6s-.1-.1-.3.3c0 .3-.3 1.8-.1 2.6a26.2 26.2 0 0 1-6-5.2l-1-2.5 1-2 .5-2.6-2.2.9-.4-5.7-.3-1.8-2.7 3.8-1-1.7v-3.6l-.7-.2-1 2s-1.1-2-1.6-2.5c.1-.8.2-2.9-.3-4.5-.6-2-1.3-3.1-1-4.8.2-1.6.9-1.8.8-2.5 0-.8-1.2.5-.8-.5s3.8-3.2 3.1-4.4c-.7-1.1-4 1.9-3.3-.1.8-2 4-2 4.2-4.9.1-1.7-3 1.1-3.3.2-.3-.8 2-2.6 1.9-3.8 0-1 .4-1.2-.2-1.8s-2.6 2.3-2.6 2.3l-2-.7-.8 3-.6 2.5-2.6-1.5.7 3.1.6 3-2.7-.7 1.4 2.6 1.9 2 1.1 1.5.9.4 1 1.1.5 1.7.6 1.9.1 1.8v2.4l-.1.4v1.1c-.5 0-1.4-.8-1.7-.3-.3.6 1.6 2 1.2 2.4-.3.4-3-.5-3.2.3-.2 1 .2 2.2 1.8 2.6s5.3 1.2 4.7 2c-.6.7-4.7-2.3-4.5-.1a3.8 3.8 0 0 0 2.6 3.4c1 .4 5.1 0 4.9 1-.3.9-3.3-.4-3.6 1s2.1 1.6 2.6 1.6 2.2-.1 2.9.4l4.3 4.1a76 76 0 0 0 4.6 3.4c-.8 0-2.4-.3-2.6.3-.3.7 6 3 4.2 3.8-1.8.7-3.8-2-4.3-.4-.6 1.7 1.2 3 2.2 3.6s6.7.1 5.6 1.4-5.3-.8-5.3.7 2.7 4 4.2 3.9c1.4 0 3-2.4 3.6-1.1.7 1.2-1 1.7.3 2 1.4.4 2.3-1.4 4-1 1.5.3 4 1.3 5.4 2.5a77 77 0 0 1 2.9 2.8"/><path fill="#717732" d="M288.347 214.517c1 0 1 .6 1.2.6.1 0 1.8-1.5 3.3-2.3a17.5 17.5 0 0 1 4-1.4l.1.2s-2.8.7-4.2 1.7l-3 2.1c-.2.2-.8.7-1.7.7-1 0-1.4-.6-1.4-.9 0-.2.7-.7 1.7-.7m8.5-4.3s-.9.1-1.3-.3a4.3 4.3 0 0 0-2.6-.8 7 7 0 0 0-4 1.8c0 .1-.3.6-1.4 1.3.4.1 1.1-.4 2-1a7.4 7.4 0 0 1 3.6-1.4c1-.2 1.7.4 2.2.7.5.4 1.4.3 1.4.3v-.6zm-50.5-20.6v-.7c-.76-.31-1.496-.678-2.2-1.1-1.6-1-5-3.8-5-3.8l2.8 2.7c1.4 1.3 4 2.9 4 2.9zm35.6 25.2 1.5-2.1c.9-1.5 1.7-2 1.9-2.2.1-.2-.4-.9-.7-1.4l-.2-1.2s.4.8 1 1.3q.589.457 1.1 1s1.4-.2 1.4-.5c0-.2 0-.4-.2-.5-.3-.1-.5.2-1.1 0-1.3-.6-1.8-2.6-2.6-2.6-.8-.1-.2 2-.6 2-1.1.2-2-4.3-5-4.5-2 0-2.3.3-2.4.7 0 .5 2.5 3.1 1.6 3.5-.8.4-3.5-4.2-5.5-4.2-1.9 0-2 .7-2 1.1.2.4 2.2.8 1.8 2.2-.5 1.4-2.5-2-4.3-1.9-1.8.2-2 .3-2 .9-.1.5.6 1.2.3 1.4-.2.2-1.4.1-2.3.7-.9.7-2.1 2.4-2.1 2.4s1.2-1.7 2.7-1.9a50 50 0 0 1 5.6 0l-1.1-.8c-.6-.5-1.1-1.6-1.1-1.6l1.7 1.5c.8.7 1.9 1.2 1.9 1.2s1.7.2 1.8.4 0 .6-.8 1.3l-1.7 1.7 2-1.6 1.5-1.2 1.4.2c.1 0 0-.5-.8-1.7l-1.6-2.5s1 .9 2 2.3c1.1 1.3 1 2 1.4 2s1 .2 1.4.1c.4 0 .3.6-.4 1.7s-1.2 2.5-1.2 2.5.8-1.2 1.6-2c.7-.8 1.1-1.7 1.5-1.8h1.5l-.8-1.6c-.6-1-.8-2.6-.8-2.6s.6 1.4 1.4 2.5l1.3 1.9 1.4-.1.3.1c0 .5-.2.7-.7 1.8a18 18 0 0 0-1 2.1m-21.5-12.4c1.2.5 1.7.5 1.7.5s-1.7-1-2.1-2.4c-.5-1.4 0-4.4-.8-4.3-.7 0-1.1 2.1-1.8 1.7-.8-.4.2-4.4-.6-6-.8-1.7-2.6-2.9-3-2.3s-.3 4.2-1.5 3.5c-1.1-.8.1-4-.2-5.3-.4-1.5-1.2-2.5-1.9-2.1-.6.3.3 3-.7 3s-.9-1.9-1.3-2c-.5-.2-.6.3-.9 0-.2-.4 0-1.7-.6-1.6s-.5 1.2-.3 1.7c.1.6.5 1.4.7 1.8s1 .9 1 1.2c-.1.3-.5.6-1 .6h-1.9s1.4.4 1.9.4 1.4-.2 1.7.2c.2.5 1.4 2 1.4 2s.3-.8.4-2.2c.2-1.5 0-2.7 0-2.7s.5 1.6.4 2.7c0 1-.4 3-.4 3s1.1.8.8 1c-.3.3-1.5.3-2.8.3-1.4 0-3.3-.5-3.3-.5a13.7 13.7 0 0 0 6.7 1.3l1.8 2s.9-1.5 1-3v-3l.4 2.8c0 1.3-.4 3.6-.6 3.8a5 5 0 0 1-1.9 1l-3.5.5s2.2.3 3.8 0c1.5-.4 1.7-.9 2.2-.6l.8.7 1.3 1c.1.1-.7.4-1 .7l-1.5.7 2.2-.7q.555-.186 1.1-.4l.5.2-.1-1.2-.3-1.8s.5.8.7 1.6l.1 1.6s.2.2 1.4.6m-31.1-35.6s.3-1.7.3-3.6a14.3 14.3 0 0 0-1.9-5.8l1-1.4-1.2 1-1.2-.5a3 3 0 0 1-.9-1l1.2.8c.6.2.7.1.7.1l-.5-2-1.9-1c-1.3-.6-2.5-1.8-2.5-1.8l2.8 1.5c1 .4 1.6.4 1.6.4l1.6-.6 1.7-1.1s-1 .6-1.8.7l-1.6.3-.3-2.4-1.1-1.1c-.9-1.2-1.6-2.9-1.6-2.9s1 1.2 1.7 1.7c.7.6 1.4 1.5 1.4 1.5l1.6-1 2.8-2-2.7 1.3-1.6.7s-.2-1 0-1.5c.3-.4.8-1.2.7-1.6 0-.5-.4-.3-.5-.7-.2-.3.4-2.6.4-2.6l.1 1.2c0 .5-.2 1 .4 1s3.2-2.7 3.6-3.2c.3-.5.8-1.8-.6-1.3-1.4.6-1 1.8-2.2 1.7-.4 0-.8-1.5-1.2-1.2-.4.4-1.4 1.3-1.6 2.4-.2 1 .2 2.6-.4 3.1s-1-1.8-2.2-1.5-1.5 2-1.3 2.6 2.7 3.5 2 4c-.9.3-2.9-2.6-4-.6-1 1.9 3.4 4 4 4.4.5.5 0 .6.8 1.6s1.8 1.2 2.4 1.8a13 13 0 0 1 2.1 5.9zm11.7 17.1s-1-1.2-.7-3.3c.3-2 1.8-5.7 1.3-6.2s-2 2.2-2.4 1.6.9-4.3.2-5.8c-.6-1.5-.7-2.5-2-2.3-1.3.1-1.8 4.4-2.5 3.6-.6-.7.4-2.6 0-3.7-.5-1-.7-1.3-1.3-1.2-.7.2-1 2.2-1.4 2.1-.5 0-1.2-2.3-2.2-2-.9.3 2.3 4.5 2.3 4.5s.5-.5.8-1.2l.6-1.5s.3 1.3 0 1.9c-.2.5-.3 1.7-.3 1.7s-.8.3-2.1 0a8.8 8.8 0 0 1-2.3-.7s.8.6 2.1 1l2.7.7q.95 1.387 2 2.7l.8-2.1 1.3-3.5-.6 3.9-.7 3s-1 0-2.6-.3l-3.6-.8 3.6 1.2 2.8.7 1.4 1.9 1-1.5 1-1.8s-.3 1.4-.7 2.3q-.33.71-.7 1.4l-1.8.2h-2.5c1.46.475 2.97.777 4.5.9 0 0 0 .5.7 1.3.342.517.784.959 1.3 1.3"/><path fill="#fff" d="M294.347 221.217s-.6-.6-1.4-1c-.9-.5-1.2-.4-1.2-.4l-.4-.1.8-2 5.5-5.3.9-5.3h3.4v7.2l1 .5 6.2 3.7v1.6l-1 .4-.7.4-2.3.2-4-3-1.8-1.7-3 4z"/><path fill="#016848" d="m298.747 207.117-.1 1c0 .9 0 5.2-.2 5.8s-3.2 1.8-4.9 3.3-1.8 2.6-1.8 2.6-.5 0-1.6.4c-1 .4-1.5 1-1.5 1s.6-2.6 3.4-5c2.7-2.6 4-2.8 4.4-3.2.3-.4 0-5 0-5.5.1-.4.5-.4.7-.4zm7 15.7.8-1.1 1-.8-1.5-.8c-1.5-.6-2.3-.4-3.3-1.2a13.6 13.6 0 0 1-2.2-2l-1.5 1.2 1.7 2c.9.8 2.7 1.1 3.5 1.6a8.8 8.8 0 0 1 1.6 1.1z"/><path fill="#CD202A" d="M301.447 207.017s1.7 0 1.9.2l.2.6c0 .1 0 4-.2 5.3a8 8 0 0 1-1.4 3l-4 3.7c-1.2 1.2-2.4 2.8-2.4 2.8l-.8-1c-.3-.4-.7-.6-.6-.9a10 10 0 0 1 3.3-3.4c2-1.3 3.6-2.8 4-4.9.3-2 0-5.4 0-5.4"/><path fill="#CD202A" d="M312.447 220.417s-.4-.4-1.8-.4l-1.5.1s-.8-1-2-1.7c-1.2-.8-2.1-.7-3.5-1.6-1.3-.8-2-2.1-2-2.1l1-2s1.2 1.5 2.4 2.4c1.1.9 3.7 1.7 4.6 2.4z"/><path fill="#30C2DC" stroke="#0872A7" stroke-width=".5" d="M324.947 196.817s-3.6-1.4-3.4-2.7c.3-1.2 8.3-3.3 8.3-3.3l.1-2.1s-1.2-.1-3.2.5c-2 .7-5.2 1.6-8.6 1.6a1726 1726 0 0 0-34.4-2.2c-3.7-.3-6-6-6-6l-1.8.4s.5 2.7-.4 3a65 65 0 0 1-13.9-6l-.6 2.6s7.3 4 7.1 5.5c-.2 1.4-2.4 1.3-2.4 1.3l1 1.8c.3 0 12 .6 12.3 4.1 0 1.5-3 2.3-3 2.3l1 1.2v.6s6.7 0 8.5 1 2.7 2.6 5 3.8c2.2 1.3 17.3 1 19.6.3 2.7-.7 4.3-3.7 8.7-5 4.3-1.4 5.7-1.4 5.7-1.4z"/><path fill="#fff" stroke="#0872A7" d="M264.447 193.217a2.1 2.1 0 1 0 0-4.2 2.1 2.1 0 0 0 0 4.2ZM276.347 183.417a2.1 2.1 0 1 0 0-4.2 2.1 2.1 0 0 0 0 4.2ZM326.447 199.117a2.1 2.1 0 1 0 0-4.2 2.1 2.1 0 0 0 0 4.2Z"/><path fill="#F8C83C" d="M255.048 178.217c-.7 1.6 2 4.6 4 5 1.8.2 2.8-.2 3.2-1.1a2.8 2.8 0 0 0-.4-2.5c-1.2-1.7-6-3-6.8-1.4"/><path fill="#fff" d="M260.947 180.617c0-1-1.6-1.9-2.6-1.9s-2 0-1.8.5c.1.6 2.7 1.3 2.8 1.6 0 .3-.8.6-.4 1 .5.4 1 .1 1.4-.2s.7-.4.7-1z"/><path fill="#F8C83C" d="M277.647 198.717c.4 1.4-.7 2-2 2.7-1.5.6-4.3.2-5-.9-.6-1.1 1-3 2.8-3.4 1.7-.4 3.8.3 4.2 1.6"/><path fill="#fff" d="M274.747 199.417c.5 0 .6 1 1 .8.5 0 1-.8.8-1.3-.1-.6-1-1.3-1.8-1.2-.8 0-3 2-2.8 2.5s.8.5 1.2.3 1-1 1.6-1z"/><path fill="#F8C83C" d="M329.147 191.417c1.3 1.7 3.6.2 4.2-.5.6-.6 2.4-1.7 1.7-2.8-.8-1.1-2-1-3-1-.8 0-2.6 1.4-2.9 2-.3.5-.6 1.6 0 2.4z"/><path fill="#fff" d="M329.547 190.417s.1-1.9 1.8-2c1 0 1 .3 1.8.7.7.4 1-.5 1-.5s0 1.3-1.1 1.3c-1.2 0-.8-.5-2-.7-1-.2-1.5 1.1-1.5 1.1z"/><path fill="#F9AA51" stroke="#953220" stroke-linecap="round" stroke-linejoin="round" stroke-width=".5" d="m301.847 186.817-.9-.6h-2.8l-3.4.1 3.4 9.9 4 5.8 1.6.6 3.1-.2.6-1.6-1.2-9.5z"/><path fill="#F9AA51" stroke="#953220" stroke-linecap="round" stroke-linejoin="round" stroke-width=".5" d="m290.547 187.417.2-1.1 1.8-.1a7.2 7.2 0 0 1 2.2.1s2.3 2.9 3.1 4.7 1.7 4.8 2.7 6.6c1 1.9 3.2 5 3.2 5h-4l-2-.6-5.6-9z"/><path fill="#F9AA51" stroke="#953220" stroke-linecap="round" stroke-linejoin="round" stroke-width=".5" d="M288.147 186.217h2.6a14 14 0 0 1 3.9 5.4c1 2.8.5 3.2 1.8 6.2 1.4 2.9 3.2 4.9 3.2 4.9s-3.9.2-6-.2c-2.3-.4-3-.3-3.6-1a9.2 9.2 0 0 0-1.7-1.3h-2.2l.5-3.1-.6-6.9.1-3.5zm23.4 1.8-3.7-1.5-7-.4.6 3.6a30.2 30.2 0 0 0 2.6 7.7c1.1 2 2.2 4.4 2.8 5 .6.5 4.6-1.1 4.6-1.1l2.6-.4-.3-2.8-.4-1 .6-8-.6-1.2z"/><path fill="#F9AA51" d="M287.047 188.117c0 .8 1 .9 1.2.8.2 0 1-.3 1-1.5s-.7-2.1-2.2-2.2c-1.4 0-2.5 1.7-2.5 3 0 1.2 1.2 1.8 1.2 2.3 0 0-1.2 1.1-1.1 3.1 0 2 1.6 3.6 1.6 3.6s-1.7 1.3-1.7 2.7 1.3 2.3 2.6 2.3c1.2 0 2.8-.8 2.8-1.8s-1-1.7-1.7-1.7c-.8 0-1.1.5-1.1.8m25.6-10.9c0 .9-.6 1-1 1s-1.2-.4-1.2-1.5c0-1 1.4-1.6 2.4-1.6.9 0 2.4 1.2 2.4 2.7s-1 2.6-1 2.6.6.3.6 2.2c0 2-1.2 3.3-1.2 3.3s1.6.6 1.6 2.6-1.4 2.6-2.3 2.6c-1 0-2.6-.5-2.6-1.9 0-1.3.8-1.8 1.5-1.8.6 0 1.3.7 1.3 1.5"/><path stroke="#953220" stroke-linecap="round" stroke-linejoin="round" stroke-width=".5" d="M287.047 188.117c0 .8 1 .9 1.2.8.2 0 1-.3 1-1.5s-.7-2.1-2.2-2.2c-1.4 0-2.5 1.7-2.5 3 0 1.2 1.2 1.8 1.2 2.3 0 0-1.2 1.1-1.1 3.1 0 2 1.6 3.6 1.6 3.6s-1.7 1.3-1.7 2.7 1.3 2.3 2.6 2.3c1.2 0 2.8-.8 2.8-1.8s-1-1.7-1.7-1.7c-.8 0-1.1.5-1.1.8m25.6-10.9c0 .9-.6 1-1 1s-1.2-.4-1.2-1.5c0-1 1.4-1.6 2.4-1.6.9 0 2.4 1.2 2.4 2.7s-1 2.6-1 2.6.6.3.6 2.2c0 2-1.2 3.3-1.2 3.3s1.6.6 1.6 2.6-1.4 2.6-2.3 2.6c-1 0-2.6-.5-2.6-1.9 0-1.3.8-1.8 1.5-1.8.6 0 1.3.7 1.3 1.5"/><path fill="#953220" d="m289.447 199.017.4.6c.2.4.3 1 .8 1.4.8.7 7.2 1 9.2 1s7.8.2 8.9-.4c1-.7 1.2-1.8 1.9-2.3l.9-.4-.9.7v1.4l.5.8s-.1.4-.8.8-1.3.5-2.3.6-13.2.1-15.2-.2c-2-.4-1.8-.3-2.4-.7a4.3 4.3 0 0 1-1-1l.3-.8-.3-1.4zm20-11.8 1 .5s-.9.3-1.6 2.3-.1 2.5-.6 2.7-5.8 0-5.8 0l-1-2.1z"/><path fill="#231F20" d="M326.347 186.417s-.9-.3-1.3-1c-.4-.8-.8-1.7-.5-2 .4-.1 1 .5 1 1.1s.8 2 .8 2zm10.4-2.8s.7 1.2 1 1.3l1.2.6s-1.5 0-2-.4a8.3 8.3 0 0 1-1-1.5z"/><path fill="#231F20" d="M339.947 184.617s-1 .5-1.6.2c-.8-.3-1.4-.7-1-1 .2-.4.4-.3.8.2.4.4 1.8.6 1.8.6m5.3-4.5s-.8.6-1.3.6-1.5-.2-1.5-.4 1.3-.4 1.6-.3zm-8-10.5s-1.1.4-1.5 1c-.4.5-.3 1.2.2 1.2s.6-.7.6-1zm-5.2 2.9s-.9.5-1 1c-.3.5-.5 1.6 0 1.6s.7-.8.7-1.2c0-.5.3-1.4.3-1.4"/><path fill="#8CBEBF" stroke="#04534E" stroke-width=".5" d="m322.747 178.817-2.9 3s6.6 3.7 11.7 3.5c5-.1 10.8-4 11.2-5 .4-.7 0-4.3-.6-5.4-.7-1.1-4.2-3.8-5.5-3.7s-3.7 1.9-5.8 4c-2.2 2.1-2 3.9-5 3.7z"/><path fill="#0C8489" d="M321.947 180.017s7 1 9.1-.8c2-1.8 4.3-5.3 5.7-6 1.4-.9 2-.9 2-.9l1.6 1.1 1.8 1.5.6 3.4v1.8l-2.2 1.8-4 1.9-4 1.2-3.2-.1-6.7-2-1.7-1.1-.4-.4z"/><path fill="#04534E" d="M332.747 175.917c0-.6.4-.6 1-.6s1 .2 1 .8-.5 1.4-1 1.4c-.6 0-1-1-1-1.6m2.8 1.8c0-.6.4-.8 1-.8.7 0 1.3.7 1.3 1.2s-.5 1-1.1 1c-.7 0-1.2-.9-1.2-1.4m-1 4.2c0-.7.5-.8 1.1-.8s1 .3 1 1a1.2 1.2 0 0 1-1.1 1.2c-.7 0-1-.7-1-1.4m-3.7-1.3c0-.7.7-1 1.3-1s1 .7 1 1.4-.4 1.3-1 1.3-1.3-1-1.3-1.7m-5.9.7c0-.397.158-.779.44-1.06a1.495 1.495 0 0 1 2.121 0 1.5 1.5 0 1 1-2.561 1.06"/><path fill="#8CBEBF" d="M335.547 177.717c0-.5.7-.8 1-.8.5 0 .8.4.8.8s-.3 1-.7 1-1-.5-1-1zm-1 4c0-.5.6-.8 1.2-.8s1 .3 1 .8-.5 1-1 1c-.6 0-1.1-.4-1.1-1zm-3.7-1.2c0-.6 1-.9 1.5-.9.4 0 .3.4.3 1 0 .7-.3 1.2-.7 1.2s-1-.7-1-1.3zm1.8-4.7c0-.5.4-.5.8-.5s.6.1.6.7-.3 1-.6 1c-.4 0-.8-.6-.8-1.2m-7.7 5.1c0-.6.6-1.3 1.4-1.3s1.7.3 1.7 1c0 .6-1 1.8-1.8 1.8-.9 0-1.3-.8-1.3-1.5"/><path fill="#231F20" d="M327.648 179.817s-1 .1-1.5.6-.5 1-.3 1.2c.3.2.7-.3.8-.6 0-.2 1-1.2 1-1.2m4.7-1s-1 .6-1 1.3c-.1.6 0 1 .2 1 .3 0 .5-.9.4-1.2s.4-1.2.4-1.2z"/><path fill="#231F20" d="M333.147 179.717s-.6 0-1 .4c-.5.5-.9 1-.6 1s.8-.2.8-.5c0-.2.8-.9.8-.9m1-5.4-.8.6c-.2.2-.5 1-.2 1 .3.2.5 0 .8-.5.2-.5.2-1.1.2-1.1m3.5 2.3s-.9 0-1.2.5c-.3.4-.5.8 0 .8.3 0 .4-.2.6-.5.1-.4.6-.8.6-.8m-.5 4.1s-.2.7-.8 1c-.5.3-.7.5-1 .1-.1-.4.2-.6.4-.7z"/><path fill="#04534E" d="M342.747 177.917s.4 2-1.3 3c-1.7.9-6.4 4.2-10.9 3.8s-9.6-3-9.6-3l-.7.4 1.2.5 3.4 1.4 4 1.2 2.5.1 2.1-.2 4-1.3 3.3-1.7 1.8-1.4.4-.6v-1.9z"/><path fill="#231F20" d="M254.847 152.617s1 .9 1 1.6c-.2.8-.4 1.1-.7 1-.3-.2-.3-1-.3-1.3zm7.7 7.1s-.3 1.4-.9 1.5c-.5.1-.9-.4-.8-.7.1-.2.6 0 .8-.2zm-16.8 1s.4.8 1 1c.8 0 1-.4 1-.6-.1-.2-.4-.2-.8-.2zm3 6s.7.6 1.5.7a1.3 1.3 0 0 0 1.3-.7c0-.2-1-.2-1.3 0-.3.3-1.5 0-1.5 0m5.3 4.4s1.4-.2 1.6-.6.6-1 .3-1.3c-.3-.4-.5.5-.7.9-.1.3-1.2 1-1.2 1"/><path fill="#8CBEBF" stroke="#04534E" stroke-width=".5" d="M262.547 167.517s1-6-4-10.4c-5-4.3-8.1-3.2-9.8-1.6s-3.2 6.7 2 11.3c5.3 4.5 11.7 3 11.7 3z"/><path fill="#0C8489" d="M247.547 161.117s-.1-3.4 1.5-4.4c1.5-1 6.8-1.8 9.3 3.1 2.6 5 2.7 7.4 2 10h-2.7l-4.3-1.8-3.5-2.6z"/><path fill="#04534E" d="M261.947 168.417s-.9 1-2.7 1c-1.7-.2-10-2.3-12-9.8v1.7l.1.5.6 1.5 1.7 2.5 2.2 1.9 2.8 1.4 2 .6 2.5.4h1.5z"/><path fill="#04534E" d="M257.647 166.317c0-.7.3-.7.8-.7s1-.2 1 .4c0 .7-.4 1.6-1 1.6-.4 0-.8-.7-.8-1.3m.3-4c0-.4.4-.8 1-.8.5 0 .9.4.9.9 0 .4-.4.8-1 .8-.5 0-.9-.4-.9-.8zm-3.7 4.4c0-.4.4-.7 1-.7s1 .3 1 .7c0 .3-1 .8-1.5.8-.6 0-.5-.5-.5-.8m-.4-4.6c0-.6.3-.4.8-.4s1.2.1 1.2.7-.7 1.4-1.2 1.4-.8-1.2-.8-1.7m-3.4.7c0-.5.3-1.1.9-1.1s1.3.6 1.3 1.1-.5 1-1.1 1-1.1-.5-1.1-1m.6-4c0-.6.3-.5 1-.5.6 0 1.1.2 1.1.7s-.7 1.2-1.4 1.2c-.6 0-.7-1-.7-1.5zm3.7-.5c0-.4.5-.3 1-.3.7 0 1.1.4 1.1 1s-.7 1-1.3 1-.8-1.2-.8-1.6z"/><path fill="#8CBEBF" d="M250.947 158.717c.2-.4.4-.7.8-.7.5 0 .9.1.9.7 0 .4-.4.9-.8.9-.5 0-1-.5-.8-1zm-.6 4c0-.5.2-1 .7-1s1 0 1 .5-.5 1.1-1 1.1-.7-.1-.7-.6m4.4-4.3c0-.4.3-.4.8-.4s.8 0 .8.5c0 .4-.4.7-.8.7s-.8-.4-.8-.8m-.9 3.9c0 .5.5 1 1 1s1-.5 1-1c0-.6-.6-1-1-1s-1 .4-1 1m4.3-.6c0 .5.4.9 1 .9.5 0 .9-.4.9-.9s-.5-.9-1-.9-1 .4-1 1zm-4.1 5c0-.5.5-.9.9-.9s.9.3.9.7-.8 1-1.2 1c-.5 0-.6-.4-.6-.9zm3.6-.7c0-.5.4-.6 1-.6.5 0 .8.1.8.6 0 .6-.5 1-1 1s-.8-.5-.8-1"/><path fill="#231F20" d="M258.647 159.817s.5.7.6 1.3v1.2c-.3 0-.6-.4-.7-.9s0-1.6 0-1.6zm-3.2-3.3s.4.5.4 1 0 1-.3 1-.3-.4-.3-.8zm-3.7.5s.4.5.4 1 0 1-.3 1-.3-.4-.3-.8z"/><path fill="#231F20" d="m250.447 157.717 1 .4c.3.4.5.8.3 1-.1.2-.5-.1-.6-.4zm2.8 3.8s.7 0 1.1.5c.4.3.8.6.5.9-.2.2-.7-.2-1-.5zm-3.4 0 1 .3c.3.2.4.7.2.8-.1.1-.4 0-.6-.4zm8.3 2.5.2 1.4c0 .5.1 1-.2 1s-.3-.7-.3-1c0-.5.3-1.4.3-1.4"/><path fill="#231F20" d="m257.247 165.317.8.5c.3.2.3.6.1.6l-.4-.5a9 9 0 0 1-.5-.6m-3.7.2.9.3c.2.2.3 1 .2 1.1 0 .1-.4 0-.6-.3z"/><path fill="#04534E" d="M252.047 154.217s-3.2.7-3.8 2.9c-.6 2-.7 4.4-.7 4.4l-.4-2.7.6-1.7 1-1.6 1.4-1 1.3-.4zm10.2 12.5s.4-.8-.6-3.4c-1-2.5-3-6-3-6l1.6 1.8 1.2 2 .6 1.8.5 1.7v1.6l-.3.6z"/><path fill="#231F20" d="M265.547 162.617s1.2.7 1.3 1.1.2.6-.1.7-.8-.4-1-.7a6.5 6.5 0 0 1-.2-1.1m-4.8 12.8s.6-1 1.3-1.3c.7-.4 1.2-.4 1.4-.1.2.2-.4.7-1 .9zm8.1 3.1s.8-.4 1.3-1c.5-.5.6-.9.4-1-.2-.3-.8 0-1.1.5-.3.4-.6 1.5-.6 1.5m-.9-.7s.3-1 .6-1.4c.3-.3.6-.5 1-.3.2.2 0 .6-.2.9a7.7 7.7 0 0 1-1.4.8"/><path fill="#8CBEBF" stroke="#04534E" stroke-width=".5" d="M281.447 171.617s-5-7.2-12.8-7.6a7.4 7.4 0 0 0-5.482 1.806 7.402 7.402 0 0 0-2.518 5.194c.2 1.6 2.6 5.2 10.9 5.8s9.6-3.9 10-4.1c.3-.2-.1-1-.1-1z"/><path fill="#0C8489" d="M275.548 166.717s2 1.5 3 2.8c.8 1.2 1 2.2.5 2.3-.5.2-5-4-8.8-4.9-3.7-.9-6.9 0-7.6 1.7s-.4 4.5 1.2 5.6c1.8 1 9.7 2.3 9.7 2.3l3.7-.5 2.3-1.3.5-1.3.6-1.6.2-.7-1.9-2z"/><path fill="#04534E" d="M269.147 167.717c0 .4-.5.7-1 .7s-.9-.3-.9-.7c0-.5.4-.9 1-.9s1 .4 1 .9zm-4.6 1.6c0-.5.6-.4 1-.4.6 0 1 .3 1 .8s-.8 1.1-1.3.9c-.6-.3-.7-.8-.7-1.3m5 2.7c0-.6.4-1 1-1 .7 0 1.2.4 1.2 1s-.8 1.2-1.5 1.2-.7-.6-.7-1.2"/><path fill="#8CBEBF" d="M265.747 173.117c0-.5.6-.6 1-.6.5 0 1 .5 1 1s-.5.9-1 .9c-.4 0-1-.8-1-1.3"/><path fill="#04534E" d="M272.447 174.917c0-.4.2-.8.7-.8.4 0 1 .3 1 .7s-.5.9-1 .9a.796.796 0 0 1-.7-.8m3-2.3c0-.5.3-.4.8-.4s1 .2 1 .8-.6.8-1.1.8-.7-.6-.7-1.2"/><path fill="#8CBEBF" d="M268.947 167.317c0 .4-.2.6-.7.6s-.9-.2-.9-.6c0-.5.2-.6.6-.6s1 .1 1 .6m-2.5 1.9c0 .5-.7.7-1 .7-.5 0-.8-.2-.8-.7s.3-.6.8-.6 1 .1 1 .6m1 3.8c0 .4 0 .7-.5.7s-1-.3-1-.7 0-.7.5-.7 1.1.3 1.1.7zm4-1.3c0 .4-.7 1-1.2 1-.4 0-.6-.9-.6-1.3s.4-.7.8-.7 1 .6 1 1m5.8 1.3c0 .4-.7.4-1 .4-.5 0-.8-.5-.8-1 0-.4.1-.8 1-.7.5 0 .8.8.8 1.3m-3.4 1.7c0 .5-.3.8-.7.8a.8.8 0 0 1-.8-.8c0-.4.4-.6.8-.6s.7.2.7.6"/><path fill="#231F20" d="M274.347 172.417s.8-.3 1.5-.3c.6 0 .6.3.6.4s-.5.3-.7.2a97 97 0 0 1-1.4-.4zm-3.3 2.8s.6-.4 1.1-.5.9 0 .8.4c0 .3-.2.3-.6.3zm-2.2-5s1.4.6 1.7 1.1c.3.6.4.7.1.9s-.6-.2-.8-.5z"/><path fill="#231F20" d="m268.447 172.017 1.6-.3c.5 0 .6 0 .7.2 0 .2-.1.3-.5.3zm-3.4 0s1.2.2 1.5.5.3.6.1.7c0 .2-.6.1-.8 0z"/><path fill="#231F20" d="M264.947 173.717s.4-.7.8-.8 1-.1 1 .1c.1.2-.4.5-.7.6zm-1-5.1 1.2.3c.4.3.5.6.4.7 0 .1-.5.2-.8 0-.5-.4-.7-1-.7-1zm2.6-3s1.2.4 1.6 1c.4.5.3.8.1.9l-.9-.4c-.3-.3-.8-1.4-.8-1.4z"/><path fill="#04534E" d="M279.947 174.117s-2.3 2-7.7 1.9c-5.5-.2-10.4-2.5-11.6-5l.5 1.2 1.2 1.6 3.8 2 4.3.9 3.3.2 3.2-.6 2.5-1.1.4-.7zm.8-2.5s-.9-1.2-2.2-2.3c-1.2-1.2-6.2-4.4-6.2-4.4l4 1.8 2.7 2.2 1.8 2z"/><path fill="#231F20" d="M280.947 166.817s1.4.5 1.6.8l.5.6s-.3 1-.6.6l-.8-.9zm4-2.2s1.3.5 1.8 1.1c.5.7.4 1.2.2 1.3-.2 0-1-.7-1.2-1q-.338-.705-.7-1.4z"/><path fill="#231F20" d="M286.347 164.417s1.2.8 1.4 1.2c.1.4.5 1 .1 1-.3.2-.9-.4-1-.8l-.6-1.5zm6.8 1.5s1 .4 1 1.2v1.3l-.7-.7v-.7l-.3-1zm1.8.7s.8.7.9 1.2c0 .5.2.8-.3 1-.4 0-.6-.5-.6-1zm-12.3 15s.6.2 1.2 0c.5-.2 1-.7.9-1-.1-.4-.4-.7-.8-.2-.4.4-.2.6-.5.8zm6.8 1.8s.9-.2 1.5-.9c.6-.6.9-1 .5-1.2s-1 0-1 .5zm5.5.1 1.3-.9c.5-.4.7-.7.4-1-.3-.5-.6-.2-.8 0l-.2.7z"/><path fill="#231F20" d="M296.647 183.517s.8-.9 1-1.4c.1-.5.2-1-.1-1-.4 0-.8.5-.8.9z"/><path fill="#8CBEBF" stroke="#04534E" stroke-width=".5" d="M279.848 174.517c0-2.4 3.5-8 7.5-8 1.6 0 4.9 1 7.5 2.1 2.2 1 3 2 4.4 2.4 1.5.4 3.7.1 3.7.1l5-.5-4 5.7-1.4 1.2s-1.2 2.4-4.7 3.8c-3.6 1.4-9.5.4-12.2-.3s-6-3.2-5.8-6.5Z"/><path fill="#04534E" d="M279.847 174.517h.2c0-.5.2-1.3.6-2.1a12.2 12.2 0 0 1 2.7-3.8c1.1-1 2.5-1.8 3.9-1.8.8 0 2 .2 3.4.6 1.4.366 2.77.834 4.1 1.4q1.5.75 2.4 1.5c.7.4 1.3.8 2 1a9 9 0 0 0 2 .2l1.8-.1 4.4-.5-3.6 5.2-1.4 1.2v.1a9 9 0 0 1-4.6 3.7q-1.95.6-4.5.6c-2.8 0-5.9-.5-7.6-1a8.4 8.4 0 0 1-3.8-2.1 5.7 5.7 0 0 1-1.8-4h-.5c0 1.7.8 3.2 2 4.4a9 9 0 0 0 4 2.3c1.7.4 4.8 1 7.7 1 1.595.037 3.185-.2 4.7-.7a9.4 9.4 0 0 0 4.9-4h-.3l.2.1 1.4-1.3 4.3-6.2-5.6.7h-.1a14.8 14.8 0 0 1-3.4-.1 5.5 5.5 0 0 1-1.9-1c-.6-.4-1.4-1-2.5-1.4a29 29 0 0 0-4.2-1.5c-1.3-.4-2.6-.6-3.4-.6h-.1c-1 0-2 .3-3 1a11.2 11.2 0 0 0-3.3 3.5 8.3 8.3 0 0 0-1.4 3.7z"/><path fill="#0C8489" d="M303.947 175.317c-.4.3-1 .3-1.4.3-.5 0-11.6-6.7-15-6.4-3.5.3-6.8 1.7-6.9 5.3 0 3.5.8 3.5 1.5 4.5s7.5 2.5 7.5 2.5h4.1l3.3-.4 3-1.6 1.5-1.3 1.1-1.3z"/><path fill="#04534E" d="M286.447 173.417c0 .8-.3 1.3-1 1.3-.6 0-1.1-.3-1.1-1s.4-1 1-1c.7 0 1 .1 1 .8zm1.1-3c0-.6.6-.8 1.2-.8.7 0 1.2.2 1.2.8s-.5 1-1.2 1c-.6 0-1.2-.4-1.2-1m6.7 1.8c0-.5.4-.9 1-.9.5 0 .9.4.9 1s-.4.8-1 .8a1 1 0 0 1-1-.9zm1.3 4c0-.6.5-1 1-1 .6 0 1.2.2 1.2.8s-.2 1.3-.8 1.3-1.4-.4-1.4-1zm-3.2 2.7c0-.6.5-1 1-1 .7 0 1.2.4 1.2 1 0 .5-.5.9-1 .9-.7 0-1.2-.4-1.2-1zm-6-1c0-.6.3-1 .9-1a1.01 1.01 0 0 1 .899.14 1 1 0 0 1-.899 1.76 1 1 0 0 1-1-1z"/><path fill="#8CBEBF" d="M286.347 173.417a1.002 1.002 0 0 1-1.707.707 1 1 0 0 1-.293-.707c0-.6.4-.8 1-.8s1 .2 1 .7zm3.3-3.2c0 .5-.2.9-.8.9-.5 0-1.3-.4-1.3-.9s.5-1 1-1c.6 0 1 .5 1 1zm6.4 1.7c0 .5-.4.9-1 .9s-.9-.4-.9-.9c0-.4.4-.8 1-.8s.9.4.9.8"/><path fill="#04534E" d="M292.647 174.617c0 .7-.3 1.2-1 1.2-.6 0-1.1-.3-1.1-1s.3-1 1-1 1 .2 1 .8z"/><path fill="#8CBEBF" d="M287.947 177.617c0 .5-.4 1-1 1s-1-.5-1-1 .6-.8 1.2-.8.8.3.8.8m4.5-3a.997.997 0 0 1-1 1 1 1 0 1 1 1-1m5.2 1.3c0 .6-.3 1-1 1-.6 0-1.1-.4-1.1-1s.2-.8.8-.8 1.3.2 1.3.8m-3.3 2.7c0 .6-.4 1-1 1s-1.1-.4-1.1-1c0-.5.5-.8 1-.8.6 0 1 .3 1 .8z"/><path fill="#231F20" d="M294.747 175.417s1.6-.2 1.9 0c.3.4.3.8.1 1-.1 0-.8.1-1-.1 0-.3-1-1-1-1zm-1.7-5.4s1.3.3 1.8.9c.5.5.4 1 .4 1.1-.2.1-.6.2-1-.2zm-3.7 2.6s1.5.8 1.8 1.3c.3.4.4.8.2 1-.1.2-.8 0-1-.3 0-.3-1-2-1-2"/><path fill="#231F20" d="M288.647 173.717s1.7.2 2 .5c.5.4.8.4.8.6 0 .3-.3.4-.5.4a3.6 3.6 0 0 1-1.2-.5l-1-1zm-1.9-4.8s1.7.2 2 .5c.4.3.5 1 .1 1.2s-.8-.2-1-.5a8 8 0 0 0-1-1.2zm-3.6 2.5s1.5.8 2 1.4c.3.4.5.7 0 1-.4 0-.9-.7-.9-1a9 9 0 0 0-1.1-1.4"/><path fill="#231F20" d="m282.747 173.417 1.5-.2c.5 0 1.2-.1 1.2.2 0 .4-.6.5-1 .4zm8.6 5.6s1.1-.7 1.7-.6c.5.1.7.1.7.4 0 .4-.7.3-.9.3zm-6-.9s.4-.6.9-.7c.4 0 .6 0 .7.2 0 .2-.4.6-.6.6h-1z"/><path fill="#04534E" d="M302.547 177.017s-1.6 2-4 3a14 14 0 0 1-7.2 1.1 15.21 15.21 0 0 1-11.2-5.2l.4 1.1 2 2.6 2.3 1 3.5 1 3.3.3h2.5l3-.5 1.9-.7 1.3-.8 1-.8 1.2-2zm-3-5.9s-1 .3-3-.9-4.3-2.8-8.8-2.8-5.9 3-6.2 3.2l2-2.6 2-1.1 1.7-.3h1.5l2 .6 1.7.6 2.1.7 1.8 1 2.2 1.1zm6 1.4h-3.4c-.8 0-.8.2-1 .4a4 4 0 0 1-.2.4l-.8-1.7 3.5-.5 2 .7-.2.6z"/><path fill="#0C8489" stroke="#04534E" stroke-width=".5" d="M300.647 190.817c.2.5.6 1 1.1 1h1.6l3.6-.3 1.2-1.4.8-3.2 1-1.2 3.3-1.9 2.8-.8 1.9-.2 2.5-.8 1.9-1 .8-1.2.8-1.8-.8-2.5-2-2.7-3.4-1.3h-2.8l-3 1.1-5.5 1.3s-3 1.3-4.3 3.7c-1.3 2.3-1.2 3-1.5 6-.2 3.2 0 7.2 0 7.2Z"/><path fill="#8CBEBF" d="M302.147 189.617c1 0 .2-1.7 1.4-3.8 1.2-2 2.6-4.6 3-4.6s.4.4.9.3c.4-.2 1.2-.8 1.2-1s0-1.3 1-2c.8-.8 2.1-1.9 2.7-2s1-.3 1 0c.1.3-.3.7.1.8.4.2 1.4.1 1.6-.5l.2-1s.6-.5 1.8-.3c1.2.3 1.3.2 1.4.7.1.4-.5.5-.4.8v.6c.2.2.4 1 1.2 1 .8-.1 1.1-.6 1.1-.6l.3-.4s.2-.5-.1-.7-.2-.4 0-.3c.4.1 1.6 1.8 2 1.1s.5-1.7.2-2a94 94 0 0 1-1.9-2.7l-3-1-4 .3-4 2.2-3.6 2s-.2 2.9-.8 2.3c-.7-.5-1.6-2-1.9-1.5s-.9 2.7-1.3 3.8c-.3 1-1.4 4.4-1.3 5.6s.8 2.9 1.2 2.9"/><path fill="#8CBEBF" d="M305.747 184.817c-.3 0-.7.3-.8.5-.2.2-.3.5-.2 1 0 .3.7.7.7.7h.5l1-.3.3-.8c0-.5-.3-.6-.4-.6q-.555-.239-1.1-.5m6.2-5c-.6-.3-.8.1-1 .3v.5s.2.8.4 1c.3 0 1.1.3 1.3 0 .3-.2.5-.4.5-.9s-.7-.7-.7-.7zm5 1.1c0-.2-.5-.3-.9-.2-.3 0-.7.4-.6 1 .2.7.8.7 1.2.6.5-.1.4-.8.4-.9zm-14.4 1c0 .3.5 1 1.2.9.282-.014.551-.119.767-.3.217-.18.369-.426.433-.7 0-.4-.4.3-1 .5s-.7.2-1 0c-.2-.4-.4-.4-.4-.4"/><path fill="#04534E" d="M307.247 185.917s0 .6-.4 1c-.5.3-.8.3-1 .3-.3 0-.6 0-.8-.3l-.3-.7s.5.8 1.3.6a2 2 0 0 0 1.2-.9m13.3-8.3s0 .6-.5.9-.7.3-1 .3c-.2 0-.6-.1-.7-.4-.6-1-.3-1.5-.3-1.5s.4 1.6 1.3 1.5a2 2 0 0 0 1.2-.8m-11.9 2.9s-.4 1.2-1.2 1.2c-.9 0-.8-.2-.7-.4 0-.1.3.2.7 0 .4 0 1.2-.8 1.2-.8m2.3-.3s0 1 .2 1.2c.3.4.7.5 1 .5s.6 0 .9-.4.1-.8.1-.8l-.2.5c-.3.3-.5.3-.8.3s-.7 0-.8-.3zm4.3-4.3s.2.7-.3 1.2c-.5.6-1.5.2-1.5.2s.8.3 1.2-.2c.4-.4.6-1.2.6-1.2"/><path fill="#04534E" d="M301.647 191.517s5.3 0 5.7-.8c.4-.7-.4-3.6 2.7-5.8 3.2-2.2 5.7-2.2 7.4-2.3 1.7-.2 5.3-1.3 6-4.5.3-2-2.3-2.2-3.3-4-1-2-3.6-1.2-3.8-1.2-.1 0-3 0-4.3 1.3-.9.8-.8 1.8-1.1 2.2-.4.5-4 0-4.3.6-.4.6.1 1.7-.2 2-.2.3-1-.8-1-.8l.2-2.8 4.5-2.6 5-2.8 3.5.1 3.5 1.8 1.7 2s.3.8.5 2.3a5.3 5.3 0 0 1-.2 2c-.8 2.8-3.7 4.8-6.7 5a14 14 0 0 0-7 2.5c-1.4 1-2.1 5.3-2.1 5.9 0 .5-6.6.1-6.6.1z"/><path fill="#231F20" d="M303.947 181.217c-.3.3-.7.2-.8 0-.2-1 .3-2.2.3-2.2v1.6c.1.2.4.1.5.3zm3.2-.6c-.2-.1-.1-1 0-1.3.2-.3 1.7-1.4 1.7-1.4l-.6 1.5c-.2.4-.7 1.3-1 1.2zm-1.2 5.3c-.3 0-.3-.4-.3-1s1-1.6 1-1.6l-.4 1.2.2 1c0 .3-.3.4-.5.4"/><path fill="#231F20" d="M308.347 184.417s-.5.6-1 .9-1.1.7-1.4.6c-.4 0 .1-.8.3-.9zm4.5-6.4s-.6.5-.9 1.2-.4 1.3-.1 1.4c.3.2.7-.8.8-1.1z"/><path fill="#231F20" d="M314.547 180.317s-.5-.4-1.2-.6c-.8-.2-1 0-1.2.2 0 .2-.6.5-.3.7.2.2.6-.3.8-.3.2-.1.5-.3.9-.2zm-1-4.5c.3.3.7-.2 1-.6.4-.4.7-1.2.7-1.2l-1 .7c-.4.3-.9 1-.7 1.1m6.9-.1s-1 .4-1.2.8c-.3.4-.7.8-.4 1 .3.3.6-.2.8-.5zm-2 4.6s-.3.6-.9 1c-.5.4-1.2.5-1.3.3s.1-.6.3-.7l.8-.2a7.4 7.4 0 0 0 1.1-.4"/><path fill="url(#b)" d="M272.942 169.415c1.583.243 3.158-1.464 3.517-3.812.36-2.347-.633-4.446-2.216-4.689-1.583-.242-3.158 1.465-3.517 3.812-.359 2.348.633 4.447 2.216 4.689"/><path fill="#FCCA3E" stroke="#AA8C30" stroke-width=".3" d="m275.347 157.417-1.7 4.2 1.4-.2.7-3.8z"/><path fill="#FCCA3E" stroke="#AA8C30" stroke-width=".2" d="M276.047 155.517c-.6 0-1.1.4-1.2 1 0 .7.4 1.3 1 1.4.6 0 1.1-.4 1.2-1 0-.7-.3-1.3-1-1.4Z"/><path fill="#FCCA3E" stroke="#AA8C30" stroke-width=".3" d="m349.647 166.217-4.2 4 1.7.4 2.9-3.8z"/><path fill="#FCCA3E" stroke="#AA8C30" stroke-width=".2" d="M351.547 164.517a1.5 1.5 0 0 0-2 .6c-.5.7-.3 1.5.4 2 .7.3 1.6 0 2-.7.4-.6.2-1.5-.4-1.9Z"/><path fill="#FCCA3E" stroke="#AA8C30" stroke-width=".3" d="m242.747 143.417 2.2 4.9 1-1.4-2.6-3.7z"/><path fill="#FCCA3E" stroke="#AA8C30" stroke-width=".2" d="M241.847 141.317c-.6.4-.6 1.3-.1 1.9.4.6 1.3.7 1.8.2.6-.5.6-1.3.1-2a1.3 1.3 0 0 0-1.8-.1Z"/><path fill="#AA8C30" d="M276.547 155.717c-.5 0-1.4.4-1.4 1a1.003 1.003 0 0 0 1 1c.5 0-.2.2-.2.2l-.7-.2-.2-.4-.2-.5.1-.6.4-.5.5-.2h.3z"/><path fill="#AA8C30" d="M275.547 158.517s-.3 0-.5.3q-.342.555-.7 1.1l1-2.3.4.2zm76.4 6.4s.3.4-.1 0c-.4-.3-1.8-.2-2.1.5-.4.8 0 1.4.6 1.7.6.2-.2 0-.2 0l-.7-.5-.1-.6v-.7l.5-.6.7-.3h.7l.3.2z"/><path fill="#AA8C30" d="M349.347 167.717s-.3-.2-.8 0l-1.4.9 2.3-2.2.5.6zm-107-26.7s.4-.1 0 .1c-.5.3-.8 1.4-.3 2 .6.5 1.3.4 1.7 0 .4-.5 0 .2 0 .2l-.7.4h-.6l-.6-.3-.4-.6v-.8l.2-.5.3-.3.3-.2z"/><path fill="#AA8C30" d="M243.947 144.217s-.3.1-.2.6l.3 1.5-1.2-2.7.7-.2z"/><path fill="url(#c)" d="M245.016 154.01c1.157 2.262 3.331 3.463 4.855 2.683s1.821-3.246.664-5.507c-1.157-2.262-3.331-3.463-4.855-2.683s-1.822 3.246-.664 5.507"/><path fill="#E92736" d="M242.547 151.617s1 .2 1.5 0 .6-.7.7-.8.3-.6.2-1a3.8 3.8 0 0 0-1-1.4l-1-.1c-.1-.1 0-.4-.2-.5-.3 0-1.7 1.6-1.5 1.8.3.3.4 0 .5.1v1.1c0 .3.8.8.8.8"/><path fill="#E92736" d="M243.947 148.517c.1.3.7 1 .9 1 .2.2.8.2 1 0 .3 0 1-.7 1-1a1.5 1.5 0 0 0-.1-.7c-.2-.3-.1-1-.4-1.1-.2 0-.3-.1-.5-.3v-.7c-.3-.3-2.6 1.1-2.4 1.4.2.2.4 0 .5.1z"/><path fill="#E92736" d="M249.147 148.017c.2-.4.1-1.5-.1-1.8s-.6-.3-.7-.4c0-.1.3-.2.3-.5s-2.6.1-2.4.4.6.1.6.3-.4.4-.5.6l.3 1.1c0 .2 0 .4.2.5l.6.2h1.4c.1-.1.2-.1.3-.5zm22 12.8s.3.7.8 1h1l.6-.5c.2-.2.4-1.2.3-1.4 0-.2-.5-.6-.5-.8s.3-.2.2-.4-2-.2-2 .2c0 .3.3.2.2.3 0 .2-.5.5-.6.7-.2.1 0 1 0 1z"/><path fill="#E92736" d="M273.747 159.917c0 .2-.2 1 0 1.1 0 .2.3.7.5.8h1.2c.192-.155.331-.364.4-.6.1-.3.6-.7.5-.9s-.2-.2-.1-.4c0-.2.3-.2.3-.5s-2.1-1-2.2-.7c0 .3.3.2.2.4 0 .2-.7.6-.8.8"/><path fill="#E92736" d="M277.247 162.917c.3-.2 1-.9 1-1.1 0-.4-.3-.6-.2-.7l.5-.1c.1-.2-1.6-1.6-1.7-1.3 0 .3.3.4.2.5l-.7.1c-.1.1-.5.6-.5.8s-.3.2-.2.5l.2.4c.1.2.8.9 1 .9zm66 5.5s0 .8.4 1.2c.3.3.6.3.8.4h.7a3 3 0 0 0 1-1c0-.3-.3-.8-.2-1s.3 0 .3-.2c0-.3-1.6-1.1-1.7-.8-.1.2.2.3 0 .4l-.8.2c-.2 0-.5.8-.5.8"/><path fill="#E92736" d="m345.947 168.917-.8.8c0 .2 0 .7.2.8 0 .2.7.6 1 .5.1 0 .3 0 .5-.2.2-.1.8-.2.8-.4l.1-.4c.1-.1.4 0 .6-.2s-1.2-1.7-1.4-1.5 0 .3 0 .4c-.2 0-.9 0-1 .2"/><path fill="#E92736" d="M346.347 172.617h1.4l.4-.5c.1 0 .1.2.4.2.2 0 0-2-.3-1.8-.2.1-.1.5-.2.4-.2 0-.3-.3-.5-.3a2.4 2.4 0 0 0-1 .1s-.2 0-.3.2l-.2.4v1c.1.2 0 .2.3.3"/><path fill="#F7E204" d="M244.147 149.417c.2.4-.1 1.2-.3 1.4-.1.2-1.3-.1-1.3-.3s-.1-.6 0-.8c.2-.2.6-.7.9-.6.3 0 .6.3.7.4zm.3-1.3c-.2.3 0 .6.2.7.1.2 1 .4 1.2.3.2-.2.6-1.5.4-1.7s-.6-.2-.7-.2c-.2 0-1 .6-1.1.9m2.7-1.3v.7c.2.1.7.5 1 .5s.5-1 .5-1.1c0-.2-.1-.3-.3-.4l-1.2.2zm26.1 13.7c0 .4-.7.7-.9.7s-.7-1-.6-1c.1-.2.3-.5.5-.5s.7 0 .9.2zm1.1-.6c-.2.1-.3.4-.3.6s.3.8.5.9c.2 0 1.2-.5 1.3-.7 0-.2-.2-.5-.4-.6l-1-.2zm2.4 1c-.2 0-.4.3-.4.5 0 0 0 .6.3.8.2.2.8-.2.9-.3v-.4c0-.2-.8-.6-.8-.6m68.6 8.2c-.2.2-.9.2-1 0-.3 0-.3-1-.1-1 .1-.1.4-.3.6-.2.2 0 .6.3.6.6zm1 .1q-.45 0-.6.3c-.1.1-.2.7 0 .9.1.1 1.2.2 1.3 0v-.5zm1 2h-.5c-.1 0-.4.4-.4.7 0 .2.7.3.8.3l.3-.2-.1-.8z"/><path fill="url(#d)" d="M339.661 176.515c.815.901 2.97.281 4.814-1.385s2.679-3.747 1.864-4.649-2.97-.282-4.814 1.385c-1.844 1.666-2.678 3.747-1.864 4.649"/><path fill="#A8AC71" d="M265.747 109.717s-3.8.3-6.5-.1-2-7.3-2.1-7.5c0-.2-1.6-1.8-1.4-3.3.3-1.5 5.2-5.5 5.8-5.8.5-.1 1.5.3 1.5.3s1.2-1.2 1.6-1.2.9.7.8 1c-.2.3-1.9 1.3-2 2-.2.8 0 1.5-.5 2.3-.5.7-1.4 1.7-1.5 2.4-.1.6-.4 1.1 0 1.4.5.2 2.1 0 3.5-.6 1.4-.7 2-1.5 2.1-1.4.2 0-.8 1.7-2.3 2.4-1.5.6-2.5 1.3-3.3 1.2 0 0-.8 2 1.8 2.2 2.6 0 4-.6 4-.6zm-15 16s2 .8 2 3-2.1 4.1-2 8c0 4 .6 4 5.8 8.3a5.7 5.7 0 0 1 1.6 2.5c.3 1.3 1.2 8.9 6.2 8.9s5.8-3.3 5.8-3.3l-2.2-3.1s-1.7.5-2.7.3a3.4 3.4 0 0 1-2.3-2.1c-.6-1.2-.7-4.1-1.6-5.4-2-3.2-5.8-3.7-5.9-7 0-3.4 2.3-3.7 1.7-7.7-.7-4-5.4-5.8-5.4-5.8l-1.9-.8-.7 4z"/><path fill="#F1A720" d="M264.647 98.017c1.7-.4.7-4.8.7-4.8l-1.2 1s.8 1 .8 2-.3 1.8-.3 1.8"/><path fill="#A8AC71" d="m267.747 141.917-.9-.7c-.6-.4-3.2-2.6-2.8-8.9.5-7.2 11-11 11.6-13.8.8-3.2 3.1-4.5-5.2-11l-2 2.2 3.5 2.6s.7-.4.8.6c0 1-1 1.7-1.2 2.5-.2.7-5.4 4.3-5.8 4.6l-3 2.4s-1.3 1.3-2.5 4.1c-1.3 2.8-.7 6.4-.7 6.4s0 7.6 8.2 9"/><path fill="#78732E" d="m262.647 145.917.6 2.7-1.7.6h-.7l-.5.2-1.3 1.2h-.3s-.2 0-.3-.8c0-.8-.2-1.5-.2-1.5l1.6.7h.6l.3-.1.7-1.5zm-4.8.5-.8-1-1-.9 1.2-.6h1.2l-.2 1.5zm2.7-4.3s.8.3 1 1l.6 1.2-2-.2-1.4-.4 1-1.4zm-.7 11.9s-.4-.3-.7-.9l-.4-1.6 1.3-.3 1.5.7h.4l-.3.8-1.5 1.3zm5-4.1s-1-.4-1.2-1c-.2-.5-.4-.4-.4-.4l-.3 1.5-.5 1.5.2.2 1.1-.3.9-.9.3-.6zm-4.7 4.8 1.4.7c.8.5 1.2.5 1.2.5l.6-.6.7-1.3v-.1l-3 .3zm4.4-1.2 2.7-1.6.1-1.4-.5-.4h-1.5l-.5 1.8zm-1.8 2.5s1.8.8 5-.4c1.4-.5 1.7-1.2 1.7-1.2l-1.3-.5-1.2 1zm-2.5-20.3-.4-1.4c-.2-.8-.1-1.1-.1-1.1l.9.5 1.3 1-1 .7zm2.2 3.7-.9-1q-.332-.584-.6-1.2l1 .2 1.1.6z"/><path fill="#C6C7A6" d="M256.548 97.417c-.2.7-.4 1.9.5 2 .4.2 2.3 0 4.5-2.4 1-1.2 1-2.4 1-2.4l.5-1.3s-.9-.6-2.2.2-4.3 4-4.3 4z"/><path fill="#1C242F" d="M262.447 94.417a.4.4 0 1 0 0-.8.4.4 0 0 0 0 .8"/><path fill="#A8AC71" d="M259.647 94.417a18 18 0 0 0-1.7 1.7s1.4-.4 2.6-1.5c.6-.6 2-.8 2.6-.7.4.1.2-.4 0-.5-.3-.3-1.4-.4-1.6-.3z"/><path fill="#78732E" d="M264.047 134.917v-2.2l-.9.8-.8 1.1 1.3.5zm-4.5-2.6v-2.3c0-1 .5-3.1.5-3.1l.6 1.4 1.5 2.4.5.4-1.3 1-1.4.4zm4.5-.6.3-1c.1-.6.5-1.4.5-1.4v.1a25 25 0 0 0-2 1.7l.8.7h.5m-3.7-6s.2-.6 1-1.5l1.3-1.8.6 2.4.4 2v.4l-.7.2c-.2 0-1.6 0-1.8-.3zm4.8 2.9.8-.9 1-1-3.2.6.5 1zm-2-6.7s.3 0 1.2-1c.8-.8 1.3-.7 1.3-.7l.3 3.4-1.6-.5z"/><path fill="#78732E" d="m267.247 126.617 2-2-3.3-1 .6 2.3zm1.4-5.2.2-3.3s-.7.3-1.5 1l-1.2.9.4.6 1 .7h1zm2.8-3.2v-2.8s-.5.8-1 1.2l-.9.8.9.6h1zm1.2 3.5 1.6-1.3a6.5 6.5 0 0 0 1.5-1.7l-4.2-.3.2 1.7 1 1.6zm-9.6-13.8-.2 1.8h3.5l-.9-1.2-1-.6-1-1zm6.6 16.2c.2 0 1.1-.8 1.6-1.2.4-.5 1.2-1 1.2-1l-3.3-.3v2.2zm6.3-5.9s.4-1.3.3-2.6c0-1.2-.2-1.8-.2-1.8l-2.5 1.7.4 1.2 1 1z"/><path fill="#78732E" d="M271.747 115.217s.7-1 .8-1.4v-.4h2l1.1.2h.2l-.9 1.1-1.2.7-1.5.2zm4-2-1.3-2c-.4-.7-.8-1-.8-1l-1 2.7v.3h3.1"/><path fill="#fff" d="m251.547 132.617-.3.8s1.3-.7 2.3-.7 2.1 1.3 2.1 1.3l.2-.9s-1.3-1.3-2.2-1.3c-.8-.1-2 .8-2 .8zm.7-5.8.3.4c0 .1.1-1 1.4-1.5 1.4-.6 2-.1 2-.1s-.2-.8-.8-1c-.6-.1-1.1 0-1.8.5a3.7 3.7 0 0 0-1.1 1.7m4.4 4.4s-.6-1.4-1.6-1.6c-1.1-.3-2.5.5-2.5.5l-.2.7s1.5-.8 2.5-.4c1.1.5 1.5 1.7 1.5 1.7l.3-1zm-5-5.1.4.5s-.2-1.4.5-2.1a5 5 0 0 1 1.1-1l-.6-.3s-.9.5-1.2 1.1a3.2 3.2 0 0 0-.2 1.8m-.5-2.3c.3-.8 1.2-1 1.2-1l-.3-.3h-.5s-.5.3-.9 1c-.3.9-.3 2-.3 2l.6.3s-.1-1.4.2-2m7.8-19.2c.9-.4 1.5-.3 1.5-.3s-1.3 1.3-.7 2.9c-.7 1.3-.9 2.3-.9 2.3h.7l.4-1.8c.8 1.3 2 2 2 2h1s0-1.3.4-2.4h.1a5 5 0 0 0 2 1.5v-.4s-1.1-.6-1.7-1.5l-.1-.1a4.2 4.2 0 0 1 1.8-1.7l.7.6.2-.2-.5-.7h-.6l-1.8 1.7a9 9 0 0 1-.8-1.5l-.4-.2s-1.1.1-2 1.7c-.2-1.2 1.1-2.4 1.1-2.4v-.5l-2.4.6c-1 .3-1.7 1.2-1.7 1.2v.8s1-1.1 1.7-1.6m1.5 2.2c.6-1 2-1.5 2-1.5s0 .7.7 1.7c-.5.9-.8 2.2-.8 2.2s-1-.6-1.9-2a1.6 1.6 0 0 1-.2-.3zm-7.6 21.1v.8s.8-.9 2-1c1.2 0 2.3 1 2.3 1s0-1-.2-1.2c-.1 0-1.1-.6-2-.6s-2.1 1-2.1 1m21.4-11.2-.5-1 .6-.3a12.4 12.4 0 0 0 1.7-1.6l-.4-.6h-1.6l-1.4-.1.5-1.7.6-1.4-.6-.5s.2.5-.8.6-2.8-.8-2.8-.8v.4l2.5.7q.9 0 1.2-.3l-.5 1.3-.3 1 .2.2v.8l1.4.1 1.6.1s-.8 1-1.7 1.5q-.15.01-.3 0l-1-1.5-.1.5.7 1.2a5 5 0 0 1-1.5-.1l-.4.4v2.5l-1.8-.6-.3.3v-.1l-.4.4s-.4 1.4-.3 3.1v.1a4.9 4.9 0 0 1-2.4-1.3l-.4.3s-.3 1.4 0 3.2c-1.3-.3-2.5-1.5-2.5-1.5l-.5.5q.257 2.365.7 4.7a5 5 0 0 1-.7 0c-1.4 0-2.3-1.3-2.3-1.3l-.4 1s.6 2.7 2 4l.4.2c-1.3 1-2.8 1.2-2.8 1.2v.9a44 44 0 0 0 2.2 1.5 4.8 4.8 0 0 1-1.6 1l.2.5 1.8-1.3 1.8.5v-.5l-1.5-.3.1-.1c.5-.4 1.4-1.8 1.4-1.8v-1s-.5 0-1.1-.6c1.8-1.2 1.9-1.8 1.9-1.8l.4-.6s-.7-.3-1.1-1.2l2.9-.7.2-.2s-.7-1.2-1-2.6l3 .6.4-.4-.5-2.4c1.8 0 3.2.2 3.2.2l.3-.3s-1-1.9-1-3q.5.052 1 0h3l.3-.5s-1.4-1-1.7-1.5m-10.5 15.5s-.5 1-1.4 2l-.2.2a4 4 0 0 1-.5-.2c-1.1-.6-1.4-1.3-1.4-1.3l2.5-1.6zm.9-3.2-2 2a4 4 0 0 1-.4-.5c-.8-1.2-2-2.1-1.8-3.8 0 0 .7 1.2 2.2 1q.502-.031 1-.1c.4 1 1 1.4 1 1.4m2-2.5-2.7.7a5 5 0 0 1-.1-.5c-.5-1.6-.5-4-.5-4s1 .8 2.6 1.2zm-.5-3c-.2-1.4.1-2.9.1-2.9s.8.8 2.3 1c.1 1.5.3 2.1.3 2.1zm5.8-2.2s-1 .4-2.8.1a14 14 0 0 1 0-.5 23 23 0 0 1 0-3l2.3.7c.042.919.21 1.828.5 2.7m0-3.1h-.2v-2.8s1 .3 1.7.2c.2.4 0 .5.5 1.2.4.7 1.1 1.3 1.1 1.3s-2.3.2-3.2 0zm-7.6 18.6-.1-.5s-1 .7-1.2 1.4a1.5 1.5 0 0 1-.3-.1l-2-.8.2.4 1.8.8h.2l-.5 1.4.2.3.5-1.7 1.2.1-.2.8-.4 1.5.5.3h2l-.3-.4-.7-.1h-1.1l.3-1.2.3-.8-.3-.7-1 .2c.232-.361.539-.667.9-.9m-11.3-1.3c1.3 0 2.3.9 2.3.9v-.6s-1-1.4-2.1-1.4c-1.2 0-2.5 1.2-2.5 1.2v1.2s1-1.3 2.3-1.3m13.3 19.4c-1.3.6-2.7.6-2.7.6l.8-1.5c2.5-.8 3-2.4 3-2.4l-.2-.7s-.6 1.6-2.6 2.4c.4-1.2.7-3.2.7-3.2l-.7-.2s-1 1.3-2 1.6a7.7 7.7 0 0 0 .8-2.7l-.3-.5s-.7.6-1.7.8a1.8 1.8 0 0 1-.6 0c.6-.8 1.7-3.2 1.7-3.2l-.2-.5s-.8 2.1-1.7 3.2q-.145.204-.3.4c-1-.3-2.2-1-2.2-1l.1.3s.8.6 1.8 1q-.63.622-1.3 1.2v1l3 .4c-1 1.6-2 2.1-2 2.1l.5.7s1.3 0 3.7-.6c-.6 1.2-1.2 1.8-1.2 1.8s2.2.2 3.7-.6 2-1.6 2-1.6l-.4-.4s-.4 1-1.7 1.6m-6.9-4 1.2-1.5c1.6.3 2-.1 2-.1s.3.8-.6 2.3c-1.1 0-2.6-.8-2.6-.8zm1.4 3 1.3-1.6.3-.3c1.5 0 2.3-1.3 2.3-1.3s.2 1.2-.5 2.7c-1.9.7-3.4.5-3.4.5m-1.9-9.8c1.5 0 3.3.7 3.3.7l-.2-.7-2.9-.6a3.6 3.6 0 0 1 1.6-1.6l-.5-.3s-.6.1-1.4 1.5q-.11.196-.2.4-.15-.004-.3 0a5 5 0 0 0-2.4.7l.2.4s1.1-.5 2.3-.5q-.409 1.184-.7 2.4l.3.6 1-3zm-3-6.2-.3-.7s-1.5-.6-2.7 0c-1.1.5-2 1.9-2 1.9l.5.9s.8-1.5 1.9-1.9c1-.3 2.6-.2 2.6-.2m3 2.4-1-.6s-1.7.5-2.2 1.1c-.6.6-1.1 2.1-1 2.5.2.5.7.7.7.7s.3-1.5 1.1-2.3 2.4-1.4 2.4-1.4m-3.9-.5a4.5 4.5 0 0 1 2-1l-.7-.5s-1.5.2-2.2.9c-.8.7-1.8 2.1-1.8 2.1l.9.9s1.2-1.8 1.8-2.4m5.2-44.7c.8-1 1.6-1 1.9-1h.6a9.3 9.3 0 0 0-.8 2.5c-.2 1-.7 1.2-1 1.9-.4.7-1.1 1.8-1.2 2.8 0 1 .3 1.6.5 1.7.3.1.8-.4.7-.7 0-.3-.3 0-.4 0-.2 0-.2-.3-.3-.9s.7-2.2 1-2.8c.3-.5 1-1.1 1-2l.7-2.5c0-.1-.4-.2-1.3-.3-.6 0-1.5.5-1.9 1.2-.4.6-1.7 1.1-1.7 1.1s1.4 0 2.2-1"/><path fill="#78732E" d="M265.147 104.917h-2.5l.7 2zm-3-.1-.5-.4a1.5 1.5 0 0 0-.3-.3l-.9.5-.5 1.9.3.3 2-2zm-.3 5-1.8-2.7-1 2.2.5.2 1.2.2h1.1zm7.4 44.7a9 9 0 0 1-4.8 1.5 6.7 6.7 0 0 1-3.4-1c-.653-.41-1.174-1-1.5-1.7-.6-1.1-.8-2.5-1-4-.3-1.3-.5-2.6-1.1-3.6-.8-1.3-2.4-2.1-3.8-3.3a7.3 7.3 0 0 1-2.8-5.2 8 8 0 0 1 0-.8c0-1.7.5-3.2 1-4.5s1.2-2.5 1.2-3.5v-.5c-.3-.7-1-1.4-1.5-1.9s-1.2-.8-1.2-.8l-1-.2-.1.3 1 .2 1.3 1c.5.4 1 1 1.1 1.5a2 2 0 0 1 0 .4c0 1-.5 2-1 3.3a11.7 11.7 0 0 0-1.2 4.7v.8a7.689 7.689 0 0 0 3 5.5c1.5 1.1 3 2 3.7 3.2.8 1.2 1 3 1.3 5 .2.8.4 1.7.8 2.5s.9 1.5 1.6 2a7 7 0 0 0 3.7 1c2.7 0 4.9-1.6 4.9-1.6z"/><path fill="#78732E" d="M267.147 149.617c-.39.246-.838.384-1.3.4-.5 0-1.1-.2-1.7-.8a4 4 0 0 1-1.2-2.3c-.2-.9-.3-2-1-3.3-.5-1.5-2-2.6-3.5-3.7-1.3-1.1-2.6-2.2-2.9-3.4a3.4 3.4 0 0 1 0-.7c0-1 .4-2 .8-3.1a10.8 10.8 0 0 0 .9-4.8c-.2-2-1.7-3.5-3.2-4.5a14 14 0 0 0-2.8-1.4l-.1.3h.2c.5.3 1.8.9 3 1.8 1.3 1 2.4 2.2 2.6 3.8v.8c0 1.5-.4 2.7-.9 3.9s-.9 2.2-.9 3.2l.1.8c.3 1.3 1.6 2.4 3 3.6 1.5 1 3 2.2 3.5 3.5.6 1.3.7 2.4.9 3.2.2 1 .4 1.7 1.2 2.5.7.7 1.4.9 2 .9a2.8 2.8 0 0 0 1.4-.4z"/><path fill="#A8AC71" d="M276.347 142.017s1.7.4 1.6 1.8a13.3 13.3 0 0 1-.8 3.4l-2.4-2.2 1.3-1.2.5-.7z"/><path fill="#F8C83C" stroke="#977C2E" stroke-width=".3" d="M246.347 124.917s-1.7.6-2.1-.1c-.4-.8-.2-1.4-.2-1.5 0-.2-1-.3-1-1.3.1-1 1.4-.9 1.6-.9.3 0 .4-1.5 1.3-1.4.8 0 1.2 1 1.2 1z"/><path fill="#F8C83C" stroke="#977C2E" stroke-width=".3" d="M248.247 125.417s-1.5.8-2 0c-.4-.7 0-1.6-.1-1.8-.2-.1-1-.4-.9-1.3.2-.9 1.1-.6 1.4-.8.3-.1.6-1.4 1.5-1.2.9.3 1 1 1 1l-1 4.1z"/><path fill="#F8C83C" stroke="#977C2E" stroke-width=".3" d="M250.747 125.717s-.5 1-1.5.8-.7-1.7-.9-2c-.1-.3-.9-.5-.8-1.4.2-1 1.1-.9 1.5-1 .3-.1.7-1.6 1.4-1.4.7.3 1.3 1.1 1.2 1.5 0 0-1.5.5-1.7 1.5s.8 2 .8 2Z"/><path fill="#AF7029" d="m273.647 141.617-2.2-2.6c-.9-1.3-2.3-2.7-2.3-2.7l-2.2-1.1-1.4-2.4-.2-2.8.6-1.6.8-1.2s-4.6 1.7-2.2 10.5c1 3.8 3.5 4.3 3.5 4.3l4.3-.3h1.3z"/><path fill="#816C2A" d="M271.547 112.117c.4 0 .6.2.8.4l.2.6v.4c-1.6 3.4-4.8 5-7.8 7a13.8 13.8 0 0 0-3.8 4 12 12 0 0 0-1.6 6.8c.1 5 2 7.8 4.2 9.3a9.7 9.7 0 0 0 5.2 1.5h.4l1.4-.1a36 36 0 0 1 3-.2l1.8.1.9.4a.8.8 0 0 1 .2.5c0 .4-.3.8-.6 1.2l-1 .7.2.3a4 4 0 0 0 1-.8c.4-.4.7-.9.7-1.4 0-.2 0-.5-.3-.7-.2-.3-.6-.4-1.1-.5l-1.8-.1c-2 0-4.5.3-4.5.3q-.15.004-.3 0a9.4 9.4 0 0 1-5-1.5c-2.1-1.4-4-4-4-9v-.4c0-2.7.5-4.7 1.5-6.3 1.4-2.4 3.7-3.8 6-5.3a14 14 0 0 0 5.5-5.7v-.5c0-.2 0-.6-.2-.8-.2-.3-.5-.5-1-.5z"/><path fill="#fff" d="M277.747 143.117s-1 2-1.4 2c-.2 0 1 .3 1.3.8l-.3.5s-1.2-.9-2-1v-.6l1.1-.7a4 4 0 0 0 .9-1.7z"/><path fill="#FCCA3D" d="m281.947 144.417-2.7.8-1.3-1s0-1-.5-1.5l-1.6-1c-.6-.2-2.5-.2-2.5-.2l-5-5.3 2 .2 2.8-.4 2.7-.2 1.4.2 1.6.4.8.7.8.8.8 1.3.6 1.6.2 1.7v1.9z"/><path fill="#AF7029" d="M282.147 144.217s-1 .3-2.2.3c-1.3 0-2-.2-2-.2l-.2.9c-.2.9-.5 1.3-.5 1.3v3.2l2.6.5 1.4-.5.7-3.5z"/><path fill="#FCCA3D" d="M281.447 142.917v1.2l.6.2v-1.2zm-2.5-30-.3-2.1-.8-1.5-1.1-1.5-1.2-1.3-.6-.5-.3-.5-2.9.2-1.4 1.7s3.8 2.8 5.3 5.8a7 7 0 0 1 2.8 1.7l.1-.2z"/><path fill="#AF7029" d="M276.247 115.417c0 2.2-.5 3.2-.8 3.7l1.8-2 1.2-2.2a7 7 0 0 0-2.8-1.7q.6 1.05.6 2.1z"/><path fill="#816C2A" d="m280.247 148.317-1.4-1.6c-.6-.6-1.3-1-1.3-1l-.2.4h.1l1.2.8q.696.762 1.3 1.6z"/><path fill="#6F5B24" d="M281.947 145.917s-.3 1-1.3 1.8c-1 1-2.2 1.5-2.2 1.5l2.8 1 1.9-1.7z"/><path fill="#404118" d="m282.347 148.217-.2.3-.5.5-.4.5.6-3 .6 1v.4z"/><path stroke="#78732E" stroke-width=".2" d="M265.747 109.717s-3.8.3-6.5-.1-2-7.3-2.1-7.5c0-.2-1.6-1.8-1.4-3.3.3-1.5 5.2-5.5 5.8-5.8.5-.1 1.5.3 1.5.3s1.2-1.2 1.6-1.2.9.7.8 1c-.2.3-1.9 1.3-2 2-.2.8 0 1.5-.5 2.3-.5.7-1.4 1.7-1.5 2.4-.1.6-.4 1.1 0 1.4.5.2 2.1 0 3.5-.6 1.4-.7 2-1.5 2.1-1.4.2 0-.8 1.7-2.3 2.4-1.5.6-2.5 1.3-3.3 1.2 0 0-.8 2 1.8 2.2 2.6 0 4-.6 4-.6z"/><path fill="#AB6D29" stroke="#4D2A15" stroke-width=".4" d="M298.647 81.017s-7-1.3-7 4.5c.1 1.9.5 2.5 2 3 1.5.3 4.4.5 7 2.7 2.5 2.3 2.7 4 2.7 5.3 0 1.4-.7 2.6-.7 2.6l1.6 7.7 1.6 5.7 4.8-2.7 2.8-8.5-3.6-15.2z"/><path fill="#4D2A15" d="M305.547 110.417s2.5-1 3-3c.3-.5-2.4-2.9-2.4-2.9-.1 0 1.3.7 2 1.3.6.6 1.1.9 1.3.8s1.3-2.7.9-3.3-1.1-2-2.1-2.6c-1-.7-2.4-.6-2.4-.6s1.9-.6 2.8 0c1 .5 1 1 1.1.9.1-.3-.2-2.9-.6-3.7-.4-1-.8-1.3-2-1.6-1.1-.2-2.3-.1-2.3-.1s1.6-.9 2.8-.6c1.3.3 1.3 1 1.4.8 0-.1-.6-2.4-1-3a6.7 6.7 0 0 0-2.1-1.8l-1.8-.2h-.6s1-.6 2.1-.5c1.2.1 1.3.5 1.4.4.2 0-.1-.2-.8-.7s-4.2-2-4.2-2h-3.3s0-.8 1-1c.9-.1 1.1.1 1-.1 0-.3-2.6-.8-2.6-.8h-2.2l-3 .3s.2-.5.7-.9c.3-.3.9-.5 1.3-.6 1-.3-.6-1.1-.6-1.1l.9-1.3 3.9.3 8.2 4.8 3.9 3.3 2.4 6.2-.7 10.8-5.5 4.5-2.4.3z"/><path fill="#D2A567" d="M298.348 83.717s-.2-.7-.2-1.7.2-.9.2-.9-2.7-.3-4.6 1.2-.8 4.1-.8 4.1.8-.8 1.9-1.2c1-.4 3-.3 3-.3.2-.2-.4-1-1.1-1.1-.8-.2-2.1-.2-2.1-.2s.8-.5 2.2-.4 1.6.5 1.6.5z"/><path fill="#8F4620" d="m306.647 111.317-1.8.6 1 7.5 7.2 12.1 3.7-.6 1.3-2.3 1 .5c.4.4 1.8 2.8 3 3.3 1.1.4 1.7.2 2.7 1 1 1 4.9 6.6 5 6.8.3.2-.1-2.4-.1-2.4l-1.2-3.4-1.4-2.4-.3-.6h2l1.2.8 2 1.5.9 1.2.5 1.2.2 1 .5 1.6 1 2.3 1.3 2.1.4-.9-.6-2.5-2-6-1-2 1.9 1.2c.4.1 1.8 2.2 1.8 2.2l.9 2.2.6 2 .4 1.7.7 1.9 1-.7-.1-1.3-1-4.2-.4-4.5s.6 0 1.2.7c.509.705.914 1.48 1.2 2.3l.5 4.1.7 3.8 1.2 3.8 1.2 2.4.9 1.3v-2l-1.6-16 .2-.6s.2-.1.8.7c.5.7 1 1.9 1 1.9l.5 2.5.2 1.7.3 3.3.5 3.5 1.6 3.8.9 2 .5-2.4-.8-17.1.4-.5s.9.7 1.2 1.3l.8 1 .6 3.8.4 10.7.4 2.8 3.2-28.2 2-.4.2-.6-1.5-1-3.2-5-2.1-4.9-3.8-7-6.6-8-5.2-4.3a20 20 0 0 0-1.9-1.3l.4-1 1-1.7-.1-.1h-.9l-2.2.4-2.2-.7-4.4-3-4.6-2.3-2.8-1-6.6-1.6-6.6-1h-3l-2.6.5s-1.4.6-1.8 1.5c-.5.8-.5 1.4-.4 2.6.2 1.3 1 1.9 2.8 2.7 1.8.7 6.2 3.6 6.2 3.6l2 2.1.8 1 .2.8 1.4 11.1-2.8 6z"/><path fill="#AB6D29" d="M313.747 128.617s1.2 2 2.9.5c1.7-1.6-.8-6-.7-6.3 0-.3.7-.3.7-.3l1.3 2.2s.7 1.3.4 3.2c-.2 2-2.1 3.7-2.1 3.7l-2.2-.5z"/><path fill="#4D2A15" d="m355.247 154.617-1.6-4.5-.4-3.5c0-.6-.3-7.9-.5-9.3 0-1.4 0-3-.2-3.1l-1.6-2.2-.7-.7.5-.3s.6.6.7.3c.2-.4 0-2-.6-4.5-.7-2.5-3.9-8.3-3.9-8.3l.4.2.9 1 1.8 1.5 4.1 1.5 2.2.3 1.4 2.9s1 4.9 1 7.4c0 2.4-.2 4.5-1.2 7-1 2.4-1.2 10.3-1.3 11.5-.1 1.3-.6 2.5-.6 2.5l-.5.3z"/><path fill="#8F4620" d="M355.247 141.617s.8-1 1.2-2.4.5-12.4-.8-13.7a10 10 0 0 0-4-2.3c-.2 0 1 3.5 1 3.5l.8 1.4.6 1.8c.1 1 .9 3.1 1 6z"/><path fill="#4D2A15" d="M349.247 148.417s.5-5.1.3-9c-.3-3.7-.6-4.2-1-4.9a32.3 32.3 0 0 1-2.5-6.3c-.9-3.2-1.5-5.6-2-6.2-.6-.6-1.7-2-2-1.6-.3.3-.3 1.1-.3 1.1l-1.5-.4-.4-1 .5-1.6v-.7l-.3-1.1 2 1.6 4.2 2.8 2 8.6 2 5.3.2 9-.2 8-1-3.5zm2.4-24.7s1 1 1.7 1.4 1.8 1.1 1.6 1.2a8 8 0 0 1-2-.8l-1.2-.8v-1z"/><path fill="#4D2A15" d="M343.647 146.417s.8-1.8.7-4.1a49 49 0 0 0-1.6-8.6c-.4-.7-2-1.7-3.5-4.8s-1.3-3.8-2.3-5c-1-1-2-2.4-2-2.4l.3-3.3 3.6 1.8 1.6.8 1.8 8.7 1.6 2.5.7 3.5.9 8 .4 6.6-.2.5zm-4.2-3.7s.1-2.5-.5-4.8c-.7-2.3-1.1-4-1.9-4.8-.7-.7-2.5-2.6-4.1-5-1.6-2.5-3.9-5-3.9-5v-3.3l2 1.5q1.214.572 2.4 1.2l1 3.7 1.2 2.7 1.8 2.4 1.2 1.1.7 4 .4 2.3 1 3.2-.4 1.7zm-3 0-1-.9s.6-.6.3-2c-.3-1.2-.6-2.4-1.2-3.7-.6-1.2-.7-2-1-2.3a121 121 0 0 0-4.5-4c-1-1-2.7-2.6-3.7-3.3-1-.6-1.8-.8-1.8-.8l-.5-4s1.3 1.8 2.1 2q1.042.422 2.1.8l2.8 5 1 1.3 2.6 2 1 2.2.9 2.5 1 3.4.1 2zm-5.5-1s-1.7-2-2-3.2c-.2-1.2.2-1.2-.3-2.6s-2.3-3.5-3.7-4.6c-1.4-1.2-3.4-2.8-3.3-3.8.1-.9.4-1 .4-1l.8.8 4.5 4.7 1.4 2.5 1 3.1.7 1.5.7 1.8zm16-23.3s3.1 3.8 4 .3c.3-1.6-1.2-4.6-1.2-4.6s-2.8-5-3.8-6.2l-5.7-7.3-3.5-1.6 1.2 2s2.6 2.6 5.9 8.4c3.3 5.7 2.7 8.9 2.7 8.9zm-17.8-23s6.1 5.2 10 10.8c4 5.7 5.5 9.4 4.7 10.2-1 .7-3.4-.4-4.4-2s-1.8-4.4-5.5-8.6-5.5-4.8-5.5-4.8l-2.7-4.3zm-3.2 12.5s3.6 3 6 5.4a37 37 0 0 1 3.4 4.2l1.4 1.4s-.9-1.5-.4-2c.5-.6 1.1-.3 1.1-.3l-11.5-12zm-.7.3s1.2 2.3 3 4.1a469 469 0 0 0 4.1 4l.8 2.9s-5.2-4-5.2-3 1.2 3 1.2 3l-1.6-1-2.2-3.1-1.3-2.8-1.5-3.8z"/><path fill="#4D2A15" d="M309.447 120.617s2.7 2.4 4.2 0c1.5-2.3.3-5 .3-5s3.9 5.6 5 .3c.2-1-2.4-4.6-2.4-4.6l1-.9 1.9 3.3s1.8-.8 1.8-3-1.9-5.3-1.9-5.3l1.8 2s3.6 0 3.7-2c0-2.2-3-4.5-3-4.5s2.4.1 2.4-1.3-3.4-2.4-3.4-3.3 1-2.4 2.5-1.5c1.5.8 3.5 1.4 4.4-.2.8-1.6-.1-2-.1-2l-2.1-.4-3.4-1.8-2.7-1-2.8-.4 1 2 .8 5.8v2.6l.5 5.8-1.4 4.7-.7.9-.5.6-1.2 2.6-1.6 1.8-2.2 2.7z"/><path fill="#AB6D29" d="M328.747 131.317s-.7-1.7-2.2-2.9a7.8 7.8 0 0 0-3.8-1.2l4 4.2zm5.6 1s-1.3-2.6-2.8-4.2-2.5-3.6-3-3.6h-.6l.4 3.3 2.7 2.7s2.6 2 3.3 1.8m4.6-.2s-.6-3-2.2-6c-1.5-2.8-3.1-4-3.1-4l.4 3 1.2 3 2 3zm3.8-1.7s1-6.2 0-8c-.9-1.6-2.7-2-2.7-2l-.6 1 .6 4.3 1.5 3.4zm3.7-10.3s.9.4 2 2.5a40 40 0 0 1 2.6 8.6c0 .3-.5.2-.7.2-.2-.1-3.9-6-3.9-6l-.6-5.4z"/><path fill="#D2A567" d="M320.348 127.217s2-.4 2-1c0-.8-2.4-2.2-2.2-3.3 0-.5 2 .1 2.1-.3s-2-3.6-1.3-4.4c.6-.8 2.4 3.5 2.4 3.5s1 2 .7 3.2c-1.2 3.6-3.7 2.3-3.7 2.3m4.6-4.4c.1-.3 3.1.4 3.1.2.2-.7-2.7-3-2.7-3s-.6-1.2-.4-1.4 2 .2 2 0c.2-.3-2-3.2-2-3.7s.6 0 .6 0 1.7 1.7 2.6 3.2c1 1.4 1.8 2.6 1.5 4.9-.4 2.5-5 .6-4.7-.2m13.6-4.6s-.5-2-.2-2.3l1.1-.5s-1.6-1-2.4-1c-.7 0-.8-.2-1 0-.2.4 1.3 2.4 1.3 2.4z"/><path fill="#D2A567" d="M329.347 119.817s4.7 1.2 4.9.8c.2-.3-3.7-4-3.7-4s-.3-.6-.2-.8c0-.2 1.7-.3 2.2.1s0 1.2.1 1.5c.2.3 1.7 2.5 2 2.1.2-.3-.4-3-.3-3.3.2-.2 1.8 1.6 2.3 1.9.4.3 3 2.3 3.3 1.4.3-1 .4-1.1.3-1.7 0-.6.9 2.6-.3 3s-2.6-.4-2.6-.4l-1.1-.8-.6-.7s.7 2.5-.2 2.7c-.8.3-1.7.2-1.7.2l-2-.2zm10.7-3.2s5 3 5.4 2.5c.5-.5-1.2-7.5-1-8.2.3-.6 4 7.9 2.2 9-1.4 1-2 .3-2 .3l-2.5-1.3zm13.8 12.6 1 .5.7.2-1.4.2-.3-1zm-4.8-16.4.7.3.7.3s-.4.3-.6.2h-.4zm-1.4-2.5s.5.3 1.1-.2c.7-.4.7-.8.6-1 0-.2-1-.2-1.4-.5-.3-.2-.3-.6-.3-.6h-1.1l-.4.1zm4.3 14.4s1.5 1 2 1c.4 0 1.1.5 1 .6 0 .1-1.2.2-1.8-.1s-.7-.1-.7-.1zm-8.1-22.5h.6c.3 0 .5-.2.6 0 .2.2 0 1.2-.3 1.5l-1 .5a49 49 0 0 1-1.6-2.2zm-7.1-6.4h1.5c.5 0 1 .3 1.5.6.4.3.9 3.3.6 3.8-.2.6-3.6-2-3.7-2.1 0-.3-1.5-2.5-1.5-2.5zm-3.2-1.4s2.5.2 2.2-1.3a3.2 3.2 0 0 0-1.3-2.3l-2.9 2.1zm-6.5-2.8s.7.4 1.4 0c.7-.2 2.6-2.7 4-3s1.7-.3 2 0c.2.4 0 1.8-.2 2.2-.3.4-4.4 2-4.4 2l-1.5-.1a9.6 9.6 0 0 1-1.3-.5zm-.7-4.5c-.7-1.4-1.7-2-2.2-1.9-.4.1 1.4 1.5 1.7 3.5s.2 3.3.2 3.4l.8.1.2-.7.1-.5v-.5l-.1-1-.2-.9-.2-.6zm-5.8-2a15.4 15.4 0 0 0-5.5-3.7c-.2 0 4 2.5 5 4 .9 1.7.9 3.9 1.3 4.2s.8-.2.9-.2c0 0 .3-.5.2-.7l-.2-1-.7-1-.4-.8zm-5.5-2.3c-2.4-2-6.6-3-10-3-3.5-.2-5.3.2-4.8 2s2 2.8 5 2.8c2.9 0 3.6-.3 5.2.2a9.7 9.7 0 0 1 3.6 2c.5.5-1.1-1.5-2.6-2.6-1.5-1.2-2.5-1.7-2.5-1.7s-.3-.7 1.7-.4 4.7 1.6 5.5 3.3c.7 1.7.6 2.6.6 3 0 .3.7-.2.7-.2l.3-.9s0-.6-.3-1.4c-.4-.7-.5-1-1.4-2-.9-1.1-1-1-1-1zm-9.6 28.5c1.5 0 4.8-2.8 5.2-6.7.5-4-1.9-11.9-2.5-12.7-.5-.9 1-.4 1.7.4a25 25 0 0 1 2.5 10.6c0 4.2-.8 5.3-3 7.5-2.2 2-4 1.8-4 1.8zm5.1 11.6s.7 1 1.6.6c1.5-.5 3.8-1.7 3.8-3.8 0-1.4-1.8-2.7-1.9-3.2v-1l1.6.4.5 2.2s.6.7 1.3.4c.6-.2 2.5-1.6 2.2-3-.3-1.2-2-2.9-2.2-3.5-.2-.7 0-1.2 0-1.2l1.6.2.4 2s.4.6 1.3.4c.8-.1 2.4-1.7 2-2.5l-1.5-2.6v-.9l.5.4s.6.2 1.8-.1c1.1-.4 2.3-1.2 2.3-2s-1-1.6-1-2v-.6h.8l1 1.2.1 1.4-.3 1.2-1.4 1.6-1.4.6h-.4l.8 1.4-.2 2-1.3 1.2-1.7 1-.1 1.9-1 2-2 1.2h-.7l-.2 1.2-1.4 2-2.3 1.5-1.7.3-1-1.4z"/><path fill="#D2A567" d="M323.347 101.817s4 1.1 3.8-1.4c0-1.3-3.8-4.5-4-5-.3-.6-.2-1.3-.2-1.3l1.9 1.8s2.5.6 3.2-.9c.7-1.4.1-2.3 0-2.3l.6-.1 1.1.2-.1 2.2-1.3 5.5s.3 2.2-1.4 2.3c-1.7.2-3.6-1-3.6-1m3.7 29.5s0-1.1-.8-2c-.9-.7-2.5-1.4-2.8-1.6a63 63 0 0 0 2.8 3.5zm5.6.2s-2-2.4-2.3-3.3c-.5-.8-1.5-2.6-2.3-2.7-.8 0 .8 3 .8 3l3.2 2.9zm5.4 0-2.1-4.2c-.4-.9-1.3-3.4-2.3-4.1s.1 1.1.1 1.1l1.1 3.3 1.9 2.9zm3.9-2.4s-.1-2.7-.5-4.6c-.3-1.8-1.7-3.4-1.8-3.3v3.3zm8.1 2-2-4.7c-.5-1.6-1.8-4.1-2-4.2l.4 3 1.7 4.7zm7-8.5s-1.2-1.2-3.9-2.3c-2.7-1-5.4-1.2-5.4-1.2l.3.4 1.3 1 2.8 1.5 3.7.9 1.3-.3z"/><path fill="#202020" d="M328.147 124.217s0 2.4 1.3 3.8c1.2 1.5 4 4 4.6 4.6.6.5 1 3.4 1.9 5.8.8 2.4 1 4.4 1.4 5.1s1.1 1.8.5 1.7c-.5-.1-1-.8-1.4-1.7-.3-.9-.2-.9-.2-2 0-1.3-1.8-7.5-2.7-8.1-.9-.7-4.8-4-6.4-6.3-1.5-2.3-1.2-2.8-1.2-2.8z"/><path fill="#202020" d="M334.547 139.717c-.8-1.7-1-3.3-1.2-4.3a16 16 0 0 0-4.4-4.2c-.6-.3-1.9 0-2.4-.3l-3.7-4s-.5.5-.3.6c.1.1 3.4 3.7 4.6 4.8 1.2 1.2 1.9 3.7 2.7 5.7.9 2 .5 1.6.6 2.5.1 1 .7 1.5 1.3 1.5s.8-.2.6-.4a10.3 10.3 0 0 1-2.2-3.5c-.7-1.7-1.5-4.9-2.5-6l-.3-.3 1.3-.2c.8 0 4.1 3 4.4 4 .3.8 0 1.2 1.4 4.2s2 3.7 2 3.7h.2s-1.2-2-2-3.8zm-5.2-19.9s2.5 1.5 3.2 1.7q.591.189 1.2.3s.4 4.4 2.1 6.8c1.8 2.5 3.2 3.4 3.2 3.4s0 4.8 1.4 8c1.3 3.3 1.5 7.3 1.2 8-.3.6-1.4-2-2-4.3l-2-6.2a13 13 0 0 0-2.5-4.4c-.8-.7-.2-.6.3-.2.4.4 1.7 2 2.5 4.5s1.1 5 1.5 5c.5 0 .8-.3.8-.9 0-.4-.6-1.8-1-4.1a17 17 0 0 0-1.2-4.7c-.4-.6-1-.7-2.4-3.4a20.3 20.3 0 0 1-2.5-5.3c-.2-1.2 0-1-.2-1.3-.2-.1-.4 0-1.6-.6-1.1-.6-2-2.3-2-2.3"/><path fill="#202020" d="M335.647 118.917s1.4 1.2 2.3 1.5c.8.4 2 .4 2 .4s-.3 4.2 1.3 6.9 3.3 4.2 3.3 4.2.3 1 .8 6.8l.7 8.3c.1 2.3.2 10.6-.1 10.3-1.3-1-.2-5.4-.9-7.3-.6-1.8-1.6-2.1-2.8-7.4-1.2-5.2-.4-6.4-1.3-8.3-.9-2-2-2.2-2-2.2s1.6.4 2.3 2c.6 1.6.7 6 1.3 8.2 1.2 4.9 2.9 7.4 2.9 7.4s-.4-6.2-.8-9.7c-.5-3.5-.5-6.4-1.1-7.7-.7-1.4-2.1-2.4-3-4.2-.8-1.8-1.1-5.3-1.5-6.2s-.6-.6-1.2-.8c-2-.8-2.2-2.2-2.2-2.2"/><path fill="#202020" d="M340.047 116.617s1.3 1.5 3.1 2.6c1.8 1 2.8.7 3 1 .3.2-.3 3.8 1.6 7.2s2.6 3.5 2.6 4l.6 13.9c.3 3.4.5 14.8-.9 14.8s-.1-8.5-.8-10.4c-.7-2-.7-1.4-1.3-3-.7-1.6-.7-7.8-1.8-11.5-.8-2.8-1.6-3.2-1.6-3.2s1.4.7 2 3c.6 2.2.8 10 1.5 11.1.8 1.3 1.8 2.8 2 4 .126-5.203-.008-10.41-.4-15.6-.3-1-3.5-6.6-3.7-9.7-.3-3.2-.4-3.5-.7-3.7-.2-.3-1.1 0-2.6-1.5-1.5-1.4-2.6-3-2.6-3"/><path fill="#202020" d="M347.247 118.417c0-.3 1 1.7 3.7 2.8 2.9 1.2 5.6 1 6 1.3.3.3 2 4.5 2.1 10.2.1 5.6-1 5.1-1.8 10-.9 4.9-1 14.8-1.5 16.3-.2.5-.5.8-.8 1.7-.3 1 .2 2.8-.7 2.8-.8 0-1-1.4-1-2.1 0-.8 1-3.5 1-6.2s-.6-3-1-6.2c-.4-3.3-.4-13.5-.8-14.5-.3-1-2.1-3.1-2.1-3.1s1.9 1.2 2.4 2.6c.4 1.3.5 12.7 1 15 .5 2.4.3-.5.5-1.8s.9-7 .8-10-1.4-9.4-2.4-10.5c0 0 .5.6 1.1 2 0 .1.4.5.8.7l1 .5s-.6 0-1-.3c-.4-.1-.6-.4-.6-.4a23.9 23.9 0 0 1 1.3 8c.1 5.2-.7 16.4.1 16.5.8.2.7-6 1.5-11.2.8-5 2-5.8 1.6-9.9-.3-4.1-1.4-8.6-2.3-9.2-.9-.5-3.4-.3-5.6-1.8-2.2-1.4-3.4-2.9-3.3-3.2m-35.8 5.7s.8.4 1.7 0c1-.5 3.5-2.5 3.5-3.3v-1.6s0 .3.7.4c.8.1 2.8-1.4 3-2.4a8 8 0 0 0-.1-3.1c-.2-.4.6.3 1 0 .4-.4 2.4-1.7 2.4-3 0-1.4-1.1-2.6-1.1-2.6s1 .2 1.6 0c.5-.1 2.5-1.3 2.4-2.4 0-1.2-.7-3-2.3-3.2 0 0 1.2.3 2.3-.1 1-.4 1.5-1 1.5-2.3 0-1.2-2.3-4-2.6-4.2-.4-.2 2.4.8 3-.3.8-1.1.9-1.9.7-2.5-.2-.7-.8-.8-.8-.8s1.2.3 2.8-.5 3-2 3.8-1.9c.8 0-2.3 1.7-2.5 2.6 0 .4.9 1 2.3 2 0 .1 0 .2.2.3.7.3 3 .4 3.3.5.2.2-2.4.1-2.2.3a34 34 0 0 1 5.7 5.4c.1 0 .5.4 1 .5l1.3.3h-1.6a65 65 0 0 1 3.3 4.7c0 .1.4.6.9.8s1 .1 1.1.2c.1.2-1.4 0-1.3.2a82 82 0 0 1 3.3 6s-3-5.3-6.7-9.5c-3.8-4.2-4.7-4.7-4.8-4.4-.2.4 2.7 4.1 4.3 6.7s3 5.9 3 5.9-3.7-7.8-9-12.6c-5.2-4.8-5.8-5.5-6.3-5.4-.6.2-1 3.8-.7 4.5s4.2 3.6 7.4 7.5c3.3 3.8 7.5 10.4 7.5 10.4s-3-4.7-8-10-6.9-6.6-7.3-6.5c-.4 0-.4 1-1 1.8-.6.7-1.8.6-1.8 1s4.2 4.3 5 4.7c.9.5 1.4.3 2 .6l1.4 1-1.6-.5c-.6-.2-1.3-.3-1.3 0s3.5 4.3 4 4.6c.6.3 1 .1 1.7.4.8.3 2 1.1 2 1.1s-1.3-.7-2.1-.8c-.9-.2-1.2 0-1.2.2s2.6 3.6 2.5 3.6-4-4.6-7.3-7.5c-3.3-3-4.8-3.6-5-3.5s0 1-.9 1.3c-.8.3-1.5.4-1.5.7s3 3 5 5.4a150 150 0 0 1 4 4.5l-4.5-4.3c-2.3-2.2-3.5-3-3.8-3-.2.2-.2 1.3 0 1.6s4.6 5.4 4.4 5.5c-.1.2-5-6-5.4-6-.3 0-.5.7-.8 1-.4.4-1.8.4-1.8 1 0 .4 7 7.3 6.9 7.5 0 0-5.8-5-6-4.7s2.4 5 2.2 5.2c-.1 0-3.4-5-3.7-5s-.2.6-1 1.3c-1 .8-2 .4-2 .8 0 .3 4.8 5.7 4.7 5.8-.2.1-5-5.1-5-4.8-.1 0-.4.3-.2.7.3 1.3 1.4 3.6 1.3 3.8 0 0-1.6-3.2-2-3-.4 0-.4.7-1.2 1.1-.7.5-1.3.4-1.3.7s.8 1 1.2 1.7.7 2.4.7 2.4-.5-1.4-1.1-2.3c-.7-.9-1.3-1.5-1.9-1.5s-.8.5-.8.5z"/><path fill="#202020" d="M356.947 122.417s1.5 0 1.7-.4c.2-.3-.6 0-2-1.6s-5-12.1-9-17.4c-6.6-8.7-12.7-12.7-12.7-12.7s7.3 4.2 13 12.4c5.6 8.4 7 14.9 8.6 16.6s3.2 2 3 2.5c0 .5-.3.8-.9 1l-2 .1zm-48-2.2.3.1c.3 0 2.3-1.9 2.2-2.5 0 0-1-.3-1.6-1-.7-.8-.9-1.9-.9-1.9s.7 1.3 1.2 1.6c.6.4 1.4.6 1.8.3.3-.2 3.2-2.4 3-3.2 0 0-.9 0-1.8-.6-.8-.6-1-2-1-2s.6 1.1 1.5 1.5c.8.4 1.7.3 2 0 .2-.3 2-3 1.8-3.7 0 0-1 0-1.8-.5-.9-.6-1.3-2.2-1.3-2.2s.6 1.3 1.7 1.5c1.1.3 2-.4 2.2-1.2s.8-3.7-.2-4.5c0 0-1.4.5-2.4 0-1-.6-1.4-1.9-1.4-1.9s.9 1.2 2 1.4c1.2.1 1.7-.5 1.9-1a5.9 5.9 0 0 0-.1-3c-.4-1-1.1-.8-1.3-2.2 0 0-.3.5-1.8.5s-2.3-1.6-2.3-1.6 1.2 1 2.4 1a1.9 1.9 0 0 0 1.6-1.9c0-.7-.6-1.4-1-2.1-.2-.8-.3-1.7-.5-1.6-.2 0-.5.8-2 .6-1.5-.3-1.8-1.3-1.8-1.3s1 .7 2 .7c.8 0 1.3-.5 1.3-1 0-.6-.3-1.7-2.2-3.3a58 58 0 0 0-3.5-2.7 21.8 21.8 0 0 0 6.6 5.3s1.7.6 2 0c.1-.6.1-1.4-.5-2.4-.5-1-2-2.6-2-2.6s1.6 1.3 2.3 2.7c.8 1.3.4 2.2.5 2.6 0 .3 3.3 1.6 4 1.1.8-.4.5-1.4-.2-2.3l-1-1.8s.7.8 1.2 1.8c.6 1 1 1.7.8 2.1-.2.5-.6.7-.6.9l2.3 1.3c1 .6 2.3 1 2.5.8.2-.4.3-1.1.2-2.2-.1-1-.7-2.7-.7-2.7s.7 1.6.8 2.7-.1 2 .1 2.4c.3.4 1.1.5 1.1.5s-.6.4-2 0c-1.5-.4-7.7-3.6-8-3.3-.3.4 2.9 2.3 4.3 3.7 1.5 1.3 2.2 2.8 2.2 2.8s-1.1-1-2.2-1.6-4.4-2.3-4.7-2c-.2.2 1.3.5 1.4.7.1.3-1 1.3-1 1.8 0 .4 4.7 3.7 4.5 4-.1.4-1.2 1.3-1.4 1.2-.1 0-2.5-1.8-2.5-1.6s1.4 1.5 1.4 1.7c0 .3-1 .8-.8 1.4s2.6 2.6 2.6 3.3-1.4 1.3-1.1 1.7l1.5 2s-1.4-.9-1.8-1.4c-.4-.4-1.3-1.5-1.5-1.3-.1.1-1 2-1 2.5.2.4 1.3 1 1.5 2.3.2 1.1-.2 2.4-.3 2.4 0 0-1.6-2-2-2.1-.2 0-.6.1-.9.6s-1.2 2.1-1 2.4c0 .3 1.6.7 1.6 1.9a3.4 3.4 0 0 1-1 2.3l-2.1-2.4c-.2 0-2.2 2.3-2.3 2.6 0 .2 1.4 1.3 1.2 1.7-.3.4-1.3-.2-1.8.1l-1.7.7c-.2 0-.5-.6-.5-.6"/><path fill="#202020" d="m334.947 90.417.5-1c.3-.3 1.5-1.7 1-2-.4-.2-2 .3-3 .2-1 0-1.7.2-4.6-2.3 0 0-9.3-6.4-23.6-7.3-4.6-.2-6.6 1.4-6.8 2.2 0 .2 1.2-1.8 5.7-1.7 2 0 16.5 1.1 24 7 .4.3 2.9 2.7 5.2 2.4 2.3-.2 2.8-.5 2.7-.2 0 .4-.7 1.2-.9 1.6q-.184.541-.3 1.1zm-25 2v-.2c-.2-.4-1.1-1.7-2.7-3.1a37.4 37.4 0 0 0-8-4.3c-.3-.1 6 2.9 7.7 4.5z"/><path fill="#D2A567" d="M309.947 102.617s-.4-.6-1.7-1.4a9.9 9.9 0 0 0-2.5-1.1l3 .7a4.8 4.8 0 0 1 1.1 1.8zm-.8-5.3s-.4-.6-2.1-1.2-2.2-.5-2.2-.5 1.6-.7 2.8 0a2.7 2.7 0 0 1 1.5 1.6zm-1-4.5s-.4-.8-2-1.3c-1.5-.6-2.6-.7-2.6-.7s1.6-.4 3.2.2c1.5.6 1.4 1.8 1.4 1.8m-2-2.8s-.4-.6-3.3-1.3c-3-.7-4-.7-4-.7s4.1-.4 5.2.1 2.2 1.9 2.2 1.9zm-5.3-3s-1.8-.6-3.5-.7-4.4.1-4.4.1 5-.8 6.3-.5c1.4.3 1.6 1 1.6 1z"/><path fill="#F8C83C" stroke="#977C2E" stroke-width=".3" d="M284.447 148.817s.9 1.6 2.6 1.6c1.8.1 3.1 2.6 3.1 2.6l-1.9 1.9-4.6.2-1.5-2.4zm0-1.6c.2-.3-1.3-3.3-2.4-3.8-1-.5.4 1 .2 1.6-.3.6-.4 1.4-.3 1.5 0 0 .9 1.4.4 2-.4.5 2.2-1.3 2.2-1.3z"/><path fill="#F8C83C" d="M283.747 151.817s.8.4 1.4.2c.7-.2 1.3-.9 1.3-.9m-3.6-.5s2.6-1.9 2.4-2.9-.7-1-1-.9a7 7 0 0 0-2.1 1.7c-.1.3.7 2.1.7 2.1"/><path stroke="#977C2E" stroke-width=".3" d="M283.747 151.817s.8.4 1.4.2c.7-.2 1.3-.9 1.3-.9m-3.6-.5s2.6-1.9 2.4-2.9-.7-1-1-.9a7 7 0 0 0-2.1 1.7c-.1.3.7 2.1.7 2.1Z"/><path fill="#F8C83C" stroke="#977C2E" stroke-width=".3" d="M280.947 151.917s.6 1.3 1.4 1.3 2-.7 2-1.2c.1-.5-.8-1.5-1.3-1.7-.6-.3-1.9.4-1.9.4z"/><path fill="#F8C83C" stroke="#977C2E" stroke-width=".3" d="M283.348 150.217c0 .4-1.7 1.2-2.3 1.2-.5 0-1.6-1.3-1.2-1.5l1.5-.4c.4-.2.5-.8.7-.8.3 0 1 .1 1.1.5.2.5.4.6.2 1Z"/><path fill="#F8C83C" stroke="#977C2E" stroke-width=".3" d="M281.747 151.317s-2.6 3.4-3.7 3.3c-1-.2.5-5 .5-5l1.2.6c.9.2 1.7.6 2 1z"/><path fill="#F8C83C" stroke="#977C2E" stroke-width=".3" d="M277.147 148.817s3.3.6 3.4 1.1c.2.6-1.5 1.3-2.5 1.3-.9 0-.9-2.4-.9-2.4Z"/><path fill="#202220" d="M268.947 153.817s.5 1.6 1.9 1.7c1.4 0 2.8-1.5 2.8-1.5l-3.4-1.3z"/><path fill="#4B4139" d="m268.947 153.817.4.9c.3.4.7.8 1.5.9h.1c1.4 0 2.7-1.6 2.7-1.6l-3.4-1.4zm0 0 1.3-1 3.3 1.3v-.1l-.2.2c-.4.4-1.4 1.2-2.4 1.2h-.1a1.8 1.8 0 0 1-1.4-.8 3 3 0 0 1-.3-.6v-.1l-.1-.1z"/><path fill="#202220" d="M269.947 153.417s.5 1.2 2.4 1.2 3.3-1.5 3.3-1.5l-3-2.3z"/><path fill="#4B4139" d="M269.947 153.417s.5 1.2 2.4 1.3c2 0 3.4-1.5 3.4-1.5l-3-2.5-3 2.7zm0 0 2.8-2.5 2.9 2.3v-.1c-.864.836-2 1.333-3.2 1.4a3 3 0 0 1-2-.6 2.3 2.3 0 0 1-.3-.4 1 1 0 0 1-.1-.1z"/><path fill="#4B4139" d="M270.147 153.717s.9.6 1.8.7c1 0 2.2-.3 2.2-.3l-1.1.4-.8.1-.8-.1-.6-.3z"/><path fill="#202220" d="M272.347 152.017s.8 2 2.6 1.8c1.7-.2 1.7-1.2 1.7-1.2l-2-2.8z"/><path fill="#4B4139" d="m272.347 152.017.5 1c.4.4 1 1 1.8 1l.3-.1c.8-.1 1.3-.4 1.5-.7.3-.3.3-.6.3-.6l-2-3zm0 0 2.4-2.1 1.9 2.7c0 .2-.3 1-1.8 1.1h-.2a2.2 2.2 0 0 1-1.7-.8 4 4 0 0 1-.4-.6v-.2a2 2 0 0 1-.1-.1z"/><path fill="#4B4139" d="M272.547 152.417s1 1.3 2 1.3a3 3 0 0 0 1.5-.4v.1l-.5.3-.8.1h-.8l-.7-.5zm-3.2 2s.8.9 1.5.9a4.7 4.7 0 0 0 1.9-.6h.1l-.2.1-.8.4-.9.3-.7-.1-.6-.4-.3-.4z"/><path fill="#F8C83C" stroke="#977C2E" stroke-width=".3" d="M276.947 148.717c.8-.2 2.4 2 2.4 3.2s-.5 2.7-1.3 2.7-2.6-1.7-3-2.5c-.4-.9-.8-1.4-.5-1.9.3-.4 2.4-1.5 2.4-1.5Zm-8 .2s-1.4-1-1.9-.5-.3 2.3 0 2.6c.4.4 2-.8 2-.8z"/><path fill="#F8C83C" stroke="#977C2E" stroke-width=".3" d="M268.747 150.117s-1.8.2-1.8 1 .9 1.6 1 1.8c.2.1 1.8-.7 1.8-.7z"/><path fill="#F8C83C" stroke="#977C2E" stroke-width=".3" d="M269.447 151.517s-1.8.6-1.8 1.2.8 1.7 1.3 1.7 1-1 1.2-1.3c.3-.2-.7-1.6-.7-1.6Zm.8-5.1s-.3-.5-1-.2c-.8.3-1.6 1-1.5 2.3.1 1.1.6 2 .6 2l2.7-1z"/><path fill="#F8C83C" stroke="#977C2E" stroke-width=".3" d="M270.447 148.417s-2.2.8-2.3 1.7.5 1.7 1 2c.7 0 2.6-1.8 2.6-1.8z"/><path fill="#F8C83C" stroke="#977C2E" stroke-width=".3" d="M272.447 152.117s-2.2 1.5-2.5 1.5-1.2-1.2-1-2 1.7-1.3 2.3-1.6c.6-.2 1.2 2.1 1.2 2.1Zm2-8.2s-.7-.6-2-.5c-1.4.1-2.4 2-2.6 2.8-.2.9 0 2.6.5 2.8.5.3 3.3-2 3.3-2l.8-3z"/><path fill="#F8C83C" stroke="#977C2E" stroke-width=".3" d="M271.748 150.717c-1-.1-1.8-1.5-1.7-2.3.2-.8 2-2.2 3-2 1 .1.8 2.5.8 2.5s-1.2 1.9-2.1 1.8Z"/><path fill="#F8C83C" stroke="#977C2E" stroke-width=".3" d="M274.647 150.417s-.4 1.2-1.4 1.7c-1 .4-1.5 0-2-.7-.6-.8.2-1.2.6-1.6.5-.4 1.7-.7 1.7-.7l1.1 1.4z"/><path fill="#F8C83C" stroke="#977C2E" stroke-width=".3" d="M273.147 147.617s-1 .8-.4 1.8 1 1.4 1.8 1.5 1.3-.2 1.9-.9 1.5-1 1.4-2c-.1-.9-.4-1.6-1-1.8-.5-.3-2.2 0-3.7 1.4Z"/><path fill="#202220" d="M276.147 143.417s-1-.5-1.9 0c-.8.5-1.4 1.5-1.5 2.4l.2 2.3s1.2-.4 2-1c.7-.6 1-.8.8-1.1 0-.2-.4-.4-.4-1.2 0-1.4.8-1.5.8-1.5z"/><path fill="#4B4139" d="M276.148 143.417s-1.2-.3-1.9.1a3.2 3.2 0 0 0-1.3 1.9c-.3.8-.1 1-.1 1v-1.4c.4-.8 1-1.5 1.6-1.7.8-.3 1.7 0 1.7 0z"/><path fill="#F8C83C" stroke="#977C2E" stroke-width=".3" d="m308.747 167.417 1.6-.8 2-1.2.4 2.2-1.8 1.4h-1.5l-.9-.7.2-1z"/><path fill="#F8C83C" stroke="#977C2E" stroke-width=".3" d="M306.347 167.617h1c1.1 0 1.2-.3 1.4-.3.2.1.5 1.3.5 1.3l-.4.7-1.5.9-1.3-.8-.1-1.8zm12.1-.8s-.3-.5-.9-1l-2.2-1.9v5l2.3-.1 1.1-1.5z"/><path fill="#F8C83C" stroke="#977C2E" stroke-width=".3" d="M306.347 167.617s-.4-.5-1.3-.4c-1 0-2 .9-2.1 1.5-.1.7 0 2.6.5 3s1.2.5 2.2.3c1-.3 6.4-3.6 6.4-3.6l-1.4.3c-.7.2-1.4-.1-1.4-.1s-.7.8-1.6 1c-.8 0-1-.5-1.2-.9z"/><path fill="#F8C83C" stroke="#977C2E" stroke-width=".3" d="m309.947 169.317-1.2.5-1.3.6.4 1.6 2.3.5 1.4-1.1v-1.6l-1.7-.5zm10.4-1.2-.8-.8c-.4-.4-1-.5-1-.5l-1.3 1.5v1l1.2.7.9.2 1.1-.8z"/><path fill="#F8C83C" stroke="#977C2E" stroke-width=".3" d="M312.547 167.417s-1 .4-1.5.8l-1.2 1c0 .2 1.1 1.4 1.1 1.4l1.2.1 2.5-1.7-.2-1.6zm9.5 2-.5-.7c-.4-.4-1-.6-1.2-.6-.3 0-1.3 1.5-1.3 1.5v.4l.8 1 1.6.5 1.1-1.2z"/><path fill="#F8C83C" d="m317.947 171.217 1.2.2s0 .3.3.5c.3.3.3 0 .3 0s.2 1.2 1.4 2c0 0 1.4.6 2 .2.8-.4.7 0 .7 0l2-2.4s0-.5-.5-.5c0 0 .4-1.6-1-2-1.2-.2-2.2.2-2.2.2s-1 1.8-1.6 1.6a2.4 2.4 0 0 1-.8-.5l-.7-.9s-.4.1-.9-.2-.9-1.1-.9-1.1-.7-.1-1-.4l-.5-.8-1.9 1.4s0 .5-1.1 1.3-1.7.8-1.7.8-.4 1.7-1.6 1.4-2-1.6-2-1.6-.9-.2-1.4.6c-.6.7-.9 1-.9 1.7 0 .8.5 1.8 1 2.2.3.3 1.5 1.3 3 .6 1.4-.8.9-2 .9-2l.8-.5c.9-.6 1.8-1.5 2.5-1.7"/><path stroke="#977C2E" stroke-linecap="round" stroke-linejoin="round" stroke-width=".3" d="m317.947 171.217 1.2.2s0 .3.3.5c.3.3.3 0 .3 0s.2 1.2 1.4 2c0 0 1.4.6 2 .2.8-.4.7 0 .7 0l2-2.4s0-.5-.5-.5c0 0 .4-1.6-1-2-1.2-.2-2.2.2-2.2.2s-1 1.8-1.6 1.6a2.4 2.4 0 0 1-.8-.5l-.7-.9s-.4.1-.9-.2-.9-1.1-.9-1.1-.7-.1-1-.4l-.5-.8-1.9 1.4s0 .5-1.1 1.3-1.7.8-1.7.8-.4 1.7-1.6 1.4-2-1.6-2-1.6-.9-.2-1.4.6c-.6.7-.9 1-.9 1.7 0 .8.5 1.8 1 2.2.3.3 1.5 1.3 3 .6 1.4-.8.9-2 .9-2l.8-.5c.9-.6 1.8-1.5 2.5-1.7"/><path fill="#F8C83C" stroke="#977C2E" stroke-width=".3" d="M315.747 161.217v3.2s.4 2.9-.2 3.7c-.6 1-2.9.7-3.2 0-.3-.8-.2-3.2-.2-3.2z"/><path fill="#F8C83C" d="M313.247 170.917s-.5.8 1 1c.4 0 .7-.2.9-.4.4-.4.3-.8.3-.8s-.2 1.2 1.2 1.2c1.4.1 1.3-1.3 1.3-1.3"/><path stroke="#977C2E" stroke-linecap="round" stroke-linejoin="round" stroke-width=".3" d="M313.247 170.917s-.5.8 1 1c.4 0 .7-.2.9-.4.4-.4.3-.8.3-.8s-.2 1.2 1.2 1.2c1.4.1 1.3-1.3 1.3-1.3"/><path fill="#202220" d="M301.147 173.517s-.8-1.4.1-1.9c1-.5 1.5 0 2.1 0s.4-1.4.3-1.7a3.7 3.7 0 0 0-.7-1.2c-.2-.2-3.5.2-3.4 2.3 0 2.1 1.6 2.5 1.6 2.5m5 5.2s-1-1.5-.4-2.4c.5-.9 1-.3 1.2-.4.3 0 .4-.6 0-1.6-.5-1-1.1-1.4-1.4-1.5-.4 0-2.3 1.4-2 3.2a3.5 3.5 0 0 0 2.6 2.7m18.2-1.8s3.5 1.5 3.7-2c.2-2-1.5-3.3-2-3.3-.4 0-.7.3-1.3 1-.7.8-1.1 1.3-.9 1.6.3.3 1.3-.3 1.8.8.7 2-1.3 1.9-1.3 1.9"/><path fill="#4B4139" d="M306.147 178.717s-2.7-.6-2.7-3.3c0-1.8 2-2.6 2-2.6s-1.8 1-1.8 2.6c-.1 2.7 2.5 3.3 2.5 3.3m-5-5.2s-1.6-.3-1.7-2.6c-.2-2.3 3.5-2.2 3.5-2.2s-3.5.2-3.4 2.4c.2 2.2 1.6 2.4 1.6 2.4m23.2 3.4s.7.3 1.5.3 1.8-.3 2-1.6c.4-1.3.3-2-.6-3.1-.6-.9-1.2-.8-1.2-.8s.6 0 1 .8c.6.8 1.3 1.6.8 3.1s-2 1.5-2.5 1.5a5.4 5.4 0 0 1-1-.2"/><path fill="#904720" d="m282.547 102.817-.6-.2.4-1 1.9-.7 1.8-.1 2-.1.8.6 1 2.3-3.6 2.2-.6.2-.2-1-.6-1.4z"/><path fill="#202020" d="m316.947 155.917-.3-5.5-14.8 4.6 5.8 5.5z"/><path fill="#D2A567" d="m289.347 146.317-1.2-1-1.4-.8h-1.1l-.2.3.2.5 1.3 1.6 2.3 1.2.8.7.5.2-1.1-2.7zm-.3 2.3.8.2.9 1 .5 1 .7 1.3.2.8-1.6-.3-4.8-1.5.4-1.2.8-.7.7-.3 1-.2z"/><path fill="#D2A567" d="M292.147 152.617h.8l.6-.5-.3-1.8.3-5.8-3.9-4.6-.8 2.6 1.1 4.7.9 2.8z"/><path fill="#AB6D29" d="M289.347 142.117s-.2.4.1 2c.3 1.5.9 4.9 2.2 7.2l-1.3-1.9s-2-4.6-1.7-8.2c.3-3.5.7.8.7.8zm2.9 2.9s-.9 1-1 1.9v2.2s0-1 .8-1.3c.9-.3.7 2.3.8 2.6l.5-4.7zm.4 9.6-4.4-1c-2.3-1-3.5-1.8-3.4-2.3 0-.6 4 .1 4.6.2l2.4 1h1l1.9-.8.2 2zm-7.3-.8s1 .8.5 1a4.4 4.4 0 0 1-2.3.3l4.2 1 .9-.7z"/><path fill="#D2A567" d="M284.147 152.617c.2-.2.3.7 1.8.8 1.5.2 2.2-.2 2.2-.2l.7.4.8.2-.7 1.1-2.8-.8-1.5-.8z"/><path fill="#AB6D29" d="m293.947 150.717.8 1 .5-2.4v-2.5l-1.6-1z"/><path fill="#4D2A15" d="m289.647 146.517-1.3-2.1-1.7-3.1 1-1.8 1.3 1.8s-.4 1.3-.1 2.5c.2 1.2.8 2.7.8 2.7"/><path fill="#D2A567" d="M280.747 154.417s.6-.9 1.9-1a7.6 7.6 0 0 1 2.4.2l2.6 1.4.6.9-5-.7z"/><path fill="#8F4620" d="m293.947 145.417.2 4c0 1 .7 2 .6 2.3-.2.4-.4.6-1 .9-.6.2-2 0-2 0s1.3-.2 1.4-.5c0-.2-.4-1.4-.5-2.4 0-1 .1-2.2-.3-2.2-.3 0-.7.4-.8.6 0 0 .4-3.8.8-4.2s1.6 1.6 1.6 1.6z"/><path fill="#AB6D29" d="M284.647 153.417s-.5-.4-.5-.8c0-.3.6 1.6 3.4 1.5 2.8 0 2.6-.2 2.6-.2h1.3s-.3 1.3-.5 1.4q-1.114.677-2.2 1.4l-.7.4v-.2l-.3-2.1-2.4-1z"/><path fill="#8F4620" d="M289.647 146.517s-3.2-3.3-4.3-5.5c-1-2.2-.4-5.2-.4-5.2l3 4s-.4.7-.3 2c.2 1.2 2 4.7 2 4.7"/><path fill="#AB6D29" d="M287.547 158.717c0-.3-.2-1 .4-1.8 2-2.4 6.8-4 6.8-4v2.8l-6.2 3z"/><path fill="#8F4620" d="M287.947 156.417c.3-.1 1.4-1 1.4-1.3 0-.4-.7-.4-2.1-.7-1.5-.3-2.6-1-2.6-1s1.7 1.4 2.4 1.7c.7.2.6.5.5.7zm8.3.7s-.9-1.3-1.2-2.1-.3-2.1-.3-2.2l-1 .7-2 .7s2 0 2 .6c0 .7-3 1-3 1 0 .1 2.4-.4 2.3.1-.2.6-1.2.7-2.5 1.2l-2.3 1-.7.5s.6.4 1.5.3c.9 0 2.9-.5 2.9-.5l3.8-1.5z"/><path fill="#AB6D29" d="M296.247 157.117s-1-.3-1.8-4.8-.6-5.7-.6-5.7l1.8 1.3 1.7 3z"/><path fill="#8F4620" d="M296.847 149.717s-.9 2.5-.9 4c0 1.4-.1 2.4.3 3.4s1.8 2.3 1.8 2.3l.7-.6.3-2 .1-3.4z"/><path fill="#202020" d="M299.347 153.117s.4 6.3-1.2 6.5c-.7 0-1.9-2.4-1.9-2.5 0 0 1.4 2.3 2 2.1 1-.4.6-6.6.6-6.6zm-3.1 4s-.3 0-.7-.8c-.4-.7 0 .6-3.4 1.8s-4.6.5-4.6.5 1.1 1 4.5 0 3.1-1.3 3.6-1.4z"/><path fill="#AB6D29" d="M289.947 149.117s.6.5 1.2 1.7q.498 1 1 2h.2s-.4-1.3-1-2.2l-2.2-3.1z"/><path fill="#8F4620" d="M287.947 156.917s.3-1.1 0-1.4c-.3-.2-.7 0-3-.2a34 34 0 0 1-4.2-.9s1.6 1 3 1.4l3.5.8.5.1z"/><path fill="#202020" d="m287.947 156.917-.2-.5c-.3-.3-.7.1-3.5-.7-2.8-.7-3.5-1.3-3.5-1.3s1 1 3.4 1.5z"/><path fill="#AB6D29" d="M289.247 148.617s-2.1.1-2.8.7c-.7.5-1.6 2-1.6 2l1.3.1s-.1-1.2.5-1.9c.7-.6 1.7-.7 2.6-.9"/><path fill="#8F4620" d="M285.247 144.617s.8 1.2 1.7 1.5c.9.4 1.8.8 2.2 1.2s.9 1.8.9 1.8-3-1.3-3.7-2a9.6 9.6 0 0 1-1.1-2.5"/><path fill="#8F4620" d="M288.147 145.417s-.3-.5-1.1-.9-1.4-.3-1.7-.1-.1.2-.1.2l1 1.7.7-.2s-1.6-1-1.3-1.3c.8-.7 2.5.5 2.5.5z"/><path fill="#202020" d="m296.247 141.517 17-8.7 8 11.1-14.7 4-7.7.6-3.8-2.7z"/><path fill="#4D2A15" d="m318.947 146.317 21 18.2-2.3 1.6-5-1.4-10.2-10.1-3.8-3.8z"/><path fill="#4D2A15" d="m345.947 160.917-12-9.1-15.3-11.5.4 5.5 17.4 16 5.7 2.7 3-.8 1.4-1.6z"/><path fill="#803F1D" d="M318.947 148.017s6 6.9 10.6 10.4 9 7.3 10 6.7c.8-.5.5-1 .5-1l-21.3-17.5z"/><path fill="#4D2A15" d="m333.747 165.517-2.1 1.7-2.5-1-13-13.2.7-2.5 1.8.3z"/><path fill="#202020" d="M345.947 160.917s-1.6 3.8-5 2.9-22-18.5-22-18.5v1.8s18.8 17.3 22.5 18c3.6.7 6.6-2.5 6.2-2.8a45 45 0 0 0-1.7-1.4"/><path fill="#803F1D" d="M316.847 150.817s6 7.7 9.1 10.5c3.2 2.9 6 5 7.2 4.8 1.3-.2-.7-1.7-.7-1.7l-9.1-9-4.7-4.6s-1.8-.7-1.8 0"/><path fill="#202020" d="M318.347 150.817s15.2 15.5 16.4 15.9c2.5.7 6.2-2 6.2-2l-1.3-.7-.2.5s-.7 1.6-4 .9c-3.2-.7-16.6-15.1-16.6-15.1z"/><path fill="#4D2A15" d="m323.947 165.717-5.5-6.4-1.2-2.1-.3-2.7 11 11.1-1.5 1-1.4-.4z"/><path fill="#202020" d="M334.047 165.917s-1.3 2-3.2 1.6a5.4 5.4 0 0 1-2.8-1.7l-10.6-10.4-.3-1.6s11.7 12.3 13.7 12.8c1.6.4 2.7-1.4 2.7-1.4z"/><path fill="#202020" d="M328.147 165.517s-.5 1.6-2 1.4c-1.6-.3-2-.9-2-.9l-6.6-7.7-.1-2s6.8 9.3 8.3 9.8c1.6.5 2-1 2-1z"/><path fill="#B07229" d="M321.247 145.317s6.3 5.4 6.8 5.6c.5.3 2.7.4 2.8.7.2.3-1.4 0-1.5.3-.1.4 3.2 3 3.7 3.1.5 0 3.2 0 3.1.4 0 .3-1.8 0-1.9.4 0 .4 2.9 2.7 3.4 2.8.5 0 3.9 0 3.9.4 0 .3-2.7 0-2.7.5.1.6 4.6 3.4 4.4 3.8s-5.4-3.5-5.5-3.3c-.2.2-.4 1.4-.7 1.6s0-1.6-.2-2.4c-.3-.8-3.4-3.1-3.7-2.9-.3.3 0 1.7-.4 1.7s.1-1.7-.2-2.3a16 16 0 0 0-3.6-3c-.4 0-.1 1.3-.4 1.5s-.2-1.5-.6-2-7-6.5-6.7-7z"/><path fill="#4D2A15" d="M310.447 162.717s0 2.4-1 2.8c-1.1.3-3.1-4.4-3.1-4.4l-.5-4.4 3.1 3zm8.4-1.2v-1.1c0-.6-.3-1.5-.3-1.5l-.2-2.4-.6-1.7-.4-1h-.7l-1.7 1.2-.5 1.6.8 3 .8 2.7 1.3.4 1.5-1z"/><path fill="#4D2A15" d="M316.747 165.717c.3-.1-.4-3.4-.4-3.4l-2-4.8-.5-1.7-1.5-.6-1 1.2.2 1.9s1.5 3.2 2.2 4.3c.8 1.1 2.3 3.3 3 3.1"/><path fill="#202020" d="M314.947 155.417a6 6 0 0 1 1.4 2.6s1.3 3.6 1.1 4c-.2.3-1 .3-1 .3s1.8 1.8 2.3 1.6.3-2 .1-2.4c-.1-.4-.7 0-1-.5-.1-.4-.8-2.7-.8-4.2v-2.7c.2-.3 1.5 3 1.5 4.7l.6.7-.6-3.2-.7-2.3c0-.2.3-.8.3-1.5v-1s.6.5.9.5.7-.4.8-2c.2-1.5-.1-6-.1-6l-6.8 9z"/><path fill="#202020" d="M314.947 154.717s-.3 2.4.6 4.8l1.3 3c.2.3.2 2.9-.1 3.2 0 0-1.8-4.4-2.4-6.6-.5-2.1-.7-3-1-3.2l-.8-.2z"/><path fill="#4D2A15" d="M314.347 167.417c.2 0 0-1 0-1l-.2-2.3-2.4-4.9-2.6-2.3-1.4-2-.2 4s2 4 3.1 5c1.3 1.2 3.3 3.6 3.7 3.5"/><path fill="#202020" d="M304.647 156.417s.4 1.1.4 1.8v1.4l1.8 3.5c.9 1.5 1.7 3.1 2.4 2.8.7-.4 1-1.5 1-1.7.1-.1-.8 1.3-1.2 1.1a40 40 0 0 1-2.3-6.6l-1-.8a18 18 0 0 1-1.1-1.4zm7 5.5-1.7-3.1c-.5-1-1.2-1.7-1.4-1.7s-.5-2-.5-2 .7 1.3 1.6 1.7c1 .5 1.5.8 2 .7l.2 2z"/><path fill="#5C3A1D" d="M307.347 158.717s.5 1.4 1.4 2.7c.8 1.3 2.3 2.9 2.3 2.9s-1.6-1.6-2.5-2.8a14 14 0 0 1-1.4-2.8z"/><path fill="#202020" d="M311.948 157.117s.5-1.2.8-1.3l1.2-.3s-.7-.1-1.2-.8l-1.3-1.3.4 2zm-.4.4s2 4 2.4 5.5c.5 1.3.4 3.4.4 3.4s-.2-1.5-.6-2.7l-2.4-5c-.1-.3.2-1.2.2-1.2"/><path fill="#4D2A15" d="m314.147 154.817.5-6-.5-2.2-2.7-6s-.1.8-.8.8a6.2 6.2 0 0 1-3.1-1.8 9.2 9.2 0 0 0-.2 4.8l5.3 9.9z"/><path fill="#8B441F" d="M303.747 158.717s.8 1 1.3 1c.4-.2.3-2.1-.3-3.2-.6-1-7-9.6-8-10.1s7 12.3 7 12.3"/><path fill="#8B441F" stroke="#5C3A1D" stroke-width=".1" d="M308.047 155.217c.2.4.6 3.1-.5 3.4-1.5.3-8.5-9.4-9.6-10.7 0 0-4.4-2.8-4.5-3.5s4.7 1 4.7 1l9.5 9z"/><path fill="#202020" d="M303.747 158.717s-.8-1.3-.9-2.3c0-1-.4-1.5-.4-1.9 0-.3-5.2-7.7-5.7-8.2-.6-.5-2.3-1.4-2.3-1.4q.057 1.212.3 2.4s1.6 3 4 5.7a460 460 0 0 0 5 5.8z"/><path fill="#4D2A15" d="M311.547 157.417c.7-.3.4-2.7.1-3.5a456 456 0 0 0-4.4-9.4l-1.3.4-2.3-1.8-1.4-1.5s.5 2.1.4 3.1v1.6l3.3 5.9zm4.7-5.2 1-1.3-.5-4.4-2.8-9.4s-.7.1-1.4-.3c-.6-.4-1.4-1.3-1.4-1.3l.7 5.7 2.9 8 .2 2.3z"/><path fill="#202020" d="M307.647 154.417s-2.8-3-3.7-4.5l-1.7-3s-.8.3-1.8 0c-1-.5-2.2-1.8-2.2-1.8s-.8 1.5 3.2 5.6c4.6 4.6 6.2 3.7 6.2 3.7"/><path fill="#8B441F" d="M314.347 155.417c1.2-.4 1.1-5.4 0-8.7-1-3.3-2.9-6.2-2.9-6.2s2.3 5.4 2.8 7.5c.4 2.2 0 3.7-.4 3.6s-.4-1.3-1.3-3.4c-1-2-1.6-2.6-1.6-2.6s3.3 8.8 2.3 8.6c-.9-.2-5.3-9.9-5.5-10.2-.2-.2-.4.4-.4.4s4 12.2 7 11"/><path fill="#4D2A15" d="m316.947 131.717 2 4.2.6 4.4.2 3.7s0 7.4-.8 7.6c-1 .1-1.4-.7-1.4-.9q-.856-4.15-1.7-8.3l-1.7-8.5.6-.6.2-1.2 1.3-.1z"/><path fill="#8B441F" d="M311.547 157.417c.8 0 0-2 0-2s-.6 1-1.2.3c-.5-.7-1.3-3.1-1.3-3.1l-.5-1.5s-.6 1.6-1.3 1.6-4.6-6.4-4.6-6.4l-.4.6s5.4 11.1 9.3 10.6z"/><path fill="#202020" d="M309.047 152.617s.7-1.6.4-3c-.3-1.5-2.2-5.1-2.2-5.1s-.6.1-1.4-.2a9.6 9.6 0 0 1-2.2-1.2 38.3 38.3 0 0 0 5.4 9.5m3.1-2.3s-.5-3.4-2-6.6c-1.6-3.1-2.6-4.1-2.6-4.1v3.5s1.5.5 2.6 2.4c1 2 2 4.8 2 4.8m4.3-5.8s-.3-3.7-.8-5.8l-1.2-5s0-.2.3-.4h.6c.8.3 1.1 2.2 1.1 2.2l-.1-3.1-.3-.5h-1.4s.3 1-.1 1.3c-.3.3-.6-.2-.7-.3l-.2.4.4 2-.1 1.7s.5 2.2 1.2 3.5c.6 1.4 1.3 4 1.3 4m3.3-.5s.6-5.3-.6-8.7-2.2-4.2-2.2-4.2l-.6.6s1.8 3 2.4 5.6zm-5.4 2.7s-.6-4.1-1.3-6.8a84 84 0 0 1-1-3.6l-1.1-1s.7 2.7.6 3.6l-.1 1.4s.5 1.4 1.3 2.6a25.4 25.4 0 0 1 1.6 3.8"/><path fill="#904720" d="M317.147 153.317c1 0 .1-6-.3-7.5-.4-1.6-3-8.8-3-8.8s3 10.3 2.8 10.8c-.3.8-1.5-3.1-1.7-3-.2 0 2.2 6.9 1.3 7-.8 0-1.3-1.5-1.3-1.5l.1 1.5s.6 1.4 2.1 1.5"/><path fill="#904720" d="M318.447 150.317c.7 0-.2-5.7-.7-8.2l-2-7.5s1.5 3.5 2.3 7.5 1.4 9 .6 9.2c-.8 0-1.2-.8-1.2-.8v-.9s.3.7 1 .7"/><path fill="#312317" d="M308.747 156.917c0 .4 0 2.4-1 2.2-1-.1-2.9-1.9-3.3-3 0 0 2.2 2.5 3 2.4.8 0 .8-2.5.6-3.2 0-.6.6 1.6.6 1.6z"/><path fill="#D2A567" d="M314.047 129.917s1.4.9 2.4.3a4 4 0 0 0 1.8-3c0-.8 0-1.5-.7-2.4s1 .7 1 2.3 0 4.3-2.5 5c-2.5.5-1.4-.2-1.4-.2z"/><path fill="#8F4620" d="M312.047 125.117s1.6 2.6 2.2 5c.7 2.3.5 3.2.2 3.3-.4 0-.6-.3-.7-.9 0-.6-1.7-7.4-1.7-7.4"/><path fill="#1E2121" d="m284.047 128.417 10.6 15.3 13.2-15-8.3-8.6z"/><path fill="#4D2A15" d="m297.447 118.917-.6 2.4 1.3 4.1 2.2 2.3 2.5 1.7.6-2 .6-2.2.7-.2 1.6.6 1-1.5 1.8-3.1-.4-1.2-.4-.9-2.7-4.6-.9 1.7-.8.5-1.6-.8-1.8 2.4-2.3-1z"/><path fill="#5C3818" d="M302.947 129.417s.4-.3.6-1.6c.2-1.2.2-4.9-.1-6.4s-1.3-4.4-1.5-4.2c-.2.3 1.5 3.3 1.3 7-.3 3.6-.2 4.6-1 5-.7.3.6.2.6.2z"/><path fill="#5C3818" d="M303.547 123.217s1.7 2.5 2.5 1.6c.9-.9.5-4 0-5.3l-1.2-3 .5-.6.9 3.4c.3 1.4 1.3 5.2.1 6-1.1.6-2.8-1.5-2.8-1.5z"/><path fill="#8F4620" d="M297.847 125.017s.6-1 1.4-1 1 .3 1 .3l.6 2 1.2 2.2 1 1-.5.6-.9.2-2.5-1.4-.7-1-.6-3z"/><path fill="#D2A567" d="M301.947 146.717c-.8.5-2.7-.5-3.7-1.4l-6.8-6.7-.8-3.2 2.2.6 3.9-1.7.7-1.3 4.6-2.4 2.6-1.4 5.5-.1 1.4-2.7s1.8 3.2 2.1 4.5c.4 1.4.3 5.4-.2 5.7s-2.3-1.2-2.6-1.3c-.2-.1 1.4 5.7 0 6-1.3.2-3.6-2.2-3.6-2.2s1 5.2-.2 5.2a10 10 0 0 1-5-2.6s1.3 4.3 0 5z"/><path fill="#8F4620" d="m300.947 140.017 1.1 1.7c.3.4 0 2.9-.2 3.4-.3.9-1.6-1.2-2.3-3l-2.2-3.8c0-.4 3.5 1.7 3.5 1.7zm10.8-12.9s2 8.1 1 8.4-3.6-2.6-4-3l-4-6.4-.8-.8.2-.4 1.7.6z"/><path fill="#8F4620" d="M297.847 142.717c-.4.3-1.3-1-1.7-1.4l-3-3.3a11.6 11.6 0 0 1-2.2-2.5c0-.3-.8-1.1-.8-1.1l.7-1h.9s5.4 4.2 5.7 5c.4.6.6 4.1.4 4.3m8 0c-.2.3-3.7-2.3-5.2-4.4-1.5-2.2-3-4-3.5-5l-.6-1.9 1 .2s8.8 10.8 8.4 11.2zm1.3-3.7c-.2.3-1.7-.9-2.7-2.1-1-1.3-.4-2.9-.4-2.9s3.3 4.8 3.1 5m2-.5c-.5.3-2.5-2.2-4.2-5-1.3-2-1.6-2.3-1.8-2.5-.5-.3-1.4-.4-1.4-.4l-.2-.3 1-.2.6-.8 1-1.3 4.3 8.5s1 1.9.7 2"/><path fill="#AB6D29" d="M298.247 145.317c0 .3 0 .6-1.2.5a21 21 0 0 1-9.9-7.8l-3-5 1.1-1.4 9.6 11z"/><path fill="#8F4620" d="M298.247 145.317c0 .5-.5.6-1.1.5-.6-.2-3-1-6.9-5.3a33.3 33.3 0 0 1-5.3-7.4l-.2-1.8 1.2-.5 6.5 10z"/><path fill="#4D2A15" d="M304.547 141.017s-2-1.5-3.2-3a24 24 0 0 1-3.8-5.7c.1-.7 1.2-.7 1.2-.7v-1.8l.2-.6 1.9.8 2.3 2.9.9 1.1s1.5 3.7 1.2 4-2.4-2-2.7-1.7 2.4 4.4 2 4.7m-3.7-1s.7 1 .4 1.7-.5 1-1.5-.4a16 16 0 0 0-2.3-3c0 .1.1 2.3-.3 2.3-.5 0-2-1.9-3-3.3l-2.5-3.9v-2l-.1-2.5.3.9.4.7 3.6 4.2 1-.7 2.1 4 2 2zm-13.5-6.1s2.8 4.8 5.3 7.5a17.4 17.4 0 0 0 5.6 3.9l-8.4-9.9zm21.2 2.8a12 12 0 0 1-3-3.4c-1-1.6-1.9-4-1.8-5 0-1 .4-3.4.4-3.4s2.8 3 3.4 4.3c.5 1.4 1.7 3.3 1.4 3.5-.2.2-2.1-1.3-2.4-1-.2.4 2.3 4.8 2 5m3.2-3c-.3.1-1.8-1.6-2.1-2.6a14.8 14.8 0 0 1-.6-3.2l-1.2-3v-3.3l1.4-.2 1.9 2.7s.7 1.5.7 3.7c0 2.3.3 5.6 0 5.8zm-22.5 8a42 42 0 0 1-4-6l-1-2.9.5.4s.8 3.2 4.7 7.1c4 4 4.9 4.2 4.9 4.2s.7 2.2.4 3c0 0-2.9-2.6-5.5-5.7z"/><path fill="#202020" d="M293.547 146.317s-3.4-3-6-6.4a46.7 46.7 0 0 1-4.4-6.6l1.2-1a46.3 46.3 0 0 0 9.2 14m4.7-1-6-6.1c-2-2.2-3-4.4-3-4.4l1.6.6s.7 1.7 2 3.5zm-.8-7s-2.1-2.6-3.1-4.2l-2-3.8s2.8 3.3 3.6 3.5c.9.2.9 0 .9 0s-.4 1.2-.1 2.2zm.9-10.6s.3 1.9.1 3c-.2 1-.8 1-.8 1a15.7 15.7 0 0 0 4 4l-1.8-2.7c-.5-1-1.3-2-1-2.8.4-1 2.1.6 2.6 1l2.6 2.8s-.8-2.5-1.8-3.4a53 53 0 0 0-4-2.9z"/><path fill="#202020" d="m306.947 133.217-1.7-4.2-1.6-5.2v2.8c-.1 1.2-.5 3-1 3.3-.6.2-.7.3-1.7 0-1-.2.7.5.7.5s1 0 1.4-.5.5-1.5 1-1.4c.4.2 1 1.7 1.3 2.4z"/><path fill="#202020" d="M303.647 123.817s2 2.3 3 1.3c.8-1 .3-4 .3-4s1.2.5 1.6.2c.4-.4.2-1.5.2-1.5s2.3 3.2 3.3 5.3c1.1 2 1.6 5.8 1.6 5.8s-1.8-3-2.7-5.8c-.9-2.6-2.1-3.8-2.3-3.5a5.3 5.3 0 0 0-.3 3c.2 1 1 2.1 1.5 3.5l1.1 3.4-1.6-2.5c-.7-.8-1.3-1.2-1.7-1.6s-1-1.2-1.7-1.4c-.6-.3-1.8-.9-1.8-.4s-.3-1-.3-1z"/><path fill="#171717" d="M296.747 133.717a27 27 0 0 0 4.2 6.3s-2-1.8-2.8-3a15.5 15.5 0 0 1-1.4-3.3"/><path fill="#8F4620" d="M310.147 134.317c-.3 0-1.3-.3-1.4 0 0 .4.6 1.8 1.3 2.5s1 .7 1.1.6c.2 0 0-.7-.2-1.4v-1.7c-.1-.3-.8 0-.8 0"/><path fill="#D2A567" d="m285.947 119.817-1.3.7-1.4 3 .4 5.3 2.1 3c.8 1.2 3.5 4.2 4.2 4s1.4-2.3 1.5-3.4l.2-3.2 1.8 2.3c1.1 1.3 2 2.4 2.6 2.3.5 0 2-3.2 2-3.6.1-.4-3.8-10-3.8-10l-1.8-1-6.6.6z"/><path fill="#AB6D29" d="m294.747 127.817 1 3.7c.5 1.2 0 2.3.3 2.3.2 0 2.3-2.7 2.3-4 0-1.2 0-2.5-.5-6.3s.2-5 .2-5l-1.2-1-2 4.2zm-7-2.2.7 5c.3 1.2 1 3.3 1.4 3.2.4 0 1.6-3.3 1.7-4.4 0 0-.9-1.6-.8-5.5 0-4-.4-4.4-.4-4.4z"/><path fill="#45392D" d="M282.447 117.917s-3.1 4.6-3 7c0 2.5.4 2 1.1 4.2.7 2.3 1.1 5.6 1.2 5.9 0 .2.5-.2.5-.5z"/><path fill="#AB6D29" d="M282.447 118.417s-2.7 4.3-2.5 6.6.5 2.3 1.3 4.4c.8 2 .8 5.4.8 5.4s1-.2 1.9-.9c1-.7 1.8-2.1 1.8-2.1l-1-2.1a8 8 0 0 1-.6-2l-.8-1 .2-4.1.7-3v-1l-1.8-.1z"/><path fill="#DBAD6C" d="M297.147 125.717s-1.3-.3-1.9-.6-.8-1.1-.8-1.1l.4-.8z"/><path fill="#D2A567" d="M282.947 118.917s-2 4.3-1.7 7.2 1.9 6.6 2 6.7c.2 0 0-.3.1-1v-8.7l.9-2.8v-1.5z"/><path fill="#8F4620" d="M287.747 119.917s.3 1.2.1 1.8c-.2.5-1.2 1.2-1.6 2-.5.8-1 2.8-1 2.8s.4-1.1 1-1.8c.7-.7 1-1.2 1-.8.2.4.4 2 .3 2.3s-.7.8-1 2c-.4 1.3 0 2.4 0 2.4l.5-2.2c.2-.6.7-1 .7-1l1 2.4s0-1.1.3-2c.1-.8 1-2 1.3-2s.8-.1-.3-.7c-.4-.2-.1-4.2.1-4.4.3-.2 1.9-.2 1.7-.8a11 11 0 0 0-1.6-2.2c-.1-.1-2.5 2.2-2.5 2.2"/><path fill="#DBAD6C" d="m296.947 128.517-1.5-.3c-.5 0-.6-.6-.6-.6l.2-.6 1.2.7z"/><path fill="#8F4620" d="M284.347 129.017c0 .4-.3.9-.5 1.5-.3.7-.4 1.6-.4 1.6l-.4-3.3-.3-2.4c-.2 0-.7.7-.7.7s0-1.6.3-2.3.5-1.8.3-2c-.3-.1-.8.3-1 .7q-.416.64-.8 1.3s.3-1.3.6-1.9c.3-.5 1.8-2.2 2-2.8.4-.7.4-1.4.4-1.4h1s1 .8 1 1.5c0 .4-1 .9-1 1 0 0-.8-.1-1 3.2-.2 3.4.6 3.2.5 4.6m9.4-8.7s.2 1.8 0 2.4-.7 1-1.1 1.8c-.4.7-.4 2.4-.4 2.4l.5-1.4.7-1c.1 0 .6.7.8 1.7l.8 2.5s-.2-1.2.1-1.2.5-.1.9.2l.9.8s0-.5-.7-1.1c-.6-.7-1-.6-1.1-1.5-.2-1-.3-1.8-.2-2.2 0-.3.5.3.9.7l1.5 1.4-.7-1v-3c0-1 0-1.9.4-2.1.3-.3.4-1.6.2-1.8-.1-.2-3.5 2.4-3.5 2.4"/><path fill="#1E2121" d="M304.547 116.517c.133 2.43.639 4.825 1.5 7.1 0 0-1-2-1.6-3.6s-.9-3.5-1.3-3.6c-.4-.2-1 .8-1 1.5s.5 3.3 1.1 4.2c.6 1-1-1.2-1.3-2.3l-.7-2.2s-.4 1-.3 2c.2 1.1 1.1 2.7 1.1 2.7l-1-1-.6-.7s0 1.5.4 2.1l1.2 1.7-1.3-1-.4-.8s.2 2.1.6 3.3l1.5 3s-1.2-1-2-2.9c-.8-1.8-1.2-7.3-1-8.1l1.1-1.9c.6-.8 1.3-4.7 1.3-4.7s.9 3.6 1.5 4.3 1.2 1 1.2 1zm-8.6-1 .8 1.3.6 1s-1 1.1-2.3 2c-1.2 1-2.8 2-3.1 1.5-.4-.5-.4-1-.4-1s1.4-.8 2.4-1.8a6.6 6.6 0 0 0 1.6-2.2c.2-.6.5-.9.5-.9zm-10.9 3.5s.2 2.2 1.2 2.2c.9 0 3.7-2.9 3.9-3s.4-.8.4-1l-.2-.8s-3 3-4 3.2c-.9 0-1.3-.6-1.3-.6m.1-3-.3 2c0 .5.2.9.2.9s-2.2.7-2.5 0c-.4-.6-.1-1.6-.1-1.6h1.5c.6-.2 1.2-1.3 1.2-1.3m20.3-3.1 1.5 3.2 1.4 2.8s-1.4-1.7-1.9-2l-1.2-1 .2-1.1z"/><path fill="#DBAD6C" d="M282.047 117.417h1.3c.5 0 .8-.2.8-.2l.9-1.2s-.5 1.4-.2 2.5c.3 1 1 1.1 1.2 1.1a4 4 0 0 0 2.2-1.1c.9-1 2.1-1.9 2.1-1.9s-.3 1.3.2 2.7c.5 1.3 1.2 1.3 2.2.4 1-.8 2-2.2 2.6-2.8l.7-1 1.1-1 1-5.4-.5-.7-1.4.7-1.7-.7-.5-.7-1 1.7-1 .6-.5.1-1.2.3-.5-1.1-.3-.8-.6-.3-2.4 2.5-1.4-.1-1.3 2.2-1 1.3-1 2.4z"/><path fill="#8F4620" d="M293.847 111.917s.2 1.3-.5 3.6-1.6 3.9-1.6 3.9 2.4-1.5 3.6-4.2c1.1-2.6.9-5.7.9-5.7zm3-2.5s.2.4 0 2.4l-.8 4 .6 1.2c.4.7 1.2 1.8 1.7 1.6.6-.2 1.6-.9 2.2-2.2.6-1.4 1.1-2.7 1.4-2.9.2-.2.3.1.4.2 0 .1.3 1.3.9 1.8.5.5 1.3 1.3 1.6 1 .4-.2.8-.9.7-1.2l-1.3-4-1.6-4-1-1.6-2.8.3z"/><path fill="#AB6D29" d="M301.647 105.717s.8 1.7.9 3.6c0 1.8-.4 3.8-.4 3.8s.2-2.3 0-3.7c-.3-1.4-.7-2.3-.7-2.7z"/><path fill="#4D2A15" d="M305.547 113.017v2.3c-.2.8-1.3-.5-2-3-.6-2.5-.5-3-1-4.3l-.9-2.2 1.5-.3zm-7 4.6s2.8-1.5 3.1-6.2c.2-2.1-1.2-5.7-1.2-5.7s0 3.8-1 6.2a60 60 0 0 1-1.9 4s.7-.2 1-.6l.8-1.1s.1.7-.1 1.6l-.6 1.8zm-2.3-8.1s-.1 1-1.3 2c-1 .9-3.1 1.9-3.1 1.9s1.5-1.4 2-2.6c.6-1.2.1-2 .1-2s-.2.6-.8 1.1-1.6.6-1.6.6 0-.6.7-1.3c0-.1 0-.4.2-.7.3-1 1.1-2.3 1.1-2.3s.7 1.4 1.3 2z"/><path fill="#1E2121" d="M304.647 104.017a17.6 17.6 0 0 0 .9 9s-1.4-2.2-1.7-3c-.4-1-.4-2.3-.7-3a3.2 3.2 0 0 0-1-1c-.3-.2-1-.1-1-.1s.8-.4.8-1.1v-1l1.4.3h1.3zm-6 9.8s1.4-2 1.8-4.6 0-3.5 0-3.5-.6 0-1.1-.5-1.3-1.8-1.3-1.8.2 1.4 0 3c-.4 1.6-1.8 3-1.8 3s.8.4 1.4 0c1.5-.9 1.4-2.5 1.4-2.5s.3.2.3 2.2-.7 4.7-.7 4.7"/><path fill="#8F4620" d="M281.147 117.317c-.3 0 1-2 1.8-3.4l2.1-3.4s.3.3.8.3a3.6 3.6 0 0 0 2.4-1.7 7 7 0 0 0 1-2.5c0-.3-.1 1.8 1 3 1 1.1.9 1 1.3 1 0 0 0 1.4-.4 2.7l-.8 3.3s.2-2.5-.3-3.2c-.4-.8-.6 0-1 1-.3.9-1.1 1.5-1.1 1.5s.6-1.1 1-2.3.2-1.2 0-1.2c0 0-.2-.1-.6.4-.5.5-.9.6-.9.6s.5-.4.7-1a6 6 0 0 1 1-1.8c.2-.3.4-.7.4-1 0-.2 0-.7-.2-.7s-.5.3-1.4 1.2l-1.3 1.3-.9 2.6a17 17 0 0 1-1 2.8l-.6.4.9-2.4 1-3.4c-.2-.3-.7-.3-.8 0l-2 2.8c-1 1.4-1 3.1-1.2 3.2l-1-.1z"/><path fill="#874F20" d="M305.647 102.517c0 .2 0 1.2-1 1.5a3.5 3.5 0 0 1-2.3-.2c-.2 0-.2-1.4-.2-1.4z"/><path fill="#B27129" d="M285.948 105.817s-.2.9-.8 2c-.5 1.2-1.4 2.2-1.3 2.4 0 .1.6.7 1.4.6.8 0 1.1-4.8 1.1-4.8l-.1-.2z"/><path fill="#DBAD6C" d="M298.347 103.117s-.3 6.4-2.1 6.4-2.7-3.2-2.7-3.2-.1 4.3-2.4 4.3c-1 0-2.1-3.4-1.9-4 0 0-.4 2.3-1.5 3.2-2.2 1.7-3.5.9-3.6.6 0-.3 1.8-2 2-4.6 0 0 .4.1 1-.6s.7-1.6 1.3-1.5c.5.2 3-1 3-1l1.4-1.7s.2.5 1.2-.2a3.6 3.6 0 0 0 1.3-1.7l2.7 2.3z"/><path fill="#B27129" d="m291.347 97.017 2.7 3.8.6-.5c.4.5.6.9.4 1.2-.4 1-1.3 2.3-.5 3.7 0 0-.3-.8.1-1.8s.7-1.4 1-1.3c.2 0 .6 5.8 1 5.8.3 0 .9-2.7.9-4.5s.3-.3.5 0c.2.4 1.8 3 3.1 2.6 1.4-.4 1.2-2.8 1.2-3.3 0-.6-1-3.7-1-3.7l-6.1-3.9-.5 1.6c-.3 1-3.4.3-3.4.3"/><path fill="#8F4620" d="M299.947 96.417s.4.4 1 1.9.7 6.4-.1 6.4-2.3-1-2.6-1.6c-.3-.7 0-3.1-.4-3.8a8.1 8.1 0 0 1-1.2-2.7l.1-2 1.4-.5z"/><path fill="#4D2A15" d="m299.547 94.917 2.6 3.9 2.3 3.3 1.2.4a2.504 2.504 0 0 1-3.2.5c-.9-.5-.4-2-1.5-4.5-1.2-2.5-3.2-3.6-3.2-3.6l.7-.7z"/><path fill="#1E2121" d="M298.147 92.817s2.3 1.5 3.1 3.2c.9 1.7 1.3 2.7 2.3 4.3s2.1 2.1 2 2.2c0 .1-.7.3-1.2 0a4.7 4.7 0 0 1-1.4-1.6 35 35 0 0 0-2.4-4.2c-.5-.7-2.3-2-2.3-1.9s.5.5 1.5 2.1a7 7 0 0 1 1.2 3.1l-1.1-2c-1-1.5-2.8-3.3-2.9-3-.1.2 1 1.9 1.5 2.9l1.3 3.3-1.8-3c-1-1.5-1.2-1.3-1.6-1.8l-1.4-1.8s1 .3 1.8-.3c1-.6 1.4-1.5 1.4-1.5"/><path fill="#8F4620" d="M292.247 97.117s1.5.3 2.3.2h1.1s.5.6.5 1.4c0 .7-.5 2.1-.8 2.2-.2 0-.2-1.3-.5-1.8z"/><path fill="#B27129" d="M293.047 101.017s.5 1.6.1 3.9c-.4 2.2-1.7 4.6-2 4.6s-.2-2.6-.4-4v-.4l-.5 1.6.4-2.6-.1-.8 1.6-2z"/><path fill="#8F4620" d="M290.247 102.717c-.5.5-1.2.4-1.8.6s-.9 1-.9 1 .5-.3.7-.2c.3.1.5.1.1 1.2-.5 1.1-2.2 3-2.1 3 0 0 2-1.5 2.5-2.5.7-.9.6-1.4.8-1.8 0-.3.8-.7 1-.7.1 0 .5 0 .6.7l.6 2.6.8-2.6c.2-1 .2-2.9.2-2.9l-.6-.1c-.5-.1-1.5-1-1.5-1s.2 2-.5 2.7z"/><path fill="#DBAD6C" d="M298.247 91.217s.6 1.5-.7 2.6c-.4.3-.7.5-1.4.6a4.5 4.5 0 0 1-1.7-.6l-4-1.6-2-.6-1-.3.2-1.1h3l3 1.2 1.3.5 1.1.2h.9l.7-.2.4-.3z"/><path fill="#AB6D29" d="M298.247 91.217c0 .3-.3 1.1-.6 1.3-.3 0-.8.3-2 0-1.1-.2-2.3-1-3.6-1.3-1.3-.4-2.3-.7-3.3-.7s-.5-.4-.5-.4 2.3-.3 4.3.5c2 .7 2.9 1.2 4 1.2 1.4 0 1.7-.6 1.7-.6"/><path fill="#4D2A15" d="M287.547 90.017h.9c.4 0 .7-.3.7-.3s0 .5-.2.7c-.3.2-1 .1-1.2.1z"/><path fill="#DBAD6C" d="M295.247 94.817s1.3 1.3 1 2.4l-2.7-1.2-4.2-1.7-2.3-.7-.3-.4.6-.8.2-.8 2.8.4 3 1z"/><path fill="#DBAD6C" d="M292.347 96.717s2.4 3.1 1.8 4.1l-5.6-3.5-2 3.3-4.7-2.3s3.8-3 4.2-3.5l.5-.7 2 .4 3.4 1z"/><path fill="#AB6D29" d="M290.947 92.017s2 .5 3.3 1.2c1.3.6 3 .8 3 .8s-.6.7-2 .8c-.4 0-1.4-.8-2-1.3-.7-.4-2.6-1-2.6-1z"/><path fill="#4D2A15" d="M287.547 91.017s1.4.3 2.2.7c1 .3 1 .2 1.2.1.3 0 .3-.2.3-.2s.2 1-.5 1-1-.3-1.8-.7c-1-.4-1.5 0-1.5 0v-1z"/><path fill="#AB6D29" d="M295.347 96.417s1 .7.9.9c-.2 0-.7.3-1.6.4a3.4 3.4 0 0 1-2-.4c-.6-.2-1-1.3-2.5-2a18 18 0 0 0-2.8-.9l-1.3-.2 1-.4 3.2.6 2.8.9 1.7.8.6.4zm-5.4 2 .6 2.6-.4 1.5-.8.6-.8-.3-.3-.5s.4-.6 0-1.1c-.3-.6-2-1.2-2-1.2s.7-1.3 1.4-1.6c.8-.3.4-1.2.4-1.2z"/><path fill="#4D2A15" d="M286.747 93.217s.5.4 1.5.5c.5 0 1.3.2 2.2.5l1-.3-.5.4c.9.2 2 .7 2.5.9.75.29 1.431.733 2 1.3l-2-1a17.4 17.4 0 0 0-3-.9c-2-.3-4-.2-4.3-.4-.4 0 .1-.1.4-.3.2-.2.2-.7.2-.7"/><path fill="#AB6D29" d="M293.947 100.217s.7.7 0 .9c-.6.2-2.4.2-3.2-.7l-.6-1.2a14 14 0 0 0-2.4-1.7c-.7-.5.3-.5.3-.5l3.6 1.5c.827.48 1.598 1.05 2.3 1.7"/><path fill="#4D2A15" d="M293.947 100.317s-1.2-1.8-4.9-3.3l1.2-.2h-2a24 24 0 0 0-.8-.3c-2-.6-2-.6-2.2-.8-.1-.3-.4 0-.6.3l-.7 1a5 5 0 0 1 2.5-.1c1.1.3 1 .7 1 1-.1.5-1.4 2-1.3 2.1.2 0 1-1.5 2-1.3 1 .3 1.2.8 1.2.8s0-.6-.2-.8-1.3-1.3-1-1.3 1.6.3 3.3 1.2c1.8.9 2 1.1 2.6 1.7z"/><path fill="#DBAD6C" d="M288.047 97.417s2.8.8 2.7 3.8-2.3 2.4-2.5 1.3c-.2-1 .3.5 1 .4.9-.2 1-1 1-2.2 0-1-.3-1.6-1-2.2a12 12 0 0 0-1.2-1z"/><path fill="#6C3F18" d="M275.947 90.317s.4.2-.4 2.3-1.3 2.8-2.5 4.2c-2.2 2.4-3.2 2.5-3 3.5.3 1 1.1.8 1.3.8s4.3-6 4.3-6l.9-3.5-.2-1-.3-.3z"/><path fill="#DBAD6C" d="M286.047 86.017s1.2 1.8.8 5c-.3 3.4-4.7 6.3-4.7 6.3l-6.4 4.4-2.7-.2h-.8c-.4-.1-.8-.5-.9-.5l-.5-1.2.9-1 2.3-2.3 1.4-2s.7-1.3.8-2.5c0-1.1-.2-1.7-.2-1.7l.5.8.3 1.8-.2 2 1.6-1.2 2.2-1s.7 0 1-1.3c.5-1.2.9-3 .9-3.8l-.1-1.8h.3c.2 0 .7 1.2.7 1.7l.4 2.8 1-1 1-1.5c.2-.5.4-1.3.4-1.8"/><path fill="#904720" d="M286.747 102.617s.5.4.3 1.6-1.1 1.8-1.6 1.8v-1.6l-1.4-1.2-1.5-.4.3-.3c.1-.2 1.7-.8 1.7-.8z"/><path fill="#AB6D29" d="M285.647 102.617s.5.4 1.2.3c.7-.2 1-1.3.6-1.8-.4-.4-.2 1-.7 1.3-.4.1-1-1.2-1.5-1.3-.7-.1-1.6.3-1.9.7-.2.4 1 0 1 0l.7.3h.5z"/><path fill="#904720" d="M276.447 98.017s.8.3 1.7.1l3.1-1 1.8-1.3c.7-.7 3.1-2.2 3.4-5.1.2-3-.4-4.7-.4-4.7s3.5 3.8.5 8.2c-2 2.8-3.8 3.7-3.8 3.7s3.4-1 3.7-.2-.1 2-.2 2.3c0 0 1.9.4 2.2 1.4.1.6-2.2-.7-4-.2-1.8.4-2.5 1.4-2.5 1.4s-.4-.5-2-.5c-1.5 0-2.2.7-3.1.7-1 0-3.7-.6-4.2-1.4l1.8-2.2c.8-1.6 2-1.2 2-1.2"/><path fill="#AB6D29" d="M283.747 90.117s1.3-1.3 1.8-2.3c.4-1 .5-1.8.5-1.8s.2 1-.6 2.3-1.7 2-1.7 2z"/><path fill="#904720" d="M283.347 87.117s1.1 4.4 0 6.1c-1.3 1.8-6.5 4.1-6.5 4.1s4-2.1 5.2-4.6 1.1-4.5 1.1-4.5z"/><path fill="#1E2121" d="M278.147 98.117s1.7 0 2.6-.6c1-.5 2.3-1.7 2.3-1.7s-1.2 1-1.6 1c-.3 0-.6-.5-.5-.9 0 0-.3.8-1 1.4-.8.5-1.8.8-1.8.8m3.9-5.4s1.4-1.4 1.4-4.4-1.2-2.5-1.2-2.5 1 .7.7 3c-.2 2.3-1 4-1 4zm1.7.3s1.6-.3 2.1-1.3.6-2.7.6-2.7-.2 1.7-.7 2.3c-.4.6-2 1.7-2 1.7m-1 9.5s.8-1.5 1.9-1.1c1 .4 1 1.2 1 1.2s-.4-.6-1.2-.7c-.7 0-1.6.6-1.6.6zm-2.9-2.7 3.7-1 3-1s-1.2 1.3-3 2.3c-1.6 1-3 1-3 1s3.2-1.4 3.4-2c0 0-3 .9-4 .7z"/><path fill="#fff" d="M276.147 96.217c.54.392.9.974 1.008 1.627a2.6 2.6 0 0 1-.426 1.887c-.382.56-.964.963-1.629 1.128a2.73 2.73 0 0 1-1.953-.242"/><path fill="#F16E16" d="M276.047 96.517c.391.374.63.874.675 1.412a2.3 2.3 0 0 1-.427 1.531 2.5 2.5 0 0 1-1.33.942 2.45 2.45 0 0 1-1.618-.085"/><path fill="#000" d="M274.947 97.817a.998.998 0 0 1 .982 1.49 1 1 0 0 1-.918.502 1 1 0 0 1-.864-.592"/><path fill="#D5D3CA" d="M275.147 99.017a.3.3 0 0 1-.35.25.305.305 0 0 1-.25-.35.3.3 0 0 1 .3-.3.3.3 0 0 1 .314.254.3.3 0 0 1-.014.146"/><path fill="#AB6D29" d="M276.747 94.617s1.6-1.5 1.9-3.5.1-3.2.1-3.2l.9 1 .3 1.4-.5 2.6 1.6-.8c.6-.8 1.5-4.2 1.2-6.3 0 0 .4 1-.2 3.8-.6 2.9-1 3.2-3.2 4.4a9.6 9.6 0 0 0-3.8 4.2 19 19 0 0 1-2.3 3l1.6-2.6c.8-1.8 1.7-2.8 1.7-2.8z"/><path fill="#904720" d="M276.047 95.817s.7-2 .7-3.1-.7-2.4-.7-2.4 1-.1 1 2.2c.1 2.4-.4 2.6-1 3.3"/><path fill="#4D2A15" d="M279.147 93.217s.7-1.7.7-3c0-1.1-1-2.3-1-2.3s1.1.3 1.2 2.4c.1 2.2-.2 2.2-1 3z"/><path fill="#AB6D29" d="M272.047 101.417s-.6-.8-.5-1.3c0-.6 0-.7 1.4-2.2.98-.868 1.823-1.88 2.5-3 .3-.9 1.5-3 .6-4.6 0 0 .6 2.4-.8 4.3a15.7 15.7 0 0 1-3.3 3.7c-1.1.8-1.3 1.2-1.2 1.7 0 .5.1 1 .3 1 .4.3 1 .3 1 .3z"/><path fill="#6C4119" d="M285.447 106.017s.3 0 .5-.3.2-1-.3-1.6a3.3 3.3 0 0 0-1.7-1.1l-2-.4s.4.8 1.3 1.3c.4.2 1.2 0 1.6.4.5.4.6 1.7.6 1.7"/><path fill="#6C4119" d="M285.447 106.017s1.5-.5 1.6-2l-.1-1.2s.2.5.8.7l.6-.2s-1 2.8-3 2.7z"/><path fill="#BF802D" d="m274.747 105.717.8.8.9 1 3.7-1 1.2-1.2-1-1.6h-2.7l-3 2z"/><path fill="#F9C83A" stroke="#8F4620" stroke-width=".4" d="m283.747 104.417-.7-.9-.7-.6c-.6-.3-2.8-.3-2.8-.3l-1.6.3s-.5.5-1.3.3a22 22 0 0 1-2.6-1l-1.9-.7s-1.3-.6-1.6-.5-1.5 1.3-1.5 1.3-.2.7.3.7c.4 0-.7.2-.7.2s-2.8 1.6-3.2 4.4c-.5 2.7 4.6 6.8 6.5 4.7 0 0-2.8-2-2.2-3.7.5-1.7 1.8-2.8 4-3 2.1 0 2.3-.3 3.2-1 1-.6 2.7-1 4 .3 1.3 1.4-5 2.7-5 2.7l.7 1s7.7-2.7 7-4.1z"/><path fill="#FCF3D8" d="M269.347 111.117s-3.1-.8-2.9-3.7c.3-2.8 3-3.9 3.4-4 .4-.2.3-1.6.8-1.8a2.4 2.4 0 0 1 2 .5l1.4.8s-5.5 2.4-5.5 5.6c0 2.1.8 2.5.8 2.5z"/><path fill="#FDEAAF" d="M283.747 104.217s-.4.2-.5 0c-.6-1-2-1.4-3-1.3-1.5 0-2.4.5-3.4.5s-.7-.1-1.8-.2c-1.1 0-3.5-1.8-4-1.6-.6.2-.8.8-.8 1.1.1.4-1 .4-1 .1-.2-.2.7-1.7 1.7-1.7 2.6 0 4.6 1.7 5.8 1.7 1.3 0 1.7-.7 3.4-.7s3.5.8 3.6 2z"/><path fill="#513625" d="M275.147 106.217s1.3-.2 2.2-.6l2.2-.8-2 1.2-2 .5z"/><path fill="#F9C83A" d="M270.747 112.717c-.2 0-1.3 0-3-1.1-1.8-1.2-2.3-3.2-2.3-3.2s-.4-1.9 1.4-3.8 2.1-1.3 2.2-1.2c.1 0 0 .1 0 .1l-1.7 1.3-.7 1.3-.7 1.2v1.4l.8 1.5 2.5 1.5z"/><path fill="#8B5122" d="M269.747 101.817v-.2l-.3.2h.2v-.2h-.2a.3.3 0 0 0 0 .2l.2-.2-.2-.1-.1.1a5 5 0 0 0-.4.5l-.2.6v.1c0 .3.2.5.4.6h1.4a.3.3 0 0 0 .1-.4.304.304 0 0 0-.3-.2l-.7.1a.8.8 0 0 1-.3 0v-.2a.5.5 0 0 1 0-.2q.126-.264.3-.5l.2-.1zm0 0 .1-.2a.304.304 0 0 0-.3-.2.305.305 0 0 0-.2.3.296.296 0 0 0 .3.2z"/><path fill="#F9C83A" d="m275.047 104.517-3.8 1.1c-.3.2 1.2 0 2.4 0l1.3.1.9-.2c1.4-.5 4.4-1.6 4.7-.3.2 1-4.1 2-4.1 2v.5l3.4-.9 1.9-1 .5-.9-1.7-1.2h-2.6l-1.2.3z"/><path fill="#8F4620" d="M269.647 109.917c.3.8.9 2 1.6 2.3 0 .1-.5.5-1.7.1-1.2-.3-3-.7-4.1-4v.7l.7 1.3 1.1 1.2 1.9 1.1 1.2.3 1-.2.6-.4-1.1-1-1.4-2.3z"/><path fill="#FCCA3D" d="M282.047 143.017v1.2h-.7v-1.5zm-4.7-34.4-1.2-1.4-.8.1 1.2 1.8z"/><path fill="#816C2A" d="m281.947 145.917-1.7-1a10 10 0 0 0-2.4-.6v.3h.2l2.1.6q.884.441 1.7 1zm0-3.1h-3c-.473.15-.914.388-1.3.7l.1.2a3.8 3.8 0 0 1 2.6-.7q.702.028 1.4.1v-.3zm-.4-2.7-2.6 1.4-1.6 1.2.2.2.5-.4a16.5 16.5 0 0 1 2.6-1.6l1-.5zm-1.7-2.7s0 .7-.3 1.2a9 9 0 0 1-.6.8 85 85 0 0 1-2.5 2.6l.2.3q1.261-1.34 2.5-2.7l.7-.8c.3-.6.3-1.3.3-1.4zm-2.1-1.2a4.2 4.2 0 0 1-.2 2.2l-1 2.2-.4.9-.2.3.2.2s1.3-2.2 1.7-3.5c.2-.5.2-1 .2-1.5a4 4 0 0 0 0-.9zm-2.1-.3q-.04.6 0 1.2c0 .6 0 1.2-.2 1.7l-.7 1.8-.3 1 .3.1 1-2.8c.2-.5.2-1.2.2-1.8v-1.2zm-1.6 0v1.2l-.3 2a52 52 0 0 0-.5 2.5h.3l.2-.8.3-1.7c.3-1 .3-3.2.3-3.2zm-1.8.3a13 13 0 0 0 0 2.9 14 14 0 0 0-.4 2.5h.3q.138-1.211.4-2.4l.1-1.4v-1.6zm-1.3.2v.2a9 9 0 0 1-.3 2.2l-.6 1.9-.2 1h.3l.8-2.9a9 9 0 0 0 .3-2.2v-.2zm-1.6 0v.7c0 .6 0 1.4-.4 2a5.5 5.5 0 0 1-1.3 1.6 10 10 0 0 1-.7.4l-.2.2.1.3s1.7-1 2.4-2.3c.4-.7.5-1.6.5-2.2v-.7zm-.9-.3v.2a6.7 6.7 0 0 1-1 1.9c-.3.4-.9.8-1.3 1.1q-.39.266-.8.5l.2.3s1.4-.8 2.1-1.7a8 8 0 0 0 1.1-2.2h-.3zm-1.5-.7v.1a6.2 6.2 0 0 1-1 1.3c-.1.2-.5.4-.9.6l-.6.4.1.3.7-.4 1-.7.7-.9.3-.6zm-.7-1-.3.3-.9 1q-.24.212-.5.4l-.4.3.1.3.7-.4c.7-.6 1.5-1.7 1.5-1.7zm-.4-.6-.2.2-.9.6a2 2 0 0 1-.8.3v.4l.6-.3c.7-.3 1.5-1 1.5-1zm-.2-.7-.8.4-.6.3a2 2 0 0 1-.4.2v.3c.2 0 .3 0 .5-.2l1.4-.7zm-.4-1.3-.5.5-.9.3v.3a2 2 0 0 0 1.2-.5q.267-.179.5-.4zm.1-2.2-.6.5c-.3.3-.6.6-.7 1a1 1 0 0 1-.1 0v.5l.2-.2a.8.8 0 0 0 .2-.2c0-.2.4-.6.7-.9a8 8 0 0 1 .5-.5zm10.7-12.8h1.6l.1-.2v-.1h-.1v.3-.1h-.2v-.2l.1.1v-.1h-1.5zm0-1h.2c.2 0 .4 0 .6-.2.4-.1.7-.4 1-.6l.5-.3a.8.8 0 0 1 .3 0v-.4l-.6.2-1 .7-.8.3zm0-1.5.7-.2 1.2-.8c.4-.3.7-.4 1-.4v-.3c-.3 0-.5 0-.8.2l-1.2.7a3 3 0 0 1-1 .5v.3zm-.6-1.4 1.5-1 1.6-1.2-.1-.3-1.7 1.2c-.5.5-1.1.9-1.5 1l.2.4zm-1-1.5 3.2-2.3-.2-.3-3.2 2.3zm-1.5-1.6a20.7 20.7 0 0 1 3.4-2.3l-.2-.2-1.5 1-1.9 1.3zm-1-1q1.289-.917 2.6-1.8l.8-.5-.1-.3q-.416.225-.8.5-1.365.98-2.7 2z"/><path fill="#78732E" d="m274.447 105.817.1.1a17 17 0 0 1 2.5 2.5c1 1.2 1.8 2.7 1.8 4.1v.5a9.5 9.5 0 0 1-2.5 5c-2 2.3-4.8 4.4-7 6.4a18 18 0 0 0-3 3.1 6.1 6.1 0 0 0-1.2 3.7 6.4 6.4 0 0 0 1.1 3.4 4.4 4.4 0 0 0 3.9 2c1.8 0 3.8-.7 5.6-.7 1.6 0 3 .4 4.4 1.9 1.3 1.4 1.7 3.6 1.7 5.7 0 1.6-.2 3-.4 4.2a25 25 0 0 1-.4 1.8h.3s.8-2.8.8-6c0-2.1-.4-4.5-1.8-6a5.79 5.79 0 0 0-4.6-1.9c-1.9 0-3.9.6-5.6.6a4.006 4.006 0 0 1-3.6-1.8 6 6 0 0 1-1-3.3v-.1c0-1.6.7-3 1.9-4.3 1.8-2 4.5-4 7-6.2 2.3-2.2 4.4-4.5 4.7-7.5v-.5c0-1.8-1.1-3.5-2.3-4.8a17 17 0 0 0-2.3-2.2z"/><path fill="#A8AC71" d="m272.047 108.817-.4-.3-.3.1.6.5zm1 1-.3-.3h-.1l.2.4z"/><path fill="#78732E" d="m274.447 111.417-.2-.4-.2.2zm1 1.5-.1-.3h-.3l.4.5zm.7 1.5-.2-.4v.4zm0 1.5v-.4l-.2-.1v.5zm0 1v-.5l-.1-.1v.6zm-12.2 14.6.1-.7c.1-.3-.3.1-.3.1v.5z"/><path fill="#fff" d="m263.947 132.517-.3.1.1.5.1-.2z"/><path fill="#78732E" d="M263.947 134.317v-.4h-.2v.6z"/><path fill="#fff" d="M263.947 135.317v-.4h-.1v.4zm.3 1.4v-.4l-.2.1zm.4 1.4-.1-.5h-.2l.2.6z"/><path fill="#A8AC71" d="m265.547 140.117-.2-.3h-.2zm1.5 1.4-.5-.3c-.3-.3-.1.2-.1.2l.4.2zm9.8.8-.4-.3c-.2 0 0 0 .2.4.1.3.2-.1.2-.1"/><path fill="#fff" d="m277.647 142.917-.3-.3v.3h.3"/><path fill="#A8AC71" d="M277.847 143.417c-.1-.2-.2.1-.2.1l.2.3zm0 1.3v-.5c0-.2-.1 0-.1 0v.5z"/><path fill="#fff" d="m277.347 146.117.2-.4h-.2zm-14.8-52s.5-.2.1.4l.3-.5h-.5z"/><path fill="#F9C83A" d="m274.547 105.417.4.3h-.5z"/><path fill="#8F4620" d="m274.947 105.717-.7.1c-.2 0 .2-.2.2-.2l.4.1z"/><path fill="#977C2E" d="M280.947 149.517s.3 0 .5-.3-.1.4-.1.4l-.3.1-.2-.2z"/></g><defs><radialGradient id="b" cx="0" cy="0" r="1" gradientTransform="rotate(22.953 -269.979 756.171)scale(3.78179 3.78427)" gradientUnits="userSpaceOnUse"><stop stop-color="#fff"/><stop offset="1" stop-color="#F15770"/></radialGradient><radialGradient id="c" cx="0" cy="0" r="1" gradientTransform="rotate(-95.271 193.516 -36.69)scale(3.75012 3.48078)" gradientUnits="userSpaceOnUse"><stop stop-color="#fff"/><stop offset="1" stop-color="#F15770"/></radialGradient><radialGradient id="d" cx="0" cy="0" r="1" gradientTransform="rotate(50.043 -14.422 454.088)scale(1.95319 3.83488)" gradientUnits="userSpaceOnUse"><stop stop-color="#fff"/><stop offset="1" stop-color="#F15770"/></radialGradient><clipPath id="a"><path fill="#fff" d="M0 0h600v300H0z"/></clipPath></defs></svg>