<svg xmlns="http://www.w3.org/2000/svg" width="600" height="300" fill="none"><g clip-path="url(#a)"><path fill="#fff" d="M0 0h600v300H0z"/><path fill="#6797D6" d="M0 0h600v300H0z"/><path fill="#fff" fill-rule="evenodd" d="M300.025 82.197 283.717 93.39l6.241-18.098-16.359-11.192h20.185L300.025 46l6.242 18.149h20.134l-16.309 11.142 6.242 18.098m-16.309 123.414-16.308-11.192 6.241 18.149-16.359 11.141h20.185L300.025 253l6.242-18.149 20.134.05-16.309-11.192 6.242-18.098m-94.831-46.583-12.332 15.427.705-19.157L191 149.399l19.329-5.898.654-19.158 11.225 15.528 19.328-5.949-12.382 15.477 11.275 15.477m138.018-5.898 12.382 15.477-.705-19.157L409 149.399l-19.329-5.898-.654-19.158-11.225 15.528-19.328-5.949 12.382 15.477-11.275 15.477" clip-rule="evenodd"/></g><defs><clipPath id="a"><path fill="#fff" d="M0 0h600v300H0z"/></clipPath></defs></svg>