<svg xmlns="http://www.w3.org/2000/svg" width="600" height="300" fill="none"><g clip-path="url(#a)"><path fill="#00319C" fill-rule="evenodd" d="M0 0h199.969v300H0z" clip-rule="evenodd"/><path fill="#FFDE00" fill-rule="evenodd" d="M199.969 0h200.062v300H199.969z" clip-rule="evenodd"/><path fill="#DE2110" fill-rule="evenodd" d="M400.031 0H600v300H400.031z" clip-rule="evenodd"/><path fill="#FF1900" fill-rule="evenodd" d="m334.697 223.299 20.257 29.297c1.172 1.674 2.26 3.264.586 4.353s-1.172 5.357 0 7.031c2.26 3.264 5.022 3.767 6.696 2.678l15.402-9.709c1.674-1.005 2.26-3.767 0-7.032-1.256-1.674-5.022-3.766-6.696-2.678-1.758 1.088-2.93-.586-4.018-2.177l-20.341-29.296" clip-rule="evenodd"/><path stroke="#000" stroke-width=".586" d="m334.697 223.299 20.257 29.297c1.172 1.674 2.26 3.264.586 4.353s-1.172 5.357 0 7.031c2.26 3.264 5.022 3.767 6.696 2.678l15.402-9.709c1.674-1.005 2.26-3.767 0-7.032-1.256-1.674-5.022-3.766-6.696-2.678-1.758 1.088-2.93-.586-4.018-2.177l-20.341-29.296"/><path fill="#A77B3B" fill-rule="evenodd" stroke="#000" stroke-width="1.41" d="M342.647 202.648c9.06 10.291 12.211 22.09 7.048 26.241s-16.79-.836-25.85-11.126c-9.06-10.291-12.167-22.126-7.003-26.277s16.752.794 25.849 11.127z" clip-rule="evenodd"/><path fill="#FF1900" fill-rule="evenodd" d="m252.33 211.33-17.997 30.72c-1.004 1.674-2.009 3.348-3.767 2.511-1.757-1.005-5.524 1.423-6.529 3.181-2.009 3.348-1.255 6.026.586 7.031l16.072 8.538c1.674.921 4.52.167 6.529-3.181.92-1.841 1.172-6.11-.586-7.031s-.837-2.679.251-4.353l17.913-30.72" clip-rule="evenodd"/><path stroke="#000" stroke-width=".586" d="m252.33 211.33-17.997 30.72c-1.004 1.674-2.009 3.348-3.767 2.511-1.757-1.005-5.524 1.423-6.529 3.181-2.009 3.348-1.255 6.026.586 7.031l16.072 8.538c1.674.921 4.52.167 6.529-3.181.92-1.841 1.172-6.11-.586-7.031s-.837-2.679.251-4.353l17.913-30.72"/><path fill="#A77B3B" fill-rule="evenodd" stroke="#000" stroke-width="1.423" d="M310.254 189.985h-16.406c-.502.502-5.19 29.799-10.212 41.016-6.11 13.644-24.442 25.697-24.442 25.697s10.966 3.348 14.23 5.525c.837-.251 18.415-3.934 20.424-25.363 2.009 21.429-12.221 31.222-12.221 31.222s20.424 5.859 20.424 19.503c0-13.644 20.424-19.503 20.424-19.503s-10.212-9.793-12.304-31.222c4.185 21.429 19.67 25.112 20.507 25.363 3.265-2.177 14.23-5.525 14.23-5.525s-18.331-12.053-24.442-25.697c-5.022-11.217-9.71-40.514-10.212-41.016Zm-69.475-97.684 30.636 9.794c10.128 0 20.424-9.794 20.424-19.587.335-21.763-8.203-29.297-10.212-29.297l4.018-3.85-6.111-5.86s2.093-10.128 22.517-9.793c20.424.418 20.424 9.793 20.424 19.503s-10.212 9.794-10.212 29.297c0 9.793 10.212 19.587 20.424 19.587l30.636-9.794v97.684H240.695z" clip-rule="evenodd"/><path stroke="#000" stroke-width=".117" d="m287.723 96.211 2.037 5.873 2.052-5.873 2.037 5.873 4.089-5.873 1.996 6.186 2.093-6.186 3.014 6.186 3.112-6.186 2.038 5.873 2.051-5.873"/><path stroke="#000" stroke-width=".113" d="m295.921 74.76-4.095 21.495m6.114-21.494v21.494m4.095-21.494v21.494m4.095-21.494 2.019 21.494m2.076-21.494 2.019 21.494"/><path fill="#A77B3B" fill-rule="evenodd" stroke="#000" stroke-width="1.41" d="M220.24 33.756c-20.418 9.755-20.418 29.32-20.418 39.075.692 8.874 0 195.269 0 195.269s1.327-11.023 10.209-19.51l10.151-9.756 10.209-9.755c7.498-6.503 10.209-19.565 10.209-29.32V63.076s0-9.81-20.418-29.32z" clip-rule="evenodd"/><path stroke="#000" stroke-width="1.41" d="M240.658 72.83c-.231 0-10.209-9.755-10.209-9.755l-10.208 9.755-10.209-9.755-10.209 9.755M240.658 82.56c-.231 0-10.209 9.755-10.209 9.755l-10.208-9.755-10.209 9.755-10.209-9.755M240.658 111.837c-.231 0-10.209-9.755-10.209-9.755l-10.208 9.755-10.209-9.755-10.209 9.755"/><path stroke="#000" stroke-width="1.941" d="m230.334 63.05.115 166.037"/><path stroke="#000" stroke-width="1.839" d="m220.289 72.81.115 165.633"/><path stroke="#000" stroke-width="1.947" d="m210.076 63.095.115 185.546"/><path fill="#A77B3B" fill-rule="evenodd" stroke="#000" stroke-width="1.41" d="M383.78 33.756c20.418 9.755 20.418 29.32 20.418 39.075-.693 8.874 0 195.269 0 195.269s-1.327-11.023-10.209-19.51l-10.151-9.756-10.209-9.755c-7.498-6.503-10.209-19.565-10.209-29.32V63.076s0-9.81 20.418-29.32z" clip-rule="evenodd"/><path stroke="#000" stroke-width="1.41" d="M363.361 72.83c.231 0 10.209-9.755 10.209-9.755l10.209 9.755 10.209-9.755 10.209 9.755M363.361 82.56c.231 0 10.209 9.755 10.209 9.755l10.209-9.755 10.209 9.755 10.209-9.755M363.361 111.837c.231 0 10.209-9.755 10.209-9.755l10.209 9.755 10.209-9.755 10.209 9.755"/><path stroke="#000" stroke-width="1.941" d="m373.686 63.05-.116 166.037"/><path stroke="#000" stroke-width="1.839" d="m383.815 72.81-.116 165.633"/><path stroke="#000" stroke-width="1.947" d="m394.025 63.095-.115 185.546"/><path fill="#A77B3B" fill-rule="evenodd" stroke="#000" stroke-width="1.41" d="M275.162 208.625c-5.413 12.413-14.939 20.502-21.168 18.022s-6.925-14.639-1.513-27.052c5.413-12.413 14.992-20.481 21.221-18.001s6.948 14.588 1.513 27.052z" clip-rule="evenodd"/><path fill="red" fill-rule="evenodd" d="M240.695 102.095h122.628v58.593H240.695z" clip-rule="evenodd"/><path fill="#564DFF" fill-rule="evenodd" d="M240.695 160.687h122.628v29.297c0 19.503-30.636 19.503-61.272 39.007-30.72-19.42-61.44-19.42-61.44-39.007z" clip-rule="evenodd"/><path stroke="#FF0" stroke-width="1.128" d="M240.725 102.096h122.621v87.962c0 19.511-30.627 19.511-61.311 39.076-30.626-19.565-61.31-19.565-61.31-39.131v-87.907Z"/><path fill="#FF0" fill-rule="evenodd" stroke="#000" stroke-width=".808" d="M279.527 105.996s-20.429 14.363-20.429 28.104c0 13.742 21.438 18.349 21.438 18.349s-7.146 0-7.146 18.322c0 9.187 21.439 4.607 21.439 9.187 0 4.581-.283 15.657 0 22.929 0 4.581-14.293 0-14.293 4.581 0 2.277 10.74 13.741 21.48 13.741s21.438-11.464 21.438-13.741c0-4.581-14.292 0-14.292-4.581v-22.929c0-4.58 21.439 0 21.439-9.187 0-18.322-7.147-18.322-7.147-18.322s21.479-4.581 21.479-18.349c0-13.767-20.469-28.104-20.469-28.104s11.506 18.943 11.506 28.104c0 4.581-5.369 13.768-19.662 13.768 0 0-3.634-4.606-7.146 0 0 0-4.118-4.606-7.146 0-1.05 1.553-2.907-4.606-7.187 0-1.777 1.216-3.23-4.606-7.146 0-7.147 0-21.439-4.606-21.439-13.768 0-9.161 13.283-28.104 13.283-28.104Z" clip-rule="evenodd"/><path fill="#FF0" fill-rule="evenodd" stroke="#000" stroke-width=".808" d="M279.945 188.039c-1.453.931 1.858 15.864 2.827 16.511 1.453.905 10.053.905 11.466 0 1.009-.647 0-14.674-1.413-15.58-1.454-.931-11.87-1.552-12.92-.931zM324.156 188.039c1.454.931-1.857 15.864-2.826 16.511-1.454.905-10.053.905-11.466 0-1.01-.647 0-14.674 1.413-15.58 1.453-.931 11.87-1.552 12.919-.931z" clip-rule="evenodd"/><path fill="#FF0" fill-rule="evenodd" stroke="#000" stroke-width=".967" d="M294.647 182.592c0 1.369-.782 2.682-2.175 3.65s-3.281 1.512-5.25 1.512-3.858-.544-5.25-1.512c-1.393-.968-2.175-2.281-2.175-3.65s.782-2.682 2.175-3.65 3.281-1.512 5.25-1.512 3.858.544 5.25 1.512c1.393.968 2.175 2.281 2.175 3.65ZM324.198 182.595c0 1.369-.782 2.682-2.175 3.65s-3.281 1.512-5.25 1.512-3.858-.544-5.251-1.512c-1.392-.968-2.174-2.281-2.174-3.65s.782-2.682 2.174-3.65c1.393-.968 3.282-1.512 5.251-1.512s3.858.544 5.25 1.512c1.393.968 2.175 2.281 2.175 3.65Z" clip-rule="evenodd"/><path fill="#000" fill-rule="evenodd" d="M314.941 212.5c0 1.256-1.674 2.26-3.599 2.26-2.009 0-3.599-1.004-3.599-2.26s1.674-2.26 3.599-2.26 3.599 1.005 3.599 2.26m-18.666 0c0 1.256-1.59 2.26-3.516 2.26-2.008 0-3.599-1.004-3.599-2.26s1.591-2.26 3.599-2.26c1.926 0 3.516 1.005 3.516 2.26" clip-rule="evenodd"/><path fill="#FF0" fill-rule="evenodd" stroke="#000" stroke-width=".605" d="m302.041 139.261-4.389-5.538-7.203.914 1.013-6.883-5.796-4.14 5.796-4.194-1.013-6.882 7.203.967 4.389-5.538 4.389 5.538 7.146-.967-.956 6.882 5.739 4.194-5.739 4.194.956 6.829-7.202-.914z" clip-rule="evenodd"/><path fill="#FF0" fill-rule="evenodd" stroke="#000" stroke-width=".62" d="m332.662 160.683 12.285 5.897 12.285-5.897-12.285-5.843zM244.771 160.683l12.286 5.897 12.285-5.897-12.285-5.843zM351.622 195.63c-3.761-2.385-10.097-1.196-13.648.752-3.552 1.949-7.103 3.898-7.58 10.96-4.079-6.786-.867-13.062 4.535-16.026a13.65 13.65 0 0 1 9.224-.842c3.079.803 5.746 2.654 7.498 5.203zM267.24 184.121a3.8 3.8 0 0 1-1.191 2.748 4.17 4.17 0 0 1-2.875 1.138 4.17 4.17 0 0 1-2.876-1.138 3.8 3.8 0 0 1-1.191-2.748 3.8 3.8 0 0 1 1.191-2.747 4.16 4.16 0 0 1 2.876-1.138c1.078 0 2.112.409 2.875 1.138a3.8 3.8 0 0 1 1.191 2.747ZM263.138 197.767c0 1.03-.428 2.018-1.191 2.747a4.16 4.16 0 0 1-2.875 1.138 4.16 4.16 0 0 1-2.875-1.138 3.8 3.8 0 0 1-1.191-2.747 3.8 3.8 0 0 1 1.191-2.748 4.16 4.16 0 0 1 2.875-1.138 4.16 4.16 0 0 1 2.875 1.138 3.8 3.8 0 0 1 1.191 2.748ZM261.129 189.981a3.8 3.8 0 0 1-1.191 2.748 4.16 4.16 0 0 1-2.876 1.138 4.16 4.16 0 0 1-2.875-1.138 3.8 3.8 0 0 1-1.191-2.748c0-1.03.428-2.018 1.191-2.747a4.16 4.16 0 0 1 2.875-1.138c1.079 0 2.113.409 2.876 1.138a3.8 3.8 0 0 1 1.191 2.747ZM271.341 197.767c0 1.03-.428 2.018-1.191 2.747a4.16 4.16 0 0 1-2.875 1.138 4.16 4.16 0 0 1-2.875-1.138 3.8 3.8 0 0 1-1.191-2.747 3.8 3.8 0 0 1 1.191-2.748 4.16 4.16 0 0 1 2.875-1.138 4.16 4.16 0 0 1 2.875 1.138 3.8 3.8 0 0 1 1.191 2.748ZM273.349 189.981a3.8 3.8 0 0 1-1.191 2.748 4.16 4.16 0 0 1-2.875 1.138 4.16 4.16 0 0 1-2.875-1.138 3.8 3.8 0 0 1-1.191-2.748c0-1.03.428-2.018 1.191-2.747a4.16 4.16 0 0 1 2.875-1.138c1.078 0 2.113.409 2.875 1.138a3.8 3.8 0 0 1 1.191 2.747Z" clip-rule="evenodd"/><path fill="#FF0" fill-rule="evenodd" stroke="#000" stroke-width=".62" d="M267.24 191.907a3.8 3.8 0 0 1-1.191 2.748 4.16 4.16 0 0 1-2.875 1.138 4.16 4.16 0 0 1-2.876-1.138 3.8 3.8 0 0 1-1.191-2.748c0-1.03.429-2.018 1.191-2.747a4.16 4.16 0 0 1 2.876-1.138c1.078 0 2.112.409 2.875 1.138a3.8 3.8 0 0 1 1.191 2.747Z" clip-rule="evenodd"/><path fill="#DA4500" fill-rule="evenodd" d="M282.297 55.89c-10.38 0-11.719 1.674-16.406 3.265 0-4.52 11.551-9.794 21.763-9.794 0 3.265-2.679 6.53-5.357 6.53" clip-rule="evenodd"/><path fill="#CAC9C7" fill-rule="evenodd" d="M297.949 45.51c0 2.093-1.841 3.85-4.101 3.85s-4.102-1.757-4.102-3.934c0-2.176 1.842-3.85 4.102-3.85s4.101 1.674 4.101 3.85z" clip-rule="evenodd"/><path fill="#FF0" fill-rule="evenodd" stroke="#000" stroke-width=".62" d="M255.027 31.826v5.842h10.209v29.266h6.172V37.668h10.208v-5.842h-10.208V24h-6.23v7.826z" clip-rule="evenodd"/><path fill="#DA4500" fill-rule="evenodd" d="M287.737 49.361a65.7 65.7 0 0 0-24.526 3.265c0-6.027 7.031-13.058 19.085-13.058 2.678 0 5.441 6.529 5.441 9.793" clip-rule="evenodd"/><path fill="#008500" fill-rule="evenodd" stroke="#000" stroke-width=".215" d="M181.398 153.063c-2.942-6.34-2.873-8.364 2.36-1.109l63.033 119.5-1.929.544-63.431-118.91z" clip-rule="evenodd"/><path fill="#008F00" fill-rule="evenodd" d="M224.206 231.672c.669-8.873-15.57-18.415-16.239-17.829-.586.669 1.004 5.859 4.101 8.454-5.859-3.013-12.053-4.855-12.221-3.599-.502 1.841 9.208 6.026 10.045 7.7 0 1.172-7.199 1.005-7.031 2.177.167 1.172 20.34 11.384 21.345 3.097m-16.239-25.781c.669-8.873-15.569-18.415-16.155-17.829-.67.585.92 5.775 4.018 8.454-5.86-3.014-12.054-4.939-12.221-3.6-.419 1.758 9.207 6.027 10.044 7.701.084 1.172-7.115 1.005-7.031 2.177.167 1.171 20.34 11.3 21.345 3.097m-12.389-23.438c.67-8.872-15.569-18.415-16.238-17.829-.586.586 1.004 5.776 4.101 8.454-5.859-3.013-12.053-4.938-12.221-3.599-.418 1.758 9.208 6.027 10.045 7.701 0 1.172-7.115 1.004-7.031 2.176.167 1.172 20.34 11.384 21.344 3.097m-12.221-25.446c.586-8.789-15.569-18.415-16.238-17.829-.67.669 1.004 5.859 4.018 8.538-5.86-3.097-12.054-4.939-12.138-3.6-.502 1.758 9.208 6.027 9.961 7.618.084 1.171-7.115 1.088-6.947 2.26.083 1.171 20.256 11.3 21.344 3.013" clip-rule="evenodd"/><path fill="#008F00" fill-rule="evenodd" d="M187.543 155.919c7.868-4.771 6.278-22.935 5.441-23.103-.921-.084-4.353 4.185-4.771 8.203-.921-6.361-3.014-12.221-4.186-11.551-1.757.67.335 10.63-.586 12.221-.837.837-5.022-4.855-5.859-4.018-1.004.837 2.344 22.349 10.045 18.248zm11.384 22.265c9.04-2.009 13.979-19.587 13.142-20.005-.838-.419-5.525 2.511-7.283 6.194 1.339-6.278 1.423-12.472 0-12.221-1.925.084-3.348 10.128-4.771 11.3-1.088.502-3.097-6.11-4.185-5.692-1.172.502-5.525 21.847 3.097 20.424m13.56 22.768c8.287-4.018 8.371-22.265 7.534-22.433-.838-.251-4.604 3.767-5.441 7.701-.335-6.445-1.842-12.388-3.097-11.802-1.842.502-.67 10.546-1.674 12.053-1.005.753-4.604-5.273-5.609-4.52-1.004.67.335 22.433 8.371 19.001zm14.732 29.799c8.622-3.264 10.714-21.345 9.877-21.68-.837-.251-5.022 3.349-6.278 7.199.335-6.445-.502-12.556-1.841-12.053-1.925.334-1.758 10.463-2.93 11.886-1.088.586-4.018-5.692-5.022-5.023-1.088.503-2.093 22.35 6.194 19.671" clip-rule="evenodd"/><path fill="#FF1900" fill-rule="evenodd" stroke="#000" stroke-width=".62" d="M246.206 261.808c-2.193 3.753-9.129 4.093-15.575.654s-9.783-9.259-7.59-13.013 9.179-4.066 15.575-.654 9.783 9.259 7.59 13.013Z" clip-rule="evenodd"/><path fill="#FF0" fill-rule="evenodd" stroke="#000" stroke-width=".215" d="m412.64 136.085 1.085-2.801 2.923.921 1.086-2.801 2.923.921-1.07 2.761 3.006.947-1.1 2.84-3.007-.947-2.705 6.983-2.923-.92 2.705-6.983zm-6.278 24.67 2.923.92-31.41 81.071-2.923-.921z" clip-rule="evenodd"/><path fill="#FF0" fill-rule="evenodd" stroke="#000" stroke-width=".215" d="m373.985 239.971 5.93 1.867-8.666 22.369-5.93-1.868zm34.866-94.102 8.895 2.801c5.887 1.854-7.465 14.912-7.465 14.912l-5.888-1.854s-1.472-17.726 4.458-15.859Zm8.175.184c-.459 1.184-2.12 1.723-3.749 1.21-1.628-.513-2.598-1.88-2.154-3.024s2.12-1.723 3.748-1.21 2.598 1.88 2.14 3.064z" clip-rule="evenodd"/><path fill="#FF1900" fill-rule="evenodd" stroke="#000" stroke-width=".62" d="M378.742 251.591c2.485 3.584-.382 9.629-6.537 13.524s-13.099 4.059-15.583.475.431-9.66 6.538-13.525 13.098-4.058 15.582-.474Z" clip-rule="evenodd"/></g><defs><clipPath id="a"><path fill="#fff" d="M0 0h600v300H0z"/></clipPath></defs></svg>