<svg xmlns="http://www.w3.org/2000/svg" width="600" height="300" fill="none"><g clip-path="url(#a)"><path fill="#DA2032" d="M0 0h600v300H0z"/><path fill="#0066B3" d="M199.969 0h200.062v300H199.969z"/><path fill="#DA2032" d="M99.988 190.21c3.766 0 6.818-2.036 6.818-4.546s-3.052-4.545-6.818-4.545-6.818 2.035-6.818 4.545 3.052 4.546 6.818 4.546M99.988 214.3c3.766 0 6.818-2.035 6.818-4.545s-3.052-4.546-6.818-4.546-6.818 2.036-6.818 4.546 3.052 4.545 6.818 4.545"/><path fill="#DA2032" d="M99.988 172.255c5.335 0 10.45 1.413 14.223 3.928 3.772 2.514 5.891 5.925 5.891 9.481s-2.119 6.967-5.891 9.482c-3.773 2.514-8.888 3.927-14.223 3.927-4.25 0-8.325 1.126-11.33 3.129s-4.693 4.72-4.693 7.553 1.688 5.55 4.693 7.553 7.08 3.129 11.33 3.129v2.727c-5.334 0-10.45-1.413-14.222-3.927s-5.892-5.926-5.892-9.482 2.12-6.967 5.892-9.482 8.888-3.927 14.222-3.927c4.25 0 8.325-1.125 11.33-3.129s4.693-4.72 4.693-7.553-1.688-5.55-4.693-7.553-7.08-3.129-11.33-3.129z"/><path fill="#FFD900" d="M96.779 129.238c16.141 0 29.226-13.085 29.226-29.226S112.92 70.785 96.779 70.785c-16.142 0-29.227 13.086-29.227 29.227s13.085 29.226 29.227 29.226"/><path fill="#DA2032" d="M96.779 118.571c17.594 0 31.857-14.263 31.857-31.857s-14.263-31.857-31.857-31.857S64.922 69.12 64.922 86.714s14.263 31.857 31.857 31.857"/><path fill="#FFD900" d="M96.779 113.31c11.743 0 21.262-9.519 21.262-21.262s-9.519-21.263-21.262-21.263-21.262 9.52-21.262 21.263 9.52 21.262 21.262 21.262M98.97 23a6.36 6.36 0 0 0-3.799 5.48c-.146 1.827.658 3.872.731 5.626 0 3.069-3.142 4.092-3.142 8.403 0 1.461 1.388 3.142 1.388 7.014-.292 2.046-1.461 2.557-2.703 2.703a2.63 2.63 0 0 1-2.63-2.703 2.63 2.63 0 0 1 .73-1.827q.138-.12.293-.219c.584-.657 1.46-.877 1.46-2.484 0-.804-.584-1.608-1.095-3.069-.512-1.461-.146-3.8 1.023-5.187-1.9.73-2.996 2.484-3.654 4.091-.584 1.973 0 3.069-.876 4.75-.512 1.022-1.096 1.46-1.68 2.338-.732 1.023-1.462 3.215-1.462 4.31a13.299 13.299 0 0 0 26.523 0c0-1.096-.804-3.287-1.461-4.31-.658-.877-1.243-1.316-1.754-2.338-.877-1.681-.292-2.777-.95-4.75-.584-1.607-1.68-3.36-3.58-4.092 1.169 1.462 1.461 3.8 1.023 5.188-.512 1.462-1.023 2.192-1.023 3.069 0 1.607.804 1.827 1.461 2.484q.116.103.219.22c.471.49.733 1.146.731 1.826a2.62 2.62 0 0 1-.744 1.907 2.63 2.63 0 0 1-1.886.797c-1.462-.22-2.558-.877-2.704-2.704 0-5.115 2.192-5.407 2.192-9.206 0-5.407-4.822-7.965-4.822-11.91 0-1.315.292-3.653 2.192-5.407M38.327 134.499h26.523V262H38.326zm90.31 0h26.596V262h-26.596zm-58.453 0h53.119l-26.523 15.929zm0 21.189h53.119v10.668h-53.12zm0 74.455h53.119v10.668h-53.12zm0 15.929h53.119L96.779 262zM96.779 224.954c14.688 0 26.596-11.907 26.596-26.596s-11.908-26.596-26.596-26.596-26.596 11.908-26.596 26.596 11.907 26.596 26.596 26.596"/></g><defs><clipPath id="a"><path fill="#fff" d="M0 0h600v300H0z"/></clipPath></defs></svg>