<svg xmlns="http://www.w3.org/2000/svg" width="600" height="300" fill="none"><g clip-path="url(#a)"><path fill="#fff" d="M0 0h600v300H0z"/><path fill="#012169" d="M0 0h600v300H0z"/><path fill="#fff" d="M366.198 81H502l-.198 99.234c1.123 39.816-23.063 64.574-67.604 75.766-31.654-8.14-68.066-24.758-68.198-74.612z"/><path fill="#00A2BD" stroke="#000" stroke-width="1.8" d="M369.171 83.985h129.788l-.132 95.097c1.058 38.188-22.072 61.86-64.63 72.577-30.266-7.733-65.092-23.74-65.158-71.492z"/><path fill="#A53D08" d="M497.969 190.341c-4.758 36.425-32.116 52.365-63.77 60.843-28.086-7.732-58.286-20.077-64.101-60.707z"/><path fill="#000" d="m429.044 101.688-.198-11.938 9.252.068.066 11.87h25.244l.066 9.292-25.31.136-.198 109.477-8.988.068-.132-109.681-25.112.136v-9.496z"/><path fill="#FF9A08" fill-rule="evenodd" stroke="#000" stroke-width=".8" d="m408.557 194.818 23.129 24.622c7.996-9.021 2.445-42.733-8.062-48.905-1.256 4.002-3.37 8.818-5.683 10.31-4.956 3.527-17.248 7.597-13.151 10.174.925-1.288 3.37-2.509 4.56.407 1.322 4.681-5.155 4.952-5.155 4.952s-4.097-.543-4.824-4.748c-.661-4.341 6.146-8.275 6.741-8.547.528-.203 9.45-2.713 10.97-10.785 1.916-8.003 3.833-6.782 4.163-6.918 11.697 1.153 19.296 22.587 19.759 37.645.396 15.058-5.948 25.097-7.137 25.775-1.124.611-27.755-32.49-27.755-32.49z" clip-rule="evenodd"/><path fill="#FF9A08" d="m425.475 171.892.132 44.428zm-2.643.881.198 40.291zm-2.776 5.834.132 32.015zm-2.313 2.238.132 26.521zm-2.445 1.221v22.384zm-2.643 1.764v17.703zm-2.313 1.424v13.566z"/><path stroke="#000" stroke-width=".8" d="m425.475 171.892.132 44.428m-2.775-43.547.198 40.291m-2.974-34.457.132 32.015m-2.445-29.777.132 26.521m-2.577-25.3v22.384m-2.643-20.62v17.703m-2.313-16.279v13.566"/><path stroke="#FFDF00" stroke-linecap="round" stroke-width=".8" d="m408.227 197.667 23.79 27.945"/><path stroke="#FFDF00" stroke-linecap="round" stroke-width="1.4" d="M433.206 180.031s10.838 24.215.793 44.089m-28.548-31.608s.793-2.103 1.784-1.221m-3.634-4.952s-4.362 3.866-1.983 6.444"/><path fill="#008021" stroke="#000" stroke-width=".3" d="M438.296 124.682c1.52-1.356 2.379-2.238 3.37-2.035.992.136 2.313 0 3.305-.271a20 20 0 0 1 7.93-.271c.661.135 1.652.474 3.04 1.695 1.387 1.221 3.436 3.392 2.775 9.225s-.463 8.343-.793 11.667c-.529 5.765-1.784 10.513-3.965 10.174 2.974 5.427 3.304 10.175 5.287 13.905 1.982 3.731 3.172 11.396 2.445 19.671-.793 8.343-2.908 26.928 3.502 39.477-1.057.746-3.634 0-5.947-2.51s-3.304-2.442-5.155-.95c-5.815 4.545-11.234 10.039-19.23 4.545-1.85-1.221-2.379-2.713-1.057-6.58 3.304-9.496 4.956-22.655 4.427-28.759z"/><path fill="#FFE1CF" stroke="#000" stroke-width=".3" d="M443.779 118.849a6.67 6.67 0 0 1-.066 4.612 6.25 6.25 0 0 0 .331 5.698c1.784-2.713 4.361-2.17 5.947-3.663 1.454-1.56 1.784-3.052 2.908-3.391-1.124-1.018-2.842-2.171-2.511-5.087.396-2.985 4.427-5.427.793-9.904a5.3 5.3 0 0 0-2.065-1.644 5.16 5.16 0 0 0-5.043.464 5.4 5.4 0 0 0-1.748 1.994c-.198.543.133 1.628-.462 2.307a5.3 5.3 0 0 1-1.388 1.356c-.33.272-.529.611-.132 1.085.132.204.396.204.661.272l-.529 1.017c-.198.204-.132.407.132.679-.33.881.265 1.017-.132 1.695-.396.611-.793 1.357.397 2.035.396.204 1.982.543 2.907.475ZM428.91 134.45c-2.114.542-5.551-.407-8.128-.136-1.189.136-2.114-.475-1.982-1.628.198-1.153.396-2.984.132-4.612a21.9 21.9 0 0 1 2.511-10.039 22.8 22.8 0 0 0 2.511-7.868c0-1.289.132-2.646 1.19-3.392.793-.474.925-.949 1.189-1.356.661-1.018 1.322-1.221 1.322-.679.066.34 0 .679-.331 1.086.661-.543 1.851-1.221 2.115-1.357.264-.271 1.586-1.221 1.652-.271.529-.272.925-.272 1.058 0 .132.339 0 .475-.199.678.397 0 .793.611 0 1.221.463-.136.859.543.133 1.153-.661.678-1.587 1.085-1.785 1.628-.264.543-2.114 1.967-2.841 2.238-.727.34-.793.747-.793 1.832 0 12.073-1.322 11.056-1.322 14.041 0 .678-.198 1.424.529 1.22a9.7 9.7 0 0 1 3.039-.61v6.851Zm.463 25.911c3.436-1.764 7.401-2.442 9.45-2.985a40.7 40.7 0 0 0 6.873-2.984c1.652-.882 2.973-2.035 3.899-2.374a4.33 4.33 0 0 0 2.511-2.171 34.84 34.84 0 0 0 4.56-14.787c0-2.713-.661-5.833-3.305-3.663a20.1 20.1 0 0 0-5.815 8.954c-1.057 4.341-1.982 5.358-2.181 6.172-.264.882-1.057.882-2.114 1.086a17.45 17.45 0 0 0-8.988 4.341 89.5 89.5 0 0 1-9.384 6.24c-2.445 1.424-2.907 1.56-3.436 2.713-.529 1.086-1.057 2.035-1.454 2.442-.528.543-.661 1.085-.528 1.764.066.542-.133 2.848-.199 3.662 0 .814.199.95.463 1.018.264 0 .661-.136.859-1.085-.132.949 1.123.678 1.189-.068 0 1.017 1.322.407 1.322-.543 0 .678 1.124.204 1.124 0 .264-.882.462-1.696.793-2.306.396-.95.859-2.171 1.784-2.713.991-.814.528-1.628 2.577-2.713Zm24.715 64.098c.199.882.661 1.832.793 2.442.132.543-.132.746-.264 1.086a22.6 22.6 0 0 0-1.85 5.969c0 .814-.661 1.627-.859 2.17-.331.543-.199 1.018.528 1.56.265.204 1.322-.135 1.388-.678.463.407 1.057.271 1.388-.339.396.339.991.135 1.321-.475.331.203.86-.204 1.058-.543.528.272 1.057 0 1.057-1.085 0-.271.198-.678.331-.882.132-.271.198-.746.198-1.153 0-.475.198-1.356.595-1.899.396-.678.991-1.696.726-2.713-.264-.95-.66-.882-.991-2.171-.859-.949-1.982-2.17-3.172-2.306-1.189 0-1.85.746-2.247 1.017Zm-21.741 6.716c1.123 1.085 3.502 1.085 5.154-.679-.594-.271-1.982-.949-2.511-1.356a8.2 8.2 0 0 1-2.643 2.035Z"/><path fill="#870F00" stroke="#000" stroke-width=".3" d="M443.186 106.775c.396-2.713 2.312-2.713 3.502-2.374.529.068 1.718.204 2.908-.135 2.247-.611 3.965.203 3.7 2.441.661.475 1.322 1.56 1.124 2.51-.066.95.132 1.357.925 1.425.859.135 2.643 1.22 1.454 2.713 1.123.678 1.982 2.509 1.388 3.662-.595 1.221-2.379 1.425-3.172.34-.86.407-2.181.474-3.04-.407-.595.678-1.983.61-2.313 0-.265-.679-.661-.95-1.256-1.153s-.661-1.9.264-2.103c-.066-.543 0-1.085.199-1.357.198-.271 0-.814-.529-1.221-.529-.474-.991-2.035-.463-2.984-.925.339-2.907-.611-3.304-1.221-.462-.678-1.057-.678-1.387-.136Z"/><path stroke="#000" stroke-width=".3" d="M443.779 118.849c1.454-.203 1.983-1.085 3.04-1.085m-6.212-3.188.331.203c.264.204.661.272.925.272m-.859-2.103.661.407m2.775-6.58c-.859-.881 1.454-2.577 3.965-.135.529.542 1.652.542 1.983.407m-2.511 1.085c1.189-.271 2.841-.271 3.37 1.085.529 1.357 1.52.407 2.313 2.035.793 1.56 1.982 3.256 3.304 2.035m-4.89 3.663a2.8 2.8 0 0 1-.355-1.057 2.8 2.8 0 0 1 .09-1.114c-.462-.542-.264-1.695 0-2.238m-3.039 1.153c0 .475.66 1.357 1.586 1.492m4.758 2.171c-.529-.678-.463-1.357-.331-2.171"/><path stroke="#000" stroke-width=".3" d="M449.464 109.489c0 .746.396 1.695 1.057 2.035a2.47 2.47 0 0 0 2.511 1.356m.264-6.104a7.13 7.13 0 0 0-3.436-1.764m-5.815 24.147c-1.322 1.832-2.115 4.341-1.586 7.868.661 3.528 1.586 8.683-.859 10.989m12.291 6.851c-1.718-.475-4.229-.475-5.617.61-1.322 1.018-3.701 1.085-5.221.271"/><path stroke="#000" stroke-width=".3" d="M450.19 154.663c-1.52.271-2.181 1.424-2.181 4.341 0 2.849-.661 7.054-.132 11.26m-.397-14.312c-1.057.271-2.115.271-1.85 3.052m-3.37 0c.066-1.628.66-3.256 1.718-2.917m9.317 3.324c0-3.798-.793-4.816-1.85-4.748 1.454 0 2.445.204 3.106 6.24.397 4.613 1.322 6.105 2.445 9.768 2.71 9.225 1.322 23.401 2.71 28.488m-8.525-38.663a49.63 49.63 0 0 1-.265 33.44c3.172 9.089 6.344 15.669 6.939 19.4m-15.794-32.559c.529-1.967-1.454-2.17.265-9.021.727-2.984.859-4.748.396-5.698"/><path stroke="#000" stroke-width=".3" d="M442.722 170.128c-.66 2.985 2.181 8.682.793 12.888m-3.634.746c0 2.713.595 6.105.462 8.818-.132 2.645.926 3.866 2.115 6.376 4.494 9.089 7.401 15.533 7.071 24.079-.132 1.628.397 4.884-1.189 5.833m-8.327 2.307c.463 0 .925-.272 1.52-1.628a45 45 0 0 0 1.586-15.601m.925 6.512c.264 1.763.264 5.426-.859 8.41"/><path stroke="#000" stroke-width=".3" d="M446.952 215.099c.66 3.798.66 7.258.066 9.7m-1.586 0c.132 1.492.793 5.426-.331 5.765m6.08-23.944c2.842 4.545 5.022 15.737 7.401 18.043m-5.022-1.764c0-1.221-.066-2.984-.793-3.798m-29.672-51.008c.066-.814-.066-1.628.859-2.984m-2.18 3.527c.132-2.985.066-3.256.925-4.07m-2.115 4.138c0-2.171-.198-2.917.661-4.274m9.847-60.232-2.974 2.306m3.833-1.628c-.331 0-1.388.95-3.305 2.442m3.371-1.221c-.661.271-1.719 1.357-2.776 2.171m-1.916-2.375-1.058 1.086m27.557 130.029c-.132-.136-.132-.882.198-1.628m1.256 1.289c-.264-.204 0-1.153.132-1.764m1.124 1.289c-.265-.136-.331-.678 0-1.357m.991.814c-.132 0-.198-.407.066-1.221"/><path fill="#000" d="M442.591 109.285c.528.678 1.123.678 1.189 1.085.132.543.198.543.264.679.133.135-.264.135-.396 0h-.925c-.265 0-.529-.34-.397-.34.198-.067.198-.135.132-.271 0-.203.133-.407.265-.475l-.066-.203c-.133-.204-.199-.679-.066-.543zm.33-.746a4.2 4.2 0 0 1 2.247 1.085c.462.543.066.407-.132.407-.199 0-.661-.136-.926-.407a3 3 0 0 0-1.255-.814c-.198 0-.397-.271 0-.271z"/><g clip-path="url(#b)"><path fill="#fff" d="M0 0h300v150H0z"/><path fill="#012169" d="M0 0v150h300V0z"/><path fill="#000" d="m0 0 300 150Zm300 0L0 150Z"/><path stroke="#fff" stroke-width="30" d="m0 0 300 150m0-150L0 150"/><mask id="c" width="300" height="150" x="0" y="0" maskUnits="userSpaceOnUse" style="mask-type:luminance"><path fill="#fff" d="M150 75h150v75zm0 0v75H0zm0 0H0V0zm0 0V0h150z"/></mask><g mask="url(#c)"><path fill="#000" d="m0 0 300 150Zm300 0L0 150Z"/><path stroke="#C8102E" stroke-width="20" d="m0 0 300 150m0-150L0 150"/></g><path fill="#000" d="M150 0v150ZM0 75h300Z"/><path stroke="#fff" stroke-width="50" d="M150 0v150M0 75h300"/><path fill="#000" d="M150 0v150ZM0 75h300Z"/><path stroke="#C8102E" stroke-width="30" d="M150 0v150M0 75h300"/></g></g><defs><clipPath id="a"><path fill="#fff" d="M0 0h600v300H0z"/></clipPath><clipPath id="b"><path fill="#fff" d="M0 0h300v150H0z"/></clipPath></defs></svg>