<svg xmlns="http://www.w3.org/2000/svg" width="600" height="300" fill="none"><g clip-path="url(#a)"><path fill="#D3AE3B" d="M0 0h600v300H0z"/><path fill="#C40308" d="M15 15h570v270H15z"/><path fill="#B96B29" d="M364.408 147.06a35.7 35.7 0 0 0 11.922-5.654c4.302-3.442 5.101-6.207 5.408-7.682.369-1.475.492-2.643-.614-1.844-1.107.861-4.364 3.442-6.576 4.671-2.274 1.229-4.302 1.843-5.531 2.212-1.229.307-2.212.553-1.045.062 1.229-.431 4.978-1.783 7.989-4.732 2.889-2.95 5.224-7.375 5.286-10.079 0-2.704-.185-2.458-1.045-1.844-.861.676-3.933 4.486-5.715 5.961a55 55 0 0 1-5.962 4.241c-1.413.799-3.38 1.721-.614-.185 2.765-1.843 7.989-6.329 10.14-12.106a21.75 21.75 0 0 0 1.659-9.71c0-.615-.491-1.721-.983-.676s-3.995 7.989-6.76 11.062c-2.827 2.95-2.151 2.397-2.827 2.888-.615.492-1.659 1.352-.307-.369a31.46 31.46 0 0 0 7.497-19.481c0-2.212-.922-5.285-1.352-6.207s-.86-1.598-1.045-.553c-.996 3.827-2.186 7.601-3.564 11.308a46 46 0 0 1-4.117 7.866c-.492.676-1.721 2.212-.369-.307a47.6 47.6 0 0 0 4.302-16.962 27.05 27.05 0 0 0-1.598-12.844c-.983-1.905-1.844-2.58-1.844-2.58s.185 4.793-1.229 11.676c-1.413 6.882-3.503 10.447-3.503 10.447s-.922 1.045-.307-.615a38.35 38.35 0 0 0 .86-21.202c-1.413-4.609-3.81-6.944-3.81-6.944-.615 6.576-.553 15.056-2.95 21.94-.43-.43-1.045-1.168-1.29.368a38.8 38.8 0 0 1-4.302 11.922c-2.95 5.408-4.179 6.146-4.179 6.146l-.922-2.09c-.369-.737-.615-1.106-1.106-.123s-2.151 4.794-5.777 8.973-5.654 6.268-5.531 9.403c.062 3.072 1.721 4.732 3.933 6.145 2.213 1.413 2.581 2.212 2.274 3.933-.369 1.721-2.335 2.274-4.056 2.335-1.659.062-3.81-.061-4.609.369-.738.43-.799 1.537-1.598 2.274-.737.799-1.106 1.229-1.844 1.352l-.614.061c-.123-8.296 3.073-11.983 3.073-11.983l-8.973-10.509q-.668.323-1.352.614a2.4 2.4 0 0 0-.246-.368 6.76 6.76 0 0 1-1.597-4.794c.43 0 1.352.369 2.151.185.798-.123.184-.984 0-1.721-.308-.799-.554-3.503-.369-4.486l.246-1.414s1.29 1.414 2.089 1.414.738-.799.86-1.721c.185-1.352.799-3.073 1.844-3.995 0 0 1.475.984 3.073.984s3.81-.431 5.531-2.151c1.843-1.66 1.782-2.028 1.782-2.028s3.257 1.106 5.715 1.229 5.101-.246 6.392-2.889c1.229-2.581-.369-5.039-.615-5.408-.369-.43-1.168-.737-1.168 0 0 .738.062 2.704-1.475 3.688-1.474.983-2.642.922-4.056.491a12.6 12.6 0 0 0-8.05-.245 10.45 10.45 0 0 1 3.749-2.582c1.843-.553 2.949.246 3.564.984.615.737 1.168 1.843 1.659.184.492-1.721.185-3.687-.614-4.916a4.67 4.67 0 0 0-4.425-1.844c-1.844.123-2.458.43-2.458.43s-.922-2.642-3.257-3.073a12.9 12.9 0 0 0-8.604 1.844s-1.905.43-3.933-.123a13 13 0 0 1-3.319-1.72l.676-2.151 1.168-.37c.614-.245.43-.43.553-.921.061-.492-1.106-1.352-1.106-1.352s-.185-1.536 1.782-2.52l1.721-.86s1.167.184 1.598-.123c.491-.369.491-.614.491-.614s.861-.246 1.229-.738a2.88 2.88 0 0 0 .123-1.905c-.246-.615-.553-.738-.246-1.045s.615-.983.615-1.475l.061-.614s.676-.246.615-1.23c0-1.044-.553-1.413-.86-1.536l-.553-.061s0-.615-.554-1.414c-.491-.86-.86-1.229-.86-1.229s.369-.246.184-.922c-.184-.676-.676-1.044-1.167-1.229-.43-.123-.922 0-.922 0l-2.274-1.29-.922-.492s0-.615-.246-.983c-.307-.307-.921-.492-1.229-.492-.307 0-.614.184-.614.184l-3.687-.86c-1.107-.123-1.168-.246-1.168-.246s-2.335-1.106-3.196-1.229l-1.229-.307s.983-1.106 1.045-2.458a3.69 3.69 0 0 0-1.721-3.073l-.983-.492v-.798l1.721.184.123-2.827-1.66.184.246-1.659h-3.564l.245 1.66-1.72-.124.184 2.766 1.844-.246-.246 1.045s-.615.123-1.229.553a3.32 3.32 0 0 0-1.598 2.888c0 1.352.799 2.458.799 2.458l-1.106.246c-.922.185-3.257 1.29-3.257 1.29s0 .124-1.107.247l-3.687.86s-.369-.184-.614-.184c-.246 0-.984.184-1.23.491-.245.369-.307.983-.307.983l-.86.492-2.274 1.29s-.492-.122-.983 0c-.43.185-.922.615-1.106 1.23-.185.676.184.983.184.983s-.369.307-.922 1.168c-.28.427-.469.909-.553 1.413l-.492.062c-.368.123-.921.491-.921 1.536 0 .983.614 1.23.614 1.23v.614c.062.491.369 1.229.676 1.475.307.307 0 .43-.184 1.044-.246.615-.185 1.352.123 1.844.307.615 1.229.86 1.229.86s0 .185.43.553c.43.37 1.598.123 1.598.123l1.782.86c1.966.984 1.782 2.459 1.782 2.459s-1.229.922-1.106 1.413c.061.492 0 .676.553.922l1.168.369.614 2.15a13 13 0 0 1-3.318 1.722c-1.967.553-3.933.123-3.933.123a12.9 12.9 0 0 0-8.543-1.844c-2.335.43-3.318 3.073-3.318 3.073s-.615-.246-2.458-.492c-1.844-.184-3.565.614-4.364 1.844-.86 1.29-1.106 3.257-.614 4.977.491 1.721.983.554 1.597-.184.615-.737 1.721-1.536 3.565-.983 1.844.614 3.687 2.458 3.81 2.581 0 0-.307-.184-2.397-.492-2.273-.307-4.24.246-5.653.738-1.414.43-2.582.491-4.118-.492-1.475-.983-1.475-2.95-1.475-3.687 0-.738-.799-.43-1.106 0-.246.369-1.844 2.827-.615 5.408 1.229 2.642 3.872 3.073 6.392 2.888 2.458-.123 5.715-1.229 5.715-1.229s0 .369 1.721 2.028a7.99 7.99 0 0 0 5.531 2.151c1.659 0 3.072-.983 3.072-.983 1.045.922 1.66 2.642 1.844 3.994.123.922.062 1.721.86 1.721.861 0 2.151-1.413 2.151-1.413l.246 1.413a16 16 0 0 1-.369 4.486c-.245.738-.86 1.598 0 1.721.799.184 1.66-.123 2.151-.184 0 1.966-.43 3.257-1.597 4.793a2.6 2.6 0 0 0-.246.369q-.683-.292-1.352-.615l-8.973 10.509s3.257 3.687 3.073 12.045a13 13 0 0 1-.615-.123c-.737-.122-1.106-.614-1.843-1.352-.799-.737-.861-1.843-1.598-2.273-.799-.492-2.95-.308-4.609-.369-1.721 0-3.687-.615-4.056-2.335-.307-1.721.061-2.459 2.274-3.934 2.212-1.413 3.871-3.072 3.933-6.145.123-3.134-1.844-5.224-5.531-9.403-3.626-4.179-5.285-7.989-5.777-8.972s-.737-.615-1.106.123l-.922 2.028s-1.229-.738-4.179-6.146a38.7 38.7 0 0 1-4.302-11.86c-.246-1.537-.86-.8-1.229-.37-2.458-6.882-2.335-15.363-3.011-21.939 0 0-2.397 2.336-3.81 6.945-1.229 4.179-1.229 9.157-.799 13.52.369 4.117 1.229 6.576 1.659 7.682.615 1.659-.307.614-.307.614s-2.09-3.564-3.503-10.447-1.229-11.677-1.229-11.677-.861.615-1.844 2.582a27.05 27.05 0 0 0-1.598 12.905 47.6 47.6 0 0 0 4.302 16.9c1.352 2.459.123.984-.369.308a43.6 43.6 0 0 1-4.117-7.867c-1.229-3.38-3.442-10.201-3.564-11.307-.185-1.045-.615-.37-1.045.553-.43.922-1.414 3.994-1.352 6.268a31.46 31.46 0 0 0 7.497 19.42c1.352 1.721.308.86-.307.369-.615-.492 0 .061-2.765-2.889a56.3 56.3 0 0 1-6.76-11.062c-.554-1.044-.984.062-1.045.676-.062.615-.43 3.995 1.659 9.71 2.151 5.777 7.375 10.263 10.14 12.107 2.766 1.905.799.983-.614.184a55 55 0 0 1-5.962-4.24c-1.782-1.475-4.854-5.285-5.715-5.961-.86-.615-1.045-.861-1.045 1.843.062 2.704 2.397 7.129 5.347 10.079s6.76 4.302 7.928 4.732c1.167.492.184.246-1.045-.061a24.7 24.7 0 0 1-5.531-2.213 57 57 0 0 1-6.576-4.67c-1.106-.861-.983.368-.614 1.843.307 1.475 1.167 4.241 5.408 7.682a35.5 35.5 0 0 0 11.922 5.654c1.782.492.553.492.553.492l-4.179-.861a43.8 43.8 0 0 1-10.263-4.486c-1.413-.922-1.659-1.229-1.475.615a12.29 12.29 0 0 0 5.47 7.927 30.5 30.5 0 0 0 10.57 2.95c1.536.062 1.106.246.43.307a31 31 0 0 1-11.799-1.966l-.307-1.229c-.123-.738-.553-.615-.738-.492-.246.184-.43.307-1.229.676-.799.43-.799-.061-.86-.307l-.185-1.844c0-.491-.307-.553-.676-.369l-2.888 1.23c-.615.245 0 .798.307 1.413q.453.804.922 1.598l-2.274.614c-.491.123-.369.492-.184.861l1.167 2.827c.185.491.676.184.676.184l1.66-.983.614 2.274s-.799.184-1.659.737c-.799.615-.614 1.414.43 1.659.984.308 2.213.861 3.503 3.257 1.352 2.397 1.659 6.699 2.458 13.521.861 6.76 5.163 10.201 5.777 10.631.615.43.246.799.246.799s-.615.861-.307 2.151a3.26 3.26 0 0 0 1.966 2.335c.615.185.43.799.43.799s-.307 1.414 0 4.118c.308 2.642 2.459 5.592 3.073 6.145.615.492.615.738.615.984-.123.184-.553 0-1.229.614a7.5 7.5 0 0 0-2.09 2.212c-.491.984-.307 1.537-.123 2.766.123 1.29 2.028 2.458 2.028 2.458s-.368.062-.43 1.045c-.061.922.615 1.966 1.475 2.704.799.614 2.458.983 2.458.983l.185 1.352c.122.615 1.167 1.168 1.843 1.537.676.368 2.028.184 2.581-.123.553-.246.922.061 1.229.614.369.615.246 2.704.246 3.565s-.491 1.72-.246 2.15c.308.431 1.107.123 1.967-.307.799-.491.983-.123 1.721.307a5.5 5.5 0 0 0 2.151.861c.307 0 .184-.799.184-1.414s.123-2.089.43-2.335c.123-.123 1.414-.184 2.335-.614.431-.185 1.045-.369 1.045-.799.062-.431-.614-.431-1.966-1.168-1.414-.676-1.66-1.106-2.581-1.721-.861-.614-.431-.799-.431-1.106 0-.246.431-.553.615-.86.123-.369 0-1.107 0-1.107l1.106-1.106 1.229-1.413c.492-.369 1.229-2.213 1.659-2.766.492-.614 1.537-1.229 2.213-2.089a18.25 18.25 0 0 1 6.944-4.671s-.061 1.598.615 2.397 1.598-.614 4.609-2.765c3.073-2.151 5.285-2.889 5.285-2.889l1.475 2.028c.799.984 1.536-.061 5.224-5.223 2.949-3.995 6.76-7.744 8.296-9.096l.799.369-.246.615c-.307 1.106-.86 1.843-1.598 3.257-.676 1.475-1.843 1.843-3.072 3.81-1.23 1.966-1.475 3.38-1.598 5.408s1.044 2.458 1.044 2.458-1.843 1.844-2.458 3.196c-.553 1.352-.799 4.117-.799 4.117s-.307.123-.983 1.537-1.905 1.597-3.687 3.38c-1.844 1.843-3.81 2.581-4.732 3.072-.922.615-.615 1.168-.43 1.844.245.737 1.536 1.475 3.072 2.028 1.414.553 1.967.307 2.95.307 1.045-.061.246.738-.184 1.168s-.983 1.905-.922 3.564c.123 1.66 1.352 1.229 2.888.984a17 17 0 0 0 3.257-.984l-.122.492c-.185.43-.246.799-.246 2.089s.184 1.967.614 2.274c.308.369 1.106-.368 1.66-.553.553-.123 1.474-.676 2.826-.983s1.844-.922 1.844-.922-.307.43-.369 1.352c-.123.983-.061 2.335.123 3.196a5.8 5.8 0 0 0 1.783 2.581c.921.86 1.106.491 1.843-.615.615-1.044 2.028-2.396 2.028-2.396l1.045 3.38c.922 3.011 3.994 5.53 3.994 5.53s3.073-2.519 3.995-5.53l.983-3.38s1.414 1.352 2.09 2.458c.676 1.044.922 1.413 1.843.614a5.77 5.77 0 0 0 1.721-2.642c.185-.861.246-2.213.185-3.196-.123-.922-.431-1.352-.431-1.352s.492.615 1.844.922 2.335.86 2.888.983c.554.185 1.291.922 1.66.615.368-.369.614-1.045.614-2.336s-.061-1.659-.246-2.089l-.184-.492s1.782.738 3.319.984c1.536.307 2.765.614 2.827-.984a6.15 6.15 0 0 0-.861-3.564c-.43-.43-1.229-1.229-.246-1.229 1.045.061 1.537.307 3.073-.246 1.414-.615 2.704-1.291 2.95-2.028.246-.676.553-1.229-.43-1.844-.922-.491-2.889-1.229-4.671-3.072-1.843-1.783-3.073-1.967-3.687-3.38-.676-1.414-.983-1.537-.983-1.537s-.308-2.765-.861-4.117c-.614-1.352-2.458-3.196-2.458-3.196s1.229-.43 1.045-2.458c-.123-2.028-.308-3.38-1.537-5.408-1.29-1.967-2.458-2.335-3.072-3.81-.799-1.475-1.352-2.151-1.66-3.196l-.245-.615q.55-.25 1.106-.491c1.475 1.352 5.346 5.039 8.296 9.095 3.687 5.162 4.425 6.207 5.224 5.162l1.475-1.966s2.274.737 5.285 2.888c3.073 2.151 3.933 3.503 4.609 2.704.369-.369.492-1.045.492-1.598a64 64 0 0 1 7.251 2.581c2.643 1.107 2.889 1.721 4.978 3.319 2.09 1.659 5.039 1.536 7.866.615a187 187 0 0 0 13.275-4.61c3.011-1.229 5.162-2.458 5.531-3.011.245-.614.614-2.274.614-2.888 0-.615-.614-1.475-.86-1.66-.246-.122-.123-.614-.062-.983 0-.369-.184-1.536-.614-2.028-.492-.491-.43-.676-.369-2.151.123-3.072-2.089-7.006-5.162-8.235 0 0-.123-.368-.369-.614l-.614-.369v-2.151c0-.369.122-.307.368-.246.185.123.553.553 1.045.676s.799-.246.922-.799c.123-.614.491-1.72.737-2.273.185-.615-.061-.615-.307-.738l-1.352-.246c-.369-.061-.369-.123-.246-.307l.615-1.229c.491-.615.061-.676-.369-.86a36 36 0 0 0-3.011-.799c-.553-.123-.615.368-.615.614v1.598c0 .369-.307.246-.553.184a8 8 0 0 1-1.045-.737c-.43-.246-.614 0-.799.43l-.798 2.643c-.123.553-.062.921.122.983.185.123 1.23 0 1.844 0 .553 0 .184.369.184.369l-.798 1.413c-.246.43-.615.492-1.107.492h-1.229s-3.257.123-5.654 1.843c-2.396 1.721-3.072 3.258-3.441 4.118s-.799.676-1.168.983-1.413 1.414-1.413 2.09.246 1.044-.799 1.72-1.844 3.626-.492 5.101c1.414 1.537 1.967 3.073 2.458 3.81.369.738 0 1.045-.43 1.045s-1.106-.614-1.782-1.106l-5.224-3.995c-1.413-1.044-.368-.922-.368-.922s.368 0 1.167-.307c.799-.369.922-.799.123-1.045a10.3 10.3 0 0 1-2.827-1.597c-.43-.431-.614-.861.185-1.291s2.581-1.598 1.229-1.966c-1.475-.431-3.073-.676-4.486-1.107-1.352-.368-1.475-.737-1.475-.737l.921-1.291s.676-1.044-.122-1.167c-.861-.123-2.95-.369-4.794-1.229a11.56 11.56 0 0 1-6.944-7.682v-.062c.737 1.352 2.335 3.933 4.793 3.995 3.38.123 3.749-.922 3.011-2.028-.798-1.106-1.659-2.09-1.843-2.458-.246-.308-.307-.738.614.123.861.798 2.459 3.625 7.559 3.318 5.04-.369 5.04-1.352 5.04-1.598 0-.983-1.045-1.167-1.66-1.782-.307-.307-.491-.737.553-.369 1.045.369 3.503.861 6.945.123 1.29-.307 4.916-1.843 5.223-3.687 0 0-2.273-.123-3.871-.799-1.537-.614-2.458-1.229-.799-.86 1.659.307 4.916.983 7.805 0 1.659-.553 3.81-1.844 3.81-4.364 0 0-3.073-.614-4.24-1.106-1.168-.369-1.537-.737-1.537-.737s4.486 1.413 8.481-.615c4.056-2.028 4.24-4.855 4.24-5.531 0-.614-.123-.799-.123-.799s-3.687.861-6.391.861c-2.765 0-3.626-.246-3.626-.246s7.682-.246 11.554-2.581c3.871-2.397 4.117-7.068 4.117-7.068s-4.363 1.598-7.129 1.906-4.424.307-5.1.245c-.676 0-1.106-.245.43-.307a30.1 30.1 0 0 0 10.57-2.95c3.257-1.905 5.285-5.961 5.47-7.866s0-1.598-1.475-.615c-1.414.861-6.76 3.626-10.263 4.425l-4.179.861s-1.352-.062.43-.553zm-138.397 8.849-1.536.86-.799-1.659c-.123-.369-.061-.492.123-.492l1.413-.245h.185c.184.43.369.983.676 1.475zm47.198 27.655a12.36 12.36 0 0 1-5.408 4.302c-1.844.86-3.872 1.106-4.732 1.229s-.123 1.229-.123 1.229l.86 1.229s-.123.369-1.475.799c-1.352.369-3.073.614-4.425 1.045-1.413.368.369 1.536 1.23 1.966.737.43.614.922.122 1.291-.43.43-1.966 1.352-2.826 1.597-.799.246-.615.676.122 1.045.861.307 3.073.738 3.073.738l-1.413 1.106a11.6 11.6 0 0 1-5.347 1.844c-1.536.061-4.056.184-7.19 0l-3.564-.185-.308-2.642a13.2 13.2 0 0 0-1.843-4.794l-2.274-3.073.123-.921c.123-.492 0-1.045-.308-2.029-.368-.921-2.212-2.335-2.212-2.335l-.123-1.966c0-.984-.614-4.732-1.229-6.515-.614-1.782-3.503-6.452-4.793-8.603a24.1 24.1 0 0 1-2.643-12.168l.307-.799a7.9 7.9 0 0 0 2.151 1.966c3.872 2.336 11.554 2.581 11.554 2.581s-.861.246-3.626.246c-2.766 0-6.391-.86-6.391-.86s-.123.184-.123.86c0 .615.184 3.442 4.24 5.531 3.995 1.967 8.481.615 8.481.615s-.369.307-1.537.676c-1.106.43-4.301 1.106-4.301 1.106 0 2.458 2.212 3.81 3.871 4.425 2.889.922 6.146.246 7.805-.062 1.721-.368.738.185-.799.861-1.598.676-3.872.799-3.872.799.369 1.843 3.934 3.38 5.286 3.687 3.38.737 5.899.246 6.883-.123 1.044-.369.86.061.553.369-.615.614-1.66.799-1.66 1.782 0 .246 0 1.229 5.04 1.598 5.039.307 6.76-2.459 7.62-3.319s.799-.43.615-.061c-.246.307-1.107 1.29-1.844 2.458-.799 1.045-.43 2.089 2.95 1.966 2.458 0 4.056-2.704 4.793-4.056v.062l.185.184a32 32 0 0 1-1.475 3.257zm40.806-109.513-.676-1.23s1.843.861 3.073 2.152c1.106 1.229 1.044 1.966 1.229 2.581.184.614 0 1.782-.185 2.888-.184 1.045-.184 1.721.062 2.09.184.43.43.614.43.614l-1.659.492c-.799.369-1.844.615-2.459.123-.553-.492-.676-.799-.307-1.106s1.721-.738 1.844-3.073c.184-2.274-.922-4.67-1.352-5.531m-10.447 6.33c.491-1.106.614-2.151.307-4.425-.246-1.905-.615-3.503-.738-5.53 0 0 1.414.245 3.442 2.089s2.458 3.748 2.458 4.67-.43 2.09-.553 2.95c0 .922.246 1.72.246 1.72s-.676.308-1.352.8c-.676.43-1.168.737-2.151.614-1.045 0-1.659-.43-2.274-.737l-.922-.369s1.168-.676 1.598-1.844zm-9.833-7.866a8.6 8.6 0 0 1 3.441-2.151c-.061 2.09-.43 3.687-.737 5.53-.308 2.336-.185 3.38.307 4.487.43 1.106 1.598 1.782 1.598 1.782s-.369 0-.983.369c-.615.307-1.23.737-2.213.799-1.045 0-1.475-.246-2.151-.676a8.6 8.6 0 0 0-1.413-.8s.307-.798.246-1.659c-.062-.921-.615-2.028-.615-2.95.062-.983.492-2.826 2.52-4.731m-7.252 11.246c-.615.492-1.659.246-2.458-.123l-1.598-.492s.184-.184.369-.614c.246-.369.246-1.045.061-2.09-.184-1.106-.307-2.273-.184-2.888.184-.615.184-1.352 1.29-2.581 1.168-1.29 3.073-2.213 3.073-2.213l-.737 1.291c-.431.86-1.537 3.257-1.352 5.531.184 2.335 1.536 2.766 1.843 3.073.369.307.246.614-.368 1.106zm26.917 19.481c-1.966 1.045-3.072.799-3.072 1.659.122.799 1.905 1.414 1.905 1.414s-1.844 1.966-3.257 2.827c-1.414.922-3.073 1.475-3.073 1.475s-.615.123-.246.983a3.32 3.32 0 0 0 1.352 1.782l.676.307s-2.458 2.643-3.564 3.503a9.4 9.4 0 0 1-2.643 1.537c-.86.369-.43 1.843-.246 2.458.246.615.984 1.536 1.475 1.659.43.123.615.492 0 1.352-.43.676-1.844 2.458-2.458 3.442h-.062l-2.581-3.442c-.553-.86-.368-1.229 0-1.352.492-.123 1.229-.983 1.475-1.659.185-.615.615-2.089-.246-2.458a9.4 9.4 0 0 1-2.581-1.537 49 49 0 0 1-3.564-3.503l.615-.307a3.32 3.32 0 0 0 1.413-1.782c.307-.86-.246-.983-.246-.983s-1.659-.615-3.073-1.475c-1.474-.861-3.318-2.827-3.318-2.827s1.843-.615 1.843-1.414c.123-.86-.983-.614-3.011-1.659-1.966-1.106-2.642-2.52-2.642-2.52s2.335-.798 3.503-3.072c.337-.686.486-1.45.43-2.213h.061c3.688 1.23 8.051 1.721 11.922 1.721a38.7 38.7 0 0 0 11.861-1.72h.123a4.3 4.3 0 0 0 .43 2.212c1.168 2.274 3.442 3.072 3.442 3.072s-.615 1.414-2.643 2.459z"/><path fill="#D4AF3A" d="M325.507 148.105c0-6.268 2.888-10.263 2.888-10.263l-7.805-8.972c-7.497 2.888-14.319 3.072-20.403 0-6.084 3.072-12.905 2.888-20.341 0l-7.928 8.972s2.888 3.995 2.888 10.202-1.229 10.939-1.905 13.95c-.737 3.073-1.29 8.665.308 12.721a16.15 16.15 0 0 0 10.262 10.447c6.945 2.95 10.632 4.487 13.029 6.515 2.458 1.966 3.626 3.626 3.626 3.626s1.229-1.66 3.687-3.688c2.397-1.966 6.023-3.503 12.906-6.391a16.23 16.23 0 0 0 10.324-10.509c1.659-4.056 1.045-9.71.307-12.721-.676-3.073-1.843-7.682-1.843-13.889"/><path fill="#B96B29" d="M323.049 150.686c-.984-6.023 2.458-11.247 2.458-11.247l-6.699-7.866c-5.162 2.888-12.352 2.52-18.621-.369-6.207 2.889-13.397 3.257-18.559.369l-6.76 7.866s3.503 5.224 2.458 11.247c-.922 5.961-3.073 15.363-2.52 19.235.554 3.872 3.258 8.358 6.023 10.693a35.7 35.7 0 0 0 9.956 5.347 28.7 28.7 0 0 1 9.402 6.145s.922-.922 2.274-1.966c1.414-1.045 4.302-3.073 7.19-4.179a36.3 36.3 0 0 0 9.895-5.347c2.827-2.335 5.531-6.821 6.084-10.693.491-3.872-1.598-13.336-2.581-19.297z"/><path fill="#1D5E91" d="M322.373 151.362a19.97 19.97 0 0 1 1.966-11.676l-6.022-6.761c-5.162 2.705-11.369 2.029-18.129-.368-6.76 2.397-12.967 3.073-18.068.43l-6.084 6.76s2.888 5.162 1.966 11.615-2.458 13.766-2.212 18.068l.123.86h5.531s.307-.369.922-.614c.614-.246.799-.431.799-.431s.122-1.106.737-1.352c.676-.245.983-.245 1.229-.245.307 0 .492-.062.799-.369.307-.369 1.229-1.106 1.598-2.213.369-1.167.614-1.597.614-2.335 0-.737.246-1.844.246-1.844s-.123-.368-.676-.184c-.614.184-.614-.369-.737-.922 0-.553 0-1.659.307-2.212l.43-.676-.246-.922s-3.503.738-4.117-2.028c-.615-2.765-.676-3.994-.799-4.302-.061-.307-.184-.43-.615-.43-.491 0-1.474-.246-2.212-1.659-.614-1.414-.737-2.028-.492-2.581.185-.553.554-.308.615-.185.184.185 1.106 1.537 1.475 1.168s.184-.369-.369-1.414c-.491-1.106-.307-1.413-.246-1.966l-.184-1.536c0-.246.307-.492.615-.369.368.184.614.369.798.614.123.123.185.369.492.246.307-.184.123-1.167.123-1.475 0-.368.369-.614.799-.307a1.35 1.35 0 0 1 .737 1.106c0 .369 0 .676.185.676.184 0 .368-.553.43-.86 0-.369.246-.922.553-.43.307.43.43 1.044.307 1.72s.123.308-.123 1.475c-.245 1.229-.368 1.721-.307 2.581 0 .922 0 1.414.492 2.459.43 1.106.799 2.335 1.598 2.396h1.044s.922-1.72 1.598-2.151c.738-.368 1.721-.43 2.458-.553.615-.061.922-.307.922-.491 0-.123-.184-.185-1.045-.308-.86-.123-1.536-.307-1.597-.983 0-.614.184-1.229-.369-1.229-.615 0-1.967-.492-2.458-1.352-.492-.922-.369-1.106-.308-1.659 0-.492.676-1.475 1.107-.553.43.983.676 1.106 1.044 1.229.308.246.799.307.615-.308-.307-.614-.43-1.044-.369-1.536 0-.492.369-.676.738-.737l2.089-.615.615-.123s.061-.43.86-.614a5.5 5.5 0 0 1 1.844-.308c.491 0 .921.062 1.659-.245.545-.3 1.16-.448 1.782-.431.428.05.833.221 1.168.492.307.184.246.553.246.86 0 .308 0 .492.491.492.553 0 .983 0 1.414.184.491.185 1.106.431.737.922-.43.492-.43 1.045-.737 1.045-.246 0-.246.246-.308.43-.123.184-.245.307.062.492.307.184.307.368.737.737.369.369.984.799.369 1.414s-1.659 1.106-1.659 1.106-.615.307.061.676c.738.43 1.045 1.229 1.291 1.413l.737.492c.185.061.123.615.123.615l-.922.491c-.491.246-1.044.492-1.536.492s-.799 0-.615.43c.246.492.615.983.676 1.229l.185.738s.86.184 1.598.184l2.642-.123c1.598-.184 2.09-.246 3.626-.061 1.536.122 1.782.122 2.151.245l.86.369s2.151 0 3.38-.307c1.229-.246 1.475-1.045 1.291-1.475-.184-.369-.123-.983-2.213-1.229-2.15-.369-2.949-.246-4.609-.553-1.72-.308-4.301-1.168-4.732-3.257-.491-2.09 1.229-2.95 2.028-3.38l3.565-1.414c.86-.307 2.396-.614 3.994-.43 1.66.246 2.581.614 3.257.307.615-.43 1.168-.123 1.045.492-.123.614-.799 1.782-2.642 2.335-1.844.553-4.056.615-5.224.307-1.229-.368-2.09-.799-2.827-.553s-1.536 1.168-.799 2.274c.799 1.045 4.855 1.414 5.9 1.475 1.106.123 5.101-.123 6.268 1.844 1.106 1.966.185 4.24-1.106 4.732a18 18 0 0 1-3.503.922l-1.045.184s.492 1.045.492 1.475-.062 1.229.43 1.598c.492.307 1.229.553 2.028.43.861-.062 1.844.491 1.905 1.229.062.799.308 1.844.369 3.38.123 1.536 0 2.765 0 2.765s0 .615-.246 1.168c-.184.615-1.229 2.704-1.229 2.704h5.838l.123-.86c.246-4.364-1.229-11.677-2.212-18.129z"/><path fill="#6D8C3E" d="M276.588 173.177a16.84 16.84 0 0 0 7.129 8.788c5.039 3.073 7.251 2.643 11.983 5.716 4.732 3.072 4.425 3.564 4.487 3.564.061 0-.246-.492 4.486-3.564s6.944-2.704 11.984-5.716a16.84 16.84 0 0 0 7.128-8.788h-47.197"/><path fill="#D4AF3A" d="M280.706 147.736c.553.615.922.738 1.782.615.799 0 1.045.553 1.168 1.229.123.615.123 2.151.737 3.564.615 1.414 2.581 1.537 2.581 1.537 0-.676.307-1.598.615-2.397 0-.123.307-.737-.43-.737-.738 0-.676-.308-1.107-.984-.43-.614-1.229-2.458-1.475-3.687a9.9 9.9 0 0 1 .369-3.503c.246-.614.246-1.045 0-1.168h-.614s.123.615-.062.615c-.184.123-.369-.246-.491-.615-.185-.43-.308-.368-.615-.368s-.307.307-.061.614c.184.246.061.799.061.799l-.86-.614c-.308-.123-.861.123-.922.491-.062.308.184 1.229.737 1.66s.615 1.352.369 1.843c-.123.369-.922.307-1.106.123a.5.5 0 0 0-.571-.123.5.5 0 0 0-.167.123c-.245.307-.491.43.062.983m-.307-1.536-.431-.369a22 22 0 0 1-.307-.43l-.061.43c0 .308.368.738.368.738zm1.229-3.933c.245-.062.43-.123.245-.43-.245-.308-.368-.615-.614-.615-.184-.123-.369-.061-.369-.061l.307.799c0 .307.123.43.369.307zm1.475-1.229c0 .307 0 .43.245.307.246-.123.308-.43.185-.615a1.2 1.2 0 0 0-.369-.43l-.184-.123s.123.615.061.922zm2.089.368-.061-.614s0 .369-.185.614c-.123.185-.061.123 0 .308.185.123.246 0 .246-.308m3.319 14.442c.43.984 1.474-.553 2.458-1.782.983-1.229.922-.246.799.738a4.67 4.67 0 0 0 .614 2.765c.43.615.738.246.922-.246.123-.43.307-1.475.615-1.966.307-.43.614 0 .614.369.062.43.615 1.352 1.045 1.905.492.614.737-.185.922-.861l.43-2.151c.123-.368.614 0 .614 0l.984.922c.614.615.676-.369.737-.86.062-.492-.061-1.537.123-1.721s.738.246 1.536.615c.861.43.799-.369.738-.799a4.55 4.55 0 0 0-1.229-2.09c-.738-.614-.799-1.229-.615-1.536.246-.307 1.045 0 1.598-.062l1.106-.184c.43-.123.43-.492.43-.492s-.307-.491-.86-.983-.86-.86-1.536-.983c-.676-.185-1.598 0-1.598 0l-.123-.246c-.061-.184-.246-.184-.369 0l-.737.676c-.246.246-.43.369-.615.307-.123-.123.185-.368.185-.368s.307-.246.614-.861c.369-.614.43-1.229.185-1.598-.246-.245-.922 0-1.352 0-.369 0-.615.123-.615-.123 0-.184.369-.061.86-.122.492-.062.799-.615.922-1.168s.307-.369.615-.123c.246.307.553.246.614 0l.615-1.106c.307-.492.491-1.168.184-1.598-.369-.492-1.229-.43-1.598-.123-.368.307-.614.615-.676 1.291-.123.737-.307.307-.307.122 0-.245-.246-.614-.123-.921.123-.246 0-.615 0-.615s-.061-.614-.737-.676a5.3 5.3 0 0 0-2.151.184c-.615.123-.553.738-.553.738l-1.045.061c-.553.062-1.229.308-1.721.431-.491.123-.676.184-.676.43l.062.676s.43 0 .614.184c.185.185.123.307-.123.43s-.368.123-.368.431c0 .307.122.43.43.43.246 0 .799 0 1.413.246.615.245.799.86.738 1.229 0 .307-.922.737-1.414.737s-.614.062-.614.369.614.246.614.246l1.598.184c1.045.123 1.229.369 1.721.737.43.431.123.554-.123.615-.246.184-.615.492-.922.615-.369.122-.614.368-.922.43-.307.061-1.106 0-2.581.614-1.475.615-2.028 2.52-2.028 2.52l.86-.43a22 22 0 0 0 2.336-1.229c.737-.431.737.245.369.921-.369.676.368.554.614.369l1.229-.799c.738-.368.492.246.492.246s-.246.43-.307 1.536c-.062 1.045 1.044 0 1.536-.614.553-.676.737 0 .369.737-.369.799-1.107 1.414-1.537 1.414s-.737-.492-.799-.738c0-.245.185-1.044-.061-1.229-.307-.184-1.045 0-1.598.369-.553.307-.615.061-.799-.246-.123-.246.185-.369.062-.614-.123-.123-.369 0-.615.123l-1.721.921c-1.044.553-.983.799-.983 1.537s.184.922.615 1.843"/><path fill="#D4AF3A" d="m298.159 139.746.614-.307.922-.184c.43 0 .369-.308.246-.492-.061-.246-.246-.307-.86-.307-.553 0-.922.307-1.229.43l-.676.246.245.368c.246.308.554.369.738.246m2.335 2.274.492-.123.799-.369c.368-.122.491-.184.737-.614.246-.492-.246-.492-.922-.615-.614-.184-.983 0-1.044.308-.062.245 0 .491-.308.983-.307.492 0 .43.246.43m-.184.615c-.615 0-1.414.921-1.659 1.106-.246.184-.123.369-.123.369l.245.737c.123.43.123 1.045.123 1.045h.492c.369 0 .615-.123.983-.43.328-.232.708-.38 1.106-.431.554-.123.799-.184 1.352-.491.615-.308-.307-.861-.921-1.352a2.28 2.28 0 0 0-1.598-.615zm-8.604 2.212c.492-.061.738-.307.738-.615 0-.307-.246-.614-.922-.553-1.598.185-3.134-.43-3.442-1.966 0 0-.491.983.492 2.089s2.642 1.106 3.134 1.045m-5.469 25.197.307.245h2.458c.43-.123.43-.491.43-.737 0-.307.246-1.229.615-2.888.307-1.598.922-2.766 1.167-3.442.246-.615-.245-.86-.43-1.229l-.491-1.536c-.062-.369-.615-.308-.984-.308-.307 0-.368.553-.43 1.045 0 .492-.246 1.905-.491 3.134-.246 1.229-1.66 2.889-2.028 3.257s-.738.492-.984.492-.86 0-1.106.184a1.458 1.458 0 0 0-.614.984c0 .368.553.614.553.614l.614-.491c.185-.246.615-.308.922-.369.43-.062.43.061.307.246-.123.184-.061.245.185.737zm-3.688-.123c-.246 0-.368.245-.43.368h1.598a.87.87 0 0 0-.184-.43c-.185-.184-.676-.061-1.045 0z"/><path fill="#D4AF3A" d="M284.7 169.86c-.232.1-.441.246-.614.43h1.782c0-.123.062-.369-.123-.553-.43-.307-.799 0-1.045.123m14.873-.738c-.185 0-.369.185-.615.369-.307.185-.369.492-.43.738a.2.2 0 0 0 0 .061h.799a.13.13 0 0 0 0-.061c0-.246.123-.431.43-.676.307-.308 0-.431-.184-.431m1.413.799c0-.245-.061-.43-.246-.43-.123 0-.43.307-.614.492a1.5 1.5 0 0 0-.308.307h1.045z"/><path fill="#D4AF3A" d="M307.746 161.993c.492-.369.431-.492.431-.922 0-.369 0-.492-.185-.615a3.6 3.6 0 0 0-1.72-.491c-.676 0-2.09.184-2.582.491-.553.369-.798 1.66-.798 2.336 0 .614.122.737.307.737.184 0 .491-.491.491-.491l1.107 1.536c.43.615.245.86 0 1.352-.123.492-.861 1.782-1.352 2.028-.615.307-.984 0-1.598-.061-.676-.123-1.045.061-1.414.43-.368.368 0 .676.246.676.185 0 .492 0 .738.307.184.184.061.737 0 .983h3.195c.553-.246.922-.983 1.045-1.413.184-.43.86-1.045 1.229-1.352.307-.307.307-.492.307-1.229s-.123-1.045-.368-1.537c-.308-.491-.492-1.229-.369-1.598 0-.43.737-.86 1.229-1.229z"/><path fill="#D4AF3A" d="M302.461 154.004c.369.554.185.615-.246.738a5.2 5.2 0 0 1-1.72.123c-.676-.062-.676 0-.676.369a3.08 3.08 0 0 1-.492 1.659c-.43.614-.983.369-1.229.123-.369-.185-.553-.123-.615.246l-.737 1.29c-.307.615-.553.615-.799.553s-.43-.43-.676-.43-.615-.492-.983-1.106c-.369-.553-.553.061-.799.614-.246.492-.43.799-.922.738-.43 0-.983-.922-1.229-1.414s-.43-.983-.799-.983c-.43 0-1.045.86-1.475 1.045-.43.246-.614.184-.799-.123-.184-.246-.43.123-.676.737-.246.676 0 1.229.369 1.414s1.045-.307 1.536-.615c.492-.368.676-.307 1.229-.307.492 0 .431.86.615 2.028.246 1.229.922 1.352.922 1.352s.246.184.799-.676c.553-.922.614-1.844 1.106-1.844.553 0 .614.123 1.106.861.492.676.922 1.229 1.229.676.307-.492.553-1.291.922-1.598.307-.246.615-.369.246.184-.307.492-.492 1.045.246.861.737-.246 3.503-1.352 4.67-1.598l2.889-.307 2.458-.185c.614 0 .614 0 .676-.43 0-.43-.308-.307-1.414-.307s-1.843.123-2.642.246c-.799.122-1.106.122-.984-.123.123-.185.369-.308 1.23-.431a36 36 0 0 1 3.687-.307c.983 0 .614.307.614.922-.122.615 0 1.598.123 2.151 0 .614.062.799.615 1.659.553.861 2.274 1.352 2.765 1.598.553.307.431 0 .431-.492 0-.491.43-.491.86-.184.43.246 1.229.43 1.782.615.492.123.615.245.615.491 0 .308 0 .922.123 1.475 0 .615 0 .738-.246 1.106l-1.229 1.414s-.492 0-1.414.246c-.983.184-1.29.676-1.413 1.044-.062.431.184.553.246.676v.492h.245c0-.123.185-.307.308-.492.368-.43 1.229-.553 1.782-.307.369.184.369.615.307.799h2.212l1.23-2.397a3.7 3.7 0 0 0 .368-1.598c0-.737.123-3.564 0-3.687-.184-.184 0-.676 0-1.475-.061-.799 0-1.413-1.475-1.536s-1.966-.738-2.458-1.229c-.491-.492-.369-1.66-.737-3.073-.43-1.352-1.414-1.598-3.073-1.905a14.3 14.3 0 0 0-4.302-.307c-1.352.123-2.95.307-3.81.245-.922-.122-.738.123-.43.615z"/><path fill="#D4AF3A" d="m310.82 169.982-.308.307h1.475a.6.6 0 0 0-.123-.43c-.246-.246-.614-.123-1.044.123m2.704-.123a1.35 1.35 0 0 0-.492.43h1.536a.6.6 0 0 0 0-.184c-.061-.246-.553-.492-1.044-.246m-37.488.983q.119.715.307 1.414h47.689l.369-1.414h-48.426zm32.141-22.8c1.475.984 6.268 1.045 8.542 1.475 2.213.492 2.09 2.213 1.414 3.073-.738.922-3.872 1.045-4.425 1.106.307.185.737.861.737.861l1.291-.123a6.77 6.77 0 0 0 3.749-1.229c1.167-.984 1.106-2.459.061-3.565-.983-.983-2.642-1.106-4.302-1.29-1.72-.185-3.072-.308-4.916-.615-1.967-.369-2.888-1.106-2.888-2.212s1.044-1.721 1.782-1.905c.737-.246 1.905-.553 3.011-.123 1.045.369 2.274.43 4.363.184 2.09-.307 2.581-1.721 2.581-1.721s-.245.123-1.352.123c-1.044 0-1.843-.43-3.687-.43-1.966 0-2.642.615-3.564.983-.922.308-3.319.553-3.995 2.09-.737 1.536.062 2.274 1.598 3.318"/><path fill="#B96B29" d="M295.641 141.714c.509 0 .921-.386.921-.861s-.412-.86-.921-.86-.922.385-.922.86.412.861.922.861M314.937 142.328c-1.229-.122-2.765.246-2.765.246s.307.246.737.185c.369 0 1.107 0 2.274.184s1.967-.369 1.967-.369z"/><path fill="#1D5E91" d="M303.629 164.574c-.307-.492-.369-.43-.737-.123-.308.246-.615-.738-.676-1.352l.245-2.52s-1.597.307-2.458.615l-2.458.553c-.676.123-1.106.307-1.475.246-.369-.123-1.168-.123-1.782-.123s-.615.123-1.229.737c-.615.615-.799.922-1.229 2.09a12.3 12.3 0 0 0-.861 3.687 9.6 9.6 0 0 1-.43 1.905h7.498l.307-.737c.181-.376.484-.68.86-.861.307-.123.615-.123.738-.491.123-.308.491-.615.86-.738.43-.184 1.106-.123 1.721.062.614.184.86-.246 1.045-.492s.245-.615.614-.983c.307-.43 0-.799 0-.799l-.614-.676zm11.984.184c-.062-.43 0-.491-.308-.553-.245 0-.676-.123-1.044-.307-.369-.123-.308.86-.308.86s-.921.123-1.905 0c-.983-.123-2.151-1.045-2.581-1.352a3.4 3.4 0 0 1-.86-.922l-.615.431c-.307.184-.491.798-.614 1.474 0 .615.799 1.352.86 1.967 0 .615-.737 1.905-1.106 2.458a5.5 5.5 0 0 0-.738 1.475h3.626c.082-.227.207-.436.369-.614.369-.369.983-.431.983-.431l.123-.491c.123-.308.553-.738 1.414-1.106.922-.308 2.028-.369 2.028-.369s.43-.369.737-.861c.307-.491 0-1.229 0-1.659z"/><path fill="#D4AF3A" d="M285.56 204.519c.677.246 1.967-.245 2.582-.983.614-.799.86-1.966 1.29-2.642l.799-1.168s-.123 1.106-.737 2.643a9.5 9.5 0 0 0-.492 4.178c.246 1.66 1.352 1.906 1.967 1.66.491-.123 1.229-.861 1.843-1.967l.615-1.229c.368-.799.737-2.151.922-2.089.43.061.184.983 0 1.597-.308 1.23-.922 3.073-.984 4.302 0 1.045.123 3.073 1.229 3.196 1.107.061 1.721-.922 2.336-3.196s.737-3.072 1.044-3.072c.246 0 .246 1.597.246 2.273.006 1.568.341 3.118.983 4.548.554.492.984.43.984.43s.43.062.983-.43.983-3.872.983-4.548c0-.614 0-2.212.308-2.212.307 0 .368.737.983 3.011.614 2.274 1.229 3.257 2.335 3.196 1.168-.123 1.229-2.151 1.229-3.257s-.676-2.95-.983-4.241c-.307-1.229.123-1.167.983.492l.799 1.536c.615.984 1.229 1.537 1.598 1.66.615.246 1.721 0 1.967-1.66.307-1.659-.984-6.452-.984-6.452l.615.799c.43.676.614 1.843 1.229 2.642.614.738 1.905 1.229 2.581 1.045.615-.246.738-1.475.246-3.749s-2.458-3.503-3.933-5.285a19.4 19.4 0 0 1-2.458-5.039 16.6 16.6 0 0 0-4.855 3.441l-3.626 3.872s-.615-.799-3.565-3.872a16.6 16.6 0 0 0-4.916-3.441c-.123.368-1.352 3.195-2.704 4.855-.615.799-1.536 1.413-2.212 2.212a7.6 7.6 0 0 0-1.475 3.257c-.492 2.213-.369 3.503.307 3.687z"/><path fill="#D4AF3A" d="M285.438 212.141c.921-.738 1.352-1.229 1.352-1.229s.614-.492.491.553c-.184.983-.491 3.073-.307 3.933.246.86.307 1.659 1.413.983 1.107-.614 1.414-1.044 1.906-1.598.553-.553 1.106-.798.983.062-.185.86-.553 2.212-.369 3.933.184 1.844 1.045 2.028 2.212.553a19.8 19.8 0 0 0 2.151-3.626c.308-.737.984-1.352.984 0 0 2.95.676 7.252 3.933 8.358 3.257-1.106 3.933-5.408 3.933-8.358 0-1.352.676-.737 1.045 0a19.8 19.8 0 0 0 2.151 3.626c1.106 1.475 1.966 1.229 2.151-.553.184-1.721-.185-3.073-.308-3.933s.369-.615.922-.062c.553.554.799.922 1.844 1.598 1.167.615 1.229-.123 1.475-.983.184-.922-.123-2.95-.308-3.933-.123-1.045.492-.492.492-.492l1.291 1.229a3.7 3.7 0 0 0 2.089.738s.553-3.073-.737-4.917c-1.23-1.843-1.783-2.458-1.783-2.458s-.676 0-1.229-.246c-.614-.184-1.106-.614-1.106-.614v1.721l1.905 1.905c.369.491 1.106 1.229 0 .491a30 30 0 0 1-1.905-1.475s-.246 1.537-.676 1.967c-.43.369-1.106.43-1.352.307l-.246-.061-.123.614s.984 1.844 1.107 2.52c.184.737 0 .615-.492-.307-.43-.922-1.352-2.151-1.721-2.766-.369-.676-.983-1.106-.922-.307.062.86-.307 2.397-.614 2.95-.246.553-.43.737-.43.737l.676 2.458c.061.431 0 .922-.308.369-.368-.491-1.29-2.581-1.29-2.581s-1.291 0-1.66-.43c-.368-.369-.983-1.782-.983-1.782s-.491 1.843-.922 2.458c-.43.553-1.475 1.106-1.475 1.106l-.122 3.687c-.123.615-.123.799-.369.799s-.246-.246-.307-.799l-.185-3.687s-.983-.614-1.413-1.168c-.43-.614-.984-2.396-.984-2.396s-.614 1.413-.921 1.843c-.369.308-1.66.369-1.66.369s-.983 2.09-1.352 2.581c-.307.553-.368.062-.307-.307l.676-2.52s-.184-.184-.43-.737c-.307-.615-.615-2.09-.615-2.95.062-.799-.491-.369-.922.307-.43.676-1.229 1.844-1.72 2.766-.492.922-.615 1.044-.492.307s1.106-2.52 1.106-2.52l-.061-.614-.307.061c-.246.123-.861.062-1.352-.307-.431-.369-.615-1.967-.615-1.967l-1.967 1.475c-1.106.738-.368 0 0-.491l1.967-1.905v-1.721s-.615.43-1.106.614c-.615.246-1.291.246-1.291.246l-1.782 2.458c-1.229 1.844-.737 4.917-.737 4.917s1.229 0 2.089-.799zm15.855 20.587-1.106-1.536s-.246.492-1.106 1.475a26.6 26.6 0 0 1-2.766 2.458s.185 2.581 1.106 3.995c.799 1.167 1.537 2.212 2.766 3.072 1.229-.86 2.028-1.905 2.765-3.072.984-1.414 1.168-3.995 1.168-3.995s-1.967-1.475-2.827-2.458z"/><path fill="#B96B29" d="M299.818 235.862c0 .615 0 2.09.369 2.09s.307-1.475.369-2.09l.123-2.028h-.984s0 1.414.123 2.028"/><path fill="#D4AF3A" d="M300.187 94.946c-3.503.061-7.559-.43-9.833-1.23l-2.336.492a32 32 0 0 0 12.169 2.028c5.408-.061 8.48-.614 12.168-2.028l-2.459-.491a31.2 31.2 0 0 1-9.709 1.229m12.598-2.889c-.246-.246-1.844-1.352-2.274-1.536-.369-.246-.061-.799 0-.983.061-.246 1.844-.738 2.827-1.045.983-.246.86-.43.86-.43s-.614-.676-4.179-1.045c-3.564-.43-9.832-.307-9.832-.307s-6.269-.123-9.833.307c-3.565.369-4.179 1.045-4.179 1.045s-.123.184.86.43c.981.205 1.931.535 2.827.983.062.246.369.8 0 .984a28 28 0 0 0-2.274 1.597c-.307.246-.307.615.123.615s.43 0 1.659-.246a58 58 0 0 1 21.633 0c1.229.246 1.229.246 1.659.246s.43-.369.123-.615"/><path fill="#D4AF3A" d="M308.729 93.533c-2.458-.246-3.995-.615-8.542-.553-4.548.061-6.146.307-8.542.614 1.536.615 4.056.922 8.542.922s7.006-.307 8.542-.922zm-9.218-35.337-.062 1.721 1.844-.123-.184-1.659 2.028.307.061-1.598-2.089.185.368-1.782h-2.335l.43 1.782-2.028-.185v1.598zm3.994 4.364h-2.458v-2.09a3.7 3.7 0 0 0-.799-.123l-.614.062v2.15h-2.643a2.8 2.8 0 0 0-.123 1.23h6.76v-.369a3.3 3.3 0 0 0-.123-.86"/><path fill="#1D5E91" d="M300.249 66.492a3.38 3.38 0 0 0 3.196-2.09h-6.33a3.38 3.38 0 0 0 3.196 2.152zm1.414-5.838v1.475h1.659a3.26 3.26 0 0 0-1.659-1.475m-2.766 0a3.26 3.26 0 0 0-1.72 1.475h1.72z"/><path fill="#B96B29" d="m302.215 88.002-2.028-.922-2.028 1.045c-.737.307-.614.246-.86.737-.184.553 0 .738.369.86l2.519 1.23 2.827-1.23c.492-.245.43-.491.246-.921-.123-.369-.43-.492-1.045-.8"/><path fill="#D4AF3A" d="m300.188 87.57-2.151 1.046 2.212 1.167 2.151-1.168zm0-7.558s-.184.737-.43 1.106c-.246.307-.43.615-.369 1.045 0 .368.492.614.799.614.246 0 .737-.246.799-.614 0-.43-.123-.738-.369-1.045-.246-.369-.43-1.106-.43-1.106M300.188 84.007a.43.43 0 1 0 0-.86.43.43 0 0 0 0 .86"/><path fill="#D4AF3A" d="M298.713 81.487s.676-.799.984-1.352l.491-.922.492.922c.246.553.983 1.352.983 1.352s.984-.614 1.598-2.458c.615-1.967-.184-4.056-.43-6.207a129 129 0 0 1-.492-6.023 4.5 4.5 0 0 1-2.151.615 4.5 4.5 0 0 1-2.212-.615s-.184 3.81-.492 6.023c-.245 2.212-.983 4.24-.368 6.145.614 1.967 1.597 2.459 1.597 2.459z"/><path fill="#B96B29" d="M300.188 78.783c.95 0 1.72-.743 1.72-1.66s-.77-1.659-1.72-1.659c-.951 0-1.721.743-1.721 1.66s.77 1.659 1.721 1.659M300.187 74.727c.916 0 1.659-.715 1.659-1.597 0-.883-.743-1.598-1.659-1.598-.917 0-1.66.715-1.66 1.598 0 .882.743 1.597 1.66 1.597M300.188 70.918c.882 0 1.598-.688 1.598-1.537 0-.848-.716-1.536-1.598-1.536s-1.598.688-1.598 1.536.715 1.537 1.598 1.537"/><path fill="#D4AF3A" d="M300.187 77.678c.51 0 .922-.386.922-.86 0-.476-.412-.861-.922-.861-.509 0-.921.385-.921.86s.412.86.921.86M300.187 73.744a.86.86 0 1 0 0-1.72.86.86 0 0 0 0 1.72M300.188 69.811c.441 0 .798-.33.798-.737s-.357-.738-.798-.738-.799.33-.799.738c0 .407.357.737.799.737"/><path fill="#B96B29" d="M300.126 208.453c.123.061.123-.184.123-.738l.245-2.458c.123-.737-.184-.676-.368-.614-.185 0-.308.553-.308.86l.062 2.581c0 .369.123.369.246.43z"/><path fill="#D4AF3A" d="m281.997 222.649 3.196-2.213a7.25 7.25 0 0 0 2.458-2.458h-.614c-.369 0-.615-.43-.676-.922 0-.491 0-1.413.122-2.519.123-1.107-.184-2.028-.184-2.028s-.737.676-1.844 1.229c-1.229.614-1.659.368-1.659.368l-.246-1.167-1.229 2.274c-.676 1.229-2.581 2.581-3.933 3.564a17.6 17.6 0 0 1-3.933 2.458c-1.106.43-.43.922-.43.922s1.106 1.106 3.994 1.659c2.827.492 4.241-.614 4.978-1.167"/><path fill="#D4AF3A" d="M292.076 221.543c-1.045-.123-1.66-.492-1.844-1.598-.123-.737 0-3.503 0-3.503l-.676.738c-.43.491-1.229.614-1.229.614l-.615.983a5.7 5.7 0 0 1-1.843 1.967 31 31 0 0 0-2.827 1.967 17.4 17.4 0 0 1-2.643 1.905 4.3 4.3 0 0 0-2.212 2.888c-.308 1.475 0 1.905 1.106 1.844 1.106-.062 1.229 0 3.073-.431 1.843-.491 4.486-2.519 6.391-3.687 1.844-1.229 3.319-3.687 3.319-3.687"/><path fill="#D4AF3A" d="M297.114 223.203s-.738-.984-1.045-2.09l-.799-3.318-.922 2.028c-.614 1.29-1.659 1.659-1.659 1.659s0 .553-.922 1.659a12.9 12.9 0 0 1-3.503 2.95c-1.29.737-3.072 1.844-3.933 3.134-.922 1.352-1.045 2.704-.614 3.319.491.614 1.106-.062 1.966-.553.861-.431 3.38-.799 6.883-2.704 3.442-1.844 4.548-6.084 4.548-6.084"/><path fill="#D4AF3A" d="M298.651 231.007c.922-1.475 1.106-4.917 1.106-4.917l-.799-.614c-.491-.43-1.352-1.782-1.352-1.782l-1.229 2.335c-.614 1.106-.922 1.475-2.212 2.642-1.291 1.23-3.073 2.397-3.81 3.688-.738 1.229-.308 3.749.184 4.609.492.922 1.229.614 1.844-.062l2.274-2.028c1.29-1.106 3.072-2.458 3.994-3.871"/><path fill="#B96B29" d="M287.281 201.878c.492-1.045 1.045-2.274 1.537-2.95q.457-.641.799-1.352s-1.229 1.106-1.721 1.905c-.492.86-.799 1.598-1.045 2.458-.184.861-.123.984.43 0zm4.917.922.307-1.168s.184-.615.062-.676c-.123-.062-.615.369-.984 1.536-.307 1.107-.86 2.766-.737 2.827.123 0 1.106-1.843 1.352-2.519m3.871 3.072.185-.491s.43-1.229.43-1.537c0-.245-.123-.614-.492.062-.368.676-.368 1.352-.43 1.598 0 .307-.43 1.29-.307 1.413.123.062.369-.553.614-1.045m-12.045 11.8-.491-.308-.799.922c-.43.43-.922.615-1.229 1.045a4.9 4.9 0 0 1-1.66 1.413c-.799.431-1.106.615-.983.676.184.123.738-.184.738-.184s.184 0 1.167-.614c.983-.554 1.229-.861 1.844-1.414.614-.553 1.413-1.536 1.413-1.536m4.179 4.978c.369-.369.799-.615.615-.861-.246-.184-.492-.184-.861.123l-1.72 1.598-1.229.922c-.431.368-1.414.86-1.844 1.106-.492.307-.061.307-.061.307l.737-.307 1.536-.615s.431-.184.984-.614c.614-.43 1.475-1.229 1.843-1.659m4.855 3.38c.307-.615 0-.492-.553-.246-.492.184-1.659 1.475-2.335 1.905-.676.491-1.229.676-1.844.983-.553.246-.553.43-.491.553 0 .123.245.123.491 0l.983-.553.615-.123c.369 0 .799-.368 1.475-.983.737-.615 1.352-.922 1.659-1.536m2.274 4.424c-.86.492-2.335 1.66-2.765 2.459-.369.737-.615 1.29-.492 1.413s.553-.123.737-.43l.553-.738s1.475-1.475 2.028-1.843a5.1 5.1 0 0 0 1.598-1.844c.246-.614.062-.86.062-.86s-.922 1.29-1.721 1.843"/><path fill="#C52126" d="M272.532 106.438a13.7 13.7 0 0 0-5.1-1.598c-2.274-.184-3.995.123-5.839.615-1.352.369-2.458.43-3.503.184-1.597-.43-2.827-1.843-3.257-3.687 0 0-1.475 1.905 0 3.995a4.43 4.43 0 0 0 2.704 1.782c3.073.614 6.146-1.229 8.788-1.475 2.459-.123 4.487 1.475 4.487 1.475s.614.491 1.413 0c.86-.492 1.106-.861.307-1.352z"/><path fill="#D4AF3A" d="m263.498 197.084-.737-.123c-.43 0-1.352-.368-1.659-.491a.88.88 0 0 0-.984.184c-.245.307-2.458 1.659-2.458 1.659h3.687c1.23 0 2.151-1.229 2.151-1.229"/><path fill="#D4AF3A" d="M274.008 196.408v-.307l-.492-1.107s-.615.369-1.168.922c-.737.799-1.475 1.844-1.843 2.274-.615.799-1.475 1.536-.738.307s.984-1.843 1.598-2.704c.615-.799 1.045-1.229.922-1.229l-2.09-.307c-1.536-.184-2.519-.799-3.257-1.229l-2.028-1.168s-2.642 1.168-3.626 1.414c-.983.246-1.597.368-.614.86s1.782.615 2.274.922a6.75 6.75 0 0 0 2.827.737c.86 0 2.396 0 1.843.615-.614.676-1.29 1.844-1.966 3.687a12.5 12.5 0 0 0-.615 4.302v1.536s1.106-1.229 4.056-3.072c2.95-1.844 4.056-2.459 4.609-2.704s.799-.246.676-.922z"/><path fill="#D4AF3A" d="m285.193 187.559-.553-.246a.6.6 0 0 0-.123 0 9.2 9.2 0 0 0-2.827 2.581c-.738 1.168-1.475 1.229-.676 0a11 11 0 0 1 1.966-2.581q.302-.254.615-.492a32.6 32.6 0 0 1-4.486-2.581l-.984 1.537c-.614.614-2.028 1.229-2.028 1.229s1.107-1.229 1.475-2.028l.492-1.537a19.4 19.4 0 0 1-2.95-2.826 10.9 10.9 0 0 1-2.52 4.547c-2.335 2.581-6.944 3.872-6.944 3.872s-1.598.184-.307.553c1.352.307 2.274.922 4.793.492l3.073-.676c.369-.123 1.229 0 0 .43-1.229.491-4.24.922-5.347.86-1.167-.123-2.704-.369-1.106.492 1.66.86 2.336 1.229 3.319 1.229s1.413.307 2.397.307 1.229-.184 1.843-.307c.738-.184 1.229.061 1.229.369 0 .245-.983 1.044-.922 2.888 0 1.905.185 3.134.308 3.687.184.615.614 1.475.86 1.967.307.492.43 1.045.676-.062.307-1.106.922-2.704 1.168-3.748.184-1.045.369-1.107.43-1.66.123-.553.737-.983.43 0a82 82 0 0 0-.799 3.196c-.184.922-.676 2.581.123 1.229.861-1.229 3.933-4.732 4.486-5.408l1.229-1.721c.431-.491 1.475-1.167 2.028-1.905a17.6 17.6 0 0 1 2.397-2.458zm-42.711-79.4c0 1.905 2.15 5.531 3.38 7.498 1.167 1.905 1.474 2.704 1.229 2.827-.123.123-.615-.861-1.291-1.721s-1.966-2.889-3.073-4.425c-.983-1.536-2.581-5.162-2.765-5.469-.246-.308-.307-.553-.86-.123-.492.43-1.537 4.424-.308 7.128 1.229 2.705 3.073 4.671 3.872 5.654.799.922 1.844 2.459 1.659 2.52-.184.123-.491-.246-1.413-1.229l-3.565-3.933a32 32 0 0 1-2.335-3.688c-.123-.307-.369-.245-.492-.122-.307.368-.86 1.167-.614 3.318a10.45 10.45 0 0 0 3.257 6.269c1.413 1.474 2.827 2.765 2.581 3.011-.184.184-1.659-1.106-2.642-2.028-.984-.983-3.381-3.319-3.934-3.995-.553-.614-1.29-.307-1.229 2.274 0 2.643 2.889 5.224 4.056 6.699 1.229 1.413 2.704 2.274 2.581 2.581-.122.307-1.352-.43-2.089-.984l-4.302-2.826c-.614-.431-.86.368-.123 2.826.738 2.459 2.889 4.425 4.179 5.347 1.229.922 3.319 2.028 3.196 2.335-.123.246-.983-.123-2.213-.676a24 24 0 0 0-3.687-1.413c-.983-.307-.983.43-.983.43s-.185 2.151 1.352 3.81a8.17 8.17 0 0 0 4.916 2.643c1.598.307 1.844.369 1.844.614-.062.246-.246.308-.615.308l-3.318.123c-1.352 0-2.09.368-2.09.983 0 .614-.061 1.413 2.028 2.827s4.425 1.598 5.408 1.843c.984.185 1.045.246.861.554-.246.307-.676.245-2.213.43-1.597.123-2.519.737-2.765 1.229-.184.369.123 1.598 1.413 2.458 1.229.86 2.95 1.168 5.408.983s3.073-.184 3.135.185c.122.43-.738.614-1.967.737-1.229.246-2.151.246-2.888.799-.676.615-.123 1.782 1.044 2.643 1.229.86 4.179.86 5.408.799 1.23-.123 3.073-.554 3.258-.246.122.368-.922.86-2.213 1.29-1.229.492-1.659.738-1.843 1.291-.308.553-.062 1.045 1.413 1.598 1.536.614 3.749.614 4.916 0 1.168-.492 1.783-.676 1.967-.492.246.184 0 .43-.246.676-.246.307-1.229 1.106-2.458 1.413-1.291.369-1.414.369-1.844 1.352-.491 1.045.615 1.844 2.95 1.967 2.335.061 5.408-.86 6.391-1.413.984-.615 1.352-.676 1.537-.492.123.184.123.307-.369.676s-2.089 1.536-2.888 1.721c-.738.184-.861.799-.861 1.29 0 .615-.184 1.598 1.844 2.151 2.089.492 4.486.123 6.76-1.475a5.1 5.1 0 0 0 1.352-1.229 17.2 17.2 0 0 1 .123-4.916c-.43 0-1.229-.185-2.09-.553-1.229-.492-1.72-1.598-2.028-2.213-.245-.614-.676-.614-1.229-.491-.43.184-.921.368-1.597.368a4.86 4.86 0 0 1-3.258-1.72c-1.106-1.229-.86-2.459-.921-3.073 0-.615-1.045-.185-1.537-.185-.491 0-1.905-.245-3.257-1.167-1.29-.861-1.29-2.09-1.413-2.643-.123-.491-.615-.799-1.045-.983-.43-.123-1.106-.307-2.028-1.045a4.24 4.24 0 0 1-1.229-2.704c-.062-.491-.615-.491-2.458-1.475-1.844-.921-1.66-2.888-1.598-3.687s.922-1.413.922-1.721c0-.307-.615-.368-1.23-.737-.614-.369-2.15-.983-2.212-3.319 0-2.274 1.475-2.519 1.475-2.519l-.86-.492c-.615-.369-2.336-1.536-2.336-2.888s.615-1.967 1.107-2.336c.491-.368 1.659-.614 1.659-.614s-.799-.553-1.106-1.598-.431-2.397.307-3.319c.799-.983 2.089-.983 2.827-.983.676 0 1.29.369 1.536.184.246-.184.307-.368 0-.921a4.05 4.05 0 0 1 0-2.274c.185-.492.246-1.352 1.967-1.967 1.782-.553 3.687.615 4.24.984.553.307.307-.492.307-1.045 0-.615-1.229-2.028-2.581-4.056a45 45 0 0 1-3.441-6.269 40.4 40.4 0 0 1-2.766-8.235c-.184-.983-.614-.491-.614-.491s-.369.123-1.352 2.519a15.36 15.36 0 0 0-.983 6.453"/><path fill="#D4AF3A" d="M273.454 150.316c-1.045-.061-2.458-.614-3.503-2.212-1.045-1.536-2.643-1.844-5.408-1.844-2.704.062-3.995-1.229-4.671-3.195-.676-1.844.062-4.056 2.889-5.47 2.827-1.352 4.117-2.888 4.179-5.285.123-2.397-2.766-5.346-5.716-8.665-2.888-3.38-5.162-8.112-5.162-8.112s-.86 1.106-.86 2.274c0 1.106.43 2.274 0 2.581s-.615-.492-2.274-1.229c-1.721-.738-3.073-.861-4.118.368-1.106 1.23 0 3.319.922 4.302.984 1.045 1.783 1.844 1.475 2.151-.246.369-1.659-.553-2.151-.86s-1.598-1.536-3.257-1.414c-1.598.185-2.212.615-2.335 2.028-.184 1.414 1.475 2.582 2.52 3.135s1.474.983 1.229 1.229c-.308.184-.553 0-1.045-.185a4.9 4.9 0 0 0-2.643 0c-.86.369-2.212 1.537-.921 2.95 1.29 1.414 3.933 1.967 4.424 2.028.553.123.799 0 .861.369 0 .43-1.107.43-2.52.492-1.475.061-1.844 1.475-1.659 2.458.184 1.106 2.581 2.274 3.933 2.458 1.29.246 1.782 0 1.843.43.123.369-.122.492-.86.738-.737.184-2.151.368-2.458 1.536-.246 1.168-.307 1.659.799 2.704 1.106.983 2.95.86 3.441.737.553-.122 1.229-.676 1.721-.184.553.553-.492.983-1.413 1.598-.861.614-.799 1.844.737 2.704s3.073.553 3.687.307c.615-.184 1.475-1.229 1.905-.614.431.676-1.352.922-2.089 1.843-.737.861-.43 2.336 1.045 3.257s3.933.246 4.302-.122c.43-.369.983-.492 1.29-.185s-.123 1.168-.492 1.844c-.307.799-.86 2.95 1.352 3.81s4.241-1.045 4.61-1.413c.368-.369.737-.431 1.044-.308.308.185.185.492-.061.861-.307.368-.86 1.966.737 3.072a3.87 3.87 0 0 0 2.889.615l1.229-4.425h-.369c-.184 0-.246.307-.246.43s0 .246-.123.246c-.184 0-.245.123-.491.307-.308.185-.553.431-.676.308-.185-.123.614-.492.737-.738.185-.246.615-.614.615-.86s.123-.369.553-.676l.246-.369a62 62 0 0 0 1.044-7.805zm-45.169-33.062A22.9 22.9 0 0 0 234 124.69l-.615-1.967c-.246-.86-.123-1.782-.123-1.782s-.799-1.045-2.335-3.442c-1.598-2.396-2.397-5.899-2.397-5.899s1.475 3.503 2.581 5.408a26 26 0 0 0 2.459 3.38s.368-1.659.737-1.721c.307-.123.553.123.799.492.307.368.553.368.553.368l-.983-1.72-.922-1.352c-.922-1.414-2.827-4.056-3.749-6.699-.983-2.642-3.134-9.28-3.503-11.246-.368-1.967-.737-.86-1.106.553a17 17 0 0 0-.614 6.576 32.9 32.9 0 0 0 3.503 11.615m3.072 12.905a83 83 0 0 0 2.151 1.537l-.369-1.045-.184-1.782-1.721-1.537a25.7 25.7 0 0 1-3.441-3.687c-1.844-2.212-.369-.86 1.106.737 1.475 1.598 4.302 3.872 4.302 3.872v-.492c.009-.426.16-.837.43-1.167.246-.369.123-.369-1.475-1.598a45.8 45.8 0 0 1-10.816-14.995s-.86 5.531 2.458 11.492c3.319 6.084 6.637 7.989 7.498 8.665zm17.515 34.599c1.844-.737 1.291-2.519 1.291-2.519s-1.107.307-2.151.737c-1.045.369-3.565 1.106-4.548 1.106-1.045 0-1.045-.123-1.045-.246 0-.122.738 0 2.213-.245a17.8 17.8 0 0 0 4.424-1.905c.43-.308.369-.369-.246-.431a2.76 2.76 0 0 1-1.474-.553c-.246-.184-.922.062-2.582.492a31.2 31.2 0 0 1-13.212.43c-.369-.123-.799.123.43 2.274 1.29 2.151 5.777 3.257 8.849 3.257s6.207-1.721 7.989-2.397zm-8.235-4.424c3.196 0 4.363-.922 4.363-.922l-.43-.799c-.43-.615-.369-1.782-.369-1.782l-2.089.368c-1.291.185-2.827.369-4.548.062-1.72-.307-.983-.492.369-.307 1.352.122 3.933-.369 4.793-.615.861-.307.492-.615-.061-.799-.615-.184-2.151-1.168-2.151-1.168s-3.872.492-7.436.123c-3.687-.43-5.9-1.352-6.637-1.475-.738-.122-.738.185-.738.185s-.184.369 1.107 2.274c1.229 1.966 3.687 3.257 5.715 3.871 2.089.615 4.916.984 8.112.984m-.86-7.498-.308-.799c-.184-.614.369-1.167.369-1.167s-.737-.185-3.134-.492-2.52-.492-3.995-.799c-1.475-.369-2.458-.799-2.458-.922.062-.184.553 0 1.414.369.86.307 4.547.737 6.084.922 1.536.246 2.396.368 2.642.246.307-.185 1.229-.431 1.229-.431l-1.475-.307a5.2 5.2 0 0 1-1.966-.799c-.43-.307-.553-.369-2.458-.614-2.028-.185-3.565-.799-7.068-2.09-3.503-1.229-6.145-2.827-6.821-3.38-.738-.614-.615-.184-.492.615.184.676.184 1.597 1.967 3.687 1.72 2.028 2.581 2.95 7.067 4.548 4.425 1.659 9.403 1.413 9.403 1.413m-13.213-10.755a24.95 24.95 0 0 0 9.525 3.934c.246-.246-.246-1.23 0-1.721.246-.676.615-.676 1.598-.738s.307-.245.123-.245l-1.844-.431c-1.597-.43-3.195-.676-5.346-1.475-2.151-.86-2.827-1.413-2.766-1.597.062-.185.984.491 3.073 1.229 1.967.799 4.302 1.106 5.531 1.413 1.291.246.184-.307-.43-.614-.615-.369-1.414-1.721-1.414-1.721s-1.413-.246-3.687-.922a30 30 0 0 1-6.145-2.581c-.676-.369-1.352-.86-2.028-1.352l-3.135-2.274c-.799-.614-.614-.123-.491.246s.614 1.966 1.843 3.749c1.23 1.843 1.66 2.335 5.593 5.1m-.615-7.804c3.872 3.072 7.19 4.056 7.744 4.302.614.245.553-.123.43-.431-.123-.307-.185-1.352-.185-1.352l-2.949-1.72a49 49 0 0 1-4.364-2.889c-1.167-.799-.491-.737-.123-.43.369.307 1.905 1.229 3.503 2.212l3.933 2.397s.062-.553.431-.86c.307-.308 1.106-.246 1.106-.246l-.615-.799c-.246-.369-1.536-.799-3.011-1.475a35.3 35.3 0 0 1-5.9-4.179c-1.843-1.598-5.531-5.592-5.838-5.961-.246-.307-.369-.246-.43.184 0 .369-.123.615.246 2.459.43 1.843 2.151 5.776 6.022 8.788m13.705-29.007c.43.922.922 1.598 1.229 2.212q.45.726.86 1.475s.123-.307 0-.86a8.2 8.2 0 0 1 0-2.151l.185-1.414c0-.43-.246-.86-.308-1.167l-.922-4.302c-.307-1.66-.614-3.933-.553-5.961 0-1.967.308-.983.308 0a38.2 38.2 0 0 0 1.72 10.57s0-.553.308-1.29c.307-.799.799-1.66 1.229-2.582.307-.983.184-1.167.184-1.167s-1.352-6.514-1.721-9.587c-.368-3.073-.921-11.124-.921-11.124-2.028 1.967-3.503 7.252-3.688 12.292-.246 3.687.369 7.19.553 8.603.308 2.766.799 4.917 1.537 6.453m-4.425 10.324c.061-1.475.43-2.642 1.352-2.949 0 0-.799-1.475-1.536-3.565a28 28 0 0 1-1.168-4.732c-.492-3.441-.922-7.067.123-1.229 1.045 5.961 2.274 7.989 2.274 7.989l1.536 2.458a10.6 10.6 0 0 1-.246-3.011c.062-1.168.246-2.765.615-3.995 0 0-1.844-3.687-3.012-7.989a50.6 50.6 0 0 1-1.966-13.95s-1.844 1.413-2.458 8.542a42.4 42.4 0 0 0 4.486 22.431m20.464 54.449-1.229-.798c-.86-.554-.614-2.274-.614-2.274l-.861.614c-.704.535-1.467.988-2.273 1.352-.922.369-1.352.615-1.844.738-.615.184-.492 0 0-.308.492-.245.614-.43 1.844-.86 1.167-.492 3.503-2.581 3.503-2.581l-1.537-.061c-.983 0-2.212-.554-2.212-.554s-.983.861-4.917 2.582a30.7 30.7 0 0 1-7.251 2.15s.43 1.967 2.335 2.643c1.536.676 3.687 1.106 7.928.123a26.7 26.7 0 0 0 7.128-2.766m5.163 3.995c.307-1.659-.615-2.827-.615-2.827l-.799.676c-.614.553-1.475 1.536-3.073 2.397-1.72.799-2.273.737-.676-.123 1.598-.86 3.934-3.257 3.934-3.257l-.615-.246c-.615-.246-1.721.184-6.145 2.827-4.425 2.642-7.006 2.765-7.006 2.765s1.966 2.397 7.374 2.213c5.347-.185 7.252-2.766 7.621-4.425m10.14-1.905s-.615.799-1.414 1.352-2.888.86-2.888.86l-.492.738c-.43.614-1.352 1.843-2.274 2.458-.983.737-2.458 1.229-2.519.983-.062-.184.86-.491 1.782-1.106.922-.553 1.721-1.598 2.335-2.274.615-.737-.246-.614-.246-.614h-2.15c-1.045-.123-.861 0-1.168.43l-1.475 1.843-2.704 3.135c-.615.737-.123.922-.123.922s.246.43 2.643.737c1.474.123 3.072 0 4.793-.983a14.2 14.2 0 0 0 3.196-2.766c2.827-3.134 2.704-5.715 2.704-5.715m1.229 6.453-.861 1.106.738-1.844c.184-.369.43-.614.614-.86-.43-.861-.798-1.844-.983-2.889-.307.861-1.106 3.38-2.089 4.978-1.229 1.967-2.336 2.704-1.66 3.257.738.492 2.09.615 3.688-.122 1.475-.738 1.905-2.028 2.151-3.073a15 15 0 0 1-.738-1.291 3.1 3.1 0 0 0-.799.738zM271.919 100.416c.611 0 1.106-.44 1.106-.983s-.495-.984-1.106-.984-1.107.44-1.107.984c0 .543.496.983 1.107.983"/><path fill="#D4AF3A" d="M269.644 97.527c.983 0 1.475-.492 2.581-.369 1.352.123 3.073.86 5.285 2.028a8.97 8.97 0 0 0 6.023.553c.615-.184 1.229-.553 1.782-.86 2.581-1.475 1.967-4.364 1.967-4.364a10.26 10.26 0 0 1-6.576 1.967l.615.492c.307.368 1.044.86.799 1.044-.246.185-1.23-.737-1.967-1.352a11.9 11.9 0 0 0-3.995-1.966c-2.028-.615-4.301-.615-5.838.246-1.536.799-1.659 1.843-1.413 2.273.123.246.368.308.676.308zm28.392 21.325c-.491-.123-1.29-.246-2.335-1.23a44 44 0 0 1-3.872-4.301c-.307-.492-.184-.922.553-1.229.676-.308 1.23-1.23 1.23-1.23s-1.598-.614-2.643-1.352a27 27 0 0 1-3.81-3.502c-.369-.615-.185-.615.307-.799s.615-.492.615-.492-1.107-.738-2.151-1.598a44 44 0 0 1-2.458-2.212c-1.598.614-4.118.368-5.47.123-2.335-.431-4.056-1.414-4.056-1.414l-.369 1.106c-.307.738-1.413 1.107-2.458.431-1.106-.738-.86-2.274-.86-2.274s-.922-.615-2.704-1.23c-1.844-.675-3.319-.798-4.794-.122s-2.212 2.704-2.212 4.302c0 1.474.86.798.983.614.184-.184.553-1.29 2.397-1.598 1.843-.307 3.503.615 5.654 2.336 2.089 1.72 2.519 1.843 3.626 2.949 1.044 1.107.184 1.66-1.598 2.274-1.844.615-4.179-.614-4.241-.553-.368.185.799 1.844 2.336 2.458 1.597.615 3.564.185 5.1-.491 1.045-.369 1.229 0 1.598.368a9.2 9.2 0 0 1 2.458 5.531 2.45 2.45 0 0 0 1.598-1.843c0-.369.123-1.106.738-.615.614.615 1.044 3.687 1.044 5.039 0 1.353-.43 3.258-.43 3.258h.43l1.414-.738c.676-.43.737 0 .737.799s.246 2.212 1.229 4.794c1.045 2.581 2.52 3.38 2.52 3.38s.307-.492.615-1.537c.307-1.045.491-2.95.491-4.732 0-1.721-.491-5.408-.491-5.408s2.151 2.581 4.301 3.196c2.213.614 4.425.246 5.347-.799s.062-1.537-.369-1.659"/><path fill="#D4AF3A" d="M283.595 125.489s-.615 1.536-1.045 2.028l-.491.614s.614.615 1.597.861l1.844.491s-1.106-1.475-1.475-2.519l-.43-1.414zm13.151-.799a46 46 0 0 0-.491-1.291 9.2 9.2 0 0 1-5.04-1.044s1.045 2.028 2.028 2.765l1.168.738s-1.045.184-2.397-1.23c-1.352-1.229-1.905-2.826-1.905-2.826s.307 3.564-.246 5.715l-.676 2.458s2.827.553 6.023-.369c3.196-.86 3.441-1.167 3.441-1.167s.369-.062-.122-.738a17.2 17.2 0 0 1-1.783-3.073z"/><path fill="#B96B29" d="M290.969 116.886a6.8 6.8 0 0 1-1.106-1.414s-.308.307 0 .799a9.2 9.2 0 0 0 2.642 2.274 6.8 6.8 0 0 0 1.844.737v-.246s-2.397-1.044-3.38-2.15m-3.872 7.374-.246-5.101c0-.614-.43-.491-.43-.491l-.491.184.983 6.514c.061.738.43.615.614.615-.368-.185-.43-1.537-.43-1.721m-6.022-19.297c-.369-.368-1.229-.614-.431.246.799.86 1.844 1.967 2.151 2.888.308.861.492 2.028 0 1.783-.553-.246-.921-.246-1.475-.738a9.2 9.2 0 0 0-1.966-1.29c-.43-.123-1.229 0-.615.614a15.2 15.2 0 0 0 2.459 2.213c1.106.798 1.843 1.229 2.458 1.597q.571.418 1.167.799s-.553-3.687-1.536-5.223a16.2 16.2 0 0 0-2.212-2.889m-19.666 60.964a4.3 4.3 0 0 1-1.721.798s-.491 0-.491.123.614 0 1.106-.061a4.9 4.9 0 0 0 1.598-.86c.307-.246.737-.492.614-.861-.184-.369-.369.307-1.106.861m6.33 3.38-1.352 1.106-.799.43c-.43.123-.553.369-.553.369s.123.123.553 0 1.659-1.045 2.089-1.414c.431-.369.615-.43.431-.614-.185-.185-.246 0-.369.123m-25.75-45.661c.246.245.492.614.615.553.123-.123 0-.308-.307-.615l-.492-.553-.676-.922c-.246-.246-.615-.43-.184.185zm-1.966 4.301.86.799c.307.308.492.676.676.492s-.43-.553-.737-.922a4.6 4.6 0 0 0-.861-.86 6 6 0 0 0-.737-.492zm.737 6.883c.492.553 1.229.676 1.291.492.123-.246 0-.369-.43-.615q-.731-.39-1.414-.86l-.86-.676c-.246-.246-.492-.43-.615-.369-.061.062.676.922.922 1.045s.615.492 1.106.983m1.414 5.531c0-.184 0-.307-.369-.307a16 16 0 0 1-.983-.123s-.799-.307-.799-.123c-.062.185.614.492.922.492l.86.246c.184.123.369 0 .369-.185m.614 6.023c-.86 0-1.598-.184-1.659 0-.062.061.369.307.799.43.491.184 1.229.184 1.843.246.615 0 .615-.123.615-.369 0-.307-.737-.307-1.598-.307m6.76 6.637c-.123-.123-.43 0-.922 0a5.7 5.7 0 0 1-1.72.307l-1.475-.061-.553.123c0 .123.737.123 1.843.246 1.045.122 1.782-.123 2.274-.185.492-.123.676-.307.615-.43zm2.827 4.671a3.4 3.4 0 0 1-1.352.245l-1.352.185s-.492 0-.369.246c0 .184.185 0 .615-.062h1.413c.676 0 1.107-.246 1.537-.307.43-.062.922-.307.737-.615-.246-.246-.737.123-1.229.308m5.47 3.564-1.475 1.106-.738.369c-.43.246-.43.369-.368.492.122.122.368-.185.614-.308.307-.061 1.106-.614 1.536-.983.431-.369.984-.615.922-.922-.123-.246-.184-.061-.491.246m-9.096-45.968 1.045 1.413c.983 1.168.43.062.184-.246l-2.089-2.765c-.492-.553-.553-.307-.307 0zm-1.966 6.022c.123-.123-.185-.246-.738-.922l-1.598-2.028s-.307-.614-.43-.614c-.061.061.369 1.106.799 1.536s1.045 1.229 1.352 1.66c.307.368.43.553.615.368m2.581 11.369c0-.307-1.045-.307-1.537-.368l-1.352-.308s-.983-.184-1.044 0c0 .062.184.185.737.308l2.09.491c.614.062 1.106.185 1.106-.123m-2.581-6.145c.676.614 1.167.86 1.536 1.045.369.245.615.491.86.307.185-.246-.184-.43-.798-.676-.615-.307-.861-.553-.861-.553l-.614-.307c-.369-.185-.861-.369-.123.184m6.084-3.995-.861-.614s-.491-.492-.614-.307c-.123.184.614.614.922.983.368.307.983 1.167 1.229.983.369-.184-.246-.676-.676-1.045m-3.995 15.794-.983.246c-.369.123-.43.246.307.246.676 0 .922-.184 1.659-.307.615-.123.922-.185.799-.431-.123-.184-.491-.122-.737 0zm1.045 5.716c0 .122.492 0 .86-.123.369-.123 1.106-.553 1.537-.615.43-.184.43-.246.43-.492 0-.245-.492 0-1.045.123-.553.185-1.229.738-1.229.738s-.492.246-.553.369m7.375 3.441c.553-.307.614-.492.43-.614-.185-.185-.308-.185-.738.122q-.603.477-1.229.922l-.614.308c-.369.122-.738.43-.615.614.062.062.738 0 1.045-.369.307-.368 1.229-.614 1.721-.983m3.502 4.609c.185-.184.799-.369 1.107-.614.245-.185.43-.799.184-.861-.184-.061-.307.246-.799.615l-2.151 1.475-.43.184c-.492.123-.246.307.123.246.369-.062.614-.062 1.106-.43zm5.101 4.363c.519-.278.995-.63 1.414-1.044.307-.246.676-.615.43-.799-.184-.185-.43.061-.799.369l-1.291 1.352s-.184 0-.614.43c-.615.43 0 .307.123.184.202-.221.455-.39.737-.492"/><path fill="#D4AF3A" d="m284.947 90.152 1.967.86 2.089-1.475-2.458-.614z"/><path fill="#B96B29" d="M293.551 91.197c1.086 0 1.966-.853 1.966-1.905s-.88-1.905-1.966-1.905c-1.087 0-1.967.853-1.967 1.905s.88 1.905 1.967 1.905"/><path fill="#D4AF3A" d="M293.55 90.03a1.168 1.168 0 1 0 0-2.336 1.168 1.168 0 0 0 0 2.336M289.371 82.717c.553.184 1.229.123 1.229.123s.185-.86-.307-1.29l-1.229-1.046-.307-.368-.062 1.229c0 .491.185 1.167.738 1.352zM290.478 84.069a.369.369 0 1 0 0-.738.369.369 0 0 0 0 .737M287.774 83.331l-.491.553s.369 0 .737.246c.308.246.738.43 1.106.369.431 0 .615-.43.492-.615-.061-.307-.246-.614-.922-.799-.614-.245-.799 0-.922.246m1.352 2.274c-1.229.123-2.888-1.229-2.888-1.229-.123 1.106-.799 1.66-1.844 1.844l.062.061s.983.492 2.151.676c.515.052 1.036.01 1.536-.123.615-.123 1.414-.307 1.844-.614.737-.43.491-1.598.491-1.598s-.122.922-1.352.983m-4.854-1.229c-.492-.184-1.23-.553-1.598-.615-.308 0-.738 0-.676.553.061.615.676.86 1.229.86.614 0 .922-.184 1.29-.368.369-.184.308-.246-.245-.43m-3.872-2.09c-.553-.43-1.045-.553-1.045-.553s-.369.984-.184 1.598c.246.615.614.738 1.229.738.491 0 1.229-.308 1.045-.738a3.1 3.1 0 0 0-1.045-1.044M280.891 85.297c.238 0 .43-.138.43-.307 0-.17-.192-.308-.43-.308-.237 0-.43.138-.43.308s.193.307.43.307M282.12 80.197a6.76 6.76 0 0 1 1.229-5.715c1.536-2.213 4.302-3.135 4.302-3.135l.922-1.106c.86-.921 2.581-2.09 2.581-2.09l-3.196.923a1.4 1.4 0 0 1-.37 1.017 1.42 1.42 0 0 1-.982.458 1.54 1.54 0 0 1-.799-.246c-.614.061-2.704 1.352-3.257 1.782l.184.737a1.41 1.41 0 0 1-1.352 1.414c-.245 0-.43 0-.614-.123q-.097.15-.184.307a14.3 14.3 0 0 0-1.045 2.274c.369.246.614.676.614 1.23 0 .798-.553 1.413-1.229 1.413a5 5 0 0 0 0 .921c.062.43.246.738 1.045.984.799.184 1.905 1.598 1.905 1.598.062 0 .615-.984.246-2.643"/><path fill="#D4AF3A" d="M287.035 69.75c.308-.247.369-.615.123-.861-.245-.185-.614-.185-.921.061s-.369.615-.123.86c.184.185.614.185.921-.06m-5.223 3.502c.368-.307.43-.799.184-1.045-.307-.245-.737-.245-1.106.062s-.369.799-.123 1.044c.246.246.737.246 1.106-.061zM278.74 78.476a.798.798 0 1 0 .001-1.597.798.798 0 0 0-.001 1.597M296.07 66.493c-.43.123-1.229.369-2.335.983.799 0 1.414.492 1.414 1.168 0 .614-.676 1.352-1.475 1.352a1.35 1.35 0 0 1-1.352-1.352l.061-.43-1.045.737a10.8 10.8 0 0 0-4.424 4.916c-1.23 2.336-1.721 4.917-1.23 6.392.615 1.536 2.582 1.843 2.643 1.843 0 0-.246-.184-.307-.491l.184-.984v-1.29s.492-.062.738.246l.86 1.044.983.922s.369-.614.369-1.29-.43-1.414-.553-2.643c-.062-1.229.614-3.38 1.721-4.916 1.229-1.598 3.38-3.073 4.056-3.38a1.29 1.29 0 0 0 .799-1.045l.184-1.23c0-.737-.615-.675-1.229-.552z"/><path fill="#D4AF3A" d="M293.551 69.258c.43 0 .86-.43.86-.799 0-.368-.368-.614-.799-.614-.491 0-.86.246-.86.614 0 .369.369.8.799.8m3.81 14.995c.615.246 1.291.062 1.598-.123a.69.69 0 0 0 .061-1.106 1.23 1.23 0 0 0-1.29-.123l-1.229.8s.246.306.86.552"/><path fill="#D4AF3A" d="M299.326 84.929c-.245.369-.43.553-1.106.615-.614 0-1.413 0-1.843-.492a4.7 4.7 0 0 1-.799-1.045h-.738s-.246 1.045-.614 1.29c-.308.308-1.537.37-2.028 0-.553-.43-.984-.86-1.107-.798-.061 0 0 .43.554.86.553.43.921.8 1.782.8h4.916s.983 0 1.229-.615c.308-.553.308-.922.185-1.045-.123-.184-.246.061-.431.43"/><path fill="#D4AF3A" d="M291.829 84.13c.738.369 1.168.123 1.414-.184l.368-.492-1.044-.43c-.369-.246-.615-.43-.922-.369l-.369.062s-.184.983.615 1.352z"/><path fill="#B96B29" d="M288.327 78.476c.917 0 1.66-.715 1.66-1.597 0-.883-.743-1.598-1.66-1.598s-1.659.715-1.659 1.598c0 .882.743 1.597 1.659 1.597M291.154 71.224c-.615-.43-1.598-.246-2.151.369-.553.676-.431 1.597.245 2.028.615.43 1.598.246 2.151-.369.492-.676.431-1.598-.245-2.028"/><path fill="#D4AF3A" d="M288.265 77.554c.543 0 .983-.413.983-.922s-.44-.922-.983-.922c-.544 0-.984.413-.984.922s.44.922.984.922M290.477 71.409a1.105 1.105 0 0 0-1.229.491c-.185.369.061.738.614.86 1.045.185 1.537-1.106.615-1.351m-25.012 126.597s-2.52 1.229-3.319 1.413l-.983.246s-1.721 1.537-3.011 2.335a11.2 11.2 0 0 1-4.364 1.475c-1.966.246-7.374.185-9.832.062-2.459-.062-3.934.491-4.978 1.659-1.045 1.229-1.291 2.888 0 4.179 1.352 1.291 2.827.615 3.318-.123.492-.799.246-1.844 0-2.274-.184-.491.43-.614 1.106-.676 2.271-.035 4.52.449 6.576 1.414.799.43.369.491-.184.43-.615-.123-1.229-.307-2.151-.676-.983-.369-1.844-.615-2.458-.615s-.431.308-.308.553l.615.984c.061.246-.184 1.167-.184 1.167l.307.615.491-.922c.123-.307-.061-.922.062-1.229.123-.246.614-.246 1.045.246a4.1 4.1 0 0 1 1.106 2.151c.184 1.229-.185 2.028-.185 2.028s.492.43.615.676l-.184 1.413s.368.185.614-.43c.369-.614.738-1.844.799-2.212.123-.431.369-1.168.86-.615.492.615.861 1.229.922 1.598l.123.615s1.106-1.045 1.475-1.721a10.5 10.5 0 0 1 2.212-2.397c1.045-.86 2.827-2.581 3.688-3.196.922-.614 3.195-1.843 3.933-2.212.676-.43.799-.492.922-1.659.123-1.229.737-2.336.983-3.135zm-40.438-45.292c0-.246-.43-.922-.491-1.291-.123-.369-.492-.184-.492-.184s-.799.491-1.413.614c-.615.185-.615 0-.738-.369l-.307-1.966c-.123-.615-.246-.615-.492-.492l-1.475.615c-.553.184-.368.43-.184.737l.983 1.905c.308.431 0 .615-.246.799l-1.413.369c-.615.246-.615.369-.492.615 0 .184.492 1.044.676 1.413.246.369.431.123.431.123s.676-.615 1.229-.86c.553-.246.614-.185.737.245l.922 2.95c.123.43.307.369.614.246l.984-.246c.307-.123.43-.799.43-.799l-1.536-2.704c-.308-.614 0-.676.245-.737.246 0 .984-.123 1.598-.307.615-.123.43-.492.43-.738zm13.705 59.304c-.062-.492 0-1.045-.369-1.414a5 5 0 0 1-1.106-1.844c-.184-.614.184-.983.123-1.352-.062-.368-.615-.368-1.045 0-.492.431-1.168.799-1.168 1.967 0 1.229.431 2.581 2.09 3.073 1.598.491 1.598.123 1.475-.369zm1.659-.554s-.307-.184-.492.123c-.122.308-.122.431.308 1.168.43.615.737.799 1.229 1.106.491.307.123-.307.061-.491 0-.185 0-.431-.123-.615-.122-.184-.184-.307-.184-.799s-.799-.492-.799-.492"/><path fill="#D4AF3A" d="M242.42 217.057c.307-.492.614-.615 1.29-.922a9.4 9.4 0 0 1 2.581-.615c.431 0 1.537-.86 1.352-1.843-.184-.861-.86-1.229-1.413-1.352-.615-.185-1.106-.185-1.291.123-.184.307-.553.614-1.229.86s-.676.43-1.106.615c-.369.061-.061.307-.43.614-.307.246-.799 0-1.291-.184-.553-.123-.614-.246-1.167-.246l-2.09-.123h-.43c-.369 0-.369 0-.553.369s.061 1.29.43 1.782c.369.43 1.598.615 2.397.922l1.844.491c.737.062.798 0 1.106-.491m7.497.737c.615-.43.246-1.229.123-1.659-.184-.43-1.045-.553-1.536-.553-.43 0-.676 0-.922.246-.246.184-.615.491-1.229.737-.738.185-1.229.43-2.213.799-.921.369-1.229.983-1.597 1.229-.369.246-1.168 0-1.168 0s-.553-.123-.737 0c-.185.185 0 .492.368.922.369.369 1.106.369 1.844.615.86.245.983 0 1.29-.185.308-.184.615-.614 1.107-.983.614-.369 1.843-.43 2.396-.492.615-.061 1.598-.245 2.274-.676m0-2.827c.246.246.615.615.799.185.246-.369.615-1.229.369-1.721s-.615-.922-.615-.922l-.614 1.844c-.246.307-.246.369 0 .614zm-2.458-4.301c0-.738-.615-1.721-.615-1.721s-.184.737-.553 1.352c-.307.614-.614.983-.614.983l1.045.246c.307 0 .676 0 .676-.799zm-4.671 1.72c.861-.123 1.291-.491 1.66-.799.368-.307.614-1.167.368-1.597-.245-.431-.86-.861-1.106-.861h-.491s-.246.799-.615 1.229c-.307.369-.676.615-.614 1.168 0 .492-.062 1.045.798.86m1.721-3.871a1.48 1.48 0 0 0-.369-1.168l-.491-.43-.123.983-.062.369.431.369c.245.061.614.245.614-.123m-10.631-21.94.614-3.687a23.96 23.96 0 0 0-3.872-9.464c-1.475-2.335-3.072-6.146-3.687-8.112a23 23 0 0 1-1.229-6.146c0-1.413.615-2.151.615-2.151s.307-.368.061-.614-.615 0-1.045.369a4.6 4.6 0 0 0-.922 1.597l-.184.676s-.737-.184-2.028-.061c-1.229.123-1.844.184-1.844.492 0 .245.185.43 1.045.86.922.369 1.475.553 1.905 1.045.492.553 1.598 3.195 1.967 4.486s1.106 4.793 1.413 7.497a30.1 30.1 0 0 0 2.458 8.85c.492.922 2.766 5.224 4.733 4.302zm2.273 6.392c-.86.491-.799 3.933-.43 5.715s2.09 3.994 2.643 4.609.614.614.922.43l.43-.123s.737-.307 1.29-.737c.615-.43.369-1.537.246-2.458-.061-.984-.86-2.95-2.212-5.224-1.352-2.212-2.028-2.704-2.889-2.212m.922-2.766c0-1.168-.983-1.967-2.089-1.967q-.83 0-1.291.369c-1.167 1.045-.43 3.565 1.229 3.565.553 0 1.229-.062 1.66-.492.43-.369.491-.983.491-1.475m16.286 32.387a4.3 4.3 0 0 1-1.352-.738 6.1 6.1 0 0 1-1.905-1.843c-.185-.431-.185-.431-.861-.246-.614.246-1.536.184-2.212.246-.615 0 .123.799.614 1.475.431.737.246 3.134.246 3.134l-.061.553c-.123.369 0 .614.123.614.184.123.307 0 .799-.614.491-.553 1.352-1.967 1.352-1.967l.86.185c.737.184 1.905.061 2.52-.123.614-.185.368-.615-.123-.676"/><path fill="#D4AF3A" d="M250.533 224.431c-.308 0-.43-.061-.615.123l-.368.861c-.062.184-.001.368.122.553l.492.307s.246.307.492.43c.307.123.307-.246.307-.553l.184-1.167c0-.369-.245-.492-.614-.554"/><path fill="#1D5E91" d="M370.86 201.202c-.798-.185-1.167-.492-1.167-.492s-.307 0-.615.43c-.184.492-1.229 1.106-1.229 1.106s-1.352.369-1.536 1.352c-.185.922.491 1.23 1.106 1.168.676-.123 2.274-.43 3.011-1.29.676-.861.799-1.352.922-1.66s.246-.43-.553-.614zm2.151-7.621a9.22 9.22 0 0 0-4.547-6.084l-1.291 4.609c-.307 1.107-.307 1.045.553 1.229l4.118.984c.553.184 1.475.614 1.167-.738m-12.659-1.966c.614.061.614-.185.799-1.045l1.29-5.039s-2.765-.062-5.224 1.106c-2.396 1.168-3.441 3.318-3.441 3.318s.615.246 2.274.615 3.687.922 4.302.983zm-6.453 5.715-1.352-.246s.614 2.336 1.659 3.688 2.151 1.966 4.302 2.028c2.151 0 3.687-1.168 3.995-2.09.245-.922.676-1.598.676-1.598s-3.811-.491-5.408-.86z"/><path fill="#D4AF3A" d="m353.222 195.855 9.526 1.844c.614.184 1.229.307 1.352.122.184-.184.307-.307.983-.553.738-.245.676-.921.676-.921l.246-1.352c.123-.615.492-.861 1.229-.062.799.799.922 1.967 1.045 3.073.184 1.229 1.966 1.475 2.704 1.598.676.123.983-.123 1.413-.799.43-.615.615-1.967.738-2.827.123-.861 0-.738-.861-.983l-5.715-1.352c-.737-.123-.614-.615-.43-1.168.061-.492 1.721-5.654 1.721-5.654a11.6 11.6 0 0 0-4.732-1.413l-1.414 6.145c-.184.799-.737.799-1.536.615-.861-.123-6.945-1.537-6.945-1.537l-.491 1.106a9.5 9.5 0 0 0-.676 3.196c0 .738.246.738 1.167.922"/><path fill="#D4AF3A" d="M374.118 200.649c-.799-.554-1.413-.676-1.843.307s-.43 2.458-1.475 3.441c-1.106 1.045-2.581 2.09-4.056 1.967s-2.274-.43-1.967-2.151c.369-1.659 2.643-2.212 3.134-3.073.554-.922.431-1.905-.368-2.581s-1.905-.799-2.213-.614a4.9 4.9 0 0 0-1.72 2.273c-.431 1.229-.738 2.274-1.721 3.073a7.5 7.5 0 0 1-5.531 1.229c-1.905-.491-2.643-1.106-3.38-3.073-.738-1.905-1.598-5.1-1.967-5.53-.43-.308-.921-.615-1.72 0-.861.614-.922 1.474-1.045 2.212-.123.676 0 1.536.86 2.52.861 1.044 1.721 2.028 2.028 3.072.308 1.106 1.229 2.704-.061 2.766-1.352.123-1.967.123-2.95-.861-1.045-.983-5.039-3.687-6.146-4.547a18 18 0 0 0-1.536-1.229c-1.844 0-3.687-.738-5.531-2.028 0 0 1.106 2.704 1.291 3.748.246 1.045.184 1.598.184 1.598l5.592 2.827a103 103 0 0 1 6.33 3.565c1.537.921 2.889 2.458 5.593 1.843 2.765-.553 8.296-2.212 10.14-2.765 1.782-.553 6.76-1.782 8.603-3.073 1.844-1.229 1.967-1.168 2.274-2.458.308-1.229 0-1.905-.799-2.458m-10.57-19.051 1.352-.185c.922-.061.615.799.43 1.168l-.86 1.659c-.369.615.123.738.369.86l1.413.369c.799.185.615-.369.615-.614l.184-2.336c.062-.553.615-.368.738-.307l1.044.615c.369.184.615 0 .615-.246l.491-1.229c.123-.615-.245-.492-.614-.492h-1.475c-.615 0-.246-.614-.246-.614l.799-1.291c.369-.553.246-.615-.123-.737l-1.721-.431c-.307-.061-.43 0-.43.185l-.061 1.659c0 .43 0 .615-.615.615-.491.061-.799-.246-1.229-.676-.43-.492-.614-.308-.614-.123l-.492 1.843c-.123.43.061.369.369.369zm2.95 13.397s-.061 1.044-.184 1.413c-.123.43-.369.983.061 1.106.492.123.86.308 1.106.246.308-.061.185-.614 0-1.045a3.9 3.9 0 0 0-.676-1.352zm6.453 4.302c.123.307.43.368.614.43.246.061.615.061.615-.308 0-.368 0-.921-.307-1.352-.308-.491-.492-.798-.676-.122-.246.614-.369.983-.246 1.352m-22.554-4.302.86.246s0-1.045.185-1.721c.122-.738.43-1.229.184-1.229s-.43.246-.615.553c-.184.307-.676.369-.86 1.229-.184.799.061.86.246.86z"/><path fill="#B96B29" d="M354.822 194.626a1.413 1.413 0 1 0 0-2.826 1.413 1.413 0 0 0 0 2.826M358.877 195.671a1.475 1.475 0 1 0 0-2.95 1.475 1.475 0 0 0 0 2.95M370.616 198.19a1.474 1.474 0 1 0 0-2.949 1.474 1.474 0 0 0 0 2.949M362.934 196.654a1.475 1.475 0 1 0 0-2.95 1.475 1.475 0 0 0 0 2.95M363.977 193.09a1.476 1.476 0 1 0-.002-2.952 1.476 1.476 0 0 0 .002 2.952M365.022 189.586a1.475 1.475 0 1 0 0-2.95 1.475 1.475 0 0 0 0 2.95"/><path fill="#D4AF3A" d="M354.944 193.766a.737.737 0 1 0 .001-1.475.737.737 0 0 0-.001 1.475M358.939 194.81a.737.737 0 1 0 0-1.474.737.737 0 0 0 0 1.474M370.737 197.269a.738.738 0 1 0 0-1.476.738.738 0 0 0 0 1.476M362.995 195.733a.737.737 0 1 0 .001-1.475.737.737 0 0 0-.001 1.475M364.101 192.229a.737.737 0 1 0 0-1.474.737.737 0 0 0 0 1.474M365.146 188.665a.737.737 0 1 0 0-1.475.737.737 0 0 0 0 1.475M318.317 222.649l-3.196-2.213a7.25 7.25 0 0 1-2.396-2.458h.614c.369 0 .615-.43.615-.922.061-.491 0-1.413-.123-2.519a5.3 5.3 0 0 1 .184-2.028s.799.676 1.905 1.229c1.168.614 1.598.368 1.598.368l.307-1.167 1.229 2.274c.615 1.229 2.52 2.581 3.872 3.564 1.352 1.045 2.827 2.089 3.933 2.458 1.106.43.492.922.492.922s-1.106 1.106-3.995 1.659c-2.888.492-4.302-.614-5.039-1.167"/><path fill="#D4AF3A" d="M308.299 221.543c1.045-.123 1.659-.492 1.843-1.598.123-.737-.061-3.503-.061-3.503l.737.738c.369.491 1.23.614 1.23.614s.122.369.553.983a5.7 5.7 0 0 0 1.843 1.967c.984.615 2.151 1.352 2.889 1.967a17.3 17.3 0 0 0 2.581 1.905 4.3 4.3 0 0 1 2.212 2.888c.369 1.475.062 1.905-1.045 1.844-1.167-.062-1.229 0-3.072-.431-1.844-.491-4.487-2.519-6.392-3.687-1.905-1.229-3.318-3.687-3.318-3.687"/><path fill="#D4AF3A" d="M303.261 223.203s.737-.984.983-2.09l.86-3.318.861 2.028a3 3 0 0 0 1.72 1.659s0 .553.922 1.659a12.9 12.9 0 0 0 3.442 2.95c1.352.737 3.072 1.844 3.994 3.134.922 1.352.984 2.704.615 3.319-.492.614-1.106-.062-1.967-.553-.922-.431-3.441-.799-6.883-2.704-3.441-1.844-4.609-6.084-4.609-6.084z"/><path fill="#D4AF3A" d="M301.723 231.007c-.983-1.475-1.106-4.917-1.106-4.917l.799-.614c.43-.43 1.352-1.782 1.352-1.782l1.229 2.335c.615 1.106.861 1.475 2.213 2.642 1.229 1.23 3.072 2.397 3.748 3.688.799 1.229.369 3.749-.123 4.609-.491.922-1.229.614-1.905-.062l-2.212-2.028c-1.291-1.044-3.073-2.458-3.995-3.871"/><path fill="#B96B29" d="M313.094 201.878c-.492-1.045-1.107-2.274-1.537-2.95a9.3 9.3 0 0 1-.799-1.352s1.229 1.106 1.721 1.905c.492.86.799 1.598.983 2.458.246.861.123.984-.368 0zm-4.917.922-.307-1.168s-.185-.615-.123-.676c.123-.062.614.369.983 1.536.369 1.107.922 2.766.799 2.827-.123 0-1.168-1.843-1.352-2.519m-3.872 3.072-.245-.491s-.369-1.229-.369-1.537c0-.245.123-.614.43.062s.369 1.352.43 1.598c.062.307.43 1.29.308 1.413-.062.062-.308-.553-.615-1.045zm11.984 11.8.553-.308.738.922c.43.43.922.615 1.229 1.045a4.9 4.9 0 0 0 1.721 1.413c.798.431 1.106.615.921.676-.123.123-.676-.184-.676-.184s-.245 0-1.229-.614c-.922-.554-1.167-.861-1.782-1.414zm-4.179 4.978c-.369-.369-.737-.615-.553-.861.246-.184.492-.184.799.123l1.782 1.598 1.229.922c.431.368 1.414.86 1.844 1.106.492.307 0 .307 0 .307l-.737-.307-1.475-.615-1.045-.614c-.615-.43-1.475-1.229-1.844-1.659m-4.793 3.38c-.308-.615 0-.492.491-.246.553.184 1.721 1.475 2.397 1.905.615.491 1.229.676 1.844.983.491.246.491.43.491.553s-.245.123-.491 0l-1.045-.553-.615-.123c-.307 0-.798-.368-1.474-.983s-1.291-.922-1.598-1.536m-2.274 4.424c.86.492 2.335 1.66 2.704 2.459.369.737.614 1.29.553 1.413-.184.123-.615-.123-.737-.43l-.615-.738s-1.475-1.475-1.967-1.843a5.1 5.1 0 0 1-1.659-1.844c-.184-.614 0-.86 0-.86s.861 1.29 1.721 1.843"/><path fill="#C52126" d="M327.842 106.438a13.7 13.7 0 0 1 5.101-1.598c2.212-.184 3.933.123 5.838.615 1.29.369 2.397.43 3.441.184 1.598-.43 2.827-1.843 3.257-3.687 0 0 1.475 1.905 0 3.995a4.43 4.43 0 0 1-2.642 1.782c-3.134.614-6.207-1.229-8.788-1.475-2.52-.123-4.486 1.475-4.486 1.475s-.615.491-1.475 0c-.799-.492-1.045-.861-.246-1.352z"/><path fill="#D4AF3A" d="m336.814 197.084.738-.123c.43 0 1.352-.368 1.659-.491s.738-.123.983.184c.308.307 2.52 1.659 2.52 1.659h-3.687c-1.291 0-2.151-1.229-2.151-1.229z"/><path fill="#D4AF3A" d="M326.367 196.408v-.307l.492-1.107s.614.369 1.106.922a28 28 0 0 1 1.844 2.274c.614.799 1.536 1.536.799.307-.738-1.229-.984-1.843-1.598-2.704l-.984-1.229 2.09-.307c1.536-.184 2.581-.799 3.257-1.229l2.028-1.168s2.643 1.168 3.687 1.414c.984.246 1.537.368.615.86-.983.492-1.844.615-2.274.922a7.4 7.4 0 0 1-2.827.737c-.922 0-2.458 0-1.844.615a13.52 13.52 0 0 1 2.582 7.989l-.062 1.536s-1.106-1.229-4.056-3.072a43 43 0 0 0-4.548-2.704c-.553-.246-.799-.246-.737-.922z"/><path fill="#D4AF3A" d="M315.182 187.559q.248-.121.492-.246h.184c.308.185 2.09 1.414 2.827 2.581s1.475 1.229.615 0a11 11 0 0 0-1.967-2.581q-.3-.254-.614-.492a32.6 32.6 0 0 0 4.486-2.581c.246.369.615 1.045 1.045 1.537.614.614 1.966 1.229 1.966 1.229s-1.106-1.229-1.475-2.028l-.491-1.537a19.5 19.5 0 0 0 2.95-2.826c.184.798.798 2.581 2.581 4.547 2.273 2.581 6.883 3.872 6.883 3.872s1.597.184.307.553c-1.291.307-2.212.922-4.794.492l-3.072-.676c-.308-.123-1.229 0 0 .43 1.29.491 4.302.922 5.408.86 1.106-.123 2.704-.369 1.044.492-1.597.86-2.273 1.229-3.257 1.229-.983 0-1.413.307-2.458.307-.922 0-1.229-.184-1.844-.307-.737-.184-1.167.061-1.167.369 0 .245.922 1.044.922 2.888 0 1.905-.185 3.134-.369 3.687-.184.615-.615 1.475-.86 1.967-.246.492-.369 1.045-.615-.062-.307-1.106-.922-2.704-1.168-3.748l-.491-1.66c-.062-.553-.676-.983-.369 0q.4 1.591.737 3.196c.246.922.676 2.581-.122 1.229-.799-1.229-3.934-4.732-4.425-5.408l-1.291-1.721c-.43-.491-1.475-1.167-1.966-1.905a17.5 17.5 0 0 0-2.459-2.458zm42.712-79.4c-.062 1.905-2.151 5.531-3.38 7.498-1.23 1.905-1.537 2.704-1.291 2.827.184.123.676-.861 1.352-1.721l3.011-4.425c1.045-1.536 2.581-5.162 2.827-5.469.185-.308.246-.553.799-.123s1.598 4.424.307 7.128c-1.229 2.705-3.072 4.671-3.81 5.654-.799.922-1.843 2.459-1.659 2.52.184.123.43-.246 1.413-1.229a29 29 0 0 0 5.9-7.682c.123-.246.307-.184.492 0 .307.307.86 1.106.614 3.257a10.45 10.45 0 0 1-3.257 6.269c-1.413 1.474-2.827 2.765-2.642 3.011.245.184 1.659-1.106 2.642-2.028.983-.983 3.442-3.319 3.933-3.995.615-.614 1.352-.307 1.291 2.274 0 2.643-2.889 5.224-4.118 6.699-1.229 1.413-2.642 2.274-2.519 2.581s1.29-.43 2.089-.984l4.302-2.826c.553-.431.799.368.061 2.826-.737 2.459-2.826 4.425-4.117 5.347-1.229.922-3.319 2.028-3.196 2.335.123.246.984-.123 2.151-.676 1.229-.614 2.643-1.106 3.688-1.413.983-.307.983.43.983.43s.246 2.151-1.291 3.81a8.17 8.17 0 0 1-4.916 2.643c-1.598.307-1.844.369-1.844.614 0 .246.246.308.615.308l3.257.123c1.413 0 2.151.368 2.151.983 0 .614 0 1.413-2.028 2.827-2.151 1.413-4.486 1.598-5.47 1.843-.983.185-.983.246-.799.554.185.307.615.245 2.213.43 1.536.123 2.458.737 2.704 1.229.184.369-.123 1.598-1.414 2.458-1.229.86-2.888 1.168-5.346.983s-3.073-.184-3.196.185c-.061.43.738.614 1.967.737 1.229.246 2.212.246 2.888.799.737.615.184 1.782-1.045 2.643-1.167.86-4.117.86-5.346.799-1.229-.123-3.134-.554-3.257-.246-.123.368.921.86 2.151 1.29 1.29.492 1.659.738 1.905 1.291.245.553 0 1.045-1.475 1.598a7.38 7.38 0 0 1-4.917 0c-1.106-.492-1.72-.676-1.966-.492-.185.184 0 .43.246.676.245.307 1.229 1.106 2.519 1.413 1.229.369 1.414.369 1.844 1.352.492 1.045-.676 1.844-3.011 1.967-2.274.061-5.347-.86-6.33-1.413-.984-.615-1.352-.676-1.537-.492s-.123.307.369.676 2.028 1.536 2.827 1.721c.799.184.86.799.86 1.29 0 .615.246 1.598-1.843 2.151-2.028.492-4.486.123-6.699-1.475a5.1 5.1 0 0 1-1.352-1.229 17.2 17.2 0 0 0-.184-4.916c.43 0 1.229-.185 2.089-.553 1.229-.492 1.721-1.598 2.028-2.213.308-.614.738-.614 1.229-.491.492.184.984.368 1.66.368a4.86 4.86 0 0 0 3.257-1.72c1.044-1.229.86-2.459.922-3.073 0-.615.983-.185 1.474-.185.492 0 1.967-.245 3.258-1.167 1.352-.861 1.352-2.09 1.475-2.643.122-.491.614-.799 1.044-.983.43-.123 1.045-.307 1.967-1.045.922-.737 1.229-2.151 1.229-2.704.123-.491.614-.491 2.458-1.475 1.844-.921 1.721-2.888 1.598-3.687 0-.799-.922-1.413-.922-1.721 0-.307.615-.368 1.229-.737s2.213-.983 2.213-3.319c0-2.274-1.475-2.519-1.475-2.519l.921-.492c.615-.369 2.274-1.536 2.274-2.888s-.614-1.967-1.044-2.336c-.431-.307-1.66-.614-1.66-.614s.738-.553 1.106-1.598c.308-1.045.431-2.397-.368-3.319-.738-.983-2.09-.983-2.766-.983-.737 0-1.352.369-1.598.184-.245-.184-.245-.368 0-.921.246-.492.246-1.844.062-2.274-.184-.492-.246-1.352-2.028-1.967-1.782-.553-3.626.615-4.179.984-.615.307-.307-.492-.307-1.045 0-.615 1.167-2.028 2.519-4.056 1.352-2.09 1.967-3.134 3.503-6.269a40.3 40.3 0 0 0 2.704-8.235c.246-.983.615-.491.615-.491s.43.123 1.352 2.519a15.4 15.4 0 0 1 1.045 6.453"/><path fill="#D4AF3A" d="M326.86 150.317c1.044-.061 2.458-.614 3.503-2.212 1.044-1.537 2.642-1.844 5.408-1.844 2.765.062 4.056-1.229 4.732-3.195.614-1.844-.123-4.057-2.95-5.47-2.766-1.352-4.056-2.888-4.179-5.285-.062-2.397 2.827-5.347 5.715-8.665 2.95-3.38 5.224-8.112 5.224-8.112s.86 1.106.86 2.274c0 1.106-.43 2.273 0 2.581s.553-.492 2.274-1.229c1.659-.738 3.073-.861 4.117.368s0 3.319-.983 4.302c-.922 1.045-1.721 1.844-1.475 2.151.246.369 1.721-.553 2.151-.86.492-.308 1.598-1.537 3.257-1.414 1.66.185 2.213.615 2.397 2.028.123 1.414-1.475 2.581-2.581 3.134-1.045.554-1.475.984-1.229 1.23.307.184.614 0 1.045-.185a4.9 4.9 0 0 1 2.642 0c.861.369 2.213 1.537.983 2.95-1.29 1.413-3.933 1.967-4.486 2.028-.491.123-.799 0-.86.369 0 .43 1.106.43 2.581.491 1.413.062 1.844 1.475 1.659 2.459-.246 1.106-2.642 2.273-3.933 2.458-1.352.246-1.844 0-1.905.43-.123.369.123.492.86.737.738.185 2.213.369 2.459 1.537.245 1.167.307 1.659-.799 2.704-1.107.983-2.889.86-3.442.737s-1.167-.676-1.721-.184c-.491.553.492.983 1.414 1.598.922.614.86 1.843-.676 2.704-1.536.86-3.073.553-3.687.307-.615-.184-1.537-1.229-1.967-.615-.43.676 1.352.922 2.09 1.844.737.86.491 2.335-.984 3.257-1.536.922-3.933.246-4.363-.123-.43-.368-.983-.491-1.229-.184-.369.307.123 1.168.43 1.844.307.799.922 2.949-1.352 3.81-2.274.86-4.24-1.045-4.609-1.414-.369-.368-.738-.43-1.045-.307-.307.184-.123.492.123.86.246.369.86 1.967-.737 3.073a3.87 3.87 0 0 1-2.889.615c-.368-1.229-.799-2.581-1.229-4.425h.307c.246 0 .308.307.308.43s-.062.246.123.246c.184 0 .184.123.491.307.246.185.492.43.615.308.184-.123-.553-.492-.738-.738s-.614-.614-.614-.86-.123-.369-.492-.676a1.5 1.5 0 0 1-.307-.369 60 60 0 0 1-.738-4.425 35 35 0 0 1-.245-3.38zm45.292-33.063c-2.397 4.794-5.715 7.436-5.715 7.436l.614-1.966c.184-.86.062-1.782.062-1.782s.86-1.045 2.396-3.442c1.537-2.396 2.336-5.899 2.336-5.899s-1.414 3.503-2.52 5.408a35 35 0 0 1-2.458 3.38s-.43-1.66-.738-1.721c-.307-.123-.614.123-.86.492-.246.368-.492.368-.492.368l.922-1.72.983-1.352c.861-1.414 2.766-4.057 3.688-6.699a104 104 0 0 0 3.503-11.246c.43-1.967.799-.86 1.167.553.369 1.413.861 3.503.553 6.575a32.9 32.9 0 0 1-3.441 11.615m-3.073 12.906a83 83 0 0 1-2.151 1.536l.308-1.044.184-1.783 1.782-1.536a25.7 25.7 0 0 0 3.442-3.687c1.782-2.213.307-.861-1.168.737-1.414 1.598-4.24 3.872-4.24 3.872v-.492a1.9 1.9 0 0 0-.431-1.167c-.246-.369-.123-.369 1.414-1.598a45.4 45.4 0 0 0 10.816-14.995s.922 5.531-2.458 11.492c-3.319 6.084-6.637 7.989-7.498 8.665m-17.515 34.599c-1.843-.737-1.352-2.52-1.352-2.52s1.107.308 2.151.738c1.493.533 3.038.903 4.61 1.106.983 0 .983-.123 1.044-.246 0-.123-.799 0-2.274-.246a17.8 17.8 0 0 1-4.424-1.905c-.431-.307-.369-.368.307-.43a2.76 2.76 0 0 0 1.413-.553c.246-.184.922.062 2.582.492a31.1 31.1 0 0 0 13.212.43c.431-.123.861.123-.43 2.274-1.229 2.151-5.715 3.257-8.849 3.257-3.073 0-6.146-1.721-7.99-2.397m8.235-4.425c-3.195 0-4.424-.921-4.424-.921l.43-.799c.43-.676.369-1.783.369-1.783l2.089.369c1.352.185 2.888.369 4.609.062 1.721-.308.983-.492-.369-.308a17.8 17.8 0 0 1-4.793-.614c-.86-.307-.553-.615 0-.799.615-.185 2.151-1.168 2.151-1.168s3.872.492 7.497.123c3.626-.43 5.9-1.352 6.638-1.475.676-.123.676.185.676.185s.184.368-1.045 2.273c-1.229 1.967-3.687 3.258-5.777 3.872a30.9 30.9 0 0 1-8.051.983m.799-7.497.369-.799c.184-.615-.369-1.168-.369-1.168s.738-.184 3.073-.491c2.458-.308 2.581-.492 3.995-.799 1.475-.369 2.458-.799 2.458-.922 0-.184-.492 0-1.352.369a58 58 0 0 1-8.788 1.167c-.246-.184-1.229-.43-1.229-.43l1.475-.307a5.2 5.2 0 0 0 1.966-.799c.43-.307.615-.369 2.52-.615 1.966-.184 3.564-.799 7.067-2.089 3.442-1.229 6.146-2.827 6.76-3.38.738-.615.676-.184.492.614-.185.676-.123 1.598-1.905 3.688-1.782 2.028-2.643 2.95-7.068 4.547-4.486 1.66-9.464 1.414-9.464 1.414m13.152-10.816a24.9 24.9 0 0 1-9.526 3.933c-.184-.246.246-1.229 0-1.721-.184-.676-.614-.676-1.598-.737-.921-.062-.307-.246-.061-.246l1.844-.43c1.536-.43 3.134-.676 5.285-1.475 2.212-.861 2.827-1.414 2.765-1.598 0-.184-.983.492-3.011 1.229-1.967.799-4.302 1.106-5.531 1.414-1.352.245-.246-.308.369-.615.614-.369 1.475-1.721 1.475-1.721s1.413-.246 3.687-.922a30 30 0 0 0 6.145-2.581l1.967-1.352 3.196-2.274c.799-.614.553-.122.43.246-.123.369-.615 1.967-1.844 3.749-1.229 1.844-1.659 2.335-5.531 5.101zm.614-7.805c-3.81 3.073-7.19 4.056-7.743 4.302-.615.246-.492-.123-.43-.43.123-.308.184-1.352.184-1.352l2.95-1.721c1.536-.86 3.257-2.09 4.425-2.888 1.106-.799.43-.738.061-.431-.307.308-1.905 1.229-3.503 2.213l-3.933 2.396s0-.553-.369-.86c-.307-.307-1.167-.246-1.167-.246l.614-.799c.308-.368 1.598-.799 3.012-1.475 1.413-.614 3.994-2.581 5.899-4.178 1.905-1.598 5.593-5.593 5.838-5.962.246-.307.431-.245.431.185 0 .368.184.614-.246 2.458s-2.09 5.777-5.961 8.788zm-13.643-29.007c-.43.922-.922 1.598-1.229 2.213l-.922 1.475v-.861c.062-.491.185-1.229 0-2.151 0-.491-.184-.983-.123-1.413 0-.43.185-.861.246-1.168l.984-4.302c.245-1.659.553-3.933.491-5.96 0-1.967-.307-.984-.307 0 0 .983-.062 2.457-.369 4.793-.307 2.274-1.29 5.776-1.29 5.776s-.062-.553-.369-1.29l-1.168-2.581c-.368-.983-.246-1.168-.246-1.168s1.414-6.514 1.721-9.587c.369-3.073.983-11.123.983-11.123 1.967 1.966 3.442 7.252 3.688 12.29.246 3.688-.369 7.191-.615 8.605-.307 2.765-.799 4.916-1.536 6.452zm4.425 10.325c0-1.475-.369-2.643-1.352-2.95 0 0 .86-1.475 1.598-3.565a27.6 27.6 0 0 0 1.106-4.732c.553-3.441.983-7.067-.061-1.229-1.045 5.961-2.336 7.989-2.336 7.989l-1.475 2.459c.185-1.045.246-1.844.185-3.012 0-1.167-.185-2.765-.615-3.994 0 0 1.844-3.687 3.073-7.99a50 50 0 0 0 1.905-13.95s1.844 1.414 2.458 8.543a42.04 42.04 0 0 1-4.486 22.431m-20.403 54.449 1.168-.799c.921-.553.614-2.274.614-2.274a30 30 0 0 0 3.196 1.967c.86.368 1.29.614 1.843.737.615.184.431 0 0-.307-.491-.246-.614-.43-1.843-.861-1.229-.491-3.565-2.581-3.565-2.581l1.537-.061c.983 0 2.212-.553 2.212-.553s.983.86 4.917 2.581a30.7 30.7 0 0 0 7.251 2.151s-.368 1.966-2.274 2.642c-1.597.676-3.687 1.107-7.989.123a26.7 26.7 0 0 1-7.067-2.765m-5.162 3.994c-.369-1.659.614-2.827.614-2.827l.799.676c.615.554 1.414 1.537 3.073 2.397 1.659.799 2.274.738.615-.123a24 24 0 0 1-3.872-3.257l.614-.246c.615-.245 1.66.185 6.146 2.827 4.363 2.643 7.006 2.766 7.006 2.766s-1.967 2.396-7.375 2.212c-5.346-.184-7.313-2.765-7.62-4.425m-10.202-1.905s.615.799 1.414 1.352 2.95.861 2.95.861l.491.737c.369.615 1.291 1.844 2.274 2.458.922.738 2.458 1.229 2.458.984.123-.185-.799-.492-1.721-1.107-.921-.553-1.782-1.597-2.396-2.273-.615-.738.307-.615.307-.615h2.151c1.045-.123.799 0 1.106.43l1.475 1.844 2.704 3.134c.615.737.184.922.184.922s-.307.43-2.704.737c-1.475.123-3.072 0-4.732-.983a14.4 14.4 0 0 1-3.195-2.765c-2.889-3.135-2.766-5.716-2.766-5.716m-1.229 6.453.922 1.106s-.43-1.229-.799-1.843l-.553-.861c.43-.86.737-1.843.983-2.888.246.86 1.045 3.38 2.09 4.978 1.229 1.966 2.335 2.704 1.598 3.257-.676.491-2.09.614-3.688-.123-1.475-.738-1.843-2.028-2.089-3.073q.4-.628.737-1.29c.185.122.492.307.799.737M328.396 100.416c-.611 0-1.106-.44-1.106-.983s.495-.984 1.106-.984 1.106.44 1.106.984c0 .543-.495.983-1.106.983"/><path fill="#D4AF3A" d="M330.731 97.527c-.983 0-1.536-.492-2.642-.369a16 16 0 0 0-5.224 2.028 8.97 8.97 0 0 1-6.023.553c-.614-.184-1.229-.553-1.782-.86-2.642-1.475-1.966-4.364-1.966-4.364a10.26 10.26 0 0 0 6.514 1.967l-.553.492c-.369.368-1.045.86-.861 1.044.246.185 1.229-.737 2.028-1.352.799-.614 1.967-1.352 3.995-1.966 2.028-.615 4.302-.615 5.777.246 1.536.799 1.659 1.843 1.475 2.273-.123.246-.431.308-.738.308m-28.392 21.325c.492-.123 1.229-.246 2.335-1.23a42.4 42.4 0 0 0 3.872-4.301c.307-.492.184-.922-.615-1.229-.614-.308-1.167-1.23-1.167-1.23s1.536-.614 2.642-1.352c1.045-.737 3.442-2.949 3.81-3.502.308-.615.185-.615-.307-.799-.553-.185-.614-.492-.614-.492s1.106-.738 2.151-1.598a44 44 0 0 0 2.458-2.212c1.598.614 4.056.368 5.408.123 2.335-.431 4.117-1.414 4.117-1.414l.369 1.106c.307.738 1.352 1.107 2.458.431 1.106-.738.861-2.274.861-2.274s.86-.615 2.704-1.23c1.843-.675 3.257-.798 4.732-.122s2.212 2.704 2.212 4.302c0 1.474-.799.798-.983.614-.185-.184-.492-1.29-2.336-1.598-1.843-.307-3.564.615-5.653 2.336-2.09 1.72-2.582 1.843-3.688 2.949-.983 1.107-.184 1.66 1.66 2.274s4.117-.614 4.24-.553c.307.185-.799 1.844-2.397 2.458-1.536.615-3.564.185-5.101-.491-1.044-.369-1.229 0-1.536.368a9.22 9.22 0 0 0-2.458 5.531 2.45 2.45 0 0 1-1.598-1.843c-.061-.369-.184-1.106-.737-.615-.615.615-1.107 3.687-1.107 5.039 0 1.353.431 3.258.431 3.258h-.431l-1.413-.738c-.615-.43-.737 0-.737.799s-.246 2.212-1.23 4.794c-1.044 2.581-2.458 3.38-2.458 3.38s-.307-.492-.614-1.537a20.3 20.3 0 0 1-.492-4.732c0-1.721.43-5.408.43-5.408s-2.089 2.581-4.302 3.196c-2.212.614-4.363.246-5.285-.799s-.123-1.537.369-1.659"/><path fill="#D4AF3A" d="M316.78 125.489s.615 1.536.983 2.028c.369.553.553.614.553.614s-.676.615-1.659.861a22 22 0 0 1-1.844.491s1.107-1.475 1.475-2.519l.43-1.414zm-13.213-.799q.267-.65.553-1.291a9.2 9.2 0 0 0 4.978-1.044s-.983 2.028-2.028 2.765l-1.106.738s.983.184 2.335-1.23c1.352-1.229 1.967-2.826 1.967-2.826s-.308 3.564.246 5.715l.614 2.458s-2.827.553-6.022-.369c-3.196-.86-3.442-1.167-3.442-1.167s-.369-.062.123-.738a17 17 0 0 0 1.844-3.073z"/><path fill="#B96B29" d="m309.406 116.886 1.045-1.414s.369.307 0 .799a9.8 9.8 0 0 1-2.581 2.274c-.983.553-1.905.737-1.905.737v-.246s2.458-1.044 3.38-2.15zm3.872 7.374.246-5.101c0-.614.369-.491.369-.491l.491.184-.922 6.514c-.123.738-.43.615-.614.615.307-.185.369-1.537.43-1.721m6.023-19.297c.368-.368 1.167-.614.368.246s-1.843 1.967-2.089 2.888c-.307.861-.492 2.028 0 1.783.491-.246.86-.246 1.413-.738.615-.43 1.598-1.229 2.028-1.29.43-.123 1.229 0 .615.614a15.3 15.3 0 0 1-2.458 2.213l-2.459 1.597q-.601.42-1.229.799s.615-3.687 1.598-5.223a16.2 16.2 0 0 1 2.213-2.889m19.665 60.964c.738.614 1.721.798 1.721.798s.43 0 .43.123-.553 0-1.106-.061a4.9 4.9 0 0 1-1.598-.86c-.246-.246-.676-.492-.553-.861s.369.307 1.106.861m-6.391 3.38 1.413 1.106.799.43c.369.123.492.369.492.369s-.062.123-.492 0-1.721-1.045-2.151-1.414c-.368-.369-.614-.43-.43-.614.184-.123.246 0 .369.123m25.811-45.723c-.246.246-.553.615-.615.553-.184-.123 0-.307.246-.614l.492-.553.676-.922c.246-.246.614-.43.184.184zm1.905 4.302-.799.799c-.307.307-.553.676-.737.491-.185-.184.43-.553.737-.921q.374-.487.86-.861.382-.276.799-.491zm-.737 6.883c-.492.553-1.23.676-1.23.492-.122-.246 0-.369.431-.615a15 15 0 0 0 2.827-1.844c.122 0-.615.861-.861.984s-.614.491-1.167.983m-1.352 5.531c0-.185-.062-.307.307-.307l.983-.123s.799-.308.86-.123c0 .184-.614.491-.983.491l-.86.246c-.185.123-.307 0-.307-.184m-.615 6.022c.86 0 1.598-.184 1.659 0 0 .062-.43.308-.86.431-.43.184-1.229.184-1.844.245-.553 0-.614-.122-.614-.368 0-.308.799-.308 1.659-.308m-6.76 6.638c.061-.123.369 0 .86 0 .492.184 1.291.307 1.721.307l1.475-.062.615.123c0 .123-.799.123-1.844.246-1.106.123-1.844-.123-2.335-.184-.492-.123-.615-.308-.554-.43zM348 157.63c.412.159.849.242 1.291.246l1.413.184s.43 0 .369.246c-.062.184-.246 0-.615-.061h-1.475c-.737 0-1.106-.246-1.536-.308-.43-.061-.922-.307-.676-.614.246-.246.676.123 1.229.307m-5.531 3.565 1.536 1.106.676.368c.492.246.431.369.369.492-.061.123-.369-.184-.614-.307a10 10 0 0 1-1.537-.983c-.43-.369-.983-.615-.86-.922.061-.246.184-.062.492.246zm9.157-45.969-1.045 1.414c-.983 1.229-.43.061-.246-.246l2.09-2.766c.491-.553.614-.307.307 0zm1.966 6.023c-.122-.123.185-.246.676-.922l1.66-2.028.368-.615c.123.062-.368 1.107-.798 1.537s-.984 1.229-1.291 1.659c-.307.369-.492.553-.615.369m-2.642 11.369c0-.307 1.106-.307 1.598-.369l1.352-.307s.983-.184.983 0c0 .061-.184.184-.737.307l-2.028.492c-.615.061-1.168.184-1.168-.123m2.642-6.146a9.3 9.3 0 0 1-1.536 1.045c-.369.246-.676.492-.86.307-.246-.245.123-.43.737-.676l.922-.553.615-.307c.307-.184.798-.369.122.184m-6.145-3.994.86-.615s.553-.491.615-.307c.123.184-.615.615-.922.983-.307.308-.922 1.168-1.229.984-.307-.185.307-.676.737-1.045zm4.056 15.794.922.246c.43.123.43.245-.246.245s-.983-.184-1.659-.307-.922-.184-.799-.43c.061-.184.43-.123.737 0zm-1.106 5.715c.061.123-.492 0-.861-.123-.307-.123-1.044-.553-1.475-.614-.43-.185-.43-.246-.43-.492s.43 0 .984.123c.614.184 1.229.737 1.229.737l.614.369zm-7.375 3.442c-.491-.308-.614-.492-.43-.615.184-.184.369-.184.737.123q.604.476 1.23.922l.676.307c.307.123.737.43.614.615-.123.061-.737 0-1.045-.369s-1.229-.615-1.782-.983m-3.441 4.609c-.246-.185-.861-.369-1.106-.615-.308-.184-.492-.799-.246-.86.246-.062.368.246.86.614l2.151 1.475.43.185c.43.123.246.307-.123.245-.43-.061-.614-.061-1.106-.43zm-5.163 4.363c-.5-.278-.956-.63-1.352-1.045-.307-.246-.737-.614-.491-.799.246-.184.491.062.86.369l1.291 1.352s.123 0 .614.43c.553.43 0 .308-.184.185a1.84 1.84 0 0 0-.738-.492"/><path fill="#D4AF3A" d="m311.373 89.537 2.458-.614 1.537 1.229-1.905.86z"/><path fill="#B96B29" d="M306.824 91.197c-1.086 0-1.966-.853-1.966-1.905s.88-1.905 1.966-1.905c1.087 0 1.967.853 1.967 1.905s-.88 1.905-1.967 1.905"/><path fill="#D4AF3A" d="M306.825 90.03a1.168 1.168 0 1 1 0-2.336 1.168 1.168 0 0 1 0 2.336M310.942 82.717c-.492.184-1.168.123-1.168.123s-.184-.86.307-1.29l1.229-1.046.308-.368v1.229c.061.491-.185 1.167-.676 1.352M309.897 84.069a.369.369 0 1 1 0-.738.369.369 0 0 1 0 .737M312.6 83.331l.492.553s-.43 0-.737.246c-.369.246-.738.43-1.168.369a.56.56 0 0 1-.374-.205.55.55 0 0 1-.118-.41c.123-.307.308-.614.922-.799.615-.245.799 0 .983.246m-1.352 2.274c1.229.123 2.827-1.229 2.827-1.229.185 1.106.861 1.66 1.844 1.844v.061s-1.045.492-2.151.676a4.3 4.3 0 0 1-1.536-.123 6.5 6.5 0 0 1-1.844-.614c-.737-.43-.553-1.598-.553-1.598s.123.922 1.352.983zm4.794-1.229c.492-.184 1.229-.553 1.598-.615.307 0 .799 0 .676.553 0 .615-.615.86-1.229.86s-.922-.184-1.229-.368c-.369-.184-.308-.246.184-.43m3.872-2.09c.614-.43 1.044-.553 1.044-.553s.369.984.185 1.598c-.185.615-.615.738-1.168.738-.492 0-1.291-.308-1.106-.738.246-.368.491-.614 1.045-1.044M319.423 85.297c-.237 0-.43-.138-.43-.307 0-.17.193-.308.43-.308.238 0 .431.138.431.308s-.193.307-.431.307M318.255 80.197c.307-1.66.245-3.442-1.23-5.716a9.83 9.83 0 0 0-4.301-3.134l-.861-1.168c-.86-.921-2.642-2.089-2.642-2.089l3.195.922a1.4 1.4 0 0 0 .392 1.04 1.42 1.42 0 0 0 1.022.435c.246 0 .553-.123.799-.246.614.061 2.704 1.352 3.195 1.782a1.4 1.4 0 0 0-.184.737 1.414 1.414 0 0 0 1.413 1.414c.185 0 .431 0 .615-.123l.184.307c.393.729.722 1.49.984 2.274-.369.246-.615.676-.615 1.23 0 .798.615 1.413 1.229 1.413v.922c0 .43-.246.737-1.045.983-.798.184-1.843 1.598-1.843 1.598-.123 0-.676-.984-.246-2.643z"/><path fill="#D4AF3A" d="M313.277 69.75c-.246-.247-.308-.615-.062-.861.184-.185.615-.185.922.061s.369.615.123.86c-.246.185-.615.185-.983-.06m5.223 3.502c-.307-.307-.369-.799-.123-1.045s.738-.245 1.045.062c.369.307.43.799.123 1.044-.246.246-.738.246-1.045-.061M321.574 78.476a.8.8 0 1 1 0-1.598.8.8 0 0 1 0 1.598M304.243 66.493c.43.123 1.229.369 2.335.983-.799 0-1.413.492-1.413 1.168 0 .614.737 1.352 1.536 1.352s1.352-.676 1.352-1.352c0-.123 0-.308-.123-.43l1.106.737c2.581 1.72 3.134 2.52 4.425 4.916 1.229 2.336 1.721 4.917 1.168 6.392-.553 1.536-2.581 1.843-2.581 1.843s.245-.184.245-.491l-.123-.984c-.122-.614 0-1.29 0-1.29s-.491-.062-.737.246l-.922 1.044-.922.922s-.43-.614-.43-1.29.492-1.414.615-2.643c0-1.229-.615-3.38-1.782-4.916a13.5 13.5 0 0 0-4.057-3.38 1.3 1.3 0 0 1-.798-1.045l-.123-1.23c-.062-.737.614-.675 1.229-.552"/><path fill="#D4AF3A" d="M306.824 69.258c-.492 0-.86-.43-.86-.799 0-.368.307-.614.799-.614.43 0 .799.246.799.614 0 .369-.308.8-.738.8m-3.81 14.995c-.615.246-1.352.062-1.659-.123-.308-.245-.431-.799 0-1.106a1.23 1.23 0 0 1 1.229-.123l1.229.8s-.185.306-.799.552"/><path fill="#D4AF3A" d="M301.048 84.929c.184.369.368.553 1.044.615.676 0 1.414 0 1.844-.492a4.7 4.7 0 0 0 .799-1.045h.799s.246 1.045.614 1.29c.308.308 1.475.37 2.028 0 .492-.43.984-.86 1.045-.798.123 0 0 .43-.492.86-.491.43-.921.8-1.843.8h-4.855s-.983 0-1.229-.615c-.308-.553-.369-.922-.185-1.045.123-.184.185.061.431.43"/><path fill="#D4AF3A" d="M308.484 84.13c-.737.369-1.167.123-1.413-.184l-.307-.492 1.044-.43c.308-.246.553-.43.922-.369l.369.062s.123.983-.615 1.352z"/><path fill="#B96B29" d="M312.048 78.476c-.917 0-1.66-.715-1.66-1.597 0-.883.743-1.598 1.66-1.598s1.659.715 1.659 1.598c0 .882-.743 1.597-1.659 1.597M309.221 71.224c.615-.43 1.598-.246 2.151.369.492.676.43 1.597-.246 2.028-.614.43-1.598.246-2.151-.369-.553-.676-.43-1.598.246-2.028"/><path fill="#D4AF3A" d="M312.11 77.554c-.543 0-.983-.413-.983-.922s.44-.922.983-.922c.544 0 .984.413.984.922s-.44.922-.984.922M309.897 71.41c.431-.123.922.122 1.168.491.184.369 0 .738-.615.86-1.044.185-1.536-1.106-.614-1.352z"/></g><defs><clipPath id="a"><path fill="#fff" d="M0 0h600v300H0z"/></clipPath></defs></svg>