<svg xmlns="http://www.w3.org/2000/svg" width="600" height="300" fill="none"><g clip-path="url(#a)"><mask id="b" width="601" height="300" x="0" y="0" maskUnits="userSpaceOnUse" style="mask-type:luminance"><path fill="#fff" d="M0 0h600.029v300H0z"/></mask><g fill-rule="evenodd" clip-rule="evenodd" mask="url(#b)"><path fill="#009A00" d="M0 0h675v93.75H0z"/><path fill="#fff" d="M0 93.75h675v9.375H0z"/><path fill="#000001" d="M0 103.125h675v93.75H0z"/><path fill="#fff" d="M0 196.875h675v9.375H0z"/><path fill="#FFCA00" d="M0 206.25h675V300H0z"/><path fill="red" d="M0 0v300l295.312-150z"/></g><path fill="#FFCA00" fill-rule="evenodd" d="m137.938 212.596-40.477-29.647-40.478 29.647 15.732-47.672L32 135.593l50.202.158L97.46 88l15.338 47.83 50.202-.237-40.715 29.331z" clip-rule="evenodd"/><path fill="#fff" fill-rule="evenodd" stroke="#000" stroke-linecap="round" stroke-linejoin="round" stroke-width=".87" d="M62.28 179.313H91.53c2.372 2.609 7.51 3.715 12.491 0 9.171-5.06 26.88 0 26.88 0l3.479-3.716-8.46-27.829-3.083-3.32s-6.562-3.953-18.974-2.609-16.76-.395-16.76-.395-10.831 1.265-13.915 2.846l-3.478 3.478z" clip-rule="evenodd"/><path stroke="#000" stroke-linecap="round" stroke-linejoin="round" stroke-width=".87" d="M68.209 172.118s27.829-3.478 35.893 7.195c-4.507 3.162-8.539 3.399-12.808.237.633-1.186 9.961-10.91 33.758-7.669"/><path stroke="#000" stroke-width=".949" d="m98.015 144.29-.238 30.674m25.062-30.279 5.218 24.429"/><path stroke="#000" stroke-linecap="round" stroke-linejoin="round" stroke-width=".87" d="m73.505 144.29-2.925 12.649"/><path fill="#000" fill-rule="evenodd" stroke="#000" stroke-linecap="round" stroke-linejoin="round" stroke-width=".87" d="m43.385 182.633 6.799 8.064c.79.474 1.581.474 2.293 0l10.119-12.175 4.27-5.297c.71-.79.869-1.66.79-2.372l8.222-7.352 1.74.158c-.791-.158-1.345-.553-.791-1.423l1.897-1.423 1.423 1.818s-2.056 2.688-2.293 2.688h-2.213l-4.27 3.874 1.898 1.581 2.767 7.748 3.478-2.451-2.213-7.906 4.822-5.297-1.818-2.846 1.265-1.581s16.84 10.594 23.401 7.748c.158 0 .396-7.59.396-7.59s-17.551-1.818-17.947-5.297c-.395-3.478 3.953-3.953 3.953-3.953l-1.897-2.529.395-1.424 3.084 3.795 6.878-5.85 40.715 46.328c2.213-.869 2.688-1.423 2.846-3.636l-39.846-45.775 3.005-3.242c.632-.711.79-.948.79-2.055l4.744-4.032a5.77 5.77 0 0 1 3.004 2.372l12.965-10.832c.317.317 1.344.633 2.056.317l21.267-20.476-23.164 16.365-.791-.554c0-.711.791-.79 0-2.055-.949-1.107-2.293 1.028-2.451 1.028-.237 0-3.399-1.107-4.111-2.53l-.158 3.715-5.929 5.534-4.507-.237-6.483 6.325-.79 2.372 1.028 2.134s-3.479 3.005-3.479 2.846c0-.237-.711-.948-.79-1.027l3.004-2.688.395-1.819-.949-1.581c-.316.237-4.11 4.269-4.348 3.795l-11.068-12.254.632-2.293-6.878-7.51c-2.53-.87-6.562-1.028-7.352 4.506-.633 1.265-5.85.158-5.85.158l-2.847.633-16.128 22.689 8.934 10.752 18.342-23.164.553-6.562 3.795 4.269c1.344.159 2.53.238 3.716-.395l10.83 12.096-1.818 1.818 1.582 1.74 1.897-1.265.711 1.028c-.87.474-1.58 1.185-2.45 1.66-1.423-.949-2.846-2.135-2.767-3.953l-6.088 5.06-.237.948-18.105 15.021-1.58.238-.396 4.743 11.78-9.803v-1.423l1.186 1.028 9.17-7.353s.633.791.396.791-8.143 7.352-8.143 7.352l-.159.791-1.422 1.265-.791-.633-11.068 9.804H64.65l-6.087 6.087c-1.581.158-2.925.316-4.27 1.186z" clip-rule="evenodd"/></g><defs><clipPath id="a"><path fill="#fff" d="M0 0h600v300H0z"/></clipPath></defs></svg>