<svg xmlns="http://www.w3.org/2000/svg" width="600" height="300" fill="none"><g clip-path="url(#a)"><mask id="b" width="600" height="300" x="0" y="0" maskUnits="userSpaceOnUse" style="mask-type:luminance"><path fill="#fff" d="M0 0h600v300H0z"/></mask><g fill-rule="evenodd" clip-rule="evenodd" mask="url(#b)"><path fill="#fff" d="M0 0h600v300H0z"/><path fill="#3662A2" d="m-24.75.125.75 216L480.469 0z"/><path fill="#38A100" d="m624.75 299.75-1.312-224.562-508.782 224.687 510-.125z"/><path fill="#C70000" d="M-24.375 232.375-24 300l110.156-.062L623.812 59.625 623.156.813 514.406.188-24.375 232.313z"/></g><path fill="#FFE700" fill-rule="evenodd" d="m119.704 122.979-17.198-10.414L92.566 130l-9.624-17.514-17.356 10.177.473-20.038-20.038.158 10.414-17.198L39 75.724l17.514-9.704-10.098-17.355 20.038.473-.08-20.117 17.12 10.414L93.434 22l9.624 17.514 17.356-10.177-.473 20.038 20.038-.158-10.414 17.198L147 76.276l-17.514 9.704 10.098 17.355-20.038-.473z" clip-rule="evenodd"/><path fill="#3662A2" fill-rule="evenodd" d="M130 75.961C130 95.888 113.406 112 93 112S56 95.888 56 75.961C56 56.035 72.515 40 93 40s37 16.112 37 35.961" clip-rule="evenodd"/><path fill="#FFE700" fill-rule="evenodd" d="M122 76a29 29 0 0 1-29 29 28.999 28.999 0 0 1-20.506-49.506A29 29 0 0 1 122 76" clip-rule="evenodd"/></g><defs><clipPath id="a"><path fill="#fff" d="M0 0h600v300H0z"/></clipPath></defs></svg>