<svg xmlns="http://www.w3.org/2000/svg" width="600" height="300" fill="none"><mask id="a" width="300" height="300" x="0" y="0" maskUnits="userSpaceOnUse" style="mask-type:luminance"><path fill="#fff" d="M0 0h300v300H0z"/></mask><g fill-rule="evenodd" clip-rule="evenodd" mask="url(#a)"><path fill="#CE0000" stroke="#000063" stroke-width="8.086" d="M3.809 296.191h221.953L80.508 148.887l150.762.175L3.867 3.809V296.19z"/><path fill="#fff" d="m105.879 217.852-15.82 5.273 12.421 11.602-16.699-1.055 6.856 15.351-14.942-7.207.293 16.758-11.015-12.246-6.27 15.586-5.39-15.41-11.895 12.07 1.055-16.23-15.762 6.679 7.383-14.648-17.168.352 12.597-10.723-15.996-6.152 15.82-5.274-12.48-11.601 16.64 1.054-6.796-15.351 15 7.207-.293-16.758 11.016 12.246 6.27-15.586 5.331 15.41 11.953-12.07-1.113 16.23 15.82-6.679-7.441 14.648 17.226-.351-12.597 10.722zM86.894 109.629l-6.62 4.922 3.28 2.695a54.96 54.96 0 0 0 17.989-21.094c1.055 12.481-10.371 40.43-40.254 40.723a41.365 41.365 0 0 1-41.895-41.191c5.86 10.664 9.493 15.82 18.75 21.386l2.754-2.578-6.21-5.215 8.027-2.109-4.336-7.266 8.437.586-1.054-8.437 7.383 4.336 2.343-7.91 5.274 6.328 4.98-6.036 2.695 8.204 6.915-4.805-.88 8.379 8.321-.996-3.926 7.734z"/></g></svg>