<svg xmlns="http://www.w3.org/2000/svg" width="600" height="300" fill="none"><g clip-path="url(#a)"><path fill="#00247D" d="M0 0h600v300H0z"/><path fill="#fff" d="M444.62 57.856v10.659l21.343-10.66z"/><path fill="#fff" d="m448.889 70.647-4.269-8.528 21.343-4.264zM444.62 57.856v10.659l-21.343-10.66z"/><path fill="#fff" d="m440.352 70.647 4.268-8.528-21.343-4.264z"/><path fill="#fff" d="m450.71 62.275-10.149 3.294 16.744 16.981z"/><path fill="#fff" d="m439.85 70.283 6.8-6.69 10.655 18.957z"/><path fill="#fff" d="m438.531 62.275 10.149 3.294L445.127 42z"/><path fill="#fff" d="m452.029 62.173-9.438 1.42L445.127 42z"/><path fill="#fff" d="m438.531 62.275 10.149 3.294-16.744 16.981z"/><path fill="#fff" d="m449.391 70.283-6.8-6.69-10.655 18.957z"/><path fill="#CC142B" d="M444.62 60.026v7.043l14.103-7.043z"/><path fill="#CC142B" d="m447.441 68.478-2.821-5.635 14.103-2.817z"/><path fill="#CC142B" d="M444.62 60.026v7.043l-14.103-7.043z"/><path fill="#CC142B" d="m441.799 68.478 2.821-5.635-14.103-2.817z"/><path fill="#CC142B" d="m448.645 62.946-6.707 2.176 11.065 11.221z"/><path fill="#CC142B" d="m441.468 68.237 4.494-4.42 7.041 12.526z"/><path fill="#CC142B" d="m440.597 62.946 6.706 2.176-2.348-15.574z"/><path fill="#CC142B" d="m449.516 62.878-6.237.938 1.676-14.268zM440.597 62.946l6.706 2.176-11.064 11.221z"/><path fill="#CC142B" d="m447.773 68.237-4.494-4.42-7.04 12.526z"/><path fill="#fff" d="M500.543 107.052v9.485l18.992-9.485z"/><path fill="#fff" d="m504.341 118.434-3.798-7.588 18.992-3.794zM500.543 107.052v9.485l-18.992-9.485z"/><path fill="#fff" d="m496.744 118.434 3.799-7.588-18.992-3.794z"/><path fill="#fff" d="m505.962 110.985-9.032 2.931 14.901 15.111z"/><path fill="#fff" d="m496.298 118.111 6.051-5.954 9.482 16.87z"/><path fill="#fff" d="m495.125 110.985 9.031 2.931-3.162-20.973z"/><path fill="#fff" d="m507.137 110.894-8.399 1.263 2.256-19.214zM495.125 110.985l9.031 2.931-14.9 15.111z"/><path fill="#fff" d="m504.789 118.111-6.051-5.954-9.482 16.87z"/><path fill="#CC142B" d="M500.543 109.222v5.869l11.753-5.869z"/><path fill="#CC142B" d="m502.894 116.265-2.351-4.695 11.753-2.348zM500.543 109.222v5.869l-11.753-5.869z"/><path fill="#CC142B" d="m498.192 116.265 2.351-4.695-11.753-2.348z"/><path fill="#CC142B" d="m503.896 111.655-5.588 1.814 9.22 9.351z"/><path fill="#CC142B" d="m497.916 116.065 3.745-3.684 5.867 10.439z"/><path fill="#CC142B" d="m497.19 111.655 5.589 1.814-1.957-12.979z"/><path fill="#CC142B" d="m504.623 111.599-5.197.782 1.396-11.891z"/><path fill="#CC142B" d="m497.19 111.655 5.589 1.814-9.22 9.351z"/><path fill="#CC142B" d="m503.171 116.065-3.745-3.684-5.867 10.439z"/><path fill="#fff" d="M379.482 123.364v10.659l21.343-10.659z"/><path fill="#fff" d="m383.751 136.155-4.269-8.527 21.343-4.264z"/><path fill="#fff" d="M379.482 123.364v10.659l-21.343-10.659z"/><path fill="#fff" d="m375.214 136.155 4.268-8.527-21.343-4.264z"/><path fill="#fff" d="m385.572 127.784-10.149 3.294 16.745 16.981z"/><path fill="#fff" d="m374.712 135.792 6.801-6.691 10.655 18.958z"/><path fill="#fff" d="m373.394 127.784 10.149 3.294-3.554-23.569z"/><path fill="#fff" d="m386.892 127.681-9.439 1.42 2.536-21.592zM373.394 127.784l10.149 3.294-16.745 16.981z"/><path fill="#fff" d="m384.254 135.792-6.801-6.691-10.655 18.958z"/><path fill="#CC142B" d="M379.483 125.534v7.043l14.104-7.043z"/><path fill="#CC142B" d="m382.304 133.986-2.821-5.635 14.104-2.817z"/><path fill="#CC142B" d="M379.483 125.534v7.043l-14.103-7.043z"/><path fill="#CC142B" d="m376.663 133.986 2.82-5.635-14.103-2.817z"/><path fill="#CC142B" d="m383.508 128.453-6.707 2.177 11.065 11.221z"/><path fill="#CC142B" d="m376.332 133.745 4.493-4.421 7.041 12.527z"/><path fill="#CC142B" d="m375.46 128.453 6.706 2.177-2.348-15.574z"/><path fill="#CC142B" d="m384.379 128.386-6.236.938 1.675-14.268z"/><path fill="#CC142B" d="m375.46 128.453 6.706 2.177-11.064 11.221z"/><path fill="#CC142B" d="m382.636 133.745-4.493-4.421-7.041 12.527z"/><path fill="#fff" d="M444.62 226.198v11.833l23.694-11.833z"/><path fill="#fff" d="m449.359 240.398-4.739-9.467 23.694-4.733zM444.62 226.198v11.833l-23.693-11.833z"/><path fill="#fff" d="m439.881 240.398 4.739-9.467-23.693-4.733z"/><path fill="#fff" d="m451.381 231.104-11.267 3.656 18.589 18.852z"/><path fill="#fff" d="m439.325 239.993 7.549-7.427 11.829 21.046z"/><path fill="#fff" d="m437.86 231.104 11.267 3.656-3.945-26.164z"/><path fill="#fff" d="m452.845 230.99-10.478 1.576 2.815-23.97zM437.86 231.104l11.267 3.656-18.588 18.852z"/><path fill="#fff" d="m449.916 239.993-7.549-7.427-11.828 21.046z"/><path fill="#CC142B" d="M444.62 228.367v8.217l16.454-8.217z"/><path fill="#CC142B" d="m447.911 238.228-3.291-6.574 16.454-3.287zM444.62 228.367v8.217l-16.454-8.217z"/><path fill="#CC142B" d="m441.329 238.228 3.291-6.574-16.454-3.287z"/><path fill="#CC142B" d="m449.314 231.774-7.824 2.539 12.909 13.092z"/><path fill="#CC142B" d="m440.942 237.947 5.243-5.157 8.214 14.615z"/><path fill="#CC142B" d="m439.926 231.774 7.824 2.539-2.74-18.17z"/><path fill="#CC142B" d="m450.332 231.695-7.277 1.095 1.955-16.647z"/><path fill="#CC142B" d="m439.926 231.774 7.824 2.539-12.909 13.092z"/><path fill="#CC142B" d="m448.298 237.947-5.243-5.157-8.214 14.615z"/><g clip-path="url(#b)"><path fill="#fff" d="M0 0h300v150H0z"/><path fill="#012169" d="M0 0v150h300V0z"/><path fill="#000" d="m0 0 300 150Zm300 0L0 150Z"/><path stroke="#fff" stroke-width="30" d="m0 0 300 150m0-150L0 150"/><mask id="c" width="300" height="150" x="0" y="0" maskUnits="userSpaceOnUse" style="mask-type:luminance"><path fill="#fff" d="M150 75h150v75zm0 0v75H0zm0 0H0V0zm0 0V0h150z"/></mask><g mask="url(#c)"><path fill="#000" d="m0 0 300 150Zm300 0L0 150Z"/><path stroke="#C8102E" stroke-width="20" d="m0 0 300 150m0-150L0 150"/></g><path fill="#000" d="M150 0v150ZM0 75h300Z"/><path stroke="#fff" stroke-width="50" d="M150 0v150M0 75h300"/><path fill="#000" d="M150 0v150ZM0 75h300Z"/><path stroke="#C8102E" stroke-width="30" d="M150 0v150M0 75h300"/></g></g><defs><clipPath id="a"><path fill="#fff" d="M0 0h600v300H0z"/></clipPath><clipPath id="b"><path fill="#fff" d="M0 0h300v150H0z"/></clipPath></defs></svg>