<svg xmlns="http://www.w3.org/2000/svg" width="600" height="300" fill="none"><g clip-path="url(#a)"><path fill="#009543" d="M0 0h600v300H0z"/><path fill="#ED4135" d="M0 0h600v200H0z"/><path fill="#0035AD" d="M0 0h600v100H0z"/><path fill="#FAE600" stroke="#000" stroke-width="3.538" d="M176 255c57.99 0 105-47.01 105-105S233.99 45 176 45 71 92.01 71 150s47.01 105 105 105Z"/><path fill="#000" d="M158.178 165.686h35.578zm0-26.367h35.578zM176 45.333v179.428z"/><path stroke="#000" stroke-width="4.272" d="M158.178 165.686h35.578m-35.578-26.367h35.578M176 45.333v179.428"/><path fill="#000001" d="M133.68 246.388c42.854 17.556 83.038 1.135 83.038 1.135s-15.152-16.421-22.895-22.829c-7.61-6.275-29.905-6.008-37.515 0a326 326 0 0 0-22.628 21.694M176 215.483c6.489 0 11.748-7.65 11.748-17.088s-5.259-17.088-11.748-17.088-11.748 7.65-11.748 17.088 5.26 17.088 11.748 17.088M175.999 161.482c7.853 0 14.218-4.035 14.218-9.012s-6.365-9.011-14.218-9.011-14.218 4.034-14.218 9.011 6.366 9.012 14.218 9.012M175.999 125.035c7.853 0 14.218-6.366 14.218-14.219s-6.365-14.218-14.218-14.218-14.218 6.366-14.218 14.218 6.366 14.219 14.218 14.219"/><path fill="#000001" d="M193.088 57.816s1.202 2.003-1.335 6.675c-12.416 22.362-24.898 22.83-27.234 24.765-2.67 2.136-3.738 2.003-3.738 2.003.2-1.936.333-9.746.467-10.48 1.936-10.48 17.689-10.347 30.038-21.027 1.936-1.669 1.802-2.003 1.802-2.003zm-41.653 48.061s2.871 8.01 3.204 16.021c.668 12.816 12.95 13.15 21.361 13.15v-7.143c-6.342 0-11.815-.934-16.354-10.279a82 82 0 0 0-8.211-11.749m-.333 103.198s4.472-5.54 9.745-18.49c2.67-6.742 9.212-10.68 15.153-10.68v-10.013c-13.551 0-20.026 5.006-20.693 12.416-.85 9-2.254 17.94-4.205 26.767"/><path fill="#000" d="M200.565 105.877s-2.871 8.01-3.205 16.02c-.667 12.817-12.949 13.15-21.36 13.15v-7.075c6.341 0 11.815-.935 16.354-10.347a84 84 0 0 1 8.211-11.748m.333 103.264s-4.472-5.607-9.745-18.556c-2.67-6.742-9.212-10.681-15.153-10.681v-9.879c13.551 0 20.025 5.006 20.693 12.416a220 220 0 0 0 4.205 26.7"/></g><defs><clipPath id="a"><path fill="#fff" d="M0 0h600v300H0z"/></clipPath></defs></svg>