<svg xmlns="http://www.w3.org/2000/svg" width="600" height="300" fill="none"><g fill-rule="evenodd" clip-path="url(#a)" clip-rule="evenodd"><path fill="#fff" d="M182.625 0h234.75v300h-234.75z"/><path fill="#198200" d="M0 0h182.625v300H0zm417.375 0H600v300H417.375z"/><path fill="#198200" stroke="#000" stroke-linecap="round" stroke-linejoin="round" stroke-width=".486" d="M295.488 227.249v36.528l14.792.139s-4.722-31.806-2.153-36.111c2.57-4.167 5-3.611 5-3.611s9.653 2.916 10.694 2.43c1.042-.416-.138-3.611 5-3.194 1.667-.625.764-3.472 2.292-3.611 1.528-.209 30.903 8.194 37.292.277-1.667-4.444-7.431-.347-8.959-.138-1.389 0-7.152-2.778-10.486 0-3.055-2.292-16.944-3.82-16.944-3.82-1.806-1.805 33.055.903 35.069-.486 4.097-4.097-7.639-3.611-9.444-2.292a10.28 10.28 0 0 0-9.861-.416c-1.181-2.847-12.5-1.667-18.75-2.431-2.084-1.18-1.736-1.875-.347-2.639 13.194.556 26.249 2.292 39.444 1.736 3.542-4.652-4.514-6.458-9.445-2.43-2.916-4.861-8.819-.208-12.777-.695-3.959-.416-2.084-5.277 2.916-4.513 5 .694 13.959-.278 15.625-2.57s-.972-4.653-9.236-2.43c-2.778-2.778-9.028 0-11.875.902-3.889-2.152-12.847-.347-15.833.417-2.986-1.806 15.625-4.861 15.625-4.861 7.222-.139 11.319-1.389 13.542-1.945 10.902-5.833-.139-6.458-5.834-2.222-3.541-2.777-6.944.209-10.139 1.25a26.5 26.5 0 0 1-9.305 1.389c0-.417 8.75-5.764 8.75-5.764s10.625-.764 12.778-1.041c2.083-.348 13.055-5.903-1.875-2.153-5.139.417-8.195.139-10.209.278-11.458-1.181 1.111-2.292 1.111-2.292s16.25-1.458 16.459-2.292c.277-6.25-13.264-3.333-13.403-3.333 0-4.514-12.639.139-12.639 0-2.43-1.389 1.389-2.847 1.389-2.847 3.333-.834 8.333-1.111 9.653-2.153 0 0 9.444-.069 10.555-2.569-2.291-6.459-20 1.111-22.361 2.222-3.194 0 2.084-5.139 2.292-5.278.139-.208 14.583-.764 21.458-10.069.486-5.625-8.055 3.194-8.055 3.194-.695-7.361-9.306.486-14.306 1.042-5.069.694-5.208-2.292-1.736-2.778 3.472-.417 7.5-.069 9.444-5.417 2.014-5.347 7.917.278 9.028-1.666 1.042-2.014-2.153-3.681-2.153-3.681s4.445-4.583-2.777-4.375c-7.084.139-16.389-.972-16.389-.972s7.43-2.847 14.444-2.778c6.945.208 3.195-4.93-3.472-4.93-6.736 0-10.208-2.292-10.208-2.292l11.389-4.306-.695-3.194s6.667-5.347-2.778-4.097l-10.555 1.389-19.028 2.847c-.139 0-5.139-1.528-.278-2.778s22.084-4.653 24.653-3.75-.278-6.389-9.444-7.292c-9.098-.902-14.792 2.292-14.792 2.292s-5.903-2.153-.417-3.958c5.486-1.875 14.167.625 14.167.625s9.722-2.917 1.667-4.167c-8.056-1.18-10.625 1.111-14.306 1.25-1.458-1.875 12.639-2.291 13.542-3.819-1.528-2.778-10.278 0-15.417 0-2.083-.903-2.292-2.43.208-3.334 5.209-.208 10.139.07 15.348-.138-.139-2.778 0-6.042-.139-8.89-6.667-1.18-14.445.903-18.125.695.972-2.986 15.277-3.82 16.875-4.653 3.333-4.166-13.959 0-14.167 0-2.986-.416-2.778-2.36-.903-3.472 4.445-.486 14.306.695 13.611-2.361-.555-2.778-6.944-1.32-9.444-.694-2.639.625-6.458.138-6.458.138-1.598-2.222 14.93-1.319 14.791-3.055-.208-1.945-10.486-.556-14.027-.417-2.709-1.875 13.194-3.125 13.402-3.333.625-5.07-10.625 0-12.777 0-2.084 0-1.042-3.195-1.042-3.195s4.375-2.013 4.236-2.291a15.3 15.3 0 0 0-3.611-1.389c-.347 0 0-3.472 0-3.472s3.611-2.778 3.333-3.542c-.347-.764-4.305.625-4.305.625v-3.055s2.916-.278 3.194-1.667c.347-1.389-3.472-1.528-3.472-1.528L301.877 36l-1.389 14.93-5 .695s3.472 2.014 4.167 4.028c.555 1.944-4.306 1.389-4.306 1.389s3.959 3.333 4.236 4.513c.348 1.25-5.486 1.528-5.486 1.528s4.861 3.472 5.209 5.486c.277 1.945 0 3.056 0 3.056s-8.056-7.014-13.195-5.07c-2.777 1.39 6.111 2.084 11.945 7.153 0 1.18-14.236-3.472-14.722-.555.277.763 15.208 2.916 16.249 4.86-5.416.209-16.666-1.18-16.249.626-1.181 2.083 10.555.903 15.486 2.57 1.458 1.666 1.319 3.055-1.181 3.194-4.792-2.292-15.347-3.959-15.417-1.042.07.694 10.973.278 14.931 2.847-5.278 1.25-23.194-2.43-23.264-.694.486.903 3.333 4.514 8.195 4.375 4.861-.14 16.18 1.944 16.944 3.472.694 1.528-14.653-3.195-20.417-.417-5.833 2.778 16.597 1.042 20.209 4.375 3.68 3.403-7.292-.278-7.292-.278s-15.278-2.083-17.5-1.041c-2.292 1.041-4.861 3.472-4.861 3.472s1.528 3.056 3.055 2.431-.486 1.875-.486 1.875 21.32 5.138 26.042 9.722-27.083-7.153-27.083-7.153-12.847 4.722.694 5c-1.528 2.292.833 3.68.833 3.68s22.5 4.723 24.792 8.334c2.292 3.68-15.347-3.472-19.375-5.486-3.958-1.945-15.208 1.25-15.069 2.014.208.694 5.555 1.805 5.625 3.194.208 1.389-6.528 1.806-6.528 3.056 0 1.18 28.472 7.152 36.111 13.541s-22.361-7.639-22.361-7.639 1.667 2.292 0 2.917c-1.736.625-7.639-8.542-17.361-2.917-1.806 2.361 8.472 4.167 11.111 4.445-.903 2.291-1.667 3.055 1.944 5.347s-7.152-3.333-7.152-3.056l.764 3.959c-3.334-2.778-7.431-3.542-11.25-.764 0 0-.139 2.778 3.819 4.444-2.153 4.375 2.431 2.986 9.722 7.153-10.833-2.847-11.736 2.431-3.958 3.611s29.097 2.014 34.097 8.542c5.069 6.527-7.153-2.5-8.542-2.778-.277.208-.555 3.403-.555 3.403-3.264-1.875-6.25-3.611-10.139-4.375-.347.625-.208 1.458-.556 2.083-3.472-2.569-6.597-4.306-11.736-4.583l-.625 2.43s-4.236-5.347-12.639 0c-4.652 3.403 17.709 1.25 21.32 5.209 3.68 3.958.764 4.583.764 4.583l-9.098-3.403s-10.833-1.944-13.888.486c-3.056 2.431 44.444 8.334 45.833 14.931.972 3.472-11.111-3.75-21.597-6.875l-1.25 3.472s-4.167-4.167-8.82-4.861c-.139 0 .903 4.167.903 4.167s-11.667-5.556-17.639-2.639c-5.903 2.916 20.695 4.444 23.125 7.152 2.431 2.778-8.055-1.805-9.028 0-.833 1.875-13.819-3.333-13.611-.902.139 2.43 1.806 3.819 1.806 3.819s26.944 2.57 27.847 5.764-14.931-1.806-14.931-1.806-1.527 2.292-.277 3.334c1.18 1.111-9.167-6.042-8.195-1.389-3.402-1.32-12.083-5.417-10.833-2.222 1.181 3.194 24.514 7.777 24.514 7.777s-10.208.695-9.722 3.334c-13.195-7.986-12.848-2.917-12.5-2.778.277.139-16.945-4.236-3.959 2.778s6.945 5.764 7.153 5.902c.139.139 1.389 3.473 1.042 3.473-.278 0-8.82-4.514-11.736-4.861-2.847-.278-16.597 3.819-1.945 10.277 14.653 6.459 23.611-1.528 31.667-.694 8.055.972 11.805 2.361 11.111 4.861-.764 2.639-8.264-8.403-16.111 1.18-9.028-1.805-15.07-2.777-10.417 3.75-14.583-5.486-23.611 1.667-5.139 4.584 18.056.555 29.167-4.445 29.167-4.445s3.125 5.625 7.5 1.667c4.444-3.958 4.583 1.528 4.722 1.528l4.306-1.806z"/><path fill="#fff" stroke="#000" stroke-linecap="round" stroke-linejoin="round" stroke-width=".556" d="M297.225 205.651v-2.569s-5.694-1.042-8.542-.486c-1.597-.903-3.194-2.153-5.208-1.111-.347.833 3.681 2.986 5 2.986 2.86.852 5.836 1.25 8.819 1.18zm0 4.167s-5.764-2.153-8.056.278c.348 2.569 6.737 3.819 8.125 3.125 1.32-.695 0-3.334-.069-3.472zm9.722.972v1.806s6.806 1.319 8.056-.139c1.18-1.458-5.556-2.431-8.125-1.667zm-.347-7.083.208 2.014s5.972 1.319 8.264-1.945c2.292-3.263-5.208 0-8.472-.069m.278-6.944v1.388s4.514.695 5.555-1.25c.972-1.944-5.416 0-5.555-.138m-9.306-4.167c-.694-.903-3.125-3.333-9.583-4.028-4.514 0 8.125 6.597 9.583 4.097zm9.167-6.736-.139 1.875s15.278-4.584 18.819-4.236c3.195-.903 3.889-3.125 3.75-3.125-2.777-2.014-15.902 1.597-22.43 5.486m.347-5.417-.208 1.806s10.764-2.084 13.68-4.167c2.847-2.083-13.333 2.431-13.472 2.361m-.417-5.278v1.806s7.153-.278 8.681-1.667c.903-1.458-6.389-.208-8.681-.139m15 15.07s3.75.555 4.445-.556c-.139-1.944-4.445.695-4.445.556m-14.722-21.806.07 3.959s17.291-5.486 18.402-6.459c1.042-1.041 3.472-4.166-18.472 2.5m-.486-5.486v2.917s6.944-.556 10.139-3.125c3.194-2.639-10.139.278-10.139.208m-8.333-6.458.416 2.569-22.847-7.361c.07 0-1.111-3.75 22.431 4.792m.347-9.236c0 .278 0 2.5-.139 2.43 0 0-15.833-6.597-16.458-6.041-2.084-4.861 16.666 3.75 16.666 3.611zm7.708 4.166.278 2.153s9.722-2.014 10.278-2.986c.555-.972-10.556.833-10.556.764zm.209 5.139c.138.486.277 2.292.277 2.292s3.889-.347 4.514-1.25c.556-.903-4.791-1.042-4.791-1.042m-.556-11.805v2.083s10.694-2.083 11.806-3.055c1.18-1.042-12.014.972-11.806.972m0-5.903c0 .139-.347 2.153-.069 2.153s12.916-2.083 14.93-3.958c1.945-1.737-14.583 2.013-14.792 1.805zm-.139-10.347v2.292s8.195-1.737 9.722-3.473c1.528-1.736-9.722 1.389-9.722 1.181m-1.389-15 .139 3.333s11.111-1.527 12.639-3.333c1.597-1.875-12.847 0-12.778 0m-5.139-25.347v2.083s-5.208-.208-3.958-1.11c1.25-.904 3.958-.765 3.958-.973m4.861 2.778.139 2.916s6.736-.694 7.223-1.736c.555-1.041-7.223-1.11-7.362-1.11zm-.416 4.166s.139 1.806.278 1.806c.138 0 2.708-.209 3.263-.903.556-.694-3.263-.694-3.472-.903zm-5.695 8.195c0 .208.209 2.777 0 2.639-.208-.139-14.722-4.237-16.111-4.167-1.319 0-1.666-3.403 16.111 1.528m1.181 4.791c0 .486.347 3.195-.208 3.056-.486-.139-9.931-3.125-8.959-4.028.973-.903 9.167 1.181 9.167.972m-.833 20.139.069 2.431s-16.458-5-17.014-5.834c-.555-.833-2.153-4.722 16.945 3.403m.694 5.903v2.292l-22.361-7.848s-1.806-5.833 22.292 5.556z"/><path fill="#fff" stroke="#000" stroke-linejoin="round" stroke-width=".556" d="m272.433 211.554-.139 2.43s-4.306-1.25-5.694-3.68c2.5-.695 5.902 1.319 5.833 1.25Z"/></g><defs><clipPath id="a"><path fill="#fff" d="M0 0h600v300H0z"/></clipPath></defs></svg>