<svg xmlns="http://www.w3.org/2000/svg" width="600" height="300" fill="none"><g clip-path="url(#a)"><path fill="#D20000" d="M0 0h600v300H0z"/><path fill="#FFE600" d="M0-74h90l210 215.973L510-74h90L0 374h90l210-215.973L510 374h90zm600 179.2v89.6L0 105.2v89.6zM262.5-74 300 117.987 337.5-74zm0 448L300 182.013 337.5 374z"/><path fill="#FFE600" stroke="#D20000" stroke-width="17.1" d="M300 198.375c26.51 0 48-21.574 48-48.187C348 123.574 326.51 102 300 102s-48 21.574-48 48.188c0 26.613 21.49 48.187 48 48.187Z"/></g><defs><clipPath id="a"><path fill="#fff" d="M0 0h600v300H0z"/></clipPath></defs></svg>