<svg xmlns="http://www.w3.org/2000/svg" width="600" height="300" fill="none"><g clip-path="url(#a)"><mask id="b" width="601" height="300" x="-1" y="0" maskUnits="userSpaceOnUse" style="mask-type:luminance"><path fill="#fff" d="M-.03 0h600.001v300h-600z"/></mask><g fill-rule="evenodd" clip-rule="evenodd" mask="url(#b)"><path fill="#0C590B" d="M0 0h600.059v300H0z"/><path fill="#fff" d="M0 0h116.011v300H0z"/></g><path fill="#fff" fill-rule="evenodd" d="m374.563 126.79-22.305-4.72-11.724 19.524-2.431-22.599-22.162-5.149 20.733-9.297-1.931-22.671 15.299 16.878 20.947-8.868-11.367 19.738 15.013 17.164z" clip-rule="evenodd"/><path fill="#fff" fill-rule="evenodd" d="M382.928 184.432a86.66 86.66 0 0 1-48.826 45.228 86.6 86.6 0 0 1-66.487-2.747 87.3 87.3 0 0 1-45.269-49.151 87.35 87.35 0 0 1 2.732-66.777A84.784 84.784 0 0 1 276.122 65a112 112 0 0 0-8.436 7.795 80.33 80.33 0 0 0 3.755 111.537 80.267 80.267 0 0 0 111.559.1z" clip-rule="evenodd"/></g><defs><clipPath id="a"><path fill="#fff" d="M0 0h600v300H0z"/></clipPath></defs></svg>