<svg xmlns="http://www.w3.org/2000/svg" width="600" height="300" fill="none"><g clip-path="url(#a)"><mask id="b" width="600" height="300" x="0" y="0" maskUnits="userSpaceOnUse" style="mask-type:luminance"><path fill="#fff" d="M0 0h600v300H0z"/></mask><g mask="url(#b)"><path fill="#4AADD6" fill-rule="evenodd" d="M-96.656 0H696.75v300H-96.656z" clip-rule="evenodd"/></g><path fill="#FFDE00" fill-rule="evenodd" d="M277.965 151a88.5 88.5 0 0 1-6.475 35.777c-4.618 11.39-11.558 21.772-20.41 30.534s-19.438 15.728-31.131 20.483A98.1 98.1 0 0 1 183 245a98.1 98.1 0 0 1-36.949-7.206c-11.693-4.755-22.279-11.72-31.131-20.483s-15.792-19.144-20.41-30.534A88.5 88.5 0 0 1 88.035 151a88.5 88.5 0 0 1 6.475-35.777c4.618-11.39 11.558-21.772 20.41-30.534s19.438-15.727 31.131-20.483A98.1 98.1 0 0 1 183 57a98.1 98.1 0 0 1 36.949 7.206c11.693 4.755 22.279 11.72 31.131 20.483s15.792 19.144 20.41 30.534A88.5 88.5 0 0 1 277.965 151" clip-rule="evenodd"/></g><defs><clipPath id="a"><path fill="#fff" d="M0 0h600v300H0z"/></clipPath></defs></svg>