<svg xmlns="http://www.w3.org/2000/svg" width="600" height="300" fill="none"><g clip-path="url(#a)"><path fill="#000" d="M0 0h600v300H0z"/><path fill="#CE1126" d="M0 0h600v300z"/><path fill="#fff" fill-rule="evenodd" d="m153.488 265.928-10.25-6.496L129.525 266l3.103-11.693-10.466-10.899 12.054-.721 7.218-13.281 4.403 11.187 14.941 2.743-9.384 7.651zm26.128-57.021-4.764-2.165-4.547 2.598.722-5.196-3.898-3.537 5.125-.939 2.165-4.763 2.526 4.619 5.197.578-3.609 3.753zm23.097-32.624-10.466-5.053-10.033 5.63 1.661-11.332-8.517-7.795 11.331-2.021 4.764-10.393 5.486 10.104 11.404 1.3-7.94 8.3zm-47.493-45.472-12.27-6.135-11.91 6.568 2.021-13.425-9.96-9.383 13.497-2.166L142.372 94l6.28 12.054 13.569 1.66-9.6 9.672zm-43.884 47.204-12.27-7.218-12.27 7.435 3.103-13.931L79 154.918l14.219-1.299 5.558-13.209 5.702 13.137 14.291 1.155-10.754 9.383z" clip-rule="evenodd"/><path fill="#FCD116" d="M401.956 87.583c-3.854 4.978-12.974-5.008-23.9-5.236s-18.665 10.47-21.851 14.113-13.429 22.761-13.201 24.81 6.373-5.691 8.649-7.056c.228 2.731-2.504 5.918-1.821 6.828s7.966-5.463 10.47-5.69c.683 1.821-1.365 3.642-.683 6.373.911.91 5.008-4.553 7.74-5.69.455 2.048-2.504 5.918-.911 8.421 1.138.228 7.966-7.738 10.243-8.649 2.276-.911-1.139 7.511 0 8.194 2.048-1.366 8.422-8.65 10.47-9.56s-.227 9.333.683 9.333c2.504-1.822 8.877-10.471 9.56-11.836s-.683 13.201 6.373 20.941 17.755 16.615 18.893 16.615c1.365-2.504-.455-7.738.682-7.511 3.187 3.414 9.105 8.422 10.471 8.422s-.911-5.463.91-5.463c3.642 3.414 14.112 16.844 34.598 22.989-1.366-3.869-4.325-7.284-4.553-9.104 1.366.227 6.146 2.504 7.057 2.276.91-.228-10.016-13.657-9.333-15.478 2.504-.228 3.643 1.365 4.553.227-1.139-1.82-10.698-12.519-10.698-15.023s2.959.456 3.869 0c.911-.455-3.641-10.015-2.731-11.153s10.925 6.146 13.429 6.146.683-8.877 1.821-9.332 9.561 4.78 11.381 4.78 1.593-3.87 2.276-3.415 20.485 20.258 13.657 43.475c-6.829 16.617-20.485 25.494-40.516 18.21 1.138 1.821 11.836 10.698 23.445 7.511s25.72-12.291 24.127-35.053-9.105-25.948-10.243-29.362 1.822.91 4.325 1.821-.455-4.781-1.138-7.285 7.511 5.236 9.56 5.919c2.048.683-4.78-18.665-6.829-20.03s2.049.454 3.414.91c1.366.455-12.519-21.168-15.478-21.168s2.504-1.139 4.097-1.139-15.932-14.112-18.891-14.112c-2.96 0 6.372-3.642 7.283-3.87 1.594.228-20.257-11.608-39.833.228-1.138-.91 9.22-8.08 9.56-11.153.114-.797-3.413-2.504-3.641-3.414s5.462-3.642 5.69-5.69c-1.366-1.821-3.87-1.138-5.236-1.593-.34-1.707 4.781-5.918 4.326-7.739-.342-1.024-4.098-1.366-5.008-.683s2.39-4.78 1.821-6.373c-.455-.683-2.276-.227-4.097.228-1.139-.228 5.918-10.016 4.552-11.381-1.365-1.366-20.486 10.014-27.542 22.761s-1.592 22.99-2.503 27.314-2.049 8.65-5.008 8.65-9.787-4.553-12.063-6.829c-2.277-2.276-2.732-3.87-5.919-4.78s-10.47 1.821-13.201 2.049-13.43-2.049-14.112-1.366 10.47 4.78 12.974 6.146 2.732 3.186 4.552 4.324c1.821 1.138 18.892 6.146 13.429 13.202m66.692 32.093c5.463 5.463 42.336 30.046 42.336 60.091s-26.859 29.136-34.597 28.225c8.649 7.283 41.426 5.918 41.426-28.225 0-30.045-42.337-60.091-47.799-62.822-5.463-2.731-6.829-2.731-1.366 2.731"/></g><defs><clipPath id="a"><path fill="#fff" d="M0 0h600v300H0z"/></clipPath></defs></svg>