<svg xmlns="http://www.w3.org/2000/svg" width="600" height="300" fill="none"><g clip-path="url(#a)"><path fill="#0038A8" d="M0 199.812h600V300H0z"/><path fill="#fff" d="M0 100h600v100H0z"/><path fill="#D52B1E" d="M0 0h600v100H0z"/><path stroke="#000" stroke-width="1.082" d="M295.5 192c22.92 0 41.5-18.58 41.5-41.5S318.42 109 295.5 109 254 127.58 254 150.5s18.58 41.5 41.5 41.5Z"/><path stroke="#000" stroke-width=".492" d="M295.499 184.624c18.847 0 34.125-15.278 34.125-34.124s-15.278-34.125-34.125-34.125c-18.846 0-34.124 15.278-34.124 34.125 0 18.846 15.278 34.124 34.124 34.124Z"/><path stroke="#000" stroke-width=".393" d="M295.501 176.659c14.447 0 26.158-11.712 26.158-26.159s-11.711-26.159-26.158-26.159-26.159 11.712-26.159 26.159 11.711 26.159 26.159 26.159Z"/><path fill="#000" d="m273.415 166.523-4.8 2.839-1.488-2.501a4.2 4.2 0 0 1-.473-1.082 1.36 1.36 0 0 1 .068-.879c.135-.27.338-.473.676-.676.27-.135.473-.203.743-.203.256-.017.511.03.744.135l.541.406v-.879l.203-.338 1.014-1.555.946 1.69-.946 1.623-.203.541.068.405.067.136 2.029-1.15zm-3.719.203-.405-.677-.271-.338a.47.47 0 0 0-.338-.135.54.54 0 0 0-.338.068l-.27.405c0 .136.067.339.27.609l.338.676zm-4.529-3.719-1.488-4.395 1.15-.405.878 2.772.879-.271-.879-2.569 1.082-.338.879 2.502 1.014-.338-.946-2.84 1.217-.338 1.487 4.462zm-1.961-6.558-.271-2.84c-.135-.676 0-1.081.271-1.419.27-.406.676-.609 1.217-.677.541 0 1.014.068 1.352.406.338.271.541.811.676 1.488l.068.946 2.028-.27.27 1.757zm2.231-2.028-.068-.406a.9.9 0 0 0-.27-.676.542.542 0 0 0-.473-.135.68.68 0 0 0-.406.27c-.135.068-.135.338-.135.676l.067.473zm-2.366-8.452.203-1.757 3.245.405c.329.035.649.126.946.271.271.135.541.27.676.541.271.202.338.473.406.676.135.405.135.811.068 1.284l-.136.879c-.067.338-.202.541-.338.744a2.03 2.03 0 0 1-1.217.879h-.946l-3.313-.338.203-1.69 3.38.338c.271 0 .541 0 .676-.136.271-.135.338-.405.406-.676a.94.94 0 0 0-.203-.676c-.135-.27-.405-.338-.676-.405zm.676-4.056 1.149-3.11c.135-.541.406-.879.744-1.014a1.35 1.35 0 0 1 1.082-.135c.338.135.54.338.676.608.135.203.203.406.203.676.202-.338.473-.541.743-.676.305-.114.642-.114.947 0a1.49 1.49 0 0 1 1.014 1.217v.676l-.203.676-1.014 2.84zm2.704-.947.271-.743c0-.271.067-.474 0-.541 0-.135-.136-.271-.271-.338a.47.47 0 0 0-.405 0c-.136.135-.271.27-.339.541l-.27.676zm2.028.676.338-.811c.068-.27.136-.473 0-.676a.54.54 0 0 0-.27-.27.47.47 0 0 0-.473 0l-.338.608-.271.811zm-2.028-6.49.879-1.487 3.651 2.163 1.352-2.299 1.217.676-2.299 3.787zm3.381-5.138 1.081-1.353 4.327 3.584-1.081 1.352zm7.504-2.908 1.488-.676c.203.406.27.812.338 1.15.018.349-.052.698-.203 1.014a3.05 3.05 0 0 1-.811 1.014 2.7 2.7 0 0 1-1.353.744 2.38 2.38 0 0 1-1.352 0 3.2 3.2 0 0 1-1.352-1.082c-.676-.676-.947-1.352-.879-2.096a2.84 2.84 0 0 1 1.082-1.961c.437-.378.98-.614 1.555-.676.473-.067 1.014 0 1.555.338l-.947 1.285a1.3 1.3 0 0 0-.405-.203 1 1 0 0 0-.474 0 1 1 0 0 0-.405.271 1.01 1.01 0 0 0-.406.946c0 .271.271.609.541.947.406.473.744.743 1.082.811.27 0 .541 0 .811-.271.27-.202.406-.405.406-.676 0-.27-.068-.54-.271-.879m5.95-2.163-1.69.947.203.946-1.556.811-.811-5.882 1.69-.879 4.463 3.922-1.623.879zm-.879-.879-1.487-1.487.405 2.028zm5.274-5.747 2.569-.405a3.1 3.1 0 0 1 1.217 0c.338.067.676.202.879.473s.473.473.608.811c.135.271.27.676.27 1.014.136.609.136 1.082.068 1.353a2.3 2.3 0 0 1-.406.946c-.17.257-.403.466-.676.609a4 4 0 0 1-1.014.338l-2.501.405zm1.96.947.541 3.042.406-.067c.338-.068.608-.136.676-.271.203-.067.27-.27.338-.473v-.947c-.135-.608-.338-.946-.541-1.149q-.304-.304-1.014-.203zm5.274-1.893 4.597.203v1.217l-2.907-.136-.068.879 2.705.135-.068 1.15-2.704-.135v1.081l2.975.136-.068 1.284-4.733-.203zm6.761.541 1.622.405-1.014 4.057 2.705.676-.406 1.352-4.26-1.082zm8.924 2.974 2.502 1.488c.541.27.879.676.946 1.082.135.405 0 .878-.203 1.352a1.692 1.692 0 0 1-1.149.879c-.406.067-.947 0-1.555-.406l-.811-.473-1.082 1.758-1.487-.879zm.271 2.975.405.203.676.203a.54.54 0 0 0 .406-.271.68.68 0 0 0 0-.473c0-.203-.135-.338-.406-.541l-.405-.203zm4.867 6.491L314.319 129l-.812.473-1.352-1.15 5.409-2.704 1.352 1.352-2.299 5.477-1.352-1.217zm.541-1.15.947-1.893-1.826 1.082zm.676 3.719 4.665-3.178 1.555 2.367.677 1.149-.068.811a1.56 1.56 0 0 1-.676.744.97.97 0 0 1-.676.27 1.55 1.55 0 0 1-.812-.135c-.135 0-.338-.203-.54-.338l.135.473-.135.406a2.3 2.3 0 0 1-.136.406l-.879 1.555-1.081-1.555.879-1.758.202-.473a.68.68 0 0 0-.135-.474l-.067-.135-1.893 1.352zm3.719-.406.473.609.271.27c.135.135.202.135.338.135a.54.54 0 0 0 .338-.067.55.55 0 0 0 .203-.406c0-.135 0-.338-.203-.608l-.474-.609zm1.758 8.384-.676-1.893-1.015.135-.676-1.69 6.018-.068.676 1.758-4.395 4.057-.676-1.758zm1.014-.812 1.623-1.352-2.096.203zm1.42 6.085 1.149-.135.406 2.637-2.367.338a5.4 5.4 0 0 1-.879-1.217 4.6 4.6 0 0 1-.405-1.352 3.4 3.4 0 0 1 .067-1.69c.194-.432.497-.805.879-1.082a3.3 3.3 0 0 1 1.488-.609 3.4 3.4 0 0 1 1.622.136c.473.187.875.518 1.15.946.27.406.405.879.541 1.487v1.353a1.83 1.83 0 0 1-.406.879c-.203.27-.473.405-.811.608l-.541-1.623c.203-.067.338-.202.473-.405s.068-.406 0-.676a1.14 1.14 0 0 0-.473-.812c-.271-.202-.676-.27-1.352-.135a2.03 2.03 0 0 0-1.15.473c-.27.271-.338.676-.27 1.015 0 .202.067.405.203.54l.338.541h.541zm3.651 8.113-.136 1.758-3.38-.27a2.8 2.8 0 0 1-.879-.271 2 2 0 0 1-.676-.54 2 2 0 0 1-.406-.744 3.5 3.5 0 0 1-.135-1.217l.135-.879.338-.811c.145-.213.328-.397.541-.541.204-.137.434-.229.676-.271q.464-.136.947-.135l3.38.338-.203 1.69-3.38-.27c-.338 0-.609 0-.744.203a.949.949 0 0 0-.338.676c0 .27 0 .541.203.676.135.203.338.338.676.338zm-6.153 5.95.609-1.893-.812-.541.541-1.69 4.733 3.786-.676 1.758-5.95.27.609-1.69zm1.285 0 2.028.068-1.69-1.217zm2.028 4.598-1.014 1.622h-2.231l1.014 1.961-.947 1.622-1.69-3.515-2.028-1.217.946-1.488 2.029 1.217z"/><path fill="#009B3A" stroke="#000" stroke-width=".068" d="M301 131.096s15.821 6.828 13.049 20.891c-2.704 14.063-11.494 13.928-15.009 15.55-3.381 1.488-5.815 3.719-7.167 3.381-1.352-.271-3.178-1.352-3.178-1.352s-.135 2.366 2.637 2.704c2.772.473 6.423-3.583 8.113-4.057 1.758-.405 12.508-1.622 15.145-15.888 3.042-15.279-13.522-20.756-13.522-21.229z"/><path fill="#009B3A" stroke="#000" stroke-width=".068" d="M308.978 134.138c.045.364.05.672.014.887-.036.216-.112.331-.219.331s-.24-.115-.383-.331a4.4 4.4 0 0 1-.426-.887 8 8 0 0 1-.304-1.021 7 7 0 0 1-.158-.986c-.023-.296-.014-.54.026-.709s.111-.257.204-.257c.094 0 .208.089.332.257.124.169.254.413.379.709.124.296.238.635.331.986s.164.702.204 1.021Z"/><path fill="#009B3A" stroke="#000" stroke-width=".068" d="M308.436 134.274c.137.276.261.555.364.819s.183.508.236.72.078.385.073.511q-.008.191-.101.225-.095.033-.261-.095a2.4 2.4 0 0 1-.38-.402 7 7 0 0 1-.442-.647c-.15-.247-.298-.517-.435-.793-.278-.559-.493-1.112-.601-1.539s-.096-.692.029-.737c.126-.044.356.134.641.498.284.363.6.881.877 1.44Zm-1.555 1.014c.49.159.936.355 1.253.552.317.196.483.379.466.513-.016.133-.215.209-.557.212s-.804-.066-1.297-.195a6 6 0 0 1-1.253-.552c-.317-.196-.483-.379-.466-.513s.215-.21.557-.213.804.067 1.297.196Z"/><path fill="#009B3A" stroke="#000" stroke-width=".068" d="M307.086 134.747c.515.346.984.725 1.303 1.052.32.328.465.577.402.694s-.328.09-.736-.072c-.409-.163-.928-.449-1.443-.795a11 11 0 0 1-.725-.534 7 7 0 0 1-.579-.519c-.319-.327-.464-.577-.401-.693.063-.117.328-.091.736.071.409.163.927.449 1.443.796Z"/><path fill="#009B3A" stroke="#000" stroke-width=".068" d="M307.761 134.476c.414.431.775.88 1.004 1.248.23.368.308.625.219.715-.09.09-.34.004-.697-.237s-.789-.619-1.203-1.05-.775-.88-1.004-1.248c-.23-.368-.308-.625-.219-.715.09-.089.34-.004.697.237s.789.619 1.203 1.05Z"/><path fill="#009B3A" stroke="#000" stroke-width=".068" d="m308.842 136.437-.676.406c-.202 0-.405-.203-.811 0s-.676.608-.744.811.136.338.609.068c.473-.203.608-.609.811-.744l.879-.473.541-.879c.203-.271.811-.676 1.082-1.217.202-.406.135-.744-.136-.609a2.03 2.03 0 0 0-.811.879c-.135.271 0 .676-.203.947zm4.936 1.623c.016.94-.048 1.824-.176 2.457-.128.634-.311.964-.508.919-.198-.045-.393-.461-.544-1.158-.15-.696-.244-1.616-.26-2.556-.015-.941.048-1.825.176-2.458.129-.633.311-.963.509-.919.197.045.392.462.543 1.158.151.697.244 1.617.26 2.557Z"/><path fill="#009B3A" stroke="#000" stroke-width=".068" d="M312.966 137.992c.204.951.321 1.867.326 2.546s-.103 1.065-.301 1.074c-.197.009-.467-.361-.751-1.027-.283-.666-.557-1.574-.761-2.525-.095-.445-.17-.886-.222-1.297a9 9 0 0 1-.079-1.1c-.001-.315.024-.565.074-.735q.076-.256.217-.258.141.001.326.258c.123.17.254.42.387.735.132.315.264.688.387 1.1.123.411.235.852.33 1.297z"/><path fill="#009B3A" stroke="#000" stroke-width=".068" d="M310.397 138.804c.347.233.684.484.992.738.308.253.582.504.805.739s.391.447.495.627.141.323.11.42q-.048.148-.291.149c-.161.001-.382-.048-.649-.145a7 7 0 0 1-.907-.416 12 12 0 0 1-1.028-.625 14 14 0 0 1-.992-.738 9 9 0 0 1-.804-.739 3.5 3.5 0 0 1-.495-.628c-.104-.179-.142-.322-.111-.42q.048-.147.292-.149c.161-.001.381.049.648.145s.576.238.908.417c.332.178.681.391 1.027.625Z"/><path fill="#009B3A" stroke="#000" stroke-width=".068" d="M310.939 138.06c.597.725 1.12 1.477 1.454 2.091s.451 1.04.325 1.183c-.125.143-.483-.007-.994-.418s-1.134-1.05-1.732-1.775c-.578-.703-1.083-1.432-1.404-2.025s-.429-1.001-.304-1.136c.126-.134.476.017.974.419.498.403 1.102 1.024 1.681 1.728z"/><path fill="#009B3A" stroke="#000" stroke-width=".068" d="M311.953 137.992c.445.829.808 1.66 1.009 2.31s.223 1.066.062 1.155c-.162.09-.493-.154-.922-.677s-.921-1.283-1.366-2.112c-.22-.411-.423-.826-.596-1.223a11 11 0 0 1-.413-1.087c-.201-.65-.223-1.066-.062-1.155.162-.09.494.153.923.676.429.524.92 1.283 1.365 2.113Z"/><path fill="#009B3A" stroke="#000" stroke-width=".068" d="m312.831 141.304-1.217.271c-.202 0-.405-.473-1.014-.338-.608.135-1.149.541-1.352.811-.135.271.068.541.811.406.812-.135 1.082-.676 1.488-.676.338-.135.946-.271 1.352-.271.135-.27.676-.811 1.014-1.081.338-.338 1.352-.677 1.826-1.217.473-.541.473-1.082 0-1.015a3.25 3.25 0 0 0-1.353.879c-.338.406-.27 1.015-.608 1.353zm3.448 3.313c-.151.904-.367 1.735-.601 2.31s-.465.848-.645.759c-.179-.09-.291-.535-.311-1.237s.054-1.604.205-2.508c.075-.447.167-.881.27-1.278.103-.396.216-.746.331-1.031s.233-.499.343-.629q.168-.195.302-.13.134.068.216.389c.053.212.086.5.096.848.009.347-.004.748-.039 1.178s-.092.882-.167 1.329Z"/><path fill="#009B3A" stroke="#000" stroke-width=".068" d="M315.536 144.415c.023.471.026.944.008 1.389-.017.444-.054.85-.108 1.191s-.124.61-.206.788q-.123.27-.267.25c-.096-.014-.192-.128-.284-.332a4.2 4.2 0 0 1-.251-.857 12 12 0 0 1-.175-1.234c-.042-.453-.065-.93-.069-1.398a17 17 0 0 1-.008-1.389c.017-.444.054-.85.108-1.191.055-.341.125-.61.206-.789q.124-.268.268-.249.144.023.284.332c.092.205.178.497.251.857s.133.78.175 1.234.065.929.068 1.398Z"/><path fill="#009B3A" stroke="#000" stroke-width=".068" d="M312.899 144.685c.349.303.703.648 1.034 1.008s.631.725.875 1.067.427.65.533.901c.106.252.133.439.078.548-.054.109-.188.136-.392.079-.203-.057-.47-.196-.78-.406a9 9 0 0 1-1.005-.807c-.351-.32-.7-.675-1.019-1.038a13 13 0 0 1-1.909-2.074 5 5 0 0 1-.533-.902c-.106-.251-.133-.439-.079-.548.055-.108.189-.135.392-.079s.471.196.781.407c.309.21.654.486 1.005.807.351.32.7.675 1.019 1.037Z"/><path fill="#009B3A" stroke="#000" stroke-width=".068" d="M313.575 144.077c.224.412.431.831.61 1.233.178.403.324.781.429 1.113s.168.612.184.822c.016.211-.015.35-.09.407q-.116.087-.35-.07c-.156-.104-.345-.287-.557-.537a10 10 0 0 1-.678-.923 16.6 16.6 0 0 1-1.307-2.4c-.179-.402-.325-.78-.43-1.112a4 4 0 0 1-.184-.823q-.023-.318.09-.407.116-.085.35.071c.156.104.345.287.557.537s.442.564.678.922.473.755.698 1.167Z"/><path fill="#009B3A" stroke="#000" stroke-width=".068" d="M314.522 144.212c.138.436.259.875.354 1.29.096.415.165.799.203 1.129.039.331.045.602.02.798-.024.195-.081.312-.165.343q-.128.046-.326-.162a3.2 3.2 0 0 1-.437-.644 10 10 0 0 1-.481-1.027 17.061 17.061 0 0 1-.823-2.604c-.1-.434-.172-.835-.211-1.181-.08-.697-.024-1.124.155-1.186.179-.063.467.243.801.852.333.608.685 1.469.977 2.392z"/><path fill="#009B3A" d="M314.792 147.66h-1.149c-.203 0-.338-.541-.947-.541a2.24 2.24 0 0 0-1.42.541c-.27.271-.067.541.677.541.743 0 1.149-.338 1.555-.405h1.352l1.217-.812c.405-.27 1.42-.405 2.028-.879.473-.405.609-.946.203-.946a3.4 3.4 0 0 0-1.555.608c-.338.271-.406.879-.811 1.15-.271.135-1.082.743-1.15.676m1.69 4.327c-.476.757-.983 1.423-1.409 1.851-.425.428-.735.583-.86.431-.126-.153-.057-.6.191-1.243s.655-1.431 1.132-2.189c.476-.757.983-1.423 1.409-1.851s.735-.583.861-.43c.125.152.056.599-.192 1.243-.248.643-.655 1.43-1.132 2.188"/><path stroke="#000" stroke-width=".068" d="M314.792 147.66h-1.149c-.203 0-.338-.541-.947-.541a2.24 2.24 0 0 0-1.42.541c-.27.271-.067.541.677.541.743 0 1.149-.338 1.555-.405h1.352l1.217-.812c.405-.27 1.42-.405 2.028-.879.473-.405.609-.946.203-.946a3.4 3.4 0 0 0-1.555.608c-.338.271-.406.879-.811 1.15-.271.135-1.082.743-1.15.676m1.69 4.327c-.476.757-.983 1.423-1.409 1.851-.425.428-.735.583-.86.431-.126-.153-.057-.6.191-1.243s.655-1.431 1.132-2.189c.476-.757.983-1.423 1.409-1.851s.735-.583.861-.43c.125.152.056.599-.192 1.243-.248.643-.655 1.43-1.132 2.188Z"/><path fill="#009B3A" stroke="#000" stroke-width=".068" d="M315.874 151.379c-.333.867-.717 1.659-1.067 2.202-.35.544-.637.793-.798.695s-.184-.538-.063-1.221c.122-.682.378-1.553.711-2.42.334-.867.718-1.659 1.068-2.202.349-.543.637-.793.798-.695s.184.538.062 1.221c-.122.682-.377 1.553-.711 2.42Zm-2.501-.811c.338.886.599 1.79.724 2.511s.105 1.203-.057 1.338c-.161.134-.45-.089-.804-.62-.353-.532-.742-1.329-1.08-2.215-.339-.887-.599-1.79-.724-2.512s-.105-1.203.056-1.338c.162-.134.451.089.804.621s.742 1.328 1.081 2.215Z"/><path fill="#009B3A" stroke="#000" stroke-width=".068" d="M314.183 150.297c.086.926.096 1.833.03 2.52-.067.687-.205 1.098-.384 1.143s-.385-.28-.572-.904c-.188-.624-.34-1.495-.426-2.421a17 17 0 0 1-.071-1.35c-.005-.433.009-.831.042-1.171a4 4 0 0 1 .15-.812q.1-.296.234-.331.135-.032.283.202c.098.155.197.393.289.702.093.309.178.682.251 1.097.073.416.132.866.174 1.325Z"/><path fill="#009B3A" stroke="#000" stroke-width=".068" d="M315.13 150.77c-.088.929-.243 1.815-.432 2.466-.189.65-.396 1.01-.575 1.001s-.316-.386-.381-1.049-.052-1.557.036-2.486c.043-.459.104-.914.178-1.337s.16-.806.254-1.128.192-.576.291-.748q.15-.26.284-.253c.179.008.316.386.381 1.049s.052 1.557-.036 2.485Z"/><path fill="#009B3A" d="M313.981 154.083s-.947-.338-1.082-.473c-.203-.135-.067-.541-.676-.879a2.1 2.1 0 0 0-1.487 0c-.338 0-.271.406.405.676.676.406 1.217.135 1.555.27l1.217.609c.338-.135 1.082-.203 1.488-.271.405-.067 1.419.271 2.163 0 .609-.202.879-.676.473-.811a3.04 3.04 0 0 0-1.555 0c-.473.068-.743.676-1.217.676-.338 0-1.284.271-1.352.203m.676 5.206c-.4.382-.83.749-1.256 1.076-.427.326-.84.603-1.208.809-.367.206-.681.336-.917.381-.237.045-.389.003-.447-.123-.057-.125-.018-.33.115-.601.132-.271.355-.599.652-.961.296-.362.659-.748 1.06-1.13s.831-.748 1.258-1.074c.406-.403.853-.799 1.303-1.154.45-.356.891-.66 1.286-.89.396-.229.734-.376.988-.428.253-.053.415-.01.471.125.057.136.006.359-.147.653-.153.293-.405.649-.734 1.036a14.913 14.913 0 0 1-2.491 2.281"/><path stroke="#000" stroke-width=".068" d="M313.981 154.083s-.947-.338-1.082-.473c-.203-.135-.067-.541-.676-.879a2.1 2.1 0 0 0-1.487 0c-.338 0-.271.406.405.676.676.406 1.217.135 1.555.27l1.217.609c.338-.135 1.082-.203 1.488-.271.405-.067 1.419.271 2.163 0 .609-.202.879-.676.473-.811a3.04 3.04 0 0 0-1.555 0c-.473.068-.743.676-1.217.676-.338 0-1.284.271-1.352.203m.676 5.206c-.4.382-.83.749-1.256 1.076-.427.326-.84.603-1.208.809-.367.206-.681.336-.917.381-.237.045-.389.003-.447-.123-.057-.125-.018-.33.115-.601.132-.271.355-.599.652-.961.296-.362.659-.748 1.06-1.13s.831-.748 1.258-1.074c.406-.403.853-.799 1.303-1.154.45-.356.891-.66 1.286-.89.396-.229.734-.376.988-.428.253-.053.415-.01.471.125.057.136.006.359-.147.653-.153.293-.405.649-.734 1.036a14.913 14.913 0 0 1-2.491 2.281"/><path fill="#009B3A" stroke="#000" stroke-width=".068" d="M313.981 158.545c-.645.821-1.317 1.536-1.869 1.989-.551.453-.936.607-1.07.428-.135-.18-.008-.678.353-1.384.361-.707.927-1.565 1.572-2.385.319-.406.648-.79.969-1.132a10 10 0 0 1 .899-.856c.273-.224.508-.378.691-.451q.278-.11.38.023c.066.089.069.257.009.494a4.6 4.6 0 0 1-.363.89c-.179.35-.41.741-.679 1.15s-.573.828-.892 1.234Z"/><path fill="#009B3A" stroke="#000" stroke-width=".068" d="M311.547 156.72c.088.538.147 1.125.174 1.713s.019 1.16-.022 1.669c-.041.508-.114.939-.213 1.257-.1.318-.222.513-.358.57s-.281-.027-.423-.244-.278-.562-.396-1.004a11 11 0 0 1-.281-1.543 16 16 0 0 1-.104-1.742 15 15 0 0 1-.174-1.713c-.027-.588-.019-1.16.022-1.669s.114-.94.213-1.257c.099-.318.222-.513.358-.57s.28.027.423.244.278.562.395 1.004c.118.443.214.972.281 1.543s.103 1.168.105 1.742Z"/><path fill="#009B3A" d="M312.494 156.72c-.211.794-.455 1.485-.694 1.969-.24.485-.463.738-.637.723s-.289-.298-.33-.807c-.04-.509-.003-1.217.106-2.021.075-.59.188-1.217.329-1.83s.306-1.194.482-1.695.358-.907.53-1.186.329-.42.46-.414c.13.005.229.159.289.447s.078.703.054 1.211c-.024.507-.09 1.093-.193 1.707a19 19 0 0 1-.396 1.828"/><path stroke="#000" stroke-width=".068" d="M312.494 156.72c-.211.794-.455 1.485-.694 1.969-.24.485-.463.738-.637.723s-.289-.298-.33-.807c-.04-.509-.003-1.217.106-2.021.075-.59.188-1.217.329-1.83s.306-1.194.482-1.695.358-.907.53-1.186.329-.42.46-.414c.13.005.229.159.289.447s.078.703.054 1.211c-.024.507-.09 1.093-.193 1.707a19 19 0 0 1-.396 1.828"/><path fill="#009B3A" stroke="#000" stroke-width=".068" d="M313.305 157.531a20 20 0 0 1-.68 1.8 17 17 0 0 1-.809 1.63c-.272.472-.531.845-.753 1.086-.223.241-.404.342-.526.295-.123-.047-.184-.24-.178-.563.005-.324.078-.767.21-1.293.133-.527.322-1.12.551-1.728.229-.609.492-1.216.765-1.768.188-.586.421-1.203.68-1.801s.537-1.156.809-1.629c.273-.473.531-.846.754-1.087.223-.24.403-.341.526-.295.122.047.183.24.178.564s-.078.767-.211 1.293a16 16 0 0 1-.551 1.728 20 20 0 0 1-.765 1.768Z"/><path fill="#009B3A" d="M311.074 160.844a11 11 0 0 1-1.082-.946c-.135-.203.067-.676-.473-1.217a2.34 2.34 0 0 0-1.623-.676c-.406.067-.406.473.203 1.082.676.676 1.352.54 1.622.811.406.27.947.744 1.15 1.082l1.758.27c.473 0 1.487.744 2.366.744.676 0 1.217-.338.811-.676a3.6 3.6 0 0 0-1.758-.676c-.54 0-1.014.541-1.487.405l-1.555-.203m-1.555 4.936c-1.062.174-2.07.237-2.802.177-.733-.061-1.129-.242-1.102-.502s.475-.578 1.245-.885 1.8-.577 2.862-.751a16 16 0 0 1 1.525-.176c.481-.03.915-.03 1.277 0 .363.03.647.09.836.176q.285.13.266.325-.022.195-.344.425c-.214.152-.52.308-.901.46-.382.152-.831.297-1.322.425-.491.129-1.014.24-1.54.326"/><path stroke="#000" stroke-width=".068" d="M311.074 160.844a11 11 0 0 1-1.082-.946c-.135-.203.067-.676-.473-1.217a2.34 2.34 0 0 0-1.623-.676c-.406.067-.406.473.203 1.082.676.676 1.352.54 1.622.811.406.27.947.744 1.15 1.082l1.758.27c.473 0 1.487.744 2.366.744.676 0 1.217-.338.811-.676a3.6 3.6 0 0 0-1.758-.676c-.54 0-1.014.541-1.487.405l-1.555-.203m-1.555 4.936c-1.062.174-2.07.237-2.802.177-.733-.061-1.129-.242-1.102-.502s.475-.578 1.245-.885 1.8-.577 2.862-.751a16 16 0 0 1 1.525-.176c.481-.03.915-.03 1.277 0 .363.03.647.09.836.176q.285.13.266.325-.022.195-.344.425c-.214.152-.52.308-.901.46-.382.152-.831.297-1.322.425-.491.129-1.014.24-1.54.326Z"/><path fill="#009B3A" d="M309.383 164.697c-1.072.413-2.118.716-2.907.843s-1.259.068-1.304-.166c-.044-.233.338-.62 1.065-1.077s1.736-.945 2.808-1.358c1.111-.427 2.193-.74 3.01-.871s1.301-.068 1.346.174-.353.644-1.107 1.117c-.753.473-1.8.979-2.911 1.406"/><path stroke="#000" stroke-width=".068" d="M309.383 164.697c-1.072.413-2.118.716-2.907.843s-1.259.068-1.304-.166c-.044-.233.338-.62 1.065-1.077s1.736-.945 2.808-1.358c1.111-.427 2.193-.74 3.01-.871s1.301-.068 1.346.174-.353.644-1.107 1.117c-.753.473-1.8.979-2.911 1.406"/><path fill="#009B3A" stroke="#000" stroke-width=".068" d="M307.964 161.588c-.434.813-.901 1.527-1.323 2.025-.422.497-.773.747-.995.707-.222-.039-.301-.366-.223-.925s.306-1.316.648-2.145c.222-.538.485-1.09.769-1.614.284-.523.582-1.006.873-1.414s.567-.728.808-.939.441-.308.585-.282.228.173.248.431c.019.257-.028.619-.137 1.059s-.279.946-.496 1.481a17 17 0 0 1-.757 1.616Z"/><path fill="#009B3A" stroke="#000" stroke-width=".068" d="M308.978 162.129c-.805.912-1.66 1.733-2.375 2.283s-1.233.783-1.44.649c-.206-.135-.084-.626.34-1.366s1.115-1.668 1.92-2.58c.399-.452.814-.886 1.221-1.278s.8-.733 1.154-1.006c.716-.549 1.233-.783 1.44-.648.206.134.084.625-.34 1.365-.21.367-.488.783-.817 1.226s-.704.903-1.103 1.355Z"/><path fill="#009B3A" stroke="#000" stroke-width=".068" d="M309.249 163.413c-.489.401-1.008.79-1.521 1.14-.514.351-1.009.653-1.451.887s-.821.393-1.109.467c-.289.073-.479.06-.56-.041-.08-.1-.047-.284.095-.54.143-.255.393-.575.732-.938.339-.362.76-.759 1.232-1.161s.984-.8 1.5-1.166c.831-.589 1.63-1.065 2.257-1.345.627-.279 1.042-.344 1.171-.182s-.035.538-.465 1.065c-.429.527-1.095 1.169-1.881 1.814Z"/><path fill="#009B3A" d="M305.259 165.171a12 12 0 0 1-.473-1.487c-.068-.27.406-.541.203-1.352a2.9 2.9 0 0 0-1.285-1.555c-.338-.203-.608.135-.338 1.082.271.946.947 1.284 1.15 1.757l.54 1.623 1.488 1.285c.406.338 1.014 1.622 1.825 2.096.676.473 1.353.338 1.217-.136a4.2 4.2 0 0 0-1.352-1.622c-.473-.406-1.217-.203-1.69-.541-.271-.338-1.352-1.082-1.352-1.15"/><path stroke="#000" stroke-width=".068" d="M305.259 165.171a12 12 0 0 1-.473-1.487c-.068-.27.406-.541.203-1.352a2.9 2.9 0 0 0-1.285-1.555c-.338-.203-.608.135-.338 1.082.271.946.947 1.284 1.15 1.757l.54 1.623 1.488 1.285c.406.338 1.014 1.622 1.825 2.096.676.473 1.353.338 1.217-.136a4.2 4.2 0 0 0-1.352-1.622c-.473-.406-1.217-.203-1.69-.541-.271-.338-1.352-1.082-1.352-1.15"/><path fill="#009B3A" stroke="#000" stroke-width=".068" d="M302.826 169.43c-.9-.05-1.7-.188-2.272-.394-.573-.205-.884-.466-.884-.739s.311-.543.884-.767c.572-.223 1.372-.388 2.272-.466.9.05 1.7.188 2.272.394.573.205.884.466.884.739s-.311.543-.884.767c-.572.223-1.372.388-2.272.466Z"/><path fill="#009B3A" d="M302.284 165.712c-.707.915-1.482 1.714-2.154 2.222-.671.507-1.184.682-1.426.484-.243-.197-.194-.75.136-1.536.329-.787.911-1.743 1.619-2.658.343-.442.705-.861 1.066-1.232a9 9 0 0 1 1.038-.931c.324-.244.614-.41.852-.489.237-.079.419-.07.535.028.115.098.162.281.137.541-.024.259-.12.59-.281.971a9.6 9.6 0 0 1-.657 1.254c-.272.446-.589.904-.932 1.346"/><path stroke="#000" stroke-width=".068" d="M302.284 165.712c-.707.915-1.482 1.714-2.154 2.222-.671.507-1.184.682-1.426.484-.243-.197-.194-.75.136-1.536.329-.787.911-1.743 1.619-2.658.343-.442.705-.861 1.066-1.232a9 9 0 0 1 1.038-.931c.324-.244.614-.41.852-.489.237-.079.419-.07.535.028.115.098.162.281.137.541-.024.259-.12.59-.281.971a9.6 9.6 0 0 1-.657 1.254c-.272.446-.589.904-.932 1.346"/><path fill="#009B3A" stroke="#000" stroke-width=".068" d="M302.825 167.605c-1.053.452-2.106.768-2.927.878-.821.111-1.342.007-1.45-.289s.208-.759.877-1.288c.668-.529 1.635-1.08 2.688-1.532s2.106-.768 2.927-.879c.82-.11 1.342-.006 1.45.29.107.295-.208.759-.877 1.288-.668.529-1.635 1.08-2.688 1.532Zm1.149-36.104c.463.434.846.863 1.074 1.204s.283.566.156.634c-.128.068-.429-.027-.844-.267a9.5 9.5 0 0 1-1.4-1.03 11 11 0 0 1-.752-.714 7 7 0 0 1-.566-.664c-.146-.201-.244-.372-.285-.502q-.063-.197.044-.255.108-.056.366.036c.17.062.384.171.626.321.241.149.507.337.779.55s.546.447.802.687Zm-1.285 1.015c.56.103 1.062.237 1.429.38s.578.287.601.41-.143.218-.473.271c-.331.053-.806.06-1.354.02a13 13 0 0 1-1.184-.144 11 11 0 0 1-1.1-.245 4.3 4.3 0 0 1-.79-.295c-.192-.1-.3-.196-.316-.283s.06-.159.223-.213.408-.088.716-.099.671.001 1.061.035.796.09 1.187.163Z"/><path fill="#009B3A" stroke="#000" stroke-width=".068" d="M303.231 131.839c.344.175.677.36.981.543.305.184.573.363.792.528.218.164.381.311.48.431q.148.182.096.269-.056.087-.303.067a3.2 3.2 0 0 1-.656-.146 10 10 0 0 1-.908-.337 15 15 0 0 1-1.023-.476c-.695-.353-1.333-.738-1.773-1.07s-.648-.584-.576-.701.417-.088.958.079c.542.168 1.237.46 1.932.813Zm-18.728 33.535s3.448.743 6.49 1.825c3.043 1.149 7.64 4.868 8.857 5.138 1.352 0 3.313-.473 4.057-2.434-2.164.541-3.381 1.42-5.409.338-.744-.27-3.11-2.434-5.747-3.583-2.569-1.149-7.775-2.434-7.775-2.434zm3.718-31.439 3.989-2.096-4.394 1.15-.541.743z"/><path fill="#009B3A" d="M292.007 134.95c-1.555-.338-3.921-.879-5.408-.947 1.014-1.149 2.434-3.177 3.38-4.327-.676 1.15-1.555 2.705-1.893 3.719 1.014.608 2.704 1.082 3.921 1.487"/><path stroke="#000" stroke-width=".068" d="M292.007 134.95c-1.555-.338-3.921-.879-5.408-.947 1.014-1.149 2.434-3.177 3.38-4.327-.676 1.15-1.555 2.705-1.893 3.719 1.014.608 2.704 1.082 3.921 1.487"/><path fill="#009B3A" d="M287.478 134.206a209 209 0 0 1 3.583-2.772l-4.124 1.825-.406.879h.947"/><path stroke="#000" stroke-width=".068" d="M287.478 134.206a209 209 0 0 1 3.583-2.772l-4.124 1.825-.406.879h.947"/><path fill="#009B3A" d="M291.264 134.881c-1.555-.338-3.921-.879-5.409-1.014.947-1.149 2.367-3.177 3.246-4.462-.541 1.217-1.488 2.772-1.826 3.921 1.082.609 2.772 1.082 4.057 1.555"/><path stroke="#000" stroke-width=".068" d="M291.264 134.881c-1.555-.338-3.921-.879-5.409-1.014.947-1.149 2.367-3.177 3.246-4.462-.541 1.217-1.488 2.772-1.826 3.921 1.082.609 2.772 1.082 4.057 1.555"/><path fill="#009B3A" d="m286.937 134.409 4.124-1.758-4.462.744-.609.676.879.338"/><path stroke="#000" stroke-width=".068" d="m286.937 134.409 4.124-1.758-4.462.744-.609.676.879.338"/><path fill="#009B3A" d="M290.79 134.95c-1.555-.203-4.057-.473-5.544-.406.879-1.352 2.028-3.583 2.772-4.935-.406 1.284-1.149 2.975-1.352 4.124 1.149.541 2.907.811 4.124 1.149"/><path stroke="#000" stroke-width=".068" d="M290.79 134.95c-1.555-.203-4.057-.473-5.544-.406.879-1.352 2.028-3.583 2.772-4.935-.406 1.284-1.149 2.975-1.352 4.124 1.149.541 2.907.811 4.124 1.149"/><path fill="#009B3A" stroke="#000" stroke-width=".068" d="m286.464 134.409 2.84-3.38-3.584 2.636-.202.879z"/><path fill="#009B3A" stroke="#000" stroke-width=".068" d="M290.79 135.152c-1.69 0-4.327-.203-5.949 0 .811-1.555 1.825-4.057 2.434-5.612-.271 1.42-.879 3.381-.947 4.665 1.217.406 3.11.677 4.462.947Z"/><path fill="#009B3A" stroke="#000" stroke-width=".068" d="m285.922 135.22 3.381-3.313-4.124 2.366-.271.947z"/><path fill="#009B3A" stroke="#000" stroke-width=".068" d="M290.047 135.22c-1.826 0-4.598-.068-6.423.135 1.217-1.69 2.84-4.462 3.786-6.153-.676 1.555-1.622 3.651-2.028 5.071 1.284.473 3.245.676 4.665.947Z"/><path fill="#009B3A" stroke="#000" stroke-width=".068" d="m284.706 135.49 4.462-3.718-5.003 2.636-.541 1.082z"/><path fill="#009B3A" d="M289.439 135.356c-1.825.27-4.665.54-6.355 1.014.879-1.826 2.096-4.733 2.84-6.558-.406 1.622-1.15 3.786-1.353 5.273 1.353.27 3.381.203 4.801.271"/><path stroke="#000" stroke-width=".068" d="M289.439 135.356c-1.825.27-4.665.54-6.355 1.014.879-1.826 2.096-4.733 2.84-6.558-.406 1.622-1.15 3.786-1.353 5.273 1.353.27 3.381.203 4.801.271"/><path fill="#009B3A" stroke="#000" stroke-width=".068" d="m284.166 136.234 3.38-4.733-4.259 3.854-.203 1.149z"/><path fill="#009B3A" stroke="#000" stroke-width=".068" d="M288.356 135.896c-1.758.203-4.597.338-6.355.676 1.014-1.758 2.366-4.597 3.245-6.355-.541 1.555-1.352 3.718-1.622 5.206 1.352.338 3.38.338 4.732.473Z"/><path fill="#009B3A" stroke="#000" stroke-width=".068" d="m283.557 136.707 4.327-3.718-4.935 2.637-.473 1.081z"/><path fill="#009B3A" stroke="#000" stroke-width=".068" d="M287.884 136.099c-1.826.406-4.665.879-6.356 1.42.812-1.825 1.893-4.8 2.569-6.626-.338 1.623-.946 3.786-1.081 5.274 1.352.203 3.38 0 4.868-.068Z"/><path fill="#009B3A" d="m282.813 136.978 2.704-5.206-3.651 4.462-.067 1.149 1.014-.473"/><path stroke="#000" stroke-width=".068" d="m282.813 136.978 2.704-5.206-3.651 4.462-.067 1.149 1.014-.473"/><path fill="#009B3A" d="M287.883 136.37c-2.028.54-5.003 1.216-6.761 1.893.676-2.096 1.42-5.409 1.961-7.505-.203 1.825-.609 4.259-.541 5.95 1.555.135 3.718-.203 5.273-.338"/><path stroke="#000" stroke-width=".068" d="M287.883 136.37c-2.028.54-5.003 1.216-6.761 1.893.676-2.096 1.42-5.409 1.961-7.505-.203 1.825-.609 4.259-.541 5.95 1.555.135 3.718-.203 5.273-.338"/><path fill="#009B3A" stroke="#000" stroke-width=".068" d="m282.271 138.127 3.516-5.138-4.462 4.124-.203 1.352z"/><path fill="#009B3A" stroke="#000" stroke-width=".068" d="M287.072 136.978c-1.893.609-4.868 1.42-6.626 2.231.541-2.163 1.217-5.476 1.623-7.572-.068 1.826-.338 4.259-.203 5.882 1.487.068 3.651-.406 5.206-.541Z"/><path fill="#009B3A" stroke="#000" stroke-width=".068" d="m281.596 138.871 2.636-5.68-3.786 4.868v1.352z"/><path fill="#009B3A" d="M286.329 137.789c-1.893.406-4.935 1.015-6.761 1.623.744-2.028 1.691-5.409 2.299-7.437-.27 1.825-.744 4.327-.744 5.882 1.488.203 3.651-.068 5.206-.135"/><path stroke="#000" stroke-width=".068" d="M286.329 137.789c-1.893.406-4.935 1.015-6.761 1.623.744-2.028 1.691-5.409 2.299-7.437-.27 1.825-.744 4.327-.744 5.882 1.488.203 3.651-.068 5.206-.135"/><path fill="#009B3A" stroke="#000" stroke-width=".068" d="m280.92 139.412 4.327-4.462-5.071 3.312-.405 1.217z"/><path fill="#009B3A" stroke="#000" stroke-width=".068" d="M285.517 138.533c-1.961.27-4.936.541-6.761 1.014.879-2.028 2.028-5.274 2.704-7.302-.405 1.825-1.014 4.259-1.149 5.882 1.487.338 3.651.27 5.206.406Z"/><path fill="#009B3A" d="m280.108 139.006 2.907-5.611-3.989 4.732v1.285l1.082-.473"/><path stroke="#000" stroke-width=".068" d="m280.108 139.006 2.907-5.611-3.989 4.732v1.285l1.082-.473"/><path fill="#009B3A" stroke="#000" stroke-width=".068" d="M285.72 137.856c-2.028.879-5.409 2.029-7.369 3.11.676-2.501 1.352-6.422 1.757-8.856 0 2.096-.338 5.003-.202 6.828 1.69 0 4.056-.744 5.814-1.082Z"/><path fill="#009B3A" stroke="#000" stroke-width=".068" d="m279.703 140.629 3.515-6.355-4.665 5.408-.135 1.488z"/><path fill="#009B3A" stroke="#000" stroke-width=".068" d="M284.909 138.668c-2.029.946-5.274 2.299-7.167 3.448.541-2.434 1.014-6.423 1.352-8.789 0 2.028-.135 4.935.068 6.761 1.69-.203 4.057-1.015 5.747-1.42Z"/><path fill="#009B3A" stroke="#000" stroke-width=".068" d="m278.959 141.575 2.57-6.828-3.854 6.085.135 1.555z"/><path fill="#009B3A" stroke="#000" stroke-width=".068" d="M284.03 139.209c-2.028 1.014-5.274 2.366-7.167 3.583.474-2.502.947-6.423 1.285-8.857 0 2.028-.135 4.936.135 6.761 1.69-.203 4.057-1.082 5.747-1.487Z"/><path fill="#009B3A" stroke="#000" stroke-width=".068" d="m278.418 142.386 3.922-6.017-5.003 4.936-.203 1.487z"/><path fill="#009B3A" d="M283.827 138.871c-1.826 1.488-4.733 3.651-6.355 5.274 0-2.569-.339-6.423-.541-8.79.405 1.961.879 4.733 1.555 6.423 1.622-.608 3.718-2.028 5.408-2.839"/><path stroke="#000" stroke-width=".068" d="M283.827 138.871c-1.826 1.488-4.733 3.651-6.355 5.274 0-2.569-.339-6.423-.541-8.79.405 1.961.879 4.733 1.555 6.423 1.622-.608 3.718-2.028 5.408-2.839"/><path fill="#009B3A" stroke="#000" stroke-width=".068" d="m278.621 142.725.406-7.234-1.893 7.031.541 1.352z"/><path fill="#009B3A" stroke="#000" stroke-width=".068" d="M283.354 139.547c-1.893 1.488-4.732 3.584-6.423 5.206 0-2.501-.338-6.423-.54-8.789.473 2.028.879 4.733 1.555 6.423 1.622-.541 3.718-2.028 5.408-2.84Z"/><path fill="#009B3A" stroke="#000" stroke-width=".068" d="m278.148 143.941 1.826-7.099-3.178 6.491.203 1.487z"/><path fill="#009B3A" d="M283.084 139.682c-1.69 1.758-4.462 4.327-6.017 6.085-.271-2.502-1.015-6.491-1.488-8.925.676 2.029 1.42 4.801 2.299 6.423 1.555-.743 3.651-2.434 5.206-3.515"/><path stroke="#000" stroke-width=".068" d="M283.084 139.682c-1.69 1.758-4.462 4.327-6.017 6.085-.271-2.502-1.015-6.491-1.488-8.925.676 2.029 1.42 4.801 2.299 6.423 1.555-.743 3.651-2.434 5.206-3.515"/><path fill="#009B3A" stroke="#000" stroke-width=".068" d="m278.148 144.82.338-7.504-1.826 7.301.541 1.353z"/><path fill="#009B3A" d="M282.543 141.034c-1.826 1.488-4.733 3.719-6.491 5.409 0-2.569-.473-6.626-.676-9.127.473 2.028 1.014 4.935 1.69 6.693 1.69-.676 3.854-2.096 5.477-3.042"/><path stroke="#000" stroke-width=".068" d="M282.543 141.034c-1.826 1.488-4.733 3.719-6.491 5.409 0-2.569-.473-6.626-.676-9.127.473 2.028 1.014 4.935 1.69 6.693 1.69-.676 3.854-2.096 5.477-3.042"/><path fill="#009B3A" stroke="#000" stroke-width=".068" d="m277.607 145.699 2.569-7.099-3.921 6.288.135 1.555z"/><path fill="#009B3A" stroke="#000" stroke-width=".068" d="M282.543 141.035c-1.691 1.69-4.26 4.327-5.747 6.152-.271-2.569-1.014-6.626-1.42-9.06.676 2.029 1.352 4.868 2.163 6.491 1.555-.811 3.449-2.502 5.004-3.583Z"/><path fill="#009B3A" stroke="#000" stroke-width=".068" d="m277.674 146.037-.27-7.437-1.217 7.437.676 1.285z"/><path fill="#009B3A" stroke="#000" stroke-width=".068" d="M281.731 141.575c-1.622 1.758-4.124 4.395-5.544 6.288-.338-2.705-1.217-6.626-1.69-9.128.676 2.029 1.555 4.868 2.366 6.491 1.488-.811 3.381-2.569 4.868-3.651Z"/><path fill="#009B3A" stroke="#000" stroke-width=".068" d="m277.268 146.781.812-7.572-2.231 7.167.473 1.487z"/><path fill="#009B3A" d="M281.325 141.846c-1.352 1.961-3.718 4.733-5.003 6.761-.54-2.569-1.69-6.423-2.366-8.789.879 1.893 1.893 4.597 2.84 6.152 1.419-.946 3.177-2.84 4.597-4.056"/><path stroke="#000" stroke-width=".068" d="M281.325 141.846c-1.352 1.961-3.718 4.733-5.003 6.761-.54-2.569-1.69-6.423-2.366-8.789.879 1.893 1.893 4.597 2.84 6.152 1.419-.946 3.177-2.84 4.597-4.056"/><path fill="#009B3A" d="m277.269 147.525-.541-7.64-.947 7.572.676 1.352.744-1.352"/><path stroke="#000" stroke-width=".068" d="m277.269 147.525-.541-7.64-.947 7.572.676 1.352.744-1.352"/><path fill="#009B3A" stroke="#000" stroke-width=".068" d="M281.258 142.319c-1.352 2.028-3.584 4.935-4.733 7.031-.676-2.569-2.028-6.423-2.839-8.789.946 1.893 2.095 4.597 3.177 6.085 1.352-1.015 3.043-3.043 4.395-4.327Z"/><path fill="#009B3A" stroke="#000" stroke-width=".068" d="m277.674 148.201.812-7.64-2.164 7.166.406 1.555z"/><path fill="#009B3A" d="M280.92 143.063c-1.149 2.096-3.042 5.408-4.056 7.64-.879-2.434-2.57-6.085-3.584-8.384 1.15 1.758 2.502 4.259 3.719 5.679 1.284-1.217 2.704-3.516 3.921-5.003"/><path stroke="#000" stroke-width=".068" d="M280.92 143.063c-1.149 2.096-3.042 5.408-4.056 7.64-.879-2.434-2.57-6.085-3.584-8.384 1.15 1.758 2.502 4.259 3.719 5.679 1.284-1.217 2.704-3.516 3.921-5.003"/><path fill="#009B3A" d="m277.472 148.877-2.163-7.302.676 7.64 1.014 1.082.405-1.42"/><path stroke="#000" stroke-width=".068" d="m277.472 148.877-2.163-7.302.676 7.64 1.014 1.082.405-1.42"/><path fill="#009B3A" d="M280.919 143.874c-1.217 2.163-3.245 5.408-4.259 7.639-.879-2.433-2.569-6.084-3.651-8.315 1.149 1.757 2.569 4.259 3.786 5.611 1.352-1.217 2.839-3.448 4.056-4.935"/><path stroke="#000" stroke-width=".068" d="M280.919 143.874c-1.217 2.163-3.245 5.408-4.259 7.639-.879-2.433-2.569-6.084-3.651-8.315 1.149 1.757 2.569 4.259 3.786 5.611 1.352-1.217 2.839-3.448 4.056-4.935"/><path fill="#009B3A" stroke="#000" stroke-width=".068" d="m277.539 150.229-.811-7.64-.676 7.64.743 1.352z"/><path fill="#009B3A" stroke="#000" stroke-width=".068" d="M281.055 144.55c-1.285 2.095-3.381 5.341-4.395 7.504-.879-2.434-2.501-6.085-3.515-8.383 1.149 1.757 2.501 4.327 3.718 5.679 1.352-1.15 2.907-3.381 4.192-4.8Z"/><path fill="#009B3A" stroke="#000" stroke-width=".068" d="m277.472 150.838-1.42-7.437-.068 7.572.879 1.217z"/><path fill="#009B3A" stroke="#000" stroke-width=".068" d="M280.514 145.632c-1.353 2.028-3.584 5.071-4.733 7.234-.744-2.501-2.231-6.355-3.11-8.654 1.014 1.826 2.299 4.463 3.38 5.95 1.42-1.082 3.11-3.178 4.463-4.53Z"/><path fill="#009B3A" stroke="#000" stroke-width=".068" d="m276.796 151.649.676-7.64-2.096 7.234.473 1.487z"/><path fill="#009B3A" d="M280.581 145.767c-1.149 2.231-3.11 5.612-4.056 7.843-.947-2.366-2.705-5.95-3.854-8.113 1.217 1.622 2.704 4.056 3.921 5.409 1.352-1.285 2.705-3.584 3.989-5.071"/><path stroke="#000" stroke-width=".068" d="M280.581 145.767c-1.149 2.231-3.11 5.612-4.056 7.843-.947-2.366-2.705-5.95-3.854-8.113 1.217 1.622 2.704 4.056 3.921 5.409 1.352-1.285 2.705-3.584 3.989-5.071"/><path fill="#009B3A" d="m276.593 152.325-2.366-7.166.878 7.572 1.015 1.082.405-1.488"/><path stroke="#000" stroke-width=".068" d="m276.593 152.325-2.366-7.166.878 7.572 1.015 1.082.405-1.488"/><path fill="#009B3A" stroke="#000" stroke-width=".068" d="M280.243 146.375c-.811 2.434-2.163 6.085-2.704 8.587-1.352-2.164-3.719-5.274-5.139-7.235 1.42 1.42 3.313 3.516 4.733 4.53 1.082-1.555 2.164-4.056 3.11-5.882Z"/><path fill="#009B3A" stroke="#000" stroke-width=".068" d="m278.621 152.866-2.502-7.031 1.082 7.572 1.014.946z"/><path fill="#009B3A" stroke="#000" stroke-width=".068" d="M280.243 147.119c-.811 2.434-2.163 6.153-2.704 8.587-1.352-2.164-3.651-5.206-5.139-7.099 1.42 1.352 3.313 3.38 4.733 4.462 1.082-1.555 2.164-4.124 3.11-5.95Z"/><path fill="#009B3A" d="m278.621 154.083-3.245-6.558 1.893 7.302 1.149.811.271-1.555"/><path stroke="#000" stroke-width=".068" d="m278.621 154.083-3.245-6.558 1.893 7.302 1.149.811.271-1.555"/><path fill="#009B3A" stroke="#000" stroke-width=".068" d="M279.973 147.728c-.474 2.501-1.353 6.422-1.691 8.924-1.555-1.961-4.259-4.733-5.882-6.355 1.555 1.149 3.651 2.975 5.206 3.718.879-1.69 1.623-4.394 2.367-6.287Z"/><path fill="#009B3A" d="m278.892 155.097-1.758-7.369.27 7.639.947 1.15.541-1.352"/><path stroke="#000" stroke-width=".068" d="m278.892 155.097-1.758-7.369.27 7.639.947 1.15.541-1.352"/><path fill="#009B3A" d="M279.973 148.472c-.27 2.637-.811 6.626-.811 9.127-1.758-1.69-4.665-4.056-6.423-5.476 1.623.946 3.854 2.434 5.477 2.975.676-1.758 1.217-4.598 1.757-6.558"/><path stroke="#000" stroke-width=".068" d="M279.973 148.472c-.27 2.637-.811 6.626-.811 9.127-1.758-1.69-4.665-4.056-6.423-5.476 1.623.946 3.854 2.434 5.477 2.975.676-1.758 1.217-4.598 1.757-6.558"/><path fill="#009B3A" stroke="#000" stroke-width=".068" d="m278.959 155.638-4.665-5.274 3.516 6.423 1.352.406z"/><path fill="#009B3A" stroke="#000" stroke-width=".068" d="M280.108 149.418c-.27 2.569-.811 6.558-.878 9.06-1.758-1.691-4.666-4.057-6.423-5.544 1.69.946 3.921 2.501 5.476 3.042.744-1.758 1.217-4.597 1.825-6.558Z"/><path fill="#009B3A" d="m279.5 156.855-3.583-6.355 2.231 7.234 1.149.743.203-1.555"/><path stroke="#000" stroke-width=".068" d="m279.5 156.855-3.583-6.355 2.231 7.234 1.149.743.203-1.555"/><path fill="#009B3A" d="M280.311 150.5c-.203 2.569-.541 6.558-.541 9.127a79 79 0 0 0-6.625-5.138c1.757.811 4.056 2.231 5.611 2.704.676-1.825 1.082-4.732 1.555-6.761"/><path stroke="#000" stroke-width=".068" d="M280.311 150.5c-.203 2.569-.541 6.558-.541 9.127a79 79 0 0 0-6.625-5.138c1.757.811 4.056 2.231 5.611 2.704.676-1.825 1.082-4.732 1.555-6.761"/><path fill="#009B3A" stroke="#000" stroke-width=".068" d="m279.973 158.072-4.462-5.612 3.245 6.626 1.217.541z"/><path fill="#009B3A" d="M280.379 151.717c-.202 2.569-.54 6.558-.473 9.127-1.825-1.623-4.8-3.786-6.693-5.138 1.758.879 4.056 2.231 5.679 2.704.676-1.825 1.014-4.733 1.487-6.761"/><path stroke="#000" stroke-width=".068" d="M280.379 151.717c-.202 2.569-.54 6.558-.473 9.127-1.825-1.623-4.8-3.786-6.693-5.138 1.758.879 4.056 2.231 5.679 2.704.676-1.825 1.014-4.733 1.487-6.761"/><path fill="#009B3A" stroke="#000" stroke-width=".068" d="m280.311 159.019-3.042-6.761 1.69 7.437 1.082.879z"/><path fill="#009B3A" stroke="#000" stroke-width=".068" d="M280.447 152.46c.135 2.637.135 6.626.406 9.195a91 91 0 0 0-7.032-4.192c1.758.609 4.124 1.623 5.815 1.893.473-1.96.541-4.8.811-6.896Z"/><path fill="#009B3A" stroke="#000" stroke-width=".068" d="m280.853 158.748-5.612-3.854 4.733 5.274 1.352.068z"/><path fill="#009B3A" stroke="#000" stroke-width=".068" d="M280.649 152.73c.203 2.637.474 6.626.879 9.128-2.028-1.285-5.273-2.908-7.301-3.922 1.825.541 4.259 1.488 5.949 1.691.338-1.961.271-4.801.473-6.897Z"/><path fill="#009B3A" d="m281.529 160.168-4.733-5.409 3.583 6.491 1.285.473-.203-1.555"/><path stroke="#000" stroke-width=".068" d="m281.529 160.168-4.733-5.409 3.583 6.491 1.285.473-.203-1.555"/><path fill="#009B3A" stroke="#000" stroke-width=".068" d="M281.055 153.745c.338 2.57.676 6.558 1.284 9.06-2.028-1.149-5.408-2.569-7.437-3.448 1.826.406 4.327 1.217 5.95 1.352.27-2.028.135-4.868.203-6.964Z"/><path fill="#009B3A" stroke="#000" stroke-width=".068" d="m282.407 161.114-5.611-3.989 4.733 5.409 1.352.067z"/><path fill="#009B3A" stroke="#000" stroke-width=".068" d="M281.258 154.827c.473 2.569 1.149 6.558 1.825 8.992-2.096-1.014-5.544-2.096-7.64-2.772 1.893.203 4.395.811 6.085.676.135-1.96-.203-4.732-.27-6.896Z"/><path fill="#009B3A" stroke="#000" stroke-width=".068" d="m283.083 161.926-4.732-5.544 3.515 6.558 1.352.541z"/><path fill="#009B3A" d="M281.529 155.503c.744 2.501 1.758 6.423 2.704 8.789-2.231-.676-5.679-1.352-7.842-1.758 1.893 0 4.394.203 6.084-.067 0-2.029-.676-4.801-.946-6.896"/><path stroke="#000" stroke-width=".068" d="M281.529 155.503c.744 2.501 1.758 6.423 2.704 8.789-2.231-.676-5.679-1.352-7.842-1.758 1.893 0 4.394.203 6.084-.067 0-2.029-.676-4.801-.946-6.896"/><path fill="#009B3A" d="m283.354 161.926-6.558-1.352 6.152 3.042 1.285-.473-.947-1.217"/><path stroke="#000" stroke-width=".068" d="m283.354 161.926-6.558-1.352 6.152 3.042 1.285-.473-.947-1.217"/><path fill="#009B3A" stroke="#000" stroke-width=".068" d="M282.002 156.314c.676 2.502 1.69 6.355 2.569 8.722-2.164-.677-5.612-1.353-7.775-1.758 1.893 0 4.395.203 6.085 0 0-2.029-.676-4.868-.879-6.964Z"/><path fill="#009B3A" stroke="#000" stroke-width=".068" d="m284.369 162.602-6.221-3.043 5.544 4.53 1.353-.135z"/><path fill="#009B3A" stroke="#000" stroke-width=".068" d="M281.663 156.72c1.217 2.299 3.043 5.882 4.395 7.91-2.299-.135-5.814 0-7.978 0 1.826-.338 4.327-.676 5.882-1.352-.473-1.961-1.623-4.53-2.299-6.558Z"/><path fill="#009B3A" d="m285.382 163.278-6.49-1.758 6.084 3.38 1.217-.338-.879-1.352"/><path stroke="#000" stroke-width=".068" d="m285.382 163.278-6.49-1.758 6.084 3.38 1.217-.338-.879-1.352"/><path fill="#009B3A" d="M282.272 157.734c1.285 2.231 3.11 5.814 4.53 7.842-2.299-.135-5.814 0-7.978.136 1.758-.474 4.327-.812 5.815-1.488-.406-1.961-1.623-4.53-2.299-6.49"/><path stroke="#000" stroke-width=".068" d="M282.272 157.734c1.285 2.231 3.11 5.814 4.53 7.842-2.299-.135-5.814 0-7.978.136 1.758-.474 4.327-.812 5.815-1.488-.406-1.961-1.623-4.53-2.299-6.49"/><path fill="#009B3A" stroke="#000" stroke-width=".068" d="m286.126 163.819-6.018-3.583 5.274 5.003h1.352z"/><path fill="#009B3A" stroke="#000" stroke-width=".068" d="M282.813 158.275c1.42 2.096 3.583 5.409 5.138 7.369a61 61 0 0 0-7.843 1.15c1.758-.677 4.192-1.353 5.68-2.232-.677-1.893-2.096-4.394-2.975-6.287Z"/><path fill="#009B3A" stroke="#000" stroke-width=".068" d="m286.599 164.359-6.491-.203 6.423 1.961 1.15-.744zm3.786-31.506 4.665-.743-4.665.067-.811.406z"/><path fill="#009B3A" stroke="#000" stroke-width=".068" d="M292.955 133.868c-1.353-.406-3.381-1.082-4.801-1.352l5.003-2.367c-1.014.677-2.569 1.488-3.38 2.164.811.541 2.231 1.082 3.178 1.555Z"/><path fill="#009B3A" d="m290.115 132.989 4.597-1.217-4.732.608-.676.473.879.136"/><path stroke="#000" stroke-width=".068" d="m290.115 132.989 4.597-1.217-4.732.608-.676.473.879.136"/><path fill="#009B3A" stroke="#000" stroke-width=".068" d="M293.157 134.206c-1.622-.203-4.056-.473-5.611-.473 1.217-1.082 2.839-2.772 3.854-3.854-.676 1.014-1.758 2.299-2.231 3.245 1.081.473 2.771.744 3.988 1.082Z"/><path fill="#009B3A" d="m288.493 133.327 4.732-.541-4.597-.135-.879.406.676.27"/><path stroke="#000" stroke-width=".068" d="m288.493 133.327 4.732-.541-4.597-.135-.879.406.676.27"/><path fill="#009B3A" stroke="#000" stroke-width=".068" d="m291.94 134.341-5.071-.879 4.665-2.569c-.946.676-2.299 1.623-2.975 2.299.879.406 2.367.811 3.381 1.149Z"/><path fill="#009B3A" d="m288.086 133.327 4.124-1.826-4.529 1.217-.541.541h.946"/><path stroke="#000" stroke-width=".068" d="m288.086 133.327 4.124-1.826-4.529 1.217-.541.541h.946"/><path fill="#009B3A" stroke="#000" stroke-width=".068" d="M291.805 134.882c-1.149-.473-3.042-1.352-4.192-1.69l2.975-3.245c-.541.879-1.352 2.028-1.758 2.975.812.676 2.029 1.352 2.975 1.96Z"/><path fill="#009B3A" stroke="#000" stroke-width=".068" d="m288.289 133.597 3.245-1.352-3.515.406-.406.676zm-2.704 30.154h-6.626l6.761 1.69 1.082-.676z"/><path fill="#009B3A" stroke="#000" stroke-width=".068" d="m286.802 164.157-6.761-1.555 6.491 3.178 1.352-.406z"/><path fill="#009B3A" stroke="#000" stroke-width=".068" d="m287.951 164.63-6.761-.338 6.761 2.028 1.15-.676z"/><path fill="#009B3A" stroke="#000" stroke-width=".068" d="M283.692 159.897c1.69 1.893 4.327 5.003 6.152 6.693-2.231.338-5.611 1.217-7.707 1.826 1.622-.811 4.056-1.758 5.408-2.704-.946-1.758-2.704-4.057-3.853-5.815Z"/><path fill="#009B3A" d="m288.829 164.969-6.761-2.231 6.356 3.786 1.352-.271-.947-1.352"/><path stroke="#000" stroke-width=".068" d="m288.829 164.969-6.761-2.231 6.356 3.786 1.352-.271-.947-1.352"/><path fill="#009B3A" stroke="#000" stroke-width=".068" d="M284.3 160.303c1.893 1.758 4.733 4.53 6.761 6.085-2.163.608-5.409 1.893-7.437 2.704 1.555-.946 3.786-2.163 5.003-3.38-1.082-1.623-3.042-3.719-4.327-5.409Z"/><path fill="#009B3A" d="m289.439 165.374-6.422 1.284 6.761.406.946-.879-1.352-.811"/><path stroke="#000" stroke-width=".068" d="m289.439 165.374-6.422 1.284 6.761.406.946-.879-1.352-.811"/><path fill="#009B3A" d="m288.086 164.968-6.626.541 6.828 1.149 1.082-.811-1.352-.879"/><path stroke="#000" stroke-width=".068" d="m288.086 164.968-6.626.541 6.828 1.149 1.082-.811-1.352-.879"/><path fill="#009B3A" stroke="#000" stroke-width=".068" d="m289.302 165.374-6.896-1.149 6.761 2.704 1.217-.473z"/><path fill="#009B3A" stroke="#000" stroke-width=".068" d="m290.453 165.712-6.761.135 6.897 1.555 1.081-.744z"/><path fill="#009B3A" stroke="#000" stroke-width=".068" d="M285.855 161.317c1.893 1.758 4.732 4.597 6.693 6.22-2.231.473-5.612 1.623-7.64 2.299 1.623-.879 3.922-1.961 5.206-3.043-1.082-1.69-2.975-3.853-4.259-5.544z"/><path fill="#009B3A" stroke="#000" stroke-width=".068" d="m291.399 165.982-6.896-1.757 6.626 3.38 1.284-.406z"/><path fill="#009B3A" stroke="#000" stroke-width=".068" d="M286.464 161.655c2.028 1.623 5.138 4.192 7.234 5.544-2.163.744-5.273 2.367-7.167 3.313 1.488-1.149 3.584-2.501 4.733-3.718-1.217-1.623-3.38-3.584-4.733-5.139z"/><path fill="#009B3A" stroke="#000" stroke-width=".068" d="m292.008 166.32-6.287 1.758h6.761l.879-1.014-1.353-.676z"/><path fill="#FEDF00" stroke="#000" stroke-width=".27" d="m300.662 156.922-5.138-3.583-5.138 3.583 1.96-5.679-4.53-3.515h5.815l1.893-5.68 1.893 5.68h5.814l-4.529 3.515z"/></g><defs><clipPath id="a"><path fill="#fff" d="M0 0h600v300H0z"/></clipPath></defs></svg>