<svg xmlns="http://www.w3.org/2000/svg" width="600" height="300" fill="none"><g clip-path="url(#a)"><path fill="#0038A8" d="M0 0h600v150H0z"/><path fill="#CE1126" d="M0 150h600v150H0z"/><path fill="#fff" d="M300 150 0 300V0"/><path fill="#FCD116" d="m24.004 25 9.012 7.94 10.462-5.797-4.664 11.029 8.823 8.193-11.974-1.009-5.105 10.84-2.71-11.66L16 43.025l10.273-6.302zm204.065 108.587.252 11.974 11.344 3.971-11.344 3.907-.252 11.974-7.247-9.516-11.47 3.466 6.806-9.831-6.806-9.832 11.47 3.466zM30.621 242.867l5.042 10.84 11.974-1.008-8.76 8.192 4.664 11.029-10.462-5.735L24.004 274l2.269-11.785L16 256.039l11.911-1.513zm71.971-156.925-3.907 3.908 1.954 29.62-1.891.189-3.592-27.036-3.215 3.15 4.79 24.201a29.9 29.9 0 0 0-10.84 4.475L72.216 104.03h-4.538l16.638 21.616q-.777.606-1.513 1.261l-19.6-22.373h-5.545v5.546l22.31 19.537-1.261 1.575-21.617-16.575v4.475l20.483 13.676c-2.143 3.277-3.719 6.932-4.475 10.839l-24.137-4.789-3.215 3.151 27.037 3.592c-.126.63-.19 1.324-.19 1.954l-29.62-1.891-3.907 3.908 3.907 3.907 29.62-1.954.19 1.954-27.037 3.592 3.151 3.151 24.2-4.789a29.9 29.9 0 0 0 4.476 10.839L57.09 179.908v4.538l21.617-16.575a30 30 0 0 0 1.26 1.512l-22.31 19.537v5.546h5.61l19.536-22.31 1.576 1.261-16.7 21.616h4.537l13.675-20.482c3.215 2.143 6.933 3.719 10.84 4.475l-4.79 24.2 3.152 3.151 3.592-27.036c.63.126 1.26.189 1.954.189l-1.891 29.62 3.844 3.908 3.971-3.908-1.954-29.62 1.891-.189 3.592 27.099 3.214-3.214-4.79-24.2a29.9 29.9 0 0 0 10.84-4.475l13.676 20.482h4.537l-16.637-21.616a30 30 0 0 0 1.512-1.261l19.6 22.31h5.546v-5.546l-22.31-19.537 1.261-1.512 21.616 16.575v-4.538l-20.482-13.676c2.143-3.214 3.718-6.932 4.475-10.839l24.137 4.789 3.214-3.151-27.036-3.592c.126-.63.189-1.261.189-1.954l29.62 1.891 3.907-3.844-3.907-3.908-29.62 1.891-.189-1.891 27.036-3.592-3.151-3.151-24.2 4.726a29.95 29.95 0 0 0-4.475-10.839l20.482-13.676v-4.475l-21.616 16.575a30 30 0 0 0-1.261-1.512l22.31-19.537v-5.609h-5.546l-19.537 22.373a30 30 0 0 0-1.575-1.261l16.637-21.616h-4.537l-13.676 20.419c-3.214-2.143-6.932-3.719-10.84-4.475l4.79-24.137-3.151-3.151-3.592 26.973-1.954-.189 1.891-29.62z"/></g><defs><clipPath id="a"><path fill="#fff" d="M0 0h600v300H0z"/></clipPath></defs></svg>