<svg xmlns="http://www.w3.org/2000/svg" width="600" height="300" fill="none"><g clip-path="url(#a)"><path fill="#fff" d="M0 0h600v300H0z"/><path fill="#012169" d="M0 0h600v300H0z"/><path fill="#F7E017" stroke="#000" stroke-width=".313" d="M388.196 157.059a43.9 43.9 0 0 0-14.898 21.6c-4.469 21.211-10.428 25.951-19.603 21.367 0 11.421 10.116 12.276 14.507 5.671 0 10.645 3.92 19.891 12.702 27.816 3.764 3.341 4.47 1.088 2.666-2.642-1.725-3.651-1.725-15.539-5.253-22.376 5.645 3.962 13.957 1.709 13.329-9.324-7.292 4.196-14.506 4.04-15.29-5.983-.862-11.654 3.686-28.748 11.84-36.129Zm-8.625-84.379c.549-4.273-.392-8.547-3.528-11.266-5.96-5.206-11.84-3.497-16.231.777-6.509-3.574-10.037 8.857-17.408 6.76 1.176 4.04 3.137 5.75 6.9 4.35-3.92 3.497 0 7.77-4.626 11.966 8.312 2.642 12.703-1.942 12.389-9.868a7.55 7.55 0 0 0 2.543 1.531 7.6 7.6 0 0 0 5.827-.295 7.5 7.5 0 0 0 2.372-1.78c-4.391-1.398-4.391-5.205-2.665-8.702 2.665-5.283 15.133-5.05 14.427 6.527Z"/><path fill="#337321" stroke="#000" stroke-width=".313" d="M398.782 133.594c-9.409 4.973-26.503 2.875-28.149-9.324-1.569-12.043 10.272-17.481 13.486-19.035 4.94-2.487 8.861 1.942 7.214 6.992 5.489-1.864 6.744-8.235 4.078-11.887 7.292.544 13.957-4.895 16.78-12.587-2.51 2.33-9.41.777-15.134.388 1.725-1.942 1.725-5.672 1.176-7.614-5.959 6.138-14.662 3.341-26.111 20.978a787 787 0 0 0 7.528-28.825c.627-11.655-11.762-11.81-14.428-6.527 2.902 3.263 1.333 6.993.314 12.82-1.255 6.76-3.921 22.532-6.195 27.816-.705-8.236-6.194-8.78-7.213-12.82-1.569 1.087-2.51 3.884-2.117 5.827-1.961-2.098-8.704.544-11.213-2.642-2.588 5.206 1.568 10.489 6.037 12.82-2.587.156-3.136 3.186-6.037 3.186 3.842 4.429 7.762 6.216 12.232 6.526 4.548.311 7.841 2.02 10.585 7.459 4.47 8.78 21.328 14.452 37.167 6.449Z"/><path fill="#F7E017" stroke="#000" stroke-width=".313" d="M422.148 122.949c-5.332 14.53-19.838 24.863-26.346 26.417-11.134 2.72-33.874 13.675-39.99 19.269a7.1 7.1 0 0 1-2.509-1.01c-2.979-2.098-5.489-8.935-.157-14.762 16.624-15.384 34.501-8.702 45.636-19.269-9.41 4.895-26.503 2.797-28.072-9.324a43.5 43.5 0 0 0 23.136-.397 43.2 43.2 0 0 0 19.599-12.19 76 76 0 0 1 8.625 11.266z"/><path fill="#337321" stroke="#000" stroke-width=".313" d="M388.197 157.058c-8.39 6.993-12.703 24.397-11.84 36.13.235 3.263 1.176 5.438 2.587 6.837.627-6.682 5.254-23.853 17.251-31.545 10.036-6.449 25.797-20.978 31.599-37.683a13.4 13.4 0 0 0-6.194-7.148c-5.803 15.695-21.25 23.231-33.403 33.409Z"/><path fill="#316D3A" stroke="#000" stroke-width=".313" d="M416.738 116.19a39.4 39.4 0 0 1-16.388 13.053 8.5 8.5 0 0 0 1.96-5.283 60.83 60.83 0 0 1-31.678.388 43.5 43.5 0 0 0 23.178-.375 43.17 43.17 0 0 0 19.634-12.212 16.3 16.3 0 0 1 3.294 4.429Z"/><path fill="#337321" stroke="#000" stroke-width=".313" d="M353.148 152.94c-13.487 12.432-4.548 23.465.784 25.873-1.49 8.78 6.822 7.77 6.665 15.074 3.371-1.865 4.234-6.993 3.685-11.033 4.313 4.584 15.055-.544 17.329 7.925 1.49-9.324-5.803-18.648-14.82-17.715 3.764-3.341 1.568-8.78-1.96-10.179-.706 6.838-8.468 6.838-11.448 4.662-3.058-2.02-5.489-8.857-.235-14.684z"/><path fill="#F7E017" stroke="#000" stroke-width=".313" d="M382.395 232.658c-1.412.777-1.333 2.719-.392 3.885 1.803 2.486-1.333 8.08 4.704 9.246 1.725.388 3.137-.777 3.764-2.72 1.882-5.516-4.077-6.138-4.626-8.779-.471-2.642-2.196-2.331-3.45-1.632Z"/><path fill="#F7E017" stroke="#000" stroke-width=".313" d="M387.491 242.991c-1.96.933-3.763 2.176-2.901 8.547.314 2.564.157 8.858-2.195 8.935 1.411.777 4.469 1.554 5.724-.155 1.176 2.02 3.92 1.398 4.939-1.01 1.412 1.088 3.372-.777 3.372-2.487 1.176.777 3.685-.31 3.058-4.117 1.568.543 3.45-.544 4.156-1.477-2.196-.466-7.841-3.418-9.096-5.749-1.333-2.409-4.704-3.574-7.057-2.487Z"/><path stroke="#000" stroke-width=".313" d="M356.754 65.687c.941-1.243 1.96-2.486 3.136-3.574m30.581 26.805c1.568-.854 3.92-1.01 6.586-.777m-8.939 172.177c-.627-.854-.862-4.506-.47-6.759m5.41 5.749c-1.019-.777-2.823-3.341-3.136-5.516m6.508 3.03a14.77 14.77 0 0 1-4.94-6.915m7.998 2.797c-1.49-.311-5.959-3.186-7.841-6.216"/><path fill="#F7E017" stroke="#000" stroke-width=".313" d="M481.035 153.096c21.72 18.025 23.131 32.399 19.838 40.791-1.804-7.848-10.821-20.124-20.23-23.309z"/><path fill="#337321" stroke="#000" stroke-width=".313" d="M442.144 142.84h40.303v47.395c0 40.325-22.582 64.1-45.635 76.765-14.08-7.292-25.813-18.351-33.867-31.921a83.56 83.56 0 0 1-11.69-44.844V142.84h28.228c0 2.486.314 6.216 3.137 9.868 6.743-.622 14.271-5.595 19.524-9.79z"/><path fill="#006EC7" stroke="#000" stroke-width=".313" d="M482.446 142.84v47.395c0 12.121-2.038 22.843-5.488 32.089l-40.225-72.802-39.99 72.802c-3.529-9.323-5.567-19.968-5.567-32.089V142.84z"/><path fill="#F7E017" d="M478.133 218.905a90 90 0 0 1-2.979 7.77l-38.422-70.627-38.186 70.705c-1.019-2.176-2.274-5.672-2.98-7.77l41.323-75.832z"/><path fill="#F7E017" stroke="#000" stroke-width=".313" d="m455.003 244.856 3.921 1.788a27.74 27.74 0 0 0 1.725-15.385c-2.274 5.75-10.037 5.595-12.154 9.091 1.255.622 2.509 1.554 3.529 2.253-2.666 2.642-8.861 6.993-12.389 8.081v-37.606c0-2.641-.941-4.817-.941-6.992v-7.77c0-1.787-.314-4.351-1.882-4.351s-1.96 2.564-1.96 4.351v7.77c0 2.175-.863 4.661-.863 6.992v37.606c-1.96-5.594-9.566-3.73-13.094-9.324a11.1 11.1 0 0 1 4.234-.155c-2.666-8.935-9.958-9.635-11.291-12.276 0 3.729-1.569 12.276.862 16.005.549-.699 1.412-1.398 2.352-1.942 3.058 6.449 16.545 6.449 19.76 17.171 2.588-3.885 11.762-8.547 18.191-15.307Z"/><path fill="#F7E017" stroke="#000" stroke-width=".313" d="M436.811 213.544c2.98 0 12.546-.932 15.996-.932.941 0 1.647-1.399 1.647-3.03 0-1.554-.706-2.953-1.568-2.953-3.529 0-13.017-.932-16.075-.932-2.979 0-12.545.932-15.995.932-.941 0-1.647 1.321-1.647 2.953s.784 3.03 1.568 3.03c3.529 0 13.095.932 16.074.932Zm-1.96-15.384c-.627-.544-1.411-.777-2.352-.777-2.039 0-3.685 1.399-3.685 3.186 0 1.864 1.646 3.341 3.685 3.341 1.96 0 3.607-1.554 3.607-3.341 0-1.399 2.038-1.399 2.038 0 0 2.874-2.509 5.205-5.645 5.205-3.137 0-5.724-2.331-5.724-5.205 0-2.797 2.587-5.128 5.724-5.128.897.021 1.78.233 2.587.621 0 .466-.235 1.321-.235 2.098Z"/><path fill="#F7E017" d="M420.816 212.612c.863 0 1.569-1.399 1.569-3.03 0-1.554-.706-2.953-1.569-2.953"/><path stroke="#000" stroke-width=".313" d="M420.816 212.612c.863 0 1.569-1.399 1.569-3.03 0-1.554-.706-2.953-1.569-2.953"/><path fill="#F7E017" d="M422.149 212.612c.863 0 1.568-1.398 1.568-3.03 0-1.554-.705-2.952-1.568-2.952m8.704 6.526c1.098 0 1.96-1.554 1.96-3.574 0-1.942-.784-3.574-1.96-3.574m2.038 7.304c1.177 0 2.039-1.632 2.039-3.73s-.862-3.729-2.039-3.729m6.822 7.536c1.176 0 2.039-1.709 2.039-3.807s-.941-3.807-2.039-3.807m2.117 7.459c1.098 0 2.039-1.554 2.039-3.652 0-2.02-.941-3.651-2.039-3.651m9.488 6.681c.941 0 1.647-1.32 1.647-3.03s-.706-3.108-1.568-3.108m-34.266 36.518c1.019-.699 2.352-1.243 3.764-1.554zm35.991.311-1.098-.777zm1.881 1.554c2.51-2.642 4.548-5.672 5.724-9.091z"/><path stroke="#000" stroke-width=".313" d="M422.149 212.612c.863 0 1.568-1.398 1.568-3.03 0-1.554-.705-2.952-1.568-2.952m8.704 6.526c1.098 0 1.96-1.554 1.96-3.574 0-1.942-.784-3.574-1.96-3.574m2.038 7.304c1.177 0 2.039-1.632 2.039-3.73s-.862-3.729-2.039-3.729m6.822 7.536c1.176 0 2.039-1.709 2.039-3.807s-.941-3.807-2.039-3.807m2.117 7.459c1.098 0 2.039-1.554 2.039-3.652 0-2.02-.941-3.651-2.039-3.651m9.488 6.681c.941 0 1.647-1.32 1.647-3.03s-.706-3.108-1.568-3.108m-34.266 36.518c1.019-.699 2.352-1.243 3.764-1.554m32.227 1.865-1.098-.777m2.979 2.331c2.51-2.642 4.548-5.672 5.724-9.091"/><path fill="#fff" d="M428.734 176.405c0-.933.706-1.244 1.569-1.865.941-.777 1.333-1.088 2.274-1.088h11.604c.784 0 1.02.233 1.02 1.01v15.54c0 .777-.157 1.087-1.02 1.087h-15.447v-14.917"/><path stroke="#000" stroke-width=".313" d="M428.734 176.405c0-.933.706-1.244 1.569-1.865.941-.777 1.333-1.088 2.274-1.088h11.604c.784 0 1.02.233 1.02 1.01v15.54c0 .777-.157 1.087-1.02 1.087h-15.447v-14.917"/><path fill="#E5E5E5" stroke="#000" stroke-width=".313" d="M441.282 192.411c1.568 0 1.254 0 2.352-1.088s1.019-1.01 1.019-2.02v-14.296c0-.777-.235-.933-1.019-.933h-10.742c-.784 0-1.176.311-2.117 1.011-.784.621-1.412.932-1.412 1.709v15.617z"/><path fill="#fff" stroke="#000" stroke-width=".313" d="M442.456 192.1c0 .777-.235 1.01-1.097 1.01h-11.605c-.863 0-1.02-.233-1.02-1.01v-15.617c0-.777.157-1.01 1.02-1.01h11.605c.862 0 1.097.233 1.097 1.01z"/><path fill="#96877D" stroke="#000" stroke-width=".313" d="M464.961 133.749c2.196 2.487 2.98 5.828 1.725 9.169h-3.293c1.411-4.274.549-8.236-5.489-8.78-8.939-.777-19.446 16.472-35.206 18.57-4.548-5.439-4.313-15.773 1.568-20.668a63.6 63.6 0 0 0-13.879-22.221 43.5 43.5 0 0 0-8.39-.544c2.352-4.973 8.861-10.1 14.192-12.199a64 64 0 0 1 2.666-3.496c.549-6.76 32.933-3.652 39.755.544 0 7.614 3.058 32.788 6.43 39.625z"/><path fill="#000" d="M425.756 138.334c-.784-11.655-5.567-21.289-12.311-27.816 2.391.564 4.871.648 7.295.248a18.5 18.5 0 0 0 6.819-2.579c5.881-3.884 21.171-10.566 26.66-7.692.471 1.01.784 3.108.392 4.585-1.333-3.497-15.996 1.864-20.151 3.574-3.921 1.787-5.725 4.273-4.313 9.789-2.352-1.942-1.568-3.729-3.921-5.128.941 2.254 1.725 6.372 2.039 9.713-.941-2.331-2.509-7.459-5.959-10.49a57.2 57.2 0 0 1 4.391 27.039c2.352 0 7.684-2.331 9.723-3.885-1.804 2.564-7.214 4.429-10.586 5.128a17 17 0 0 0-2.587 9.168c-.236-3.263.784-11.11 2.43-11.654zm39.205-4.584c-2.979-3.263-8.39-4.973-15.368-3.108a22 22 0 0 1 5.332-1.787c-.235-1.787-1.882-9.712-2.196-11.655l1.961-.777c1.019 4.74 2.195 10.179 2.979 12.432.627.078 2.039.388 3.293 1.01-.548-1.865-3.528-15.073-3.45-16.472l2.666-1.398a106.4 106.4 0 0 0 4.705 21.755z"/><path fill="#96877D" stroke="#000" stroke-width=".313" d="M463.393 142.84c1.333-4.118.47-8.158-5.489-8.702-4.705-.389-9.723 4.118-15.682 8.78zm-39.127-37.683a35.6 35.6 0 0 1-11.605-1.166c.157-.777.47-1.554.862-2.486a37 37 0 0 0-6.665 5.284c4.235.932 13.017 1.32 17.408-1.632Z"/><path stroke="#000" stroke-width=".313" d="M424.187 131.963c.941 2.874 1.568 5.594 1.646 8.002m-9.723-42.888c-1.568 2.33-2.979 4.817-3.45 6.992a37.6 37.6 0 0 0 11.605 1.088"/><path stroke="#000" stroke-width=".313" d="M410.387 109.819c1.097.233 2.195.388 3.136.699 3.137.854 9.645.854 14.114-2.331 4.391-3.108 16.467-12.975 30.032-13.986"/><path stroke="#000" stroke-width=".313" d="M406.858 106.788c4.235.932 13.017 1.321 17.408-1.632a60 60 0 0 1 30.11-11.499"/><path fill="#337321" stroke="#000" stroke-width=".313" d="M481.036 153.096c14.898 10.101 25.876 19.968 29.012 35.741s9.174 19.968 16.623 15.772c-1.725 9.091-10.977 10.101-18.74 3.108.784 10.567-3.529 23.154-14.506 27.738-.706-6.294 3.528-11.344 2.352-16.472-.549-2.331-.784-7.537 2.274-10.023-5.881 1.943-15.055-1.709-15.917-10.334 6.743 3.108 15.368 3.652 18.74-4.739 3.293-8.391 1.882-22.765-19.838-40.791Zm18.74-82.048c4.626-11.888 16.623-10.645 20.701-5.594 11.84-6.682 13.486 8.39 23.523 5.438-.157 2.797-3.529 5.44-7.214 5.206 3.921 3.496-1.568 8.78 6.665 11.965-7.057 3.497-16.937-.155-19.603-9.867-2.352 4.584-10.585 4.584-13.957.932 7.214-1.942 6.743-8.546 2.666-11.266-4.156-2.641-11.369-1.554-12.781 3.186Zm-35.834 26.261a63.8 63.8 0 0 0 17.486 27.039c8.468 7.77 21.249 5.75 28.463-1.554.157 14.607-15.212 15.773-23.68 11.188-3.764-2.02-6.822-1.01-3.215 2.331 5.489 4.818 17.486 8.547 31.678 11.499 24.7 5.284 15.918 24.708 8.625 24.553 2.118 0 3.843-2.253.785-4.895-21.485-19.191-65.082-11.655-64.454-54.388-4.548 11.266-23.524 6.837-14.663-6.449 2.823 2.253 7.841 2.409 9.174-1.088 1.098-2.719.392-7.459-4.548-11.577.784 0 2.588 0 2.352-2.02.236 1.243 1.333 2.953 4.156 2.331.784 1.321 1.568 2.098 2.745 1.632.235 0 .862-.389.627-1.632.157 2.331 2.979 3.186 4.469 3.03Z"/><path fill="#F7E017" stroke="#000" stroke-width=".313" d="M486.132 133.982c10.272 6.604 21.955 6.604 32.541-5.594 3.371-3.885 8.625-7.226 12.389-7.537 3.763-.388 3.528-3.884 6.351-4.661-1.725-.467-2.431-2.564-5.097-2.331 6.665-2.254 4.705-7.537 7.92-10.101-2.666 1.01-6.744-2.875-10.586 2.098 1.02-2.331-.392-4.973-1.333-6.06.392 2.641-5.175 3.107-6.273 9.789-.548 3.73-2.666 3.574-2.979-2.253-.235-4.196-2.352-15.928-4.705-21.91-2.509-5.905-3.136-14.141.235-15.307a6 6 0 0 0-2.038-2.175c-4.156-2.642-11.37-1.554-12.781 3.108-4.548 11.965 8.311 18.802 7.292 31.778-1.96-9.635-17.721-12.121-17.564-21.6-5.097 2.33-4.391 6.526-2.431 9.867-3.136-4.895-10.429 3.108-16.623-3.496-.784 8.78 7.057 12.043 13.408 12.432-3.136 5.594 1.098 10.333 5.332 11.887.157-9.79 20.466-5.827 20.701 11.033.157 14.374-15.447 15.54-23.759 11.033Zm28.542 13.83c24.699 5.284 15.917 24.708 8.625 24.553-4.626-.156-9.017-3.963-9.252-7.304-5.332 2.797-3.921 8.314.156 10.489-11.134-1.243-15.839 5.983-16.074 13.986 2.039-3.73 8.155-3.885 10.507-3.108s8.233 1.165 10.586-1.554c-1.961 1.709 1.254 5.594-1.569 8.547 9.41-.311 13.409-8.936 11.762-12.665 12.075-10.878 9.802-28.593-14.741-32.944Zm-18.897 83.292c1.568.932 1.411 3.108.313 4.428-2.195 2.642 1.098 8.936-5.645 10.101-1.96.233-3.45-1.01-4.078-3.263-1.881-6.216 4.783-6.682 5.489-9.557.784-2.953 2.588-2.564 3.921-1.709Z"/><path fill="#F7E017" stroke="#000" stroke-width=".313" d="M489.739 242.37c2.117 1.088 3.999 2.642 2.901 9.634-.549 2.875-.627 9.946 1.961 10.101-1.569.777-5.019 1.476-6.273-.388-1.49 2.175-4.47 1.398-5.489-1.399-1.725 1.243-3.764-1.01-3.685-2.875-1.412.777-4.156-.544-3.294-4.662-1.725.467-3.842-.777-4.548-1.864 2.431-.466 8.783-3.497 10.429-6.061 1.568-2.641 5.489-3.729 7.998-2.486Z"/><path stroke="#000" stroke-width=".313" d="M488.249 261.716c.784-.932 1.176-5.05.784-7.536m-6.272 6.138c1.176-.777 3.293-3.496 3.763-5.983m-7.449 3.108a17.1 17.1 0 0 0 5.803-7.536m-9.018 2.874c1.569-.31 6.744-3.341 8.939-6.682"/><path fill="#F7E017" stroke="#000" stroke-width=".313" d="M459.628 113.16c-.313 17.87 7.214 27.039 17.721 32.944-3.92-2.331-2.195-10.179-7.449-12.743 1.255-.077 3.137 1.632 6.273.933-1.568-3.264-3.92-8.392-9.723-9.091 1.568-.155 4.705.389 6.9-.388-2.979-4.662-10.977-2.409-13.722-11.655Zm-1.881-17.093c-.628-.233-1.177-.855-1.647-1.71-2.823.622-3.921-1.165-4.156-2.33.235 2.02-1.568 1.942-2.352 2.02 4.94 4.04 5.645 8.779 4.548 11.499-1.412 3.496-6.273 3.341-9.174 1.087-.393 7.459 9.409 9.868 12.937.544 0 1.554 2.039 1.399 2.51 3.497 2.509-4.041.627-9.868-2.666-14.607Z"/><path fill="#337321" stroke="#000" stroke-width=".313" d="M442.221 60.481a20.89 20.89 0 0 1-6.273-14.685c.157-3.885 1.725-8.002 7.449-6.215-1.803 0-.549 3.418-2.352 3.807 1.411.544 3.45-.7 3.764-1.554.313 1.243 2.666.932 2.823 2.33.862-.699-.079-4.117-1.412-4.817.941-.544 1.568-3.263 1.098-4.584-.941.156-2.274 1.399-2.509 3.186.47-1.399-.079-4.895-2.588-5.439-.705.932-.862 3.341.079 4.662-2.274-.544-5.646.932-6.43 2.875.157-2.331.47-5.672 1.96-7.77.471-.622-.784-1.865-1.646-.233-1.726-3.341-6.273-5.05-8.39-3.419-2.039 1.71-4.705-.777-6.43 1.865-1.647 2.642-7.371 2.875-7.057 5.672.157 1.71-.235 4.273-1.098 5.206-2.039 2.253 1.019 3.884 1.568 5.904-.392-6.604 10.272-19.58 21.014-14.529a23.3 23.3 0 0 0-2.117 9.013c-.47 5.983.471 14.374 6.273 19.347z"/><path fill="#C8102E" stroke="#000" stroke-width=".313" d="M445.358 39.58c0-1.554 2.745-3.651 6.43-3.574 4.47 0 7.841 4.04 11.448 3.652 3.607-.389 1.882 1.554 1.098 2.175-.784.467-1.176 1.244-.941 2.254.235.932-.157 1.554-1.568.699-3.215-2.02-6.43.777-10.664-.777-3.529-1.32-5.646-2.098-5.803-4.429Z"/><path fill="#96877D" stroke="#000" stroke-width=".313" d="M427.167 80.993a26.74 26.74 0 0 0-11.762-12.975l-.157-2.953a39.2 39.2 0 0 0 7.92-5.905c13.329 6.216 31.364-2.641 39.676-11.887l3.136 1.864-1.568 2.098-1.647-.854a101.3 101.3 0 0 1-11.918 11.033c3.058.777 7.292 1.32 8.468 1.243 7.371-5.284 13.252-10.023 16.074-10.334l2.353 3.108-2.117 1.554-1.647-1.01a84.4 84.4 0 0 0-20.544 30.146c-4.94-1.087-22.661-.388-26.267-5.128Z"/><path stroke="#000" stroke-width=".313" d="M450.847 61.414c-1.176-.311-2.195-.622-2.744-.933a17.9 17.9 0 0 1-9.488 2.642"/><path stroke="#000" stroke-width=".313" d="M427.873 79.05c-1.176-6.526.784-13.83 4.077-16.005a26.54 26.54 0 0 0 13.699 3.58 26.53 26.53 0 0 0 13.589-3.969"/><path stroke="#000" stroke-width=".313" d="M427.872 75.632c5.646-.155 18.035.777 20.936 1.166 3.058.466 8.076 1.709 7.37 3.185M430.46 74.7l1.646-1.554-1.568-1.632-1.647 1.554z"/><path fill="#337321" stroke="#000" stroke-width=".313" d="M434.381 42.067c-2.039-2.797-7.685-3.73-8.861 0-.549 1.71-1.333 3.496-2.666 4.273s-1.019 3.186-.47 4.196c1.411 2.564.157 5.05 2.901 6.682 0-2.02 3.058-4.118 5.567-4.662 2.588-.466 6.508-2.797 7.057-5.283.471-2.642 1.412-4.662-3.528-5.206Z"/><path fill="#96877D" stroke="#000" stroke-width=".313" d="M421.6 67.318h.784v4.74l.392.233 4.156-2.33.392.543-4.234 2.409v.466l4.234 2.33-.392.622-4.234-2.33c-.079.077-.235.232-.392.232v4.818h-.706v-4.818a1.6 1.6 0 0 1-.392-.233l-4.156 2.409-.392-.622 4.156-2.33v-.544l-4.156-2.331.392-.622 4.156 2.331.392-.233z"/><path fill="#96877D" stroke="#000" stroke-width=".313" d="M427.872 78.973a8.4 8.4 0 0 1-4.426 2.33 8.46 8.46 0 0 1-4.977-.586 8.37 8.37 0 0 1-3.752-3.294 8.26 8.26 0 0 1 .614-9.46 8.4 8.4 0 0 1 4.146-2.79 8.46 8.46 0 0 1 5.012.05 8.4 8.4 0 0 1 4.089 2.872 18.5 18.5 0 0 0-.941 4.43 5.64 5.64 0 0 0-1.22-2.99 5.7 5.7 0 0 0-2.667-1.848 5.77 5.77 0 0 0-3.252-.108 5.74 5.74 0 0 0-2.787 1.666 5.63 5.63 0 0 0-1.014 6.1 5.7 5.7 0 0 0 2.101 2.464 5.76 5.76 0 0 0 3.115.93c2.666 0 4.94-1.786 5.646-4.195 0 1.088 0 3.574.313 4.429Z"/><path fill="#337321" stroke="#000" stroke-width=".313" d="M418.386 86.898c-.47-.622-1.489-2.331-1.333-3.497a4.73 4.73 0 0 1 2.98 1.166c-.078-.933-.471-2.797-.235-3.73.941.389 2.979 1.554 3.685 2.797-.157-.854-.549-3.108-.157-4.506 1.02.621 2.823 2.253 3.137 3.419.156-1.787.784-4.662 1.254-5.44.784.778 2.039 1.555 2.823 2.642.157-1.476.941-3.107 1.96-3.496.784.777 2.039 2.875 2.353 5.128.784-.233 1.803-1.554 2.274-2.33.392.776.862 1.942.548 3.496 1.02-.933 2.196-2.098 2.353-3.186.784.544 2.117 1.865 2.431 3.263-.157-1.165 0-3.185-.393-4.35 1.255.776 2.353 1.942 2.588 3.263.392-1.244 1.176-3.42 1.882-3.885.706 1.398 1.411 3.108 1.333 4.429.47-.855 1.098-2.487 1.803-2.798.628.933.549 3.108.392 4.196.628-.855 1.804-1.942 2.51-2.33 0 .62.156 1.63 0 2.408a10.9 10.9 0 0 0 2.509-4.04c1.254.621 2.509 2.719 2.587 3.807.941-.389 2.666-1.943 3.137-2.797 0 .621.313 2.33 0 3.574.549-.544 1.019-1.554 1.333-2.02.313.854 0 2.952-.314 4.117a4.72 4.72 0 0 1 2.666-1.165 15.4 15.4 0 0 1-1.96 6.06c-8.469-2.33-26.268-3.185-44.146-4.195Z"/><path fill="#F7E017" d="M448.024 40.513c0-.699 1.412-2.097 3.999-2.097 3.137 0 6.038 2.33 8.547 2.097 2.509-.155 1.255.7.784.855-.627.233-.862.544-.784.932.235.467 0 .7-1.098.311-2.195-.777-4.469.311-7.37-.31-2.509-.544-3.999-.778-4.078-1.788"/><path fill="#F7E017" stroke="#000" stroke-width=".313" d="M421.129 92.181c-2.587 3.108-5.253 2.642-5.802.622s1.411-2.953.706-4.74 1.176-2.564 2.038-1.787c.863.777 3.764-1.709 4.94.933 1.255 2.641 2.196 4.429 1.568 5.438-.784 1.088-2.901.544-3.45-.466Zm11.448-4.74c-.47-1.165 2.274-3.418 3.686-1.786 1.411 1.554 3.607-1.71 4.861.777 1.255 2.486 1.568 3.807 2.274 5.206.549 1.398-3.372 2.097-4.626.932.157.777-3.45 1.476-4.391-.932zm18.348 1.477c-.627-1.243 2.588-3.03 4.313-.777.392-.932 3.607-1.088 3.842 1.554l.392 5.361c.079 1.01-1.96 2.02-3.371-.7-2.666.545-3.843-.931-4.156-2.408-.314-1.554-.627-2.33-1.02-3.108z"/><path fill="#337321" stroke="#000" stroke-width=".313" d="M422.854 87.13c-.392-.854 2.353-2.64 4.078-1.32 1.803 1.32 4.312-1.088 5.488 1.243 2.118 4.817 2.196 5.128 1.569 6.06-.628.933-3.529.544-4.235-.776-.078.932-2.587.777-3.842.077-1.411-.777-2.43-3.73-3.058-5.283Zm18.584.234c-.549-1.399 3.607-2.564 5.488-.155.863-.855 2.902-.933 3.999 1.709 1.177 2.564 1.333 3.962.549 4.662-.627.466-2.744.777-3.45-.389-1.019.622-3.999.078-4.704-1.554-.628-1.631-1.177-3.108-1.804-4.273zm17.642 2.642c0-1.321 2.196-1.865 3.058 0 .784 1.709 3.529.077 3.764 3.108 0 .543-.314 2.719-1.176 3.807-.784 1.01-4.94 0-5.254-2.254z"/><path stroke="#000" stroke-width=".313" d="M421.13 92.182c-.941-1.321-2.274-3.419-3.921-1.166m12.624 1.321c-.627-.699-1.333-1.942-1.568-2.874m10.507 3.107c-.627-.466-1.568-1.32-2.039-2.253m1.255-2.33c1.568.155 2.587 1.553 3.058 2.252.47.622 1.568 1.865 2.352 1.943m4.627 1.01c-.549-.777-1.098-1.554-1.177-2.176m.079-3.807c.47.777.862 1.321 1.176 2.02m7.919 5.128a7.24 7.24 0 0 0-2.744-3.03m2.431-1.787c.078 2.564 3.528 2.797 3.685 4.662m2.745-4.196c.313.622.47 1.243.47 2.331"/><g clip-path="url(#b)"><path fill="#fff" d="M0 0h300v150H0z"/><path fill="#012169" d="M0 0v150h300V0z"/><path fill="#000" d="m0 0 300 150Zm300 0L0 150Z"/><path stroke="#fff" stroke-width="30" d="m0 0 300 150m0-150L0 150"/><mask id="c" width="300" height="150" x="0" y="0" maskUnits="userSpaceOnUse" style="mask-type:luminance"><path fill="#fff" d="M150 75h150v75zm0 0v75H0zm0 0H0V0zm0 0V0h150z"/></mask><g mask="url(#c)"><path fill="#000" d="m0 0 300 150Zm300 0L0 150Z"/><path stroke="#C8102E" stroke-width="20" d="m0 0 300 150m0-150L0 150"/></g><path fill="#000" d="M150 0v150ZM0 75h300Z"/><path stroke="#fff" stroke-width="50" d="M150 0v150M0 75h300"/><path fill="#000" d="M150 0v150ZM0 75h300Z"/><path stroke="#C8102E" stroke-width="30" d="M150 0v150M0 75h300"/></g></g><defs><clipPath id="a"><path fill="#fff" d="M0 0h600v300H0z"/></clipPath><clipPath id="b"><path fill="#fff" d="M0 0h300v150H0z"/></clipPath></defs></svg>