<svg xmlns="http://www.w3.org/2000/svg" width="600" height="300" fill="none"><g clip-path="url(#a)"><path fill="red" d="M240 0h360v300H240z"/><path fill="#060" d="M0 0h240v300H0z"/><path fill="#FF0" fill-rule="evenodd" stroke="#000" stroke-linecap="round" stroke-linejoin="round" stroke-width=".424" d="M299.544 196.467c-22.812-.707-127.128-65.824-127.834-76.277l5.721-9.535c10.382 15.044 117.028 78.396 127.552 76.136z" clip-rule="evenodd"/><path fill="#FF0" fill-rule="evenodd" stroke="#000" stroke-linecap="round" stroke-linejoin="round" stroke-width=".424" d="M176.229 109.313c-2.048 5.509 27.262 23.59 62.435 45.06 35.242 21.4 65.612 34.607 67.801 32.771l1.06-1.977c-.424.706-1.413.918-3.037.423-9.535-2.754-34.325-14.125-65.048-32.771-30.793-18.645-57.49-35.807-61.657-43.082a4.44 4.44 0 0 1-.423-2.189h-.142l-.847 1.554zm123.809 87.436c-.353.707-1.13.707-2.472.565-8.475-.918-34.324-13.489-64.906-31.782-35.596-21.329-64.976-40.681-61.728-45.766l.848-1.554.141.071c-2.825 8.616 57.985 43.365 61.587 45.625 35.172 21.753 64.835 34.536 67.448 31.217z" clip-rule="evenodd"/><path fill="#FF0" fill-rule="evenodd" stroke="#000" stroke-linecap="round" stroke-linejoin="round" stroke-width=".424" d="M240.712 126.546c22.742-.211 50.851-3.107 67.095-9.605l-3.531-5.65c-9.535 5.297-37.786 8.828-63.776 9.323-30.652-.283-52.335-3.178-63.211-10.453l-3.249 6.074c19.917 8.475 40.399 10.241 66.672 10.311" clip-rule="evenodd"/><path fill="#FF0" fill-rule="evenodd" d="M308.726 117.082c-.565.918-11.159 4.52-26.697 7.204a269 269 0 0 1-41.388 3.037c-13.273.05-26.534-.8-39.692-2.542-16.315-2.543-24.719-6.074-27.897-7.346l.776-1.553c8.97 3.531 17.445 5.65 27.333 7.203a291 291 0 0 0 39.41 2.614 277 277 0 0 0 41.175-3.037c15.891-2.613 24.578-5.933 25.85-7.416zm-3.108-5.721c-1.695 1.413-10.311 4.45-25.426 6.851a274 274 0 0 1-39.409 2.825c-15.538 0-28.322-1.13-37.998-2.542-15.396-1.978-23.589-5.65-26.555-6.639l.918-1.554c2.331 1.201 10.17 4.379 25.779 6.568a272 272 0 0 0 37.856 2.402 271 271 0 0 0 39.127-2.825c15.185-2.119 23.377-5.933 24.649-6.922zm-139.7 42.588c13.984 7.557 45.131 11.301 74.582 11.583 26.838.071 61.728-4.096 74.794-11.018l-.353-7.557c-4.097 6.357-41.529 12.501-74.723 12.289-33.195-.282-64.059-5.367-74.37-12.006v6.709" clip-rule="evenodd"/><path stroke="#000" stroke-linecap="round" stroke-linejoin="round" stroke-width=".424" d="M165.918 153.949c13.984 7.557 45.131 11.301 74.582 11.583 26.838.071 61.728-4.096 74.794-11.018l-.353-7.557c-4.097 6.357-41.529 12.501-74.723 12.289-33.195-.282-64.059-5.367-74.37-12.006v6.709m142.878-36.867c-.565.918-11.159 4.52-26.697 7.204a269 269 0 0 1-41.388 3.037c-13.273.05-26.534-.8-39.692-2.542-16.315-2.543-24.719-6.074-27.897-7.346l.776-1.553c8.97 3.531 17.445 5.65 27.333 7.203a291 291 0 0 0 39.41 2.614 277 277 0 0 0 41.175-3.037c15.891-2.613 24.578-5.933 25.85-7.416zm-3.108-5.721c-1.695 1.413-10.311 4.45-25.426 6.851a274 274 0 0 1-39.409 2.825c-15.538 0-28.322-1.13-37.998-2.542-15.396-1.978-23.589-5.65-26.555-6.639l.918-1.554c2.331 1.201 10.17 4.379 25.779 6.568a272 272 0 0 0 37.856 2.402 271 271 0 0 0 39.127-2.825c15.185-2.119 23.377-5.933 24.649-6.922z"/><path fill="#FF0" fill-rule="evenodd" d="M316 152.89v1.766c-1.978 2.401-14.267 5.932-29.663 8.475a306.5 306.5 0 0 1-46.19 3.107 282.4 282.4 0 0 1-43.789-3.037A109.4 109.4 0 0 1 165 154.726v-2.048c6.851 4.52 25.355 7.91 31.57 8.899 11.159 1.695 25.496 2.966 43.577 2.966 18.998 0 34.183-1.342 45.907-3.107 11.089-1.625 26.838-5.792 29.946-8.546m0-6.356v1.765c-1.978 2.331-14.267 5.862-29.663 8.405a306.5 306.5 0 0 1-46.19 3.178 292.4 292.4 0 0 1-43.789-3.037A109.5 109.5 0 0 1 165 148.37v-2.119c6.851 4.591 25.426 7.91 31.57 8.899a288 288 0 0 0 43.577 3.037c18.998 0 34.254-1.413 45.907-3.178 11.089-1.554 26.838-5.721 29.946-8.475m-75.571 48.591c-32.205-.142-59.82-8.758-65.683-10.171l4.238 6.639a176.4 176.4 0 0 0 61.728 10.1c24.507-.706 45.907-2.613 60.951-9.958l4.379-6.922c-10.241 4.873-45.201 10.312-65.683 10.312" clip-rule="evenodd"/><path stroke="#000" stroke-linecap="round" stroke-linejoin="round" stroke-width=".424" d="M240.429 195.125c-32.205-.142-59.82-8.758-65.683-10.171l4.238 6.639a176.4 176.4 0 0 0 61.728 10.1c24.507-.706 45.907-2.613 60.951-9.958l4.379-6.922c-10.241 4.873-45.201 10.312-65.683 10.312M316 152.89v1.766c-1.978 2.401-14.267 5.932-29.663 8.475a306.5 306.5 0 0 1-46.19 3.107 282.4 282.4 0 0 1-43.789-3.037A109.4 109.4 0 0 1 165 154.726v-2.048c6.851 4.52 25.355 7.91 31.57 8.899 11.159 1.695 25.496 2.966 43.577 2.966 18.998 0 34.183-1.342 45.907-3.107 11.089-1.625 26.838-5.792 29.946-8.546m0-6.356v1.765c-1.978 2.331-14.267 5.862-29.663 8.405a306.5 306.5 0 0 1-46.19 3.178 292.4 292.4 0 0 1-43.789-3.037A109.5 109.5 0 0 1 165 148.37v-2.119c6.851 4.591 25.426 7.91 31.57 8.899a288 288 0 0 0 43.577 3.037c18.998 0 34.254-1.413 45.907-3.178 11.089-1.554 26.838-5.721 29.946-8.475"/><path fill="#FF0" fill-rule="evenodd" stroke="#000" stroke-linecap="round" stroke-linejoin="round" stroke-width=".424" d="M303.358 190.181a101 101 0 0 1-1.977 2.825c-7.063 2.543-18.363 5.227-23.025 5.933a208.6 208.6 0 0 1-37.926 3.531c-28.533-.424-51.911-6.003-62.858-10.806l-.918-1.483.141-.282 1.483.635a202.3 202.3 0 0 0 62.293 10.241c13.278 0 26.485-1.483 37.15-3.39 16.385-3.319 23.024-5.791 25.072-6.921l.495-.283zm3.743-6.215a202 202 0 0 1-1.412 2.472c-3.814 1.412-14.125 4.379-29.169 6.498-9.888 1.341-16.032 2.683-35.737 3.037a245.4 245.4 0 0 1-66.531-9.888l-.776-1.766a275.4 275.4 0 0 0 67.378 9.888c18.009-.353 25.708-1.695 35.525-3.037 17.515-2.684 26.344-5.65 28.957-6.427v-.141l1.836-.707z" clip-rule="evenodd"/><path fill="#FF0" fill-rule="evenodd" stroke="#000" stroke-linecap="round" stroke-linejoin="round" stroke-width=".424" d="M307.525 148.017c.071 21.188-10.806 40.257-19.493 48.591a70.13 70.13 0 0 1-47.885 19.917c-21.4.353-41.528-13.56-46.967-19.705a71.33 71.33 0 0 1-19.422-47.602c1.271-23.166 10.382-39.269 23.519-50.357a70.34 70.34 0 0 1 45.342-16.032 69.35 69.35 0 0 1 50.145 25.143c8.828 10.735 12.713 22.388 14.761 40.045m-67.237-72.463a74.866 74.866 0 0 1 74.865 74.299 74.65 74.65 0 0 1-74.653 74.653 74.65 74.65 0 0 1-52.787-21.865 74.7 74.7 0 0 1-16.183-24.219 74.7 74.7 0 0 1-5.682-28.569c-.071-40.963 33.406-74.299 74.44-74.299" clip-rule="evenodd"/><path fill="#FF0" fill-rule="evenodd" stroke="#000" stroke-linecap="round" stroke-linejoin="round" stroke-width=".424" d="M240.5 75.2c41.105 0 74.582 33.478 74.582 74.583s-33.477 74.582-74.511 74.582-74.582-33.478-74.582-74.582c0-41.105 33.477-74.582 74.582-74.582zm-72.957 74.512c0 40.116 32.983 72.957 72.957 72.957 39.975 0 72.958-32.841 72.958-72.957S280.475 76.755 240.5 76.755c-39.974 0-72.957 32.841-72.957 72.957" clip-rule="evenodd"/><path fill="#FF0" fill-rule="evenodd" stroke="#000" stroke-linecap="round" stroke-linejoin="round" stroke-width=".424" d="M240.57 81.416a68.507 68.507 0 0 1 68.297 68.296 68.58 68.58 0 0 1-68.297 68.367c-37.432 0-68.296-30.794-68.296-68.367a68.58 68.58 0 0 1 68.296-68.296m-66.671 68.296c0 36.726 30.087 66.672 66.671 66.672s66.672-30.017 66.672-66.672c0-36.726-30.087-66.672-66.672-66.672a66.953 66.953 0 0 0-66.671 66.672" clip-rule="evenodd"/><path fill="#FF0" fill-rule="evenodd" stroke="#000" stroke-linecap="round" stroke-linejoin="round" stroke-width=".424" d="M243.608 74.848h-6.427v149.94h6.356z" clip-rule="evenodd"/><path fill="#FF0" fill-rule="evenodd" stroke="#000" stroke-linecap="round" stroke-linejoin="round" stroke-width=".424" d="M242.901 74h1.625v151.636h-1.554V74zm-6.356 0h1.695v151.636h-1.624z" clip-rule="evenodd"/><path fill="#FF0" fill-rule="evenodd" stroke="#000" stroke-linecap="round" stroke-linejoin="round" stroke-width=".424" d="M315.153 152.678v-5.509l-4.521-4.237-25.637-6.78-36.867-3.744-44.495 2.261-31.641 7.486-6.356 4.732v5.579l16.173-7.274 38.421-6.003h36.938l27.121 2.966 18.786 4.52z" clip-rule="evenodd"/><path fill="#FF0" fill-rule="evenodd" stroke="#000" stroke-linecap="round" stroke-linejoin="round" stroke-width=".424" d="M240.571 138.27c17.586 0 34.607 1.625 48.238 4.238 13.984 2.825 23.801 6.356 27.191 10.241v1.977c-4.096-4.944-17.304-8.475-27.544-10.594-13.42-2.542-30.37-4.237-47.956-4.237-18.434 0-35.667 1.836-48.944 4.379-10.594 2.118-24.79 6.356-26.556 10.452v-2.048c.918-2.825 11.512-7.063 26.344-10.099 13.348-2.614 30.581-4.309 49.156-4.309zm0-6.427a270.5 270.5 0 0 1 48.238 4.238c13.984 2.825 23.801 6.356 27.191 10.311v1.907c-4.096-4.873-17.304-8.475-27.544-10.523-13.42-2.613-30.37-4.238-47.956-4.238a265.5 265.5 0 0 0-48.874 4.379c-10.241 1.907-25.002 6.286-26.626 10.382v-1.977c.989-2.825 11.724-7.275 26.344-10.1 13.419-2.613 30.581-4.379 49.227-4.379m-.424-32.63c27.756-.14 51.981 3.885 63.07 9.535l4.025 7.063c-9.605-5.226-35.737-10.594-67.025-9.888-25.496.212-52.758 2.825-66.389 10.17l4.803-8.051c11.23-5.862 37.644-8.828 61.516-8.828" clip-rule="evenodd"/><path fill="#FF0" fill-rule="evenodd" d="M240.571 105.005a250 250 0 0 1 43.294 3.037c11.3 2.119 22.106 5.226 23.66 6.922l1.2 2.118c-3.743-2.401-13.136-5.155-25.143-7.415-12.006-2.261-27.332-3.037-43.082-2.967-17.869-.07-31.782.848-43.647 2.967a76.9 76.9 0 0 0-23.519 7.274l1.201-2.189c4.237-2.119 10.806-4.732 21.965-6.781 12.359-2.26 26.414-2.895 44.071-2.966m0-6.356c15.114-.142 30.087.706 41.74 2.825a67.8 67.8 0 0 1 21.612 7.063l1.766 2.825c-2.967-3.32-14.126-6.498-24.084-8.193-11.583-2.048-25.92-2.825-41.034-2.966a255 255 0 0 0-42.023 3.107 68.8 68.8 0 0 0-20.906 6.427l1.554-2.331c4.096-2.118 10.735-4.096 19.069-5.72a252 252 0 0 1 42.306-3.108zm37.008 82.139a195 195 0 0 0-37.079-2.825c-46.261.565-61.163 9.534-62.999 12.218l-3.531-5.65c11.865-8.475 37.008-13.278 66.813-12.854 15.467.282 28.815 1.342 39.974 3.531l-3.178 5.65" clip-rule="evenodd"/><path stroke="#000" stroke-linecap="round" stroke-linejoin="round" stroke-width=".424" d="M277.579 180.788a195 195 0 0 0-37.079-2.825c-46.261.565-61.163 9.534-62.999 12.218l-3.531-5.65c11.865-8.475 37.008-13.278 66.813-12.854 15.467.282 28.815 1.342 39.974 3.531l-3.178 5.65m-37.008-75.853a250 250 0 0 1 43.294 3.037c11.3 2.119 22.106 5.226 23.66 6.922l1.2 2.118c-3.743-2.401-13.136-5.155-25.143-7.415-12.006-2.261-27.332-3.037-43.082-2.967-17.869-.07-31.782.848-43.647 2.967a76.9 76.9 0 0 0-23.519 7.274l1.201-2.189c4.237-2.119 10.806-4.732 21.965-6.781 12.359-2.26 26.414-2.895 44.071-2.966m0-6.356c15.114-.142 30.087.706 41.74 2.825a67.8 67.8 0 0 1 21.612 7.063l1.766 2.825c-2.967-3.32-14.126-6.498-24.084-8.193-11.583-2.048-25.92-2.825-41.034-2.966a255 255 0 0 0-42.023 3.107 68.8 68.8 0 0 0-20.906 6.427l1.554-2.331c4.096-2.118 10.735-4.096 19.069-5.72a252 252 0 0 1 42.306-3.108z"/><path fill="#FF0" fill-rule="evenodd" stroke="#000" stroke-linecap="round" stroke-linejoin="round" stroke-width=".424" d="M240.289 177.186c12.854.212 25.425.706 37.644 2.966l-.848 1.554c-11.3-2.119-23.448-2.825-36.726-2.825-17.162-.141-34.395 1.483-49.438 5.791-4.732 1.342-12.572 4.379-13.419 6.922l-.848-1.413c.283-1.554 4.944-4.661 13.843-7.063 17.233-4.943 33.336-5.862 49.792-5.932m.565-6.498a231 231 0 0 1 40.469 3.531l-.918 1.625a211 211 0 0 0-39.551-3.461c-17.092 0-35.243 1.271-51.77 6.074-5.297 1.554-14.549 4.944-14.831 7.557l-.848-1.554c.142-2.401 8.122-5.579 15.326-7.627 16.598-4.874 34.819-6.074 52.123-6.145" clip-rule="evenodd"/><path fill="#FF0" fill-rule="evenodd" stroke="#000" stroke-linecap="round" stroke-linejoin="round" stroke-width=".424" d="m306.536 185.378-5.509 8.687-16.032-14.195-41.387-27.898-46.755-25.638-24.225-8.263 5.156-9.605 1.765-.918 15.044 3.743 49.721 25.637 28.675 18.081 24.083 17.303 9.817 11.301z" clip-rule="evenodd"/><path fill="#FF0" fill-rule="evenodd" stroke="#000" stroke-linecap="round" stroke-linejoin="round" stroke-width=".424" d="M171.78 118.283c4.238-2.825 35.455 11.018 68.226 30.793 32.559 19.776 63.776 42.094 60.951 46.261l-.918 1.483-.424.353c.071-.071.565-.706 0-2.19-1.413-4.59-23.589-22.247-60.245-44.424-35.808-21.258-65.612-34.112-68.508-30.44zm135.886 67.025c2.684-5.368-26.273-27.192-62.222-48.45-36.726-20.835-63.281-33.124-68.155-29.452l-.988 2.048c0 .071 0-.141.282-.353.848-.706 2.331-.706 2.966-.706 8.334.141 32.136 11.088 65.542 30.228 14.69 8.476 61.869 38.845 61.657 47.32 0 .706.071.848-.212 1.272l1.201-1.837z" clip-rule="evenodd"/><path fill="#fff" stroke="#000" stroke-width=".527" d="M195.821 158.023a44.22 44.22 0 0 0 13.184 31.415 44.46 44.46 0 0 0 31.49 13.259 44.75 44.75 0 0 0 31.641-13.109 44.43 44.43 0 0 0 13.108-31.49V98.433l-89.423-.151z"/><path fill="red" stroke="#000" stroke-width=".377" d="M197.629 158.098a42.496 42.496 0 0 0 12.656 30.135 42.94 42.94 0 0 0 30.285 12.656 42.87 42.87 0 0 0 30.285-12.506 42.48 42.48 0 0 0 12.581-30.134v-58.008h-85.807zm68.555-40.455v36.839l-.075 3.842a25.014 25.014 0 0 1-7.534 18.081 25.6 25.6 0 0 1-18.08 7.533c-7.082 0-13.335-3.013-18.005-7.684a25.61 25.61 0 0 1-7.534-18.08v-40.681z"/><path fill="#FF0" d="M203.053 115.383c.075-4.143 3.013-5.123 3.013-5.123.075 0 3.24 1.055 3.24 5.199z"/><path fill="#FF0" stroke="#000" stroke-width=".377" d="m200.492 110.336-.528 4.746h3.164c0-3.918 3.014-4.52 3.014-4.52.075 0 3.013.828 3.088 4.52h3.165l-.603-4.822zm-.754 4.821h12.807c.226 0 .452.226.452.528 0 .376-.226.602-.452.602h-12.807c-.226 0-.452-.226-.452-.602 0-.302.226-.528.527-.528z"/><path fill="#FF0" d="M204.409 115.082c0-2.486 1.733-3.164 1.733-3.164s1.733.753 1.733 3.164zm-4.369-6.78h12.28c.226 0 .452.301.452.602a.486.486 0 0 1-.452.452h-12.28c-.226 0-.452-.226-.452-.527 0-.226.226-.452.452-.452zm.301 1.13h11.602c.226 0 .452.226.452.527s-.226.527-.452.527h-11.677c-.301 0-.452-.226-.452-.527s.151-.527.452-.527zm3.767-7.986h.904v.603h.678v-.603h.979v.678h.678v-.753h.904v1.506c0 .302-.15.452-.376.452h-3.315c-.226 0-.452-.15-.452-.376zm3.465 2.034.226 4.822h-3.239l.226-4.897h2.787"/><path stroke="#000" stroke-width=".377" d="m207.573 103.48.226 4.822h-3.239l.226-4.897h2.787m-3.164 11.677c0-2.486 1.733-3.164 1.733-3.164s1.733.753 1.733 3.164zm-4.369-6.78h12.28c.226 0 .452.301.452.602a.486.486 0 0 1-.452.452h-12.28c-.226 0-.452-.226-.452-.527 0-.226.226-.452.452-.452zm.301 1.13h11.602c.226 0 .452.226.452.527s-.226.527-.452.527h-11.677c-.301 0-.452-.226-.452-.527s.151-.527.452-.527zm3.767-7.986h.904v.603h.678v-.603h.979v.678h.678v-.753h.904v1.506c0 .302-.15.452-.376.452h-3.315c-.226 0-.452-.15-.452-.376z"/><path fill="#FF0" stroke="#000" stroke-width=".377" d="M203.655 105.74v2.561h-3.013v-2.561zM211.641 105.74v2.561h-3.013v-2.561z"/><path fill="#FF0" stroke="#000" stroke-width=".377" d="M200.115 103.782h.904v.753h.678v-.753h.904v.753h.678v-.753h.904v1.506c0 .302-.15.452-.376.452h-3.24a.453.453 0 0 1-.452-.452zM208.101 103.782h.904v.753h.678v-.753h.904v.753h.678v-.753h.904v1.506c0 .302-.151.452-.377.452h-3.239a.45.45 0 0 1-.452-.452z"/><path fill="#000001" d="M205.841 104.987c0-.452.678-.452.678 0v1.205h-.678zM201.848 106.644c0-.452.602-.452.602 0v.904h-.602zM209.833 106.644c0-.452.603-.452.603 0v.904h-.603z"/><path fill="#FF0" d="M203.053 150.264c.075-4.144 3.013-5.123 3.013-5.123.075 0 3.24 1.055 3.24 5.198z"/><path fill="#FF0" stroke="#000" stroke-width=".377" d="m200.492 145.216-.528 4.746h3.164c0-3.917 3.014-4.52 3.014-4.52.075 0 3.013.829 3.088 4.52h3.165l-.603-4.821zm-.754 4.822h12.807c.226 0 .452.226.452.527 0 .377-.226.603-.452.603h-12.807c-.226 0-.452-.226-.452-.603 0-.301.226-.527.527-.527z"/><path fill="#FF0" d="M204.409 149.962c0-2.486 1.733-3.164 1.733-3.164s1.733.753 1.733 3.164zm-4.369-6.78h12.28c.226 0 .452.301.452.603a.486.486 0 0 1-.452.452h-12.28c-.226 0-.452-.226-.452-.528 0-.226.226-.452.452-.452zm.301 1.13h11.602c.226 0 .452.226.452.527s-.226.528-.452.528h-11.677c-.301 0-.452-.226-.452-.528 0-.301.151-.527.452-.527zm3.767-7.986h.904v.603h.678v-.603h.979v.679h.678v-.754h.904v1.507c0 .301-.15.452-.376.452h-3.315c-.226 0-.452-.151-.452-.377zm3.465 2.035.226 4.821h-3.239l.226-4.897h2.787"/><path stroke="#000" stroke-width=".377" d="m207.573 138.361.226 4.821h-3.239l.226-4.897h2.787m-3.164 11.677c0-2.486 1.733-3.164 1.733-3.164s1.733.753 1.733 3.164zm-4.369-6.78h12.28c.226 0 .452.301.452.603a.486.486 0 0 1-.452.452h-12.28c-.226 0-.452-.226-.452-.528 0-.226.226-.452.452-.452zm.301 1.13h11.602c.226 0 .452.226.452.527s-.226.528-.452.528h-11.677c-.301 0-.452-.226-.452-.528 0-.301.151-.527.452-.527zm3.767-7.986h.904v.603h.678v-.603h.979v.679h.678v-.754h.904v1.507c0 .301-.15.452-.376.452h-3.315c-.226 0-.452-.151-.452-.377z"/><path fill="#FF0" stroke="#000" stroke-width=".377" d="M203.655 140.62v2.562h-3.013v-2.562zM211.641 140.62v2.562h-3.013v-2.562z"/><path fill="#FF0" stroke="#000" stroke-width=".377" d="M200.115 138.662h.904v.753h.678v-.753h.904v.753h.678v-.753h.904v1.507c0 .301-.15.452-.376.452h-3.24a.45.45 0 0 1-.319-.133.45.45 0 0 1-.133-.319zM208.101 138.662h.904v.753h.678v-.753h.904v.753h.678v-.753h.904v1.507c0 .301-.151.452-.377.452h-3.239a.453.453 0 0 1-.452-.452z"/><path fill="#000001" d="M205.841 139.867c0-.452.678-.452.678 0v1.206h-.678zM201.848 141.525c0-.452.602-.452.602 0v.904h-.602zM209.833 141.525c0-.452.603-.452.603 0v.904h-.603z"/><path fill="#FF0" d="M216.649 186.616c-2.887-2.973-1.512-5.748-1.512-5.748.053-.053 3.031-1.555 5.971 1.364z"/><path fill="#FF0" stroke="#000" stroke-width=".377" d="m211.262 184.877 2.996 3.719 2.23-2.246c-2.78-2.76-1.084-5.323-1.084-5.323.053-.053 2.711-1.554 5.384.994l2.229-2.246-3.846-2.969zm2.891 3.932 9.024-9.087c.159-.161.479-.162.692.05.268.266.269.585.11.746l-9.025 9.087c-.159.161-.479.162-.746-.104a.513.513 0 0 1-.002-.745z"/><path fill="#FF0" d="M217.39 185.442c-1.764-1.752-1.024-3.459-1.024-3.459s1.755-.699 3.466 1zm-7.89-1.677 8.653-8.714c.159-.16.532-.108.746.104.16.159.161.479.002.639l-8.653 8.714c-.159.16-.478.161-.692-.051a.484.484 0 0 1-.002-.639zm1.014.582 8.175-8.232c.159-.161.479-.162.693.051.214.212.215.532.056.692l-8.228 8.286c-.213.213-.479.161-.693-.051-.214-.213-.268-.479-.056-.693zm-3.012-8.3.637-.641.428.424.478-.481-.428-.424.69-.695.481.478.478-.482-.535-.53.637-.642 1.069 1.062c.214.212.215.425.056.586l-2.336 2.352c-.159.16-.425.214-.586.055zm3.885-1.025 3.581 3.237-2.283 2.298-3.315-3.611 1.964-1.978"/><path stroke="#000" stroke-width=".377" d="m211.387 175.022 3.581 3.237-2.283 2.298-3.315-3.611 1.964-1.978m6.056 10.474c-1.764-1.752-1.024-3.459-1.024-3.459s1.755-.699 3.466 1zm-7.89-1.677 8.653-8.714c.159-.16.532-.108.746.104.16.159.161.479.002.639l-8.653 8.714c-.159.16-.478.161-.692-.051a.484.484 0 0 1-.002-.639zm1.014.582 8.175-8.232c.159-.161.479-.162.693.051.214.212.215.532.056.692l-8.228 8.286c-.213.213-.479.161-.693-.051-.214-.213-.268-.479-.056-.693zm-3.012-8.3.637-.641.428.424.478-.481-.428-.424.69-.695.481.478.478-.482-.535-.53.637-.642 1.069 1.062c.214.212.215.425.056.586l-2.336 2.352c-.159.16-.425.214-.586.055z"/><path fill="#FF0" stroke="#000" stroke-width=".377" d="m210.231 179.394 1.817 1.805-2.123 2.138-1.818-1.805zM215.858 173.727l1.817 1.805-2.123 2.139-1.818-1.805z"/><path fill="#FF0" stroke="#000" stroke-width=".377" d="m206.346 180.526.637-.641.534.53.478-.481-.535-.53.637-.642.535.531.478-.481-.535-.531.637-.641 1.069 1.061c.214.213.215.426.056.586l-2.283 2.299a.455.455 0 0 1-.639.002zM211.973 174.86l.637-.642.534.531.478-.481-.535-.531.637-.641.535.531.478-.482-.535-.53.637-.642 1.069 1.062c.214.212.215.425.056.586l-2.283 2.298a.454.454 0 0 1-.639.002z"/><path fill="#000001" d="M211.236 177.313c-.321-.319.157-.8.477-.481l.856.849-.478.481zM209.598 181.314c-.321-.319.104-.746.425-.428l.641.637-.425.428zM215.225 175.647c-.321-.318.104-.746.425-.427l.641.637-.425.427z"/><path fill="#FF0" d="M237.481 115.383c.076-4.143 3.014-5.123 3.014-5.123.075 0 3.239 1.055 3.239 5.199z"/><path fill="#FF0" stroke="#000" stroke-width=".377" d="m234.92 110.336-.527 4.746h3.164c0-3.918 3.013-4.52 3.013-4.52.076 0 3.014.828 3.089 4.52h3.164l-.602-4.822zm-.753 4.821h12.807c.226 0 .452.226.452.528 0 .376-.226.602-.452.602h-12.807c-.226 0-.452-.226-.452-.602 0-.302.226-.528.527-.528z"/><path fill="#FF0" d="M238.838 115.082c0-2.486 1.733-3.164 1.733-3.164s1.733.753 1.733 3.164zm-4.369-6.78h12.279c.226 0 .452.301.452.602a.486.486 0 0 1-.452.452h-12.279c-.226 0-.452-.226-.452-.527 0-.226.226-.452.452-.452zm.301 1.13h11.602c.226 0 .452.226.452.527s-.226.527-.452.527h-11.677c-.302 0-.452-.226-.452-.527s.15-.527.452-.527zm3.767-7.986h.904v.603h.678v-.603h.979v.678h.678v-.753h.904v1.506c0 .302-.15.452-.376.452h-3.315c-.226 0-.452-.15-.452-.376zm3.465 2.034.226 4.822h-3.239l.226-4.897h2.787"/><path stroke="#000" stroke-width=".377" d="m242.002 103.48.226 4.822h-3.239l.226-4.897h2.787m-3.164 11.677c0-2.486 1.733-3.164 1.733-3.164s1.733.753 1.733 3.164zm-4.369-6.78h12.279c.226 0 .452.301.452.602a.486.486 0 0 1-.452.452h-12.279c-.226 0-.452-.226-.452-.527 0-.226.226-.452.452-.452zm.301 1.13h11.602c.226 0 .452.226.452.527s-.226.527-.452.527h-11.677c-.302 0-.452-.226-.452-.527s.15-.527.452-.527zm3.767-7.986h.904v.603h.678v-.603h.979v.678h.678v-.753h.904v1.506c0 .302-.15.452-.376.452h-3.315c-.226 0-.452-.15-.452-.376z"/><path fill="#FF0" stroke="#000" stroke-width=".377" d="M238.085 105.74v2.561h-3.014v-2.561zM246.07 105.74v2.561h-3.013v-2.561z"/><path fill="#FF0" stroke="#000" stroke-width=".377" d="M234.544 103.782h.904v.753h.678v-.753h.904v.753h.678v-.753h.904v1.506c0 .302-.151.452-.377.452h-3.239a.45.45 0 0 1-.452-.452zM242.529 103.782h.904v.753h.678v-.753h.904v.753h.678v-.753h.904v1.506c0 .302-.15.452-.376.452h-3.24a.453.453 0 0 1-.452-.452z"/><path fill="#000001" d="M240.27 104.987c0-.452.678-.452.678 0v1.205h-.678zM236.276 106.644c0-.452.603-.452.603 0v.904h-.603zM244.262 106.644c0-.452.602-.452.602 0v.904h-.602z"/><path fill="#FF0" d="M277.938 115.383c-.075-4.143-3.013-5.123-3.013-5.123-.075 0-3.239 1.055-3.239 5.198z"/><path fill="#FF0" stroke="#000" stroke-width=".377" d="m280.5 110.336.527 4.746h-3.164c0-3.918-3.013-4.52-3.013-4.52-.076 0-3.014.828-3.089 4.52h-3.164l.602-4.822zm.753 4.821h-12.807c-.226 0-.452.226-.452.527 0 .377.226.603.452.603h12.807c.226 0 .452-.226.452-.603a.515.515 0 0 0-.527-.527z"/><path fill="#FF0" d="M276.582 115.082c0-2.486-1.733-3.164-1.733-3.164s-1.733.753-1.733 3.164zm4.369-6.781h-12.279c-.226 0-.452.302-.452.603 0 .226.226.452.452.452h12.279c.226 0 .452-.226.452-.527a.486.486 0 0 0-.452-.452zm-.301 1.13h-11.602c-.226 0-.452.226-.452.528 0 .301.226.527.452.527h11.677c.302 0 .452-.226.452-.527s-.15-.528-.452-.528zm-3.767-7.985h-.904v.603h-.678v-.603h-.979v.678h-.678v-.753h-.904v1.506c0 .302.15.452.376.452h3.315c.226 0 .452-.15.452-.376zm-3.465 2.034-.226 4.821h3.239l-.226-4.896h-2.787"/><path stroke="#000" stroke-width=".377" d="m273.418 103.48-.226 4.821h3.239l-.226-4.896h-2.787m3.164 11.677c0-2.486-1.733-3.164-1.733-3.164s-1.733.753-1.733 3.164zm4.369-6.781h-12.279c-.226 0-.452.302-.452.603 0 .226.226.452.452.452h12.279c.226 0 .452-.226.452-.527a.486.486 0 0 0-.452-.452zm-.301 1.13h-11.602c-.226 0-.452.226-.452.528 0 .301.226.527.452.527h11.677c.302 0 .452-.226.452-.527s-.15-.528-.452-.528zm-3.767-7.985h-.904v.603h-.678v-.603h-.979v.678h-.678v-.753h-.904v1.506c0 .302.15.452.376.452h3.315c.226 0 .452-.15.452-.376z"/><path fill="#FF0" stroke="#000" stroke-width=".377" d="M277.335 105.74v2.561h3.014v-2.561zM269.35 105.74v2.561h3.013v-2.561z"/><path fill="#FF0" stroke="#000" stroke-width=".377" d="M280.877 103.781h-.904v.754h-.678v-.754h-.904v.754h-.678v-.754h-.904v1.507c0 .301.151.452.377.452h3.239a.45.45 0 0 0 .452-.452zM272.891 103.781h-.904v.754h-.678v-.754h-.904v.754h-.678v-.754h-.904v1.507c0 .301.15.452.376.452h3.24a.45.45 0 0 0 .452-.452z"/><path fill="#000001" d="M275.15 104.987c0-.452-.678-.452-.678 0v1.205h.678zM279.144 106.644c0-.452-.603-.452-.603 0v.904h.603zM271.158 106.644c0-.452-.602-.452-.602 0v.904h.602z"/><path fill="#FF0" d="M277.938 150.264c-.075-4.144-3.013-5.123-3.013-5.123-.075 0-3.239 1.055-3.239 5.198z"/><path fill="#FF0" stroke="#000" stroke-width=".377" d="m280.5 145.216.527 4.746h-3.164c0-3.917-3.013-4.52-3.013-4.52-.076 0-3.014.829-3.089 4.52h-3.164l.602-4.821zm.753 4.822h-12.807c-.226 0-.452.226-.452.527 0 .377.226.603.452.603h12.807c.226 0 .452-.226.452-.603a.515.515 0 0 0-.527-.527z"/><path fill="#FF0" d="M276.582 149.962c0-2.486-1.733-3.164-1.733-3.164s-1.733.753-1.733 3.164zm4.369-6.78h-12.279c-.226 0-.452.301-.452.603 0 .226.226.452.452.452h12.279c.226 0 .452-.226.452-.528a.486.486 0 0 0-.452-.452zm-.301 1.13h-11.602c-.226 0-.452.226-.452.527s.226.528.452.528h11.677c.302 0 .452-.226.452-.528 0-.301-.15-.527-.452-.527zm-3.767-7.986h-.904v.603h-.678v-.603h-.979v.679h-.678v-.754h-.904v1.507c0 .301.15.452.376.452h3.315c.226 0 .452-.151.452-.377zm-3.465 2.035-.226 4.821h3.239l-.226-4.897h-2.787"/><path stroke="#000" stroke-width=".377" d="m273.418 138.361-.226 4.821h3.239l-.226-4.897h-2.787m3.164 11.677c0-2.486-1.733-3.164-1.733-3.164s-1.733.753-1.733 3.164zm4.369-6.78h-12.279c-.226 0-.452.301-.452.603 0 .226.226.452.452.452h12.279c.226 0 .452-.226.452-.528a.486.486 0 0 0-.452-.452zm-.301 1.13h-11.602c-.226 0-.452.226-.452.527s.226.528.452.528h11.677c.302 0 .452-.226.452-.528 0-.301-.15-.527-.452-.527zm-3.767-7.986h-.904v.603h-.678v-.603h-.979v.679h-.678v-.754h-.904v1.507c0 .301.15.452.376.452h3.315c.226 0 .452-.151.452-.377z"/><path fill="#FF0" stroke="#000" stroke-width=".377" d="M277.335 140.62v2.562h3.014v-2.562zM269.35 140.62v2.562h3.013v-2.562z"/><path fill="#FF0" stroke="#000" stroke-width=".377" d="M280.877 138.662h-.904v.753h-.678v-.753h-.904v.753h-.678v-.753h-.904v1.507c0 .301.151.452.377.452h3.239a.453.453 0 0 0 .452-.452zM272.891 138.662h-.904v.753h-.678v-.753h-.904v.753h-.678v-.753h-.904v1.507c0 .301.15.452.376.452h3.24a.45.45 0 0 0 .452-.452z"/><path fill="#000001" d="M275.15 139.867c0-.452-.678-.452-.678 0v1.206h.678zM279.144 141.525c0-.452-.603-.452-.603 0v.904h.603zM271.158 141.525c0-.452-.602-.452-.602 0v.904h.602z"/><path fill="#FF0" d="M264.343 186.616c2.887-2.973 1.511-5.748 1.511-5.748-.053-.053-3.031-1.555-5.971 1.364z"/><path fill="#FF0" stroke="#000" stroke-width=".377" d="m269.729 184.877-2.996 3.719-2.23-2.246c2.78-2.76 1.084-5.323 1.084-5.323-.053-.053-2.711-1.554-5.383.994l-2.23-2.246 3.846-2.969zm-2.89 3.932-9.025-9.087c-.159-.161-.478-.162-.692.05-.268.266-.269.585-.109.746l9.024 9.087c.159.161.479.162.746-.104a.514.514 0 0 0 .003-.745z"/><path fill="#FF0" d="M263.601 185.442c1.764-1.752 1.024-3.459 1.024-3.459s-1.755-.699-3.466 1zm7.89-1.677-8.653-8.714c-.159-.16-.532-.108-.746.104a.486.486 0 0 0-.002.639l8.653 8.714c.159.16.479.161.692-.051a.485.485 0 0 0 .003-.639zm-1.014.582-8.175-8.232c-.159-.161-.479-.162-.693.051-.214.212-.215.532-.055.692l8.228 8.286c.212.213.479.161.692-.051.214-.213.268-.479.056-.693zm3.012-8.3-.637-.641-.428.424-.477-.481.427-.424-.69-.695-.481.478-.478-.482.535-.53-.637-.642-1.069 1.062c-.214.212-.215.425-.056.586l2.336 2.352c.159.16.426.214.586.055zm-3.885-1.025-3.581 3.237 2.283 2.298 3.315-3.611-1.964-1.978"/><path stroke="#000" stroke-width=".377" d="m269.604 175.022-3.581 3.237 2.283 2.298 3.315-3.611-1.964-1.978m-6.056 10.474c1.764-1.752 1.024-3.459 1.024-3.459s-1.755-.699-3.466 1zm7.89-1.677-8.653-8.714c-.159-.16-.532-.108-.746.104a.486.486 0 0 0-.002.639l8.653 8.714c.159.16.479.161.692-.051a.485.485 0 0 0 .003-.639zm-1.014.582-8.175-8.232c-.159-.161-.479-.162-.693.051-.214.212-.215.532-.055.692l8.228 8.286c.212.213.479.161.692-.051.214-.213.268-.479.056-.693zm3.012-8.3-.637-.641-.428.424-.477-.481.427-.424-.69-.695-.481.478-.478-.482.535-.53-.637-.642-1.069 1.062c-.214.212-.215.425-.056.586l2.336 2.352c.159.16.426.214.586.055z"/><path fill="#FF0" stroke="#000" stroke-width=".377" d="m270.76 179.394-1.817 1.805 2.123 2.138 1.818-1.805zM265.133 173.727l-1.817 1.805 2.123 2.139 1.818-1.805z"/><path fill="#FF0" stroke="#000" stroke-width=".377" d="m274.645 180.526-.637-.641-.535.53-.478-.481.535-.53-.637-.642-.535.531-.478-.481.535-.531-.637-.641-1.069 1.061c-.214.213-.215.426-.055.586l2.282 2.299a.45.45 0 0 0 .639.002zM269.019 174.86l-.637-.642-.535.531-.478-.481.535-.531-.637-.641-.535.531-.478-.482.535-.53-.637-.642-1.069 1.062c-.214.212-.215.425-.055.586l2.282 2.298a.452.452 0 0 0 .639.002z"/><path fill="#000001" d="M269.756 177.313c.32-.319-.157-.8-.478-.481l-.856.849.478.481zM271.393 181.314c.321-.319-.104-.746-.424-.428l-.642.637.425.428zM265.765 175.647c.321-.318-.104-.746-.424-.427l-.642.637.425.427z"/><path fill="#039" d="M234.996 151.544a6.25 6.25 0 0 0 1.658 4.294 5.42 5.42 0 0 0 3.992 1.808c1.583 0 3.014-.753 3.993-1.808a6.25 6.25 0 0 0 1.658-4.294v-8.136h-11.301z"/><path fill="#fff" d="M237.633 147.627a1.13 1.13 0 1 0 0-2.26 1.13 1.13 0 0 0 0 2.26M243.886 147.627a1.13 1.13 0 1 0 0-2.26 1.13 1.13 0 0 0 0 2.26M240.722 150.64a1.13 1.13 0 1 0 0-2.26 1.13 1.13 0 0 0 0 2.26M237.633 153.804a1.13 1.13 0 1 0 0-2.26 1.13 1.13 0 0 0 0 2.26M243.886 153.804a1.13 1.13 0 1 0 0-2.26 1.13 1.13 0 0 0 0 2.26"/><path fill="#039" d="M234.996 131.957a6.25 6.25 0 0 0 1.658 4.294 5.42 5.42 0 0 0 3.992 1.808c1.583 0 3.014-.753 3.993-1.808a6.25 6.25 0 0 0 1.658-4.294v-8.136h-11.301z"/><path fill="#fff" d="M237.633 128.04a1.13 1.13 0 1 0 0-2.26 1.13 1.13 0 0 0 0 2.26M243.886 128.04a1.13 1.13 0 1 0 0-2.26 1.13 1.13 0 0 0 0 2.26M240.722 131.053a1.13 1.13 0 1 0 0-2.26 1.13 1.13 0 0 0 0 2.26M237.633 134.217a1.13 1.13 0 1 0 0-2.26 1.13 1.13 0 0 0 0 2.26M243.886 134.217a1.13 1.13 0 1 0 0-2.26 1.13 1.13 0 0 0 0 2.26"/><path fill="#039" d="M219.325 151.544a6.25 6.25 0 0 0 1.658 4.294 5.42 5.42 0 0 0 3.993 1.808c1.582 0 3.013-.753 3.992-1.808a6.25 6.25 0 0 0 1.658-4.294v-8.136h-11.301z"/><path fill="#fff" d="M221.962 147.627a1.13 1.13 0 1 0 0-2.26 1.13 1.13 0 0 0 0 2.26M228.215 147.627a1.13 1.13 0 1 0 0-2.26 1.13 1.13 0 0 0 0 2.26M225.051 150.64a1.13 1.13 0 1 0 0-2.26 1.13 1.13 0 0 0 0 2.26M221.962 153.804a1.13 1.13 0 1 0 0-2.26 1.13 1.13 0 0 0 0 2.26M228.215 153.804a1.13 1.13 0 1 0 0-2.26 1.13 1.13 0 0 0 0 2.26"/><path fill="#039" d="M250.665 151.544a6.25 6.25 0 0 0 1.658 4.294 5.42 5.42 0 0 0 3.992 1.808c1.582 0 3.014-.753 3.993-1.808a6.25 6.25 0 0 0 1.658-4.294v-8.136h-11.301z"/><path fill="#fff" d="M253.302 147.627a1.13 1.13 0 1 0 0-2.26 1.13 1.13 0 0 0 0 2.26M259.555 147.627a1.13 1.13 0 1 0 0-2.26 1.13 1.13 0 0 0 0 2.26M256.391 150.64a1.13 1.13 0 1 0 0-2.26 1.13 1.13 0 0 0 0 2.26M253.302 153.804a1.13 1.13 0 1 0 0-2.26 1.13 1.13 0 0 0 0 2.26M259.555 153.804a1.13 1.13 0 1 0 0-2.26 1.13 1.13 0 0 0 0 2.26"/><path fill="#039" d="M234.996 170.98a6.26 6.26 0 0 0 1.658 4.295 5.433 5.433 0 0 0 3.992 1.808c1.583 0 3.014-.754 3.993-1.808a6.26 6.26 0 0 0 1.658-4.295v-8.136h-11.301z"/><path fill="#fff" d="M237.633 167.063a1.13 1.13 0 1 0 0-2.26 1.13 1.13 0 0 0 0 2.26M243.886 167.063a1.13 1.13 0 1 0 0-2.26 1.13 1.13 0 0 0 0 2.26M240.722 170.076a1.13 1.13 0 1 0 0-2.26 1.13 1.13 0 0 0 0 2.26M237.633 173.24a1.13 1.13 0 1 0 .001-2.259 1.13 1.13 0 0 0-.001 2.259M243.886 173.24a1.13 1.13 0 1 0 .001-2.259 1.13 1.13 0 0 0-.001 2.259"/></g><defs><clipPath id="a"><path fill="#fff" d="M0 0h600v300H0z"/></clipPath></defs></svg>