<svg xmlns="http://www.w3.org/2000/svg" width="600" height="300" fill="none"><g clip-path="url(#a)"><path fill="#20603D" d="M0 0h600v300H0z"/><path fill="#FAD201" d="M0 0h600v225H0z"/><path fill="#00A1DE" d="M0 0h600v150H0z"/><path fill="#E5BE01" d="m548 75.5-39.126 2.287 37.18 12.361-38.348-7.932 32.751 21.51-35.039-17.617 25.988 29.345-29.248-26.036 17.617 35.039-21.559-32.752 7.884 38.3-12.312-37.132L491.5 132l-.486-56.987z"/><path fill="#E5BE01" d="m548 75.5-39.126-2.287 37.18-12.36-38.348 7.931 32.751-21.51-35.039 17.617 25.988-29.345-29.248 26.036 17.617-35.039-21.559 32.752 7.884-38.3-12.312 37.132L491.5 19l-.486 56.987z"/><path fill="#E5BE01" d="m435 75.5 39.126 2.287-37.18 12.361 38.348-7.932-32.751 21.51 35.039-17.617-25.988 29.345 29.248-26.036-17.617 35.039 21.559-32.752-7.884 38.3 12.312-37.132L491.5 132l.486-56.987z"/><path fill="#E5BE01" d="m435 75.5 39.126-2.287-37.18-12.36 38.348 7.931-32.751-21.51 35.039 17.617-25.988-29.345 29.248 26.036-17.617-35.039 21.559 32.752-7.884-38.3 12.312 37.132L491.5 19l.486 56.987z"/><path fill="#E5BE01" stroke="#00A1DE" stroke-width="1.655" d="M491.5 92.192c9.218 0 16.692-7.473 16.692-16.692s-7.474-16.692-16.692-16.692-16.692 7.473-16.692 16.692 7.473 16.692 16.692 16.692Z"/></g><defs><clipPath id="a"><path fill="#fff" d="M0 0h600v300H0z"/></clipPath></defs></svg>