<svg xmlns="http://www.w3.org/2000/svg" width="600" height="300" fill="none"><g clip-path="url(#a)"><mask id="b" width="603" height="301" x="-1" y="0" maskUnits="userSpaceOnUse" style="mask-type:luminance"><path fill="#fff" d="M-.354 0h601.629v300.8H-.355z"/></mask><g mask="url(#b)"><path fill="#000001" fill-rule="evenodd" d="M-.002 0h600.043v149.989H-.002z" clip-rule="evenodd"/><path fill="#007A3D" fill-rule="evenodd" d="M-.002 149.989h600.043v149.989H-.002z" clip-rule="evenodd"/><path fill="#fff" fill-rule="evenodd" d="M-.002 87.479h600.043v125.02H-.002z" clip-rule="evenodd"/><path fill="#C4111B" fill-rule="evenodd" d="m-.002 0 299.978 149.989L-.002 299.978z" clip-rule="evenodd"/><path fill="#fff" d="M472.525 189.997c33.144 0 60.013-17.912 60.013-40.008s-26.869-40.009-60.013-40.009-60.013 17.912-60.013 40.009c0 22.096 26.869 40.008 60.013 40.008"/></g><path fill="#C4111B" d="M407.5 203c28.995 0 52.5-23.505 52.5-52.5S436.495 98 407.5 98 355 121.505 355 150.5s23.505 52.5 52.5 52.5"/><path fill="#fff" d="M423.607 199.464c26.99 0 48.87-21.88 48.87-48.87s-21.88-48.87-48.87-48.87c-26.991 0-48.871 21.88-48.871 48.87s21.88 48.87 48.871 48.87"/><path fill="#C4111B" fill-rule="evenodd" d="m394.049 177.944 18.884-13.433 18.689 13.627-7.008-22.063 18.818-13.562-23.166-.13-7.138-22.063-7.268 21.998-23.167-.13 18.624 13.757-7.203 22.064z" clip-rule="evenodd"/></g><defs><clipPath id="a"><path fill="#fff" d="M0 0h600v300H0z"/></clipPath></defs></svg>