<svg xmlns="http://www.w3.org/2000/svg" width="600" height="300" fill="none"><g clip-path="url(#a)"><path fill="#fff" d="M0 0h600v150H0z"/><path fill="#19B6EF" d="M0 150h600v150H0z"/><path fill="#FD0" fill-rule="evenodd" stroke="#7D6C00" stroke-width="1.74" d="M299.855 227.349c38.132-28.418 79.019-86.413 31.1-117.006-8.917-1.74-18.848-1.233-23.706 2.61-2.537-1.45-4.567-1.305-7.104 1.377-1.812-2.175-3.625-3.19-7.25-2.102a29.58 29.58 0 0 0-22.835-2.175c-41.975 24.938-16.312 84.529 29.795 117.224z" clip-rule="evenodd"/><path fill="#4FD46B" fill-rule="evenodd" stroke="#3A9D4F" stroke-linejoin="round" stroke-width="1.74" d="M370.174 162.757s4.349-5.8 4.494-5.8c4.278-2.465 4.713-5.727 4.713-5.727 4.277-1.305 2.899-4.857 3.262-5.292a4.645 4.645 0 0 0 1.015-5.147c0-.58 1.45-6.09-.58-6.815.072-5.799-3.48-5.292-6.38-1.449-3.045.87-3.697 3.407-2.61 6.162-3.987 0-4.132 5.799-2.972 8.989-5.292-.145-2.392 5.8-2.537 6.09-1.74.869 1.377 9.279 1.667 8.989zm-33.348 49.441 2.61 1.595c.58 2.03 2.465 3.335 3.842 2.972.725 3.118 4.06 2.683 6.525.87 1.957 2.9 4.349 2.9 7.684 1.958 2.9 2.175 6.742 1.232 9.279-1.015 2.683 2.175 4.495.58 5.873-1.813 2.174.58 3.769.218 4.567-1.884 4.132-.363 2.102-4.278-1.305-5.945 2.682-2.32 5.727-7.249 1.45-7.974-1.305-.943-3.843-.725-5.727.145-.508-2.175-3.48-2.683-6.815-.29-1.087-2.393-5.075-1.233-6.887.435-2.392-2.03-5.22-2.03-9.352.29zm0-6.307c.435-2.755-1.45-7.684 1.45-8.119-.507-4.567.218-9.642 5.437-9.207.87-4.277.725-8.264 5.655-8.844 0 0 3.987-13.847 8.119-4.278 1.595 2.828 1.305 7.395-1.957 6.525.652 3.407-.508 6.452-4.277 6.307 1.667 2.465 1.16 5.727-.725 7.249zm23.996-17.326 4.35-.87c4.349-2.9 6.162-4.132 8.336-.87 3.698-.725 7.25-.435 7.105 2.465 4.35.362 4.35 3.117 3.842 5.365.725 3.842-1.015 8.916-3.625 2.754-8.626-5.219-13.484-4.494-27.04-1.45zm2.247-4.277c.145-.145 12.687-3.407 11.382-7.25 3.552-.58 4.277-4.132 4.35-4.132 7.467-2.32 7.032-6.597 7.032-6.597 2.102-2.247 5.799-4.567 5.002-8.554.217-4.567.652-7.395-5.51-4.422-4.567-.435-6.162 2.174-7.467 6.162-2.175-2.538-5.654 1.522-6.089 5.147 0 0-5.582 5.509-5.582 5.654l-4.713 8.7z" clip-rule="evenodd"/><path fill="#4FD46B" fill-rule="evenodd" stroke="#3A9D4F" stroke-linejoin="round" stroke-width="1.74" d="M363.287 174.574c-2.972-2.247-4.639-5.002-4.132-7.684-1.957-2.683-3.335-4.278-1.45-6.67l-1.45-5.437c-3.914-1.45-2.247-4.712-1.232-5.872-1.812-2.537-1.885-5.22-.145-7.54 0-4.712 3.335-2.899 6.017 0 0 0 4.64 3.263 1.232 6.162 3.408 1.233 4.35 4.133 2.465 5.365 2.973 1.305 3.408 3.987 1.813 5.8 2.972 2.319 1.885 5.364 2.754 8.047z" clip-rule="evenodd"/><path fill="#4FD46B" fill-rule="evenodd" stroke="#3A9D4F" stroke-linejoin="round" stroke-width="1.74" d="M368.579 152.534c-.145-.072-5.002-6.307-3.625-6.742-.362-1.884-1.812-3.987-.942-5.872-2.393-2.464-2.465-5.292-.58-7.539-1.595-2.175-.87-5.147 1.305-7.105-.725-3.624 1.884-4.494 4.132-5.147 1.667-5.799 4.349-4.349 5.944.145 2.32 2.03 1.958 5.075 1.16 7.395 2.755 1.812 1.088 4.132-.145 5.074z" clip-rule="evenodd"/><path fill="#4FD46B" fill-rule="evenodd" stroke="#3A9D4F" stroke-linejoin="round" stroke-width="1.74" d="m367.854 121.435-4.132-4.132c1.088-2.175 1.957-6.017-1.16-7.83-1.74-4.132-10.294-9.352-11.671.58-1.305-2.972-4.06-5.944-6.017-2.465-4.495-3.842-6.887-2.682-4.568 2.175 0 0-2.102 3.262 3.335 5.8.435.435-1.74 5.872 4.785 6.017-1.233 1.885.725 4.495 3.335 4.35-1.813 2.247 1.304 4.712 3.262 3.769-.798 2.538-.725 3.77 2.827 4.132l3.987 4.568 3.263 4.422z" clip-rule="evenodd"/><path stroke="#3A9D4F" stroke-linecap="round" stroke-width="1.595" d="M370.391 160.147c.218-.218 7.975-17.979 8.99-23.343m-8.192-8.192s1.305 14.499-2.248 25.083M347.41 114.04s15.877 15.224 17.399 21.531m-6.307-23.198s1.015 12.541 5.437 24.865m22.474 20.589s-15.804 13.411-23.489 25.156m8.555 21.748s-20.879 2.9-30.013 3.117m23.198 5.8s-25.953-.58-27.838-2.465m14.862-31.173c0 .29-13.194 21.966-13.629 28.998"/><path fill="#65C7FF" fill-rule="evenodd" stroke="#7D6C00" stroke-width="1.74" d="M299.782 223.145c-27.403-25.808-55.458-74.234-27.548-98.737 4.93 2.754 10.802.29 18.849-2.9 2.464 2.682 5.582 3.335 8.699 1.305a6.52 6.52 0 0 0 7.757-1.523c7.974 4.567 18.051 6.96 20.443 2.393 27.403 26.098-.435 74.814-28.272 99.535z" clip-rule="evenodd"/><path fill="#8FC753" fill-rule="evenodd" d="M299.855 222.419a154.2 154.2 0 0 1-30.666-41.757c1.45-1.232 2.103-1.594 2.828-3.624 4.204.58 6.452.725 11.961-.29 1.16 4.204 1.378 7.684 3.988 11.164l5.582-10.874a24.36 24.36 0 0 0 11.961 0c2.32 3.044 1.45 7.757 5.582 11.309 2.465-7.25 4.858-7.685 7.322-11.599 3.625 1.305 5.945.725 8.917-.218 1.45 1.813.725 1.74 3.625 4.35a140.4 140.4 0 0 1-31.028 41.539z" clip-rule="evenodd"/><path fill="#fff" fill-rule="evenodd" stroke="#000" stroke-width=".797" d="M267.668 100.556a2.47 2.47 0 0 1-.543 2.009 2.46 2.46 0 0 1-2.926.647 2.5 2.5 0 0 1-.846-.647 2.48 2.48 0 0 1-.542-2.009 2.466 2.466 0 0 1 4.929 0zm-2.537-5.582a2.47 2.47 0 0 1-1.313 2.81 2.465 2.465 0 0 1-3.472-2.81 2.46 2.46 0 0 1 2.429-2.043 2.47 2.47 0 0 1 2.428 2.043zm-2.9-5.147a2.467 2.467 0 0 1-2.429 2.886 2.465 2.465 0 1 1 2.429-2.886Zm-2.03-5.074a2.467 2.467 0 0 1-2.429 2.885 2.467 2.467 0 0 1-2.428-2.886 2.464 2.464 0 0 1 4.857 0Zm.362-5.51a2.458 2.458 0 0 1-1.388 2.656 2.467 2.467 0 0 1-3.469-2.656 2.47 2.47 0 0 1 2.429-2.044 2.46 2.46 0 0 1 2.428 2.044Zm12.76-9.062a2.467 2.467 0 0 1-4.315 2.008 2.48 2.48 0 0 1-.543-2.008 2.464 2.464 0 0 1 4.858 0Z" clip-rule="evenodd"/><path fill="#fff" fill-rule="evenodd" stroke="#000" stroke-width=".797" d="M268.537 71.052a2.467 2.467 0 0 1-2.428 2.886 2.47 2.47 0 0 1-2.38-1.822 2.467 2.467 0 0 1 2.38-3.108 2.47 2.47 0 0 1 2.428 2.044Zm-5.292 3.117a2.467 2.467 0 0 1-2.429 2.886 2.465 2.465 0 1 1 2.429-2.886Zm16.239-3.915a2.47 2.47 0 0 1-1.313 2.81 2.46 2.46 0 0 1-3.021-.698 2.46 2.46 0 0 1-.451-2.112 2.466 2.466 0 0 1 4.785 0Zm6.814.58a2.473 2.473 0 0 1-1.388 2.656 2.467 2.467 0 0 1-3.469-2.656 2.46 2.46 0 0 1 2.429-2.044 2.47 2.47 0 0 1 2.428 2.044Zm5.945-.362a2.47 2.47 0 0 1-1.313 2.809 2.46 2.46 0 0 1-3.021-.697 2.47 2.47 0 0 1-.451-2.112 2.46 2.46 0 0 1 2.429-2.044 2.47 2.47 0 0 1 2.428 2.044z" clip-rule="evenodd"/><path fill="#FD0" fill-rule="evenodd" stroke="#7D6C00" stroke-width=".797" d="M306.307 66.629a6.235 6.235 0 1 1-12.47 0 6.235 6.235 0 0 1 12.47 0Z" clip-rule="evenodd"/><path fill="#fff" fill-rule="evenodd" stroke="#000" stroke-width=".797" d="M312.904 70.399a2.46 2.46 0 0 1-2.465 2.465 2.463 2.463 0 0 1-2.464-2.465 2.464 2.464 0 0 1 4.857 0zm6.235.507a2.47 2.47 0 0 1-1.313 2.81 2.462 2.462 0 0 1-3.49-1.702 2.5 2.5 0 0 1 .018-1.108 2.46 2.46 0 0 1 2.429-2.044 2.47 2.47 0 0 1 2.428 2.044zm6.162-.29a2.46 2.46 0 0 1-1.389 2.656 2.46 2.46 0 0 1-2.08 0 2.47 2.47 0 0 1-1.339-1.592 2.464 2.464 0 1 1 4.808-1.064Zm5.147-.217a2.467 2.467 0 0 1-2.429 2.886 2.465 2.465 0 1 1 2.429-2.886Zm6.452.725a2.467 2.467 0 0 1-2.429 2.886 2.467 2.467 0 0 1-2.428-2.886 2.464 2.464 0 0 1 4.857 0Zm5.075 3.19a2.474 2.474 0 0 1-1.389 2.656 2.465 2.465 0 1 1 1.389-2.657Z" clip-rule="evenodd"/><path fill="#E40000" fill-rule="evenodd" stroke="#AC0000" stroke-width="1.74" d="m265.348 91.422 6.234 11.961h57.416l6.669-11.526c-3.914-2.683-6.524-4.712-12.106-3.48-3.117-4.495-6.525-5.292-11.599-4.857-1.523-1.522-2.9-2.465-5.51-2.9l-12.034.363c-3.19.29-5.655 2.754-5.8 2.754-5.074-.652-9.786-.507-11.019 4.495-4.712-1.16-7.974.145-12.251 3.19Z" clip-rule="evenodd"/><path fill="#fff" fill-rule="evenodd" stroke="#000" stroke-width=".797" d="M344.077 79.533a2.467 2.467 0 0 1-3.469 2.656 2.46 2.46 0 0 1-1.339-1.592 2.5 2.5 0 0 1-.05-1.064 2.47 2.47 0 0 1 2.429-2.044 2.46 2.46 0 0 1 2.429 2.044Zm.435 5.8a2.467 2.467 0 0 1-4.315 2.008 2.48 2.48 0 0 1-.543-2.008 2.463 2.463 0 0 1 4.858 0Zm-1.813 5.22a2.473 2.473 0 0 1-1.388 2.656 2.467 2.467 0 0 1-3.469-2.657 2.46 2.46 0 0 1 2.429-2.044 2.47 2.47 0 0 1 2.428 2.044Zm-2.175 4.349a2.46 2.46 0 0 1-2.464 2.465 2.464 2.464 0 0 1-2.465-2.465 2.465 2.465 0 0 1 4.857 0zm-2.682 5.437a2.466 2.466 0 0 1-3.469 2.656 2.47 2.47 0 0 1-1.388-2.656 2.465 2.465 0 0 1 4.857 0Zm-33.927-6.96a3.624 3.624 0 1 1-7.249 0 3.624 3.624 0 0 1 7.249 0Z" clip-rule="evenodd"/><path fill="#fff" fill-rule="evenodd" stroke="#000" stroke-width=".797" d="M304.64 85.115a4.349 4.349 0 0 1-7.426 3.076 4.353 4.353 0 0 1 0-6.152 4.352 4.352 0 0 1 7.426 3.076Z" clip-rule="evenodd"/><path fill="#fff" fill-rule="evenodd" stroke="#000" stroke-width=".797" d="M303.987 77.14a3.916 3.916 0 0 1-7.83 0 3.916 3.916 0 0 1 7.83 0Z" clip-rule="evenodd"/><path fill="#FD0" fill-rule="evenodd" stroke="#7D6C00" stroke-width=".797" d="M298.767 60.467v-3.045l-2.61-.072.145-2.32h2.175V53h3.262v1.812h2.538l-.073 2.465h-2.61v3.262h-2.899z" clip-rule="evenodd"/><path stroke="#FD0" stroke-width="2.392" d="M271.293 103.384c-5.148-8.7-12.76-20.589-7.975-25.736 6.452-7.322 21.676-.725 31.39-4.93.725 8.265-1.595 22.04 2.103 24.866l-3.48 3.045c-2.175-2.682-6.09-6.38-11.019.145-2.9-2.465-6.017-2.03-7.54 1.233-1.45.217-1.377.797-3.479 1.377Zm57.995-.363c5.22-8.699 12.759-20.516 8.047-25.663-6.524-7.322-21.748-.725-31.39-5.002-.725 8.337 1.595 22.111-2.175 24.938l3.48 3.045c3.407-4.712 7.539-4.857 11.092.145 2.827-2.465 5.727-2.175 7.539 1.233 1.45.217 1.305.724 3.48 1.304z"/><path fill="#FD0" fill-rule="evenodd" stroke="#7D6C00" stroke-width="1.74" d="M271.075 109.836a317 317 0 0 1 57.488 0l2.247-6.525c-20.081-3.625-33.927-4.06-60.17-.435z" clip-rule="evenodd"/><path fill="#C76E2E" fill-rule="evenodd" d="m297.752 220.245.435-3.044c2.102.58 3.624.362 5.364-.29l1.74-2.683-1.305-1.522c-1.16.217-2.175 1.305-2.9 2.247-1.16.073-2.174-.507-3.334-.725l-1.088-4.639c-1.087-1.305-3.407-1.233-2.9 1.087l.218 1.812c.435 1.088.652 2.61 1.377 3.408v1.885zm.87-13.266c-1.45.725-3.335-.58-5.293-1.378-1.812-.072-3.189 1.45-5.364.943.435-1.16 1.377-1.377 2.03-2.03-.508-2.972 1.087-3.987 1.522-3.987s2.247.435 2.247.435l1.74.217c1.088 1.958 2.538 3.625 3.118 5.8" clip-rule="evenodd"/><path fill="#FFE100" fill-rule="evenodd" stroke="#E9BF00" stroke-width="1.74" d="M288.111 246.778c5.075-8.264 40.742-24.938 74.235-61.04-34.073 32.84-55.386 40.887-83.224 60.895l8.989.218z" clip-rule="evenodd"/><path fill="#9D4916" fill-rule="evenodd" stroke="#68300E" stroke-width=".797" d="M337.117 208.501a2.61 2.61 0 1 1-5.22 0 2.61 2.61 0 0 1 5.22 0Zm24.938-25.301a2.933 2.933 0 0 1-2.936 2.936 2.936 2.936 0 0 1-2.936-2.936c0-.769.306-1.507.85-2.05a2.897 2.897 0 0 1 4.1 0c.544.543.85 1.281.85 2.05zm8.265-21.458a2.613 2.613 0 0 1-2.574 3.043 2.6 2.6 0 0 1-1.993-.925 2.6 2.6 0 0 1-.58-2.118 2.61 2.61 0 0 1 5.147 0Zm-8.12-27.838a2.61 2.61 0 0 1-.581 2.118 2.61 2.61 0 0 1-1.992.925 2.613 2.613 0 0 1-1.686-4.603 2.616 2.616 0 0 1 3.371 0c.471.399.786.951.888 1.56Z" clip-rule="evenodd"/><path fill="#fff" fill-rule="evenodd" stroke="#A9A9A9" stroke-width=".797" d="M272.379 176.893v-11.02l-1.087-.869v-2.61l2.03-.218.362-12.324-1.305-.725-.145-2.03s1.45.58 1.45.218l.363-2.465s-.943-.145-.943-.507c0-.363 1.16-1.305 1.16-1.305s-.58-.58-.725-.943l-.58-2.03.58-2.102-.362-1.087-.943-1.668 1.305-1.305-.362-2.03a7.3 7.3 0 0 1 1.087-2.102c.218-.145 1.668-2.175 1.668-2.175l3.189-.725 3.698.508 2.029 1.305.363 3.334s-.363 2.03-.507 2.03l-1.668.725s-1.885.218-2.102 0c-.218-.217.58 2.32.58 2.32v2.175l-.145 2.827s0 1.305-.218 1.45c-.217.145-.58.725-.58.725l-.145 2.9 2.9.725-.145 1.667-2.03.145.363 11.382 2.972.507v3.19l-1.305.725-.362 11.382zm45.237.217v-11.019l-1.087-.942v-2.61l2.03-.145.362-12.324-1.305-.725-.145-2.03s1.45.507 1.45.145l.362-2.393s-.942-.217-.942-.579c0-.363 1.16-1.305 1.16-1.305s-.58-.508-.725-.943l-.58-2.03.58-2.029-.435-1.088-.87-1.667 1.305-1.305-.435-2.103a7.2 7.2 0 0 1 1.16-2.029l1.667-2.175 3.19-.798 3.697.58 2.03 1.305.363 3.335s-.363 2.03-.508 2.03l-1.667.725s-1.885.217-2.103 0c-.217-.218.58 2.247.58 2.247v2.247l-.217 2.828s0 1.232-.145 1.45l-.58.725-.145 2.827 2.9.725-.145 1.667-2.03.218.362 11.309 2.973.58v3.19l-1.305.724-.363 11.382zm-22.908.363v-11.02l-1.088-.87v-2.682l2.03-.145.363-12.324-1.305-.725-.145-2.03s1.45.58 1.45.218l.362-2.465s-.87-.145-.87-.507c0-.363 1.088-1.378 1.088-1.378s-.58-.507-.725-.87l-.58-2.102.58-2.03-.363-1.087-.942-1.668 1.305-1.305-.363-2.102a6.5 6.5 0 0 1 1.088-2.03c.217-.145 1.667-2.175 1.667-2.175l3.19-.725 3.697.508 2.03 1.305.435 3.334s-.435 2.03-.58 2.03l-1.668.725s-1.884.218-2.029 0c-.145-.217.507 2.248.507 2.248v2.247l-.145 2.827s0 1.305-.217 1.45l-.58.725-.145 2.827 2.899.725-.145 1.668-2.029.217.362 11.382 2.972.507v3.19l-1.305.725-.362 11.382h-10.439Z" clip-rule="evenodd"/><path fill="#000" fill-rule="evenodd" d="M275.207 176.821v-8.7h4.785v9.062zm22.763.725.218-8.845h4.35v8.627l-4.568.145zm22.474-.218-.29-8.337 4.712-.145v8.7l-4.35-.218zm-44.077-26.098h2.755v4.422h-2.755zm21.966.145h3.842v4.35h-3.842zm22.473.362h3.335v4.133h-3.262z" clip-rule="evenodd"/><path stroke="#A8A8A8" stroke-width=".797" d="M277.816 131.511c2.9 3.335 3.118 3.335 3.118 3.335m18.993-3.335c.58 1.088 1.45 3.48 2.61 3.698m21.241-3.19s.942 2.61 2.175 2.972"/><path fill="#B97700" fill-rule="evenodd" d="M274.627 122.088c8.7-2.828-2.03-8.41-3.842 0-2.755.507-3.117 2.537-9.207 1.667-14.789 23.923-3.842 62.708 39.22 102.798-77.135-65.681-45.817-114.252-24.431-112.367 11.599.725 5.8 15.224-1.74 7.974z" clip-rule="evenodd"/><path stroke="#7D6C00" stroke-width="1.74" d="M277.091 109.763s7.032 1.958 7.032 4.93m0-5.437s4.929 2.175 6.017 4.06m32.695-3.263s-6.235.87-7.612 2.755m-1.885-2.175s-3.625 2.973-3.262 3.842m2.465 9.207c-.58-.217-3.045-3.552-2.465-7.612m-21.604 5.437s1.668-1.884 1.668-5.437m9.787-1.377.29 7.974m6.814-1.16c0-.507 2.175-5.727-.29-8.191m-14.716-1.088s-1.885 5.22-.508 9.569m14.499-4.929s-3.045.87-4.349 2.175m-8.555-1.378c0-.217 3.335-.725 4.35 1.16"/><path fill="#C76E2E" fill-rule="evenodd" d="M287.965 200.309c.145 0 2.755-.508 2.755-1.74 1.305-.87.363-3.262.363-3.262l-2.465-.435-3.335-3.77c-.145-1.16.218-2.247-.507-3.48-2.32.58-3.625 2.538-4.35 4.712.507.725.58 1.45 1.667 2.103 1.088.145 1.813-.508 2.828-.29.507.942.362 1.74.58 2.61 1.377.942 1.667 2.319 2.464 3.552m-2.972-16.094v-4.495l-3.19-.145c-.435.725-1.16 1.015-1.594 1.595l-2.248 1.16c.943 1.088 2.103 1.74 2.755 2.32 1.667.435 2.972.435 4.277-.435m-10.004 6.597-1.74-2.9a5.22 5.22 0 0 1 3.407.218s.725 1.812.218 2.465c-.29.652-1.958.362-1.885.217m26.46 2.972a3.33 3.33 0 0 0 1.958-2.392l-3.262-3.697-2.9-.073c-.725-.725-1.74-.87-2.61-.87 0 0 .87 1.45 2.03 1.668.87 1.885 4.494 5.364 4.784 5.364m3.118.435c0-.072 2.9-1.015 4.349-.942-.072-1.16 2.175-3.842 2.175-3.842l4.06 5.292c-.725.58-2.03.435-3.045.58 0 0-1.957 1.885-2.175 1.957s-3.769.943-5.509-.145c-.725-1.45.217-3.117.145-2.9m2.32-9.279a10.15 10.15 0 0 0 0-5.51h-4.64l-3.045 1.45s.943 3.045 2.175 2.755c.507 1.522 2.102 1.16 2.9 1.74zm18.051-4.64c-.725 1.958-1.015 3.988-.145 5.8.87.217 1.885.725 2.61.58l3.697-6.67c-2.538-.797-4.64-.725-6.235.29z" clip-rule="evenodd"/><path fill="#B97700" fill-rule="evenodd" d="M326.026 121.507c-8.699-2.827 2.03-8.482 3.842 0 2.828.435 3.19 2.537 9.28 1.667 14.716 23.924 3.769 62.708-39.293 102.798 77.207-65.68 45.817-114.252 24.431-112.44-11.599.725-5.799 15.224 1.74 7.975" clip-rule="evenodd"/><path fill="#C76E2E" fill-rule="evenodd" d="M326.895 187.84c-.145 0-2.175 1.45-2.175 1.45l-3.045 1.232-3.189.073-.725-2.175 2.464-2.175c-2.029-.362-4.132.507-5.799 2.03 0 0 0 2.392 1.45 3.625.797 1.014 3.262 2.899 3.262 2.899a5.07 5.07 0 0 0 3.915-.725zm-16.819 21.821c1.015.29 8.192-9.207 8.192-9.207a7.25 7.25 0 0 0-3.552-3.915s-3.48 4.132-3.552 5.51c-.58 1.232-2.175 6.017-1.45 6.669-.073.145-.363 2.103.362.943" clip-rule="evenodd"/><path fill="#006800" fill-rule="evenodd" stroke="#004100" stroke-linejoin="round" stroke-width="1.74" d="M263.173 211.546c-10.729-9.352-25.228-14.499-45.454-7.467 5.437 2.32 11.309 3.117 16.311 5.727z" clip-rule="evenodd"/><path stroke="#00A400" stroke-linecap="round" stroke-width="1.595" d="M232 204.948c21.241.435 27.403 5.728 26.316 4.858"/><path fill="#006800" fill-rule="evenodd" stroke="#004100" stroke-linejoin="round" stroke-width="1.595" d="M263.608 212.706c-6.38 1.16-15.079 7.249-17.689 7.032-6.887-.798-13.411-3.625-20.081-5.8-2.755-.87-5.582 0-8.409 0 23.778-11.237 31.897-9.714 46.179-1.305z" clip-rule="evenodd"/><path fill="#006800" fill-rule="evenodd" stroke="#004100" stroke-linejoin="round" stroke-width="1.74" d="M247.949 196.032s-7.975 1.16-11.527 1.378c-3.48-.218-8.699-3.48-14.354-9.425-2.9-3.334-9.714-2.899-9.714-2.899 14.934-3.19 26.605-.145 35.522 11.019zm-10.874-15.369c-10.802-.725-24.286-10.366-27.331-21.893 0 .145 3.987 2.537 3.335 3.117 17.689 4.495 18.849 8.12 23.996 18.776Zm18.123 18.487c1.523-9.787 1.958-16.239-2.61-22.039-3.842-4.35-4.784-7.032-7.539-13.266-.797 12.904-3.625 23.56 10.149 35.305Zm-16.963-27.041c7.974-11.672 9.424-20.516 8.119-34.435-.218 1.087-2.9 7.974-3.045 7.974-11.961 7.467-6.669 19.212-5.074 26.461Z" clip-rule="evenodd"/><path fill="#006800" fill-rule="evenodd" stroke="#004100" stroke-linejoin="round" stroke-width="1.74" d="M231.13 115.563c7.975 11.672 6.815 22.691 5.51 36.61-.218-1.088-2.9-7.975-3.045-7.975-11.961-7.467-3.987-21.386-2.465-28.635Z" clip-rule="evenodd"/><path fill="#006800" fill-rule="evenodd" stroke="#004100" stroke-linejoin="round" stroke-width="1.74" d="M237.727 133.686c19.428-9.859 11.961-22.256 15.513-31.897-13.484 10.076-15.223 20.733-15.441 31.897z" clip-rule="evenodd"/><path stroke="#00A400" stroke-linecap="round" stroke-width="1.595" d="M240.41 131.221c2.465-6.887 7.249-18.558 7.757-18.558m-13.557 32.912c-.435-4.857-2.899-17.906-3.117-19.211"/><path fill="#006800" fill-rule="evenodd" stroke="#004100" stroke-linejoin="round" stroke-width="1.74" d="M235.552 167.397c-10.875-.725-22.474-15.441-25.591-26.896 0 .145 3.987 2.465 3.335 3.045 15.514 6.96 17.108 13.194 22.256 23.851Zm-3.19-10.149c-7.975-11.672-9.425-20.516-8.192-34.435.217 1.087 2.9 7.974 3.117 7.974 11.889 7.467 6.597 19.211 5.075 26.461Zm7.177-20.516c20.081-8.917 13.919-18.269 19.863-28.056-13.484 10.005-19.646 16.964-19.863 28.056Z" clip-rule="evenodd"/><path stroke="#00A400" stroke-linecap="round" stroke-width="1.595" d="M240.409 134.701a51.2 51.2 0 0 0 11.019-15.006"/><path fill="#FFE100" fill-rule="evenodd" stroke="#E9BF00" stroke-width="1.74" d="m311.888 247.069 9.714.145c-32.405-30.448-94.605-43.642-85.978-99.608-8.917 60.678 50.818 66.333 76.264 99.463Z" clip-rule="evenodd"/><path fill="#9D4916" fill-rule="evenodd" stroke="#68300E" stroke-width=".797" d="M240.698 135.645a3.117 3.117 0 1 1-6.234 0 3.117 3.117 0 0 1 6.234 0Zm-1.885 17.108a2.936 2.936 0 1 1-5.872 0 2.899 2.899 0 0 1 5.8 0zm2.755 24.431a2.61 2.61 0 0 1-.764 1.845 2.611 2.611 0 0 1-4.257-.846 2.61 2.61 0 0 1 .566-2.844 2.607 2.607 0 0 1 3.691 0 2.6 2.6 0 0 1 .764 1.845Zm22.691 26.968a2.61 2.61 0 1 1-5.22 0 2.61 2.61 0 0 1 5.22 0Zm3.262 7.757a2.61 2.61 0 1 1-5.22 0 2.61 2.61 0 0 1 5.22 0Z" clip-rule="evenodd"/><path fill="#fff" fill-rule="evenodd" stroke="#000" stroke-width=".797" d="M278.977 234.454a11.25 11.25 0 0 1-3.48-4.205l-10.149-1.087-.145 5.799z" clip-rule="evenodd"/><path fill="#fff" fill-rule="evenodd" stroke="#000" stroke-linejoin="round" stroke-width=".797" d="M204.379 227.64c5.945 1.087 14.862-.58 17.762 3.262 3.479 3.915-10.947 10.077-8.917 13.484 4.494 4.712 9.062 2.755 14.064.145 1.232-2.538 2.175-7.105 2.755-8.482-1.813-4.132-6.742-6.235-5.438-12.542 8.192-3.044 24.069-2.827 25.809-1.595 1.304 2.61.072 3.77.362 5.873-1.377 2.682-4.857 7.104-4.857 9.496 8.699 3.045 10.874-.435 18.704-.29 9.134.145 14.643 2.61 16.673-1.015-1.45-3.189-9.786-.58-12.904-2.609-1.595-.508-2.61-1.813-3.987-3.19s-5.22-1.45-5.8-5.002c1.595-7.395 12.325-6.235 13.992-7.395l27.838 1.958c5.075-.145 7.974 8.916 1.087 11.599-6.814 2.755-26.895-3.987-35.667.652-.435-1.885-6.742-4.784-7.177-4.857-2.682.725-7.902.508-7.902.508-1.232 2.319-2.755 4.059-3.987 6.452-5.8-2.538-11.237 1.957-17.544.652l-9.859 1.087-6.235-.58-9.569 2.755 6.815-6.017z" clip-rule="evenodd"/><path fill="#fff" fill-rule="evenodd" stroke="#000" stroke-width=".797" d="M203.945 226.48a2.61 2.61 0 1 1-5.221 0 2.61 2.61 0 0 1 5.221 0Zm-.725 13.049a2.61 2.61 0 0 1-5.22 0 2.646 2.646 0 0 1 5.292 0zM321.097 234.526c1.667-1.522 2.754-2.537 3.407-4.204l10.149-1.16.218 5.799z" clip-rule="evenodd"/><path fill="#fff" fill-rule="evenodd" stroke="#000" stroke-linejoin="round" stroke-width=".797" d="M395.621 227.639c-5.872 1.088-14.789-.507-17.689 3.263-3.552 3.987 10.874 10.149 8.845 13.484-4.495 4.784-9.062 2.827-14.064.217-1.16-2.537-2.103-7.104-2.755-8.482 1.885-4.205 6.742-6.234 5.509-12.541-8.264-3.118-24.14-2.9-25.808-1.668-1.377 2.683-.145 3.842-.435 5.945 1.45 2.61 4.93 7.104 4.93 9.424-8.699 3.117-10.947-.435-18.704-.217-9.134.145-14.716 2.537-16.673-1.088 1.377-3.117 9.714-.58 12.904-2.537 1.594-.58 2.609-1.812 3.987-3.262 1.377-1.45 5.219-1.45 5.799-4.93-1.595-7.394-12.324-6.307-14.064-7.394l-27.838 1.884c-5.074-.145-7.901 8.917-1.087 11.672 6.815 2.755 26.968-4.06 35.667.58.508-1.885 6.742-4.712 7.25-4.857 2.61.797 7.829.507 7.829.507 1.305 2.393 2.755 4.133 4.06 6.525 5.8-2.61 11.237 1.957 17.544.58l9.786 1.087 6.308-.507 9.569 2.682-6.815-5.945 5.945-4.349z" clip-rule="evenodd"/><path fill="#fff" fill-rule="evenodd" stroke="#000" stroke-width=".797" d="M396.056 226.479a2.64 2.64 0 0 0 2.646 2.646 2.65 2.65 0 0 0 2.646-2.646 2.646 2.646 0 0 0-5.292 0Zm.725 13.049a2.61 2.61 0 1 0 5.218 0 2.61 2.61 0 0 0-5.218 0Z" clip-rule="evenodd"/><path fill="#fff" fill-rule="evenodd" d="M299.855 220.173c-2.32-.435-3.19-.29-4.785-.435l-3.697 11.454c5.8.507 11.092.507 11.092.507-3.48-.725-2.683-11.454-2.61-11.526" clip-rule="evenodd"/><path fill="#000" d="M275.496 228.075v-7.757h1.305v6.524h3.625v1.233zM281.514 228.437v-7.757h1.377v7.757zM287.53 229.017h-2.392v-7.612l2.32-.145q1.232 0 1.812.508.725.58.725 1.522 0 .87-.943 1.45 1.45.507 1.45 2.102 0 1.088-.87 1.668-.725.58-2.029.58zm-.942-6.597v1.813h.725q1.232 0 1.232-1.015 0-.798-1.232-.798zm0 2.9v2.537h.725q.869 0 1.232-.29.507-.218.507-.942 0-.725-.362-.943-.363-.362-1.377-.362zM293.765 222.855v1.958h2.465v1.232h-2.465v2.247h3.625v1.233h-5.002v-7.757h4.857V223zM303.624 229.67l-2.03-3.263h-1.015v3.263h-1.305v-7.757h.87l1.16-.145q3.045 0 3.045 2.32 0 .725-.362 1.232-.508.58-1.088.798l2.392 3.552zm-3.045-6.525v2.03h.653l1.16-.145q.507-.218.507-.942 0-.58-.362-.87-.508-.218-1.45-.218h-.508zM309.206 222.855v6.525h-1.45v-6.525h-2.465v-1.159h6.452v1.159zM317.036 228.292l-.58-1.522h-2.682l-.507 1.522h-1.523l3.117-7.829h.58l3.19 7.829zm-1.957-5.437-.798 2.9h1.813zM319.718 227.712l.435-1.232q.87.507 1.595.507 1.232 0 1.232-.87l-.29-.725-1.16-.797-1.232-.725-.508-.725-.072-.87q0-.942.58-1.595.725-.435 1.667-.435 1.377 0 2.102.435l-.507 1.233q-.725-.58-1.595-.58-.435 0-.725.217-.217.218-.217.725 0 .58 1.45 1.305.87.362 1.232.725l.435.725.145 1.015q0 .942-.725 1.522t-1.957.653q-1.16 0-1.885-.653z"/><path stroke="#00A400" stroke-linecap="round" stroke-width="1.595" d="M237.728 212.416c7.322.87 17.471.217 21.893 0m-32.985-24.939c6.235 4.858 19.646 7.757 19.429 7.757m7.757 1.305c-2.03-10.149-4.205-12.614-6.017-18.993m-31.535-11.454c10.366 4.639 11.961 7.684 18.558 12.324m3.77-10.15c.87-12.541 2.61-15.876 5.727-18.776m-28.055-1.45c3.769 4.133 16.093 17.182 16.093 17.182m-5.074-28.708c4.639 3.262 4.639 15.224 4.639 15.224"/></g><defs><clipPath id="a"><path fill="#fff" d="M0 0h600v300H0z"/></clipPath></defs></svg>