<svg xmlns="http://www.w3.org/2000/svg" width="600" height="300" fill="none"><g clip-path="url(#a)"><path fill="#006C35" d="M0 0h600v300H0z"/><path fill="#fff" d="M386.562 245.707h-8.222c-.914 1.199-2.342 2.626-3.141 2.626-.971 0-3.597-2.683-3.597-3.654 0-.742 1.256-2.17 2.398-3.083v-2.227H224.972c-19.642 0-29.406-.171-35.972-6.738h185v-2.227c-1.085-.856-2.398-2.341-2.398-3.083 0-.971 2.626-3.654 3.597-3.654s3.597 2.683 3.597 3.654c0 .742-1.313 2.227-2.398 3.083v2.227h25.124c6.737 0 9.478.571 9.478 6.738 0 6.566-1.77 7.765-4.568 7.765-.971 0-2.569-.057-3.768-1.427H392.9c-.258.419-.697.777-1.262 1.029a4.7 4.7 0 0 1-1.907.387c-.68 0-1.344-.135-1.908-.387s-1.003-.61-1.261-1.029m6.338-2.056h8.622c-.457-1.256-.457-2.569 0-4.282h-25.124v2.227c.628.457 1.485 1.427 1.942 2.055h8.222c.258-.419.697-.777 1.261-1.029a4.7 4.7 0 0 1 1.908-.387c.679 0 1.343.135 1.907.387s1.004.61 1.262 1.029M407.117 140.988c.571.685.914 1.313-.057 2.455-.913.799-1.541 1.256-2.512 2.055-.4.686-.685 1.771.628 2.113 2.512.685 7.137-2.284 7.137-2.341.971-.685.628-1.941.571-1.941-.571-.571-1.77-.229-2.569-.343-.4 0-.628-.742-.057-1.827.514-.685.742-1.085 1.085-1.884.342-.8 0-1.371-1.371-1.827-1.427-.229-1.998-.115-3.54 0-.856.171-1.142.571-1.313 1.541.057 1.485 1.028 1.371 1.998 1.999m-10.848-35.287c-.8 1.085-1.371 1.941.171 2.797 1.599.8 3.997 3.027 2.969 5.539-.571 1.941 0 3.483 1.77.685 1.827-2.912.4-6.395-1.37-8.622-1.542-1.941-2.57-1.541-3.54-.399m48.077-39.855c2.169 1.884 3.369 1.313 1.998-1.885-1.599-3.197-3.14-6.566-4.568-9.592-1.541-3.198-1.941-2.455-3.711-.172-1.999 2.227-2.17 3.94-1.428 5.254 3.769 29.862 5.539 45.45 5.939 54.472.799 13.133-2.57 20.498-15.988 28.949-4.34 2.798-9.25 5.995 1.199 3.54 9.764-2.341 20.213-8.508 20.213-32.089 0-17.758-4.111-36.772-3.654-48.477m-15.988-6.053c-1.199 1.885-.971 2.284.4 4.34 1.37 2.284 2.569 6.395 2.569 9.592s1.199 2.798 1.77-.171c.628-2.855.4-8.45-1.37-12.39-1.77-4.169-2.398-2.684-3.369-1.37m11.477 62.181c-.4-2.627-1.199-5.253-4.739-10.278-3.54-4.91-6.738-9.421-9.878-13.76-.971-11.25-2.399-23.297-2.399-29.635 1.599 1.484 2.798 0 1.999-2.455s-2.398-9.022-3.54-11.82c-1.028-2.683-2.17-2.112-3.769.343-1.37 2.455-2.341 3.597-1.37 5.424.4 10.906 1.941 21.47 3.768 31.005-3.197-4.111-6.166-8.051-8.907-11.648-.171-4.111-.571-8.223-.799-12.39 1.77 1.313 2.569.97 1.598-1.485-.799-2.627-2.969-8.108-3.939-10.507-1.028-2.455-1.599-2.455-2.97-.57-2.169 3.197-2.797 5.424-.97 8.45.171 2.627.571 5.425.742 7.88-1.77-2.227-3.312-4.511-4.739-6.567 1.77.914 3.197-.57 1.199-2.283-1.77-1.656-5.539-4.511-7.08-6.567-1.77-2.055-3.369-2.055-3.369-.171s.171 3.54 0 5.253c-.4 1.485-.4 3.026 1.941 5.653 4.568 5.253 8.908 10.677 13.076 15.759 1.541 18.785 2.569 30.833 2.17 38.313-.229 4.511-1.77 7.138-4.34 7.88-2.569.971-5.139-.742-7.537-4.111-4.339-5.996-5.881-4.854-9.25.399-3.198 4.854-5.367 9.022-7.137 12.562-1.542 3.369-4.34 6.395-6.909 1.884-2.341-4.51-2.741-9.592-2.57-13.132 0-3.598-.571-6.395-1.941-.743-3.54 13.875-1.37 16.902 2.569 19.871 4.911 4.168 6.51 4.511 9.079.97 5.139-6.794 6.509-12.79 9.478-16.158 2.342-2.627 2.342-.571 3.541.742 2.969 3.54 5.538 4.853 9.649 5.424 4.168.742 11.648-2.626 11.077-15.759-.399-7.88-.97-18.614-1.77-30.034 3.94 5.253 7.48 9.935 10.278 13.704 1.371 7.48 2.17 14.274 1.77 19.699-.399 6.224.971 6.224 2.341-.172.4-2.626.4-8.108-.171-14.674 5.31 6.795 8.451 11.306 10.62 14.503 2.398 3.94 3.769 7.309 3.198-.799m-54.13-14.789c0-1.313.628-1.713 2.969-3.597 1.999-1.485 7.537-5.253 9.307-6.966 1.771-1.656 3.141-3.198 3.541-1.085.171 2.056.571 2.798-1.599 3.94-2.17.913-7.88 4.282-9.65 5.596-1.998 1.541-4.568 3.425-4.568 2.112m.628-23.125c-.399 1.713-2.798 1.713-2.569-.171.171-1.884 0-1.542 0-3.026-.229-1.485 1.77-2.456 2.741-1.142 1.199 1.313 3.197 5.481 3.768 6.966.8 1.484 1.199 1.142 1.199-.914-.228-2.455-.628-4.739-.399-6.395.171-.97.799-2.113 1.941-3.026 1.427-.914 2.17-1.142 2.798.57.399 1.485 1.541 1.657.97 3.027-.799 1.827-2.569-1.884-3.768.742-.571 1.885 0 7.138-.171 9.022 0 1.656-.8 4.111-2.17 1.313-.971-1.884-2.398-5.082-4.34-6.966m-13.646-15.245c2.798 1.313 5.767 2.112 3.597-1.085-2.227-3.026-3.997-8.108-5.139-11.877-1.427-3.711-1.77-3.54-3.997-.342-3.312 4.853-.342 9.592.4 15.188 2.798 20.099 5.538 40.597 6.338 46.022.799 6.052 1.77 9.992.171 16.558-.571 2.056.228 2.627 1.599.172 5.538-9.936 1.77-18.615 1.199-24.21-.971-8.679-4.168-31.576-4.739-40.769m-13.019-.57c1.542 1.313 3.369 1.313 2.341-1.485-.97-2.855-1.77-6.224-2.74-9.422-.971-3.197-1.599-3.94-2.798-2.455-1.371 1.713-2.341 2.284-3.312 3.426-1.028.914-1.199 2.97 0 4.853 4.339 28.379 4.511 40.94 5.139 51.504.571 10.506 2.17 15.359-4.739 22.496-7.537 7.709-12.048 9.593-15.417 10.335-3.769 1.028-5.31 2.513-1.256 2.513 13.247 0 14.56-3.54 19.984-9.25 4.397-4.625 6.51-10.506 6.167-24.439-.4-24.438-3.997-34.944-3.369-48.077m-49.562 71.772c1.999-1.142 2.97-2.055 4.511-2.626 1.599-.8 2.798-.571 1.599 2.626-1.199 3.712-.571 4.854 1.999 3.94 2.341-.742 3.711-1.713 5.709-2.455 1.77-.742 3.769-.742.971 1.313-2.17 1.713-5.31 3.94-7.08 4.34-3.94.913-5.938-.571-5.139-3.597.799-2.798 1.37-3.94-.971-2.97-2.798 1.085-2.569 0-1.599-.571m31.805-63.893c.742 2.284 1.77 3.369 2.341.57.399-2.454 1.199-3.197 1.598-.57.571 2.626 2.17 2.284 2.57-.171.571-2.456 1.37-3.769 1.77-1.142.4 2.797.171 3.768-.229 4.682-.171.8-1.77 1.713-2.969.57-1.37-1.141-1.77-1.141-2.74-.17-2.17 1.884-2.97.57-3.369-2.056-.172-2.284.628-3.198 1.028-1.713m13.189 47.335c-1.77-8.451-9.878-21.983-21.926-39.627-.342-4.682-.571-9.021-.571-12.961 1.77 1.884 2.97.742 2.399-1.713-1.2-4.283-2.97-7.88-5.139-12.733-.8-2.056-2.969-2.627-3.94.342-1.428 3.598-1.599 4.34.171 6.795-.171 2.627.8 7.137 1.199 11.249-2.17-3.027-4.967-6.738-7.137-9.936 3.369 1.314 5.367.343 2.398-2.626-2.969-3.198-7.137-6.395-9.707-8.68-2.569-2.226-3.711-.741-3.311 1.314.171 2.113.399 3.597.171 5.253-.171 1.713.399 2.855 2.969 3.769 5.139 6.395 10.278 12.961 15.017 19.756.571 5.596 1.77 11.82 2.341 16.901 1.599 11.991 3.94 27.579 1.998 34.374-1.598 5.081 0 7.308 2.57-.4 2.341-7.708 2.113-15.017.571-26.494-.628-4.454-.8-10.106-1.371-15.36 8.28 12.163 15.76 23.811 19.129 31.919 1.77 4.339 3.368 5.253 2.169-1.142M339.741 54.54c-.8 1.542-1.371 2.627.171 3.769 1.599 1.142 3.997 4.168 2.969 7.537-.571 2.626 0 4.682 1.77.913 1.77-3.94.4-8.622-1.37-11.648-1.599-2.626-2.57-2.055-3.54-.57m-58.412 40.997c-.4 2.627.171 4.282 1.142 5.596 1.027 1.313 2.969 1.142 3.597-.343.571-1.713.971-1.884 2.17-.571 1.37 1.313 5.881.171 3.711-6.395-.971-2.626-1.37-2.055-1.37.914 0 4.739-1.599 4.739-3.369.228-.571-1.713-1.37-1.713-1.542.571 0 4.282-1.998 4.853-3.197.514-.4-1.827-.743-3.369-1.142-.514m27.236 6.738c4.111-.914 1.77-1.314-1.028-3.026-2.912-1.656-4.111-1.656-3.94.228.229 1.085.229 2.227.628 3.711 1.371-.342 2.741-.514 4.34-.913m-8.108-9.193c3.14-4.34 8.279-3.026 14.217.913s3.541 10.164-2.169 13.361c-1.371.743-3.141 1.485-5.368 2.227.628 1.314-.171 1.713-1.941.571-5.139 1.713-11.877 4.169-16.559 6.567 5.71.399 29.406 0 34.145-.571 4.74-.343 3.94.399 2.57 4.339-1.428 3.769-2.969 3.369-6.909 3.94-6.338 1.142-15.645 3.769-22.326 6.395-6.737 2.627-4.339 7.309 2.57 9.764 5.31 1.313 4.739 1.884 3.768 4.91-.799 2.798-.799 3.541-7.308 2.627-15.988-2.455-21.755-10.906-24.324-17.472-9.821 13.304-19.528 20.67-28.607 18.386-4.511-.914-6.681-4.854-7.08-9.764-6.338 2.798-13.647 5.253-23.125 7.879-2.17.743-3.94-.171-.971-1.484 6.281-3.026 16.159-8.051 24.267-13.533.799-3.368 2.57-8.051 4.34-11.476.97-2.056 1.598-1.314 1.598.399 0 1.313-.399 4.682-.228 7.138 1.427-1.142 3.369-2.227 4.339-3.198 5.539-4.682 11.649-7.708 7.538-15.188-1.771-3.426-3.198-5.824-3.769-7.366-3.54-1.313-2.569-3.197-.971-6.395 1.542-3.14 2.17-3.94 5.311-.343 4.567 5.082 5.138 7.309 1.998 6.966 4.91 11.991 3.711 18.215-3.94 25.352-3.597 3.54-7.308 6.395-11.648 8.622-.4 3.198.971 6.395 7.252 5.425 8.336-1.085 17.586-11.42 21.526-19.3-1.77-6.623-5.71-18.443-8.051-24.438-1.199-3.026 0-4.34.971-6.795 1.199-2.398 1.77-3.94 3.14-.514 1.37 3.198 5.71 11.249 7.708 20.841 2.17 9.593 1.77 17.815 6.909 22.326 2.398 2.055 5.31 3.426 8.508 4.168-2.398-6.395 2.569-11.305 9.079-13.532-3.94-3.598-10.107-3.027-17.016-3.369-5.082-.229-4.511-.799-3.14-5.082 1.37-4.339 2.969-4.91 6.737-6.395 5.139-1.884 10.221-3.768 15.588-5.253-3.368-4.682-1.199-8.108 1.371-11.648M275.562 54.54c-1.371 1.313-1.371 1.542-.172 3.198 1.2 1.313 2.97 5.481 2.341 9.763-.171 1.885.229 3.77 1.2.4.799-3.369.571-8.108-.4-10.906s-2.17-3.54-2.969-2.455m-26.837 7.366c-3.14 8.45-2.969 16.501 3.54 23.468 3.769 3.94 6.51 2.055 8.108-2.284 1.771-4.112 2.97-8.223 4.169-11.078 1.142-2.797 2.169-2.227 1.941.4-.571 5.253-.971 13.704 4.568 16.901 5.539 3.198 13.989-2.227 16.958-7.88 8.908 11.25 16.787 5.996 17.758-4.91.228-3.369-1.37-10.677-2.341-12.733-.971-2.284-.4-2.284.971-1.142 1.37 1.313 3.768 2.056 2.569-1.713-1.37-3.54-2.969-5.596-5.139-7.309-1.941-1.712-2.341-.742-3.14.572-.8 1.313-.628 1.655-1.77 2.626-1.199 1.142-1.028 1.656 0 3.769 3.311 8.222 6.509 20.27 1.142 21.412-4.911.913-8.051-9.25-8.28-13.704-.171-6.053-.97-11.134-2.169-14.275-.857-2.055-1.371-3.026-1.828-3.026-.799 0-1.941 3.255-2.683 4.51-.8 1.314 0 1.657.571 4.283 2.969 13.19 2.569 19.185-3.769 22.554-6.281 3.597-9.649.229-9.649-3.94-.172-4.11-.172-9.192.399-12.961.4-3.768 1.371-4.282 0-6.167-1.37-2.112-2.569-1.313-4.339 1.085-3.94 5.253-7.88 14.104-9.307 18.215-1.371 4.34-4.111 2.855-6.11-.743-2.17-4.282-1.941-11.99-1.199-15.017.799-3.026.4-4.34-.971-.913m-8.108-3.198c.4-1.142-.571-2.284-1.37-.57-.571 1.313-.799 2.226.4 3.026.399-.8.799-1.713.97-2.456m-4.739-1.713c2.398-5.824 10.278-5.081 8.108 2.456-.171 1.142-.799 2.626-1.542 4.11 1.142 1.542.571 3.427-1.827 3.027-2.569 3.94-7.48 8.28-15.987 11.82-3.94 1.712-4.511.4-1.542-1.314 5.71-3.54 11.02-7.88 14.389-12.39-2.57-2.056-2.57-5.082-1.599-7.709m-1.37 20.841c-2.341 2.855-4.111 6.966-.8 9.422 1.827 1.484 5.539-.172 6.909-3.026 1.428-2.97.8-3.37-1.541-.914-3.369 3.54-6.738.343-3.198-4.51 2.398-3.37 1.028-4.17-1.37-.972m-5.31 41.34c.399 1.313.171 4.339-.4 5.653-.8 1.656 0 2.455 1.199.342 1.142-2.227 1.941-4.853 1.37-7.48-.228-1.884-.228-2.455-1.998-3.197-1.942-.742-2.57.342-3.141 1.884-.799 1.884.172 3.94 2.97 2.798m-30.434-12.39c-3.54.913-4.111-.4-3.94-2.456.228-2.055.4-2.626 2.798-1.656.971.343 2.17 1.656 3.369 3.369-.8.172-1.599.571-2.227.743m2.969-8.451c-3.54-3.369-6.509-3.597-9.478.57-2.741 3.941-2.57 4.854-2.341 8.451.171 3.541-.571 4.854 2.341 5.825 2.797.913 3.997.571 5.767 0 1.37-.4 3.311-.971 5.31-1.713.399 1.884.171 3.939-.971 5.481-7.309 8.222-18.557 14.275-23.525 8.793-2.74-2.969-3.939-7.708-3.14-13.304.799-4.739-.799-2.626-1.37-.97-1.77 5.481-2.399 13.361 0 17.301 3.368 5.424 8.679 7.879 17.186 4.339 8.451-3.597 16.73-9.992 16.388-18.785 0-1.713-.229-3.198-.229-4.34.8-.4 2.17-1.313 3.141-1.713.228 3.026-.172 6.795 0 9.764.399 9.593-3.54 12.39-7.081 15.074-4.967 3.711-11.648 6.167-17.358 7.137-13.646 1.828-16.787-6.395-16.615-17.472 0-1.713.799-2.855.799-5.31-.171-4.682-.799-3.94-2.341.799-1.427 4.511-3.197 15.017 1.37 23.639 4.74 8.679 20.727 6.224 33.175.571 12.219-5.653 13.589-16.33 13.018-27.065 0-2.797-.228-5.824-.399-9.021.399-.171.571-.514.799-.742 1.77 5.481 10.049 3.939 12.619.742 1.37-1.485 1.37-1.656 2.569 0 1.77 2.455 7.88 3.197 9.479-.171 1.37-3.541 1.199-6.966.799-9.593s-1.028-2.398-2.798-1.085c-1.941 1.485-.399 1.656-.171 3.54.799 7.138-5.71 6.567-6.509-.742-.4-4.51-1.199-2.798-1.77-.742-2.798 8.793-10.906 10.506-10.107.342.229-2.969-1.77-2.055-2.741-.913-.97.742-1.77 1.713-2.74 2.227-.628-8.223-1.199-17.644-2.227-28.892 2.398 2.797 4.568-.4 2.969-3.598-1.142-2.455-2.969-7.88-4.111-10.906-1.028-2.969-1.599-2.055-4.168.4-2.341 2.627-1.942 3.198-.8 5.824-.399 3.198.229 6.395 1.028 12.962.571 4.682 2.17 14.446 2.912 26.836-1.142.571-2.912 1.713-4.111 2.284-.971-2.056-2.398-3.769-4.568-5.824m-42.424 23.867c.171 1.884.171 3.198.171 3.94 0 1.313-.742 2.627-1.142 4.282-2.398 8.108 1.142 12.048 3.14 9.022 1.77-2.969 2.741-2.627 2.57-.171-.171 8.108-8.279 8.622-8.908 1.884-.97-10.735 1.599-12.39 2.399-15.988.571-2.398 1.37-4.282 1.77-2.969m-4.169-11.876c5.767-6.567 13.076-9.936 16.787-11.077 2.399-.743 3.598-1.656 3.598.57.171 2.056 0 2.284-1.999 2.855-4.568 1.085-14.046 5.596-17.186 7.88-1.542 1.142-3.541 2.455-1.2-.228m32.204-56.528c-.571 1.541-.171 3.369.8 4.51.97 1.314 2.74 1.314 3.939.4.971-1.142.971-1.313 1.999.172.571 1.142 2.512.742 3.14-.4.4-.914.971-1.827.4-3.14-.628-1.314-.628-.971-1.028.513-.342 2.456-2.741 1.885-2.912-1.084 0-2.855-.628-1.314-1.427.57-1.371 2.798-3.312 2.227-3.312-.228 0-2.055-.628-3.768-1.599-1.313m-8.508 39.455c.629 6.795 2.57 19.357 2.57 23.696.228 4.511.799 3.198 1.998.742s.971-5.081.8-8.679c-.4-3.711-.628-9.935-1.428-18.386 1.599-1.141 2.969-3.026 3.597-4.11 1.542-2.856 1.942-2.627 2.57-.4 1.142 4.51 5.881 7.537 12.219 3.197 5.938-3.94 3.369-12.219.799-21.24 2.17.4 2.97-1.314 1.542-3.54-.571-1.314-1.77-2.456-2.741-3.598-.97-1.142-1.998-2.055-2.969-.913-.799 1.142-1.77 2.055-2.341 2.797-.628.743-.628 1.485.171 3.37 2.399 5.252 3.94 10.905 4.34 14.103.628 3.026-.571 3.768-2.741 3.768s-5.139-.57-6.338-5.082c-1.199-4.51-1.77-6.566-1.541-9.592.171-2.97.571-5.082-1.599-8.051-2.398-3.026-2.57-2.455-3.141-.97-.399 1.712-1.199 4.167-.399 6.965.97 4.111 1.541 7.709 2.169 10.164.4 1.656-1.427 5.253-3.939 7.137-.628-5.653-1.599-13.19-1.999-19.185 3.369-1.142 1.599-5.424-1.199-10.106-1.941-3.598-2.741-2.113-4.111.17-1.427 2.228-.4 3.198.571 5.083-.799 1.484.571 3.711 1.199 7.88.171 2.626.799 10.106 1.37 16.73-2.74 0-4.339-1.714-5.31-3.94-2.17-4.74-1.599-9.022-.628-11.877 1.028-2.798 1.999-7.137.229-8.222-1.599-1.142-3.769.17-5.139 2.226-2.398 3.37-4.568 8.28-4.74 13.361-.228 2.056-.799 5.996-1.77 7.48-.799 1.542-2.169 1.713-3.597-.57-2.341-3.54-3.14-12.562-2.912-17.244 0-2.284-.628-2.627-1.427 0-.686 2.398-.971 4.853-.971 7.194 0 6.624 1.941 12.676 3.54 15.702 2.17 4.111 4.968 3.198 6.909-.171 2.969-5.082 1.77-9.593 4.568-17.13 1.599-4.682 2.17-1.085 1.599 1.713-1.428 7.537-1.028 19.7 10.22 19.528M161.878 63.79c1.999-5.31 2.17-9.992-.171-8.28-1.999 1.485-3.198 0-1.599-1.712 1.941-2.455 4.511-3.198 5.139.97.171 3.198-2.17 7.138-3.369 9.022"/></g><defs><clipPath id="a"><path fill="#fff" d="M0 0h600v300H0z"/></clipPath></defs></svg>