<svg xmlns="http://www.w3.org/2000/svg" width="600" height="300" fill="none"><g clip-path="url(#a)"><path fill="#fff" d="M0 0h600v300H0z"/><path fill="#0C4076" d="M0 0h600v200H0z"/><path fill="#C6363C" d="M0 0h600v100H0z"/><path fill="#0C4076" stroke="#21231E" stroke-width=".364" d="M190.5 40.96a6.196 6.196 0 1 0 0-12.392 6.196 6.196 0 0 0 0 12.392Z"/><path fill="#EDB92E" stroke="#21231E" stroke-linejoin="round" stroke-width=".364" d="M191.593 21.28a1.093 1.093 0 1 0 0-2.187 1.093 1.093 0 1 0-2.186 0 1.095 1.095 0 0 0-.774 1.867c.205.205.484.32.774.32v2.369h-2.005a1.093 1.093 0 1 0-2.187 0 1.093 1.093 0 1 0 0 2.187 1.094 1.094 0 0 0 2.187 0h2.005v7.835h2.186v-7.835h2.005a1.093 1.093 0 1 0 2.186 0 1.093 1.093 0 1 0 0-2.187 1.093 1.093 0 1 0-2.186 0h-2.005z"/><path fill="#EDB92E" stroke="#21231E" stroke-linejoin="round" stroke-width=".364" d="M191.593 28.642a6.2 6.2 0 0 0-2.187 0v6.195h2.187z"/><path fill="#EDB92E" stroke="#21231E" stroke-linejoin="round" stroke-width=".364" d="M196.623 33.67a6.2 6.2 0 0 1 0 2.188 129 129 0 0 0-12.245 0 6.2 6.2 0 0 1 0-2.187q6.122-.291 12.245 0ZM227.309 86.516q2.187-4.374 4.009-6.56-6.195 4.738-6.56-2.187-5.83 8.018-9.84-1.458-6.924 9.84-11.298-.729-7.288 9.111-13.12-.729-5.83 9.84-13.12.73-4.373 10.568-11.297.728-4.01 9.476-9.84 1.458-.365 6.924-6.56 2.186 1.821 2.187 4.009 6.56z"/><path fill="#EDB92E" stroke="#21231E" stroke-linejoin="round" stroke-width=".364" d="m153.691 86.77 2.187 11.299h69.245l2.186-11.298-36.809-1.823z"/><path fill="#EDB92E" stroke="#21231E" stroke-linejoin="round" stroke-width=".364" d="M230.953 76.202c-2.551 6.56-4.737 6.56-5.102.729.365-.365.292-1.385.948-.948.328.219.838-.437.51-.729-.656-.583-1.458-.51-2.187.219-.182-1.093-.911-1.458-1.822-1.093-.364.145-.364.91 0 .874.729-.073.547.583.729.948q-7.289 9.111-6.196-2.551l-3.644-.73q-6.196 12.392-9.476 1.094c.365-.364.365-1.239 1.094-.947.364.145.729-.51.291-.875-.874-.729-1.749-.364-2.478.364-.364-1.093-1.421-1.385-2.405-.728-.438.291-.146 1.056.291.947.875-.219.474.875 1.021 1.24-1.823 7.288-11.298 7.652-9.658-2.916h-4.738c1.64 10.569-7.835 10.204-9.658 2.915.547-.364.146-1.458 1.021-1.239.437.11.729-.656.291-.947-.984-.656-2.041-.365-2.405.728-.729-.728-1.604-1.093-2.478-.364-.438.364-.073 1.02.291.875.729-.292.729.583 1.094.947q-3.28 11.298-9.476-1.093l-3.644.729q1.093 11.662-6.196 2.55c.182-.364 0-1.02.729-.947.364.037.364-.729 0-.874-.911-.365-1.64 0-1.822 1.093-.729-.729-1.531-.802-2.187-.219-.328.292.182.948.51.73.656-.438.583.582.948.947-.365 5.83-2.551 5.83-5.102-.73l-1.458.365c0 1.458.547 3.28 1.458 4.374 3.644 4.373 6.56 3.644 6.742-1.823 4.92 5.831 8.929 5.103 9.658-1.093 4.009 8.018 10.933 4.009 11.115-.729 2.005 6.925 12.209 6.925 12.938-1.093.729 8.018 10.933 8.018 12.938 1.093.182 4.738 7.106 8.747 11.115.73.729 6.195 4.738 6.923 9.658 1.092.182 5.467 3.098 6.196 6.742 1.823.911-1.094 1.458-2.916 1.458-4.374z"/><path fill="#EDB92E" stroke="#21231E" stroke-linejoin="round" stroke-width=".364" d="M153.691 87.791c-1.822.182-1.822-1.64 0-1.822a369 369 0 0 1 73.618 0c1.822.182 1.822 2.004 0 1.822a369 369 0 0 0-73.618 0ZM186.855 63.009l-2.551-3.28q1.094-10.57 0-19.316-.729-2.55 1.458-1.458 4.738 2.37 9.476 0 2.186-1.092 1.457 1.458-1.092 8.747 0 19.316l-2.551 3.28z"/><path fill="#EDB92E" stroke="#21231E" stroke-linecap="round" stroke-width=".364" d="M198.883 90.889 190.5 95.08l-8.382-4.191 8.382-4.191z"/><path fill="#EDB92E" stroke="#21231E" stroke-linejoin="round" stroke-width=".364" d="m226.836 48.249 10.058 4.737 1.094 4.374-3.973 6.195.365 5.102h3.243l5.394-14.577-6.851-5.831-15.817-5.467z"/><path fill="#EDB92E" stroke="#21231E" stroke-linejoin="round" stroke-width=".364" d="M234.707 68.147a12.5 12.5 0 0 0 .448-1.72 5.8 5.8 0 0 0-.213-2.97c1.07-1.535 2.27-3.201 3.137-4.858.618-1.182 1.093-2.499.732-3.848-.388-1.438-1.616-2.418-2.726-3.284-1.329-1.037-3.101-1.945-4.895-2.72-4.018-1.69-7.212-2.516-9.553-2.591l1.486 1.398c4.355 1.427 9.496 3.31 11.969 5.24 3.2 2.497 3.121 3.087-1.521 9.75-.145.208-.48.738-.365.98.223.476.634 2.675-.049 4.185.401.765.982.364 1.552.438zM204.313 63.974c-1.245-.084-.937 2.148-.691 2.646.32.65.618.67 1.023.07.31-.46.912-2.631-.332-2.716ZM227.819 67.127c-1.189-.382-1.418 1.86-1.297 2.403.158.708.442.799.977.313.41-.372 1.509-2.335.32-2.716Z"/><path fill="#fff" stroke="#21231E" stroke-linejoin="round" stroke-width=".364" d="M222.207 45.478a2.332 2.332 0 1 0 .001-4.664 2.332 2.332 0 0 0-.001 4.664Z"/><path fill="#fff" stroke="#21231E" stroke-linejoin="round" stroke-width=".364" d="M226.58 46.936a2.332 2.332 0 1 0 .001-4.665 2.332 2.332 0 0 0-.001 4.665Z"/><path fill="#fff" stroke="#21231E" stroke-linejoin="round" stroke-width=".364" d="M230.954 48.394a2.332 2.332 0 1 0 0-4.665 2.332 2.332 0 0 0 0 4.665Z"/><path fill="#fff" stroke="#21231E" stroke-linejoin="round" stroke-width=".364" d="M235.328 50.398a2.332 2.332 0 1 0 0-4.664 2.332 2.332 0 0 0 0 4.664Z"/><path fill="#fff" stroke="#21231E" stroke-linejoin="round" stroke-width=".364" d="M239.336 52.767a2.332 2.332 0 1 0 .001-4.664 2.332 2.332 0 0 0-.001 4.664ZM237.514 69.167a2.333 2.333 0 1 0 0-4.666 2.333 2.333 0 0 0 0 4.666Z"/><path fill="#fff" stroke="#21231E" stroke-linejoin="round" stroke-width=".364" d="M239.701 65.158a2.332 2.332 0 1 0 0-4.664 2.332 2.332 0 0 0 0 4.664Z"/><path fill="#fff" stroke="#21231E" stroke-linejoin="round" stroke-width=".364" d="M241.523 61.15a2.332 2.332 0 1 0 0-4.665 2.332 2.332 0 0 0 0 4.665ZM242.251 56.412a2.332 2.332 0 1 0 .001-4.665 2.332 2.332 0 0 0-.001 4.665ZM199.247 94.97a1.166 1.166 0 1 0 0-2.332 1.166 1.166 0 0 0 0 2.332ZM217.105 96.063a1.166 1.166 0 1 0 0-2.332 1.166 1.166 0 0 0 0 2.332ZM217.834 90.597a1.166 1.166 0 1 0 0-2.333 1.166 1.166 0 0 0 0 2.333ZM199.612 89.503a1.166 1.166 0 1 0 0-2.332 1.166 1.166 0 0 0 0 2.332ZM205.005 71.573c.729-1.094 2.114-6.196-.801-6.378s-2.187 5.102-1.64 6.196c.728 1.457 1.494 1.603 2.441.182ZM224.431 73.942c.364 1.64.984 1.858 2.296.692.984-.875 3.535-5.43.729-6.341s-3.317 4.336-3.025 5.648Z"/><path fill="#EDB92E" stroke="#21231E" stroke-linejoin="round" stroke-width=".364" d="m196.331 41.324 12.756.364 8.017 2.551 2.187 5.103-5.831 11.297 2.551 7.29 7.653-6.56 3.645-13.485-9.84-8.382-20.774-1.458z"/><path fill="#EDB92E" stroke="#21231E" stroke-linejoin="round" stroke-width=".364" d="M196.987 40.522c6.28-.572 12.702.07 19.06 2.614 5.358 2.143 4.833 8.401-1.701 17.088.591 1.1.927 2.47.981 4.049-.692-.038-1.176-.02-1.786-.036.473-1.052-.057-2.341-.655-3.25-.39-.592-.47-.488 0-1.149 3.889-5.467 6.467-10.25 4.951-13.14-1.843-3.512-8.986-5.342-21.034-5.074l.066-.97zM222.498 42.782q-.33.447-.669.895c3.535 1.953 4.999 4.014 4.653 6.087-.058.355-1.133 4.148-3.535 11.497q-2.461 1.713-3.67 3.066c.091.103-.258.423-.154.51-.245 1.123 1.011.894 1.859.617.406-1.079 1.645-2.223 2.358-2.713.145-.1.669-.357.721-.525 1.285-4.136 2.576-7.96 3.683-11.522 1.113-3.578-1.297-6.115-5.242-7.913z"/><path fill="#fff" stroke="#21231E" stroke-linejoin="round" stroke-width=".364" d="M198.518 40.012a2.332 2.332 0 1 0 0-4.664 2.332 2.332 0 0 0 0 4.664Z"/><path fill="#fff" stroke="#21231E" stroke-linejoin="round" stroke-width=".364" d="M203.074 40.012a2.332 2.332 0 1 0 0-4.664 2.332 2.332 0 0 0 0 4.664Z"/><path fill="#fff" stroke="#21231E" stroke-linejoin="round" stroke-width=".364" d="M207.629 40.559a2.333 2.333 0 1 0 0-4.666 2.333 2.333 0 0 0 0 4.666Z"/><path fill="#fff" stroke="#21231E" stroke-linejoin="round" stroke-width=".364" d="M212.002 41.47a2.332 2.332 0 1 0 .001-4.665 2.332 2.332 0 0 0-.001 4.665Z"/><path fill="#fff" stroke="#21231E" stroke-linejoin="round" stroke-width=".364" d="M216.375 42.928a2.332 2.332 0 1 0 .001-4.665 2.332 2.332 0 0 0-.001 4.665Z"/><path fill="#fff" stroke="#21231E" stroke-linejoin="round" stroke-width=".364" d="M220.384 44.75a2.333 2.333 0 1 0 0-4.666 2.333 2.333 0 0 0 0 4.666Z"/><path fill="#fff" stroke="#21231E" stroke-linejoin="round" stroke-width=".364" d="M222.936 47.665a2.332 2.332 0 1 0 0-4.664 2.332 2.332 0 0 0 0 4.664ZM218.198 64.43a2.332 2.332 0 1 0 0-4.665 2.332 2.332 0 0 0 0 4.665Z"/><path fill="#fff" stroke="#21231E" stroke-linejoin="round" stroke-width=".364" d="M220.02 60.421a2.332 2.332 0 1 0 0-4.664 2.332 2.332 0 0 0 0 4.664Z"/><path fill="#fff" stroke="#21231E" stroke-linejoin="round" stroke-width=".364" d="M221.842 56.412a2.333 2.333 0 1 0 0-4.666 2.333 2.333 0 0 0 0 4.666Z"/><path fill="#fff" stroke="#21231E" stroke-linejoin="round" stroke-width=".364" d="M223.3 52.039a2.333 2.333 0 1 0 0-4.666 2.333 2.333 0 0 0 0 4.666Z"/><path fill="#EDB92E" stroke="#21231E" stroke-linejoin="round" stroke-width=".364" d="m235.691 69.386.133.722q1.523.36 2.605.18c-1.206-1.203-2.105-1.458-2.738-.902Z"/><path fill="#EDB92E" stroke="#21231E" stroke-linejoin="round" stroke-width=".364" d="M236.056 67.673c-.645.159-.705.268-.986.317-.365.063-.86.038-1.203-.265-1.399-.845-1.429.677-.885 1.817.394.826.757 1.885.381 2.591-.444.835-.35 1.218-.035 1.443.217.144.425.278.611.398.377.448.663.37.716-.215 1.396-.58 1.293-2.055 1.711-3.242.612-1.737 2.833-2.148-.31-2.844Z"/><path fill="#EDB92E" stroke="#21231E" stroke-linejoin="round" stroke-width=".364" d="M235.326 67.746c-1.216.437-1.351-.243-2.172-.208.324 1.874.651 2.843 2.591 1.838 1.071-.556 2.443.257 2.703.86.096.22.719-.237.946-.738.953-2.099-2.437-2.337-4.068-1.752ZM231.026 76.82c-.881-.27-2.257 1.69-2.585 1.656-.433-1.12.451-3.802 2.016-5.924 1.064-.35 1.159-1.038 1.379-2.635.066-.478.977-.149.993.664.018.871.085 1.354-.108 2.098-.076.293-.034.574.291.842-1.658.661-2.066 1.472-1.986 3.3Z"/><path fill="#EDB92E" stroke="#21231E" stroke-linejoin="round" stroke-width=".364" d="M231.828 69.933c.152.364.198.668.235 1.227.028.425-.128.824-.398 1.177-.272.354-.66.666-1.094.92-.27.157-.58.592-.825 1.086-.244.492-.423 1.047-.433 1.441-.035 1.305-.288 2.445-.881 2.67-.388.147-.543.125-.844.054.085-.234.053-.564.262-.891.269-.422.505-.906.527-1.33.018-.33.173-.55.045-1.2-.082-.42-.354-.579-.306-.967.094-.752.683-2.194 1.548-2.194.853 0 1.252-.092 1.694-1.228.15-.386.346-.572.473-.765z"/><path fill="#EDB92E" stroke="#21231E" stroke-linejoin="round" stroke-width=".364" d="M235.035 73.067a3.2 3.2 0 0 0-.776-.414 2.1 2.1 0 0 0-1.389-.062c-2.045.618-2.941 4.252-.7 5.126.442.053.849-.346 1.245-1.223.467-1.16.964-1.966 1.497-2.459.326-.411.337-.76.123-.968Z"/><path fill="#EDB92E" stroke="#21231E" stroke-linejoin="round" stroke-width=".364" d="M234.015 73.286c-1.965-.767-3.412 2.998-1.575 3.713.986.384 1.08-.85 1.271-1.535.258-.926 2.191-1.442.304-2.178ZM193.306 62.462q1.477-2.75 3.133-3.517c-1.522-4.795-1.88-10.987-.985-18.622.09-1.14.372-1.632.807-1.624.381.007.611.589.649 1.902-.277 4.2-.617 7.874-.427 10.994.171 2.785.825 5.102 1.545 7.71.099.364-.157.647-1.41 1.353-.925.526-1.507 1.172-1.701 1.848-.268-.107-.44-.075-.536-.047-.929.27-1.321.196-1.075 0zM199.137 68.511c-.57-.36-.682-.264-.865-.5-.236-.303-.239-.8-.165-1.278.299-1.926-.851-1.657-2.144-.806-.646.426-1.296 1.415-1.852 1.932s-1.016.56-1.155.764a47 47 0 0 0-.015 1.666c-.006.289 0 .927.015 1.665.139.204.6.248 1.155.765.556.516 1.206 1.505 1.852 1.93 1.293.852 2.443 1.12 2.144-.805-.073-.478-.071-.976.165-1.279.183-.236.295-.14.865-.5.371-.232.648-.513.833-.817.185-.305.084-.633.084-.96 0-.328.101-.656-.084-.96a2.5 2.5 0 0 0-.833-.817Z"/><path fill="#EDB92E" stroke="#21231E" stroke-linejoin="round" stroke-width=".364" d="M198.153 65.85c-.416.172-.869.355-1.252.73-.583.566-.206 1.505.548 2.414.237.287.352.793.351 1.298 0 .504-.121 1.006-.351 1.284-.753.909-1.131 1.848-.548 2.414.383.373.836.555 1.252.729.04-.22.035-.507-.022-.875-.073-.478-.071-.976.165-1.279.184-.236.295-.14.866-.5.369-.232.647-.513.832-.817s.085-.632.085-.96.101-.656-.085-.96a2.55 2.55 0 0 0-.832-.819c-.571-.359-.683-.263-.866-.5-.236-.302-.238-.8-.165-1.278.057-.368.062-.656.022-.875zM216.521 63.19c-.484.615-.426.762-.689.939-.343.227-.808.148-1.239-.017-1.771-.678-1.771.729-1.257 2.343.249.782 1.005 1.63 1.341 2.294.331.651.26 1.14.409 1.306.642.106 1.193.184 1.444.213.246.04.793.11 1.424.178.207-.118.365-.58.952-1.088.588-.511 1.604-1.064 2.151-1.688 1.11-1.266 1.7-2.482-.045-2.44-.434.011-.868-.068-1.063-.38-.154-.244-.038-.354-.188-1.067-.098-.468-.269-.841-.489-1.11-.224-.272-.55-.212-.851-.268-.303-.057-.579-.236-.914-.066-.334.17-.672.45-.986.852Z"/><path fill="#EDB92E" stroke="#21231E" stroke-linejoin="round" stroke-width=".364" d="M213.751 63.92c.066.518.133 1.076.391 1.573.387.75 1.342.46 2.362-.254.322-.226.814-.278 1.268-.197.453.08.868.288 1.049.587.582.962 1.28 1.502 1.935.953.434-.365.729-.835 1.003-1.267-.176-.077-.425-.115-.762-.107-.434.011-.868-.068-1.063-.38-.154-.244-.039-.354-.188-1.066-.098-.469-.269-.84-.489-1.11-.224-.273-.55-.212-.851-.268-.303-.057-.579-.237-.914-.067-.334.169-.672.45-.988.851-.484.615-.424.762-.689.94-.342.226-.808.145-1.239-.018-.333-.127-.606-.18-.825-.17ZM223.446 70.917c-.282-.343-.394-.267-.446-.483-.065-.278.099-.715.311-1.131.85-1.666-.054-1.525-1.28-.868-.31.166-.671.462-1.029.766-.365.308-.72.63-1.02.845-.607.437-.982.45-1.159.627-.27.676-.492 1.262-.588 1.528-.103.264-.321.848-.561 1.523.039.188.388.24.649.72.257.474.458 1.334.773 1.748.46.607.881.969 1.209.91.328-.06.561-.54.648-1.598.034-.41.269-.846.54-1.104.212-.2.259-.116.782-.41.338-.191.625-.426.855-.68.228-.255.263-.54.369-.82.107-.282.284-.559.257-.826a1.4 1.4 0 0 0-.31-.747Z"/><path fill="#EDB92E" stroke="#21231E" stroke-linejoin="round" stroke-width=".364" d="M223.592 68.22c-.365.133-.605.3-1.021.644-.317.262-.49.642-.552 1.074-.062.435-.014.928.107 1.416.075.303-.017.82-.195 1.328-.178.506-.444 1.006-.713 1.275-.891.893-1.516 1.837-1.267 2.421.162.383.285.482.54.656.106-.219.36-.414.445-.785.111-.478.289-.974.571-1.27.219-.233.267-.493.809-.831.351-.22.65-.126.889-.42.462-.568 1.068-1.958.476-2.593-.585-.627-.794-.98-.301-2.059.168-.364.164-.634.212-.856ZM208.029 72.739c.466.401.583.322.713.564.165.309.088.776-.054 1.215-.56 1.733.496 1.58 1.765.918.631-.33 1.368-1.173 1.941-1.596.575-.423.978-.42 1.136-.594.161-.685.29-1.285.344-1.561.062-.273.189-.886.324-1.607-.079-.214-.475-.313-.865-.896-.395-.59-.789-1.69-1.3-2.225-1.049-1.098-2.102-1.57-2.16.539-.014.511-.104 1.028-.378 1.307-.214.22-.303.106-.9.401-.39.192-.701.444-.924.73-.224.287-.178.63-.228.958-.049.327-.194.643-.064.963.128.317.344.62.65.884Z"/><path fill="#EDB92E" stroke="#21231E" stroke-linejoin="round" stroke-width=".364" d="M208.54 75.326c.396-.122.828-.25 1.226-.558.607-.469.43-1.377-.09-2.315-.167-.3-.187-.805-.1-1.3.087-.497.281-.984.543-1.234.854-.824 1.377-1.733.943-2.4-.29-.445-.685-.704-1.047-.949-.077.23-.128.536-.139.931-.013.511-.102 1.027-.376 1.307-.214.22-.303.106-.901.401a2.64 2.64 0 0 0-.923.73c-.224.287-.178.63-.228.958-.049.327-.194.643-.064.963.127.317.344.62.65.883.466.401.583.322.713.564.165.308.088.775-.054 1.215-.107.334-.157.598-.153.803z"/><path fill="#EDB92E" stroke="#21231E" stroke-linecap="round" stroke-width=".364" d="m217.214 92.019-8.018-4.702-8.528 3.681 8.018 4.665zM226.871 88.666l-8.674 3.425 7.162 4.683c1.854-.621 3.325-6.968 1.512-8.127z"/><path fill="#21231E" d="M192.942 70.88a6.57 6.57 0 0 1 3.498 1.568q-1.057-1.53-3.535-1.895zM192.942 69.642a6.57 6.57 0 0 0 3.498-1.567q-1.057 1.53-3.535 1.895zM234.124 72.594q.802-1.13.474-2.296.765.948-.219 2.405zM217.068 70.261a9.05 9.05 0 0 1 2.296-3.498q-1.64.91-2.588 3.498zM216.011 70.116q.255-2.115-.583-3.973 1.13 1.349.838 4.045zM217.979 73.031q1.494.401 2.186 1.786-.364-1.64-2.114-2.114zM218.416 71.792q1.713-.183 3.353-1.421-1.494 1.53-3.498 1.749zM213.933 71.1q-1.676-.438-2.842-1.968.656 1.676 2.806 2.296zM213.678 72.266q-1.75.036-3.353 1.166 1.203-1.385 3.462-1.458z"/><path fill="#C6363C" stroke="#21231E" stroke-width=".364" d="M208.727 93.98c2.008.141 3.715-.885 3.813-2.29s-1.449-2.659-3.457-2.8c-2.008-.14-3.715.886-3.814 2.291-.098 1.406 1.45 2.66 3.458 2.8Z"/><path fill="#EDB92E" stroke="#21231E" stroke-linejoin="round" stroke-width=".364" d="M216.594 69.205c-1.467-.073-2.884 1.21-3.093 2.782-.208 1.57.818 2.79 2.225 2.807 1.406.016 2.713-1.135 2.982-2.651s-.647-2.866-2.114-2.939Z"/><path fill="#EDB92E" stroke="#21231E" stroke-linejoin="round" stroke-width=".364" d="M216.485 69.97c-1.073-.047-2.103.883-2.26 2.031-.159 1.15.578 2.059 1.624 2.076 1.033.019 2.012-.852 2.201-1.96.195-1.132-.492-2.1-1.565-2.147Z"/><path fill="#0C4076" stroke="#21231E" stroke-width=".364" d="M233.794 73.858c-.958-.373-2.274 1.872-1.075 2.382.81.345 1.45-.108 1.709-.785.261-.677.038-1.335-.634-1.597ZM226.58 90.16c-2.077-.219-3.826.729-3.972 2.113-.146 1.385 1.421 2.624 3.499 2.843 1.385.146 2.15-.729 2.296-2.114s-.438-2.697-1.823-2.842ZM216.376 70.735c-.671-.025-1.313.552-1.417 1.271-.104.72.359 1.3 1.016 1.315.658.013 1.276-.534 1.393-1.241.117-.709-.321-1.32-.992-1.345Z"/><path fill="#EDB92E" stroke="#21231E" stroke-linejoin="round" stroke-width=".364" d="m154.164 48.249-10.058 4.737-1.094 4.374 3.973 6.195-.365 5.102h-3.243l-5.394-14.577 6.851-5.831 15.817-5.467z"/><path fill="#EDB92E" stroke="#21231E" stroke-linejoin="round" stroke-width=".364" d="M146.293 68.147a12.5 12.5 0 0 1-.448-1.72 5.8 5.8 0 0 1 .213-2.97c-1.07-1.535-2.27-3.201-3.137-4.858-.618-1.182-1.093-2.499-.732-3.848.388-1.438 1.616-2.418 2.726-3.284 1.329-1.037 3.101-1.945 4.895-2.72 4.018-1.69 7.212-2.516 9.553-2.591l-1.486 1.398c-4.355 1.427-9.496 3.31-11.969 5.24-3.2 2.497-3.121 3.087 1.521 9.75.145.208.48.738.365.98-.223.476-.634 2.675.049 4.185-.401.765-.982.364-1.552.438zM176.687 63.974c1.245-.084.937 2.148.691 2.646-.32.65-.618.67-1.023.07-.31-.46-.912-2.631.332-2.716ZM153.181 67.127c1.189-.382 1.418 1.86 1.297 2.403-.158.708-.442.799-.977.313-.41-.372-1.509-2.335-.32-2.716Z"/><path fill="#fff" stroke="#21231E" stroke-linejoin="round" stroke-width=".364" d="M158.793 45.478a2.332 2.332 0 1 1-.001-4.664 2.332 2.332 0 0 1 .001 4.664Z"/><path fill="#fff" stroke="#21231E" stroke-linejoin="round" stroke-width=".364" d="M154.42 46.936a2.332 2.332 0 1 1-.001-4.665 2.332 2.332 0 0 1 .001 4.665Z"/><path fill="#fff" stroke="#21231E" stroke-linejoin="round" stroke-width=".364" d="M150.046 48.394a2.332 2.332 0 1 1 0-4.665 2.332 2.332 0 0 1 0 4.665Z"/><path fill="#fff" stroke="#21231E" stroke-linejoin="round" stroke-width=".364" d="M145.672 50.398a2.332 2.332 0 1 1 0-4.664 2.332 2.332 0 0 1 0 4.664Z"/><path fill="#fff" stroke="#21231E" stroke-linejoin="round" stroke-width=".364" d="M141.664 52.767a2.332 2.332 0 1 1-.001-4.664 2.332 2.332 0 0 1 .001 4.664ZM143.486 69.167a2.333 2.333 0 1 1 0-4.666 2.333 2.333 0 0 1 0 4.666Z"/><path fill="#fff" stroke="#21231E" stroke-linejoin="round" stroke-width=".364" d="M141.299 65.158a2.332 2.332 0 1 1 0-4.664 2.332 2.332 0 0 1 0 4.664Z"/><path fill="#fff" stroke="#21231E" stroke-linejoin="round" stroke-width=".364" d="M139.477 61.15a2.332 2.332 0 1 1 0-4.665 2.332 2.332 0 0 1 0 4.665ZM138.749 56.412a2.332 2.332 0 1 1-.001-4.665 2.332 2.332 0 0 1 .001 4.665ZM181.753 94.97a1.166 1.166 0 1 1 0-2.332 1.166 1.166 0 0 1 0 2.332ZM163.895 96.063a1.166 1.166 0 1 1 0-2.332 1.166 1.166 0 0 1 0 2.332ZM163.166 90.597a1.166 1.166 0 1 1 0-2.333 1.166 1.166 0 0 1 0 2.333ZM181.388 89.503a1.166 1.166 0 1 1 0-2.332 1.166 1.166 0 0 1 0 2.332ZM175.995 71.573c-.729-1.094-2.114-6.196.801-6.378s2.187 5.102 1.64 6.196c-.728 1.457-1.494 1.603-2.441.182ZM156.569 73.942c-.364 1.64-.984 1.858-2.296.692-.984-.875-3.535-5.43-.729-6.341s3.317 4.336 3.025 5.648Z"/><path fill="#EDB92E" stroke="#21231E" stroke-linejoin="round" stroke-width=".364" d="m184.669 41.324-12.756.364-8.017 2.551-2.187 5.103 5.831 11.297-2.551 7.29-7.653-6.56-3.645-13.485 9.84-8.382 20.774-1.458z"/><path fill="#EDB92E" stroke="#21231E" stroke-linejoin="round" stroke-width=".364" d="M184.013 40.522c-6.28-.572-12.702.07-19.06 2.614-5.358 2.143-4.833 8.401 1.701 17.088-.591 1.1-.927 2.47-.981 4.049.692-.038 1.176-.02 1.786-.036-.473-1.052.057-2.341.655-3.25.39-.592.47-.488 0-1.149-3.889-5.467-6.467-10.25-4.951-13.14 1.843-3.512 8.986-5.342 21.034-5.074l-.066-.97zM158.502 42.782q.33.447.669.895c-3.535 1.953-4.999 4.014-4.653 6.087.058.355 1.133 4.148 3.535 11.497q2.461 1.713 3.67 3.066c-.091.103.258.423.154.51.245 1.123-1.011.894-1.859.617-.406-1.079-1.645-2.223-2.358-2.713-.145-.1-.669-.357-.721-.525-1.285-4.136-2.576-7.96-3.683-11.522-1.113-3.578 1.297-6.115 5.242-7.913z"/><path fill="#fff" stroke="#21231E" stroke-linejoin="round" stroke-width=".364" d="M182.482 40.012a2.332 2.332 0 1 1 0-4.664 2.332 2.332 0 0 1 0 4.664Z"/><path fill="#fff" stroke="#21231E" stroke-linejoin="round" stroke-width=".364" d="M177.926 40.012a2.332 2.332 0 1 1 0-4.664 2.332 2.332 0 0 1 0 4.664Z"/><path fill="#fff" stroke="#21231E" stroke-linejoin="round" stroke-width=".364" d="M173.371 40.559a2.333 2.333 0 1 1 0-4.666 2.333 2.333 0 0 1 0 4.666Z"/><path fill="#fff" stroke="#21231E" stroke-linejoin="round" stroke-width=".364" d="M168.998 41.47a2.332 2.332 0 1 1-.001-4.665 2.332 2.332 0 0 1 .001 4.665Z"/><path fill="#fff" stroke="#21231E" stroke-linejoin="round" stroke-width=".364" d="M164.625 42.928a2.332 2.332 0 1 1-.001-4.665 2.332 2.332 0 0 1 .001 4.665Z"/><path fill="#fff" stroke="#21231E" stroke-linejoin="round" stroke-width=".364" d="M160.616 44.75a2.333 2.333 0 1 1 0-4.666 2.333 2.333 0 0 1 0 4.666Z"/><path fill="#fff" stroke="#21231E" stroke-linejoin="round" stroke-width=".364" d="M158.064 47.665a2.332 2.332 0 1 1 0-4.664 2.332 2.332 0 0 1 0 4.664ZM162.802 64.43a2.332 2.332 0 1 1 0-4.665 2.332 2.332 0 0 1 0 4.665Z"/><path fill="#fff" stroke="#21231E" stroke-linejoin="round" stroke-width=".364" d="M160.98 60.421a2.332 2.332 0 1 1 0-4.664 2.332 2.332 0 0 1 0 4.664Z"/><path fill="#fff" stroke="#21231E" stroke-linejoin="round" stroke-width=".364" d="M159.158 56.412a2.333 2.333 0 1 1 0-4.666 2.333 2.333 0 0 1 0 4.666Z"/><path fill="#fff" stroke="#21231E" stroke-linejoin="round" stroke-width=".364" d="M157.7 52.039a2.333 2.333 0 1 1 0-4.666 2.333 2.333 0 0 1 0 4.666Z"/><path fill="#EDB92E" stroke="#21231E" stroke-linejoin="round" stroke-width=".364" d="m145.309 69.386-.133.722q-1.523.36-2.605.18c1.206-1.203 2.105-1.458 2.738-.902Z"/><path fill="#EDB92E" stroke="#21231E" stroke-linejoin="round" stroke-width=".364" d="M144.944 67.673c.645.159.705.268.986.317.365.063.86.038 1.203-.265 1.399-.845 1.429.677.885 1.817-.394.826-.757 1.885-.381 2.591.444.835.35 1.218.035 1.443-.217.144-.425.278-.611.398-.377.448-.663.37-.716-.215-1.396-.58-1.293-2.055-1.711-3.242-.612-1.737-2.833-2.148.31-2.844Z"/><path fill="#EDB92E" stroke="#21231E" stroke-linejoin="round" stroke-width=".364" d="M145.674 67.746c1.216.437 1.351-.243 2.172-.208-.324 1.874-.651 2.843-2.591 1.838-1.071-.556-2.443.257-2.703.86-.096.22-.719-.237-.946-.738-.953-2.099 2.437-2.337 4.068-1.752ZM149.974 76.82c.881-.27 2.257 1.69 2.585 1.656.433-1.12-.451-3.802-2.016-5.924-1.064-.35-1.159-1.038-1.379-2.635-.066-.478-.977-.149-.993.664-.018.871-.085 1.354.108 2.098.076.293.034.574-.291.842 1.658.661 2.066 1.472 1.986 3.3Z"/><path fill="#EDB92E" stroke="#21231E" stroke-linejoin="round" stroke-width=".364" d="M149.172 69.933c-.152.364-.198.668-.235 1.227-.028.425.128.824.398 1.177.272.354.66.666 1.094.92.27.157.58.592.825 1.086.244.492.423 1.047.433 1.441.035 1.305.288 2.445.881 2.67.388.147.543.125.844.054-.085-.234-.053-.564-.262-.891-.269-.422-.505-.906-.527-1.33-.018-.33-.173-.55-.045-1.2.082-.42.354-.579.306-.967-.094-.752-.683-2.194-1.548-2.194-.853 0-1.252-.092-1.694-1.228-.15-.386-.346-.572-.473-.765z"/><path fill="#EDB92E" stroke="#21231E" stroke-linejoin="round" stroke-width=".364" d="M145.965 73.067c.232-.179.512-.31.776-.414a2.1 2.1 0 0 1 1.389-.062c2.045.618 2.941 4.252.7 5.126-.442.053-.849-.346-1.245-1.223-.467-1.16-.964-1.966-1.497-2.459-.326-.411-.337-.76-.123-.968Z"/><path fill="#EDB92E" stroke="#21231E" stroke-linejoin="round" stroke-width=".364" d="M146.985 73.286c1.965-.767 3.412 2.998 1.575 3.713-.986.384-1.08-.85-1.271-1.535-.258-.926-2.191-1.442-.304-2.178ZM187.694 62.462q-1.477-2.75-3.133-3.517c1.522-4.795 1.88-10.987.985-18.622-.09-1.14-.372-1.632-.807-1.624-.381.007-.611.589-.649 1.902.277 4.2.617 7.874.427 10.994-.171 2.785-.825 5.102-1.545 7.71-.099.364.157.647 1.41 1.353.925.526 1.507 1.172 1.701 1.848.268-.107.44-.075.536-.047.929.27 1.321.196 1.075 0zM181.863 68.511c.57-.36.682-.264.865-.5.236-.303.239-.8.165-1.278-.299-1.926.851-1.657 2.144-.806.646.426 1.296 1.415 1.852 1.932s1.016.56 1.155.764c.017.739.021 1.377.015 1.666.006.289 0 .927-.015 1.665-.139.204-.6.248-1.155.765-.556.516-1.206 1.505-1.852 1.93-1.293.852-2.443 1.12-2.144-.805.073-.478.071-.976-.165-1.279-.183-.236-.295-.14-.865-.5a2.5 2.5 0 0 1-.833-.817c-.185-.305-.084-.633-.084-.96 0-.328-.101-.656.084-.96a2.5 2.5 0 0 1 .833-.817Z"/><path fill="#EDB92E" stroke="#21231E" stroke-linejoin="round" stroke-width=".364" d="M182.847 65.85c.416.172.869.355 1.252.73.583.566.206 1.505-.548 2.414-.237.287-.352.793-.351 1.298 0 .504.121 1.006.351 1.284.753.909 1.131 1.848.548 2.414-.383.373-.836.555-1.252.729-.04-.22-.035-.507.022-.875.073-.478.071-.976-.165-1.279-.184-.236-.295-.14-.866-.5a2.55 2.55 0 0 1-.832-.817c-.185-.304-.085-.632-.085-.96s-.101-.656.085-.96c.185-.305.463-.586.832-.819.571-.359.683-.263.866-.5.236-.302.238-.8.165-1.278-.057-.368-.062-.656-.022-.875zM164.479 63.19c.484.615.426.762.689.939.343.227.808.148 1.239-.017 1.771-.678 1.771.729 1.257 2.343-.249.782-1.005 1.63-1.341 2.294-.331.651-.26 1.14-.409 1.306-.642.106-1.193.184-1.444.213-.246.04-.793.11-1.424.178-.207-.118-.365-.58-.952-1.088-.588-.511-1.604-1.064-2.151-1.688-1.11-1.266-1.7-2.482.045-2.44.434.011.868-.068 1.063-.38.154-.244.038-.354.188-1.067.098-.468.269-.841.489-1.11.224-.272.55-.212.851-.268.303-.057.579-.236.914-.066.334.17.672.45.986.852Z"/><path fill="#EDB92E" stroke="#21231E" stroke-linejoin="round" stroke-width=".364" d="M167.249 63.92c-.066.518-.133 1.076-.391 1.573-.387.75-1.342.46-2.362-.254-.322-.226-.814-.278-1.268-.197-.453.08-.868.288-1.049.587-.582.962-1.28 1.502-1.935.953-.434-.365-.729-.835-1.003-1.267.176-.077.425-.115.762-.107.434.011.868-.068 1.063-.38.154-.244.039-.354.188-1.066.098-.469.269-.84.489-1.11.224-.273.55-.212.851-.268.303-.057.579-.237.914-.067.334.169.672.45.988.851.484.615.424.762.689.94.342.226.808.145 1.239-.018.333-.127.606-.18.825-.17ZM157.554 70.917c.282-.343.394-.267.446-.483.065-.278-.099-.715-.311-1.131-.85-1.666.054-1.525 1.28-.868.31.166.671.462 1.029.766.365.308.72.63 1.02.845.607.437.982.45 1.159.627.27.676.492 1.262.588 1.528.103.264.321.848.561 1.523-.039.188-.388.24-.649.72-.257.474-.458 1.334-.773 1.748-.46.607-.881.969-1.209.91-.328-.06-.561-.54-.648-1.598-.034-.41-.269-.846-.54-1.104-.212-.2-.259-.116-.782-.41a3.4 3.4 0 0 1-.855-.68c-.228-.255-.263-.54-.369-.82-.107-.282-.284-.559-.257-.826.028-.27.129-.527.31-.747Z"/><path fill="#EDB92E" stroke="#21231E" stroke-linejoin="round" stroke-width=".364" d="M157.408 68.22c.365.133.605.3 1.021.644.317.262.49.642.552 1.074.062.435.014.928-.107 1.416-.075.303.017.82.195 1.328.178.506.444 1.006.713 1.275.891.893 1.516 1.837 1.267 2.421-.162.383-.285.482-.54.656-.106-.219-.36-.414-.445-.785-.111-.478-.289-.974-.571-1.27-.219-.233-.267-.493-.809-.831-.351-.22-.65-.126-.889-.42-.462-.568-1.068-1.958-.476-2.593.585-.627.794-.98.301-2.059-.168-.364-.164-.634-.212-.856ZM172.971 72.739c-.466.401-.583.322-.713.564-.165.309-.088.776.054 1.215.56 1.733-.496 1.58-1.765.918-.631-.33-1.368-1.173-1.941-1.596-.575-.423-.978-.42-1.136-.594a49 49 0 0 1-.344-1.561 51 51 0 0 1-.324-1.607c.079-.214.475-.313.865-.896.395-.59.789-1.69 1.3-2.225 1.049-1.098 2.102-1.57 2.16.539.014.511.104 1.028.378 1.307.214.22.303.106.9.401.39.192.701.444.924.73.224.287.178.63.228.958.049.327.194.643.064.963a2.3 2.3 0 0 1-.65.884Z"/><path fill="#EDB92E" stroke="#21231E" stroke-linejoin="round" stroke-width=".364" d="M172.46 75.326c-.396-.122-.828-.25-1.226-.558-.607-.469-.43-1.377.09-2.315.167-.3.187-.805.1-1.3-.087-.497-.281-.984-.543-1.234-.854-.824-1.377-1.733-.943-2.4.29-.445.685-.704 1.047-.949.077.23.128.536.139.931.013.511.102 1.027.376 1.307.214.22.303.106.901.401.389.192.7.444.923.73.224.287.178.63.228.958.049.327.194.643.064.963a2.3 2.3 0 0 1-.65.883c-.466.401-.583.322-.713.564-.165.308-.088.775.054 1.215.107.334.157.598.153.803z"/><path fill="#EDB92E" stroke="#21231E" stroke-linecap="round" stroke-width=".364" d="m163.786 92.019 8.018-4.702 8.528 3.681-8.018 4.665zM154.129 88.666l8.674 3.425-7.162 4.683c-1.854-.621-3.325-6.968-1.512-8.127z"/><path fill="#21231E" d="M188.058 70.88a6.57 6.57 0 0 0-3.498 1.568q1.057-1.53 3.535-1.895zM188.058 69.642a6.57 6.57 0 0 1-3.498-1.567q1.057 1.53 3.535 1.895zM146.876 72.594q-.802-1.13-.474-2.296-.765.948.219 2.405zM163.932 70.261a9.05 9.05 0 0 0-2.296-3.498q1.64.91 2.588 3.498zM164.989 70.116q-.255-2.115.583-3.973-1.13 1.349-.838 4.045zM163.021 73.031q-1.494.401-2.186 1.786.364-1.64 2.114-2.114zM162.584 71.792q-1.713-.183-3.353-1.421 1.494 1.53 3.498 1.749zM167.067 71.1q1.676-.438 2.842-1.968-.656 1.676-2.806 2.296zM167.322 72.266q1.75.036 3.353 1.166-1.203-1.385-3.462-1.458z"/><path fill="#C6363C" stroke="#21231E" stroke-width=".364" d="M172.273 93.98c-2.008.141-3.715-.885-3.813-2.29s1.449-2.659 3.457-2.8c2.008-.14 3.715.886 3.814 2.291.098 1.406-1.45 2.66-3.458 2.8Z"/><path fill="#EDB92E" stroke="#21231E" stroke-linejoin="round" stroke-width=".364" d="M164.406 69.205c1.467-.073 2.884 1.21 3.093 2.782.208 1.57-.818 2.79-2.225 2.807-1.406.016-2.713-1.135-2.982-2.651s.647-2.866 2.114-2.939Z"/><path fill="#EDB92E" stroke="#21231E" stroke-linejoin="round" stroke-width=".364" d="M164.515 69.97c1.073-.047 2.103.883 2.26 2.031.159 1.15-.578 2.059-1.624 2.076-1.033.019-2.012-.852-2.201-1.96-.195-1.132.492-2.1 1.565-2.147Z"/><path fill="#0C4076" stroke="#21231E" stroke-width=".364" d="M147.206 73.858c.958-.373 2.274 1.872 1.075 2.382-.81.345-1.45-.108-1.709-.785-.261-.677-.038-1.335.634-1.597ZM154.42 90.16c2.077-.219 3.826.729 3.972 2.113.146 1.385-1.421 2.624-3.499 2.843-1.385.146-2.15-.729-2.296-2.114s.438-2.697 1.823-2.842ZM164.624 70.735c.671-.025 1.313.552 1.417 1.271.104.72-.359 1.3-1.016 1.315-.658.013-1.276-.534-1.393-1.241-.117-.709.321-1.32.992-1.345Z"/><path fill="#fff" stroke="#21231E" stroke-linejoin="round" stroke-width=".364" d="M190.5 61.515a2.332 2.332 0 1 0 .001-4.665 2.332 2.332 0 0 0-.001 4.665Z"/><path fill="#fff" stroke="#21231E" stroke-linejoin="round" stroke-width=".364" d="M190.5 57.141a2.332 2.332 0 1 0 .001-4.664 2.332 2.332 0 0 0-.001 4.664Z"/><path fill="#fff" stroke="#21231E" stroke-linejoin="round" stroke-width=".364" d="M190.5 52.95a2.332 2.332 0 1 0 .001-4.664 2.332 2.332 0 0 0-.001 4.664ZM190.5 41.106a2.332 2.332 0 1 0 .001-4.665 2.332 2.332 0 0 0-.001 4.665Z"/><path fill="#fff" stroke="#21231E" stroke-linejoin="round" stroke-width=".364" d="M190.5 44.75a2.332 2.332 0 1 0 .001-4.664 2.332 2.332 0 0 0-.001 4.664Z"/><path fill="#fff" stroke="#21231E" stroke-linejoin="round" stroke-width=".364" d="M190.5 48.76a2.332 2.332 0 1 0 .001-4.665 2.332 2.332 0 0 0-.001 4.664Z"/><path fill="#EDB92E" stroke="#21231E" stroke-linejoin="round" stroke-width=".364" d="M190.5 60.64c.328 0 .656-.11.948.073.291.182.583.474.801.838.328.547.219.73.511.875a2.1 2.1 0 0 0 1.275.182c1.895-.291 1.677.838.802 2.15-.437.656-1.421 1.312-1.932 1.86-.51.546-.546 1.02-.765 1.165h-3.28c-.219-.145-.255-.62-.765-1.166-.51-.547-1.494-1.203-1.932-1.859-.874-1.312-1.093-2.441.802-2.15.474.073.911 0 1.276-.182.291-.146.182-.328.51-.875.218-.364.51-.656.802-.838.291-.182.619-.073.947-.073Z"/><path fill="#21231E" d="M191.083 67.783q.255-1.968 1.603-3.499-1.566 1.057-1.931 3.572zM189.917 67.783q-.255-1.968-1.603-3.499 1.566 1.057 1.931 3.572z"/><path fill="#EDB92E" stroke="#21231E" stroke-linejoin="round" stroke-width=".364" d="M190.501 60.64c.328 0 .656-.109.947.073.292.182.583.474.802.838.328.547.219.73.51.875.365.182.802.255 1.276.182a2.5 2.5 0 0 1 .874-.036c-.182.4-.364.911-.729 1.275-.546.547-1.312.146-2.405-.583-.328-.218-.765-.328-1.275-.328-.511 0-.948.11-1.276.328-1.093.73-1.859 1.13-2.405.583-.365-.364-.547-.874-.729-1.275a2.5 2.5 0 0 1 .874.036c.474.073.912 0 1.276-.182.292-.146.182-.328.51-.875.219-.364.51-.656.802-.838s.62-.073.948-.073ZM190.501 67.437a2.83 2.83 0 0 1 2.818 2.84 2.83 2.83 0 0 1-2.818 2.838c-1.556 0-2.817-1.271-2.817-2.839s1.261-2.839 2.817-2.839ZM226.216 98.36q0-.983-1.786-1.13a416.3 416.3 0 0 0-67.859 0q-1.786.147-1.786 1.13 0 .984 1.786 1.13a416 416 0 0 0 67.859 0q1.786-.146 1.786-1.13Z"/><path fill="#EDB92E" stroke="#21231E" stroke-linejoin="round" stroke-width=".364" d="M190.501 73.068a2.807 2.807 0 1 0-.001-5.613 2.807 2.807 0 0 0 .001 5.613Z"/><path fill="#EDB92E" stroke="#21231E" stroke-linejoin="round" stroke-width=".364" d="M190.5 72.339a2.078 2.078 0 1 0 0-4.156 2.078 2.078 0 0 0 0 4.156Z"/><path fill="#0C4076" stroke="#21231E" stroke-width=".364" d="M190.5 93.44c2.013 0 3.644-1.142 3.644-2.551s-1.631-2.551-3.644-2.551-3.645 1.142-3.645 2.55c0 1.41 1.632 2.552 3.645 2.552ZM190.5 71.61a1.348 1.348 0 1 0 0-2.696 1.348 1.348 0 0 0 0 2.696Z"/><path stroke="#21231E" stroke-linecap="round" stroke-width=".364" d="M173.371 99.636q-3.862-.292-8.382-.766a358 358 0 0 1 51.022 0q-4.518.474-8.382.766"/><path fill="#C6363C" stroke="#fff" stroke-width=".911" d="M252 100.091v100.131c0 16.4-7.289 32.436-18.222 44.098S207.538 264 190.5 264s-32.344-8.018-43.278-19.68S129 216.622 129 200.222V100.091z"/><path fill="#fff" stroke="#21231E" stroke-linejoin="round" stroke-width=".364" d="M189.942 258.093c-.53-.088-1.426.024-2.103-.508-.9-.708-.543-3.567-.462-5.376.414-9.24.792-24.795 1.263-46.638a6 6 0 0 1 1.856.029 6 6 0 0 1 1.857-.029c.47 21.845.848 37.399 1.262 46.638.081 1.809.439 4.668-.462 5.376-.677.532-1.572.42-2.103.508z"/><path fill="#fff" stroke="#21231E" stroke-linejoin="round" stroke-width=".364" d="M184.155 257.826c.536-.038 1.418.155 2.14-.314.96-.623 1.04-3.547 1.122-5.356.424-9.239 1.279-24.72 2.787-46.517a6 6 0 0 0-1.852-.14l-.252-.059c-3.472 21.563-4.783 36.86-7.161 46.088-.328 1.273-1.033 4.465.064 5.503.626.591 1.528.561 2.048.696l1.104.101z"/><path fill="#fff" stroke="#21231E" stroke-linejoin="round" stroke-width=".364" d="M177.343 256.857c.538.01 1.399.283 2.16-.119 1.013-.533.972-3.452 1.424-5.204 2.377-9.228 3.688-24.53 7.162-46.102a6 6 0 0 0-1.831-.308c-5.521 20.969-7.177 35.75-11.462 44.881-.397 1.266-1.477 4.626-.444 5.796.57.646 1.47.698 1.977.88l1.093.2z"/><path fill="#fff" stroke="#21231E" stroke-linejoin="round" stroke-width=".364" d="M170.514 254.918c.534.064 1.434.561 2.231.238 1.061-.431 1.227-3.553 1.991-5.179 4.305-9.172 5.955-24.047 11.538-45.169a6.1 6.1 0 0 0-1.792-.487c-.484-.222-.392-.337-1.161-.449-6.486 20.861-8.593 35.371-14.711 44.374-.988 1.454-1.711 4.365-1.041 5.294.503.699 1.394.84 1.88 1.071l1.065.307ZM196.837 257.826c-.536-.038-1.418.155-2.14-.314-.961-.623-1.039-3.547-1.122-5.356-.424-9.239-1.279-24.72-2.787-46.517a6 6 0 0 1 1.852-.14q.124-.031.252-.059c3.472 21.563 4.783 36.86 7.161 46.088.328 1.273 1.033 4.465-.064 5.503-.626.591-1.528.561-2.048.696l-1.104.101z"/><path fill="#fff" stroke="#21231E" stroke-linejoin="round" stroke-width=".364" d="M203.656 256.857c-.537.01-1.398.283-2.16-.119-1.012-.533-.971-3.452-1.423-5.204-2.378-9.228-3.689-24.53-7.163-46.102a6 6 0 0 1 1.832-.308c5.521 20.969 7.177 35.75 11.462 44.881.397 1.266 1.477 4.626.444 5.796-.57.646-1.471.698-1.977.88l-1.093.2z"/><path fill="#fff" stroke="#21231E" stroke-linejoin="round" stroke-width=".364" d="M210.483 254.918c-.534.064-1.434.561-2.232.238-1.061-.431-1.227-3.553-1.99-5.179-4.305-9.172-5.956-24.047-11.538-45.169a6.1 6.1 0 0 1 1.792-.487c.484-.222.392-.337 1.161-.449 6.486 20.861 8.593 35.371 14.711 44.374.987 1.454 1.711 4.365 1.041 5.294-.504.699-1.395.84-1.881 1.071l-1.065.307zM174.133 239.16c.489.03 1.225.328 1.991-.038 1.02-.487 1.686-3.304 2.233-5.056 4.342-8.579 8.306-23.815 14.808-44.991-.63-.265-1.133-.333-1.615-.369a4.8 4.8 0 0 0-1.596-.423c-7.003 20.954-10.147 36.107-16.991 44.451-1.131 1.377-1.971 4.382-1.433 5.253.403.655 1.216.739 1.645.936l.958.236z"/><path fill="#fff" stroke="#21231E" stroke-linejoin="round" stroke-width=".364" d="M179.672 240.246c.49-.01 1.258.229 1.978-.197.959-.566 1.298-3.424 1.641-5.212 1.75-9.13 4.977-24.453 9.564-45.963a4.9 4.9 0 0 0-1.65-.239 4.9 4.9 0 0 0-1.637-.294c-5.42 21.377-6.674 37.385-11.799 45.603-.934 1.497-1.458 4.52-.823 5.344.478.619 1.296.638 1.749.8l.981.159z"/><path fill="#fff" stroke="#21231E" stroke-linejoin="round" stroke-width=".364" d="M185.31 240.888c.487-.049 1.277.127 1.946-.354.89-.64.898-3.512 1.034-5.318.691-9.228 2.141-24.739 4.232-46.518a4.9 4.9 0 0 0-1.67-.105 4.9 4.9 0 0 0-1.663-.162c-2.936 21.711-4.642 37.432-6.499 46.335-.371 1.776-.93 4.615-.204 5.385.547.579 1.364.531 1.829.657z"/><path fill="#fff" stroke="#21231E" stroke-linejoin="round" stroke-width=".364" d="M206.863 239.16c-.488.03-1.224.328-1.991-.038-1.02-.487-1.686-3.304-2.233-5.056-4.342-8.579-8.306-23.815-14.808-44.991.63-.265 1.133-.333 1.615-.369.428-.188.895-.36 1.596-.423 7.003 20.954 10.147 36.107 16.991 44.451 1.13 1.377 1.971 4.382 1.433 5.253-.403.655-1.216.739-1.645.936l-.958.236z"/><path fill="#fff" stroke="#21231E" stroke-linejoin="round" stroke-width=".364" d="M201.324 240.246c-.489-.01-1.256.229-1.978-.197-.959-.566-1.297-3.424-1.64-5.212-1.749-9.13-4.978-24.453-9.564-45.963a4.9 4.9 0 0 1 1.65-.239 4.9 4.9 0 0 1 1.637-.294c5.42 21.377 6.673 37.385 11.8 45.603.934 1.497 1.458 4.52.822 5.344-.477.619-1.296.638-1.745.8l-.982.159z"/><path fill="#fff" stroke="#21231E" stroke-linejoin="round" stroke-width=".364" d="M195.682 240.888c-.486-.049-1.277.127-1.946-.354-.89-.64-.898-3.512-1.034-5.318-.691-9.228-2.141-24.739-4.232-46.518a4.9 4.9 0 0 1 1.67-.105c.464-.117.96-.212 1.663-.162 2.936 21.711 4.642 37.432 6.499 46.335.371 1.776.931 4.615.204 5.385-.547.579-1.363.531-1.829.657l-.996.08z"/><path fill="#fff" stroke="#21231E" stroke-linejoin="round" stroke-width=".364" d="M189.997 241.073c-.478-.087-1.286.025-1.896-.507-.812-.708-.49-3.567-.417-5.376.373-9.241.714-24.796 1.138-46.642a5 5 0 0 1 1.675.029 5 5 0 0 1 1.674-.029c.424 21.845.766 37.399 1.139 46.642.073 1.809.395 4.668-.417 5.376-.611.532-1.418.42-1.896.507z"/><path fill="#fff" stroke="#21231E" stroke-linejoin="round" stroke-width=".364" d="M177.963 226.452c.375.029.938.328 1.526-.038.781-.487 1.291-3.304 1.709-5.056 3.326-8.579 6.363-23.815 11.343-44.991l-2.459-.792c-5.364 20.954-7.773 36.107-13.015 44.451-.866 1.378-1.509 4.383-1.098 5.254.31.654.932.738 1.26.935q.37.118.734.237Z"/><path fill="#fff" stroke="#21231E" stroke-linejoin="round" stroke-width=".364" d="M182.205 227.541c.375-.01.963.229 1.515-.197.735-.565.994-3.423 1.256-5.211 1.34-9.131 3.813-24.454 7.326-45.964l-2.518-.533c-4.151 21.378-5.111 37.385-9.038 45.603-.716 1.498-1.116 4.52-.63 5.344.364.62.992.638 1.337.8l.752.158Z"/><path fill="#fff" stroke="#21231E" stroke-linejoin="round" stroke-width=".364" d="M186.524 228.183c.372-.05.978.127 1.49-.354.682-.64.688-3.512.792-5.318.529-9.228 1.64-24.739 3.242-46.518l-2.551-.267c-2.249 21.711-3.555 37.432-4.978 46.335-.284 1.776-.713 4.615-.156 5.385.418.579 1.044.532 1.401.657l.762.08z"/><path fill="#fff" stroke="#21231E" stroke-linejoin="round" stroke-width=".364" d="M203.033 226.452c-.374.029-.938.328-1.526-.038-.78-.487-1.29-3.304-1.709-5.056-3.326-8.579-6.362-23.815-11.343-44.991l2.46-.792c5.363 20.954 7.772 36.107 13.014 44.451.866 1.378 1.509 4.383 1.098 5.254-.31.654-.932.738-1.26.935z"/><path fill="#fff" stroke="#21231E" stroke-linejoin="round" stroke-width=".364" d="M198.791 227.541c-.375-.01-.962.229-1.515-.197-.734-.565-.994-3.423-1.256-5.211-1.34-9.131-3.813-24.454-7.326-45.964l2.518-.533c4.151 21.378 5.111 37.385 9.038 45.603.715 1.498 1.116 4.52.63 5.344-.365.62-.993.638-1.337.8l-.752.158Z"/><path fill="#fff" stroke="#21231E" stroke-linejoin="round" stroke-width=".364" d="M194.469 228.183c-.373-.05-.978.127-1.49-.354-.682-.64-.689-3.512-.792-5.318-.53-9.228-1.64-24.739-3.242-46.518l2.551-.267c2.249 21.711 3.556 37.432 4.979 46.335.284 1.776.712 4.615.155 5.385-.418.579-1.043.532-1.4.657l-.763.08z"/><path fill="#fff" stroke="#21231E" stroke-linejoin="round" stroke-width=".364" d="M190.114 228.369c-.365-.088-.986.025-1.453-.508-.622-.707-.376-3.566-.32-5.376.286-9.241.548-24.795.873-46.641h2.565c.325 21.845.586 37.399.872 46.641.056 1.81.303 4.669-.319 5.376-.468.533-1.086.42-1.453.508z"/><path fill="#fff" stroke="#21231E" stroke-linejoin="round" stroke-width=".364" d="M197.096 199.931c0 1.749-4.337 20.19-6.596 20.19s-6.597-18.441-6.597-20.19z"/><path fill="#EDB92E" stroke="#21231E" stroke-linejoin="round" stroke-width=".364" d="M220.385 222.819c.109 0 .219.255.255.364.365 1.093 1.786 2.916 2.879 4.009 1.713 1.713 1.239 4.373.146 5.831-1.203 1.604-1.895 3.353-2.15 4.628-.182.912-.437 2.77-.219 5.686.11 1.458.984 2.15 1.786 2.806.401.328-.292 1.203-1.604 2.187-.145.109-.51.328-.728 1.093-.037.109-.693.109-.729 0-.219-.765-.583-.984-.729-1.093-1.312-.984-2.005-1.859-1.604-2.187.802-.656 1.677-1.348 1.786-2.806.219-2.916-.036-4.774-.219-5.686-.255-1.275-.947-3.024-2.15-4.628-1.093-1.458-1.567-4.118.146-5.831 1.093-1.093 2.515-2.916 2.879-4.009.036-.109.146-.364.255-.364Z"/><path fill="#EDB92E" stroke="#21231E" stroke-linejoin="round" stroke-width=".364" d="M225.013 245.852c-2.915 2.186-5.612-3.062-2.988-10.059 1.968-5.248 11.407-3.061 6.05 3.827-.255.328-.62.182-.547-.183.292-1.457-.51-2.296-2.041-2.004-3.826.729-3.972 8.018.219 6.378.765-.073.036 1.494-.693 2.041ZM215.757 245.852c2.916 2.186 5.612-3.062 2.988-10.059-1.968-5.248-11.407-3.061-6.049 3.827.255.328.619.182.546-.183-.291-1.457.511-2.296 2.041-2.004 3.827.729 3.973 8.018-.218 6.378-.766-.073-.037 1.494.692 2.041Z"/><path fill="#EDB92E" stroke="#21231E" stroke-linejoin="round" stroke-width=".364" d="M218.198 240.13c-.338 0-.662.134-.902.373a1.278 1.278 0 0 0 .902 2.178h4.374a1.275 1.275 0 1 0 0-2.551zM222.608 207.512c1.822 4.009 4.008 7.653 6.195 10.933 1.093.365 1.822.911 2.551 1.13s5.831.146 6.014-.219c1.64-1.275 4.191-.182 3.097 1.276.729.729-.729 2.697-1.822 1.822-1.093-.874-4.738 0-5.831-.364.364 1.093 4.009 1.713 6.196 1.822s1.822 2.187 1.093 4.009l-.729.364c-.729 1.458-2.843 1.021-2.916-.364s-5.102-3.28-5.831-4.373c.729 2.186 2.916 4.373 4.009 6.56 1.094 1.093 1.822 1.093.365 3.28l-2.551.364c-2.187 0-2.552-.729-2.187-2.551.364-1.822-1.349-5.102-1.822-6.05-.438-.875-.547-1.786-.984-2.296-.766-1.02-4.665-2.697-5.576-2.223-1.823.948-3.098.364-3.28-1.458.364-.364 0-2.915 1.312-3.134 1.093-.182 1.603.364 2.514 1.093 1.458 1.167 2.26 1.823 2.697 1.713 1.166-.291-2.077-1.858-4.993-5.722-2.915-3.863-4.081-9.621 2.479-5.612Z"/><path fill="#EDB92E" stroke="#21231E" stroke-linejoin="round" stroke-width=".364" d="M240.4 221.557c1.462-.857 2.303-.823 2.87-.185.312.351.71.169.477-.381-.972-2.302-2.523-2.588-3.915-1.509-.389.364-.702.671-1.016.981.234.345 1.396.829 1.584 1.093zM219.46 219.498c-1.552-1.056-3.007-1.264-3.804-.67-.438.327-.871.092-.485-.45 1.61-2.267 3.496-2.382 4.92-1.104.386.419.694.776 1 1.133-.487.534-1.564 1.137-1.631 1.093zM231.686 232.495c-.047-.094.357-1.983.989-2.573.491.394 1.043.742 1.562 1.284 1.552 1.622 1.545 4.013-.88 6.096-.599.515-.872-.028-.63-.619.414-1.012-.089-2.303-1.041-4.188ZM237.732 227.52c1.442.599 1.94 1.358 1.887 2.355-.029.549.331.753.535.116 1.763-4.098-.066-4.865-2.708-4.716-.152.714.224 2.219.286 2.245Z"/><path stroke="#21231E" stroke-linecap="round" stroke-width=".364" d="M218.308 210.391c.692-.656 1.421-1.349 2.113-.547.693.802.328 1.567-.692 2.624.656-.437 1.458-1.895 2.187-.875s.073 1.895-.729 2.734c.838-.693 1.494-1.75 2.223-.875s0 1.749-.656 2.405c.729-.583 1.458-1.129 1.895-.619.656.765.109 1.275-.583 1.931.802-.583 1.348-1.166 1.931-.51.584.656-.182 1.458-.619 1.749"/><path fill="#fff" stroke="#21231E" stroke-linejoin="round" stroke-width=".364" d="M218.435 161.227c-.066 3.163.494 24.257.671 27.238.176 2.968 1.491 4.991 2.893 6.151 1.285-1.767 2.052-4.152 2.235-6.981.093-1.443-.173-21.405-.283-25.512z"/><path fill="#fff" stroke="#21231E" stroke-linejoin="round" stroke-width=".364" d="m232.146 156.063.895 29.004c.282 2.573-3.068 17.884-4.899 20.905-4.532-1.938-5.489-12.326-4.636-22.448s-.143-18.864-.834-20.683z"/><path fill="#fff" stroke="#21231E" stroke-linejoin="round" stroke-width=".364" d="m237.517 160.808-.615 29.011c.148 2.586-3.995 17.691-5.98 20.607-4.597-3.568-3.672-18.152-2.968-22.566 1.404-8.794 1.166-18.979.681-20.635z"/><path fill="#fff" stroke="#21231E" stroke-linejoin="round" stroke-width=".364" d="m241.505 167.678-7.621-.194c.647 3.164.129 12.994-1.186 20.487-1.232 7.025-2.954 25.245 4.359 29.62 4.535-9.613 1.082-18.956 3.368-27.304zM212.367 155.899l1.495 27.204c.266 2.961 1.642 4.94 3.078 6.055 1.231-1.807 1.926-4.216 2.023-7.049.049-1.445-.821-21.389-1.056-25.487zM225.907 138.716c.203 6.795.318 21.541.276 22.795-.096 2.833-1.214 6.44-2.445 8.247-1.436-1.114-2.812-3.094-3.078-6.055-.218-2.434-.295-14.389-.332-20.381z"/><path fill="#fff" stroke="#21231E" stroke-linejoin="round" stroke-width=".364" d="M220.462 143.096c.135 7.322.056 18.855.024 19.793-.097 2.834-.792 5.242-2.023 7.05-1.436-1.115-2.953-3.166-3.218-6.126-.164-1.823-.67-9.64-.718-15.64zM225.145 138.103l5.189-7.478c1.049 3.689 2.328 30.164.827 32.335-.097 2.834-1.12 5.232-2.351 7.039-1.436-1.114-3.58-3.118-2.96-6.115.618-2.997-.076-22.689-.705-25.781Z"/><path fill="#fff" stroke="#21231E" stroke-linejoin="round" stroke-width=".364" d="m235.786 154.755.353 8.314c-.097 2.835-.792 5.242-2.023 7.05-1.437-1.114-3.266-3.088-3.078-6.055.729-11.465-.528-22.265-1.987-32.646l4.537-2.782z"/><path fill="#fff" stroke="#21231E" stroke-linejoin="round" stroke-width=".364" d="m240.976 162.255-1.407 5.332c-.097 2.834-1.846 5.174-3.078 6.982-1.436-1.115-2.741-2.948-2.374-5.897 2.106-16.934 1.353-28.137-2.199-41.937 8.032 5.483 11.755 17.052 9.058 35.517zM240.564 167.503l7.371-2.448c.939 7.37-.505 16.627-2.489 28.833-1.705 10.482-.809 18.777.494 24.098-7.863-1.077-11.186-11.215-7.245-30.283 1.032-4.991 2.069-11.371 1.869-20.2Z"/><path fill="#fff" stroke="#21231E" stroke-linejoin="round" stroke-width=".364" d="M237.71 133.448c1.809 8.847 3.002 19.271 1.634 30.704-.507 4.243-1.407 7.712-2.726 10.394 5.306-.603 8.707-5.785 8.267-14.822l-1.192-25.261z"/><path fill="#fff" stroke="#21231E" stroke-linejoin="round" stroke-width=".364" d="M241.562 134.599c.397 2.292 1.76 4.994 2.042 7.919.935 9.692.939 21.829-1.974 29.588 5.306-.603 7.127-5.414 7.299-14.461.142-7.479.167-16.298-1.71-26.481zM230.535 132.425l4.896-.571c.9 4.63 1.588 7.904 1.755 9.553.328 3.235-.653 6.201-1.774 8.41-1.805-1.089-2.644-3.467-3.403-6.801zM217.834 142.852l4.346.045c.149 3.995.256 6.699.185 8.106-.139 2.761-.828 5.102-2.006 6.85-1.32-1.101-2.569-3.043-2.766-5.931-.198-2.9.214-5.988.241-9.07Z"/><path fill="#fff" stroke="#21231E" stroke-linejoin="round" stroke-width=".364" d="M217.493 145.112c.01 3.998.023 6.703-.096 8.108-.236 2.754-1.005 5.068-2.244 6.775-1.282-1.146-2.462-3.131-2.558-6.024zM222.259 140.607l4.335-.307c.471 3.969.798 6.655.841 8.064.085 2.763-.412 5.15-1.446 6.99-1.405-.989-2.807-2.824-3.237-5.687-.432-2.875-.271-5.985-.493-9.06Z"/><path fill="#fff" stroke="#21231E" stroke-linejoin="round" stroke-width=".364" d="M231.073 133.953c.811 3.216 1.906 13.8-.041 18.271-1.584-1.077-3.18-3.096-3.713-6.278-.534-3.196-.695-6.596-1.001-10.018zM214.054 197.408l7.191 3.694c2.071 4.577 4.03 7.014 6.514 9.162-3.6.673-6.651-.04-8.616-2.68-2.652-3.563-4.07-5.721-4.95-6.196z"/><path fill="#fff" stroke="#21231E" stroke-linejoin="round" stroke-width=".364" d="M215.564 200.101c1.761 3.591 2.96 6.018 3.459 7.335.98 2.584 1.247 5.018.794 7.119-1.744-.444-3.759-1.688-5.121-4.246z"/><path fill="#fff" stroke="#21231E" stroke-linejoin="round" stroke-width=".364" d="M214.639 201.203c.833 3.912 1.404 6.56 1.567 7.959.32 2.745-.013 5.17-.965 7.098-1.583-.857-3.234-2.557-3.931-5.37-.7-2.825-.786-5.94-1.279-8.983z"/><path fill="#fff" stroke="#21231E" stroke-linejoin="round" stroke-width=".364" d="M205.256 203.595c2.425 4.399 3.204 7.429 3.439 10.708 2.69-2.489 3.943-5.366 3.004-8.522-1.266-4.259-2.497-9.154-2.353-10.146z"/><path fill="#fff" stroke="#21231E" stroke-linejoin="round" stroke-width=".364" d="M212.515 192.161c1.553 3.687 2.611 6.178 3.034 7.522.83 2.636.958 5.081.385 7.154-1.717-.544-3.891-1.668-5.103-4.299-1.217-2.643-1.652-5.921-2.708-8.817z"/><path fill="#fff" stroke="#21231E" stroke-linejoin="round" stroke-width=".364" d="M212.07 184.674c1.01-.274 2.35 2.088 3.662 3.466.303.317.65.616.915 1.008a8.5 8.5 0 0 1 1.245 2.899c1.097 4.904 2.697 7.455 4.692 10.064-3.661-.075-6.504-1.395-7.891-4.381-1.873-4.029-2.822-6.431-3.587-7.077zM201.118 208.037c-3.099 3.951-4.354 6.816-5.111 10.015-2.256-2.89-3.032-5.93-1.599-8.895 5.302-6.094 5.263-6.066 6.71-1.12Z"/><path fill="#fff" stroke="#21231E" stroke-linejoin="round" stroke-width=".364" d="M200.258 205.147c-3.099 3.952-6.319 6.941-7.076 10.139-2.256-2.89-3.215-5.93-1.783-8.895z"/><path fill="#fff" stroke="#21231E" stroke-linejoin="round" stroke-width=".364" d="M205.925 203.867c-3.099 3.952-4.354 6.818-5.111 10.016-2.256-2.89-3.032-5.93-1.6-8.895z"/><path fill="#EDB92E" stroke="#21231E" stroke-linejoin="round" stroke-width=".364" d="M160.615 222.819c-.109 0-.219.255-.255.364-.365 1.093-1.786 2.916-2.879 4.009-1.713 1.713-1.239 4.373-.146 5.831 1.203 1.604 1.895 3.353 2.15 4.628.182.912.437 2.77.219 5.686-.11 1.458-.984 2.15-1.786 2.806-.401.328.292 1.203 1.604 2.187.145.109.51.328.728 1.093.037.109.693.109.729 0 .219-.765.583-.984.729-1.093 1.312-.984 2.005-1.859 1.604-2.187-.802-.656-1.677-1.348-1.786-2.806-.219-2.916.036-4.774.219-5.686.255-1.275.947-3.024 2.15-4.628 1.093-1.458 1.567-4.118-.146-5.831-1.093-1.093-2.515-2.916-2.879-4.009-.036-.109-.146-.364-.255-.364Z"/><path fill="#EDB92E" stroke="#21231E" stroke-linejoin="round" stroke-width=".364" d="M155.987 245.852c2.915 2.186 5.612-3.062 2.988-10.059-1.968-5.248-11.407-3.061-6.05 3.827.255.328.62.182.547-.183-.292-1.457.51-2.296 2.041-2.004 3.826.729 3.972 8.018-.219 6.378-.765-.073-.036 1.494.693 2.041ZM165.243 245.852c-2.916 2.186-5.612-3.062-2.988-10.059 1.968-5.248 11.407-3.061 6.049 3.827-.255.328-.619.182-.546-.183.291-1.457-.511-2.296-2.041-2.004-3.827.729-3.973 8.018.218 6.378.766-.073.037 1.494-.692 2.041Z"/><path fill="#EDB92E" stroke="#21231E" stroke-linejoin="round" stroke-width=".364" d="M162.802 240.13c.338 0 .662.134.902.373a1.278 1.278 0 0 1-.902 2.178h-4.374a1.275 1.275 0 1 1 0-2.551zM158.392 207.512c-1.822 4.009-4.008 7.653-6.195 10.933-1.093.365-1.822.911-2.551 1.13s-5.831.146-6.014-.219c-1.64-1.275-4.191-.182-3.097 1.276-.729.729.729 2.697 1.822 1.822 1.093-.874 4.738 0 5.831-.364-.364 1.093-4.009 1.713-6.196 1.822s-1.822 2.187-1.093 4.009l.729.364c.729 1.458 2.843 1.021 2.916-.364s5.102-3.28 5.831-4.373c-.729 2.186-2.916 4.373-4.009 6.56-1.094 1.093-1.822 1.093-.365 3.28l2.551.364c2.187 0 2.552-.729 2.187-2.551-.364-1.822 1.349-5.102 1.822-6.05.438-.875.547-1.786.984-2.296.766-1.02 4.665-2.697 5.576-2.223 1.823.948 3.098.364 3.28-1.458-.364-.364 0-2.915-1.312-3.134-1.093-.182-1.603.364-2.514 1.093-1.458 1.167-2.26 1.823-2.697 1.713-1.166-.291 2.077-1.858 4.993-5.722 2.915-3.863 4.081-9.621-2.479-5.612Z"/><path fill="#EDB92E" stroke="#21231E" stroke-linejoin="round" stroke-width=".364" d="M140.6 221.557c-1.462-.857-2.303-.823-2.87-.185-.312.351-.71.169-.477-.381.972-2.302 2.523-2.588 3.915-1.509.389.364.702.671 1.016.981-.234.345-1.396.829-1.584 1.093zM161.54 219.498c1.552-1.056 3.007-1.264 3.804-.67.438.327.871.092.485-.45-1.61-2.267-3.496-2.382-4.92-1.104-.386.419-.694.776-1 1.133.487.534 1.564 1.137 1.631 1.093zM149.314 232.495c.047-.094-.357-1.983-.989-2.573-.491.394-1.043.742-1.562 1.284-1.552 1.622-1.545 4.013.88 6.096.599.515.872-.028.63-.619-.414-1.012.089-2.303 1.041-4.188ZM143.268 227.52c-1.442.599-1.94 1.358-1.887 2.355.029.549-.331.753-.535.116-1.763-4.098.066-4.865 2.708-4.716.152.714-.224 2.219-.286 2.245Z"/><path stroke="#21231E" stroke-linecap="round" stroke-width=".364" d="M162.692 210.391c-.692-.656-1.421-1.349-2.113-.547-.693.802-.328 1.567.692 2.624-.656-.437-1.458-1.895-2.187-.875s-.073 1.895.729 2.734c-.838-.693-1.494-1.75-2.223-.875s0 1.749.656 2.405c-.729-.583-1.458-1.129-1.895-.619-.656.765-.109 1.275.583 1.931-.802-.583-1.348-1.166-1.931-.51-.584.656.182 1.458.619 1.749"/><path fill="#fff" stroke="#21231E" stroke-linejoin="round" stroke-width=".364" d="M162.565 161.227c.066 3.163-.494 24.257-.671 27.238-.176 2.968-1.491 4.991-2.893 6.151-1.285-1.767-2.052-4.152-2.235-6.981-.093-1.443.173-21.405.283-25.512z"/><path fill="#fff" stroke="#21231E" stroke-linejoin="round" stroke-width=".364" d="m148.854 156.063-.895 29.004c-.282 2.573 3.068 17.884 4.899 20.905 4.532-1.938 5.489-12.326 4.636-22.448s.143-18.864.834-20.683z"/><path fill="#fff" stroke="#21231E" stroke-linejoin="round" stroke-width=".364" d="m143.483 160.808.615 29.011c-.148 2.586 3.995 17.691 5.98 20.607 4.597-3.568 3.672-18.152 2.968-22.566-1.404-8.794-1.166-18.979-.681-20.635z"/><path fill="#fff" stroke="#21231E" stroke-linejoin="round" stroke-width=".364" d="m139.495 167.678 7.621-.194c-.647 3.164-.129 12.994 1.186 20.487 1.232 7.025 2.954 25.245-4.359 29.62-4.535-9.613-1.082-18.956-3.368-27.304zM168.633 155.899l-1.495 27.204c-.266 2.961-1.642 4.94-3.078 6.055-1.231-1.807-1.926-4.216-2.023-7.049-.049-1.445.821-21.389 1.056-25.487zM155.093 138.716c-.203 6.795-.318 21.541-.276 22.795.096 2.833 1.214 6.44 2.445 8.247 1.436-1.114 2.812-3.094 3.078-6.055.218-2.434.295-14.389.332-20.381z"/><path fill="#fff" stroke="#21231E" stroke-linejoin="round" stroke-width=".364" d="M160.538 143.096c-.135 7.322-.056 18.855-.024 19.793.097 2.834.792 5.242 2.023 7.05 1.436-1.115 2.953-3.166 3.218-6.126.164-1.823.67-9.64.718-15.64zM155.855 138.103l-5.189-7.478c-1.049 3.689-2.328 30.164-.827 32.335.097 2.834 1.12 5.232 2.351 7.039 1.436-1.114 3.58-3.118 2.96-6.115-.618-2.997.076-22.689.705-25.781Z"/><path fill="#fff" stroke="#21231E" stroke-linejoin="round" stroke-width=".364" d="m145.214 154.755-.353 8.314c.097 2.835.792 5.242 2.023 7.05 1.437-1.114 3.266-3.088 3.078-6.055-.729-11.465.528-22.265 1.987-32.646l-4.537-2.782z"/><path fill="#fff" stroke="#21231E" stroke-linejoin="round" stroke-width=".364" d="m140.024 162.255 1.407 5.332c.097 2.834 1.846 5.174 3.078 6.982 1.436-1.115 2.741-2.948 2.374-5.897-2.106-16.934-1.353-28.137 2.199-41.937-8.032 5.483-11.755 17.052-9.058 35.517zM140.436 167.503l-7.371-2.448c-.939 7.37.505 16.627 2.489 28.833 1.705 10.482.809 18.777-.494 24.098 7.863-1.077 11.186-11.215 7.245-30.283-1.032-4.991-2.069-11.371-1.869-20.2Z"/><path fill="#fff" stroke="#21231E" stroke-linejoin="round" stroke-width=".364" d="M143.29 133.448c-1.809 8.847-3.002 19.271-1.634 30.704.507 4.243 1.407 7.712 2.726 10.394-5.306-.603-8.707-5.785-8.267-14.822l1.192-25.261z"/><path fill="#fff" stroke="#21231E" stroke-linejoin="round" stroke-width=".364" d="M139.438 134.599c-.397 2.292-1.76 4.994-2.042 7.919-.935 9.692-.939 21.829 1.974 29.588-5.306-.603-7.127-5.414-7.299-14.461-.142-7.479-.167-16.298 1.71-26.481zM150.465 132.425l-4.896-.571c-.9 4.63-1.588 7.904-1.755 9.553-.328 3.235.653 6.201 1.774 8.41 1.805-1.089 2.644-3.467 3.403-6.801zM163.166 142.852l-4.346.045c-.149 3.995-.256 6.699-.185 8.106.139 2.761.828 5.102 2.006 6.85 1.32-1.101 2.569-3.043 2.766-5.931.198-2.9-.214-5.988-.241-9.07Z"/><path fill="#fff" stroke="#21231E" stroke-linejoin="round" stroke-width=".364" d="M163.507 145.112c-.01 3.998-.023 6.703.096 8.108.236 2.754 1.005 5.068 2.244 6.775 1.282-1.146 2.462-3.131 2.558-6.024zM158.741 140.607l-4.335-.307c-.471 3.969-.798 6.655-.841 8.064-.085 2.763.412 5.15 1.446 6.99 1.405-.989 2.807-2.824 3.237-5.687.432-2.875.271-5.985.493-9.06Z"/><path fill="#fff" stroke="#21231E" stroke-linejoin="round" stroke-width=".364" d="M149.927 133.953c-.811 3.216-1.906 13.8.041 18.271 1.584-1.077 3.18-3.096 3.713-6.278.534-3.196.695-6.596 1.001-10.018zM166.946 197.408l-7.191 3.694c-2.071 4.577-4.03 7.014-6.514 9.162 3.6.673 6.651-.04 8.616-2.68 2.652-3.563 4.07-5.721 4.95-6.196z"/><path fill="#fff" stroke="#21231E" stroke-linejoin="round" stroke-width=".364" d="M165.436 200.101c-1.761 3.591-2.96 6.018-3.459 7.335-.98 2.584-1.247 5.018-.794 7.119 1.744-.444 3.759-1.688 5.121-4.246z"/><path fill="#fff" stroke="#21231E" stroke-linejoin="round" stroke-width=".364" d="M166.361 201.203c-.833 3.912-1.404 6.56-1.567 7.959-.32 2.745.013 5.17.965 7.098 1.583-.857 3.234-2.557 3.931-5.37.7-2.825.786-5.94 1.279-8.983z"/><path fill="#fff" stroke="#21231E" stroke-linejoin="round" stroke-width=".364" d="M175.744 203.595c-2.425 4.399-3.204 7.429-3.439 10.708-2.69-2.489-3.943-5.366-3.004-8.522 1.266-4.259 2.497-9.154 2.353-10.146z"/><path fill="#fff" stroke="#21231E" stroke-linejoin="round" stroke-width=".364" d="M168.485 192.161c-1.553 3.687-2.611 6.178-3.034 7.522-.83 2.636-.958 5.081-.385 7.154 1.717-.544 3.891-1.668 5.103-4.299 1.217-2.643 1.652-5.921 2.708-8.817z"/><path fill="#fff" stroke="#21231E" stroke-linejoin="round" stroke-width=".364" d="M168.93 184.674c-1.01-.274-2.35 2.088-3.662 3.466-.303.317-.65.616-.915 1.008a8.5 8.5 0 0 0-1.245 2.899c-1.097 4.904-2.697 7.455-4.692 10.064 3.661-.075 6.504-1.395 7.891-4.381 1.873-4.029 2.822-6.431 3.587-7.077zM179.882 208.037c3.099 3.951 4.354 6.816 5.111 10.015 2.256-2.89 3.032-5.93 1.599-8.895-5.302-6.094-5.263-6.066-6.71-1.12Z"/><path fill="#fff" stroke="#21231E" stroke-linejoin="round" stroke-width=".364" d="M180.742 205.147c3.099 3.952 6.319 6.941 7.076 10.139 2.256-2.89 3.215-5.93 1.783-8.895z"/><path fill="#fff" stroke="#21231E" stroke-linejoin="round" stroke-width=".364" d="M175.075 203.867c3.099 3.952 4.354 6.818 5.111 10.016 2.256-2.89 3.032-5.93 1.6-8.895zM190.5 131.524c-.693-7.835-2.114-13.302-5.503-18.769 1.567.183 3.207-.145 2.442-3.936-2.224-.51-3.062.328-9.257-2.624-5.066-2.368-12.501-3.243-12.027-.692.947 5.102 4.3 8.747 7.763 11.334 1.64 4.082 5.648 11.808 2.879 16.072-2.77 4.264-5.066 6.305-7.836 8.054.62.219 1.203.401 1.786.511-.437.583-4.009 1.676-4.446 1.385-2.843-1.896-5.467-6.524-7.799-9.184-6.67-7.544-10.168-13.448-8.82-18.077 1.494-5.139 7.653-10.751-.255-9.767s-14.541 12.063-16.509 24.855c-.729 4.738-1.239 8.893-1.786 12.209 4.3-1.531 6.232-3.098 7.362-4.993-.511 1.822-.911 3.535-1.167 5.139 3.536-.62 5.977-2.406 6.998-5.503a18 18 0 0 1 1.312-3.244c1.093.401 2.478.365 4.191-.036.656 1.53 5.503 6.961 8.127 10.933 2.915 4.483 7.362 7.908 8.819 8.127h47.451c1.458-.219 5.904-3.644 8.82-8.127 2.624-3.972 7.471-9.403 8.127-10.933 1.713.401 3.098.437 4.191.036.474.911.947 2.005 1.312 3.244 1.02 3.097 3.462 4.883 6.997 5.503-.255-1.604-.656-3.317-1.166-5.139 1.13 1.895 3.061 3.462 7.362 4.993-.547-3.316-1.057-7.471-1.786-12.209-1.968-12.792-8.601-23.871-16.509-24.855-7.909-.984-1.75 4.628-.255 9.767 1.348 4.629-2.151 10.533-8.82 18.077-2.332 2.66-4.956 7.288-7.799 9.184-.437.291-4.009-.802-4.446-1.385.583-.11 1.166-.292 1.786-.511-2.77-1.749-5.066-3.79-7.836-8.054s1.239-11.99 2.879-16.072c3.462-2.587 6.815-6.232 7.763-11.334.473-2.551-6.961-1.676-12.027.692-6.196 2.952-7.034 2.114-9.257 2.624-.765 3.791.875 4.119 2.442 3.936-3.389 5.467-4.811 10.934-5.503 18.769Z"/><path fill="#EDB92E" stroke="#21231E" stroke-linejoin="round" stroke-width=".364" d="m205.224 120.19 6.961 1.021c5.393.255 8.528-1.458 9.22-4.92-2.004 2.405-4.483 3.608-7.216 2.952-3.644-.875-5.94-1.677-6.779-1.458z"/><path fill="#EDB92E" stroke="#21231E" stroke-linejoin="round" stroke-width=".364" d="M218.27 106.123c6.05.656 5.759 4.555.11 10.204-1.167 1.13-1.385 1.094-1.677-.073-.51-2.041-2.587-3.025-3.681-1.603-.729.947-.619 1.567-3.17 1.202-3.244 2.734-5.831 4.665-1.64 4.483 1.676-.073 3.316 1.021 5.721.911-.692 1.422-.838 1.604-1.239 1.677-2.405.364-4.81-.984-7.216-.547-5.211.948 8.346-14.104 8.2-14.687-.364-1.458 3.244-4.228 4.592-1.567Z"/><path fill="#21231E" d="m209.634 110.897.798-.799q.583-.74-.675-1.969c-.614.267-1.105.472-1.597.677q.492 1.66 1.474 2.091M218.927 109.622a.51.51 0 1 0 0-1.02.51.51 0 0 0 0 1.02"/><path stroke="#21231E" stroke-linecap="round" stroke-linejoin="round" stroke-width=".364" d="M244.328 171.322c-.292 6.56-.729 11.662-2.004 17.129-1.276 5.467-1.458 9.111-1.64 14.578M241.631 172.087c3.062-8.127 2.989-20.7 1.932-29.01-1.057-8.309-6.268-19.206-8.164-20.445M218.27 106.123q-.364 1.821-3.061 3.863M202.017 138.704q3.899 4.374 9.985 2.296"/><path stroke="#21231E" stroke-linecap="round" stroke-linejoin="round" stroke-width=".364" d="M201.58 136.481q0 1.64 1.713 6.013-3.645-.838-5.431-3.316"/><path stroke="#21231E" stroke-linecap="round" stroke-linejoin="round" stroke-width=".364" d="M198.35 136.189q-.474 3.755-2.004 5.831-2.042-1.494-2.843-4.373M206.099 109.694c.583 1.13 1.64 2.588 2.915 1.822 1.822-1.093 2.15-2.478 2.989-3.753"/><path stroke="#21231E" stroke-linecap="round" stroke-linejoin="round" stroke-width=".364" d="M204.386 109.913c.765.036 1.603-.292 3.462-.948s3.863-1.457 5.758-1.312M199.538 112.027q-1.422.437-3.535.729"/><path fill="#EDB92E" stroke="#21231E" stroke-linejoin="round" stroke-width=".364" d="m175.776 120.19-6.961 1.021c-5.393.255-8.528-1.458-9.22-4.92 2.004 2.405 4.483 3.608 7.216 2.952 3.644-.875 5.94-1.677 6.779-1.458z"/><path fill="#EDB92E" stroke="#21231E" stroke-linejoin="round" stroke-width=".364" d="M162.73 106.123c-6.05.656-5.759 4.555-.11 10.204 1.167 1.13 1.385 1.094 1.677-.073.51-2.041 2.587-3.025 3.681-1.603.729.947.619 1.567 3.17 1.202 3.244 2.734 5.831 4.665 1.64 4.483-1.676-.073-3.316 1.021-5.721.911.692 1.422.838 1.604 1.239 1.677 2.405.364 4.81-.984 7.216-.547 5.211.948-8.346-14.104-8.2-14.687.364-1.458-3.244-4.228-4.592-1.567Z"/><path fill="#21231E" d="m171.366 110.897-.798-.799q-.583-.74.675-1.969c.614.267 1.105.472 1.597.677q-.492 1.66-1.474 2.091M162.073 109.622a.51.51 0 1 1 0-1.02.51.51 0 0 1 0 1.02"/><path stroke="#21231E" stroke-linecap="round" stroke-linejoin="round" stroke-width=".364" d="M136.672 171.322c.292 6.56.729 11.662 2.004 17.129 1.276 5.467 1.458 9.111 1.64 14.578M139.369 172.087c-3.062-8.127-2.989-20.7-1.932-29.01 1.057-8.309 6.268-19.206 8.164-20.445M162.73 106.123q.364 1.821 3.061 3.863M178.983 138.704q-3.899 4.374-9.985 2.296"/><path stroke="#21231E" stroke-linecap="round" stroke-linejoin="round" stroke-width=".364" d="M179.42 136.481q0 1.64-1.713 6.013 3.645-.838 5.431-3.316"/><path stroke="#21231E" stroke-linecap="round" stroke-linejoin="round" stroke-width=".364" d="M182.65 136.189q.474 3.755 2.004 5.831 2.042-1.494 2.843-4.373M174.901 109.694c-.583 1.13-1.64 2.588-2.915 1.822-1.822-1.093-2.15-2.478-2.989-3.753"/><path stroke="#21231E" stroke-linecap="round" stroke-linejoin="round" stroke-width=".364" d="M176.614 109.913c-.765.036-1.603-.292-3.462-.948s-3.863-1.457-5.758-1.312M181.462 112.027q1.422.437 3.535.729"/><path fill="#fff" d="M187.256 135.606q.291 4.264 3.243 8.091 2.99-3.826 3.244-8.091"/><path stroke="#21231E" stroke-linejoin="round" stroke-width=".364" d="M187.256 135.606q.291 4.264 3.243 8.091 2.99-3.826 3.244-8.091"/><path fill="#C6363C" stroke="#21231E" stroke-width=".911" d="M215.1 144.098v39.542c0 7.07-2.915 13.521-7.288 18.149s-10.752 7.909-17.312 7.909-12.937-3.28-17.311-7.909c-4.373-4.628-7.289-11.079-7.289-18.149v-39.542z"/><path fill="#fff" stroke="#21231E" stroke-linecap="round" stroke-width=".364" d="M214.918 168.333v10.205H195.42v30.249a22.4 22.4 0 0 1-9.84 0v-30.249h-19.498v-10.205h19.498V144.28h9.84v24.053z"/><path fill="#fff" stroke="#21231E" stroke-linejoin="round" stroke-width=".364" d="M198.882 182.729c2.915-1.093 10.933-3.645 10.933 2.733 0 3.062-3.717 5.066-4.738 2.369-.51-1.348.037-2.223.802-2.515.766-.291 1.604.365 1.385 1.349 3.207-1.713-3.025-5.212-5.649-.62-.729 1.276 1.349 2.77 1.349 3.791s-2.078 2.514-1.349 3.79c2.624 4.592 8.856 1.093 5.649-.62.219.984-.619 1.64-1.385 1.349-.765-.292-1.312-1.167-.802-2.515 1.021-2.697 4.738-.692 4.738 2.369 0 6.378-8.018 3.827-10.933 2.733zM182.118 149.929c-2.915-1.093-10.933-3.644-10.933 2.733 0 3.062 3.717 5.066 4.738 2.369.51-1.348-.037-2.223-.802-2.515-.766-.291-1.604.365-1.385 1.349-3.207-1.713 3.025-5.212 5.649-.62.729 1.276-1.349 2.77-1.349 3.791s2.078 2.514 1.349 3.79c-2.624 4.592-8.856 1.093-5.649-.62-.219.984.619 1.64 1.385 1.349.765-.292 1.312-1.166.802-2.515-1.021-2.697-4.738-.692-4.738 2.369 0 6.378 8.018 3.827 10.933 2.733zM198.882 149.929c2.915-1.093 10.933-3.644 10.933 2.733 0 3.062-3.717 5.066-4.738 2.369-.51-1.348.037-2.223.802-2.515.766-.291 1.604.365 1.385 1.349 3.207-1.713-3.025-5.212-5.649-.62-.729 1.276 1.349 2.77 1.349 3.791s-2.078 2.514-1.349 3.79c2.624 4.592 8.856 1.093 5.649-.62.219.984-.619 1.64-1.385 1.349-.765-.292-1.312-1.166-.802-2.515 1.021-2.697 4.738-.692 4.738 2.369 0 6.378-8.018 3.827-10.933 2.733zM182.118 182.729c-2.915-1.093-10.933-3.645-10.933 2.733 0 3.062 3.717 5.066 4.738 2.369.51-1.348-.037-2.223-.802-2.515-.766-.291-1.604.365-1.385 1.349-3.207-1.713 3.025-5.212 5.649-.62.729 1.276-1.349 2.77-1.349 3.791s2.078 2.514 1.349 3.79c-2.624 4.592-8.856 1.093-5.649-.62-.219.984.619 1.64 1.385 1.349.765-.292 1.312-1.167.802-2.515-1.021-2.697-4.738-.692-4.738 2.369 0 6.378 8.018 3.827 10.933 2.733z"/></g><defs><clipPath id="a"><path fill="#fff" d="M0 0h600v300H0z"/></clipPath></defs></svg>