<svg xmlns="http://www.w3.org/2000/svg" width="600" height="300" fill="none"><g clip-path="url(#a)"><path fill="#000" d="M0 0h600v300H0z"/><path fill="#DF0000" fill-rule="evenodd" d="M0 0h600v150H0z" clip-rule="evenodd"/><path fill="#fff" fill-rule="evenodd" d="M0 150h600v150H0zM114.843 18.275a57.934 57.934 0 0 0-32.627 93.377 57.94 57.94 0 0 0 33.176 20.022 59.049 59.049 0 0 1-44.996-5.057 59.04 59.04 0 0 1-28.178-35.443 59.033 59.033 0 0 1 40.5-72.762c10.982-3.158 21.142-3.226 32.193-.137z" clip-rule="evenodd"/><path fill="#fff" fill-rule="evenodd" d="m105.919 66.187 3.364 10.297-8.924-6.315-8.786 6.452 3.226-10.434-8.786-6.384 10.914-.137 3.432-10.296 3.432 10.296h10.846zm12.013 35.695 3.432 10.365-8.924-6.315-8.855 6.384 3.295-10.366-8.786-6.452 10.914-.069 3.364-10.365 3.432 10.297h10.983zm40.156-.275 3.364 10.434-8.924-6.384-8.786 6.384 3.226-10.365-8.786-6.384 10.914-.137 3.432-10.297 3.432 10.297h10.846zm11.944-35.42 3.364 10.365-8.924-6.315-8.786 6.384 3.295-10.365-8.855-6.453 10.983-.068 3.295-10.365 3.432 10.296h10.983zM138.25 42.642l3.433 10.434-8.924-6.384-8.855 6.453 3.295-10.434-8.787-6.453 10.846-.068 3.432-10.365 3.433 10.296h10.982z" clip-rule="evenodd"/></g><defs><clipPath id="a"><path fill="#fff" d="M0 0h600v300H0z"/></clipPath></defs></svg>