<svg xmlns="http://www.w3.org/2000/svg" width="600" height="300" fill="none"><g clip-path="url(#a)"><path fill="red" d="M0 0h600v300H0z"/><path fill="#00F" d="M0 0h600v200H0z"/><path fill="#fff" d="M0 0h600v100H0z"/><path fill="#00F" d="M113.623 57.66a90.22 90.22 0 0 1 72.754 0q5.699 80.598-36.377 91.361-42.076-10.763-36.377-91.362"/><path fill="#FF0" d="m150 67.315 1.101 2.497 2.712-.295-1.611 2.202 1.611 2.201-2.712-.295L150 76.122l-1.101-2.497-2.712.295 1.611-2.201-1.611-2.202 2.712.295M139.726 53.616l1.1 2.497 2.713-.295-1.612 2.201 1.612 2.202-2.713-.295-1.1 2.497-1.101-2.497-2.713.295 1.612-2.202-1.612-2.201 2.713.295M160.274 53.616l1.101 2.497 2.713-.295-1.612 2.201 1.612 2.202-2.713-.295-1.101 2.497-1.101-2.497-2.712.295 1.612-2.202-1.612-2.201 2.712.295"/><path fill="#fff" d="m150 81.504 8.807 17.613 5.871-7.828 14.678 19.57c0 .91-.127 1.814-.377 2.689A45.4 45.4 0 0 1 150 144.04a45.4 45.4 0 0 1-28.979-30.492 9.8 9.8 0 0 1-.376-2.689l14.677-19.57 5.871 7.828z"/><path fill="#00F" d="M121.021 113.548a9.778 9.778 0 0 0 10.089 7.073 9.8 9.8 0 0 0 4.212-1.287 9.79 9.79 0 0 1 9.785 0 9.8 9.8 0 0 0 9.786 0 9.78 9.78 0 0 1 9.785 0 9.785 9.785 0 0 0 14.301-5.786l.377.136v7.163a9.8 9.8 0 0 0-4.893 1.311 9.79 9.79 0 0 1-9.785 0 9.792 9.792 0 0 0-9.785 0 9.79 9.79 0 0 1-9.786 0 9.79 9.79 0 0 0-9.785 0 9.78 9.78 0 0 1-9.785 0 9.8 9.8 0 0 0-4.892-1.311v-7.163"/><path fill="#00F" d="M121.021 119.197a9.8 9.8 0 0 0 5.739 6.383 9.8 9.8 0 0 0 4.35.69 9.8 9.8 0 0 0 4.212-1.287 9.79 9.79 0 0 1 9.785 0 9.79 9.79 0 0 0 9.786 0 9.78 9.78 0 0 1 9.785 0 9.8 9.8 0 0 0 4.212 1.287 9.77 9.77 0 0 0 7.957-3.219 9.8 9.8 0 0 0 2.132-3.854l.377.137v7.163a9.8 9.8 0 0 0-4.893 1.311 9.79 9.79 0 0 1-9.785 0 9.79 9.79 0 0 0-9.785 0 9.79 9.79 0 0 1-9.786 0 9.78 9.78 0 0 0-9.785 0 9.78 9.78 0 0 1-9.785 0 9.8 9.8 0 0 0-4.892-1.311v-7.163"/><path fill="red" d="M110.859 58.933a91 91 0 0 1 2.764-1.274l2.907 46.43a48.24 48.24 0 0 0 33.47 42.94 48.25 48.25 0 0 0 33.47-42.94l2.907-46.43q1.392.614 2.764 1.274l-2.838 45.333A51.09 51.09 0 0 1 150 150a51.085 51.085 0 0 1-36.302-45.734z"/></g><defs><clipPath id="a"><path fill="#fff" d="M0 0h600v300H0z"/></clipPath></defs></svg>