<svg xmlns="http://www.w3.org/2000/svg" width="600" height="300" fill="none"><g clip-path="url(#a)"><path fill="#EE1C25" d="M0 0h600v300H0z"/><path fill="#0B4EA2" d="M0 0h600v200H0z"/><path fill="#fff" d="M0 0h600v100H0z"/><path fill="#fff" d="M149.5 235.315C121.34 221.76 81 194.779 81 141.537 81 88.23 83.62 64 83.62 64h131.826S218 88.23 218 141.537s-40.34 80.157-68.5 93.778"/><path fill="#EE1C25" d="M149.5 228.243c-25.868-12.443-62.868-37.197-62.868-86.051s2.357-71.12 2.357-71.12H210.01s2.292 22.266 2.292 71.12c.066 48.919-36.935 73.608-62.802 86.051"/><path fill="#fff" d="M155.001 129.357c7.007.131 20.694.392 32.809-3.668 0 0-.262 4.388-.262 9.43 0 5.043.327 9.431.327 9.431-11.132-3.733-24.95-3.799-32.874-3.733v26.981h-11.002v-26.981c-7.859-.066-21.677 0-32.81 3.733 0 0 .328-4.388.328-9.431 0-5.108-.328-9.43-.328-9.43 12.116 4.06 25.803 3.799 32.744 3.668v-16.962c-6.352 0-15.52.262-25.933 3.733 0 0 .328-4.322.328-9.43 0-5.043-.328-9.43-.328-9.43 10.413 3.47 19.581 3.798 25.933 3.732-.327-10.74-3.471-24.23-3.471-24.23s6.484.458 9.038.458c2.619 0 9.037-.458 9.037-.458s-3.143 13.49-3.471 24.23c6.352.066 15.521-.262 25.933-3.732 0 0-.327 4.387-.327 9.43 0 5.108.327 9.43.327 9.43a78 78 0 0 0-25.998-3.733v17.027z"/><path fill="#0B4EA2" d="M149.5 164.916c-13.032 0-19.974 18.009-19.974 18.009s-3.929-8.513-14.538-8.513c-7.204 0-12.443 6.352-15.848 12.311 13.097 20.76 33.988 33.596 50.36 41.519 16.371-7.858 37.327-20.759 50.36-41.519-3.406-5.893-8.645-12.311-15.848-12.311-10.609 0-14.539 8.513-14.539 8.513s-6.876-18.009-19.973-18.009"/></g><defs><clipPath id="a"><path fill="#fff" d="M0 0h600v300H0z"/></clipPath></defs></svg>