<svg xmlns="http://www.w3.org/2000/svg" width="600" height="300" fill="none"><g clip-path="url(#a)"><path fill="#012169" d="M0 0h600v300H0z"/><path fill="#6A4C2D" stroke="#000" stroke-width=".828" d="M442.134 212.448s-1.664 4.392-2.613 4.392c-.948 0-4.392-1.898-4.392-1.898s-2.493 4.039-3.8 4.272c-1.307.239-4.749-.591-4.749-.591s-3.324 0-3.443-.477c-.12-.472.12-1.42.12-1.42s-4.749 3.795-5.818 3.556c-1.069-.233-4.63-4.744-4.63-4.744l-.594 2.375-6.766-.239-5.936-3.8s-3.325 5.46-3.444 5.34c-.118-.119-5.817 1.307-5.817 1.307l-.356-1.068-3.799-2.256s2.968-4.153 2.968-4.272-1.424-.596-1.424-.596l-2.138 1.784-4.392 2.846-4.393-2.017 1.899-3.562.238-2.614 3.443-5.22 42.146-40.962 20.776 38.348z"/><path fill="#fff" stroke="#000" stroke-width=".828" d="m472.077 214.932 10.97-.398-4.671-2.304 41.801-1.576-5.906-2.25-5.232-7.09-21.66-1.629s-1.63-1.237-4.278-.621c-.11-1.684-2.136-3.88-2.136-3.88l-13.334-1.014-8.327 5.684 5.624 14.402z"/><path fill="url(#b)" stroke="#000" stroke-width=".828" d="m429.392 92.083 1.103-3.756s1.933-3.259 1.933-4.7c0-1.435 1.44-3.144 1.44-3.144s4.417-1.272 5.356 1.436c4.754-7.184 10.333-.333 10.333-.333l1.545-1.823 3.15-3.866s4.476 4.198 4.531 4.914c.054.72.77.223.77.223l4.863-.387s2.306 1.808 1.824 5.246c1.714 1.014 3.259 6.96 3.259 6.96z"/><path fill="#656263" stroke="#000" stroke-width=".828" d="M472.082 136.776c.84-.512 3.482-1.352 3.16-5.217s-3.672-4.317-5.54-4.188c-1.873.129-3.547 1.739-3.547 1.739l-6.185-3.93s3.096-19.524 6.379-20.746c3.12-2.251 3.672-3.224 3.672-3.736 0-.517-1.158-1.808-1.158-1.808l-20.17-2.385-19.072 2.256s-1.481 2.255-1.287 3.159c.193.899.258 1.868 3.672 4.51 3.78 2.907 6.378 19.589 6.378 19.589s-5.346 2.639-5.669 2.315c-.322-.317-1.932-.64-2.772-.512-.834.13-3.606 1.546-3.606 5.217 0 3.677 2.772 5.803 2.772 5.803s18.232-2.126 20.94 2.896c2.643-6.056 19.971-3.929 22.033-4.963z"/><path fill="#000" stroke="#000" stroke-linejoin="round" stroke-opacity=".979" stroke-width=".776" d="M491.726 116.481s.203-2.121 1.713-3.13c1.515-1.008 11.606-1.515 14.03 0 2.419 1.515 3.328 8.982 3.328 8.982s1.516 2.624 1.615 4.541.303 3.229.303 3.229 8.073 10.498 8.172 19.982c.91 6.458.706 23.712-1.813 30.269-.104 8.178-3.532 13.523-3.532 13.523s.804 1.411.705 2.927c-.104 1.515-.909 2.925-.909 2.925l11.804 5.853-4.337-1.615s4.441 3.736 4.337 3.637c-.1-.104-4.944-2.325-4.944-2.325l2.927 2.926c-.099-.1-7.163-3.229-7.163-3.229s3.328 3.129 3.129 3.03c-.204-.099-5.35-2.524-5.35-2.524s3.229 3.434 3.129 3.23c-.099-.204-4.64-2.017-4.64-2.017l.199 1.714s-3.632-.204-3.632-2.927c-1.818-1.008-3.025-2.424-3.025-2.424l-8.376-1.411-9.489-28.357 2.221-47.931.606-2.42z"/><path fill="#FB0" stroke="#000" stroke-width=".822" d="M485.387 269.659s-4.86-10.219-7.279-10.363c-2.185-4.168 7.596-38.233 26.519-40.176 10.404.855.855 11.992-5.986 8.565.854 2.996 4.272 7.283 4.272 7.283s-13.538 5.852-17.526 34.691Z"/><path fill="#FB0" stroke="#000" stroke-width=".828" d="M420.246 271.15s4.024-11.636 6.464-11.78c2.444-.144-6.464-38.775-25.851-39.063-10.484.864-.861 12.063 6.032 8.615-.861 3.02-4.308 7.328-4.308 7.328s13.644 5.887 17.663 34.9Z"/><path fill="#00713D" stroke="#000" stroke-width=".828" d="M438.031 198.483c-.05-.094-4.814 1.496-1.729 6.682.234-2.007 2.379-3.224 2.379-3.224s-3.268 3.88.189 7.149c.423-3.086 2.385-4.064 2.385-4.064s-2.429 7.149.045 8.594c.283-2.851 2.101-4.108 2.101-4.108s-2.196 6.399-.233 7.844c.233-2.424 1.868-3.502 1.868-3.502s-.979 6.637 1.589 7.104c.05-2.339 1.918-4.624 1.918-4.624s-.844 5.414 3.174 5.653c.051-2.056.796-4.392.796-4.392s1.824 5.744 4.486 4.809c-.045-1.68.045-4.859 0-4.859-.05 0 1.679 5.465 4.858 4.442-.467-1.545.184-3.368.184-3.368s1.684 3.412 4.72 2.289c.516-1.028-.14-3.035-.14-3.035s4.437 4.581 5.793 1.824-3.552-3.692-3.552-3.692h3.319s-1.072-2.802-5.56-3.413c1.541-.701 3.131-.184 3.131-.184s-.935-3.507-5.515-3.88c1.779-.605 3.741-.184 3.741-.184s-.611-3.318-5.653-4.252c.794-.889 2.94-.606 2.94-.606s-2.007-3.13-4.297-2.947c-2.29.189-22.987-2.1-22.937-2.056Z"/><path stroke="#3EC26D" stroke-linecap="round" stroke-width=".776" d="M458.445 215.349s1.823.89 1.778 1.685m-.7-3.13s2.336 1.634 2.29 2.847m-.238-3.692s1.872 1.168 1.962 2.991m1.167-2.241s.939 2.008.611 2.38m1.263-1.306c.138 1.589-.144 1.728-.144 1.728m-22.893-11.774s2.196 1.401 2.012 3.363m-2.151-1.679s1.028.979.795 1.634m1.918-3.268s1.445 2.008.978 3.408m1.495-2.102s.656 1.262.05 1.962m1.118-1.355s.795 1.261.094 1.683m-.978 2.475s2.051.467 2.335 2.007m-1.124-3.408s2.152.138 2.385 2.429m.467-3.224c.045 0 1.446 2.479 1.212 3.269m1.545-3.036s.557 2.384.139 3.13m1.635-2.196.045 2.758m-2.752-6.494s1.352.512 1.256 1.824m.001-3.041s1.728.984 1.544 2.852m.467-3.641s1.496 1.773.935 3.736m1.678-3.32s-.556 2.196-.328 3.086m1.919-1.59s-.98.75-.468 1.684m-8.032 6.865s.322 1.685 0 1.963m-2.152-2.941s1.072 1.868.7 2.802m-2.991-2.896s1.218 1.4 1.168 2.523m-3.035-2.245s1.122 1.078 1.028 1.684m-2.007-.05s1.073 1.123 1.024 1.357"/><path fill="#fff" stroke="#000" stroke-width=".828" d="M423.202 138.792q7.728-.14 15.456-.277s10.208 0 11.312 3.313c1.932-4.417 10.76-4.138 10.76-4.138l16.002-.552c.094 12.877.184 25.754.278 38.632-3.125 14.988-13.98 25.569-25.938 30.076-14.258-4.6-23.27-16.648-26.211-30.355-.556-12.232-1.108-24.468-1.659-36.699Z"/><path fill="#006B00" stroke="#000" stroke-width=".828" d="m428.707 138.648 22.509 59.984 20.335-61.29c-6.31.408-19.843-.994-21.522 4.76-2.603-5.147-16.842-3.071-21.322-3.454Z"/><path fill="#FFC900" stroke="#006B00" stroke-linecap="round" stroke-width=".428" d="M444.027 171.124c.87.452.845-16.28 1.983-16.797.323-1.386.487-1.992.894-3.462-.978-1.735-5.36-1.65-6.985-.175.731 2.336 1.053 3.116 1.053 3.116 2.196 3.552 1.759 17.696 3.055 17.318Z"/><path fill="#CDAD56" stroke="#000" stroke-linejoin="round" stroke-width=".776" d="M437.996 41.8s1.595-1.806 1.664-2.24c.075-.434 7.229-.722 11.492-8.673 2.384-4.192 0-1.734 0-1.734l-.144-2.024s2.966-2.818 1.882-4.337c-1.088-1.518-.725 1.952-2.459 1.88s-.795-3.76-.795-3.76-.144-.433-.65-.65c-.726.072-.507 1.374-1.158 1.518-.65.145-1.227-3.035-1.227-3.035s-1.083-1.446-2.027 3.108c.507 4.842 3.616 3.902 3.616 7.083s-2.747 5.638-3.541 5.71c-.795.072-.507-2.675-.507-2.675s-.432-1.3-.72-1.3 1.589-.29 1.301-3.904c-.651-4.336-1.157 1.012-2.315.796s-.288-3.976.144-4.408-.506-2.242-3.035 2.383c-.219 2.241-.507-.577-1.014-.433-.864 1.808-.72 3.108.507 4.77 1.808 1.663 2.966 3.325 2.892 4.192-.07.868-1.014 2.82-2.311 2.82-1.301 0 .07-2.386 0-3.181-.074-.795-2.24-3.686-2.24-3.686s-1.521-2.457-1.377-2.53c.144-.071-.144-.433-.864 2.097-.725 2.53-1.595-1.663-1.595-1.663s-1.008 3.107 1.158 4.987c-1.659-.217-1.803.434-1.803.434 0 .867 2.24 1.229 2.528 2.746.288 1.518-2.315 2.385-2.315 2.385s1.088 1.518 4.119-1.445c.074 1.879-1.152 3.18-1.152 3.18 1.008.458 1.802.41 1.946 1.59Z"/><path fill="#CDAD56" stroke="#000" stroke-linejoin="round" stroke-width=".682" d="M428.08 41.8s-1.351-2.005-1.41-2.4c-.065-.394-6.648.5-9.762-7.53-2.025-3.815 0-1.578 0-1.578l.123-1.842s-2.156-2.637-1.235-4.018.542 1.776 1.726 1.782c1.472-.066.675-3.42.675-3.42s.122-.395.552-.593c.613.067.866 2.045 1.418 2.177.552.13 1.693-2.329 2.051-2.834.507-.072.488-2.038 1.287 2.105-.427 4.406-4.079 3.552-4.079 6.445s2.33 5.13 3.006 5.195.432-2.432.432-2.432.368-1.184.611-1.184c.248 0-2.146.459-1.898-2.83.552-3.078 1.774.2 2.758 0 .984-.196-.115-3.254.168-3.721.064-.467 1.511-2.472 2.072 1.953.184 2.04 1.296-1.754 1.724-1.623.74 1.644-.323 3.84-1.366 5.353-1.536 1.512-2.231 3.17-2.166 3.959.06.789.422 1.77 1.53 1.77 1.103 0 .373-1.376.432-2.099.059-.722 1.903-3.066 1.903-3.066.363-.577.059-1.657.442-2.156.601.006.849-.828 1.461 1.473.616 2.302 1.352-1.512 1.352-1.512s.858 2.828-.984 4.538c1.41-.198 1.534.394 1.534.394 0 .79-.67 1.118-.918 2.499-.248 1.38.735 2.17.735 2.17s-.92 1.382-3.498-1.315c-.064 1.71.984 2.893.984 2.893-.865.417-1.536.372-1.66 1.448Z"/><path fill="#FFC900" d="M467.795 147.595c-1.347-1.221-1.506-.153-2.167-.427-.328-.133-.581-.437-.864-.715-.243-.254-.536-.358-.859-.492-.125.363-.244.72-.368 1.083s.343.964.333 1.506c-.095.805-.423 1.475-1.436 1.749.288-.572.453-.596.363-1.297-.04-.348-1.018-.969-.899-1.296.178-.532.486-1.144.258-1.675-.413.283-.959.134-1.371.308-.353.154-.373.804-.86 1.073-.496.234-1.594.119-2.514-.402.562-.423 1.024-.139 1.585-.562.279-.213.268-1.122.547-1.336.283-.214.954-.437 1.232-.651-.253-.288-.239-.74-.492-1.028-.248-.288-1.366-.229-1.62-.512-.506-.576-.408-1.331-.914-1.903 1.307.467 1.118 1.104 1.446 1.053.616-.298 1.232-.352 1.555-.218.328.139.944.944 1.267 1.078.124-.363.303-.82.422-1.183.124-.362-.546-.988-.427-1.351.248-.72.855-1.361 1.098-2.086.089.7.204 1.286.293 1.982.044.347.73.531.776.879.044.352-.359 1.158-.319 1.511.378-.075.919-.025 1.291-.1.378-.075.627-.944 1-1.018.749-.15 1.291-.104 2.051.04-.561.521-.994.486-1.347.963-.277.214.11.915-.7 1.406-.304.179-1.103-.035-1.386.179.254.288.507.571.76.859.248.288 1.382.423 1.634.711.503.571.771 1.256.632 1.872m-34.612.592c1.346-1.222 1.505-.154 2.171-.428.322-.138.576-.441.859-.715.243-.253.536-.357.859-.496q.188.544.368 1.088c.124.363-.337.959-.328 1.5.09.81.418 1.475 1.431 1.754-.288-.571-.452-.602-.363-1.297.045-.348 1.019-.969.899-1.302-.178-.526-.486-1.142-.258-1.674.418.288.959.139 1.376.308.348.159.373.81.855 1.078.502.234 1.6.12 2.514-.402-.562-.427-1.024-.139-1.585-.566-.278-.209-.264-1.124-.546-1.332-.279-.214-.949-.442-1.232-.656.252-.283.238-.74.491-1.028.253-.284 1.371-.224 1.62-.512.506-.571.412-1.326.914-1.903-1.307.467-1.113 1.103-1.441 1.059-.621-.299-1.237-.358-1.56-.219-.323.134-.944.939-1.267 1.078-.124-.363-.297-.819-.422-1.183-.125-.363.552-.988.427-1.351-.243-.725-.854-1.361-1.098-2.086-.089.696-.204 1.281-.292 1.982-.045.347-.731.531-.776.879-.04.348.363 1.158.318 1.506-.378-.075-.919-.025-1.291-.094-.373-.08-.622-.95-.999-1.024-.75-.149-1.287-.104-2.052.04.561.526.994.487 1.347.968.277.214-.11.915.7 1.406.304.179 1.108-.034 1.386.179q-.381.426-.755.859c-.254.288-1.386.423-1.634.706-.508.576-.776 1.262-.636 1.878"/><path fill="#FFC900" stroke="#006B00" stroke-linecap="round" stroke-linejoin="round" stroke-width=".428" d="M466.587 151.461c-1.222.949-9.096 2.941-9.18 9.781-.08 6.842 1.38 8.401-.08 8.576-2.842 0-3.248-7.621-3.169-11 .084-3.378.163-2.856.163-2.856s1.948.516 1.789 2.166c-.164 1.644 1.947-4.074 1.217-5.629 1.296 1.296 3.006.78 3.006.691 0-.085-.974-1.124-1.382-1.903s1.461.432 1.461.432.08-1.301-1.545-1.212c-2.112 0 .328-.696.328-.696s1.217 1.128 2.032-.084c-.894-.954-2.196-1.476-2.196-1.476s-1.138-2.161-2.678-2.593c-1.788-.437-1.544.775-3.576.606-.403.775-.403.864.406 1.123-1.38.954-.65 2.856-.65 2.856s2.196-.949 2.112.607c-.08 1.56-1.298 1.301-2.112.348-.73-.432-.974.432-.974.432l1.138 1.212s-2.191-.084-2.762 1.386c1.217-.085 1.868.263 1.868.263s-2.519 1.123-2.763 1.729-.322-.69-.402-.69c-.084 0-2.439-.87-2.439-.87l-.815 3.746s1.63 1.624 2.519 1.104c.894-.518 2.519-2.078 3.492-1.645-2.841 2.165-5.683 5.28-7.228 5.717-.403-.347-1.784-1.733-2.355-1.043-.566.696-.159 1.56.571 1.476.731-.089-2.355.691-1.708 1.992.65 1.296.571 1.212 1.137.864.571-.347-.487-.432 1.624-1.038s2.032-1.212 2.032-1.212-.407.949-1.545 1.212c-1.137.258-2.027.258-1.784.606.244.343.731.949.568 1.296s2.354-1.817 3.005-.084c1.704-.089 2.842-2.165 2.032-3.378.079 1.297.894 1.734.402 2.34-.487.606 3.821-1.992 1.709-3.552.567 1.297.651 2.34.651 2.34s.973-.09 1.217-.437c.244-.343-.487.954-.164 1.212.323.263 1.868 1.734 1.217 2.772-.402-.606-.486-1.56-.973-1.47-.488.084-2.519 1.56-3.736 1.644s1.46 4.506 1.46 4.506-1.868-.264-2.112-.09-1.46-1.56-1.704-.516c-.407 1.296.408.775.408.775s-1.058-.517-1.624.089c-.572.606-1.138 1.212-.731 1.471.403.258 2.191.258 2.435.173.243-.084-2.032.175-2.191.432-.164.26-.487 1.213 0 1.56.487.348 1.704-.173 1.783-.432.084-.263.164.949.164.949s2.112.175 2.112-1.987c0-2.166.164 1.555.164 1.555s2.112.348 2.191-1.818c.084-2.161.243 1.476.243 1.476s1.381-.438 1.381-.78c0-.348-.079 4.327-1.053 5.629-1.546-1.044-2.519.69-2.519.69s.08 2.509-.084 3.114c-.159.607 1.057-.342 1.137-.605.084-.259 1.545-.949 1.624-1.123.085-.174.488-1.039.488-1.039s-.324 1.213-.889 1.387c-.572.168-1.139.775-.895 1.296.244.52 1.138.864 1.46 1.386.324.517 1.461-3.03 1.461-3.03l.085.78s1.46-.348 1.624-1.039c.16-.695-1.544-1.301-.164-2.424 1.382-1.128 0 1.039 0 1.039s.488 1.644.81 1.644c.328 0 1.138-3.12.328-3.895-.815-.78 1.217.949 1.217.949s1.138-3.205-.08-3.637c-1.221-.432-1.788-.606-1.788-.606s.651-.864.323-.949c-.323-.089 1.709 1.903 2.032 1.382.328-.517.815-2.077-1.54-2.942-2.36-.864-.084-3.294-.084-3.294s1.465 1.734 2.518.78c1.054-.948-.079-.948-.079-.948s3-1.908 3.085-2.862c-.572-.084-1.544.09-1.544.09s1.708-1.128 1.3-2.947c-.65.955-1.544.955-1.544.955s1.465-1.471 1.216-2.857c-.888.69-.809 1.212-1.38 1.038-.567-.174-1.54-5.629.735-5.976 2.27-.344 1.053 2.687 1.133 2.687.084 0 3.412-1.386 0-3.636.814-.264 2.518 1.296 2.518 1.296s-.73-3.81-4.386-1.47c.894-.954 1.465-1.56 2.196-1.386.73.173 3.328-.09 3.328-.864-.646-.522-2.027.258-2.762 0-.73-.264 5.202-.696 4.714-3.637"/><path stroke="#006B00" stroke-linecap="round" stroke-width=".428" d="M440.839 153.707s3.25-1.818 4.874.436m1.299 3.462c-.082 0-1.138 1.125-1.382 1.125m3.576 2.512s3.003.26 4.953-2.945"/><path stroke="#006B00" stroke-linecap="round" stroke-width=".428" d="M452.453 160.289s.245 1.733.733 1.733c.485 0-.812.433-1.3.085.567.781.894 2.166 0 2.684"/><path fill="#E80000" d="M450.909 182.111s-1.055 1.21-2.355 1.298Z"/><path stroke="#006B00" stroke-linecap="round" stroke-width=".428" d="M450.909 182.111s-1.055 1.21-2.355 1.298M452.13 176.567s-.65-3.461-.244-4.33c.244-1.125 1.3-1.558 2.111-3.029"/><path stroke="#006B00" stroke-linecap="round" stroke-width=".428" d="M451.804 174.056s-.812 2.079-4.386 1.386m5.362-6.581s.241 2.771-3.006 1.733m-.976-14.2s-1.3 1.21-.812 2.856"/><path fill="#006B00" d="M453.669 153.362s1.706-.693 2.032-1.04c.324-.345.894-1.038 1.056-1.559.162-.518-1.138-1.298-.488-2.424.406-.519.973-.606 1.95 0 .973.606-.894-1.904-1.868-1.99-.976-.088-1.626.692-1.867.519-.244-.174.08.693-.327.693-.406 0 .812.692.732 1.126-.082.433 1.298 1.904 1.218 2.251-.082.346-2.032 2.336-2.438 2.424"/><path fill="#FFC900" stroke="#FFC900" stroke-linecap="round" stroke-linejoin="round" stroke-width=".428" d="M454.891 147.647c.74-.18.86.02.73.693-.348-.187-.475-.344-.73-.693"/><path fill="#E80000" stroke="#006B00" stroke-linejoin="round" stroke-width=".428" d="M449.702 186.226s-.273 1.812.396 1.962c-.035-.701.143-1.179.307-1.366-.143-.07-.671-.585-.703-.596Zm-1.506-2.232c-.616-.093-1.653.45-1.356 1.106.501-.458.963.037 1.313-.43.106-.13.077-.512.043-.676Zm-.006-1.295s-.968-.164-1.103.551c.668-.09.867-.167 1.09-.017.064-.152.003-.497.013-.534Z"/><path fill="#E80000" stroke="#006B00" stroke-linejoin="round" stroke-width=".457" d="M444.086 172.486s.581.232.746.866c.461-.306.682-1.649-.746-.866Zm-1.438 1.542c.024-.011 1.218-.784 1.34-.045-.252.268-.363.444-.56.503-.153 0-.461-.503-.78-.458Zm-.119 2.503c.021-.012.767-.713 1.053-.246.284.469-.231.444-.231.444s-.262-.128-.822-.198Zm-1.053-13.937c-.011 0-.955-.388-1.35.313.626.083.846.317 1.13.552-.077-.294-.207-.738.22-.865Zm-1.83 5.249s.042-1.18.567-1.66c.297.175.385.455.584.806-.395.093-.923.118-1.151.854Zm2.52-.843s-1.04.515-.701 1.077c.34-.387.714-.268.714-.28 0-.011 0-.783-.013-.797Z"/><path fill="#FFC900" stroke="#006B00" stroke-linejoin="round" stroke-width=".457" d="M440.664 155.704c-.374.447.462 1.417 1.337 1.276.221-1.052-1.116-1.601-1.337-1.276Z"/><path fill="#E80000" stroke="#006B00" stroke-linejoin="round" stroke-width=".457" d="M441.63 154.898s.164.832.92.608c-.119-.642-.647-1.123-.647-1.123-.032.19.109.481-.273.515Zm.504 2.41s.416.478 1.239-.504c-.372.116-1.03-.235-1.03-.235s0 .679-.209.739Z"/><path fill="#FFC900" stroke="#006B00" stroke-linejoin="round" stroke-width=".457" d="M440.617 153.798c-.372.444.156 1.064 1.031.925.221-1.052-.811-1.25-1.031-.925Z"/><path fill="url(#c)" d="M440.967 149.643s3.498-.999 5.356.501c1.853 1.496 1.853.139 1.853.139s2.712.999 3.497.785-.571.075.497-.571c1.073-.641-2.141.144-2.424-1.212-.502-.855.069-1.928-1.069-1.57-.785-.999.497-1.709.214-2.782-.785.571-1.217-.214-1.858 1.212-1.495-.283-.214-2.355-1.853-2.568 0 1.5-1.212 1.57-1.287 2.429-.71.497-3.85 2.355-2.926 3.637"/><path fill="#C01500" stroke="#000" stroke-width=".828" d="M400.728 263.39c2.269-.547 14.56 2.717 19.299 7.795-1.008-9.047-3.513-15.978-3.513-15.978s-7.324-2.091-8.33-1.082c-1.474 1.55-5.904 6.205-7.456 9.265Zm-3.746-41.791c-.862.144-1.724.72-2.585 2.156-1.006 2.44-1.723 8.615-3.16 10.051s-2.728 1.579-2.728 2.876c0 1.292.144 4.307 4.021 5.455 3.877.144 10.053-6.176 10.053-6.176s3.16-3.447 4.451-7.178c-7.467 2.584-12.781-4.312-10.052-7.184Z"/><path fill="#C01500" stroke="#000" stroke-width=".822" d="M504.99 261.949c-2.251-.542-14.68 2.703-19.385 7.75.998-8.992 3.488-15.888 3.488-15.888.869-.233 7.188-2.076 8.186-1.072 1.461 1.54 6.171 6.17 7.711 9.21Zm3.482-41.547c.855.144 1.158 1.267 1.859 2.697.993 2.424 2.022 5.962 3.448 7.388 1.425 1.431 2.707 3.542 2.707 4.828s-.298 3.021-4.148 4.164c-3.846.144-9.424-4.799-9.424-4.799s-3.135-3.424-4.417-7.139c7.412 2.574 12.21-4.044 9.975-7.139Z"/><path fill="#FB0" stroke="#000" stroke-width=".828" d="M392.674 255.496s7.754 5.31 7.899 7.754c20.826-30.88 73.963-40.504 104.263-2.156 4.024-5.316 8.187-7.034 8.187-7.034-31.88-41.652-95.36-36.48-120.349 1.435z"/><path fill="#1E5AA6" stroke="#000" stroke-width=".828" d="m471.68 137.352 3.035-.075-5.421 6.866 6.504 7.591-12.792 16.116 12.072 14.527c-1.327 3.253-2.867 6.214-4.919 8.893l-6.936-7.666 12.575-15.68-10.333-11.709 6.214-18.864zm-43.366 1.37-3.254.076 6.07 6.572-6.428 8.024 13.369 14.531-11.059 14.814c1.326 3.255 3.23 6.866 5.276 9.539l6.578-8.312-13.513-15.032 9.901-12.575z"/><path fill="#1E5AA6" stroke="#000" stroke-width=".828" d="m443.347 177.752-4.769 6.359 17.055 19.732c3.01-1.52 5.376-3.253 7.953-5.345l-8.892-10.264 3.616-10.627 5.202 5.997-16.26 20.747c-2.722-1.158-5.734-2.967-8.456-5.208l8.6-10.909-4.049-10.483zm-5.276-9.901 3.11 3.904-2.027-5.276z"/><path fill="#1E5AA6" stroke="#000" stroke-width=".802" d="M460.333 171.303c.064-.075 2.509-3.329 2.509-3.329l-.949-1.296z"/><path stroke="#FFF700" stroke-linecap="round" stroke-width=".828" d="M496.271 117.013s3-2.568 5.136-2.643"/><path stroke="#FFF700" stroke-linecap="round" stroke-width=".828" d="M496.704 116.655c.069-.069 17.909-2.568 18.476-3.14m-18.407 3.284c.07-.074 19.976-1.714 19.976-1.714m-20.045 1.784s21.188-.999 22.475.074"/><path stroke="#FFF700" stroke-linecap="round" stroke-width=".828" d="M496.629 116.799s20.766.144 21.124.64m-21.05-.64 19.976 1.64m-20.189-1.496c.069 0 20.334 1.784 22.331 4.352"/><path stroke="#FFF700" stroke-linecap="round" stroke-width=".828" d="M519.889 124.931c-.069-.069-6.92-8.206-23.473-8.062"/><path stroke="#FFF700" stroke-linecap="round" stroke-width=".828" d="M496.49 117.013s11.485.784 15.122 4.779"/><path stroke="#FFF700" stroke-linecap="round" stroke-width=".828" d="M496.704 116.869s7.417-1.426 15.196 7.924"/><path fill="url(#d)" stroke="#000" stroke-width=".828" d="M492.028 125.359s10.294.407 10.294 1.416-7.671 2.926-7.77 7.164 5.852 4.54 6.255 9.886c.402 5.35-4.64 6.155-5.649 7.571-1.013.706-3.433 8.272-3.13 12.713.303 4.442 1.615 19.475 3.935 22.505 1.818 1.411 4.541 5.952 7.467 4.541 2.926-1.416.909-6.558.606-7.974-.303-1.41 1.212-3.731 1.212-5.852s-1.113-3.835-1.008-4.337c.099-.507 8.172 1.918 7.665 9.886-.501 7.974-3.731 5.55-3.731 5.55s1.009 9.792-1.515 11.103c-4.541 2.42-7.869-.507-7.869-.507l.427 1.993-3.453-1.789s-4.441-6.359-5.45-9.186c-1.008-2.822-2.22-15.435-1.818-18.163.402-2.722.706-18.67.507-19.474-.204-.81-1.009-14.129-.507-16.146.507-2.017 3.632-10.9 3.532-10.9Z"/><path fill="#FF7000" stroke="#000" stroke-width=".828" d="M480.93 122.736s7.164-6.96 11.302-6.156c2.116 0 .099 1.516.099 1.516s3.632.303 4.139 1.918c.099.705-1.72.909-1.72.909s1.516.303 1.616 1.614c.104 1.312-15.336.298-15.436.199Z"/><path stroke="#000" stroke-width=".828" d="M481.332 122.432s7.671-1.008 10.9-4.237"/><path stroke="#000" stroke-width=".828" d="M489.103 120.316s5.648-.203 5.648.607"/><path fill="#fff" stroke="#000" stroke-linejoin="round" stroke-width=".776" d="M509.183 202.86s4.843-1.113 6.155-2.827c.81-.607 5.048 6.359-6.155 2.827Z"/><path stroke="#fff" stroke-linecap="round" stroke-width=".776" d="M507.872 162.798s.606 3.736-1.109 6.254c-.908 1.009-3.636 2.728-3.636 3.94 0 1.208 1.008 2.822.81 4.238-.204 1.411-1.714 2.827-1.614 4.034 0 1.212 1.713 7.67 1.509 7.77m-4.838-38.344s-3.835 1.312-4.646 5.148"/><path fill="#C75B00" stroke="#000" stroke-width=".828" d="M497.374 120.316s1.316 3.632 5.554.2c-2.728-3.732-5.554-.1-5.554-.2Z"/><path fill="#000" d="M500.506 120.163c0 .196-.204.354-.455.354s-.453-.158-.453-.354c0-.194.203-.352.453-.352.251 0 .455.158.455.352"/><path fill="#fff" stroke="#000" stroke-width=".828" d="M462.722 111.886s8.038 8.699 13.24 8.605c.944 2.553-2.365 4.928-3.687 6.06-2.648-.849-5.042.154-11.187-7.408.382-4.824 1.728-7.068 1.634-7.257Zm10.875-20.235c1.038-3.214 3.12-5.768 4.913-6.05-.472-2.46 3.786-13.33 16.171-17.494.755 5.58-5.296 11.064-5.296 11.064s18.248-3.12 21.934-7.755c-.378 2.082-4.064 15.034-23.544 14.94 7.378 7-2.36 12.579-6.522 10.875 7.66-5.863-2.172-9.36-7.656-5.58Z"/><path fill="#CCCCCD" stroke="#CCC" stroke-width=".828" d="M479.837 87.115c3.686-2.364 5.008-2.364 8.038-1.892-2.176.283-2.176.377-2.176.377s-.189.283 1.133 1.515c-1.51-.382-2.837-1.232-6.995 0Z"/><path stroke="#000" stroke-width=".828" d="M478.416 85.6s7.283-3.875 11.347-6.523"/><path fill="#00F" stroke="#000" stroke-width=".828" d="M472.176 126.541s10.026 2.742 11.159-11.63c-2.176-6.24-5.202-19.668-.567-23.544-4.257-2.93-8.888.095-8.888.095-.283.661-4.069 6.05 1.039 15.505-12.102-3.214-7.184 8.227-7.184 8.227.472-1.798 6.9-3.497 8.51 5.674.661 2.27-4.352 5.768-4.069 5.673Z"/><path fill="#00F" stroke="#000" stroke-width=".828" d="M483.429 115.006s10.592-5.674 10.304-19.003c-8.982.19-12.197 11.814-12.197 11.814z"/><path fill="#fff" stroke="#000" stroke-width=".828" d="M435.965 114.345s-7.845 6.806-12.291 4.63c-3.309 1.987-7.184-1.51-7.184-1.51s4.536 16.732 20.801 4.63c-.283-3.686-1.137-7.467-1.326-7.75Z"/><path fill="#00F" stroke="#000" stroke-width=".828" d="M423.579 118.692c.661-3.497 3.403-5.201 5.579-1.893 2.932.572 5.863-11.436-4.54-9.454 2.931-15.693-5.86-21.556-5.86-21.556s-3.12 17.398-1.702 20.612-2.08-5.957-13.331-8.51c-.19 13.145 12.575 19.291 12.575 19.291s3.593 3.309 7.279 1.51Z"/><path stroke="#000" stroke-width=".828" d="M424.618 107.25s-4.914 4.164-3.781 9.837m-3.687-10.403s-1.134 4.064 1.324 9.832"/><path stroke="#000" stroke-width=".828" d="M416.394 117.842s2.269-3.686 7.185 1.039"/><path fill="#fff" stroke="#000" stroke-width=".828" d="M417.339 92.312c0-.094-7.469 0-3.025 7.566-3.309 1.038-10.684-3.78-5.578-10.214-16.736-.377-23.543-8.411-23.543-15.789 4.917 5.108 16.641 3.026 20.801 6.146-5.106-4.725-4.066-11.253-4.066-11.253s14.278 4.258 16.83 16.927c-.852 2.459-1.229 6.806-1.419 6.617Z"/><path stroke="#000" stroke-width=".828" d="M405.854 79.693c2.756 2.802 9.835 3.642 13.428 6.761"/><path fill="#CCCCCD" stroke="#CCC" stroke-width=".589" d="M409.114 87.965s5.861-.755 7.56 1.322c-2.294 0-3.059-.567-6.371.665.935-.477.68-1.326 1.189-1.326.51 0-2.123-.661-2.378-.661Z"/><path fill="#923F00" stroke="#000" stroke-width=".828" d="M438.33 42.108s3.213-2.837 6.712-.284c-1.581 4.723-7.279 2.931-7.279 2.931s.189 2.364-.377 3.499c1.137.857 2.076 3.688 2.076 3.688s5.862-1.419 7.094 1.134c2.246-.31 3.875 0 3.875 0s4.541-1.134 6.146-1.134c1.61 0 6.712 1.323 7.184 2.269.477.944 2.176 7.28 3.314 7.185 1.132-.094-2.743 1.512-3.786-.094-1.038-1.608-.755 2.08-.755 2.08s3.213 3.403 3.592 4.16c.377.754-1.983 6.9-.19 11.157-1.574.144-1.698 1.794-1.698 1.794-.09 1.873-2.459 2.365-2.459 2.365l-.567-2.554-1.609.949.66-1.987s2.176-5.296 2.365-6.996c.189-1.703-1.987-4.728-3.686-4.728-1.704 0-2.931 5.39-2.931 5.39s-.85 4.063-.567 4.44c.283.379-1.137-1.32-1.137-1.32s-.755 2.458-1.322 3.214c-.566.755-1.798 1.038-1.798 1.038s-.85-2.46-.567-3.403 4.635-4.63 4.258-7.278c-.383-2.648 0-1.987-.099-2.081-.095-.095-2.266-1.986-2.36-3.026-.095-1.04-2.837 1.324-6.429.567-1.103 1.922-1.232 6.71-1.232 6.71s-.378 5.769.377 6.434c.76.661-1.887 2.077-1.887 2.077l-1.893 2.554s-.661-1.605-.661-1.51-1.327.943-1.327.943l.76-1.892c-.049-1.43 1.839-5.341 1.839-8.65s.238-6.855.238-6.855-3.497-.19-3.403 3.402c.094 3.598-.849 3.786-.66 4.824s1.132 3.97.849 4.824c-.283.85-1.416 1.133-1.416 1.133l-.282.472s-3.498 1.61-3.404 2.27c.095.661-.094-1.892-.094-1.892l-.194-2.743s2.082-1.322 2.082-4.63c0-3.31-.478-3.78-.383-4.536.094-.76.572-3.502.477-3.785s-1.982.756-2.553.756c-.567 0 1.043-1.986 1.232-3.404.188-1.419-1.893 1.324-3.592-.283.789-1.746 1.982-2.27 2.171-3.593s-1.322 1.134-2.648.189c.109-1.27 1.421-2.364 1.421-2.364s-1.079-.132-1.515 0c-.85-.283.948-1.608 1.043-3.498s-1.043-2.648-1.043-2.742c0-.095-1.888-1.702-2.172-2.363-.283-.662-.283-1.419-.283-1.419s-3.125 2.269-6.811-2.553c3.378-2.883 7-.757 7-.757s.944-2.648 5.291-2.458c4.352.19 5.201 2.648 5.013 2.364Z"/><path fill="#00F" stroke="#000" stroke-width=".828" d="M462.116 91.015c.074 0 8.028.239 8.108 4.491.08 4.248-2.44 3.15-2.519 3.15s-5.828-.71-5.828-.71z"/><path fill="#FFFEFF" stroke="#000" stroke-width=".828" d="M454.396 89.832s9.921-.073 9.37 4.254c-.552 4.332-3.07 3.467-3.07 3.467l-4.804-.398-1.496-7.322Z"/><path fill="#00F" stroke="#000" stroke-width=".828" d="m448.806 89.36 5.748.472s3.463.472 3.309 3.782c-.158 3.307-3.547 3.387-3.547 3.387l-5.589-.318.08-7.322z"/><path fill="#fff" stroke="#000" stroke-width=".828" d="M435.344 91.015c-.08 0-8.033.239-8.113 4.491-.075 4.248 2.444 3.15 2.524 3.15.079 0 5.827-.71 5.827-.71z"/><path fill="#00F" stroke="#000" stroke-width=".828" d="M443.059 89.832s-9.92-.073-9.37 4.254c.552 4.332 3.07 3.467 3.07 3.467l4.804-.398 1.496-7.322Z"/><path fill="#fff" stroke="#000" stroke-width=".828" d="m448.653 89.36-5.748.472s-3.468.472-3.309 3.782S443.139 97 443.139 97l5.588-.318z"/><path fill="#5E0043" stroke="#000" stroke-width=".828" d="M464.044 137.168s4.133-6.091 5.877-5.44c1.52.506.363 5.221-.362 5.658zm-28.333 1.088c-1.301-1.814-3.189-6.816-4.927-5.44-1.526.506-.364 5.221.362 5.658z"/><path stroke="#000" stroke-width=".828" d="M438.448 126.208s8.054 4.963 10.696 5.093c2.643.13 11.019-6.444 11.019-6.444"/><path fill="#5E0043" stroke="#000" stroke-width=".828" d="m439.224 106.754 1.544-1.933 7.736 3.93 7.859-3.483 1.545 1.615-8.763 6.185-9.922-6.314z"/><path fill="#474747" stroke="#474747" stroke-linejoin="round" stroke-width=".776" d="M433.083 106.65c.626.789 5.624 6.865 6.528 11.893.9 5.028-.516-6.896-.516-6.896s6.184 3.031 6.378 4.964c.194 1.932 2.956-.13 3.09-.463l-17.909-11.629zm30.558-.348s-6.508 8.569-5.733 17.909c-1.341-4.471-.258-11.853-.258-11.853l-1.416.904s-1.48 6.314-3.353 7.278c-.314-.75-.254-1.029-.254-1.029s-1.997 2.574-2.384 2.832c-.386.259.128 8.7.128 8.7s.672 6.12 1.441 6.056c-.879.427-1.957 1.097-1.957 1.097l-.8-16.334 1.828-1.839s2.45-2.96 2.644-5.862c-1.064.904-2.256 1.162-2.256 1.162s-.323 4.124-1.287 4.7c-.968.582-.993 1.66-.993 1.66l-.228-5.391z"/><path stroke="#000" stroke-linecap="round" stroke-width=".776" d="m448.757 116.223 1.262 25.769"/><path stroke="#000" stroke-width=".828" d="M432.909 128.528s2.961 1.744 4.059 7.025c9.662-.71 12.694 2.708 12.694 2.708s7.923-3.8 11.6-3.095c1.286-2.702 4.957-6.185 4.957-6.185"/><path fill="#B4B6B9" stroke="#000" stroke-width=".828" d="m428.865 103.271 19.892 13.016 17.915-12.048s3.736-2.06 3.413-3.541c-.318-1.486-1.609-.904-2.256-.646-.64.259-18.749 13.08-18.749 13.08l-19.265-12.181s-1.416-.448-1.675.452c-.258.904.531 1.416.725 1.868Z"/><path fill="#474747" stroke="#474747" stroke-linejoin="round" stroke-width=".776" d="M464.441 99.893s-5.092-2.16-5.092-.288c0 1.868.144 2.062.964 3.264.814 1.197-.627 1.967-.627 1.967s-.193-.526-.481-1.346c-.288-.815-3.026-1.391-3.264-2.35-.239-.964.576-2.499-1.059-2.688-1.629-.193-3.214.672-3.552 2.544-.337 1.873-2.448 6.24-2.448 6.24l.288-9.936c3.586.253 10.244 1.038 15.365 1.63-1.535-.24.576.1.532.625-.144.432-.676.477-.626.338Zm-18.009-2.5c-.909 0-5.474.528-6.627 1.203-1.152.671 1.873 1.724 1.49 2.639-.382.914-.432 2.736-1.873 2.354-1.44-.387-6.289-2.786-6.433-3.602s-1.153-.863-1.153-.863 13.926-1.874 14.596-1.73Z"/><path stroke="#000" stroke-width=".828" d="m448.628 96.252-.035 12.211m-9.369-26.599s-5.58 9.056-5.689 9.335"/><path fill="url(#e)" d="M449.502 81.64s2.43 3.314 2.152 4.253c.993.775 2.101 3.87 2.101 3.87"/><path stroke="#000" stroke-width=".828" d="M449.502 81.64s2.43 3.314 2.152 4.253c.993.775 2.101 3.87 2.101 3.87M458.892 81.089s-5.246 7.402-5.082 7.954"/><path fill="#000" d="M432.01 45.891c-.119.414-.788.574-1.493.358s-1.183-.727-1.064-1.141c.12-.414.788-.575 1.494-.358.706.215 1.182.727 1.063 1.141m2.121-.146c.118.413.787.574 1.494.357.706-.216 1.181-.726 1.063-1.14s-.788-.575-1.494-.358c-.705.217-1.181.727-1.063 1.14"/><path fill="#FF7000" stroke="#000" stroke-linejoin="round" stroke-width=".828" d="M495.55 199.079s-1.947.368-1.882.547c.059.184-5.658.367-5.778.183-.124-.184-.855.974-.855.974l.915-.546s1.396 1.456 1.824 1.336-.184.546-.06.67c.119.12.546-.243.546-.243l9.449-.159z"/><path fill="#FF7000" stroke="#000" stroke-linejoin="round" stroke-width=".776" d="m499.073 202.02-7.72.224s-1.943 1.763-2.067 2.186c-.12.427 1.276.546 1.276.546l.428 1.461.974-.363s6.562.974 12.589-.369c3.04-1.062 3.572-2.339 1.44-3.114-2.126-.775-6.86-.541-6.92-.571Z"/><path fill="url(#f)" stroke="#000" stroke-width=".828" d="m472.638 217.858 13.896-.621-2.588-2.196 37.583-1.515-1.297-2.986-42.079 1.689 5.062 2.365-11.366.338.337 1.182-2.98-.114s3.318 1.292 3.432 1.858Z"/><path fill="url(#g)" stroke="#000" stroke-width=".828" d="M488.218 141.098c-1.108-.552-5.962-1.212-11.372 2.32l.224 12.474s7.944-4.307 11.809-3.313c-.224-3.865-.224-8.828-.661-11.481Z"/><path stroke="#000" stroke-width=".828" d="m411.385 178.968-32.767 32.531m47.371-32.292-26.595 35.024m25.408-44.166-35.5 42.979m-1.068-.596 3.443-4.035m39.891-16.741-13.773 18.997m-.593 2.494.356 7.238m20.3-22.082-14.602 18.287m11.993-1.426 5.937-9.737m-3.682-1.898-7.123 8.072m4.987-15.668-4.868 5.932m-1.426-14.601s-14.84 21.725-14.603 23.509m13.058-26.356c-.352.234-12.82 16.737-12.82 16.737m-.712 5.222-2.256 2.732m-2.85 4.158-3.442 4.511"/><path fill="#8A9396" stroke="#2B2B2B" stroke-width=".828" d="M409.764 128.965s-1.006 3.16 0 4.74c1.005 1.58 7.324 14.362 7.324 14.362s4.31-5.315 5.89-5.459c1.58-.139.86 13.791.86 13.791s-2.584 2.439-4.164 2.295 3.876 5.459 3.732 10.199-7.18 28.293-9.764 28.72c-2.586.432 1.148-4.307 1.004-5.599s-.861-.432-1.436-1.868c-.574-1.436.863-3.592.575-5.027-.287-1.436-1.58-1.148-1.723-2.152-.144-1.008.861-1.291.718-2.444-.144-1.147-1.724-.859-1.58-1.868.144-1.003.287-.571.144-2.439s-.431 1.292-2.011 1.436-2.872 3.736-2.872 3.736-3.16 4.451-6.32 2.439c1.867 4.024.432 5.748-.287 5.887-.718.144.574 3.16-1.149 3.304s1.293 6.751-.718 7.328c2.154 1.003.431 2.295.431 2.295s-4.978.417-3.878 6.896c-14.649-5.172-21.83-14.075-21.686-23.122.144-9.051 3.016-17.234 10.053-20.25 2.011-7.472 5.458-15.514 5.458-15.514s-.575-3.304-.144-5.455c.432-2.156 2.441-4.307 2.441-4.307s-.288-5.172-.143-7.756c.144-2.588 1.149-3.736 1.292-5.171s-.43-8.764 1.006-10.056 4.165-1.147 5.601-2.006c1.436-.864 3.304-2.445 5.17-2.301s3.446 1.436 3.446 1.436 7.039 0 7.469 2.728c.431 2.732-1.436 3.736-1.436 3.736s1.006 3.88-3.304 7.466z"/><path fill="#CECFCF" stroke="#2B2B2B" stroke-width=".828" d="M403.516 119.016c.225.416-.289 1.13-1.147 1.595s-1.738.504-1.963.088.288-1.131 1.147-1.596 1.738-.504 1.963-.088z"/><path fill="#000" d="M402.323 119.741c0 .263-.239.476-.534.476-.294 0-.533-.213-.533-.476s.239-.475.533-.475.534.212.534.475"/><path stroke="#2B2B2B" stroke-width=".388" d="M412.824 124.494s1.744 7.79-.342 13.165m.878-16.573s3.404 4.501 2.965 10.1m-2.635-11.088c.11 0 2.854 2.414 2.744 4.059m-2.085-5.048s1.866 1.317 2.305 2.633"/><path stroke="#000" stroke-width=".828" d="M413.47 118.339s-6.696 10.87-5.818 17.676"/><path stroke="#2B2B2B" stroke-width=".388" d="M413.91 118.011s-8.893 5.271-10.539 22.505"/><path stroke="#000" stroke-width=".828" d="m412.921 121.196-3.512 2.632"/><path stroke="#2B2B2B" stroke-width=".388" d="M400.078 141.505s4.94-20.528 13.722-23.494"/><path fill="#2B2B2B" stroke="#2B2B2B" stroke-width=".828" d="M417.202 148.42s4.723-5.926 5.82-5.708.766 13.722.766 13.722-3.512 2.632-4.278 2.524c-.77-.11 3.95 6.368 3.84 8.784-.109 2.415-.218 2.413-.218 2.413s0-1.425-1.098-3.731c-1.097-2.306-.442-4.943-7.576-10.76-1.756-3.622 3.513 2.195 4.61 1.316 1.098-.874-1.975-8.45-1.866-8.56Z"/><path stroke="#2B2B2B" stroke-width=".828" d="M408.811 115.035s-1.984.542-2.256 1.352c-.27.815-1.442 1.624-2.073 1.351-.632-.268-1.805-1.262-1.805-1.262"/><path fill="#2B2B2B" stroke="#2B2B2B" stroke-linejoin="round" stroke-width=".776" d="M397.535 121.981s-2.977 2.976-1.534 3.338c1.444.358 2.977-2.344 2.977-2.344s0 4.6 1.263 3.875c1.264-.72 4.961-3.334 4.961-3.334s1.263-.094 1.534 0c.271.089 3.428 2.792 5.502 1.803-1.172 3.065-2.525 3.428-2.525 3.428s-2.165 2.797-4.961 2.161c-2.797-.631-3.519-1.803-3.519-1.803s-2.345.184-3.067-.899c-.721-1.083-.992-1.715-.992-1.715s-1.353 1.352-1.714.72c-.36-.63 0-4.331 2.075-5.23Z"/><path stroke="#2B2B2B" stroke-width=".828" d="M414.404 117.832s-5.502-1.624-7.397 1.083c-1.894 2.703-1.443 4.238-.451 4.507"/><path fill="#000" d="M415.253 117.678c0 .648-.464 1.175-1.038 1.175-.573 0-1.036-.526-1.036-1.175 0-.648.464-1.174 1.036-1.174s1.038.526 1.038 1.174"/><path fill="#2B2B2B" stroke="#2B2B2B" stroke-width=".828" d="M399.238 131.718s2.244 3.452 4.919 4.401c2.676.949-1.856 1.769-4.531-.04-1.941-2.632-1.424-4.53-1.424-4.53s.518-.522 1.036.169Zm19.202 20.368s-6.3-8.758-8.112-9.235c-1.813-.472 1.38-.859 3.322.994s-.517-3.021-.517-3.021z"/><path fill="#2B2B2B" stroke="#2B2B2B" stroke-linejoin="round" stroke-width=".776" d="M398.634 202.701c2.416-.646 12.944 6.041 15.318 7.725 2.373 1.68 7.337.601 7.337.601s-2.291 1.381-3.712 1.728c-1.424.344 4.228.344 4.228.344s-13.462 3.711-27.14-3.492c-1.252-5.609 2.933-6.861 3.969-6.906Z"/><path fill="#2B2B2B" stroke="#2B2B2B" stroke-width=".828" d="M414.038 154.243s-1.768-.343-2.675-1.381c-.905-1.034-2.2-3.582-3.538-4.66s-8.026-4.744-10.442-4.487c-2.416.258-3.15-.257-3.453-.56s-1.293.128-1.121 1.38c.173 1.252-1.856 4.015-1.122 5.306.734 1.297 4.186 6.558 4.876 6.732s.259 3.066.259 3.066 3.064 3.104 3.84 3.278 1.553.736 1.468 1.466c-.087.736-3.367 4.749-3.367 4.749s-3.537 1.853-3.581 2.891c-.043 1.034.863 3.19 3.668 3.88 2.804.691 10.356.13 10.744-.516s.992-4.531.733-4.919-2.114-1.554-3.064-1.381c-.948.174-1.811.949-1.725 1.123s-1.337.904-1.337.213c0-.69 2.804-3.795 3.063-3.536s4.229.645 4.962 2.632c.734 1.983.734 3.408 2.804 3.195 2.072-.219 4.962-2.116 5.22-6.086.259-3.969-2.328-6.647-2.976-7.034s-2.804-1.685-2.976-2.286c-.173-.606-.604-2.588-.26-3.065Z"/><path fill="#2B2B2B" stroke="#2B2B2B" stroke-width=".828" d="M376.715 171.765s6.688-1.728 8.413-1.684c1.727.04 8.242 3.06 10.141 4.918 1.898 1.853 5.782 6.255 8.328 5.868 2.546-.388 3.279-.904 3.279-.904l-.993 1.897s-2.071.562-3.106.303c-1.036-.258-3.064-.909-5.092-2.892-2.028-1.987-8.285-7.337-13.592-6.949-5.307.392-8.371 5.613-8.371 5.613s.043-2.548.259-3.109-1.122 1.207-1.122 1.207z"/><path fill="#2B2B2B" stroke="#2B2B2B" stroke-width=".828" d="M401.352 176.942c.044.04 1.683.472 4.445.472s4.229-1.208 4.229-1.208l-.173-1.078.432-1.51s2.114 2.156 2.07 2.588c-.043.432-.862.607-.862.607l-.302-1.039-.733.909s-4.014 3.19-6.214 2.718c-2.201-.477-4.229-1.898-3.668-2.246.561-.342.863-.213.776-.213Zm-9.752 5.653s-2.416-.045-3.494.472-1.467 1.168-2.2 1.078c-.734-.084-1.295-1.033-1.08-1.421.302-.606 1.726-1.381 4.445-1.167 2.718.218 2.33 1.038 2.33 1.038zm8.459 6.558c0-.129-.173-3.537-1.511-4.919-1.337-1.38-2.977-1.38-3.711-1.212-.734.174 2.718 1.684 3.064 2.678s1.467 3.756 1.165 4.446c-.303.686-.863-1.942-2.978-2.677-2.114-.735-5.048-.343-4.444.606s2.978.084 4.186 2.111 2.114 4.188 2.114 4.188l.388-1.47 1.079-.298.129-2.808z"/><path fill="#2B2B2B" stroke="#2B2B2B" stroke-linejoin="round" stroke-width=".776" d="m398.332 200.197-2.2-4.402s-.691-2.802-2.546-3.582c-1.855-.776-4.315-.646-4.359.303s3.971 2.156 4.229 2.678c.259.516.13 1.381-.216 1.421-.344.044-2.113-.646-3.02-.432-.906.219-1.424 1.381-2.761 1.038-1.338-.348-2.46-4.615-1.942-5.048s-.992.776-1.294-.348c-.303-1.123.432-4.615-.087-5.048-.517-.432-3.02-1.941-3.064-2.244-.042-.299.13-17.17 14.24-3.19-6.041-7.164-8.414-6.389-9.536-6.429-.82 0-6.3.472-7.681 7.463-1.38 6.989-3.02 2.632-3.02 2.632s-.302 3.021 1.165 3.885c1.467.86-.691 3.364-.691 3.364s-2.632-6.429-2.243-9.236c-.518 2.246-.475 7.81 2.848 13.896 3.883 4.099 7.551 7.899 17.302 12.167 5.135-7.85 4.876-8.799 4.876-8.888Z"/><path fill="#8A9396" stroke="#2B2B2B" stroke-linejoin="round" stroke-width=".776" d="M389.098 200.242s2.849.342 3.625 1.813c.776 1.465 1.122 3.711 1.122 3.711.474-.949.689-1.768 1.64-2.46.95-.691 1.64-.78 1.596-1.296s-3.021-3.666-4.531-3.84-4.142 1.64-4.142 1.64-.474.69.69.432Z"/><path stroke="#8A9396" stroke-linecap="round" stroke-width=".776" d="M395.603 207.664s7.38 3.363 19.536 3.582"/><path stroke="#2B2B2B" stroke-linecap="round" stroke-width=".776" d="M420.24 173.404s-.63 6.195-5.395 18.416"/><path stroke="#2B2B2B" stroke-width=".828" d="M419.292 177.215s-1.431 4.446-5.4 7.78"/><path fill="#000" d="m397.718 254.105 1.277-1.445.409.361-.112.128a.7.7 0 0 0-.107.142.2.2 0 0 0 0 .133q.021.06.117.144l1.689 1.493a.7.7 0 0 0 .133.103.1.1 0 0 0 .074-.007.4.4 0 0 0 .114-.104q.252-.282.328-.52a1.1 1.1 0 0 0 .039-.522 1.9 1.9 0 0 0-.236-.634l.478-.272.75 1.356-1.996 2.258-.409-.362.125-.142a.4.4 0 0 0 .093-.152.2.2 0 0 0-.005-.118.4.4 0 0 0-.12-.143l-1.674-1.48a.5.5 0 0 0-.171-.113.18.18 0 0 0-.119-.003.34.34 0 0 0-.13.104l-.138.157zm2.801-3.129 2.341-2.317 1.197.571-.234.491a1.7 1.7 0 0 0-.564-.136.84.84 0 0 0-.447.096 1.8 1.8 0 0 0-.392.3l-.428.424.693.7.141-.139a1 1 0 0 0 .191-.233.22.22 0 0 0 .008-.152.7.7 0 0 0-.17-.221l-.106-.107.358-.354 1.175 1.186-.359.355-.12-.12a.55.55 0 0 0-.206-.15.2.2 0 0 0-.154.001q-.07.03-.244.201l-.126.125.637.644a.6.6 0 0 0 .133.115.1.1 0 0 0 .072-.004.6.6 0 0 0 .139-.113l.235-.233q.264-.26.371-.514.105-.256.081-.562a1.7 1.7 0 0 0-.177-.617l.494-.238.662 1.406-2.425 2.4-.384-.388.07-.07a.9.9 0 0 0 .17-.206.18.18 0 0 0-.002-.139 1 1 0 0 0-.159-.181l-1.512-1.528a.7.7 0 0 0-.179-.145.15.15 0 0 0-.108-.005.5.5 0 0 0-.164.122l-.124.123zm4.937-4.728q.713-.61 1.526-.553.814.055 1.397.737.391.457.493.985.102.529-.09 1.027-.191.496-.695.925-.663.568-1.4.565-.888-.003-1.52-.741-.586-.685-.512-1.504.076-.822.8-1.44zm.416.47a.86.86 0 0 0-.325.721q.022.54.458 1.05.436.509.926.604a.87.87 0 0 0 .757-.208.86.86 0 0 0 .323-.716q-.021-.507-.455-1.015a2.05 2.05 0 0 0-.616-.512 1.07 1.07 0 0 0-.586-.128.86.86 0 0 0-.482.204m3.873-3.958.306-.213.109.086 1.828-1.271-.036-.136.309-.215 1.192.856-.328.452a4 4 0 0 0-.463-.226 1.2 1.2 0 0 0-.469-.07.55.55 0 0 0-.291.092q-.057.039-.058.082-.003.039.064.135l1.295 1.863q.115.165.156.198a.16.16 0 0 0 .086.04.2.2 0 0 0 .099-.02q.054-.028.265-.174l.312.448-1.58 1.098-.312-.448.096-.066a.8.8 0 0 0 .189-.16.17.17 0 0 0 .019-.116.8.8 0 0 0-.122-.225l-1.325-1.905q-.056-.081-.09-.089t-.093.034a.66.66 0 0 0-.207.278 1.1 1.1 0 0 0-.087.44q-.001.097.056.501l-.53.144zm3.59-2.298 2.816-1.706 1.032.834-.344.423a1.7 1.7 0 0 0-.516-.263.83.83 0 0 0-.456-.011 1.8 1.8 0 0 0-.451.2l-.516.312.511.842.169-.102a.9.9 0 0 0 .24-.182.2.2 0 0 0 .044-.146.7.7 0 0 0-.114-.254l-.078-.128.431-.262.864 1.428-.43.261-.088-.145a.6.6 0 0 0-.166-.194.21.21 0 0 0-.151-.035 1.1 1.1 0 0 0-.283.139l-.152.092.469.775a.6.6 0 0 0 .102.142.1.1 0 0 0 .071.014.6.6 0 0 0 .161-.078l.283-.172q.318-.191.481-.413.162-.223.21-.528a1.7 1.7 0 0 0-.027-.64l.535-.116.316 1.521-2.919 1.768-.283-.467.085-.051a.8.8 0 0 0 .213-.163.17.17 0 0 0 .031-.134 1 1 0 0 0-.112-.213l-1.114-1.84a.7.7 0 0 0-.141-.182.16.16 0 0 0-.104-.03.5.5 0 0 0-.187.08l-.149.091zm3.992-2.389 2.159-1.123q.207-.108.473-.198a1.3 1.3 0 0 1 .533-.067q.267.024.48.162t.34.384a.92.92 0 0 1 .051.797 1.6 1.6 0 0 1-.506.672l1.157.463.049.022a1 1 0 0 0 .195.061.5.5 0 0 0 .145-.002.7.7 0 0 0 .17-.066l.151-.078.251.484-1.121.584-1.91-.924-.29.152.362.697q.095.18.14.22.045.038.101.04a.5.5 0 0 0 .19-.069l.16-.084.252.485-1.712.89-.252-.485.156-.081a.45.45 0 0 0 .16-.115.2.2 0 0 0 .036-.121 1 1 0 0 0-.084-.195l-1.025-1.97a.5.5 0 0 0-.106-.152.11.11 0 0 0-.093-.035.4.4 0 0 0-.152.044l-.07.04-.13.068zm1.589-.096.471.906.52-.27q.306-.16.428-.292a.54.54 0 0 0 .144-.283.48.48 0 0 0-.056-.296.43.43 0 0 0-.196-.198.46.46 0 0 0-.28-.043q-.155.02-.454.176zm2.871-2.187 2.228-.977q.216-.094.487-.167a1.3 1.3 0 0 1 .536-.031q.265.042.468.194a1 1 0 0 1 .313.406.92.92 0 0 1-.002.798 1.6 1.6 0 0 1-.549.636l1.123.54.048.025a1 1 0 0 0 .191.074q.077.015.145.008a.7.7 0 0 0 .173-.055l.156-.068.219.5-1.158.508-1.844-1.048-.3.131.315.72a.9.9 0 0 0 .126.229.17.17 0 0 0 .097.048.6.6 0 0 0 .195-.058l.165-.072.22.499-1.768.775-.219-.5.16-.071a.5.5 0 0 0 .168-.104.2.2 0 0 0 .044-.118.8.8 0 0 0-.072-.2l-.892-2.035a.5.5 0 0 0-.094-.159.11.11 0 0 0-.092-.04.4.4 0 0 0-.155.035l-.072.034-.134.058zm1.592.01.41.936.536-.236q.317-.138.448-.264a.55.55 0 0 0 .162-.272.48.48 0 0 0-.036-.299.44.44 0 0 0-.459-.272q-.156.01-.465.145zm4.345-2.48.832-.303 2.159 2.456q.173.195.262.224.092.027.278-.045l.188.513-1.755.64-.187-.513.106-.041q.146-.054.191-.112.043-.061.024-.117a1 1 0 0 0-.123-.178l-.232-.299-1.13.413-.002.425a.6.6 0 0 0 .016.173q.015.042.057.066.044.023.119.014.049-.006.254-.08l.187.512-1.435.524-.187-.513a.7.7 0 0 0 .193-.098.25.25 0 0 0 .077-.109.6.6 0 0 0 .028-.212l.08-3.339zm.615 2.038.741-.27-.734-.889-.008 1.16zm2.464-3.146 1.716-.494 1.323 2.119.017-2.504 1.746-.504.152.525-.188.055q-.152.043-.194.126-.039.078.012.256l.62 2.153a.5.5 0 0 0 .068.172q.04.048.089.056.07.016.167-.012l.215-.062.152.524-1.825.526-.152-.525.142-.04a.6.6 0 0 0 .202-.086.16.16 0 0 0 .058-.096.5.5 0 0 0-.027-.195l-.672-2.333-.019 3.409-.525.151-1.77-2.784.664 2.305a.24.24 0 0 0 .062.115.2.2 0 0 0 .101.044q.061.006.178-.028l.182-.052.151.525-1.553.447-.151-.525.152-.044a.6.6 0 0 0 .189-.08.18.18 0 0 0 .056-.105.6.6 0 0 0-.032-.214l-.613-2.127a.6.6 0 0 0-.073-.184.17.17 0 0 0-.099-.066.35.35 0 0 0-.163.017l-.206.06zm7.888-2.072 2.05-.383q.39-.072.66-.04a1.2 1.2 0 0 1 .488.157q.216.126.358.331.14.2.187.448.093.496-.228.906-.319.408-.991.534l-.662.123.136.726a.5.5 0 0 0 .051.168.16.16 0 0 0 .09.064.4.4 0 0 0 .18-.008l.197-.036.1.536-1.891.354-.101-.536.132-.025a.7.7 0 0 0 .224-.068.16.16 0 0 0 .065-.093.7.7 0 0 0-.017-.229l-.399-2.134a.8.8 0 0 0-.065-.23.15.15 0 0 0-.088-.069.4.4 0 0 0-.189.006l-.187.035-.1-.536zm1.543.368.205 1.101.332-.061q.303-.057.433-.144a.54.54 0 0 0 .221-.56.51.51 0 0 0-.285-.384q-.175-.089-.475-.032zm2.646-1.134 2.414-.301q.234-.03.513-.021.284.007.524.123.242.115.392.318t.186.48a.92.92 0 0 1-.23.764q-.282.314-.708.452l.923.838.04.038a.8.8 0 0 0 .16.125.4.4 0 0 0 .137.048.7.7 0 0 0 .183-.002l.168-.021.068.542-1.256.156-1.467-1.53-.326.04.097.781q.025.202.055.256a.17.17 0 0 0 .08.072.5.5 0 0 0 .202.001l.18-.023.068.542-1.915.239-.068-.542.175-.022a.5.5 0 0 0 .19-.052.2.2 0 0 0 .075-.101.8.8 0 0 0-.012-.212l-.274-2.204a.5.5 0 0 0-.046-.18.1.1 0 0 0-.077-.064.4.4 0 0 0-.157-.012l-.079.013-.146.018zm1.523.463.126 1.014.582-.073q.342-.042.503-.125a.53.53 0 0 0 .232-.215.47.47 0 0 0 .052-.297.43.43 0 0 0-.115-.254.46.46 0 0 0-.248-.137q-.152-.035-.487.007zm5.578-1.244q.938-.054 1.55.484.614.538.664 1.432.034.603-.204 1.084t-.693.762q-.452.279-1.113.316-.873.05-1.457-.399-.706-.541-.76-1.51-.052-.9.503-1.508.558-.607 1.51-.661m.047.626a.86.86 0 0 0-.696.378q-.309.442-.271 1.112.038.669.371 1.041.288.318.728.293a.87.87 0 0 0 .691-.374q.29-.415.252-1.083a2 2 0 0 0-.18-.78 1.05 1.05 0 0 0-.389-.457.87.87 0 0 0-.506-.129zm2.962-.691 2.085.012q.396.002.656.086.262.08.448.246.19.165.289.392.1.224.099.476-.003.506-.396.846-.39.34-1.074.336l-.673-.004-.005.739q0 .138.019.176a.17.17 0 0 0 .076.08.45.45 0 0 0 .178.026h.201l-.003.546-1.924-.011.003-.546.133.001a.7.7 0 0 0 .232-.024.16.16 0 0 0 .083-.079.7.7 0 0 0 .026-.229l.014-2.17q0-.181-.022-.238a.15.15 0 0 0-.072-.085.4.4 0 0 0-.187-.029l-.189-.002zm1.445.653-.008 1.12.337.003q.309.001.454-.06a.55.55 0 0 0 .233-.194.57.57 0 0 0 .089-.313.51.51 0 0 0-.206-.432q-.156-.12-.461-.121zm2.829-.608 2.427.168q.234.016.508.076.276.062.49.221.216.16.325.389a1 1 0 0 1 .089.505.92.92 0 0 1-.372.706q-.337.255-.781.309l.745.999.032.044a1 1 0 0 0 .133.155.5.5 0 0 0 .126.073.6.6 0 0 0 .179.032l.17.012-.038.545-1.262-.087-1.148-1.784-.328-.022-.053.784a.9.9 0 0 0 .005.262.16.16 0 0 0 .064.087.5.5 0 0 0 .2.039l.18.012-.038.545-1.925-.133.038-.544.174.011a.5.5 0 0 0 .197-.014.2.2 0 0 0 .094-.085.8.8 0 0 0 .028-.21l.153-2.216a.5.5 0 0 0-.009-.185q-.017-.058-.063-.078a.4.4 0 0 0-.153-.042l-.08-.002-.146-.011.038-.561zm1.406.746-.071 1.019.584.04q.345.024.519-.026a.54.54 0 0 0 .269-.166.47.47 0 0 0 .108-.282.43.43 0 0 0-.064-.271.46.46 0 0 0-.216-.182q-.144-.065-.48-.087zm3.473-.363 1.909.232-.065.542-.175-.021a.46.46 0 0 0-.205.004.16.16 0 0 0-.084.075.7.7 0 0 0-.048.216l-.264 2.168a.8.8 0 0 0-.008.23.13.13 0 0 0 .059.082.36.36 0 0 0 .173.054l.208.026-.067.542-1.909-.232.065-.542.155.019q.165.02.219.004a.15.15 0 0 0 .082-.067.6.6 0 0 0 .051-.205l.264-2.177a.7.7 0 0 0 .004-.241.18.18 0 0 0-.068-.1.5.5 0 0 0-.188-.046l-.175-.021zm4.102.569.872.151.65 3.205q.054.255.116.324.067.069.264.1l-.092.538-1.84-.318.092-.538.112.017q.155.026.222-.002.069-.031.079-.09a1 1 0 0 0-.017-.215l-.054-.374-1.184-.205-.214.368a.7.7 0 0 0-.072.157.12.12 0 0 0 .016.086.2.2 0 0 0 .097.072q.046.018.26.056l-.093.538-1.505-.26.093-.538q.144.024.216.012a.26.26 0 0 0 .121-.056.7.7 0 0 0 .131-.171zm-.482 2.073.779.135-.195-1.136zm3.748-1.498 1.732.435.078 2.496 1.274-2.157 1.762.443-.133.53-.189-.048q-.155-.039-.231.012-.073.049-.118.227l-.546 2.174a.6.6 0 0 0-.029.182.16.16 0 0 0 .05.094.35.35 0 0 0 .15.073l.217.055-.133.529-1.841-.463.133-.529.143.036a.6.6 0 0 0 .217.028.16.16 0 0 0 .099-.054.5.5 0 0 0 .074-.182l.592-2.355-1.73 2.938-.53-.133-.131-3.298-.584 2.328a.23.23 0 0 0-.004.13.2.2 0 0 0 .065.09.5.5 0 0 0 .168.064l.184.047-.134.529-1.566-.393.133-.53.153.039a.6.6 0 0 0 .204.025.17.17 0 0 0 .1-.062.6.6 0 0 0 .08-.202l.539-2.146a.6.6 0 0 0 .029-.197.17.17 0 0 0-.052-.106.34.34 0 0 0-.149-.067l-.208-.053zm7.918 2.208 1.958.715q.372.137.588.302.22.165.34.384a1.13 1.13 0 0 1 .072.948 1.09 1.09 0 0 1-.658.664q-.482.187-1.125-.048l-.632-.231-.254.694a.5.5 0 0 0-.042.171q.006.06.045.101a.5.5 0 0 0 .158.085l.189.069-.187.512-1.807-.66.187-.512.125.045q.165.061.227.056a.16.16 0 0 0 .104-.046.7.7 0 0 0 .102-.207l.745-2.038a.8.8 0 0 0 .061-.231.15.15 0 0 0-.04-.104q-.035-.044-.166-.092l-.178-.064.188-.514zm1.139 1.102-.385 1.053.316.115q.29.107.447.098a.55.55 0 0 0 .285-.104.57.57 0 0 0 .19-.265.51.51 0 0 0-.049-.476q-.105-.165-.392-.27zm2.893.39 2.225.984q.215.095.451.245.239.153.385.376.149.223.173.475a1 1 0 0 1-.088.505.92.92 0 0 1-.59.538 1.6 1.6 0 0 1-.84.024l.36 1.193.014.053q.034.12.074.19a.4.4 0 0 0 .093.112q.05.045.157.091l.156.069-.221.499-1.157-.512-.471-2.067-.3-.133-.319.719a.9.9 0 0 0-.084.248.17.17 0 0 0 .032.104.5.5 0 0 0 .172.104l.166.073-.221.499-1.765-.78.222-.5.16.072a.5.5 0 0 0 .19.052.2.2 0 0 0 .117-.048.8.8 0 0 0 .099-.188l.898-2.03a.5.5 0 0 0 .054-.178.12.12 0 0 0-.032-.095.4.4 0 0 0-.13-.091l-.074-.03-.134-.059.228-.515zm1.067 1.18-.413.934.536.237q.316.14.496.152a.55.55 0 0 0 .31-.064.48.48 0 0 0 .197-.229.43.43 0 0 0 .032-.277.46.46 0 0 0-.142-.244q-.112-.11-.421-.245zm5.455 1.833q.828.44 1.072 1.219.246.777-.175 1.569a2.13 2.13 0 0 1-.737.82 1.83 1.83 0 0 1-.988.291q-.531.003-1.116-.308-.771-.41-1.037-1.097-.323-.829.133-1.685.425-.797 1.214-1.028.792-.228 1.634.219m-.286.56a.87.87 0 0 0-.79-.04q-.494.219-.809.811-.315.591-.224 1.082a.87.87 0 0 0 .471.629.86.86 0 0 0 .784.038q.464-.204.778-.793.22-.414.251-.761a1.06 1.06 0 0 0-.096-.592.86.86 0 0 0-.365-.374m3.218.997.318.198-.037.134 1.89 1.178.111-.088.319.2-.317 1.432-.544-.122q.035-.386.024-.515a1.2 1.2 0 0 0-.12-.458.55.55 0 0 0-.2-.232q-.057-.035-.096-.02-.039.013-.1.112l-1.2 1.925a1.2 1.2 0 0 0-.121.221.2.2 0 0 0-.003.095.2.2 0 0 0 .059.083q.045.039.264.175l-.289.464-1.632-1.019.288-.463.098.062a.8.8 0 0 0 .221.111.17.17 0 0 0 .115-.029.7.7 0 0 0 .159-.201l1.227-1.968q.052-.085.046-.119t-.068-.072a.64.64 0 0 0-.336-.08 1.1 1.1 0 0 0-.439.094 5 5 0 0 0-.439.249l-.342-.43zm3.533 2.395 2.679 1.916-.36 1.276-.524-.148q.072-.324.038-.578a.83.83 0 0 0-.17-.424 1.7 1.7 0 0 0-.361-.336l-.491-.35-.572.8.16.116a1 1 0 0 0 .263.149.22.22 0 0 0 .151-.017q.069-.038.189-.206l.088-.122.409.293-.972 1.358-.409-.293.098-.138a.55.55 0 0 0 .112-.23.2.2 0 0 0-.027-.152q-.04-.064-.238-.206l-.145-.104-.528.737a.6.6 0 0 0-.09.151q-.007.034.016.071a.6.6 0 0 0 .135.117l.269.192q.301.216.569.28.27.06.568-.016.302-.075.578-.278l.317.446-1.273.891-2.776-1.986.319-.444.08.058a.8.8 0 0 0 .233.132q.072.015.136-.025.036-.027.152-.187l1.251-1.749a.7.7 0 0 0 .112-.202.15.15 0 0 0-.013-.107.5.5 0 0 0-.147-.139l-.143-.102zm4.411 5.635 1.489 1.221-.349.427-.112-.091a.5.5 0 0 0-.168-.104.16.16 0 0 0-.11.014.6.6 0 0 0-.153.146l-.784.956-.448-.368.063-.314a2.026 2.026 0 0 1-1.108-.455 1.9 1.9 0 0 1-.595-.828 1.9 1.9 0 0 1-.077-1.016 2.2 2.2 0 0 1 .472-.982q.367-.447.856-.641a1.9 1.9 0 0 1 1.01-.104q.525.088.941.428.201.165.357.381.16.216.232.418l.192-.07.307.252-.554 1.236-.51-.198q.068-.503.045-.72a1.1 1.1 0 0 0-.119-.413.95.95 0 0 0-.244-.314.9.9 0 0 0-.488-.2 1.07 1.07 0 0 0-.573.12 1.74 1.74 0 0 0-.563.472q-.295.36-.4.719-.1.36-.021.641.082.279.306.462a.9.9 0 0 0 .349.181.57.57 0 0 0 .312.017.5.5 0 0 0 .226-.168l.091-.112a.5.5 0 0 0 .105-.16.2.2 0 0 0-.013-.116.5.5 0 0 0-.141-.149l-.173-.143.35-.426zm4.259 1.274.647.605-1.214 3.036q-.096.243-.08.335.017.094.165.229l-.373.398-1.364-1.274.372-.399.085.075q.114.107.187.12.074.011.115-.032a1 1 0 0 0 .104-.19l.16-.341-.879-.821-.38.191a.6.6 0 0 0-.147.091.12.12 0 0 0-.033.081q0 .05.042.112.027.041.186.191l-.372.399-1.117-1.043.373-.4a.6.6 0 0 0 .174.128.25.25 0 0 0 .133.02.7.7 0 0 0 .202-.071zm-1.539 1.47.576.539.46-1.056zm4.134.833.258.271-.069.12 1.535 1.613.129-.056.26.272-.665 1.308-.496-.254q.13-.365.152-.492.046-.251-.002-.474a.56.56 0 0 0-.136-.274q-.047-.05-.088-.045-.04.003-.125.083l-1.643 1.565a1.4 1.4 0 0 0-.173.184.2.2 0 0 0-.027.091q.003.044.036.095.035.048.212.236l-.395.376-1.326-1.394.395-.376.08.083a.8.8 0 0 0 .186.164.17.17 0 0 0 .118 0 .7.7 0 0 0 .204-.155l1.681-1.599q.072-.067.074-.102t-.048-.088a.64.64 0 0 0-.305-.161 1.1 1.1 0 0 0-.448-.019 5 5 0 0 0-.488.132l-.224-.502z"/><path fill="#012169" d="M0 0h271v161H0z"/><path fill="#fff" d="m31.758 0 103.319 60.71L237.972 0H271v20.796l-101.625 60.04L271 140.54V161h-33.875L135.5 100.96 34.298 161H0v-20.125l101.202-59.704L0 21.467V0z"/><path fill="#C8102E" d="M179.538 94.252 271 147.583V161L156.248 94.252zm-77.913 6.708 2.541 11.74-81.3 48.3H0zM271 0v1.006L165.564 64.065l.847-14.759L249.828 0zM0 0l101.202 59.033H75.795L0 14.088z"/><path fill="#fff" d="M102.048 0v161h67.75V0zM0 53.667v53.666h271V53.667z"/><path fill="#C8102E" d="M0 64.735v32.2h271v-32.2zM115.598 0v161h40.65V0z"/></g><defs><linearGradient id="b" x1="471.276" x2="471.5" y1="87.937" y2="73.343" gradientUnits="userSpaceOnUse"><stop stop-color="#474747"/><stop offset="1" stop-color="#F50"/></linearGradient><linearGradient id="c" x1="466.28" x2="466.308" y1="142.818" y2="151.097" gradientUnits="userSpaceOnUse"><stop stop-color="#B50000"/><stop offset="1" stop-color="#FFC500"/></linearGradient><linearGradient id="d" x1="502.525" x2="516.025" y1="147.854" y2="147.674" gradientUnits="userSpaceOnUse"><stop stop-color="#D5DFFF"/><stop offset="1" stop-color="#fff"/></linearGradient><linearGradient id="e" x1="468.686" x2="473.523" y1="85.167" y2="85.167" gradientUnits="userSpaceOnUse"><stop stop-color="#474747"/><stop offset="1" stop-color="#F50"/></linearGradient><linearGradient id="f" x1="538.969" x2="536.608" y1="215.713" y2="201.028" gradientUnits="userSpaceOnUse"><stop stop-color="#D5DFFF"/><stop offset="1" stop-color="#fff"/></linearGradient><linearGradient id="g" x1="505.812" x2="499.788" y1="152.895" y2="143.17" gradientUnits="userSpaceOnUse"><stop stop-color="#D5DFFF"/><stop offset="1" stop-color="#fff"/></linearGradient><clipPath id="a"><path fill="#fff" d="M0 0h600v300H0z"/></clipPath></defs></svg>