<svg xmlns="http://www.w3.org/2000/svg" width="600" height="300" fill="none"><g clip-path="url(#a)"><mask id="b" width="602" height="300" x="-1" y="0" maskUnits="userSpaceOnUse" style="mask-type:luminance"><path fill="#fff" d="M-.005 0h600.017v299.994H-.005z"/></mask><g fill-rule="evenodd" clip-rule="evenodd" mask="url(#b)"><path fill="#000001" d="M-.005 238.94V61.17l198.541 88.885z"/><path fill="#000C8A" d="m135.432 300.052 222.886-99.959h316.575v99.9H135.432z"/><path fill="#E1392D" d="M121.193 0h553.7v100.076H358.229S124.094-.996 121.193 0"/><path fill="#FFB915" d="M-.005 37.5v23.67l198.541 88.827L-.093 238.94v23.613l250.044-112.498z"/><path fill="#007847" d="M-.005 37.5V0H83.49L348.21 119.529h326.771v61.053H348.21L83.402 299.994H-.005v-37.441l249.956-112.498L.083 37.499z"/><path fill="#fff" d="M83.401 0h52.031l222.885 100.017h316.576v19.512H348.21zm0 300.052h52.031l222.885-99.959h316.576v-19.452H348.21L83.401 299.994z"/></g></g><defs><clipPath id="a"><path fill="#fff" d="M0 0h600v300H0z"/></clipPath></defs></svg>