<svg xmlns="http://www.w3.org/2000/svg" width="600" height="300" fill="none"><g clip-path="url(#a)"><mask id="b" width="601" height="301" x="-1" y="0" maskUnits="userSpaceOnUse" style="mask-type:luminance"><path fill="#fff" d="M-.012.016h600v300h-600z"/></mask><g mask="url(#b)"><path fill="#fff" fill-rule="evenodd" d="M-.012.016h600.088v300H-.012z" clip-rule="evenodd"/></g><path fill="#000001" fill-rule="evenodd" d="m146.228 90.991 40.455-60.66 10.11 6.742-40.455 60.66zm15.165 10.114 40.455-60.66 10.11 6.742-40.455 60.66zm15.165 10.114 40.455-60.66 10.111 6.742-40.456 60.66zM368.65 239.328l40.456-60.66 10.11 6.742-40.456 60.661zm15.166 10.114 40.455-60.661 10.11 6.743-40.455 60.661zm15.165 10.114 40.455-60.661 10.11 6.743-40.455 60.661z" clip-rule="evenodd"/><path fill="#000" fill-rule="evenodd" d="m383.823 205.626 50.551 33.713Z" clip-rule="evenodd"/><path stroke="#fff" stroke-width="6.076" d="m383.823 205.626 50.551 33.713"/><path fill="#CD2E3A" fill-rule="evenodd" d="M237.227 107.859a72.91 72.91 0 0 1 101.116-20.205 72.91 72.91 0 0 1 20.205 101.116z" clip-rule="evenodd"/><path fill="#0047A0" fill-rule="evenodd" d="M237.226 107.859a72.917 72.917 0 0 0 20.205 101.116 72.91 72.91 0 0 0 101.116-20.205 36.453 36.453 0 0 0-10.102-50.558 36.454 36.454 0 0 0-50.558 10.103z" clip-rule="evenodd"/><path fill="#CD2E3A" d="M297.886 148.315c11.172-16.751 6.649-39.387-10.102-50.558-16.751-11.172-39.387-6.649-50.558 10.102-11.172 16.751-6.649 39.387 10.102 50.558 16.751 11.172 39.387 6.649 50.558-10.102"/><path fill="#000001" fill-rule="evenodd" d="m186.851 266.322-40.456-60.661 10.11-6.742 40.456 60.66zm15.165-10.114-40.456-60.661 10.11-6.742 40.456 60.66zm15.165-10.114-40.456-60.661 10.11-6.742 40.456 60.66zM409.272 117.985l-40.455-60.661 10.11-6.743 40.456 60.661zm15.166-10.114-40.456-60.66 10.11-6.743 40.456 60.66zm15.165-10.114-40.456-60.66 10.11-6.743 40.456 60.66z" clip-rule="evenodd"/><path fill="#000" fill-rule="evenodd" d="m179.261 227.563 15.165-10.114ZM383.99 91.026l17.693-11.8Zm32.858-21.914 15.165-10.114Z" clip-rule="evenodd"/><path stroke="#fff" stroke-width="6.076" d="m179.261 227.563 15.165-10.114M383.99 91.026l17.693-11.8m15.165-10.114 15.165-10.114"/></g><defs><clipPath id="a"><path fill="#fff" d="M0 0h600v300H0z"/></clipPath></defs></svg>