<svg xmlns="http://www.w3.org/2000/svg" width="600" height="300" fill="none"><g clip-path="url(#a)"><path fill="#fff" fill-rule="evenodd" d="M0 0h600v300H0z" clip-rule="evenodd"/><path fill="#09C" d="M600 256.313 85.969-.062H0v42.75L516 300h84z"/><path fill="#005BBF" d="M300.239 258.389c-54.411 0-52.711-51.266-52.711-51.266v-78.896H352.95v78.896s1.87 51.266-52.711 51.266"/><path stroke="#000" stroke-width=".907" d="M300.217 258.4c-54.411 0-52.688-51.281-52.688-51.281v-78.873h105.467v78.873s1.814 51.281-52.779 51.281Z"/><path fill="#D81126" d="M299.729 78.748s-11.222-5.526-21.85 2.55c0 0-19.129-2.805-20.574 15.558 0 .68-.17 2.04.17 2.55.425.34.765 1.106.765 1.616s.255.85.425 1.02c0 .255.341.595.511 1.531 0 1.02-.255 1.445.85 2.465.85.85.85 3.656.85 4.506s.51 2.976.85 3.401c.51.51 1.19 1.7 1.19 2.72 0 .851.425 3.571.17 4.251-.17.68 1.106 1.531 2.211 1.871s14.453 4.761 34.092 4.335c19.554-.255 26.695-1.36 34.857-4.25a1.958 1.958 0 0 0 1.36-2.041 5.95 5.95 0 0 1 .255-2.805c.34-.51 2.721-4.251 2.211-4.846-.51-.766-.51-2.211 0-2.721.425-.595 1.87-3.401 2.125-4.506s.34-2.55.85-2.805c.51-.425.68-1.701.851-2.041a3.64 3.64 0 0 1 1.02-1.445s.85-4.676.34-6.887c-.595-2.295-4.081-12.072-17.854-10.032 0 0-10.372-7.906-25.675-4.08"/><path stroke="#000" stroke-width="1.361" d="M299.764 78.69s-11.245-5.446-21.856 2.54c0 0-19.134-2.722-20.585 15.612 0 .726-.182 2.088.181 2.541.363.364.726 1.09.726 1.634 0 .545.272.817.453.999 0 .272.363.635.453 1.543 0 .998-.181 1.452.817 2.45.906.908.906 3.721.906 4.538s.545 2.995.907 3.449c.454.454 1.179 1.634 1.179 2.632 0 .908.363 3.631.182 4.266-.182.726 1.088 1.543 2.176 1.906s14.51 4.72 34.098 4.357c19.588-.272 26.661-1.362 34.823-4.266a1.99 1.99 0 0 0 1.36-2.087c-.181-.545 0-2.36.272-2.814.363-.454 2.721-4.175 2.177-4.811-.454-.726-.454-2.178 0-2.722.453-.636 1.904-3.359 2.176-4.539.272-1.089.363-2.45.907-2.813.454-.363.635-1.725.726-1.997a3.6 3.6 0 0 1 1.088-1.452s.907-4.63.363-6.898c-.635-2.27-4.081-12.072-17.956-9.984 0 0-10.338-7.897-25.573-4.085Z"/><path fill="#BCAC0B" d="M337.392 112.754c-42.594-13.433-75.665-.595-75.665-.595s.425 1.445.765 1.955.85 1.53.85 2.296v2.55c0 .68-.34 3.401 2.04 3.316 0 0 29.756-11.648 68.354.595 0 0 1.106-.85 1.106-2.21a7.2 7.2 0 0 1 .85-3.656c.51-.765 1.7-3.061 1.7-4.251"/><path fill="#C8B100" fill-opacity=".9" d="M297.858 184.083H279.24s-1.786 16.579 12.582 21.68v1.445h2.976v2.041s-5.271 4.676-.68 10.202v1.53h.765v2.721h.85v4.25s-.68 15.474-15.898 22.955v.85h40.468v-.85c-15.218-7.396-15.898-22.955-15.898-22.955v-4.25h.85v-2.721h.85v-1.615c4.421-5.441-.85-10.202-.85-10.202v-1.956h3.146v-1.445c14.198-5.101 12.412-21.68 12.412-21.68h-23.04"/><path stroke="#000" stroke-width=".907" d="M297.859 184.065h-18.591s-1.813 16.61 12.515 21.693v1.452h2.993v1.997s-5.26 4.719-.635 10.165v1.634h.725v2.723h.907v4.266s-.725 15.429-15.961 22.872v.908h40.537v-.908c-15.145-7.352-15.87-22.872-15.87-22.872v-4.266h.907v-2.723h.725v-1.634c4.535-5.446-.725-10.165-.725-10.165v-1.997h3.083v-1.452c14.238-5.083 12.424-21.693 12.424-21.693z"/><path stroke="#000" stroke-width=".272" d="M291.147 205.486h17.865m-17.23 1.361h16.686m-13.603 2.269h10.429m-11.154 10.438h11.88m-11.245 1.271h10.519m-10.519 2.541h10.429m-16.777 21.057h23.125m-29.655 5.355h36.275m-37.635.817h38.995"/><path fill="#CCC" d="M300.238 183.149a11.894 11.894 0 0 0 11.903-7.074 11.9 11.9 0 0 0-7.049-16.049 11.9 11.9 0 0 0-4.854-.597 11.818 11.818 0 1 0 0 23.635"/><path stroke="#000" stroke-width=".907" d="M300.217 183.157c3.139 0 6.149-1.248 8.368-3.469a11.85 11.85 0 0 0 0-16.751 11.83 11.83 0 0 0-8.368-3.469 11.78 11.78 0 0 0-8.336 3.456 11.804 11.804 0 0 0 0 16.687 11.79 11.79 0 0 0 8.336 3.456z"/><path fill="#CCC" d="M272.693 148.462h-7.312v-7.482h-6.546v7.396h-7.397v6.547h7.397v7.226h6.546v-7.226h7.227v-6.461"/><path stroke="#000" stroke-width=".907" d="M272.739 148.396h-7.346v-7.443h-6.529v7.443h-7.436v6.535h7.436v7.261h6.529v-7.261h7.255v-6.535"/><path fill="#CCC" d="M349.379 148.462h-7.396v-7.482h-6.376v7.396h-7.652v6.547h7.482v7.226h6.461v-7.226h7.396z"/><path stroke="#000" stroke-width=".907" d="M349.368 148.396h-7.346v-7.443h-6.529v7.443h-7.436v6.535h7.436v7.261h6.529v-7.261h7.346z"/><path fill="#CCC" d="M310.526 139.109h-7.397v-7.311h-6.631v7.226h-7.227v6.547h7.227v7.481h6.546v-7.481h7.397v-6.462"/><path stroke="#000" stroke-width=".907" d="M310.554 139.048h-7.436v-7.261h-6.529v7.261h-7.255v6.535h7.255v7.442h6.529v-7.442h7.436z"/><path fill="#CCC" d="M272.693 180.343h-7.312v-7.481h-6.546v7.481h-7.397v6.547h7.397v7.226h6.546v-7.226h7.227v-6.547"/><path stroke="#000" stroke-width=".907" d="M272.739 180.344h-7.346v-7.442h-6.529v7.442h-7.436v6.535h7.436v7.261h6.529v-7.261h7.255v-6.535"/><path fill="#CCC" d="M349.379 180.343h-7.396v-7.481h-6.376v7.481h-7.652v6.547h7.482v7.226h6.461v-7.226h7.396z"/><path stroke="#000" stroke-width=".907" d="M349.368 180.344h-7.346v-7.442h-6.529v7.442h-7.436v6.535h7.436v7.261h6.529v-7.261h7.346z"/><path fill="#CCC" d="M272.693 212.565h-7.312v-7.312h-6.546v7.312h-7.397v6.546h7.397v7.312h6.546v-7.227h7.227v-6.631"/><path stroke="#000" stroke-width=".907" d="M272.739 212.566h-7.346v-7.352h-6.529v7.352h-7.436v6.535h7.436v7.351h6.529v-7.261h7.255v-6.625"/><path fill="#CCC" d="M349.379 212.565h-7.396v-7.312h-6.376v7.312h-7.652v6.546h7.482v7.312h6.461v-7.227h7.396z"/><path stroke="#000" stroke-width=".907" d="M349.368 212.566h-7.346v-7.352h-6.529v7.352h-7.436v6.535h7.436v7.351h6.529v-7.261h7.346z"/><path fill="#005BBF" d="M300.153 62.935a7.141 7.141 0 1 0 0-14.283 7.141 7.141 0 0 0 0 14.283"/><path stroke="#000" stroke-width=".907" d="M300.127 62.897c1.888 0 3.698-.75 5.033-2.087a7.13 7.13 0 0 0 0-10.076 7.114 7.114 0 0 0-10.067 0 7.13 7.13 0 0 0 0 10.076 7.12 7.12 0 0 0 5.034 2.087Z"/><path fill="#FC0" d="M306.7 54.518h-5.781v-9.352h2.295v-1.87h-2.295V41h-1.785v2.21h-2.296v1.87h2.211v9.438h-5.442v1.275H306.7z"/><path fill="#BCAC0B" stroke="#000" stroke-width=".454" d="M306.746 54.547h-5.804v-9.44h2.267v-1.815h-2.267v-2.269h-1.813v2.179h-2.268v1.906h2.177v9.44h-5.441v1.27h13.149z"/><path fill="#FC0" d="M271.757 71.352s5.271-.596 8.247.595c0 0-3.401 3.995-2.721 9.182.149 1.918.73 3.778 1.7 5.44a9.36 9.36 0 0 1 1.106 5.952h1.02s.935-4.251-.68-6.631a9.1 9.1 0 0 1-1.725-4.558 9.1 9.1 0 0 1 .875-4.794c1.7-3.401 4.165-4.846 4.165-4.846 3.464.81 7.101.39 10.288-1.19 1.7-1.19 2.55-2.891-.511-2.976-3.23-.17-8.501-.085-12.072 2.635 0 0-1.87-2.21-11.392-1.19-9.522 1.105-16.324 5.101-18.534 13.688-1.105 4.42 2.975 13.603 6.716 15.728 0 0-.085-1.445.255-2.55 0 0-6.376-7.142-4.506-13.773 1.956-6.547 9.607-10.882 17.769-10.712"/><path fill="#BCAC0B" stroke="#000" stroke-width=".635" d="M271.741 71.338s5.259-.544 8.252.636c0 0-3.446 3.993-2.721 9.167.363 2.722.907 4.084 1.723 5.445.726 1.18 1.542 3.903 1.089 5.99h.997s.998-4.356-.635-6.716a9.09 9.09 0 0 1-.906-9.348c1.723-3.45 4.171-4.81 4.171-4.81 2.721 1.088 8.706 0 10.338-1.18 1.723-1.18 2.539-2.905-.544-2.996-3.174-.181-8.434-.09-12.061 2.632 0 0-1.904-2.178-11.426-1.18-9.522 1.09-16.324 5.174-18.5 13.706-1.088 4.356 2.992 13.523 6.71 15.701 0 0-.09-1.452.273-2.54 0 0-6.348-7.171-4.535-13.797 1.995-6.535 9.613-10.891 17.775-10.71Z"/><path fill="#fff" d="M289.611 70.076c1.701-.17 2.976-.425 2.891-.68 0-.255-1.36-.255-2.976-.17-1.7.085-2.89.51-2.89.68 0 .255 1.36.255 2.975.17"/><path stroke="#000" stroke-width=".635" d="M283.622 71.61c1.813-1.815 5.803-2.904 8.071-2.45 2.176.544-.454.816-1.179.907-.726 0-2.177.272-4.353 0"/><path fill="#FC0" d="M328.38 71.946s-5.101-.596-8.247.595a13.26 13.26 0 0 1 1.105 14.453c-.85 1.445-1.615 4.08-1.19 6.12h-.85s-1.105-4.25.595-6.716a9.1 9.1 0 0 0 .85-9.266 11.45 11.45 0 0 0-4.081-4.846c-2.805 1.105-8.841 0-10.457-1.19-1.7-1.19-2.55-2.806.68-3.061 3.061-.17 8.417 0 11.988 2.72 0 0 1.87-2.21 11.477-1.105 9.352.935 16.324 5.101 18.364 13.603 1.105 4.25-2.891 13.518-6.631 15.643 0 0 0-1.445-.255-2.55 0 0 6.376-7.057 4.506-13.603-1.956-6.717-9.522-10.968-17.854-10.797"/><path fill="#BCAC0B" stroke="#000" stroke-width=".635" d="M328.42 71.973s-5.169-.635-8.252.545a13.27 13.27 0 0 1 1.088 14.522c-.816 1.361-1.632 3.993-1.179 6.081h-.907s-1.088-4.266.635-6.716a9.09 9.09 0 0 0 .816-9.258 11.43 11.43 0 0 0-4.081-4.901c-2.811 1.18-8.796 0-10.429-1.18-1.632-1.18-2.539-2.814.635-2.996 3.084-.181 8.434-.09 12.061 2.723 0 0 1.814-2.269 11.427-1.18 9.431.999 16.323 5.083 18.409 13.615 1.088 4.357-2.902 13.523-6.62 15.702 0 0 0-1.452-.272-2.542 0 0 6.348-7.079 4.443-13.705-1.904-6.625-9.522-10.891-17.774-10.71Z"/><path fill="#fff" d="M310.525 70.585c-1.615 0-2.89-.34-2.89-.595 0-.17 1.36-.255 2.975-.17 1.701.17 3.061.425 3.061.595 0 .255-1.36.34-3.146.17"/><path stroke="#000" stroke-width=".635" d="M316.54 72.155c-1.813-1.725-5.804-2.904-7.98-2.36-2.267.454.363.726 1.088.817.816 0 2.267.363 4.444 0"/><path fill="#FC0" d="M295.223 65.996V86.4c-.17 1.955 2.465 4.846 4.336 5.611 0 0 4.59-1.445 4.846-5.611V65.145h-1.531v18.45c0 1.785-1.275 5.27-3.06 5.78 0 0-3.231-.51-3.401-5.78v-17.94l-1.19.51"/><path fill="#BCAC0B" stroke="#000" stroke-width=".635" d="M295.23 66.074v20.24c-.182 1.997 2.448 4.81 4.352 5.627 0 0 4.535-1.452 4.807-5.627v-21.33h-1.542v18.517c0 1.815-1.269 5.264-2.992 5.808 0 0-3.265-.544-3.446-5.808V65.529z"/><path fill="#fff" d="M250.589 93.795a2.463 2.463 0 0 0 2.921-2.423 2.467 2.467 0 0 0-2.921-2.423 2.466 2.466 0 0 0 0 4.846"/><path stroke="#000" stroke-width=".907" d="M250.521 93.757a2.449 2.449 0 0 0 2.684-3.451 2.449 2.449 0 1 0-4.104 2.603c.361.44.863.739 1.42.848Z"/><path fill="#fff" d="M248.973 88.184a2.466 2.466 0 1 0 1.284-4.763 2.466 2.466 0 0 0-1.284 4.763"/><path stroke="#000" stroke-width=".907" d="M248.979 88.22a2.45 2.45 0 1 0 .938-4.81 2.45 2.45 0 0 0-.938 4.81Z"/><path fill="#fff" d="M249.738 81.468a2.466 2.466 0 1 0 1.284-4.761 2.466 2.466 0 0 0-1.284 4.761"/><path stroke="#000" stroke-width=".907" d="M249.796 81.504a2.446 2.446 0 0 0 2.683-1.36 2.455 2.455 0 0 0-.657-2.937 2.446 2.446 0 0 0-3.447.334 2.453 2.453 0 0 0 1.421 3.963Z"/><path fill="#fff" d="M253.479 75.857a2.465 2.465 0 1 0 1.284-4.759 2.465 2.465 0 0 0-1.284 4.76"/><path stroke="#000" stroke-width=".907" d="M253.513 75.876a2.445 2.445 0 0 0 2.683-1.36 2.455 2.455 0 0 0-.658-2.937 2.44 2.44 0 0 0-2.025-.514 2.446 2.446 0 0 0-1.98 2.406 2.45 2.45 0 0 0 1.98 2.405Z"/><path fill="#fff" d="M257.984 71.776a2.466 2.466 0 1 0 1.284-4.76 2.466 2.466 0 0 0-1.284 4.76"/><path stroke="#000" stroke-width=".907" d="M257.957 71.792a2.446 2.446 0 0 0 2.683-1.36 2.44 2.44 0 0 0 0-2.091 2.444 2.444 0 0 0-2.683-1.36 2.45 2.45 0 0 0-1.421 3.964 2.45 2.45 0 0 0 1.421.847Z"/><path fill="#fff" d="M263.766 69.48a2.466 2.466 0 1 0 1.284-4.762 2.466 2.466 0 0 0-1.284 4.762"/><path stroke="#000" stroke-width=".907" d="M263.761 69.523a2.445 2.445 0 0 0 2.683-1.36 2.455 2.455 0 0 0-.658-2.937 2.44 2.44 0 0 0-2.025-.514 2.446 2.446 0 0 0-1.98 2.406 2.45 2.45 0 0 0 1.98 2.405Z"/><path fill="#fff" d="M269.718 68.545a2.464 2.464 0 0 0 2.465-2.465 2.467 2.467 0 0 0-2.465-2.466 2.465 2.465 0 0 0 0 4.846"/><path stroke="#000" stroke-width=".907" d="M269.746 68.524a2.447 2.447 0 0 0 2.449-2.45 2.45 2.45 0 0 0-2.449-2.451 2.45 2.45 0 0 0-1.421 3.963 2.45 2.45 0 0 0 1.421.847z"/><path fill="#fff" d="M275.498 68.12a2.46 2.46 0 0 0 2.687-1.374 2.467 2.467 0 0 0-2.687-3.471 2.466 2.466 0 0 0 0 4.846"/><path stroke="#000" stroke-width=".907" d="M275.46 68.162a2.45 2.45 0 0 0 1.732-4.184 2.45 2.45 0 1 0-3.463 3.466c.459.46 1.082.718 1.731.718Z"/><path fill="#fff" d="M280.6 68.545a2.468 2.468 0 0 0 2.922-2.423A2.467 2.467 0 0 0 280.6 63.7a2.464 2.464 0 0 0-2.465 2.466 2.467 2.467 0 0 0 2.465 2.465"/><path stroke="#000" stroke-width=".907" d="M280.628 68.525a2.45 2.45 0 0 0 2.026-4.297 2.45 2.45 0 0 0-2.026-.513 2.447 2.447 0 0 0-2.448 2.45 2.45 2.45 0 0 0 2.448 2.451z"/><path fill="#fff" d="M295.138 66.675a2.466 2.466 0 1 0 1.284-4.763 2.466 2.466 0 0 0-1.284 4.763"/><path stroke="#000" stroke-width=".907" d="M295.139 66.709a2.445 2.445 0 0 0 2.683-1.36 2.455 2.455 0 0 0-.658-2.937 2.44 2.44 0 0 0-2.025-.514 2.446 2.446 0 0 0-1.98 2.406 2.45 2.45 0 0 0 1.98 2.405Z"/><path fill="#fff" d="M299.9 67.95a2.466 2.466 0 1 0 1.284-4.761 2.466 2.466 0 0 0-1.284 4.761"/><path stroke="#000" stroke-width=".907" d="M299.854 67.98a2.449 2.449 0 0 0 2.026-4.296 2.449 2.449 0 0 0-3.446 3.45c.361.438.863.737 1.42.846Z"/><path fill="#fff" d="M299.899 85.974a2.464 2.464 0 0 0 1.743-4.21 2.464 2.464 0 0 0-4.208 1.744 2.463 2.463 0 0 0 2.465 2.466"/><path stroke="#000" stroke-width=".907" d="M299.854 85.952a2.447 2.447 0 0 0 2.448-2.451 2.45 2.45 0 0 0-2.448-2.45 2.45 2.45 0 0 0 0 4.9Z"/><path fill="#fff" d="M349.803 95.326a2.463 2.463 0 0 0 2.921-2.423 2.467 2.467 0 0 0-4.931 0 2.466 2.466 0 0 0 2.01 2.423"/><path stroke="#000" stroke-width=".907" d="M349.821 95.3a2.45 2.45 0 1 0 .938-4.811 2.45 2.45 0 0 0-.938 4.81Z"/><path fill="#fff" d="M351.079 89.375A2.463 2.463 0 0 0 354 86.952a2.467 2.467 0 0 0-2.921-2.423 2.466 2.466 0 0 0 0 4.76"/><path stroke="#000" stroke-width=".907" d="M351.092 89.4a2.447 2.447 0 0 0 2.448-2.45 2.45 2.45 0 0 0-2.448-2.451 2.446 2.446 0 0 0-1.98 2.405 2.45 2.45 0 0 0 1.98 2.405z"/><path fill="#fff" d="M350.059 82.998a2.465 2.465 0 1 0 0-4.761 2.466 2.466 0 0 0 0 4.846"/><path stroke="#000" stroke-width=".907" d="M350.094 83.046a2.445 2.445 0 0 0 2.683-1.36 2.455 2.455 0 0 0-.658-2.937 2.44 2.44 0 0 0-2.025-.513 2.446 2.446 0 0 0-1.98 2.405 2.45 2.45 0 0 0 1.98 2.405Z"/><path fill="#fff" d="M347.508 77.132a2.463 2.463 0 0 0 2.921-2.423 2.467 2.467 0 0 0-2.921-2.423 2.465 2.465 0 0 0 0 4.846"/><path stroke="#000" stroke-width=".907" d="M347.464 77.147a2.449 2.449 0 1 0 0-4.9 2.449 2.449 0 0 0 0 4.9Z"/><path fill="#fff" d="M343.003 73.052a2.464 2.464 0 0 0 1.743-4.209 2.46 2.46 0 0 0-1.743-.722 2.466 2.466 0 0 0 0 4.846"/><path stroke="#000" stroke-width=".907" d="M343.019 73.062a2.45 2.45 0 0 0 2.449-2.45 2.45 2.45 0 0 0-2.449-2.45 2.45 2.45 0 0 0-1.979 2.404 2.45 2.45 0 0 0 1.979 2.406z"/><path fill="#fff" d="M337.646 70.33a2.466 2.466 0 1 0 1.284-4.762 2.466 2.466 0 0 0-1.284 4.762"/><path stroke="#000" stroke-width=".907" d="M337.67 70.34a2.444 2.444 0 0 0 2.683-1.36 2.455 2.455 0 0 0-.657-2.937 2.446 2.446 0 0 0-3.447.333 2.45 2.45 0 0 0 0 3.116c.361.439.863.738 1.421.847Z"/><path fill="#fff" d="M331.525 68.97a2.464 2.464 0 0 0 2.141-4.338 2.463 2.463 0 0 0-3.457.458 2.47 2.47 0 0 0 0 2.999c.33.43.792.74 1.316.881"/><path stroke="#000" stroke-width=".907" d="M331.503 68.978a2.444 2.444 0 0 0 2.683-1.36 2.44 2.44 0 0 0 .234-1.045 2.44 2.44 0 0 0-.891-1.892 2.446 2.446 0 0 0-3.447.334 2.45 2.45 0 0 0 0 3.116c.361.439.863.738 1.421.847Z"/><path fill="#fff" d="M325.999 68.545a2.46 2.46 0 0 0 2.687-1.374 2.467 2.467 0 0 0-2.687-3.472 2.466 2.466 0 0 0 0 4.846"/><path stroke="#000" stroke-width=".907" d="M325.973 68.525a2.445 2.445 0 0 0 2.683-1.36 2.455 2.455 0 0 0-.658-2.937 2.44 2.44 0 0 0-2.025-.513 2.446 2.446 0 0 0-1.98 2.405 2.45 2.45 0 0 0 1.98 2.405Z"/><path fill="#fff" d="M320.898 67.865a2.47 2.47 0 0 0 2.688-1.375 2.467 2.467 0 1 0-2.688 1.375"/><path stroke="#000" stroke-width=".907" d="M320.893 67.89a2.447 2.447 0 0 0 2.448-2.45 2.45 2.45 0 0 0-2.448-2.451 2.45 2.45 0 0 0 0 4.901Z"/><path fill="#fff" d="M324.129 87.589a2.463 2.463 0 0 0 2.921-2.423 2.467 2.467 0 0 0-2.921-2.423 2.47 2.47 0 0 0-2.466 2.465 2.467 2.467 0 0 0 2.466 2.466"/><path stroke="#000" stroke-width=".907" d="M324.158 87.584a2.445 2.445 0 0 0 2.683-1.36 2.455 2.455 0 0 0-.658-2.936 2.45 2.45 0 0 0-2.025-.514 2.447 2.447 0 0 0-2.449 2.45 2.45 2.45 0 0 0 2.449 2.451z"/><path fill="#fff" d="M325.404 82.999a2.463 2.463 0 0 0 2.921-2.423 2.467 2.467 0 0 0-2.921-2.423 2.466 2.466 0 0 0 0 4.76"/><path stroke="#000" stroke-width=".907" d="M325.428 83.047a2.447 2.447 0 0 0 2.448-2.45 2.45 2.45 0 0 0-2.448-2.451 2.446 2.446 0 0 0-1.98 2.405 2.45 2.45 0 0 0 1.98 2.405z"/><path fill="#fff" d="M305.085 67.525a2.464 2.464 0 0 0 2.465-2.465 2.467 2.467 0 0 0-4.209-1.744 2.467 2.467 0 0 0 1.744 4.21"/><path stroke="#000" stroke-width=".907" d="M305.115 67.527a2.447 2.447 0 0 0 2.448-2.45 2.45 2.45 0 0 0-2.448-2.451 2.447 2.447 0 0 0-2.449 2.45 2.45 2.45 0 0 0 2.449 2.45Z"/><path fill="#fff" d="M293.353 66.846a2.46 2.46 0 0 0 2.687-1.375A2.467 2.467 0 0 0 293.353 62a2.464 2.464 0 0 0-1.315 3.88c.329.43.792.74 1.315.881"/><path stroke="#000" stroke-width=".907" d="M293.324 66.8a2.45 2.45 0 0 0 2.026-4.296 2.449 2.449 0 0 0-3.447 3.45 2.45 2.45 0 0 0 1.421.847Z"/><path fill="#fff" d="M290.461 66.675a2.466 2.466 0 1 0 1.284-4.763 2.466 2.466 0 0 0-1.284 4.763"/><path stroke="#000" stroke-width=".907" d="M290.423 66.709a2.445 2.445 0 0 0 2.683-1.36 2.455 2.455 0 0 0-.657-2.937 2.45 2.45 0 0 0-2.026-.514 2.446 2.446 0 0 0-1.98 2.406 2.45 2.45 0 0 0 1.98 2.405Z"/><path fill="#fff" d="M274.988 87.674a2.468 2.468 0 0 0 2.922-2.423 2.467 2.467 0 1 0-2.922 2.423"/><path stroke="#000" stroke-width=".907" d="M275.007 87.675a2.446 2.446 0 0 0 2.917-2.405 2.455 2.455 0 0 0-1.847-2.376 2.44 2.44 0 0 0-2.491.818 2.453 2.453 0 0 0 1.421 3.963Z"/><path fill="#fff" d="M274.308 81.979a2.47 2.47 0 0 0 2.466-2.466 2.467 2.467 0 0 0-4.209-1.743 2.467 2.467 0 0 0 1.743 4.209"/><path stroke="#000" stroke-width=".907" d="M274.281 81.957a2.447 2.447 0 0 0 2.448-2.45 2.45 2.45 0 0 0-2.448-2.451 2.45 2.45 0 0 0-2.449 2.45 2.45 2.45 0 0 0 2.449 2.45Z"/><path fill="#fff" d="M276.094 76.367a2.463 2.463 0 0 0 2.921-2.423 2.467 2.467 0 0 0-4.931 0 2.465 2.465 0 0 0 2.01 2.423"/><path stroke="#000" stroke-width=".907" d="M276.095 76.33a2.445 2.445 0 0 0 2.683-1.36 2.455 2.455 0 0 0-.658-2.937 2.44 2.44 0 0 0-2.025-.514 2.446 2.446 0 0 0-1.98 2.406 2.45 2.45 0 0 0 1.98 2.405Z"/><path fill="#fff" d="M286.722 67.27a2.463 2.463 0 0 0 2.921-2.423 2.467 2.467 0 0 0-4.931 0 2.465 2.465 0 0 0 2.01 2.423"/><path stroke="#000" stroke-width=".907" d="M286.705 67.253a2.446 2.446 0 0 0 2.683-1.36 2.44 2.44 0 0 0 0-2.09 2.445 2.445 0 0 0-4.104-.513 2.452 2.452 0 0 0 1.421 3.963Z"/><path fill="#fff" d="M282.64 68.886a2.465 2.465 0 1 0 .911-4.845 2.465 2.465 0 0 0-.911 4.845"/><path stroke="#000" stroke-width=".907" d="M282.624 68.888a2.444 2.444 0 0 0 2.683-1.36 2.44 2.44 0 0 0 0-2.091 2.445 2.445 0 0 0-2.683-1.36 2.45 2.45 0 0 0-1.421 3.964 2.45 2.45 0 0 0 1.421.847Z"/><path fill="#fff" d="M278.814 72.117a2.466 2.466 0 1 0 1.284-4.763 2.466 2.466 0 0 0-1.284 4.763"/><path stroke="#000" stroke-width=".907" d="M278.815 72.156a2.447 2.447 0 0 0 2.918-2.406 2.46 2.46 0 0 0-.892-1.891 2.449 2.449 0 0 0-3.446 3.45c.361.438.863.738 1.42.847Z"/><path fill="#fff" d="M299.9 70.67a2.466 2.466 0 1 0 1.284-4.76 2.466 2.466 0 0 0-1.284 4.76"/><path stroke="#000" stroke-width=".907" d="M299.854 70.702a2.449 2.449 0 0 0 2.684-3.451 2.449 2.449 0 1 0-4.104 2.604c.361.439.863.738 1.42.847Z"/><path fill="#fff" d="M299.899 75.347a2.464 2.464 0 0 0 2.466-2.465 2.464 2.464 0 0 0-2.466-2.466 2.464 2.464 0 0 0-1.743 4.209 2.46 2.46 0 0 0 1.743.722"/><path stroke="#000" stroke-width=".907" d="M299.854 75.332a2.447 2.447 0 0 0 2.448-2.45 2.45 2.45 0 0 0-2.448-2.451 2.45 2.45 0 0 0-1.732 4.183 2.45 2.45 0 0 0 1.732.718Z"/><path fill="#fff" d="M299.899 80.193a2.468 2.468 0 0 0 2.922-2.423 2.467 2.467 0 0 0-4.364-1.574 2.464 2.464 0 0 0 1.442 3.997"/><path stroke="#000" stroke-width=".907" d="M299.854 80.233a2.447 2.447 0 0 0 2.448-2.45 2.45 2.45 0 0 0-2.448-2.451 2.45 2.45 0 0 0-1.732 4.183 2.45 2.45 0 0 0 1.732.718Z"/><path fill="#fff" d="M308.23 66.846a2.468 2.468 0 0 0 2.922-2.423A2.467 2.467 0 0 0 308.23 62a2.464 2.464 0 0 0-2.465 2.466 2.463 2.463 0 0 0 2.465 2.465"/><path stroke="#000" stroke-width=".907" d="M308.197 66.89a2.447 2.447 0 0 0 2.448-2.45 2.45 2.45 0 0 0-2.448-2.451 2.447 2.447 0 0 0-2.449 2.45 2.45 2.45 0 0 0 2.449 2.451Z"/><path fill="#fff" d="M311.461 66.165a2.46 2.46 0 0 0 2.687-1.374 2.467 2.467 0 0 0-4.129-2.623 2.465 2.465 0 0 0 1.442 3.997"/><path stroke="#000" stroke-width=".907" d="M311.461 66.164a2.44 2.44 0 0 0 2.026-.514 2.44 2.44 0 0 0 .891-1.891 2.44 2.44 0 0 0-.891-1.892 2.446 2.446 0 0 0-3.447.334 2.453 2.453 0 0 0 1.421 3.963Z"/><path fill="#fff" d="M315.202 66.675a2.466 2.466 0 1 0 0-4.76 2.466 2.466 0 0 0 0 4.845"/><path stroke="#000" stroke-width=".907" d="M315.271 66.709a2.445 2.445 0 0 0 2.683-1.36 2.455 2.455 0 0 0-.657-2.937 2.45 2.45 0 0 0-2.026-.514 2.45 2.45 0 0 0-1.732 4.184 2.45 2.45 0 0 0 1.732.718z"/><path fill="#fff" d="M324.554 77.047a2.466 2.466 0 1 0 1.284-4.763 2.466 2.466 0 0 0-1.284 4.763"/><path stroke="#000" stroke-width=".907" d="M324.61 77.057a2.45 2.45 0 0 0 2.026-4.297 2.449 2.449 0 0 0-3.447 3.45c.362.438.864.738 1.421.847Z"/><path fill="#fff" d="M319.027 68.97a2.47 2.47 0 0 0 2.278-1.522 2.464 2.464 0 0 0-4.021-2.687 2.463 2.463 0 0 0 0 3.487 2.46 2.46 0 0 0 1.743.722"/><path stroke="#000" stroke-width=".907" d="M318.988 68.978a2.447 2.447 0 0 0 2.448-2.45 2.45 2.45 0 0 0-2.448-2.45 2.447 2.447 0 0 0-2.449 2.45 2.45 2.45 0 0 0 2.449 2.45Z"/><path fill="#fff" d="M322.428 72.286a2.463 2.463 0 0 0 2.921-2.423 2.467 2.467 0 0 0-2.921-2.423 2.465 2.465 0 0 0 0 4.846"/><path stroke="#000" stroke-width=".907" d="M322.435 72.246a2.446 2.446 0 0 0 2.917-2.406 2.455 2.455 0 0 0-1.847-2.375 2.45 2.45 0 0 0-2.491.817 2.453 2.453 0 0 0 1.421 3.964Z"/><path fill="#fff" d="m299.644 108.504-6.291 3.231 5.696 3.655 6.801-3.4z"/><path stroke="#000" stroke-width=".454" d="m299.672 108.46-6.348 3.267 5.713 3.631 6.802-3.449z"/><path fill="#fff" d="m285.701 109.184-9.522 1.445s-.17 5.186.255 6.376l9.947-1.275s.425-4.846-.68-6.546"/><path stroke="#000" stroke-width=".454" d="m285.706 109.187-9.522 1.452s-.181 5.174.272 6.354l9.885-1.271s.453-4.81-.635-6.535Z"/><path fill="#058E6E" fill-opacity=".9" d="M284.681 111.055s-5.782.51-7.227 1.02v3.401s3.911-.596 7.312-.851v-3.57"/><path stroke="#000" stroke-width=".454" d="M284.709 111.001s-5.804.545-7.255 1.089v3.449s3.9-.635 7.346-.908z"/><path fill="#fff" d="m312.992 109.354 9.607 1.53s.085 5.186-.34 6.377l-9.777-1.276s-.51-4.761.51-6.546"/><path stroke="#000" stroke-width=".454" d="m313.003 109.368 9.613 1.543s.091 5.173-.363 6.353l-9.794-1.271s-.453-4.81.544-6.535z"/><path fill="#058E6E" fill-opacity=".9" d="M314.182 111.309s5.696.51 7.141 1.02v3.486s-3.911-.681-7.311-.851v-3.655"/><path stroke="#000" stroke-width=".454" d="M314.182 111.274s5.714.545 7.165 1.089l-.091 3.449s-3.809-.635-7.255-.908l.091-3.63"/><path stroke="#000" stroke-width=".454" d="M261.766 113.725s33.553-12.435 76.357 1.089m-74.997 6.081s32.556-12.162 72.548.545m-72.367-8.169 6.53 1.906-4.535 4.901"/><path fill="red" d="m263.341 119.131 3.826-3.146-4.251-.85s.595.68.51 1.275v2.721"/><path stroke="#000" stroke-width=".454" d="m337.398 114.542-6.983 1.27 4.716 5.446m-71.732-2.088 3.809-3.176-4.263-.817s.544.635.454 1.271z"/><path fill="red" d="m335.35 119.386-2.635-2.721 3.741-.425s-1.021.68-1.021 1.275c0 .596.17 1.361 0 1.871"/><path stroke="#000" stroke-width=".454" d="m335.312 119.352-2.63-2.723 3.809-.363s-1.088.635-1.088 1.271c0 .544.181 1.361 0 1.815zm-63.48-5.627c.544 0 1.089-.363 1.089-.908 0-.363-.545-.817-1.089-.817-.634 0-1.088.454-1.088.908s.454.907 1.088.907zm18.682-2.088c.634 0 1.088-.363 1.088-.908 0-.453-.454-.816-1.088-.816s-1.089.363-1.089.907c0 .454.454.817 1.089.817Zm0 2.995c.634 0 1.088-.363 1.088-.817s-.454-.907-1.088-.907-1.089.454-1.089.907c0 .454.454.908 1.089.908zm18.409-2.813c.544 0 1.088-.454 1.088-.908s-.544-.908-1.088-.908c-.635 0-1.088.454-1.088.908s.453.908 1.088.908Zm18.228 3.358c.634 0 1.088-.454 1.088-.908s-.454-.907-1.088-.907-1.089.453-1.089.907.454.908 1.089.908Zm-.273 2.36c.545 0 1.089-.363 1.089-.908 0-.363-.544-.817-1.089-.817-.634 0-1.088.454-1.088.908s.454.907 1.088.907zm-17.955-2.723c.544 0 1.088-.363 1.088-.908 0-.454-.544-.817-1.088-.817-.635 0-1.088.363-1.088.908 0 .454.453.908 1.088.908zm-36.274 2.723c.634 0 1.178-.363 1.178-.908 0-.363-.544-.817-1.088-.817-.635 0-1.088.454-1.088.908s.453.907 1.088.907z"/><path fill="#FC0" d="M261.216 103.912s.085 6.546 4.336 5.611c4.25-.935 3.825-6.206 4.08-6.547.425-.255.851-.255.851-.255s.51 5.187 4.505 4.591c3.996-.68 3.826-7.056 3.401-8.076l.85-.34s1.531 7.481 6.122 6.376c4.506-1.105 4.08-5.781 4.08-5.781h.341s1.02 5.101 4.76 4.676c3.571-.255 4.251-1.446 3.826-6.547l2.551-.425s-.935 7.312 3.4 7.312c4.421-.34 4.591-3.741 4.846-4.421h.766s.17 5.186 3.91 5.186c3.571 0 4.251-4.336 4.251-6.036l3.741.17s-3.826 6.801 1.7 7.651c5.442.936 5.612-4.251 5.612-4.251h1.105s-.17 6.802 2.805 6.887c3.061.17 4.846-.85 5.101-5.951l1.701.595s-1.361 8.246-7.057 6.801c-3.06-.85-3.996-4.251-3.825-5.186 0 0-2.126 3.741-6.292 2.551-4.081-1.191-3.57-4.166-3.57-5.101 0 0-2.551 4.591-5.952 3.57-3.06-.85-4.251-1.955-4.251-4.166 0 0-1.53 3.571-4.506 3.401-3.06-.085-4.59-2.04-4.76-3.656 0 0-.596 3.316-4.676 3.571-2.721 0-4.251-1.275-4.931-3.146 0 0-.851 3.316-4.676 3.826-2.466.255-4.931-1.105-5.442-3.4 0 0-.68 4.506-4.59 5.101-3.911.595-4.846-2.126-4.846-2.126s-.851 3.401-3.996 4.251c-3.146.765-5.271-.595-6.122-3.826-.68-3.145-.425-4.506-.425-4.506z"/><path fill="#BCAC0B" stroke="#000" stroke-width=".635" d="M261.222 103.922s.091 6.535 4.353 5.627c4.262-.907 3.809-6.262 4.081-6.535.362-.272.816-.272.816-.272s.544 5.174 4.534 4.538c3.99-.635 3.809-6.988 3.355-8.078l.907-.272s1.542 7.443 6.076 6.353c4.535-1.089 4.081-5.808 4.081-5.808h.363s.997 5.082 4.715 4.719c3.628-.272 4.353-1.452 3.9-6.535l2.448-.453s-.906 7.261 3.537 7.261c4.353-.273 4.534-3.722 4.807-4.357h.725s.181 5.173 3.9 5.173c3.627 0 4.352-4.356 4.352-6.08l3.628.18s-3.809 6.808 1.723 7.716c5.441.907 5.622-4.357 5.622-4.357h1.089s-.182 6.807 2.811 6.989c3.083.091 4.897-.908 5.169-5.991l1.723.636s-1.451 8.168-7.164 6.716c-2.993-.817-3.99-4.266-3.809-5.173 0 0-2.086 3.812-6.257 2.541-4.081-1.18-3.628-4.084-3.628-4.992 0 0-2.448 4.538-5.894 3.54-3.084-.908-4.263-1.997-4.263-4.175 0 0-1.541 3.54-4.534 3.358-3.083-.091-4.534-1.997-4.715-3.63 0 0-.635 3.267-4.716 3.539-2.721.091-4.262-1.27-4.897-3.086 0 0-.816 3.268-4.716 3.812-2.448.273-4.897-1.089-5.441-3.358 0 0-.635 4.448-4.534 4.992-3.99.635-4.897-2.087-4.897-2.087s-.816 3.449-3.99 4.265c-3.174.727-5.26-.635-6.076-3.812-.726-3.176-.454-4.538-.454-4.538z"/><path fill="#FC0" d="M270.058 104.253a1.538 1.538 0 0 0 1.414-.945 1.52 1.52 0 0 0 0-1.171 1.53 1.53 0 0 0-.828-.828 1.5 1.5 0 0 0-.586-.117 1.535 1.535 0 0 0-1.172 1.488 1.53 1.53 0 0 0 1.172 1.488"/><path fill="#BCAC0B" stroke="#000" stroke-width=".635" d="M270.019 104.195a1.544 1.544 0 0 0 1.757-2.174 1.542 1.542 0 1 0-1.757 2.174Z"/><path fill="#FC0" d="M289.782 101.023a1.54 1.54 0 0 0 1.305-.286 1.54 1.54 0 0 0 .583-1.202 1.531 1.531 0 1 0-1.888 1.488"/><path fill="#BCAC0B" stroke="#000" stroke-width=".635" d="M289.788 101.018a1.544 1.544 0 0 0 1.757-.822 1.55 1.55 0 0 0-.436-1.89 1.55 1.55 0 0 0-1.321-.283 1.542 1.542 0 0 0-.843 2.448c.212.272.509.464.843.547Z"/><path fill="#FC0" d="M309.931 101.702a1.53 1.53 0 1 0 0-3.06 1.532 1.532 0 0 0 0 2.975"/><path fill="#BCAC0B" stroke="#000" stroke-width=".635" d="M309.92 101.652a1.53 1.53 0 0 0 1.321-.282c.184-.144.333-.329.436-.539a1.55 1.55 0 0 0 0-1.352 1.55 1.55 0 0 0-1.064-.833 1.54 1.54 0 0 0-1.864 1.509 1.54 1.54 0 0 0 1.171 1.497Z"/><path fill="#FC0" d="M329.74 104.847a1.53 1.53 0 0 0 1.735-.82 1.528 1.528 0 0 0-1.735-2.155 1.527 1.527 0 0 0-.843 2.434c.212.27.509.461.843.541"/><path fill="#BCAC0B" stroke="#000" stroke-width=".635" d="M329.781 104.829a1.54 1.54 0 0 0 1.321-.282 1.55 1.55 0 0 0 .592-1.215 1.55 1.55 0 0 0-1.22-1.509 1.54 1.54 0 0 0-1.536.558 1.544 1.544 0 0 0 .843 2.448Z"/><path fill="#FC0" d="M298.963 99.407h-1.36c-.34 1.36-3.316 2.125-3.316 2.125-.34-1.02.51-2.55.51-2.55-3.401-.935-3.401-2.04-3.401-2.04.511-1.19 3.656-1.36 3.656-1.36-.85-1.021-.765-2.721-.765-2.721 2.126.17 3.826 2.295 3.826 2.295s-2.041-1.105-1.786-4.76c0 0 1.106 0 1.786.764 0 0 0-3.996 1.7-4.506h.17c1.616.51 1.616 4.506 1.616 4.506.68-.85 1.785-.765 1.785-.765.255 3.656-1.785 4.761-1.785 4.761s1.7-2.125 3.825-2.21c0 0 0 1.7-.68 2.72 0 0 3.061.085 3.656 1.275 0 0 0 1.19-3.401 1.956 0 0 .68 1.615.425 2.72 0 0-3.06-.85-3.315-2.21h-3.061"/><path fill="#BCAC0B" stroke="#000" stroke-width=".635" d="M298.947 99.384h-1.36c-.363 1.361-3.265 2.178-3.265 2.178-.363-1.089.453-2.632.453-2.632-3.355-.908-3.355-1.997-3.355-1.997.453-1.18 3.627-1.362 3.627-1.362-.907-.998-.725-2.722-.725-2.722 2.086.181 3.809 2.269 3.809 2.269s-2.086-1.09-1.814-4.72c0 0 1.088 0 1.814.726 0 0 0-3.993 1.632-4.447h.181c1.633.454 1.633 4.447 1.633 4.447.725-.817 1.813-.726 1.813-.726.272 3.63-1.813 4.72-1.813 4.72s1.723-2.088 3.808-2.179c0 0 .091 1.634-.634 2.723 0 0 3.083.091 3.627 1.271 0 0 0 1.18-3.446 1.997 0 0 .726 1.543.453 2.723 0 0-2.992-.908-3.264-2.27z"/><path fill="#fff" d="M299.643 100.087a2.72 2.72 0 1 0 0-5.44 2.72 2.72 0 0 0 0 5.44"/><path stroke="#000" stroke-width=".363" d="M299.673 100.11a2.72 2.72 0 0 0 2.72-2.723 2.72 2.72 0 1 0-4.644 1.926c.51.51 1.202.797 1.924.797Z"/><path fill="#fff" d="M299.645 98.897a1.532 1.532 0 0 0 1.082-2.612 1.532 1.532 0 0 0-2.613 1.082 1.53 1.53 0 0 0 1.531 1.53"/><path stroke="#000" stroke-width=".272" d="M299.673 98.93a1.542 1.542 0 1 0-.001-3.084 1.542 1.542 0 0 0 .001 3.084Z"/><path fill="#FC0" d="m320.644 101.192 1.36.255c0 1.361 2.721 2.806 2.721 2.806.51-.85 0-2.55 0-2.55 3.57-.17 3.825-1.361 3.825-1.361-.255-1.19-3.23-2.04-3.23-2.04.85-.85 1.19-2.466 1.19-2.466-2.04-.34-4.166 1.276-4.166 1.276s2.296-.51 2.721-4.251c0 0-1.021-.17-1.786.34 0 0 .85-3.826-.765-4.506l-.17-.085c-1.7 0-2.55 3.91-2.55 3.91-.511-.934-1.701-1.02-1.701-1.02-.85 3.401.85 4.932.85 4.932s-1.19-2.381-3.23-2.976c0 0-.425 1.7 0 2.72 0 0-2.976-.425-3.741.596 0 0-.255 1.19 2.806 2.72 0 0-.936 1.36-.851 2.551 0 0 2.976-.34 3.571-1.531l1.36.255 1.871.34"/><path fill="#BCAC0B" d="m320.621 101.199 1.361.272c0 1.362 2.72 2.814 2.72 2.814.544-.908.091-2.632.091-2.632 3.537-.091 3.718-1.271 3.718-1.271-.182-1.27-3.174-2.087-3.174-2.087.907-.817 1.179-2.451 1.179-2.451-2.086-.363-4.172 1.27-4.172 1.27s2.267-.544 2.721-4.174c0 0-.998-.273-1.814.272 0 0 .816-3.812-.725-4.538l-.182-.091c-1.723 0-2.539 3.903-2.539 3.903-.544-.908-1.632-.999-1.632-.999-.998 3.45.816 4.902.816 4.902s-1.27-2.36-3.265-2.905c0 0-.453 1.634 0 2.723 0 0-2.992-.454-3.718.545 0 0-.272 1.18 2.811 2.723 0 0-.997 1.361-.906 2.541 0 0 2.992-.272 3.627-1.543l1.36.272 1.814.363"/><path stroke="#000" stroke-width=".635" d="m320.621 101.199 1.361.272c0 1.362 2.72 2.814 2.72 2.814.544-.908.091-2.632.091-2.632 3.537-.091 3.718-1.271 3.718-1.271-.182-1.27-3.174-2.087-3.174-2.087.907-.817 1.179-2.451 1.179-2.451-2.086-.363-4.172 1.27-4.172 1.27s2.267-.544 2.721-4.174c0 0-.998-.273-1.814.272 0 0 .816-3.812-.725-4.538l-.182-.091c-1.723 0-2.539 3.903-2.539 3.903-.544-.908-1.632-.999-1.632-.999-.998 3.45.816 4.902.816 4.902s-1.27-2.36-3.265-2.905c0 0-.453 1.634 0 2.723 0 0-2.992-.454-3.718.545 0 0-.272 1.18 2.811 2.723 0 0-.997 1.361-.906 2.541 0 0 2.992-.272 3.627-1.543l1.36.272 1.814.363"/><path fill="#fff" d="M319.623 101.702a2.805 2.805 0 0 1-2.365-2.262 2.8 2.8 0 0 1 .516-2.204 2.81 2.81 0 0 1 1.975-1.105c.388-.037.779.007 1.149.13a2.803 2.803 0 0 1 1.813 3.247 2.806 2.806 0 0 1-3.003 2.194"/><path stroke="#000" stroke-width=".363" d="M319.624 101.744a2.78 2.78 0 0 1-1.738-1.247 2.798 2.798 0 0 1 1.918-4.235c.362-.06.732-.047 1.089.036a2.784 2.784 0 0 1 2.131 3.313 2.784 2.784 0 0 1-3.31 2.133z"/><path fill="#fff" d="M319.963 100.597a1.56 1.56 0 0 1-1.204-1.259 1.6 1.6 0 0 1 .014-.611 1.56 1.56 0 0 1 .688-.983 1.57 1.57 0 0 1 2.165.481 1.57 1.57 0 0 1-1.663 2.372"/><path stroke="#000" stroke-width=".272" d="M319.987 100.563a1.53 1.53 0 0 1-1.109-.617 1.54 1.54 0 0 1-.27-1.24 1.544 1.544 0 0 1 2.013-1.138 1.54 1.54 0 0 1 1.003 1.778 1.54 1.54 0 0 1-1.637 1.217Z"/><path fill="#FC0" d="m278.219 100.852-1.36.17c-.255 1.445-3.061 2.721-3.061 2.721-.425-1.105 0-2.721 0-2.721-3.401-.34-3.486-1.53-3.486-1.53.341-1.19 3.401-1.87 3.401-1.87-.85-.85-.935-2.551-.935-2.551 1.955-.17 3.911 1.7 3.911 1.7s-2.126-.765-2.381-4.336c0 0 1.191-.34 1.871.34 0 0-.425-3.91 1.105-4.59h.17c1.7.255 2.21 4.08 2.21 4.08.596-.85 1.701-.85 1.701-.85.68 3.571-1.191 4.846-1.191 4.846s1.446-2.21 3.401-2.72c0 0 .425 1.7-.255 2.89 0 0 3.146-.34 3.741.85 0 0 .17 1.106-3.061 2.38 0 0 .85 1.446.85 2.551 0 0-3.06-.51-3.655-1.87l-1.276.34-1.87.17"/><path fill="#BCAC0B" d="m278.181 100.836-1.361.182c-.181 1.452-2.992 2.723-2.992 2.723-.454-1.089 0-2.723 0-2.723-3.356-.363-3.537-1.543-3.537-1.543.363-1.18 3.446-1.815 3.446-1.815-.907-.908-.997-2.542-.997-2.542 1.995-.181 3.99 1.634 3.99 1.634s-2.177-.726-2.449-4.357c0 0 1.179-.272 1.905.363 0 0-.454-3.902 1.088-4.538h.181c1.723.182 2.177 4.085 2.177 4.085.634-.817 1.813-.908 1.813-.908.635 3.63-1.269 4.901-1.269 4.901s1.451-2.269 3.446-2.723c0 0 .363 1.725-.272 2.814 0 0 3.083-.272 3.718.907 0 0 .181 1.09-3.083 2.36 0 0 .906 1.453.816 2.542 0 0-2.993-.454-3.628-1.816l-1.269.273-1.814.181"/><path stroke="#000" stroke-width=".635" d="m278.181 100.836-1.361.182c-.181 1.452-2.992 2.723-2.992 2.723-.454-1.089 0-2.723 0-2.723-3.356-.363-3.537-1.543-3.537-1.543.363-1.18 3.446-1.815 3.446-1.815-.907-.908-.997-2.542-.997-2.542 1.995-.181 3.99 1.634 3.99 1.634s-2.177-.726-2.449-4.357c0 0 1.179-.272 1.905.363 0 0-.454-3.902 1.088-4.538h.181c1.723.182 2.177 4.085 2.177 4.085.634-.817 1.813-.908 1.813-.908.635 3.63-1.269 4.901-1.269 4.901s1.451-2.269 3.446-2.723c0 0 .363 1.725-.272 2.814 0 0 3.083-.272 3.718.907 0 0 .181 1.09-3.083 2.36 0 0 .906 1.453.816 2.542 0 0-2.993-.454-3.628-1.816l-1.269.273-1.814.181"/><path fill="#fff" d="M278.984 101.532a2.74 2.74 0 0 0 2.381-3.06 2.746 2.746 0 0 0-3.061-2.381A2.745 2.745 0 0 0 276 98.085a2.744 2.744 0 0 0 2.984 3.447"/><path stroke="#000" stroke-width=".363" d="M278.997 101.562a2.75 2.75 0 0 0 1.818-1.054 2.756 2.756 0 0 0 .194-3.046 2.75 2.75 0 0 0-1.669-1.277 2.74 2.74 0 0 0-2.886.986 2.75 2.75 0 0 0 .513 3.85 2.74 2.74 0 0 0 2.03.541Z"/><path fill="#fff" d="M278.814 100.256a1.54 1.54 0 0 0 1.236-.452 1.535 1.535 0 0 0 .205-1.882 1.54 1.54 0 0 0-1.11-.708 1.53 1.53 0 0 0-1.478.695 1.528 1.528 0 0 0 1.147 2.347"/><path stroke="#000" stroke-width=".272" d="M278.816 100.291a1.54 1.54 0 0 0 1.246-.462 1.545 1.545 0 0 0-1.609-2.533 1.543 1.543 0 0 0 .363 2.995Z"/><path fill="#FC0" d="M339.772 106.803s-.766-1.87-2.296-1.275-1.36.935-2.72.935c0 0-.51-1.7.17-2.465 0 0-2.126-.85-2.721-2.721 0 0 1.19-1.36 3.996-.85 0 0 0-1.275.255-1.955 0 0 3.061.85 3.061 2.635 0 0-.936-3.23.68-5.611 0 0 1.36.51 1.275 2.04 0 0 .68-3.06 4.761-2.21 0 0-2.211 1.955-2.296 2.89-.17.85-2.04 2.466-2.125 2.976a3.4 3.4 0 0 1-.68 1.956c-.595.51-.68 1.445-.68 1.7s0 1.53-.68 1.87"/><path fill="#BCAC0B" stroke="#000" stroke-width=".635" d="M339.755 106.736s-.725-1.815-2.267-1.18-1.36.908-2.72.908c0 0-.544-1.725.181-2.451 0 0-2.176-.817-2.72-2.723 0 0 1.178-1.361 3.99-.817 0 0-.091-1.361.272-1.997 0 0 2.992.908 2.992 2.633 0 0-.906-3.268.726-5.628 0 0 1.36.545 1.269 2.088 0 0 .635-3.086 4.716-2.27 0 0-2.176 1.997-2.267 2.905-.181.908-1.995 2.451-2.086 2.995 0 .454-.181 1.362-.725 1.906-.544.545-.635 1.453-.635 1.816 0 .181 0 1.452-.726 1.815Z"/><path fill="#fff" d="M337.477 103.148a2.722 2.722 0 0 1 4.336-1.7c0 .51-.255 1.19-.681 1.7-.595.51-.68 1.445-.68 1.7a2.7 2.7 0 0 1-.34 1.531h-.425a2.72 2.72 0 0 1-2.21-3.231"/><path stroke="#000" stroke-width=".363" d="M337.489 103.105a2.725 2.725 0 0 1 3.088-2.183c.462.072.897.261 1.265.549 0 .454-.272 1.18-.726 1.634-.544.545-.635 1.452-.635 1.815a2.73 2.73 0 0 1-.362 1.453h-.454a2.73 2.73 0 0 1-1.783-1.17 2.72 2.72 0 0 1-.393-2.098Z"/><path fill="#fff" d="M338.666 103.403a1.533 1.533 0 0 1 2.011-1.191c.281.097.528.275.71.51l-.255.426c-.596.51-.681 1.445-.681 1.7v.255h-.51c-.85-.085-1.36-.85-1.19-1.785"/><path stroke="#000" stroke-width=".272" d="M338.668 103.378a1.544 1.544 0 0 1 2.019-1.138c.277.097.52.271.702.502l-.273.363c-.544.545-.634 1.453-.634 1.816v.181h-.544c-.907-.091-1.361-.908-1.179-1.815z"/><path fill="#FC0" d="M259.94 105.953s.766-1.7 2.296-1.02c1.445.85 1.275 1.02 2.72 1.02 0 0 .51-1.7 0-2.381 0 0 2.126-.68 2.721-2.55 0 0-1.105-1.445-3.911-1.105 0 0 .17-1.36-.17-1.956 0 0-2.975.68-3.061 2.296 0 0 1.021-3.146-.425-5.611 0 0-1.445.595-1.445 2.04 0 0-.425-3.146-4.506-2.55 0 0 2.041 2.125 2.041 3.06s1.87 2.55 1.87 3.061c0 .51.17 1.445.68 2.04.595.51.595 1.445.51 1.786 0 .17 0 1.445.68 1.87"/><path fill="#BCAC0B" stroke="#000" stroke-width=".635" d="M259.952 106.01s.726-1.815 2.267-1.089c1.451.817 1.27.998 2.721.998 0 0 .544-1.634 0-2.36 0 0 2.176-.635 2.721-2.541 0 0-1.089-1.452-3.9-1.09 0 0 .181-1.36-.181-1.996 0 0-2.993.726-3.084 2.36 0 0 1.089-3.177-.362-5.627 0 0-1.451.544-1.451 1.996 0 0-.454-3.086-4.535-2.45 0 0 2.086 2.087 2.086 2.995s1.814 2.541 1.814 3.086c0 .454.181 1.452.725 1.997.545.544.545 1.452.454 1.815 0 .181 0 1.452.725 1.815z"/><path fill="#fff" d="M262.321 102.467a2.72 2.72 0 0 0-2.978-2.266c-.458.05-.896.215-1.273.48 0 .426.255 1.191.68 1.616.596.51.596 1.445.511 1.785 0 .17 0 .85.34 1.53h.34a2.715 2.715 0 0 0 2.337-2.05 2.7 2.7 0 0 0 .043-1.095"/><path stroke="#000" stroke-width=".363" d="M262.31 102.47a2.724 2.724 0 0 0-2.911-2.251c-.45.039-.883.188-1.26.435 0 .454.181 1.18.634 1.634.545.545.545 1.452.454 1.815 0 .182 0 .908.363 1.543h.362a2.715 2.715 0 0 0 2.327-2.077 2.7 2.7 0 0 0 .031-1.099Z"/><path fill="#fff" d="M261.131 102.638a1.535 1.535 0 0 0-1.07-1.353 1.535 1.535 0 0 0-1.651.503l.34.51c.595.51.595 1.445.51 1.785v.17h.595c.851 0 1.361-.85 1.276-1.615"/><path stroke="#000" stroke-width=".272" d="M261.131 102.652a1.543 1.543 0 0 0-2.721-.817l.363.454c.544.544.544 1.452.453 1.815v.181h.635c.816 0 1.36-.816 1.27-1.633Z"/><path stroke="#000" stroke-width="1.361" d="M264.486 122.62s30.652-11.981 69.284.272"/><path stroke="#000" stroke-width=".454" d="M338.124 113.09c-42.713-13.615-76.811-.726-76.811-.726"/><path fill="red" d="m299.643 110.119-3.401 1.7 3.061 1.871 3.656-1.7z"/><path stroke="#000" stroke-width=".454" d="m299.673 110.093-3.446 1.725 3.083 1.906 3.627-1.815z"/></g><defs><clipPath id="a"><path fill="#fff" d="M0 0h600v300H0z"/></clipPath></defs></svg>