<svg xmlns="http://www.w3.org/2000/svg" width="600" height="300" fill="none"><g clip-path="url(#a)"><path fill="#D52B1E" d="M0 0h600v300H0z"/><path fill="#009B48" d="M0 0h49.781l125.063 62.563L300 125.063 550.219 0H600v24.938l-125.062 62.5L349.875 150 600 275.125V300h-49.781l-125.063-62.5A69824 69824 0 0 0 300 174.937L49.781 300H0v-24.875l125.062-62.562L250.125 150 0 24.938V0"/><path fill="#fff" d="M274.5 0h46v130.062H600v39.876H320.5V300h-44V169.938H0v-39.876h274.5V0"/></g><defs><clipPath id="a"><path fill="#fff" d="M0 0h600v300H0z"/></clipPath></defs></svg>