<svg xmlns="http://www.w3.org/2000/svg" width="600" height="300" fill="none"><g clip-path="url(#a)"><path fill="#FFBE29" d="M0 0h600v300H0z"/><path fill="#EB7400" d="M28 28h156v244H28z"/><path fill="#00534E" d="M28 28h78v244H28z"/><path fill="#8D153A" d="M212 28h360v244H212z"/><path fill="#FFBE29" stroke="#000" stroke-width="2.096" d="M251.128 224.608s-3.31 6.908-6.967 9.723c-5.418 4.17-16.528 3.869-21.243 8.734-5.65 5.738.438 13.318.387 13.976l-.31 4.003s3.81.047 5.414.304c2.412.385 3.353 2.397 7.844 2.098 11.29-.751 10.835-11.179 11.474-20.09.567-3.393 1.879-7.817 2.625-11.209.639-2.909.776-7.539.776-7.539Z"/><path fill="#FFBE29" stroke="#000" stroke-width="5.731" d="m335.511 241.231 2.274-1.281.973 1.284c1.297 1.71 4.884 1.691 7.264-.039l1.82-1.324 1.524 1.324c2.003 1.739 5.745 1.741 8.135.006 1.672-1.216 1.906-1.241 3.012-.316.659.552 2.593 1.18 4.298 1.395 3.069.389 3.116.368 4.911-2.261 1.505-2.201 1.74-3.093 1.381-5.228a56 56 0 0 1-.569-5.063c-.136-2.478-.122-2.494 3.579-3.752 2.044-.694 4.41-1.625 5.258-2.069 1.478-.774 5.553-5.447 5.553-6.368 0-.244-1.592-.618-3.538-.831-7.739-.847-9.05-4.902-4.019-12.433 8.205-12.283 13.157-24.245 13.19-31.865.015-3.407.213-4.55.662-3.809 1.833 3.027-1.451 15.719-6.426 24.833l-2.003 3.67 1.911-.429c1.051-.237 7.232-2.781 13.735-5.655 17.801-7.866 23.915-9.407 35.434-8.934 9.651.397 13.761 2.237 20.576 9.21 3.609 3.694 7.087 6.337 13.448 10.222 13.553 8.277 14.118 8.994 14.763 18.729.653 9.862.328 10.397-7.318 12.045-6.534 1.409-10.631 4.381-11.729 8.51-.587 2.206.648 2.27 3.942.203l2.415-1.514 1.074 1.514c1.411 1.991 4.411 1.999 6.903.018l1.882-1.495 1.923 1.495c2.99 2.324 6.964 1.761 8.086-1.146.216-.559.791-.38 1.957.608 2.184 1.852 7.782 2.647 8.386 1.191.23-.556-.208-1.928-.974-3.049-3.257-4.765-4.276-7.037-4.319-9.631-.058-3.608 1.045-5.348 5.25-8.282 5.109-3.564 6.687-8.162 2.802-8.162-2.398 0-4.817-2.069-6.358-5.44-3.135-6.853-2.521-14.536 2.184-27.317 4.779-12.981 5.309-15.375 5.328-24.057.016-7.02-.165-8.234-1.803-12.083-1-2.353-3.031-5.857-4.512-7.786l-2.693-3.507 3.457-2.795c10.558-8.534 8.398-22.501-4.311-27.883-3.888-1.646-4.859-1.791-11.673-1.747-4.087.027-10.321.552-13.851 1.167-3.599.626-9.692 1.13-13.871 1.147-6.64.025-7.767-.134-10.325-1.463-2.668-1.386-3.126-2.044-3.648-5.246-.107-.659-.579-1.315-1.048-1.46-.908-.279-5.098 3.27-5.718 4.842-.305.775-.554.721-1.451-.312-.595-.687-1.426-2.265-1.846-3.507-1.058-3.123.241-5.465 4.004-7.22l2.919-1.36L436 85.481c-3.553-2.15-9.593-.68-11.778 2.869-.617 1.003-1.292 1.826-1.498 1.829-.206.001-1.38-.956-2.61-2.128-4.586-4.373-3.009-10.842 3.126-12.817 3.271-1.054 6.166-.25 6.768 1.878.92 3.25 3.778-1.022 3.265-4.879-.34-2.564-.289-2.653 1.53-2.653 2.529 0 7.912 3.239 9.577 5.762 1.934 2.931 1.794 7.546-.335 10.986l-1.671 2.701 2.186-.427c3.205-.626 6.319-2.568 7.895-4.924 1.665-2.49 1.844-7.34.368-9.955-1.432-2.536-1.267-2.939.848-2.082 3.599 1.458 5.523 3.065 6.966 5.82 1.3 2.48 1.372 3.097.668 5.679-.434 1.593-1.399 3.689-2.146 4.657-1.162 1.509-1.202 1.761-.276 1.761 1.724 0 5.325-1.592 6.604-2.92.646-.671 1.589-2.324 2.094-3.672l.919-2.452 1.055 1.869c1.493 2.642 4.395 5.021 7.933 6.5 3.805 1.592 5.39 1.682 3.4.193-1.342-1.004-3.815-8.083-3.065-8.775.44-.408 5.607 3.471 11.506 8.638 5.58 4.888 9.087 6.489 14.212 6.489 6.547 0 10.359-5.561 7.417-10.819-1.716-3.066-5.538-3.491-7.773-.866-1.028 1.207-1.309 2.168-1.008 3.434.369 1.551.225 1.758-1.224 1.758-1.903 0-5.654-2.376-12.317-7.8-10.159-8.272-22.504-15.283-31.418-17.843-5.72-1.644-17.94-2.285-23.755-1.247-6.293 1.123-13.737 4.637-17.792 8.4-7.186 6.665-7.301 15.536-.304 23.613l2.004 2.314-1.357 2.056c-1.974 2.992-1.804 7.018.419 9.984.98 1.306 1.968 2.374 2.196 2.373s.478-.841.556-1.866c.196-2.595 1.337-4.333 3.296-5.021 1.765-.62 2.905-.327 10.984 2.819 8.499 3.31 22.476 3.537 37.338.608 7.286-1.436 15.878-1.352 19.657.194 6.929 2.832 8.535 10.2 3.442 15.793-2.205 2.421-4.331 3.407-11.47 5.318-5.433 1.455-6.719 1.552-19.067 1.432-10.549-.103-14.34.094-18.647.972-4.675.952-7.55 1.048-21.283.711l-15.877-.391 1.76 1.422c.969.783 2.337 1.746 3.041 2.14 1.197.67 1.158.76-.623 1.404-1.046.378-3.368.689-5.159.689h-3.258l-.438 2.701c-.241 1.485-.223 3.22.041 3.854.388.936.243 1.07-.767.712-.685-.243-2.594-.721-4.24-1.062s-3.864-1.036-4.927-1.544c-1.787-.853-1.985-.831-2.644.306-.587 1.014-6.105 5.021-6.915 5.021-.131 0-.3-.772-.375-1.717-.075-.944-.871-3.403-1.769-5.463s-1.834-4.308-2.082-4.994c-.374-1.036-.543-1.089-.994-.313-.299.516-.736 1.92-.97 3.122-.235 1.202-1.066 3.154-1.848 4.339l-1.421 2.153-.907-1.841c-.973-1.977-2.589-4.027-3.173-4.027-.197 0-.534.633-.747 1.405-.446 1.613-4.277 6.087-5.213 6.087-.344 0-.626-1.264-.626-2.81 0-1.545-.304-2.809-.676-2.809-.371 0-.676.399-.676.888 0 1.188-3.272 4.731-4.369 4.731-.479 0-1.249.421-1.712.936-1.206 1.343-2.193 1.154-1.686-.322.238-.692.083-2.308-.343-3.59l-1.009-3.033c-.161-.485-1.333-.357-3.815.42-4.01 1.254-5.354 1.032-3.292-.544.754-.576 1.901-2.571 2.549-4.435s1.603-3.515 2.123-3.673c.729-.22.69.052-.169 1.185-.613.809-1.116 1.9-1.119 2.424-.003.525-.464 1.768-1.026 2.764s-.914 1.908-.785 2.028c.13.121 1.656-.445 3.391-1.256l3.154-1.475.013 1.319c.007.726.387 2.641.844 4.256l.832 2.935 2.147-.962c2.194-.984 4.271-4.491 4.271-7.211 0-1.344.79-1.138 1.113.291.095.419.59 1.993 1.101 3.497l.928 2.735 1.47-1.727c.808-.95 1.822-2.813 2.252-4.14.747-2.303 1.919-3.294 1.919-1.621 0 1.205 3.372 5.529 4.023 5.157.314-.179.94-1.802 1.391-3.605.937-3.752 2.449-6.303 3.41-5.754.362.206.502.607.313.89-.19.283.587 2.722 1.726 5.419l2.54 6.036c.416 1 .792.854 3.233-1.249 1.519-1.308 2.897-2.774 3.063-3.255.251-.729.59-.702 2.01.158 1.986 1.203 8.664 3.14 9.179 2.664.193-.179.392-1.89.44-3.803l.089-3.478 1.92.389c1.056.213 3.277.2 4.935-.03l3.015-.418-2.687-1.798c-1.478-.99-2.972-2.269-3.32-2.845-.371-.613-1.687-1.133-3.176-1.257-4.026-.334-11.16-4.237-11.16-6.107 0-.35.988.246 2.196 1.326 2.679 2.396 6.401 3.9 9.652 3.9h2.432l-1.504-1.953c-.865-1.121-1.64-3.249-1.822-5-.29-2.79-.592-3.234-3.578-5.259-1.794-1.217-4.016-3.041-4.937-4.053l-1.676-1.84-.855 2.185c-.47 1.202-1.045 2.185-1.278 2.185-.232 0-1.136-.703-2.008-1.561s-1.762-1.558-1.976-1.554-.988 1.16-1.719 2.57l-1.329 2.562-1.026-1.477c-.565-.812-1.9-2.25-2.966-3.194s-1.626-1.717-1.246-1.717c.381 0 1.697.983 2.924 2.186l2.232 2.186.907-1.602c.539-.95.741-2.41.497-3.59-.356-1.721-.306-1.821.371-.741.43.687 1.735 2.003 2.901 2.926l2.119 1.677 1.463-2.614c1.455-2.6 1.465-2.606 2.127-1.052.886 2.077 7.295 7.203 12.751 10.198.841.462.486-1.126-1.067-4.776-.411-.967-.747-2.709-.747-3.873 0-1.725-.511-2.494-2.773-4.173-3.266-2.425-4.322-4.149-4.938-8.062-.249-1.584-.82-3.347-1.27-3.916-.666-.845-.776-.372-.598 2.57.12 1.982-.144 4.447-.588 5.477l-.805 1.873-.623-1.561c-.343-.859-1.858-2.352-3.367-3.318s-2.569-1.919-2.354-2.117c.214-.199 1.767.682 3.45 1.957 2.565 1.941 3.129 2.152 3.484 1.296.418-1.005 0-5.377-.806-8.432-.402-1.525-.367-1.517 1.561.365 1.423 1.387 2.21 3.043 2.819 5.93.774 3.67 1.165 4.281 4.642 7.259 2.088 1.789 3.905 3.152 4.038 3.029.133-.122.396-4.75.585-10.283.363-10.61-.047-13.134-2.666-16.412l-1.346-1.685 2.116-2.226c2.759-2.904 4.026-5.232 4.575-8.408l.448-2.583-2.388 2.206c-1.954 1.806-2.888 2.206-5.151 2.206-2.243 0-3.118-.367-4.629-1.938-1.812-1.884-5.024-3.697-8.113-4.58-1.141-.326-1.52-.184-1.52.57 0 .551-.63 2.144-1.4 3.54l-1.401 2.536-2.934-2.83c-1.8-1.736-3.936-3.087-5.525-3.494-4.06-1.042-4.28-.938-4.28 2.013 0 4.476-1.959 5.31-5.484 2.335-2.688-2.268-4.917-2.761-10.013-2.215l-3.936.422.708 1.733c.592 1.449.458 2.058-.809 3.703-2.056 2.668-4.729 3.823-8.843 3.823-1.895 0-4.267.383-5.27.85-1.003.468-3.497 1.007-5.541 1.198-2.044.19-4.222.531-4.841.757-.968.353-1.074.062-.762-2.086.477-3.288-1.876-5.713-5.545-5.713-4.76 0-6.955 4.153-5.091 9.633a42 42 0 0 1 1.043 3.695c.223 1.015 2.367 3.707 4.993 6.271 2.531 2.471 4.923 5.042 5.316 5.713s1.691 1.75 2.885 2.395l2.171 1.174-.287-2.266c-.314-2.491.242-2.882 1.6-1.124.486.628 1.719 1.644 2.741 2.256 1.61.966 1.858.986 1.858.147 0-.532.328-1.758.729-2.725l.73-1.757 1.265 2.39c.696 1.316 2.959 4.305 5.029 6.643 4.017 4.537 6.465 9.607 5.201 10.774-.512.474-1.897.437-4.768-.126-2.225-.436-4.977-.667-6.116-.513-2.325.316-2.508.023-1.078-1.725 1.509-1.844 1.269-2.148-1.696-2.148-3.432 0-11.95-1.605-15.219-2.867-3.18-1.227-3.913-.922-4.849 2.021l-1.714 5.332-.948 2.924 3.44-.323c1.892-.178 4.326-.582 5.408-.898s2.066-.485 2.186-.374-.363 1.253-1.072 2.539l-1.29 2.338 2.144-.427c1.18-.234 2.955-.809 3.944-1.275 1.722-.813 1.86-.754 3.218 1.373 1.67 2.615 3.006 2.508 3.303-.266.306-2.867 1.273-2.443 3.092 1.357 1.748 3.653 3.567 4.943 3.918 2.778.115-.72 1.058-1.89 2.093-2.602 2.094-1.439 3.672-1.007 4.577 1.253.936 2.339-1.152 4.75-7.228 8.344-12.172 7.199-19.246 17.044-21.266 29.592-1.821 11.319 3.868 23.015 15.283 31.415 5.462 4.02 14.14 8.263 13.588 6.644-2.342-6.875-2.264-19.994.13-22.207.36-.332.236 1.037-.274 3.042-1.902 7.47-1.076 13.421 3.799 27.37 4.41 12.617 3.799 18.008-2.441 21.572-2.004 1.145-3.295 1.334-8.684 1.27-5.848-.069-6.485.045-8.362 1.505-1.82 1.415-4.18 6.061-4.18 8.229 0 1.175 1.337 1.02 3.964-.46zm94.915-.254 2.452-1.538 1.665 1.538c2.181 2.015 4.735 1.97 6.832-.121.915-.912 1.736-1.545 1.826-1.405q.459.748.906 1.503c.519.87 1.585 1.307 3.508 1.439 2.317.159 2.939-.059 3.86-1.358l1.098-1.548 2.415 1.514c6.61 4.146 10.133-.204 7.178-8.864-1.502-4.403-.676-6.878 4.166-12.483 2.041-2.363 3.714-4.886 3.715-5.606 0-1.147-.378-1.301-3.094-1.248-2.6.05-3.361-.222-4.73-1.692-2.226-2.391-2.094-5.129.395-8.168l1.988-2.427-3.528-2.335c-1.939-1.285-5.437-4.324-7.773-6.754-5.246-5.456-10.404-8.044-17.206-8.631l-4.56-.394.007 3.368c.009 4.336 2.094 8.507 7.787 15.572 6.472 8.033 6.924 9.277 7.187 19.777l.221 8.879-1.873 1.734c-1.692 1.566-2.455 1.767-7.917 2.074-5.199.293-6.291.554-7.817 1.873-2.026 1.751-2.632 2.704-3.258 5.123-.364 1.41-.217 1.717.826 1.717.698 0 2.373-.692 3.723-1.538zm-138.068-25.688c0-1.123.514-1.423 3.043-1.773l3.042-.422-2.029-1.577c-2.411-1.875-2.634-3.339-.509-3.342 2.116 0 5.701-2.145 6.245-3.731.253-.737.094-1.722-.36-2.228-1.186-1.321-3.417-1.122-3.831.342-.445 1.573-1.191 1.577-2.881.016-2.543-2.35-2.6-7.214-.118-10.046 1.17-1.335 1.159-1.422-.332-2.8-1.604-1.482-2.75-4.416-1.996-5.113.24-.221 1.507-.044 2.816.393 1.861.622 2.595.631 3.361.043 2.322-1.78-.193-4.069-3.917-3.564-1.498.203-2.117 0-2.332-.759-.163-.575-1.474-1.326-2.95-1.69-2.639-.651-2.658-.643-2.658 1.131 0 1.943-1.137 2.31-3.298 1.063-1.756-1.013-3.459-.227-3.459 1.598 0 1.701 1.754 2.541 4.899 2.343 2.411-.151 2.501 1.598.21 4.114l-1.647 1.809 1.305 1.829c1.933 2.709 1.77 7.207-.341 9.442l-1.655 1.752-1.086-1.405c-1.509-1.952-3.573-1.821-4.139.262-.37 1.365-.064 1.988 1.687 3.434 1.177.972 2.895 1.767 3.819 1.767 2.284 0 2.195 1.752-.18 3.523l-1.858 1.386 2.871.435c1.58.239 2.872.689 2.872.999 0 1.191.744 4.805 2.629 4.895 1.684.081 2.737-2.418 2.776-4.125zm36.338-13.074c2.609-1.004 8.255-5.669 8.255-6.821 0-.363-1.558-2.035-3.463-3.717-4.008-3.538-8.368-9.498-9.498-12.982-.589-1.817-3.435-4.927-11.453-12.514l-10.67-10.096-3.074.76c-1.691.418-3.755.77-4.586.783-1.431.021-1.405.101.498 1.539l2.008 1.516 2.816-1.525c2.729-1.477 2.826-1.487 3.163-.297.197.696-.228 1.903-.983 2.789-.731.859-1.148 1.834-.926 2.166.222.333-.48 1.026-1.561 1.543-2.004.957-3.395 4.109-1.814 4.109 1.423 0 4.559-3.776 4.198-5.053-.185-.654-.095-1.327.199-1.495 1.221-.697 1.145 2.267-.096 3.725-.732.859-1.148 1.834-.926 2.166.221.333-.481 1.027-1.562 1.543-1.99.951-3.395 4.109-1.828 4.109 1.536 0 4.622-3.608 4.239-4.958-.2-.706-.122-1.422.172-1.59.823-.47 1.267 1.871.572 3.017-.372.615-.369 1.453.009 2.118.684 1.204-.009 3.518-1.269 4.237-.539.308-.174.913 1.135 1.878 1.895 1.396 1.931 1.542 1.931 7.702 0 5.148.213 6.477 1.182 7.373 1.088 1.005 1.183 1.009 1.183.045 0-1.054 1.895-2.341 3.445-2.341.457 0 3.314 2.362 6.348 5.249 3.053 2.905 6.247 5.377 7.152 5.534l2.163.37c.291.047 1.659-.35 3.041-.881zm-32.621-24.905c0-1.66-3.508-3.431-7.705-3.89-3.388-.371-3.443-.35-3.443 1.301 0 1.367.532 1.905 2.871 2.899 3.758 1.596 8.277 1.427 8.277-.31Zm3.846-.153c1.711-1.515 2.522-3.317 1.493-3.317-1.184 0-4.327 2.752-4.327 3.789 0 1.618.583 1.521 2.834-.472Zm-3.647-4.907c.145-.937-.449-1.562-2.228-2.346-3.838-1.691-8.427-2.474-9.532-1.627-2.035 1.561-.679 3.657 2.61 4.034 1.325.151 3.121.545 3.991.875 2.528.958 4.933.522 5.159-.937zm0-5.015c.206-1.336-.669-1.814-7.815-4.268-5.336-1.832-7.698-.968-5.992 2.193.593 1.1 1.59 1.603 3.826 1.93 1.663.243 3.936.718 5.05 1.056 2.979.902 4.699.584 4.931-.91zm3.579-4.699c1.078-1.066 1.96-2.325 1.96-2.797 0-1.53-4.258 1.177-4.801 3.053-.651 2.249.404 2.154 2.841-.256Zm-3.579-.315c.235-1.522-2.359-2.896-7.459-3.952-3.741-.775-5.392-.335-5.111 1.361.153.926 1.399 1.603 4.934 2.68 5.658 1.722 7.359 1.703 7.636-.089Zm4.988-7.082c6.535-2.838 7.1-9.996.938-11.875-2.559-.78-4.192-.36-5.171 1.331-.75 1.295-.249 3.65.777 3.65.346 0 .63.435.63.968 0 2.485-9.977 3.611-14.069 1.588-1.438-.711-2.064-2.556-.867-2.556.893 0 1.512-1.88 1.055-3.211-.622-1.812-2.494-2.439-5.209-1.747-6.125 1.563-5.953 8.586.284 11.566 5.114 2.444 16.324 2.592 21.632.287zm-4.065-5.503c.378-.35.214-.887-.42-1.374-1.39-1.065-1.316-2.65.208-4.464 1.145-1.362 1.287-3.4 1.681-23.965.679-35.438 3.38-62.093 6.94-68.487 1.417-2.546 1.218-2.556-2.444-.125-4.718 3.132-8.31 7.21-11.493 13.048-6.008 11.023-8.096 25.852-8.096 57.507 0 17.973.125 20.325 1.174 22.015.997 1.604 1.05 2.197.35 3.911-.454 1.111-.66 2.173-.458 2.36 1.342 1.239 11.115.91 12.558-.423zm54.906-33.793c.204-.306-.248-1.851-1.005-3.434-1.181-2.468-1.657-2.878-3.339-2.878-5.271 0-13.744-2.298-22.48-6.096-5.044-2.194-6.786-2.698-7.391-2.139-1.544 1.426 1.021 4.811 4.994 6.591 3.524 1.578 13.376 3.518 17.87 3.518 2.607 0 2.669.114 1.185 2.207l-1.091 1.539 2.949.074c1.622.04 3.861.288 4.976.55 2.895.681 2.922.681 3.333.068z"/><path fill="#000" stroke="#000" stroke-width="5.731" d="M382.892 131.813c0-.916-2.757-3.398-5.55-4.998-2.194-1.256-2.556-1.294-2.561-.27-.008 1.555-1.425 5.463-1.982 5.463-.314 0-.778-.763-1.032-1.697-.253-.933-1.317-2.772-2.363-4.087l-1.902-2.391-1.481 2.215c-1.382 2.065-3.773 4.087-4.835 4.087-.254 0-.303-1.087-.11-2.416.209-1.444.048-2.59-.403-2.847-.414-.236-.752-.153-.752.184 0 .777-3.323 4.455-4.025 4.455-.29 0-.695-1.054-.901-2.342l-.778-4.526c-.222-1.202.251-.387 1.051 1.811l1.455 3.997 1.595-2.436c.878-1.339 1.597-2.803 1.599-3.252.001-.45.298-.649.659-.443s.863 1.817 1.116 3.578l.46 3.203 1.756-1.878c.966-1.033 2.097-2.415 2.514-3.073.745-1.173.787-1.172 2.268.054.83.687 2.106 2.33 2.835 3.651s1.425 2.304 1.544 2.185c.119-.12.386-1.481.594-3.026l.412-2.937c.103-.383 5.288 2.905 7.206 4.57 1.233 1.07 2.404 1.796 2.602 1.613.199-.183.361-1.762.361-3.509 0-2.706-.294-3.432-1.991-4.912-1.951-1.701-2.006-1.711-2.726-.466-.936 1.615-2.04 1.639-2.04.043 0-1.164-3.686-5.641-4.645-5.641-.249 0-1.026.983-1.726 2.185s-1.453 2.184-1.674 2.183c-.945-.006-6.143-5.66-6.14-6.68 0-.812.35-.605 1.261.751.693 1.03 2.076 2.568 3.073 3.418 2.021 1.72 2.756 1.301 3.536-2.013.222-.945.608-1.718.858-1.718.864 0 5.388 4.689 6.025 6.244l.638 1.561.484-1.717c.592-2.1 1.244-2.178 2.189-.262.395.8 2.344 2.464 4.332 3.697l3.613 2.243.726-2.255c.399-1.241.927-1.954 1.174-1.585.368.551-.571 4.288-1.28 5.092-.106.121-1.277-.545-2.602-1.479l-2.409-1.697-.009 3.039c-.007 1.672-.193 3.672-.417 4.445-.438 1.51-1.602 1.935-1.602.585zm-18.016-24.233c-4.295-3.499-4.947-4.299-4.852-5.957l.101-1.765.28 1.705c.164.995 1.308 2.487 2.749 3.585l2.469 1.88 1.518-1.712c.834-.942 1.528-2.063 1.541-2.492.035-1.119.241-1.026 3.149 1.436 2.584 2.187 2.624 2.198 3.008.781.214-.79.138-2.278-.169-3.306-.844-2.825-.679-3.251.6-1.547.638.849 1.662 2.049 2.277 2.667 1.071 1.075 1.137 1.062 1.535-.312.229-.79.421-2.235.425-3.212l.01-1.776 2.329 2.577c2.176 2.406 2.376 2.495 3.041 1.348.391-.675.716-2.3.721-3.61.007-1.693.19-2.12.631-1.475.737 1.076.226 4.006-1.135 6.503l-.977 1.792-1.281-1.947c-1.64-2.491-2.186-2.451-3.238.237-.993 2.54-1.64 2.734-2.608.78-.627-1.264-.747-1.109-1.192 1.546l-.494 2.952-2.963-2.244-2.963-2.243-1.332 1.477c-.733.812-1.342 1.829-1.355 2.258-.027.93-.739.959-1.826.074zm38.204-13.033c-1.564-1.374-2.64-2.685-2.394-2.913.247-.228.525-.294.619-.145.093.148 1.37 1.46 2.839 2.913 3.382 3.349 2.687 3.443-1.064.145Zm-50.888-5.131c-1.423-1.876-1.324-3.12.407-5.153 1.25-1.469 1.822-1.669 4.006-1.398 1.401.174 4.416 1.382 6.7 2.685 2.638 1.504 5.367 2.512 7.48 2.763 1.83.216 3.327.298 3.327.181s-.761-1.325-1.689-2.685c-2.206-3.229-2.131-3.575.358-1.64 2.554 1.985 5.609 2.566 12.436 2.363l3.336-.098-1.935-1.867c-2.707-2.61-1.874-2.844 1.115-.313 2.803 2.373 2.628 2.54-3.272 3.115-2.507.245-5.203.067-7.444-.489-3.353-.831-3.482-.819-2.847.278.366.632.959 1.149 1.317 1.149s.652.32.652.712c0 1.203-7.241.145-10.702-1.565-7.905-3.905-8.9-4.243-10.782-3.665-1.047.322-2.095 1.264-2.456 2.209-1.204 3.15 3.374 5.598 5.262 2.813.548-.806.42-1.359-.542-2.34-1.318-1.346-1.194-1.538.584-.907 1.263.448 1.432 3.405.258 4.49-1.344 1.242-4.411.89-5.569-.638Zm31.139-7.78c-.989-.912-.214-1.136 4.218-1.217 5.483-.1 8.813-.991 12.742-3.411 3.148-1.94 4.001-1.557 1.013.453-2.726 1.834-6.977 3.244-11.082 3.675-1.987.209-4.252.498-5.033.642s-1.617.081-1.858-.142Z"/><path fill="#FFBE29" d="m335.511 241.231 2.274-1.281.973 1.284c1.297 1.71 4.884 1.691 7.264-.039l1.82-1.324 1.524 1.324c2.003 1.739 5.745 1.741 8.135.006 1.672-1.216 1.906-1.241 3.012-.316.659.552 2.593 1.18 4.298 1.395 3.069.389 3.116.368 4.911-2.261 1.505-2.201 1.74-3.093 1.381-5.228a56 56 0 0 1-.569-5.063c-.136-2.478-.122-2.494 3.579-3.752 2.044-.694 4.41-1.625 5.258-2.069 1.478-.774 5.553-5.447 5.553-6.368 0-.244-1.592-.618-3.538-.831-7.739-.847-9.05-4.902-4.019-12.433 8.205-12.283 13.157-24.245 13.19-31.865.015-3.407.213-4.55.662-3.809 1.833 3.027-1.451 15.719-6.426 24.833l-2.003 3.67 1.911-.429c1.051-.237 7.232-2.781 13.735-5.655 17.801-7.866 23.915-9.407 35.434-8.934 9.651.397 13.761 2.237 20.576 9.21 3.609 3.694 7.087 6.337 13.448 10.222 13.553 8.277 14.118 8.994 14.763 18.729.653 9.862.328 10.397-7.318 12.045-6.534 1.409-10.631 4.381-11.729 8.51-.587 2.206.648 2.27 3.942.203l2.415-1.514 1.074 1.514c1.411 1.991 4.411 1.999 6.903.018l1.882-1.495 1.923 1.495c2.99 2.324 6.964 1.761 8.086-1.146.216-.559.791-.38 1.957.608 2.184 1.852 7.782 2.647 8.386 1.191.23-.556-.208-1.928-.974-3.049-3.257-4.765-4.276-7.037-4.319-9.631-.058-3.608 1.045-5.348 5.25-8.282 5.109-3.564 6.687-8.162 2.802-8.162-2.398 0-4.817-2.069-6.358-5.44-3.135-6.853-2.521-14.536 2.184-27.317 4.779-12.981 5.309-15.375 5.328-24.057.016-7.02-.165-8.234-1.803-12.083-1-2.353-3.031-5.857-4.512-7.786l-2.693-3.507 3.457-2.795c10.558-8.534 8.398-22.501-4.311-27.883-3.888-1.646-4.859-1.791-11.673-1.747-4.087.027-10.321.552-13.851 1.167-3.599.626-9.692 1.13-13.871 1.147-6.64.025-7.767-.134-10.325-1.463-2.668-1.386-3.126-2.044-3.648-5.246-.107-.659-.579-1.315-1.048-1.46-.908-.279-5.098 3.27-5.718 4.842-.305.775-.554.721-1.451-.312-.595-.687-1.426-2.265-1.846-3.507-1.058-3.123.241-5.465 4.004-7.22l2.919-1.36L436 85.481c-3.553-2.15-9.593-.68-11.778 2.869-.617 1.003-1.292 1.826-1.498 1.829-.206.001-1.38-.956-2.61-2.128-4.586-4.373-3.009-10.842 3.126-12.817 3.271-1.054 6.166-.25 6.768 1.878.92 3.25 3.778-1.022 3.265-4.879-.34-2.564-.289-2.653 1.53-2.653 2.529 0 7.912 3.239 9.577 5.762 1.934 2.931 1.794 7.546-.335 10.986l-1.671 2.701 2.186-.427c3.205-.626 6.319-2.568 7.895-4.924 1.665-2.49 1.844-7.34.368-9.955-1.432-2.536-1.267-2.939.848-2.082 3.599 1.458 5.523 3.065 6.966 5.82 1.3 2.48 1.372 3.097.668 5.679-.434 1.593-1.399 3.689-2.146 4.657-1.162 1.509-1.202 1.761-.276 1.761 1.724 0 5.325-1.592 6.604-2.92.646-.671 1.589-2.324 2.094-3.672l.919-2.452 1.055 1.869c1.493 2.642 4.395 5.021 7.933 6.5 3.805 1.592 5.39 1.682 3.4.193-1.342-1.004-3.815-8.083-3.065-8.775.44-.408 5.607 3.471 11.506 8.638 5.58 4.888 9.087 6.489 14.212 6.489 6.547 0 10.359-5.561 7.417-10.819-1.716-3.066-5.538-3.491-7.773-.866-1.028 1.207-1.309 2.168-1.008 3.434.369 1.551.225 1.758-1.224 1.758-1.903 0-5.654-2.376-12.317-7.8-10.159-8.272-22.504-15.283-31.418-17.843-5.72-1.644-17.94-2.285-23.755-1.247-6.293 1.123-13.737 4.637-17.792 8.4-7.186 6.665-7.301 15.536-.304 23.613l2.004 2.314-1.357 2.056c-1.974 2.992-1.804 7.018.419 9.984.98 1.306 1.968 2.374 2.196 2.373s.478-.841.556-1.866c.196-2.595 1.337-4.333 3.296-5.021 1.765-.62 2.905-.327 10.984 2.819 8.499 3.31 22.476 3.537 37.338.608 7.286-1.436 15.878-1.352 19.657.194 6.929 2.832 8.535 10.2 3.442 15.793-2.205 2.421-4.331 3.407-11.47 5.318-5.433 1.455-6.719 1.552-19.067 1.432-10.549-.103-14.34.094-18.647.972-4.675.952-7.55 1.048-21.283.711l-15.877-.391 1.76 1.422c.969.783 2.337 1.746 3.041 2.14 1.197.67 1.158.76-.623 1.404-1.046.378-3.368.689-5.159.689h-3.258l-.438 2.701c-.241 1.485-.223 3.22.041 3.854.388.936.243 1.07-.767.712-.685-.243-2.594-.721-4.24-1.062s-3.864-1.036-4.927-1.544c-1.787-.853-1.985-.831-2.644.306-.587 1.014-6.105 5.021-6.915 5.021-.131 0-.3-.772-.375-1.717-.075-.944-.871-3.403-1.769-5.463s-1.834-4.308-2.082-4.994c-.374-1.036-.543-1.089-.994-.313-.299.516-.736 1.92-.97 3.122-.235 1.202-1.066 3.154-1.848 4.339l-1.421 2.153-.907-1.841c-.973-1.977-2.589-4.027-3.173-4.027-.197 0-.534.633-.747 1.405-.446 1.613-4.277 6.087-5.213 6.087-.344 0-.626-1.264-.626-2.81 0-1.545-.304-2.809-.676-2.809-.371 0-.676.399-.676.888 0 1.188-3.272 4.731-4.369 4.731-.479 0-1.249.421-1.712.936-1.206 1.343-2.193 1.154-1.686-.322.238-.692.083-2.308-.343-3.59l-1.009-3.033c-.161-.485-1.333-.357-3.815.42-4.01 1.254-5.354 1.032-3.292-.544.754-.576 1.901-2.571 2.549-4.435s1.603-3.515 2.123-3.673c.729-.22.69.052-.169 1.185-.613.809-1.116 1.9-1.119 2.424-.003.525-.464 1.768-1.026 2.764s-.914 1.908-.785 2.028c.13.121 1.656-.445 3.391-1.256l3.154-1.475.013 1.319c.007.726.387 2.641.844 4.256l.832 2.935 2.147-.962c2.194-.984 4.271-4.491 4.271-7.211 0-1.344.79-1.138 1.113.291.095.419.59 1.993 1.101 3.497l.928 2.735 1.47-1.727c.808-.95 1.822-2.813 2.252-4.14.747-2.303 1.919-3.294 1.919-1.621 0 1.205 3.372 5.529 4.023 5.157.314-.179.94-1.802 1.391-3.605.937-3.752 2.449-6.303 3.41-5.754.362.206.502.607.313.89-.19.283.587 2.722 1.726 5.419l2.54 6.036c.416 1 .792.854 3.233-1.249 1.519-1.308 2.897-2.774 3.063-3.255.251-.729.59-.702 2.01.158 1.986 1.203 8.664 3.14 9.179 2.664.193-.179.392-1.89.44-3.803l.089-3.478 1.92.389c1.056.213 3.277.2 4.935-.03l3.015-.418-2.687-1.798c-1.478-.99-2.972-2.269-3.32-2.845-.371-.613-1.687-1.133-3.176-1.257-4.026-.334-11.16-4.237-11.16-6.107 0-.35.988.246 2.196 1.326 2.679 2.396 6.401 3.9 9.652 3.9h2.432l-1.504-1.953c-.865-1.121-1.64-3.249-1.822-5-.29-2.79-.592-3.234-3.578-5.259-1.794-1.217-4.016-3.041-4.937-4.053l-1.676-1.84-.855 2.185c-.47 1.202-1.045 2.185-1.278 2.185-.232 0-1.136-.703-2.008-1.561s-1.762-1.558-1.976-1.554-.988 1.16-1.719 2.57l-1.329 2.562-1.026-1.477c-.565-.812-1.9-2.25-2.966-3.194s-1.626-1.717-1.246-1.717c.381 0 1.697.983 2.924 2.186l2.232 2.186.907-1.602c.539-.95.741-2.41.497-3.59-.356-1.721-.306-1.821.371-.741.43.687 1.735 2.003 2.901 2.926l2.119 1.677 1.463-2.614c1.455-2.6 1.465-2.606 2.127-1.052.886 2.077 7.295 7.203 12.751 10.198.841.462.486-1.126-1.067-4.776-.411-.967-.747-2.709-.747-3.873 0-1.725-.511-2.494-2.773-4.173-3.266-2.425-4.322-4.149-4.938-8.062-.249-1.584-.82-3.347-1.27-3.916-.666-.845-.776-.372-.598 2.57.12 1.982-.144 4.447-.588 5.477l-.805 1.873-.623-1.561c-.343-.859-1.858-2.352-3.367-3.318s-2.569-1.919-2.354-2.117c.214-.199 1.767.682 3.45 1.957 2.565 1.941 3.129 2.152 3.484 1.296.418-1.005 0-5.377-.806-8.432-.402-1.525-.367-1.517 1.561.365 1.423 1.387 2.21 3.043 2.819 5.93.774 3.67 1.165 4.281 4.642 7.259 2.088 1.789 3.905 3.152 4.038 3.029.133-.122.396-4.75.585-10.283.363-10.61-.047-13.134-2.666-16.412l-1.346-1.685 2.116-2.226c2.759-2.904 4.026-5.232 4.575-8.408l.448-2.583-2.388 2.206c-1.954 1.806-2.888 2.206-5.151 2.206-2.243 0-3.118-.367-4.629-1.938-1.812-1.884-5.024-3.697-8.113-4.58-1.141-.326-1.52-.184-1.52.57 0 .551-.63 2.144-1.4 3.54l-1.401 2.536-2.934-2.83c-1.8-1.736-3.936-3.087-5.525-3.494-4.06-1.042-4.28-.938-4.28 2.013 0 4.476-1.959 5.31-5.484 2.335-2.688-2.268-4.917-2.761-10.013-2.215l-3.936.422.708 1.733c.592 1.449.458 2.058-.809 3.703-2.056 2.668-4.729 3.823-8.843 3.823-1.895 0-4.267.383-5.27.85-1.003.468-3.497 1.007-5.541 1.198-2.044.19-4.222.531-4.841.757-.968.353-1.074.062-.762-2.086.477-3.288-1.876-5.713-5.545-5.713-4.76 0-6.955 4.153-5.091 9.633a42 42 0 0 1 1.043 3.695c.223 1.015 2.367 3.707 4.993 6.271 2.531 2.471 4.923 5.042 5.316 5.713s1.691 1.75 2.885 2.395l2.171 1.174-.287-2.266c-.314-2.491.242-2.882 1.6-1.124.486.628 1.719 1.644 2.741 2.256 1.61.966 1.858.986 1.858.147 0-.532.328-1.758.729-2.725l.73-1.757 1.265 2.39c.696 1.316 2.959 4.305 5.029 6.643 4.017 4.537 6.465 9.607 5.201 10.774-.512.474-1.897.437-4.768-.126-2.225-.436-4.977-.667-6.116-.513-2.325.316-2.508.023-1.078-1.725 1.509-1.844 1.269-2.148-1.696-2.148-3.432 0-11.95-1.605-15.219-2.867-3.18-1.227-3.913-.922-4.849 2.021l-1.714 5.332-.948 2.924 3.44-.323c1.892-.178 4.326-.582 5.408-.898s2.066-.485 2.186-.374-.363 1.253-1.072 2.539l-1.29 2.338 2.144-.427c1.18-.234 2.955-.809 3.944-1.275 1.722-.813 1.86-.754 3.218 1.373 1.67 2.615 3.006 2.508 3.303-.266.306-2.867 1.273-2.443 3.092 1.357 1.748 3.653 3.567 4.943 3.918 2.778.115-.72 1.058-1.89 2.093-2.602 2.094-1.439 3.672-1.007 4.577 1.253.936 2.339-1.152 4.75-7.228 8.344-12.172 7.199-19.246 17.044-21.266 29.592-1.821 11.319 3.868 23.015 15.283 31.415 5.462 4.02 14.14 8.263 13.588 6.644-2.342-6.875-2.264-19.994.13-22.207.36-.332.236 1.037-.274 3.042-1.902 7.47-1.076 13.421 3.799 27.37 4.41 12.617 3.799 18.008-2.441 21.572-2.004 1.145-3.295 1.334-8.684 1.27-5.848-.069-6.485.045-8.362 1.505-1.82 1.415-4.18 6.061-4.18 8.229 0 1.175 1.337 1.02 3.964-.46zm94.915-.254 2.452-1.538 1.665 1.538c2.181 2.015 4.735 1.97 6.832-.121.915-.912 1.736-1.545 1.826-1.405q.459.748.906 1.503c.519.87 1.585 1.307 3.508 1.439 2.317.159 2.939-.059 3.86-1.358l1.098-1.548 2.415 1.514c6.61 4.146 10.133-.204 7.178-8.864-1.502-4.403-.676-6.878 4.166-12.483 2.041-2.363 3.714-4.886 3.715-5.606 0-1.147-.378-1.301-3.094-1.248-2.6.05-3.361-.222-4.73-1.692-2.226-2.391-2.094-5.129.395-8.168l1.988-2.427-3.528-2.335c-1.939-1.285-5.437-4.324-7.773-6.754-5.246-5.456-10.404-8.044-17.206-8.631l-4.56-.394.007 3.368c.009 4.336 2.094 8.507 7.787 15.572 6.472 8.033 6.924 9.277 7.187 19.777l.221 8.879-1.873 1.734c-1.692 1.566-2.455 1.767-7.917 2.074-5.199.293-6.291.554-7.817 1.873-2.026 1.751-2.632 2.704-3.258 5.123-.364 1.41-.217 1.717.826 1.717.698 0 2.373-.692 3.723-1.538zm-138.068-25.688c0-1.123.514-1.423 3.043-1.773l3.042-.422-2.029-1.577c-2.411-1.875-2.634-3.339-.509-3.342 2.116 0 5.701-2.145 6.245-3.731.253-.737.094-1.722-.36-2.228-1.186-1.321-3.417-1.122-3.831.342-.445 1.573-1.191 1.577-2.881.016-2.543-2.35-2.6-7.214-.118-10.046 1.17-1.335 1.159-1.422-.332-2.8-1.604-1.482-2.75-4.416-1.996-5.113.24-.221 1.507-.044 2.816.393 1.861.622 2.595.631 3.361.043 2.322-1.78-.193-4.069-3.917-3.564-1.498.203-2.117 0-2.332-.759-.163-.575-1.474-1.326-2.95-1.69-2.639-.651-2.658-.643-2.658 1.131 0 1.943-1.137 2.31-3.298 1.063-1.756-1.013-3.459-.227-3.459 1.598 0 1.701 1.754 2.541 4.899 2.343 2.411-.151 2.501 1.598.21 4.114l-1.647 1.809 1.305 1.829c1.933 2.709 1.77 7.207-.341 9.442l-1.655 1.752-1.086-1.405c-1.509-1.952-3.573-1.821-4.139.262-.37 1.365-.064 1.988 1.687 3.434 1.177.972 2.895 1.767 3.819 1.767 2.284 0 2.195 1.752-.18 3.523l-1.858 1.386 2.871.435c1.58.239 2.872.689 2.872.999 0 1.191.744 4.805 2.629 4.895 1.684.081 2.737-2.418 2.776-4.125zm36.338-13.074c2.609-1.004 8.255-5.669 8.255-6.821 0-.363-1.558-2.035-3.463-3.717-4.008-3.538-8.368-9.498-9.498-12.982-.589-1.817-3.435-4.927-11.453-12.514l-10.67-10.096-3.074.76c-1.691.418-3.755.77-4.586.783-1.431.021-1.405.101.498 1.539l2.008 1.516 2.816-1.525c2.729-1.477 2.826-1.487 3.163-.297.197.696-.228 1.903-.983 2.789-.731.859-1.148 1.834-.926 2.166.222.333-.48 1.026-1.561 1.543-2.004.957-3.395 4.109-1.814 4.109 1.423 0 4.559-3.776 4.198-5.053-.185-.654-.095-1.327.199-1.495 1.221-.697 1.145 2.267-.096 3.725-.732.859-1.148 1.834-.926 2.166.221.333-.481 1.027-1.562 1.543-1.99.951-3.395 4.109-1.828 4.109 1.536 0 4.622-3.608 4.239-4.958-.2-.706-.122-1.422.172-1.59.823-.47 1.267 1.871.572 3.017-.372.615-.369 1.453.009 2.118.684 1.204-.009 3.518-1.269 4.237-.539.308-.174.913 1.135 1.878 1.895 1.396 1.931 1.542 1.931 7.702 0 5.148.213 6.477 1.182 7.373 1.088 1.005 1.183 1.009 1.183.045 0-1.054 1.895-2.341 3.445-2.341.457 0 3.314 2.362 6.348 5.249 3.053 2.905 6.247 5.377 7.152 5.534l2.163.37c.291.047 1.659-.35 3.041-.881zm-32.621-24.905c0-1.66-3.508-3.431-7.705-3.89-3.388-.371-3.443-.35-3.443 1.301 0 1.367.532 1.905 2.871 2.899 3.758 1.596 8.277 1.427 8.277-.31m3.846-.153c1.711-1.515 2.522-3.317 1.493-3.317-1.184 0-4.327 2.752-4.327 3.789 0 1.618.583 1.521 2.834-.472m-3.647-4.907c.145-.937-.449-1.562-2.228-2.346-3.838-1.691-8.427-2.474-9.532-1.627-2.035 1.561-.679 3.657 2.61 4.034 1.325.151 3.121.545 3.991.875 2.528.958 4.933.522 5.159-.937zm0-5.015c.206-1.336-.669-1.814-7.815-4.268-5.336-1.832-7.698-.968-5.992 2.193.593 1.1 1.59 1.603 3.826 1.93 1.663.243 3.936.718 5.05 1.056 2.979.902 4.699.584 4.931-.91zm3.579-4.699c1.078-1.066 1.96-2.325 1.96-2.797 0-1.53-4.258 1.177-4.801 3.053-.651 2.249.404 2.154 2.841-.256m-3.579-.315c.235-1.522-2.359-2.896-7.459-3.952-3.741-.775-5.392-.335-5.111 1.361.153.926 1.399 1.603 4.934 2.68 5.658 1.722 7.359 1.703 7.636-.089m4.988-7.082c6.535-2.838 7.1-9.996.938-11.875-2.559-.78-4.192-.36-5.171 1.331-.75 1.295-.249 3.65.777 3.65.346 0 .63.435.63.968 0 2.485-9.977 3.611-14.069 1.588-1.438-.711-2.064-2.556-.867-2.556.893 0 1.512-1.88 1.055-3.211-.622-1.812-2.494-2.439-5.209-1.747-6.125 1.563-5.953 8.586.284 11.566 5.114 2.444 16.324 2.592 21.632.287zm-4.065-5.503c.378-.35.214-.887-.42-1.374-1.39-1.065-1.316-2.65.208-4.464 1.145-1.362 1.287-3.4 1.681-23.965.679-35.438 3.38-62.093 6.94-68.487 1.417-2.546 1.218-2.556-2.444-.125-4.718 3.132-8.31 7.21-11.493 13.048-6.008 11.023-8.096 25.852-8.096 57.507 0 17.973.125 20.325 1.174 22.015.997 1.604 1.05 2.197.35 3.911-.454 1.111-.66 2.173-.458 2.36 1.342 1.239 11.115.91 12.558-.423zm54.906-33.793c.204-.306-.248-1.851-1.005-3.434-1.181-2.468-1.657-2.878-3.339-2.878-5.271 0-13.744-2.298-22.48-6.096-5.044-2.194-6.786-2.698-7.391-2.139-1.544 1.426 1.021 4.811 4.994 6.591 3.524 1.578 13.376 3.518 17.87 3.518 2.607 0 2.669.114 1.185 2.207l-1.091 1.539 2.949.074c1.622.04 3.861.288 4.976.55 2.895.681 2.922.681 3.333.068z"/><path fill="#000" d="M382.892 131.813c0-.916-2.757-3.398-5.55-4.998-2.194-1.256-2.556-1.294-2.561-.27-.008 1.555-1.425 5.463-1.982 5.463-.314 0-.778-.763-1.032-1.697-.253-.933-1.317-2.772-2.363-4.087l-1.902-2.391-1.481 2.215c-1.382 2.065-3.773 4.087-4.835 4.087-.254 0-.303-1.087-.11-2.416.209-1.444.048-2.59-.403-2.847-.414-.236-.752-.153-.752.184 0 .777-3.323 4.455-4.025 4.455-.29 0-.695-1.054-.901-2.342l-.778-4.526c-.222-1.202.251-.387 1.051 1.811l1.455 3.997 1.595-2.436c.878-1.339 1.597-2.803 1.599-3.252.001-.45.298-.649.659-.443s.863 1.817 1.116 3.578l.46 3.203 1.756-1.878c.966-1.033 2.097-2.415 2.514-3.073.745-1.173.787-1.172 2.268.054.83.687 2.106 2.33 2.835 3.651s1.425 2.304 1.544 2.185c.119-.12.386-1.481.594-3.026l.412-2.937c.103-.383 5.288 2.905 7.206 4.57 1.233 1.07 2.404 1.796 2.602 1.613.199-.183.361-1.762.361-3.509 0-2.706-.294-3.432-1.991-4.912-1.951-1.701-2.006-1.711-2.726-.466-.936 1.615-2.04 1.639-2.04.043 0-1.164-3.686-5.641-4.645-5.641-.249 0-1.026.983-1.726 2.185s-1.453 2.184-1.674 2.183c-.945-.006-6.143-5.66-6.14-6.68 0-.812.35-.605 1.261.751.693 1.03 2.076 2.568 3.073 3.418 2.021 1.72 2.756 1.301 3.536-2.013.222-.945.608-1.718.858-1.718.864 0 5.388 4.689 6.025 6.244l.638 1.561.484-1.717c.592-2.1 1.244-2.178 2.189-.262.395.8 2.344 2.464 4.332 3.697l3.613 2.243.726-2.255c.399-1.241.927-1.954 1.174-1.585.368.551-.571 4.288-1.28 5.092-.106.121-1.277-.545-2.602-1.479l-2.409-1.697-.009 3.039c-.007 1.672-.193 3.672-.417 4.445-.438 1.51-1.602 1.935-1.602.585zm-18.016-24.233c-4.295-3.499-4.947-4.299-4.852-5.957l.101-1.765.28 1.705c.164.995 1.308 2.487 2.749 3.585l2.469 1.88 1.518-1.712c.834-.942 1.528-2.063 1.541-2.492.035-1.119.241-1.026 3.149 1.436 2.584 2.187 2.624 2.198 3.008.781.214-.79.138-2.278-.169-3.306-.844-2.825-.679-3.251.6-1.547.638.849 1.662 2.049 2.277 2.667 1.071 1.075 1.137 1.062 1.535-.312.229-.79.421-2.235.425-3.212l.01-1.776 2.329 2.577c2.176 2.406 2.376 2.495 3.041 1.348.391-.675.716-2.3.721-3.61.007-1.693.19-2.12.631-1.475.737 1.076.226 4.006-1.135 6.503l-.977 1.792-1.281-1.947c-1.64-2.491-2.186-2.451-3.238.237-.993 2.54-1.64 2.734-2.608.78-.627-1.264-.747-1.109-1.192 1.546l-.494 2.952-2.963-2.244-2.963-2.243-1.332 1.477c-.733.812-1.342 1.829-1.355 2.258-.027.93-.739.959-1.826.074zm38.204-13.033c-1.564-1.374-2.64-2.685-2.394-2.913.247-.228.525-.294.619-.145.093.148 1.37 1.46 2.839 2.913 3.382 3.349 2.687 3.443-1.064.145m-50.888-5.131c-1.423-1.876-1.324-3.12.407-5.153 1.25-1.469 1.822-1.669 4.006-1.398 1.401.174 4.416 1.382 6.7 2.685 2.638 1.504 5.367 2.512 7.48 2.763 1.83.216 3.327.298 3.327.181s-.761-1.325-1.689-2.685c-2.206-3.229-2.131-3.575.358-1.64 2.554 1.985 5.609 2.566 12.436 2.363l3.336-.098-1.935-1.867c-2.707-2.61-1.874-2.844 1.115-.313 2.803 2.373 2.628 2.54-3.272 3.115-2.507.245-5.203.067-7.444-.489-3.353-.831-3.482-.819-2.847.278.366.632.959 1.149 1.317 1.149s.652.32.652.712c0 1.203-7.241.145-10.702-1.565-7.905-3.905-8.9-4.243-10.782-3.665-1.047.322-2.095 1.264-2.456 2.209-1.204 3.15 3.374 5.598 5.262 2.813.548-.806.42-1.359-.542-2.34-1.318-1.346-1.194-1.538.584-.907 1.263.448 1.432 3.405.258 4.49-1.344 1.242-4.411.89-5.569-.638m31.139-7.78c-.989-.912-.214-1.136 4.218-1.217 5.483-.1 8.813-.991 12.742-3.411 3.148-1.94 4.001-1.557 1.013.453-2.726 1.834-6.977 3.244-11.082 3.675-1.987.209-4.252.498-5.033.642s-1.617.081-1.858-.142"/><path fill="#FFBE29" stroke="#000" stroke-width="2.094" d="M532.899 224.664s3.307 6.899 6.961 9.709c5.413 4.165 16.513 3.864 21.224 8.723 5.645 5.729-.438 13.298-.387 13.955l.31 3.998s-3.807.047-5.409.303c-2.41.385-3.35 2.394-7.837 2.095-11.281-.75-10.826-11.163-11.465-20.061-.566-3.388-1.877-7.806-2.622-11.193-.639-2.905-.775-7.529-.775-7.529Z"/><path fill="#FFBE29" stroke="#000" stroke-width="2.096" d="M532.876 75.386s3.309-6.907 6.966-9.721c5.418-4.17 16.526-3.869 21.241-8.734 5.65-5.736-.438-13.315-.387-13.973l.31-4.003s-3.81-.047-5.414-.303c-2.411-.386-3.352-2.398-7.842-2.099-11.29.751-10.835 11.177-11.473 20.087-.567 3.392-1.879 7.816-2.625 11.207-.639 2.909-.775 7.538-.775 7.538zm-281.748.006s-3.31-6.908-6.967-9.723c-5.418-4.17-16.528-3.869-21.243-8.734-5.65-5.738.438-13.318.387-13.976l-.31-4.004s3.81-.047 5.414-.303c2.412-.386 3.353-2.398 7.844-2.099 11.29.752 10.835 11.18 11.474 20.09.567 3.393 1.879 7.818 2.625 11.21.639 2.909.776 7.54.776 7.54z"/></g><defs><clipPath id="a"><path fill="#fff" d="M0 0h600v300H0z"/></clipPath></defs></svg>