<svg xmlns="http://www.w3.org/2000/svg" width="600" height="300" fill="none"><g clip-path="url(#a)"><path fill="#060" d="M0 0h600v300H0z"/><path fill="#fff" d="M0 0h600v214.312H0z"/><path fill="#C00" d="M0 0h600v85.688H0z"/><path fill="#F8C300" d="M288.458 147.419a5.01 5.01 0 0 1 5.527-2.314 5.01 5.01 0 0 1 3.787 4.643v20.025h3.726v-19.967a5.002 5.002 0 0 1 6.935-4.403 5 5 0 0 1 2.379 2.075 11.76 11.76 0 0 0-1.657-10.558 11.77 11.77 0 0 0-9.52-4.856 11.768 11.768 0 0 0-9.52 4.856 11.77 11.77 0 0 0-1.657 10.558"/><path fill="#fff" d="M291.136 142.239a7.97 7.97 0 0 1 8.499 3.784 7.97 7.97 0 0 1 8.499-3.784 8.557 8.557 0 0 0-16.998 0"/><path fill="#F8C300" d="M297.772 161.798a15.135 15.135 0 0 1-25.497 9.663 15.72 15.72 0 0 1-10.22 9.351 15.72 15.72 0 0 1-13.648-2.365c1.456 14.553 23.286 11.584 24.916-2.562 6.811 12.051 21.888 8.558 26.312-6.17zM301.498 161.798a15.132 15.132 0 0 0 18.063 13.523 15.13 15.13 0 0 0 7.435-3.86 15.71 15.71 0 0 0 10.219 9.351 15.73 15.73 0 0 0 13.648-2.365c-1.455 14.553-23.285 11.584-24.915-2.562-6.811 12.051-21.888 8.558-26.312-6.17z"/><path fill="#F8C300" d="M283.218 187.587c-3.085 6.578-9.139 7.684-14.437 2.387 0 0 2.096-1.514 4.424-1.921-.465-1.805.408-4.366 1.689-5.705a8.74 8.74 0 0 1 3.551 4.715c3.201-.408 4.773.582 4.773.582zM307.086 186.85c-4.119 5.986-10.272 6.088-14.633-.003 0 0 2.314-1.151 4.678-1.173-.164-1.856 1.115-4.241 2.598-5.352a8.73 8.73 0 0 1 2.733 5.232c3.225.12 4.614 1.353 4.614 1.353zM330.503 189.966c-5.032 5.242-11.121 4.349-14.44-2.368 0 0 2.47-.761 4.806-.401.138-1.858 1.786-4.005 3.429-4.862a8.73 8.73 0 0 1 1.851 5.605c3.164.64 4.335 2.081 4.335 2.081z"/><path stroke="#F8C300" stroke-width="11" d="M260.924 202.256a135.7 135.7 0 0 1 77.424 0"/><path fill="#F8C300" d="m305.661 115.547-15.776-11.463h19.501l-15.777 11.463L299.635 97zM277.719 123.052l-15.777-11.462h19.501l-15.776 11.462 6.026-18.546zM257.282 143.49l-15.777-11.462h19.501l-15.777 11.462 6.026-18.547zM249.777 171.432 234 159.97h19.501l-15.777 11.462 6.027-18.546zM321.551 123.052l15.777-11.462h-19.501l15.777 11.462-6.026-18.547zM341.989 143.489l15.777-11.462h-19.501l15.776 11.462-6.026-18.546zM349.494 171.432l15.777-11.462h-19.502l15.777 11.462-6.026-18.546z"/></g><defs><clipPath id="a"><path fill="#fff" d="M0 0h600v300H0z"/></clipPath></defs></svg>