<svg xmlns="http://www.w3.org/2000/svg" width="600" height="300" fill="none"><g clip-path="url(#a)"><path fill="#00247D" d="M0 0h600v300H0z"/><path fill="#FED100" d="M189.667 247.081c-4.909-.073 46.008-27.106 88.572-61.832C334.064 139.754 454.285 67.006 489.67 55.138c3.663-1.246-7.546 6.3-9.011 8.718-37.73 44.689-7.62 128.939 39.56 171.357 14.213 10.842 13.48 11.428 39.781 12.454v2.491zm-3.077 4.908s-3.59 2.565-3.59 4.469c0 2.125 4.029 4.909 4.029 4.909l365.205 4.029 6.74-4.469-9.377-5.787z"/><path fill="#fff" d="m169.403 58.45-2.934 8.95 7.629-5.502 7.555 5.501-2.86-8.949 7.555-5.501h-9.389L174.098 44l-2.934 8.949h-9.389zm57.289 42.105L233 95.933h-7.849l-2.42-7.408-2.421 7.408h-7.775l6.308 4.622-2.421 7.408 6.309-4.621 6.381 4.621zm-106.508 9.536-2.934-8.949-2.861 8.949H105l7.555 5.501-2.86 8.949 7.555-5.501 7.629 5.501-2.935-8.949 7.629-5.501zm57.288 89.71-3.374-10.416-3.374 10.416h-11.003l8.876 6.381-3.375 10.49 8.876-6.455 8.876 6.455-3.448-10.49 8.876-6.381z"/></g><defs><clipPath id="a"><path fill="#fff" d="M0 0h600v300H0z"/></clipPath></defs></svg>