<svg xmlns="http://www.w3.org/2000/svg" width="600" height="300" fill="none"><g clip-path="url(#a)"><path fill="#00247D" d="M0 0h600v300H0z"/><path fill="#8FC5FF" stroke="#fff" stroke-width="2.842" d="M505 140.387c0 44.552-7.454 92.672-67.963 115.613-60.364-22.941-67.745-71.061-68.037-115.613z"/><path fill="#366CC9" stroke="#000" stroke-width="2.842" d="M436.964 255.79c23.003-7.708 42.179-23.343 53.786-43.853h-5.7c-1.681-.28-58.025-5.456-64.821-8.183-5.773-1.959-28.062 1.888-38.293 5.455 11.301 21.806 31.083 38.504 55.101 46.511z"/><path fill="#5D3100" stroke="#000" stroke-width=".264" d="M394.725 228.443h3.434c.804 0 .804 0 1.097-.839.292-.84 1.169-.56 1.753-.28.512.28 1.681 0 2.193-.56.658-.559.657-.559 1.242 0 .512.56.804.28 1.462 0 .219 0 1.388-.559 1.681-1.398.219-.77 1.096-1.05 1.461-.49.219.56.731.56 1.389.56.511 0 .511.209.511 1.049 0 .559 0 .839 1.462-.28 1.169 1.119 1.461.559 1.461-.56 0-1.049 0-5.455-.584-5.735-.585-.28-.877-2.168-1.17-3.497 0-2.798 0-2.798-2.85-4.196 0-.7-.584-1.049-2.923-1.049.366-.28 0-1.05-.511-1.399-.585-.21-.585-.49 0-1.609.584 0 1.754 0 1.973-.839.584-.49 2.338-.49 3.434 0 1.17.559 2.339.559 4.312 0l3.435-1.609c1.461-.839 1.681-1.119 1.681-2.168 0-2.798-.804-5.455-1.462-6.854-.731-1.399-.731-2.798-1.973-5.176-1.096-2.238-1.096-2.798-2.192-4.127-.658-.559-.95-.839-.95-1.608a4.07 4.07 0 0 0-1.462-2.798c-2.192-1.888-2.777-8.183-3.946-12.799-.585-2.798 0-9.092-1.096-10.142-2.047-1.398-2.924-1.119-4.385-1.608-1.096-1.399-1.389-3.847-2.485-6.295-1.461.28-2.338 1.609-3.142 2.098-.877.63-1.17.63-1.17 1.959 0 1.119-.876 2.797-1.973 4.896-1.169 2.238-3.727 1.398-5.773 4.406-3.946-4.616-3.946-6.015-4.239-7.344 0-1.399-.876-1.679-3.142-3.567v-4.197c-2.046-1.398-3.142-1.049-4.019 0-.877.84-1.462 2.169-2.85 2.798-.585 1.049-2.923 3.217-4.604 6.295 1.754 24.549 7.454 49.169 24.847 68.892z"/><path fill="#FF0" stroke="#fff" stroke-width="2.842" d="M505 140.387c0-16.996-.877-33.432-.585-47.56-21.496-8-44.388-12.012-67.452-11.82-15.127 0-44.87 2.168-67.378 11.75.511 14.198-.585 30.634-.585 47.56z"/><path fill="#CF6200" d="M372.727 159.76c.73 1.12 2.119 3.008 2.192 4.197.585-1.119 1.023-1.539 1.096-2.168 0-.7.95-1.889.585-2.588-.293-.699-.512-1.189.292-.699.804.489.658 1.398.512 2.657-.512 3.497-1.974 4.197-2.193 6.505 2.12 4.896.512 6.714 2.923 11.61.366.14 1.316-.21 1.608-.14 1.316-.839 2.193-.629 4.019-.21 1.754.35 2.704 1.539 2.704 2.658s0 1.329.439 1.959c.365.559 1.023 1.608.95 2.378-.219.699.073 1.119.365 1.398.22.35-.146 1.259-.292 1.679-.219.42-.146 1.189.731 2.238s2.923 5.525 2.923 8.113c0 2.728.219 3.917 1.315 4.407 1.097.489 1.462.909 1.316 2.028-.146 1.049.511 6.994.657 7.973.074.909.512.7 1.024 1.189.438.49.73 1.049 2.192 1.049 1.535 0 2.923-.14 3.8 0 1.462 1.749 2.192 4.197 2.558 5.666.365 1.538.292 3.497.731 3.497.584 0 1.096 0 .95-1.749-.146-1.818-.293-2.098-.95-3.077-.731-.91-1.097-1.399-.731-1.889.365-.559.438-1.399.365-2.168-.146-.699-.438-1.818.877-.42l1.973 2.308c.366.42.512 1.399.439 2.309-.073.839 0 1.189.657.699.512-.42 1.097.35.731 1.259-.219.909.22 1.469 1.096 1.818.877.28 1.243.49 1.462 1.119.219.56.95.91.95-.419a18.2 18.2 0 0 0-.877-4.826c-.365-.839-.658-2.658-.731-3.777-.146-1.049-.292-1.329-.804-1.469-.511-.21-1.023-.699-1.096-1.119 0-.489-.511-.699-.804-.699-.365 0-.657-.21-.877-.56-.146-.419-.365-.419-.73-.419-.366-.07-.95.139-1.17-.42-.146-.56-.438-1.399-.803-1.819s-.658-.629-.731-2.238c0-1.608 0-1.818-.585-2.378-.585-.559-1.461-2.098-1.827-2.657-.292-.7-.731-1.329-.731 0 0 1.398 0 2.098.95 2.587.877.49 1.097.49.731 1.259-.438.7 0 1.189.146 1.679.22.49.439.979 0 1.399-.438.559-.877.419-.804-.35a4.33 4.33 0 0 0-.657-2.308c-.293-.699-.658-1.119-1.096-.699-.439.279-.804-.14-.512-.42.365-.28.219-.49 0-.699-.146-.14-.292-.42.073-.84.365-.419.366-.629.146-1.608-.219-.98-1.827-6.015-2.558-7.134-.73-1.189-.657-1.959.22-.91.95 1.119 1.827 2.099 1.973 3.078 0 .979.219 1.538.511 1.818.366.35.512.28.731-.559 0-.77.731-.49-.292-1.959-1.096-1.468-2.996-3.986-3.8-8.533-.731-4.476-1.023-7.343-1.754-8.532-.731-1.259-.95-1.539-1.023-2.658s0-2.308-.512-3.147c-.511-.84-.877-.98-.95.279s0 4.197.439 4.616c.438.49.146 1.819 0 2.448-.146.7-1.243 1.469 1.242 2.868.95.629.731 1.399.731 1.818-.219.56-.366.49-.877-.279-.512-.77-1.023-1.469-1.535-1.819-.511-.35-.657-.699-.511-1.748s.219-1.749 0-2.099c-.293-.279-.439-.07-.658.56-.146.559-.219 2.098-.658 2.518-.365.419-.365.14-.584-.77-.293-.909.073-2.378.584-3.986.512-1.539.877-3.357.439-5.456-.439-2.098-.293-2.797-1.9-4.546-1.754-1.818-3.727-3.497-4.458-5.665-.877-2.238-1.023-4.197-1.973-5.176a12.3 12.3 0 0 0-2.923-2.588v-3.287c0-.839-.366-1.259-1.316-1.119s-1.608.909-2.192 1.959c-.585 1.119-1.023.629-1.9 2.447s-1.9 2.798-1.9 4.756z"/><path fill="#CF6200" d="M378.063 180.533c.731.42 1.242.63 2.192.21.804-.42 1.827-1.678 3.143-.42a7.5 7.5 0 0 1 1.754 4.687c0 1.608 0 4.546 1.9 6.154 1.9 1.609 2.85 3.358 2.923 5.456a36 36 0 0 0 1.023 6.295c.292.839.731 1.818 1.389 2.447.511.56 1.023 2.169 1.096 3.847.073 1.749-.22 2.868 0 3.777.292.839 0 1.539-.585 1.189-.731-.35-.877-.699-1.315-1.399-.439-.699-.731-.629-.366.49.366 1.119 1.462 2.098 2.412 2.098s1.242.07 1.9.699c.585.56.658.84 1.681.84s1.169 0 2.192.28c.95.209.95.139 1.462 0 .511-.21 1.023.279 1.388 1.189.293.909 1.243 3.497 1.243 4.196s0 1.399.511 2.098c.512.77.365 1.399-.219 1.049-.512-.419-.585-.349-.95-.209-.439.139-.731-.14-1.389-.56-.584-.28-.219-.21-.804-1.049-.584-.909-.95-1.189-.95-.49s-.146 1.399-.584.98c-.439-.35-.658-.35-1.023 0-.366.419-.512.699-.95 0-.439-.7-.95-.7-1.462-.91-.365-.07-.365-.07-.585-.699-.219-.7-.95-.839-1.461-.839-.658 0-.95-.28-1.023-.7 0-.42-.439-.699-.731-.909-.365-.21-.146-.7-.219-1.189 0-.49-.512-.35-.804-.42-.366-.14-.512-.07-.512-.839 0-.699-.365-.909-.511-1.399-.293-.559 0-1.049.146-1.539.073-.699 0-.979-.439-1.398-.438-.56 0-1.05-1.242-2.099-1.242-.909-1.827-.07-2.192-2.378-.21-2.72-.8-5.402-1.754-7.973-.731-.699-1.096-1.399-1.827-1.609s-1.023 0-1.096-1.398c-.073-1.399-.512-3.078-1.462-3.917l-1.681-1.539c-.438-.28-.657-.979 0-2.098.658-1.259.366-2.938.293-3.707-.073-.699-.293-1.818-.147-2.658.147-.839 0-1.888-.146-2.448-.219-.489-.511-.699-.146-1.189zm17.904-20.143a15.8 15.8 0 0 1-3.434 3.217c-1.389.98-3.143 1.679-2.193 3.288 1.023 1.608 1.827 1.818 1.973 3.007.22 1.259.585 2.308 1.462 2.588 1.096.28 1.462.14 1.462 2.098 0 1.889 0 2.798.877 3.497.877.7.73 1.539 1.169 3.288.438 1.818.438 5.735 1.608 8.393 1.096 2.587 3.873 7.693 3.507 8.672-.292 1.049-.584 1.819.512 3.078 1.242 1.189 1.973 3.007 2.192 4.056 0 1.049.22 1.399 1.462 1.049a4.43 4.43 0 0 0 2.119-1.189c.366-.489 1.169-.419 2.266.14 1.096.63 2.777 1.119 3.8.63.95-.63 1.461-1.469 2.338-1.469 1.389-.979 1.9-2.938 2.193-3.497.292-.56.073-.56-.512-1.119-.585-.56-.292-1.539-.365-2.448-.147-.979-.512-2.448-1.681-4.546s-1.973-4.616-2.704-5.246c-.731-.699-1.169-2.308-1.242-3.077-.074-.7-1.024-1.399-1.608-1.959-.658-.629-1.169-1.398-1.9-4.756-.731-3.287-1.169-5.595-1.169-6.294 0-.56-.147-.56-.731-.84-.585-.209-.877-1.119-.585-1.538.073-.49-.292-.98-.511-1.539-.147-.56 0-1.609.438-2.238.365-.56.292-2.098-.073-3.497-.365-1.259-.804-2.378-2.412-2.658-1.534-.14-1.9-.56-2.411-1.819-.731-1.189-1.316-3.357-1.462-3.846-.146-.49-.511-.56-1.681.419-1.169.91-1.607 1.189-1.607 3.008 0 1.189.292 1.539.657 2.168.366.699.512.909.731 2.658.292 1.748 1.973 4.616-.146 6.295-2.192 1.538-1.9 1.958-1.827 3.077.146 1.189-.585 1.888-.95.35-.439-1.679 0-2.588 1.169-3.358 1.169-.699 2.266-1.748 1.462-2.797a12.8 12.8 0 0 1-1.243-4.616c-.073-1.119-.219-1.539-.95-.63"/><path fill="#00B800" d="m378.354 184.52.219 2.308c0 .769.293 2.448-.365 3.637-.585 1.189-.439 1.818 0 2.168h.073c1.242-.35 1.462-1.609 1.096-2.238a2.15 2.15 0 0 1 .146-2.099c.366-.699.366-1.049 0-1.538-.365-.49-.365-.49 0-1.819.439-1.189-.511-1.189-1.169-.419m12.716 18.394c-.219-.839-1.096-4.196-1.096-6.295-.073-2.098-1.097-3.846-2.924-5.455-1.461-1.259-1.753-3.287-1.9-4.896-1.096-.629-1.461-.35-1.388.839 0 1.259 1.461 1.819 1.242 3.707-.219 1.819-.219 1.399.731 2.308.804.84 1.242 1.819.731 2.099-.512.349-.512 1.049.146 1.259.731.279.731.979.658 1.678-.073.63.657.769.95 1.189.438.49.438 1.679 0 2.308-.293.7-.366 1.749.292 1.189.731-.629 1.023 0 1.535.839.438.7.877.49 1.461.35a6 6 0 0 1-.511-1.119zm9.5 16.506c-.292.84-.804.63-1.242.21-.439-.42-.95-.42-.731-1.259.146-.769 0-.909-.512-1.329l-.219-.21h-.585c-1.096 0-1.169-.209-1.826-.839a5 5 0 0 0-.366-.28v.56c0 .769 0 .559-.731.839-.73.21-.73-.769-.877-1.399a2.2 2.2 0 0 0-.073-.419 2.97 2.97 0 0 1-1.394-.719 2.77 2.77 0 0 1-.798-1.31c-.365-1.119 0-1.189.438-.489.439.699.512.909 1.17 1.399.584.349.877-.35.584-1.189a3.6 3.6 0 0 1 0-.91 1.4 1.4 0 0 0-.584-.699c-1.316-.49-.877-.56-.877-1.539.146-.909-.073-.909-.877-.419-.731.489-.731 0-.731-1.539 0-1.399-1.023-1.399-1.242-.42-.22 1.049-.658.35-1.023-1.049-.366-1.399-1.097-1.818-1.097-.419 0 1.189-.438 1.398-1.169.839l.292 2.168c.366 2.308.95 1.399 2.193 2.448 1.169.979.804 1.539 1.242 2.028.439.49.512.84.439 1.399-.22.56-.439 1.049-.22 1.539.22.559.585.699.585 1.469 0 .699.146.629.512.839h.584l.512-.7c.95-.839 2.192 0 2.704 1.189.438 1.05.95 1.329 1.68.42.731-.839.439-.699 1.17.07.731.839 1.023.699 1.023.699s.731-.279 1.315.14c.512.42.731.35 1.754-.979.95-1.399-.438-.979-.877-.14zm2.777-39.027c.292-2.098.073-4.127.95-4.896.95-.699 1.973-2.308 1.973.979-.146 3.218-.292 3.008-.95 3.777-.731.769-1.315.979-.731 2.168.804 1.189.877 1.399.804 3.218-.073 1.888-.073 2.727.658 3.637.804.979 1.023.979 1.242 2.098a5.8 5.8 0 0 0 1.754 3.147c.877.839 1.9 2.938 1.973 4.476.146 1.539 1.462 1.889 2.777 3.008 1.316 1.049-.292 1.748-1.242 1.259-1.023-.42-.658 0-1.242.699-.585.7-.731.77-1.243-.419-.511-1.119-2.192-1.889-2.996-2.169-.804-.279-1.462-1.538-2.192-2.797a3.7 3.7 0 0 0-1.199-1.234 3.9 3.9 0 0 0-1.651-.585c.292.77.438 1.399.365 1.679-.292 1.049-.585 1.818.512 3.077 1.242 1.189 1.973 3.008 2.192 4.057 0 1.049.219 1.399 1.462 1.049a5.3 5.3 0 0 0 2.119-1.189c.365-.49 1.169-.49 2.265.14 1.096.559 2.777 1.119 3.8.559.95-.629 1.462-1.398 2.339-1.398 1.388-.98 1.9-3.008 2.192-3.497.293-.7.073-.7-.511-1.189-.585-.56-.293-1.539-.439-2.448 0-.98-.438-2.378-1.607-4.477-1.243-2.098-1.974-4.616-2.704-5.245-.731-.7-1.243-2.308-1.243-3.078-.146-.699-1.023-1.399-1.608-2.028-.657-.56-1.242-1.399-1.9-4.686-.511-2.588-1.023-4.616-1.096-5.595-.731 1.049-1.242 1.398-1.461.559-.366-.839-.658-1.259-1.097-.699-.365.559-.511-.56-.511-1.049 0-.49 0-.49-.658-.49-.584 0 0-.699-.219-2.238-.219-1.399-.512-1.539-.658.14-.219 1.678-1.242 2.797-.804 3.077.366.42.147 1.189-.219 2.308a3.42 3.42 0 0 0 0 2.518c.292.7-.146 2.238-.292 3.427-.219 1.189.804 2.448 1.096.42zm-18.124-16.926c-.73 0-1.242.7-.803 2.798.292 1.399-.731 1.119-1.17.419-.365-.699-.73-2.098-1.461-3.287-.804-1.189-.439.77-.512 1.959-.146 1.189.658 1.189 1.316 2.098.73.979.146 1.329-.585 1.329s-.512 1.538-.292 2.518c.219 1.049-.22 1.259-.731.419-.731-.909-.219-2.098-.146-3.777.146-1.608.219-1.259-.877-1.608-1.096-.42-.95-.63-.439-1.539.366-.979.731-1.399.22-1.888-.439-.49-.366-.77.438-.84.731-.14.438-.699 1.169-.839.731-.21 1.023 0 1.096-1.189.074-1.049.439-1.609 1.243-1.329.511 1.609 1.096 4.057 1.534 4.756m10.012 11.191c0 1.958 0 2.797.877 3.497s.731 1.539 1.169 3.287c.439 1.819.439 5.735 1.608 8.393l1.316 2.798a5.4 5.4 0 0 0 1.461-1.819c.219-.559-.657-1.958-1.315-3.007-.731-1.259.073-1.609.731-3.078.73-1.329 0-1.398-1.17-1.818-1.023-.35-1.023-1.399-1.607-2.868-.585-1.538-.512-2.168-.147-3.077.366-.839.147-1.469-.657-1.679s-.585-.699-.293-1.678c.293-.91.512-1.119-.73-.91-.877.28-1.097.49-1.389.7z"/><path fill="#5D3100" d="M406.635 178.575c-.146 1.119-.146 1.748-.438 2.098s-.073.909.219 1.539c.365.559.438 1.259.219 2.378-.292 1.049.146 1.818.731 2.098s.877 0 .731 1.399a3.9 3.9 0 0 0 .232 1.778c.215.569.56 1.084 1.01 1.509.731.56 1.242 1.469 1.096 2.098 0 .56.512 1.049 1.243 1.399.73.28.584.35.584.7 0 .349.293.419 1.023.629.731.21 1.462.629 2.339 1.679.877 1.119 2.192 1.608 1.973.489-.219-1.049 0-1.958-1.169-2.448-1.243-.559-2.12-3.287-2.558-5.175a11.77 11.77 0 0 0-2.923-4.966c-.219-1.399 0-2.029-.877-2.658a2.84 2.84 0 0 1-.901-.977 2.7 2.7 0 0 1-.342-1.261c0-.56-.438-1.399-.876-1.679-.366-.21-.585-.629-.585-1.259 0-.559-.585-.489-.731.7z"/><path fill="#00D860" d="M401.375 229.422a29.6 29.6 0 0 0 7.089-1.958c1.242.769 3.288 1.818 4.165 1.818-1.681.35-2.85.21-3.215-.139.219.489.73 1.328 1.169 1.398-1.681 0-3.508-.419-4.092-.979-1.462.56-3.801.7-5.116-.14m3.142 2.099c.658.209 3.8.699 4.239.699-1.023.839-.146 1.679 1.535 1.539-.731.14-1.754.419-1.097.559a18.5 18.5 0 0 0 6.504-1.259c-1.461 1.749-8.331 3.357-11.181-1.538m2.924 4.266a6.86 6.86 0 0 1 3.873.21c-1.023.419-3.289.419-3.947-.14z"/><path fill="#000" d="M410.583 235.786c1.461-.209 5.846.7 7.308-.139-.512 1.328-3.143 1.538-4.166 1.189-.95-.21-1.827-.56-2.484-.56.438-.21-.147-.21-.731-.49z"/><path fill="#00D860" d="M412.117 237.815c2.22.059 4.437-.201 6.577-.769 1.243.419 3.947 1.119 4.531 1.049-1.242.699-3.654.28-4.385 0a8.28 8.28 0 0 1-6.723-.28"/><path fill="#00D860" d="M414.017 238.444c1.681.35 3.143.14 4.75-.349.512.14 1.681.419 2.85.419.731.35 1.681.91 2.704 1.05-1.842.24-3.717.073-5.481-.49a14.6 14.6 0 0 0-5.846 1.049c.036-.332.154-.652.345-.931.19-.28.448-.512.751-.678z"/><path fill="#000" d="M412.116 230.541c1.243.35 5.993.14 8.258-.909 1.023-.49 1.608.28.512.559-3.8 1.399-6.943 1.819-9.135.7-.877-.42-1.023-.84.365-.42z"/><path fill="#00D860" d="M434.918 224.386c-5.774 2.588-9.501 3.358-17.466.98-.731-.14-1.243 0-.439.489a30.3 30.3 0 0 0 6.212 1.819c1.023.07.658.489 0 .699-.585.14-.731.56.073.28.804-.35 5.7-.49 7.673.489.804.49 1.024.35.95 0-.073-.279.366-.489 1.024-.559.584-.07 1.023-.28.511-.42-.511-.21-.585-.349-.219-.489.365-.21.438-.42-.146-.49-.512-.14-.95-.28-.439-.489a6.8 6.8 0 0 1 1.9-.49c.146-.35-.073-1.399.366-1.819"/><path fill="#000" d="M425.418 225.016c4.532.064 8.938-1.424 12.423-4.196 1.17.699 2.704 1.399 3.581 1.538.804.14 1.462.84.22.84-1.243 0-2.924-.49-3.801-.84a22.3 22.3 0 0 1-12.423 3.008c-.804 0-1.023-.35 0-.28z"/><path fill="#00D860" d="M415.698 207.95c1.169.769 3.142 2.028 5.7 1.818 1.236.948 2.65 1.66 4.166 2.099-1.754.559-3.654 1.189-4.093 1.678-.731-.699-1.827-.559-2.046-.979-.731.7-.658.909-.146 1.259a16.8 16.8 0 0 0 5.115.63c.877-.28 1.243.489.439.699-1.973.699-5.847 0-7.162-2.028-1.462-2.029-2.558-2.798-6.212-.91-.365-1.049-.365-1.189-1.096-1.189s-2.046-.909-1.023-.909 3.946-.419 6.358-2.098z"/><path fill="#00D860" d="M416.647 212.636c-.731.07-2.411.979-2.996 1.049-.658.14-1.754.979-.658.979 1.243 0 2.704-1.189 3.508-1.189s.877-1.049.146-.909zm3.654 3.497c-.511.14-2.412.56-2.923.56s-1.096 0-1.023.419c.073.35.219.63-.658.49-.731-.14-1.388.21-1.535.42-.219.209-.365.419.439.489.731 0 1.169.21 2.119-.28.877-.419 1.681-.909 2.631-.979.95 0 1.9-1.259.877-1.049z"/><path fill="#000" d="M417.597 218.301c.804.63 4.823 1.819 6.212 1.819 1.461-.07 1.242.49.146.699a9.3 9.3 0 0 1-3.719-.227 9.05 9.05 0 0 1-3.297-1.661c-.877-.7 0-.979.585-.63z"/><path fill="#00D860" d="M436.525 220.33a16 16 0 0 1-7.454.21c-1.242-.42-2.412-.42-1.462.419.731.77 3.508 1.259 5.116.91-5.554 1.189-7.016 1.119-8.331.909a29 29 0 0 0-5.116-.14 4.56 4.56 0 0 1-2.411-.28c-.512-.35-.658-.769.804-.629 1.461.07 1.68-.14.438-.35-1.315-.21-2.996.28-1.315 1.399 1.754.979 5.407-.14 7.819.559 2.108.526 4.317.558 6.441.096a13.85 13.85 0 0 0 5.763-2.753c.22-.14.658-.7-.292-.42zm-15.054-4.406c.146.419.146.699 0 .979-.146.279-.073.629.365.279.439-.349.731-.839 1.315-.559.512.21 1.681.21 2.193.14.584 0 .731-.21 0-.49a5.6 5.6 0 0 0-2.119-.419c-.439.07-1.024 0-1.389-.21s-.438 0-.365.28"/><path fill="#00D860" d="M429.363 217.322c-.585 0-1.754-.419-2.266-.699-.585-.21-1.461-.21-.877.699.658.84 3.362 1.189 4.385.84.95-.42.585-.84 1.461-.28 1.024.559 1.974.909 2.704.909s.95 0 .22-.419c-.731-.42-1.17-.49-1.316-.84-.146-.349-.146-.629.658-.349.731.209 1.461.559 2.046.279.585-.279 1.608-.909 2.558-.909l.146-.56c-1.315 0-2.192.35-2.558.42-.292.14-1.023.28-1.754.14-.73-.14-1.607-.21-1.827-.35-.292-.209-.219-.349.366-.419.584-.14.731-.49 0-.42-.731.14-3.07.14-4.239-.21-1.096-.349-1.608-.419-2.046-.21-.512.14-.438.7.219.7.731 0 2.339.21 2.923.699.439.49.439.49-.146.28-.657-.28-1.827-.14-.657.699"/><path fill="#00D860" d="m439.083 215.993-.22.56c1.389 0 4.677.279 5.847.909 1.023-.769.803-1.049 1.461-.839.731.209 1.754.349 2.193.209a1.52 1.52 0 0 1 1.096-.139c.438 0 1.461-.14 1.973-.42.585-.35 1.754-.7 2.411-.7.585 0 1.462-.209.22-.419-1.17-.21-3.07.21-3.654.419-.731.21-2.558.35-3.654.35s-2.631.49-3.873.21c-1.316-.28-3.07-.14-3.874-.14z"/><path fill="#000" d="M456.33 215.434c-2.193 1.539-4.97 1.888-8.112 2.098-.95 0-.658.28.146.35 3.362.35 7.162-.839 8.477-2.098.366-.42.292-.979-.511-.42z"/><path fill="#00D860" d="M441.129 219.071c1.808.26 3.592.657 5.335 1.189.877-.14 1.096-.28.95-.629-.22-.28-.293-.56 1.242-.42h5.481c.585-.21 1.681-1.049 2.192-1.049-1.315 0-6.942.28-7.6.21-.731 0-1.096 0-1.535.279-.438.21-.657.35-1.242.07-.731-.21-1.535-.489-2.192-.07-.439.28-1.681 0-2.631.42"/><path fill="#00D860" d="M454.136 219.211c.511-.21 1.681-1.049 2.192-1.119 1.023-.07 2.046.28 2.558.419.512.14 1.096 0 .731-.419-.293-.35 0-1.119 1.461-.909 1.608.139 2.339.419 3.874.279 1.534-.14 2.119.91 4.896-.14-.146 1.05.365 1.12.877.91.511-.14 1.096-.14 1.973.489.95.7 6.358.7 7.6.49 1.316-.21 1.9.42.95.699-.95.28-1.169.7-.95 1.049.219.28.439.63-.731.49-1.242-.14-1.461.21-1.973.56-.584.419-.731.699-2.411.349-1.608-.28-1.974-.07-2.851 0-.876.14-1.096.21-2.046-.07a7.3 7.3 0 0 0-4.019-.21c-1.169.42-1.973.7-3.069.42-1.097-.21-1.097-.14-.439-.699.585-.7.731-.7 2.046-.77 1.316-.14 2.193-.489 1.389-.979-.95-.489-1.169-.419-2.412.07-1.169.56-1.754.979-3.142.28-1.316-.7-1.9-.63-2.923-.35-.877.21-2.339-.35-3.581-.839m4.458 2.098c-1.754.28-2.193-.769-3.947-.629-.584.14-1.607.839-.219.699 1.389-.07 2.923.63 4.239.56s.731-.7 0-.63zm-1.9 1.189c.803-.28 2.63.35 3.507.21.804-.14 1.462.28.585.629-.877.28-2.704-.489-3.654-.279-.804.279-1.754-.07-.512-.56zm-17.832 4.686c1.243 0 5.7-.21 7.454-3.707.147-.279.22-.419.731 0 .512.35 2.631 1.469 6.431 1.819 1.096 0 2.192.559.073.489-2.192-.14-5.554-.699-6.65-1.398-1.973 2.867-5.408 3.217-8.039 3.147-1.534 0-1.169-.42 0-.35"/><path fill="#00D860" d="M448.437 222.288c-.585.77-2.631 2.098-3.508 2.238-.95 0-3.8-.14-4.458-.419-.731-.21-1.535-.21-.585.489a8.34 8.34 0 0 0 4.385.909c1.169-.209 2.266-.559 3.069 0 .731.42 2.193 1.259 3.07 1.12.877-.21 2.558-.21 3.142 0 .585.279 1.535 1.119.073.699-1.461-.49-2.631-.14-3.288-.42.73.979 2.411 2.588 3.8 2.588.365 0 .657.63 0 .909.584.28 2.192.63 3.142-.209-.292.349-.146.489.219.629.366.14.804.42.147.56-.731.139-2.193.209-2.631 0 1.461.909 5.115 2.378 8.988 1.608.731-.07 1.17-.419 0-.35-2.557 0-2.704 0-3.142-.209-.438-.28-.292-.49.439-.7a18 18 0 0 1 3.142-.489c.731 0 1.535-.21 0-.21-1.462 0-3.362 0-4.166-.28-.73-.21-1.242-.629-.438-1.119.731-.49 1.535-.35 1.9-.699-2.412 0-5.408-1.399-3.8-2.518.365-.21.292-.28-.292-.35a16.6 16.6 0 0 1-3.289-.979c-.731-.35-.292-.77.365-.909-1.461.209-4.384-.49-6.284-1.819zm21.777 0c-1.315.909-3.873 1.399-4.969 1.399-1.023 0-1.243.28-.366.35s1.827.279 2.193.14c.365-.14.657-.14 1.169.139a4.57 4.57 0 0 0 2.777 0c1.096-.279 2.704-.419 3.435-.419.731.07 1.461.07 0-.28-1.316-.35-3.654-.14-4.239 0-.511.14-2.046 0-1.242-.14.804-.21 1.461-.699 1.9-.979zm-.731 2.798a8.85 8.85 0 0 1-4.457 1.608c1.461.56 2.777 2.099 3.8 1.959-.512.35-1.097.699-1.681.839a6.07 6.07 0 0 0 3.946-.699c2.192.559 5.116.14 6.066-.7-1.462 0-3.143-.419-3.947-1.119.731 0 1.389-.349 1.681-.769-1.681.28-4.385-.49-5.335-1.259z"/><path fill="#00D860" d="M467.144 229.422c.585 0 1.242-.419 1.681-.699a14.54 14.54 0 0 1-8.112-1.819c-1.608-1.329-1.608-.279-.511.63a8.1 8.1 0 0 0 3.261 1.786c1.22.34 2.506.399 3.754.172zm3.946 3.287c-.657.35-3.873.63-4.896.35-1.096-.21-1.462-.14-1.315.35.219.419.438.699-.439.559a9.2 9.2 0 0 0-2.923.35c-.731.14-1.462.699-.146.49 1.388-.14 2.558-.42 3.654-.21.95.21 4.458.28 5.115 0 .731-.28.293-.21 0-.21-.365 0-.511-.21 0-.49.512-.209.804-.699.95-1.189m-30.912-4.056a47 47 0 0 1-7.016 1.748c-1.461.63-2.63.98-3.361.98.511.419 2.558.839 3.288.629-.438.49-1.461.909-1.827 1.189 1.243-.21 2.558.14 3.216.21a9.25 9.25 0 0 1-4.896.979c.438.42.95.909 1.607.909a8.6 8.6 0 0 1-4.019.14c.438.7.731 1.119 1.315 1.259-1.242.07-2.704.28-3.946-.42.95 1.259 3.069 1.609 6.285 1.259 3.215-.349 5.846-1.678 6.577-2.238-1.315.14-3.142.21-3.946 0a24.1 24.1 0 0 0 6.285-2.588 3.7 3.7 0 0 1-2.047-.629 20.6 20.6 0 0 0 5.847-.56 4.25 4.25 0 0 1-2.558-1.608 26.1 26.1 0 0 0 12.423.349c.585-.139.585-.909-.511-.769-2.046.14-6.066-.42-7.162-.909.873.595 1.87 1 2.923 1.189-1.827.559-4.531.909-8.477-1.189z"/><path fill="#00D860" d="M431.263 233.199c.366-.28 1.462-.699 1.827-1.189-.803.21-2.777-.21-3.288-.699.731 0 1.9-.28 3.362-.909-2.631-.07-4.385-.07-5.481-.63-1.024-.559-2.704-.28-3.435-.14-.731.07-.439 1.189 2.411.909-1.74.746-3.671.989-5.554.7.293.979.512 1.888.22 2.448 1.534.839 5.627 1.888 7.673 1.748-1.827-.629-2.777-1.329-1.315-1.538 1.461-.14 2.338-.42 3.654-.7z"/><path fill="#000" d="M426.659 237.815c3.508-.279 8.331-.349 12.131-3.497.95-.699 1.608-.419.658.35-3.364 2.499-7.441 3.962-11.693 4.197-1.973 0-2.85-.91-1.096-1.12z"/><path fill="#00D860" d="M453.259 232.22a14.5 14.5 0 0 1-4.092.559 4.6 4.6 0 0 0-2.412.14c-.585.35-.658.7.146.7l2.412.14a3.9 3.9 0 0 0-1.316 1.049c1.316-.28 3.435.21 4.093.559a2 2 0 0 1-1.462-.279c1.973 2.098 7.966 2.098 8.916 1.678-.439.35-.877.7-1.242.7 1.607.349 3.507.279 5.48-.7l-3.069-.14a3.6 3.6 0 0 1 1.462-.839c-.731-.14-3.07-.07-3.654.21.217-.502.603-.92 1.096-1.189-2.923 0-6.504 0-7.746-.7 1.973.28 4.311-.909 5.261-.909-1.607 0-3.361-.35-3.8-1.049zm-7.381 1.399c-1.461.35-3.654.979-4.312 1.259-.584.349-1.169.489.073.489l.439-.07c-.512 0-1.096 0-.073-.349.95-.28 2.192-.91 3.8-1.189zm-2.923 3.427c.511 0 2.704 0 3.654-.699.877.559 2.704 1.538 3.8 1.538 1.169 0 1.023.28 0 .42a7.9 7.9 0 0 1-3.946-1.189c-1.316.489-2.412.07-3.654-.07zm-17.247 9.582c2.365 1 4.996 1.268 7.527.769 1.316 1.049 3.874 1.119 5.262.84 1.462-.28 2.704-.42 4.312 0 1.461.559 4.677.629 5.627 1.328l-2.996.07c-.439.14-.22.35.584.7-2.9-.026-5.753.699-8.258 2.098a4.54 4.54 0 0 1 1.772-1.964 4.84 4.84 0 0 1 2.613-.694c-1.315-.419-5.627-.489-7.089.35a4.05 4.05 0 0 1-.877-1.399c-2.265 1.189-6.723-.629-8.55-2.098zm-5.846-4.057a10.5 10.5 0 0 0 5.335-1.958c.511.42 2.557.839 4.75.21-.439.28-.512.909-.366 1.189a17.2 17.2 0 0 0-5.115 1.259c-.877.419-3.654.769-4.531.279-.877-.419-.877-.839-.146-.979z"/><path fill="#00D860" d="M429.582 242.081a17.3 17.3 0 0 0-5.115 1.259l.365 1.189a33.9 33.9 0 0 1 11.181-1.119c-1.169.07-3.288 1.259-4.458 1.329 2.924-.21 5.701.35 6.431.56.731.14.95.699.366 1.259-.585.629-.804.489.365.629 1.169 0 3.654-.21 4.75-1.259-.511-.419-1.607-.21-1.973-.629a5.16 5.16 0 0 0 1.973-1.119 19.3 19.3 0 0 1-3.361-.21c-.585-.14-1.096-.35-.293-.769a4.8 4.8 0 0 0 1.462-1.05c-1.462.35-3.727.7-5.7-.699.731.14 2.411 0 2.996-.21a3.9 3.9 0 0 0-1.608-.559c1.462-.7 4.385-1.329 8.258.07a20.6 20.6 0 0 1 5.189.279c.731-.559 1.9-1.958 2.558-2.238-4.385.28-12.278-.419-12.058-2.658-1.462 1.819-4.751 2.798-6.139 2.518-.146.56.438 1.399.95 1.819-1.462.28-4.019.559-5.189.28.731.629 1.9 1.189 2.631 1.189-1.461 0-2.338.279-3.581.139"/><path fill="#00D860" d="M438.645 247.117c1.315 0 3.653-.14 4.823-1.189-.512-.42-1.608-.21-1.973-.629a5.2 5.2 0 0 0 1.973-1.119c3.215-.28 5.919-.14 7.308-.49 1.315-.35 4.75-.21 5.407-.35-2.996.49-3.58.7-3.653 1.189-.147.49.876.77 1.607.77-1.242 0-2.996 1.328-3.215 1.888-1.754-.979-2.485.14-2.777.56-.731-.28-3.216-.21-4.458.839-1.608-.49-2.704-.7-4.385-.49 1.096-.21.877-.909-.584-.979zm14.25-8.393c1.023 0 3.215.14 4.019 0a4.8 4.8 0 0 0-1.315.909c2.558-.279 5.992-.489 7.015-.279-1.315-.21-2.557.629-3.215.979-.585.349-.219.629.658.699.877.14 1.973.7.438.56-1.461-.14-4.677-.21-5.408-.14-.73.14-1.169-.21 0-.42a7.5 7.5 0 0 0 2.266-.699c-.877.21-2.558.21-3.143 0-.584-.21-.804-.35-.219-.56.658-.21.219-.28-.438-.21-.658 0-2.193.7-3.143 1.469.95-.979 1.9-1.818 2.485-2.238z"/><path fill="#000" d="M441.641 240.403a6.3 6.3 0 0 0 2.239 1.582 6.6 6.6 0 0 0 2.73.516c.439 0 1.462.629.219.699-3.142.14-4.677-.629-6.065-2.517-.292-.42.219-.98.877-.28m18.635-24.899c1.608.699 4.896 1.398 7.454 1.329.512 0 1.315.419.219.489a13.9 13.9 0 0 1-7.892-1.399c-.658-.349-.439-.699.219-.419"/><path fill="#00D860" d="M461.884 215.504c2.557 0 4.457 0 5.115.629 1.462-.349 4.166-.629 4.677-.489.585.14 1.316-.21-.073-.49-1.461-.279-4.531-.419-5.554-.21-1.023.14-4.165.28-5.115.14.365 0 .657.14.95.42m9.792.909c1.169-.559 4.604 0 5.627-.419-.731.839 2.412.909 5.116.279-1.023.56-3.289.7-4.239 1.119s-1.461.07-2.192-.209a8.37 8.37 0 0 0-4.312-.7z"/><path fill="#00D860" d="M482.418 216.273c-2.704.56-5.846.56-5.115-.279-1.023.419-4.385-.14-5.627.419 1.315-.699 2.192-.07 3.069-1.538.585.07 1.9.139 2.339-.42.73.21 2.192.49 2.557.909.366.42.95-.14.512-.699 1.242-.42.438.489 3.288-.21.658-.14 2.047-.42 2.558-.42a17.6 17.6 0 0 1-3.654 2.238z"/><path fill="#FF0" stroke="#000" stroke-width=".264" d="m429.801 204.313-.511-60.709c0-2.728-1.462-2.098-1.462 0v60.15zm20.609-63.926 2.265 63.926-.292.56h-1.462l-1.388-64.486zm19.439 54.134-1.17-51.966c0-1.679-1.461-1.399-1.461.28l1.169 51.686z"/><path fill="#fff" stroke="#000" stroke-width=".264" d="m439.01 151.018-20.024-.28c-.877 3.847 4.019 3.497 5.7 2.798 2.265 1.329 4.019 1.329 5.116 0 1.753 1.329 4.019 1.049 4.896 0 2.265 1.888 4.823 0 4.312-2.798zm1.461 9.302h-20.097c-3.654 3.287.877 4.896 4.897 2.728.584 1.119 2.85 1.609 4.531.839 1.753 1.049 4.019.28 5.115-.839 2.046.839 4.604 1.119 5.773-2.798zm-.658 12.31h-19.439c-.219 3.007 3.727 2.728 5.116 1.888 1.462 2.238 4.896 1.679 6.065.28 1.974 1.399 3.654 1.119 4.531 0 2.047 1.679 4.02-.559 3.727-2.168Zm1.243 12.03-21.997-.28c-1.169 3.497 2.265 4.127 3.654 3.287.658 1.889 3.508 1.399 4.385 0 1.096.84 2.557.28 3.069-.559.292 1.888 2.923 2.168 4.896.559 4.02 2.728 7.674-.559 5.7-3.007zm19.146-4.896h-17.977c.804 3.217 2.558 4.057 5.408 2.098 2.265 2.238 5.7 1.399 6.577.35 4.019 3.007 5.992-.56 5.992-2.798zm-1.753-12.03-17.686-.56c.293 4.337 4.604 4.057 6.87 2.448 1.461 1.889 4.311 1.399 5.7 0 1.973 2.169 5.7.84 5.116-1.888Zm2.338-13.429h-19c0 3.008 4.238 4.616 7.381 1.889.876 3.567 4.311 2.448 5.773 1.119 2.192 2.727 7.088-.56 5.7-2.798zm-1.169-9.092-17.174.35c0 2.727 4.02 3.846 5.481 1.608.877 1.399 3.654 1.119 4.531 0 1.169 1.959 2.923.56 3.435 0 2.046 1.399 4.019.56 3.727-1.888zm19.731 6.085-20.608-.28c0 1.888 2.046 2.798 3.435 1.888 0 2.239 2.923 2.798 4.896 1.119 1.096 1.889 4.823 2.169 6.285 0 2.85 2.448 6.284.56 5.7-2.797zm-.292 16.086h-20.024c0 2.798 3.143 3.567 5.116 2.238.365 2.169 2.923 2.448 4.384 1.119 1.974 1.889 4.824 2.099 6.578 0 2.192.77 4.238-1.119 3.946-3.287zm-1.169 14.548h-16.005c0 2.728 3.435 2.728 4.897 1.399 1.68 1.888 4.019 1.888 5.407.489 1.973 1.679 5.408 1.12 5.701-1.888Z"/><path fill="#000" stroke="#000" stroke-width=".264" d="M452.384 204.943c-8.551 0-17.393 0-23.386-.63-5.992-.49-7.746-1.609-11.985-4.057l-16.15-9.302c-1.389-.559-2.777.28-.804 1.399l16.004 10.072a43.3 43.3 0 0 1 9.72 8.183c3.435 3.567 5.7 3.567 7.381 3.007 1.754-.489 4.019-1.399 6.577-.769 2.338.49 5.7.769 7.454.49 1.462 1.398 5.115 1.119 7.162.559 1.973-.559 3.434-.559 4.823-.28h4.896c1.462 0 5.116-.769 7.673-.489 2.924.489 5.408 0 7.162 0a14.8 14.8 0 0 1 5.7-.28c1.754-1.119 2.266-2.518 2.924-3.847 1.68-.28 2.192-.559 2.484-1.399l1.754-4.336h.585v-1.679l-1.17-1.608.585-2.798 1.462-.49-.585-2.797-25.139.629a5.4 5.4 0 0 0-1.754 3.008l-7.454 1.049c-.804.28-1.681.28-2.558 1.399z"/><path fill="#000" stroke="#000" stroke-width=".264" d="m482.42 194.242 3.654-13.429c.584-1.399-.804-1.608-1.389 0l-3.654 13.429z"/><path fill="#fff" stroke="#000" stroke-width=".264" d="M496.961 179.205c-3.143 1.398-4.823 2.168-6.285 1.608-1.462-.559-3.143-.839-4.239-.28q.015.14 0 .28-1.55 5.217-3.142 10.421c2.192.84 6.285.84 7.089 0 1.169-1.119 3.727-.839 5.115-.839.877-1.119 1.169-2.448.877-3.007s0-1.889 0-2.798c0-.699 1.169-3.777.585-5.385Z"/><path stroke="#000" stroke-width=".264" d="M424.979 153.466c-5.543 13.815-13.256 26.74-22.874 38.328m5.701 3.287c12.681-9.79 23.68-21.425 32.593-34.481m-20.024 11.75c-.804 7.414-3.142 20.493-4.238 27.347m7.381-10.911c-2.85 2.728-6.578 7.065-9.647 9.512m36.247-24.339c-2.265 2.238-4.823 4.896-7.454 5.525m8.916-4.896a20.04 20.04 0 0 0 7.673 5.176m-9.135-16.996a24.5 24.5 0 0 1-8.55 4.686m9.72-4.476c1.68 1.609 3.654 3.497 6.284 4.686m-15.419-13.429a20.3 20.3 0 0 0 7.673-4.126m.877 0a22.1 22.1 0 0 0 7.673 4.406m-15.712-9.092c2.688-.433 5.125-1.773 6.87-3.777m.877-.56c1.973 1.679 5.7 3.847 7.746 4.127m9.135 2.168c-1.169 1.399-4.312 3.567-6.285 3.567m7.673-3.497c.877 1.329 3.143 3.497 4.604 3.497m-13.738 16.436a20.6 20.6 0 0 0 8.038-5.245m1.462.28a15.7 15.7 0 0 0 5.335 4.895m-11.693 14.268c1.169 0 4.312-1.678 5.115-3.497m1.754-.909a19.8 19.8 0 0 0 5.701 4.686m-53.421 2.448c3.654-1.119 10.889-5.455 14.616-9.582m-6.87 5.176c2.85 1.958 6.577 4.196 9.135 4.686m-17.758-12.31a23 23 0 0 0 6.869-4.126m1.462-.28c.804 1.119 6.796 4.686 9.427 4.686m-10.889-16.086a28.4 28.4 0 0 1-7.161 3.776m8.623-3.846c1.973 1.398 6.285 3.846 8.769 3.846m-10.158-14.757c-1.68 1.608-4.531 4.336-6.869 5.175m8.331-4.896c1.096 1.889 4.531 4.617 6.796 4.896m22.874 7.134c5.481 9.023 15.127 20.283 24.847 26.228m-40.194-36.369c7.966 10.911 23.386 34.761 38.221 43.503m2.923-9.302c-3.829 4.986-8.586 9.254-14.031 12.59m12.789-9.582c-4.824-7.694-7.381-17.206-11.401-30.075m-39.974 33.921 5.7 16.367m-6.869-16.646 5.408 16.366m-6.797-17.206 5.116 16.926m-5.7-16.646 3.946 16.646m0-.489h4.896m-.584-1.679h-4.531m3.946-1.399h-4.531m3.946-1.329h-4.604m3.654-1.608h-3.654m-.292-1.399h3.654m-3.946-1.119h3.654m-3.947-1.399h3.435m-3.654-1.049h3.069m-3.434-1.399h2.923m-3.216-1.049h2.924m-3.143-.839h2.85m-2.923-1.05h2.631m-7.454 0-3.435 13.639m4.312-13.639-2.923 14.199m3.8-14.758-2.339 15.037m3.435-15.387-1.681 15.947m1.973-1.119h-5.7m5.7-1.399h-6.577m6.577-1.609h-5.992m5.7-1.398h-5.408m5.7-1.399h-5.408m5.408-1.609h-4.823m4.823-1.399h-4.823m4.531-1.329h-4.239m4.239-1.398h-3.654m3.654-1.329h-3.435m3.435-.84h-3.142m2.923 15.108v-16.157m18.489-5.455-11.328 22.171m12.278-22.381-9.72 22.661m10.304-22.941-7.746 22.941m8.623-22.381-6.284 22.381m.292-.769h-7.162m7.673-2.239h-6.796m7.089-1.608h-5.7m6.869-1.679h-5.7m5.992-1.608h-5.408m5.993-1.679h-5.116m5.627-1.888h-4.53m4.823-1.399h-4.239m4.823-1.609h-4.019m4.385-1.119h-3.8m4.019-1.049h-4.019m3.727-1.119h-2.85m2.923-.839h-2.631m2.85-1.05h-2.338m2.85-1.119h-2.266m2.193-.839h-1.974m9.72-.28 4.896 15.387m-4.019-15.107 5.992 14.828 4.604-14.478m-9.719-.35 7.162 14.548 3.434-13.709m-1.754 12.31-8.038-13.429m8.038 13.709h-5.7m5.116-2.168h-5.7m4.896-1.679h-5.481m4.312-1.888h-4.897m3.727-1.679h-4.238m3.142-1.888h-3.727m2.85-1.889h-3.435m2.266-1.678h-2.85m9.135.279-5.116 14.198m8.258-13.638-2.85 12.869m-4.823-.839h4.823m-4.239-1.609h4.824m-4.312-1.958h4.604m-3.654-1.609H467m-3.727-1.958h4.019m-3.435-1.609h3.654m-2.85-1.958h3.435m-2.85-1.609h2.923m2.558.28 2.192 9.792m-1.388-10.352 3.142 10.142M472.7 184.1l3.434 10.142m-2.046-9.582 3.727 9.582m-.292-.839H472.7m4.311-1.399h-4.604m4.02-1.329h-4.312m3.654-1.679h-4.238m3.434-1.399h-3.946m3.435-1.328H470.8m3.142-1.399h-3.435"/><path fill="#00B800" d="M426.879 209.978c2.265-1.398 6.212-1.189 8.258.28 2.411-1.259 6.723-.909 8.696.839 3.07-2.098 5.627-2.378 8.55-.419a7.93 7.93 0 0 1 4.371-1.223c1.553.025 3.061.5 4.326 1.363 2.704-1.189 5.627-2.169 8.185.419a7.03 7.03 0 0 0-4.216-1.096 6.96 6.96 0 0 0-4.042 1.586c-2.558-2.448-7.089-1.539-8.624.21a5.6 5.6 0 0 0-1.923-1.301 5.8 5.8 0 0 0-2.311-.433 5.8 5.8 0 0 0-2.295.51 5.6 5.6 0 0 0-1.875 1.364c-2.704-2.099-6.65-2.239-8.769-.7a9.7 9.7 0 0 0-3.994-1.636 9.9 9.9 0 0 0-4.337.237"/><path fill="#CF6200" d="M467.438 206.901c-11.766 1.958-37.563.699-43.117-.769-1.973-.42-1.462-1.12.219-.7 6.504 1.399 20.389 1.399 27.99.979l4.53-5.945c.731-.909 1.024-.979 2.558-1.189l6.358-1.049v.839c-.146.21-.292.42-.511.49 0 1.399.292 4.966.657 6.295l.804-.21c.512-.14 1.023 1.189.512 1.259M486.802 207.46h1.608c.439 0 1.17-.349 1.389-1.049l1.607-4.406-1.242-1.749.658-3.706 1.461-.63c.147-.21 0-1.119-.292-1.399l-23.093.7c-.731 0-1.023 0-1.242.909a15.77 15.77 0 0 0 .534 8.902c1.032 2.863 2.87 5.398 5.312 7.324.366.28.877 0 .219-.489a18.3 18.3 0 0 1-3.142-3.987h3.8c.292 1.189 1.242 3.637 1.462 4.127.146.489.584.489.292-.21-.439-1.399-.731-3.148-.95-3.987h3.873l.292 3.637c0 .49.439.49.439-.07v-3.637l3.508-.14-.293 3.637c-.073.63.22.84.366 0l.511-3.637 2.412-.14c0 .84-.804 3.078-1.023 3.637-.219.7.146.7.365.07a20.6 20.6 0 0 0 1.169-3.637z"/><path fill="#000" d="M469.923 206.901c-.365-.769-1.681-3.567-1.754-5.595h5.116c.146 1.469.584 4.756.877 5.525zm4.239-5.735c.073 1.259.731 5.245.877 5.595h4.092l-.292-5.665zm-5.773-4.896a22 22 0 0 0-.147 4.196l4.897-.209-.439-4.127zm5.334-.14.293 4.197 4.823-.14-.219-4.197zm5.847-.21.146 4.197 4.165-.07c0-.909.22-3.637.146-4.267zm5.261-.14-.146 4.197 4.531-.14c.219-.909.658-3.287.658-4.196zm4.604 5.036-4.823.14-.438 5.595 4.604-.14a37 37 0 0 0 1.68-4.196c-.365-.699-.657-.909-1.023-1.399m-9.719.28.146 5.595 3.508-.14.438-5.595zm-19.731-1.119-1.901.28a137 137 0 0 1-4.604 6.154l6.797-.139-.219-6.295zm.876-.21.293 6.435 4.092-.28-.731-6.715zM440.983 184.66h-21.997v-.56l21.924.28zm17.174-16.926q.329 0 0 0l-17.174-.28q-.438 0 0 0h17.174zm-18.27 4.616c.219 0 .219.28 0 .28h-19.512c-.219 0 0-.28 0-.28zm.511-12.03c.293 0 .293.28 0 .28h-20.242c-.293 0-.293-.28 0-.28zm-1.461-9.582c.292 0 .292.28 0 .28h-19.731c-.22 0 0-.56 0-.56l20.023.28z"/><path stroke="#000" stroke-width=".264" d="M458.157 167.734q.329 0 0 0Zm0 0-17.174-.28m17.174.28v-.28h-17.174m0 0q-.438 0 0 0Zm0 17.206h-21.997v-.56l21.924.28zm-1.096-12.31c.219 0 .219.28 0 .28h-19.512c-.219 0 0-.28 0-.28zm.511-12.03c.293 0 .293.28 0 .28h-20.242c-.293 0-.293-.28 0-.28zm-1.461-9.582c.292 0 .292.28 0 .28h-19.731c-.22 0 0-.56 0-.56l20.023.28zM459.545 145.283l-17.174.279"/><path fill="#000" d="M460.421 154.585q.438 0 0 0h-18.635q-.44 0 0 0zm18.562 12.59v.279h-20.024q-.876 0 0 0h20.097zm0-16.157c.584 0 .584.28 0 .28h-20.389c-.293 0-.293-.28 0-.28h20.608zm-18.928 28.466c.293 0 .293.28 0 .28h-18.269v-.28zm17.686 2.448q.438 0 0 0"/><path stroke="#000" stroke-width=".264" d="M460.421 154.585q.438 0 0 0Zm0 0h-18.635m0 0q-.44 0 0 0Zm17.173 12.869h20.024v-.279l.073.279zm0 0q-.876 0 0 0Zm18.782 14.478q.438 0 0 0Zm0 0h-16.005m17.247-30.914c.584 0 .584.28 0 .28h-20.389c-.293 0-.293-.28 0-.28h20.608zm-18.928 28.466c.293 0 .293.28 0 .28h-18.269v-.28z"/><path fill="#EF072D" stroke="#000" stroke-width=".264" d="M492.431 184.66a7.85 7.85 0 0 0 0-3.847 3.3 3.3 0 0 1-1.754 0 9 9 0 0 0-.877-.56 16.8 16.8 0 0 1-1.096 5.246c-.877 0-2.924 0-3.727-.56l-.877 2.728c1.42.3 2.891.3 4.311 0 0 1.609-.292 3.008-1.169 4.127 1.462 0 2.923 0 3.142-.84.877-1.119.877-2.797 1.17-3.567l1.461-.279 1.389-.56 1.973-.28v-1.608l.584-1.119-4.53 1.398z"/><path fill="#000" stroke="#000" stroke-width=".264" d="M421.544 92.197c-2.265 0-7.454 0-8.55.56-.877.56-1.169.84.585 1.119 1.681.28 4.823 1.399 6.577 2.168 1.681 1.12 2.85 2.798 2.85 5.456a15.8 15.8 0 0 0 1.381 9.949c1.533 3.098 4.04 5.659 7.169 7.326.293.28.585.49.293 1.609l-.877 3.007c0 .56-.293 1.119.584.839a54 54 0 0 1-2.923 4.337c-4.531-.49-8.477 0-8.477 4.896 0 .629 0 1.119.512 0 .876-1.049 1.753-2.099 3.727-2.658-1.097 1.888-1.681 3.497-1.462 4.616 0 .839.585 1.399 1.169 0 .293-1.119 1.462-2.168 2.339-3.007.511-.28.511-.28.219.559a4.07 4.07 0 0 0 .877 3.008c.585.559.877.279.585-.56 0-1.119 0-3.007 1.461-3.497 1.681-1.119 3.362-.629 3.946.49.877 1.398 1.462 0 .585-1.119-.877-1.05-1.681-2.448-2.85-2.448l2.923-4.617c0-.559.512-.839 1.096-.559 0 .28.585.28.804-.56l2.046-3.846 1.681-.49 2.923 4.057v1.678c0 1.049-1.169 3.497-1.461 4.337-3.435 0-5.116 0-6.285 1.958-.585.769.292 1.049 1.096.769a5.9 5.9 0 0 1 2.923-.769c.512 0 .804.49 0 .769-2.046.84-3.434 2.238-3.434 4.127 0 .559.511.839.803 0a6.54 6.54 0 0 1 3.728-2.798c0 1.399.292 3.637 1.461 4.197.804.489.804 0 .585-.84-.585-1.398 0-2.797.804-3.567 1.461-1.608 4.896.56 5.773 1.119.511.49 1.096.77.511-.839-.292-1.888-3.142-2.798-5.7-3.287l3.435-11.471c1.462.84 2.923-1.398 5.115-.559a61.6 61.6 0 0 1 10.889 6.015c1.169.839 1.462.559 1.973 0 .585-.28 1.462 0 2.339 0 .511.28 1.096.559.292-1.119a20.06 20.06 0 0 0-6.869-7.064c2.265 0 5.115 0 5.115-.56 0-.559-3.434-1.678-4.823-1.678a9.6 9.6 0 0 0 4.531-2.099c.585-.629 0-.909-2.265-.909-5.993 0-9.135 0-12.278-1.608-5.115-2.798-8.331-6.015-10.888-7.134-1.097-.77-1.974-2.448-2.851-3.777-1.461-4.197-1.461-6.295-5.115-7.694-3.727-1.399-8.623.28-10.597 2.168Z"/><path fill="#fff" stroke="#000" stroke-width=".264" d="M421.837 93.316h-4.823l4.238 1.12c.877 0 .585.769 0 .489-.584-.21-1.096 0-.584.56 2.923 1.958 3.434 2.797 2.923 10.141l1.388 1.119c.585 0 .293.49 0 .21-.292-.21-1.461 0-.584.559.877.56 1.461.56.584.56s-1.68.559 0 .28c1.462 0 2.266.559 0 .839-1.68 0-1.169.559 0 .559 1.973 0 1.462.49.877.49-.584 0-.877.56.585.56h1.973c.292 0 .585 0 0 .279-.585 0-.585.56.292.56s1.462 0 .585.28c-.292 0-.877.279 0 .559 1.973 0 2.192.49 1.681.769-.585.28-.877.28 0 .28s1.754.28.877.56c-.585 0-.877.559 0 .559s1.461.56.877.84-.877.559 0 .559c.804 0 1.096.21.511.49-.511.559-.804.559-1.461 0 0-.49-.512-.49-.512 0l-.584-.77c-.293-.839-.877-.839-.877 0 0 .77-.512.28-1.097 0a9.53 9.53 0 0 0 5.323 2.928 9.8 9.8 0 0 0 6.078-.829c.292 0 .584 0 .877.909l1.68 3.007c.293.49.877 0 .877-.559l1.754-4.686c0-.77 1.096-1.399.804.839.877-.559 4.312-.839 7.162 0a35.3 35.3 0 0 1 7.746 4.127 1.749 1.749 0 0 0 1.462.279c.731 0 1.096 0-.366-1.398-1.461-1.399-.803-1.889 0-1.399.877.559 1.462.279.585-.49l-2.85-2.448c-.292 0-.292-.559-1.681-.559h-4.385c-.511 0-1.096 0 .658.559 1.681.49 4.823 2.728 5.7 3.217.877.56 1.17 1.679-.292.56a75.5 75.5 0 0 0-10.231-5.455c-7.746.839-14.031 1.678-18.635-3.008-2.266-2.448-2.266-7.693 1.461-9.792-.584-.629-.584-1.119-.292-1.119v-1.678c-.585-.28-1.169-.84-1.169-1.4-.877 0-1.462-1.328-2.85-.769-1.462.56-1.681 0-2.266-.28-.292-.559-.584-.559-1.461-.559s-1.462 0-1.462-.56q0-.734 1.754 0c1.973.84 3.654 1.4 5.116-.489 1.169-1.678-.512-3.007-2.851-3.567-2.557-.56-4.238 1.399-5.407 2.168z"/><path fill="#fff" stroke="#000" stroke-width=".264" d="M434.406 92.477a8.1 8.1 0 0 0-2.923-1.609c-.731 0-.731.56-.511.84v1.608c.584.28.877.84 0 .84-.585.559 0 2.447.877 1.888h.584s0 .84.512.84c.584 0 0 .559 0 .838h.584c.585 0 .293 1.05-.292 1.4.877 0 1.169 0 1.169.489.293.559 1.17.839 1.17 1.608 0 .84 0 .84-1.17.56s-1.169 0-1.461.559c-.219.56-.512.84 0 .84.584 0 1.169.28.292.559-.804.21-1.681 0-1.973.77 0 .839 0 1.119.585.839l1.973-1.119 1.461.28c.585.279 0 1.399-.584.839-.585-.56-1.17 0-1.462.28l-1.461.559c-.512 0-1.097 0-.731 1.399 0 3.777 3.069 6.505 8.769 6.505h9.5c-1.753-1.119-2.923-1.609-3.8-1.609h-.803c.292-.28 0-.839-.293-.839-.292 0-.877-.56-1.461 0l-2.85 1.399c-.585 0-1.462 0-.585-.56l2.631-1.119c.511 0 .219-.56.219-.56s0-.839.877-.559c1.754 1.119 4.312 2.518 5.115 2.518.877 0 1.17-.56.585-.84-.511-.279-.804-.839-.804-1.119 0-.279.293-.559 1.462 0 1.096.84 2.777 1.399 3.654 1.679s1.461.28 0-.56l-6.577-4.686c-.877-.769-.877 0-.585.56.292.559-.804.839-1.462.28-.511-.56-.803-.84 0-1.119.877-.21.658-.49-.219-1.399-1.169-.7-1.461-.7-1.169 0 .292.909.292 1.399-.585 1.189-.804-.28-1.681-.84-.804-1.119.512-.56 1.462-.84 0-1.679-1.461-.769-.584 0-.877.56-.292.559-1.169.559-1.461 0-.292-.56-.804-.77-.512-1.049.22-.28.22-.56.804 0 .585.489 1.169 0 .293-.84-.877-.839-1.097-.559-.877 0 .292.56-.512 1.119-1.681 0-.585-.28-.585-.839 0-1.119.584 0 .584-.28 0-.769-1.973-3.287-1.17-5.805-3.435-8.253z"/><path fill="#CF6200" d="M434.48 93.036c-.146.28-.22.21-.585.49s-.511 1.05.219.98c.202-.021.397-.081.573-.178.177-.096.33-.226.45-.382a6 6 0 0 0-.584-.91zm-2.193-1.818c-.657.56-.73.84-.438.84.365 0 .219 0 0 .419-.292.35.438.56.731.21.365-.28.365-.35.511 0 .073.35.731 0 .95-.21-.511-.49-1.242-.91-1.827-1.26zm-1.096 3.077c-.731.35-.511 2.238.658 1.679.365-.14.658 0 .658.21v.49a3.4 3.4 0 0 0 1.242-.84c.658-.84 0-.7-1.023-.7s-1.243-.21-.293-.769c.877-.56.22-.839-.95-.7.147.21.074.42-.292.63m4.312 4.197c-.585-.63-.219-.84.365-1.19a.73.73 0 0 0 .293-.209l-.512-1.819c-.219.14-.585.77-.731 1.05-.146.49-.292.769-.731.699-.511-.21-.95.28-1.023.77h.366c.146.07.219.419.146.699 1.388 0 1.608.77 1.827 1.399.292.699.511.629.731.209s-.22-1.049-.731-1.608"/><path fill="#FF0" d="M435.867 105.906c-.292.559-.292.489-1.096.489-.731.07-1.754.21-2.193.63-.219.21-1.607.349-1.607.909 0 .629 0 1.049.584 1.119.585 0 .731.14.512.56-.292.419-.439 1.049.585 1.189 1.023 0 1.826-.21 2.046.279.292.7 0 1.469.219 1.889.146.349.877.489 1.973.839.731.14 3.508.35 4.385.21.731-.14.438-.56-.366-.56-.877-.14-1.461-.279-1.68-.839-.22-.629-.366-.909.146-1.399.438-.559.877-.909.584-1.748-.219-.77-.73-1.749-1.68-2.029s-.658-1.608-1.681-1.678c-.366 0-.585 0-.731.14"/><path fill="#CF6200" d="M431.045 113.599c.877.14 1.534.35.877.56-.658.21-1.096.559-.22.629.877 0 1.681.42.95.56-.73.21-.73.699.074.699s1.242.28.657.7c-.657.279-1.023.489-1.461-.07-.366-.63-.585-.7-.658-.35-.146.42-.365.14-.658-.49-.219-.559-.877-.839-.731-.349.22.489-.438.629-1.096.349a8 8 0 0 0 2.12 1.679c.877-.28 1.9 0 2.192 0 .438 0 1.535.28 2.192.629.658.28 1.097-.279.804-.909-.292-.699-.292-.489-.584 0-.439.28-.439-.21-.439-.979 0-.559-.438-.49-.511-.07-.147.35-.512-.28-.366-.629.219-.35 0-.56-.292-.42-.366.14-.366 0-.439-.699-.073-.77-.365-.7-.438-.35-.073.28-.439-.14-.95-.7-.366-.419-.731-.139-1.535.07z"/><path fill="#FF0" d="M440.033 118.075c-4.019 1.539-6.942.839-9.135-.559.877-.28 1.9 0 2.266 0 .365 0 1.534.279 2.119.629.585.28 1.096-.28.804-.909.511.699.95 1.119 1.608 1.049zm-8.623-18.045c-.293-.839-.512-.979-.95-.909-.439 0-.658-.07-1.169-.28-.439-.21-1.097 0-1.17.91-.146.909-.731 1.258-1.461 1.818-.731.49-1.097.909-1.097 1.818 0 .84-.219.98-.73 1.679l-.804.909.877.49c.584.28.365.629-.146.489-.512-.139-1.097.14-.147.28.877.21 1.243.7.439.7-.95-.21-1.9.559-.219.349 1.681-.14 2.265.63.365.63-1.973 0-1.242.629-.146.629 1.827 0 1.242.49.731.49-.439 0-.658.699.584.489l.439-.699c.219-.559.365-2.168 1.096-2.658.658-.419 1.023-1.189 1.023-1.608s1.096-2.588 1.681-3.078c.731-.489 1.023-1.608.731-2.378z"/><path fill="#CF6200" d="M429.947 100.17c-.657-.49-1.388-.139-1.388.7 0 .699-.438 1.049-1.023 1.399a2.55 2.55 0 0 0-.842.666 2.4 2.4 0 0 0-.474.942c0 .7.147 1.049-.292 1.609-.511.49-.584.909-.292 1.259.438.28.438.28.511.699.22.42 1.023 0 1.023-.489 0-.49.22-.49.731-.77.585-.279 1.462-1.678 1.243-2.028-.147-.35-.731-.699 0-1.189.73-.559 1.315-.699 1.315-1.119 0-.56.146-.699.365-.909.22-.21-.438-.49-.877-.7z"/><path fill="#000" d="M429.948 99.471c-.439-.14-.731.77-.073.91.657.139.731-.63 0-.84zm-.073 1.189c-.512.07-1.096.7-.293.7.877-.14 1.17-.7.22-.7zm-1.023 1.189c-.512.21-.366.91.365.42s.877-1.049-.365-.42m-.731.98c-.512.209-.512.909.292.419.731-.419.95-1.049-.292-.419"/><path fill="#000" d="M427.097 103.318c-.511.21-.219.839.512.42.731-.42.731-1.05-.512-.42m.585.629c-.585.21-.219.84.511.42.731-.42.731-1.049-.584-.42z"/><path fill="#000" d="M426.733 104.157c-.439.28-.146.839.658.42.73-.42.657-1.049-.658-.42m.658.699c-.585.21-.293.84.511.42.731-.49.731-1.049-.584-.42z"/><path fill="#000" d="M426.44 105.276c-.438.21-.146.839.658.42.73-.42.584-1.049-.585-.42z"/><path fill="#000" d="M426.441 105.836c-.366.279-.073.979.73.489.731-.489.585-1.049-.73-.489"/><path fill="#CF6200" d="M426.148 111.851c-.511 0-.877.769-.219.909s.804.21.804.629.219 1.189.877 1.189c.731 0 1.315-.699.731-.909-.658-.21-1.17-.42-1.243-.979 0-.49-.584-.839-.95-.839"/><path fill="#FF0" d="m444.344 107.724.365.42c.512.35 1.462 0 1.242-.35-.073-.28-.584-1.399.731-.559l6.724 4.546c1.388.979.438 1.119-.147.769l-3.654-1.608c-1.096-.63-1.242-.35-1.461-.21 0 .21 0 .629.438.979-.657.07-1.68 0-2.046-.7-.365-.839-1.242-1.818-1.9-2.587q-.328-.42-.219-.63z"/><path fill="#00D860" d="M481.249 224.177c-.95.629-2.193 1.678-1.389 3.147l.292-.07a86.7 86.7 0 0 0 9.428-13.289v-.42a13.2 13.2 0 0 1-3.289 1.889c.439 1.189-1.681 2.658-2.704 3.077.439.7.292 1.819-.731 2.029.22.559-.511.559-1.461.979-.804.35-1.243.559-1.535 1.049.439-.28 1.169-.49 1.462-.35s.438.63-.22.77a5.3 5.3 0 0 0-1.315.699c.95-.21 2.339-.14 1.462.49"/><path fill="#000" stroke="#000" stroke-width=".264" d="M437.257 106.465c-1.17-.839-1.462-.279-1.17 0 .293.28 0 1.049-.803 1.399h-2.924c-.511 0-1.388 1.049 0 .7l4.604-.7c.585 0 1.17-.629 0-1.399zm1.973 1.609c-.804-.839-1.096-.56-.804 0s-.292.839-.877.839l-4.019 1.049c-1.096 0-1.096.84.292.84 1.462 0 4.312-1.399 4.604-1.399s.585-.769.804-.49c.292.28.877 0 0-.839Zm.877 2.168-2.85 1.399c-.877 0-1.462.839 0 .839s2.923-1.399 3.434-1.678l1.17-.56s1.096-.28 0-1.049c-1.17-.839-2.339 0-1.754.28.584.28 0 .769 0 .769Z"/><path fill="#000" d="M428.414 92.477c-1.827-1.189-3.8 1.19-1.827 2.518 1.754 1.19 3.654-1.399 1.9-2.518z"/><path fill="#fff" d="M426.148 93.526h.511c0 .56.512 1.399 1.316 1.19-.658.489-1.9-.14-1.827-1.19m7.015 25.878c.585.21 2.485.35 3.216.35l-.877 1.539c-.22.489-.293.559-.366-.21 0-.699-.438-1.189-.804-.42l-.73 1.399c-.22.28-.512.35-.439-.42.146-.769.073-1.608 0-2.238"/><path stroke="#000" stroke-width=".793" d="M505 140.387c0 44.552-7.454 92.672-67.963 115.613-60.364-22.941-67.745-71.061-68.037-115.613zm0 0c0-16.996-.877-33.432-.585-47.56-21.496-8-44.388-12.012-67.452-11.82-15.127 0-44.87 2.168-67.378 11.75.511 14.198-.585 30.634-.585 47.56z"/><g clip-path="url(#b)"><path fill="#fff" d="M0 0h300v150H0z"/><path fill="#012169" d="M0 0v150h300V0z"/><path fill="#000" d="m0 0 300 150Zm300 0L0 150Z"/><path stroke="#fff" stroke-width="30" d="m0 0 300 150m0-150L0 150"/><mask id="c" width="300" height="150" x="0" y="0" maskUnits="userSpaceOnUse" style="mask-type:luminance"><path fill="#fff" d="M150 75h150v75zm0 0v75H0zm0 0H0V0zm0 0V0h150z"/></mask><g mask="url(#c)"><path fill="#000" d="m0 0 300 150Zm300 0L0 150Z"/><path stroke="#C8102E" stroke-width="20" d="m0 0 300 150m0-150L0 150"/></g><path fill="#000" d="M150 0v150ZM0 75h300Z"/><path stroke="#fff" stroke-width="50" d="M150 0v150M0 75h300"/><path fill="#000" d="M150 0v150ZM0 75h300Z"/><path stroke="#C8102E" stroke-width="30" d="M150 0v150M0 75h300"/></g></g><defs><clipPath id="a"><path fill="#fff" d="M0 0h600v300H0z"/></clipPath><clipPath id="b"><path fill="#fff" d="M0 0h300v150H0z"/></clipPath></defs></svg>