<svg xmlns="http://www.w3.org/2000/svg" width="600" height="300" fill="none"><g clip-path="url(#a)"><path fill="#E70013" d="M0 0h600v300H0z"/><path fill="#fff" d="M300.441 44a106.001 106.001 0 1 0-.882 212.001 106.001 106.001 0 0 0 .882-212m63.52 153.331a79.4 79.4 0 1 1 0-94.398 63.522 63.522 0 0 0-95.781 12.602 63.53 63.53 0 0 0 0 69.195 63.53 63.53 0 0 0 63.215 28.139 63.5 63.5 0 0 0 32.566-15.538m-4.146-19.144-32.995-10.675-20.38 28.055v-34.672l-32.995-10.763 32.995-10.763v-34.671l20.38 28.055 32.995-10.675-20.38 28.054z"/></g><defs><clipPath id="a"><path fill="#fff" d="M0 0h600v300H0z"/></clipPath></defs></svg>