<svg xmlns="http://www.w3.org/2000/svg" width="600" height="300" fill="none"><g fill-rule="evenodd" clip-path="url(#a)" clip-rule="evenodd"><path fill="#E30A17" d="M0 0h600v300H0z"/><path fill="#fff" d="M356.457 149.658c0 49.503-40.829 89.658-91.229 89.658S174 199.161 174 149.583C174 100.006 214.828 60 265.228 60s91.229 40.155 91.229 89.658"/><path fill="#E30A17" d="M360.943 149.658c0 39.632-32.603 71.712-72.908 71.712s-72.982-32.155-72.982-71.787 32.677-71.636 72.982-71.636 72.983 32.079 72.983 71.711z"/><path fill="#fff" d="m374.18 107.783-.748 33.127-30.883 8.375 30.509 10.842-.748 30.435 19.816-23.779 30.061 10.468-17.349-25.499L426 126.403l-32.528 8.973-19.292-27.668z"/></g><defs><clipPath id="a"><path fill="#fff" d="M0 0h600v300H0z"/></clipPath></defs></svg>