<svg xmlns="http://www.w3.org/2000/svg" width="600" height="300" fill="none"><g clip-path="url(#a)"><path fill="#00843D" d="M0 0h600v300H0z"/><path fill="#fff" d="M229.46 37.833a45.23 45.23 0 0 1 24.164 28.095 45.21 45.21 0 0 1-4.952 36.725 45.211 45.211 0 0 1-49.676 19.92 45.2 45.2 0 0 1-16.954-8.463 45.22 45.22 0 0 0 55.929-17.787 45.22 45.22 0 0 0-8.738-58.036zm-42.873 33.329 4.848-15.756-13.408 9.771h16.589l-13.483-9.771zm0-23.18 4.848-15.755L178.027 42h16.589L181.133 32zM209.462 59.8l4.848-15.755-13.483 9.771h16.665l-13.483-9.771zm-46.206 22.952 5.227-15.756L155 76.691h16.664l-13.483-9.696zm22.952 11.665 5.151-15.68-13.407 9.696h16.588l-13.483-9.696z"/><path fill="#D22630" d="M42.063.232H123V300H42.063z"/><path fill="#383739" d="M61.672.232H59.05l-5.183 4.746-1.874-2.123h1.874l-.5-1.874h-3.06l-6.37 5.621v2.373h3.123V7.102l1.374 1.374-3.31 2.872 1.56 1.374L42 16.97v3.122l7.807-7.181-1.375-1.624 3.06-2.873-2.622-2.56 1.686-1.874 3.497 3.248zm-19.36 0v5.433l1.562-1.686v-2.31h1.873L47.496.231zm14.114 0h-1.873l.25 1.436z"/><path fill="#FFC72C" d="M61.423.232h-2.374l-4.996 4.746-2.31-2.373h2.123l-.5-1.686h-2.81l-6.183 5.933v1.873h2.373V6.352l2.124 2.124-3.31 2.872 1.436 1.374-4.746 4.747v2.373l7.12-7.12-1.437-1.374 3.31-2.872-2.81-2.561 2.373-2.123 3.247 3.31 7.12-6.87zm-19.36 0v5.183l1.373-1.623V1.419h2.124L46.996.232zm14.114 0h-1.125v.937z"/><path fill="#383739" d="M42.063 34.956v3.06l4.496 4.247-1.686 1.374 3.31 3.122-1.437 1.124V46.01h-2.81v2.373l6.37 5.933h3.123l.437-2.373H51.68l1.874-1.686 5.183 4.746-5.184 4.247-1.873-1.687h1.874l-.5-2.31h-3.06l-6.12 6.37v2.31h3.122v-2.31l1.374 1.374-3.31 2.873 1.624 1.623L42 71.74v2.873l7.807-7.12-1.375-1.623 3.06-2.873-2.622-2.56 1.686-1.687 3.497 2.873 7.807-7.12-7.807-7.057-3.497 3.31-1.686-1.686 2.623-2.56-3.123-3.123 1.437-1.312-7.495-7.119zm0 14.114v11.366l1.623-1.873V56.19h1.874l1.686-1.437-1.686-1.436h-1.874v-2.31zm12.99 4.06v3.06l1.623-1.437z"/><path fill="#FFC72C" d="M42.063 35.394v2.373l4.683 4.496-1.374 1.374 3.31 3.123-2.123 1.624V46.26h-2.373v1.874l6.12 5.933h2.81l.5-1.687h-2.373l2.623-2.373 5.433 4.747-5.433 4.746-2.373-2.373h2.123l-.5-1.437h-2.81l-6.12 5.621v1.936h2.373v-2.373l2.123 2.123-3.31 2.873 1.374 1.624-4.684 4.496v2.373l7.058-7.12-1.437-1.373 3.31-2.873-2.81-2.56 2.373-2.124 3.497 3.31 7.37-6.87-7.557-6.87-3.56 3.31-2.123-1.873 2.81-2.56-3.31-3.123 1.686-1.374zm0 14.176v10.367l1.373-1.374V56.19h2.124l1.436-1.436-1.436-1.187h-2.124v-2.373zm13.177 3.997v2.123l1.249-.936z"/><path fill="#383739" d="M42.063 91.35v3.31l4.496 4.246-1.686 1.437 3.31 2.81-1.437 1.436v-1.873h-2.81v2.311l6.37 5.62h3.123l.437-1.873H51.68l1.874-1.874 5.183 4.497-5.184 4.746-1.873-2.123h1.874l-.5-2.124h-3.06l-6.37 5.871v2.373h3.31v-1.874l1.436 1.187-3.31 3.06 1.624 1.374L42 128.196v3.06l7.807-7.119-1.375-1.624 3.06-3.123-2.622-2.31 1.686-1.874 3.497 3.06 7.807-7.119-7.807-7.057-3.497 3.31-1.686-1.874 2.623-2.373-3.123-3.123 1.437-1.374-7.495-7.057zm0 14.176v11.054l1.623-1.624v-2.373h1.874l1.686-1.436-1.686-1.624h-1.874V107.4zm12.99 3.997v3.123l1.623-1.687z"/><path fill="#FFC72C" d="M42.063 91.6v2.31l4.683 4.747-1.311 1.498 3.31 2.811-2.123 1.873v-2.31h-2.436v2.31l6.12 5.434h2.81l.5-1.624h-2.373l2.623-2.373 5.433 4.746-5.433 4.934-2.373-2.373h2.123l-.5-1.624h-2.81l-6.12 5.87v1.874h2.373v-2.311l2.123 1.874-3.31 3.06 1.374 1.436-4.684 4.684v2.373l7.058-7.057-1.437-1.436 3.31-3.123-2.81-2.31 2.373-2.374 3.497 3.747 7.37-7.057-7.557-6.557-3.56 3.247-2.123-2.123 2.81-2.311-3.31-3.122 1.686-1.374zm0 14.114v10.616l1.373-1.623v-2.373h2.124l1.436-1.187-1.436-1.374h-2.124V107.4l-1.373-1.437zm13.177 4.246v2.124l1.249-1.124z"/><path fill="#383739" d="M42.063 147.743v2.872l4.496 4.247-1.686 1.374 3.31 3.123-1.437 1.374v-1.874h-2.81v2.373l6.37 5.621h3.123l.437-2.124H51.68l1.874-1.623 5.183 4.496-5.184 4.434-1.873-1.873h1.874l-.5-2.124h-3.06l-6.37 5.933v2.373h3.31v-1.873l1.436 1.124-3.31 3.123 1.624 1.374L42 184.339v3.123l7.807-7.182-1.375-1.686 3.06-3.06-2.622-2.374 1.686-1.873 3.497 3.31 7.807-7.057-7.807-7.12-3.497 3.123-1.686-1.686 2.623-2.373-3.123-3.31 1.437-1.374-7.495-7.12zm0 14.176v11.117l1.623-1.874v-2.186h1.874l1.748-1.374-1.686-1.686H43.75v-2.061zm12.99 3.997v3.123l1.623-1.687z"/><path fill="#FFC72C" d="M42.063 147.992v2.373l4.683 4.684-1.374 1.249 3.31 2.998-2.123 1.873v-2.31h-2.373v2.123l6.12 5.621h2.81l.5-1.624h-2.373l2.623-2.373 5.433 4.746-5.433 4.996-2.373-2.435h2.123l-.5-1.624h-2.81l-6.12 5.621v2.185h2.373v-2.373l2.123 1.874-3.31 3.122 1.312 1.374L42 184.839v2.31l7.12-7.057-1.437-1.436 3.31-3.06-2.81-2.373 2.373-2.311 3.497 3.497 7.37-7.057-7.557-6.62-3.56 3.31-2.123-2.123 2.81-2.373-3.31-3.31 1.686-1.374zm0 14.177v10.616l1.373-1.686v-2.248h2.124l1.436-1.249-1.436-1.374h-2.124v-2.373l-1.373-1.374zm13.177 4.246v2.124l1.249-1.249z"/><path fill="#383739" d="M42.063 204.198v2.811l4.496 4.246-1.686 1.437 3.31 3.06-1.437 1.186v-1.873h-2.81v2.311l6.37 5.932h3.123l.437-2.123H51.68l1.874-1.873 5.183 4.683-5.184 4.497-1.873-1.874h1.874l-.5-2.123h-3.06l-6.37 5.87v2.374h3.31v-2.124l1.436 1.374-3.31 3.123 1.624 1.374L42 240.732v2.873l7.807-7.119-1.375-1.374 3.06-3.123-2.622-2.56 1.686-1.687 3.497 3.31 7.807-7.057-7.807-7.057-3.497 3.06-1.686-1.686 2.623-2.56-3.123-3.123 1.437-1.311zm0 14.114v11.117l1.623-1.874v-2.123h1.874l1.686-1.686-1.686-1.374h-1.874v-2.374zm12.99 4.06v2.81l1.623-1.436z"/><path fill="#FFC72C" d="M42.063 204.448v2.311l4.62 4.559-1.373 1.436 3.31 3.06-2.123 1.874v-2.373h-2.311v2.123l6.12 5.621h2.81l.5-1.624h-2.373l2.623-2.311 5.433 4.684-5.433 4.996-2.373-2.373h2.123l-.5-1.686h-2.81l-6.12 5.683v2.123h2.373v-2.373l2.123 1.874-3.31 3.122 1.374 1.374-4.684 4.747v2.123l7.058-7.119-1.437-1.249 3.31-3.061-2.81-2.56 2.373-2.123 3.497 3.309 7.37-6.869-7.557-6.87-3.56 3.372-2.123-1.873 2.81-2.623-3.31-3.123 1.686-1.374zm0 14.114v10.617l1.373-1.436v-2.311h2.124l1.436-1.436-1.436-1.187h-2.124v-2.373l-1.373-1.624zm13.177 3.997v2.373l1.249-1.186z"/><path fill="#383739" d="M103.202.232h2.81l4.747 4.746 2.373-2.373h-1.874l.438-1.873h3.06l6.37 5.62v2.373h-3.248V6.852l-1.436 1.436 3.31 2.81-1.624 1.437 4.746 4.247v3.06l-7.868-7.12 1.373-1.623-3.06-2.81 2.623-2.624-1.686-1.873-3.497 3.497zm19.797 0v5.433l-1.873-1.686v-2.31h-1.874L117.566.231zm-14.863 0h1.873l-.187 1.436z"/><path fill="#FFC72C" d="M103.639.232h1.873l5.496 4.746 2.311-2.373h-2.124l.5-1.686h2.81l6.183 5.933v1.873h-2.373V6.352l-1.874 2.124 3.06 2.872-1.436 1.624 4.746 4.497v2.373l-7.119-7.12 1.436-1.374-3.31-2.872 2.811-2.561-2.374-2.123-3.06 3.497-7.681-7.057zm19.36 0v5.183l-1.624-1.623V1.419h-2.124L118.002.232zm-14.614 0h1.436v.937z"/><path fill="#383739" d="M122.999 34.955v3.06l-4.684 4.247 1.624 1.374-3.31 3.122 1.436 1.125v-1.874h2.811v2.373l-6.37 5.933h-3.06l-.438-2.373h1.874l-1.874-1.686-4.996 4.746 4.747 4.247 2.123-1.686h-1.874l.438-2.311h3.122l6.308 6.12v2.373h-2.998v-2.123l-1.436 1.374 3.31 2.873-1.624 1.623 4.746 4.247v2.873l-7.806-7.12 1.374-1.623-3.06-2.873 2.622-2.56-1.686-1.687-3.497 2.873-7.931-7.12 7.806-7.057 3.497 3.31 1.687-1.686-2.623-2.56 3.122-3.123-1.436-1.374 7.806-7.057zm0 14.114v11.366l-1.873-1.873v-2.373h-1.874l-1.686-1.437 1.686-1.436h1.874v-2.31zm-13.177 4.06.187 1.623-.187 1.437-1.686-1.437z"/><path fill="#FFC72C" d="M122.999 35.392v2.373l-5.183 4.247 1.436 1.436-3.122 3.06 1.873 1.624V46.01h2.436v1.873l-6.183 5.933h-2.81l-.437-1.686h2.31l-2.56-2.31-5.434 4.683 5.434 4.747 2.373-2.374h-2.123l.437-1.436h2.81l6.183 5.683v1.874h-2.373v-2.311l-1.874 2.123 3.06 2.81-1.436 1.624 4.746 4.497v2.373l-7.182-7.057 1.437-1.436-3.31-2.81 2.81-2.624-2.311-2.123-3.31 3.31-7.556-6.87 7.494-6.87 3.56 3.373 2.123-1.874-2.81-2.623 3.31-3.122-1.624-1.374zm0 14.177v10.367l-1.623-1.374v-2.373h-2.124l-1.249-1.437 1.249-1.187h2.124v-2.373zm-13.427 3.996.25 1.25v.874l-1.436-.937z"/><path fill="#383739" d="M122.999 91.349v3.31l-4.684 4.246 1.624 1.437-3.31 2.81 1.436 1.436v-1.873h2.811v2.311l-6.37 5.62h-3.06l-.687-1.873h1.873l-1.873-1.874-4.747 4.247 4.747 4.746 2.123-2.123h-1.874l.438-2.124h3.122l6.308 5.871v2.373h-2.998v-1.874l-1.436 1.187 3.31 3.06-1.624 1.437 4.746 4.246v3.06l-7.869-7.119 1.374-1.624-3.06-3.122 2.623-2.311-1.686-1.874-3.497 3.31-7.807-7.119 7.807-7.057 3.497 3.31 1.686-1.874-2.623-2.373 3.123-3.123-1.437-1.373 7.807-7.058zm0 14.176v11.054l-1.873-1.624v-2.373h-1.874l-1.686-1.436 1.686-1.624h1.874v-2.123zm-13.177 3.997.187 1.436-.187 1.624-1.686-1.624z"/><path fill="#FFC72C" d="M122.999 91.599v2.31l-4.996 4.747 1.499 1.436-3.123 2.81 1.874 1.874v-2.311h2.436v2.311l-6.183 5.433h-2.81l-.5-1.624h2.373l-2.81-2.123-5.434 4.684 5.434 4.996 2.373-2.373h-2.123l.437-1.686h2.81l6.183 5.933v1.873h-2.373v-2.373l-1.874 1.874 3.06 3.122-1.436 1.374 4.746 4.746v2.374l-7.182-7.12 1.437-1.374-3.31-3.122 2.81-2.311-2.311-2.373-3.31 3.559-7.556-7.119 7.494-6.557 3.56 3.247 2.123-2.123-2.81-2.311 3.31-3.123-1.624-1.373zm0 14.114v10.616l-1.623-1.623v-2.373h-2.124l-1.249-1.187 1.249-1.374h2.124v-2.373l1.623-1.436zm-13.427 4.246.25 1v1.124l-1.436-1.124z"/><path fill="#383739" d="M122.999 147.743v2.872l-4.684 4.247 1.624 1.374-3.31 3.123 1.436 1.374v-1.874h2.811v2.373l-6.37 5.621h-3.06l-.438-2.123h1.874l-1.874-1.624-4.996 4.496 4.747 4.434 2.123-1.873h-1.874l.438-2.124h3.122l6.308 5.933v2.374h-2.998v-1.874l-1.436 1.124 3.31 3.123-1.624 1.374 4.746 4.246v3.123l-7.806-7.12 1.374-1.686-3.06-3.06 2.622-2.373-1.686-1.874-3.497 3.31-7.931-7.057 7.806-7.119 3.497 3.122 1.687-1.686-2.623-2.373 3.122-3.31-1.436-1.374 7.806-7.119zm0 14.176v11.117l-1.873-1.874v-2.186h-1.874l-1.686-1.374 1.686-1.686h1.874v-2.061zm-13.177 3.997.187 1.436-.187 1.624-1.686-1.624z"/><path fill="#FFC72C" d="M123 147.993v2.373l-4.997 4.684 1.499 1.249-3.122 2.997 1.873 1.874v-2.311h2.436v2.124l-6.183 5.62h-2.81l-.5-1.623h2.373l-2.56-2.374-5.433 4.747 5.433 4.996 2.311-2.436h-2.124l.5-1.624h2.81l6.183 5.621v2.186h-2.373v-2.373l-1.874 1.873 3.06 3.123-1.436 1.374 4.746 4.746v2.311l-7.119-7.057 1.436-1.437-3.31-3.06 2.81-2.373-2.373-2.311-3.247 3.498-7.557-7.057 7.494-6.62 3.56 3.31 2.123-2.124-2.81-2.373 3.31-3.31-1.686-1.374zm0 14.176v10.617l-1.624-1.686v-2.248h-2.124l-1.249-1.25 1.249-1.373h2.124v-2.374l1.624-1.374zm-13.428 4.247.25.937v1.186l-1.436-1.249z"/><path fill="#383739" d="M122.999 204.199v2.811l-4.684 4.246 1.624 1.437-3.31 3.06 1.436 1.186v-1.873h2.811v2.311l-6.37 5.932h-3.06l-.438-2.123h1.874l-1.874-1.873-4.996 4.683 4.747 4.497 2.123-1.874h-1.874l.438-2.123h3.122l6.308 5.87v2.374h-2.998v-2.124l-1.436 1.374 3.31 3.123-1.624 1.374 4.746 4.246v2.873l-7.806-7.119 1.374-1.374-3.06-3.123 2.623-2.56-1.687-1.687-3.497 3.31-7.806-7.057 7.806-7.057 3.497 3.06 1.687-1.686-2.623-2.56 3.122-3.123-1.436-1.374zm0 14.114v11.117l-1.873-1.874v-2.123h-1.874l-1.686-1.686 1.686-1.374h1.874v-2.374zm-13.177 4.06.187 1.374-.187 1.436-1.686-1.436z"/><path fill="#FFC72C" d="M122.999 204.449v2.311l-5.121 4.559 1.437 1.436-3.123 3.06 1.874 1.874v-2.373h2.435v2.123l-6.183 5.621h-2.81l-.437-1.624h2.311l-2.561-2.311-5.433 4.684 5.433 4.996 2.373-2.373h-2.185l.437-1.686h2.81l6.183 5.683v2.123h-2.373v-2.373l-1.874 1.874 3.06 3.122-1.436 1.374 4.746 4.747v2.123l-7.182-7.119 1.437-1.249-3.31-3.061 2.81-2.56-2.311-2.123-3.31 3.309-7.556-6.869 7.494-6.87 3.56 3.372 2.123-1.873-2.81-2.623 3.31-3.123-1.624-1.374zm0 14.114v10.617l-1.623-1.436v-2.311h-2.124l-1.249-1.436 1.249-1.187h2.124v-2.373l1.623-1.624zm-13.427 3.997.25 1.249v1.124l-1.436-1.186zM48.432 265.527c.437 1.686 1.874 2.873 2.373 4.746.438-1.873.937-3.559.625-5.433-.437-1.436-1.624-2.373-1.624-3.997-1.374 1.124-1.624 2.811-1.374 4.684m-.25 7.12a11.1 11.1 0 0 0 4.497 3.497c-.5-1.374 0-2.373.937-3.497.687-1.249 1.186-2.374.437-4.06a9 9 0 0 1-1.124 2.124 6.24 6.24 0 0 0-1.437 3.31c-.936-.687-1.186-1.624-1.686-2.561a8.05 8.05 0 0 0-3.247-3.31c.437 1.624.624 3.06 1.623 4.497m6.37 4.684-.5 2.373-2.56-1.874c-1.186-1.249-2.623-1.686-3.56-3.122a5.62 5.62 0 0 0 2.374 4.496l4.996 3.123c-.25-1.687.437-3.123.874-4.747a4.25 4.25 0 0 0-.937-3.747c0 1.124-.437 2.311-.687 3.248zm3.31 5.433 1.874 3.31c-1.624-.5-3.06-1.437-4.684-2.373-1.686-.937-3.56-1.374-5.246-2.811a8.117 8.117 0 0 0 5.683 5.621c2.123.499 3.747.25 6.12 1.249a16.5 16.5 0 0 0-1.623-4.746l-1.437-3.31a3.56 3.56 0 0 0-.687 3.122zm6.12 4.496c.601.958 1.413 1.77 2.374 2.373-2.373 0-4.247-1.249-6.62-1.436-1.374 0-2.81.5-4.247.25 1.874 1.186 3.56 2.373 5.62 2.373 2.624.437 5.247 0 8.307 0a10.7 10.7 0 0 1-3.06-3.56c-1.187-1.873-2.373-3.122-4.497-3.31l2.373 3.31zm8.307 3.747c-4.06.75-8.057 1.687-12.303 1.687a18.92 18.92 0 0 0 13.926.249c2.374-.749 4.497-1.436 6.37-1.249 2.81 0 6.12 1.437 9.93 5.246l1.437-1.186a22.669 22.669 0 0 0-19.36-4.747"/><path fill="#383739" d="m52.18 35.392-6.62-3.934v-9.493l6.62-4.06v-5.183l5.932-3.497h4.996l9.368-5.433h19.86l9.43 5.433h4.746l6.62 3.497v5.184l6.37 4.059v9.368l-6.37 4.059v4.996l-6.182 3.747h-4.997l-9.367 5.184h-19.86l-9.43-5.184H58.55l-6.62-3.747z"/><path fill="#00843D" d="M72.476 3.979 63.11 9.412h-4.747l-6.182 3.56v4.996l-6.37 3.997v9.368l6.37 3.81v5.245l6.182 3.498h4.684l9.43 5.183h19.86l9.43-5.183h4.747l6.12-3.498v-5.246l6.37-3.747v-9.43l-6.37-4.06v-4.933l-6.12-3.56h-4.747l-9.43-5.433zm.5 2.123h18.86l9.493 5.246h4.684l4.746 2.56v5.184l6.37 4.06v7.057l-6.62 3.997v4.996l-4.496 2.81h-4.684l-9.493 5.184h-18.86l-9.43-5.121H58.8l-4.747-2.81v-4.997l-6.37-4.06v-7.056l6.62-4.06v-5.12l4.746-2.561h4.684z"/><path fill="#FFC72C" d="M82.407 26.65V6.103h-9.43l-9.243 5.433H59.05l-4.746 2.374v5.183l-6.37 4.06v3.31h34.473v20.483h9.43l9.493-5.183h4.684l4.246-2.56v-5.247l6.62-3.997v-3.31z"/><path fill="#fff" d="M47.934 26.65v3.31l6.62 3.996v5.246l4.246 2.311h4.996l9.368 5.433h9.243V26.462h34.473v-3.31l-6.62-4.06V14.41l-4.246-2.935h-4.684L91.837 6.04H82.47V26.65z"/><path fill="#383739" d="m62.108 13.471-1.623-1.686-1.437.937 1.624 1.686-2.31 1.187h4.683l3.747 3.747 1.25-1.437-3.81-3.497v-2.373z"/><path fill="#383739" d="m69.665 12.722-1.624-1.374-1.436.936 1.623 1.374-2.373 1.25h4.746l3.748 3.746 1.249-1.436-3.56-3.56v-2.31zm-8.057 4.746-1.623-1.436-1.624 1.249 1.624 1.374-2.124 1.186h4.747l3.747 3.747 1.186-1.436-3.747-3.498v-2.373z"/><path fill="#383739" d="M82.405 6.102h-3.997l-2.124 1.873h-4.246l-2.873 1.686.75 1.687 2.56-1.437h1.249l4.184 4.746 4.497-2.623z"/><path fill="#D22630" d="m60.422 12.035 1.436 1.436-1.186.687-1.374-1.186zm3.81.5v1.873l3.56 3.497-.937 1-3.748-3.56h-3.81l4.685-3.123zm3.747-1 1.436 1.25-1.187.874-1.373-1.374zm3.81 0v2.436l3.559 3.31-.937 1.186-3.747-3.997h-3.81l4.684-2.872z"/><path fill="#D22630" d="m59.985 16.469 1.437 1.249-1.25.686-1.373-1.186zm3.56 0v2.498l3.747 3.247-.936 1-3.748-3.56h-3.747zm18.86-10.367H78.41l-2.124 2.373h-3.997l-2.872 1.249.5 1.374 2.372-1.5h1.624l3.747 4.747 4.746-2.373z"/><path fill="#383739" d="m62.108 39.888-1.623 1.436-1.437-.936 1.624-1.437-2.31-1.436h4.683l3.747-3.56 1.25 1.437-3.873 3.56v2.372z"/><path fill="#383739" d="m69.665 40.388-1.624 1.624-1.436-.937 1.623-1.437-2.373-1.374h4.746l3.748-3.56 1.249 1.187-3.56 3.498v2.373zm-8.057-4.747-1.623 1.437-1.624-1 1.624-1.373-2.124-1.437h4.747l3.747-3.56 1.186 1.25-3.747 3.497v2.373z"/><path fill="#383739" d="M82.405 47.194h-3.997l-2.124-2.123h-4.246l-2.873-1.436.75-1.874 2.56 1.436h1.249l4.184-4.746 4.747 2.873z"/><path fill="#D22630" d="m60.422 41.074 1.436-1.436-1.186-.687-1.374 1.436zm3.81-.25v-2.123l3.56-3.56-.937-.936-3.748 3.56h-3.81l4.685 3.122zm3.747.937 1.436-1.374-1.187-.75-1.373 1.437zm3.81-.25v-2.31l3.559-3.31-.937-.937-3.747 3.497h-3.81l4.684 3.123z"/><path fill="#D22630" d="m59.985 36.828 1.437-1.436-1.25-.687-1.373 1.374zm3.56-.25v-2.123l3.747-3.56-.936-.936-3.748 3.56h-3.747zm18.86 10.367H78.41l-2.124-2.123h-3.997l-2.872-1.374.5-1.249 2.372 1.249h1.624l3.997-4.746 4.496 2.623z"/><path fill="#383739" d="m59.486 20.03-1.874-.625-2.56 1.624v.437l-4.06 5.183 4.06 4.996v.438l2.31 1.873 2.124-.625-1.124-.999v-1.436l.437-.437h2.123v-7.557h-2.373l-.187-.5v-1.56z"/><path fill="#D22630" d="m55.24 21.215 2.372-1.624 1.437.437-.937.75V22.4l.437.75h2.123v7.057H58.55l-.437.687v1.686l.937.437-1.437.75-2.373-1.687v-.437l-3.997-4.996 3.997-5.184z"/><path fill="#383739" d="m102.703 13.471 1.687-1.686 1.374.937-1.374 1.686 1.873 1.187h-4.496l-3.748 3.747-1.249-1.437 3.81-3.497v-2.373z"/><path fill="#383739" d="m95.147 12.722 1.686-1.374 1.374.936-1.374 1.374 1.874 1.25h-4.56L90.4 18.653l-1.249-1.436 3.81-3.56v-2.31zm8.056 4.746 1.624-1.436 1.686 1.249-1.686 1.374 2.123 1.186h-4.684l-3.56 3.997-1.186-1.436 3.747-3.498V16.47z"/><path fill="#383739" d="M82.406 6.102h3.997l2.373 1.873h3.997l3.123 1.686-.75 1.687-2.81-1.437H91.15l-4.247 4.746-4.497-2.623z"/><path fill="#D22630" d="m104.389 12.035-1.437 1.436 1.187.687 1.436-1.186zm-3.56.5v1.873l-3.747 3.497.937 1 3.747-3.56h3.747l-4.684-3.123zm-4.247-1-1.436 1.25 1.25.874 1.373-1.374zm-3.56 0v2.436l-3.497 3.31.937 1.186 3.747-3.997h3.747l-4.684-2.872z"/><path fill="#D22630" d="m104.826 16.469-1.374 1.249 1.125.687 1.436-1.187zm-3.497 0v2.498l-3.81 3.247.937 1 3.747-3.56h3.81zM82.406 6.164h3.997l2.123 2.373h4.06l2.81 1.25-.5 1.373-2.31-1.436H91.15l-4.247 4.746-4.497-2.373z"/><path fill="#383739" d="m102.703 39.888 1.687 1.436 1.374-.936-1.374-1.437 1.873-1.436h-4.496l-3.748-3.56-1.249 1.437 3.81 3.56v2.372z"/><path fill="#383739" d="m95.147 40.388 1.686 1.624 1.374-.937-1.374-1.437 1.874-1.374h-4.56l-3.747-3.56-1.249 1.187 3.81 3.498v2.373zm8.056-4.747 1.561 1.437 1.686-1-1.686-1.373 2.124-1.437h-4.622l-3.747-3.56-1.249 1.25 3.747 3.497v2.373z"/><path fill="#383739" d="M82.406 47.194h3.997l2.373-2.123h3.997l3.123-1.436-.75-1.874-2.81 1.436H91.15l-4.247-4.746-4.497 2.873z"/><path fill="#D22630" d="m104.389 41.074-1.499-1.499 1.249-.624 1.436 1.436zm-3.56-.25v-2.123l-3.747-3.56.937-.936 3.747 3.56h3.747zm-3.997.937-1.436-1.374 1.186-.75 1.437 1.437zm-3.56-.25v-2.31l-3.747-3.123.875-.874 3.747 3.56h3.747l-4.684 3.122z"/><path fill="#D22630" d="m104.826 36.828-1.374-1.436 1.125-.687 1.436 1.374zm-3.497-.25v-2.123l-3.81-3.56.937-.936 3.747 3.56h3.81zM82.406 46.945h3.997l2.123-2.123h4.06l2.81-1.374-.5-1.249-2.31 1.249H91.15l-4.247-4.746-4.497 2.623z"/><path fill="#383739" d="m105.326 20.03 1.874-.625 2.623 1.624v.437l3.996 5.183-3.996 4.996v.438l-2.374 1.873-2.123-.625 1.187-.999v-1.436l-.5-.437h-2.123v-7.557h2.373l.25-.5v-1.56z"/><path fill="#D22630" d="M109.573 21.215 107.2 19.59l-1.437.437.937.75V22.4l-.437.75h-2.123v7.057h2.123l.437.687v1.686l-.937.437 1.437.75 2.373-1.687v-.437l3.997-4.996-3.997-5.184z"/><path fill="#383739" d="m55.989 30.896-.937-.937v-.375l-2.373-2.873 2.373-2.81v-.562l.937-.937 2.123 1.686h-1.249l1.686 1.624h3.747l3.123-2.373v-6.12h7.307l8.743-5.434v-1.374l-1.436-.749-1.624 1.249v.625l-1.25-1.624 2.436-1.874 2.56-1.686h.938l2.373 1.686h.5l2.373 1.874-1.25 1.624-.187-.625-1.686-1.249h-.437l-1.436.937v1.499l8.743 5.433h7.556v6.12l2.811 2.373h3.747l1.686-1.623h-.937l1.874-1.687.999.937v.5l2.311 2.81-2.311 2.81v.5l-.999.937-1.874-1.624h.937l-1.624-1.686h-3.747l-2.873 2.373v6.12h-7.806l-8.743 5.184v1.436l1.436.937h.25l1.624-.937v-.687l1.249 1.624-2.186 1.686h-.25l-2.56 1.874h-1l-2.373-1.874h-.5l-2.31-1.873 1.374-1.437v.687l1.686.937h.25l1.374-.937v-1.436l-8.744-5.184h-7.306V30.21l-3.06-2.374h-3.748l-1.623 1.75h1.186z"/><path fill="#FFC72C" d="m82.406 43.949 1.186.624-1.186.75zm-2.81 1.124 2.373 1.873h.437v-1.373l-1.374-1 1.436-.999v-2.748l-9.43-5.62h-6.87v-5.684l-3.497-2.872h-5.433l-1.25 1.686-1.373-1.686h-1.686l2.31 2.623v.437l.75.999 1.374-1.249h-.625v-.187l1.624-1.874h3.997l3.31 2.31v6.183h7.057l8.993 5.434v1.624l-1.436.936h-.687l-1.437-.937v-.437l-.937.937 1.874 1.624zM55.989 25.276l.937 1.186h-2.124zM82.406 8.039l-.937.687.937.687zm25.48 18.86.937.937 1.249-1.186zM85.216 8.04l-2.31-1.873h-.5v1.373l1.436 1.25-1.436.874v2.435l9.43 5.621h6.87v6.183l3.559 2.56h5.434l1.124-1.436 1.436 1.436h1.686l-2.373-2.373v-.75l-.749-.624-1.374 1.124h.687l-1.624 2.124h-4.059l-3.06-2.373v-6.37h-7.495l-8.743-5.184v-1.624l1.374-.999h.687l1.437 1v.436l.936-1.186-1.873-1.624z"/><path fill="#fff" d="m82.406 45.323-.937-.687.937-.75zM56.926 26.65l-.937 1.249-1.25-1.25zm28.29 18.423-2.31 1.873h-.5v-1.373l1.436-.937-1.436-1v-2.81l9.43-5.62h6.87v-5.684l3.559-2.872h5.434l1.124 1.686 1.436-1.686h1.686l-2.373 2.623v.437l-.749.999-1.374-1.249h.687v-.187l-1.624-1.874h-4.059l-3.06 2.31v6.183h-7.495l-8.992 5.434v1.624l1.373.936h.75l1.374-.937v-.437l.937.937-1.874 1.624zm23.607-19.797-.937 1.186h2.123zM79.596 8.039l2.373-1.873h.437v1.373l-1.437 1.25 1.437.874v2.435l-9.43 5.621h-6.87v6.183l-3.497 2.373h-5.434l-1.249-1.436-1.373 1.436h-1.624l2.31-2.373v-.687l.75-.75 1.374 1.25h-.625l1.624 2.06h3.997l3.31-2.373v-6.12h7.057l9.243-5.184v-1.623l-1.437-1h-.75l-1.435 1v.437l-.937-1.187 1.873-1.623h.5zm2.81 1.624 1.186-.687-1.186-.687z"/><path fill="#00843D" d="M82.406 26.65V12.536l-9.43 5.62h-6.62v5.683l-3.31 2.623h19.36v14.114l9.43-5.62h6.682v-5.434l3.31-2.872z"/><path fill="#D22630" d="m63.046 26.65 3.31 2.873v5.433h6.62l9.43 5.62V26.462h19.36l-3.31-2.623v-5.62h-6.62l-9.368-5.683V26.65z"/><path fill="#383739" d="m72.476 19.842-1.624-1.687-1.436 1.25 1.436 1.373-1.874 1.187h4.435l3.747 3.747 1.249-1.374-3.747-3.56v-2.435zm19.86 13.676 1.623 1.437 1.686-1-1.686-1.373 1.874-1.437h-3.997l-3.997-3.56-1.187 1.25 3.747 3.497v2.373zm-19.86 0-1.624 1.437-1.436-1 1.436-1.373-1.874-1.437h4.435l3.747-3.56 1.249 1.25-3.747 3.497v2.373zm19.86-13.739 1.623-1.624 1.686 1.25-1.686 1.373 1.874 1.187h-3.997l-3.997 3.747-1.187-1.374 3.747-3.56v-2.435z"/><path fill="#D22630" d="m93.96 34.705-1.374-1.436 1.186-.687 1.374 1.374zm-3.498-.25v-2.123l-3.747-3.56.874-.936 3.748 3.56h3.81zm-19.86-15.8 1.437 1.187-1.249.687-1.374-1.187zm3.56 0v2.373l3.747 3.31-.936.937-3.747-3.56h-3.748l4.684-2.81z"/><path fill="#00843D" d="m93.96 18.655-1.374 1.187 1.186.687 1.374-1.187zm-3.498 0v2.373l-3.747 3.31.874.937 3.748-3.56h3.81zm-19.86 16.238 1.437-1.374-1.249-.687-1.374 1.374zm3.56-.188v-2.123l3.747-3.56-.936-.936-3.747 3.56h-3.748z"/><path fill="#383739" d="m92.274 26.65-9.805 6.682-9.93-6.62 9.992-6.62z"/><path fill="#fff" d="m82.407 20.279-9.43 6.183h18.86zm0 0v12.49l9.368-6.12h-18.86l9.43 6.183z"/><path fill="#383739" d="M85.029 28.772v1.874h-4.997v-1.874h-3.497v-4.434h3.497v-1.874h4.747v1.874h3.56v4.621z"/><path fill="#D22630" d="M80.032 22.714v1.874h-3.497v1.874h5.87v-3.748zm2.374 3.748h5.932v-1.874h-3.56v-1.874h-2.372zm-5.87.187v2.123h3.496v1.686h2.374v-3.747zm5.87 3.747h2.373v-1.624h3.56V26.65h-5.933z"/><path fill="#383739" d="M99.393 101.966v-2.81h8.056v-3.123h7.807V69.866h-7.807v-3.123h-8.056v-2.81H91.4v-2.81H73.413v2.81H65.42v2.873h-8.118v3.06h-7.682v26.23h7.682v3.247h8.118v2.373h7.994v2.873H91.4v-2.873z"/><path fill="#FFC72C" d="M73.663 61.373v2.56h-7.806v2.873h-7.931v3.06h-7.87v25.98h7.87v2.81h7.993v3.123h8.057v2.81h17.486v-2.873h7.994v-2.81h8.056v-3.123h7.869V69.866h-7.994v-2.81h-8.493v-2.873h-8.056v-2.748zm2.374 2.123h12.99v2.81h7.993v2.873h8.057v3.06h8.056v21.483h-8.056v3.31H97.02v2.311h-7.993v2.873h-13.24v-2.873h-7.994v-2.31h-8.056V93.91H51.93V72.489h7.87v-3.123h8.055v-3.06h7.994z"/><path fill="#D22630" d="M68.23 99.343v-2.81h-8.244v-2.81H51.93V72.488h8.056v-3.123h8.244v-2.81h8.056v-2.81h12.74v2.56h7.994v2.873h8.056v3.06h8.056v21.234h-8.056v2.81h-8.493v3.123h-8.057v3.06h-12.74v-3.123z"/><path fill="#383739" d="m69.916 68.68-2.124-1.624v3.06l-1.873 1.186V69.43l-1.874 1.873-1.936-1.873v1.873l-2.373-1.249v2.623l-1.624 1.437v-1.624l-2.373 1.374-1.873-1.374v1.624l-2.186-1.437v8.306h-2.373v4.247h2.373v8.244l2.123-1.437v1.874l2.124-1.624 2.123 1.624v-1.874l1.624 1.437v2.81l2.373-1.374v1.874l1.873-1.874 1.874 1.874v-2.124l1.873 1.187v3.06l2.186-1.686v2.123l2.124-1.873 1.873 1.873v-2.31l1.874 1.373v3.31l2.873-2.56v2.81l3.747-2.373 3.747 2.373v-2.623l2.872 2.373v-3.06l1.874-1.436v2.123l1.873-1.873 2.374 1.873v-2.31l1.873 1.623v-3.122l1.874-1.125v1.874l1.936-1.874 1.873 1.874v-1.624l2.373 1.374v-2.748l1.624-1.436v1.873l2.373-1.623 1.874 1.686v-1.874l2.186 1.374v-7.993h2.31v-4.06h-2.31V72.99l-2.124 1.436v-1.749l-2.185 1.437-2.124-1.437v1.686l-1.624-1.436v-2.56l-2.373 1.124v-1.874l-1.873 1.874-1.874-1.874v1.874l-1.873-1.124v-3.123l-2.186 1.686v-2.123l-1.874 1.873-2.373-1.873v2.123l-1.624-1.436v-3.06l-2.81 2.373v-2.873l-3.747 2.373-3.81-2.373v2.373l-2.872-2.373v3.123L73.85 68.43v-2.124l-1.873 1.874-2.124-1.874z"/><path fill="#00843D" d="M54.053 74.55v-1.873l1.874 1.436 1.936-1.436v1.873l1.873-1.623v20.047L57.863 91.6v1.623l-1.874-1.436-1.873 1.436V91.6l-2.186 1.374V84.73h-2.31v-3.56h2.31v-8.243zm16.113-7.494 1.873 1.624 1.624-1.624v2.124l2.123-1.687v30.789l-2.123-1.436v2.123l-1.624-1.686-1.873 1.686v-2.123l-2.124 1.623V67.806l2.124 1.436zm24.543 0-1.686 1.624-1.873-1.624v2.124l-2.124-1.687v30.789l2.124-1.436v2.123l1.873-1.686 1.686 1.686v-2.123l2.124 1.623V67.806l-2.124 1.436zm16.05 7.494v-1.873l-1.873 1.436-1.874-1.436v1.873l-1.936-1.623v20.047l1.874-1.374v1.623l1.873-1.436 1.874 1.436V91.6l2.186 1.374V84.73h2.373v-3.56h-2.373v-8.243z"/><path fill="#FFC72C" d="m62.298 70.116 1.686 1.374 1.686-1.374v1.624l2.374-1.374v25.23L65.67 94.16v1.873l-1.686-1.624-1.623 1.624V94.16l-2.374 1.436v-25.23l2.374 1.374zm16.55-3.123-2.81-2.31v36.846l2.81-2.623v2.81l3.56-2.373 3.56 2.373v-3.06l2.81 2.373V64.932l-2.81 2.311v-3.31l-3.56 2.373-3.56-2.373zm23.606 3.123-1.623 1.374-1.624-1.374v1.624l-2.373-1.374v25.23l2.373-1.436v1.873l1.624-1.624 1.873 1.624V94.16l2.124 1.436v-25.23l-2.374 1.374z"/><path fill="#383739" d="m55.052 79.296.937.5c.187 0 .687 0 .937-.5.687-.687.687-2.123.687-3.06l-1.187 1.187-.437-1.187-.75 1.187-.936-1.187c0 .937 0 2.373.75 3.123zm8.494-2.123-.75-.687v-1.25l-1.374 1.5 2.31 2.31 2.874-2.31-1.437-1.437v1.187l-.687.687V74.8l1.187-.937-1.686-1.374-1.624 1.374 1.187 1.249zM71.29 74.8l-.438-.687v-1.437l-1.686 1.437 2.873 2.623 2.373-2.374-1.436-1.686v1.437l-.5.5v-2.374l1.25-.75-1.687-1.373-1.686 1.374.937.999z"/><path fill="#fff" d="m55.99 76.735.436.937.937-.937c0 1.124-.187 2.123-.624 2.31a.938.938 0 0 1-1.5 0c-.436-.187-.686-1.186-.686-2.31l.937.937zm16.237-4.497v3.06l.999-1.186v-.687l.936.937-2.373 2.373-2.373-2.373 1.25-.937v.937l.874 1.186v-3.122l-.937-.625 1.436-1.249 1.187 1.25z"/><path fill="#D22630" d="M64.232 74.799v2.873l1.187-.937v-1l.937 1-2.373 2.31-2.374-2.31 1-1v1l.936.937v-2.873l-.936-.937 1.374-.937 1.249.937z"/><path fill="#383739" d="m109.76 79.296-.937.5c-.187 0-.437 0-.624-.5-.999-.687-.999-2.123-.999-3.06l1.186 1.187.437-1.187.75 1.187.937-1.187c0 .937 0 2.373-.687 3.123zm-8.243-2.123.499-.687v-1.25l1.437 1.5-2.374 2.31-2.872-2.31 1.436-1.437v1.187l.687.687V74.8l-1.124-.937 1.624-1.374 1.623 1.374-.936 1.249zM93.523 74.8l.437-.687v-1.437l1.686 1.437-2.623 2.623-2.81-2.374 1.624-1.686v1.437l.5.5v-2.374l-.937-.75 1.623-1.373 1.686 1.374-1.249.999z"/><path fill="#fff" d="m108.823 76.735-.437.937-.937-.937c0 1.124.25 2.123.687 2.31a.938.938 0 0 0 1.436 0c.437-.187.687-1.186.687-2.31l-.687.937zm-16.238-4.497v3.06l-.936-1.186v-.687l-1 .937 2.374 2.373 2.373-2.373-1.187-.937v.937l-.937 1.186v-3.122l.937-.625-1.186-1.249-1.374 1.25z"/><path fill="#D22630" d="M100.58 74.799v2.873l-.937-.937v-1l-.937 1 2.373 2.31 2.373-2.31-1.249-1v1l-.874.937v-2.873l.937-.937-1.437-.937-1.186.937z"/><path fill="#383739" d="m85.466 75.798-.687-1.436 2.123-1.874-2.123-1.686v1.187l-.687.687v-2.311l1.873-1.249-3.56-2.81-3.559 2.373 1.873 1.686v2.123l-.624-.749v-1.187l-2.186 1.687 2.373 1.873-.936 1.187z"/><path fill="#D22630" d="m79.783 75.549.75-1.25-2.374-1.873 1.686-1.124v.687l1.124 1.187v-2.81l-1.623-1.25 3.122-2.31 2.998 2.373-1.624 1.186v3.06l1.187-1.248v-.625l1.624 1.124-2.374 1.874.937 1.249z"/><path fill="#383739" d="m80.782 69.178 1.624 1.187 1.686-1.25-1.686-1.123z"/><path fill="#00843D" d="m82.405 68.242 1.187.936-1.187.687-1.186-.686z"/><path fill="#383739" d="M55.052 86.603a1.19 1.19 0 0 1 .937-.437c.187 0 .687 0 .937.437.687.75.687 2.123.687 3.122l-1.187-.999-.437.937-.75-.937-.936.937c0-.937 0-2.31.75-3.06m8.494 2.123-.75.75v1.186l-1.374-1.436 2.31-2.373 2.874 2.373-1.437 1.436v-1.249l-.687-.624v2.31l1.187.937-1.686 1.436-1.624-1.436 1.187-1.186zM71.29 91.1l-.438.687v1.437l-1.686-1.437 2.873-2.56 2.373 2.56-1.436 1.437v-1.437l-.5-.437v2.373l1.25.687-1.687 1.437-1.686-1.437.937-.937z"/><path fill="#fff" d="m55.99 89.226.436-.937.937.937c0-1.187-.187-2.123-.624-2.373a.938.938 0 0 0-1.5 0c-.436.25-.686 1.186-.686 2.373l.937-.937zm16.237 4.496V90.6l.999 1.249v.937l.936-1-2.373-2.31-2.373 2.31 1.25 1v-1l.874-1.124v3.06l-.937.687 1.436 1.187 1.187-1.187z"/><path fill="#D22630" d="M64.232 91.1v-2.81l1.187.936v.937l.937-.937-2.373-2.373-2.374 2.373 1 .937v-.937l.936-.937v2.81l-.936.938 1.374.936 1.249-.936z"/><path fill="#383739" d="M109.76 86.603a1.19 1.19 0 0 0-.937-.437c-.187 0-.437 0-.624.437-.999.75-.999 2.123-.999 3.122l1.186-.999.437.937.75-.937.937.937c0-.937 0-2.31-.687-3.06zm-8.243 2.123.499.75v1.186l1.437-1.436-2.374-2.373-2.872 2.373 1.436 1.436v-1.249l.687-.624v2.31l-1.124.937 1.624 1.436 1.623-1.436-.936-1.186zM93.523 91.1l.437.687v1.437l1.686-1.437-2.623-2.56-2.81 2.56 1.624 1.437v-1.437l.5-.437v2.373l-.937.687 1.623 1.437 1.686-1.437-1.249-.937z"/><path fill="#fff" d="m108.823 89.226-.437-.937-.937.937c0-1.187.25-2.124.687-2.374a.94.94 0 0 1 1.114-.247.94.94 0 0 1 .322.247c.437.25.687 1.187.687 2.374l-.687-.937zm-16.238 4.496V90.6l-.936 1.249v.936l-1-.999 2.374-2.31 2.373 2.31-1.187 1v-1l-.937-1.124v3.06l.937.687-1.186 1.187-1.374-1.187z"/><path fill="#D22630" d="M100.579 91.1v-2.81l-.937.936v.937l-.937-.937 2.373-2.373 2.373 2.373-1.249.937v-.937l-.874-.937v2.81l.937.938-1.437.936-1.186-.936z"/><path fill="#383739" d="m85.466 90.412-.687 1.187 2.123 1.873-2.123 1.624v-1.187l-.687-.624v2.31l1.873 1.187-3.56 2.56-3.559-2.31 1.873-1.686v-2.061l-.624.687v1.249l-2.186-1.686 2.373-1.874-.936-1.249z"/><path fill="#D22630" d="m79.783 90.662.75.937-2.374 1.873 1.686 1.187v-.75l1.124-1.124v2.81l-1.623 1.187 3.122 2.374 2.998-2.374-1.624-1.249v-2.748l1.187 1.125v.749l1.624-1.249-2.374-1.874.937-.874z"/><path fill="#383739" d="m80.782 97.032 1.624-1.436 1.686 1.186-1.686 1.187z"/><path fill="#00843D" d="m82.405 97.657 1.187-.874-1.187-.75-1.186.75z"/><path fill="#383739" d="M110.76 81.67h-3.31v-1.187H96.583l-7.556-4.747h-13.24l-7.494 4.747H57.3v1.436h-3.31v2.373h3.31v1.624h10.867l7.556 4.746h13.24l7.494-4.746h10.929V84.48h3.31z"/><path fill="#D22630" d="m75.787 75.799-7.494 4.684H57.676v1.436h-3.372v2.123h3.31v1.374H68.23l7.557 4.747h13.24l7.494-4.747h10.742v-1.374h3.559V81.92h-3.559v-1.436H96.646l-7.557-4.747zm0 .624h12.99l7.12 4.56v.624h7.494v2.873h-7.744v.749l-6.87 4.247h-12.74l-7.057-4.247v-.75h-7.557v-2.81h7.744v-.687z"/><path fill="#D22630" d="m88.777 76.424 6.62 4.746v.5h7.806v2.373h-7.806v.937l-6.62 4.496h-12.74l-6.62-4.496v-.687h-7.744V81.92h7.806v-.937l6.558-4.56z"/><path fill="#383739" d="m72.726 85.416 2.81 2.373 1.874-1.624-.875-.75-.999.5-.624-.5 10.804-8.243h-2.123zm6.37 3.31h2.123l10.867-8.244-2.81-2.373-1.874 1.686 1.124.687.75-.5.687.5zm4.746 0h1.874l-10.867-8.244.687-.5 1 .5.936-.687-1.873-1.436-2.873 2.123zm6.12-3.31-.686.5-.75-.5-1.186.749 1.873 1.374 2.873-2.124-10.867-8.243h-2.373zm-19.36-2.311 1.874 1.186 1.874-1.249-1.874-1.374zm9.93-.25 1.874 1.436 1.873-1.249-1.873-1.374zm13.74 0-1.936 1.436-1.874-1.249 1.874-1.374z"/><path fill="#FFC72C" d="m91.836 85.416-2.56 1.873-1.687-1.124.937-.5.75.5.936-.75-10.617-7.993h1.624zm-6.62 3.122h-1.624l-10.616-8.056 2.56-1.873 1.686 1.186-.687.437-.999-.437-.937.687zm-3.997 0h-1.623l10.616-8.056-.937-.687-.749.437-.937-.437 1.686-1.249 2.374 1.936zm2.373-11.116h1.624L74.6 85.416l.937.75 1-.5.624.5-1.624 1.186-2.31-1.874z"/><path fill="#00843D" d="m72.476 81.919 1.437 1.186-1.437.937-1.623-.937zm9.993 0 1.623 1.186-1.686.937-1.624-.937zm9.867 0L90.9 83.105l1.436.937 1.624-.937z"/><path fill="#383739" d="m48.183 137.127-.687 1.186 1.374.937-1.374 1.187.687.936 1.624.25 1.436-1.186 3.997 2.373v-1.874l-2.31-1.686 2.31-1.436v-2.061l-3.997 2.373-1.436-.937zm0-7.057-.687 1.186 1.374.937-1.374 1.187.687.936 1.624.25 1.436-1.249 3.997 2.373v-1.873l-2.31-1.624 2.31-1.436v-2.124l-3.997 2.373-1.436-.936zm0 18.423-.687-.999 1.374-1.124-1.374-1 .687-1.124h1.624l1.436.937 3.997-2.373v2.123l-2.31 1.437 2.31 1.623v1.874l-3.997-2.373-1.436 1.249zm68.447-11.366.749 1.186-1.436.937 1.436 1.187-.749.936-1.624.25-1.436-1.186-3.997 2.373v-1.874l2.373-1.686-2.373-1.436v-2.061l3.997 2.373 1.436-.937zm0-7.057.749 1.186-1.436.937 1.436 1.187-.749.936-1.624.25-1.436-1.249-3.997 2.373v-1.873l2.373-1.624-2.373-1.436v-2.124l3.997 2.373 1.436-.936zm0 18.423.749-.999-1.436-1.124 1.436-1-.749-1.124h-1.624l-1.499.874-3.996-2.373v2.124l2.373 1.436-2.373 1.624v1.873l3.996-2.373 1.437 1.249zm-15.301-30.227v2.811h2.124v1.436h2.123v-2.373h-1.873v-1.874zm6.121 4.684v2.373h2.373v1.187h1.873v-2.373h-1.873v-1.187zm-43.904-4.684v2.811h-2.123v1.436h-2.124v-2.373h1.874v-1.874zm37.783 42.467v-2.81h2.124v-1.249h2.123v2.436h-1.873v1.873zm-37.783 0v-2.81h-2.123v-1.249h-2.124v2.436h1.874v1.873zm43.904-4.746v-2.748h2.373v-1.436h1.873v2.373h-1.873v1.874zM57.301 122.95v2.373h-2.31v1.187h-1.874v-2.373h1.873v-1.187zm0 33.287v-2.81h-2.31v-1.437h-1.874v2.373h1.873v1.874zm33.1-37.971-1.687-1.686-1.624 1.436 1.374 1.437-1.873 1.624h2.623l.936-.937.937.937h3.123l-1.936-1.562 1.436-1.436-1.686-1.436zm-8.057 0-1.624-1.686-1.686 1.436 1.436 1.437-1.686 1.624h2.623l.937-.937.937.937h2.623l-1.686-1.624 1.436-1.437-1.624-1.436zm-7.806 0 1.686-1.686 1.436 1.436-1.436 1.437 1.873 1.624h-2.623l-.936-.937-.937.937h-3.06l1.873-1.624-1.374-1.437 1.624-1.436 1.686 1.686zm15.612 42.467-1.436 1.874-1.624-1.624 1.374-1.186-1.873-1.874h2.623l.936.937.937-.937h3.123l-1.936 1.874 1.436 1.186-1.686 1.624zm-7.806 0-1.624 1.874-1.686-1.624 1.436-1.186-1.686-1.874h2.623l.937.937.937-.937h2.623l-1.686 1.874 1.436 1.186-1.624 1.624zm-7.806 0 1.686 1.874 1.436-1.624-1.436-1.186 1.873-1.874h-2.623l-.936.937-.937-.937h-3.06l1.873 1.874-1.374 1.186 1.624 1.624 1.686-1.624z"/><path fill="#00843D" d="M55.053 140.936v1.624l-3.747-2.373-1.5 1.249h-1.373l-.75-.999 1.437-1.187-1.436-.937.749-.936h1.374l1.436 1.186 3.747-2.373v1.436l-2.56 1.624zm0-7.119v1.686l-3.747-2.373-1.5 1.187h-1.373l-.75-.937 1.437-1.249-1.436-.875.749-.936h1.374l1.436 1.124 3.747-2.311v1.374l-2.56 1.686zm0 10.867v-1.437l-3.747 2.373-1.5-1.374h-1.373l-.75.937 1.5 1.187-1.437 1.124.75.749h1.31l1.437-.937 3.747 2.311v-1.624l-2.56-1.623zm54.77-3.748v1.624l3.747-2.373 1.686 1.249h1.124l.75-.999-1.437-1.187 1.437-.937-.75-.936h-.936l-1.624 1.186-3.747-2.373v1.436l2.56 1.624zm0-7.119v1.686l3.747-2.373 1.686 1.187h1.124l.75-.937-1.437-1.249 1.437-.875-.75-.936h-.936l-1.624 1.124-3.747-2.311v1.374l2.56 1.686zm0 10.867v-1.437l3.747 2.373 1.686-1.374h1.124l.75.937-1.437 1.187 1.437 1.124-.75.749h-.936l-1.624-.937-3.747 2.311v-1.624l2.56-1.623zm-6.183-26.418v1.874h1.874v1.874h-1.874v-1.374h-2.31v-2.374zm6.37 4.684v1.687h1.687v1.873h-1.687v-1.186h-2.123v-2.374zm-48.837-4.684v1.874H59.3v1.874h1.623v-1.374h2.374v-2.374zm42.467 42.218v-2.124h1.874v-1.873h-1.874v1.186h-2.31v2.374zm-42.03 0v-2.124h-1.873v-1.873h1.686v1.186h2.31v2.374zm48.4-4.684v-1.874h1.687v-1.873h-1.687v1.374h-2.123v2.373zm-54.77-32.85v1.874h-1.873v1.873h1.686v-1.373h2.123v-2.374zm0 33.1v-1.874h-1.873v-1.936h1.686v1.437h2.123v2.31zm33.537-39.22 1.436 1.686 1.624-1.686 1.436 1.187-1.436 1.436 1.686 1.374H91.15l-.937-.937-.937.937h-2.123l1.624-1.374-1.437-1.436zm-7.994 0 1.624 1.686 1.686-1.686 1.124 1.187-1.374 1.436 1.624 1.374h-2.123l-.937-.937-.937.937h-2.373l1.873-1.374-1.374-1.436zm-4.746 0-1.437 1.686-1.623-1.686-1.437 1.187 1.436 1.436-1.436 1.374h1.874l1.249-.937.874.937h2.186l-1.686-1.312 1.436-1.436zm12.74 45.34 1.436-1.436 1.624 1.436 1.436-1.249-1.436-1.124 1.686-1.624H91.15l-.937.937-.937-.937h-2.123l1.624 1.624-1.437 1.186zm-7.994 0 1.624-1.436 1.686 1.436 1.124-1.249-1.374-1.124 1.624-1.624h-2.123l-.937.937-.937-.937h-2.373l1.873 1.624-1.374 1.186zm-4.746 0-1.437-1.436-1.623 1.436-1.437-1.249 1.436-1.124-1.436-1.624h1.874l1.249.937.874-.937h2.186l-1.686 1.624 1.436 1.186z"/><path fill="#383739" d="M61.172 153.425v4.747h42.467v-4.747h6.183v-28.103h-6.183v-4.684H61.172v4.684h-6.12v28.103z"/><path fill="#FFC72C" d="M61.422 120.826v4.746h-6.183v27.603h5.933v4.747h42.467v-4.747h6.183v-27.853h-6.183v-4.684H61.172zm2.81 1.873h36.347v4.497l1.686.999h5.621v22.17h-5.621l-1.686 1.187v4.434H64.232v-4.622l-1.623-.936h-5.684v-22.171h5.621l1.686-.999v-4.684z"/><path fill="#D22630" d="M64.484 122.95v4.06l5.433-4.06zm30.663 0 5.184 4.06v-4.06zm-37.783 5.433v4.06l4.996-3.747zm45.09 0 5.246 4.06v-4.06zm5.246 17.987-5.246 3.747h5.246zm-50.586 0v3.747h5.246zm7.12 5.37v4.06h5.62zm36.097 0-5.434 4.06h5.434z"/><path fill="#00843D" d="m94.71 122.949 12.99 9.492v13.677l-12.99 9.368H70.167l-12.99-9.368v-13.739l12.99-9.618z"/><path fill="#383739" d="m60.236 147.493-1.436-1.624 1.436-1.624-1.436-1.686 1.436-1.624-1.436-1.686 1.436-1.624-1.436-1.686 1.436-1.624-1.436-1.436 1.436-1.874h44.341l1.436 1.874-1.436 1.436 1.436 1.624-1.436 1.686 1.436 1.624-1.436 1.686 1.436 1.624-1.436 1.686 1.436 1.624-1.436 1.624zM90.9 125.072l-1.874-1.623-1.686 1.436-1.624-1.436-1.623 1.436-1.687-1.436-1.623 1.436-1.686-1.436-1.624 1.436-1.686-1.436-1.624 1.623v28.354l1.624 1.623 1.686-1.374 1.624 1.374 1.686-1.374 1.623 1.374 1.687-1.374 1.623 1.374 1.624-1.374 1.686 1.374 1.624-1.374z"/><path fill="#FFC72C" d="m87.153 125.323-1.437-1.436-1.623 1.249v28.29l1.623 1.437 1.437-1.437zm-6.37 0-1.686-1.436-1.374 1.249v28.29l1.374 1.437 1.686-1.437z"/><path fill="#FFC72C" d="m60.424 147.494-1.374-1.624 1.436-1.436h43.904l1.374 1.436-1.374 1.624zm43.966-9.68 1.374 1.436-1.374 1.686H60.424l-1.437-1.686 1.437-1.436zm0-3.498 1.374-1.436-1.374-1.624H60.424l-1.437 1.624 1.437 1.436z"/><path fill="#D22630" d="m90.399 125.323-1.374-1.436-1.686 1.249v28.29l1.686 1.437 1.436-1.437zm-12.678 0-1.686-1.436-1.436 1.249v28.29l1.436 1.437 1.686-1.437z"/><path fill="#D22630" d="m60.422 144.245-1.374-1.686 1.436-1.436h43.904l1.374 1.436-1.374 1.686zm0-6.619-1.374-1.687 1.436-1.374h43.904l1.374 1.374-1.374 1.687z"/><path fill="#D22630" d="m84.09 153.676-1.686 1.187-1.436-1.436v-28.104l1.436-1.186 1.686 1.249z"/><path fill="#383739" d="M97.27 125.572H67.543v2.373h-3.997v22.67h3.747v2.311H97.02v-2.311h4.309v-22.67h-3.81v-2.373z"/><path fill="#D22630" d="M67.792 125.759v2.436h-3.747v22.17h3.747v2.373h2.81l-6.12-5.246v-16.487l6.12-5.183h-3.06zm26.23 0 6.12 5.496v16.487l-5.933 4.746h3.123v-2.373h3.747v-22.17h-3.747v-2.373h-3.123z"/><path fill="#00843D" d="m71.04 125.761-6.121 5.495v16.238l6.183 5.246h22.67l6.12-5.246v-16.487l-6.12-5.184zm.499.999h21.733l5.933 4.684v15.613l-5.933 4.684H71.539l-5.87-4.684v-15.363z"/><path fill="#00843D" d="m77.222 147.306.937.437.25 1.249-1.25.874 1.936 1.687h-1.873l-1.187-1.249-1.186 1.249h-1.874l1.624-1.687-1.187-.936v-1.187l1.25-.437 1.123.937zm6.37 0 .937.437.25 1.249-1.187.874 1.873 1.687h-1.873l-1.187-1.249-1.186 1.249h-1.624l1.624-1.687-1.187-.936v-1.187l1.25-.437 1.123.937zm3.997 0-.937.437-.25 1.249 1.25.874-1.687 1.687h1.624l1.249-1.249 1.124 1.249h1.873l-1.873-1.687 1.186-.936v-1.187l-1.186-.437-1.187.937zm-10.305-15.925.937-.437.25-1.187-1.25-1.187 1.937-1.623h-1.874l-1.186 1.186-1.187-1.249h-1.874l1.624 1.686-1.186 1.187v1.187l1.249.437 1.124-1.124zm6.37 0 .937-.437.25-1.187-1.187-1.187 1.874-1.623h-1.874l-1.186 1.186-1.187-1.249h-1.624l1.624 1.686-1.187 1.187v1.187l1.25.437 1.124-1.124zm3.997 0-.937-.437-.25-1.187 1.25-1.187-1.687-1.623h1.624l1.25 1.186 1.123-1.249h1.874l-1.874 1.686 1.187 1.187v1.187l-1.187.437-1.186-1.124zm11.366 1.686-.936.937.936.687v1.436l-1.686-1.186-.937.936h-1.186l-.437-.936.936-.937-.936-.937.437-.937h1.249l.874.937 1.686-1.187zm0 5.433-.936.687.936.937v1.249l-1.686-1.249-.937.937h-1.186l-.437-.937.936-.937-.936-.937.437-.687h1.249l.874.687 1.686-1.186zm0 7.057-.936-.936.936-.937v-1.187l-1.686 1.187-.937-.937h-1.186l-.437.937.936.937-.936.936.437.75h1.249l.874-.75 1.686 1.249zm-33.099-12.49 1.249.937-1.249.687v1.436l1.686-1.186.937.936h1.187l.5-.936-1-.937 1-.937-.5-.937H68.54l-.937.937-1.686-1.187zm0 5.433 1.249.687-1.249.937v1.249l1.686-1.249.937.937h1.187l.5-.937-1-.937 1-.937-.5-.687H68.54l-.937.687-1.686-1.186zm0 7.057 1.249-.936-1.249-.937v-1.187l1.686 1.187.937-.937h1.187l.5.937-1 .937 1 .936-.5.75H68.54l-.937-.75-1.686 1.249z"/><path fill="#D22630" d="m71.54 127.009-5.434 4.684 1.437 1.249.936-.999h1.437l.437 1.187-.937.936.937.937-.437.937H68.23l-.937-.687-1.624 1.186v.438l1.624 1.249.936-1 1.437.25.5.937-1 .937 1 .937-.5 1.249H68.23l-.937-1-1.624 1.437v.187l1.624 1.437.936-.937h1.437l.5 1.186-1 .937 1 .937-.5.937H68.23l-.937-.687-1.437 1.186 5.434 4.684h1.249l1.873-1.873-1.249-.937v-1.437l1.437-.437 1.249.937 1.124-.937 1.249.437.187 1.437-1.249.937 1.936 1.686 1.686-1.686-1.249-.937v-1.437l1.437-.437 1.249.937 1.124-.937 1.249.437.187 1.437-1.186.937 1.623 1.686 1.874-1.686-1.124-.937v-1.437l1.374-.437 1.249.937 1.124-.937 1.249.437.187 1.437-1.186.937 1.873 1.686h1.25l5.37-4.747-1.436-.936-.937.936-1.374-.249-.5-.937.937-.937-.937-.937.5-.936 1.374-.25.937.937 1.686-1.437v-.187l-1.686-1.437-.937.937H94.77l-.5-1.186.938-.937-.937-.937.5-.937h1.373l.937.687 1.686-1.186v-.438l-1.686-1.249-.937 1-1.374-.25-.5-.937.938-.937-.937-.936.5-.937 1.373-.25.937.937 1.437-1.187-5.434-4.684H91.9l-1.874 1.624 1.187 1.187v1.436l-1.437.437-1.186-.937-1.187.937-1.124-.437-.25-1.436 1.187-1.187-1.686-1.624-1.874 1.624 1.187 1.187v1.436l-1.437.437-1.186-.937-1.187.937-1.124-.437-.25-1.436 1.187-1.187-1.686-1.624-1.874 1.624 1.187 1.187v1.436l-1.437.437-1.186-.937-1.187.937-1.187-.437-.187-1.436 1.187-1.187-1.874-1.624zm-5.621 11.804v1.124l.624-.625z"/><path fill="#fff" d="m76.036 150.803-.937.75h1.874zm6.37 0-.937.75h1.874zm6.37 0-.937.75h1.874zm-13.74-23.606 1 .749.937-.937zm6.433 0 .937.749.937-.937zm6.37 0 .937.749.937-.937zm11.117 6.37-.75.499.75.5zm0 5.246-.75.437.75.687zm0 5.433-.75.437.75.5zm-33.1-10.867v1.187l.75-.5zm0 5.434v1.124l.75-.625zm0 5.183v1.187l.75-.5z"/><path fill="#383739" d="M87.902 137.627v-1.874h-1.936v-2.186h-7.12v2.124h-1.873v1.873h-2.56v3.56h2.56v1.874h1.873v2.185h7.182v-2.373h1.874v-1.686h2.623v-3.497z"/><path fill="#FFC72C" d="M82.406 133.88v2.061l-3.06 1.686v1.623H74.6v-1.436h2.373v-1.873h2.123v-2.374zm0 11.054v-2.374l3.123-1.623V139.5h4.684v1.437h-2.374v1.873h-2.123v2.124z"/><path fill="#fff" d="M85.466 139.25v-1.623l-3.06-1.686v-2.374h3.31v2.374h1.874v1.873h2.623v1.436zm-10.866 0h4.746v1.687l3.123 1.873v2.124h-3.373v-2.374h-1.873v-1.623H74.6z"/><path fill="#D22630" d="M79.595 139.501v1.436l2.81 1.624v-3.123z"/><path fill="#00843D" d="m82.405 136.19-2.81 1.624v1.437h2.81z"/><path fill="#D22630" d="M85.216 139.251v-1.437l-2.81-1.624v3.123z"/><path fill="#00843D" d="m82.405 142.624 2.81-1.687v-1.436h-2.81z"/><path fill="#D22630" d="M56.676 176.971v5.933h-5.433v5.246h-5.62v15.05h5.62v5.434h5.183v5.683h20.297l3.56 2.373-1.624.937h-7.12l-.686-.687h6.87l-1.874-1.874h-9.493l4.247 4.434h8.743l3.123-2.123 2.997 1.873h8.743l4.247-4.434h-9.43l-1.874 1.874h6.62l-.5.687h-7.306l-1.686-1.187 3.56-2.123h20.296v-5.621h5.433V203.2h5.621v-14.988h-5.621v-5.246h-5.183v-5.87H88.089l-3.56-2.374 1.687-.936h7.057l.687.687h-6.87l1.936 1.873h9.43l-4.247-4.434h-8.743l-3.06 1.874-3.06-1.874h-8.743l-4.247 4.684h9.43l1.874-2.123h-6.558l.438-.687h7.306l1.686 1.186-3.56 2.124z"/><path fill="#FFC72C" d="M87.903 214.067h19.985v-5.621h5.246v-5.433h5.62v-14.676h-5.62v-5.433H107.7v-5.621H87.59l-8.43-5.308h-8.493l-3.748 4.059h8.744l1.374-1.436h-6.37l.936-1.187h7.307l9.493 5.933h17.611v5.621h5.621v5.433h5.745v10.429h-5.745v5.434h-5.621v5.87H88.715l-9.43 5.621h-7.557l-.937-1.124h6.37l-1.436-1.437h-8.743l3.747 3.997h8.743zm-11.616-1.874H59.05v-5.87h-5.495v-5.433h-5.62v-10.43h5.62v-5.371h5.183v-5.433h17.3l9.43-5.87h7.556l.937 1.186h-6.37l1.436 1.437h8.743l-3.622-4.434h-8.743l-8.243 5.246H56.865v5.62H51.68v5.433h-5.62v14.677h5.62v5.433h5.496v5.621h20.297l8.243 5.183h8.494l3.747-3.997h-8.743l-1.374 1.437h6.37l-.937 1.186h-7.307z"/><path fill="#00843D" d="M104.139 204.637v5.621h-16.05l-5.62 3.56-5.746-3.498h-16.05v-5.62H55.24v-5.496h-5.87v-7.057h5.62v-5.433h5.496v-5.621h16.05l5.62-3.372 5.683 3.31h16.05v5.62h5.434v5.496h6.12v7.057h-5.621v5.433z"/><path fill="#383739" d="M62.797 202.574v5.371h8.993l-8.993-5.933zm0-13.739v-5.621h8.993l-8.993 5.87zm39.219 13.739v5.371h-8.993l8.993-5.933zm0-13.739v-5.621h-8.993l8.993 5.87z"/><path fill="#D22630" d="m63.047 202.761 8.056 5.184h-8.056zm0-14.176 8.056-5.184h-8.056zm38.72 14.176-7.994 5.184h7.994zm0-14.176-7.994-5.184h7.994z"/><path fill="#383739" d="M74.163 194.019v-2.623h-.936l-4.747-2.811-4.746 2.811h-.937v2.873h-2.31v3.309h2.31v2.811h.937l4.746 2.81 4.746-2.81h.937v-2.811h3.31v-3.747z"/><path fill="#D22630" d="m68.23 188.585 4.746 2.623h-8.993zm4.746 11.554-4.746 2.623-4.247-2.623zm-1.186-5.87v2.81h-5.433v-2.81z"/><path fill="#FFC72C" d="M73.914 197.329v2.56H68.48v-2.56zm-5.621 0v2.56h-5.496v-2.56zm8.93-3.123v2.873H72.04v-2.81zm-11.116 0v2.873h-5.433v-2.81zm7.807-2.81v2.623H68.48v-2.373zm-5.621 0v2.623h-5.496v-2.373z"/><path fill="#383739" d="M64.733 194.955v1.436h-2.436v-1.436zm2.123-2.81v1.373h-2.373v-1.373zm5.62 0v1.373h-2.31v-1.373zm-2.31 2.81v1.436h-2.373v-1.436zm5.62 0v1.436h-2.373v-1.436zm-3.31 2.81v1.437h-2.31v-1.437zm-5.62 0v1.437h-2.373v-1.437z"/><path fill="#fff" d="M64.483 195.205h-2.186v.937h2.123zm2.373-2.81h-2.373v.936h2.373zm5.433 0h-2.123v.936h2.123zm-2.373 2.81H68.23v.937h1.873zm5.62 0h-1.873v.937h1.874zm-3.247 2.81h-2.123v.937h2.123zm-5.683 0h-1.873v.937h1.873z"/><path fill="#383739" d="M90.65 194.019v-2.623h1l4.684-2.811 4.746 2.811h1.187v2.873h2.123v3.309h-2.373v2.811h-.687l-4.746 2.81-4.746-2.81H90.9v-2.811h-3.31v-3.747z"/><path fill="#D22630" d="m96.583 188.585-4.746 2.623h8.743zm-4.746 11.554 4.247 2.623 4.496-2.623zm.937-5.87v2.81h5.433v-2.81z"/><path fill="#FFC72C" d="M90.9 197.329v2.56h5.434v-2.56zm5.621 0v2.56h5.496v-2.56zm-8.93-3.123v2.873h5.433v-2.81zm11.116 0v2.873h5.433v-2.81zm-7.806-2.81v2.623h5.433v-2.373zm5.62 0v2.623h5.496v-2.373z"/><path fill="#383739" d="M100.393 194.955v1.436h2.31v-1.436zm-2.374-2.81v1.373h2.311v-1.373zm-5.683 0v1.373h2.374v-1.373zm2.374 2.81v1.436h2.31v-1.436zm-5.684 0v1.436H91.4v-1.436zm3.31 2.81v1.437h2.374v-1.437zm5.621 0v1.437h2.373v-1.437z"/><path fill="#fff" d="M100.393 195.205h2.061v.937h-2.061zm-2.186-2.81h1.874v.936h-1.874zm-5.62 0h2.123v.936h-2.124zm2.31 2.81h1.874v.937h-1.874zm-5.62 0h1.873v.937h-1.624zm3.31 2.81h2.123v.937h-2.124zm5.62 0h1.874v.937h-1.874z"/><path fill="#383739" d="M88.09 189.274v2.873h-.936l-4.747 3.06-4.683-3.122h-1.062v-2.811h-2.81v-3.06h2.81v-2.81h1l4.683-3.123 4.746 3.123h.937v2.81h2.81v2.873z"/><path fill="#FFC72C" d="m82.409 194.958 4.246-2.811h-8.493zm4.246-11.741-4.246-2.373-4.247 2.373z"/><path fill="#D22630" d="M87.903 186.215v-2.811h-5.246v2.811zm-5.495 0v-2.811h-5.434v2.811zm8.243 2.872v-2.373h-5.433v2.373zm-5.62 0v-2.373h-4.997v2.373zm-5.434 0v-2.373h-5.433v2.373zm8.244 2.811v-2.623h-5.183v2.623zm-5.433 0v-2.623h-5.434v2.623z"/><path fill="#383739" d="M80.783 184.09v1.437H78.41v-1.187zm5.62 0v1.437h-2.248v-1.187zm-8.493 2.873v1.624h-2.373v-1.874zm5.683 0v1.624H81.22v-1.874zm5.621 0v1.624h-2.31v-1.874zm-8.43 3.06v1.374H78.41v-1.311zm5.62 0v1.374h-2.249v-1.311z"/><path fill="#fff" d="M80.534 184.341H78.66v.937h1.874zm5.62 0h-1.873v.937h1.873zm-8.43 2.811H75.85v1.249h1.873zm5.62 0H81.47v1.249h1.874zm5.683 0h-1.874v1.249h1.874zm-8.493 2.872H78.66v1.187h1.874zm5.62 0h-1.873v1.187h1.873z"/><path fill="#383739" d="M88.09 205.074v3.123h-.936l-4.747 2.81-4.683-2.81h-1.062v-3.123h-2.81v-3.06h2.81v-2.81h1l4.683-3.06 4.746 3.122h.937v2.748h2.81v3.123z"/><path fill="#FFC72C" d="m82.407 210.756 4.247-2.56H78.16zm4.247-11.803-4.247-2.311-4.247 2.311z"/><path fill="#D22630" d="M87.903 202.013v-2.56h-5.246v2.56zm-5.495 0v-2.56h-5.434v2.56zm8.243 2.873v-2.623h-5.433v2.623zm-5.62 0v-2.623h-4.997v2.623zm-5.434 0v-2.623h-5.433v2.623zm8.244 3.06v-2.81h-5.183v2.81zm-5.433 0v-2.81h-5.434v2.81z"/><path fill="#383739" d="M80.783 199.89v1.686H78.41v-1.686zm5.62 0v1.686h-2.248v-1.686zm-8.493 3.31v1.436h-2.373V203.2zm5.683 0v1.436H81.22V203.2zm5.621 0v1.436h-2.31V203.2zm-8.43 2.373v1.437H78.41v-1.437zm5.62 0v1.437h-2.249v-1.437z"/><path fill="#fff" d="M80.534 200.14H78.66v1.249h1.874zm5.62 0h-1.873v1.249h1.873zm-8.43 3.123H75.85v.936h1.873zm5.62 0H81.47v.936h1.874zm5.683 0h-1.874v.936h1.874zm-8.493 2.81H78.66v.937h1.874zm5.62 0h-1.873v.937h1.873z"/><path fill="#383739" d="m51.68 239.796 21.233-11.304h18.923l21.234 11.304v18.673l-21.234 11.054h-18.86l-21.234-11.054z"/><path fill="#00843D" d="M72.913 228.742 51.93 239.796v18.423l21.046 11.304h18.86l21.046-11.304v-18.423l-20.796-10.991zm.313 1.374h18.61l19.86 10.617v16.55l-19.86 10.616H73.413l-19.797-10.616V240.67z"/><path fill="#FFC72C" d="M82.406 249.039v18.86h9.43l19.61-10.617v-8.056h-29.04v-18.86h-9.43l-19.61 10.367v8.306z"/><path fill="#fff" d="M82.406 249.039v18.86h-9.43l-19.61-10.617v-8.056h29.04v-18.86h9.43l19.61 10.367v8.306z"/><path fill="#383739" d="M84.093 266.713v-5.433l-1.686 1.249-1.624-1.249v5.433H75.1l3.747-2.811v-3.747l-5.62-3.559h-3.748v-15.114h3.498l5.62-3.559v-3.747l-3.185-2.873h5.621v5.433l1.686-.937 1.624.937v-5.183h5.683l-3.747 2.81v3.747l5.62 3.56h4.06v15.113h-4.06l-5.62 3.56v3.747l3.747 2.873z"/><path fill="#FFC72C" d="M84.28 231.553v5.62l-1.874-1.124v1.624l8.743 5.433h2.81v5.933h1.437v-7.119H91.65l-5.933-3.747v-4.247l3.31-2.373zm-14.614 17.674v7.119h3.31l5.87 3.747v4.059l-3.31 2.311h4.747v-5.62l1.873 1.124v-1.624l-8.743-5.433h-2.81v-5.621z"/><path fill="#fff" d="m75.786 231.553 3.31 2.373v4.247l-5.87 3.497h-3.56v7.119h1.187v-5.433h2.81l8.743-5.433v-1.624l-1.873 1.124v-5.87zm18.174 17.674v5.683h-2.81l-8.744 5.433v1.624l1.874-1.124v5.62h4.746l-3.31-2.311v-4.309l5.933-3.747h3.747v-7.057z"/><path fill="#D22630" d="M71.04 254.659h2.623l8.743 5.683 8.743-5.62h2.623v-11.366H91.15l-8.743-5.434-8.743 5.434H71.29z"/><path fill="#383739" d="M88.34 251.85h1.873v-.937h-1.436v-1.686h3.122v4.059h-2.872v2.81h-5.933V252.1h2.623v1.623h-.937v.75h2.373v-1.437l-10.867-6.62h-1.873v.687h1.374v1.687h-2.81v-3.997h2.81v-2.873h5.933v3.997h-2.373v-1.624h.687v-.687h-2.311v1.374zm-1-6.87v-1.374h-2.56v.687h.937v1.624h-2.623v-3.997h5.933v2.873h2.81v3.997h-3.06v-1.687h1.436v-.687H88.34l-10.617 6.371v1.436h2.31v-.75h-.874v-1.561h2.623v3.997H75.85v-2.81h-2.81v-3.997h3.06v1.624h-1.436v.936h1.873z"/><path fill="#fff" d="M87.589 252.787v1.873h-2.81v-1.186h.936v-1.124h-2.123v3.497h5.433v-2.811h2.81v-3.622h-2.31v1.249h1.124v1.374h-2.124l-11.053-7.119v-1.624h3.06v1.187h-.937v1.186h2.373v-3.56h-5.683v2.811h-2.873v3.559h2.373v-1.186H74.6v-1.187h2.123zm.749-6.62h2.31v1.249h-1.623v1.124h2.81v-3.497h-2.81v-2.811h-5.433v3.56h2.123v-1.249h-.937v-1.124h3.123v1.873l-11.179 6.87h-2.123v-1.499h1.436v-1.186h-2.373v3.559h2.623v2.811h5.433v-3.497h-2.123v1.124h.937v1.249h-3.123v-1.874z"/><path fill="#383739" d="M106.951 249.976v5.871h-2.373v-2.061h-2.561v2.123h-2.623v-5.87h2.373v2.123h2.623v-2.123zm-8.93 7.744v5.933h-2.374v-2.123h-2.623v2.123h-2.373v-5.933h2.373v2.124h2.373v-2.124zm8.93-9.368v-6.182h-2.373v2.123h-2.561v-2.123h-2.623v5.933h2.373v-2.186h2.623v2.373zm-49.087 1.624v5.871h2.373v-2.061h2.56v2.123h2.623v-5.87h-2.373v2.123h-2.56v-2.123zm0-1.873v-5.933h2.373v2.123h2.56v-2.123h2.623v5.933h-2.373v-2.186h-2.56v2.373zm40.156-7.807v-5.933h-2.373v2.124h-2.623v-2.061h-2.373v5.933h2.373v-2.186h2.373v2.373zm-31.226 17.487v5.87h2.374v-2.123h2.622v2.123h2.623v-5.933H72.04v2.124h-2.623v-2.124zm0-17.487v-5.933h2.374v2.124h2.622v-2.061h2.623v5.933H72.04v-2.186h-2.623v2.373zm32.6-3.997v4.434h8.306zM65.42 261.904v-4.683h-8.243zm0-25.917v4.684h-8.243zm33.974 25.917v-4.683h8.306z"/><path fill="#D22630" d="M104.576 253.474v2.373h2.124v-5.621h-2.124v2.124h-2.81v-2.124h-2.373v5.371h2.373v-2.123zm-8.93 7.806v2.373h2.123v-5.62h-2.123v2.061h-2.873v-2.124H90.65v5.433h2.123v-2.123zm8.93-16.737v-2.123h2.124v5.433h-2.124v-2.186h-2.81v2.373h-2.373v-5.683h2.373v2.124zm-44.34 8.931v2.373h-2.124v-5.621h2.124v2.124h2.81v-2.124h2.373v5.371h-2.373v-2.123zm0-8.931v-2.123h-2.124v5.433h2.124v-2.186h2.81v2.373h2.373v-5.683h-2.373v2.124zm35.41-7.806v-2.124h2.123v5.434h-2.123v-2.124h-2.873v2.373H90.65v-5.62h2.123v2.061zm-26.48 24.543v2.373h-2.123v-5.62h2.123v2.061h2.873v-2.124h2.373v5.433H72.04v-2.123zm0-24.543v-2.124h-2.123v5.434h2.123v-2.124h2.873v2.373h2.373v-5.62H72.04v2.061z"/><path fill="#FFC72C" d="M99.642 236.486v4.06h7.057zm-41.78 21.234 7.057 3.747v-3.747z"/><path fill="#fff" d="m65.17 236.486-7.058 4.06h7.057zm34.473 21.234v3.747l7.057-3.747z"/><path fill="#FFC72C" d="M116.381 265.527c-.438 1.686-1.874 2.873-2.124 4.746-.624-1.873-1.124-3.559-.624-5.433 0-1.436 1.374-2.373 1.624-3.997 1.124 1.124 1.373 2.811 1.124 4.684m.249 7.12a11.1 11.1 0 0 1-4.246 3.497c.25-1.374-.437-2.373-1.187-3.497-.687-1.249-1.186-2.374-.437-4.06a9 9 0 0 0 1.187 2.124c.687.936 1.373 1.873 1.373 3.31.937-.687 1.25-1.624 1.687-2.561a8.05 8.05 0 0 1 3.31-3.31c-.5 1.624-.75 3.06-1.687 4.497m-6.12 4.684.25 2.373 2.56-1.874c1.25-1.249 2.623-1.686 3.56-3.122a5.8 5.8 0 0 1-.67 2.515 5.9 5.9 0 0 1-1.703 1.981l-4.684 3.123c0-1.687-.499-3.123-1.249-4.747a4.243 4.243 0 0 1 1.249-3.747c0 1.124.188 2.311.687 3.248zm-3.56 5.433-1.873 3.31c1.624-.5 3.122-1.437 4.746-2.373s3.497-1.374 5.184-2.811c-.75 3.06-2.873 4.684-5.621 5.621-1.936.499-3.81.25-6.245 1.249.316-1.659.885-3.26 1.686-4.746l1.686-3.31c.437.936.687 1.873.437 3.122zm-6.12 4.496a7.5 7.5 0 0 1-2.373 2.373c2.373 0 4.247-1.249 6.62-1.436 1.436 0 2.81.5 4.247.25-1.624 1.186-3.56 2.373-5.621 2.373-2.623.437-5.246 0-8.119 0 1.437-.999 2.186-2.373 2.873-3.56 1.249-1.873 2.373-3.122 4.497-3.31-.937.937-1.437 2.374-2.124 3.31m-8.243 3.747c3.996.75 7.993 1.687 12.24 1.687a18.92 18.92 0 0 1-13.927.249c-2.373-.749-4.496-1.436-6.37-1.249-2.56 0-6.12 1.437-9.93 5.246l-1.373-1.186c5.433-4.747 12.49-5.933 19.36-4.747"/></g><defs><clipPath id="a"><path fill="#fff" d="M0 0h600v300H0z"/></clipPath></defs></svg>