<svg xmlns="http://www.w3.org/2000/svg" width="600" height="300" fill="none"><g clip-path="url(#a)"><path fill="#00247D" d="M0 0h600v300H0z"/><path fill="#FCD116" stroke="#000" stroke-width="5.829" d="M512 74v65.625c0 43.75-21.857 90.854-76.5 116.375-54.643-25.521-76.5-72.625-76.5-116.375V74z"/><path stroke="#fff" stroke-width="5.1" d="M512 74v65.625c0 43.75-21.857 90.854-76.5 116.375-54.643-25.521-76.5-72.625-76.5-116.375V74z"/><path fill="#FCAD56" d="M407.887 146.26c-1.967 3.428-5.391 4.157-8.014 3.063-2.696-1.094-5.173-7.51-7.942-10.938-2.623-3.427-3.351-1.968-5.1-3.937a27.4 27.4 0 0 0-8.743-5.396c-2.404-1.094-4.881-2.114-6.557-6.271a7.14 7.14 0 0 1 3.789-3.718c1.384-.511 2.477-2.48 2.623-4.23.218-1.604 1.675-3.427 3.643-4.812-.948.146-2.842-.219-3.716-.802-.802-.729-2.186-.584-2.987 0-.875.583-1.895.729-3.352.583.583-.437 1.603-1.458 1.676-2.333s1.166-1.386 3.279-1.386c2.04 0 3.351-2.333 5.027-2.333-1.166 0-.947-2.042-.292-2.187-2.914-.511-2.55-2.917-1.384-2.917-.073-.292-.437-.73-1.821-1.094-1.239-.51-.656-1.677.364-2.406-.874-1.823-.073-3.209 1.384-4.375-2.04-.073.219-2.917.729-4.448.583-1.458.801-1.677 1.457-.73.728.803 2.404 2.699 4.298 3.282q2.733.765 3.279 3.063c.364 1.677 1.093 2.479 3.06 3.208 2.113.656 4.954 2.406 4.59 6.271a6.56 6.56 0 0 1 3.789 1.385"/><path stroke="#000" stroke-linecap="round" stroke-linejoin="round" stroke-width=".219" d="M407.887 146.26c-1.967 3.428-5.391 4.157-8.014 3.063-2.696-1.094-5.173-7.51-7.942-10.938-2.623-3.427-3.351-1.968-5.1-3.937a27.4 27.4 0 0 0-8.743-5.396c-2.404-1.094-4.881-2.114-6.557-6.271a7.14 7.14 0 0 1 3.789-3.718c1.384-.511 2.477-2.48 2.623-4.23.218-1.604 1.675-3.427 3.643-4.812-.948.146-2.842-.219-3.716-.802-.802-.729-2.186-.584-2.987 0-.875.583-1.895.729-3.352.583.583-.437 1.603-1.458 1.676-2.333s1.166-1.386 3.279-1.386c2.04 0 3.351-2.333 5.027-2.333-1.166 0-.947-2.042-.292-2.187-2.914-.511-2.55-2.917-1.384-2.917-.073-.292-.437-.73-1.821-1.094-1.239-.51-.656-1.677.364-2.406-.874-1.823-.073-3.209 1.384-4.375-2.04-.073.219-2.917.729-4.448.583-1.458.801-1.677 1.457-.73.728.803 2.404 2.699 4.298 3.282q2.733.765 3.279 3.063c.364 1.677 1.093 2.479 3.06 3.208 2.113.656 4.954 2.406 4.59 6.271a6.56 6.56 0 0 1 3.789 1.385"/><path fill="#FFA1A1" stroke="#000" stroke-linecap="round" stroke-linejoin="round" stroke-width=".219" d="M412.915 96.896a5.84 5.84 0 0 0 2.259 4.667c1.384 1.093 2.55 1.968 2.258 3.354-.218 1.458.292 2.333 1.457 3.281 1.312.875 2.186 1.969 1.895 3.792-.292 1.823-.146 2.916.583 4.302.728 1.385 2.04 2.479 1.457 4.667s-.292 5.104.437 6.562c.728 1.385 0 2.479-1.239 4.885-1.311 2.407-2.04 3.282-4.663 4.23-2.695.802-2.914 2.479-2.914 5.25 0 2.916-1.894 4.375-5.464 3.864-3.643 2.99-5.902-.583-6.849-5.031s-1.02-9.333-6.411-13.198c-5.319-4.01-3.206-10.792 1.238-13.49 4.445-2.625 3.935-10.5 3.352-15.312-.437-4.812 2.768-7.583 5.246-10.208 3.278 1.24 7.358 6.27 7.358 8.385"/><path fill="#F1B2DC" stroke="#000" stroke-linecap="round" stroke-linejoin="round" stroke-width=".219" d="M405.19 127.958c-1.02-2.333-2.113-4.739.51-9.844 2.768-5.177 1.02-9.114.218-11.739-.801-2.552-1.02-4.959 0-6.052 1.093-.948 1.53-1.604 1.603-3.354.073-1.605 1.457-1.094 1.676-.292s.364 2.187-1.093 4.667c-1.457 2.552 4.08 8.75 1.53 15.385-1.748 4.667.583 10.573 1.457 14.729s1.457 13.854-4.59 15.313c4.153-1.969.292-14.948-1.311-18.813"/><path stroke="#000" stroke-linecap="round" stroke-linejoin="round" stroke-width=".219" d="M378.16 127.229c.947.219 1.457-.364 1.749-1.021.291-.656.51-.948 1.457-1.093.874 0 2.331-.219 2.696-.948.291-.73 1.384-.146 2.331-1.969.947-1.896 1.53-4.083 4.007-4.886m6.776-15.895c-.947 0-3.57.145-4.663 2.479m-7.577-13.781c2.186.656 1.311 2.114 2.404 2.916 1.967 1.604.146 3.209 1.822 3.646 1.675.438 1.53.73 1.165 2.552-.583 2.115 1.457 2.188.729 3.573m-9.472 7.219c1.312-1.167 4.445-2.115 5.173-3.354m-5.245-2.917c1.894-.146 4.444.583 4.808-.146m-5.1-1.969c.947 0 2.842-.656 3.206-1.895m-4.59-1.021c1.093 0 2.477-.073 3.861-1.094m-5.318-2.48c.801-.655 2.258.074 3.643-.801m-2.259-3.573c.656 0 2.04-.146 2.04.656"/><path fill="#9E540A" stroke="#000" stroke-linecap="round" stroke-linejoin="round" stroke-width=".2" d="M466.92 107.45s-6.375-5.377-11.657-9.023-11.657-8.112-11.657-9.024c1.001-.729 6.375 2.735 13.751 7.2 7.468 4.558 11.657 9.024 11.657 9.024zm-.456 3.646s-6.192-3.737-12.294-6.38c-6.375-2.643-15.938-2.643-16.939-3.555 0-.911 11.11-1.458 19.033 1.732 8.106 3.737 12.295 6.38 12.295 6.38zm-.091 6.198s-6.739-3.099-13.296-4.557c-6.375-1.459-15.482-.912-16.575-1.732 0-.912 11.293-2.734 19.762 0 8.561 2.643 12.204 4.466 12.204 4.466zm-.364 6.289s-5.1-3.463-11.839-4.193c-6.375-.638-14.845 4.193-15.938 3.282 0-.912 7.377-6.289 16.575-5.378 9.016.911 13.297 4.466 13.297 4.466zm2.095-19.87s-6.466-5.924-6.466-9.935c0-3.554 3.916-9.023 5.646-9.023-.911 1.823-3.916 5.469-3.916 9.023 0 3.646 6.83 8.112 6.83 8.112z"/><path fill="#9E540A" stroke="#000" stroke-linecap="round" stroke-linejoin="round" stroke-width=".2" d="M468.103 103.713s1.275-5.924 1.275-9.935c0-5.377-3.825-10.3-3.461-11.666 1.366 1.367 5.191 5.377 5.191 11.666 0 5.47-.911 8.112-.911 8.112z"/><path fill="#9E540A" stroke="#FCD116" stroke-linecap="round" stroke-linejoin="round" stroke-width="1.093" d="M469.653 101.799a6.5 6.5 0 0 0-1.731-4.466c-1.457-1.732-3.642-2.279-5.919-1.914-2.732.456-4.918 2.096-6.284 4.648-1.822 3.373-2.004 7.019-2.095 10.573 0 12.305.456 17.318.82 29.44.091 3.555.728 10.847-.911 16.589-.637 2.461-1.366 4.739-2.459 7.109.729-3.008 1.093-4.557 1.457-6.836 1.002-5.924.729-11.484.547-16.953-.364-11.211-1.002-16.953-1.366-30.534-.091-4.101.273-7.2 2.185-10.481 2.004-3.373 5.465-5.834 9.381-5.834 1.639 0 3.005.274 4.371 1.094 2.732 1.458 4.007 4.466 4.007 7.474z"/><path fill="#9E540A" d="M469.653 101.799a6.5 6.5 0 0 0-1.731-4.466c-1.457-1.732-3.642-2.279-5.919-1.914-2.732.456-4.918 2.096-6.284 4.648-1.822 3.373-2.004 7.019-2.095 10.573 0 12.305.456 17.318.82 29.44.091 3.555.728 10.847-.911 16.589-.637 2.461-1.366 4.739-2.459 7.109.729-3.008 1.093-4.557 1.457-6.836 1.002-5.924.729-11.484.547-16.953-.364-11.211-1.002-16.953-1.366-30.534-.091-4.101.273-7.2 2.185-10.481 2.004-3.373 5.465-5.834 9.381-5.834 1.639 0 3.005.274 4.371 1.094 2.732 1.458 4.007 4.466 4.007 7.474z"/><path fill="#9E540A" stroke="#000" stroke-linecap="round" stroke-linejoin="round" stroke-width=".2" d="M470.198 145.731s-2.55 4.557-4.462 7.839c-1.913 3.281-3.461 4.01-4.918 3.007-1.366-1.002-.182-3.645.91-4.921s7.195-7.201 7.195-7.201z"/><path fill="#9E540A" stroke="#000" stroke-linecap="round" stroke-linejoin="round" stroke-width=".2" d="M470.834 146.096s-1.001 5.196-1.821 8.933c-.729 3.737-2.004 5.013-3.552 4.557-1.639-.365-1.366-3.372-.728-4.922.637-1.549 4.462-9.388 4.462-9.388z"/><path fill="#9E540A" stroke="#000" stroke-linecap="round" stroke-linejoin="round" stroke-width=".2" d="M471.929 146.279v9.114c0 3.828-.911 5.378-2.641 5.287-1.639-.091-2.004-3.008-1.639-4.74.273-1.641 2.55-10.117 2.55-10.117zM476.938 107.45s6.375-5.378 11.657-9.023c5.282-3.646 11.657-8.112 11.657-9.024-1.002-.729-6.375 2.735-13.752 7.2-7.468 4.558-11.657 9.024-11.657 9.024zm.455 3.646s6.193-3.737 12.295-6.38c6.375-2.644 15.937-2.644 16.939-3.555 0-.911-11.111-1.458-19.034 1.732-8.105 3.737-12.295 6.38-12.295 6.38zm.091 6.198s6.739-3.099 13.296-4.557c6.375-1.459 15.483-.912 16.575-1.732 0-.912-11.292-2.735-19.762 0-8.561 2.643-12.204 4.466-12.204 4.466zm.364 6.289s5.1-3.464 11.84-4.193c6.375-.638 14.844 4.193 15.937 3.281 0-.911-7.377-6.289-16.575-5.377-9.016.911-13.296 4.466-13.296 4.466zm-2.094-19.87s6.466-5.924 6.466-9.935c0-3.555-3.916-9.023-5.647-9.023.911 1.823 3.916 5.469 3.916 9.023 0 3.646-6.83 8.112-6.83 8.112z"/><path fill="#9E540A" stroke="#000" stroke-linecap="round" stroke-linejoin="round" stroke-width=".2" d="M475.753 103.713s-1.275-5.924-1.275-9.935c0-5.377 3.825-10.3 3.46-11.666-1.366 1.367-5.191 5.377-5.191 11.666 0 5.469.911 8.112.911 8.112z"/><path fill="#9E540A" stroke="#FCD116" stroke-linecap="round" stroke-linejoin="round" stroke-width="1.093" d="M474.207 101.799a6.5 6.5 0 0 1 1.73-4.466c1.457-1.732 3.643-2.279 5.92-1.914 2.732.455 4.917 2.096 6.284 4.648 1.821 3.372 2.003 7.018 2.094 10.573 0 12.305-.455 17.318-.819 29.44-.092 3.555-.729 10.846.91 16.589.638 2.461 1.366 4.739 2.459 7.109-.728-3.008-1.093-4.557-1.457-6.836-1.002-5.924-.729-11.484-.546-16.953.364-11.211 1.001-16.953 1.366-30.534.091-4.101-.274-7.2-2.186-10.482-2.004-3.372-5.464-5.833-9.38-5.833-1.64 0-3.006.273-4.372 1.094-2.732 1.458-4.007 4.466-4.007 7.474z"/><path fill="#9E540A" d="M474.207 101.799a6.5 6.5 0 0 1 1.73-4.466c1.457-1.732 3.643-2.279 5.92-1.914 2.732.455 4.917 2.096 6.284 4.648 1.821 3.372 2.003 7.018 2.094 10.573 0 12.305-.455 17.318-.819 29.44-.092 3.555-.729 10.846.91 16.589.638 2.461 1.366 4.739 2.459 7.109-.728-3.008-1.093-4.557-1.457-6.836-1.002-5.924-.729-11.484-.546-16.953.364-11.211 1.001-16.953 1.366-30.534.091-4.101-.274-7.2-2.186-10.482-2.004-3.372-5.464-5.833-9.38-5.833-1.64 0-3.006.273-4.372 1.094-2.732 1.458-4.007 4.466-4.007 7.474z"/><path fill="#9E540A" stroke="#000" stroke-linecap="round" stroke-linejoin="round" stroke-width=".2" d="M473.659 145.731s2.55 4.557 4.463 7.838c1.912 3.282 3.461 4.011 4.918 3.008 1.366-1.002.182-3.646-.911-4.922s-7.195-7.2-7.195-7.2z"/><path fill="#9E540A" stroke="#000" stroke-linecap="round" stroke-linejoin="round" stroke-width=".2" d="M473.021 146.096s1.002 5.195 1.821 8.932c.729 3.737 2.004 5.013 3.552 4.558 1.64-.365 1.366-3.373.729-4.922-.638-1.55-4.463-9.388-4.463-9.388z"/><path fill="#9E540A" stroke="#000" stroke-linecap="round" stroke-linejoin="round" stroke-width=".2" d="M471.928 146.278v9.115c0 3.828.911 5.378 2.642 5.286 1.639-.091 2.003-3.007 1.639-4.739-.273-1.641-2.55-10.117-2.55-10.117zM471.929 146.187c-4.827-.091-5.282-1.823-5.282-1.823s-.638-2.187-.729-3.554c-.091-.183-1.366-2.917-1.002-4.102-.455-1.094-1.548-3.737-.546-4.193-.455-1.276-1.184-2.734-1.275-4.101-.364-1.003-1.275-3.19-.547-3.92 0 0-1.73-3.645-.91-4.557 0 0-.82-3.555 0-4.466 0 0 0-3.646.91-4.557 0 0 0-3.555.82-4.466 0 .182 2.55-5.013 8.561-5.013l-.091 7.747h.091z"/><path stroke="#000" stroke-linecap="round" stroke-linejoin="round" stroke-width=".2" d="M471.928 126.317c-7.741-.091-9.381-1.823-9.381-1.823m9.381-2.734c-7.741 0-10.291-1.823-10.291-1.823m10.291-2.643c-7.741-.091-10.291-1.823-10.291-1.823m10.291-2.734c-7.741-.091-9.381-1.823-9.381-1.823m9.29-1.732c.091 0-5.829 0-6.74-.911l-1.73-1.732m8.561 36.002c-2.277 0-4.827-.364-6.011-1.731m6.011-1.914c-4.281 0-6.831-1.732-6.831-1.732s-.091-.183-.182-.456m7.013-2.279c-5.647-.091-7.195-1.276-7.559-1.914m7.559-1.731c-7.741 0-8.561-1.823-8.561-1.823l-.273-.547"/><path fill="#9E540A" stroke="#000" stroke-linecap="round" stroke-linejoin="round" stroke-width=".2" d="M471.929 146.187c4.826-.091 5.282-1.823 5.282-1.823s.637-2.187.728-3.554c.091-.183 1.366-2.917 1.002-4.102.455-1.094 1.548-3.737.547-4.193.455-1.276 1.183-2.734 1.275-4.101.364-1.003 1.275-3.19.546-3.92 0 0 1.73-3.645.911-4.557 0 0 .819-3.555 0-4.466 0 0 0-3.646-.911-4.557 0 0 0-3.555-.82-4.466 0 .182-2.55-5.013-8.56-5.013l.091 7.747h-.091z"/><path stroke="#000" stroke-linecap="round" stroke-linejoin="round" stroke-width=".2" d="M471.928 126.317c7.741-.091 9.38-1.823 9.38-1.823m-9.38-2.734c7.741 0 10.291-1.823 10.291-1.823m-10.291-2.643c7.741-.091 10.291-1.823 10.291-1.823m-10.291-2.734c7.741-.091 9.38-1.823 9.38-1.823m-9.289-1.732c-.091 0 5.828 0 6.739-.911l1.73-1.732m-8.56 36.002c2.276 0 4.826-.364 6.01-1.731m-6.01-1.914c4.28 0 6.83-1.732 6.83-1.732s.091-.183.182-.456m-7.012-2.279c5.646-.091 7.194-1.276 7.559-1.914m-7.559-1.731c7.741 0 8.56-1.823 8.56-1.823l.274-.547"/><path fill="#009E49" d="M435.499 230.042c-3.916 3.645-11.475 1.276-13.843-.365-2.459.82-9.016-1.732-10.746-4.557-4.736.638-6.375-6.107-5.556-7.839 1.275-2.552-1.001-4.193.638-5.924 2.277-2.188-1.275-4.284.911-5.743 2.185-1.549-.547-4.101 1.639-5.742 2.277-1.732-1.184-4.101 1.184-5.286s-.273-4.284 1.73-5.469-1.184-4.193 1.548-5.56c2.641-1.367.274-3.737 2.368-4.739 2.277-1.185.182-3.646 2.277-4.467 2.368-1.002.638-3.645 2.641-4.375 1.73-.638.638-2.278 1.73-3.737h13.479"/><path stroke="#000" stroke-linecap="round" stroke-linejoin="round" stroke-width=".2" d="M435.499 230.042c-3.916 3.645-11.475 1.276-13.843-.365-2.459.82-9.016-1.732-10.746-4.557-4.736.638-6.375-6.107-5.556-7.839 1.275-2.552-1.001-4.193.638-5.924 2.277-2.188-1.275-4.284.911-5.743 2.185-1.549-.547-4.101 1.639-5.742 2.277-1.732-1.184-4.101 1.184-5.286s-.273-4.284 1.73-5.469-1.184-4.193 1.548-5.56c2.641-1.367.274-3.737 2.368-4.739 2.277-1.185.182-3.646 2.277-4.467 2.368-1.002.638-3.645 2.641-4.375 1.73-.638.638-2.278 1.73-3.737h13.479"/><path stroke="#000" stroke-linecap="round" stroke-linejoin="round" stroke-width=".2" d="M426.482 166.786c-1.821 1.823.365 3.19-1.457 5.378-1.912 2.279-.182 3.464-1.73 5.469s.728 3.008-1.002 5.286c-1.73 2.188.364 3.555-1.548 5.378-1.822 1.914.364 3.554-1.548 5.56-1.822 2.096.364 3.463-1.457 5.286-1.913 1.914.273 3.919-1.549 5.742-1.821 1.914.365 4.284-1.73 6.472-2.004 2.187.364 3.919-1.275 5.56-1.73 1.731-.182 3.463-1.366 4.648s-1.366 2.826-.911 3.555m19.125-57.696c-1.639 2.279.911 3.282-.637 5.105-1.549 1.914.637 2.552-.547 4.739-1.184 2.188.911 2.735-.637 4.922-1.548 2.188.819 3.919-.82 6.107-1.73 2.187.82 3.372-.728 5.56-1.458 2.278.728 3.463-.638 5.104-1.366 1.732 1.002 3.372-.729 5.469-1.639 2.005.729 3.554-.637 5.377-1.366 1.914.546 3.919-.638 5.469-1.183 1.458.82 3.737-.91 5.742-1.64 2.005.364 3.373-.638 4.74s-1.821 3.372-.819 3.919"/><path fill="#009E49" d="M435.499 230.042c3.916 3.645 11.475 1.276 13.843-.365 2.459.82 9.016-1.732 10.746-4.557 4.736.638 6.375-6.107 5.556-7.839-1.275-2.552 1.001-4.193-.638-5.924-2.277-2.188 1.275-4.284-.911-5.743-2.185-1.549.547-4.101-1.639-5.742-2.277-1.732 1.184-4.101-1.184-5.286s.273-4.284-1.73-5.469 1.184-4.193-1.548-5.56c-2.641-1.367-.274-3.737-2.368-4.739-2.277-1.185-.182-3.646-2.277-4.467-2.368-1.002-.637-3.645-2.641-4.375-1.73-.638-.638-2.278-1.73-3.737h-13.479"/><path stroke="#000" stroke-linecap="round" stroke-linejoin="round" stroke-width=".2" d="M435.499 230.042c3.916 3.645 11.475 1.276 13.843-.365 2.459.82 9.016-1.732 10.746-4.557 4.736.638 6.375-6.107 5.556-7.839-1.275-2.552 1.001-4.193-.638-5.924-2.277-2.188 1.275-4.284-.911-5.743-2.185-1.549.547-4.101-1.639-5.742-2.277-1.732 1.184-4.101-1.184-5.286s.273-4.284-1.73-5.469 1.184-4.193-1.548-5.56c-2.641-1.367-.274-3.737-2.368-4.739-2.277-1.185-.182-3.646-2.277-4.467-2.368-1.002-.637-3.645-2.641-4.375-1.73-.638-.638-2.278-1.73-3.737h-13.479"/><path stroke="#000" stroke-linecap="round" stroke-linejoin="round" stroke-width=".2" d="M444.516 166.786c1.821 1.823-.365 3.19 1.457 5.378 1.912 2.279.182 3.464 1.73 5.469s-.728 3.008 1.002 5.286c1.73 2.188-.364 3.555 1.548 5.378 1.822 1.914-.364 3.554 1.548 5.56 1.822 2.096-.364 3.463 1.458 5.286 1.912 1.914-.274 3.919 1.548 5.742 1.821 1.914-.365 4.284 1.73 6.472 2.004 2.187-.364 3.919 1.275 5.56 1.73 1.731.182 3.463 1.366 4.648s1.366 2.826.911 3.555m-19.125-57.696c1.639 2.279-.911 3.282.637 5.105 1.549 1.914-.637 2.552.547 4.739 1.184 2.188-.911 2.735.637 4.922 1.549 2.188-.819 3.919.82 6.107 1.73 2.187-.82 3.372.729 5.56 1.457 2.278-.729 3.463.637 5.104 1.366 1.732-1.002 3.372.729 5.469 1.639 2.005-.729 3.554.637 5.377 1.366 1.914-.546 3.919.638 5.469 1.184 1.458-.82 3.737.91 5.742 1.64 2.005-.364 3.373.638 4.74s1.821 3.372.819 3.919"/><path stroke="#009E49" stroke-linecap="round" stroke-linejoin="round" stroke-width=".2" d="M435.5 230.042v-63.803"/><path stroke="#000" stroke-linecap="round" stroke-linejoin="round" stroke-width=".2" d="M435.498 169.52c-.82 3.555 1.184 6.654 0 9.662-1.184 2.917.82 4.101.182 6.471-.728 2.37.82 4.102-.182 6.654s1.366 4.557 0 7.93c-1.366 3.281.911 4.101 0 7.474-1.002 3.828 1.73 5.833 0 8.567s1.548 3.373.182 6.472c-1.366 3.007.82 4.192-.182 7.291"/><path fill="#FCD116" stroke="#000" stroke-linecap="round" stroke-linejoin="round" stroke-width=".2" d="M436.865 181.005c-.455 1.003 1.366 3.372.364 5.195-1.093 1.732.547 4.466-.546 6.654s1.73 4.922.637 7.474c-1.184 2.552.547 5.742 0 8.112-.455 2.37 1.184 6.927 0 8.568-1.184 1.731 1.184 2.187-.182 6.38s-2.277.638-1.457-.638c1.73-2.826-1.912-3.737-.182-6.472 1.73-2.734-1.002-4.739 0-8.567.911-3.373-1.366-4.193 0-7.474 1.366-3.373-1.002-5.378 0-7.93s-.547-4.284.182-6.654c.638-2.369-1.366-3.554-.182-6.471.911-2.917 1.821.82 1.366 1.823m-7.65 2.917c-.638 1.093 1.093 3.19-.455 5.286-1.093 1.458.728 3.19-.82 5.287-1.002 1.458 1.002 3.281-.364 5.377-.911 1.185.637 3.464-.456 5.196-1.093 1.822.547 3.281-1.366 5.651-1.093 1.276.82 4.466-.364 5.468-1.184 1.003-.091 4.922-.911 5.469-.728.638 0 3.464-2.003 4.102 1.001-1.368-1.002-2.735.637-4.74 1.731-2.005-.273-4.284.911-5.742 1.184-1.55-.729-3.555.637-5.469 1.366-1.823-1.001-3.372.638-5.377 1.73-2.097-.638-3.737.728-5.469 1.367-1.641-.819-2.826.638-5.104 1.548-2.188-1.002-3.373.729-5.56 1.639-2.188-.729-3.92.819-6.107s-.546-2.734.638-4.922c2.185.82 1.093 5.56.364 6.654m-4.554-5.925c-.91 1.459.365 3.19-1.001 5.013-1.366 1.914 0 4.284-1.366 5.834-1.367 1.458.364 4.375-1.367 5.559s-.637 4.74-2.003 5.925 0 4.557-1.548 6.289-.82 5.286-1.731 6.107c-.819.82 1.184 2.552-.273 3.737-1.548 1.185-1.548 3.554-3.552 5.104 1.184-1.185-.364-2.917 1.366-4.649 1.64-1.64-.728-3.372 1.275-5.559 2.095-2.188-.091-4.558 1.731-6.472 1.821-1.823-.365-3.828 1.548-5.742 1.821-1.823-.364-3.19 1.457-5.286 1.913-2.006-.273-3.646 1.548-5.56 1.913-1.823-.182-3.19 1.549-5.378 1.73-2.279-.547-3.281 1.001-5.286.729-.912.729-1.732.729-2.461 1.093-2.826 1.093 2.096.637 2.825"/><path fill="#CE1126" stroke="#000" stroke-linecap="round" stroke-linejoin="round" stroke-width=".2" d="M422.84 168.336c0-19.141 2.641-25.794 12.659-25.794s12.659 6.653 12.659 25.794z"/><path fill="#000001" stroke="#000" stroke-linecap="round" stroke-linejoin="round" stroke-width=".2" d="M422.84 168.336c0-19.141 2.641-25.794 12.659-25.794-4.554 0-7.377 3.554-8.106 5.924-.819 2.37-.364 2.188.638 1.276 1.002-.911.546 1.094-.364 2.188-.82 1.093-1.64 4.284-.456 3.281 1.184-1.094 2.095.091.82 1.914-1.275 1.732-2.368 5.924-1.093 4.466s1.548.912.729 2.096c-.729 1.185-.638 2.279 0 1.732.728-.547.637 1.914 0 2.917zm17.394-.365c0-2.825.092-9.479-1.457-11.666-1.093-1.732-1.093-3.555.182-1.55s1.913 1.003 1.002-1.002c-1.093-2.553-2.55-5.378-2.185-5.925.455-.638.728-.364 1.639 1.003s1.093-.638.091-2.006c-1.002-1.276-.911-1.549 1.184-.638 3.734 1.55 5.555 6.016 5.555 21.055z"/><path fill="#CE1126" stroke="#000" stroke-linecap="round" stroke-linejoin="round" stroke-width=".2" d="M435.499 171.07c-4.007 0-8.379-.638-11.293-1.823-3.461-1.367-3.643-2.552-2.459-4.01.911-1.094 2.732-.456 4.554.364 1.73.729 6.648 1.276 9.198 1.276s7.468-.547 9.198-1.367c1.821-.729 3.643-1.367 4.554-.273 1.184 1.458 1.001 2.643-2.459 4.01-2.915 1.185-7.286 1.823-11.293 1.823"/><g clip-path="url(#b)"><path fill="#fff" d="M0 0h300v150H0z"/><path fill="#012169" d="M0 0v150h300V0z"/><path fill="#000" d="m0 0 300 150Zm300 0L0 150Z"/><path stroke="#fff" stroke-width="30" d="m0 0 300 150m0-150L0 150"/><mask id="c" width="300" height="150" x="0" y="0" maskUnits="userSpaceOnUse" style="mask-type:luminance"><path fill="#fff" d="M150 75h150v75zm0 0v75H0zm0 0H0V0zm0 0V0h150z"/></mask><g mask="url(#c)"><path fill="#000" d="m0 0 300 150Zm300 0L0 150Z"/><path stroke="#C8102E" stroke-width="20" d="m0 0 300 150m0-150L0 150"/></g><path fill="#000" d="M150 0v150ZM0 75h300Z"/><path stroke="#fff" stroke-width="50" d="M150 0v150M0 75h300"/><path fill="#000" d="M150 0v150ZM0 75h300Z"/><path stroke="#C8102E" stroke-width="30" d="M150 0v150M0 75h300"/></g></g><defs><clipPath id="a"><path fill="#fff" d="M0 0h600v300H0z"/></clipPath><clipPath id="b"><path fill="#fff" d="M0 0h300v150H0z"/></clipPath></defs></svg>