<svg xmlns="http://www.w3.org/2000/svg" width="600" height="300" fill="none"><g clip-path="url(#a)"><path fill="#009FCA" d="M0 0h600v300H0z"/><path fill="#FFF40D" fill-rule="evenodd" d="M548.777 61.868h17.795l-14.326 9.765 5.46 15.868-14.326-9.829-14.262 9.83 5.461-15.869-14.326-9.765h17.667L543.38 46zM504.32 188.3h17.731l-14.326 9.765 5.461 15.868-14.326-9.829-14.327 9.829 5.525-15.868-14.326-9.765h17.603l5.46-15.868zm44.457-28.652h17.795l-14.326 9.765 5.46 15.868-14.326-9.83-14.262 9.83 5.461-15.868-14.326-9.765h17.667l5.46-15.869zm-191.124 91.739h17.731l-14.391 9.701 5.525 15.804-14.326-9.765-14.326 9.765 5.525-15.804L329 251.258h17.731l5.461-15.804zm40.216-49.146h-17.731l14.326-9.829-5.461-15.804 14.327 9.765 14.326-9.765-5.525 15.804 14.326 9.829H408.79l-5.46 15.804zm52.23-72.274h-17.796l14.327-9.765-5.461-15.868 14.326 9.829 14.327-9.829-5.525 15.868 14.326 9.765h-17.667l-5.461 15.868zm43.878-14.969h-17.731l14.39-9.829-5.525-15.804 14.327 9.765 14.326-9.765-5.525 15.804 14.391 9.829h-17.732l-5.46 15.804zm-43.878 125.018h-17.796l14.327-9.765-5.333-15.932 14.327 9.765 14.326-9.765-5.525 15.868 14.326 9.765h-17.667l-5.46 15.868zm-52.23 12.784h-17.731l14.326-9.764-5.461-15.869 14.327 9.765 14.326-9.765-5.525 15.804 14.39 9.894h-17.666l-5.461 15.868z" clip-rule="evenodd"/><g clip-path="url(#b)"><path fill="#fff" d="M0 0h300v150H0z"/><path fill="#012169" d="M0 0v150h300V0z"/><path fill="#000" d="m0 0 300 150Zm300 0L0 150Z"/><path stroke="#fff" stroke-width="30" d="m0 0 300 150m0-150L0 150"/><mask id="c" width="300" height="150" x="0" y="0" maskUnits="userSpaceOnUse" style="mask-type:luminance"><path fill="#fff" d="M150 75h150v75zm0 0v75H0zm0 0H0V0zm0 0V0h150z"/></mask><g mask="url(#c)"><path fill="#000" d="m0 0 300 150Zm300 0L0 150Z"/><path stroke="#C8102E" stroke-width="20" d="m0 0 300 150m0-150L0 150"/></g><path fill="#000" d="M150 0v150ZM0 75h300Z"/><path stroke="#fff" stroke-width="50" d="M150 0v150M0 75h300"/><path fill="#000" d="M150 0v150ZM0 75h300Z"/><path stroke="#C8102E" stroke-width="30" d="M150 0v150M0 75h300"/></g></g><defs><clipPath id="a"><path fill="#fff" d="M0 0h600v300H0z"/></clipPath><clipPath id="b"><path fill="#fff" d="M0 0h300v150H0z"/></clipPath></defs></svg>