<svg xmlns="http://www.w3.org/2000/svg" width="600" height="300" fill="none"><g clip-path="url(#a)"><path fill="#000" d="M0 0h600v300H0z"/><path fill="#FCDC04" d="M0 50h600v75H0zm0 150h600v100H0z"/><path fill="#D90000" d="M0 100h600v50H0zm0 150h600v50H0z"/><path fill="#fff" d="M300.333 212.667c34.426 0 62.334-27.908 62.334-62.334 0-34.425-27.908-62.333-62.334-62.333C265.908 88 238 115.908 238 150.333c0 34.426 27.908 62.334 62.333 62.334"/><path fill="#D90000" stroke="#000" d="m289.347 102.594-4.043-7.447c1.56-1.56 4.184-2.766 8.369-2.766 0 .284-.426 8.156-.426 8.156z"/><path fill="#FCDC04" stroke="#000" d="m293.247 100.608.568-8.227s8.369-.496 12.908 4.964c.07-.07-4.468 6.383-4.468 6.383z"/><path fill="#D90000" stroke="#000" d="m302.396 103.657 4.114-6.383c2.766 2.908 3.9 4.965 4.326 8.086.071.071-6.525 1.631-6.525 1.56s-1.844-3.192-1.915-3.263Z"/><path fill="#000" stroke="#000" d="M291.403 209.049s7.731-8.866 22.766-6.951c-2.269-3.688-9.574-3.262-9.574-3.262s-2.269-17.234-.497-18.086 9.291.071 9.291.071c.993 0 2.695-2.695 1.348-4.397-1.348-1.702-5.319-8.227-3.688-9.504s10.496.71 10.496.71l-25.035-32.057s-2.554-12.057 2.553-17.873c6.17-5.106 5.532-10.638 5.319-10.567-.851-5.604-9.361-9.646-15.106-4.468-3.405 4.113-1.135 7.234-1.135 7.234s-8.936 2.411-9.291 3.971 10.071-.283 10.071-.283l-.993 7.163s-20.284 18.439-4.752 34.397c.142-.071.497-.709.497-.709s5.461 6.738 11.205 8.227c5.39 5.532 4.894 4.681 4.894 4.681s1.064 8.724.071 10.425c-1.348-.425-15.106-.921-17.163-.141-1.844.567-8.936.212-7.164 11.773 1.348-3.121 2.554-5.887 2.554-5.887s-.213 4.185 1.489 5.674c-.283-4.397 1.631-7.376 1.631-7.376s.355 4.823 1.419 5.532 1.064-7.802 6.95-7.092c5.887.709 10.142.496 10.142.496s1.986 16.667 1.348 18.228c-4.256-.994-14.397.425-15.036 2.978 5.957-.354 8.724.355 8.724.355s-4.823 4.255-3.334 6.738Z"/><path fill="#9CA69C" stroke="#9CA69C" d="M293.794 118.107s-14.759 16.268-8.392 28.717c.339-1.736.191-2.827.404-2.756-.355-.213 1.83 1.498 1.664 1.165.047-.9-.665-2.829-.665-2.829l1.997.499-1.166-2.163 2.83.332s-.999-2.662-.666-2.662 2.33.166 2.33.166c-4.197-7.532-.238-13.788 1.664-20.469ZM298.921 104.154s.78 5.603-2.27 7.234c-.496.355-2.411.993-2.127 2.128.354 1.56 1.205 1.276 2.411.993 3.191-.568 6.879-7.376 1.986-10.355Z"/><path fill="#fff" d="M292.333 110.2a1.2 1.2 0 1 0 0-2.4 1.2 1.2 0 0 0 0 2.4"/><path fill="#D90000" stroke="#000" d="M288.708 113.657c-.78.639-4.893 4.894-.851 6.454 4.185-1.135 3.05-1.914 3.972-2.836.024-1.915-2.08-2.412-3.121-3.618Z"/><path fill="#9CA69C" stroke="#9CA69C" d="M297.644 153.871c-.213.922-1.134 4.326.142 6.95 3.546-1.489 5.177-1.064 6.383-.283-2.907-2.341-4.042-3.334-6.525-6.667Z"/><path fill="#fff" stroke="#fff" d="m303.744 169.97.213 7.944s2.766.496 4.042 0c1.277-.497-.071-5.532-4.255-7.944Z"/><path fill="#9CA69C" stroke="#000" d="M323.814 170.963s-5.106-12.34-18.156-15.461-11.348-17.021-10.284-17.873c.568-1.206.993-3.049 4.752-1.276s21.064 10.496 23.547 10.922c2.482.425.354 23.972.141 23.688Z"/><path fill="#D90000" stroke="#000" d="M311.403 155.431c-.213.142 17.447 10.425 12.128 19.291 5.036-3.334 3.404-9.149 3.404-9.149s4.114 10.709-5.886 15.958c1.064.922 1.773.708 1.773.708l-1.702 1.703s-.781 1.276 5.957-1.986c-1.844 1.489-1.985 2.553-1.985 2.553s.496 1.419 4.893-2.411c-3.546 3.83-4.326 5.815-4.326 5.744 9.574-.851 30.425-31.985-6.596-41.206 1.986 2.057 1.702 1.774 1.702 1.774z"/><path fill="#fff" stroke="#000" d="M312.184 152.381c2.411 1.702 3.262 2.27 3.545 3.121-2.198-.496-4.184-.355-4.184-.355s-4.752-4.539-5.603-4.893c-.638 0-4.326-2.341-4.326-2.341-1.844-.922-3.546-7.305 3.263-5.461 7.02 3.333 8.014 3.617 8.014 3.617l8.369 2.625 4.822 5.39s-8.581-4.256-9.645-4.327c2.34 1.915 3.688 4.539 3.688 4.539-2.719-.78-5.083-1.489-7.943-1.915Z"/><path fill="#000" d="M278.779 114.296s8.227-1.986 9.22-1.702Z"/><path stroke="#fff" d="M278.779 114.296s8.227-1.986 9.22-1.702"/></g><defs><clipPath id="a"><path fill="#fff" d="M0 0h600v300H0z"/></clipPath></defs></svg>