<svg xmlns="http://www.w3.org/2000/svg" width="600" height="300" fill="none"><g clip-path="url(#a)"><path fill="#fff" d="M0 0h600v300H0z"/><path fill="#C00" d="M600 120H0v60h600z"/><path fill="#C00" d="M330 300V0h-60v300z"/><path fill="#EBEAE3" fill-rule="evenodd" stroke="#000" stroke-width=".309" d="M321.773 97.437c1.857-2.97.743-4.95-2.104-5.507 0 0-9.219 2.97-19.182 3.28-9.9.31-21.657-2.475-21.657-2.475-2.166 1.299-1.671 4.455-.619 6.435 0 0 10.396 3.465 22.276 3.094a68.7 68.7 0 0 0 18.626-3.403c2.289-.743 2.66-1.362 2.66-1.424Z" clip-rule="evenodd"/><path fill="#fff" stroke="#161111" stroke-width=".99" d="m299.992 228-19.12-39.725L237 191.616l24.751-36.384L237 118.847l43.933 3.342 19.059-39.664 19.12 39.602 43.872-3.28-24.751 36.385 24.751 36.384-43.934-3.341z"/><path fill="#B02320" fill-rule="evenodd" stroke="#000" stroke-width=".804" d="M299.682 82.34c24.009 3.96 23.143 5.073 23.143 5.073l6.249-18.687s.681-3.713-1.052-5.94c-1.732-2.228-6.497-.99-6.497-.99s-.619-3.032-2.784-3.713c-2.104-.743-9.901 2.785-12.376 3.589s-3.713 1.547-7.116 1.485c-3.403 0-9.529-3.094-10.705-3.713-1.052-.557-2.723-1.114-4.27-1.052-1.485 0-3.093.433-3.898 1.485-.742 1.052-.742 2.414-.742 2.414s-1.238-.805-3.218-.805-3.094.248-4.022 1.3-2.104 4.022-2.104 4.022l2.228 5.074.123 6.992 4.641 7.425z" clip-rule="evenodd"/><path fill="#EBEAE3" fill-rule="evenodd" stroke="#000" stroke-width=".309" d="M322.082 92.92s1.238 1.423 1.176 1.98c-.062.495-.619.928-.619.928s.433.371.31.928c-.062.62-.867.62-.867.62s.186.494-.309.742c-.433.247-2.352.619-2.352.619s-9.281-2.6-19.182-2.6-21.657 3.218-21.657 3.218-1.238-.433-1.238-1.237c-.123-.743.062-1.3.062-1.3s-.619 0-.804-.557c-.248-.804.062-1.423.062-1.423s-.433.124.062-.928c.371-.804.928-1.052.928-1.052s10.395-3.713 22.276-3.775c11.819 0 22.152 3.713 22.152 3.837Z" clip-rule="evenodd"/><path stroke="#000" stroke-width=".681" d="M272.889 69.53s-.371-1.36.495-2.536a2.66 2.66 0 0 1 2.908-.867c.495.248.434.805 1.052.929.619.185 1.114-.31 1.114-.31"/><path fill="#FC0" fill-opacity=".9" fill-rule="evenodd" stroke="#000" stroke-width=".743" d="m330.807 72.687-3.589 7.425-1.423.247s-.866-.495-3.341-.309c-1.733.124-2.29.619-2.29.619l3.218-7.426s.247 1.547.618 2.476c.496 1.237 2.29 2.289 2.29 2.289s.248-1.423-.248-3.094a34.6 34.6 0 0 0-1.732-4.517z" clip-rule="evenodd"/><path fill="#121116" stroke="#121116" stroke-linejoin="round" stroke-width=".743" d="M297.826 49.543h4.022v17.14h-4.022z"/><path fill="#F6CA1F" fill-rule="evenodd" stroke="#000" stroke-width=".619" d="m273.137 81.101 2.537 5.57s11.076-4.332 24.07-4.209c19.492.124 25.061 4.023 25.061 4.023l2.846-6.869-2.165 1.238-2.228 1.423-2.475.928-3.094-.186-2.723-1.98-1.361-2.908-2.289 2.104-4.084.866-3.961-.99-3.465-4.393s-2.599 4.888-5.94 5.197c-4.765.372-7.487-2.289-7.487-2.289s-1.795 3.96-4.703 4.64c-4.641 1.177-8.477-2.165-8.539-2.165Z" clip-rule="evenodd"/><path fill="#EEE" d="M317.565 47.377c0 1.113-.866 2.103-2.042 2.103a2.104 2.104 0 0 1-2.104-2.103 2.1 2.1 0 0 1 .594-1.528 2.1 2.1 0 0 1 1.51-.638 2.104 2.104 0 0 1 2.042 2.104"/><path stroke="#1E1E1E" stroke-linejoin="round" stroke-width=".743" d="M317.565 47.377c0 1.113-.866 2.103-2.042 2.103a2.104 2.104 0 0 1-2.104-2.103 2.1 2.1 0 0 1 .594-1.528 2.1 2.1 0 0 1 1.51-.638 2.104 2.104 0 0 1 2.042 2.104"/><path fill="#A3AFB8" fill-rule="evenodd" d="M314.533 48.429s1.671 0 1.857-.681c.185-.742-.124-1.609-.124-1.609s.804.866.619 1.547c-.248.68-.495.866-1.052 1.052a1.86 1.86 0 0 1-1.238-.31z" clip-rule="evenodd"/><path fill="#EEE" d="M312.553 49.728c0 1.114-.928 2.104-2.103 2.104a2.1 2.1 0 0 1-1.488-.617 2.11 2.11 0 0 1-.616-1.487 2.1 2.1 0 0 1 .615-1.55 2.1 2.1 0 0 1 1.55-.616 2.105 2.105 0 0 1 2.104 2.042"/><path stroke="#1E1E1E" stroke-linejoin="round" stroke-width=".743" d="M312.553 49.728c0 1.114-.928 2.104-2.103 2.104a2.1 2.1 0 0 1-1.488-.617 2.11 2.11 0 0 1-.616-1.487 2.1 2.1 0 0 1 .615-1.55 2.1 2.1 0 0 1 1.55-.616 2.105 2.105 0 0 1 2.104 2.042"/><path fill="#A3AFB8" fill-rule="evenodd" d="M309.459 50.78s1.733 0 1.856-.68c.186-.681-.123-1.61-.123-1.61s.804.929.618 1.61c-.247.618-.495.866-1.052.99a1.86 1.86 0 0 1-1.237-.31z" clip-rule="evenodd"/><path fill="#EEE" d="M323.505 45.953c0 1.176-.99 2.104-2.104 2.104a2.1 2.1 0 0 1-2.104-2.104 2.1 2.1 0 0 1 2.042-2.104 2.106 2.106 0 0 1 2.104 2.104"/><path stroke="#1E1E1E" stroke-linejoin="round" stroke-width=".743" d="M323.505 45.953c0 1.176-.99 2.104-2.104 2.104a2.1 2.1 0 0 1-2.104-2.104 2.1 2.1 0 0 1 2.042-2.104 2.106 2.106 0 0 1 2.104 2.104"/><path fill="#A3AFB8" fill-rule="evenodd" d="M320.411 47.067s1.671 0 1.856-.742c.186-.68-.123-1.547-.123-1.547s.804.866.618 1.547c-.247.68-.495.866-1.051.99a1.86 1.86 0 0 1-1.238-.248z" clip-rule="evenodd"/><path fill="#EEE" d="M330.065 47.315c0 1.114-.928 2.104-2.042 2.104a2.105 2.105 0 0 1-1.488-3.592c.395-.394.93-.616 1.488-.616a2.1 2.1 0 0 1 2.042 2.042"/><path stroke="#1E1E1E" stroke-linejoin="round" stroke-width=".743" d="M330.065 47.315c0 1.114-.928 2.104-2.042 2.104a2.105 2.105 0 0 1-1.488-3.592c.395-.394.93-.616 1.488-.616a2.1 2.1 0 0 1 2.042 2.042"/><path fill="#A3AFB8" fill-rule="evenodd" d="M327.033 48.367s1.67 0 1.856-.681c.186-.743-.124-1.609-.124-1.609s.805.866.619 1.609c-.247.619-.495.804-1.052.99a1.86 1.86 0 0 1-1.299-.31" clip-rule="evenodd"/><path fill="#EEE" d="M335.138 51.46c0 1.114-.928 2.104-2.104 2.104a2.106 2.106 0 0 1-1.488-3.592 2.105 2.105 0 0 1 3.592 1.426"/><path stroke="#1E1E1E" stroke-linejoin="round" stroke-width=".743" d="M335.138 51.46c0 1.114-.928 2.104-2.104 2.104a2.106 2.106 0 0 1-1.488-3.592 2.105 2.105 0 0 1 3.592 1.426"/><path fill="#A3AFB8" fill-rule="evenodd" d="M332.107 52.512s1.671 0 1.856-.681c.124-.68-.123-1.609-.123-1.609s.804.928.556 1.609c-.247.619-.433.866-1.052.99-.371.062-.928-.062-1.237-.31" clip-rule="evenodd"/><path fill="#EEE" stroke="#1E1E1E" stroke-linejoin="round" stroke-width=".743" d="M337.305 58.267a2.086 2.086 0 0 1-2.104 2.104 2.106 2.106 0 0 1 0-4.208 2.105 2.105 0 0 1 2.104 2.104Z"/><path fill="#A3AFB8" fill-rule="evenodd" d="M334.272 59.319s1.671 0 1.856-.68c.124-.681-.123-1.61-.123-1.61s.804.928.556 1.61c-.247.618-.433.865-1.051.99a1.86 1.86 0 0 1-1.238-.31" clip-rule="evenodd"/><path fill="#EEE" stroke="#1E1E1E" stroke-linejoin="round" stroke-width=".743" d="M336.5 65.136c0 1.238-.928 2.104-2.104 2.104a2.102 2.102 0 0 1-1.905-2.852 2.1 2.1 0 0 1 1.105-1.172c.252-.113.524-.176.8-.184a2.104 2.104 0 0 1 2.104 2.104Z"/><path fill="#A3AFB8" fill-rule="evenodd" d="M333.406 66.249s1.732 0 1.856-.743c.186-.618-.062-1.547-.062-1.547s.805.867.557 1.547c-.247.681-.433.867-1.052.99a1.86 1.86 0 0 1-1.237-.247z" clip-rule="evenodd"/><path fill="#EEE" stroke="#1E1E1E" stroke-linejoin="round" stroke-width=".743" d="M333.405 71.2c0 1.175-.928 2.103-2.042 2.103a2.105 2.105 0 0 1-1.488-3.591c.395-.395.93-.616 1.488-.616a2.104 2.104 0 0 1 2.042 2.104Z"/><path fill="#A3AFB8" fill-rule="evenodd" d="M330.375 72.313s1.67 0 1.856-.742c.185-.619-.124-1.547-.124-1.547s.805.866.619 1.547c-.248.68-.495.866-1.052.99a1.86 1.86 0 0 1-1.238-.248z" clip-rule="evenodd"/><path fill="#EEE" stroke="#1E1E1E" stroke-linejoin="round" stroke-width=".743" d="M307.603 51.523c0 1.175-.928 2.104-2.042 2.104a2.106 2.106 0 0 1-1.51-3.57 2.1 2.1 0 0 1 1.448-.638 2.106 2.106 0 0 1 2.104 2.104Z"/><path fill="#A3AFB8" fill-rule="evenodd" d="M304.571 52.637s1.671 0 1.857-.743c.185-.68-.124-1.547-.124-1.547s.804.867.619 1.547c-.248.68-.495.866-1.052.99-.433.124-.99 0-1.3-.247" clip-rule="evenodd"/><path fill="#EEE" stroke="#1E1E1E" stroke-linejoin="round" stroke-width=".743" d="M301.291 50.966a1.73 1.73 0 0 1-.485 1.265 1.74 1.74 0 0 1-1.925.392 1.73 1.73 0 0 1-1.055-1.657 1.732 1.732 0 1 1 3.465 0Z"/><path fill="#A3AFB8" fill-rule="evenodd" d="M298.754 51.894s1.423 0 1.547-.618c.185-.557-.062-1.238-.062-1.238s.619.68.495 1.238c-.247.618-.433.742-.866.866a1.55 1.55 0 0 1-1.114-.248" clip-rule="evenodd"/><path fill="#EEE" stroke="#1E1E1E" stroke-linejoin="round" stroke-width=".743" d="M301.353 53.132a1.72 1.72 0 0 1-.462 1.306 1.72 1.72 0 0 1-1.271.55 1.734 1.734 0 0 1-1.732-1.856 1.734 1.734 0 0 1 2.957-1.225c.325.325.508.766.508 1.225Z"/><path fill="#A3AFB8" fill-rule="evenodd" d="M298.754 54.06s1.423 0 1.609-.618c.123-.495-.124-1.238-.124-1.238s.619.743.495 1.238c-.186.618-.371.742-.866.866a1.55 1.55 0 0 1-1.052-.248z" clip-rule="evenodd"/><path fill="#EEE" stroke="#1E1E1E" stroke-linejoin="round" stroke-width=".743" d="M301.476 56.41a1.733 1.733 0 0 1-1.733 1.733 1.735 1.735 0 0 1-1.657-1.054 1.8 1.8 0 0 1-.137-.678 1.73 1.73 0 0 1 1.098-1.676c.221-.087.458-.127.696-.119a1.73 1.73 0 0 1 1.733 1.795Z"/><path fill="#A3AFB8" fill-rule="evenodd" d="M298.939 57.34s1.361 0 1.547-.62c.124-.618-.124-1.3-.124-1.3s.619.743.495 1.238c-.185.62-.371.805-.866.867-.362.065-.735-.001-1.052-.186" clip-rule="evenodd"/><path fill="#EEE" d="M301.663 59.814a1.87 1.87 0 0 1-.521 1.353 1.87 1.87 0 0 1-1.335.565 1.86 1.86 0 0 1-1.772-1.13 1.9 1.9 0 0 1-.147-.726 1.85 1.85 0 0 1 .498-1.393 1.86 1.86 0 0 1 1.359-.587 1.86 1.86 0 0 1 1.733 1.189c.09.232.131.48.123.73"/><path stroke="#1E1E1E" stroke-linejoin="round" stroke-width=".743" d="M301.663 59.814a1.87 1.87 0 0 1-.521 1.353 1.87 1.87 0 0 1-1.335.565 1.86 1.86 0 0 1-1.772-1.13 1.9 1.9 0 0 1-.147-.726 1.85 1.85 0 0 1 .498-1.393 1.86 1.86 0 0 1 1.359-.587 1.86 1.86 0 0 1 1.733 1.189c.09.232.131.48.123.73"/><path fill="#A3AFB8" fill-rule="evenodd" d="M298.879 60.804s1.547 0 1.671-.619c.123-.618-.124-1.423-.124-1.423s.742.805.557 1.423c-.248.62-.433.743-.928.867a1.6 1.6 0 0 1-1.176-.248" clip-rule="evenodd"/><path fill="#EEE" d="M301.847 64.455c0 1.114-.928 2.104-2.103 2.104a2.1 2.1 0 0 1-2.042-2.104 2.1 2.1 0 0 1 .572-1.506 2.1 2.1 0 0 1 1.47-.66 2.1 2.1 0 0 1 2.103 2.104"/><path stroke="#1E1E1E" stroke-linejoin="round" stroke-width=".743" d="M301.847 64.455c0 1.114-.928 2.104-2.103 2.104a2.1 2.1 0 0 1-2.042-2.104 2.1 2.1 0 0 1 .572-1.506 2.1 2.1 0 0 1 1.47-.66 2.1 2.1 0 0 1 2.103 2.104"/><path fill="#A3AFB8" fill-rule="evenodd" d="M298.754 65.506s1.732 0 1.856-.68c.186-.681-.062-1.61-.062-1.61s.805.929.557 1.61c-.247.618-.433.866-1.052.99a1.86 1.86 0 0 1-1.237-.31z" clip-rule="evenodd"/><path fill="#EEE" stroke="#1E1E1E" stroke-linejoin="round" stroke-width=".743" d="M301.662 73.86c0 1.114-.866 1.98-1.98 1.98a1.98 1.98 0 0 1-1.98-1.98c0-1.052.866-1.98 1.98-1.98a1.98 1.98 0 0 1 1.98 1.98Z"/><path fill="#A3AFB8" fill-rule="evenodd" d="M298.754 74.912s1.609 0 1.733-.68c.186-.62-.062-1.485-.062-1.485s.743.804.495 1.485c-.186.618-.433.804-.928.928-.371.062-.928-.062-1.238-.248" clip-rule="evenodd"/><path fill="#EEE" stroke="#1E1E1E" stroke-linejoin="round" stroke-width=".743" d="M296.031 51.46c0 1.175-.99 2.104-2.104 2.104a2.106 2.106 0 0 1-1.488-3.592 2.105 2.105 0 0 1 3.592 1.488Z"/><path fill="#A3AFB8" fill-rule="evenodd" d="M292.938 52.512s1.671 0 1.856-.619c.186-.742-.123-1.609-.123-1.609s.804.867.618 1.547c-.247.68-.495.866-1.052.99a1.86 1.86 0 0 1-1.237-.247z" clip-rule="evenodd"/><path fill="#EEE" stroke="#1E1E1E" stroke-linejoin="round" stroke-width=".743" d="M290.834 49.419a2.086 2.086 0 0 1-2.104 2.104 2.104 2.104 0 0 1 0-4.208 2.106 2.106 0 0 1 2.104 2.104Z"/><path fill="#A3AFB8" fill-rule="evenodd" d="M287.802 50.533s1.67 0 1.856-.743c.124-.619-.124-1.547-.124-1.547s.805.866.619 1.547c-.309.68-.495.866-1.114.99-.371.124-.928 0-1.237-.247" clip-rule="evenodd"/><path fill="#EEE" d="M285.884 47.13c0 1.113-.928 2.103-2.042 2.103a2.106 2.106 0 0 1-2.104-2.104 2.1 2.1 0 0 1 .572-1.506 2.1 2.1 0 0 1 1.47-.66 2.105 2.105 0 0 1 2.104 2.104"/><path stroke="#1E1E1E" stroke-linejoin="round" stroke-width=".743" d="M285.884 47.13c0 1.113-.928 2.103-2.042 2.103a2.106 2.106 0 0 1-2.104-2.104 2.1 2.1 0 0 1 .572-1.506 2.1 2.1 0 0 1 1.47-.66 2.105 2.105 0 0 1 2.104 2.104"/><path fill="#A3AFB8" fill-rule="evenodd" d="M282.851 48.181s1.671 0 1.856-.68c.186-.681-.123-1.61-.123-1.61s.804.929.618 1.61c-.247.618-.495.866-1.051.99a1.86 1.86 0 0 1-1.3-.31" clip-rule="evenodd"/><path fill="#EEE" d="M280.191 45.891c0 1.176-.867 2.104-2.042 2.104a2.106 2.106 0 0 1-2.104-2.104 2.11 2.11 0 0 1 1.284-2 2.104 2.104 0 0 1 2.924 1.938"/><path stroke="#1E1E1E" stroke-linejoin="round" stroke-width=".743" d="M280.191 45.891c0 1.176-.867 2.104-2.042 2.104a2.106 2.106 0 0 1-2.104-2.104 2.11 2.11 0 0 1 1.284-2 2.104 2.104 0 0 1 2.924 1.938"/><path fill="#A3AFB8" fill-rule="evenodd" d="M277.159 46.943s1.67 0 1.856-.68c.186-.681-.124-1.61-.124-1.61s.805.929.619 1.61c-.247.618-.495.866-1.052.99a1.86 1.86 0 0 1-1.237-.31z" clip-rule="evenodd"/><path fill="#EEE" stroke="#1E1E1E" stroke-linejoin="round" stroke-width=".743" d="M273.508 47.438c0 1.238-.928 2.104-2.042 2.166a2.106 2.106 0 0 1-2.104-2.104 2.11 2.11 0 0 1 1.284-2c.26-.11.539-.166.82-.166a2.104 2.104 0 0 1 2.042 2.104Z"/><path fill="#A3AFB8" fill-rule="evenodd" d="M270.476 48.552s1.67 0 1.856-.68c.186-.743-.124-1.61-.124-1.61s.805.867.619 1.548c-.248.68-.495.866-1.052 1.052a1.86 1.86 0 0 1-1.238-.31z" clip-rule="evenodd"/><path fill="#EEE" stroke="#1E1E1E" stroke-linejoin="round" stroke-width=".743" d="M268.806 52.203a2.087 2.087 0 0 1-2.104 2.103 2.1 2.1 0 0 1-2.042-2.103 2.1 2.1 0 0 1 2.042-2.104 2.1 2.1 0 0 1 2.104 2.104Z"/><path fill="#A3AFB8" fill-rule="evenodd" d="M265.773 53.255s1.671 0 1.857-.68c.124-.681-.124-1.61-.124-1.61s.804.929.557 1.61c-.248.618-.433.866-1.052.99a1.86 1.86 0 0 1-1.238-.31" clip-rule="evenodd"/><path fill="#EEE" d="M266.825 58.824c0 1.176-.928 2.104-2.042 2.104a2.105 2.105 0 0 1-.062-4.208 2.1 2.1 0 0 1 2.104 2.042"/><path stroke="#1E1E1E" stroke-linejoin="round" stroke-width=".743" d="M266.825 58.824c0 1.176-.928 2.104-2.042 2.104a2.105 2.105 0 0 1-.062-4.208 2.1 2.1 0 0 1 2.104 2.042"/><path fill="#A3AFB8" fill-rule="evenodd" d="M263.793 59.938s1.671-.062 1.856-.743c.186-.68-.123-1.609-.123-1.609s.804.929.618 1.61c-.247.618-.495.866-1.052.99a1.86 1.86 0 0 1-1.299-.31z" clip-rule="evenodd"/><path fill="#EEE" stroke="#1E1E1E" stroke-linejoin="round" stroke-width=".743" d="M267.691 65.692c0 1.237-.928 2.166-2.042 2.166a2.1 2.1 0 0 1-2.104-2.104 2.1 2.1 0 0 1 .573-1.506 2.1 2.1 0 0 1 1.469-.66 2.105 2.105 0 0 1 2.104 2.104Z"/><path fill="#A3AFB8" fill-rule="evenodd" d="M264.66 66.806s1.67 0 1.856-.743c.186-.619-.124-1.547-.124-1.547s.805.866.619 1.547c-.247.68-.495.866-1.052 1.052a1.86 1.86 0 0 1-1.237-.31z" clip-rule="evenodd"/><path fill="#EEE" d="M270.909 72.004c0 1.114-.928 2.104-2.104 2.104a2.106 2.106 0 0 1-2.042-2.104 2.1 2.1 0 0 1 .572-1.506 2.1 2.1 0 0 1 1.47-.66 2.104 2.104 0 0 1 2.104 2.104"/><path stroke="#1E1E1E" stroke-linejoin="round" stroke-width=".743" d="M270.909 72.004c0 1.114-.928 2.104-2.104 2.104a2.106 2.106 0 0 1-2.042-2.104 2.1 2.1 0 0 1 .572-1.506 2.1 2.1 0 0 1 1.47-.66 2.104 2.104 0 0 1 2.104 2.104"/><path fill="#A3AFB8" fill-rule="evenodd" d="M267.814 73.056s1.733 0 1.857-.68c.185-.681-.062-1.61-.062-1.61s.804.867.619 1.548c-.31.68-.495.866-1.052 1.052a1.86 1.86 0 0 1-1.3-.31z" clip-rule="evenodd"/><path fill="#EEE" stroke="#1E1E1E" stroke-linejoin="round" stroke-width=".716" d="M274.532 79.849c.142.532.148 1.078.016 1.52-.133.442-.393.744-.724.841-.338.09-.718-.036-1.058-.352s-.612-.796-.756-1.333c-.143-.532-.149-1.078-.016-1.52s.393-.744.724-.842c.337-.09.718.037 1.058.353s.612.796.756 1.333Z"/><path fill="#A3AFB8" fill-rule="evenodd" d="M272.952 81.41s.99-.31.928-.99c0-.681-.433-1.486-.433-1.486s.681.68.743 1.423c0 .62-.062.867-.372 1.114-.185.124-.618.124-.866-.062" clip-rule="evenodd"/><path fill="#EEE" stroke="#1E1E1E" stroke-linejoin="round" stroke-width=".716" d="M328.348 80.253c-.132.535-.391 1.016-.72 1.339-.33.323-.703.462-1.041.387-.339-.083-.61-.378-.756-.82-.145-.44-.152-.991-.018-1.532.132-.534.39-1.015.72-1.338s.703-.462 1.04-.388c.339.084.611.379.756.82s.152.992.019 1.532Z"/><path fill="#A3AFB8" fill-rule="evenodd" d="M326.167 80.852s1.051.247 1.299-.434c.309-.618.309-1.546.309-1.546s.31.99 0 1.608c-.309.62-.495.805-.866.805-.247.062-.619-.186-.742-.433" clip-rule="evenodd"/><path fill="#B3A192" fill-rule="evenodd" stroke="#000" stroke-width=".743" d="m297.95 40.014.186 3.527s-4.208.371-4.332.743c-.866 1.856.928 4.331.928 4.331s1.424-1.114 4.951-1.114c3.403 0 5.135.867 5.135.867s.867-1.424.867-2.476-.372-2.103-.372-2.103l-2.227-.248h-1.547l-.124-3.589z" clip-rule="evenodd"/><path fill="#F0DDCB" d="M303.952 45.46a.75.75 0 0 1-.743.742c-.433 0-.804-.31-.804-.68 0-.434.371-.743.742-.743.434 0 .743.309.805.68m1.67.432a.75.75 0 0 1-.742.743c-.433 0-.804-.371-.804-.743 0-.433.371-.742.804-.742s.742.31.742.742m-3.403-.433c0 .372-.371.743-.742.743a.75.75 0 0 1-.743-.743c0-.371.309-.742.681-.742.433 0 .804.371.804.742m-3.465 0a.82.82 0 0 1-.804.805.75.75 0 0 1-.743-.743c0-.433.309-.742.743-.742.433 0 .804.309.804.742m-1.918.124c0 .371-.371.742-.805.742a.715.715 0 0 1-.742-.742c0-.433.309-.743.742-.743.434 0 .805.31.805.743m3.527-2.166a.62.62 0 0 1-.619.619.62.62 0 0 1-.742-.619c0-.371.309-.619.68-.619s.619.248.619.62m0-2.91a.62.62 0 0 1-1.056.438.62.62 0 0 1-.182-.437c0-.371.248-.619.619-.619s.619.248.619.619m0 1.548c0 .371-.248.619-.619.619s-.619-.248-.619-.62a.62.62 0 0 1 .619-.618c.371 0 .619.248.619.619m-5.445 4.022c0 .433-.31.742-.743.742a.75.75 0 0 1-.742-.742c0-.371.309-.68.742-.68s.743.309.743.68"/><path stroke="#121116" stroke-linejoin="round" stroke-width=".371" d="M298.754 45.46a.82.82 0 0 1-.804.804.75.75 0 0 1-.743-.743c0-.433.309-.742.743-.742.433 0 .804.309.804.742m1.609-2.042a.62.62 0 0 1-.619.619.62.62 0 0 1-.742-.619c0-.371.309-.619.68-.619s.619.248.619.62m3.651 1.98a.75.75 0 0 1-.743.742c-.433 0-.804-.31-.804-.68 0-.434.371-.743.742-.743.434 0 .743.309.805.68Zm1.67.432a.75.75 0 0 1-.742.743c-.433 0-.804-.371-.804-.743 0-.433.371-.742.804-.742s.742.31.742.742Zm-3.403-.433c0 .372-.371.743-.742.743a.75.75 0 0 1-.743-.743c0-.371.309-.742.681-.742.433 0 .804.371.804.742Zm-5.383.186c0 .371-.371.742-.805.742a.715.715 0 0 1-.742-.742c0-.433.309-.743.742-.743.434 0 .805.31.805.743Zm3.465-5.074a.62.62 0 0 1-1.056.438.62.62 0 0 1-.182-.438c0-.371.248-.619.619-.619s.619.248.619.619Zm0 1.547c0 .371-.248.619-.619.619s-.619-.248-.619-.62a.62.62 0 0 1 .619-.618c.371 0 .619.248.619.619Zm-5.445 4.022c0 .433-.31.742-.743.742a.75.75 0 0 1-.742-.742c0-.371.309-.68.742-.68s.743.309.743.68Z"/><path fill="#916C68" d="M300.549 45.336c0 .433-.372.743-.867.743a.806.806 0 0 1-.804-.743c0-.433.371-.804.804-.804a.82.82 0 0 1 .805.804"/><path stroke="#4D3126" stroke-linejoin="round" stroke-width=".371" d="M300.549 45.336c0 .433-.372.743-.867.743a.806.806 0 0 1-.804-.743c0-.433.371-.804.804-.804a.82.82 0 0 1 .805.804"/><path fill="#EEE" d="M301.229 34.88a1.548 1.548 0 0 1-1.485 1.547 1.55 1.55 0 0 1-1.547-1.548 1.54 1.54 0 0 1 .43-1.134 1.55 1.55 0 0 1 1.117-.474 1.545 1.545 0 0 1 1.546 1.547"/><path stroke="#1E1E1E" stroke-linejoin="round" stroke-width=".743" d="M301.229 34.88a1.548 1.548 0 0 1-1.485 1.547 1.55 1.55 0 0 1-1.547-1.548 1.54 1.54 0 0 1 .43-1.134 1.55 1.55 0 0 1 1.117-.474 1.545 1.545 0 0 1 1.546 1.547"/><path fill="#A3AFB8" fill-rule="evenodd" d="M299.001 35.684s1.238 0 1.361-.619c.124-.433-.062-1.114-.062-1.114s.619.619.434 1.176c-.186.495-.372.619-.743.742-.342.067-.696 0-.99-.185" clip-rule="evenodd"/><path fill="#FC0" fill-rule="evenodd" stroke="#000" stroke-width=".309" d="M275.241 87.227s1.361 1.3 1.732 2.475c.372 1.114.928 4.208.928 4.208s14.356-4.022 21.41-3.713c7.054.372 23.328 3.899 23.328 3.899l.619-3.527c.31-1.857 1.671-3.899 1.671-3.899s-15.532-4.826-25.37-4.331a71.8 71.8 0 0 0-16.893 2.166 160 160 0 0 0-7.425 2.722Z" clip-rule="evenodd"/><path fill="#FC0" fill-rule="evenodd" stroke="#000" stroke-width=".743" d="M296.712 29h6.188s-1.547 1.052-1.857 2.104c-.247.866-.185 2.29-.185 2.29s1.67 0 2.475-.62q1.118-.93 2.289-1.794v7.859s-1.547-1.424-2.475-1.919a9 9 0 0 0-2.165-.804s0 1.237.495 2.042 2.66 3.589 2.66 3.589l-8.848.31s2.104-2.166 2.97-3.775c.557-1.052.309-2.166.309-2.166s-1.485 0-2.227.557c-.805.495-2.104 2.042-2.104 2.042v-7.55s.619 1.486 1.856 2.043 2.352.247 2.352.247.247-1.485-.248-2.475c-.495-.928-1.609-1.98-1.485-1.918z" clip-rule="evenodd"/><path fill="#FC0" fill-rule="evenodd" stroke="#121116" stroke-width=".743" d="M296.218 54.06s-4.394-.061-8.168-2.289c-3.775-2.228-7.611-4.579-13.18-3.28-1.114.31-5.322 2.166-7.178 8.168a16.1 16.1 0 0 0 1.485 11.572 31 31 0 0 0 3.465 4.579l2.29-1.547s-5.755-4.95-5.074-11.262c.618-6.374 3.836-7.859 3.836-7.859s3.96-3.094 9.22-.185a49.5 49.5 0 0 0 15.655 5.383c.371-.062-2.475-3.341-2.351-3.28Z" clip-rule="evenodd"/><path fill="#FC0" fill-rule="evenodd" stroke="#000" stroke-width=".743" d="m271.837 77.884-2.352-4.579 7.054-2.723s-1.732 2.228-2.103 3.837c-.495 1.98-.31 3.65-.31 3.65s.619-.494 1.423-1.794c.619-.928 1.609-4.517 1.609-4.517l3.156 10.086s-1.609-1.608-2.784-1.794c-1.238-.248-2.847.186-2.847.186l-1.856.618z" clip-rule="evenodd"/><path fill="#FC0" fill-rule="evenodd" stroke="#121116" stroke-width=".743" d="M304.138 53.937s4.393 0 8.167-2.29c3.775-2.227 7.55-4.517 13.181-3.218 1.113.248 5.321 2.104 7.177 8.106a16.08 16.08 0 0 1-1.547 11.572 72 72 0 0 1-2.227 3.65l-2.723-.99s5.012-4.517 4.332-10.89c-.681-6.373-3.837-7.859-3.837-7.859s-3.96-3.093-9.22-.123c-5.259 2.908-10.395 4.207-10.395 4.207s-4.827 1.238-5.26 1.114c-.433 0 2.475-3.341 2.352-3.28Z" clip-rule="evenodd"/><path fill="#FC0" stroke="#121116" stroke-linejoin="round" stroke-width=".743" d="M301.848 49.605h1.856v17.14h-1.856zm-6.188-.124h2.166v17.14h-2.166z"/><path fill="#FC0" stroke="#121116" stroke-linejoin="round" stroke-width=".743" d="M305.684 45.521c0 3.094-2.661 5.57-6.002 5.57-3.28 0-6.002-2.476-6.002-5.57 0-3.032 2.66-5.507 5.94-5.507 3.341 0 6.064 2.475 6.064 5.507Z"/><path fill="#FC0" fill-rule="evenodd" stroke="#000" stroke-width=".619" d="m294.36 66.622 10.334-.124s-1.238.743-2.289 2.599c-.991 1.856-.867 2.97-.867 2.97s1.547 0 2.661-.804a16 16 0 0 0 2.351-2.29v9.468s-.804-1.238-2.042-1.857c-1.237-.804-2.97-.804-2.97-.804h-3.527s-1.609.123-2.289.618a18 18 0 0 0-2.29 1.98l-.185-9.034s.495 1.61 2.165 2.228c1.671.619 2.599.619 2.599.619s0-2.104-.866-3.094a20.4 20.4 0 0 0-2.785-2.475Z" clip-rule="evenodd"/><path fill="#F6CA1F" fill-rule="evenodd" stroke="#000" stroke-width=".557" d="M300.116 74.047s1.485 3.527 3.279 5.074c.99.928 4.084 1.608 5.445 1.237 3.094-.804 5.322-3.28 5.322-3.28s-.124 2.723 1.856 4.27c1.919 1.485 3.466 1.857 5.074 1.423 1.671-.433 6.188-3.836 6.188-3.836l.99.804s-2.661 2.6-5.383 3.899c-1.423.742-5.755.31-7.116-.805-1.423-1.114-2.228-3.774-2.228-3.774s-.866 1.732-2.722 2.351c-1.857.619-4.332.619-6.745-.124-1.547-.495-3.651-2.66-4.022-3.403-.371-.68-.248-1.114-.248-1.114s-1.237 3.342-3.589 4.27a11.57 11.57 0 0 1-7.116.247c-2.227-.618-2.413-1.918-2.413-1.918s-.124 3.527-4.95 4.517c-4.95.99-8.787-2.537-8.787-2.537l.681-1.052s2.722 3.094 6.93 2.847c4.208-.31 5.569-5.693 5.569-5.693s1.857 2.784 6.807 2.846c4.888.062 6.311-6.373 6.311-6.373z" clip-rule="evenodd"/><path fill="#FC0" fill-rule="evenodd" stroke="#000" stroke-width=".681" d="M287.987 76.088s0-1.67.433-2.227c.495-.681 1.238-.743 1.609-.62.433.125.866.496.804 1.734-.062 1.175-.433 1.732 0 2.227.31.433.371.743 1.052.619.619-.124.99-.31.805-.928-.186-.62-.31 0-.434-.495-.123-.557.619-2.847.495-4.27-.123-1.361-.618-2.475-1.732-2.784-.99-.248-1.856-.248-2.785.433-.866.618-2.042 2.784-2.042 2.784v4.641l1.857-.124v-.99z" clip-rule="evenodd"/><path fill="#FC0" fill-rule="evenodd" stroke="#000" stroke-width=".681" d="M284.522 77.326s-.743-1.547-1.238-1.856a1.55 1.55 0 0 0-1.732 0c-.372.309-.619.866-.062 1.918.495 1.052 1.052 1.485.866 2.042-.124.557 0 .866-.681 1.052-.68.185-1.052.062-1.175-.619-.124-.619.371 0 .247-.619-.062-.495-1.732-2.29-2.166-3.65-.433-1.3-.371-2.538.495-3.218.805-.62 1.547-.99 2.661-.743 1.114.248 3.032 1.795 3.032 1.795l1.857 4.207-1.733.62z" clip-rule="evenodd"/><path fill="#FC0" fill-rule="evenodd" stroke="#000" stroke-width=".681" d="M284.15 63.713s-1.856 3.094-1.423 5.445 2.846 7.426 2.846 7.426v.618l1.362-.123-.31-.681s.619-6.064.248-7.982a20.4 20.4 0 0 0-2.723-4.703Zm2.909 14.046s.928 1.052 1.98 1.61c1.237.556 1.732.618 2.165.185.372-.248.248-1.362-.185-1.671-.372-.31-.867-.124-.928.186-.124.495-.248.495-.619.247-.619-.247-1.857-1.052-1.857-1.052zm-1.424.248s-.371 1.361-1.113 2.29c-.867.99-1.3 1.237-1.857 1.051-.433-.062-.804-1.114-.557-1.609.248-.433.743-.495.928-.247.31.433.434.371.681 0l1.238-1.67z" clip-rule="evenodd"/><path fill="#FC0" stroke="#000" stroke-linejoin="round" stroke-width=".681" d="M289.1 76.893c.124.371-1.114.928-2.661 1.176s-2.846.185-2.97-.248c0-.371 1.176-.928 2.723-1.237 1.547-.248 2.846-.124 2.908.31Z"/><path fill="#FC0" fill-rule="evenodd" stroke="#000" stroke-width=".681" d="M315.833 76.77s.619-1.547 1.238-1.918c.681-.495 1.361-.31 1.671 0 .371.185.619.742.185 1.856-.495 1.052-.99 1.485-.866 2.042.186.619.124.866.805.99.68.186 1.051.062 1.113-.619.062-.618-.309 0-.247-.618 0-.495 1.609-2.414 1.98-3.713.371-1.423.247-2.599-.619-3.28-.866-.618-1.671-.866-2.784-.556-1.052.309-2.909 1.918-2.909 1.918l-1.608 4.331 1.794.557z" clip-rule="evenodd"/><path fill="#FC0" fill-rule="evenodd" stroke="#000" stroke-width=".681" d="M312.182 76.708s-.124-1.67-.557-2.165a1.65 1.65 0 0 0-1.609-.62c-.433.186-.866.62-.742 1.795.123 1.238.495 1.733.185 2.228-.371.495-.371.742-1.052.68-.68 0-1.052-.247-.928-.866s.371 0 .495-.557c.062-.495-.804-2.784-.742-4.207 0-1.362.495-2.475 1.547-2.847.99-.31 1.856-.371 2.784.31.928.618 2.228 2.66 2.228 2.66l.247 4.58h-1.856z" clip-rule="evenodd"/><path fill="#FC0" fill-rule="evenodd" stroke="#000" stroke-width=".681" d="M316.575 63.837s-2.784 2.228-3.217 4.58c-.434 2.35.062 7.92.062 7.92l-.186.619 1.237.37v-.742s2.723-5.445 3.032-7.425a19.8 19.8 0 0 0-.928-5.322Zm-2.165 14.17s.495 1.3 1.299 2.166c.928.99 1.361 1.176 1.918.99.433-.123.681-1.237.433-1.609-.247-.433-.742-.433-.928-.185-.309.433-.433.31-.68 0a48 48 0 0 1-1.362-1.609zm-1.424-.309s-.804 1.176-1.856 1.733c-1.176.68-1.671.742-2.166.371-.371-.186-.309-1.3.062-1.67.433-.31.866-.186.99.123.124.495.31.433.619.248l1.733-1.238z" clip-rule="evenodd"/><path fill="#FC0" stroke="#000" stroke-linejoin="round" stroke-width=".681" d="M316.638 77.884c-.062.433-1.424.495-2.971.186-1.546-.31-2.722-.867-2.66-1.238.062-.433 1.423-.495 2.97-.185 1.547.309 2.723.866 2.661 1.237Z"/><path fill="#CCA715" fill-rule="evenodd" stroke="#000" stroke-width=".309" d="M274.622 87.103s.371 1.238 1.052.62c.742-.682 10.705-4.642 24.751-4.642s23.204 3.899 23.761 4.146c.557.186.805.495 1.238 0 .495-.619-.433-1.423-.433-1.423s-9.777-4.146-24.999-4.084c-15.284.062-25.123 4.393-25.123 4.393s-.618.495-.185.99z" clip-rule="evenodd"/><path fill="#000" fill-rule="evenodd" d="M292.504 92.92s.433-1.238 1.238-1.485c.618-.186 1.547.433 1.547.433s-1.176-.124-1.547.124c-.31.185-.433.742-.433.742s.247-.495 1.175-.433h.99s-1.547.186-1.856.619c-.371.433 1.423.618 1.423.618s-2.784 0-3.094-.123c-.371-.186-.619-.743-1.237-.62-.619.248-1.238.805-1.238.805s.681-1.237 1.114-1.237.742 0 1.114.185zm-10.395 2.227s.185-1.237.928-1.67c.619-.31 1.67.123 1.67.123s-1.237.124-1.546.372c-.248.247-.248.866-.248.866s.186-.495 1.052-.619q.497-.087.99-.185s-1.485.433-1.733.928c-.309.495 1.547.37 1.547.37s-2.722.496-3.094.434c-.433-.124-.742-.619-1.299-.31-.619.248-1.114.929-1.114.929s.495-1.3.928-1.423c.434-.062.619-.124 1.114 0zm19.12-2.66s.495-1.238 1.237-1.424c.681-.185 1.671.495 1.671.495s-1.237-.185-1.609 0c-.309.186-.433.743-.433.743s.248-.433 1.176-.31l.99.062s-1.547 0-1.918.495c-.372.372 1.423.681 1.423.681s-2.785-.124-3.094-.31c-.371-.185-.619-.742-1.238-.618-.618.124-1.237.619-1.237.619s.742-1.114 1.176-1.114.68 0 1.113.247zm8.725.99s.619-1.176 1.485-1.238c.619-.124 1.485.619 1.485.619s-1.114-.248-1.547-.124c-.371.124-.557.619-.557.619s.309-.371 1.238-.186l.99.248s-1.547-.124-1.98.247 1.299.866 1.299.866-2.723-.495-3.094-.68c-.247-.248-.433-.867-1.052-.805s-1.361.495-1.361.495.928-.99 1.361-.928c.433 0 .681.062 1.052.31zm8.663 1.546s.618-.866 1.299-.928c.557 0 1.176.681 1.176.681s-.928-.31-1.238-.248-.495.495-.495.495.31-.309.99-.061l.805.247s-1.238-.247-1.609 0c-.371.31.99.866.99.866s-2.166-.618-2.475-.804c-.186-.186-.248-.68-.743-.68-.557 0-1.175.309-1.175.309s.804-.805 1.175-.68c.31 0 .557.123.805.308z" clip-rule="evenodd"/><path fill="#0F6545" stroke="#000" stroke-linejoin="round" stroke-width=".433" d="M290.71 86.98c.247 1.051-.991 2.165-2.723 2.474-1.733.372-3.28-.185-3.465-1.237-.186-.99.99-2.104 2.722-2.475 1.733-.372 3.28.185 3.466 1.237Z"/><path fill="#CECFC1" d="M286.874 86.795c0 .247-.248.557-.619.618-.371.062-.742-.061-.804-.309 0-.247.247-.495.618-.619.372 0 .743.062.805.31"/><path fill="#0F6545" stroke="#000" stroke-linejoin="round" stroke-width=".433" d="M314.904 88.28c-.309.99-1.856 1.36-3.589.865-1.67-.556-2.722-1.794-2.475-2.784.371-.99 1.98-1.423 3.651-.866 1.671.495 2.785 1.732 2.475 2.722z"/><path fill="#CECFC1" d="M311.625 86.238c-.124.247-.433.371-.805.247-.371-.123-.618-.433-.557-.618.062-.31.434-.372.805-.31.371.124.619.433.557.619z"/><path fill="#1F2D86" stroke="#000" stroke-linejoin="round" stroke-width=".619" d="M296.65 84.69h6.25v3.095h-6.25z"/><path fill="#707C8B" d="M299.311 85.309c0 .185-.247.309-.618.309-.372 0-.619-.124-.619-.31 0-.123.309-.247.619-.247.309 0 .618.124.618.247"/><path fill="#9F1209" fill-rule="evenodd" stroke="#000" stroke-width=".309" d="m278.953 87.784.99 3.094-1.857 1.052s-.928.619-1.856.124c-.866-.433-1.361-1.856-.866-2.475.928-1.114 3.527-1.856 3.527-1.795z" clip-rule="evenodd"/><path fill="#8F322F" d="M277.345 90.012a.95.95 0 0 1-.928.928c-.495 0-.867-.433-.867-.928 0-.557.372-.928.867-.928s.928.37.928.928"/><path fill="#E2A494" d="M276.478 89.64a.49.49 0 0 1-.124.434.246.246 0 0 1-.309 0 .5.5 0 0 1-.248-.31.5.5 0 0 1 .124-.433.249.249 0 0 1 .31-.062c.123 0 .247.186.247.372"/><path fill="#9F1209" fill-rule="evenodd" stroke="#000" stroke-width=".309" d="m320.968 88.217-1.051 2.723 2.475 1.237s1.052.495 1.732-.061c.619-.495.743-1.733.248-2.29-.433-.619-3.465-1.609-3.404-1.609Z" clip-rule="evenodd"/><path fill="#AA675D" d="M323.877 90.383c0 .371-.372.619-.805.619s-.742-.248-.742-.62c0-.37.371-.618.742-.618.433 0 .805.31.805.619"/><path fill="#E2A494" d="M323.134 90.26c0 .185-.062.37-.185.433a.31.31 0 0 1-.372 0 .5.5 0 0 1-.185-.372q0-.279.185-.37a.31.31 0 0 1 .372 0c.123 0 .185.185.185.37z"/><path fill="#F5D8BC" d="M305.313 84.939a.44.44 0 0 1-.147.33.44.44 0 0 1-.348.103.434.434 0 0 1 0-.867c.248 0 .495.186.495.434m2.661.123a.43.43 0 0 1-.127.307.44.44 0 0 1-.306.126.433.433 0 0 1-.495-.433.43.43 0 0 1 .17-.29.43.43 0 0 1 .325-.081c.186 0 .433.124.433.371m-1.361 1.052c0 .31-.248.557-.619.557s-.495-.247-.495-.557.248-.557.557-.557.557.248.557.62zm1.237 1.733a.435.435 0 0 1-.556.42.43.43 0 0 1-.31-.42.434.434 0 0 1 .433-.433c.31 0 .495.185.495.433zm-2.537-.31a.433.433 0 1 1-.433-.433c.248 0 .433.186.433.433m-12.932-2.165a.437.437 0 0 1-.309.495.435.435 0 0 1-.557-.31.43.43 0 0 1 .081-.325.44.44 0 0 1 .29-.17.43.43 0 0 1 .495.31m2.661-.433a.426.426 0 0 1-.21.44.4.4 0 0 1-.162.055.43.43 0 0 1-.495-.31.437.437 0 0 1 .31-.495.43.43 0 0 1 .48.15.4.4 0 0 1 .077.16m-1.114 1.299c.062.31-.124.619-.371.619a.56.56 0 0 1-.681-.371c-.062-.248.124-.62.433-.62a.56.56 0 0 1 .619.372m1.671 1.423a.437.437 0 0 1-.31.495.43.43 0 0 1-.48-.149.4.4 0 0 1-.077-.16.437.437 0 0 1 .31-.495.43.43 0 0 1 .48.149.5.5 0 0 1 .077.16M293 87.91a.436.436 0 0 1-.31.495.43.43 0 0 1-.557-.31.426.426 0 0 1 .21-.44.4.4 0 0 1 .162-.055.43.43 0 0 1 .495.31m-11.881-.124a.44.44 0 0 1 .022.367.43.43 0 0 1-.269.252.435.435 0 0 1-.557-.248.43.43 0 0 1 .085-.523.4.4 0 0 1 .162-.096.435.435 0 0 1 .619.248zm2.537-.804a.44.44 0 0 1 .022.367.43.43 0 0 1-.269.251.433.433 0 0 1-.557-.31.43.43 0 0 1 .247-.556.433.433 0 0 1 .619.248zm-.866 1.485a.556.556 0 0 1-.31.618.56.56 0 0 1-.68-.247.56.56 0 0 1 .309-.68.557.557 0 0 1 .681.309m1.856 1.113a.44.44 0 0 1 .022.368.43.43 0 0 1-.269.251c-.248 0-.495-.062-.619-.31-.124-.247.062-.432.309-.556a.435.435 0 0 1 .557.247m-2.537.62a.44.44 0 0 1 .022.367.43.43 0 0 1-.269.25.435.435 0 0 1-.619-.247.431.431 0 0 1 .309-.619.435.435 0 0 1 .619.248zm34.776-3.59c-.062.248-.31.372-.619.31a.496.496 0 0 1-.31-.62c0-.185.31-.309.619-.247.186 0 .371.31.31.557m2.722.805c0 .247-.309.433-.557.37a.493.493 0 0 1-.371-.618c.062-.185.309-.371.619-.31.247.063.371.31.309.62zm-1.67.742a.62.62 0 0 1-.681.433.62.62 0 0 1-.495-.68.615.615 0 0 1 .742-.434.57.57 0 0 1 .434.681m.928 2.166c-.062.247-.31.371-.619.31a.49.49 0 0 1-.309-.558c0-.247.309-.37.556-.309.248.062.434.31.372.619zm-2.661-.99c0 .247-.309.371-.557.31a.49.49 0 0 1-.309-.558c0-.247.309-.37.557-.309.247 0 .371.31.309.557"/><path stroke="#000" stroke-width=".743" d="M322.268 61.795s-1.237 1.176-2.784 1.176a4.33 4.33 0 0 1-2.847-.99c-.495-.31.124-1.238.124-1.238"/><path stroke="#000" stroke-width=".681" d="M295.598 64.147s-2.29-.433-3.28-.742c-.928-.31-.68-.928-1.856-.867-1.052.062-2.166.867-1.918 1.98.247 1.114 1.052 1.238 1.856 1.052.743-.247.495-1.608-.495-1.485-1.052 0-.186.929-.186.929"/><path stroke="#000" stroke-width=".619" d="M279.757 62.415s.619.928 2.29.742c1.671-.123 2.289-.99 2.351-1.423.124-.371 0-1.114-.309-1.423-.31-.31-1.423-.433-1.423-.433"/><path fill="#C00" d="M311.872 174.042c1.547-1.547 4.022-3.218 5.383-6.806 1.238-3.466 1.857-9.715 3.094-12.871 1.547-5.445 4.641-10.767.928-10.396-3.527.372-4.64 3.713-5.94 6.188-.619.928-2.042 2.908-2.289 4.022-.062-1.856-1.052-7.363-1.238-12.87-.185-5.198 0-10.52-.185-12.562-.124-2.66-.124-5.136-.743-7.054-.309-.928-1.609-1.856-2.351-1.794-1.362 0-2.228 1.237-2.476 2.413l-.123 1.733c-.124 1.485 0 3.403-.124 5.135-.062 1.857.124 3.837 0 5.569-.124 3.342-.371 6.498-.495 7.116 0-1.237-.619-7.239-.804-12.932l-.124-6.188c0-1.609 0-3.341-.124-4.579-.309-2.104-.99-3.094-2.475-3.094-1.114 0-2.599.805-3.094 3.094-.186 1.3-.248 2.847-.186 4.579l.124 4.95c-.124 6.498-.247 13.304-.495 15.346 0-.619-.681-4.022-.866-8.601l-.248-5.94-.185-5.94c0-.991-.433-3.837-2.29-3.713-1.052-.124-2.104.619-2.475 3.279-.247 1.547-.247 4.084-.309 6.126-.062 3.713-.248 7.054 0 10.458l.062 4.764c0 .248-.557-1.794-.805-4.579l-.495-5.321c0-1.423-.062-3.527-.186-5.26-.123-1.299-.061-2.784-1.547-2.661-1.485.062-2.351.619-2.66 3.094-.248 1.671-.248 5.26-.31 6.498.124 3.279-.742 10.952-1.113 13.118-.124 1.547-.743 3.527-.991 5.692a43.3 43.3 0 0 0 .619 12.747c1.238 4.332 4.332 6.312 4.208 9.282-.186 2.97 0 8.23 0 10.519 0 2.352 2.042 2.475 6.188 1.609 6.93-1.485 10.705 1.485 16.336-.742-.681-6.436.68-10.334.618-12.685zm-4.022-15.284c1.423-3.96 3.218-5.507 4.95-6.311Z"/><path stroke="#161111" stroke-width=".99" d="M307.85 158.758c1.423-3.96 3.218-5.507 4.95-6.311m-.928 21.595c1.547-1.547 4.022-3.218 5.383-6.806 1.238-3.466 1.857-9.715 3.094-12.871 1.547-5.445 4.641-10.767.928-10.396-3.527.372-4.64 3.713-5.94 6.188-.619.928-2.042 2.908-2.289 4.022-.062-1.856-1.052-7.363-1.238-12.87-.185-5.198 0-10.52-.185-12.562-.124-2.66-.124-5.136-.743-7.054-.309-.928-1.609-1.856-2.351-1.794-1.362 0-2.228 1.237-2.476 2.413l-.123 1.733c-.124 1.485 0 3.403-.124 5.135-.062 1.857.124 3.837 0 5.569-.124 3.342-.371 6.498-.495 7.116 0-1.237-.619-7.239-.804-12.932l-.124-6.188c0-1.609 0-3.341-.124-4.579-.309-2.104-.99-3.094-2.475-3.094-1.114 0-2.599.805-3.094 3.094-.186 1.3-.248 2.847-.186 4.579l.124 4.95c-.124 6.498-.247 13.304-.495 15.346 0-.619-.681-4.022-.866-8.601l-.248-5.94-.185-5.94c0-.991-.433-3.837-2.29-3.713-1.052-.124-2.104.619-2.475 3.279-.247 1.547-.247 4.084-.309 6.126-.062 3.713-.248 7.054 0 10.458l.062 4.764c0 .248-.557-1.794-.805-4.579l-.495-5.321c0-1.423-.062-3.527-.186-5.26-.123-1.299-.061-2.784-1.547-2.661-1.485.062-2.351.619-2.66 3.094-.248 1.671-.248 5.26-.31 6.498.124 3.279-.742 10.952-1.113 13.118-.124 1.547-.743 3.527-.991 5.692a43.3 43.3 0 0 0 .619 12.747c1.238 4.332 4.332 6.312 4.208 9.282-.186 2.97 0 8.23 0 10.519 0 2.352 2.042 2.475 6.188 1.609 6.93-1.485 10.705 1.485 16.336-.742-.681-6.436.68-10.334.618-12.685z"/><path stroke="#161111" stroke-width=".99" d="M292.195 154.736c2.166-.866 4.332-1.485 6.56-2.227 2.66-.743 5.259-1.857 8.044-2.228 1.237-.31 2.599-.619 3.96-.619m-22.338 25.989c.247-.186.619.124.866.186.371.123.805.247 1.238.185q1.237-.023 2.475 0c1.052 0 1.856-.124 2.661-.619m6.187.372.991.557c.495.185 1.113.247 4.517 0 2.165.123 4.022-1.733 4.579-2.228"/></g><defs><clipPath id="a"><path fill="#fff" d="M0 0h600v300H0z"/></clipPath></defs></svg>