<svg xmlns="http://www.w3.org/2000/svg" width="600" height="300" fill="none"><g clip-path="url(#a)"><path fill="#00AB39" d="M0 150h600v150H0z"/><path fill="#fff" d="M0 0h600v150H0z"/><path fill="#D21034" d="M366.537 43a453.7 453.7 0 0 0-73.109 49.045c-11.117 9.743-7.978 17.46-8.436 26.157.393 5.885-1.242 11.378-4.839 14.648l-24.718 4.97-2.354-6.801c.719-3.531 3.596-5.232 9.743-3.074.458-4.446-3.204-6.277-7.389-7.847-1.504-1.177-3.27-1.962-3.074-5.885-.654-8.828 13.471.654 13.602.654s-.523-8.959-6.997-10.725c-3.531-1.242-5.035-4.97-3.662-7.716 2.812-5.69 8.174.392 12.228.654-.13-3.727-1.177-6.343-4.381-9.286-1.7-1.111-5.885-1.896-6.016-3.662-.065-2.354 3.923-3.4 9.482-2.746-1.177-3.335-4.905-5.493-10.005-7.063l-3.008-5.297c-1.439-2.615-2.093-2.746 1.242-7.716 2.943-1.962 6.932-4.708 9.94-6.605l-3.27-.392c.393-3.597.458-4.84 1.308-10.79-3.27 4.381-7.193 3.597-10.855 5.362 0 0-10.201 1.831-13.536 6.213l-25.765-1.308c-5.493.72-10.136 2.289-11.052 7.585-12.49 1.308-25.568.197-35.116 12.098 6.54-.261 12.163-1.83 19.487-.915 0 0 6.213.13 7.455 6.735.131.262 2.158.262 2.158.262l2.354 1.83.916-2.484 2.092 1.438.654-2.746 2.093 1.438.131-3.27 2.746 1.963v-4.382s10.201 0 13.34 6.54c.131.065-28.576 5.231-56.303 2.811l7.978-3.923c-10.071-2.093-19.618-3.924-28.511-10.92 3.335 12.686 20.729 27.53 24.326 27.464l-3.401-6.147 30.081 1.308c1.112 3.335.654 7.063 3.27 10.005 0 0-1.635 5.493 2.092 7.717.131.261 4.382-11.117 4.382-11.117s1.308 3.073 2.615 5.101c1.962-9.81 12.687-11.444 12.687-11.444l2.223 5.231c-3.335.523-7.52 7.324-5.231 11.117-2.289 0-6.278 6.605-5.036 10.201-1.896 1.897-6.539 4.382-5.427 12.294-3.662.785-5.886 7.52-4.709 14.714-5.754 5.297-4.316 15.04.785 19.029-2.092 1.962-3.4 3.335-3.4 5.689-2.028-.719-3.924-.131-4.774 1.177-2.485-2.55-6.016-4.708-8.501-2.354-.654-3.008-4.578-6.278-8.828-5.885a8.045 8.045 0 0 0-5.886-8.501s-.98-14.779-5.427-19.618c-.458-2.616.261-4.447 3.923-6.67 3.728-1.962 4.513-3.466 4.186-9.09 1.504-3.727 2.615-7.52-1.962-10.07.131 4.446-1.177 6.539-3.008 8.501-2.158-.262-2.878 2.223-4.316 3.269-2.027-2.681 4.25-6.931-.393-13.013-.261-.261-3.269-7.847-10.659-7.716 3.466 2.027 4.97 5.493 4.97 9.089a27 27 0 0 0-1.177 19.161c-3.073-4.578-4.839-13.341-7.389-14.845-2.224-.457-3.27-5.689-11.967-4.185 3.727.981 4.97 3.858 5.885 6.409-2.223 1.177-1.111 4.316.589 6.474-.327 5.035 2.681 7.978 7.193 9.809l-2.223 20.729c-1.766-.196-4.578 6.801-5.624 6.997-1.766 1.112-4.839 4.054-1.308 4.905-1.046 3.727-2.027 6.016-7.651 6.8 0 0 5.885 3.532 10.855-2.484 5.232-.131 3.531-6.409 6.082-9.155 0-.197 1.504-1.112 3.596-6.671.916 4.97 6.017 20.141 17.46 27.662 10.005 10.724 18.31 20.86 18.18 35.116a35.3 35.3 0 0 0 8.043-14.845 58.2 58.2 0 0 1 20.141-2.354c-1.177 2.551-2.55 4.97-.85 6.54-4.839 1.7-5.886 5.231-3.924 8.697-5.1 3.466-5.427 5.689-5.493 11.444-9.482 12.097-15.302 11.705-24.653 8.501-3.008-1.766-7.847-4.316-10.005-2.943-3.989-2.746-9.809-3.139-10.79 3.008 3.074-2.55 4.839-2.027 7.259.392-.458 1.243-.85 2.42.915 3.139l-2.354 2.616c-4.316-.654-10.201-.654-11.705 5.689 2.223-1.896 7.193-2.289 11.117-.523l2.288.785.262 3.008s-5.885-.916-7.455 8.697c5.493-5.885 9.417-4.381 9.417-4.381 2.158 3.139 10.005 2.681 15.694-2.485 7.913-4.447 10.267 1.962 15.367-2.223 4.251-3.139 9.286-1.047 12.752 2.615 3.989 1.504 8.174 2.747 11.444 0 0 0 4.054-2.55 8.043 1.57 0-4.578-3.27-7.128-7.716-7.194l-1.308-1.307c-4.251-.916-8.959-.524-12.686-2.616a37.9 37.9 0 0 1 9.22-17.656c6.082-6.54 10.594-9.548 18.31-19.553-.327 5.689 3.989 11.967 6.278 17.656 0 0 4.577-7.258 5.231-13.274.196 0 5.82-2.878 8.174-5.428 5.101 3.204 13.34-2.485 18.703-7.193 3.269 1.308 5.82 1.177 9.612 0-3.073 6.278 1.766 12.097 9.482 14.517.654 5.493 6.278 6.67 14.714 6.67.392 3.27 5.427 3.728 5.427 3.728-3.269 1.438-4.839 2.942-4.773 6.277-3.27 0-5.689.85-6.54 4.578-4.512.131-9.089.457-12.947 2.615-4.12-.588-9.155-2.288-12.36-5.623-1.634-1.374-2.092-3.401-4.969-4.186-1.831-2.157-4.055-1.7-4.774.393-1.897-1.504-9.024-2.158-10.267 4.577 3.401-2.419 6.343-3.335 8.501-.327-1.177 2.028 2.747 3.27 6.147 4.055 2.42.131 6.67 2.354 7.978 6.016a13.07 13.07 0 0 1-10.921-1.7 7.19 7.19 0 0 0-8.501-.523c-2.877-1.831-9.612 1.634-9.874 7.127 2.812-2.615 5.428-3.923 8.043-2.223-1.307.262-.85.392-.654 1.177l6.54 3.793c-3.27.85-6.278 2.158-4.839 8.174 0 0 2.615-5.231 8.501-3.27.131-.196.85 1.831 2.55.458 2.55-2.877 8.37-4.185 13.536-4.708 4.12-.458 8.24-1.7 11.771.654 3.27-1.635 6.801-2.747 10.463-.131 4.316 1.308 7.455 6.408 12.882 4.12 2.747-1.962 6.082-1.962 9.482 1.831 0-4.839-3.596-6.474-8.697-7.52l-3.531-2.093c-3.27-.523-6.539.065-9.874-1.504a60.36 60.36 0 0 0 37.731-27.727l8.174 2.878c1.962.13 2.093.784 6.082 1.961.131-5.82-2.42-11.836-12.948-12.424l-13.732-5.232c-3.008-3.139-4.316-9.743-.589-13.601 3.662-3.27 4.316-2.878 6.736-6.867 2.942-.261 5.689 2.747 8.37 2.747 1.308 3.858 8.763 7.193 13.471 6.081 2.943 2.616 8.501 4.055 14.713 1.962a11.9 11.9 0 0 0 13.406 1.962c1.438 1.439 4.447 2.616 7.847 1.831.327 0 1.831 3.793 5.558 5.166-1.634 1.569-.654 8.501 1.112 11.051a11.12 11.12 0 0 0-.588 8.305c-3.793 2.42-4.578 4.251-2.878 8.371-4.97 8.043-10.92 8.958-16.544 6.539l-6.082-3.924-6.408-6.277c-1.112-1.047-3.401-1.308-3.858.915 0 0-8.24-1.831-8.959 5.166 3.466-3.335 8.305-.392 8.305-.261 0 .13-1.177.915-.262 2.223.196-.196 6.082 2.158 11.248 4.381 2.812 1.112 3.466 1.439 4.708 2.093a225 225 0 0 0-4.708-2.093 21.5 21.5 0 0 0-7.194-1.896c-2.877-.262-6.016-.654-7.454 1.569-3.139 1.308-8.109 2.42-7.848 8.305 2.093-3.531 5.036-3.335 8.763-3.008l-.261.785c4.054 1.831 3.269-.523 7.062-.85a28.8 28.8 0 0 1 10.005 1.635c-2.943.85-6.997.457-8.893 2.615-.393.654-1.635.393-1.047 2.093 0 0-5.885-.131-7.389 7.847 5.885-3.727 10.397-3.597 10.463-3.597l1.896.393 7.193-4.774c.197 0 6.932-3.008 10.006.392 2.746 1.308 5.623 1.439 8.501-.261 5.493-2.42 10.659-2.616 15.694.785l4.643 2.746 1.962-1.308s5.231-1.438 9.024 3.204c-1.569-8.043-7.324-8.304-7.324-8.304l-1.308-1.178-8.109-3.204c-1.242-2.942-4.185-5.231-1.242-8.762 3.073-15.106 6.67-26.419.785-41.721 5.493 2.354 9.612 9.678 16.479 7.128 0-6.147-22.626-17.853-39.89-27.204 28.38-1.504 62.385-22.364 49.306-48.914l6.147-19.225c2.943 5.885 8.828 10.332 14.125 12.228-4.381-8.305-6.866-33.743-4.381-51.268a410 410 0 0 1-37.34 39.236c6.54 1.569 12.36.458 18.703-.327l-5.363 11.117c-17.394-10.267-37.797-2.616-37.927 10.986.588 15.825 20.141 18.114 31.454 12.555-2.224 14.452-35.443 9.155-35.443 9.155-11.771-4.054-22.953-3.4-35.313-3.269 2.551-7.913 16.806-14.975 27.727-11.837-15.237-17.132 2.158-38.385 23.149-44.86-22.887-7.585-3.204-25.045 13.929-37.535 0 0-49.241 20.73-53.753 20.664-13.994-1.046-10.202-17.656-4.839-26.549zM211.948 62.88c1.177 0 2.485.13 3.597.392 2.223.588 4.904.85 4.904 1.57-1.046 1.7-3.596 3.727-6.081 3.661-2.485-.13-3.924-1.635-4.708-5.362.261-.13 1.177-.261 2.288-.261m207.296 58.461c3.27 0 7.128 1.308 10.855 5.362-1.765 5.231-17.525 7.847-18.571.131-.327-2.354 3.008-5.428 7.716-5.493"/><path stroke="#000" stroke-width=".916" d="M381.905 237.413c-5.166-2.223-11.052-4.577-11.248-4.381-.915-1.308.262-2.093.262-2.223 0-.131-4.839-3.074-8.305.261.719-6.997 8.959-5.166 8.959-5.166.457-2.223 2.746-1.962 3.858-.915l6.408 6.277 6.082 3.924c5.624 2.419 11.574 1.504 16.544-6.539-1.7-4.12-.915-5.951 2.878-8.371a11.12 11.12 0 0 1 .588-8.305c-1.766-2.55-2.746-9.482-1.112-11.051-3.727-1.373-5.231-5.166-5.558-5.166-3.4.785-6.409-.392-7.847-1.831a11.91 11.91 0 0 1-13.406-1.962c-6.212 2.093-11.77.654-14.713-1.962-4.708 1.112-12.163-2.223-13.471-6.081-2.681 0-5.428-3.008-8.37-2.747-2.42 3.989-3.074 3.597-6.736 6.867-3.727 3.858-2.419 10.462.589 13.601l13.732 5.232c10.528.588 13.079 6.604 12.948 12.424-3.989-1.177-4.12-1.831-6.082-1.961l-8.174-2.878A60.362 60.362 0 0 1 312 242.187c3.335 1.569 6.604.981 9.874 1.504l3.531 2.093c5.101 1.046 8.697 2.681 8.697 7.52-3.4-3.793-6.735-3.793-9.482-1.831-5.427 2.288-8.566-2.812-12.882-4.12-3.662-2.616-7.193-1.504-10.463.131-3.531-2.354-7.651-1.112-11.771-.654-5.166.523-10.986 1.831-13.536 4.708-1.7 1.373-2.419-.654-2.55-.458-5.886-1.961-8.501 3.27-8.501 3.27-1.439-6.016 1.569-7.324 4.839-8.174l-6.54-3.793c-.196-.785-.653-.915.654-1.177-2.615-1.7-5.231-.392-8.043 2.223.262-5.493 6.997-8.958 9.874-7.127a7.19 7.19 0 0 1 8.501.523 13.1 13.1 0 0 0 10.921 1.7c-1.308-3.662-5.558-5.885-7.978-6.016-3.4-.785-7.324-2.027-6.147-4.055-2.158-3.008-5.1-2.092-8.501.327 1.243-6.735 8.37-6.081 10.267-4.577.719-2.093 2.943-2.55 4.774-.393 2.877.785 3.335 2.812 4.969 4.186 3.205 3.335 8.24 5.035 12.36 5.623 3.858-2.158 8.435-2.484 12.947-2.615.851-3.728 3.27-4.578 6.54-4.578-.066-3.335 1.504-4.839 4.773-6.277 0 0-5.035-.458-5.427-3.728-8.436 0-14.06-1.177-14.714-6.67-7.716-2.42-12.555-8.239-9.482-14.517-3.792 1.177-6.343 1.308-9.612 0-5.363 4.708-13.602 10.397-18.703 7.193-2.354 2.55-7.978 5.428-8.174 5.428-.654 6.016-5.231 13.274-5.231 13.274-2.289-5.689-6.605-11.967-6.278-17.656-7.716 10.005-12.228 13.013-18.31 19.553a37.9 37.9 0 0 0-9.22 17.656c3.727 2.092 8.435 1.7 12.686 2.616l1.308 1.307c4.446.066 7.716 2.616 7.716 7.194-3.989-4.12-8.043-1.57-8.043-1.57-3.27 2.747-7.455 1.504-11.444 0-3.466-3.662-8.501-5.754-12.752-2.615-5.1 4.185-7.454-2.224-15.367 2.223-5.689 5.166-13.536 5.624-15.694 2.485 0 0-3.924-1.504-9.417 4.381 1.57-9.613 7.455-8.697 7.455-8.697l-.262-3.008-2.288-.785c-3.924-1.766-8.894-1.373-11.117.523 1.504-6.343 7.389-6.343 11.705-5.689l2.354-2.616c-1.765-.719-1.373-1.896-.915-3.139-2.42-2.419-4.185-2.942-7.259-.392.981-6.147 6.801-5.754 10.79-3.008 2.158-1.373 6.997 1.177 10.005 2.943 9.351 3.204 15.171 3.596 24.653-8.501.066-5.755.393-7.978 5.493-11.444-1.962-3.466-.915-6.997 3.924-8.697-1.7-1.57-.327-3.989.85-6.54-6.8-.4-13.617.397-20.141 2.354a35.3 35.3 0 0 1-8.043 14.845c.13-14.256-8.175-24.392-18.18-35.116-11.443-7.521-16.544-22.692-17.46-27.662-2.092 5.559-3.596 6.474-3.596 6.671-2.551 2.746-.85 9.024-6.082 9.155-4.97 6.016-10.855 2.484-10.855 2.484 5.624-.784 6.605-3.073 7.651-6.8-3.531-.851-.458-3.793 1.308-4.905 1.046-.196 3.858-7.193 5.624-6.997l2.223-20.729c-4.512-1.831-7.52-4.774-7.193-9.809-1.7-2.158-2.812-5.297-.589-6.474-.915-2.551-2.158-5.428-5.885-6.409 8.697-1.504 9.743 3.728 11.967 4.185 2.55 1.504 4.316 10.267 7.389 14.845a27 27 0 0 1 1.177-19.161c0-3.596-1.504-7.062-4.97-9.09 7.39-.13 10.398 7.456 10.659 7.717 4.643 6.082-1.634 10.332.393 13.013 1.438-1.046 2.158-3.531 4.316-3.269 1.831-1.962 3.139-4.055 3.008-8.501 4.577 2.55 3.466 6.343 1.962 10.07.327 5.624-.458 7.128-4.186 9.09-3.662 2.223-4.381 4.054-3.923 6.67 4.447 4.839 5.427 19.618 5.427 19.618a8.04 8.04 0 0 1 5.886 8.501c4.25-.393 8.174 2.877 8.828 5.885 2.485-2.354 6.016-.196 8.501 2.354.85-1.308 2.746-1.896 4.774-1.177 0-2.354 1.308-3.727 3.4-5.689-5.101-3.989-6.539-13.732-.785-19.029-1.177-7.194 1.047-13.929 4.709-14.714-1.112-7.912 3.531-10.397 5.427-12.294-1.242-3.596 2.747-10.201 5.036-10.201-2.289-3.793 1.896-10.594 5.231-11.117l-2.223-5.231s-10.725 1.635-12.687 11.444c-1.307-2.028-2.615-5.101-2.615-5.101s-4.251 11.378-4.382 11.117c-3.727-2.224-2.092-7.717-2.092-7.717-2.616-2.942-2.158-6.67-3.27-10.005l-30.081-1.308 3.401 6.147c-3.597.066-20.991-14.778-24.326-27.465 8.893 6.997 18.44 8.828 28.511 10.92l-7.978 3.924c27.727 2.42 56.434-2.746 56.303-2.811-3.139-6.54-13.34-6.54-13.34-6.54v4.382l-2.746-1.962-.131 3.27-2.093-1.44-.654 2.747-2.092-1.438-.916 2.485-2.354-1.831s-2.027 0-2.158-.262c-1.242-6.605-7.455-6.735-7.455-6.735-7.324-.916-12.947.653-19.487.915 9.548-11.901 22.626-10.79 35.116-12.098.916-5.296 5.559-6.866 11.052-7.585l25.765 1.308c3.335-4.382 13.536-6.213 13.536-6.213 3.662-1.765 7.585-.98 10.855-5.362-.85 5.95-.915 7.193-1.308 10.79l3.27.392c-3.008 1.897-6.997 4.643-9.94 6.605-3.335 4.97-2.681 5.1-1.242 7.716l3.008 5.297c5.1 1.57 8.828 3.728 10.005 7.063-5.559-.654-9.547.392-9.482 2.746.131 1.766 4.316 2.55 6.016 3.662 3.204 2.943 4.251 5.559 4.381 9.286-4.054-.262-9.416-6.343-12.228-.654-1.373 2.746.131 6.474 3.662 7.716 6.474 1.766 7.128 10.725 6.997 10.725s-14.256-9.482-13.602-.654c-.196 3.923 1.57 4.708 3.074 5.885 4.185 1.57 7.847 3.401 7.389 7.847-6.147-2.158-9.024-.457-9.743 3.074l2.354 6.801 24.718-4.97c3.597-3.27 5.232-8.763 4.839-14.648.458-8.697-2.681-16.414 8.436-26.157A453.7 453.7 0 0 1 366.537 43h.066c-5.363 8.893-9.155 25.503 4.839 26.55 4.512.065 53.753-20.665 53.753-20.665-17.133 12.49-36.816 29.95-13.929 37.536-20.991 6.474-38.386 27.727-23.149 44.859-10.921-3.138-25.176 3.924-27.727 11.837 12.36-.131 23.542-.785 35.313 3.269 0 0 33.219 5.297 35.443-9.155-11.313 5.559-30.866 3.27-31.454-12.555.13-13.602 20.533-21.253 37.927-10.986l5.363-11.117c-6.343.785-12.163 1.896-18.703.327a410 410 0 0 0 37.34-39.236c-2.485 17.525 0 42.963 4.381 51.268-5.297-1.896-11.182-6.343-14.125-12.228l-6.147 19.225c13.079 26.55-20.926 47.41-49.306 48.914 17.264 9.351 39.89 21.057 39.89 27.204-6.867 2.55-10.986-4.774-16.479-7.128 5.885 15.302 2.288 26.615-.785 41.721-2.943 3.531 0 5.82 1.242 8.762l8.109 3.204 1.308 1.178s5.755.261 7.324 8.304c-3.793-4.642-9.024-3.204-9.024-3.204l-1.962 1.308-4.643-2.746c-5.035-3.401-10.201-3.205-15.694-.785-2.878 1.7-5.755 1.569-8.501.261-3.074-3.4-9.809-.392-10.006-.392l-7.193 4.774-1.896-.393c-.066 0-4.578-.13-10.463 3.597 1.504-7.978 7.389-7.847 7.389-7.847-.588-1.7.654-1.439 1.047-2.093 1.896-2.158 5.95-1.765 8.893-2.615a28.8 28.8 0 0 0-10.005-1.635c-3.793.327-3.008 2.681-7.062.85l.261-.785c-3.727-.327-6.67-.523-8.763 3.008-.261-5.885 4.709-6.997 7.848-8.305 1.438-2.223 4.577-1.831 7.454-1.569 2.49.208 4.925.85 7.194 1.896Zm0 0c2.812 1.112 3.466 1.439 4.708 2.093a225 225 0 0 0-4.708-2.093ZM211.948 62.88c1.177 0 2.485.13 3.597.392 2.223.588 4.904.85 4.904 1.57-1.046 1.7-3.596 3.727-6.081 3.661-2.485-.13-3.924-1.635-4.708-5.362.261-.13 1.177-.261 2.288-.261Zm207.296 58.461c3.27 0 7.128 1.308 10.855 5.362-1.765 5.231-17.525 7.847-18.571.131-.327-2.354 3.008-5.428 7.716-5.493Z"/><path stroke="#000" stroke-linejoin="round" stroke-width=".916" d="m228.231 108.655 2.42 3.466m-.131.065s0 4.708.981 4.774m-2.158 2.55 2.485 4.12m-6.866 1.046c.13 0 3.073 3.4 3.073 3.4m2.55-2.615c0 .131 2.747 5.297 2.943 5.297m-6.539-1.701s.915 6.278 1.765 6.082m-5.885 5.428 2.747 4.25m2.419-8.697s1.504 5.951 2.681 5.427m1.243-9.024c.065.131 2.812 3.989 3.531 3.466m-.654 1.504 2.616 5.232m-6.932-1.178 2.158 6.147m-7.193-3.008s1.962 6.605 3.727 5.559m-4.447 3.269s.131 3.466 1.831 3.662m1.177-5.427c0 .131 1.766 2.485 1.766 2.485m3.27-6.605 1.373 2.289m3.204-6.54 2.158 2.682m-12.228-33.809c.065 2.943 4.708-1.046 6.539-3.531m-8.501 13.733s5.035-3.597 8.959-9.025m-10.659 17.591c3.596-.981 10.201-8.959 11.509-13.209m-12.229 21.122c.981.457 13.275-8.501 13.602-14.975m-13.929 21.841c0-.065 11.248-2.877 15.891-15.237m-16.414 24.588s17.983-10.79 18.964-18.702m121.239 36.816s-1.177 9.286-10.463 10.724m13.405 5.886c.066-.131 8.894-9.809 6.605-12.752m13.798 3.401s-.131 6.735-5.624 11.378m16.61-9.417s.196 8.109-3.27 11.379m13.341-6.54s-3.924 7.651-5.297 8.436m5.166 5.101s5.1 1.308 6.735-2.093m-5.427 13.144s4.708.85 6.931-3.662m-7.454 12.229s3.858 3.269 6.473-1.047m-61.469-61.731s-.458 16.545 22.757 19.88c25.961 7.193 38.255 3.4 39.759 32.5-.981 11.117-2.354 23.542-10.463 18.768m-76.771-55.911s3.727 6.605 8.174 6.147c5.885-1.7 8.043 1.896 8.043 1.896m-32.043-1.438s9.809 4.773 18.114-2.943m-17.002-3.924c.85 11.444-13.144 17.984-18.702 16.872m19.356 26.811c.065 0 7.586-4.447 6.082-7.586m-20.992.981c.197-.261 12.621-1.438 14.91-5.885m-20.664-12.425s17.591.131 18.768 3.335m4.577-13.732s-17.133 29.361 14.517 29.361m-32.696-29.754s-3.662 10.921-8.894 14.648m-9.285-18.44s6.343 12.293 0 18.375m-16.61-14.91c.065.197 2.027 17.46-2.289 22.365m-6.016-21.841s.654 10.986-2.616 14.909.785 12.032.785 12.032m-39.563 5.232s2.354 4.12 5.559 2.681m-1.635-11.64s5.231 2.289 6.997 1.439m-1.308-19.88s-7.716 2.158-4.774 11.313c4.447 3.597 8.763 3.008 8.763 3.008M207.959 224.4c-.065 0 .916 7.194 5.886 1.766 3.466-7.324 14.386-27.857 16.937-34.92m5.1-3.335s-5.297-4.12-5.1 1.635c-.131 3.596 1.634 4.447 1.634 4.447.197 2.615 2.485 6.277 4.316 2.942.785-3.269-.523-4.708-.523-4.708m3.074-5.885c-4.774-.262-7.39 10.266 1.831 3.662m3.139-7.194s-1.178 1.635-3.074-.13c-.981-1.701-4.447 7.847 1.635 8.174 1.112-2.812 4.447-3.597 4.447-3.597m2.877-9.024s-2.747 1.308-3.728 1.112c-3.269.719-2.615 8.37 1.505 7.912 1.438-1.635 2.942-3.923 2.942-3.923m-26.353-15.041c-.131 0-10.79 16.806 5.951 21.253m129.478-46.429s-6.54 5.493-.458 14.386c-20.272-.327-31.062 9.025-31.912 15.302-25.765-1.831-21.056 5.755-29.427 8.24-11.182-9.351-27.596-4.12-26.549 5.231-7.455-10.528-18.964-5.427-20.403-2.812-1.373 2.616-.85-12.948-.85-12.948s-7.52 3.401-12.686 9.548v-13.013c-6.278 1.308-12.359 1.308-18.833 1.177m-16.937-4.774s9.351 5.231 20.926-1.831m-21.645-16.937s7.193 6.54 20.925 4.447m-16.348-19.422s1.57 5.297 17.198 5.624m-11.966-17.918s5.885 7.194 13.863 6.082m-8.828-16.348s2.289 3.923 10.986 4.577m-5.886-16.021s4.578 4.97 9.809 4.12m17.329-44.729s2.028-1.962 5.428-.98m-6.866 11.639s-6.278-.196-5.886-2.616c.524-2.877 6.671-4.904 6.671-4.904s8.174-5.232 9.416-7.063m-37.012 28.773 7.978 15.237 3.792-5.755 1.962 3.924 3.27-5.69 5.624 3.597-2.093-6.997 4.708-.327s-1.307-3.335-5.493-4.054c1.112-.85 5.036-3.466 5.036-3.466s-2.224-2.616-5.755-2.681c1.177-1.242 2.747-4.25 2.616-4.25l-3.466-.785s7.978 2.615 14.125-1.047M237.125 55.36c.065.066-.458 3.14-2.158 4.905M206.39 63.73s4.904-1.308 8.566-.589c3.662.785 8.567 2.093 8.567 2.093s5.885-.785 7.782-2.158m-37.143 3.923s-.654 2.355-.916 3.924c0 1.112-3.597 2.616-3.597 2.616m6.736-11.379s3.139 3.924 3.27 6.213c.065 2.223-2.355 3.923-2.355 3.923m-33.415 16.61-3.27-5.231 2.943-1.047m59.18 79.126c-2.615-3.401 1.962-55.061 11.575-68.532-3.335 24.326 7.847 49.176 10.659 49.045m-51.661-63.431s4.447 1.634 13.537-5.624m12.359 17.525 6.539.066m196.375-40.544s-109.01 50.876-110.579 53.622c18.375-5.624 96.454-18.637 98.351-17.525-4.578 1.112-99.332 22.887-103.779 28.119 23.672-.785 73.175 7.585 80.957 15.694-16.872-3.793-67.159-11.182-82.592-7.912 11.248 2.681 54.407 30.603 54.407 35.05-6.539-6.212-58.396-27.596-60.423-25.503 11.902 7.128 28.708 33.612 28.708 40.086-3.466-5.493-33.481-37.732-35.247-35.639 3.204 4.381 9.482 42.44 6.278 44.205 0-4.577-11.64-37.928-12.621-38.843-2.354.654-17.198 40.543-14.256 44.336-1.962-13.34.327-41.197 3.924-40.086-6.54.981-27.269 28.381-25.046 32.697.654-6.866 1.57-11.379 13.34-34.07-13.078.785-40.02 17.722-44.598 23.803 3.662-10.79 26.485-29.034 36.49-30.342m47.083-39.694c11.509-6.408 47.083-19.421 70.886-29.034m-93.251 63.431s7.847-.131 15.695-21.449c7.716-29.165 69.12-61.665 70.362-67.747M176.309 162.015s-1.831 3.924-4.054 4.97m12.882.916s-2.419 4.708-3.008 6.931m11.444-4.577s1.962 6.408.327 9.417m-23.803-26.223c-6.147 3.466 3.531 25.503 32.762 27.596m-4.709-11.902s-.784 3.924 4.709 11.771c-1.57 8.763 6.67 15.629 9.94 16.741M195.796 90.279l.916-2.354.981 2.616 1.635-.066 1.046-2.615.915 2.615h1.57l.981-2.877 1.504 2.747h1.308l.98-3.27 1.962 2.354.785-.261.654-3.4 2.027 2.353.654-.327.916-3.27 1.634 2.42.85-.261.785-2.812 1.57 2.616m-25.504 4.054 12.294-.196c3.924 0 10.332-5.428 17.46-3.728m-55.518 30.081s2.027 4.447 4.839 1.962m-9.548.981s-3.923 10.593.785 13.078m-6.409-24.718s0 2.485 5.232-1.308m-21.253 56.696s4.12 1.308 3.466 4.381m-1.962-52.837s2.616 1.242 5.101-2.616m22.364 124.05c3.989-.261 4.905 1.57 8.501 1.57 4.316.13 8.436-1.57 13.733-3.074m34.723 9.809c-.13 0-1.961 3.793-.326 5.689m-57.219-5.362s6.408-5.231 9.809-2.027c3.204 1.112 4.97.915 4.97.915m-11.444-13.928s1.569 4.054-3.662 3.466m-1.57 5.885s3.335 2.092-.457 4.904m2.484 3.793s4.578.654 1.897 4.381m142.164-26.091c4.643 3.727 2.747 5.95 17.395-3.858m-24.065 8.501s6.866 7.454 11.902-1.57m-25.046 4.251-9.351 4.904m-16.741 6.866s5.689-4.839 8.305-2.288c2.681 2.615 13.929-2.224 13.929-2.224m-17.983-16.609s1.962 3.923-1.831 4.381m-5.559 7.782s1.962 3.662-1.831 4.577m6.213 5.297s5.885.327 3.793 4.774m51.268-5.559s-3.27 2.747-.85 5.886m47.736-25.504s3.728 1.831-.719 4.905m-3.727 6.474s2.812 2.942.915 5.362m6.932 5.885s3.858 1.112 3.4 4.316m50.876-7.193s-3.27 2.42-1.504 5.493m-56.042-99.92c7.717-.916 18.833 16.348 24.523 19.683m33.938-44.075s3.924 3.466.458 11.771m6.801-24.98c1.112.85 5.297 3.139 8.109 8.37m2.681-34.135-5.428 14.713m11.509-15.432s-1.046 13.078-2.615 15.694M318.866 220.084s12.425 1.308 13.078 2.224c1.439-1.504 12.556-10.594-1.111-11.836a12.426 12.426 0 0 1-11.967 9.612Zm111.168-93.381c-1.766 5.232-17.525 7.847-18.572.131-.588-3.924 9.286-10.005 18.572-.131Z"/><path fill="#000" stroke="#000" stroke-linejoin="round" stroke-width=".916" d="m211.817 62.945 6.082 1.111s-4.251 5.755-6.082-1.111Z"/></g><defs><clipPath id="a"><path fill="#fff" d="M0 0h600v300H0z"/></clipPath></defs></svg>