<svg xmlns="http://www.w3.org/2000/svg" width="600" height="300" fill="none"><g clip-path="url(#a)"><mask id="b" width="600" height="300" x="0" y="0" maskUnits="userSpaceOnUse" style="mask-type:luminance"><path fill="#fff" d="M0 0v300h600V0z"/></mask><g mask="url(#b)"><path fill="#012169" d="M0 0v300h600V0z"/><path fill="#000" d="m0 0 600 300Zm600 0L0 300Z"/><path stroke="#fff" stroke-width="60" d="m0 0 600 300m0-300L0 300"/><mask id="c" width="600" height="300" x="0" y="0" maskUnits="userSpaceOnUse" style="mask-type:luminance"><path fill="#fff" d="M300 150h300v150zm0 0v150H0zm0 0H0V0zm0 0V0h300z"/></mask><g mask="url(#c)"><path fill="#000" d="m0 0 600 300Zm600 0L0 300Z"/><path stroke="#C8102E" stroke-width="40" d="m0 0 600 300m0-300L0 300"/></g><path fill="#000" d="M300 0v300ZM0 150h600Z"/><path stroke="#fff" stroke-width="100" d="M300 0v300M0 150h600"/><path fill="#000" d="M300 0v300ZM0 150h600Z"/><path stroke="#C8102E" stroke-width="60" d="M300 0v300M0 150h600"/></g></g><defs><clipPath id="a"><path fill="#fff" d="M0 0h600v300H0z"/></clipPath></defs></svg>