<svg xmlns="http://www.w3.org/2000/svg" width="600" height="300" fill="none"><g clip-path="url(#a)"><path fill="#fff" d="M0 0h600v300H0z"/><path fill="#0038A8" d="M249.375 33.313H600v33.375H249.375zm0 66.687H600v33.312H249.375zM0 166.688h600V200H0zm0 66.624h600v33.376H0z"/><path fill="#FCD116" d="m119.818 99.609 6.273 9.409c-25.928 18.818-10.246 29.691-28.437 35.545 11.291-10.873-1.882-11.918 7.737-35.127"/><path stroke="#000" stroke-linecap="square" stroke-miterlimit="20" stroke-width="1.255" d="m119.818 99.609 6.273 9.409c-25.928 18.818-10.246 29.691-28.437 35.545 11.291-10.873-1.882-11.918 7.737-35.127"/><path stroke="#000" stroke-miterlimit="20" stroke-width="1.255" d="M115.218 102.327C101 125.745 110.2 138.709 97.654 144.772"/><path fill="#FCD116" d="M124 81h12.545L124 150l-12.546-69zv69Z"/><path stroke="#000" stroke-miterlimit="20" stroke-width="1.255" d="M124 81h12.545L124 150m0-69h-12.546L124 150m0-69v69"/><path fill="#FCD116" d="m107.884 91.201-2.218 11.089c-31.64-5.027-28.239 13.75-45.242 5.027 15.672.296 7.097-9.758 30.31-19.368"/><path stroke="#000" stroke-linecap="square" stroke-miterlimit="20" stroke-width="1.255" d="m107.884 91.201-2.218 11.089c-31.64-5.027-28.239 13.75-45.242 5.027 15.672.296 7.097-9.758 30.31-19.368"/><path stroke="#000" stroke-miterlimit="20" stroke-width="1.255" d="M102.708 89.87c-26.612 6.506-29.274 22.178-42.432 17.595"/><path fill="#FCD116" d="m123.999 81 8.871 8.87-57.662 39.92 39.92-57.661zl-48.79 48.791Z"/><path stroke="#000" stroke-miterlimit="20" stroke-width="1.255" d="m123.999 81 8.871 8.87-57.662 39.92M124 81l-8.871-8.871-39.92 57.661M124 81l-48.79 48.79"/><path fill="#FCD116" d="m105.391 76.818-9.41 6.273c-18.818-25.928-29.69-10.246-35.545-28.437 10.873 11.291 11.918-1.882 35.127 7.736"/><path stroke="#000" stroke-linecap="square" stroke-miterlimit="20" stroke-width="1.255" d="m105.391 76.818-9.41 6.273c-18.818-25.928-29.69-10.246-35.545-28.437 10.873 11.291 11.918-1.882 35.127 7.736"/><path stroke="#000" stroke-miterlimit="20" stroke-width="1.255" d="M102.673 72.218C79.255 58 66.291 67.2 60.227 54.654"/><path fill="#FCD116" d="M124 81v12.545L55 81l69-12.546zH55Z"/><path stroke="#000" stroke-miterlimit="20" stroke-width="1.255" d="M124 81v12.545L55 81m69 0V68.454L55 81m69 0H55"/><path fill="#FCD116" d="m113.799 64.884-11.089-2.218c5.027-31.64-13.75-28.239-5.027-45.242-.296 15.672 9.758 7.097 19.368 30.31"/><path stroke="#000" stroke-linecap="square" stroke-miterlimit="20" stroke-width="1.255" d="m113.799 64.884-11.089-2.218c5.027-31.64-13.75-28.239-5.027-45.242-.296 15.672 9.758 7.097 19.368 30.31"/><path stroke="#000" stroke-miterlimit="20" stroke-width="1.255" d="M115.128 59.709c-6.505-26.613-22.177-29.274-17.594-42.433"/><path fill="#FCD116" d="m124 81-8.871 8.87-39.92-57.661 57.662 39.92zL75.21 32.21Z"/><path stroke="#000" stroke-miterlimit="20" stroke-width="1.255" d="m124 81-8.871 8.87-39.92-57.661M124 80.999l8.871-8.87-57.661-39.92M124 80.999 75.21 32.21"/><path fill="#FCD116" d="m128.181 62.39-6.273-9.409c25.928-18.818 10.246-29.69 28.437-35.545-11.291 10.873 1.882 11.918-7.737 35.127"/><path stroke="#000" stroke-linecap="square" stroke-miterlimit="20" stroke-width="1.255" d="m128.181 62.39-6.273-9.409c25.928-18.818 10.246-29.69 28.437-35.545-11.291 10.873 1.882 11.918-7.737 35.127"/><path stroke="#000" stroke-miterlimit="20" stroke-width="1.255" d="M132.781 59.672c14.218-23.418 5.018-36.381 17.564-42.445"/><path fill="#FCD116" d="M123.999 81h-12.545l12.545-69 12.546 69zV12Z"/><path stroke="#000" stroke-miterlimit="20" stroke-width="1.255" d="M123.999 81h-12.545l12.545-69m0 69h12.546l-12.546-69m0 69V12"/><path fill="#FCD116" d="m140.115 70.798 2.218-11.088c31.64 5.027 28.239-13.75 45.242-5.027-15.672-.296-7.097 9.758-30.309 19.368"/><path stroke="#000" stroke-linecap="square" stroke-miterlimit="20" stroke-width="1.255" d="m140.115 70.798 2.218-11.088c31.64 5.027 28.239-13.75 45.242-5.027-15.672-.296-7.097 9.758-30.309 19.368"/><path stroke="#000" stroke-miterlimit="20" stroke-width="1.255" d="M145.291 72.129c26.613-6.505 29.274-22.178 42.432-17.594"/><path fill="#FCD116" d="m124 81-8.871-8.871 57.661-39.92-39.919 57.662zl48.79-48.79Z"/><path stroke="#000" stroke-miterlimit="20" stroke-width="1.255" d="m124 81-8.871-8.871 57.661-39.92M124 81l8.871 8.871L172.79 32.21M124 81l48.79-48.79"/><path fill="#FCD116" d="m142.609 85.181 9.409-6.272c18.819 25.927 29.691 10.245 35.546 28.436-10.873-11.29-11.918 1.882-35.127-7.736"/><path stroke="#000" stroke-linecap="square" stroke-miterlimit="20" stroke-width="1.255" d="m142.609 85.181 9.409-6.272c18.819 25.927 29.691 10.245 35.546 28.436-10.873-11.29-11.918 1.882-35.127-7.736"/><path stroke="#000" stroke-miterlimit="20" stroke-width="1.255" d="M145.327 89.781c23.418 14.219 36.382 5.018 42.446 17.564"/><path fill="#FCD116" d="M124 81V68.454L193 81l-69 12.545zh69Z"/><path stroke="#000" stroke-miterlimit="20" stroke-width="1.255" d="M124 81V68.454L193 81m-69 0v12.545L193 81m-69 0h69"/><path fill="#FCD116" d="m134.201 97.115 11.089 2.218c-5.027 31.64 13.75 28.239 5.027 45.242.296-15.672-9.758-7.097-19.368-30.309"/><path stroke="#000" stroke-linecap="square" stroke-miterlimit="20" stroke-width="1.255" d="m134.201 97.115 11.089 2.218c-5.027 31.64 13.75 28.239 5.027 45.242.296-15.672-9.758-7.097-19.368-30.309"/><path stroke="#000" stroke-miterlimit="20" stroke-width="1.255" d="M132.872 102.29c6.505 26.613 22.177 29.274 17.594 42.433"/><path fill="#FCD116" d="m124 81 8.871-8.871 39.919 57.661-57.661-39.92zl48.79 48.79Z"/><path stroke="#000" stroke-miterlimit="20" stroke-width="1.255" d="m124 81 8.871-8.871 39.919 57.661M124 81l-8.871 8.87 57.661 39.92M124 81l48.79 48.79"/><path fill="#FCD116" stroke="#000" stroke-miterlimit="20" stroke-width="1.255" d="M124 104c12.703 0 23-10.298 23-23s-10.297-23-23-23-23 10.297-23 23 10.297 23 23 23Z"/><path fill="#000" d="M140.936 71.8c-1.464 1.672-2.3-1.255-7.527-1.255s-6.064 3.137-6.9 2.51 4.391-4.392 6.063-4.6c1.673-.21 6.482 1.463 8.364 3.345m-6.064 1.882c1.464 1.254.21 3.972-1.254 3.972s-4.182-2.509-2.927-4.181"/><path fill="#000" d="M127.973 75.564c.209-2.51 2.3-2.928 5.645-2.928s4.809 2.51 6.064 3.137c-1.464 0-2.719-2.091-6.064-2.091s-3.345 0-5.645 2.09m.627.419c.836-1.255 1.882 1.254 4.182 1.254s3.554-.627 5.018-1.672c1.463-1.046-2.091 2.509-4.391 2.509s-5.436-1.255-4.809-2.091"/><path fill="#000" d="M135.709 77.445c2.719-1.463 1.046-3.554 0-3.972.419.418 2.091 2.509 0 3.972m-11.708 12.546c1.254 0 1.672-.419 3.345-.419s5.645 2.3 7.945 1.464c-4.809 1.882-2.927.627-11.29.627h-1.046m13.173 1.255c-.837-1.464-.628-1.046-2.3-3.346 1.672 1.255 2.091 1.882 2.3 3.346m-12.127 2.09c5.227 0 4.39-1.045 11.29-3.972-5.018.627-6.063 2.3-11.29 2.3h-1.046m1.046-6.064c1.463 0 1.881-1.045 3.554-1.045s3.973.627 5.018 1.464c.209.209-.627-1.673-2.3-1.882-1.673-.21-1.045-2.927-2.927-3.346 0 .837.627.628.836 1.882 0 1.046-1.882 1.046-2.3 0 .418 1.673-.836 1.673-1.881 1.673M107.064 71.8c1.464 1.672 2.3-1.255 7.527-1.255s6.064 3.137 6.9 2.51-4.391-4.392-6.063-4.6c-1.673-.21-6.482 1.463-8.364 3.345m6.064 1.882c-1.464 1.254-.21 3.972 1.254 3.972s4.182-2.509 2.927-4.181"/><path fill="#000" d="M120.027 75.564c-.209-2.51-2.3-2.928-5.645-2.928s-4.809 2.51-6.064 3.137c1.464 0 2.719-2.091 6.064-2.091s3.345 0 5.645 2.09m-.627.419c-.836-1.255-1.882 1.254-4.182 1.254s-3.554-.627-5.018-1.672c-1.463-1.046 2.091 2.509 4.391 2.509s5.436-1.255 4.809-2.091"/><path fill="#000" d="M112.291 77.445c-2.718-1.463-1.045-3.554 0-3.972-.418.418-2.09 2.509 0 3.972M124 89.991c-1.254 0-1.672-.419-3.345-.419s-5.645 2.3-7.945 1.464c4.809 1.882 2.927.627 11.29.627h1.046m-13.173 1.255c.837-1.464.628-1.046 2.3-3.346-1.672 1.255-2.091 1.882-2.3 3.346M124 95.008c-5.227 0-4.39-1.045-11.29-3.972 5.018.627 6.063 2.3 11.29 2.3h1.046M124 87.272c-1.463 0-1.881-1.045-3.554-1.045s-3.973.627-5.018 1.464c-.209.209.627-1.673 2.3-1.882 1.673-.21 1.045-2.927 2.927-3.346 0 .837-.627.628-.836 1.882 0 1.046 1.881 1.046 2.3 0-.419 1.673.836 1.673 1.881 1.673M124 96.89c-1.045 0-3.763.628 0 .628s1.046-.627 0-.627"/></g><defs><clipPath id="a"><path fill="#fff" d="M0 0h600v300H0z"/></clipPath></defs></svg>