<svg xmlns="http://www.w3.org/2000/svg" width="600" height="300" fill="none" viewBox="0 0 600 300"><g clip-path="url(#a)"><path fill="#bf0a30" d="M0 0h600v300H0z"/><path fill="#002868" d="M108 148.812 299.206 278 492 148.561 299.206 22z"/><path fill="#fff" d="m155.615 149.107 143.787 97.149 144.981-97.337-144.981-95.175z"/><path fill="#002868" d="M221.332 144.894h8.023l1.392 4.481h4.936l-7.659-21.737h-5.239l-7.75 21.737h4.783zm3.996-12.352h.061l2.694 8.598h-5.54zm13.282 16.833h4.449v-8.507h4.693q2.427-.021 3.031.946t.511 3.171q.002 1.649.129 2.649.126 1.001.355 1.741h5.026v-.575q-.697-.212-.848-1.109-.151-.898-.121-3.221-.005-2.933-.707-3.981-.703-1.047-2.048-1.529 1.621-.576 2.486-1.964t.875-3.213q.033-.999-.489-2.427-.523-1.428-2.01-2.543-1.485-1.113-4.344-1.175h-10.989v21.737zm4.449-12.171v-5.812h5.662q1.947.07 2.588.991.642.922.59 1.854.002 1.597-.87 2.29-.873.693-2.642.677zm22.303 4.814 2.119-2.179 6.721 9.536h5.843l-9.385-12.837 8.87-8.9h-5.873l-8.295 8.84v-8.84h-4.542v21.737h4.542zm21.606 2.876h8.022l1.393 4.481h4.935l-7.659-21.737h-5.238l-7.751 21.737h4.784zm3.996-12.352h.061l2.693 8.598h-5.54zm26.541 10.233h-.062l-8.627-15.137h-4.784v21.737h4.239v-15.501h.061l8.87 15.501h4.541v-21.737h-4.239zm7.498-.091q-.048 1.408.647 3.082t2.712 2.899 5.935 1.285q1.06.05 3.069-.391 2.01-.442 3.701-1.973t1.798-4.751q-.078-2.86-1.733-4.113t-3.959-1.73l-5.298-1.3a4.2 4.2 0 0 1-1.491-.58q-.751-.457-.809-1.692.074-1.454 1.244-2.039a5.4 5.4 0 0 1 2.539-.564q2.87.113 3.667 1.27.798 1.16.784 1.999h4.36q.013-1.389-.731-3.004-.746-1.618-2.595-2.791t-5.151-1.229q-3.486.057-5.302 1.196t-2.456 2.683-.599 2.812q.104 3.462 2.135 4.681 2.032 1.22 4.768 1.707l2.332.545q1.755.367 2.83.916t1.106 1.779q-.083 1.685-1.465 2.27-1.382.584-3.077.545-2.888-.107-3.777-1.302t-.824-2.21zm25.945 2.21h8.023l1.392 4.481h4.935l-7.66-21.737h-5.237l-7.751 21.737h4.784zm3.995-12.352h.062l2.693 8.598h-5.54zm12.161 10.142q-.048 1.408.647 3.082t2.712 2.899q2.019 1.225 5.935 1.285 1.06.05 3.069-.391 2.01-.442 3.702-1.973 1.69-1.531 1.797-4.751-.077-2.86-1.733-4.113t-3.958-1.73l-5.299-1.3a4.2 4.2 0 0 1-1.491-.58q-.752-.457-.809-1.692.074-1.454 1.245-2.039a5.4 5.4 0 0 1 2.539-.564q2.87.113 3.666 1.27.8 1.16.784 1.999h4.36q.014-1.389-.732-3.004-.744-1.618-2.594-2.791t-5.151-1.229q-3.487.057-5.301 1.196-1.817 1.14-2.456 2.683-.64 1.544-.599 2.812.102 3.462 2.134 4.681 2.033 1.22 4.769 1.707l2.33.545q1.757.367 2.832.916t1.105 1.779q-.083 1.685-1.465 2.27-1.382.584-3.077.545-2.888-.107-3.776-1.302-.89-1.196-.826-2.21z"/><path fill="#fff" d="m304.591 47.58-5.653-4.096-5.644 4.116 2.146-6.647-5.655-4.1 6.979-.012 2.15-6.65 2.169 6.64 6.982-.01-5.64 4.117z"/><path fill="#002868" d="M310.203 190.96 300 198.211l-10.216-7.245 3.902 11.728-10.206 7.258 12.615-.003 3.909 11.731 3.895-11.729 12.62-.009-10.207-7.246zM277.166 190.96l-10.205-7.251-10.215 7.245 3.902-11.728-10.205-7.258 12.615.003 3.909-11.731 3.894 11.729 12.621.009-10.208 7.246z"/><path fill="#fff" d="m290.765 245.786-4.096 5.653 4.116 5.644-6.647-2.146-4.1 5.655-.012-6.979-6.649-2.149 6.64-2.169-.011-6.981 4.117 5.639zM308.211 245.786l4.096 5.653-4.116 5.644 6.647-2.146 4.1 5.655.013-6.979 6.648-2.149-6.639-2.169.01-6.981-4.116 5.639z"/><path fill="#002868" d="m343.242 190.96-10.204-7.251-10.216 7.245 3.902-11.728-10.204-7.258 12.614.003 3.909-11.731 3.894 11.729 12.621.009-10.207 7.246zM310.203 103.92l-10.204-7.251-10.216 7.245 3.902-11.728-10.205-7.258 12.615.003 3.909-11.731 3.894 11.729 12.621.01-10.207 7.245z"/><path fill="#fff" d="m445.877 123.93-4.096 5.654 4.115 5.643-6.647-2.145-4.1 5.654-.012-6.978-6.649-2.15 6.64-2.169-.01-6.981 4.116 5.639zM418.23 105.498l-4.096 5.653 4.116 5.644-6.647-2.146-4.1 5.655-.012-6.979-6.649-2.149 6.639-2.169-.01-6.981 4.117 5.639zM390.582 87.066l-4.096 5.653 4.115 5.644-6.646-2.146-4.101 5.655-.012-6.979-6.649-2.149 6.64-2.169-.01-6.981 4.116 5.639zM362.933 69.658l-4.096 5.653 4.116 5.644-6.647-2.145-4.1 5.654-.012-6.978-6.649-2.15 6.64-2.169-.011-6.981 4.117 5.639zM335.287 51.226l-4.096 5.654 4.115 5.643-6.646-2.146-4.1 5.655-.013-6.979-6.649-2.149 6.64-2.169-.01-6.981 4.116 5.639zM167.883 161.818l-4.096 5.654 4.115 5.643-6.647-2.145-4.1 5.654-.012-6.979-6.649-2.149 6.64-2.169-.01-6.981 4.116 5.639zM192.461 178.202l-4.096 5.654 4.115 5.643-6.647-2.146-4.1 5.655-.012-6.979-6.649-2.149 6.64-2.169-.01-6.981 4.116 5.639zM217.037 194.586l-4.096 5.654 4.115 5.643-6.646-2.145-4.1 5.654-.013-6.979-6.649-2.149 6.64-2.169-.01-6.981 4.116 5.639zM241.611 211.994l-4.096 5.654 4.116 5.643-6.647-2.145-4.1 5.654-.013-6.979-6.648-2.149 6.639-2.169-.01-6.981 4.117 5.639zM266.187 228.378l-4.096 5.654 4.116 5.643-6.647-2.145-4.1 5.654-.012-6.979-6.649-2.149 6.639-2.169-.01-6.981 4.117 5.639zM143.308 144.333l-4.096 5.654 4.116 5.643-6.647-2.145-4.1 5.654-.012-6.978-6.649-2.15 6.64-2.169-.011-6.981 4.117 5.639zM153.588 123.93l4.096 5.654-4.116 5.643 6.647-2.145 4.1 5.654.013-6.978 6.648-2.15-6.639-2.169.01-6.981-4.117 5.639zM181.236 105.498l4.096 5.653-4.115 5.644 6.647-2.146 4.1 5.655.012-6.979 6.649-2.149-6.64-2.169.01-6.981-4.116 5.639zM208.883 87.066l4.096 5.653-4.116 5.644 6.647-2.146 4.1 5.655.012-6.979 6.649-2.149-6.639-2.169.01-6.981-4.117 5.639zM236.531 69.658l4.096 5.653-4.115 5.644 6.646-2.145 4.101 5.654.012-6.978 6.649-2.15-6.64-2.169.01-6.981-4.116 5.639zM264.18 51.226l4.096 5.654-4.116 5.643 6.647-2.146 4.1 5.655.012-6.979 6.649-2.149-6.639-2.169.01-6.981-4.117 5.639zM455.668 144.333l4.096 5.654-4.116 5.643 6.647-2.145 4.1 5.654.013-6.978 6.648-2.15-6.639-2.169.01-6.981-4.116 5.639zM431.092 161.818l4.096 5.654-4.116 5.643 6.647-2.145 4.1 5.654.012-6.979 6.649-2.149-6.639-2.169.01-6.981-4.117 5.639zM406.516 178.202l4.096 5.654-4.116 5.643 6.647-2.146 4.1 5.655.012-6.979 6.649-2.149-6.64-2.169.011-6.981-4.117 5.639zM381.939 194.586l4.096 5.654-4.115 5.643 6.647-2.145 4.1 5.654.012-6.979 6.649-2.149-6.64-2.169.011-6.981-4.117 5.639zM357.363 211.994l4.096 5.654-4.115 5.643 6.647-2.145 4.1 5.654.012-6.979 6.649-2.149-6.64-2.169.01-6.981-4.116 5.639zM332.789 228.378l4.096 5.654-4.115 5.643 6.646-2.145 4.1 5.654.013-6.979 6.649-2.149-6.64-2.169.01-6.981-4.116 5.639z"/></g><defs><clipPath id="a"><path fill="#fff" d="M0 0h600v300H0z"/></clipPath></defs></svg>