<svg xmlns="http://www.w3.org/2000/svg" width="600" height="300" fill="none" viewBox="0 0 600 300"><path fill="#0f204b" d="M0 0h600v300H0z"/><path fill="#ffb612" d="m438.629 36-5.452 16.778 8.389 2.726z"/><path fill="#ffb612" d="m438.629 36 5.452 16.778-8.39 2.726z"/><path fill="#ffb612" d="M455.408 48.19h-17.642v8.822z"/><path fill="#ffb612" d="m455.408 48.19-14.272 10.37-5.185-7.136z"/><path fill="#ffb612" d="m421.85 48.19 14.272 10.37 5.185-7.136z"/><path fill="#ffb612" d="M421.85 48.19h17.641v8.822z"/><path fill="#ffb612" d="m449 67.916-5.452-16.779-8.389 2.726z"/><path fill="#ffb612" d="m449 67.915-14.272-10.37 5.184-7.135z"/><path fill="#ffb612" d="m428.26 67.915 14.272-10.37-5.185-7.135z"/><path fill="#ffb612" d="m428.26 67.916 5.451-16.779 8.39 2.726zM153.549 108.114l-3.25 10.003 5.001 1.625z"/><path fill="#ffb612" d="m153.549 108.114 3.25 10.003-5.001 1.625z"/><path fill="#ffb612" d="M163.551 115.382h-10.517v5.258z"/><path fill="#ffb612" d="m163.551 115.382-8.509 6.181-3.091-4.254z"/><path fill="#ffb612" d="m143.545 115.382 8.509 6.182 3.09-4.255z"/><path fill="#ffb612" d="M143.545 115.382h10.517v5.259z"/><path fill="#ffb612" d="m159.73 127.141-3.25-10.003-5.001 1.625z"/><path fill="#ffb612" d="m159.73 127.141-8.508-6.182 3.091-4.255z"/><path fill="#ffb612" d="m147.365 127.141 8.509-6.182-3.091-4.255z"/><path fill="#ffb612" d="m147.365 127.141 3.25-10.003 5.001 1.625zM204.797 127.14l-3.25 10.002 5.001 1.625z"/><path fill="#ffb612" d="m204.797 127.14 3.25 10.002-5.001 1.625z"/><path fill="#ffb612" d="M214.799 134.407h-10.517v5.259z"/><path fill="#ffb612" d="m214.799 134.407-8.509 6.182-3.091-4.254z"/><path fill="#ffb612" d="m194.793 134.407 8.509 6.182 3.09-4.254z"/><path fill="#ffb612" d="M194.793 134.407h10.517v5.259z"/><path fill="#ffb612" d="m210.977 146.166-3.25-10.002-5.002 1.625z"/><path fill="#ffb612" d="m210.977 146.166-8.509-6.182 3.091-4.254z"/><path fill="#ffb612" d="m198.611 146.166 8.509-6.181-3.091-4.255z"/><path fill="#ffb612" d="m198.611 146.167 3.25-10.003 5.002 1.625zM230.266 154.451l-3.25 10.002 5.001 1.625z"/><path fill="#ffb612" d="m230.266 154.451 3.25 10.002-5.002 1.625z"/><path fill="#ffb612" d="M240.268 161.719H229.75v5.258z"/><path fill="#ffb612" d="m240.268 161.718-8.509 6.182-3.091-4.254z"/><path fill="#ffb612" d="m220.262 161.718 8.508 6.182 3.091-4.254z"/><path fill="#ffb612" d="M220.262 161.719h10.517v5.258z"/><path fill="#ffb612" d="m236.445 173.478-3.25-10.003-5.001 1.625z"/><path fill="#ffb612" d="m236.445 173.478-8.508-6.182 3.091-4.255z"/><path fill="#ffb612" d="m224.082 173.477 8.509-6.181-3.091-4.255z"/><path fill="#ffb612" d="m224.082 173.478 3.25-10.003 5.001 1.625zM256.043 182.99l-3.25 10.002 5.001 1.625z"/><path fill="#ffb612" d="m256.043 182.99 3.25 10.002-5.001 1.625z"/><path fill="#ffb612" d="M266.045 190.257h-10.517v5.259z"/><path fill="#ffb612" d="m266.045 190.257-8.509 6.182-3.091-4.254z"/><path fill="#ffb612" d="m246.039 190.257 8.509 6.182 3.091-4.254z"/><path fill="#ffb612" d="M246.039 190.257h10.517v5.259z"/><path fill="#ffb612" d="m262.223 202.016-3.25-10.002-5.002 1.625z"/><path fill="#ffb612" d="m262.223 202.016-8.509-6.182 3.091-4.254z"/><path fill="#ffb612" d="m249.859 202.016 8.509-6.182-3.091-4.254z"/><path fill="#ffb612" d="m249.859 202.016 3.25-10.002 5.002 1.625zM332.76 210.301l-3.25 10.002 5.001 1.625z"/><path fill="#ffb612" d="m332.76 210.301 3.25 10.002-5.001 1.625z"/><path fill="#ffb612" d="M342.762 217.568h-10.517v5.259z"/><path fill="#ffb612" d="m342.762 217.568-8.509 6.182-3.091-4.254z"/><path fill="#ffb612" d="m322.756 217.568 8.508 6.182 3.091-4.254z"/><path fill="#ffb612" d="M322.756 217.568h10.517v5.259z"/><path fill="#ffb612" d="m338.941 229.327-3.25-10.002-5.001 1.625z"/><path fill="#ffb612" d="m338.941 229.327-8.508-6.182 3.091-4.254z"/><path fill="#ffb612" d="m326.576 229.327 8.509-6.182-3.091-4.254z"/><path fill="#ffb612" d="m326.578 229.327 3.25-10.002 5.001 1.625zM252.668 223.189l-3.25 10.003 5.001 1.625z"/><path fill="#ffb612" d="m252.668 223.189 3.25 10.003-5.001 1.625z"/><path fill="#ffb612" d="M262.67 230.457h-10.517v5.258z"/><path fill="#ffb612" d="m262.67 230.457-8.509 6.182-3.091-4.255z"/><path fill="#ffb612" d="m242.664 230.457 8.509 6.182 3.091-4.255z"/><path fill="#ffb612" d="M242.664 230.457h10.517v5.258z"/><path fill="#ffb612" d="m258.848 242.216-3.25-10.003-5.002 1.625z"/><path fill="#ffb612" d="m258.848 242.216-8.509-6.182 3.091-4.254z"/><path fill="#ffb612" d="m246.484 242.216 8.509-6.182-3.091-4.254z"/><path fill="#ffb612" d="m246.484 242.216 3.25-10.002 5.002 1.624zM310.359 242.215l-3.25 10.003 5.002 1.625z"/><path fill="#ffb612" d="m310.359 242.215 3.25 10.003-5.001 1.625z"/><path fill="#ffb612" d="M320.361 249.483h-10.517v5.258z"/><path fill="#ffb612" d="m320.361 249.483-8.508 6.181-3.091-4.254z"/><path fill="#ffb612" d="m300.355 249.482 8.509 6.182 3.091-4.254z"/><path fill="#ffb612" d="M300.355 249.483h10.518v5.258z"/><path fill="#ffb612" d="m316.539 261.242-3.25-10.003-5.001 1.625z"/><path fill="#ffb612" d="m316.539 261.242-8.509-6.182 3.091-4.255z"/><path fill="#ffb612" d="m304.176 261.242 8.508-6.182-3.091-4.255z"/><path fill="#ffb612" d="m304.176 261.242 3.25-10.003 5.001 1.625z"/></svg>