<svg xmlns="http://www.w3.org/2000/svg" width="600" height="300" fill="none" viewBox="0 0 600 300"><g clip-path="url(#a)"><path fill="#002868" d="M0 0h600v300H0"/><path fill="#fff" d="M0 100h600v100H0"/><path fill="#bf0a30" d="M300 186.572a98.6 98.6 0 0 1-110.236 59.808A98.595 98.595 0 0 1 110 149.598a98.594 98.594 0 0 1 79.764-96.782A98.6 98.6 0 0 1 300 112.624l-91.402 36.974"/><path fill="gold" d="M208.598 198.897c27.227 0 49.298-22.072 49.298-49.299s-22.071-49.299-49.298-49.299-49.299 22.072-49.299 49.299 22.072 49.299 49.299 49.299"/></g><defs><clipPath id="a"><path fill="#fff" d="M0 0h600v300H0z"/></clipPath></defs></svg>