<svg xmlns="http://www.w3.org/2000/svg" width="600" height="300" fill="none" viewBox="0 0 600 300"><path fill="#b50027" d="M0 0h600v300H0z"/><path fill="#fff" d="M200 100h400v100H200z"/><path fill="#002d56" d="M0 0h200v200H0z"/><path fill="#fff" d="m104.477 27.346 7.124-5.023-8.72-.126-2.58-8.33-2.808 8.253-8.72-.125 6.984 5.227-2.807 8.254 7.124-5.024 6.983 5.226zm-34.262 6.131 3.973-7.758-7.779 3.94-6.156-6.177 1.35 8.613-7.78 3.941 8.613 1.383 1.35 8.613 3.973-7.76 8.612 1.383zm-27.596 21.52-.087-8.715-5.056 7.103-8.321-2.609 5.196 7-5.056 7.103 8.268-2.777 5.197 7-.087-8.717 8.267-2.778zM28.4 86.814l-4.127-7.678-1.176 8.64-8.58 1.556 7.853 3.783-1.176 8.64 6.03-6.301 7.854 3.782-4.127-7.677 6.03-6.301zm2.009 34.697-7.222-4.88 2.973 8.197-6.874 5.364 8.711-.299 2.973 8.196 2.412-8.381 8.712-.3-7.222-4.881 2.411-8.381zm17.98 29.988-8.661-.966 6.44 5.876-3.593 7.945 7.575-4.314 6.44 5.876-1.759-8.541 7.574-4.314-8.662-.966-1.76-8.541zm29.912 18.005-8.118 3.17 8.433 2.21.51 8.704 4.702-7.339 8.433 2.21-5.526-6.745 4.702-7.339-8.119 3.17-5.526-6.746zm34.669 2.142-5.715 6.579 8.494-1.961 4.496 7.47.754-8.683 8.493-1.962-8.027-3.405.753-8.683-5.715 6.579-8.028-3.404zm31.892-14.18-2.003 8.481 6.609-5.684 7.452 4.526-3.367-8.039 6.609-5.684-8.69.716-3.368-8.039-2.004 8.481-8.689.716zm21.532-27.539 2.167 8.44 3.211-8.104 8.701.545-6.717-5.553 3.211-8.104-7.362 4.672-6.717-5.553 2.167 8.44-7.362 4.672zm-3.932-67.496 8.176 3.012-4.844-7.246 5.391-6.85-8.385 2.372-4.844-7.246-.338 8.712-8.385 2.373 8.176 3.011-.338 8.712zm-24.716-24.743 8.639-1.133-7.656-4.165 1.591-8.57-6.323 5.997-7.655-4.165 3.748 7.87-6.322 5.998 8.639-1.133 3.749 7.871zm34.909 58.055 5.841 6.467-.923-8.668 7.957-3.56-8.527-1.797-.922-8.667-4.349 7.557-8.527-1.795 5.841 6.467-4.348 7.557z"/><path fill="#eed000" fill-rule="evenodd" stroke="#eed000" stroke-miterlimit="3.864" stroke-width=".227" d="M63.797 145.14h-2.524v-.281l.308-.023q.201-.017.284-.048a.4.4 0 0 0 .19-.138.46.46 0 0 0 .06-.25v-4.066a.5.5 0 0 0-.044-.23q-.044-.095-.206-.158a2 2 0 0 0-.3-.087 2 2 0 0 0-.292-.052v-.28h2.524v.28q-.122.005-.292.032a2 2 0 0 0-.296.063q-.15.048-.202.155a.54.54 0 0 0-.051.237v4.063a.5.5 0 0 0 .055.233q.06.1.198.158.082.032.268.072.19.035.32.039v.281Zm6.918-5.333a2 2 0 0 0-.34.064 1.2 1.2 0 0 0-.328.122q-.142.1-.193.38a4.4 4.4 0 0 0-.047.712v4.111h-.344l-3.398-4.593v2.895q0 .487.059.748.063.261.19.372.09.087.375.162t.375.079v.281h-2.3v-.281q.108-.008.36-.075.253-.071.317-.126a.58.58 0 0 0 .19-.337q.05-.229.05-.779v-2.765a1.1 1.1 0 0 0-.063-.364.7.7 0 0 0-.17-.281 1.2 1.2 0 0 0-.387-.222 1.3 1.3 0 0 0-.391-.102v-.281h1.6l3.153 4.28v-2.67q0-.49-.063-.752-.063-.265-.182-.352a1.3 1.3 0 0 0-.363-.146 2 2 0 0 0-.38-.08v-.28h2.28v.28Zm8.27 3.09a6 6 0 0 0-.257.04 1 1 0 0 0-.257.071.35.35 0 0 0-.17.17.6.6 0 0 0-.047.253v.435q0 .475.003.641l.016.273q-.526.237-1.047.364a4.4 4.4 0 0 1-1.023.127 2.7 2.7 0 0 1-1.035-.202 2.6 2.6 0 0 1-.87-.574q-.375-.375-.596-.913a3.1 3.1 0 0 1-.222-1.203q0-.64.21-1.187a2.9 2.9 0 0 1 .6-.953q.375-.396.893-.613.523-.222 1.114-.222.475 0 .826.115.352.115.62.277l.163-.269h.316l.035 1.962h-.324a5 5 0 0 0-.205-.637 2.2 2.2 0 0 0-.316-.566 1.374 1.374 0 0 0-1.138-.546 1.6 1.6 0 0 0-.755.174 1.6 1.6 0 0 0-.577.511q-.24.327-.371.818-.13.492-.13 1.096 0 .535.126 1.009.13.47.375.815.245.352.613.554.367.202.833.202.348 0 .633-.107.288-.107.406-.226.032-.205.032-.415.004-.21.004-.356v-.309a.8.8 0 0 0-.047-.292.3.3 0 0 0-.186-.19 1.2 1.2 0 0 0-.356-.087 5 5 0 0 0-.347-.04v-.289h2.457v.289Zm5.513-2.706q.37.388.58.938.21.546.21 1.21 0 .669-.213 1.215a2.7 2.7 0 0 1-1.447 1.515q-.486.206-1.035.206-.584 0-1.083-.218a2.5 2.5 0 0 1-.85-.613 2.8 2.8 0 0 1-.56-.93 3.4 3.4 0 0 1-.202-1.175q0-.684.214-1.218.213-.539.588-.93a2.55 2.55 0 0 1 .862-.593 2.65 2.65 0 0 1 1.031-.206q.557 0 1.051.21.495.21.854.589Zm-.59 3.98q.222-.36.321-.815.102-.454.103-1.017 0-.577-.115-1.06a2.6 2.6 0 0 0-.328-.823 1.57 1.57 0 0 0-.545-.522 1.47 1.47 0 0 0-.75-.19q-.475 0-.807.218a1.7 1.7 0 0 0-.541.581 2.8 2.8 0 0 0-.297.815 5 5 0 0 0-.094.981q0 .57.102 1.029.104.459.324.815.214.348.538.546.324.194.774.194a1.49 1.49 0 0 0 1.316-.752Zm7.591-1.804q0 .715-.269 1.242a2.55 2.55 0 0 1-.7.863q-.434.336-.975.502t-1.118.166h-2.324v-.281q.115 0 .297-.019a1 1 0 0 0 .245-.052.33.33 0 0 0 .17-.15.5.5 0 0 0 .055-.245v-4.051q0-.135-.047-.242a.33.33 0 0 0-.178-.17 1.1 1.1 0 0 0-.265-.087 2 2 0 0 0-.245-.035v-.281h2.45q.505 0 .996.158.489.155.853.419.494.352.774.922t.281 1.341Zm-.968-.004q0-.565-.15-1.021a2.4 2.4 0 0 0-.439-.799 1.9 1.9 0 0 0-.671-.51 2.04 2.04 0 0 0-.882-.186q-.162 0-.367.008-.202.004-.3.008v4.316q0 .36.21.498.208.14.643.139.502 0 .877-.178.375-.179.609-.495.244-.332.355-.767.115-.44.115-1.013Zm11.675-2.556a.9.9 0 0 0-.229.048 1 1 0 0 0-.241.107.9.9 0 0 0-.225.201 1 1 0 0 0-.147.313q-.28.913-.652 2.136-.396 1.301-.802 2.599h-.363l-1.415-4.32-1.474 4.32h-.347l-.81-2.872-.561-1.997a.707.707 0 0 0-.526-.491 1.2 1.2 0 0 0-.237-.043v-.281h2.288v.281q-.3.015-.514.059-.21.044-.21.146 0 .04.013.107l.02.103q.09.348.32 1.151.232.8.687 2.397l1.399-4.165h.387l1.41 4.256q.249-.855.49-1.713.206-.735.34-1.258a8 8 0 0 0 .119-.502q.024-.138.024-.233 0-.135-.186-.226-.182-.09-.593-.123v-.28h2.035zm5.444 3.68-.106 1.653h-4.655v-.281q.159-.012.316-.031.198-.028.257-.056a.35.35 0 0 0 .174-.154.5.5 0 0 0 .051-.241v-4.036a.6.6 0 0 0-.043-.229.34.34 0 0 0-.182-.166 1.3 1.3 0 0 0-.288-.091 2 2 0 0 0-.285-.048v-.28h4.339v1.352h-.297a1.8 1.8 0 0 0-.344-.636q-.26-.34-.497-.372a4 4 0 0 0-.293-.024 8 8 0 0 0-.387-.008h-.881v2.231h.632q.304 0 .443-.055a.64.64 0 0 0 .249-.194 1 1 0 0 0 .146-.305q.063-.193.083-.364h.296v2.196h-.296a1.7 1.7 0 0 0-.087-.4 1 1 0 0 0-.142-.308.57.57 0 0 0-.281-.202 1.4 1.4 0 0 0-.411-.047h-.632v1.685q0 .253.035.4.036.146.139.221.102.075.28.099.178.02.506.02h.344q.213 0 .359-.016.156-.017.309-.056a.5.5 0 0 0 .229-.114 2.5 2.5 0 0 0 .379-.574q.201-.387.257-.57zm8.247-2.437h-.273a1.8 1.8 0 0 0-.13-.337 3 3 0 0 0-.206-.371 1.7 1.7 0 0 0-.26-.317.5.5 0 0 0-.269-.158 3 3 0 0 0-.308-.024 9 9 0 0 0-.344-.008h-.229v4.49q0 .13.055.242a.38.38 0 0 0 .194.166q.07.027.296.075.229.048.356.051v.281h-2.648v-.281a9 9 0 0 0 .336-.031q.23-.024.316-.06a.38.38 0 0 0 .19-.146.5.5 0 0 0 .063-.261v-4.526h-.229a8 8 0 0 0-.652.032.5.5 0 0 0-.272.158 2 2 0 0 0-.257.317 3 3 0 0 0-.21.379q-.09.198-.126.329h-.277v-1.523h4.884v1.523Zm6.373 4.09h-1.51a33 33 0 0 0-1.786-2.544h-.573v1.781q0 .138.044.245.043.102.186.158.07.028.249.052.177.023.3.027v.281h-2.371v-.281q.095-.008.273-.027a1 1 0 0 0 .253-.052.33.33 0 0 0 .169-.15.5.5 0 0 0 .056-.253v-4.059a.7.7 0 0 0-.04-.246q-.04-.106-.185-.162a1.5 1.5 0 0 0-.257-.063 2 2 0 0 0-.269-.04v-.28h2.588q.356 0 .668.075.312.07.565.233.245.159.391.415.146.254.146.614 0 .324-.098.573a1.2 1.2 0 0 1-.293.431 1.7 1.7 0 0 1-.427.297 3.3 3.3 0 0 1-.549.21q.415.55.688.926.276.375.675.913.174.238.313.352.142.111.28.182a1 1 0 0 0 .257.08q.154.028.257.031v.281Zm-2.079-4.185q0-.512-.292-.807-.292-.301-.826-.301h-.672v2.409h.518q.545 0 .909-.348.363-.352.363-.953Zm7.942-1.148a2 2 0 0 0-.324.048 1 1 0 0 0-.348.131q-.134.09-.185.375-.052.285-.052.697v2.44q0 .468-.193.811-.194.345-.51.566a2.1 2.1 0 0 1-.66.305 2.5 2.5 0 0 1-.66.095q-.505 0-.901-.135a2 2 0 0 1-.663-.356 1.5 1.5 0 0 1-.399-.514 1.4 1.4 0 0 1-.135-.61v-3.319a.5.5 0 0 0-.047-.229.42.42 0 0 0-.182-.174.9.9 0 0 0-.253-.087 2 2 0 0 0-.253-.044v-.28h2.335v.28a2 2 0 0 0-.28.036 2 2 0 0 0-.245.059.3.3 0 0 0-.182.159.7.7 0 0 0-.043.241v3.102q0 .225.047.474.051.246.198.459.154.218.418.356.265.14.727.139.436 0 .727-.139.296-.138.467-.364.162-.213.229-.447a1.7 1.7 0 0 0 .067-.471v-2.302q0-.439-.063-.716-.063-.28-.186-.368a1.1 1.1 0 0 0-.379-.154 2.5 2.5 0 0 0-.364-.064v-.28h2.292v.28Zm4.158 2.758q.178.198.261.435.087.234.087.546 0 .744-.549 1.226-.55.483-1.363.483-.375 0-.751-.115a3 3 0 0 1-.648-.285l-.17.289h-.316l-.055-1.923h.32q.099.357.229.645.134.285.352.534c.134.154.296.28.478.372a1.4 1.4 0 0 0 .64.139q.273 0 .474-.072a.8.8 0 0 0 .332-.201.8.8 0 0 0 .186-.305q.063-.178.063-.407a1.1 1.1 0 0 0-.19-.625 1.16 1.16 0 0 0-.565-.443 23 23 0 0 0-.589-.226 9 9 0 0 1-.573-.237 1.9 1.9 0 0 1-.738-.558q-.261-.348-.261-.906 0-.321.13-.597.13-.278.372-.495a1.6 1.6 0 0 1 .541-.32c.208-.079.429-.12.652-.119q.387 0 .691.119.309.118.561.277l.162-.269h.317l.031 1.863h-.32a7 7 0 0 0-.198-.613 2.1 2.1 0 0 0-.28-.53 1.194 1.194 0 0 0-1.015-.503.92.92 0 0 0-.641.242.77.77 0 0 0-.264.589q0 .364.17.605.17.237.493.392.278.134.566.241.28.099.541.214.234.102.454.233.222.13.383.305Zm6.069-1.515h-.273a1.8 1.8 0 0 0-.13-.337 3 3 0 0 0-.206-.371 1.7 1.7 0 0 0-.26-.317.5.5 0 0 0-.269-.158 3 3 0 0 0-.308-.024 9 9 0 0 0-.344-.008h-.229v4.49q0 .13.055.242a.38.38 0 0 0 .194.166q.07.027.296.075.229.048.356.051v.281h-2.648v-.281a9 9 0 0 0 .336-.031q.23-.024.316-.06a.38.38 0 0 0 .19-.146.5.5 0 0 0 .063-.261v-4.526h-.229a8 8 0 0 0-.652.032.5.5 0 0 0-.272.158 2 2 0 0 0-.257.317 3 3 0 0 0-.21.379q-.09.198-.126.329h-.277v-1.523h4.884z" clip-rule="evenodd"/><path fill="#eed000" d="m100.201 74.04.018-.005c.004-.002.697.248.703 1.333q.92-.172.742.971s-.728-.197-.846.218q-.269.72.408 1.173s.757.6 1.233-.537.648-1.524.648-1.524c.132-.419.921-1.4 1.637-1.538.273-.11.534-.088.826-.018 0 0 .626.136.644.66.018.523-.196.75-.549.903-.391.168-.873-.193-.873-.193-.168-.031-.222.027-.326.099-.047.033-.245.25-.36.495 0 0-.348.736-.514 1.297-.131.442-.419 1.78-1.773 1.98h-3.196c-1.354-.2-1.642-1.538-1.773-1.98-.166-.561-.514-1.297-.514-1.297a1.7 1.7 0 0 0-.36-.495c-.104-.072-.158-.13-.326-.099 0 0-.482.36-.873.193-.353-.152-.567-.38-.55-.904.018-.523.645-.659.645-.659.291-.07.553-.091.826.018.716.138 1.504 1.12 1.637 1.538 0 0 .171.387.648 1.524.476 1.137 1.233.537 1.233.537q.676-.453.408-1.173c-.119-.415-.847-.218-.847-.218q-.177-1.143.743-.971c.006-1.085.699-1.335.703-1.333l.018.006z"/><path fill="#eed000" fill-rule="evenodd" stroke="#002d56" stroke-miterlimit="3.864" stroke-width="1.179" d="M104.178 110.553h-7.737l.913-30.186h5.947zm-.033 16.786h-8.216v-13.708l8.216-.003z" clip-rule="evenodd"/><path fill="#eed000" stroke="#002d56" stroke-miterlimit="3.864" stroke-width="1.179" d="M95.794 112.068h8.328c.58 0 1.05.353 1.05.789s-.47.79-1.05.79h-8.329c-.58 0-1.05-.353-1.05-.79 0-.436.47-.789 1.05-.789Z"/><path fill="#eed000" fill-rule="evenodd" stroke="#002d56" stroke-miterlimit="3.864" stroke-width="1.179" d="M96.412 110.586h7.27c.516 0 .935.332.935.741s-.419.741-.935.741h-7.27c-.517 0-.935-.332-.935-.741s.418-.741.935-.741Z" clip-rule="evenodd"/><path stroke="#002d56" stroke-miterlimit="3.864" stroke-width="1.179" d="M97.783 116.198h4.389v9.038h-4.389z"/><path fill="#eed000" stroke="#002d56" stroke-miterlimit="3.864" stroke-width=".681" d="M97.69 79.314h5.043c.414 0 .75.244.75.545s-.336.545-.75.545h-5.042c-.415 0-.75-.244-.75-.545 0-.3.335-.545.75-.545Z"/><path fill="#eed000" fill-rule="evenodd" stroke="#002d56" stroke-miterlimit="3.864" stroke-width="1.389" d="M58.87 128.979H142.6v2.823H58.869z" clip-rule="evenodd"/><path fill="#eed000" stroke="#002d56" stroke-miterlimit="3.864" stroke-width=".833" d="M55.297 131.778h90.934v2.99H55.297z"/><path fill="#eed000" fill-rule="evenodd" stroke="#002d56" stroke-miterlimit="3.864" stroke-width="1.326" d="M61.345 67.67h78.179v1.73h-78.18z" clip-rule="evenodd"/><path fill="#eed000" fill-rule="evenodd" stroke="#002d56" stroke-linejoin="round" stroke-miterlimit="3.864" stroke-width=".681" d="M124.798 67.618c-4.05-9.704-13.451-16.484-24.401-16.484-10.944 0-20.34 6.79-24.394 16.484h-9.718c4.495-14.915 18.082-25.849 34.112-25.849 16.041 0 29.636 10.914 34.126 25.844z" clip-rule="evenodd"/><path fill="#eed000" fill-rule="evenodd" stroke="#002d56" stroke-miterlimit="3.864" stroke-width=".833" d="M63.445 69.422s1.352.809 2.477 3.216l69.551-.003s1.143-2.691 2.719-3.218z" clip-rule="evenodd"/><path fill="#eed000" fill-rule="evenodd" stroke="#002d56" stroke-linejoin="round" stroke-miterlimit="3.864" stroke-width=".681" d="M80.701 73.263s6.443 11.057 19.545 10.905c12.942-.15 19.545-10.53 19.545-10.53l3.451 5.115s1.276 1.73-1.2 3.91c-8.747 7.706-15.676 9.22-21.796 9.177q-13.558-.743-21.87-9.176c-.998-.829-1.201-1.918-.901-2.82z" clip-rule="evenodd"/><path stroke="#002d56" stroke-miterlimit="3.864" stroke-width=".884" d="M77.343 80.99s-.394-2.237 3.133-.432l.262-7.258m42.748 6.167c-1.126-2.425-3.189.546-3.189.546l-.52-6.337"/><path fill="#eed000" stroke="#002d56" stroke-miterlimit="3.864" stroke-width=".694" d="M65.546 72.768h69.927c.248 0 .45.21.45.47v.156a.46.46 0 0 1-.45.47H65.546a.46.46 0 0 1-.45-.47v-.157c0-.259.201-.47.45-.47Z"/><path fill="#eed000" d="m71.728 73.954.018-.006c.005-.002.697.248.703 1.333q.919-.172.743.971s-.728-.197-.847.219q-.267.72.408 1.172s.757.6 1.234-.537c.476-1.137.647-1.524.647-1.524.133-.418.921-1.4 1.638-1.538.272-.11.534-.087.825-.018 0 0 .627.136.645.66.017.523-.197.751-.55.903-.39.168-.873-.193-.873-.193-.168-.031-.222.027-.325.099a1.7 1.7 0 0 0-.361.495s-.348.736-.514 1.297c-.13.443-.418 1.78-1.773 1.981H70.15c-1.354-.2-1.642-1.538-1.773-1.98-.166-.562-.513-1.297-.513-1.297a1.7 1.7 0 0 0-.361-.496c-.103-.072-.157-.13-.326-.099 0 0-.482.36-.873.193-.353-.152-.567-.38-.55-.903.019-.524.645-.66.645-.66.292-.07.553-.091.826.018.716.138 1.505 1.12 1.637 1.538 0 0 .172.387.648 1.524s1.233.537 1.233.537q.676-.453.409-1.172c-.12-.416-.847-.219-.847-.219q-.177-1.143.742-.971c.006-1.085.699-1.335.703-1.333l.019.006z"/><path fill="#eed000" fill-rule="evenodd" stroke="#002d56" stroke-miterlimit="3.864" stroke-width="1.179" d="M75.617 110.553H67.88l1.029-30.186h5.715zm.24 16.786H67.64v-13.708l8.215-.003z" clip-rule="evenodd"/><path fill="#eed000" fill-rule="evenodd" stroke="#002d56" stroke-miterlimit="3.864" stroke-width="1.179" d="M67.584 112.068h8.328c.58 0 1.05.353 1.05.789s-.47.79-1.05.79h-8.328c-.58 0-1.05-.353-1.05-.79 0-.436.47-.789 1.05-.789Zm.529-1.482h7.27c.516 0 .935.332.935.741s-.419.741-.935.741h-7.27c-.517 0-.936-.332-.936-.741s.42-.741.936-.741Z" clip-rule="evenodd"/><path stroke="#002d56" stroke-miterlimit="3.864" stroke-width="1.179" d="M69.553 116.198h4.389v9.038h-4.39z"/><path fill="#eed000" stroke="#002d56" stroke-miterlimit="3.864" stroke-width=".681" d="M69.227 79.43h5.042c.414 0 .75.244.75.545 0 .3-.336.545-.75.545h-5.042c-.415 0-.75-.244-.75-.545s.335-.545.75-.545Z"/><path fill="#eed000" fill-rule="evenodd" stroke="#002d56" stroke-miterlimit="3.864" stroke-width=".567" d="M65.896 127.373H77.6v1.58H65.896z" clip-rule="evenodd"/><path fill="#eed000" d="m129.097 74.04.018-.005c.005-.002.698.248.704 1.333q.92-.172.742.971s-.728-.197-.847.218q-.267.72.409 1.173s.756.6 1.233-.537c.476-1.137.648-1.524.648-1.524.132-.419.921-1.4 1.637-1.538.273-.11.534-.088.825-.018 0 0 .627.136.645.66.018.523-.196.75-.55.903-.39.168-.873-.193-.873-.193-.168-.031-.222.027-.325.099-.048.033-.246.25-.361.495 0 0-.348.736-.514 1.297-.13.442-.418 1.78-1.773 1.98h-3.195c-1.355-.2-1.643-1.538-1.773-1.98-.166-.561-.514-1.297-.514-1.297a1.7 1.7 0 0 0-.361-.495c-.103-.072-.157-.13-.325-.099 0 0-.483.36-.874.193-.353-.152-.567-.38-.549-.904.018-.523.645-.659.645-.659.291-.07.552-.091.825.018.716.138 1.505 1.12 1.637 1.538 0 0 .172.387.648 1.524s1.233.537 1.233.537q.676-.453.409-1.173c-.119-.415-.847-.218-.847-.218q-.177-1.143.742-.971c.006-1.085.699-1.335.703-1.333l.019.006z"/><path fill="#eed000" fill-rule="evenodd" stroke="#002d56" stroke-miterlimit="3.864" stroke-width="1.179" d="M133.133 110.553h-7.737l1.029-30.186h5.715zm.427 16.786h-8.216l-.086-13.708 8.302-.003z" clip-rule="evenodd"/><path fill="#eed000" stroke="#002d56" stroke-miterlimit="3.864" stroke-width="1.179" d="M125.268 112.068h8.328c.58 0 1.051.353 1.051.789s-.471.79-1.051.79h-8.328c-.58 0-1.05-.353-1.05-.79 0-.436.47-.789 1.05-.789Z"/><path fill="#eed000" fill-rule="evenodd" stroke="#002d56" stroke-miterlimit="3.864" stroke-width="1.179" d="M125.691 110.586h7.27c.517 0 .935.332.935.741s-.418.741-.935.741h-7.27c-.516 0-.935-.332-.935-.741s.419-.741.935-.741Z" clip-rule="evenodd"/><path stroke="#002d56" stroke-miterlimit="3.864" stroke-width="1.179" d="M127.181 116.198h4.389v9.038h-4.389z"/><path fill="#eed000" stroke="#002d56" stroke-miterlimit="3.864" stroke-width=".681" d="M126.704 79.314h5.042c.415 0 .751.244.751.545s-.336.545-.751.545h-5.042c-.414 0-.75-.244-.75-.545 0-.3.336-.545.75-.545Z"/><path fill="#eed000" fill-rule="evenodd" stroke="#002d56" stroke-miterlimit="3.864" stroke-width=".567" d="M93.994 127.373H105.7v1.58H93.994z" clip-rule="evenodd"/><path fill="#eed000" fill-rule="evenodd" stroke="#002d56" stroke-miterlimit="3.864" stroke-width="1.032" d="M50.541 105.97c-1.988-1.429-4.089-1.053-4.089-1.053s1.518-2.021 3.94-1.015c1.537.639 2.85 3.009 6.752.527s5.415-3.736 8.853-4.89c3.532-1.183 6.302-1.428 7.128-1.729.825-.3 2.116-.772 2.776-4.738.15-.903 3.751 7.521 3.751 7.521s-.525 2.783-3.976 4.362-9.432 2.524-12.755 5.19c-1.126.902-3.288 2.463-4.596 4.381-3.076 4.512-6.283 5.02-6.283 5.02s2.908-2.547 3.714-5.979c.15-.64-.096-3.515 1.05-4.663-1.216 1.219-4.296-1.184-3.901-.865 0 0-.376-.64-2.364-2.069Zm74.466-12.826s.6 3.422 7.315 5.152 7.766 3.911 8.854 4.438 3.914 2.553 6.94 1.541c1.192-.398 4.522-1.316 4.794-1.112.102.17-.951 1.937-1.08 2.09-2.228 2.64-3.077 3.046-3.902 3.46-1.802.903-1.942 1.013-3.226 1.09 0 0 1.2 1.505 1.388 3.949s3.451 4.926 3.451 4.926-4.351-1.128-6.265-3.723-5.064-4.813-6.227-5.377-7.09-2.595-8.328-3.084-5.102-2.52-5.627-5.791c-.526-3.272 1.913-7.559 1.913-7.559Z" clip-rule="evenodd"/><path fill="#eed000" stroke="#002d56" stroke-miterlimit="3.864" stroke-width="1.032" d="M61.341 95.776c-4.558-1.786-3.15-2.992-3.15-2.992 1.121-2.005 2.59-4.524 8.144-6.66 7.428-2.859 15.006-1.58 12.98 1.73-1.232 2.011-3.358 5.527-3.358 5.527s-.881-2.369-4.933-.865-5.302 2.142-5.543 2.937c-.375 1.24-.225 2.03 2.702 1.58-1.914.639-4.045-.028-6.438-1.093z"/><path fill="#eed000" stroke="#002d56" stroke-linejoin="round" stroke-miterlimit="3.864" stroke-width=".884" d="M130.803 92.403c.843.217 2.28.915 3.128 1.524 4.129 2.965 3.369 5.553 2.224 5.62-1.275.076 8.097-.187 9.223-.788 1.125-.602 1.5-1.279.825-2.708s-5.777-10.153-14.105-11.808c-8.329-1.654-11.629 1.857-10.917 3.046.675 1.128 3.751 4.889 3.864 6.43.854-1.613 2.776-2.073 5.758-1.316Z"/><path fill="#002d56" fill-rule="evenodd" d="m126.811 90.787-1.607-2.31.419 2.51-.646.108-.729-4.372.692-.116 2.088 2.923 1.05-3.45.612-.102.729 4.372-.853.143-.419-2.509-.852 2.722zm6.637-1.675q-.209 1.028-.782 1.474-.573.444-1.334.289-.753-.154-1.11-.787-.357-.636-.151-1.65l.05-.247q.192-.945.747-1.452.557-.507 1.397-.335.82.167 1.118.857.3.69.112 1.618zm-.921-.248.024-.118q.163-.802.111-1.218t-.546-.516q-.456-.093-.676.222-.216.315-.397 1.205l-.022.106q-.182.895-.116 1.257.066.36.551.46a.61.61 0 0 0 .649-.243q.253-.322.422-1.155m4.474 2.166q-.513.947-1.119 1.212-.604.267-1.301-.113l-1.353-.736 2.11-3.896 1.214.66q.832.453.916 1.151.089.697-.382 1.564zm-.823-.481.058-.106q.346-.64.319-1.093t-.389-.65l-.311-.17-1.48 2.735.381.207q.355.195.68.02.327-.176.742-.944m3.232.663-.832.85.892.877-.469.478-.891-.878-.875.893 1.229 1.21-.462.472-1.904-1.876 3.099-3.162 1.823 1.796-.462.471zm.442 7.01-.474-.809q.916-.554 1.216-.945.305-.39.104-.732l-.113-.192-1.712 1.01-.48-.817 3.81-2.25.839 1.428q.306.522.196.879a.97.97 0 0 1-.454.563l-.207.122q-.327.193-.635.12t-.567-.434q.118.507-.218.994-.333.488-1.305 1.062m2.173-2.502.104-.061q.247-.146.28-.334.032-.188-.112-.433l-.157-.267-1.007.595.13.222q.17.29.355.35t.407-.072m-14.135 7.972-.784-.571.374-1.042-1.122-.817-.88.673-.624-.454 3.743-2.753.714.52zm-.197-2.249.537-1.624-1.348 1.033zm5.119.408-.821-.401-1.649 3.39-.851-.416 1.649-3.39-.84-.411.289-.594 2.512 1.228zm2.03.087-1.728 4.08-.871-.37 1.728-4.081zm3.351 4.052q-.425.958-1.082 1.269-.655.31-1.364-.007-.702-.314-.914-1.01-.211-.698.208-1.643l.103-.231q.39-.88 1.042-1.255.654-.374 1.437-.024.765.342.906 1.08.144.74-.239 1.603zm-.846-.442.049-.11q.333-.749.371-1.165.04-.417-.421-.623-.424-.19-.708.07-.28.262-.648 1.09l-.044.1q-.371.834-.385 1.201-.013.367.439.569a.61.61 0 0 0 .686-.096q.317-.26.661-1.036m3.8 2.309 1.309-2.272.583.338-2.211 3.839-.352-.204-.431-3.465-1.389 2.412-.583-.338 2.211-3.839.438.254zm-75.53-14.682-.587.354-3.272-3.2.82-.495 2.069 2.03-.73-2.836.575-.347 2.161 1.975-.856-2.76.657-.396 1.28 4.4-.587.354-2.24-2.02zm3.274-6.276 1.293 4.24-.905.277-1.293-4.24zm5.085 2.263q.097.698-.296 1.094-.396.394-1.18.505-.45.064-.766.052a2.5 2.5 0 0 1-.53-.068l-.106-.757q.171.08.52.12.348.037.673-.009.458-.064.61-.217.157-.151.115-.449a.52.52 0 0 0-.172-.323q-.144-.13-.76-.293-.492-.132-.788-.402-.297-.273-.37-.802a1.1 1.1 0 0 1 .287-.913q.362-.406 1.084-.509a3 3 0 0 1 .637-.027q.29.019.41.049l.093.67a9 9 0 0 0-.486-.042 2.6 2.6 0 0 0-.506.024q-.375.052-.523.198a.37.37 0 0 0-.123.329q.033.232.174.334t.777.25q.593.135.876.434.285.295.35.752m13.685-3.014q-.204.4-.598.549-.39.147-.903-.116a2.5 2.5 0 0 1-.463-.289 1.1 1.1 0 0 1-.24-.264l.307-.605q.075.092.214.212.141.118.304.201a.46.46 0 0 0 .31.047q.157-.032.264-.242l1.504-2.958.843.431zm4.804 1.772q-.224.583-.691.785-.467.198-1.181-.077-.766-.295-.967-.778t.068-1.18l1.066-2.783.884.34-1.11 2.896q-.129.338-.051.563.081.222.437.36.33.127.546.037.219-.09.369-.478l1.103-2.88.655.252zm4.678.955q-.086.7-.57.98-.481.28-1.27.182a4.4 4.4 0 0 1-.753-.149 2.5 2.5 0 0 1-.494-.203l.093-.758q.145.12.472.25.326.127.652.166.459.057.646-.05.19-.107.226-.405a.52.52 0 0 0-.082-.356q-.106-.165-.66-.48-.44-.256-.656-.594-.217-.34-.151-.87.062-.508.513-.807.454-.3 1.179-.21.35.043.622.138.275.093.383.154l-.083.67a9 9 0 0 0-.459-.166 2.6 2.6 0 0 0-.494-.108q-.375-.046-.557.056a.37.37 0 0 0-.203.286q-.028.233.081.368.11.135.686.443.538.285.735.646.199.36.144.817m4.359-2.201-.913-.016-.066 3.77-.946-.016.066-3.771-.935-.016.011-.661 2.795.049zm2.582-.908.539 4.4-.94.116-.538-4.4zm5.292 3.082a1.2 1.2 0 0 1-.3.227q-.226.137-.549.235-.812.25-1.486-.122-.674-.374-.986-1.4l-.053-.17q-.291-.957.052-1.694.345-.738 1.13-.98.339-.102.578-.13.237-.03.383 0l.206.674a1.4 1.4 0 0 0-.346-.02q-.21.009-.474.09a.92.92 0 0 0-.644.636q-.152.486.064 1.194l.018.06q.232.757.598 1.042a.85.85 0 0 0 .813.147 2 2 0 0 0 .495-.22q.193-.129.301-.224zm1.311-4.697.538 1.06 1.114-.57.303.598-1.113.569.566 1.115 1.536-.785.299.59-2.379 1.214-2.007-3.95 2.277-1.163.299.59zm-46.62 21.106q.522.943.42 1.598-.1.654-.794 1.039l-1.346.748-2.145-3.878 1.208-.671q.827-.459 1.46-.156.633.3 1.111 1.163zm-.846.437-.058-.106q-.353-.636-.748-.857-.396-.22-.756-.02l-.31.171 1.506 2.722.38-.211q.352-.196.381-.565.027-.37-.395-1.134m4.837-2.104q.409.966.188 1.66-.221.69-.936.995-.708.301-1.36-.018-.653-.323-1.056-1.274l-.099-.233q-.375-.886-.205-1.62.173-.735.963-1.07.771-.329 1.406.072.637.399 1.007 1.269zm-.9.319-.046-.111q-.32-.754-.597-1.067t-.742-.115q-.428.182-.431.566 0 .384.353 1.219l.042.1q.356.841.615 1.102.258.26.714.066a.61.61 0 0 0 .398-.568q.025-.41-.305-1.192m4.384.804-2-1.978.867 2.391-.614.224-1.513-4.165.66-.241 2.584 2.493.405-3.584.584-.213 1.512 4.166-.814.297-.867-2.391-.344 2.833zm5.83-43.874q-.005.137-.12.422a3 3 0 0 1-.34.61q-.57.815-1.433.978-.864.16-1.838-.523l-.163-.114q-.909-.636-1.094-1.542-.184-.908.368-1.696.238-.34.437-.538.196-.201.348-.282l.64.449a1.7 1.7 0 0 0-.327.236q-.185.162-.37.425-.345.492-.157 1.037.19.543.863 1.014l.056.039q.72.505 1.245.49.525-.018.838-.464a2.4 2.4 0 0 0 .302-.557q.088-.255.123-.42zm2.4-5.92q.837.81.893 1.634.054.822-.578 1.476-.625.648-1.451.625-.828-.025-1.654-.822l-.201-.195q-.77-.743-.895-1.584-.122-.844.574-1.566.682-.706 1.523-.592.844.112 1.599.841zm-.822.758-.096-.093q-.654-.632-1.08-.825-.424-.193-.835.231-.378.392-.22.792.158.399.883 1.099l.087.083q.73.705 1.112.852.383.15.786-.27.33-.341.185-.777-.144-.438-.822-1.092m5.207-3.78-1.712-2.356.639-.464 2.891 3.98-.385.28-3.808-1.054 1.817 2.5-.638.464-2.892-3.98.48-.348zm6.127-2.493q.33.708.016 1.269-.315.557-1.157.95-.481.225-.839.322a3 3 0 0 1-.613.114l-.358-.769q.217.026.618-.054.4-.083.75-.245.49-.229.613-.444.124-.218-.015-.519a.56.56 0 0 0-.295-.283q-.203-.09-.942-.046-.59.03-1.006-.153-.419-.187-.67-.724-.238-.514.033-1.073.275-.56 1.05-.92.374-.176.702-.253.328-.081.472-.09l.317.679q-.28.056-.557.126a3 3 0 0 0-.556.202q-.402.188-.522.394-.12.208-.032.393.11.236.3.296.189.06.946-.006.705-.063 1.116.155a1.4 1.4 0 0 1 .629.678m4.256-4.076-1.033.277 1.084 4.043-1.07.287-1.084-4.043-1.058.283-.19-.708 3.162-.847zm2.874-1.094 1.105-.078.344 4.908-1.106.077zm7.031.862-1.067-.075-.292 4.176-1.106-.078.292-4.175-1.092-.077.051-.731 3.265.228zm5.382 4.212q-.204.663-.727.916-.523.25-1.38-.013-.92-.28-1.199-.806-.28-.526-.037-1.317l.967-3.164 1.06.324-1.006 3.292q-.117.383-.005.629.116.243.543.374.396.12.639.008.246-.112.381-.555l1.001-3.274.785.24zm6.179-.31-.953-.485-1.901 3.73-.987-.503 1.9-3.73-.976-.497.333-.654 2.917 1.486zm2.718.878.896.651-2.891 3.98-.897-.651zm4.314 7.196q-.823.824-1.648.864-.823.04-1.466-.603-.636-.637-.6-1.462.04-.828.851-1.639l.198-.198q.756-.756 1.6-.867.846-.108 1.556.602.694.693.565 1.533-.128.84-.869 1.583zm-.742-.835.094-.094q.643-.644.844-1.065t-.217-.84q-.384-.384-.788-.234-.401.152-1.113.864l-.086.085q-.717.717-.871 1.098-.155.38.256.79.336.337.774.199.441-.135 1.107-.803m3.795 5.119 2.355-1.712.464.639-3.98 2.891-.28-.385 1.054-3.808-2.501 1.817-.463-.638 3.98-2.892.348.48z" clip-rule="evenodd"/><path fill="#eed000" fill-rule="evenodd" stroke="#eed000" stroke-miterlimit="3.864" stroke-width=".227" d="M116.188 97.15s.272-.299.36-.081.106.403.031.484c-.075.082-.066.133-.173.27-.107.136-.059.214-.162.28-.103.065-.15.036-.264.03l-.046.338-.073.283.042.272.193.433-.147-.325.206.354c.157.412 1.642.826 2.18 1.067 1.12.501.945 2.883 1.063 3.119s.59 3.39.59 3.921-.59 3.39-.649 3.979c-.029.294-.103.998-.176 1.71-.015.141-.217-.044-.281.082-.084.168-.072.651-.052.811-.035.348-.134.619-.15.795a.76.76 0 0 1-.657.709s-.021 2.218-.139 2.749-.198.632-.021 2.106-.236 3.301-.236 3.301-.609 2.687-.727 3.1.079.791.138 1.086c.058.295.058.767.058.767h-5.183c-.132 0 .091-.467.265-.796.081-.153.324-.383.678-.442s.383-.443.589-.914c.207-.472.118-1.474-.058-2.093-.177-.619-.413-2.123-.413-2.653 0-.531-.293-1.74-.588-2.565-.294-.825-.442-2.624-.442-2.8 0-.078-.033-.177-.096-.333-.081-.202-.093-.499-.26-.964-.294-.826-.267-1.828-.297-2.683s-.353-1.798-.503-2.007l-.091-.369-.909.283-.879.688c-.194.175-.405.204-.76.236-.688.062-1.376-.746-1.538-1.913-.178-1.29.077-1.843 1.513-1.839l.638.002.554.018h.268s.161.314-.089.425a3 3 0 0 1-.322.129l.32.367c-.006.001.174-.12.708-.412l.199-.465c.014-.295.037-.361-.022-.685s-.174-2.189-.174-2.631.013-.965.058-1.475c.041-.465.035-1.499.26-1.939.28-.545 1.794-.781 1.794-.781s.656-.072.744-.249c.033-.066.198-.349.268-.46-.422-.149-.56-.667-.622-.793-.064-.13-.177-.737-.191-.796-.022-.087-.154-.634-.228-.851s-.011-.612-.011-.612l-.48-.053-.579-.044s-.325-.046-.408-.079c-.084-.032-.365-.09-.365-.09s-.46-.394-.004-.711c.457-.317.994-.61 1.082-.663.088-.052.123-.14.123-.14l-.008-.113c-.105-.162-.207-.38-.338-.856-.132-.475 1.116-.674 1.116-.674.361-.03 1.572.13 1.447.102.253.056.418.047.901.044s1.113.172 1.464.247.709.4.89.736.915.762 1.131.972c.327.318.716.984.866 1.227.262.426-.021.324-.109.377-.409.242-2.686-.271-2.488-.247.163.02.125-.037-.051-.132l-.001.16-.133.501z" clip-rule="evenodd"/><path stroke="#002d56" stroke-miterlimit="3.864" stroke-width=".567" d="M113.767 103.527c.072-1.208.171-2.203.354-2.978.058-.25 0-.368 0-.368-.314-.008-.526-.032-.85-.407"/><path stroke="#002d56" stroke-miterlimit="3.864" stroke-width=".681" d="m111.778 116.694.07-.501s.155-.286.096-.846 0-2.122.147-2.918c.14-.754 1.322-3.095 1.44-3.714.102-.534.118-2.329.118-2.477 0-.048-.058-.219-.029-.884"/><path stroke="#002d56" stroke-linejoin="round" stroke-miterlimit="3.864" stroke-width=".753" d="m113.327 99.471-.268.459s-2.258.485-2.538 1.03c-.225.44-.318 2.972-.318 3.414s.114 2.307.174 2.631c.058.324.036.391.022.685"/><path stroke="#002d56" stroke-miterlimit="3.864" stroke-width=".681" d="M114.622 106.858c.03.235-.031 1.746.59 2.712.265.412 1.425 2.66 1.68 2.947.153.172.546.239.645.473.512 1.21-.029 2.402.694 2.575l.203.695"/><path stroke="#002d56" stroke-miterlimit="3.864" stroke-width=".567" d="M116.235 99.448c-.124.17-.947.666-1.433.666-.177 0-.072.362-.15.789-.083.45-.089 3.007-.03 3.331.024.132-.022.199-.029.619"/><path stroke="#002d56" stroke-linecap="round" stroke-linejoin="round" stroke-miterlimit="3.864" stroke-width=".681" d="m117.003 102.609.301 1.183.413 2.181.147 1.327.029 1.179-.029 1.002-.118.708-.147.648-.266 2.123c.855-.207 1.418-.007 1.828.324"/><path stroke="#002d56" stroke-miterlimit="3.864" stroke-width=".681" d="m111.36 100.439.058.203c-.08-.445 1.346 5.862 6.21 8.81l.236.147"/><path stroke="#002d56" stroke-miterlimit="3.864" stroke-width=".681" d="M112.315 100.179c.511 1.623 2.041 5.682 5.534 7.799l.045.295m-4.843 1.563c.897.188 1.476.188 2.286-.029m-.882 4.623c.176 1.225.394 2.688.461 2.922.118.413.236 2.476.236 2.476l.059 2.005.059 2.535v2.948q-.726.507-.763 1.516"/><path stroke="#002d56" stroke-linejoin="round" stroke-miterlimit="3.864" stroke-width=".627" d="M109.606 108.122c-.301.453-1.787-.406-1.862.876-.058.985.133 2.098 1.085 2.221l.701-.464.188-.188"/><path fill="#eed000" fill-rule="evenodd" d="M108.722 107.597c-.409-6.399-.219-12.006.842-16.25-2.857 4.148-1.682 16.254-1.682 16.254z" clip-rule="evenodd"/><path stroke="#002d56" stroke-linejoin="round" stroke-miterlimit="3.864" stroke-width=".753" d="m110.406 107.594-.207.561c-.534.292-.699.307-.693.307"/><path stroke="#002d56" stroke-linejoin="round" stroke-miterlimit="3.864" stroke-width=".627" d="M109.436 108.323s.524 1.393.095 2.432"/><path stroke="#002d56" stroke-linejoin="round" stroke-miterlimit="3.864" stroke-width=".484" d="m108.736 107.633.579.013h.269s.161.314-.09.425c-.25.111-.421.109-.421.109"/><path stroke="#002d56" stroke-miterlimit="3.864" stroke-width=".484" d="M108.908 111.142c-.193.175-.404.204-.76.236-.688.062-1.376-.746-1.537-1.913-.179-1.29-.007-1.827 1.271-1.863"/><path stroke="#002d56" stroke-miterlimit="3.864" stroke-width=".484" d="M109.131 108.168h-.918s-.488.13-.509.526c-.035.632-.047 1.526.225 1.877l.272.28"/><path stroke="#002d56" stroke-miterlimit="3.864" stroke-width=".567" d="m112.278 95.846.079.477-.113.205-.496-.032-.581-.02s-.326-.03-.41-.06a4 4 0 0 0-.368-.074s-.421-.557.021-.893c.443-.337.899-.574.984-.63.086-.056.128-.041.128-.041"/><path stroke="#002d56" stroke-miterlimit="3.864" stroke-width=".227" d="m112.272 95.95.001.54"/><path stroke="#002d56" stroke-miterlimit="3.864" stroke-width=".454" d="M112.35 96.352s-.137.46-.064.678c.074.217.206.764.228.851.015.06.128.665.192.796s.211.686.673.81.978.037 1.272-.16"/><path stroke="#002d56" stroke-miterlimit="3.864" stroke-width=".34" d="M113.245 98.407s.225-.082.301-.05c.077.033.296.059.296.059s.272-.05.363-.024a1 1 0 0 0 .279.022m-1.041.285s.537.105.762.01m-.018-2.314s.484-.199.908.115"/><path stroke="#002d56" stroke-miterlimit="3.864" stroke-width=".272" d="M113.571 96.366c.038.101-.035.396-.098.513-.062.117-.081.33-.121.42a1 1 0 0 0-.088.329c.002.085.003.078.134.149s.224.01.325-.02.19-.06.281-.034.223-.045.221-.137-.031-.229-.092-.282a2 2 0 0 0-.192-.138"/><path stroke="#002d56" stroke-miterlimit="3.864" stroke-width=".34" d="M112.666 96.425c.073-.01.538-.271.924-.003"/><path fill="#002d56" stroke="#002d56" stroke-miterlimit="3.864" stroke-width=".227" d="M113.071 96.662c-.175-.003-.318.03-.319.073-.001.044.141.082.316.085s.318-.03.319-.074c.001-.043-.141-.081-.316-.084Z"/><path stroke="#002d56" stroke-miterlimit="3.864" stroke-width=".454" d="m113.327 99.471.052.016c.462.124.978.037 1.272-.16"/><path stroke="#002d56" stroke-miterlimit="3.864" stroke-width=".453" d="M112.189 92.997s-1.209.358-1.057.828c.152.469.264.682.376.84.112.156.333.768.403.939.069.17.027.481.309.343 1.599-.787 5.041.575 4.3.515-.199-.016 2.229.486 2.627.226.085-.056.256-.168-.024-.582-.16-.236-.647-.856-.987-1.16-.225-.2-.879-.628-1.075-.956s-.665-.602-1.019-.661-.99-.208-1.473-.183c-.482.024-.623-.02-.878-.065.125.022-1.143-.13-1.502-.084Z"/><path stroke="#002d56" stroke-miterlimit="3.864" stroke-width=".681" d="M115.105 118.459s1.273.781 2.778-.029c1.402-.755.26-.145.26-.145m-6.047.347s1.409.667 2.855-.086"/><path fill="#002d56" stroke="#002d56" stroke-miterlimit="3.864" stroke-width=".227" d="M114.621 96.699c-.184-.02-.336.002-.341.048-.005.045.14.098.323.117.184.02.336-.002.341-.047.005-.046-.14-.099-.323-.118Z"/><path stroke="#002d56" stroke-miterlimit="3.864" stroke-width=".681" d="M112.762 110.646c.853.319 2.17.232 2.994-.029"/><path fill="#eed000" fill-rule="evenodd" stroke="#002d56" stroke-miterlimit="3.864" stroke-width=".094" d="M123.6 127.373h11.704v1.58H123.6z" clip-rule="evenodd"/></svg>