<svg xmlns="http://www.w3.org/2000/svg" width="600" height="300" fill="none" viewBox="0 0 600 300"><path fill="#002a86" d="M0 300h600V0H0z"/><path fill="#fec70b" d="M299.905 252.34c43.238 0 78.29-35.051 78.29-78.29 0-43.238-35.052-78.29-78.29-78.29s-78.29 35.052-78.29 78.29 35.052 78.29 78.29 78.29"/><path fill="#f7e47c" d="M237.555 131.912 230 144.128s-4.025 11.439-4.025 12.499c0 1.058-1.483 13.486-1.483 13.486l.424 3.531 34.529 3.107 26.267-1.836-1.13-1.412-1.271-2.33-.918-2.472-.565-3.531.777-1.765-4.095-9.886-4.378-8.544-4.237 3.178-1.695 1.059-.706.212-1.059.282-2.259-1.059s-1.978-4.237-2.189-4.519-4.449-5.155-4.449-5.155l-3.319-2.612-3.601 3.248-2.118 1.765-1.836 1.413-5.72-6.991z"/><path fill="#fff" d="M236.849 134.525c-.635-1.022 1.027-2.217 1.836-3.107.215-.237.472-.466.777-.565.201-.065.461-.121.635 0 .496.344.426 1.129.635 1.695.287.775.452 1.605.848 2.33.298.545.729 1.008 1.13 1.483q.47.551.988 1.059c.273.27.625.465.847.777.239.334.387.733.495 1.13.105.389-.017.83.141 1.2.203.477.531.956.988 1.2.209.112.474.114.707.071.362-.067.674-.302.988-.494a11.6 11.6 0 0 0 1.624-1.201q.692-.617 1.271-1.341c.499-.621.894-1.319 1.342-1.977.352-.519.665-1.066 1.059-1.554.387-.479.705-1.098 1.271-1.341.281-.121.619-.068.918 0 .534.12 1.055.364 1.483.706.327.261.571.623.777.988.394.701.538 1.517.847 2.26.239.574.422 1.184.776 1.694.514.738 1.354 1.199 1.907 1.907.338.433.572.938.848 1.412.216.374.347.808.635 1.13.348.39.898.552 1.271.918.42.412.757.907 1.059 1.412.573.958 1.04 1.984 1.412 3.036.065.184-.036.486.142.565.604.273 1.215-.546 1.765-.917.359-.244.648-.579.988-.848.754-.595 1.692-.977 2.33-1.695.288-.322.386-.777.636-1.129.309-.435.584-.957 1.059-1.201.421-.216.941-.178 1.412-.141.461.036.949.109 1.342.353.397.247.683.655.918 1.059.603 1.036.839 2.247 1.2 3.389.317 1.002.499 2.046.848 3.036.238.677.573 1.316.847 1.978.339.819.754 1.616.988 2.472.202.735.049 1.56.353 2.259.168.384.511.664.777.988.138.168.371.284.424.495.053.21-.164.42-.141.635.029.283.2.536.353.777.214.339.515.614.777.918.163.189.311.393.494.565.281.264.879.322.917.706.013.116-.181.158-.229.265-.06.135-.047.293-.052.441-.011.271.091.547.035.812-.023.103-.049.233-.142.282a.39.39 0 0 1-.406-.052c-.184-.161-.113-.476-.194-.707-.074-.211-.127-.441-.265-.617a1.13 1.13 0 0 0-.459-.353c-.143-.058-.311-.097-.458-.053-.161.047-.233.379-.389.317-.287-.113-.011-.63-.124-.917-.13-.335-.418-.584-.617-.883-.147-.221-.276-.452-.424-.671-.303-.446-.781-.796-.953-1.307-.089-.261.028-.556-.018-.829a6.5 6.5 0 0 0-.565-1.73c-.338-.699-.881-1.28-1.288-1.942q-.63-1.034-1.201-2.1c-.202-.373-.465-.723-.583-1.13-.094-.329-.038-.685-.087-1.024a11 11 0 0 0-.266-1.271c-.105-.384-.2-.779-.388-1.13-.174-.326-.526-.542-.67-.882-.091-.215-.058-.462-.106-.689-.061-.286-.063-.607-.23-.847-.19-.274-.506-.451-.812-.583-.171-.073-.363-.127-.547-.106a1.2 1.2 0 0 0-.547.247c-.364.274-.557.725-.883 1.042-.433.42-.896.819-1.412 1.13-.292.175-.619.283-.936.406-.342.131-.701.217-1.042.353-.535.213-1.07.438-1.571.724-.18.102-.417.168-.511.353-.113.22-.045.502.017.741.057.219.265.38.318.601.081.337-.043.695-.018 1.04q.02.279.088.548c.048.182.135.351.195.53.11.332.146.691.3 1.006.271.552.736.987 1.077 1.5.461.695.847 1.439 1.306 2.136.341.518.765.982 1.077 1.518.28.483.467 1.014.706 1.518.174.367.271.783.53 1.095.378.457.915.762 1.429 1.059.334.192.701.319 1.059.459.233.091.494.116.707.247.202.125.308.373.511.495.202.12.455.121.671.211.197.083.394.174.565.301.308.228.559.525.812.811.526.594.976 1.249 1.465 1.872.335.424.717.815 1.007 1.271.197.311.315.666.494.988q.155.281.335.548c.17.244.372.465.548.706.066.092.256.186.194.282-.072.11-.27-.014-.389-.07-.252-.121-.399-.398-.635-.548-.218-.139-.493-.173-.706-.318-.286-.194-.482-.496-.742-.724a20 20 0 0 0-1.395-1.094c-.355-.26-.736-.484-1.094-.741-.228-.165-.461-.325-.67-.512-.451-.402-.794-.916-1.254-1.307-.435-.369-.887-.746-1.412-.97-.481-.206-1.017-.255-1.536-.318-.467-.057-.941-.04-1.412-.053-.33-.009-.796.249-.989-.018-.141-.194.115-.469.212-.688.089-.2.264-.358.336-.565.087-.252.152-.532.105-.795-.075-.419-.361-.776-.6-1.129-.301-.446-.803-.753-1.041-1.236-.23-.464-.22-1.013-.336-1.518-.062-.277-.06-.579-.194-.83-.19-.356-.567-.576-.829-.882a31 31 0 0 1-1.784-2.295c-.24-.342-.497-.679-.67-1.059-.128-.28-.133-.606-.265-.883-.239-.501-.687-.881-.936-1.377-.29-.579-.455-1.214-.635-1.836-.221-.76-.313-1.556-.547-2.312-.175-.561-.441-1.089-.636-1.642-.155-.443-.206-.926-.424-1.342a7.5 7.5 0 0 0-1.641-2.118c-.406-.358-.947-.526-1.395-.83a12 12 0 0 1-1.235-.953c-.321-.285-.669-.557-.901-.918-.204-.318-.23-.724-.406-1.059-.155-.297-.281-.652-.565-.83-.272-.17-.632-.157-.953-.141a2 2 0 0 0-.759.194 1.45 1.45 0 0 0-.53.424c-.109.152-.094.37-.194.529-.157.251-.353.503-.618.636-.36.181-.81.054-1.2.159a2.2 2.2 0 0 0-.601.247c-.24.15-.443.356-.635.565-.273.297-.488.643-.724.971-.187.261-.392.512-.547.794a5 5 0 0 0-.335.794c-.072.208-.162.416-.177.636-.023.344.046.693.141 1.024.182.627.499 1.21.812 1.783.317.578.699 1.119 1.077 1.659.258.368.584.69.812 1.077.132.222.236.461.318.706q.113.346.159.706c.041.316-.005.638.035.953.031.239.064.485.159.707.192.448.506.838.812 1.217.324.402.732.729 1.077 1.112.246.274.501.543.706.848.167.249.33.509.424.795.075.225.095.468.105.706.015.306-.127.62-.052.917.082.328.345.582.529.865.227.348.489.672.707 1.024.173.28.343.564.476.865.148.336.289.681.353 1.042.039.22.005.448.018.671.022.378-.018.772.106 1.129.096.278.225.59.476.742.495.3 1.156.083 1.73.159.344.045.69.086 1.024.176.34.092.65.277.989.371.403.112.824.152 1.236.23.429.081.863.144 1.288.246.447.109.896.22 1.324.389.871.345 1.695.803 2.507 1.271 1.149.663 2.211 1.468 3.336 2.171.914.571 1.827 1.142 2.772 1.659.45.247.895.511 1.376.689.296.109.611.16.918.229.346.078.861-.092 1.042.212.041.069-.057.15-.071.23-.044.256.14.586-.033.78-.148.168-.439.105-.662.109a8.7 8.7 0 0 1-2.411-.307c-2.24-.605-6.247-2.726-6.408-2.718a1.97 1.97 0 0 1-1.007-.247c-.398-.217-.721-.57-.988-.936-.2-.274-.246-.64-.442-.918-.226-.323-.498-.631-.829-.847-.337-.22-.742-.317-1.13-.424-.415-.114-.852-.13-1.271-.229-.489-.116-.951-.347-1.448-.424-.25-.039-.511-.074-.759-.017-.29.066-.503.343-.794.406-.61.131-1.258.03-1.871-.089-.404-.078-.825-.176-1.166-.406-.251-.171-.345-.521-.599-.688-.227-.149-.507-.219-.777-.248-.288-.029-.608-.044-.865.089a.75.75 0 0 0-.371.423c-.072.233.005.496.089.724.055.152.133.312.264.406.227.164.576.063.812.212.318.201.483.576.724.865.265.317.553.617.794.954.19.263.385.53.512.829.065.151.04.335.124.477a1 1 0 0 0 .335.317c.181.111.4.141.601.212.164.059.375.048.494.177.062.067.114.185.071.265-.084.151-.322.146-.495.159a1.5 1.5 0 0 1-.706-.124c-.577-.26-1.013-.759-1.483-1.183-.368-.331-.693-.707-1.042-1.059-.421-.426-.791-.912-1.27-1.271-.382-.286-.818-.495-1.254-.688-.592-.263-1.257-.345-1.836-.636-.458-.23-.862-.557-1.271-.865-.427-.322-.872-.631-1.235-1.023-.333-.36-.474-.884-.848-1.201a1.3 1.3 0 0 0-.582-.283c-.336-.065-.686.121-1.024.071-.505-.075-.966-.335-1.43-.547-.328-.151-.598-.449-.953-.512-.293-.052-.592.062-.883.123-.377.08-.759.162-1.112.318-.595.262-1.062.769-1.659 1.024a3.4 3.4 0 0 1-.883.229c-.414.056-.836.004-1.253.018-.336.011-.681-.03-1.007.053-.145.037-.267.137-.406.194-.617.256-1.259.445-1.889.671-.423.152-.862.271-1.27.459-.424.194-.809.465-1.218.688-.456.249-.898.527-1.377.724a5.7 5.7 0 0 1-1.095.336c-.609.115-1.235.185-1.853.141-.271-.02-.631.04-.795-.176-.536-.711-.482-2.05.159-2.666.42-.404 1.165-.054 1.748-.036 1.044.034 2.084.366 3.125.265.663-.064 1.306-.295 1.924-.547.843-.345 1.562-.949 2.4-1.306.483-.206.983-.394 1.501-.477.499-.081 1.022.086 1.518-.018.638-.132 1.188-.538 1.8-.759.769-.277 1.541-.584 2.348-.706.704-.106 1.437-.152 2.136-.017s1.327.52 1.977.812c.627.28 1.291.506 1.854.9.409.286.679.739 1.077 1.041.565.43 1.173.824 1.835 1.077.472.18.981.259 1.483.301.664.054 1.335.01 1.995-.071.311-.038.695.024.918-.195.221-.215.195-.592.212-.9.01-.25-.02-.5-.089-.741-.115-.428-.32-.829-.529-1.218-.394-.735-1.01-1.343-1.359-2.101-.19-.413-.213-.887-.389-1.306a7 7 0 0 0-.635-1.148c-.317-.479-.68-.927-1.059-1.359-.785-.894-1.778-1.602-2.507-2.542a5.4 5.4 0 0 1-.635-1.059c-.15-.327-.21-.687-.336-1.024a13 13 0 0 0-.494-1.165c-.164-.333-.319-.678-.547-.971-.2-.256-.556-.383-.706-.671-.182-.348-.099-.78-.177-1.165-.18-.887-.346-1.785-.671-2.63-.15-.391-.325-.782-.582-1.112-.374-.481-.985-.739-1.359-1.218-.381-.488-.584-1.091-.866-1.642-.283-.556-.518-1.137-.829-1.677-.197-.343-.377-.706-.653-.989-.411-.42-.984-.644-1.448-1.006-.548-.428-1.167-.81-1.571-1.377-.162-.228-.08-.629-.318-.776-.266-.165-.77.336-.935.07"/><path fill="#9dc8eb" d="m283.594 163.264-1.059.282s-.498.573-.636.918c-.229.575-.279 1.217-.282 1.836a7.3 7.3 0 0 0 .282 1.977c.405 1.453 1.766 4.166 1.766 4.166l1.977 2.754 5.013 4.731 26.974 9.18 8.755 6.425 5.72 9.815 5.366 3.248 6.073.848.635 7.908s5.72 2.542 6.85 2.825c1.129.282 4.66.353 4.66.353l4.731-1.554 7.838-12.921 4.519-12.852 2.047-15.746 1.06-8.897-.702-5.208s-85.02-.441-85.373-.441-6.214.353-6.214.353"/><path fill="#a2d100" d="M225.381 171.924s1.722.356 2.596.399c.632.032 1.265-.053 1.897-.1.701-.051 1.398-.133 2.097-.199.699-.067 1.396-.247 2.097-.2.58.04 1.128.287 1.698.4 1.653.326 3.31.699 4.993.798 1.629.096 3.263-.296 4.893-.199.841.05 1.679.194 2.496.399.888.223 1.688.784 2.597.899 1.226.156 2.47-.136 3.695-.3 1.611-.215 3.176-.729 4.793-.898 1.424-.149 2.863-.153 4.294-.1 1.37.05 2.723.371 4.094.399 1.8.038 3.592-.319 5.392-.3.868.01 1.729.203 2.597.2 1.636-.004 3.262-.533 4.893-.399.821.067 1.607.365 2.397.599.978.291 2.896.999 2.896.999l3.295 2.796s3.595 1.897 4.593 2.296c.999.4 4.194.7 4.194.7l4.994 1.597 6.889 2.597s8.688 2.696 9.288 2.895c.599.201 2.796.999 2.796.999s5.691 4.294 6.291 4.793q1.043.856 2.096 1.698l3.196 10.585.799.899s4.594.898 5.393 1.098 4.993 1.198 4.993 1.198.898-.299.898.201c0 .498-.1 1.597-.1 1.597l-.599 2.097 3.994 3.994 1.898 1.698.799.898 3.495-.998 2.197-.699h.499l2.397 2.397-11.684 14.08s-17.076 10.585-17.475 10.585-17.176 6.091-19.872 5.991-20.072.201-20.471.201-27.861-9.188-27.861-9.188l-19.373-15.878-15.678-24.665-3.195-16.077-.3-11.584z"/><path fill="#ffd90f" d="M212.499 47c-2.216 0-4.411.474-6.458 1.395a16.9 16.9 0 0 0-5.476 3.972 18.5 18.5 0 0 0-3.658 5.945 19.7 19.7 0 0 0-1.284 7.013c0 2.406.436 4.789 1.284 7.012a18.5 18.5 0 0 0 3.659 5.944 16.85 16.85 0 0 0 5.475 3.973 15.7 15.7 0 0 0 6.458 1.394c2.216 0 4.411-.474 6.458-1.394a16.9 16.9 0 0 0 5.476-3.973 18.5 18.5 0 0 0 3.658-5.944 19.7 19.7 0 0 0 1.285-7.013 19.7 19.7 0 0 0-1.285-7.012 18.5 18.5 0 0 0-3.658-5.945 16.9 16.9 0 0 0-5.475-3.972A15.7 15.7 0 0 0 212.499 47m33.653.998V82.45h10.086V64.575l9.785 17.875h9.787V47.998h-9.986v17.077l-9.586-17.077zm46.134 0 .201 9.487h8.687V82.45h10.486V57.485h8.887V48zm51.229 0L331.231 82.45h10.686l1.697-4.793h9.687l1.798 4.793h10.385l-12.083-34.452zm37.397 0V82.45h10.085V64.575l9.787 17.875h9.786V47.998h-9.986v17.077l-9.587-17.077zm57.119 0L425.748 82.45h10.685l1.698-4.793h9.687l1.797 4.793H460l-12.083-34.452zm-296.732.1L141 82.45h10.085V61.18l5.093 21.27h7.589l5.493-21.769v21.67h9.486V48.098h-14.079l-4.394 19.973-4.694-19.973zm71.15 7.79c.872 0 1.736.245 2.541.721.806.477 1.538 1.176 2.155 2.057.617.88 1.106 1.927 1.44 3.078s.505 2.384.505 3.63-.172 2.48-.505 3.63c-.334 1.151-.823 2.197-1.44 3.078s-1.349 1.58-2.155 2.057-1.669.722-2.541.721c-1.761 0-3.45-.999-4.695-2.778-1.246-1.78-1.945-4.192-1.945-6.708s.699-4.929 1.945-6.708 2.934-2.778 4.695-2.778m136.158 2.995 2.797 11.284h-6.292zm94.517 0 2.796 11.284h-6.291z"/><path fill="#fff" d="m305.837 202.877-7.874 7.343s1.575.255 2.366.353c1.526.19 3.056.353 4.59.459 2.42.168 4.849.179 7.273.283 2.272.097 6.813.317 6.813.317s1.249.2 1.801-.035c.199-.085.39-.254.459-.459.11-.326-.001-.709-.141-1.023-.156-.352-.469-.613-.742-.883-.183-.183-.6-.495-.6-.495l-.07-3.424-7.026-1.024v-1.236l-6.744-.388z"/><path fill="#969496" d="m304.12 202.568-9.325 9.162 1.511.05 9.611-8.974z"/><path fill="#e86f00" d="M228.588 199.487s2.107 1.075 3.248 1.342c2.044.478 4.193.246 6.284.424 2.075.176 4.143.421 6.214.635 2.025.21 4.061.325 6.073.636 1.733.268 3.434.718 5.154 1.059.987.196 2.03.196 2.966.565.492.194.937.506 1.342.847.242.204.476.432.635.706.188.322.301.691.353 1.059.094.653-.07 1.978-.07 1.978s2.492 2.654 4.166 2.894c.442.064.838-.312 1.271-.423.88-.227 1.782-.374 2.683-.495a19 19 0 0 1 1.695-.141c.234-.009.492-.099.706 0 .166.078.2.322.353.424.656.439 1.492.521 2.259.706.813.196 1.68.157 2.472.424.628.211 1.268.478 1.765.917.343.303.592.713.777 1.131.166.376.253.79.282 1.2.036.519-.108 1.034-.141 1.553-.126 1.998-.212 6.003-.212 6.003l-13.063 5.366-14.122 2.189-4.166-.918-7.697-8.897-7.061-10.239-3.742-9.32z"/><path fill="#fff" d="M284.169 161.713c-.194.015-.428-.008-.569.125-.315.297-.534.857-.351 1.248.225.479.931.539 1.448.65.245.052.573-.177.75 0 .153.152-.076.447 0 .649.062.166.174.373.35.4.191.03.378-.149.499-.3.099-.123.012-.371.149-.45.28-.161.704-.011.949.2.471.406.482 1.149.65 1.748.356 1.273.386 2.623.748 3.894a9 9 0 0 0 .65 1.698c.26.499.433 1.17.948 1.397.215.096.483-.005.699-.1.314-.137.48-.523.799-.648.249-.097.54.011.799-.05.246-.059.475-.181.699-.3.192-.101.427-.17.549-.349.151-.225.139-.528.15-.8.016-.451.248-1.134-.15-1.348-.447-.238-.895.476-1.348.7-.281.139-.55.489-.848.399-.929-.283-.966-1.685-1.499-2.496-.518-.787-1.294-1.424-1.648-2.297-.17-.421-.278-.901-.2-1.348.043-.242.108-.607.35-.65.221-.038.359.276.499.45.253.313.204.973.6 1.048.209.04.367-.231.499-.398.146-.188.126-.487.299-.65.234-.22.585-.416.899-.35.323.068.489.447.699.7.245.295.285.831.649.948.322.102.641-.213.95-.35.394-.174.82-.317 1.147-.598.118-.101.134-.311.276-.375.083-.038.189-.01.274.025.289.12.545.342.723.6.16.231.184.532.275.798.067.192.028.467.2.575.185.115.444-.148.649-.075.112.039.175.158.249.249.144.178.298.359.375.574.074.205.013.441.075.649.053.179.134.353.25.5.223.283.622.4.824.698.148.218.115.523.25.749.093.157.196.441.374.4.246-.057.201-.472.224-.724.067-.752-.166-1.501-.274-2.247a38 38 0 0 0-.251-1.473c-.068-.367-.356-.749-.223-1.098.044-.117.177-.199.298-.225a.43.43 0 0 1 .325.075c.235.178.304.505.425.773.233.517.439 1.049.574 1.599.145.588.16 1.199.251 1.798.084.566.191 1.13.273 1.697.038.266-.072.592.1.798.106.128.311.125.475.15.189.029.436-.132.574 0 .145.138-.009.402.025.6.057.326.081.698.3.948.09.103.24.211.373.175.185-.05.274-.29.325-.474.322-1.166-.018-2.43-.225-3.621-.128-.734-.41-1.432-.623-2.146-.122-.409-.489-.813-.375-1.223.06-.216.278-.419.5-.449.22-.03.436.144.598.298.319.303.462.751.649 1.149.179.379.351.766.45 1.174.283 1.163.239 2.383.4 3.569.077.577.022 1.199.274 1.723.106.223.292.413.499.549.092.061.226.041.314.109.029.022.034.067.061.091.153.136.347.239.549.275a1.3 1.3 0 0 0 .649-.075c.046-.017.076-.078.126-.079.037-.001.061.057.099.054.219-.017.345-.273.524-.4.187-.132.349-.41.575-.374.169.026.194.287.323.399.22.191.462.402.75.45.235.039.487-.041.699-.15.199-.102.297-.352.499-.45.182-.087.401-.059.599-.1.487-.099 1.048-.055 1.448-.349.195-.144.325-.386.375-.623.141-.683-.173-1.384-.275-2.073-.136-.917-.251-1.84-.45-2.747-.133-.607-.433-1.179-.499-1.797-.028-.273-.133-.619.05-.823.102-.113.301-.107.449-.075.235.05.422.238.6.398.263.239.485.525.674.825.27.428.492.891.649 1.373.206.636.248 1.314.374 1.972.091.474.202.945.275 1.423.033.215-.041.464.075.649.073.118.243.136.35.225.122.102.251.208.325.35.093.181.086.399.124.599.037.191-.033.432.1.574.146.155.413.188.623.15.278-.051.472-.31.7-.475.221-.16.417-.354.648-.499.206-.128.408-.312.65-.325a.32.32 0 0 1 .2.076c.174.136.278.349.374.548.073.149.034.356.151.475.129.132.34.186.525.179.171-.007.306-.164.473-.204.227-.056.47-.099.699-.05.294.062.51.336.798.424.224.069.537.244.7.075.122-.127-.055-.349-.075-.524-.043-.365-.01-.742-.101-1.099-.046-.184-.05-.449-.224-.524-.155-.067-.311.136-.475.175-.228.053-.468.119-.698.075-.296-.058-.51-.341-.8-.425-.103-.03-.235.04-.321-.025-.078-.059-.037-.202-.102-.274-.237-.264-.602-.406-.949-.474-.442-.087-.929-.066-1.348.1-.159.063-.28.201-.4.324-.133.135-.181.361-.35.449-.118.062-.283.092-.399.025-.264-.153-.324-.528-.399-.823-.131-.517.017-1.073-.075-1.599-.107-.617-.381-1.194-.549-1.797-.12-.43-.406-.86-.325-1.298.037-.2.154-.444.35-.5.183-.052.367.118.524.225.254.172.402.469.648.65.19.139.393.36.625.324.198-.03.233-.366.425-.425.21-.064.441.199.648.126.245-.088.389-.364.5-.6.118-.252-.068-.649.15-.823.156-.125.399.01.599.025.159.011.339.134.474.05.187-.118.128-.425.224-.625.056-.114.083-.276.201-.325.293-.12.659.05.924.225.208.138.227.484.448.6.236.122.536.065.8.025.174-.027.322-.18.499-.175.242.006.437.22.673.275.35.081.834.341 1.075.075.13-.145-.055-.386-.1-.575-.106-.44-.039-1.025-.4-1.298-1.726-1.305-4.326-.104-6.491-.15-6.457-.136-12.916-.189-19.373-.374-4.37-.126-8.739-.284-13.106-.5-.41-.02-.819-.107-1.229-.075zm20.975 2.722a.6.6 0 0 1 .45.15c.242.22.264.6.399.898.303.667.658 1.314.923 1.997.259.667.448 1.361.649 2.047.217.737.497 1.462.6 2.222.021.159.136.393.003.48-.039.026-.082-.064-.128-.055-.127.024-.202.167-.274.274-.132.195-.101.491-.275.649-.104.094-.267.168-.4.125-.198-.064-.241-.339-.374-.499-.063-.077-.164-.129-.2-.222-.157-.395.022-.853-.024-1.276a17 17 0 0 0-.575-2.82c-.293-1.01-.963-1.908-1.123-2.947-.043-.28-.098-.606.05-.848a.4.4 0 0 1 .299-.175m45.986-1.573c-4.985-.035-9.97.004-14.954.051-2.672.025-5.685-1.185-8.015.123-.394.222-.779.699-.724 1.149.034.275.467.331.6.575.129.238.068.54.15.798.06.192.058.487.25.55.144.047.313-.099.399-.226.1-.145-.004-.366.075-.524a.73.73 0 0 1 .349-.35c.415-.172.912-.107 1.349 0 .209.052.399.173.573.301.133.097.269.205.35.349.172.306.168.682.25 1.024l.199.848c.068.291.148.58.2.874.082.471.119.949.175 1.424.026.215.04.433.075.648.058.353-.036.804.224 1.049.166.155.49.233.674.1.246-.179.157-.596.15-.9-.021-.859-.389-1.675-.549-2.52-.117-.613-.268-1.225-.299-1.848-.014-.275-.139-.624.05-.824.137-.147.408-.14.598-.075.123.042.205.166.275.275.371.575.594 1.25.725 1.922.072.376.004.766.024 1.148.047.876.176 1.746.225 2.622.034.606-.071 1.226.05 1.822.05.246.07.554.274.699.156.112.398.101.574.026.358-.152.619-.518.775-.875.137-.314.103-.68.1-1.023-.011-1.072-.225-2.134-.375-3.196-.064-.451-.116-.905-.225-1.348-.147-.595-.46-1.145-.574-1.747-.055-.287-.225-.641-.05-.875.087-.116.28-.114.424-.098.211.022.416.133.575.273.393.347.597.864.848 1.324.202.37.147.963.525 1.148.391.192.837-.304 1.273-.3.266.003.559.042.774.201.243.179.343.501.474.774.169.35.297.722.399 1.098.181.669.312 1.356.375 2.047.058.638.147 1.299 0 1.922-.056.236-.205.439-.325.649-.129.225-.382.394-.424.649-.026.161.002.368.125.475.235.202.614.109.923.1.439-.015.896-.049 1.299-.225.45-.198.833-.542 1.173-.898.161-.169.383-.342.4-.575.106-1.537-1.632-2.651-2.097-4.119-.124-.393-.042-.834-.175-1.223-.213-.625-.847-1.075-.974-1.723-.076-.387.046-.793.15-1.174.05-.184.088-.391.225-.523.115-.112.289-.196.449-.175.195.026.347.2.475.348.117.136.173.313.248.475.167.359.31.729.45 1.099.171.453.382.898.475 1.373.094.482.129.984.075 1.473-.045.403-.376.77-.325 1.173.129 1.028.587 2.306 1.547 2.696.113.046.264-.014.35-.1.234-.232.243-.62.275-.948.064-.656-.092-1.318-.175-1.972-.116-.92-.293-1.832-.45-2.747-.087-.516-.32-1.025-.274-1.548.016-.194.06-.413.2-.549.075-.073.201-.138.299-.1.268.103.298.492.425.75.197.397.4.797.524 1.223.172.582.173 1.203.301 1.797.115.538.315 1.057.423 1.598.073.371.094.75.15 1.123.037.251.025.516.124.749.116.268.351.466.525.699.292.391.452.928.873 1.174.232.134.549.196.799.099a.54.54 0 0 0 .301-.348c.174-.617-.123-1.283-.301-1.898-.163-.566-.528-1.06-.699-1.623-.12-.397-.116-.823-.225-1.224-.198-.734-.532-1.425-.773-2.146-.135-.405-.3-.804-.374-1.223-.053-.296-.208-.644-.051-.9.077-.124.255-.181.4-.175.227.01.452.153.6.325.372.436.316 1.11.573 1.623.248.493.549.969.924 1.374.101.108.208.314.351.274.136-.038.127-.258.148-.4.067-.462-.187-.938-.099-1.397.05-.263.095-.638.349-.724.141-.049.297.092.399.2.297.309.364.775.525 1.172.237.583.515 1.158.649 1.773.088.4-.051.843.099 1.224.074.187.262.307.375.473.168.247.345.495.449.775.108.285.166.593.176.898.007.252.005.52-.101.749-.094.203-.372.29-.449.5-.085.234-.11.538.025.748.08.125.272.124.4.2.174.104.376.188.499.35.091.119.03.334.15.425.593.444 1.516.353 2.221.124.163-.053.236-.271.4-.325.15-.049.319-.009.474.025.263.058.482.271.75.301.201.021.396-.102.598-.1.144 0 .295.013.425.074.118.055.172.222.3.25.311.068.612-.182.923-.25.197-.043.4-.141.599-.1.165.034.259.244.425.275.283.054.566-.113.848-.175.142-.031.283-.136.425-.1.194.049.281.291.449.4.291.188.603.404.948.423.358.021.811-.036 1.025-.323.288-.387.264-1.03.024-1.449-.075-.133-.252-.182-.399-.225-.296-.086-.645.082-.923-.05-.224-.106-.389-.327-.5-.548-.162-.326-.186-.71-.2-1.075-.021-.551-.154-1.203.175-1.647.178-.239.528-.309.823-.35.19-.025.411.182.569.074.12-.082.094-.277.105-.423a3.1 3.1 0 0 0-.1-1.048c-.134-.496-.639-.884-.649-1.398a1.099 1.099 0 0 1 .325-.774c.103-.099.262-.184.4-.15.195.048.285.285.399.449.313.449.592.932.774 1.448.163.464.189.965.274 1.449.073.406.047.84.201 1.223.071.178.153.388.324.475.186.093.434-.108.625-.025.151.065.162.409.323.374.296-.065.181-.579.25-.874.062-.264.128-.529.15-.799.067-.813-.008-1.632-.05-2.446-.016-.301-.183-.619-.075-.9.061-.159.207-.317.374-.349.203-.039.419.091.575.224.351.302.529.769.699 1.2.163.412.254.856.299 1.298.039.38-.029.765-.025 1.147.003.184-.045.381.025.55.142.343.538.519.749.824.187.269.346.563.45.873.11.328.106.685.175 1.025.05.243.151.476.174.722.029.316-.261.714-.05.95.284.317.922.313 1.274.075.175-.118.182-.39.2-.6.037-.436-.147-.863-.2-1.298-.079-.646-.031-1.311-.175-1.947-.137-.606-.336-1.21-.649-1.747-.182-.311-.572-.487-.699-.825-.181-.482-.167-1.051-.025-1.547.11-.382.278-.858.649-.999.177-.068.376.071.549.15.219.099.44.22.6.399.341.384.502.899.698 1.373q.206.485.325.999c.09.409-.003.858.15 1.248.067.172.197.316.325.45.249.261.515.816.848.674 2.185-.929 1.6-4.904.674-7.091-.374-.883-1.344-1.472-2.247-1.797-6.71-2.419-14.262-.323-21.394-.374m1.947 3.045c.209-.328.789.162 1.098.4.104.081.15.217.225.325.116.167.267.313.349.499.151.335-.041.849.251 1.074.243.188.626.057.923-.025.424-.118.932-.267 1.149-.65.147-.261-.056-.6-.025-.898.022-.213-.032-.508.148-.624.185-.12.467 0 .65.125.154.105.122.414.3.474.227.077.435-.229.674-.25.185-.016.405-.018.549.1.213.176.205.514.299.773.213.587.455 1.166.6 1.773.204.859.291 1.743.375 2.622.033.356.215.756.05 1.073-.233.444-.776.85-1.275.799-.24-.024-.303-.401-.523-.5-.397-.177-.963-.374-1.299-.1-.214.176-.012.562-.1.825-.1.3-.234.617-.473.823-.123.105-.293.211-.45.175-.201-.046-.348-.258-.425-.45-.104-.262.006-.565 0-.848-.003-.208.035-.425-.025-.624-.069-.233-.31-.39-.374-.624-.096-.344.005-.716 0-1.074-.004-.258.183-.621-.025-.773-.147-.107-.384.033-.524.149-.187.154-.249.419-.324.649-.108.329-.042.705-.176 1.024-.055.132-.108.37-.25.349-.408-.061-.285-.776-.399-1.173-.271-.945-.363-1.938-.673-2.871-.256-.767-1.255-1.463-.975-2.222.087-.233.633-.078.675-.325"/><path fill="#f7e47c" d="M365.785 138.691s-3.036 1.13-3.389 1.2-2.542.848-2.542.848l-1.836.777-2.895.706s-1.483.494-1.836.494-3.742.353-3.742.353-2.19.071-2.472.071-2.471.141-2.966.282c-.494.142-2.541 1.2-2.541 1.2l-2.543 2.048s-2.4 1.06-2.825 1.13c-.423.071-2.894.283-3.318.283s-2.895-.848-2.895-.848l-2.542-.141s-1.553.283-2.613.636c-1.058.353-5.719 2.612-5.719 2.612l-4.237 2.048s-1.836.706-2.33.776-1.553.353-1.553.353l-2.048.918h-1.271l-2.189-.635-3.883.282-2.825.918-2.542.071-2.895-.071h-2.471l-1.554.848-1.836.07-1.836 1.413-2.259 1.765s-.777.282-.777.565c0 .282-.141.777.353 1.059.495.283 26.762 2.754 26.762 2.754s4.801.212 5.296.212c.494 0 2.965.07 2.965.07s1.695-.07 1.977-.07 1.766-.142 1.766-.142 2.824-.423 4.237-.494c1.412-.071 27.467-5.578 27.467-5.578l9.533-7.768 2.471-7.767z"/><path fill="#7d421d" d="M366.133 138.372s-1.733.998-2.647 1.397c-1.196.523-2.505.761-3.695 1.298-.434.196-.804.525-1.248.699-.526.207-1.089.316-1.647.4-.264.04-.545-.03-.8.05-.612.192-1.069.718-1.647.998-.512.248-1.04.49-1.598.6-.506.1-1.037-.025-1.547.05-.324.047-.658.103-.949.25-.381.191-.638.57-.999.798-.547.345-1.114.711-1.747.849-.781.171-1.603-.139-2.397-.05-.478.054-.945.191-1.398.35-.38.132-.708.406-1.099.498-.47.111-.969-.013-1.448.05-.44.058-.872.174-1.297.3-.374.111-.716.332-1.1.4-.262.046-.54-.067-.798 0-.166.043-.353.108-.45.25-.15.222-.18.542-.1.798.075.236.281.434.5.549.862.455 1.933.247 2.896.4.651.104 1.299.227 1.947.35.417.079.825.212 1.248.25.862.076 1.762-.28 2.597-.05.396.108.722.397 1.049.648s.735.471.898.849c.086.199.107.46 0 .648-.191.338-.63.479-.998.6-.683.224-1.429.23-2.147.2a8.6 8.6 0 0 1-2.247-.4c-.668-.213-1.221-.721-1.898-.898-.468-.122-.964-.072-1.448-.1-1.114-.063-2.25.071-3.345-.15-.66-.133-1.32-.35-1.897-.699-.403-.244-.651-.697-1.049-.948-.259-.164-.545-.309-.848-.35a1.8 1.8 0 0 0-.799.1c-.22.074-.369.352-.6.35-.351-.004-.601-.363-.898-.55-.235-.147-.429-.393-.7-.449-.313-.066-.646.043-.948.15-.38.133-.693.411-1.049.599-.573.302-1.128.66-1.748.848-.466.142-.962.167-1.447.2-1.145.078-2.319-.223-3.445 0-.689.136-1.328.47-1.948.799-.53.282-.965.722-1.497.998-.571.297-1.192.485-1.798.7-.411.145-.819.319-1.249.399-.54.102-1.097.071-1.647.101-.366.019-.791-.151-1.098.05-.125.08-.227.251-.2.398.049.267.356.432.6.55.576.278 1.26.239 1.897.299.978.094 1.964.055 2.945.1.583.027 1.179-.033 1.748.1.123.029.276.047.35.15.135.19.082.467.049.698-.027.193-.052.423-.2.55-.308.267-.79.274-1.198.25-.525-.031-.978-.416-1.498-.5a4 4 0 0 0-1.198 0 4.9 4.9 0 0 0-1.248.35c-.302.128-.53.425-.849.499-.619.143-1.317.105-1.898-.15-.291-.128-.42-.495-.698-.649-.331-.184-.723-.249-1.099-.3-1.04-.139-2.113.18-3.145 0-.436-.076-.829-.311-1.249-.448-.396-.129-.788-.278-1.198-.35-.246-.044-.504-.106-.749-.051-.392.091-.666.473-1.048.599-.542.178-1.13.16-1.698.201-.697.048-1.422-.134-2.097.05-.331.089-.572.397-.899.499-.654.204-1.361.192-2.047.2-.667.007-1.342-.019-1.997-.151-.207-.041-.389-.214-.599-.199-.446.031-.79.419-1.198.599-.425.188-.864.341-1.299.5-1.093.4-2.196.769-3.295 1.148-1.513.521-3.164.738-4.543 1.547-.194.114-.467.228-.5.45-.108.731.59 1.413 1.148 1.898.287.249.676.373 1.049.449.701.144 1.432-.014 2.147 0 1.715.034 3.429.114 5.143.199 2.215.109 4.424.321 6.64.4 4.574.162 9.154.124 13.731.15.616.003 1.26.184 1.848 0 .387-.123.621-.547.998-.699.297-.12.66-.012.949-.15.606-.289.972-.929 1.497-1.349.812-.648 1.615-1.338 2.547-1.797.453-.223.959-.322 1.448-.449.477-.123 1.016-.061 1.448-.299.546-.302.805-.967 1.297-1.349a7.8 7.8 0 0 1 1.848-1.049c.813-.327 1.699-.427 2.546-.649.684-.179 1.35-.44 2.048-.548.724-.113 1.464-.106 2.197-.1.994.008 2.004-.025 2.975.185.833.18 1.566.688 2.388.911.331.09.7.037 1.017.169.174.072.423.146.46.333.031.154-.119.313-.25.399-.267.177-.629.13-.948.15-.499.031-1.017.087-1.498-.05-.48-.137-.826-.589-1.299-.75-.731-.247-1.53-.393-2.296-.299-.408.05-.804.224-1.149.45-.374.244-.577.698-.948.948-.284.191-.606.376-.949.4-.447.03-.851-.376-1.298-.351-.447.027-.843.309-1.249.501-.377.177-.755.361-1.098.599-.416.289-.684.791-1.148.998-.49.219-1.065.131-1.597.2-.633.081-1.301.022-1.897.25-.359.136-.621.452-.95.649-.402.241-.83.435-1.247.648-.233.119-.554.134-.7.35a.68.68 0 0 0-.05.6c.119.294.427.496.717.625.449.2.98.105 1.466.179.172.026.346.046.514.094.532.15 1.006.483 1.547.599.603.13 1.232.136 1.848.1.446-.026.875-.202 1.321-.227 1.048-.059 2.095.142 3.143.177 1.404.047 2.829-.197 4.212.043.456.08.848.453 1.31.456 2.851.023 5.291-.204 8.188-.05.106.006.178.089.284.094 2.267.094 4.365.023 6.576.033.485.002.889.275 1.346.346.45.071.91.092 1.365.08.457-.013.909-.106 1.363-.153.35-.036.699-.083 1.049-.1.749-.035 1.502-.082 2.247 0 .191.022.374.096.564.126.71.113 1.431.132 2.146.201.312.029.623.08.937.09.367.011.736-.005 1.101-.035.333-.028.688-.134.994-.133 1.43.009 2.897.209 4.343.145.241-.011.477-.076.718-.088 1.041-.055 2.085.047 3.127.057 1.032.01 3.096.004 3.096.004s.223-4.602-.15-6.858c-.685-4.133-2.177-8.118-3.795-11.983-.894-2.136-2.199-4.076-3.245-6.141q-.432-.87-.848-1.747m-127.371 40.692-.201.948-.007 3.481 2.654-.085v-.649s-.05-.651-.075-.949l-.224-2.746zm31.156.15-2.098 1.547-.199 4.095 2.546.212s-.219-1.237-.3-1.859c-.021-.167-.044-.333-.05-.5-.041-1.165.1-3.495.1-3.495zm10.186.998-2.397.6-.2 4.643 2.697.599.25-.45s-.351-1.348-.401-1.547c-.049-.2.051-3.845.051-3.845m-31.606 1.099-1.872.175-.025 2.72.549.351 1.148-.151zm80.182.103q-.599-.002-1.196.053c-.764.07-1.531.189-2.265.413-.965.295-1.893.704-2.763 1.216-.917.543-1.84 1.051-2.535 1.944-3.235 4.156-9.61 12.448-9.61 12.448l-10.686.25s1.979-4.349 2.797-6.591c.155-.426.356-.848.4-1.298.03-.317.058-.673-.1-.948-.154-.269-.455-.454-.749-.55a1.2 1.2 0 0 0-.699 0c-.33.098-.624.289-.849.55-2.1 2.491-3.845 8.987-3.845 8.987l-1.797.05s-1.508-3.48-2.996-4.494c-.323-.221-.757-.243-1.149-.251-.287-.005-.617-.021-.848.151-.268.2-.426.564-.45.899-.014.21.11.408.2.598.574 1.21 2.148 3.396 2.148 3.396l-17.094.488s-.235-.812-.5-1.125c-.279-.331-.674-.57-1.08-.717-.394-.142-.831-.149-1.249-.132-.497.02-1.044.012-1.465.275-.247.154-.414.429-.523.699-.293.729-.279 1.555-.285 2.341-.012 1.515.215 3 .479 4.521.065.377.33.745.649.966.365.255.853.289 1.298.314.434.024.893.002 1.296-.164.291-.12.547-.333.748-.576.231-.278.385-.621.493-.966.089-.287.118-.893.118-.893l19.61-.038-5.642 12.682 2.497 1.298 5.492-12.182 9.437 12.781 2.092-1.154-9.282-13.375s2.974-.163 4.462-.161c1.426 0 2.85.105 4.276.161 1.232.048 2.464.07 3.694.15 1.025.066 2.06.467 3.068.272.504-.097.964-.389 1.373-.699.451-.342.779-.82 1.148-1.248.399-.461 1.153-1.422 1.153-1.422s2.515-3.638 3.794-5.442c.856-1.205 1.568-2.533 2.596-3.595.741-.765 1.624-1.391 2.528-1.952a14.7 14.7 0 0 1 2.764-1.343c.586-.21 1.195-.405 1.817-.438.715-.036 1.429.445 2.128.288.329-.073.617-.304.849-.549.277-.293.566-.647.599-1.048a1.058 1.058 0 0 0-.299-.8c-.227-.219-.587-.253-.899-.298-.871-.127-1.767-.036-2.638.088-.751.107-1.49.307-2.205.56-1.123.398-2.233.871-3.246 1.498-.725.448-1.385 1.006-1.998 1.599-1.434 1.386-2.641 2.99-3.893 4.543-1.574 1.95-4.544 5.991-4.544 5.991l-1.898-2.246s4.485-5.955 6.541-8.338c.723-.839 1.399-1.735 2.247-2.447.711-.597 1.516-1.085 2.346-1.498.732-.363 1.498-.685 2.298-.849.796-.164 1.642.051 2.435-.127.32-.071.675-.144.91-.373.209-.203.315-.51.355-.798a1.47 1.47 0 0 0-.117-.802c-.093-.2-.218-.484-.438-.496a26 26 0 0 0-1.303-.047m-66.152.047-1.898.349v.699l.039 1.685-.7.675 2.259.337.85-.35s-.016-.359-.038-.537c-.044-.352-.188-.55-.188-1.049s-.324-1.809-.324-1.809m-8.013.265c-.103 0-.2.009-.275.034-.3.1-.949.15-.949.15l-.137 2.946 1.361.088 1.273-.188-.6-2.946s-.364-.084-.673-.084m-11.696 8.884-2.06.537-.3.699.05 2.747 2.147.199zm9.973.412-1.81.824-.112 3.495 1.698.237zm7.49.474-1.499 1.298-.15 3.196h1.699zm11.52 6.862a.9.9 0 0 1 .264.035c.133.032.272.067.389.141.14.089.255.218.353.353.1.139.224.288.229.459.039 1.413.076 2.762.089 4.254.002.234-.262.406-.46.531a.8.8 0 0 1-.388.105c-.125.005-.249-.04-.371-.071-.131-.033-.27-.056-.388-.122-.13-.075-.261-.17-.335-.301-.137-.239-.147-.6-.159-.811-.063-1.189-.207-2.449-.195-3.709.003-.194.159-.361.283-.511a1 1 0 0 1 .3-.248 1 1 0 0 1 .389-.105m-11.298 8.647a.74.74 0 0 0-.371.073c-.168.083-.25.279-.389.406-.167.153-.314.354-.528.424-.359.116-.759-.11-1.131-.053-.273.041-.575.094-.777.282-.095.088-.052.28-.159.354-.077.054-.187.01-.281.017-.236.019-.491-.027-.707.071-.14.064-.195.254-.335.317-.178.08-.389.067-.583.053-.386-.027-.744-.234-1.13-.265-.165-.013-.378-.082-.494.036-.286.29-.167.823-.071 1.218.128.525.449 1.01.83 1.394.678.684 1.58 1.136 2.472 1.501a11.3 11.3 0 0 0 3.442.812c1.325.098 2.666-.086 3.971-.335.52-.099 1.093-.147 1.518-.46.162-.118.326-.294.336-.494s-.171-.363-.282-.529c-.406-.603-.894-1.151-1.394-1.678a21 21 0 0 0-2.03-1.871c-.566-.456-1.08-1.071-1.784-1.253a.6.6 0 0 0-.123-.02m18.535 9.712s-.532 1.54-1.007 2.188c-.667.911-1.605 1.597-2.506 2.278-.863.651-1.759 1.288-2.753 1.713a5.8 5.8 0 0 1-1.66.423c-.462.049-.933-.115-1.394-.053a2.9 2.9 0 0 0-.954.3c-.428.222-.713.674-1.148.883-.294.14-1.44.222-1.136.343 1.355.537 2.195.922 3.308 1.228 1.357.373 2.695.741 4.077 1.006 1.536.295 3.152.411 4.714.495 1.198.064 2.454.022 3.654-.001.429-.008 1.02.176 1.395-.035.189-.106.312-.634.353-.847s-.041-.437-.124-.636c-.415-.998-1.109-1.868-1.818-2.683-.427-.49-1.034-.806-1.447-1.307-.355-.429-.702-.896-.865-1.429-.173-.563.007-1.185-.089-1.766-.119-.718-.6-2.1-.6-2.1m-22.755 9.267-4.607.336s-2.648.53-2.789.6c-.141.071-.954.495-.954.495l-.899.423 6.884 5.544 2.559.652 3.266-3.072.372-3.195s-.812-1.677-.901-1.695-2.931-.088-2.931-.088m34.229 3.866c-.54.038-.375 4.367-.317 7.414.022 1.189-.231 1.792-.159 2.455.021.198.066.396.141.581.087.215.187.438.353.601.265.261 1.253.495 1.253.495l5.914-10.098s.021-.954 0-1.43c-.018-.401-.022-.807-.106-1.2-.063-.299-.429-1.757-.723-1.678-1.195.325-6.178 2.628-6.356 2.86m11.355-2.206s-.36.725-.423 1.024c-.085.393-.088.799-.106 1.2-.021.476 0 1.43 0 1.43l5.627 10.345s1.275-.481 1.54-.742c.166-.163.266-.386.353-.6.075-.186-.018-2.32-.092-3.672-.057-1.025.139-3.005.075-4.026-.039-.625.524-3.636-.124-3.759-.398-.075-3.631-1.359-5.332-1.872-.513-.155-1.148-.067-1.518.672"/><path fill="#008600" d="M240.968 168.509c-.12-.002-.242.011-.359.02-.527.04-1.038.207-1.547.349-.305.085-.619.154-.9.3-.496.258-1.029.539-1.347.999-.207.298-.167.71-.3 1.048-.241.609-.478 1.244-.898 1.747-.404.483-1.014.747-1.498 1.15-.173.142-.413.241-.5.448-.161.383-.104.862.051 1.249.065.164.302.228.349.398.05.18-.033.376-.1.55-.09.237-.384.396-.4.65-.027.475.335.902.6 1.298.177.264.387.517.648.699.429.298.973.382 1.448.598.339.154.645.385.999.5.29.094.598.19.898.15.237-.032.444-.181.65-.3.3-.173.53-.466.849-.6a1.2 1.2 0 0 1 .549-.098c.194.016.422.05.549.198.111.129-.007.368.1.5.08.098.224.137.35.15.322.031.626-.173.948-.2.415-.035.849.166 1.249.05.253-.074.434-.297.648-.45.185-.131.55-.398.55-.398s.351-.064.45.05c.327.378-.129 1.004-.05 1.497.061.385.136.81.399 1.098.211.231.54.345.848.4.198.036.408.009.6-.05.164-.05.28-.224.45-.25.235-.035.48.055.698.15.186.081.304.296.5.35.45.124.932-.057 1.397-.1.301-.028.632.038.9-.1a1.03 1.03 0 0 0 .448-.5c.136-.306-.148-.773.1-.998.172-.156.506-.129.699 0 .255.17.176.597.35.849.208.3.468.594.798.749a.76.76 0 0 0 .401.05c.281-.034.517-.259.799-.3a1.5 1.5 0 0 1 .697.05c.192.068.301.308.5.35.416.087.844-.119 1.248-.25.226-.074.473-.14.65-.3.361-.324.478-.845.749-1.248.093-.138.153-.319.299-.399.19-.105.511-.218.649-.05.198.24-.208.591-.25.899-.044.33-.105.682 0 .998.079.237.245.457.45.6.285.199.664.393.999.3.216-.061.25-.397.449-.501.237-.124.531-.105.799-.099.202.004.423.002.599.1.176.097.211.381.399.449.317.115.709.02.999-.15.512-.297.872-.851 1.099-1.398.108-.263-.019-.59.1-.848.112-.247.288-.526.549-.6.116-.033.243.042.35.1.331.181.535.539.848.749.308.208.627.515.999.499.254-.011.455-.233.648-.399.117-.1.149-.319.3-.35.146-.029.25.2.399.2s.253-.178.401-.2c.368-.052.729.148 1.097.2.332.047.672.035 1 .1.17.034.336.089.498.15.188.071.361.178.549.25.212.08.429.249.65.199.264-.06.449-.323.599-.549.165-.25.189-.57.299-.849.122-.304.4-.898.4-.898s.437.315.55.548c.124.257-.067.618.1.85.225.314.696.337 1.047.499.298.137.597.273.899.399.215.089.418.242.649.25.331.01.629-.213.949-.3.28-.077.559-.174.849-.199.265-.022.535.015.799.05.404.055.79.239 1.198.249.32.007.669.005.949-.15.289-.161.428-.503.649-.748.212-.237.374-.54.649-.7.31-.181.783-.007 1.048-.25.233-.213.257-.585.3-.898.044-.33-.144-.679-.05-.999.08-.275.416-.425.499-.698.16-.526.128-1.128-.05-1.648-.073-.214-.338-.332-.399-.549-.06-.209.121-.445.05-.65-.089-.256-.328-.442-.549-.599-.207-.146-.501-.141-.699-.299-.289-.231-.391-.636-.65-.899a2.4 2.4 0 0 0-.598-.449c-.187-.098-.423-.084-.6-.2-.187-.122-.267-.369-.45-.499-.205-.148-.499-.144-.698-.3-.197-.155-.226-.488-.449-.6-.149-.074-.339-.042-.5 0-.13.035-.221.162-.349.2-.288.085-.601.019-.899.05-.318.034-.667-.002-.949.15-.218.117-.322.378-.499.549-.205.197-.496.312-.649.55-.168.262-.192.593-.25.898-.059.313-.025.64-.1.949-.13.538-.388 1.036-.599 1.548-.222.538-.698 1.598-.698 1.598s-.207-.631-.301-.95c-.216-.744-.39-1.499-.599-2.246-.159-.567-.283-1.148-.5-1.697-.163-.416-.222-.957-.598-1.199-.392-.252-.946.065-1.398-.05-.324-.082-.593-.314-.899-.449-.375-.167-.889-.13-1.148-.449-.191-.236.073-.692-.15-.899-.134-.125-.367-.075-.549-.05-.282.037-.614.084-.799.3-.156.18-.046.484-.149.699-.16.33-.432.598-.7.848-.209.196-.525.272-.699.5-.087.113-.052.297-.15.4-.175.183-.474.181-.698.299-.192.101-.432.167-.55.349-.192.296-.091.701-.15 1.049-.072.434-.083.89-.25 1.298-.114.278-.235.607-.499.749-.278.149-.632.01-.949 0-.516-.017-1.047-.23-1.547-.1-.268.069-.512.245-.7.449-.166.18-.161.491-.349.649-.202.169-.559.067-.748.25-.205.197-.215.528-.3.799-.041.131.017.327-.1.399-.131.08-.319-.019-.45-.1-.361-.226-.487-.707-.798-.998-.445-.417-1.005-.691-1.498-1.048-.136-.098-.236-.265-.399-.3-.435-.092-.874.17-1.299.3-.358.109-.691.288-1.048.398-.409.127-.971-.026-1.248.3-.141.165-.028.434-.05.65-.027.267.018.557-.1.798-.083.169-.213.374-.399.4-.267.035-.52-.201-.7-.4-.414-.46-.414-1.178-.748-1.697a5.4 5.4 0 0 0-1.199-1.348c-.312-.243-.654-.559-1.049-.55-.231.005-.418.206-.599.349-.341.271-.573.66-.898.95-.249.222-.489.479-.8.599-.171.065-.549.05-.549.05s-.449-.3-.399-.549.019-.609.1-.899c.085-.301.354-.54.399-.85a1.7 1.7 0 0 0-.15-.998c-.212-.42-.698-.635-.998-.998-.397-.48-.62-1.096-1.048-1.548-.302-.32-.734-.492-1.049-.799-.229-.223-.392-.506-.6-.75-.161-.187-.276-.44-.498-.548a.8.8 0 0 0-.341-.07m-4.044 13.218a.24.24 0 0 0-.109.033c-.117.072.008.315-.1.399-.184.144-.466-.019-.699 0-.302.025-.625.018-.899.151-.403.194-.703.562-.998.899-.213.242-.434.496-.55.798-.095.25-.26.584-.1.799.182.243.605.074.899.15.29.075.601.131.849.3.273.186.323.704.65.748.297.04.494-.339.748-.5.246-.156.48-.336.749-.448a5 5 0 0 1 1.348-.35c.589-.07 1.174.026 1.774.021.577-.005 1.167-.116 1.721.029.202.053.37.194.55.3.322.189.589.494.948.598.479.139 1.004.069 1.498 0 .241-.033.46-.239.699-.2.318.052.492.448.799.55.379.126.798.066 1.198.05a11 11 0 0 0 1.249-.15c.57-.093 1.122-.304 1.697-.35.366-.029.752-.069 1.098.05.136.047.35.25.35.25s-.606.288-.899.45c-.51.28-1.021.565-1.498.899a8 8 0 0 0-1.048.848c-.168.167-.405.317-.45.55-.062.325.182.638.301.948.072.188.27.349.249.549-.032.308-.523.441-.55.75-.025.296.165.615.4.798.189.146.501.016.699.15.198.135.232.428.399.599.142.146.297.359.5.35.26-.011.38-.36.599-.5.233-.147.478-.298.749-.349.246-.046.563-.117.749.05.214.191-.103.712.15.849.222.121.461-.208.698-.3.328-.128.654-.28 1-.349.278-.056.62.119.848-.05.312-.233.327-.717.399-1.1a5.5 5.5 0 0 0 .05-1.896c-.07-.436-.25-.854-.449-1.249-.189-.375-.655-.63-.699-1.048-.009-.089.1-.25.1-.25h3.395s-.343.325-.499.5c-.284.318-.625.609-.8.998-.242.539-.306 1.156-.299 1.748.006.424.037.88.25 1.247.088.154.313.196.399.35a.57.57 0 0 1 .05.3c-.013.242-.217.458-.2.699.026.365.149.792.45.999.247.169.605.11.899.05.219-.046.395-.209.599-.301.244-.11.481-.283.749-.299.258-.015.497.141.749.2.165.039.329.107.498.1.607-.025 1.24-.169 1.748-.499.456-.296.863-.738 1.049-1.249.188-.516.104-1.108 0-1.647a3.6 3.6 0 0 0-.5-1.248c-.273-.426-.791-.663-1.047-1.1-.115-.194-.2-.648-.2-.648s1.428-.093 2.196-.05c.235.013.308.363.499.5.332.239.701.454 1.099.548.324.077.668.03.998 0 .472-.042.94-.133 1.398-.25.612-.155 1.181-.462 1.798-.598.589-.129 1.213-.347 1.797-.2.256.065.405.353.65.45.313.124.672.069.999.149.495.121.94.45 1.447.499.485.048.964-.148 1.448-.2.216-.022.433-.035.65-.049.299-.02.604.011.898-.051.278-.058.535-.194.799-.298.201-.08.383-.235.599-.25.257-.017.506.111.749.2.398.147.736.448 1.148.549.987.24 2.031.088 3.046.1q2.497.029 4.993-.05c.6-.02 1.198-.072 1.797-.1.416-.02.873.131 1.248-.05.139-.067.289-.197.3-.35.024-.313-.269-.584-.498-.799-.235-.218-.53-.426-.849-.449-1.782-.128-3.31-.145-4.944-.4-.506-.079-.998-.237-1.498-.348-.781-.175-1.574-.29-2.346-.5-.305-.083-.593-.225-.899-.3-.311-.076-1.348-.399-1.348-.399l.289 1.121s-.391.136-.639.128c-.449-.015-.904.072-1.348 0a2.4 2.4 0 0 1-.599-.201c-.172-.077-.234-.142-.489-.289a4 4 0 0 0-.609-.31c-.451-.177-.917-.351-1.399-.399-.415-.042-.837.172-1.248.1-.433-.077-.797-.371-1.198-.55-.265-.119-.515-.289-.799-.349a2.9 2.9 0 0 0-1.198 0c-.269.06-.883.359-.883.359l.134 1.089h-2.446l.039-.699s-.607-.046-.838-.15c-.152-.068-.241-.251-.4-.3-.319-.097-.673-.025-.998.05-.247.057-.45.256-.7.3-.295.052-.369-.009-.668-.033-.167-.012-.509-.067-.663-.004-.12.049-.354.399-.354.399l-.012.337h-2.347l-.014-.598c-.006-.25-2.305-.313-3.431-.151-.245.035-.46.181-.698.25-.237.067-.839.16-.839.16s-.302.373-.518.448c-.54.185-1.201.174-1.711-.083-.125-.063-.349-.182-.267-.326.07-.121 0-.412 0-.412s-.474-.378-.71-.486c-.368-.169-.795-.166-1.199-.2a9 9 0 0 0-1.397 0 6 6 0 0 0-.999.15c-.174.044-.596.169-.596.169l-.041.662c-.013.205-.197.173-.596.176-.403.003-.968-.154-.968-.154l-.092-.492.004-.436s-.745-.349-1.007-.475c-.304-.145-.614-.308-.948-.349-.449-.055-.896.165-1.348.15-.372-.013-.739-.103-1.099-.2-.376-.102-1.048-.34-1.048-.34l.046 1.127c-.784.078-1.702-.02-2.625-.127l-.023-.588s-.804.1-1.093-.122c-.154-.119-.053-.421-.2-.55a.52.52 0 0 0-.339-.132zm5.061 3.726c-.361.006-.699.237-1.026.401a6.7 6.7 0 0 0-1.298.85c-.297.249-.603.512-.799.848-.141.24-.208.523-.25.799a4.5 4.5 0 0 0 0 1.248c.042.324.179.63.25.949.081.363-.009.79.2 1.098.264.39.731.815 1.197.749.223-.031.254-.392.45-.499.178-.097.397-.109.6-.1.326.015.648.119.948.25.199.086.341.289.549.349.192.056.403.033.6 0 .26-.042.496-.174.748-.25.248-.074.518-.084.75-.199.339-.169.898-.699.898-.699s.169-.663.15-.999c-.022-.379-.269-.721-.3-1.099-.028-.334.135-.665.1-.998a2.65 2.65 0 0 0-.349-1.098 1.25 1.25 0 0 0-.399-.4c-.209-.132-.467-.165-.7-.249-.5-.181-1.012-.333-1.498-.55-.258-.115-.467-.379-.749-.399a1 1 0 0 0-.072-.001zm2.175 8.157a3 3 0 0 0-.306.033c-.213.036-.391.187-.598.25-.162.049-.569.101-.569.101l-.019.488s-.844.135-1.278.066c-.239-.038-.481-.105-.681-.255s-.377-.284-.599-.3c-.263-.018-.497.172-.749.25-.347.107-.689.249-1.049.299-.247.035-.555-.158-.748 0-.131.108-.161.341-.1.499.112.289.486.385.749.55.239.15.472.342.749.399.196.041.405.003.6-.05.409-.111.732-.463 1.147-.549.441-.092.911-.053 1.348.05.196.046.35.2.55.25s.795.181 1.197.249q.374.064.75.1c.282.027.61.202.849.05.152-.096.165-.323.199-.499.057-.295.111-.622 0-.9a1.94 1.94 0 0 0-.948-.998 1.1 1.1 0 0 0-.494-.083m18.211.504a3 3 0 0 0-.341.029c-.313.042-.592.227-.899.3-.229.054-.815.087-.815.087s-.001.584.01.903c-.052.121-.073.203-.193.258-.259.116-.572.106-.85.05-.219-.045-.412-.18-.6-.301a3 3 0 0 1-.248-.199c-.25-.05-.472.039-.7.1-.259.069-.488.233-.749.3-.276.07-.63-.084-.848.1a.51.51 0 0 0-.15.499c.075.249.368.38.6.499.351.181.774.17 1.147.3.275.094.514.289.799.349.358.075.733-.02 1.099 0 .3.016.596.098.898.1a6.7 6.7 0 0 0 1.499-.15c.241-.054.462-.173.698-.25.396-.128.868-.097 1.199-.349.279-.214.557-.548.548-.899-.01-.383-.386-.67-.648-.949-.26-.276-.544-.565-.899-.698a1.5 1.5 0 0 0-.557-.079m-9.728.079-.059 1.052s-.522.063-.775.011c-.329-.066-.923-.403-.923-.403l.014-.419c-.201.05-1.151-.056-1.703.009-.237.027-.498.021-.698.15-.216.14-.375.352-.45.598-.061.208-.098.49.05.649.217.235.63.125.949.15q.648.05 1.298 0c.336-.025.667-.208.998-.15.206.037.35.237.549.3.272.087.565.103.85.101.369-.004.841.115 1.098-.151.116-.12.072-.333.05-.499a1.7 1.7 0 0 0-.25-.65c-.168-.27-.367-.55-.649-.698-.105-.055-.349-.05-.349-.05m77.993.771c-.271 0-.487.339-.65.569-.123.173-.168.393-.212.601-.089.415.022.865-.107 1.27-.098.312-.256.624-.494.847-.192.18-.522.165-.706.353-.271.28-.314.715-.494 1.06a26 26 0 0 1-.917 1.588c-.192.312-.339.664-.601.919-.307.298-.858.314-1.095.67-.211.317-.218.752-.176 1.131.075.667.202 1.47.741 1.87.341.253.848.147 1.272.106.304-.029.582-.187.881-.247.361-.074.734-.211 1.095-.141.212.041.365.237.565.318.259.104.534.239.812.212.64-.064 1.14-.595 1.731-.847.345-.148.831-.09 1.058-.39.264-.347.113-.869.107-1.306a6.4 6.4 0 0 0-.142-1.27c-.119-.545-.356-1.059-.53-1.59-.275-.845-.66-1.664-.811-2.541-.061-.348.019-.711-.035-1.06-.041-.254-.089-.515-.212-.74-.128-.234-.37-.388-.53-.601-.185-.246-.192-.727-.495-.777a.3.3 0 0 0-.055-.004m13.739 14.669c-.395.004-.812.068-1.185.058-.837-.023-1.696-.064-2.507.141-.428.109-.947.203-1.201.565-.223.32.119.846-.105 1.165-.24.341-.756.348-1.129.529-.285.138-.614.213-.849.424-.209.187-.409.43-.458.707-.047.261.058.538.176.776.203.412.508.793.883 1.059.328.233.738.331 1.129.424.426.101.869.125 1.307.141.341.012.686-.087 1.024-.035.419.065.809.258 1.2.424.533.226 1.02.55 1.553.776.551.235 1.105.499 1.695.601.418.072.847.017 1.271 0 .437-.018.917.09 1.307-.107.335-.169.752-.472.741-.846-.019-.708-.963-1.039-1.483-1.518-.405-.375-.855-.698-1.271-1.06-.251-.218-.535-.41-.742-.671-.242-.306-.478-.644-.565-1.024a1.4 1.4 0 0 1 .036-.636c.054-.203.234-.36.283-.564.051-.218.022-.449 0-.671-.012-.12.018-.273-.071-.353-.275-.252-.645-.309-1.04-.305z"/><path fill="#fff" d="m286.03 214.034 6.603 2.859s1.855.686 2.718 1.271c.157.107.206.339.211.53.008.26-.13.508-.246.741-1.371 2.749-3.01 5.463-5.226 7.59-.652.628-1.395 1.35-2.295 1.448-.484.053-.964-.233-1.376-.494-.506-.321-.925-.782-1.272-1.271-.254-.359-.426-.775-.574-1.19a15 15 0 0 1-.696-2.905 22 22 0 0 1-.212-3.954c.028-.736.08-1.482.282-2.189.203-.709.445-1.447.918-2.013.12-.143.286-.249.459-.317.222-.088.706-.106.706-.106"/><path fill="#969496" d="m292.808 216.928 2.119.918s.441.211.6.389a.7.7 0 0 1 .176.353c.038.235-.024.482-.105.706-.181.497-.548.906-.826 1.357-.245.396-.495.788-.741 1.183-.321.515-.621 1.045-.959 1.55-.53.793-1.068 1.584-1.675 2.321-.401.488-1.294 1.383-1.294 1.383l-.79-.062-.141-.353.565-.989 4.166-5.472.247-.565s-.021-.416-.106-.601c-.109-.235-.212-.458-.494-.6s-.746-.159-.989-.423c-.126-.137-.171-.344-.176-.53a.6.6 0 0 1 .105-.388c.075-.096.318-.177.318-.177m-8.72 6.32c-.203.32.035.761.114 1.132.102.479.287.938.465 1.394a4.317 4.317 0 0 0 .635 1.152c.2.257.345.662.666.718.438.075.812-.372 1.183-.616q.43-.274.785-.638c.151-.158.314-.324.389-.529.06-.167.065-.356.035-.53-.03-.177-.062-.395-.212-.494-.127-.084-.324-.073-.459 0-.322.174-.316.687-.6.918-.177.143-.409.264-.635.247-.29-.022-.56-.216-.754-.43-.232-.256-.31-.62-.42-.947-.078-.229-.096-.475-.168-.706-.076-.245-.089-.545-.278-.719-.086-.078-.219-.101-.335-.098-.145.004-.334.023-.411.146"/><path fill="#fff" d="M311.934 210.445s-.315 1.539-.637 2.249c-.364.801-.888 1.528-1.44 2.214-.272.338-.553.684-.914.926-.179.121-.383.25-.6.247-.362-.006-.991-.445-.991-.445l-1.609 1.375s.129.833 0 1.217c-.163.491-.582.86-.931 1.242-.438.481-.933.909-1.447 1.307-.396.306-1.255.827-1.255.827s1.354.159 2.032.126a7.7 7.7 0 0 0 1.765-.283 8.5 8.5 0 0 0 1.801-.776c.668-.378 1.322-.805 1.871-1.342.546-.535.99-1.176 1.377-1.836.446-.755.802-1.561 1.059-2.401.261-.868.504-1.776.459-2.683-.034-.678-.54-1.964-.54-1.964"/><path fill="#969496" d="m306.891 216.024-1.148.987s-.061.493-.113.736c-.068.329-.088.686-.261.974-.23.38-.623.639-.974.911a9.3 9.3 0 0 1-1.374.874c-.407.214-.823.437-1.273.536-.357.079-1.098.038-1.098.038s.412.253.637.337c.264.098.544.154.824.187.314.037.639.076.948.013a3.7 3.7 0 0 0 1.498-.662c.393-.299.687-.722.936-1.148.23-.394.423-.825.499-1.274.061-.353-.037-1.073-.037-1.073l1.348-1.286zm5.043-5.579s-.214.658-.324.986c-.168.5-.285 1.022-.512 1.498-.212.443-.497.85-.787 1.248-.34.469-.686.941-1.111 1.336-.157.146-.33.282-.524.374-.171.082-.549.15-.549.15l.187.262s.33.029.487-.012a2.3 2.3 0 0 0 .824-.437c.358-.285.625-.67.899-1.036a7.4 7.4 0 0 0 .724-1.136 7.7 7.7 0 0 0 .499-1.398c.111-.421.202-.851.225-1.286.009-.183-.038-.549-.038-.549"/><path fill="#fff" d="M281.968 159.513c.138.168.371.284.424.495.052.21-.164.419-.142.635.03.283.202.536.353.777.215.339.516.614.777.918.164.189.312.393.495.564.281.265.879.323.918.707.011.116-.183.158-.23.264-.06.136-.047.294-.053.442-.01.271.092.547.036.812-.023.103-.049.233-.142.282a.39.39 0 0 1-.405-.053c-.185-.16-.114-.476-.195-.706-.074-.211-.127-.441-.265-.618a1.14 1.14 0 0 0-.459-.353c-.142-.058-.311-.096-.459-.053-.16.048-.232.38-.388.318-.287-.113-.011-.63-.123-.918-.131-.334-.42-.583-.619-.883-.146-.22-.274-.452-.423-.67-.303-.446-.781-.795-.954-1.307m19.667-53.143c-.218-.037-.425.125-.635.194-.136.045-.263.156-.406.141-.124-.013-.199-.156-.317-.195-.163-.051-.372-.133-.513-.035-.172.124-.424-.028-.635-.018-.048.003-.107-.015-.141.018-.074.07.015.227-.054.301-.099.106-.279.09-.423.105-.574.061-1.154-.044-1.73-.053-.177-.003-.37-.076-.529 0-.143.068-.172.278-.301.371a1.9 1.9 0 0 1-.828.317c-.252.038-.52.031-.76-.052-.168-.058-.272-.246-.442-.3-1.323-.423-2.777-.065-4.166-.089-.912-.015-1.824-.048-2.736-.035-.288.004-.584.101-.865.035-.143-.033-.251-.157-.388-.211a2.9 2.9 0 0 0-.759-.195 3.2 3.2 0 0 0-.918.054c-.146.027-.275.134-.423.14-.309.015-.594-.18-.901-.211-.21-.022-.506-.151-.635.017-.078.101.009.272.088.371.151.189.422.245.652.318.256.08.534.063.796.124.114.026.255.019.335.105.09.098.104.257.088.389-.008.065-.033.14-.088.176-.187.122-.556-.156-.671.035-.05.084.05.203.124.266.116.099.288.115.441.122.227.011.461-.034.671-.122.206-.088.338-.31.547-.39.205-.077.445-.14.653-.07.138.046.223.189.317.3.137.162.178.412.354.53.17.114.395.124.599.124.29-.001.559-.176.848-.177.18 0 .351.081.53.106.35.05.705.113 1.059.088.343-.024.663-.244 1.006-.229.229.01.426.184.653.211.275.035.559.007.83-.052.191-.043.352-.215.547-.212.198.002.35.224.548.229.331.009.61-.269.935-.336.271-.056.552-.052.829-.052.514.001 1.046-.047 1.536.106.176.054.305.213.477.282a3.3 3.3 0 0 0 1.095.247c.238.009.469-.085.706-.105.392-.036.79.007 1.183-.035.22-.025.43-.122.652-.124.179-.003.351.077.53.087.547.031 1.096-.04 1.642-.087.644-.056 1.278-.204 1.924-.23.611-.024 1.226.013 1.836.071.385.037.766.108 1.147.176.585.104 1.164.239 1.748.353.81.158 1.611.43 2.437.459.461.017.916-.117 1.376-.158.376-.034.754-.043 1.13-.071.554-.041 1.123.003 1.659-.141.213-.057.384-.235.6-.283.701-.153 1.438-.029 2.154.018.337.022.68.037 1.007.124.382.101.706.38 1.093.458.283.057.59.082.866 0 .208-.061.333-.323.547-.353.304-.043.582.202.882.265.377.079.775.239 1.148.141.212-.055.323-.316.529-.389.239-.083.53-.141.759-.035.149.069.157.312.301.389.334.176.799.252 1.129.07.225-.123.367-.415.371-.67.004-.245-.124-.53-.336-.654-.843-.495-1.954.058-2.93.106-.648.033-1.303.237-1.942.124-.202-.035-.363-.206-.565-.248-.743-.152-1.518.008-2.277.018-1.23.017-2.46.126-3.689.071-.378-.017-.768-.011-1.13-.123a2.5 2.5 0 0 1-.723-.389c-.252-.184-.382-.536-.671-.653-.721-.289-1.554.046-2.33.018-.365-.014-.742.013-1.094-.088-.211-.06-.369-.262-.584-.301-.396-.072-.799.186-1.2.141-.317-.035-.588-.255-.901-.317-.323-.064-.657-.051-.988-.053-.312-.002-.648-.086-.936.036-.165.07-.25.255-.388.37-.1.083-.193.189-.318.229-.218.071-.477.091-.688 0-.157-.067-.22-.264-.353-.37-.182-.145-.376-.292-.6-.353-.198-.054-.422.063-.617 0-.153-.05-.232-.256-.39-.282m16.693.298c-.097.003-.177.027-.205.089-.038.084.094.171.177.211.127.063.298.085.423.019.068-.035.143-.12.124-.194-.008-.031-.305-.131-.519-.125m-3.581.346a.9.9 0 0 0-.366.061c-.061.026-.155.076-.141.141.043.19.356.161.547.195.411.074.852.136 1.253.017.061-.017.153-.042.16-.106.007-.083-.103-.14-.178-.176-.192-.092-.422-.059-.635-.071-.209-.011-.428-.059-.639-.061zm-37.006.641a3.6 3.6 0 0 0-1.25.256c-.083.031-.199.086-.2.175 0 .111.162.154.25.224.056.045.107.101.175.124.521.172 1.157.273 1.647.025.064-.032.071-.128.125-.174.085-.072.265-.044.3-.15.029-.088-.045-.201-.125-.25-.27-.164-.591-.23-.922-.23m51.329 1.216a.6.6 0 0 0-.16.022c-.117.036-.179.167-.283.23-.087.053-.208.054-.283.124-.083.076-.187.19-.159.299.06.231.372.325.601.389.232.066.487.031.723-.017s.434-.226.671-.265c.227-.038.536.208.689.036.115-.13.012-.372-.088-.513-.105-.148-.298-.232-.477-.265-.169-.032-.34.067-.512.07-.241.005-.486-.112-.722-.111zm-33.644 4.564q-.173 0-.336.043c-.199.05-.345.235-.541.292-.275.079-.571.05-.857.058-.491.012-1.016-.203-1.474-.026-.181.071-.246.32-.423.399-.184.082-.401.078-.6.05-.185-.026-.35-.133-.524-.2s-.342-.158-.525-.198c-.236-.053-.487-.102-.723-.051-.204.045-.349.244-.55.299-.349.096-.723.037-1.085.04-1.172.01-2.355.089-3.516-.07-.355-.049-.689-.204-1.041-.269-.222-.041-.456-.013-.673-.075-.133-.037-.301-.058-.375-.174-1.235-.082-2.513-.042-3.77-.05-.391-.003-.784-.027-1.173 0-.185.012-.505-.105-.549.075-.062.248.538.207.623.448.032.09.02.271-.075.275-.873.036-1.397-.013-2.096 0-.475.008-.951.012-1.424.05-.401.032-.866-.078-1.197.15-.102.069-.196.203-.176.325.048.278.361.473.625.574.568.217 1.215-.011 1.823-.025.732-.017 1.473.042 2.197-.075.377-.061.72-.27 1.098-.325.683-.099 1.381 0 2.072 0 .807 0 1.616.056 2.422 0 .243-.016.481-.075.723-.1.252-.025.506-.051.759-.047.44.007.878.064 1.313.122.143.02.29.025.425.075.346.13.601.45.948.575.317.114.676.243.999.15.148-.042.215-.227.35-.3.213-.115.458-.171.698-.2.232-.028.488-.072.7.025.133.061.231.195.3.325.07.136-.026.361.099.448.207.145.497-.114.749-.1.239.014.461.142.699.175.421.061.848.044 1.273.051.873.012 1.76.116 2.621-.025.424-.07.801-.326 1.224-.399.59-.102 1.198-.059 1.797-.05.45.006.898.057 1.348.075.357.014.728.118 1.074.025.245-.067.403-.333.649-.4.521-.143 1.082.03 1.623.025.475-.004 1.011.186 1.423-.05.094-.054.187-.167.174-.275-.019-.175-.229-.274-.374-.374a1.3 1.3 0 0 0-.45-.201c-.791-.163-1.632.195-2.421.026a.7.7 0 0 1-.324-.15c-.063-.059-.04-.222-.125-.225-1.043-.037-1.78.184-2.847.15-.208-.007-.351-.234-.549-.3-.313-.103-.668-.028-.981-.135-.261-.089-.45-.342-.717-.413a1.3 1.3 0 0 0-.337-.043m11.015 1.233a6 6 0 0 0-.939.104c-.23.041.292.397.494.529.308.202.679.303 1.041.372.359.067.731.037 1.095.035.248-.002.532.097.741-.035.096-.061.214-.202.16-.301-.072-.129-.296-.017-.442-.035-.29-.035-.662.069-.865-.141-.095-.098.04-.307-.053-.406-.107-.114-.304-.077-.459-.088-.286-.021-.515-.039-.773-.034m4.81.455-.559.002c-.092.084-.112.273-.036.371.103.13.328.061.495.07.558.031 1.12-.001 1.676-.053.267-.025.759.142.795-.124.02-.141-.252-.137-.389-.176-.176-.05-.364-.057-.547-.07-.293-.023-.587-.015-.882-.018q-.276-.002-.553-.002m6.658 7.012c-.288-.002-.582.075-.862.143-.37.09-.696.315-1.061.424a10.6 10.6 0 0 1-1.636.324c-.712.093-1.436.047-2.147.138-.433.056-.852.199-1.286.249-.476.054-.959-.003-1.435.05-.332.037-.674.068-.986.188-.195.074-.545.116-.538.325.008.191.326.222.513.261.376.078.765-.053 1.148-.075.537-.03 1.073-.072 1.611-.075.778-.003 1.555.108 2.334.088.38-.009.758-.053 1.135-.1.34-.041.672-.132 1.012-.162.427-.039.864.053 1.286-.025.374-.07.698-.318 1.073-.387.413-.076.849-.111 1.261-.025.291.061.522.302.811.375.344.086.711.119 1.061.062.243-.04.442-.247.686-.275.189-.022.379.037.562.088.333.091.621.326.961.386.595.105 1.207-.046 1.81-.061.762-.02 1.524-.005 2.285-.039.637-.027 1.281-.019 1.909-.136.209-.039.406-.137.612-.188.239-.059.479-.125.723-.137.23-.011.46.026.687.062.337.053.658.208.999.225.419.021.834-.085 1.248-.15.348-.054.687-.156 1.036-.201.203-.025.408-.025.612-.036.748-.04 1.497-.105 2.247-.1.417.004.841.166 1.248.075.143-.032.359-.067.387-.212.017-.09-.094-.168-.174-.213-.429-.241-.983-.097-1.461-.211-.265-.064-.508-.209-.775-.263-.544-.111-1.105-.095-1.659-.124-.399-.021-.803-.091-1.199-.038-.371.049-.706.254-1.073.324-.242.047-.495.013-.736.063-.288.058-.546.232-.837.274-.272.039-.55-.017-.824-.025-.99-.027-1.979-.066-2.97-.075-1.49-.012-2.983.125-4.469.039-.302-.018-.597-.111-.899-.114a1.8 1.8 0 0 0-.437.05c-.207.053-.387.205-.599.238-.25.039-.506.022-.75-.05-.16-.048-.288-.171-.436-.249-.176-.093-.35-.191-.537-.263-.315-.123-.663-.152-.974-.287-.075-.033-.131-.107-.211-.125q-.142-.03-.286-.03m-67.781 6.671c-.125 0-2.322.049-2.472.074s-.349.2-.349.2l.074.124-.923.025-.324.1-.351.35.75.2 1.498.075s.549-.225 1.248-.15 1.972.075 1.972.075l.45-.15.3-.25.025-.25c-.126.025-1.473 0-1.473 0l-.025-.299s-.275-.124-.4-.124m103.045.347q-.466-.006-.927.058c-.442.053-.863.231-1.306.282-2.151.248-4.331.107-6.496.107-1.437 0-2.877.054-4.307-.071-.748-.065-1.474-.36-2.225-.353-.466.004-.968.022-1.377.247-.182.1-.234.373-.424.459-.407.185-.894.02-1.341.036-.777.028-1.586-.119-2.33.105-.264.079-.762.155-.707.424.125.605 1.221.199 1.837.248.951.075 1.916-.064 2.86.07.228.032.46.078.67.176.222.103.385.308.6.424.345.184.704.448 1.095.423.441-.029.742-.508 1.165-.635.396-.119.823-.083 1.235-.106 3.855-.211 7.72-.287 11.581-.282.871.001 1.847.486 2.613.071.158-.086.362-.299.282-.459-.11-.223-.495-.043-.742-.071-.448-.051-1.043.163-1.341-.176-.085-.098-.058-.273 0-.389.099-.195.569-.174.529-.389s-.417-.149-.635-.176a3 3 0 0 0-.309-.022zm-99.5.101-.3.1-.125.201-.398.199.698.125 2.147-.075s.899-.025 1.198.025c.3.05.4.175.4.175s-.325.225-.175.25.3-.075.799 0 2.047.1 2.272.1.849-.15.849-.15-.276-.3-.425-.325a6 6 0 0 1-.424-.1s-.3-.225-.449-.225h-.974l-.474-.1-.275-.2h-1.299l-.548.151-.825-.051-.474-.05c-.1 0-1.198-.05-1.198-.05m64.08 6.418c-.283 0-.706.282-.989.353-.282.071-1.412 0-1.412 0l-.106.247s-.071.354-.071.495.424.211.847.282c.424.071.46.282.46.282l1.059-.176s.142-.035.459 0 .6.177.847.142c.248-.036 1.518-.142 1.836-.177s.918-.071 1.624-.071.318.212.495.318c.176.106 1.2 0 2.083.071.882.071 1.235.141 1.447.176s.918-.071 1.13-.142.528-.07.811-.07 2.578 0 2.755-.035c.176-.035.741.035.917.071s.388.247.777.353c.388.106.636-.282.636-.282s.565-.071 1.059-.071c.495 0 .741.246.917.246s.989-.353.989-.353.671-.105.918-.14.565 0 .742.035c.176.036.635.247 1.2.211.565-.035.6-.317.6-.317s.883.035 1.059.071c.177.035.424.246.777.281s.742-.246.883-.387.282-.036.564-.036c.283 0 .742-.176.848-.317s0-.283-.106-.425c-.105-.141-.459-.035-.671-.07-.211-.036-.388-.176-.67-.247s-1.095-.035-1.837-.071c-.741-.035-1.765 0-2.012 0s-1.059.177-1.412.212-1.059.212-1.589.212-.741-.212-.988-.247-1.13.07-1.73.141-.706.106-1.518.07-.53-.07-1.271-.246c-.742-.177-1.024-.072-1.342-.107-.317-.035-2.189-.035-2.401-.035s-1.058.283-1.058.283-5.332-.211-5.473-.211-1.13-.283-1.13-.283-.671-.036-.953-.036m-30.383-16.39a1 1 0 0 0-.274.049 1.07 1.07 0 0 0-.653.643c-1.266 5.681-2.065 11.449-2.651 17.443.054.515.15.989.502 1.27.316.252.826.345 1.19.174.466-.218.645-.644.827-1.321a104 104 0 0 0 2.35-17.293c.042-.254-.235-.581-.48-.742a1.4 1.4 0 0 0-.811-.222zm-10.702.621a1.4 1.4 0 0 0-.709.204 1.04 1.04 0 0 0-.465.791c.463 5.662 1.426 11.266 2.675 17.021.213.461.457.875.901 1.034.398.141.944.078 1.261-.188.405-.34.455-.789.431-1.472a93.6 93.6 0 0 0-2.934-16.793c-.036-.248-.419-.472-.716-.549a1.6 1.6 0 0 0-.444-.048m22.53 4.137a1.05 1.05 0 0 0-.742.275c-3.643 4.402-6.921 9.091-10.118 14.077-.184.475-.314.934-.136 1.342.159.365.559.68.949.697.499.021.844-.272 1.305-.782a103 103 0 0 0 9.79-14.081c.15-.204.058-.617-.081-.869-.175-.317-.506-.587-.857-.647a1 1 0 0 0-.111-.012zm-32.703 1.656q-.053.002-.104.008c-.334.045-.682.24-.86.524a1 1 0 0 0-.135.406 1 1 0 0 0 .052.424c2.426 4.654 5.228 9.09 8.314 13.557.338.321.682.59 1.093.574.368-.015.779-.255.934-.588.199-.426.076-.825-.191-1.398a92 92 0 0 0-8.439-13.274c-.104-.175-.411-.242-.664-.233m40.654 6.057a1 1 0 0 0-.45.089c-4.869 2.989-9.487 6.367-14.123 10.053-.327.391-.598.784-.562 1.228.033.397.309.822.673.964.466.182.886.017 1.487-.317a103 103 0 0 0 13.814-10.166c.207-.144.254-.564.204-.848-.063-.357-.289-.718-.602-.889a1 1 0 0 0-.441-.114m2.479 9.501a1 1 0 0 0-.106.009c-5.186 1.356-10.253 3.132-15.421 5.181-.401.262-.753.542-.841.951-.08.367.052.828.34 1.056.368.292.79.259 1.42.124a96 96 0 0 0 15.177-5.367c.226-.074.382-.44.415-.71.041-.339-.062-.727-.295-.967a.98.98 0 0 0-.689-.277m21.057 24.873a.2.2 0 0 0-.045.001c-.035.005-.062.042-.075.075-.181.457.118.987.05 1.473-.034.243-.097.49-.225.699-.122.2-.416.279-.499.499-.095.25.013.535.05.8.037.278.018.589.174.823.09.135.331.128.4.275.082.174.078.431-.05.574-.226.253-.711.021-.999.2-.197.123-.293.358-.423.549-.128.184-.32.352-.351.574-.021.154.008.348.125.45.204.175.544.017.799.1.181.058.323.203.499.275.176.071.377.227.55.148.227-.103.211-.451.325-.673.151-.295.331-.575.473-.874.131-.277.221-.571.35-.848.091-.196.27-.361.3-.575.07-.496-.196-.983-.3-1.473-.16-.751-.232-1.528-.5-2.246-.086-.231-.175-.476-.348-.65-.076-.077-.176-.167-.28-.176m-4.611 3.584c-.089.001-.175.028-.228.088-.188.211.011.565 0 .848-.009.217-.114.442-.05.65.047.152.146.33.3.374.169.049.323-.169.499-.175.156-.005.347.008.45.125.117.133-.02.375.075.524.075.116.217.265.348.224.164-.05.165-.307.2-.474.087-.407.181-.862.026-1.248-.096-.164.025-.477-.151-.55-.124-.051-.229.139-.348.2-.106.055-.208.171-.325.151-.139-.026-.207-.194-.3-.301-.109-.125-.147-.333-.299-.398a.5.5 0 0 0-.197-.038m43.186 4.306-.374.025-.201.724.075 1.024 1 .024s.273-.1.373-.2-.099-.423-.124-.523-.249-.45-.249-.45zm-57.159 1.782c-.528.012-1.061.143-1.583.065-.052-.008-.115-.089-.15-.05-.17.197.134.553.349.7.318.216.85-.141 1.149.1.217.175.03.626.25.798.42.329 1.064.096 1.598.1 1.066.008 2.601.736 3.195-.15.138-.206-.134-.48-.251-.698-.105-.2-.201-.438-.399-.55-.334-.189-.764-.089-1.148-.1-.566-.016-1.135.115-1.697.05-.325-.037-.625-.212-.949-.25a3 3 0 0 0-.364-.015m17.922.345c-.189.006-.34.056-.382.22-.099.38.772.349.949.7.112.222-.154.551 0 .747.211.271.658.203.998.251 1.699.233 3.842-.968 5.143.15.14.12-.034.419.1.549.3.294.828.234 1.248.2.63-.052 1.544-.021 1.798-.6.146-.334-.216-.719-.45-.999-.168-.202-.393-.39-.649-.449-.739-.169-1.49.305-2.246.349-1.363.081-2.877.47-4.095-.149-.264-.134-.296-.546-.549-.699-.319-.192-.726-.191-1.098-.2-.217-.006-.524-.076-.767-.07m-7.043.025c-.602.014-1.32.452-1.727.045-.244-.121-.639.227-.649.5-.009.223.291.366.499.449.541.217 1.191.221 1.748.05.353-.108.891-.28.898-.649.003-.19-.269-.288-.449-.35a.9.9 0 0 0-.32-.045m46.197 2.091c-.483.011-.964.111-1.44.201-.456.087-.883.354-1.347.35-.432-.005-.845-.504-1.25-.35-.258.098-.568.449-.449.698.405.846 1.866.189 2.797.301 1.017.12 2.039.208 3.045.399.674.128 1.316.416 1.997.499.991.123 2.007.133 2.997 0 .188-.025.439.006.548-.15.335-.479.307-1.382-.15-1.747-.657-.524-1.655.338-2.495.35-.904.012-1.803-.168-2.697-.3-.452-.067-.891-.235-1.348-.25a4 4 0 0 0-.208-.001m-23.874 5.692a2.2 2.2 0 0 0-.833.151c-.413.173-.576.749-.998.898-.597.212-1.266-.059-1.897-.1-.651-.041-1.299-.102-1.948-.15-.466-.034-.931-.101-1.398-.098-.2.001-.512-.132-.599.049-.157.324.347.641.599.899.284.291.612.574.998.699.903.293 1.903-.045 2.847.05.724.073 1.456.167 2.146.399.388.13.704.444 1.099.549.837.224 1.729.146 2.596.151.683.002 1.364-.076 2.047-.101.732-.026 1.472-.155 2.197-.05.589.086 1.108.473 1.697.55.595.077 1.205-.006 1.798-.1.646-.102 1.251-.399 1.897-.5.643-.1 1.298-.101 1.948-.1.6.001 1.251.348 1.797.1.27-.122.612-.408.55-.698-.075-.349-.606-.4-.949-.499-.818-.237-1.696-.152-2.547-.201-.964-.054-1.944.067-2.896-.1-.482-.083-.911-.397-1.398-.449-.515-.056-1.031.103-1.547.15-.582.053-1.275.494-1.748.15-.179-.131-.124-.429-.15-.65-.015-.132.092-.302 0-.398-.642-.678-1.873-.015-2.796-.151-.559-.081-1.085-.348-1.648-.399-.282-.025-.576-.055-.864-.051m-5.351 5.033q-.313-.002-.625.011c-.536.022-1.062.159-1.597.2-.598.045-1.212-.076-1.798.05-.422.09-1.041.096-1.198.499-.1.257.145.563.349.749.261.236.708.15.999.349.253.173.331.55.599.7 2.883 1.611 6.509 1.135 9.786 1.547.531.067 1.065.196 1.597.151 1.392-.121 2.664-.887 4.045-1.1.806-.124 1.635-.182 2.447-.099.546.056 1.051.342 1.597.399.431.044.912.144 1.298-.05.286-.144.631-.431.6-.749-.028-.282-.388-.439-.65-.549-.323-.136-.793.142-1.047-.1-.171-.162.047-.516-.101-.7-.177-.221-.514-.294-.799-.298-.406-.005-.745.351-1.148.398-.98.116-1.983-.077-2.945-.298-.76-.174-1.433-.647-2.197-.799-.752-.15-1.531-.108-2.297-.1-.801.007-1.597.159-2.397.15-.785-.01-1.567-.102-2.347-.2-.1-.013-.198-.04-.299-.05a19 19 0 0 0-1.872-.111m10.71 4.955a3.6 3.6 0 0 0-1.299.248c-.362.139-.625.493-.998.6-.993.284-2.064.063-3.096.05-1.166-.016-2.329-.115-3.495-.15-.965-.029-1.942-.196-2.896-.05-.365.056-.936-.001-1.049.35-.069.215.202.439.4.549.584.325 1.49-.285 1.998.15.168.145.068.441.148.649.111.284.329.518.45.799.089.208.098.446.2.648.176.351.844.584.699.949-.068.173-.364.115-.549.1-.299-.024-.553-.247-.849-.299-1.327-.236-2.722-.313-4.044-.05-.249.05-.625.057-.7.3-.081.264.22.545.45.699.309.207.966-.149 1.098.198.068.178-.26.283-.35.45-.099.186-.267.401-.198.6.097.283.455.436.748.499.412.09.827-.216 1.248-.2.839.035 1.66.304 2.447.599.543.204.988.646 1.547.799.547.15 1.131.106 1.698.1 1.235-.014 2.461-.38 3.695-.3.237.016.52-.007.699.15.226.198.39.563.3.849-.086.273-.607.228-.7.499a.5.5 0 0 0 .151.499c.895.761 2.324.554 3.494.45.608-.054 1.402-.046 1.748-.549.151-.22-.228-.601-.05-.8.233-.261.722.075 1.049-.05.32-.122.48-.52.798-.648 1.084-.438 2.326-.269 3.495-.3.999-.026 2.014.28 2.996.1.764-.14 1.444-.572 2.148-.899.898-.416 1.917-.678 2.645-1.348.28-.257.341-.858.516-1.201-.606.184-1.49-.223-2.163-.346-.414-.076-.779-.361-1.198-.4-.368-.035-.732.111-1.099.15-.432.046-.864.112-1.298.1-.37-.011-.728-.156-1.098-.15-.304.004-.597.125-.899.15-.216.017-.481-.137-.649 0-.382.311.083 1.136-.3 1.448-.374.304-.966.021-1.449 0-.183-.009-.389-.143-.548-.051-.174.102-.09.428-.25.55-.335.256-.834.116-1.247.2-.471.096-.92.315-1.399.349-.484.035-1.17.248-1.448-.15-.118-.168.027-.434.15-.599.312-.418.946-.464 1.348-.798.525-.438 1.632-.926 1.349-1.549-.29-.636-1.399.01-2.098 0-.583-.008-1.2-.251-1.747-.05-.21.077-.295.36-.5.45a2.75 2.75 0 0 1-1.647.15c-.262-.057-.65-.136-.7-.4-.083-.442.491-.777.85-1.048.909-.688 2.07-.966 3.145-1.348.342-.122.864.014 1.048-.3.147-.25.008-.645-.199-.849-.62-.608-1.678-.539-2.547-.548zm16.593 5.039a.8.8 0 0 0 .383-.247c-.185-.033-.297.078-.384.247zm-6.802 9.83q-.128.002-.255.01c-.202.011-.451-.039-.599.099-.253.232-.04.728-.25.999-.128.164-.346.251-.549.3-.518.123-1.066-.067-1.598-.05-.367.011-.731.088-1.099.1-.599.018-1.204.039-1.797-.05-.427-.065-.82-.291-1.248-.351-.478-.065-1.082-.313-1.449 0-.243.209-.289.662-.148.949.276.562 1.045.728 1.647.899.898.255 1.863.111 2.796.15.532.022 1.065.07 1.597.05q1.408-.06 2.797-.3c.656-.11 1.296-.308 1.947-.449.564-.124 1.163-.13 1.698-.35.422-.174.966-.329 1.148-.749.114-.263.059-.652-.15-.849-.66-.619-1.795-.228-2.696-.3-.596-.047-1.194-.118-1.792-.108"/><path fill="#006bad" d="M293.313 163.184c-.07.023-.143.006-.203.025-.131.043-.205.212-.224.349-.025.172.16.079.15.252-.009.145-.117.267-.175.4-.066.15-.181.287-.2.45-.043.361.133.715.2 1.073.058.308.198.611.174.924-.011.15-.005.38-.15.424-.159.047-.243-.243-.399-.301-.141-.051-.337-.124-.449-.024-.263.231-.059.699-.074 1.049-.024.548-.007 1.098-.025 1.647-.006.159.121.415-.025.475-.104.043-.191-.129-.251-.225-.263-.425-.229-.976-.399-1.447a5.5 5.5 0 0 0-.45-1c-.16-.263-.389-.477-.574-.723-.19-.253-.417-.487-.548-.774-.117-.258-.006-.62-.201-.825-.179-.189-.502-.307-.749-.223-.214.072-.34.329-.399.548-.085.315.035.654.1.974.067.333.244.638.299.973.044.263.153.566.025.8-.046.085-.154.163-.25.15-.215-.03-.237-.42-.448-.475-.161-.042-.334.236-.475.15-.129-.079-.05-.3-.074-.45-.059-.349.011-.746-.176-1.048-.162-.263-.444-.491-.749-.549-.228-.044-.518.001-.673.174-.118.132-.1.351-.075.525.077.542.416 1.015.673 1.498.208.389.374.826.7 1.123.151.137.345.263.549.275.221.013.408-.177.623-.225.172-.039.352-.023.525-.05.186-.03.408-.003.55-.125.156-.134.019-.564.225-.573.204-.01.204.356.274.548.112.306-.021.736.224.949.132.115.353.012.525.05.146.032.338.027.424.15.13.184-.102.473 0 .673.098.191.31.368.525.375.157.005.301-.126.399-.25.097-.124-.007-.427.15-.448.148-.02.117.303.249.373.154.082.376.092.525 0 .189-.117.181-.409.3-.598.101-.161.16-.457.349-.45.12.004.088.255.199.3a.57.57 0 0 0 .574-.125c.263-.266.188-.727.225-1.099.018-.174-.056-.358 0-.523.106-.309.471-.475.6-.775.216-.503.31-1.079.25-1.623-.05-.453-.253-.889-.5-1.272-.201-.312-.544-.509-.774-.799-.154-.195-.426-.132-.399-.378-.038-.184-.29-.368-.497-.299m26.039.94a.2.2 0 0 0-.078.011c-.238.075-.276.43-.325.675-.16.792.028 1.618.125 2.42.042.353.086.712.2 1.05.125.37.363.691.524 1.048.119.261.245.522.324.799.093.325.116.665.175.998.057.325.059.665.174.974.109.29.216.63.475.799a.73.73 0 0 0 .625.074c.176-.067.314-.245.373-.424.098-.293-.002-.623-.075-.923-.112-.465-.45-.856-.548-1.324-.082-.39-.028-.799-.025-1.198.002-.25.122-.519.025-.748-.136-.321-.573-.416-.774-.7a1.9 1.9 0 0 1-.325-.775c-.08-.459.144-.936.075-1.397-.025-.167-.108-.32-.175-.475-.081-.188-.133-.4-.274-.548-.132-.14-.313-.335-.496-.337zm-11.611.228a.2.2 0 0 0-.051.008c-.159.043-.364.097-.425.25-.135.337.282.685.3 1.048.009.185-.011.386-.1.549-.098.181-.368.236-.45.425-.105.245-.054.538 0 .798.056.267.232.494.325.749.13.36.243.726.325 1.099.074.336.08.686.15 1.024.045.219.148.425.175.648.03.265-.078.539-.025.799.051.252.139.521.324.699.267.256.668.325 1.023.425.26.072.578.278.799.124.134-.092.116-.313.101-.474-.037-.387-.271-.729-.45-1.073-.194-.375-.701-.651-.674-1.074.011-.182.284-.253.35-.424.076-.202.071-.438.025-.649-.072-.32-.339-.566-.451-.873a3.8 3.8 0 0 1-.224-1c-.028-.366.119-.734.075-1.098a3.2 3.2 0 0 0-.374-1.174c-.174-.308-.377-.652-.699-.798a.1.1 0 0 0-.049-.009zm18.069.355-.071.003a.86.86 0 0 0-.548.273c-.174.185-.238.454-.3.7-.066.259-.065.532-.075.799-.021.524-.024 1.051.025 1.573.041.437-.003.922.225 1.298.135.223.365.433.623.474.174.028.337-.243.5-.175.161.068.158.313.225.475.21.514.306 1.073.549 1.572.108.223.201.477.399.625a.9.9 0 0 0 .599.174c.241-.022.526-.116.65-.324.123-.207.071-.503-.025-.724-.132-.302-.579-.393-.7-.7-.098-.247.064-.534.025-.798-.042-.286-.152-.561-.275-.824-.107-.231-.329-.404-.398-.649-.112-.392.078-.823 0-1.223-.047-.239-.107-.499-.275-.674-.152-.159-.419-.149-.599-.275-.165-.114-.419-.224-.425-.425-.006-.176.27-.241.35-.399a.7.7 0 0 0 .075-.35c-.008-.089-.035-.188-.101-.249a.7.7 0 0 0-.453-.177m30.059.371a1 1 0 0 0-.097.005c-.165.024-.3.167-.4.301a1.5 1.5 0 0 0-.298.824c-.014.344.158.672.273.997.104.292.247.568.375.85.163.359.339.712.499 1.073.139.314.299.621.401.949.111.365.141.75.224 1.124.069.308.064.65.225.923.161.274.452.447.698.649.31.253.607.543.974.699.258.109.557.234.824.15.213-.067.42-.258.474-.475.07-.278-.128-.563-.25-.823-.206-.441-.636-.765-.799-1.224-.107-.299.014-.651-.099-.948-.076-.2-.199-.401-.375-.525-.289-.205-.75-.073-1.024-.3a1.4 1.4 0 0 1-.473-.923c-.018-.199.158-.375.173-.574a1.46 1.46 0 0 0-.1-.699c-.094-.217-.364-.328-.448-.549-.077-.203-.004-.434-.025-.65-.015-.159-.026-.322-.075-.474-.011-.036-.022-.075-.05-.1-.167-.151-.4-.276-.627-.28m9.145.104a.1.1 0 0 0-.043.004.1.1 0 0 0-.037.022c-.154.142.007.426.075.625.11.321.403.556.524.874.11.285.122.597.175.898.056.324.121.647.15.974.029.324-.127.686.025.973.168.317.598.396.873.625.258.214.528.426.724.698.158.217.291.463.351.725.081.357 0 .732 0 1.097 0 .384-.07.773 0 1.15.054.297.104.639.324.848.197.186.503.255.773.25.195-.004.448-.034.55-.2.114-.185.007-.447-.075-.648-.169-.419-.699-.642-.824-1.075-.105-.361.103-.747.1-1.123-.003-.318.024-.656-.1-.949-.127-.299-.513-.443-.624-.748s.031-.651 0-.974c-.037-.397-.011-.838-.224-1.174-.138-.215-.401-.325-.625-.449-.252-.139-.6-.117-.798-.325-.122-.128-.158-.324-.175-.499-.024-.242.111-.48.1-.723-.009-.18-.022-.378-.125-.525a.7.7 0 0 0-.375-.25c-.135-.041-.283.014-.425 0-.094-.01-.205-.095-.294-.101m-26.513.534c-.14.01-.291.151-.378.266-.119.156-.093.382-.126.575-.022.132.018.282-.05.399-.083.144-.322.152-.399.3-.108.206-.038.466-.025.699.025.461.107.92.2 1.373.098.48.189.968.375 1.422.184.452.442.875.722 1.274.133.189.225.478.45.524.128.025.269-.072.35-.175.137-.175.16-.427.15-.649-.016-.376-.282-.704-.35-1.073-.13-.714 0-1.454-.1-2.172a6 6 0 0 0-.2-.849c-.079-.278-.444-.589-.275-.824.229-.288.085-.92-.249-1.073a.2.2 0 0 0-.095-.017m-33.847.098a.25.25 0 0 0-.134.043c-.313.223-.094.765-.075 1.149.025.522.18 1.03.25 1.548.094.714.076 1.442.225 2.147.095.453.187.924.423 1.323.099.167.213.37.399.424.29.083.684.009.875-.224.095-.116.05-.302.025-.45-.07-.4-.383-.728-.475-1.123-.069-.301-.002-.619-.05-.923a8 8 0 0 0-.349-1.348c-.159-.471-.448-.895-.575-1.374-.086-.325.095-.746-.125-.999a.57.57 0 0 0-.415-.193zm47.698.867c-.209.312.016.753.075 1.124.058.364.098.749.274 1.073.153.279.479.431.65.699.107.167.188.355.224.55.063.343-.006.699-.025 1.048-.011.192.063.42-.05.574-.091.124-.313.069-.424.176-.172.164-.306.409-.299.648a.71.71 0 0 0 .274.524c.102.076.248.059.374.075.149.019.329-.064.45.025.114.084.041.308.15.4.097.082.259.13.374.075.161-.077.207-.301.25-.475.064-.258.062-.54 0-.799-.051-.217-.252-.381-.3-.599-.103-.472.137-.973.05-1.448-.058-.319-.221-.613-.375-.899-.204-.38-.565-.671-.723-1.073-.155-.391-.143-.831-.2-1.249-.03-.223.115-.551-.075-.673-.199-.128-.542.028-.674.225zm-7.294-.252c-.185.011-.367.143-.495.278-.119.124-.162.306-.2.473-.076.334-.131.692-.05 1.024.055.225.27.382.35.599.113.31.112.65.175.974.054.284.015.608.174.849.162.244.436.448.725.499a.58.58 0 0 0 .474-.125c.191-.18.276-.486.249-.748-.03-.297-.318-.507-.45-.775-.135-.274-.292-.548-.348-.849-.067-.36.061-.734.025-1.098-.026-.263-.039-.547-.175-.774-.085-.142-.211-.302-.375-.324a1 1 0 0 0-.079-.003m2.36.102c-.2.014-.343.261-.534.35-.142.066-.349.028-.449.15-.203.245-.176.634-.125.949.046.283.162.581.375.773.144.13.384.097.549.2.225.14.457.311.574.549.143.293-.092.709.1.973.203.281.602.428.949.425.138-.001.32-.048.375-.175.155-.362-.277-.74-.375-1.123-.105-.409-.014-.881-.225-1.247-.174-.302-.668-.352-.799-.675-.095-.232.166-.516.075-.749-.073-.187-.249-.381-.449-.399q-.02-.002-.041-.001m-29.722.182a.7.7 0 0 0-.345.093c-.139.081-.221.247-.274.399-.119.339-.084.716-.075 1.075.006.293.017.591.1.873.138.471.347.935.649 1.323.214.274.451.654.798.674.18.01.337-.16.45-.3.185-.229.32-.528.325-.823.005-.345-.159-.687-.35-.974-.15-.226-.494-.299-.599-.549-.104-.245.07-.536.025-.799-.028-.158-.146-.292-.176-.45-.056-.19-.144-.412-.323-.499a.5.5 0 0 0-.205-.043m52.563.162c-.164-.001-.361.084-.406.231-.034.11.139.189.174.299.095.286.106.598.099.9-.006.328-.286.675-.148.973.085.186.322.368.523.324.088-.019.117-.141.15-.224.116-.299.121-.63.15-.949.031-.348.155-.724.025-1.049-.088-.218-.268-.459-.5-.5a1 1 0 0 0-.067-.005m-37.478.402-.026.003c-.28.076-.452.402-.549.675-.148.415-.112.896 0 1.323.077.295.247.57.449.799.185.21.48.297.673.499.154.159.181.442.375.549.182.101.423-.027.624.025.163.042.321.117.449.225.214.18.289.49.5.674.129.114.278.244.449.25.138.005.246-.128.375-.175.146-.054.307-.186.449-.125.148.063.161.277.225.424.153.355.085.842.374 1.099.146.13.38.144.575.125.271-.026.606-.093.749-.325.144-.234.037-.563-.05-.824-.148-.445-.478-.81-.774-1.173-.283-.347-.585-.689-.949-.949a2.6 2.6 0 0 0-.723-.349c-.202-.063-.447.012-.625-.1-.198-.124-.255-.392-.4-.574-.139-.176-.244-.409-.448-.5-.236-.105-.541.109-.775 0-.176-.082-.288-.274-.375-.448-.098-.199-.064-.445-.15-.65-.059-.145-.128-.3-.249-.4-.048-.039-.111-.08-.172-.078zm8.572.858a.2.2 0 0 0-.085.019c-.157.071-.1.329-.125.499a6 6 0 0 0-.05 1.199c.018.337.028.684.15.998.183.476.551.86.849 1.274.357.496.715.993 1.123 1.448.278.312.492.776.898.873a.47.47 0 0 0 .4-.125c.239-.226.396-.597.35-.923-.042-.289-.377-.448-.525-.7a5.8 5.8 0 0 1-.524-1.173c-.09-.282-.019-.62-.175-.873-.105-.173-.288-.296-.474-.374s-.448.057-.599-.075c-.144-.125-.146-.36-.151-.55-.004-.153.084-.297.1-.449.017-.158-.111-.363 0-.475.038-.202-.386-.139-.573-.224-.202-.091-.39-.37-.589-.369m29.424 2.074a.1.1 0 0 0-.051.018c-.029.018.016.067.025.1.1.368.227.728.324 1.098.066.248.139.495.176.749.043.305.05.615.05.923-.001.292-.256.668-.05.874.116.119.383.095.499-.025.267-.274.05-.766.025-1.148-.028-.438-.069-.881-.2-1.298-.108-.345-.249-.693-.475-.975-.087-.109-.205-.322-.323-.315zm-12.517 6.782c-.198.009-.417.089-.516.251-.161.263-.081.656.075.923.203.347.648.48.999.674.199.11.447.132.623.275.144.117.234.289.325.45.135.236.206.503.325.748.107.221.155.5.35.65.23.176.562.248.848.199.214-.036.393-.2.55-.349.146-.141.186-.379.349-.5.169-.126.418-.092.599-.2.177-.106.371-.233.45-.424a.83.83 0 0 0-.025-.674c-.107-.2-.335-.327-.549-.4-.552-.187-1.251.255-1.749-.05-.088-.054-.109-.177-.149-.274-.081-.2-.035-.459-.174-.624a.56.56 0 0 0-.425-.2c-.175.01-.289.204-.449.276-.135.059-.278.13-.425.124-.142-.005-.322-.031-.399-.15-.062-.095-.097-.323-.022-.384-.171.025-.326-.328-.527-.34a1 1 0 0 0-.084-.001m.61.341a.1.1 0 0 0 .048-.015.07.07 0 0 0-.048.015m-32.756-.313a.4.4 0 0 0-.175.048c-.104.059-.205.219-.15.325.105.203.446.118.675.124.193.006.496.102.574-.075.041-.093-.092-.19-.175-.249-.05-.035-.115-.039-.175-.05-.184-.036-.391-.131-.574-.123m-6.951.773c-.384-.002-.788.072-1.162.099q-.46.03-.899.174c-.247.084-.587.115-.7.349a.64.64 0 0 0 .15.7c.267.226.699.058 1.049.05.268-.006.534-.113.799-.075a.64.64 0 0 1 .249.1c.184.117.264.395.475.45.225.058.451-.114.674-.175.176-.048.343-.139.524-.151.218-.013.431.077.649.101.257.027.52.094.774.05.144-.025.346-.04.399-.175.047-.118-.045-.278-.15-.35-.468-.318-1.303.356-1.697-.05-.093-.095.035-.271 0-.4-.052-.186-.134-.399-.3-.499-.25-.15-.535-.196-.835-.198zm30.285.795q-.083 0-.167.003c-.355.013-.706.102-1.049.2-.222.063-.567.032-.648.249-.05.133.077.306.2.375.254.143.582-.039.873-.05.391-.015.784-.067 1.173-.025.178.019.351.081.525.125.417.104.818.299 1.248.323.117.007.265.034.349-.05.096-.094-.022-.367.015-.463-.4.191-.896-.428-1.362-.534a5.5 5.5 0 0 0-1.157-.153m2.519.686a.4.4 0 0 0 .06-.034c-.033-.002-.05.011-.06.034m-38.41.016c-.437-.336-1.053.345-1.598.424-.519.076-1.048.045-1.572.05-.691.007-1.402-.189-2.073-.025-.358.088-.822.188-.974.524-.106.234-.013.575.175.749.451.417 1.211.332 1.822.275.456-.042.872-.282 1.298-.449.306-.121.581-.323.899-.4.543-.133 1.115-.074 1.673-.1.465-.023.958.105 1.398-.05.117-.042.307-.1.3-.225-.032-.517-1.088-.325-1.348-.773m53.196.628c-.255.001-.514.058-.77.07-.341.017-.7-.057-1.024.05-.257.084-.541.215-.673.45-.102.182-.069.421-.026.624.067.309.155.682.424.848.241.149.582.092.849 0 .219-.074.372-.276.55-.423.154-.128.249-.383.448-.4.157-.013.261.178.401.251.232.119.463.311.724.298.227-.012.489-.125.598-.324.117-.211.058-.508-.049-.724-.078-.159-.25-.255-.4-.35-.244-.156-.513-.297-.799-.35a1.4 1.4 0 0 0-.253-.02m-25.095.286a1.3 1.3 0 0 0-.515.084c-.245.101-.349.411-.575.55-.15.092-.325.143-.498.174-.377.069-.801-.133-1.149.025-.226.103-.3.403-.499.55-.192.141-.417.353-.649.299-.167-.039-.245-.247-.325-.399-.097-.184-.005-.479-.175-.599-.278-.199-.766-.176-1.023.05-.173.15-.17.45-.125.674.099.489.445.923.823 1.248.167.143.38.27.6.275.305.005.576-.213.849-.351.217-.108.395-.293.623-.374.349-.122.741-.239 1.099-.15.209.052.331.282.524.375.382.184.817.466 1.224.35.226-.065.279-.393.473-.525.177-.12.392-.178.6-.224.367-.084.75-.141 1.124-.101.416.045.78.352 1.198.375.305.017.699.057.898-.175.141-.164.097-.445.025-.649-.055-.156-.241-.231-.324-.374-.348-.272-.894.005-1.323-.1-.493-.12-.927-.412-1.398-.599-.313-.125-.616-.295-.948-.35a4 4 0 0 0-.534-.059m-20.887 1.358c-.389-.044-.758.213-1.148.249-.273.025-.549-.021-.824-.025-.308-.005-.636-.113-.923 0-.274.107-.742.319-.65.599.098.294.615.086.923.1.417.019.838-.09 1.25-.025.348.056.645.362.998.35.335-.012.646-.211.924-.4.156-.106.432-.214.399-.4-.059-.344-.601-.408-.949-.448m23.393 3.437a.2.2 0 0 0-.051.008c-.261.072-.354.415-.573.573-.121.088-.252.184-.4.2-.212.024-.413-.184-.625-.15-.202.033-.339.235-.523.325-.152.074-.306.184-.475.175-.166-.009-.302-.145-.45-.225-.144-.078-.26-.238-.424-.25-.197-.014-.376.129-.549.225-.098.056-.164.223-.274.2-.179-.038-.111-.395-.275-.475-.219-.107-.506-.008-.725.1-.179.089-.234.358-.423.425-.142.05-.299-.055-.45-.05-.194.006-.421-.019-.574.1-.145.111-.098.368-.225.5-.116.12-.283.236-.449.224-.203-.015-.315-.263-.499-.35-.203-.094-.43-.218-.649-.174-.175.034-.395.149-.425.325-.063.372.345.692.624.948.286.261.637.523 1.024.549.283.019.524-.226.799-.3.244-.065.498-.155.749-.125.252.031.446.327.699.3.243-.026.378-.319.599-.424.164-.079.345-.125.524-.15.315-.04.634-.04.949 0 .263.029.525.264.774.175.179-.064.183-.358.349-.45.204-.114.467-.041.699-.074.334-.047.701-.016 1-.175.244-.13.415-.372.572-.599.121-.175.204-.376.276-.575.055-.154-.38-.818-.599-.806m16.307 1.347c-.198 0-.399.021-.58.033-.349.025-.65.286-.998.326-.29.033-.588-.136-.874-.075-.204.042-.568.091-.549.299.023.262.495.182.749.25.279.075.609.012.848.174.174.117.167.422.349.524.401.224.944.207 1.374.05a.93.93 0 0 0 .524-.475c.112-.25.177-.612 0-.822-.194-.231-.513-.285-.843-.284m-11.692.37a5 5 0 0 0-.871.063c-.33.057-.702.1-.948.325-.121.111-.225.287-.201.449.056.361.441.595.725.824.252.204.526.506.848.475.282-.028.385-.449.65-.55.295-.113.637-.083.948-.025.231.043.421.22.65.275.324.078.69.204.998.075.13-.055.211-.198.274-.325.084-.168.185-.371.125-.55-.135-.403-.584-.651-.973-.823-.414-.183-.897-.149-1.349-.174-.29-.017-.584-.037-.876-.039m7.642.155c-.151-.001-.333.178-.499.208-.222.04-.58-.155-.675.05-.064.141.138.301.275.374a1 1 0 0 0 .799.025c.132-.052.266-.163.301-.3.026-.11-.084-.211-.1-.324a.17.17 0 0 0-.101-.033m6.847 2.319c-.289 0-.562.04-.78.21-.153.12-.297.381-.2.55.19.329.767.068 1.123.199.354.131.623.44.974.575.436.167.908.228 1.373.273.331.034.683.107.998 0 .337-.114.511-.538.85-.648.634-.206 1.331.029 1.997.05.657.021 1.317.136 1.972.075.263-.024.551-.031.773-.175.14-.09.195-.27.301-.399.119-.147.307-.249.374-.425-.506-.494-1.415.042-2.122.05-.758.009-1.52-.087-2.272 0-.544.063-1.053.325-1.598.375-.514.046-1.077.139-1.547-.075-.231-.106-.295-.444-.525-.55-.25-.116-.549-.056-.823-.05-.277.006-.58-.034-.868-.035m-26.615 1.151c-.225.007-.447.168-.628.308-.131.102-.147.333-.3.398-.192.083-.415-.09-.624-.075-.189.014-.438-.005-.548.15-.145.204-.047.519.05.75.203.49.631.869 1.047 1.198.266.21.563.438.899.474.25.028.483-.131.724-.199.2-.057.402-.24.599-.175.209.068.258.357.401.524.304.359.564.789.973 1.023.252.145.595.342.848.201.231-.129.223-.487.251-.749.023-.225-.158-.464-.075-.674.056-.143.196-.318.348-.301.367.044.295.797.65.9.215.062.441-.121.624-.25.082-.057.106-.189.2-.225a.48.48 0 0 1 .398.05c.103.063.089.255.201.301.245.097.519-.105.774-.176.228-.064.439-.258.673-.225.19.027.296.257.474.325.181.069.393.139.575.075.228-.081.272-.445.5-.524.445-.155.927.204 1.398.2.463-.005.923-.111 1.373-.225a8.3 8.3 0 0 0 1.572-.55c.195-.094.34-.292.55-.348.409-.112.923.291 1.272.05.087-.06.142-.204.1-.301-.137-.321-.622-.32-.948-.449-.374-.149-.761-.484-1.149-.375-.21.06-.268.347-.424.5-.253.248-.517.497-.824.674-.223.13-.467.29-.724.274-.32-.02-.533-.393-.848-.449-.24-.042-.491.03-.725.101-.256.077-.455.343-.723.348-.354.007-.693-.208-.975-.423-.169-.13-.2-.425-.399-.5-.316-.12-.673.264-.998.175-.222-.061-.336-.318-.525-.45-.125-.087-.247-.239-.399-.225-.259.024-.357.405-.599.5-.14.055-.322.104-.45.025-.199-.124-.119-.474-.274-.65-.121-.137-.293-.265-.475-.275-.144-.008-.27.107-.399.175-.122.066-.216.264-.349.225-.15-.043-.113-.294-.2-.425-.076-.112-.14-.285-.275-.298-.444-.042-.627.797-1.073.798-.309.001-.51-.352-.749-.55-.245-.202-.386-.591-.699-.648a.4.4 0 0 0-.096-.007zm17.663 1.762c-.223.002-.433.041-.491.218-.076.231.254.449.474.549.28.128.623-.063.924 0 .205.042.371.203.574.25.186.043.4.104.574.025a.53.53 0 0 0 .3-.374.41.41 0 0 0-.15-.375c-.312-.221-.772.02-1.149-.05-.233-.042-.436-.213-.673-.224-.112-.006-.25-.019-.383-.019m-2.558 2.363a3 3 0 0 0-.454.027c-.319.043-.548.337-.825.499q-.372.216-.749.425c-.364.202-.69.512-1.098.599-.416.089-.857-.193-1.273-.1-.196.045-.53.099-.524.301.009.334.666.208.899.448.096.098.198.239.174.375-.043.243-.368.332-.524.524-.174.216-.536.436-.449.699.103.313.6.412.923.349.3-.059.383-.528.674-.623.215-.071.487.201.675.074.179-.12.102-.421.175-.624.076-.214.122-.454.273-.625.186-.208.545-.208.725-.423.124-.15.047-.429.2-.55.289-.228.732-.073 1.098-.124.342-.049.755.043 1.023-.175.16-.13.316-.39.226-.575-.187-.379-.693-.497-1.169-.501m5.948 1.471a.26.26 0 0 0-.161.029c-.213.117-.197.456-.2.699-.004.24.32.509.174.699-.273.357-.899-.003-1.347.025-.234.015-.471.023-.7.075-.241.055-.467.163-.698.25-.259.096-.528.174-.775.3-.353.181-.677.413-.998.648-.286.209-.55.449-.824.674-.192.158-.345.381-.574.475-.364.148-.783.054-1.174.1-.509.059-1.111-.082-1.522.225-.111.082-.232.248-.175.373.222.49 1.012.412 1.548.45.419.03.827-.179 1.248-.175.362.004.716.119 1.074.175.44.069.878.235 1.323.2.243-.02.521-.057.699-.225.253-.239.216-.664.375-.973.145-.284.263-.616.523-.8.406-.285.953-.317 1.449-.349.309-.02.617.148.923.1a.84.84 0 0 0 .45-.2c.165-.161.109-.494.3-.623.296-.202.746.073 1.073-.075a.93.93 0 0 0 .474-.475c.082-.209.121-.503-.025-.675-.22-.258-.679-.086-.999-.2-.337-.119-.617-.363-.948-.498-.163-.066-.345-.21-.513-.229m8.602 2.919c-.244-.009-.45.261-.675.381-.351.187-.651.55-1.049.574-.224.013-.399-.262-.623-.25-.387.022-.721.309-1.024.55-.217.172-.329.454-.549.623-.162.125-.345.263-.549.275-.345.02-.63-.359-.975-.35a.66.66 0 0 0-.473.2c-.214.247-.256.622-.25.949.006.313.147.612.275.898.138.311.243.683.524.875.16.11.39.161.574.1.346-.116.476-.558.75-.8.169-.15.333-.329.548-.399.482-.158 1.024.091 1.523 0 .464-.085.932-.235 1.324-.499.366-.247.645-.612.897-.974.22-.314.373-.671.525-1.023.059-.138.114-.28.15-.425.026-.106.119-.24.05-.324-.132-.162-.437.065-.625-.025-.138-.067-.148-.321-.298-.35zm-29.527 2.409c-.1 0-.189.024-.256.093-.156.162-.071.471.024.675.148.315.448.577.774.698.39.146.834.017 1.248-.025.32-.032.629-.142.949-.174.381-.039.773-.1 1.148-.025.161.032.314.107.45.2.291.2.448.564.749.749.327.197.694.316 1.073.35.435.039.883-.04 1.298-.175.234-.076.413-.282.65-.35.352-.102.73-.074 1.097-.075.259 0 .564.2.775.05.154-.11.261-.396.15-.55-.196-.269-.685.064-.999-.05-.156-.056-.237-.264-.399-.299-.375-.081-.756.143-1.124.25-.476.137-.905.454-1.398.499-.361.033-.859.118-1.073-.175-.134-.183.066-.45.1-.674.025-.167.186-.373.075-.499-.457-.518-1.382.057-2.072.05-.567-.005-1.142.037-1.698-.075-.356-.071-.667-.311-1.024-.375-.159-.027-.35-.093-.517-.093m20.593.418a.4.4 0 0 0-.155.025c-.233.089-.258.437-.448.599-.207.175-.472.274-.724.374a6 6 0 0 1-1.298.375c-.354.054-.716.027-1.074.025-.25-.001-.554-.182-.748-.025-.145.117-.217.405-.1.55.377.465 1.198.067 1.797.05.576-.017 1.146-.126 1.722-.151.591-.025 1.182-.008 1.773 0 .533.009 1.085.197 1.598.051.144-.042.312-.113.374-.25.052-.115-.018-.253-.05-.375-.022-.087-.104-.16-.1-.25-.189-.354-.826.005-1.198-.15-.35-.144-.554-.54-.899-.698-.145-.066-.311-.146-.47-.15m5.903 8.579c-.205.001-.406.03-.59.109-.254.108-.36.434-.599.574-.247.145-.57.117-.824.25-.189.099-.479.187-.499.398-.015.165.17.317.324.375.574.216 1.226-.108 1.823-.249.402-.095.82-.186 1.174-.399.167-.1.395-.208.425-.399.026-.17-.122-.337-.251-.451-.1-.088-.242-.127-.374-.149a3.5 3.5 0 0 0-.609-.059m-5.66 1.366c-.219-.003-.465.053-.671.065-.195.013-.459-.033-.575.126-.098.135-.074.387.05.499.216.196.585.044.874 0 .25-.038.566-.028.724-.225.063-.078.089-.223.025-.3-.103-.122-.257-.162-.427-.165"/><path fill="#fec70b" d="M299.905 95.76a78.289 78.289 0 0 0-29.96 150.62 78.28 78.28 0 0 0 59.92 0 78.288 78.288 0 0 0 25.399-127.69 78.3 78.3 0 0 0-55.359-22.93m0 4.394a73.897 73.897 0 1 1-52.252 126.149 73.885 73.885 0 0 1-16.018-80.531 73.88 73.88 0 0 1 39.991-39.993 73.9 73.9 0 0 1 28.279-5.625"/><path fill="#f7e47b" d="M254.509 223.472q-.285-.001-.572.022c-.25.022-.673-.1-.742.142-.109.384.565.57.883.812.585.445 1.234.801 1.872 1.165.484.278 1.033.446 1.482.777.362.266.672.604.954.954.123.152.276.302.317.494.082.384-.021.804-.176 1.165-.287.671-.873 1.171-1.342 1.73-.654.779-1.304 1.566-2.048 2.259a9 9 0 0 1-1.165.918c-.268.177-1.202.85-1.129 1.059.043.124.224.148.352.177 2.202.508 4.521.019 6.779-.071 2.052-.081 4.091-.427 6.143-.423.814.001 1.635.031 2.436.176 1.159.208 2.255.679 3.39.989 1.382.377 2.764.768 4.166 1.059 2.09.434 4.192.867 6.32 1.024 1.761.13 3.542.139 5.296-.07.839-.101 2.47-.565 2.47-.565s.154-3.907.142-5.826a1.85 1.85 0 0 1 .318-1.06c.185-.261.498-.406.776-.565q.471-.266.989-.423c.492-.149 1.012-.185 1.518-.283.91-.174 1.856-.223 2.727-.539.224-.081.525-.128.627-.343.169-.361-.012-.837-.224-1.174-.177-.28-.494-.461-.799-.591-.385-.164-.819-.18-1.236-.212-.846-.066-1.698-.022-2.543.036-.97.065-1.929.233-2.894.353-1.589.197-3.172.458-4.767.599-.916.081-1.835.122-2.754.141-1.177.025-2.355.042-3.53-.034a34 34 0 0 1-3.849-.46c-1.275-.23-2.521-.598-3.777-.917-1.735-.441-3.462-.915-5.19-1.378-1.049-.28-2.072-.673-3.142-.847-.99-.16-2-.142-3.001-.177-1.118-.038-2.236-.02-3.354-.035-.574-.007-1.149-.06-1.723-.058m86.323.894q-1.208.015-2.409.153a30 30 0 0 0-3.601.635c-1.087.256-2.153.601-3.213.954-1 .332-1.96.78-2.966 1.095-.986.308-1.985.588-3.001.776a27.3 27.3 0 0 1-6.108.389c-.78-.042-1.554-.15-2.33-.248a71 71 0 0 1-3.353-.494c-.817-.143-1.618-.364-2.436-.494-1.018-.161-2.047-.25-3.073-.353-.549-.056-1.098-.13-1.651-.141-1.156-.025-2.349-.15-3.467.146-.446.118-1.062.205-1.231.634-.1.255.078.586.277.773.388.362 1.012.331 1.533.434.762.152 1.56.087 2.315.272.514.126 1.029.295 1.484.564.279.167.566.361.74.636.19.299.283 1.024.283 1.024l.141 5.507s.58.24.883.319c.969.253 1.972.366 2.966.494 1.16.149 2.326.278 3.495.318 1.106.039 2.213-.018 3.319-.071 1.284-.061 2.571-.128 3.848-.282a49 49 0 0 0 4.414-.742c.951-.204 1.875-.521 2.823-.742a27 27 0 0 1 1.908-.387c.725-.115 1.454-.22 2.188-.248.953-.036 1.909.028 2.86.106 1.466.122 2.912.428 4.377.565.787.074 1.577.106 2.366.142.684.03 1.561.384 1.942-.142.056-.079-.018-.2-.071-.282-.228-.352-.654-.524-.988-.777-.698-.53-1.459-.977-2.119-1.554-.65-.569-1.203-1.243-1.8-1.871-.367-.386-.831-.702-1.095-1.165-.126-.224-.225-.484-.211-.741.015-.28.158-.547.318-.777.328-.471.825-.802 1.27-1.165.654-.533 1.324-1.052 2.048-1.483.493-.293 1.116-.371 1.554-.741.109-.093.292-.217.246-.353-.122-.364-.72-.27-1.094-.353a14.6 14.6 0 0 0-2.577-.318 15 15 0 0 0-.804-.012m-41.28 6.791c-1.415.007-2.797.439-4.202.599-1.362.156-4.095.353-4.095.353s-.208 4.955.035 7.415c.042.429.124.857.248 1.27.062.208.075.469.246.601.217.167.54.093.812.106.636.029 1.274-.006 1.907-.071.902-.093 1.793-.282 2.683-.459.686-.135 1.352-.382 2.048-.459a7.3 7.3 0 0 1 1.447 0c.656.06 1.296.232 1.942.353.919.172 1.834.37 2.755.53.528.092 1.092.449 1.588.247.273-.111.403-.44.529-.706.105-.219.148-.465.177-.706.328-2.711-.036-8.191-.036-8.191s-2.025-.11-3.035-.212c-1.689-.171-3.352-.678-5.049-.67"/><path fill="#7d421d" stroke="#7d421d" stroke-linecap="round" stroke-linejoin="round" stroke-miterlimit="6.7" stroke-width=".427" d="M267.739 215.394a2.7 2.7 0 0 0-.83.197 2.1 2.1 0 0 0-.687.478 2.5 2.5 0 0 0-.493.729q-.243.55-.242 1.36 0 1.267.698 1.991.7.72 1.883.72 1.17 0 1.868-.723.698-.727.698-2.014 0-1.295-.706-2.022-.702-.729-1.875-.729-.161 0-.314.013m67.476-4.187-1.083.239-2.031 6 .971-.213q.143-.433.296-.877.155-.444.298-.879l1.999-.439.597 1.494.984-.215zm-62.394 4.643v5.555l.939.028v-2.278l1.417.041a1 1 0 0 1 .367.074.7.7 0 0 1 .243.166.746.746 0 0 1 .175.472v.843q0 .069.004.156.007.088.024.188.02.1.056.204.04.106.099.202l1.027.03a3 3 0 0 1-.202-.424 1.1 1.1 0 0 1-.072-.357v-.803q0-.168-.039-.337a1.23 1.23 0 0 0-.339-.599.9.9 0 0 0-.315-.192q.386-.223.573-.537.192-.317.192-.683 0-.299-.12-.593a1.6 1.6 0 0 0-.346-.532 1.8 1.8 0 0 0-.562-.39 2 2 0 0 0-.765-.165zm-4.757.447q.662 0 1.061.449.402.449.402 1.361 0 .924-.413 1.387-.409.46-1.05.46a1.36 1.36 0 0 1-1.057-.464q-.417-.466-.416-1.368 0-.916.405-1.368.405-.457 1.068-.457m64.135-4.271-4.456 1.293v.793l1.759-.511v4.764l.941-.273v-4.764l1.756-.51zm-20.224 1.952v5.555l.939.035v-2.234l1.258.049a1.9 1.9 0 0 0 .758-.111 1.6 1.6 0 0 0 .556-.353 1.5 1.5 0 0 0 .343-.521 1.594 1.594 0 0 0 0-1.211 1.782 1.782 0 0 0-.897-.95 1.9 1.9 0 0 0-.76-.176zm-38.215 2.692 1.418.041a.8.8 0 0 1 .339.078.8.8 0 0 1 .266.187.8.8 0 0 1 .179.275.9.9 0 0 1 .064.341.788.788 0 0 1-.526.765.9.9 0 0 1-.323.05l-1.417-.041zm60.906-4.175.704 1.82-1.414.311zm-53.193 3.824a2.7 2.7 0 0 0-.831.187q-.372.15-.687.468a2.5 2.5 0 0 0-.492.72q-.242.547-.243 1.358 0 1.267.699 2.001.699.73 1.882.746 1.17.015 1.869-.699.698-.717.698-2.003 0-1.296-.706-2.033-.702-.737-1.875-.754a4 4 0 0 0-.314.009m35.938-2.396v5.555l3.613.105v-.805l-2.673-.078v-4.751zm6.906-.086-2.031 5.694.971-.067q.144-.41.296-.832.156-.42.298-.832l1.999-.138.597 1.584.984-.067-2.031-5.416zm-11.403.969 1.06.04q.251.01.442.08.195.072.326.192a.8.8 0 0 1 .199.278.9.9 0 0 1 .068.341q0 .188-.056.348a.64.64 0 0 1-.176.273.8.8 0 0 1-.318.179q-.195.06-.485.049l-1.06-.04zm-31.116 2.42q.663.01 1.06.465.402.453.402 1.366 0 .924-.413 1.381-.408.454-1.049.446a1.38 1.38 0 0 1-1.058-.479q-.416-.473-.416-1.374 0-.916.406-1.363.405-.45 1.068-.442m43.052-2.259.706 1.927-1.415.097zm-27.811 4.13 2.007 3.22v2.198l.943-.065v-2.198l2.012-3.495-1.072.074-1.393 2.556-1.429-2.363zm-3.854 3.331v.813l2.067-.142v-.812zm10.7-.664v.813l2.067-.142v-.812z"/></svg>