<svg xmlns="http://www.w3.org/2000/svg" width="600" height="300" fill="none" viewBox="0 0 600 300"><path fill="#ba0c2f" d="M0 0h600v300H0z"/><path fill="#d69a2d" d="M125 0h350v300H125z"/><path fill="#041e42" d="M150 0h300v300H150z"/><path fill="#d69a2d" d="M285.445 37.28h9.848l3.052 4.182-4.917 1.618zm28.32 0h-9.848l-3.052 4.182 4.916 1.618zM299.618 27l2.987 9.32-3.015 4.18-2.985-4.152zm8.667 26.88-7.9-5.705V43.02l4.885 1.61zm-17.34 0 7.9-5.705V43.02l-4.885 1.61z"/><path fill="#fff" d="m200.488 81.463 6.792 2.262 4.27-5.747-.047 7.124 6.765 2.288-6.831 2.182-.074 7.121-4.156-5.82-6.805 2.185 4.243-5.775zm-13.61 23.92 7.124.682 2.858-6.54 1.57 6.963 7.12.735-6.182 3.597 1.597 6.965-5.397-4.702-6.208 3.595 2.912-6.536zm.317 18.374 3.123 6.461 7.089-.975-5.134 4.964 3.127 6.406-6.308-3.386-5.189 4.96 1.255-7.005-6.308-3.387 7.06-.978zM177 158.937l6.698-2.565-.346-7.152 4.503 5.59 6.672-2.565-3.9 5.982 4.531 5.59-6.956-1.855-3.927 5.98-.347-7.152zm4.147 27.24 5.96-3.997-1.994-6.882 5.677 4.422 5.96-3.995-2.472 6.705 5.65 4.393-7.171-.221-2.445 6.678-1.995-6.827zm11.698 14.173 6.482 3.078 4.966-5.15-.968 7.064 6.453 3.106-7.05 1.292-.996 7.09-3.345-6.283-7.08 1.265 4.94-5.179zm13.158 22.578 6.937 1.662 3.727-6.112.6 7.117 6.961 1.633-6.588 2.762.602 7.145-4.704-5.457-6.586 2.79 3.726-6.085zm61.12-187.378 3.939 5.953 6.935-1.865-4.49 5.602 3.94 5.925-6.735-2.527-4.464 5.604.295-7.139-6.708-2.525 6.937-1.865zm-25.57 10.078 5.174 4.97 6.291-3.373-3.121 6.448 5.175 4.942-7.089-.982-3.123 6.475-1.285-7.035-7.088-.983 6.348-3.37zm-10.825 14.73-1.736 6.974 6.093 3.758-7.123.547-1.737 6.946-2.698-6.631-7.154.545 5.495-4.647-2.698-6.63 6.065 3.785zm168.474 21.105-6.792 2.262-4.27-5.747.045 7.124-6.763 2.288 6.831 2.182.074 7.121 4.156-5.82 6.805 2.185-4.243-5.775zm13.61 23.92-7.124.682-2.858-6.54-1.57 6.963-7.12.735 6.182 3.597-1.597 6.965 5.397-4.702 6.208 3.595-2.912-6.536zm-.317 18.374-3.123 6.461-7.089-.975 5.134 4.964-3.127 6.406 6.308-3.386 5.189 4.96-1.255-7.005 6.308-3.387-7.06-.978zm10.195 35.18-6.698-2.565.346-7.152-4.503 5.59-6.672-2.565 3.9 5.982-4.531 5.59 6.956-1.855 3.927 5.98.347-7.152zm-4.147 27.24-5.96-3.997 1.994-6.882-5.677 4.422-5.96-3.995 2.472 6.705-5.65 4.393 7.171-.221 2.445 6.678 1.995-6.827zm-11.698 14.173-6.482 3.078-4.966-5.15.968 7.064-6.453 3.106 7.05 1.292.996 7.09 3.345-6.283 7.08 1.265-4.94-5.179zm-13.158 22.578-6.937 1.662-3.727-6.112-.6 7.117-6.961 1.633 6.588 2.762-.602 7.145 4.704-5.457 6.586 2.79-3.726-6.085zM332.567 35.55l-3.939 5.953-6.935-1.865 4.49 5.602-3.94 5.925 6.735-2.527 4.464 5.604-.295-7.139 6.708-2.525-6.937-1.865zm25.57 10.078-5.174 4.97-6.291-3.373 3.121 6.448-5.175 4.942 7.089-.982 3.123 6.475 1.285-7.035 7.088-.983-6.348-3.37zm10.823 14.73 1.738 6.974-6.093 3.758 7.123.547 1.737 6.946 2.698-6.631 7.154.545-5.495-4.647 2.698-6.63-6.065 3.785zm-143.187 185.2.14-.178c.415.052.832-.055 1.235-.345.4-.263 1.03-.953 1.895-2.053l.4-.509c.949-1.206 1.899-2.411 2.854-3.626q.443-.563.493-.827c.025-.168-.017-.36-.133-.568l.141-.179q.63.537.945.802c.21.18.397.342.582.487.183.145.385.288.608.45.224.161.545.4.992.721l-.14.18c-.218-.056-.415-.051-.572.014q-.244.11-.686.673l-3.254 4.137c-.865 1.098-1.386 1.873-1.56 2.315-.176.47-.181.9-.033 1.29-.048.063-.098.125-.14.178a34 34 0 0 0-.86-.733 48 48 0 0 0-.988-.792 40 40 0 0 0-1.004-.775c-.31-.228-.62-.458-.915-.662m11.204-2.12q-.933 1.43-1.869 2.859c-.991 1.513-1.541 2.581-1.673 3.19q-.197.907.33 1.698l-.125.19c-.22-.17-.468-.347-.717-.523-.25-.177-.528-.359-.83-.557-.301-.197-.591-.387-.853-.543a20 20 0 0 0-.778-.455c.036-.059.081-.125.125-.192a2 2 0 0 0 1.675-.332c.491-.371 1.256-1.313 2.266-2.856q.952-1.458 1.907-2.915c.387-.59.573-1.054.59-1.382.01-.32-.145-.667-.435-1.033l.107-.162c.126.083.405.265.833.573.423.29.742.512.985.672.14.09.343.21.598.377.262.158.465.276.582.353.228 2.612.523 5.227.747 7.848l.61-.935c1.003-1.533 1.553-2.601 1.691-3.191.125-.597-.005-1.159-.35-1.67l.132-.2c.18.131.382.276.602.421.215.154.54.367.98.655.441.289.766.5.993.635.208.137.423.264.615.375l-.13.2c-.618-.145-1.183-.038-1.693.335-.51.374-1.264 1.324-2.255 2.837-1.115 1.705-2.23 3.412-3.34 5.107l-.29-.19c-.3-3.72-.717-7.462-1.03-11.189m21.52 14.664a.7.7 0 0 1-.052.163 1.17 1.17 0 0 0-.96.455c-.262.312-.652 1.048-1.132 2.227l-.173.42-.21.516a7.5 7.5 0 0 1-2.372.185 7.3 7.3 0 0 1-2.283-.538c-.728-.297-1.332-.678-1.803-1.167a4.5 4.5 0 0 1-1.079-1.703c-.225-.693-.363-1.413-.33-2.148a6.3 6.3 0 0 1 .454-2.135c.27-.664.63-1.254 1.096-1.775.449-.515.989-.922 1.594-1.277.691-.38 1.456-.572 2.261-.612.799-.055 1.587.095 2.34.404a6.5 6.5 0 0 1 1.77 1.066 9.7 9.7 0 0 1 1.604 1.734c-.609.795-1.229 1.586-1.837 2.381-.068-.053-.123-.1-.192-.151.264-1.157.297-2.077.112-2.792-.19-.703-.62-1.185-1.272-1.45-.816-.335-1.653-.185-2.495.49-.838.665-1.553 1.723-2.155 3.197q-.862 2.115-.776 3.55c.06.945.446 1.57 1.123 1.845.46.188.9.171 1.275-.094.385-.248.723-.711.993-1.373.414-1.012.607-1.705.587-2.093-.02-.39-.22-.704-.593-.992.02-.053.041-.105.06-.147.365.162.718.319 1.085.48.345.14.711.302 1.081.454.359.145.734.286 1.117.443zm4.805 7.836c.76.259 1.475.045 2.128-.633.638-.672 1.237-1.837 1.792-3.473.556-1.635.785-2.914.691-3.845-.11-.925-.538-1.515-1.31-1.777-.746-.253-1.455-.062-2.088.598-.625.677-1.22 1.832-1.787 3.5-.561 1.657-.795 2.947-.711 3.864.096.92.538 1.513 1.285 1.766m-3.449-6.63q.405-1.194 1.139-2.061c.491-.59 1.105-1.019 1.791-1.362a4.9 4.9 0 0 1 1.945-.48c.687-.043 1.365.067 2.047.298.707.24 1.325.57 1.835 1.007.508.437.93.963 1.243 1.587.355.72.577 1.443.607 2.173a6.4 6.4 0 0 1-.343 2.308 6.3 6.3 0 0 1-.779 1.56c-.303.462-.69.87-1.131 1.225a5.6 5.6 0 0 1-2.435 1.105c-.877.172-1.755.09-2.607-.2a5.3 5.3 0 0 1-1.837-1.043c-.528-.467-.971-1.013-1.256-1.638a5.1 5.1 0 0 1-.567-2.16 6.3 6.3 0 0 1 .348-2.319m16.314-.335q-.746 3.52-1.489 7.039c-.22 1.033-.275 1.695-.183 2.005.09.31.333.5.755.59q1.264.267 2.177-.829c.606-.72 1.078-1.875 1.413-3.453.34-1.612.372-2.837.112-3.682-.249-.841-.85-1.353-1.76-1.545a5 5 0 0 0-.439-.081c-.18-.015-.361-.03-.586-.044m-5.869 9.155.047-.223c.413-.145.745-.435.995-.88.25-.447.522-1.388.825-2.823.032-.155.065-.312.097-.455.316-1.502.635-3.002.955-4.515.093-.444.118-.764.07-.937-.049-.173-.184-.342-.382-.477l.047-.221c.416.111.821.208 1.213.303.378.092.757.183 1.11.258.367.077.803.159 1.308.254.492.093.805.158.94.186 1.754.372 3.025 1.07 3.75 2.142.727 1.06.942 2.393.599 4.017-.377 1.78-1.129 3.048-2.232 3.838-1.105.788-2.498 1.003-4.143.657a27 27 0 0 1-1.144-.3c-.55-.152-.981-.255-1.308-.324-.203-.043-.465-.086-.82-.15a69 69 0 0 0-1.927-.35m32.835-7.19-.013.227q-.653.168-1.26.953c-.405.535-.838 1.307-1.272 2.332-1.05 2.538-2.153 5.063-3.203 7.602l-.125-.007c-.725-2.462-1.493-4.903-2.205-7.353-.942 2.351-1.938 4.688-2.88 7.051-.042-.001-.083-.005-.138-.008-.897-3.077-1.849-6.145-2.745-9.222-.254-.858-.484-1.42-.7-1.73a1.26 1.26 0 0 0-.799-.525l.014-.228c.096.007.233.013.44.038.851.084 1.443.142 1.76.16.373.024 1.105.044 2.181.074.277.005.484.016.622.025-.005.068-.01.148-.013.226-.267.042-.477.11-.61.25-.132.129-.2.33-.215.58-.009.137.01.309.04.505.03.195.086.394.143.625.4 1.415.827 2.832 1.227 4.259.923-2.26 1.885-4.509 2.808-6.77l.123.008c.77 2.418 1.582 4.817 2.339 7.223.25-.715.515-1.43.763-2.145.218-.65.42-1.231.547-1.736.126-.507.203-.867.216-1.094.022-.365-.043-.665-.181-.901a.96.96 0 0 0-.654-.415l.014-.227c.358.032.688.063 1.003.093.318.019.62.049.923.067.235.013.512.018.829.037.303.006.648.016 1.021.026m1.6 10.735-.018-.226c.342-.244.577-.605.678-1.069.117-.455.127-1.196.044-2.216l-.47-5.845q-.058-.715-.2-.942c-.082-.142-.244-.255-.472-.327l-.018-.226c.678-.032 1.315-.072 1.908-.109.608-.038 1.135-.068 1.577-.105l4.196-.336c.284.935.582 1.88.865 2.826l-.248.02c-.758-.806-1.498-1.361-2.178-1.695a4.13 4.13 0 0 0-2.2-.405l-.29.024c-.055.005-.11.02-.177.036.112 1.405.227 2.822.34 4.227.153.01.277 0 .362.005.083.005.151-.002.206-.005.747-.06 1.314-.255 1.72-.572.405-.318.672-.785.805-1.388l.249-.02.326 4.068-.248.02c-.228-.598-.567-1.003-1.018-1.265-.452-.248-1.042-.336-1.787-.276q-.083.003-.207.026c-.081.019-.206.029-.356.064.068.838.135 1.665.201 2.503.065.793.22 1.34.482 1.662q.393.48 1.2.415c.622-.05 1.263-.364 1.898-.939.634-.576 1.279-1.38 1.889-2.433l.24.05c-.18 1.233-.387 2.46-.579 3.695l-4.818.387c-.317.026-.828.066-1.532.135-.701.068-1.488.143-2.37.236m19.04-2.451c-.015-.067-.031-.145-.05-.222.317-.293.484-.68.527-1.18.033-.473-.103-1.398-.412-2.763l-.141-.632c-.36-1.598-.719-3.185-1.077-4.782-.045-.2-.09-.33-.145-.386-.052-.047-.127-.065-.235-.042-.337.077-.722.373-1.138.91a10 10 0 0 0-1.175 2.06q-.126.01-.25.022c-.024-1.045-.03-2.08-.037-3.117l8.232-1.855c.425.942.863 1.882 1.276 2.837q-.117.045-.235.088c-.686-.603-1.34-1.05-1.945-1.357-.606-.306-1.068-.411-1.405-.336-.108.025-.181.076-.208.14-.027.076-.01.211.035.411l.098.434 1.122 4.98c.308 1.365.58 2.26.828 2.67.239.435.57.711.98.84.019.078.035.155.05.221-.368.06-.733.13-1.126.207-.379.075-.81.172-1.24.268-.444.1-.862.194-1.235.29-.389.099-.749.192-1.094.294m9.267-2.35-.075-.215c.282-.327.418-.735.392-1.232-.019-.475-.26-1.377-.72-2.697q-.108-.306-.214-.613l-1.518-4.357c-.157-.45-.302-.738-.418-.865-.127-.111-.312-.18-.552-.193-.025-.075-.052-.15-.073-.215l1.16-.368c.391-.137.943-.317 1.621-.554l1.242-.431c1.645-.574 2.897-.805 3.737-.665.843.151 1.413.651 1.711 1.51.232.665.154 1.283-.213 1.868-.38.59-1.053 1.137-2.045 1.652.712-.14 1.335-.117 1.865.06.535.186 1.013.513 1.455 1.021q.255.29.688.844c.955 1.183 1.712 1.715 2.25 1.623.024.063.045.128.064.182-.6.21-1.049.353-1.392.461l-.94.327-.888.31a9 9 0 0 0-.557.207c-.132-.209-.332-.487-.578-.859-1.672-2.486-2.955-3.568-3.83-3.263a2 2 0 0 0-.28.122c-.014.005-.027.008-.035.025.133.385.271.783.41 1.18.468 1.341.856 2.205 1.145 2.61.3.401.648.641 1.071.721.025.075.052.152.075.215-.36.102-.716.214-1.1.335-.368.117-.773.259-1.205.409-.416.145-.821.286-1.183.425-.375.141-.738.28-1.07.42m1.635-6.949c.095-.021.178-.038.268-.07.097-.021.214-.061.397-.125.652-.228 1.083-.546 1.262-.958s.16-.97-.084-1.668c-.228-.655-.54-1.087-.943-1.32-.398-.222-.898-.229-1.487-.024-.195.069-.34.119-.453.17-.1.047-.202.095-.305.13zm5.455-6.306c-.033-.074-.053-.152-.083-.214.615-.256 1.073-.455 1.38-.585.306-.128.588-.245.84-.361.478-.22 1.17-.575 2.111-1.049l.052-.021.095.206c-.25.354-.342.784-.277 1.255.069.482.397 1.36.979 2.622l.275.6.815 1.768c.523 1.137 1.068 1.89 1.646 2.25.584.372 1.23.387 1.987.039.352-.164.637-.407.862-.749a2.56 2.56 0 0 0 .396-1.16 3.2 3.2 0 0 0-.096-.971 11 11 0 0 0-.584-1.499l-.595-1.293c-.766-1.665-1.381-2.698-1.825-3.133-.431-.44-.976-.629-1.593-.609l-.095-.206c.202-.094.433-.187.677-.287.231-.093.596-.262 1.075-.482.478-.221.831-.383 1.053-.498.235-.12.457-.235.645-.322l.095.207a2.08 2.08 0 0 0-.568 1.615c.033.637.433 1.77 1.195 3.425l.591 1.282c.68 1.48.857 2.69.565 3.613-.283.945-1.116 1.718-2.44 2.327-1.271.585-2.353.72-3.231.371-.872-.336-1.614-1.15-2.217-2.463-.33-.713-.663-1.437-.992-2.152-.695-1.51-1.215-2.473-1.568-2.875-.34-.406-.74-.611-1.17-.651m16.103 3.553c-.356-.975-.695-1.948-1.056-2.932.08-.03.155-.07.246-.108.72.743 1.489 1.2 2.274 1.393.786.192 1.483.07 2.058-.34.485-.348.78-.795.87-1.335.073-.541-.053-1.051-.41-1.551-.303-.425-.655-.677-1.047-.774-.41-.071-.903.002-1.496.245-.115.054-.294.114-.519.204-1.095.448-1.881.66-2.383.6a2.1 2.1 0 0 1-1.042-.359 3.6 3.6 0 0 1-.928-.916c-.595-.832-.738-1.749-.483-2.727.261-.97.921-1.833 1.971-2.583.474-.339.999-.63 1.564-.84a8 8 0 0 1 1.911-.5c.299.848.582 1.721.882 2.57-.068.048-.142.086-.21.135-.552-.654-1.182-1.055-1.828-1.222a2.03 2.03 0 0 0-1.769.315q-.608.44-.691 1.108c-.057.447.06.895.363 1.32.292.407.623.632.972.689.355.068.978-.085 1.86-.45 1.146-.47 2.053-.657 2.738-.532q1.013.198 1.805 1.307c.662.925.833 1.905.56 2.953-.285 1.057-1 1.987-2.14 2.802a8.7 8.7 0 0 1-1.992 1.075c-.716.261-1.4.428-2.08.453m11.727-7.142c-.042-.055-.088-.12-.137-.183.16-.388.169-.818.005-1.293q-.242-.675-1.496-2.36-.193-.26-.387-.52l-2.925-3.932c-.122-.163-.215-.265-.288-.295-.069-.022-.144-.007-.234.058-.276.209-.511.637-.675 1.299-.165.66-.253 1.448-.245 2.363l-.231.13c-.434-.953-.86-1.897-1.297-2.833 2.268-1.689 4.537-3.375 6.817-5.072l2.318 2.073-.178.177a10 10 0 0 0-2.337-.447c-.68-.031-1.158.069-1.425.267-.1.075-.135.143-.135.215.008.078.078.197.2.362l.265.355 3.048 4.096c.835 1.122 1.447 1.829 1.84 2.104.397.3.812.416 1.23.375l.135.181c-.301.197-.62.42-.938.642-.33.232-.673.488-1.03.753-.367.272-.712.529-1.017.77a34 34 0 0 0-.883.715m-9.147-68.516c-.066-.034 2.009-.234 2.009-.234s1.675 0 3.381-.066c1.439-.167 2.912-.334 3.314-.4.435-.2.903-.402 1.305-.635l.938-.5.837-.635c1.138-.767 2.141-1.802 2.945-2.904 1.675-2.203 2.243-5.006 1.473-7.643s-2.543-5.007-4.653-6.908c-1.505-1.369-3.214-2.504-5.02-3.405-.169-.067-.369-.134-.637-.234-.637-.233-1.473-.566-2.377-.735-.468-.1-.903-.233-1.305-.333-.435-.067-.836-.067-1.171-.1-.67-.067-1.105-.1-1.105-.1-.435-.067-.87-.033-1.305-.067l-1.674-.033-2.41.167c-.805.1-1.641.233-2.445.333-3.213.568-6.393 1.537-9.606 2.57-4.319 1.368-8.737 3.005-13.355 3.938-.939.269-1.909.469-2.88.669-.335.333-.635.7-.937 1.035-1.808 2.101-3.715 4.171-5.758 6.106-.435.435-.904.869-1.372 1.269l.435.435c2.008 1.668 4.285 3.036 6.695 4.105 1.205.533 2.443.901 3.715 1.301 1.272.267 2.512.567 3.883.634l3.984.435 4.083.233 5.992.333s2.846.334 4.855.735c3.38.567 2.008.9-.102 1.035.202.034-5.087.067-5.087.067l-6.193-.335c-1.338-.067-2.678-.133-4.017-.233l-4.05-.434c-1.306-.066-2.711-.401-4.05-.701-1.306-.434-2.645-.834-3.883-1.435a28 28 0 0 1-3.95-2.102c.737 1.2 1.507 2.335 2.41 3.337 2.945 3.371 7.197 5.506 11.582 6.641 4.318 1.002 8.971.669 13.49-.066 1.205-.3 2.41-.634 3.648-.969 1.305-.4 2.678-.8 4.017-1.201q2.108-.65 4.218-1.1a24 24 0 0 1 1.507-.335c-.402-.134-1.005-.3-1.507-.5-1.338-.567-.67-.902.133-1.035m-106.153.838c.1.033-2.477.367-2.477.367h-2.578c.168.066.335.133.502.166.905.335 1.808.669 2.511.902.669.267 1.139.4 1.139.4l1.205.467c.435.166.635.2 1.706.535.87.233 1.74.366 2.645.533.87.033 1.74.2 2.644.1 3.583-.133 7.231-1.068 10.611-2.568 3.549-1.569 6.864-3.737 9.842-6.307-4.183 2.135-8.737 3.37-13.255 4.272-.57.1-1.138.2-1.742.3 0 0-2.878.266-4.92.2-3.448-.067-2.11-.635-.066-1.035-.102-.034 1.138-.234 2.41-.5 1.238-.267 2.51-.567 2.51-.567l.903-.133 1.005-.2c.87-.169 1.707-.369 2.578-.569 1.707-.4 3.38-.866 5.02-1.435 2.009-.7 3.95-1.566 5.792-2.568-.268-.267-.535-.533-.77-.8a43 43 0 0 1-2.745-3.47c-.435.1-.87.233-1.305.3l-1.607.133c-1.071.134-2.11.034-3.146.034-.604 0-1.172-.067-1.775-.134 0 0-2.912-.433-4.854-1.066-3.315-1.035-1.841-1.169.234-1.035-.1-.034 1.171.133 2.445.166 1.271.1 2.576.1 2.576.1.469.034.972.1 1.44.1.97-.033 1.975.1 2.945-.033l1.474-.133.401-.1c-.368-.567-.77-1.135-1.138-1.702l-1.138-1.802-.702-1.233s-.102-.235-.302-.668c-.201-.4-.435-.934-.77-1.569-.033-.033-.033-.066-.066-.1-3.315-.433-6.662-1.033-9.944-1.868-1.003-.233-2.008-.633-3.011-.967-1.005-.366-2.009-.6-2.98-1.068-1.272-.633-2.544-1.167-3.815-1.802a4 4 0 0 0-.637-.066c-2.545-.167-5.122-.667-7.733-.334-2.61.2-5.289.769-7.9 1.602-2.61.833-5.189 2.002-7.432 3.637-2.208 1.601-4.05 3.836-4.25 6.438-.235 2.637 1.172 5.238 2.978 7.44 1.775 2.202 4.252 3.67 7.064 4.403 2.343.669 4.853 1.002 7.398 1.635 0-.033.033-.066.033-.066.034 0 .602.033 1.405.066.805.067 1.875.134 2.947.1h4.318s1.372.167 2.377.469c1.673.4 1.038.8 0 1.033m66.788-.607-1.171-1.433-1.037-1.568-1.875-2.969c-.267-.4-.502-.733-.768-1.133-3.047 2.402-6.46 4.402-10.274 5.603.1.5.2 1.067.3 1.667.169 1.368.202 2.802.202 2.802s-.067.201-.202.535c-.1.333-.233.7-.468 1-.703 1-.937.266-1.037-.267.034.067-.201-1.368-.201-1.368s0-1.2-.167-2.467c-.067-.502-.168-1.002-.235-1.402q-1.355.3-2.71.5c.033.969 0 1.935-.033 2.902-.1 1.435-.235 2.868-.535 4.303-.135.6-.235 1.167-.402 1.767 0 0-.068.167-.168.467-.134.268-.267.701-.502 1.135-.402.933-1.003 2.068-1.64 2.868-.837 1.067-1.305 1.467-1.505 1.5q-.101 0-.102-.1c-.066-.2.135-.633.402-1.233l2.543-10.64c0-.067.034-.134.034-.167.035-.9.035-1.767 0-2.668q-1.154.05-2.309 0c-.033.1-.066.233-.133.333-.202.535-.537 1.235-.837 1.902-.368.666-.703 1.335-1.005 1.835-.3.466-.535.8-.535.8s-.166.133-.435.4a4.3 4.3 0 0 1-1.003.633c-1.105.535-1.005-.167-.737-.767-.033 0 .2-.266.335-.666l.335-.734s.2-.268.469-.701c.266-.434.568-1.034.903-1.667.233-.533.502-1.068.668-1.502-2.341-.266-4.751-.933-6.893-2a24 24 0 0 1-2.777-1.701c-3.681 3.501-7.965 6.403-12.65 8.438q-1.808.75-3.613 1.3c-.235 1.402-.168 2.835.367 4.237.435 1.3 1.138 2.535 1.975 3.735l2.543 1.301c3.58 1.767 7.162 3.502 10.877 4.902.535.2 1.07.433 1.638.6 0 0 .603.267 1.507.635.435.2.903.433 1.438.667.468.166.972.366 1.507.533 3.178 1.2 1.84 1.3-.335 1 .133.033-1.172-.1-2.444-.467-1.271-.333-2.543-.7-2.543-.7-.502-.133-.97-.333-1.438-.533-3.214-1.202-6.292-2.635-9.37-4.137 3.881 3.67 8.6 6.605 13.62 8.672 2.676 1.102 5.421 1.935 8.231 1.768 2.845-.066 5.724-.566 8.5-1.233 5.255-1.268 10.307-3.237 14.557-6.105-4.483 1.402-9.102 2.268-13.687 2.868l-1.773.2s-.67.034-1.673.067c-1.004 0-2.242-.033-3.245-.067-3.449-.233-2.075-.7 0-1.066-.102 0 1.136-.2 2.408-.367 1.272-.233 2.543-.433 2.543-.433l1.474-.2c5.186-.667 10.34-1.635 15.191-3.369l2.812-1.135c.737-.833 1.372-1.7 1.84-2.635 1.138-2.166 1.205-4.668.937-7.07-.167-1-.402-1.968-.669-2.935a22 22 0 0 1-5.02-4.27m-53.115-54.371a52.5 52.5 0 0 0-6.96-2.57c-2.51-.734-5.12-1.302-7.73-1.535-2.643-.267-5.355-.2-7.796.668a7.17 7.17 0 0 0-3.079 2.002c-.87.901-1.305 2.07-1.706 3.338-.737 2.537-.604 5.273.133 7.877a22.6 22.6 0 0 0 1.907 4.54c.101.133.201.3.335.533.201.267.435.602.67.968.266.334.568.667.836 1.035.3.367.602.734.87 1.069.3.333.602.633.837.9.502.501.803.835.803.835.3.333.602.633.904.968.333.333.435.467 1.305 1.302 1.438 1.268 2.943 2.536 4.583 3.505.77.533 1.673.933 2.543 1.335l2.644 1.268 2.778.933c.937.302 1.84.635 2.81.835a78 78 0 0 0 7.362 1.435 10 10 0 0 1-.502-1.301 8.7 8.7 0 0 1-.335-1.335 63 63 0 0 1-4.215-1.469 93 93 0 0 1-8.735-3.838c-1.405-.702-2.81-1.402-4.182-2.17l-1.773-.968s-2.41-1.569-3.983-2.87c-2.71-2.137-1.305-1.769.603-.869-.102-.066 1.037.502 2.175 1.102l2.342 1.135 2.008 1.102a159 159 0 0 0 4.082 2.07 89 89 0 0 0 8.4 3.671c1.136.434 2.308.834 3.446 1.202.067-.033.1-.033.167.033.268.234.637 1.369 1.473 2.637-.068-.167.835 1.368 2.007 2.937.57.768 1.138 1.568 1.573 2.27l.669 1.001.67 1.134.335.568.535.802c.335.566.703 1.133 1.07 1.668 1.54 2.203 3.045 4.338 4.92 6.108 1.84 1.769 3.948 3.204 6.29 4.105 2.31.935 4.886 1.302 7.43 1.269 2.576 0 5.118-.467 7.528-1.335 3.28-1.135 6.292-3.037 9.068-5.274l-.033.034.368-.3c.034-.034.067-.034.1-.069l.804-.7.033-.033c.1-.067.2-.167.268-.233l.134-.1c.703-.669 1.438-1.302 2.108-1.97 1.907-1.869 3.647-3.805 5.453-5.942.47-.5.905-.967 1.272-1.435.168-.233.335-.467.47-.7.067-.1.133-.2.167-.302l.033-.066-.302-.167a7 7 0 0 0-1.605-.667c-.57-.2-1.205-.368-1.875-.535l-1.003-.233a9 9 0 0 0-.903-.233 20 20 0 0 0-3.749-.367c-2.543-.033-5.12.433-7.663 1.102a55 55 0 0 0-3.813 1.166c-.637.202-1.239.435-2.009.635-.703.2-1.405.367-2.075.5-1.371.269-2.743.469-4.081.702l-2.009.3c-.903.133-1.773.033-2.543-.133-1.54-.334-2.878-.969-4.115-1.669-1.272-.701-2.443-1.57-3.515-2.336-2.208-1.602-4.35-3.105-6.625-3.905-1.338-.435-2.643-.602-3.948-.402-.067 0-.1.033-.169-.033-.3-.167-.701-.4-.936-.834-.234-.401-.3-1.001.435-1.77.033 0 .135-.133.235-.133.1-.033.2-.033.335-.033-1.54-1.569-2.912-3.304-4.017-5.207-.568-1.035-1.238-2.035-1.638-3.203l-.67-1.67-.469-1.769c-.368-1.135-.401-2.37-.535-3.605-.068-1.201.034-2.403.1-3.571.2-1.602.502-3.204.87-4.74m49.827-5.02c-.603-2.202-1.607-4.237-2.845-6.104l-.903-1.201c-.269-.367-.57-.667-.872-1 0 0-.167-.167-.435-.502-.267-.333-.602-.833-1.103-1.333-.502-.534-1.105-1.135-1.707-1.769a113 113 0 0 0-4.653-3.468c-2.777-2.303-4.819-5.005-7.329-7.24-1.238-1.1-2.578-2.068-4.016-2.535-1.339-.4-2.812.067-4.25.868-2.812 1.667-5.255 4.202-7.497 6.805-2.21 2.635-4.285 5.437-6.092 8.339a54 54 0 0 0-2.041 3.903c-.269.633-.67 1.702-1.039 2.802-.3.901-.601 1.801-.768 2.501l-.335 1.169c-.135.4-.302.833-.402 1.266l-.535 1.902c-.301 1.035-.47 2.102-.703 3.137-.168 1.033-.335 2.101-.435 3.168-.335 4.17.837 8.207 3.078 11.808 1.64 2.537 3.715 4.772 6.059 6.739.1.033.2.033.301.066 2.544.902 4.685 2.369 6.694 3.77.166-.533.568-1.033 1.205-1.1.77.067 1.136.734 1.371 1.234v.066c0 .167-.1.367-.268.434-.1.033-.2.033-.333-.034.033.167.066.335.066.469 0-.034 0 .133-.033.366.2.167.402.3.635.434-.033-.234 0-.5.067-.7.168-.569.603-1.102 1.271-1.169.77.034 1.139.734 1.34 1.202 0 .033.034.033 0 .067 0 .2-.068.366-.235.433h-.033c-.067.033-.202.033-.335 0 .067.133.1.3.1.467 0-.034 0 .133-.1.433 0 .1-.1.267-.233.367q.4.25.803.401c.033-.133.033-.301.1-.435.167-.566.568-1.1 1.238-1.166.77.033 1.137.7 1.372 1.2v.066c0 .169-.1.369-.268.435-.1.034-.2.034-.334-.033.034.167.067.333.067.5 0-.033.033.033 0 .167h.033c.602.1 1.004.133 1.574.033l2.041-.333c.2-.034.367-.067.535-.1.034-.1.034-.2.067-.267-.1.033-.268.1-.435.033-.1-.066-.202-.166-.235-.401 0-.034-.033-.067 0-.1.202-.5.57-1.167 1.34-1.2.668.066 1.103.6 1.272 1.166.033.134.033.269.066.435.234-.066.502-.1.737-.166a1.14 1.14 0 0 1-.268-.835.56.56 0 0 1 .1-.434c-.1.034-.267.1-.435.034-.1-.034-.2-.167-.267-.4v-.1c.233-.467.602-1.169 1.372-1.202.668.067 1.07.6 1.238 1.168.133.367.133.767 0 1.167.033 0-.033.1-.133.267a8 8 0 0 0 .936-.267l.267-.067.268-.466c-.033 0-.033 0-.066-.034a1.1 1.1 0 0 1-.369-.933c0-.2.067-.335.134-.468-.1.066-.3.133-.469.066-.1-.066-.2-.166-.233-.4v-.1c.2-.5.568-1.166 1.338-1.233.535.067.87.4 1.105.8.334-.667.635-1.368 1.004-2.002.535-1.033 1.036-2.068 1.405-3.168.368-1.068.803-2.135 1.171-3.237l.77-3.335c.502-2.235.77-4.57.937-6.838a29 29 0 0 0 0-3.437c-.033-.766-.1-1.2-.167-1.835 0 0-.201-2.701-.936-4.536-.302-.767-.537-1.234-.637-1.567-.133-.3-.1-.435.033-.402.235.034.937.602 1.574 1.535-.034-.1.67 1.035 1.138 2.335.468 1.269.702 2.635.702 2.635l.135.935.066 1.234c.034 1.201.034 2.368-.066 3.57-.169 2.368-.435 4.67-.972 6.971l-.837 3.47-1.205 3.302c-.366 1.135-.936 2.168-1.438 3.235-.535 1.002-.97 2.068-1.607 3.003.97-.3 1.975-.6 2.979-.868.435-.1.905-.2 1.373-.3 3.715-6.237 6.693-12.908 7.998-19.948.837-4.57.737-9.207-.568-13.61m-35.61-8.94c.067-.1-.57.968-1.205 2.101a63 63 0 0 0-1.172 2.269l-.736 1.268c-.904 1.702-1.707 3.402-2.344 5.17a33 33 0 0 0-.87 2.902c0 .035-.033.035-.066.101-.369.3-1.172.767-1.74-.401 0 0-.034-.1-.034-.167a33 33 0 0 1 .937-3.068 44 44 0 0 1 2.477-5.404l.87-1.535s1.64-2.435 3.046-3.903c2.375-2.535 1.874-1.167.837.667m18.708 34.693c.669.067 1.07.633 1.239 1.2.133.335.133.768 0 1.168 0-.033-.169.567-.704.8-.233.1-.67.167-.97-.1-.301-.266-.368-.633-.368-.933 0-.2.067-.333.133-.433-.1.033-.266.1-.435.033-.133-.067-.2-.167-.268-.402v-.1c.235-.5.603-1.166 1.373-1.233m-3.883-1.002c.202-.5.57-1.2 1.34-1.233.668.067 1.103.633 1.272 1.167.1.368.133.801 0 1.201 0-.033-.202.534-.737.767-.235.133-.637.2-.937-.067a1.1 1.1 0 0 1-.368-.933c0-.2.033-.333.1-.467-.1.067-.268.134-.435.067-.1-.067-.202-.167-.235-.435 0 0-.033-.067 0-.067m0 3.77c.202-.5.57-1.166 1.34-1.233.668.067 1.103.633 1.272 1.2.1.333.133.767 0 1.168 0-.033-.202.534-.737.767-.235.133-.637.2-.937-.067a1.1 1.1 0 0 1-.368-.935c0-.2.033-.333.1-.466-.1.066-.268.133-.435.066-.1-.066-.202-.166-.235-.433 0 0-.033-.067 0-.067m-2.71-5.036c.167-.567.602-1.102 1.238-1.169.804.034 1.172.735 1.372 1.202v.1c0 .167-.067.333-.233.4v.033l-.034-.033c-.068.033-.201.033-.335 0 .067.133.1.3.1.467 0-.034 0 .133-.1.433-.066.268-.435.735-.903.668-.402-.066-.737-.3-.905-.566a1.7 1.7 0 0 1-.267-.535c-.066-.334-.033-.7.067-1m0 3.77c.167-.569.602-1.102 1.238-1.169.804.034 1.172.734 1.372 1.202v.1c0 .167-.067.333-.233.4v.033h-.034c-.068.034-.201.034-.335-.033.067.133.1.3.1.467 0-.034 0 .166-.1.433-.066.3-.435.733-.903.667-.402-.067-.737-.267-.905-.567-.2-.267-.267-.533-.267-.533a2.05 2.05 0 0 1 .067-1m-2.945-2.57c.167-.567.568-1.1 1.238-1.167.77.033 1.137.733 1.372 1.233v.067c0 .167-.1.335-.268.402v.033c-.1.033-.2.033-.334-.033.034.133.1.3.067.466 0-.033.033.167-.067.434-.068.3-.47.733-.905.666-.401-.066-.735-.266-.936-.566-.167-.267-.234-.5-.234-.5-.068-.367-.033-.7.067-1.035m-2.612 2.168c.169-.567.57-1.1 1.239-1.167.77.034 1.171.7 1.373 1.2v.067c0 .167-.1.368-.268.435-.1.033-.2.033-.335-.033.066.166.101.333.066.466 0-.033.035.167-.066.467-.067.267-.435.733-.904.633a1.2 1.2 0 0 1-.903-.533 2 2 0 0 1-.268-.533 2 2 0 0 1 .066-1.002m.035 3.203c-.101.034-.201.034-.368-.033.067.133.1.3.1.467 0-.034.033.166-.067.433-.066.3-.468.733-.903.667-.402-.067-.737-.267-.938-.567-.2-.267-.234-.5-.234-.5-.066-.367-.066-.7.067-1.033.167-.569.568-1.102 1.238-1.169.77.034 1.139.734 1.372 1.235v.067c0 .167-.1.333-.267.433m2.175 1.134c.067.133.1.3.1.466 0-.033 0 .169-.1.469-.066.266-.435.7-.903.633-.402-.067-.737-.267-.905-.567a1.7 1.7 0 0 1-.267-.501c-.066-.367-.033-.7.067-1.034.167-.533.602-1.1 1.238-1.166.804.033 1.172.733 1.372 1.233v.067a.49.49 0 0 1-.233.433h-.034c-.068.033-.201.033-.335-.033m2.812 1.701h-.035c-.1.034-.2.034-.333-.033.066.133.1.3.1.467 0-.034 0 .166-.1.466-.067.269-.435.702-.905.635a1.3 1.3 0 0 1-.904-.568c-.2-.267-.266-.5-.266-.5-.067-.367-.034-.7.066-1 .167-.567.602-1.135 1.239-1.202.803.067 1.171.735 1.371 1.235v.067c0 .167-.066.367-.233.433m.1-3.77a.4.4 0 0 1-.335-.033c.067.133.1.3.067.468 0-.033.033.167-.067.467-.067.267-.435.7-.903.633-.402-.066-.737-.266-.904-.566-.201-.267-.268-.5-.268-.5a2 2 0 0 1 .067-1.002c.168-.567.57-1.133 1.238-1.2.803.067 1.172.733 1.372 1.233v.067c0 .167-.1.367-.267.433m.435 1.935c.167-.566.602-1.133 1.238-1.2.804.067 1.172.734 1.372 1.234v.066c0 .167-.067.367-.233.434h-.034c-.068.033-.201.033-.335-.034.067.134.1.302.1.469 0-.034 0 .166-.1.466-.066.267-.435.7-.903.634-.402-.067-.737-.267-.905-.567-.2-.267-.267-.5-.267-.5a2 2 0 0 1 .067-1.002m2.377 4.304h-.034c-.068.033-.201.033-.335-.034.067.167.1.334.1.467 0-.033 0 .167-.1.468-.066.267-.435.734-.903.634-.402-.067-.737-.267-.905-.567-.2-.268-.267-.502-.267-.502-.066-.366-.033-.7.067-1 .167-.566.602-1.135 1.238-1.201.804.066 1.172.735 1.372 1.235v.066c0 .167-.067.367-.233.434m2.843-1.835s-.2.568-.735.801c-.235.1-.637.2-.972-.1-.266-.233-.368-.635-.333-.935 0-.166.033-.333.1-.433-.1.067-.268.133-.435.033-.102-.033-.202-.133-.235-.4-.033 0-.033-.066 0-.1.202-.466.57-1.168 1.338-1.201.67.066 1.105.601 1.272 1.168.102.367.102.8 0 1.167m2.545-1.5s-.202.566-.737.8c-.235.1-.636.2-.936-.067a1.16 1.16 0 0 1-.369-.967c0-.168.034-.301.1-.435-.1.067-.268.134-.435.034-.1-.034-.201-.134-.235-.4 0 0-.033-.067 0-.1.202-.467.57-1.167 1.34-1.2.669.066 1.104.6 1.272 1.166.1.367.133.8 0 1.169m2.51-1.302c.033-.033-.168.567-.703.8-.235.1-.67.2-.97-.1-.302-.267-.369-.633-.369-.933 0-.2.067-.334.134-.434-.1.034-.269.1-.435.034-.1-.067-.2-.167-.269-.4v-.1c.235-.502.604-1.169 1.374-1.202.668.033 1.07.6 1.238 1.168.133.334.133.767 0 1.167m55.678-20.877c-.033-1.47-.168-2.838-.57-4.173-.333-1.302-.97-2.503-1.873-3.405-.402-.433-.903-.768-1.438-1.035a42 42 0 0 0-.302.502c-1.707 3.003-1.54 1.568-.937-.469-.066.1.335-1.068.702-2.303.335-1.202.57-2.437.57-2.437.067-.3.133-.568.2-.835l.067-.433v-.1l.068-.535c.067-.467.067-.935.033-1.368-.101-1.77-1.138-3.072-2.845-3.705-1.673-.635-3.681-.769-5.621-.835-3.882-.067-7.764.768-11.245 2.47s-6.592 4.173-9.269 7.043c-2.343 2.572-4.351 5.408-6.125 8.413.1 2.704-.133 5.375-.635 7.945-1.238 6.309-3.648 12.185-6.693 17.694a19 19 0 0 0 1.673-1.135c.77-.602 1.505-1.27 2.242-1.904l7.832-7.611a286 286 0 0 0 3.211-3.472l1.172-1.302s2.042-2.003 3.58-3.338c.972-.868 1.473-1.235 1.673-1.235.302-.033-.166.902-.936 1.97.1-.067-.67.967-1.472 1.968l-1.607 2.07-3.078 3.372a132 132 0 0 1-3.648 3.805c-2.275 2.305-4.619 4.575-7.162 6.643l.637-.233c.903-.3 1.806-.768 2.71-1.135.535-.233 1.036-.5 1.54-.768 0 0 2.04-.834 4.516-1.835 1.172-.535 1.774-.702 1.975-.635.302.066-.468.768-1.54 1.57.102-.067-.936.666-2.041 1.335-1.104.7-2.275 1.368-2.275 1.368-.469.2-.904.433-1.372.635-.568.233-1.105.5-1.64.733.535.1 1.072.167 1.607.302 1.338.367 2.676.633 4.15 1.202q.55.2 1.103.5c.202.1.368.2.535.333.168.1.503.368.737.602.468.466.703 1.135.636 1.835 0 .168-.033.368-.101.568 3.916-1.102 7.663-2.938 10.91-5.408 3.145-2.37 5.89-5.34 8.098-8.645l1.573-2.539c.369-.866.837-1.668 1.037-2.603l.235-.768c.067-.2.1-.4.133-.6l.235-1.269s.067-.268.134-.668c.066-.433.166-1.035.301-1.735.234-1.403.469-3.238.87-4.775.635-2.537 1.239-3.203 1.405-2.87.1.167.134.567.167 1.135-.033.533-.033 1.235-.033 2.037.033-.167 0 1.668.033 3.605 0 .968-.033 1.97-.067 2.736 0 .769-.1 1.302-.1 1.302l-.235 1.437c-.133.5-.2.7-.601 2.001-.167.535-.435 1.035-.67 1.537-.234.5-.469 1.035-.735 1.435-.57.902-1.072 1.837-1.707 2.67-2.042 2.972-4.518 5.642-7.295 7.945 3.212-1.033 6.492-2.002 9.938-2.537 1.172-.2 2.375-.3 3.58-.366.102-.2.235-.367.335-.569 2.61-5.073 3.582-10.981 3.749-16.756.033-1.47.033-2.905-.034-4.374m-25.031 14.387c-.1.1-.402.402-.67.635-.267.267-.535.5-.535.5s-.267.235-.569.468c-.268.267-.67.467-.803.567-.235.133-.468.033-.803-.2.033-.467.033-.7.201-.835.1-.067.402-.2.669-.467.268-.233.535-.433.535-.433l.503-.435c.233-.267.535-.533.635-.633.167-.167.402-.1.837 0 .133.4.166.666 0 .833"/><path fill="#041e42" d="M302.983 158.015c-2.02.522-6.205 1.125-10.078 1.605-3.312-.438-10.58-2.5-10.455-5.313.333-4.292 7.226-11.834 10.995-12.25 3.75-.417 11.058 8.458 12.6 11.021-1.875 3.125-1.187 3.125-3.062 4.937"/><path fill="#d69a2d" d="M301.902 158.297c-1.81.52-5.475 1.125-8.932 1.603-2.935-.437-9.285-2.103-9.182-4.917.125-.458 6.247-10.77 9.599-11.186 3.351-.417 9.785 9.041 11.118 9.436-1.665 3.125-.937 3.25-2.603 5.064"/></svg>