<svg xmlns="http://www.w3.org/2000/svg" width="600" height="300" fill="none" viewBox="0 0 600 300"><path fill="#52c9e8" d="M0 300h600V0H0z"/><path fill="#002d5d" d="M0 0h336L234 150l102 150H0z"/><path fill="#fff" d="m125.946 83.946-20.665 49.89 20.353 21.419 29.537-.754z"/><path fill="#fff" d="m125.946 215.946 20.665-49.889-20.352-21.419-29.537.754z"/><path fill="#fff" d="m172.615 103.277-49.889 20.665-.754 29.537 21.419 20.353z"/><path fill="#fff" d="m79.277 196.615 49.89-20.665.754-29.537-21.419-20.352z"/><path fill="#fff" d="m172.615 196.615-20.665-49.889-29.537-.754-20.352 21.419z"/><path fill="#fff" d="m79.277 103.277 20.665 49.89 29.537.754 20.353-21.419z"/><path fill="#fff" d="m59.946 149.946 49.89 20.665 21.419-20.352-.754-29.537z"/><path fill="#fff" d="m191.946 149.946-49.889-20.665-21.419 20.353.754 29.537z"/></svg>