<svg xmlns="http://www.w3.org/2000/svg" width="600" height="300" fill="none" viewBox="0 0 600 300"><path fill="#000" d="M0 0h600v300H0z"/><path fill="#eaaa00" d="M0 300V25l50 25v250h50V0h50v300h50V0h50v300h50V0h50v300h50V0h50v300h50V0h50v300h50v-25L50 0v50l500 250z"/><path fill="#fff" d="M300 0h150v150h150V75H300z"/><path fill="#9d2235" d="M450 0h150v75H300v75h150z"/><path fill="#9d2235" d="M450 139.5c3.395 0 6.651-1.011 9.051-2.812s3.749-4.242 3.749-6.788v-4.8h12.4c3.395 0 6.651-1.011 9.051-2.812S488 118.046 488 115.5s-1.349-4.988-3.749-6.788c-2.4-1.801-5.656-2.812-9.051-2.812h-12.4V84.6h79.6v9.3c0 2.546 1.349 4.988 3.749 6.788 2.401 1.801 5.656 2.812 9.051 2.812s6.651-1.011 9.051-2.812S568 96.446 568 93.9v-9.3h11.2c3.395 0 6.651-1.011 9.051-2.812S592 77.546 592 75H450z"/><path fill="#fff" d="M450 139.5c-3.395 0-6.651-1.011-9.051-2.812s-3.749-4.242-3.749-6.788v-4.8h-12.4c-3.395 0-6.651-1.011-9.051-2.812S412 118.046 412 115.5s1.349-4.988 3.749-6.788c2.4-1.801 5.656-2.812 9.051-2.812h12.4V84.6h-79.6v9.3c0 2.546-1.349 4.988-3.749 6.788-2.401 1.801-5.656 2.812-9.051 2.812s-6.651-1.011-9.051-2.812S332 96.446 332 93.9v-9.3h-11.2c-3.395 0-6.651-1.011-9.051-2.812S308 77.546 308 75h142zM450 10.5c3.395 0 6.651 1.011 9.051 2.812s3.749 4.242 3.749 6.788v4.8h12.4c3.395 0 6.651 1.011 9.051 2.812S488 31.954 488 34.5s-1.349 4.988-3.749 6.788-5.656 2.812-9.051 2.812h-12.4v21.3h79.6v-9.3c0-2.546 1.349-4.988 3.749-6.788s5.656-2.812 9.051-2.812 6.651 1.011 9.051 2.812S568 53.554 568 56.1v9.3h11.2c3.395 0 6.651 1.011 9.051 2.812S592 72.454 592 75H450z"/><path fill="#9d2235" d="M450 10.5c-3.395 0-6.651 1.011-9.051 2.812S437.2 17.554 437.2 20.1v4.8h-12.4c-3.395 0-6.651 1.011-9.051 2.812S412 31.954 412 34.5s1.349 4.988 3.749 6.788 5.656 2.812 9.051 2.812h12.4v21.3h-79.6v-9.3c0-2.546-1.349-4.988-3.749-6.788S348.195 46.5 344.8 46.5s-6.651 1.011-9.051 2.812S332 53.554 332 56.1v9.3h-11.2c-3.395 0-6.651 1.011-9.051 2.812S308 72.454 308 75h142z"/><path fill="#fff" d="M0 150h150v150h150v-75H0z"/><path fill="#9d2235" d="M150 150h150v75H0v75h150z"/><path fill="#9d2235" d="M150 289.5c3.395 0 6.651-1.011 9.051-2.812s3.749-4.242 3.749-6.788v-4.8h12.4c3.395 0 6.651-1.011 9.051-2.812S188 268.046 188 265.5s-1.349-4.988-3.749-6.788c-2.4-1.801-5.656-2.812-9.051-2.812h-12.4v-21.3h79.6v9.3c0 2.546 1.349 4.988 3.749 6.788 2.401 1.801 5.656 2.812 9.051 2.812s6.651-1.011 9.051-2.812S268 246.446 268 243.9v-9.3h11.2c3.395 0 6.651-1.011 9.051-2.812S292 227.546 292 225H150z"/><path fill="#fff" d="M150 289.5c-3.395 0-6.651-1.011-9.051-2.812s-3.749-4.242-3.749-6.788v-4.8h-12.4c-3.395 0-6.651-1.011-9.051-2.812S112 268.046 112 265.5s1.349-4.988 3.749-6.788c2.4-1.801 5.656-2.812 9.051-2.812h12.4v-21.3H57.6v9.3c0 2.546-1.349 4.988-3.749 6.788-2.4 1.801-5.656 2.812-9.051 2.812s-6.65-1.011-9.051-2.812S32 246.446 32 243.9v-9.3H20.8c-3.395 0-6.65-1.011-9.051-2.812S8 227.546 8 225h142zM150 160.5c3.395 0 6.651 1.011 9.051 2.812s3.749 4.242 3.749 6.788v4.8h12.4c3.395 0 6.651 1.011 9.051 2.812S188 181.954 188 184.5s-1.349 4.988-3.749 6.788c-2.4 1.801-5.656 2.812-9.051 2.812h-12.4v21.3h79.6v-9.3c0-2.546 1.349-4.988 3.749-6.788 2.401-1.801 5.656-2.812 9.051-2.812s6.651 1.011 9.051 2.812S268 203.554 268 206.1v9.3h11.2c3.395 0 6.651 1.011 9.051 2.812S292 222.454 292 225H150z"/><path fill="#9d2235" d="M150 160.5c-3.395 0-6.651 1.011-9.051 2.812s-3.749 4.242-3.749 6.788v4.8h-12.4c-3.395 0-6.651 1.011-9.051 2.812S112 181.954 112 184.5s1.349 4.988 3.749 6.788c2.4 1.801 5.656 2.812 9.051 2.812h12.4v21.3H57.6v-9.3c0-2.546-1.349-4.988-3.749-6.788-2.4-1.801-5.656-2.812-9.051-2.812s-6.65 1.011-9.051 2.812S32 203.554 32 206.1v9.3H20.8c-3.395 0-6.65 1.011-9.051 2.812S8 222.454 8 225h142z"/></svg>