<svg xmlns="http://www.w3.org/2000/svg" width="600" height="300" fill="none" viewBox="0 0 600 300"><path fill="#fff" d="M0 300h600V0H0z"/><path fill="#bf0a30" d="M0 150h600V0H0z"/><path fill="#002868" fill-rule="evenodd" d="M0 0h150.019v300H0z" clip-rule="evenodd"/><path fill="#ffca00" fill-rule="evenodd" d="M23 70.97c-9.457 5.28-11.172 7.483-16.354 11.533l11.493.24c-.137 1.07-2.646 14.396-2.884 15.337 8.653-5.75 12.759-8.386 24.565-11.712 4.69-1.303-.369-6.069-.857-7.337-3.207 1.448-5.674 3.167-8.038 5.273" clip-rule="evenodd"/><path stroke="#002868" stroke-width=".756" d="M23 70.97c-9.457 5.28-11.172 7.483-16.354 11.533l11.493.24c-.137 1.07-2.646 14.396-2.884 15.337 8.653-5.75 12.759-8.386 24.565-11.712 4.69-1.303-.369-6.069-.857-7.337-3.207 1.448-5.674 3.167-8.038 5.273"/><path fill="#ffca00" fill-rule="evenodd" stroke="#002868" stroke-width=".756" d="M31.078 84.193c17.63-16.15 75.961-15.763 92.208.499.524-.189 11.034-17.92 10.51-17.732-31.897-22.345-89.05-18.517-113.038-.883l.284 1.053z" clip-rule="evenodd"/><path stroke="#002868" stroke-linecap="round" stroke-linejoin="round" stroke-width="2.363" d="M34.108 77.185c-.087-.23-5.126-9.612-5.126-9.612l8.247 7.267-1.919-10.619 5.4 9.086M64.017 60.98c.036-2.868 2.335-3.061 3.917-2.565.928.708 1.416 3.015.303 4.33l-2.233 1.904c-.773.966-1.628 2.068-1.573 3.282l5.047-.193m3.7-9.82c-.922.45-1.232 1.162-1.446 2.217-.137 1.213-.076 4.082.172 5.268.221.883.441 1.462 1.104 2.041.772.442 1.627.36 2.096.056.634-.359 1.076-1.104 1.296-1.986.359-1.131.331-4.441.083-5.655-.23-.809-.515-1.452-1.159-1.93-.772-.332-1.677-.26-2.146-.012M97.28 60.672c.961-.401 1.691-.892 2.492-1.833l-1.418 9.989M104.661 60.16a892 892 0 0 0 4.798 1.406c-2.283 2.852-4.156 5.386-5.682 8.607M113.549 62.65l4.641 2.289c-2.756 1.97-5.022 4.448-7.027 7.346M125.316 68.654l-3.04-1.782-2.689 3.64c1.932-.38 3.23.203 3.785 1.956.341 2.581-1.206 4.055-2.879 4.1-1.759-.04-2.667-1.005-2.915-3.033M43.293 72.007s.294-10.844.403-10.832c.048-.439 6.124 8.99 6.124 8.99m-6.328-2.02 4.128-1.215"/><path fill="#ffca00" fill-rule="evenodd" d="m19.397 174.32 6.03.081-.19-26.128 11.56 26.266h6.275v-38.431l-6.125.082.093 24.298-10.805-24.189-6.745.081zM129.62 148.301h6.424l-.078-3.386c-.182-2.188-1.008-4.959-3.166-7.009-1.437-1.598-3.137-2.501-5.343-3.104-1.872-.735-6.457-.519-8.784.783-2.752 1.537-5.076 4.278-6.628 8.694-2.036 7.436-1.116 16.748.174 21.129 1.536 4.644 3.945 7.123 7.151 8.686 1.996.67 5.477 1.182 8.735.3 3.549-1.343 5.172-3.673 6.581-6.159.856-1.682 1.838-4.908 1.666-8.482l-6.702.081c.005 1.309-.26 2.818-.592 4.126-.759 1.829-1.93 3.053-4.842 3.052-1.951-.002-3.27-.805-4.362-2.245-1.474-1.423-1.86-4.609-1.959-5.509-.444-4.067-.456-8.092.715-12.335.447-1.714 1.334-3.3 2.495-4.072 1.881-1.02 3.827-.869 4.928-.547 1.445.446 2.778 1.526 3.194 2.956.323 1.344.375 2.162.393 3.041" clip-rule="evenodd"/><path fill="#fff" fill-rule="evenodd" d="m92.332 175.582-14.398-11.189-14.778 11.12 5.856-17.415-14.982-11.024 18.017.427 5.518-17.933 5.28 17.678 18.392-.06-14.754 10.5z" clip-rule="evenodd"/><path stroke="#002868" stroke-width=".756" d="M31.129 84.203c.634.648 1.888.487 3.618.16 1.38-.168 2.955-.23 4.193-.374 2.05.168 3.225.647 2.382 1.62"/><path fill="#ffca00" fill-rule="evenodd" d="M131.444 71.54c9.456 5.28 11.171 7.483 16.354 11.533l-11.494.24c.137 1.071 2.646 14.397 2.884 15.337-8.653-5.75-12.759-8.386-24.565-11.712-4.691-1.303.539-6.153 1.027-7.42 3.207 1.447 5.927 3.166 7.868 5.356" clip-rule="evenodd"/><path stroke="#002868" stroke-width=".756" d="M131.444 71.54c9.456 5.28 11.171 7.483 16.354 11.533l-11.494.24c.137 1.071 2.646 14.397 2.884 15.337-8.653-5.75-12.759-8.386-24.565-11.712-4.691-1.303.539-6.153 1.027-7.42 3.207 1.447 5.927 3.166 7.868 5.356"/><path stroke="#002868" stroke-width=".756" d="M123.18 84.773c-1.061.49-2.157.274-3.483.16-1.258-.184-2.685-.398-4.098-.446-2.369.017-3.225 1.006-2.477 1.692"/><path stroke="#002868" stroke-linecap="round" stroke-linejoin="round" stroke-width="1.702" d="M78.646 61.63c1.83.032 3.6.104 3.6.104M84.268 59.237l-.213 8.725m4.011.396c.51-6.263-.309-6.487-3.334-6.473"/><path stroke="#002868" stroke-linecap="round" stroke-linejoin="round" stroke-width="1.702" d="m80.074 58.92-.135 7.254c-.02 1.376.409 1.768 1.606 1.768"/><path stroke="#002868" stroke-linecap="round" stroke-linejoin="round" stroke-width="2.363" d="m49.139 59.869 4.483 4.549.81 4.94m1.753-11.052-2.457 6.33"/><path fill="#ffca00" fill-rule="evenodd" d="M23.381 234.403c-9.456-5.164-11.17-7.318-16.354-11.278l11.494-.235c-.137-1.047-2.646-14.078-2.884-14.997 8.653 5.623 12.759 8.2 24.565 11.453 4.69 1.273-.37 5.934-.857 7.173-3.207-1.415-5.674-3.096-8.038-5.156" clip-rule="evenodd"/><path stroke="#002868" stroke-width=".756" d="M23.381 234.403c-9.456-5.164-11.17-7.318-16.354-11.278l11.494-.235c-.137-1.047-2.646-14.078-2.884-14.997 8.653 5.623 12.759 8.2 24.565 11.453 4.69 1.273-.37 5.934-.857 7.173-3.207-1.415-5.674-3.096-8.038-5.156"/><path fill="#ffca00" fill-rule="evenodd" stroke="#002868" stroke-width=".756" d="M31.46 221.472c17.63 15.792 75.961 15.415 92.207-.488.525.185 11.035 17.524 10.511 17.34-31.897 21.851-89.05 18.107-113.038.863l.284-1.029z" clip-rule="evenodd"/><path stroke="#002868" stroke-width=".756" d="M31.51 221.463c.634-.635 1.888-.477 3.618-.156 1.38.163 2.955.225 4.193.364 2.05-.163 3.225-.633 2.382-1.584"/><path fill="#ffca00" fill-rule="evenodd" d="M131.825 233.845c9.456-5.164 11.171-7.317 16.354-11.278l-11.494-.235c.137-1.047 2.646-14.077 2.884-14.997-8.653 5.623-12.759 8.201-24.565 11.453-4.691 1.274.538 6.017 1.027 7.257 3.207-1.416 5.927-3.097 7.868-5.239" clip-rule="evenodd"/><path stroke="#002868" stroke-width=".756" d="M131.825 233.845c9.456-5.164 11.171-7.317 16.354-11.278l-11.494-.235c.137-1.047 2.646-14.077 2.884-14.997-8.653 5.623-12.759 8.201-24.565 11.453-4.691 1.274.538 6.017 1.027 7.257 3.207-1.416 5.927-3.097 7.868-5.239"/><path stroke="#002868" stroke-width=".756" d="M123.561 220.905c-1.061-.48-2.157-.268-3.483-.156-1.258.179-2.685.389-4.098.435-2.369-.016-3.225-.983-2.477-1.654"/><path stroke="#002868" stroke-linecap="round" stroke-linejoin="round" stroke-width="2.363" d="M77.043 242.182c.76-2.606 2.49-2.287 4.033-1.93 1.24.85 1.417 3.168.233 4.516l-2.172 1.654c-.918.61-1.83 1.742-1.796 3.007l5.26-.104M71.732 241.83c.953-.518 1.182-.723 1.912-1.783l-.408 9.423"/><path stroke="#002868" stroke-linecap="round" stroke-width="2.363" d="M60.131 237.685c-.002.057-1.603 9.843-1.672 10.243l5.096.72"/><path stroke="#002868" stroke-linecap="round" stroke-linejoin="round" stroke-width="2.363" d="m54.148 247.406 1.569-10.674"/><path stroke="#002868" stroke-linecap="round" stroke-width="2.363" d="m35.943 241.81 3.888-9.871c1.165.584 2.665.814 3.96 1.968.84 1.397.452 4.262-1.955 4.534-1.327-.177-2.435-.819-3.598-1.346"/><path stroke="#002868" stroke-linecap="round" stroke-linejoin="round" stroke-width="2.332" d="M99.538 239.811c.769-.747 1.292-1.501 1.731-2.729l1.988 10.478"/><path stroke="#002868" stroke-linecap="round" stroke-linejoin="round" stroke-width="2.363" d="M104.025 236.796c.125-.032 5.089-1.768 5.089-1.768-.228 3.799-.299 7.446.176 10.818M111.722 234.129l5.09-1.992c-.219 3.853-.457 7.954.251 10.844M123.816 230.139c-.582-.962-1.47-1.315-2.719-.987-1.158 1.016-1.373 1.817-1.455 3.053.047 1.532.469 3.044 1.164 4.395.477 1.26 1.509 2.16 2.286 2.357.88.325 1.539.242 2.244-.369.539-.679.784-1.819.734-2.678-.168-1.141-.682-2.174-1.845-2.779-.9-.369-1.272-.444-2.084-.099-1.234.729-1.458 2.078-1.275 3.454"/><path stroke="#002868" stroke-linecap="round" stroke-linejoin="round" stroke-width="1.702" d="M83.865 243.028c1.83-.085 3.601-.127 3.601-.127"/><path stroke="#002868" stroke-linecap="round" stroke-linejoin="round" stroke-width="1.702" d="m85.116 240.233.334 7.247c.069 1.374.522 1.738 1.716 1.66M88.663 240.157l1.005 8.671m4.028-.168c-.368-6.273-1.21-6.38-4.204-5.944"/><path stroke="#002868" stroke-linecap="round" stroke-linejoin="round" stroke-width="2.363" d="M26.85 237.403s7.789-8.187 7.865-8.101c.343-.306-1.53 11.227-1.53 11.227m-3.488-5.976 4.041 1.938"/><path stroke="#002868" stroke-linecap="round" stroke-width="2.363" d="M44.42 245.349c0-.058 2.836-10.591 2.836-10.591 1.215.295 2.484.473 3.644.885.811.266 2.044 1.27 1.568 2.891-.224.983-.681 1.857-1.376 2.392"/><path stroke="#002868" stroke-linecap="round" stroke-linejoin="round" stroke-width="2.363" d="m46.008 239.905 3.876.994c1.045.376 1.298 1.289 1.3 1.347.193.857-.46 4.552-.46 4.552"/></svg>