<svg xmlns="http://www.w3.org/2000/svg" width="600" height="300" fill="none" viewBox="0 0 600 300"><g clip-path="url(#a)"><mask id="b" width="600" height="300" x="0" y="0" maskUnits="userSpaceOnUse" style="mask-type:luminance"><path fill="#fff" d="M0 300V0l600 56.25L461.538 150 600 243.75z"/></mask><g mask="url(#b)"><path fill="#fff" d="M600 56.25 0 0v300l600-56.25"/><path stroke="#c1133d" stroke-width="80" d="M600 56.25 0 0v300l600-56.25"/><path fill="#fff" d="M0 150h600Z"/><path stroke="#c1133d" stroke-width="40" d="M0 150h600"/></g><path fill="#001c5a" d="M.7 0v299.3L300 149.65z"/><path fill="#fff" d="M93.19 205.769c30.993 0 56.118-25.125 56.118-56.119 0-30.993-25.125-56.119-56.119-56.119-30.993 0-56.119 25.126-56.119 56.119 0 30.994 25.126 56.119 56.12 56.119"/><path fill="#c1133d" d="M93.188 187.063c20.662 0 37.412-16.75 37.412-37.413s-16.75-37.412-37.412-37.412-37.413 16.75-37.413 37.412c0 20.663 16.75 37.413 37.413 37.413"/><path fill="#fff" d="m253.488 149.65-11.119-3.613-1.806 5.56z"/><path fill="#fff" d="m253.488 149.65-11.119 3.613-1.806-5.56z"/><path fill="#fff" d="M245.408 160.769v-11.691h-5.846z"/><path fill="#fff" d="m245.407 160.769-6.872-9.458 4.729-3.436z"/><path fill="#fff" d="m245.409 138.531-6.872 9.459 4.729 3.436z"/><path fill="#fff" d="M245.408 138.531v11.691h-5.846z"/><path fill="#fff" d="m232.338 156.522 11.119-3.613-1.806-5.559z"/><path fill="#fff" d="m232.337 156.522 6.872-9.458 4.729 3.436z"/><path fill="#fff" d="m232.339 142.778 6.872 9.459 4.729-3.436z"/><path fill="#fff" d="m232.338 142.778 11.119 3.613-1.806 5.56zM178.664 149.65l-11.119-3.613-1.807 5.56z"/><path fill="#fff" d="m178.664 149.65-11.119 3.613-1.807-5.56z"/><path fill="#fff" d="M170.584 160.769v-11.691h-5.846z"/><path fill="#fff" d="m170.583 160.769-6.872-9.458 4.729-3.436z"/><path fill="#fff" d="m170.585 138.531-6.872 9.459 4.729 3.436z"/><path fill="#fff" d="M170.584 138.531v11.691h-5.846z"/><path fill="#fff" d="m157.514 156.522 11.119-3.613-1.807-5.559z"/><path fill="#fff" d="m157.513 156.522 6.872-9.458 4.729 3.436z"/><path fill="#fff" d="m157.515 142.778 6.872 9.459 4.729-3.436z"/><path fill="#fff" d="m157.514 142.778 11.119 3.613-1.807 5.56zM214.337 129.05l-11.567-1.697-.849 5.783z"/><path fill="#fff" d="m214.337 129.05-10.357 5.426-2.712-5.178z"/><path fill="#fff" d="m208.237 141.366-1.96-11.526-5.763.98z"/><path fill="#fff" d="m208.237 141.366-8.36-8.172 4.086-4.18z"/><path fill="#fff" d="m204.51 119.443-5.19 10.476 5.239 2.595z"/><path fill="#fff" d="m204.509 119.443 1.96 11.526-5.763.98z"/><path fill="#fff" d="m194.64 139.369 10.356-5.426-2.713-5.178z"/><path fill="#fff" d="m194.639 139.369 5.189-10.477 5.238 2.595z"/><path fill="#fff" d="m192.337 125.819 8.36 8.173 4.087-4.18z"/><path fill="#fff" d="m192.337 125.819 11.567 1.698-.849 5.784zM214.337 170.25l-10.357-5.426-2.712 5.178z"/><path fill="#fff" d="m214.337 170.25-11.567 1.698-.849-5.784z"/><path fill="#fff" d="m204.509 179.858 1.96-11.526-5.763-.98z"/><path fill="#fff" d="m204.51 179.858-5.19-10.477 5.239-2.595z"/><path fill="#fff" d="m208.237 157.934-8.36 8.173 4.086 4.18z"/><path fill="#fff" d="m208.237 157.934-1.96 11.526-5.763-.98z"/><path fill="#fff" d="m192.337 173.479 11.567-1.697-.849-5.784z"/><path fill="#fff" d="m192.337 173.479 8.36-8.172 4.087 4.18z"/><path fill="#fff" d="m194.639 159.93 5.189 10.476 5.238-2.594z"/><path fill="#fff" d="m194.64 159.93 10.356 5.425-2.713 5.179zM131.413 226.1l-1.741-11.561-5.781.871z"/><path fill="#fff" d="m131.413 226.101-8.204-8.33 4.165-4.102z"/><path fill="#fff" d="m117.857 223.847 10.457-5.228-2.614-5.229z"/><path fill="#fff" d="m117.857 223.847 5.387-10.376 5.188 2.693z"/><path fill="#fff" d="m137.746 213.902-11.533-1.916-.958 5.766z"/><path fill="#fff" d="m137.746 213.902-10.457 5.229-2.614-5.229z"/><path fill="#fff" d="m115.808 210.257 8.204 8.329 4.165-4.102z"/><path fill="#fff" d="m115.809 210.257 11.533 1.916-.958 5.767z"/><path fill="#fff" d="m128.102 204.11-5.387 10.377 5.188 2.693z"/><path fill="#fff" d="m128.101 204.11 1.741 11.561-5.781.871zM89.346 235.038l4.11-10.946-5.474-2.054z"/><path fill="#fff" d="m89.346 235.038-3.11-11.271 5.635-1.554z"/><path fill="#fff" d="m78.6 226.468 11.68.525.262-5.84z"/><path fill="#fff" d="m78.6 226.468 9.757-6.44 3.22 4.879z"/><path fill="#fff" d="m100.818 227.467-9.14-7.29-3.645 4.57z"/><path fill="#fff" d="m100.816 227.467-11.68-.525.264-5.84z"/><path fill="#fff" d="m83.43 213.6 3.11 11.27 5.634-1.554z"/><path fill="#fff" d="m83.43 213.6 9.14 7.29-3.645 4.57z"/><path fill="#fff" d="m97.16 214.218-9.758 6.44 3.22 4.879z"/><path fill="#fff" d="m97.16 214.218-4.11 10.945-5.472-2.054zM48.249 222.359l8.919-7.559-3.78-4.46z"/><path fill="#fff" d="m48.251 222.359 2.772-11.358 5.68 1.386z"/><path fill="#fff" d="m43.041 209.641 9.945 6.147 3.074-4.973z"/><path fill="#fff" d="m43.04 209.641 11.66-.873.436 5.829z"/><path fill="#fff" d="m61.957 221.332-4.434-10.818-5.409 2.217z"/><path fill="#fff" d="m61.955 221.332-9.945-6.146 3.073-4.973z"/><path fill="#fff" d="m53.526 200.755-2.772 11.358 5.679 1.386z"/><path fill="#fff" d="m53.526 200.755 4.433 10.818-5.41 2.217z"/><path fill="#fff" d="m65.217 207.98-11.658.873.436 5.83z"/><path fill="#fff" d="m65.218 207.98-8.92 7.559-3.779-4.459zM47.021 263.534l7.526-8.947-4.474-3.763z"/><path fill="#fff" d="m47.02 263.535.83-11.662 5.83.414z"/><path fill="#fff" d="m39.751 251.87 10.835 4.393 2.196-5.418z"/><path fill="#fff" d="m39.752 251.87 11.348-2.815 1.407 5.674z"/><path fill="#fff" d="m60.36 260.225-6.184-9.922-4.961 3.092z"/><path fill="#fff" d="m60.36 260.225-10.835-4.392 2.197-5.418z"/><path fill="#fff" d="m48.597 241.352-.83 11.662 5.832.415z"/><path fill="#fff" d="m48.595 241.352 6.184 9.922-4.96 3.092z"/><path fill="#fff" d="m61.334 246.516-11.348 2.815 1.408 5.674z"/><path fill="#fff" d="m61.334 246.516-7.525 8.947-4.474-3.763zM11.975 241.875l10.06-5.958-2.978-5.03z"/><path fill="#fff" d="m11.974 241.875 4.637-10.733 5.367 2.319z"/><path fill="#fff" d="m8.968 228.463 8.774 7.727 3.864-4.387z"/><path fill="#fff" d="m8.97 228.463 11.64 1.094-.547 5.82z"/><path fill="#fff" d="m25.658 243.16-2.556-11.408-5.705 1.278z"/><path fill="#fff" d="m25.657 243.16-8.774-7.726 3.863-4.388z"/><path fill="#fff" d="m20.792 221.46-4.638 10.733 5.366 2.318z"/><path fill="#fff" d="m20.79 221.46 2.558 11.409-5.704 1.278z"/><path fill="#fff" d="m31.107 230.544-11.64-1.094-.547 5.82z"/><path fill="#fff" d="m31.107 230.544-10.06 5.957-2.979-5.03zM18.535 191.273l11.47-2.259-1.129-5.736z"/><path fill="#fff" d="m18.534 191.273 7.952-8.57 4.285 3.976z"/><path fill="#fff" d="m20.176 177.627 5.693 10.212 5.106-2.847z"/><path fill="#fff" d="m20.175 177.627 10.608 4.915-2.457 5.304z"/><path fill="#fff" d="m31.004 197.051 1.396-11.608-5.803-.698z"/><path fill="#fff" d="m31.004 197.051-5.693-10.212 5.105-2.846z"/><path fill="#fff" d="m33.661 174.972-7.952 8.57 4.285 3.976z"/><path fill="#fff" d="m33.662 174.972-1.396 11.607-5.804-.698z"/><path fill="#fff" d="m40.352 186.976-10.608-4.915-2.457 5.304z"/><path fill="#fff" d="m40.352 186.976-11.471 2.259-1.13-5.736zM7.713 149.65l11.119 3.613 1.806-5.56z"/><path fill="#fff" d="m7.713 149.65 11.119-3.613 1.806 5.56z"/><path fill="#fff" d="M15.791 138.531v11.691h5.846z"/><path fill="#fff" d="m15.792 138.531 6.872 9.458-4.73 3.436z"/><path fill="#fff" d="m15.792 160.769 6.872-9.458-4.73-3.436z"/><path fill="#fff" d="M15.793 160.769v-11.691h5.846z"/><path fill="#fff" d="m28.865 142.778-11.119 3.613 1.806 5.56z"/><path fill="#fff" d="m28.866 142.778-6.872 9.459-4.73-3.436z"/><path fill="#fff" d="m28.864 156.522-6.872-9.458-4.73 3.436z"/><path fill="#fff" d="m28.865 156.522-11.119-3.613 1.806-5.559zM131.413 73.2l-1.741 11.56-5.781-.87z"/><path fill="#fff" d="m131.413 73.2-8.204 8.33 4.165 4.102z"/><path fill="#fff" d="m117.857 75.453 10.457 5.228-2.614 5.229z"/><path fill="#fff" d="m117.857 75.453 5.387 10.376 5.188-2.693z"/><path fill="#fff" d="m137.746 85.398-11.533 1.917-.958-5.767z"/><path fill="#fff" d="m137.746 85.398-10.457-5.228-2.614 5.228z"/><path fill="#fff" d="m115.808 89.044 8.204-8.33 4.165 4.102z"/><path fill="#fff" d="m115.809 89.044 11.533-1.917-.958-5.766z"/><path fill="#fff" d="m128.102 95.19-5.387-10.376 5.188-2.694z"/><path fill="#fff" d="m128.101 95.19 1.741-11.56-5.781-.871zM89.346 64.263l4.11 10.945-5.474 2.055z"/><path fill="#fff" d="m89.346 64.263-3.11 11.27 5.635 1.555z"/><path fill="#fff" d="m78.6 72.833 11.68-.526.262 5.84z"/><path fill="#fff" d="m78.6 72.833 9.757 6.44 3.22-4.88z"/><path fill="#fff" d="m100.818 71.833-9.14 7.29-3.645-4.57z"/><path fill="#fff" d="m100.816 71.833-11.68.526.264 5.84z"/><path fill="#fff" d="m83.43 85.7 3.11-11.27 5.634 1.554z"/><path fill="#fff" d="m83.43 85.7 9.14-7.29-3.645-4.57z"/><path fill="#fff" d="m97.16 85.082-9.758-6.44 3.22-4.879z"/><path fill="#fff" d="m97.16 85.082-4.11-10.945-5.472 2.054zM48.249 76.942l8.919 7.559-3.78 4.46z"/><path fill="#fff" d="M48.251 76.942 51.023 88.3l5.68-1.387z"/><path fill="#fff" d="m43.04 89.66 9.944-6.147 3.074 4.972z"/><path fill="#fff" d="m43.039 89.66 11.658.872.437-5.829z"/><path fill="#fff" d="m61.957 77.968-4.434 10.818-5.409-2.216z"/><path fill="#fff" d="m61.955 77.968-9.945 6.147 3.073 4.972z"/><path fill="#fff" d="m53.526 98.546-2.772-11.358 5.679-1.386z"/><path fill="#fff" d="m53.526 98.546 4.433-10.819-5.41-2.216z"/><path fill="#fff" d="m65.215 91.32-11.658-.873.436-5.83z"/><path fill="#fff" d="m65.216 91.32-8.92-7.56-3.779 4.46zM47.021 35.766l7.526 8.947-4.474 3.763z"/><path fill="#fff" d="m47.02 35.766.83 11.662 5.83-.415z"/><path fill="#fff" d="m39.751 47.43 10.835-4.392 2.196 5.417z"/><path fill="#fff" d="M39.752 47.43 51.1 50.245l1.407-5.674z"/><path fill="#fff" d="m60.36 39.075-6.184 9.922-4.961-3.092z"/><path fill="#fff" d="m60.36 39.075-10.835 4.392 2.197 5.418z"/><path fill="#fff" d="m48.597 57.948-.83-11.662 5.832-.414z"/><path fill="#fff" d="m48.595 57.948 6.184-9.922-4.96-3.092z"/><path fill="#fff" d="M61.334 52.785 49.986 49.97l1.408-5.674z"/><path fill="#fff" d="m61.334 52.785-7.525-8.948-4.474 3.763zM11.975 57.426l10.06 5.957-2.978 5.03z"/><path fill="#fff" d="m11.974 57.426 4.637 10.732 5.367-2.318z"/><path fill="#fff" d="m8.97 70.837 8.774-7.727 3.864 4.388z"/><path fill="#fff" d="m8.971 70.837 11.64-1.094-.547-5.82z"/><path fill="#fff" d="m25.66 56.14-2.556 11.408-5.705-1.278z"/><path fill="#fff" d="m25.659 56.14-8.774 7.727 3.863 4.387z"/><path fill="#fff" d="m20.793 77.84-4.637-10.732 5.367-2.319z"/><path fill="#fff" d="m20.793 77.84 2.557-11.408-5.705-1.279z"/><path fill="#fff" d="m31.109 68.757-11.64 1.093-.547-5.82z"/><path fill="#fff" d="M31.109 68.757 21.049 62.8l-2.979 5.03zM18.533 108.027l11.47 2.259-1.129 5.736z"/><path fill="#fff" d="m18.534 108.027 7.952 8.571 4.285-3.977z"/><path fill="#fff" d="m20.176 121.673 5.693-10.211 5.106 2.846z"/><path fill="#fff" d="m20.175 121.673 10.608-4.915-2.457-5.304z"/><path fill="#fff" d="m31.004 102.25 1.396 11.607-5.803.698z"/><path fill="#fff" d="m31.004 102.25-5.693 10.211 5.105 2.847z"/><path fill="#fff" d="m33.661 124.329-7.952-8.57 4.285-3.977z"/><path fill="#fff" d="m33.662 124.329-1.396-11.608-5.804.698z"/><path fill="#fff" d="m40.352 112.324-10.608 4.915-2.457-5.304z"/><path fill="#fff" d="m40.352 112.324-11.471-2.259-1.13 5.736z"/></g><defs><clipPath id="a"><path fill="#fff" d="M0 0h600v300H0z"/></clipPath></defs></svg>