<svg xmlns="http://www.w3.org/2000/svg" width="600" height="300" fill="none" viewBox="0 0 600 300"><path fill="#fff" d="M129.551 0H470.93v300H129.551z"/><path fill="#fec500" stroke="#fec500" stroke-width=".692" d="M298.339 101.808s-.489 54.522-.489 58.489 0 9.417-4.381 8.426c-4.372-.992-9.727-.992-17.512-6.443-7.78-5.452-7.78-6.443-7.78-6.443l7.296-2.481s-7.296-1.485-12.162-4.954a372 372 0 0 1-8.758-6.447s-.484 7.439 1.946 12.89c2.435 5.452 7.296 10.41 7.296 10.41v-6.443s6.812 6.443 9.247 7.932c2.431 1.485 12.162 5.452 16.05 7.933 3.893 2.472 11.025 9.413 11.025 9.413s7.465-7.933 12.33-9.916 11.189-4.953 14.108-6.936 10.7-9.418 10.7-9.418v8.426s5.35-6.443 6.812-10.907c1.462-4.46 1.946-12.393 1.946-12.393s-3.892 2.975-7.296 4.465c-3.408 1.485-13.135 5.451-13.135 5.451l7.781 1.983s-12.647 9.916-17.023 11.899c-7.973 3.833-13.624 2.97-13.624-1.983s.489-62.953.489-62.953zm.484-18.342h3.404v14.869h-3.404z"/><path fill="#fec500" stroke="#fff" stroke-width=".692" d="M274.504 98.34s13.619-2.975 26.265-2.975 25.781 2.97 25.781 2.97v5.456s-17.512 2.476-27.727 2.476-24.323-2.974-24.323-2.974z"/><path fill="#fec500" fill-rule="evenodd" stroke="#fff" stroke-width=".692" d="M308.55 95.609c0-2.26-.872-4.304-2.281-5.783a7.8 7.8 0 0 0-2.475-1.752c-.465-.207-.383-.286-.889-.394l.014 2.832c.611.302.753.602 1.215 1.14.924 1.077 1.496 2.564 1.496 4.206 0 3.284-2.287 5.411-5.105 5.411s-5.106-2.127-5.106-5.41c0-1.643.572-3.13 1.496-4.207.462-.538.604-.838 1.215-1.14l.015-2.832c-.507.108-.424.187-.89.394a7.8 7.8 0 0 0-2.474 1.752c-1.409 1.479-2.281 3.523-2.281 5.783 0 4.52 3.704 8.182 8.025 8.182s8.025-3.662 8.025-8.182Z" clip-rule="evenodd"/><path fill="#003271" stroke="#fff" stroke-linejoin="round" stroke-width=".461" d="M255.257 190.75s6.461 5.903 12.784 6.742c6.323.844 16.28 3.814 16.28 3.814s.263 9.095-.046 9.884-.507.996-1.416 1.028c-2.947.106-10.123.116-17.931-1.701-10.206-2.376-20.219-8.519-20.219-8.519 2.334-.959 7.979-1.803 11.622-2.707zm90.053 0s-6.461 5.903-12.784 6.742c-6.323.844-16.281 3.814-16.281 3.814s-.262 9.095.047 9.884.507.996 1.415 1.028c2.947.106 10.124.116 17.932-1.701 10.206-2.376 20.219-8.519 20.219-8.519-2.334-.959-7.979-1.803-11.622-2.707z"/><path fill="#003271" stroke="#fff" stroke-linejoin="round" stroke-width=".461" d="M275.96 204.41c-1.125-.35-1.78.383-1.78.383v-15.754s.682-.618 1.872-.097c4.197 1.831 15.017 5.543 24.232 5.543s20.034-3.712 24.231-5.543c1.19-.521 1.872.092 1.872.092v15.759s-.655-.738-1.78-.383c-4.474 1.389-16.17 4.843-24.323 4.843-8.154 0-19.85-3.454-24.324-4.838z"/><path fill="#003271" d="M326.388 204.793c.691 1.845-10.23 3.551-10.096 6.397Zm-52.208 0c-.692 1.845 10.229 3.551 10.096 6.397Z"/><path stroke="#fff" stroke-linejoin="round" stroke-width=".461" d="M326.388 204.793c.691 1.845-10.23 3.551-10.096 6.397m-42.112-6.397c-.692 1.845 10.229 3.551 10.096 6.397"/><path fill="#fec500" d="m300.285 37 10.844 33.373-28.389-20.626h35.09l-28.388 20.626zM352.792 49.94l-5.907 34.59-15.553-31.455 31.072 16.306-34.722 5.072zM393.271 85.799l-21.303 27.883.845-35.08 19.935 28.877-33.102-11.644zM412.456 136.38l-31.823 14.785 17.055-30.667 4.227 34.835-23.895-25.697zM405.934 190.063l-35.049-1.696 29.353-19.229-12.444 32.81-9.218-33.858zM375.215 234.568l-30.247-17.788 34.926-3.388-26.264 23.27 7.571-34.264zM327.332 259.702l-18.517-29.807 32.501 13.23-34.07 8.4 22.626-26.821zM247.779 49.94l5.906 34.59 15.553-31.455-31.072 16.306 34.722 5.071zM207.298 85.798l21.303 27.884-.845-35.08-19.936 28.877 33.102-11.644zM188.113 136.38l31.823 14.785-17.055-30.667-4.228 34.835 23.896-25.697zM194.634 190.063l35.049-1.696-29.352-19.229 12.443 32.81 9.218-33.858zM225.353 234.568 255.6 216.78l-34.926-3.388 26.265 23.27-7.571-34.264zM273.236 259.702l18.517-29.807-32.5 13.23 34.07 8.4-22.626-26.821zM315.619 193.909c2.6-.708 5.177-1.503 7.743-2.325q.052 1.194.082 2.393c-1.63.503-3.26 1-4.891 1.474q.006.883.008 1.768c1.519-.437 3.038-.89 4.56-1.346q.013 1.15.007 2.303c-1.528.441-3.05.885-4.571 1.315q-.005 1.1-.018 2.2c1.683-.468 3.367-.949 5.06-1.417q-.028 1.29-.081 2.589c-2.65.698-5.285 1.45-7.933 2.145q.06-5.56.034-11.099m-11.989 2.365a52 52 0 0 0 4.962-.716c1.076-.204 1.874-.088 2.404.385q.286.253.468.622.329.664.327 1.712-.002 1.033-.332 1.863a4 4 0 0 1-.537.955c-.57.754-1.449 1.259-2.637 1.469q-.809.143-1.622.262a431 431 0 0 1-.037 4.095q-1.495.211-3 .328.073-5.496.004-10.975m3.036 4.319q.365-.054.728-.114c.571-.093.971-.28 1.2-.548q.345-.411.344-.947-.001-.52-.303-.825c-.201-.204-.577-.253-1.132-.159a62 62 0 0 1-.846.136q.008 1.228.009 2.457m-17.031.054c-.009-1.799.422-3.097 1.295-3.922.878-.829 2.093-1.09 3.667-.875 1.609.221 2.854.804 3.734 1.828.88 1.018 1.328 2.383 1.329 4.143 0 1.277-.196 2.324-.584 3.133-.383.802-.937 1.416-1.658 1.822-.716.401-1.608.547-2.674.414-1.083-.136-1.984-.478-2.696-.994-.71-.517-1.288-1.254-1.734-2.198s-.673-2.066-.679-3.351m2.952.592c.004 1.107.189 1.935.551 2.474.367.541.861.857 1.484.937.641.083 1.137-.101 1.488-.538q.526-.657.524-2.493c-.002-1.03-.188-1.796-.559-2.307a2.1 2.1 0 0 0-1.495-.895c-.604-.082-1.087.084-1.451.51q-.547.635-.542 2.312m-15.766-9.835q1.42.51 2.852.983-.047 1.93-.057 3.872 1.593.505 3.189.971a450 450 0 0 1 .013-3.856q1.453.432 2.918.819-.004 5.496.059 11.037-1.467-.377-2.928-.787a452 452 0 0 1-.052-4.496 176 176 0 0 1-3.198-.954q.015 2.258.077 4.535-1.449-.429-2.893-.861a129 129 0 0 1 .02-11.263"/></svg>