<svg xmlns="http://www.w3.org/2000/svg" width="600" height="300" fill="none" viewBox="0 0 600 300"><path fill="#041e42" d="M0 300h600V0H0z"/><path fill="#fff" fill-rule="evenodd" d="M124.762 55.378c-11.278 37.597 34.07 67.977 64.959 40.718 32.394-34.014-3.757-79.955-41.298-65.29 27.399-4.71 43.731 26.947 25.307 46.701-17.796 18.18-50.25 6.233-48.968-22.13m197.873-4.661c-1.437.668-2.498 2.612-3.105 4.146-1.439 4.283-2.919 8.557-4.365 12.833-.755 1.923-1.483 3.88-2.244 5.787-1.395-.188.551-2.572.444-3.592.461-2.094 1.486-4.14 1.573-6.277-.35-1.6.036-3.677-.758-4.979-1.186 2.736-2.688 5.356-3.708 8.154-.767 3.357-1.797 6.654-2.228 10.08-.257 1.772-.569 3.52-1.144 5.22-1.42-.132-1.045-2.634-1.88-3.665-.758-2.41-2.284-4.495-3.387-6.757-.563-.56-1.858-4.5-1.835-2.304-.127 1.586-.236 3.173-.381 4.758-3.155-5.897-6.32-11.789-9.479-17.683.257 1.914-.008 3.978.688 5.788 1.532 3.302 2.932 6.665 4.395 9.999-.77.729-.925-.476-1.31-.965l-8.756-15.46c-1.179.828-.358 2.355-.51 3.549.482 1.674 1.591 3.173 2.347 4.76a557 557 0 0 0 4.22 7.713c-1.017 1.121-1.571-2.053-2.299-2.768-2.639-4.579-5.251-9.174-7.969-13.707-1.191.411-1.559 1.284-1.359 2.438-.197 1.156.282 2.14.951 3.069 2.042 3.534 4.104 7.058 6.163 10.582-.698.81-.911-.373-1.318-.847l-9.94-15.729c-.806-.362-1.946-1.33-1.688.277-.383 2.011 1.802 3.417 2.517 5.157 2.947 4.56 5.984 9.144 8.919 13.659-.615.828-.896-.23-1.293-.684l-5.586-7.923c-.695-.18-1.588-.632-1.326.496-.046.716-.237 1.471.371 2.01 2.979 4.471 6.013 8.919 8.957 13.403.956 1.954 1.826 3.967 2.833 5.884l5.103 5.252c-1.221.983-2.458-2.138-3.674-2.701-1.288-1.45-3.02-2.609-3.747-4.465-.884-1.38-1.391-3.03-2.754-4.04-1.51-1.133-2.67-3.196-4.421-3.709-.566 1.248-.104 4.056 1.591 5.02.169.466 2.547 2.067 1.242 1.738-2.56-.28-4.964-1.176-7.362-2.06-1.45 1.39 3.46 2.503.704 3.07-1.993.027-3.53-1.78-5.352-2.45-4.54-2.483-9.192-4.77-13.835-7.046l-2.892-.873c-.268 1.682 2.359 2.156 3.232 3.345 3.522 1.902 7.131 3.704 10.66 5.615-.113 1.06-1.07.258-1.711.156l-19.814-6.38c-1.11-.266-.916.316-.467 1.065.11.865.97.908 1.641 1.158 5.185 1.74 10.365 3.495 15.553 5.225.204.817.375 1.643.553 2.466-1.178-.97-2.34-2.08-3.954-2.185-3.377-.837-6.856-.128-10.28-.089-1.827-.437-2.064 1.037-.244 1.352 1.462 1.136 3.346.498 5.046.588q4.146-.122 8.291-.27c.49 1.575-2.698.521-2.819 1.8-.319 1.519 2.547 1.519 3.581 1.209 1.581.026 2.676-2.317 4.02-1.918-.351 1.503-2.99 1.839-3.289 3.394-.199 1.557 2.98 1.099 3.894.433 1.061-.881 2.888-2.212 2.985.15.309 2.133 3.13 1.307 4.664 2.03 2.734.416 5.534.59 8.243 1.037 2.592 1.176 5.193 2.344 7.779 3.526-.532 1.467-2.811-.758-3.993-.671-1.957-.547-3.76-1.658-5.839-1.678-1.798-.33-3.603-.292-5.407-.082-5.465.457-10.942.827-16.4 1.338-5.08.857-10.173 1.68-15.253 2.519-1.29.4-4.095 1.156-1.409 1.677 5.768-.27 11.523-.756 17.281-1.191.416 1.007-.821.663-1.441.824l-14.363 1.458c-1.474 1.09-3.442 1.69-4.245 3.473.231 2.538 3.408.217 4.983.386 4.143-.697 8.269-1.356 12.264-2.634 1.19.095 4.165-2.031 4.345-.504-4.517 1.394-9.044 2.806-13.599 4.068l-2.91.68c-.283 2.332 3.243.972 4.681 1.342 3.161-.739 6.173-2.014 9.297-2.9 1.666-.137 4.19-2.09 5.397-1.288-1.073 1.095-3.564 1.673-5.121 2.579-3.214 1.406-6.474 2.697-9.606 4.294-2.064 2.09 2.192 1.898 3.237.816 3.347-1.535 6.652-3.156 9.949-4.809.809.668-.38.988-.801 1.447-1.868 1.462-3.69 2.974-5.773 4.124-.806.648-2.126.875-2.284 2.062 1.83 1.041 3.578-.221 5.218-1.04a524 524 0 0 1 12.985-8.137c1.887-.845 3.822-1.576 5.738-2.349.74.739-.47.964-.928 1.398-2.106 1.409-4.219 2.808-6.32 4.223-2.296 2.375-4.375 4.987-7.087 6.915-1.264 1.058-2.555 2.01-3.555 3.176-1.983 1.995-4.036 3.919-6.001 5.931-.612 2.033-1.919 3.944-1.774 6.125.025 2.348-.242 4.722-.021 7.054.241.969.8 3.178.99.97.106-1.01.803-4.493 1.551-2.049.412.914.816 3.67 1.303 3.192.714-1.415.846-3.399 1.995-4.471 1.023.597 1.832 2.071 2.807.376 1.237-1.441 1.054-3.606 1.669-5.36q.796-3.414 1.597-6.827c.97-.281.74.894.982 1.496l.931 4.208c2.116-.917 1.252-3.778 1.935-5.588.135-1.357.566-4.929 2.023-2.202.856 2.052 3.227-.314 3.155-1.806.484-2.365.948-4.734 1.443-7.097.635 1.132 1.297 2.248 1.946 3.372 2.21-.102 2.97-2.319 4.404-3.633 1.288-1.337 2.437-2.887 3.867-4.051 1.629-.839 3.156-1.961 4.832-2.684 1.635 1.512-.833 3.552-1.762 4.849-2.073 2.561-4.632 4.671-6.802 7.151-.857.989-2.197 1.819-1.838 3.291 1.089.485 2.225.927 3.322 1.419-1.657.831-3.437 1.545-4.966 2.55-1.48 1.281-3.078 2.417-4.63 3.607-.42 1.127-.69 2.399.976 1.93 1.19-.205 4.394.304 1.876 1.476-2.367 1.547-5.107 2.512-7.449 4.043-.649.866-2.39 2.226-.269 2.165 1.417-.204 3.538-2.364 4.591-1.27-1.489 1.645-3.42 3.233-5.05 4.878-.83.642-2.671 2.428-1.581 2.93 2.583-1.234 4.397-3.555 6.597-5.323.773-1.228 2.845-2.319 2.189.075-2.554 3.18-5.023 6.451-7.652 9.548.265 3.11 2.265-.893 3.25-1.728 1.536-1.813 2.964-3.756 4.972-5.082.697-.152 2.536-2.771 2.633-1.7-.047.89.228 1.884-.529 2.577-1.588 2.141-2.649 4.59-3.95 6.906-.215.999-.438 3.871 1.006 2.516 1.719-3.206 3.817-6.205 5.171-9.6 1.387-2.912 2.323-6.037 3.486-9.022.979-1.461 1.457-.966 1.321.561.158 1.42.098 4.458 1.078 4.673 1.782-4.072 4.019-7.922 5.919-11.933.658-1.957 1.439-3.88 2.252-5.784 1.023-.107.553 1.004.654 1.65-.069 1.294.137 2.634-.101 3.901-1.104 3.171-1.932 6.44-3.471 9.442-.934 1.93-2.253 3.669-3.156 5.61-.904 1.178-.568 1.187.451.494 1.802-.825 3.013-2.373 4.263-3.845 1.966-1.577.506 2.008.053 2.769-1.069 3.031-1.761 6.211-2.971 9.205-.015.907-.33 2.993.826 1.396 2.169-1.696 2.959-4.413 4.257-6.731.787 1.15 2.268 1.814 2.985.396-.121-1.79-.946-3.646-.14-5.38.796-2.869 1.45-5.791 1.899-8.732.216-1.787.336-3.595.558-5.376.994-.513.574 1.066.654 1.666v4.088c.974.107 2.763-1.62 3.271-.486-.983.842-2.485 1.364-3.376 2.28l-.113 3.424 3.64-2.215c.861.606-.28 1.024-.67 1.525l-2.987 2.787-.05 2.416c.843-.265 1.694-.512 2.533-.789.692.788-.502.966-.997 1.376-.559.52-1.818.61-1.636 1.587a490 490 0 0 1-.253 7.372c.444-.878 2.009-2.993 1.78-3.113-.513 1.004-2.38 1.071-1.109.026.529-.642 3.41-2.693 2.393-.643-.992 1.43-1.854 3.333-2.895 4.508-.296-.029-.651 2.074.246 1.658.745.507 3.044.738 1.457 1.621-.68.682-1.531 1.289-2.106 2.016.047 2.058-.472 5.484-.069 6.679.607-.853 2.604-2.394 2.185-2.796-.843.402-3.41.21-1.613-.443 1.094-.415 4.151-.532 2.198 1.191-1.041 1.855-3.519 2.439-3.052 4.468.01 1.498-.603 2.412 1.229 2.138 2.098-.183 2.244 1.861.353 2.42-1.3.759-2.436.709-1.651 2.433.405 1.132 3.202 1.897 2.5 3.07-.105-1.323-.402.51-1.126-.817-.891-.711-2.037-2.399-1.661-.159-.163 4.273-.333 8.547-.501 12.821.881-.27 2.445.965 2.46 1.537-.909.843-3.079-2.839-2.514.077.03 1.313-.316 3.74-.048 4.351.437-.368 1.132.685 1.669.866l1.838 1.272c-.337 1.041-1.056-.032-1.631-.309l-2.026-1.402c.158 1.737-.605 4.934.095 5.833.797.587 2.88 2.277 2.829 3.222-1.031.275-2.52-2.801-3.169-2.625-.1 2.593-.193 5.187-.292 7.78 1.083.363 3.275 1.772 3.847 2.66-.978.829-3.043-2.249-3.889-1.858-.154 2.095-.028 4.236-.328 6.307-.397 1.505 3.75 1.134 2.853 2.672-1.53-.504-3.652-2.693-3.664.135-.327 2.254-2.379 4.557-.782 6.693.615 1.735 2.585 2.474 4.06 3.356 1.742-.275 3.415-1.136 5.229-1.204 2.674-.415 5.394-.564 8.059-.994 1.126-.822 2.522-1.596.824-2.649-1.352-1.659-1.03-4.024-1.814-5.908-.002-1.533-.317-2.199-1.666-1.092-1.057.209-2.701 2.464-3.3 1.059 1.58-.765 3.014-1.759 4.613-2.5-.189-2.006-.576-4.002-.536-6.023-1.264.815-3.131 2.511-4.345 2.277.495-1.129 2.912-1.626 3.942-2.814.748-.01.259-1.071.387-1.698l-.052-5.247c-1.17 1.321-2.572 2.264-4.345 2.55-1.318-1.153 2.013-.738 2.443-1.719.797-.901 2.27-1.461 1.876-2.869l-.041-4.64c-1.03.684-2.918 3.138-3.913 2.122 1.076-.959 3.405-1.876 3.893-3.31l-.063-6.026a7.95 7.95 0 0 1-4.421 2.968c-.88.976-2.676.109-.886-.379 1.746-.58 3.51-1.212 4.596-2.8.987-.529.656-1.469.691-2.443l-.048-4.292c-2.086 1.85-3.97 3.901-6.039 5.772-1.09-1.15 2.024-2.148 2.466-3.289 1.03-1.234 2.776-2.427 3.571-3.487l-.048-4.683c-.795.735-2.083 1.668-.453.788.73.822-.551.905-1.088 1.262-.738.346-1.48.687-2.217 1.037-.771-1.448 2.496-2.158 3.147-3.432.882.216.555-.614.595-1.472l-.034-3.267c-1.09 1.985-3.262.834-4.995.474-1.28-.105-.076-.495.456-.812l4.119-2.212c.775.782-.503.93-1.02 1.313l-2.436 1.288c1.522.853 3.389.307 3.856-1.172.004-2.615-.072-5.185-.198-7.804-1.203 1.209-1.894 2.531-3.389 3.07.699-.323 3.583.097 1.644.604-1.113.222-4.827.364-2.228-1.053 1.328-.521 2.19-1.491 3.034-2.604 1.003-.578.994-.97.858-2.151l-.205-4.828c-.609.749-3.203 2.799-2.541 2.797.776-.49 3.821-.632 2.011.247-1.161-.073-3.67 1.543-4.083.126 1.617-.928 2.806-2.378 4.157-3.657.791.102.27-1.061.369-1.78l-.584-14.494c-.759.675-3.941 3.246-2.778.694.78-.894 1.575-2.458 2.441-2.762.567-.29.049-1.345.181-1.943.131-1.478-.771-2.738-1.212-4.095-.03-.555-1.07-1.524-.186-1.689.962.818 1.418 3.037 2.198 4.351 1.186 2.745 2.54 5.43 3.584 8.229.577 2.33 1.192 4.651 1.275 7.063.593-.216 1.698.142 1.657-.782.138-.908.794-1.845.218-2.715-2.598-7.071-5.553-14.001-8.3-21.014.651-.677.867.246 1.123.796 1.598 3.185 2.642 6.612 3.973 9.916 1.352 3.583 2.773 7.145 4.399 10.612 2.504-1.457.434-4.065.08-6.183-1.17-3.875-2.751-7.614-4.107-11.428-.402-.677-1.282-.995-1.867-1.535-.862-.636-1.745-1.28-2.595-1.91.706-1.333 2.274 1.011 3.357 1.127 1.863 1.963 2.322-1.054 3.975-1.401.464 1.701-2.679 3.078-1.005 5.042 1.205 4.114 2.287 8.27 3.884 12.254q.399 1.078.795 2.155c-.54.776.229 4.1 1.331 3.243.377-1.794 1.525-3.57.55-5.383-1.43-5.467-3.394-10.778-5.047-16.18.022-1.969 1.252.839 1.389 1.686 1.9 5.16 3.956 10.274 5.636 15.51-.357 1.538-.346 4.79 1.661 2.952.09-2.053.25-4.156-.604-6.09-1.738-4.623-3.119-9.382-4.664-14.076-.883.961-2.544.041-2.802-1.02.297-2.332-1.629-2.267-3.368-2.117-.761-.074 1.328-1.164 1.573-1.56.939-.517 2.941-2.097 1.011-2.521-.617-.283-1.231-.574-1.85-.852.921-1.585 1.876-3.142 3.097-4.522.752-1.371.18-3.831-1.279-4.667-1.058-.581-.939-1.922-1.357-2.915-.553-.585.002-1.712.442-.864l.825 2.835c1.593.855 2.333 2.258 2.296 4.027.727 1.651-1.188 2.653-1.895 3.903-.421.612-.776 1.272-1.173 1.902.887.418 1.793.798 2.668 1.241.183 1.667-2.694 2.769-2.483 3.339 2.792-.75 1.097 3.142 3.205 3.461.717-.007 1.339-.719 2.018-1.015 1.209.228-.508.792-.223 1.333 2.254 6.129 4.568 12.263 6.71 18.417-.204 2.226 1.917 2.517 3.238 3.439.183 1.187.751 3.441 2.003 2.957.054-3.175.253-6.369.262-9.534.181-1.084-1.661-3.711-.151-3.842.848 2.484 1.97 4.904 2.552 7.46.41 1.66-.407 4.357 1.974 4.604 1.05.427.237-3.388 1.363-2.35l1.862 1.477c2.52.06.646-2.703.688-4.111-.793-1.97-1.545-3.964-2.332-5.939 1.173-.485-.63.172-.291-1.086-.27-1.948-1.533-3.414-2.663-4.937-.479-1.032-.447-2.254-1.342-.788-1.066.882-.596 2.337.151 3.267 1.215 1.881 1.095 4.366 2.613 6.067.667 1.095 1.563 2.2 1.331 3.559.059.626.109 1.87-.671 1.268-.105-1.062.285-2.21-.372-3.054-.805-1.582-1.959-2.569-2.279-4.346-.349-1.787-1.346-3.314-2.097-4.932.168-.393-2.507.215-2.3-.621.74-.104.609-.43 1.863-.151.95-.803.941-2.316.302-3.322-1.26-2.824-3.2-5.299-4.613-8.036-.357-1.787.353-3.987-1.36-5.232-1.771-1.724-2.666-4.049-3.657-6.261-1.137-1.585-2.989-2.519-4.311-3.959-.72.228-3.434.313-2.087-.5 1.858-.743 3.135.317 4.318 1.574 1.348 1.047 2.779 2.131 3.23 3.852.841 2.009 1.935 3.868 3.492 5.409 1.372 1.288.663 3.347 1.029 4.999 1.689 3.063 3.947 5.859 5.083 9.194-.245 1.459.403-.467 1.096-.297-.066-1.651.51-3.884-.559-5.424-1.115-2.073-2.414-4.073-3.422-6.191-.702-1.511-1.561-3.402-2.343-5.052-.822-1.907-2.015-3.618-3.143-5.349 1.125-1.177 1.71 2.212 2.583 2.801 1.965 3.476 3.202 7.315 5.349 10.692.627 1.483 1.955 2.783 2.236 4.362.216.944-.374 4.002.392 3.748.382-.737.771-1.47 1.15-2.209.612-.29 1.824-.105 1.971-.775.212-2.061-1.863-3.561-2.072-5.584-.586-2.759-1.692-5.368-3.064-7.823-1.472-3.232-3.633-6.103-4.798-9.477-.309-1.968 1.287.545 1.321 1.463 1.133 2.579 2.787 4.895 3.958 7.466 1.115 2.091 2.181 4.199 2.794 6.502.42 2.165 1.313 4.167 2.44 6.064.194.865-.025 1.539.712 1.618.341.795-1.315.393-.66 1.611.188.763-.198 3.643-.769 2.004.05-1.352.687-3.551-1.244-2.515-.515.445-.712 1.295-1.107 1.893-.325.812-1.541.755-.713 1.907 1.083 1.613 2.524 3.049 2.807 5.057.23 1.791 1.718 3.004 2.618 4.552.976 1.002 2.12 4.072 3.099 3.521.437-1.906-1.237-3.178-1.85-4.835-1.309-2.801-2.498-5.659-3.748-8.488 1.016.733 2.311 1.16 2.891 2.363 2.327 3.1 4.615 6.231 7.007 9.28 2.506 1.203.967-1.92.201-2.903-1.911-3.856-4.527-7.307-6.785-10.965-.491-.5-2.059-2.934-.595-2.185l7.733 9.543c.871.595 2.443 1.091 1.92-.391-2.21-4.036-5.024-7.701-7.486-11.588-2.573-3.66-4.758-7.573-7.067-11.408 1.215-.983 2.809 1.486 4.163 1.808 2.166 1.184 4.097 2.695 5.871 4.403 2.988 2.599 5.861 5.349 8.967 7.803 1.548.848 2.755 2.328 4.419 2.881.028-.559-1.702-2.659-.975-2.646 1.744.492 3.394 1.216 5.005 2.022 1.08.531 4.458 1.802 2.765-.4-.538-1.101-3.104-1.698-2.686-2.893.477-.256 1.25.549 1.841.701 1.355.815 2.879 1.184 4.435 1.404 2.275-.102.846-2.471-.69-2.486-3.526-1.878-7.024-3.812-10.533-5.718.727-1.474 3.107.866 4.479.788.802-.252 3.747.353 2.716-1.037-.436-.534-1.338-.552-1.962-.877-4.808-1.741-9.625-3.461-14.427-5.216-2.049-1.38-4.132-2.718-6.191-4.077.315-1.262 2.379.364 3.406.235 1.798.47 3.606.858 5.475.836 1.2.033 3.717.338 4.153.138-.794-.429-4.301-1.444-2.299-1.991 1.004-.062 4.16-.125 1.47-.225-1.909-.198-3.903-.13-5.746-.637.236-.682 1.189-.425 2.434-.293 1.36.466 4.113-.332 4.645.808 1.349.432 3.719-.123 5.455-.018 2.403-.211 5.046.121 7.297-.473.785-1.222 3.132-1.619 3.089-3.205-.156-1.473-.173-2.99-.415-4.435-.5-.546-.606-1.655-1.453-1.705-2.269-.372-4.439-.996-6.59-1.769-4.478-.109-8.974-.069-13.438-.335-1.448-.094-3.17 1.216-4.832 1.124-2.568.258-5.192.046-7.682.84-.961.744-2.296-.33-.757-.521 1.924-.51 3.87-.858 5.867-.828 2.03-.065 4.071-.216 5.953-1.047 1.154-.783 1.41.547 1.636-.905 1.056-.4 4.436-.117 3.64-1.23-4.171.141-8.344.192-12.516.268-1.501-.148-3.414.78-4.899 1.493-1.74.704-.304-1.06.772-1.107 1.847-1.095 4.145-.824 5.939-2.013 2.804-1.307 5.438-2.96 8.17-4.396.71-.628 2.685-1.607.596-1.81-1.64-.378-3.393.566-5.092.586-2.24.395.003-1.557.845-1.933a107 107 0 0 0 7.678-4.376c.794-.605 3.136-1.019 2.382-2.03-2.121.709-4.221 1.723-6.392 2.316-.734.175-4.065.586-2.42-.712 3.198-2.112 6.346-4.302 9.517-6.452 1.056-1.42.291-1.456-.977-.876-1.468.447-2.563 1.647-3.93 2.345-.47.823-3.101 1.52-1.704.094 1.417-1.23 2.801-2.503 4.279-3.66.747-1.04 1.513-3.518-.516-2.35-1.308.688-2.99.79-3.902 2.063-1.61 1.674-3.252 3.336-4.843 5.018-1.164-1.091 1.846-2.295 2.216-3.45 1.308-1.497 2.684-2.952 3.857-4.553.248-1.312.306-2.237-1.027-1.322l-1.942.836c.194 1.353-2.679 2.767-3.591 4.11-1.543 1.317-3.641 1.87-4.999 3.44-1.085-1.159 1.9-2.038 2.667-2.719 2.171-1.056 3.639-3.044 5.386-4.647-1.912.388-4.115.31-5.235 2.215-2.894 2.751-5.711 5.6-8.673 8.27a307 307 0 0 1-10.989 7.299c-1.696.683-4.105.121-4.908 2.166-1.417 1.992-3.094 3.774-4.672 5.635 1.697-.373 3.308.014 4.84.767 1.473.515 2.724 1.533 4.136 2.17-.315 1.401-2.249 2.464-3.772 2.207-.957-.026-1.819-.673-2.738-.95.091-1.103 1.027-.212 1.651-.056 1.227.663 2.89.405 3.794-.683-.472-.969-2.974-1.946-4.426-2.487-1.318-.792-2.828-.247-4.257-.23-1.691.384.472-1.113.722-1.698 1.871-2.103 3.661-4.271 5.284-6.573-.118-1.698 1.766-2.899 2.393-4.466 1.846-2.72 2.798-5.925 4.214-8.88.602-1.233.291-2.673.448-4.007-.045-.724.212-1.513-.042-2.192-1.313 2.417-2.664 4.831-3.926 7.264-1.554.09-.16-2.373.288-3.013 1.195-2.414 2.542-4.787 3.659-7.22l.097-3.054c-1.007-.875-1.514 2.11-2.312 2.809-1.749 2.911-3.364 5.92-5.187 8.777-.179.966-2.11 1.667-1.336.3 2.605-4.793 5.28-9.568 7.952-14.31 1.074-1.904.73-4.127.883-6.216-1.03-1.627-1.749.875-2.573 1.522-1.056 1.31-1.444 3.031-2.254 4.503-1.315 2.856-2.679 5.694-4.015 8.537-1.495-.616.862-2.848.882-4.103q1.921-4.968 3.832-9.94c-.639-1.328-2.074 2.179-2.751 2.987-1.217 2.72-2.63 5.346-3.976 8.003-1.44-.628.878-2.838.815-4.042.697-2.013 1.614-4.006 2.289-5.99-.102-.75.96-2.698.016-2.735m9.228 36.104c.331 1.324-1.663 1.927-2.483 2.953-1.031.384-4.717 1.289-3.13 2.118 1.048-.556 2.099-1.107 3.146-1.665 1.34 1.271 3.368 2.633 3.209 4.575-1.273.32-.73-2.495-2.246-2.757-.698-1.209-1.582-.9-2.523-.235-.748.403-1.511.778-2.248 1.202-1.252-1.71.136-3.091 1.936-3.295 1.787-.28 2.827-1.818 4.171-2.846l.037-.03zm9.496 3.69c.123 1.495-2.504.843-3.212 2.104-1.147.554-2.306 2.257-3.33 2.242-1.13-.22 1.358-1.312 1.755-1.926 1.432-1.148 2.894-2.206 4.787-2.42m12.18 5.84c-.087.222-.291.277 0 0m-34.41 1.459c1.557.585 3.216.958 4.534 2.034 1.704.602 1.784 2.55 2.279 4.021.047.948-.771 3.963-1.631 3.318.347-1.39 1.58-3.103.539-4.692-.137-1.748-1.952-2.233-3.18-3.076l-2.776-.984zm43.855.168c3.163.13 6.352.267 9.496.57.35.37-.632.393-.486.587-4.073-.185-8.146-.68-12.223-.343-1.909-.245-3.577 1.213-5.51.801-1.03.202-3.402-.348-1.779-.776 1.851.207 3.737.23 5.464-.564 1.637-.299 3.371-.1 5.038-.275m-4.865 2.65c3.267.466 6.549.755 9.852.716 2.081.116 4.515-.092 6.385.24-.311 1.386-3.217.049-4.459.463-3.668-.044-7.343-.043-10.973-.647-.702.02-.92-.091-.805-.772m3.54 3.658c1.344 1.4 3.269 1.652 5.204 1.338 2.276-.147 4.609.469 6.817-.378 1.92-.179-.14 1.08-1.145.955-2.231.469-4.512-.151-6.766.132-1.8.637-3.276-.881-4.568-1.219-.967.571-2.029.695-3.121.615h-4.709c-.318-1.047.888-.57 1.515-.671 1.569-.012 3.144.022 4.709-.017.68-.266 1.342-.618 2.064-.755m-64.139 2.13c1.635.674-1.329 2.293-.846 3.357.073 1.117.204 1.911.728.368.24-.722.462-1.449.722-2.164.661 1.09 1.53 1.7 2.785 1.711.537.92.793 3.006 1.358 1.079.518-.994.917-2.143 1.662-2.958 1.21.691-.168 3.152.184 4.412-.099 1.986.323 3.974.042 5.965.173 1.185-.996 4.202 1.111 2.764.728-.346.823-1.371 1.269-2.02.807-1.561.508-3.463 1.034-5.115 1.564-.401.144 4.344 1.653 2.839.44-1.606-.75-2.958-.881-4.735v-3.154c1.047-.318.57.888.671 1.515-.077 1.265.056 2.522.604 3.686 1.724.93 1.447-2.275 2.819-2.919 1.493-.597.654-3.711 2.164-3.372-.14 1.919-1.209 3.507-2.533 4.815-.543.914-.795 3.121-2.349 2.231 1.127 1.156-.152 3.581-1.544 3.171-.307-1.027-.332-2.23-.496-.474-.048 1.466-1.073 2.625-1.601 3.947-1.267.696-3.545 1.458-2.712-.899.155-2.525.338-5.053.028-7.574-.03-.828.422-3.432.01-2.92-.582 1.178-1.139 2.377-1.721 3.558-.721-1.079-.434-3.627-2.143-3.369-.947-.188-1.281-1.319-1.515.215-.419.453-.94 2.988-1.694 1.845-.184-1.394-.069-3.56-1.661-1.862-.293-1.133-.57-2.271-.856-3.406.939-.569.773.715 1.022 1.302-.054 1.927 2.007.049 2.25-.949q.216-.446.436-.89m26.306 8.506c1.789 3.624 3.684 7.206 5.604 10.771 1.037 2.53 2.289 5.001 2.726 7.723-.41 1.293 2.638 3.047 1.15 3.384-1.644-1.284-1.813-3.325-2.265-5.201-1.074-3.348-2.622-6.54-4.34-9.609-1.238-2.203-2.29-4.493-3.445-6.732zm-3.657 3.96c1.71.196-1.553 1.974.573 2.175 1.101.18.817 1.737 1.815 1.999 2.511.143-.272 3.716 2.31 3.191 1.239.975-.064 3.5 1.879 4.144 1.614.776 1.157 2.69 1.911 4.016.18 1.016.761.863 1.463.362.522-.346 1.566-.885 1.37.069q-1.366.678-2.731 1.358c-.725-1.405-1.371-2.852-1.527-4.446-1.422-1.07-2.71-2.259-2.487-4.213.338-1.498-2.516.028-1.763-1.858.989-1.917-1.224-1.67-1.681-2.956-.126-1.291-2.061-1.08-2.172-2.214.318-.56.719-1.068 1.04-1.627m-10.251 18.505c-.28.834-2.965 3.34-.98 1.757 1.027-.622 1.173-.218.988-1.595l-.006-.116zm-.402 5.956c1.94.33-2.413 2.198-1.478 2.245.569-.414 1.786-.361 1.154.357l-2.831.871c-.703-1.507 2.389-2.259 3.121-3.44zm.201 6.426c1.593.049-.873 1.659-1.325 2.348-1.739 1.413 2.066-1.401 1.761-.003-.728.511-3.371 2.173-4.284 1.253 1.143-1.301 2.781-2.15 3.848-3.598m-9.563 5.754c-.088 1.226-.322 2.768.857 1.243 1.312-.805-.138-.769-.857-1.243m-.57 14.848c-.029 1.152-.464 2.985 1.056 1.543 1.126-.489 1.969-1.373.158-1.358-.404-.066-.811-.122-1.214-.185m-.286 12.583c1.013.617 3.598.771 3.533 1.925-.725-.113-3.405-.731-3.533-1.604zm-4.613 42.395c-3.963.11-7.939-.018-11.895.118-1.71 1.09-3.686 1.805-5.023 3.382-1.012 1.423 1.699 2.641 3.093 2.322.703.467 3.212-.446 2.785.872-.656 1.905-2.798 2.239-4.211 3.389-.871 1.811 1.197 4.059 2.752 2.332.921-.875 1.716-.975 2.369.105 1.078.845-.756 3.122 1.607 2.999 1.543-.777 2.921-2.135 4.371-3.165.961-1.23 2.518-2.597 3.128-.274 1.413 1.208 3.185.908 4.873.796 2.073-.071 4.356-.349 5.547-2.302 1.938-.926 3.786.965 4.763 2.482 1.308.859 3.49.973 2.823-1.204-.514-1.425-.069-2.931 1.643-2.013 1.876.358 3.332 1.779 5.131 2.275-.109-1.368-.128-3.944 1.771-2.194 1.601 1.16 3.272 2.284 5.208 2.797.069-.808-.144-1.691.118-2.449 1.244-1.279 3.733 2.473 3.187-.386.26-.981-1.084-3.151.286-3.003 1.891.798 3.886 1.349 5.905 1.711-1.337-2.223-3.723-3.444-5.754-4.932-1.962-.817-4.034-1.464-6.18-1.423-2.316-.211-4.688-.115-6.973-.454-.978-.711-.817-.076-.638.132-1.366 1.958-3.807 1.579-5.873 1.948-2.887.276-5.804.565-8.539 1.592-1.89.246-3.562-1.422-4.93-2.584-.602-.833-.886-1.928-1.344-2.869" clip-rule="evenodd"/></svg>