<svg xmlns="http://www.w3.org/2000/svg" width="600" height="300" fill="none" viewBox="0 0 600 300"><path fill="#bf0d3e" d="M0 0h600v300H0z"/><path fill="#fff" d="M0 0h600v150H0z"/><path fill="#00205b" d="M0 0h200v300H0z"/><path fill="#fff" d="m97.973 82-20.276 62.403 27.734 9.012"/><path fill="#fff" d="m97.973 82 20.276 62.403-27.735 9.012"/><path fill="#fff" d="M160.377 127.339H94.762v29.162"/><path fill="#fff" d="m160.377 127.339-53.083 38.567-17.141-23.593"/><path fill="#fff" d="m136.541 200.698-20.276-62.403-27.735 9.011"/><path fill="#fff" d="m136.541 200.698-53.083-38.567 17.141-23.593"/><path fill="#fff" d="m59.406 200.698 53.084-38.567-17.141-23.593"/><path fill="#fff" d="m59.406 200.698 20.276-62.403 27.735 9.011"/><path fill="#fff" d="m35.57 127.339 53.084 38.567 17.141-23.593"/><path fill="#fff" d="M35.57 127.339h65.615v29.162"/></svg>