<svg xmlns="http://www.w3.org/2000/svg" width="600" height="300" fill="none" viewBox="0 0 600 300"><path fill="#fff" d="M0 0h600v300H0z"/><path fill="#071d49" d="M600 0v146l-60-34.801-30 17.409-90-52.193-29.983 17.392L300 41.614l-90.017 52.193L180 76.415l-90 52.193-30-17.409L0 146V0z"/><path fill="#aa0200" d="M600 185v115H0V185h180l120 71.964L420 185z"/><path fill="#071d49" d="M370 182.375v-80.25L300.506 62 231 102.125v80.25l69.506 40.125z"/><path fill="#ffb81d" d="m300.5 69.278-63.197 36.492v72.972l63.197 36.491 63.197-36.491V105.77zm60.187 107.725L300.5 211.756l-60.188-34.753v-69.494L300.5 72.756l60.187 34.753z"/><path fill="#ffb81d" d="M322.267 106.093h-43.502c-.836 0-1.26-1.025-.658-1.605 6.331-6.063 13.999-10.009 22.381-10.009s16.128 3.946 22.426 10.009c.601.58.189 1.605-.658 1.605zM332.22 121.653h-63.442c-1.249 0-2.051-1.327-1.483-2.43a61 61 0 0 1 4.147-6.877 5.4 5.4 0 0 1 4.436-2.307h49.264c1.773 0 3.433.869 4.436 2.318a61 61 0 0 1 4.124 6.866c.569 1.103-.234 2.43-1.482 2.43M337.96 137.201h-74.922a1.664 1.664 0 0 1-1.617-2.073c.636-2.452 1.282-4.77 1.962-6.81a3.98 3.98 0 0 1 3.79-2.731h66.663a4.005 4.005 0 0 1 3.79 2.731c.68 2.04 1.337 4.358 1.961 6.81a1.668 1.668 0 0 1-1.616 2.073zM341.338 152.761h-81.665a1.666 1.666 0 0 1-1.639-1.973 374 374 0 0 1 1.282-6.476 3.995 3.995 0 0 1 3.901-3.165h74.577a3.976 3.976 0 0 1 3.901 3.165c.457 2.185.881 4.358 1.282 6.476a1.666 1.666 0 0 1-1.639 1.973M308.268 168.309a1.67 1.67 0 0 1-1.672-1.661 6.05 6.05 0 0 0-1.783-4.302 6.08 6.08 0 0 0-4.313-1.783c-3.366 0-6.097 2.719-6.097 6.074 0 .914-.747 1.661-1.672 1.661h-35.7a1.657 1.657 0 0 1-1.65-1.906c.223-1.46.569-3.678 1.015-6.375a3.985 3.985 0 0 1 3.934-3.322h80.351a3.986 3.986 0 0 1 3.934 3.322c.446 2.697.791 4.915 1.014 6.375a1.657 1.657 0 0 1-1.649 1.906h-35.701z"/><path fill="#fff" d="m300.499 178.552 2.486 7.669h8.058l-6.52 4.737 2.496 7.657-6.52-4.737-6.52 4.737 2.485-7.657-6.509-4.737h8.047z"/></svg>