<svg xmlns="http://www.w3.org/2000/svg" width="600" height="300" fill="none"><g clip-path="url(#a)"><path fill="#fff" d="M0 0h600v300H0z"/><path fill="#369443" stroke="#010002" stroke-miterlimit="10" stroke-width="1.156" d="M211.561 208.187s-.398-2.693 4.716-4.667c5.114-1.975 5.512-9.336 4.489-14.244 0 0-2.671 4.668-5.91 6.224 0 0-5.284 2.753-5.526 8.012 0 0-.042 1.922-.44 3.418-.218.819-2.557-6.583 1.875-12.088 4.574-5.682 5.853-10.293 2.216-19.27 0 0-.341 5.446-3.921 8.558s-4.035 3.351-3.978 10.772c0 0 .057 2.573-1.306 3.411 0 0-2.785-4.069-3.524-6.762s-1.079-3.83 2.103-6.943c0 0 10.194-6.588 2.841-21.005 0 0-.227 4.967-3.751 7.9-3.523 2.932-3.239 4.907-3.409 9.994-.171 5.086-.512 4.727-.909 5.445 0 0-6.478-11.908-1.478-18.252s7.785-7.66 2.273-19.45c0 0 .245 6.045-4.168 9.037-4.412 2.993-3.389 9.994-3.389 9.994s.284 2.634-.625 4.548c0 0-6.242-12.174-.284-18.731 5.057-5.566 5.398-9.456 2.671-17.355 0 0-.341 3.651-3.126 5.625s-5 3.95-4.489 11.55c0 0 .228 5.326-.454 6.822 0 0-2.614-4.847-3.353-8.019-.738-3.172-1.023-5.027.909-8.199s9.604-12.268.455-25.374c0 0-.284 4.249-2.614 8.079s-1.25 8.379-.739 11.849c.512 3.471-1.193 6.823-1.193 6.823s-3.978-7.301-3.125-15.679c.852-8.379-2.557-15.261-10.285-20.228 0 0-5.626 13.046 2.045 19.689 0 0 6.535 6.463 8.183 14.303 0 0-4.944-.479-9.433-9.216s-13.808-7.361-14.433-7.421c0 0 1.534 13.525 15.854 17.355 0 0 9.148 1.557 10.853 8.259 0 0 1.534 4.608 2.16 7.061 0 0-2.898-1.136-5.569-5.086s-2.33-4.429-11.365-5.326c0 0-3.637-.42-5.569-2.993 0 0 3.807 14.303 13.581 14.183 0 0 8.921-.957 13.922 10.772 0 0-.966-.598-2.273-1.496s-4.603-2.573-11.138-1.795c-6.535.777-8.353-.3-10.001-.838 0 0 6.591 12.088 15.911 8.497s13.82 9.503 13.922 9.755c0 0-1.25-.958-2.898-2.574s-5.069-3.608-11.536-1.556c0 0-4.659 1.796-9.376.359 0 0 4.546 8.797 15.172 7.301s13.297 7.84 13.297 7.84-1.42-.838-2.387-1.616c-.965-.777-4.546-2.812-12.217-.538s-10.455-.359-10.455-.359 4.261 7.779 12.444 8.677c0 0 4.546-.06 6.478-.778s7.046-1.855 10.569 3.232c0 0-.966.179-2.443-.479 0 0-5.455-1.975-9.604 1.496 0 0-3.693 3.77-8.921 3.052 0 0 6.762 6.583 17.502 1.017 0 0 3.637-2.633 6.307-.598 2.672 2.036 8.866-1.974 8.866-1.974Z"/><path fill="#F4C53D" stroke="#010002" stroke-miterlimit="10" stroke-width="1.156" d="M271.339 46.01s-1.247-11.138 7.653-12.21c9.281-1.116 13.865.839 13.865.839l4.167 8.179-1.44 5.505-5.758 2.634s.985-8.458-6.768-8.634c-1.965-.045-3.119.734-6.227.24-3.124-.495-4.796 2.938-5.492 3.446Z"/><path fill="#F4C53D" stroke="#010002" stroke-miterlimit="10" stroke-width="1.156" d="M333.961 73.578c-1.326 1.715-6.63 2.314-6.63 2.314s5.455 4.189 7.804 10.173c2.349 5.985-63.227.04-63.227.04s2.842-2.035 4.774-5.865c0 0-2.898 1.077-5.796-1.795 0 0 2.159.718 5-3.59 0 0 4.205-5.387 7.16-6.823 0 0-1.364.838-4.66-.957 0 0 5.683-.719 7.728-10.413 0 0 .341-2.155 2.501-5.267s1.705.599 5.682-4.189c0 0 1.819-3.391.228-5.466-1.591-2.074-3.296-1.316-6.63-3.311s-4.811-3.112-3.675-6.184 4.092-2.593 4.508-2.593.645-2.673 4.282-4.509c3.636-1.835 13.297-1.037 14.736-.239s7.273 2.514 10.683 11.131c3.409 8.618-.909 11.85 8.372 24.856 0 0-3.712.797-6.099.08 0 0 4.811 8.537 13.259 12.607Z"/><path stroke="#010002" stroke-miterlimit="10" stroke-width="1.156" d="M293.387 37.212c-7.558-.36-4.659-7.56-4.659-7.56"/><path fill="#F4C53D" stroke="#010002" stroke-miterlimit="10" stroke-width="1.156" d="M306.514 38.2s-1.335-.629-2.465-2.125c-1.585-2.099-5.121-3.111-7.024-1.137 0 0-1.933 2.155-3.637 2.275 0 0 1.932.598 3.267 1.825 1.336 1.227 2.728 2.124 4.717 1.855s2.301-1.316 3.238-1.945a4.9 4.9 0 0 1 1.904-.748Z"/><path fill="#F4C53D" stroke="#010002" stroke-width="1.156" d="M355.667 145.83s7.047 5.745 12.956 0c0 0 2.387 2.872 7.16 2.034s5.569-3.351 6.023-4.787c0 0 4.13 2.409 7.615.506s3.485-4.775 3.485-4.775 6.062 1.195 9.168-2.914c3.106-4.108 1.212-8.177-.455-8.656 0 0 6.554 1.717 8.335-3.91 1.515-4.787-1.895-7.261-1.895-7.261s13.809-.066 19.472-4.388c0 0 4.698-2.953 1.895-6.064 0 0 12.425-1.995 15.532-6.942 0 0 1.364-1.357.909-3.75 0 0-.076-1.357-1.44-1.437 0 0 14.17-2.189 18.26-6.862 0 0 1.97-2.155.985-5.027 0 0-.208-.758-.549-1.267 0 0 12.899-2.723 19.263-8.468 0 0 3.674-3.273 1.78-7.662 0 0 21.556-5.903 16.555-15.398 0 0 10.077-3.272 6.895-12.368 0 0 8.334-4.229 4.697-10.931-3.48-6.415-14.168 1.117-26.823 4.618 0 0-34.244 10.782-51.108 13.651l-47.916 71.338-27.958 10.772z"/><path fill="#F4C53D" stroke="#010002" stroke-width="1.156" d="M355.326 93.286s4.491-3.371 12.501.598c0 0 2.697 1.857 4.819-.177 1.772-1.7 1.938-4.835-.5-6.645-5.967-4.428-8.183-17.714.909-23.22 0 0 13.184-7.82 61.525-20.121 0 0 4.051-1.123 6.21-.585 2.378.593 4.016 2.633 4.352 4.38 0 0 2.163 6.146-5.11 9.664 0 0-3.283 1.502-6.667 2.474 0 0 3.717-.804 5.303 2.872 1.516 3.511-.681 7.102-7.5 9.416 0 0-1.845.717-4.471 1.356 0 0 5.835 1.676 3.031 6.383 0 0-2.5 4.948-11.327 5.825 0 0 6.591.719 1.932 6.982 0 0-2.046 3.431-8.486 4.708 0 0 4.887.16 2.425 4.548-2.463 4.389-8.257 6.862-13.959 7.261 0 0-3.089.16-5.248-.319 0 0 5.417 2.713 2.235 7.261 0 0-2.349 3.231-8.22 3.072 0 0 1.524 5.079-2.785 7.002-3.352 1.496-6.137-.898-6.137-.898s1.137 5.446-3.75 7.361c0 0-2.444 1.257-6.08 0 0 0-2.785 6.224-12.672 1.855s-2.33-41.053-2.33-41.053Z"/><path stroke="#010002" stroke-width="1.156" d="M507.615 36.434s-15.532 8.993-63.903 17.986"/><path fill="#F4C53D" stroke="#010002" stroke-width="1.156" d="M230.226 195.461s-5.758 9.894-12.729 10.054c0 0-11.99-1.46-15.38 1.675-2.364 2.187-4.774 3.99-5.759 9.576-.984 5.585 1.894 6.782 2.576 7.021 0 0 .531 3.99 4.471 2.953 0 0 .227 4.149 7.197 2.154 6.971-1.995 9.85-1.356 11.214-8.299s2.623-6.828 3.864-7.66c1.667-1.117 4.799-2.173 7.122-3.511 2.087-1.202 10.077-5.266 12.804-5.585s2.122-9.495 2.122-9.495h-7.047l-3.409-5.027z"/><path stroke="#010002" stroke-width="1.156" d="M500.721 48.802S458.683 62.515 439.106 64.2m45.06 0s-24.662 7.742-53.541 12.627m32.497 3.503s-27.863 6.693-41.165 7.804"/><path stroke="#010002" stroke-miterlimit="10" stroke-width="1.156" d="M444.427 93.486s-23.568 4.915-29.539 5.506"/><path fill="#0081C6" stroke="#010002" stroke-miterlimit="10" stroke-width="1.156" d="m417.898 129.33 1.18 37.396-6.603-3.83-10.993 47.456-4.536-3.258 10.701-45.466-7.461.137z"/><path stroke="#010002" stroke-miterlimit="10" stroke-width="1.156" d="M429.426 105.614s-17.199 2.614-24.044 2.474m2.678 7.979s-6.954-.326-10.296-.881m3.856 12.052s-5.91-1.595-9.395-3.83m.682 15.4s-4.546-1.755-6.743-6.543m-4.357 10.812s-3.523-3.152-3.75-6.663"/><path fill="#0081C6" stroke="#010002" stroke-miterlimit="10" stroke-width="1.156" d="m460.609 145.959-15.629 33.602-4.122-6.647-32.995 38.988-3.573-4 32.87-38.494-6.649-3.568z"/><path stroke="#010002" stroke-miterlimit="10" stroke-width="1.156" d="M368.623 145.83s1.319-1.138.417-6.084"/><path fill="#0081C6" stroke="#010002" stroke-miterlimit="10" stroke-width="1.156" d="m446.354 121.293-8.05 36.444-5.437-5.5-29.531 56.783-4.551-2.656 29.73-56.668-7.241-1.901z"/><path stroke="#010002" stroke-miterlimit="10" stroke-width="1.156" d="M370.327 132.484s.682-1.416.455-3.65"/><path fill="#F4C53D" stroke="#010002" stroke-width="1.156" d="M252.418 145.83s-7.046 5.745-12.956 0c0 0-2.387 2.873-7.16 2.035s-5.569-3.352-6.023-4.788c0 0-4.13 2.409-7.615.506s-3.485-4.775-3.485-4.775-6.061 1.195-9.168-2.914c-3.106-4.108-1.212-8.177.455-8.656 0 0-6.554 1.717-8.335-3.91-1.515-4.787 1.895-7.261 1.895-7.261s-13.809-.066-19.472-4.388c0 0-4.698-2.953-1.894-6.064 0 0-12.426-1.995-15.532-6.942 0 0-1.364-1.357-.909-3.75 0 0 .075-1.357 1.439-1.437 0 0-14.17-2.189-18.26-6.862 0 0-1.97-2.155-.985-5.027 0 0 .209-.758.55-1.267 0 0-12.899-2.723-19.264-8.468 0 0-3.674-3.273-1.78-7.662 0 0-21.556-5.903-16.556-15.398 0 0-10.076-3.272-6.894-12.368 0 0-8.335-4.229-4.698-10.931 3.48-6.415 14.169 1.117 26.824 4.618 0 0 34.244 10.782 51.108 13.651l47.916 71.338 27.957 10.772z"/><path stroke="#010002" stroke-miterlimit="10" stroke-width="1.156" d="M395.18 61.648s-7.956 3.192-10.607 7.58c-2.652 4.39-.906 8.655 0 11.102.455 1.23 6.061 12.039-.531 19.858"/><path fill="#F4C53D" stroke="#010002" stroke-width="1.156" d="M252.759 93.286s-4.491-3.371-12.501.599c0 0-2.697 1.857-4.819-.178-1.772-1.7-1.939-4.835.5-6.645 5.967-4.428 8.183-17.714-.909-23.22 0 0-13.183-7.819-61.525-20.121 0 0-4.051-1.123-6.21-.584-2.378.593-4.015 2.633-4.351 4.378 0 0-2.164 6.148 5.109 9.665 0 0 3.283 1.503 6.667 2.474 0 0-3.717-.804-5.303 2.872-1.515 3.511.682 7.102 7.5 9.416 0 0 1.845.718 4.471 1.357 0 0-5.834 1.675-3.031 6.383 0 0 2.501 4.947 11.327 5.825 0 0-6.591.718-1.932 6.981 0 0 2.046 3.432 8.486 4.708 0 0-4.887.16-2.424 4.548 2.462 4.389 8.257 6.863 13.959 7.262 0 0 3.088.159 5.248-.319 0 0-5.418 2.713-2.235 7.261 0 0 2.348 3.231 8.22 3.072 0 0-1.524 5.079 2.785 7.001 3.352 1.496 6.137-.897 6.137-.897s-1.137 5.446 3.75 7.361c0 0 2.444 1.256 6.08 0 0 0 2.785 6.224 12.672 1.855s2.329-41.054 2.329-41.054Z"/><path stroke="#010002" stroke-miterlimit="10" stroke-width="1.156" d="M395.066 108.686s-.038-.04-2.841-.917m19.623-10.573s-4.742.955-9.395.998m15.949-12.687s-5.569.558-10.797.478m19.093-12.687s-8.031 1.596-12.35 1.676m19.017-15.32s-9.904 2.827-17.275 3.83m-16.365 5.824s7.122 6.623-1.439 12.767c0 0 3.56 5.586-3.562 11.41"/><path fill="#F4C53D" stroke="#010002" stroke-width="1.156" d="M253.346 149.85s-1.451 7.789-12.956 17.593c0 0-8.876 7.83-8.649 16.847.232 9.181-1.591 10.213-5.076 13.325 0 0 7.198.559 10.683-4.229 0 0-.151 7.979-1.212 8.697 0 0 2.257.144 5.53-3.431 0 0 1.97-2.074 3.789-2.872 0 0-2.121 5.505-.455 10.612 0 0 .531-1.995 3.334-2.872 0 0 5.076-1.038 7.046-8.379 0 0 1.288-4.867 9.244-9.176 0 0 9.016-3.401 8.789-7.844s-20.067-28.271-20.067-28.271Z"/><path stroke="#010002" stroke-miterlimit="10" stroke-width="1.156" d="M396.619 96.239s1.06 10.651-11.971 10.651c0 0 2.5 9.496-10.077 9.177 0 0-1.44 7.58-10.532 6.064"/><path fill="#F4C53D" stroke="#010002" stroke-width="1.156" d="M377.871 195.461s5.759 9.894 12.729 10.054c0 0 11.99-1.46 15.381 1.675 2.364 2.187 4.773 3.99 5.758 9.576.985 5.585-1.895 6.782-2.576 7.021 0 0-.531 3.99-4.471 2.953 0 0-.227 4.149-7.198 2.154-6.97-1.995-9.849-1.356-11.213-8.299s-2.623-6.828-3.864-7.66c-1.667-1.117-4.799-2.173-7.122-3.511-2.088-1.202-10.077-5.266-12.804-5.585s-2.122-9.495-2.122-9.495h7.046l3.41-5.027z"/><path fill="#F4C53D" stroke="#010002" stroke-width="1.156" d="M354.753 149.85s1.451 7.789 12.955 17.593c0 0 8.877 7.83 8.649 16.847-.231 9.181 1.591 10.213 5.076 13.325 0 0-7.197.559-10.683-4.229 0 0 .152 7.979 1.213 8.697 0 0-2.258.144-5.531-3.431 0 0-1.97-2.074-3.788-2.872 0 0 2.121 5.505.454 10.612 0 0-.53-1.995-3.333-2.872 0 0-5.077-1.038-7.047-8.379 0 0-1.288-4.867-9.243-9.176 0 0-9.016-3.401-8.789-7.844s20.067-28.271 20.067-28.271Z"/><path stroke="#010002" stroke-width="1.156" d="M384.066 205.515s2.062.459 6.535 0"/><path stroke="#010002" stroke-miterlimit="10" stroke-width="1.156" d="M403.179 211.1s6.289-.957 5.985 12.688m-9.773-9.576s5.682-.718 5.303 12.528"/><path stroke="#010002" stroke-width="1.156" d="M344.535 182.295s2.728.559 4.622 2.713 5.531 1.756 5.531 1.756-1.97-1.596-2.652-5.586-2.879-5.186-2.879-5.186m6.507-3.779s2.728.559 4.622 2.713 5.53 1.756 5.53 1.756-1.969-1.596-2.651-5.586-2.879-5.186-2.879-5.186m-2.747 21.791s2.382.488 4.036 2.369 4.829 1.533 4.829 1.533-1.72-1.394-2.315-4.877c-.596-3.484-2.514-4.529-2.514-4.529"/><path fill="#F4C53D" stroke="#010002" stroke-miterlimit="10" stroke-width="1.156" d="M312.962 250.278s2.066 9.115 9.244 8.379c0 0 5.076-.479 4.698-8.937 0 0 7.5 3.99 8.713-5.905 0 0 6.818 1.596 6.743-7.66 0 0 6.365 1.117 5.607-7.102 0 0 6.894 1.836 6.894-5.904 0 0 16.138-2.676-17.501-33.354l-30.004 17.874z"/><path fill="#F4C53D" stroke="#010002" stroke-width="1.156" d="M309.628 209.377s5.001 4.436 8.562-2.187c0 0 4.849-.239 5.607-3.91 0 0 3.94-.399 4.697-4.149 0 0 5.38-.558 5.228-5.107 0 0 9.78-.755.003-11.827-9.777-11.073-26.37 18.371-26.37 18.371z"/><path stroke="#010002" stroke-miterlimit="10" stroke-width="1.156" d="M326.903 249.72s-.758-16.039-14.658-39.019m23.371 33.114s2.16-9.256-17.426-36.625c0 0 2.273-6.542-4.697-10.732m28.866 39.697s.606-10.014-18.562-32.875c0 0 1.693-5.904-5.253-10.612m29.422 36.385s-.72-10.133-19.472-29.922c0 0 .938-6.064-5.782-9.814m32.149 33.832s-1.364-11.57-21.139-29.125c0 0 .682-4.548-5.91-9.176"/><path fill="#F4C53D" stroke="#010002" stroke-miterlimit="10" stroke-width="1.156" d="M295.136 250.278s-2.065 9.115-9.243 8.379c0 0-5.076-.479-4.698-8.937 0 0-7.5 3.99-8.713-5.905 0 0-6.819 1.596-6.743-7.66 0 0-6.365 1.117-5.607-7.102 0 0-6.895 1.836-6.895-5.904 0 0-16.138-2.676 17.502-33.354l30.003 17.874z"/><path fill="#F4C53D" stroke="#010002" stroke-width="1.156" d="M298.47 209.377s-5.001 4.436-8.562-2.186c0 0-4.849-.24-5.607-3.91 0 0-3.94-.399-4.697-4.149 0 0-5.38-.559-5.228-5.107 0 0-9.78-.755-.003-11.828s26.37 18.371 26.37 18.371z"/><path stroke="#010002" stroke-miterlimit="10" stroke-width="1.156" d="M281.195 249.72s.757-16.039 14.658-39.019m-23.371 33.114s-2.16-9.256 17.426-36.625c0 0-2.273-6.543 4.697-10.732"/><path fill="#F4C53D" stroke="#010002" stroke-width="1.156" d="M304.049 206.632c4.848 0 10.34 30.282 8.915 48.525-.518 6.626-4.067 12.038-8.915 12.038s-8.397-5.412-8.914-12.038c-1.426-18.243 4.067-48.525 8.914-48.525Z"/><path stroke="#010002" stroke-miterlimit="10" stroke-width="1.156" d="M265.739 236.155s-.606-10.014 18.562-32.874c0 0-1.693-5.905 5.253-10.613m-29.422 36.386s.72-10.134 19.472-29.923c0 0-.938-6.064 5.781-9.814"/><path fill="#F4C53D" stroke="#010002" stroke-width="1.156" d="M304.049 216.326c3.705 0 6.708-4.448 6.708-9.934s-3.003-9.934-6.708-9.934-6.707 4.448-6.707 9.934 3.003 9.934 6.707 9.934Z"/><path stroke="#010002" stroke-miterlimit="10" stroke-width="1.156" d="M253.237 223.149s1.364-11.57 21.139-29.125c0 0-.682-4.548 5.91-9.176"/><path fill="#fff" stroke="#010002" stroke-width="1.156" d="M304.049 204.222s56.888-25.209 57.03-83.527h-114.06c.142 58.318 57.03 83.527 57.03 83.527Z"/><path stroke="#010002" stroke-miterlimit="10" stroke-width="1.156" d="M273.341 120.695h8.774m-26.322 0h8.774m26.322 0h8.773"/><path fill="#A60032" stroke="#010002" stroke-width="1.156" d="M255.793 120.695v37.262s4.357 8.643 8.774 14.063v-51.325zm17.548 0v61.425s5.486 5.38 8.774 7.973v-69.398zm17.548 0v75.926s6.259 4.043 8.774 5.37v-81.296z"/><path stroke="#010002" stroke-width="1.156" d="M255.793 120.695h8.774m8.774 0h8.774m8.774 0h8.773"/><path fill="#A60032" stroke="#010002" stroke-width="1.156" d="M352.305 120.695v37.262s-4.357 8.643-8.773 14.063v-51.325zm-17.548 0v61.425s-5.487 5.38-8.774 7.973v-69.398zm-17.547 0v75.926s-6.26 4.043-8.774 5.37v-81.296z"/><path fill="#0081C6" stroke="#010002" stroke-miterlimit="10" stroke-width="1.156" d="m396.021 226.335-2.212 9.045 6.056 6.032-8.559 36.153-7.613-10.225-11.28 5.264 8.559-36.153 7.935-2.212 2.061-9.028s2.4-.94 5.053 1.124Z"/><path fill="#0081C6" stroke="#010002" stroke-miterlimit="10" stroke-width="1.156" d="m398.048 220.372-4.359 8.133 4.367 7.477-17.153 32.588-4.84-11.952-12.19 2.011 17.152-32.588 8.209.026 4.208-8.159c.001 0 3.063-.006 4.606 2.464Z"/><path fill="#0081C6" stroke="#010002" stroke-miterlimit="10" stroke-width="1.156" d="m398.784 222.737-11.594 14.731 2.657 8.32-23.673 27.69-2.163-12.793-12.307-.929 23.673-27.689 7.993 1.97 12.299-15.638s3.298 1.638 3.115 4.338Z"/><path stroke="#010002" stroke-width="1.156" d="M100.47 36.434s15.532 8.993 63.903 17.986m-57.009-5.618S149.403 62.515 168.98 64.2m-45.06 0s24.661 7.742 53.541 12.627m-32.498 3.503s27.863 6.692 41.165 7.804"/><path stroke="#010002" stroke-miterlimit="10" stroke-width="1.156" d="M163.658 93.486s23.568 4.915 29.539 5.506m-14.537 6.622s17.199 2.614 24.044 2.474m-2.678 7.979s6.954-.327 10.296-.881m-3.856 12.052s5.91-1.596 9.395-3.83m-.682 15.4s4.546-1.755 6.743-6.543m4.357 10.812s3.523-3.152 3.751-6.663m9.432 9.416s-1.319-1.138-.416-6.084m-1.288-7.262s-.682-1.416-.455-3.65m-24.397-67.186s7.955 3.192 10.607 7.58c2.652 4.39.906 8.654 0 11.102-.455 1.23-6.061 12.038.531 19.858m-11.024 8.498s.038-.04 2.841-.918m-19.623-10.572s4.741.955 9.395.998m-15.949-12.688s5.569.559 10.797.48"/><path fill="#369443" stroke="#010002" stroke-miterlimit="10" stroke-width="1.156" d="M210.381 224.712s-.17-4.847 5.967-5.206l18.069 25.133s-.682 1.616-8.864 1.436c0 0-.867-.005-1.321.952-.698 1.47-13.851-22.315-13.851-22.315Z"/><path stroke="#010002" stroke-miterlimit="10" stroke-width="1.156" d="M181.388 73.298s8.031 1.596 12.35 1.676m-19.017-15.32s9.904 2.827 17.275 3.83m16.365 5.825s-7.122 6.623 1.439 12.767c0 0-3.561 5.585 3.561 11.41m-1.894 2.753s-1.06 10.651 11.971 10.652c0 0-2.5 9.496 10.077 9.177 0 0 1.439 7.58 10.532 6.064"/><path stroke="#010002" stroke-width="1.156" d="M224.014 205.515s-2.062.459-6.535 0"/><path stroke="#010002" stroke-miterlimit="10" stroke-width="1.156" d="M204.901 211.1s-6.288-.957-5.985 12.688m9.774-9.576s-5.683-.718-5.304 12.528"/><path stroke="#010002" stroke-width="1.156" d="M263.563 182.295s-2.728.559-4.622 2.713-5.53 1.755-5.53 1.755 1.969-1.596 2.651-5.585c.682-3.99 2.879-5.187 2.879-5.187m-6.507-3.778s-2.727.559-4.621 2.713-5.531 1.756-5.531 1.756 1.97-1.596 2.652-5.586 2.879-5.186 2.879-5.186m2.746 21.791s-2.382.487-4.035 2.368-4.83 1.533-4.83 1.533 1.721-1.394 2.316-4.877c.595-3.484 2.514-4.529 2.514-4.529"/><path fill="#162667" stroke="#010002" stroke-miterlimit="10" stroke-width="1.156" d="M361.079 78.325s-27.915 14.602-57.03-1.197c-29.116 15.8-57.03 1.197-57.03 1.197v42.37h114.06z"/><path fill="#0081C6" stroke="#010002" stroke-miterlimit="10" stroke-width="1.156" d="M104.985 188.202c2.764-1.128 4.755-2.218 4.747-5.167q-.002-1.055-1.177-4.667l-18.561-56.727c-1.1-3.369-1.93-5.373-2.316-6.111-.834-1.598-2.472-2.248-4.678-3.167h23.591c-2.563 1.211-4.9 2.173-4.878 4.889.009 1.038.301 2.501.902 4.39l14.219 44.514 14.205-44.514c.602-1.889.913-3.352.903-4.39-.027-2.792-2.46-3.798-4.851-4.889h22.863c-2.091.838-3.794 1.494-4.67 3.167-.386.738-1.216 2.742-2.315 6.111l-18.56 56.727c-.786 2.408-1.07 3.99-1.178 4.722 0 0-.854 3.588 4.747 5.112zm395.543-5.834v-64.227q0-1.666-.549-2.556c-.366-.592-1.961-2.3-4.236-3.222H517c-2.275.753-3.87 2.583-4.236 3.194q-.549.916-.549 2.584v64.227q0 1.722.569 2.639c.378.611 1.941 2.103 4.216 3.195h-21.257c2.275-1.036 3.87-2.63 4.236-3.223q.549-.889.549-2.611Z"/></g><defs><clipPath id="a"><path fill="#fff" d="M0 0h600v300H0z"/></clipPath></defs></svg>