<svg xmlns="http://www.w3.org/2000/svg" width="600" height="300" fill="none"><g clip-path="url(#a)"><path fill="#B22234" d="M0 0h600v300H0z"/><path fill="#000" d="M0 34.615h600ZM600 80.77H0ZM0 126.923h600Zm600 46.154H0ZM0 219.231h600Zm600 46.154H0Z"/><path stroke="#fff" stroke-width="23.077" d="M0 34.615h600m0 46.154H0m0 46.154h600m0 46.154H0m0 46.154h600m0 46.154H0"/><path fill="#3C3B6E" d="M0 0h228v161.538H0z"/><path fill="#fff" d="m19 6.925 5.426 16.699-14.204-10.32H27.78l-14.205 10.32zM19 39.233l5.426 16.698-14.204-10.32H27.78l-14.205 10.32zM19 71.54l5.426 16.699-14.204-10.32H27.78l-14.205 10.32zM19 103.848l5.426 16.699-14.204-10.321H27.78l-14.205 10.321zM19 136.155l5.426 16.699-14.204-10.321H27.78l-14.205 10.321zM38 23.08l5.426 16.698-14.204-10.32H46.78l-14.205 10.32zM38 55.387l5.426 16.699-14.204-10.32H46.78l-14.205 10.32zM38 87.695l5.426 16.698-14.204-10.32H46.78l-14.205 10.32zM38 120.003l5.426 16.698-14.204-10.32H46.78l-14.205 10.32zM57 6.925l5.426 16.699-14.204-10.32H65.78l-14.205 10.32zM57 39.233l5.426 16.698-14.204-10.32H65.78l-14.205 10.32zM57 71.54l5.426 16.699-14.204-10.32H65.78l-14.205 10.32zM57 103.848l5.426 16.699-14.204-10.321H65.78l-14.205 10.321zM57 136.155l5.426 16.699-14.204-10.321H65.78l-14.205 10.321zM76 23.08l5.426 16.698-14.204-10.32H84.78l-14.205 10.32zM76 55.387l5.426 16.699-14.204-10.32H84.78l-14.205 10.32zM76 87.695l5.426 16.698-14.204-10.32H84.78l-14.205 10.32zM76 120.003l5.426 16.698-14.204-10.32H84.78l-14.205 10.32zM95 6.925l5.426 16.7-14.204-10.321h17.558l-14.205 10.32zM95 39.233l5.426 16.699-14.204-10.32h17.558l-14.205 10.32zM95 71.54l5.426 16.7-14.204-10.32h17.558L89.575 88.24zM95 103.849l5.426 16.698-14.204-10.32h17.558l-14.205 10.32zM95 136.155l5.426 16.699-14.204-10.32h17.558l-14.205 10.32zM114 23.08l5.425 16.698-14.204-10.32h17.558l-14.205 10.32zM114 55.387l5.425 16.699-14.204-10.32h17.558l-14.205 10.32zM114 87.695l5.425 16.699-14.204-10.32h17.558l-14.205 10.32zM114 120.003l5.425 16.698-14.204-10.32h17.558l-14.205 10.32zM133.001 6.925l5.425 16.699-14.204-10.32h17.558l-14.205 10.32zM133.001 39.233l5.425 16.699-14.204-10.32h17.558l-14.205 10.32zM133.001 71.54l5.425 16.7-14.204-10.321h17.558l-14.205 10.32zM133.001 103.848l5.425 16.699-14.204-10.32h17.558l-14.205 10.32zM133.001 136.155l5.425 16.699-14.204-10.321h17.558l-14.205 10.321zM152.001 23.08l5.425 16.698-14.204-10.32h17.558l-14.205 10.32zM152.001 55.387l5.425 16.699-14.204-10.32h17.558l-14.205 10.32zM152.001 87.695l5.425 16.698-14.204-10.32h17.558l-14.205 10.32zM152.001 120.003l5.425 16.698-14.204-10.32h17.558l-14.205 10.32zM171.001 6.924l5.425 16.7-14.204-10.321h17.558l-14.205 10.32zM171.001 39.232l5.425 16.699-14.204-10.32h17.558l-14.205 10.32zM171.001 71.54l5.425 16.698-14.204-10.32h17.558l-14.205 10.32zM171.001 103.848l5.425 16.698-14.204-10.32h17.558l-14.205 10.32zM171.001 136.154l5.425 16.699-14.204-10.32h17.558l-14.205 10.32zM190.001 23.079l5.425 16.698-14.204-10.32h17.558l-14.205 10.32zM190.001 55.386l5.425 16.699-14.204-10.32h17.558l-14.205 10.32zM190.001 87.694l5.425 16.699-14.204-10.32h17.558l-14.205 10.32zM190.001 120.002l5.425 16.698-14.204-10.32h17.558l-14.205 10.32zM208.999 6.924l5.425 16.699-14.204-10.32h17.558l-14.205 10.32zM208.999 39.232l5.425 16.699-14.204-10.32h17.558l-14.205 10.32zM208.999 71.54l5.425 16.698-14.204-10.32h17.558l-14.205 10.32zM208.999 103.847l5.425 16.699-14.204-10.32h17.558l-14.205 10.32zM208.999 136.154l5.425 16.699-14.204-10.32h17.558l-14.205 10.32z"/></g><defs><clipPath id="a"><path fill="#fff" d="M0 0h600v300H0z"/></clipPath></defs></svg>