<svg xmlns="http://www.w3.org/2000/svg" width="600" height="300" fill="none"><g clip-path="url(#a)"><mask id="b" width="600" height="300" x="0" y="0" maskUnits="userSpaceOnUse" style="mask-type:luminance"><path fill="#fff" d="M0 0h600v300H0z"/></mask><g mask="url(#b)"><mask id="c" width="602" height="300" x="-1" y="0" maskUnits="userSpaceOnUse" style="mask-type:luminance"><path fill="#fff" d="M-.023 0h600.029v300H-.022z"/></mask><g fill-rule="evenodd" clip-rule="evenodd" mask="url(#c)"><path fill="#000001" d="M-112.523 0h900v100.019h-900z"/><path fill="#C00" d="M0 0h600v300H0z"/></g></g><path fill="gold" d="m102 24-4.714 14.533H82.028l12.343 8.982-4.715 14.534 12.343-8.982 12.344 8.982-4.714-14.534 12.343-8.981h-15.257zm0 7.572 3.018 9.301h9.765l-7.9 5.749 3.017 9.301-7.9-5.748-7.9 5.748 3.018-9.301-7.9-5.749h9.765zM68.288 100.01l10.45 10.512 9.855-9.777c14.991 16.061 30.714 31.543 45.589 47.666a5.744 5.744 0 0 0 8.122.028 5.73 5.73 0 0 0 1.696-4.051 5.73 5.73 0 0 0-1.668-4.062c-15.966-15.048-31.981-30.219-47.952-45.321l13.277-13.173-18.471-2.554z"/><path fill="gold" d="M102 65.975c8.597 4.836 15.124 11.778 18.975 19.034 3.902 7.355 5.617 15.032 5.653 21.171.072 12.587-10.215 22.792-22.816 22.792a22.77 22.77 0 0 1-16.944-7.528l-2.31 1.943a3.45 3.45 0 0 0-3.862.99 4.33 4.33 0 0 0-3.55 2.929c-1.736 3.481-4.783 6.209-8.47 7.459a1 1 0 0 0-.098.044c-1.705.623-3.414 1.75-4.87 3.21-2.876 2.899-4.281 6.607-3.49 9.209a2.2 2.2 0 0 0-.119.703 2.176 2.176 0 0 0 3.051 1.989c2.6.586 6.133-.856 8.895-3.63 1.566-1.578 2.74-3.444 3.314-5.275 1.285-3.665 4.043-6.651 7.548-8.331a1.5 1.5 0 0 0 .212-.124 4.32 4.32 0 0 0 2.34-2.885c5.376 6.334 13.437 10.378 22.449 10.59 16.528.389 28.883-11.765 29.454-29.241.287-8.796-3.119-20.137-10.882-29.438-5.933-7.109-14.631-13.01-24.48-15.61"/></g><defs><clipPath id="a"><path fill="#fff" d="M0 0h600v300H0z"/></clipPath></defs></svg>