<svg xmlns="http://www.w3.org/2000/svg" width="600" height="300" fill="none"><g clip-path="url(#a)"><path fill="#D21034" d="M600 0H0v150h600z"/><path fill="#009543" d="M600 150H0v150h600z"/><path fill="#000" d="m0 0 349.145 150L0 300z"/><path fill="#000" d="M600 123.158H0v53.684h600z"/><path fill="#FDCE12" d="M0 21.317 299.527 150 0 278.683z"/><path fill="#FDCE12" d="M600 142.105H0v15.79h600z"/><path fill="#000" d="m0 39 254 111L0 261z"/><path fill="#FDCE12" d="M69.094 182.489v19.332c16.826 0 49.906-12.888 49.906-54.488S83.7 98 73.175 98C62.578 98 30 105.59 30 139.529c0 34.082 32.006 37.232 38.307 37.232 6.3 0 29.929-5.728 27.208-31.218a25.42 25.42 0 0 1-25.347 22.554c-17.184 0-27.924-12.745-27.924-25.346s10.453-29.5 28.569-29.5c18.115 0 31.361 16.11 31.361 32.292 0 16.253-12.745 36.875-33.08 36.875z"/><path fill="#FDCE12" stroke="#FDCE12" stroke-width=".642" d="m54.273 157.214 1.002.716s8.02-18.259 29.428-31.218c-2.721 1.432-17.041 8.592-30.43 30.502Z"/><path fill="#FDCE12" d="M56.349 154.064s-2.435-5.012-.286-7.304c2.148-2.219 1.217 5.943 1.217 5.943l.93-1.36s-1.431-6.158.144-7.447c1.647-1.36.859 5.943.859 5.943l1.002-1.289s-1.074-6.014.502-7.16c1.646-1.145.644 5.728.644 5.728l1.146-1.432s-.86-5.728 1.074-7.088c1.933-1.361.214 5.441.214 5.441l1.29-1.432s-.574-5.226 1.073-6.444c1.647-1.145.287 5.012.287 5.012l1.145-1.288s-.358-4.869 1.217-6.015c1.647-1.146.144 4.654.144 4.654l1.217-1.145s-.287-4.941 1.718-5.872-.358 4.583-.358 4.583l1.432-1.146s.358-5.728 2.077-6.229c1.718-.573-.716 5.012-.716 5.012l1.217-1.003s.644-4.868 2.506-5.441c1.933-.645-1.146 4.439-1.146 4.439l1.218-.931s1.36-4.869 3.15-5.441c1.718-.502-1.862 4.654-1.862 4.654l1.218-.86s1.933-4.439 3.58-4.725c1.503-.287-1.862 3.651-1.862 3.651l1.504-.859s2.506-4.582 3.437-3.222c.859 1.432-3.58 3.509-3.58 3.509l-1.433.859s5.37-2.578 6.015-1.289-7.375 2.148-7.375 2.148l-1.289.859s5.37-1.432 4.726-.071c-.716 1.36-6.015 1.074-6.015 1.074l-1.217.859s5.37-1.289 4.654 0c-.716 1.145-5.943 1.074-5.943 1.074l-1.288 1.074s5.226-1.432 4.439.215c-.716 1.575-6.73 1.503-6.73 1.503l-1.433 1.432s5.514-1.933 5.012-.429c-.43 1.432-6.73 2.148-6.73 2.148l-1.432 1.432s5.943-1.933 4.153-.143c-1.719 1.861-6.086 2.291-6.086 2.291l-1.647 2.148s5.871-3.58 5.012-1.575c-.788 2.004-6.587 3.365-6.587 3.365l-1.146 1.432s5.298-3.079 4.726-1.432c-.502 1.79-6.158 3.58-6.158 3.58l-.93 1.289s6.228-3.724 5.727-1.79c-.573 1.861-6.515 3.222-6.515 3.222l-.716 1.217s5.727-3.365 5.727-1.718c.144 1.575-6.73 3.15-6.73 3.15z"/><path fill="#FDCE12" stroke="#FDCE12" stroke-width=".642" d="m88.355 157.214-1.003.716s-8.02-18.259-29.428-31.218c2.72 1.432 17.041 8.592 30.43 30.502Z"/><path fill="#FDCE12" d="M86.277 154.064s2.435-5.012.287-7.304c-2.148-2.219-1.218 5.943-1.218 5.943l-.93-1.36s1.431-6.158-.144-7.447c-1.647-1.36-.859 5.943-.859 5.943l-1.002-1.289s1.074-6.014-.502-7.16c-1.646-1.145-.644 5.728-.644 5.728l-1.146-1.432s.86-5.728-1.074-7.088c-1.933-1.361-.214 5.441-.214 5.441l-1.29-1.432s.574-5.226-1.073-6.444c-1.647-1.145-.287 5.012-.287 5.012l-1.145-1.288s.358-4.869-1.217-6.015c-1.647-1.146-.144 4.654-.144 4.654l-1.217-1.145s.287-4.941-1.718-5.872.358 4.583.358 4.583l-1.432-1.146s-.358-5.728-2.077-6.229c-1.718-.573.716 5.012.716 5.012l-1.217-1.003s-.644-4.868-2.506-5.441c-1.933-.645 1.146 4.439 1.146 4.439l-1.218-.931s-1.36-4.869-3.15-5.441c-1.718-.502 1.862 4.654 1.862 4.654l-1.218-.86s-1.933-4.439-3.58-4.725c-1.503-.287 1.862 3.651 1.862 3.651l-1.504-.859s-2.506-4.582-3.436-3.222c-.86 1.432 3.58 3.509 3.58 3.509l1.432.859s-5.37-2.578-6.015-1.289 7.375 2.148 7.375 2.148l1.289.859s-5.37-1.432-4.726-.071c.716 1.36 6.015 1.074 6.015 1.074l1.217.859s-5.37-1.289-4.654 0c.716 1.145 5.943 1.074 5.943 1.074l1.288 1.074s-5.226-1.432-4.439.215c.716 1.575 6.73 1.503 6.73 1.503l1.433 1.432s-5.514-1.933-5.012-.429c.43 1.432 6.73 2.148 6.73 2.148l1.432 1.432s-5.943-1.933-4.153-.143c1.719 1.861 6.086 2.291 6.086 2.291l1.647 2.148s-5.871-3.58-5.012-1.575c.788 2.004 6.587 3.365 6.587 3.365l1.146 1.432s-5.298-3.079-4.726-1.432c.502 1.79 6.158 3.58 6.158 3.58l.93 1.289s-6.228-3.724-5.727-1.79c.573 1.861 6.515 3.222 6.515 3.222l.716 1.217s-5.728-3.365-5.728-1.718c-.143 1.575 6.73 3.15 6.73 3.15z"/></g><defs><clipPath id="a"><path fill="#fff" d="M0 0h600v300H0z"/></clipPath></defs></svg>