<svg xmlns="http://www.w3.org/2000/svg" width="600" height="300" fill="none"><g clip-path="url(#a)"><path fill="#fff" d="M300 0h300v300H300z"/><path fill="#FFE000" d="M0 0h300v300H0z"/><path fill="#fff" stroke="#000" stroke-linecap="round" stroke-linejoin="round" stroke-width=".459" d="m438.751 119.708 2.325.545 3.674.603 1.694.187-.287 7.176s-.416 4.736-1.12 7.018c-.516 1.679-2.253 4.765-2.253 4.765l-1.105 1.679-6.516-5.64s1.12-1.579 1.521-2.44c.503-1.077 1.106-3.416 1.106-3.416l.631-3.731.345-4.694zm-8.181 21.743 5.942 5.167s-1.205 1.062-1.923 1.392a10.6 10.6 0 0 1-4.535 1.048 8.3 8.3 0 0 1-3.201-.89c-2.253-1.033-4.736-2.11-6.2-4.119-.516-.717-.717-1.665-.703-2.54.029-1.005.904-2.856.904-2.856s.345 1.248.732 1.722c.7.772 1.563 1.38 2.526 1.78a6.102 6.102 0 0 0 5.195.158c.474-.187 1.278-.862 1.278-.862z"/><path fill="#fff" stroke="#000" stroke-linecap="round" stroke-linejoin="round" stroke-width=".459" d="M421.199 103.548s.459.947.603 1.45c.258.861.43 1.765.43 2.669-.045.905-.2 1.802-.459 2.67a24.5 24.5 0 0 1-1.478 3.774c-.374.775-.862 1.479-1.235 2.268-.588 1.249-1.004 2.583-1.521 3.846-.431 1.077-.99 2.11-1.32 3.215-.431 1.464-.646 3-.862 4.507a33 33 0 0 0-.33 3.947c0 1.578.043 3.157.33 4.678.287 1.522.718 3.043 1.407 4.45a11.35 11.35 0 0 0 4.564 4.994c.789.488 1.708.761 2.583 1.12 1.192.473 3.646 1.334 3.646 1.334s-3.387-1.665-4.564-3.071a9.8 9.8 0 0 1-1.837-4.148 16.1 16.1 0 0 1-.173-5.253 28 28 0 0 1 1.321-5.497c.603-1.894 1.435-3.717 2.21-5.539.56-1.335 1.191-2.613 1.722-3.947.646-1.579 1.263-3.158 1.78-4.765.301-.99.689-1.966.775-3a10.9 10.9 0 0 0-.316-3.358 12.8 12.8 0 0 0-1.693-4.392 5.9 5.9 0 0 0-2.124-1.894c-.818-.417-1.794-.775-2.713-.589-.287.058-.746.531-.746.531"/><path fill="#fff" stroke="#000" stroke-linecap="round" stroke-linejoin="round" stroke-width=".459" d="M428.79 113.293s.632-2.583.747-3.904c.086-1.134.028-2.267-.086-3.401-.144-1.249-.216-2.555-.704-3.717a9.8 9.8 0 0 0-5.482-5.31 13.2 13.2 0 0 0-4.019-.69 18.7 18.7 0 0 0-5.454.574c-.574.201-1.679.819-1.679.819l4.306 7.032s1.335-.804 2.081-1.005a7.9 7.9 0 0 1 2.44-.172c.832.058 1.679.144 2.44.474a8.2 8.2 0 0 1 2.526 1.909 10.6 10.6 0 0 1 2.152 3.157c.431 1.076.503 2.296.661 3.473.043.244.071.761.071.761"/><path fill="#CE9D09" stroke="#000" stroke-linecap="round" stroke-linejoin="round" stroke-width=".459" d="M429.566 107.71s-.761-2.382-1.479-3.373a9.15 9.15 0 0 0-3.2-2.841c-1.349-.675-4.449-.89-4.449-.89l1.636 3.014-2.871-.058-1.478-2.497-2.77 1.249-1.363-2.254 2.928-1.349-1.349-2.181 2.927-.287 1.278 2.11s2.282 0 3.387.243a8.36 8.36 0 0 1 3.947 2.067 9.8 9.8 0 0 1 1.722 2.038c.43.732.933 2.397.933 2.397z"/><path fill="#CE9D09" d="m410.147 98.855 4.564 6.702Zm1.981-1.163-2.153 1.263-2.052 1.579 4.449 6.76 1.966-1.521 2.024-1.177zm8.367 28.561 2.569-5.31 2.742 1.105 1.119-2.727-2.727-1.292 1.407-3.057-2.01-.904-1.521 2.942-2.756-1.148-1.205 2.871 2.669 1.105-2.468 5.267zm20.553-1.593 2.597-.057v3.014l2.526.129-.43 3.071-2.354-.143s-.388 1.794-.732 2.64c-.359.89-1.392 2.498-1.392 2.498l-2.785-.689s1.005-1.579 1.393-2.44c.344-.775.818-2.383.818-2.383l-2.871-.358.503-2.9 2.597.173z"/><path stroke="#000" stroke-linecap="round" stroke-linejoin="round" stroke-width=".459" d="m410.147 98.855 4.564 6.702m-2.583-7.865-2.153 1.263-2.052 1.579 4.449 6.76 1.966-1.521 2.024-1.177zm8.367 28.561 2.569-5.31 2.742 1.105 1.119-2.727-2.727-1.292 1.407-3.057-2.01-.904-1.521 2.942-2.756-1.148-1.205 2.871 2.669 1.105-2.468 5.267zm20.553-1.593 2.597-.057v3.014l2.526.129-.43 3.071-2.354-.143s-.388 1.794-.732 2.64c-.359.89-1.392 2.498-1.392 2.498l-2.785-.689s1.005-1.579 1.393-2.44c.344-.775.818-2.383.818-2.383l-2.871-.358.503-2.9 2.597.173z"/><path fill="#fff" stroke="#000" stroke-linecap="round" stroke-linejoin="round" stroke-width=".459" d="m461.112 119.708-2.325.545-3.674.603-1.694.187.287 7.176s.417 4.736 1.12 7.018c.517 1.679 2.253 4.765 2.253 4.765l1.105 1.679 6.516-5.64s-1.119-1.579-1.521-2.44c-.503-1.077-1.105-3.416-1.105-3.416l-.632-3.731-.344-4.694zm8.181 21.743-5.942 5.167s1.206 1.062 1.923 1.392a10.6 10.6 0 0 0 4.535 1.048 8.3 8.3 0 0 0 3.201-.89c2.253-1.033 4.736-2.11 6.2-4.119.517-.717.718-1.665.703-2.54-.028-1.005-.904-2.856-.904-2.856s-.344 1.248-.732 1.722a7.1 7.1 0 0 1-2.526 1.78 6.102 6.102 0 0 1-5.195.158c-.474-.187-1.278-.862-1.278-.862z"/><path fill="#fff" stroke="#000" stroke-linecap="round" stroke-linejoin="round" stroke-width=".459" d="M478.665 103.548s-.46.947-.603 1.45c-.259.861-.431 1.765-.431 2.669.046.905.2 1.802.459 2.67a24.5 24.5 0 0 0 1.479 3.774c.373.775.861 1.479 1.234 2.268.588 1.249 1.005 2.583 1.521 3.846.431 1.077.991 2.11 1.321 3.215.43 1.464.646 3 .861 4.507q.284 1.964.33 3.947c0 1.578-.043 3.157-.33 4.678-.287 1.522-.718 3.043-1.407 4.45a11.35 11.35 0 0 1-4.564 4.994c-.789.488-1.708.761-2.583 1.12-1.191.473-3.645 1.334-3.645 1.334s3.387-1.665 4.564-3.071a9.84 9.84 0 0 0 1.837-4.148 16.1 16.1 0 0 0 .172-5.253 28 28 0 0 0-1.321-5.497c-.602-1.894-1.435-3.717-2.21-5.539-.56-1.335-1.191-2.613-1.722-3.947-.646-1.579-1.263-3.158-1.78-4.765-.301-.99-.689-1.966-.775-3a10.9 10.9 0 0 1 .316-3.358 12.8 12.8 0 0 1 1.694-4.392 5.9 5.9 0 0 1 2.124-1.894c.818-.417 1.794-.775 2.712-.589.287.058.747.531.747.531"/><path fill="#fff" stroke="#000" stroke-linecap="round" stroke-linejoin="round" stroke-width=".459" d="M471.073 113.293s-.632-2.583-.746-3.904c-.087-1.134-.029-2.267.086-3.401.143-1.249.215-2.555.703-3.717a9.8 9.8 0 0 1 5.482-5.31 13.2 13.2 0 0 1 4.019-.69 18.7 18.7 0 0 1 5.454.574c.574.201 1.679.819 1.679.819l-4.306 7.032s-1.334-.804-2.081-1.005a7.9 7.9 0 0 0-2.44-.172c-.832.058-1.679.144-2.439.474a8.2 8.2 0 0 0-2.526 1.909 10.6 10.6 0 0 0-2.153 3.157c-.431 1.076-.503 2.296-.66 3.473-.043.244-.072.761-.072.761"/><path fill="#CE9D09" stroke="#000" stroke-linecap="round" stroke-linejoin="round" stroke-width=".459" d="M470.298 107.71s.76-2.382 1.478-3.373a9.15 9.15 0 0 1 3.2-2.841c1.349-.675 4.45-.89 4.45-.89l-1.637 3.014 2.871-.058 1.478-2.497 2.77 1.249 1.363-2.254-2.927-1.349 1.349-2.181-2.928-.287-1.277 2.11s-2.282 0-3.388.243a8.35 8.35 0 0 0-3.946 2.067 9.7 9.7 0 0 0-1.723 2.038c-.43.732-.932 2.397-.932 2.397z"/><path fill="#CE9D09" d="m489.716 98.855-4.564 6.702Zm-1.981-1.163 2.153 1.263 2.052 1.579-4.449 6.76-1.966-1.521-2.024-1.177zm-8.367 28.561-2.569-5.31-2.741 1.105-1.12-2.727 2.727-1.292-1.406-3.057 2.009-.904 1.521 2.942 2.756-1.148 1.205 2.871-2.669 1.105 2.469 5.267zm-20.552-1.593-2.598-.057v3.014l-2.526.129.431 3.071 2.353-.143s.388 1.794.732 2.64c.359.89 1.392 2.498 1.392 2.498l2.785-.689s-1.005-1.579-1.392-2.44c-.345-.775-.818-2.383-.818-2.383l2.87-.358-.502-2.9-2.598.173z"/><path stroke="#000" stroke-linecap="round" stroke-linejoin="round" stroke-width=".459" d="m489.716 98.855-4.564 6.702m2.583-7.865 2.153 1.263 2.052 1.579-4.449 6.76-1.966-1.521-2.024-1.177zm-8.367 28.561-2.569-5.31-2.741 1.105-1.12-2.727 2.727-1.292-1.406-3.057 2.009-.904 1.521 2.942 2.756-1.148 1.205 2.871-2.669 1.105 2.469 5.267zm-20.552-1.593-2.598-.057v3.014l-2.526.129.431 3.071 2.353-.143s.388 1.794.732 2.64c.359.89 1.392 2.498 1.392 2.498l2.785-.689s-1.005-1.579-1.392-2.44c-.345-.775-.818-2.383-.818-2.383l2.87-.358-.502-2.9-2.598.173z"/><path fill="#fff" stroke="#000" stroke-linecap="round" stroke-linejoin="round" stroke-width=".459" d="m435.264 83.154-3.947 4.22 2.44 7.319 1.378 5.138-3.976 3.703 7.277 10.19-2.498 2.856a1.75 1.75 0 0 0-.301 1.234c.043.388.23.775.517 1.048.646.588 1.621.732 2.483.961 3.014.804 6.157 1.149 9.271 1.393.675.057 2.009 0 2.009 0s1.349.057 2.024 0c3.129-.23 6.258-.589 9.286-1.393.861-.229 1.823-.373 2.483-.961a1.75 1.75 0 0 0 .201-2.282l-2.34-5.167 7.435-7.951-2.828-2.569-.071-6.2 2.439-7.32-3.659-3.688-3.301-8.784s-.675-2.454-1.263-3.588c-.345-.66-.833-1.248-1.321-1.837-.574-.703-1.148-1.42-1.837-1.995-.653-.5-1.355-.932-2.095-1.291-.79-.417-1.579-.861-2.426-1.077-.875-.215-2.727-.215-2.727-.215s-1.822 0-2.712.215c-.861.23-1.636.66-2.411 1.077-.741.359-1.443.791-2.096 1.291-.703.574-1.277 1.292-1.851 1.995-.474.574-.962 1.177-1.306 1.852-.589 1.12-1.278 3.573-1.278 3.573z"/><path fill="#CE9D09" d="M464.915 111.499s-.459-.402-.717-.574a9.2 9.2 0 0 0-1.723-.861c-.789-.316-1.65-.474-2.482-.674a28.2 28.2 0 0 0-6.358-.819c-1.235 0-3.703.187-3.703.187s-2.469-.187-3.703-.187a28 28 0 0 0-6.358.819c-.847.2-1.694.358-2.497.674a9.2 9.2 0 0 0-1.723.861c-.244.172-.717.574-.717.574m31.402-6.128s-.746-.746-1.234-.847a1.3 1.3 0 0 0-.947.215 1.88 1.88 0 0 0-.574 2.182c.114.287.287.617.588.746.689.273 2.21-.287 2.21-.287zm.732-.517c.833.029 1.148.46 1.364.933Zm-33.541.517-.043 2.009s1.507.56 2.196.287c.287-.129.488-.445.603-.746.153-.377.18-.793.076-1.186a1.88 1.88 0 0 0-.65-.996 1.28 1.28 0 0 0-.947-.215c-.503.101-1.235.861-1.235.861zm-.746-.517c-.832.029-1.148.46-1.349.933Zm27.082 1.134-1.205-.143Zm-19.863 0 1.206-.143Zm12.113-.029c-.416-.057-1.091-.602-1.091-.602Zm-4.363 0c.402-.057 1.091-.602 1.091-.602Zm21.327-3.372s-.617.473-1.062.545l-.172.1s-.287.819-.517 1.177q-.421.493-.932.89s-.689-.588-1.106-.717c-.287-.072-.602-.072-.861.043a1.58 1.58 0 0 0-.689.617c-.2.287-.387.66-.373 1.004.015.431.56 1.192.56 1.192l-.373.645-.531.331a13 13 0 0 1-2.727-1.077 2.7 2.7 0 0 1-.632-1.292s.646-.387.804-.717c.172-.359.23-.861.029-1.206-.23-.373-.761-.574-1.206-.574a1.27 1.27 0 0 0-.904.388c-.229.258-.43.646-.359 1.004.058.345.675.818.675.818s-.258.661-.546.79c-.861.359-1.435.574-2.195.689a5.6 5.6 0 0 1-2.34 0 2.44 2.44 0 0 1-1.291-.79c-.087-.129-.115-.43-.115-.43s.933-.244 1.291-.531c.374-.287.761-.66.847-1.12.072-.459-.172-.947-.43-1.32a2.6 2.6 0 0 0-1.091-.861c-.187-.086-.617-.101-.617-.101l-.144.129a2.1 2.1 0 0 1-.674.546h-.015l-.028.014-.158.086-.115.015-.345.114s.546.173.718.402a1 1 0 0 1 .144.474l.028.287c0 .172-.043.33-.1.488a1.3 1.3 0 0 1-.244.502.8.8 0 0 1-.23.201l-.029.015a1.6 1.6 0 0 1-.473.215c-.201.057-.603.014-.617.014 0 0 .789 0 1.09-.229l.029-.015c.311-.259.507-.63.546-1.033v-.431c-.043-.229-.144-.459-.316-.602-.345-.302-1.335-.345-1.349-.345s-1.005.043-1.349.345c-.172.16-.288.371-.33.602v.445l.071.33c.101.287.259.531.474.704l.029.014c.315.23 1.09.23 1.105.23-.015 0-.431.043-.617 0a2 2 0 0 1-.488-.23h-.015v-.014a.9.9 0 0 1-.244-.201 1.3 1.3 0 0 1-.244-.503 2.5 2.5 0 0 1-.1-.473l.029-.302c.028-.172.071-.344.157-.473.158-.23.718-.402.718-.402l-.359-.115-.1-.014-.172-.086h-.015l-.014-.015a2.15 2.15 0 0 1-.689-.545l-.144-.129s-.43 0-.602.1c-.436.182-.813.48-1.091.861-.258.373-.502.861-.431 1.321s.474.832.833 1.119c.373.287 1.291.531 1.291.531s-.028.302-.114.431a2.44 2.44 0 0 1-1.292.789 5.6 5.6 0 0 1-2.339 0 8.5 8.5 0 0 1-2.182-.689c-.287-.143-.56-.789-.56-.789s.632-.474.689-.833c.058-.344-.143-.717-.373-.99a1.265 1.265 0 0 0-.89-.402c-.445 0-.976.215-1.205.589-.216.344-.144.846.028 1.205.144.33.804.718.804.718a2.7 2.7 0 0 1-.646 1.292c-.864.462-1.779.824-2.727 1.076l-.516-.33-.374-.646s.531-.746.546-1.177c.029-.359-.158-.718-.359-1.019a1.6 1.6 0 0 0-.689-.617c-.258-.115-.574-.115-.861-.029-.431.115-1.105.704-1.105.704s-.689-.546-.933-.89a7 7 0 0 1-.531-1.177l-.172-.101c-.431-.071-1.048-.545-1.048-.545l-.631.143s-.589.302-.603.575c0 .401.545.574.789.861.201.272.402.531.589.818.172.258.416.488.502.789.086.33-.144.718 0 1.033.172.388.531.775.961.862.374.071 1.091-.374 1.091-.374l-.028 2.857 1.478 1.334 1.392 2.914-.545.746.157 1.435c1.077-1.378 2.943-1.98 4.622-2.468 2.253-.646 6.401-.689 8.324-.675l1.048.015s6.358-.201 9.357.66c1.68.488 3.545 1.09 4.622 2.468l.172-1.435-.56-.746 1.392-2.914 1.479-1.334-.015-2.857s.718.445 1.091.374c.431-.087.789-.474.962-.862.143-.315-.101-.703 0-1.033.086-.287.315-.531.488-.789.186-.287.387-.546.602-.804.244-.301.79-.474.775-.861 0-.287-.588-.603-.588-.603zm-21.298-.374c.143.144.43.402.689.546l.029.014c.071.043.172.072.287.101.401.114 1.119.043 1.148.043.014 0 .732.071 1.148-.043l.287-.101.029-.014c.244-.144.531-.416.689-.546.071-.1.143-.2.186-.315a1.63 1.63 0 0 0-.029-1.249c-.229-.43-.746-.646-1.162-.904-.359-.215-1.148-.531-1.148-.531q-.591.229-1.148.53c-.431.259-.948.475-1.163.905a1.52 1.52 0 0 0-.029 1.249c.043.115.115.215.187.315"/><path stroke="#000" stroke-linecap="round" stroke-linejoin="round" stroke-width=".459" d="M464.915 111.499s-.459-.402-.717-.574a9.2 9.2 0 0 0-1.723-.861c-.789-.316-1.65-.474-2.482-.674a28.2 28.2 0 0 0-6.358-.819c-1.235 0-3.703.187-3.703.187s-2.469-.187-3.703-.187a28 28 0 0 0-6.358.819c-.847.2-1.694.358-2.497.674a9.2 9.2 0 0 0-1.723.861c-.244.172-.717.574-.717.574m29.981 0-1.392 2.914.56.746-.172 1.435c-1.077-1.378-2.942-1.98-4.622-2.468-2.999-.861-9.357-.66-9.357-.66l-1.048-.015c-1.923-.014-6.071.029-8.324.675-1.679.488-3.545 1.09-4.622 2.468l-.157-1.435.545-.746-1.392-2.914m29.981 0 1.479-1.334-.015-2.857s.718.445 1.091.374c.431-.087.789-.474.962-.862.143-.315-.101-.703 0-1.033m-33.498 5.712-1.478-1.334.028-2.857s-.717.445-1.091.374c-.43-.087-.789-.474-.961-.862-.144-.315.086-.703 0-1.033m35.636-.933c.833.029 1.148.46 1.364.933m0 0c.086-.287.315-.531.488-.789.186-.287.387-.546.602-.804.244-.301.79-.474.775-.861 0-.287-.588-.603-.588-.603l-.632-.143s-.617.473-1.062.545l-.172.1s-.287.819-.517 1.177q-.421.493-.932.89s-.689-.588-1.106-.717c-.287-.072-.602-.072-.861.043a1.58 1.58 0 0 0-.689.617c-.2.287-.387.66-.373 1.004.015.431.56 1.192.56 1.192l-.373.645-.531.331a13 13 0 0 1-2.727-1.077 2.7 2.7 0 0 1-.632-1.292s.646-.387.804-.717c.172-.359.23-.861.029-1.206-.23-.373-.761-.574-1.206-.574a1.27 1.27 0 0 0-.904.388c-.229.258-.43.646-.359 1.004.058.345.675.818.675.818s-.258.661-.546.79c-.861.359-1.435.574-2.195.689a5.6 5.6 0 0 1-2.34 0 2.44 2.44 0 0 1-1.291-.79c-.087-.129-.115-.43-.115-.43s.933-.244 1.291-.531c.374-.287.761-.66.847-1.12.072-.459-.172-.947-.43-1.32a2.6 2.6 0 0 0-1.091-.861c-.187-.086-.617-.101-.617-.101l-.144.129a2.1 2.1 0 0 1-.674.546m-18.615 2.095c-.832.029-1.148.46-1.349.933m0 0c-.086-.301-.33-.531-.502-.789-.187-.287-.388-.546-.589-.818-.244-.287-.789-.46-.789-.861.014-.273.603-.575.603-.575l.631-.143s.617.474 1.048.545l.172.101q.21.613.531 1.177c.244.344.933.89.933.89s.674-.589 1.105-.704c.287-.086.603-.086.861.029.285.134.525.348.689.617.201.301.388.66.359 1.019-.015.431-.546 1.177-.546 1.177l.374.646.516.33a12.7 12.7 0 0 0 2.727-1.076c.328-.365.551-.811.646-1.292 0 0-.66-.388-.804-.718-.172-.359-.244-.861-.028-1.205.229-.374.76-.589 1.205-.589a1.26 1.26 0 0 1 .89.402c.23.273.431.646.373.99-.057.359-.689.833-.689.833s.273.646.56.789a8.5 8.5 0 0 0 2.182.689 5.6 5.6 0 0 0 2.339 0 2.44 2.44 0 0 0 1.292-.789c.086-.129.114-.431.114-.431s-.918-.244-1.291-.531c-.359-.287-.761-.66-.833-1.119-.071-.46.173-.948.431-1.321a2.6 2.6 0 0 1 1.091-.861c.172-.1.602-.1.602-.1l.144.129c.19.227.424.413.689.545l.014.015h.015l.172.086.1.014.359.115s-.56.172-.718.402c-.086.129-.129.301-.157.473m11.61 2.11-1.205-.143m-18.658.143 1.206-.143m10.907.114c-.416-.057-1.091-.602-1.091-.602m0 0 .029-.015m-.029.015a1.6 1.6 0 0 1-.473.215c-.201.057-.603.014-.617.014 0 0 .789 0 1.09-.229m-3.272.602c.402-.057 1.091-.602 1.091-.602m2.555-2.598h-.015l-.028.014-.158.086-.115.015m.316-.115-.029.014-.287.101m.316-.115c.244-.144.531-.416.689-.546.071-.1.143-.2.186-.315a1.63 1.63 0 0 0-.029-1.249c-.229-.43-.746-.646-1.162-.904-.359-.215-1.148-.531-1.148-.531q-.591.229-1.148.53c-.431.259-.948.475-1.163.905a1.52 1.52 0 0 0-.029 1.249c.043.115.115.215.187.315.143.144.43.402.689.546l.029.014c.071.043.172.072.287.101.401.114 1.119.043 1.148.043.014 0 .732.071 1.148-.043m0 0-.345.114s.546.173.718.402a1 1 0 0 1 .144.474l.028.287c0 .172-.043.33-.1.488a1.3 1.3 0 0 1-.244.502.8.8 0 0 1-.23.201m0 0c.311-.259.507-.63.546-1.033v-.431c-.043-.229-.144-.459-.316-.602-.345-.302-1.335-.345-1.349-.345s-1.005.043-1.349.345c-.172.16-.288.371-.33.602m0 0v.445l.071.33m-.071-.775-.029.302c.014.158.057.33.1.473m0 0c.101.287.259.531.474.704l.029.014m-.503-.718c.044.184.127.355.244.503a.9.9 0 0 0 .244.201v.014h.015m0 0c.315.23 1.09.23 1.105.23-.015 0-.431.043-.617 0a2 2 0 0 1-.488-.23m17.509 0s-.746-.746-1.234-.847a1.3 1.3 0 0 0-.947.215 1.88 1.88 0 0 0-.574 2.182c.114.287.287.617.588.746.689.273 2.21-.287 2.21-.287zm-32.809 0-.043 2.009s1.507.56 2.196.287c.287-.129.488-.445.603-.746.153-.377.18-.793.076-1.186a1.88 1.88 0 0 0-.65-.996 1.28 1.28 0 0 0-.947-.215c-.503.101-1.235.861-1.235.861z"/><path fill="#CE9D09" d="M467.427 96.674s-1.579-.718-2.382-.99c-1.493-.474-3.057-.747-4.593-1.048-1.794-.345-3.617-.43-5.396-.861-.56-.115-1.077-.388-1.651-.503-.775-.157-1.579-.416-2.354-.244-.43.087-1.119.66-1.119.66s-.703-.573-1.12-.66c-.775-.172-1.593.087-2.368.244-.574.115-1.09.388-1.636.517-1.78.416-3.617.502-5.411.861-1.535.287-3.085.56-4.592 1.033-.804.259-2.368.99-2.368.99m28.331-6.472s.775-.416 1.047-.718c.208-.205.343-.472.388-.76a1.3 1.3 0 0 0-.33-.933 1.3 1.3 0 0 0-.89-.316c-.273 0-.56.086-.761.258a1.3 1.3 0 0 0-.43.804c-.043.258.071.531.186.76q.337.503.79.905m-21.672 0s.588-.545.775-.904a1.35 1.35 0 0 0 .201-.76 1.3 1.3 0 0 0-.431-.805 1.18 1.18 0 0 0-.76-.258 1.3 1.3 0 0 0-.904.316q-.172.19-.254.434c-.054.16-.076.33-.062.499.014.287.186.53.373.746.287.316 1.048.718 1.048.718zm-5.913 2.583-1.708 2.24s0 .573.115.832c.233.319.52.596.847.818l.114 3.071-1.621 2.813-.144.029 1.048.545.143.015c.632-.043 1.005-.747 1.565-1.062.689-.402 1.435-.718 2.181-1.034a34.5 34.5 0 0 1 7.176-2.167 20.4 20.4 0 0 1 4.234-.172c.947.072 2.784.488 2.799.488 0 0 1.851-.43 2.799-.488a20.2 20.2 0 0 1 8.295 1.191 34.5 34.5 0 0 1 5.296 2.182c.545.315.933 1.004 1.55 1.062h.143l1.048-.574-.143-.015-1.622-2.813.129-3.071s.66-.474.832-.818c.144-.244.115-.833.115-.833l-1.708-2.239s-.861.861-1.42 1.048a1.7 1.7 0 0 1-.933 0c-.359-.115-.632-.416-.933-.646a12 12 0 0 1-1.852-1.736 10 10 0 0 1-.76-1.249s-1.852 1.45-2.957 1.737c-1.091.287-2.296.23-3.373-.087-.272-.086-.717-.43-.717-.43a6.03 6.03 0 0 0-3.789-1.148 6.03 6.03 0 0 0-3.789 1.148s-.459.344-.718.43a6.43 6.43 0 0 1-3.387.087 11.8 11.8 0 0 1-2.956-1.737s-.445.861-.761 1.249a12 12 0 0 1-1.851 1.736c-.287.23-.575.531-.933.646a1.67 1.67 0 0 1-.919 0 5.3 5.3 0 0 1-1.435-1.048"/><path stroke="#000" stroke-linecap="round" stroke-linejoin="round" stroke-width=".459" d="M467.427 96.674s-1.579-.718-2.382-.99c-1.493-.474-3.057-.747-4.593-1.048-1.794-.345-3.617-.43-5.396-.861-.56-.115-1.077-.388-1.651-.503-.775-.157-1.579-.416-2.354-.244-.43.087-1.119.66-1.119.66s-.703-.573-1.12-.66c-.775-.172-1.593.087-2.368.244-.574.115-1.09.388-1.636.517-1.78.416-3.617.502-5.411.861-1.535.287-3.085.56-4.592 1.033-.804.259-2.368.99-2.368.99m34.99 0-.129 3.072 1.622 2.813.143.015-1.048.574h-.143c-.617-.058-1.005-.747-1.55-1.062a34.5 34.5 0 0 0-5.296-2.182 20.2 20.2 0 0 0-8.295-1.191c-.948.057-2.799.488-2.799.488-.015 0-1.852-.416-2.799-.488a20.4 20.4 0 0 0-4.234.172 34.5 34.5 0 0 0-7.176 2.167c-.746.316-1.492.632-2.181 1.034-.56.315-.933 1.019-1.565 1.062l-.143-.015-1.048-.545.144-.029 1.621-2.813-.114-3.071m34.99 0s.66-.474.832-.818c.144-.244.115-.833.115-.833l-1.708-2.239s-.861.861-1.42 1.048a1.7 1.7 0 0 1-.933 0c-.359-.115-.632-.416-.933-.646a12 12 0 0 1-1.852-1.736 10 10 0 0 1-.76-1.249m-28.331 6.473a3.4 3.4 0 0 1-.847-.818c-.115-.259-.115-.833-.115-.833l1.708-2.239c.416.428.901.782 1.435 1.048.287.086.632.086.919 0 .358-.115.646-.416.933-.646a12 12 0 0 0 1.851-1.736c.316-.388.761-1.249.761-1.249.896.72 1.892 1.305 2.956 1.737a6.43 6.43 0 0 0 3.387-.087c.259-.086.718-.43.718-.43a6.03 6.03 0 0 1 3.789-1.148 6.03 6.03 0 0 1 3.789 1.148s.445.344.717.43c1.077.316 2.282.374 3.373.087 1.105-.287 2.957-1.737 2.957-1.737m0 0s.775-.416 1.047-.718c.208-.205.343-.472.388-.76a1.3 1.3 0 0 0-.33-.933 1.3 1.3 0 0 0-.89-.316c-.273 0-.56.086-.761.258a1.3 1.3 0 0 0-.43.804c-.043.258.071.531.186.76q.337.503.79.905m-21.672 0s.588-.545.775-.904a1.35 1.35 0 0 0 .201-.76 1.3 1.3 0 0 0-.431-.805 1.18 1.18 0 0 0-.76-.258 1.3 1.3 0 0 0-.904.316q-.172.19-.254.434c-.054.16-.076.33-.062.499.014.287.186.53.373.746.287.316 1.048.718 1.048.718z"/><path fill="#CE9D09" d="M468.159 91.88s.057-.818-.029-1.22c-.086-.36-.236-.7-.445-1.005-.215-.33-.818-.861-.818-.861m-.201 3.99s.488.014.703-.086c.373-.187.861-.904.861-.904s.962.66 1.493.574c.258-.03.459-.259.603-.488.158-.242.219-.534.172-.818-.043-.216-.23-.374-.402-.517-.33-.287-.918-.244-1.134-.603-.172-.287-.071-.703.029-1.019.201-.689.675-1.249 1.076-1.837.244-.373.761-.631.804-1.076.029-.23-.287-.66-.287-.66s-.746-.015-1.105.086c-.574.172-1.191.43-1.607.875-.345.373-.431.919-.618 1.392a17 17 0 0 0-.358 1.105s-.861 0-1.249.172a2.46 2.46 0 0 0-1.249 1.106c-.172.387-.143.89 0 1.291.158.43.503.761.876 1.005.416.258 1.392.402 1.392.402m-33.684-3.976s-.589.517-.804.833a3 3 0 0 0-.459 1.019c-.086.402-.015 1.22-.015 1.22m-2.44-6.53s-.315.43-.287.66c.058.445.575.717.818 1.076.388.588.862 1.148 1.077 1.837.086.316.186.718.014 1.005-.201.373-.803.344-1.119.617-.172.143-.359.301-.416.517-.048.284.014.576.172.818.143.23.359.459.617.488.517.086 1.478-.575 1.478-.575s.503.718.861.905c.216.1.718.086.718.086s.976-.144 1.392-.416c.359-.23.718-.575.861-.976.144-.416.187-.919 0-1.306a2.4 2.4 0 0 0-1.248-1.105c-.374-.187-1.249-.173-1.249-.173s-.201-.746-.344-1.105c-.187-.473-.288-1.019-.632-1.392a3.54 3.54 0 0 0-1.607-.875c-.359-.1-1.106-.087-1.106-.087m19.462 2.052 1.205-.345 1.192.345m-2.081 2.87s-.933-.832-1.105-1.406a1.15 1.15 0 0 1 .057-.79c.172-.315.847-.674.847-.674s-1.019-.488-1.292-.947a1.24 1.24 0 0 1-.072-.905c.158-.456.448-.856.833-1.148.459-.387 1.621-.775 1.621-.775s1.149.388 1.608.76c.393.294.688.7.847 1.163.071.287.057.632-.086.905-.273.459-1.292.947-1.292.947s.689.359.861.674c.115.23.129.531.043.79-.172.574-1.105 1.42-1.105 1.42l-.876.058zm3.258-3.846s1.923.818 2.583 1.593c.172.215.33.502.316.79-.072 1.004-1.479 2.611-1.479 2.611l-2.87-1.19h-1.851l-2.871 1.19s-1.406-1.621-1.464-2.612c-.028-.287.144-.574.316-.79.646-.774 2.583-1.592 2.583-1.592"/><path stroke="#000" stroke-linecap="round" stroke-linejoin="round" stroke-width=".459" d="M468.159 91.88s.057-.818-.029-1.22c-.086-.36-.236-.7-.445-1.005-.215-.33-.818-.861-.818-.861m-33.885.014s-.589.517-.804.833a3 3 0 0 0-.459 1.019c-.086.402-.015 1.22-.015 1.22m17.022-4.478 1.205-.345 1.192.345m1.177-.976s1.923.818 2.583 1.593c.172.215.33.502.316.79-.072 1.004-1.479 2.611-1.479 2.611l-2.87-1.19h-1.851l-2.871 1.19s-1.406-1.621-1.464-2.612c-.028-.287.144-.574.316-.79.646-.774 2.583-1.592 2.583-1.592m19.103 6.358s.488.014.703-.086c.373-.187.861-.904.861-.904s.962.66 1.493.574c.258-.03.459-.259.603-.488.158-.242.219-.534.172-.818-.043-.216-.23-.374-.402-.517-.33-.287-.918-.244-1.134-.603-.172-.287-.071-.703.029-1.019.201-.689.675-1.249 1.076-1.837.244-.373.761-.631.804-1.076.029-.23-.287-.66-.287-.66s-.746-.015-1.105.086c-.574.172-1.191.43-1.607.875-.345.373-.431.919-.618 1.392a17 17 0 0 0-.358 1.105s-.861 0-1.249.172a2.46 2.46 0 0 0-1.249 1.106c-.172.387-.143.89 0 1.291.158.43.503.761.876 1.005.416.258 1.392.402 1.392.402m-37.402-7.435s-.315.431-.287.66c.058.446.575.718.818 1.077.388.588.862 1.148 1.077 1.837.086.316.186.718.014 1.005-.201.373-.803.344-1.119.617-.172.143-.359.301-.416.517-.048.284.014.576.172.818.143.23.359.459.617.488.517.086 1.478-.575 1.478-.575s.503.718.861.905c.216.1.718.086.718.086s.976-.144 1.392-.416c.359-.23.718-.575.861-.976.144-.416.187-.919 0-1.306a2.4 2.4 0 0 0-1.248-1.105c-.374-.187-1.249-.173-1.249-.173s-.201-.746-.344-1.105c-.187-.473-.288-1.019-.632-1.392a3.54 3.54 0 0 0-1.607-.875c-.359-.1-1.106-.087-1.106-.087m19.778 4.923s-.933-.832-1.105-1.406a1.15 1.15 0 0 1 .057-.79c.172-.315.847-.674.847-.674s-1.019-.488-1.292-.947a1.24 1.24 0 0 1-.072-.905c.158-.456.448-.856.833-1.148.459-.387 1.621-.775 1.621-.775s1.149.388 1.608.76c.393.294.688.7.847 1.163.071.287.057.632-.086.905-.273.459-1.292.947-1.292.947s.689.359.861.674c.115.23.129.531.043.79-.172.574-1.105 1.42-1.105 1.42l-.876.058z"/><path fill="#CE9D09" d="m447.85 73.624 1.148-.89.933.029-.947-.029s-.517-.344-.66-.603a1.3 1.3 0 0 1-.144-.86c.072-.388.287-.79.632-.991.33-.187 1.119-.072 1.119-.072s.79-.115 1.105.072c.345.2.56.603.646.976.058.287 0 .617-.143.861-.144.273-.66.617-.66.617l-.962.029.933-.029 1.148.89m7.564.732-.388.675Zm4.291-2.196-1.077.144Zm.143 1.407-1.65.086Zm-1.865-1.895c.215.144.602.416.66.66a1.43 1.43 0 0 1-.445 1.32c-.345.288-1.335.216-1.335.216m-26.078 4.822 2.44-.602c1.148-.288 2.297-.603 3.473-.819a43 43 0 0 1 4.019-.502c1.694-.13 5.066-.086 5.066-.086s3.373-.043 5.052.086c1.349.1 2.684.273 4.019.502 1.177.216 2.325.546 3.487.819l2.44.602m-24.628-4.334.388.675Zm-4.306-2.196 1.077.144Zm-.143 1.407 1.65.086Zm.732 2.382s1.794-.46 2.698-.646c1.005-.2 2.009-.402 3.014-.53 1.148-.144 2.311-.216 3.488-.288 1.377-.057 4.147-.043 4.147-.043s2.756 0 4.148.057c2.18.094 4.35.363 6.487.804.904.187 2.713.646 2.713.646m-24.442-2.067s-.976.072-1.32-.215c-.359-.287-.574-.861-.46-1.32.101-.345.804-.747.804-.747m9.056 10.62c-1.722.116-3.444.216-5.138.532a31.6 31.6 0 0 0-5.195 1.392c-1.593.574-3.287 3.244-4.593 2.182-.287-.23.101-.718.23-1.062a6.2 6.2 0 0 1 1.119-1.809c.345-.387 1.148-.43 1.22-.947.072-.373-.488-.574-.617-.947a2.45 2.45 0 0 1-.072-1.436c.173-.588.933-.89 1.105-1.478.144-.517-.358-1.12-.129-1.607.316-.603 1.636-.388 1.723-1.062.057-.33-.546-.43-.646-.732-.086-.23.043-.474.043-.718 0-.301.057-.646-.086-.933-.13-.244-.531-.301-.618-.574a.8.8 0 0 1 .158-.775c.144-.143.531.058.617-.129.201-.373-.358-.76-.531-1.148-.2-.46-.459-.904-.574-1.392-.086-.388-.43-1.005-.086-1.192.402-.23.79.46 1.148.732.488.36 1.034.69 1.364 1.192.244.358.1.933.43 1.234.374.359 1.106.072 1.493.416.344.287.646.79.545 1.22s-1.09.416-1.004.832c.129.489 1.004.46 1.492.36.287-.044.503-.316.732-.489.201-.143.345-.315.574-.401.23-.115.761-.144.761-.144l-.301-.072s-.46-.359-.503-.617a.87.87 0 0 1 .23-.718 1.1 1.1 0 0 1 .789-.315c.244 0 .503.1.661.272a.9.9 0 0 1 .244.69.86.86 0 0 1-.331.53 1.9 1.9 0 0 1-.66.216l.33.086.876 1.22 3.818-.216s.473-.473.373-.746c-.101-.273-.359-.373-.818-.359-1.22.058-1.479-.976-1.436-1.722.043-.632.79-1.048 1.364-1.292.574-.215 1.55.531 1.808-.014.215-.474-.832-.718-1.004-1.22-.072-.215-.072-.488.028-.689.259-.517.818-.861 1.349-1.105.23-.1.718-.115.718-.115s.517.014.732.115c.531.244 1.091.588 1.349 1.105.1.201.1.474.029.689-.158.502-1.22.746-1.005 1.22.258.545 1.249-.201 1.808.029.575.23 1.321.645 1.364 1.277.043.746-.201 1.78-1.435 1.722-.46-.014-.718.086-.818.359-.087.273.387.746.387.746l3.803.216.876-1.22.33-.086s-.474-.072-.646-.216a.86.86 0 0 1-.33-.53.92.92 0 0 1 .23-.69.95.95 0 0 1 .66-.272c.287 0 .588.1.789.315.172.173.287.46.23.718-.043.258-.502.617-.502.617l-.302.072s.531.029.775.144c.215.086.373.272.56.401.244.172.445.43.732.488.502.1 1.378.144 1.478-.359.101-.43-.875-.416-.976-.832-.1-.43.187-.933.531-1.22.388-.344 1.134-.057 1.507-.416.316-.287.187-.861.431-1.234.33-.503.861-.833 1.349-1.192.359-.272.761-.961 1.148-.732.344.201 0 .804-.086 1.192-.115.488-.373.933-.574 1.392-.172.387-.718.775-.531 1.148.1.187.473-.029.617.13a.79.79 0 0 1 .158.774c-.086.273-.488.33-.617.574-.144.287-.072.632-.072.948 0 .23.115.473.043.703-.115.301-.718.402-.66.732.1.674 1.421.459 1.722 1.062.244.488-.273 1.09-.129 1.607.172.589.933.89 1.119 1.478.144.46.058.976-.086 1.436-.115.358-.674.574-.617.947.086.517.89.56 1.234.947.474.517.833 1.148 1.105 1.808.144.33.531.833.244 1.063-1.32 1.062-3.013-1.593-4.592-2.182a31.6 31.6 0 0 0-10.334-1.923c-1.004-.058-3.014-.058-3.014-.058s-2.009 0-3.014.058m4.464-19.188-1.45.015-1.464-.015m2.44-4.865c.373-.804-.287-1.392-.976-1.98-.689.573-1.349 1.176-.976 1.98m2.024 6.716c.56.03 1.234.603 1.665.245.186-.173.1-.531 0-.761-.23-.546-1.206-.675-1.249-1.263-.043-.502.732-.746.904-1.22.072-.244.087-.531 0-.76-.401-.948-2.081-1.005-2.382-1.967-.129-.43.861-.933.976-.99.631-.273 1.392.387 2.009.115.431-.173.876-.589.861-1.048 0-.488-.516-.904-.976-1.105-.875-.373-2.325.86-2.87.072-.488-.732 1.249-1.594 1.005-2.44-.101-.417-1.005-.761-1.005-.761s-.876.344-.99.76c-.23.847 1.507 1.709 1.004 2.44-.531.79-1.98-.444-2.87-.071-.445.2-.976.617-.976 1.105 0 .46.445.861.861 1.048.617.272 1.392-.388 2.009-.115.13.057 1.105.574.976.99-.287.962-1.966 1.005-2.368 1.966a1.12 1.12 0 0 0 0 .761c.158.474.947.718.904 1.22-.043.588-1.033.718-1.248 1.263-.101.23-.201.588 0 .76.43.36 1.105-.215 1.665-.243.344-.03 1.047 0 1.047 0s.689-.03 1.048 0"/><path stroke="#000" stroke-linecap="round" stroke-linejoin="round" stroke-width=".459" d="m447.85 73.624 1.148-.89.933.029-.947-.029s-.517-.344-.66-.603a1.3 1.3 0 0 1-.144-.86c.072-.388.287-.79.632-.991.33-.187 1.119-.072 1.119-.072s.79-.115 1.105.072c.345.2.56.603.646.976.058.287 0 .617-.143.861-.144.273-.66.617-.66.617l-.962.029.933-.029 1.148.89m7.564.732-.388.675m4.679-2.87-1.077.143m1.22 1.263-1.65.086m0 0a1.44 1.44 0 0 0 .445-1.32c-.058-.245-.445-.517-.66-.66m.215 1.98c-.345.287-1.335.215-1.335.215m-26.078 4.822 2.44-.602c1.148-.288 2.297-.603 3.473-.819a43 43 0 0 1 4.019-.502c1.694-.13 5.066-.086 5.066-.086s3.373-.043 5.052.086c1.349.1 2.684.273 4.019.502 1.177.216 2.325.546 3.487.819l2.44.602m-24.628-4.334.388.675m-4.694-2.87 1.077.143m-1.22 1.263 1.65.086m-.918 2.296s1.794-.46 2.698-.646c1.005-.2 2.009-.402 3.014-.53 1.148-.144 2.311-.216 3.488-.288 1.377-.057 4.147-.043 4.147-.043s2.756 0 4.148.057c2.18.094 4.35.363 6.487.804.904.187 2.713.646 2.713.646m-24.442-2.067s-.976.072-1.32-.215c-.359-.287-.574-.861-.46-1.32.101-.345.804-.747.804-.747m13.52-8.568-1.45.015-1.464-.015m2.44-4.865c.373-.804-.287-1.392-.976-1.98-.689.573-1.349 1.176-.976 1.98m0 0c-.617-.273-1.392.387-2.009.115-.416-.187-.861-.589-.861-1.048 0-.488.531-.904.976-1.105.89-.373 2.339.86 2.87.072.503-.732-1.234-1.594-1.004-2.44.114-.417.99-.761.99-.761s.904.344 1.005.76c.244.847-1.493 1.709-1.005 2.44.545.79 1.995-.444 2.87-.071.46.2.976.617.976 1.105.015.46-.43.875-.861 1.048-.617.272-1.378-.388-2.009-.115-.115.057-1.105.56-.976.99.301.962 1.981 1.019 2.382 1.966.087.23.072.517 0 .761-.172.474-.947.718-.904 1.22.043.588 1.019.718 1.249 1.263.1.23.186.588 0 .76-.431.36-1.105-.215-1.665-.243-.359-.03-1.048 0-1.048 0s-.703-.03-1.047 0c-.56.028-1.235.602-1.665.243-.201-.172-.101-.53 0-.76.215-.546 1.205-.675 1.248-1.263.043-.502-.746-.746-.904-1.22a1.12 1.12 0 0 1 0-.76c.402-.962 2.081-1.005 2.368-1.967.129-.416-.846-.933-.976-.99m-2.038 24.054c-1.722.115-3.444.215-5.138.53a31.6 31.6 0 0 0-5.195 1.393c-1.593.574-3.287 3.244-4.593 2.182-.287-.23.101-.718.23-1.062a6.2 6.2 0 0 1 1.119-1.809c.345-.387 1.148-.43 1.22-.947.072-.373-.488-.574-.617-.947a2.45 2.45 0 0 1-.072-1.436c.173-.588.933-.89 1.105-1.478.144-.517-.358-1.12-.129-1.607.316-.603 1.636-.388 1.723-1.062.057-.33-.546-.43-.646-.732-.086-.23.043-.474.043-.718 0-.301.057-.646-.086-.933-.13-.244-.531-.301-.618-.574a.8.8 0 0 1 .158-.775c.144-.143.531.058.617-.129.201-.373-.358-.76-.531-1.148-.2-.46-.459-.904-.574-1.392-.086-.388-.43-1.005-.086-1.192.402-.23.79.46 1.148.732.488.36 1.034.69 1.364 1.192.244.358.1.933.43 1.234.374.359 1.106.072 1.493.416.344.287.646.79.545 1.22s-1.09.416-1.004.832c.129.489 1.004.46 1.492.36.287-.044.503-.316.732-.489.201-.143.345-.315.574-.401.23-.115.761-.144.761-.144l-.301-.072s-.46-.359-.503-.617a.87.87 0 0 1 .23-.718 1.1 1.1 0 0 1 .789-.315c.244 0 .503.1.661.272a.9.9 0 0 1 .244.69.86.86 0 0 1-.331.53 1.9 1.9 0 0 1-.66.216l.33.086.876 1.22 3.818-.216s.473-.473.373-.746c-.101-.273-.359-.373-.818-.359-1.22.058-1.479-.976-1.436-1.722.043-.632.79-1.048 1.364-1.292.574-.215 1.55.531 1.808-.014.215-.474-.832-.718-1.004-1.22-.072-.215-.072-.488.028-.689.259-.517.818-.861 1.349-1.105.23-.1.718-.115.718-.115s.517.014.732.115c.531.244 1.091.588 1.349 1.105.1.201.1.474.029.689-.158.502-1.22.746-1.005 1.22.258.545 1.249-.201 1.808.029.575.23 1.321.645 1.364 1.277.043.746-.201 1.78-1.435 1.722-.46-.014-.718.086-.818.359-.087.273.387.746.387.746l3.803.216.876-1.22.33-.086s-.474-.072-.646-.216a.86.86 0 0 1-.33-.53.92.92 0 0 1 .23-.69.95.95 0 0 1 .66-.272c.287 0 .588.1.789.315.172.173.287.46.23.718-.043.258-.502.617-.502.617l-.302.072s.531.029.775.144c.215.086.373.272.56.401.244.172.445.43.732.488.502.1 1.378.144 1.478-.359.101-.43-.875-.416-.976-.832-.1-.43.187-.933.531-1.22.388-.344 1.134-.057 1.507-.416.316-.287.187-.861.431-1.234.33-.503.861-.833 1.349-1.192.359-.272.761-.961 1.148-.732.344.201 0 .804-.086 1.192-.115.488-.373.933-.574 1.392-.172.387-.718.775-.531 1.148.1.187.473-.029.617.13a.79.79 0 0 1 .158.774c-.086.273-.488.33-.617.574-.144.287-.072.632-.072.948 0 .23.115.473.043.703-.115.301-.718.402-.66.732.1.674 1.421.459 1.722 1.062.244.488-.273 1.09-.129 1.607.172.589.933.89 1.119 1.478.144.46.058.976-.086 1.436-.115.358-.674.574-.617.947.086.517.89.56 1.234.947.474.517.833 1.148 1.105 1.808.144.33.531.833.244 1.063-1.32 1.062-3.013-1.593-4.592-2.182a31.6 31.6 0 0 0-10.334-1.923c-1.004-.058-3.014-.058-3.014-.058s-2.009 0-3.014.058"/><path stroke="#000" stroke-linecap="round" stroke-linejoin="round" stroke-width=".459" d="M463.538 114.427s-1.019-.431-1.55-.617a37 37 0 0 0-2.871-.933c-.947-.258-1.894-.531-2.87-.646-2.096-.23-6.315-.029-6.315-.029s-4.22-.201-6.315.029c-.976.115-1.938.388-2.87.646q-2.267.634-4.435 1.55m28.991-31.934s-1.722-.688-2.598-.99c-.732-.244-1.464-.502-2.224-.689-.919-.23-1.852-.373-2.785-.502a55.5 55.5 0 0 0-7.764-.488s-2.469.014-3.703.086a54 54 0 0 0-6.86.904c-.747.187-1.479.43-2.211.69-.875.3-2.583.99-2.583.99m-2.038 17.28s2.512-.862 3.789-1.25c1.306-.401 2.612-.86 3.947-1.147 1.607-.36 3.243-.531 4.88-.718 1.578-.158 4.779-.33 4.779-.33s3.186.172 4.779.344c1.622.173 3.272.345 4.88.69 1.335.286 2.626.76 3.947 1.162l3.789 1.248"/><path fill="#CCC" stroke="#000" stroke-linejoin="round" stroke-width=".459" d="m403.201 107.323 14.524 12.457s-.746 1.608-1.048 2.44a20.5 20.5 0 0 0-1.334 5.885l-16.936-15.501c.244-3.545 2.239-4.808 4.794-5.281Z"/><path fill="#CCC" stroke="#000" stroke-linejoin="round" stroke-width=".459" d="m401.148 115.102-3.487 3.903 2.181 2.096-3.372 3.272-2.182-2.167-3.66 3.904-.028 4.836 8.324 6.53 2.885-2.138-.158-4.636 2.21 1.235 2.225-1.35.114 4.177-1.808-1.306-1.966 2.583-.201 4.593 6.272 5.597 7.606-6.76-.574-2.023-.316-1.823-.186-3.602.287-3.947z"/><path fill="#CCC" stroke="#000" stroke-linejoin="round" stroke-width=".459" d="m397.66 119.005-.086 4.306 2.239-2.196z"/><path stroke="#000" stroke-linejoin="round" stroke-width=".459" d="m408.755 141.251-.273 4.923m-2.67-20.05.086 4.564m-2.124-2.483.13 3.703m-2.082-5.21.087 4.162m-3.072 2.182.043 4.392m3.545-1.393 6.315 5.311 6.473-5.684m-24.542-9.601 8.267 7.061 2.712-2.426-2.153-1.808 2.397-2.253 1.852 1.593 2.081-2.124 2.727 2.626-2.469 1.923 2.296 2.096-2.181 2.009"/><path fill="#CCC" stroke="#000" stroke-linejoin="round" stroke-width=".459" d="m456.017 154.01 6.989 6.401 1.536 4.521-8.985-.961-5.123-5.067-5.454-5.052-23.538-20.394s.503-1.88.804-2.799c.459-1.334.99-2.64 1.521-3.946l.431-.976 26.264 23.293z"/><path fill="#CCC" stroke="#000" stroke-linejoin="round" stroke-width=".459" d="M461.958 154.972c3.875 5.454 10.434 10.577 12.415 13.046 1.995 2.469 3.272 4.808.373 7.965s-6.171 1.364-8.769-.373c-2.598-1.722-7.119-7.362-13.606-11.668z"/><path fill="#CCC" d="m459.661 164.128-5.052-2.296Zm.833-7.779c.344 1.149.071 2.412.516 3.502.431 1.091 2.01 2.871 2.01 2.871s-1.005.143-1.479.315c-.674.273-1.722.388-1.88 1.106-.143.617.574 1.148 1.005 1.607.431.445.962.775 1.493 1.091.875.516 1.779 1.091 2.784 1.277 1.249.23 3.602-1.55 3.818-.287.086.517-1.063.187-1.536.431-1.12.545-1.665 1.722-.689 2.554.631.531 1.622.345 2.44.417.789.057 1.679-.402 2.368 0 .804.459 1.823 1.578 1.392 2.411-.43.861-2.081.832-2.87.287-.574-.431-.417-1.364-.503-2.067v-.631"/><path stroke="#000" stroke-linejoin="round" stroke-width=".459" d="m459.661 164.128-5.052-2.296m5.885-5.483c.344 1.149.071 2.412.516 3.502.431 1.091 2.01 2.871 2.01 2.871s-1.005.143-1.479.315c-.674.273-1.722.388-1.88 1.106-.143.617.574 1.148 1.005 1.607.431.445.962.775 1.493 1.091.875.516 1.779 1.091 2.784 1.277 1.249.23 3.602-1.55 3.818-.287.086.517-1.063.187-1.536.431-1.12.545-1.665 1.722-.689 2.554.631.531 1.622.345 2.44.417.789.057 1.679-.402 2.368 0 .804.459 1.823 1.578 1.392 2.411-.43.861-2.081.832-2.87.287-.574-.431-.417-1.364-.503-2.067v-.631"/><path fill="#CCC" stroke="#000" stroke-linejoin="round" stroke-width=".459" d="M492.384 208.62c10.281 0 18.615-8.334 18.615-18.615s-8.334-18.614-18.615-18.614-18.614 8.334-18.614 18.614 8.334 18.615 18.614 18.615Z"/><path fill="#fff" stroke="#000" stroke-linejoin="round" stroke-width=".459" d="M485.41 190.809a5.81 5.81 0 0 0-5.7 6.952 5.82 5.82 0 0 0 4.575 4.563 5.812 5.812 0 0 0 6.938-5.717l2.009-.086a5.808 5.808 0 0 0 6.947 5.701 5.812 5.812 0 0 0-1.134-11.513l.086-1.134a5.81 5.81 0 0 0 5.701-6.947 5.82 5.82 0 0 0-4.567-4.567 5.82 5.82 0 0 0-5.967 2.472 5.8 5.8 0 0 0-.98 3.229l-2.009-.172a5.81 5.81 0 0 0-3.588-5.37 5.82 5.82 0 0 0-6.335 1.26 5.82 5.82 0 0 0-1.26 6.334 5.82 5.82 0 0 0 5.37 3.589z"/><path fill="#CCC" stroke="#000" stroke-linejoin="round" stroke-width=".459" d="M492.384 187.221a2.095 2.095 0 1 0 .001-4.19 2.095 2.095 0 0 0-.001 4.19ZM497.365 192.1a2.095 2.095 0 1 0 0-4.19 2.095 2.095 0 0 0 0 4.19ZM492.471 196.564a2.095 2.095 0 1 0 .001-4.19 2.095 2.095 0 0 0-.001 4.19ZM487.304 192.1a2.095 2.095 0 1 0 .001-4.19 2.095 2.095 0 0 0-.001 4.19Z"/><path fill="#fff" stroke="#000" stroke-linejoin="round" stroke-width=".459" d="M492.026 201.243c-.76 1.579-1.808 2.297-3.143 3.158a9.08 9.08 0 0 0 6.287 0 7.75 7.75 0 0 1-3.144-3.158Zm-10.979-11.51c-1.579-.761-2.296-1.809-3.157-3.158a9.06 9.06 0 0 0 0 6.315 7.6 7.6 0 0 1 3.157-3.157Zm22.849.516c1.578-.76 2.296-1.808 3.157-3.143a9.07 9.07 0 0 1 0 6.301c-.675-1.335-1.722-2.296-3.157-3.158Zm-11.252-11.596c-.761-1.579-1.809-2.296-3.158-3.157a9.06 9.06 0 0 1 6.315 0 7.6 7.6 0 0 0-3.157 3.157Z"/><path fill="#CE9D09" stroke="#000" stroke-linejoin="round" stroke-width=".459" d="M403.23 107.293s.1-.717 0-1.062a3.25 3.25 0 0 0-.947-1.464 2.8 2.8 0 0 0-1.321-.66 3.5 3.5 0 0 0-2.54.603l-2.153.89-.789 2.54s-.459.804-.574 1.249a3.3 3.3 0 0 0-.072 1.449c.143.56.459 1.091.904 1.464.425.334.94.533 1.478.574.409-.03.811-.121 1.192-.273.229-2.669 1.421-4.707 4.808-5.295z"/><path fill="#CE9D09" stroke="#000" stroke-linejoin="round" stroke-width=".459" d="m398.465 104.682-5.569-2.44-.445.43 3.014 5.483s.861-1.249 1.349-1.823c.517-.588 1.651-1.65 1.651-1.65Z"/><path fill="#CE9D09" stroke="#000" stroke-linejoin="round" stroke-width=".459" d="M392.293 104.064a2.296 2.296 0 1 0 .001-4.593 2.296 2.296 0 0 0-.001 4.593ZM407.923 111.383c.488 4.019 1.048 8.023 2.296 12.027l4.449 4.091c-.933-4.205-2.64-8.396-2.626-12.587z"/><path fill="#CE9D09" stroke="#000" stroke-linejoin="round" stroke-width=".459" d="m414.64 117.139-12.257-.919 3.904 3.588 11.194.474.172-.574zm15.127 13.577a8.89 8.89 0 0 0-5.44 5.31c-.918.101-1.765.101-2.067-.574a8.4 8.4 0 0 1 5.124-6.86c2.153-.402 1.751 1.277 2.383 2.109zm3.946 3.703a8.88 8.88 0 0 0-5.439 5.339c-.904.071-1.765.086-2.067-.589a8.4 8.4 0 0 1 5.138-6.86c2.153-.402 1.737 1.277 2.368 2.11Zm44.894 37.588a10.3 10.3 0 0 0-2.167.215c.043 1.148-.431 2.383-1.694 3.76a4.78 4.78 0 0 1-3.401 1.723s-.402 2.54.373 3.344c.904.947 3.889.559 3.889.559l.259-.157a18.6 18.6 0 0 1 4.578-5.713l.043-.186s.431-2.368-.301-3.086c-.345-.33-.948-.43-1.579 0zM506.708 177.519a2.541 2.541 0 1 0 0-5.083 2.541 2.541 0 0 0 0 5.083ZM507.584 206.883a2.54 2.54 0 1 0 0-5.081 2.54 2.54 0 0 0 0 5.081ZM479.095 208.547a2.54 2.54 0 1 0 0-5.08 2.54 2.54 0 0 0 0 5.08ZM496.798 107.323l-14.524 12.457s.746 1.608 1.048 2.44a20.5 20.5 0 0 1 1.334 5.884l16.936-15.5c-.244-3.545-2.239-4.808-4.794-5.281Z"/><path fill="#CE9D09" stroke="#000" stroke-linejoin="round" stroke-width=".459" d="m498.851 115.101 3.487 3.904-2.181 2.095 3.372 3.273 2.182-2.167 3.66 3.903.028 4.837-8.324 6.53-2.885-2.138.158-4.636-2.21 1.234-2.225-1.349-.114 4.177 1.808-1.306 1.966 2.583.201 4.593-6.272 5.597-7.606-6.76.574-2.023.316-1.823.186-3.603-.287-3.946z"/><path fill="#CE9D09" stroke="#000" stroke-linejoin="round" stroke-width=".459" d="m502.339 119.005.086 4.306-2.239-2.196z"/><path stroke="#000" stroke-linejoin="round" stroke-width=".459" d="m491.244 141.251.273 4.923m2.67-20.05-.086 4.564m2.124-2.483-.13 3.703m2.082-5.21-.087 4.162m3.072 2.182-.043 4.391m-3.545-1.392-6.315 5.31-6.473-5.683m24.542-9.602-8.267 7.062-2.712-2.426 2.153-1.808-2.397-2.254-1.852 1.594-2.081-2.125-2.727 2.627 2.469 1.923-2.296 2.095 2.181 2.01"/><path fill="#CE9D09" stroke="#000" stroke-linejoin="round" stroke-width=".459" d="m443.982 154.01-6.989 6.401-1.536 4.521 8.985-.962 5.123-5.066 5.454-5.052 23.538-20.394s-.503-1.88-.804-2.799c-.459-1.335-.99-2.641-1.521-3.947l-.431-.976-26.264 23.294z"/><path fill="#CE9D09" stroke="#000" stroke-linejoin="round" stroke-width=".459" d="M438.041 154.972c-3.875 5.453-10.434 10.577-12.415 13.046-1.995 2.468-3.272 4.808-.373 7.965s6.171 1.364 8.769-.373c2.598-1.722 7.119-7.363 13.606-11.668z"/><path fill="#CE9D09" d="m440.337 164.128 5.052-2.296Zm-.833-7.779c-.344 1.148-.071 2.411-.516 3.502-.431 1.091-2.01 2.87-2.01 2.87s1.005.144 1.479.316c.674.273 1.722.388 1.88 1.105.143.617-.574 1.148-1.005 1.608-.43.445-.962.775-1.493 1.091-.875.516-1.779 1.09-2.784 1.277-1.248.229-3.602-1.55-3.817-.287-.087.516 1.062.186 1.535.43 1.12.546 1.665 1.723.689 2.555-.631.531-1.622.345-2.44.416-.789.058-1.679-.402-2.368 0-.804.46-1.823 1.579-1.392 2.411.431.862 2.081.833 2.87.287.574-.43.417-1.363.503-2.066v-.632"/><path stroke="#000" stroke-linejoin="round" stroke-width=".459" d="m440.337 164.128 5.052-2.296m-5.885-5.483c-.344 1.148-.071 2.411-.516 3.502-.431 1.091-2.01 2.87-2.01 2.87s1.005.144 1.479.316c.674.273 1.722.388 1.88 1.105.143.617-.574 1.148-1.005 1.608-.43.445-.962.775-1.493 1.091-.875.516-1.779 1.09-2.784 1.277-1.248.229-3.602-1.55-3.817-.287-.087.516 1.062.186 1.535.43 1.12.546 1.665 1.723.689 2.555-.631.531-1.622.345-2.44.416-.789.058-1.679-.402-2.368 0-.804.46-1.823 1.579-1.392 2.411.431.862 2.081.833 2.87.287.574-.43.417-1.363.503-2.066v-.632"/><path fill="#CE9D09" stroke="#000" stroke-linejoin="round" stroke-width=".459" d="M407.615 208.62c-10.281 0-18.615-8.334-18.615-18.615s8.334-18.615 18.615-18.615 18.614 8.334 18.614 18.615-8.334 18.615-18.614 18.615Z"/><path fill="#fff" stroke="#000" stroke-linejoin="round" stroke-width=".459" d="M414.589 190.809a5.812 5.812 0 1 1-5.813 5.798l-2.009-.086a5.81 5.81 0 0 1-3.588 5.37 5.82 5.82 0 0 1-6.335-1.26 5.813 5.813 0 0 1 4.11-9.923l-.086-1.133a5.81 5.81 0 0 1-5.701-6.947 5.816 5.816 0 0 1 7.926-4.236 5.81 5.81 0 0 1 3.588 5.37l2.009-.172a5.812 5.812 0 1 1 5.813 5.812z"/><path fill="#CE9D09" stroke="#000" stroke-linejoin="round" stroke-width=".459" d="M407.615 187.221a2.095 2.095 0 1 1-.001-4.19 2.095 2.095 0 0 1 .001 4.19ZM402.634 192.1a2.095 2.095 0 1 1 0-4.19 2.095 2.095 0 0 1 0 4.19ZM407.528 196.564a2.095 2.095 0 1 1-.001-4.19 2.095 2.095 0 0 1 .001 4.19ZM412.695 192.1a2.095 2.095 0 1 1-.001-4.19 2.095 2.095 0 0 1 .001 4.19Z"/><path fill="#fff" stroke="#000" stroke-linejoin="round" stroke-width=".459" d="M407.973 201.243c.76 1.579 1.808 2.296 3.143 3.157a9.06 9.06 0 0 1-6.286 0 7.75 7.75 0 0 0 3.143-3.157Zm10.979-11.51c1.579-.761 2.296-1.809 3.157-3.158a9.06 9.06 0 0 1 0 6.315 7.6 7.6 0 0 0-3.157-3.157Zm-22.849.516c-1.578-.76-2.296-1.808-3.157-3.143a9.07 9.07 0 0 0 0 6.301c.675-1.335 1.722-2.297 3.157-3.158Zm11.252-11.596c.761-1.579 1.809-2.297 3.158-3.158a9.07 9.07 0 0 0-6.315 0 7.6 7.6 0 0 1 3.157 3.158Z"/><path fill="#CCC" stroke="#000" stroke-linejoin="round" stroke-width=".459" d="M496.77 107.293s-.1-.717 0-1.062a3.25 3.25 0 0 1 .947-1.464c.374-.333.83-.561 1.321-.66a3.52 3.52 0 0 1 2.54.603l2.153.89.789 2.54s.459.804.574 1.249a3.3 3.3 0 0 1 .072 1.449 2.85 2.85 0 0 1-.904 1.464 2.7 2.7 0 0 1-1.478.574 4 4 0 0 1-1.192-.272c-.229-2.67-1.421-4.708-4.808-5.296z"/><path fill="#CCC" stroke="#000" stroke-linejoin="round" stroke-width=".459" d="m501.535 104.682 5.569-2.44.445.431-3.014 5.482s-.861-1.249-1.349-1.823c-.517-.588-1.651-1.65-1.651-1.65Z"/><path fill="#CCC" stroke="#000" stroke-linejoin="round" stroke-width=".459" d="M507.707 104.064a2.296 2.296 0 1 1-.001-4.593 2.296 2.296 0 0 1 .001 4.593ZM492.077 111.384c-.488 4.018-1.048 8.022-2.296 12.027l-4.449 4.09c.933-4.205 2.64-8.396 2.626-12.587z"/><path fill="#CCC" stroke="#000" stroke-linejoin="round" stroke-width=".459" d="m485.36 117.139 12.257-.919-3.904 3.588-11.194.474-.172-.574zm-15.127 13.577a8.888 8.888 0 0 1 5.44 5.31c.918.101 1.765.101 2.067-.574a8.4 8.4 0 0 0-5.124-6.86c-2.153-.402-1.751 1.277-2.383 2.11zm-3.946 3.703a8.89 8.89 0 0 1 5.439 5.339c.904.072 1.765.086 2.067-.589a8.4 8.4 0 0 0-5.138-6.86c-2.153-.402-1.737 1.278-2.368 2.11Zm-44.894 37.588c.728-.005 1.455.067 2.167.215-.043 1.149.431 2.383 1.694 3.761a4.8 4.8 0 0 0 3.401 1.722s.402 2.54-.373 3.344c-.904.947-3.889.56-3.889.56l-.259-.158a18.6 18.6 0 0 0-4.578-5.712l-.043-.187s-.431-2.368.301-3.086c.345-.33.948-.43 1.579 0zM393.292 177.519a2.54 2.54 0 1 1 0-5.081 2.54 2.54 0 0 1 0 5.081ZM392.416 206.883a2.54 2.54 0 1 1 0-5.081 2.54 2.54 0 0 1 0 5.081ZM420.905 208.547a2.54 2.54 0 1 1 0-5.08 2.54 2.54 0 0 1 0 5.08Z"/><path fill="#FA0204" stroke="#000" stroke-linejoin="round" stroke-width=".459" d="M451.41 146.332c0 .775-.646 1.062-1.909 1.062-1.248 0-1.822-.359-1.822-1.134s.574-.961 1.822-.961c1.263 0 1.909.258 1.909 1.033Z"/><path fill="#FA0204" stroke="#000" stroke-linejoin="round" stroke-width=".459" d="M452.329 148.384c0 .775-.646 1.062-1.909 1.062-1.248 0-1.822-.359-1.822-1.134s.574-.961 1.822-.961c1.263 0 1.909.258 1.909 1.033Z"/><path fill="#FA0204" stroke="#000" stroke-linejoin="round" stroke-width=".459" d="M452.573 151.054c-.244.717-.961.803-2.153.387-1.176-.43-1.607-.947-1.349-1.679.259-.718.861-.718 2.053-.301 1.177.416 1.722.861 1.449 1.578zM452.601 153.035c-.143.76-.846.918-2.066.674-1.235-.244-1.723-.718-1.579-1.478.143-.761.761-.833 1.981-.574 1.234.244 1.822.617 1.664 1.378ZM453.176 155.345c-.144.761-.847.918-2.067.674-1.234-.244-1.722-.717-1.579-1.478s.761-.832 1.981-.574c1.234.244 1.822.617 1.665 1.378ZM458.945 152.13c-.373-.1-.33-.761-.229-1.134.172-.574 1.205-1.306 1.205-1.306s.258.804.144 1.177c-.173.531-.574 1.407-1.12 1.263Z"/><path fill="#FA0204" stroke="#000" stroke-linejoin="round" stroke-width=".459" d="M457.596 153.307c-.402-.086-.46-.79-.359-1.192.172-.617 1.392-1.334 1.392-1.334s.215.861.072 1.263c-.187.531-.56 1.392-1.105 1.263Zm-1.55 2.239c-.617-.158-.546-1.263-.373-1.866.143-.517.531-1.321 1.033-1.191.603.143.603 1.191.445 1.794-.129.545-.574 1.406-1.105 1.263Z"/><path fill="#FA0204" stroke="#000" stroke-linejoin="round" stroke-width=".459" d="M454.209 157.297c-.603-.143-.861-1.091-.732-1.708.129-.631.761-1.492 1.392-1.349.646.144.861 1.191.718 1.837-.144.589-.775 1.349-1.378 1.22Zm-.316 1.062c-.143.718-1.076.976-1.65.79-.589-.187-1.364-1.019-1.206-1.794.172-.775 1.177-.976 1.766-.747.559.216 1.248 1.034 1.09 1.751Zm-12.199-7.075s.732.358 1.048.689c.33.344.732.473.531.99s-.833.344-1.163-.029c-.301-.33-.43-1.65-.43-1.65zm3.631 1.248c.761.158.732 1.034.359 1.579-.402.545-1.564 1.277-2.354 1.12-.789-.158-.689-1.12-.258-1.68.416-.516 1.521-1.148 2.253-1.004zM447.837 154.182c.689.316.488 1.163 0 1.608-.517.459-1.809.904-2.541.574-.746-.316-.43-1.235.115-1.679.517-.431 1.723-.804 2.426-.503ZM449.847 155.718c.688.316.487 1.163 0 1.608-.517.459-1.809.904-2.541.574-.746-.316-.43-1.235.115-1.68.517-.43 1.722-.803 2.426-.502Z"/><path fill="#FA0204" stroke="#000" stroke-linejoin="round" stroke-width=".459" d="M450.521 157.082c.689.1.861 1.062.66 1.679-.23.646-1.076 1.521-1.794 1.406-.732-.114-.861-1.148-.603-1.808.23-.603 1.048-1.392 1.722-1.292z"/><path fill="#FA0204" stroke="#000" stroke-linejoin="round" stroke-width=".459" d="M452.257 159.177c.574.33.43 1.378.057 1.952-.387.588-1.406 1.234-2.009.89-.603-.359-.388-1.479.029-2.067.401-.545 1.363-1.091 1.923-.775ZM439.9 153.45c.617-.043 1.033.862 1.019 1.522 0 .703-.474 1.779-1.106 1.837-.645.057-1.047-.962-1.004-1.665.014-.66.488-1.636 1.091-1.694Z"/><path fill="#FA0204" stroke="#000" stroke-linejoin="round" stroke-width=".459" d="M441.909 155.216c.574.129.718 1.12.503 1.751-.23.66-1.005 1.55-1.622 1.407-.632-.144-.718-1.235-.46-1.895.23-.617.976-1.406 1.579-1.277z"/><path fill="#FA0204" stroke="#000" stroke-linejoin="round" stroke-width=".459" d="M443.746 156.436c.718.172.861 1.407.603 2.196-.258.818-1.177 1.923-1.923 1.751-.746-.187-.833-1.536-.531-2.368.272-.761 1.148-1.737 1.851-1.579Z"/><path fill="#FA0204" stroke="#000" stroke-linejoin="round" stroke-width=".459" d="M445.239 157.957c.717-.086 1.291 1.005 1.334 1.837.044.861-.43 2.21-1.176 2.296-.761.101-1.321-1.133-1.335-2.009-.015-.804.473-2.038 1.177-2.124Z"/><path fill="#FA0204" stroke="#000" stroke-linejoin="round" stroke-width=".459" d="M447.019 159.235c.646-.086 1.177.832 1.205 1.507.043.717-.387 1.837-1.062 1.923-.703.086-1.205-.947-1.22-1.665 0-.675.431-1.694 1.077-1.765Z"/><path fill="#FA0204" stroke="#000" stroke-linejoin="round" stroke-width=".459" d="M448.856 160.727c.646-.086 1.177.833 1.205 1.507.043.718-.387 1.837-1.062 1.923-.703.087-1.205-.947-1.22-1.664 0-.675.431-1.694 1.077-1.766ZM460.036 157.11c-.473.402-1.392.044-1.808-.416-.445-.473-.761-1.507-.259-1.937.488-.431 1.464.028 1.895.516.387.474.631 1.436.172 1.837Z"/><path fill="#FA0204" stroke="#000" stroke-linejoin="round" stroke-width=".459" d="M459.031 158.947c-.473.402-1.392.043-1.808-.416-.445-.474-.761-1.507-.258-1.938.488-.43 1.464.029 1.894.517.388.474.632 1.435.172 1.837ZM457.237 160.483c-.473.402-1.392.043-1.808-.416-.445-.474-.761-1.507-.258-1.938.488-.43 1.464.029 1.894.517.388.474.632 1.435.172 1.837Z"/><path fill="#FA0204" stroke="#000" stroke-linejoin="round" stroke-width=".459" d="M456.577 161.459c-.158.589-1.149.804-1.737.646-.631-.143-1.464-.832-1.292-1.464.187-.631 1.249-.803 1.866-.617.603.172 1.321.847 1.148 1.435z"/><path fill="#FA0204" stroke="#000" stroke-linejoin="round" stroke-width=".459" d="M453.993 161.029c.517.359.402 1.507.058 2.138-.373.646-1.292 1.364-1.852.976-.559-.387-.358-1.622.029-2.267.359-.603 1.249-1.206 1.765-.862z"/><path fill="#FA0204" stroke="#000" stroke-linejoin="round" stroke-width=".459" d="M451.468 162.363c.574.345.43 1.378.057 1.952-.388.588-1.407 1.234-2.009.89-.603-.359-.388-1.478.028-2.067.402-.545 1.364-1.091 1.924-.775ZM445.972 166.023c-.488.445-.101 1.607.401 2.182.531.602 1.694 1.162 2.211.674.502-.488.043-1.722-.517-2.311-.531-.559-1.607-1.004-2.095-.559z"/><path fill="#FA0204" stroke="#000" stroke-linejoin="round" stroke-width=".459" d="M444.923 168.003c-.488.445-.101 1.608.402 2.182.531.603 1.693 1.163 2.21.675.502-.488.043-1.723-.517-2.311-.531-.56-1.607-1.005-2.095-.56z"/><path fill="#FA0204" stroke="#000" stroke-linejoin="round" stroke-width=".459" d="M444.464 169.826c-.617.259-.689 1.464-.431 2.196.259.761 1.134 1.708 1.794 1.435.661-.258.675-1.578.373-2.339-.287-.703-1.119-1.536-1.722-1.292z"/><path fill="#FA0204" stroke="#000" stroke-linejoin="round" stroke-width=".459" d="M442.957 171.965c-.617.258-.689 1.463-.431 2.195.259.761 1.134 1.708 1.794 1.436.661-.259.675-1.579.374-2.34-.287-.703-1.12-1.535-1.723-1.291z"/><path fill="#FA0204" stroke="#000" stroke-linejoin="round" stroke-width=".459" d="M441.867 174.347c-.661.144-.933 1.335-.79 2.096.144.789.861 1.866 1.55 1.708s.919-1.464.747-2.254c-.173-.732-.861-1.693-1.507-1.55Z"/><path fill="#FA0204" stroke="#000" stroke-linejoin="round" stroke-width=".459" d="M440.416 176.629c-.66.144-.932 1.335-.789 2.096.144.789.861 1.866 1.55 1.708s.919-1.464.746-2.254c-.172-.732-.861-1.693-1.507-1.55Z"/><path fill="#FA0204" stroke="#000" stroke-linejoin="round" stroke-width=".459" d="M439.182 178.983c-.66.029-1.148 1.148-1.148 1.909 0 .804.503 1.995 1.206 1.966.717-.029 1.177-1.263 1.148-2.081-.029-.761-.531-1.823-1.191-1.794z"/><path fill="#FA0204" stroke="#000" stroke-linejoin="round" stroke-width=".459" d="M437.705 181.739c-.66.028-1.148 1.148-1.148 1.908 0 .804.502 1.995 1.205 1.967.718-.029 1.177-1.263 1.148-2.081-.028-.761-.531-1.823-1.191-1.794z"/><path fill="#FA0204" stroke="#000" stroke-linejoin="round" stroke-width=".459" d="M435.968 184.294c-.661.028-1.149 1.148-1.149 1.908 0 .804.503 1.995 1.206 1.967.718-.029 1.177-1.263 1.148-2.081-.029-.761-.531-1.823-1.191-1.794z"/><path fill="#FA0204" stroke="#000" stroke-linejoin="round" stroke-width=".459" d="M434.174 186.489c-.661.029-1.149 1.148-1.149 1.909 0 .804.503 1.995 1.206 1.966.718-.028 1.177-1.263 1.148-2.081-.029-.76-.531-1.822-1.191-1.794z"/><path fill="#FA0204" stroke="#000" stroke-linejoin="round" stroke-width=".459" d="M432.322 188.527c-.66.029-1.148 1.149-1.148 1.909 0 .804.502 1.995 1.205 1.966.718-.028 1.177-1.262 1.149-2.081-.029-.76-.531-1.822-1.192-1.794z"/><path fill="#FA0204" stroke="#000" stroke-linejoin="round" stroke-width=".459" d="M430.284 190.192c-.66.028-1.148 1.148-1.148 1.909 0 .803.502 1.995 1.205 1.966.718-.029 1.177-1.263 1.148-2.081-.028-.761-.531-1.823-1.191-1.794z"/><path fill="#FA0204" stroke="#000" stroke-linejoin="round" stroke-width=".459" d="M428.332 191.986c-.66.029-1.148 1.148-1.148 1.909 0 .804.502 1.995 1.205 1.966.718-.028 1.177-1.263 1.148-2.081-.028-.76-.531-1.823-1.191-1.794z"/><path fill="#FA0204" stroke="#000" stroke-linejoin="round" stroke-width=".459" d="m426.094 192.89-.761 2.957s.431 1.048.861 1.004c.789-.086 1.005-1.291 1.148-2.081.144-1.205-1.248-1.88-1.248-1.88Zm46.558 1.88c.23.862 2.196 1.622 2.196 1.622l-.962-3.99c-.818.029-1.363 1.78-1.234 2.354z"/><path fill="#FA0204" stroke="#000" stroke-linejoin="round" stroke-width=".459" d="M472.48 191.569c-.618-.258-1.507.574-1.823 1.278-.33.732-.345 2.009.316 2.282.66.258 1.578-.689 1.88-1.435.287-.718.244-1.881-.373-2.139z"/><path fill="#FA0204" stroke="#000" stroke-linejoin="round" stroke-width=".459" d="M470.298 189.804c-.675-.043-1.249 1.034-1.321 1.794-.072.804.316 2.024 1.019 2.067.718.029 1.292-1.148 1.335-1.966.043-.761-.373-1.866-1.033-1.895Z"/><path fill="#FA0204" stroke="#000" stroke-linejoin="round" stroke-width=".459" d="M468.375 187.838c-.675-.043-1.249 1.034-1.321 1.794-.071.804.316 2.024 1.019 2.067.718.029 1.292-1.148 1.335-1.966.043-.761-.373-1.866-1.033-1.895Z"/><path fill="#FA0204" stroke="#000" stroke-linejoin="round" stroke-width=".459" d="M466.581 185.613c-.675-.043-1.249 1.034-1.321 1.794-.071.804.316 2.024 1.019 2.067.718.029 1.292-1.148 1.335-1.966.043-.761-.373-1.866-1.033-1.895Z"/><path fill="#FA0204" stroke="#000" stroke-linejoin="round" stroke-width=".459" d="M464.744 183.734c-.675-.043-1.249 1.033-1.32 1.794-.072.803.315 2.023 1.019 2.066.717.029 1.291-1.148 1.334-1.966.043-.76-.373-1.866-1.033-1.894Z"/><path fill="#FA0204" stroke="#000" stroke-linejoin="round" stroke-width=".459" d="M463.265 181.15c-.674-.043-1.248 1.034-1.32 1.794-.072.804.316 2.024 1.019 2.067.718.029 1.292-1.148 1.335-1.966.043-.761-.373-1.866-1.034-1.895Z"/><path fill="#FA0204" stroke="#000" stroke-linejoin="round" stroke-width=".459" d="M461.643 178.84c-.674-.043-1.248 1.033-1.32 1.794-.072.804.316 2.024 1.019 2.067.718.028 1.292-1.149 1.335-1.967.043-.76-.373-1.865-1.034-1.894Z"/><path fill="#FA0204" stroke="#000" stroke-linejoin="round" stroke-width=".459" d="M460.165 176.386c-.675-.044-1.249 1.033-1.321 1.794-.071.803.316 2.023 1.019 2.066.718.029 1.292-1.148 1.335-1.966.043-.761-.373-1.866-1.033-1.894Z"/><path fill="#FA0204" stroke="#000" stroke-linejoin="round" stroke-width=".459" d="M458.845 173.544c-.675-.043-1.249 1.033-1.321 1.794-.072.803.316 2.023 1.019 2.066.718.029 1.292-1.148 1.335-1.966.043-.76-.373-1.866-1.033-1.894Z"/><path fill="#FA0204" stroke="#000" stroke-linejoin="round" stroke-width=".459" d="M457.409 170.974c-.675-.043-1.249 1.034-1.32 1.794-.072.804.315 2.024 1.019 2.067.717.029 1.291-1.148 1.334-1.966.043-.761-.373-1.866-1.033-1.895Z"/><path fill="#FA0204" stroke="#000" stroke-linejoin="round" stroke-width=".459" d="M456.232 167.918c-.674-.043-1.248 1.033-1.32 1.794-.072.803.316 2.023 1.019 2.066.717.029 1.291-1.148 1.335-1.966.043-.76-.374-1.866-1.034-1.894Z"/><path fill="#FA0204" stroke="#000" stroke-linejoin="round" stroke-width=".459" d="M453.506 164.818s-.23 3.817 1.148 4.061c.875.158 1.564-2.138 1.564-2.138zM450.377 208.763c-.416.517.143 1.608.717 2.11.617.517 1.852.89 2.282.33.431-.559-.215-1.708-.861-2.21-.574-.459-1.722-.761-2.138-.23Z"/><path fill="#FA0204" stroke="#000" stroke-linejoin="round" stroke-width=".459" d="M453.004 208.448c-.417.516.143 1.607.717 2.109.617.517 1.852.89 2.282.33.431-.559-.215-1.707-.861-2.21-.574-.459-1.722-.76-2.138-.229Z"/><path fill="#FA0204" stroke="#000" stroke-linejoin="round" stroke-width=".459" d="M455.658 207.931c-.416.517.144 1.608.718 2.11.617.517 1.851.89 2.282.33.43-.559-.216-1.708-.862-2.21-.574-.459-1.722-.761-2.138-.23Z"/><path fill="#FA0204" stroke="#000" stroke-linejoin="round" stroke-width=".459" d="M458.156 207.759c-.33.574.374 1.579 1.019 1.981.689.43 1.967.617 2.297 0 .359-.632-.459-1.665-1.163-2.067-.66-.373-1.837-.488-2.153.086Z"/><path fill="#FA0204" stroke="#000" stroke-linejoin="round" stroke-width=".459" d="M461.027 207.3c-.331.574.373 1.578 1.019 1.98.689.431 1.966.617 2.296 0 .359-.631-.459-1.665-1.163-2.066-.66-.374-1.837-.488-2.152.086Z"/><path fill="#FA0204" stroke="#000" stroke-linejoin="round" stroke-width=".459" d="M463.509 206.554c-.287.617.517 1.535 1.206 1.88.717.358 2.009.43 2.296-.216.287-.645-.632-1.607-1.364-1.937-.688-.316-1.865-.33-2.152.287z"/><path fill="#FA0204" stroke="#000" stroke-linejoin="round" stroke-width=".459" d="M466.222 205.75c-.287.617.517 1.535 1.205 1.88.718.359 2.01.43 2.297-.215.287-.646-.632-1.608-1.364-1.938-.689-.316-1.865-.33-2.152.287z"/><path fill="#FA0204" stroke="#000" stroke-linejoin="round" stroke-width=".459" d="M468.934 204.903c-.244.632.603 1.507 1.306 1.794.747.316 2.038.316 2.282-.344.244-.675-.717-1.579-1.478-1.866-.717-.258-1.88-.201-2.11.416Z"/><path fill="#FA0204" stroke="#000" stroke-linejoin="round" stroke-width=".459" d="M471.689 204.013c-.244.632.603 1.507 1.306 1.794.747.316 2.038.316 2.282-.344.244-.675-.717-1.579-1.478-1.866-.718-.258-1.88-.201-2.11.416Z"/><path fill="#FA0204" stroke="#000" stroke-linejoin="round" stroke-width=".459" d="M474.346 202.893c-.244.632.602 1.507 1.306 1.794.746.316 2.038.316 2.282-.344.244-.675-.718-1.579-1.479-1.866-.717-.258-1.88-.201-2.109.416ZM477.187 201.717c-.244.631.603 1.507 1.306 1.794.747.315 2.038.315 2.282-.345.244-.674-.717-1.579-1.478-1.866-.717-.258-1.88-.201-2.11.417Z"/><path fill="#FA0204" stroke="#000" stroke-linejoin="round" stroke-width=".459" d="M480.057 200.798c-.243.632.603 1.507 1.307 1.794.746.316 2.038.316 2.282-.344.244-.675-.718-1.579-1.479-1.866-.717-.258-1.88-.201-2.11.416Z"/><path fill="#FA0204" stroke="#000" stroke-linejoin="round" stroke-width=".459" d="M480.402 198.545c-.244.631.603 1.507 1.306 1.794.747.316 2.038.316 2.282-.344.244-.675-.717-1.579-1.478-1.866-.718-.259-1.88-.201-2.11.416Z"/><path fill="#FA0204" stroke="#000" stroke-linejoin="round" stroke-width=".459" d="M479.756 197.87s1.952.287 2.124-.416c.23-.933-2.21-1.823-2.21-1.823zM427.356 203.712c-.574.359-.43 1.564-.057 2.224.387.704 1.406 1.493 2.009 1.12s.402-1.679-.028-2.368c-.388-.646-1.35-1.321-1.924-.976Z"/><path fill="#FA0204" stroke="#000" stroke-linejoin="round" stroke-width=".459" d="M430.069 204.831c-.574.359-.43 1.564-.057 2.225.387.703 1.406 1.492 2.009 1.119s.402-1.679-.029-2.368c-.387-.646-1.349-1.32-1.923-.976Z"/><path fill="#FA0204" stroke="#000" stroke-linejoin="round" stroke-width=".459" d="M432.667 205.233c-.574.359-.431 1.564-.058 2.225.388.703 1.407 1.492 2.01 1.119s.402-1.679-.029-2.368c-.387-.646-1.349-1.32-1.923-.976ZM435.508 205.936c-.574.359-.431 1.564-.058 2.225.388.703 1.407 1.492 2.01 1.119s.401-1.679-.029-2.368c-.388-.646-1.349-1.32-1.923-.976Z"/><path fill="#FA0204" stroke="#000" stroke-linejoin="round" stroke-width=".459" d="M438.077 206.309c-.574.359-.431 1.564-.057 2.225.387.703 1.406 1.492 2.009 1.119s.402-1.679-.029-2.368c-.387-.646-1.349-1.32-1.923-.976Z"/><path fill="#FA0204" stroke="#000" stroke-linejoin="round" stroke-width=".459" d="M440.603 206.826c-.574.359-.43 1.564-.057 2.224.387.704 1.406 1.493 2.009 1.12s.402-1.679-.028-2.368c-.388-.646-1.35-1.321-1.924-.976Z"/><path fill="#FA0204" stroke="#000" stroke-linejoin="round" stroke-width=".459" d="M443.201 207.543c-.574.359-.431 1.565-.057 2.225.387.703 1.406 1.493 2.009 1.119.603-.373.402-1.679-.029-2.368-.387-.646-1.349-1.32-1.923-.976Z"/><path fill="#FA0204" stroke="#000" stroke-linejoin="round" stroke-width=".459" d="M445.77 208.003c-.574.358-.43 1.564-.057 2.224.387.703 1.406 1.493 2.009 1.12s.402-1.68-.028-2.368c-.388-.646-1.35-1.321-1.924-.976Z"/><path fill="#FA0204" stroke="#000" stroke-linejoin="round" stroke-width=".459" d="M448.396 208.405c-.574.359-.43 1.564-.057 2.225.387.703 1.406 1.492 2.009 1.119s.402-1.679-.028-2.368c-.388-.646-1.35-1.32-1.924-.976ZM419.692 195.373c-.603-.301-1.579.431-1.952 1.091-.388.717-.545 1.98.086 2.296.632.33 1.651-.517 2.009-1.234.359-.675.431-1.852-.143-2.153Z"/><path fill="#FA0204" stroke="#000" stroke-linejoin="round" stroke-width=".459" d="M418.802 197.798c-.631-.229-1.492.632-1.779 1.349-.287.747-.287 2.024.387 2.268.675.23 1.565-.746 1.837-1.507.259-.718.187-1.88-.43-2.11z"/><path fill="#FA0204" stroke="#000" stroke-linejoin="round" stroke-width=".459" d="M419.62 200.038c-.646-.173-1.435.76-1.65 1.492-.23.775-.087 2.053.602 2.225s1.479-.876 1.694-1.665c.187-.732 0-1.894-.646-2.067z"/><path fill="#FA0204" stroke="#000" stroke-linejoin="round" stroke-width=".459" d="M421.73 200.942c-.646-.187-1.464.717-1.708 1.435-.244.775-.143 2.052.531 2.253.675.201 1.507-.832 1.737-1.607.215-.718.072-1.895-.574-2.081z"/><path fill="#FA0204" stroke="#000" stroke-linejoin="round" stroke-width=".459" d="M423.108 201.301c-.66.158-.904 1.349-.746 2.11.158.789.89 1.837 1.579 1.664.688-.172.889-1.478.688-2.267-.172-.718-.889-1.665-1.535-1.507z"/><path fill="#FA0204" stroke="#000" stroke-linejoin="round" stroke-width=".459" d="M425.519 202.191c-.66.158-.904 1.349-.746 2.11.158.789.89 1.837 1.579 1.664.689-.172.89-1.478.689-2.267-.173-.718-.89-1.665-1.536-1.507zM447.205 164.416c-.488.445-.101 1.607.402 2.181.531.603 1.693 1.163 2.21.675.502-.488.043-1.723-.517-2.311-.531-.56-1.607-1.005-2.095-.56z"/><path fill="#FA0204" stroke="#000" stroke-linejoin="round" stroke-width=".459" d="M446.645 166.956c-.488.445-.1 1.608.402 2.182.531.602 1.694 1.162 2.21.674.503-.488.044-1.722-.516-2.31-.531-.56-1.608-1.005-2.096-.56z"/><path fill="#FA0204" stroke="#000" stroke-linejoin="round" stroke-width=".459" d="M446.675 169.855c-.488.445-.101 1.607.402 2.181.531.603 1.693 1.163 2.21.675.502-.488.043-1.722-.517-2.311-.531-.56-1.607-1.004-2.095-.56zM446.645 172.897c-.488.445-.1 1.608.402 2.182.531.603 1.694 1.162 2.21.674.503-.488.044-1.722-.516-2.31-.531-.56-1.608-1.005-2.096-.56z"/><path fill="#FA0204" stroke="#000" stroke-linejoin="round" stroke-width=".459" d="M446.775 175.868c-.488.445-.1 1.608.402 2.182.531.603 1.694 1.163 2.21.675.503-.488.043-1.723-.516-2.311-.531-.56-1.608-1.005-2.096-.56zM446.287 178.609c-.488.445-.101 1.608.402 2.182.531.603 1.693 1.162 2.21.675.502-.488.043-1.723-.517-2.311-.531-.56-1.607-1.005-2.095-.56z"/><path fill="#FA0204" stroke="#000" stroke-linejoin="round" stroke-width=".459" d="M446.645 181.681c-.488.445-.1 1.608.402 2.182.531.603 1.694 1.162 2.21.674.503-.488.044-1.722-.516-2.31-.531-.56-1.608-1.005-2.096-.56z"/><path fill="#FA0204" stroke="#000" stroke-linejoin="round" stroke-width=".459" d="M446.287 184.164c-.488.445-.101 1.607.402 2.181.531.603 1.693 1.163 2.21.675.502-.488.043-1.722-.517-2.311-.531-.559-1.607-1.004-2.095-.559z"/><path fill="#FA0204" stroke="#000" stroke-linejoin="round" stroke-width=".459" d="M446.645 186.618c-.488.445-.1 1.608.402 2.182.531.603 1.694 1.162 2.21.674.503-.488.044-1.722-.516-2.31-.531-.56-1.608-1.005-2.096-.56z"/><path fill="#FA0204" stroke="#000" stroke-linejoin="round" stroke-width=".459" d="M446.645 189.546c-.488.445-.1 1.608.402 2.182.531.603 1.694 1.162 2.21.674.503-.488.044-1.722-.516-2.31-.531-.56-1.608-1.005-2.096-.56z"/><path fill="#FA0204" stroke="#000" stroke-linejoin="round" stroke-width=".459" d="M446.459 192.417c-.488.444-.101 1.607.402 2.181.531.603 1.693 1.163 2.21.675.502-.488.043-1.723-.517-2.311-.531-.56-1.607-1.005-2.095-.56z"/><path fill="#FA0204" stroke="#000" stroke-linejoin="round" stroke-width=".459" d="M446.502 195.172c-.488.445-.101 1.608.402 2.182.531.602 1.693 1.162 2.21.674.502-.488.043-1.722-.517-2.31-.531-.56-1.607-1.005-2.095-.56z"/><path fill="#FA0204" stroke="#000" stroke-linejoin="round" stroke-width=".459" d="M446.602 198.1c-.488.445-.1 1.608.402 2.182.531.602 1.694 1.162 2.21.674.503-.488.044-1.722-.516-2.31-.531-.56-1.608-1.005-2.096-.56z"/><path fill="#FA0204" stroke="#000" stroke-linejoin="round" stroke-width=".459" d="M446.602 200.942c-.488.445-.1 1.607.402 2.181.531.603 1.694 1.163 2.21.675.503-.488.044-1.722-.516-2.311-.531-.559-1.608-1.004-2.096-.559z"/><path fill="#FA0204" stroke="#000" stroke-linejoin="round" stroke-width=".459" d="M446.502 203.783c-.488.445-.101 1.607.402 2.182.531.602 1.693 1.162 2.21.674.502-.488.043-1.722-.517-2.311-.531-.559-1.607-1.004-2.095-.559z"/><path fill="#FA0204" stroke="#000" stroke-linejoin="round" stroke-width=".459" d="M446.33 206.668c-.488.445-.101 1.607.402 2.182.531.602 1.693 1.162 2.21.674.502-.488.043-1.722-.517-2.311-.531-.559-1.607-1.004-2.095-.559zM446.33 209.811c-.488.445-.101 1.608.402 2.182.531.603 1.693 1.162 2.21.674.502-.488.043-1.722-.517-2.31-.531-.56-1.607-1.005-2.095-.56zM446.244 213.084c-.488.445-.1 1.607.402 2.181.531.603 1.693 1.163 2.21.675.502-.488.043-1.722-.517-2.311-.531-.56-1.607-1.004-2.095-.56zM446.244 216.155c-.488.445-.1 1.607.402 2.181.531.603 1.693 1.163 2.21.675.502-.488.043-1.722-.517-2.311-.531-.559-1.607-1.004-2.095-.56z"/><path fill="#FA0204" stroke="#000" stroke-linejoin="round" stroke-width=".459" d="M446.244 218.982c-.488.445-.1 1.607.402 2.182.531.602 1.693 1.162 2.21.674.502-.488.043-1.722-.517-2.311-.531-.559-1.607-1.004-2.095-.559zM446.157 222.183c-.488.445-.1 1.608.402 2.182.531.602 1.693 1.162 2.21.674.502-.488.043-1.722-.517-2.31-.531-.56-1.607-1.005-2.095-.56zM453.276 164.616c.359.531-.187 1.55-.732 2.01-.574.459-1.722.775-2.081.215-.373-.574.273-1.636.861-2.096.574-.43 1.607-.66 1.952-.143z"/><path fill="#FA0204" stroke="#000" stroke-linejoin="round" stroke-width=".459" d="M453.664 166.928c.358.531-.187 1.55-.732 2.009-.575.459-1.723.775-2.081.215-.374-.574.272-1.636.861-2.095.574-.431 1.607-.66 1.952-.144z"/><path fill="#FA0204" stroke="#000" stroke-linejoin="round" stroke-width=".459" d="M453.621 169.511c.358.531-.187 1.55-.732 2.009-.574.459-1.723.775-2.081.215-.374-.574.272-1.636.861-2.095.574-.431 1.607-.66 1.952-.144z"/><path fill="#FA0204" stroke="#000" stroke-linejoin="round" stroke-width=".459" d="M453.578 172.137c.358.531-.187 1.55-.732 2.01-.574.459-1.723.775-2.081.215-.374-.574.272-1.636.861-2.096.574-.43 1.607-.66 1.952-.143z"/><path fill="#FA0204" stroke="#000" stroke-linejoin="round" stroke-width=".459" d="M453.535 174.534c.358.531-.187 1.55-.732 2.009-.574.46-1.723.775-2.081.216-.374-.575.272-1.637.861-2.096.574-.43 1.607-.66 1.952-.143zM453.664 177.117c.358.531-.187 1.55-.732 2.01-.575.459-1.723.775-2.081.215-.374-.574.272-1.636.861-2.096.574-.43 1.607-.66 1.952-.143z"/><path fill="#FA0204" stroke="#000" stroke-linejoin="round" stroke-width=".459" d="M453.492 179.6c.358.531-.187 1.55-.732 2.009-.574.459-1.723.775-2.081.215-.374-.574.272-1.636.861-2.095.574-.43 1.607-.66 1.952-.143z"/><path fill="#FA0204" stroke="#000" stroke-linejoin="round" stroke-width=".459" d="M453.434 182.241c.373.559-.216 1.621-.818 2.081-.646.488-1.895.818-2.297.229-.416-.574.287-1.693.947-2.153.632-.444 1.78-.688 2.153-.143z"/><path fill="#FA0204" stroke="#000" stroke-linejoin="round" stroke-width=".459" d="M453.248 184.766c.502.46.115 1.622-.388 2.196-.531.603-1.693 1.149-2.196.675-.516-.502-.043-1.722.517-2.325.517-.545 1.593-1.005 2.081-.546z"/><path fill="#FA0204" stroke="#000" stroke-linejoin="round" stroke-width=".459" d="M453.334 187.694c.502.46.115 1.622-.388 2.196-.531.603-1.693 1.149-2.196.675-.516-.502-.043-1.722.517-2.325.517-.546 1.593-1.005 2.081-.546z"/><path fill="#FA0204" stroke="#000" stroke-linejoin="round" stroke-width=".459" d="M453.377 190.579c.502.46.115 1.622-.388 2.196-.531.603-1.693 1.149-2.196.675-.516-.502-.043-1.722.517-2.325.517-.546 1.593-1.005 2.081-.546zM453.291 193.68c.502.459.115 1.621-.388 2.195-.531.603-1.693 1.149-2.196.675-.516-.502-.043-1.722.517-2.325.517-.545 1.593-1.005 2.081-.545z"/><path fill="#FA0204" stroke="#000" stroke-linejoin="round" stroke-width=".459" d="M453.377 196.565c.502.459.115 1.621-.388 2.195-.531.603-1.693 1.149-2.196.675-.516-.502-.043-1.722.517-2.325.517-.545 1.593-1.005 2.081-.545z"/><path fill="#FA0204" stroke="#000" stroke-linejoin="round" stroke-width=".459" d="M453.291 199.492c.502.459.115 1.622-.388 2.196-.531.603-1.693 1.148-2.196.674-.516-.502-.043-1.722.517-2.325.517-.545 1.593-1.004 2.081-.545z"/><path fill="#FA0204" stroke="#000" stroke-linejoin="round" stroke-width=".459" d="M453.334 202.42c.502.459.115 1.622-.388 2.196-.531.602-1.693 1.148-2.196.674-.516-.502-.043-1.722.517-2.325.517-.545 1.593-1.004 2.081-.545z"/><path fill="#FA0204" stroke="#000" stroke-linejoin="round" stroke-width=".459" d="M453.334 205.391c.502.459.115 1.622-.388 2.196-.531.602-1.693 1.148-2.196.674-.516-.502-.043-1.722.517-2.325.517-.545 1.593-1.005 2.081-.545z"/><path fill="#FA0204" stroke="#000" stroke-linejoin="round" stroke-width=".459" d="M453.205 208.362c.502.459.115 1.622-.388 2.196-.531.603-1.693 1.148-2.196.674-.516-.502-.043-1.722.517-2.325.517-.545 1.593-1.004 2.081-.545z"/><path fill="#FA0204" stroke="#000" stroke-linejoin="round" stroke-width=".459" d="M453.377 211.074c.502.46.115 1.622-.388 2.196-.531.603-1.693 1.148-2.196.675-.516-.503-.043-1.722.517-2.325.517-.546 1.593-1.005 2.081-.546z"/><path fill="#FA0204" stroke="#000" stroke-linejoin="round" stroke-width=".459" d="M453.377 213.916c.502.46.115 1.622-.388 2.196-.531.603-1.693 1.148-2.196.675-.516-.503-.043-1.722.517-2.325.517-.546 1.593-1.005 2.081-.546zM453.291 216.973c.502.459.115 1.622-.388 2.196-.531.602-1.693 1.148-2.196.674-.516-.502-.043-1.722.517-2.325.517-.545 1.593-1.004 2.081-.545zM453.291 219.987c.502.459.115 1.622-.388 2.196-.531.603-1.693 1.148-2.196.674-.516-.502-.043-1.722.517-2.325.517-.545 1.593-1.004 2.081-.545z"/><path fill="#FA0204" d="M448.597 242.85a11.05 11.05 0 0 0 6.932.058l-2.512-4.019"/><path stroke="#000" stroke-linejoin="round" stroke-width=".459" d="M448.597 242.85a11.05 11.05 0 0 0 6.932.058l-2.512-4.019"/><path fill="#CE9D09" stroke="#000" stroke-linejoin="round" stroke-width=".459" d="m454.151 232.502-4.549-1.177s.057-5.052 2.927-4.607c2.383.359 1.723 5.784 1.622 5.784Z"/><path fill="#CE9D09" stroke="#000" stroke-linejoin="round" stroke-width=".459" d="M451.941 226.718a1.85 1.85 0 1 0 .002-3.702 1.85 1.85 0 0 0-.002 3.702Z"/><path fill="#FA0204" d="M453.735 234.756c1.005 2.555 1.622 4.765.675 7.649Zm1.765 8.152c-1.463-1.191-5.252-.847-6.889-.058-.631 0-2.353-11.941 3.689-11.654 5.569.288 3.588 11.769 3.2 11.712"/><path stroke="#000" stroke-linejoin="round" stroke-width=".459" d="M453.735 234.756c1.005 2.555 1.622 4.765.675 7.649m1.09.503c-1.463-1.191-5.252-.847-6.889-.058-.631 0-2.353-11.941 3.689-11.654 5.569.288 3.588 11.769 3.2 11.712Z"/><path fill="#FA0204" d="M443.659 245.433a6.74 6.74 0 0 0 7.779.072l-5.77-6.028"/><path stroke="#000" stroke-linejoin="round" stroke-width=".459" d="M443.659 245.433a6.74 6.74 0 0 0 7.779.072l-5.77-6.028"/><path fill="#CE9D09" stroke="#000" stroke-linejoin="round" stroke-width=".459" d="M447.707 228.914a1.852 1.852 0 1 0-.001-3.703 1.852 1.852 0 0 0 .001 3.703Z"/><path fill="#CE9D09" stroke="#000" stroke-linejoin="round" stroke-width=".459" d="m449.989 233.047-4.694-.086s-.602-3.818 2.325-3.99c2.426-.143 2.469 4.076 2.369 4.076Z"/><path fill="#FA0204" d="M447.735 244.629c-.904-1.995-.99-4.449-.746-7.104Zm-2.095.129c-1.105-1.894-1.306-4.305-.431-7.348Zm5.798.775c-.718-.889-5.784-1.263-7.764-.057-.718 0-2.67-13.462 4.162-13.132 6.257.301 4.018 13.247 3.588 13.189z"/><path stroke="#000" stroke-linejoin="round" stroke-width=".459" d="M447.735 244.629c-.904-1.995-.99-4.449-.746-7.104m-1.349 7.233c-1.105-1.894-1.306-4.305-.431-7.348m6.229 8.123c-.718-.889-5.784-1.263-7.764-.057-.718 0-2.67-13.462 4.162-13.132 6.257.301 4.018 13.247 3.588 13.189z"/></g><defs><clipPath id="a"><path fill="#fff" d="M0 0h600v300H0z"/></clipPath></defs></svg>