<svg xmlns="http://www.w3.org/2000/svg" width="600" height="300" fill="none"><g clip-path="url(#a)"><path fill="#CF142B" d="M0 0h600v300H0z"/><path fill="#00247D" d="M0 0h600v200H0z"/><path fill="#FC0" d="M0 0h600v100H0z"/><path fill="#fff" d="m312.588 108.238-6.313 12.203 7.106 3.75z"/><path fill="#fff" d="m312.587 108.238 1.759 13.626-7.961 1.093z"/><path fill="#fff" d="m323.743 119.789-13.557-2.233-1.37 7.918z"/><path fill="#fff" d="m323.743 119.789-12.416 5.883-3.5-7.233z"/><path fill="#fff" d="m298.153 115.278 9.656 9.775 5.762-5.6z"/><path fill="#fff" d="m298.153 115.277 13.503 2.538-1.42 7.909z"/><path fill="#fff" d="m316.203 133.969-2.065-13.584-7.954 1.144z"/><path fill="#fff" d="m316.203 133.969-9.432-9.991 5.797-5.563z"/><path fill="#fff" d="m300.389 131.18 12.28-6.162-3.545-7.211z"/><path fill="#fff" d="m300.389 131.18 6.586-12.058 7.083 3.795zM349.144 121.545l-10.106 9.308 5.395 5.954z"/><path fill="#fff" d="m349.143 121.545-3.008 13.406-7.854-1.696z"/><path fill="#fff" d="m355.675 136.214-11.975-6.735-3.996 6.971z"/><path fill="#fff" d="m355.675 136.214-13.679 1.282-.815-7.994z"/><path fill="#fff" d="m333.173 123.223 5.73 12.488 7.33-3.291z"/><path fill="#fff" d="m333.174 123.223 11.821 7.004-4.04 6.946z"/><path fill="#fff" d="m343.743 146.961 2.705-13.471-7.865-1.645z"/><path fill="#fff" d="m343.743 146.961-5.447-12.614 7.351-3.245z"/><path fill="#fff" d="m329.835 138.931 13.647-1.59-.865-7.988z"/><path fill="#fff" d="m329.835 138.931 10.313-9.077 5.358 5.988zM378.946 146.552l-12.68 5.291 3.033 7.44z"/><path fill="#fff" d="m378.946 146.553-7.412 11.568-6.801-4.279z"/><path fill="#fff" d="m380.066 162.571-8.95-10.425-6.139 5.185z"/><path fill="#fff" d="m380.065 162.571-13.293-3.474 1.969-7.791z"/><path fill="#fff" d="m363.363 142.666 1.113 13.694 8.014-.585z"/><path fill="#fff" d="m363.363 142.666 8.713 10.624-6.172 5.146z"/><path fill="#fff" d="m365.175 168.587 7.149-11.733-6.828-4.236z"/><path fill="#fff" d="m365.175 168.587-.804-13.716 8.017-.536z"/><path fill="#fff" d="m354.853 156.284 13.368 3.174 1.919-7.803z"/><path fill="#fff" d="m354.853 156.284 12.797-5.003 2.986 7.46zM398.396 180.243l-13.725.634.306 8.029z"/><path fill="#fff" d="m398.396 180.242-10.921 8.337-4.927-6.348z"/><path fill="#fff" d="m393.97 195.679-4.845-12.857-7.542 2.772z"/><path fill="#fff" d="m393.97 195.68-11.304-7.811 4.515-6.648z"/><path fill="#fff" d="m385.082 171.263-3.638 13.249 7.731 2.191z"/><path fill="#fff" d="m385.082 171.264 4.553 12.963-7.559 2.724z"/><path fill="#fff" d="m377.92 196.241 10.731-8.581-4.967-6.316z"/><path fill="#fff" d="m377.92 196.241 3.936-13.164 7.717 2.239z"/><path fill="#fff" d="m372.427 181.15 11.477 7.554 4.472-6.676z"/><path fill="#fff" d="m372.427 181.149 13.736-.324.255 8.031zM187.875 180.242l10.922 8.336 4.927-6.347z"/><path fill="#fff" d="m187.876 180.242 13.725.634-.306 8.03z"/><path fill="#fff" d="m201.189 171.262-4.553 12.963 7.559 2.725z"/><path fill="#fff" d="m201.189 171.262 3.638 13.249-7.731 2.19z"/><path fill="#fff" d="m192.302 195.681 11.303-7.811-4.514-6.648z"/><path fill="#fff" d="m192.302 195.68 4.844-12.857 7.542 2.772z"/><path fill="#fff" d="m213.843 181.148-13.735-.324-.255 8.031z"/><path fill="#fff" d="m213.843 181.148-11.476 7.555-4.473-6.676z"/><path fill="#fff" d="m208.351 196.239-3.936-13.164-7.717 2.239z"/><path fill="#fff" d="m208.351 196.238-10.731-8.58 4.967-6.317zM207.328 146.552l7.411 11.569 6.801-4.28z"/><path fill="#fff" d="m207.328 146.552 12.68 5.29-3.034 7.441z"/><path fill="#fff" d="m222.91 142.666-8.712 10.624 6.171 5.146z"/><path fill="#fff" d="m222.91 142.666-1.113 13.694-8.014-.585z"/><path fill="#fff" d="m206.207 162.572 13.293-3.474-1.968-7.79z"/><path fill="#fff" d="m206.207 162.573 8.95-10.425 6.139 5.184z"/><path fill="#fff" d="m231.419 156.285-12.796-5.003-2.987 7.46z"/><path fill="#fff" d="m231.42 156.286-13.368 3.173-1.92-7.803z"/><path fill="#fff" d="m221.097 168.589.804-13.716-8.018-.536z"/><path fill="#fff" d="m221.097 168.588-7.149-11.733 6.827-4.237zM237.129 121.544l3.008 13.406 7.855-1.695z"/><path fill="#fff" d="m237.13 121.544 10.106 9.308-5.396 5.955z"/><path fill="#fff" d="m253.1 123.222-11.82 7.003 4.039 6.946z"/><path fill="#fff" d="m253.1 123.222-5.73 12.488-7.33-3.292z"/><path fill="#fff" d="m230.597 136.215 13.68 1.282.814-7.994z"/><path fill="#fff" d="m230.597 136.215 11.976-6.735 3.995 6.971z"/><path fill="#fff" d="m256.44 138.93-10.314-9.077-5.358 5.988z"/><path fill="#fff" d="m256.439 138.93-13.647-1.59.865-7.988z"/><path fill="#fff" d="m242.532 146.96 5.446-12.614-7.351-3.245z"/><path fill="#fff" d="m242.532 146.96-2.705-13.471 7.865-1.646zM273.685 108.239l-1.758 13.626 7.96 1.093z"/><path fill="#fff" d="m273.686 108.238 6.313 12.204-7.107 3.75z"/><path fill="#fff" d="m288.119 115.278-13.503 2.538 1.421 7.909z"/><path fill="#fff" d="m288.119 115.278-9.655 9.775-5.763-5.6z"/><path fill="#fff" d="m262.529 119.79 12.416 5.883 3.5-7.233z"/><path fill="#fff" d="m262.529 119.79 13.557-2.233 1.37 7.918z"/><path fill="#fff" d="m285.884 131.18-6.587-12.057-7.083 3.794z"/><path fill="#fff" d="m285.884 131.18-12.28-6.161 3.545-7.211z"/><path fill="#fff" d="m270.069 133.97 9.432-9.991-5.798-5.563z"/><path fill="#fff" d="m270.069 133.97 2.066-13.584 7.953 1.144z"/></g><defs><clipPath id="a"><path fill="#fff" d="M0 0h600v300H0z"/></clipPath></defs></svg>