<svg xmlns="http://www.w3.org/2000/svg" width="600" height="300" fill="none"><g clip-path="url(#a)"><mask id="b" width="601" height="300" x="-1" y="0" maskUnits="userSpaceOnUse" style="mask-type:luminance"><path fill="#fff" d="M-.03 0H600v300H-.03z"/></mask><g mask="url(#b)"><path fill="#198A00" fill-rule="evenodd" d="M0 0h600v300H0z" clip-rule="evenodd"/></g><path fill="#EF7D00" fill-rule="evenodd" d="M532.118 142.643h67.881v157.22h-67.881z" clip-rule="evenodd"/><path fill="#000001" fill-rule="evenodd" d="M464.312 142.547h67.806v157.221h-67.806z" clip-rule="evenodd"/><path fill="#DE2010" fill-rule="evenodd" d="M395.075 142.643h69.238v157.22H395z" clip-rule="evenodd"/><path fill="#EF7D00" fill-rule="evenodd" stroke="#000" stroke-linejoin="round" stroke-width=".649" d="M547.489 53.517s22.067-9.411 24.144-11.358c.973 1.168-8.827 12.98-27.843 17.329 17.264-4.024 31.997-16.875 35.047-16.486.844.195.649 12.527-38.942 23.236 27.389-7.14 43.29-20.38 43.096-18.952.194.325-2.726 10.384-26.675 18.238 6.685-1.558 24.857-12.592 24.663-10.45.584.844-17.524 24.144-50.365 16.55 26.221 6.815 43.161-9.605 45.562-9.28.519.064-4.803 14.278-37.773 15.187 15.771-1.623 11.228-.065 11.228-.065s-9.281 7.269-20.574 2.336c8.826 2.402 9.8 2.531 9.995 3.245-.584 1.039-7.789 2.467-14.863-1.298 5.646 2.337 10.709 2.726 10.774 3.57-.065.26-3.635 2.337-6.88.844-3.18-1.428-32.646-19.536-32.646-19.536l50.235-13.824 1.817.649zm-59.061 49.066c-4.414 0-4.544 3.894-4.544 3.894s-.324.325-.129 2.207l1.103-1.688c.519.065 2.531.649 5.711-1.817-2.92 3.051-1.168 4.154-1.168 4.154s-.649 2.401 1.558 2.856c-.649-.974-.26-1.818-.26-1.818s3.116-.324 2.921-4.088c.065 3.439 1.947 4.283 1.947 4.283s0 1.882 2.012 2.077c-1.039-.974-.844-2.466-.844-2.466s2.596-1.947.454-5.193c1.299-.778 2.402-2.92 2.402-2.92s-1.817-.779-2.661-1.428c-.39-.844 0-5.517 0-5.517l-1.168-6.036-3.116 9.411c.13-1.298.195 4.089-4.218 4.089Z" clip-rule="evenodd"/><path fill="#EF7D00" fill-rule="evenodd" stroke="#000" stroke-linejoin="round" stroke-width=".649" d="M510.236 89.019c.129.065 3.31 3.634 6.425 3.44 1.168-.974-2.402-3.05-2.402-3.57 1.299 1.168 6.556 5.712 9.995 4.089 1.299-1.947-2.466-1.623-6.62-6.88 2.921 1.947 10.19 6.166 13.63 4.543 1.363-1.557-7.594-6.425-10.644-10.19l-7.788-3.958-10.515 8.632 7.983 3.894z" clip-rule="evenodd"/><path fill="#EF7D00" fill-rule="evenodd" stroke="#000" stroke-linecap="round" stroke-linejoin="round" stroke-width=".649" d="M498.358 59.488s3.57-2.077 17.914-1.039c1.557.195 9.735-2.79 12.396-3.7 4.154-.778 17.524-3.634 21.028-6.36 2.597-.324-.649 4.608-3.894 5.842-3.375 1.492-15.641 5.776-20.055 5.192 5.257.065 2.337 4.348-6.36 2.336 4.154 2.337 2.596 2.726 2.596 2.726s-7.334.39-9.281-1.298c4.932 1.882 2.856 2.596 2.856 2.596s-4.998.455-7.334-.649c3.569 1.104 1.752 1.753 1.752 1.753s-2.921.519-5.322-.39c-2.466-.844-6.101-6.944-6.296-6.944z" clip-rule="evenodd"/><path fill="#EF7D00" fill-rule="evenodd" stroke="#000" stroke-linejoin="round" stroke-width=".649" d="m504.07 91.03.519 9.476-.519.779c-.195.26-6.685-1.038-5.841 3.894 0 2.077 0 2.596 1.428 3.7-.325-1.298-.26-2.272-.26-2.272s1.882 1.104 3.635-1.947c-1.233 2.986-.39 4.089-.065 4.154.259.519-.519 2.921 1.947 2.856-.974-.909-.519-2.207-.519-2.207s2.596-.389 1.687-4.998c.909-.908 1.298 0 1.298 0s.26 2.726 2.531 2.142c.974.584-.194 2.077-.194 2.077s1.622 0 2.142-1.298c.454-1.428 1.038-3.894-1.623-4.933-.325-.973 1.038-1.038 1.038-1.038s1.688.584 2.207 1.428.325-2.207-1.817-2.596c-2.596 0-2.726-.584-2.726-.65l-.649-8.89z" clip-rule="evenodd"/><path fill="#EF7D00" fill-rule="evenodd" stroke="#000" stroke-linecap="round" stroke-linejoin="round" stroke-width=".714" d="M513.091 99.079c0-.455-4.413-6.426-3.245-7.14 1.103.195 2.921 2.92 4.478 2.012-.454-1.038-1.817-.454-3.31-3.18-1.557-3.115-1.752-7.724-7.139-12.721 3.505 5.322 11.293 8.437 11.682 6.88.39-1.558-6.944-7.4-6.555-8.827 1.428 2.856 8.697 9.346 14.019 8.827.39-1.298-4.348-3.765-5.581-6.101-3.44-2.337-12.591-10.19-12.721-12.007a21.6 21.6 0 0 0-6.426-6.88 3.3 3.3 0 0 1-.519-1.103c-2.077-4.868.649-6.49 2.272-6.685 1.298-.195 1.687 0 2.596-.455l-3.31-1.297c1.493 1.103 5.192.13 4.413 3.245 1.623-.65 5.128-4.803-3.959-5.712-2.985-3.375-15.122-5.322-18.173 9.476.26.195.39.39 1.169.909-3.894-1.818-14.214-3.245-17.913-3.895-10.125-2.855-20.575-9.865-21.548-9.021-1.298.649 6.101 7.529 5.711 7.658a171 171 0 0 0-17.848-8.826c-3.894-1.428-7.723-4.803-8.113-4.154-1.428 2.92 6.166 10.32 7.594 11.163 1.428.844 12.526 6.036 12.331 6.101-16.745-7.593-19.47-9.021-20.379-9.865-1.493-.325-5.062-5.192-6.036-4.868-.584.52.519 8.178 8.502 11.683 1.298.908 17.135 6.555 17.005 7.01 0 .129-18.173-7.465-18.822-7.79-3.505-1.297-7.788-6.1-8.567-5.58-.779.518 1.947 5.71 5.452 7.333 1.882.779 8.956 4.284 15.317 6.49.389.195-11.488-4.478-17.2-6.814-2.596-1.428-3.764-3.245-4.153-2.856-.649.39.908 8.048 19.276 12.332.454.26 6.49-1.364 6.165-1.169a73.5 73.5 0 0 1-10.254 1.818c-.195.519 1.168 3.245 10.644 2.725 1.168-.064 7.788-2.401 7.204-1.947a113 113 0 0 1-9.605 3.18c-.585 0-3.635.39-3.765.65-.13.519 2.272 2.466 7.334 2.725 4.543.26 13.111-2.725 12.981-2.53-.26.194-8.308 2.985-8.503 3.115-.324.194-3.245.324-3.374.584-.26.584 4.283 4.802 17.588.26-1.298 1.817-7.788 3.05-7.788 3.374 0 .26 1.428 1.623 3.699 2.142 1.104.26 2.661.195 4.089 0 2.596-.52 5.192-1.493 8.632-4.673.39.974-8.502 5.517-8.113 5.906 1.947 1.817 8.373-.195 8.762-.454.455-.195 12.332-6.945 12.332-7.788.194 1.038-15.382 9.54-15.188 9.865.974 1.558 6.296-.065 6.491-.26l7.009-3.764c.195-.065-7.658 4.543-7.009 5.322-.325 3.05 12.331-2.077 13.305-2.726.454-.325-6.101 2.856-6.101 4.348 2.142 3.57 8.892 2.467 9.93 1.688.519-.39-.649 2.596-.26 2.336a10.4 10.4 0 0 0 1.948-2.79c-.13 1.038-.909 2.596-1.299 4.413-.454 1.752-.584 3.83-1.168 5.971-.13.909 4.154-1.882 3.505-8.567.389 3.505-1.298 9.995-.844 10.384.844.65 3.375-3.245 3.635-5.906.714 1.298 2.271 4.089 3.634 4.738-.129-2.012 0-1.947-.649-3.894.39-2.661.455-6.296.52-10.45 3.634 6.945 5.127 9.93 4.088 15.253 1.104.454 2.791-3.765 2.661-5.842a8.63 8.63 0 0 0 7.464 6.62" clip-rule="evenodd"/><path fill="#EF7D00" fill-rule="evenodd" d="M452.601 54.88s-2.531 1.882-5.581 1.752c.778 3.115 7.139.714 7.139.714s-3.051 3.44-5.257 3.959c1.298 1.103 6.879.714 7.788.194.909-.584 2.596-2.725 2.596-2.725s-5.711 6.62-6.49 6.555c-.195.779 5.906.519 7.139-.65 1.298-1.168 4.543-2.855 4.543-2.855s-8.437 5.841-8.761 5.841c3.115.78 9.41-1.038 13.434-3.505-5.971 3.96-6.49 4.674-9.54 6.036 2.726.585 4.089 2.402 13.175-1.557 5.192-2.466 8.178-7.01 8.178-7.01a53 53 0 0 1-14.019 11.683c-.325.649 6.101 3.375 14.213-5.128" clip-rule="evenodd"/><path stroke="#000" stroke-linecap="round" stroke-linejoin="round" stroke-width=".714" d="M452.601 54.88s-2.531 1.882-5.581 1.752c.778 3.115 7.139.714 7.139.714s-3.051 3.44-5.257 3.959c1.298 1.103 6.879.714 7.788.194.909-.584 2.596-2.725 2.596-2.725s-5.711 6.62-6.49 6.555c-.195.779 5.906.519 7.139-.65 1.298-1.168 4.543-2.855 4.543-2.855s-8.437 5.841-8.761 5.841c3.115.78 9.41-1.038 13.434-3.505-5.971 3.96-6.49 4.674-9.54 6.036 2.726.585 4.089 2.402 13.175-1.557 5.192-2.466 8.178-7.01 8.178-7.01a53 53 0 0 1-14.019 11.683c-.325.649 6.101 3.375 14.213-5.128"/><path fill="#EF7D00" fill-rule="evenodd" d="M496.735 73.247s.585 2.596 2.791 4.543 2.337 3.894 2.337 3.894m-6.166-25.312s.714 2.401 2.985 3.894c2.337 1.428 5.842 6.101 6.036 6.945.26.973 1.623 8.177 1.493 8.956m-24.533-16.225c.13.973-3.245 5.387 1.428 10.644-4.284 5.192-4.284 5.841-4.284 5.841s2.402 1.298 6.62-2.337c7.01 8.568 4.673 12.462 4.673 12.462" clip-rule="evenodd"/><path stroke="#000" stroke-linecap="round" stroke-width=".714" d="M496.735 73.247s.585 2.596 2.791 4.543 2.337 3.894 2.337 3.894m-6.166-25.312s.714 2.401 2.985 3.894c2.337 1.428 5.842 6.101 6.036 6.945.26.973 1.623 8.177 1.493 8.956m-24.533-16.225c.13.973-3.245 5.387 1.428 10.644-4.284 5.192-4.284 5.841-4.284 5.841s2.402 1.298 6.62-2.337c7.01 8.568 4.673 12.462 4.673 12.462"/><path fill="#EF7D00" fill-rule="evenodd" d="M489.531 80.516s-.649-.909.52-4.349c1.038 1.299 2.206 1.493 2.661 1.948.519.584 5.841 1.298 6.1 4.867" clip-rule="evenodd"/><path stroke="#000" stroke-linecap="round" stroke-linejoin="round" stroke-width=".714" d="M489.531 80.516s-.649-.909.52-4.349c1.038 1.299 2.206 1.493 2.661 1.948.519.584 5.841 1.298 6.1 4.867"/><path fill="#EF7D00" fill-rule="evenodd" stroke="#000" stroke-width=".714" d="M495.762 48.26c0-.26-1.104-2.597-5.063.259 2.142.13 4.219 1.363 5.063-.26Z" clip-rule="evenodd"/><path fill="#EF7D00" fill-rule="evenodd" d="M533.535 58.644c.194.13 11.812 2.596 15.706 1.363-4.933 6.62-14.863 2.141-14.863 2.141 4.868 1.428 5.063 1.298 6.62 2.726.52 1.298-8.956.65-12.007-1.103 8.632 2.726 8.827 2.596 9.087 3.57.389 1.492-14.149-.39-15.382-2.272 3.894 2.985 5.971 3.57 8.113 4.932-2.596 1.169-7.464 2.337-16.356-3.959 11.683 10.644 22.262 9.995 23.949 11.878-4.089 6.036-19.925-3.57-27.194-8.438-7.269-4.867 15.901 11.748 18.043 11.488-1.038 1.623-8.697.195-9.216-.649" clip-rule="evenodd"/><path stroke="#000" stroke-linejoin="round" stroke-width=".714" d="M533.535 58.644c.194.13 11.812 2.596 15.706 1.363-4.933 6.62-14.863 2.141-14.863 2.141 4.868 1.428 5.063 1.298 6.62 2.726.52 1.298-8.956.65-12.007-1.103 8.632 2.726 8.827 2.596 9.087 3.57.389 1.492-14.149-.39-15.382-2.272 3.894 2.985 5.971 3.57 8.113 4.932-2.596 1.169-7.464 2.337-16.356-3.959 11.683 10.644 22.262 9.995 23.949 11.878-4.089 6.036-19.925-3.57-27.194-8.438-7.269-4.867 15.901 11.748 18.043 11.488-1.038 1.623-8.697.195-9.216-.649"/><path fill="#EF7D00" fill-rule="evenodd" d="M536.521 69.807c-1.298.194-5.387.194-5.971.064Z" clip-rule="evenodd"/><path stroke="#000" stroke-linecap="round" stroke-width=".714" d="M536.521 69.807c-1.298.194-5.387.194-5.971.064"/><path fill="#EF7D00" fill-rule="evenodd" d="M449.162 53.127s8.827 4.673 12.591 4.348a6.5 6.5 0 0 1-2.466 1.298c.909.39 3.505 1.753 7.399.91l-2.142 1.946s3.375 1.298 7.139-.649a30 30 0 0 0-1.817 2.402l2.661.194" clip-rule="evenodd"/><path stroke="#000" stroke-linecap="round" stroke-linejoin="round" stroke-width=".714" d="M449.162 53.127s8.827 4.673 12.591 4.348a6.5 6.5 0 0 1-2.466 1.298c.909.39 3.505 1.753 7.399.91l-2.142 1.946s3.375 1.298 7.139-.649a30 30 0 0 0-1.817 2.402l2.661.194"/></g><defs><clipPath id="a"><path fill="#fff" d="M0 0h600v300H0z"/></clipPath></defs></svg>