<svg width="300" height="300" viewBox="0 0 300 300" fill="none" xmlns="http://www.w3.org/2000/svg">
<g clip-path="url(#clip0_151_10196)">
<path fill-rule="evenodd" clip-rule="evenodd" d="M41 76.3081V190.988C41 251.194 89.8063 300 150.012 300C210.217 300 259.023 251.194 259.023 190.988V76.3081H41Z" fill="#0556C7"/>
<path d="M51.3372 71.3684H248.686L248.755 52.1372L51.2715 52.1922L51.3372 71.3684Z" fill="#DBB357"/>
<path d="M248.686 54.9895V70.7393L186.875 70.4938C186.875 70.4938 191.131 70.1895 193.171 70.1573C204.284 69.9814 240.328 69.6975 240.076 69.6696C234.001 68.9969 224.99 68.9677 223.919 68.9256C222.172 68.8569 221.933 68.6854 221.933 68.6854C221.933 68.6854 223.864 68.3758 225.28 68.3586C226.696 68.3414 236.573 68.226 236.573 68.226C236.573 68.226 235.808 68.0182 235.344 67.8921C230.034 67.7779 225.284 67.4045 224.471 67.3734C222.962 67.3157 222.755 67.1716 222.755 67.1716C222.755 67.1716 224.424 66.9122 225.647 66.8977C226.789 66.8842 231.894 66.6367 232.752 66.6084C232.186 66.4537 231.578 66.2862 230.966 66.1183C230.095 66.1054 225.069 65.8994 224.285 65.8694C222.775 65.8117 222.568 65.6676 222.568 65.6676C222.568 65.6676 224.237 65.4073 225.46 65.3929C226.581 65.3797 228.883 65.3955 229.373 65.3754C228.589 65.1585 227.852 64.9536 227.121 64.7492C225.307 64.7122 223.754 64.6338 222.029 64.2267C222.029 64.2267 224.335 64.1108 225.549 64.0867C224.485 63.7815 223.681 63.5425 223.33 63.4212C221.491 62.7854 220.755 62.5885 220.755 62.5885C220.755 62.5885 223.62 61.6305 226.213 60.8485C224.456 60.8081 222.454 60.645 222.454 60.645C222.454 60.645 226.074 59.9333 229.336 59.9315C229.573 59.8654 229.804 59.8019 230.026 59.7425C230.407 59.6404 230.864 59.5126 231.367 59.3685C230.963 59.3543 226.886 59.3609 225.361 59.3315C223.555 59.2966 222.431 59.0552 222.431 59.0552C222.431 59.0552 223.2 58.7785 224.881 58.7349C225.735 58.7127 232.341 58.6175 233.336 58.5627C233.919 58.3871 235.488 58.1849 236.051 58.0131C235.101 58.0174 227.146 57.73 225.075 57.6897C222.817 57.6461 222.145 57.4126 222.145 57.4126C222.145 57.4126 222.914 57.1367 224.595 57.0931C225.503 57.0695 234.417 56.9265 239.626 56.78C240.559 56.4914 241.185 56.2963 241.185 56.2963C241.185 56.2963 227.28 56.3233 224.687 56.2718C222.094 56.2202 221.321 55.945 221.321 55.945C221.321 55.945 222.204 55.6186 224.135 55.5671C225.095 55.5414 237.578 55.0996 237.578 55.0996L248.686 54.9895ZM247.868 55.8651C247.868 55.8651 246.83 55.5731 245.302 56.0957C243.773 56.6182 223.426 62.4081 223.426 62.4081L222.817 62.6762L223.492 63.0371C223.492 63.0371 240.595 68.0898 241.788 68.3454C243.205 68.6492 244.485 67.941 244.485 67.941L247.868 55.8651Z" fill="#7C5D35"/>
<path fill-rule="evenodd" clip-rule="evenodd" d="M249.819 55.1002H50.2037C48.5933 55.1002 47.2969 53.8035 47.2969 52.1929C47.2969 50.5823 48.5933 49.2856 50.2037 49.2856H249.819C251.43 49.2856 252.726 50.5823 252.726 52.1929C252.726 53.8035 251.43 55.1002 249.819 55.1002Z" fill="#DBB357"/>
<path fill-rule="evenodd" clip-rule="evenodd" d="M249.82 49.2854C249.916 49.2854 250.012 49.2907 250.107 49.3C249.935 49.2796 249.82 49.2854 249.82 49.2854ZM250.107 49.3C250.533 49.3504 251.347 49.5795 251.905 50.5841C252.687 51.9941 252.223 53.0004 251.697 53.5259C251.172 54.0513 250.445 54.4341 249.64 54.4341H50.0977C49.2302 54.4341 49.3537 55.1041 50.2049 55.0997H249.82C251.43 55.0997 252.727 53.8036 252.727 52.193C252.727 50.6793 251.581 49.4433 250.107 49.3ZM243.953 49.7844C243.953 49.7844 244.183 50.0191 244.974 50.0339L248.095 50.092C249.107 50.1109 249.36 50.1343 249.534 50.3543C249.534 50.3543 220.119 50.0156 219.273 50.0339C218.427 50.0523 218.207 50.1988 218.207 50.1988C218.207 50.1988 218.759 50.4735 219.605 50.4551C220.451 50.4368 244.597 50.7849 245.682 50.7849C246.767 50.7849 247.521 50.9686 247.521 50.9686C247.521 50.9686 246.869 51.2647 245.351 51.1882C243.894 51.1148 219.597 50.8653 218.405 50.8789C217.213 50.8925 216.901 51.1523 216.901 51.1523C216.901 51.1523 217.324 51.3719 218.281 51.3719C219.237 51.3719 243.714 51.6067 245.13 51.647C246.572 51.6882 246.895 51.9221 246.895 51.9221C246.895 51.9221 245.931 52.0772 244.395 52.0503C242.921 52.0245 219.788 51.8855 218.446 51.9221C217.103 51.9588 216.974 52.2152 216.974 52.2152C216.974 52.2152 217.967 52.5634 219.071 52.5817C220.174 52.6001 241.982 52.5732 242.902 52.6099C243.821 52.6466 244.395 52.9671 244.395 52.9671C244.395 52.9671 243.962 53.1957 242.438 53.1957C240.913 53.1957 53.2473 53.5702 51.9126 53.5702C50.4598 53.5702 50.1544 53.9232 50.1544 53.9232H248.788C250.398 53.9232 251.271 53.1087 251.344 51.8162C251.415 50.5761 250.498 49.7844 249.248 49.7844H243.953Z" fill="#7C5D35"/>
<path fill-rule="evenodd" clip-rule="evenodd" d="M209.52 50.0294C209.417 50.0297 209.33 50.0313 209.267 50.0337C208.766 50.052 208.35 50.2115 208.35 50.2115C208.35 50.2115 208.963 50.4732 209.463 50.4549C209.964 50.4365 210.948 50.4899 211.59 50.4899C212.507 50.5081 212.874 50.2703 212.874 50.2703C212.874 50.2703 212.438 50.0678 211.796 50.0678C211.796 50.0678 210.244 50.0271 209.52 50.0294ZM209.999 50.8615C209.543 50.8612 209.366 50.8718 209.013 50.8786C208.308 50.8922 207.863 51.152 207.863 51.152C207.863 51.152 208.113 51.3716 208.679 51.3716C209.245 51.3716 210.377 51.3672 211.215 51.4075C212.124 51.4343 212.36 51.2206 212.36 51.2206C212.36 51.2206 212.215 50.9514 211.362 50.9102C210.931 50.8735 210.455 50.8619 209.999 50.8615ZM209.637 51.8971C209.383 51.8981 209.418 51.8863 209.07 51.9024C208.276 51.939 207.939 52.1047 207.939 52.1047C207.939 52.1047 208.494 52.3247 209.147 52.343C209.8 52.3614 210.303 52.3263 210.652 52.3498C211.23 52.3498 211.955 52.164 211.955 52.164C211.955 52.164 211.318 51.9559 210.774 51.9192C210.283 51.9046 209.964 51.8957 209.637 51.8971Z" fill="#7C5D35"/>
<path fill-rule="evenodd" clip-rule="evenodd" d="M92.0882 51.2294C90.3711 51.5582 88.7742 51.6296 86.8878 51.3271C88.4966 50.9361 89.9176 50.7759 92.0882 51.2294ZM92.146 52.1828C90.5857 52.5544 89.3436 52.6162 87.6497 52.2515C89.1455 51.9657 90.2891 51.9242 92.146 52.1828ZM47.9389 53.2787C47.1563 51.8688 48.1236 50.6994 48.649 50.1739C49.1744 49.6484 50.4419 49.2856 51.2471 49.2856H190.158C188.956 49.6123 179.209 50.1076 169.978 50.1076H52.5849C52.5849 50.1076 53.1088 50.4263 54.0283 50.463C54.9478 50.4998 77.7244 50.593 78.8279 50.6114C79.9313 50.6297 81.7151 50.7947 81.7151 50.7947C81.7151 50.7947 80.7956 50.9964 79.4531 51.033C78.1106 51.0697 53.983 51.0955 52.5092 51.0697C50.9729 51.0429 49.5299 51.308 49.5299 51.308C49.5299 51.308 50.497 51.5786 51.9391 51.6197C53.355 51.6601 76.7498 51.693 77.706 51.693C78.6623 51.693 81.4577 52.023 81.4577 52.023C81.4577 52.023 78.7736 52.1723 77.5814 52.1858C76.3892 52.1994 52.6439 52.2248 51.1321 52.2797C49.6133 52.3349 48.962 52.5181 48.962 52.5181C48.962 52.5181 49.8263 52.6464 50.9114 52.6464C51.9964 52.6464 61.6145 52.6647 62.4605 52.6464C63.3064 52.6281 64.1708 52.8847 64.1708 52.8847C64.1708 52.8847 63.1409 53.0681 62.295 53.0864C61.6026 53.1014 52.8443 53.25 49.9071 53.288C49.2462 53.2966 48.7199 53.6452 50.024 54.5771C50.024 54.5771 48.7214 54.6887 47.9389 53.2787Z" fill="#FFDB73"/>
<path fill-rule="evenodd" clip-rule="evenodd" d="M202.215 51.1348C201.968 51.1345 201.872 51.1438 201.681 51.1495C201.299 51.1613 201.059 51.3862 201.059 51.3862C201.059 51.3862 201.194 51.5763 201.5 51.5763C201.806 51.5763 202.419 51.5723 202.873 51.6074C203.365 51.6306 203.492 51.4456 203.492 51.4456C203.492 51.4456 203.414 51.2125 202.952 51.1769C202.719 51.1451 202.461 51.1351 202.215 51.1348ZM202.019 52.0313C201.881 52.0322 201.9 52.022 201.712 52.0359C201.282 52.0677 201.1 52.211 201.1 52.211C201.1 52.211 201.4 52.4015 201.754 52.4174C202.107 52.4334 202.379 52.403 202.568 52.4232C202.881 52.4232 203.273 52.2623 203.273 52.2623C203.273 52.2623 202.928 52.0821 202.634 52.0504C202.368 52.0378 202.196 52.0301 202.019 52.0313Z" fill="#7C5D35"/>
<path fill-rule="evenodd" clip-rule="evenodd" d="M249.819 76.3086H50.2037C48.5933 76.3086 47.2969 75.012 47.2969 73.4014C47.2969 71.7908 48.5933 70.4941 50.2037 70.4941H249.819C251.43 70.4941 252.726 71.7908 252.726 73.4014C252.726 75.012 251.43 76.3086 249.819 76.3086Z" fill="#DBB357"/>
<path fill-rule="evenodd" clip-rule="evenodd" d="M249.82 70.4939C249.916 70.4939 250.012 70.4992 250.107 70.5085C249.935 70.4881 249.82 70.4939 249.82 70.4939ZM250.107 70.5085C250.533 70.5589 251.347 70.788 251.905 71.7926C252.687 73.2026 252.223 74.2089 251.697 74.7343C251.172 75.2598 250.445 75.6426 249.64 75.6426H50.0977C49.2302 75.6426 49.3537 76.3126 50.2049 76.3082H249.82C251.43 76.3082 252.727 75.0121 252.727 73.4015C252.727 71.8878 251.581 70.6518 250.107 70.5085ZM243.953 70.9929C243.953 70.9929 244.183 71.2276 244.974 71.2424L248.095 71.3005C249.107 71.3194 249.36 71.3428 249.534 71.5628C249.534 71.5628 220.119 71.2241 219.273 71.2424C218.427 71.2608 218.207 71.4073 218.207 71.4073C218.207 71.4073 218.759 71.682 219.605 71.6636C220.451 71.6453 244.597 71.9934 245.682 71.9934C246.767 71.9934 247.521 72.1771 247.521 72.1771C247.521 72.1771 246.869 72.4732 245.351 72.3967C243.894 72.3233 219.597 72.0738 218.405 72.0874C217.213 72.101 216.901 72.3608 216.901 72.3608C216.901 72.3608 217.324 72.5804 218.281 72.5804C219.237 72.5804 243.714 72.8152 245.13 72.8555C246.572 72.8966 246.895 73.1306 246.895 73.1306C246.895 73.1306 245.931 73.2857 244.395 73.2588C242.921 73.233 219.788 73.094 218.446 73.1306C217.103 73.1673 216.974 73.4237 216.974 73.4237C216.974 73.4237 217.967 73.7719 219.071 73.7902C220.174 73.8086 241.982 73.7816 242.902 73.8184C243.821 73.8551 244.395 74.1756 244.395 74.1756C244.395 74.1756 243.962 74.4042 242.438 74.4042C240.913 74.4042 53.2473 74.7787 51.9126 74.7787C50.4598 74.7787 50.1544 75.1316 50.1544 75.1316H248.788C250.398 75.1316 251.271 74.3172 251.344 73.0247C251.415 71.7846 250.498 70.9929 249.248 70.9929H243.953Z" fill="#7C5D35"/>
<path fill-rule="evenodd" clip-rule="evenodd" d="M209.52 71.2383C209.417 71.2387 209.33 71.2403 209.267 71.2426C208.766 71.261 208.35 71.4205 208.35 71.4205C208.35 71.4205 208.963 71.6822 209.463 71.6639C209.964 71.6455 210.948 71.6989 211.59 71.6989C212.507 71.717 212.874 71.4793 212.874 71.4793C212.874 71.4793 212.438 71.2768 211.796 71.2768C211.796 71.2768 210.244 71.2361 209.52 71.2383ZM209.999 72.0705C209.543 72.0702 209.366 72.0808 209.013 72.0876C208.308 72.1012 207.863 72.361 207.863 72.361C207.863 72.361 208.113 72.5806 208.679 72.5806C209.245 72.5806 210.377 72.5761 211.215 72.6165C212.124 72.6433 212.36 72.4296 212.36 72.4296C212.36 72.4296 212.215 72.1603 211.362 72.1192C210.931 72.0825 210.455 72.0709 209.999 72.0705ZM209.637 73.1061C209.383 73.1071 209.418 73.0953 209.07 73.1113C208.276 73.148 207.939 73.3137 207.939 73.3137C207.939 73.3137 208.494 73.5337 209.147 73.552C209.8 73.5704 210.303 73.5353 210.652 73.5588C211.23 73.5588 211.955 73.373 211.955 73.373C211.955 73.373 211.318 73.1648 210.774 73.1282C210.283 73.1136 209.964 73.1047 209.637 73.1061Z" fill="#7C5D35"/>
<path fill-rule="evenodd" clip-rule="evenodd" d="M92.0868 72.4378C92.0868 72.4378 91.5587 72.8097 91.0582 72.7914C90.5576 72.7731 88.9237 72.7551 88.2817 72.7551C87.364 72.7733 86.8864 72.5356 86.8864 72.5356C86.8864 72.5356 87.4526 72.2164 88.0946 72.2164C88.0946 72.2164 90.5293 72.2093 90.9774 72.2171C91.4255 72.225 92.0868 72.4378 92.0868 72.4378ZM90.0089 73.1008C90.465 73.1005 90.6422 73.1111 90.9949 73.1179C91.7004 73.1315 92.1446 73.3913 92.1446 73.3913C92.1446 73.3913 91.745 73.7405 91.1792 73.7405C90.6133 73.7405 89.5136 73.6907 88.6757 73.7311C87.7667 73.758 87.6483 73.46 87.6483 73.46C87.6483 73.46 87.7929 73.1907 88.6462 73.1496C89.0772 73.1129 89.5528 73.1012 90.0089 73.1008ZM47.9375 74.4872C47.1549 73.0773 48.1299 71.9785 48.6553 71.453C49.1807 70.9276 50.5266 70.4941 51.3318 70.4941H190.157C188.955 70.8208 179.207 71.3161 169.977 71.3161H52.5836C52.5836 71.3161 53.1074 71.6348 54.027 71.6715C54.9465 71.7082 77.7231 71.8015 78.8265 71.8199C79.9299 71.8382 81.7138 72.0032 81.7138 72.0032C81.7138 72.0032 80.7943 72.2049 79.4518 72.2415C78.1093 72.2782 53.9817 72.304 52.5078 72.2782C50.9716 72.2514 49.5286 72.5165 49.5286 72.5165C49.5286 72.5165 50.4956 72.7871 51.9377 72.8282C53.3537 72.8686 76.7484 72.9015 77.7047 72.9015C78.661 72.9015 81.4563 73.2315 81.4563 73.2315C81.4563 73.2315 78.7722 73.3808 77.58 73.3943C76.3878 73.4079 52.6425 73.4333 51.1307 73.4882C49.6119 73.5434 48.9606 73.7266 48.9606 73.7266C48.9606 73.7266 49.825 73.8549 50.91 73.8549C51.995 73.8549 61.6132 73.8732 62.4591 73.8549C63.3051 73.8366 64.1694 74.0932 64.1694 74.0932C64.1694 74.0932 63.1396 74.2766 62.2936 74.2949C61.6012 74.3099 52.8429 74.4585 49.9058 74.4965C49.2449 74.5051 48.7185 74.8537 50.0226 75.7856C50.0226 75.7856 48.72 75.8972 47.9375 74.4872Z" fill="#FFDB73"/>
<path fill-rule="evenodd" clip-rule="evenodd" d="M202.215 72.3433C201.968 72.343 201.872 72.3522 201.681 72.358C201.299 72.3698 201.059 72.5947 201.059 72.5947C201.059 72.5947 201.194 72.7848 201.5 72.7848C201.806 72.7848 202.419 72.7808 202.873 72.8159C203.365 72.8391 203.492 72.6541 203.492 72.6541C203.492 72.6541 203.414 72.421 202.952 72.3854C202.719 72.3536 202.461 72.3436 202.215 72.3433ZM202.019 73.2398C201.881 73.2407 201.9 73.2305 201.712 73.2444C201.282 73.2762 201.1 73.4195 201.1 73.4195C201.1 73.4195 201.4 73.61 201.754 73.6259C202.107 73.6419 202.379 73.6115 202.568 73.6317C202.881 73.6317 203.273 73.4708 203.273 73.4708C203.273 73.4708 202.928 73.2906 202.634 73.2589C202.368 73.2463 202.196 73.2386 202.019 73.2398Z" fill="#7C5D35"/>
<path d="M152.244 69.3187C153.727 68.8999 173.649 63.2732 174.222 63.1111C174.796 62.9491 174.938 62.7961 174.938 62.7961C174.938 62.7961 174.796 62.643 174.222 62.481C173.649 62.3189 153.727 56.6922 152.244 56.2734C150.762 55.8547 150.01 55.7007 150.01 55.7007C150.01 55.7007 149.258 55.8547 147.775 56.2734C146.293 56.6922 126.371 62.3189 125.797 62.481C125.224 62.643 125.082 62.7961 125.082 62.7961C125.082 62.7961 125.224 62.9491 125.797 63.1111C126.371 63.2732 146.293 68.8999 147.775 69.3187C149.258 69.7375 150.01 69.8914 150.01 69.8914C150.01 69.8914 150.762 69.7375 152.244 69.3187Z" fill="#E70909"/>
<path d="M172.329 62.7714C167.605 64.1055 153.496 68.0906 152.244 68.4441C150.762 68.8628 150.01 69.0165 150.01 69.0165C150.01 69.0165 149.258 68.8628 147.776 68.4441C146.488 68.0803 132.967 64.2611 128.686 63.0519C130.229 63.0833 138.418 63.2435 144.443 63.3612C147.639 63.4237 150.01 65.0434 150.01 69.0165L152.612 63.6534L172.305 62.559C166.463 62.3486 160.768 62.1183 156.918 61.4961C153.001 60.8628 152.14 59.8791 151.469 58.1562C150.799 56.4334 150.461 55.9868 150.01 55.7007V62.1224C150.01 62.1224 128.654 62.539 127.715 62.5598C127.497 62.5646 127.287 62.581 127.091 62.6017C126.986 62.5719 126.283 62.3736 126.231 62.359C126.205 62.3665 125.809 62.4781 125.798 62.4812C125.224 62.6432 125.082 62.7956 125.082 62.7956C125.082 62.7956 125.224 62.9489 125.798 63.1109C126.371 63.2729 146.293 68.9002 147.776 69.319C149.258 69.7377 150.01 69.8914 150.01 69.8914C150.01 69.8914 150.762 69.7377 152.244 69.319C153.727 68.9002 173.648 63.2729 174.222 63.1109C174.796 62.9489 174.938 62.7956 174.938 62.7956C174.938 62.7956 174.796 62.6429 174.222 62.4812L173.788 62.359L172.329 62.7714Z" fill="#AB0707"/>
<path d="M150.009 56.104C150.009 56.104 149.257 56.2577 147.775 56.6764C146.292 57.0952 127.089 62.3253 126.515 62.4873C125.942 62.6494 125.568 62.7864 125.568 62.7864C126.831 62.8303 127.761 62.5468 130.516 61.8182C133.362 61.0653 138.999 59.9357 142.901 59.2097C146.802 58.4837 148.754 59.147 148.995 60.4691C149.236 61.7912 149.424 62.0058 150.009 62.1223V56.104ZM150.009 62.1223V69.8914C150.46 69.6053 150.798 69.1587 151.468 67.4359C152.139 65.713 153 64.7293 156.917 64.096C160.767 63.4737 166.462 63.2435 172.304 63.0331C173.243 63.0125 174.059 62.7965 174.059 62.7965C174.059 62.7965 173.243 62.5806 172.304 62.5598C171.365 62.539 150.009 62.1223 150.009 62.1223ZM146.77 63.7501C147.577 64.4201 147.982 65.1609 148.026 66.3684C148.071 67.6009 147.914 68.2293 148.421 68.518C148.928 68.8067 150.32 68.2522 149.582 66.4486C148.834 64.62 147.476 63.9864 146.77 63.7501ZM162.959 59.6766C161.929 59.6216 161.616 60.9416 162.922 61.3083C164.228 61.675 168.237 61.235 168.237 61.235C168.237 61.235 163.989 59.7316 162.959 59.6766Z" fill="#FF8A7E"/>
<path d="M47.8526 61.8903C48.1361 61.3578 50.4773 56.9627 50.7731 56.3719C51.153 55.6132 51.8848 55.7008 51.8848 55.7008C51.8848 55.7008 52.6367 55.8548 54.1192 56.2736C55.6018 56.6923 75.5237 62.3191 76.0974 62.4811C76.6711 62.6432 76.8127 62.7962 76.8127 62.7962C76.8127 62.7962 76.6711 62.9493 76.0974 63.1113C75.5237 63.2733 55.6018 68.9001 54.1192 69.3188C52.6367 69.7376 51.8848 69.8916 51.8848 69.8916C51.8848 69.8916 51.153 69.9792 50.7731 69.2206C50.4773 68.6298 48.1361 64.2346 47.8526 63.7021C47.569 63.1695 47.3867 62.7962 47.3867 62.7962C47.3867 62.7962 47.569 62.4229 47.8526 61.8903Z" fill="#AB0707"/>
<path d="M49.7908 59.4084C48.6191 61.0597 47.3867 62.7964 47.3867 62.7964C47.3867 62.7964 73.4569 62.7451 74.396 62.7659C73.0176 62.4936 58.6522 59.0873 56.0045 58.7818C53.3567 58.4762 50.9625 57.7571 49.7908 59.4084ZM50.7731 69.2208C50.7731 69.2208 52.6366 68.8632 54.1191 68.4444C54.838 68.2413 60.7293 66.5773 63.9788 65.6594C67.2283 64.7415 59.3026 63.2418 56.9829 63.2763C54.6631 63.3108 48.2777 63.4006 48.2777 63.4006L47.7057 63.4235L50.7731 69.2208Z" fill="#E70909"/>
<path d="M54.2006 58.6714C52.5019 58.6663 51.268 59.0056 50.272 59.783C48.5945 61.0924 47.7617 62.8939 47.7617 62.8939C47.7617 63.0917 48.6694 62.8503 49.0224 62.4727C49.3399 62.1331 49.7081 61.6834 50.4134 61.3449C51.903 60.6298 53.9449 59.8962 59.6643 60.5562C65.3837 61.2163 71.8708 62.3628 73.2492 62.635C74.6276 62.9072 75.3952 62.6734 75.3952 62.6734C75.3952 62.6734 74.1986 62.3105 71.9619 61.7661C69.7253 61.2216 62.5214 59.8605 58.4121 59.1345C56.7428 58.8396 55.3629 58.6749 54.2006 58.6714Z" fill="#FF8A7E"/>
<path d="M57.4232 64.0209C56.0226 64.1998 54.9313 64.4006 54.4346 64.4809C52.2879 64.8279 51.8291 65.8886 52.3694 67.6563C52.7839 69.0125 52.3098 69.3199 51.8585 69.6061C51.6819 69.5614 51.3858 69.2175 51.1654 68.8484L48.2773 63.4001C48.2773 63.4001 56.1297 63.2878 57.5431 63.2679C58.9565 63.248 59.3441 63.617 59.0313 64.1794C58.5974 63.9513 58.0152 63.9452 57.4232 64.0209ZM59.1138 65.6164C59.7884 65.2614 61.2121 64.89 61.8201 64.7235C62.428 64.557 63.4653 64.3436 63.4701 64.346C63.4701 64.346 63.354 65.2717 62.9005 65.6022C62.4469 65.9326 60.9864 66.472 59.9331 66.498C58.8797 66.5239 59.1138 65.6164 59.1138 65.6164Z" fill="#FF8A7E"/>
<path d="M52.0312 55.0997V70.299C52.0312 70.299 73.3991 69.9439 75.1462 69.8706C76.8933 69.7972 77.1328 69.6142 77.1328 69.6142C77.1328 69.6142 75.2013 69.284 73.7852 69.2656C72.3692 69.2473 60.6914 68.8624 60.6914 68.8624C60.6914 68.8624 61.4566 68.6406 61.9212 68.5061C67.2308 68.3843 73.745 68.3846 74.5574 68.3514C76.067 68.2899 76.2741 68.1361 76.2741 68.1361C76.2741 68.1361 74.6051 67.8593 73.3816 67.8439C72.2394 67.8295 65.9693 67.6093 65.1111 67.5791C65.6769 67.4141 66.2853 67.2353 66.8972 67.0562C67.7684 67.0424 74.5297 66.9352 75.3142 66.9032C76.8237 66.8416 77.0308 66.6879 77.0308 66.6879C77.0308 66.6879 75.3619 66.4103 74.1383 66.3949C73.0177 66.3808 70.1764 66.2574 69.6869 66.2359C70.4708 66.0045 71.2072 65.786 71.9383 65.5678C73.7527 65.5283 75.5135 65.5458 77.2382 65.1116C77.2382 65.1116 75.6863 64.8314 74.4726 64.8057C75.5368 64.48 76.3405 64.2251 76.6914 64.0957C78.5305 63.4173 79.6157 63.0507 79.6157 63.0507C79.6157 63.0507 77.0777 62.1574 74.4846 61.3231C76.2416 61.28 76.9974 60.9968 76.9974 60.9968C76.9974 60.9968 75.5865 60.6509 72.324 60.649C72.0876 60.5785 71.8559 60.5108 71.6341 60.4474C71.2528 60.3385 70.7962 60.2021 70.2928 60.0484C70.6976 60.0333 72.0505 59.985 73.5752 59.9535C75.3817 59.9163 76.5055 59.6588 76.5055 59.6588C76.5055 59.6588 75.7366 59.3636 74.0552 59.317C73.2015 59.2934 67.6802 58.9705 66.6855 58.912C66.1026 58.7246 65.5224 58.5366 64.9586 58.3532C65.9087 58.3579 71.5043 58.3832 73.5752 58.3403C75.8332 58.2938 76.5055 58.0447 76.5055 58.0447C76.5055 58.0447 75.7366 57.7504 74.0552 57.7038C73.1479 57.6787 67.1657 57.5261 61.9564 57.3697C61.0232 57.0619 60.3974 56.8537 60.3974 56.8537C60.3974 56.8537 71.5787 56.6336 74.1717 56.5786C76.7648 56.5236 77.5373 56.23 77.5373 56.23C77.5373 56.23 76.6547 55.8817 74.7237 55.8267C72.7927 55.7717 52.0312 55.0997 52.0312 55.0997ZM76.0949 62.4817L77.6016 62.9311C77.6016 62.9311 61.1275 67.8078 59.7101 68.1319C58.2926 68.456 55.5363 68.9179 55.5363 68.9179L76.0949 62.4817Z" fill="#FFDB73"/>
<path d="M47.7627 61.8903C48.0463 61.3578 50.3875 56.9627 50.6833 56.3719C51.0632 55.6132 51.795 55.7008 51.795 55.7008C51.795 55.7008 52.5469 55.8548 54.0294 56.2736C55.5119 56.6923 75.4338 62.3191 76.0075 62.4811C76.5812 62.6432 76.7229 62.7962 76.7229 62.7962C76.7229 62.7962 76.5812 62.9493 76.0075 63.1113C75.4338 63.2733 55.5119 68.9001 54.0294 69.3188C52.5469 69.7376 51.795 69.8916 51.795 69.8916C51.795 69.8916 51.0632 69.9792 50.6833 69.2206C50.3875 68.6298 48.0463 64.2346 47.7627 63.7021C47.4792 63.1695 47.2969 62.7962 47.2969 62.7962C47.2969 62.7962 47.4792 62.4229 47.7627 61.8903Z" fill="#AB0707"/>
<path d="M49.7009 59.4084C48.5292 61.0597 47.2969 62.7964 47.2969 62.7964C47.2969 62.7964 73.367 62.7451 74.3062 62.7659C72.9277 62.4936 58.5624 59.0873 55.9146 58.7818C53.2669 58.4762 50.8727 57.7571 49.7009 59.4084ZM50.6833 69.2208C50.6833 69.2208 52.5467 68.8632 54.0293 68.4444C54.7482 68.2413 60.6395 66.5773 63.889 65.6594C67.1385 64.7415 59.2128 63.2418 56.893 63.2763C54.5733 63.3108 48.1878 63.4006 48.1878 63.4006L47.6158 63.4235L50.6833 69.2208Z" fill="#E70909"/>
<path d="M54.1108 58.6714C52.4121 58.6663 51.1782 59.0056 50.1821 59.783C48.5046 61.0924 47.6719 62.8939 47.6719 62.8939C47.6719 63.0917 48.5796 62.8503 48.9326 62.4727C49.25 62.1331 49.6182 61.6834 50.3236 61.3449C51.8132 60.6298 53.8551 59.8962 59.5744 60.5562C65.2938 61.2163 71.781 62.3628 73.1594 62.635C74.5378 62.9072 75.3054 62.6734 75.3054 62.6734C75.3054 62.6734 74.1087 62.3105 71.8721 61.7661C69.6354 61.2216 62.4315 59.8605 58.3223 59.1345C56.6529 58.8396 55.2731 58.6749 54.1108 58.6714Z" fill="#FF8A7E"/>
<path d="M57.3333 64.0209C55.9327 64.1998 54.8414 64.4006 54.3448 64.4809C52.1981 64.8279 51.7392 65.8886 52.2795 67.6563C52.694 69.0125 52.22 69.3199 51.7687 69.6061C51.5921 69.5614 51.296 69.2175 51.0756 68.8484L48.1875 63.4001C48.1875 63.4001 56.0399 63.2878 57.4533 63.2679C58.8667 63.248 59.2542 63.617 58.9415 64.1794C58.5076 63.9513 57.9253 63.9452 57.3333 64.0209ZM59.024 65.6164C59.6985 65.2614 61.1223 64.89 61.7302 64.7235C62.3382 64.557 63.3755 64.3436 63.3803 64.346C63.3803 64.346 63.2642 65.2717 62.8106 65.6022C62.357 65.9326 60.8965 66.472 59.8432 66.498C58.7899 66.5239 59.024 65.6164 59.024 65.6164Z" fill="#FF8A7E"/>
<path d="M252.259 61.8903C251.975 61.3578 249.634 56.9627 249.338 56.3719C248.958 55.6132 248.226 55.7008 248.226 55.7008C248.226 55.7008 247.475 55.8548 245.992 56.2736C244.51 56.6923 224.588 62.3191 224.014 62.4811C223.44 62.6432 223.299 62.7962 223.299 62.7962C223.299 62.7962 223.44 62.9493 224.014 63.1113C224.588 63.2733 244.51 68.9001 245.992 69.3188C247.475 69.7376 248.226 69.8916 248.226 69.8916C248.226 69.8916 248.958 69.9792 249.338 69.2206C249.634 68.6298 251.975 64.2346 252.259 63.7021C252.542 63.1695 252.725 62.7962 252.725 62.7962C252.725 62.7962 252.542 62.4229 252.259 61.8903Z" fill="#AB0707"/>
<path d="M250.321 59.4084C251.492 61.0597 252.23 62.4853 252.23 62.4853C252.23 62.4853 226.654 62.7451 225.715 62.7659C227.094 62.4936 241.459 59.0873 244.107 58.7818C246.755 58.4762 249.149 57.7571 250.321 59.4084ZM249.364 67.0428C248.955 68.1191 248.827 69.278 247.345 68.8593C246.626 68.6562 239.382 66.5773 236.133 65.6594C232.883 64.7415 241.193 63.2056 241.193 63.2056C241.193 63.2056 246.725 63.6696 247.963 64.1055C249.201 64.5413 249.773 65.9665 249.364 67.0428Z" fill="#E70909"/>
<path d="M238.005 64.6849C238.876 65.3937 239.919 65.5339 240.594 65.8889C240.594 65.8889 240.594 66.2778 239.541 66.2519C238.487 66.226 226.273 63.4697 225.819 63.1393L241.192 63.2054C241.192 63.2054 241.479 64.0092 240.022 64.1647C238.566 64.3203 238.005 64.6849 238.005 64.6849ZM251.855 61.7013C251.855 61.8992 251.208 61.6836 250.855 61.306C250.537 60.9664 250.169 60.5168 249.464 60.1782C247.974 59.4632 245.022 59.3259 239.407 60.4786C233.767 61.6361 228.241 62.3629 226.862 62.6351C225.484 62.9074 224.716 62.6736 224.716 62.6736C224.716 62.6736 225.913 62.3107 228.149 61.7662C230.386 61.2217 235.585 59.8784 238.916 59.005C242.248 58.1315 246.397 57.4754 248.52 57.98C250.644 58.4846 251.855 61.7013 251.855 61.7013Z" fill="#FF8A7E"/>
<path d="M89.2875 55.7534C86.6944 55.7937 85.9219 56.0085 85.9219 56.0085C85.9219 56.0085 86.8046 56.2634 88.7355 56.3036C91.3286 56.2634 92.1011 56.0485 92.1011 56.0485C92.1011 56.0485 91.2184 55.7937 89.2875 55.7534Z" fill="#FFDB73"/>
<path d="M89.1254 57.064C86.5323 57.1042 85.7598 57.3191 85.7598 57.3191C85.7598 57.3191 86.6424 57.5739 88.5734 57.6142C91.1664 57.5739 91.939 57.3591 91.939 57.3591C91.939 57.3591 91.0563 57.1042 89.1254 57.064Z" fill="#FFDB73"/>
<path d="M89.0492 58.7603C86.4562 58.8005 85.6836 59.0153 85.6836 59.0153C85.6836 59.0153 86.5663 59.2702 88.4973 59.3104C91.0903 59.2702 91.8629 59.0554 91.8629 59.0554C91.8629 59.0554 90.9802 58.8005 89.0492 58.7603Z" fill="#FFDB73"/>
<path d="M88.7582 60.2173C86.1651 60.2575 85.3926 60.4724 85.3926 60.4724C85.3926 60.4724 86.2753 60.7272 88.2062 60.7675C90.7993 60.7272 91.5718 60.5124 91.5718 60.5124C91.5718 60.5124 90.6891 60.2575 88.7582 60.2173Z" fill="#FFDB73"/>
<path d="M88.9925 62.1338C86.3995 62.174 85.627 62.3889 85.627 62.3889C85.627 62.3889 86.5096 62.6437 88.4406 62.684C91.0336 62.6437 91.8062 62.4289 91.8062 62.4289C91.8062 62.4289 90.9235 62.174 88.9925 62.1338Z" fill="#FFDB73"/>
<path d="M88.9965 63.8105C86.4034 63.8508 85.6309 64.0656 85.6309 64.0656C85.6309 64.0656 86.5135 64.3205 88.4445 64.3607C91.0375 64.3205 91.8101 64.1057 91.8101 64.1057C91.8101 64.1057 90.9274 63.8508 88.9965 63.8105Z" fill="#FFDB73"/>
<path d="M88.9574 65.2871C86.3644 65.3274 85.5918 65.5422 85.5918 65.5422C85.5918 65.5422 86.4745 65.7971 88.4055 65.8373C90.9985 65.7971 91.7711 65.5822 91.7711 65.5822C91.7711 65.5822 90.8884 65.3274 88.9574 65.2871Z" fill="#FFDB73"/>
<path d="M88.9613 66.7808C86.3683 66.821 85.5957 67.0358 85.5957 67.0358C85.5957 67.0358 86.4784 67.2907 88.4094 67.331C91.0024 67.2907 91.7749 67.0759 91.7749 67.0759C91.7749 67.0759 90.8923 66.821 88.9613 66.7808Z" fill="#FFDB73"/>
<path d="M89.3832 67.9541C86.7901 67.9944 86.0176 68.2092 86.0176 68.2092C86.0176 68.2092 86.9003 68.4641 88.8312 68.5043C91.4243 68.464 92.1968 68.2492 92.1968 68.2492C92.1968 68.2492 91.3141 67.9943 89.3832 67.9541Z" fill="#FFDB73"/>
<path d="M89.7152 69.3291C87.1222 69.3694 86.3496 69.5842 86.3496 69.5842C86.3496 69.5842 87.2323 69.8391 89.1633 69.8793C91.7563 69.839 92.5289 69.6242 92.5289 69.6242C92.5289 69.6242 91.6462 69.3693 89.7152 69.3291Z" fill="#FFDB73"/>
<path fill-rule="evenodd" clip-rule="evenodd" d="M101.168 56.9475C99.1166 56.9546 97.1027 57.1197 95.7254 57.5977C89.536 59.746 88.4414 63.2889 88.4414 63.2889C88.7784 67.0688 93.0518 69.3585 100.903 69.3585C109.089 69.3585 113.386 66.8694 113.386 62.7967C113.386 60.4368 111.944 58.6087 109.137 57.4884C109.137 57.4884 105.086 56.9339 101.168 56.9475Z" fill="#03377E"/>
<path fill-rule="evenodd" clip-rule="evenodd" d="M100.904 56.2349C92.7172 56.2349 88.4199 58.724 88.4199 62.7967C88.4199 62.9635 88.4279 63.1273 88.4422 63.2888C89.0626 64.382 90.8145 66.1873 94.4278 67.0165C98.0428 67.8462 103.921 67.8983 108.082 66.4723C112.243 65.0463 112.347 60.7423 111.377 59.4337C110.407 58.1252 109.138 57.4883 109.138 57.4883C107.101 56.6752 104.346 56.2349 100.904 56.2349ZM99.0095 57.3977C103.143 57.3977 105.313 58.7986 105.313 61.0913C105.313 63.384 103.143 64.7857 99.0095 64.7857C94.876 64.7857 92.706 63.384 92.706 61.0913C92.706 58.7986 94.876 57.3977 99.0095 57.3977Z" fill="#0556C7"/>
<path fill-rule="evenodd" clip-rule="evenodd" d="M108.882 57.8481C109.836 58.474 110.522 59.1652 110.915 59.9346C110.138 59.6014 109.357 59.6279 109.357 59.6279C109.357 59.6279 110.516 60.4438 111.275 61.1171C111.306 61.3432 111.298 61.5449 111.294 61.7545C110.755 61.4816 110.178 61.4092 109.409 61.3905C109.888 62.0203 110.53 62.366 111.098 62.8097C111.01 63.0708 110.893 63.32 110.747 63.5573C109.772 63.0008 108.525 63.1027 108.525 63.1027C108.525 63.1027 109.196 63.8518 109.819 64.6022C109.517 64.8498 109.169 65.0787 108.775 65.2866C107.867 64.5536 106.547 64.3459 106.547 64.3459C106.547 64.3459 106.931 65.1096 107.366 65.8761C107.003 65.9971 106.614 66.1066 106.199 66.205C105.299 65.3908 103.868 65.0465 103.868 65.0465C103.868 65.0465 104.089 65.7563 104.459 66.5297C104.079 66.5839 103.68 66.6303 103.267 66.6698C102.584 65.907 101.319 65.1242 101.319 65.1242C101.319 65.1242 101.667 65.9982 102.014 66.7638C101.513 66.792 100.993 66.8112 100.45 66.8202C99.8572 66.0042 98.9917 65.2092 98.7199 65.4335C98.7199 65.4335 98.8484 66.1243 99.0678 66.8194C98.5876 66.8081 98.1223 66.7835 97.6708 66.7476C96.6936 65.3425 95.65 65.0995 95.65 65.0995C95.65 65.0995 95.8487 65.8393 96.1205 66.5733C95.5108 66.4831 94.9334 66.3707 94.3875 66.2418C93.9264 65.1225 92.946 64.5279 92.946 64.5279C92.946 64.5279 92.8632 65.1592 93.1217 65.8966C92.7132 65.7689 92.3278 65.6315 91.9647 65.4873C91.6682 64.0992 90.554 63.5154 90.554 63.5154C90.554 63.5154 90.5493 64.1521 90.7691 64.9499C89.9336 64.4529 89.2088 63.4478 88.7834 62.6875C88.7834 62.6875 88.6932 63.1206 88.8245 63.6606C88.6827 63.5345 88.5537 63.4096 88.4414 63.2873C89.65 66.3606 94.1734 68.2197 100.205 68.2197C108.421 68.2197 112.33 66.0889 112.33 62.3013C112.33 60.1543 110.959 58.3112 108.882 57.8481Z" fill="#589CFD"/>
<path fill-rule="evenodd" clip-rule="evenodd" d="M98.0161 58.541C99.3114 58.541 99.9913 59.0635 99.9913 59.9185C99.9913 60.7734 99.3114 61.296 98.0161 61.296C96.7209 61.296 96.041 60.7734 96.041 59.9185C96.041 59.0635 96.7209 58.541 98.0161 58.541Z" fill="white"/>
<path d="M210.812 55.978C212.696 56.0185 213.258 56.2344 213.258 56.2344C213.258 56.2344 212.616 56.4906 211.213 56.5311C209.328 56.4906 208.767 56.2747 208.767 56.2747C208.767 56.2747 209.408 56.0185 210.812 55.978Z" fill="#7C5D35"/>
<path d="M211.099 56.9971C212.983 57.0375 213.545 57.2535 213.545 57.2535C213.545 57.2535 212.903 57.5097 211.5 57.5501C209.615 57.5097 209.054 57.2937 209.054 57.2937C209.054 57.2937 209.695 57.0375 211.099 56.9971Z" fill="#7C5D35"/>
<path d="M211.044 58.042C212.929 58.0825 213.49 58.2984 213.49 58.2984C213.49 58.2984 212.849 58.5546 211.445 58.5951C209.561 58.5546 208.999 58.3386 208.999 58.3386C208.999 58.3386 209.641 58.0824 211.044 58.042Z" fill="#7C5D35"/>
<path d="M211.236 60.5884C213.12 60.6288 213.682 60.8448 213.682 60.8448C213.682 60.8448 213.04 61.101 211.637 61.1414C209.752 61.101 209.191 60.885 209.191 60.885C209.191 60.885 209.832 60.6288 211.236 60.5884Z" fill="#7C5D35"/>
<path d="M211.175 61.7998C213.06 61.8403 213.621 62.0562 213.621 62.0562C213.621 62.0562 212.98 62.3124 211.576 62.3529C209.691 62.3124 209.13 62.0964 209.13 62.0964C209.13 62.0964 209.772 61.8403 211.175 61.7998Z" fill="#7C5D35"/>
<path d="M211.247 63.229C213.132 63.2695 213.693 63.4854 213.693 63.4854C213.693 63.4854 213.052 63.7416 211.648 63.7821C209.764 63.7416 209.202 63.5256 209.202 63.5256C209.202 63.5256 209.844 63.2695 211.247 63.229Z" fill="#7C5D35"/>
<path d="M211.222 65.4644C213.106 65.5048 213.668 65.7208 213.668 65.7208C213.668 65.7208 213.026 65.977 211.623 66.0174C209.738 65.9769 209.177 65.761 209.177 65.761C209.177 65.761 209.818 65.5048 211.222 65.4644Z" fill="#7C5D35"/>
<path d="M211.2 66.5073C213.085 66.5478 213.646 66.7637 213.646 66.7637C213.646 66.7637 213.005 67.0199 211.601 67.0604C209.717 67.0199 209.155 66.804 209.155 66.804C209.155 66.804 209.797 66.5478 211.2 66.5073Z" fill="#7C5D35"/>
<path d="M210.911 67.687C212.796 67.7275 213.357 67.9434 213.357 67.9434C213.357 67.9434 212.716 68.1996 211.312 68.2401C209.428 68.1996 208.866 67.9837 208.866 67.9837C208.866 67.9837 209.508 67.7275 210.911 67.687Z" fill="#7C5D35"/>
<path d="M210.89 68.9775C212.774 69.018 213.336 69.234 213.336 69.234C213.336 69.234 212.694 69.4901 211.291 69.5306C209.406 69.4901 208.845 69.2742 208.845 69.2742C208.845 69.2742 209.486 69.018 210.89 68.9775Z" fill="#7C5D35"/>
<path d="M211.155 59.2524C213.04 59.2929 213.602 59.5089 213.602 59.5089C213.602 59.5089 212.96 59.765 211.557 59.8055C209.672 59.765 209.11 59.5491 209.11 59.5491C209.11 59.5491 209.752 59.2929 211.155 59.2524Z" fill="#7C5D35"/>
<path d="M211.302 64.3105C213.187 64.351 213.748 64.567 213.748 64.567C213.748 64.567 213.107 64.8232 211.703 64.8636C209.818 64.8231 209.257 64.6072 209.257 64.6072C209.257 64.6072 209.898 64.351 211.302 64.3105Z" fill="#7C5D35"/>
<path d="M210.734 54.9927C212.618 55.0331 213.18 55.2491 213.18 55.2491C213.18 55.2491 212.538 55.5053 211.135 55.5457C209.25 55.5053 208.689 55.2893 208.689 55.2893C208.689 55.2893 209.33 55.0331 210.734 54.9927Z" fill="#7C5D35"/>
<path d="M201.712 55.3594C203.01 55.3998 203.396 55.6158 203.396 55.6158C203.396 55.6158 202.955 55.872 201.988 55.9124C200.69 55.872 200.303 55.656 200.303 55.656C200.303 55.656 200.745 55.3998 201.712 55.3594Z" fill="#7C5D35"/>
<path d="M202.528 69.3921C203.826 69.4326 204.213 69.6485 204.213 69.6485C204.213 69.6485 203.771 69.9047 202.804 69.9452C201.506 69.9047 201.119 69.6887 201.119 69.6887C201.119 69.6887 201.561 69.4325 202.528 69.3921Z" fill="#7C5D35"/>
<path fill-rule="evenodd" clip-rule="evenodd" d="M199.383 56.9475C197.331 56.9546 195.318 57.1197 193.94 57.5977C187.751 59.746 186.656 63.2889 186.656 63.2889C186.993 67.0688 191.267 69.3585 199.118 69.3585C207.304 69.3585 211.601 66.8694 211.601 62.7967C211.601 60.4368 210.159 58.6087 207.352 57.4884C207.352 57.4884 203.3 56.9339 199.383 56.9475Z" fill="#03377E"/>
<path fill-rule="evenodd" clip-rule="evenodd" d="M199.118 56.2349C190.932 56.2349 186.635 58.724 186.635 62.7967C186.635 62.9635 186.643 63.1273 186.657 63.2888C187.277 64.382 189.029 66.1873 192.643 67.0165C196.258 67.8462 202.136 67.8983 206.297 66.4723C210.458 65.0463 210.562 60.7423 209.592 59.4337C208.622 58.1252 207.353 57.4883 207.353 57.4883C205.316 56.6752 202.561 56.2349 199.118 56.2349ZM197.224 57.3977C201.358 57.3977 203.528 58.7986 203.528 61.0913C203.528 63.384 201.358 64.7857 197.224 64.7857C193.091 64.7857 190.921 63.384 190.921 61.0913C190.921 58.7986 193.091 57.3977 197.224 57.3977Z" fill="#0556C7"/>
<path fill-rule="evenodd" clip-rule="evenodd" d="M207.097 57.8477C208.051 58.4735 208.737 59.1647 209.13 59.9341C208.353 59.6009 207.571 59.6274 207.571 59.6274C207.571 59.6274 208.731 60.4434 209.49 61.1166C209.521 61.3427 209.513 61.5444 209.509 61.754C208.97 61.4811 208.393 61.4087 207.624 61.39C208.103 62.0199 208.744 62.3655 209.313 62.8092C209.225 63.0703 209.108 63.3195 208.962 63.5568C207.986 63.0003 206.74 63.1022 206.74 63.1022C206.74 63.1022 207.411 63.8514 208.033 64.6017C207.732 64.8493 207.384 65.0782 206.989 65.2861C206.082 64.5532 204.762 64.3454 204.762 64.3454C204.762 64.3454 205.145 65.1091 205.581 65.8756C205.217 65.9966 204.829 66.1061 204.414 66.2046C203.513 65.3903 202.083 65.046 202.083 65.046C202.083 65.046 202.304 65.7558 202.674 66.5292C202.294 66.5834 201.895 66.6299 201.482 66.6693C200.799 65.9065 199.534 65.1237 199.534 65.1237C199.534 65.1237 199.882 65.9977 200.229 66.7633C199.728 66.7915 199.208 66.8107 198.665 66.8197C198.072 66.0037 197.207 65.2087 196.935 65.433C196.935 65.433 197.063 66.1239 197.283 66.8189C196.802 66.8076 196.337 66.783 195.886 66.7471C194.908 65.342 193.865 65.099 193.865 65.099C193.865 65.099 194.064 65.8388 194.335 66.5728C193.726 66.4826 193.148 66.3702 192.602 66.2413C192.141 65.122 191.161 64.5274 191.161 64.5274C191.161 64.5274 191.078 65.1587 191.337 65.8961C190.928 65.7685 190.543 65.631 190.18 65.4869C189.883 64.0987 188.769 63.5149 188.769 63.5149C188.769 63.5149 188.764 64.1516 188.984 64.9494C188.148 64.4524 187.424 63.4473 186.998 62.687C186.998 62.687 186.908 63.1202 187.039 63.6602C186.898 63.534 186.769 63.4091 186.656 63.2868C187.865 66.3601 192.388 68.2192 198.42 68.2192C206.636 68.2192 210.545 66.0884 210.545 62.3008C210.545 60.1538 209.174 58.3107 207.097 57.8477Z" fill="#589CFD"/>
<path fill-rule="evenodd" clip-rule="evenodd" d="M196.231 58.5405C197.526 58.5405 198.206 59.063 198.206 59.918C198.206 60.7729 197.526 61.2955 196.231 61.2955C194.936 61.2955 194.256 60.7729 194.256 59.918C194.256 59.063 194.936 58.5405 196.231 58.5405Z" fill="white"/>
<path d="M120.658 62.4646C122.465 62.4646 123.93 61.0045 123.93 59.2033C123.93 57.4021 122.465 55.9419 120.658 55.9419C118.851 55.9419 117.387 57.4021 117.387 59.2033C117.387 61.0045 118.851 62.4646 120.658 62.4646Z" fill="#D9D9D9" stroke="#7C5D35" stroke-width="0.436046" stroke-miterlimit="10"/>
<path d="M120.658 69.6516C122.465 69.6516 123.93 68.1915 123.93 66.3903C123.93 64.5891 122.465 63.1289 120.658 63.1289C118.851 63.1289 117.387 64.5891 117.387 66.3903C117.387 68.1915 118.851 69.6516 120.658 69.6516Z" fill="#D9D9D9" stroke="#7C5D35" stroke-width="0.436046" stroke-miterlimit="10"/>
<path d="M81.1484 62.4641C82.9551 62.4641 84.4198 61.004 84.4198 59.2028C84.4198 57.4016 82.9551 55.9414 81.1484 55.9414C79.3416 55.9414 77.877 57.4016 77.877 59.2028C77.877 61.004 79.3416 62.4641 81.1484 62.4641Z" fill="#D9D9D9" stroke="#7C5D35" stroke-width="0.436046" stroke-miterlimit="10"/>
<path d="M81.1484 69.6511C82.9551 69.6511 84.4198 68.191 84.4198 66.3898C84.4198 64.5886 82.9551 63.1284 81.1484 63.1284C79.3416 63.1284 77.877 64.5886 77.877 66.3898C77.877 68.191 79.3416 69.6511 81.1484 69.6511Z" fill="#D9D9D9" stroke="#7C5D35" stroke-width="0.436046" stroke-miterlimit="10"/>
<path d="M218.875 62.4646C220.682 62.4646 222.146 61.0045 222.146 59.2033C222.146 57.4021 220.682 55.9419 218.875 55.9419C217.068 55.9419 215.604 57.4021 215.604 59.2033C215.604 61.0045 217.068 62.4646 218.875 62.4646Z" fill="#D9D9D9" stroke="#7C5D35" stroke-width="0.436046" stroke-miterlimit="10"/>
<path d="M218.875 69.6516C220.682 69.6516 222.146 68.1915 222.146 66.3903C222.146 64.5891 220.682 63.1289 218.875 63.1289C217.068 63.1289 215.604 64.5891 215.604 66.3903C215.604 68.1915 217.068 69.6516 218.875 69.6516Z" fill="#D9D9D9" stroke="#7C5D35" stroke-width="0.436046" stroke-miterlimit="10"/>
<path d="M179.363 62.4646C181.17 62.4646 182.635 61.0045 182.635 59.2033C182.635 57.4021 181.17 55.9419 179.363 55.9419C177.556 55.9419 176.092 57.4021 176.092 59.2033C176.092 61.0045 177.556 62.4646 179.363 62.4646Z" fill="#D9D9D9" stroke="#7C5D35" stroke-width="0.436046" stroke-miterlimit="10"/>
<path d="M179.363 69.6516C181.17 69.6516 182.635 68.1915 182.635 66.3903C182.635 64.5891 181.17 63.1289 179.363 63.1289C177.556 63.1289 176.092 64.5891 176.092 66.3903C176.092 68.1915 177.556 69.6516 179.363 69.6516Z" fill="#D9D9D9" stroke="#7C5D35" stroke-width="0.436046" stroke-miterlimit="10"/>
<path d="M54.1737 26.2663C61.4494 26.2663 67.3474 20.3864 67.3474 13.1332C67.3474 5.87992 61.4494 0 54.1737 0C46.8981 0 41 5.87992 41 13.1332C41 20.3864 46.8981 26.2663 54.1737 26.2663Z" fill="#D9D9D9"/>
<path fill-rule="evenodd" clip-rule="evenodd" d="M59.8195 5.00999C61.887 6.79074 63.1896 9.42287 63.1898 12.3482C63.1895 17.7017 58.8364 22.0415 53.4663 22.0418C50.9687 22.0411 48.685 21.0999 46.9596 19.5491C46.0702 18.7498 45.7981 18.5232 45.6021 18.4909C45.3822 18.4547 45.4367 18.7356 46.2222 19.6855C48.1353 21.9995 50.9302 23.4519 54.173 23.452C59.9338 23.4519 64.6039 18.7963 64.6041 13.0532C64.6043 9.60095 62.917 6.54153 60.3196 4.64998C59.4096 3.98728 58.7481 3.81831 58.6808 3.93505C58.6206 4.03946 59.0607 4.35641 59.8195 5.00999Z" fill="#808080"/>
<path fill-rule="evenodd" clip-rule="evenodd" d="M57.7535 22.3042C59.417 22.3061 61.066 22.6121 62.6187 23.2072C60.2504 25.1819 57.2617 26.2647 54.1742 26.2664C52.4775 26.2658 50.7968 25.9385 49.2246 25.3024C51.6413 23.3625 54.6507 22.3046 57.7535 22.3042Z" fill="white"/>
<path d="M49.5306 10.9504C51.1892 10.979 52.5338 9.62991 52.5338 7.93715C52.5338 6.24438 51.1892 4.84894 49.5306 4.82034C47.8719 4.79174 46.5273 6.14081 46.5273 7.83358C46.5273 9.52634 47.8719 10.9218 49.5306 10.9504Z" fill="white"/>
<path d="M136.881 49.2844C144.156 49.2844 150.054 43.4045 150.054 36.1512C150.054 28.898 144.156 23.0181 136.881 23.0181C129.605 23.0181 123.707 28.898 123.707 36.1512C123.707 43.4045 129.605 49.2844 136.881 49.2844Z" fill="#D9D9D9"/>
<path d="M132.238 33.9685C133.896 33.9971 135.241 32.648 135.241 30.9552C135.241 29.2624 133.896 27.867 132.238 27.8384C130.579 27.8098 129.234 29.1589 129.234 30.8516C129.234 32.5444 130.579 33.9399 132.238 33.9685Z" fill="white"/>
<path fill-rule="evenodd" clip-rule="evenodd" d="M142.527 28.0281C144.594 29.8088 145.897 32.4409 145.897 35.3662C145.897 40.7197 141.543 45.0596 136.173 45.0599C133.676 45.0591 131.392 44.1179 129.667 42.5672C128.777 41.7679 128.505 41.5413 128.309 41.509C128.089 41.4727 128.144 41.7536 128.929 42.7036C130.842 45.0175 133.637 46.47 136.88 46.47C142.641 46.47 147.311 41.8144 147.311 36.0713C147.311 32.619 145.624 29.5596 143.027 27.668C142.117 27.0053 141.455 26.8364 141.388 26.9531C141.328 27.0575 141.768 27.3745 142.527 28.0281Z" fill="#808080"/>
<path d="M163.228 49.2844C170.504 49.2844 176.402 43.4045 176.402 36.1512C176.402 28.898 170.504 23.0181 163.228 23.0181C155.953 23.0181 150.055 28.898 150.055 36.1512C150.055 43.4045 155.953 49.2844 163.228 49.2844Z" fill="#D9D9D9"/>
<path d="M158.585 33.9685C160.244 33.9971 161.588 32.648 161.588 30.9552C161.588 29.2624 160.244 27.867 158.585 27.8384C156.927 27.8098 155.582 29.1589 155.582 30.8516C155.582 32.5444 156.927 33.9399 158.585 33.9685Z" fill="white"/>
<path fill-rule="evenodd" clip-rule="evenodd" d="M168.874 28.0281C170.942 29.8088 172.244 32.4409 172.245 35.3662C172.244 40.7197 167.891 45.0596 162.521 45.0599C160.023 45.0591 157.74 44.1179 156.014 42.5672C155.125 41.7679 154.853 41.5413 154.657 41.509C154.437 41.4727 154.491 41.7536 155.277 42.7036C157.19 45.0175 159.985 46.47 163.228 46.47C168.989 46.47 173.659 41.8144 173.659 36.0713C173.659 32.619 171.972 29.5596 169.374 27.668C168.464 27.0053 167.803 26.8364 167.735 26.9531C167.675 27.0575 168.115 27.3745 168.874 28.0281Z" fill="#808080"/>
<path d="M150.053 26.2663C157.328 26.2663 163.226 20.3864 163.226 13.1332C163.226 5.87992 157.328 0 150.053 0C142.777 0 136.879 5.87992 136.879 13.1332C136.879 20.3864 142.777 26.2663 150.053 26.2663Z" fill="#D9D9D9"/>
<path d="M145.409 10.9504C147.068 10.979 148.413 9.62991 148.413 7.93715C148.413 6.24438 147.068 4.84894 145.409 4.82034C143.751 4.79174 142.406 6.14081 142.406 7.83358C142.406 9.52634 143.751 10.9218 145.409 10.9504Z" fill="white"/>
<path fill-rule="evenodd" clip-rule="evenodd" d="M155.698 5.00999C157.766 6.79074 159.069 9.42287 159.069 12.3482C159.068 17.7017 154.715 22.0415 149.345 22.0418C146.848 22.0411 144.564 21.0999 142.838 19.5491C141.949 18.7498 141.677 18.5232 141.481 18.4909C141.261 18.4547 141.316 18.7356 142.101 19.6855C144.014 21.9995 146.809 23.4519 150.052 23.452C155.813 23.4519 160.483 18.7963 160.483 13.0532C160.483 9.60095 158.796 6.54153 156.199 4.64998C155.289 3.98728 154.627 3.81831 154.56 3.93505C154.5 4.03946 154.94 4.35641 155.698 5.00999Z" fill="#808080"/>
<path d="M84.1854 49.2844C91.4611 49.2844 97.3591 43.4045 97.3591 36.1512C97.3591 28.898 91.4611 23.0181 84.1854 23.0181C76.9098 23.0181 71.0117 28.898 71.0117 36.1512C71.0117 43.4045 76.9098 49.2844 84.1854 49.2844Z" fill="#D9D9D9"/>
<path d="M79.5423 33.9685C81.2009 33.9971 82.5455 32.648 82.5455 30.9552C82.5455 29.2624 81.2009 27.867 79.5423 27.8384C77.8837 27.8098 76.5391 29.1589 76.5391 30.8516C76.5391 32.5444 77.8837 33.9399 79.5423 33.9685Z" fill="white"/>
<path fill-rule="evenodd" clip-rule="evenodd" d="M89.8312 28.0281C91.8987 29.8088 93.2013 32.4409 93.2015 35.3662C93.2013 40.7197 88.8481 45.0596 83.478 45.0599C80.9804 45.0591 78.6967 44.1179 76.9713 42.5672C76.0819 41.7679 75.8098 41.5413 75.6138 41.509C75.3939 41.4727 75.4484 41.7536 76.2339 42.7036C78.1471 45.0175 80.942 46.47 84.1847 46.47C89.9455 46.47 94.6156 41.8144 94.6158 36.0713C94.616 32.619 92.9287 29.5596 90.3313 27.668C89.4213 27.0053 88.7598 26.8364 88.6925 26.9531C88.6324 27.0575 89.0724 27.3745 89.8312 28.0281Z" fill="#808080"/>
<path d="M110.533 49.2844C117.809 49.2844 123.707 43.4045 123.707 36.1512C123.707 28.898 117.809 23.0181 110.533 23.0181C103.257 23.0181 97.3594 28.898 97.3594 36.1512C97.3594 43.4045 103.257 49.2844 110.533 49.2844Z" fill="#D9D9D9"/>
<path d="M105.89 33.9685C107.549 33.9971 108.893 32.648 108.893 30.9552C108.893 29.2624 107.549 27.867 105.89 27.8384C104.231 27.8098 102.887 29.1589 102.887 30.8516C102.887 32.5444 104.231 33.9399 105.89 33.9685Z" fill="white"/>
<path fill-rule="evenodd" clip-rule="evenodd" d="M116.179 28.0281C118.246 29.8088 119.549 32.4409 119.549 35.3662C119.549 40.7197 115.196 45.0596 109.826 45.0599C107.328 45.0591 105.044 44.1179 103.319 42.5672C102.43 41.7679 102.157 41.5413 101.961 41.509C101.742 41.4727 101.796 41.7536 102.582 42.7036C104.495 45.0175 107.29 46.47 110.532 46.47C116.293 46.47 120.963 41.8144 120.963 36.0713C120.964 32.619 119.276 29.5596 116.679 27.668C115.769 27.0053 115.107 26.8364 115.04 26.9531C114.98 27.0575 115.42 27.3745 116.179 28.0281Z" fill="#808080"/>
<path d="M57.8378 49.2844C65.1134 49.2844 71.0115 43.4045 71.0115 36.1512C71.0115 28.898 65.1134 23.0181 57.8378 23.0181C50.5621 23.0181 44.6641 28.898 44.6641 36.1512C44.6641 43.4045 50.5621 49.2844 57.8378 49.2844Z" fill="#D9D9D9"/>
<path d="M53.1946 33.9685C54.8533 33.9971 56.1979 32.648 56.1979 30.9552C56.1979 29.2624 54.8533 27.867 53.1946 27.8384C51.536 27.8098 50.1914 29.1589 50.1914 30.8516C50.1914 32.5444 51.536 33.9399 53.1946 33.9685Z" fill="white"/>
<path fill-rule="evenodd" clip-rule="evenodd" d="M63.4836 28.0281C65.5511 29.8088 66.8537 32.4409 66.8539 35.3662C66.8536 40.7197 62.5004 45.0596 57.1304 45.0599C54.6328 45.0591 52.3491 44.1179 50.6236 42.5672C49.7343 41.7679 49.4622 41.5413 49.2661 41.509C49.0462 41.4727 49.1008 41.7536 49.8862 42.7036C51.7994 45.0175 54.5943 46.47 57.8371 46.47C63.5979 46.47 68.268 41.8144 68.2682 36.0713C68.2683 32.619 66.581 29.5596 63.9837 27.668C63.0737 27.0053 62.4122 26.8364 62.3449 26.9531C62.2847 27.0575 62.7247 27.3745 63.4836 28.0281Z" fill="#808080"/>
<path d="M215.924 49.2844C223.199 49.2844 229.097 43.4045 229.097 36.1512C229.097 28.898 223.199 23.0181 215.924 23.0181C208.648 23.0181 202.75 28.898 202.75 36.1512C202.75 43.4045 208.648 49.2844 215.924 49.2844Z" fill="#D9D9D9"/>
<path d="M211.281 33.9685C212.939 33.9971 214.284 32.648 214.284 30.9552C214.284 29.2624 212.939 27.867 211.281 27.8384C209.622 27.8098 208.277 29.1589 208.277 30.8516C208.277 32.5444 209.622 33.9399 211.281 33.9685Z" fill="white"/>
<path fill-rule="evenodd" clip-rule="evenodd" d="M221.57 28.0281C223.637 29.8088 224.94 32.4409 224.94 35.3662C224.94 40.7197 220.586 45.0596 215.216 45.0599C212.719 45.0591 210.435 44.1179 208.71 42.5672C207.82 41.7679 207.548 41.5413 207.352 41.509C207.132 41.4727 207.187 41.7536 207.972 42.7036C209.885 45.0175 212.68 46.47 215.923 46.47C221.684 46.47 226.354 41.8144 226.354 36.0713C226.354 32.619 224.667 29.5596 222.07 27.668C221.16 27.0053 220.498 26.8364 220.431 26.9531C220.371 27.0575 220.811 27.3745 221.57 28.0281Z" fill="#808080"/>
<path d="M245.849 26.2663C253.125 26.2663 259.023 20.3864 259.023 13.1332C259.023 5.87992 253.125 0 245.849 0C238.574 0 232.676 5.87992 232.676 13.1332C232.676 20.3864 238.574 26.2663 245.849 26.2663Z" fill="#D9D9D9"/>
<path d="M241.206 10.9504C242.865 10.979 244.21 9.62991 244.21 7.93715C244.21 6.24438 242.865 4.84894 241.206 4.82034C239.548 4.79174 238.203 6.14081 238.203 7.83358C238.203 9.52634 239.548 10.9218 241.206 10.9504Z" fill="white"/>
<path fill-rule="evenodd" clip-rule="evenodd" d="M251.495 5.00999C253.563 6.79074 254.865 9.42287 254.866 12.3482C254.865 17.7017 250.512 22.0415 245.142 22.0418C242.644 22.0411 240.361 21.0999 238.635 19.5491C237.746 18.7498 237.474 18.5232 237.278 18.4909C237.058 18.4547 237.112 18.7356 237.898 19.6855C239.811 21.9995 242.606 23.4519 245.849 23.452C251.61 23.4519 256.28 18.7963 256.28 13.0532C256.28 9.60095 254.593 6.54153 251.995 4.64998C251.085 3.98728 250.424 3.81831 250.357 3.93505C250.296 4.03946 250.736 4.35641 251.495 5.00999Z" fill="#808080"/>
<path fill-rule="evenodd" clip-rule="evenodd" d="M242.269 22.3037C240.606 22.3056 238.957 22.6116 237.404 23.2067C239.773 25.1814 242.761 26.2642 245.849 26.2659C247.546 26.2654 249.226 25.938 250.798 25.3019C248.382 23.362 245.372 22.3041 242.269 22.3037Z" fill="white"/>
<path d="M242.269 49.2844C249.545 49.2844 255.443 43.4045 255.443 36.1512C255.443 28.898 249.545 23.0181 242.269 23.0181C234.994 23.0181 229.096 28.898 229.096 36.1512C229.096 43.4045 234.994 49.2844 242.269 49.2844Z" fill="#D9D9D9"/>
<path d="M237.626 33.9685C239.285 33.9971 240.63 32.648 240.63 30.9552C240.63 29.2624 239.285 27.867 237.626 27.8384C235.968 27.8098 234.623 29.1589 234.623 30.8516C234.623 32.5444 235.968 33.9399 237.626 33.9685Z" fill="white"/>
<path fill-rule="evenodd" clip-rule="evenodd" d="M247.915 28.0281C249.983 29.8088 251.285 32.4409 251.286 35.3662C251.285 40.7197 246.932 45.0596 241.562 45.0599C239.064 45.0591 236.781 44.1179 235.055 42.5672C234.166 41.7679 233.894 41.5413 233.698 41.509C233.478 41.4727 233.532 41.7536 234.318 42.7036C236.231 45.0175 239.026 46.47 242.269 46.47C248.03 46.47 252.7 41.8144 252.7 36.0713C252.7 32.619 251.013 29.5596 248.415 27.668C247.505 27.0053 246.844 26.8364 246.777 26.9531C246.716 27.0575 247.156 27.3745 247.915 28.0281Z" fill="#808080"/>
<path d="M189.576 49.2844C196.852 49.2844 202.75 43.4045 202.75 36.1512C202.75 28.898 196.852 23.0181 189.576 23.0181C182.3 23.0181 176.402 28.898 176.402 36.1512C176.402 43.4045 182.3 49.2844 189.576 49.2844Z" fill="#D9D9D9"/>
<path d="M184.933 33.9685C186.592 33.9971 187.936 32.648 187.936 30.9552C187.936 29.2624 186.592 27.867 184.933 27.8384C183.274 27.8098 181.93 29.1589 181.93 30.8516C181.93 32.5444 183.274 33.9399 184.933 33.9685Z" fill="white"/>
<path fill-rule="evenodd" clip-rule="evenodd" d="M195.222 28.0281C197.289 29.8088 198.592 32.4409 198.592 35.3662C198.592 40.7197 194.239 45.0596 188.869 45.0599C186.371 45.0591 184.087 44.1179 182.362 42.5672C181.473 41.7679 181.2 41.5413 181.004 41.509C180.785 41.4727 180.839 41.7536 181.625 42.7036C183.538 45.0175 186.333 46.47 189.575 46.47C195.336 46.47 200.006 41.8144 200.006 36.0713C200.007 32.619 198.319 29.5596 195.722 27.668C194.812 27.0053 194.15 26.8364 194.083 26.9531C194.023 27.0575 194.463 27.3745 195.222 28.0281Z" fill="#808080"/>
<path d="M114.794 84.244C114.71 84.2581 114.59 84.3269 114.48 84.4243C113.597 85.2035 111.281 94.3021 120.833 103.557C120.926 103.434 124.587 98.7491 124.587 98.7491C124.587 98.7491 118.745 93.9657 116.996 89.7535C115.465 86.0679 115.384 84.1435 114.794 84.244ZM105.736 88.271C105.616 88.2624 105.521 88.3465 105.4 88.5314C104.838 89.3942 104.847 96.5341 113.054 102.756C115.66 102.638 118.149 102.956 118.149 102.956C118.149 102.956 115.846 99.9147 114.794 97.2866C112.817 96.1033 110.546 94.6704 109.238 92.9992C106.953 90.0796 106.255 88.3071 105.736 88.271ZM147.044 88.3711C146.682 88.4077 146.143 88.7145 145.471 89.3528C143.678 91.0552 140.23 96.1662 139.264 99.2901C138.299 102.414 135.029 103.057 135.029 103.057C135.029 103.057 138.885 105.09 140.46 105.701C142.034 106.312 144.56 105.195 145.303 102.576C145.303 102.576 144.197 101.94 144.59 99.6707C144.984 97.401 146.467 91.5288 147.274 89.9539C147.779 88.9696 147.647 88.3103 147.044 88.3711ZM174.617 89.1525C173.698 89.1821 172.108 90.0062 170.214 91.5366C167.459 93.7627 163.949 99.4675 162.288 101.213C160.626 102.959 154.865 102.436 154.865 102.436C154.865 102.436 151.729 106.352 151.51 108.186C176.524 108.36 175.032 112.187 187.408 113.234C199.784 114.282 205.108 104.754 207.076 100.913C209.044 97.0718 211.503 95.3712 210.934 94.5418C210.366 93.7125 209.093 94.1561 206.95 95.6838C204.808 97.2115 199.537 102.922 197.263 105.541C194.989 108.16 191.864 108.032 191.602 106.723C191.339 105.413 195.281 97.1486 197.599 94.9225C199.916 92.6964 199.624 91.6976 197.787 92.1777C195.951 92.6579 191.437 96.5824 189.819 99.5505C188.201 102.519 185.194 107.273 181.914 106.182C178.634 105.091 173.248 103.867 170.843 103.517C168.438 103.168 168.784 102.733 169.396 99.5906C170.008 96.4479 175.785 90.6172 175.435 89.6133C175.326 89.2996 175.035 89.1391 174.617 89.1525ZM99.1938 137.917C99.1938 137.917 100.377 138.912 102.192 138.999C102.192 138.999 95.9232 143.552 93.8678 149.838H97.1179C97.1179 149.838 91.8129 154.591 91.8129 163.321L94.5388 162.78C94.5388 162.78 91.1181 174.069 93.742 183.977C96.3659 193.885 104.541 197.42 104.541 197.42C104.541 197.42 104.412 196.34 103.87 193.473C99.5227 189.123 101.374 182.695 101.374 182.695C101.727 184.151 101.725 189.071 105.338 193.634C105.338 193.634 108.954 215.582 107.686 219.118C106.418 222.653 106.328 224.126 107.728 226.571C109.127 229.015 110.893 251.906 108.504 255.461C107.496 257.97 105.359 260.143 107.433 262.011C105.32 265.196 102.895 267.345 100.412 269.298C101.145 269.746 102.824 270.168 104.293 270.113C104.293 270.113 107.394 266.633 110.016 262.392C111.853 262.471 109.48 265.585 104.524 271.729C104.524 271.729 111.57 273.374 115.179 269.051C117.354 266.446 116.521 264.144 116.992 262.698C117.38 261.507 118.35 260.665 119.731 261.398C122.787 263.019 125.195 260.915 125.966 259.915C125.966 259.915 119.955 257.639 118.988 252.977C118.021 248.314 117.874 234.432 118.443 231.159C119.011 227.885 119.848 225.523 119.323 223.646C118.799 221.769 117.665 221.245 118.233 217.054C118.802 212.864 119.339 201.379 121.525 198.542C123.712 195.705 126.054 195.705 126.537 188.905C126.537 188.905 129.063 194.251 122.909 199.083C123.73 199.038 130.235 199.651 136.875 197.199C143.013 194.933 152.192 190.744 160.107 190.047C162.085 189.873 163.819 189.859 165.727 190.047V190.068C165.747 190.071 165.769 190.066 165.789 190.068C165.789 190.068 167.008 191.566 165.828 194.054C165.828 194.054 168.579 193.524 172.148 192.373C175.717 191.643 178.814 191.073 182.324 191.009C182.212 190.231 181.846 187.643 183.088 182.975C184.575 177.388 186.294 170.404 181.746 164.904C181.746 164.904 185.828 167.007 186.003 173.86C186.178 180.712 183.523 185.827 184.011 191.27C184.499 196.712 185.05 201.437 187.849 208.611C190.648 215.785 192.388 216.9 198.441 221.294C204.494 225.688 205.734 228.953 203.285 233.623C203.285 233.623 196.303 250.15 193.597 252.956C190.891 255.762 184.125 256.373 187.617 260.189L179.335 269.626C180.442 269.886 182.821 270.215 184.29 270.16C184.29 270.16 187.952 265.793 190.574 261.552C191.71 261.023 190.179 265.819 185.269 270.888C185.269 270.888 194.082 272.147 196.487 267.302C198.892 262.457 197.749 260.27 200.807 261.892C203.863 263.514 205.951 263.213 206.722 262.212C206.722 262.212 202.119 257.577 205.399 251.073C205.399 251.073 209.542 242.007 212.696 237.069C215.85 232.131 219.022 227.275 219.424 225.268C219.826 223.262 219.513 222.309 215.988 220.58C212.463 218.852 206.406 210.336 207.412 204.312C208.417 198.289 219.068 189.514 219.112 180.872C219.156 172.229 217.763 168.739 214.352 165.465C214.352 165.465 218.772 167.188 220.915 170.854C223.058 174.521 226.806 173.319 228.38 171.355L225.067 168.931C225.067 168.931 230.059 171.234 232.071 167.088C232.071 167.088 224.904 165.236 220.706 161.919C216.507 158.601 210.2 159.354 210.2 159.354C210.2 159.354 202.015 151.913 187.324 153.324C172.633 154.735 167.947 152.452 162.141 152.583L162.057 150.579C162.057 150.579 157.723 150.47 155.012 151.561V149.417C155.012 149.417 150.173 150.337 146.981 151.821V149.758C146.981 149.758 143.837 150.343 141.802 150.92C138.565 151.836 136.758 150.751 136.014 148.656C135.271 146.561 135.847 143.687 135.847 143.687L137.692 144.288C137.692 144.288 137.864 137.054 137.251 133.169L139.432 133.77C139.432 133.77 137.115 109.333 127.145 108.286C127.145 108.286 124.987 111.656 122.636 109.989C120.286 108.322 124.171 104.158 126.243 102.676C126.243 102.676 122.129 107.622 123.79 108.907C124.769 109.396 125.76 108.919 129.703 104.359C133.336 100.157 137.7 98.1029 133.309 91.8374C133.309 91.8374 129.078 93.9147 121.252 105.381C118.104 103.242 112.636 104.446 110.055 105.1C107.475 105.755 94.9668 108.734 90.1564 108.647C85.3459 108.559 84.5159 111.732 84.5159 111.732C86.5712 112.168 88.9821 111.131 88.9821 111.131C88.2387 112.615 87.0804 112.97 84.3691 113.014C81.6577 113.058 82.3771 117.161 82.3771 117.161C82.3771 117.161 95.1714 115.1 95.0839 121.91C95.0839 121.91 95.2779 123.376 92.0854 123.813C88.8931 124.249 85.3965 125.756 85.3965 125.756C85.3965 125.756 85.5855 127.02 86.8224 126.958C86.8224 126.958 88.3552 129.834 91.5403 127.92C94.7253 126.006 98.4152 125.427 100.703 125.736C102.992 126.045 109.143 128.122 112.823 129.943C116.503 131.764 123.739 131.136 125.656 123.512C126.412 125.007 124.594 131.963 118.507 132.233C112.578 132.994 111.611 130.807 107.696 129.463C107.563 129.511 104.752 134.406 99.1938 137.917ZM155.955 95.8641C155.694 95.893 155.394 95.9884 155.012 96.1446C152.971 96.9779 148.967 98.9223 146.771 102.996C144.576 107.071 142.232 107.952 139.201 106.162C136.171 104.372 132.869 103.337 132.869 103.337C130.272 104.942 128.487 107.324 128.487 107.324C133.676 109.033 147.379 118.389 155.137 127.259C162.896 136.129 173.157 138.23 184.221 139.059C195.285 139.888 201.155 137.75 203.91 134.651C206.665 131.552 210.891 125.669 212.465 124.534C214.039 123.399 213.313 122.556 211.563 122.731C209.814 122.905 206.458 124.45 204.036 127.519C201.614 130.588 197.815 134.13 196.11 133.65C194.404 133.169 195.164 131.937 196.739 128.881C198.313 125.826 202.938 120.683 202.107 120.246C201.276 119.81 198.84 120.733 194.642 124.574C190.444 128.415 190.402 131.559 185.898 132.868C181.394 134.178 171.721 131.435 170.759 130.344C169.797 129.253 170.889 125.793 173.338 123.873C175.787 121.952 180.644 116.874 180.425 116.219C180.207 115.565 176.664 115.75 172.772 118.543C168.88 121.337 166.645 124.438 163.672 124.874C160.698 125.311 149.787 115.511 148.952 112.733C148.117 109.956 154.491 99.6637 155.913 98.0279C157.069 96.6988 157.086 95.7389 155.955 95.8641ZM105.526 107.444C105.372 108.679 105.526 109.848 105.526 109.848L110.58 109.307C110.209 112.116 106.461 112.691 105.17 111.191C103.879 109.691 105.526 107.444 105.526 107.444ZM86.1514 117.802C85.5382 117.799 84.8646 117.815 84.1594 117.842L83.9917 119.565C83.9917 119.565 92.9122 118.922 92.6936 118.704C92.5022 118.513 90.4443 117.826 86.1514 117.802ZM73.1929 119.685C73.1929 119.685 68.7603 123.085 72.9623 126.537C77.1643 129.99 84.3216 123.825 91.079 122.811C87.4493 121.109 83.7296 121.549 78.8754 122.771C74.0212 123.993 73.1929 119.685 73.1929 119.685ZM92.6097 184.498C84.1443 186.373 81.4324 189.22 75.2479 190.208C69.0633 191.195 66.9001 191.5 65.5395 194.155C64.1789 196.809 65.5171 199.587 69.1041 206.316C72.6912 213.044 76.3172 228.955 76.3172 228.955C77.7007 234.051 78.2733 242.736 84.3099 241.416L94.1294 250.085C94.4238 249.103 94.4955 248.359 94.6267 246.898C94.6267 246.898 91.1272 243.553 87.244 240.42C86.862 239.229 92.0788 241.002 96.4951 246.504C96.4951 246.504 97.7503 237.465 93.2395 234.471C91.2335 233.139 88.1751 233.304 87.2839 232.12C86.57 231.171 87.7854 231.23 88.8564 229.636C90.7929 226.754 90.8854 224.676 89.9886 223.786C89.9886 223.786 86.9497 227.218 84.432 223.946C81.9144 220.675 79.6533 209.953 78.9173 200.325C78.9173 200.325 79.2539 198.466 86.7595 199.344C94.2652 200.221 102.471 197.905 102.842 197.781C95.044 194.695 92.6097 184.498 92.6097 184.498ZM163.378 191.27C162.589 191.287 161.64 191.323 161.009 191.43C156.942 198.676 157.081 210.831 165.37 217.315C174.488 224.447 174.634 227.871 172.185 232.541C172.185 232.541 165.055 247.47 159.463 252.022C156.439 254.483 150.458 255.812 152.689 259.161L142.631 269.158C143.644 269.326 146.237 269.514 147.705 269.459C147.705 269.459 151.996 264.812 154.805 261.225C156.407 260.929 153.101 266.006 148.191 271.075C148.191 271.075 157.841 273.283 160.463 268.002C163.085 262.721 163.05 259.832 165.831 261.892C168.841 264.121 171.816 264.054 172.587 263.054C172.587 263.054 167.938 259.025 171.218 252.522C171.218 252.522 175.697 245.68 178.851 240.742C182.005 235.803 189.082 228.737 189.484 226.731C189.886 224.725 189.676 223.524 186.151 221.795C182.677 220.092 179.424 209.026 183.738 199.925C182.937 196.491 182.361 192.113 182.361 192.113C182.361 192.113 177.569 192.418 173.128 193.682C168.687 194.947 166.291 196.109 163.773 196.178C164.139 194.545 164.262 192.44 164.322 191.27C164.077 191.268 163.908 191.26 163.378 191.27Z" fill="#DBB357"/>
</g>
<defs>
<clipPath id="clip0_151_10196">
<rect width="218.023" height="300" fill="white" transform="translate(41)"/>
</clipPath>
</defs>
</svg>
