<svg width="300" height="300" viewBox="0 0 300 300" fill="none" xmlns="http://www.w3.org/2000/svg">
<path fill-rule="evenodd" clip-rule="evenodd" d="M138.58 0.0958258C134.229 0.347515 127.442 1.0807 124.015 1.66975C100.598 5.69357 77.5143 16.0929 58.4366 31.2135C33.3542 51.0932 15.026 78.6808 6.23477 109.788C3.31219 120.129 2.22109 128.455 1.64245 144.831C1.20259 157.284 1.79004 168.843 3.2847 177.149C9.97434 214.319 31.4749 249.015 61.8458 271.649C69.1712 277.108 76.3824 281.536 84.6601 285.658C104.779 295.676 119.861 299.214 145.343 299.893C167.843 300.493 181.019 298.637 198.427 292.415C215.131 286.445 229.663 278.197 243.792 266.667C248.185 263.082 258.708 252.623 262.421 248.152C277.588 229.886 288.029 209.205 293.888 185.824C296.383 175.864 297.36 167.633 297.8 152.861C297.987 146.603 297.597 136.103 296.985 130.868C296.181 123.997 293.927 114.289 291.243 106.139C278.283 66.7839 249.009 32.8661 212.031 14.362C197.895 7.28832 180.304 2.04502 165.804 0.583195C161.6 0.159354 143.182 -0.170543 138.58 0.0958258ZM135.377 3.65898C130.581 3.91627 127.516 4.37721 121.765 5.70559C116.381 6.94909 105.077 10.192 100.067 11.93C88.0973 16.0828 73.211 24.2569 61.9792 32.8442C51.7507 40.6642 41.752 50.7273 34.0887 60.9133C19.3466 80.5093 9.62336 104.293 5.82801 130.041C4.53086 138.84 4.20151 143.161 4.20978 151.26C4.21806 159.203 4.66592 164.11 6.21929 173.279C13.4494 215.952 35.9675 250.712 71.5877 274.185C82.4918 281.37 93.2701 286.44 106.105 290.423C123.527 295.828 133.249 297.2 152.059 296.907C162.476 296.744 166.727 296.405 174.521 295.112C195.273 291.669 217.904 281.773 235.895 268.276C245.886 260.781 255.528 251.313 263.063 241.6C271.181 231.136 278.305 218.882 283.389 206.642C287.01 197.923 291.439 183.24 292.687 175.815C294.098 167.42 294.713 154.447 294.24 143.053C293.752 131.321 293.159 126.813 290.951 118.09C279.218 71.7224 246.822 33.1373 204.105 14.6548C192.724 9.73048 179.038 5.82062 168.959 4.61369C161.461 3.71609 143.718 3.21165 135.377 3.65898ZM139.514 32.7241C137.537 33.7256 132.954 37.8316 128.35 42.7263C126.466 44.7289 124.829 46.3671 124.712 46.3671C124.595 46.3671 124.099 45.3985 123.61 44.2151C122.591 41.747 121.214 39.9615 120.329 39.9615C118.683 39.9615 114.629 43.8115 114.033 45.9404C113.738 46.9941 113.754 47.6192 114.14 50.1361C114.39 51.7628 114.556 53.1302 114.51 53.175C114.464 53.2196 111.723 54.5434 108.42 56.1168C97.6884 61.2291 92.9808 63.0838 86.4828 64.7589C78.6724 66.7721 78.3142 67.1356 77.3368 74.0321C76.6757 78.6965 76.0378 80.2074 73.5377 83.0283C71.4324 85.4038 72.3951 86.4255 75.2713 84.8678C78.6441 83.0412 79.3138 81.7493 79.3221 77.054L79.3279 73.7108L83.2647 72.4208C98.4373 67.449 109.022 61.7944 121.679 51.8995C124.2 49.9284 127.11 47.6875 128.146 46.9196L130.029 45.5234L132.002 46.6124C133.087 47.2116 134.287 47.7016 134.667 47.7016C135.397 47.7016 137.052 46.4274 137.564 45.4706C138.009 44.6395 137.876 43.4875 137.122 41.6349C135.738 38.2341 136.591 36.7658 140.185 36.3626C142.947 36.0527 143.37 35.9355 144.178 35.2562C145.838 33.8593 144.942 32.2597 142.368 32.0265C141.359 31.9352 140.805 32.0708 139.514 32.7241ZM170.9 36.638C169.828 37.8588 168.54 40.447 167.257 43.9562C165.679 48.2747 163.63 49.9628 161.198 48.947C159.407 48.1983 159.353 47.4652 160.791 43.3586C161.242 42.0708 161.563 40.9688 161.503 40.9095C161.444 40.8503 160.163 41.8066 158.656 43.0349C157.148 44.2631 155.281 45.6307 154.506 46.0743C152.834 47.0309 150.434 47.7016 148.682 47.7016C147.988 47.7016 147.351 47.8121 147.268 47.9469C146.906 48.532 150.01 50.6376 151.233 50.6376C151.676 50.6376 152.959 50.3112 154.086 49.9121C156.477 49.0653 156.844 49.1944 157.139 50.9867C157.825 55.1429 161.974 55.4197 165.516 51.545C167.853 48.987 172.477 39.0326 172.477 36.5577C172.477 35.41 171.955 35.4367 170.9 36.638ZM180.011 38.4286C178.816 39.7004 176.154 46.5465 175.791 49.2782C175.639 50.4283 175.683 50.6555 176.089 50.8113C176.428 50.9413 176.749 50.7686 177.2 50.2153C178.809 48.2397 181.285 41.537 181.285 39.1576C181.285 37.6533 180.93 37.4504 180.011 38.4286ZM195.7 41.4903C195.187 41.7513 194.661 42.2742 194.529 42.6566C194.202 43.6004 194.541 45.2109 195.208 45.8776C195.67 46.3396 195.93 46.3928 196.861 46.2145C198.777 45.8475 199.592 45.9609 200.493 46.7197C202.724 48.5966 205.883 46.1189 203.85 44.0864C203.28 43.5158 202.954 43.4312 201.332 43.4312H199.469L198.709 42.2969C197.829 40.9821 197.091 40.7843 195.7 41.4903ZM100.166 42.2662C99.4964 43.1171 99.4257 44.9141 100.028 45.7738C100.534 46.4958 101.778 46.5654 102.435 45.9086C103.113 45.2309 103.84 43.4574 103.684 42.8616C103.523 42.2462 102.311 41.5629 101.38 41.5629C100.984 41.5629 100.497 41.8445 100.166 42.2662ZM95.9576 45.4097C94.4693 46.6898 95.313 49.8369 97.1439 49.8369C98.1547 49.8369 99.3456 48.4653 99.3456 47.3013C99.3456 46.5793 99.143 46.1234 98.5655 45.5459C97.6166 44.597 96.9432 44.5621 95.9576 45.4097ZM117.498 47.0309C116.819 47.8492 118.078 48.9158 119.335 48.5872C120.096 48.3881 120.042 47.8546 119.194 47.1873C118.36 46.5315 117.944 46.4931 117.498 47.0309ZM137.219 54.1884C136.905 54.5348 136.589 54.8798 136.272 55.2235C136.043 55.4704 135.238 55.9657 134.483 56.3245C131.976 57.5149 130.91 59.0976 131.751 60.3814C132.072 60.8709 132.423 61.0468 133.079 61.0468C134.013 61.0468 135.377 60.1881 135.377 59.6007C135.377 58.8782 136.352 58.3361 137.324 58.5184C137.858 58.6185 138.498 58.5648 138.818 58.3932C139.443 58.0585 140.449 56.2714 140.449 55.4939C140.449 54.8432 139.678 54.1551 138.603 53.8468C137.882 53.6402 137.669 53.6931 137.219 54.1884ZM196.877 54.8698C195.136 55.6778 191.508 57.8247 191.145 58.2627C190.851 58.6164 191.067 58.6425 192.968 58.484C194.97 58.3172 195.207 58.3529 196.278 58.9844C196.913 59.3586 197.782 60.0325 198.209 60.482C199.339 61.6702 201.199 62.2083 203.637 62.0519C205.388 61.9396 205.981 61.7487 208.426 60.5122C211.578 58.9185 211.6 58.6551 208.586 58.6487C205.81 58.6428 204.425 58.0767 200.594 55.381C199.186 54.39 198.203 54.2549 196.877 54.8698ZM149.531 58.1981C149.527 58.3196 149.278 60.0611 148.977 62.0682C148.343 66.3114 147.774 68.5184 147.314 68.5238C147.135 68.5256 146.369 67.8352 145.612 66.9891C144.856 66.143 144.142 65.5438 144.026 65.6578C143.91 65.7717 143.749 66.8727 143.667 68.1045C143.585 69.3362 143.421 70.4407 143.303 70.5592C142.789 71.073 141.484 69.8508 137.029 64.6847C136.543 64.121 136.102 63.7032 136.049 63.7564C135.996 63.8092 136.284 65.2932 136.69 67.054C137.568 70.8693 137.853 72.7905 137.54 72.7905C137.413 72.7905 136.132 71.9497 134.691 70.9222C133.251 69.8946 131.982 69.0539 131.872 69.0539C131.368 69.0539 131.422 69.688 132.079 71.5008C133.086 74.2793 133.271 75.1926 132.825 75.1926C132.372 75.1926 128.922 73.3793 123.872 70.4863C121.727 69.258 119.885 68.2531 119.777 68.2531C119.669 68.2531 120.222 69.064 121.004 70.0547C124.16 74.0497 127.327 78.3709 127.501 78.9204C127.603 79.241 127.615 79.5741 127.529 79.6606C127.442 79.7468 126.41 79.5981 125.235 79.3296C124.06 79.0611 123.009 78.9317 122.899 79.0416C122.7 79.241 123.354 79.8957 124.813 80.9574C126.23 81.9882 125.603 82.1321 119.695 82.1321C116.327 82.1321 114.284 82.2276 114.439 82.3782C114.578 82.5135 116.231 83.2931 118.11 84.1104C123.011 86.2416 125.028 87.5267 124.588 88.2386C124.497 88.3862 123.854 88.5805 123.161 88.6704C121.058 88.9429 120.725 89.0566 120.433 89.6024C120.04 90.3359 120.941 91.2054 122.099 91.2108C124.71 91.2231 123.834 92.5199 119.844 94.5497C118.185 95.3934 116.778 96.1274 116.716 96.1808C116.295 96.5491 117.338 96.4581 120.455 95.8541C122.427 95.4716 125.499 95.0955 127.296 95.016C130.199 94.8879 130.767 94.9389 132.444 95.478C133.497 95.8167 134.287 96.2155 134.234 96.3812C134.115 96.749 132.939 97.3431 130.184 98.4273C127.308 99.5589 125.167 99.6935 121.232 98.9891C116.396 98.1233 112.425 97.827 106.952 97.9234C102.053 98.0098 101.831 98.0376 100.391 98.7444C99.572 99.1469 97.3817 100.737 95.5246 102.279C91.2913 105.792 87.987 108.257 86.8874 108.722C85.9124 109.134 85.5724 109.891 86.0021 110.693C86.613 111.835 88.5051 110.735 95.2345 105.324C100.767 100.876 103.989 98.9469 105.888 98.9469C106.253 98.9469 106.794 99.1893 107.09 99.4853C107.586 99.9809 107.597 100.084 107.234 100.787C106.084 103.011 100.174 107.284 93.5656 110.669C88.8174 113.101 87.962 113.663 88.2649 114.154C88.531 114.584 90.2891 114.371 94.0076 113.456C99.288 112.158 101.367 110.814 108.554 104.05C111.9 100.901 112.691 100.283 113.373 100.282C113.822 100.282 116.885 100.473 120.179 100.706C123.474 100.94 127.199 101.084 128.457 101.026C131.36 100.894 132.233 100.403 135.592 97.0119L138.074 94.5051L134.572 93.4843C132.645 92.9224 130.811 92.2538 130.496 91.9984C129.923 91.5345 129.923 91.53 130.39 89.5685C130.648 88.4878 131.41 86.4626 132.084 85.068C133.158 82.8458 133.644 82.2007 136.012 79.8485C139.085 76.7962 141.142 75.3471 143.49 74.5806C144.897 74.1215 145.849 74.0487 150.457 74.0487C156.523 74.0487 157.86 74.3201 160.531 76.0926C164.509 78.7331 169.033 84.8886 170.131 89.1538C170.659 91.2062 170.457 91.4318 165.078 94.81C164.109 95.4182 163.803 95.7711 163.803 96.2779C163.803 97.3156 165.495 97.3271 168.043 96.3067C171.401 94.9621 173.408 94.6503 179.75 94.4883C182.943 94.4067 185.555 94.2655 185.555 94.1745C185.555 94.0837 183.033 93.4714 179.95 92.8143C176.867 92.1572 174.35 91.5567 174.355 91.4798C174.361 91.4029 175.46 90.6796 176.798 89.872C178.136 89.0646 179.243 88.2839 179.257 88.1371C179.271 87.9906 178.457 87.7888 177.447 87.689C176.437 87.5892 175.482 87.3794 175.326 87.2227C174.872 86.7692 177.121 84.8871 180.451 82.9328C182.078 81.9786 183.411 81.1288 183.414 81.0442C183.417 80.9598 180.965 81.2081 177.964 81.5961L172.508 82.3018L173.894 80.7154C177.27 76.8493 177.262 77.1018 173.988 77.7282C171.399 78.2238 170.876 78.2286 170.876 77.7578C170.876 77.5539 171.873 75.9624 173.092 74.2214C175.982 70.0958 175.89 70.2573 175.112 70.6732C174.763 70.8592 172.96 71.9521 171.104 73.102C169.248 74.2518 167.672 75.1926 167.602 75.1926C167.532 75.1926 167.392 74.3519 167.291 73.3243C167.118 71.5678 167.067 71.456 166.451 71.456C166.09 71.456 165.191 71.7715 164.454 72.1569C163.717 72.5423 163.035 72.7787 162.938 72.6821C162.841 72.5858 162.918 71.3393 163.109 69.9128C163.299 68.4862 163.519 66.4481 163.597 65.3839C163.718 63.738 163.676 63.4489 163.317 63.4489C162.835 63.4489 161.849 64.6772 161.043 66.2823C159.682 68.9943 158.129 69.8546 157.557 68.2134C157.395 67.7511 157.263 66.7371 157.263 65.9604C157.263 65.1835 157.156 64.4818 157.026 64.4009C156.755 64.2339 155.422 65.645 154.075 67.524C153.573 68.2238 153.078 68.7042 152.975 68.5916C152.871 68.4787 152.158 66.2247 151.389 63.5823C150.126 59.2374 149.554 57.5808 149.531 58.1981ZM187.69 64.7834C187.303 65.1704 187.157 65.673 187.157 66.6103C187.157 68.1893 187.691 68.7696 189.338 68.9794C190.755 69.1598 191.427 69.4849 191.427 69.9907C191.427 70.9886 194.261 71.5513 195.371 70.7735C196.111 70.2554 196.17 68.8326 195.486 67.9889C195.081 67.4879 194.714 67.391 193.069 67.3497C191.015 67.2979 190.638 67.0766 190.63 65.9177C190.625 65.1181 189.72 64.2496 188.891 64.2496C188.524 64.2496 187.984 64.4898 187.69 64.7834ZM234.909 66.1846C234.466 66.6764 234.026 67.1711 233.589 67.6686C233.221 68.0901 232.884 68.2321 232.523 68.1176C231.599 67.8242 231.952 68.4728 233.295 69.5343C234.821 70.7407 236.084 71.3161 236.693 71.0828C237.052 70.9446 237.097 70.6697 236.951 69.4999C236.784 68.1635 236.812 68.0663 237.455 67.7738C238.354 67.3641 238.313 66.8492 237.314 66.0082C236.244 65.108 235.855 65.1365 234.909 66.1846ZM59.1792 66.9149C58.4817 68.0434 64.0707 75.4822 67.036 77.3721C68.2771 78.1632 69.4525 78.3672 69.4525 77.7914C69.4525 76.5335 61.9301 68.0351 59.8147 66.9029C59.5125 66.7411 59.2838 66.7454 59.1792 66.9149ZM207.352 68.965C206.566 69.7513 208.361 72.471 210.734 74.0882C212.277 75.139 213.049 75.2655 215.066 74.7979C217.512 74.2304 219.741 74.2905 222.104 74.9868C223.712 75.4606 224.801 75.5828 227.459 75.5868C231.104 75.5924 232.343 75.3103 233.341 74.2472C234.227 73.3043 233.777 72.9552 232.146 73.3208C230.703 73.644 229.515 73.4866 227.592 72.7171C226.471 72.2682 225.318 72.1502 220.386 71.9791C213.771 71.7498 212.87 71.5617 210.358 69.8839C208.828 68.8622 207.776 68.5409 207.352 68.965ZM242.672 78.0108C240.61 78.5457 234.951 81.3944 234.03 82.3614C232.915 83.5312 233.22 84.1245 234.825 83.9049C237.439 83.5464 244.272 80.7933 245.675 79.533C246.291 78.9797 246.268 78.215 245.626 77.871C244.967 77.5187 244.481 77.5416 242.672 78.0108ZM54.2332 84.2102C52.9131 85.5306 52.5352 86.9414 52.7754 89.6542C52.9363 91.4707 52.9046 91.7406 52.5304 91.7406C52.2939 91.7406 50.7208 90.4194 49.0345 88.8046C45.9331 85.8348 44.8975 85.2514 44.8975 86.4741C44.8975 87.812 48.1262 91.5153 51.4678 94.0103C55.1527 96.7616 55.478 98.3736 52.5885 99.5667C50.9524 100.242 50.5521 101.429 49.8328 107.738C48.8153 116.664 45.885 124.467 40.9193 131.473C39.7716 133.093 38.621 134.863 38.3626 135.408C37.9081 136.366 37.9102 136.434 38.4304 137.49C39.4834 139.628 43.9534 145.121 44.6404 145.121C45.0774 145.121 44.9332 144.629 43.9273 142.685C43.0065 140.906 42.9734 140.753 43.2782 139.696C43.4549 139.083 44.7344 136.703 46.1215 134.406C51.0224 126.29 51.5191 124.624 52.6336 112.559C53.1485 106.99 53.4805 105.03 54.0223 104.364C54.1662 104.188 54.9263 103.856 55.7116 103.628C58.8213 102.724 60.5833 100.038 61.1863 95.2834C61.5252 92.6093 61.1118 89.6654 60.104 87.5798C59.2099 85.7283 56.7394 83.1997 55.825 83.1997C55.5055 83.1997 54.7892 83.6545 54.2332 84.2102ZM225.86 84.337C225.859 84.5953 226.101 85.9165 226.4 87.2729C227.506 92.3053 228.411 94.1889 230.158 95.0923C230.58 95.3107 232.187 95.5877 233.728 95.7078C236.888 95.9544 237.348 96.1978 238.147 98.0485C238.409 98.6555 239.07 101.118 239.616 103.52C240.843 108.918 241.975 112.259 244.025 116.53C248.503 125.859 254.445 133.4 261.168 138.287C262.752 139.439 264.121 140.31 264.208 140.222C264.295 140.135 264.161 139.028 263.91 137.762C263.659 136.497 263.504 135.411 263.565 135.35C263.627 135.288 264.104 135.93 264.627 136.776C267.108 140.796 272.682 147.523 273.532 147.523C274.291 147.523 273.841 146.121 271.674 141.745C269.493 137.336 268.907 135.939 268.326 133.761C267.952 132.359 265.586 129.735 263.163 128.033C261.116 126.595 260.073 126.249 259.2 126.716C258.662 127.003 258.629 127.163 258.788 128.668C258.883 129.57 259.026 130.668 259.106 131.109C259.247 131.886 259.215 131.871 258.01 130.575C250.315 122.304 246.441 113.54 244.678 100.415C243.936 94.897 243.747 94.6399 239.841 93.8617C235.074 92.9117 234.025 92.2674 229.263 87.3666C227.152 85.1945 225.861 84.0452 225.86 84.337ZM55.5394 87.6447C54.49 88.9095 55.9633 95.7441 57.2855 95.7441C58.2485 95.7441 59.1693 90.9316 58.5108 89.3414C58.1468 88.4625 56.8171 87.2032 56.2531 87.2032C56.062 87.2032 55.7409 87.4018 55.5394 87.6447ZM248.125 87.7584C246.867 89.1476 247.953 91.7406 249.792 91.7406C251.495 91.7406 252.264 90.0449 251.357 88.2901C250.721 87.0615 249.01 86.7799 248.125 87.7584ZM147.922 87.6436C147.272 87.9033 146.037 89.1457 145.603 89.9761C145.382 90.3999 144.97 91.8946 144.688 93.2969C144.18 95.8228 143.602 96.9521 142.945 96.7002C142.328 96.4631 139.998 97.2369 138.572 98.1518C137.552 98.8063 137.016 99.3828 136.607 100.267C136.065 101.439 136.042 101.929 135.959 113.924L135.874 126.366L132.756 126.512C131.041 126.592 129.002 126.855 128.222 127.096C126.751 127.552 124.847 129.028 124.559 129.936C124.333 130.649 125.299 132.202 127.779 135.112C129.796 137.479 130.821 139.09 130.51 139.402C130.422 139.489 129.877 139.624 129.299 139.702C128.086 139.865 128.146 139.918 126.316 137.064C124.8 134.699 123.867 133.919 123.209 134.465C122.648 134.931 122.879 136.029 123.881 137.657C125.025 139.516 125.518 141.193 125.802 144.187C126.105 147.386 126.41 148.64 127.231 150.059C127.936 151.278 128.892 152.23 129.15 151.971C129.247 151.875 129.121 150.651 128.871 149.251C128.394 146.581 128.437 146.189 129.208 146.189C130.183 146.189 131.374 148.024 131.374 149.527C131.374 150.764 132.52 154.199 133.511 155.931C134.486 157.634 135.822 159 136.514 159C137.009 159 137.041 158.874 136.91 157.465C136.832 156.621 136.395 154.997 135.939 153.855C135.483 152.714 135.111 151.72 135.111 151.646C135.111 151.573 135.49 151.709 135.953 151.949C137.297 152.644 139.155 154.533 140.845 156.921C143.076 160.075 144.134 161.135 145.048 161.135C146.563 161.135 146.233 159.635 144.217 157.358C143.612 156.674 143.118 156.054 143.118 155.978C143.118 155.903 144.169 156.203 145.453 156.645C148.28 157.618 151.871 157.973 152.403 157.333C153.369 156.17 151.373 155.018 147.439 154.466C145.487 154.193 143.918 153.599 143.918 153.134C143.918 152.761 145.74 152.331 147.33 152.329C148.81 152.327 150.591 151.751 150.591 151.273C150.591 150.196 147.373 148.957 145.233 149.211C144.538 149.293 142.999 149.848 141.814 150.444C140.629 151.039 139.315 151.527 138.894 151.527C138.156 151.527 137.246 150.838 137.246 150.279C137.246 149.765 138.185 149.185 139.742 148.74C141.514 148.233 142.584 147.329 142.584 146.339C142.584 145.385 141.838 145.272 138.04 145.655C134.83 145.979 132.602 145.863 132.288 145.355C132.016 144.915 132.305 144.811 134.459 144.569C136.55 144.335 137.78 143.803 137.78 143.135C137.78 142.287 137.362 141.851 135.811 141.076C134.04 140.192 132.708 139.096 132.708 138.521C132.708 137.932 131.668 136.05 130.132 133.861C129.34 132.733 128.503 131.358 128.273 130.807C127.882 129.873 127.886 129.78 128.33 129.456C129.099 128.893 132.833 129.022 134.577 129.67C135.384 129.97 136.364 130.278 136.755 130.355C138.127 130.625 138.152 130.397 138.344 116.162C138.552 100.669 138.704 99.5074 140.575 99.1498C143.204 98.6475 144.59 102.138 144.892 110.023C145.064 114.488 145.349 115.989 145.627 113.883C145.714 113.228 145.91 109.87 146.064 106.42C146.673 92.7935 147.119 90.8593 149.787 90.2734C151.395 89.92 152.175 90.9906 152.881 94.5193C153.124 95.734 153.353 99.8032 153.52 105.886C153.791 115.717 153.979 118.698 154.328 118.698C154.737 118.698 154.864 117.385 155.012 111.625C155.24 102.746 155.755 100.216 157.479 99.5021C158.743 98.9782 160.136 99.5307 160.65 100.76C161.236 102.164 161.515 108.285 161.525 119.966C161.53 125.581 161.609 130.175 161.701 130.175C161.793 130.175 162.724 129.706 163.77 129.132C167.609 127.027 173.545 125.953 173.545 127.363C173.545 127.559 173.105 128.361 172.567 129.147C170.187 132.624 169.852 133.209 169.556 134.392C168.748 137.623 168.739 137.642 167.667 138.318C166.133 139.287 165.657 140.117 166.067 141.107C166.725 142.695 169.562 142.735 171.206 141.181C171.783 140.636 172.219 140.485 173.267 140.47C175.195 140.441 175.717 141.049 175.927 143.569C176.109 145.747 176.29 146.189 176.998 146.189C177.896 146.189 178.091 144.975 178.018 139.862C177.957 135.596 178.003 134.948 178.4 134.549C178.825 134.122 178.875 134.149 179.255 135.004C179.478 135.504 179.844 136.589 180.07 137.416C181.081 141.118 182.893 140.784 182.882 136.896C182.877 134.888 182.275 132.412 181.581 131.543C180.068 129.647 179.953 128.94 180.335 123.887C180.564 120.861 180.364 119.765 179.582 119.765C178.794 119.765 178.317 120.788 178.1 122.938C177.98 124.128 177.732 125.282 177.549 125.502C177.126 126.013 176.109 126.021 175.691 125.518C175.515 125.305 174.81 124.915 174.124 124.65C172.537 124.038 168.144 124.033 166.266 124.642C165.013 125.048 164.751 124.995 164.167 124.217C164.147 124.191 164.042 119.125 163.933 112.959C163.808 105.89 163.623 101.392 163.432 100.781C163.029 99.4976 161.982 98.4791 160.234 97.672C159.053 97.1267 158.529 97.0349 157.257 97.1502C156.308 97.2364 155.601 97.1776 155.421 96.9975C155.26 96.8365 155.128 96.1343 155.128 95.4369C155.128 91.136 152.77 87.7901 149.583 87.5705C148.89 87.5227 148.142 87.5555 147.922 87.6436ZM211.712 92.1658C211.712 92.5722 213.335 95.1377 213.969 95.7332C214.806 96.5197 215.432 96.1778 214.917 95.2154C214.243 93.9551 211.712 91.5471 211.712 92.1658ZM216.694 94.3207C216.389 94.625 216.499 99.6855 216.826 100.402C217.049 100.894 217.341 101.082 217.878 101.082C219.84 101.082 219.995 97.9228 218.17 95.1436C217.543 94.1886 217.082 93.9318 216.694 94.3207ZM208.509 94.5537C208.509 95.3787 210.731 98.4131 211.335 98.4131C212.094 98.4131 211.678 97.3517 210.35 95.8992C209.142 94.5767 208.509 94.1144 208.509 94.5537ZM193.295 98.4238C193.295 99.2229 195.998 103.191 196.698 103.42C197.313 103.621 197.043 102.537 196.079 100.933C195.555 100.061 194.873 99.0769 194.564 98.7468C193.979 98.1201 193.295 97.9463 193.295 98.4238ZM201.39 98.837C201.09 99.6171 201.504 104.39 201.972 105.553C202.532 106.946 203.252 107.07 203.678 105.847C204.322 104.001 203.819 100.509 202.723 99.2061C201.972 98.3136 201.627 98.218 201.39 98.837ZM207.708 99.5619C207.708 100.066 209.11 102.163 210.008 103.003C210.9 103.837 212.474 104.552 213.418 104.552C214.146 104.552 215.181 103.442 215.181 102.663C215.181 101.616 214.072 100.842 212.149 100.545C211.141 100.389 209.855 100.026 209.29 99.7378C208.089 99.125 207.708 99.0825 207.708 99.5619ZM221.796 101.816C221.012 102.716 220.71 103.604 220.71 105.015C220.71 106.615 221.469 107.755 222.535 107.755C223.52 107.755 223.844 107.058 223.826 104.983C223.801 102.146 222.83 100.631 221.796 101.816ZM74.719 103.718C73.3739 105.207 72.5312 106.784 71.7588 109.261C70.6792 112.721 70.1643 116.939 70.3293 120.966C70.5092 125.349 71.2066 128.84 71.9021 128.84C72.3714 128.84 73.23 126.402 74.3961 121.759C76.451 113.576 77.3627 106.537 76.759 103.518C76.5308 102.377 75.8723 102.441 74.719 103.718ZM192.228 103.046C192.228 104.037 196.152 108.396 197.674 109.096C199.226 109.809 199.956 109.402 199.964 107.821C199.969 106.654 199.312 106.067 197.223 105.372C196.265 105.053 194.804 104.318 193.976 103.738C192.297 102.562 192.228 102.534 192.228 103.046ZM217.139 105.773C216.722 106.86 218.418 109.89 219.443 109.89C220.783 109.89 220.855 107.479 219.557 106.123C218.731 105.262 217.408 105.07 217.139 105.773ZM205.053 106.887C204.697 108.169 204.727 109.739 205.134 111.089C205.8 113.299 207.271 112.102 207.246 109.371C207.218 106.436 205.666 104.679 205.053 106.887ZM187.802 106.528C187.52 107.244 188.138 112.152 188.63 113.103C188.855 113.538 189.222 113.893 189.446 113.893C189.903 113.893 190.626 112.374 190.626 111.415C190.626 110.164 189.814 108.097 188.918 107.07C188.097 106.128 187.982 106.072 187.802 106.528ZM224.96 107.926C224.866 108.606 224.79 109.695 224.79 110.345C224.79 112.323 224.493 112.612 222.674 112.407C220.857 112.201 220.609 112.413 221.061 113.783C221.233 114.304 221.302 114.801 221.215 114.889C221.128 114.976 220.093 114.595 218.916 114.042C217.739 113.49 216.598 113.107 216.379 113.19C215.856 113.391 215.852 115.271 216.373 116.277C216.588 116.693 217.154 117.361 217.63 117.762C218.396 118.407 218.65 118.474 219.803 118.337C221.538 118.132 223.176 117.137 225.549 114.85C228.475 112.029 228.805 111.103 227.555 109.218C226.757 108.013 225.58 106.687 225.31 106.687C225.21 106.687 225.053 107.244 224.96 107.926ZM213.536 107.79C213.145 107.934 212.753 108.238 212.666 108.467C212.3 109.42 214.846 112.025 216.143 112.025C217.392 112.025 217.635 110.93 216.739 109.335C216.278 108.516 214.815 107.401 214.34 107.509C214.289 107.52 213.927 107.647 213.536 107.79ZM180.752 108.355C180.754 109.684 182.25 111.237 182.749 110.429C183.033 109.971 181.56 107.755 180.971 107.755C180.85 107.755 180.751 108.025 180.752 108.355ZM59.9671 109.468C59.6297 109.983 59.5459 110.606 59.6172 112.074L59.7106 114.003L58.5901 114.228C57.8038 114.386 57.4168 114.62 57.2922 115.013C57.104 115.605 57.9191 118.427 58.375 118.76C58.8535 119.111 60.8321 118.982 61.1668 118.578C61.3835 118.317 61.4286 117.722 61.3061 116.742C61.1035 115.12 61.3478 114.451 62.5574 113.319C63.5089 112.429 63.5636 111.142 62.7047 109.863C61.8944 108.656 60.6196 108.472 59.9671 109.468ZM198.42 111.278C197.868 111.829 198.065 112.519 199.1 113.668C201.326 116.139 203.971 116.235 203.971 113.845C203.971 112.166 199.568 110.129 198.42 111.278ZM178.624 111.914C179.441 114.062 181.758 116.792 183.237 117.348C184.829 117.946 186.89 117.331 186.89 116.257C186.89 115.409 185.05 113.73 183.747 113.389C183.127 113.226 182.144 112.969 181.564 112.819C180.983 112.668 180.155 112.248 179.724 111.885C178.682 111.008 178.284 111.019 178.624 111.914ZM208.618 112.692C208.038 113.576 208.182 116.884 208.829 117.53C209.499 118.201 210.571 117.801 211.105 116.681C211.491 115.871 211.506 115.577 211.214 114.486C210.867 113.186 210.012 112.025 209.403 112.025C209.211 112.025 208.858 112.325 208.618 112.692ZM110.341 116.496C110.439 119.478 110.568 120.403 111.028 121.433C111.905 123.4 112.372 123.148 113.502 120.099C114.226 118.145 114.918 119.465 116.044 124.95C116.404 126.7 116.739 128.173 116.789 128.223C116.839 128.273 116.956 127.074 117.048 125.558C117.234 122.529 116.972 120.28 116.275 118.918C115.788 117.968 110.89 112.826 110.471 112.826C110.321 112.826 110.269 114.295 110.341 116.496ZM193.991 114.049C193.902 114.281 193.829 115.709 193.829 117.222C193.829 119.48 193.916 120.08 194.313 120.57C195.355 121.858 197.029 120.162 197.031 117.817C197.032 116.306 196.561 115.286 195.42 114.326C194.457 113.515 194.214 113.468 193.991 114.049ZM228.821 113.993C228.641 114.21 228.398 115.342 228.28 116.508C228.163 117.674 227.978 118.773 227.869 118.949C227.74 119.157 227.327 119.211 226.685 119.103C225.34 118.876 224.649 119.598 224.876 120.993C225.355 123.946 228.238 123.508 230.564 120.131C231.372 118.957 231.582 118.389 231.661 117.155C231.791 115.116 231.149 113.794 229.972 113.68C229.485 113.632 229.014 113.761 228.821 113.993ZM79.0912 115.171C78.9412 115.452 77.6787 119.032 76.2855 123.128C73.7454 130.596 72.6343 133.461 72.1656 133.751C72.0273 133.836 71.7652 133.118 71.5835 132.154C71.2189 130.222 71.0339 130.217 70.5207 132.124C70.3186 132.875 70.0771 133.308 69.9377 133.169C69.8067 133.038 69.5897 129.818 69.4549 126.014C69.1472 117.319 68.785 115.228 67.5861 115.228C66.9359 115.228 65.9139 116.953 65.303 119.082C64.5725 121.626 64.8898 126.417 66.0845 130.889C66.6015 132.824 67.2103 135.74 67.4377 137.371C67.8847 140.576 67.9918 147.422 67.6045 148.033C67.2623 148.574 66.8331 146.893 66.5198 143.787C66.3391 141.99 66.1596 140.194 65.9812 138.398C65.8253 136.828 65.4666 134.872 65.184 134.05C64.6624 132.534 63.7216 130.975 63.3284 130.975C62.9804 130.975 62.0545 133.372 61.6987 135.195C61.0013 138.766 61.8426 142.481 64.7855 148.826C67.0269 153.658 67.8567 156.527 67.833 159.364C67.8207 160.836 67.7403 161.364 67.5834 161.002C67.4561 160.708 66.6725 158.726 65.8419 156.598C62.891 149.035 60.839 146.136 59.543 147.698C58.9961 148.357 59.0836 152.116 59.6879 153.929C60.7352 157.071 62.4108 159.855 65.7124 163.938C67.2196 165.802 69.4576 170.487 70.8762 174.747C72.3666 179.224 72.437 179.659 71.6897 179.766C70.8652 179.883 69.6119 177.856 65.9468 170.477C64.2332 167.027 62.642 163.964 62.4103 163.671C61.6432 162.698 61.4105 163.637 61.518 167.274C61.604 170.19 61.7121 170.846 62.3753 172.479C64.092 176.705 67.2108 180.753 69.9356 182.29C71.6972 183.285 72.7661 184.323 74.647 186.866C77.972 191.362 80.8002 197.434 79.5692 197.434C78.8779 197.434 77.5076 196.063 73.8868 191.749C69.7555 186.826 65.3137 181.878 64.8944 181.729C64.7529 181.679 64.8671 182.22 65.1485 182.931C65.43 183.641 66.346 185.964 67.1846 188.092C70.0808 195.444 72.1725 198.647 74.8533 199.832C75.4802 200.11 77.0737 200.573 78.3946 200.863C82.1566 201.687 83.7305 202.408 86.6408 204.642C87.848 205.569 88.8243 205.681 89.0656 204.921C89.1598 204.624 88.9295 203.646 88.5305 202.649C87.3937 199.808 87.3134 199.374 87.07 194.765C86.7307 188.343 85.203 181.101 83.3037 176.912C82.0338 174.111 81.8616 174.761 81.8747 182.302C81.8856 188.827 82.2038 192.449 82.9618 194.681C83.1831 195.333 83.3173 196.069 83.2599 196.316C83.1118 196.957 81.0847 194.784 79.7881 192.596C76.8257 187.595 76.649 182.349 79.2089 175.399C83.1369 164.735 83.8821 161.631 83.3453 158.172C83.0125 156.027 82.3421 154.196 81.8897 154.196C81.7156 154.196 81.4348 154.857 81.2654 155.664C81.0959 156.472 80.4564 158.243 79.8444 159.601C78.3425 162.931 77.1535 166.615 75.4722 173.146L74.0638 178.617L73.6931 177.016C73.4894 176.135 73.3274 174.213 73.333 172.746C73.345 169.633 73.5164 169.067 76.4937 162.293C79.2916 155.927 80.3955 152.647 80.3955 150.7C80.3955 148.745 80.0707 148.675 78.3527 150.259C75.2507 153.118 72.7939 158.411 72.2515 163.404C72.1557 164.285 71.9281 165.366 71.7452 165.806L71.4129 166.607L71.0534 165.939C70.5567 165.018 70.3947 161.557 70.7649 159.775C71.1415 157.96 72.2649 155.542 73.7422 153.367C76.6786 149.043 80.3955 138.478 80.3955 134.455C80.3955 132.448 79.9567 132.245 78.6793 133.659C77.2295 135.264 75.018 140.141 73.0707 146.03C71.4087 151.055 70.5049 153.128 69.9767 153.128C69.5798 153.128 69.3829 151.336 69.5726 149.453C70.0352 144.872 71.303 141.319 74.4148 135.881C77.9827 129.646 79.9578 124.093 80.2797 119.391C80.5111 116.011 79.8665 113.723 79.0912 115.171ZM95.3421 116.746C92.8759 116.871 89.9045 117.388 89.2538 117.803C88.8537 118.059 88.666 118.403 88.72 118.781C88.8614 119.776 90.4396 120.105 94.2745 119.941C97.5584 119.8 98.6338 119.614 100.88 118.798C102.166 118.332 102.431 117.504 101.414 117.129C100.675 116.856 97.3228 116.644 95.3421 116.746ZM201.89 116.883C200.883 117.889 202.443 119.728 204.912 120.446C206.651 120.951 207.794 120.712 207.926 119.815C208.162 118.216 203.043 115.73 201.89 116.883ZM211.974 117.638C211.203 119.079 211.454 122.467 212.389 123.243C212.971 123.726 213.978 123.205 214.531 122.134C215.39 120.473 214.297 117.096 212.9 117.096C212.534 117.096 212.141 117.326 211.974 117.638ZM189.711 119.117C189.174 119.655 189.172 121.077 189.708 121.843C190.581 123.088 193.372 123.773 193.734 122.83C193.99 122.164 193.31 120.915 192.071 119.772C190.801 118.602 190.351 118.477 189.711 119.117ZM219.331 120.528C219.063 121.37 219.884 122.827 221.385 124.177C222.819 125.466 223.818 125.874 224.498 125.449C225.13 125.053 225.156 123.509 224.546 122.522C223.902 121.48 221.94 120.296 220.547 120.109C219.661 119.99 219.481 120.052 219.331 120.528ZM197.912 121.3C197.796 121.851 197.7 123.162 197.7 124.214C197.699 125.873 197.785 126.22 198.346 126.817C200.122 128.707 202.347 126.389 201.56 123.467C201.205 122.148 199.522 120.299 198.677 120.299C198.253 120.299 198.074 120.533 197.912 121.3ZM184.224 121.497C183.695 122.133 184.126 123.106 185.451 124.273C186.785 125.447 188.241 125.91 188.894 125.368C189.415 124.936 189.404 123.247 188.875 122.492C188.646 122.165 188.112 121.718 187.687 121.499C186.681 120.978 184.655 120.977 184.224 121.497ZM103.388 122.901C102.909 124.1 102.595 125.853 102.274 129.107C101.907 132.824 101.379 135.462 100.691 137.018C99.8404 138.941 99.2365 138.453 98.8033 135.494C98.1147 130.793 97.9574 130.009 97.5881 129.441C96.6221 127.953 95.8908 129.317 95.8492 132.683C95.8121 135.698 95.6498 136.161 94.5921 136.264C93.2464 136.395 90.9179 135.607 90.2893 134.808C89.5914 133.921 89.3504 132.997 88.6949 128.695C88.4034 126.781 88.0399 124.886 87.8872 124.485C87.619 123.779 86.9306 123.284 86.6325 123.582C86.2434 123.971 85.9612 126.458 85.7365 131.475C85.468 137.473 85.188 138.939 83.8738 141.236C83.4073 142.052 83.1457 142.719 83.2925 142.719C83.4393 142.719 84.9137 141.525 86.569 140.066C88.2241 138.607 89.8522 137.267 90.1869 137.088C90.9924 136.657 92.29 137.238 95.3394 139.395C96.5941 140.283 97.7722 141.103 97.9575 141.218C98.1766 141.353 99.0149 140.779 100.355 139.577C103.518 136.737 103.81 136.65 105.484 138.048C107.571 139.792 108.166 138.995 106.753 136.35C105.522 134.046 105.215 132.522 104.969 127.498C104.73 122.631 104.159 120.97 103.388 122.901ZM206.107 123.903C208.046 125.859 209.68 126.687 210.615 126.187C210.977 125.992 211.178 125.625 211.178 125.153C211.178 123.35 209.256 122.167 206.325 122.167H204.387L206.107 123.903ZM231.329 122.914C228.306 124.582 224.79 127.429 224.79 128.207C224.79 128.707 225.378 128.787 226.282 128.411C227.817 127.772 229.608 128.734 230.456 130.651C230.888 131.628 230.951 132.164 230.806 133.611C230.467 136.978 229.57 141.806 228.391 146.606C227.214 151.395 226.623 153.22 226.155 153.51C225.76 153.754 225.359 151.44 224.947 146.537C224.667 143.205 224.416 141.621 224.033 140.755C223.472 139.486 222.701 138.879 221.995 139.15C220.868 139.582 219.781 143.708 220.106 146.315C220.296 147.829 220.705 148.411 221.483 148.273C222.094 148.165 222.518 149.581 222.916 153.056C224.425 166.245 229.056 183.91 230.601 182.371C230.708 182.265 230.872 179.275 230.967 175.727C231.154 168.698 231.338 167.498 233.208 161.135C235.07 154.797 235.488 153.25 236.128 150.326C237.069 146.028 237.391 142.157 237.176 137.729C237.073 135.623 236.948 133.942 236.897 133.992C236.846 134.043 236.378 136.298 235.856 139.002C234.083 148.191 229.458 164.349 228.73 163.898C228.052 163.48 228.924 155.633 230.535 147.657C232.236 139.237 232.353 138.222 232.383 131.643C232.41 125.819 232.443 125.438 233.026 124.216C233.644 122.92 233.637 122.163 233.005 122.172C232.817 122.175 232.063 122.509 231.329 122.914ZM215.799 122.644C215.289 122.968 214.914 124.237 214.914 125.637C214.914 126.352 214.791 127.261 214.641 127.657C214.379 128.346 214.313 128.368 213.106 128.165C212.412 128.048 211.305 127.942 210.644 127.929C209.592 127.909 209.432 127.981 209.358 128.508C209.302 128.899 209.553 129.391 210.071 129.91C210.75 130.588 211.075 130.708 212.233 130.708C213.946 130.708 215.079 130.24 216.527 128.933C217.812 127.773 218.384 126.633 218.384 125.232C218.384 123.265 217.001 121.88 215.799 122.644ZM29.684 124.836C29.3904 125.13 29.1502 125.713 29.1502 126.131C29.1502 127.147 28.6685 128.474 27.8803 129.629C26.1748 132.128 29.0419 135.469 30.8288 133.064C31.2991 132.432 31.3247 132.214 31.0564 131.148C30.6852 129.674 30.8731 129.107 31.732 129.107C32.7916 129.107 33.4212 128.63 33.4167 127.83C33.4119 126.9 32.6728 124.769 32.2658 124.51C31.6511 124.119 30.2205 124.3 29.684 124.836ZM194.075 125.704C194.063 125.741 193.913 126.311 193.741 126.972C193.443 128.118 193.386 128.171 192.495 128.137C191.981 128.117 190.886 128.012 190.062 127.903C189.028 127.767 188.505 127.8 188.374 128.012C188.151 128.374 189.238 131.82 189.665 132.106C190.123 132.411 192.395 132.344 193.144 132.002C193.515 131.833 193.897 131.443 193.994 131.135C194.215 130.425 194.584 130.184 195.456 130.179C196.871 130.17 197.457 128.567 196.629 126.966C196.183 126.104 195.487 125.637 194.647 125.637C194.344 125.637 194.086 125.667 194.075 125.704ZM201.862 129.147C201.701 129.609 201.568 130.36 201.566 130.815C201.558 132.645 201.372 132.86 199.869 132.782C198.536 132.712 198.498 132.731 198.411 133.486C198.268 134.743 198.607 135.974 199.335 136.839C200.484 138.205 201.836 137.732 201.836 135.963C201.836 135.319 202.51 134.496 202.799 134.786C203.157 135.143 204.615 134.289 205.329 133.303C206.584 131.571 206.249 130 204.379 128.845C203.059 128.029 202.217 128.13 201.862 129.147ZM112.508 129.105C111.776 129.405 111.356 130.172 111.356 131.209C111.356 132.424 111.753 132.427 112.71 131.217L113.578 130.122L113.926 130.749C115.045 132.768 113.402 136.478 111.636 135.917C111.211 135.782 111.031 135.9 110.823 136.446C110.467 137.38 110.467 145.922 110.822 145.922C110.969 145.922 111.089 145.86 111.089 145.785C111.089 145.446 111.927 140.4 112.052 139.983C112.285 139.212 112.607 139.443 113.334 140.903C114.106 142.451 114.202 143.894 113.639 145.472C113.167 146.796 112.491 147.523 111.734 147.523C110.991 147.523 110.232 148.234 110.346 148.823C110.506 149.658 112.364 149.987 117.695 150.127C120.521 150.201 122.833 150.168 122.833 150.055C122.833 149.942 121.752 148.41 120.431 146.65C118.907 144.62 118.029 143.208 118.029 142.787C118.029 142.352 118.536 141.576 119.497 140.538C121.513 138.36 121.482 138.096 118.807 134.684C116.527 131.775 115.739 130.505 116.033 130.216C116.132 130.12 116.55 130.443 116.962 130.935C117.841 131.984 118.422 131.925 119.332 130.693C120.465 129.161 120.169 128.98 116.424 128.92C114.591 128.89 112.829 128.973 112.508 129.105ZM167.317 129.018C166.989 129.346 167.134 130.639 167.536 130.972C167.762 131.16 168.219 131.23 168.599 131.134C169.381 130.938 169.771 129.839 169.271 129.237C168.938 128.835 167.644 128.691 167.317 129.018ZM173.995 130.909C170.5 136.398 170.368 136.835 172.317 136.469C173.666 136.216 175.425 134.778 176.274 133.234C177.411 131.166 177.175 129.107 175.802 129.107C175.279 129.107 174.905 129.48 173.995 130.909ZM215.159 133.029C213.653 134.175 212.371 135.263 212.311 135.446C212.229 135.693 212.722 135.78 214.21 135.78C215.951 135.78 216.319 135.866 216.968 136.425C217.693 137.05 217.716 137.149 217.692 139.561C217.645 144.328 214.564 156.156 213.446 155.86C213.3 155.821 213.206 155.22 213.239 154.525C213.272 153.83 213.331 151.22 213.37 148.724C213.436 144.585 213.39 144.047 212.846 142.586C212.039 140.412 210.866 139.397 209.884 140.019C209.595 140.202 209.581 140.531 209.811 141.683C210.325 144.252 210.654 150.139 210.824 159.815L210.991 169.305L209.55 170.035C207.786 170.927 201.436 175.983 201.436 176.494C201.436 176.698 203.147 178.962 205.239 181.527C207.331 184.092 209.043 186.258 209.043 186.341C209.043 186.423 207.992 186.493 206.707 186.495C202.68 186.501 202.509 186.712 204.333 189.43C206.186 192.193 206.202 192.929 204.42 193.311C201.226 193.996 203.847 194.223 217.074 194.408L229.242 194.579L229.564 196.998C229.741 198.328 229.94 199.471 230.007 199.537C230.299 199.829 230.397 199.231 230.452 196.813C230.532 193.344 230.517 193.33 226.517 193.203C224.058 193.125 223.455 193.029 223.455 192.717C223.455 192.503 224.067 191.327 224.815 190.104C225.562 188.881 226.132 187.662 226.081 187.397C225.958 186.758 225.104 186.55 222.47 186.518C221.268 186.503 220.219 186.385 220.139 186.256C220.058 186.126 220.231 185.717 220.523 185.346C221.247 184.425 221.185 183.389 220.317 181.899C219.694 180.83 215.968 176.218 212.719 172.496L211.803 171.446L214.607 166.418C216.149 163.653 217.491 161.483 217.589 161.596C217.687 161.71 218.116 162.643 218.542 163.671C219.303 165.503 221.369 168.075 222.08 168.075C222.63 168.075 222.759 167.249 222.41 165.965C222.227 165.29 221.971 163.632 221.84 162.28C221.502 158.777 220.605 156.865 219.3 156.865C218.893 156.865 218.176 157.449 217.091 158.662C216.207 159.651 215.403 160.379 215.304 160.279C215.205 160.18 215.674 158.14 216.346 155.746C217.803 150.557 218.532 145.793 218.949 138.731C219.278 133.171 219.118 131.18 218.333 131.029C218.094 130.983 216.665 131.883 215.159 133.029ZM131.65 131.758C130.944 133.077 131.796 134.445 133.322 134.445C134.943 134.445 135.298 133.425 134.153 132.063C133.333 131.089 132.089 130.938 131.65 131.758ZM192.028 134.346C191.574 134.541 191.607 135.904 192.087 136.833C192.571 137.769 194.532 139.481 195.357 139.688C196.719 140.03 198.366 139.015 198.366 137.834C198.366 136.593 195.61 134.697 193.295 134.345C192.782 134.267 192.211 134.268 192.028 134.346ZM245.7 135.13C245.146 135.684 245.047 135.978 245.181 136.665C245.388 137.721 246.108 138.725 247.035 139.249C247.665 139.605 247.822 139.605 248.452 139.249C248.841 139.029 249.407 138.516 249.71 138.108C250.258 137.369 250.258 137.365 249.737 136.396C249.156 135.317 247.934 134.447 246.997 134.446C246.66 134.446 246.076 134.753 245.7 135.13ZM114.579 135.415C113.307 137.032 114.065 140.36 115.876 141.11C116.899 141.534 117.498 141.311 118.229 140.234C119.055 139.018 119.026 137.484 118.156 136.304C116.905 134.609 115.489 134.257 114.579 135.415ZM201.638 139.057C199.406 140.411 197.576 141.591 197.572 141.68C197.569 141.769 198.526 141.922 199.7 142.019C202.148 142.224 203.113 142.524 203.355 143.157C203.449 143.402 203.255 144.805 202.923 146.276C202.268 149.185 198.942 159.664 198.739 159.461C198.67 159.393 198.428 157.735 198.201 155.779C197.465 149.436 196.308 145.928 194.032 143.145C193.421 142.397 192.885 141.735 192.841 141.674C192.797 141.612 192.699 141.625 192.622 141.702C192.546 141.778 192.662 142.609 192.882 143.548C193.101 144.486 193.587 147.717 193.961 150.726C196.072 167.694 196.641 170.994 197.952 173.858C199.115 176.398 200.011 175.413 201.876 169.543C204.202 162.223 204.982 161.618 206.143 166.239C207.201 170.451 208.112 171.102 208.591 167.99C208.932 165.777 207.745 159.037 206.859 158.151C205.817 157.109 204.212 158.338 202.718 161.322C201.627 163.498 200.743 164.488 200.106 164.243C199.731 164.099 199.726 163.996 200.064 163.342C201.898 159.792 206.779 137.68 205.919 136.82C205.796 136.697 203.87 137.704 201.638 139.057ZM172.077 142.075C170.432 143.749 169.808 144.094 168.792 143.89C168.35 143.802 167.31 143.932 166.447 144.183C164.751 144.676 159.776 146.922 159.964 147.11C160.028 147.174 161.156 147.36 162.471 147.523C164.936 147.83 166.086 148.213 166.273 148.789C166.427 149.261 165.313 149.618 162.788 149.905C160.109 150.209 158.661 150.809 156.663 152.439C155.13 153.69 154.714 154.474 155.595 154.45C155.852 154.443 157.419 154.042 159.076 153.558C160.733 153.075 161.994 152.761 161.878 152.86C161.762 152.958 160.346 154.05 158.731 155.284C155.12 158.046 151.702 161.269 151.49 162.113C151.254 163.054 151.855 163.619 152.909 163.448C154.2 163.238 156.223 161.785 159.634 158.618C162.494 155.961 163.372 155.328 163.057 156.15C162.561 157.441 161.534 160.983 161.534 161.4C161.534 162.064 161.945 162.292 162.77 162.085C163.706 161.849 164.351 160.249 164.848 156.926C165.366 153.463 166.024 151.944 167.719 150.301L169.07 148.991L168.902 150.326C168.448 153.929 168.42 154.666 168.717 155.219C168.887 155.537 169.214 155.797 169.443 155.797C170.189 155.797 171.391 154.186 171.918 152.48C172.696 149.96 173.581 144.289 173.491 142.396L173.411 140.717L172.077 142.075ZM102.521 143.855C101.325 144.651 100.413 146.485 100.413 148.098C100.413 149.829 100.852 149.956 101.497 148.41C102.811 145.263 103.123 144.957 104.884 145.094C105.926 145.176 105.993 144.804 105.096 143.908C104.283 143.095 103.684 143.083 102.521 143.855ZM90.1255 145.243C89.5031 145.865 89.4702 146.057 89.4702 149.075C89.4702 152.583 89.6867 154.73 90.0403 154.73C90.1671 154.73 90.2763 153.799 90.2827 152.661C90.3011 149.42 90.6836 146.765 91.2171 146.176C92.0018 145.308 94.5208 145.687 95.0941 146.758C95.4672 147.455 95.8353 147.164 95.6706 146.303C95.4702 145.254 94.1746 144.589 92.3274 144.588C91.0401 144.588 90.6705 144.697 90.1255 145.243ZM115.151 145.242C114.558 145.995 113.862 148.249 114.137 148.524C114.239 148.626 115.215 148.709 116.307 148.709C119.481 148.709 119.89 147.768 117.624 145.679C116.251 144.413 115.857 144.344 115.151 145.242ZM181.115 145.9C179.202 147.067 177.815 149.918 177.815 152.682C177.815 155.012 178.371 156.695 180.509 160.829C183.443 166.502 183.16 166.541 177.519 161.241C175.432 159.281 173.703 158.125 172.405 157.824C171.825 157.69 171.514 157.803 170.969 158.349C170.325 158.993 170.283 159.177 170.401 160.824C170.562 163.056 171.455 164.888 173.14 166.441C174.872 168.038 176.723 168.81 179.876 169.253C183.075 169.701 184.221 170.205 184.221 171.16C184.221 172.604 186.613 176.082 187.606 176.082C187.819 176.082 188.375 175.795 188.843 175.445C189.31 175.095 190.195 174.556 190.809 174.248C193.377 172.958 193.438 170.832 190.987 167.96C189.956 166.751 189.887 166.202 190.618 165.019C191.409 163.739 191.953 161.022 191.957 158.326C191.961 155.662 191.661 154.913 190.471 154.615C188.871 154.213 188.117 155.609 186.878 161.269C186.236 164.203 185.718 165.673 185.328 165.673C184.579 165.673 184.243 162.161 184.767 159.801C185.194 157.878 185.593 157.104 186.294 156.838C187.019 156.562 187.012 156.319 186.217 154.196C185.889 153.32 185.808 152.541 185.919 151.317C186.044 149.938 185.989 149.571 185.613 149.249C184.151 148 183.954 147.737 183.954 147.031C183.954 146.177 183.237 145.387 182.465 145.389C182.183 145.39 181.576 145.619 181.115 145.9ZM251.092 146.168C250.851 146.558 253.017 148.164 255.376 149.343C260.358 151.834 267.673 154.463 269.625 154.463C270.566 154.463 270.697 154.388 270.697 153.848C270.697 153.109 269.375 151.79 267.895 151.052C266.394 150.303 260.204 148.265 255.571 146.995C251.247 145.809 251.307 145.82 251.092 146.168ZM109.649 152.751C109.394 153.417 109.462 159.219 109.727 159.383C110.153 159.646 110.289 158.747 110.289 155.658C110.289 152.854 110.041 151.73 109.649 152.751ZM100.326 154.675C100.37 155.513 100.488 158.48 100.59 161.269C100.796 166.896 100.981 166.653 101.453 160.14C101.838 154.824 101.963 154.646 105.71 154.056C107.57 153.763 106.654 153.475 103.333 153.308L100.247 153.153L100.326 154.675ZM26.676 154.624C26.569 154.731 26.4812 154.913 26.4812 155.03C26.4812 155.395 28.6853 156.525 30.2779 156.976C32.2458 157.534 36.6441 158.197 38.3584 158.194C41.1387 158.188 41.0036 157.088 38.1061 156.137C35.4566 155.268 27.134 154.166 26.676 154.624ZM124.568 155.712C121.637 156.368 119.577 157.671 118.815 159.35C118.39 160.285 118.306 161.114 118.302 164.421C118.295 168.659 118.64 169.46 118.948 165.924C119.302 161.873 120.266 159.375 121.778 158.593C122.822 158.053 123.34 158.095 125.003 158.853C125.791 159.212 127.26 159.637 128.268 159.797C130.112 160.09 133.462 159.901 133.059 159.527C132.94 159.416 131.827 159.124 130.586 158.877C127.942 158.351 126.462 157.788 126.702 157.4C126.796 157.248 127.345 156.883 127.922 156.589C128.5 156.294 128.972 155.935 128.972 155.792C128.972 155.534 125.633 155.473 124.568 155.712ZM104.356 158.133C103.744 158.83 103.552 159.7 103.751 160.88C103.97 162.174 104.291 162.221 104.787 161.031C104.995 160.534 105.595 159.651 106.121 159.069C106.646 158.488 106.998 157.934 106.903 157.839C106.534 157.47 104.758 157.675 104.356 158.133ZM255.107 162.27C255.842 165.695 255.58 167.104 253.738 169.649C252.919 170.78 252.872 172.525 253.616 174.164C254.097 175.224 260.08 181.687 260.581 181.687C260.694 181.687 260.37 180.456 259.862 178.951C258.662 175.402 258.638 174.346 259.72 172.712C260.868 170.981 260.89 168.918 259.788 166.587C259.087 165.106 255.453 160.601 254.959 160.601C254.843 160.601 254.91 161.352 255.107 162.27ZM122.815 163.986C122.402 165.073 122.603 167.674 123.1 167.674C123.654 167.674 124.575 164.936 124.339 163.992C124.095 163.02 123.183 163.016 122.815 163.986ZM242.527 163.926C241.682 164.77 241.699 165.63 242.593 167.232L243.315 168.524L242.46 169.686C241.989 170.326 241.605 170.996 241.605 171.176C241.605 171.356 241.916 171.873 242.296 172.325C242.807 172.932 243.213 173.146 243.856 173.146C245.458 173.146 246.035 171.817 245.558 169.222C245.226 167.414 245.466 166.74 246.441 166.74C247.528 166.74 246.511 164.775 244.913 163.787C243.812 163.107 243.317 163.135 242.527 163.926ZM132.886 163.982C132.626 164.243 132.677 166.811 132.951 167.243C133.488 168.091 134.074 165.425 133.614 164.226C133.442 163.778 133.179 163.69 132.886 163.982ZM104.039 164.847C103.468 165.478 103.566 166.972 104.205 167.372C104.826 167.761 106.018 166.649 106.018 165.68C106.018 164.375 104.894 163.902 104.039 164.847ZM110.739 164.816C110.038 165.591 110.19 167.808 110.944 167.808C111.396 167.808 112.225 165.897 112.114 165.113C112 164.311 111.327 164.166 110.739 164.816ZM87.7687 165.102C85.7856 167.293 87.2269 172.084 92.1678 179.724C94.622 183.519 96.8028 187.661 97.3655 189.595C97.7618 190.959 97.9398 193.858 97.6449 194.152C97.1004 194.697 95.9901 192.514 94.9695 188.893C93.6486 184.207 90.3142 178.428 89.1518 178.811C88.3885 179.063 88.1106 180.193 88.2022 182.673C88.2884 185.01 88.3583 185.26 89.6605 187.878C91.2558 191.085 92.9085 193.354 95.6028 196.038L97.5392 197.967L97.0695 198.701C96.8111 199.105 95.7704 200.248 94.757 201.241C92.7342 203.222 91.3399 205.697 91.3377 207.309C91.3356 208.873 90.5223 209.858 88.6764 210.531C87.7818 210.857 87.0932 211.257 87.1463 211.419C87.1992 211.581 87.8338 211.865 88.5566 212.051C91.7098 212.861 93.4898 211.577 95.7472 206.864C96.5437 205.201 97.2539 203.84 97.3252 203.84C97.3964 203.84 97.705 204.68 98.0111 205.708C98.5639 207.564 99.0897 208.066 99.4783 207.109C99.9603 205.923 100.188 204.88 100.407 202.862C100.72 199.966 101.717 197.87 105.327 192.517C108.52 187.783 109.688 185.626 110.719 182.563C111.934 178.949 111.608 176.082 109.981 176.082C109.239 176.082 107.505 177.785 106.294 179.703C104.116 183.151 102.917 186.636 102.536 190.625C102.248 193.647 101.704 195.547 100.928 196.251C99.0403 197.958 99.0277 192.092 100.907 186.358C101.196 185.477 101.878 183.555 102.423 182.087C104.25 177.168 103.969 173.013 101.569 169.479C100.495 167.897 99.2453 167.005 98.1131 167.011C97.1947 167.016 96.8584 167.214 96.4497 167.99C95.9087 169.018 96.1132 170.588 97.493 175.995C98.9373 181.655 99.4569 185.319 98.7865 185.114C98.1053 184.905 97.2157 182.643 96.1703 178.46C94.6292 172.294 92.4849 167.812 90.0043 165.571C88.792 164.476 88.4082 164.395 87.7687 165.102ZM24.0914 166.706C23.7519 166.939 23.7519 167.064 24.0914 167.701C24.9494 169.311 26.7241 169.892 31.7336 170.204C34.8892 170.4 35.5062 170.518 36.8405 171.186C38.59 172.061 39.1065 172.834 38.7064 173.982C38.297 175.156 38.5836 176.788 39.6379 179.285C40.9735 182.448 41.9744 186.06 42.0523 187.996C42.1268 189.853 42.4636 190.471 45.13 193.642C48.7267 197.92 48.7259 199.575 45.1278 199.916C42.2471 200.188 41.0805 201.387 41.1045 204.051C41.1299 206.88 44.3327 212.114 46.0382 212.114C46.9548 212.114 47.4317 211.589 47.9589 210.002C48.8386 207.354 49.5192 207.555 51.036 210.912C52.3056 213.722 52.8047 214.282 54.4558 214.753C55.7385 215.118 57.5278 216.594 58.1521 217.802C58.481 218.438 58.4983 218.709 58.241 219.189C58.0016 219.637 57.9965 219.928 58.221 220.347C58.8821 221.583 61.5845 224.561 67.5805 230.663C76.1531 239.388 77.5042 241.208 80.6558 248.279L82.4405 252.282L86.1556 252.364C90.4308 252.459 92.4053 252.279 93.1102 251.733C93.5896 251.362 93.5848 251.329 92.9731 250.811C92.336 250.272 92.0773 250.185 90.1738 249.878C88.6369 249.63 87.0999 247.903 83.7622 242.674C78.4319 234.324 75.9668 231.476 69.1571 225.804C65.0743 222.403 62.8317 220.185 62.1808 218.904C61.9614 218.472 61.6979 217.544 61.5954 216.84C61.3616 215.233 60.3514 214.037 57.9042 212.468C55.9545 211.218 55.0432 210.045 55.0392 208.777C55.0379 208.337 54.9074 207.511 54.7494 206.942C54.4876 205.998 54.1972 205.637 52.5851 204.248C52.11 203.839 52.0774 203.583 52.2437 201.585C52.4604 198.983 52.1925 198.194 49.9742 194.907C48.2426 192.341 47.8334 191.368 47.8334 189.818C47.8334 188.356 47.5831 187.834 46.0718 186.145C44.8057 184.729 43.8307 182.468 43.8283 180.943C43.8261 179.433 43.3196 177.906 42.7737 177.764C42.1503 177.6 41.6952 176.578 41.6925 175.335C41.6888 173.404 41.1296 170.87 40.4939 169.902C39.6512 168.62 37.6407 167.662 34.7456 167.164C31.7976 166.657 24.6123 166.348 24.0914 166.706ZM143.251 168.744C133.084 170.183 124.104 174.651 116.465 182.071C111.728 186.671 108.5 191.095 105.74 196.767C100.19 208.17 99.2183 220.257 102.839 232.845C105.537 242.226 110.703 250.256 118.112 256.589C126.252 263.545 134.671 267.301 144.692 268.446C148.894 268.925 157.448 268.645 161.134 267.906C170.249 266.079 177.711 262.135 184.112 255.763C185.887 253.995 187.607 252.159 187.934 251.682L188.527 250.815H187.772C187.356 250.815 185.276 251.666 183.15 252.708C178.11 255.175 176.144 255.945 172.744 256.783C167.255 258.137 162.247 258.272 156.701 257.218C141.785 254.382 130.096 242.75 126.395 227.06C125.575 223.587 125.257 216.878 125.747 213.419C127.028 204.384 130.881 196.552 137.096 190.353C146.737 180.736 159.747 177.051 172.744 180.255C176.144 181.094 178.11 181.863 183.15 184.331C185.276 185.372 187.356 186.224 187.772 186.224H188.527L187.934 185.357C187.607 184.879 185.887 183.043 184.112 181.276C177.714 174.906 170.276 170.974 161.134 169.128C157.341 168.363 147.446 168.151 143.251 168.744ZM113.558 169.951C112.896 170.217 112.774 170.796 113.291 171.217C113.475 171.367 115.066 171.536 116.828 171.592C119.648 171.683 120.228 171.785 121.681 172.449C122.588 172.863 123.461 173.159 123.619 173.106C124.235 172.901 122.293 171.051 121.029 170.64C118.432 169.794 114.786 169.458 113.558 169.951ZM267.111 170.183C266.82 170.654 266.382 177.283 266.552 178.644C266.864 181.144 267.856 181.397 269.593 179.419C270.604 178.267 270.644 177.544 269.763 176.349C268.967 175.27 268.931 174.766 269.587 173.916C269.857 173.566 270.148 173.001 270.234 172.661C270.438 171.848 269.967 170.533 269.352 170.204C268.74 169.877 267.308 169.863 267.111 170.183ZM105.817 171.611C105.937 171.974 109.149 172.221 110.227 171.951C111.521 171.626 110.427 171.278 108.115 171.278C106.308 171.278 105.734 171.361 105.817 171.611ZM146.32 171.555C140.529 172.264 135.321 173.814 130.173 176.361C125.256 178.793 122.09 181.084 118.025 185.151C110.64 192.54 106.711 199.999 104.875 210.112C104.095 214.414 104.036 223.755 104.766 227.461C107.732 242.51 116.639 254.028 130.622 260.894C139.449 265.229 149.97 266.737 159.932 265.095C164.556 264.332 169.611 262.577 170.58 261.397C171.093 260.772 170.954 260.726 169.274 260.971C165.03 261.589 158.873 261.111 153.481 259.744C147.738 258.288 142.357 255.579 137.557 251.726C130.683 246.208 125.372 237.039 123.347 227.194C122.647 223.788 122.358 215.721 122.812 212.244C123.754 205.032 126.589 197.977 130.533 193.03C133.567 189.224 138.808 184.446 143.077 181.594C149.286 177.445 161.314 174.908 169.274 176.068C170.954 176.312 171.093 176.267 170.58 175.642C169.614 174.466 164.588 172.717 159.932 171.937C156.906 171.43 149.125 171.212 146.32 171.555ZM207.483 173.799C206.213 175.177 206.076 175.958 207.03 176.392C208.346 176.992 209.555 175.376 209.266 173.402C209.121 172.414 208.666 172.515 207.483 173.799ZM210.904 175.432C210.233 177.196 210.879 179.478 212.296 180.351C214.093 181.457 217.325 182.17 217.314 181.458C217.297 180.308 212.586 174.747 211.628 174.747C211.373 174.747 211.048 175.055 210.904 175.432ZM248.951 180.286C248.536 182.01 248.14 184.52 248.072 185.863C247.922 188.843 248.352 190.348 249.988 192.562C251.336 194.388 257.113 200.698 257.281 200.53C257.346 200.465 256.626 198.751 255.681 196.721C253.07 191.11 251.996 187.7 250.802 181.22C250.39 178.981 249.974 177.149 249.879 177.149C249.785 177.149 249.367 178.561 248.951 180.286ZM205.367 178.173C204.861 178.495 206.216 180.247 209.597 183.645C211.445 185.502 212.639 186.505 212.932 186.447C214.469 186.145 213.677 183.788 211.724 182.851C210.238 182.138 209.309 181.082 209.309 180.106C209.309 179.694 209.06 179.04 208.756 178.653C208.298 178.071 207.988 177.951 206.955 177.954C206.268 177.957 205.554 178.055 205.367 178.173ZM31.1 180.752C30.7855 180.973 30.2651 181.579 29.9432 182.1C29.3819 183.008 29.3771 183.068 29.8292 183.568C30.0884 183.855 30.4535 184.089 30.6401 184.089C30.8269 184.089 31.2233 184.398 31.5211 184.777C31.9794 185.36 32.0389 185.717 31.9097 187.112C31.7771 188.545 31.8281 188.823 32.3013 189.249C33.0889 189.958 34.8499 190.135 35.6837 189.589C36.6625 188.947 36.5712 187.866 35.4224 186.491C34.6025 185.51 34.4883 185.193 34.4883 183.899C34.4883 182.542 34.4055 182.342 33.4522 181.388C32.3152 180.251 31.9543 180.154 31.1 180.752ZM215.601 183.974C215.058 184.518 215.061 185.661 215.606 185.87C216.135 186.073 217.813 185.297 218.022 184.753C218.415 183.729 216.472 183.104 215.601 183.974ZM26.2394 184.556C25.0426 185.676 24.9836 186.287 25.9639 187.403C27.0881 188.684 28.0063 188.687 29.1225 187.416C29.5781 186.897 29.9509 186.284 29.9509 186.055C29.9509 185.444 28.2286 183.822 27.5798 183.822C27.2736 183.822 26.6707 184.152 26.2394 184.556ZM242.094 186.691C241.118 187.747 239.337 190.218 238.833 191.215C238.15 192.568 238.31 195.082 239.454 200.965C240.486 206.275 241.034 210.214 240.862 211.086C240.747 211.667 239.453 212.188 238.643 211.98C237.428 211.667 236.996 211.063 236.03 208.323C234.965 205.301 234.559 204.969 233.811 206.509C233.171 207.825 232.844 210.247 232.639 215.183C232.536 217.647 232.314 219.815 232.114 220.308C231.847 220.966 231.341 221.377 229.916 222.095C225.935 224.099 225.552 226.409 228.936 228.01C230.97 228.973 231.099 229.5 230.688 235.161C230.382 239.383 230.454 240.939 230.955 240.939C231.085 240.939 231.75 240.512 232.433 239.991C233.182 239.419 233.773 239.139 233.919 239.286C234.189 239.555 233.649 241.177 232.17 244.542C231.654 245.717 231.043 247.603 230.813 248.735C230.366 250.932 230.243 255.085 230.625 255.085C230.751 255.085 231.241 254.154 231.714 253.016C232.78 250.453 234.236 247.757 236.466 244.223C238.772 240.568 239.474 238.334 239.455 234.723C239.438 231.715 239.065 230.186 238.311 230.042C237.709 229.926 236.685 230.854 235.926 232.205C235.143 233.598 234.593 233.417 234.295 231.668C234.048 230.217 234.678 221.865 235.227 219.305C235.617 217.487 235.89 217.351 237.574 218.131C239.418 218.985 240.538 218.975 241.584 218.096C242.387 217.42 242.738 216.528 243.745 212.6C244.174 210.928 244.876 210.339 246.629 210.181C249.117 209.957 250.411 208.414 250.412 205.669C250.412 203.782 249.545 200.915 248.651 199.853C247.809 198.853 246.282 198.412 244.447 198.642C243.237 198.793 242.997 198.741 242.534 198.229C242.074 197.72 242.007 197.271 242.017 194.803C242.027 192.316 242.135 191.655 242.884 189.49C243.355 188.129 243.74 186.778 243.74 186.487C243.74 185.716 242.898 185.821 242.094 186.691ZM205.452 188.426C205.552 188.756 206.01 189.747 206.471 190.627C207.664 192.91 207.958 193.012 213.635 193.118C219.119 193.221 220.909 192.955 221.933 191.885C222.669 191.117 223.864 188.679 223.623 188.439C223.375 188.19 216.063 187.855 210.559 187.84L205.27 187.826L205.452 188.426ZM181.88 194.164C181.019 195.302 179.025 198.051 177.448 200.272C174.241 204.789 172.568 206.675 171.542 206.933C171.083 207.048 168.982 206.6 165.324 205.608C158.802 203.839 155.962 203.184 155.747 203.399C155.45 203.696 156.267 205.185 158.515 208.445C164.759 217.5 164.852 217.655 164.487 218.454C164.304 218.857 162.744 221.288 161.02 223.857C157.689 228.823 156.628 230.563 156.339 231.531C156.183 232.054 156.257 232.131 156.912 232.131C157.81 232.129 160.789 231.325 166.146 229.637C172.442 227.653 172.053 227.679 173.523 229.149C174.209 229.835 176.344 232.498 178.268 235.067C182.191 240.306 183.059 241.256 183.406 240.696C183.87 239.943 183.976 235.791 183.685 229.635C183.521 226.133 183.423 223.24 183.47 223.205C183.516 223.17 186.016 222.313 189.025 221.299C194.457 219.47 198.638 217.63 198.842 216.979C199.035 216.363 194.457 214.618 185.717 211.975L183.343 211.257L183.512 208.683C183.893 202.841 184.042 192.096 183.742 192.096C183.578 192.096 182.74 193.027 181.88 194.164ZM209.492 199.56C208.356 200.91 208.264 203.33 209.218 206.776C209.638 208.294 210.217 209.178 210.79 209.178C211.15 209.178 211.445 209.761 211.445 210.472C211.445 211.27 212.778 212.914 214.38 214.094L215.941 215.243L214.276 215.399C212.088 215.603 210.042 216.392 207.65 217.953C204.411 220.068 203.245 221.709 202.748 224.857C202.527 226.254 202.908 226.793 204.116 226.793C205.348 226.793 205.843 226.553 206.122 225.818C206.406 225.071 207.344 224.658 208.757 224.658C211.152 224.658 215.312 221.762 221.087 216.075C225.555 211.675 226.003 210.797 225.961 206.509C225.924 202.769 225.509 200.631 224.613 199.567C223.659 198.432 222.588 198.482 221.426 199.714C220.11 201.109 219.477 203.47 219.139 208.244C218.719 214.194 218.447 214.253 217.083 208.694C216.09 204.644 214.952 202.285 213.036 200.303C211.288 198.496 210.522 198.335 209.492 199.56ZM177.57 205.44C175.254 208.778 173.322 210.779 172.417 210.779C172.132 210.779 170.978 210.548 169.852 210.265C167.484 209.671 163.114 208.843 162.991 208.966C162.945 209.012 163.814 210.249 164.921 211.716C167.016 214.49 168.2 216.628 168.204 217.647C168.209 218.809 167.278 220.526 164.956 223.639C163.662 225.374 162.661 226.793 162.731 226.793C162.8 226.793 164.091 226.442 165.599 226.013C171.213 224.417 173.064 224.334 174.893 225.602C175.426 225.971 176.872 227.611 178.106 229.245L180.351 232.217L180.484 227.157C180.634 221.467 180.749 221.081 182.523 220.32C183.09 220.077 184.843 219.384 186.418 218.78C187.994 218.176 189.364 217.552 189.462 217.393C189.747 216.93 188.877 216.468 185.774 215.434C182.578 214.369 181.474 213.63 181.02 212.253C180.854 211.752 180.516 209.286 180.268 206.773L179.817 202.204L177.57 205.44ZM63.1352 203.204C62.433 204.276 62.5232 206.334 63.309 207.171C64.7924 208.75 66.795 207.33 66.3594 205.008C66.1712 204.005 64.7996 202.505 64.0699 202.505C63.8075 202.505 63.3869 202.82 63.1352 203.204ZM204.658 210.602C203.875 211.385 203.822 211.781 204.339 212.99C205.087 214.738 207.013 215.976 208.517 215.675C209.348 215.509 210.377 214.471 210.377 213.799C210.377 212.478 208.029 210.35 206.252 210.062C205.518 209.943 205.214 210.046 204.658 210.602ZM76.5615 219.339C76.0952 219.706 75.8582 220.149 75.8582 220.655C75.8582 221.477 76.9015 222.523 77.7212 222.523C78.3372 222.523 78.9169 223.21 79.5529 224.694C80.1094 225.992 80.9731 226.793 81.8157 226.793C82.6976 226.793 84.1687 225.931 84.4212 225.267C84.7866 224.306 84.2982 223.657 82.6682 222.936C81.232 222.301 80.6712 221.628 80.3059 220.1C79.9962 218.805 77.8066 218.36 76.5615 219.339ZM220.098 228.097C219.646 228.373 219.114 228.99 218.915 229.469C218.578 230.284 218.596 230.374 219.199 230.862C220.464 231.886 222.922 230.934 222.922 229.421C222.922 228.838 221.793 227.593 221.265 227.595C221.075 227.596 220.55 227.822 220.098 228.097ZM51.8767 230.233C51.6042 230.406 51.7675 230.649 52.544 231.23C53.9463 232.278 54.2578 232.702 54.1083 233.362C53.958 234.025 54.5319 234.615 55.8714 235.175C57.1275 235.7 57.5038 236.195 57.2911 237.043C57.1518 237.598 57.2161 237.742 57.6133 237.766C60.1208 237.915 61.3379 236.709 60.2489 235.155C60.0311 234.844 59.3126 234.273 58.6523 233.886C57.293 233.089 56.9081 232.528 56.9081 231.342C56.9081 230.702 56.7546 230.458 56.2235 230.256C55.3819 229.936 52.3702 229.92 51.8767 230.233ZM214.025 235.779C213.927 235.877 213.847 236.527 213.847 237.223C213.847 238.92 215.655 242.518 219.183 247.837C221.796 251.776 222.846 252.926 223.474 252.538C224.514 251.895 222.427 246.778 218.717 240.878C216.01 236.573 214.678 235.126 214.025 235.779ZM68.7113 249.362C68.3008 249.649 68.118 250.05 68.118 250.663C68.118 251.706 68.382 251.968 69.9885 252.517C70.648 252.742 71.4276 253.238 71.7212 253.619C74.0886 256.693 75.2569 257.409 76.5364 256.57C77.9456 255.647 77.0883 253.495 74.9307 252.541C73.4817 251.9 72.6554 251.063 72.6554 250.236C72.6554 249.545 71.6024 248.946 70.3867 248.946C69.7915 248.946 69.0375 249.133 68.7113 249.362Z" fill="#B46529"/>
</svg>
