<svg width="300" height="300" viewBox="0 0 300 300" fill="none" xmlns="http://www.w3.org/2000/svg">
<g clip-path="url(#clip0_151_10197)">
<path d="M90.3188 230.067C88.8306 229.673 87.5257 229.035 86.0216 228.754C85.9618 228.857 85.8505 228.934 85.7028 228.907C85.6231 228.893 85.5446 228.871 85.4661 228.85C85.4497 228.982 85.363 229.106 85.1948 229.119C85.1081 229.125 85.0214 229.127 84.9347 229.131C84.6856 229.191 84.4114 229.193 84.1841 229.169C84.0323 229.152 83.8847 229.128 83.7429 229.084C83.4452 229.038 83.1505 228.969 82.8675 228.84C82.7743 228.798 82.735 228.729 82.7245 228.655C82.5634 228.625 82.4778 228.494 82.4667 228.361C81.5245 228.279 80.5811 228.213 79.6349 228.189C79.5985 228.139 79.5511 228.097 79.486 228.085C79.1837 228.027 78.8649 227.969 78.5854 228.016C78.4724 227.881 78.2204 227.836 78.0809 228.024C77.8114 228.389 77.6432 228.693 77.5143 229.12C77.495 229.183 77.5026 229.246 77.5267 229.302C77.0409 230.561 77.6145 232.535 77.6503 233.642C77.6872 234.777 77.7593 235.889 77.4704 237.001C77.2507 237.845 76.9208 238.635 76.7708 239.5C76.5692 240.666 76.5546 241.861 77.345 242.785C78.7741 244.455 81.5878 244.382 82.5024 242.348C83.6192 239.864 82.6595 236.909 82.5452 234.328C84.3809 234.722 83.9901 236.909 83.8143 238.277C83.7686 238.633 83.7651 239.021 83.7616 239.413C83.6456 239.421 83.539 239.483 83.5202 239.619C83.4095 240.427 83.052 241.181 83.0204 241.992C82.8042 242.898 82.6589 243.808 82.9466 244.574C83.0579 244.871 83.3075 245.054 83.6087 245.183C84.0768 246.022 84.6306 246.079 85.4643 245.663C85.513 245.638 85.5493 245.599 85.5727 245.553C86.8132 245.771 88.0307 246.008 89.3491 245.79C89.6046 245.748 89.628 245.369 89.4194 245.254C89.3181 245.199 89.2126 245.151 89.1077 245.104C89.3743 245.019 89.3936 244.615 89.1054 244.541C88.9706 244.507 88.8358 244.481 88.7005 244.457C88.7561 244.439 88.7977 244.411 88.8259 244.375C89.9813 243.663 90.9669 242.647 91.4901 241.62C92.5196 239.602 92.4704 236.84 92.621 234.613C92.7599 232.56 92.5108 230.649 90.3188 230.067Z" fill="white"/>
<path d="M263.783 138.15C264.621 138.443 265.465 138.724 266.326 138.97V138.677C263.59 134.868 263.748 129.87 263.818 125.382C264.006 117.952 263.701 110.5 264.305 103.081C264.352 96.6418 264.416 90.1965 264.48 83.757C264.563 80.1242 263.232 76.6789 262.037 73.3098C258.51 65.0012 253.436 57.3195 247.008 50.968C242.818 47.0891 237.668 43.4914 231.721 43.5617C226.57 44.3234 221.883 46.8195 217.406 49.3684C214.764 50.8332 211.91 51.8521 209.209 53.2062C204.27 54.8703 198.85 55.843 193.787 54.0969C190.277 52.7199 187.881 49.7023 185.859 46.6619C184.676 44.8279 183.527 42.9705 182.467 41.0545C181.043 38.2596 179.912 35.324 178.512 32.5115C177.768 30.6482 176.971 28.809 176.051 27.0213C170.965 16.4803 163.564 5.99198 152.355 1.45097C142.213 -2.17013 131.145 1.63847 122.514 7.26347C120.979 9.26737 119.572 11.3826 117.949 13.3162C116.408 14.6932 114.293 15.4432 113.215 17.3064C111.305 19.7557 110.941 23.0721 111.826 25.9959C112.283 27.3084 112.939 28.533 113.877 29.5643C114.059 28.4568 113.578 27.0447 114.639 26.2596C117.463 26.7928 120.346 27.033 123.182 26.4184C126.715 29.3305 129.937 32.9457 131.098 37.4744C131.379 39.3494 130.846 41.1957 130.494 43.0238C129.416 45.1801 128.391 47.4184 126.738 49.2055C124.049 52.3226 120.064 53.7582 116.18 54.684C111.117 56.4301 95.765 53.682 90.8256 52.0174C88.125 50.6639 85.2715 49.6443 82.6289 48.1795C78.1518 45.6307 73.4643 43.1351 68.3145 42.3728C62.3672 42.3025 57.2168 45.9008 53.0273 49.7797C46.599 56.1312 41.5248 63.8129 37.998 72.1215C36.8021 75.4906 35.4721 78.9359 35.5547 82.5687C35.6186 89.0082 35.6836 95.4535 35.7305 101.892C36.334 109.31 36.0293 116.763 36.2162 124.194C36.2871 128.682 36.4453 133.679 33.709 137.488V137.781C34.5709 137.535 35.4141 137.254 36.252 136.961C36.5332 137.946 36.6855 138.959 36.6557 139.985C36.6387 146.23 36.7734 152.483 36.7617 158.729C36.8086 162.051 35.9355 165.349 34.3887 168.286C35.2266 167.969 36.0639 167.647 36.8906 167.319C37.6002 171.245 37.084 175.258 37.2715 179.225C37.2076 185.384 37.6699 191.553 37.1607 197.7C36.6387 199.58 36.1113 201.467 35.3906 203.283C36.2051 203.02 37.0143 202.75 37.8217 202.498C37.8926 211.539 37.9623 220.586 38.0742 229.627C38.7422 236.441 38.4135 243.303 38.5781 250.135C38.7305 253.035 38.0742 255.865 37.2475 258.619C37.9799 258.825 38.6531 259.545 39.4447 259.322C44.683 257.382 49.8217 253.902 51.9018 248.506C54.0639 243.543 53.2377 238.035 53.4428 232.791C56.7891 231.619 59.4609 229.152 61.5404 226.358C62.8354 224.371 63.3217 222.01 64.1414 219.819C69.8373 217.387 74.1961 211.926 74.7352 205.686C77.3895 203.641 80.1551 201.567 81.8602 198.614C83.4715 196.241 83.8582 193.347 84.3738 190.592C84.45 189.72 84.5262 188.841 84.6082 187.968C87.2918 185.882 89.8518 183.339 91.0828 180.111C92.1902 175.646 92.2189 170.982 92.0437 166.405C93.0164 165.123 94.2352 164.062 95.5008 163.083C96.3152 162.069 97.1063 161.044 97.8738 160.007L98.2254 159.784C98.4533 159.644 98.6818 159.511 98.9109 159.375C98.9232 161.63 98.8758 163.903 98.5248 166.142C97.7438 175.208 96.1447 184.191 94.3535 193.107C93.1113 198.404 92.127 203.759 90.627 208.992C91.2891 208.933 91.9512 208.828 92.6074 208.722C93.0293 208.681 93.8672 208.593 94.2832 208.552C93.4395 212.871 91.8633 216.996 90.4395 221.15C89.3848 223.611 88.5 226.154 87.0527 228.427C86.6953 228.474 85.9746 228.562 85.6172 228.609L84.8848 229.136C85.8398 229.546 86.8008 229.956 87.6797 230.525C89.9004 232.341 90.375 235.289 90.0703 238.002C89.2676 237.246 88.582 236.384 87.9785 235.47C88.0195 238.459 88.1191 241.517 87.1699 244.4C86.9766 244.729 86.6016 245.396 86.4141 245.724C85.5176 245.666 84.4453 246.035 83.7656 245.255C82.6758 244.523 83.127 243.023 83.25 241.946C83.3613 239.619 85.084 237.029 83.666 234.867C83.1387 234.481 82.6055 234.105 82.0664 233.736C82.6465 236.882 83.1211 240.194 81.9141 243.264C80.4668 243.984 78.5625 244.219 77.5137 242.718C75.334 240 78.2344 236.759 77.8301 233.765C77.5664 231.855 77.4902 229.927 78.0645 228.065C80.5254 227.895 81.9258 230.004 83.0508 231.838C83.2852 232.119 83.7539 232.687 83.9883 232.969C84.2695 232.266 84.5508 231.568 84.8262 230.871C84.5215 230.537 84.2285 230.197 83.9414 229.863C83.1738 228.862 82.5352 227.683 81.4395 227.01C80.2969 226.623 79.0547 226.804 77.877 226.757C76.9277 227.707 76.0313 228.744 75.7383 230.097C70.6406 233.461 65.2969 236.449 60.1641 239.765C58.2012 240.85 56.291 242.027 54.4102 243.264C54.5332 247.319 54.3633 251.373 54.5566 255.428C55.1074 260.76 54.709 266.133 54.8555 271.488C81.7441 287.279 112.693 295.898 143.836 296.865C146.104 296.631 147.557 298.658 149.086 299.971H149.73C150.979 298.981 152.197 297.956 153.434 296.954C159.211 296.79 165 296.497 170.748 295.841C191.086 293.749 211.154 288.399 229.652 279.651C230.291 279.376 230.93 279.1 231.557 278.813C235.148 277.079 238.705 275.285 242.221 273.423C243.234 272.824 244.635 272.098 244.418 270.698C244.535 261.762 244.57 252.833 244.641 243.897C237.686 239.415 230.678 235.009 223.617 230.697C223.436 230.298 223.078 229.507 222.896 229.109C222.404 227.65 220.816 227.117 219.404 227.304C217.354 227.145 216.346 229.22 215.338 230.626C214.869 230.163 214.406 229.695 213.949 229.232C213.275 228.992 212.607 228.757 211.939 228.523C209.068 222.247 206.725 215.72 205.225 208.976C206.455 209.181 207.68 209.421 208.91 209.632C205.588 195.704 202.74 181.618 201.51 167.333C201.158 165.096 201.111 162.822 201.123 160.566C201.352 160.703 201.581 160.836 201.809 160.976L202.16 161.199C202.928 162.236 203.719 163.262 204.533 164.275C205.799 165.253 207.018 166.314 207.99 167.597C207.814 172.174 207.844 176.838 208.951 181.303C210.182 184.531 212.742 187.074 215.426 189.16C215.508 190.033 215.584 190.912 215.66 191.785C216.176 194.538 216.563 197.433 218.174 199.805C219.879 202.759 222.645 204.833 225.299 206.878C225.838 213.118 230.197 218.579 235.893 221.011C236.713 223.202 237.199 225.563 238.494 227.55C240.574 230.345 243.246 232.811 246.592 233.983C246.797 239.227 245.971 244.735 248.133 249.697C250.213 255.094 255.352 258.574 260.59 260.514C261.381 260.737 262.055 260.016 262.787 259.811C261.961 257.057 261.305 254.227 261.457 251.327C261.621 244.495 261.293 237.634 261.961 230.819C262.072 221.778 262.143 212.731 262.213 203.69C263.021 203.942 263.83 204.212 264.645 204.475C263.924 202.658 263.396 200.772 262.875 198.891C262.365 192.745 262.828 186.575 262.764 180.417C262.951 176.45 262.436 172.436 263.145 168.511C263.971 168.839 264.809 169.161 265.646 169.477C264.1 166.542 263.227 163.243 263.273 159.921C263.262 153.675 263.396 147.423 263.379 141.177C263.349 140.148 263.502 139.134 263.783 138.15Z" fill="black"/>
<path d="M216.932 234.222C216.369 236.935 216.17 239.718 216.486 242.478C215.959 242.297 215.18 242.302 215.08 241.57C214.354 238.629 214.318 235.57 214.125 232.558C214.207 231.609 213.369 231.052 212.836 230.402C211.301 231.193 209.83 232.236 209.279 233.964C209.18 235.459 209.191 236.959 209.174 238.459L209.514 238.054C209.783 237.117 210.258 236.302 211.225 235.998C211.277 238.101 211.195 240.205 211.131 242.314C211.271 243.879 211.939 245.314 212.947 246.515C215.25 246.562 216.088 244.429 216.656 242.578C217.195 245.238 220.617 244.886 221.701 242.912C223.008 240.562 221.221 238.037 221.127 235.605C221.156 235.377 221.203 234.925 221.227 234.697C221.285 232.728 221.268 230.759 221.086 228.797C217.436 228.463 215.484 232.558 215.297 235.646C215.707 235.289 216.521 234.58 216.932 234.222Z" fill="white" stroke="black" stroke-width="0.585938"/>
<path d="M116.752 198.21C113.658 202.453 111.15 207.099 108.982 211.875C107.846 214.048 107.318 216.457 106.82 218.841C106.387 218.056 106.176 217.101 105.449 216.527C104.336 217.945 103.762 219.691 102.883 221.255C101.301 224.396 99.0215 227.296 98.3652 230.824C98.5352 235.4 100.557 239.917 103.867 243.093C117.232 247.142 131.049 250.136 145.053 250.289C146.547 251.285 147.953 252.398 149.43 253.417C150.889 252.398 152.295 251.296 153.795 250.33C165.49 250.3 177.104 248.285 188.412 245.384C190.615 244.71 192.777 243.884 195.01 243.31C196.855 241.201 198.555 238.892 199.416 236.197C200.072 233.958 200.857 231.492 199.762 229.265C198.016 224.917 195.385 220.998 193.398 216.761C192.9 217.593 192.42 218.443 191.922 219.281C191.658 215.748 190.199 212.472 188.6 209.361C185.424 202.728 181.445 196.417 176.541 190.927C177.889 198.234 180.742 205.171 182.365 212.414C185.102 220.054 185.74 228.802 191.172 235.207C187.68 236.982 183.543 236.771 179.834 235.857C180.725 237.591 179.945 239.46 178.797 240.855C176.928 242.414 174.332 242.865 171.994 242.291C170.664 241.816 169.744 240.697 168.725 239.783C167.857 242.683 165.408 244.699 162.514 245.378C159.59 245.332 157 243.826 155.23 241.546C154.199 244.406 151.762 246.169 149.377 247.839C147.9 246.773 146.383 245.748 145.117 244.429C144.42 243.503 143.828 242.501 143.189 241.541C141.391 244.347 137.682 245.882 134.459 244.833C132.285 243.773 130.855 241.798 129.701 239.748C128.922 240.451 128.166 241.189 127.328 241.833C124.738 242.958 121.469 242.308 119.518 240.275C118.264 238.986 118.533 237.123 118.545 235.488C115.018 236.554 111.127 236.267 107.646 235.136C110.898 230.683 112.861 225.474 114.168 220.154C116.131 213.673 117.865 207.128 119.998 200.707C120.807 197.291 122.166 194.027 122.852 190.582C120.402 192.761 118.668 195.58 116.752 198.21Z" fill="white" stroke="black" stroke-width="0.585938"/>
<path d="M222.344 235.418C222.648 237.428 223.469 239.356 223.58 241.395C223.404 244.594 220.188 246.035 218.225 248.086C218.102 248.098 217.861 248.121 217.744 248.133C217.586 247.389 217.428 246.65 217.27 245.912C215.406 247.33 214.141 249.551 211.82 250.313C212.061 249.557 212.312 248.807 212.564 248.063C210.924 247.447 209.898 248.719 209.189 250.002C208.574 250.84 207.59 251.238 206.688 251.684C206.646 251.291 206.559 250.506 206.512 250.113C204.238 249.135 203.336 246.815 203.506 244.459C203.172 244.588 202.504 244.84 202.17 244.963C195.813 247.453 189.197 249.158 182.605 250.887C173.611 252.797 164.488 254.109 155.301 254.502C152.846 254.274 151.609 256.822 149.553 257.596C147.385 256.981 146.049 254.397 143.582 254.438C136.773 254.027 129.965 253.389 123.273 252.029C113.758 250.172 104.342 247.617 95.3711 243.92C95.0723 246.234 94.5273 248.895 91.9609 249.662C91.873 250.107 91.6855 251.004 91.5977 251.455C89.7109 250.213 88.7969 247.459 86.3535 247.266C86.3887 248.162 86.4238 249.059 86.459 249.955C85.8262 249.516 85.1816 249.106 84.5723 248.631C83.4883 247.494 82.416 246.352 81.2559 245.297C81.2148 245.871 81.1387 247.02 81.0977 247.594C78.9238 246.627 77.1367 244.904 75.7598 242.994C74.2656 240.586 75.8066 237.879 76.4102 235.465C76.0293 234.621 75.1211 234.223 74.3535 234.838C70.4863 237.457 66.584 240.029 62.7051 242.625C61.3398 243.598 59.8398 244.395 58.6211 245.555C58.1523 246.416 58.3809 247.465 58.2988 248.414C58.3164 255.299 58.498 262.184 58.3984 269.068C61.1289 270.984 64.1934 272.326 67.1582 273.832C75.2676 277.834 83.6875 281.227 92.3242 283.916C101.576 286.682 111.004 288.92 120.561 290.344C125.67 290.982 130.779 291.615 135.912 292.031C139.187 292.283 142.521 291.979 145.744 292.682C147.391 293.297 148.879 296.262 150.625 294.211C151.521 293.584 152.295 292.494 153.52 292.6C162.104 292.242 170.687 291.674 179.184 290.35C190.158 288.809 200.969 286.119 211.469 282.586C217.902 280.471 224.178 277.898 230.289 274.981C231.408 274.465 232.521 273.955 233.629 273.422C235.762 272.391 237.836 271.26 239.939 270.176C240.238 262.295 240.449 254.426 240.537 246.539C235.211 242.59 229.592 239.051 224.242 235.131C223.609 235.225 222.977 235.318 222.344 235.418Z" fill="white" stroke="black" stroke-width="0.585938"/>
<path d="M131.066 193.089C130.627 195.14 130.223 197.197 129.836 199.265C129.771 199.558 129.637 200.144 129.572 200.443L129.437 200.994C127.627 209.783 125.699 218.548 123.941 227.355C123.385 230.302 122.465 233.167 121.721 236.074C121.85 236.466 122.113 237.251 122.248 237.644C123.725 238.365 125.436 238.623 127.041 238.195C128.107 237.55 128.617 236.355 129.074 235.259C130.756 225.468 132.168 215.63 133.779 205.834C134.582 201.134 135.326 196.423 136.088 191.718C136.533 189.181 136.955 186.644 137.518 184.13C136.094 183.826 134.635 183.685 133.182 183.609C132.338 186.738 131.699 189.914 131.066 193.089Z" fill="url(#paint0_radial_151_10197)" stroke="black" stroke-width="0.585938"/>
<path d="M121.979 200.478C121.059 203.519 120.326 206.613 119.465 209.677C118.246 213.955 117.115 218.255 115.92 222.539C114.977 226.23 114.256 230.074 112.141 233.32C113.617 233.378 115.094 233.513 116.57 233.367C118.732 232.992 120.555 231.24 120.982 229.078C122.641 221.765 124.234 214.441 125.852 207.123C126.332 204.943 127.082 202.792 127.053 200.537L127.293 201.105C128.143 197.789 128.711 194.402 129.66 191.109C129.748 190.476 129.842 189.843 129.93 189.21L130.223 188.748C130.492 187.154 130.896 185.583 131.207 183.996C128.236 184.828 125.072 187.078 124.662 190.371C124.334 191.742 123.93 193.089 123.514 194.437L123.578 194.677C123.473 195.099 123.262 195.943 123.156 196.365C122.717 197.718 122.312 199.089 121.979 200.478Z" fill="url(#paint1_radial_151_10197)" stroke="black" stroke-width="0.585938"/>
<path d="M132.221 232.06C131.805 234.439 131.94 236.994 133.387 239.021L133.487 239.208C134.928 240.304 136.885 241.072 138.625 240.152C141.309 238.921 142.428 235.927 142.604 233.162C143.178 227.97 143.248 222.755 143.729 217.564C143.875 213.832 144.045 210.105 144.344 206.378C144.514 200.912 145.071 195.468 145.159 190.001C145.17 188.935 145.153 187.875 145.141 186.814C143.284 185.853 141.35 185.021 139.293 184.605C139.1 185.964 138.877 187.318 138.707 188.677C138.11 192.837 137.465 196.992 136.879 201.152C136.094 206.419 135.291 211.693 134.53 216.966C133.75 221.994 133.065 227.039 132.221 232.06Z" fill="url(#paint2_radial_151_10197)" stroke="black" stroke-width="0.585938"/>
<path d="M153.016 234.421C153.198 227.888 152.705 221.361 152.676 214.828C152.729 206.039 152.547 197.244 152.108 188.466C150.924 189.457 150.139 190.787 149.489 192.164C149.067 191.126 148.61 190.113 148.082 189.128C147.672 188.994 147.268 188.859 146.864 188.718C146.758 195.333 146.823 201.96 146.307 208.558C146.178 218.185 145.815 227.812 146.037 237.439C146.272 239.525 147.561 241.23 148.955 242.712C152.243 241.406 152.905 237.544 153.016 234.421Z" fill="url(#paint3_radial_151_10197)" stroke="black" stroke-width="0.585938"/>
<path d="M161.852 184.218C162.473 188.589 163.357 192.919 163.826 197.314L164.189 197.343C164.377 201.363 165.068 205.371 165.871 209.314C167.014 217.998 168.256 226.687 169.732 235.324C170.002 237.796 172.357 239.232 174.725 238.751C175.393 238.306 176.336 238.166 176.711 237.38C177.074 235.359 176.307 233.396 175.65 231.527C174.531 226.013 173.488 220.476 172.393 214.957C171.965 213.158 171.648 211.335 171.314 209.513C170.26 204.556 169.492 199.535 168.25 194.619C167.822 190.992 166.973 187.294 166.059 183.72C164.646 183.802 163.246 183.972 161.852 184.218Z" fill="url(#paint4_radial_151_10197)" stroke="black" stroke-width="0.585938"/>
<path d="M174.379 212.818C174.953 215.935 175.65 219.041 176.313 222.14C176.547 223.095 176.723 224.056 176.916 225.023C177.648 227.49 177.426 230.548 179.57 232.347C181.346 234.152 184.129 233.531 186.391 233.501C184.562 230.291 183.818 226.658 182.969 223.113C182.049 219.878 181.328 216.591 180.414 213.357C179.922 211.412 179.447 209.466 178.773 207.58C178.457 204.996 177.455 202.447 176.91 199.869C176.6 198.703 176.26 197.548 175.85 196.417C175.463 193.675 174.572 190.828 173.764 188.121C172.17 186.398 170.324 184.5 167.887 184.13C169.545 190.3 170.699 196.599 172.152 202.822C172.861 206.162 173.564 209.501 174.379 212.818Z" fill="url(#paint5_radial_151_10197)" stroke="black" stroke-width="0.585938"/>
<path d="M160.087 184.787C158.078 184.757 156.361 185.935 154.527 186.586C153.994 188.794 154.351 191.086 154.31 193.33C154.527 198.058 154.158 202.834 154.978 207.509C154.767 213.585 155.441 219.638 155.699 225.703C155.564 228.433 156.179 231.128 156.249 233.853C156.384 236.871 158.353 240.462 161.693 240.591C164.294 240.978 166.251 238.464 166.621 236.144C167.013 233.197 166.128 230.285 165.753 227.384C165.525 224.607 164.892 221.882 164.728 219.099C164.453 217.88 164.306 216.638 164.142 215.408L164.23 215.062C163.304 210.814 163.123 206.437 162.261 202.177C162.132 201.14 162.027 200.103 161.874 199.072C161.927 197.882 161.453 196.728 161.429 195.533C161.06 191.941 160.292 188.396 160.087 184.787Z" fill="url(#paint6_radial_151_10197)" stroke="black" stroke-width="0.585938"/>
<path d="M92.875 247.605C94.0645 243.908 93.2734 239.865 94.6914 236.191C94.9141 236.244 95.3594 236.35 95.5762 236.402C96.5195 238.078 97.6328 239.643 98.8457 241.131C99.1914 241.137 99.8945 241.154 100.24 241.166C97.8496 238.014 96.8535 234 94.1465 231.088C93.5547 230.918 92.9688 230.742 92.3887 230.549C90.7773 231.539 90.7246 233.537 90.5957 235.23C90.5371 238.002 89.1602 240.486 88.4043 243.105C88.3281 244.049 88.2988 244.998 88.252 245.953C89.3418 247.506 91.1231 247.734 92.875 247.605Z" fill="white" stroke="black" stroke-width="0.585938"/>
<path d="M219.801 161.069C220.715 164.333 222.449 167.42 225.238 169.436C225.197 168.862 225.156 168.299 225.115 167.731C225.145 165.563 225.215 163.401 225.209 161.239C225.215 159.235 225.232 157.231 225.268 155.233C225.297 153.651 225.309 152.075 225.314 150.493C225.314 149.584 225.314 148.676 225.32 147.774C223.422 146.42 221.588 144.985 219.684 143.643C219.607 145.278 219.555 146.913 219.549 148.547C219.543 149.801 219.537 151.055 219.537 152.303C219.531 153.838 219.502 155.368 219.502 156.903C219.52 158.133 219.555 159.37 219.654 160.606C219.689 160.717 219.766 160.952 219.801 161.069Z" fill="url(#paint7_radial_151_10197)"/>
<path d="M230.159 172.313C230.2 172.407 230.282 172.594 230.323 172.682C231.507 174.967 233.036 177.188 235.316 178.5C235.462 178.588 235.755 178.77 235.907 178.864C235.948 174.704 235.849 170.549 235.972 166.389V165.739C235.966 164.813 235.954 163.893 235.966 162.973C235.966 162.088 235.972 161.209 235.978 160.331C236.142 158.268 236.528 156.182 236.2 154.114C234.185 152.104 231.665 150.387 228.812 149.842C228.911 151.829 228.952 153.815 228.958 155.801C228.964 157.629 228.923 159.452 228.882 161.28C228.853 164.983 228.384 168.891 230.159 172.313Z" fill="url(#paint8_radial_151_10197)"/>
<path d="M209.752 147.768C210.039 148.653 210.426 149.514 210.877 150.34C212.061 152.403 213.713 154.184 215.723 155.467C215.723 155.057 215.729 154.231 215.729 153.821C215.787 151.612 215.828 149.409 215.858 147.2C215.893 145.231 215.91 143.262 215.934 141.293C213.666 139.407 211.727 137.186 209.746 135.012C209.606 138.487 209.676 141.967 209.822 145.442C209.799 146.215 209.776 146.989 209.752 147.768Z" fill="url(#paint9_radial_151_10197)"/>
<path d="M258.73 179.455C258.742 177.979 258.73 176.502 258.754 175.031C258.771 173.895 258.807 172.764 258.842 171.633C258.871 170.115 258.859 168.604 258.854 167.086C257.775 166.412 256.703 165.732 255.654 165.029C254.541 164.262 253.504 163.4 252.496 162.504C252.174 162.521 251.523 162.545 251.201 162.557C251.189 164.672 251.207 166.787 251.23 168.896C251.236 170.191 251.23 171.486 251.225 172.787C251.219 174.428 251.219 176.068 251.23 177.709C251.236 179.801 251.201 181.893 251.195 183.99C251.195 185.408 251.254 186.832 251.471 188.244C252.906 192.264 256.053 195.363 259.738 197.391C259.299 195.914 258.912 194.426 258.602 192.926C258.719 188.432 258.684 183.943 258.73 179.455Z" fill="url(#paint10_radial_151_10197)"/>
<path d="M247.083 187.518C247.088 183.938 247.018 180.352 247.071 176.772L247.083 176.467C247.147 174.768 247.159 173.063 247.135 171.364C247.258 170.596 247.381 169.823 247.499 169.055L247.563 168.563C247.622 167.286 247.668 166.008 247.668 164.731C247.639 163.395 247.592 162.059 247.551 160.729C244.868 159.282 242.793 156.956 240.069 155.596C240.034 156.721 240.016 157.852 240.016 158.977C240.028 159.51 240.045 160.577 240.051 161.104C240.086 162.891 240.057 164.684 240.028 166.471C240.01 167.719 239.993 168.973 239.975 170.227C239.958 171.235 239.934 172.243 239.946 173.256C239.817 176.321 239.823 179.456 240.877 182.385C241.217 183.083 241.569 183.78 241.891 184.495C243.379 186.739 245.29 188.749 247.727 189.956C247.645 188.696 247.534 187.43 247.481 186.17C247.352 186.622 247.217 187.067 247.083 187.518Z" fill="url(#paint11_radial_151_10197)"/>
<path d="M255.249 158.379C256.737 159.984 258.559 161.221 260.446 162.316C259.884 160.395 259.245 158.449 259.251 156.428C259.151 149.789 259.515 143.145 259.286 136.512C256.45 135.533 254.763 132.586 251.839 131.941C251.892 134.93 251.815 137.924 251.845 140.918C251.716 143.262 251.722 145.605 251.739 147.949C251.475 151.734 252.964 155.42 255.249 158.379Z" fill="url(#paint12_radial_151_10197)" stroke="black" stroke-width="0.585938"/>
<path d="M230.093 140.32C231.558 143.643 233.814 146.742 237.125 148.412C236.808 146.602 236.457 144.785 236.463 142.939C236.463 136.33 236.615 129.721 236.398 123.117L236.287 122.941L235.677 122.496C235.162 122.156 234.634 121.834 234.119 121.518C233.486 121.143 232.853 120.773 232.185 120.475C231.816 120.34 231.078 120.076 230.709 119.941C230.427 119.871 229.853 119.73 229.566 119.66C229.537 122.098 229.461 124.535 229.461 126.979C229.466 127.705 229.478 128.438 229.502 129.164C229.449 132.891 229.115 136.676 230.093 140.32Z" fill="url(#paint13_radial_151_10197)" stroke="black" stroke-width="0.585938"/>
<path d="M220.462 134.66C221.335 137.578 223.263 140.004 225.419 142.09C225.7 142.131 226.263 142.201 226.544 142.236C226.251 141.24 225.964 140.238 225.694 139.242C225.589 132.047 226.069 124.828 225.642 117.65C223.608 116.262 221.827 114.568 220.017 112.916C219.923 116.871 219.993 120.838 219.735 124.787C219.577 127.201 219.571 129.639 219.97 132.029C220.081 132.914 220.245 133.793 220.462 134.66Z" fill="url(#paint14_radial_151_10197)" stroke="black" stroke-width="0.585938"/>
<path d="M247.936 150.955C248.118 144.973 247.966 138.984 248.182 133.002C248.188 131.988 248.264 130.928 247.843 129.984C245.253 128.684 243.108 126.738 240.917 124.893C240.829 124.928 240.641 124.992 240.548 125.027C240.677 128.93 240.378 132.832 240.548 136.734C240.43 140.391 239.95 144.252 241.444 147.715C242.774 151.037 245.346 153.885 248.651 155.326C248.429 154.201 248.2 153.076 248.071 151.939C248.036 151.693 247.971 151.201 247.936 150.955Z" fill="url(#paint15_radial_151_10197)" stroke="black" stroke-width="0.585938"/>
<path d="M210.097 128.086C210.958 131.613 213.8 134.209 216.519 136.412C216.278 134.684 215.991 132.955 215.974 131.209C215.974 124.312 216.132 117.41 215.939 110.508C215.06 109.764 214.181 109.025 213.366 108.217C212.189 106.928 211.134 105.539 210.044 104.186C210.062 107.654 209.868 111.135 210.085 114.604C210.056 119.092 209.827 123.598 210.097 128.086Z" fill="url(#paint16_radial_151_10197)" stroke="black" stroke-width="0.585938"/>
<path d="M201.068 240.082C201.918 238.852 202.686 237.562 203.5 236.309C205.82 239.584 204.221 243.756 205.498 247.336C205.967 248.42 207.344 247.975 208.252 248.215C208.867 247.535 209.945 247.113 210.08 246.111C210.484 243.264 209.113 240.598 208.199 237.984C207.555 236.104 207.789 234.064 207.613 232.113C207.303 231.855 206.687 231.346 206.377 231.094C205.773 231.305 205.17 231.521 204.566 231.738C204.074 232.23 203.594 232.74 203.137 233.268C201.508 236.15 200.107 239.168 198.197 241.887C199.457 241.846 200.43 241.143 201.068 240.082Z" fill="white" stroke="black" stroke-width="0.585938"/>
<path d="M219.48 192.832C220.102 195.621 221.83 197.977 223.676 200.104C223.916 200.156 224.408 200.273 224.654 200.332C224.695 191.924 224.824 183.521 224.754 175.113C222.762 173.771 220.922 172.219 219.375 170.373C219.223 172.992 219.228 175.617 218.982 178.236C219.246 183.094 218.396 188.045 219.48 192.832Z" fill="url(#paint17_radial_151_10197)" stroke="black" stroke-width="0.585938"/>
<path d="M235.223 215.525C235.347 210.762 235.376 205.998 235.376 201.234C236.067 195.662 235.616 190.02 235.774 184.412L235.499 184.5C233.261 183.158 231.151 181.582 229.411 179.631C229.259 179.467 228.948 179.145 228.796 178.98C228.696 184.951 228.889 190.934 228.409 196.893C228.356 199.922 228.198 202.969 228.62 205.98C229.522 209.877 231.872 213.328 235.223 215.525Z" fill="url(#paint18_radial_151_10197)" stroke="black" stroke-width="0.585938"/>
<path d="M246.491 218.174C246.684 216.557 246.889 214.934 246.877 213.305C246.877 207.258 247.141 201.205 246.924 195.152C244.358 193.986 242.002 192.363 240.104 190.266C239.911 190.131 239.53 189.855 239.342 189.715C239.372 195.996 239.295 202.277 239.249 208.559C239.301 212.133 238.469 215.771 239.559 219.27L239.723 219.803C240.667 223.289 243.133 226.043 245.911 228.223C246.198 228.264 246.778 228.346 247.065 228.387C245.993 225.082 246.684 221.572 246.491 218.174Z" fill="url(#paint19_radial_151_10197)" stroke="black" stroke-width="0.585938"/>
<path d="M257.519 248.437C257.636 240.609 257.536 232.764 257.97 224.947L257.659 224.484C257.747 224.186 257.917 223.576 258.005 223.277C258.187 217.359 258.105 211.436 258.216 205.518C258.216 204.375 258.198 203.238 258.187 202.102C255.861 200.971 253.845 199.354 251.929 197.643C251.73 197.361 251.331 196.793 251.132 196.512C250.98 198.17 251.009 199.852 250.716 201.498C250.587 204.176 250.529 206.859 250.687 209.537C250.259 220.541 250.575 231.58 250.323 242.596C249.866 248.004 254.32 252.182 258.614 254.672C258.093 252.621 257.378 250.588 257.519 248.437Z" fill="url(#paint20_radial_151_10197)" stroke="black" stroke-width="0.585938"/>
<path d="M209.589 177.094C210.304 179.127 211.693 180.826 213.158 182.373C213.515 182.672 213.879 182.971 214.248 183.27L214.511 183.475C214.705 183.621 215.103 183.92 215.302 184.066C215.302 176.256 215.619 168.416 215.22 160.623C213 158.742 211.019 156.592 209.455 154.137C209.466 155.789 209.478 157.441 209.379 159.094C209.554 165.088 208.904 171.135 209.589 177.094Z" fill="url(#paint21_radial_151_10197)" stroke="black" stroke-width="0.585938"/>
<path d="M123.033 24.5156C123.988 24.4277 124.99 24.1934 125.881 24.7148C126.303 24.7676 126.73 24.8203 127.158 24.873C125.102 24.2988 123.467 22.623 121.299 22.4238C119.57 22.8867 118.135 24.0645 116.582 24.9258C118.732 25.2246 120.936 25.0547 123.033 24.5156Z" fill="white" stroke="black" stroke-width="0.585938"/>
<path d="M95.3477 230.678C95.6582 230.953 95.957 231.234 96.25 231.527C96.3789 230.309 96.7949 229.172 97.457 228.146C98.3418 226.793 98.1133 225.041 98.8926 223.641C100.088 222.199 101.957 221.121 102.221 219.094C102.771 216.393 104.418 214.025 104.512 211.213C102.883 212.297 101.594 213.773 100.152 215.074C99.8418 212.268 99.6191 209.461 99.3848 206.648C98.3828 207.627 97.4043 208.641 96.5488 209.76C94.6328 211.957 95.2598 215.156 93.666 217.512C92.7871 218.859 92.8633 220.523 92.4004 222.018C91.8672 223.254 90.584 224.057 90.2617 225.41C89.8398 227.027 89.4414 228.656 89.1484 230.303C90.2734 229.916 91.293 229.236 92.4531 228.979C93.6074 229.137 94.5449 229.887 95.3477 230.678Z" fill="white" stroke="black" stroke-width="0.585938"/>
<path d="M194.636 211.365C194.589 213.059 194.882 214.734 195.667 216.252C196.61 218.139 196.364 220.605 198.034 222.105C198.884 223.061 200.149 223.84 200.319 225.223C200.577 226.77 200.94 228.305 201.854 229.617C202.077 230.08 202.522 231.012 202.745 231.475C202.938 231.328 203.337 231.035 203.536 230.889C204.386 230.256 205.306 229.523 206.419 229.477C207.556 229.723 208.522 230.455 209.63 230.813C209.231 228.873 208.61 226.98 208.229 225.035C207.503 224.115 206.46 223.324 206.249 222.111C205.962 220.688 205.909 219.176 205.101 217.922C203.929 216.105 204.028 213.861 203.337 211.881C202.458 209.988 200.958 208.488 199.487 207.047C199.499 209.906 199.042 212.736 198.726 215.578C197.278 214.254 195.942 212.824 194.636 211.365Z" fill="white" stroke="black" stroke-width="0.585938"/>
<path d="M84.2265 159.433C86.4472 157.552 88.4277 155.402 89.9922 152.947C89.9804 154.599 89.9687 156.252 90.0683 157.904C89.8925 163.898 90.5435 169.945 89.858 175.904C89.1425 177.937 87.7545 179.636 86.2896 181.184C85.9322 181.482 85.5689 181.781 85.1998 182.079L84.9361 182.285C84.7427 182.432 84.3443 182.731 84.1451 182.878C84.1445 175.066 83.8281 167.226 84.2265 159.433Z" fill="url(#paint22_radial_151_10197)" stroke="black" stroke-width="0.585938"/>
<path d="M74.6925 173.923C76.6841 172.582 78.5245 171.029 80.0714 169.183C80.2237 171.803 80.2179 174.428 80.464 177.046C80.2003 181.904 81.0499 186.855 79.9659 191.642C79.3442 194.431 77.6157 196.787 75.7706 198.914C75.5304 198.966 75.0382 199.083 74.7921 199.143C74.7511 190.734 74.6222 182.332 74.6925 173.923Z" fill="url(#paint23_radial_151_10197)" stroke="black" stroke-width="0.585938"/>
<path d="M63.6733 183.223L63.9481 183.31C66.1864 181.968 68.2957 180.393 70.0366 178.441C70.1889 178.277 70.4995 177.955 70.6518 177.791C70.752 183.761 70.5586 189.743 71.0385 195.702C71.0913 198.732 71.2495 201.779 70.8276 204.791C69.9258 208.686 67.5756 212.138 64.2241 214.335C64.101 209.572 64.0717 204.808 64.0717 200.044C63.3803 194.472 63.8309 188.83 63.6733 183.223Z" fill="url(#paint24_radial_151_10197)" stroke="black" stroke-width="0.585938"/>
<path d="M52.3828 227.197C53.4551 223.893 52.7631 220.383 52.9564 216.984C52.7631 215.367 52.558 213.744 52.5697 212.115C52.5697 206.068 52.3066 200.016 52.5229 193.963C55.0898 192.797 57.4447 191.173 59.3437 189.076C59.5371 188.942 59.918 188.666 60.1055 188.525C60.0762 194.807 60.1523 201.088 60.1992 207.369C60.1465 210.943 60.9785 214.582 59.8887 218.08L59.7252 218.613C58.7818 222.099 56.315 224.852 53.5371 227.033C53.25 227.074 52.6693 227.156 52.3828 227.197Z" fill="url(#paint25_radial_151_10197)" stroke="black" stroke-width="0.585938"/>
<path d="M40.832 253.482C41.3535 251.431 42.0678 249.398 41.9271 247.247C41.8105 239.42 41.9102 231.573 41.476 223.757L41.7865 223.294C41.6992 222.995 41.5287 222.386 41.4408 222.087C41.2592 216.168 41.3406 210.245 41.2299 204.327C41.2299 203.184 41.2475 202.047 41.2598 200.911C43.5854 199.78 45.601 198.163 47.5176 196.452C47.7168 196.171 48.1152 195.602 48.3139 195.321C48.4662 196.979 48.4375 198.661 48.7305 200.308C48.8588 202.985 48.9174 205.668 48.7592 208.346C49.1869 219.351 48.8705 230.39 49.123 241.405C49.5801 246.814 45.127 250.992 40.832 253.482Z" fill="url(#paint26_radial_151_10197)" stroke="black" stroke-width="0.585938"/>
<path d="M83.5098 140.103C85.7773 138.216 87.7168 135.995 89.6973 133.821C89.8379 137.296 89.7676 140.776 89.6211 144.251C89.6445 145.024 89.668 145.798 89.6914 146.577C89.4043 147.462 89.0176 148.323 88.5664 149.149C87.3822 151.212 85.7305 152.994 83.7201 154.276C83.7201 153.866 83.7143 153.041 83.7143 152.629C83.6557 150.42 83.6146 148.218 83.5854 146.009C83.5502 144.04 83.5332 142.071 83.5098 140.103Z" fill="url(#paint27_radial_151_10197)"/>
<path d="M74.123 146.583C76.0215 145.23 77.8555 143.794 79.7598 142.453C79.8359 144.087 79.8887 145.722 79.8945 147.357C79.9004 148.611 79.9063 149.865 79.9063 151.113C79.9121 152.648 79.942 154.177 79.942 155.712C79.9244 156.943 79.8887 158.179 79.7891 159.415C79.7539 159.526 79.6783 159.761 79.6426 159.878C78.7285 163.142 76.9941 166.23 74.2057 168.245C74.2461 167.671 74.2877 167.109 74.3287 166.54C74.2988 164.373 74.2291 162.21 74.235 160.048C74.2291 158.044 74.2115 156.04 74.1758 154.042C74.1465 152.46 74.1354 150.884 74.1295 149.302C74.1289 148.394 74.1289 147.486 74.123 146.583Z" fill="url(#paint28_radial_151_10197)"/>
<path d="M63.2433 152.923C65.2584 150.913 67.7785 149.197 70.6314 148.651C70.5318 150.638 70.4908 152.624 70.4849 154.61C70.4791 156.438 70.5207 158.26 70.5617 160.089C70.591 163.792 71.0597 167.7 69.2843 171.122C69.2433 171.216 69.1607 171.403 69.1197 171.491C67.9361 173.776 66.4074 175.997 64.1275 177.31C63.981 177.397 63.6881 177.579 63.5357 177.673C63.4947 173.513 63.5943 169.359 63.4713 165.199V164.548C63.4777 163.622 63.4888 162.703 63.4777 161.783C63.4777 160.897 63.4713 160.019 63.4654 159.14C63.3019 157.077 62.9152 154.991 63.2433 152.923Z" fill="url(#paint29_radial_151_10197)"/>
<path d="M51.7168 188.765C51.7988 187.506 51.9102 186.24 51.9629 184.981C52.0918 185.432 52.226 185.876 52.3613 186.328C52.3555 182.748 52.4258 179.162 52.373 175.582L52.3613 175.277C52.2975 173.578 52.2852 171.872 52.3086 170.173C52.1855 169.406 52.0625 168.632 51.9453 167.865L51.8809 167.373C51.8223 166.095 51.7754 164.818 51.7754 163.541C51.8053 162.205 51.8521 160.869 51.8926 159.539C54.5762 158.091 56.6504 155.766 59.3756 154.406C59.4107 155.531 59.4283 156.662 59.4283 157.787C59.416 158.32 59.3984 159.386 59.3926 159.914C59.3568 161.701 59.3867 163.494 59.416 165.281C59.4336 166.529 59.4512 167.783 59.4693 169.037C59.4863 170.045 59.5098 171.052 59.498 172.066C59.6275 175.13 59.6217 178.265 58.5664 181.195C58.2266 181.892 57.875 182.59 57.5533 183.305C56.0645 185.548 54.1543 187.558 51.7168 188.765Z" fill="url(#paint30_radial_151_10197)"/>
<path d="M39.7051 196.2C40.1445 194.723 40.5313 193.235 40.8412 191.735C40.7246 187.241 40.7592 182.753 40.7123 178.265C40.7 176.788 40.7123 175.312 40.6889 173.841C40.6719 172.704 40.6361 171.573 40.601 170.442C40.5723 168.925 40.584 167.413 40.5893 165.896C41.6674 165.222 42.7396 164.541 43.7885 163.839C44.9012 163.071 45.9389 162.21 46.9467 161.313C47.2695 161.331 47.9193 161.354 48.2422 161.366C48.2539 163.481 48.2357 165.597 48.2123 167.706C48.2064 169 48.2123 170.295 48.2182 171.597C48.224 173.237 48.224 174.878 48.2123 176.518C48.2064 178.609 48.2422 180.702 48.248 182.799C48.248 184.217 48.1895 185.641 47.9721 187.053C46.5371 191.073 43.39 194.173 39.7051 196.2Z" fill="url(#paint31_radial_151_10197)"/>
<path d="M82.9238 135.222C83.1641 133.494 83.4506 131.765 83.4688 130.019C83.4688 123.123 83.3105 116.22 83.5045 109.318C84.3834 108.574 85.2623 107.835 86.0768 107.027C87.2545 105.738 88.3092 104.349 89.399 102.996C89.3814 106.464 89.5748 109.945 89.358 113.414C89.3873 117.902 89.6158 122.408 89.3463 126.896C88.4844 130.423 85.6426 133.019 82.9238 135.222Z" fill="url(#paint32_radial_151_10197)" stroke="black" stroke-width="0.585938"/>
<path d="M72.8984 141.046C73.1914 140.05 73.4779 139.048 73.7475 138.052C73.8529 130.857 73.3725 123.638 73.8002 116.46C75.8334 115.072 77.6146 113.378 79.4252 111.726C79.5189 115.681 79.4486 119.648 79.7064 123.597C79.8647 126.011 79.8705 128.449 79.4721 130.839C79.3613 131.724 79.1967 132.603 78.9799 133.47C78.1068 136.388 76.1797 138.814 74.0229 140.9C73.7416 140.941 73.1791 141.011 72.8984 141.046Z" fill="url(#paint33_radial_151_10197)" stroke="black" stroke-width="0.585938"/>
<path d="M62.3164 147.222C62.6328 145.412 62.985 143.595 62.9785 141.75C62.9785 135.14 62.8262 128.531 63.043 121.927L63.1537 121.751L63.7631 121.306C64.2787 120.966 64.8061 120.644 65.3217 120.328C65.9545 119.953 66.5873 119.583 67.2553 119.285C67.625 119.15 68.3633 118.886 68.7318 118.751C69.0131 118.681 69.5879 118.541 69.875 118.47C69.9037 120.908 69.9805 123.345 69.9805 125.789C69.9746 126.515 69.9629 127.248 69.9395 127.974C69.9922 131.701 70.3262 135.486 69.3477 139.13C67.8828 142.453 65.627 145.552 62.3164 147.222Z" fill="url(#paint34_radial_151_10197)" stroke="black" stroke-width="0.585938"/>
<path d="M50.791 154.136C51.0137 153.011 51.2422 151.886 51.3711 150.75C51.4062 150.503 51.4707 150.011 51.5053 149.765C51.3236 143.783 51.476 137.794 51.2592 131.812C51.2533 130.798 51.1771 129.738 51.599 128.794C54.1889 127.494 56.3334 125.548 58.5242 123.703C58.6121 123.738 58.8002 123.802 58.8939 123.837C58.7645 127.74 59.0633 131.642 58.8939 135.544C59.0105 139.201 59.4916 143.062 57.9975 146.525C56.6674 149.847 54.0957 152.695 50.791 154.136Z" fill="url(#paint35_radial_151_10197)" stroke="black" stroke-width="0.585938"/>
<path d="M38.9961 161.126C39.5592 159.205 40.1979 157.259 40.192 155.238C40.2916 148.599 39.9283 141.955 40.1563 135.322C42.9922 134.343 44.6803 131.396 47.6041 130.751C47.5508 133.74 47.627 136.734 47.5977 139.728C47.7266 142.072 47.7207 144.416 47.7037 146.759C47.9668 150.544 46.4785 154.23 44.1939 157.189C42.7051 158.794 40.8834 160.031 38.9961 161.126Z" fill="url(#paint36_radial_151_10197)" stroke="black" stroke-width="0.585938"/>
<path d="M91.0586 56.0478L90.5957 55.9306C86.7572 54.9169 83.125 53.2646 79.7494 51.1904C76.1049 49.1689 72.5658 46.4677 68.2709 46.1396C63.6479 45.9989 59.9154 49.3154 57.0092 52.538C51.3555 59.2822 45.1146 65.7568 41.2422 73.7607C40.0346 76.3739 38.9336 79.1161 38.7221 82.0165C38.5346 96.665 39.5482 111.296 39.267 125.944C39.2143 127.544 38.6342 129.056 38.1191 130.55C41.1889 128.974 43.9486 126.606 45.3965 123.413C48.6068 115.983 45.3965 107.663 47.517 100.005C48.2377 98.329 49.2279 96.788 50.5404 95.5165C50.4766 96.9521 50.377 98.3876 50.3412 99.829C50.435 107.704 51.4961 115.62 50.183 123.454C50.3523 123.413 50.698 123.337 50.8686 123.296C55.0756 120.841 57.6537 116.382 58.3803 111.642C58.392 106.79 58.4857 101.903 59.6277 97.1572C60.0385 95.4521 60.5945 93.7763 61.3797 92.2118C61.5561 92.206 61.907 92.206 62.0828 92.2001C61.8303 99.665 62.5984 107.159 61.907 114.601C61.7963 115.298 61.6668 115.983 61.5438 116.681C62.5398 116.13 63.5008 115.497 64.327 114.712C67.1693 111.794 68.4051 107.833 69.5939 104.048C70.6135 99.4892 71.118 94.8251 72.243 90.29C72.3602 89.7216 72.7762 89.2997 73.1096 88.8544C73.2561 94.2392 73.174 99.624 73.1688 105.009C73.1453 105.87 73.0047 106.72 72.8699 107.575C72.7 108.642 72.5477 109.714 72.4129 110.792C72.7469 110.522 73.4207 109.989 73.7605 109.726C75.2078 108.442 76.4266 106.936 77.6049 105.413C79.0574 102.852 80.1355 100.093 80.7508 97.2099C81.6127 93.8759 81.5365 90.3896 82.3504 87.0439C83.4344 90.7353 83.4051 94.6083 83.2996 98.4169C83.2234 100.427 82.8309 102.407 82.4148 104.37L83.0178 104.077C84.7117 102.436 86.1174 100.532 87.26 98.4755C88.5432 96.1083 89.4279 93.5361 90.008 90.9111C90.2652 88.872 90.3303 86.8154 90.424 84.7646C90.6174 84.7763 91.0158 84.7939 91.215 84.8056C91.6955 88.3974 92.4748 92.1357 91.4436 95.7099C90.8699 97.79 90.6115 99.9404 90.7645 102.097C90.8406 103.854 90.8752 105.618 90.9045 107.382C90.6994 115.989 91.6902 124.579 91.2736 133.186C91.5607 142.292 91.4266 151.403 91.6258 160.509C96.3719 156.882 98.4514 150.477 97.7078 144.659C97.2918 141.665 96.7938 138.677 96.4422 135.677C95.5281 126.518 95.0652 117.249 96.015 108.079C96.185 106.309 96.2957 104.534 96.4779 102.765C97.157 99.1435 97.5033 95.4521 98.5691 91.913C99.1492 89.9677 104.843 88.0136 105.272 86.0331L114.768 58.6611C110.477 58.5597 97.1547 57.522 91.0586 56.0478Z" fill="url(#paint37_linear_151_10197)"/>
<path d="M103.257 148.043C104.027 151.773 103.876 155.62 103.855 159.41C103.31 163.247 103.023 167.121 102.501 170.964C102.367 171.784 102.249 172.611 102.121 173.437C101.195 178.71 99.9467 183.914 98.8744 189.158C98.8451 189.292 98.7807 189.55 98.7455 189.68C97.8959 193.025 98.0957 191.59 97.2695 194.941C97.2109 195.146 97.0879 195.562 97.0234 195.768C97.9844 196.957 97.8613 198.387 97.5977 199.787C98.2832 200.332 99.0625 200.73 99.8242 201.158C100.826 200.566 101.793 199.928 102.748 199.266C102.566 200.197 102.408 201.135 102.291 202.084C103.135 202.746 103.92 203.473 104.67 204.246C105.742 202.816 106.732 201.328 107.623 199.781C107.729 199.945 107.84 200.115 107.957 200.279C107.137 203.326 107.207 206.508 107.383 209.631C107.5 209.443 107.723 209.074 107.84 208.893C108.262 208.084 108.625 207.252 108.947 206.402C111.924 198.973 115.158 191.473 120.379 185.309C124.199 180.902 129.877 177.838 135.813 178.131C140.986 178.377 146.348 180.486 149.541 184.717C154.475 178.547 163.762 176.549 170.916 179.76C176.195 181.945 179.893 186.609 182.711 191.402C185.465 195.744 187.264 200.561 189.35 205.225C189.877 206.871 190.451 208.5 191.096 210.105C191.605 208.465 191.693 206.742 191.436 205.049C191.377 204.287 191.301 203.531 191.23 202.775C191.184 201.855 191.16 200.941 191.189 200.033C191.641 200.924 192.139 201.803 192.713 202.635C194.131 204.598 195.508 206.596 197.02 208.494C196.961 206.045 196.557 203.625 196.316 201.193C196.563 201.041 197.049 200.742 197.295 200.596C197.447 200.672 197.74 200.824 197.893 200.9C198.145 201.053 198.643 201.346 198.895 201.492C200.682 202.576 202.457 203.684 204.232 204.791C203.904 203.473 203.518 202.172 203.09 200.889C202.264 197.537 201.314 194.215 200.465 190.869C200.43 190.74 200.365 190.482 200.336 190.348C199.264 185.104 198.016 179.9 197.09 174.627C196.961 173.801 196.844 172.975 196.709 172.154C196.188 168.311 195.9 164.437 195.355 160.6C195.334 156.792 195.183 152.929 195.965 149.183C164.898 149.211 134.345 149.706 103.257 148.043Z" fill="url(#paint38_radial_151_10197)"/>
<path d="M121.808 9.99854C121.43 10.3753 121.067 10.769 120.742 11.2026C120.396 11.689 120.068 12.1929 119.723 12.6792C117.625 14.5952 114.672 15.9312 113.746 18.8257C113.125 20.1499 113.705 21.5679 113.904 22.9214C116.025 22.7456 118.018 21.9897 120.039 21.3862C122.184 21.248 124.206 21.9581 126.191 22.721C123.047 19.7151 121.755 14.7423 121.808 9.99854Z" fill="white"/>
<path d="M260.805 127.248C260.524 112.6 261.538 97.9691 261.35 83.3206C261.139 80.4203 260.037 77.6781 258.83 75.0648C254.957 67.0609 248.717 60.5863 243.063 53.8421C240.157 50.6195 236.424 47.3031 231.801 47.4437C227.506 47.7718 223.967 50.473 220.323 52.4945C216.948 54.5687 213.315 56.221 209.477 57.2347L209.014 57.3519C203.055 58.7933 196.498 58.8812 190.891 56.1273C187.053 54.2933 184.469 50.7953 181.686 47.7191C180.438 46.2249 179.5 44.5023 178.709 42.7328C177.291 39.6331 175.803 36.5687 174.303 33.5101C173.319 31.5589 172.293 29.6195 171.344 27.6507C167.518 20.5257 161.7 14.2093 154.282 10.7992C153.965 10.6585 153.332 10.3773 153.016 10.2367L153.057 9.80307C152.506 9.6683 151.955 9.52182 151.411 9.36947C154.891 9.58041 158.313 10.5238 161.477 11.9828C155.301 4.11947 144.192 1.50033 134.758 4.00815C132.625 4.58236 130.557 5.37924 128.565 6.3226C126.505 7.26713 124.473 8.39623 122.863 9.99877C122.81 14.7419 124.102 19.7154 127.246 22.7218C127.947 22.9908 128.643 23.2667 129.338 23.514C132.607 25.1956 135.115 28.0433 136.14 31.5999C136.861 34.7054 136.879 37.9808 136.275 41.1097C135.894 42.3988 135.39 43.6527 134.828 44.8773C133.451 47.7191 131.195 50.0042 128.804 52.014C125.699 54.4339 122.429 56.8831 118.498 57.721L118.334 57.724C116.548 58.6005 109.373 58.8138 106.33 58.7781L96.834 86.1501C96.7344 89.7947 100.509 93.3865 100.379 97.0251C99.7297 104.051 99.4068 111.14 100.151 118.166C100.374 120.304 100.467 122.449 100.737 124.582C100.907 126.258 101.077 127.933 101.294 129.609C101.545 131.414 101.756 133.224 102.008 135.029C102.688 139.107 103.409 143.185 104.059 147.269C104.157 147.643 104.233 148.019 104.311 148.395C135.4 150.058 165.953 149.564 197.019 149.535C197.094 149.175 197.166 148.816 197.259 148.459C197.909 144.375 198.63 140.297 199.31 136.219C199.562 134.414 199.773 132.604 200.025 130.799C200.241 129.123 200.411 127.448 200.581 125.772C200.851 123.639 200.945 121.494 201.167 119.356C201.911 112.33 201.589 105.241 200.939 98.2152C200.81 94.5765 200.054 90.9847 199.954 87.3402C200.382 89.3206 200.921 91.2718 201.501 93.2171C202.568 96.7562 202.913 100.448 203.593 104.069C203.775 105.838 203.886 107.614 204.056 109.383C205.005 118.553 204.542 127.823 203.628 136.981C203.277 139.981 202.779 142.969 202.363 145.963C201.618 151.782 203.698 158.186 208.445 161.813C208.644 152.707 208.509 143.596 208.796 134.491C208.38 125.883 209.37 117.293 209.165 108.686C209.195 106.922 209.23 105.159 209.306 103.401C209.458 101.244 209.2 99.0941 208.626 97.014C207.595 93.4398 208.374 89.7015 208.855 86.1097C209.054 86.098 209.452 86.0804 209.646 86.0687C209.739 88.1195 209.804 90.1761 210.062 92.2152C210.642 94.8402 211.527 97.4124 212.81 99.7796C213.952 101.836 215.359 103.741 217.052 105.381L217.655 105.674C217.239 103.711 216.847 101.731 216.771 99.721C216.665 95.9124 216.636 92.0394 217.72 88.348C218.534 91.6937 218.458 95.18 219.32 98.514C219.935 101.397 221.013 104.157 222.466 106.717C223.644 108.241 224.863 109.746 226.31 111.03C226.65 111.293 227.323 111.827 227.657 112.096C227.523 111.018 227.37 109.946 227.2 108.879C227.066 108.024 226.925 107.174 226.902 106.313C226.896 100.928 226.814 95.5433 226.96 90.1585C227.294 90.6038 227.71 91.0257 227.827 91.5941C228.952 96.1292 229.456 100.793 230.476 105.352C231.665 109.137 232.902 113.098 235.743 116.016C236.57 116.801 237.53 117.434 238.527 117.985C238.404 117.287 238.275 116.602 238.163 115.905C237.472 108.463 238.239 100.969 237.987 93.5042C238.163 93.5101 238.515 93.5101 238.691 93.516C239.476 95.0804 240.032 96.7562 240.443 98.4613C241.585 103.207 241.679 108.094 241.691 112.946C242.417 117.686 244.995 122.145 249.202 124.6C249.372 124.641 249.718 124.717 249.888 124.758C248.575 116.924 249.636 109.008 249.73 101.133C249.695 99.6917 249.595 98.2562 249.53 96.8206C250.843 98.0921 251.833 99.6331 252.554 101.309C254.675 108.967 251.464 117.287 254.675 124.717C256.122 127.91 258.882 130.278 261.952 131.854C261.438 130.36 260.857 128.848 260.805 127.248Z" fill="url(#paint39_linear_151_10197)"/>
<path d="M127.547 8.89459C126.176 9.09381 125.467 10.2305 125.449 11.5489C126.639 11.004 127.922 10.7403 129.234 10.7872C129.158 12.8907 129.545 15.0352 131.021 16.629C131.607 16.8633 132.187 17.1094 132.785 17.3087C133.061 17.004 133.605 16.3887 133.875 16.0782C133.113 15.9727 132.357 15.8497 131.602 15.7266C133.658 15.7149 136.025 15.8848 137.291 13.9102L137.32 13.1895C137.297 12.0176 137.572 10.8809 137.965 9.78522C138.926 9.33405 139.875 8.87116 140.824 8.39069C136.4 7.79303 131.895 7.79303 127.547 8.89459Z" fill="#29141C"/>
<path d="M117.994 17.4668C118.873 17.2676 119.67 16.8516 120.484 16.4824C120.496 16.2012 120.531 15.6387 120.543 15.3574C119.711 15.3926 118.879 15.4453 118.047 15.5098C118.023 16.1602 118.006 16.8105 117.994 17.4668Z" fill="#29141C"/>
<path d="M134.562 10.5687C134.326 10.3994 134.085 10.3156 133.839 10.2675C133.815 10.2523 133.792 10.2365 133.76 10.2283C133.512 10.1609 133.265 10.1533 133.015 10.1562C133.014 10.1556 133.011 10.155 133.01 10.155C132.987 10.1492 132.97 10.1568 132.949 10.1568C132.846 10.1586 132.743 10.1615 132.639 10.1627C132.634 10.1627 132.631 10.165 132.626 10.165C132.138 10.1802 131.686 10.3185 131.415 10.7105C131.331 10.8312 131.358 10.9478 131.432 11.0287C131.459 11.2291 131.731 11.3972 131.937 11.2179C132.639 10.6068 133.407 10.7843 134.194 11.1172C134.278 11.1529 134.359 11.1482 134.429 11.1213C134.691 11.1359 134.787 10.7299 134.562 10.5687Z" fill="white"/>
<path d="M217.51 267.633C217.838 266.93 218.178 266.232 218.523 265.541C218.863 265.641 219.549 265.852 219.889 265.951C219.971 266.197 220.135 266.695 220.217 266.941C219.338 267.246 218.436 267.492 217.51 267.633Z" fill="#C52C1D"/>
<path d="M227.822 261.633C228.391 261.756 228.965 261.885 229.539 262.014C229.498 262.325 229.416 262.946 229.375 263.256C228.695 263.368 228.021 263.479 227.342 263.596C227.5 262.94 227.658 262.284 227.822 261.633Z" fill="#C01C13"/>
<path d="M158.563 276.709C158.416 275.631 158.34 274.523 159.272 273.785C159.53 274.014 160.045 274.482 160.303 274.717C160.262 275.508 160.081 276.275 159.858 277.043C159.536 276.955 158.885 276.791 158.563 276.709Z" fill="#DA2B1C"/>
<path d="M66.0293 258.281C66.9961 258.275 67.957 258.264 68.9238 258.24C68.2734 258.85 68.2383 259.787 67.7871 260.525C67.166 260.514 66.5566 260.443 65.9473 260.309C65.9707 259.629 66 258.949 66.0293 258.281Z" fill="#C0251E"/>
<path d="M108.438 274.77C109.135 274.213 109.943 273.879 110.852 273.938C110.957 274.535 111.068 275.139 111.18 275.742C110.201 275.602 109.088 275.655 108.438 274.77Z" fill="#D2231D"/>
<path d="M130.451 276.896C131.213 276.879 131.969 276.855 132.73 276.844C132.578 277.348 132.279 278.361 132.127 278.865C131.482 278.777 130.838 278.695 130.188 278.613C130.275 278.039 130.363 277.465 130.451 276.896Z" fill="#EB160B"/>
<path d="M224.242 235.131C223.609 235.225 222.977 235.318 222.344 235.418C222.648 237.428 223.469 239.356 223.58 241.395C223.404 244.594 220.188 246.035 218.225 248.086C218.102 248.098 217.861 248.121 217.744 248.133C217.586 247.389 217.428 246.65 217.27 245.912C215.406 247.33 214.141 249.551 211.82 250.313C212.061 249.557 212.312 248.807 212.564 248.063C210.924 247.447 209.898 248.719 209.189 250.002C208.574 250.84 207.59 251.238 206.688 251.684C206.646 251.291 206.559 250.506 206.512 250.113C204.238 249.135 203.336 246.815 203.506 244.459C203.172 244.588 202.504 244.84 202.17 244.963C195.813 247.453 189.197 249.158 182.605 250.887C173.611 252.797 164.488 254.109 155.301 254.502C152.846 254.274 151.609 256.822 149.553 257.596C147.385 256.981 146.049 254.397 143.582 254.438C136.773 254.027 129.965 253.389 123.273 252.029C113.758 250.172 104.342 247.617 95.3711 243.92C95.0723 246.234 94.5273 248.895 91.9609 249.662C91.873 250.107 91.6855 251.004 91.5977 251.455C89.7109 250.213 88.7969 247.459 86.3535 247.266C86.3887 248.162 86.4238 249.059 86.459 249.955C85.8262 249.516 85.1816 249.106 84.5723 248.631C83.4883 247.494 82.416 246.352 81.2559 245.297C81.2148 245.871 81.1387 247.02 81.0977 247.594C78.9238 246.627 77.1367 244.904 75.7598 242.994C74.2656 240.586 75.8066 237.879 76.4102 235.465C76.0293 234.621 75.1211 234.223 74.3535 234.838C70.4863 237.457 66.584 240.029 62.7051 242.625C61.3398 243.598 59.8398 244.395 58.6211 245.555C58.1523 246.416 58.3809 247.465 58.2988 248.414C58.3164 255.299 58.498 262.184 58.3984 269.068C61.1289 270.984 64.1934 272.326 67.1582 273.832C75.2676 277.834 83.6875 281.227 92.3242 283.916C101.576 286.682 111.004 288.92 120.561 290.344C125.67 290.982 130.779 291.615 135.912 292.031C139.187 292.283 142.521 291.979 145.744 292.682C147.391 293.297 148.879 296.262 150.625 294.211C151.521 293.584 152.295 292.494 153.52 292.6C162.104 292.242 170.687 291.674 179.184 290.35C190.158 288.809 200.969 286.119 211.469 282.586C217.902 280.471 224.178 277.898 230.289 274.981C231.408 274.465 232.521 273.955 233.629 273.422C235.762 272.391 237.836 271.26 239.939 270.176C240.238 262.295 240.449 254.426 240.537 246.539C235.211 242.59 229.592 239.051 224.242 235.131ZM188.916 267C189.139 266.766 189.572 266.303 189.789 266.074C190.211 266.121 191.061 266.215 191.488 266.262C191.459 266.631 191.395 267.363 191.365 267.727C190.738 268.471 189.66 267.943 188.84 268.061C188.049 268.811 186.994 268.77 185.998 268.6C185.588 266.572 187.533 266.52 188.916 267ZM174.49 264.152L173.775 264.879C174.021 270.07 174.977 275.25 175.65 280.418C174.684 280.652 173.225 281.561 172.691 280.231C172.299 273.908 171.063 267.65 170.764 261.316C172.029 262.225 173.412 263.004 174.49 264.152ZM132.66 273.691C133.322 270.592 133.662 267.381 133.141 264.234C134.189 263.449 135.232 262.652 136.287 261.873C136.211 267.65 135.35 273.387 134.969 279.147C136.182 279.334 137.395 279.527 138.613 279.727C138.795 278.631 138.982 277.535 139.164 276.44C138.76 275.947 138.355 275.467 137.945 274.981C139.199 274.131 140.418 273.229 141.619 272.309C141.689 274.775 141.584 277.248 141.461 279.715C142.24 279.756 143.02 279.803 143.799 279.85C143.84 278.748 143.887 277.647 143.939 276.551C143.617 276.135 143.289 275.719 142.967 275.309C144.156 274.295 145.375 273.328 146.623 272.402C146.646 272.76 146.688 273.469 146.705 273.826C146.611 276.551 146.893 279.316 146.289 282C139.768 282.41 133.193 281.174 126.66 280.828C126.912 279.633 127.152 278.438 127.422 277.248C128.154 274.975 130.732 274.506 132.66 273.691ZM123.502 260.895C123.748 260.93 124.234 260.994 124.48 261.029C125.219 261.967 125.975 262.898 126.742 263.818C126.473 264.018 125.934 264.404 125.67 264.598C125.336 266.402 125.008 268.213 124.756 270.035C124.305 273.498 123.801 276.949 123.215 280.395C122.377 280.166 121.545 279.943 120.707 279.727C121.404 273.416 122.787 267.199 123.502 260.895ZM70.6797 245.707C70.6445 244.975 70.6152 244.242 70.5918 243.51C70.8965 243.492 71.4941 243.463 71.7988 243.445C72.1152 243.639 72.748 244.025 73.0645 244.219C72.918 245.221 72.5781 246.117 71.2891 245.953C71.7227 246.598 71.8164 247.272 71.5645 247.969C71.0664 248.022 70.0645 248.139 69.5664 248.197C69.1328 247.143 69.0625 245.52 70.6797 245.707ZM61.123 260.268C62.5176 259.5 63.0742 257.953 64.0996 256.834C65.5879 255.492 67.709 255.92 69.4902 256.283C71.2246 253.899 72.2793 251.127 73.5332 248.479C73.3691 248.25 73.0527 247.799 72.8945 247.57C74.3652 246.979 75.8887 246.545 77.4414 246.234C74.9922 252.316 71.7285 258.041 69.209 264.088C66.4082 263.045 63.8184 261.539 61.123 260.268ZM118.428 279.334C115.035 279.041 111.736 278.15 108.396 277.535C105.109 276.949 101.969 275.631 98.6113 275.443C96.8652 274.523 94.9902 273.867 93.0684 273.416L92.6758 273.686C91.1406 274.986 89.1953 275.549 87.3145 276.129C86.5 274.664 85.6562 273.211 84.7656 271.793C84.7773 271.488 84.7949 270.891 84.8008 270.586C80.4062 268.94 75.9414 267.381 71.7461 265.272C71.752 264.568 71.7871 263.877 71.8516 263.186C72.8242 263.408 73.7969 263.678 74.7168 264.082C79.1641 266.057 83.7109 267.815 88.334 269.35C87.8945 270.574 87.4258 271.928 88.3867 273.041C88.7441 272.936 89.459 272.731 89.8164 272.625C90.2207 271.318 91.0645 270.053 91.0352 268.67C90.1738 267.773 88.8848 267.516 87.7715 267.059C82.8672 265.371 78.0977 263.338 73.3105 261.357C74.2187 258.516 75.7539 255.932 76.8027 253.143C77.5645 254.484 78.2793 255.85 78.9238 257.25C77.8809 257.936 76.7734 258.785 76.8613 260.18C81.8828 262.729 87.373 264.211 92.5293 266.455C93.584 267.779 93.7305 269.443 93.5137 271.066C94.4746 271.354 95.4473 271.629 96.4141 271.904C96.584 269.584 97.498 267.053 96.2383 264.885C95.6465 263.461 94.2871 262.647 93.127 261.732C94.2871 261.316 95.4648 260.953 96.6777 260.754C97.5098 262.242 98.6523 263.684 98.7754 265.453C99.0273 267.826 98.3066 270.147 98.0957 272.49C99.0801 272.789 100.059 273.106 101.043 273.416C101.664 271.916 101.893 270.299 101.576 268.693C102.807 268.037 104.043 267.393 105.279 266.76C105.221 269.332 104.113 271.729 103.914 274.295C104.482 274.354 105.613 274.477 106.182 274.541C106.258 274.148 106.404 273.363 106.475 272.971C107.969 272.098 109.498 271.266 111.121 270.662C112.234 272.408 114.191 273.908 113.928 276.199C114.525 276.428 115.123 276.662 115.727 276.897C116.775 273.609 117.104 270.164 117.865 266.807C118.211 265.318 118.311 263.783 117.9 262.301C119.09 261.451 120.326 260.678 121.609 259.986C120.766 266.473 119.148 272.836 118.428 279.334ZM141.76 286.377C141.18 285.984 140.992 285.281 140.676 284.707C141.168 284.467 142.152 283.986 142.639 283.746C143.014 284.414 143.377 285.094 143.74 285.779C143.09 286.014 142.428 286.213 141.76 286.377ZM151.58 282.229C151.545 283.025 151.516 283.828 151.486 284.631C149.717 286.834 146.576 286.852 144.35 285.334L144.695 285.082C146.008 284.918 147.9 285.668 148.557 284.086C149.289 282.041 148.955 279.82 149.031 277.693C148.727 277.4 148.117 276.82 147.813 276.527C148.152 276.246 148.826 275.69 149.16 275.408C149.957 274.746 150.736 274.072 151.527 273.41C151.563 275.549 151.568 277.688 151.533 279.832C153.607 279.838 155.682 279.832 157.756 279.785C156.684 277.389 154.633 275.461 154.158 272.813C154.984 272.813 155.816 272.813 156.654 272.818C157.533 272.068 158.547 270.428 159.883 271.236C161.289 272.227 162.854 272.854 164.605 272.754C163.439 275.051 162.279 277.365 161.254 279.738C163.346 279.533 165.443 279.305 167.541 279.176C167.359 275.168 166.891 271.184 166.627 267.182C166.668 266.215 165.93 265.512 165.461 264.75C166.422 263.731 167.377 262.699 168.32 261.662C168.607 262.729 168.889 263.807 169.012 264.908C169.187 270.416 170.354 275.854 170.365 281.373C169.393 281.408 168.42 281.438 167.453 281.49C162.18 282.012 156.883 282.158 151.58 282.229ZM183.396 279.369C180.982 279.035 179.107 277.119 177.08 275.883C178.756 275.273 180.449 274.441 181.574 273.006C182.576 271.606 182.975 269.906 183.572 268.318C184.305 271.096 182.881 273.604 181.58 275.936C182.195 276.293 182.816 276.662 183.432 277.031C187.668 276.357 191.893 275.531 196.035 274.412C195.414 272.525 195.49 270.111 193.539 269.016C194.494 267.82 195.42 266.607 196.381 265.418C197.313 268.963 198.285 272.496 199.123 276.065C193.908 277.283 188.693 278.613 183.396 279.369ZM196.404 256.594C197.723 257.004 198.988 257.566 200.236 258.17C200.025 259.4 199.902 260.684 200.412 261.873C201.801 266.027 202.656 270.363 204.285 274.43C203.447 275.016 202.422 275.133 201.449 275.315C199.85 269.051 198.004 262.852 196.404 256.594ZM204.836 278.9C203.957 278.379 203.031 277.957 202.1 277.559C203.277 277.576 204.484 277.699 205.65 277.418C206.729 276.768 206.846 275.432 206.465 274.348C205.873 272.385 205.562 270.164 203.934 268.74C204.643 267.346 205.504 266.045 206.318 264.715C207.227 268.336 208.885 271.758 209.459 275.461C209.049 277.6 206.828 278.695 204.836 278.9ZM218.119 270.188C215.869 270.949 213.625 271.729 211.363 272.455C210.098 269.15 209.096 265.758 207.895 262.43C207.098 259.506 205.891 256.705 205.188 253.758C205.604 253.904 206.02 254.057 206.436 254.221C207.402 254.596 208.375 254.977 209.348 255.346C209.154 256.143 208.738 256.975 209.107 257.795C210.402 261.645 211.773 265.471 213.104 269.315C213.848 269.197 214.598 269.092 215.348 268.992C215.195 268.354 215.02 267.715 214.85 267.094C215.641 265.6 216.408 264.094 217.234 262.623C218.869 263.115 220.492 263.66 222.115 264.205C222.648 265.436 223.182 266.666 223.709 267.902C221.857 268.693 220 269.467 218.119 270.188ZM226.141 267.018C225.654 266.18 225.18 265.336 224.623 264.551C224.641 264.047 224.682 263.045 224.699 262.541C224.992 262.037 225.291 261.539 225.584 261.041C224.787 260.783 223.996 260.531 223.205 260.285C222.104 258.188 221.336 255.943 220.311 253.816C219.994 252.955 219.016 252.832 218.295 252.492C218.998 251.092 219.619 249.656 220.199 248.203C220.369 248.221 220.715 248.244 220.885 248.256C221.752 250.74 222.924 253.102 223.926 255.533C224.465 256.717 224.887 258.129 226.152 258.756C227.395 258.522 227.23 256.975 226.762 256.143C225.268 253.072 223.926 249.926 222.35 246.891C223.949 247.324 225.543 247.793 227.131 248.279C226.516 251.578 229.187 254.127 230.084 257.109C229.703 257.924 229.422 258.785 229.27 259.67C230.014 259.781 230.764 259.893 231.514 260.01C232.1 261.252 232.691 262.494 233.283 263.736C230.945 264.92 228.543 265.969 226.141 267.018ZM235.92 262.383C235.826 262.518 235.645 262.793 235.557 262.928C233.559 258.445 231.145 254.156 229.094 249.697C228.391 248.01 227.078 246.551 226.961 244.664C228.297 245.268 229.703 245.731 231.168 245.9C231.174 246.721 230.811 247.635 231.326 248.385C233.482 252.791 235.973 257.051 237.895 261.563C237.238 261.838 236.576 262.107 235.92 262.383Z" fill="#C9231D"/>
<path d="M132.609 284.033C133.008 283.845 133.816 283.464 134.215 283.277C134.52 283.605 135.123 284.267 135.422 284.595C136.143 284.085 136.945 283.746 137.818 283.605C138.053 284.22 138.914 285.134 138.082 285.679C137.496 286.494 136.529 285.937 135.85 285.609C134.818 285.498 133.781 285.65 132.75 285.621C132.697 285.087 132.65 284.56 132.609 284.033Z" fill="#F5FCF4"/>
<path d="M130.514 266.37C131.146 266.37 131.657 265.862 131.657 265.235C131.657 264.608 131.146 264.099 130.514 264.099C129.883 264.099 129.371 264.608 129.371 265.235C129.371 265.862 129.883 266.37 130.514 266.37Z" fill="white"/>
<path d="M130.149 269.027C130.78 269.027 131.292 268.519 131.292 267.891C131.292 267.264 130.78 266.756 130.149 266.756C129.518 266.756 129.006 267.264 129.006 267.891C129.006 268.519 129.518 269.027 130.149 269.027Z" fill="white"/>
<path d="M105.68 266.175C106.312 266.175 106.823 265.667 106.823 265.039C106.823 264.412 106.312 263.904 105.68 263.904C105.049 263.904 104.537 264.412 104.537 265.039C104.537 265.667 105.049 266.175 105.68 266.175Z" fill="white"/>
<path d="M102.78 265.383C103.411 265.383 103.923 264.875 103.923 264.248C103.923 263.621 103.411 263.112 102.78 263.112C102.149 263.112 101.637 263.621 101.637 264.248C101.637 264.875 102.149 265.383 102.78 265.383Z" fill="white"/>
<path d="M188.865 103.895C183.085 86.6393 168.623 75.1813 149.516 75.1813C145.289 75.1813 144.13 75.0987 140.123 76.3374L139.161 76.6579L139.054 78.2469C138.804 81.8247 138.519 85.4762 138.243 89.0077C137.989 92.2608 137.735 95.5175 137.502 98.7753L137.383 100.439L139.048 100.341C141.606 100.193 141.259 100.215 143.888 100.215C156.762 100.215 170.274 100.899 187.602 104.7L189.235 105.047L188.865 103.895Z" fill="url(#paint40_linear_151_10197)" stroke="#7AA35D" stroke-width="2.34375"/>
<path d="M188.865 128.354C183.085 145.609 168.623 157.067 149.516 157.067C145.289 157.067 144.13 157.15 140.123 155.911L139.161 155.59L139.054 154.001C138.804 150.424 138.519 146.772 138.243 143.241C137.989 139.988 137.735 136.731 137.502 133.473L137.383 131.81L139.048 131.907C141.606 132.056 141.259 132.033 143.888 132.033C156.762 132.033 170.274 131.349 187.602 127.549L189.235 127.201L188.865 128.354Z" fill="url(#paint41_linear_151_10197)" stroke="black" stroke-width="2.34375"/>
<path d="M189.714 105.126C172.584 101.369 153.419 99.0321 135.749 100.06C134.921 111.64 134.374 120.066 135.069 131.544C152.775 133.761 172.559 133.853 189.714 129.932C190.844 126.619 190.8 122.601 190.8 116.133C190.8 111.631 191.069 109.172 189.714 105.126Z" fill="#FBF7F5"/>
<path d="M135.831 132.475C135.136 120.997 135.683 109.404 136.511 97.8241C137.002 90.9669 137.586 84.1149 138.063 77.2935C121.53 82.4017 109.518 97.8054 109.518 116.016C109.518 134.61 122.047 150.269 139.12 155.038C137.286 147.592 136.29 140.058 135.831 132.475Z" fill="url(#paint42_linear_151_10197)" stroke="#F03924" stroke-width="2.34375"/>
<path d="M150.041 160.313C174.506 160.313 194.338 140.48 194.338 116.016C194.338 91.5511 174.506 71.7188 150.041 71.7188C125.577 71.7188 105.744 91.5511 105.744 116.016C105.744 140.48 125.577 160.313 150.041 160.313Z" stroke="#E4E4E4" stroke-width="7.03125"/>
<path d="M150.016 162.891C175.904 162.891 196.891 141.904 196.891 116.016C196.891 90.1273 175.904 69.1406 150.016 69.1406C124.127 69.1406 103.141 90.1273 103.141 116.016C103.141 141.904 124.127 162.891 150.016 162.891Z" stroke="black" stroke-width="2.92969"/>
<path d="M150.628 62.748L151.901 66.665H156.021L152.688 69.0867L153.961 73.0037L150.628 70.5826L147.296 73.0037L148.569 69.0867L145.236 66.665H149.355L150.628 62.748Z" fill="white" stroke="black" stroke-width="1.17188"/>
<path d="M109.368 81.9689L113.144 83.6153L115.876 80.5327L115.477 84.6325L119.253 86.279L115.231 87.1661L114.832 91.2659L112.745 87.7151L108.723 88.6022L111.455 85.5202L109.368 81.9689Z" fill="white" stroke="black" stroke-width="1.17188"/>
<path d="M97.793 126.405L101.407 124.429L100.643 120.381L103.64 123.207L107.254 121.23L105.492 124.953L108.489 127.779L104.404 127.254L102.642 130.977L101.879 126.93L97.793 126.405Z" fill="white" stroke="black" stroke-width="1.17188"/>
<path d="M126.346 163.616L126.95 159.542L123.262 157.708L127.323 157.024L127.928 152.949L129.834 156.601L133.896 155.916L131.012 158.857L132.918 162.509L129.229 160.675L126.346 163.616Z" fill="white" stroke="black" stroke-width="1.17188"/>
<path d="M171.913 164.526L169.245 161.388L165.436 162.956L167.596 159.449L164.928 156.312L168.93 157.281L171.091 153.774L171.404 157.881L175.408 158.851L171.599 160.419L171.913 164.526Z" fill="white" stroke="black" stroke-width="1.17188"/>
<path d="M201.106 128.184L196.989 128.321L195.847 132.279L194.445 128.406L190.328 128.543L193.578 126.013L192.176 122.139L195.586 124.448L198.836 121.917L197.695 125.875L201.106 128.184Z" fill="white" stroke="black" stroke-width="1.17188"/>
<path d="M191.183 83.2463L188.898 86.674L191.453 89.9055L187.487 88.7928L185.204 92.2205L185.037 88.1055L181.07 86.9922L184.933 85.5619L184.765 81.4463L187.32 84.6772L191.183 83.2463Z" fill="white" stroke="black" stroke-width="1.17188"/>
</g>
<defs>
<radialGradient id="paint0_radial_151_10197" cx="0" cy="0" r="1" gradientUnits="userSpaceOnUse" gradientTransform="translate(148.258 115.722) scale(126.857 126.857)">
<stop offset="0.5294" stop-color="#C7BCBC"/>
<stop offset="0.5374" stop-color="#C9BEBE"/>
<stop offset="0.6537" stop-color="#E0DADA"/>
<stop offset="0.7701" stop-color="#F1EFEF"/>
<stop offset="0.8858" stop-color="#FCFBFB"/>
<stop offset="1" stop-color="white"/>
</radialGradient>
<radialGradient id="paint1_radial_151_10197" cx="0" cy="0" r="1" gradientUnits="userSpaceOnUse" gradientTransform="translate(148.258 115.722) scale(126.857 126.857)">
<stop offset="0.5294" stop-color="#C7BCBC"/>
<stop offset="0.5374" stop-color="#C9BEBE"/>
<stop offset="0.6537" stop-color="#E0DADA"/>
<stop offset="0.7701" stop-color="#F1EFEF"/>
<stop offset="0.8858" stop-color="#FCFBFB"/>
<stop offset="1" stop-color="white"/>
</radialGradient>
<radialGradient id="paint2_radial_151_10197" cx="0" cy="0" r="1" gradientUnits="userSpaceOnUse" gradientTransform="translate(148.258 115.722) scale(126.857 126.857)">
<stop offset="0.5294" stop-color="#C7BCBC"/>
<stop offset="0.5374" stop-color="#C9BEBE"/>
<stop offset="0.6537" stop-color="#E0DADA"/>
<stop offset="0.7701" stop-color="#F1EFEF"/>
<stop offset="0.8858" stop-color="#FCFBFB"/>
<stop offset="1" stop-color="white"/>
</radialGradient>
<radialGradient id="paint3_radial_151_10197" cx="0" cy="0" r="1" gradientUnits="userSpaceOnUse" gradientTransform="translate(148.258 115.722) scale(126.857 126.857)">
<stop offset="0.5294" stop-color="#C7BCBC"/>
<stop offset="0.5374" stop-color="#C9BEBE"/>
<stop offset="0.6537" stop-color="#E0DADA"/>
<stop offset="0.7701" stop-color="#F1EFEF"/>
<stop offset="0.8858" stop-color="#FCFBFB"/>
<stop offset="1" stop-color="white"/>
</radialGradient>
<radialGradient id="paint4_radial_151_10197" cx="0" cy="0" r="1" gradientUnits="userSpaceOnUse" gradientTransform="translate(148.258 115.722) scale(126.857 126.857)">
<stop offset="0.5294" stop-color="#C7BCBC"/>
<stop offset="0.5374" stop-color="#C9BEBE"/>
<stop offset="0.6537" stop-color="#E0DADA"/>
<stop offset="0.7701" stop-color="#F1EFEF"/>
<stop offset="0.8858" stop-color="#FCFBFB"/>
<stop offset="1" stop-color="white"/>
</radialGradient>
<radialGradient id="paint5_radial_151_10197" cx="0" cy="0" r="1" gradientUnits="userSpaceOnUse" gradientTransform="translate(148.258 115.722) scale(126.857 126.857)">
<stop offset="0.5294" stop-color="#C7BCBC"/>
<stop offset="0.5374" stop-color="#C9BEBE"/>
<stop offset="0.6537" stop-color="#E0DADA"/>
<stop offset="0.7701" stop-color="#F1EFEF"/>
<stop offset="0.8858" stop-color="#FCFBFB"/>
<stop offset="1" stop-color="white"/>
</radialGradient>
<radialGradient id="paint6_radial_151_10197" cx="0" cy="0" r="1" gradientUnits="userSpaceOnUse" gradientTransform="translate(148.257 115.722) scale(126.857)">
<stop offset="0.5294" stop-color="#C7BCBC"/>
<stop offset="0.5374" stop-color="#C9BEBE"/>
<stop offset="0.6537" stop-color="#E0DADA"/>
<stop offset="0.7701" stop-color="#F1EFEF"/>
<stop offset="0.8858" stop-color="#FCFBFB"/>
<stop offset="1" stop-color="white"/>
</radialGradient>
<radialGradient id="paint7_radial_151_10197" cx="0" cy="0" r="1" gradientUnits="userSpaceOnUse" gradientTransform="translate(247.867 65.0395) scale(123.638 123.638)">
<stop offset="0.6878" stop-color="#9B7932"/>
<stop offset="0.7225" stop-color="#A28240"/>
<stop offset="0.7885" stop-color="#B49B66"/>
<stop offset="0.879" stop-color="#D2C3A3"/>
<stop offset="0.9896" stop-color="#FBFAF7"/>
<stop offset="1" stop-color="white"/>
</radialGradient>
<radialGradient id="paint8_radial_151_10197" cx="0" cy="0" r="1" gradientUnits="userSpaceOnUse" gradientTransform="translate(247.866 65.0395) scale(123.638 123.638)">
<stop offset="0.6878" stop-color="#9B7932"/>
<stop offset="0.7225" stop-color="#A28240"/>
<stop offset="0.7885" stop-color="#B49B66"/>
<stop offset="0.879" stop-color="#D2C3A3"/>
<stop offset="0.9896" stop-color="#FBFAF7"/>
<stop offset="1" stop-color="white"/>
</radialGradient>
<radialGradient id="paint9_radial_151_10197" cx="0" cy="0" r="1" gradientUnits="userSpaceOnUse" gradientTransform="translate(247.867 65.0396) scale(123.638 123.638)">
<stop offset="0.6878" stop-color="#9B7932"/>
<stop offset="0.7225" stop-color="#A28240"/>
<stop offset="0.7885" stop-color="#B49B66"/>
<stop offset="0.879" stop-color="#D2C3A3"/>
<stop offset="0.9896" stop-color="#FBFAF7"/>
<stop offset="1" stop-color="white"/>
</radialGradient>
<radialGradient id="paint10_radial_151_10197" cx="0" cy="0" r="1" gradientUnits="userSpaceOnUse" gradientTransform="translate(247.867 65.0391) scale(123.639 123.638)">
<stop offset="0.6878" stop-color="#9B7932"/>
<stop offset="0.7225" stop-color="#A28240"/>
<stop offset="0.7885" stop-color="#B49B66"/>
<stop offset="0.879" stop-color="#D2C3A3"/>
<stop offset="0.9896" stop-color="#FBFAF7"/>
<stop offset="1" stop-color="white"/>
</radialGradient>
<radialGradient id="paint11_radial_151_10197" cx="0" cy="0" r="1" gradientUnits="userSpaceOnUse" gradientTransform="translate(247.868 65.0395) scale(123.638 123.638)">
<stop offset="0.6878" stop-color="#9B7932"/>
<stop offset="0.7225" stop-color="#A28240"/>
<stop offset="0.7885" stop-color="#B49B66"/>
<stop offset="0.879" stop-color="#D2C3A3"/>
<stop offset="0.9896" stop-color="#FBFAF7"/>
<stop offset="1" stop-color="white"/>
</radialGradient>
<radialGradient id="paint12_radial_151_10197" cx="0" cy="0" r="1" gradientUnits="userSpaceOnUse" gradientTransform="translate(260.757 25.1953) scale(120.317 120.317)">
<stop offset="0.819" stop-color="#C7BCBC"/>
<stop offset="0.8625" stop-color="#D0C7C7"/>
<stop offset="0.9377" stop-color="#E7E3E3"/>
<stop offset="1" stop-color="white"/>
</radialGradient>
<radialGradient id="paint13_radial_151_10197" cx="0" cy="0" r="1" gradientUnits="userSpaceOnUse" gradientTransform="translate(260.756 25.1953) scale(120.317 120.317)">
<stop offset="0.819" stop-color="#C7BCBC"/>
<stop offset="0.8625" stop-color="#D0C7C7"/>
<stop offset="0.9377" stop-color="#E7E3E3"/>
<stop offset="1" stop-color="white"/>
</radialGradient>
<radialGradient id="paint14_radial_151_10197" cx="0" cy="0" r="1" gradientUnits="userSpaceOnUse" gradientTransform="translate(260.757 25.1953) scale(120.317 120.317)">
<stop offset="0.819" stop-color="#C7BCBC"/>
<stop offset="0.8625" stop-color="#D0C7C7"/>
<stop offset="0.9377" stop-color="#E7E3E3"/>
<stop offset="1" stop-color="white"/>
</radialGradient>
<radialGradient id="paint15_radial_151_10197" cx="0" cy="0" r="1" gradientUnits="userSpaceOnUse" gradientTransform="translate(260.757 25.1953) scale(120.317 120.317)">
<stop offset="0.819" stop-color="#C7BCBC"/>
<stop offset="0.8625" stop-color="#D0C7C7"/>
<stop offset="0.9377" stop-color="#E7E3E3"/>
<stop offset="1" stop-color="white"/>
</radialGradient>
<radialGradient id="paint16_radial_151_10197" cx="0" cy="0" r="1" gradientUnits="userSpaceOnUse" gradientTransform="translate(260.757 25.1953) scale(120.317 120.317)">
<stop offset="0.819" stop-color="#C7BCBC"/>
<stop offset="0.8625" stop-color="#D0C7C7"/>
<stop offset="0.9377" stop-color="#E7E3E3"/>
<stop offset="1" stop-color="white"/>
</radialGradient>
<radialGradient id="paint17_radial_151_10197" cx="0" cy="0" r="1" gradientUnits="userSpaceOnUse" gradientTransform="translate(328.728 128.32) scale(134.965 134.965)">
<stop offset="0.8054" stop-color="#C7BCBC"/>
<stop offset="0.8087" stop-color="#C9BEBE"/>
<stop offset="0.8568" stop-color="#E0DADA"/>
<stop offset="0.905" stop-color="#F1EFEF"/>
<stop offset="0.9528" stop-color="#FCFBFB"/>
<stop offset="1" stop-color="white"/>
</radialGradient>
<radialGradient id="paint18_radial_151_10197" cx="0" cy="0" r="1" gradientUnits="userSpaceOnUse" gradientTransform="translate(328.727 128.32) scale(134.965 134.965)">
<stop offset="0.8054" stop-color="#C7BCBC"/>
<stop offset="0.8087" stop-color="#C9BEBE"/>
<stop offset="0.8568" stop-color="#E0DADA"/>
<stop offset="0.905" stop-color="#F1EFEF"/>
<stop offset="0.9528" stop-color="#FCFBFB"/>
<stop offset="1" stop-color="white"/>
</radialGradient>
<radialGradient id="paint19_radial_151_10197" cx="0" cy="0" r="1" gradientUnits="userSpaceOnUse" gradientTransform="translate(328.727 128.32) scale(134.965 134.965)">
<stop offset="0.8054" stop-color="#C7BCBC"/>
<stop offset="0.8087" stop-color="#C9BEBE"/>
<stop offset="0.8568" stop-color="#E0DADA"/>
<stop offset="0.905" stop-color="#F1EFEF"/>
<stop offset="0.9528" stop-color="#FCFBFB"/>
<stop offset="1" stop-color="white"/>
</radialGradient>
<radialGradient id="paint20_radial_151_10197" cx="0" cy="0" r="1" gradientUnits="userSpaceOnUse" gradientTransform="translate(328.728 128.32) scale(134.965 134.965)">
<stop offset="0.8054" stop-color="#C7BCBC"/>
<stop offset="0.8087" stop-color="#C9BEBE"/>
<stop offset="0.8568" stop-color="#E0DADA"/>
<stop offset="0.905" stop-color="#F1EFEF"/>
<stop offset="0.9528" stop-color="#FCFBFB"/>
<stop offset="1" stop-color="white"/>
</radialGradient>
<radialGradient id="paint21_radial_151_10197" cx="0" cy="0" r="1" gradientUnits="userSpaceOnUse" gradientTransform="translate(328.728 128.32) scale(134.965 134.965)">
<stop offset="0.8054" stop-color="#C7BCBC"/>
<stop offset="0.8087" stop-color="#C9BEBE"/>
<stop offset="0.8568" stop-color="#E0DADA"/>
<stop offset="0.905" stop-color="#F1EFEF"/>
<stop offset="0.9528" stop-color="#FCFBFB"/>
<stop offset="1" stop-color="white"/>
</radialGradient>
<radialGradient id="paint22_radial_151_10197" cx="0" cy="0" r="1" gradientUnits="userSpaceOnUse" gradientTransform="translate(-45.6869 111.328) scale(164.205 164.205)">
<stop offset="0.8054" stop-color="#C7BCBC"/>
<stop offset="0.8087" stop-color="#C9BEBE"/>
<stop offset="0.8568" stop-color="#E0DADA"/>
<stop offset="0.905" stop-color="#F1EFEF"/>
<stop offset="0.9528" stop-color="#FCFBFB"/>
<stop offset="1" stop-color="white"/>
</radialGradient>
<radialGradient id="paint23_radial_151_10197" cx="0" cy="0" r="1" gradientUnits="userSpaceOnUse" gradientTransform="translate(-45.6878 111.328) scale(164.205 164.205)">
<stop offset="0.8054" stop-color="#C7BCBC"/>
<stop offset="0.8087" stop-color="#C9BEBE"/>
<stop offset="0.8568" stop-color="#E0DADA"/>
<stop offset="0.905" stop-color="#F1EFEF"/>
<stop offset="0.9528" stop-color="#FCFBFB"/>
<stop offset="1" stop-color="white"/>
</radialGradient>
<radialGradient id="paint24_radial_151_10197" cx="0" cy="0" r="1" gradientUnits="userSpaceOnUse" gradientTransform="translate(-45.6861 111.328) scale(164.205 164.205)">
<stop offset="0.8054" stop-color="#C7BCBC"/>
<stop offset="0.8087" stop-color="#C9BEBE"/>
<stop offset="0.8568" stop-color="#E0DADA"/>
<stop offset="0.905" stop-color="#F1EFEF"/>
<stop offset="0.9528" stop-color="#FCFBFB"/>
<stop offset="1" stop-color="white"/>
</radialGradient>
<radialGradient id="paint25_radial_151_10197" cx="0" cy="0" r="1" gradientUnits="userSpaceOnUse" gradientTransform="translate(-45.685 111.328) scale(164.205 164.205)">
<stop offset="0.8054" stop-color="#C7BCBC"/>
<stop offset="0.8087" stop-color="#C9BEBE"/>
<stop offset="0.8568" stop-color="#E0DADA"/>
<stop offset="0.905" stop-color="#F1EFEF"/>
<stop offset="0.9528" stop-color="#FCFBFB"/>
<stop offset="1" stop-color="white"/>
</radialGradient>
<radialGradient id="paint26_radial_151_10197" cx="0" cy="0" r="1" gradientUnits="userSpaceOnUse" gradientTransform="translate(-45.6869 111.328) scale(164.205 164.205)">
<stop offset="0.8054" stop-color="#C7BCBC"/>
<stop offset="0.8087" stop-color="#C9BEBE"/>
<stop offset="0.8568" stop-color="#E0DADA"/>
<stop offset="0.905" stop-color="#F1EFEF"/>
<stop offset="0.9528" stop-color="#FCFBFB"/>
<stop offset="1" stop-color="white"/>
</radialGradient>
<radialGradient id="paint27_radial_151_10197" cx="0" cy="0" r="1" gradientUnits="userSpaceOnUse" gradientTransform="translate(40.4439 39.8434) scale(155.93 155.93)">
<stop offset="0.6878" stop-color="#9B7932"/>
<stop offset="0.7225" stop-color="#A28240"/>
<stop offset="0.7885" stop-color="#B49B66"/>
<stop offset="0.879" stop-color="#D2C3A3"/>
<stop offset="0.9896" stop-color="#FBFAF7"/>
<stop offset="1" stop-color="white"/>
</radialGradient>
<radialGradient id="paint28_radial_151_10197" cx="0" cy="0" r="1" gradientUnits="userSpaceOnUse" gradientTransform="translate(40.4439 39.8439) scale(155.93 155.93)">
<stop offset="0.6878" stop-color="#9B7932"/>
<stop offset="0.7225" stop-color="#A28240"/>
<stop offset="0.7885" stop-color="#B49B66"/>
<stop offset="0.879" stop-color="#D2C3A3"/>
<stop offset="0.9896" stop-color="#FBFAF7"/>
<stop offset="1" stop-color="white"/>
</radialGradient>
<radialGradient id="paint29_radial_151_10197" cx="0" cy="0" r="1" gradientUnits="userSpaceOnUse" gradientTransform="translate(40.4451 39.8434) scale(155.93 155.93)">
<stop offset="0.6878" stop-color="#9B7932"/>
<stop offset="0.7225" stop-color="#A28240"/>
<stop offset="0.7885" stop-color="#B49B66"/>
<stop offset="0.879" stop-color="#D2C3A3"/>
<stop offset="0.9896" stop-color="#FBFAF7"/>
<stop offset="1" stop-color="white"/>
</radialGradient>
<radialGradient id="paint30_radial_151_10197" cx="0" cy="0" r="1" gradientUnits="userSpaceOnUse" gradientTransform="translate(40.4439 39.8439) scale(155.93 155.93)">
<stop offset="0.6878" stop-color="#9B7932"/>
<stop offset="0.7225" stop-color="#A28240"/>
<stop offset="0.7885" stop-color="#B49B66"/>
<stop offset="0.879" stop-color="#D2C3A3"/>
<stop offset="0.9896" stop-color="#FBFAF7"/>
<stop offset="1" stop-color="white"/>
</radialGradient>
<radialGradient id="paint31_radial_151_10197" cx="0" cy="0" r="1" gradientUnits="userSpaceOnUse" gradientTransform="translate(40.4439 39.8435) scale(155.93 155.93)">
<stop offset="0.6878" stop-color="#9B7932"/>
<stop offset="0.7225" stop-color="#A28240"/>
<stop offset="0.7885" stop-color="#B49B66"/>
<stop offset="0.879" stop-color="#D2C3A3"/>
<stop offset="0.9896" stop-color="#FBFAF7"/>
<stop offset="1" stop-color="white"/>
</radialGradient>
<radialGradient id="paint32_radial_151_10197" cx="0" cy="0" r="1" gradientUnits="userSpaceOnUse" gradientTransform="translate(34.3894 31.6407) scale(116.063 116.063)">
<stop offset="0.819" stop-color="#C7BCBC"/>
<stop offset="0.8625" stop-color="#D0C7C7"/>
<stop offset="0.9377" stop-color="#E7E3E3"/>
<stop offset="1" stop-color="white"/>
</radialGradient>
<radialGradient id="paint33_radial_151_10197" cx="0" cy="0" r="1" gradientUnits="userSpaceOnUse" gradientTransform="translate(34.3889 31.6407) scale(116.063 116.063)">
<stop offset="0.819" stop-color="#C7BCBC"/>
<stop offset="0.8625" stop-color="#D0C7C7"/>
<stop offset="0.9377" stop-color="#E7E3E3"/>
<stop offset="1" stop-color="white"/>
</radialGradient>
<radialGradient id="paint34_radial_151_10197" cx="0" cy="0" r="1" gradientUnits="userSpaceOnUse" gradientTransform="translate(34.3895 31.6407) scale(116.063 116.063)">
<stop offset="0.819" stop-color="#C7BCBC"/>
<stop offset="0.8625" stop-color="#D0C7C7"/>
<stop offset="0.9377" stop-color="#E7E3E3"/>
<stop offset="1" stop-color="white"/>
</radialGradient>
<radialGradient id="paint35_radial_151_10197" cx="0" cy="0" r="1" gradientUnits="userSpaceOnUse" gradientTransform="translate(34.3895 31.6408) scale(116.063 116.063)">
<stop offset="0.819" stop-color="#C7BCBC"/>
<stop offset="0.8625" stop-color="#D0C7C7"/>
<stop offset="0.9377" stop-color="#E7E3E3"/>
<stop offset="1" stop-color="white"/>
</radialGradient>
<radialGradient id="paint36_radial_151_10197" cx="0" cy="0" r="1" gradientUnits="userSpaceOnUse" gradientTransform="translate(34.39 31.6407) scale(116.063 116.063)">
<stop offset="0.819" stop-color="#C7BCBC"/>
<stop offset="0.8625" stop-color="#D0C7C7"/>
<stop offset="0.9377" stop-color="#E7E3E3"/>
<stop offset="1" stop-color="white"/>
</radialGradient>
<linearGradient id="paint37_linear_151_10197" x1="169.14" y1="153.061" x2="30.5229" y2="67.8027" gradientUnits="userSpaceOnUse">
<stop offset="0.6983" stop-color="#BC9C22"/>
<stop offset="0.7313" stop-color="#C3A638"/>
<stop offset="0.8002" stop-color="#D4BF70"/>
<stop offset="0.898" stop-color="#EFE7C9"/>
<stop offset="0.9538" stop-color="white"/>
</linearGradient>
<radialGradient id="paint38_radial_151_10197" cx="0" cy="0" r="1" gradientUnits="userSpaceOnUse" gradientTransform="translate(147.672 92.6365) scale(118.363 118.363)">
<stop offset="0.5611" stop-color="#BC9C22"/>
<stop offset="0.6128" stop-color="#BD9E27"/>
<stop offset="0.6716" stop-color="#C2A434"/>
<stop offset="0.734" stop-color="#C9AE4B"/>
<stop offset="0.7988" stop-color="#D2BD6B"/>
<stop offset="0.8655" stop-color="#DFCF94"/>
<stop offset="0.9328" stop-color="#EEE5C6"/>
<stop offset="1" stop-color="white"/>
</radialGradient>
<linearGradient id="paint39_linear_151_10197" x1="142.778" y1="156.698" x2="224.534" y2="15.4064" gradientUnits="userSpaceOnUse">
<stop offset="0.6005" stop-color="#BC9C22"/>
<stop offset="0.623" stop-color="#BE9F2A"/>
<stop offset="0.6572" stop-color="#C5A93F"/>
<stop offset="0.699" stop-color="#CFB861"/>
<stop offset="0.7467" stop-color="#DECE91"/>
<stop offset="0.7986" stop-color="#F0E9CE"/>
<stop offset="0.8366" stop-color="white"/>
</linearGradient>
<linearGradient id="paint40_linear_151_10197" x1="141.976" y1="131.058" x2="170.978" y2="78.5853" gradientUnits="userSpaceOnUse">
<stop offset="0.7142" stop-color="#7AA35E"/>
<stop offset="1" stop-color="white"/>
</linearGradient>
<linearGradient id="paint41_linear_151_10197" x1="141.976" y1="101.19" x2="170.978" y2="153.662" gradientUnits="userSpaceOnUse">
<stop offset="0.7142"/>
<stop offset="0.7294" stop-color="#0E0E0E"/>
<stop offset="1" stop-color="white"/>
</linearGradient>
<linearGradient id="paint42_linear_151_10197" x1="108.156" y1="173.206" x2="142.774" y2="84.3208" gradientUnits="userSpaceOnUse">
<stop offset="0.7738" stop-color="#F03924"/>
<stop offset="0.8123" stop-color="#F25644"/>
<stop offset="0.8971" stop-color="#F89F95"/>
<stop offset="1" stop-color="white"/>
</linearGradient>
<clipPath id="clip0_151_10197">
<rect width="232.031" height="300" fill="white" transform="translate(34)"/>
</clipPath>
</defs>
</svg>
