<svg width="300" height="300" viewBox="0 0 300 300" fill="none" xmlns="http://www.w3.org/2000/svg">
<g clip-path="url(#clip0_151_35170)">
<path fill-rule="evenodd" clip-rule="evenodd" d="M300 150C300 189.782 284.196 227.936 256.066 256.066C227.936 284.196 189.782 300 150 300C130.302 300 110.796 296.12 92.5975 288.582C74.3987 281.044 57.8628 269.995 43.934 256.066C30.0052 242.137 18.9563 225.601 11.4181 207.403C3.87989 189.204 5.97994e-07 169.698 0 150C-1.79398e-06 130.302 3.87989 110.796 11.4181 92.5975C18.9563 74.3986 30.0052 57.8628 43.934 43.934C57.8628 30.0052 74.3986 18.9563 92.5975 11.4181C110.796 3.87987 130.302 -2.39197e-06 150 0C169.698 5.97994e-07 189.204 3.87987 207.403 11.4181C225.601 18.9563 242.137 30.0052 256.066 43.934C269.995 57.8628 281.044 74.3987 288.582 92.5975C296.12 110.796 300 130.302 300 150Z" fill="#CE7218"/>
<path fill-rule="evenodd" clip-rule="evenodd" d="M295.992 150C295.992 188.718 280.611 225.851 253.233 253.229C225.855 280.607 188.722 295.988 150.004 295.988C111.285 295.988 74.1526 280.607 46.7746 253.229C19.3965 225.851 4.01563 188.718 4.01563 150C4.01562 130.829 7.79176 111.845 15.1283 94.1328C22.4649 76.4207 33.2183 60.3271 46.7745 46.7709C60.3307 33.2147 76.4244 22.4613 94.1364 15.1247C111.849 7.78811 130.832 4.01202 150.004 4.01202C169.175 4.01202 188.159 7.78812 205.871 15.1247C223.583 22.4613 239.676 33.2147 253.233 46.7709C266.789 60.3271 277.542 76.4207 284.879 94.1328C292.216 111.845 295.992 130.829 295.992 150Z" fill="#FFF500"/>
<path fill-rule="evenodd" clip-rule="evenodd" d="M291.975 150C291.975 187.654 277.017 223.766 250.391 250.392C223.766 277.018 187.654 291.976 149.999 291.976C112.345 291.976 76.2329 277.018 49.6072 250.392C22.9816 223.766 8.02344 187.654 8.02344 150C8.02344 131.355 11.6957 112.893 18.8307 95.6682C25.9657 78.4428 36.4235 62.7915 49.6072 49.6078C62.7909 36.4241 78.4422 25.9663 95.6675 18.8313C112.893 11.6964 131.355 8.02405 149.999 8.02405C187.654 8.02405 223.766 22.9822 250.391 49.6078C277.017 76.2335 291.975 112.346 291.975 150Z" fill="white"/>
<path fill-rule="evenodd" clip-rule="evenodd" d="M59.5776 188.446C56.4947 188.459 53.4163 189.054 50.5026 190.209L50.4844 190.216C51.4176 192.545 52.4426 194.839 53.5388 197.1C55.4974 196.36 57.5543 195.977 59.6147 195.967V195.97C62.1511 195.958 64.6911 196.5 67.0495 197.597L67.0201 197.581C73.7368 200.784 81.5365 200.821 88.2833 197.682C88.2947 197.677 88.307 197.671 88.3175 197.666C93.0132 195.427 98.4574 195.402 103.174 197.597C109.883 200.784 117.673 200.815 124.409 197.681C124.418 197.677 124.43 197.67 124.438 197.665C129.134 195.426 134.577 195.401 139.294 197.596L139.265 197.582C142.659 199.201 146.331 200.007 150.003 200.007C153.676 200.007 157.346 199.201 160.741 197.582L160.711 197.596C165.428 195.401 170.872 195.426 175.568 197.665C175.577 197.67 175.589 197.677 175.597 197.681C182.333 200.815 190.123 200.784 196.832 197.597C201.549 195.402 206.993 195.427 211.689 197.666C211.7 197.671 211.712 197.677 211.722 197.682C218.469 200.821 226.27 200.784 232.986 197.581L232.957 197.597C235.315 196.5 237.855 195.958 240.392 195.97V195.967C242.452 195.976 244.509 196.36 246.468 197.1C247.564 194.839 248.588 192.545 249.521 190.216L249.505 190.209C246.591 189.054 243.513 188.462 240.43 188.447L240.428 188.446C236.794 188.43 233.155 189.205 229.782 190.774C229.773 190.779 229.762 190.785 229.753 190.79C225.068 193.024 219.638 193.054 214.929 190.875C208.212 187.672 200.408 187.636 193.661 190.775C193.65 190.779 193.638 190.786 193.627 190.791C188.942 193.025 183.513 193.054 178.804 190.875C172.088 187.673 164.287 187.637 157.54 190.775C157.529 190.78 157.516 190.785 157.506 190.789C155.132 191.921 152.568 192.485 150.003 192.485C147.438 192.485 144.873 191.921 142.5 190.789C142.488 190.785 142.477 190.78 142.467 190.775C135.72 187.637 127.918 187.673 121.201 190.875C116.492 193.054 111.063 193.025 106.379 190.791C106.367 190.786 106.356 190.779 106.346 190.775C99.5988 187.636 91.7943 187.672 85.0777 190.875C80.3685 193.054 74.9387 193.024 70.2539 190.79C70.2448 190.785 70.2334 190.779 70.2245 190.774C66.8515 189.205 63.2109 188.429 59.5776 188.446ZM168.183 203.54V203.545C164.55 203.529 160.913 204.303 157.54 205.873C157.528 205.878 157.517 205.882 157.507 205.887C155.133 207.018 152.569 207.582 150.004 207.582V207.587C147.438 207.587 144.873 207.023 142.499 205.891C142.488 205.887 142.477 205.882 142.466 205.878C135.72 202.739 127.918 202.775 121.201 205.978C116.492 208.157 111.063 208.126 106.378 205.892C106.367 205.887 106.356 205.883 106.345 205.878C99.5985 202.739 91.7929 202.775 85.0762 205.978C80.3671 208.157 74.9384 208.126 70.2536 205.892C70.2445 205.888 70.2331 205.883 70.2243 205.878C66.8512 204.309 63.2108 203.533 59.5774 203.55V203.543C58.7215 203.548 57.8657 203.599 57.0136 203.691C58.4808 206.248 60.0549 208.752 61.7364 211.191C63.5552 211.405 65.349 211.901 67.0487 212.692L67.0193 212.679C73.7359 215.881 81.537 215.922 88.2837 212.783C88.2951 212.777 88.3064 212.772 88.3167 212.765C90.6646 211.646 93.1997 211.079 95.7374 211.067C98.275 211.056 100.815 211.598 103.173 212.696C109.883 215.883 117.673 215.919 124.408 212.785C124.417 212.778 124.429 212.774 124.438 212.767C129.133 210.528 134.578 210.502 139.294 212.696C142.681 214.306 146.341 215.11 150.002 215.111V215.104L150.004 215.106C150.032 215.106 150.061 215.104 150.089 215.104H150.168C153.785 215.079 157.399 214.273 160.742 212.679L160.713 212.693C165.429 210.498 170.873 210.524 175.568 212.763C175.577 212.77 175.589 212.777 175.598 212.781C182.333 215.915 190.123 215.88 196.833 212.693C199.191 211.596 201.731 211.054 204.269 211.066C206.806 211.077 209.341 211.643 211.689 212.763C211.701 212.769 211.713 212.776 211.723 212.781C218.47 215.92 226.27 215.88 232.987 212.677L232.957 212.693C234.657 211.902 236.452 211.405 238.271 211.191C239.952 208.751 241.525 206.249 242.992 203.692C242.14 203.6 241.286 203.548 240.43 203.544C236.796 203.528 233.155 204.302 229.782 205.871C229.773 205.876 229.761 205.88 229.752 205.885C225.067 208.119 219.639 208.149 214.93 205.97C208.213 202.767 200.407 202.731 193.661 205.87C193.649 205.874 193.638 205.879 193.628 205.883C188.943 208.117 183.514 208.147 178.805 205.968C175.447 204.367 171.816 203.557 168.183 203.54ZM95.6998 218.643C92.0657 218.659 88.4371 219.471 85.0788 221.072C80.3696 223.251 74.9398 223.222 70.255 220.988C70.2459 220.983 70.2345 220.976 70.2256 220.972C69.7675 220.759 69.3035 220.565 68.8361 220.382C71.8291 223.858 75.0427 227.133 78.4511 230.194C81.8128 230.101 85.1617 229.339 88.2838 227.886C88.2952 227.882 88.3066 227.873 88.3168 227.868C93.011 225.63 98.4532 225.603 103.169 227.795L103.173 227.798C109.883 230.985 117.673 231.021 124.408 227.887C124.417 227.883 124.429 227.873 124.438 227.869C129.133 225.63 134.576 225.604 139.293 227.798L139.264 227.782C142.658 229.401 146.329 230.209 150.001 230.21V230.203H150.004V230.212C153.676 230.211 157.347 229.403 160.741 227.785L160.712 227.801C165.429 225.606 170.873 225.632 175.568 227.871C175.578 227.876 175.589 227.885 175.598 227.892C182.333 231.025 190.122 230.989 196.832 227.802L196.836 227.8C201.552 225.607 206.994 225.634 211.688 227.873C211.699 227.877 211.712 227.886 211.722 227.891C214.844 229.343 218.192 230.105 221.554 230.198C224.962 227.137 228.177 223.863 231.17 220.387C230.703 220.57 230.239 220.764 229.78 220.976C229.771 220.981 229.76 220.985 229.751 220.992C225.066 223.226 219.636 223.257 214.927 221.078C211.569 219.477 207.938 218.667 204.304 218.649C200.67 218.634 197.033 219.409 193.659 220.978C193.648 220.982 193.636 220.987 193.625 220.994C188.941 223.228 183.512 223.256 178.803 221.077C178.798 221.076 178.796 221.073 178.791 221.073C178.784 221.068 178.775 221.068 178.771 221.064C175.422 219.473 171.804 218.666 168.183 218.649L168.182 218.645C164.548 218.629 160.913 219.404 157.539 220.973C157.528 220.978 157.516 220.982 157.505 220.989C155.132 222.121 152.568 222.685 150.003 222.685H150.001C147.436 222.685 144.872 222.12 142.499 220.988C142.488 220.983 142.476 220.979 142.466 220.972C135.731 217.838 127.943 217.87 121.234 221.057C116.517 223.251 111.074 223.227 106.378 220.987C106.367 220.983 106.355 220.978 106.344 220.971C102.97 219.402 99.3339 218.625 95.6998 218.643ZM131.823 233.745V233.749C128.19 233.765 124.56 234.576 121.202 236.177C116.493 238.356 111.063 238.327 106.378 236.092C106.367 236.088 106.356 236.081 106.345 236.076C99.735 233.001 92.1124 232.982 85.4894 235.994C88.0593 237.93 90.7153 239.75 93.4489 241.448C96.7278 240.997 100.104 241.477 103.173 242.905L103.14 242.887C109.857 246.09 117.661 246.129 124.408 242.991C124.417 242.986 124.429 242.982 124.438 242.975C129.133 240.736 134.576 240.711 139.293 242.905L139.265 242.885C142.659 244.503 146.33 245.311 150.002 245.312V245.303L150.004 245.317C153.676 245.316 157.348 244.508 160.742 242.889L160.713 242.91C165.429 240.716 170.873 240.74 175.568 242.979C175.577 242.984 175.589 242.988 175.598 242.995C182.344 246.134 190.149 246.094 196.866 242.892L196.833 242.91C199.902 241.482 203.279 241.001 206.558 241.452C209.292 239.754 211.948 237.935 214.518 235.999C207.895 232.986 200.271 233.006 193.66 236.081C193.649 236.086 193.638 236.09 193.627 236.097C188.943 238.331 183.514 238.363 178.805 236.184C175.447 234.583 171.816 233.771 168.183 233.754V233.75C164.549 233.734 160.913 234.509 157.539 236.078C157.528 236.083 157.517 236.087 157.506 236.094C155.172 237.207 152.652 237.768 150.129 237.786H150.002C147.437 237.786 144.873 237.222 142.499 236.091C142.488 236.086 142.476 236.082 142.466 236.075C139.093 234.505 135.457 233.728 131.823 233.745ZM131.823 248.852C128.19 248.868 124.56 249.68 121.202 251.281C119.982 251.845 118.713 252.259 117.422 252.527L117.395 252.532C127.858 255.888 138.797 257.63 149.837 257.661L150.003 257.664L150.004 257.666C150.059 257.666 150.114 257.664 150.17 257.664C161.209 257.633 172.148 255.89 182.612 252.534L182.585 252.529C181.293 252.261 180.025 251.848 178.805 251.283C175.447 249.682 171.816 248.873 168.183 248.856C164.55 248.84 160.913 249.614 157.54 251.183C157.528 251.188 157.517 251.192 157.507 251.199C155.172 252.313 152.653 252.874 150.13 252.892H150.003C147.437 252.892 144.873 252.329 142.5 251.197C142.488 251.192 142.477 251.188 142.467 251.181C139.093 249.611 135.457 248.835 131.823 248.852Z" fill="#FFF500"/>
<path d="M149.997 190.722H146.843V188.026C146.843 187.418 146.721 186.815 146.483 186.255C146.245 185.695 145.897 185.189 145.459 184.766C145.021 184.344 144.502 184.014 143.934 183.796C143.366 183.578 142.76 183.477 142.151 183.499L115.438 184.453C107.213 184.747 100.11 180.372 92.7279 175.627C73.7718 163.441 56.8417 150.609 44.5859 133.902C63.2401 135.479 82.8533 139.788 103.516 147.085C92.2985 132.684 83.6013 117.284 77.925 100.688C91.6135 105.692 104.33 112.899 116.146 122.146C113.361 109.337 111.992 96.3927 112.635 83.2572C122.019 90.6671 129.974 99.6955 136.798 110.003C139.04 96.2344 143.321 83.2738 149.997 71.2637V190.722Z" fill="#FFF500"/>
<path d="M112.635 83.2576L133.712 134.578C134.262 126.358 135.276 118.166 136.797 110.004C129.973 99.696 122.019 90.6674 112.635 83.2576ZM77.9242 100.688L133.379 158.471L133.382 158.473C133.122 151.461 133.169 144.466 133.543 137.491H133.535C124.951 129.207 120.214 125.297 116.145 122.147C104.33 112.899 91.6128 105.692 77.9242 100.688ZM44.5859 133.902L134.606 175.626C134.106 170.865 133.744 166.112 133.512 161.367H133.502C122.94 155.301 112.809 150.23 103.515 147.085C82.8525 139.787 63.2401 135.479 44.5859 133.902Z" fill="#EF9B11"/>
<path d="M149.999 190.722H153.153V188.026C153.153 187.418 153.275 186.815 153.513 186.255C153.751 185.695 154.099 185.189 154.537 184.766C154.975 184.344 155.494 184.014 156.062 183.796C156.63 183.578 157.237 183.477 157.845 183.499L184.558 184.453C192.783 184.747 199.886 180.372 207.268 175.627C226.224 163.441 243.154 150.609 255.41 133.902C236.756 135.479 217.143 139.788 196.481 147.085C207.698 132.684 216.395 117.284 222.071 100.688C208.383 105.692 195.666 112.899 183.85 122.146C186.635 109.337 188.004 96.3927 187.361 83.2572C177.977 90.6671 170.022 99.6955 163.199 110.003C160.956 96.2344 156.675 83.2738 149.999 71.2637V190.722Z" fill="#EF9B11"/>
<path d="M187.361 83.2576L166.284 134.578C165.734 126.358 164.72 118.166 163.199 110.004C170.023 99.696 177.977 90.6674 187.361 83.2576ZM222.072 100.688L166.617 158.471L166.614 158.473C166.874 151.461 166.827 144.466 166.453 137.491H166.461C175.045 129.207 179.782 125.297 183.851 122.147C195.666 112.899 208.383 105.692 222.072 100.688ZM255.41 133.902L165.39 175.626C165.89 170.865 166.252 166.112 166.484 161.367H166.494C177.056 155.301 187.187 150.23 196.481 147.085C217.144 139.787 236.756 135.479 255.41 133.902Z" fill="#FFF500"/>
<path d="M63.9492 66.053C61.177 74.2196 54.7196 80.2352 45.8398 81.2953C46.9488 70.7926 52.9225 65.9466 63.9492 66.053Z" fill="#FFF500" stroke="#CE7218" stroke-width="0.240963" stroke-linecap="square" stroke-linejoin="round"/>
<path d="M63.9498 66.0535C57.3378 70.5254 51.3015 75.6068 45.8398 81.2955C54.7196 80.2355 61.1776 74.2201 63.9498 66.0535Z" fill="#EF9B11" stroke="#CE7218" stroke-width="0.240963" stroke-linecap="square" stroke-linejoin="round"/>
<path d="M48.8629 67.034C52.3592 79.5637 46.2324 84.4962 42.9772 87.86C42.779 81.3106 38.8182 72.6246 48.8629 67.034Z" fill="#FFF500" stroke="#CE7218" stroke-width="0.240963" stroke-linecap="square" stroke-linejoin="round"/>
<path d="M48.8624 67.034C46.2547 70.4553 45.3953 74.2198 45.6428 78.4266C45.859 82.1031 44.6403 85.2074 42.9766 87.8601C46.2317 84.4963 52.3587 79.5637 48.8624 67.034Z" fill="#EF9B11" stroke="#CE7218" stroke-width="0.240963" stroke-linecap="square" stroke-linejoin="round"/>
<path d="M49.996 80.0125C41.1893 83.3401 36.9417 89.5229 37.9985 99.0276C46.8889 95.2641 51.1581 89.0679 49.996 80.0125Z" fill="#FFF500" stroke="#CE7218" stroke-width="0.240963" stroke-linecap="square" stroke-linejoin="round"/>
<path d="M49.9969 80.0125C49.0669 82.5067 47.853 84.6893 46.314 86.4419C43.2317 89.9518 40.3114 94.5221 38 99.0275C46.8904 95.2641 51.159 89.0678 49.9969 80.0125Z" fill="#EF9B11" stroke="#CE7218" stroke-width="0.240963" stroke-linecap="square" stroke-linejoin="round"/>
<path d="M34.2975 81.22C34.2242 84.6809 33.0965 87.3589 32.0962 89.7816C29.2417 96.6954 33.1109 100.501 35.8822 104.46C41.0274 97.516 41.5113 91.8459 38.0708 87.1814C36.5964 85.1826 35.3475 83.1478 34.2975 81.22Z" fill="#FFF500" stroke="#CE7218" stroke-width="0.240963" stroke-linecap="square" stroke-linejoin="round"/>
<path d="M34.2969 81.2201C37.5687 89.1977 37.9943 96.9362 35.8817 104.461C41.0269 97.5165 41.5104 91.8458 38.0699 87.1813C36.5955 85.1825 35.3469 83.1478 34.2969 81.2201Z" fill="#EF9B11" stroke="#CE7218" stroke-width="0.240963" stroke-linecap="square" stroke-linejoin="round"/>
<path d="M43.8825 94.0475C46.5518 106.688 39.4611 109.657 32.4883 111.403C32.7553 106.761 34.589 102.047 37.4651 98.9296C39.5895 96.6272 42.4276 95.6438 43.8825 94.0475Z" fill="#FFF500" stroke="#CE7218" stroke-width="0.240963" stroke-linecap="square" stroke-linejoin="round"/>
<path d="M43.8828 94.0477C42.9451 96.0945 42.0156 98.08 41.1559 100.034C39.864 102.971 38.0939 105.371 35.7334 107.147C34.1846 108.312 33.1178 109.731 32.4883 111.402C39.4611 109.656 46.5522 106.688 43.8828 94.0477Z" fill="#EF9B11" stroke="#CE7218" stroke-width="0.240963" stroke-linecap="square" stroke-linejoin="round"/>
<path d="M27.2067 93.8214C28.1464 97.0554 27.8718 100.255 27.0952 103.52C25.4871 110.28 27.391 115.819 31.5834 120.382C41.9689 109.357 28.6069 96.4194 27.2067 93.8214Z" fill="#FFF500" stroke="#CE7218" stroke-width="0.240963" stroke-linecap="square" stroke-linejoin="round"/>
<path d="M27.207 93.8215C29.4424 100.686 31.7112 107.468 31.5844 120.383C41.9699 109.357 28.6072 96.4194 27.207 93.8215Z" fill="#EF9B11" stroke="#CE7218" stroke-width="0.240963" stroke-linecap="square" stroke-linejoin="round"/>
<path d="M38.0696 111.931C28.2835 115.636 23.8626 121.592 25.9206 130.267C30.6203 128.34 33.7712 125.017 35.1314 119.88C35.8543 117.15 36.7562 114.471 38.0696 111.931Z" fill="#FFF500" stroke="#CE7218" stroke-width="0.240963" stroke-linecap="square" stroke-linejoin="round"/>
<path d="M38.0706 111.93C32.1088 116.709 28.1012 122.85 25.9219 130.267C30.6215 128.34 33.7719 125.016 35.1321 119.88C35.8551 117.15 36.7572 114.471 38.0706 111.93Z" fill="#EF9B11" stroke="#CE7218" stroke-width="0.240963" stroke-linecap="square" stroke-linejoin="round"/>
<path d="M20.7162 114.044C22.0161 115.629 23.5738 116.785 24.8662 118.193C31.4746 125.397 32.3846 132.337 26.7523 138.491C22.8054 134.128 20.4152 128.705 20.5653 122.343C20.6267 119.739 20.9692 116.958 20.7162 114.044Z" fill="#FFF500" stroke="#CE7218" stroke-width="0.240963" stroke-linecap="square" stroke-linejoin="round"/>
<path d="M20.7148 114.043C23.4243 119.419 26.6782 122.63 26.7505 138.492C32.3828 132.337 31.4734 125.397 24.865 118.193C23.5727 116.785 22.0147 115.628 20.7148 114.043Z" fill="#EF9B11" stroke="#CE7218" stroke-width="0.240963" stroke-linecap="square" stroke-linejoin="round"/>
<path d="M35.8813 123.551C28.9581 128.734 23.0803 135.097 23.5062 144.755C28.3065 142.714 33.6272 141.618 34.7319 132.021C35.0324 129.41 35.3732 126.542 35.8813 123.551Z" fill="#FFF500" stroke="#CE7218" stroke-width="0.240963" stroke-linecap="square" stroke-linejoin="round"/>
<path d="M35.8789 123.551C34.4484 125.212 32.878 126.152 31.911 130.386C31.2914 133.099 29.9413 134.913 28.6345 136.756C26.6358 139.574 25.0923 142.17 23.5039 144.754C28.3042 142.713 33.6243 141.618 34.729 132.021C35.0295 129.41 35.3709 126.542 35.8789 123.551Z" fill="#EF9B11" stroke="#CE7218" stroke-width="0.240963" stroke-linecap="square" stroke-linejoin="round"/>
<path d="M19.5829 132.983C20.7217 134.574 22.1663 135.853 23.5062 137.284C30.2645 144.502 29.9763 152.55 27.2795 160.6C21.1631 151.15 18.6522 143.002 19.5829 132.983Z" fill="#FFF500" stroke="#CE7218" stroke-width="0.240963" stroke-linecap="square" stroke-linejoin="round"/>
<path d="M19.582 132.983C19.9332 135.922 21.2233 138.402 22.5245 140.906C25.6493 146.92 26.2213 153.856 27.2789 160.6C29.9758 152.55 30.2643 144.501 23.5059 137.284C22.1661 135.853 20.7208 134.574 19.582 132.983Z" fill="#EF9B11" stroke="#CE7218" stroke-width="0.240963" stroke-linecap="square" stroke-linejoin="round"/>
<path d="M33.8438 142.113C34.7291 151.642 31.1889 159.127 23.1286 164.524C20.9116 155.149 24.2729 147.609 33.8438 142.113Z" fill="#FFF500" stroke="#CE7218" stroke-width="0.240963" stroke-linecap="square" stroke-linejoin="round"/>
<path d="M33.8447 142.113C30.0555 150.306 26.3291 156.682 23.1289 164.524C31.1892 159.127 34.73 151.642 33.8447 142.113Z" fill="#EF9B11" stroke="#CE7218" stroke-width="0.240963" stroke-linecap="square" stroke-linejoin="round"/>
<path d="M16.5664 148.452C17.8026 150.178 19.3379 151.526 20.8614 152.892C26.4972 157.946 28.0621 164.165 24.7911 171.24C20.0989 168.255 17.293 163.532 17.09 157.184C16.9974 154.287 17.1728 151.385 16.5664 148.452Z" fill="#FFF500" stroke="#CE7218" stroke-width="0.240963" stroke-linecap="square" stroke-linejoin="round"/>
<path d="M16.5664 148.452C18.3583 151.668 20.1854 154.824 22.556 157.804C25.019 160.901 24.1804 166.652 24.7913 171.239C28.0623 164.165 26.4973 157.946 20.8615 152.892C19.3381 151.526 17.8026 150.179 16.5664 148.452Z" fill="#EF9B11" stroke="#CE7218" stroke-width="0.240963" stroke-linecap="square" stroke-linejoin="round"/>
<path d="M33.996 156.148C32.3422 158.429 30.4852 159.039 29.0968 160.016C22.2187 164.856 21.5767 171.516 23.3571 178.257C30.0219 176.104 34.1989 171.387 33.6189 162.336C33.4883 160.298 33.6086 158.237 33.996 156.148Z" fill="#FFF500" stroke="#CE7218" stroke-width="0.240963" stroke-linecap="square" stroke-linejoin="round"/>
<path d="M33.9938 156.148C32.9816 158.419 32.2469 160.661 31.7087 162.888C30.9192 166.155 29.3311 169.09 27.2794 171.768C25.826 173.665 24.4848 175.837 23.3555 178.257C30.0203 176.104 34.1968 171.387 33.6167 162.336C33.4862 160.298 33.6065 158.236 33.9938 156.148Z" fill="#EF9B11" stroke="#CE7218" stroke-width="0.240963" stroke-linecap="square" stroke-linejoin="round"/>
<path d="M17.0195 167.542C17.2166 177.181 21.1836 184.052 29.2437 187.916C30.7471 177.523 26.8191 170.637 17.0195 167.542Z" fill="#FFF500" stroke="#CE7218" stroke-width="0.240963" stroke-linecap="square" stroke-linejoin="round"/>
<path d="M17.0195 167.543C22.6682 173.286 26.7214 180.091 29.2437 187.915C30.7471 177.522 26.8191 170.637 17.0195 167.543Z" fill="#EF9B11" stroke="#CE7218" stroke-width="0.240963" stroke-linecap="square" stroke-linejoin="round"/>
<path d="M35.5812 170.938C35.1306 173.094 34.8786 175.269 34.9623 177.448C35.23 184.419 33.6887 189.93 30.2994 194.178C26.0484 190.62 25.4806 181.522 30.0732 176.672C31.8263 174.821 33.8429 173.145 35.5812 170.938Z" fill="#FFF500" stroke="#CE7218" stroke-width="0.240963" stroke-linecap="square" stroke-linejoin="round"/>
<path d="M35.5783 170.938C34.4692 172.791 33.4721 174.482 33.4675 176.808C33.4554 183.002 31.6745 188.584 30.2969 194.178C33.6862 189.929 35.2279 184.419 34.9603 177.448C34.8766 175.269 35.1276 173.094 35.5783 170.938Z" fill="#EF9B11" stroke="#CE7218" stroke-width="0.240963" stroke-linecap="square" stroke-linejoin="round"/>
<path d="M19.2031 186.331C20.0603 186.558 20.9073 186.54 21.9236 186.54C31.6475 186.54 35.1884 195.216 36.2563 201.196C28.9363 200.205 21.7213 196.632 19.2031 186.331Z" fill="#FFF500" stroke="#CE7218" stroke-width="0.240963" stroke-linecap="square" stroke-linejoin="round"/>
<path d="M19.2031 186.331C27.5192 190.057 32.94 195.134 36.2562 201.195C35.1884 195.216 31.647 186.54 21.9232 186.54C20.9068 186.54 20.0603 186.558 19.2031 186.331Z" fill="#EF9B11" stroke="#CE7218" stroke-width="0.240963" stroke-linecap="square" stroke-linejoin="round"/>
<path d="M40.1839 185.275C30.367 194.397 31.6645 202.798 36.6377 208.591C36.9494 203.857 40.0824 197.902 40.8308 193.909C41.3877 190.937 40.6533 188.109 40.1839 185.275Z" fill="#FFF500" stroke="#CE7218" stroke-width="0.240963" stroke-linecap="square" stroke-linejoin="round"/>
<path d="M40.1833 185.274C39.991 187.564 39.7691 189.785 38.9325 191.724C36.3772 197.649 35.5018 203.173 36.6366 208.591C36.9482 203.857 40.0815 197.902 40.8298 193.909C41.3867 190.937 40.6528 188.109 40.1833 185.274Z" fill="#EF9B11" stroke="#CE7218" stroke-width="0.240963" stroke-linecap="square" stroke-linejoin="round"/>
<path d="M20.7148 197.951C31.4763 196.975 38.1113 202.163 41.3904 212.363C33.3451 213.736 27.3323 210.878 24.4921 202.897C23.7043 200.683 23.0774 198.656 20.7148 197.951Z" fill="#FFF500" stroke="#CE7218" stroke-width="0.240963" stroke-linecap="square" stroke-linejoin="round"/>
<path d="M23.1616 197.835C22.3709 197.836 21.5556 197.875 20.7148 197.951C24.1706 198.046 27.6105 199.238 29.4383 201.598C31.5112 204.274 32.5509 204.593 34.9558 205.76C37.5928 207.04 39.5464 209.597 41.3902 212.363C38.3673 202.959 32.4923 197.817 23.1616 197.835Z" fill="#EF9B11" stroke="#CE7218" stroke-width="0.240963" stroke-linecap="square" stroke-linejoin="round"/>
<path d="M44.7153 196.139C36.2529 205.539 36.5366 216.082 43.8096 218.701C47.0006 214.546 48.4063 209.429 46.5677 203.139C45.8912 200.825 44.7725 198.662 44.7153 196.139Z" fill="#FFF500" stroke="#CE7218" stroke-width="0.240963" stroke-linecap="square" stroke-linejoin="round"/>
<path d="M44.7157 196.139C43.9206 197.818 43.3836 199.612 43.8097 201.42C44.5586 204.597 44.105 207.341 43.1936 210.285C42.296 213.184 43.164 216.011 43.8097 218.701C47.0007 214.546 48.4065 209.429 46.5679 203.14C45.8914 200.825 44.7729 198.661 44.7157 196.139Z" fill="#EF9B11" stroke="#CE7218" stroke-width="0.240963" stroke-linecap="square" stroke-linejoin="round"/>
<path d="M28.6367 213.345C38.3959 210.822 46.0419 212.571 49.7646 222.249C41.8109 224.251 34.8163 221.021 28.6367 213.345Z" fill="#FFF500" stroke="#CE7218" stroke-width="0.240963" stroke-linecap="square" stroke-linejoin="round"/>
<path d="M35.933 212.308C33.6729 212.307 31.229 212.675 28.6367 213.345C31.9361 216.182 35.8424 218.074 40.3378 218.276C44.2165 218.45 46.7913 218.701 49.7645 222.249C47.0307 215.141 42.1817 212.311 35.933 212.308Z" fill="#EF9B11" stroke="#CE7218" stroke-width="0.240963" stroke-linecap="square" stroke-linejoin="round"/>
<path d="M48.9376 205.42C49.3977 207.849 48.1249 209.538 47.0183 211.61C43.441 218.306 45.3026 223.428 49.8428 226.851C54.0311 221.088 54.0058 212.578 48.9376 205.42Z" fill="#FFF500" stroke="#CE7218" stroke-width="0.240963" stroke-linecap="square" stroke-linejoin="round"/>
<path d="M48.9371 205.42C49.7913 207.92 50.0206 210.507 49.2593 213.047C47.7682 218.024 48.1571 222.513 49.8421 226.85C54.0304 221.088 54.0053 212.577 48.9371 205.42Z" fill="#EF9B11" stroke="#CE7218" stroke-width="0.240963" stroke-linecap="square" stroke-linejoin="round"/>
<path d="M36.0352 223.153C41.2713 222.07 45.9874 220.428 52.4576 225.542C55.8301 228.208 58.0626 230.457 57.163 234.095C47.4061 234.898 40.5655 230.919 36.0352 223.153Z" fill="#FFF500" stroke="#CE7218" stroke-width="0.240963" stroke-linecap="square" stroke-linejoin="round"/>
<path d="M43.2893 222.015C40.8292 222.015 38.4896 222.646 36.0352 223.154C44.1522 224.373 51.1535 228.112 57.163 234.095C58.0626 230.456 55.83 228.209 52.4575 225.543C49.0202 222.826 46.0775 222.015 43.2893 222.015Z" fill="#EF9B11" stroke="#CE7218" stroke-width="0.240963" stroke-linecap="square" stroke-linejoin="round"/>
<path d="M57.1634 237.642C51.0482 236.754 48.8335 226.02 53.6925 216.363C61.655 224.421 62.4861 231.468 57.1634 237.642Z" fill="#FFF500" stroke="#CE7218" stroke-width="0.240963" stroke-linecap="square" stroke-linejoin="round"/>
<path d="M53.6953 216.363C55.316 219.193 55.5264 222.149 55.1528 225.296C54.6231 229.758 55.8184 233.775 57.1667 237.642C62.4894 231.467 61.6579 224.421 53.6953 216.363Z" fill="#EF9B11" stroke="#CE7218" stroke-width="0.240963" stroke-linecap="square" stroke-linejoin="round"/>
<path d="M61.6175 225.494C56.7158 236.321 60.0936 242.952 69.2389 246.244C70.9365 240.396 70.7611 234.99 66.6731 231.357C64.5794 229.496 62.5386 227.948 61.6175 225.494Z" fill="#FFF500" stroke="#CE7218" stroke-width="0.240963" stroke-linecap="square" stroke-linejoin="round"/>
<path d="M61.6172 225.494C61.7426 227.51 62.6001 229.313 63.7241 231.23C66.4945 235.953 68.2016 241.047 69.2387 246.244C70.9362 240.396 70.7605 234.991 66.6724 231.357C64.5787 229.496 62.5382 227.948 61.6172 225.494Z" fill="#EF9B11" stroke="#CE7218" stroke-width="0.240963" stroke-linecap="square" stroke-linejoin="round"/>
<path d="M42.3711 233.793C46.9206 238.481 51.4623 243.463 56.1393 243.546C59.7292 243.611 62.948 243.103 65.9132 242.32C64.3846 235.908 59.9894 232.63 53.5685 233.804C49.7942 234.494 46.1036 234.708 42.3711 233.793Z" fill="#FFF500" stroke="#CE7218" stroke-width="0.240963" stroke-linecap="square" stroke-linejoin="round"/>
<path d="M56.1546 233.569C55.3342 233.561 54.4717 233.639 53.5688 233.804C49.7944 234.494 46.1036 234.707 42.3711 233.793C45.7665 235.832 49.1646 237.052 52.6167 237.505C57.4733 238.142 62.2111 238.883 65.9134 242.32C64.5998 236.81 61.1687 233.613 56.1546 233.569Z" fill="#EF9B11" stroke="#CE7218" stroke-width="0.240963" stroke-linecap="square" stroke-linejoin="round"/>
<path d="M51.7305 242.245C55.5801 243.304 59.3567 243 63.2756 242.471C72.7737 241.19 78.35 244.25 80.4792 249.942C72.9641 252.768 65.9616 252.617 59.8568 248.544C56.9603 246.611 54.3507 244.368 51.7305 242.245Z" fill="#FFF500" stroke="#CE7218" stroke-width="0.240963" stroke-linecap="square" stroke-linejoin="round"/>
<path d="M67.4427 242.182C66.1483 242.177 64.7599 242.271 63.2758 242.471C59.357 243 55.5801 243.304 51.7305 242.244C57.4371 245.228 64.2073 246.429 71.0149 247.407C74.2413 247.871 77.513 248.017 80.4798 249.942C78.6833 245.14 74.4324 242.211 67.4427 242.182Z" fill="#EF9B11" stroke="#CE7218" stroke-width="0.240963" stroke-linecap="square" stroke-linejoin="round"/>
<path d="M123.642 274.614L99.1188 265.484C90.1933 262.161 82.1049 259.289 77.3871 252.505C74.7217 248.673 73.6256 244.289 73.5391 239.678C78.6034 242.019 83.7259 244.326 85.0357 250.072C86.6595 257.197 92.9956 259.661 99.4283 262.065C108.068 265.292 116.706 268.504 125.755 271.52C126.546 271.784 125.119 275.164 123.642 274.614Z" fill="#FFF500" stroke="#CE7218" stroke-width="0.240963" stroke-linecap="square" stroke-linejoin="round"/>
<path d="M73.5391 239.678C78.2996 249.223 83.8779 257.079 93.2976 259.521C89.3472 257.546 86.1276 254.863 85.0356 250.072C83.7258 244.326 78.6034 242.019 73.5391 239.678Z" fill="#EF9B11" stroke="#CE7218" stroke-width="0.240963" stroke-linecap="square" stroke-linejoin="round"/>
<path d="M236.047 66.053C238.819 74.2196 245.276 80.2352 254.156 81.2953C253.047 70.7926 247.074 65.9466 236.047 66.053Z" fill="#FFF500" stroke="#CE7218" stroke-width="0.240963" stroke-linecap="square" stroke-linejoin="round"/>
<path d="M236.046 66.0535C242.658 70.5254 248.695 75.6068 254.156 81.2955C245.276 80.2355 238.818 74.2201 236.046 66.0535Z" fill="#EF9B11" stroke="#CE7218" stroke-width="0.240963" stroke-linecap="square" stroke-linejoin="round"/>
<path d="M251.137 67.034C247.641 79.5637 253.768 84.4962 257.023 87.86C257.221 81.3106 261.182 72.6246 251.137 67.034Z" fill="#FFF500" stroke="#CE7218" stroke-width="0.240963" stroke-linecap="square" stroke-linejoin="round"/>
<path d="M251.138 67.034C253.745 70.4553 254.605 74.2198 254.357 78.4266C254.141 82.1031 255.36 85.2074 257.023 87.8601C253.768 84.4963 247.641 79.5637 251.138 67.034Z" fill="#EF9B11" stroke="#CE7218" stroke-width="0.240963" stroke-linecap="square" stroke-linejoin="round"/>
<path d="M250.004 80.0125C258.811 83.3401 263.058 89.5228 262.001 99.0275C253.111 95.2641 248.842 89.0679 250.004 80.0125Z" fill="#FFF500" stroke="#CE7218" stroke-width="0.240963" stroke-linecap="square" stroke-linejoin="round"/>
<path d="M250.003 80.0125C250.933 82.5067 252.147 84.6893 253.686 86.4419C256.768 89.9518 259.689 94.5221 262 99.0275C253.11 95.2641 248.841 89.0678 250.003 80.0125Z" fill="#EF9B11" stroke="#CE7218" stroke-width="0.240963" stroke-linecap="square" stroke-linejoin="round"/>
<path d="M265.703 81.22C265.776 84.6809 266.903 87.3589 267.904 89.7816C270.758 96.6954 266.889 100.501 264.118 104.46C258.973 97.516 258.489 91.8459 261.929 87.1814C263.404 85.1826 264.652 83.1478 265.703 81.22Z" fill="#FFF500" stroke="#CE7218" stroke-width="0.240963" stroke-linecap="square" stroke-linejoin="round"/>
<path d="M265.703 81.2201C262.431 89.1977 262.006 96.9362 264.118 104.461C258.973 97.5165 258.49 91.8458 261.93 87.1813C263.404 85.1825 264.653 83.1478 265.703 81.2201Z" fill="#EF9B11" stroke="#CE7218" stroke-width="0.240963" stroke-linecap="square" stroke-linejoin="round"/>
<path d="M256.118 94.0475C253.448 106.688 260.539 109.657 267.512 111.403C267.245 106.761 265.411 102.047 262.535 98.9296C260.41 96.6271 257.572 95.6437 256.118 94.0475Z" fill="#FFF500" stroke="#CE7218" stroke-width="0.240963" stroke-linecap="square" stroke-linejoin="round"/>
<path d="M256.117 94.0476C257.055 96.0945 257.984 98.08 258.844 100.034C260.136 102.971 261.906 105.371 264.267 107.146C265.815 108.312 266.882 109.731 267.512 111.402C260.539 109.656 253.448 106.688 256.117 94.0476Z" fill="#EF9B11" stroke="#CE7218" stroke-width="0.240963" stroke-linecap="square" stroke-linejoin="round"/>
<path d="M272.793 93.8214C271.854 97.0554 272.128 100.255 272.905 103.52C274.513 110.28 272.609 115.819 268.417 120.382C258.031 109.357 271.393 96.4194 272.793 93.8214Z" fill="#FFF500" stroke="#CE7218" stroke-width="0.240963" stroke-linecap="square" stroke-linejoin="round"/>
<path d="M272.793 93.8215C270.558 100.686 268.289 107.468 268.416 120.383C258.03 109.357 271.393 96.4194 272.793 93.8215Z" fill="#EF9B11" stroke="#CE7218" stroke-width="0.240963" stroke-linecap="square" stroke-linejoin="round"/>
<path d="M261.927 111.931C271.713 115.636 276.133 121.592 274.075 130.267C269.376 128.34 266.225 125.017 264.865 119.88C264.142 117.15 263.24 114.471 261.927 111.931Z" fill="#FFF500" stroke="#CE7218" stroke-width="0.240963" stroke-linecap="square" stroke-linejoin="round"/>
<path d="M261.925 111.93C267.887 116.709 271.895 122.85 274.074 130.267C269.375 128.34 266.224 125.016 264.864 119.88C264.141 117.15 263.239 114.471 261.925 111.93Z" fill="#EF9B11" stroke="#CE7218" stroke-width="0.240963" stroke-linecap="square" stroke-linejoin="round"/>
<path d="M279.284 114.044C277.984 115.629 276.426 116.785 275.134 118.193C268.525 125.397 267.615 132.337 273.248 138.491C277.195 134.128 279.585 128.705 279.435 122.343C279.373 119.739 279.031 116.958 279.284 114.044Z" fill="#FFF500" stroke="#CE7218" stroke-width="0.240963" stroke-linecap="square" stroke-linejoin="round"/>
<path d="M279.285 114.043C276.576 119.419 273.322 122.63 273.249 138.492C267.617 132.337 268.527 125.397 275.135 118.193C276.427 116.785 277.985 115.628 279.285 114.043Z" fill="#EF9B11" stroke="#CE7218" stroke-width="0.240963" stroke-linecap="square" stroke-linejoin="round"/>
<path d="M264.119 123.551C271.042 128.734 276.92 135.097 276.494 144.755C271.693 142.714 266.373 141.618 265.268 132.021C264.968 129.41 264.627 126.542 264.119 123.551Z" fill="#FFF500" stroke="#CE7218" stroke-width="0.240963" stroke-linecap="square" stroke-linejoin="round"/>
<path d="M264.121 123.551C265.552 125.212 267.122 126.152 268.089 130.386C268.709 133.099 270.059 134.913 271.365 136.756C273.364 139.574 274.908 142.17 276.496 144.754C271.696 142.713 266.376 141.618 265.271 132.021C264.97 129.41 264.629 126.542 264.121 123.551Z" fill="#EF9B11" stroke="#CE7218" stroke-width="0.240963" stroke-linecap="square" stroke-linejoin="round"/>
<path d="M280.413 132.983C279.274 134.574 277.83 135.853 276.49 137.284C269.732 144.502 270.02 152.55 272.717 160.6C278.833 151.15 281.344 143.002 280.413 132.983Z" fill="#FFF500" stroke="#CE7218" stroke-width="0.240963" stroke-linecap="square" stroke-linejoin="round"/>
<path d="M280.414 132.983C280.063 135.922 278.773 138.402 277.472 140.906C274.347 146.92 273.775 153.856 272.717 160.6C270.02 152.55 269.732 144.501 276.49 137.284C277.83 135.853 279.275 134.574 280.414 132.983Z" fill="#EF9B11" stroke="#CE7218" stroke-width="0.240963" stroke-linecap="square" stroke-linejoin="round"/>
<path d="M266.156 142.113C265.271 151.642 268.811 159.127 276.871 164.524C279.088 155.149 275.727 147.609 266.156 142.113Z" fill="#FFF500" stroke="#CE7218" stroke-width="0.240963" stroke-linecap="square" stroke-linejoin="round"/>
<path d="M266.155 142.113C269.944 150.306 273.671 156.682 276.871 164.524C268.811 159.127 265.27 151.642 266.155 142.113Z" fill="#EF9B11" stroke="#CE7218" stroke-width="0.240963" stroke-linecap="square" stroke-linejoin="round"/>
<path d="M283.434 148.452C282.197 150.178 280.662 151.526 279.139 152.892C273.503 157.946 271.938 164.165 275.209 171.24C279.901 168.255 282.707 163.532 282.91 157.184C283.003 154.287 282.827 151.385 283.434 148.452Z" fill="#FFF500" stroke="#CE7218" stroke-width="0.240963" stroke-linecap="square" stroke-linejoin="round"/>
<path d="M283.434 148.452C281.642 151.668 279.815 154.824 277.444 157.804C274.981 160.901 275.82 166.652 275.209 171.239C271.938 164.165 273.503 157.946 279.138 152.892C280.662 151.526 282.197 150.179 283.434 148.452Z" fill="#EF9B11" stroke="#CE7218" stroke-width="0.240963" stroke-linecap="square" stroke-linejoin="round"/>
<path d="M266 156.148C267.654 158.429 269.511 159.039 270.899 160.016C277.777 164.856 278.419 171.516 276.639 178.257C269.974 176.104 265.797 171.387 266.377 162.336C266.508 160.298 266.387 158.237 266 156.148Z" fill="#FFF500" stroke="#CE7218" stroke-width="0.240963" stroke-linecap="square" stroke-linejoin="round"/>
<path d="M266.002 156.148C267.014 158.419 267.749 160.661 268.287 162.888C269.077 166.155 270.665 169.09 272.717 171.768C274.17 173.665 275.511 175.837 276.641 178.257C269.976 176.104 265.799 171.387 266.379 162.336C266.51 160.298 266.39 158.236 266.002 156.148Z" fill="#EF9B11" stroke="#CE7218" stroke-width="0.240963" stroke-linecap="square" stroke-linejoin="round"/>
<path d="M282.98 167.542C282.783 177.181 278.816 184.052 270.756 187.916C269.253 177.523 273.181 170.637 282.98 167.542Z" fill="#FFF500" stroke="#CE7218" stroke-width="0.240963" stroke-linecap="square" stroke-linejoin="round"/>
<path d="M282.98 167.543C277.332 173.286 273.279 180.091 270.756 187.915C269.253 177.522 273.181 170.637 282.98 167.543Z" fill="#EF9B11" stroke="#CE7218" stroke-width="0.240963" stroke-linecap="square" stroke-linejoin="round"/>
<path d="M264.419 170.938C264.869 173.094 265.121 175.269 265.038 177.448C264.77 184.419 266.311 189.93 269.701 194.178C273.952 190.62 274.519 181.522 269.927 176.672C268.174 174.821 266.157 173.145 264.419 170.938Z" fill="#FFF500" stroke="#CE7218" stroke-width="0.240963" stroke-linecap="square" stroke-linejoin="round"/>
<path d="M264.422 170.938C265.531 172.791 266.528 174.482 266.532 176.808C266.545 183.002 268.325 188.584 269.703 194.178C266.314 189.929 264.772 184.419 265.04 177.448C265.123 175.269 264.872 173.094 264.422 170.938Z" fill="#EF9B11" stroke="#CE7218" stroke-width="0.240963" stroke-linecap="square" stroke-linejoin="round"/>
<path d="M280.797 186.331C279.94 186.558 279.093 186.54 278.076 186.54C268.353 186.54 264.812 195.216 263.744 201.196C271.064 200.205 278.279 196.632 280.797 186.331Z" fill="#FFF500" stroke="#CE7218" stroke-width="0.240963" stroke-linecap="square" stroke-linejoin="round"/>
<path d="M280.797 186.331C272.481 190.057 267.06 195.134 263.744 201.195C264.812 195.216 268.353 186.54 278.077 186.54C279.093 186.54 279.94 186.558 280.797 186.331Z" fill="#EF9B11" stroke="#CE7218" stroke-width="0.240963" stroke-linecap="square" stroke-linejoin="round"/>
<path d="M259.812 185.275C269.629 194.397 268.332 202.798 263.358 208.591C263.047 203.857 259.914 197.902 259.165 193.909C258.608 190.937 259.343 188.109 259.812 185.275Z" fill="#FFF500" stroke="#CE7218" stroke-width="0.240963" stroke-linecap="square" stroke-linejoin="round"/>
<path d="M259.813 185.274C260.005 187.564 260.227 189.785 261.064 191.724C263.619 197.649 264.494 203.173 263.36 208.591C263.048 203.857 259.915 197.902 259.166 193.909C258.609 190.937 259.343 188.109 259.813 185.274Z" fill="#EF9B11" stroke="#CE7218" stroke-width="0.240963" stroke-linecap="square" stroke-linejoin="round"/>
<path d="M279.281 197.951C268.52 196.975 261.885 202.163 258.606 212.363C266.651 213.736 272.664 210.878 275.504 202.897C276.292 200.683 276.919 198.656 279.281 197.951Z" fill="#FFF500" stroke="#CE7218" stroke-width="0.240963" stroke-linecap="square" stroke-linejoin="round"/>
<path d="M276.834 197.835C277.625 197.836 278.441 197.875 279.281 197.951C275.826 198.046 272.386 199.238 270.558 201.598C268.485 204.274 267.445 204.593 265.04 205.76C262.403 207.04 260.45 209.597 258.606 212.363C261.629 202.959 267.504 197.817 276.834 197.835Z" fill="#EF9B11" stroke="#CE7218" stroke-width="0.240963" stroke-linecap="square" stroke-linejoin="round"/>
<path d="M255.285 196.139C263.747 205.539 263.463 216.082 256.19 218.701C252.999 214.546 251.594 209.428 253.432 203.139C254.109 200.825 255.227 198.661 255.285 196.139Z" fill="#FFF500" stroke="#CE7218" stroke-width="0.240963" stroke-linecap="square" stroke-linejoin="round"/>
<path d="M255.284 196.139C256.079 197.818 256.616 199.612 256.19 201.42C255.441 204.597 255.895 207.341 256.806 210.285C257.704 213.184 256.836 216.011 256.19 218.701C252.999 214.546 251.593 209.429 253.432 203.14C254.109 200.825 255.227 198.661 255.284 196.139Z" fill="#EF9B11" stroke="#CE7218" stroke-width="0.240963" stroke-linecap="square" stroke-linejoin="round"/>
<path d="M271.359 213.345C261.6 210.822 253.954 212.571 250.231 222.249C258.185 224.251 265.18 221.021 271.359 213.345Z" fill="#FFF500" stroke="#CE7218" stroke-width="0.240963" stroke-linecap="square" stroke-linejoin="round"/>
<path d="M264.063 212.308C266.323 212.307 268.767 212.675 271.359 213.345C268.06 216.182 264.154 218.074 259.658 218.276C255.78 218.45 253.205 218.701 250.232 222.249C252.965 215.141 257.814 212.311 264.063 212.308Z" fill="#EF9B11" stroke="#CE7218" stroke-width="0.240963" stroke-linecap="square" stroke-linejoin="round"/>
<path d="M251.062 205.42C250.602 207.849 251.875 209.538 252.982 211.61C256.559 218.306 254.697 223.428 250.157 226.85C245.969 221.088 245.994 212.578 251.062 205.42Z" fill="#FFF500" stroke="#CE7218" stroke-width="0.240963" stroke-linecap="square" stroke-linejoin="round"/>
<path d="M251.063 205.42C250.209 207.92 249.979 210.507 250.741 213.047C252.232 218.023 251.843 222.513 250.158 226.85C245.97 221.088 245.995 212.577 251.063 205.42Z" fill="#EF9B11" stroke="#CE7218" stroke-width="0.240963" stroke-linecap="square" stroke-linejoin="round"/>
<path d="M263.961 223.153C258.725 222.07 254.009 220.428 247.538 225.542C244.166 228.208 241.933 230.457 242.833 234.095C252.59 234.898 259.431 230.919 263.961 223.153Z" fill="#FFF500" stroke="#CE7218" stroke-width="0.240963" stroke-linecap="square" stroke-linejoin="round"/>
<path d="M256.707 222.015C259.167 222.014 261.506 222.646 263.961 223.154C255.844 224.373 248.843 228.112 242.833 234.095C241.933 230.456 244.166 228.209 247.539 225.543C250.976 222.826 253.919 222.015 256.707 222.015Z" fill="#EF9B11" stroke="#CE7218" stroke-width="0.240963" stroke-linecap="square" stroke-linejoin="round"/>
<path d="M242.833 237.642C248.948 236.754 251.163 226.02 246.304 216.363C238.341 224.421 237.51 231.468 242.833 237.642Z" fill="#FFF500" stroke="#CE7218" stroke-width="0.240963" stroke-linecap="square" stroke-linejoin="round"/>
<path d="M246.301 216.363C244.68 219.193 244.47 222.149 244.843 225.296C245.373 229.758 244.178 233.775 242.829 237.642C237.507 231.467 238.338 224.421 246.301 216.363Z" fill="#EF9B11" stroke="#CE7218" stroke-width="0.240963" stroke-linecap="square" stroke-linejoin="round"/>
<path d="M238.382 225.494C243.284 236.321 239.906 242.952 230.761 246.244C229.064 240.396 229.239 234.99 233.327 231.357C235.421 229.496 237.461 227.948 238.382 225.494Z" fill="#FFF500" stroke="#CE7218" stroke-width="0.240963" stroke-linecap="square" stroke-linejoin="round"/>
<path d="M238.383 225.494C238.257 227.51 237.4 229.313 236.276 231.23C233.506 235.953 231.798 241.047 230.761 246.244C229.064 240.396 229.24 234.991 233.328 231.357C235.421 229.496 237.462 227.948 238.383 225.494Z" fill="#EF9B11" stroke="#CE7218" stroke-width="0.240963" stroke-linecap="square" stroke-linejoin="round"/>
<path d="M257.629 233.793C253.079 238.481 248.538 243.463 243.861 243.546C240.271 243.611 237.052 243.103 234.087 242.32C235.615 235.908 240.011 232.63 246.432 233.804C250.206 234.494 253.896 234.708 257.629 233.793Z" fill="#FFF500" stroke="#CE7218" stroke-width="0.240963" stroke-linecap="square" stroke-linejoin="round"/>
<path d="M243.845 233.569C244.666 233.561 245.528 233.639 246.431 233.804C250.206 234.494 253.896 234.707 257.629 233.793C254.234 235.832 250.835 237.052 247.383 237.505C242.527 238.142 237.789 238.883 234.087 242.32C235.4 236.81 238.831 233.613 243.845 233.569Z" fill="#EF9B11" stroke="#CE7218" stroke-width="0.240963" stroke-linecap="square" stroke-linejoin="round"/>
<path d="M248.27 242.245C244.42 243.304 240.643 243 236.724 242.471C227.226 241.19 221.65 244.25 219.521 249.942C227.036 252.768 234.038 252.617 240.143 248.544C243.04 246.611 245.649 244.368 248.27 242.245Z" fill="#FFF500" stroke="#CE7218" stroke-width="0.240963" stroke-linecap="square" stroke-linejoin="round"/>
<path d="M232.557 242.182C233.852 242.177 235.24 242.271 236.724 242.471C240.643 243 244.42 243.304 248.27 242.244C242.563 245.228 235.793 246.429 228.985 247.407C225.759 247.871 222.487 248.017 219.52 249.942C221.317 245.14 225.568 242.211 232.557 242.182Z" fill="#EF9B11" stroke="#CE7218" stroke-width="0.240963" stroke-linecap="square" stroke-linejoin="round"/>
<path d="M176.358 274.614L200.881 265.484C209.807 262.161 217.895 259.289 222.613 252.505C225.278 248.673 226.374 244.289 226.461 239.678C221.397 242.019 216.274 244.326 214.964 250.072C213.34 257.197 207.004 259.661 200.572 262.065C191.932 265.292 183.294 268.504 174.245 271.52C173.454 271.784 174.881 275.164 176.358 274.614Z" fill="#FFF500" stroke="#CE7218" stroke-width="0.240963" stroke-linecap="square" stroke-linejoin="round"/>
<path d="M226.461 239.678C221.7 249.223 216.122 257.079 206.702 259.521C210.653 257.546 213.872 254.863 214.964 250.072C216.274 244.326 221.397 242.019 226.461 239.678Z" fill="#EF9B11" stroke="#CE7218" stroke-width="0.240963" stroke-linecap="square" stroke-linejoin="round"/>
<path fill-rule="evenodd" clip-rule="evenodd" d="M80.4512 47.868L76.1137 59.2081L63.9883 59.8291L73.4328 67.4586L70.2764 79.1824L80.4512 72.5578L90.6261 79.1824L87.4697 67.4586L96.9142 59.8291L84.7888 59.2081L80.4512 47.868Z" fill="#FFF500"/>
<path d="M80.4548 65.1478L76.1172 59.2081L80.4548 47.868V65.1478Z" fill="#EF9B11"/>
<path d="M80.4531 65.1478L84.7907 59.2081L80.4531 47.868V65.1478Z" fill="#FFF500"/>
<path d="M96.9161 59.8291L84.7907 59.2081L80.4531 65.1478L96.9161 59.8291Z" fill="#EF9B11"/>
<path d="M96.9161 59.8291L80.4531 65.1478L87.4716 67.4586L96.9161 59.8291Z" fill="#FFF500"/>
<path d="M63.9902 59.8291L76.1155 59.2081L80.4531 65.1478L63.9902 59.8291Z" fill="#FFF500"/>
<path d="M63.9902 59.8291L80.4531 65.1478L73.4347 67.4586L63.9902 59.8291Z" fill="#EF9B11"/>
<path d="M80.4561 65.1478L70.2812 79.1824L73.4377 67.4586L80.4561 65.1478Z" fill="#FFF500"/>
<path d="M80.4561 65.1478V72.5578L70.2812 79.1824L80.4561 65.1478Z" fill="#EF9B11"/>
<path d="M80.4541 65.1478L90.6289 79.1824L87.4725 67.4586L80.4541 65.1478Z" fill="#EF9B11"/>
<path d="M80.4541 65.1478V72.5578L90.6289 79.1824L80.4541 65.1478Z" fill="#FFF500"/>
<path fill-rule="evenodd" clip-rule="evenodd" d="M219.561 47.868L215.223 59.2081L203.098 59.8291L212.542 67.4586L209.386 79.1824L219.561 72.5578L229.735 79.1824L226.579 67.4586L236.024 59.8291L223.898 59.2081L219.561 47.868Z" fill="#FFF500"/>
<path d="M219.564 65.1478L215.227 59.2081L219.564 47.868V65.1478Z" fill="#EF9B11"/>
<path d="M219.562 65.1478L223.9 59.2081L219.562 47.868V65.1478Z" fill="#FFF500"/>
<path d="M236.025 59.8291L223.9 59.2081L219.562 65.1478L236.025 59.8291Z" fill="#EF9B11"/>
<path d="M236.025 59.8291L219.562 65.1478L226.581 67.4586L236.025 59.8291Z" fill="#FFF500"/>
<path d="M203.1 59.8291L215.225 59.2081L219.562 65.1478L203.1 59.8291Z" fill="#FFF500"/>
<path d="M203.1 59.8291L219.562 65.1478L212.544 67.4586L203.1 59.8291Z" fill="#EF9B11"/>
<path d="M219.562 65.1478L209.387 79.1824L212.543 67.4586L219.562 65.1478Z" fill="#FFF500"/>
<path d="M219.562 65.1478V72.5578L209.387 79.1824L219.562 65.1478Z" fill="#EF9B11"/>
<path d="M219.56 65.1479L229.734 79.1825L226.578 67.4586L219.56 65.1479Z" fill="#EF9B11"/>
<path d="M219.56 65.1479V72.5579L229.734 79.1825L219.56 65.1479Z" fill="#FFF500"/>
<path fill-rule="evenodd" clip-rule="evenodd" d="M120.133 30.0752L111.922 39.0189L100.421 35.1281L106.389 45.7009L99.1347 55.4367L111.035 53.0276L118.052 62.9354L119.438 50.8735L131.03 47.2612L119.986 42.2157L120.133 30.0752Z" fill="#FFF500"/>
<path d="M113.762 46.139L111.919 39.0189L120.13 30.0752L113.762 46.139Z" fill="#EF9B11"/>
<path d="M113.761 46.139L119.982 42.2156L120.129 30.0752L113.761 46.139Z" fill="#FFF500"/>
<path d="M131.029 47.2612L119.985 42.2157L113.764 46.1391L131.029 47.2612Z" fill="#EF9B11"/>
<path d="M131.027 47.2612L113.763 46.1391L119.436 50.8735L131.027 47.2612Z" fill="#FFF500"/>
<path d="M100.424 35.1281L111.925 39.0189L113.768 46.139L100.424 35.1281Z" fill="#FFF500"/>
<path d="M100.422 35.128L113.767 46.139L106.391 45.7008L100.422 35.128Z" fill="#EF9B11"/>
<path d="M113.767 46.139L99.1369 55.4366L106.391 45.7009L113.767 46.139Z" fill="#FFF500"/>
<path d="M113.767 46.139L111.037 53.0276L99.1369 55.4366L113.767 46.139Z" fill="#EF9B11"/>
<path d="M113.764 46.1391L118.051 62.9355L119.437 50.8735L113.764 46.1391Z" fill="#EF9B11"/>
<path d="M113.764 46.1391L111.033 53.0276L118.051 62.9355L113.764 46.1391Z" fill="#FFF500"/>
<path fill-rule="evenodd" clip-rule="evenodd" d="M179.883 30.0752L188.094 39.0189L199.595 35.1281L193.626 45.7009L200.881 55.4367L188.981 53.0276L181.963 62.9354L180.577 50.8735L168.986 47.2612L180.029 42.2157L179.883 30.0752Z" fill="#FFF500"/>
<path d="M186.253 46.139L188.097 39.0189L179.886 30.0752L186.253 46.139Z" fill="#EF9B11"/>
<path d="M186.254 46.139L180.033 42.2156L179.887 30.0752L186.254 46.139Z" fill="#FFF500"/>
<path d="M168.987 47.2612L180.03 42.2157L186.251 46.1391L168.987 47.2612Z" fill="#EF9B11"/>
<path d="M168.989 47.2612L186.253 46.1391L180.58 50.8735L168.989 47.2612Z" fill="#FFF500"/>
<path d="M199.592 35.1281L188.091 39.0189L186.247 46.139L199.592 35.1281Z" fill="#FFF500"/>
<path d="M199.594 35.128L186.249 46.139L193.625 45.7008L199.594 35.128Z" fill="#EF9B11"/>
<path d="M186.248 46.1391L200.879 55.4367L193.624 45.701L186.248 46.1391Z" fill="#FFF500"/>
<path d="M186.248 46.1391L188.979 53.0276L200.879 55.4367L186.248 46.1391Z" fill="#EF9B11"/>
<path d="M186.256 46.1391L181.969 62.9355L180.583 50.8735L186.256 46.1391Z" fill="#EF9B11"/>
<path d="M186.256 46.1391L188.986 53.0276L181.969 62.9355L186.256 46.1391Z" fill="#FFF500"/>
<path d="M148.815 33.9864C148.527 34.6996 148.42 35.4124 148.456 36.1256H150.006H151.555C151.591 35.4124 151.486 34.6996 151.197 33.9864H150.006H148.815Z" fill="#FFF500" stroke="#593906" stroke-width="0.240963" stroke-linecap="square"/>
<path d="M150.004 18.1558C148.548 19.3712 147.691 25.6568 148.591 27.8352H150.004H151.418C152.317 25.6568 151.46 19.3712 150.004 18.1558Z" fill="#FFF500" stroke="#593906" stroke-width="0.240963" stroke-linecap="square"/>
<path d="M150.003 27.7411C148.927 27.7411 148.59 27.8351 148.59 27.8351C149.171 29.7551 149.046 31.8568 148.813 33.9864C148.813 33.9864 148.97 34.1265 150.003 34.1265C151.036 34.1265 151.193 33.9864 151.193 33.9864C150.96 31.8568 150.836 29.7551 151.417 27.8351C151.417 27.8351 151.079 27.7411 150.003 27.7411Z" fill="#EF9B11" stroke="#593906" stroke-width="0.240963" stroke-linecap="square"/>
<path d="M148.819 33.9864C150.649 25.5086 145.211 20.2213 137.882 18.6733C129.935 16.9947 125.244 20.2164 121.59 25.0068C125.41 25.1274 132.594 25.2231 137.277 26.8845C141.572 28.4087 145.168 31.2591 148.819 33.9864Z" fill="#FFF500" stroke="#593906" stroke-width="0.240963" stroke-linecap="round" stroke-linejoin="round"/>
<path d="M133.983 22.2128C134.078 22.338 134.323 22.7305 134.53 23.0914C134.569 23.158 134.608 23.2273 134.65 23.301C134.879 23.7066 135.108 24.1353 135.353 24.6341C135.379 24.6864 135.404 24.7381 135.429 24.7898C135.713 25.3759 135.986 26.0815 136.271 26.5618C136.436 26.6096 136.599 26.6596 136.759 26.7106C136.728 26.6033 136.693 26.4954 136.654 26.3933C136.455 25.8727 136.072 25.2073 135.756 24.6223C135.728 24.5712 135.7 24.5203 135.672 24.4686C135.409 23.9872 135.145 23.5358 134.875 23.158C134.825 23.0876 134.776 23.0211 134.727 22.9591C134.423 22.5692 134.147 22.3418 133.983 22.2128ZM129.902 22.3597C129.935 22.5773 129.99 22.9261 130.129 23.3333C130.282 23.7857 130.504 24.2608 130.762 24.7213C130.772 24.7391 130.782 24.7567 130.792 24.7742C130.951 25.0549 131.117 25.3379 131.285 25.595C131.466 25.6174 131.646 25.6411 131.826 25.6655C131.635 25.3094 131.374 24.9436 131.133 24.5685C131.127 24.5582 131.107 24.5287 131.1 24.5185C130.802 24.0544 130.568 23.6842 130.331 23.2452C130.122 22.8563 129.992 22.589 129.902 22.3597ZM139.161 22.8191C139.304 22.9921 139.477 23.2603 139.612 23.6409C139.631 23.6935 139.648 23.7461 139.664 23.7986C139.726 23.9989 139.775 24.2168 139.812 24.4754C139.852 24.7557 139.87 25.0308 139.893 25.3491C139.915 25.652 139.937 25.9551 139.983 26.2532C139.984 26.2601 139.985 26.2669 139.987 26.2738C140.002 26.3666 140.028 26.4718 140.065 26.5911C140.103 26.7107 140.153 26.8435 140.215 26.9878C140.339 27.2752 140.507 27.5963 140.714 27.9301C140.896 28.2253 141.095 28.5028 141.29 28.7519C141.581 28.9183 141.87 29.09 142.157 29.2652C142.108 29.188 142.07 29.1195 142.018 29.0399C141.743 28.6249 141.46 28.226 141.135 27.6754C140.943 27.3509 140.785 27.0523 140.667 26.789C140.608 26.6576 140.561 26.5418 140.526 26.4403C140.49 26.3387 140.467 26.2557 140.453 26.1895C140.452 26.1847 140.451 26.1796 140.45 26.1749C140.398 25.8914 140.366 25.6167 140.323 25.3051C140.28 24.9912 140.234 24.6949 140.16 24.4059C140.092 24.1353 140.008 23.9032 139.906 23.6997C139.879 23.6462 139.85 23.5938 139.819 23.542C139.596 23.1725 139.328 22.9508 139.161 22.8191Z" fill="#593906"/>
<path d="M151.193 33.9864C149.362 25.5086 154.801 20.2213 162.13 18.6733C170.077 16.9947 174.767 20.2164 178.422 25.0068C174.602 25.1274 167.418 25.2231 162.735 26.8845C158.439 28.4087 154.844 31.2591 151.193 33.9864Z" fill="#EF9B11" stroke="#593906" stroke-width="0.240963" stroke-linecap="round" stroke-linejoin="round"/>
<path d="M166.029 22.2128C165.933 22.338 165.689 22.7305 165.481 23.0914C165.443 23.158 165.404 23.2273 165.362 23.301C165.132 23.7066 164.904 24.1353 164.659 24.6341C164.633 24.6864 164.608 24.7381 164.583 24.7898C164.299 25.3759 164.026 26.0815 163.741 26.5618C163.576 26.6096 163.413 26.6596 163.253 26.7106C163.284 26.6033 163.319 26.4954 163.358 26.3933C163.557 25.8727 163.94 25.2073 164.256 24.6223C164.284 24.5712 164.312 24.5203 164.34 24.4686C164.603 23.9872 164.867 23.5358 165.136 23.158C165.187 23.0876 165.236 23.0211 165.284 22.9591C165.588 22.5692 165.865 22.3418 166.029 22.2128ZM170.109 22.3597C170.077 22.5773 170.021 22.9261 169.883 23.3333C169.73 23.7857 169.508 24.2608 169.249 24.7213C169.24 24.7391 169.23 24.7567 169.22 24.7742C169.06 25.0549 168.895 25.3379 168.726 25.595C168.546 25.6174 168.365 25.6411 168.186 25.6655C168.377 25.3094 168.638 24.9436 168.879 24.5685C168.885 24.5582 168.905 24.5287 168.911 24.5185C169.21 24.0544 169.443 23.6842 169.68 23.2452C169.89 22.8563 170.02 22.589 170.109 22.3597ZM160.851 22.8191C160.707 22.9921 160.535 23.2603 160.4 23.6409C160.381 23.6935 160.364 23.7461 160.348 23.7986C160.285 23.9989 160.236 24.2168 160.2 24.4754C160.16 24.7557 160.141 25.0308 160.118 25.3491C160.097 25.652 160.075 25.9551 160.028 26.2532C160.027 26.2601 160.027 26.2669 160.025 26.2738C160.01 26.3666 159.984 26.4718 159.946 26.5911C159.909 26.7107 159.859 26.8435 159.796 26.9878C159.673 27.2752 159.504 27.5963 159.298 27.9301C159.115 28.2253 158.917 28.5028 158.722 28.7519C158.43 28.9183 158.142 29.09 157.855 29.2652C157.903 29.188 157.942 29.1195 157.994 29.0399C158.269 28.6249 158.552 28.226 158.877 27.6754C159.068 27.3509 159.226 27.0523 159.345 26.789C159.404 26.6576 159.451 26.5418 159.486 26.4403C159.521 26.3387 159.545 26.2557 159.558 26.1895C159.559 26.1847 159.56 26.1796 159.562 26.1749C159.614 25.8914 159.646 25.6167 159.689 25.3051C159.731 24.9912 159.778 24.6949 159.851 24.4059C159.92 24.1353 160.004 23.9032 160.106 23.6997C160.133 23.6462 160.162 23.5938 160.193 23.542C160.415 23.1725 160.684 22.9508 160.851 22.8191Z" fill="#593906"/>
<path d="M150.005 66.7456C148.91 65.825 148.195 63.8432 147.421 62.6557L147.015 63.7121C145.703 61.2422 144.904 58.5517 144.252 55.8669L143.439 56.0935C142.555 53.3237 142.788 50.2026 142.79 47.192L141.843 48.0217C141.083 40.6111 143.936 35.6593 150.005 35.6593V66.7456Z" fill="#FFF500" stroke="#593906" stroke-width="0.240963" stroke-linecap="round" stroke-linejoin="round"/>
<path d="M150.008 66.7456C151.102 65.825 151.817 63.8432 152.591 62.6557L152.998 63.7121C154.31 61.2422 155.108 58.5517 155.76 55.8669L156.573 56.0935C157.458 53.3237 157.225 50.2026 157.223 47.192L158.169 48.0217C158.93 40.6111 156.077 35.6593 150.008 35.6593V66.7456Z" fill="#EF9B11" stroke="#593906" stroke-width="0.240963" stroke-linecap="round" stroke-linejoin="round"/>
<path d="M149.995 41.3352C149.723 41.3458 148.324 42.1281 147.792 42.6085C147.132 43.2049 146.577 44.1224 146.051 44.9368C146.741 44.2134 147.402 43.6478 148.165 42.9866C148.562 42.6428 149.425 42.1584 149.866 41.8719C149.945 41.8203 150.071 41.8203 150.152 41.8729C150.594 42.1596 151.455 42.6436 151.851 42.9866C152.614 43.6478 153.275 44.2134 153.965 44.9368C153.439 44.1224 152.884 43.2049 152.224 42.6085C151.684 42.1205 150.248 41.3208 150.008 41.3352C150.004 41.3349 149.999 41.335 149.995 41.3352ZM149.995 46.935C149.74 46.9474 148.441 47.7285 147.947 48.2083C147.333 48.8047 146.816 49.7222 146.327 50.5366C146.969 49.8132 147.584 49.2476 148.294 48.5864C148.682 48.2251 149.55 47.7075 149.936 47.4286C149.976 47.3994 150.042 47.4005 150.085 47.4316C150.474 47.7113 151.336 48.2266 151.722 48.5864C152.432 49.2476 153.047 49.8132 153.689 50.5366C153.2 49.7222 152.683 48.8047 152.069 48.2083C151.567 47.7203 150.231 46.9206 150.008 46.935C150.004 46.9348 149.999 46.9348 149.995 46.935ZM149.997 52.5338C149.788 52.5467 148.729 53.3275 148.326 53.8071C147.825 54.4035 147.404 55.321 147.005 56.1354C147.529 55.412 148.031 54.8465 148.61 54.1852C148.927 53.8223 149.641 53.3015 149.953 53.0235C149.984 52.9963 150.034 52.9974 150.066 53.0264C150.381 53.3052 151.089 53.8236 151.406 54.1851C151.985 54.8464 152.487 55.412 153.01 56.1353C152.611 55.3209 152.19 54.4034 151.689 53.807C151.28 53.319 150.19 52.5193 150.008 52.5337C150.004 52.5335 150.001 52.5337 149.997 52.5338Z" fill="#593906"/>
</g>
<defs>
<clipPath id="clip0_151_35170">
<rect width="300" height="300" fill="white"/>
</clipPath>
</defs>
</svg>
