<svg width="301" height="300" viewBox="0 0 301 300" fill="none" xmlns="http://www.w3.org/2000/svg">
<g clip-path="url(#clip0_151_12656)">
<path d="M149.835 300C135.612 300 132.496 296.566 119.329 291.246L82.4927 276.25C70.4123 270.459 47.874 264.453 50.2093 256.506C51.6113 253.514 53.8229 246.807 54.95 243.573C58.0204 234.997 57.8568 233.432 62.2068 231.883C68.2987 230.522 74.5284 232.161 83.6508 240.705C91.2717 246.709 91.2811 242.012 91.2811 242.012C91.5996 240.886 88.284 236.397 84.0425 238.327C84.0425 238.327 82.2874 239.46 82.9473 240.055C88.9959 245.505 91.063 243.101 91.063 243.101L88.883 249.635C136.701 270.572 149.995 269.327 149.995 269.327C149.995 269.327 166.353 270.8 211.107 249.635L208.927 243.101C208.927 243.101 210.447 246.13 217.638 239.517C219.14 238.137 214.605 237.907 214.605 237.907C209.44 238.159 208.558 241.138 208.709 242.012C208.709 242.012 208.719 246.708 216.339 240.705C225.461 232.161 231.692 230.521 237.783 231.883C242.133 233.432 241.97 234.997 245.04 243.572C246.167 246.807 248.379 253.514 249.781 256.506C252.116 264.452 235.437 268.058 217.498 276.25L177.253 293.019C165.488 298.494 166.688 300 149.835 300Z" fill="#E8E18F" stroke="black" stroke-width="1.34384" stroke-linecap="round" stroke-linejoin="round"/>
<path d="M72.595 238.796C72.595 238.796 55.9864 231.09 88.882 249.635" stroke="black" stroke-width="1.34384" stroke-linecap="round" stroke-linejoin="round"/>
<path d="M227.392 238.796C227.392 238.796 244.001 231.09 211.105 249.635" stroke="black" stroke-width="1.34384" stroke-linecap="round" stroke-linejoin="round"/>
<path d="M68.2818 261.769C68.2133 262.694 68.3856 263.485 68.7985 264.144C69.2114 264.802 69.8601 265.322 70.7447 265.703C70.9869 265.807 71.255 265.893 71.5487 265.963L71.3098 266.516C70.2955 266.353 69.4281 266.116 68.7068 265.805C67.58 265.32 66.691 264.611 66.0409 263.678C65.3905 262.746 65.071 261.65 65.0821 260.391C63.7272 259.435 62.8406 258.189 62.422 256.652C62.0034 255.115 62.1361 253.554 62.8201 251.968C63.6133 250.128 64.8913 248.864 66.6534 248.176C68.4155 247.488 70.2478 247.554 72.1504 248.372C74.0469 249.189 75.3467 250.473 76.0495 252.225C76.7524 253.977 76.7083 255.77 75.9172 257.605C75.2281 259.203 74.1473 260.385 72.6748 261.15C71.203 261.917 69.7385 262.122 68.2818 261.769ZM71.844 249.059C70.7531 248.59 69.667 248.793 68.5848 249.67C67.6781 250.406 66.8462 251.652 66.0893 253.408C65.1809 255.514 64.8802 257.236 65.1869 258.574C65.4026 259.507 65.968 260.17 66.8829 260.564C67.8041 260.96 68.6722 260.921 69.4872 260.446C70.6631 259.768 71.683 258.428 72.5471 256.424C73.3981 254.451 73.7808 252.921 73.6951 251.837C73.5943 250.473 72.9768 249.546 71.844 249.059Z" fill="black"/>
<path d="M79.6628 251.94L86.0252 254.678L85.8804 255.014L85.5622 254.877C85.0835 254.671 84.7331 254.579 84.5114 254.602C84.2896 254.625 84.1028 254.708 83.9513 254.851C83.7998 254.994 83.573 255.417 83.27 256.119L80.6703 262.148C80.1949 263.25 79.9638 264.015 79.9766 264.444C79.9893 264.873 80.1355 265.288 80.4157 265.688C80.6955 266.088 81.1262 266.414 81.7081 266.664C82.3747 266.951 83.0073 267.046 83.6063 266.948C84.205 266.851 84.7344 266.589 85.195 266.162C85.6553 265.736 86.1676 264.869 86.7314 263.561L88.8966 258.54C89.1342 257.989 89.2464 257.571 89.2329 257.285C89.2195 257 89.1446 256.774 89.0082 256.607C88.7955 256.351 88.4407 256.115 87.9442 255.902L88.089 255.566L92.3517 257.4L92.2065 257.736L91.9522 257.626C91.6068 257.478 91.289 257.424 90.9987 257.464C90.7085 257.504 90.4518 257.641 90.2287 257.875C90.0665 258.036 89.877 258.366 89.6603 258.869L87.6438 263.545C87.02 264.993 86.4744 265.995 86.0067 266.555C85.5391 267.114 84.8194 267.504 83.8482 267.725C82.8766 267.945 81.7514 267.781 80.4731 267.231C79.4068 266.772 78.6442 266.275 78.1849 265.74C77.558 265.011 77.2119 264.273 77.1458 263.527C77.0796 262.781 77.267 261.896 77.7082 260.873L80.3078 254.844C80.6132 254.136 80.7637 253.678 80.7594 253.472C80.755 253.265 80.6777 253.069 80.5282 252.882C80.3787 252.696 80.0421 252.494 79.5183 252.276L79.6628 251.94Z" fill="black"/>
<path d="M99.9271 260.456C101.922 261.228 103.27 262.486 103.973 264.231C104.675 265.976 104.632 267.763 103.844 269.591C103.17 271.153 102.12 272.33 100.694 273.123C98.803 274.175 96.752 274.225 94.5404 273.273C92.3227 272.319 90.9315 270.83 90.3671 268.807C89.9213 267.209 90.0496 265.595 90.7517 263.967C91.5399 262.139 92.8196 260.883 94.5908 260.199C96.3616 259.515 98.1405 259.601 99.9271 260.456ZM99.7857 261.084C98.6586 260.599 97.5529 260.805 96.4694 261.702C95.5835 262.44 94.7594 263.694 93.9975 265.461C93.0917 267.562 92.7917 269.273 93.0977 270.596C93.3097 271.52 93.8799 272.182 94.8068 272.581C95.4307 272.85 96.0172 272.922 96.5659 272.8C97.266 272.641 97.948 272.201 98.6115 271.478C99.275 270.755 99.9019 269.71 100.492 268.342C101.194 266.713 101.568 265.43 101.613 264.491C101.659 263.553 101.519 262.816 101.193 262.281C100.866 261.746 100.397 261.347 99.7857 261.084Z" fill="black"/>
<path d="M116.611 268.68L114.43 273.737L114.785 273.89C115.33 274.124 115.811 274.234 116.227 274.219C116.643 274.204 117.054 274.055 117.46 273.77C117.866 273.486 118.248 273.03 118.605 272.401L118.923 272.538L116.257 278.722L115.939 278.585C116.328 277.367 116.346 276.462 115.995 275.869C115.643 275.276 115.143 274.84 114.495 274.561L114.14 274.409L112.516 278.177C112.244 278.807 112.109 279.215 112.111 279.402C112.113 279.59 112.19 279.786 112.342 279.992C112.494 280.197 112.743 280.374 113.088 280.523L113.497 280.699L113.352 281.035L106.908 278.261L107.053 277.925L107.462 278.101C107.819 278.255 108.134 278.315 108.408 278.282C108.602 278.265 108.786 278.172 108.959 278.002C109.089 277.886 109.286 277.519 109.553 276.902L113.045 268.802C113.317 268.172 113.453 267.765 113.454 267.578C113.455 267.392 113.38 267.196 113.228 266.991C113.076 266.786 112.827 266.609 112.482 266.46L112.073 266.284L112.217 265.948L122.615 270.423L121.092 273.955L120.72 273.795C120.993 272.929 121.041 272.221 120.865 271.672C120.689 271.122 120.305 270.624 119.716 270.176C119.391 269.929 118.738 269.594 117.757 269.171L116.611 268.68Z" fill="black"/>
<path d="M125.735 282.208L121.381 280.335L120.346 281.31C120.004 281.637 119.777 281.93 119.665 282.191C119.516 282.536 119.546 282.85 119.754 283.133C119.876 283.301 120.248 283.547 120.869 283.871L120.724 284.207L116.625 282.443L116.77 282.107C117.24 282.231 117.683 282.204 118.097 282.028C118.511 281.851 119.13 281.383 119.952 280.624L128.597 272.696L128.77 272.771L128.86 284.781C128.872 285.92 128.961 286.672 129.126 287.038C129.251 287.314 129.495 287.548 129.858 287.74L129.713 288.076L123.751 285.51L123.896 285.174L124.141 285.279C124.619 285.486 124.984 285.564 125.236 285.514C125.411 285.474 125.537 285.364 125.616 285.182C125.663 285.073 125.693 284.954 125.706 284.823C125.717 284.763 125.724 284.497 125.727 284.025L125.735 282.208ZM125.715 281.404L125.708 276.373L121.989 279.8L125.715 281.404Z" fill="black"/>
<path d="M145.473 279.551L144.322 282.992L143.984 282.88C144.049 282.019 144.018 281.374 143.89 280.946C143.762 280.517 143.52 280.129 143.163 279.78C142.963 279.589 142.565 279.393 141.971 279.195L141.023 278.878L137.742 288.687C137.525 289.338 137.425 289.756 137.443 289.943C137.46 290.129 137.554 290.318 137.723 290.51C137.891 290.702 138.157 290.858 138.52 290.98L138.942 291.12L138.827 291.468L132.162 289.243L132.278 288.896L132.7 289.037C133.07 289.16 133.389 289.194 133.658 289.138C133.85 289.104 134.029 288.997 134.193 288.816C134.312 288.689 134.479 288.307 134.692 287.669L137.972 277.86L137.052 277.553C136.195 277.267 135.512 277.24 135.002 277.474C134.288 277.798 133.703 278.405 133.245 279.295L132.888 279.176L134.039 275.735L145.473 279.551Z" fill="black"/>
<path d="M151.603 289.215L146.863 289.14L146.278 290.436C146.087 290.868 145.988 291.226 145.984 291.509C145.978 291.884 146.126 292.164 146.426 292.346C146.603 292.455 147.04 292.541 147.738 292.605L147.732 292.97L143.27 292.9L143.275 292.534C143.758 292.469 144.157 292.276 144.472 291.954C144.787 291.633 145.181 290.966 145.652 289.951L150.621 279.33L150.809 279.333L155.474 290.403C155.919 291.451 156.288 292.113 156.58 292.388C156.801 292.596 157.116 292.719 157.525 292.759L157.519 293.124L151.027 293.022L151.033 292.656L151.3 292.66C151.821 292.668 152.189 292.602 152.402 292.46C152.549 292.357 152.624 292.207 152.627 292.009C152.629 291.89 152.611 291.768 152.574 291.642C152.561 291.582 152.466 291.334 152.288 290.896L151.603 289.215ZM151.278 288.478L149.352 283.83L147.221 288.414L151.278 288.478Z" fill="black"/>
<path d="M165.067 276.405L167.193 281.486L167.549 281.338C168.097 281.109 168.51 280.84 168.788 280.531C169.066 280.222 169.244 279.823 169.322 279.333C169.399 278.844 169.336 278.252 169.132 277.559L169.451 277.425L172.051 283.637L171.731 283.771C171.124 282.645 170.485 282.003 169.815 281.844C169.144 281.685 168.482 281.741 167.831 282.013L167.475 282.162L169.059 285.947C169.324 286.58 169.524 286.961 169.661 287.09C169.797 287.218 169.992 287.299 170.245 287.333C170.499 287.366 170.799 287.311 171.146 287.166L171.557 286.994L171.698 287.331L165.224 290.035L165.083 289.698L165.494 289.526C165.853 289.376 166.115 289.192 166.281 288.972C166.404 288.821 166.464 288.624 166.463 288.382C166.469 288.208 166.342 287.811 166.083 287.191L162.678 279.054C162.414 278.421 162.215 278.04 162.082 277.91C161.949 277.78 161.755 277.698 161.502 277.665C161.248 277.631 160.948 277.687 160.601 277.832L160.19 278.004L160.049 277.666L170.494 273.304L171.979 276.852L171.605 277.008C171.171 276.211 170.695 275.685 170.177 275.429C169.659 275.174 169.034 275.103 168.302 275.216C167.898 275.277 167.203 275.514 166.217 275.925L165.067 276.405Z" fill="black"/>
<path d="M176.373 271.656L178.501 276.682L178.747 276.578C179.531 276.247 179.995 275.761 180.139 275.12C180.283 274.48 180.201 273.659 179.892 272.659L180.238 272.512L182.976 278.978L182.629 279.124C182.259 278.451 181.86 277.939 181.436 277.589C181.012 277.238 180.612 277.051 180.237 277.027C179.862 277.004 179.379 277.116 178.79 277.365L180.263 280.844C180.551 281.523 180.756 281.927 180.877 282.054C180.999 282.182 181.16 282.261 181.359 282.291C181.558 282.322 181.834 282.262 182.186 282.113L182.925 281.801C184.079 281.313 184.891 280.655 185.361 279.827C185.831 278.999 185.986 277.974 185.827 276.753L186.164 276.61L187.27 280.77L176.588 285.284L176.445 284.947L176.855 284.774C177.213 284.622 177.475 284.437 177.64 284.217C177.762 284.065 177.822 283.868 177.819 283.625C177.824 283.452 177.696 283.055 177.434 282.436L173.995 274.313C173.758 273.755 173.598 273.418 173.514 273.304C173.363 273.117 173.181 273.001 172.968 272.954C172.665 272.882 172.313 272.931 171.912 273.1L171.502 273.273L171.359 272.936L181.705 268.565L183.251 272.217L182.904 272.363C182.35 271.545 181.832 271.01 181.348 270.756C180.864 270.502 180.292 270.407 179.632 270.472C179.245 270.506 178.584 270.721 177.649 271.117L176.373 271.656Z" fill="black"/>
<path d="M191.22 272.454L192.692 275.911C192.976 276.579 193.196 276.981 193.351 277.119C193.507 277.257 193.71 277.335 193.96 277.35C194.21 277.365 194.618 277.253 195.183 277.013L195.326 277.349L189.006 280.036L188.863 279.699C189.433 279.456 189.798 279.239 189.956 279.047C190.114 278.854 190.198 278.655 190.208 278.451C190.218 278.246 190.08 277.81 189.796 277.143L186.386 269.137C186.102 268.47 185.882 268.067 185.727 267.929C185.571 267.791 185.368 267.714 185.118 267.699C184.867 267.683 184.46 267.796 183.895 268.036L183.752 267.699L189.489 265.26C190.982 264.625 192.119 264.264 192.899 264.176C193.679 264.088 194.406 264.229 195.079 264.598C195.753 264.968 196.248 265.525 196.566 266.271C196.953 267.181 196.946 268.072 196.543 268.945C196.284 269.499 195.819 270.03 195.146 270.539L199.893 273.453C200.511 273.827 200.931 274.047 201.152 274.11C201.481 274.192 201.813 274.173 202.149 274.052L202.292 274.388L198.404 276.041L192.029 272.11L191.22 272.454ZM188.643 266.404L190.945 271.808L191.464 271.588C192.308 271.229 192.906 270.883 193.259 270.551C193.612 270.218 193.822 269.799 193.891 269.294C193.958 268.789 193.855 268.211 193.578 267.562C193.178 266.622 192.662 266.021 192.031 265.76C191.399 265.498 190.595 265.575 189.617 265.99L188.643 266.404Z" fill="black"/>
<path d="M197.295 261.941L203.666 259.223L203.81 259.559L203.491 259.695C203.012 259.899 202.704 260.09 202.567 260.266C202.431 260.442 202.363 260.635 202.362 260.843C202.362 261.051 202.511 261.507 202.812 262.21L205.393 268.248C205.864 269.351 206.26 270.046 206.58 270.332C206.899 270.619 207.301 270.798 207.784 270.872C208.267 270.945 208.8 270.858 209.383 270.609C210.05 270.324 210.555 269.931 210.897 269.431C211.239 268.93 211.414 268.366 211.422 267.739C211.43 267.112 211.155 266.144 210.595 264.835L208.446 259.807C208.21 259.255 207.984 258.886 207.767 258.698C207.551 258.511 207.335 258.41 207.121 258.394C206.788 258.371 206.373 258.466 205.875 258.678L205.732 258.341L210 256.52L210.144 256.857L209.889 256.965C209.543 257.113 209.285 257.306 209.114 257.544C208.943 257.781 208.865 258.062 208.882 258.384C208.886 258.612 208.995 258.978 209.21 259.481L211.212 264.163C211.831 265.612 212.183 266.699 212.266 267.423C212.35 268.147 212.136 268.937 211.627 269.792C211.117 270.647 210.222 271.348 208.942 271.894C207.874 272.35 206.988 272.559 206.284 272.523C205.323 272.474 204.549 272.216 203.962 271.75C203.376 271.283 202.863 270.538 202.425 269.514L199.845 263.476C199.542 262.767 199.313 262.343 199.161 262.204C199.008 262.065 198.812 261.985 198.574 261.965C198.336 261.944 197.957 262.049 197.438 262.278L197.295 261.941Z" fill="black"/>
<path d="M214.947 254.404L224.309 259.445L222.038 254.146C221.721 253.407 221.401 252.952 221.077 252.782C220.635 252.555 220.074 252.594 219.394 252.9L219.25 252.564L223.326 250.82L223.47 251.157C222.977 251.447 222.664 251.683 222.53 251.865C222.397 252.048 222.331 252.28 222.334 252.562C222.336 252.845 222.462 253.276 222.711 253.858L227.109 264.119L226.799 264.252L214.059 257.559L217.417 265.393C217.72 266.102 218.088 266.512 218.519 266.621C218.95 266.731 219.374 266.696 219.793 266.517L220.084 266.392L220.228 266.729L215.852 268.601L215.708 268.264C216.384 267.968 216.798 267.626 216.948 267.239C217.098 266.852 217.033 266.332 216.752 265.677L213.025 256.979L212.621 256.764C212.22 256.549 211.897 256.432 211.653 256.415C211.409 256.398 211.096 256.463 210.714 256.612L210.57 256.276L214.947 254.404Z" fill="black"/>
<path d="M235.5 245.604L236.932 248.938L236.604 249.079C236.08 248.393 235.627 247.932 235.246 247.698C234.866 247.463 234.426 247.334 233.928 247.311C233.65 247.301 233.224 247.419 232.648 247.666L231.729 248.059L235.811 257.563C236.081 258.194 236.285 258.572 236.422 258.7C236.56 258.828 236.755 258.907 237.009 258.938C237.263 258.969 237.566 258.909 237.918 258.758L238.327 258.583L238.471 258.919L232.014 261.687L231.869 261.351L232.279 261.175C232.636 261.022 232.897 260.835 233.061 260.614C233.182 260.462 233.244 260.263 233.247 260.018C233.251 259.844 233.12 259.448 232.855 258.831L228.774 249.327L227.882 249.709C227.051 250.065 226.524 250.499 226.299 251.012C225.982 251.729 225.948 252.571 226.199 253.539L225.854 253.687L224.422 250.352L235.5 245.604Z" fill="black"/>
<path d="M249.669 0V186.784C249.669 236.676 149.835 252.887 149.835 252.887C149.835 252.887 50 236.676 50 186.784V0H249.669Z" fill="white"/>
<path d="M249.669 186.784C249.669 236.676 149.835 252.887 149.835 252.887C149.835 252.887 50 236.676 50 186.784C50 186.784 50 182.766 52.0315 180.482C52.0315 180.482 50.9313 188.78 57.3128 195.056C57.3128 195.056 52.3067 186.202 57.2027 177.501C57.2027 177.501 55.3871 188.697 62.3737 195.126C62.3737 195.126 58.523 185.981 62.869 175.783C62.869 175.783 60.7235 192.466 68.3152 195.791C68.3152 195.791 70.4055 186.202 67.3799 180.051C67.3799 180.051 72.6061 182.157 72.3309 196.068C72.3309 196.068 73.9812 194.017 74.4213 183.986C74.4213 183.986 74.6413 195.458 78.6023 198.119C78.6023 198.119 79.8124 196.955 78.1622 191.745C76.5119 186.535 78.8774 184.706 79.2625 184.817C79.2625 184.817 78.3943 190.581 83.2295 194.904C83.2295 194.904 81.1331 185.87 84.0485 184.651C84.0485 184.651 83.4435 192.3 89.4948 194.018C89.4948 194.018 89.9349 191.801 88.6146 189.307C88.6146 189.307 87.4592 186.349 88.3394 184.087C88.3394 184.087 90.2648 191.025 92.9055 192.189C92.9055 192.189 91.31 188.122 92.7956 184.087C92.7956 184.087 93.1255 189.861 98.2969 192.244C98.2969 192.244 94.89 187.774 96.2358 182.859L129.489 184.485L146.708 185.306L198.365 181.658L207.277 174.01C207.277 174.01 210.798 178.887 205.242 186.591C205.242 186.591 210.743 185.594 212.503 177.003C212.503 177.003 214.759 181.769 211.678 187.034C211.678 187.034 217.785 180.938 218.665 174.01C218.665 174.01 221.03 180.716 215.254 187.921C215.254 187.921 220.425 186.203 222.626 178.555C222.626 178.555 224.386 183.162 219.38 189.671C219.38 189.671 228.732 184.707 228.458 174.453C228.458 174.453 232.363 180.106 227.908 187.866C227.908 187.866 232.694 183.598 233.134 177.224C233.134 177.224 235.774 180.107 232.914 188.032C232.914 188.032 238.745 182.545 239.625 176.615C239.625 176.615 240.89 182.102 235.884 189.03C235.884 189.03 239.295 188.199 242.541 181.437C242.541 181.437 243.421 184.097 240.451 188.975C240.451 188.975 243.641 188.421 245.787 182.324C245.787 182.324 246.172 185.982 245.237 189.252C245.237 189.252 247.713 187.644 248.263 180.716C248.263 180.716 249.645 182.989 249.669 185.815C249.693 188.641 249.669 186.784 249.669 186.784Z" fill="#2F8F22"/>
<path d="M198.26 78.8079C198.26 78.8079 194.791 79.3969 190.335 78.041C185.879 76.685 184.078 77.2354 182.695 78.041C182.695 78.041 184.503 74.4641 180.102 71.6394C180.102 71.6394 181.532 75.2512 179.552 76.9381C179.552 76.9381 178.672 77.7658 177.627 76.5186C177.627 76.5186 176.086 74.939 174.463 73.7197C174.463 73.7197 178.204 72.4171 177.517 68.6207C176.829 64.8243 174.793 64.3252 173.693 63.8543C173.693 63.8543 174.078 65.5725 173.693 66.7365C173.693 66.7365 169.622 64.4642 175.151 61.2495C180.679 58.0348 179.662 56.1505 178.672 54.5156C177.681 52.8808 175.563 51.0794 174.518 50.442C174.518 50.442 175.618 52.1602 175.426 53.6289C175.233 55.0976 172.73 56.0398 173.225 53.4628C173.721 50.8858 173.198 51.3288 173.143 48.5853C173.143 48.5853 178.066 50.248 179.992 45.4538C179.992 45.4538 181.89 40.4935 175.673 38.0269C175.673 38.0269 177.186 40.0497 176.443 41.5738C176.443 41.5738 175.123 44.068 173.555 42.0451C171.987 40.0222 170.997 39.6342 171.162 37.2509C171.162 37.2509 176.801 38.0269 175.261 31.9025C175.261 31.9025 174.353 35.9761 167.036 30.4892C167.036 30.4892 171.795 25.6117 169.952 21.6767C169.952 21.6767 169.375 19.8754 164.203 20.9286C164.203 20.9286 168.687 18.1019 166.789 15.691C166.789 15.691 165.826 14.0836 161.645 16.1898C161.645 16.1898 163.268 13.3909 159.169 10.3702C159.169 10.3702 156.419 11.8111 154.961 13.1415C154.961 13.1415 152.155 9.59451 150.367 8.18115C150.367 8.18115 147.121 9.42806 146.296 13.1415C146.296 13.1415 144.783 11.3402 141.345 10.5088C141.345 10.5088 139.695 13.557 141.84 16.2176C141.84 16.2176 140.245 16.1622 137.329 14.8875C137.329 14.8875 134.001 13.308 134.496 16.1622C134.991 19.0165 135.239 19.6538 135.899 20.984C135.899 20.984 128.43 19.2511 128.748 23.2841C128.968 26.083 130.013 28.4938 132.324 30.517C132.324 30.517 128.143 35.9761 124.567 31.875C124.567 31.875 123.329 33.2051 125.997 36.6967C125.997 36.6967 128.665 39.6342 126.464 41.491C126.464 41.491 123.521 43.8465 122.091 39.2741C122.091 39.2741 117.332 44.0129 122.944 47.6431C122.944 47.6431 126.547 49.6939 130.233 46.5345C130.233 46.5345 129.105 55.6242 125.584 53.8782C125.584 53.8782 123.466 52.3263 127.262 50.4695C127.262 50.4695 121.788 49.7768 120.908 55.0698C120.908 55.0698 120.232 59.281 125.006 60.8061C125.006 60.8061 128.692 62.1362 124.869 64.9905C124.869 64.9905 122.173 67.0412 123.934 70.0895C123.934 70.0895 126.052 73.4424 120.688 73.7751C120.688 73.7751 117.772 73.7472 116.727 73.3592C116.727 73.3592 115.551 75.5445 116.372 78.0406C116.372 78.0406 113.701 76.052 107.622 78.2528C101.543 80.4535 102.011 78.9015 101.516 79.5668C101.02 80.232 99.8379 82.4764 99.8379 82.4764C99.8379 82.4764 103.029 86.356 103.084 86.2731C103.139 86.1899 102.479 90.7069 102.479 90.7069L104.046 91.455L116.562 85.8848L129.27 79.2687L139.487 79.8947L145.967 81.4363L154.477 82.0558L160.572 78.8076H169.402L179.113 83.6421L190.197 90.2487L195.974 91.261L200.424 91.024V82.0558L198.26 78.8079Z" fill="#D40000" stroke="black" stroke-width="0.73377" stroke-linejoin="round"/>
<path d="M97.4506 89.2937C97.4506 89.2937 102.292 91.7599 104.314 88.7671C104.314 88.7671 106.954 83.7373 101.157 81.9916C101.157 81.9916 104.314 78.209 100.931 74.7174C100.931 74.7174 99.1563 72.8469 96.0618 74.2186C96.0618 74.2186 94.7828 71.5584 91.7709 71.6413C91.7709 71.6413 89.1303 71.5996 88.2225 74.5096C88.2225 74.5096 84.5918 73.013 82.57 75.1749C82.57 75.1749 79.2278 78.9158 83.8903 81.8674L87.2462 82.1722L90.547 80.6481L94.2328 81.7009C94.2328 81.7009 93.2834 85.4279 97.4506 89.2937Z" fill="#D40000" stroke="black" stroke-width="0.73377" stroke-linejoin="round"/>
<path d="M205.516 80.4485C211.348 79.8994 213.407 84.8168 213.407 84.8168C216.464 91.9819 209.972 95.8061 209.972 95.8061C210.467 97.4135 210.522 99.5196 210.522 99.5196C219.654 100.628 218.057 110.882 218.057 110.882L215.033 108.387C209.752 106.337 204.306 110.826 200.4 118.364C196.494 125.902 198.364 129.449 199.025 138.372C199.685 147.295 214.208 152.616 214.208 152.616C214.208 152.616 207.331 170.296 202.876 181.658C198.419 193.02 189.122 188.309 186.427 185.916C183.731 183.522 183.057 184.852 181.696 185.916C180.334 186.979 187.802 192.799 174.214 198.286C160.626 203.773 158.26 207.985 156.005 209.37C153.749 210.756 144.342 209.814 143.407 208.65C142.471 207.486 143.022 207.486 139.501 205.324C135.98 203.163 130.039 201.278 123.547 198.119C117.056 194.96 117.221 190.914 117.276 190.083C117.331 189.251 119.531 182.49 111.928 187.866C104.325 193.242 97.8562 185.306 97.8562 185.306C96.3709 183.355 90.0445 166.417 90.0445 166.417C88.3392 160.098 84.9833 152.727 84.9833 152.727C85.1482 152.672 84.6533 153.503 90.2645 150.289C95.8757 147.074 98.3894 141.725 100.332 136.432C102.274 131.139 100.387 122.078 99.6718 120.249C98.9565 118.42 94.7755 110.034 89.5987 108.277C84.4219 106.52 80.949 110.882 80.949 110.882C80.949 110.882 79.3519 100.629 88.4843 99.5203C88.4843 99.5203 88.5394 97.4141 89.0343 95.8068C89.0343 95.8068 82.5428 91.9826 85.5994 84.8174C85.5994 84.8174 87.6588 79.9004 93.4908 80.4491L92.0797 83.1148C92.0797 83.1148 90.6113 97.7468 112.05 87.9365C133.488 78.1262 132.844 76.2973 145.057 82.4495L153.969 82.2834C153.969 82.2834 166.842 76.3339 170.968 78.8928C175.094 81.452 189.948 89.7654 189.948 89.7654C189.948 89.7654 204.306 95.145 207.112 85.2222L205.516 80.4485Z" fill="#64B4D1" stroke="black" stroke-width="0.550101"/>
<path d="M141.015 143.886C141.015 143.886 140.27 139.395 139.488 136.487C139.488 136.487 137.896 131.923 140.611 128.718L143.977 124.848C143.977 124.848 146.069 122.036 148.658 121.655C148.658 121.655 151.248 121.578 151.495 121.052C151.743 120.525 154.576 115.867 161.315 121.052C161.315 121.052 163.461 117.615 166.761 117.033C166.761 117.033 170.327 115.953 172.051 118.613C172.051 118.613 176.058 115.578 179.497 120.462C179.497 120.462 184.256 117.788 187.721 123.106C187.721 123.106 192.425 120.814 195.313 125.699C198.201 130.584 197.623 132.58 197.623 132.58L199.767 140.339L207.361 149.706L189.701 156.357H181.78L165.936 160.597L137.796 162.758L129.957 153.53L141.015 143.886Z" fill="white" stroke="#00247D" stroke-width="0.733501" stroke-miterlimit="10"/>
<path d="M117.231 190.609C117.231 190.609 113.022 190.858 110.877 191.939C108.732 193.02 107.081 194.184 104.606 195.763C104.606 195.763 103.45 197.301 98.5819 196.366C98.5819 196.366 90.1648 194.35 90.1648 200.918C90.1648 200.918 80.0974 201.749 84.2233 210.562C84.2233 210.562 87.0289 217.462 92.8054 212.557C92.8054 212.557 89.0921 217.878 96.2712 219.956C96.2712 219.956 101.388 221.203 102.873 215.965C102.873 215.965 103.698 213.887 101.717 211.31C101.717 211.31 104.193 210.811 105.926 208.151C105.926 208.151 100.645 214.819 106.421 217.221C106.421 217.221 113.681 219.041 114.095 211.476C114.095 211.476 113.502 207.985 116.316 206.737C116.316 206.737 122.1 205.407 124.74 198.964C124.74 198.964 116.423 194.538 117.231 190.609Z" fill="#D40000" stroke="black" stroke-width="0.73377" stroke-linejoin="round"/>
<path d="M100.234 124.3C100.234 124.3 93.7429 121.312 90.6622 124.3C90.6622 124.3 86.3713 121.645 81.86 124.3C81.86 124.3 77.5691 127.101 74.5982 130.187C74.5982 130.187 72.5079 131.976 73.2779 137.612C73.2779 137.612 74.3782 141.586 73.718 143.581C73.718 143.581 72.2878 143.299 69.4271 146.685C69.4271 146.685 65.7964 150.886 62.6055 147.178C62.6055 147.178 63.5955 152.339 69.5921 151.507C69.5921 151.507 66.6763 153.779 69.2071 159.654C69.2071 159.654 71.0774 163.811 68.1068 169.021C68.1068 169.021 73.333 166.915 73.1129 160.763C73.1129 160.763 72.6728 156.606 74.2132 153.668C74.2132 153.668 72.6728 156.339 76.2488 162.037C76.2488 162.037 78.9993 166.139 76.744 170.406C76.744 170.406 81.9151 168.522 81.4202 162.259C80.925 155.996 77.7895 158.601 79.8248 152.837C79.8248 152.837 80.32 155.79 81.8603 157.278C83.4007 158.768 85.3812 161.262 84.5561 165.418C84.5561 165.418 87.6368 161.594 86.9216 157.659C86.2063 153.724 85.4363 152.534 85.4363 152.534L95.1738 147.018L100.015 138.261L100.234 124.3Z" fill="#D40000" stroke="black" stroke-width="0.73377" stroke-linejoin="round"/>
<path d="M85.436 149.013C85.436 149.013 81.4199 148.736 80.7598 145.632" stroke="black" stroke-width="0.733501" stroke-miterlimit="10"/>
<path d="M73.7188 143.582C73.7188 143.582 75.118 143.526 76.3832 144.801C76.3832 144.801 77.3495 146.242 78.7249 146.076" stroke="black" stroke-width="0.733501" stroke-miterlimit="10"/>
<path d="M91.3773 137.208C91.3773 137.208 89.287 137.208 88.1316 136.21C88.1316 136.21 86.9215 135.379 86.2062 136.709C86.2062 136.709 85.1059 138.594 87.1415 139.425C87.1415 139.425 89.672 140.7 85.6562 143.249C85.6562 143.249 90.4423 141.531 88.5169 139.203C88.5169 139.203 86.4266 137.706 87.1966 137.152C87.1966 137.152 87.4167 136.709 88.2418 137.263C89.0669 137.817 90.7171 137.596 91.3773 137.208Z" fill="black"/>
<path d="M156.996 147.796L140.909 92.2975L140.32 92.4556L154.535 148.628L156.996 147.796Z" fill="#784421" stroke="black" stroke-width="0.550101"/>
<path d="M100.973 210.06C100.973 210.06 97.1765 207.929 94.041 210.423C94.041 210.423 94.3615 209.037 96.7593 208.428C96.7593 208.428 98.0567 204.769 101.688 205.102C101.688 205.102 100.203 206.876 98.222 208.372C98.222 208.372 100.312 208.588 100.973 210.06Z" fill="black"/>
<path d="M87.6066 218.875C87.6066 218.875 81.5825 215.093 84.8423 208.733C84.8423 208.733 85.7914 206.904 87.6066 207.278C87.6066 207.278 91.3613 208.442 88.4317 213.638C88.4317 213.638 86.9465 217.005 87.6066 218.875Z" fill="#64B4D1" stroke="#00247D" stroke-width="0.550134" stroke-miterlimit="2.613"/>
<path d="M99.8192 224.861C99.8192 224.861 91.2371 220.954 93.8777 214.303C93.8777 214.303 94.6934 212.058 96.596 212.224C96.596 212.224 99.9055 212.39 99.2433 216.796C99.2437 216.797 98.2516 221.12 99.8192 224.861Z" fill="#64B4D1" stroke="#00247D" stroke-width="0.550134" stroke-miterlimit="2.613"/>
<path d="M98.0025 200.04C98.0025 200.04 95.4237 201.943 94.3751 203.218C94.3751 203.218 93.3263 201.916 91.9512 201.126C91.9512 201.126 93.5345 200.918 94.3751 201.629C94.3751 201.629 95.6918 200.354 98.0025 200.04Z" fill="black"/>
<path d="M105.635 223.198C105.635 223.198 112.36 221.494 111.122 214.552C111.122 214.552 110.462 211.518 107.615 211.934C107.615 211.934 104.184 212.809 106.419 217.222C106.419 217.222 107.739 220.372 105.635 223.198Z" fill="#64B4D1" stroke="#00247D" stroke-width="0.550134" stroke-miterlimit="2.613"/>
<path d="M136.021 76.3396C136.021 76.3396 140.353 77.6664 142.706 78.6246C142.706 78.6246 148.977 81.4513 156.941 78.6246C156.941 78.6246 162.326 76.494 163.044 76.3396L158.921 82.615L158.715 85.8572L161.295 89.6402C161.295 89.6402 159.746 90.2635 155.125 87.4371C155.125 87.4371 150.009 83.4883 143.902 87.4371C143.902 87.4371 140.56 89.6986 137.755 89.6405L141.716 85.2215L140.189 81.2429L136.021 76.3396Z" fill="#F5CE00" stroke="black" stroke-width="0.733501" stroke-miterlimit="2.613"/>
<path d="M108.234 214.905C108.234 214.905 108.482 214.573 108.193 214.427C108.193 214.427 107.904 214.303 107.698 214.708C107.698 214.708 106.996 215.82 107.59 217.342C107.59 217.342 108.152 218.397 107.879 219.499C107.879 219.499 107.842 219.811 108.09 219.852C108.09 219.852 108.327 219.769 108.373 219.541C108.373 219.541 108.709 218.465 108.131 217.413C108.132 217.413 107.43 215.778 108.234 214.905Z" fill="white"/>
<path d="M201.391 89.2937C201.391 89.2937 196.55 91.7599 194.528 88.7671C194.528 88.7671 191.887 83.7373 197.684 81.9916C197.684 81.9916 194.528 78.209 197.911 74.7174C197.911 74.7174 199.685 72.8469 202.78 74.2186C202.78 74.2186 204.059 71.5584 207.071 71.6413C207.071 71.6413 209.711 71.5996 210.619 74.5096C210.619 74.5096 214.25 73.013 216.272 75.1749C216.272 75.1749 219.614 78.9158 214.951 81.8674L211.595 82.1722L208.294 80.6481L204.609 81.7009C204.609 81.7009 205.558 85.4279 201.391 89.2937Z" fill="#D40000" stroke="black" stroke-width="0.73377" stroke-linejoin="round"/>
<path d="M163.047 85.3863C163.047 85.3863 162.925 86.3842 161.935 86.495C161.935 86.495 160.902 86.8273 160.299 85.5424C160.299 85.5424 160.23 85.2518 160.213 85.1091C160.144 84.508 159.939 82.7812 161.809 81.3681C161.809 81.3681 164.863 78.874 170.694 81.8947C170.694 81.8947 175.315 84.1116 178.506 85.9962C178.506 85.9962 186.757 90.43 187.748 90.7626C187.748 90.7626 191.379 92.5914 196.935 92.8133C196.935 92.8133 204.527 93.3674 207.745 88.0469C207.745 88.0469 210.193 84.0009 207.745 81.4239C207.745 81.4239 206.755 80.2598 205.127 80.4743C204.444 80.5643 203.689 80.8781 202.959 81.7286C202.959 81.7286 201.776 83.4467 203.152 84.7215C203.152 84.7215 204.94 85.816 205.572 83.5021C205.572 83.5021 205.6 83.3359 205.655 83.5437C205.69 83.6776 206.095 85.4421 205.146 86.9383C205.146 86.9383 200.566 93.8621 187.968 86.6869L171.354 77.3778C171.354 77.3778 163.019 73.1101 158.041 79.7886C158.041 79.7886 154.025 85.331 159.196 88.9612C159.196 88.9612 163.047 91.2613 165.468 87.6032C165.468 87.6032 167.476 84.0005 164.312 82.421C164.312 82.421 161.534 81.1184 160.434 83.8897C159.334 86.6611 162.579 87.3814 162.882 85.4139C162.882 85.4139 162.964 84.943 163.047 85.3863Z" fill="#F5CE00" stroke="black" stroke-width="0.733501" stroke-miterlimit="2.613"/>
<path d="M97.1911 113.957C97.1911 113.957 97.1911 105.311 97.1911 103.565C97.1911 102.749 97.1969 102.069 98.4349 101.071C99.6725 100.074 100.993 98.4939 102.891 102.983C102.891 102.983 106.604 99.0759 107.842 98.4939C107.842 98.4939 109.988 96.665 111.473 99.3252C111.473 99.3252 113.453 96.3324 115.021 95.5842C115.021 95.5842 118.735 93.1733 118.9 100.406L121.788 97.7457C121.788 97.7457 124.016 95.9168 126.492 98.4109C126.492 98.4109 130.7 102.485 131.278 103.649C131.278 103.649 132.206 104.91 132.278 106.898C132.278 106.898 132.268 109.135 133.423 110.382C133.423 110.382 134.743 111.546 136.022 111.796C136.022 111.796 139.035 111.879 140.107 114.705C140.107 114.705 140.603 114.216 142.088 127.763V152.449L125.419 172.319L98.6825 164.67L88.0376 160.264L85.6445 152.449L95.9595 145.798L101.571 130.668L99.7552 120.026L97.1911 113.957Z" fill="#E4CB5E" stroke="black" stroke-width="0.550134" stroke-miterlimit="2.613"/>
<path d="M170.859 127.065L172.125 125.181L175.15 122.853C175.15 122.853 179.771 134.968 179.991 137.612V141.372C179.991 141.372 186.923 143.139 188.133 153.78L182.412 164.31L173.445 159.322L170.859 157.438V127.065Z" fill="#784421" stroke="black" stroke-width="0.550101"/>
<path d="M85.9339 210.25C85.9339 210.25 86.2642 209.813 86.0371 209.626C86.0371 209.626 85.8926 209.418 85.5006 209.917C85.5006 209.917 83.6783 211.953 85.1293 215.082C85.1293 215.082 85.2943 215.529 85.5832 215.383C85.5832 215.383 85.8308 215.259 85.6037 214.885C85.6037 214.885 84.3042 212.308 85.9339 210.25Z" fill="white"/>
<path d="M112.967 208.206C112.967 208.206 113.242 207.264 112.582 206.266C112.582 206.266 112.142 205.546 112.307 204.603" stroke="black" stroke-width="0.733501" stroke-miterlimit="10"/>
<path d="M118.9 100.406C118.9 100.406 118.925 103.005 119.668 104.917C120.411 106.83 122.918 110.137 123.083 111.924" stroke="black" stroke-width="0.550134" stroke-miterlimit="10"/>
<path d="M181.779 190.609C181.779 190.609 185.987 190.858 188.133 191.939C190.278 193.02 191.929 194.183 194.404 195.763C194.404 195.763 195.56 197.301 200.428 196.366C200.428 196.366 208.845 194.35 208.845 200.917C208.845 200.917 218.913 201.749 214.787 210.561C214.787 210.561 211.981 217.461 206.205 212.557C206.205 212.557 209.918 217.877 202.739 219.956C202.739 219.956 197.622 221.202 196.137 215.965C196.137 215.965 195.312 213.887 197.293 211.309C197.293 211.309 194.817 210.811 193.084 208.15C193.084 208.15 198.365 214.818 192.589 217.22C192.589 217.22 185.329 219.041 184.915 211.475C184.915 211.475 185.508 207.984 182.694 206.737C182.694 206.737 176.91 205.406 174.27 198.963C174.27 198.964 182.587 194.538 181.779 190.609Z" fill="#D40000" stroke="black" stroke-width="0.73377" stroke-linejoin="round"/>
<path d="M115.578 111.921L122.446 167.303" stroke="black" stroke-width="0.550134" stroke-miterlimit="10"/>
<path d="M117.168 111.801L124.87 163.423" stroke="black" stroke-width="0.550134" stroke-miterlimit="10"/>
<path d="M118.609 111.561L127.481 162.758" stroke="black" stroke-width="0.550134" stroke-miterlimit="10"/>
<path d="M135.101 157.521L119.015 102.022L118.426 102.18L132.641 158.352L135.101 157.521Z" fill="#784421" stroke="black" stroke-width="0.550101"/>
<path d="M123.531 109.527L139.776 150.537" stroke="black" stroke-width="0.550134" stroke-miterlimit="10"/>
<path d="M122.447 110.191L138.126 153.031" stroke="black" stroke-width="0.550134" stroke-miterlimit="10"/>
<path d="M96.7117 220.926C96.7117 220.926 94.826 219.12 95.0887 215.882C95.0887 215.882 95.1989 215.19 94.8525 215.094C94.8525 215.094 94.4833 214.94 94.4285 215.744C94.4285 215.744 93.9058 219.125 96.189 221.065C96.189 221.065 96.3445 221.259 96.5968 221.203C96.5968 221.203 96.8676 221.143 96.7117 220.926Z" fill="white"/>
<path d="M124.266 108.971L141.016 146.38" stroke="black" stroke-width="0.550134" stroke-miterlimit="10"/>
<path d="M119.684 111.296L129.957 161.678" stroke="black" stroke-width="0.550134" stroke-miterlimit="10"/>
<path d="M203.722 148.628C196.385 144.468 194.776 135.24 194.776 135.24C193.002 126.054 196.591 118.779 196.591 118.779C201.336 108.761 209.467 106.898 209.467 106.898C209.467 106.898 201.501 112.419 199.273 119.86C199.273 119.86 197.54 126.137 198.53 132.331C199.52 138.524 199.149 136.945 200.676 141.725L203.722 148.628Z" fill="#F5CE00" stroke="black" stroke-width="0.733501" stroke-miterlimit="2.613"/>
<path d="M172.125 125.181L141.294 134.906L139.613 148.627C132.296 159.216 117.428 161.095 117.428 161.095L128.995 173.399L151.221 178.055L162.883 169.076L173.446 159.322C172.346 154.112 172.951 146.38 172.951 146.38C172.951 145.078 173.446 142.029 173.446 142.029C173.446 142.029 171.63 129.504 172.125 125.181Z" fill="#784421" stroke="black" stroke-width="0.335893"/>
<path d="M140.033 145.18C140.033 145.18 160.34 138.845 172.448 133.759" stroke="black" stroke-width="0.550134" stroke-miterlimit="10"/>
<path d="M130.287 156.744C130.287 156.744 155.62 152.172 173.445 142.03L179.991 137.612" stroke="black" stroke-width="0.550134" stroke-miterlimit="10"/>
<path d="M179.991 141.372L172.949 146.381C172.949 146.381 144.617 159.433 123.045 159.782" stroke="black" stroke-width="0.550134" stroke-miterlimit="10"/>
<path d="M172.943 155.655C172.943 155.655 151.164 166.86 138.676 167.026" stroke="black" stroke-width="0.550134" stroke-miterlimit="10"/>
<path d="M198.916 124.3C198.916 124.3 205.407 121.312 208.488 124.3C208.488 124.3 212.779 121.645 217.29 124.3C217.29 124.3 221.581 127.101 224.552 130.187C224.552 130.187 226.642 131.976 225.872 137.612C225.872 137.612 224.772 141.586 225.432 143.581C225.432 143.581 226.863 143.299 229.723 146.685C229.723 146.685 233.354 150.886 236.545 147.178C236.545 147.178 235.555 152.339 229.558 151.507C229.558 151.507 232.474 153.779 229.943 159.654C229.943 159.654 228.073 163.811 231.044 169.021C231.044 169.021 225.817 166.915 226.037 160.763C226.037 160.763 226.477 156.606 224.937 153.668C224.937 153.668 226.477 156.339 222.902 162.037C222.902 162.037 220.151 166.139 222.406 170.406C222.406 170.406 217.235 168.522 217.73 162.259C218.225 155.996 221.361 158.601 219.326 152.837C219.326 152.837 218.83 155.79 217.29 157.278C215.75 158.767 213.769 161.262 214.594 165.418C214.594 165.418 211.514 161.594 212.229 157.659C212.944 153.724 213.714 152.534 213.714 152.534L203.977 147.018L199.135 138.261L198.916 124.3Z" fill="#D40000" stroke="black" stroke-width="0.73377" stroke-linejoin="round"/>
<path d="M88.6152 159.35C88.6152 159.35 89.523 155.053 93.6489 156.744C93.6489 156.744 95.0519 149.706 102.561 149.457C110.07 149.207 110.483 156.772 110.483 157.271C110.483 157.271 112.688 154.023 116.372 154.4C116.372 154.4 122.722 154.026 120.357 164.212L121.558 165.489C121.558 165.489 126.409 154.112 136.394 157.105C136.394 157.105 146.131 160.07 139.777 169.493C139.777 169.493 144.583 175.728 148.658 175.146C152.733 174.564 156.364 173.317 160.407 166.167C164.45 159.017 173.858 157.937 176.251 158.352C178.644 158.768 180.534 160.32 180.925 162.01C180.925 162.01 185.906 145.402 203.812 148.012L210.991 151.618L213.715 152.865L209.656 164.31L199.767 186.641L192.26 188.946L184.42 184.457L181.697 185.915L181.475 192.604L171.134 200.04L163.955 202.996L156.033 208.4L154.19 213.23C154.19 213.23 149.815 211.389 144.877 213.23L143.243 209.231L138.622 204.825L120.671 196.365L117.427 185.915L114.151 184.457L110.483 188.655L105.119 189.279L97.115 183.875L88.6152 159.35Z" fill="white" stroke="#00247D" stroke-width="0.733501" stroke-miterlimit="10"/>
<path d="M166.787 78.0426C166.787 78.0426 159.936 77.7378 160.184 84.8321" stroke="black" stroke-width="0.733501" stroke-miterlimit="2.613"/>
<path d="M211.857 153.406C199.933 149.748 196.673 136.945 196.673 136.945C194.239 127.342 198.158 118.946 198.158 118.946C203.605 106.168 212.819 106.171 212.819 106.171C217.44 106.046 217.994 109.995 217.994 109.995C218.431 112.794 216.464 113.805 216.464 113.805C213.3 115.523 211.306 113.196 211.306 113.196C209.986 111.478 211.004 109.954 211.004 109.954C211.815 108.817 213.369 109.316 213.369 109.316C214.6 109.697 214.47 111.235 214.47 111.235C214.476 111.277 214.504 111.277 214.504 111.277C214.559 111.263 214.538 111.242 214.538 111.242C214.538 111.242 214.813 109.358 212.97 109.164C212.97 109.164 209.38 108.388 205.172 113.625C205.172 113.625 199.63 120.692 199.643 129.837C199.643 129.837 198.942 147.005 216.848 151.452C216.848 151.452 214.909 154.237 211.485 164.297C211.485 164.297 207.606 177.224 203.904 184.214C203.904 184.214 198.983 194.184 188.008 190.11C188.008 190.11 181.473 187.242 181.489 182.504C181.489 182.504 181.035 178.181 184.954 177.848C184.954 177.848 188.791 177.557 188.75 180.841C188.75 180.841 188.854 184.395 184.666 183.584C184.666 183.584 183.201 183.272 183.469 181.838C183.469 181.838 183.703 180.55 185.47 181.111C185.47 181.111 185.525 181.118 185.532 181.09C185.532 181.09 185.552 181.059 185.491 181.042C185.491 181.042 184.807 180.737 184.085 180.989C184.085 180.989 183.438 181.205 183.387 182.213C183.387 182.213 183.345 183.023 184.212 183.481C184.212 183.481 185.264 183.855 186.089 183.772C186.089 183.772 187.199 186.01 189.711 186.768C193.207 187.825 196.086 186.808 197.848 185.403C199.765 183.876 201.005 181.205 201.376 180.55C201.747 179.895 204.966 172.694 207.386 164.948C207.386 164.948 209.504 158.27 211.196 154.778L211.857 153.406Z" fill="#F5CE00" stroke="black" stroke-width="0.733501" stroke-miterlimit="2.613"/>
<path d="M178.21 185.953C178.21 185.953 180.439 185.651 180.439 187.637C180.439 187.637 180.303 190.536 176.767 189.902C176.767 189.902 173.28 189.14 174.518 185.246C174.518 185.246 175.343 182.503 178.644 182.898C178.644 182.898 181.842 183.043 183.244 187.408C183.244 187.408 184.317 191.088 182.481 194.246C180.432 197.771 175.247 200.087 172.743 201.112C172.743 201.112 162.717 205.047 159.726 207.299C159.726 207.299 155.139 210.7 157.168 213.866C157.168 213.866 157.952 215.072 159.128 215.072C159.128 215.072 160.469 215.134 160.696 213.763C160.696 213.763 160.703 213.735 160.682 213.7C160.682 213.7 160.662 213.7 160.655 213.735C160.655 213.735 160.558 214.573 159.829 214.885C159.829 214.885 158.853 215.377 157.828 214.511C157.828 214.511 156.742 213.471 157.65 211.857C157.65 211.857 158.839 209.869 161.611 211.046C161.611 211.046 164.052 212.252 163.048 214.843C163.048 214.843 162.154 217.227 159.211 217.221C159.211 217.221 156.994 217.148 155.578 215.663C153.366 213.347 153.246 208.835 155.195 206.502C155.195 206.502 157.038 204.021 160.738 202.511C162.881 201.636 166.927 199.878 171.135 198.23C174.094 197.07 176.802 195.683 178.562 193.601C178.562 193.601 180.13 191.855 180.584 188.863C180.584 188.863 181.017 186.618 179.648 186.126C179.648 186.126 178.954 185.814 178.191 185.918C178.191 185.918 178.17 185.919 178.165 185.932C178.164 185.932 178.133 185.966 178.21 185.953Z" fill="#F5CE00" stroke="black" stroke-width="0.733501" stroke-miterlimit="2.613"/>
<path d="M178.396 185.939C178.396 185.939 180.858 185.496 182.399 188.42C182.399 188.42 183.307 190.304 183.453 191.394" stroke="black" stroke-width="0.733501" stroke-miterlimit="2.613"/>
<path d="M184.254 180.94C184.254 180.94 181.789 181.368 183.059 184.852C184.255 188.136 186.477 189.213 187.138 189.67" stroke="black" stroke-width="0.733501" stroke-miterlimit="2.613"/>
<path d="M136.019 85.3863C136.019 85.3863 136.141 86.3842 137.131 86.4949C137.131 86.4949 138.164 86.8272 138.766 85.5424C138.766 85.5424 138.836 85.2517 138.852 85.1091C138.922 84.508 139.127 82.7811 137.256 81.3678C137.256 81.3678 134.203 78.8737 128.372 81.8944C128.372 81.8944 123.751 84.1112 120.56 85.9958C120.56 85.9958 112.308 90.4296 111.318 90.7622C111.318 90.7622 107.687 92.5911 102.131 92.8129C102.131 92.8129 94.539 93.3671 91.3205 88.0466C91.3205 88.0466 88.8723 84.0005 91.3205 81.4235C91.3205 81.4235 92.3106 80.2595 93.9383 80.4739C94.6216 80.5639 95.3765 80.8777 96.1066 81.7282C96.1066 81.7282 97.2895 83.4464 95.9141 84.7211C95.9141 84.7211 94.1261 85.8156 93.4935 83.5017C93.4935 83.5017 93.4659 83.3356 93.4108 83.5433C93.3756 83.6773 92.9707 85.4417 93.9198 86.938C93.9198 86.938 98.4996 93.8618 111.098 86.6866L127.712 77.3774C127.712 77.3774 136.046 73.1098 141.025 79.7883C141.025 79.7883 145.041 85.3306 139.869 88.9608C139.869 88.9608 136.019 91.2609 133.598 87.6028C133.598 87.6028 131.59 84.0002 134.753 82.4206C134.753 82.4206 137.531 81.118 138.632 83.8894C139.732 86.6607 136.486 87.381 136.184 85.4135C136.184 85.4135 136.101 84.9429 136.019 85.3863Z" fill="#F5CE00" stroke="black" stroke-width="0.733501" stroke-miterlimit="2.613"/>
<path d="M95.3442 148.628C102.682 144.468 104.291 135.24 104.291 135.24C106.065 126.054 102.475 118.779 102.475 118.779C97.7305 108.761 89.5996 106.898 89.5996 106.898C89.5996 106.898 97.5652 112.419 99.7933 119.86C99.7933 119.86 101.526 126.137 100.536 132.331C99.546 138.524 99.9173 136.945 98.3907 141.725L95.3442 148.628Z" fill="#F5CE00" stroke="black" stroke-width="0.733501" stroke-miterlimit="2.613"/>
<path d="M132.277 78.0426C132.277 78.0426 139.129 77.7378 138.88 84.8321" stroke="black" stroke-width="0.733501" stroke-miterlimit="2.613"/>
<path d="M87.2086 153.405C99.1328 149.747 102.392 136.944 102.392 136.944C104.827 127.342 100.907 118.946 100.907 118.946C95.4608 106.168 86.2461 106.17 86.2461 106.17C81.6249 106.046 81.0709 109.994 81.0709 109.994C80.6348 112.793 82.6016 113.805 82.6016 113.805C85.765 115.523 87.7589 113.195 87.7589 113.195C89.0792 111.477 88.0616 109.953 88.0616 109.953C87.2502 108.817 85.6961 109.315 85.6961 109.315C84.4651 109.696 84.5958 111.235 84.5958 111.235C84.5891 111.276 84.5616 111.276 84.5616 111.276C84.5065 111.263 84.5273 111.242 84.5273 111.242C84.5273 111.242 84.2521 109.357 86.0952 109.163C86.0952 109.163 89.6849 108.387 93.8932 113.625C93.8932 113.625 99.4352 120.691 99.4221 129.836C99.4221 129.836 100.124 147.004 82.2169 151.451C82.2169 151.451 84.156 154.237 87.5808 164.296C87.5808 164.296 91.4591 177.224 95.1611 184.214C95.1611 184.214 100.083 194.184 111.058 190.11C111.058 190.11 117.593 187.242 117.577 182.503C117.577 182.503 118.031 178.18 114.111 177.848C114.111 177.848 110.274 177.557 110.315 180.84C110.315 180.84 110.212 184.394 114.399 183.584C114.399 183.584 115.864 183.272 115.596 181.838C115.596 181.838 115.362 180.549 113.595 181.111C113.595 181.111 113.54 181.118 113.533 181.09C113.533 181.09 113.513 181.059 113.575 181.041C113.575 181.041 114.258 180.737 114.98 180.989C114.98 180.989 115.627 181.204 115.679 182.212C115.679 182.212 115.72 183.023 114.854 183.48C114.854 183.48 113.801 183.854 112.976 183.771C112.976 183.771 111.866 186.009 109.355 186.768C105.859 187.824 102.979 186.807 101.217 185.403C99.3004 183.875 98.0608 181.204 97.6895 180.55C97.3183 179.895 94.0998 172.694 91.6792 164.948C91.6792 164.948 89.5613 158.27 87.8694 154.778L87.2086 153.405Z" fill="#F5CE00" stroke="black" stroke-width="0.733501" stroke-miterlimit="2.613"/>
<path d="M120.857 185.953C120.857 185.953 118.629 185.651 118.629 187.637C118.629 187.637 118.765 190.536 122.301 189.902C122.301 189.902 125.787 189.14 124.549 185.246C124.549 185.246 123.724 182.503 120.424 182.898C120.424 182.898 117.226 183.043 115.823 187.408C115.823 187.408 114.75 191.088 116.587 194.246C118.636 197.771 123.821 200.087 126.324 201.112C126.324 201.112 136.35 205.047 139.341 207.299C139.341 207.299 143.928 210.7 141.899 213.866C141.899 213.866 141.116 215.072 139.939 215.072C139.939 215.072 138.599 215.134 138.371 213.763C138.371 213.763 138.365 213.735 138.385 213.7C138.385 213.7 138.406 213.7 138.413 213.735C138.413 213.735 138.509 214.573 139.238 214.885C139.238 214.885 140.215 215.377 141.239 214.511C141.239 214.511 142.325 213.472 141.418 211.857C141.418 211.857 140.228 209.869 137.457 211.047C137.457 211.047 135.016 212.252 136.019 214.843C136.019 214.843 136.913 217.228 139.856 217.221C139.856 217.221 142.073 217.148 143.49 215.664C145.701 213.347 145.821 208.835 143.873 206.502C143.873 206.502 142.029 204.022 138.33 202.511C136.187 201.636 132.141 199.879 127.932 198.23C124.974 197.071 122.265 195.683 120.505 193.602C120.505 193.602 118.938 191.856 118.484 188.863C118.484 188.863 118.05 186.618 119.419 186.127C119.419 186.127 120.113 185.815 120.877 185.919C120.877 185.919 120.897 185.92 120.903 185.933C120.904 185.932 120.934 185.966 120.857 185.953Z" fill="#F5CE00" stroke="black" stroke-width="0.733501" stroke-miterlimit="2.613"/>
<path d="M120.67 185.939C120.67 185.939 118.208 185.496 116.668 188.419C116.668 188.419 115.76 190.304 115.613 191.394" stroke="black" stroke-width="0.733501" stroke-miterlimit="2.613"/>
<path d="M114.813 180.94C114.813 180.94 117.278 181.367 116.009 184.852C114.812 188.135 112.59 189.213 111.93 189.67" stroke="black" stroke-width="0.733501" stroke-miterlimit="2.613"/>
<path d="M143.574 84.4321C143.574 84.4321 149.535 80.7031 155.622 84.8321" stroke="black" stroke-width="0.733501" stroke-miterlimit="2.613"/>
<path d="M109.657 120.858C109.657 120.858 110.482 117.532 106.687 111.712C106.687 111.712 104.211 106.392 102.891 102.983" stroke="black" stroke-width="0.550134" stroke-miterlimit="2.613"/>
<path d="M111.473 99.3256C111.473 99.3256 113.622 104.556 114.361 106.898C114.361 106.898 117.027 113.459 117.592 114.789" stroke="black" stroke-width="0.550134" stroke-miterlimit="2.613"/>
<path d="M112.547 124.516C112.547 124.516 114.788 126.927 114.534 131" stroke="black" stroke-width="0.550134" stroke-miterlimit="10"/>
<path d="M105.117 121.938C105.117 121.938 107.593 123.13 107.43 129.698C107.43 129.698 107.18 134.492 110.894 136.903" stroke="black" stroke-width="0.550134" stroke-miterlimit="10"/>
<path d="M104.783 138.593C104.783 138.593 112.532 137.748 112.958 142.515C112.958 142.515 113.123 147.087 115.764 147.586C115.764 147.586 119.719 147.96 120.503 151.618" stroke="black" stroke-width="0.550134" stroke-miterlimit="10"/>
<path d="M107.223 143.886C107.223 143.886 108.584 145.923 109.905 146.796" stroke="black" stroke-width="0.550134" stroke-miterlimit="10"/>
<path d="M117.168 138.857C117.168 138.857 119.136 141.836 119.507 143.582" stroke="black" stroke-width="0.550134" stroke-miterlimit="10"/>
<path d="M125.693 102.983C125.693 102.983 127.509 105.449 129.269 106.613" stroke="black" stroke-width="0.550134" stroke-miterlimit="10"/>
<path d="M132.955 117.588C132.955 117.588 136.806 119.472 136.146 129.171C136.146 129.171 135.65 134.859 137.246 137.963" stroke="black" stroke-width="0.550134" stroke-miterlimit="10"/>
<path d="M114.816 111.006L115.064 111.921C115.064 111.921 121.968 112.212 125.695 107.514L125.296 106.614C125.296 106.614 119.273 106.309 114.816 111.006Z" fill="#784421" stroke="black" stroke-width="0.550101"/>
<path d="M139.688 148.011C139.688 148.011 163.566 140.899 172.769 136.753" stroke="black" stroke-width="0.550134" stroke-miterlimit="10"/>
<path d="M136.848 103.233L148.658 98.7435L148.937 99.5333L137.123 104.015L136.848 103.233Z" fill="#784421" stroke="black" stroke-width="0.335893"/>
<path d="M138.125 103.635L145.964 142.029" stroke="black" stroke-width="0.550134" stroke-miterlimit="10"/>
<path d="M139.486 103.119L148.465 141.337" stroke="black" stroke-width="0.550134" stroke-miterlimit="10"/>
<path d="M141.016 102.539L150.835 140.478" stroke="black" stroke-width="0.550134" stroke-miterlimit="10"/>
<path d="M144.865 101.078L158.253 129.557" stroke="black" stroke-width="0.550134" stroke-miterlimit="10"/>
<path d="M146.637 100.406L160.912 128.718" stroke="black" stroke-width="0.550134" stroke-miterlimit="10"/>
<path d="M147.945 99.9091L163.387 127.937" stroke="black" stroke-width="0.550134" stroke-miterlimit="10"/>
<path d="M145.436 142.335L151.495 140.339" stroke="black" stroke-width="0.550134" stroke-miterlimit="10"/>
<path d="M140.848 138.536C140.848 138.536 158.609 133.352 172.05 127.937" stroke="black" stroke-width="0.550134" stroke-miterlimit="10"/>
<path d="M140.609 140.478C140.609 140.478 163.119 134.528 172.05 130.187" stroke="black" stroke-width="0.550134" stroke-miterlimit="10"/>
<path d="M147.479 158.768L148.657 162.37L151.88 161.341L150.779 157.77" stroke="black" stroke-width="0.550134" stroke-miterlimit="10"/>
<path d="M156.57 156.179L157.749 159.782L160.971 158.752L159.871 155.181" stroke="black" stroke-width="0.550134" stroke-miterlimit="10"/>
<path d="M141.293 134.906L141.016 130.032L170.53 121.079L172.126 125.181" stroke="black" stroke-width="0.550134" stroke-miterlimit="10"/>
<path d="M153.531 126.236L155.14 130.539" stroke="black" stroke-width="0.550134" stroke-miterlimit="10"/>
<path d="M163.85 123.106L165.73 127.198" stroke="black" stroke-width="0.550134" stroke-miterlimit="10"/>
<path d="M166.295 122.364L168.053 126.236" stroke="black" stroke-width="0.550134" stroke-miterlimit="10"/>
<path d="M168.631 121.655L170.479 125.7" stroke="black" stroke-width="0.550134" stroke-miterlimit="10"/>
<path d="M170.529 121.079L173.775 119.25L175.15 122.853" stroke="black" stroke-width="0.550134" stroke-miterlimit="10"/>
<path d="M172.125 120.18L173.778 123.909" stroke="black" stroke-width="0.550134" stroke-miterlimit="10"/>
<path d="M98.9303 176.309C98.9303 176.309 93.1538 170.465 98.9303 164.741C98.9303 164.741 92.6589 161.677 93.649 156.744" stroke="#00247D" stroke-width="0.733501" stroke-miterlimit="10"/>
<path d="M109.245 180.94C109.245 180.94 103.262 181.755 105.037 170.116C105.037 170.116 102.561 174.73 101.708 177.101C101.07 178.875 101.492 181.741 104.024 183.29C105.037 183.909 110.4 185.305 112.133 181.755" stroke="#00247D" stroke-width="0.733501" stroke-miterlimit="10"/>
<path d="M102.562 163.132C102.562 163.132 100.128 165.377 101.861 169.492" stroke="#00247D" stroke-width="0.733501" stroke-miterlimit="10"/>
<path d="M105.078 163.673C105.078 163.673 105.367 167.663 107.348 169.908" stroke="#00247D" stroke-width="0.733501" stroke-miterlimit="10"/>
<path d="M106.787 162.093C106.787 162.093 106.768 166.79 110.151 169.7" stroke="#00247D" stroke-width="0.733501" stroke-miterlimit="10"/>
<path d="M108.469 160.472C108.469 160.472 108.501 165.751 112.42 168.993" stroke="#00247D" stroke-width="0.733501" stroke-miterlimit="10"/>
<path d="M127.936 168.204C127.936 168.204 129.916 163.881 134.083 164.088C134.083 164.088 132.061 165.003 132.103 167.026C132.103 167.026 131.855 170.365 135.445 170.698C135.445 170.698 138.333 171.072 139.777 169.492" stroke="#00247D" stroke-width="0.733501" stroke-miterlimit="10"/>
<path d="M137.795 187.948C137.795 187.948 127.521 183.127 128.594 176.185C128.594 176.185 129.007 171.945 133.155 169.95" stroke="#00247D" stroke-width="0.733501" stroke-miterlimit="10"/>
<path d="M130.988 174.356C130.988 174.356 130.081 177.348 132.102 179.427" stroke="#00247D" stroke-width="0.733501" stroke-miterlimit="10"/>
<path d="M133.3 172.319C133.3 172.319 132.062 175.603 134.125 178.055" stroke="#00247D" stroke-width="0.733501" stroke-miterlimit="10"/>
<path d="M135.773 170.725C135.773 170.725 134.289 173.441 136.063 175.894" stroke="#00247D" stroke-width="0.733501" stroke-miterlimit="10"/>
<path d="M126.408 188.654C126.408 188.654 132.019 193.518 136.393 193.56" stroke="#00247D" stroke-width="0.733501" stroke-miterlimit="10"/>
<path d="M124.635 190.193C124.635 190.193 129.879 194.433 133.157 195.056" stroke="#00247D" stroke-width="0.733501" stroke-miterlimit="10"/>
<path d="M122.654 191.394C122.654 191.394 129.136 197.094 133.157 197.509" stroke="#00247D" stroke-width="0.733501" stroke-miterlimit="10"/>
<path d="M149.018 202.747C149.018 202.747 142.646 206.177 147.586 209.803" stroke="#00247D" stroke-width="0.733501" stroke-miterlimit="10"/>
<path d="M144.975 198.964C144.975 198.964 152.195 195.181 155.331 193.768" stroke="#00247D" stroke-width="0.733501" stroke-miterlimit="10"/>
<path d="M147.574 200.918C147.574 200.918 158.013 194.558 161.107 193.186" stroke="#00247D" stroke-width="0.733501" stroke-miterlimit="10"/>
<path d="M152.938 201.333C152.938 201.333 161.85 195.389 166.636 192.812" stroke="#00247D" stroke-width="0.733501" stroke-miterlimit="10"/>
<path d="M158.84 201.126C158.84 201.126 164.988 196.304 170.929 192.812" stroke="#00247D" stroke-width="0.733501" stroke-miterlimit="10"/>
<path d="M173.033 186.785C173.033 186.785 170.022 182.378 160.119 186.785C160.119 186.785 163.75 183.493 170.929 180.94" stroke="#00247D" stroke-width="0.733501" stroke-miterlimit="10"/>
<path d="M180.924 162.01C180.924 162.01 181.736 165.585 180.869 167.746" stroke="#00247D" stroke-width="0.733501" stroke-miterlimit="10"/>
<path d="M164.863 179.344C164.863 179.344 166.926 176.309 172.166 174.813C172.166 174.813 173.579 178.346 177.654 177.556C177.654 177.556 183.802 176.351 181.945 169.617C181.945 169.617 180.666 164.587 173.645 164.088" stroke="#00247D" stroke-width="0.733501" stroke-miterlimit="10"/>
<path d="M194.527 155.655C194.527 155.655 201.665 156.939 201.541 162.758C201.541 162.758 202.119 171.488 192.918 173.192" stroke="#00247D" stroke-width="0.733501" stroke-miterlimit="10"/>
<path d="M200.529 159.24C200.529 159.24 202.491 154.985 206.864 153.239" stroke="#00247D" stroke-width="0.733501" stroke-miterlimit="10"/>
<path d="M201.551 150.745C201.551 150.745 203.5 153.867 204.832 154.322" stroke="#00247D" stroke-width="0.733501" stroke-miterlimit="10"/>
<path d="M200.529 153.239C200.529 153.239 202.366 155.482 202.985 155.857" stroke="#00247D" stroke-width="0.733501" stroke-miterlimit="10"/>
<path d="M199.934 155.401C199.934 155.401 200.901 156.829 201.759 157.278" stroke="#00247D" stroke-width="0.733501" stroke-miterlimit="10"/>
<path d="M163.213 121.655C163.213 121.655 164.602 119.403 168.054 120.359" stroke="#00247D" stroke-width="0.733501" stroke-miterlimit="10"/>
<path d="M182.152 138.536C182.152 138.536 184.339 129.421 191.972 132.788" stroke="#00247D" stroke-width="0.733501" stroke-miterlimit="10"/>
<path d="M188.876 132.041C188.876 132.041 189.66 127.839 187.762 125.7" stroke="#00247D" stroke-width="0.733501" stroke-miterlimit="10"/>
<path d="M183.678 131.749C183.678 131.749 184.65 133.487 183.818 134.907" stroke="#00247D" stroke-width="0.733501" stroke-miterlimit="10"/>
<path d="M199.191 224.861C199.191 224.861 207.774 220.954 205.133 214.303C205.133 214.303 204.317 212.058 202.415 212.224C202.415 212.224 199.105 212.391 199.767 216.797C199.767 216.797 200.759 221.12 199.191 224.861Z" fill="#64B4D1" stroke="#00247D" stroke-width="0.550134" stroke-miterlimit="2.613"/>
<path d="M202.298 220.926C202.298 220.926 204.184 219.12 203.921 215.882C203.921 215.882 203.812 215.189 204.158 215.094C204.158 215.094 204.527 214.94 204.582 215.743C204.582 215.743 205.104 219.124 202.821 221.064C202.821 221.064 202.666 221.258 202.413 221.203C202.413 221.203 202.143 221.143 202.298 220.926Z" fill="white"/>
<path d="M211.404 218.875C211.404 218.875 217.428 215.092 214.168 208.732C214.168 208.732 213.219 206.903 211.404 207.277C211.404 207.277 207.649 208.441 210.579 213.637C210.579 213.637 212.064 217.004 211.404 218.875Z" fill="#64B4D1" stroke="#00247D" stroke-width="0.550134" stroke-miterlimit="2.613"/>
<path d="M212.909 210.25C212.909 210.25 212.579 209.813 212.806 209.626C212.806 209.626 212.951 209.418 213.343 209.917C213.343 209.917 215.165 211.953 213.714 215.082C213.714 215.082 213.549 215.529 213.26 215.384C213.26 215.384 213.012 215.259 213.24 214.885C213.24 214.885 214.539 212.307 212.909 210.25Z" fill="white"/>
<path d="M193.374 223.198C193.374 223.198 186.649 221.494 187.886 214.552C187.886 214.552 188.547 211.518 191.394 211.934C191.394 211.934 194.824 212.809 192.59 217.222C192.59 217.221 191.27 220.372 193.374 223.198Z" fill="#64B4D1" stroke="#00247D" stroke-width="0.550134" stroke-miterlimit="2.613"/>
<path d="M190.773 214.905C190.773 214.905 190.525 214.573 190.814 214.427C190.814 214.427 191.103 214.302 191.309 214.708C191.309 214.708 192.011 215.82 191.417 217.342C191.417 217.342 190.855 218.397 191.128 219.499C191.128 219.499 191.165 219.811 190.918 219.852C190.918 219.852 190.68 219.769 190.634 219.54C190.634 219.54 190.298 218.465 190.876 217.413C190.876 217.413 191.577 215.778 190.773 214.905Z" fill="white"/>
<path d="M198.202 210.059C198.202 210.059 201.998 207.928 205.133 210.422C205.133 210.422 204.813 209.037 202.415 208.427C202.415 208.427 201.117 204.769 197.486 205.102C197.486 205.102 198.972 206.875 200.952 208.372C200.952 208.372 198.862 208.588 198.202 210.059Z" fill="black"/>
<path d="M201.006 200.04C201.006 200.04 203.585 201.943 204.633 203.218C204.633 203.218 205.682 201.915 207.057 201.125C207.057 201.125 205.474 200.917 204.633 201.629C204.633 201.629 203.316 200.354 201.006 200.04Z" fill="black"/>
<path d="M186.043 208.206C186.043 208.206 185.768 207.264 186.428 206.266C186.428 206.266 186.868 205.545 186.703 204.603" stroke="black" stroke-width="0.733501" stroke-miterlimit="10"/>
<path d="M213.713 149.013C213.713 149.013 217.729 148.736 218.389 145.632" stroke="black" stroke-width="0.733501" stroke-miterlimit="10"/>
<path d="M225.43 143.582C225.43 143.582 224.031 143.526 222.765 144.801C222.765 144.801 221.799 146.242 220.424 146.076" stroke="black" stroke-width="0.733501" stroke-miterlimit="10"/>
<path d="M207.773 137.208C207.773 137.208 209.864 137.208 211.019 136.21C211.019 136.21 212.229 135.379 212.945 136.709C212.945 136.709 214.045 138.594 212.009 139.425C212.009 139.425 209.479 140.699 213.494 143.249C213.494 143.249 208.708 141.531 210.634 139.203C210.634 139.203 212.724 137.706 211.954 137.152C211.954 137.152 211.734 136.709 210.909 137.263C210.084 137.817 208.434 137.596 207.773 137.208Z" fill="black"/>
<path d="M210.617 86.7367C210.617 86.7367 211.562 85.4529 211.175 81.6011C210.789 77.7497 214.137 77.3067 215.424 78.4136C215.424 78.4136 216.755 79.5645 215.531 82.0072C214.824 83.4182 213.697 85.2428 210.617 86.7367Z" fill="#64B4D1" stroke="#00247D" stroke-width="0.550134" stroke-miterlimit="2.613"/>
<path d="M211.876 83.8609C211.876 83.8609 213.131 82.5133 212.532 79.5866C212.532 79.5866 212.528 79.2979 212.694 79.2784C212.694 79.2784 212.999 79.2016 213.05 79.4903C213.05 79.4903 213.724 82.6093 212.308 84.3039C212.308 84.3039 212.049 84.5543 211.876 84.3039C211.876 84.3039 211.685 84.1247 211.876 83.8609Z" fill="white"/>
<path d="M209.548 85.336C209.548 85.336 209.449 83.7833 206.763 81.1449C204.077 78.5064 206.285 76.0754 207.93 76.0956C207.93 76.0956 209.634 76.1218 210.248 78.7162C210.602 80.2148 210.902 82.2864 209.548 85.336Z" fill="#64B4D1" stroke="#00247D" stroke-width="0.550134" stroke-miterlimit="2.613"/>
<path d="M209.129 81.9592C209.129 81.9592 209.177 80.0574 206.745 78.0722C206.745 78.0722 206.546 77.8409 206.66 77.7181C206.66 77.7181 206.84 77.4593 207.075 77.66C207.075 77.66 209.694 79.7534 209.757 82.0397C209.757 82.0397 209.729 82.4096 209.428 82.3183C209.428 82.3183 209.161 82.2965 209.129 81.9592Z" fill="white"/>
<path d="M205.9 84.169C205.9 84.169 205.198 82.904 201.88 81.7282C198.563 80.5522 199.459 77.6577 200.855 77.0381C200.855 77.0381 202.304 76.401 203.855 78.3413C204.751 79.462 205.829 81.0852 205.9 84.169Z" fill="#64B4D1" stroke="#00247D" stroke-width="0.550134" stroke-miterlimit="2.613"/>
<path d="M204.445 81.8437C204.445 81.8437 203.691 80.0997 200.653 79.3358C200.653 79.3358 200.377 79.2106 200.428 79.0508C200.428 79.0508 200.483 78.7397 200.78 78.8216C200.78 78.8216 204.031 79.6036 205.048 81.649C205.048 81.649 205.177 81.9964 204.866 82.0417C204.866 82.0417 204.615 82.1357 204.445 81.8437Z" fill="white"/>
<path d="M207.977 85.435C207.977 85.435 206.43 85.869 202.878 84.1569C199.325 82.4445 197.769 85.4246 198.392 87.0185C198.392 87.0185 199.042 88.6682 201.792 88.3788C203.38 88.2117 205.506 87.7955 207.977 85.435Z" fill="#64B4D1" stroke="#00247D" stroke-width="0.550134" stroke-miterlimit="2.613"/>
<path d="M199.717 86.566C199.717 86.566 201.328 87.5588 204.251 86.4294C204.251 86.4294 204.549 86.372 204.597 86.5328C204.597 86.5328 204.73 86.8194 204.44 86.9238C204.44 86.9238 201.331 88.1623 199.334 87.0742C199.334 87.0742 199.03 86.8641 199.259 86.6476C199.259 86.6476 199.412 86.425 199.717 86.566Z" fill="white"/>
<path d="M202.781 74.2184C202.781 74.2184 204.555 75.0776 204.143 77.1558" stroke="black" stroke-width="0.733501" stroke-miterlimit="2.613"/>
<path d="M210.621 74.5094C210.621 74.5094 211.315 76.7041 210.549 77.8862" stroke="black" stroke-width="0.733501" stroke-miterlimit="10"/>
<path d="M88.2262 86.7367C88.2262 86.7367 87.2818 85.4529 87.6682 81.6011C88.0545 77.7497 84.7067 77.3067 83.4193 78.4136C83.4193 78.4136 82.0889 79.5645 83.3121 82.0072C84.0186 83.4182 85.1461 85.2428 88.2262 86.7367Z" fill="#64B4D1" stroke="#00247D" stroke-width="0.550134" stroke-miterlimit="2.613"/>
<path d="M86.967 83.8609C86.967 83.8609 85.7122 82.5133 86.3109 79.5866C86.3109 79.5866 86.3152 79.2979 86.1489 79.2784C86.1489 79.2784 85.8445 79.2016 85.7928 79.4903C85.7928 79.4903 85.1195 82.6093 86.5353 84.3039C86.5353 84.3039 86.7943 84.5543 86.967 84.3039C86.967 84.3039 87.1585 84.1247 86.967 83.8609Z" fill="white"/>
<path d="M89.2932 85.336C89.2932 85.336 89.3923 83.7833 92.0783 81.1449C94.7643 78.5064 92.556 76.0754 90.9112 76.0956C90.9112 76.0956 89.2068 76.1218 88.593 78.7162C88.2386 80.2148 87.9382 82.2864 89.2932 85.336Z" fill="#64B4D1" stroke="#00247D" stroke-width="0.550134" stroke-miterlimit="2.613"/>
<path d="M89.7122 81.9592C89.7122 81.9592 89.6642 80.0574 92.0965 78.0722C92.0965 78.0722 92.2948 77.8409 92.1809 77.7181C92.1809 77.7181 92.0008 77.4593 91.7663 77.66C91.7663 77.66 89.1471 79.7534 89.084 82.0397C89.084 82.0397 89.1125 82.4096 89.4132 82.3183C89.4132 82.3183 89.6803 82.2965 89.7122 81.9592Z" fill="white"/>
<path d="M92.9434 84.169C92.9434 84.169 93.6452 82.904 96.9628 81.7282C100.28 80.5522 99.3844 77.6577 97.9881 77.0381C97.9881 77.0381 96.5391 76.401 94.9883 78.3413C94.092 79.462 93.0139 81.0852 92.9434 84.169Z" fill="#64B4D1" stroke="#00247D" stroke-width="0.550134" stroke-miterlimit="2.613"/>
<path d="M94.3972 81.8437C94.3972 81.8437 95.1514 80.0997 98.1888 79.3358C98.1888 79.3358 98.4653 79.2106 98.4139 79.0508C98.4139 79.0508 98.3591 78.7397 98.0625 78.8216C98.0625 78.8216 94.8107 79.6036 93.7941 81.649C93.7941 81.649 93.6651 81.9964 93.9759 82.0417C93.9759 82.0417 94.2268 82.1357 94.3972 81.8437Z" fill="white"/>
<path d="M90.8633 85.435C90.8633 85.435 92.4104 85.869 95.9628 84.1569C99.5153 82.4445 101.071 85.4246 100.449 87.0185C100.449 87.0185 99.7981 88.6682 97.0486 88.3788C95.4606 88.2117 93.3343 87.7955 90.8633 85.435Z" fill="#64B4D1" stroke="#00247D" stroke-width="0.550134" stroke-miterlimit="2.613"/>
<path d="M99.1252 86.566C99.1252 86.566 97.5146 87.5588 94.5917 86.4294C94.5917 86.4294 94.2937 86.372 94.245 86.5328C94.245 86.5328 94.1126 86.8194 94.4026 86.9238C94.4026 86.9238 97.5115 88.1623 99.5085 87.0742C99.5085 87.0742 99.8122 86.8641 99.5831 86.6476C99.5831 86.6476 99.4309 86.425 99.1252 86.566Z" fill="white"/>
<path d="M96.0625 74.2184C96.0625 74.2184 94.2883 75.0776 94.7009 77.1558" stroke="black" stroke-width="0.733501" stroke-miterlimit="2.613"/>
<path d="M88.2217 74.5094C88.2217 74.5094 87.5276 76.7041 88.2942 77.8862" stroke="black" stroke-width="0.733501" stroke-miterlimit="10"/>
<path d="M165.233 54.3486C165.233 54.3486 166.357 57.5543 165.873 60.4592C165.44 63.057 166.031 63.729 166.971 64.2428C167.784 64.6875 169.669 63.9095 169.896 61.8726C169.896 61.8726 172.124 66.2164 167.792 69.1472C167.792 69.1472 164.677 71.0593 162.036 68.5027C161.106 67.6022 160.695 65.1148 161.149 62.808C161.149 62.808 161.831 59.6799 160.695 56.4688C160.695 56.4688 162.47 58.3601 162.016 62.1313C162.016 62.1313 161.108 68.8978 166.121 68.5652C166.121 68.5652 169.587 68.5235 169.69 64.3251C169.69 64.3251 168.39 65.8213 166.781 65.3226C165.642 64.9695 164.594 63.8676 164.78 62.131C164.974 60.3095 165.481 57.1337 165.233 54.3486Z" fill="black"/>
<path d="M159.555 65.4613C159.555 65.4613 159.28 70.8097 154.384 72.1123C154.384 72.1123 155.072 71.1423 153.971 68.482C153.971 68.482 152.899 66.93 152.981 64.5192C152.981 64.5192 151.423 65.7372 153.201 68.9533C154.274 70.8932 153.339 73.2209 153.009 73.3041C152.678 73.387 161.096 72.1955 159.555 65.4613Z" fill="black"/>
<path d="M153.2 60.1409C153.2 60.1409 152.017 58.8108 151.934 55.7347C151.852 52.6586 151.274 51.9104 150.862 51.5503C150.862 51.5503 151.467 54.2106 151.302 55.8458C151.137 57.4807 151.412 58.4231 151.632 59.1988C151.632 59.1988 148.963 59.6143 147.286 55.7347C145.682 52.0266 144.067 52.326 143.27 52.3538C143.27 52.3538 144.2 52.4565 146.075 55.8455C147.948 59.229 148.469 59.9191 153.2 60.1409Z" fill="black"/>
<path d="M140.712 52.1044C140.712 52.1044 142.253 55.79 142.308 57.73C142.308 57.73 138.732 56.5385 137.769 53.4345C137.769 53.4345 133.946 54.7371 135.349 59.1433C135.349 59.1433 132.048 57.9794 130.562 55.2913C130.562 55.2913 132.406 56.6768 134.111 57.2866C134.111 57.2866 133.918 53.7396 138.375 52.4095C138.375 52.4095 139.038 55.5873 141.263 56.3445C141.262 56.3441 141.097 54.3488 140.712 52.1044Z" fill="black"/>
<path d="M146.598 45.786C146.598 45.786 147.835 47.5874 150.366 47.6706C151.576 47.7102 152.877 47.4377 154.135 45.786C154.135 45.786 153.97 48.9175 150.366 48.945C150.366 48.945 146.598 49.0836 146.598 45.786Z" fill="black"/>
<path d="M131.008 67.1935C131.008 67.1935 132.885 68.8979 133.277 69.459C133.277 69.459 134.598 70.7476 135.731 69.0811C135.731 69.0811 137.176 66.4158 138.951 66.487C138.951 66.487 137.692 67.36 136.278 69.8799C136.278 69.8799 135.897 70.81 134.845 70.914C134.352 70.9627 133.731 71.1218 132.79 70.1401C132.79 70.1401 131.977 69.1472 131.008 67.1935Z" fill="black"/>
<path d="M150.367 33.2323C146.599 33.2306 149.776 36.1419 149.776 36.1419C149.858 40.7559 146.152 42.176 143.628 40.8391C141.104 39.5023 143.078 36.1419 143.078 36.1419C143.078 36.1419 140.231 38.0124 142.047 40.7143C143.862 43.4162 148.621 42.2105 150.367 39.7168C152.114 42.2109 156.873 43.4165 158.688 40.7143C160.504 38.0124 157.657 36.1419 157.657 36.1419C157.657 36.1419 159.631 39.5023 157.107 40.8391C154.583 42.176 150.876 40.7559 150.959 36.1419C150.958 36.1423 154.136 33.2306 150.367 33.2323Z" fill="black"/>
<path d="M152.65 28.244C152.65 28.244 153.971 30.4888 153.682 33.8971C153.682 33.8971 154.878 30.4887 152.65 28.244Z" fill="black"/>
<path d="M141.098 33.5234C141.098 33.5234 140.809 31.0709 138.416 30.8632C138.416 30.8632 140.438 32.3181 141.098 33.5234Z" fill="black"/>
<path d="M159.664 33.5234C159.664 33.5234 159.953 31.0709 162.346 30.8632C162.346 30.8632 160.324 32.3181 159.664 33.5234Z" fill="black"/>
<path d="M137.303 37.2653C137.303 37.2653 139.201 37.8478 140.356 36.4331C140.356 36.4331 138.169 37.0153 137.303 37.2653Z" fill="black"/>
<path d="M131.154 22.2166C131.154 22.2166 133.362 21.9672 135.569 25.2511C135.569 25.2511 133.382 26.4151 132.846 27.1216C132.846 27.1216 132.846 26.0408 133.919 25.0846C133.919 25.0846 133.506 23.4222 131.154 22.2166Z" fill="black"/>
<path d="M168.124 22.2166C168.124 22.2166 165.917 21.9672 163.709 25.2511C163.709 25.2511 165.896 26.4151 166.432 27.1216C166.432 27.1216 166.432 26.0408 165.36 25.0846C165.36 25.0846 165.772 23.4222 168.124 22.2166Z" fill="black"/>
<path d="M151.082 24.6672C151.082 24.6672 153.063 25.2099 155.538 23.8382C155.538 23.8382 158.591 22.2171 160.531 23.8382C160.531 23.8382 158.839 23.0857 155.58 24.6672C155.58 24.6672 152.32 26.4524 151.082 24.6672Z" fill="black"/>
<path d="M153.146 26.6645C153.146 26.6645 154.838 23.7008 159.996 24.2889C159.996 24.2889 158.593 28.4105 153.146 26.6645Z" fill="white"/>
<path d="M156.702 27.0364C157.265 27.0364 157.722 26.4583 157.722 25.7452C157.722 25.0321 157.265 24.454 156.702 24.454C156.138 24.454 155.682 25.0321 155.682 25.7452C155.682 26.4583 156.138 27.0364 156.702 27.0364Z" fill="#784421"/>
<path d="M156.703 26.5373C157.038 26.5373 157.309 26.1827 157.309 25.7452C157.309 25.3078 157.038 24.9531 156.703 24.9531C156.369 24.9531 156.098 25.3078 156.098 25.7452C156.098 26.1827 156.369 26.5373 156.703 26.5373Z" fill="black"/>
<path d="M142.086 20.3461C142.086 20.3461 145.345 20.5539 147.326 21.8011C147.326 21.8011 149.43 23.048 151.823 21.2607C151.823 21.2607 154.426 19.7641 156.095 17.6859C156.095 17.6859 152.112 20.4294 150.627 20.8452C150.627 20.8452 149.265 19.8061 148.729 18.3095C148.729 18.3095 148.935 17.1871 151.081 15.1089C151.081 15.1089 148.192 15.9819 147.615 18.4343C147.615 18.4343 148.151 19.931 149.265 21.0946C149.265 21.0946 148.729 21.344 147.326 20.471C147.326 20.471 144.273 19.4315 142.086 20.3461Z" fill="black"/>
<path d="M150.366 39.9041C147.547 42.3357 150.366 42.0864 150.366 42.0864C150.366 42.0864 153.186 42.3357 150.366 39.9041Z" fill="black"/>
<path d="M148.736 24.6672C148.736 24.6672 146.755 25.2099 144.279 23.8382C144.279 23.8382 141.226 22.2171 139.287 23.8382C139.287 23.8382 140.979 23.0857 144.238 24.6672C144.238 24.6672 147.498 26.4524 148.736 24.6672Z" fill="black"/>
<path d="M146.673 26.6645C146.673 26.6645 144.982 23.7008 139.824 24.2889C139.824 24.2889 141.227 28.4105 146.673 26.6645Z" fill="white"/>
<path d="M143.114 27.0364C143.677 27.0364 144.134 26.4583 144.134 25.7452C144.134 25.0321 143.677 24.454 143.114 24.454C142.55 24.454 142.094 25.0321 142.094 25.7452C142.094 26.4583 142.55 27.0364 143.114 27.0364Z" fill="#784421"/>
<path d="M143.116 26.5373C143.45 26.5373 143.721 26.1827 143.721 25.7452C143.721 25.3078 143.45 24.9531 143.116 24.9531C142.781 24.9531 142.51 25.3078 142.51 25.7452C142.51 26.1827 142.781 26.5373 143.116 26.5373Z" fill="black"/>
<path d="M249.987 0V186.784C249.987 236.676 150.153 252.887 150.153 252.887C150.153 252.887 50.3184 236.676 50.3184 186.784V0H249.987Z" stroke="black" stroke-width="1.76601"/>
</g>
<defs>
<clipPath id="clip0_151_12656">
<rect width="300" height="300" fill="white" transform="translate(0.0976562)"/>
</clipPath>
</defs>
</svg>
