<svg width="300" height="300" viewBox="0 0 300 300" fill="none" xmlns="http://www.w3.org/2000/svg">
<g clip-path="url(#clip0_159_8582)">
<path d="M86.0078 107.634L119.112 109.151C119.112 109.151 117.994 107.454 112.101 104.578C106.208 101.702 104.265 96.5945 104.265 96.5945C104.265 96.5945 107.967 98.6374 112.919 100.68C117.871 102.723 121.249 102.849 121.249 102.849C121.249 102.849 98.125 82.0346 98.2485 82.2311C98.3719 82.4196 127.959 96.9795 127.959 96.9795C127.959 96.9795 126.833 94.6773 122.761 91.6757C118.68 88.6742 119.876 81.7832 119.876 81.7832C119.876 81.7832 128.399 92.9565 133.096 92.7601C131.214 85.9319 122.252 65.7539 122.252 65.7539L140.809 90.0807C140.809 90.0807 141.688 87.0162 140.686 82.0975C139.683 77.1865 142.437 72.5192 142.437 72.5192C142.437 72.5192 143.123 77.6973 145.383 81.3353C147.635 84.9733 148.954 85.9948 148.515 88.2341C150.582 85.099 153.783 59.4365 153.783 59.4365C153.783 59.4365 156.351 80.6988 156.351 87.142C156.729 89.6957 158.48 86.8277 159.552 83.0561C160.616 79.2924 162.491 76.8644 166.818 73.5485C164.565 77.2494 164.434 82.3568 164.496 85.099C164.565 87.8491 164.249 89.4442 164.249 89.4442L181.982 65.3061L172.016 92.6343C172.016 92.6343 175.094 91.0393 178.542 87.6527C181.982 84.274 184.805 82.2939 189.132 82.9932C184.866 85.6098 182.614 90.2771 180.292 94.9366C191.577 89.7585 205.553 81.0131 205.553 81.0131L183.617 102.275C183.617 102.275 187.628 103.36 193.142 100.806C198.657 98.2524 203.486 98.5117 205.429 101.065C199.097 100.869 191.885 105.725 188.005 109.489C204.172 106.935 219.722 105.599 219.722 105.599L189.193 116.002C189.193 116.002 194.454 117.346 198.719 117.668C202.984 117.983 208.059 119.648 208.877 123.216C202.923 120.921 195.209 122.194 188.877 122.453C195.271 124.434 213.698 131.521 213.698 131.521L188.005 128.072C188.005 128.072 186.687 128.708 186.185 130.688C185.684 132.668 126.27 136.18 121.627 134.9C116.991 133.627 114.361 134.523 114.739 134.263C115.109 134.012 118.688 129.926 118.75 128.967C118.811 128.009 88.4143 131.521 88.2215 131.521C88.0363 131.521 117.307 122.453 117.307 122.453C117.307 122.453 114.238 120.725 109.911 120.662C105.584 120.599 99.7602 120.536 97.8165 117.66C104.581 117.15 107.026 117.087 109.787 116.191C112.541 115.303 115.24 115.555 115.24 115.555L86.0078 107.634Z" fill="#FFD200" stroke="black" stroke-width="0.779471" stroke-linecap="round" stroke-linejoin="round"/>
<path d="M120.938 125.196L125.403 124.512" stroke="black" stroke-width="0.779471" stroke-linecap="round" stroke-linejoin="round"/>
<path d="M118.488 119.13L124.736 119.028" stroke="black" stroke-width="0.779471" stroke-linecap="round" stroke-linejoin="round"/>
<path d="M118.73 112.859C118.923 112.962 125.024 113.936 125.024 113.936" stroke="black" stroke-width="0.779471" stroke-linecap="round" stroke-linejoin="round"/>
<path d="M121.805 106.888C122.044 107.037 126.417 108.891 126.417 108.891" stroke="black" stroke-width="0.779471" stroke-linecap="round" stroke-linejoin="round"/>
<path d="M138.434 93.0271L140.454 97.1915" stroke="black" stroke-width="0.779471" stroke-linecap="round" stroke-linejoin="round"/>
<path d="M152.642 141.352C166.486 141.352 177.709 131.367 177.709 119.051C177.709 106.735 166.486 96.751 152.642 96.751C138.797 96.751 127.574 106.735 127.574 119.051C127.574 131.367 138.797 141.352 152.642 141.352Z" stroke="black" stroke-width="1.16921"/>
<path d="M145.305 90.5283L146.269 95.1564" stroke="black" stroke-width="0.779471" stroke-linecap="round" stroke-linejoin="round"/>
<path d="M153.231 89.6483C153.185 89.9469 152.992 93.8128 152.992 93.8128" stroke="black" stroke-width="0.779471" stroke-linecap="round" stroke-linejoin="round"/>
<path d="M159.628 90.8743L158.617 94.1587" stroke="black" stroke-width="0.779471" stroke-linecap="round" stroke-linejoin="round"/>
<path d="M166.971 92.6891L165.004 96.2642" stroke="black" stroke-width="0.779471" stroke-linecap="round" stroke-linejoin="round"/>
<path d="M182.549 106.738L178.754 108.891" stroke="black" stroke-width="0.779471" stroke-linecap="round" stroke-linejoin="round"/>
<path d="M185.39 112.27L180.531 113.252" stroke="black" stroke-width="0.779471" stroke-linecap="round" stroke-linejoin="round"/>
<path d="M186.831 119.177L181.301 118.98" stroke="black" stroke-width="0.779471" stroke-linecap="round" stroke-linejoin="round"/>
<path d="M185.393 124.174L181.02 124.072" stroke="black" stroke-width="0.779471" stroke-linecap="round" stroke-linejoin="round"/>
<path d="M125.242 99.9886L129.762 104.287" stroke="black" stroke-width="0.779471" stroke-linecap="round" stroke-linejoin="round"/>
<path d="M131.344 95.9578L134.097 99.6743" stroke="black" stroke-width="0.779471" stroke-linecap="round" stroke-linejoin="round"/>
<path d="M179.964 100.327L175.676 103.808" stroke="black" stroke-width="0.779471" stroke-linecap="round" stroke-linejoin="round"/>
<path d="M174.108 96.28L171.293 99.6037" stroke="black" stroke-width="0.779471" stroke-linecap="round" stroke-linejoin="round"/>
<path d="M15.1979 68.8498L23.96 68.7319L11.7656 57.5115L15.1979 68.8498Z" fill="black" stroke="black" stroke-width="0.779471" stroke-linecap="round" stroke-linejoin="round"/>
<path d="M11.7656 57.5115L23.96 68.7319L24.6619 61.2673L11.7656 57.5115Z" fill="white" stroke="black" stroke-width="0.779471" stroke-linecap="round" stroke-linejoin="round"/>
<path d="M47.0508 198.035C47.5213 197.799 47.8298 197.72 47.8298 197.72C47.8298 197.72 53.4681 207.008 57.2243 215.895C63.202 211.157 63.6802 206.285 62.0604 200.643C56.2602 193.925 49.8969 196.369 47.0508 198.035Z" fill="#005CAB" stroke="black" stroke-width="1.16921" stroke-linecap="round" stroke-linejoin="round"/>
<path d="M45.5278 199.064L45.5195 199.072" stroke="black" stroke-width="1.16921" stroke-linecap="round" stroke-linejoin="round"/>
<path d="M102.738 181.565C83.6486 170.062 52.6884 144.077 45.4844 137.956C45.6155 138.734 45.7312 139.441 45.816 140.047C46.865 147.33 48.4231 158.221 51.3617 170.219C58.5812 174.682 81.6664 189.305 100.88 206.041C101.589 198.003 102.206 189.619 102.738 181.565Z" fill="#D21034" stroke="black" stroke-width="1.16921" stroke-linecap="round" stroke-linejoin="round"/>
<path d="M47.8192 197.72C47.8192 197.72 40.5381 199.63 43.1143 211.487C45.3896 215.462 48.066 218.291 51.2824 220.711C52.4008 217.167 53.4806 213.616 54.5296 210.056C51.2438 203.362 47.8192 197.72 47.8192 197.72Z" fill="white" stroke="black" stroke-width="1.16921" stroke-linecap="round" stroke-linejoin="round"/>
<path d="M54.1205 180.363C55.5782 185.164 57.5451 189.438 59.2419 193.328C60.6534 188.102 61.9878 182.924 63.2527 177.856C57.9924 174.368 53.7734 171.72 51.3438 170.219C52.1613 173.535 53.0715 176.929 54.1205 180.363Z" fill="white" stroke="black" stroke-width="1.16921" stroke-linecap="round" stroke-linejoin="round"/>
<path d="M76.9312 113.134C75.1881 123.223 72.2879 138.632 68.2617 156.649C75.1186 162.094 82.6389 167.862 89.7195 172.906C94.2316 155.612 97.7179 141.46 99.5614 132.22C94.409 127.875 86.1638 120.913 76.9312 113.134Z" fill="#289728" stroke="black" stroke-width="1.16921" stroke-linecap="round" stroke-linejoin="round"/>
<path d="M105.099 136.903C105.099 136.903 103.032 135.159 99.5606 132.22C97.7172 141.461 94.2309 155.612 89.7188 172.906C94.3466 176.206 98.7893 179.2 102.723 181.565C104.296 157.749 105.099 136.903 105.099 136.903Z" fill="#FFD200" stroke="black" stroke-width="1.16921" stroke-linecap="round" stroke-linejoin="round"/>
<path d="M94.1002 248.691C96.8692 243.403 99.1291 225.787 100.865 206.041C95.5503 201.413 89.9352 196.942 84.4357 192.801C81.042 205.452 77.3012 219.163 73.3906 233.44C84.3817 240.386 94.1002 248.691 94.1002 248.691Z" fill="#FFD200" stroke="black" stroke-width="1.16921" stroke-linecap="round" stroke-linejoin="round"/>
<path d="M59.241 193.328C63.1516 202.285 65.6197 209.223 57.2048 215.894C56.3718 213.93 55.4539 211.958 54.5206 210.056C53.4717 213.616 52.3918 217.167 51.2734 220.711C55.076 223.571 59.6421 225.85 65.2495 228.741C67.9568 230.132 70.7104 231.743 73.3868 233.44C77.2973 219.163 81.0382 205.452 84.4319 192.801C76.7497 187.018 69.3066 181.879 63.2518 177.856C61.9869 182.925 60.6525 188.103 59.241 193.328Z" fill="#289728" stroke="black" stroke-width="1.16921" stroke-linecap="round" stroke-linejoin="round"/>
<path d="M54.23 94.0331C52.4174 110.722 49.2782 126.689 45.4062 137.611C45.4217 137.728 45.4448 137.846 45.468 137.956C48.9157 140.887 57.8243 148.375 68.2601 156.649C72.2863 138.632 75.1864 123.224 76.9296 113.135C69.633 106.982 61.7117 100.319 54.23 94.0331Z" fill="white" stroke="black" stroke-width="1.16921" stroke-linecap="round" stroke-linejoin="round"/>
<path d="M43.4325 127.812C40.6018 114.824 36.1051 96.948 33.3284 89.617C30.8756 83.1582 28.6389 75.9921 27.3199 71.5762C26.78 71.1362 26.2709 70.7276 25.8082 70.3505C25.677 75.2692 29.3022 97.6787 30.9065 109.292C31.5852 114.179 32.2871 121.448 32.881 129.203C36.1128 127.176 39.792 126.39 43.4325 127.812Z" fill="#005CAB" stroke="black" stroke-width="1.16921" stroke-linecap="round" stroke-linejoin="round"/>
<path d="M38.6873 200.722C39.9985 205.098 41.4486 208.595 43.1069 211.486C41.5334 204.258 43.6314 200.73 45.5057 199.072L45.5134 199.064C45.9607 198.663 46.4004 198.38 46.7706 198.176C44.1713 193.194 39.3661 183.443 34.4297 173.048C34.5994 181.117 35.3784 189.666 38.6873 200.722Z" fill="white" stroke="black" stroke-width="1.16921" stroke-linecap="round" stroke-linejoin="round"/>
<path d="M48.5481 157.144C47.2985 150.458 46.4578 144.557 45.8022 140.046C45.4243 137.398 44.5604 132.99 43.4343 127.812C39.7937 126.39 36.1146 127.176 32.8828 129.203C33.7004 139.897 34.3251 151.51 34.4023 159.046V159.58C39.0687 156.783 44.1825 155.447 48.5481 157.144Z" fill="#D21034" stroke="black" stroke-width="1.16921" stroke-linecap="round" stroke-linejoin="round"/>
<path d="M54.1266 180.363C51.6352 172.199 49.869 164.232 48.55 157.144C44.1844 155.447 39.0707 156.783 34.4042 159.572C34.4428 164.153 34.3425 168.53 34.4351 173.048C39.3715 183.443 44.1767 193.194 46.776 198.176C46.8686 198.129 46.9534 198.074 47.0383 198.035C49.8844 196.369 56.2477 193.925 62.0479 200.643C60.3973 194.899 56.5639 188.362 54.1266 180.363Z" fill="#005CAB" stroke="black" stroke-width="1.16921" stroke-linecap="round" stroke-linejoin="round"/>
<path d="M54.2273 94.0331C43.2362 84.8084 33.1629 76.3852 27.3164 71.5764C28.6353 75.9923 30.8721 83.1583 33.3249 89.6172C33.8417 90.9844 34.4279 92.7287 35.0449 94.7403L38.6315 96.5003C40.1355 94.1902 41.4853 92.0687 41.4853 92.0687L41.9018 98.1033L47.3704 100.791L42.1255 101.419L42.5806 107.972L38.3538 101.875L37.1351 102.016C40.4055 113.975 43.9921 129.659 45.4036 137.618C49.2755 126.689 52.4147 110.722 54.2273 94.0331Z" fill="#005CAB" stroke="black" stroke-width="1.16921" stroke-linecap="round" stroke-linejoin="round"/>
<path d="M36.25 98.8259C36.3348 99.1245 36.4197 99.4231 36.5045 99.7217C36.5662 99.6352 36.6202 99.5488 36.6819 99.4545L36.25 98.8259Z" stroke="black" stroke-width="1.16921" stroke-linecap="round" stroke-linejoin="round"/>
<path d="M42.5864 107.972L42.1314 101.419L47.3763 100.79L41.9077 98.1031L41.4912 92.0686C41.4912 92.0686 40.1414 94.1901 38.6374 96.5002L35.0508 94.7401C35.4364 96.0052 35.8375 97.3724 36.254 98.826L36.6859 99.4546C36.6242 99.5489 36.5703 99.6353 36.5086 99.7218C36.7168 100.468 36.9328 101.238 37.141 102.016L38.3597 101.875L42.5864 107.972Z" fill="#FFD200" stroke="black" stroke-width="1.16921" stroke-linecap="round" stroke-linejoin="round"/>
<path d="M106.187 139.064C105.924 139.064 105.662 138.977 105.446 138.797L24.2275 70.3503C23.7416 69.9417 23.6722 69.1953 24.0733 68.6924C24.4821 68.1895 25.2148 68.1188 25.7084 68.5352L106.927 136.974C107.413 137.39 107.482 138.137 107.081 138.632C106.85 138.915 106.518 139.064 106.187 139.064Z" fill="#414142" stroke="black" stroke-width="0.779471" stroke-linecap="round" stroke-linejoin="round"/>
<path d="M24.9647 72.1129C26.41 72.1129 27.5817 70.9192 27.5817 69.4468C27.5817 67.9744 26.41 66.7808 24.9647 66.7808C23.5193 66.7808 22.3477 67.9744 22.3477 69.4468C22.3477 70.9192 23.5193 72.1129 24.9647 72.1129Z" fill="#414142" stroke="black" stroke-width="0.779471" stroke-linecap="round" stroke-linejoin="round"/>
<path d="M293.999 57.5114L290.567 68.8497L281.805 68.7318L293.999 57.5114Z" fill="black" stroke="black" stroke-width="0.779471" stroke-linecap="round" stroke-linejoin="round"/>
<path d="M281.094 61.2672L293.998 57.5114L281.803 68.7318L281.094 61.2672Z" fill="white" stroke="black" stroke-width="0.779471" stroke-linecap="round" stroke-linejoin="round"/>
<path d="M258.73 198.035C258.259 197.799 257.951 197.72 257.951 197.72C257.951 197.72 252.313 207.008 248.556 215.895C242.579 211.157 242.093 206.285 243.713 200.643C249.52 193.925 255.884 196.369 258.73 198.035Z" fill="#005CAB" stroke="black" stroke-width="1.16921" stroke-linecap="round" stroke-linejoin="round"/>
<path d="M260.254 199.064L260.262 199.072" stroke="black" stroke-width="1.16921" stroke-linecap="round" stroke-linejoin="round"/>
<path d="M203.043 181.565C222.133 170.062 253.085 144.077 260.297 137.956C260.166 138.734 260.05 139.441 259.958 140.047C258.909 147.33 257.358 158.221 254.412 170.219C247.2 174.682 224.115 189.305 204.902 206.041C204.192 198.003 203.567 189.619 203.043 181.565Z" fill="#D21034" stroke="black" stroke-width="1.16921" stroke-linecap="round" stroke-linejoin="round"/>
<path d="M257.941 197.721C257.941 197.721 265.222 199.63 262.646 211.487C260.363 215.463 257.694 218.292 254.47 220.712C253.359 217.168 252.272 213.616 251.223 210.057C254.516 203.362 257.941 197.721 257.941 197.721Z" fill="white" stroke="black" stroke-width="1.16921" stroke-linecap="round" stroke-linejoin="round"/>
<path d="M251.632 180.363C250.167 185.164 248.208 189.439 246.503 193.328C245.099 188.103 243.765 182.925 242.5 177.857C247.76 174.368 251.979 171.72 254.409 170.219C253.591 173.535 252.681 176.93 251.632 180.363Z" fill="white" stroke="black" stroke-width="1.16921" stroke-linecap="round" stroke-linejoin="round"/>
<path d="M228.825 113.135C230.569 123.224 233.469 138.632 237.495 156.649C230.638 162.095 223.11 167.862 216.037 172.907C211.525 155.612 208.039 141.461 206.195 132.221C211.348 127.875 219.593 120.914 228.825 113.135Z" fill="#289728" stroke="black" stroke-width="1.16921" stroke-linecap="round" stroke-linejoin="round"/>
<path d="M200.656 136.904C200.656 136.904 202.723 135.16 206.194 132.221C208.038 141.461 211.516 155.613 216.036 172.907C211.408 176.207 206.966 179.201 203.032 181.566C201.458 157.75 200.656 136.904 200.656 136.904Z" fill="#FFD200" stroke="black" stroke-width="1.16921" stroke-linecap="round" stroke-linejoin="round"/>
<path d="M211.647 248.692C208.878 243.404 206.611 225.787 204.883 206.042C210.197 201.414 215.812 196.943 221.304 192.802C224.698 205.452 228.439 219.164 232.357 233.441C221.366 240.387 211.647 248.692 211.647 248.692Z" fill="#FFD200" stroke="black" stroke-width="1.16921" stroke-linecap="round" stroke-linejoin="round"/>
<path d="M246.499 193.328C242.597 202.286 240.128 209.224 248.543 215.895C249.369 213.931 250.294 211.958 251.22 210.057C252.269 213.616 253.356 217.168 254.467 220.712C250.672 223.572 246.106 225.851 240.499 228.742C237.791 230.133 235.038 231.744 232.361 233.441C228.443 219.164 224.702 205.453 221.309 192.802C228.991 187.019 236.434 181.88 242.496 177.857C243.761 182.925 245.096 188.103 246.499 193.328Z" fill="#289728" stroke="black" stroke-width="1.16921" stroke-linecap="round" stroke-linejoin="round"/>
<path d="M251.52 94.0334C253.332 110.723 256.472 126.689 260.344 137.611C260.328 137.729 260.305 137.847 260.282 137.957C256.826 140.888 247.926 148.376 237.49 156.65C233.456 138.632 230.563 123.224 228.82 113.135C236.117 106.983 244.03 100.319 251.52 94.0334Z" fill="white" stroke="black" stroke-width="1.16921" stroke-linecap="round" stroke-linejoin="round"/>
<path d="M262.324 127.813C265.155 114.824 269.644 96.9485 272.428 89.6175C274.881 83.1586 277.118 75.9926 278.437 71.5767L279.941 70.351C280.08 75.2697 276.455 97.6792 274.843 109.293C274.172 114.18 273.47 121.448 272.876 129.203C269.636 127.176 265.965 126.39 262.324 127.813Z" fill="#005CAB" stroke="black" stroke-width="1.16921" stroke-linecap="round" stroke-linejoin="round"/>
<path d="M267.06 200.722C265.756 205.099 264.306 208.595 262.648 211.487C264.214 204.258 262.124 200.73 260.249 199.072L260.242 199.064C259.787 198.664 259.355 198.381 258.984 198.176C261.576 193.195 266.389 183.444 271.325 173.048C271.156 181.118 270.369 189.667 267.06 200.722Z" fill="white" stroke="black" stroke-width="1.16921" stroke-linecap="round" stroke-linejoin="round"/>
<path d="M257.207 157.145C258.457 150.458 259.297 144.557 259.953 140.047C260.331 137.399 261.195 132.991 262.321 127.813C265.961 126.39 269.633 127.176 272.872 129.203C272.055 139.897 271.43 151.511 271.353 159.046V159.58C266.679 156.783 261.565 155.447 257.207 157.145Z" fill="#D21034" stroke="black" stroke-width="1.16921" stroke-linecap="round" stroke-linejoin="round"/>
<path d="M251.632 180.363C254.116 172.2 255.89 164.232 257.209 157.145C261.567 155.447 266.68 156.783 271.354 159.573C271.316 164.154 271.416 168.53 271.324 173.048C266.387 183.444 261.574 193.195 258.983 198.176C258.89 198.129 258.805 198.074 258.72 198.035C255.874 196.369 249.511 193.925 243.703 200.644C245.361 194.9 249.195 188.362 251.632 180.363Z" fill="#005CAB" stroke="black" stroke-width="1.16921" stroke-linecap="round" stroke-linejoin="round"/>
<path d="M251.527 94.0336C262.518 84.8089 272.592 76.3857 278.438 71.5769C277.119 75.9928 274.883 83.1588 272.43 89.6177C271.913 90.9849 271.327 92.7292 270.71 94.7407L267.123 96.5008C265.619 94.1907 264.269 92.0692 264.269 92.0692L263.853 98.1037L258.384 100.791L263.629 101.42L263.174 107.973L267.401 101.875L268.62 102.017C265.349 113.976 261.755 129.659 260.351 137.619C256.479 126.689 253.34 110.723 251.527 94.0336Z" fill="#005CAB" stroke="black" stroke-width="1.16921" stroke-linecap="round" stroke-linejoin="round"/>
<path d="M269.506 98.8264C269.421 99.125 269.336 99.4236 269.252 99.7222C269.19 99.6357 269.128 99.5493 269.066 99.455L269.506 98.8264Z" stroke="black" stroke-width="1.16921" stroke-linecap="round" stroke-linejoin="round"/>
<path d="M263.173 107.972L263.62 101.419L258.383 100.791L263.851 98.1035L264.268 92.069C264.268 92.069 265.61 94.1905 267.122 96.5006L270.708 94.7405C270.323 96.0056 269.914 97.3728 269.505 98.8264L269.065 99.455C269.127 99.5493 269.189 99.6357 269.251 99.7221C269.035 100.469 268.826 101.239 268.61 102.017L267.392 101.875L263.173 107.972Z" fill="#FFD200" stroke="black" stroke-width="1.16921" stroke-linecap="round" stroke-linejoin="round"/>
<path d="M199.571 139.064C199.826 139.064 200.088 138.978 200.304 138.797L281.523 70.3508C282.016 69.9422 282.086 69.1958 281.677 68.6929C281.268 68.19 280.543 68.1193 280.05 68.5357L198.831 136.974C198.337 137.391 198.268 138.137 198.677 138.632C198.908 138.915 199.24 139.064 199.571 139.064Z" fill="#414142" stroke="black" stroke-width="0.77947" stroke-linecap="round" stroke-linejoin="round"/>
<path d="M280.797 72.1133C282.242 72.1133 283.414 70.9197 283.414 69.4473C283.414 67.9749 282.242 66.7812 280.797 66.7812C279.351 66.7812 278.18 67.9749 278.18 69.4473C278.18 70.9197 279.351 72.1133 280.797 72.1133Z" fill="#414142" stroke="black" stroke-width="0.77947" stroke-linecap="round" stroke-linejoin="round"/>
<path d="M94.7344 129.832V226.864C94.7344 237.597 106.651 238.155 119.424 238.155H142.64C146.697 238.155 151.341 241.212 152.883 243.86C154.426 241.212 159.069 238.155 163.118 238.155H186.335C199.108 238.155 211.032 237.597 211.032 226.864V129.832H94.7344Z" fill="black" stroke="black" stroke-width="0.77947" stroke-linecap="round" stroke-linejoin="round"/>
<path d="M152.887 133.761H206.781V183.986H152.887V133.761Z" fill="white" stroke="black" stroke-width="0.776587" stroke-linecap="round" stroke-linejoin="round"/>
<path d="M152.887 183.985V238.163C155.617 235.939 159.366 234.226 163.045 234.226H186.099C201.95 234.226 206.778 232.505 206.778 226.864V183.985H152.887Z" fill="#005CAB" stroke="black" stroke-width="0.776587" stroke-linecap="round" stroke-linejoin="round"/>
<path d="M98.9805 133.761H152.875V183.986H98.9805V133.761Z" fill="#289728" stroke="black" stroke-width="0.776587" stroke-linecap="round" stroke-linejoin="round"/>
<path d="M98.9805 183.985V226.864C98.9805 232.505 103.817 234.226 119.667 234.226H142.714C146.393 234.226 150.141 235.939 152.879 238.163V183.985H98.9805Z" fill="#FFD200" stroke="black" stroke-width="0.776587" stroke-linecap="round" stroke-linejoin="round"/>
<path d="M133.52 166.173V198.93C133.52 202.553 137.484 202.741 141.742 202.741H149.47C150.82 202.741 152.363 203.771 152.879 204.666C153.388 203.771 154.939 202.741 156.289 202.741H164.017C168.267 202.741 172.239 202.553 172.239 198.93V166.173H133.52Z" fill="white" stroke="black" stroke-width="0.776587" stroke-linecap="round" stroke-linejoin="round"/>
<path d="M152.885 201.72C152.014 201.013 150.826 200.463 149.661 200.463H142.357C137.336 200.463 135.801 199.921 135.801 198.129V168.53H169.962V198.129C169.962 199.921 168.435 200.463 163.406 200.463H156.102C154.937 200.471 153.749 201.013 152.885 201.72Z" fill="#D21034" stroke="black" stroke-width="0.735358" stroke-linecap="round" stroke-linejoin="round"/>
<path d="M152.545 196.704C160.733 196.704 167.371 190.887 167.371 183.711C167.371 176.535 160.733 170.718 152.545 170.718C144.357 170.718 137.719 176.535 137.719 183.711C137.719 190.887 144.357 196.704 152.545 196.704Z" fill="white" stroke="black" stroke-width="0.776583" stroke-linecap="round" stroke-linejoin="round"/>
<path d="M104.871 217.773L111.396 216.405L113.456 209.876L114.682 216.405L121.408 218.409L114.682 219.878L112.823 226.306L111.396 219.878L104.871 217.773Z" fill="black"/>
<path d="M113.136 220.643C114.558 220.643 115.71 219.499 115.71 218.087C115.71 216.675 114.558 215.531 113.136 215.531C111.715 215.531 110.562 216.675 110.562 218.087C110.562 219.499 111.715 220.643 113.136 220.643Z" fill="white" stroke="black" stroke-width="0.776583" stroke-linecap="round" stroke-linejoin="round"/>
<path d="M129.469 217.773L135.994 216.405L138.061 209.876L139.28 216.405L146.013 218.409L139.28 219.878L137.421 226.306L135.994 219.878L129.469 217.773Z" fill="black"/>
<path d="M137.735 220.643C139.157 220.643 140.309 219.499 140.309 218.087C140.309 216.675 139.157 215.531 137.735 215.531C136.313 215.531 135.16 216.675 135.16 218.087C135.16 219.499 136.313 220.643 137.735 220.643Z" fill="white" stroke="black" stroke-width="0.776583" stroke-linecap="round" stroke-linejoin="round"/>
<path d="M116.176 201.351L122.701 199.983L124.76 193.454L125.987 199.983L132.713 201.979L125.987 203.456L124.128 209.876L122.701 203.456L116.176 201.351Z" fill="black"/>
<path d="M124.438 204.221C125.86 204.221 127.013 203.077 127.013 201.665C127.013 200.253 125.86 199.109 124.438 199.109C123.016 199.109 121.863 200.253 121.863 201.665C121.863 203.077 123.016 204.221 124.438 204.221Z" fill="white" stroke="black" stroke-width="0.776583" stroke-linecap="round" stroke-linejoin="round"/>
<path d="M196.883 152.548C197.623 151.125 196.813 150.222 195.117 150.222C195.479 148.187 194.962 146.238 193.636 146.317C194.376 145.036 193.937 142.404 190.543 142.702C191.353 139.701 190.095 138.726 186.925 139.096C186.262 137.068 184.789 138.121 184.789 138.121C184.789 138.121 184.488 135.717 181.611 135.717C178.734 135.717 178.071 137.893 178.071 137.893C178.071 137.893 175.711 138.043 174.677 140.754C173.204 140.604 171.584 140.754 170.18 144.054C168.923 144.211 168.406 145.413 168.406 145.413C168.406 145.413 165.02 145.861 165.02 147.888C165.02 149.915 166.416 150.073 166.416 150.073C166.416 150.073 166.493 151.495 169 151.424C168.19 151.723 165.83 150.898 164.65 152.477C162.136 152.697 162.953 156.83 164.719 156.909C164.28 158.26 166.563 158.409 167.38 157.961C167.157 158.865 168.553 158.716 169.81 157.584C171.214 158.786 172.247 158.032 172.247 158.032C172.247 158.032 174.461 158.786 175.857 158.032C176.227 159.392 177.778 158.032 177.778 158.032C177.778 158.032 177.701 159.313 178.518 159.839C178.711 159.965 178.518 169.755 178.518 169.755C178.518 169.755 173.643 174.415 173.497 177.723C176.158 175.617 178.958 174.714 178.958 174.714C178.958 174.714 179.181 179.004 179.621 179.679C180.362 177.047 180.655 175.994 180.655 175.994C180.655 175.994 183.825 179.522 184.341 180.952C184.635 179.381 183.971 175.397 183.971 175.397C183.971 175.397 190.173 176.442 191.869 178.627C191.129 175.766 183.678 169.983 183.678 169.983L183.084 159.234C183.084 159.234 183.601 157.883 184.781 157.584C185.961 157.286 186.848 157.058 186.925 156.083C187.072 157.804 188.105 159.761 190.388 158.857C192.162 160.664 193.343 158.936 193.636 157.506C195.186 157.129 195.109 155.478 195.109 155.478C195.109 155.478 196.806 155.557 196.883 154.426C197.77 154.127 198.063 152.925 196.883 152.548ZM179.922 157.207C179.675 157.333 179.544 156.162 178.595 156.469C178.595 156.335 178.194 155.392 177.022 155.651C177.022 154.983 176.466 154.221 175.34 154.936C176.79 154.041 175.888 152.438 175.888 152.438C176.968 152.508 178.271 151.644 178.271 151.644C178.271 151.644 178.919 151.825 179.999 151.691C179.999 152.304 181.326 153.247 181.326 153.247C181.326 153.247 181.225 154.096 181.372 154.983C180.624 155.164 180.176 157.081 179.922 157.207Z" fill="#289728" stroke="black" stroke-width="0.779471" stroke-linecap="round" stroke-linejoin="round"/>
<path d="M169.742 155.259C169.889 154.881 169.519 153.074 171.215 152.626C172.912 152.171 173.282 153.53 173.282 153.53" stroke="black" stroke-width="0.779471" stroke-linecap="round" stroke-linejoin="round"/>
<path d="M170.844 148.572C170.844 148.572 171.361 150.073 173.35 149.546" stroke="black" stroke-width="0.779471" stroke-linecap="round" stroke-linejoin="round"/>
<path d="M172.989 145.185C172.989 145.185 172.696 148.572 176.676 146.914C180.656 145.256 176.83 150.073 179.923 148.116" stroke="black" stroke-width="0.779471" stroke-linecap="round" stroke-linejoin="round"/>
<path d="M176.09 145.335C176.236 145.712 177.123 147.213 177.864 147.291" stroke="black" stroke-width="0.779471" stroke-linecap="round" stroke-linejoin="round"/>
<path d="M179.77 142.86C179.993 142.86 184.421 142.404 183.827 146.089C186.48 143.834 188.331 146.388 188.624 148.344" stroke="black" stroke-width="0.779471" stroke-linecap="round" stroke-linejoin="round"/>
<path d="M182.274 138.271C182.128 138.947 181.465 140.227 182.722 140.675" stroke="black" stroke-width="0.779471" stroke-linecap="round" stroke-linejoin="round"/>
<path d="M184.344 140.078C184.344 140.078 185.748 141.28 185.601 142.483" stroke="black" stroke-width="0.779471" stroke-linecap="round" stroke-linejoin="round"/>
<path d="M190.176 147.291C190.615 147.44 195.12 149.845 191.132 152.477" stroke="black" stroke-width="0.779471" stroke-linecap="round" stroke-linejoin="round"/>
<path d="M192.678 152.548C193.117 152.626 194.375 155.557 190.094 156.233" stroke="black" stroke-width="0.779471" stroke-linecap="round" stroke-linejoin="round"/>
<path d="M175.773 150.261C175.773 150.261 177.316 152.776 180.046 150.694" stroke="black" stroke-width="0.779471" stroke-linecap="round" stroke-linejoin="round"/>
<path d="M181.902 151.204C182.249 151.503 182.157 151.872 183.021 151.849" stroke="black" stroke-width="0.779471" stroke-linecap="round" stroke-linejoin="round"/>
<path d="M183.329 149.719C183.329 149.797 183.098 150.89 183.869 151.047" stroke="black" stroke-width="0.779471" stroke-linecap="round" stroke-linejoin="round"/>
<path d="M186.57 150.442C186.624 150.403 186.532 152.226 184.457 152.124" stroke="black" stroke-width="0.779471" stroke-linecap="round" stroke-linejoin="round"/>
<path d="M180.793 152.422C180.986 152.462 182.042 152.65 182.636 151.849C182.636 152.807 183.678 152.886 183.755 152.87C183.824 152.854 182.366 154.119 183.832 155.314C183.485 155.164 182.598 155.164 182.212 156.492" stroke="black" stroke-width="0.779471" stroke-linecap="round" stroke-linejoin="round"/>
<path d="M127.383 178.721C127.383 178.721 121.745 181.424 120.696 172.191C119.647 162.959 119.701 160.366 119.701 160.366L116.94 160.476L116.114 162.055C116.114 162.055 107.044 161.662 103.18 154.512C107.044 147.197 109.813 141.563 111.471 141.115C113.13 140.659 114.287 142.184 116.994 141.335C119.701 140.494 120.588 137.736 124.846 138.695C129.096 139.654 131.471 141.28 133.909 141.06C136.338 140.832 141.313 139.198 143.357 144.156C145.401 149.106 145.563 150.968 145.956 152.037C146.342 153.106 144.846 153.443 143.519 154.74C142.192 156.029 141.583 158.622 140.704 159.407C139.817 160.201 131.803 162.841 131.803 162.841C131.803 162.841 130.422 160.201 130.145 160.201H126.998C126.998 160.201 126.003 161.945 125.231 165.599C124.46 169.261 124.182 174.949 125.339 175.9C126.496 176.859 128.101 175.515 127.383 178.721Z" fill="white" stroke="black" stroke-width="0.779471" stroke-linecap="round" stroke-linejoin="round"/>
<path d="M116.66 160.648C116.66 160.648 116.274 157.325 116.382 155.918C116.498 154.512 114.454 153.333 114.392 150.858C114.338 148.375 115.888 146.183 116.382 145.059" stroke="black" stroke-width="0.779471" stroke-linecap="round" stroke-linejoin="round"/>
<path d="M119.702 160.366C119.702 160.366 119.702 157.608 119.594 157.443C119.478 157.27 118.707 157.553 118.707 157.553" stroke="black" stroke-width="0.779471" stroke-linecap="round" stroke-linejoin="round"/>
<path d="M126.434 161.214C126.989 158.794 126.657 157.16 127.483 156.932" stroke="black" stroke-width="0.779471" stroke-linecap="round" stroke-linejoin="round"/>
<path d="M130.363 160.366C130.14 159.132 130.032 157.443 130.803 156.201C131.582 154.96 133.125 152.54 133.294 150.458C133.456 148.375 131.914 147.417 131.968 144.211" stroke="black" stroke-width="0.779471" stroke-linecap="round" stroke-linejoin="round"/>
<path d="M136.664 152.32C137.104 152.658 138.376 153.608 137.991 155.808" stroke="black" stroke-width="0.779471" stroke-linecap="round" stroke-linejoin="round"/>
<path d="M138.875 149.727C139.045 149.727 141.089 151.471 140.533 153.781" stroke="black" stroke-width="0.779471" stroke-linecap="round" stroke-linejoin="round"/>
<path d="M133.355 143.142C135.345 143.983 138.546 141.736 139.657 143.928" stroke="black" stroke-width="0.779471" stroke-linecap="round" stroke-linejoin="round"/>
<path d="M121.141 143.307C123.069 142.859 125.56 142.411 126.493 143.48" stroke="black" stroke-width="0.779471" stroke-linecap="round" stroke-linejoin="round"/>
<path d="M110.641 145.562C112.137 144.321 114.235 144.046 114.675 144.887" stroke="black" stroke-width="0.779471" stroke-linecap="round" stroke-linejoin="round"/>
<path d="M108.037 150.292C108.037 150.292 105.993 153.553 105.777 153.781" stroke="black" stroke-width="0.779471" stroke-linecap="round" stroke-linejoin="round"/>
<path d="M110.688 151.416C110.688 151.416 108.59 154.064 108.035 154.968" stroke="black" stroke-width="0.779471" stroke-linecap="round" stroke-linejoin="round"/>
<path d="M112.248 153.553C112.248 153.553 110.088 155.023 110.15 156.256" stroke="black" stroke-width="0.779471" stroke-linecap="round" stroke-linejoin="round"/>
<path d="M116.2 162.126C116.2 162.126 114.858 170.557 113.508 174.816C116.917 170.824 119.74 162.637 119.74 162.637L119.771 160.366L117.172 160.476L116.2 162.126Z" fill="white" stroke="black" stroke-width="0.779471" stroke-linecap="round" stroke-linejoin="round"/>
<path d="M129.839 160.083C129.839 160.083 129.708 171.146 130.996 175.798C127.07 170.628 126.43 161.458 126.43 161.458L127.394 160.216L129.839 160.083Z" fill="white" stroke="black" stroke-width="0.779471" stroke-linecap="round" stroke-linejoin="round"/>
<path d="M117.391 152.964C118.239 152.657 118.548 152.39 119.188 152.775C119.82 153.16 120.244 154.119 120.244 154.119" stroke="black" stroke-width="0.779471" stroke-linecap="round" stroke-linejoin="round"/>
<path d="M118.965 152.846C118.965 152.846 118.564 152.988 118.633 153.828C118.71 154.677 120.029 154.504 119.96 153.687C119.913 153.137 118.965 152.846 118.965 152.846Z" fill="black" stroke="black" stroke-width="0.779471" stroke-linecap="round" stroke-linejoin="round"/>
<path d="M130.912 151.958C130.064 151.644 129.755 151.385 129.115 151.77C128.483 152.147 128.059 153.113 128.059 153.113" stroke="black" stroke-width="0.779471" stroke-linecap="round" stroke-linejoin="round"/>
<path d="M129.334 151.841C129.334 151.841 129.735 151.982 129.666 152.823C129.597 153.664 128.27 153.498 128.347 152.681C128.393 152.131 129.334 151.841 129.334 151.841Z" fill="black" stroke="black" stroke-width="0.779471" stroke-linecap="round" stroke-linejoin="round"/>
<path d="M38.6327 216.445C38.6327 216.445 47.5336 222.369 41.7102 232.144C35.8946 241.911 32.979 243.914 35.6323 248.715C38.2856 253.508 49.6778 255.166 55.9254 254.035C62.1807 252.895 94.6296 250.02 110.642 255.693C114.83 259.009 123.739 272.437 123.222 274.441C122.713 276.452 121.17 277.411 117.144 278.369C113.126 279.328 112.524 282.471 115.177 283.602C117.83 284.734 137.36 288.961 156.149 288.616C174.946 288.27 191.537 283.956 195.601 280.852C196.28 278.267 186.785 279.548 186.053 273.639C185.32 267.73 191.336 257.272 194.946 255.52C198.555 253.768 214.282 251.426 225.659 250.735C237.036 250.051 259.018 254.074 268.274 249.163C277.53 244.252 275.794 238.556 269.624 233.645C263.453 228.734 262.296 218.621 268.752 214.197C267.117 221.269 272.609 227.657 277.237 231.39C281.864 235.122 287.842 242.783 280.615 250.64C273.38 258.498 258.725 260.36 258.725 260.36C258.725 260.36 266.824 263.11 264.602 273.231C262.389 283.351 248.312 288.458 236.164 277.254C244.363 279.909 254.39 280.695 255.64 274.802C256.889 268.909 249.277 265.373 229.323 264.784C209.361 264.194 198.085 266.159 195.671 268.32C197.213 272.248 204.155 271.856 204.734 275.101C205.312 278.338 203.284 287.075 200.198 290.713C197.699 293.173 184.001 299.553 162.505 299.946C141.008 300.339 119.311 298.571 111.02 295.137C104.078 286.195 102.443 279.517 102.443 277.851C102.443 276.177 103.692 274.213 107.256 273.325C110.827 272.445 112.47 271.659 112.655 268.909C106.199 266.355 91.259 264.289 74.4753 264.98C57.7071 265.672 49.4079 271.753 53.4649 278.338C57.5066 284.922 68.598 281.78 70.4337 280.499C65.8984 284.427 54.807 287.468 48.2509 282.172C41.6948 276.861 43.7233 267.337 48.4514 264.682C41.0238 262.427 24.6335 253.783 24.1553 248.283C23.6693 242.783 26.4692 239.538 33.0253 233.456C39.5814 227.359 40.962 220.648 38.6327 216.445Z" fill="white" stroke="black" stroke-width="0.974339" stroke-linecap="round" stroke-linejoin="round"/>
<path d="M106.488 267.141C106.488 267.141 122.015 270.386 122.786 272.744" stroke="black" stroke-width="0.974339" stroke-linecap="round" stroke-linejoin="round"/>
<path d="M102.344 278.244C102.344 278.244 104.758 281.78 117.191 284.137" stroke="black" stroke-width="0.974339" stroke-linecap="round" stroke-linejoin="round"/>
<path d="M186.229 274.111C186.136 272.642 187 270.779 197.027 267.534" stroke="black" stroke-width="0.974339" stroke-linecap="round" stroke-linejoin="round"/>
<path d="M204.44 274.708C204.347 276.468 199.527 279.03 194.613 281.481" stroke="black" stroke-width="0.974339" stroke-linecap="round" stroke-linejoin="round"/>
<path d="M64.106 257.013L64.6999 260.73C64.8542 261.696 65.2244 262.097 66.3736 261.9C67.4612 261.72 67.6848 261.217 67.5306 260.258L66.9367 256.542L68.1168 256.345L68.7107 260.054C68.8032 260.659 68.8341 261.138 68.541 261.586C68.1399 262.199 67.4843 262.568 66.5356 262.733C65.5175 262.898 64.7847 262.788 64.1677 262.325C63.6895 261.955 63.6123 261.484 63.5275 260.918L62.9336 257.209L64.106 257.013Z" fill="black"/>
<path d="M71.5402 261.948L71.3242 256.031L72.5429 255.984L76.7465 260.313L76.5228 255.834L77.6952 255.795L77.9189 261.712L76.7696 261.751L72.4812 257.296L72.728 261.9L71.5402 261.948Z" fill="black"/>
<path d="M80.332 261.704V255.779H81.5198V261.704H80.332Z" fill="black"/>
<path d="M84.8608 261.743L84.9996 256.628L83.457 256.589L83.4802 255.787L87.7455 255.905L87.7301 256.699L86.1874 256.659L86.0486 261.775L84.8608 261.743Z" fill="black"/>
<path d="M89.3633 261.908L89.7412 255.999L93.9988 256.282L93.9525 257.068L90.8827 256.864L90.7671 258.624L93.8446 258.828L93.7906 259.606L90.7208 259.402L90.6051 261.17L93.6826 261.374L93.6286 262.191L89.3633 261.908Z" fill="black"/>
<path d="M127.934 295.452L128.466 289.559L131.104 289.802C133.595 290.038 135.107 291.413 134.945 293.165C134.852 294.179 134.189 294.965 133.078 295.412C132.16 295.79 131.32 295.774 130.232 295.672L127.934 295.452ZM130.595 294.91C132.438 295.09 133.634 294.367 133.749 293.063C133.873 291.727 132.793 290.776 130.764 290.588L129.546 290.47L129.152 294.776L130.595 294.91Z" fill="black"/>
<path d="M136.355 296.19L136.741 290.281L137.929 290.36L137.543 296.269L136.355 296.19Z" fill="black"/>
<path d="M148.14 293.786C147.947 295.664 146.158 296.811 143.821 296.717C142.594 296.67 141.561 296.285 140.751 295.57C140.08 294.988 139.741 294.249 139.771 293.432C139.802 292.607 140.273 291.869 141.144 291.303C141.962 290.761 142.957 290.525 144.16 290.572C145.834 290.643 147.107 291.287 147.701 292.332L146.235 292.277C145.711 291.751 144.955 291.46 144.029 291.429C143.258 291.389 142.533 291.578 141.977 291.955C141.376 292.356 141.036 292.922 141.006 293.487C140.982 294.116 141.26 294.697 141.777 295.114C142.332 295.562 143.096 295.837 143.859 295.868C145.093 295.915 146.081 295.483 146.744 294.564L143.026 294.407L143.057 293.574L148.14 293.786Z" fill="black"/>
<path d="M149.668 296.803L149.737 290.879L150.964 290.887L154.951 295.42L154.944 290.934L156.124 290.949L156.054 296.874L154.913 296.858L150.833 292.199L150.864 296.811L149.668 296.803Z" fill="black"/>
<path d="M158.574 296.85L158.527 290.926L159.723 290.918L159.761 296.842L158.574 296.85Z" fill="black"/>
<path d="M163.7 296.772L163.523 291.657L161.988 291.712L161.965 290.91L166.23 290.761L166.253 291.562L164.718 291.617L164.888 296.733L163.7 296.772Z" fill="black"/>
<path d="M169.344 296.481L168.75 290.588L172.992 290.148L173.077 290.934L170.015 291.256L170.192 293.008L173.254 292.686L173.332 293.456L170.269 293.778L170.447 295.546L173.509 295.224L173.586 296.033L169.344 296.481Z" fill="black"/>
<path d="M202.344 262.859L201.565 257.799L200.045 258.042L199.922 257.257L204.141 256.581L204.257 257.367L202.737 257.61L203.524 262.67L202.344 262.859Z" fill="black"/>
<path d="M206.889 262.215L206.426 256.314L208.794 256.117C210.791 255.96 211.879 256.557 211.979 257.783C212.049 258.726 211.177 259.535 209.781 259.7L212.288 261.775L210.799 261.892L207.86 259.378L208.076 262.112L206.889 262.215ZM208.47 259.229C210.097 259.095 210.869 258.655 210.815 257.869C210.753 257.084 210.012 256.824 208.57 256.942L207.683 257.013L207.86 259.276L208.47 259.229Z" fill="black"/>
<path d="M214.617 261.673L213.352 261.704L216.421 255.701L217.578 255.67L220.941 261.5L219.638 261.539L218.689 259.842L215.496 259.921L214.617 261.673ZM217.023 256.801L215.905 259.08L218.242 259.017L217.023 256.801Z" fill="black"/>
<path d="M223.768 261.539L220.637 255.591L221.902 255.599L224.123 260.038L226.422 255.638L227.671 255.646L224.47 261.547L223.768 261.539Z" fill="black"/>
<path d="M228.003 261.586L226.746 261.539L230.171 255.74L231.32 255.787L234.328 261.822L233.025 261.767L232.184 260.015L228.991 259.897L228.003 261.586ZM230.703 256.879L229.446 259.08L231.783 259.166L230.703 256.879Z" fill="black"/>
<path d="M236.027 261.971L236.475 256.062L237.663 256.157L237.215 262.065L236.027 261.971Z" fill="black"/>
<path d="M239.867 262.309L240.615 256.439L241.795 256.596L241.155 261.657L243.832 262.01L243.724 262.82L239.867 262.309Z" fill="black"/>
<path d="M152.893 250.398C144.94 250.398 138.48 256.8 138.48 264.69C138.48 272.581 144.94 278.982 152.893 278.982C160.846 278.982 167.292 272.581 167.292 264.69C167.292 256.8 160.846 250.398 152.893 250.398ZM152.893 252.847C159.495 252.847 164.837 258.127 164.837 264.648C164.837 271.169 159.495 276.47 152.893 276.47C146.299 276.47 140.929 271.169 140.929 264.648C140.929 258.127 146.299 252.847 152.893 252.847Z" fill="#289728" stroke="black" stroke-width="0.974306" stroke-linecap="round" stroke-linejoin="round"/>
<path d="M144.547 283.532C144.832 283.492 152.9 265.467 152.9 265.467L161.246 283.532L152.9 280.161L144.547 283.532Z" fill="white" stroke="black" stroke-width="1.27621" stroke-linecap="round" stroke-linejoin="round"/>
<path d="M144.543 245.839C144.828 245.879 152.889 263.904 152.889 263.904L161.242 245.839L152.889 249.21L144.543 245.839Z" fill="white" stroke="black" stroke-width="1.27621" stroke-linecap="round" stroke-linejoin="round"/>
<path d="M133.664 273.026C133.703 272.743 151.774 264.697 151.774 264.697L133.664 256.368L137.042 264.697L133.664 273.026Z" fill="white" stroke="black" stroke-width="1.27621" stroke-linecap="round" stroke-linejoin="round"/>
<path d="M172.11 256.353C172.072 256.636 154 264.682 154 264.682L172.11 273.011L168.732 264.682L172.11 256.353Z" fill="white" stroke="black" stroke-width="1.27621" stroke-linecap="round" stroke-linejoin="round"/>
<path d="M152.891 273.297C157.732 273.297 161.657 269.436 161.657 264.674C161.657 259.911 157.732 256.05 152.891 256.05C148.05 256.05 144.125 259.911 144.125 264.674C144.125 269.436 148.05 273.297 152.891 273.297Z" fill="#40CFFF" stroke="#BF9B30" stroke-width="0.707546" stroke-linecap="round" stroke-linejoin="round"/>
<path d="M152.831 271.335C156.539 271.335 159.545 268.378 159.545 264.731C159.545 261.083 156.539 258.126 152.831 258.126C149.123 258.126 146.117 261.083 146.117 264.731C146.117 268.378 149.123 271.335 152.831 271.335Z" fill="black" stroke="#BF9B30" stroke-width="0.673834" stroke-linecap="round" stroke-linejoin="round"/>
<path d="M152.789 258.533L154.191 262.919H158.708L155.048 265.626L156.45 270.011L152.789 267.297L149.129 270.011L150.531 265.626L146.863 262.919H151.388L152.789 258.533Z" fill="#BF9B30"/>
<path d="M108.295 53.4025C107.987 55.2647 111.643 59.5078 110.732 61.9907C109.815 64.4737 104.739 65.0944 91.5422 68.1903C78.3452 71.294 79.0548 80.7072 80.2734 86.7103C69.7143 78.845 75.4991 66.9488 79.3556 63.1222C73.0617 64.0572 63.1119 61.6764 56.7177 58.9892C50.3159 56.294 47.5777 53.3003 42.0938 54.2275C42.0938 54.2275 46.6599 51.9567 58.8465 54.2275C71.0332 56.5062 87.1766 57.5355 99.7644 51.0217C95.098 42.7478 94.3884 41.6084 108.195 37.994C122.001 34.3717 138.754 32.8159 160.482 32.8159C182.209 32.8159 200.79 39.0233 206.274 40.9877C211.758 42.9521 206.683 47.093 205.464 49.3716C210.339 51.7446 220.289 57.8498 232.267 55.7833C244.246 53.7089 252.676 50.4009 264.145 52.8839C256.332 53.9211 252.267 55.469 246.991 58.7849C241.708 62.0928 229.12 64.8823 222.217 63.3343C231.049 70.3668 230.64 80.6051 224.554 86.1917C226.074 77.8157 224.955 70.9875 210.131 66.8466C195.306 62.7136 189.321 65.0866 194.805 53.3004C189.421 49.8824 166.776 47.3994 153.679 47.2972C140.582 47.1951 117.126 50.0945 108.295 53.4025Z" fill="white" stroke="black" stroke-width="1.05229" stroke-linecap="round" stroke-linejoin="round"/>
<path d="M102.767 56.679C102.597 55.0917 106.415 53.4967 109.863 52.7974C108.074 54.2353 107.966 53.2531 108.76 55.1153C109.555 56.9775 110.349 59.1934 110.349 59.1934C110.349 59.1934 108.691 57.999 107.002 57.6454C105.312 57.2918 104.148 57.4176 102.767 56.679Z" fill="black" stroke="black" stroke-width="1.05229" stroke-linecap="round" stroke-linejoin="round"/>
<path d="M205.466 49.3716C205.466 49.3716 201.37 55.4297 199.75 57.2841C198.123 59.1384 193.642 57.3469 192.801 59.932" stroke="black" stroke-width="1.05229" stroke-linecap="round" stroke-linejoin="round"/>
<path d="M192.996 52.4517L194.878 53.316C193.227 56.1447 193.019 59.3977 192.996 59.9634C193.027 59.6098 193.251 58.3448 195.202 58.3448C197.477 58.3448 199.298 57.6847 199.298 57.6847L200.663 55.964C198.904 54.1096 192.996 52.4517 192.996 52.4517Z" fill="black" stroke="black" stroke-width="1.05229" stroke-linecap="round" stroke-linejoin="round"/>
<path d="M192.996 60.0558C192.996 60.0558 192.996 60.0249 193.004 59.9633" stroke="black" stroke-width="1.05229" stroke-linecap="round" stroke-linejoin="round"/>
<path d="M114.626 49.2535L114.387 48.1535L117.626 41.3725C117.857 40.8958 118.084 40.4715 118.305 40.0995L113.392 41.2232L113.16 40.1703L119.462 38.7245L119.701 39.7852L116.13 47.132L115.736 47.8863L121.351 46.5977L121.583 47.6584L114.626 49.2535Z" fill="black"/>
<path d="M121.773 43.0382C121.527 41.5348 121.73 40.2907 122.383 39.3059C123.036 38.3211 123.99 37.7213 125.244 37.5065C126.062 37.3651 126.833 37.4384 127.558 37.7265C128.288 38.0146 128.885 38.4861 129.348 39.1409C129.81 39.8009 130.116 40.584 130.266 41.4902C130.415 42.4069 130.366 43.2608 130.119 44.0518C129.872 44.8375 129.448 45.474 128.846 45.9611C128.24 46.4483 127.548 46.7574 126.771 46.8883C125.933 47.0298 125.152 46.9512 124.427 46.6526C123.702 46.354 123.11 45.8747 122.653 45.2147C122.195 44.5599 121.902 43.8344 121.773 43.0382ZM122.984 42.8574C123.164 43.947 123.594 44.7563 124.272 45.2854C124.951 45.8197 125.728 46.0109 126.602 45.859C127.486 45.7123 128.162 45.2723 128.63 44.5389C129.098 43.8056 129.237 42.8548 129.047 41.6867C128.929 40.9481 128.7 40.3247 128.36 39.8166C128.026 39.3085 127.599 38.9444 127.08 38.7244C126.561 38.4992 126.005 38.4363 125.414 38.5358C124.581 38.6773 123.913 39.0911 123.409 39.7773C122.905 40.4635 122.763 41.4902 122.984 42.8574Z" fill="black"/>
<path d="M139.43 45.0734L138.852 35.9037L140.047 35.8251L140.332 40.3746L144.513 35.5344L146.133 35.4323L142.585 39.3924L146.873 44.5862L145.3 44.6884L141.806 40.2567L140.425 41.8204L140.626 44.9948L139.43 45.0734Z" fill="black"/>
<path d="M149.457 44.5311L147.059 35.3378H148.285L149.658 41.3645C149.807 41.9931 149.936 42.6191 150.044 43.2424C150.275 42.2629 150.411 41.6971 150.452 41.5452L152.157 35.3378H153.599L154.895 39.9894C155.219 41.1419 155.456 42.2262 155.605 43.2424C155.718 42.661 155.867 41.9931 156.052 41.2388L157.456 35.33H158.659L156.191 44.5232H155.042L153.136 37.5222C152.977 36.9407 152.882 36.5819 152.851 36.4457C152.759 36.87 152.671 37.2288 152.589 37.5222L150.676 44.5311H149.457Z" fill="black"/>
<path d="M159.801 44.6412L160.364 35.4636L166.874 35.8801L166.804 36.9644L161.482 36.6265L161.313 39.4316L166.295 39.7538L166.226 40.8303L161.251 40.5081L161.058 43.6354L166.581 43.9811L166.519 45.0655L159.801 44.6412Z" fill="black"/>
<path d="M174.414 45.9455L174.584 44.8298L180.052 39.7539C180.438 39.3924 180.8 39.0833 181.14 38.8267L176.173 38.0252L176.335 36.9487L182.721 37.9781L182.551 39.0545L176.574 44.5391L175.934 45.0891L181.618 46.0084L181.456 47.077L174.414 45.9455Z" fill="black"/>
<path d="M183.292 42.8576C183.606 41.3646 184.246 40.2829 185.212 39.6124C186.179 38.9419 187.282 38.7429 188.521 39.0153C189.339 39.1986 190.033 39.56 190.604 40.0996C191.17 40.6391 191.55 41.2992 191.745 42.0797C191.936 42.8654 191.936 43.7088 191.745 44.6098C191.555 45.5212 191.203 46.2965 190.689 46.9356C190.175 47.5747 189.547 48.0068 188.807 48.2321C188.066 48.4521 187.313 48.4783 186.547 48.3106C185.719 48.1273 185.022 47.7606 184.457 47.2106C183.886 46.6606 183.508 45.9953 183.323 45.2148C183.138 44.4343 183.127 43.6485 183.292 42.8576ZM184.495 43.1404C184.264 44.2248 184.367 45.1415 184.804 45.8905C185.246 46.6396 185.899 47.1084 186.763 47.297C187.637 47.4908 188.426 47.3337 189.131 46.8256C189.83 46.3227 190.303 45.4924 190.55 44.3348C190.704 43.6066 190.717 42.9414 190.588 42.339C190.46 41.7418 190.195 41.2415 189.794 40.8382C189.388 40.4348 188.894 40.1703 188.313 40.0446C187.485 39.8612 186.714 39.9948 185.999 40.4453C185.279 40.8906 184.778 41.7889 184.495 43.1404Z" fill="black"/>
<path d="M134.026 127.929H133.667V124.853C133.581 124.964 133.467 125.075 133.326 125.186C133.186 125.297 133.061 125.38 132.949 125.435V124.969C133.15 124.842 133.325 124.688 133.476 124.508C133.626 124.327 133.732 124.152 133.795 123.982H134.026V127.929Z" fill="black"/>
<path d="M134.977 125.733V123.178H136.35V123.479H135.228V124.262H136.279V124.561H135.228V125.431H136.394V125.733H134.977Z" fill="black"/>
<path d="M136.754 125.733V123.178H137.596C137.766 123.178 137.894 123.201 137.982 123.247C138.071 123.293 138.141 123.373 138.194 123.49C138.246 123.606 138.273 123.734 138.273 123.875C138.273 124.056 138.229 124.209 138.142 124.333C138.055 124.457 137.92 124.536 137.738 124.57C137.804 124.613 137.855 124.656 137.889 124.697C137.963 124.788 138.032 124.901 138.098 125.037L138.428 125.733H138.112L137.861 125.201C137.787 125.048 137.727 124.93 137.679 124.849C137.632 124.768 137.589 124.711 137.551 124.678C137.514 124.646 137.476 124.623 137.437 124.61C137.408 124.602 137.362 124.598 137.297 124.598H137.005V125.733L136.754 125.733ZM137.005 124.305H137.546C137.661 124.305 137.75 124.29 137.815 124.258C137.88 124.226 137.929 124.175 137.963 124.105C137.997 124.034 138.014 123.957 138.014 123.875C138.014 123.754 137.981 123.655 137.915 123.577C137.85 123.499 137.747 123.46 137.607 123.46H137.005V124.305Z" fill="black"/>
<path d="M139.914 127.929V123.998H140.921C141.148 123.998 141.322 124.017 141.441 124.054C141.609 124.106 141.752 124.2 141.87 124.336C142.024 124.511 142.139 124.736 142.215 125.009C142.292 125.281 142.33 125.592 142.33 125.942C142.33 126.241 142.304 126.505 142.253 126.736C142.201 126.966 142.134 127.158 142.053 127.31C141.972 127.46 141.883 127.579 141.786 127.666C141.69 127.752 141.574 127.817 141.437 127.862C141.302 127.907 141.145 127.929 140.969 127.929H139.914ZM140.301 127.465H140.925C141.118 127.465 141.268 127.441 141.377 127.393C141.488 127.344 141.575 127.276 141.641 127.189C141.732 127.066 141.803 126.9 141.854 126.693C141.906 126.484 141.932 126.231 141.932 125.934C141.932 125.523 141.881 125.207 141.78 124.988C141.68 124.766 141.559 124.618 141.415 124.542C141.312 124.489 141.145 124.462 140.915 124.462H140.301V127.465Z" fill="black"/>
<path d="M142.863 127.929V123.998H144.977V124.462H143.25V125.666H144.867V126.127H143.25V127.465H145.044V127.929H142.863ZM143.661 123.757L143.926 123.006H144.396L143.958 123.757H143.661Z" fill="black"/>
<path d="M147.674 126.551L148.06 126.682C147.979 127.109 147.833 127.436 147.622 127.661C147.412 127.884 147.155 127.996 146.85 127.996C146.535 127.996 146.279 127.91 146.081 127.739C145.884 127.565 145.734 127.315 145.63 126.988C145.528 126.661 145.477 126.309 145.477 125.934C145.477 125.525 145.534 125.168 145.65 124.864C145.767 124.559 145.932 124.327 146.146 124.17C146.362 124.011 146.598 123.931 146.856 123.931C147.149 123.931 147.394 124.031 147.594 124.231C147.793 124.432 147.932 124.713 148.011 125.076L147.63 125.197C147.562 124.911 147.464 124.702 147.335 124.572C147.206 124.441 147.044 124.376 146.848 124.376C146.624 124.376 146.436 124.449 146.284 124.593C146.134 124.738 146.028 124.933 145.967 125.178C145.906 125.421 145.875 125.672 145.875 125.931C145.875 126.266 145.911 126.558 145.983 126.808C146.056 127.057 146.169 127.243 146.322 127.366C146.475 127.489 146.64 127.551 146.818 127.551C147.035 127.551 147.218 127.467 147.369 127.299C147.519 127.131 147.62 126.881 147.674 126.551Z" fill="black"/>
<path d="M148.539 127.929V123.998H150.652V124.462H148.926V125.666H150.543V126.127H148.926V127.465H150.72V127.929H148.539Z" fill="black"/>
<path d="M151.242 127.929V123.998H151.824L152.516 126.781C152.58 127.041 152.626 127.234 152.656 127.363C152.689 127.22 152.741 127.01 152.811 126.733L153.511 123.998H154.031V127.929H153.659V124.639L152.809 127.929H152.46L151.615 124.583V127.929H151.242Z" fill="black"/>
<path d="M154.645 127.929V123.998H155.741C155.964 123.998 156.143 124.038 156.277 124.119C156.413 124.197 156.519 124.32 156.594 124.486C156.671 124.651 156.71 124.823 156.71 125.004C156.71 125.172 156.676 125.33 156.608 125.478C156.541 125.627 156.438 125.746 156.301 125.838C156.478 125.907 156.614 126.026 156.708 126.194C156.804 126.362 156.852 126.561 156.852 126.789C156.852 126.973 156.822 127.145 156.764 127.304C156.707 127.461 156.636 127.583 156.55 127.669C156.465 127.755 156.358 127.82 156.23 127.865C156.102 127.907 155.945 127.929 155.759 127.929H154.645ZM155.031 125.65H155.663C155.835 125.65 155.958 125.635 156.032 125.604C156.13 125.565 156.204 125.5 156.253 125.409C156.304 125.317 156.329 125.203 156.329 125.065C156.329 124.935 156.306 124.82 156.259 124.722C156.213 124.622 156.146 124.554 156.06 124.518C155.974 124.481 155.825 124.462 155.615 124.462H155.031V125.65ZM155.031 127.465H155.759C155.884 127.465 155.972 127.459 156.022 127.446C156.111 127.425 156.186 127.389 156.245 127.339C156.305 127.289 156.354 127.217 156.393 127.122C156.432 127.025 156.451 126.915 156.451 126.789C156.451 126.643 156.423 126.516 156.367 126.409C156.311 126.3 156.233 126.224 156.134 126.181C156.035 126.136 155.893 126.114 155.707 126.114H155.031V127.465Z" fill="black"/>
<path d="M157.383 127.929V123.998H158.679C158.939 123.998 159.137 124.034 159.273 124.105C159.408 124.175 159.517 124.299 159.598 124.478C159.679 124.657 159.719 124.854 159.719 125.071C159.719 125.35 159.652 125.585 159.518 125.776C159.384 125.967 159.176 126.089 158.896 126.141C158.998 126.207 159.076 126.272 159.129 126.336C159.242 126.476 159.349 126.65 159.45 126.859L159.959 127.929H159.472L159.085 127.111C158.972 126.875 158.879 126.695 158.806 126.57C158.733 126.444 158.667 126.357 158.609 126.307C158.552 126.257 158.493 126.222 158.433 126.202C158.39 126.19 158.318 126.183 158.218 126.183H157.77V127.929L157.383 127.929ZM157.77 125.733H158.601C158.778 125.733 158.916 125.709 159.016 125.661C159.115 125.611 159.191 125.532 159.243 125.425C159.295 125.316 159.321 125.198 159.321 125.071C159.321 124.885 159.27 124.732 159.169 124.612C159.069 124.492 158.911 124.433 158.695 124.433H157.77V125.733Z" fill="black"/>
<path d="M160.34 127.929V123.998H162.453V124.462H160.727V125.666H162.344V126.127H160.727V127.465H162.521V127.929H160.34Z" fill="black"/>
<path d="M165.401 127.929H165.042V124.853C164.956 124.964 164.842 125.075 164.701 125.186C164.561 125.297 164.436 125.38 164.324 125.435V124.969C164.525 124.842 164.7 124.688 164.851 124.508C165.001 124.327 165.107 124.152 165.17 123.982H165.401V127.929Z" fill="black"/>
<path d="M166.366 127.02L166.711 126.977C166.74 127.195 166.796 127.353 166.879 127.452C166.961 127.55 167.067 127.599 167.196 127.599C167.306 127.599 167.402 127.565 167.485 127.497C167.568 127.429 167.637 127.339 167.69 127.226C167.743 127.112 167.788 126.958 167.824 126.765C167.859 126.572 167.877 126.376 167.877 126.175C167.877 126.154 167.877 126.122 167.876 126.079C167.804 126.233 167.705 126.358 167.58 126.454C167.457 126.549 167.323 126.596 167.178 126.596C166.936 126.596 166.731 126.478 166.564 126.242C166.396 126.006 166.312 125.695 166.312 125.309C166.312 124.911 166.4 124.59 166.574 124.347C166.749 124.104 166.968 123.982 167.232 123.982C167.422 123.982 167.595 124.051 167.752 124.189C167.91 124.326 168.03 124.523 168.111 124.778C168.193 125.032 168.234 125.4 168.234 125.883C168.234 126.385 168.194 126.786 168.113 127.084C168.032 127.381 167.911 127.607 167.75 127.763C167.59 127.918 167.403 127.996 167.188 127.996C166.959 127.996 166.772 127.911 166.628 127.741C166.483 127.57 166.395 127.329 166.366 127.02ZM167.836 125.285C167.836 125.008 167.78 124.788 167.67 124.626C167.561 124.463 167.43 124.382 167.275 124.382C167.116 124.382 166.977 124.469 166.859 124.644C166.74 124.82 166.681 125.047 166.681 125.325C166.681 125.576 166.737 125.779 166.849 125.937C166.962 126.092 167.101 126.17 167.265 126.17C167.432 126.17 167.568 126.092 167.674 125.937C167.782 125.779 167.836 125.562 167.836 125.285Z" fill="black"/>
<path d="M168.578 126.899L168.955 126.856C168.983 127.103 169.047 127.289 169.148 127.414C169.251 127.538 169.374 127.599 169.517 127.599C169.69 127.599 169.836 127.512 169.956 127.336C170.075 127.161 170.135 126.929 170.135 126.639C170.135 126.364 170.077 126.147 169.962 125.988C169.847 125.829 169.697 125.749 169.511 125.749C169.396 125.749 169.291 125.785 169.198 125.856C169.105 125.926 169.032 126.017 168.979 126.13L168.642 126.071L168.925 124.052H170.378V124.513H169.212L169.055 125.569C169.23 125.405 169.414 125.323 169.607 125.323C169.862 125.323 170.077 125.442 170.253 125.679C170.428 125.917 170.516 126.223 170.516 126.596C170.516 126.952 170.439 127.26 170.285 127.519C170.097 127.837 169.841 127.996 169.517 127.996C169.251 127.996 169.034 127.896 168.865 127.696C168.698 127.496 168.602 127.23 168.578 126.899Z" fill="black"/>
<path d="M171.404 125.797C171.255 125.724 171.145 125.619 171.073 125.484C171.001 125.348 170.965 125.185 170.965 124.996C170.965 124.71 171.042 124.469 171.195 124.274C171.347 124.079 171.551 123.982 171.805 123.982C172.06 123.982 172.265 124.082 172.421 124.282C172.576 124.481 172.654 124.723 172.654 125.009C172.654 125.191 172.618 125.35 172.546 125.486C172.476 125.62 172.368 125.724 172.223 125.797C172.403 125.876 172.539 126.003 172.632 126.178C172.726 126.353 172.774 126.562 172.774 126.805C172.774 127.141 172.685 127.424 172.508 127.653C172.332 127.882 172.099 127.996 171.811 127.996C171.522 127.996 171.29 127.882 171.113 127.653C170.936 127.422 170.848 127.135 170.848 126.792C170.848 126.536 170.896 126.323 170.991 126.151C171.088 125.978 171.226 125.86 171.404 125.797ZM171.332 124.979C171.332 125.165 171.377 125.317 171.466 125.435C171.555 125.553 171.67 125.612 171.813 125.612C171.951 125.612 172.064 125.554 172.152 125.438C172.241 125.32 172.285 125.176 172.285 125.006C172.285 124.829 172.239 124.681 172.148 124.561C172.057 124.44 171.944 124.379 171.809 124.379C171.672 124.379 171.558 124.438 171.468 124.556C171.377 124.674 171.332 124.815 171.332 124.979ZM171.216 126.795C171.216 126.932 171.24 127.066 171.288 127.194C171.337 127.323 171.41 127.423 171.506 127.495C171.601 127.564 171.704 127.599 171.815 127.599C171.986 127.599 172.128 127.525 172.239 127.377C172.351 127.228 172.407 127.04 172.407 126.811C172.407 126.578 172.349 126.386 172.233 126.234C172.119 126.082 171.975 126.006 171.803 126.006C171.634 126.006 171.494 126.081 171.382 126.232C171.272 126.382 171.216 126.569 171.216 126.795Z" fill="black"/>
<path d="M143.058 181.496C143.107 181.536 143.181 181.561 143.173 181.671C143.252 181.712 143.33 181.755 143.359 181.833L143.611 181.961H143.613L144.583 182.754L144.86 182.851L144.984 182.863L145.962 182.587L146.314 182.626L146.314 182.626L146.687 182.762C146.982 182.647 147.149 182.467 147.573 182.416C147.657 182.465 147.662 182.382 147.692 182.34L147.924 182.275L148.221 182.238H148.683C148.824 182.285 148.958 182.353 149.04 182.566C149.148 182.945 149.358 182.972 149.623 182.808C149.734 182.848 149.845 182.86 149.956 182.857L149.978 182.744L150.042 182.749C150.043 182.837 150.119 182.83 150.173 182.85C150.196 182.933 150.232 183.004 150.333 183.016L150.415 182.991L150.445 183.037L150.399 183.093L150.522 183.25L150.474 183.606L150.48 183.606L150.324 183.905L150.419 183.975L150.365 184.179L150.506 184.251C150.515 184.27 150.5 184.277 150.491 184.287L150.328 184.251L150.292 184.449L150.165 184.571L150.303 184.923L150.882 185.521H150.88L151.203 185.937H151.203C151.244 185.974 151.243 186.018 151.244 186.061C151.234 186.107 151.264 186.145 151.284 186.189L151.312 186.308C151.413 186.594 151.624 186.757 151.617 187.181L151.548 187.247C151.605 187.439 151.655 187.639 151.781 187.731C151.794 187.784 151.766 187.823 151.763 187.863C151.75 188.011 151.672 188.429 151.638 188.354C151.638 188.354 151.498 188.385 151.485 188.498C151.479 188.553 151.411 188.561 151.385 188.629C151.315 188.818 151.24 189.119 151.186 189.392C151.18 189.424 151.139 189.41 151.134 189.44C151.119 189.528 151.136 189.589 151.129 189.682C151.127 189.709 151.093 189.663 151.086 189.697C151.077 189.739 151.111 189.859 151.103 189.888C151.117 190.067 151.134 190.245 151.298 190.371L151.978 191.578L151.995 192.132L152.116 192.388C152.123 192.488 152.086 192.588 152.148 192.687L152.232 193.159L152.601 193.568H152.603C152.602 193.569 152.602 193.568 152.601 193.568L153.118 194.606L153.125 194.843C153.099 194.9 153.056 194.901 153.008 194.892C152.988 194.919 152.97 194.954 153.014 194.981C153.078 195.094 153.124 195.232 153.205 195.329C153.272 195.409 153.372 195.451 153.451 195.52L153.656 195.536C153.698 195.507 153.66 195.466 153.813 195.451H154.113C154.208 195.414 154.101 195.321 154.411 195.343C154.462 195.35 154.484 195.405 154.563 195.362C154.707 195.339 154.844 195.394 154.984 195.415C155.026 195.382 155.01 195.326 155.243 195.371L155.267 195.28L155.54 195.285L157.159 193.784C157.416 193.678 157.473 193.368 157.544 193.074L157.545 193.074L157.6 192.881L157.517 192.913C157.53 192.836 157.511 192.76 157.592 192.684L158.261 192.42C158.344 192.36 158.395 192.268 158.453 192.182L158.375 192.155L158.513 191.634L158.442 191.609L158.385 191.17C158.195 191.054 158.305 190.874 158.38 190.832L158.785 190.489L158.818 190.558L158.968 190.392L158.935 190.341L159.032 190.323L159.061 190.24L159.557 189.996H159.681C159.775 189.925 159.85 189.849 159.987 189.791L159.978 189.717L160.143 189.59C160.183 189.549 160.217 189.489 160.269 189.491L160.276 189.41L160.244 189.375L160.335 189.24L160.358 189.15L160.343 189.091L160.288 189.007L160.307 188.676C160.265 188.635 160.288 188.607 160.311 188.579L160.3 188.215L160.433 187.991C160.437 187.93 160.442 187.869 160.419 187.808C160.398 187.821 160.374 187.835 160.35 187.849C160.373 187.835 160.395 187.821 160.414 187.809C160.372 187.734 160.296 187.694 160.226 187.648C160.232 187.563 160.197 187.47 160.167 187.377C160.131 187.321 160.103 187.266 160.127 187.225L160.043 187.042L160.096 187.025C160.082 186.886 160.083 186.754 160.166 186.667C160.109 186.549 159.915 186.456 159.926 186.316L160.092 185.849C160.251 185.656 160.348 185.394 160.474 185.165C160.589 185.137 160.634 185.054 160.669 184.962C160.762 184.957 160.808 184.898 160.85 184.833H160.849L161.281 184.35L162.007 183.666L162.091 183.656L162.395 183.369L162.407 183.312C162.574 183.185 162.782 182.973 162.834 182.868C162.926 182.682 163.044 182.525 163.176 182.375L163.462 181.551C163.518 181.497 163.559 181.425 163.594 181.344C163.609 181.258 163.661 181.227 163.7 181.179L163.733 180.766C163.826 180.78 163.781 180.597 163.786 180.485C163.75 180.453 163.711 180.401 163.786 180.359L163.785 180.256C163.717 180.261 163.65 180.185 163.584 180.236C163.501 180.314 163.39 180.37 163.265 180.38C163.125 180.391 163.01 180.472 162.952 180.453C162.857 180.531 162.736 180.558 162.579 180.512C162.474 180.605 162.406 180.726 162.069 180.641L161.855 180.794C161.524 180.883 161.438 180.616 161.271 180.466L161.267 180.472C161.2 180.416 161.132 180.445 161.065 180.442C161.084 180.359 161.177 180.341 161.243 180.298C161.292 180.147 161.188 180.051 161.125 180.022L161.124 180.022C161.098 179.955 161.06 179.894 160.938 179.891C160.932 179.834 160.908 179.783 160.827 179.753C160.81 179.684 160.751 179.685 160.704 179.666C160.665 179.556 160.569 179.497 160.491 179.422C160.402 179.442 160.361 179.384 160.319 179.327L160.251 179.314L160.203 179.343C160.153 179.302 160.139 179.245 160.125 179.188L160.053 179.169L160.071 179.268C160.027 179.295 160.003 179.223 159.98 179.145L159.833 178.932C159.737 178.486 159.654 178.431 159.568 178.31C159.568 178.305 159.57 178.302 159.571 178.297C159.542 178.232 159.5 178.244 159.461 178.236C159.398 178.115 159.293 178.104 159.201 178.057L159.074 177.287L158.973 177.18L158.961 177.049H158.89C158.92 177.043 158.938 177.038 158.939 177.031L158.508 176.687L158.452 176.413L158.541 176.418L158.325 176.226L157.732 175.249L157.729 175.13C157.589 175.039 157.485 174.922 157.422 174.779L157.416 174.688L157.327 174.623L157.35 174.479L157.616 174.833C157.64 174.86 157.613 174.88 157.635 174.91C157.704 175.006 157.824 175.102 157.894 175.159C157.93 175.146 157.973 175.154 157.99 175.083L158.06 174.622L157.748 173.989C157.538 174.136 157.327 174.194 157.117 173.976L156.859 173.996C156.8 174.021 156.738 174.059 156.704 173.998L156.289 174.24L155.602 174.087C155.498 174.066 155.388 174.031 155.303 174.046C155.218 174.098 155.156 174.06 155.096 174.02C155.077 173.911 154.853 173.92 154.733 173.914C154.568 173.905 154.458 173.883 154.487 173.76C154.487 173.76 154.057 173.606 153.891 173.708C153.802 173.761 153.616 173.847 153.582 173.958C153.559 174.032 153.58 174.082 153.624 174.158C153.702 174.29 153.44 174.743 153.14 174.38C153.14 174.38 152.746 174.272 152.524 174.224C152.307 174.176 152.156 173.986 152.247 173.871C152.255 173.859 151.656 173.686 151.656 173.686C151.38 173.729 151.178 173.649 151.128 173.595C151.127 173.591 151.126 173.589 151.126 173.585C151.116 173.552 151.034 173.591 151.02 173.531C150.99 173.397 150.994 173.364 150.943 173.344C150.917 173.334 150.811 173.436 150.789 173.423C150.741 173.394 150.681 173.326 150.707 173.292C150.752 173.235 151.076 173.034 151.079 172.924C151.085 172.76 151.023 172.744 150.942 172.7C150.896 172.675 150.913 172.597 150.928 172.553C150.937 172.526 151.112 172.466 151.091 172.403C151.078 172.36 151.052 172.354 151.043 172.321C151.036 172.296 150.904 172.433 150.896 172.412C150.874 172.356 150.867 172.322 150.841 172.282C150.808 172.283 150.722 172.246 150.63 172.246C150.558 172.247 150.483 172.27 150.427 172.351C150.427 172.351 150.424 172.353 150.423 172.353C150.264 172.396 150.098 172.267 150.052 172.298C149.926 172.383 149.899 172.284 149.807 172.278C149.716 172.272 149.51 172.379 149.353 172.333C149.195 172.287 148.713 172.429 148.339 172.428C148.135 172.427 147.994 172.54 147.985 172.592C147.976 172.64 147.83 172.625 147.754 172.601C147.689 172.58 147.639 172.685 147.6 172.738C147.525 172.837 147.404 172.819 147.374 172.83C147.374 172.826 147.373 172.824 147.372 172.821C147.292 172.806 147.194 172.804 147.16 172.756C147.044 172.736 146.929 172.726 146.825 172.736C146.635 172.755 146.557 172.687 146.478 172.507C146.295 172.495 146.101 172.888 145.959 173.082C145.618 173.177 145.37 173.33 145.2 173.532C145.223 173.615 145.183 173.646 145.1 173.7C145.047 173.735 144.858 174.036 144.922 174.203C144.922 174.334 144.82 174.553 144.526 174.698C144.526 174.698 144.389 174.826 144.172 174.896C144.081 174.926 143.868 174.95 143.804 175.009H143.815C143.695 175.193 143.624 175.348 143.442 175.42C143.269 175.489 143.201 175.702 143.152 175.887L142.636 176.476C142.617 176.609 142.539 176.699 142.435 176.768C142.341 176.891 142.283 177.044 142.269 177.18L142.345 177.112L142.327 177.129L142.386 177.307C142.386 177.307 142.436 177.292 142.447 177.32C142.538 177.562 142.398 177.637 142.352 177.718L142.438 177.855L142.424 178.31L142.285 178.695C142.229 178.791 142.19 178.843 142.189 178.921C142.185 179.104 142.002 179.163 141.91 179.296C141.995 179.42 142.088 179.542 142.102 179.687L142.039 179.847C142.021 179.93 142.004 180.013 142.021 180.099L142.044 180.16C142.089 180.191 142.174 180.13 142.168 180.275C142.209 180.296 142.26 180.254 142.289 180.351C142.339 180.376 142.465 180.142 142.419 180.492L142.53 180.613C142.53 180.613 142.528 180.618 142.528 180.618C142.517 180.653 142.519 180.67 142.564 180.67C142.582 180.692 142.647 180.538 142.637 180.693L142.694 180.699C142.674 180.785 142.733 180.891 142.789 180.91C142.861 180.935 142.901 181.018 142.941 181.055L143.039 181.238L143.058 181.496Z" fill="black"/>
<path d="M161.192 193.815L152.53 188.48L143.861 193.815L147.169 185.18L138.5 179.837H149.213L152.53 171.194L155.839 179.837H166.552L157.883 185.18L161.192 193.815Z" fill="#FFD200" stroke="black" stroke-width="0.750085" stroke-linecap="round" stroke-linejoin="round"/>
<path d="M172.843 199.433C172.837 198.882 173.818 198.439 174.04 198.89C173.942 199.77 175.288 201.175 175.882 200.027C176.957 200.167 178.008 201.327 179.122 201.733C182.338 202.911 183.8 206.506 187.057 207.614C188.158 207.937 188.647 208.998 189.103 209.942C189.714 214.069 192.566 217.357 194.755 220.767C195.014 221.134 195.762 221.524 195.323 222.032C193.753 223.717 192.315 225.603 190.612 227.133C188.274 227.221 185.829 226.689 183.598 225.937C182.032 224.735 179.657 224.149 179.139 221.992C178.599 219.346 176.058 217.887 174.842 215.606C173.918 214.505 172.243 212.815 173.395 211.352C174.132 210.257 175.58 210.558 176.584 211.057C177.492 211.625 177.506 210.506 178.076 210.25C178.588 209.71 180.169 210.038 180.023 209.057C179.737 208.548 179.309 208.107 178.808 207.801C177.273 206.965 177.385 204.744 175.791 204.003C174.382 202.86 172.578 201.441 172.843 199.433ZM174.114 211.697C173.265 212.423 174.067 214.4 175.086 214.629C175.991 213.854 175.794 211.246 174.114 211.697ZM181.135 212.589C180.179 212.901 180.225 214.234 180.339 215.013C180.648 216.045 182.824 217.458 182.84 215.522C183.365 214.311 182.921 212.028 181.135 212.589Z" fill="black"/>
<path d="M174.032 198.89C174.818 198.838 175.28 199.635 175.874 200.027C175.28 201.175 173.934 199.77 174.032 198.89Z" fill="black"/>
<path d="M174.115 211.697C175.795 211.246 175.992 213.854 175.087 214.629C174.068 214.4 173.266 212.423 174.115 211.697Z" fill="black"/>
<path d="M175.084 214.629L175.19 214.531L175.325 214.357L175.469 214.073L175.541 213.833L175.599 213.513L175.621 213.144L175.601 212.854L175.524 212.499L175.411 212.223L175.248 211.98L175.043 211.807L174.891 211.73L174.684 211.658L174.413 211.647L174.112 211.697L173.979 211.837L173.882 212L173.797 212.215L173.758 212.433L173.763 212.741L173.794 212.981L173.852 213.191L173.935 213.447L174.048 213.682L174.159 213.894L174.305 214.087L174.524 214.324L174.725 214.47L175.084 214.629Z" fill="white" stroke="black" stroke-width="0.707558"/>
<path d="M175.881 200.027L175.746 200.236L175.613 200.365L175.478 200.434L175.318 200.459L175.218 200.462L175.127 200.446L175.002 200.399L174.864 200.333L174.743 200.255L174.616 200.151L174.505 200.032L174.397 199.903L174.298 199.759L174.206 199.594L174.137 199.442L174.09 199.307L174.049 199.122L174.041 199.009L174.039 198.891L174.162 198.891L174.298 198.899L174.419 198.927L174.56 198.985L174.704 199.059L174.878 199.166L174.997 199.26L175.132 199.382L175.323 199.558L175.533 199.751L175.716 199.908L175.881 200.027Z" fill="white" stroke="black" stroke-width="0.0707558"/>
<path d="M92.2256 254.58L93.3132 254.618L92.1644 255.631L91.2812 255.577L92.2256 254.58Z" fill="black"/>
<path d="M170.739 288.742L171.82 288.615L170.838 289.79L169.957 289.87L170.739 288.742Z" fill="black"/>
<path d="M133.186 256.689C133.707 256.689 134.129 256.268 134.129 255.748C134.129 255.228 133.707 254.807 133.186 254.807C132.665 254.807 132.242 255.228 132.242 255.748C132.242 256.268 132.665 256.689 133.186 256.689Z" fill="#BF9B30"/>
<path d="M133.557 274.111C134.078 274.111 134.5 273.689 134.5 273.17C134.5 272.65 134.078 272.229 133.557 272.229C133.036 272.229 132.613 272.65 132.613 273.17C132.613 273.689 133.036 274.111 133.557 274.111Z" fill="#BF9B30"/>
<path d="M172.26 257.099C172.781 257.099 173.203 256.678 173.203 256.158C173.203 255.638 172.781 255.217 172.26 255.217C171.739 255.217 171.316 255.638 171.316 256.158C171.316 256.678 171.739 257.099 172.26 257.099Z" fill="#BF9B30"/>
<path d="M172.631 274.521C173.152 274.521 173.574 274.1 173.574 273.58C173.574 273.06 173.152 272.639 172.631 272.639C172.11 272.639 171.688 273.06 171.688 273.58C171.688 274.1 172.11 274.521 172.631 274.521Z" fill="#BF9B30"/>
<path d="M160.5 245.44C160.5 245.96 160.922 246.381 161.443 246.381C161.964 246.381 162.387 245.96 162.387 245.44C162.387 244.921 161.964 244.499 161.443 244.499C160.922 244.499 160.5 244.921 160.5 245.44Z" fill="#BF9B30"/>
<path d="M143.367 245.32C143.367 245.84 143.79 246.261 144.311 246.261C144.832 246.261 145.254 245.84 145.254 245.32C145.254 244.8 144.832 244.379 144.311 244.379C143.79 244.379 143.367 244.8 143.367 245.32Z" fill="#BF9B30"/>
<path d="M160.422 283.596C160.422 284.116 160.844 284.537 161.365 284.537C161.886 284.537 162.309 284.116 162.309 283.596C162.309 283.076 161.886 282.655 161.365 282.655C160.844 282.655 160.422 283.076 160.422 283.596Z" fill="#BF9B30"/>
<path d="M143.457 283.64C143.457 284.16 143.879 284.581 144.4 284.581C144.921 284.581 145.344 284.16 145.344 283.64C145.344 283.121 144.921 282.699 144.4 282.699C143.879 282.699 143.457 283.121 143.457 283.64Z" fill="#BF9B30"/>
</g>
<defs>
<clipPath id="clip0_159_8582">
<rect width="300" height="300" fill="white"/>
</clipPath>
</defs>
</svg>
