<svg width="300" height="300" viewBox="0 0 300 300" fill="none" xmlns="http://www.w3.org/2000/svg">
<path d="M28.1417 2H272.257V178.938C270.735 189.875 269.734 200.954 266.196 211.483C254.004 251.119 220.443 283.228 180.258 293.475C173.154 295.632 165.556 295.519 158.537 298H152.786C145.231 296.886 137.521 297.338 130.022 295.717C110.571 292.63 92.2046 284.187 76.3756 272.586C55.1341 255.686 38.5581 232.316 31.9897 205.775C27.1128 189.016 28.0853 171.425 28.1699 154.186C28.2686 150.789 27.8598 147.406 27 144.108V142.487C27.6061 139.837 27.9726 137.159 28.1276 134.453C28.0994 90.3067 28.029 46.1463 28.1417 2Z" fill="#027FB8"/>
<path d="M220.352 35.1399L214.004 33.5727L210.624 39.1692L207.244 33.5727L200.897 35.1399L202.464 28.7924L196.867 25.4122L202.464 22.0321L200.897 15.6846L207.244 17.2518L210.624 11.6553L214.004 17.2518L220.352 15.6846L218.785 22.0321L224.381 25.4122L218.785 28.7924L220.352 35.1399Z" fill="white"/>
<path d="M90.0754 68.6868L77.6115 65.6094L70.9742 76.5988L64.3369 65.6094L51.8729 68.6868L54.9503 56.2228L43.9609 49.5855L54.9503 42.9482L51.8729 30.4843L64.3369 33.5616L70.9742 22.5723L77.6115 33.5616L90.0754 30.4843L86.9981 42.9482L97.9874 49.5855L86.9981 56.2228L90.0754 68.6868Z" fill="#FDFEFE"/>
<path d="M255.629 55.1198L249.282 53.5527L245.901 59.1492L242.521 53.5527L236.174 55.1198L237.741 48.7724L232.145 45.3922L237.741 42.012L236.174 35.6646L242.521 37.2318L245.901 31.6353L249.282 37.2318L255.629 35.6646L254.062 42.012L259.658 45.3922L254.062 48.7724L255.629 55.1198Z" fill="white"/>
<path d="M177.492 73.2605L171.145 71.6933L167.765 77.2898L164.385 71.6933L158.037 73.2605L159.604 66.913L154.008 63.5328L159.604 60.1527L158.037 53.8052L164.385 55.3724L167.765 49.7759L171.145 55.3724L177.492 53.8052L175.925 60.1527L181.522 63.5328L175.925 66.913L177.492 73.2605Z" fill="#FDFEFE"/>
<path d="M208.942 103.96L202.594 102.393L199.214 107.989L195.834 102.393L189.486 103.96L191.054 97.6122L185.457 94.2321L191.054 90.8519L189.486 84.5044L195.834 86.0716L199.214 80.4751L202.594 86.0716L208.942 84.5044L207.374 90.8519L212.971 94.2321L207.374 97.6122L208.942 103.96Z" fill="white"/>
<path d="M41.1616 117.468C50.3658 111.013 62.6146 110.801 73.0591 114.029C66.1384 114.494 57.4134 114.748 53.3258 121.387C50.7464 124.911 52.7338 129.9 56.0321 132.226C59.866 136.074 65.6451 136.624 70.7616 135.905C78.4012 134.636 85.0824 130.168 90.2131 124.516C96.274 119.258 103.096 112.972 111.666 113.352C115.88 113.31 119.32 116.115 122.054 119.019C116.938 119.131 110.087 117.567 106.803 122.655C102.786 127.546 106.817 135.158 112.681 136.13C121.448 137.822 130.244 133.072 136.107 126.799C141.21 121.781 146.072 114.917 153.867 114.452C158.589 113.789 162.634 116.482 166.186 119.174C161.493 119.639 156.01 119.568 152.599 123.445C149.864 125.813 149.454 130.025 150.865 132.903C152.295 135.82 155.939 137.695 159.519 137.385C171.43 136.469 180.535 127.842 188.866 120.146C194.292 115.143 202.157 115.875 208.627 118.103C203.158 119.681 197.083 121.753 194.729 127.504C193.207 132.451 198.704 135.905 203.074 134.975C212.278 133.621 220.072 127.631 226.176 120.907C229.361 117.341 233.125 113.55 238.227 113.367C242.54 112.704 246.318 115.128 249.968 117.017C245.275 118.525 239.753 119.418 236.832 123.529C234.83 126.347 236.268 130.351 240.06 131.296C247.502 132.705 255.526 129.676 261.442 125.066C264.088 123.004 264.67 119.033 267.757 117.651C268.123 118.018 268.842 118.751 269.194 119.117C269.8 126.842 269.208 134.608 269.434 142.346C265.205 146.49 260.596 150.451 254.986 152.565C250.208 154.511 244.584 156.54 242.188 161.459C242.963 177.26 242.385 193.611 236.451 208.509C233.759 214.655 230.263 221.632 223.216 223.479C222.44 218.559 224.497 213.8 225.104 209.059C225.226 208.109 224.143 206.67 222.539 206.24C219.284 205.368 215.553 205.319 212.475 207.086C205.757 210.943 202.214 218.165 197.337 223.859C194.856 219.25 198.175 210.37 193.334 209.073C183.873 206.538 167.467 213.995 164.213 226.495C158.304 249.195 157.983 272.868 158.053 296.154C156.179 296.125 154.304 296.097 152.444 296.069C152.951 271.304 153.783 246.496 152.119 221.773C151.302 217.15 151.711 211.54 147.412 208.509C143.084 213.866 143.888 221.096 142.831 227.496C141.773 250.104 141.83 272.755 142.365 295.378C141.252 295.407 139.025 295.463 137.911 295.477C138.757 281.819 139.885 268.128 138.856 254.446C138.053 243.77 137.357 232.313 131.23 223.225C122.947 210.938 107.437 204.831 92.8207 206.141C95.1182 210.624 98.8252 215.487 96.5559 220.758C90.0157 218.151 87.4504 211.089 84.1944 205.423C80.9948 198.135 71.5087 198.953 64.8557 199.15C66.4062 205.888 68.887 212.456 69.4085 219.405C58.5411 216.262 52.1089 204.413 51.0001 193.822C49.3732 178.283 51.0901 157.646 42.0393 148.058C38.8395 144.668 33.4515 144.235 28.7578 143.967C29.9982 134.199 32.93 123.67 41.1616 117.468Z" fill="#FDFEFE"/>
<path d="M146.146 139.725C150.092 143.107 153.828 147.463 154.095 152.89C154.786 159.782 151.798 166.858 146.301 171.101C140.705 161.953 136.35 147.717 146.146 139.725Z" fill="#027FB8"/>
<path d="M59.5501 162.559C59.1413 158.499 64.3425 156.442 67.3729 158.626C74.2373 163.968 77.5074 172.567 79.5089 180.756C80.2137 184.195 81.3272 188.931 77.3946 190.876C71.6297 190.904 66.6964 187.226 61.8194 184.576C60.8609 177.26 59.4232 169.945 59.5501 162.559Z" fill="#027FB8"/>
<path d="M219.889 166.675C222.539 163.348 225.499 159.388 230.038 158.824C234.887 159.782 234.534 165.942 234.182 169.733C232.73 180.15 229.742 190.439 224.95 199.827C218.297 199.615 211.63 199.756 204.977 199.573C208.909 188.184 213.406 176.88 219.889 166.675Z" fill="#027FB8"/>
<path d="M82.5781 159.754C89.0619 160.726 95.9263 161.657 101.142 166.012C109.655 172.679 115.843 182.222 119.465 192.342C120.367 196.049 121.467 202.406 116.872 203.942C112.615 202.265 110.036 197.938 105.708 196.331C101.846 195.274 97.7869 195.344 93.812 195.119C93.2623 194.583 92.1488 193.512 91.5991 192.976C90.1614 181.503 85.7636 170.776 82.5781 159.754Z" fill="#027FB8"/>
<path d="M193.706 165.773C199.95 161.727 207.533 160.769 214.835 160.966C211.128 166.195 207.829 171.735 205.447 177.711C202.783 184.237 201.825 191.341 199.147 197.867C198.484 199.559 197.216 200.982 195.623 201.856C188.11 204.309 180.231 205.916 172.309 205.183C171.492 203.379 170.378 201.462 171.125 199.404C172.831 192.554 176.411 186.352 180.203 180.474C184.051 175.047 187.715 169.085 193.706 165.773Z" fill="#027FB8"/>
<path d="M148.301 174.216C152.05 167.704 159.365 164.053 166.216 161.615C164.552 170.579 161.409 180.277 153.77 185.957C150.133 183.293 145.848 179.149 148.301 174.216Z" fill="#027FB8"/>
<path d="M125.227 163.503C133.134 165.646 141.605 169.071 146.44 176.034C149.033 180.671 144.96 184.998 141.239 187.31C132.528 182.222 129.075 172.242 125.227 163.503Z" fill="#027FB8"/>
<path d="M156.933 188.48C161.514 182.997 166.433 177.726 172.24 173.525C170.464 183.124 170.887 194.457 163.628 201.913C160.823 205.564 155.086 203.167 153.536 199.573C151.971 195.584 154.706 191.609 156.933 188.48Z" fill="#027FB8"/>
<path d="M124.07 184.364C132.387 185.717 141.774 187.775 147.172 194.837C150.231 199.446 145.425 204.591 141.126 206.141C131.95 202.773 127.594 192.779 124.07 184.364Z" fill="#027FB8"/>
</svg>
