<svg width="300" height="300" viewBox="0 0 300 300" fill="none" xmlns="http://www.w3.org/2000/svg">
<path d="M171.129 0C175.374 1.06076 178.135 1.85339 182.179 4.2506C186.224 6.64779 188.85 10.5783 189.842 13.0205C190.834 15.4628 192.03 18.0789 194.058 20.0693L194.421 22.7035C194.421 22.7035 191.783 20.5638 186.978 18.9085C182.174 17.2532 178.884 12.984 177.248 9.74395C175.611 6.50391 175.021 3.29705 171.129 0ZM165.094 5.32372C166.068 5.33817 167.124 5.48723 168.265 5.83646C172.832 7.2334 174.6 10.2107 176.498 12.037L153.705 8.44019C153.705 8.44019 156.066 8.05897 158.296 7.14404C159.968 6.45784 162.17 5.28044 165.094 5.32372ZM191.982 9.62197C196.255 13.4652 198.415 13.7197 202.943 16.9757C207.471 20.2316 209.431 22.7617 211.078 28.1416C212.725 33.5215 214.427 34.6846 216.614 37.2489L216.786 40.1824C216.786 40.1824 212.875 36.4061 207.371 33.9475C201.867 31.489 199.27 28.2176 197.197 23.0123C195.124 17.8069 195.461 15.1781 191.982 9.62197ZM213.332 24.9641C218.65 29.748 221.571 30.5229 226.283 33.4253C230.996 36.3277 234.821 41.5486 236.871 48.2452C238.921 54.9417 236.784 56.3552 241.515 64.8663L238.847 65.7393C238.847 65.7393 237.148 61.1728 231.603 56.8112C226.058 52.4494 222.657 49.5538 219.592 41.8598C216.528 34.1657 218.816 32.5704 213.332 24.9641ZM240.918 49.8215C244.986 56.0477 248.327 55.7874 253.319 61.0446C258.312 66.3018 260.488 73.1945 260.72 79.4994C260.953 85.8043 258.986 88.4862 260.416 98.0438L256.447 97.8818C256.447 97.8818 255.751 91.3387 252.076 86.4528C248.401 81.5669 245.063 75.9093 243.47 68.202C241.877 60.4946 243.622 57.6 240.918 49.8215ZM268.953 77.3188C270.895 85.5426 273.168 88.7194 275.246 93.4616C277.325 98.2038 278.653 107.879 276.122 115.77C273.591 123.662 270.811 123.779 269.663 135.236L266.221 134.119C266.221 134.119 267.653 128.535 265.206 120.57C262.758 112.605 261.163 107.235 262.604 97.2566C264.045 87.2779 268.835 86.679 268.953 77.3188ZM282.97 116.634C283.322 126.488 285.203 130.639 286.503 136.537C287.803 142.436 287.12 153.812 282.427 162.275C277.734 170.738 274.526 170.243 270.604 183.1L266.918 181.043C266.918 181.043 269.828 174.974 268.838 165.302C267.849 155.63 267.244 149.123 271.164 138.024C275.085 126.925 280.705 127.323 282.97 116.634ZM288.087 166.513C289.483 172.706 289.026 180.219 288.355 186.222C287.684 192.224 283.695 202.687 275.694 209.949C267.693 217.211 264.643 215.454 257.79 224.229L255.468 219.615C255.468 219.615 260.585 216.87 262.767 207.395C264.949 197.919 266 192.962 273.292 183.708C280.583 174.453 284.847 174.753 288.087 166.513ZM286.654 207.804C286.352 216.264 285.206 220.229 282.456 225.611C279.705 230.993 271.015 239.749 260.959 243.736C250.904 247.724 245.107 247.025 238.849 250.143L239.011 246.113C239.011 246.113 242.923 244.292 247.829 237.478C252.736 230.665 257.859 225.263 267.155 220.537C276.451 215.812 279.756 215.418 286.654 207.804ZM247.447 251.04C257.602 251.07 263.38 253.293 272.629 251.869C264.564 256.287 264.228 257.67 258.419 261.789C252.61 265.908 242.567 268.145 231.222 266.802C219.777 265.447 214.299 268.618 214.299 268.618L213.142 266.139C213.142 266.139 217.707 261.957 223.866 258.602C230.024 255.246 237.292 251.011 247.447 251.04ZM215.445 270.012C217.351 270.022 219.318 270.132 221.365 270.357C232.285 271.557 235.284 273.419 245.222 270.829C235.028 274.825 235.268 277.034 226.72 281.469C218.171 285.904 204.207 286.78 196.979 285.542C184.808 283.458 178.357 279.645 172.173 282.685C166.54 285.455 140.301 296.757 135.539 299.16H121.883C121.883 299.16 160.239 282.504 166.417 279.872C172.596 277.24 183.27 277.104 192.545 274.174C200.08 271.794 207.188 269.969 215.445 270.012Z" fill="#0C7739"/>
<path d="M153.707 8.44019C153.707 8.44019 156.281 8.89565 162.032 8.52597C167.782 8.15628 176.5 12.037 176.5 12.037C172.048 13.8854 164.97 13.5083 161.031 11.8216C157.934 10.4955 153.707 8.44019 153.707 8.44019ZM161.683 15.5728C165.735 16.6616 170.506 15.2758 175.821 16.3981C181.388 17.5735 184.118 20.1614 187.532 22.0916C190.945 24.0218 194.617 25.3034 194.617 25.3034L194.666 27.5469C194.666 27.5469 191.144 26.0492 185.116 26.2069C179.14 26.3632 175.788 25.9018 171.749 24.3027C167.709 22.7037 163.885 17.9548 161.683 15.5728ZM176.319 28.7839C183.198 30.9749 186.754 29.3473 192.853 30.9302C199.241 32.5879 203.146 35.3416 206.999 37.7597C210.851 40.1778 216.718 42.7956 216.718 42.7956L216.031 44.9381C216.031 44.9381 210.318 42.7215 203.324 42.5841C196.391 42.4478 192.533 41.7372 187.937 39.6696C183.341 37.602 179.914 33.0522 176.319 28.7839ZM195.958 44.3853C204.937 45.8066 208.226 44.4888 215.748 48.0469C223.625 51.7732 226.725 57.8069 231.123 61.8947C235.522 65.9826 239.63 68.791 239.63 68.791L237.634 71.7912C237.634 71.7912 234.612 66.9943 225.57 65.0912C216.608 63.2049 212.349 60.9424 208.332 56.1555C204.315 51.3685 200.287 45.7279 195.958 44.3853ZM219.449 65.6936C228.338 70.0579 232.575 70.6792 238.834 75.6567C245.88 81.2603 249.121 86.5172 251.33 92.2436C253.54 97.97 256.191 102.748 256.191 102.748L254.192 103.791C254.192 103.791 251.296 98.4796 243.754 95.1446C236.277 91.839 232.506 87.8149 229.405 83.0581C226.305 78.3013 223.411 67.9081 219.449 65.6936ZM231.818 91.8395C240.959 99.6366 244.402 97.7966 251.237 104.244C258.749 111.331 260.879 118.053 261.91 125.244C262.941 132.435 264.736 138.646 264.736 138.646L262.151 139.324C262.151 139.324 261.194 132.336 253.373 126.5C245.621 120.715 241.359 115.173 239.042 108.867C236.726 102.56 235.803 95.4391 231.818 91.8395ZM239.997 119.289C248.049 129.326 252.045 128.078 257.941 136.232C264.422 145.196 265.558 153.234 265.394 161.126C265.229 169.018 265.744 175.145 265.744 175.145L262.886 175.342C262.886 175.342 262.764 167.795 255.707 160.087C248.712 152.447 245.34 145.759 244.173 138.657C243.005 131.555 243.467 123.876 239.997 119.289ZM243.241 148.184C250.03 159.495 255.855 163.056 259.536 171.305C263.583 180.372 262.759 191.162 260.709 198.278C258.659 205.393 258.387 210.141 258.387 210.141L254.408 211.548C254.408 211.548 256.046 202.239 250.764 193.331C245.528 184.502 243.49 175.651 243.836 167.736C244.182 159.822 245.945 153.904 243.241 148.184ZM243.008 182.175C245.894 192.379 250.994 197.479 251.977 208.498C253.058 220.611 247.508 229.135 243.256 235.206C239.005 241.277 237.702 245.85 237.702 245.85L232.814 246.224C232.814 246.224 238.445 239.893 236.11 228.646C233.796 217.497 234.321 208.245 237.22 200.868C240.119 193.492 243.707 188.459 243.008 182.175ZM232.866 213.525C232.201 222.619 233.946 230.199 231.709 238.62C229.249 247.877 222.769 255.25 216.697 259.515C210.624 263.78 207.836 267.637 207.836 267.637C207.836 267.637 205.737 266.852 203.114 266.329C203.114 266.329 210.57 262.287 212.219 250.92C213.853 239.653 218.215 230.649 223.711 226.124C229.207 221.599 231.584 218.81 232.866 213.525ZM213.365 240.395C210.771 243.508 210.986 246.617 208.6 254.288C206.213 261.96 197.625 271.767 188.35 274.697C179.076 277.627 174.557 277.24 168.379 279.872C162.2 282.504 124.852 299.16 124.852 299.16H114.395C119.157 296.757 159.123 279.538 164.756 276.769C170.939 273.728 173.334 269.512 178.712 263.622C183.149 258.763 192.773 250.918 198.383 248.008C203.993 245.097 209.715 243.3 213.365 240.395Z" fill="#98BA3B"/>
<path d="M129.869 0C125.624 1.06076 122.863 1.85339 118.819 4.2506C114.774 6.64779 112.148 10.5782 111.156 13.0205C110.164 15.4628 108.968 18.0789 106.94 20.0693L106.577 22.7035C106.577 22.7035 109.215 20.5638 114.019 18.9085C118.824 17.2532 122.113 12.984 123.75 9.74396C125.387 6.50392 125.977 3.29705 129.869 0ZM135.904 5.32372C134.93 5.33817 133.874 5.48722 132.733 5.83647C128.166 7.2334 126.398 10.2107 124.5 12.037L147.293 8.44019C147.293 8.44019 144.932 8.05897 142.702 7.14404C141.03 6.45784 138.827 5.28044 135.904 5.32372ZM109.015 9.62197C104.743 13.4652 102.583 13.7197 98.0548 16.9757C93.5271 20.2316 91.5667 22.7617 89.9195 28.1416C88.2725 33.5215 86.5713 34.6846 84.3838 37.2489L84.2117 40.1824C84.2117 40.1824 88.1228 36.4061 93.6267 33.9476C99.1306 31.489 101.728 28.2176 103.801 23.0123C105.874 17.8069 105.536 15.1781 109.015 9.62197ZM87.6662 24.9641C82.3479 29.748 79.4267 30.5229 74.7144 33.4253C70.0022 36.3277 66.1772 41.5486 64.1269 48.2452C62.0767 54.9417 64.2138 56.3552 59.4825 64.8663L62.1509 65.7393C62.1509 65.7393 63.8499 61.1728 69.3949 56.8112C74.9396 52.4494 78.3412 49.5538 81.4055 41.8598C84.4698 34.1657 82.1814 32.5704 87.6662 24.9641ZM60.0793 49.8215C56.0115 56.0477 52.6706 55.7874 47.6784 61.0446C42.6863 66.3018 40.5102 73.1945 40.2777 79.4994C40.0452 85.8043 42.0115 88.4863 40.5818 98.0438L44.551 97.8818C44.551 97.8818 45.2469 91.3387 48.9218 86.4528C52.5964 81.5669 55.9345 75.9094 57.5276 68.202C59.1207 60.4946 57.3754 57.6 60.0793 49.8215ZM32.0448 77.3188C30.1031 85.5426 27.8299 88.7194 25.7516 93.4616C23.6733 98.2038 22.3448 107.879 24.8755 115.77C27.4064 123.662 30.1867 123.779 31.3352 135.236L34.7764 134.119C34.7764 134.119 33.3445 128.535 35.7921 120.57C38.2394 112.605 39.8343 107.235 38.3936 97.2566C36.9527 87.2779 32.1628 86.679 32.0448 77.3188ZM18.0276 116.634C17.6761 126.488 15.7948 130.639 14.4946 136.537C13.1944 142.436 13.8775 153.812 18.5708 162.275C23.2642 170.738 26.4721 170.243 30.3941 183.1L34.0801 181.043C34.0801 181.043 31.17 174.974 32.1596 165.302C33.1492 155.63 33.7539 149.123 29.8336 138.024C25.9133 126.925 20.2927 127.323 18.0276 116.634ZM12.9108 166.513C11.5146 172.706 11.9718 180.219 12.643 186.222C13.3141 192.224 17.303 202.687 25.304 209.949C33.305 217.211 36.355 215.454 43.2081 224.229L45.5303 219.615C45.5303 219.615 40.4131 216.87 38.2309 207.395C36.0488 197.919 34.9983 192.962 27.7065 183.708C20.4147 174.453 16.1505 174.753 12.9108 166.513ZM14.3435 207.804C14.6459 216.264 15.7919 220.229 18.5421 225.611C21.2924 230.993 29.983 239.749 40.0386 243.736C50.0941 247.724 55.8909 247.025 62.149 250.143L61.9864 246.113C61.9864 246.113 58.0745 244.292 53.1682 237.478C48.2618 230.665 43.139 225.263 33.8428 220.537C24.5466 215.812 21.2421 215.418 14.3435 207.804ZM53.5508 251.04C43.3954 251.071 37.618 253.293 28.3684 251.869C36.434 256.287 36.7703 257.67 42.5788 261.789C48.3874 265.908 58.4307 268.145 69.7755 266.802C81.2205 265.447 86.6983 268.618 86.6983 268.618L87.8556 266.139C87.8556 266.139 83.2912 261.957 77.1323 258.602C70.9733 255.246 63.7063 251.011 53.5508 251.04ZM85.5526 270.012C83.647 270.022 81.6797 270.132 79.6324 270.357C68.7129 271.558 65.7142 273.419 55.7755 270.829C65.9703 274.825 65.7302 277.034 74.2783 281.469C82.8264 285.904 96.7911 286.781 104.019 285.543C116.19 283.458 122.641 279.645 128.825 282.685C134.458 285.455 160.697 296.757 165.459 299.16H179.115C179.115 299.16 140.759 282.504 134.58 279.872C128.402 277.24 117.727 277.104 108.453 274.175C100.918 271.794 93.8098 269.969 85.5526 270.012Z" fill="#98BA3B"/>
<path d="M147.295 8.44019C147.295 8.44019 144.72 8.89565 138.97 8.52597C133.219 8.15628 124.501 12.037 124.501 12.037C128.953 13.8854 136.031 13.5083 139.97 11.8216C143.067 10.4955 147.295 8.44019 147.295 8.44019ZM139.318 15.5728C135.266 16.6616 130.495 15.2758 125.18 16.3981C119.614 17.5735 116.883 20.1614 113.47 22.0916C110.056 24.0218 106.385 25.3034 106.385 25.3034L106.335 27.5469C106.335 27.5469 109.858 26.0492 115.886 26.2069C121.861 26.3632 125.213 25.9018 129.253 24.3027C133.292 22.7037 137.116 17.9548 139.318 15.5728ZM124.683 28.7839C117.804 30.9749 114.248 29.3473 108.148 30.9302C101.761 32.5879 97.8554 35.3416 94.003 37.7597C90.1505 40.1778 84.2839 42.7956 84.2839 42.7956L84.9706 44.9381C84.9706 44.9381 90.6836 42.7215 97.6775 42.5841C104.61 42.4478 108.469 41.7372 113.064 39.6696C117.66 37.602 121.087 33.0522 124.683 28.7839ZM105.044 44.3853C96.0646 45.8066 92.7755 44.4888 85.2537 48.0469C77.3764 51.7732 74.2769 57.8069 69.8783 61.8947C65.4797 65.9826 61.372 68.791 61.372 68.791L63.367 71.7912C63.367 71.7912 66.3897 66.9943 75.4312 65.0912C84.3936 63.2049 88.6527 60.9424 92.6698 56.1555C96.6868 51.3685 100.715 45.7279 105.044 44.3853ZM81.5523 65.6936C72.6638 70.0579 68.4266 70.6792 62.1677 75.6567C55.1216 81.2603 51.8804 86.5172 49.6711 92.2436C47.4618 97.97 44.8106 102.748 44.8106 102.748L46.8095 103.791C46.8095 103.791 49.7052 98.4796 57.2479 95.1446C64.7244 91.839 68.4959 87.8149 71.596 83.0581C74.6962 78.3013 77.5902 67.9081 81.5523 65.6936ZM69.1839 91.8395C60.042 99.6366 56.5996 97.7966 49.7648 104.244C42.2523 111.331 40.1221 118.053 39.0912 125.244C38.0604 132.435 36.266 138.646 36.266 138.646L38.8502 139.324C38.8502 139.324 39.8072 132.336 47.6282 126.5C55.3807 120.715 59.6428 115.173 61.9592 108.867C64.2755 102.56 65.1983 95.4391 69.1839 91.8395ZM61.0047 119.289C52.9521 129.326 48.9561 128.078 43.0604 136.232C36.58 145.196 35.4438 153.234 35.608 161.126C35.7719 169.018 35.2578 175.145 35.2578 175.145L38.1156 175.342C38.1156 175.342 38.2375 167.795 45.2944 160.087C52.2898 152.447 55.6611 145.759 56.8288 138.657C57.9966 131.555 57.5343 123.876 61.0047 119.289ZM57.7605 148.184C50.9717 159.495 45.1462 163.056 41.4651 171.305C37.4188 180.372 38.2427 191.162 40.2925 198.278C42.3423 205.393 42.6147 210.141 42.6147 210.141L46.5934 211.548C46.5934 211.548 44.9552 202.239 50.2373 193.331C55.4731 184.502 57.5114 175.651 57.1656 167.736C56.8199 159.822 55.057 153.904 57.7605 148.184ZM57.9941 182.175C55.1076 192.379 50.0079 197.479 49.0248 208.498C47.9441 220.611 53.4937 229.135 57.7454 235.206C61.9971 241.277 63.3002 245.85 63.3002 245.85L68.1876 246.224C68.1876 246.224 62.5573 239.893 64.8917 228.646C67.2057 217.497 66.6813 208.245 63.7823 200.868C60.8833 193.492 57.295 188.459 57.9941 182.175ZM68.1359 213.525C68.8011 222.619 67.0555 230.199 69.2932 238.62C71.7527 247.877 78.2327 255.25 84.3051 259.515C90.3774 263.78 93.1653 267.637 93.1653 267.637C93.1653 267.637 95.2648 266.852 97.8881 266.329C97.8881 266.329 90.4318 262.287 88.783 250.92C87.1487 239.653 82.7869 230.649 77.2907 226.124C71.7945 221.599 69.4177 218.81 68.1359 213.525ZM87.6372 240.395C90.2307 243.508 90.0154 246.617 92.4021 254.288C94.7888 261.96 103.377 271.767 112.651 274.697C121.926 277.627 126.445 277.24 132.623 279.872C138.802 282.504 176.15 299.16 176.15 299.16H186.607C181.845 296.757 141.879 279.538 136.246 276.769C130.062 273.728 127.667 269.512 122.29 263.622C117.853 258.763 108.229 250.918 102.619 248.008C97.0086 245.097 91.287 243.3 87.6372 240.395Z" fill="#0C7739"/>
<path d="M150.497 16.264L155.808 32.6121L172.997 32.6117L159.091 42.7149L164.403 59.0627L150.497 48.9587L136.591 59.0627L141.903 42.7149L127.996 32.6117L145.185 32.6121L150.497 16.264Z" fill="#D40000"/>
<path d="M146.136 111.454L146.136 242.383C144.37 243.711 143.223 245.818 143.223 248.198C143.223 252.219 146.482 255.478 150.503 255.478C154.524 255.478 157.785 252.219 157.785 248.198C157.785 245.819 156.637 243.713 154.872 242.385L154.872 111.454H146.136Z" fill="#734215"/>
<path d="M150.504 109.495L150.504 240.918C152.146 240.918 153.655 241.468 154.873 242.385L154.873 111.454L150.504 109.495Z" fill="#4E2705"/>
<path d="M148.547 111.454H154.874V100.628C156.602 99.7636 161.48 94.3429 158.672 84.1042C155.044 70.8717 150.506 56.7548 150.506 56.7548L148.547 111.454Z" fill="#38699E"/>
<path d="M150.504 56.7548C150.504 56.7548 145.965 70.8717 142.337 84.1042C139.53 94.3429 144.407 99.7636 146.136 100.628V111.454H150.504V56.7548Z" fill="#7BB1C7"/>
<path d="M150.498 126.424C129.595 126.424 112.649 143.37 112.649 164.274C112.649 185.177 129.595 202.123 150.498 202.123C171.402 202.123 188.348 185.177 188.348 164.274C188.348 143.37 171.402 126.424 150.498 126.424Z" fill="#D1963B" stroke="#734215" stroke-width="0.554" stroke-linecap="round"/>
<path d="M150.498 134.03C133.795 134.03 120.254 147.57 120.254 164.273C120.254 180.977 133.795 194.517 150.498 194.517C167.202 194.517 180.742 180.977 180.742 164.273C180.742 147.57 167.202 134.03 150.498 134.03Z" stroke="#734215" stroke-width="0.554" stroke-linecap="round"/>
<path d="M151.102 199.285L150.781 195.592H150.209L149.888 199.285H151.102ZM150.969 191.652L150.494 171.282L150.021 191.652H150.969ZM150.494 157.262L150.969 136.892H150.021L150.494 157.262ZM150.781 132.952L151.102 129.258H149.888L150.209 132.952H150.781Z" fill="#734215"/>
<path d="M115.481 164.878L119.175 164.558V163.986L115.481 163.665V164.878ZM123.114 164.746L143.484 164.271L123.114 163.797V164.746ZM157.504 164.271L177.874 164.746V163.797L157.504 164.271ZM181.814 164.558L185.508 164.878V163.665L181.814 163.986V164.558Z" fill="#734215"/>
<path d="M126.163 189.459L128.548 186.621L128.144 186.216L125.305 188.601L126.163 189.459ZM131.467 183.968L145.535 169.228L130.797 183.297L131.467 183.968ZM155.449 159.314L170.188 145.247L169.518 144.576L155.449 159.314ZM172.841 142.328L175.68 139.943L174.822 139.085L172.437 141.923L172.841 142.328Z" fill="#734215"/>
<path d="M125.305 139.943L128.144 142.328L128.548 141.923L126.163 139.085L125.305 139.943ZM130.797 145.247L145.536 159.314L131.467 144.576L130.797 145.247ZM155.45 169.228L169.518 183.968L170.188 183.297L155.45 169.228ZM172.437 186.621L174.822 189.459L175.68 188.601L172.841 186.216L172.437 186.621Z" fill="#734215"/>
<path d="M133.514 194.898L135.083 191.539L134.588 191.253L132.463 194.291L133.514 194.898ZM137.216 188.221L146.99 170.343L136.395 187.747L137.216 188.221ZM154 158.201L164.596 140.798L163.774 140.323L154 158.201ZM166.403 137.291L168.527 134.253L167.477 133.646L165.907 137.005L166.403 137.291Z" fill="#734215"/>
<path d="M119.869 147.291L123.229 148.86L123.515 148.364L120.476 146.24L119.869 147.291ZM126.546 150.993L144.425 160.766L127.021 150.171L126.546 150.993ZM156.567 167.776L173.97 178.373L174.444 177.551L156.567 167.776ZM177.476 180.18L180.514 182.304L181.121 181.253L177.762 179.684L177.476 180.18Z" fill="#734215"/>
<path d="M116.832 173.92L120.317 172.654L120.169 172.102L116.518 172.748L116.832 173.92ZM124.171 171.817L143.724 166.086L123.925 170.9L124.171 171.817ZM157.266 162.457L177.065 157.644L176.819 156.727L157.266 162.457ZM180.822 156.442L184.473 155.796L184.159 154.624L180.674 155.89L180.822 156.442Z" fill="#734215"/>
<path d="M140.844 130.609L142.11 134.094L142.663 133.946L142.016 130.295L140.844 130.609ZM142.948 137.948L148.679 157.501L143.864 137.702L142.948 137.948ZM152.308 171.043L157.121 190.842L158.037 190.596L152.308 171.043ZM158.322 194.599L158.969 198.249L160.141 197.935L158.875 194.45L158.322 194.599Z" fill="#734215"/>
<path d="M120.476 182.304L123.515 180.18L123.229 179.684L119.869 181.253L120.476 182.304ZM127.021 178.373L144.424 167.776L126.546 177.551L127.021 178.373ZM156.566 160.766L174.444 150.993L173.97 150.171L156.566 160.766ZM177.762 148.86L181.121 147.291L180.514 146.24L177.476 148.364L177.762 148.86Z" fill="#734215"/>
<path d="M132.463 134.253L134.588 137.291L135.083 137.005L133.514 133.646L132.463 134.253ZM136.395 140.798L146.991 158.201L137.216 140.323L136.395 140.798ZM154.001 170.343L163.774 188.221L164.596 187.747L154.001 170.343ZM165.907 191.539L167.477 194.898L168.527 194.291L166.403 191.253L165.907 191.539Z" fill="#734215"/>
<path d="M116.518 155.796L120.169 156.442L120.317 155.89L116.832 154.624L116.518 155.796ZM123.926 157.644L143.724 162.457L124.171 156.727L123.926 157.644ZM157.267 166.086L176.819 171.817L177.065 170.9L157.267 166.086ZM180.674 172.654L184.159 173.92L184.473 172.748L180.822 172.102L180.674 172.654Z" fill="#734215"/>
<path d="M158.969 130.295L158.322 133.945L158.875 134.094L160.141 130.609L158.969 130.295ZM157.121 137.702L152.308 157.501L158.037 137.948L157.121 137.702ZM148.679 171.043L142.948 190.596L143.864 190.842L148.679 171.043ZM142.11 194.45L140.845 197.935L142.016 198.249L142.663 194.599L142.11 194.45Z" fill="#734215"/>
<path d="M150.498 157.549C146.784 157.549 143.773 160.559 143.773 164.274C143.773 167.988 146.784 170.999 150.498 170.999C154.212 170.999 157.223 167.988 157.223 164.274C157.223 160.559 154.212 157.549 150.498 157.549Z" stroke="#734215" stroke-width="0.554" stroke-linecap="round"/>
<path d="M150.496 128.371C130.667 128.371 114.593 144.445 114.593 164.274C114.593 184.102 130.667 200.176 150.496 200.176C170.324 200.176 186.398 184.102 186.398 164.274C186.398 144.445 170.324 128.371 150.496 128.371Z" stroke="#734215" stroke-width="0.554" stroke-linecap="round"/>
<path d="M150.494 160.365C148.336 160.365 146.586 162.115 146.586 164.274C146.586 166.432 148.336 168.182 150.494 168.182C152.653 168.182 154.402 166.432 154.402 164.274C154.402 162.115 152.653 160.365 150.494 160.365Z" stroke="#734215" stroke-width="0.554" stroke-linecap="round"/>
<path d="M87.0563 191.109L84.6758 70.3505C84.6758 70.3505 101.037 103.332 107.01 118.394C112.983 133.456 111.165 149.557 108.827 160.984C106.49 172.411 101.775 185.165 101.037 194.744L87.0563 191.109Z" fill="#7BB1C7"/>
<path d="M107.229 231.967H85.2852C85.2852 231.967 87.6235 227.943 88.1423 223.268L89.5701 219.459L100.088 219.589L101.987 223.855C101.987 223.855 104.113 227.812 107.229 231.967Z" fill="#4E2705"/>
<path d="M93.0971 191.6L91.3711 111.542C91.3711 111.542 99.5528 124.407 102.729 132.418C105.906 140.428 105.341 151.192 103.696 159.223C102.051 167.255 98.8628 179.595 98.5734 193.024L93.0971 191.6Z" fill="#38699E"/>
<path d="M142.201 235.73V209.287C142.201 209.287 130.082 210.572 119.431 206.349C119.431 206.349 115.942 202.493 112.269 197.718C108.597 192.944 107.404 193.029 103.427 192.156C100.334 191.477 94.243 190.416 92.2953 190.027C90.3475 189.637 88.6595 190.416 88.6595 190.416C88.6595 190.416 85.4133 190.936 84.2447 190.936C83.0761 190.936 83.2059 191.974 83.5955 192.364C83.5955 192.364 83.3358 194.182 85.2835 195.48C85.2835 195.48 83.3358 196.389 83.0761 198.986C82.8164 201.583 84.3746 203.271 84.3746 203.271C84.3746 203.271 82.8164 204.44 82.8164 207.167C82.8164 209.893 84.6343 211.192 84.6343 211.192C84.6343 211.192 83.5955 212.49 83.7253 214.698C83.8552 216.905 85.2835 217.684 85.2835 217.684C85.2835 217.684 84.6343 219.502 85.2835 221.06C85.9327 222.618 86.582 223.008 88.1402 223.268C89.6983 223.527 91.1266 222.878 93.9833 223.268C96.8399 223.657 98.8641 222.111 99.5986 220.458C99.5986 220.458 100.609 222.019 101.986 223.855C101.986 223.855 106.301 224.039 108.872 223.855C111.443 223.672 112.867 222.576 112.867 222.576C112.867 222.576 119.614 224.223 126.776 227.895C133.938 231.568 142.201 235.73 142.201 235.73Z" fill="#734215"/>
<path d="M89.5287 191.505C89.5287 191.505 88.6683 192.299 86.1315 192.332C84.703 192.35 83.8725 192.122 83.3541 191.913C83.3991 192.089 83.4846 192.254 83.5951 192.364C83.5951 192.364 84.2952 192.791 86.6824 192.882C89.0696 192.974 89.5287 191.505 89.5287 191.505ZM83.7902 193.278L83.6792 193.305C83.8335 193.94 84.2343 194.782 85.2822 195.48C85.2822 195.48 89.1154 196.862 92.7212 196.132C92.8228 196.174 95.2116 197.172 99.3511 196.863C95.3132 196.191 93.0502 194.642 93.0502 194.642C87.6075 196.868 83.7902 193.278 83.7902 193.278ZM99.8962 197.515C100.899 198.358 101.429 199.284 101.304 201.092C101.18 202.901 98.8032 203.06 97.1762 202.986C95.7847 202.919 94.0688 202.824 92.0861 202.956C89.2364 203.376 86.5893 203.002 85.0909 202.164C84.1235 201.622 83.5098 200.937 83.1092 200.312C83.3503 202.136 84.3736 203.271 84.3736 203.271C84.3736 203.271 88.1984 204.196 92.1512 203.933C94.0639 203.807 95.9156 203.628 97.379 203.795C98.8423 203.963 99.5432 204.65 100.277 205.14C101.011 205.63 101.591 206.216 101.796 206.666C102.235 207.634 102.142 208.64 101.824 209.413C101.507 210.187 100.402 210.577 100.191 210.592C99.4494 210.649 98.7027 210.547 97.1456 210.439C95.5885 210.33 93.7172 210.287 91.6519 210.62C88.4335 211.412 85.0571 210.798 83.1016 208.952C83.6135 210.464 84.6337 211.192 84.6337 211.192C84.6337 211.192 87.7028 212.251 91.8107 211.588C93.7707 211.272 95.5593 211.311 97.0806 211.416C98.0164 211.481 98.6399 211.499 99.3473 211.563C100.261 212.25 100.628 212.462 101.283 213.643C101.582 214.181 101.733 215.009 101.601 215.674C101.468 216.339 101.144 216.823 100.352 216.99C99.9158 217.081 99.3347 217.095 98.1594 217.084C96.9841 217.073 95.557 217.04 94.0449 217.107C92.3355 217.267 88.586 217.527 85.923 216.533C84.9817 216.181 84.3025 215.462 83.7385 214.802C83.9087 216.924 85.2822 217.684 85.2822 217.684C85.2822 217.684 91.0702 218.221 94.0889 218.09C95.5633 218.027 96.9709 218.048 98.1517 218.059C98.3922 218.063 98.4963 218.038 98.716 218.038C99.8193 219.956 97.3152 221.843 96.2714 222.336C95.2277 222.83 93.5286 222.185 92.5548 222.12C91.5809 222.055 90.9308 220.756 90.9308 220.756C90.9308 220.756 90.541 221.276 90.8007 222.055C90.8007 222.055 87.6169 222.404 85.2267 220.883C85.2475 220.942 85.2579 221.002 85.2821 221.06C85.9314 222.619 86.5818 223.008 88.1399 223.268C89.6981 223.528 91.1251 222.878 93.9817 223.268C96.8384 223.657 98.8633 222.111 99.5978 220.458C99.5978 220.458 100.608 222.019 101.985 223.855C101.985 223.855 106.3 224.039 108.871 223.855C111.442 223.672 112.867 222.575 112.867 222.575C112.867 222.575 114.526 222.985 117.045 223.83C114.521 220.588 115.708 218.045 115.604 215.752C121.554 217.582 131.46 223.671 139.939 224.194C132.348 222.121 117.985 215.16 116.374 214.419C114.763 213.678 113.055 210.97 111.45 210.769C111.45 210.769 113.096 212.574 113.219 214.614C113.35 216.772 111.929 219.204 110.822 220.458C108.668 222.898 104.005 223.212 102.26 221.376C100.516 219.54 100.552 217.945 100.552 217.945C101.712 217.7 102.375 216.8 102.563 215.861C102.75 214.923 102.559 213.926 102.136 213.164C101.621 212.237 101.061 211.868 100.476 211.481C101.344 211.398 102.058 211.32 102.695 210.354C103.805 211.404 107.325 212.782 108.613 211.494C106.035 211.33 103.989 211.162 102.79 208.975C102.97 205.919 101.641 204.873 100.818 204.323C100.488 204.103 100.245 204.005 99.8866 203.824C101.369 203.875 102.148 202.181 102.157 201.027C102.166 199.874 101.36 197.776 99.8962 197.515ZM97.5224 197.762C96.3093 197.802 94.7966 198.162 94.3949 199.31C93.7522 201.146 94.854 202.064 94.854 202.064C94.854 202.064 94.5786 199.401 96.2313 198.667C97.8839 197.932 100.271 199.034 100.271 199.034C100.271 199.034 99.6285 198.208 99.0776 197.932C98.871 197.829 98.2503 197.738 97.5224 197.762ZM90.7223 198.024C90.7223 198.024 89.8041 199.034 89.9878 200.503C90.1714 201.972 90.9059 202.34 90.9059 202.34C90.9059 202.34 90.0796 199.677 90.7223 198.024ZM98.3832 205.735C97.1297 205.676 95.7951 206.093 95.6804 207.298C95.4967 209.226 96.4149 209.685 96.4149 209.685C96.4149 209.685 95.864 207.757 96.874 206.747C97.8839 205.737 100.271 206.288 100.271 206.288C99.858 205.978 99.1353 205.77 98.3832 205.735ZM90.9059 205.829C90.9059 205.829 90.2632 206.93 90.4468 208.308C90.6305 209.685 91.365 210.236 91.365 210.052C91.365 209.868 90.2632 207.665 90.9059 205.829ZM90.4468 212.807C90.4468 212.807 89.9877 213.541 90.1714 214.827C90.355 216.112 90.9059 216.387 90.9059 216.387C90.9059 216.387 90.0796 213.817 90.4468 212.807ZM97.4823 212.841C96.5526 212.807 95.5426 213.036 95.2213 214.092C94.5786 216.204 96.0476 216.663 96.0476 216.663C96.0476 216.663 95.4967 215.653 95.7722 214.367C96.0476 213.082 99.2612 213.174 99.2612 213.174C99.2612 213.174 98.4119 212.875 97.4823 212.841ZM95.6804 218.407C95.6804 218.407 94.1195 218.316 93.9359 219.876C93.7522 221.437 95.0376 221.896 95.6804 222.08C95.6804 222.08 94.7622 221.805 94.5786 220.611C94.3949 219.417 95.7722 218.683 96.874 218.683L95.6804 218.407Z" fill="#4E2705"/>
<path d="M87.2305 230.95C88.2726 228.952 89.1207 227.134 89.4667 224.672C89.4667 224.672 93.2157 223.524 94.2683 225.287C96.2633 228.628 98.3908 230.95 98.3908 230.95H87.2305ZM95.946 224.858C98.7043 229.016 100.864 230.95 100.864 230.95H104.76C104.76 230.95 101.704 226.92 99.7562 223.025C99.7562 223.025 99.1634 224.082 95.946 224.858Z" fill="#734215"/>
<path d="M213.944 191.109L216.324 70.3505C216.324 70.3505 199.963 103.332 193.99 118.394C188.017 133.456 189.835 149.557 192.173 160.984C194.51 172.411 199.225 185.165 199.963 194.744L213.944 191.109Z" fill="#7BB1C7"/>
<path d="M193.771 231.967H215.715C215.715 231.967 213.377 227.943 212.858 223.268L211.43 219.459L200.912 219.589L199.013 223.855C199.013 223.855 196.887 227.812 193.771 231.967Z" fill="#4E2705"/>
<path d="M207.903 191.6L209.629 111.542C209.629 111.542 201.447 124.407 198.271 132.418C195.094 140.428 195.659 151.192 197.304 159.223C198.949 167.255 202.137 179.595 202.427 193.024L207.903 191.6Z" fill="#38699E"/>
<path d="M158.799 235.73V209.287C158.799 209.287 170.918 210.572 181.569 206.349C181.569 206.349 185.058 202.493 188.731 197.718C192.403 192.944 193.596 193.029 197.573 192.156C200.666 191.477 206.757 190.416 208.705 190.027C210.652 189.637 212.34 190.416 212.34 190.416C212.34 190.416 215.587 190.936 216.755 190.936C217.924 190.936 217.794 191.974 217.405 192.364C217.405 192.364 217.664 194.182 215.716 195.48C215.716 195.48 217.664 196.389 217.924 198.986C218.184 201.583 216.625 203.271 216.625 203.271C216.625 203.271 218.184 204.44 218.184 207.167C218.184 209.893 216.366 211.192 216.366 211.192C216.366 211.192 217.405 212.49 217.275 214.698C217.145 216.905 215.716 217.684 215.716 217.684C215.716 217.684 216.366 219.502 215.716 221.06C215.067 222.618 214.418 223.008 212.86 223.268C211.302 223.527 209.873 222.878 207.017 223.268C204.16 223.657 202.136 222.111 201.401 220.458C201.401 220.458 200.391 222.019 199.014 223.855C199.014 223.855 194.699 224.039 192.128 223.855C189.557 223.672 188.133 222.576 188.133 222.576C188.133 222.576 181.386 224.223 174.224 227.895C167.062 231.568 158.799 235.73 158.799 235.73Z" fill="#734215"/>
<path d="M211.471 191.505C211.471 191.505 212.332 192.3 214.869 192.332C216.297 192.351 217.128 192.122 217.646 191.913C217.601 192.089 217.515 192.254 217.405 192.364C217.405 192.364 216.705 192.791 214.318 192.883C211.93 192.974 211.471 191.505 211.471 191.505ZM217.21 193.279L217.321 193.305C217.167 193.941 216.766 194.782 215.718 195.48C215.718 195.48 211.885 196.862 208.279 196.132C208.177 196.174 205.788 197.172 201.649 196.863C205.687 196.191 207.95 194.642 207.95 194.642C213.392 196.868 217.21 193.279 217.21 193.279ZM201.104 197.515C200.101 198.358 199.571 199.284 199.696 201.092C199.82 202.901 202.197 203.06 203.824 202.986C205.215 202.92 206.931 202.824 208.914 202.956C211.764 203.377 214.411 203.002 215.909 202.164C216.876 201.622 217.49 200.937 217.891 200.312C217.65 202.136 216.626 203.271 216.626 203.271C216.626 203.271 212.802 204.196 208.849 203.933C206.936 203.807 205.084 203.628 203.621 203.795C202.158 203.963 201.457 204.65 200.723 205.14C199.989 205.63 199.409 206.216 199.204 206.667C198.765 207.634 198.858 208.64 199.176 209.413C199.493 210.187 200.598 210.577 200.809 210.592C201.551 210.649 202.297 210.547 203.854 210.439C205.412 210.331 207.283 210.287 209.348 210.62C212.567 211.412 215.943 210.798 217.898 208.952C217.386 210.464 216.366 211.192 216.366 211.192C216.366 211.192 213.297 212.251 209.189 211.588C207.229 211.272 205.441 211.311 203.919 211.416C202.984 211.481 202.36 211.499 201.653 211.563C200.739 212.25 200.372 212.462 199.717 213.643C199.418 214.181 199.267 215.009 199.399 215.674C199.532 216.339 199.856 216.824 200.648 216.99C201.084 217.082 201.665 217.095 202.841 217.084C204.016 217.073 205.443 217.041 206.955 217.107C208.664 217.267 212.414 217.527 215.077 216.533C216.018 216.181 216.697 215.463 217.261 214.802C217.091 216.924 215.718 217.684 215.718 217.684C215.718 217.684 209.93 218.221 206.911 218.09C205.437 218.027 204.029 218.048 202.848 218.059C202.608 218.063 202.504 218.038 202.284 218.038C201.181 219.956 203.685 221.843 204.729 222.336C205.772 222.83 207.471 222.185 208.445 222.12C209.419 222.056 210.069 220.756 210.069 220.756C210.069 220.756 210.459 221.276 210.199 222.055C210.199 222.055 213.383 222.404 215.773 220.883C215.753 220.942 215.742 221.002 215.718 221.061C215.069 222.619 214.418 223.008 212.86 223.268C211.302 223.528 209.875 222.878 207.018 223.268C204.162 223.658 202.137 222.111 201.402 220.458C201.402 220.458 200.392 222.019 199.015 223.855C199.015 223.855 194.7 224.039 192.129 223.855C189.558 223.672 188.133 222.576 188.133 222.576C188.133 222.576 186.474 222.986 183.955 223.83C186.479 220.588 185.292 218.045 185.396 215.752C179.446 217.582 169.54 223.671 161.061 224.194C168.652 222.122 183.015 215.161 184.626 214.419C186.237 213.678 187.945 210.97 189.55 210.77C189.55 210.77 187.904 212.574 187.781 214.614C187.65 216.772 189.071 219.204 190.178 220.458C192.332 222.898 196.995 223.213 198.74 221.376C200.484 219.54 200.448 217.945 200.448 217.945C199.288 217.7 198.625 216.8 198.437 215.862C198.25 214.923 198.441 213.926 198.864 213.164C199.379 212.237 199.939 211.868 200.524 211.481C199.656 211.398 198.942 211.32 198.305 210.355C197.195 211.404 193.675 212.782 192.387 211.495C194.965 211.33 197.011 211.162 198.21 208.975C198.03 205.919 199.359 204.873 200.182 204.323C200.512 204.103 200.755 204.005 201.113 203.824C199.631 203.875 198.852 202.181 198.843 201.028C198.834 199.874 199.64 197.776 201.104 197.515ZM203.478 197.762C204.691 197.803 206.203 198.162 206.605 199.31C207.248 201.146 206.146 202.064 206.146 202.064C206.146 202.064 206.421 199.402 204.769 198.667C203.116 197.932 200.729 199.034 200.729 199.034C200.729 199.034 201.372 198.208 201.922 197.932C202.129 197.829 202.75 197.738 203.478 197.762ZM210.278 198.024C210.278 198.024 211.196 199.034 211.012 200.503C210.829 201.972 210.094 202.34 210.094 202.34C210.094 202.34 210.92 199.677 210.278 198.024ZM202.617 205.735C203.87 205.676 205.205 206.093 205.32 207.298C205.503 209.226 204.585 209.685 204.585 209.685C204.585 209.685 205.136 207.757 204.126 206.747C203.116 205.737 200.729 206.288 200.729 206.288C201.142 205.978 201.865 205.77 202.617 205.735ZM210.094 205.829C210.094 205.829 210.737 206.93 210.553 208.308C210.37 209.685 209.635 210.236 209.635 210.052C209.635 209.869 210.737 207.665 210.094 205.829ZM210.553 212.807C210.553 212.807 211.012 213.541 210.829 214.827C210.645 216.112 210.094 216.388 210.094 216.388C210.094 216.388 210.92 213.817 210.553 212.807ZM203.518 212.841C204.447 212.807 205.457 213.036 205.779 214.092C206.421 216.204 204.952 216.663 204.952 216.663C204.952 216.663 205.503 215.653 205.228 214.368C204.952 213.082 201.739 213.174 201.739 213.174C201.739 213.174 202.588 212.876 203.518 212.841ZM205.32 218.407C205.32 218.407 206.881 218.316 207.064 219.877C207.248 221.437 205.962 221.897 205.32 222.08C205.32 222.08 206.238 221.805 206.421 220.611C206.605 219.417 205.228 218.683 204.126 218.683L205.32 218.407Z" fill="#4E2705"/>
<path d="M213.77 230.95C212.727 228.952 211.879 227.134 211.533 224.672C211.533 224.672 207.784 223.524 206.732 225.287C204.737 228.628 202.609 230.95 202.609 230.95H213.77ZM205.054 224.858C202.296 229.016 200.136 230.95 200.136 230.95H196.24C196.24 230.95 199.296 226.92 201.244 223.025C201.244 223.025 201.837 224.082 205.054 224.858Z" fill="#734215"/>
</svg>
