<svg width="300" height="300" viewBox="0 0 300 300" fill="none" xmlns="http://www.w3.org/2000/svg">
<g clip-path="url(#clip0_164_8832)">
<path d="M150.39 12C83.6425 12 29.4409 66.2015 29.441 132.949C29.441 166.248 42.9299 196.397 64.7302 218.272L12.9377 234.812L17.6904 246.713L1 250.268L12.9377 289H287.842L299.742 250.268L283.052 246.713L287.842 234.812L236.012 218.272C257.813 196.397 271.301 166.248 271.301 132.949C271.301 66.2015 217.137 12 150.39 12Z" fill="white" stroke="black" stroke-width="2.99378"/>
<path d="M15.6875 250.99L26.1896 285.064H274.587L285.056 250.99H15.6875Z" fill="#008300"/>
<path d="M22.2383 255.378L30.0221 280.676H91.3573H209.387H270.722L278.506 255.378H217.134H83.5735H22.2383Z" fill="white"/>
<path d="M39.3519 270.234C39.3519 270.801 39.2923 271.335 39.1731 271.836C39.0638 272.337 38.8651 272.776 38.5769 273.154C38.2987 273.521 37.9162 273.816 37.4293 274.039C36.9524 274.25 36.3463 274.356 35.6111 274.356C34.9355 274.356 34.3542 274.267 33.8674 274.089C33.3805 273.9 32.9781 273.683 32.6602 273.438L33.4352 271.419C33.7233 271.608 34.0313 271.775 34.3592 271.919C34.6871 272.064 35.0448 272.136 35.4322 272.136C35.9986 272.136 36.406 271.981 36.6543 271.669C36.9027 271.358 37.0269 270.835 37.0269 270.101V262.558H39.3519V270.234Z" fill="black"/>
<path d="M45.6254 274.356C44.9001 274.356 44.2742 274.245 43.7476 274.022C43.221 273.788 42.7838 273.471 42.436 273.071C42.0982 272.659 41.8449 272.175 41.676 271.619C41.517 271.052 41.4375 270.429 41.4375 269.75V262.558H43.7625V269.533C43.7625 270 43.8072 270.401 43.8966 270.735C43.996 271.057 44.1251 271.324 44.2841 271.536C44.453 271.736 44.6517 271.881 44.8803 271.97C45.1187 272.059 45.377 272.103 45.6552 272.103C46.2216 272.103 46.6786 271.908 47.0264 271.519C47.3841 271.13 47.5629 270.468 47.5629 269.533V262.558H49.8879V269.75C49.8879 270.429 49.8034 271.052 49.6345 271.619C49.4656 272.186 49.2073 272.676 48.8595 273.088C48.5118 273.488 48.0697 273.8 47.5331 274.022C46.9966 274.245 46.3607 274.356 45.6254 274.356Z" fill="black"/>
<path d="M54.8685 262.558C55.0473 262.925 55.251 263.381 55.4795 263.926C55.718 264.46 55.9614 265.044 56.2098 265.679C56.4681 266.302 56.7215 266.941 56.9699 267.598C57.2183 268.254 57.4518 268.871 57.6704 269.45C57.889 268.871 58.1225 268.254 58.3709 267.598C58.6193 266.941 58.8676 266.302 59.116 265.679C59.3744 265.044 59.6178 264.46 59.8463 263.926C60.0848 263.381 60.2934 262.925 60.4723 262.558H62.5886C62.688 263.326 62.7774 264.188 62.8569 265.145C62.9463 266.09 63.0208 267.08 63.0804 268.115C63.15 269.138 63.2096 270.167 63.2593 271.202C63.3189 272.237 63.3686 273.21 63.4083 274.122H61.1429C61.1131 272.999 61.0734 271.775 61.0237 270.451C60.974 269.127 60.8995 267.792 60.8002 266.446C60.6213 266.913 60.4226 267.431 60.204 267.998C59.9854 268.565 59.7668 269.133 59.5482 269.7C59.3396 270.267 59.1359 270.813 58.9372 271.335C58.7385 271.847 58.5696 272.287 58.4305 272.654H56.806C56.6669 272.287 56.498 271.847 56.2992 271.335C56.1005 270.813 55.8919 270.267 55.6733 269.7C55.4646 269.133 55.251 268.565 55.0324 267.998C54.8138 267.431 54.6151 266.913 54.4363 266.446C54.3369 267.792 54.2624 269.127 54.2127 270.451C54.163 271.775 54.1233 272.999 54.0935 274.122H51.8281C51.8679 273.21 51.9126 272.237 51.9623 271.202C52.0219 270.167 52.0815 269.138 52.1411 268.115C52.2107 267.08 52.2852 266.09 52.3647 265.145C52.4541 264.188 52.5485 263.326 52.6478 262.558H54.8685Z" fill="black"/>
<path d="M69.5317 274.356C68.8064 274.356 68.1804 274.245 67.6538 274.022C67.1272 273.788 66.6901 273.471 66.3423 273.071C66.0045 272.659 65.7511 272.175 65.5822 271.619C65.4232 271.052 65.3438 270.429 65.3438 269.75V262.558H67.6687V269.533C67.6687 270 67.7134 270.401 67.8029 270.735C67.9022 271.057 68.0314 271.324 68.1904 271.536C68.3593 271.736 68.558 271.881 68.7865 271.97C69.025 272.059 69.2833 272.103 69.5615 272.103C70.1278 272.103 70.5849 271.908 70.9326 271.519C71.2903 271.13 71.4692 270.468 71.4692 269.533V262.558H73.7942V269.75C73.7942 270.429 73.7097 271.052 73.5408 271.619C73.3719 272.186 73.1136 272.676 72.7658 273.088C72.418 273.488 71.9759 273.8 71.4394 274.022C70.9028 274.245 70.2669 274.356 69.5317 274.356Z" fill="black"/>
<path d="M76.0312 262.558H78.3562V274.122H76.0312V262.558Z" fill="black"/>
<path d="M84.5283 267.314C84.9456 266.524 85.3431 265.734 85.7206 264.944C86.0982 264.154 86.4459 263.359 86.7639 262.558H89.3273C88.761 263.804 88.1748 265.011 87.5687 266.179C86.9626 267.347 86.3217 268.521 85.6461 269.7V274.122H83.3211V269.733C82.6455 268.554 81.9997 267.375 81.3836 266.196C80.7776 265.017 80.1913 263.804 79.625 262.558H82.3226C82.6405 263.359 82.9833 264.154 83.3509 264.944C83.7186 265.734 84.111 266.524 84.5283 267.314Z" fill="black"/>
<path d="M96.0172 274.122C95.9079 273.722 95.7837 273.31 95.6446 272.887C95.5154 272.465 95.3862 272.042 95.2571 271.619H91.2331C91.1039 272.042 90.9698 272.465 90.8307 272.887C90.7015 273.31 90.5823 273.722 90.473 274.122H88.0586C88.4461 272.876 88.8137 271.725 89.1615 270.668C89.5092 269.611 89.847 268.615 90.1749 267.681C90.5127 266.747 90.8406 265.862 91.1586 265.028C91.4864 264.182 91.8243 263.359 92.172 262.558H94.3927C94.7305 263.359 95.0633 264.182 95.3912 265.028C95.7191 265.862 96.047 266.747 96.3749 267.681C96.7127 268.615 97.0555 269.611 97.4032 270.668C97.751 271.725 98.1186 272.876 98.5061 274.122H96.0172ZM93.2302 265.178C93.1805 265.345 93.106 265.573 93.0066 265.862C92.9073 266.151 92.793 266.485 92.6638 266.863C92.5347 267.242 92.3906 267.659 92.2316 268.115C92.0826 268.571 91.9286 269.049 91.7696 269.55H94.7056C94.5467 269.049 94.3927 268.571 94.2436 268.115C94.0946 267.659 93.9505 267.242 93.8114 266.863C93.6823 266.485 93.568 266.151 93.4686 265.862C93.3693 265.573 93.2898 265.345 93.2302 265.178Z" fill="black"/>
<path d="M107.208 267.314C107.625 266.524 108.023 265.734 108.4 264.944C108.778 264.154 109.126 263.359 109.444 262.558H112.007C111.441 263.804 110.854 265.011 110.248 266.179C109.642 267.347 109.001 268.521 108.326 269.7V274.122H106.001V269.733C105.325 268.554 104.679 267.375 104.063 266.196C103.457 265.017 102.871 263.804 102.305 262.558H105.002C105.32 263.359 105.663 264.154 106.031 264.944C106.398 265.734 106.791 266.524 107.208 267.314Z" fill="black"/>
<path d="M118.701 274.122C118.591 273.722 118.467 273.31 118.328 272.887C118.199 272.465 118.07 272.042 117.941 271.619H113.917C113.788 272.042 113.653 272.465 113.514 272.887C113.385 273.31 113.266 273.722 113.157 274.122H110.742C111.13 272.876 111.497 271.725 111.845 270.668C112.193 269.611 112.531 268.615 112.859 267.681C113.196 266.747 113.524 265.862 113.842 265.028C114.17 264.182 114.508 263.359 114.856 262.558H117.076C117.414 263.359 117.747 264.182 118.075 265.028C118.403 265.862 118.731 266.747 119.058 267.681C119.396 268.615 119.739 269.611 120.087 270.668C120.435 271.725 120.802 272.876 121.19 274.122H118.701ZM115.914 265.178C115.864 265.345 115.79 265.573 115.69 265.862C115.591 266.151 115.477 266.485 115.347 266.863C115.218 267.242 115.074 267.659 114.915 268.115C114.766 268.571 114.612 269.049 114.453 269.55H117.389C117.23 269.049 117.076 268.571 116.927 268.115C116.778 267.659 116.634 267.242 116.495 266.863C116.366 266.485 116.252 266.151 116.152 265.862C116.053 265.573 115.973 265.345 115.914 265.178Z" fill="black"/>
<path d="M133.025 274.122C132.916 273.722 132.791 273.31 132.652 272.887C132.523 272.465 132.394 272.042 132.265 271.619H128.241C128.112 272.042 127.978 272.465 127.838 272.887C127.709 273.31 127.59 273.722 127.481 274.122H125.066C125.454 272.876 125.822 271.725 126.169 270.668C126.517 269.611 126.855 268.615 127.183 267.681C127.521 266.747 127.848 265.862 128.166 265.028C128.494 264.182 128.832 263.359 129.18 262.558H131.4C131.738 263.359 132.071 264.182 132.399 265.028C132.727 265.862 133.055 266.747 133.383 267.681C133.72 268.615 134.063 269.611 134.411 270.668C134.759 271.725 135.126 272.876 135.514 274.122H133.025ZM130.238 265.178C130.188 265.345 130.114 265.573 130.014 265.862C129.915 266.151 129.801 266.485 129.672 266.863C129.542 267.242 129.398 267.659 129.239 268.115C129.09 268.571 128.936 269.049 128.777 269.55H131.713C131.554 269.049 131.4 268.571 131.251 268.115C131.102 267.659 130.958 267.242 130.819 266.863C130.69 266.485 130.576 266.151 130.476 265.862C130.377 265.573 130.298 265.345 130.238 265.178Z" fill="black"/>
<path d="M136.852 274.122V262.558H143.767V264.744H139.177V267.164H143.26V269.35H139.177V274.122H136.852Z" fill="black"/>
<path d="M148.432 262.425C149.982 262.425 151.169 262.736 151.994 263.359C152.818 263.971 153.231 264.928 153.231 266.23C153.231 267.042 153.062 267.704 152.724 268.215C152.396 268.716 151.919 269.111 151.293 269.4C151.502 269.689 151.72 270.023 151.949 270.401C152.178 270.768 152.401 271.158 152.62 271.569C152.848 271.97 153.067 272.393 153.275 272.838C153.484 273.271 153.678 273.7 153.857 274.122H151.249C151.06 273.744 150.866 273.36 150.667 272.971C150.478 272.582 150.28 272.203 150.071 271.836C149.872 271.469 149.674 271.124 149.475 270.802C149.276 270.468 149.078 270.168 148.879 269.901H147.731V274.122H145.406V262.725C145.913 262.614 146.435 262.536 146.971 262.492C147.518 262.447 148.004 262.425 148.432 262.425ZM148.566 264.644C148.397 264.644 148.243 264.65 148.104 264.661C147.975 264.672 147.85 264.683 147.731 264.694V267.832H148.387C149.261 267.832 149.887 267.709 150.265 267.464C150.642 267.22 150.831 266.802 150.831 266.213C150.831 265.646 150.637 265.245 150.25 265.011C149.872 264.767 149.311 264.644 148.566 264.644Z" fill="black"/>
<path d="M155.348 262.558H157.673V274.122H155.348V262.558Z" fill="black"/>
<path d="M166.154 274.122C165.946 273.744 165.697 273.338 165.409 272.904C165.131 272.459 164.823 272.02 164.485 271.586C164.157 271.141 163.814 270.718 163.457 270.318C163.099 269.906 162.741 269.544 162.384 269.233V274.122H160.059V262.558H162.384V266.93C162.99 266.218 163.596 265.478 164.202 264.711C164.818 263.932 165.389 263.214 165.916 262.558H168.673C167.967 263.493 167.257 264.394 166.542 265.261C165.836 266.129 165.091 267.002 164.306 267.881C165.131 268.649 165.926 269.561 166.691 270.618C167.466 271.675 168.206 272.843 168.911 274.122H166.154Z" fill="black"/>
<path d="M177.537 274.122C177.427 273.722 177.303 273.31 177.164 272.887C177.035 272.465 176.906 272.042 176.777 271.619H172.753C172.623 272.042 172.489 272.465 172.35 272.887C172.221 273.31 172.102 273.722 171.993 274.122H169.578C169.966 272.876 170.333 271.725 170.681 270.668C171.029 269.611 171.367 268.615 171.694 267.681C172.032 266.747 172.36 265.862 172.678 265.028C173.006 264.182 173.344 263.359 173.692 262.558H175.912C176.25 263.359 176.583 264.182 176.911 265.028C177.239 265.862 177.567 266.747 177.894 267.681C178.232 268.615 178.575 269.611 178.923 270.668C179.271 271.725 179.638 272.876 180.026 274.122H177.537ZM174.75 265.178C174.7 265.345 174.626 265.573 174.526 265.862C174.427 266.151 174.313 266.485 174.183 266.863C174.054 267.242 173.91 267.659 173.751 268.115C173.602 268.571 173.448 269.049 173.289 269.55H176.225C176.066 269.049 175.912 268.571 175.763 268.115C175.614 267.659 175.47 267.242 175.331 266.863C175.202 266.485 175.088 266.151 174.988 265.862C174.889 265.573 174.809 265.345 174.75 265.178Z" fill="black"/>
<path d="M187.689 262.558C187.868 262.925 188.071 263.381 188.3 263.926C188.538 264.46 188.782 265.044 189.03 265.679C189.288 266.302 189.542 266.941 189.79 267.598C190.039 268.254 190.272 268.871 190.491 269.45C190.709 268.871 190.943 268.254 191.191 267.598C191.44 266.941 191.688 266.302 191.936 265.679C192.195 265.044 192.438 264.46 192.667 263.926C192.905 263.381 193.114 262.925 193.293 262.558H195.409C195.508 263.326 195.598 264.188 195.677 265.145C195.767 266.09 195.841 267.08 195.901 268.115C195.97 269.138 196.03 270.167 196.08 271.202C196.139 272.237 196.189 273.21 196.229 274.122H193.963C193.933 272.999 193.894 271.775 193.844 270.451C193.794 269.127 193.72 267.792 193.62 266.446C193.442 266.913 193.243 267.431 193.024 267.998C192.806 268.565 192.587 269.133 192.369 269.7C192.16 270.267 191.956 270.813 191.758 271.335C191.559 271.847 191.39 272.287 191.251 272.654H189.626C189.487 272.287 189.318 271.847 189.12 271.335C188.921 270.813 188.712 270.267 188.494 269.7C188.285 269.133 188.071 268.565 187.853 267.998C187.634 267.431 187.435 266.913 187.257 266.446C187.157 267.792 187.083 269.127 187.033 270.451C186.983 271.775 186.944 272.999 186.914 274.122H184.648C184.688 273.21 184.733 272.237 184.783 271.202C184.842 270.167 184.902 269.138 184.961 268.115C185.031 267.08 185.105 266.09 185.185 265.145C185.274 264.188 185.369 263.326 185.468 262.558H187.689Z" fill="black"/>
<path d="M205.232 274.122C205.123 273.722 204.999 273.31 204.859 272.887C204.73 272.465 204.601 272.042 204.472 271.619H200.448C200.319 272.042 200.185 272.465 200.046 272.887C199.916 273.31 199.797 273.722 199.688 274.122H197.273C197.661 272.876 198.029 271.725 198.376 270.668C198.724 269.611 199.062 268.615 199.39 267.681C199.728 266.747 200.055 265.862 200.373 265.028C200.701 264.182 201.039 263.359 201.387 262.558H203.608C203.945 263.359 204.278 264.182 204.606 265.028C204.934 265.862 205.262 266.747 205.59 267.681C205.928 268.615 206.27 269.611 206.618 270.668C206.966 271.725 207.333 272.876 207.721 274.122H205.232ZM202.445 265.178C202.395 265.345 202.321 265.573 202.221 265.862C202.122 266.151 202.008 266.485 201.879 266.863C201.75 267.242 201.605 267.659 201.446 268.115C201.297 268.571 201.143 269.049 200.984 269.55H203.92C203.762 269.049 203.608 268.571 203.458 268.115C203.309 267.659 203.165 267.242 203.026 266.863C202.897 266.485 202.783 266.151 202.683 265.862C202.584 265.573 202.505 265.345 202.445 265.178Z" fill="black"/>
<path d="M212.161 272.137C212.489 272.137 212.757 272.109 212.966 272.053C213.184 271.986 213.358 271.903 213.487 271.803C213.616 271.692 213.706 271.564 213.755 271.419C213.805 271.274 213.83 271.113 213.83 270.935C213.83 270.557 213.671 270.245 213.353 270.001C213.035 269.745 212.489 269.472 211.714 269.183C211.376 269.049 211.038 268.899 210.7 268.732C210.362 268.554 210.059 268.337 209.791 268.082C209.523 267.815 209.304 267.498 209.135 267.13C208.966 266.752 208.882 266.296 208.882 265.762C208.882 265.228 208.971 264.75 209.15 264.327C209.329 263.893 209.582 263.526 209.91 263.226C210.238 262.925 210.636 262.697 211.103 262.542C211.57 262.375 212.096 262.291 212.682 262.291C213.378 262.291 213.979 262.375 214.486 262.542C214.992 262.708 215.41 262.892 215.738 263.092L215.067 265.145C214.779 264.978 214.456 264.833 214.098 264.711C213.751 264.577 213.328 264.511 212.831 264.511C212.275 264.511 211.873 264.6 211.624 264.778C211.386 264.944 211.267 265.206 211.267 265.562C211.267 265.773 211.311 265.951 211.401 266.096C211.49 266.24 211.614 266.374 211.773 266.496C211.942 266.608 212.131 266.713 212.34 266.813C212.558 266.902 212.797 266.997 213.055 267.097C213.592 267.32 214.059 267.542 214.456 267.765C214.853 267.976 215.181 268.226 215.44 268.515C215.708 268.805 215.907 269.144 216.036 269.533C216.165 269.923 216.23 270.396 216.23 270.952C216.23 272.031 215.892 272.871 215.216 273.472C214.54 274.061 213.522 274.356 212.161 274.356C211.704 274.356 211.291 274.323 210.924 274.256C210.556 274.2 210.228 274.128 209.94 274.039C209.662 273.95 209.419 273.855 209.21 273.755C209.011 273.655 208.842 273.56 208.703 273.472L209.359 271.402C209.667 271.591 210.044 271.764 210.492 271.92C210.949 272.064 211.505 272.137 212.161 272.137Z" fill="black"/>
<path d="M224.249 262.558H226.574V274.122H224.249V269.216H220.345V274.122H218.02V262.558H220.345V266.98H224.249V262.558Z" fill="black"/>
<path d="M235.873 274.122C235.763 273.722 235.639 273.31 235.5 272.887C235.371 272.465 235.242 272.042 235.113 271.619H231.089C230.959 272.042 230.825 272.465 230.686 272.887C230.557 273.31 230.438 273.722 230.328 274.122H227.914C228.302 272.876 228.669 271.725 229.017 270.668C229.365 269.611 229.703 268.615 230.03 267.681C230.368 266.747 230.696 265.862 231.014 265.028C231.342 264.182 231.68 263.359 232.027 262.558H234.248C234.586 263.359 234.919 264.182 235.247 265.028C235.575 265.862 235.902 266.747 236.23 267.681C236.568 268.615 236.911 269.611 237.259 270.668C237.606 271.725 237.974 272.876 238.362 274.122H235.873ZM233.086 265.178C233.036 265.345 232.961 265.573 232.862 265.862C232.763 266.151 232.648 266.485 232.519 266.863C232.39 267.242 232.246 267.659 232.087 268.115C231.938 268.571 231.784 269.049 231.625 269.55H234.561C234.402 269.049 234.248 268.571 234.099 268.115C233.95 267.659 233.806 267.242 233.667 266.863C233.538 266.485 233.423 266.151 233.324 265.862C233.225 265.573 233.145 265.345 233.086 265.178Z" fill="black"/>
<path d="M242.729 262.425C244.279 262.425 245.466 262.736 246.291 263.359C247.115 263.971 247.528 264.928 247.528 266.23C247.528 267.042 247.359 267.704 247.021 268.215C246.693 268.716 246.216 269.111 245.59 269.4C245.799 269.689 246.017 270.023 246.246 270.401C246.474 270.768 246.698 271.158 246.917 271.569C247.145 271.97 247.364 272.393 247.572 272.838C247.781 273.271 247.975 273.7 248.154 274.122H245.545C245.357 273.744 245.163 273.36 244.964 272.971C244.775 272.582 244.577 272.203 244.368 271.836C244.169 271.469 243.971 271.124 243.772 270.802C243.573 270.468 243.374 270.168 243.176 269.901H242.028V274.122H239.703V262.725C240.21 262.614 240.731 262.536 241.268 262.492C241.814 262.447 242.301 262.425 242.729 262.425ZM242.863 264.644C242.694 264.644 242.54 264.65 242.401 264.661C242.272 264.672 242.147 264.683 242.028 264.694V267.832H242.684C243.558 267.832 244.184 267.709 244.562 267.464C244.939 267.22 245.128 266.802 245.128 266.213C245.128 265.646 244.934 265.245 244.547 265.011C244.169 264.767 243.608 264.644 242.863 264.644Z" fill="black"/>
<path d="M249.641 262.558H251.966V274.122H249.641V262.558Z" fill="black"/>
<path d="M260.447 274.122C260.239 273.744 259.99 273.338 259.702 272.904C259.424 272.459 259.116 272.02 258.778 271.586C258.45 271.141 258.107 270.718 257.75 270.318C257.392 269.906 257.034 269.544 256.677 269.233V274.122H254.352V262.558H256.677V266.93C257.283 266.218 257.889 265.478 258.495 264.711C259.111 263.932 259.682 263.214 260.209 262.558H262.966C262.26 263.493 261.55 264.394 260.835 265.261C260.129 266.129 259.384 267.002 258.599 267.881C259.424 268.649 260.219 269.561 260.984 270.618C261.759 271.675 262.499 272.843 263.204 274.122H260.447Z" fill="black"/>
<path d="M264.547 262.558H266.872V274.122H264.547V262.558Z" fill="black"/>
<path fill-rule="evenodd" clip-rule="evenodd" d="M15.6875 251.002L31.4089 246.79L26.4427 238.188L53.5425 228.047V237.261H61.9138V251.423H16.3193L15.6875 251.002Z" fill="#008300"/>
<path fill-rule="evenodd" clip-rule="evenodd" d="M57.9469 251.213H24.9883L57.9469 242.373V251.213Z" fill="white"/>
<path fill-rule="evenodd" clip-rule="evenodd" d="M50.7884 237.418H35.8359L50.7884 231.627V237.418Z" fill="white"/>
<path fill-rule="evenodd" clip-rule="evenodd" d="M31.3086 239.946L34.6818 245.901L56.615 239.946H31.3086Z" fill="white"/>
<path fill-rule="evenodd" clip-rule="evenodd" d="M285.055 251.002L269.333 246.79L274.299 238.188L247.2 228.047V237.261H238.828V251.423H284.423L285.055 251.002Z" fill="#008300"/>
<path fill-rule="evenodd" clip-rule="evenodd" d="M242.795 251.213H275.754L242.795 242.373V251.213Z" fill="white"/>
<path fill-rule="evenodd" clip-rule="evenodd" d="M249.954 237.418H264.906L249.954 231.627V237.418Z" fill="white"/>
<path fill-rule="evenodd" clip-rule="evenodd" d="M269.434 239.946L266.06 245.901L244.127 239.946H269.434Z" fill="white"/>
<path d="M147.637 26.3786C89.8524 27.8402 43.3789 75.2341 43.3789 133.369C43.3789 178.771 71.7009 217.582 111.637 233.1V221.274C77.8986 206.377 54.3436 172.603 54.3436 133.369C54.3437 80.5661 97.0084 37.6403 149.733 37.306C149.94 37.3047 150.162 37.306 150.369 37.306C203.379 37.3059 246.395 80.359 246.395 133.369C246.395 172.603 222.84 206.377 189.101 221.274V233.1C229.038 217.582 257.36 178.771 257.36 133.369C257.36 74.314 209.424 26.3786 150.369 26.3786C149.677 26.3786 149 26.3655 148.311 26.3786C148.084 26.3835 147.864 26.3726 147.637 26.3786Z" fill="#FFFF00" stroke="black" stroke-width="1.79626"/>
<path fill-rule="evenodd" clip-rule="evenodd" d="M179.877 210.693L180.035 226.528C170.375 227.953 159.607 238.088 156.757 239.989C153.906 241.889 149.051 245.631 146.517 245.318C142.244 244.791 145.401 241.335 145.401 241.335C145.401 241.335 142.45 244.803 140.172 243.239C138.151 241.852 141.397 239.097 141.397 239.097C141.397 239.097 140.326 240.575 138.091 239.976C136 239.416 137.512 236.806 137.512 236.806C137.512 236.806 131.656 239.877 130.79 238.88C129.07 236.902 131.211 235.081 131.211 235.081L144.722 223.678C152.245 220.859 154.223 224.786 157.707 224.628C161.191 224.47 170.534 219.402 173.067 216.869C175.601 214.335 174.968 211.643 176.868 211.009C178.768 210.376 179.718 210.534 179.877 210.693Z" fill="white" stroke="black" stroke-width="1.27344"/>
<path fill-rule="evenodd" clip-rule="evenodd" d="M120.825 211.699L120.676 226.591C129.76 227.931 139.886 237.462 142.566 239.249C145.247 241.036 149.714 243.861 152.097 243.567C156.115 243.072 155.307 241.602 155.307 241.602C155.307 241.602 157.088 242.492 159.45 241.613C161.822 240.729 160.656 239.049 160.656 239.049C160.656 239.049 164.168 240.081 165.797 238.206C167.414 236.346 164.428 234.491 164.428 234.491C164.428 234.491 165.758 233.572 163.375 234.912C160.993 236.252 156.118 230.612 151.203 230.463C146.289 230.314 145.842 235.228 142.715 232.845C139.588 230.463 145.295 226.615 147.183 225.995C154.963 223.442 162.125 226.603 152.726 223.068C147.915 221.166 144.212 224.637 140.936 224.488C137.66 224.339 129.611 219.89 127.228 217.507C124.845 215.124 125.441 212.593 123.654 211.997C121.867 211.402 120.974 211.55 120.825 211.699Z" fill="white" stroke="black" stroke-width="1.19751"/>
<path d="M160.81 239.002L154.387 236.212" stroke="black" stroke-width="1.19751"/>
<path d="M155.968 241.951L148.387 237.265" stroke="black" stroke-width="1.19751"/>
<path fill-rule="evenodd" clip-rule="evenodd" d="M108.337 204.014C89.6828 213.125 88.8097 189.322 80.1953 189.516C96.0933 178.987 93.5909 198.607 108.337 204.014Z" fill="#008300" stroke="black" stroke-width="0.598757"/>
<path fill-rule="evenodd" clip-rule="evenodd" d="M101.018 177.832C91.4974 195.011 113.501 197.279 112.823 205.455C123.499 190.981 105.175 192.174 101.018 177.832Z" fill="#008300" stroke="black" stroke-width="0.598757"/>
<path fill-rule="evenodd" clip-rule="evenodd" d="M91.8961 184.362C68.9434 188.389 75.131 168.391 65.6211 166.609C85.9329 160.668 77.1748 176.103 91.8961 184.362Z" fill="#008300" stroke="black" stroke-width="0.598757"/>
<path fill-rule="evenodd" clip-rule="evenodd" d="M89.5694 160.691C76.9079 175.706 95.1811 176.429 92.9355 184.319C106.207 172.182 92.6022 172.688 89.5694 160.691Z" fill="#008300" stroke="black" stroke-width="0.598757"/>
<path fill-rule="evenodd" clip-rule="evenodd" d="M76.2267 163.493C53.3091 160.141 67.7663 136.756 60.8359 131.635C79.8525 133.042 67.5889 153.644 76.2267 163.493Z" fill="#008300" stroke="black" stroke-width="0.598757"/>
<path fill-rule="evenodd" clip-rule="evenodd" d="M85.0292 133.994C63.8187 144.051 85.2968 154.71 76.8778 164.213C97.633 163.045 79.2481 149.317 85.0292 133.994Z" fill="#008300" stroke="black" stroke-width="0.598757"/>
<path fill-rule="evenodd" clip-rule="evenodd" d="M73.2461 134.725C48.6031 123.282 74.3713 102.336 69.9573 94.5295C86.7773 111.475 61.1946 118.03 73.2461 134.725Z" fill="#008300" stroke="black" stroke-width="0.598757"/>
<path fill-rule="evenodd" clip-rule="evenodd" d="M89.062 106.239C67.8441 108.921 78.3975 128.449 74.0938 135.328C90.5793 131.553 77.2093 121.61 89.062 106.239Z" fill="#008300" stroke="black" stroke-width="0.598757"/>
<path fill-rule="evenodd" clip-rule="evenodd" d="M78.8083 100.317C66.6879 82.1364 86.5962 77.966 88.0697 68.7135C93.8675 92.7072 80.274 84.8179 78.8083 100.317Z" fill="#008300" stroke="black" stroke-width="0.598757"/>
<path fill-rule="evenodd" clip-rule="evenodd" d="M102.719 85.1624C82.9436 79.5559 86.4091 99.3297 79.8086 104.049C96.4885 106.842 93.0969 90.8277 102.719 85.1624Z" fill="#008300" stroke="black" stroke-width="0.598757"/>
<path fill-rule="evenodd" clip-rule="evenodd" d="M93.5259 76.595C89.6131 60.8097 97.4852 63.4658 106.448 56.5886C111.321 69.293 99.2702 67.8417 93.5259 76.595Z" fill="#008300" stroke="black" stroke-width="0.598757"/>
<path fill-rule="evenodd" clip-rule="evenodd" d="M118.661 74.2824C103.38 63.0849 101.798 78.1763 93.9414 80.2036C108.498 88.8131 109.083 76.1046 118.661 74.2824Z" fill="#008300" stroke="black" stroke-width="0.598757"/>
<path fill-rule="evenodd" clip-rule="evenodd" d="M109.539 66.6916C110.043 59.9289 119.036 50.864 128.532 54.0296C127.957 65.2528 117.093 68.2744 109.539 66.6916Z" fill="#008300" stroke="black" stroke-width="0.598757"/>
<path fill-rule="evenodd" clip-rule="evenodd" d="M192.401 204.014C211.055 213.125 211.929 189.322 220.543 189.516C204.645 178.986 207.147 198.607 192.401 204.014Z" fill="#008300" stroke="black" stroke-width="0.598757"/>
<path fill-rule="evenodd" clip-rule="evenodd" d="M199.72 177.832C209.241 195.011 187.237 197.279 187.915 205.454C177.239 190.981 195.564 192.174 199.72 177.832Z" fill="#008300" stroke="black" stroke-width="0.598757"/>
<path fill-rule="evenodd" clip-rule="evenodd" d="M208.842 184.362C231.795 188.389 225.607 168.391 235.117 166.609C214.805 160.668 223.563 176.102 208.842 184.362Z" fill="#008300" stroke="black" stroke-width="0.598757"/>
<path fill-rule="evenodd" clip-rule="evenodd" d="M211.169 160.691C223.83 175.706 205.557 176.429 207.803 184.319C194.531 172.182 208.136 172.688 211.169 160.691Z" fill="#008300" stroke="black" stroke-width="0.598757"/>
<path fill-rule="evenodd" clip-rule="evenodd" d="M224.512 163.493C247.429 160.141 232.972 136.755 239.902 131.635C220.886 133.042 233.149 153.644 224.512 163.493Z" fill="#008300" stroke="black" stroke-width="0.598757"/>
<path fill-rule="evenodd" clip-rule="evenodd" d="M215.713 133.993C236.923 144.05 215.445 154.71 223.864 164.213C203.109 163.045 221.494 149.317 215.713 133.993Z" fill="#008300" stroke="black" stroke-width="0.598757"/>
<path fill-rule="evenodd" clip-rule="evenodd" d="M227.492 134.725C252.135 123.282 226.367 102.336 230.781 94.5294C213.961 111.475 239.544 118.03 227.492 134.725Z" fill="#008300" stroke="black" stroke-width="0.598757"/>
<path fill-rule="evenodd" clip-rule="evenodd" d="M211.676 106.239C232.894 108.921 222.341 128.449 226.645 135.328C210.159 131.553 223.529 121.61 211.676 106.239Z" fill="#008300" stroke="black" stroke-width="0.598757"/>
<path fill-rule="evenodd" clip-rule="evenodd" d="M221.93 100.317C234.05 82.1364 214.142 77.966 212.669 68.7135C206.871 92.7072 220.464 84.8179 221.93 100.317Z" fill="#008300" stroke="black" stroke-width="0.598757"/>
<path fill-rule="evenodd" clip-rule="evenodd" d="M198.019 85.1623C217.795 79.5558 214.329 99.3295 220.93 104.049C204.25 106.842 207.641 90.8276 198.019 85.1623Z" fill="#008300" stroke="black" stroke-width="0.598757"/>
<path fill-rule="evenodd" clip-rule="evenodd" d="M207.216 76.595C211.129 60.8097 203.257 63.4658 194.294 56.5886C189.421 69.293 201.472 67.8417 207.216 76.595Z" fill="#008300" stroke="black" stroke-width="0.598757"/>
<path fill-rule="evenodd" clip-rule="evenodd" d="M182.077 74.2823C197.358 63.0847 198.94 78.1762 206.797 80.2034C192.24 88.813 191.655 76.1045 182.077 74.2823Z" fill="#008300" stroke="black" stroke-width="0.598757"/>
<path fill-rule="evenodd" clip-rule="evenodd" d="M191.199 66.6915C190.696 59.9288 181.703 50.8639 172.206 54.0294C172.782 65.2526 183.645 68.2743 191.199 66.6915Z" fill="#008300" stroke="black" stroke-width="0.598757"/>
<path d="M131.712 47.0725L132.607 52.31L135.519 51.8122C136.275 51.6831 136.76 51.4828 136.975 51.2113C137.263 50.8538 137.361 50.2938 137.271 49.5315L137.633 49.4697L138.421 54.0818L138.06 54.1436C137.858 53.5143 137.696 53.1162 137.574 52.9494C137.418 52.7415 137.195 52.5952 136.906 52.5105C136.616 52.4259 136.195 52.4309 135.641 52.5255L132.729 53.0233L133.476 57.3912C133.576 57.9775 133.663 58.3313 133.738 58.4527C133.811 58.5675 133.919 58.6529 134.063 58.7088C134.206 58.7582 134.459 58.7517 134.824 58.6893L137.071 58.3051C137.821 58.1771 138.356 58.032 138.677 57.8698C138.997 57.7077 139.288 57.4468 139.548 57.0872C139.883 56.6142 140.193 55.9344 140.477 55.0478L140.868 54.981L140.293 58.4987L130.081 60.2443L130.02 59.8828L130.489 59.8026C130.801 59.7491 131.085 59.6235 131.339 59.4258C131.53 59.2859 131.643 59.1057 131.679 58.885C131.722 58.6631 131.688 58.2298 131.578 57.5849L130.106 48.9761C129.963 48.1358 129.789 47.6324 129.587 47.4659C129.308 47.2455 128.894 47.182 128.347 47.2755L127.878 47.3557L127.816 46.9942L138.028 45.2486L138.67 48.1257L138.289 48.1909C138.033 47.5172 137.798 47.0646 137.584 46.833C137.377 46.6002 137.099 46.4433 136.75 46.3622C136.472 46.3091 136.005 46.3387 135.347 46.4512L131.712 47.0725ZM151.194 53.4705L145.99 53.4973L145.089 55.6234C144.867 56.1467 144.756 56.5372 144.758 56.7949C144.759 56.9998 144.855 57.1811 145.048 57.3387C145.247 57.4896 145.67 57.5866 146.318 57.6295L146.321 57.9963L142.088 58.0182L142.085 57.6514C142.647 57.5493 143.009 57.4186 143.174 57.2591C143.509 56.9402 143.879 56.2939 144.284 55.3203L148.956 44.2328L149.302 44.2306L154.039 55.3884C154.421 56.2853 154.764 56.8684 155.069 57.1378C155.381 57.4005 155.812 57.547 156.36 57.5772L156.363 57.944L151.059 57.9714L151.057 57.6046C151.592 57.5754 151.952 57.4843 152.136 57.3314C152.327 57.1784 152.422 56.9929 152.421 56.7748C152.419 56.484 152.284 56.0254 152.017 55.3989L151.194 53.4705ZM150.913 52.7379L148.605 47.3173L146.293 52.7618L150.913 52.7379ZM171 46.6305L170.529 51.1865L170.226 51.1344C170.054 49.7167 169.644 48.6471 168.997 47.9256C168.35 47.2041 167.502 46.7532 166.454 46.5729C165.574 46.4217 164.741 46.5097 163.954 46.8371C163.168 47.1579 162.486 47.7715 161.907 48.6779C161.335 49.5855 160.925 50.7655 160.675 52.2179C160.469 53.4163 160.482 54.4882 160.715 55.4336C160.948 56.379 161.409 57.1522 162.097 57.7533C162.791 58.3556 163.633 58.7418 164.623 58.912C165.483 59.0599 166.273 59.008 166.994 58.7564C167.716 58.4983 168.565 57.8898 169.541 56.9312L169.81 57.1786C168.943 58.2433 168.02 58.973 167.04 59.3678C166.06 59.7626 164.961 59.8552 163.743 59.6458C161.548 59.2683 159.988 58.1618 159.063 56.3263C158.373 54.9603 158.168 53.4566 158.451 51.8153C158.678 50.4931 159.183 49.3294 159.966 48.324C160.75 47.3187 161.711 46.6022 162.851 46.1746C163.998 45.7415 165.187 45.6309 166.418 45.8426C167.376 46.0072 168.28 46.4041 169.131 47.0332C169.38 47.2235 169.563 47.3288 169.68 47.3489C169.856 47.3792 170.019 47.3433 170.171 47.2422C170.371 47.0955 170.533 46.872 170.658 46.5717L171 46.6305Z" fill="black"/>
<path d="M146.872 71.3621C145.39 71.4744 143.89 71.708 142.444 71.8977C140.852 75.284 137.01 78.6429 131.911 80.717C131.592 80.8466 131.239 80.9546 130.911 81.0741C125.375 83.0889 119.917 83.1322 116.307 81.5025C112.079 84.2767 108.204 87.5609 104.774 91.2502C104.775 91.2587 104.775 91.2845 104.774 91.2859C105.697 94.8971 104.899 99.9187 102.346 104.747C102.186 105.051 102.021 105.337 101.847 105.64C98.8872 110.766 94.6766 114.334 90.8492 115.387C90.8408 115.387 90.8157 115.387 90.8136 115.387C89.3353 120.223 88.4523 125.305 88.207 130.562C91.2471 132.729 93.8394 137.096 94.9911 142.452C95.0635 142.789 95.1447 143.108 95.2054 143.452C96.2283 149.254 95.2948 154.676 93.063 157.949C95.0544 162.645 97.5995 167.033 100.633 171.053C100.636 171.052 100.664 171.053 100.668 171.053C104.368 170.813 109.112 172.448 113.38 175.766C113.651 175.977 113.898 176.22 114.165 176.444C118.678 180.231 121.448 184.964 121.842 188.905C126.4 191.264 131.282 193.084 136.41 194.261C139.064 191.624 143.835 189.789 149.335 189.584C149.679 189.572 150.021 189.584 150.371 189.584C156.308 189.584 161.512 191.459 164.332 194.261C169.461 193.083 174.336 191.266 178.9 188.905C179.268 185.197 181.741 180.751 185.791 177.087C186.046 176.856 186.309 176.633 186.576 176.408C191.042 172.661 196.14 170.769 200.073 171.017C200.082 171.017 200.107 171.017 200.109 171.017C203.084 167.071 205.593 162.758 207.571 158.163C205.504 155.079 204.581 150.141 205.322 144.773C205.369 144.432 205.44 144.117 205.5 143.773C206.532 137.926 209.285 133.103 212.535 130.812C212.301 125.558 211.422 120.475 209.964 115.637C206.375 114.63 202.443 111.443 199.538 106.818C199.355 106.527 199.212 106.192 199.038 105.89C196.069 100.748 195.093 95.3079 196.11 91.4644C192.548 87.5974 188.51 84.1526 184.077 81.2883C180.681 82.859 175.569 82.9412 170.33 81.2526C170.003 81.1471 169.694 81.015 169.366 80.8955C163.83 78.8807 159.587 75.3951 157.869 71.8263C155.41 71.5306 152.909 71.3621 150.371 71.3621C149.968 71.3621 149.558 71.3549 149.157 71.3621C148.951 71.3657 148.755 71.3561 148.55 71.3621C148.407 71.3657 148.264 71.3561 148.121 71.3621C148.002 71.3669 147.884 71.3561 147.764 71.3621C147.652 71.3669 147.555 71.3561 147.443 71.3621C147.437 71.3624 147.413 71.362 147.407 71.3621C147.384 71.3619 147.359 71.3623 147.336 71.3621C147.329 71.362 147.303 71.3619 147.3 71.3621C147.297 71.3623 147.272 71.3622 147.264 71.3621C147.241 71.3619 147.217 71.3623 147.193 71.3621C147.186 71.362 147.161 71.3619 147.157 71.3621C147.151 71.3624 147.128 71.362 147.122 71.3621C147.098 71.3619 147.074 71.3623 147.05 71.3621C147.044 71.3623 147.021 71.3618 147.015 71.3621C146.967 71.3657 146.92 71.3585 146.872 71.3621L146.872 71.3621ZM142.158 71.8977C142.158 71.9061 142.158 71.9313 142.158 71.9334C142.162 71.9335 142.19 71.9332 142.194 71.9334C142.194 71.9297 142.194 71.902 142.194 71.8977C142.19 71.8976 142.162 71.8979 142.158 71.8977ZM158.869 195.225C158.868 195.228 158.87 195.259 158.869 195.261C158.873 195.26 158.9 195.262 158.904 195.261C158.908 195.26 158.901 195.226 158.904 195.225C158.903 195.228 158.87 195.222 158.869 195.225Z" fill="#FF0000"/>
<path d="M203.518 133.31C203.518 162.646 179.708 186.456 150.372 186.456C121.036 186.456 97.2266 162.646 97.2266 133.31C97.2266 103.974 121.036 80.1646 150.372 80.1646C179.708 80.1646 203.518 103.974 203.518 133.31Z" fill="#FBF014" stroke="black" stroke-width="0.55939"/>
<path d="M199.067 133.31C199.067 160.189 177.252 182.004 150.373 182.004C123.494 182.004 101.68 160.189 101.68 133.31C101.68 106.431 123.494 84.6165 150.373 84.6165C177.252 84.6165 199.067 106.431 199.067 133.31Z" fill="#FBF014" stroke="black" stroke-width="0.55939"/>
<path fill-rule="evenodd" clip-rule="evenodd" d="M135.827 109.331L151.935 112.194L149.787 128.302L136.185 137.609L128.668 129.376L129.026 116.132L135.827 109.331Z" fill="#0087FF" stroke="black" stroke-width="0.545605"/>
<path fill-rule="evenodd" clip-rule="evenodd" d="M131.327 121.21L125.044 121.426C125.044 121.426 124.736 121.364 124.612 121.364C124.489 121.364 124.397 121.395 124.397 121.395L124.304 121.734L124.15 121.826L124.027 122.258L123.534 122.504L123.504 122.781L123.042 123.089L122.456 123.459L122.179 123.366L122.056 122.781L121.871 122.75L121.224 122.874L120.762 122.997L120.732 122.227L120.547 122.011V120.594H120.855L120.947 119.208L121.101 118.87L121.04 118.592L121.532 118.161L121.871 117.915L122.056 117.545L122.087 117.083L122.272 116.899L122.025 116.683L121.686 116.868L121.255 116.591L121.224 116.005L121.317 115.697L121.656 115.482L121.81 115.574L122.025 114.311L122.549 113.973L122.302 113.203L122.487 112.741L122.395 112.156L123.719 111.663L123.842 111.139L123.966 110.554L124.52 110.4L124.951 110.154L125.228 110.924L125.259 111.324L125.629 111.262L125.844 110.739L126.183 110.585L126.306 110.123L127.169 109.076L127.323 108.768L128.031 108.46L128.524 108.367L128.986 107.874L129.201 107.566L129.171 107.197L129.386 107.289L129.725 106.889L129.479 106.519L129.633 106.242L129.448 105.503L129.232 105.287L129.294 105.072L128.955 105.565L128.585 105.411L128.524 104.949L128.123 105.041L127.754 104.979L127.323 104.394L127.076 104.517V104.918L126.83 104.764L126.645 104.271L126.214 104.302L126.399 103.655L126.953 102.515L127.045 101.961L126.399 101.407L126.799 100.144L127.415 99.4664L127.384 98.8504L126.984 98.9736L127.477 98.2036L128.585 97.6492L129.171 97.7108L130.156 98.3268L130.495 98.1112L130.926 98.0496L131.542 97.5876L132.374 98.2344L132.343 98.604L132.928 98.6348L133.174 99.0044H133.513L133.544 98.4808L134.591 97.9572L136.254 97.8032L137.517 97.1872L138.225 97.68L140.012 97.7724L142.445 95.4933L150.42 97.1889L149.968 110.899L141.829 115.389L141.367 115.112L141.121 115.297L140.997 115.174L141.09 114.558L140.566 114.65L140.412 115.359H139.95L139.396 115.081L139.457 114.835L139.919 114.897L139.889 114.65L139.55 114.465L139.057 114.558L139.088 114.25L139.457 113.849L139.365 113.695L139.057 114.034L138.687 113.88L138.379 114.096L138.687 114.527L138.256 114.773L138.225 115.051L137.609 114.958V115.205H138.01L137.055 115.913L136.809 115.636L136.901 115.389H136.686L136.347 115.697L135.762 115.728L135.854 115.543L136.285 115.42L136.162 115.266L135.762 115.297V114.773L135.608 114.866L135.546 115.328L135.33 115.235L135.361 115.513L135.33 115.79L135.361 116.005L135.146 116.067L135.084 115.913L134.776 116.036L134.591 115.759C134.591 115.759 134.252 115.821 134.314 115.975C134.376 116.129 134.437 116.406 134.437 116.406L133.852 116.221L133.606 116.067V116.652L133.236 116.745L132.743 116.283L132.959 116.775L132.404 116.745L132.066 116.96L132.343 117.268L132.558 117.515L132.805 117.792L132.682 118.038L132.466 117.915L132.096 118.469H131.819L131.604 118.931L131.388 119.085L131.48 119.332L131.665 119.393L131.634 119.67L131.419 119.609L130.926 120.225L131.019 120.44L131.296 120.41L131.327 121.21Z" fill="white" stroke="black" stroke-width="0.545605"/>
<path fill-rule="evenodd" clip-rule="evenodd" d="M142.2 121.329L159.553 130.834L159.797 132.15L159.163 132.54L159.358 133.174L159.943 133.271L160.138 133.905L166.865 138.731L167.352 138.438L167.937 138.682L168.083 138.048L168.473 137.658L169.253 135.952L168.814 135.806L169.107 135.172L169.497 135.27L170.082 134.49L170.179 133.807L169.692 133.466L170.277 133.661L170.764 132.199L171.447 132.004L171.593 130.98L171.934 130.639C171.934 130.639 171.495 129.42 171.885 128.982C172.275 128.543 173.835 128.592 173.835 128.592L174.81 127.568V127.178L175.395 126.74L174.81 125.716L175.931 126.057L176.857 125.716L177.393 125.765L178.319 124.449V123.961L175.541 120.403V102.758L177.198 101.149L179.928 97.3958L179.148 97.0546L176.37 97.4445L175.687 96.4697H175.346L175.151 95.9335L174.664 95.641L170.082 97.6395L169.887 98.4194L168.814 99.443L168.717 99.9305L168.473 99.9792L168.229 99.833L163.501 98.7119L163.306 99.1018L161.698 99.0531L156.19 95.0561H152.046L151.218 94.7149L151.169 94.1787H143.711L142.005 95.8847L142.444 97.6883L143.078 97.7858L143.419 98.6631H144.15L144.004 99.4918L143.858 99.638L143.809 100.564L144.101 101.1L144.589 101.393L144.637 102.173L145.564 102.563L145.71 103.586L146.246 103.976L146.392 104.415L146.002 104.951L146.636 105.877L146.441 106.511L146.733 107.242V107.535L146.587 108.461L146.197 108.753L145.954 109.338L145.661 109.436L145.807 110.508L144.979 110.605L144.589 111.093L144.199 110.849L144.15 111.873L143.711 112.604H143.224V113.043L142.639 113.238L142.444 114.066V114.749L141.81 115.187L141.664 115.967L141.859 116.503L142.2 116.698L142.493 116.503L142.346 117.04L142.883 117.283L143.126 117.917L143.711 117.576L143.614 117.137H144.442L145.369 116.698L145.612 117.235L146.051 117.624L145.905 117.771L145.417 117.673L145.174 118.014L144.832 117.868L144.004 117.819L143.906 118.161L144.345 118.453L143.955 118.746L143.663 118.453L143.273 118.648L142.98 118.453L142.493 118.307L142.59 118.892H142.152L141.908 119.72L142.346 120.159L142.785 120.403L142.444 121.085L142.2 121.329Z" fill="white" stroke="black" stroke-width="0.545605"/>
<path fill-rule="evenodd" clip-rule="evenodd" d="M168.891 154.343L169.428 153.806V153.47L169.964 153.403L170.278 152.799L170.345 153.605L170.054 153.806L170.099 154.276L169.718 154.253L169.83 154.701L169.629 154.678L169.607 154.388L168.891 154.343Z" fill="white" stroke="black" stroke-width="0.545605"/>
<path fill-rule="evenodd" clip-rule="evenodd" d="M167.011 145.797L167.033 144.79L166.832 144.611L167.503 144.097L167.615 143.492L168.309 143.224L168.107 143.895L167.839 143.962L167.749 144.768L168.13 145.26V145.707L168.465 145.909L168.913 146.513V146.982L168.599 147.229L167.973 146.468L167.391 146.647L167.011 145.797Z" fill="white" stroke="black" stroke-width="0.545605"/>
<path fill-rule="evenodd" clip-rule="evenodd" d="M169.247 141.904L169.381 141.3L169.649 140.606L169.18 139.443L169.717 139.51L169.918 140.025L170.276 140.159L170.321 139.622C170.321 139.622 170.567 139.443 170.477 139.712C170.388 139.98 170.276 140.942 170.276 140.942L170.544 141.524L170.142 142.061L169.694 142.508L169.247 141.904Z" fill="white" stroke="black" stroke-width="0.545605"/>
<path fill-rule="evenodd" clip-rule="evenodd" d="M172.805 166.356L170.746 167.967L168.017 169.041L167.346 169.533L165.959 169.578L164.974 169.936L164.303 170.159L163.543 170.965L162.335 170.115H160.903L160.411 170.652L160.321 171.457L159.381 171.904L158.8 171.77L158.442 172.218L156.831 171.994L156.339 171.457L155.489 171.591L154.325 172.441L153.789 172.262L153.654 171.949L153.252 172.039L152.894 172.262L152.222 172.128L152.267 171.591L151.73 171.412L151.149 170.607L150.388 170.696L150.164 171.099L149.627 171.591L149.001 171.368L146.719 171.412L146.137 170.338H145.6L144.885 168.951L144.929 168.057L145.198 167.833L145.287 166.893L144.706 166.446L144.84 165.014L144.571 164.611L144.482 163.985L143.453 162.956L143.542 162.508L142.155 161.524H141.797L141.708 162.419L141.216 162.329L140.858 161.927L139.336 162.24L138.71 161.479L138.039 161.569L137.412 161.077L136.607 161.121L135.981 160.495L134.683 160.54L134.37 159.645L133.52 159.734L133.117 159.376L132.133 159.466L132.043 158.929L130.88 158.839L130.298 158.392L130.253 157.587L129.359 157.184L128.553 157.363L128.24 156.378L127.569 155.752L127.39 154.902L126.361 153.381V152.844L125.779 152.217V150.92L125.242 150.383L125.287 149.801L125.555 149.756L125.511 149.264L124.75 148.727L124.437 148.146L123.363 147.117L122.871 147.295H122.379L121.349 146.043L121.305 145.416L121.752 144.835H122.334L122.557 144.387L122.423 143.85L121.528 142.329L121.618 141.568L121.976 141.3L121.752 140.405L120.812 139.555V138.526L121.036 137.855V137.541L121.886 137.139L122.379 136.87L122.871 136.512L122.96 136.065L123.766 135.617L123.721 135.17L124.571 134.409L124.616 133.828L124.929 133.067L125.958 132.62L125.913 132.351L126.763 131.904L126.674 130.785L126.853 130.427L126.45 130.203L126.092 130.293L125.511 130.024L124.884 130.203L124.705 129.667L125.287 128.995L124.974 128.727L125.376 127.877L126.898 127.653L126.853 126.534L127.121 126.177L126.54 125.326L126.629 123.939L126.226 123.447L126.316 123.044L125.466 122.508L124.884 121.478L125.779 121.344L126.182 121.031H131.417L131.64 121.434L131.685 121.926L131.506 122.105L131.327 122.776L131.104 123.313L131.059 123.581L131.014 124.163L130.88 124.834L130.656 125.058V125.595L130.432 125.819L130.88 125.908L130.746 126.534L130.567 127.206L130.969 127.34L131.73 127.25L131.282 128.1L131.104 128.772L131.327 129.622L131.954 129.085L132.446 129.443L132.312 128.682L132.535 128.056L133.117 128.369L133.341 128.1L132.983 127.564L133.654 126.982L134.191 127.743L134.683 127.832L134.996 128.548L135.444 127.608L135.623 128.279L136.204 128.145L136.249 128.861L136.652 129.443L135.936 129.801L135.981 130.561L136.428 130.427L136.473 129.845L137.054 129.667L136.786 129.085L136.607 128.458L137.278 127.519L137.77 127.608L138.173 128.235L139.157 128.19L140.097 127.295L141.26 126.937L141.037 126.132H140.723L140.276 126.669L138.934 126.445L138.441 126.177L138.084 126.4L137.681 126.534L136.517 125.998V125.55L136.204 125.326L136.696 125.147L137.054 125.595L137.412 125.55L137.86 125.326L138.441 125.863L139.336 125.684V125.237L138.755 125.058L138.844 124.7L139.739 124.655L139.963 124.342L140.723 124.118L140.276 123.492L140.321 123.134L141.618 123.492L141.037 122.865L141.171 122.284L142.021 122.776L142.066 122.552L141.395 122.06L142.334 121.12L159.918 130.696L160.097 132.038L159.471 132.441V133.157L160.232 133.067L160.276 133.783L166.988 138.302L167.435 139.063L167.077 139.465L166.764 140.137L166.585 141.166L166.272 141.703V142.597L165.69 143.179L165.243 144.298V145.148L165.601 145.729L165.377 146.624L166.048 147.206H166.585L167.883 148.727L168.554 149.354L168.867 150.025L168.509 150.875L168.062 151.009L167.659 152.396L167.704 153.425L168.196 153.918L168.062 154.589L167.704 155.484L167.435 156.378L167.704 157.363L168.062 158.123L168.375 158.347V158.974L168.106 158.929L168.464 159.779L169.091 160.003L169.18 161.255L168.912 161.211L168.957 161.569L169.583 162.061L169.851 163.448L169.538 163.94L169.717 164.209L170.523 164.388L170.836 165.103L171.462 164.88L172.447 165.417L172.849 166.043L172.805 166.356Z" fill="white" stroke="black" stroke-width="0.545605"/>
<path fill-rule="evenodd" clip-rule="evenodd" d="M117.801 128.118C117.466 127.528 119.202 126.52 119.183 125.735C119.152 124.354 119.877 123.756 121.254 123.071C121.424 122.986 122.245 122.54 122.459 122.683C122.75 122.876 122.863 123.542 123.33 123.1C123.696 122.752 124.896 121.223 125.571 121.424C125.256 122.215 126.051 123.214 126.474 123.801C126.998 124.534 127.534 125.795 127.396 126.637C127.219 127.696 126.512 127.834 125.464 127.494C124.284 127.108 123.993 128.028 122.977 127.258C122.825 128.214 122.92 129.257 121.569 129.496C120.881 129.618 120.244 129.695 119.903 129.106C119.537 128.458 118.552 128.509 118.476 129.284C118.047 128.942 117.839 128.625 117.801 128.118Z" fill="white" stroke="black" stroke-width="0.670696"/>
<path fill-rule="evenodd" clip-rule="evenodd" d="M118.477 129.285C119.07 127.644 120.105 129.437 120.257 129.453C122.378 129.663 122.801 129.071 122.977 127.259C124.139 128.114 123.766 126.876 126.399 127.656C125.951 127.841 124.827 128.891 125.704 128.858C124.959 130.515 126.43 130.58 127.251 130.371C126.746 131.022 127.87 131.295 126.803 131.947C126.146 132.35 126.165 132.124 126.014 132.849C125.976 133.028 125.212 132.939 125.086 133.17C124.94 133.426 125.547 134.014 125.471 134.177C125.427 134.283 125.098 134.843 124.543 135.191C123.678 135.735 123.558 136.377 122.63 136.886C122.176 137.136 121.715 137.21 121.305 137.211C121.14 136.739 120.162 134.962 119.973 134.379C119.695 133.538 120.087 132.667 119.43 131.936C119.505 131.524 119.739 131.021 119.354 130.564C119.013 130.16 118.628 129.78 118.477 129.285Z" fill="white" stroke="black" stroke-width="0.670696"/>
</g>
<defs>
<clipPath id="clip0_164_8832">
<rect width="300" height="300" fill="white"/>
</clipPath>
</defs>
</svg>
