<svg width="300" height="300" viewBox="0 0 300 300" fill="none" xmlns="http://www.w3.org/2000/svg">
<path d="M149.645 262.356C211.341 262.356 261.356 211.832 261.356 149.509C261.356 87.1847 211.341 36.6613 149.645 36.6613C87.9485 36.6613 37.9336 87.1847 37.9336 149.509C37.9336 211.832 87.9485 262.356 149.645 262.356Z" fill="white" stroke="#554400" stroke-width="1.11752"/>
<path d="M52.7779 198.588C54.8374 197.764 58.3902 198.141 60.54 196.982C62.9024 195.818 66.2222 195.426 69.3727 195.643C71.7559 196.764 74.9292 197.476 77.9377 198.052C81.6251 198.479 83.6311 197.197 87.204 197.528C89.5141 196.923 92.2501 195.315 95.4635 195.911C98.4056 196.056 100.906 197.478 104.168 198.052C107.293 198.901 110.025 197.296 113.268 197.785C117.502 198.497 122.419 198.913 125.55 199.949C127.805 201.029 131.155 200.986 133.509 200.193C136.867 199.989 140.665 200.677 143.664 199.714C145.159 197.657 148.955 199.189 151.544 199.123C154.638 199.731 157.777 200.721 160.644 201.532C165.007 201.489 169.445 201.786 173.657 200.996C176.978 200.265 180.314 200.6 183.662 200.996C186.384 201.001 189.211 201.175 191.488 200.461C194.291 200.269 197.655 199.255 198.919 197.249C201.681 197.28 202.838 198.966 204.807 199.658C206.387 200.784 209.566 201.477 212.569 202.335C216.713 203.451 221.313 203.018 225.583 203.652C229.163 203.786 232.569 204.642 235.527 205.575C238.706 206.319 241.064 206.841 243.35 208.223C247.492 207.942 248.008 210.874 248.168 215.45C247.641 218.404 247.792 221.579 247.097 224.55C245.111 229.189 241.942 234.548 238.686 239.285C234.318 244.071 230.818 249.042 225.342 252.789C219.482 256.661 213.525 260.544 206.949 262.825C201.866 265.77 191.399 267.393 188.984 268.787C182.117 270.117 175.018 271.899 167.871 271.926C153.411 272.587 138.925 273.188 124.382 272.996C116.962 272.596 110.092 269.764 103.097 267.643C98.2404 263.94 92.7441 263.406 86.7704 260.149C80.3985 256.981 73.1342 253.667 67.9362 249.907C61.4662 246.321 56.3171 240.015 56.2926 232.359C55.0277 225.147 52.0519 218.179 50.7398 211.175C51.3567 207.298 44.673 198.843 50.1013 199.123C49.8464 199.13 51.5426 198.593 52.7779 198.588Z" fill="#D4AA00" stroke="#554400" stroke-width="1.11752"/>
<path d="M89.0805 132.475C88.0797 131.555 87.6828 133.622 88.2231 133.747C86.5066 134.658 85.9977 136.683 84.7968 138.068C83.8259 139.036 82.5812 139.701 81.691 140.751C80.5374 141.602 79.7396 142.834 78.9462 143.998C78.6075 145.056 77.7768 145.687 78.101 146.89C78.1045 148.652 78.1156 150.415 78.0717 152.177C78.9237 153.375 78.0086 154.98 78.7577 156.2C79.3446 156.304 80.1834 155.269 80.941 155.026C81.8563 154.577 82.337 153.674 82.7956 152.825C83.672 152.219 83.8468 151.171 84.5054 150.397C85.2834 149.28 86.1603 148.211 87.2712 147.411C87.8847 146.386 88.8383 145.631 89.4158 144.623C90.5518 142.53 91.0842 140.188 91.5681 137.876C91.7044 137.094 91.7784 136.297 91.7299 135.503" fill="#D4AA00"/>
<path d="M89.0805 132.475C88.0797 131.555 87.6828 133.622 88.2231 133.747C86.5066 134.658 85.9977 136.683 84.7968 138.068C83.8259 139.036 82.5812 139.701 81.691 140.751C80.5374 141.602 79.7396 142.834 78.9462 143.998C78.6075 145.056 77.7768 145.687 78.101 146.89C78.1045 148.652 78.1156 150.415 78.0717 152.177C78.9237 153.375 78.0086 154.98 78.7577 156.2C79.3446 156.304 80.1834 155.269 80.941 155.026C81.8563 154.577 82.337 153.674 82.7956 152.825C83.672 152.219 83.8468 151.171 84.5054 150.397C85.2834 149.28 86.1603 148.211 87.2712 147.411C87.8847 146.386 88.8383 145.631 89.4158 144.623C90.5518 142.53 91.0842 140.188 91.5681 137.876C91.7044 137.094 91.7784 136.297 91.7299 135.503" stroke="#554400" stroke-width="1.11752"/>
<path d="M97.03 137.396C97.9224 140.841 97.1442 144.658 97.4083 148.249C97.3907 151.21 97.887 154.088 97.9074 157.058C98.2641 160.119 98.479 164.413 97.808 166.885C95.9804 168.373 94.5192 170.847 95.2161 173.569C93.3885 175.571 94.4773 178.722 95.9687 180.575C97.662 182.615 98.9025 185.05 99.9526 187.453C100.928 189.775 102.311 191.999 103.938 193.976C104.901 196.103 106.476 197.996 107.77 200.278C107.567 201.555 109.65 202.782 109.839 204.009C110.357 203.7 114.067 204.936 114.77 202.353C114.168 200.398 114.595 196.579 113.019 194.692C110.614 192.655 108.149 190.723 107.514 187.539C106.138 184.83 105.428 182.24 105.358 179.324C105.684 176.36 104.608 173.056 106.092 170.367C107.966 167.868 109.073 164.036 110.43 161.208C113.048 155.914 114.539 151.46 115.251 145.693C115.579 141.888 119.352 139.732 120.535 136.374C121.887 134.316 121.272 131.733 122.013 129.447" fill="#D4AA00"/>
<path d="M97.03 137.396C97.9224 140.841 97.1442 144.658 97.4083 148.249C97.3907 151.21 97.887 154.088 97.9074 157.058C98.2641 160.119 98.479 164.413 97.808 166.885C95.9804 168.373 94.5192 170.847 95.2161 173.569C93.3885 175.571 94.4773 178.722 95.9687 180.575C97.662 182.615 98.9025 185.05 99.9526 187.453C100.928 189.775 102.311 191.999 103.938 193.976C104.901 196.103 106.476 197.996 107.77 200.278C107.567 201.555 109.65 202.782 109.839 204.009C110.357 203.7 114.067 204.936 114.77 202.353C114.168 200.398 114.595 196.579 113.019 194.692C110.614 192.655 108.149 190.723 107.514 187.539C106.138 184.83 105.428 182.24 105.358 179.324C105.684 176.36 104.608 173.056 106.092 170.367C107.966 167.868 109.073 164.036 110.43 161.208C113.048 155.914 114.539 151.46 115.251 145.693C115.579 141.888 119.352 139.732 120.535 136.374C121.887 134.316 121.272 131.733 122.013 129.447" stroke="#554400" stroke-width="1.11752"/>
<path d="M174.627 146.48C175.931 151.662 175.196 157.038 175.388 162.314C175.825 164.971 174.022 167.226 174.62 169.918C174.684 172.921 174.403 175.923 175.145 178.884C175.179 182.244 176.413 185.501 176.103 188.872C176.33 191.495 176.706 194.069 176.892 196.675C176.648 198.931 177.785 201.157 179.798 202.215C181.224 204.201 180.876 205.11 179.827 208.773C177.028 209.095 179.575 208.713 176.783 208.987C174.341 208.235 170.646 207.799 169.807 205.17C168.811 202.86 169.308 199.528 169.818 196.912C169.957 194.359 168.726 191.886 168.206 189.6C167.369 188.558 167.857 187.163 166.607 186.115C167.373 187.777 165.759 184.509 165.531 182.447C165.352 179.59 164.431 176.995 165.221 174.131C165.351 171.546 164.175 169.231 163.583 166.777C162.653 164.179 163.086 161.313 162.662 158.753C161.412 156.471 162.49 153.452 162.142 150.838C162.143 150.395 162.142 149.951 162.136 149.508" fill="#D4AA00"/>
<path d="M174.627 146.48C175.931 151.662 175.196 157.038 175.388 162.314C175.825 164.971 174.022 167.226 174.62 169.918C174.684 172.921 174.403 175.923 175.145 178.884C175.179 182.244 176.413 185.501 176.103 188.872C176.33 191.495 176.706 194.069 176.892 196.675C176.648 198.931 177.785 201.157 179.798 202.215C181.224 204.201 180.876 205.11 179.827 208.773C177.028 209.095 179.575 208.713 176.783 208.987C174.341 208.235 170.646 207.799 169.807 205.17C168.811 202.86 169.308 199.528 169.818 196.912C169.957 194.359 168.726 191.886 168.206 189.6C167.369 188.558 167.857 187.163 166.607 186.115C167.373 187.777 165.759 184.509 165.531 182.447C165.352 179.59 164.431 176.995 165.221 174.131C165.351 171.546 164.175 169.231 163.583 166.777C162.653 164.179 163.086 161.313 162.662 158.753C161.412 156.471 162.49 153.452 162.142 150.838C162.143 150.395 162.142 149.951 162.136 149.508" stroke="#554400" stroke-width="1.11752"/>
<path d="M162.653 152.613C161.947 160.454 164.725 167.739 165.679 175.337C163.856 184.992 172.853 193.156 169.684 202.997C169.094 207.795 181.176 207.752 173.735 204.068C168.96 197.301 171.752 187.945 169.637 180.273C167.754 170.421 171.136 160.819 169.684 150.89C167.34 151.464 164.996 152.039 162.653 152.613Z" fill="#AA8800"/>
<path d="M101.443 138.435C101.234 147.197 102.571 156.019 102.305 164.722C101.487 167.853 98.6663 170.049 99.0218 173.499C97.2093 178.007 103.242 180.994 103.888 185.257C106.465 190.329 110.118 194.945 112.642 199.925C113.468 196.262 110.292 194.089 108.102 191.776C103.462 184.908 102.071 175.638 104.656 167.748C109.137 159.633 112.803 150.917 114.109 141.742C115.465 138.408 118.548 136.089 119.627 132.638C113.566 134.57 107.505 136.503 101.443 138.435Z" fill="#AA8800"/>
<path d="M110.834 135.226C107.475 135.764 104.723 138.168 101.568 139.394C101.45 145.85 102.511 152.263 102.499 158.718C106.24 152.029 106.96 144.125 109.704 137.125C109.915 136.572 111.167 135.376 110.834 135.226Z" fill="#806600"/>
<path d="M90.2154 129.447C93.2204 132.68 97.8716 133.849 102.097 132.75C106.508 131.843 109.928 135.178 112.25 138.456C115.566 141.955 119.813 144.645 124.114 146.809C128.218 148.748 132.877 148.917 137.346 148.717C141.199 148.786 144.036 152.232 148.005 152.18C152.448 151.353 156.286 153.266 159.968 155.441C164.884 158.032 169.415 154.483 171.512 150.093C173.813 146.239 178.866 145.604 181.49 141.996C183.523 139.087 186.592 137.159 187.118 132.854C188.5 128.876 188.594 123.678 184.919 121.037C182.845 117.319 181.789 114.549 178.296 112.272C176.063 109.954 173.755 107.897 171.343 105.372C168.721 102.672 167.635 102.464 165.314 100.619C162.351 98.1389 157.671 98.6412 154.526 98.0515C151.507 96.8623 147.943 95.921 145.016 94.6428C140.276 94.5354 138.654 88.6412 134.8 86.8781C131.936 84.5731 129.699 84.3171 125.682 85.4309C121.325 87.5849 117.834 91.2387 117.287 96.0973C115.483 99.6304 110.872 102.861 107.578 104.883C103.903 107.399 102.792 110.042 97.9939 110.795C94.5565 113.035 91.4914 115.239 90.9512 119.913C89.4607 122.659 89.2157 126.078 90.2154 129.447Z" fill="#D4AA00" stroke="#554400" stroke-width="1.11752"/>
<path d="M113.664 130.154C109.715 130.896 112.075 135.843 113.78 137.907C118.377 143.112 125.316 144.906 132.264 144.449C137.143 142.19 141.941 140.563 147.633 140.745C151.221 140.629 144.942 138.373 143.443 137.464C138.233 135.24 133.195 141.657 128.309 137.79C123.76 135.131 119.449 131.675 114.409 130.13C114.161 130.136 113.91 130.112 113.664 130.154Z" fill="#AA8800"/>
<path d="M127.707 144.575C131.292 145.442 134.08 143.539 143.259 140.946C137.905 137.688 132.913 141.465 128.731 140.51C124.819 139.616 121.924 136.13 118.147 134.773C115.36 133.773 111.833 129.202 109.43 133.072C109.918 137.928 114.713 139.469 118.206 141.554C121.06 143.257 124.302 143.751 127.707 144.575Z" fill="#806600"/>
<path d="M89.5058 125.394C88.7395 129.246 87.6619 132.032 88.0236 135.999C86.997 137.971 87.3787 140.04 86.4581 141.924C87.1257 145.361 85.2409 148.112 85.7206 151.512C84.0762 152.768 85.5315 155.498 84.2027 157.093C83.815 158.387 80.6718 161.102 80.0394 160.408C76.7853 167.908 78.3675 174.748 77.7809 184.249C77.5315 186.955 78.3639 189.577 78.1501 192.284C78.1501 196.358 76.8118 202.038 75.875 207.048C77.6532 208.067 80.7893 208.842 82.8966 206.332C86.2782 204.768 85.1114 200.177 85.3421 197.161C84.6412 193.608 84.4024 189.933 84.5839 186.106C85.0708 182.4 85.6326 178.585 86.0991 174.837C87.1779 172.415 86.4388 169.359 88.3703 167.031C90.114 164.046 92.1773 160.96 95.0506 159.067C97.6019 157.574 99.0389 154.887 101.649 153.251C103.923 150.013 105.76 146.49 107.297 142.806C108.285 139.258 108.05 135.302 110.325 132.207C111.835 133.028 110.989 131.022 112.217 131.45" fill="#D4AA00"/>
<path d="M89.5058 125.394C88.7395 129.246 87.6619 132.032 88.0236 135.999C86.997 137.971 87.3787 140.04 86.4581 141.924C87.1257 145.361 85.2409 148.112 85.7206 151.512C84.0762 152.768 85.5315 155.498 84.2027 157.093C83.815 158.387 80.6718 161.102 80.0394 160.408C76.7853 167.908 78.3675 174.748 77.7809 184.249C77.5315 186.955 78.3639 189.577 78.1501 192.284C78.1501 196.358 76.8118 202.038 75.875 207.048C77.6532 208.067 80.7893 208.842 82.8966 206.332C86.2782 204.768 85.1114 200.177 85.3421 197.161C84.6412 193.608 84.4024 189.933 84.5839 186.106C85.0708 182.4 85.6326 178.585 86.0991 174.837C87.1779 172.415 86.4388 169.359 88.3703 167.031C90.114 164.046 92.1773 160.96 95.0506 159.067C97.6019 157.574 99.0389 154.887 101.649 153.251C103.923 150.013 105.76 146.49 107.297 142.806C108.285 139.258 108.05 135.302 110.325 132.207C111.835 133.028 110.989 131.022 112.217 131.45" stroke="#554400" stroke-width="1.11752"/>
<path d="M166.229 154.904C165.85 163.565 169.787 171.697 169.232 180.329C169.455 182.818 169.843 185.247 170.955 187.547C169.548 178.907 169.471 170.108 170.536 161.493C169.892 159.15 172.435 152.552 168.387 154.382C167.668 154.556 166.948 154.73 166.229 154.904ZM173.284 204.404C173.27 205.685 175.697 206.461 173.912 204.823C173.657 204.694 173.278 203.316 173.284 204.404Z" fill="#806600"/>
<path d="M149.262 150.266C149.439 152.958 150.17 155.584 150.378 158.271C150.301 161.37 150.407 164.438 150.915 167.499C151.29 170.356 151.452 173.202 151.714 176.068C151.991 179.209 151.906 182.366 152.346 185.498C152.374 188.637 152.562 191.8 152.919 194.931C154.08 197.384 150.266 201.882 154.182 202.673C156.427 203.842 155.893 207.091 157.662 208.692C159.945 210.042 158.454 211.528 160.925 212.592C161.932 213.771 167.099 212.785 166.83 212.525C167.16 212.687 167.656 210.753 167.64 209.209C168.318 213.012 173.344 210.896 173.19 208.89C171.5 206.289 168.643 204.771 166.509 202.57C164.89 200.773 162.793 201.042 162.345 198.94C161.592 197.657 160.207 197.612 160.447 195.654C160.134 192.661 161.091 189.772 160.982 186.801C160.963 183.789 161.463 180.823 161.589 177.803C162.074 174.052 162.691 170.314 163.231 166.569C163.959 163.682 166.354 161.668 167.475 158.962C169.211 156.494 169.236 153.476 169.864 150.648C170.129 149.068 169.653 148.523 170.459 147.238" fill="#D4AA00"/>
<path d="M149.262 150.266C149.439 152.958 150.17 155.584 150.378 158.271C150.301 161.37 150.407 164.438 150.915 167.499C151.29 170.356 151.452 173.202 151.714 176.068C151.991 179.209 151.906 182.366 152.346 185.498C152.374 188.637 152.562 191.8 152.919 194.931C154.08 197.384 150.266 201.882 154.182 202.673C156.427 203.842 155.893 207.091 157.662 208.692C159.945 210.042 158.454 211.528 160.925 212.592C161.932 213.771 167.099 212.785 166.83 212.525C167.16 212.687 167.656 210.753 167.64 209.209C168.318 213.012 173.344 210.896 173.19 208.89C171.5 206.289 168.643 204.771 166.509 202.57C164.89 200.773 162.793 201.042 162.345 198.94C161.592 197.657 160.207 197.612 160.447 195.654C160.134 192.661 161.091 189.772 160.982 186.801C160.963 183.789 161.463 180.823 161.589 177.803C162.074 174.052 162.691 170.314 163.231 166.569C163.959 163.682 166.354 161.668 167.475 158.962C169.211 156.494 169.236 153.476 169.864 150.648C170.129 149.068 169.653 148.523 170.459 147.238" stroke="#554400" stroke-width="1.11752"/>
<path d="M179.93 140.802C181.796 140.517 184.435 141.532 185.418 139.97C193.357 142.046 197.831 137.222 204.219 134.039C208.041 130.688 209.387 129.084 211.34 124.3C211.386 122.968 211.188 125.538 211.502 124.081C212.944 117.25 213.186 110.355 213.238 103.347C212.404 101.948 214.995 99.1933 214.373 98.002C213.174 96.2906 211.353 95.1679 209.305 94.2281C207.882 92.1285 204.849 91.4446 203.199 89.782C202.469 88.0819 200.158 87.0188 199.759 87.3904C199.106 87.481 195.777 87.8969 197.259 87.8711C195.664 88.4737 194.073 88.6276 194.006 90.4795C192.986 91.903 193.834 94.6918 193.558 96.6584C193.54 97.1866 193.593 100.075 193.534 98.9809C195.175 103.555 194.584 109.32 192.8 114.684C191.031 115.421 189.15 117.336 186.792 117.654C184.517 118.223 182.973 115.479 180.93 114.7" fill="#D4AA00"/>
<path d="M179.93 140.802C181.796 140.517 184.435 141.532 185.418 139.97C193.357 142.046 197.831 137.222 204.219 134.039C208.041 130.688 209.387 129.084 211.34 124.3C211.386 122.968 211.188 125.538 211.502 124.081C212.944 117.25 213.186 110.355 213.238 103.347C212.404 101.948 214.995 99.1933 214.373 98.002C213.174 96.2906 211.353 95.1679 209.305 94.2281C207.882 92.1285 204.849 91.4446 203.199 89.782C202.469 88.0819 200.158 87.0188 199.759 87.3904C199.106 87.481 195.777 87.8969 197.259 87.8711C195.664 88.4737 194.073 88.6276 194.006 90.4795C192.986 91.903 193.834 94.6918 193.558 96.6584C193.54 97.1866 193.593 100.075 193.534 98.9809C195.175 103.555 194.584 109.32 192.8 114.684C191.031 115.421 189.15 117.336 186.792 117.654C184.517 118.223 182.973 115.479 180.93 114.7" stroke="#554400" stroke-width="1.11752"/>
<path d="M209.047 97.59C209.622 107.419 208.368 118.732 200.805 125.832C198.6 127.703 195.68 127.439 193.517 129.022C191.402 128.603 179.77 137.417 180.46 139.113C179.489 141.164 191.139 138.535 194.076 137.101C203.395 134.472 211.694 126.769 212.633 116.752C212.801 110.24 213.194 103.689 212.726 97.171C211.487 97.4622 209.389 95.0982 209.047 97.59Z" fill="#AA8800"/>
<path d="M211.935 100.808C213.1 110.227 209.438 127.903 205.309 129.593C203.078 132.176 188.528 136.094 189.534 138.545C189.567 140.392 192.969 139.262 195.827 137.326C208.95 133.475 213.315 123.149 212.628 114.788C212.677 110.235 213.088 105.173 212.717 100.905C212.452 100.964 211.538 99.5785 211.935 100.808Z" fill="#806600"/>
<path d="M202.719 97.6091C204.281 102.836 207.146 104.013 210.812 101.864C213.046 101.528 215.103 101.433 211.159 100.853C207.801 100.25 205.513 98.1212 202.719 97.6091Z" fill="#806600"/>
<path d="M203.396 97.2723C204.461 98.5007 205.419 99.9789 207.083 100.448C208.682 101.078 210.467 101.346 212.159 100.964C215.55 101.568 218.949 99.8163 222.399 98.7183C224.262 97.5764 226.219 98.3665 228.186 98.7925C229.862 99.0258 232.986 99.1177 232.225 96.5431C232.628 95.249 231.451 93.6714 231.315 92.9399C232.575 91.5732 231.782 88.934 230.332 88.0377C229.819 87.4817 229.913 88.6161 229.451 87.4392C229.086 86.2539 230.744 86.7262 229.598 85.3747C228.928 84.2835 227.715 84.9967 227.515 83.639C225.862 82.3647 223.863 82.6141 222.055 82.2007C220.436 80.7413 217.244 80.9772 214.666 80.9642C213.422 81.5377 212.831 79.5603 211.504 80.3268C207.896 80.3448 205.595 78.577 201.334 79.77C199.868 81.0788 199.227 83.0103 198.078 84.5386C197.537 86.0875 195.983 84.8716 195.579 86.534C194.74 88.1626 193.961 89.9644 194.327 91.8501C194.383 92.2845 194.491 92.7165 194.689 93.1089" fill="#D4AA00"/>
<path d="M203.396 97.2723C204.461 98.5007 205.419 99.9789 207.083 100.448C208.682 101.078 210.467 101.346 212.159 100.964C215.55 101.568 218.949 99.8163 222.399 98.7183C224.262 97.5764 226.219 98.3665 228.186 98.7925C229.862 99.0258 232.986 99.1177 232.225 96.5431C232.628 95.249 231.451 93.6714 231.315 92.9399C232.575 91.5732 231.782 88.934 230.332 88.0377C229.819 87.4817 229.913 88.6161 229.451 87.4392C229.086 86.2539 230.744 86.7262 229.598 85.3747C228.928 84.2835 227.715 84.9967 227.515 83.639C225.862 82.3647 223.863 82.6141 222.055 82.2007C220.436 80.7413 217.244 80.9772 214.666 80.9642C213.422 81.5377 212.831 79.5603 211.504 80.3268C207.896 80.3448 205.595 78.577 201.334 79.77C199.868 81.0788 199.227 83.0103 198.078 84.5386C197.537 86.0875 195.983 84.8716 195.579 86.534C194.74 88.1626 193.961 89.9644 194.327 91.8501C194.383 92.2845 194.491 92.7165 194.689 93.1089" stroke="#554400" stroke-width="1.11752"/>
<path d="M231.478 93.1342C229.585 93.1342 228.094 93.8033 226.202 93.8033C224.372 93.4778 223.552 92.9964 222.795 91.9796C222.705 91.8894 221.525 90.7751 221.281 90.7751C220.856 90.8535 219.631 90.7137 220.076 90.7751" fill="#D4AA00"/>
<path d="M231.478 93.1342C229.585 93.1342 228.094 93.8033 226.202 93.8033C224.372 93.4778 223.552 92.9964 222.795 91.9796C222.705 91.8894 221.525 90.7751 221.281 90.7751C220.856 90.8535 219.631 90.7137 220.076 90.7751" stroke="#554400" stroke-width="1.11752"/>
<path d="M229.7 87.9521C228.348 88.0923 228.799 88.3713 227.6 88.7322C226.534 89.0434 226.106 87.8485 225.801 87.5532" fill="#D4AA00"/>
<path d="M229.7 87.9521C228.348 88.0923 228.799 88.3713 227.6 88.7322C226.534 89.0434 226.106 87.8485 225.801 87.5532" stroke="#554400" stroke-width="1.11752"/>
<path d="M208.492 87.92C209.948 85.5342 213.227 87.647 215.241 87.9659C215.818 88.0187 217.023 87.991 217.149 87.991" fill="#D4AA00"/>
<path d="M208.492 87.92C209.948 85.5342 213.227 87.647 215.241 87.9659C215.818 88.0187 217.023 87.991 217.149 87.991" stroke="#554400" stroke-width="1.11752"/>
<path d="M195.646 85.8573C195.278 88.2975 197.027 91.7362 200.07 92.0039C202.445 89.0775 198.416 85.7707 195.646 85.8573Z" fill="#806600"/>
<path d="M201.862 84.8725C201.987 84.2081 201.892 83.3846 201.285 82.9784C199.713 80.488 197.062 78.7083 194.026 79.4841C193.443 79.2349 192.471 79.9018 193.205 80.4195C193.931 81.3257 193.914 82.5417 193.944 83.6406C194.039 84.3506 194.65 84.797 195.011 85.3639C195.295 85.9118 195.505 86.5376 196.043 86.8961C197.288 87.9252 198.895 88.3548 200.444 88.6835C200.538 88.6939 200.636 88.691 200.726 88.6592" fill="#D4AA00"/>
<path d="M201.862 84.8725C201.987 84.2081 201.892 83.3846 201.285 82.9784C199.713 80.488 197.062 78.7083 194.026 79.4841C193.443 79.2349 192.471 79.9018 193.205 80.4195C193.931 81.3257 193.914 82.5417 193.944 83.6406C194.039 84.3506 194.65 84.797 195.011 85.3639C195.295 85.9118 195.505 86.5376 196.043 86.8961C197.288 87.9252 198.895 88.3548 200.444 88.6835C200.538 88.6939 200.636 88.691 200.726 88.6592" stroke="#554400" stroke-width="1.11752"/>
<path d="M173.563 137.413C171.251 140.287 171.77 139.432 169.177 144.637C165.919 139.283 169.318 139.59 170.066 133.137C170.528 129.151 165.686 126.33 164.329 122.553C163.329 119.767 158.758 116.239 162.628 113.836C167.484 114.324 169.281 118.978 171.11 122.613C173.358 127.08 175.389 135.143 173.563 137.413Z" fill="#AA8800"/>
<path d="M60.0078 202.334C60.9578 205.137 62.9103 205.003 65.6286 205.278C68.0144 203.769 71.5568 202.694 74.729 203.672C75.1387 204.842 76.1236 203.715 76.6026 204.475" stroke="#554400" stroke-width="1.11752"/>
<path d="M64.5547 209.561C65.8594 211.239 66.8106 214.234 68.5695 216.52C69.9126 218.911 73.8519 219.004 76.064 219.732C76.2206 220.339 76.8331 221.012 77.1346 221.07" stroke="#554400" stroke-width="1.11752"/>
<path d="M77.6758 211.435C78.8262 212.383 81.4472 214.14 81.1553 215.985C81.2958 219.37 83.4105 221.918 86.5085 223.212H86.2408" stroke="#554400" stroke-width="1.11752"/>
<path d="M99.082 205.546C102.302 207.125 101.557 212.043 104.152 213.967C104.202 214.124 103.981 214.569 104.435 214.378" stroke="#554400" stroke-width="1.11752"/>
<path d="M103.637 206.082C105.419 208.347 106.267 210.17 108.455 211.435H108.722L108.99 211.703" stroke="#554400" stroke-width="1.11752"/>
<path d="M108.453 204.208C111.148 205.839 111.429 207.35 113.003 208.758C113.331 209.222 114.5 208.952 113.271 209.026" stroke="#554400" stroke-width="1.11752"/>
<path d="M132.813 202.601C130.548 203.759 128.501 206.822 125.854 208.49C122.677 210.941 120.714 212.185 117.231 212.735L117.423 212.806L116.754 212.772" stroke="#554400" stroke-width="1.11752"/>
<path d="M152.617 214.111C151.12 212.999 148.46 213.838 146.461 213.575C144.09 213.537 142.773 214.1 141.38 215.637L140.84 215.717" stroke="#554400" stroke-width="1.11752"/>
<path d="M134.414 211.702C135.881 214.654 136.377 217.922 136.555 221.07C137.368 222.998 139.974 223.473 140.303 226.155C140.596 229.225 138.718 232.563 140.543 235.274C141.392 235.493 142.555 236.58 142.711 236.594" stroke="#554400" stroke-width="1.11752"/>
<path d="M126.117 217.056C127.316 219.146 130.07 219.857 132.809 220.803C134.279 221.542 135.461 221.752 136.823 222.141" stroke="#554400" stroke-width="1.11752"/>
<path d="M114.341 218.661C114.725 217.825 111.134 221.833 112.2 224.866C112.414 226.943 110.029 227.72 108.988 228.565" stroke="#554400" stroke-width="1.11752"/>
<path d="M109.258 218.929C107.237 220.284 108.365 223.46 106.046 224.282C106.136 225.282 103.937 225.315 103.637 225.888" stroke="#554400" stroke-width="1.11752"/>
<path d="M166.537 217.591C166.927 220.002 167.187 222.996 165.734 224.015V225.085C166.415 224.801 165.572 225.922 166.27 225.888" stroke="#554400" stroke-width="1.11752"/>
<path d="M169.208 215.45C169.174 218.119 169.253 221.221 171.082 222.945C171.868 223.693 172.56 224.712 173.223 226.157C173.32 226.885 173.772 227.147 173.759 227.762" stroke="#554400" stroke-width="1.11752"/>
<path d="M173.758 219.465C174.07 222.289 176.52 223.224 177.76 225.103C178.327 225.387 178.358 226.4 178.843 226.959" stroke="#554400" stroke-width="1.11752"/>
<path d="M189.015 223.479C189.622 227.007 185.624 227.436 185.535 231.241" stroke="#554400" stroke-width="1.11752"/>
<path d="M162.25 225.888C165.064 225.998 168.131 225.446 170.28 226.959C172.997 227.514 174.157 229.054 176.861 230.269C178.06 231.99 181.141 232.632 183.395 233.115" stroke="#554400" stroke-width="1.11752"/>
<path d="M189.555 228.029C192.442 229.321 195.554 231.115 199.458 230.973C202.152 230.955 205.718 231.009 207.22 232.579" stroke="#554400" stroke-width="1.11752"/>
<path d="M212.841 212.505C213.119 215.281 211.766 218.295 209.629 219.197C207.559 221.119 203.431 220.136 202.938 222.944" stroke="#554400" stroke-width="1.11752"/>
<path d="M211.233 218.126C209.996 220.104 211.749 221.814 212.57 222.6C212.981 223.532 214.442 224.046 214.445 225.352" stroke="#554400" stroke-width="1.11752"/>
<path d="M222.473 214.379C222.057 216.971 223.59 219.212 222.473 221.338C222.163 222.013 221.81 222.79 221.402 223.212" stroke="#554400" stroke-width="1.11752"/>
<path d="M228.097 205.278C225.681 206.629 222.771 206.805 219.831 207.152C218.396 207.093 217.004 207.152 216.32 207.42" stroke="#554400" stroke-width="1.11752"/>
<path d="M205.876 208.758C203.691 209.086 202.141 210.71 201.092 211.981C200.794 213.614 197.847 215.48 197.578 214.379" stroke="#554400" stroke-width="1.11752"/>
<path d="M197.042 207.42C194.809 210.069 191.238 211.592 188.21 212.505C185.306 213.414 182.348 213.235 179.298 213.576C177.306 213.939 174.481 213.572 172.953 214.647" stroke="#554400" stroke-width="1.11752"/>
<path d="M102.297 18.1858C105.955 14.0818 107.204 9.44238 116.483 5.07064C122.817 2.66171 130.758 6.94424 136.289 5.87361C140.126 5.78435 143.427 4.62453 146.996 4C144.676 10.1561 139.68 12.2974 136.022 12.8327C126.873 16.2442 114.662 10.4372 103.903 19.5241C103.368 19.078 102.832 18.6319 102.297 18.1858Z" fill="#D4AA00" stroke="#554400" stroke-width="1.11752"/>
<path d="M63.215 42.0077C61.1629 35.0486 63.1257 31.5691 64.2856 27.5542C70.2633 18.8108 78.6499 14.6174 88.6424 10.1565C80.5152 25.6693 74.0162 31.0214 66.4269 40.9371C65.3562 41.294 64.2856 41.6509 63.215 42.0077Z" fill="#D4AA00" stroke="#554400" stroke-width="1.11752"/>
<path d="M66.1758 35.7616C69.6291 26.7893 74.9108 20.0966 83.2094 15.132L66.1758 35.7616Z" fill="#D4AA00"/>
<path d="M66.1758 35.7616C69.6291 26.7893 74.9108 20.0966 83.2094 15.132" stroke="#554400" stroke-width="1.11752"/>
<path d="M36.7209 73.54C31.4078 67.3673 33.0587 62.6948 34.5366 56.2254C36.0145 49.756 41.7351 44.7437 49.3333 34.7845C49.2579 53.6781 42.9724 59.4585 39.3516 71.4089C38.4747 72.1193 37.5978 72.8296 36.7209 73.54Z" fill="#D4AA00" stroke="#554400" stroke-width="1.11752"/>
<path d="M37.2969 66.6525C37.337 61.8457 37.8158 59.1152 40.1735 53.9912C42.0167 49.9852 44.4962 47.406 46.3729 42.1097" fill="#D4AA00"/>
<path d="M37.2969 66.6525C37.337 61.8457 37.8158 59.1152 40.1735 53.9912C42.0167 49.9852 44.4962 47.406 46.3729 42.1097" stroke="#554400" stroke-width="1.11752"/>
<path d="M15.0843 157.958C8.32175 155.33 5.63136 149.946 3.16217 146.575C-0.105855 136.5 0.185817 125.217 5.03226 114.96C11.9666 125.195 10.5281 138.341 14.8747 153.626C14.5029 154.691 15.456 156.892 15.0843 157.958Z" fill="#D4AA00" stroke="#554400" stroke-width="1.11752"/>
<path d="M11.9502 151.797C4.87653 142.067 7.34887 136.446 6.59766 124.383L11.9502 151.797Z" fill="#D4AA00"/>
<path d="M11.9502 151.797C4.87653 142.067 7.34887 136.446 6.59766 124.383" stroke="#554400" stroke-width="1.11752"/>
<path d="M18.4339 114.001C13.0054 106.95 12.2867 99.3732 12.1172 94.8354C12.1262 84.2438 15.7431 82.6769 21.4821 73.3595C22.3782 88.8615 20.4056 98.8382 19.7263 111.307C19.0432 112.205 19.1171 113.103 18.4339 114.001Z" fill="#D4AA00" stroke="#554400" stroke-width="1.11752"/>
<path d="M17.3611 107.173C16.2585 102.495 16.044 99.3538 16.4228 94.9604C16.8016 90.5671 17.3953 84.5428 19.4233 80.1534" fill="#D4AA00"/>
<path d="M17.3611 107.173C16.2585 102.495 16.044 99.3538 16.4228 94.9604C16.8016 90.5671 17.3953 84.5428 19.4233 80.1534" stroke="#554400" stroke-width="1.11752"/>
<path d="M25.3775 203.584C18.1512 202.935 14.3116 197.939 11.0038 195.384C5.06874 186.612 1.97952 178.218 2.2597 165.203C13.7007 178.462 15.9115 182.309 23.2909 198.879C23.2294 200.006 25.439 202.457 25.3775 203.584Z" fill="#D4AA00" stroke="#554400" stroke-width="1.11752"/>
<path d="M19.3356 196.642C13.5849 190.512 10.6263 183.329 6.97656 175.49L19.3356 196.642Z" fill="#D4AA00"/>
<path d="M19.3356 196.642C13.5849 190.512 10.6263 183.329 6.97656 175.49" stroke="#554400" stroke-width="1.11752"/>
<path d="M30.8081 206.848C36.7827 203.795 35.7572 197.18 35.8848 195.154C36.2717 184.57 32.0173 176.214 30.6048 162.525C21.6793 180.02 28.0799 195.568 28.8608 204.079C29.5099 205.002 30.159 205.925 30.8081 206.848Z" fill="#D4AA00" stroke="#554400" stroke-width="1.11752"/>
<path d="M31.3778 198.362C33.931 189.093 29.1168 185.303 30.6909 173.351L31.3778 198.362Z" fill="#D4AA00"/>
<path d="M31.3778 198.362C33.931 189.093 29.1168 185.303 30.6909 173.351" stroke="#554400" stroke-width="1.11752"/>
<path d="M18.5736 164.516C25.4174 162.107 25.5761 157.722 28.1528 154.432C29.4462 150.213 31.8422 142.65 30.8446 123.932C21.3187 134.112 22.1071 146.11 19.2653 160.338C19.6025 161.415 18.2364 163.439 18.5736 164.516Z" fill="#D4AA00" stroke="#554400" stroke-width="1.11752"/>
<path d="M22.6602 156.567C27.9145 148.516 26.0866 142.209 28.6624 132.574L22.6602 156.567Z" fill="#D4AA00"/>
<path d="M22.6602 156.567C27.9145 148.516 26.0866 142.209 28.6624 132.574" stroke="#554400" stroke-width="1.11752"/>
<path d="M23.1386 119.433C28.6886 118.503 31.9697 113.678 33.3562 112.672C35.8802 110.364 40.3383 100.151 41.5324 89.2736C29.8129 97.7779 27.2706 103.898 22.041 115.858C22.0291 116.986 21.2586 117.547 21.2461 118.676L23.1386 119.433Z" fill="#D4AA00" stroke="#554400" stroke-width="1.11752"/>
<path d="M26.2891 113.948C33.7769 107.918 32.1005 102.358 37.6985 96.1567L26.2891 113.948Z" fill="#D4AA00"/>
<path d="M26.2891 113.948C33.7769 107.918 32.1005 102.358 37.6985 96.1567" stroke="#554400" stroke-width="1.11752"/>
<path d="M37.3281 78.4299C40.2965 80.7025 43.7447 77.915 47.6561 75.9741C56.8876 70.7816 64.446 66.5779 69.7613 57.0125C55.3022 59.0243 49.7824 65.2211 38.2962 74.188C37.8474 75.2235 37.777 77.3945 37.3281 78.4299Z" fill="#D4AA00" stroke="#554400" stroke-width="1.11752"/>
<path d="M41.1602 75.4565C49.0746 69.7706 52.0385 68.3101 60.9254 61.8009L41.1602 75.4565Z" fill="#D4AA00"/>
<path d="M41.1602 75.4565C49.0746 69.7706 52.0385 68.3101 60.9254 61.8009" stroke="#554400" stroke-width="1.11752"/>
<path d="M61.4492 46.6096C67.1207 51.1344 73.9225 48.736 76.7535 48.608C87.1057 46.3688 87.717 42.2645 102.809 34.3134C86.3228 31.4484 86.1071 39.9917 66.3017 43.8493C65.5674 44.7063 62.1835 45.7526 61.4492 46.6096Z" fill="#D4AA00" stroke="#554400" stroke-width="1.11752"/>
<path d="M70.4297 45.4649C78.1492 47.164 86.5287 38.3611 95.3918 35.7648L70.4297 45.4649Z" fill="#D4AA00"/>
<path d="M70.4297 45.4649C78.1492 47.164 86.5287 38.3611 95.3918 35.7648" stroke="#554400" stroke-width="1.11752"/>
<path d="M101.289 22.3855C104.552 24.9817 110.101 27.2005 114.89 28.6616C125.294 30.6463 137.225 25.2455 141.211 19.2806C131.89 17.797 129.565 24.2626 103.375 20.8798C102.364 21.3817 102.3 21.8836 101.289 22.3855Z" fill="#D4AA00" stroke="#554400" stroke-width="1.11752"/>
<path d="M111.766 23.9685C118.081 26.0028 122.381 23.428 132.334 22.8L111.766 23.9685Z" fill="#D4AA00"/>
<path d="M111.766 23.9685C118.081 26.0028 122.381 23.428 132.334 22.8" stroke="#554400" stroke-width="1.11752"/>
<path d="M113.059 10.7897C119.941 5.06426 124.053 11.1956 136.277 8.48567L113.059 10.7897Z" fill="#D4AA00"/>
<path d="M113.059 10.7897C119.941 5.06426 124.053 11.1956 136.277 8.48567" stroke="#554400" stroke-width="1.11752"/>
<path d="M197.382 18.1858C193.724 14.0818 192.475 9.44238 183.197 5.07064C176.862 2.66171 168.922 6.94424 163.39 5.87361C159.553 5.78435 156.252 4.62453 152.684 4C155.003 10.1561 160 12.2974 163.658 12.8327C172.806 16.2442 185.017 10.4372 195.776 19.5241C196.312 19.078 196.847 18.6319 197.382 18.1858Z" fill="#CCA300" stroke="#554400" stroke-width="1.11752"/>
<path d="M236.463 42.0077C238.515 35.0486 236.552 31.5691 235.392 27.5542C229.414 18.8108 221.028 14.6174 211.035 10.1565C219.162 25.6693 225.661 31.0214 233.251 40.9371C234.321 41.294 235.392 41.6509 236.463 42.0077Z" fill="#CCA300" stroke="#554400" stroke-width="1.11752"/>
<path d="M233.506 35.7616C230.053 26.7893 224.771 20.0966 216.473 15.132L233.506 35.7616Z" fill="#CCA300"/>
<path d="M233.506 35.7616C230.053 26.7893 224.771 20.0966 216.473 15.132" stroke="#554400" stroke-width="1.11752"/>
<path d="M262.964 73.54C268.277 67.3673 266.626 62.6948 265.148 56.2254C263.67 49.756 257.95 44.7437 250.352 34.7845C250.427 53.6781 256.713 59.4585 260.333 71.4089C261.21 72.1193 262.087 72.8296 262.964 73.54Z" fill="#D4AA00" stroke="#554400" stroke-width="1.11752"/>
<path d="M262.385 66.6525C262.345 61.8457 261.866 59.1152 259.508 53.9912C257.665 49.9852 255.185 47.406 253.309 42.1097" fill="#CCA300"/>
<path d="M262.385 66.6525C262.345 61.8457 261.866 59.1152 259.508 53.9912C257.665 49.9852 255.185 47.406 253.309 42.1097" stroke="#554400" stroke-width="1.11752"/>
<path d="M284.599 157.958C291.362 155.33 294.052 149.946 296.522 146.575C299.79 136.5 299.498 125.217 294.651 114.96C287.717 125.195 289.156 138.341 284.809 153.626C285.181 154.691 284.228 156.892 284.599 157.958Z" fill="#CCA300" stroke="#554400" stroke-width="1.11752"/>
<path d="M287.73 151.797C294.804 142.067 292.332 136.446 293.083 124.383L287.73 151.797Z" fill="#CCA300"/>
<path d="M287.73 151.797C294.804 142.067 292.332 136.446 293.083 124.383" stroke="#554400" stroke-width="1.11752"/>
<path d="M281.246 114.001C286.675 106.95 287.393 99.3732 287.563 94.8354C287.554 84.2438 283.937 82.6769 278.198 73.3595C277.302 88.8615 279.275 98.8382 279.954 111.307C280.637 112.205 280.563 113.103 281.246 114.001Z" fill="#CCA300" stroke="#554400" stroke-width="1.11752"/>
<path d="M282.324 107.173C283.426 102.495 283.641 99.3538 283.262 94.9604C282.883 90.5671 282.29 84.5428 280.262 80.1534" fill="#CCA300"/>
<path d="M282.324 107.173C283.426 102.495 283.641 99.3538 283.262 94.9604C282.883 90.5671 282.29 84.5428 280.262 80.1534" stroke="#554400" stroke-width="1.11752"/>
<path d="M274.31 203.584C281.536 202.935 285.376 197.939 288.684 195.384C294.619 186.612 297.708 178.218 297.428 165.203C285.987 178.462 283.776 182.309 276.396 198.879C276.458 200.006 274.248 202.457 274.31 203.584Z" fill="#CCA300" stroke="#554400" stroke-width="1.11752"/>
<path d="M279.016 199.051C287.443 193.188 290.134 186.006 292.445 175.49L279.016 199.051Z" fill="#CCA300"/>
<path d="M279.016 199.051C287.443 193.188 290.134 186.006 292.445 175.49" stroke="#554400" stroke-width="1.11752"/>
<path d="M268.879 206.848C262.904 203.795 263.93 197.18 263.802 195.154C263.415 184.57 267.67 176.214 269.082 162.525C278.008 180.02 271.607 195.568 270.826 204.079C270.177 205.002 269.528 205.925 268.879 206.848Z" fill="#CCA300" stroke="#554400" stroke-width="1.11752"/>
<path d="M268.305 198.362C265.752 189.093 270.566 185.303 268.992 173.351L268.305 198.362Z" fill="#CCA300"/>
<path d="M268.305 198.362C265.752 189.093 270.566 185.303 268.992 173.351" stroke="#554400" stroke-width="1.11752"/>
<path d="M281.109 164.516C274.266 162.107 274.107 157.722 271.53 154.432C270.237 150.213 267.841 142.65 268.838 123.932C278.364 134.112 277.576 146.11 280.418 160.338C280.08 161.415 281.447 163.439 281.109 164.516Z" fill="#CCA300" stroke="#554400" stroke-width="1.11752"/>
<path d="M277.022 156.567C271.767 148.516 273.595 142.209 271.02 132.574L277.022 156.567Z" fill="#CCA300"/>
<path d="M277.022 156.567C271.767 148.516 273.595 142.209 271.02 132.574" stroke="#554400" stroke-width="1.11752"/>
<path d="M276.546 119.433C270.996 118.503 267.715 113.678 266.329 112.672C263.805 110.364 259.346 100.151 258.152 89.2736C269.872 97.7779 272.414 103.898 277.644 115.858C277.656 116.986 278.426 117.547 278.439 118.676L276.546 119.433Z" fill="#CCA300" stroke="#554400" stroke-width="1.11752"/>
<path d="M273.394 113.948C265.906 107.918 267.582 102.358 261.984 96.1567L273.394 113.948Z" fill="#CCA300"/>
<path d="M273.394 113.948C265.906 107.918 267.582 102.358 261.984 96.1567" stroke="#554400" stroke-width="1.11752"/>
<path d="M262.359 78.4299C259.391 80.7025 255.942 77.915 252.031 75.9741C242.799 70.7816 235.241 66.5779 229.926 57.0125C244.385 59.0243 249.905 65.2211 261.391 74.188C261.84 75.2235 261.91 77.3945 262.359 78.4299Z" fill="#D4AA00" stroke="#554400" stroke-width="1.11752"/>
<path d="M258.531 75.4565C250.616 69.7706 247.653 68.3101 238.766 61.8009L258.531 75.4565Z" fill="#CCA300"/>
<path d="M258.531 75.4565C250.616 69.7706 247.653 68.3101 238.766 61.8009" stroke="#554400" stroke-width="1.11752"/>
<path d="M238.238 46.6096C232.567 51.1344 225.765 48.736 222.934 48.608C212.582 46.3688 211.971 42.2645 196.879 34.3134C213.365 31.4484 213.581 39.9917 233.386 43.8493C234.12 44.7063 237.504 45.7526 238.238 46.6096Z" fill="#CCA300" stroke="#554400" stroke-width="1.11752"/>
<path d="M229.259 45.4649C221.539 47.164 213.16 38.3611 204.297 35.7648L229.259 45.4649Z" fill="#CCA300"/>
<path d="M229.259 45.4649C221.539 47.164 213.16 38.3611 204.297 35.7648" stroke="#554400" stroke-width="1.11752"/>
<path d="M198.398 22.3855C195.135 24.9817 189.587 27.2005 184.798 28.6616C174.394 30.6463 162.462 25.2455 158.477 19.2806C167.797 17.797 170.123 24.2626 196.312 20.8798C197.323 21.3817 197.387 21.8836 198.398 22.3855Z" fill="#CCA300" stroke="#554400" stroke-width="1.11752"/>
<path d="M187.924 23.9685C181.609 26.0028 177.308 23.428 167.355 22.8L187.924 23.9685Z" fill="#CCA300"/>
<path d="M187.924 23.9685C181.609 26.0028 177.308 23.428 167.355 22.8" stroke="#554400" stroke-width="1.11752"/>
<path d="M186.632 10.7897C179.749 5.06426 175.638 11.1956 163.414 8.48567L186.632 10.7897Z" fill="#CCA300"/>
<path d="M186.632 10.7897C179.749 5.06426 175.638 11.1956 163.414 8.48567" stroke="#554400" stroke-width="1.11752"/>
<path d="M103.098 18.4536C103.098 20.238 103.098 20.4164 103.098 22.2008C-3.25135 67.2565 16.7337 182.438 31.3657 207.955C37.611 216.877 43.0534 226.602 49.2988 235.524C46.9791 237.308 47.0683 236.684 44.7486 238.468C39.217 227.94 32.6148 219.286 27.0832 208.758C15.1278 183.42 -12.887 70.5576 103.098 18.4536Z" fill="#D4AA00" stroke="#554400" stroke-width="1.11752"/>
<path d="M98.9259 248.304C91.2049 243.426 75.4686 232.507 65.9942 222.186C54.7072 209.058 51.659 203.516 46.8653 193.953C46.4983 200.339 43.7408 211.752 37.2264 214.994C30.4168 218.944 21.6596 216.989 13.7578 212.344C21.4967 232.375 32.6543 246.628 47.068 260.417C62.8917 275.554 97.3343 296.237 103.09 295.998C107.961 295.491 109.12 291.731 109.903 288.427C113.103 274.936 106.567 259.874 98.9259 248.304Z" fill="#D4AA00" stroke="#554400" stroke-width="1.11752"/>
<path d="M48.1679 202.71C46.2256 211.193 39.4868 219.492 30.1935 219.474C26.4832 219.684 22.7999 218.988 19.3438 217.727C32.8675 247.18 58.7599 268.711 86.43 284.539C91.8022 287.575 99.441 293.737 105.546 294.739C110.209 292.468 109.924 284.065 110.212 279.715C109.458 268.831 102.45 257.387 95.4375 249.123C76.6567 237.164 59.2336 222.1 48.1679 202.71Z" fill="#0000AA" stroke="#554400" stroke-width="1.11752"/>
<path d="M78.6697 264.202C77.1485 264.443 76.3829 265.792 75.8308 267.23C75.2273 268.801 75.3964 271.543 76.9663 272.151C89.8243 277.125 98.7939 289.001 108.384 291.077C110.634 291.564 109.787 286.396 110.655 284.264C111.988 280.989 118.944 276.632 115.576 275.557C106.933 272.799 91.0478 262.239 78.6697 264.202Z" fill="#D4AA00" stroke="#554400" stroke-width="1.11752"/>
<path d="M85.0501 196.56C86.0771 197.537 88.0856 199.915 89.2258 200.769C90.3225 202.19 90.5282 204.068 90.4785 205.801C89.6191 206.641 86.4329 207.473 85.1094 206.963C83.5297 205.85 83.3045 201.873 82.1562 200.426" fill="#D4AA00"/>
<path d="M85.0501 196.56C86.0771 197.537 88.0856 199.915 89.2258 200.769C90.3225 202.19 90.5282 204.068 90.4785 205.801C89.6191 206.641 86.4329 207.473 85.1094 206.963C83.5297 205.85 83.3045 201.873 82.1562 200.426" stroke="#554400" stroke-width="1.11752"/>
<path d="M112.023 193.916C113.05 194.893 115.862 196.334 117.002 197.187C118.099 198.609 119.777 200.487 119.727 202.22C118.867 203.06 116.752 203.089 115.428 202.579C113.849 201.466 113.623 200.433 112.475 198.986" fill="#D4AA00"/>
<path d="M112.023 193.916C113.05 194.893 115.862 196.334 117.002 197.187C118.099 198.609 119.777 200.487 119.727 202.22C118.867 203.06 116.752 203.089 115.428 202.579C113.849 201.466 113.623 200.433 112.475 198.986" stroke="#554400" stroke-width="1.11752"/>
<path d="M177.578 200.4C178.605 201.377 182.353 202.819 183.494 203.672C184.59 205.093 186 206.169 185.951 207.901C185.091 208.742 182.307 208.905 180.983 208.394C179.403 207.281 179.847 206.115 178.699 204.667" fill="#D4AA00"/>
<path d="M177.578 200.4C178.605 201.377 182.353 202.819 183.494 203.672C184.59 205.093 186 206.169 185.951 207.901C185.091 208.742 182.307 208.905 180.983 208.394C179.403 207.281 179.847 206.115 178.699 204.667" stroke="#554400" stroke-width="1.11752"/>
<path d="M165.892 202.341C166.919 203.318 169.463 205.027 170.603 205.88C171.7 207.302 173.11 208.377 173.06 210.11C172.201 210.95 169.818 211.916 168.494 211.405C166.914 210.293 166.957 208.323 165.809 206.876" fill="#D4AA00"/>
<path d="M165.892 202.341C166.919 203.318 169.463 205.027 170.603 205.88C171.7 207.302 173.11 208.377 173.06 210.11C172.201 210.95 169.818 211.916 168.494 211.405C166.914 210.293 166.957 208.323 165.809 206.876" stroke="#554400" stroke-width="1.11752"/>
<path d="M211.093 87.508C210.9 87.978 210.971 88.4715 211.251 88.8935C211.654 89.1588 212.158 89.609 212.711 89.3481C213.2 89.125 213.587 88.7467 213.853 88.3483C214.049 87.878 213.546 87.4952 213.144 87.2303C212.297 86.6683 211.826 87.2408 211.093 87.508Z" fill="#554400" stroke="#554400" stroke-width="1.11752"/>
<path d="M212.672 84.7343C213.589 85.1372 214.393 86.7966 214.66 87.6611L212.672 84.7343Z" fill="#E77817"/>
<path d="M212.672 84.7343C213.589 85.1372 214.393 86.7966 214.66 87.6611" stroke="#554400" stroke-width="1.11752"/>
<path d="M196.582 18.4536C196.582 20.238 196.582 20.4164 196.582 22.2008C302.931 67.2565 282.946 182.438 268.314 207.955C262.069 216.877 256.626 226.602 250.381 235.524C252.701 237.308 252.612 236.684 254.931 238.468C260.463 227.94 267.065 219.286 272.597 208.758C284.552 183.42 312.567 70.5576 196.582 18.4536Z" fill="#CCA300" stroke="#554400" stroke-width="1.11752"/>
<path d="M198.954 248.255C206.675 243.377 222.411 232.458 231.885 222.137C243.173 209.01 246.756 205.341 251.55 195.778C251.917 202.164 254.139 211.703 260.653 214.945C267.463 218.895 276.22 216.94 284.122 212.295C276.383 232.326 265.225 246.579 250.812 260.368C234.988 275.506 200.545 296.188 194.79 295.949C189.919 295.443 188.76 291.682 187.977 288.379C184.777 274.887 191.312 259.826 198.954 248.255Z" fill="#D4AA00" stroke="#554400" stroke-width="1.11752"/>
<path d="M250.06 203.292C252.002 211.775 258.741 220.074 268.034 220.056C271.744 220.266 275.428 219.57 278.884 218.31C265.36 247.762 239.468 269.293 211.798 285.122C206.425 288.157 198.787 294.319 192.681 295.321C188.019 293.05 188.304 284.647 188.016 280.297C188.77 269.413 195.778 257.969 202.79 249.705C221.571 237.746 238.994 222.682 250.06 203.292Z" fill="#0000AA" stroke="#554400" stroke-width="1.11752"/>
<path d="M218.254 264.532C219.775 264.773 221.487 265.744 222.039 267.181C222.642 268.753 222.473 271.495 220.903 272.102C208.045 277.077 199.076 288.952 189.486 291.028C187.235 291.516 188.083 286.348 187.215 284.215C185.882 280.941 178.926 276.584 182.294 275.509C190.937 272.751 205.876 262.569 218.254 264.532Z" fill="#D4AA00" stroke="#554400" stroke-width="1.11752"/>
<path d="M81.4735 264.767C79.3659 264.713 76.1604 270.503 79.351 270.656C86.0507 272.97 99.741 285.568 109.559 289.685C109.835 285.784 112.225 281.637 115.246 279.222C104.966 275.011 92.9609 264.501 81.4735 264.767Z" fill="#0000AA" stroke="#554400" stroke-width="1.11752"/>
<path d="M216.226 264.814C218.334 264.76 221.539 270.55 218.348 270.703C211.649 273.017 197.958 285.615 188.14 289.732C187.864 285.831 185.474 281.684 182.453 279.269C192.733 275.058 204.739 264.548 216.226 264.814Z" fill="#0000AA" stroke="#554400" stroke-width="1.11752"/>
<path d="M197.143 232.945C193.288 233.342 191.145 238.766 174.372 242.957C167.056 244.784 154.925 245.825 148.575 245.657C148.547 245.659 148.51 245.656 148.482 245.657C148.027 245.644 147.521 245.637 147.131 245.611V245.704C141.044 245.864 130.817 244.825 123.523 243.003C104.354 238.213 104.271 231.849 98.936 233.178C95.1867 235.588 94.2638 241.974 92.0908 245.285C89.0254 253.974 80.4516 259.839 76.957 265.355C109.055 275.291 127.672 287.205 148.342 285.797C148.419 285.8 148.498 285.794 148.575 285.797C168.866 286.676 189.416 275.052 220.891 265.308C217.397 259.793 207.284 252.322 205.624 245.305C203.518 243.333 202.708 235.541 198.959 233.131C198.292 232.965 197.694 232.888 197.143 232.945Z" fill="#D4AA00" stroke="#554400" stroke-width="1.11752"/>
<path d="M93.2577 116.737C90.1562 122.698 93.052 120.627 90.1566 126.556C87.3738 136.586 97.5716 120.249 100.039 116.624C100.867 114.604 110.723 112.578 107.171 111.775C106.966 108.73 104.555 112.175 101.534 110.916L93.2577 116.737Z" fill="#AA8800"/>
<path d="M91.9711 139.963C90.6602 146.554 89.3934 145.623 88.2713 152.125C86.7997 153.589 90.1842 159.727 89.1192 161.388C94.9145 156.032 102.576 151.331 103.971 142.814C104.2 140.643 107.363 136.358 103.729 136.58C102.68 133.714 102.299 133.37 99.0473 133.007L91.9711 139.963ZM86.2088 164.648C82.8986 166.14 83.1715 169.78 82.9492 172.843C83.6848 169.892 84.4806 166.857 86.4416 164.461L86.2088 164.648Z" fill="#AA8800"/>
<path d="M200.146 234.574C193.91 237.934 185.123 243.259 178.017 244.643C158.838 249.755 138.075 249.79 118.92 244.673C112.162 242.789 104.034 237.687 98.0751 234.265C95.0031 236.873 93.9476 242.919 91.8467 246.343C88.6448 252.719 83.165 258.544 78.7617 262.987C102.901 269.734 134.552 286.492 154.662 283.101C154.998 283.27 172.81 280.207 180.178 276.892C192.975 271.135 204.026 269.344 218.709 262.629C218.464 261.727 215.469 259.105 214.826 258.133C208.643 251.995 204.774 244.537 201.799 236.535C201.413 235.905 200.916 234.839 200.28 234.64L200.146 234.574Z" fill="#0000AA" stroke="#554400" stroke-width="1.11752"/>
<path d="M151.383 145.052C155.744 155.03 153.62 150.038 154.933 176.395C153.065 178.972 156.395 199.062 157.157 200.952C158.43 203.721 159.803 206.612 161.65 208.728C164.415 210.029 163.593 205.748 164.817 204.351C160.872 201.436 155.884 198.005 156.808 192.407C157.802 182.241 155.214 170.383 158.531 160.685C160.64 156.6 159.472 153.842 159.429 148.892C154.695 149.574 156.117 144.369 151.383 145.052Z" fill="#AA8800"/>
<path d="M119.473 93.7281C117.093 97.8361 120.439 100.104 112.031 105.872C106.12 120.889 123.277 98.8266 124.841 94.7294C125.18 92.5731 128.716 94.0035 128.421 91.0981C127.518 88.1829 131.677 87.9249 130.599 86.6901C128.54 84.3305 124.092 87.6641 121.691 89.6738C120.509 90.6623 120.246 92.3953 119.473 93.7281Z" fill="#AA8800"/>
<path d="M152.745 125.737C157.158 130.413 154.095 140.318 161.258 144.163C164.453 145.879 159.363 127.755 155.364 121.793C152.92 118.149 148.508 116.163 144.521 114.329C140.177 112.331 135.051 102.771 130.656 110.651C134.926 111.235 136.402 109.902 137.716 111.897C147.306 126.455 149.463 122.26 152.745 125.737Z" fill="#AA8800"/>
<path d="M83.1213 150.133C82.7688 150.201 81.5183 153.048 81.4077 153.34C80.2579 154.769 79.3005 153.958 78.8354 155.491C78.7381 155.565 78.6843 155.706 78.7678 155.811" stroke="#554400" stroke-width="1.11752"/>
<path d="M164.198 105.791C165.971 108.686 181.685 123.021 184.225 120.737C178.18 113.599 174.135 114.301 173.132 110.94C164.883 101.059 155.223 97.2031 144.473 98.4323C144.067 104.878 158.14 100.749 164.198 105.791Z" fill="#AA8800"/>
<path d="M138.845 251.286C138.286 251.219 137.788 251.376 137.351 251.768C136.914 252.16 136.638 252.648 136.534 253.25C136.474 253.597 136.48 253.923 136.553 254.227C136.626 254.531 136.77 254.818 136.967 255.086C137.163 255.354 137.505 255.733 137.999 256.203C138.492 256.674 138.832 256.965 138.941 257.101C139.105 257.302 139.212 257.5 139.273 257.719C139.333 257.939 139.356 258.159 139.327 258.366C139.276 258.739 139.112 259.057 138.839 259.308C138.567 259.559 138.227 259.652 137.822 259.613C137.471 259.579 137.035 259.433 136.777 259.2C136.518 258.966 136.335 258.68 136.244 258.363C136.153 258.047 136.118 257.584 136.138 256.971L135.969 256.951L135.472 259.833L135.642 259.853C135.698 259.662 135.762 259.545 135.82 259.489C135.877 259.432 135.938 259.411 136.019 259.421C136.103 259.431 136.302 259.506 136.594 259.674C136.887 259.842 137.078 259.95 137.175 259.983C137.337 260.041 137.662 260.092 137.854 260.111C138.464 260.169 138.998 259.993 139.449 259.568C139.901 259.144 140.264 258.603 140.33 257.963C140.364 257.626 140.285 257.303 140.206 256.985C140.126 256.667 139.986 256.387 139.791 256.139C139.596 255.892 139.223 255.523 138.664 255.041C137.979 254.451 137.622 253.973 137.475 253.64C137.372 253.412 137.337 253.186 137.381 252.93C137.439 252.595 137.596 252.304 137.861 252.068C138.126 251.833 138.425 251.732 138.761 251.773C139.059 251.809 139.213 251.911 139.466 252.133C139.718 252.355 139.888 252.644 139.994 252.99C140.099 253.336 140.14 253.793 140.122 254.358L140.306 254.375L140.705 251.465L140.521 251.447C140.462 251.639 140.404 251.755 140.342 251.814C140.279 251.873 140.215 251.894 140.131 251.886C140.056 251.878 139.922 251.824 139.754 251.703C139.392 251.445 139.194 251.329 138.845 251.286ZM150.56 251.737L148.388 258.744C148.187 259.358 148.001 259.764 147.834 259.964C147.753 260.065 147.571 260.157 147.293 260.22L147.294 260.438L149.535 260.429L149.527 260.211C149.206 260.19 148.858 260.116 148.761 260.018C148.665 259.92 148.618 259.801 148.618 259.672C148.618 259.51 148.663 259.274 148.774 258.944L149.275 257.595L151.901 257.517L152.386 258.714C152.544 259.103 152.62 259.394 152.633 259.577C152.642 259.715 152.615 259.828 152.529 259.929C152.443 260.029 152.264 260.107 152.001 260.137L152.016 260.355L154.776 260.197L154.754 259.98C154.481 259.979 154.253 259.894 154.084 259.737C153.915 259.579 153.608 259.222 153.382 258.665L150.731 251.732L150.56 251.737ZM173.084 248.068C172.266 248.313 171.8 248.801 171.487 249.666C171.125 250.664 171.243 251.787 171.715 253.074C172.177 254.334 172.911 255.28 173.815 255.903C174.718 256.525 175.724 256.689 176.585 256.431C177.437 256.175 178.091 255.537 178.322 254.552C178.554 253.566 178.396 252.478 177.846 251.275C177.311 250.106 176.578 249.225 175.63 248.634C174.683 248.042 173.896 247.824 173.084 248.068ZM114.527 245.538L113.5 247.347L113.671 247.408C113.873 247.064 114.089 246.794 114.306 246.627C114.524 246.461 114.734 246.373 114.928 246.357C115.075 246.346 115.288 246.388 115.573 246.491L116.306 246.756L113.229 252.72C113.004 253.156 112.836 253.423 112.706 253.522C112.496 253.682 112.26 253.717 112.002 253.624L111.779 253.543L111.676 253.744L114.393 254.692L114.49 254.489L114.279 254.418C114.04 254.337 113.909 254.187 113.872 253.986C113.848 253.838 113.938 253.53 114.171 253.047L117.077 247.023L117.949 247.318C118.203 247.404 118.371 247.534 118.476 247.693C118.58 247.852 118.637 248.056 118.623 248.312C118.613 248.47 118.467 248.704 118.353 249.042L118.527 249.097L119.3 247.202L114.527 245.538ZM119.767 247.349L119.668 247.57L119.895 247.642C120.042 247.688 120.155 247.772 120.248 247.908C120.311 248.008 120.333 248.115 120.32 248.223C120.302 248.364 120.21 248.638 120.028 249.044L117.728 254.172C117.514 254.648 117.346 254.939 117.216 255.041C117.014 255.196 116.783 255.235 116.526 255.154L116.299 255.083L116.207 255.287L119.005 256.142L119.091 255.936L118.862 255.869C118.713 255.826 118.602 255.727 118.508 255.593C118.439 255.494 118.396 255.401 118.406 255.294C118.42 255.152 118.519 254.876 118.687 254.47L119.699 252.029L122.618 252.862L121.682 255.325C121.497 255.809 121.35 256.108 121.223 256.215C121.031 256.378 120.68 256.398 120.424 256.324L120.208 256.261L120.123 256.467L123.076 257.259L123.148 257.049L122.809 256.962C122.66 256.922 122.535 256.822 122.434 256.69C122.365 256.593 122.33 256.504 122.336 256.397C122.346 256.255 122.422 255.973 122.578 255.564L124.563 250.345C124.714 249.947 124.829 249.698 124.914 249.579C124.998 249.459 125.106 249.375 125.229 249.338C125.398 249.283 125.567 249.276 125.717 249.315L125.814 249.341L125.893 249.113L123.443 248.456L123.351 248.68L123.566 248.742C123.714 248.785 123.719 248.83 123.817 248.962C123.889 249.06 123.928 249.168 123.922 249.276C123.912 249.418 123.823 249.692 123.666 250.105L122.789 252.412L119.884 251.582L120.832 249.296C120.995 248.902 121.116 248.655 121.206 248.538C121.296 248.421 121.407 248.34 121.529 248.304C121.7 248.252 121.856 248.245 122.004 248.288L122.233 248.355L122.325 248.131L119.767 247.349ZM126.29 249.21L126.211 249.437L126.444 249.493C126.708 249.557 126.863 249.687 126.921 249.874C126.961 250.014 126.896 250.331 126.718 250.848L124.886 256.144C124.749 256.541 124.64 256.798 124.559 256.917C124.479 257.037 124.374 257.125 124.251 257.165C124.084 257.224 123.929 257.238 123.778 257.202L123.545 257.145L123.473 257.355L128.682 258.518L129.825 256.554L129.631 256.516C129.283 256.984 128.968 257.337 128.701 257.55C128.495 257.711 128.309 257.798 128.126 257.831C127.942 257.864 127.553 257.822 127.19 257.743L126.086 257.502C125.909 257.463 125.798 257.413 125.749 257.353C125.701 257.293 125.686 257.216 125.686 257.132C125.685 257.048 125.635 256.811 125.76 256.451L126.69 253.759L128.098 254.067C128.367 254.126 128.562 254.214 128.667 254.323C128.771 254.432 128.826 254.564 128.839 254.718C128.848 254.84 128.849 255.1 128.782 255.511L128.949 255.543L129.743 252.672L129.576 252.639C129.427 253.107 129.268 253.428 129.046 253.578C128.879 253.692 128.602 253.707 128.235 253.627L126.842 253.322L127.954 250.106L129.602 250.465C129.922 250.535 130.01 250.586 130.121 250.671C130.256 250.788 130.343 250.936 130.379 251.114C130.415 251.292 130.409 251.596 130.356 252.043L130.55 252.081L130.967 250.257L126.29 249.21ZM141.897 251.738L141.608 253.726L141.792 253.739C141.854 253.359 141.971 253.047 142.114 252.831C142.258 252.615 142.41 252.475 142.587 252.408C142.723 252.36 142.826 252.336 143.136 252.351L143.933 252.389L143.495 258.875C143.463 259.35 143.4 259.648 143.319 259.778C143.187 259.989 142.98 260.09 142.699 260.077L142.472 260.066L142.457 260.284L145.408 260.404L145.416 260.185L145.188 260.18C144.93 260.174 144.609 260.069 144.497 259.888C144.418 259.755 144.399 259.44 144.434 258.919L144.873 252.433L145.67 252.455C145.944 252.461 146.169 252.533 146.333 252.652C146.498 252.77 146.622 252.945 146.715 253.189C146.772 253.34 146.822 253.605 146.847 253.956L147.032 253.961L147.012 251.958L141.897 251.738ZM154.388 251.714L154.526 253.713L154.711 253.699C154.694 253.315 154.73 252.992 154.827 252.759C154.924 252.526 155.045 252.366 155.206 252.275C155.33 252.207 155.429 252.162 155.738 252.132L156.531 252.055L157.426 258.508C157.491 258.98 157.491 259.283 157.438 259.423C157.351 259.649 157.167 259.779 156.888 259.806L156.662 259.828L156.692 260.045L159.616 259.733L159.579 259.517L159.353 259.544C159.098 259.575 158.895 259.501 158.742 259.342C158.633 259.225 158.54 258.919 158.451 258.403L157.343 251.973L158.26 251.863C158.531 251.83 158.768 251.869 158.954 251.963C159.14 252.056 159.194 252.226 159.342 252.45C159.434 252.589 159.545 252.841 159.652 253.181L159.835 253.154L159.359 251.192L154.388 251.714ZM159.878 251.117L159.926 251.35L160.165 251.316C160.436 251.277 160.643 251.336 160.793 251.484C160.902 251.595 161.009 251.904 161.118 252.434L162.236 257.868C162.32 258.274 162.356 258.546 162.346 258.683C162.336 258.82 162.287 258.937 162.198 259.018C162.079 259.132 161.946 259.202 161.792 259.224L161.553 259.259L161.597 259.474L166.875 258.586L166.93 256.391L166.687 256.438C166.618 256.986 166.518 257.418 166.389 257.708C166.288 257.928 166.165 258.074 166.017 258.17C165.869 258.267 165.606 258.36 165.24 258.43L164.02 258.637C163.841 258.667 163.715 258.662 163.64 258.626C163.565 258.59 163.498 258.529 163.453 258.453C163.408 258.378 163.355 258.166 163.268 257.798L162.612 255.05L164.038 254.811C164.31 254.765 164.518 254.768 164.671 254.825C164.824 254.881 164.958 254.975 165.054 255.107C165.13 255.212 165.233 255.452 165.386 255.846L165.567 255.811L164.787 252.937L164.607 252.971C164.715 253.446 164.713 253.799 164.598 254.018C164.512 254.184 164.303 254.303 163.931 254.365L162.505 254.604L161.722 251.32L163.395 251.037C163.717 250.976 163.942 250.962 164.086 250.999C164.269 251.054 164.423 251.155 164.549 251.303C164.674 251.45 164.827 251.725 165.012 252.147L165.193 252.113L164.632 250.316L159.878 251.117ZM176.57 247.183L176.671 247.404L176.897 247.332C177.046 247.284 177.06 247.329 177.236 247.376C177.364 247.412 177.467 247.477 177.546 247.563C177.648 247.676 177.808 247.932 178.006 248.328L180.536 253.379C180.771 253.848 180.874 254.162 180.863 254.31C180.843 254.539 180.581 254.743 180.325 254.826L180.099 254.898L180.192 255.102L182.974 254.141L182.873 253.94L182.649 254.018C182.505 254.069 182.345 254.056 182.166 254.01C182.035 253.975 181.93 253.93 181.851 253.845C181.749 253.732 181.602 253.471 181.404 253.075L180.168 250.608L181.286 250.215C181.491 250.143 181.665 250.137 181.805 250.171C181.944 250.206 182.071 250.285 182.201 250.407C182.331 250.529 182.474 250.743 182.629 251.046L182.8 250.986L181.472 248.335L181.301 248.395C181.476 248.835 181.54 249.147 181.493 249.333C181.447 249.519 181.307 249.656 181.05 249.746L179.933 250.138L178.395 247.067L179.749 246.592C180.068 246.479 180.314 246.441 180.505 246.464C180.695 246.488 180.894 246.56 181.084 246.695C181.274 246.83 181.489 247.07 181.75 247.408L182.623 247.082L180.99 245.643L176.57 247.183ZM173.187 248.521C173.783 248.342 174.353 248.458 174.919 248.89C175.628 249.435 176.244 250.41 176.864 251.766C177.436 253.016 177.611 253.995 177.478 254.695C177.345 255.394 176.983 255.848 176.396 256.024C175.845 256.189 175.185 256.062 174.633 255.618C173.911 255.032 173.285 254.077 172.762 252.763C172.253 251.481 172.092 250.448 172.252 249.664C172.381 249.035 172.627 248.689 173.187 248.521ZM150.445 253.67L151.727 257.071L149.416 257.137L150.445 253.67Z" fill="#D4AA00"/>
<path d="M193.425 251.033L192.627 266.806C192.564 268.188 192.239 269.229 191.945 269.779C191.803 270.053 191.391 270.389 190.709 270.786L190.873 271.231L196.498 268.98L196.324 268.539C195.471 268.821 194.892 268.924 194.568 268.839C194.244 268.754 194.025 268.585 193.928 268.339C193.805 268.029 193.763 267.501 193.803 266.756L193.963 263.729L200.679 260.93L202.683 262.783C203.335 263.385 203.734 263.859 203.88 264.205C203.99 264.465 203.97 264.734 203.807 265.019C203.645 265.305 203.224 265.613 202.557 265.941L202.742 266.378L209.476 263.446L209.291 263.01C208.578 263.274 207.968 263.334 207.443 263.185C206.918 263.036 206.181 262.528 205.251 261.666L193.87 250.852L193.425 251.033ZM96.4906 248.729L96.3141 249.169L96.9229 249.421C97.6332 249.714 98.0769 250.083 98.2541 250.526C98.3785 250.854 98.2355 251.53 97.8251 252.554L93.6208 263.035C93.3058 263.82 93.0552 264.322 92.8561 264.535C92.657 264.749 92.3904 264.861 92.0689 264.876C91.6322 264.908 91.2108 264.84 90.805 264.673L90.1961 264.421L90.0195 264.861L103.505 270.303L106.533 266.8L106.021 266.602C105.091 267.389 104.269 267.928 103.554 268.219C103.003 268.437 102.482 268.525 101.99 268.481C101.498 268.438 100.762 268.227 99.7806 267.848L96.6893 266.591C96.2158 266.395 95.9103 266.223 95.7778 266.062C95.6453 265.901 95.5762 265.729 95.5706 265.546C95.5647 265.364 95.7078 264.909 95.9941 264.196L98.1273 258.878L101.914 260.439C102.639 260.72 103.146 261.007 103.436 261.302C103.726 261.598 103.895 261.915 103.944 262.254C103.979 262.525 103.908 263.079 103.731 263.917L104.204 264.1L106.329 258.434L105.855 258.251C105.456 259.16 104.965 259.712 104.384 259.909C103.946 260.061 103.232 259.945 102.242 259.563L98.4756 258.009L101.034 251.633L105.602 253.494C106.464 253.827 107.043 254.12 107.339 254.371C107.703 254.704 107.94 255.075 108.037 255.479C108.135 255.884 108.106 256.546 107.964 257.472L108.464 257.664L109.608 254.025L96.4906 248.729ZM112.168 255.013L112.002 255.458L112.655 255.71C113.312 255.963 113.586 256.243 113.797 256.719C113.95 257.056 113.847 257.741 113.485 258.774L109.778 269.378C109.451 270.314 109.153 270.875 108.885 271.06C108.409 271.397 107.618 271.383 106.884 271.1L106.231 270.848L106.065 271.292L113.914 274.074L114.063 273.623L113.375 273.389C112.717 273.166 112.282 272.82 112.071 272.351C111.911 272.016 112.003 271.33 112.345 270.29L113.927 265.491C114.063 265.546 114.193 265.604 114.322 265.652C114.45 265.7 114.573 265.737 114.686 265.775C114.963 265.869 115.325 265.983 115.771 266.117L119.595 275.852L124.598 277.231L124.715 276.77C123.759 276.413 123.023 275.972 122.506 275.448C121.989 274.923 121.294 273.919 120.763 272.571L118.438 266.64C120.024 266.801 121.287 266.608 122.216 266.058C123.145 265.509 123.748 264.718 124.039 263.689C124.311 262.726 124.236 261.813 123.805 260.935C123.373 260.057 122.917 259.406 122.103 258.866C121.289 258.325 120.099 257.807 118.229 257.172L112.168 255.013ZM129.359 260.49L129.242 260.95L129.662 261.053C130.089 261.152 130.476 261.348 130.822 261.639C131.064 261.853 131.206 262.075 131.248 262.304C131.302 262.606 131.232 263.188 131.039 264.047L128.569 275.017C128.34 276.035 128.088 276.653 127.814 276.871C127.384 277.201 126.795 277.28 126.048 277.106L125.179 276.892L125.062 277.352L133.647 279.163L133.722 278.694L133.06 278.585C132.627 278.514 131.966 278.28 131.62 278.002C131.363 277.794 131.209 277.575 131.16 277.348C131.098 277.047 131.15 276.464 131.317 275.598L133.45 264.557C133.648 263.532 133.885 262.907 134.161 262.683C134.581 262.339 134.9 262.207 135.648 262.329L136.311 262.438L136.386 261.969L129.359 260.49ZM138.143 262.257L137.285 266.254L137.798 266.338C137.985 265.571 138.081 264.95 138.473 264.534C138.865 264.118 139.306 263.859 139.797 263.757C140.174 263.684 140.521 263.688 141.385 263.765L143.608 263.963L142.462 277.219C142.378 278.191 142.224 278.805 142.001 279.06C141.635 279.475 141.061 279.647 140.279 279.577L139.624 279.519L139.583 279.993L148.125 280.462L148.129 279.986L147.486 279.98C146.764 279.972 145.912 279.775 145.583 279.399C145.35 279.121 145.259 278.448 145.311 277.379L145.953 264.088L148.28 264.137C149.047 264.144 149.386 264.27 149.863 264.491C150.34 264.712 150.72 265.061 151.018 265.548C151.2 265.851 151.352 266.361 151.474 267.077L151.994 267.061L151.668 262.984L138.143 262.257ZM152.734 262.924L152.767 263.399L153.463 263.35C154.165 263.3 154.411 263.488 154.805 263.824C155.087 264.06 155.286 264.723 155.402 265.813L156.593 276.999C156.698 277.987 156.669 278.623 156.506 278.908C156.221 279.421 155.368 279.722 154.585 279.777L153.888 279.826L153.921 280.3L162.484 279.347L162.417 278.877L161.699 278.983C161.012 279.085 160.47 278.975 160.073 278.652C159.783 278.427 159.309 277.804 159.193 276.714L158.658 271.683C158.804 271.675 158.973 271.659 159.109 271.643C159.245 271.627 159.371 271.604 159.489 271.587C159.778 271.544 160.151 271.48 160.61 271.395L168.536 278.186L173.858 276.885L173.733 276.428C172.729 276.605 171.644 276.609 170.943 276.398C170.242 276.186 169.134 275.667 168.038 274.733L163.225 270.618C164.703 270.014 165.725 269.227 166.288 268.297C166.852 267.367 167.015 266.381 166.792 265.335C166.583 264.356 166.093 263.587 165.304 263.02C164.515 262.453 163.889 262.101 162.92 262.005C161.952 261.91 160.783 261.998 158.832 262.286L152.734 262.924ZM169.591 260.011L169.717 260.469L170.35 260.29C171.089 260.08 171.662 260.096 172.069 260.336C172.365 260.519 172.66 261.143 172.952 262.207L175.948 273.107C176.172 273.923 176.277 274.476 176.248 274.769C176.22 275.061 176.076 275.315 175.831 275.527C175.505 275.824 175.131 276.032 174.709 276.151L174.076 276.33L174.201 276.788L188.553 272.115L188.54 267.455L188.027 267.65C187.842 268.864 187.469 269.858 187.111 270.551C186.83 271.079 186.489 271.488 186.087 271.778C185.685 272.069 184.841 272.457 183.845 272.793L180.855 273.801C180.37 273.964 179.852 274.075 179.649 274.035C179.446 273.996 179.285 273.907 179.167 273.769C179.049 273.631 178.877 273.187 178.654 272.451L176.995 266.961L180.883 265.684C181.62 265.436 182.197 265.324 182.606 265.359C183.015 265.393 183.347 265.523 183.6 265.75C183.8 265.933 184.099 266.402 184.499 267.157L184.977 266.985L182.978 261.272L182.501 261.444C182.776 262.398 182.756 263.142 182.438 263.674C182.201 264.078 181.597 264.455 180.592 264.794L176.724 266.065L174.735 259.483L179.415 257.936C180.291 257.641 180.768 257.516 181.154 257.513C181.644 257.527 182.061 257.654 182.394 257.897C182.726 258.141 183.127 258.665 183.61 259.463L184.033 259.307L182.519 255.809L169.591 260.011ZM118.56 258.313C119.694 258.698 120.371 259.272 120.865 260.142C121.358 261.011 121.441 261.956 121.122 262.994C120.795 264.057 120.104 264.798 119.034 265.213C117.965 265.628 116.583 265.552 114.904 264.982C114.826 264.955 114.725 264.926 114.605 264.88C114.485 264.835 114.345 264.779 114.18 264.723L116.445 257.852C117.353 257.989 118.058 258.143 118.56 258.313ZM159.635 263.154C160.818 262.979 161.572 263.181 162.406 263.719C163.24 264.257 163.745 265.056 163.937 266.126C164.133 267.221 163.859 268.203 163.101 269.074C162.343 269.945 161.084 270.52 159.331 270.779C159.25 270.791 159.147 270.811 159.02 270.826C158.892 270.84 158.744 270.859 158.572 270.878L157.806 263.676C158.687 263.416 159.111 263.232 159.635 263.154ZM194.422 254.931L199.957 260.21L194.008 262.686L194.422 254.931Z" fill="#D4AA00"/>
<path d="M256.18 223.259C256.644 223.822 257.136 224.358 257.608 224.914C257.862 225.212 258.05 225.593 258.341 225.857C258.397 225.908 258.463 225.946 258.523 225.99C258.58 226.044 258.637 226.098 258.693 226.152C259.026 226.459 259.418 226.691 259.76 226.986C260.169 227.217 260.547 227.503 260.961 227.726C261.413 227.943 261.857 228.175 262.322 228.367C262.881 228.593 263.468 228.724 263.999 229.018C264.47 229.33 264.816 229.749 265.114 230.232C265.235 230.531 265.352 230.829 265.471 231.13L262.075 231.249C261.962 230.971 261.869 230.683 261.722 230.422C261.425 229.999 261.1 229.625 260.635 229.393C260.084 229.155 259.501 229.004 258.952 228.759C258.489 228.546 258.032 228.324 257.585 228.079C257.177 227.826 256.764 227.577 256.377 227.289C256.006 227.02 255.647 226.737 255.306 226.428C254.892 226.053 254.574 225.597 254.237 225.148C253.757 224.587 253.268 224.035 252.788 223.474L256.18 223.259Z" fill="#D4AA00"/>
<path d="M266.755 231.922C266.838 232.762 266.905 233.604 266.946 234.447C266.951 234.571 266.955 234.695 266.959 234.819L263.582 234.81C263.579 234.688 263.576 234.565 263.573 234.443C263.54 233.612 263.495 232.778 263.355 231.958L266.755 231.922Z" fill="#D4AA00"/>
<path d="M220.484 242.918C220.46 242.461 220.576 242.01 220.592 241.557C220.606 241.14 220.521 240.709 220.462 240.298C220.441 240.191 220.419 240.084 220.398 239.977L223.781 239.935C223.797 240.046 223.814 240.157 223.83 240.268C223.89 240.712 223.967 241.164 223.951 241.615C223.893 243.258 223.912 241.007 223.869 242.526C223.865 242.664 223.876 242.802 223.879 242.94L220.484 242.918Z" fill="#D4AA00"/>
<path d="M223.42 239.343C223.566 238.417 223.623 237.473 223.668 236.532L227.001 236.576C226.961 237.534 226.882 238.487 226.78 239.438L223.42 239.343Z" fill="#D4AA00"/>
<path d="M227.703 252.112C228.188 252.591 228.655 253.095 229.16 253.552C229.497 253.961 229.941 254.236 230.314 254.605C230.764 254.911 231.108 255.343 231.51 255.705C231.818 256.019 232.093 256.373 232.422 256.663C232.749 257.002 233.093 257.331 233.389 257.699C234.716 259.219 233.582 258.613 235.743 255.779C236.125 255.353 236.452 254.881 236.809 254.433C237.19 253.979 237.45 253.433 237.648 252.872C237.717 252.225 237.341 251.816 236.832 251.522C236.474 251.301 236.048 251.366 235.664 251.274C235.444 251.222 235.241 251.108 235.028 251.032L238.383 250.614C238.992 250.812 239.655 250.824 240.202 251.198C240.764 251.656 241.126 252.24 241.03 253.01C240.839 253.603 240.582 254.205 240.189 254.682C239.857 255.166 239.458 255.599 239.12 256.081C238.646 256.504 238.298 257.08 237.978 257.631C237.563 258.212 237.178 258.812 236.765 259.395C235.715 260.896 233.758 260.677 232.284 259.666C231.845 259.379 231.381 259.134 230.956 258.824C230.609 258.557 230.278 258.281 229.998 257.936C229.683 257.593 229.373 257.245 229.031 256.931C228.731 256.611 228.429 256.292 228.125 255.976C227.744 255.59 227.354 255.217 226.933 254.878C226.545 254.531 226.123 254.225 225.782 253.823C225.302 253.341 224.827 252.852 224.317 252.405L227.703 252.112Z" fill="#D4AA00"/>
<path d="M235.12 229.252C235.047 230.117 235.11 230.97 235.224 231.826C235.3 232.335 235.579 232.704 235.86 233.101C236.132 233.406 236.442 233.672 236.702 233.989C237.041 234.213 237.344 234.488 237.673 234.726C237.983 235.004 238.246 235.335 238.56 235.607C238.837 235.937 239.168 236.199 239.381 236.582C239.53 236.887 239.895 237.125 239.968 237.47C239.991 237.578 239.976 237.69 239.979 237.799C239.915 238.607 239.788 239.378 239.359 240.065C238.965 240.629 238.382 240.978 237.802 241.3C237.249 241.556 236.741 241.876 236.244 242.232C235.821 242.583 235.446 242.986 235.046 243.363C234.516 243.771 233.982 244.173 233.455 244.586C232.889 245.025 232.345 245.493 231.755 245.898C228.655 248.402 226.594 246.929 227.951 245.566C227.553 246.495 227.654 245.846 227.413 246.88C227.161 247.501 227.146 248.187 226.949 248.82C226.912 248.909 226.874 248.998 226.836 249.087L223.449 248.913C223.487 248.833 223.525 248.754 223.563 248.674C223.816 248.073 223.756 247.354 224.04 246.752C224.087 246.605 224.219 246.2 224.248 246.043C224.337 245.553 224.338 245.04 224.506 244.564C224.527 244.49 224.796 243.599 224.809 243.597C228.077 243.126 227.859 242.28 228.378 243.633C228.805 244.491 228.517 244.461 228.855 244.997C229.471 244.642 229.536 244.674 230.095 244.234C230.631 243.86 231.101 243.384 231.669 243.055C232.068 242.659 232.473 242.278 232.873 241.883C233.362 241.487 233.881 241.159 234.444 240.888C235.007 240.634 235.576 240.301 235.986 239.822C236.458 239.253 236.539 238.526 236.584 237.797C236.554 237.392 236.165 237.114 235.985 236.768C235.745 236.443 235.44 236.177 235.169 235.88C234.885 235.586 234.598 235.294 234.285 235.034C233.96 234.766 233.597 234.545 233.309 234.233C233.017 233.934 232.725 233.635 232.465 233.306C232.151 232.87 231.925 232.398 231.847 231.852C231.744 230.979 231.716 230.109 231.724 229.23L235.12 229.252Z" fill="#D4AA00"/>
<path d="M243.18 221.925C243.905 221.604 244.598 221.229 245.357 220.995C246.963 220.639 248.744 220.495 250.267 221.162C250.695 221.398 250.93 221.811 251.233 222.179C251.619 222.751 251.783 223.444 251.976 224.103C252.097 225.011 252.19 225.974 251.991 226.877C251.792 227.587 251.249 228.073 250.699 228.501C250.195 228.905 249.595 229.134 249.018 229.397L245.655 228.982C246.209 228.685 246.833 228.53 247.336 228.138C247.859 227.815 248.387 227.369 248.613 226.766C248.856 225.951 248.73 225.021 248.622 224.192C248.418 223.573 248.242 222.92 247.844 222.4C247.315 222.096 246.733 222.409 246.543 222.402L243.18 221.925Z" fill="#D4AA00"/>
<path d="M240.063 231.808C239.313 231.411 238.822 230.752 238.565 229.931C238.482 229.294 238.705 228.79 239.21 228.438C240.888 227.915 242.836 227.814 244.506 228.4C245.059 228.566 245.512 228.898 245.855 229.373C246.223 229.768 246.446 230.281 246.617 230.794C246.868 231.597 246.973 232.435 247.121 233.262C247.262 234.011 247.331 234.77 247.362 235.531C247.284 236.334 246.981 237.047 246.634 237.756C246.305 238.35 245.792 238.74 245.243 239.094C244.662 239.412 244.074 239.728 243.466 239.986L240.111 239.54C240.727 239.329 241.281 238.984 241.877 238.722C242.381 238.382 242.91 238.104 243.259 237.57C243.6 236.88 243.898 236.323 243.978 235.525C243.952 234.781 243.893 234.038 243.758 233.306C243.613 232.497 243.435 231.227 243.159 230.451C242.241 229.657 242.204 231.614 242.36 231.71L240.063 231.808Z" fill="#D4AA00"/>
<path d="M254.083 237.803C254.519 238.539 254.879 239.329 255.107 240.161C255.279 240.921 255.408 241.628 255.188 242.386C254.986 243.041 254.517 243.548 254.047 244.011C253.524 244.467 252.916 244.797 252.34 245.173C251.68 245.657 250.991 246.097 250.29 246.513C249.657 246.926 248.958 247.2 248.305 247.572C247.672 247.904 247.121 248.364 246.566 248.815C246.132 249.044 245.86 249.513 245.536 249.891C245.647 249.869 246.105 249.375 247.945 249.514C248.007 249.519 248.037 249.606 248.06 249.666C248.138 249.871 248.077 250.122 248.042 250.328C247.909 251.046 247.883 251.779 247.857 252.507C247.914 253.312 247.673 254.065 247.481 254.831C247.341 255.635 246.922 256.317 246.45 256.952C245.992 257.532 245.411 257.94 244.759 258.244C244.283 258.457 243.798 258.645 243.315 258.838L239.951 258.409C240.419 258.177 240.927 258.038 241.402 257.819C242.028 257.534 242.629 257.248 243.092 256.699C243.553 256.11 243.972 255.483 244.104 254.72C244.293 253.977 244.546 253.257 244.486 252.474C244.516 251.731 244.434 251.404 244.536 250.667C243.92 250.654 245.372 250.945 242.174 250.391C241.72 250.323 241.25 250.124 241.619 249.569C242.115 249.148 242.729 248.917 243.206 248.469C243.788 248.045 244.296 247.502 244.951 247.186C245.597 246.78 246.3 246.521 246.946 246.12C247.655 245.737 248.331 245.283 248.984 244.804C249.541 244.419 250.124 244.091 250.679 243.705C251.114 243.282 251.598 242.857 251.801 242.254C251.849 242.117 251.939 241.893 251.947 241.743C251.976 241.242 251.823 240.729 251.741 240.242C251.507 239.451 251.174 238.68 250.691 238.019L254.083 237.803Z" fill="#D4AA00"/>
<path d="M240.404 260.12C240.501 260.826 240.297 261.528 240.188 262.221C240.183 262.566 240.178 262.396 240.201 262.732L236.808 262.733C236.789 262.35 236.791 262.546 236.806 262.143C236.911 261.489 237.128 260.818 237.004 260.156L240.404 260.12Z" fill="#D4AA00"/>
<path d="M236.596 263.421C236.448 264.186 236.388 264.966 236.347 265.744C236.342 265.876 236.337 266.008 236.332 266.14L232.96 266.106C232.965 265.972 232.971 265.838 232.977 265.705C233.02 264.913 233.087 264.125 233.196 263.34L236.596 263.421Z" fill="#D4AA00"/>
<path d="M254.006 233.212C254.036 233.932 253.957 234.61 253.763 235.299C253.67 235.643 253.701 235.479 253.66 235.788L250.734 235.728C250.785 235.375 250.748 235.554 250.848 235.192C251.064 234.473 251.142 233.959 251.076 233.192L254.006 233.212Z" fill="#D4AA00"/>
<path d="M250.525 236.426C250.385 237.018 250.339 237.623 250.303 238.225C250.287 238.587 250.28 238.416 250.316 238.738L247.266 238.739C247.242 238.384 247.244 238.567 247.265 238.192C247.307 237.58 247.361 236.969 247.461 236.362L250.525 236.426Z" fill="#D4AA00"/>
<path d="M255.238 232.845C256.819 232.189 258.798 232.004 260.389 232.563C260.852 232.746 261.26 233.09 261.588 233.473C261.922 233.841 262.282 234.19 262.591 234.581C262.904 234.988 263.197 235.397 263.369 235.89C263.533 236.473 263.53 237.083 263.535 237.685C263.508 238.347 263.599 239.022 263.458 239.671C263.313 240.222 263.044 240.691 262.747 241.163C262.336 241.771 261.823 242.29 261.347 242.841C260.822 243.521 260.31 244.2 259.584 244.655C259.308 244.793 259.021 244.903 258.734 245.014L255.377 244.557C255.667 244.467 255.935 244.337 256.227 244.255C256.987 243.898 257.496 243.256 257.995 242.576C258.429 242.013 258.942 241.523 259.361 240.945C259.486 240.731 259.676 240.53 259.787 240.311C259.905 240.076 259.937 239.789 260.07 239.559C260.258 238.961 260.101 238.289 260.153 237.669C260.144 237.111 260.145 236.539 259.976 236.002C259.792 235.559 259.497 235.181 259.2 234.814C258.872 234.448 258.551 234.075 258.207 233.726C257.866 233.403 257.91 234.006 257.447 233.915C256.727 234.249 256.168 233.954 255.238 232.845Z" fill="#D4AA00"/>
<path d="M57.7035 221.123C57.349 221.113 56.9752 221.245 56.6311 221.555C56.3049 221.903 55.9709 222.254 55.6715 222.623C55.3549 223.013 55.5549 222.825 55.3329 223.03C54.9341 223.439 54.6178 223.905 54.3169 224.377C53.9262 225.02 53.8769 225.724 53.95 226.437C54.0113 226.881 54.0199 227.312 54.0346 227.759C54.0245 227.916 54.0577 228.083 54.0628 228.242V228.267C54.0633 228.292 54.0634 228.319 54.0628 228.344C54.0574 228.348 54.0396 228.339 54.0346 228.344C54.0328 228.333 54.0391 228.324 54.0346 228.318C54.0428 228.299 54.0551 228.286 54.0628 228.267C54.0502 228.281 54.0238 228.284 54.0064 228.293C53.9884 228.301 54.0543 228.237 54.0345 228.242C53.9813 228.254 53.9417 228.294 53.8934 228.318C53.7144 228.406 53.5146 228.47 53.329 228.547C52.7949 228.774 52.2506 228.939 51.6921 229.106C51.2836 229.224 50.8395 229.277 50.4221 229.361C48.528 229.765 49.1771 232.18 51.0712 231.776C51.5604 231.652 52.0902 231.647 52.567 231.471C53.2222 231.271 53.8583 231.075 54.4861 230.81C54.7341 230.704 54.9796 230.576 55.2199 230.454C55.2581 230.449 55.2934 230.461 55.3327 230.454C55.8013 230.362 56.2642 230.216 56.7156 230.072C57.2405 229.878 57.7281 229.633 58.2396 229.411C58.7203 229.173 59.2017 228.918 59.6789 228.674C60.1752 228.402 60.6904 228.183 61.2029 227.937C61.7367 227.643 62.232 227.304 62.7551 226.996C64.4962 226.212 63.2826 224 61.5415 224.784C60.9292 225.082 60.3935 225.489 59.7918 225.801C59.2721 226.035 58.7681 226.272 58.2678 226.538C57.8201 226.767 57.3642 227.002 56.9132 227.225C56.8619 227.244 56.8221 227.28 56.7721 227.301C56.7539 226.928 56.7375 226.554 56.6874 226.182C56.6637 225.968 56.6139 225.776 56.7156 225.572C56.909 225.24 57.1514 224.941 57.4212 224.657C57.8245 224.222 58.1959 223.758 58.5782 223.309C59.6106 222.379 58.7672 221.151 57.7035 221.123Z" fill="#D4AA00"/>
<path d="M63.072 234.663C61.8647 234.439 61.261 234.013 60.663 233.04C60.3665 232.404 60.1682 231.71 60.3884 231.026C60.4335 230.886 60.5156 230.757 60.5792 230.623C61.0686 229.848 61.8769 229.522 62.8126 229.384C63.5222 229.272 64.2044 229.374 64.8831 229.563C65.413 229.707 65.8494 230.011 66.3187 230.259C66.7012 230.467 67.0205 230.748 67.3651 230.999C67.7973 231.352 68.0802 231.81 68.3281 232.278C68.7648 232.877 68.874 233.373 68.7607 234.096C68.6554 234.724 68.2982 235.251 67.8766 235.743C67.4831 236.183 67.0023 236.562 66.5123 236.913C66.0587 237.24 65.545 237.489 65.0664 237.784C64.5968 238.034 64.1121 238.257 63.6552 238.526C63.1894 238.835 62.7724 239.193 62.3012 239.497C62.0492 239.778 61.2856 239.937 61.0661 240.188C61.0598 240.283 60.7164 240.342 60.6684 240.462C59.2937 241.704 57.3446 239.952 58.7193 238.711C58.9289 238.533 59.132 238.349 59.3868 238.223C59.8227 237.939 60.3057 237.735 60.7418 237.453C61.2582 237.176 61.6256 236.707 62.1581 236.445C62.6047 236.186 63.0672 235.953 63.5327 235.725C63.9689 235.464 64.4276 235.231 64.8404 234.943C65.2017 234.723 65.5191 234.415 65.7965 234.118C65.7289 234.358 65.9316 233.865 65.978 233.871C66.0166 233.876 65.9504 234.009 65.9635 233.976C66.0063 233.868 66.0123 233.751 66.0539 233.644C66.1344 233.722 66.064 233.649 66.1501 233.904C66.2016 234.057 66.1492 233.855 66.0858 233.74C66.0084 233.599 65.9087 233.469 65.8337 233.327C65.7331 233.124 65.6751 233.052 65.5563 232.885C65.5457 232.87 65.5877 232.906 65.6034 232.917C65.5962 232.908 65.5899 232.899 65.583 232.89C65.3569 232.714 65.141 232.531 64.8916 232.38C64.6176 232.228 64.3619 232.055 64.0717 231.933C63.7805 231.852 63.5394 231.772 63.2219 231.836C63.0073 231.858 63.0205 231.872 63.0501 231.716C63.0284 231.221 63.0316 231.781 63.1115 231.907C63.1285 231.953 63.1965 232.019 63.1534 232.05C63.1314 232.065 63.0547 232.028 63.0698 232.049C63.1502 232.162 63.4042 232.162 63.5244 232.217C65.4446 232.505 64.9922 234.951 63.072 234.663Z" fill="#D4AA00"/>
<path d="M76.712 239.878C77.0012 240.527 77.3073 241.221 77.283 241.934C77.2767 242.113 77.2306 242.29 77.2045 242.468C76.9124 243.392 76.347 243.842 75.4376 244.269C74.8514 244.494 74.2464 244.657 73.6194 244.754C72.9066 244.843 72.2366 244.854 71.5261 244.758C70.9557 244.584 70.3622 244.505 69.7869 244.352C69.3701 244.175 68.9345 244.087 68.4803 244.039C68.1305 244.112 67.7597 244.091 67.4125 244.171C67.071 244.24 66.8474 244.215 66.6996 244.402C66.6746 244.419 66.7232 244.424 66.7165 244.434C66.5645 244.665 66.4357 244.836 66.3441 245.09C66.3723 245.091 66.3405 245.173 66.364 245.161C66.481 245.1 66.2471 244.848 66.4672 245.038C66.9797 245.418 67.4443 245.85 67.9735 246.213C68.2609 246.432 68.5676 246.63 68.8542 246.85C69.1163 247.051 68.9854 247.017 69.1221 247.048C69.3635 247.257 69.5618 247.271 69.8647 247.364C69.7106 247.392 70.4499 247.497 70.2527 247.466C69.8891 247.409 70.1172 247.382 69.8065 247.451C69.8365 247.43 69.8793 247.417 69.8964 247.386C69.907 247.367 69.8532 247.407 69.8294 247.41C69.8056 247.412 69.819 247.367 69.8231 247.345C69.8285 247.318 69.8498 247.238 69.8399 247.264C69.8154 247.329 69.7991 247.397 69.7787 247.463C69.789 247.553 69.7993 247.643 69.8096 247.733C69.0665 246.112 71.611 245.165 72.354 246.786C72.4127 246.982 72.4712 247.177 72.5298 247.373C72.5146 247.567 72.5185 247.763 72.4841 247.955C72.3669 248.609 71.8499 249.19 71.2641 249.555C71.0719 249.64 70.8875 249.741 70.6875 249.81C70.1161 250.006 69.4851 249.887 68.9358 249.698C68.6996 249.606 69.1717 249.787 68.5305 249.584C68.169 249.469 67.8348 249.295 67.5386 249.077C67.1108 248.788 66.7102 248.468 66.2867 248.173C65.6266 247.707 65.0153 247.187 64.3989 246.675C63.6695 245.891 63.4525 245.255 63.7505 244.259C64.0147 243.614 64.3765 243.003 64.9177 242.511C65.5002 242.092 66.1297 241.816 66.8779 241.738C67.5156 241.635 68.1678 241.562 68.8164 241.578C69.45 241.65 70.0777 241.762 70.6636 242.001C70.7963 242.092 70.6762 242.019 71.0309 242.08C71.3911 242.142 71.749 242.223 72.0953 242.332C71.9694 242.382 72.0196 242.355 72.2849 242.35C72.5187 242.346 72.7526 242.339 72.9859 242.322C73.0469 242.318 73.1079 242.312 73.169 242.307C73.537 242.256 73.885 242.155 74.2336 242.039C74.4667 241.98 73.9506 242.116 74.4737 241.918C74.5221 241.899 74.3673 242.055 74.4196 242.051C74.5212 242.043 74.4597 241.877 74.498 242.014C74.6654 241.977 74.3042 241.126 74.2497 240.987C73.3792 239.419 75.8415 238.31 76.712 239.878Z" fill="#D4AA00"/>
<path d="M71.0412 254.697C71.2517 255.636 71.087 256.312 70.5367 257.121C69.9559 257.831 69.1166 258.149 68.1922 258.34C67.5101 258.462 66.8135 258.471 66.1209 258.478C65.3431 258.534 64.5938 258.346 63.843 258.196C63.3508 258.107 62.8496 258.079 62.3492 258.064C62.0788 258.075 61.6231 258.093 61.3882 258.189C61.2729 258.188 60.4314 258.497 60.4542 258.531C60.3527 258.627 60.0938 258.679 60.0226 258.82C60.019 258.828 60.047 258.862 60.0491 258.872C59.9978 259.127 60.062 259.371 60.1018 259.624C60.1863 259.806 60.2357 260.005 60.3888 260.152C60.5794 260.227 60.7608 260.412 60.976 260.488C61.2254 260.634 61.4932 260.691 61.7839 260.716C62.0822 260.717 62.3904 260.775 62.6888 260.748C62.7275 260.745 62.6039 260.755 62.5731 260.733C62.5563 260.722 62.6105 260.715 62.6292 260.706C63.1339 260.51 63.6713 260.419 64.2147 260.367C64.7755 260.329 65.3383 260.33 65.9003 260.33C66.49 260.32 67.0738 260.322 67.6567 260.409C68.4905 260.595 68.931 260.899 69.3883 261.561C69.7109 262.03 69.8118 262.567 69.863 263.107C69.8821 263.355 69.884 263.603 69.8875 263.851C69.9115 265.605 67.1588 265.635 67.1348 263.882C67.1321 263.689 67.1312 263.497 67.119 263.305C67.1075 263.159 67.1109 262.999 67.046 262.864C67.0103 262.811 66.9401 262.768 66.939 262.707C66.9389 262.701 66.9939 262.795 67.182 262.883C67.2031 262.893 67.2696 262.913 67.2506 262.9C67.173 262.848 67.0923 262.866 67.1879 262.853C66.7642 262.781 66.3333 262.818 65.903 262.81C65.4334 262.81 64.9634 262.809 64.4945 262.834C64.1733 262.861 63.8631 262.913 63.5679 263.038C62.8711 263.249 62.1752 263.257 61.4504 263.178C60.8348 263.104 60.234 262.972 59.6946 262.683C59.1339 262.403 58.5983 262.068 58.1768 261.629C57.7833 261.128 57.5033 260.576 57.3758 259.97C57.2753 259.324 57.2195 258.677 57.4535 258.046C57.7461 257.373 58.201 256.823 58.9195 256.472C59.4675 256.172 60.0466 255.927 60.6749 255.793C61.2526 255.668 61.8509 255.57 62.447 255.585C63.1158 255.607 63.7852 255.651 64.4417 255.775C64.9926 255.886 65.5239 256.049 66.095 255.997C66.5984 255.993 67.1052 255.992 67.6031 255.917C67.8256 255.877 68.0443 255.842 68.2367 255.758C68.4719 255.548 68.3823 255.41 68.3259 255.104C68.0059 253.374 70.7212 252.967 71.0412 254.697Z" fill="#D4AA00"/>
<path d="M41.5597 223.59C41.3623 223.592 41.1624 223.63 40.9388 223.717C40.1964 224.038 39.5202 224.459 38.8504 224.886C38.3945 225.207 37.9769 225.552 37.5522 225.903C36.9462 226.443 36.6183 226.879 36.3669 227.632C36.3651 227.64 36.3687 227.65 36.3669 227.658C36.0123 227.595 35.6543 227.565 35.2944 227.531C34.6523 227.48 33.9912 227.482 33.3471 227.48C32.7429 227.515 32.1442 227.587 31.5409 227.632C30.6132 227.716 30.0453 228.061 29.4243 228.675C29.0743 229.118 29.2375 228.857 28.9445 229.387C28.144 230.985 30.6558 232.028 31.4563 230.429C31.4581 230.356 31.4635 230.388 31.5127 230.302C31.5488 230.258 31.6594 230.184 31.682 230.149C31.73 230.138 31.6857 230.154 31.7949 230.124C32.317 230.083 32.8283 230.012 33.3471 229.946C33.9013 229.948 34.4594 229.956 35.0122 229.997C35.4069 230.031 35.7858 230.085 36.1693 230.175C36.2013 230.489 36.2608 230.803 36.3104 231.116C36.3149 231.153 36.305 231.18 36.3104 231.217C36.2439 231.268 36.1127 231.925 36.0846 232.056C36.0957 232.047 36.081 232.068 36.0846 232.082C35.8778 232.286 35.6742 232.92 35.6049 233.175C35.4498 233.696 35.538 234.232 35.6331 234.751C35.7393 235.281 35.9892 235.753 36.3104 236.201C36.6282 236.607 37.0068 236.938 37.4392 237.243C39.075 238.194 40.5707 236.109 38.935 235.158C38.8148 235.057 38.676 234.958 38.6246 234.853C38.5079 234.691 38.3942 234.561 38.3423 234.345C38.288 234.05 38.236 233.977 38.2859 233.734C38.373 233.317 38.6948 232.982 38.7939 232.565C38.9256 231.962 39.1748 231.383 39.0479 230.76C38.9821 230.348 38.8679 229.932 38.9068 229.514C38.9131 229.111 38.933 228.715 39.0197 228.319C39.0294 228.277 39.0472 228.234 39.0478 228.192C39.048 228.183 39.017 228.175 39.0197 228.166C39.0692 227.981 39.3452 227.906 39.4148 227.734C39.752 227.45 40.0707 227.156 40.4308 226.895C40.9376 226.566 41.4583 226.268 42.0112 226.005C43.5767 225.401 42.9414 223.573 41.5597 223.59Z" fill="#D4AA00"/>
<path d="M50.1577 241.351C50.155 240.915 50.2964 240.483 50.3031 240.048C50.3032 240.037 50.2789 240.037 50.2749 240.027C50.2567 239.981 50.2507 239.931 50.2387 239.883C50.1762 239.449 50.0813 239.356 49.7914 239.042C49.4207 238.637 48.9626 238.273 48.4674 237.992C48.2695 237.923 47.92 237.744 47.702 237.832C47.3562 237.856 47.0215 237.925 46.7133 238.072C46.2521 238.295 45.7859 238.509 45.3056 238.7C44.8621 238.832 44.4964 239.054 44.1187 239.288C43.6307 239.63 43.124 239.945 42.6137 240.259C42.6344 240.36 42.0976 240.444 42.0436 240.581C42.0346 240.603 42.0939 240.568 42.1159 240.556C42.0589 240.633 42.002 240.71 41.945 240.787C41.7574 240.997 41.7635 241.191 41.776 241.439C41.7688 241.806 41.8965 242.135 42.0735 242.456C42.2191 242.688 42.526 242.786 42.7726 242.922C43.2018 243.136 43.6464 243.326 44.1158 243.455C44.9775 243.676 45.5216 244.224 45.9062 244.922C46.1089 245.413 46.0189 245.121 46.109 245.814C46.1 247.567 43.3475 247.556 43.3561 245.803C43.441 246.069 43.4561 246.128 43.4151 245.978C43.3971 245.931 43.295 245.858 43.3472 245.842C43.363 245.837 43.7145 246.03 43.2815 245.819C42.6042 245.62 41.9504 245.361 41.3343 245.037C40.6359 244.651 39.9631 244.241 39.6019 243.548C39.2508 242.897 39.0298 242.211 39.0235 241.482C39.0199 240.731 39.17 240.021 39.664 239.398C40.0702 238.871 40.3936 238.475 41.0691 238.206C41.5773 237.898 42.0752 237.58 42.5613 237.243C43.0869 236.92 43.6173 236.621 44.218 236.422C44.677 236.254 45.1004 236.027 45.5418 235.827C46.1994 235.56 46.8862 235.379 47.6123 235.354C48.4571 235.357 49.2604 235.511 49.9858 235.924C50.7029 236.361 51.3891 236.875 51.9334 237.484C52.4428 238.062 52.839 238.679 52.9441 239.424C53.0688 240.072 53.0327 240.704 52.9107 241.351C52.9107 243.105 50.1577 243.105 50.1577 241.351Z" fill="#D4AA00"/>
<path d="M58.2369 241.794C57.4626 241.786 56.674 242.347 56.854 243.32C56.9488 243.886 56.962 244.457 57.0516 245.023C57.1232 245.544 57.3373 246.019 57.5596 246.498C57.7084 246.758 57.8663 247.025 58.0111 247.286C57.9961 247.298 58.0021 247.295 57.983 247.312C57.9394 247.354 57.8878 247.397 57.8418 247.439C57.6674 247.273 57.4714 247.13 57.2774 246.981C56.9035 246.643 56.5059 246.304 56.0639 246.04C55.5622 245.722 55.0395 245.454 54.4552 245.278C53.7787 245.087 53.0697 244.955 52.3668 244.871C50.4398 244.623 50.0729 247.089 51.9999 247.337C52.5555 247.402 53.1028 247.49 53.6368 247.642C53.9402 247.744 54.1951 247.901 54.4552 248.074C54.7706 248.257 55.0689 248.468 55.3301 248.71C55.3733 248.747 55.4271 248.775 55.4712 248.812C54.9433 249.087 54.5175 249.478 54.0319 249.803C53.5699 250.141 53.1102 250.482 52.649 250.82C52.1513 251.086 51.6818 251.403 51.2379 251.736C50.749 252.219 50.2209 252.694 49.7422 253.185C48.4732 254.515 50.5616 256.117 51.8306 254.787C52.1919 254.388 52.6698 254.055 53.0159 253.642C53.4549 253.314 53.8898 253.032 54.3706 252.753C54.8144 252.423 55.28 252.089 55.7252 251.761C56.146 251.457 56.5265 251.117 56.9952 250.871C57.0304 250.851 57.073 250.84 57.1081 250.82C57.1833 250.93 57.2585 251.041 57.3339 251.151C57.6634 251.595 57.9852 252.034 58.3216 252.473C58.5614 252.79 58.872 253.043 59.1401 253.337C59.2918 253.472 59.4377 253.612 59.5916 253.744C61.0225 254.933 62.8851 253.103 61.4542 251.914C61.3579 251.85 61.3005 251.743 61.2002 251.685C60.9865 251.473 60.7754 251.275 60.5794 251.049C60.2667 250.649 59.954 250.234 59.648 249.829C59.5712 249.717 59.4988 249.61 59.4223 249.498C59.6118 249.357 59.7656 249.207 59.9303 249.04C60.6929 248.315 61.0961 247.574 60.6923 246.574C60.5029 246.224 60.3085 245.872 60.0996 245.532C59.9616 245.241 59.8248 244.965 59.7892 244.642C59.6687 244.074 59.697 243.481 59.5634 242.913C59.4234 242.156 58.8391 241.801 58.2369 241.794Z" fill="#D4AA00"/>
<path d="M130.472 86.9449C124.25 89.467 122.199 102.318 116.992 104.939C111.125 110.703 104.354 108.743 99.8495 115.86C99.4871 117.42 95.9555 121.125 95.6797 123.157C97.9629 121.17 99.6608 119.674 101.144 118.367C105.671 112.183 111.326 113.085 116.724 107.818C120.392 105.499 126.102 96.2769 128.041 92.4051C127.945 91.4088 130.332 88.7909 130.472 86.9449Z" fill="#806600"/>
<path d="M91.4444 124.417C89.7673 125.308 90.3598 128.598 89.3805 130.15C88.6526 135.143 91.8334 137.537 91.2468 142.521C90.1667 140.95 89.6677 147.698 88.6534 148.853C88.255 151.118 87.1217 154.902 88.558 156.967C90.8022 157.41 88.2183 152.189 89.3955 151.006C91.2844 146.066 93.2027 140.802 92.0032 135.523C91.2767 131.804 92.2279 130.223 91.0538 126.804C90.8242 126.723 91.6969 124.325 91.4444 124.417Z" fill="#806600"/>
<path d="M197.525 104.138C195.512 105.234 197.905 108.696 197.199 110.541C198.03 114.144 196.945 117.711 193.52 119.435C191.48 119.137 189.966 122.854 192.519 122.159C196.913 120.187 200.448 115.847 199.046 110.774C198.344 109.199 199.94 104.229 197.525 104.138Z" fill="#806600"/>
<path d="M170.149 121.24C169.25 123.437 173.096 128.311 173.173 130.145C173.834 132.836 175.146 135.815 173.08 137.572C172.35 140.308 168.371 141.883 168.587 144.79C170.552 146.346 171.494 141.634 173.034 140.971C177.371 136.811 176.232 129.9 172.605 125.6C172.344 125.238 170.667 121.13 170.149 121.24Z" fill="#806600"/>
<path d="M134.848 109.874C133.506 110.662 133.122 109.739 131.051 110.901C133.5 112.087 136.119 109.876 138.061 113.134C141.664 116.192 142.672 123.396 147.531 124.898C154.967 129.459 154.335 137.412 159.155 143.774C159.469 145.402 162.492 146.171 161.81 144.007C155.849 137.91 157.368 127.522 150.052 122.284C147.422 120.545 144.197 119.369 143.044 116.091C140.905 113.681 138.652 109.459 134.848 109.874Z" fill="#806600"/>
<path d="M152.466 147.992C150.431 149.313 153.218 149.172 153.312 150.82C155.508 155.363 151.518 161.004 154.226 167.427C155.172 164.276 156.323 161.709 156.316 160.459C156.537 155.244 156.118 149.333 151.939 145.697C151.788 145.701 151.628 145.685 151.52 145.721L152.466 147.992Z" fill="#806600"/>
<path d="M142.504 98.5202C146.158 103.505 159.449 102.691 163.02 106.758C169.87 110.767 169.117 117.153 177.082 119.681C178.716 119.682 183.076 122.047 185.169 121.876C182.76 120.263 180.951 119.068 179.37 118.024C172.339 115.286 172.229 110.102 165.963 106.407C162.972 103.638 152.673 100.475 148.431 99.5528C147.447 99.8415 144.385 98.2659 142.504 98.5202Z" fill="#806600"/>
</svg>
