<svg width="300" height="300" viewBox="0 0 300 300" fill="none" xmlns="http://www.w3.org/2000/svg">
<g clip-path="url(#clip0_164_9078)">
<path d="M150 300C232.843 300 300 232.843 300 150C300 67.1573 232.843 0 150 0C67.1573 0 0 67.1573 0 150C0 232.843 67.1573 300 150 300Z" fill="#0F47AF"/>
<path d="M35.875 112.684H123.06L142.772 52.0147L148.03 68.1953L119.382 156.361L110.876 150.18L119.81 122.684H49.6387L35.875 112.684ZM79.4672 246.847L106.408 163.93L54.8004 126.434H71.8132L146.812 180.923L138.304 187.103L114.916 170.111L93.2311 236.847L79.4672 246.847ZM220.536 246.847L150.002 195.601L98.3924 233.097L103.65 216.917L178.648 162.428L181.898 172.427L158.508 189.421L215.278 230.667L220.536 246.847ZM264.128 112.684L193.594 163.93L213.306 224.601L199.542 214.601L170.896 126.434H181.41L190.344 153.93L247.114 112.684H264.128ZM150.002 29.767L176.942 112.684H240.734L226.972 122.684H134.268L137.516 112.684H166.428L144.744 45.947L150.002 29.767Z" fill="#FCDD09"/>
<path d="M150.002 205.233V270.233M97.6937 167.228L35.875 187.315M117.674 105.737L79.4677 53.1509M182.33 105.737L220.536 53.1509M202.31 167.228L264.128 187.315" stroke="#FCDD09" stroke-width="10"/>
</g>
<defs>
<clipPath id="clip0_164_9078">
<rect width="300" height="300" fill="white"/>
</clipPath>
</defs>
</svg>
