<svg width="300" height="300" viewBox="0 0 300 300" fill="none" xmlns="http://www.w3.org/2000/svg">
<path d="M32 2V179.522H32.0098C32.0065 179.568 32.0033 179.613 32 179.659C32 211.045 44.468 241.146 66.6612 263.339C88.8544 285.532 118.955 298 150.341 298C181.727 298 211.827 285.532 234.02 263.339C256.214 241.146 268.682 211.045 268.682 179.659C268.68 179.613 268.679 179.568 268.678 179.522H268.682V2H32Z" fill="#C8102E" stroke="black" stroke-width="0.591852"/>
<path d="M109.576 13.9956C112.288 15.8587 116.285 16.8169 116.285 16.8169C116.285 16.8169 120.281 15.8587 122.993 13.9956C122.059 17.1508 122.383 21.2478 122.383 21.2478C122.383 21.2478 124.529 24.7526 127.139 26.7563C123.85 26.8432 120.054 28.4171 120.054 28.4171C120.054 28.4171 117.384 31.5413 116.285 34.6428C115.185 31.5413 112.515 28.4171 112.515 28.4171C112.515 28.4171 108.719 26.8432 105.43 26.7563C108.04 24.7526 110.186 21.2478 110.186 21.2478C110.186 21.2478 110.51 17.1508 109.576 13.9956Z" fill="white" stroke="black" stroke-width="0.591704"/>
<path d="M116.252 14.252C115.357 14.2605 114.502 14.622 113.872 15.2578C113.242 15.8936 112.889 16.7523 112.89 17.6471C112.89 18.0671 112.968 18.4833 113.12 18.8748C112.794 18.6092 112.423 18.4062 112.023 18.2763C111.167 17.9982 110.235 18.0715 109.433 18.4802C108.631 18.8889 108.024 19.5994 107.746 20.4555C107.468 21.3116 107.541 22.2432 107.95 23.0453C108.359 23.8473 109.069 24.4542 109.925 24.7325C110.325 24.8621 110.745 24.9165 111.164 24.893C110.811 25.1201 110.503 25.4107 110.256 25.75C109.994 26.1107 109.805 26.5194 109.701 26.953C109.597 27.3865 109.579 27.8362 109.649 28.2766C109.719 28.717 109.874 29.1393 110.107 29.5194C110.34 29.8996 110.646 30.2301 111.007 30.4921C111.367 30.7542 111.776 30.9428 112.21 31.0469C112.643 31.151 113.093 31.1688 113.533 31.099C113.974 31.0293 114.396 30.8735 114.776 30.6406C115.156 30.4076 115.487 30.102 115.749 29.7413C115.995 29.4011 116.177 29.018 116.284 28.6116C116.391 29.0181 116.572 29.4012 116.819 29.7413C117.349 30.4695 118.145 30.9577 119.034 31.0985C119.923 31.2393 120.832 31.0212 121.56 30.4921C121.921 30.2301 122.227 29.8996 122.46 29.5194C122.693 29.1393 122.848 28.717 122.918 28.2766C122.988 27.8362 122.97 27.3865 122.866 26.953C122.762 26.5194 122.573 26.1107 122.311 25.75C122.064 25.4103 121.756 25.1193 121.403 24.8918C121.822 24.9157 122.242 24.8617 122.642 24.7325C123.066 24.5948 123.458 24.375 123.797 24.0856C124.137 23.7961 124.415 23.4427 124.618 23.0456C124.82 22.6484 124.942 22.2153 124.978 21.7709C125.013 21.3265 124.96 20.8795 124.822 20.4555C124.684 20.0315 124.464 19.6387 124.175 19.2997C123.885 18.9607 123.532 18.6821 123.134 18.4797C122.737 18.2773 122.304 18.1552 121.859 18.1203C121.415 18.0854 120.968 18.1384 120.544 18.2763C120.145 18.406 119.774 18.6085 119.448 18.8736C119.6 18.4825 119.678 18.0667 119.679 17.6471C119.679 17.2012 119.591 16.7597 119.42 16.3477C119.25 15.9358 119 15.5615 118.684 15.2462C118.369 14.9309 117.995 14.6808 117.583 14.5102C117.171 14.3396 116.729 14.2519 116.284 14.252C116.273 14.2519 116.262 14.2519 116.252 14.252ZM116.266 20.0034C116.272 20.0034 116.278 20.0034 116.284 20.0034C116.707 20.0033 117.127 20.0867 117.518 20.2488C117.91 20.4109 118.265 20.6485 118.565 20.9481C118.865 21.2477 119.102 21.6034 119.264 21.9949C119.427 22.3864 119.51 22.806 119.51 23.2297C119.51 23.6533 119.426 24.0728 119.264 24.4641C119.102 24.8554 118.864 25.211 118.565 25.5105C118.265 25.81 117.909 26.0475 117.518 26.2095C117.127 26.3716 116.707 26.4549 116.284 26.4548C115.428 26.4547 114.608 26.1149 114.003 25.5101C113.398 24.9052 113.059 24.085 113.058 23.2297C113.058 22.3772 113.395 21.5593 113.996 20.9548C114.597 20.3502 115.413 20.0082 116.266 20.0034Z" fill="white" stroke="black" stroke-width="0.591705"/>
<path d="M51.0759 13.9956C53.7881 15.8587 57.7846 16.8169 57.7846 16.8169C57.7846 16.8169 61.7811 15.8587 64.4933 13.9956C63.5594 17.1508 63.8832 21.2478 63.8832 21.2478C63.8832 21.2478 66.0294 24.7526 68.6395 26.7563C65.3501 26.8432 61.5537 28.4171 61.5537 28.4171C61.5537 28.4171 58.8837 31.5413 57.7846 34.6428C56.6855 31.5413 54.0154 28.4171 54.0154 28.4171C54.0154 28.4171 50.219 26.8432 46.9297 26.7563C49.5397 24.7526 51.686 21.2478 51.686 21.2478C51.686 21.2478 52.0097 17.1508 51.0759 13.9956Z" fill="white" stroke="black" stroke-width="0.591704"/>
<path d="M57.7516 14.252C56.8569 14.2605 56.0017 14.622 55.3721 15.2578C54.7424 15.8936 54.3894 16.7523 54.3896 17.6471C54.3897 18.0671 54.4678 18.4833 54.6198 18.8748C54.2944 18.6092 53.9225 18.4062 53.5231 18.2763C52.667 17.9982 51.7354 18.0715 50.9333 18.4802C50.1313 18.8889 49.5244 19.5994 49.2462 20.4555C48.968 21.3116 49.0414 22.2432 49.45 23.0453C49.8587 23.8473 50.5692 24.4542 51.4254 24.7325C51.8247 24.8621 52.2445 24.9165 52.6637 24.893C52.3107 25.1201 52.0029 25.4107 51.7559 25.75C51.4938 26.1107 51.3052 26.5194 51.2011 26.953C51.0969 27.3865 51.0792 27.8362 51.1489 28.2766C51.2187 28.717 51.3745 29.1393 51.6074 29.5194C51.8404 29.8996 52.146 30.2301 52.5067 30.4921C52.8673 30.7542 53.2761 30.9428 53.7096 31.0469C54.1431 31.151 54.5929 31.1688 55.0333 31.099C55.4736 31.0293 55.8959 30.8735 56.2761 30.6406C56.6562 30.4076 56.9867 30.102 57.2488 29.7413C57.4954 29.4011 57.6767 29.018 57.7835 28.6116C57.8907 29.0181 58.0724 29.4012 58.3195 29.7413C58.8486 30.4695 59.6454 30.9577 60.5344 31.0985C61.4235 31.2393 62.3321 31.0212 63.0603 30.4921C63.4211 30.2301 63.7266 29.8996 63.9596 29.5194C64.1926 29.1393 64.3484 28.717 64.4181 28.2766C64.4878 27.8362 64.4701 27.3865 64.3659 26.953C64.2618 26.5194 64.0733 26.1107 63.8111 25.75C63.5642 25.4103 63.2564 25.1193 62.9033 24.8918C63.3224 24.9157 63.7423 24.8617 64.1417 24.7325C64.5657 24.5948 64.9584 24.375 65.2975 24.0856C65.6365 23.7961 65.9152 23.4427 66.1177 23.0456C66.3202 22.6484 66.4424 22.2153 66.4775 21.7709C66.5126 21.3265 66.4597 20.8795 66.3221 20.4555C66.1843 20.0315 65.9644 19.6387 65.6748 19.2997C65.3852 18.9607 65.0317 18.6821 64.6344 18.4797C64.2371 18.2773 63.8039 18.1552 63.3594 18.1203C62.9149 18.0854 62.4679 18.1384 62.0439 18.2763C61.645 18.406 61.2736 18.6085 60.9484 18.8736C61.1003 18.4825 61.1784 18.0667 61.1786 17.6471C61.1787 17.2012 61.091 16.7597 60.9204 16.3477C60.7498 15.9358 60.4997 15.5615 60.1844 15.2462C59.8692 14.9309 59.4948 14.6808 59.0829 14.5102C58.6709 14.3396 58.2294 14.2519 57.7835 14.252C57.7729 14.2519 57.7623 14.2519 57.7516 14.252ZM57.7658 20.0034C57.7717 20.0034 57.7776 20.0034 57.7835 20.0034C58.2072 20.0033 58.6268 20.0867 59.0183 20.2488C59.4098 20.4109 59.7655 20.6485 60.0651 20.9481C60.3647 21.2477 60.6023 21.6034 60.7644 21.9949C60.9265 22.3864 61.0099 22.806 61.0098 23.2297C61.0098 23.6533 60.9263 24.0728 60.7641 24.4641C60.6019 24.8554 60.3643 25.211 60.0647 25.5105C59.7651 25.81 59.4094 26.0475 59.018 26.2095C58.6266 26.3716 58.2071 26.4549 57.7835 26.4548C56.9282 26.4547 56.1079 26.1149 55.5031 25.5101C54.8983 24.9052 54.5585 24.085 54.5584 23.2297C54.5582 22.3772 54.8954 21.5593 55.4965 20.9548C56.0975 20.3502 56.9134 20.0082 57.7658 20.0034Z" fill="white" stroke="black" stroke-width="0.591705"/>
<path d="M236.179 13.9956C238.892 15.8587 242.888 16.8169 242.888 16.8169C242.888 16.8169 246.885 15.8587 249.597 13.9956C248.663 17.1508 248.987 21.2478 248.987 21.2478C248.987 21.2478 251.133 24.7526 253.743 26.7563C250.454 26.8432 246.657 28.4171 246.657 28.4171C246.657 28.4171 243.987 31.5413 242.888 34.6428C241.789 31.5413 239.119 28.4171 239.119 28.4171C239.119 28.4171 235.323 26.8432 232.033 26.7563C234.643 24.7526 236.79 21.2478 236.79 21.2478C236.79 21.2478 237.113 17.1508 236.179 13.9956Z" fill="white" stroke="black" stroke-width="0.591704"/>
<path d="M242.855 14.252C241.96 14.2605 241.105 14.622 240.476 15.2578C239.846 15.8936 239.493 16.7523 239.493 17.6471C239.493 18.0671 239.571 18.4833 239.723 18.8748C239.398 18.6092 239.026 18.4062 238.627 18.2763C237.77 17.9982 236.839 18.0715 236.037 18.4802C235.235 18.8889 234.628 19.5994 234.35 20.4555C234.072 21.3116 234.145 22.2432 234.554 23.0453C234.962 23.8473 235.673 24.4542 236.529 24.7325C236.928 24.8621 237.348 24.9165 237.767 24.893C237.414 25.1201 237.106 25.4107 236.859 25.75C236.597 26.1107 236.409 26.5194 236.305 26.953C236.2 27.3865 236.183 27.8362 236.252 28.2766C236.322 28.717 236.478 29.1393 236.711 29.5194C236.944 29.8996 237.249 30.2301 237.61 30.4921C237.971 30.7542 238.38 30.9428 238.813 31.0469C239.247 31.151 239.696 31.1688 240.137 31.099C240.577 31.0293 240.999 30.8735 241.38 30.6406C241.76 30.4076 242.09 30.102 242.352 29.7413C242.599 29.4011 242.78 29.018 242.887 28.6116C242.994 29.0181 243.176 29.4012 243.423 29.7413C243.952 30.4695 244.749 30.9577 245.638 31.0985C246.527 31.2393 247.436 31.0212 248.164 30.4921C248.525 30.2301 248.83 29.8996 249.063 29.5194C249.296 29.1393 249.452 28.717 249.522 28.2766C249.591 27.8362 249.574 27.3865 249.469 26.953C249.365 26.5194 249.177 26.1107 248.915 25.75C248.668 25.4103 248.36 25.1193 248.007 24.8918C248.426 24.9157 248.846 24.8617 249.245 24.7325C249.669 24.5948 250.062 24.375 250.401 24.0856C250.74 23.7961 251.019 23.4427 251.221 23.0456C251.424 22.6484 251.546 22.2153 251.581 21.7709C251.616 21.3265 251.563 20.8795 251.426 20.4555C251.288 20.0315 251.068 19.6387 250.778 19.2997C250.489 18.9607 250.135 18.6821 249.738 18.4797C249.341 18.2773 248.907 18.1552 248.463 18.1203C248.018 18.0854 247.571 18.1384 247.147 18.2763C246.749 18.406 246.377 18.6085 246.052 18.8736C246.204 18.4825 246.282 18.0667 246.282 17.6471C246.282 17.2012 246.194 16.7597 246.024 16.3477C245.853 15.9358 245.603 15.5615 245.288 15.2462C244.973 14.9309 244.598 14.6808 244.186 14.5102C243.774 14.3396 243.333 14.2519 242.887 14.252C242.876 14.2519 242.866 14.2519 242.855 14.252ZM242.869 20.0034C242.875 20.0034 242.881 20.0034 242.887 20.0034C243.311 20.0033 243.73 20.0867 244.122 20.2488C244.513 20.4109 244.869 20.6485 245.169 20.9481C245.468 21.2477 245.706 21.6034 245.868 21.9949C246.03 22.3864 246.113 22.806 246.113 23.2297C246.113 23.6533 246.03 24.0728 245.868 24.4641C245.705 24.8554 245.468 25.211 245.168 25.5105C244.869 25.81 244.513 26.0475 244.122 26.2095C243.73 26.3716 243.311 26.4549 242.887 26.4548C242.032 26.4547 241.211 26.1149 240.607 25.5101C240.002 24.9052 239.662 24.085 239.662 23.2297C239.662 22.3772 239.999 21.5593 240.6 20.9548C241.201 20.3502 242.017 20.0082 242.869 20.0034Z" fill="white" stroke="black" stroke-width="0.591705"/>
<path d="M212.519 70.8403C215.231 72.7035 219.228 73.6616 219.228 73.6616C219.228 73.6616 223.224 72.7035 225.937 70.8403C225.003 73.9955 225.327 78.0925 225.327 78.0925C225.327 78.0925 227.473 81.5973 230.083 83.601C226.793 83.6879 222.997 85.2618 222.997 85.2618C222.997 85.2618 220.327 88.3861 219.228 91.4876C218.129 88.3861 215.459 85.2618 215.459 85.2618C215.459 85.2618 211.662 83.6879 208.373 83.601C210.983 81.5973 213.129 78.0925 213.129 78.0925C213.129 78.0925 213.453 73.9955 212.519 70.8403Z" fill="white" stroke="black" stroke-width="0.591704"/>
<path d="M219.195 71.0967C218.3 71.1052 217.445 71.4667 216.815 72.1025C216.186 72.7383 215.833 73.597 215.833 74.4918C215.833 74.9118 215.911 75.3281 216.063 75.7195C215.738 75.4539 215.366 75.251 214.966 75.121C214.11 74.8429 213.179 74.9163 212.377 75.3249C211.575 75.7336 210.968 76.4441 210.69 77.3002C210.411 78.1564 210.485 79.0879 210.893 79.89C211.302 80.6921 212.013 81.299 212.869 81.5772C213.268 81.7068 213.688 81.7613 214.107 81.7377C213.754 81.9648 213.446 82.2554 213.199 82.5948C212.937 82.9554 212.749 83.3642 212.644 83.7977C212.54 84.2312 212.523 84.681 212.592 85.1213C212.662 85.5617 212.818 85.984 213.051 86.3641C213.284 86.7443 213.589 87.0748 213.95 87.3368C214.311 87.599 214.719 87.7875 215.153 87.8916C215.586 87.9958 216.036 88.0135 216.477 87.9438C216.917 87.8741 217.339 87.7183 217.719 87.4853C218.1 87.2523 218.43 86.9468 218.692 86.586C218.939 86.2458 219.12 85.8627 219.227 85.4563C219.334 85.8628 219.516 86.2459 219.763 86.586C220.292 87.3142 221.089 87.8024 221.978 87.9432C222.867 88.084 223.775 87.8659 224.504 87.3368C224.864 87.0748 225.17 86.7443 225.403 86.3641C225.636 85.984 225.792 85.5617 225.861 85.1213C225.931 84.681 225.913 84.2312 225.809 83.7977C225.705 83.3642 225.517 82.9554 225.255 82.5948C225.008 82.255 224.7 81.964 224.347 81.7365C224.766 81.7605 225.186 81.7064 225.585 81.5772C226.009 81.4395 226.402 81.2197 226.741 80.9303C227.08 80.6409 227.359 80.2875 227.561 79.8903C227.764 79.4931 227.886 79.06 227.921 78.6156C227.956 78.1712 227.903 77.7242 227.765 77.3002C227.628 76.8762 227.408 76.4835 227.118 76.1445C226.829 75.8054 226.475 75.5268 226.078 75.3244C225.681 75.122 225.247 74.9999 224.803 74.965C224.358 74.9301 223.911 74.9831 223.487 75.121C223.088 75.2507 222.717 75.4533 222.392 75.7184C222.544 75.3273 222.622 74.9114 222.622 74.4918C222.622 74.046 222.534 73.6044 222.364 73.1925C222.193 72.7805 221.943 72.4062 221.628 72.0909C221.313 71.7756 220.938 71.5255 220.526 71.355C220.114 71.1844 219.673 71.0966 219.227 71.0967C219.216 71.0967 219.206 71.0967 219.195 71.0967ZM219.209 76.8481C219.215 76.8481 219.221 76.8481 219.227 76.8481C219.651 76.848 220.07 76.9314 220.462 77.0935C220.853 77.2556 221.209 77.4932 221.508 77.7929C221.808 78.0925 222.046 78.4482 222.208 78.8396C222.37 79.2311 222.453 79.6507 222.453 80.0744C222.453 80.498 222.37 80.9175 222.207 81.3088C222.045 81.7002 221.808 82.0557 221.508 82.3552C221.208 82.6547 220.853 82.8922 220.461 83.0543C220.07 83.2163 219.65 83.2996 219.227 83.2995C218.372 83.2994 217.551 82.9596 216.946 82.3548C216.342 81.75 216.002 80.9297 216.002 80.0744C216.002 79.2219 216.339 78.404 216.94 77.7995C217.541 77.1949 218.357 76.8529 219.209 76.8481Z" fill="white" stroke="black" stroke-width="0.591705"/>
<path d="M51.0759 88.1372C53.7881 90.0003 57.7846 90.9585 57.7846 90.9585C57.7846 90.9585 61.7811 90.0003 64.4933 88.1372C63.5594 91.2924 63.8832 95.3894 63.8832 95.3894C63.8832 95.3894 66.0294 98.8942 68.6395 100.898C65.3501 100.985 61.5537 102.559 61.5537 102.559C61.5537 102.559 58.8837 105.683 57.7846 108.784C56.6855 105.683 54.0154 102.559 54.0154 102.559C54.0154 102.559 50.219 100.985 46.9297 100.898C49.5397 98.8942 51.686 95.3894 51.686 95.3894C51.686 95.3894 52.0097 91.2924 51.0759 88.1372Z" fill="white" stroke="black" stroke-width="0.591704"/>
<path d="M57.7516 88.3936C56.8569 88.4021 56.0017 88.7636 55.3721 89.3994C54.7424 90.0352 54.3894 90.8939 54.3896 91.7887C54.3897 92.2087 54.4678 92.6249 54.6198 93.0164C54.2944 92.7508 53.9225 92.5478 53.5231 92.4179C52.667 92.1398 51.7354 92.2131 50.9333 92.6218C50.1313 93.0305 49.5244 93.741 49.2462 94.5971C48.968 95.4533 49.0414 96.3848 49.45 97.1869C49.8587 97.9889 50.5692 98.5958 51.4254 98.8741C51.8247 99.0037 52.2445 99.0581 52.6637 99.0346C52.3107 99.2617 52.0029 99.5523 51.7559 99.8916C51.4938 100.252 51.3052 100.661 51.2011 101.095C51.0969 101.528 51.0792 101.978 51.1489 102.418C51.2187 102.859 51.3745 103.281 51.6074 103.661C51.8404 104.041 52.146 104.372 52.5067 104.634C52.8673 104.896 53.2761 105.084 53.7096 105.189C54.1431 105.293 54.5929 105.31 55.0333 105.241C55.4736 105.171 55.8959 105.015 56.2761 104.782C56.6562 104.549 56.9867 104.244 57.2488 103.883C57.4954 103.543 57.6767 103.16 57.7835 102.753C57.8907 103.16 58.0724 103.543 58.3195 103.883C58.8486 104.611 59.6454 105.099 60.5344 105.24C61.4235 105.381 62.3321 105.163 63.0603 104.634C63.4211 104.372 63.7266 104.041 63.9596 103.661C64.1926 103.281 64.3484 102.859 64.4181 102.418C64.4878 101.978 64.4701 101.528 64.3659 101.095C64.2618 100.661 64.0733 100.252 63.8111 99.8916C63.5642 99.5519 63.2564 99.2609 62.9033 99.0334C63.3224 99.0573 63.7423 99.0033 64.1417 98.8741C64.5657 98.7364 64.9584 98.5166 65.2975 98.2272C65.6365 97.9377 65.9152 97.5843 66.1177 97.1872C66.3202 96.79 66.4424 96.3569 66.4775 95.9125C66.5126 95.4681 66.4597 95.0211 66.3221 94.5971C66.1843 94.1731 65.9644 93.7803 65.6748 93.4413C65.3852 93.1023 65.0317 92.8237 64.6344 92.6213C64.2371 92.4189 63.8039 92.2968 63.3594 92.2619C62.9149 92.227 62.4679 92.28 62.0439 92.4179C61.645 92.5476 61.2736 92.7502 60.9484 93.0152C61.1003 92.6241 61.1784 92.2083 61.1786 91.7887C61.1787 91.3428 61.091 90.9013 60.9204 90.4893C60.7498 90.0774 60.4997 89.7031 60.1844 89.3878C59.8692 89.0725 59.4948 88.8224 59.0829 88.6518C58.6709 88.4812 58.2294 88.3935 57.7835 88.3936C57.7729 88.3935 57.7623 88.3935 57.7516 88.3936ZM57.7658 94.145C57.7717 94.145 57.7776 94.145 57.7835 94.145C58.2072 94.1449 58.6268 94.2283 59.0183 94.3904C59.4098 94.5525 59.7655 94.7901 60.0651 95.0897C60.3647 95.3893 60.6023 95.745 60.7644 96.1365C60.9265 96.528 61.0099 96.9476 61.0098 97.3713C61.0098 97.7949 60.9263 98.2144 60.7641 98.6057C60.6019 98.997 60.3643 99.3526 60.0647 99.6521C59.7651 99.9516 59.4094 100.189 59.018 100.351C58.6266 100.513 58.2071 100.597 57.7835 100.596C56.9282 100.596 56.1079 100.256 55.5031 99.6517C54.8983 99.0469 54.5585 98.2266 54.5584 97.3713C54.5582 96.5188 54.8954 95.7009 55.4965 95.0964C56.0975 94.4918 56.9134 94.1498 57.7658 94.145Z" fill="white" stroke="black" stroke-width="0.591705"/>
<path d="M51.0759 163.796C53.7881 165.659 57.7846 166.617 57.7846 166.617C57.7846 166.617 61.7811 165.659 64.4933 163.796C63.5594 166.951 63.8832 171.048 63.8832 171.048C63.8832 171.048 66.0294 174.553 68.6395 176.557C65.3501 176.643 61.5537 178.217 61.5537 178.217C61.5537 178.217 58.8837 181.342 57.7846 184.443C56.6855 181.342 54.0154 178.217 54.0154 178.217C54.0154 178.217 50.219 176.643 46.9297 176.557C49.5397 174.553 51.686 171.048 51.686 171.048C51.686 171.048 52.0097 166.951 51.0759 163.796Z" fill="white" stroke="black" stroke-width="0.591704"/>
<path d="M57.7516 164.052C56.8569 164.061 56.0017 164.422 55.3721 165.058C54.7424 165.694 54.3894 166.553 54.3896 167.447C54.3897 167.867 54.4678 168.284 54.6198 168.675C54.2944 168.409 53.9225 168.207 53.5231 168.077C52.667 167.798 51.7354 167.872 50.9333 168.28C50.1313 168.689 49.5244 169.4 49.2462 170.256C48.968 171.112 49.0414 172.043 49.45 172.846C49.8587 173.648 50.5692 174.255 51.4254 174.533C51.8247 174.662 52.2445 174.717 52.6637 174.693C52.3107 174.92 52.0029 175.211 51.7559 175.55C51.4938 175.911 51.3052 176.32 51.2011 176.753C51.0969 177.187 51.0792 177.637 51.1489 178.077C51.2187 178.517 51.3745 178.94 51.6074 179.32C51.8404 179.7 52.146 180.03 52.5067 180.292C52.8673 180.555 53.2761 180.743 53.7096 180.847C54.1431 180.951 54.5929 180.969 55.0333 180.899C55.4736 180.83 55.8959 180.674 56.2761 180.441C56.6562 180.208 56.9867 179.902 57.2488 179.542C57.4954 179.201 57.6767 178.818 57.7835 178.412C57.8907 178.818 58.0724 179.201 58.3195 179.542C58.8486 180.27 59.6454 180.758 60.5344 180.899C61.4235 181.04 62.3321 180.821 63.0603 180.292C63.4211 180.03 63.7266 179.7 63.9596 179.32C64.1926 178.94 64.3484 178.517 64.4181 178.077C64.4878 177.637 64.4701 177.187 64.3659 176.753C64.2618 176.32 64.0733 175.911 63.8111 175.55C63.5642 175.211 63.2564 174.92 62.9033 174.692C63.3224 174.716 63.7423 174.662 64.1417 174.533C64.5657 174.395 64.9584 174.175 65.2975 173.886C65.6365 173.596 65.9152 173.243 66.1177 172.846C66.3202 172.449 66.4424 172.016 66.4775 171.571C66.5126 171.127 66.4597 170.68 66.3221 170.256C66.1843 169.832 65.9644 169.439 65.6748 169.1C65.3852 168.761 65.0317 168.482 64.6344 168.28C64.2371 168.078 63.8039 167.955 63.3594 167.921C62.9149 167.886 62.4679 167.939 62.0439 168.077C61.645 168.206 61.2736 168.409 60.9484 168.674C61.1003 168.283 61.1784 167.867 61.1786 167.447C61.1787 167.002 61.091 166.56 60.9204 166.148C60.7498 165.736 60.4997 165.362 60.1844 165.046C59.8692 164.731 59.4948 164.481 59.0829 164.311C58.6709 164.14 58.2294 164.052 57.7835 164.052C57.7729 164.052 57.7623 164.052 57.7516 164.052ZM57.7658 169.804C57.7717 169.804 57.7776 169.804 57.7835 169.804C58.2072 169.804 58.6268 169.887 59.0183 170.049C59.4098 170.211 59.7655 170.449 60.0651 170.748C60.3647 171.048 60.6023 171.404 60.7644 171.795C60.9265 172.187 61.0099 172.606 61.0098 173.03C61.0098 173.454 60.9263 173.873 60.7641 174.264C60.6019 174.656 60.3643 175.011 60.0647 175.311C59.7651 175.61 59.4094 175.848 59.018 176.01C58.6266 176.172 58.2071 176.255 57.7835 176.255C56.9282 176.255 56.1079 175.915 55.5031 175.31C54.8983 174.706 54.5585 173.885 54.5584 173.03C54.5582 172.178 54.8954 171.36 55.4965 170.755C56.0975 170.151 56.9134 169.808 57.7658 169.804Z" fill="white" stroke="black" stroke-width="0.591705"/>
<path d="M109.576 163.796C112.288 165.659 116.285 166.617 116.285 166.617C116.285 166.617 120.281 165.659 122.993 163.796C122.059 166.951 122.383 171.048 122.383 171.048C122.383 171.048 124.529 174.553 127.139 176.557C123.85 176.643 120.054 178.217 120.054 178.217C120.054 178.217 117.384 181.342 116.285 184.443C115.185 181.342 112.515 178.217 112.515 178.217C112.515 178.217 108.719 176.643 105.43 176.557C108.04 174.553 110.186 171.048 110.186 171.048C110.186 171.048 110.51 166.951 109.576 163.796Z" fill="white" stroke="black" stroke-width="0.591704"/>
<path d="M116.252 164.052C115.357 164.061 114.502 164.422 113.872 165.058C113.242 165.694 112.889 166.553 112.89 167.447C112.89 167.867 112.968 168.284 113.12 168.675C112.794 168.409 112.423 168.207 112.023 168.077C111.167 167.798 110.235 167.872 109.433 168.28C108.631 168.689 108.024 169.4 107.746 170.256C107.468 171.112 107.541 172.043 107.95 172.846C108.359 173.648 109.069 174.255 109.925 174.533C110.325 174.662 110.745 174.717 111.164 174.693C110.811 174.92 110.503 175.211 110.256 175.55C109.994 175.911 109.805 176.32 109.701 176.753C109.597 177.187 109.579 177.637 109.649 178.077C109.719 178.517 109.874 178.94 110.107 179.32C110.34 179.7 110.646 180.03 111.007 180.292C111.367 180.555 111.776 180.743 112.21 180.847C112.643 180.951 113.093 180.969 113.533 180.899C113.974 180.83 114.396 180.674 114.776 180.441C115.156 180.208 115.487 179.902 115.749 179.542C115.995 179.201 116.177 178.818 116.284 178.412C116.391 178.818 116.572 179.201 116.819 179.542C117.349 180.27 118.145 180.758 119.034 180.899C119.923 181.04 120.832 180.821 121.56 180.292C121.921 180.03 122.227 179.7 122.46 179.32C122.693 178.94 122.848 178.517 122.918 178.077C122.988 177.637 122.97 177.187 122.866 176.753C122.762 176.32 122.573 175.911 122.311 175.55C122.064 175.211 121.756 174.92 121.403 174.692C121.822 174.716 122.242 174.662 122.642 174.533C123.066 174.395 123.458 174.175 123.797 173.886C124.137 173.596 124.415 173.243 124.618 172.846C124.82 172.449 124.942 172.016 124.978 171.571C125.013 171.127 124.96 170.68 124.822 170.256C124.684 169.832 124.464 169.439 124.175 169.1C123.885 168.761 123.532 168.482 123.134 168.28C122.737 168.078 122.304 167.955 121.859 167.921C121.415 167.886 120.968 167.939 120.544 168.077C120.145 168.206 119.774 168.409 119.448 168.674C119.6 168.283 119.678 167.867 119.679 167.447C119.679 167.002 119.591 166.56 119.42 166.148C119.25 165.736 119 165.362 118.684 165.046C118.369 164.731 117.995 164.481 117.583 164.311C117.171 164.14 116.729 164.052 116.284 164.052C116.273 164.052 116.262 164.052 116.252 164.052ZM116.266 169.804C116.272 169.804 116.278 169.804 116.284 169.804C116.707 169.804 117.127 169.887 117.518 170.049C117.91 170.211 118.265 170.449 118.565 170.748C118.865 171.048 119.102 171.404 119.264 171.795C119.427 172.187 119.51 172.606 119.51 173.03C119.51 173.454 119.426 173.873 119.264 174.264C119.102 174.656 118.864 175.011 118.565 175.311C118.265 175.61 117.909 175.848 117.518 176.01C117.127 176.172 116.707 176.255 116.284 176.255C115.428 176.255 114.608 175.915 114.003 175.31C113.398 174.706 113.059 173.885 113.058 173.03C113.058 172.178 113.395 171.36 113.996 170.755C114.597 170.151 115.413 169.808 116.266 169.804Z" fill="white" stroke="black" stroke-width="0.591705"/>
<path d="M236.179 163.796C238.892 165.659 242.888 166.617 242.888 166.617C242.888 166.617 246.885 165.659 249.597 163.796C248.663 166.951 248.987 171.048 248.987 171.048C248.987 171.048 251.133 174.553 253.743 176.557C250.454 176.643 246.657 178.217 246.657 178.217C246.657 178.217 243.987 181.342 242.888 184.443C241.789 181.342 239.119 178.217 239.119 178.217C239.119 178.217 235.323 176.643 232.033 176.557C234.643 174.553 236.79 171.048 236.79 171.048C236.79 171.048 237.113 166.951 236.179 163.796Z" fill="white" stroke="black" stroke-width="0.591704"/>
<path d="M242.855 164.052C241.96 164.061 241.105 164.422 240.476 165.058C239.846 165.694 239.493 166.553 239.493 167.447C239.493 167.867 239.571 168.284 239.723 168.675C239.398 168.409 239.026 168.207 238.627 168.077C237.77 167.798 236.839 167.872 236.037 168.28C235.235 168.689 234.628 169.4 234.35 170.256C234.072 171.112 234.145 172.043 234.554 172.846C234.962 173.648 235.673 174.255 236.529 174.533C236.928 174.662 237.348 174.717 237.767 174.693C237.414 174.92 237.106 175.211 236.859 175.55C236.597 175.911 236.409 176.32 236.305 176.753C236.2 177.187 236.183 177.637 236.252 178.077C236.322 178.517 236.478 178.94 236.711 179.32C236.944 179.7 237.249 180.03 237.61 180.292C237.971 180.555 238.38 180.743 238.813 180.847C239.247 180.951 239.696 180.969 240.137 180.899C240.577 180.83 240.999 180.674 241.38 180.441C241.76 180.208 242.09 179.902 242.352 179.542C242.599 179.201 242.78 178.818 242.887 178.412C242.994 178.818 243.176 179.201 243.423 179.542C243.952 180.27 244.749 180.758 245.638 180.899C246.527 181.04 247.436 180.821 248.164 180.292C248.525 180.03 248.83 179.7 249.063 179.32C249.296 178.94 249.452 178.517 249.522 178.077C249.591 177.637 249.574 177.187 249.469 176.753C249.365 176.32 249.177 175.911 248.915 175.55C248.668 175.211 248.36 174.92 248.007 174.692C248.426 174.716 248.846 174.662 249.245 174.533C249.669 174.395 250.062 174.175 250.401 173.886C250.74 173.596 251.019 173.243 251.221 172.846C251.424 172.449 251.546 172.016 251.581 171.571C251.616 171.127 251.563 170.68 251.426 170.256C251.288 169.832 251.068 169.439 250.778 169.1C250.489 168.761 250.135 168.482 249.738 168.28C249.341 168.078 248.907 167.955 248.463 167.921C248.018 167.886 247.571 167.939 247.147 168.077C246.749 168.206 246.377 168.409 246.052 168.674C246.204 168.283 246.282 167.867 246.282 167.447C246.282 167.002 246.194 166.56 246.024 166.148C245.853 165.736 245.603 165.362 245.288 165.046C244.973 164.731 244.598 164.481 244.186 164.311C243.774 164.14 243.333 164.052 242.887 164.052C242.876 164.052 242.866 164.052 242.855 164.052ZM242.869 169.804C242.875 169.804 242.881 169.804 242.887 169.804C243.311 169.804 243.73 169.887 244.122 170.049C244.513 170.211 244.869 170.449 245.169 170.748C245.468 171.048 245.706 171.404 245.868 171.795C246.03 172.187 246.113 172.606 246.113 173.03C246.113 173.454 246.03 173.873 245.868 174.264C245.705 174.656 245.468 175.011 245.168 175.311C244.869 175.61 244.513 175.848 244.122 176.01C243.73 176.172 243.311 176.255 242.887 176.255C242.032 176.255 241.211 175.915 240.607 175.31C240.002 174.706 239.662 173.885 239.662 173.03C239.662 172.178 239.999 171.36 240.6 170.755C241.201 170.151 242.017 169.808 242.869 169.804Z" fill="white" stroke="black" stroke-width="0.591705"/>
<path d="M143.629 222.473C146.341 224.336 150.337 225.294 150.337 225.294C150.337 225.294 154.334 224.336 157.046 222.473C156.112 225.628 156.436 229.725 156.436 229.725C156.436 229.725 158.582 233.23 161.192 235.233C157.903 235.32 154.106 236.894 154.106 236.894C154.106 236.894 151.436 240.018 150.337 243.12C149.238 240.018 146.568 236.894 146.568 236.894C146.568 236.894 142.772 235.32 139.482 235.233C142.092 233.23 144.239 229.725 144.239 229.725C144.239 229.725 144.562 225.628 143.629 222.473Z" fill="white" stroke="black" stroke-width="0.591704"/>
<path d="M150.304 222.729C149.41 222.738 148.554 223.099 147.925 223.735C147.295 224.371 146.942 225.229 146.942 226.124C146.942 226.544 147.02 226.96 147.173 227.352C146.847 227.086 146.475 226.883 146.076 226.753C145.22 226.475 144.288 226.549 143.486 226.957C142.684 227.366 142.077 228.076 141.799 228.933C141.521 229.789 141.594 230.72 142.003 231.522C142.411 232.324 143.122 232.931 143.978 233.21C144.377 233.339 144.797 233.394 145.216 233.37C144.863 233.597 144.556 233.888 144.309 234.227C144.046 234.588 143.858 234.996 143.754 235.43C143.65 235.864 143.632 236.313 143.702 236.754C143.771 237.194 143.927 237.616 144.16 237.996C144.393 238.377 144.699 238.707 145.059 238.969C145.42 239.231 145.829 239.42 146.262 239.524C146.696 239.628 147.146 239.646 147.586 239.576C148.026 239.506 148.449 239.351 148.829 239.118C149.209 238.885 149.539 238.579 149.801 238.218C150.048 237.878 150.229 237.495 150.336 237.089C150.443 237.495 150.625 237.878 150.872 238.218C151.401 238.947 152.198 239.435 153.087 239.576C153.976 239.716 154.885 239.498 155.613 238.969C155.974 238.707 156.279 238.377 156.512 237.996C156.745 237.616 156.901 237.194 156.971 236.754C157.041 236.313 157.023 235.864 156.919 235.43C156.815 234.996 156.626 234.588 156.364 234.227C156.117 233.887 155.809 233.596 155.456 233.369C155.875 233.393 156.295 233.339 156.694 233.21C157.118 233.072 157.511 232.852 157.85 232.563C158.189 232.273 158.468 231.92 158.67 231.523C158.873 231.125 158.995 230.692 159.03 230.248C159.065 229.804 159.012 229.357 158.875 228.933C158.737 228.509 158.517 228.116 158.228 227.777C157.938 227.438 157.584 227.159 157.187 226.957C156.79 226.754 156.357 226.632 155.912 226.597C155.468 226.562 155.021 226.615 154.597 226.753C154.198 226.883 153.826 227.086 153.501 227.351C153.653 226.96 153.731 226.544 153.731 226.124C153.731 225.678 153.644 225.237 153.473 224.825C153.303 224.413 153.052 224.039 152.737 223.723C152.422 223.408 152.048 223.158 151.636 222.987C151.224 222.817 150.782 222.729 150.336 222.729C150.326 222.729 150.315 222.729 150.304 222.729ZM150.319 228.48C150.324 228.48 150.33 228.48 150.336 228.48C150.76 228.48 151.18 228.564 151.571 228.726C151.962 228.888 152.318 229.126 152.618 229.425C152.917 229.725 153.155 230.08 153.317 230.472C153.479 230.863 153.563 231.283 153.563 231.707C153.563 232.13 153.479 232.55 153.317 232.941C153.155 233.332 152.917 233.688 152.617 233.988C152.318 234.287 151.962 234.525 151.571 234.687C151.179 234.849 150.76 234.932 150.336 234.932C149.481 234.932 148.661 234.592 148.056 233.987C147.451 233.382 147.111 232.562 147.111 231.707C147.111 230.854 147.448 230.036 148.049 229.432C148.65 228.827 149.466 228.485 150.319 228.48Z" fill="white" stroke="black" stroke-width="0.591705"/>
<path d="M61.9347 42.6855L64.3207 40.2995C65.752 38.8683 68.0564 38.8683 69.4876 40.2995L71.8736 42.6855C73.3048 44.1167 73.3048 46.4211 71.8736 47.8524L69.4876 50.2384C68.0564 51.6696 65.752 51.6696 64.3207 50.2384L61.9347 47.8524C60.5035 46.4211 60.5035 44.1167 61.9347 42.6855Z" fill="#FFC72C" stroke="black" stroke-width="0.591704" stroke-linecap="round"/>
<path d="M121.013 104.819L93.2247 91.1229L87.7503 63.0558L86.5769 61.3825C93.2486 57.8574 95.1677 51.3911 95.1677 51.3911L94.993 38.3509C91.1358 35.7794 87.5453 32.5547 87.5453 32.5547C87.2543 33.1481 87.0741 33.7194 86.9704 34.2676L86.9432 34.3727C86.9496 34.3343 86.9514 34.2979 86.9586 34.2593C86.9586 34.2593 84.5976 35.712 84.5976 36.8033V37.6969C84.5976 36.6056 82.2378 35.153 82.2378 35.153C82.2378 35.153 79.8779 36.6056 79.8779 37.6969V38.5906C79.8779 37.4993 77.5181 36.0466 77.5181 36.0466C77.5181 36.0466 75.1583 37.4993 75.1583 38.5906V39.4842C75.1583 38.3929 72.7985 36.9402 72.7985 36.9402C72.7985 36.9402 70.4375 38.3929 70.4375 39.4842V54.6158C70.4375 54.6158 71.1005 54.2906 71.9296 53.6821C72.0778 55.1937 72.8356 59.0092 76.7839 61.5029L75.2706 63.1771L76.061 97.4426L107.573 121.857L124.689 114.182L121.013 104.819Z" fill="white" stroke="black" stroke-width="0.591705"/>
<path d="M84.5937 37.6969L84.5937 52.1981C87.0433 49.9969 88.7376 49.4696 88.7376 49.4696C88.7376 49.4696 88.067 45.3627 89.1197 40.3625C89.1197 40.3625 86.2824 37.848 86.9547 34.2593M79.8741 38.5905L79.8741 54.6154C79.8741 54.6154 84.5942 52.2961 84.5942 48.4747M75.1544 39.4842L75.1541 54.6154C75.1541 54.6154 79.8741 52.2961 79.8741 48.4747M71.9258 53.682C73.2955 52.6541 75.1541 50.8048 75.1541 48.4747" stroke="black" stroke-width="0.591705" stroke-linecap="square"/>
<path d="M98.3555 53.4356C98.3555 53.4356 107.21 51.3881 111.917 51.3257L222.059 49.8646C223.959 49.8394 229.223 47.3097 233.403 44.9732C229.223 42.6368 223.959 40.6988 222.059 40.6736L111.917 39.2125C107.21 39.1501 98.3555 37.1025 98.3555 37.1025V53.4356Z" fill="white" stroke="black" stroke-width="0.591704"/>
<path d="M93.6211 25.5459C93.6211 25.5459 94.8491 25.0293 97.9407 25.0293C101.032 25.0293 102.26 25.5459 102.26 25.5459C99.6288 37.9432 102.25 44.9733 102.25 44.9733C102.25 44.9733 99.6288 51.4116 102.26 63.809C102.26 63.809 101.032 64.3256 97.9407 64.3256C94.8491 64.3256 93.6211 63.809 93.6211 63.809C96.2527 51.4116 93.6311 44.9733 93.6311 44.9733C93.6311 44.9733 96.2527 37.9432 93.6211 25.5459Z" fill="#FFC72C" stroke="black" stroke-width="0.591704"/>
<path d="M75.383 60.8652H88.7014C89.7749 60.8652 90.6391 61.7295 90.6391 62.803V64.3849C90.6391 65.4584 89.7749 66.3226 88.7014 66.3226H75.383C74.3095 66.3226 73.4453 65.4584 73.4453 64.3849V62.803C73.4453 61.7295 74.3095 60.8652 75.383 60.8652Z" fill="#FFC72C" stroke="black" stroke-width="0.591704" stroke-linecap="round"/>
<path d="M92.3417 96.622C101.026 97.587 102.342 91.885 102.342 91.885C97.8311 91.1417 94.9672 87.2875 94.5348 82.7617C89.5345 84.253 88.3064 90.92 88.3064 90.92H73.832L75.3233 102.587L86.1133 107.675C87.9115 103.932 89.932 99.9263 92.3417 96.622Z" fill="#FFC72C" stroke="black" stroke-width="0.591704"/>
<path d="M84.7844 52.4319L84.4051 51.9634C81.3435 54.8212 80.9629 57.2929 80.9629 57.2929C80.9629 57.2929 82.5665 54.4728 84.7844 52.4319Z" fill="black"/>
<path d="M94.2463 249.887C94.2463 249.887 77.126 239.093 72.7839 236.984C68.4418 234.875 66.5809 234.627 63.7275 236.364C60.8742 238.101 62.9832 240.458 62.9832 240.458C60.8742 240.706 58.6411 239.59 57.7727 237.109C56.9043 234.627 60.2539 232.27 60.2539 232.27C58.393 230.037 59.3854 226.563 64.596 225.323C69.8065 224.082 72.6598 221.849 72.6598 221.849C72.6598 221.849 73.5283 225.323 70.923 227.184C70.923 227.184 76.2576 228.3 82.8328 232.022C89.4079 235.744 100.449 240.458 100.449 240.458L94.2463 249.887Z" fill="#FFC72C" stroke="black" stroke-width="0.591704"/>
<path d="M101.611 240.417C101.611 240.417 127.216 254.807 152.493 254.807C177.771 254.807 192.423 249.101 198.626 246.371C198.626 246.371 206.07 253.815 216.243 254.311C214.555 256.35 193.976 271.561 159.972 271.534C122.316 271.505 95.1602 250.838 95.1602 250.838L101.611 240.417Z" fill="white" stroke="black" stroke-width="0.591704"/>
<path d="M98.0828 250.358C96.6768 252.959 93.6487 258.984 93.6487 258.984C93.6487 258.984 96.6843 260.006 96.3028 262.781C95.9213 265.556 93.3409 266.524 90.9651 265.44C88.5893 264.357 87.5929 262.059 89.0054 259.065C90.4179 256.072 92.996 251.368 94.255 248.508C95.514 245.647 94.0952 243.437 94.0952 243.437C94.0952 243.437 97.3925 241.369 98.5477 239.512C99.6949 237.668 103.157 230.272 103.157 230.272C101.98 230.229 99.946 229.162 100.328 226.387C100.709 223.612 103.465 222.995 105.841 224.079C108.217 225.162 108.774 227.723 107.625 230.366C106.476 233.009 103.634 238.765 102.375 241.625C101.116 244.486 102.272 247.574 102.272 247.574C102.272 247.574 99.4887 247.756 98.0828 250.358Z" fill="#FFC72C" stroke="black" stroke-width="0.591704"/>
<path d="M104.62 229.358C104.62 229.358 103.573 230.2 102.315 229.792L103.117 230.444C104.1 230.27 104.62 229.358 104.62 229.358ZM93.708 258.993C92.7155 259.102 92.1367 259.978 92.1367 259.978C92.1367 259.978 93.2361 259.208 94.4647 259.697L93.708 258.993Z" fill="black"/>
<path d="M133.269 192.63C125.338 199.483 111.888 204.918 106.612 202.963C101.337 201.008 100.19 197.066 99.2804 194.861C98.3711 192.657 96.945 192.674 95.113 193.897C92.3348 191.003 83.484 190.902 81.6561 196.613C83.5674 196.23 86.8114 195.438 89.5901 198.167C89.5901 198.167 88.3363 199.747 88.3219 200.953C88.3069 202.16 91.4259 203.485 95.4709 206.916C95.4709 206.916 88.6478 205.273 86.9724 203.68C85.3201 202.108 83.6839 202.192 82.4847 204.077C77.7258 202.594 70.2737 207.278 71.741 214.341C74.3366 211.391 76.8767 209.799 80.6273 210.847C80.6273 210.847 79.6678 212.584 81.4796 214.611C83.2913 216.638 86.8785 214.779 92.1771 217.001C89.8336 218.031 86.7888 218.093 86.0079 219.167C85.5131 219.847 86.0357 220.751 86.3206 221.662C82.7828 224.524 79.4273 233.062 86.0518 238.151C85.9081 235.336 86.0543 230.994 89.3882 228.981C90.6487 229.432 91.0423 229.887 92.1366 230.238C93.3991 230.643 95.22 227.838 100.11 224.175C105 220.512 108.185 220.264 109.492 220.51C110.8 220.755 109.793 221.964 109.91 223.194C110.026 224.425 112.178 225.487 112.178 225.487C112.17 227.799 111.085 229.445 108.898 230.853C110.949 232.516 115.985 230.509 117.516 226.728C117.516 226.728 119.882 226.159 120.402 224.17C120.922 222.181 119.497 218.112 128.192 215.302C128.9 217.013 130.368 217.579 130.368 217.579L133.614 215.763C133.614 215.763 132.273 212.699 134.857 210.187C134.754 211.189 134.237 213.413 136.966 215.026L140.44 213.537C140.44 213.537 138.331 210.311 141.68 207.21C141.68 207.21 140.192 210.808 143.045 212.917L146.891 211.552C146.891 211.552 144.534 208.574 148.38 204.356C148.38 204.356 147.759 208.574 150.613 210.187L153.962 208.823C153.962 208.823 152.226 201.007 160.91 198.277L162.274 190.834C162.274 190.834 158.056 187.484 161.034 183.638C164.011 179.793 168.725 176.939 175.549 175.078C182.372 173.217 189.443 168.875 189.443 168.875L190.064 158.33L175.053 150.266C175.053 150.266 165.64 152.868 155.203 160.067C145.382 166.841 142.441 166.297 140.44 165.154C138.439 164.01 138.083 160.563 138.083 160.563L134.609 162.052C134.609 162.052 132.5 166.89 137.711 168.875C132.739 170.472 134.804 173.901 131.259 178.18C131.259 178.18 133.244 179.544 133.865 180.289C133.865 180.289 135.974 180.041 137.835 177.932C139.225 180.157 141.2 185.776 133.269 192.63Z" fill="#FFC72C" stroke="black" stroke-width="0.591704"/>
<path d="M137.595 177.748L138.073 178.118C140.256 175.278 140.593 172.756 143.251 171.894C139.624 172.419 139.753 175.284 137.595 177.748ZM148.116 204.206L148.643 204.505C148.643 204.505 150.695 200.952 148.649 198.381C149.937 200.898 148.116 204.206 148.116 204.206ZM141.423 207.048L141.937 207.369C141.937 207.369 144.097 203.98 142.508 201.1C143.375 203.835 141.423 207.048 141.423 207.048ZM134.593 210.037L135.119 210.336C136.016 208.48 136.765 205.869 135.579 204.259C136.038 206.453 135.526 208.183 134.593 210.037ZM95.5614 206.629L95.3784 207.204C95.3784 207.204 97.7276 207.949 100.166 207.827C97.8671 207.353 95.5614 206.629 95.5614 206.629ZM127.9 215.374L128.484 215.231C128.02 211.866 131.063 211.349 129.261 207.769C130.012 211.824 127.687 211.304 127.9 215.374ZM92.1035 216.708L92.2508 217.292C92.2508 217.292 96.5604 216.189 99.2044 214.843C96.4094 215.601 92.1035 216.708 92.1035 216.708Z" fill="black"/>
<path d="M179.6 153.492C179.6 153.492 177.367 154.361 176.002 156.47C176.002 156.47 183.848 158.367 187.27 165.571" stroke="black" stroke-width="0.591704"/>
<path d="M219.505 51.3457C217.198 51.3451 214.715 51.5811 212.06 52.1142C201.441 54.2467 194.457 64.1662 193.761 73.2404C193.041 82.6207 198.752 91.0558 204.489 94.5944C210.227 98.1331 210.862 98.9748 212.699 100.041C210.102 101.543 203.67 104.241 200.941 109.451C198.212 114.662 199.824 118.259 200.941 120.74C202.057 123.221 201.547 126.562 200.321 128.804H213.968C213.968 128.804 218.31 124.339 216.821 117.143C215.332 109.948 219.9 106.788 221.431 105.39C225.399 108.183 227.939 110.198 230.204 113.268C234.338 118.871 235.294 125.451 232.262 132.564C229.325 139.455 223.259 142.479 218.184 143.227C212.915 144.004 208.974 143.302 203.159 141.134C197.344 138.967 187.542 131.327 179.354 124.38C171.166 117.432 165.212 105.274 165.212 105.274L127.994 104.777L121.223 107.909C121.223 107.909 119.125 113.881 110.881 118.302C102.636 122.724 92.9642 128.315 84.6016 129.613C76.2389 130.91 71.5464 126.654 68.8171 121.568C66.1808 116.654 65.0034 117.036 62.9866 118.962C59.1094 115.829 51.6132 117.761 50.3329 123.18C52.1809 122.56 55.6687 121.319 58.7687 123.676C58.7687 123.676 57.3539 125.449 57.4914 126.647C57.6289 127.846 60.7531 130.251 66.2117 132.981C66.2117 132.981 61.3381 132.259 56.848 129.889C52.5109 127.6 51.526 128.634 50.8051 130.986C45.8391 130.553 41.0712 135.97 43.1602 142.048C44.3465 140.501 46.5476 137.772 50.4356 137.995C50.4356 137.995 49.8796 139.636 51.1592 140.802C52.4388 141.967 56.3958 140.553 61.4555 142.621C58.1651 143.671 56.0255 144.121 55.3311 145.253C54.8911 145.97 55.2898 146.675 55.6451 147.561C51.5087 150.343 51.2009 157.553 56.6438 160.972C56.5957 159.023 56.6816 155.516 59.8477 153.249C61.1396 153.6 61.5573 154.26 63.3136 154.363C65.07 154.466 67.0757 150.628 69.7816 149.142C72.4875 147.656 74.6421 147.355 75.9579 147.53C77.2738 147.706 76.6592 149.022 76.6592 149.987C76.6592 150.952 78.326 151.478 78.326 151.478C78.2383 153.206 77.2739 154.498 75.0808 155.513C76.6599 156.53 81.2501 156.855 82.6242 153.232C82.6242 153.232 84.9055 153.759 85.3441 151.917C85.7827 150.075 86.3969 144.812 97.4501 144.812C97.4501 144.812 97.5957 146.478 98.9116 147.53C98.9116 147.53 101.895 147.443 103.912 146.39C103.649 141.822 105.014 142.173 106.894 139.285C106.894 139.285 104.614 143.32 107.596 146.039L112.509 144.723C111.705 140.674 113.161 140.55 115.053 137.004C115.053 137.004 112.947 141.741 117.246 144.109L121.633 142.882C120.03 138.505 120.587 138.257 123.825 134.373C123.123 136.039 121.984 139.986 125.58 142.179L129.791 141.215C128.754 136.441 130.125 136.149 131.545 133.757C131.545 133.757 129.79 137.881 132.773 140.425C132.773 140.425 136.107 140.25 137.423 138.934C137.423 138.934 136.845 136.781 137.51 135.424C137.51 135.424 142.027 140.033 154.14 143.361C166.253 146.689 174.83 149.84 181.446 156.369C188.062 162.898 187.434 168.107 190.233 175.456C193.078 182.929 195.129 187.569 192.25 190.194C189.371 192.818 186.899 191.773 186.899 191.773C186.899 191.773 187.026 194.164 188.081 195.528C188.205 195.59 190.562 197.203 193.539 195.466C193.539 195.466 193.043 198.319 194.345 199.87C195.808 201.053 197.522 200.981 199.307 200.552C196.645 196.299 201.031 192.553 198.75 189.077C198.75 189.077 203.157 190.076 207.28 190.515C211.403 190.953 217.813 193.811 219.922 203.984C222.031 214.157 221.659 221.352 215.952 221.973C212.36 222.363 208.828 221.583 206.658 220.595C204.488 219.607 202.795 218.559 201.94 221.653C196.962 221.387 192.02 227.346 194.159 232.487C195.293 230.902 197.391 227.852 201.284 227.945C201.284 227.945 201.178 230.21 201.992 231.1C202.805 231.991 205.149 232.291 210.198 231.584C210.198 231.584 206.187 233.222 203.036 233.198C199.928 233.174 199.39 234.382 198.982 237.516C194.495 239.686 191.435 249.137 197.333 253.29C196.941 249.617 198.799 245.526 202.254 243.728C202.254 243.728 202.616 245.422 204.311 245.768C206.007 246.114 209.34 241.969 214.528 240.666C213.522 243.02 211.341 245.146 211.505 246.463C211.609 247.298 212.608 247.601 213.439 248.071C212.812 252.578 215.832 258.898 222.714 258.916C221.46 257.424 218.967 253.639 220.025 249.891C221.253 249.359 221.992 249.613 223.428 248.598C224.865 247.582 224.036 243.332 225.223 240.482C226.409 237.632 227.192 235.49 228.314 234.775C229.437 234.06 229.268 235.535 230.194 236.353C231.12 237.172 233.416 236.476 233.416 236.476C234.561 237.893 234.961 240.453 234.327 242.975C236.961 242.787 239.86 238.514 238.392 234.708C238.392 234.708 241.251 233.441 239.973 231.084C238.695 228.727 235.807 223.966 238.236 218.012C241.054 219.078 242.667 217.713 242.667 217.713L242.915 213.124C239.176 213.456 239.014 211.306 236.215 209.525C240.061 212.007 242.543 210.89 242.543 210.89L243.163 205.928C238.677 205.792 238.216 202.727 236.091 200.594C240.061 203.695 242.915 202.826 242.915 202.826L243.163 197.864C239.303 197.672 238.686 195.13 236.463 193.647C240.061 195.756 243.039 194.39 243.039 194.39V189.303C240.806 189.676 238.325 188.931 235.844 186.574C233.362 184.217 233.61 179.255 233.61 179.255L226.539 175.161C218.227 178.759 214.298 170.778 214.298 170.778C216.655 171.15 217.772 169.413 217.772 169.413C218.427 167.966 218.485 166.343 218.144 165.071C213.902 167.071 212.967 164.572 210.7 163.21C214.174 165.443 216.954 163.458 216.954 163.458C217.632 161.34 216.904 158.868 216.904 158.868C213.52 160.65 212.632 158.159 210.576 157.131C213.802 158.248 215.911 156.015 215.911 156.015C216.655 154.526 216.283 152.045 216.283 152.045C211.816 154.65 208.226 149.165 208.226 149.165C208.226 149.165 212.453 150.487 219.112 149.505C224.405 148.725 230.511 146.005 234.821 140.581C240.343 138.033 241.968 142.553 241.968 142.553C243.861 140.614 244.72 138.371 244.72 138.371C244.72 138.371 244.332 133.148 238.555 134.04C242.687 127.781 246.619 131.587 246.619 131.587C247.462 129.011 247.245 126.62 247.245 126.62C247.245 126.62 244.775 122.413 240.296 125.128C240.317 124.267 240.286 123.411 240.22 122.562C243.693 118.224 247.339 120.823 247.339 120.823C247.587 118.093 247.091 116.233 247.091 116.233C247.091 116.233 243.513 111.789 238.789 115.976C237.956 113.69 236.798 111.51 235.313 109.497C232.886 106.207 230.235 103.548 226.636 100.835C227.719 99.952 230.133 98.4598 233.82 95.2296C237.806 91.7378 241.923 86.4886 243.51 78.0734C245.149 69.3794 241.922 60.8466 235.371 56.0948C231.765 53.4793 226.428 51.348 219.505 51.3457ZM220.584 59.281C220.584 59.281 225.673 60.0702 223.918 65.8599C223.918 65.8599 226.637 66.3866 228.48 65.5093C228.48 65.5093 230.104 62.5933 228.351 59.3849C229.552 59.8946 230.657 60.513 231.646 61.23C236.066 64.4364 238.492 70.4236 237.272 76.8952C235.999 83.6455 232.434 88.0078 227.702 91.6101C225.381 93.3767 222.571 94.7932 219.972 96.109C217.158 94.0699 215.165 93.7563 209.426 90.0271C203.687 86.2979 199.855 79.8793 200.336 73.6028C200.585 70.3683 201.257 67.8121 203.791 64.7514C206.324 61.6908 209.06 64.0501 208.536 66.5623C210.983 66.6393 213.177 66.194 213.177 66.194C213.177 66.194 214.952 62.9538 212.529 60.1062C212.529 60.1062 217.689 60.5092 215.847 66.0358C215.847 66.0358 218.392 66.7368 220.497 65.9473C220.497 65.9473 223.128 62.1759 220.584 59.281Z" fill="#FFC72C" stroke="black" stroke-width="0.591701"/>
<path d="M205.232 120.323C207.75 124.856 204.559 128.76 204.559 128.76H205.822C205.822 128.76 208.726 124.871 206.186 120.3C203.646 115.728 204.907 112.644 206.375 110.747C204.334 112.36 202.714 115.791 205.232 120.323ZM212.605 110.747C210.19 112.734 209.01 115.024 210.835 120.191C212.66 125.359 209.758 128.76 209.758 128.76H210.785C210.785 128.76 213.694 125.147 211.614 119.942C209.533 114.737 211.138 112.641 212.605 110.747ZM140.408 122.324C139.39 124.419 139.733 126.448 140.784 127.74C138.452 132.426 137.232 135.309 137.232 135.309L137.791 135.54C137.791 135.54 139.107 132.758 141.477 127.79C140.47 126.558 139.985 124.549 140.408 122.324ZM132.862 127.06C133.02 129.946 131.277 133.626 131.277 133.626L131.821 133.89C131.821 133.89 133.663 130.162 132.862 127.06ZM125.495 128.905C125.469 130.757 124.445 132.698 123.567 134.219L124.089 134.522C124.974 132.989 126.109 130.945 125.495 128.905ZM116.81 131.624C116.446 134.035 114.777 136.883 114.777 136.883L115.33 137.124C115.33 137.124 117.399 133.454 116.81 131.624ZM66.2866 132.689L66.139 133.273C66.139 133.273 67.8364 133.704 70.4313 133.67C67.9383 133.11 66.2866 132.689 66.2866 132.689ZM108.561 134.256C108.553 136.233 107.379 137.717 106.63 139.145L107.165 139.426C108.164 137.756 109.12 135.951 108.561 134.256ZM99.3524 137.675C99.3175 141.279 97.2552 141.438 97.1484 144.829L97.7552 144.794C97.901 142.189 100.289 140.196 99.3524 137.675ZM68.0621 140.95C65.9735 141.183 61.3828 142.327 61.3828 142.327L61.5304 142.916C61.5304 142.916 66.1154 141.77 68.0621 140.95ZM207.076 155.689C207.076 155.689 208.797 156.489 210.431 157.393L210.727 156.867C209.012 155.918 207.076 155.689 207.076 155.689ZM207.838 161.647C207.495 161.624 207.152 161.651 206.813 161.741C208.392 161.875 209.447 162.831 210.552 163.47L210.852 162.949C209.899 162.243 208.867 161.715 207.838 161.647ZM209.488 169.012C209.386 169.01 209.283 169.013 209.18 169.022C211.046 169.595 212.652 170.913 214.274 171.078L214.327 170.476C212.545 170.27 211.028 169.039 209.488 169.012ZM230.64 190.548C230.426 190.556 230.203 190.574 229.972 190.604C233.877 191.153 234.696 192.984 236.314 193.908L236.614 193.382C235.324 192.645 233.861 190.426 230.64 190.548ZM230.2 197.497C230.011 197.501 229.818 197.513 229.622 197.534C232.506 197.8 234.571 199.689 235.895 200.824L236.288 200.365C235.064 199.315 233.037 197.447 230.2 197.497ZM231.201 205.692C233.479 206.656 234.389 208.76 236.06 209.783L236.373 209.266C234.516 208.124 233.534 205.809 231.201 205.692ZM231.288 213.849C234.216 214.482 236.058 217.312 238.113 218.287L238.362 217.738C235.94 216.039 234.155 213.712 231.288 213.849ZM214.621 230.079C212.51 230.58 210.115 231.292 210.115 231.292L210.285 231.873C210.285 231.873 212.697 231.157 214.621 230.079ZM218.128 235.868C216.121 237.627 214.274 240.502 214.274 240.502L214.782 240.827C214.782 240.827 216.626 237.969 218.128 235.868Z" fill="black"/>
<path d="M221.432 105.39C223.252 103.614 224.655 102.407 226.636 100.835M212.699 100.041C215.75 98.4462 217.182 97.5344 219.973 96.1089" stroke="black" stroke-width="0.591704"/>
<path d="M109.405 68.0765C107.01 71.9623 107.61 80.7519 118.031 80.5038C128.452 80.2557 134.407 78.2707 141.603 80.7519C148.798 83.2331 150.039 86.0865 150.039 86.0865L150.111 82.7156C150.111 82.7156 143.004 74.1617 129.729 75.5263C116.455 76.891 116.04 73.4562 116.273 70.8572C116.506 68.2582 119.804 67.0114 119.804 67.0114C118.761 64.5337 111.799 64.1907 109.405 68.0765Z" fill="#FFC72C" stroke="black" stroke-width="0.591704"/>
<path d="M132.54 35.3174C128.066 40.4931 127.307 43.9585 127.307 43.9585C127.746 45.0112 128.009 45.4498 126.781 47.5551C125.552 49.6605 120.815 57.9942 120.815 57.9942C120.815 57.9942 121.868 60.6259 125.552 62.1172C125.552 62.1172 125.552 65.6262 126.868 68.2579C126.868 68.2579 128.886 68.872 130.991 69.2229C130.991 69.2229 130.904 72.4686 133.36 74.3985C133.36 74.3985 133.835 68.7028 137.658 66.8756C141.482 65.0485 144.973 65.6722 147.374 70.575C149.776 75.4779 150.283 80.9386 147.52 86.9669C144.757 92.9951 137.732 91.5573 135.713 88.3102C133.695 85.0632 133.711 81.9427 134.062 80.3637C134.062 80.3637 131.371 80.1883 130.406 85.0131C130.406 85.0131 128.564 85.7149 126.634 85.7149C126.634 85.7149 126.196 86.7676 126.547 88.9606C126.898 91.1537 123.476 97.0312 118.213 95.4522C118.213 95.4522 117.862 97.9962 118.827 99.9261C118.827 99.9261 121.897 102.031 125.143 100.803C120.082 103.443 115.079 102.546 112.072 106.505C112.072 106.505 113.388 109.137 113.3 110.979C118.294 108.099 122.781 110.164 128.944 107.119C128.944 107.119 126.313 111.155 127.892 115.19L132.102 116.506C132.102 116.506 131.927 112.12 136.401 110.19C136.401 110.19 135.524 114.313 137.103 117.208C138.508 117.849 140.231 118.261 142.103 118.436C142.103 118.436 140.524 113.523 145.436 109.576C145.436 109.576 144.822 115.629 147.893 118.26C149.306 118.758 151.777 118.888 152.981 118.523C150.358 114.261 153.187 113.533 153.946 107.733C155.436 111.291 155.623 114.952 158.858 117.559C160.726 117.454 161.954 117.337 164.034 116.681C160.458 112.087 162.727 109.495 161.051 105.189C163.835 108.71 166.449 111.203 171.754 110.979C172.961 109.238 173.715 106.977 173.947 105.277C166.358 104.357 167.422 100.762 163.332 95.8908C163.332 95.8908 168.42 100.979 172.806 97.9961L173.771 93.0837C166.977 92.9496 168.917 90.7472 163.727 86.3728C167.061 87.707 169.604 90.2996 173.245 88.6975C173.947 86.5921 174.122 83.2586 174.122 83.2586C169.493 83.4268 168.13 83.04 164.911 79.3111C164.911 79.3111 169.736 82.82 172.894 80.4515L174.21 75.7144C170.008 75.9473 168.814 75.7581 165.437 72.4686C165.437 72.4686 169.56 74.9249 172.631 72.2932L173.245 68.1409C173.245 68.1409 167.894 68.755 164.56 65.1583C164.56 65.1583 169.385 66.2987 171.841 63.3161L171.929 59.0177C171.929 59.0177 168.42 60.4213 165.701 59.4563C165.701 59.4563 165.815 56.5437 166.968 52.4272L162.778 41.8217L132.54 35.3174Z" fill="#FFC72C" stroke="black" stroke-width="0.591704"/>
<path d="M132.085 44.814C131.818 44.8403 131.55 44.9305 131.271 45.0811C131.808 45.0811 132.922 45.4224 133.66 46.6083C133.06 47.7214 132.039 49.6165 133.772 51.4172C133.259 51.7728 132.761 52.0045 132.116 52.2283C132.116 52.2283 134.689 52.5268 137.728 49.7708C137.728 49.7708 139.867 50.6113 141.406 49.8559C138.25 49.9764 135.72 47.8318 134.36 46.3172C133.341 45.1814 132.884 44.735 132.085 44.814ZM153.09 45.1762C151.411 46.17 149.039 46.5019 149.039 46.5019C149.039 46.5019 151.596 46.6423 153.416 45.6897L153.09 45.1762ZM134.23 47.2089C134.23 47.2089 135.913 48.8926 137.124 49.2653C137.124 49.2653 136.271 50.2801 134.34 51.1944C134.34 51.1944 133.619 50.4238 133.619 49.259C133.619 48.0943 134.23 47.2089 134.23 47.2089ZM156.141 47.4215C155.046 47.4592 153.995 48.3022 153.995 48.3022C153.995 48.3022 155.906 47.9198 156.562 48.7059C157.218 49.492 156.582 51.0633 156.582 51.0633C156.582 51.0633 158.913 49.529 157.567 48.0236C157.146 47.5531 156.638 47.4044 156.141 47.4215ZM161.259 49.5134C160.687 50.6587 159.896 52.0098 158.335 53.167C160.401 52.5117 161.229 50.9277 161.795 49.7943L161.259 49.5134ZM157.458 55.273C160.693 56.0172 162.955 58.8394 165.61 59.7435L165.797 59.1686C162.834 57.8852 160.511 55.4376 157.458 55.273ZM129.469 58.7932C129.458 59.2394 129.564 59.6665 128.914 60.3914C128.263 61.1163 126.429 61.8944 126.429 61.8944C126.429 61.8944 128.151 61.8781 129.283 60.9016C130.416 59.9251 129.903 58.9173 129.469 58.7932ZM158.328 62.2663C158.185 62.2675 158.042 62.2762 157.899 62.2923C160.549 62.5716 162.384 64.6408 164.459 65.4418L164.673 64.8752C162.528 63.8177 160.472 62.2469 158.328 62.2663ZM159.212 69.7495C163.024 70.3918 165.226 72.6783 165.226 72.6783L165.659 72.2592C165.659 72.2592 163.296 69.8089 159.212 69.7495ZM160.479 77.49C160.077 77.5021 159.655 77.5502 159.215 77.6446C162.536 77.5226 164.714 79.5322 164.714 79.5322L165.12 79.0896C165.12 79.0896 163.294 77.4053 160.479 77.49ZM160.901 85.24C160.642 85.2339 160.372 85.2448 160.091 85.2765C162.14 85.6196 163.558 86.6211 163.558 86.6211L163.906 86.1265C163.906 86.1265 162.707 85.2805 160.901 85.24ZM159.215 93.6982C161.866 94.3334 163.089 96.0675 163.089 96.0675L163.585 95.7145C163.585 95.7145 162.178 93.7649 159.215 93.6982ZM128.248 98.1711C126.996 99.8385 125.049 100.516 125.049 100.516L125.245 101.091C125.245 101.091 127.394 100.364 128.248 98.1711ZM131.23 101.416C130.929 104.885 128.743 106.895 128.743 106.895L129.153 107.341C129.153 107.341 131.531 105.141 131.23 101.416ZM157.458 102.033C159.873 103.324 160.783 105.317 160.783 105.317L161.331 105.062C161.331 105.062 160.307 102.846 157.458 102.033ZM137.986 103.259C138.625 107.579 136.194 109.974 136.194 109.974L136.618 110.402C136.618 110.402 139.277 107.711 137.986 103.259ZM145.18 103.522C146.685 106.786 145.18 109.425 145.18 109.425L145.706 109.725C145.706 109.725 147.359 106.75 145.18 103.522ZM152.283 105.189C153.492 106.33 153.649 107.765 153.649 107.765L154.251 107.699C154.251 107.699 154.056 105.978 152.283 105.189Z" fill="black"/>
<path d="M132.544 35.3174C136.761 25.6596 138.221 10.1496 138.221 10.1496C140.787 10.3411 144.154 12.8985 143.49 17.0782C146.406 18.3583 148.201 21.0058 146.689 25.2012C145.226 24.5857 143.778 23.9342 142.639 25.2948C141.5 26.6554 141.812 28.0276 143.25 28.4856C144.687 28.9437 146.315 26.7494 146.315 26.7494L149.299 27.9838C149.299 27.9838 148.17 30.6611 150.195 31.5144C152.22 32.3677 153.874 30.2785 152.906 27.9011C151.939 25.5237 149.002 26.0965 149.002 26.0965C149.79 21.2429 153.094 20.8709 155.095 21.9693C157.624 18.5757 160.661 18.7171 161.411 18.6795C161.909 19.2429 164.019 21.5821 163.356 25.7618C165.34 26.6539 166.696 29.923 164.467 32.718C164.467 32.718 163.053 30.4154 160.676 31.383C158.298 32.3506 158.032 34.8175 160.057 35.6708C162.082 36.5241 163.474 33.9581 163.474 33.9581L166.566 35.5199C166.566 35.5199 165.275 38.2369 166.615 39.1622C167.954 40.0874 169.221 39.5381 169.807 37.8629C170.392 36.1878 169.026 34.9393 166.983 34.091C169.659 30.2677 172.686 29.8648 175.774 32.7516C179.024 30.5372 183.436 31.9331 184.915 34.0391C184.915 34.0391 173.89 42.7377 166.972 52.4272L161.527 49.6538C162.215 47.3918 162.131 45.4919 161.466 44.3959C156.787 42.7429 155.274 44.7366 153.25 45.4338L132.544 35.3174Z" fill="#FFC72C" stroke="black" stroke-width="0.591705"/>
</svg>
