<svg width="300" height="300" viewBox="0 0 300 300" fill="none" xmlns="http://www.w3.org/2000/svg">
<path d="M37.4824 4.62781V208.366C37.5884 221.079 42.9917 244.812 77.0464 261.037C90.9558 267.666 102.777 271.692 113.205 275.234C128.991 280.622 140.403 284.512 148.168 294.002L150.105 296.378L152.042 294.002C159.807 284.512 171.204 280.622 187.005 275.234C197.433 271.692 209.254 267.666 223.164 261.037C257.218 244.812 262.622 221.079 262.728 208.366V4.62781H37.4824Z" fill="#FFCC00"/>
<path d="M243.871 33.1556C243.871 33.1556 251.441 38.3087 251.441 55.1059V229.659L239.219 219.459V84.7023L235.115 88.3049V216.009L223.714 206.508V96.2095L219.595 98.5352V203.073L207.86 193.268V103.977L203.755 105.497V189.833L191.534 179.633V109.07L187.414 109.906V176.182L175.056 165.876L175.101 111.122H174.053L165.631 161.832L198.769 196.4H189.664L203.117 217.316C206.051 215.857 216.57 210.628 221.784 207.587L227.743 213.47C228.32 216.13 228.229 222.287 228.229 222.287C228.229 222.454 228.123 222.5 228.001 222.393L222.696 217.894L222.62 219.019C218.394 220.007 212.572 221.588 209.547 222.424C211.28 223.594 214.214 225.494 217.801 227.546C221.465 229.629 225.797 231.894 230.22 233.672C230.19 233.824 230.053 234.478 229.658 235.527C228.959 237.412 227.53 240.559 224.642 244.48L221.997 247.961C221.905 248.083 221.845 248.068 221.845 247.901L222.057 238.157L218.728 240.635C213.91 235.132 207.784 230.039 204.865 227.714C205.199 232.183 205.99 242.55 206.659 249.01C206.659 249.01 203.619 251.64 195.653 254.467C195.653 254.467 195.44 254.543 195.516 254.315L197.067 251.275C197.067 251.275 198.207 248.965 198.891 246.441L193.419 246.897C194.422 243.021 196.869 233.232 197.614 226.802C197.417 226.878 197.219 226.954 196.991 227.06C194.392 228.154 189.77 230.131 185.256 232.274L185.241 232.259H185.225L183.933 231.24L183.188 230.632L183.508 238.506C183.508 238.658 183.416 238.719 183.31 238.613C183.31 238.613 178.385 234.25 177.093 233.125C177.108 231.301 176.637 223.077 176.637 223.077C182.93 222.241 191.108 220.706 194.726 220.007L179.434 205.748V205.9V215.766C179.434 215.766 165.57 194.636 163.822 192.098C163.625 194.226 162.637 207.557 164.81 222.241C167.242 238.734 172.563 253.084 192.522 250.698C184.906 268.057 165.935 261.232 162.591 257.112C156.632 267.692 150.172 271.69 150.096 271.736C150.035 271.69 143.59 267.692 137.631 257.112C134.287 261.232 115.331 268.057 107.7 250.698C127.644 253.084 132.964 238.734 135.396 222.241C137.57 207.557 136.582 194.226 136.384 192.098C134.651 194.636 120.788 215.766 120.788 215.766V205.748L105.481 220.007C109.099 220.706 117.277 222.241 123.585 223.077C123.585 223.077 123.099 231.301 123.114 233.125C121.822 234.25 116.897 238.613 116.897 238.613C116.805 238.719 116.699 238.658 116.699 238.506L117.033 230.632L116.273 231.24L114.981 232.259L114.951 232.274C110.451 230.131 105.815 228.154 103.216 227.06C103.003 226.954 102.79 226.878 102.608 226.802C103.337 233.232 105.785 243.021 106.788 246.897L101.331 246.441C102 248.965 103.155 251.275 103.155 251.275H103.17L104.69 254.315C104.766 254.543 104.569 254.467 104.569 254.467C96.5881 251.64 93.5479 249.01 93.5479 249.01C94.2167 242.55 95.0224 232.183 95.372 227.714C92.423 230.039 86.297 235.132 81.4782 240.635L78.1644 238.157L78.3772 247.901C78.3772 248.068 78.3012 248.083 78.21 247.961L75.565 244.48C72.6768 240.559 71.2479 237.412 70.5639 235.527C70.1687 234.478 70.0167 233.824 69.9862 233.672C74.4098 231.894 78.742 229.629 82.4055 227.546C85.9929 225.494 88.9419 223.594 90.6749 222.424C87.6499 221.588 81.8127 220.007 77.5868 219.019L77.5108 217.894L72.2056 222.393C72.084 222.5 71.9928 222.454 71.9776 222.287C71.9776 222.287 71.8864 216.13 72.464 213.47L78.4228 207.587C83.6368 210.628 94.1711 215.857 97.1049 217.316L110.573 196.4H101.452L134.591 161.832L126.154 111.122H125.105L125.166 165.876L112.792 176.182V109.906L108.688 109.07V179.633L96.4665 189.833V105.497L92.347 103.977V193.268L80.627 203.073V98.5352L76.4923 96.2095V206.508L65.0915 216.009V88.3049L60.9872 84.7023V219.459L48.7808 229.659V55.1059C48.7808 38.3087 56.3357 33.1556 56.3357 33.1556C56.3357 33.1556 47.2303 28.9297 47.1087 20.3107C51.8058 23.2597 57.3694 24.7494 61.4889 24.0045C72.8136 21.922 91.5261 12.1173 103.322 34.0068C97.5001 49.3143 82.1927 51.2904 72.8744 40.1632C66.8092 48.7518 68.8918 64.6065 86.0233 75.3536C102.167 85.4775 121.974 86.04 125.075 85.9792C125.364 82.8478 125.668 72.4503 134.91 63.5881C139.045 59.5902 142.495 51.3512 142.358 45.818C142.358 45.818 128.921 47.3837 123.235 39.8744C123.22 39.8288 123.22 39.8136 123.235 39.7832C123.251 39.768 123.281 39.7528 123.296 39.7528C124.604 40.0112 125.47 40.0872 126.565 40.1328C124.406 39.1904 116.699 36.4846 114.586 29.5225C114.571 29.4313 114.647 29.3857 114.692 29.4161C124.892 35.7853 135.594 37.1534 139.501 37.6095C140.063 37.6703 139.455 36.5758 139.394 36.4846C136.871 32.4867 134.028 31.1338 131.216 31.1338C127.841 31.149 126.686 33.8548 126.686 33.8548C125.075 32.6692 121.731 29.9785 121.533 23.1381C121.32 15.7352 126.504 12.239 132.265 12.3453C134.834 12.3757 137.479 12.9534 139.257 13.911C139.303 12.4973 139.911 11.4485 139.911 11.4485C139.911 11.4485 144.791 13.0294 150.187 15.2943C158.654 18.8514 167.121 22.226 173.977 22.226C174.296 22.226 174.493 22.4844 174.296 22.7277C170.967 26.7559 165.054 28.048 165.054 28.048C174.22 49.7095 174.797 74.472 175.177 85.964C175.193 85.964 175.193 85.964 175.193 85.9792C178.491 86.0248 198.146 85.4167 214.183 75.3536C231.315 64.6065 233.397 48.7518 227.332 40.1632C218.014 51.2904 202.737 49.3143 196.885 34.0068C208.681 12.1173 227.393 21.922 238.718 24.0045C242.852 24.7494 248.401 23.2597 253.098 20.3107C252.976 28.9297 243.871 33.1556 243.871 33.1556ZM260.698 208.591C260.622 218.547 257.111 242.717 222.392 259.256C186.837 276.19 163.625 276.509 150.096 293.033C136.612 276.509 113.37 276.19 77.8148 259.256C43.1108 242.717 39.5994 218.547 39.5082 208.591V6.50815H260.698V208.591ZM37 4V208.621C37.1064 221.375 42.518 245.225 76.7355 261.521C90.6901 268.148 102.562 272.207 113.051 275.779C128.905 281.191 140.367 285.082 148.165 294.629L150.096 297L152.072 294.629C159.84 285.082 171.301 281.191 187.156 275.779C197.645 272.207 209.532 268.148 223.471 261.521C257.689 245.225 263.1 221.375 263.222 208.621V4H37Z" fill="black"/>
<path d="M196.968 221.545C196.846 221.576 186.859 223.582 178.742 224.722L178.848 226.972L180.262 225.726L185.552 229.997C191.967 226.987 198.29 224.418 198.366 224.388L198.625 224.266C199.172 224.053 199.75 224.494 199.719 225.072L199.689 225.361C199.294 230.772 197.287 239.452 195.98 244.681L202.82 244.119L204.386 245.7C203.595 237.187 202.775 225.817 202.759 225.68L202.714 225.011C202.668 224.449 203.322 224.084 203.778 224.418L204.31 224.829C204.401 224.874 212.458 230.955 218.994 238.038C221.989 235.591 222.946 234.725 222.946 234.725C222.946 234.725 224.816 234.481 226.64 234.253C216.106 229.541 206.818 222.929 206.712 222.853L206.316 222.564C205.815 222.214 205.952 221.424 206.56 221.256L207.016 221.12C207.107 221.104 214.829 218.915 220.727 217.487L221.107 211.543L222.931 211.528C222.931 211.528 222.141 210.722 221.426 210.023C214.966 213.656 203.732 219.174 203.185 219.447C202.729 219.66 202.212 219.508 201.954 219.098L187.361 196.433H179.426V203.091L197.758 220.192C198.199 220.603 197.986 221.332 197.393 221.454L196.968 221.545ZM180.292 227.686L178.514 229.267L178.59 232.429L181.858 235.333L181.6 228.72L180.292 227.686ZM204.842 248.497C203.611 247.113 202.273 245.669 202.273 245.669L200.586 245.821C200.586 245.821 200.525 246.049 200.449 246.308C199.734 249.287 198.518 251.704 198.518 251.704C198.518 251.704 203.033 249.956 204.842 248.497ZM223.676 236.153L223.402 243.602C223.402 243.602 227.081 238.479 227.993 235.591C227.917 235.606 223.676 236.153 223.676 236.153ZM222.551 213.048L225.348 213.23C225.348 213.23 225.819 213.762 226.351 214.37C226.671 216.392 226.701 219.311 226.701 219.311L222.323 215.602L222.551 213.048ZM102.813 221.454C102.22 221.332 102.007 220.603 102.448 220.192L120.78 203.091V196.433H112.83L98.2523 219.098C97.9938 219.508 97.4618 219.66 97.021 219.447C96.4737 219.174 85.2554 213.656 78.7797 210.023C78.0653 210.722 77.2596 211.528 77.2596 211.528L79.0838 211.543L79.479 217.487C85.3618 218.915 93.0991 221.104 93.1903 221.12L93.6463 221.256C94.2544 221.424 94.3912 222.214 93.8744 222.564L93.4943 222.853C93.3879 222.929 84.0697 229.541 73.5658 234.253C75.3899 234.481 77.2444 234.725 77.2444 234.725C77.2444 234.725 78.2173 235.591 81.1967 238.038C87.7331 230.955 95.8049 224.874 95.8961 224.829L96.4281 224.418C96.8842 224.084 97.5226 224.449 97.4922 225.011L97.4466 225.68C97.4314 225.817 96.6106 237.187 95.8201 245.7L97.3858 244.119L104.226 244.681C102.904 239.452 100.912 230.772 100.517 225.361L100.487 225.072C100.456 224.494 101.034 224.053 101.581 224.266L101.84 224.388C101.916 224.418 108.239 226.987 114.654 229.997L119.944 225.726L121.358 226.972L121.464 224.722C113.347 223.582 103.345 221.576 103.238 221.545L102.813 221.454ZM118.606 228.72L118.333 235.333L121.616 232.429L121.692 229.267L119.914 227.686L118.606 228.72ZM101.688 251.704C101.688 251.704 100.456 249.287 99.742 246.308C99.6812 246.049 99.6204 245.821 99.6204 245.821L97.9178 245.669C97.9178 245.669 96.5954 247.113 95.3641 248.497C97.1578 249.956 101.688 251.704 101.688 251.704ZM72.2129 235.591C73.125 238.479 76.7884 243.602 76.7884 243.602L76.53 236.153C76.53 236.153 72.2889 235.606 72.2129 235.591ZM77.8829 215.602L73.505 219.311C73.505 219.311 73.5506 216.392 73.8546 214.37C74.3866 213.762 74.8427 213.215 74.8427 213.215L77.6549 213.048L77.8829 215.602ZM133.944 40.2729C136.65 40.2729 139.949 39.8624 140.648 39.5584C141.089 39.376 140.846 39.2696 140.602 39.2392C130.19 38.1599 123.349 35.7278 117.862 32.8092C120.157 35.4997 124.626 38.2359 131.087 40.0145C131.771 40.2121 132.804 40.2729 133.944 40.2729ZM147.899 42.7962C146.06 43.5259 141.15 44.1947 138.626 44.1947C132.683 44.1947 128.73 41.9906 128.122 41.7321C134.628 42.4922 141.058 41.6866 143.369 40.4249C140.344 32.3075 135.206 29.1305 131.208 29.1305C129.338 29.1305 127.697 29.8297 126.648 31.0458C124.489 29.2217 123.562 25.5127 123.516 23.2173C123.38 16.3312 127.97 14.3399 132.272 14.3399C135.312 14.3399 138.231 15.3432 139.204 16.2856C139.143 20.7547 140.298 24.5854 142.882 29.2369C145.011 33.0676 147.443 36.2598 147.899 42.7962Z" fill="#FF0000"/>
<path d="M141.466 17.9457C141.983 21.7763 143.214 24.8621 143.579 24.9685C144.126 25.1358 147.683 22.278 148.291 21.3355C148.504 21.0163 146.072 19.9066 145.844 20.3322C145.236 21.4267 144.461 23.0076 144.081 23.6461C143.974 23.8437 143.761 23.8133 143.731 23.5548C143.579 21.1987 143.488 19.8458 143.396 18.7817C143.366 18.5081 141.375 17.2616 141.466 17.9457Z" fill="white"/>
</svg>
