<svg width="300" height="300" viewBox="0 0 300 300" fill="none" xmlns="http://www.w3.org/2000/svg">
<path d="M149.901 5.00028C130.595 5.01962 111.201 6.04492 95.0724 8.03362C80.2078 9.86641 63.9983 13.214 56.5247 15.9944C54.1042 16.8948 53.9838 17.0295 53.8757 18.9534C53.8134 20.0621 52.5773 65.2486 51.1297 119.368C48.1146 232.08 47.9413 221.446 52.9623 231.453C54.5038 234.526 57.1326 238.866 58.8041 241.097C76.5831 264.834 113.579 289.207 140.861 295.156C147.027 296.501 156.103 296.215 162.785 294.465C186.073 288.366 216.136 269.677 234.472 249.901C240.736 243.145 244.535 237.868 247.754 231.453C252.773 221.45 252.599 232.045 249.584 119.621C248.137 65.6416 246.959 20.6128 246.967 19.5567C246.98 17.7696 246.829 17.5713 244.777 16.6918C236.038 12.9459 213.863 8.69154 193.217 6.80027C179.882 5.5787 164.918 4.98523 149.901 5.00028Z" fill="#005395"/>
<path d="M135.926 276.067C137.184 274.55 138.189 274.351 140.507 275.16C143.136 276.076 146.457 275.851 152.133 274.371C154.226 273.826 159.369 272.685 163.564 271.837C175.533 269.414 178.059 268.223 179.06 264.53C179.792 261.831 179.044 256.054 177.292 250.862C176.609 248.839 176.241 246.987 176.474 246.746C176.707 246.506 177.535 247.305 178.316 248.522C179.096 249.738 179.803 250.831 179.887 250.951C180.226 251.43 181.479 249.107 182.314 246.451C182.801 244.901 183.409 243.081 183.664 242.406L184.128 241.179L186.282 243.294C187.467 244.457 188.573 245.408 188.738 245.408C188.904 245.408 189.287 244.423 189.59 243.219C189.894 242.015 190.586 240.627 191.13 240.135C192.475 238.918 193.743 239.65 195.94 242.913L197.652 245.456L197.895 242.769C198.028 241.292 198.477 239.284 198.892 238.307L199.646 236.532L200.731 238.561C201.867 240.683 203.565 242.872 204.077 242.872C204.241 242.872 204.378 242.359 204.381 241.731C204.389 239.767 206.646 235.626 209.429 232.467C217.6 223.194 221.837 214.668 223.416 204.324C224.408 197.822 224.384 180.703 223.371 171.863C221.421 154.863 216.833 138.978 208.409 120.072C205.94 114.531 205.919 114.444 207.166 114.757C208.741 115.152 208.738 114.958 207.113 110.395C204.79 103.871 199.899 94.4822 194.997 87.1407C192.149 82.8739 190.476 79.9219 190.838 79.7996C191.17 79.6872 192.084 79.5282 192.868 79.4465L194.295 79.2979L191.897 76.5083C184.468 67.8644 178.382 55.575 173.94 40.2429C173.051 37.1743 171.735 33.4591 171.015 31.9869C167.489 24.7702 157.885 20.1593 144.715 19.3599C140.423 19.0994 139.384 19.1852 138.389 19.8818C137.492 20.5102 136.009 20.7194 132.366 20.7313C125.74 20.753 115.634 22.0006 114.725 22.909C114.097 23.5375 114.206 24.2318 115.549 28.1272C116.401 30.5984 117.401 32.8519 117.772 33.1348C118.143 33.4178 118.855 34.7334 119.355 36.0585C119.854 37.3836 120.416 38.4654 120.602 38.4626C120.788 38.4595 121.336 37.5149 121.82 36.363L122.7 34.2686L125.535 34.6018C135.226 35.7407 137.713 43.935 129.448 47.489C125.008 49.398 124.581 49.3909 122.814 47.3781C121.94 46.3829 121.13 45.5686 121.013 45.5686C120.897 45.5686 120.648 46.5957 120.46 47.8511C120.271 49.1064 119.903 50.1335 119.641 50.1335C118.818 50.1335 119.124 52.4766 120.053 53.284C120.595 53.7556 122.49 54.18 124.925 54.3752C130.466 54.8193 132.48 56.0232 134.344 60.005C135.133 61.6892 135.931 63.7206 136.118 64.519C136.452 65.9458 136.476 65.9546 137.494 65.033C138.503 64.1196 138.549 64.121 139.256 65.0872C140.61 66.9388 141.092 70.0969 140.866 75.6416L140.644 81.1151L142.143 80.7859L143.641 80.4566L143.282 83.4277C143.085 85.0618 142.39 87.9506 141.738 89.8472L140.552 93.2956L142.791 92.9598L145.03 92.6241L144.706 94.3299C144.379 96.0541 142.929 100.886 142.26 102.481C141.989 103.128 142.207 103.426 143.117 103.654C144.81 104.079 150.258 101.938 156.708 98.3129C161.351 95.7028 167.172 93.4773 167.815 94.0666C168.082 94.3116 168.881 93.7797 159.695 99.4714C151.08 104.81 145.933 107.447 144.128 107.447C140.759 107.449 134.836 102.773 126.448 93.4912C113.459 79.118 114.169 80.0815 112.357 74.3521C109.584 65.5851 105.994 59.5614 102.471 57.7639C101.372 57.2031 100.326 56.2826 100.147 55.7185C99.6774 54.2403 97.3887 51.6551 96.5492 51.6551C95.6565 51.6551 95.6576 51.6877 96.6507 54.7241C97.9083 58.5688 96.5019 60.3761 94.6682 57.2718C93.6472 55.5433 90.1855 52.6695 89.1245 52.6695C87.7061 52.6695 87.8422 53.2819 90.06 56.8791L92.3008 60.5134L91.1507 61.3821C90.0486 62.2144 89.9476 62.201 88.7325 61.0623C86.0197 58.5197 82.1389 56.868 82.1389 58.256C82.1389 58.5389 83.1839 60.0534 84.4612 61.6216C86.5217 64.1513 86.6981 64.5583 86.0256 65.2308C85.3531 65.9033 85.0159 65.867 83.0359 64.9084C78.9206 62.9162 77.8835 63.7181 80.9458 66.5244L82.796 68.22L81.9018 70.5616C81.0337 72.8345 81.0373 72.9672 82.0241 75.0861C86.3301 84.3327 86.7913 85.1216 89.0547 87.114C90.3509 88.2549 91.6075 89.1884 91.8472 89.1884C92.6278 89.1884 92.3084 91.3275 91.0578 94.4743C89.8512 97.5106 88.8429 102.376 89.4201 102.376C89.5827 102.376 90.579 101.926 91.6341 101.376C94.7507 99.7515 97.15 101.027 94.8659 103.094C94.3338 103.576 93.4406 105.038 92.8809 106.343C91.8441 108.761 90.9492 112.52 91.4104 112.52C91.5504 112.52 92.66 112.068 93.876 111.517C96.4761 110.337 100.513 110.167 101.371 111.202C101.835 111.761 101.636 112.426 100.442 114.308C98.7697 116.945 97.5957 121.533 98.0896 123.501C98.4025 124.748 98.4368 124.733 101.218 122.191C102.975 120.585 104.491 119.621 105.258 119.621C106.437 119.621 106.485 119.757 106.485 123.118C106.485 126.415 108.021 132.951 108.928 133.512C109.141 133.643 109.702 132.664 110.174 131.334C110.646 130.005 111.659 128.253 112.426 127.439L113.819 125.961L114.173 129.075C114.371 130.824 115.125 133.37 115.891 134.882L117.255 137.575L118.263 136.192C119.301 134.766 121.621 133.315 122.863 133.315C123.941 133.315 126.272 138.035 126.612 140.905C126.778 142.31 127.084 143.46 127.292 143.46C127.891 143.46 131.2 139.619 132.1 137.878C132.55 137.007 133.191 136.383 133.523 136.491C133.856 136.6 134.646 137.927 135.28 139.44C136.177 141.582 136.398 142.95 136.278 145.615C136.193 147.498 136.325 149.039 136.571 149.039C137.743 149.039 140.418 145.482 141.263 142.8C141.768 141.199 142.419 139.968 142.709 140.065C142.999 140.161 143.824 141.971 144.542 144.086C145.838 147.908 146.768 149.546 147.642 149.546C148.388 149.546 150.933 145.175 151.624 142.707C151.977 141.447 152.538 140.416 152.872 140.416C154.611 140.416 157.206 145.166 157.206 148.35V150.23L158.54 149.001C160.07 147.591 161.743 144.251 161.759 142.572C161.767 141.763 162.073 141.431 162.811 141.431C164.009 141.431 165.102 143.626 165.628 147.087C166.241 151.115 166.618 150.938 168.63 145.686C172.214 136.331 173.708 134.326 177.088 134.332C178.15 134.333 178.109 134.423 176.631 135.324C174.606 136.559 174.031 137.699 171.749 145.006C169.852 151.082 167.811 154.808 165.755 155.948C163.567 157.162 163.226 156.878 163.59 154.139C163.773 152.759 163.765 150.79 163.572 149.762L163.221 147.893L161.97 149.734C160.611 151.735 156.106 154.606 154.315 154.613C153.239 154.618 153.226 154.556 153.935 152.859C154.806 150.772 154.897 146.861 154.108 145.386C153.598 144.433 153.463 144.582 152.646 146.993C151.573 150.164 150.244 152.064 148.377 153.097C147.071 153.819 146.941 153.787 145.787 152.461L144.572 151.065L144.235 152.968C144.05 154.015 142.67 158.69 141.169 163.357C138.749 170.879 137.835 175.414 138.74 175.414C138.905 175.414 141.244 174.973 143.938 174.435C146.632 173.897 151.461 173.199 154.669 172.884C162.105 172.155 164.836 171.281 166.85 168.987C168.58 167.017 169.157 166.987 168.428 168.905C167.742 170.71 165.427 173.304 163.71 174.192C162.891 174.615 158.296 175.62 153.5 176.425C140.784 178.558 136.684 180.201 132.255 184.936C129.484 187.899 128.309 190.069 126.698 195.201C125.647 198.546 125.505 199.996 125.506 207.368C125.507 215.484 125.556 215.878 127.138 220.409C128.035 222.978 129.61 226.744 130.637 228.778L132.505 232.474L133.073 230.803L133.641 229.132L136.024 234.1C137.335 236.833 139.244 240.191 140.266 241.564L142.124 244.059L142.863 242.649L143.602 241.239L145.392 242.943C151.114 248.389 148.205 252.565 137.097 254.851C134.906 255.302 132.286 256.091 131.275 256.604C129.466 257.522 126.773 260.254 126.773 261.171C126.773 261.742 126.674 261.742 128.678 261.167C130.451 260.659 131.014 261.351 129.276 261.903C127.188 262.566 123.223 266.862 123.223 268.461C123.223 269.052 124.397 268.695 125.846 267.663C126.929 266.892 127.514 266.742 127.906 267.134C128.298 267.526 128.827 267.418 129.769 266.755C130.492 266.246 131.655 265.653 132.352 265.437C133.477 265.089 133.382 265.304 131.508 267.342C128.845 270.236 127.508 272.72 128.226 273.438C128.586 273.799 129.32 273.462 130.581 272.354C131.589 271.47 132.624 270.876 132.881 271.035C133.138 271.194 134.205 270.743 135.251 270.032C137.851 268.265 139.012 268.322 137.347 270.135C135.609 272.026 134.081 274.335 133.653 275.714C133.369 276.628 133.495 276.855 134.285 276.855C134.827 276.855 135.566 276.5 135.926 276.067ZM162.465 39.7455C162.291 39.2917 162.786 38.482 163.716 37.6994C165.419 36.266 165.839 34.8519 165.174 32.7876C164.665 31.2102 162.218 30.1767 159.614 30.4396C157.014 30.7021 157.251 29.6395 159.899 29.1555C164.841 28.2527 167.857 30.0652 167.857 33.9382C167.857 36.3123 167.205 38.1053 165.848 39.4619C164.638 40.6722 162.877 40.8198 162.465 39.7455ZM141.16 27.0129C140.513 25.9174 139.106 24.3722 138.684 24.5339C137.936 24.8212 138.161 24.4974 138.867 24.0613C139.51 23.6638 144.029 24.4044 145.042 25.3043C146.512 26.6111 145.284 28.3236 143.494 28.3236C142.268 28.3236 142.007 28.4496 141.16 27.0129ZM195.865 263.67C198.3 262.962 199.304 261.475 199.304 258.575C199.304 255.2 198.121 251.74 195.566 247.645C194.332 245.668 193.225 243.613 193.106 243.08C192.769 241.57 191.702 245.737 191.698 248.578C191.697 249.903 191.56 250.988 191.393 250.988C190.945 250.988 188.08 248.968 186.581 247.595L185.271 246.395L184.681 248.365C184.356 249.448 183.506 251.195 182.793 252.247C181.594 254.012 181.536 254.351 182.03 256.656C182.325 258.029 182.566 260.431 182.566 261.993V264.833L188.272 264.526C191.41 264.357 194.827 263.972 195.865 263.67ZM114.835 166.865C115.715 163.276 117.242 160.197 118.143 160.197C118.426 160.197 118.658 160.57 118.658 161.026C118.658 163.037 120.007 166.014 121.886 168.149L123.922 170.462L124.559 167.335C125.171 164.336 126.926 160.705 127.763 160.705C127.983 160.705 128.447 161.72 128.795 162.961C129.454 165.316 132.182 168.524 133.908 168.976C134.746 169.195 134.888 168.961 134.888 167.367C134.888 165.93 135.471 164.702 137.424 162.023C140.13 158.312 141.199 155.505 141.722 150.741L142.047 147.771L141.142 149.163C139.939 151.012 137.552 152.082 134.631 152.082C132.555 152.082 132.292 151.967 132.614 151.195C133.342 149.451 133.86 145.859 133.573 144.544C132.978 141.81 132.867 141.775 131.364 143.85C129.97 145.775 128.163 147.356 125.25 149.202L123.98 150.006L124.155 147.798C124.344 145.43 123.45 138.704 122.79 137.525C122.125 136.335 120.312 138.257 118.971 141.572L117.786 144.504L116.415 142.706C115.661 141.718 114.462 139.637 113.75 138.082C113.03 136.51 112.263 135.449 112.021 135.691C111.782 135.931 111.277 137.487 110.899 139.15L110.213 142.174L108.62 139.976C107.744 138.767 106.89 137.344 106.722 136.814C106.473 136.031 105.924 135.852 103.768 135.852C102.122 135.852 98.5338 135.068 94.2918 133.781C85.5778 131.139 80.2396 130.625 78.0812 132.221C76.8931 133.099 76.1865 133.245 74.3415 132.992C73.0903 132.821 71.4798 132.828 70.7626 133.008C69.3 133.375 68.9705 134.831 70.3463 134.848C71.8167 134.867 75.5451 136.767 75.5451 137.499C75.5451 137.946 74.3462 138.387 72.0626 138.778C67.6772 139.53 65.9082 140.197 65.9082 141.099C65.9082 141.627 66.9434 141.868 69.9666 142.043C72.1987 142.172 74.1297 142.382 74.2577 142.51C74.3857 142.638 74.3668 143.216 74.2156 143.794C74.0338 144.49 73.2251 145.059 71.8265 145.476C68.6682 146.418 66.9226 147.445 66.9226 148.361C66.9226 149.064 67.3853 149.132 70.2195 148.841C73.4477 148.51 73.5163 148.529 73.5163 149.71C73.5163 150.609 72.8708 151.317 70.9803 152.493C69.5855 153.36 68.4442 154.421 68.4442 154.851C68.4442 155.784 68.4172 155.782 71.249 155.069C73.3331 154.544 73.5969 154.596 75.0473 155.816C78.5861 158.794 90.5726 160.928 96.087 159.562C97.7608 159.148 99.5003 158.651 99.9527 158.459C100.639 158.168 100.813 158.564 101.003 160.856C101.151 162.646 101.737 164.465 102.686 166.084L104.141 168.566L104.975 165.777C106.396 161.022 108.029 158.676 109.917 158.676C110.167 158.676 110.27 159.906 110.146 161.409C109.88 164.612 110.614 167.187 112.317 169.024C112.988 169.749 113.638 170.342 113.76 170.342C113.883 170.342 114.367 168.777 114.835 166.865ZM120.687 43.6806C124.55 42.3558 126.883 41.8522 129.182 41.8464C130.926 41.8418 132.352 41.7706 132.352 41.6877C132.352 41.6048 131.679 41.1888 130.856 40.7632C128.932 39.7684 124.906 39.7813 118.479 40.803C112.251 41.7932 108.012 41.5778 106.098 40.1736C105.334 39.6136 103.969 38.0646 103.065 36.7312C101.205 33.9888 100.536 34.4342 101.112 38.0332C101.552 40.7831 102.614 42.7356 104.34 43.9644C107.958 46.541 112.579 46.4607 120.687 43.6806Z" fill="#FDFDFD"/>
</svg>
