<svg width="300" height="300" viewBox="0 0 300 300" fill="none" xmlns="http://www.w3.org/2000/svg">
<g clip-path="url(#clip0_180_2254)">
<path d="M150 298C231.738 298 298 231.738 298 150C298 68.2619 231.738 2 150 2C68.2619 2 2 68.2619 2 150C2 231.738 68.2619 298 150 298Z" fill="white" stroke="#E72C21" stroke-width="2.9899"/>
<path d="M150.001 266.606C214.4 266.606 266.607 214.4 266.607 150C266.607 85.6004 214.4 33.394 150.001 33.394C85.6008 33.394 33.3945 85.6004 33.3945 150C33.3945 214.4 85.6008 266.606 150.001 266.606Z" fill="#E72C21"/>
<path d="M171.7 62.9675C169.661 63.6126 167.797 64.7192 166.255 66.2013C164.713 67.6835 163.534 69.5013 162.808 71.5134C162.083 73.5255 161.831 75.6778 162.073 77.803C162.315 79.9282 163.043 81.9691 164.202 83.767C165.983 86.532 167.137 89.654 167.583 92.9131C168.028 96.1722 167.754 99.4892 166.779 102.631C165.804 105.772 164.152 108.662 161.94 111.097C159.728 113.531 157.01 115.452 153.976 116.722C150.987 117.974 148.362 119.959 146.345 122.495C144.327 125.03 142.982 128.033 142.433 131.227C141.885 134.42 142.151 137.7 143.207 140.764C144.263 143.827 146.074 146.574 148.474 148.751C141.252 143.575 136.338 135.782 134.779 127.034C133.221 118.286 135.142 109.275 140.132 101.923C139.94 101.758 139.756 101.583 139.581 101.399C134.475 108.865 132.474 118.024 134.001 126.938C135.528 135.853 140.464 143.823 147.763 149.163C137.514 145.017 129.149 137.243 124.263 127.325C119.377 117.407 118.312 106.038 121.27 95.3849C124.229 84.7317 131.004 75.5397 140.304 69.5612C149.605 63.5826 160.78 61.2356 171.7 62.9675Z" fill="white"/>
<path d="M150.004 150L142.772 153.124L144.334 156.74L150.004 150Z" fill="#E72C21"/>
<path d="M150.004 150L145.989 156.779L142.6 154.771L150.004 150Z" fill="#E72C21"/>
<path d="M150 150L144.794 144.087L141.837 146.69L150 150Z" fill="#E72C21"/>
<path d="M150 150L142.313 148.276L143.174 144.433L150 150Z" fill="#E72C21"/>
<path d="M150 150L157.687 151.723L158.549 147.879L150 150Z" fill="#E72C21"/>
<path d="M150 150L157.232 146.875L158.794 150.491L150 150Z" fill="#E72C21"/>
<path d="M150.004 150L154.019 143.221L150.629 141.214L150.004 150Z" fill="#E72C21"/>
<path d="M150.004 150L149.268 142.156L153.189 141.787L150.004 150Z" fill="#E72C21"/>
<path d="M150.004 150L150.74 157.843L154.662 157.475L150.004 150Z" fill="#E72C21"/>
<path d="M150.004 150L155.21 155.912L152.254 158.516L150.004 150Z" fill="#E72C21"/>
<path d="M239.476 143.743C238.233 142.003 236.604 140.573 234.718 139.564C232.832 138.556 230.739 137.996 228.601 137.927C226.463 137.859 224.338 138.285 222.392 139.172C220.445 140.058 218.729 141.382 217.378 143.039C215.298 145.588 212.686 147.651 209.724 149.081C206.762 150.512 203.522 151.276 200.233 151.319C196.944 151.363 193.686 150.685 190.687 149.334C187.688 147.983 185.021 145.99 182.875 143.497C180.761 141.042 178.062 139.159 175.027 138.024C171.993 136.889 168.721 136.537 165.514 137.002C162.307 137.467 159.27 138.734 156.683 140.685C154.096 142.636 152.043 145.207 150.714 148.162C153.405 139.694 159.298 132.613 167.136 128.427C174.975 124.242 184.138 123.284 192.672 125.758C192.77 125.524 192.88 125.296 193 125.072C184.322 122.523 174.993 123.45 166.987 127.657C158.981 131.864 152.925 139.022 150.102 147.614C150.879 136.585 155.687 126.228 163.61 118.516C171.532 110.804 182.016 106.278 193.062 105.799C204.108 105.321 214.944 108.924 223.504 115.922C232.063 122.919 237.749 132.823 239.476 143.743Z" fill="white"/>
<path d="M149.996 150L144.79 144.088L141.833 146.691L149.996 150Z" fill="#E72C21"/>
<path d="M149.996 150L142.309 148.277L143.17 144.433L149.996 150Z" fill="#E72C21"/>
<path d="M149.996 150L154.011 143.221L150.622 141.214L149.996 150Z" fill="#E72C21"/>
<path d="M149.996 150L149.26 142.156L153.182 141.788L149.996 150Z" fill="#E72C21"/>
<path d="M149.996 150L150.732 157.844L154.654 157.476L149.996 150Z" fill="#E72C21"/>
<path d="M149.996 150L155.202 155.913L152.246 158.516L149.996 150Z" fill="#E72C21"/>
<path d="M149.996 150L157.684 151.723L158.545 147.879L149.996 150Z" fill="#E72C21"/>
<path d="M149.996 150L157.228 146.875L158.791 150.491L149.996 150Z" fill="#E72C21"/>
<path d="M150 150L142.768 153.125L144.33 156.741L150 150Z" fill="#E72C21"/>
<path d="M150 150L145.985 156.779L142.596 154.772L150 150Z" fill="#E72C21"/>
<path d="M81.2864 207.656C83.3154 208.333 85.4731 208.533 87.5919 208.24C89.7106 207.947 91.7334 207.17 93.503 205.969C95.2725 204.767 96.7412 203.174 97.7949 201.313C98.8486 199.451 99.4588 197.372 99.5783 195.236C99.762 191.952 100.663 188.748 102.219 185.85C103.774 182.951 105.946 180.429 108.581 178.46C111.216 176.492 114.251 175.125 117.472 174.455C120.692 173.786 124.02 173.83 127.222 174.586C130.375 175.33 133.666 175.266 136.788 174.401C139.911 173.536 142.764 171.897 145.085 169.636C147.406 167.375 149.119 164.565 150.065 161.466C151.012 158.367 151.161 155.079 150.499 151.907C153.299 160.34 152.694 169.533 148.813 177.527C144.932 185.52 138.082 191.681 129.723 194.695C129.781 194.942 129.827 195.192 129.861 195.443C138.379 192.405 145.382 186.171 149.386 178.062C153.391 169.952 154.083 160.602 151.316 151.992C157.17 161.371 159.369 172.576 157.492 183.472C155.615 194.368 149.794 204.192 141.139 211.072C132.484 217.951 121.6 221.405 110.562 220.776C99.5232 220.146 89.1027 215.476 81.2864 207.656Z" fill="white"/>
<path d="M149.992 150L157.68 151.724L158.541 147.88L149.992 150Z" fill="#E72C21"/>
<path d="M149.992 150L157.225 146.876L158.787 150.492L149.992 150Z" fill="#E72C21"/>
<path d="M149.996 150L150.732 157.843L154.654 157.475L149.996 150Z" fill="#E72C21"/>
<path d="M149.996 150L155.202 155.912L152.246 158.516L149.996 150Z" fill="#E72C21"/>
<path d="M149.992 150L144.786 144.088L141.829 146.691L149.992 150Z" fill="#E72C21"/>
<path d="M149.992 150L142.305 148.277L143.166 144.433L149.992 150Z" fill="#E72C21"/>
<path d="M149.996 150L142.764 153.125L144.326 156.741L149.996 150Z" fill="#E72C21"/>
<path d="M149.996 150L145.981 156.779L142.592 154.772L149.996 150Z" fill="#E72C21"/>
<path d="M149.992 150L154.007 143.221L150.618 141.214L149.992 150Z" fill="#E72C21"/>
<path d="M149.992 150L149.256 142.156L153.178 141.788L149.992 150Z" fill="#E72C21"/>
<path d="M183.602 233.166C184.872 231.445 185.729 229.455 186.106 227.349C186.482 225.244 186.368 223.08 185.772 221.026C185.176 218.971 184.115 217.082 182.67 215.505C181.225 213.928 179.436 212.705 177.442 211.931C174.376 210.741 171.607 208.894 169.331 206.519C167.055 204.144 165.327 201.299 164.269 198.185C163.211 195.07 162.849 191.761 163.208 188.492C163.566 185.222 164.637 182.07 166.345 179.259C168.027 176.49 168.983 173.341 169.125 170.104C169.267 166.867 168.59 163.646 167.157 160.74C165.724 157.834 163.58 155.337 160.926 153.479C158.271 151.622 155.19 150.464 151.969 150.113C160.855 150.056 169.411 153.472 175.814 159.634C182.216 165.795 185.959 174.213 186.243 183.095C186.496 183.116 186.747 183.149 186.997 183.195C186.739 174.154 182.975 165.568 176.5 159.253C170.024 152.939 161.346 149.392 152.302 149.362C163.031 146.693 174.367 148.065 184.15 153.217C193.932 158.369 201.477 166.94 205.345 177.298C209.214 187.655 209.136 199.074 205.125 209.377C201.115 219.681 193.454 228.148 183.602 233.166Z" fill="white"/>
<path d="M150 150L154.015 143.222L150.625 141.214L150 150Z" fill="#E72C21"/>
<path d="M150 150L149.264 142.157L153.186 141.788L150 150Z" fill="#E72C21"/>
<path d="M150 150L157.687 151.724L158.549 147.88L150 150Z" fill="#E72C21"/>
<path d="M150 150L157.232 146.876L158.794 150.492L150 150Z" fill="#E72C21"/>
<path d="M150.004 150.001L142.772 153.125L144.334 156.741L150.004 150.001Z" fill="#E72C21"/>
<path d="M150.004 150.001L145.989 156.78L142.6 154.772L150.004 150.001Z" fill="#E72C21"/>
<path d="M150.004 150L150.74 157.844L154.662 157.476L150.004 150Z" fill="#E72C21"/>
<path d="M150.004 150L155.21 155.913L152.254 158.517L150.004 150Z" fill="#E72C21"/>
<path d="M150 150.001L144.794 144.088L141.837 146.691L150 150.001Z" fill="#E72C21"/>
<path d="M150 150.001L142.313 148.277L143.174 144.434L150 150.001Z" fill="#E72C21"/>
<path d="M73.9359 102.469C73.9192 104.607 74.3959 106.721 75.329 108.646C76.2621 110.571 77.6264 112.254 79.3159 113.566C81.0054 114.878 82.9746 115.782 85.0704 116.209C87.1663 116.636 89.3324 116.574 91.4003 116.027C94.5806 115.187 97.9064 115.054 101.144 115.638C104.381 116.222 107.451 117.508 110.137 119.406C112.824 121.304 115.062 123.767 116.694 126.623C118.326 129.479 119.312 132.658 119.583 135.937C119.849 139.166 120.927 142.275 122.714 144.978C124.502 147.68 126.943 149.887 129.81 151.396C132.678 152.904 135.88 153.665 139.119 153.608C142.359 153.55 145.532 152.676 148.344 151.067C141.189 156.336 132.259 158.601 123.458 157.38C114.656 156.158 106.68 151.547 101.23 144.53C101.013 144.661 100.79 144.782 100.561 144.891C106.084 152.054 114.176 156.788 123.126 158.09C132.076 159.393 141.182 157.162 148.516 151.87C141.405 160.336 131.428 165.889 120.485 167.471C109.543 169.053 98.4007 166.553 89.1831 160.447C79.9655 154.342 73.3171 145.058 70.5051 134.365C67.6932 123.672 68.9144 112.319 73.9359 102.469Z" fill="white"/>
<path d="M150 150L150.736 157.844L154.658 157.476L150 150Z" fill="#E72C21"/>
<path d="M150 150L155.206 155.913L152.25 158.517L150 150Z" fill="#E72C21"/>
<path d="M150.004 150.001L142.772 153.126L144.334 156.742L150.004 150.001Z" fill="#E72C21"/>
<path d="M150.004 150.001L145.989 156.78L142.6 154.773L150.004 150.001Z" fill="#E72C21"/>
<path d="M150 150.001L154.015 143.222L150.625 141.215L150 150.001Z" fill="#E72C21"/>
<path d="M150 150.001L149.264 142.157L153.186 141.789L150 150.001Z" fill="#E72C21"/>
<path d="M150 150.001L144.794 144.088L141.837 146.691L150 150.001Z" fill="#E72C21"/>
<path d="M150 150.001L142.313 148.277L143.174 144.434L150 150.001Z" fill="#E72C21"/>
<path d="M150 150L157.687 151.724L158.549 147.88L150 150Z" fill="#E72C21"/>
<path d="M150 150L157.232 146.876L158.794 150.492L150 150Z" fill="#E72C21"/>
<path d="M42.2383 225.457L34.7042 227.76L35.8559 231.527L42.2383 225.457Z" fill="#E72C21"/>
<path d="M42.2383 225.457L37.497 231.749L34.351 229.378L42.2383 225.457Z" fill="#E72C21"/>
<path d="M42.2383 225.458L37.7195 219.004L34.4927 221.263L42.2383 225.458Z" fill="#E72C21"/>
<path d="M42.2383 225.458L34.7892 222.893L36.0716 219.168L42.2383 225.458Z" fill="#E72C21"/>
<path d="M42.2383 225.457L49.6874 228.022L50.9698 224.297L42.2383 225.457Z" fill="#E72C21"/>
<path d="M42.2383 225.457L49.7724 223.154L50.9241 226.921L42.2383 225.457Z" fill="#E72C21"/>
<path d="M42.2383 225.458L46.9796 219.166L43.8336 216.795L42.2383 225.458Z" fill="#E72C21"/>
<path d="M42.2383 225.458L42.3758 217.58L46.3143 217.649L42.2383 225.458Z" fill="#E72C21"/>
<path d="M42.2422 225.458L42.1047 233.335L46.0433 233.403L42.2422 225.458Z" fill="#E72C21"/>
<path d="M42.2422 225.458L46.761 231.911L43.5342 234.17L42.2422 225.458Z" fill="#E72C21"/>
<path d="M257.762 225.458L262.503 231.749L265.649 229.379L257.762 225.458Z" fill="#E72C21"/>
<path d="M257.762 225.458L265.296 227.761L264.144 231.528L257.762 225.458Z" fill="#E72C21"/>
<path d="M257.762 225.458L253.243 231.911L256.47 234.17L257.762 225.458Z" fill="#E72C21"/>
<path d="M257.762 225.458L257.899 233.335L253.961 233.403L257.762 225.458Z" fill="#E72C21"/>
<path d="M257.758 225.458L257.62 217.581L253.682 217.65L257.758 225.458Z" fill="#E72C21"/>
<path d="M257.758 225.458L253.017 219.166L256.162 216.795L257.758 225.458Z" fill="#E72C21"/>
<path d="M257.766 225.458L250.232 223.154L249.08 226.921L257.766 225.458Z" fill="#E72C21"/>
<path d="M257.766 225.458L250.317 228.022L249.034 224.298L257.766 225.458Z" fill="#E72C21"/>
<path d="M257.766 225.457L265.215 222.892L263.932 219.168L257.766 225.457Z" fill="#E72C21"/>
<path d="M257.766 225.457L262.284 219.003L265.511 221.263L257.766 225.457Z" fill="#E72C21"/>
<path d="M69.8122 253.588L76.2626 258.274L79.1506 254.299C79.6661 253.589 79.9606 253.091 80.0339 252.803C80.089 252.581 80.0526 252.328 79.9248 252.046C79.749 251.672 79.4985 251.367 79.1733 251.131L78.6734 250.768L78.9487 250.389L84.8911 254.706L84.6187 255.081L84.1268 254.724C83.7989 254.486 83.4309 254.339 83.0228 254.285C82.727 254.234 82.4554 254.292 82.208 254.457C81.9727 254.623 81.608 255.045 81.1139 255.725L74.6056 264.683C74.094 265.387 73.8015 265.883 73.7281 266.171C73.6731 266.394 73.7054 266.643 73.8252 266.919C74.0091 267.299 74.265 267.608 74.5928 267.846L75.0847 268.204L74.8094 268.582L68.871 264.268L69.1434 263.893L69.6393 264.253C70.2037 264.663 70.7383 264.795 71.2431 264.649C71.5732 264.556 72.04 264.094 72.6434 263.264L75.7218 259.027L69.2674 254.337L66.192 258.57C65.6843 259.269 65.3927 259.764 65.3174 260.054C65.2623 260.277 65.2987 260.529 65.4266 260.811C65.6024 261.185 65.8529 261.49 66.1781 261.726L66.682 262.092L66.4067 262.471L60.4603 258.151L60.7327 257.776L61.2245 258.133C61.797 258.549 62.3356 258.684 62.8404 258.538C63.1598 258.437 63.6212 257.972 64.2246 257.141L70.7329 248.183C71.2484 247.474 71.5442 246.976 71.6203 246.69C71.6754 246.468 71.643 246.218 71.5232 245.942C71.3393 245.562 71.0835 245.253 70.7556 245.015L70.2637 244.658L70.5391 244.279L76.4855 248.599L76.2131 248.974L75.7132 248.611C75.3853 248.373 75.0173 248.226 74.6091 248.172C74.3187 248.125 74.0498 248.185 73.8024 248.35C73.5617 248.512 73.1943 248.933 72.7003 249.612L69.8122 253.588Z" fill="#E72C21"/>
<path d="M95.4512 259.78C97.4432 260.773 98.7896 262.391 99.4904 264.633C100.203 266.874 99.9947 269.128 98.8652 271.393C97.703 273.724 96.0022 275.293 93.7627 276.099C91.5232 276.905 89.3569 276.787 87.2639 275.743C85.153 274.691 83.7494 273.054 83.053 270.832C82.3686 268.616 82.6215 266.314 83.8118 263.927C85.0273 261.489 86.8499 259.914 89.2797 259.203C91.3872 258.587 93.4444 258.779 95.4512 259.78ZM94.8258 260.498C93.4523 259.813 92.095 259.773 90.7541 260.378C89.091 261.13 87.6487 262.731 86.4273 265.181C85.1792 267.684 84.7531 269.879 85.1489 271.765C85.4611 273.202 86.292 274.256 87.6418 274.929C89.0837 275.648 90.5531 275.679 92.0499 275.022C93.5542 274.365 94.9104 272.825 96.1185 270.402C97.4274 267.777 97.8884 265.561 97.5015 263.753C97.1805 262.312 96.2886 261.227 94.8258 260.498Z" fill="#E72C21"/>
<path d="M105.152 264.736L109.603 266.097L115.87 281.477L118.763 272.013C119.071 271.006 119.152 270.343 119.007 270.024C118.808 269.595 118.386 269.282 117.741 269.085L117.169 268.91L117.306 268.462L123.025 270.21L122.888 270.658L122.301 270.479C121.609 270.267 121.052 270.326 120.632 270.656C120.379 270.857 120.112 271.418 119.831 272.34L115.603 286.169L115.164 286.035L108.385 269.518L105.297 279.62C104.989 280.628 104.906 281.29 105.049 281.608C105.247 282.037 105.668 282.35 106.309 282.546L106.891 282.724L106.754 283.172L101.04 281.425L101.177 280.977L101.749 281.152C102.448 281.365 103.008 281.307 103.428 280.977C103.686 280.771 103.955 280.209 104.235 279.291L107.723 267.882C107.418 267.178 107.167 266.698 106.97 266.443C106.782 266.195 106.474 265.92 106.045 265.618C105.834 265.477 105.49 265.334 105.014 265.189L105.152 264.736Z" fill="#E72C21"/>
<path d="M140.224 272.356L139.952 277.784L139.512 277.726C139.248 276.327 138.809 275.244 138.196 274.477C137.31 273.365 136.074 272.705 134.486 272.496C132.319 272.21 130.559 272.85 129.208 274.414C128.071 275.739 127.372 277.399 127.109 279.395C126.895 281.019 127.013 282.541 127.463 283.961C127.913 285.38 128.604 286.471 129.535 287.234C130.475 287.988 131.478 288.435 132.545 288.575C133.171 288.658 133.789 288.657 134.4 288.573C135.004 288.492 135.598 288.332 136.182 288.094L136.829 283.178C136.942 282.322 136.95 281.756 136.852 281.482C136.762 281.199 136.587 280.972 136.328 280.8C136.08 280.627 135.611 280.495 134.923 280.404L134.985 279.93L141.576 280.797L141.514 281.272L141.202 281.231C140.55 281.145 140.074 281.303 139.773 281.706C139.567 281.994 139.405 282.592 139.285 283.501L138.599 288.714C137.566 289.104 136.565 289.357 135.598 289.475C134.631 289.595 133.574 289.58 132.428 289.429C129.141 288.996 126.783 287.614 125.354 285.281C124.284 283.532 123.885 281.625 124.157 279.56C124.354 278.064 124.902 276.679 125.8 275.403C126.868 273.882 128.203 272.781 129.804 272.1C131.152 271.534 132.674 271.362 134.37 271.586C134.989 271.667 135.543 271.79 136.03 271.955C136.528 272.121 137.218 272.438 138.101 272.906C138.546 273.142 138.847 273.271 139.006 273.292C139.164 273.312 139.306 273.259 139.434 273.132C139.572 272.996 139.681 272.717 139.76 272.295L140.224 272.356Z" fill="#E72C21"/>
<path d="M165.133 279.754L172.228 285.163C173.388 286.055 174.356 286.643 175.134 286.926C175.91 287.196 176.666 287.309 177.4 287.266L177.461 287.726L169.368 288.791L169.308 288.332C169.795 288.267 170.132 288.141 170.318 287.952C170.514 287.759 170.599 287.562 170.572 287.361C170.546 287.16 170.481 286.984 170.377 286.834C170.281 286.686 169.981 286.423 169.479 286.047L162.846 281.015L163.568 286.499C163.681 287.355 163.81 287.915 163.955 288.177C164.065 288.377 164.265 288.535 164.555 288.651C164.94 288.801 165.332 288.85 165.73 288.798L166.313 288.721L166.374 289.185L159.122 290.14L159.061 289.681L159.664 289.601C160.365 289.509 160.849 289.236 161.114 288.782C161.277 288.489 161.291 287.834 161.157 286.816L159.71 275.824C159.596 274.961 159.468 274.394 159.325 274.125C159.214 273.939 159.017 273.785 158.737 273.665C158.345 273.515 157.949 273.467 157.547 273.52L156.944 273.599L156.883 273.135L164.136 272.18L164.196 272.639L163.618 272.715C163.223 272.768 162.855 272.915 162.515 273.157C162.272 273.323 162.118 273.548 162.051 273.832C161.987 274.111 162.011 274.67 162.121 275.506L162.806 280.713C162.95 280.53 163.453 279.923 164.315 278.891C166.5 276.292 167.8 274.576 168.217 273.744C168.4 273.381 168.475 273.075 168.442 272.824C168.417 272.63 168.307 272.473 168.114 272.355C167.916 272.227 167.61 272.19 167.195 272.245L166.8 272.297L166.739 271.837L172.989 271.014L173.049 271.474C172.682 271.532 172.354 271.626 172.066 271.754C171.779 271.889 171.435 272.119 171.036 272.443C170.635 272.76 170.156 273.254 169.597 273.924C169.435 274.113 168.698 275.081 167.386 276.828L165.133 279.754Z" fill="#E72C21"/>
<path d="M185.996 267.181C188.125 266.53 190.215 266.777 192.267 267.921C194.327 269.056 195.727 270.834 196.467 273.255C197.229 275.746 197.075 278.055 196.005 280.181C194.936 282.307 193.283 283.713 191.046 284.396C188.79 285.086 186.645 284.865 184.611 283.732C182.589 282.596 181.188 280.752 180.408 278.201C179.612 275.596 179.85 273.199 181.123 271.011C182.227 269.113 183.852 267.837 185.996 267.181ZM186.037 268.133C184.569 268.581 183.557 269.487 183.001 270.848C182.312 272.539 182.368 274.693 183.169 277.311C183.986 279.986 185.188 281.871 186.774 282.967C187.989 283.794 189.318 283.987 190.76 283.546C192.301 283.075 193.388 282.086 194.022 280.579C194.661 279.067 194.584 277.016 193.793 274.427C192.935 271.622 191.744 269.697 190.219 268.652C188.994 267.828 187.6 267.655 186.037 268.133Z" fill="#E72C21"/>
<path d="M196.445 264.099L200.611 262.022L215.744 268.865L211.328 260.008C210.858 259.066 210.46 258.529 210.135 258.398C209.695 258.224 209.174 258.287 208.57 258.588L208.035 258.855L207.826 258.435L213.178 255.767L213.387 256.186L212.838 256.46C212.19 256.783 211.827 257.209 211.749 257.738C211.704 258.057 211.897 258.648 212.327 259.51L218.779 272.452L218.369 272.657L202.082 265.342L206.796 274.796C207.266 275.739 207.662 276.276 207.984 276.409C208.424 276.583 208.944 276.521 209.544 276.221L210.088 275.95L210.297 276.369L204.95 279.035L204.741 278.616L205.276 278.349C205.931 278.023 206.296 277.595 206.374 277.067C206.419 276.74 206.228 276.147 205.799 275.288L200.476 264.611C199.769 264.31 199.257 264.135 198.939 264.086C198.632 264.035 198.219 264.048 197.7 264.125C197.45 264.167 197.103 264.3 196.657 264.522L196.445 264.099Z" fill="#E72C21"/>
<path d="M227.134 245.483L230.673 249.608L230.314 249.869C229.159 249.036 228.096 248.553 227.123 248.418C225.715 248.221 224.363 248.593 223.068 249.534C221.3 250.819 220.463 252.494 220.56 254.56C220.647 256.303 221.283 257.988 222.466 259.617C223.429 260.942 224.562 261.965 225.866 262.685C227.169 263.405 228.421 263.721 229.622 263.633C230.822 263.533 231.858 263.167 232.728 262.534C233.239 262.163 233.687 261.737 234.073 261.256C234.455 260.781 234.775 260.256 235.035 259.681L232.121 255.67C231.613 254.971 231.23 254.556 230.97 254.425C230.709 254.281 230.426 254.236 230.121 254.29C229.821 254.335 229.39 254.562 228.828 254.97L228.547 254.583L233.925 250.676L234.206 251.063L233.952 251.247C233.42 251.634 233.184 252.077 233.242 252.576C233.292 252.927 233.586 253.473 234.125 254.214L237.215 258.468C236.734 259.462 236.183 260.334 235.562 261.085C234.944 261.838 234.166 262.555 233.231 263.234C230.549 265.183 227.887 265.803 225.245 265.095C223.265 264.562 221.663 263.453 220.438 261.768C219.552 260.548 218.995 259.166 218.769 257.622C218.496 255.784 218.707 254.066 219.399 252.471C219.987 251.132 220.973 249.96 222.357 248.954C222.862 248.587 223.349 248.296 223.816 248.079C224.291 247.857 225.01 247.612 225.973 247.344C226.458 247.209 226.765 247.095 226.894 247.001C227.023 246.907 227.09 246.77 227.095 246.59C227.102 246.396 226.989 246.119 226.756 245.759L227.134 245.483Z" fill="#E72C21"/>
<path d="M160.213 148.616C160.13 148.334 159.911 147.941 159.553 147.449C159.115 146.84 158.885 146.658 158.768 146.615C158.606 146.558 158.406 146.565 158.176 146.648L155.468 147.511L151.505 148.675L150.334 144.687L151.587 144.319C151.787 144.26 152.037 144.119 151.878 143.579C151.79 143.278 151.518 142.864 151.076 142.35C150.651 141.857 150.265 141.674 149.918 141.802L147.305 142.684L144.947 143.376C144.469 143.516 144.007 143.392 143.557 143.01C143.484 142.938 143.416 142.917 143.326 142.948C143.221 142.979 143.144 143.054 143.087 143.195L142.115 145.438C142.064 145.547 142.049 145.639 142.07 145.711C142.093 145.788 142.156 145.842 142.264 145.893L144.115 146.82L144.157 146.838L145.238 150.52L145.144 150.553L142.437 151.347C141.94 151.493 141.526 151.34 141.205 150.899C141.152 150.826 141.096 150.812 141.005 150.838C140.909 150.866 140.868 150.92 140.861 151.021L140.804 154.86C141.33 154.617 142.001 154.353 142.819 154.061L146.008 153.124L147.006 156.524L147.007 156.544L146.543 160.025C147.35 159.658 148.218 159.326 149.136 159.056L153.219 157.857L156.102 157.099C156.217 157.065 156.293 157.022 156.325 156.956C156.359 156.894 156.365 156.809 156.334 156.704C156.267 156.474 156.038 156.1 155.662 155.598C155.192 154.972 154.964 154.779 154.859 154.722C154.718 154.649 154.502 154.655 154.233 154.729L153.367 154.983L152.279 151.278L156.454 150.052L159.938 149.133C160.075 149.103 160.166 149.04 160.211 148.964C160.254 148.879 160.256 148.764 160.213 148.616ZM145.77 150.369L145.674 150.397L144.501 146.4L149.808 144.841L149.902 144.809L151.074 148.801L145.77 150.369ZM152.904 155.015L152.932 155.111L147.627 156.674L147.531 156.702L146.471 153.092L146.438 152.998L151.846 151.41L152.904 155.015Z" fill="#E72C21"/>
<path d="M149.591 139.789C149.512 139.795 149.437 139.827 149.377 139.879L147.737 141.847C147.673 141.918 147.639 142.011 147.643 142.107C147.643 142.196 147.698 142.281 147.812 142.361L149.267 143.497L149.307 143.527V144.533H146.571V144.434L146.561 140.97C146.561 140.771 146.492 140.771 146.462 140.771C146.412 140.771 146.362 140.801 146.307 140.856L144.608 142.754C144.537 142.839 144.499 142.948 144.503 143.058C144.503 143.153 144.528 143.218 144.593 143.263L146.113 144.518L146.153 144.548V144.598L146.173 158.835L146.811 158.167C146.646 157.669 146.566 157.201 146.586 156.772V155.77H146.686L149.227 155.765H149.327V155.865L149.332 160.21L149.99 159.732C149.835 159.034 149.746 158.392 149.746 157.828V155.765H149.845L152.466 155.756H152.571V158.785L153.259 158.167C153.095 157.505 153.005 156.826 152.99 156.144L152.98 151.565V151.465H155.227V151.565L155.242 159.553L155.91 158.92C155.745 158.232 155.661 157.634 155.656 157.156L155.651 151.56V151.46H155.75L157.993 151.455L159.847 151.495C160.205 151.505 160.33 151.465 160.375 151.44C160.435 151.405 160.464 151.291 160.464 151.126C160.464 150.777 160.365 150.264 160.165 149.606C160.031 149.183 159.807 148.674 159.488 148.674L157.714 148.744H155.646V148.645L155.631 139.974C155.631 139.834 155.581 139.834 155.536 139.834C155.466 139.834 155.402 139.869 155.337 139.944L153.642 141.922C153.563 142.012 153.523 142.097 153.523 142.171C153.523 142.246 153.573 142.321 153.672 142.401L155.182 143.716L155.217 143.751V143.801L155.227 148.645V148.754H152.98V148.654L152.965 140.985C152.965 140.901 152.95 140.836 152.915 140.811C152.895 140.786 152.86 140.771 152.805 140.771C152.768 140.773 152.731 140.783 152.697 140.8C152.664 140.817 152.634 140.841 152.611 140.871L150.986 142.71C150.877 142.824 150.827 142.939 150.827 143.033C150.827 143.118 150.877 143.198 150.972 143.283L152.282 144.279L152.327 144.314V144.533H149.731V144.434L149.721 139.989C149.721 139.794 149.646 139.794 149.591 139.794V139.789ZM143.233 140.093C143.168 140.093 143.098 140.128 143.023 140.193L141.429 142.241C141.379 142.3 141.349 142.373 141.344 142.45C141.344 142.535 141.394 142.625 141.508 142.715L142.919 143.935L142.954 143.965V145.949H141.459L141.424 145.909L140.995 145.311C140.945 145.226 140.876 145.186 140.796 145.186C140.706 145.186 140.631 145.236 140.572 145.321L139.535 148.699L141.469 148.585H142.959V148.684L142.964 151.395V151.5H141.479L141.449 151.45C141.353 151.227 141.224 151.021 141.065 150.837C141.015 150.817 140.965 150.802 140.906 150.802C140.776 150.802 140.686 150.847 140.626 150.937L139.715 154.191L141.389 154.071H142.969V154.171L142.979 159.503L143.651 158.935C143.504 158.456 143.42 157.96 143.402 157.46L143.397 154.171V154.071L143.497 154.066H144.424L145.425 154.131C145.5 154.131 145.535 154.111 145.555 154.091C145.605 154.046 145.654 153.942 145.654 153.673C145.654 153.398 145.58 153 145.44 152.477C145.251 151.789 145.136 151.634 145.091 151.605C145 151.531 144.885 151.492 144.767 151.495H143.397V151.395L143.392 148.684V148.585H143.492L145.42 148.58C145.63 148.58 145.719 148.48 145.719 148.256C145.704 147.853 145.635 147.454 145.515 147.07C145.39 146.621 145.266 146.312 145.141 146.158C145.032 146.018 144.882 145.949 144.688 145.949H143.387L143.382 145.849L143.372 140.273C143.372 140.203 143.362 140.148 143.332 140.123C143.327 140.118 143.302 140.093 143.233 140.093ZM152.452 147.095H152.556V147.194L152.561 148.65V148.754H152.461L149.83 148.759H149.731V148.659L149.726 147.204V147.1H149.825L152.452 147.095ZM149.212 147.1H149.312V148.759H146.576V147.11H146.676L149.212 147.1ZM152.566 151.465V153.184H152.466L149.84 153.194H149.741V151.47H152.461L152.566 151.465ZM149.217 151.47H149.317V151.57L149.322 153.09V153.194H149.222L146.681 153.199H146.581V151.475H146.681L149.217 151.47Z" fill="#E72C21"/>
<path d="M148.079 149.223L148.105 149.132L148.194 149.148C150.533 149.596 152.93 149.656 155.288 149.325C157.441 148.996 159.576 147.987 161.644 146.34C160.561 145.165 160.16 144.035 160.469 142.983C160.517 142.82 160.591 142.655 160.674 142.498L160.356 142.165C159.288 143.327 158.435 144.198 157.83 144.737C156.986 145.436 156.049 146.014 155.046 146.454C153.874 147.018 152.633 147.422 151.354 147.655C150.03 147.881 148.684 147.953 147.344 147.87C145.907 147.791 144.669 147.604 143.656 147.306C143.149 147.157 142.826 146.824 142.7 146.314C142.561 145.744 142.401 145.619 142.315 145.593C142.205 145.561 142.095 145.581 141.991 145.633L139.689 149.123C140.062 149.216 140.434 149.31 140.773 149.41C142.361 149.876 144.349 150.657 146.687 151.733C149.016 152.795 151.098 154.329 152.801 156.239C154.456 158.079 155.633 160.297 156.228 162.699L156.614 162.62C156.424 159.183 155.68 156.394 154.407 154.343C153.118 152.276 151.006 150.607 148.124 149.387L148.041 149.352L148.08 149.218" fill="#E72C21"/>
<path d="M162.854 147.373C162.784 147.151 162.671 146.995 162.508 146.89C162.369 146.801 162.143 146.739 161.84 146.704C160.676 146.578 159.423 146.086 158.111 145.243C157.662 144.955 157.218 144.622 156.785 144.255L156.45 144.537C157.325 145.443 158.073 146.528 158.67 147.764L158.696 147.817L158.566 148.018C158.312 148.441 157.673 148.818 156.604 149.173C155.634 149.512 154.607 149.653 153.582 149.589C152.661 149.524 151.757 149.314 150.901 148.968L150.783 148.921L154.789 142.688C154.929 142.47 154.849 142.418 154.816 142.397C154.774 142.37 154.679 142.333 154.492 142.319L151.839 142.954C151.789 142.964 151.742 142.984 151.7 143.013C151.658 143.042 151.622 143.08 151.595 143.123C151.536 143.215 151.536 143.298 151.584 143.388L151.593 143.394L151.591 143.405L152.309 145.643L152.326 145.69L150.273 148.884L150.197 148.865C149.107 148.573 148.058 148.147 147.073 147.597L146.978 147.542L148.559 145.081L148.65 145.134L149.497 145.678C149.656 145.78 149.87 145.853 150.11 145.48C150.263 145.241 150.436 144.789 150.614 144.133C150.778 143.51 150.707 143.103 150.393 142.901L148.505 141.848L147.411 141.145C147.092 140.94 146.9 140.556 146.828 140.006L146.823 140.003L146.829 139.995C146.83 139.901 146.798 139.839 146.731 139.796C146.639 139.737 146.537 139.73 146.41 139.761L144.495 140.455C144.363 140.5 144.251 140.59 144.178 140.708C144.148 140.749 144.126 140.796 144.115 140.846C144.103 140.895 144.102 140.947 144.111 140.997L144.471 143.046L144.48 143.088L140.207 149.736L140.188 149.748L137.354 151.706C138.045 152.031 138.952 152.555 140.081 153.287L150.495 159.979C150.788 160.167 150.845 160.512 150.659 160.985C150.583 161.197 150.565 161.363 150.617 161.485C150.657 161.57 150.737 161.639 150.855 161.685L153.805 162.1C153.942 162.117 154.043 162.07 154.125 161.933C154.167 161.875 154.192 161.807 154.198 161.736C154.204 161.665 154.191 161.593 154.16 161.529C153.887 160.986 153.661 159.651 153.478 157.448L153.188 153.695L152.764 153.654C152.518 154.811 152.155 156.076 151.698 157.424L151.656 157.544L147.116 154.627L149.309 151.214L149.384 151.245C151.236 151.954 153.213 152.278 155.195 152.195C157.336 152.115 159.38 151.283 160.969 149.846C161.826 149.094 162.328 148.617 162.463 148.407L162.69 148.091C162.862 147.823 162.915 147.584 162.854 147.373ZM143.427 152.256L140.379 150.297L145.145 142.882L148.193 144.84L143.484 152.168L143.427 152.256ZM148.767 151.228L146.791 154.294L146.737 154.377L146.651 154.328L143.796 152.493L145.625 149.647L145.709 149.7C146.579 150.2 147.586 150.67 148.712 151.074L148.833 151.116L148.763 151.225" fill="#E72C21"/>
<path d="M147.844 139.855C147.801 139.845 147.757 139.847 147.716 139.86L144.248 141.421C144.536 141.654 145.077 142.18 145.933 143.061L148.263 145.742L148.328 145.818L148.253 145.883L146.309 147.574L146.23 147.642L144.103 145.187C143.763 144.802 143.72 144.319 143.965 143.75C143.995 143.685 144.019 143.584 143.905 143.453C143.814 143.347 143.713 143.322 143.575 143.376L140.203 144.933L141.729 146.473L144.241 149.373L144.166 149.438L140.46 152.656L141.46 152.692C141.873 152.11 142.262 151.661 142.605 151.357L144.522 149.696L144.587 149.772L148.279 154.024L148.203 154.089L143.615 158.078L144.603 158.145C144.901 157.63 145.285 157.17 145.739 156.785L159.084 145.195C159.118 145.166 159.156 145.126 159.159 145.084C159.161 145.056 159.146 145.023 159.116 144.989C159.051 144.92 158.965 144.875 158.871 144.859L156.103 144.646C156.071 144.641 156 144.65 155.865 144.767C155.74 144.875 155.687 144.98 155.694 145.08L155.879 147.379L155.883 147.428L154.365 148.744L154.3 148.668L150.67 144.495L150.605 144.419L150.68 144.354L154.631 140.924C154.725 140.842 154.743 140.787 154.741 140.762C154.749 140.756 154.743 140.734 154.721 140.708C154.678 140.659 154.58 140.599 154.349 140.568L151.663 140.436C151.585 140.437 151.494 140.477 151.396 140.562C151.317 140.63 151.291 140.706 151.312 140.806L151.318 140.814L151.314 140.824L151.469 143.05L151.473 143.1L150.324 144.095L148.213 141.659C147.896 141.3 147.806 140.93 147.939 140.551C148.048 140.252 148.049 140.04 147.951 139.927C147.919 139.889 147.885 139.872 147.847 139.859L147.844 139.855ZM148.609 146.142L148.678 146.221L152.307 150.395L152.373 150.47L150.271 152.291L150.202 152.219L146.576 148.042L146.511 147.966L148.537 146.211L148.609 146.142ZM158.749 149.785C158.569 149.783 158.385 149.784 158.19 149.794C156.655 149.872 154.755 150.548 152.536 151.792L152.656 152.189C155.287 151.705 158.004 152.078 160.408 153.252C161.065 153.554 161.575 153.534 161.967 153.194C162.238 152.959 162.331 152.641 162.266 152.223C162.194 151.791 161.998 151.381 161.671 151.011C160.995 150.232 160.014 149.822 158.749 149.785ZM152.805 153.715L149.67 153.926C150.106 156.78 149.722 160.112 148.534 163.838L148.931 163.969C151.064 160.571 152.256 157.481 152.477 154.791L152.479 154.756L152.51 154.729L153.073 154.116C153.165 154.017 153.167 153.929 153.066 153.812C153.011 153.748 152.918 153.716 152.801 153.712L152.805 153.715Z" fill="#E72C21"/>
<path d="M161.085 151.912L159.577 148.826L156.624 142.384C156.493 142.099 156.522 141.801 156.697 141.502C156.839 141.272 156.886 141.087 156.83 140.975C156.786 140.88 156.684 140.801 156.528 140.746L154.732 140.257C154.511 140.205 154.344 140.199 154.235 140.248C154.099 140.311 154.019 140.424 153.995 140.599L153.99 140.612L153.429 142.249L153.416 142.293L151.39 143.219L151.37 143.222L148.267 143.242C148.559 143.75 148.852 144.307 149.133 144.923L149.876 146.55L149.639 146.451L148.061 145.813C147.964 145.764 147.861 145.732 147.754 145.717C147.727 145.73 147.674 145.781 147.624 145.985L147.135 147.83L147.125 147.878L146.64 148.1L145.136 144.82L145.099 144.738L145.17 144.69C146.189 144.005 146.8 143.568 146.984 143.396C147.142 143.241 147.323 143.111 147.521 143.013C147.694 142.935 147.899 142.879 148.134 142.854C148.32 142.829 148.44 142.769 148.511 142.66C148.57 142.551 148.58 142.453 148.533 142.349C148.499 142.282 148.442 142.23 148.373 142.203L145.465 140.874C143.716 143.592 141.57 146.033 139.098 148.115L139.297 148.347C140.742 147.589 141.94 146.877 142.845 146.233L142.951 146.163L144.321 149.164L140.019 151.129L140.833 151.507C141.333 151.115 141.87 150.773 142.437 150.485L143.629 149.94L143.654 150.066C144.246 153.006 144.251 156.4 143.675 160.142L144.002 160.222C145.138 158.221 145.86 156.012 146.125 153.726L146.131 153.668L146.335 153.575L146.377 153.665L148.491 158.271L149.486 160.665L149.583 160.95C149.661 161.122 149.798 161.29 150.17 161.12C150.465 160.985 150.811 160.701 151.206 160.269C151.727 159.708 151.824 159.488 151.831 159.408C151.852 159.261 151.825 159.093 151.746 158.921L151.467 158.43L150.001 155.461L147.813 150.67L147.902 150.624L148.024 150.568L148.072 150.601C148.146 150.655 148.408 150.809 148.854 151.066C149.355 151.36 149.788 151.759 150.122 152.234C150.46 152.699 150.821 152.83 151.238 152.639C151.397 152.567 151.543 152.407 151.668 152.153C151.799 151.901 151.829 151.641 151.761 151.349L151.746 151.268L151.982 151.16L152.023 151.251L153.359 154.163L154.548 156.995C154.645 157.208 154.75 157.341 154.868 157.385C154.95 157.42 155.044 157.409 155.146 157.368C155.352 157.269 155.635 157.036 155.991 156.665C156.28 156.387 156.528 156.069 156.727 155.721C156.844 155.486 156.839 155.247 156.708 154.995L155.833 153.176L155.785 153.083L158.133 152.011L158.174 152.101L159.069 154.229C159.127 154.356 159.191 154.436 159.266 154.468C159.336 154.501 159.428 154.487 159.537 154.437C159.845 154.296 160.239 153.936 160.715 153.357C161.176 152.796 161.295 152.325 161.08 151.914M151.336 149.806L151.316 149.87L151.252 150.042L151.139 149.891C150.589 149.167 149.354 149.101 147.464 149.69L147.379 149.718L146.814 148.481L150.075 146.986L150.117 147.076L151.341 149.733L151.355 149.765L151.336 149.806ZM157.869 151.671L155.598 152.708L155.556 152.618L151.494 143.746L151.452 143.656L151.543 143.614L153.812 142.573L153.853 142.663L157.916 151.535L157.957 151.625L157.866 151.667" fill="#E72C21"/>
<path d="M158.925 155.241L156.965 141.608L157.005 141.572L157.619 140.94C157.733 140.828 157.776 140.706 157.757 140.568C157.737 140.435 157.675 140.348 157.567 140.298L155.587 139.133C155.494 139.071 155.384 139.043 155.273 139.052C155.16 139.068 155.081 139.115 155.029 139.208L153.9 140.815L153.87 140.85L142.974 142.416L142.953 142.409L139.692 141.438C139.888 142.417 140.034 143.186 140.105 143.715L142.132 157.812L142.452 160.877C142.466 161.011 142.51 161.105 142.583 161.16C142.657 161.215 142.765 161.235 142.913 161.214C143.16 161.178 143.55 161.021 144.065 160.751C144.707 160.422 144.909 160.252 144.968 160.168C145.046 160.046 145.072 159.911 145.048 159.744L144.78 158.403L144.759 158.295L156.459 156.613L156.558 156.604L156.662 157.329L156.788 158.69C156.8 158.779 156.862 158.856 156.963 158.927C157.064 159.003 157.178 159.027 157.317 159.012C157.416 158.997 157.703 158.891 158.528 158.47C159.156 158.148 159.422 157.788 159.337 157.372L158.93 155.241M154.882 144.913L155.145 146.743L154.987 146.69L152.499 145.88C152.468 146.943 152.358 148.002 152.169 149.049L152.154 149.116L151.942 149.147L151.911 149.071C151.727 148.563 151.496 147.409 151.202 145.543L151.187 145.439L154.773 144.924L154.882 144.913ZM152.249 141.516L154.346 141.214L154.365 141.317L154.752 144.005L154.565 143.896L153.959 143.53L153.887 143.485L153.92 143.405C153.997 143.203 154.024 143.007 153.998 142.825C153.954 142.519 153.767 142.269 153.436 142.07C153.079 141.861 152.675 141.748 152.261 141.741L152.176 141.743L152.146 141.536L152.249 141.516ZM149.753 141.91L149.789 141.879L149.813 141.866L151.652 141.602L151.5 141.8L151.42 141.912C151.643 142.037 151.837 142.209 151.988 142.416C152.14 142.622 152.245 142.859 152.297 143.11C152.441 143.658 152.636 143.957 152.869 144.004L153.024 144.032L152.932 144.166L152.484 144.795L152.459 144.828L151.181 145.012L150.918 143.182L150.953 143.147C151.309 142.819 151.368 142.634 151.354 142.536C151.335 142.402 151.27 142.376 151.208 142.365L149.79 142.096L149.552 142.05L149.753 141.91ZM143.013 146.081L142.558 142.914L148.319 142.086L148.333 142.185L148.574 143.368L148.858 145.346L143.028 146.184L143.013 146.081ZM156.4 156.203L144.71 157.884L144.691 157.786L144.251 154.728L144.483 154.695L144.513 154.761C144.617 154.962 144.799 155.243 145.057 155.604C145.326 155.973 145.501 156.24 145.592 156.388C145.681 156.551 145.755 156.541 145.786 156.541C145.963 156.516 146.112 156.364 146.224 156.091C146.417 155.704 146.701 155.37 147.051 155.116L149.994 152.76L149.915 152.555C147.984 153.235 146.088 153.774 144.281 154.165L144.174 154.19L143.043 146.328L143.231 146.442L143.747 146.771C144.383 146.503 144.815 146.36 145.057 146.326L148.919 145.77L148.933 145.869L149.215 147.339L149.261 147.589L149.054 147.443L147.92 146.634C147.847 146.625 147.772 146.623 147.698 146.626C147.651 146.629 147.605 146.647 147.568 146.675C147.53 146.704 147.501 146.743 147.484 146.787L147.485 146.792L147.476 146.798L146.833 147.757L146.803 147.791L146.024 147.903L146.008 147.901L143.882 147.325C143.986 147.773 144.084 148.278 144.166 148.85L144.479 151.025L144.717 152.824C144.743 153.036 144.804 153.179 144.895 153.251C144.956 153.293 145.039 153.311 145.143 153.296C145.207 153.287 145.389 153.225 145.934 152.915C146.194 152.79 146.435 152.628 146.65 152.435C146.677 152.404 146.698 152.368 146.709 152.329C146.721 152.29 146.724 152.249 146.718 152.209L146.668 151.652L146.66 151.558L147.321 151.462L147.438 152.276C147.451 152.365 147.484 152.421 147.53 152.459C147.597 152.51 147.7 152.521 147.843 152.5C148.005 152.477 148.334 152.344 148.823 152.102C149.283 151.87 149.482 151.575 149.428 151.205L149.213 150.229L148.927 148.241L148.957 148.207L149.21 147.898L149.351 147.727L149.387 147.943C149.707 149.639 150.141 151.082 150.671 152.214L150.693 152.261L150.665 152.311C149.65 153.996 148.365 155.502 146.861 156.769L147.021 156.938C148.775 156.23 150.364 155.167 151.687 153.815L151.775 153.727L151.838 153.819C152.406 154.547 153.045 155.105 153.737 155.469C154.414 155.839 154.945 155.995 155.315 155.942C155.833 155.867 156.046 155.63 155.983 155.191C155.951 154.969 155.847 154.667 155.672 154.294C155.489 153.898 155.354 153.414 155.274 152.851C155.198 152.324 155.121 151.403 155.048 150.125L154.869 150.11C154.618 152.357 154.589 152.502 154.57 152.545C154.553 152.612 154.515 152.673 154.462 152.719C154.409 152.764 154.344 152.792 154.274 152.799C154.126 152.82 153.997 152.793 153.885 152.719C153.824 152.677 153.678 152.542 153.168 151.865L153.131 151.815L153.163 151.76C153.795 150.527 154.284 149.225 154.619 147.881L154.621 147.86L154.639 147.843C154.769 147.693 154.919 147.551 155.092 147.425L155.228 147.32L156.504 156.189L156.4 156.203ZM147.266 151.047L146.561 151.149L146.15 148.288L146.85 148.187L147.261 151.048" fill="#E72C21"/>
<path d="M153.056 146.664L152.874 146.456L153.15 146.496L159.856 147.445C160.043 147.472 160.118 147.443 160.146 147.421C160.158 147.408 160.18 147.391 160.182 147.346C160.193 147.267 160.148 147.16 160.05 147.035L158.413 144.907C158.362 144.844 158.286 144.808 158.178 144.792C158.124 144.783 158.069 144.787 158.017 144.804C157.966 144.822 157.919 144.851 157.882 144.891L156.107 146.383L156.072 146.413L156.023 146.406L151.948 145.825L151.849 145.811L151.863 145.712L152.18 143.472L152.195 143.373L152.288 143.387C152.763 143.415 153.558 143.413 154.646 143.374C155.758 143.342 156.472 143.349 156.818 143.394C157.006 143.421 157.171 143.465 157.304 143.514C157.409 143.559 157.514 143.559 157.627 143.51C157.728 143.474 157.782 143.412 157.796 143.318C157.804 143.239 157.787 143.159 157.748 143.089L155.882 140.732C153.298 141.443 148.998 141.902 143.101 142.091L143.083 142.391C144.819 142.64 146.994 142.882 149.572 143.127L149.671 143.141L149.656 143.245L149.363 145.353L149.348 145.456L140.635 144.219L141.152 145.003C141.575 144.928 142.305 144.962 143.401 145.115L146.455 145.549L146.627 145.573L146.522 145.709C144.806 147.945 142.363 149.884 139.26 151.472L139.486 151.857C141.956 151.24 143.593 150.71 144.36 150.282L144.534 150.186L144.516 150.385L144.283 152.702C144.283 152.702 143.682 156.956 143.676 156.96L143.293 158.823C143.282 158.897 143.288 158.958 143.326 159.009C143.381 159.087 143.532 159.19 143.922 159.246C144.366 159.309 144.843 159.282 145.352 159.169C146.002 159.026 146.091 158.863 146.1 158.804L146.217 157.532L146.228 157.422L146.331 157.437L151.556 158.178L151.655 158.193L151.641 158.291L151.417 159.885C151.409 159.934 151.386 160.097 151.86 160.16C152.275 160.22 152.762 160.189 153.301 160.05C153.985 159.877 154.085 159.705 154.09 159.64L154.278 157.699L154.905 153.308C154.931 153.121 155.053 152.977 155.269 152.872C155.486 152.768 155.505 152.705 155.505 152.705L155.546 152.56L155.668 152.653C156.416 153.229 156.951 153.603 157.282 153.791C157.75 153.053 158.162 152.573 158.515 152.357C158.881 152.123 159.316 152.04 159.799 152.109C159.888 152.122 159.985 152.146 160.082 152.17L160.265 151.778C157.494 150.663 155.024 148.911 153.056 146.664ZM152.095 155.134L151.717 157.759L146.394 157.003L146.295 156.989L146.309 156.89L146.667 154.369L146.682 154.266L146.78 154.28L152.109 155.036L152.095 155.134ZM152.526 152.1L152.163 154.626L152.064 154.612L146.736 153.851L147.098 151.335L147.108 151.231L147.211 151.246L152.431 151.986L152.54 152.002L152.526 152.1ZM154.169 151.002L154.117 151.045L154.047 151.116L153.976 151.05C153.713 150.811 153.59 150.758 153.535 150.75C153.506 150.746 153.499 150.755 153.488 150.764L153.487 150.773L153.475 150.782L152.421 151.536L152.382 151.561L152.342 151.555L147.38 150.847L147.355 150.843L147.332 150.825L145.858 149.667L145.745 149.575L145.872 149.497C147.051 148.808 148.08 147.889 148.898 146.796L148.936 146.746L149.163 146.779L148.959 148.194L148.507 150.637C148.507 150.637 148.538 150.706 148.838 150.75C149.258 150.81 149.78 150.784 150.39 150.676C151.185 150.538 151.271 150.354 151.278 150.31L151.495 148.347L151.751 146.562L151.963 146.592L151.978 146.665C152.302 148.24 153.064 149.691 154.175 150.852L154.246 150.923L154.169 150.998" fill="#E72C21"/>
<path d="M143.004 143.764C142.874 145.129 142.906 145.598 142.956 145.753C143.03 145.973 143.151 146.116 143.333 146.199C143.659 146.348 144.023 146.295 144.442 146.037C144.866 145.781 145.181 145.427 145.382 144.987C145.56 144.597 145.543 144.129 145.345 143.579C145.141 143.031 144.365 142.2 143.037 141.112L142.723 141.236C143.008 141.848 143.106 142.688 143.004 143.764ZM146.269 141.174C146.139 142.046 146.3 142.569 146.767 142.782C147.12 142.943 147.498 142.908 147.92 142.679C148.347 142.452 148.643 142.165 148.792 141.839C149.191 140.964 148.274 139.613 146.068 137.823L145.751 137.952L146.172 138.999C146.384 139.517 146.412 140.248 146.273 141.176M159.628 146.563C159.541 146.359 159.472 146.305 159.436 146.289C159.35 146.249 159.243 146.255 159.111 146.316L157.576 147.039L157.537 147.065L157.029 146.833L157.907 144.911C157.969 144.775 158.166 144.668 158.515 144.586C158.917 144.485 158.966 144.414 158.968 144.41C158.968 144.41 159.007 144.301 158.617 143.992L156.351 142.152C156.184 142.53 155.683 143.709 155.677 143.712L154.733 145.779L154.64 145.742L153.226 145.096L154.164 143.043C154.224 142.911 154.41 142.816 154.748 142.735C155.138 142.649 155.182 142.577 155.182 142.577C155.186 142.567 155.227 142.455 154.774 142.089L152.58 140.238L151.892 141.934L150.928 144.047L148.611 142.989L148.884 143.831C149.409 143.906 149.89 144.027 150.292 144.216L150.754 144.427L149.406 147.378L146.75 146.165L146.842 146.059L148.46 144.267L148.265 144.036C146.996 145.174 145.666 146.242 144.279 147.234C142.963 148.161 142.116 148.612 141.674 148.619C141.223 148.617 140.777 148.515 140.37 148.319C140.153 148.22 139.925 148.083 139.692 147.933L139.468 148.28C140.141 148.822 140.52 149.264 140.619 149.61C140.718 149.968 140.689 150.333 140.525 150.691C140.378 151.013 140.073 151.465 139.588 152.071C139.269 152.436 138.986 152.831 138.742 153.251C138.542 153.691 138.546 154.257 138.75 154.925C138.952 155.598 139.258 156.034 139.668 156.215C140.307 156.507 140.835 156.179 141.276 155.213C141.566 154.579 141.775 153.951 141.91 153.345C141.999 152.881 142.123 152.425 142.281 151.98L142.312 151.912L142.386 151.918C143.869 152.042 145.274 151.868 146.571 151.392L146.802 151.306L144.829 155.625C144.655 156.006 144.653 156.515 144.824 157.135C144.991 157.754 145.444 158.273 146.172 158.682C146.921 159.106 147.7 159.5 148.484 159.858C150.333 160.703 151.728 161.187 152.626 161.284C153.481 161.379 154.294 160.978 155.044 160.104C154.487 159.428 154.207 158.818 154.236 158.311C154.265 157.815 154.385 157.3 154.588 156.773L154.343 156.59L153.767 157.467C153.552 157.86 153.248 158.198 152.879 158.452C152.603 158.6 152.204 158.61 151.675 158.472C150.964 158.265 150.272 158 149.605 157.68C148.526 157.188 147.902 156.826 147.695 156.572C147.471 156.306 147.454 155.959 147.641 155.551L148.411 153.865L150.958 155.028L150.91 155.121L150.58 155.797C150.548 155.854 150.543 155.901 150.556 155.945C150.585 156.024 150.686 156.103 150.845 156.176C151.207 156.341 151.71 156.417 152.327 156.398C153.097 156.366 153.288 156.212 153.327 156.115L153.94 154.773L154.036 154.982C154.346 155.671 154.856 156.364 155.545 157.04C156.444 156.235 157.389 155.954 158.358 156.205L158.581 155.995C156.256 154.33 154.881 152.437 154.506 150.354L154.47 150.157L159.311 152.367C159.375 152.396 159.468 152.433 159.536 152.404C159.58 152.391 159.612 152.357 159.639 152.298C159.66 152.253 159.66 152.192 159.637 152.122L158.596 149.964C158.504 149.769 158.44 149.729 158.417 149.719C158.309 149.669 158.256 149.7 158.215 149.741L158.2 149.751L158.185 149.76L156.481 150.576L156.437 150.6L155.503 150.174L156.855 147.214L159.919 148.613C160.114 148.702 160.221 148.696 160.272 148.681C160.311 148.666 160.335 148.639 160.358 148.589C160.39 148.502 160.392 148.407 160.366 148.319L159.635 146.56M142.95 151.08L142.676 151.163L142.835 150.924C143.924 149.336 145.15 147.846 146.5 146.473L146.607 146.358L146.671 146.507L146.81 146.861C147.191 146.897 147.562 147.005 147.903 147.179L148.646 147.497L148.772 147.554L148.682 147.656C147.393 149.148 145.458 150.303 142.956 151.078M152.16 152.432L151.15 154.644L148.593 153.477L148.63 153.384L149.642 151.168L152.204 152.337L152.16 152.432ZM153.612 149.852C153.493 150.51 153.436 151.114 153.461 151.635L153.462 151.729L153.364 151.739L152.182 151.856L152.153 151.859L149.887 150.824L149.868 150.805L149.407 150.195L149.324 150.091L149.447 150.037C149.543 149.994 149.956 149.738 151.358 148.79L151.406 148.757L153.627 149.772L153.612 149.852ZM154.513 146.259L153.207 149.12L151.702 148.432L151.739 148.34L153.048 145.475L154.557 146.164L154.516 146.255" fill="#E72C21"/>
<path d="M146.371 155.368C146.673 155.629 147.019 155.724 147.43 155.652C147.838 155.577 148.185 155.383 148.459 155.073C148.753 154.734 148.895 154.297 148.887 153.789C148.875 153.277 148.583 152.404 148.013 151.198L147.646 151.256C147.615 152.067 147.225 152.936 146.445 153.836C145.914 154.45 145.889 154.95 146.371 155.368ZM146.845 148.307L146.899 148.321L149.678 148.751L149.849 148.326L147.72 147.51L147.582 147.456L149.491 145.253L151.359 146.872C151.548 147.035 151.606 146.967 151.633 146.937C151.665 146.892 151.684 146.824 151.674 146.722L151.633 144.768C151.634 144.724 151.626 144.68 151.608 144.64C151.591 144.6 151.564 144.564 151.531 144.535C151.449 144.463 151.373 144.451 151.282 144.503L151.275 144.511L150.065 144.979L150.014 145L149.841 144.85L152.791 141.446L152.848 141.463L153.581 141.675C153.649 141.695 153.745 141.706 153.856 141.578C153.938 141.484 153.948 141.373 153.898 141.225L152.02 138.18L150.757 139.828L149.941 140.77L149.868 140.634L148.804 138.459C147.017 140.484 144.622 142.372 141.67 144.067L141.779 144.36C143.47 144.092 145.118 143.602 146.681 142.903L146.743 142.878L147.526 143.557L144.938 146.543L144.873 146.519L140.892 144.95L140.014 147.637C139.968 147.782 139.99 147.893 140.103 147.991C140.156 148.037 140.293 148.076 140.623 148C140.932 147.925 141.269 147.886 141.64 147.892L143.411 148.062L143.611 148.083L141 151.096L139.288 152.942C139.147 153.09 139.079 153.229 139.084 153.352C139.092 153.458 139.148 153.553 139.261 153.65C139.498 153.856 139.946 154.085 140.593 154.343C141.214 154.585 141.649 154.532 141.931 154.184L143.438 152.239L146.806 148.352L146.845 148.307ZM147.194 142.715L147.073 142.61L147.224 142.543C147.279 142.518 147.559 142.332 148.786 141.372L148.83 141.344L148.881 141.354L149.172 141.436L149.331 141.481L147.807 143.24L147.197 142.711M160.084 149.038C160.082 148.998 160.071 148.958 160.053 148.922C160.034 148.885 160.009 148.853 159.978 148.827C159.902 148.762 159.809 148.747 159.696 148.787L159.685 148.791L158.01 149.12L157.957 149.127L156.899 148.21L158.573 146.278L158.627 146.292L159.383 146.439C159.429 146.446 159.507 146.448 159.592 146.35C159.68 146.248 159.688 146.11 159.622 145.934L157.808 143.044L156.177 145.079L154.937 146.51L152.026 143.987L152.111 144.938C152.52 145.106 152.903 145.329 153.25 145.602L154.663 146.826L152.502 149.319L149.271 146.519L149.274 147.445C149.75 147.627 150.194 147.887 150.586 148.213L153.818 151.013L153.766 151.087L152.864 152.356L151.983 153.373L151.922 153.451L146.951 149.144L146.978 150.018C147.427 150.214 147.841 150.481 148.204 150.81L151.631 153.78L148.123 157.828C148.041 157.922 147.943 157.975 147.823 157.984C147.64 157.997 147.435 157.898 147.191 157.686C146.886 157.422 146.354 156.803 145.569 155.799L145.284 156.067C145.553 156.465 145.789 156.9 145.968 157.378C146.174 157.9 146.247 158.273 146.208 158.523C146.172 158.755 145.931 159.186 145.497 159.832L146.852 160.353C147.011 160.412 147.419 160.489 148.051 160.582C148.339 160.632 148.635 160.603 148.908 160.498C149.181 160.392 149.419 160.215 149.598 159.983L153.544 155.43L153.619 155.496L156.307 157.819C156.326 157.835 156.356 157.861 156.388 157.855C156.409 157.854 156.435 157.831 156.455 157.808C156.504 157.752 156.54 157.671 156.562 157.571L156.332 155.196C156.315 155.063 156.277 154.97 156.216 154.918C156.122 154.836 156.012 154.819 155.877 154.861L154.308 155.453L154.257 155.475L153.831 155.106L154.709 154.093L154.766 154.103C155.502 154.213 155.619 154.123 155.635 154.104C155.678 154.055 155.692 154.001 155.621 153.908L153.835 151.351L153.787 151.283L153.934 151.114L158.732 155.271C158.777 155.31 158.817 155.325 158.845 155.323C158.863 155.325 158.887 155.306 158.909 155.28C158.942 155.242 158.966 155.184 158.975 155.106L158.688 152.582C158.675 152.502 158.632 152.429 158.568 152.379C158.5 152.32 158.407 152.306 158.275 152.337L156.438 152.676L156.389 152.687L154.461 151.016L156.618 148.527L156.693 148.592L160.025 151.473C160.195 151.62 160.247 151.56 160.27 151.533C160.314 151.479 160.338 151.411 160.338 151.341L160.088 149.042" fill="#E72C21"/>
<path d="M158.508 151.119C158.604 151.057 158.64 150.975 158.622 150.844L157.763 147.629C157.507 147.847 157.204 148.077 156.842 148.315C156.426 148.589 156.124 148.801 155.935 148.94L149.526 153.07L147.229 154.446C147.116 154.519 147.041 154.596 147.019 154.681C146.996 154.774 147.032 154.886 147.111 155.008C147.124 155.029 147.26 155.149 148.103 155.815C148.713 156.294 149.181 156.414 149.496 156.176L151.294 154.908L157.124 151.149C157.488 150.915 157.871 150.912 158.268 151.142L158.256 151.133C158.296 151.152 158.34 151.161 158.384 151.158C158.428 151.156 158.471 151.142 158.508 151.119ZM149.036 151.976L149.065 151.957L149.107 151.966L150.002 152.208C150.108 152.234 150.193 152.227 150.251 152.19C150.319 152.146 150.356 152.075 150.37 151.977L150.613 149.784C150.615 149.671 150.579 149.56 150.511 149.469C150.428 149.34 150.33 149.26 150.22 149.237L148.529 148.854L148.487 148.845L147.657 147.554L147.591 147.46L147.693 147.407L148.877 146.77L148.93 146.742L148.978 146.77L149.646 147.147C149.753 147.202 149.836 147.202 149.92 147.148C150.033 147.076 150.07 146.975 150.028 146.818L149.333 144.327L149.312 144.258L149.786 143.953L151.687 146.902L151.743 146.99L150.528 147.771C150.452 147.819 150.415 147.873 150.401 147.924C150.386 147.992 150.412 148.07 150.481 148.168C150.578 148.319 150.866 148.602 151.338 149.004C151.609 149.272 151.92 149.498 152.259 149.673C152.38 149.714 152.482 149.696 152.567 149.617L152.58 149.609L153.962 148.644L155.862 147.417C156.365 147.094 156.807 147.053 157.176 147.295C157.225 147.306 157.275 147.307 157.324 147.298C157.373 147.289 157.42 147.27 157.462 147.242C157.545 147.188 157.601 147.117 157.626 147.018L157.816 144.734C157.823 144.652 157.789 144.544 157.711 144.422C157.63 144.296 157.526 144.227 157.397 144.21L155.717 143.855L155.675 143.853L154.223 141.593L154.22 141.571L153.681 138.263C153.28 138.55 152.685 138.962 151.884 139.513L148.997 141.38L146.851 142.658C146.755 142.72 146.691 142.779 146.678 142.841C146.67 142.893 146.69 142.951 146.726 143.017C146.898 143.285 147.249 143.664 147.776 144.143L147.871 144.236L146.454 145.147C145.154 145.982 143.638 146.571 141.943 146.884C140.284 147.187 138.563 147.155 136.84 146.788L136.7 147.168C140.434 148.702 143.934 148.857 147.112 147.626L147.189 147.6L148.321 149.361L148.384 149.45L148.287 149.501C147.226 150.1 146.082 150.687 144.887 151.253C143.064 152.112 142.882 152.116 142.811 152.114C142.627 152.114 142.456 152.005 142.31 151.778C142.1 151.451 141.8 150.625 141.404 149.28L141.091 149.31C141.195 150.31 141.14 150.99 140.92 151.375C140.709 151.747 140.342 152.089 139.833 152.393C140.187 152.835 140.525 153.222 140.84 153.546C141.177 153.887 141.544 154.172 141.944 154.389C142.296 154.59 142.699 154.685 143.104 154.663C143.493 154.632 144.26 154.352 145.38 153.827C146.52 153.296 147.748 152.673 149.04 151.973M150.226 143.67L153.545 141.525L153.629 141.471L153.683 141.555L155.537 144.422L155.59 144.505L152.179 146.709L152.095 146.763L152.042 146.68L150.192 143.811L150.138 143.727L150.222 143.673M161.91 149.785C161.554 150.144 160.97 150.627 160.13 151.237L148.076 159.008C147.72 159.237 147.394 159.173 147.163 158.813C146.899 158.402 146.519 157.58 146.033 156.382L145.669 156.497C145.913 157.347 146.025 158.028 145.996 158.508C145.965 159.014 145.481 159.597 144.553 160.282C146.202 161.853 147.658 162.256 148.874 161.475L161.322 153.451C161.686 153.217 162.058 153.233 162.441 153.496L162.419 153.481C162.555 153.535 162.66 153.533 162.759 153.475C162.843 153.421 162.87 153.344 162.85 153.239L161.91 149.785Z" fill="#E72C21"/>
<path d="M155.968 156.454L154.055 155.494L154.013 155.475L151.441 146.716L150.876 147.443C151.263 147.964 151.553 148.551 151.732 149.175L152.782 152.751L144.778 155.102C144.52 155.177 144.306 155.173 144.139 155.082C143.998 155.009 143.901 154.871 143.844 154.68C143.655 153.686 143.505 152.686 143.395 151.68L143.07 151.687C142.975 153.699 142.257 154.969 140.933 155.467C142 157.418 143.15 158.239 144.353 157.88L153.5 155.195L154.631 159.048C154.683 159.225 154.74 159.276 154.772 159.298C154.784 159.305 154.802 159.31 154.835 159.3C154.883 159.286 154.952 159.24 155.038 159.09L156.177 157.026C156.251 156.89 156.276 156.779 156.254 156.702C156.23 156.621 156.132 156.536 155.963 156.455M160.562 153.547C160.531 153.442 160.454 153.355 160.316 153.292L158.38 152.484L158.334 152.467L156.479 146.15L155.982 146.935C156.331 147.404 156.583 147.937 156.723 148.504L158.848 155.738C158.947 156.078 159.048 156.173 159.097 156.2C159.108 156.206 159.119 156.21 159.131 156.211C159.143 156.212 159.155 156.21 159.167 156.205C159.205 156.194 159.293 156.142 159.43 155.936L160.487 153.912C160.565 153.769 160.596 153.646 160.562 153.547ZM148.499 146.567C148.992 146.422 149.408 146.565 149.753 146.998C149.888 147.192 149.985 147.169 150.017 147.155C150.084 147.135 150.137 147.067 150.171 146.954L150.398 145.833L150.427 145.72L150.545 145.769C151.297 146.067 151.778 146.237 151.972 146.295L151.983 146.297L151.989 146.3C152.606 146.597 152.982 146.959 153.104 147.375C153.156 147.552 153.246 147.573 153.36 147.539C153.461 147.509 153.533 147.421 153.578 147.272L154.481 143.979L154.517 143.855L154.627 143.911C156.042 144.627 156.843 145.233 157.079 145.787C157.14 145.977 157.225 145.968 157.302 145.945C157.402 145.916 157.482 145.799 157.541 145.594L158.472 142.485C154.944 142.072 152.191 141.203 150.257 139.907L150.039 140.277C151.283 141.527 152.659 142.638 154.143 143.59L154.227 143.644L154.178 143.726L154.154 143.785L154.117 143.837L154.054 143.835C150.457 143.664 146.936 142.741 143.718 141.126L143.454 141.463C144.727 142.652 145.882 143.544 146.9 144.107L147.116 144.226L141.182 145.968L138.682 146.614C138.604 146.631 138.543 146.67 138.509 146.732C138.447 146.839 138.454 147.039 138.529 147.297C138.656 147.728 138.903 148.164 139.272 148.606C139.725 149.159 139.943 149.193 140.029 149.168L142.293 148.389L148.504 146.565" fill="#E72C21"/>
<path d="M151.814 149.766L151.624 149.716L151.774 149.586L152.736 148.779C152.82 148.704 152.86 148.63 152.86 148.54C152.86 148.47 152.84 148.415 152.8 148.38L151.53 147.558L151.241 147.369H151.59L156.264 147.364H156.363V147.464L156.368 150.11C156.368 150.169 156.378 150.209 156.398 150.229C156.408 150.239 156.433 150.249 156.463 150.249C156.524 150.243 156.581 150.219 156.628 150.179L158.651 148.261C158.686 148.231 158.705 148.161 158.705 148.062C158.705 147.962 158.676 147.892 158.591 147.837L156.822 146.432L156.782 146.402V146.352L156.777 139.889L156.079 140.437C156.264 141.12 156.358 141.593 156.358 141.872L156.363 144.778V144.882H156.264L145.565 144.892H145.485L145.465 144.813L145.311 144.125L145.286 144H145.415L151.674 143.99C151.973 143.99 152.212 144.095 152.387 144.299C152.511 144.454 152.636 144.538 152.736 144.538C152.81 144.538 152.82 144.504 152.83 144.489L153.877 141.429L151.734 141.509L145.047 141.519H144.962L144.947 141.429L144.673 139.575L141.982 140.771C141.534 140.97 141.504 141.09 141.504 141.12C141.504 141.16 141.529 141.269 141.788 141.474C142.007 141.648 142.161 141.783 142.246 141.882C142.306 141.952 142.435 142.151 142.894 143.128C143.318 144.057 143.72 144.996 144.1 145.944L146.213 151.266L146.661 151.156L145.874 147.498L145.844 147.374H145.974L150.922 147.369H151.021V147.469L151.026 149.462V149.596L150.897 149.556C149.655 149.166 148.435 148.707 147.244 148.181L147.095 148.4C148.078 149.44 149.192 150.347 150.409 151.101L150.458 151.126V151.325L150.359 151.33C148.246 151.53 146.716 151.809 145.814 152.163L145.759 152.183L145.709 152.148C143.176 150.177 141.195 147.585 139.959 144.623L139.71 144.743C140.656 148.739 142.077 151.719 143.94 153.578L144.025 153.663L143.925 153.732C142.617 154.688 141.421 155.79 140.362 157.016C140.929 157.375 141.399 157.867 141.732 158.449C142.066 159.031 142.252 159.685 142.276 160.355L142.605 160.425C143.442 157.903 144.479 156.084 145.68 155.023L145.729 154.973L145.799 155.013C147.389 155.91 149.427 156.543 151.859 156.892H151.864L151.874 156.897C152.277 157.031 152.621 157.355 152.895 157.863L152.905 157.883V157.903C152.93 158.103 153.01 158.128 153.104 158.128C153.144 158.128 153.209 158.113 153.274 158.008L153.648 157.056L153.672 156.991H153.932V157.091L153.937 159.792C153.937 159.941 153.996 159.951 154.066 159.951C154.121 159.951 154.176 159.921 154.231 159.862L156.239 157.669C156.311 157.596 156.352 157.498 156.353 157.395C156.353 157.28 156.309 157.206 156.219 157.161L156.214 157.156L156.204 157.151L154.39 155.785L154.35 155.756V153.045L154.485 153.095C154.604 153.139 155.177 153.284 156.189 153.533C157.225 153.787 157.818 153.942 157.998 154.006C158.202 154.076 158.372 154.256 158.506 154.54C158.606 154.749 158.705 154.864 158.79 154.864C158.87 154.864 158.94 154.814 159.019 154.709L160.285 151.261C157.428 150.973 154.597 150.473 151.814 149.766ZM153.827 154.51C151.286 154.425 149.312 154.171 147.977 153.762L147.802 153.712L147.937 153.588C148.61 153.015 149.835 152.452 151.585 151.918L151.624 151.904L151.659 151.923C152.384 152.276 153.122 152.602 153.872 152.9L153.937 152.925V154.51H153.832" fill="#E72C21"/>
<path d="M148.612 154.739L148.582 154.7L148.841 153.815L148.859 153.789L150.648 151.853L149.745 151.639L149.54 151.595L149.706 151.472L151.306 150.161C151.366 150.113 151.41 150.048 151.434 149.975C151.457 149.893 151.443 149.837 151.387 149.779L151.384 149.773L151.379 149.772L150.43 148.527L150.401 148.487L150.7 147.469L150.721 147.449L152.83 145.342L150.844 144.821L147.339 143.792L144.805 142.959C144.709 142.931 144.633 142.925 144.584 142.952C144.534 142.979 144.498 143.03 144.476 143.107C144.406 143.346 144.35 143.818 144.312 144.497C144.271 145.129 144.389 145.491 144.652 145.568L146.038 145.975L145.697 147.137L144.975 146.925L143.95 146.578C143.869 146.554 143.802 146.55 143.753 146.577C143.691 146.611 143.64 146.694 143.605 146.814C143.573 146.924 143.541 147.21 143.578 147.969C143.609 148.783 143.677 148.975 143.707 149.015C143.733 149.058 143.769 149.094 143.811 149.121C143.854 149.148 143.902 149.165 143.952 149.17L143.962 149.173L145.857 149.635L148.85 150.514L148.867 150.561L149.177 151.327L149.26 151.523L145.401 150.39L143.154 149.642C143.074 149.613 142.972 149.588 142.901 149.619C142.863 149.644 142.829 149.687 142.808 149.758C142.741 149.988 142.71 150.306 142.71 150.711C142.704 151.022 142.735 151.333 142.802 151.637C142.853 151.818 142.94 151.926 143.079 151.967L144.184 152.291L143.849 153.429L143.027 153.188C142.831 153.13 142.726 153.188 142.662 153.387C142.63 153.497 142.598 153.784 142.631 154.5C142.67 155.254 142.73 155.474 142.768 155.537C142.817 155.635 142.905 155.692 143.044 155.712L144.459 156.06L147.012 156.809L147.023 156.859L147.242 157.547C147.269 157.633 147.321 157.684 147.402 157.708C147.455 157.724 147.535 157.716 147.627 157.686C147.722 157.61 149.497 156.339 149.497 156.339C149.556 156.293 149.599 156.229 149.618 156.157C149.631 156.114 149.64 156.049 149.564 155.954L148.612 154.739ZM146.198 147.289L146.092 147.259L146.12 147.163L146.409 146.198L146.437 146.103L146.534 146.126L150.273 147.224L149.932 148.386L149.836 148.358L146.198 147.289ZM148.387 153.63L148.081 154.672L144.251 153.547L144.585 152.409L148.42 153.535L148.392 153.631M155.68 155.802C155.719 155.668 155.715 155.558 155.664 155.465L154.791 153.983L154.766 153.944L155.668 150.87L155.682 150.859L157.664 148.407L155.786 147.939L153.955 147.401L152.162 146.787C152.06 146.746 151.977 146.743 151.928 146.77C151.886 146.789 151.858 146.832 151.838 146.899C151.789 147.067 151.739 147.519 151.691 148.248C151.664 148.713 151.697 149.289 152.027 149.386L152.415 149.499L151.283 153.353L151.186 153.33L150.397 153.098C150.306 153.071 150.229 153.069 150.178 153.101C150.116 153.135 150.077 153.196 150.053 153.298C150.017 153.402 149.986 153.684 150.004 154.437C150.013 155.219 150.072 155.444 150.106 155.505C150.136 155.557 150.177 155.602 150.226 155.638C150.274 155.673 150.329 155.699 150.388 155.713L151.353 155.929L153.016 156.417L153.035 156.459L153.355 157.192C153.393 157.276 153.45 157.329 153.522 157.35C153.584 157.368 153.659 157.359 153.738 157.32L155.445 156.107C155.555 156.035 155.638 155.928 155.68 155.802ZM154.251 154.23L151.698 153.48L152.801 149.722L152.824 149.625L155.378 150.374L154.247 154.223M158.924 143.568L146.239 139.844C145.761 139.703 145.467 139.305 145.375 138.665C145.356 138.551 145.307 138.49 145.211 138.462C145.097 138.428 145.044 138.465 145.011 138.507L145.002 138.52L144.988 138.531L142.832 139.809C142.755 139.859 142.698 139.946 142.66 140.076C142.609 140.248 142.64 140.407 142.76 140.567L142.767 140.579L143.49 142.023L143.511 142.06L139.194 156.763C139.149 156.916 139.202 156.962 139.308 156.993C139.334 157.002 139.362 157.005 139.389 157.003C139.417 157 139.444 156.992 139.468 156.978L141.72 155.624C141.759 155.606 141.793 155.579 141.821 155.546C141.849 155.513 141.869 155.474 141.88 155.432C141.901 155.361 141.874 155.275 141.806 155.187L140.64 153.464L140.61 153.424L144.008 141.853L144.105 141.876L158.932 146.23L154.803 160.292C154.752 160.464 154.814 160.482 154.857 160.495C154.881 160.502 154.938 160.503 155.069 160.447L157.486 159.023C157.581 158.967 157.641 158.902 157.655 158.839C157.68 158.753 157.659 158.663 157.582 158.557L156.33 156.699L156.305 156.661L159.18 146.869L159.189 146.856L161.372 144.199L158.924 143.568Z" fill="#E72C21"/>
</g>
<defs>
<clipPath id="clip0_180_2254">
<rect width="300" height="300" fill="white"/>
</clipPath>
</defs>
</svg>
