<svg width="300" height="300" viewBox="0 0 300 300" fill="none" xmlns="http://www.w3.org/2000/svg">
<path d="M263.996 2V159.641C263.996 166.694 261.677 241.222 149.972 297.687C38.3192 241.222 36 166.694 36 159.641V2H264H263.996Z" fill="#00005C"/>
<path d="M138.637 33.3791L139.082 32.9541L139.334 33.5915L138.637 33.3791Z" fill="#806600" stroke="#806600" stroke-width="0.356247"/>
<path d="M169.441 222.918C160.844 222.364 160.702 222.464 158.25 221.788C157.106 221.472 155.652 221.093 155.501 221.031C155.35 220.969 154.856 220.834 154.616 220.804C154.375 220.775 153.616 220.546 153.543 220.467C153.47 220.387 166.567 188.804 182.281 150.588L210.816 81.1898L210.151 79.5258C209.268 77.3149 208.415 75.9926 206.984 74.9681C206.626 74.7119 206.239 74.4594 205.82 74.2434C205.401 74.0274 204.942 73.8726 204.455 73.6986C203.969 73.5245 203.463 73.4202 202.901 73.2899C202.339 73.1597 201.717 73.0928 201.088 72.9343L200.2 72.7106L200.897 72.0063C201.508 71.3884 202.656 70.721 203.368 70.7149C204.312 70.7068 210.245 71.97 212.573 72.6454C215.532 73.504 218.786 75.0523 221.482 77.1629L223.817 78.8233L224.226 80.5605C224.857 83.2394 225.192 84.3546 224.414 86.0589C224.067 86.8205 214.474 116.846 202.567 152.828C190.661 188.81 180.562 219.42 180.078 220.902C179.297 223.294 179.387 223.833 179.037 223.816C178.82 223.806 174.413 223.238 169.441 222.918Z" fill="#F3AE00"/>
<path d="M108.773 66.9948C111.498 63.1047 117.571 55.7369 120.962 51.5011C122.658 49.1836 124.544 46.9353 126.384 44.709C126.493 44.8123 126.745 44.9923 126.844 45.0891L118.165 56.0489C109.91 66.4741 109.645 67.148 109.549 67.1454C109.336 67.1013 108.98 67.0477 108.773 66.9948Z" fill="#F3AE00"/>
<path d="M124.696 243.666C122.129 243.112 121.64 242.381 118.946 237.899L118.508 237.36L117.98 237.91C116.65 239.295 113.44 239.582 111.214 238.959C108.758 238.271 106.966 234.763 107.151 232.514C107.404 229.448 110.355 227.644 113.214 228.177C114.463 228.41 116.272 230.007 116.817 231.398C117.26 232.529 117.29 232.912 116.797 233.59C116.518 233.975 115.855 234.469 115.285 234.658C114.366 234.964 113.757 235.005 112.435 234.553C111.03 234.073 110.723 233.908 110.727 234.361C110.729 234.668 112.419 235.092 113.555 235.264C114.847 235.459 116.44 234.981 117.16 234.05C117.873 233.128 116.963 230.561 116.887 230.499C116.432 230.129 115.244 227.875 113.185 224.381C111.117 220.87 108.287 216.258 105.408 211.273L94.9482 193.16L93.3377 193.209C91.6664 193.261 90.6257 192.201 90.6195 191.479C90.617 191.21 90.8784 190.506 91.2293 190.082C92.0143 189.133 91.9931 189.324 91.192 188.389C90.3729 187.433 90.4871 187.015 91.3139 186.015C91.6901 185.56 92.0604 185.062 91.9867 184.811C91.9149 184.567 90.6025 182.289 89.7902 179.744C86.4295 169.218 84.9395 160.169 83.6618 150.314C82.6311 142.364 83.6106 129.305 85.2132 119.693C88.058 102.631 95.6456 86.2921 104.757 74.8696C105.365 74.1075 106.055 73.4244 106.054 73.3148C106.053 73.2052 105.657 72.9046 105.37 72.5466C104.751 71.7734 104.517 70.957 105.046 70.5098C105.58 70.0597 105.481 69.15 105.22 69.0969L104.502 68.951L105.114 67.9719C105.588 67.2122 106.853 67.2481 108.995 67.5733C109.8 67.6954 109.724 67.5265 118.188 56.7136C122.911 50.6806 127.076 45.397 127.171 45.3684C127.267 45.3397 130.76 48.4822 134.428 52.1081L141.225 58.8266L138.538 61.2701C119.551 78.539 105.636 102.68 102.941 125.003C102.179 131.313 102.347 140.141 103.308 146.39C105.197 158.67 109.435 170.064 117.873 188.002L120.106 192.339L125.749 198.54C128.871 201.97 132.371 205.843 133.566 207.224L135.853 209.866L133.529 212.603C125.591 221.955 121.701 230.45 120.908 235.398C120.36 238.826 121.474 240.836 124.14 241.871C129.929 244.12 140.095 239.174 154.945 226.467C156.682 224.981 159.558 222.338 159.62 222.399C159.683 222.461 160.522 222.331 159.27 223.595C156.135 226.759 152.881 229.68 149.738 232.253C146.595 234.826 143.501 237.056 140.563 238.852C137.625 240.647 133.16 242.956 132.326 242.839C130.383 244.096 125.916 243.926 124.696 243.666Z" fill="#F3AE00"/>
<path d="M128.187 200.671C124.041 196.044 120.191 191.737 120.16 191.65C120.13 191.563 131.833 174.278 145.863 152.924C168.536 118.416 172.966 111.833 185.358 93.9118C193.027 82.8213 199.514 73.3718 199.616 73.2326C200.589 71.9051 207.593 74.7873 207.679 76.1614C207.689 76.3369 136.243 209.041 135.925 209.365C135.85 209.441 132.333 205.297 128.187 200.671Z" fill="#F3AE00"/>
<path d="M113.603 227.962L110.801 223.344C107.557 217.999 105.293 214.107 102.621 209.635C99.9484 205.162 97.3081 199.998 95.1874 196.075L93.8008 193.706L94.3395 193.657C94.2915 193.685 94.7232 193.511 94.8677 193.91C94.8839 193.929 99.8769 202.492 104.869 211.058C109.861 219.624 114.963 228.384 114.974 228.413C114.798 228.402 113.868 227.967 113.603 227.962Z" fill="#F3AE00"/>
<path d="M125.55 241.902C122.838 241.505 121.675 239.817 121.254 237.32C120.502 232.866 124.294 224.721 131.522 215.551C133.164 213.467 136.173 210.181 136.268 210.181C136.292 210.18 140.249 212.571 144.83 215.51L153.09 220.809L155.965 221.624C157.437 222.041 158.764 222.363 158.764 222.407C158.766 222.634 150.231 229.841 147.16 232.187C137.886 239.273 131.203 242.666 126.776 242.02L125.55 241.902Z" fill="#F3AE00"/>
<path d="M144.777 214.939C140.34 212.144 136.326 209.884 136.348 209.776C136.396 209.536 207.713 76.6556 207.911 76.4349C208.102 76.2228 209.078 77.9263 209.637 79.7495L210.233 81.2448L181.803 150.521C166.161 188.636 153.272 220.161 153.178 220.185C153.083 220.21 149.213 217.735 144.777 214.939Z" fill="#C37B24"/>
<path d="M221.47 76.3306C216.384 73.11 213.288 71.9497 207.166 70.8426L203.949 70.261L205.325 67.998C206.003 66.8841 206.696 65.8518 206.727 65.8168C206.819 65.7133 210.748 66.4233 212.525 66.8145C213.429 67.0136 214.966 67.4608 215.82 67.7502C217.507 68.3211 222.765 70.848 222.867 71.1504C222.944 71.3765 223.675 77.9557 223.632 77.9979C223.616 78.0143 222.856 77.3242 221.965 76.6807L221.47 76.3306Z" fill="#FFCC00"/>
<path d="M119.411 37.7369L119.254 35.2096L138.582 21.7236L140.239 23.3833" fill="#F3AE00"/>
<path d="M119.411 37.7369L119.254 35.2096L138.582 21.7236L140.239 23.3833" stroke="#C37B24" stroke-width="0.641244"/>
<path d="M173.637 68.3267C173.637 68.3267 173.729 68.2903 173.857 68.2892C173.985 68.2525 174.281 68.2143 174.512 68.1767C174.743 68.1391 174.939 68.1018 174.943 68.1374C174.979 68.1371 174.656 68.3179 174.496 68.3549C174.226 68.4285 173.669 68.3976 173.637 68.3267Z" fill="#B0B0B0"/>
<path d="M207.768 65.7185C207.131 63.3378 204.079 60.6929 201.414 60.787C200.506 60.8305 199.688 61.4429 197.946 62.3839C196.768 63.0351 195.523 63.6869 194.235 64.3034C191.655 65.5721 188.893 66.7711 186.111 67.8278C183.33 68.8845 180.53 69.8346 177.874 70.5341C175.214 71.2336 172.699 71.6826 170.484 71.8797C167.442 72.0483 164.491 71.6819 161.716 70.9578C156.166 69.5097 151.32 66.7021 147.883 63.9893L141.305 58.7036L119.578 37.735L140.339 23.5244C141.35 25.0472 142.904 27.1707 144.807 29.6118C146.713 32.0172 148.963 34.7046 151.367 37.3907C153.774 40.0411 156.33 42.6547 158.841 44.9124C163.318 49.219 168.786 51.7719 174.72 51.8634C177.279 51.877 179.577 51.4299 181.82 50.8051C186.31 49.5201 190.583 47.4533 196.325 46.6561C202.514 45.6769 207.848 46.4502 212.372 48.7619C214.634 49.8822 216.693 51.4315 218.556 53.3387C224.515 60.5173 225.112 63.2189 223.034 70.9652" fill="#F3AE00"/>
<path d="M207.768 65.7185C207.131 63.3378 204.079 60.6929 201.414 60.787C200.506 60.8305 199.688 61.4429 197.946 62.3839C196.768 63.0351 195.523 63.6869 194.235 64.3034C191.655 65.5721 188.893 66.7711 186.111 67.8278C183.33 68.8845 180.53 69.8346 177.874 70.5341C175.214 71.2336 172.699 71.6826 170.484 71.8797C167.442 72.0483 164.491 71.6819 161.716 70.9578C156.166 69.5097 151.32 66.7021 147.883 63.9893L141.305 58.7036L119.578 37.735L140.339 23.5244C141.35 25.0472 142.904 27.1707 144.807 29.6118C146.713 32.0172 148.963 34.7046 151.367 37.3907C153.774 40.0411 156.33 42.6547 158.841 44.9124C163.318 49.219 168.786 51.7719 174.72 51.8634C177.279 51.877 179.577 51.4299 181.82 50.8051C186.31 49.5201 190.583 47.4533 196.325 46.6561C202.514 45.6769 207.848 46.4502 212.372 48.7619C214.634 49.8822 216.693 51.4315 218.556 53.3387C224.515 60.5173 225.112 63.2189 223.034 70.9652" stroke="#C37B24" stroke-width="0.641244"/>
<path d="M203.461 70.457C216.391 72.5896 218.041 74.2493 224.023 78.6498L223.062 70.9652C216.433 67.1402 213.908 66.5564 206.598 65.5508L203.461 70.457Z" fill="#F3AE00" stroke="#C37B24" stroke-width="0.641244"/>
<path d="M160.551 222.545C152.63 230.199 134.801 247.554 123.362 243.485C122.528 243.065 121.893 242.572 121.353 242.007C120.278 240.876 119.588 239.422 118.476 237.722C117.05 239.337 114.257 239.788 112.25 239.378C111.083 239.139 109.952 238.614 109.058 237.767C107.309 235.824 106.495 233.124 107.413 230.944C107.857 229.942 108.638 229.152 109.581 228.61C111.475 227.561 114.027 227.61 115.855 229.589L94.7524 193.372C90.7608 193.762 88.9464 191.641 91.6947 189.231C89.7787 187.716 90.1442 186.716 91.7272 185.135C86.9924 172.034 83.986 158.526 83.2244 145.391C82.9998 124.665 86.7362 106.22 95.4616 88.9785C98.4438 83.1121 101.926 77.8112 105.679 73.2914C103.997 71.5964 104.179 70.8469 105.367 69.7683C105.299 69.3058 104.216 69.3152 104.291 68.9584C104.366 68.566 104.514 68.2798 104.721 67.9931C106.07 66.4857 107.989 67.1815 109.674 67.4163L127.147 45.0781" stroke="#C37B24" stroke-width="0.641244"/>
<path d="M133.015 42.749L130.082 43.5934C132.34 45.9601 134.567 48.3272 136.814 50.6585C139.061 52.9541 141.329 55.214 143.678 57.3307C146.023 59.4475 148.446 61.4211 150.998 63.1443C153.554 64.9031 156.236 66.3758 159.104 67.5621C168.101 70.2628 173.133 69.4004 181.113 67.0525C188.472 64.4962 196.164 60.5837 202.13 57.3271L200.304 55.0635C190.881 59.988 183.16 64.2569 174.045 66.0448C165.481 67.6854 157.774 64.5463 150.932 59.5477C144.093 54.5492 138.116 47.8694 133.015 42.749Z" stroke="#C37B24" stroke-width="0.641244"/>
<path d="M141.516 58.916C131.571 67.4066 121.894 78.8152 116.106 88.7303C108.182 101.798 103.592 115.015 102.614 129.305C102.159 136.503 102.685 143.372 104.008 150.163C106.655 163.709 112.503 176.908 120.126 191.872L120.366 191.621L171.601 113.647L199.792 72.9106C207.114 73.9161 208.61 75.5415 210.509 81.2948C210.615 81.1871 210.31 80.976 210.577 81.3655M224.68 86.0523C225.286 83.5185 225.3 83.5183 223.947 78.3302" stroke="#C37B24" stroke-width="0.641244"/>
<path d="M203.719 70.3477C201.627 70.7218 200.825 71.5478 199.719 73.0175" stroke="#C37B24" stroke-width="0.641244"/>
<path d="M224.711 85.9092L179.075 223.917L160.086 222.513" stroke="#C37B24" stroke-width="0.641244"/>
<path d="M110.723 234.085C111.78 234.753 113.084 235.204 114.274 235.158C116.471 234.89 117.877 233.454 117.167 231.679C116.868 230.934 116.334 230.155 115.765 229.447" stroke="#C37B24" stroke-width="0.641244"/>
<path d="M210.592 81.0449L153.297 220.506" stroke="#C37B24" stroke-width="1.17561"/>
<path d="M136.082 209.721L207.799 76.0117Z" fill="#F3AE00"/>
<path d="M136.082 209.721L207.799 76.0117" stroke="#C37B24" stroke-width="0.854993"/>
<path d="M136.182 209.826L120.242 192.049" stroke="#C37B24" stroke-width="0.641244"/>
<path d="M126.287 44.373C120.17 52.0472 113.984 59.5438 108.375 67.0711" stroke="#C37B24" stroke-width="0.641244"/>
<path d="M93.25 193.242C99.9061 205.152 106.59 216.562 113.572 228.184" stroke="#C37B24" stroke-width="0.641244"/>
<path d="M91.3022 189.565L95.2543 188.106C101.607 185.914 99.5792 179.659 99.8539 173.887C100.895 182.212 103.54 185.724 98.4646 191.039C97.7072 191.651 96.6882 192.505 94.8316 193.341" stroke="#C37B24" stroke-width="0.641244"/>
<path d="M91.8223 185.121C92.9035 185.29 94.255 185.283 95.4074 185.024C99.3709 183.85 98.295 177.68 97.9904 174.584C97.7147 171.951 97.2073 169.409 96.7418 166.67C95.2696 159.988 94.1901 153.301 93.6527 146.753C93.1153 140.204 93.1124 133.758 93.8214 127.519C94.6264 119.606 95.8528 113.964 97.6462 108.677C99.1585 103.856 101.137 99.7347 103.148 95.7641C103.649 94.7626 104.158 93.7922 104.659 92.7907C105.161 91.8248 105.639 90.8412 106.126 89.8398C106.609 88.8385 107.093 87.7926 107.547 86.7558C110.312 80.0721 111.003 74.902 105.492 73.0618" stroke="#C37B24" stroke-width="0.641244"/>
<path d="M109.656 67.414C114.155 69.7259 114.206 72.4456 113.28 76.9766C112.941 78.5822 112.419 80.2116 111.784 81.8197C111.146 83.3923 110.399 84.9747 109.642 86.5126C108.885 88.0149 108.108 89.4684 107.407 90.8278C102.912 98.951 99.2574 107.33 97.3974 115.644C92.0438 136.667 96.4368 155.599 99.952 174.409" stroke="#C37B24" stroke-width="0.641244"/>
<path d="M104.383 69.04C106.305 69.629 107.818 70.4351 108.814 71.495C113.47 75.8712 111.002 79.2714 110.465 84.7251" stroke="#C37B24" stroke-width="0.641244"/>
<path d="M127.625 30.8046L125.625 28.5029L120.273 32.2938L122.273 34.5955L127.625 30.8046Z" fill="#F3AE00" stroke="#C37B24" stroke-width="0.64282" stroke-linecap="square"/>
<path d="M136.473 24.8364L134.441 22.498L129.253 26.1734L131.284 28.5118L136.473 24.8364Z" fill="#F3AE00" stroke="#C37B24" stroke-width="0.64282" stroke-linecap="square"/>
<path d="M83.2891 143.28L93.3834 143.817" stroke="#C37B24" stroke-width="0.641244"/>
<path d="M86.3161 166.834L96.4238 166.324" stroke="#C37B24" stroke-width="0.641244"/>
<path d="M86.8868 168.077L96.8159 167.524" stroke="#C37B24" stroke-width="0.641244"/>
<path d="M93.2712 144.063L84.1212 152.333L95.5978 160.782" stroke="#C37B24" stroke-width="0.641244"/>
<path d="M86.6299 166.651L94.9917 157.386" stroke="#C37B24" stroke-width="0.641244"/>
<path d="M85.4147 162.653L94.2407 152.962" stroke="#C37B24" stroke-width="0.712494"/>
<path d="M96.2344 164.873L84.6501 156.848L93.7986 148.4" stroke="#C37B24" stroke-width="0.641244"/>
<path d="M94.6688 156.027L83.6205 148.175L88.9495 143.655" stroke="#C37B24" stroke-width="0.641244"/>
<path d="M93.9028 150.089L83.2656 143.414" stroke="#C37B24" stroke-width="0.641244"/>
<path d="M84.9922 160.478L91.6785 166.163L95.5069 160.677" stroke="#C37B24" stroke-width="0.641244"/>
<path d="M87.457 110.023L96.3201 112.418" stroke="#C37B24" stroke-width="0.641244"/>
<path d="M87.0664 111.451L95.8851 113.868" stroke="#C37B24" stroke-width="0.641244"/>
<path d="M95.6016 89.1338L104.739 92.3051" stroke="#C37B24" stroke-width="0.641244"/>
<path d="M88.5665 109.831L98.2239 106.164L91.8227 97.3819L99.0597 94.5818L104.676 92.4189" stroke="#C37B24" stroke-width="0.641244"/>
<path d="M93.1439 111.392L88.8853 105.708L99.8787 102.008L95.6173 95.99L93.6333 93.2024L100.317 90.7855" stroke="#C37B24" stroke-width="0.641244"/>
<path d="M102.883 96.2856L90.4711 100.755" stroke="#C37B24" stroke-width="0.641244"/>
<path d="M97.0304 109.694L90.5156 100.646" stroke="#C37B24" stroke-width="0.641244"/>
<path d="M92.9651 111.467L97.0472 109.584" stroke="#C37B24" stroke-width="0.53437"/>
<path d="M88.7456 109.945L87.8008 108.862" stroke="#C37B24" stroke-width="0.641244"/>
<path d="M101.72 98.564L95.3594 89.292" stroke="#C37B24" stroke-width="0.641244"/>
<path d="M103.359 95.1002L100.25 91.0312" stroke="#C37B24" stroke-width="0.641244"/>
<path d="M85.5351 117.231C91.5398 119.28 95.0841 117.545 95.6375 113.515" stroke="#C37B24" stroke-width="0.641244"/>
<path d="M89.3628 119.447C91.7352 119.747 93.9692 119.073 95.2719 117.638" stroke="#C37B24" stroke-width="0.641244"/>
<path d="M85.9815 117.362C95.133 120.24 92.3713 136.521 83.6341 137.06" stroke="#C37B24" stroke-width="0.641244"/>
<path d="M84.3906 136.925C90.7419 137.013 93.6003 139.837 92.7577 143.798" stroke="#C37B24" stroke-width="0.641244"/>
<path d="M87.2305 135.854C89.6578 135.905 92.2777 137.418 93.2723 139.119" stroke="#C37B24" stroke-width="0.641244"/>
<path d="M178.955 155.766L140.375 205.139" stroke="#F3AE00" stroke-width="0.641244"/>
<path d="M169.358 151.483L154.902 211.71" stroke="#F3AE00" stroke-width="0.641244"/>
<path d="M181.676 149.158C179.629 154.027 175.788 157.203 173.096 156.251C170.404 155.299 169.881 150.58 171.927 145.711C173.974 140.841 177.815 137.665 180.507 138.617C183.199 139.569 183.722 144.288 181.676 149.158Z" fill="#C37B24" stroke="#F3AE00" stroke-width="0.641784" stroke-linecap="square"/>
<path d="M172.828 156.253L149.328 205.24" stroke="#F3AE00" stroke-width="0.641244"/>
<path d="M169.213 179.069L156.246 191.184L156.795 173.758L170.026 162.11L169.066 179.297" stroke="#F3AE00" stroke-width="0.641244"/>
<path d="M180.653 148.822C178.972 152.867 175.87 155.526 173.724 154.761C171.578 153.995 171.201 150.095 172.882 146.049C174.563 142.003 177.665 139.344 179.811 140.11C181.957 140.876 182.333 144.776 180.653 148.822Z" fill="#C37B24" stroke="#F3AE00" stroke-width="0.641662" stroke-linecap="square"/>
<path d="M174.504 145.38L179.773 147.719" stroke="#F3AE00" stroke-width="0.641244"/>
<path d="M184.861 130.107L176.691 138.227C182.005 134.548 183.22 135.677 183.744 140.695L184.861 130.107Z" stroke="#F3AE00" stroke-width="0.641244"/>
<path d="M185.576 138.685L191.368 116.482L177.496 135.264" stroke="#F3AE00" stroke-width="0.641244"/>
<path d="M150.706 218.892C153.88 216.387 154.076 211.759 151.144 208.555C148.213 205.35 143.264 204.782 140.09 207.286C138.967 208.173 138.172 209.372 137.805 210.737" stroke="#F3AE00" stroke-width="0.642096" stroke-linecap="square"/>
<path d="M144.484 214.753L153.115 214.501" stroke="#F3AE00" stroke-width="0.854993"/>
<path d="M151.522 209.246L144.703 214.457" stroke="#F3AE00" stroke-width="0.641244"/>
<path d="M140.414 204.996C148.898 203.142 151.981 206.143 154.984 211.424" stroke="#F3AE00" stroke-width="0.641244"/>
<path d="M195.662 113.375C195.267 114.693 193.821 115.453 192.433 115.072C191.045 114.691 190.24 113.314 190.636 111.996C191.031 110.677 192.477 109.917 193.865 110.298C195.253 110.679 196.057 112.057 195.662 113.375Z" fill="#C37B24" stroke="#F3AE00" stroke-width="0.641333" stroke-linecap="square"/>
<path d="M194.269 112.992C194.105 113.538 193.47 113.843 192.85 113.673C192.23 113.503 191.86 112.922 192.024 112.376C192.187 111.83 192.823 111.525 193.443 111.695C194.063 111.865 194.433 112.446 194.269 112.992Z" fill="#C37B24" stroke="#F3AE00" stroke-width="0.641333" stroke-linecap="square"/>
<path d="M208.873 78.5791L192.762 108.707" stroke="#F3AE00" stroke-width="0.641244"/>
<path d="M208.91 78.6328L196.742 110.07" stroke="#F3AE00" stroke-width="0.641244"/>
<path d="M208.121 80.3535L194.723 109.331" stroke="#F3AE00" stroke-width="0.641244"/>
<path d="M195.706 150.505C195.31 151.824 193.776 152.56 192.278 152.15C190.781 151.739 189.888 150.336 190.284 149.017C190.679 147.698 192.214 146.962 193.711 147.373C195.208 147.784 196.101 149.186 195.706 150.505Z" fill="#F3AE00" stroke="#C37B24" stroke-width="0.641333" stroke-linecap="square"/>
<path d="M170.941 223.024C171.035 221.33 169.28 219.744 167.02 219.482C164.761 219.221 162.852 220.382 162.758 222.077C162.752 222.175 162.753 222.274 162.76 222.373" stroke="#C37B24" stroke-width="0.641251" stroke-linecap="square"/>
<path d="M198.681 164.773L156.562 213.063" stroke="#C37B24" stroke-width="0.641244"/>
<path d="M207.304 89.1357L206.723 109.833" stroke="#C37B24" stroke-width="0.712494"/>
<path d="M222.267 93.2461L208.426 110.211" stroke="#C37B24" stroke-width="0.641244"/>
<path d="M218.349 93.8492L209.215 105.431L210.181 90.9277C213.999 94.3852 213.629 93.6761 218.349 93.8492Z" stroke="#C37B24" stroke-width="0.641244"/>
<path d="M206.5 118.276L208.547 134.761" stroke="#C37B24" stroke-width="0.641244"/>
<path d="M205.68 143.335L203.536 121.187L186.742 139.029" stroke="#C37B24" stroke-width="0.641244"/>
<path d="M202.935 117.061L190.406 130.118" stroke="#C37B24" stroke-width="0.641244"/>
<path d="M182.414 149.824L183.532 210.534" stroke="#C37B24" stroke-width="0.641244"/>
<path d="M173.814 210.213C173.418 211.534 171.881 212.271 170.382 211.86C168.882 211.448 167.988 210.044 168.384 208.723C168.78 207.402 170.317 206.665 171.817 207.076C173.316 207.488 174.21 208.892 173.814 210.213Z" fill="#F3AE00" stroke="#C37B24" stroke-width="0.641339" stroke-linecap="square"/>
<path d="M179.199 157.416L180.329 218.787" stroke="#C37B24" stroke-width="0.641244"/>
<path d="M201.242 156.892L160.035 204.079" stroke="#C37B24" stroke-width="0.641244"/>
<path d="M189.921 189.745C189.192 192.176 186.716 193.629 184.39 192.991C182.065 192.353 180.771 189.865 181.5 187.434C182.229 185.003 184.705 183.55 187.031 184.188C189.356 184.826 190.65 187.314 189.921 189.745Z" fill="#F3AE00" stroke="#C37B24" stroke-width="0.641333" stroke-linecap="square"/>
<path d="M188.297 189.299C187.862 190.747 186.354 191.603 184.928 191.212C183.502 190.821 182.698 189.33 183.132 187.882C183.566 186.434 185.074 185.578 186.5 185.969C187.927 186.361 188.731 187.852 188.297 189.299Z" fill="#F3AE00" stroke="#C37B24" stroke-width="0.641333" stroke-linecap="square"/>
<path d="M176.941 186.101C176.212 188.532 173.735 189.986 171.41 189.348C169.085 188.709 167.791 186.221 168.52 183.79C169.249 181.359 171.725 179.906 174.05 180.544C176.376 181.182 177.67 183.67 176.941 186.101Z" fill="#F3AE00" stroke="#C37B24" stroke-width="0.641333" stroke-linecap="square"/>
<path d="M175.312 185.652C174.878 187.1 173.37 187.956 171.944 187.564C170.517 187.173 169.713 185.682 170.147 184.235C170.582 182.787 172.09 181.931 173.516 182.322C174.942 182.713 175.747 184.204 175.312 185.652Z" fill="#F3AE00" stroke="#C37B24" stroke-width="0.641333" stroke-linecap="square"/>
<path d="M224.677 85.5092C223.7 88.7667 219.734 90.5365 215.82 89.4622C211.905 88.3879 209.523 84.8763 210.501 81.6188C211.478 78.3614 215.443 76.5916 219.358 77.6659C223.272 78.7402 225.654 82.2518 224.677 85.5092Z" fill="#F3AE00" stroke="#C37B24" stroke-width="0.641333" stroke-linecap="square"/>
<path d="M219.856 84.2299C219.543 85.274 218.303 85.8499 217.087 85.5162C215.871 85.1825 215.139 84.0656 215.452 83.0214C215.766 81.9773 217.005 81.4014 218.221 81.7351C219.437 82.0688 220.169 83.1857 219.856 84.2299Z" fill="#F3AE00" stroke="#C37B24" stroke-width="0.855111" stroke-linecap="square"/>
<path d="M218.75 88.0004C218.437 89.0445 217.198 89.6204 215.982 89.2868C214.766 88.9531 214.034 87.8361 214.347 86.792C214.66 85.7478 215.9 85.1719 217.116 85.5056C218.332 85.8393 219.064 86.9562 218.75 88.0004Z" fill="#F3AE00" stroke="#C37B24" stroke-width="0.641333" stroke-linecap="square"/>
<path d="M224.247 85.4242C223.933 86.4684 222.694 87.0443 221.478 86.7106C220.262 86.3769 219.53 85.2599 219.843 84.2158C220.156 83.1716 221.396 82.5957 222.612 82.9294C223.828 83.2631 224.56 84.3801 224.247 85.4242Z" fill="#F3AE00" stroke="#C37B24" stroke-width="0.641333" stroke-linecap="square"/>
<path d="M215.301 82.9906C214.988 84.0348 213.748 84.6107 212.532 84.277C211.316 83.9433 210.585 82.8263 210.898 81.7822C211.211 80.738 212.451 80.1621 213.667 80.4958C214.883 80.8295 215.614 81.9465 215.301 82.9906Z" fill="#F3AE00" stroke="#C37B24" stroke-width="0.641333" stroke-linecap="square"/>
<path d="M220.989 80.3803C220.676 81.4244 219.436 82.0003 218.22 81.6666C217.004 81.3329 216.272 80.216 216.585 79.1718C216.898 78.1277 218.138 77.5518 219.354 77.8855C220.57 78.2192 221.302 79.3361 220.989 80.3803Z" fill="#F3AE00" stroke="#C37B24" stroke-width="0.641333" stroke-linecap="square"/>
<path d="M183.695 187.614C182.965 190.045 180.489 191.498 178.164 190.86C175.838 190.222 174.544 187.734 175.274 185.303C176.003 182.872 178.479 181.419 180.804 182.057C183.13 182.695 184.424 185.183 183.695 187.614Z" fill="#F3AE00" stroke="#C37B24" stroke-width="0.641333" stroke-linecap="square"/>
<path d="M182.07 187.169C181.636 188.616 180.128 189.472 178.701 189.081C177.275 188.69 176.471 187.199 176.905 185.751C177.339 184.303 178.848 183.447 180.274 183.839C181.7 184.23 182.504 185.721 182.07 187.169Z" fill="#F3AE00" stroke="#C37B24" stroke-width="0.641333" stroke-linecap="square"/>
<path d="M172.205 216.93C171.905 218.597 170.052 219.603 168.065 219.178C166.078 218.754 164.709 217.058 165.009 215.392C165.308 213.726 167.162 212.719 169.149 213.144C171.136 213.569 172.504 215.264 172.205 216.93Z" fill="#F3AE00" stroke="#C37B24" stroke-width="0.641423" stroke-linecap="square"/>
<path d="M178.624 223.552C178.728 221.894 177.111 220.36 175.011 220.126C172.912 219.892 171.125 221.046 171.021 222.704C171.015 222.801 171.015 222.897 171.02 222.994" stroke="#C37B24" stroke-width="0.641251" stroke-linecap="square"/>
<path d="M162.153 222.17C162.56 220.41 161.098 218.547 158.887 218.008C156.676 217.47 154.554 218.459 154.147 220.219C154.131 220.287 154.119 220.356 154.108 220.425" stroke="#C37B24" stroke-width="0.645045" stroke-linecap="square"/>
<path d="M155.109 216.16C162.724 209.434 176.53 211.488 179.805 221.86" stroke="#C37B24" stroke-width="0.64125"/>
<path d="M184.59 144.321C187.41 141.162 189.78 140.75 192.123 140.552C193.608 132.953 203.705 136.748 200.005 143.262C201.927 144.67 203.173 147.064 203.551 149.982" stroke="#C37B24" stroke-width="0.641244"/>
<path d="M182.813 148.574C182.789 151.103 183.37 153.627 186.082 156.132C182.017 162.471 192.784 166.723 193.985 158.913C197.737 158.846 199.837 157.414 201.883 155.046" stroke="#C37B24" stroke-width="0.641244"/>
<path d="M201.342 152.043C200.105 156.165 195.436 158.499 190.913 157.258C186.39 156.017 183.725 151.669 184.961 147.548C186.197 143.426 190.866 141.091 195.39 142.333C199.913 143.574 202.578 147.921 201.342 152.043Z" stroke="#C37B24" stroke-width="0.641333" stroke-linecap="square"/>
<path d="M190.839 148.938C190.443 150.257 188.908 150.993 187.411 150.582C185.914 150.171 185.021 148.769 185.416 147.45C185.812 146.131 187.347 145.395 188.844 145.806C190.341 146.216 191.234 147.619 190.839 148.938Z" fill="#F3AE00" stroke="#C37B24" stroke-width="0.641333" stroke-linecap="square"/>
<path d="M197.253 145.973C196.857 147.292 195.323 148.028 193.825 147.617C192.328 147.206 191.435 145.804 191.831 144.485C192.226 143.166 193.761 142.43 195.258 142.841C196.755 143.252 197.648 144.654 197.253 145.973Z" fill="#F3AE00" stroke="#C37B24" stroke-width="0.641333" stroke-linecap="square"/>
<path d="M200.87 152.206C200.474 153.525 198.94 154.262 197.442 153.851C195.945 153.44 195.052 152.037 195.448 150.718C195.843 149.399 197.378 148.663 198.875 149.074C200.372 149.485 201.265 150.887 200.87 152.206Z" fill="#F3AE00" stroke="#C37B24" stroke-width="0.641333" stroke-linecap="square"/>
<path d="M193.999 155.004C193.603 156.323 192.069 157.059 190.571 156.649C189.074 156.238 188.181 154.835 188.577 153.516C188.972 152.197 190.507 151.461 192.004 151.872C193.501 152.283 194.394 153.685 193.999 155.004Z" fill="#F3AE00" stroke="#C37B24" stroke-width="0.641333" stroke-linecap="square"/>
<path d="M198.815 140.492C199.275 139.425 198.763 138.195 197.67 137.746C196.577 137.297 195.318 137.798 194.857 138.866C194.397 139.933 194.909 141.163 196.002 141.612C197.095 142.061 198.354 141.56 198.815 140.492Z" fill="#F3AE00" stroke="#C37B24" stroke-width="0.641293" stroke-linecap="square"/>
<path d="M191.178 160.645C191.639 159.577 191.126 158.348 190.033 157.899C188.94 157.449 187.681 157.951 187.221 159.018C186.76 160.086 187.273 161.315 188.365 161.764C189.458 162.213 190.718 161.712 191.178 160.645Z" fill="#F3AE00" stroke="#C37B24" stroke-width="0.641293" stroke-linecap="square"/>
<path d="M215.94 91.7647C215.727 92.5085 214.939 92.935 214.179 92.7171C213.42 92.4992 212.976 91.7196 213.189 90.9758C213.402 90.2319 214.19 89.8055 214.95 90.0234C215.709 90.2412 216.153 91.0208 215.94 91.7647Z" fill="#F3AE00" stroke="#C37B24" stroke-width="0.641245" stroke-linecap="square"/>
<path d="M213.506 116.57C213.194 117.616 212.072 118.224 210.999 117.929C209.927 117.633 209.311 116.545 209.623 115.499C209.935 114.453 211.057 113.845 212.129 114.141C213.202 114.436 213.818 115.524 213.506 116.57Z" fill="#F3AE00" stroke="#C37B24" stroke-width="0.641315" stroke-linecap="square"/>
<path d="M199.387 107.902C201.901 107.311 203.696 108.435 204.679 110.029C206.75 109.263 208.705 109.923 209.954 112.192C212.707 111.527 214.173 112.135 215.418 114.368" stroke="#C37B24" stroke-width="0.641244"/>
<path d="M197.07 113.977C198.532 116.101 200.637 116.403 202.443 115.889C203.486 117.803 205.388 118.571 207.854 117.695C209.477 119.996 211.043 120.481 213.48 119.641" stroke="#C37B24" stroke-width="0.641244"/>
<path d="M208.084 114.362C207.772 115.408 206.65 116.016 205.578 115.721C204.505 115.425 203.889 114.337 204.201 113.291C204.513 112.245 205.635 111.637 206.707 111.933C207.78 112.228 208.396 113.316 208.084 114.362Z" fill="#F3AE00" stroke="#C37B24" stroke-width="0.641315" stroke-linecap="square"/>
<path d="M202.975 112.546C202.663 113.592 201.541 114.201 200.468 113.905C199.396 113.61 198.779 112.522 199.091 111.476C199.403 110.43 200.526 109.822 201.598 110.117C202.67 110.413 203.287 111.5 202.975 112.546Z" fill="#F3AE00" stroke="#C37B24" stroke-width="0.641315" stroke-linecap="square"/>
<path d="M133.571 63.4972C132.461 67.1973 128.159 69.2632 123.963 68.1116C119.766 66.9599 117.264 63.0267 118.373 59.3266C119.483 55.6265 123.785 53.5606 127.981 54.7123C132.178 55.8639 134.68 59.7971 133.571 63.4972Z" fill="#F3AE00" stroke="#C37B24" stroke-width="0.641334" stroke-linecap="square"/>
<path d="M131.443 62.9201C130.681 65.4621 127.627 66.8542 124.622 66.0295C121.617 65.2048 119.799 62.4756 120.561 59.9337C121.323 57.3917 124.378 55.9996 127.383 56.8243C130.388 57.649 132.206 60.3782 131.443 62.9201Z" fill="#F3AE00" stroke="#C37B24" stroke-width="0.641334" stroke-linecap="square"/>
<path d="M117.223 200.153C116.113 203.853 111.812 205.919 107.615 204.767C103.418 203.616 100.916 199.683 102.026 195.983C103.136 192.283 107.437 190.217 111.634 191.369C115.83 192.52 118.333 196.453 117.223 200.153Z" fill="#F3AE00" stroke="#C37B24" stroke-width="0.641334" stroke-linecap="square"/>
<path d="M115.072 199.576C114.31 202.118 111.256 203.51 108.251 202.685C105.246 201.861 103.428 199.132 104.19 196.59C104.952 194.048 108.006 192.656 111.011 193.481C114.017 194.305 115.835 197.034 115.072 199.576Z" fill="#F3AE00" stroke="#C37B24" stroke-width="0.641334" stroke-linecap="square"/>
<path d="M223.263 69.3707C217.49 67.3191 216.15 63.6311 217.097 59.3848C213.339 57.9212 211.35 55.5121 210.781 52.739C205.44 54.1382 201.294 51.3959 200.254 48.5557L195.944 49.7724" stroke="#C37B24" stroke-width="0.641244"/>
<path d="M144.209 35.233C143.95 36.1167 143.006 36.6282 142.101 36.3754C141.196 36.1227 140.673 35.2015 140.933 34.3178C141.192 33.4341 142.136 32.9227 143.04 33.1754C143.945 33.4281 144.468 34.3494 144.209 35.233Z" fill="#F3AE00" stroke="#C37B24" stroke-width="0.534393" stroke-linecap="square"/>
<path d="M207.705 49.6481C207.462 50.4765 206.578 50.956 205.729 50.7191C204.881 50.4822 204.391 49.6185 204.634 48.7901C204.877 47.9616 205.762 47.4821 206.61 47.7191C207.458 47.956 207.949 48.8197 207.705 49.6481Z" fill="#F3AE00" stroke="#C37B24" stroke-width="0.641272" stroke-linecap="square"/>
<path d="M138.266 33.2344C139.9 36.8174 141.971 38.7184 146.362 37.1492L151.103 41.9833C148.329 47.1356 153.578 49.174 156.23 47.5486L162.887 52.4329C161.814 56.9652 166.542 58.3804 168.992 55.2964L175.937 54.8584C178.643 57.3994 182.85 57.1139 183.786 53.1883" stroke="#C37B24" stroke-width="0.641244"/>
<path d="M183.576 53.4848L190.899 50.3723C194.421 51.3393 195.099 51.467 196.238 49.5696" stroke="#C37B24" stroke-width="0.641244"/>
<path d="M194.862 51.0007C194.257 52.3949 194.058 54.0126 194.211 55.614L186.227 59.5557C181.839 56.9935 178.81 58.4085 177.681 63.0125L167.09 64.2833C165.194 59.6696 161.297 59.2668 157.665 61.2925L149.711 55.7737C150.985 51.8451 148.135 48.7355 143.157 49.9536L138.038 45.3008C139.491 41.0502 138.575 39.4821 134.027 37.2775L138.447 33.1883" stroke="#C37B24" stroke-width="0.641244"/>
<path d="M137.82 35.7989C139.913 38.4164 141.588 39.5951 145.797 38.8466L149.235 42.3118C147.299 47.1364 151.442 50.5688 155.844 49.3557L161.156 53.2277C161.206 59.0325 167.41 59.5491 169.629 56.8945L175.283 56.4898C176.441 57.299 177.776 57.746 178.993 57.9493C177.453 59.1734 176.751 60.9602 176.419 61.7109L168.008 62.6736C165.428 58.9918 162.826 57.9012 157.691 59.5124L151.506 55.2249C151.79 49.2392 147.685 47.7697 143.674 48.3028L139.79 44.7524C141.085 40.4319 138.613 38.2495 136.472 37.057L137.82 35.7989Z" fill="#F3AE00" stroke="#C37B24" stroke-width="0.641244"/>
<path d="M183.358 56.8932C184.257 56.1019 184.97 54.6267 185.008 54.5195L190.866 51.9761C191.234 52.0442 191.635 52.1921 192.83 52.3599C192.671 52.9312 192.551 53.4709 192.405 54.7899L186.195 57.8705C185.647 57.519 184.289 57.0276 183.358 56.8932Z" fill="#F3AE00" stroke="#C37B24" stroke-width="0.53437"/>
<path d="M200.523 46.126C202.212 52.2372 207.224 52.5503 211.683 51.3723C212.196 55.0363 214.538 57.7006 218.761 58.5903C216.6 62.9539 219.418 67.1946 223.52 68.1209" stroke="#C37B24" stroke-width="0.641244"/>
<path d="M217.526 54.9518C217.283 55.7803 216.398 56.2598 215.55 56.0228C214.702 55.7859 214.211 54.9222 214.454 54.0938C214.697 53.2653 215.582 52.7858 216.43 53.0228C217.278 53.2597 217.769 54.1234 217.526 54.9518Z" fill="#F3AE00" stroke="#C37B24" stroke-width="0.641272" stroke-linecap="square"/>
<path d="M222.588 63.4811C222.345 64.3096 221.46 64.7891 220.612 64.5521C219.764 64.3152 219.274 63.4515 219.517 62.6231C219.76 61.7946 220.645 61.3151 221.493 61.5521C222.341 61.789 222.831 62.6527 222.588 63.4811Z" fill="#F3AE00" stroke="#C37B24" stroke-width="0.641272" stroke-linecap="square"/>
<path d="M137.162 41.8395C136.903 42.7232 135.959 43.2346 135.054 42.9819C134.15 42.7291 133.626 41.8079 133.886 40.9242C134.145 40.0406 135.089 39.5291 135.994 39.7818C136.898 40.0346 137.421 40.9558 137.162 41.8395Z" fill="#F3AE00" stroke="#C37B24" stroke-width="0.534393" stroke-linecap="square"/>
<path d="M155.006 45.6276C154.746 46.5112 153.803 47.0227 152.898 46.77C151.993 46.5172 151.47 45.596 151.73 44.7123C151.989 43.8287 152.933 43.3172 153.837 43.5699C154.742 43.8227 155.265 44.7439 155.006 45.6276Z" fill="#F3AE00" stroke="#C37B24" stroke-width="0.534393" stroke-linecap="square"/>
<path d="M148.416 53.1881C148.157 54.0718 147.213 54.5833 146.308 54.3305C145.404 54.0778 144.88 53.1565 145.14 52.2729C145.399 51.3892 146.343 50.8777 147.247 51.1305C148.152 51.3832 148.675 52.3045 148.416 53.1881Z" fill="#F3AE00" stroke="#C37B24" stroke-width="0.534393" stroke-linecap="square"/>
<path d="M167.42 54.65C167.16 55.5337 166.217 56.0452 165.312 55.7924C164.407 55.5397 163.884 54.6185 164.144 53.7348C164.403 52.8511 165.347 52.3397 166.251 52.5924C167.156 52.8451 167.679 53.7664 167.42 54.65Z" fill="#F3AE00" stroke="#C37B24" stroke-width="0.534393" stroke-linecap="square"/>
<path d="M164.201 63.317C163.942 64.2007 162.998 64.7122 162.093 64.4594C161.189 64.2067 160.666 63.2854 160.925 62.4018C161.184 61.5181 162.128 61.0066 163.033 61.2594C163.937 61.5121 164.46 62.4334 164.201 63.317Z" fill="#F3AE00" stroke="#C37B24" stroke-width="0.534393" stroke-linecap="square"/>
<path d="M181.713 54.3268C181.453 55.2105 180.51 55.7219 179.605 55.4692C178.7 55.2164 178.177 54.2952 178.437 53.4115C178.696 52.5279 179.64 52.0164 180.544 52.2692C181.449 52.5219 181.972 53.4431 181.713 54.3268Z" fill="#F3AE00" stroke="#C37B24" stroke-width="0.534393" stroke-linecap="square"/>
<path d="M198.873 53.4C198.614 54.2837 197.67 54.7952 196.765 54.5424C195.861 54.2897 195.337 53.3685 195.597 52.4848C195.856 51.6011 196.8 51.0897 197.705 51.3424C198.609 51.5951 199.132 52.5164 198.873 53.4Z" fill="#F3AE00" stroke="#C37B24" stroke-width="0.534393" stroke-linecap="square"/>
<path d="M183.689 61.3688C183.43 62.2525 182.486 62.7639 181.582 62.5112C180.677 62.2584 180.154 61.3372 180.413 60.4535C180.673 59.5699 181.616 59.0584 182.521 59.3111C183.426 59.5639 183.949 60.4851 183.689 61.3688Z" fill="#F3AE00" stroke="#C37B24" stroke-width="0.534393" stroke-linecap="square"/>
<path d="M134.658 182.061L121.195 193Z" fill="#FFCC00"/>
<path d="M134.658 182.061L121.195 193" stroke="#C37B24" stroke-width="0.641244"/>
<path d="M121.172 193.001L130.006 202.897C133.745 197.166 127.291 190.989 121.172 193.001Z" fill="#F3AE00" stroke="#C37B24" stroke-width="0.641244"/>
<path d="M135.034 187.761L129.035 194.678Z" fill="#FFCC00"/>
<path d="M135.034 187.761L129.035 194.678" stroke="#C37B24" stroke-width="0.641244"/>
<path d="M133.871 199.408L131.246 204.132Z" fill="#FFCC00"/>
<path d="M133.871 199.408L131.246 204.132" stroke="#C37B24" stroke-width="0.641244"/>
<path d="M122.352 194.379L128.865 201.695C131.633 197.469 126.875 192.844 122.352 194.379Z" fill="#F3AE00" stroke="#C37B24" stroke-width="0.641244"/>
<path d="M134.885 46.0654L136.516 198.446L134.61 199.299L132.945 45.2178L134.885 46.0654Z" fill="white"/>
<path d="M140.172 51.5279L141.974 188.296L140.07 189.065L138.23 50.7705L140.172 51.5279Z" fill="white"/>
<path d="M145.841 56.4864L147.11 179.251L145.202 179.935L143.902 55.7998L145.841 56.4864Z" fill="white"/>
<path d="M151.426 61.0848L152.544 169.709L150.635 170.311L149.488 60.4746L151.426 61.0848Z" fill="white"/>
<path d="M156.188 63.9907L156.739 160.879L154.827 161.405L154.254 63.4346L156.188 63.9907Z" fill="white"/>
<path d="M199.682 57.6591L200.535 81.888L198.625 82.0004L197.746 57.501L199.682 57.6591Z" fill="white"/>
<path d="M195.186 60.0174L196.039 89.3161L194.129 89.4521L193.25 59.8262L195.186 60.0174Z" fill="white"/>
<path d="M190.118 62.2553L191.387 98.8325L189.479 99.0362L188.18 62.0508L190.118 62.2553Z" fill="white"/>
<path d="M185.079 64.2712L186.348 107.519L184.44 107.76L183.141 64.0293L185.079 64.2712Z" fill="white"/>
<path d="M179.944 66.1038L181.578 115.834L179.672 116.125L178.004 65.8398L179.944 66.1038Z" fill="white"/>
<path d="M175.266 67.4104L176.535 125.245L174.628 125.567L173.328 67.0869L175.266 67.4104Z" fill="white"/>
<path d="M170.497 68.087L171.766 134.283L169.858 134.651L168.559 67.7168L170.497 68.087Z" fill="white"/>
<path d="M165.817 67.5982L167.086 142.955L165.178 143.375L163.879 67.1768L165.817 67.5982Z" fill="white"/>
<path d="M161.051 66.5344L162.321 152.654L160.413 153.133L159.113 66.0527L161.051 66.5344Z" fill="white"/>
<path d="M140.873 51.7411C140.63 52.5523 139.757 53.0246 138.924 52.7959C138.091 52.5673 137.613 51.7243 137.856 50.9131C138.1 50.1019 138.972 49.6297 139.805 49.8583C140.638 50.0869 141.117 50.9299 140.873 51.7411Z" fill="#F3AE00" stroke="#C37B24" stroke-width="0.641334" stroke-linecap="square"/>
<path d="M146.35 56.8602C146.107 57.6714 145.234 58.1437 144.401 57.9151C143.568 57.6864 143.09 56.8435 143.333 56.0323C143.576 55.2211 144.449 54.7488 145.282 54.9775C146.115 55.2061 146.593 56.049 146.35 56.8602Z" fill="#F3AE00" stroke="#C37B24" stroke-width="0.641334" stroke-linecap="square"/>
<path d="M151.869 61.3329C151.626 62.1441 150.753 62.6164 149.92 62.3877C149.087 62.1591 148.609 61.3161 148.852 60.5049C149.096 59.6937 149.968 59.2215 150.801 59.4501C151.635 59.6787 152.113 60.5217 151.869 61.3329Z" fill="#F3AE00" stroke="#C37B24" stroke-width="0.641334" stroke-linecap="square"/>
<path d="M156.682 64.4091C156.439 65.2203 155.566 65.6925 154.733 65.4639C153.9 65.2353 153.422 64.3923 153.665 63.5811C153.908 62.7699 154.781 62.2976 155.614 62.5263C156.447 62.7549 156.925 63.5979 156.682 64.4091Z" fill="#F3AE00" stroke="#C37B24" stroke-width="0.641334" stroke-linecap="square"/>
<path d="M161.576 66.6376C161.333 67.4488 160.461 67.921 159.627 67.6924C158.794 67.4638 158.316 66.6208 158.559 65.8096C158.803 64.9984 159.675 64.5262 160.508 64.7548C161.342 64.9834 161.82 65.8264 161.576 66.6376Z" fill="#F3AE00" stroke="#C37B24" stroke-width="0.641334" stroke-linecap="square"/>
<path d="M166.264 67.9559C166.021 68.7671 165.148 69.2394 164.315 69.0108C163.482 68.7821 163.004 67.9392 163.247 67.128C163.49 66.3168 164.363 65.8445 165.196 66.0732C166.029 66.3018 166.507 67.1447 166.264 67.9559Z" fill="#F3AE00" stroke="#C37B24" stroke-width="0.641334" stroke-linecap="square"/>
<path d="M170.944 68.3163C170.7 69.1275 169.828 69.5998 168.995 69.3711C168.161 69.1425 167.683 68.2995 167.927 67.4883C168.17 66.6771 169.043 66.2049 169.876 66.4335C170.709 66.6621 171.187 67.5051 170.944 68.3163Z" fill="#F3AE00" stroke="#C37B24" stroke-width="0.641334" stroke-linecap="square"/>
<path d="M175.748 67.8749C175.505 68.6861 174.632 69.1584 173.799 68.9297C172.966 68.7011 172.488 67.8581 172.731 67.0469C172.975 66.2357 173.847 65.7635 174.68 65.9921C175.513 66.2207 175.992 67.0637 175.748 67.8749Z" fill="#F3AE00" stroke="#C37B24" stroke-width="0.641334" stroke-linecap="square"/>
<path d="M180.616 66.6298C180.372 67.441 179.5 67.9132 178.666 67.6846C177.833 67.456 177.355 66.613 177.599 65.8018C177.842 64.9906 178.714 64.5184 179.548 64.747C180.381 64.9756 180.859 65.8186 180.616 66.6298Z" fill="#F3AE00" stroke="#C37B24" stroke-width="0.641334" stroke-linecap="square"/>
<path d="M185.475 64.9628C185.232 65.774 184.359 66.2462 183.526 66.0176C182.693 65.789 182.215 64.946 182.458 64.1348C182.701 63.3236 183.574 62.8514 184.407 63.08C185.24 63.3086 185.718 64.1516 185.475 64.9628Z" fill="#F3AE00" stroke="#C37B24" stroke-width="0.641334" stroke-linecap="square"/>
<path d="M190.58 62.8036C190.337 63.6148 189.464 64.0871 188.631 63.8584C187.798 63.6298 187.32 62.7868 187.563 61.9756C187.807 61.1644 188.679 60.6922 189.512 60.9208C190.346 61.1494 190.824 61.9924 190.58 62.8036Z" fill="#F3AE00" stroke="#C37B24" stroke-width="0.641334" stroke-linecap="square"/>
<path d="M195.545 60.3563C195.302 61.1675 194.429 61.6398 193.596 61.4112C192.763 61.1825 192.285 60.3396 192.528 59.5284C192.772 58.7172 193.644 58.2449 194.477 58.4735C195.31 58.7022 195.789 59.5451 195.545 60.3563Z" fill="#F3AE00" stroke="#C37B24" stroke-width="0.641334" stroke-linecap="square"/>
<path d="M200.045 58.0243C199.802 58.8355 198.929 59.3078 198.096 59.0791C197.263 58.8505 196.785 58.0075 197.028 57.1963C197.272 56.3851 198.144 55.9129 198.977 56.1415C199.81 56.3702 200.289 57.2131 200.045 58.0243Z" fill="#F3AE00" stroke="#C37B24" stroke-width="0.641334" stroke-linecap="square"/>
<path d="M135.28 45.9335C135.036 46.7447 134.164 47.2169 133.331 46.9883C132.497 46.7597 132.019 45.9167 132.263 45.1055C132.506 44.2943 133.379 43.8221 134.212 44.0507C135.045 44.2793 135.523 45.1223 135.28 45.9335Z" fill="#F3AE00" stroke="#C37B24" stroke-width="0.641334" stroke-linecap="square"/>
<path d="M142.522 189.066C142.278 189.877 141.406 190.35 140.573 190.121C139.74 189.892 139.261 189.05 139.505 188.238C139.748 187.427 140.621 186.955 141.454 187.184C142.287 187.412 142.765 188.255 142.522 189.066Z" fill="#F3AE00" stroke="#C37B24" stroke-width="0.641334" stroke-linecap="square"/>
<path d="M147.834 179.914C147.591 180.725 146.718 181.197 145.885 180.969C145.052 180.74 144.574 179.897 144.817 179.086C145.061 178.275 145.933 177.803 146.766 178.031C147.599 178.26 148.078 179.103 147.834 179.914Z" fill="#F3AE00" stroke="#C37B24" stroke-width="0.641334" stroke-linecap="square"/>
<path d="M153.026 170.14C152.782 170.951 151.91 171.423 151.077 171.194C150.244 170.966 149.765 170.123 150.009 169.312C150.252 168.5 151.125 168.028 151.958 168.257C152.791 168.485 153.269 169.328 153.026 170.14Z" fill="#F3AE00" stroke="#C37B24" stroke-width="0.641334" stroke-linecap="square"/>
<path d="M157.717 161.437C157.474 162.249 156.601 162.721 155.768 162.492C154.935 162.264 154.457 161.421 154.7 160.609C154.943 159.798 155.816 159.326 156.649 159.555C157.482 159.783 157.96 160.626 157.717 161.437Z" fill="#F3AE00" stroke="#C37B24" stroke-width="0.641334" stroke-linecap="square"/>
<path d="M162.787 152.999C162.544 153.81 161.671 154.282 160.838 154.054C160.005 153.825 159.527 152.982 159.77 152.171C160.014 151.36 160.886 150.887 161.719 151.116C162.553 151.345 163.031 152.188 162.787 152.999Z" fill="#F3AE00" stroke="#C37B24" stroke-width="0.641334" stroke-linecap="square"/>
<path d="M168.026 143.513C167.782 144.324 166.91 144.796 166.077 144.567C165.244 144.339 164.765 143.496 165.009 142.685C165.252 141.873 166.125 141.401 166.958 141.63C167.791 141.858 168.269 142.701 168.026 143.513Z" fill="#F3AE00" stroke="#C37B24" stroke-width="0.641334" stroke-linecap="square"/>
<path d="M172.631 135.057C172.388 135.868 171.515 136.34 170.682 136.111C169.849 135.883 169.371 135.04 169.614 134.229C169.857 133.417 170.73 132.945 171.563 133.174C172.396 133.402 172.874 134.245 172.631 135.057Z" fill="#F3AE00" stroke="#C37B24" stroke-width="0.641334" stroke-linecap="square"/>
<path d="M177.358 125.642C177.114 126.454 176.242 126.926 175.409 126.697C174.576 126.469 174.097 125.626 174.341 124.815C174.584 124.003 175.457 123.531 176.29 123.76C177.123 123.988 177.601 124.831 177.358 125.642Z" fill="#F3AE00" stroke="#C37B24" stroke-width="0.641334" stroke-linecap="square"/>
<path d="M182.467 116.602C182.224 117.414 181.351 117.886 180.518 117.657C179.685 117.429 179.207 116.586 179.45 115.774C179.693 114.963 180.566 114.491 181.399 114.72C182.232 114.948 182.71 115.791 182.467 116.602Z" fill="#F3AE00" stroke="#C37B24" stroke-width="0.641334" stroke-linecap="square"/>
<path d="M187.073 108.146C186.829 108.958 185.957 109.43 185.124 109.201C184.29 108.973 183.812 108.13 184.056 107.318C184.299 106.507 185.171 106.035 186.005 106.264C186.838 106.492 187.316 107.335 187.073 108.146Z" fill="#F3AE00" stroke="#C37B24" stroke-width="0.641334" stroke-linecap="square"/>
<path d="M192.069 98.952C191.825 99.7632 190.953 100.236 190.12 100.007C189.286 99.7782 188.808 98.9353 189.052 98.1241C189.295 97.3129 190.168 96.8406 191.001 97.0693C191.834 97.2979 192.312 98.1408 192.069 98.952Z" fill="#F3AE00" stroke="#C37B24" stroke-width="0.641334" stroke-linecap="square"/>
<path d="M196.862 89.1796C196.618 89.9908 195.746 90.463 194.913 90.2344C194.079 90.0058 193.601 89.1628 193.845 88.3516C194.088 87.5404 194.961 87.0682 195.794 87.2968C196.627 87.5254 197.105 88.3684 196.862 89.1796Z" fill="#F3AE00" stroke="#C37B24" stroke-width="0.641334" stroke-linecap="square"/>
<path d="M201.119 81.9071C200.876 82.7183 200.003 83.1906 199.17 82.9619C198.337 82.7333 197.859 81.8904 198.102 81.0792C198.346 80.268 199.218 79.7957 200.051 80.0243C200.885 80.253 201.363 81.0959 201.119 81.9071Z" fill="#F3AE00" stroke="#C37B24" stroke-width="0.641334" stroke-linecap="square"/>
<path d="M136.955 199.379C136.712 200.19 135.839 200.662 135.006 200.434C134.173 200.205 133.695 199.362 133.938 198.551C134.182 197.74 135.054 197.267 135.887 197.496C136.721 197.725 137.199 198.568 136.955 199.379Z" fill="#F3AE00" stroke="#C37B24" stroke-width="0.641334" stroke-linecap="square"/>
<path d="M134.141 199.524L136.999 198.494L136.807 198.496" fill="#F3AE00"/>
<path d="M134.141 199.524L136.999 198.494L136.807 198.496" stroke="#C37B24" stroke-width="0.641244"/>
<path d="M139.715 189.21L142.393 188.226L142.201 188.227" fill="#806600"/>
<path d="M139.715 189.21L142.393 188.226L142.201 188.227" stroke="#C37B24" stroke-width="0.641244"/>
<path d="M145.039 180.047L147.718 179.062L147.525 179.064" fill="#806600"/>
<path d="M145.039 180.047L147.718 179.062L147.525 179.064" stroke="#C37B24" stroke-width="0.641244"/>
<path d="M150.246 170.244L152.925 169.26L152.732 169.262" fill="#806600"/>
<path d="M150.246 170.244L152.925 169.26L152.732 169.262" stroke="#C37B24" stroke-width="0.641244"/>
<path d="M154.926 161.479L157.604 160.494L157.412 160.496" fill="#806600"/>
<path d="M154.926 161.479L157.604 160.494L157.412 160.496" stroke="#C37B24" stroke-width="0.641244"/>
<path d="M160.039 153.065L162.718 152.08L162.525 152.082" fill="#806600"/>
<path d="M160.039 153.065L162.718 152.08L162.525 152.082" stroke="#C37B24" stroke-width="0.641244"/>
<path d="M165.254 143.654L167.932 142.669L167.74 142.671" fill="#806600"/>
<path d="M165.254 143.654L167.932 142.669L167.74 142.671" stroke="#C37B24" stroke-width="0.641244"/>
<path d="M169.844 135.209L172.522 134.225L172.33 134.226" fill="#806600"/>
<path d="M169.844 135.209L172.522 134.225L172.33 134.226" stroke="#C37B24" stroke-width="0.641244"/>
<path d="M174.547 125.731L177.225 124.746L177.033 124.748" fill="#F3AE00"/>
<path d="M174.547 125.731L177.225 124.746L177.033 124.748" stroke="#C37B24" stroke-width="0.641244"/>
<path d="M179.777 116.681L182.495 115.69L182.303 115.692" fill="#806600"/>
<path d="M179.777 116.681L182.495 115.69L182.303 115.692" stroke="#C37B24" stroke-width="0.641244"/>
<path d="M184.277 108.303L186.956 107.318L186.764 107.32" fill="#F3AE00"/>
<path d="M184.277 108.303L186.956 107.318L186.764 107.32" stroke="#C37B24" stroke-width="0.641244"/>
<path d="M189.305 99.0354L191.983 98.0508L191.791 98.0526" fill="#806600"/>
<path d="M189.305 99.0354L191.983 98.0508L191.791 98.0526" stroke="#C37B24" stroke-width="0.641244"/>
<path d="M193.918 89.4153L196.597 88.4307L196.404 88.4324" fill="#806600"/>
<path d="M193.918 89.4153L196.597 88.4307L196.404 88.4324" stroke="#C37B24" stroke-width="0.641244"/>
<path d="M198.199 82.0774L200.878 81.0928L200.685 81.0946" fill="#806600"/>
<path d="M198.199 82.0774L200.878 81.0928L200.685 81.0946" stroke="#C37B24" stroke-width="0.641244"/>
<path d="M137.945 33.3321L138.387 32.9033L138.644 33.5386L137.945 33.3321Z" fill="#C37B24" stroke="#C37B24" stroke-width="0.178123"/>
<path d="M156.141 213.612C158.474 212.214 161.155 211.086 165.03 210.885C166.09 201.99 179.061 204.891 175.563 213.782C178.325 215.758 179.539 217.45 180.564 219.753" stroke="#C37B24" stroke-width="0.64125"/>
<path d="M174.293 152.728L179.174 141.922" stroke="#F3AE00" stroke-width="0.641244"/>
<path d="M144.485 214.718L140.521 206.639" stroke="#F3AE00" stroke-width="0.641244"/>
<path d="M145.924 205.702L144.502 214.754" stroke="#F3AE00" stroke-width="0.641244"/>
<path d="M179.945 180.63L179.966 181.665C180.287 181.672 181.846 181.788 182.68 181.926L182.604 177.627L179.945 180.63Z" fill="#F3AE00"/>
<path d="M160.254 222.512L153.199 220.543L136.197 209.897C129.441 217.399 116.303 234.571 122.644 240.856C124.197 242.09 126.329 242.57 129.002 242.191C132.415 241.627 136.319 239.777 140.211 237.322C144.107 234.902 147.994 231.913 151.377 229.106C154.756 226.335 157.635 223.746 159.513 222.127" stroke="#C37B24" stroke-width="0.641244"/>
<path d="M101.961 192.768L109.11 177.475L100.289 169.086L104.788 158.54L96.8918 150.699L101.771 140.779L96.0664 130.569L102.484 122.242L99.6305 110.775L107.477 104.383" stroke="#C37B24" stroke-width="0.641257"/>
<path d="M107.364 104.628L106.894 93.6431L115.801 87.2365L115.283 76.4447L127.572 69.8126C122.892 70.0265 119.938 68.6071 117.575 64.8877L120.492 79.0656L111.454 85.0213L111.185 95.8809L102.634 102.4L104.747 112.242L97.0612 121.437L101.603 130.737L96.0547 141.218L103.217 150.002" stroke="#C37B24" stroke-width="0.641257"/>
<path d="M103.191 149.667L98.3984 159.739L106.795 167.592L102.301 178.848L114.103 190.524C110.105 188.607 104.227 189.724 101.857 192.793" stroke="#C37B24" stroke-width="0.641257"/>
<path d="M85.4177 118.358C93.2927 120.753 91.0308 135.295 83.2734 135.928" stroke="#C37B24" stroke-width="0.609322"/>
</svg>
