<svg width="300" height="300" viewBox="0 0 300 300" fill="none" xmlns="http://www.w3.org/2000/svg">
<path d="M150.5 13C74.5701 13 13 74.5701 13 150.5C13 226.43 74.5701 288 150.5 288C226.43 288 288 226.43 288 150.5C288 74.5701 226.43 13 150.5 13ZM150.5 286.23C75.5537 286.23 14.7704 225.446 14.7704 150.5C14.7704 75.5537 75.5537 14.7704 150.5 14.7704C225.446 14.7704 286.23 75.5537 286.23 150.5C286.23 225.446 225.446 286.23 150.5 286.23Z" fill="#BD8D44"/>
<path d="M269.509 121.387L266.656 126.895C267.148 127.78 267.542 128.763 267.64 129.747L268.23 133.288C268.525 136.927 268.722 136.042 266.46 138.894C264.984 140.763 263.312 142.631 262.132 144.598C260.952 146.566 260.263 146.762 260.263 150.598V150.893C259.968 184.826 244.035 216.791 216.987 237.445C177.842 268.427 122.567 268.427 83.4215 237.544C57.3575 217.578 41.5224 187.088 40.2438 154.237V150.795C40.3422 147.057 40.5389 147.647 38.2767 144.697L37.3915 143.517L32.8672 147.844C33.2606 148.729 33.4573 149.713 33.359 150.696V150.893V153.549C34.5392 190.137 52.8332 224.167 82.7331 245.314V245.412C102.404 259.477 125.911 267.247 150.106 267.444C174.301 267.247 197.808 259.575 217.479 245.412C247.281 224.266 265.575 190.432 266.755 153.942C266.755 153.057 266.853 151.68 266.853 150.795C266.853 147.254 267.148 148.041 269.017 145.287C270.394 143.32 271.869 141.451 273.345 139.484C275.607 136.533 276 137.222 275.312 133.583C274.623 129.452 274.82 130.632 274.23 127.091C273.541 123.354 273.541 124.337 270.394 122.174L269.214 121.387" fill="#BD8D44"/>
<path d="M99.9479 258.199C97.9808 257.313 96.0137 256.33 94.0466 255.346L92.2762 258.494C69.3596 243.74 53.9179 226.43 42.8038 205.185C34.4436 189.547 29.8209 172.237 29.4275 154.434C29.3292 148.73 29.5259 149.615 33.6568 145.582L38.8696 140.566C41.6235 137.911 41.1317 136.632 41.7219 132.796V132.698C42.4104 129.059 43.0005 128.567 41.3284 125.223L40.64 123.944L35.4272 127.387C35.4272 127.977 35.2305 128.665 35.0337 130.534C34.837 132.009 34.7387 132.501 34.542 133.681C33.8535 137.124 34.542 136.435 31.9847 138.894L28.0506 142.73C25.395 145.386 23.3295 146.271 23.1328 150.008V152.271V154.238C23.5262 172.925 27.3621 189.252 37.2959 208.333C49.0985 231.053 72.5069 255.248 96.3088 266.165L99.2594 260.166L99.9479 258.199Z" fill="#BD8D44"/>
<path d="M98.373 268.232L102.209 269.805L103.783 266.068L100.045 264.494L98.373 268.232Z" fill="#BD8D44"/>
<path d="M100.633 262.722L104.37 264.394L106.042 260.657L102.305 259.083L100.633 262.722Z" fill="#BD8D44"/>
<path d="M187.875 264.001L189.252 267.739C180.793 270.296 172.04 271.968 163.286 272.853L162.893 269.312C160.729 269.509 158.565 269.706 156.303 269.804L156.991 278.361H157.581C168.499 277.771 179.318 275.804 189.842 272.656H190.038C192.104 272.066 194.071 271.378 196.136 270.591L196.727 270.394L194.071 262.034C192.006 262.821 189.94 263.608 187.875 264.198" fill="#BD8D44"/>
<path d="M139.878 272.951C131.223 272.066 122.568 270.295 114.208 267.738L115.093 264.001C113.027 263.312 110.962 262.624 108.897 261.837L108.208 263.804L106.143 270.295C116.667 274.131 127.682 276.688 138.895 277.77H139.19C141.452 277.967 143.714 278.164 146.075 278.262V278.065L146.566 269.705C144.403 269.607 142.239 269.41 139.977 269.214L139.878 272.951Z" fill="#BD8D44"/>
<path d="M153.55 269.607H149.518V273.64H153.55V269.607Z" fill="#BD8D44"/>
<path d="M201.545 258.198C203.512 257.313 205.479 256.329 207.446 255.345L208.626 258.493C231.543 243.74 247.575 227.019 258.689 205.775C267.148 189.94 271.672 172.432 272.065 154.532C272.065 151.778 271.967 149.516 269.705 147.352L273.344 142.631C275.803 144.991 278.262 146.565 278.458 150.106V152.368V154.335C278.065 173.022 274.229 189.349 264.295 208.43C252.493 231.15 229.084 255.345 205.282 266.263L202.332 260.263L201.545 258.198Z" fill="#BD8D44"/>
<path d="M203.415 268.232L199.678 269.805L198.006 266.068L201.743 264.494L203.415 268.232Z" fill="#BD8D44"/>
<path d="M201.154 262.722L197.416 264.394L195.744 260.657L199.482 259.083L201.154 262.722Z" fill="#BD8D44"/>
<path d="M150.501 15.8535C76.1443 15.8535 15.9512 76.145 15.9512 150.501C15.9512 224.857 76.2427 285.149 150.599 285.051C224.955 285.051 285.247 224.759 285.247 150.403V150.305C285.148 76.0467 224.857 15.8535 150.501 15.8535ZM150.501 282.002C77.9147 282.002 19.0002 223.087 19.0002 150.501C18.9018 77.817 77.8163 18.9025 150.501 18.9025C223.086 18.9025 282.001 77.7187 282.099 150.403C282.099 222.989 223.185 281.903 150.501 282.002Z" fill="#BD8D44"/>
<path d="M150.5 79.8809C111.551 79.8809 79.8809 111.453 79.8809 150.5C79.8809 189.546 111.551 221.118 150.5 221.118C189.448 221.118 221.118 189.448 221.118 150.5V150.401C221.118 111.453 189.546 79.8809 150.5 79.8809ZM150.5 218.069C113.125 218.069 82.8315 187.776 82.7331 150.401C82.6348 113.026 113.026 82.7332 150.401 82.6348C187.776 82.6348 218.069 112.928 218.168 150.303C218.168 187.776 187.874 218.069 150.5 218.069Z" fill="#BD8D44"/>
<path d="M38.6702 99.159L44.2764 96.6018C44.3748 95.6183 44.7682 94.6347 45.26 93.7495L47.0304 90.6022C49.0958 87.6515 48.4073 88.1433 51.8497 87.2581C54.2103 86.668 56.5708 86.2746 58.8329 85.4877C61.0951 84.7009 61.4885 84.7992 63.9474 81.7502L64.0457 81.6519L64.1441 81.7502C67.0947 78.7996 68.8651 77.6193 69.0618 73.3901V71.8164L62.8655 72.3082C62.4721 73.5868 59.7181 76.0457 58.7346 77.4226C56.7675 80.3733 56.8658 79.4881 53.8168 80.57C51.4563 81.2585 49.0958 81.7502 46.8336 82.4387C43.1945 83.4223 43.3912 82.6354 41.6208 85.8811C39.5554 89.5203 40.0472 88.4384 38.4735 91.5857C36.8998 94.7331 37.2932 94.1429 38.4735 97.7821C38.3751 98.2738 38.4735 98.7656 38.6702 99.159Z" fill="#BD8D44"/>
<path d="M49.2926 80.374L55.1939 78.997C55.2922 77.4233 58.2429 74.571 59.4231 73.3908C61.9804 70.8336 61.1935 71.227 64.7343 70.9319L71.9142 70.4401C75.75 70.1451 76.1435 68.8665 79.0941 66.3092L79.1925 66.2109C82.0448 63.8504 82.8316 63.9487 83.7168 60.3096L84.0118 58.9326L77.7171 58.2441C77.3237 58.7359 76.7336 59.031 75.455 60.3096C74.3731 61.2931 73.9797 61.5882 72.9961 62.375C70.2422 64.6372 71.2257 64.4405 67.6849 64.7356L60.5051 65.3257C56.7676 65.6208 57.7511 64.5388 55.0955 67.2928C53.6202 68.8665 51.6531 71.227 50.3745 72.899C47.9156 76.0464 48.6041 75.3579 49.0959 79.0954L49.2926 80.374Z" fill="#BD8D44"/>
<path d="M63.4551 63.7506L69.6514 63.2588C69.8481 62.6687 70.3399 62.1769 71.6185 60.8983L74.3725 58.5378C77.3231 56.374 76.4379 56.669 80.077 57.0625C82.4376 57.3575 84.7981 57.7509 87.2569 57.8493C89.7158 57.9477 90.0109 58.1444 93.0599 56.2756C96.7974 54.5052 98.8628 54.0135 100.633 50.1776L101.223 48.8007L95.2237 47.0303C94.5352 47.8171 90.9944 49.3908 89.8142 50.276C86.9619 52.3414 87.3553 51.6529 84.1096 51.4562C81.7491 51.3579 79.2902 50.9645 76.9297 50.7678C73.1922 50.4727 73.5856 49.6859 70.8317 52.1447C67.6843 54.8987 68.5695 54.1118 65.9139 56.4723C63.2584 58.8329 63.8485 58.5378 63.7501 62.2753V63.6522" fill="#BD8D44"/>
<path d="M226.43 58.5382L229.184 60.8987C231.741 63.4559 231.25 62.6691 231.446 66.3082C231.545 68.6687 231.446 71.1276 231.741 73.4881C232.037 75.8486 231.84 76.2421 234.397 79.1927C235.184 80.0779 235.774 81.0614 236.561 81.8483C238.823 84.7989 237.938 84.5039 241.479 85.389L242.954 85.7825L243.741 79.5861C242.265 78.1108 240.888 76.5371 239.61 74.8651C237.151 72.3079 237.938 72.7013 237.544 69.3572C237.348 66.8983 237.249 64.5378 237.151 62.079C236.954 58.3415 237.741 58.6365 234.889 56.276C231.741 53.5221 232.627 54.3089 229.971 52.0468C227.315 49.7846 227.709 50.2764 223.873 50.7682L222.496 50.9649L223.873 57.0629C224.758 57.2596 225.643 57.7514 226.43 58.5382Z" fill="#BD8D44"/>
<path d="M208.924 46.3418C210.104 46.932 211.186 47.5221 212.268 48.3089C215.218 50.3744 214.628 49.6859 215.415 53.2267C215.907 55.5872 216.497 57.9477 216.989 60.2099C217.776 63.9473 219.153 64.144 222.103 66.7013L222.202 66.7996C225.054 69.2585 225.054 70.0453 228.693 70.3404L230.168 70.4388L229.972 64.2424C229.48 63.9473 228.988 63.4556 227.611 62.2753C226.726 61.5868 225.939 60.8983 225.251 60.2099C222.595 57.8493 222.988 58.7345 222.103 55.2921L220.53 48.2106C219.644 44.5714 220.825 45.3583 217.776 43.1945C215.907 41.9159 213.35 40.6372 211.284 39.457C207.94 37.4899 208.629 38.08 204.99 39.2603L203.711 39.6537L206.071 45.2599C206.563 45.2599 207.153 45.555 208.924 46.3418Z" fill="#BD8D44"/>
<path d="M148.237 31.1959H151.778C155.417 31.491 154.532 31.1959 157.089 33.7532C158.761 35.5236 160.236 37.3923 162.006 38.966C163.777 40.5396 163.875 40.9331 167.711 41.5232H167.908V41.6216C168.99 41.9166 170.268 42.1133 171.547 42.31C175.186 43.0969 174.301 43.3919 177.645 41.8183L179.022 41.1298L175.579 35.917C174.301 36.1137 170.76 34.9334 169.088 34.8351C165.547 34.54 166.334 34.2449 163.974 31.9828C162.203 30.3108 160.63 28.5404 158.957 26.77C156.4 24.1144 157.187 23.8193 153.45 23.8193H146.958C143.122 23.8193 144.106 24.016 141.45 26.8683L140.467 27.8519L145.483 31.491C146.171 31.1959 147.155 31.0976 148.237 31.1959Z" fill="#BD8D44"/>
<path d="M173.024 33.4573C176.467 34.3425 175.778 33.9491 177.745 36.8998C179.024 38.8669 180.401 40.834 181.679 42.8994C183.745 46.0468 185.122 45.85 188.761 47.1287H188.859C192.4 48.4073 192.695 49.1941 196.236 48.1122L197.613 47.7188L195.252 42.0142C194.662 41.9159 194.072 41.6208 192.302 41.0307C190.925 40.5389 190.433 40.4405 189.253 39.9488C185.909 38.6701 186.597 39.3586 184.532 36.5063C183.155 34.5392 181.876 32.4738 180.499 30.5067C178.434 27.3593 179.811 27.7528 176.172 26.7692C174.008 26.1791 171.156 25.7857 168.992 25.3922C165.156 24.7038 166.041 24.9988 162.992 27.3593L161.91 28.2445L165.746 32.4738C168.107 32.5721 170.565 32.9656 173.024 33.4573Z" fill="#BD8D44"/>
<path d="M127.485 33.4569C128.567 33.1619 129.747 32.8668 130.928 32.7685C134.468 32.4734 133.682 32.2767 136.534 34.4405L142.337 38.7681C145.484 41.0303 146.566 40.3418 150.402 40.3418H150.599C154.336 40.3418 154.828 40.9319 157.877 38.7681L159.057 37.8829L154.828 33.1619C153.746 33.2602 152.762 33.2602 151.68 33.1619H148.533C144.992 33.1619 145.779 33.5553 142.927 31.4899L137.026 27.4573C133.977 25.2935 135.452 25.0968 131.714 25.3919C129.354 25.5886 127.19 26.3754 124.928 26.7688C121.092 27.4573 121.977 27.4573 119.912 30.703L119.125 31.7849L124.535 34.5389C124.928 34.1454 125.518 33.9487 127.485 33.4569Z" fill="#BD8D44"/>
<path d="M110.667 38.0805C114.11 37.0969 113.224 37.0969 116.47 38.769C118.634 39.8509 120.699 41.0311 122.863 42.0147C125.027 42.9982 125.322 43.2933 129.06 42.5064C130.24 42.3097 131.322 42.2114 132.404 41.9163C136.141 41.4245 135.354 42.0147 137.912 39.2607L138.993 38.1788L133.977 34.4413C132.109 34.9331 130.24 35.3265 128.371 35.6216L127.879 35.72C124.437 36.7035 125.125 36.1134 122.076 34.8348C119.913 33.8512 117.749 32.671 115.585 31.6874C112.241 30.1137 112.831 29.5236 109.389 30.8022C105.454 32.2775 106.635 31.7858 103.291 33.0644C99.6515 34.4413 100.635 34.2446 99.1597 37.7854C98.963 38.1788 98.7663 38.6706 98.668 39.064L104.569 40.8344C105.454 39.8509 109.29 38.5722 110.667 38.0805Z" fill="#BD8D44"/>
<path d="M189.743 37.8834L193.087 39.0636C196.332 40.6373 195.742 39.9488 197.119 43.2929C198.103 45.4567 198.89 47.8172 199.972 49.8826C201.053 51.9481 201.053 52.4399 204.496 54.3086C205.578 54.8987 206.66 55.5872 207.643 56.1773C210.791 58.2428 209.807 58.2428 213.545 57.8494L215.118 57.751L213.741 51.653C212.856 51.4563 209.512 49.1942 207.938 48.5057C204.791 46.932 205.578 46.932 204.102 44.0797C203.021 41.9159 202.135 39.6537 201.152 37.4899C199.578 34.0475 200.463 34.1459 196.923 32.7689C192.988 31.3919 194.169 31.687 190.726 30.5067C187.087 29.2281 187.972 29.7199 184.628 31.4903L183.35 32.1788L186.792 37.2932C187.677 37.2932 188.759 37.4899 189.743 37.8834Z" fill="#BD8D44"/>
<path d="M88.3395 48.407C89.3231 47.7185 90.405 47.2267 91.4869 46.7349C94.7326 45.1612 93.8474 45.358 97.2898 46.3415L104.175 48.407C107.814 49.4889 108.699 48.407 112.338 47.1283H112.436C115.977 45.8497 116.666 46.2431 118.633 43.1941L119.42 42.0139L113.813 39.0632C113.322 39.3583 112.633 39.4567 110.961 40.1452C109.584 40.7353 109.092 40.8336 107.912 41.2271C104.568 42.4073 105.552 42.5057 102.109 41.5221L95.126 39.555C91.5852 38.5715 92.7655 37.883 89.4214 39.555C87.5527 40.4402 84.9955 42.0139 83.2251 43.0958C79.881 45.0629 80.6678 44.7678 79.881 48.5053L79.5859 49.7839L85.5856 50.4724C85.8806 49.8823 86.3724 49.4889 88.0445 48.407" fill="#BD8D44"/>
<path d="M31.491 119.518L36.6054 116.174C36.4087 115.583 36.6054 114.993 37.1955 113.026C37.4906 111.846 37.7857 110.764 38.2774 109.682C39.7528 106.436 39.1626 107.027 42.5067 105.551L49.0965 102.699C52.5389 101.125 52.5389 99.7483 54.4076 96.4042L54.506 96.3059C56.3747 93.0602 57.1616 92.8635 56.6698 89.2243L56.3747 87.749L50.2767 89.126C50.08 89.7161 49.5882 90.2079 48.8014 91.8799C48.1129 93.1585 47.8178 93.6503 47.2277 94.6339C45.4573 97.7812 46.2442 97.1911 42.9985 98.6664L36.4087 101.715C33.0646 103.289 33.5564 102.01 31.9827 105.355C30.9992 107.518 30.6058 109.682 29.8189 111.944C28.5403 115.682 28.9337 114.797 30.8025 118.141L31.491 119.518Z" fill="#BD8D44"/>
<path d="M253.38 90.3055L255.15 93.4528C256.724 96.6985 256.527 95.9117 255.445 99.2558C254.757 101.518 253.872 103.78 253.282 106.141C252.691 108.501 252.495 108.796 253.773 112.337V112.534H253.675C254.757 116.566 254.757 118.73 258.199 121.091L259.478 121.976L262.33 116.369C261.543 115.386 260.757 111.648 260.166 110.173C258.691 106.927 259.38 107.518 260.166 104.37C260.757 102.01 261.543 99.6492 262.232 97.4854C263.314 93.9446 263.904 94.4364 262.035 91.289C259.97 87.6499 260.658 88.6334 258.789 85.5844C256.921 82.2404 257.216 83.2239 253.478 82.2404C252.986 82.142 252.593 82.0437 252.101 81.9453L251.314 88.0433C252.003 88.24 252.396 88.8301 253.38 90.3055Z" fill="#BD8D44"/>
<path d="M260.853 106.436C262.131 107.42 263.017 111.354 263.41 112.928C264.295 116.37 264.394 115.583 262.722 118.731C261.64 120.796 260.459 122.96 259.377 125.124C257.607 128.566 258.492 129.55 259.181 133.386V133.582C259.771 137.221 259.181 137.91 261.935 140.467L262.918 141.451L266.852 136.533C266.656 135.943 266.656 135.254 266.262 133.484C265.967 132.009 265.869 131.517 265.771 130.337C265.279 126.796 264.984 127.779 266.557 124.534L269.803 118.042C271.475 114.698 271.869 116.075 270.983 112.436C270.492 110.371 269.41 107.518 268.721 105.453C267.443 101.715 267.541 102.699 264 101.125L262.722 100.535L260.853 106.436Z" fill="#BD8D44"/>
<path d="M238.725 65.0293L238.921 71.1273C239.511 71.324 240.003 71.8158 241.282 73.2911C242.167 74.0779 242.856 74.9631 243.544 75.9467C245.609 78.8973 245.314 78.1105 244.823 81.6513C244.528 84.0118 244.232 86.3723 243.839 88.7328C243.347 92.4703 244.528 93.2571 246.396 96.5028V96.6012C248.167 99.8469 247.97 100.634 251.314 102.207L252.593 102.798L254.56 96.7979C254.166 96.3061 253.97 95.716 252.986 94.1423C252.199 92.8637 252.003 92.4703 251.412 91.3884C249.74 88.241 249.74 89.2246 250.232 85.6838C250.527 83.3233 250.822 80.8644 251.117 78.5039C251.609 74.7664 252.396 75.9467 250.232 72.7993C248.855 70.8322 247.281 69.3569 245.708 67.4882C243.249 64.3408 243.642 65.226 239.905 65.0293H238.725Z" fill="#BD8D44"/>
<path d="M27.9512 140.763L32.3772 136.435C32.1805 135.452 32.1805 134.37 32.3772 133.288L32.9673 129.747C33.8525 126.207 33.3607 126.993 36.4097 125.026C38.3768 123.748 40.4423 122.469 42.311 120.994C44.1798 119.518 44.5732 119.42 45.7534 115.781C46.9337 112.142 48.5074 110.371 47.3271 106.437L46.8353 104.962L41.1308 107.519C41.1308 107.814 39.5571 112.634 39.3604 113.42C38.4752 116.863 38.3768 116.076 35.7213 118.141C33.7542 119.617 31.7871 120.895 29.82 122.272C26.6726 124.436 26.5743 123.551 25.9841 127.288C25.2956 131.419 25.4924 130.239 24.9022 133.78C24.3121 137.616 24.6072 136.632 26.9677 139.681C27.4595 140.075 27.7545 140.468 27.9512 140.763Z" fill="#BD8D44"/>
<path d="M150.499 46.2433C92.8631 46.2433 46.1445 92.9618 46.1445 150.598C46.1445 208.234 92.8631 254.952 150.499 254.952C208.135 254.952 254.853 208.234 254.853 150.598V150.499C254.853 92.8635 208.135 46.145 150.499 46.2433ZM150.499 252.395C94.24 252.395 48.7018 206.758 48.7018 150.499C48.7018 94.2405 94.3384 48.7022 150.597 48.7022C206.856 48.7022 252.395 94.3388 252.395 150.598C252.395 206.758 206.856 252.395 150.499 252.395Z" fill="#BD8D44"/>
<path d="M237.15 179.809L235.085 185.022C234.888 185.514 234.495 186.005 234.101 186.399C233.413 187.186 232.429 187.579 231.347 187.678C230.856 187.678 230.266 187.579 229.774 187.382L223.774 185.022C228.495 173.318 232.036 164.761 231.741 151.483H231.151C230.659 151.483 230.069 151.385 229.577 151.09C228.594 150.696 227.708 149.909 227.315 148.926C227.118 148.434 227.02 147.942 227.02 147.352V144.893L230.167 144.795V147.254C230.167 147.45 230.266 147.647 230.364 147.844C230.561 148.041 230.757 148.041 230.954 148.041H231.544L231.347 140.861L237.741 140.664C238.232 140.664 238.822 140.762 239.314 140.959C239.806 141.156 240.298 141.451 240.691 141.844C241.38 142.631 241.871 143.615 241.97 144.696V146.86C241.97 147.352 241.871 147.942 241.675 148.434C241.478 148.926 241.183 149.417 240.79 149.811C240.396 150.204 240.003 150.499 239.511 150.696C239.019 150.991 238.527 151.09 237.937 151.09L234.692 151.188C234.79 157.188 233.905 160.532 232.823 166.925L235.085 167.318C235.282 167.318 235.38 167.318 235.577 167.318C235.872 167.22 236.069 166.925 236.069 166.63L237.642 157.483L242.658 158.368C243.248 158.466 243.74 158.663 244.232 158.958C244.625 159.253 245.019 159.548 245.314 159.941C245.609 160.433 245.806 160.925 246.002 161.515C246.101 162.007 246.101 162.597 246.002 163.089L243.543 174.793L240.396 174.203L242.855 162.499C242.855 162.302 242.855 162.204 242.855 162.007C242.855 161.909 242.757 161.712 242.658 161.613C242.56 161.515 242.363 161.417 242.265 161.417L240.494 161.122L239.413 167.121C239.216 168.105 238.626 169.088 237.741 169.679C237.249 169.974 236.757 170.17 236.167 170.367C235.675 170.465 235.085 170.465 234.593 170.367L232.331 169.974C231.052 174.4 229.577 178.727 227.807 182.858L230.757 184.038C230.856 184.038 231.052 184.038 231.151 184.038L231.643 183.842C231.741 183.743 231.839 183.645 231.839 183.448L234.396 177.055L237.15 179.809ZM237.839 134.763L237.347 131.91C237.249 131.615 237.052 131.32 236.855 131.124C236.659 131.124 236.56 131.124 236.364 131.124L233.216 131.714L233.905 135.549L237.839 134.763ZM213.447 86.7655L211.283 84.7C211.185 84.6017 211.086 84.5033 210.89 84.5033C210.595 84.405 210.201 84.5033 210.005 84.7L207.841 87.0606L210.595 89.7161L213.447 86.7655ZM215.611 100.338C211.972 95.6174 207.841 91.1915 203.415 87.1589L207.841 82.4379C208.234 82.0445 208.628 81.7494 209.119 81.5527C209.611 81.356 210.103 81.2576 210.693 81.1593C211.185 81.1593 211.775 81.2576 212.267 81.4543C212.758 81.651 213.25 81.8478 213.644 82.2412L218.07 86.5688L213.053 91.8799C214.824 93.7487 216.496 95.8141 217.873 97.9779L218.168 98.3714L218.266 98.5681L221.217 102.699L223.676 106.535L223.873 106.928V107.027L225.938 111.059L228.003 115.78L228.2 116.37V116.469C229.577 120.009 231.544 125.321 232.429 128.665L235.577 128.075C236.069 127.976 236.659 127.976 237.15 128.075C237.741 128.173 238.232 128.468 238.724 128.763C239.118 129.058 239.511 129.451 239.806 129.845C240.101 130.337 240.396 130.828 240.494 131.419L241.576 137.517L231.249 139.385C230.364 133.287 228.889 127.386 226.922 121.583L225.348 117.649L223.381 113.321L221.02 108.6L218.07 103.879L215.611 100.338ZM218.856 84.5033L216.791 82.5362L218.856 80.3724L220.922 82.3395L218.856 84.5033ZM215.906 81.8478L213.84 79.8807L215.906 77.7169L217.971 79.6839L215.906 81.8478ZM198.005 83.1264L195.35 81.2576L204.3 68.6682L206.955 70.537L198.005 83.1264ZM185.809 67.783L183.842 66.8978C183.744 66.7995 183.547 66.7995 183.35 66.7995C183.055 66.8978 182.859 67.0945 182.76 67.2912L181.482 70.2419L185.022 71.8156L186.301 68.8649C186.498 68.5699 186.498 68.2748 186.301 68.0781C186.104 67.8814 186.006 67.783 185.809 67.783ZM193.973 80.2741C191.415 78.7988 189.153 77.2251 186.596 76.1432L186.399 76.6349C186.203 77.1267 185.809 77.5201 185.416 77.9136C184.629 78.7004 183.547 79.0938 182.564 78.9955C182.072 78.9955 181.482 78.7987 180.99 78.602L178.728 77.6185L180.006 74.6679L182.367 75.6514C182.564 75.7498 182.76 75.7498 182.957 75.6514C183.154 75.553 183.35 75.3563 183.449 75.1596L183.645 74.6679L177.154 71.7172L179.81 65.9143C180.105 65.4225 180.4 65.0291 180.793 64.6357C181.187 64.2422 181.678 63.9472 182.17 63.7505C182.662 63.5538 183.154 63.4554 183.744 63.5538C184.236 63.5538 184.826 63.6521 185.317 63.8488L187.285 64.734C187.776 64.9307 188.17 65.3241 188.563 65.7176C188.957 66.111 189.252 66.5044 189.448 66.9962C189.645 67.488 189.743 67.9797 189.743 68.5699C189.743 69.0616 189.645 69.6518 189.448 70.1435L188.17 73.0942C189.842 73.881 191.415 74.6679 192.989 75.6514L198.89 65.1274L201.743 66.7995L193.973 80.2741ZM113.223 64.6357L117.649 62.8653C118.141 62.6686 118.731 62.5702 119.321 62.5702C120.403 62.5702 121.387 62.9636 122.174 63.7505C122.567 64.1439 122.862 64.6357 123.059 65.1274L124.239 68.0781C138.599 62.4719 158.368 64.0455 173.121 67.3896L173.81 64.2422C173.81 64.1439 173.81 63.9472 173.81 63.8488C173.712 63.6521 173.613 63.5538 173.515 63.3571C173.417 63.2587 173.22 63.1603 173.121 63.1603L166.433 61.5867L168.4 58.7344L173.81 60.013C174.4 60.1113 174.892 60.4064 175.384 60.7015C176.269 61.2916 176.859 62.1768 177.056 63.2587C177.154 63.7505 177.056 64.3406 176.957 64.8324L175.482 71.0287C151.778 65.5209 138.992 65.5209 116.272 74.4711L115.092 71.5205L121.288 69.0616L120.108 66.111C119.912 65.9143 119.715 65.7176 119.42 65.6192C119.223 65.6192 119.125 65.6192 118.928 65.7176L114.502 67.488L113.223 64.6357ZM114.502 75.258L105.552 80.3724L102.306 74.7662C101.519 73.2909 101.716 71.5205 102.699 70.2419C102.994 69.7501 103.388 69.455 103.88 69.16L109.289 66.0126L114.502 75.258ZM108.109 70.6353L105.453 72.209C105.158 72.3073 104.962 72.6024 104.962 72.8975C104.863 73.0942 104.863 73.1925 104.962 73.3892L106.535 76.1432L109.978 74.1761L108.109 70.6353ZM107.224 64.9307L104.765 66.3077L103.29 63.7505L105.748 62.3735L107.224 64.9307ZM103.88 66.8978L101.421 68.2748L99.9455 65.7176L102.404 64.3406L103.88 66.8978ZM100.142 84.3066L97.585 86.2737L88.0446 74.0777L90.6018 72.1106L100.142 84.3066ZM96.208 87.3556C93.4541 90.0112 88.6347 94.1421 86.7659 96.7977L87.1594 97.0927C87.6511 97.3878 87.9462 97.7812 88.2413 98.273C88.8314 99.1582 89.0281 100.338 88.733 101.42C88.6347 101.912 88.3396 102.404 88.0446 102.896L86.5692 104.863L83.9137 102.994L85.389 101.027C85.4873 100.83 85.5857 100.634 85.5857 100.437C85.5857 100.24 85.389 100.043 85.2906 99.945L84.7989 99.65L80.668 105.256L75.4551 101.519C75.0617 101.125 74.6683 100.732 74.3732 100.338C74.0782 99.8467 73.8815 99.3549 73.7831 98.7648C73.6848 98.273 73.6848 97.6829 73.7831 97.1911C73.8815 96.6993 74.0782 96.1092 74.3732 95.7158L75.6519 93.9454C75.9469 93.552 76.3403 93.1585 76.8321 92.8635C77.2255 92.5684 77.8157 92.3717 78.3074 92.2734C78.7992 92.175 79.3893 92.175 79.8811 92.2734C80.3729 92.3717 80.963 92.5684 81.3564 92.8635L84.012 94.7322C86.2742 91.9783 88.733 89.3227 91.487 86.9622L83.0285 78.1103L85.389 75.8481L96.208 87.3556ZM78.4058 95.9125L77.1272 97.6829C77.0288 97.7812 76.9305 97.9779 76.9305 98.0763C76.9305 98.3714 77.0288 98.6664 77.3239 98.8631L79.9795 100.732L82.2416 97.5845L79.586 95.7158C79.3893 95.5191 78.9959 95.5191 78.7992 95.6174C78.6025 95.7158 78.5041 95.8141 78.4058 95.9125ZM71.0292 107.322L69.0621 111.649C69.0621 111.748 69.0621 111.846 69.0621 112.043C69.0621 112.239 69.1604 112.338 69.2588 112.534L72.0127 114.993L75.1601 108.207L72.2094 106.928C72.0127 106.83 71.816 106.83 71.521 106.928C71.3242 106.928 71.1275 107.125 71.0292 107.322ZM58.5381 124.829L57.8496 127.583L55.0957 126.894L55.7842 124.14L58.5381 124.829ZM73.2913 138.598L73.0946 141.352L70.144 141.156L70.3407 138.303L73.2913 138.598ZM72.9963 142.139L72.7996 144.992L69.8489 144.795L70.0456 141.844L72.9963 142.139ZM75.7502 184.825L69.8489 187.186C69.3571 187.382 68.8654 187.481 68.2752 187.481C67.7835 187.481 67.1933 187.284 66.7016 187.087C66.2098 186.891 65.8164 186.596 65.423 186.202C65.0295 185.809 64.7345 185.415 64.5378 184.825L62.2756 179.022L69.0621 176.367C65.9147 168.597 63.9476 150.893 64.5378 142.533L57.7513 141.943L57.948 138.598L64.7345 139.189C65.8164 135.254 66.1114 133.386 66.8983 129.747L59.8167 128.173L60.6036 125.026L67.6851 126.599C68.2752 123.747 69.1604 120.895 70.4391 118.239L59.325 113.321L60.6036 110.371L65.8164 112.83C65.8164 112.633 65.8164 112.436 65.8164 112.239C65.718 111.649 65.8164 111.059 66.1114 110.469L68.0785 106.141C68.2752 105.65 68.6687 105.158 68.9637 104.764C69.7506 104.076 70.7341 103.781 71.816 103.781C72.3078 103.781 72.8979 103.879 73.3897 104.076L79.1926 106.732C65.718 136.533 63.7509 154.335 75.7502 184.825ZM66.4065 180.891L67.4884 183.645C67.4884 183.743 67.5868 183.842 67.6851 183.94C67.8818 184.137 68.2752 184.235 68.5703 184.137L71.521 182.956L70.144 179.416L66.4065 180.891ZM60.6036 180.694L61.6855 183.35L58.9315 184.432L57.8496 181.776L60.6036 180.694ZM62.0789 184.235L63.1608 186.891L60.4069 187.973L59.325 185.317L62.0789 184.235ZM238.921 147.057V144.795C238.921 144.598 238.921 144.5 238.822 144.303C238.626 144.106 238.331 143.91 238.036 143.91L234.888 144.008L234.987 147.844L238.232 147.745C238.527 147.745 238.822 147.647 239.019 147.352C239.019 147.352 239.019 147.254 238.921 147.057Z" fill="#BD8D44"/>
<path d="M190.628 221.02L192.399 219.938C192.891 219.643 193.382 219.447 193.973 219.348C194.464 219.25 195.054 219.25 195.546 219.348C196.136 219.447 196.628 219.643 197.12 219.938C197.513 220.233 197.907 220.627 198.202 221.02L201.939 226.725C202.234 227.118 202.431 227.61 202.529 228.2C202.726 229.184 202.431 230.266 201.939 231.151C201.644 231.544 201.251 231.938 200.857 232.233L198.792 233.61L197.022 230.954L199.087 229.577C199.284 229.479 199.382 229.282 199.382 229.085C199.48 228.889 199.48 228.692 199.382 228.495L199.087 228.004L193.186 231.839L189.743 226.627C189.448 226.233 189.252 225.643 189.252 225.151C189.153 224.659 189.153 224.069 189.252 223.578C189.35 223.086 189.547 222.594 189.842 222.201C190.137 221.709 190.53 221.315 191.022 221.02M194.366 222.496L192.596 223.578C192.301 223.676 192.202 223.971 192.202 224.266C192.202 224.463 192.202 224.561 192.301 224.758L194.071 227.413L197.317 225.348L195.645 222.692C195.546 222.594 195.448 222.496 195.251 222.397C194.858 222.201 194.464 222.299 194.169 222.496H194.366ZM197.12 216.988L200.661 213.939C201.054 213.545 201.546 213.349 202.136 213.152C203.12 212.759 204.201 212.857 205.087 213.349C205.578 213.545 205.972 213.84 206.365 214.234L210.398 219.053L203.021 225.25L200.956 222.889L205.873 218.66L203.808 216.299C203.611 216.103 203.316 216.004 203.021 216.004C202.824 216.004 202.726 216.103 202.628 216.201L199.087 219.25L197.12 216.988Z" fill="#BD8D44"/>
<path d="M161.122 234.789L158.171 235.182C158.073 235.182 157.876 235.281 157.778 235.281C157.483 235.477 157.384 235.772 157.384 236.068L157.778 239.215L161.515 238.723L161.122 234.789ZM164.761 238.33C170.859 237.543 181.58 233.707 186.989 231.051L181.58 220.331L184.432 218.855L191.219 232.428C177.351 239.412 169.876 240.789 155.122 242.657L154.335 236.461C154.237 235.969 154.237 235.379 154.335 234.887C154.532 234.396 154.729 233.904 155.024 233.412C155.319 233.019 155.712 232.723 156.204 232.428C156.696 232.133 157.188 231.937 157.68 231.838L163.778 231.15L164.761 238.33Z" fill="#BD8D44"/>
<path d="M162.417 226.458L159.684 226.794L160.031 229.625L162.765 229.289L162.417 226.458Z" fill="#BD8D44"/>
<path d="M158.673 226.947L155.939 227.283L156.287 230.114L159.02 229.778L158.673 226.947Z" fill="#BD8D44"/>
<path d="M131.124 245.412L128.468 244.822L129.058 242.068L131.812 242.659L131.124 245.412ZM127.78 244.626L125.026 244.036L125.714 241.282L128.468 241.872L127.78 244.626ZM116.075 241.478L113.518 240.495L114.6 237.839L117.157 238.823L116.075 241.478ZM105.158 236.069L102.798 234.692L104.273 232.233L106.633 233.61L105.158 236.069ZM102.207 234.298L99.8469 233.02L101.322 230.561L103.683 231.938L102.207 234.298ZM148.533 242.659C123.845 241.872 106.633 234.102 89.2246 218.955L99.1584 207.546L101.519 209.611L93.6506 218.66C97.1913 221.807 101.027 224.561 105.158 227.02L108.797 220.922L111.551 222.496L108.01 228.594C110.764 230.167 113.617 231.544 116.469 232.725L119.124 226.135L122.075 227.315L119.42 233.905C122.37 235.085 125.419 236.069 128.468 236.757L130.042 229.872L133.189 230.561L131.616 237.446C136.14 238.528 140.861 239.118 145.484 239.216L145.877 227.315L149.123 227.414L148.533 242.659Z" fill="#BD8D44"/>
<path fill-rule="evenodd" clip-rule="evenodd" d="M75.7491 198.989L79.585 196.136C79.9784 195.841 80.5685 195.94 80.8636 196.333L83.6175 200.169C83.9126 200.562 83.8142 201.153 83.4208 201.448L79.585 204.201C79.1915 204.497 78.6014 204.398 78.3064 204.005L75.5524 200.071C75.2574 199.874 75.3557 199.284 75.7491 198.989Z" fill="#BD8D44"/>
<path fill-rule="evenodd" clip-rule="evenodd" d="M224.365 198.989L220.529 196.136C220.136 195.841 219.545 195.94 219.25 196.333L216.398 200.169C216.103 200.562 216.201 201.153 216.595 201.448L220.431 204.201C220.824 204.497 221.414 204.398 221.709 204.005L224.562 200.169C224.857 199.874 224.758 199.284 224.365 198.989Z" fill="#BD8D44"/>
<path d="M177.351 133.091L184.727 144.008L197.71 139.877L189.547 150.303L197.612 161.417L185.121 156.893L177.056 167.908L177.547 154.631L164.564 150.401L177.252 146.762L177.351 133.091Z" fill="#BD8D44"/>
<path d="M149.32 182.76C131.517 182.858 116.961 168.4 116.961 150.598C116.862 132.796 131.321 118.239 149.123 118.239C158.663 118.239 167.712 122.37 173.908 129.747C162.401 111.945 138.599 106.83 120.797 118.338C102.994 129.845 97.8799 153.647 109.387 171.449C120.895 189.251 144.697 194.366 162.499 182.858C167.023 179.908 170.958 176.072 173.908 171.449C167.81 178.629 158.86 182.76 149.32 182.76Z" fill="#BD8D44"/>
</svg>
