<svg width="300" height="300" viewBox="0 0 300 300" fill="none" xmlns="http://www.w3.org/2000/svg">
<path d="M27.0801 8.17188H274.315V173.13H274.313C274.313 173.15 274.315 173.167 274.315 173.186C274.315 237.403 218.782 289.776 150.698 289.776C82.6106 289.776 27.0801 237.403 27.0801 173.186V173.13V8.17188Z" fill="#ED1C24"/>
<path fill-rule="evenodd" clip-rule="evenodd" d="M152.007 118.543C151.896 119.348 151.782 120.155 151.671 120.962C154.185 121.824 156.414 122.959 157.613 125.072C161.27 122.928 164.367 120.331 166.568 117.009C161.715 117.52 156.863 118.032 152.007 118.543ZM93.6745 99.3041C94.6712 98.2581 95.6698 97.2139 96.6665 96.1679C100.154 96.2663 103.509 95.8286 106.805 95.1465C107.814 100.939 106.717 105.958 104.032 110.39C101.48 109.611 98.9273 108.834 96.3747 108.057C96.9214 104.627 96.4345 101.565 93.6745 99.3041ZM89.8984 67.5764C87.6271 70.1571 85.354 72.7378 83.081 75.3184C80.4247 78.4002 77.7684 81.4801 75.1104 84.56C74.0714 85.7168 73.0307 86.8718 71.99 88.0267C70.6803 89.6827 69.3724 91.3387 68.0627 92.9947C66.7865 94.8441 67.2593 96.6917 68.5251 98.5411C68.2825 101.008 67.6303 103.409 70.0264 106.281C71.3659 107.108 72.767 107.261 74.3017 105.935C74.6094 104.819 74.917 103.702 75.2247 102.584C76.5344 101.507 77.844 100.429 79.1537 99.3498C79.8868 100.352 80.6181 101.354 81.3494 102.354C80.6954 103.047 80.0397 103.741 79.384 104.434L80.4247 106.513C80.0011 106.86 79.5774 107.206 79.1537 107.554C78.5525 110.541 80.6392 110.237 82.2741 109.518C86.9116 109.129 90.3256 107.094 91.0551 101.429C92.5213 102.583 93.3809 104.04 92.9027 106.167L89.2057 113.561C87.054 113.723 85.79 115.433 85.6037 117.2C85.4173 118.965 86.3104 120.788 88.4744 121.177C89.8843 121.428 91.4893 120.795 92.5564 119.108C93.2789 117.819 93.3176 116.432 92.6724 114.948C95.2514 115.679 97.8321 116.411 100.413 117.142C99.6814 118.49 98.9501 119.839 98.217 121.185C95.0633 121.396 92.3068 123.193 90.1304 127.31C88.5887 129.659 87.0487 132.009 85.5087 134.358C83.3728 132.254 80.7517 130.779 77.7192 129.71C75.9068 129.072 74.6692 128.776 73.6337 128.764C72.1201 128.748 71.0354 129.332 69.2177 130.315C60.783 135.435 52.3501 140.558 43.9154 145.681C42.5582 146.908 41.3716 148.221 40.795 149.84C38.2161 156.271 35.6354 162.705 33.0547 169.136C33.401 170.405 33.7473 171.676 34.0936 172.949C36.059 172.409 38.0227 171.869 39.9863 171.331C39.0511 173.747 38.4973 175.789 38.2336 177.86C37.9067 180.416 38.0209 183.011 38.3989 186.397C38.8612 190.516 39.1337 194.631 39.64 198.713C40.4873 199.675 41.3347 200.638 42.182 201.602C46.5717 196.632 50.963 191.664 55.3527 186.696C54.4913 185.634 53.5947 184.783 52.6331 184.062C51.3955 183.134 50.0489 182.417 48.5371 181.728C47.8514 178.776 48.9344 176.66 50.6273 176.54C51.6416 176.466 52.8775 177.111 54.0817 178.725C56.4637 176.602 56.8716 173.666 55.931 170.176C58.4379 166.448 61.1504 162.824 64.1196 159.331C65.9672 157.155 66.9746 155.756 70.0123 155.52C73.3665 155.256 74.9926 157.271 76.4588 159.919C77.6348 162.039 78.4136 164.396 78.6914 167.054C82.9281 172.525 87.1647 177.994 91.4014 183.461C92.1363 184.46 93.1172 185.21 94.6361 185.425C96.06 185.558 97.4857 185.567 98.9097 185.311C100.539 184.636 101.689 183.646 102.146 182.192C105.534 183.384 108.925 184.577 112.312 185.773L113.93 186.582C113.622 187.352 113.314 188.123 113.007 188.892C110.99 188.897 109.341 189.695 108.499 192.242C100.109 192.815 92.748 196.562 86.8958 204.952L90.4767 207.61C92.7322 204.275 95.5256 203.228 98.5651 203.219C98.6038 203.95 98.6407 204.683 98.6812 205.415C103.609 205.875 108.538 206.338 113.469 206.802C113.699 206.146 113.93 205.49 114.162 204.834C115.818 205.299 117.548 205.907 119.204 206.369C119.666 205.522 120.054 204.529 120.517 203.681C124.483 205.067 128.45 206.454 132.416 207.839C130.143 209.534 127.359 211.45 125.087 213.143C128.591 212.99 132.61 212.615 136.113 212.461C138.539 215.736 140.967 219.009 143.393 222.282L141.892 210.035C144.703 208.301 147.514 206.57 150.325 204.834C146.974 204.72 143.623 204.752 140.273 204.636C138.348 201.941 136.423 199.098 134.498 196.403C134.573 198.944 134.651 201.486 134.726 204.026C130.53 202.602 126.332 201.176 122.134 199.752C123.646 196.5 126.408 194.127 129.874 192.242C137.646 194.501 145.78 195.672 154.138 196.171C154.293 204.066 154.447 211.961 154.602 219.855C154.512 226.807 155.89 233.335 160.493 238.92C164.257 234.138 165.64 227.604 165.691 220.087C165.577 212.077 165.461 204.066 165.345 196.055C166.598 196.087 167.883 196.266 168.356 197.198C168.601 197.685 168.889 198.209 169.204 198.759C170.508 201.044 170.172 201.034 172.635 200.461C174.97 199.919 177.438 199.605 179.649 199.522C179.79 203.12 180.669 206.065 182.341 208.407C184.014 210.75 186.484 212.492 189.809 213.691C194.321 216.056 197.98 218.601 200.931 221.358C202.506 224.782 203.48 228.251 202.316 231.872C199.845 236.284 197.442 240.678 194.678 245.006C193.309 247.154 192.535 248.46 190.382 249.763C182.824 254.333 174.446 259.632 170.659 267.805C170.504 269.074 170.353 270.347 170.199 271.618L178.98 271.386V274.044C185.565 274.081 192.15 274.121 198.736 274.158C198.774 272.078 198.813 270 198.85 267.919C200.801 263.002 203.728 262.578 207.633 266.65C209.742 264.308 211.057 261.495 211.214 257.983C217.029 248.778 222.844 239.574 228.661 230.371C229.69 229.013 230.319 227.649 230.49 226.273C230.778 223.949 230.062 222.419 228.835 221.305C227.044 219.673 224.161 218.928 221.728 217.891C219.209 216.39 217.359 214.336 216.99 211.075C217.808 204.516 224.36 198.905 227.621 192.126C228.602 186.961 228.804 182.468 228.514 177.4C229.148 177.676 230.001 178.052 230.293 178.762C235.141 190.523 253.368 202.632 263.93 189.742C260.266 190.897 256.845 190.855 253.962 189.47C270.571 186.575 265.049 168.021 268.393 164.294C267.043 163.47 265.666 163.844 264.707 164.976C263.877 155.988 254.985 149.494 251.882 141.752C251.028 142.341 250.344 143.615 249.687 144.986C242.713 136.399 241.967 127.809 244.374 119.224C237.163 120.669 233.802 128.954 233.629 142.907C231.191 139.503 230.933 135.012 230.855 130.431C227.571 136.328 224.883 142.267 229.468 150.533C232.775 155.26 236.669 159.396 241.832 164.514C243.537 166.391 247.73 169.477 244.142 171.762C239.527 173.242 235.869 172.367 232.242 170.523C224.875 166.068 218.481 160.78 212.485 155.156C207.889 151.763 202.877 149.622 197.695 147.991C199.729 144.584 202.158 141.126 197.813 138.517C196.387 138.055 194.961 137.592 193.537 137.13V130.775C198.869 134.708 204.556 138.148 210.867 140.713C228.515 121.992 231.43 98.1069 217.106 73.353C213.678 73.9314 210.25 74.5098 206.824 75.0864C205.244 72.4213 201.779 71.8166 198.043 71.5054C198.5 70.8585 198.713 69.8582 198.389 69.0179C188.706 70.3592 196.738 62.1759 198.191 60.2088C200.847 56.612 200.622 53.8168 198.82 50.656C196.665 47.0715 194.047 43.8052 191.109 41.003C187.187 41.17 183.399 42.5448 179.67 44.4697L177.476 42.9684C174.82 46.1644 171.869 49.8737 169.211 53.0697C170.021 53.3017 171.121 53.0205 172.298 53.031C171.972 54.6747 170.877 56.2709 169.966 57.5261C169.671 58.2012 169.863 58.7778 170.545 59.2577C169.822 60.0084 169.782 60.8557 170.429 61.7997C170.55 62.8193 170.133 64.5228 169.474 65.7376C168.806 65.5741 167.945 65.6707 167.298 66.1841C166.47 66.8451 165.99 68.1987 166.732 70.5807L166.037 70.9288C161.625 68.0387 157.357 65.2981 153.53 62.4097C154.069 62.1003 154.755 61.6468 155.293 61.3374C153.946 60.5674 152.672 59.5056 151.323 58.7338C150.938 57.1165 150.406 55.4992 150.021 53.8819C149.52 54.1508 149.092 54.7134 148.593 54.9841L146.039 49.9001L148.015 47.7044C144.613 46.5195 144.116 43.1952 144.432 39.2697L218.377 38.2307C224.627 37.858 230.396 36.9017 233.86 33.1467C230.28 29.6343 224.627 28.2033 217.683 28.0627C193.228 27.908 168.773 27.755 144.316 27.6021C144.147 23.8612 144.1 19.7546 148.076 18.589L143.739 14.4297C140.067 16.0681 138.476 21.4053 137.355 26.7688C135.544 25.8459 133.879 24.4817 132.07 23.557C131.061 23.3935 130.836 24.5292 130.453 25.4064C125.552 25.1656 123.249 27.4386 121.672 30.1318L109.656 30.1423L109.487 26.2871C100.638 26.9516 101.016 39.2925 109.424 39.6178L109.624 36.0667L121.556 36.035C122.139 38.1534 123.533 40.2735 125.485 42.3901C123.999 45.6722 122.393 48.8928 120.517 51.9797C125.135 52.5599 130.214 52.6812 135.421 52.6724C136.258 54.6729 137.193 56.7175 138.814 58.9114C138.39 59.0661 138.04 59.219 137.616 59.3737C138.861 61.7944 139.891 64.3031 140.157 67.1158L146.25 71.5054L147.247 71.0536C150.247 75.3132 153.733 79.5815 158.297 83.0587C160.219 92.7926 164.631 103.11 166.037 111.963C161.493 113.043 156.951 113.299 152.406 113.791C152.519 109.553 151.473 105.661 149.632 102.008C150.734 101.95 151.469 101.6 152.058 100.737C148.723 97.961 149.933 94.4503 147.552 92.1861C147.976 91.7237 148.4 91.2614 148.822 90.8008C146.215 88.976 146.684 84.6602 143.855 82.2501C137.325 71.2488 131.159 68.0422 125.022 65.4967C124.984 65.0344 124.945 64.5738 124.906 64.1114C122.48 63.2799 120.054 62.8527 117.628 62.6084L117.512 61.1071C113.738 59.7236 109.964 59.4985 106.189 60.0664C103.526 55.2267 96.8335 56.1742 93.3651 53.0205C89.8017 53.8203 92.3314 56.1989 93.9522 57.7951C92.5652 57.5261 90.3713 56.5979 89.2057 56.2551C88.3092 57.7353 89.4642 59.3157 92.6724 60.9911L86.5477 64.4578C86.676 65.7182 88.0138 66.7097 89.8984 67.5764Z" fill="white"/>
<path d="M75.0811 84.8431C74.1388 85.8645 73.2001 86.8876 72.2578 87.909C76.3539 89.616 79.7713 92.1369 82.7282 95.2168C84.8307 92.5676 87.1935 92.274 89.4102 95.1096C94.2341 90.4334 98.8435 85.6289 103.666 80.9545C104.372 80.9545 104.907 81.125 105.613 81.125C107.559 84.1346 109.191 87.5556 109.314 92.281C110.511 91.8345 111.766 91.4302 113.078 91.3265C113.027 85.2228 111.149 81.1549 108.018 78.4775C108.097 77.7708 108.176 77.0641 108.254 76.3557C111.754 73.9701 113.357 70.4313 113.665 66.0997C112.424 65.2717 111.012 64.9588 109.432 65.1574C109.21 68.5151 107.725 71.6812 104.425 74.0088C101.424 70.8796 98.0946 68.1477 94.1814 66.047C91.5708 66.7519 90.5617 67.4094 89.5491 68.4589C93.4817 70.2801 97.3773 72.7096 101.196 76.4734C101.118 77.1028 100.997 77.4737 100.918 78.1031C96.0167 82.7792 90.8166 88.0109 85.9137 92.6871C82.134 89.3558 78.7447 86.4604 75.0811 84.8431ZM92.7504 106.635C91.5022 108.941 90.2541 111.249 89.0059 113.556C111.865 120.69 139.161 121.328 170.493 116.054C176.239 114.713 173.181 110.836 170.041 111.401C140.126 117.035 114.491 115.222 92.7504 106.635ZM82.5929 138.834C81.9723 139.971 81.3517 141.107 80.7294 142.244C82.1428 143.789 83.5562 145.333 84.9696 146.878C99.7787 140.813 116.877 139.136 135.701 140.764L136.536 144.754L111.87 185.425C112.749 185.875 113.375 186.325 114.252 186.777C120.417 178.583 126.582 170.389 132.748 162.193C132.834 160.606 132.918 159.019 133.004 157.433C134.697 155.046 137.394 153.33 141.096 152.284C145.779 144.283 151.087 136.729 158.113 130.404C158.027 121.926 153.491 120.51 147.71 121.071C141.565 122.797 138.41 127.284 136.615 133.024C117.949 131.668 99.9193 133.502 82.5929 138.834ZM148.293 166.877C148.46 168.689 148.154 170.5 147.156 172.31C146.616 172.092 146.076 171.873 145.537 171.653C144.839 175.113 143.366 178.279 141.731 181.385C144.429 181.415 147.126 181.445 149.824 181.473C150.32 178.549 151.691 176.797 153.934 176.213L153.848 163.018C152.553 164.925 150.637 166.138 148.293 166.877ZM178.168 161.304C180.984 162.118 184.419 163.255 186.736 164.008C186.747 162.283 186.325 159.773 185.766 157.798C183.197 159.252 180.613 160.393 178.168 161.304ZM178.769 83.122L215.785 75.7386C226.76 91.8802 228.426 119.051 210.393 138.273C188.714 129.495 176.192 109.147 178.769 83.122ZM190.015 155.06C191.131 157.798 191.361 162.021 190.917 165.435C195.51 167.082 199.851 168.9 203.938 170.844C204.226 163.268 204.189 155.492 200.81 149.357C202.394 149.951 203.458 150.693 205.045 151.287C208.322 156.586 208.088 164.98 207.943 172.829C215.771 176.871 222.599 181.352 228.447 185.912C228.076 187.867 227.706 189.823 227.333 191.782C222.896 186.629 216.353 181.818 207.765 177.335C207.529 184.79 207.872 191.14 212.177 192.968L212.251 196.09C211.458 196.388 210.667 196.685 209.875 196.982C203.428 193.081 203.374 184.653 203.748 175.334C199.765 173.436 195.396 171.6 190.651 169.825C190.344 176.014 190.576 182.538 194.941 186.877C194.867 187.942 194.791 189.006 194.717 190.071C193.453 190.098 192.191 190.12 190.927 190.147C185.091 182.181 185.957 174.868 186.499 168.322C182.009 166.745 176.28 165.013 171.071 163.512C170.204 163.739 169.394 163.939 168.654 164.117C168.577 159.454 168.499 154.792 168.42 150.13C171.159 147.857 173.898 145.582 176.639 143.309C183.452 143.044 188.181 141.071 189.867 136.608C192.276 136.766 194.684 136.856 197.094 138.123C200.881 139.978 200.656 142.562 199.307 145.35C196.655 149.399 193.427 152.565 190.015 155.06Z" fill="#00ADEF"/>
<path d="M85.0606 146.558C85.8868 147.631 86.713 148.705 87.5393 149.779C99.9804 146.142 112.233 142.409 136.841 144.994C136.506 143.614 136.168 142.235 135.83 140.854C120.556 139.099 101.1 140.863 85.0606 146.558ZM153.855 139.375H164.932C164.967 140.703 165.002 142.028 165.037 143.355C160.373 143.38 160.176 148.835 164.983 149.271C164.949 150.459 164.914 151.646 164.881 152.832C161.17 152.903 157.46 152.971 153.751 153.042C153.716 151.906 153.681 150.772 153.646 149.638C159.129 149.056 159.31 143.586 153.802 143.512C153.821 142.134 153.837 140.753 153.855 139.375ZM205.787 170.456C207.756 170.456 209.354 172.052 209.354 174.023C209.354 175.992 207.756 177.59 205.787 177.59C203.818 177.59 202.22 175.992 202.22 174.023C202.22 172.052 203.818 170.456 205.787 170.456ZM188.55 163.77C190.519 163.77 192.115 165.367 192.115 167.336C192.115 169.305 190.519 170.903 188.55 170.903C186.581 170.903 184.983 169.305 184.983 167.336C184.983 165.367 186.581 163.77 188.55 163.77ZM109.487 39.4035C100.01 38.5562 101.025 27.0169 109.306 26.9308L109.356 30.2955L125.662 30.4115C126.837 31.6351 127.645 34.4988 127.626 35.9474L109.436 35.8524L109.487 39.4035ZM143.615 52.052C135.783 48.2443 135.147 18.8986 143.704 14.0889L147.785 18.4556C146.842 19.0762 144.553 19.6915 144.439 22.3847L144.088 43.162C144.172 45.5072 147.062 47.0419 148.189 47.5446L143.615 52.052ZM104.641 74.0266C106.555 74.0266 108.107 75.5806 108.107 77.495C108.107 79.4094 106.555 80.9635 104.641 80.9635C102.725 80.9635 101.172 79.4094 101.172 77.495C101.172 75.5806 102.725 74.0266 104.641 74.0266ZM88.2706 99.1197C90.9497 100.572 93.207 102.448 93.0927 106.702L96.5928 108.157C96.7897 102.187 94.4375 98.3796 89.5363 96.7289C89.5451 96.6287 89.5504 96.5285 89.5504 96.4265C89.5504 94.5121 87.9981 92.9598 86.0837 92.9598C84.1675 92.9598 82.6152 94.5121 82.6152 96.4265C82.6152 98.3427 84.1675 99.895 86.0837 99.895C86.9117 99.895 87.6746 99.6049 88.2706 99.1197ZM89.3166 113.953C91.3084 113.953 92.9239 115.571 92.9239 117.562C92.9239 119.554 91.3084 121.17 89.3166 121.17C87.3231 121.17 85.7075 119.554 85.7075 117.562C85.7075 115.571 87.3231 113.953 89.3166 113.953ZM215.392 113.834L209.445 115.114L210.918 121.681C211.326 123.323 211.827 123.831 213.061 124.547L202.807 126.818C203.716 125.424 203.857 124.468 203.577 123.392L202.13 116.582L194.423 118.19C193.003 118.707 192.664 118.86 191.749 120.133L189.814 110.749C190.598 111.309 191.201 111.406 192.706 111.274L200.666 109.692L198.79 101.205L191.319 102.72C190.211 102.991 189.297 103.476 188.52 104.787L186.469 95.4385C187.578 96.0644 188.622 96.2279 189.821 95.994L197.459 94.4506L196.262 88.3891C195.847 87.2798 195.397 86.6927 194.211 85.8348L203.85 83.8395C202.988 84.8908 203.268 86.1583 203.461 87.1093L204.663 92.8649L210.646 91.5253C212.391 91.1684 213.149 90.6551 214.102 89.3032L216.213 99.0388C215.014 98.0649 214.069 98.2618 212.75 98.3761L206.207 99.7209L207.881 107.938L214.605 106.58C215.754 106.34 216.64 106.085 217.342 104.719L219.425 114.175C217.996 113.164 216.463 113.635 215.392 113.834ZM109.108 194.322C106.341 198.292 102.508 200.958 98.3297 203.202C98.458 203.861 98.5828 204.522 98.7111 205.183L113.309 206.707C113.513 206.122 113.715 205.538 113.919 204.954C112.752 203.546 111.966 202.073 112.017 200.459L132.473 208.003L125.401 213.032L136.122 212.498L143.499 222.557L141.976 210.288L150.418 204.726L140.152 204.877L134.526 196.572L134.677 203.736C127.072 201.271 119.469 198.807 111.866 196.344C111.931 196.036 112.024 196.159 112.321 196.159C114.338 196.159 115.971 194.598 115.971 192.671C115.971 190.745 114.338 189.182 112.321 189.182C110.307 189.182 108.672 190.745 108.672 192.671C108.672 193.269 108.83 193.83 109.108 194.322Z" fill="#FDB913"/>
<path fill-rule="evenodd" clip-rule="evenodd" d="M272.072 10.2223H27.9298V172.182H27.9438L27.9298 173.351V173.794H27.9228V173.852H27.9298V173.855H27.9228V173.864C27.9263 205.567 41.6366 234.347 63.7518 255.205C85.8669 276.061 116.383 288.993 149.999 288.993V288.988H150.003V288.993C183.618 288.993 214.133 276.061 236.246 255.205C258.362 234.348 272.075 205.567 272.077 173.864V173.853V173.794H272.072V173.351L272.056 172.182H272.072V10.2223ZM153.23 62.8856C150.621 64.8457 148.681 67.3385 147.628 70.5345C150.395 74.9663 154.529 79.087 158.771 82.5326C160.259 80.3738 161.901 78.1218 163.695 76.4869C162.423 74.4934 163.859 73.0941 165.481 71.3062C161.357 68.5199 157.189 65.7528 153.23 62.8856ZM144.653 33.7773L144.685 38.3023C169.488 38.0737 194.163 37.8452 218.966 37.6202C223.362 37.5815 228.724 36.9047 232.135 33.6331C203.044 33.5997 173.742 33.8107 144.653 33.7773ZM144.653 28.4489V32.7735C173.777 32.7383 202.9 32.7049 232.024 32.6715C228.984 29.69 224.285 29.2751 220.254 29.2347L144.653 28.4489ZM121.404 51.596C129.329 52.0935 137.614 52.5962 139.996 48.8817C137.613 43.555 136.702 37.2158 136.908 30.1559C136.964 28.1799 137.544 27.7281 135.807 26.7911C135.485 26.6188 135.171 26.4395 134.882 26.2673C134.206 25.8594 133.552 25.4182 132.917 24.947C131.718 23.9889 131.402 25.2933 131.957 26.6153C132.291 27.4082 132.94 28.2063 133.901 28.5245C133.74 29.8113 133.62 31.1017 134.025 32.4729C134.146 32.9387 134.046 33.2675 133.346 33.213C130.213 32.8192 128.686 33.6314 128.185 35.2838C128.051 35.7251 128.1 36.4125 127.909 36.7465C127.759 37.0066 127.464 37.0541 126.822 36.6058L125.852 36.5373L123.375 36.3597C122.431 36.2156 122.266 36.5654 122.883 37.4075C124.328 40.1042 125.984 42.669 131.316 42.9609C131.275 43.1243 131.233 43.2896 131.192 43.4531C129.531 43.6447 127.713 43.6342 126.052 43.33C124.472 46.0232 122.985 48.9028 121.404 51.596ZM122.389 29.9432C123.322 29.9766 124.254 30.0082 125.185 30.0416C126.312 30.0803 126.942 30.9487 127.376 31.9789C127.986 33.1075 128.67 32.6012 129.594 32.3885C130.459 32.1898 131.361 32.1371 132.26 32.123C133.509 31.9929 133.321 28.8602 132.184 28.3311C131.423 27.976 131.266 27.3396 130.938 26.8175C130.741 26.5046 130.482 26.2321 129.995 26.0879C127.61 25.3812 123.616 27.4662 122.389 29.9432ZM143.565 15.0778C144.653 16.166 145.741 17.2559 146.828 18.3476C144.806 19.3637 143.452 20.8439 143.565 23.3438C143.607 29.8008 143.648 36.256 143.69 42.713C143.815 44.7803 144.481 46.6297 147.074 47.7109C145.987 48.8606 144.899 50.012 143.813 51.1653C136.633 47.4858 135.691 19.5413 143.565 15.0778ZM146.06 50.8225L147.967 54.9255C145.805 57.0861 143.022 58.4801 139.133 58.503C137.831 56.7661 136.857 54.9449 136.21 53.0428C137.79 52.3853 139.36 51.6856 140.858 50.6994C141.596 51.5116 142.438 52.271 143.505 52.9197C144.449 52.3132 145.279 51.5942 146.06 50.8225ZM149.753 54.9871C150.217 56.2089 150.592 57.4465 150.644 58.7491C147.383 61.2577 144.12 63.7663 140.858 66.2749C140.237 64.0529 139.437 61.8765 138.486 59.7371C142.521 59.767 146.295 58.329 149.753 54.9871ZM141.288 67.2629C143.045 68.4161 144.743 69.6573 146.336 71.0566C147.754 66.6793 150.416 63.4675 154.215 61.3105C153.22 60.6002 152.174 59.9937 151.015 59.614C147.772 62.1631 144.53 64.7139 141.288 67.2629ZM164.082 77.3431C164.631 78.0955 165.241 78.9235 166.048 79.5054C164.21 82.8209 162.528 86.4177 161.12 90.5102C159.926 88.5202 159.411 86.3034 158.995 84.0567C160.441 81.5042 162.206 79.203 164.082 77.3431ZM170.903 63.1141C170.952 63.4429 171.306 63.6767 171.279 63.9474C171.265 64.0951 171.146 64.2339 170.921 64.3676C170.465 64.5961 170.295 64.8246 170.409 65.0514C170.711 65.6614 172.039 65.7388 172.601 65.737C173.081 65.7352 174.709 65.6913 174.328 64.8738C173.869 64.3535 173.76 64.0828 173.674 63.4218C173.594 62.81 173.463 62.4637 172.302 62.3266C171.555 62.2351 170.796 62.3934 170.903 63.1141ZM173.057 61.6814C174.389 61.706 174.11 62.0172 174.25 63.1212C174.329 63.7452 174.561 64.3746 174.982 64.7262C175.388 65.0672 175.927 65.0795 176.465 64.9213C177.256 64.684 178.047 64.0757 178.411 63.587C178.735 63.151 178.798 62.7256 178.26 62.5252C177.722 62.3266 177.327 62.3477 177.13 62.7186C177.066 62.8364 176.987 63.5976 176.648 63.522C176.24 63.4306 176.541 62.8786 176.59 62.6746C176.961 61.1013 176.848 59.6422 174.693 59.3433C173.735 59.2115 172.487 59.3609 171.552 59.6088C171.082 59.7353 170.694 60.0148 170.509 60.3401C169.665 61.8273 172.38 61.6708 173.057 61.6814ZM172.772 53.3047C172.338 54.6847 171.722 55.9223 170.878 57.2039C170.527 57.682 170.254 58.2762 170.69 58.6999C171.056 58.9601 171.292 59.0392 171.793 58.9196C171.991 58.8739 172.246 58.7667 172.492 58.7157C173.021 58.6067 173.408 59.0339 173.946 58.7474C174.338 58.5346 174.514 58.0319 173.844 57.2882C173.572 57.0404 173.744 56.6817 174.287 56.9296C174.693 57.2935 175.017 57.7066 174.749 58.4678C176.785 58.6014 177.471 59.8935 177.545 61.713C178.306 61.5759 178.951 61.9416 179.543 62.534C181.112 61.437 184.132 57.7172 183.406 55.532C182.887 53.9604 180.869 53.978 179.522 53.8092L179.311 54.189C179.559 54.2698 180.192 54.3911 180.227 54.6618C180.259 54.9168 179.7 55.0451 179.03 55.1013C178.17 55.1734 177.13 55.1295 176.933 55.0943C176.105 54.9431 175.576 54.4966 176.347 53.3469C175.24 53.3258 173.879 53.3258 172.772 53.3047ZM177.68 43.8012C175.518 46.7809 172.875 49.7255 170.418 52.4117C178.469 52.2921 185.019 53.5473 189.82 56.244C189.683 57.6504 190.27 58.6753 191.113 59.1447C192.195 59.7476 193.757 59.4664 194.62 57.8385C195.557 56.07 194.947 54.5177 193.771 53.927C192.967 53.5227 191.897 53.5684 190.873 54.2997C185.737 52.1954 181.484 48.4211 177.68 43.8012ZM180.451 44.7997C182.88 48.2963 185.89 51.4342 190.984 53.2994C192.514 52.4714 193.822 52.6525 194.699 53.375C196.348 54.7357 196.116 57.1001 194.987 58.7227C193.994 60.1555 192.303 61.0116 190.594 60.0939C189.664 59.5947 188.998 58.5382 188.987 56.9665C188.507 56.5024 188.026 56.2616 187.547 56.244C183.246 64.0669 184.68 73.4316 194.147 72.0147C195.611 71.7967 197.965 71.5664 197.802 69.7979C196.749 69.8471 195.638 69.8594 194.762 69.5869C191.89 68.6904 193.528 65.4487 194.66 63.8243C195.632 62.432 196.879 61.1645 197.889 59.8303C199.343 57.9106 200.307 55.852 199.243 53.0779C197.279 48.0343 193.911 44.87 190.594 41.6354C186.9 42.0608 183.555 43.1912 180.451 44.7997ZM204.354 93.3581C203.893 91.2942 203.431 89.2304 202.966 87.1666C202.791 86.2331 202.865 85.2258 203.162 84.2905C200.537 84.8478 197.578 85.4543 194.952 86.0098C195.682 86.7323 196.2 87.5709 196.531 88.427C196.963 90.5348 197.396 92.6408 197.826 94.7486C195.013 95.3411 192.21 95.9669 189.392 96.5277C188.513 96.7017 187.718 96.417 187.036 96.1515C187.602 98.6232 188.168 101.478 188.738 103.948C189.195 103.291 190.017 102.677 190.852 102.459C193.581 101.745 196.353 101.223 199.102 100.606C199.793 103.749 200.482 106.894 201.173 110.039C198.51 110.59 195.856 111.179 193.183 111.69C192.176 111.882 191.195 111.718 190.316 111.395C190.896 113.891 191.374 116.72 191.953 119.216C192.577 118.558 193.54 117.952 194.514 117.752C197.17 117.2 199.841 116.737 202.506 116.231C202.993 118.479 203.534 120.717 203.967 122.978C204.176 124.075 204.078 125.188 203.485 126.295C206.298 125.634 209.262 125 212.073 124.339C211.092 123.477 210.58 122.403 210.329 121.327C209.824 119.168 209.406 116.99 208.944 114.821C211.28 114.334 213.616 113.845 215.953 113.357C216.93 113.202 217.95 113.251 218.858 113.506C218.291 110.899 217.8 108.239 217.234 105.632C216.563 106.286 215.459 106.759 214.381 107.074L207.592 108.484C206.95 105.474 206.31 102.464 205.668 99.4547C208.202 98.9308 210.735 98.4052 213.27 97.8796C214.093 97.8374 214.903 97.8462 215.655 98.2136C215.001 95.5995 214.502 92.8096 213.848 90.1955C213.105 91.1606 211.946 91.8199 210.767 92.059C208.629 92.4914 206.491 92.9256 204.354 93.3581ZM193.626 85.6828L204.468 83.3289C203.765 84.4189 203.562 85.6406 203.849 86.9802C204.225 88.7399 204.615 90.57 204.986 92.3314C206.894 91.9886 208.908 91.5702 210.802 91.1624C212.512 90.7932 213.549 89.7947 214.284 88.3989C215.098 92.2101 215.963 96.1269 216.777 99.9399C215.638 99.1488 214.309 98.581 212.992 98.7972L206.658 100.065L208.253 107.573C210.22 107.181 212.405 106.854 214.346 106.348C215.812 105.966 216.821 104.925 217.598 103.941C218.342 107.592 219.187 111.295 219.931 114.946C218.517 114.181 216.962 113.881 215.46 114.236L209.872 115.345L211.139 121.201C211.38 122.577 212.194 123.794 213.894 124.762C209.949 125.648 206.004 126.533 202.058 127.419C203.002 126.054 203.388 124.643 203.053 122.983L201.843 116.968L195.07 118.411C193.521 118.725 192.405 119.979 191.478 121.009C190.756 117.569 189.826 113.399 189.103 109.96C190.186 110.505 191.833 111.101 193.716 110.7L200.208 109.327L198.507 101.73C196.297 102.151 193.917 102.772 191.691 103.094C190.058 103.331 188.987 104.539 188.324 105.993C187.553 102.29 186.572 98.2241 185.8 94.5219C186.944 95.2321 188.481 95.7806 190.133 95.3991L196.884 94.056C196.634 92.335 196.299 90.6051 195.987 88.8946C195.745 87.5639 194.737 86.5636 193.626 85.6828ZM178.914 83.3465C190.381 81.084 204.12 78.331 215.587 76.0668C228.116 94.4023 226.038 121.853 210.248 138.089C186.166 128.396 176.333 104.49 178.914 83.3465ZM178.68 82.9527C190.467 80.5777 203.935 77.9144 215.724 75.5412C226.261 90.4838 229.259 119.005 210.454 138.687C180.695 127.114 176.107 96.2693 178.68 82.9527ZM177.625 81.9015C190.494 79.3964 203.362 76.8895 216.229 74.3844C226.599 88.2301 232.047 116.565 210.844 139.999C183.571 129.769 174.554 103.152 177.625 81.9015ZM184.589 55.1347C185.274 55.3176 185.96 55.5268 186.644 55.9329C182.627 66.238 184.522 71.417 190.464 73.0888C188.344 74.6376 186.681 76.4307 186.016 78.7653C171.546 82.4183 167.331 80.1101 165.07 76.7436C163.713 74.7255 164.465 73.5828 165.67 72.3329C167.108 70.8421 167.561 71.7651 169.196 72.5052C171.893 73.7234 175.252 73.0202 178.504 72.6265C179.051 72.4014 179.037 72.2327 178.464 72.1219C174.853 72.63 171.174 72.9956 168.35 71.0285C166.436 69.4867 166.519 67.7341 168.057 66.1923C177.349 67.7745 182.316 63.3778 184.589 55.1347ZM187.187 78.658C193.349 77.4081 199.51 76.16 205.672 74.9101C202.221 69.8102 188.426 72.7917 187.187 78.658ZM175.999 81.6852C174.976 90.0215 175.444 98.9871 178.091 107.868C176.07 107.83 174.284 106.937 172.28 107.842C171.566 108.164 170.936 108.746 170.437 109.841C170.049 111.377 167.573 111.379 166.45 111.555C165.698 105.804 163.838 100.678 162.474 95.4395C161.03 90.577 164.801 84.1464 167.06 80.0538C169.69 81.1614 172.691 81.6712 175.999 81.6852ZM170.982 110.931C171.768 109.201 173.19 108.408 175.055 108.837C176.223 108.993 177.488 109.15 178.654 109.308C180.004 112.789 181.549 116.322 183.683 119.685C181.681 120.54 180.677 123.616 177.875 122.183C176.523 121.341 175.166 120.533 173.783 119.863C172.272 119.133 170.121 118.868 169.154 117.419C168.895 116.952 168.793 116.558 169.78 116.688C170.815 116.895 172.211 116.475 173.174 115.707C175.948 113.497 173.408 111.075 170.982 110.931ZM177.562 123.282C171.991 127.223 169.275 132.003 169.414 137.622C176.641 134.994 184.787 134.632 193.127 136.052C193.057 134.29 192.987 132.26 192.918 130.499C189.694 127.506 186.959 124.478 184.561 120.977C182.414 121.461 180.473 125.283 177.562 123.282ZM183.917 263.189C182.688 264.617 181.533 266.12 180.489 267.734C177.627 267.734 174.593 267.663 171.731 267.663C173.384 264.657 175.4 261.917 178.065 259.651C180.252 260.138 182.379 261.224 183.917 263.189ZM186.617 262.184C183.97 264.497 182.099 267.395 180.558 270.265C186.317 270.334 192.074 270.404 197.833 270.474C198.718 265.072 190.562 262.71 186.617 262.184ZM201.87 221.872C205.886 224.377 209.518 227.266 209.656 231.471C209.712 233.239 209.105 234.865 208.434 236.467C206.628 240.767 204.09 244.849 201.673 248.894C200.388 250.595 199.444 251.503 197.622 252.663C193.073 255.562 187.992 257.849 184.48 261.985C182.986 260.793 181.403 259.531 179.332 258.529C182.27 255.569 186.123 252.951 190.605 250.569C192.855 249.288 194.527 247.524 195.62 245.278C197.538 241.874 199.454 238.469 201.374 235.066C202.24 233.527 202.995 232.202 203.316 230.43C203.842 227.534 203.13 224.926 201.87 221.872ZM206.162 152.252C208.147 158.477 208.748 164.643 208.578 170.868C209.153 171.478 209.645 172.487 209.856 173.099C216.735 176.515 222.257 180.53 227.843 184.874C227.866 181.711 227.893 178.547 227.919 175.386C229.691 176.949 230.401 177.846 231.456 179.959C239.319 194.364 254.93 198.562 262.568 190.897C258.849 191.445 254.74 192.238 251.766 188.877C261.167 188.895 265.882 182.096 266.434 169.23C266.501 167.678 266.327 165.927 267.283 164.599C263.352 164.262 266.687 174.277 258.954 175.766C266.431 171.818 264.265 163.133 261.028 157.155C259.687 154.676 258.086 152.26 256.275 149.892C254.482 147.551 252.785 145.749 251.69 142.95C249.018 146.517 255.231 152.552 257.395 155.071C257.47 155.324 257.546 155.579 257.623 155.834C253.845 151.838 250.171 147.51 247.151 142.897C242.02 135.055 241.067 127.633 243.398 120.54C235.805 123.061 233.852 132.483 234.46 145.047C231.328 141.985 230.25 137.404 230.581 131.784C227.327 137.924 226.474 143.771 229.181 148.866C232.607 155.314 240.905 161.88 245.379 167.562C247.439 169.849 246.548 171.505 244.043 172.487C239.52 174.265 235.193 173.108 230.96 170.545C223.51 165.988 217.311 160.066 211.143 155.207C209.603 153.995 207.843 153.141 206.162 152.252ZM204.334 170.03C205.468 169.727 206.845 169.761 207.713 170.264C208.226 164.028 207.152 157.671 204.904 151.793C203.97 151.23 202.833 150.775 201.898 150.39C204.021 156.847 204.837 163.604 204.334 170.03ZM208.529 177.201C214.975 180.994 221.633 184.519 227.272 190.746C227.734 189.278 227.973 187.776 227.727 186.21C222.244 181.465 216.218 178.141 209.923 174.516C209.935 175.722 209.329 176.401 208.529 177.201ZM186.61 157.949C187.055 159.748 187.359 161.5 187.296 163.3C188.432 163.06 189.632 163.191 190.58 163.71C190.944 161.113 190.583 158.571 189.622 156.07C188.729 156.717 187.595 157.397 186.61 157.949ZM179.942 161.295C181.987 160.512 183.673 159.429 185.577 158.54C186.22 160.168 186.322 161.68 186.271 163.495C184.107 162.653 182.103 162.135 179.942 161.295ZM186.695 171.023C185.747 178.767 187.396 184.755 191.204 189.285C192.269 189.376 193.19 189.483 194.254 189.575C194.307 188.766 194.36 187.959 194.41 187.152C191.023 184.057 189.935 179.147 190.102 171.22C188.959 171.517 187.63 171.557 186.695 171.023ZM204.027 177.705C203.647 185.709 204.213 193.087 209.875 196.357L211.712 195.717C211.721 194.896 211.846 194.306 211.856 193.488C207.237 190.508 207.145 184.593 207.142 177.965C206.14 178.167 204.949 178.043 204.027 177.705ZM190.903 170.671C190.596 177.614 191.38 183.587 195.58 186.528C195.449 187.868 195.321 189.209 195.191 190.551C193.734 190.589 192.215 190.466 190.759 190.505C185.554 184.82 184.942 177.789 185.877 170.359C185.253 169.785 184.743 169.024 184.506 168.323C180.039 166.711 175.651 165.487 171.183 164.151C170.509 164.645 169.832 165.141 169.157 165.635C169.17 166.909 169.184 168.186 169.194 169.462C168.104 170.854 167.013 172.248 165.923 173.639V195.197C169.242 195.605 173.352 195.332 177.574 194.963C177.882 192.331 176.739 190.412 175.502 188.812C175.11 188.467 175.358 187.806 176.212 188.518C179.225 191.301 179.993 198.565 180.943 202.705C181.233 203.971 181.563 205.389 182.073 206.578C182.917 208.541 184.341 209.976 186.132 211.076C187.864 212.137 189.789 212.973 191.575 213.947C194.193 215.376 196.801 216.864 199.393 218.444C201.302 219.608 203.09 220.838 204.839 222.231C205.937 223.104 207.099 224.168 208.483 225.875C209.64 227.304 210.556 228.58 210.942 230.416C211.264 231.945 211.116 233.461 210.311 234.953C208.407 239.475 205.807 243.84 203.227 248.208C202.024 250.246 201.277 251.501 199.335 252.902C195.353 255.776 190.65 257.446 187.28 261.041C191.587 261.706 195.471 263.546 198.238 266.683C200.702 262.516 204.146 261.595 207.739 265.768C210.909 262.316 209.726 258.643 209.81 255.525C209.847 254.12 210.171 253.524 210.935 252.411C211.412 251.833 211.744 251.958 211.324 252.527C210.726 253.529 210.542 254.669 210.767 255.945C211.002 257.277 211.213 257.184 211.8 256.133C212.667 254.581 213.535 253.028 214.404 251.474C219.129 243.792 223.788 236.099 228.756 228.577C229.406 227.591 230.065 226.32 229.638 225.145C229.448 224.62 229.243 224.089 229.044 223.56C228.355 221.702 228.492 221.478 226.492 220.684C222.295 219.015 219.655 217.941 217.575 214.482C215.81 211.546 216.134 209.319 217.83 206.471C220.667 201.703 224.194 196.661 226.857 191.776C224.322 188.771 218.581 183.77 208.138 178.145C207.708 184.42 208.53 190.725 212.591 192.532C212.605 193.871 212.676 195.067 212.69 196.41C211.714 196.851 210.911 197.067 209.935 197.51C204.775 194.471 202.168 188.578 203.313 177.329C202.749 176.817 202.026 175.838 201.773 175.175C198.122 173.433 194.553 172.085 190.903 170.671ZM205.806 170.745C207.586 170.745 209.035 172.192 209.035 173.973C209.035 175.756 207.586 177.201 205.806 177.201C204.025 177.201 202.58 175.756 202.58 173.973C202.58 172.192 204.025 170.745 205.806 170.745ZM192.742 166.8C192.837 168.045 192.521 169.024 191.858 169.889C195.235 171.162 198.468 172.472 201.748 173.938C201.652 172.693 202.204 171.906 202.972 171.042C199.663 169.691 196.052 168.151 192.742 166.8ZM190.436 155.432C191.35 158.285 191.661 161.129 191.25 164.265C191.582 164.622 192.137 165.071 192.28 165.522C196.139 166.978 199.658 168.323 203.401 170.123C203.794 164.816 203.805 159.742 202.13 154.437C201.346 151.958 200.672 149.546 197.884 148.679C195.62 151.193 193.175 153.489 190.436 155.432ZM168.867 196.951C169.3 197.366 169.565 198.015 169.803 198.632C170.172 199.597 170.462 200.488 171.176 200.304C173.318 199.785 175.468 199.279 177.715 199.07C178.422 199.036 178.633 198.753 178.619 198.358L178.445 197.029C178.388 196.376 177.981 196.327 177.56 196.296C174.663 196.514 171.764 196.732 168.867 196.951ZM188.607 164.25C190.309 164.25 191.687 165.628 191.687 167.33C191.687 169.03 190.309 170.41 188.607 170.41C186.908 170.41 185.529 169.03 185.529 167.33C185.529 165.628 186.908 164.25 188.607 164.25ZM173.385 163.608C175.066 163.205 176.697 162.703 178.243 162.024C180.568 162.817 183.323 163.592 185.649 164.385C184.965 165.231 184.518 166.132 184.453 167.252C180.825 166.001 177.017 164.861 173.385 163.608ZM168.968 150.606C168.983 154.801 169.003 158.992 169.02 163.184C175.627 162.286 184.327 158.663 191.056 153.384C194.198 150.919 199.746 146.38 199.437 141.85C199.277 139.55 197.315 138.782 194.49 138.14C193.11 137.827 191.728 137.627 190.503 137.604C187.298 142.389 182.5 143.878 177.056 144.026C174.361 146.22 171.664 148.414 168.968 150.606ZM168.713 139.418C168.765 142.618 168.82 145.816 168.873 149.015C171.684 147.073 174.324 145.03 176.597 142.766C180.646 142.704 184.362 141.871 187.389 139.424C187.906 139.005 189.188 138.035 188.971 137.283C188.555 135.845 180.609 136.382 179.482 136.486C175.801 136.827 172.204 137.761 168.713 139.418ZM171.416 120.339C172.234 120.503 173.09 120.752 173.828 121.334C168.811 124.567 165.879 130.433 164.683 138.703L162.43 138.673C163.013 131.29 165.371 124.986 171.416 120.339ZM174.415 121.628C170.416 124.548 167.73 128.732 166.36 134.174C165.334 138.256 165.545 142.226 165.545 146.403V172.034C166.385 171.225 167.508 169.879 168.066 168.787C168.016 161.152 167.964 153.516 167.913 145.881C167.893 142.971 167.776 140.06 168.14 137.166C168.857 131.457 171.13 126.809 176.377 122.655C175.894 122.138 175.171 121.842 174.415 121.628ZM154.359 153.47H164.476C164.581 174.648 164.856 196.007 164.977 217.203C164.993 219.812 165.079 222.429 164.836 225.033C164.363 230.087 162.932 234.391 160.767 238.121C157.339 234.823 155.829 229.277 155.382 223.208C155.192 220.619 155.217 218.013 155.183 215.419L154.359 153.47ZM164.397 143.908V148.523C161.104 148.424 161.183 144.088 164.397 143.908ZM154.431 144.351V148.876C158.061 149.029 158.457 144.434 154.431 144.351ZM154.415 140.032C157.768 139.983 161.118 139.934 164.471 139.884V142.845C160.208 143.402 159.603 148.98 164.471 149.792V152.399C161.118 152.42 157.683 152.454 154.329 152.473V150.07C159.072 149.68 159.926 143.499 154.415 143.08V140.032ZM115.736 195.169C115.35 195.67 114.828 196.09 114.24 196.473C115.061 196.84 115.879 197.206 116.698 197.572C116.949 197.125 117.201 196.681 117.452 196.236C116.881 195.881 116.31 195.524 115.736 195.169ZM99.1079 203.644C99.1325 204.089 99.1571 204.532 99.1817 204.976C103.737 205.409 108.293 205.839 112.848 206.272L113.365 204.716C111.276 202.382 110.735 199.753 111.503 196.826C110.556 196.559 109.664 196.211 109.111 195.45C106.546 198.987 103.149 201.587 99.1079 203.644ZM108.402 193.346C106.683 196.978 103.596 200.073 98.5049 202.383C94.9275 202.489 92.6368 204.401 90.529 206.571C89.7415 206.455 89.1578 206.105 88.641 205.678C87.7726 204.955 87.9782 204.692 88.6181 203.864C93.5633 197.479 99.7109 193.194 108.402 193.346ZM112.284 189.585C113.998 189.585 115.388 190.974 115.388 192.688C115.388 194.404 113.998 195.793 112.284 195.793C110.57 195.793 109.179 194.404 109.179 192.688C109.179 190.974 110.57 189.585 112.284 189.585ZM112.59 197.166C112.307 198.189 112.257 199.103 112.331 200.163L134.234 207.937L126.515 212.711L136.487 211.639L143.171 221.521L141.178 209.677L149.451 205.05L139.81 205.53L134.751 197.574L135.378 205.05L112.59 197.166ZM132.284 161.755L119.912 178.41L117.141 178.225L136.268 145.817C137.185 148.025 138.474 150.226 140.181 152.037C137.349 152.976 134.853 154.562 132.653 156.757C132.196 158.299 132.114 159.978 132.284 161.755ZM112.664 185.053L114.615 185.793L119.407 179.361L116.58 179.111L112.664 185.053ZM38.5479 157.39C41.6261 157.631 44.6726 158.332 47.3816 159.881C48.2448 158.858 49.0552 157.821 49.8938 156.792C50.1188 156.515 50.502 156.13 50.7446 155.717C51.214 154.918 50.6426 154.475 50.5354 153.695C50.4405 152.995 50.6778 152.385 51.3247 151.884C52.1633 151.232 53.2392 151.068 54.1287 150.457C54.9163 149.917 55.6933 149.177 56.4597 148.259C58.121 146.231 59.9018 143.968 61.5631 141.936C63.2033 139.934 65.0614 139.45 67.6404 139.151C69.9152 138.888 72.197 138.803 74.688 138.886C77.0525 138.965 78.6048 139.55 80.4067 141.043L84.3463 134.999C82.6393 132.833 80.3979 130.868 75.7657 129.808C72.7807 129.124 69.8642 129.535 70.3107 133.455C70.4215 133.839 70.3828 134.116 70.2808 134.273C69.8378 134.953 69.4229 133.443 69.3526 133.202C69.1786 132.608 69.0696 132.014 68.9553 131.42C60.9425 135.987 52.8647 140.329 45.1191 145.868C43.0834 147.324 40.2021 150.397 43.6547 152.394C44.1997 152.593 44.1364 152.946 43.4719 152.826C42.5191 152.564 41.7104 152.165 41.1321 151.529C40.0457 153.356 39.1983 155.317 38.5479 157.39ZM38.1049 158.867C36.2537 161.985 35.1163 165.22 34.2338 168.5C39.7292 166.916 43.6671 166.213 46.6573 161.351C44.4827 159.167 41.3342 158.934 38.1049 158.867ZM39.2968 186.787C42.3345 185.131 45.425 183.628 48.6069 182.399C49.7162 183.037 50.9151 183.686 51.8275 184.714C48.1165 188.815 44.2366 193.064 40.5273 197.167C39.8224 193.929 39.4304 190.454 39.2968 186.787ZM93.3347 154.862C93.8375 152.215 94.727 150.01 96.1106 147.802C108.269 144.974 121.253 143.766 135.317 145.485L111.816 184.811C108.903 183.865 105.85 182.826 102.937 181.88C103.86 179.901 105.124 178.582 107.362 178.046C110.22 177.362 109.779 176.46 106.859 177.093C105.201 177.454 103.146 178.69 100.581 182.83C99.9816 183.798 99.8972 184.403 98.628 184.595H95.0329C93.5844 184.595 92.8408 184.459 91.9354 183.278L79.2992 166.829C78.6417 163.067 77.3637 158.784 74.7672 156.462C71.4411 153.487 67.8636 154.569 65.1072 157.309C61.6158 160.785 58.673 164.879 55.906 169.172C55.3944 168.402 55.5104 167.655 55.7952 166.858C55.8954 166.577 55.9693 166.308 55.8445 166.243C55.5491 166.088 55.0428 167.045 54.9233 167.321C54.0513 169.328 55.5808 171.313 55.7917 173.63C55.9868 175.764 55.1448 176.953 53.9371 177.809C50.952 172.691 46.9808 177.362 47.7807 181.511C44.8677 182.627 41.9548 183.9 39.0383 185.458C38.6815 183.36 38.416 181.263 38.794 179.166C39.4708 179.758 40.1775 180.184 40.9352 180.333C41.4133 180.426 41.772 180.507 42.0286 180.498C42.6123 180.481 42.6615 180.2 42.3714 179.969C42.1517 179.795 41.6911 179.73 41.2165 179.533C40.0597 179.057 39.629 177.921 39.4603 176.775C38.9311 173.178 42.1165 169.174 44.5548 165.812C49.9201 158.415 55.5157 151.297 61.1869 144.661C61.4313 145.668 62.0588 146.494 62.8939 147.066C64.193 147.955 64.2317 147.303 63.4265 146.464C62.8148 145.824 62.3067 145.069 62.3085 144.128C62.3893 143.263 62.6478 142.6 63.0328 142.084C64.1631 140.568 66.7087 140.252 68.4473 140.211C71.6292 140.141 75.1434 139.807 77.8242 140.951C79.3431 141.598 80.8673 143.047 82.4072 144.694C85.5558 148.066 88.6006 152.622 90.6257 155.354C95.6869 157.476 99.3698 161.899 98.5067 168.267C98.1269 171.058 98.5471 171.354 99.2345 168.316C100.365 163.314 98.4961 158.52 93.3347 154.862ZM88.5461 150.153C89.6465 151.647 90.2653 153.401 92.1323 154.106C92.89 151.782 93.8516 149.938 94.8712 148.224C92.679 148.741 90.5642 149.376 88.5461 150.153ZM85.9583 146.981C86.4734 147.697 86.9903 148.41 87.5071 149.126C102.548 144.351 118.748 142.839 135.957 144.174C135.735 143.165 135.514 142.154 135.292 141.145C123.109 139.492 96.6397 141.934 85.9583 146.981ZM82.8977 139.828C82.5057 140.537 82.0469 141.357 81.5248 142.068C82.8397 143.622 83.8962 144.64 85.1391 146.014C100.739 140.922 117.465 139.07 135.269 139.97C135.188 137.803 135.331 135.611 135.883 133.443C117.767 132.673 100.068 133.974 82.8977 139.828ZM132.59 163.045C132.785 164.016 133.075 164.919 133.406 165.753C127.508 173.962 121.67 182.1 115.772 190.31C115.242 189.591 114.55 189.063 113.768 188.696C120.056 180.112 126.302 171.63 132.59 163.045ZM118.363 197.946C119.433 198.337 120.506 198.729 121.576 199.122C124.5 194.028 131.145 191.081 136.313 186.143C140.569 181.847 144.217 177.225 144.931 171.016C144.157 168.968 142.899 167.973 141.311 167.695C138.773 176.914 131.904 183.248 125.001 189.302C122.012 191.923 119.268 194.627 118.363 197.946ZM133.604 157.905C133.372 160.12 133.026 162.274 134.619 165.512C138.553 164.898 142.614 165.834 146.981 171.535C147.693 170.283 148.046 168.81 147.615 166.843C143.424 162.497 138.724 159.598 133.604 157.905ZM153.397 177.208C153.454 183.287 153.512 189.367 153.568 195.446C145.356 194.989 137.625 193.896 130.885 192.08C134.719 188.991 138.62 185.88 141.772 182.223C144.613 182.432 147.517 182.439 150.47 182.309C150.606 179.403 151.68 177.844 153.397 177.208ZM153.227 164.877C153.271 168.407 153.311 171.935 153.355 175.464C151.39 176.172 150.047 177.9 149.324 180.651C147.162 181.108 144.998 181.128 142.832 180.905C144.071 178.19 145.388 175.488 145.929 172.658C146.425 172.785 146.921 172.913 147.415 173.041C148.389 171.202 149.09 169.337 148.816 167.386C150.407 166.79 151.863 165.927 153.227 164.877ZM134.22 156.842C135.763 155.205 137.778 153.716 141.475 152.761C144.15 157.566 147.018 162.144 153.227 162.836C152.253 164.781 150.585 165.531 148.816 166.11C144.045 162.159 139.216 158.751 134.22 156.842ZM147.246 158.84C148.96 160.936 151.158 161.562 153.227 161.604C153.185 158.16 153.185 154.546 153.144 151.102C150.859 153.085 148.958 156.058 147.246 158.84ZM142.595 152.12C143.467 154.729 144.803 156.557 146.355 158.032C148.517 154.92 150.674 151.8 153.067 149.495C153.028 145.912 152.993 142.328 152.954 138.743C155.697 138.719 158.436 138.696 161.178 138.67C161.591 134.665 162.881 130.778 164.428 127.225C154.902 131.998 146.886 142.753 142.595 152.12ZM157.748 130.346C151.347 135.852 145.875 142.991 141.334 151.564C138.882 149.244 137.212 145.686 136.695 141.681C135.594 133.151 141.116 119.691 151.789 121.695C155.354 122.364 158.061 125.277 157.748 130.346ZM158.399 126.141C158.668 127.178 158.85 128.424 158.859 129.495C160.253 128.512 161.925 127.385 163.787 126.578C162.263 125.346 160.332 125.553 158.399 126.141ZM166.563 117.806C167.013 117.76 167.463 117.715 167.915 117.667C168.535 118.558 169.479 119.267 170.513 119.923C168.358 121.874 166.608 123.985 165.038 126.17C163.279 124.318 160.949 124.585 158.597 124.921C161.848 122.931 164.777 120.735 166.563 117.806ZM152.599 119.051L165.573 117.57C163.78 120.135 160.904 122.268 157.724 124.279C156.184 122.233 154.417 121.05 152.323 120.67C152.416 120.192 152.506 119.529 152.599 119.051ZM145.606 119.668C147.52 119.452 149.393 119.295 151.353 119.091C151.296 119.633 151.209 119.982 151.151 120.524C149.229 120.432 147.44 120.805 145.69 121.34C145.662 120.793 145.634 120.214 145.606 119.668ZM106.999 60.711C105.939 64.0335 109.039 64.3289 111.331 64.7191C131.379 68.1278 145.207 81.1543 146.009 113.923C147.779 113.782 149.744 113.661 151.513 113.522C151.377 108.281 151.567 103.329 147.123 101.174C148.596 100.706 150.614 102.521 151.172 100.564C149.572 99.7641 149.222 97.6686 148.869 95.7999C148.238 92.458 145.42 92.3877 145.288 91.0218C146.49 91.9148 147.668 91.6511 148.512 91.0007C146.17 90.1393 145.803 86.8097 144.896 84.8759C144.36 83.735 143.452 82.7382 141.223 81.9138C141.763 81.7204 142.254 81.7098 143.155 81.8013C140.046 76.9809 135.858 72.5245 130.431 68.9224C129.139 68.0628 127.728 66.9764 126.2 66.5C124.755 66.0482 123.501 66.6019 122.088 66.3716C123.007 66.0288 124.013 65.8073 124.365 64.6822C121.673 63.4376 119.156 63.4938 116.608 63.3304C116.869 62.8241 117.043 62.2984 117.03 61.7253C113.755 60.5844 110.41 60.2715 106.999 60.711ZM101.314 117.634C100.374 120.225 98.1656 122.029 97.5292 124.618C100.152 124.841 103.863 122.004 106.18 123.713C102.522 123.957 98.6895 125.427 95.2052 127.594C95.2246 125.26 97.2954 123.713 97.357 121.902C91.4854 123.061 88.4458 133.22 83.898 138.295C99.6318 132.912 117.542 131.413 136.218 132.165C138.005 127.475 140.596 123.521 144.84 121.624C144.781 121.006 144.755 120.45 144.697 119.833C128.89 120.615 114.666 119.548 101.314 117.634ZM93.2099 107.362C92.185 109.213 91.0881 111.273 90.0632 113.125C108.84 119.865 134.489 120.921 168.249 116.013C169.627 115.791 172.062 115.663 172.872 114.522C173.343 113.858 173.31 113.318 172.793 112.745C171.677 111.5 169.497 112.114 168.05 112.33C144.752 116.56 114.604 116.85 93.2099 107.362ZM89.3389 114.455C91.0582 114.455 92.454 115.851 92.454 117.57C92.454 119.292 91.0582 120.687 89.3389 120.687C87.6178 120.687 86.222 119.292 86.222 117.57C86.222 115.851 87.6178 114.455 89.3389 114.455ZM94.3122 99.2982C96.4815 101.404 97.0071 104.535 97.0335 107.652C98.9497 108.468 101.235 109.113 103.236 109.762C105.737 105.537 107.664 100.682 106.082 95.6558C102.998 97.0375 99.9429 97.1852 97.1126 96.8846C96.2934 97.6106 95.1296 98.5722 94.3122 99.2982ZM89.0945 99.1277C89.4549 98.6337 89.8206 98.0272 90.0052 97.4155C94.6567 99.1137 96.434 102.925 96.1106 107.295C95.3335 107.109 94.3649 106.638 93.7127 106.372C93.4121 102.874 91.5873 100.608 89.0945 99.1277ZM86.1974 100.432C87.0342 100.353 87.7972 100.001 88.5759 99.5725C89.3758 99.9381 90.1036 100.529 90.6626 101.227C89.9014 105.502 87.8745 107.605 85.387 108.419C84.2953 108.777 83.1368 109.018 82.0293 109.322C81.5546 109.45 81.1503 109.565 80.6616 109.377C80.0516 109.141 79.7369 108.552 79.8828 108.06C80.034 107.547 80.5966 107.411 81.0185 107.191C83.6624 105.826 85.2165 103.364 86.1974 100.432ZM109.837 30.845V35.2329H127.038C127.139 33.6525 126.499 32.1564 125.525 30.845H109.837ZM108.981 27.5664V38.5115C105.6 38.6081 103.248 35.7884 103.531 32.5186C103.789 29.5441 105.834 27.4152 108.981 27.5664ZM85.2094 100.33C84.7805 102.684 83.1333 104.37 81.3613 105.778C80.702 105.535 80.2889 105.119 80.1729 104.493C81.7076 103.247 83.2915 101.74 84.5115 100.033C84.7049 100.168 84.9862 100.242 85.2094 100.33ZM71.2354 94.5201C70.7572 94.9491 71.2178 95.5327 71.7435 95.1618C72.4343 94.4797 73.1498 94.1105 73.9392 94.7416C74.3927 95.1037 74.6652 95.596 74.623 96.1954C74.579 96.7773 74.3909 97.1676 73.86 97.4032C73.4276 97.5965 72.9231 97.6616 72.3834 97.6774C71.9034 97.7143 71.9298 98.1907 72.4361 98.2382C72.9775 98.2558 73.4891 98.196 73.9479 98.0009C74.5246 97.7548 74.9465 97.3135 75.1627 96.7193C75.4457 95.9388 75.1363 95.1266 74.6617 94.4973C73.7721 93.3229 72.5715 93.6657 71.2354 94.5201ZM90.9949 66.6459C89.6676 66.7162 88.8115 66.0728 87.9343 65.2026C87.6091 64.8791 87.5528 64.5996 87.8692 64.4168C91.3676 62.3969 94.2137 61.5126 98.2289 61.1241C98.9057 61.0942 99.4823 61.3105 99.8023 61.7253C100.386 62.4848 100.291 63.2055 99.8568 63.6732C99.5614 63.9931 99.1044 64.1953 98.5963 64.2093C97.0282 64.2726 95.6605 64.8299 94.2981 65.4188C93.2275 65.8829 92.1569 66.3664 90.9949 66.6459ZM98.2289 60.261C96.5553 58.8845 92.6368 58.4309 90.4411 56.9613C89.2774 56.5622 89.1455 57.3884 89.7186 58.1215C90.5167 59.1464 92.1411 60.1203 93.7953 61.0942C95.2738 60.8165 96.7505 60.5387 98.2289 60.261ZM86.665 77.4187C87.66 77.0442 88.6041 76.4237 89.077 75.3618C89.4057 76.2197 90.1546 76.879 91.2621 77.0178C89.149 79.4825 87.7602 78.8672 86.665 77.4187ZM121.488 29.5019H110.039V25.7504C106.052 25.666 103.742 27.0812 102.691 29.8904C101.877 32.0738 101.912 34.4101 102.861 36.5548C103.846 38.7769 105.904 40.2765 110.039 40.3784V36.7974H120.733C121.671 38.5835 122.679 40.3433 124.465 41.7901C124.658 41.9325 124.725 42.2014 124.667 42.5987C123.064 45.9318 121.415 49.2368 119.219 52.2306C118.841 52.5593 118.925 52.7615 119.47 52.8371C124.162 53.1764 128.986 53.3574 134.1 53.1904C134.519 53.1219 134.854 53.3065 135.107 53.7442C135.786 55.416 136.886 57.2373 137.901 58.7403C137.649 59.0216 137.161 59.3292 136.974 59.4628C138.365 61.9011 139.284 65.1411 139.748 67.9186C142.079 69.0402 144.226 70.596 146.306 72.3065L147.081 71.8828C150.041 75.6589 152.935 79.377 157.156 83.118C157.759 83.6541 157.971 84.3028 158.135 85.0763C158.439 86.5073 158.792 87.9278 159.19 89.3412C160.775 94.9983 165.149 106.596 165.213 111.753C161.058 112.399 157.022 113.067 152.949 113.346C152.752 109.593 152.362 105.511 150.644 102.774C151.485 102.093 152.061 101.243 152.567 100.478C149.428 97.9411 151.124 95.1125 148.726 92.6356C149.192 92.0607 149.54 91.4279 149.837 90.7686C146.446 89.0318 147.345 83.9442 144.49 82.1441C141.011 74.3844 132.819 68.773 125.676 64.8422C125.813 64.5223 125.806 64.2041 125.776 63.8841C123.438 62.8803 120.921 62.5182 118.412 62.1191C118.463 61.6462 118.275 61.1435 118.134 60.6741C113.987 59.2325 110.557 59.1956 106.641 59.4013C105.505 57.9123 104.076 56.7169 102.527 56.0208C99.4384 54.6302 95.5006 55.1277 93.2416 52.1761C92.2343 52.6877 91.524 53.194 91.1637 53.6651C90.4148 54.646 92.2009 56.3372 92.737 57.1634C91.3676 56.7714 89.8382 56.128 88.815 55.5162C88.0275 56.7485 88.0943 57.6768 88.5777 58.4749C89.1613 59.4382 90.566 60.1836 91.5908 61.0784C89.4549 62.1385 87.1045 63.4429 84.9686 64.5029C85.9531 65.8126 87.1537 66.9113 88.7763 67.771C83.9683 73.3191 79.0847 78.7635 74.2749 84.3134C72.7965 85.05 71.7101 86.7675 71.3075 88.3356C69.3737 90.0268 68.2117 91.7179 66.9618 93.7958C66.4274 94.9367 66.4186 96.2148 67.2888 97.7231C67.941 98.85 67.9146 99.0609 67.6949 100.392C67.3872 102.245 67.7916 104.055 68.9061 105.824C70.0154 107.578 71.3022 107.816 73.1727 107.279C74.2222 106.977 74.9974 106.358 75.2418 105.057C75.5793 103.271 76.5761 101.613 79.2306 100.249C79.4609 100.529 80.7477 101.969 80.7477 102.32C80.7477 102.798 78.9915 104.011 78.6136 104.338C78.9089 104.838 79.2025 105.337 79.4978 105.838C79.7211 106.221 79.809 106.443 79.4468 106.764C78.3657 107.731 78.0862 108.03 78.6663 109.197C79.2798 110.428 80.2116 110.954 81.7164 110.449C83.5148 109.846 85.3993 109.853 87.2047 108.828C89.8118 107.35 90.6644 105.245 91.3781 102.382C92.8671 104.039 92.9163 105.694 90.8349 109.006C90.0772 110.409 89.258 111.811 88.5513 113.216C85.7157 113.951 84.1195 116.975 85.445 119.645C86.113 120.995 87.5001 121.932 89.2949 121.848C90.6802 121.781 91.7491 121.197 92.4663 120.352C93.3875 119.267 93.725 117.706 93.3928 116.039L99.194 117.553C98.758 118.411 98.3203 119.269 97.8826 120.127C94.5284 120.686 91.7385 123.265 90.137 126.149C88.7412 128.661 87.1063 131.107 85.2727 133.492C82.2649 130.17 79.257 129.345 76.2491 128.429C74.2749 127.828 73.0373 127.624 71.1176 128.588C61.6457 133.331 52.1721 139.2 42.6984 145.951C41.837 146.733 41.1163 147.713 40.4957 148.875C39.731 150.306 39.1122 151.881 38.4424 153.364C36.2256 158.266 34.3305 164.169 32.0065 169.404C32.5778 171.035 33.1492 172.415 33.7223 174.047C35.4187 173.477 37.1186 172.906 38.8151 172.333C38.3668 173.945 37.581 175.727 37.4034 177.375C36.9464 181.611 38.409 190.679 39.2124 199.426C40.2707 200.436 41.2358 201.538 42.2958 202.547C47.0054 197.285 51.7115 192.022 56.4193 186.759C55.0762 185.263 53.6083 183.976 52.0859 182.78C51.2105 182.095 50.3631 182.051 49.5474 181.478C48.7353 180.908 48.9462 179.641 49.1835 178.818C49.943 176.211 52.8102 176.424 53.7419 180.001C55.6845 178.565 57.0627 176.308 57.0381 173.618C57.0293 172.769 56.7357 171.918 56.8043 171.079C56.8412 170.606 57.0205 170.158 57.4794 169.759C59.3076 166.684 62.7128 160.837 66.3061 157.939C67.556 156.931 68.827 156.279 70.0628 156.221C72.8176 156.077 74.7654 158.058 76.0452 160.324C77.1914 162.355 77.7961 164.802 78.16 167.44C82.2209 173.168 86.2343 178.913 91.1566 184.352C92.4663 185.8 93.0042 186.418 95.1349 186.381C96.5694 186.356 98.0074 186.33 99.4454 186.305C99.746 186.24 99.9939 186.145 100.198 186.024C100.964 185.57 101.639 184.498 102.219 183.833C102.452 183.473 102.902 183.406 103.381 183.38C107.383 184.909 110.605 185.706 111.973 186.44C113.064 187.028 112.574 187.671 111.99 188.494C109.935 188.655 108.77 189.761 108.267 191.542C99.5228 191.964 92.7195 196.561 87.1872 203.624C86.389 204.614 85.7861 205.203 86.9199 206.107C88.1575 207.096 89.4268 207.903 90.972 208.246C92.3204 206.448 95.3529 203.201 98.0654 204.052C98.1146 204.623 98.134 205.505 98.185 206.079C103.498 206.599 108.812 207.119 114.124 207.641L114.58 205.574L119.521 207.049C119.891 206.309 120.37 205.201 120.741 204.461L131.301 208.076L123.616 213.699L135.763 213.241L144.338 224.641L142.76 210.303L152.46 204.154L140.68 204.076L133.898 194.981L134.002 203.231L123.037 199.393C124.182 196.858 127.061 194.803 129.862 193.163C137.187 194.965 145.189 196.297 153.512 196.855C153.759 204.233 153.766 211.753 154.018 219.131C154.28 226.942 154.985 234.313 160.682 240.327C165.381 235.045 166.181 226.049 166.181 219.309V196.999C167.772 196.863 168.437 197.841 169.217 199.641C169.838 201.04 169.848 202.339 171.793 201.525C173.725 200.715 175.79 200.24 178.037 200.218C179.162 200.205 179.345 200.606 179.547 201.772C179.971 204.22 180.487 206.413 181.644 208.42C182.254 209.482 182.901 210.245 183.87 210.982C186.552 213.023 190.089 214.404 193.5 216.458C197.719 218.998 202.214 223.025 202.212 228.378C202.212 229.045 202.142 229.732 201.994 230.44C201.843 231.175 201.553 231.977 201.18 232.808C200.059 235.306 198.178 238.082 196.945 240.18C196.466 240.899 195.987 241.612 195.525 242.314C194.762 243.469 194.214 244.632 193.535 245.821C193.006 246.747 192.385 247.461 191.244 248.294C188.488 250.309 185.127 252.287 181.996 254.314C178.747 256.507 176.114 259.195 173.582 262.196C172.107 263.942 170.845 265.884 169.56 267.918C169.593 269.281 169.629 270.641 169.66 272.006H178.436C178.453 272.946 178.471 273.888 178.489 274.829H199.371C199.291 273.271 199.291 271.744 199.445 270.276C199.693 267.945 200.398 264.278 203.596 264.717C205.261 264.947 206.869 266.482 207.592 268.272C209.467 265.953 210.893 263.344 211.435 260.544C211.858 258.359 212.278 257.068 213.634 255.068C218.164 248.389 222.218 241.382 226.81 234.577C228.119 232.74 229.341 230.901 230.623 229.064C231.124 228.343 231.602 227.809 231.709 226.909C231.936 225.015 230.41 221.992 229.473 220.415C228.728 219.191 227.441 219.334 226.214 219.028C224.915 218.703 223.788 218.244 222.8 217.678C220.335 216.269 217.568 213.692 217.809 210.616C217.914 209.238 218.405 208.093 219.02 206.877C221.304 202.366 224.867 198.351 227.469 193.877C229.044 191.164 228.967 189.389 229.097 186.398C229.201 183.981 229.281 181.567 229.128 179.141C229.137 178.753 229.311 178.588 229.7 178.9C229.981 179.127 230.136 179.563 230.268 180.041C230.966 182.576 232.748 184.77 234.438 186.746C236.709 189.397 239.437 191.401 242.528 193.038C250.646 197.333 260.392 198.027 265.448 188.474C262.008 189.823 258.337 190.18 255.477 189.867C259.793 188.84 263.432 185.737 265.415 181.675C266.817 178.802 267.141 175.497 267.366 172.342C267.572 169.483 267.631 166.588 269.131 164.06C267.74 163.037 266.401 162.951 265.095 163.506C262.932 153.486 253.798 147.763 252.283 140.454C251.205 141.043 250.373 142.026 249.711 143.279C242.264 135.739 242.224 123.994 246.281 117.755C236.596 120.731 233.418 127.443 233.149 141.319C231.871 138.903 231.801 134.204 231.982 128.56C227.9 131.564 226.513 137.833 226.509 142.437C226.507 145.781 227.469 148.544 228.974 151.025C231.291 154.839 234.432 157.953 237.512 161.129C238.34 161.985 244.569 167.961 244.569 169.532C244.57 170.773 243.53 171.158 242.58 171.454C238.748 172.644 235.062 171.608 231.481 169.327C229.427 168.019 227.476 166.422 225.512 164.972C222.628 162.843 219.899 160.558 217.137 158.301C215.176 156.699 213.421 154.78 211.378 153.301C208.042 150.884 202.884 149.089 198.721 147.554C200.797 143.752 201.17 141.415 200.432 139.835C199.593 138.04 197.323 137.214 194.477 136.317C194.409 134.922 194.277 133.127 194.208 131.731C198.995 135.621 205.05 139.106 211.377 141.966C222.246 129.206 227.525 115.86 227.024 102.041C226.678 92.4299 223.533 82.5888 217.529 72.5597C214.031 73.0273 210.557 73.5933 207.061 74.2473C205.101 71.7176 201.961 71.3713 198.986 71.2517C199.15 70.3763 199.044 69.3865 198.839 68.5128C197.791 68.7537 195.122 69.0367 194.47 67.7885C193.669 66.2486 197.09 62.7151 197.939 61.5671C199.013 60.1168 200.103 58.9091 200.511 57.1072C200.848 55.6252 200.75 54.0817 200.265 52.4855C199.546 50.1193 198.16 48.24 196.664 46.315C194.941 44.0965 193.069 41.9782 191.097 39.9249C187.217 40.7423 183.624 42.1522 179.988 43.7713C179.164 43.1841 178.359 42.4018 177.78 41.6899C174.771 45.7121 171.561 49.6938 167.995 53.593C168.855 53.8971 170.258 53.7635 171.36 53.8215C171.095 55.0504 170.37 56.2809 169.611 57.3761C169.178 57.8824 169.133 58.5206 169.509 58.8352C169.859 59.0849 169.908 59.4136 169.762 59.7951C169.629 60.0641 169.555 60.0975 169.419 60.3664C169.249 60.8288 169.321 61.3368 169.81 61.6638C170.101 62.1736 169.706 62.5656 169.636 63.1827C169.574 63.7417 169.757 63.6521 169.398 64.0775C169.235 64.2691 169.129 64.5099 169.143 64.749C169.143 65.287 168.902 65.2641 168.398 65.2958C167.848 65.3169 167.424 65.4417 167.102 65.6263C165.763 66.4033 165.977 68.9769 166.181 70.2391C162.201 67.4598 157.592 65.2501 154.528 62.4707C155.05 62.084 155.57 61.6972 156.09 61.3122C154.811 60.268 153.439 59.3451 151.907 58.6384C151.492 56.506 150.857 54.8165 150.189 53.1904C149.686 53.4752 149.118 53.8883 148.614 54.1731C147.992 52.8283 147.432 51.3569 146.81 50.012C147.668 49.0487 148.526 48.0343 149.382 46.9866C145.228 46.5348 144.119 43.8803 145.096 39.7227C169.038 39.7227 192.823 38.965 216.766 38.965C219.866 38.9281 222.71 38.7136 225.391 38.13C229.067 37.3301 232.437 35.8394 235.738 33.1655C233.986 31.8453 232.157 30.6815 230.206 29.7849C228.685 29.087 227.091 28.5491 225.398 28.2221C219.521 27.3273 213.389 27.5207 207.444 27.4556C192.95 27.2974 178.455 27.1146 163.961 26.9599C157.69 26.8597 151.323 26.7911 145.052 26.6892C145.059 25.724 145.07 24.7607 145.079 23.7938C145.096 22.0851 144.813 21.2764 146.3 20.1988C147.086 19.6292 148.062 19.2231 149.182 18.9911C147.432 17.0063 145.683 15.0233 143.934 13.0386C141.327 14.9618 137.987 18.5885 137.252 25.6045C135.223 25.4111 134.431 24.0979 133.61 23.2541C132.845 22.4683 131.824 21.9673 130.985 23.0062C130.616 23.4651 130.336 24.0804 130.083 24.5023C126.384 25.2318 122.382 26.3675 121.488 29.5019ZM134.17 166.776C136.329 166.229 138.402 166.196 140.29 167.286C139.529 171.942 136.848 175.636 133.759 179.127C131.27 181.944 128.675 184.326 125.878 186.822C122.863 189.508 120.036 192.282 118.057 195.443C117.463 194.965 116.927 194.488 116.332 194.01C116.575 193.18 116.522 192.317 116.375 191.405C122.306 183.195 128.239 174.986 134.17 166.776ZM210.113 210.449C211.719 213.828 212.618 217.127 217.703 220.891C217.443 221.429 217.183 221.967 216.923 222.503C223.665 220.584 224.878 226.121 221.341 230.14C226.611 227.002 224.491 220.872 218.807 220.432C214.446 217.562 212.438 213.954 210.113 210.449ZM104.658 74.5672C106.303 74.5672 107.638 75.9015 107.638 77.547C107.638 79.1907 106.303 80.525 104.658 80.525C103.014 80.525 101.678 79.1907 101.678 77.547C101.678 76.7805 101.968 76.0826 102.444 75.5552C102.972 75.0489 103.696 74.678 104.503 74.5708C104.554 74.569 104.605 74.5672 104.658 74.5672ZM100.973 75.8224C101.449 74.8063 102.336 74.0188 103.418 73.6724C100.47 70.6523 97.5029 68.0856 94.1469 66.5632C92.4329 66.8691 91.2621 67.5583 90.5431 68.5673C94.3895 70.1952 97.8756 72.579 100.973 75.8224ZM100.618 78.0164C100.599 77.8634 100.59 77.7052 100.59 77.547C100.59 77.2833 100.616 77.0249 100.664 76.7752C97.4273 73.2453 93.1923 70.538 89.6624 69.3865C88.7342 70.3147 87.7778 71.2623 86.8268 72.2063C85.9179 73.1081 83.7204 74.576 84.5555 76.065C85.0266 76.9053 86.3486 77.3624 87.3612 76.2936C88.4687 75.1491 88.9961 73.516 90.0386 73.0114C91.2867 72.4085 92.737 72.7952 94.7376 74.3018C95.5005 74.8766 95.4232 74.8942 94.6585 75.1562C93.4244 75.5798 92.6544 76.5344 91.895 77.4925C88.8467 81.3424 86.1166 78.7213 83.5113 76.0475C80.8919 78.6492 78.3112 81.3846 75.9327 84.7652C79.3326 86.4651 82.7079 88.536 85.9619 92.131C90.6908 87.4883 95.882 82.6627 100.618 78.0164ZM105.31 81.5639C105.097 81.5973 104.881 81.6149 104.658 81.6149C104.343 81.6149 104.035 81.578 103.74 81.5112C99.1694 86.1083 94.4616 90.7651 89.8927 95.3622C90.0685 95.7261 90.1335 96.0882 90.0878 96.4503C91.19 97.0604 92.4065 97.7249 93.5105 98.4861C94.3368 97.7425 95.163 96.9988 95.9875 96.2552C95.5058 95.9669 95.2087 95.603 95.098 95.167C100.861 96.162 105.672 95.5679 108.763 92.0994C108.961 87.81 107.544 84.4505 105.31 81.5639ZM108.399 79.1467C107.989 80.1048 107.221 80.8748 106.261 81.2862C108.464 84.1692 109.394 87.8188 109.728 91.7654C110.601 91.5316 111.521 91.3206 112.44 91.1097C112.63 87.0136 111.739 82.8701 108.399 79.1467ZM108.676 76.9088C108.71 77.1163 108.727 77.329 108.727 77.547C108.727 77.8037 108.703 78.0568 108.655 78.3029C111.695 81.3442 113.451 85.6213 113.339 90.9585C114.107 91.3259 114.931 91.6951 115.7 92.0625C111.343 91.4806 108.763 92.6391 107.418 94.7311C108.868 100.068 107.384 105.251 104.691 110.192C117.512 113.866 131.066 114.84 144.871 113.995C144.465 90.3713 136.44 71.4539 114.135 66.7566C113.699 71.0126 111.47 74.133 108.676 76.9088ZM105.871 73.6619C106.078 73.7269 106.279 73.8096 106.472 73.9045C107.398 74.3229 108.156 75.0823 108.448 75.9683C111.276 73.2224 113.196 70.1636 113.323 66.3927C112.171 65.7528 110.985 65.5155 109.761 65.679C109.427 68.7062 108.64 70.9599 105.871 73.6619ZM104.658 73.4773L104.719 73.4791C107.391 71.3959 108.61 68.6394 109.007 65.505C108.773 65.2325 108.495 65.0954 108.198 65.0075C107.548 64.8106 106.808 64.8545 106.279 64.2322C105.697 63.5466 105.662 62.4549 105.53 61.2489C105.461 60.6249 105.319 60.0184 104.858 59.4242C103.723 57.9598 101.896 57.0597 99.8234 56.571C97.5117 56.0682 95.5955 55.3316 94.1504 54.319C93.6969 54.0044 93.1607 53.4313 92.5718 53.8426C92.3819 53.9762 92.2641 54.1995 92.2888 54.4702C92.3327 54.9607 92.8249 55.4195 93.1572 55.7412C94.502 57.0527 96.5272 58.053 98.5049 59.0761C99.7126 59.6527 100.945 61.3474 101.029 62.7819C101.086 63.7646 100.607 64.6277 99.2151 64.9301C97.4185 64.851 96.3039 65.3924 95.5006 66.2152C98.8477 68.1577 101.813 70.6488 104.544 73.4791L104.658 73.4773ZM82.6094 94.4498C83.1069 93.5655 83.9349 92.8922 84.9264 92.5987C81.8025 89.2286 78.4624 87.0857 75.2102 85.6424C74.0728 86.0995 73.454 86.9275 72.9389 87.8293C75.6637 88.6977 79.046 91.1202 82.6094 94.4498ZM82.1506 97.0287C82.1172 96.8195 82.0996 96.6068 82.0996 96.3888C82.0996 96.0232 82.1488 95.6681 82.2438 95.3323C79.6543 93.0575 76.6605 90.6702 73.9321 89.2234C73.2395 88.8542 72.64 88.6819 72.0687 89.3236C70.7819 90.7686 69.4634 92.0185 68.8428 93.272C67.9867 95.0053 67.9902 96.605 68.9483 98.0536C69.7447 99.2578 69.3772 98.8605 69.2225 100.198C69.0221 101.939 68.9254 103.681 70.3424 105.423C70.9102 106.121 71.6538 106.337 72.3394 106.209C73.2799 106.031 74.1167 105.203 74.2573 104.083C74.5738 101.538 76.7783 100.353 78.8966 99.0486C79.9865 98.3771 81.0817 97.7073 82.1506 97.0287ZM83.9578 99.7413C83.2774 99.3158 82.7377 98.69 82.4178 97.9446C81.5511 98.4931 80.7179 99.0891 80.0059 99.8502C80.6018 100.49 81.1187 101.17 81.5916 101.874C82.5426 101.364 83.2563 100.56 83.9578 99.7413ZM87.5229 92.7182C88.154 92.9713 88.706 93.3845 89.1279 93.9048C89.2985 94.0929 89.4496 94.2951 89.5745 94.5166L102.842 81.1877C101.954 80.743 101.253 79.9853 100.882 79.0571C100.834 78.9621 100.789 78.8637 100.746 78.7688L87.1379 92.5178C87.2663 92.5828 87.3963 92.6496 87.5229 92.7182ZM88.1734 94.165C88.7605 94.7258 89.1262 95.5151 89.1262 96.3888C89.1262 98.0853 87.7479 99.4617 86.0533 99.4617C85.9742 99.4617 85.8951 99.46 85.8159 99.4529L85.7931 99.4512C84.2549 99.293 83.0524 97.9921 83.0524 96.4117C83.0524 94.7258 84.4184 93.3599 86.106 93.3599C86.8971 93.3599 87.6179 93.6605 88.1593 94.1527L88.1734 94.165ZM112.59 201.126C112.54 202.026 113.107 202.963 113.845 203.865C115.592 204.495 117.341 205.124 119.091 205.753C119.36 205.112 119.632 204.472 119.903 203.828C117.514 202.939 114.979 202.014 112.59 201.126ZM275.5 7V175.404H275.481C275.041 207.387 261.041 236.375 238.672 257.473C215.938 278.911 184.566 292.203 150.003 292.205V292.21H149.999V292.205C115.436 292.203 84.0597 278.911 61.3275 257.471C38.9592 236.374 24.9588 207.385 24.5176 175.404H24.5V7H275.5Z" fill="#231F20"/>
<path d="M33.7793 169.851C34.0324 170.644 34.2856 171.439 34.537 172.233C36.2967 171.641 38.0564 171.047 39.8179 170.452C40.9694 169.257 41.8853 168.06 42.6922 166.866C39.7194 167.859 36.7503 168.856 33.7793 169.851Z" fill="#FDB913"/>
<path d="M40.3125 198.988L42.292 200.915L54.6539 187.002L52.7272 185.235C52.7272 185.235 40.3125 199.041 40.3125 198.988Z" fill="#FDB913"/>
<path d="M179.764 268.738L179.104 270.718H171.178V268.67L179.764 268.738Z" fill="#FDB913"/>
<path d="M179.799 271.48V273.596H198.006V271.411L179.799 271.48Z" fill="#FDB913"/>
</svg>
