<svg width="300" height="300" viewBox="0 0 300 300" fill="none" xmlns="http://www.w3.org/2000/svg">
<path d="M4.5 148.916L20.633 149.994L20.7916 147.637L14.4464 147.213L14.9377 139.437L21.6646 134.56L21.8649 131.572L14.7708 136.723C14.5317 135.045 13.6034 133.317 11.9176 132.733C10.4417 132.199 8.63268 132.106 7.35374 133.161C5.73238 134.354 5.43944 136.488 5.22944 138.346L4.5 148.916ZM6.95749 146.714L7.52349 138.77C7.72379 137.464 7.96338 135.953 9.10798 135.121C10.1425 134.436 11.6688 134.946 12.0922 136.114C12.9361 138.13 12.5612 140.353 12.4525 142.467L12.1455 147.06L6.95604 146.714L6.95749 146.714ZM6.60005 124.143L22.3431 127.82L25.921 112.497L23.6851 111.973L20.6408 125.008L15.849 123.889L18.5907 112.143L16.3645 111.624L13.6228 123.37L9.38249 122.38L12.3119 109.834L10.0649 109.309L6.60005 124.143ZM12.2711 103.002L27.5409 108.313L28.3169 106.082L22.3111 103.993L24.6745 97.0674C25.192 95.1648 25.5912 92.9415 24.4708 91.1713C23.5624 89.8633 21.9454 89.0261 20.3483 89.0761C18.5892 89.1503 17.1556 90.4453 16.3747 91.9458C15.2204 94.1152 14.5754 96.5014 13.7329 98.8003L12.2711 103.002ZM15.2214 101.528L17.6624 94.6507C18.2119 93.4396 18.8831 92.004 20.2765 91.6194C21.4211 91.3561 22.6225 92.2368 22.7224 93.4105C23.0022 95.5702 22.0579 97.6092 21.3949 99.6137L20.1339 103.237L15.2214 101.528ZM20.7053 83.4472L29.3349 88.4703C30.9679 89.3482 33.0369 89.8511 34.746 88.868C37.074 87.5779 38.5338 85.1966 39.677 82.8734C40.5805 80.9174 41.2338 78.4876 40.0844 76.4875C38.8476 74.4907 36.5987 73.5726 34.68 72.381L29.0914 69.1121L27.9046 71.1394L36.1268 75.9666C37.4314 76.7605 38.5115 78.1976 38.2865 79.7966C38.028 81.7012 36.9397 83.3711 35.8567 84.9119C34.9609 86.1569 33.4593 87.1638 31.8637 86.8276C30.2001 86.509 28.8484 85.4212 27.3871 84.634L21.8906 81.4185L20.7053 83.4472ZM32.3501 64.4173L45.1895 74.2419L51.1729 66.4431C52.3238 64.7907 53.3845 62.6441 52.6051 60.6168C51.8956 59.0032 50.2349 57.7553 48.4535 57.6743C47.6499 57.5613 46.6023 58.1705 46.1677 58.4392C46.6251 56.716 45.2137 55.0961 43.6263 54.6402C41.7154 53.9612 39.7788 55.1868 38.513 56.5448C37.0255 58.1632 35.7839 59.9868 34.423 61.71L32.3501 64.4173ZM35.6059 63.9357L40.1052 58.1545C40.8376 57.3397 42.0127 56.4167 43.1476 57.0147C44.1821 57.4624 44.4377 58.769 43.943 59.7079C43.1588 61.3894 41.8639 62.7523 40.7842 64.2427L39.0222 66.5479L35.6059 63.9357ZM40.8376 67.9384L45.5096 61.952C46.3501 61.0727 47.4059 59.965 48.7382 60.2191C49.878 60.481 50.7059 61.7163 50.313 62.8638C49.6714 64.9799 48.0883 66.5998 46.8128 68.354L44.8083 70.9764L40.8376 67.9384ZM46.9064 47.2692L58.008 59.0207L67.5189 50.0351L65.9412 48.3653L58.3349 55.553L58.1409 55.7373L57.9988 55.5884L48.6141 45.6556L46.9064 47.2692ZM61.1397 34.8158L70.9934 47.6329L72.9174 46.1537L63.0622 33.3385L61.1397 34.8158ZM75.6183 24.9835C74.0212 25.9777 72.7341 27.1417 71.7417 28.5012C70.7494 29.8606 70.2203 31.2657 70.1427 32.74C70.0651 34.2144 70.4594 35.6403 71.3276 37.0357C72.1077 38.2964 73.2107 39.3257 74.5222 40.017C75.8478 40.7265 77.2804 40.9884 78.8484 40.8138C80.4164 40.6392 82.1707 39.9491 84.1349 38.7249C86.0182 37.5512 87.3519 36.1995 88.1764 34.6446C88.9597 33.1863 89.1981 31.4967 88.8491 29.8786L86.6133 30.7564C87.1987 33.9865 85.1146 35.5385 82.7818 37.0192C79.1297 39.2405 75.5713 39.0804 73.3922 35.7422C71.1321 31.9801 73.6022 28.8712 76.7081 26.8507C78.9134 25.4767 81.0862 24.5358 83.1552 25.8516L84.9046 24.2933C83.7004 23.4625 82.3307 23.0774 80.7739 23.1618C79.138 23.2525 77.4288 23.8549 75.6183 24.9835ZM94.7225 15.4498L93.0298 33.5665L95.547 32.5514L96.0562 26.9351L96.0659 26.9302L104.243 23.6322L108.506 27.3245L111.023 26.3109L97.2396 14.4347L94.721 15.4498H94.7225ZM96.9341 17.3074L102.309 21.9585L96.2905 24.3869L96.9341 17.3059V17.3074ZM130.157 5.45545L131.165 21.5899L139.918 21.0162C142.211 20.7528 144.67 20.1577 146.236 18.3327C148.259 16.0905 148.546 12.7372 147.661 9.94557C146.917 7.48808 144.707 5.62762 142.204 5.15523C139.739 4.68139 137.227 5.05678 134.745 5.16833L130.157 5.45545ZM132.646 7.6006L139.612 7.23831C140.937 7.19283 142.239 7.59181 143.311 8.37175C144.928 9.47755 145.878 11.4694 145.667 13.424C145.55 15.671 143.898 17.739 141.714 18.3065C140.466 18.63 139.166 18.7221 137.887 18.8628L133.367 19.1455L132.645 7.60254L132.646 7.6006ZM152.691 4.5L151.769 20.6408L167.478 21.538L167.608 19.2454L154.244 18.4825L154.526 13.568L166.568 14.2567L166.698 11.9758L154.655 11.2871L154.904 6.94003L167.766 7.67383L167.899 5.37009L152.691 4.5ZM194.902 11.2352L189.056 26.3075L191.135 27.116L195.771 15.1642L196.012 14.5434L196.27 15.2335L201.844 31.2676L204.567 32.3234L210.412 17.2511L208.327 16.4426L203.695 28.3882L203.459 28.9978L203.203 28.3154L197.619 12.2891L194.902 11.2352ZM216.62 20.5651L209.271 34.9647L207.111 33.8623L214.461 19.4627L216.62 20.5651ZM228.815 27.7092C227.245 26.6746 225.649 25.9874 224 25.6542C222.351 25.321 220.852 25.4248 219.481 25.9695C218.11 26.5141 216.975 27.4667 216.07 28.8392C215.25 30.0741 214.775 31.5058 214.694 32.9859C214.604 34.486 214.961 35.8959 215.776 37.2491C216.591 38.6022 217.949 39.9083 219.877 41.181C221.732 42.4046 223.516 43.0531 225.274 43.1535C226.96 43.2471 228.493 42.7883 229.885 41.7761L228.155 40.1111C225.463 41.9914 223.184 40.745 220.864 39.2415C217.323 36.849 215.983 33.549 218.108 30.1754C220.585 26.551 224.44 27.4996 227.571 29.4804C229.743 30.9111 231.503 32.4922 231.17 34.9221L233.317 35.8615C233.569 34.4196 233.35 33.016 232.62 31.6357C231.855 30.187 230.596 28.8858 228.815 27.7106V27.7092ZM244.207 39.32L227.306 46.0615L229.358 47.84L234.589 45.7366L234.598 45.7448L241.257 51.5246L239.91 57.0002L241.96 58.7801L246.257 41.1L244.207 39.3215V39.32ZM243.56 42.1345L241.866 49.0375L236.964 44.784L243.56 42.1345ZM256.418 50.5526L243.944 60.8394L245.446 62.6616L250.352 58.6152L255.332 64.6084L253.785 72.7724L255.689 75.0844L257.316 66.4674C258.712 67.612 260.754 68.1877 262.424 67.2807C263.86 66.6017 265.124 65.2956 265.198 63.6321C265.373 61.4025 263.783 59.5969 262.511 57.943L256.418 50.5526ZM256.143 53.8409L261.39 60.3045C262.158 61.4491 263.117 63.0559 262.236 64.3916C261.508 65.5347 259.916 65.4343 258.938 64.6937C256.959 63.3614 255.651 61.3196 254.106 59.5464L252.128 57.1491L256.143 53.8409ZM275.329 76.2818L257.153 77.1146L258.508 79.4683L264.14 79.1933L264.145 79.203L268.542 86.8451L265.477 91.5787L266.83 93.9309L276.682 78.6341L275.329 76.2818ZM273.797 78.7296L269.933 84.6966L266.696 79.0706L273.797 78.7311V78.7296ZM285.702 97.6819C284.692 94.9383 283.098 92.1301 280.4 90.7595C277.399 89.2512 273.402 89.9835 271.275 92.6268C269.421 94.8253 269.326 97.9312 269.82 100.633C270.406 103.733 271.828 106.685 273.964 109.017L272.756 109.45L273.531 111.602L281.103 108.881L278.157 100.703L276.408 101.333L278.575 107.36L276.009 108.282C273.745 106.337 272.484 103.464 271.828 100.606C271.342 98.4604 271.322 95.8899 272.949 94.2035C274.816 92.2601 278.125 91.6573 280.364 93.3145C282.574 94.931 283.822 97.5519 284.453 100.158C284.883 101.871 284.813 103.908 283.513 105.245C283.15 105.517 283.725 105.897 283.824 106.224L284.441 107.246C285.124 106.707 285.675 106.02 286.051 105.236C286.428 104.453 286.62 103.593 286.614 102.724C286.659 101.004 286.281 99.2965 285.702 97.6834V97.6819ZM290.345 110.306L281.303 112.066C279.626 112.392 278.369 112.923 277.53 113.631C276.691 114.339 276.156 115.332 275.899 116.656C275.643 117.965 275.679 119.57 276.055 121.522C276.059 121.537 276.062 121.553 276.064 121.569C276.447 123.52 277.014 125.02 277.743 126.139C278.479 127.27 279.349 127.991 280.388 128.331C281.427 128.67 282.797 128.695 284.475 128.368L293.515 126.609L293.068 124.302L284.244 126.019C280.283 126.789 278.949 124.705 278.269 121.138L278.261 121.093C277.554 117.533 278.01 115.1 281.971 114.329L290.795 112.614L290.345 110.306ZM295.305 137.822L278.575 130.669L278.771 133.376L283.964 135.578V135.589L284.601 144.384L279.781 147.312L279.977 150.02L295.5 140.53L295.305 137.822ZM292.861 139.36L286.787 143.054L286.318 136.581L292.861 139.361V139.36ZM17.0324 179.642L14.6864 180.26L17.2797 190.109L19.6237 189.493L17.0324 179.642ZM283.025 179.642L285.369 180.26L282.778 190.109L280.434 189.491L283.025 179.642ZM42.0341 221.116L23.9596 223.195L25.4714 225.451L31.0717 224.79L31.078 224.799L35.991 232.123L33.2556 237.054L34.7688 239.309L43.5473 223.372L42.0341 221.116ZM40.6727 223.664L37.2292 229.882L33.6126 224.493L40.6727 223.664ZM48.9531 230.992L37.4314 241.768L38.9703 243.414L48.68 234.333L43.5861 248.349L45.35 250.236L59.2729 246.01L49.7378 254.928L51.2753 256.572L62.7974 245.799L60.4612 243.3L46.3137 247.525L51.6099 233.834L48.9531 230.992ZM65.736 248.115L56.0103 261.029L68.5815 270.494L69.9623 268.66L59.2695 260.609L62.2295 256.677L71.8649 263.932L73.2409 262.107L63.6054 254.852L66.2244 251.373L76.5161 259.123L77.9066 257.28L65.736 248.115ZM81.5538 259.692L73.9393 273.955L76.0214 275.067L79.0172 269.457L85.9042 273.101L87.5838 281.24L90.2255 282.649L88.4471 274.065C90.1751 274.59 92.2819 274.343 93.4799 272.868C94.4984 271.729 95.1905 270.132 94.7021 268.601C94.1346 266.494 92.0603 265.391 90.3095 264.37L81.5538 259.692ZM82.5514 262.836L89.8667 266.813C90.9725 267.561 92.3775 268.583 92.2383 270.09C92.1156 271.413 90.6897 272.117 89.485 271.836C87.1245 271.446 85.136 270.04 83.0345 268.99L80.1017 267.424L82.5514 262.836ZM99.8145 269.239L93.7049 284.208L95.9519 285.123L102.06 270.156L99.8145 269.239ZM114.394 274.275C112.607 273.682 110.89 273.434 109.21 273.539C107.539 273.644 106.111 274.136 104.928 275.018C103.744 275.901 102.897 277.115 102.38 278.674C101.909 280.08 101.821 281.586 102.128 283.037C102.43 284.508 103.142 285.779 104.278 286.874C105.414 287.968 107.067 288.878 109.26 289.606C111.369 290.304 113.262 290.469 114.983 290.107C116.636 289.761 117.997 288.92 119.08 287.581L116.977 286.421C114.865 288.937 112.34 288.325 109.71 287.475C105.668 286.084 103.518 283.246 104.694 279.435C106.144 275.293 110.114 275.207 113.653 276.307C116.12 277.125 118.231 278.195 118.54 280.628L120.857 280.977C120.728 279.519 120.149 278.221 119.088 277.078C117.973 275.876 116.419 274.948 114.394 274.275ZM130.648 277.914L120.075 292.723L122.762 293.111L126.026 288.512H126.037L134.764 289.776L136.59 295.111L139.277 295.499L133.335 278.302L130.648 277.914ZM131.626 280.63L133.931 287.355L127.508 286.426L131.626 280.631V280.63ZM168.544 278.029C166.696 278.384 165.078 279.01 163.665 279.924C162.252 280.838 161.253 281.961 160.653 283.309C160.053 284.657 159.91 286.132 160.222 287.745C160.498 289.202 161.159 290.558 162.136 291.674C163.119 292.81 164.431 293.611 165.89 293.966C167.409 294.363 169.301 294.348 171.573 293.91C173.752 293.489 175.482 292.705 176.807 291.548C178.079 290.436 178.855 289.035 179.143 287.339L176.743 287.355C176.132 290.584 173.63 291.285 170.921 291.833C166.716 292.598 163.452 291.174 162.612 287.276C161.849 282.953 165.269 280.935 168.894 280.162C171.445 279.669 173.81 279.569 175.27 281.54L177.462 280.71C176.635 279.496 175.417 278.601 174.011 278.175C172.45 277.674 170.64 277.624 168.545 278.028L168.544 278.029ZM179.34 276.117L183.938 291.616L199.023 287.139L198.37 284.937L185.538 288.744L184.138 284.027L195.702 280.596L195.052 278.406L183.488 281.836L182.25 277.662L194.601 273.997L193.943 271.782L179.34 276.117ZM196.829 270.62L203.616 285.293L205.64 284.356L199.98 272.119L215.636 279.336C215.983 279.638 216.331 279.436 216.68 279.25L218.715 278.309L211.929 263.636L209.9 264.574L215.554 276.796L199.474 269.396L196.829 270.62ZM214.582 262.281L215.848 264.205L221.623 260.406L221.843 260.261L221.951 260.427L229.463 271.841L231.426 270.549L223.914 259.136L223.805 258.969L224.029 258.824L229.833 255.004L228.565 253.08L214.582 262.281ZM230.849 251.142L241.805 263.033L243.543 261.433L239.233 256.757L244.943 251.456L253.179 252.552L255.381 250.524L246.69 249.373C247.757 247.914 248.218 245.843 247.22 244.227C246.464 242.832 245.09 241.64 243.424 241.656C241.19 241.606 239.473 243.292 237.892 244.654L230.849 251.142ZM234.147 251.236L240.313 245.643C241.412 244.812 242.964 243.767 244.348 244.572C245.528 245.235 245.517 246.832 244.83 247.847C243.608 249.9 241.637 251.319 239.951 252.961L237.671 255.062L234.147 251.236ZM249.657 232.318L256.889 249.013L258.609 246.912L256.352 241.743L256.359 241.735L261.941 234.911L267.454 236.098L269.174 233.996L251.375 230.218L249.658 232.32L249.657 232.318ZM252.49 232.882L259.441 234.374L255.33 239.397L252.49 232.882ZM256.698 223.159L270.262 231.953L277.38 220.976L275.454 219.729L269.76 228.509L269.614 228.735L269.443 228.622L257.978 221.188L256.698 223.159Z" fill="#C8A400"/>
<mask id="mask0_186_21485" style="mask-type:luminance" maskUnits="userSpaceOnUse" x="47" y="30" width="206" height="180">
<path d="M150.001 30.9729L47.0156 209.344H252.983L150.001 30.9729Z" fill="white"/>
</mask>
<g mask="url(#mask0_186_21485)">
<path d="M150.004 31.0264L99.1127 119.192L74.1836 162.36H225.824L202.037 121.161L150.006 31.0264H150.004Z" fill="white"/>
<path opacity="0.62" d="M150.006 31.0264L146.195 37.6256L150.006 126.505L153.816 37.6256L150.006 31.0264Z" fill="#17C0EB" stroke="#17C0EB" stroke-width="0.208551"/>
<path d="M150.006 113.585L149.789 113.59L150.006 118.619L150.222 113.59L150.006 113.585Z" fill="white"/>
<path opacity="0.62" d="M240.81 97.0007L233.357 95.416L150.004 126.505L235.712 102.664L240.81 97.0007Z" fill="#17C0EB" stroke="#17C0EB" stroke-width="0.208551"/>
<path d="M162.294 122.513L162.222 122.308L157.506 124.068L162.356 122.72L162.294 122.513Z" fill="white"/>
<path opacity="0.62" d="M206.124 203.75L205.328 196.171L150.003 126.506L199.163 200.651L206.124 203.75Z" fill="#17C0EB" stroke="#17C0EB" stroke-width="0.208551"/>
<path d="M157.598 136.958L157.771 136.827L154.639 132.886L157.42 137.082L157.598 136.958Z" fill="white"/>
<path opacity="0.62" d="M93.8821 203.75L100.844 200.651L150.003 126.506L94.6783 196.171L93.8821 203.75Z" fill="#17C0EB" stroke="#17C0EB" stroke-width="0.208551"/>
<path d="M142.407 136.958L142.585 137.082L145.366 132.886L142.234 136.827L142.407 136.958Z" fill="white"/>
<path opacity="0.62" d="M59.197 97.0008L64.2958 102.664L150.003 126.505L66.6508 95.4161L59.197 97.0008Z" fill="#17C0EB" stroke="#17C0EB" stroke-width="0.208551"/>
<path d="M137.715 122.513L137.653 122.72L142.503 124.068L137.787 122.308L137.715 122.513Z" fill="white"/>
<path opacity="0.62" d="M163.293 31.9554L158.601 37.9601L150.005 126.505L166.148 39.0207L163.293 31.9554Z" fill="#17C0EB" stroke="#17C0EB" stroke-width="0.208551"/>
<path d="M151.804 113.711L151.589 113.685L151.104 118.696L152.018 113.746L151.804 113.711Z" fill="white"/>
<path opacity="0.62" d="M244.033 109.925L236.872 107.319L150.004 126.505L238.195 114.824L244.033 109.925Z" fill="#17C0EB" stroke="#17C0EB" stroke-width="0.208551"/>
<path d="M162.729 124.261L162.687 124.049L157.771 125.136L162.762 124.476L162.729 124.261Z" fill="white"/>
<path opacity="0.62" d="M194.831 210.808L195.097 203.192L150.006 126.505L188.368 206.77L194.831 210.808Z" fill="#17C0EB" stroke="#17C0EB" stroke-width="0.208551"/>
<path d="M156.074 137.913L156.263 137.807L153.711 133.468L155.881 138.011L156.074 137.913Z" fill="white"/>
<path opacity="0.62" d="M83.6808 195.187L91.0061 193.087L150.006 126.505L85.524 187.793L83.6808 195.187Z" fill="#17C0EB" stroke="#17C0EB" stroke-width="0.208551"/>
<path d="M141.032 135.799L141.191 135.946L144.529 132.178L140.879 135.645L141.032 135.799Z" fill="white"/>
<path opacity="0.62" d="M64.186 84.6499L68.447 90.9676L150.002 126.505L71.7878 84.1179L64.186 84.6499Z" fill="#17C0EB" stroke="#17C0EB" stroke-width="0.208551"/>
<path d="M138.388 120.841L138.297 121.038L142.913 123.048L138.487 120.649L138.388 120.841Z" fill="white"/>
<path opacity="0.62" d="M176.323 34.7249L170.841 40.0182L150.005 126.505L178.167 42.1188L176.323 34.7249Z" fill="#17C0EB" stroke="#17C0EB" stroke-width="0.208551"/>
<path d="M153.568 114.085L153.358 114.03L152.18 118.925L153.775 114.15L153.568 114.085Z" fill="white"/>
<path opacity="0.62" d="M245.426 123.173L238.698 119.596L150.005 126.506L238.964 127.212L245.426 123.173Z" fill="#17C0EB" stroke="#17C0EB" stroke-width="0.208551"/>
<path d="M162.918 126.055L162.905 125.838L157.886 126.23L162.92 126.271L162.918 126.055Z" fill="white"/>
<path opacity="0.62" d="M182.661 216.226L183.985 208.722L150.006 126.505L176.824 211.328L182.661 216.226Z" fill="#17C0EB" stroke="#17C0EB" stroke-width="0.208551"/>
<path d="M154.425 138.647L154.627 138.568L152.704 133.916L154.22 138.716L154.425 138.647Z" fill="white"/>
<path opacity="0.62" d="M74.7673 185.288L82.3136 184.228L150.006 126.505L77.6216 178.223L74.7673 185.288Z" fill="#17C0EB" stroke="#17C0EB" stroke-width="0.208551"/>
<path d="M139.824 134.46L139.961 134.628L143.791 131.361L139.694 134.286L139.824 134.46Z" fill="white"/>
<path opacity="0.62" d="M70.8495 73.1142L74.1898 79.9635L150.005 126.505L78.4514 73.6454L70.8495 73.1142Z" fill="#17C0EB" stroke="#17C0EB" stroke-width="0.208551"/>
<path d="M139.293 119.281L139.176 119.463L143.467 122.096L139.418 119.104L139.293 119.281Z" fill="white"/>
<path opacity="0.62" d="M188.837 39.2806L182.671 43.7594L150.002 126.505L189.633 46.8592L188.837 39.2806Z" fill="#17C0EB" stroke="#17C0EB" stroke-width="0.208551"/>
<path d="M155.257 114.701L155.057 114.618L153.209 119.3L155.452 114.794L155.257 114.701Z" fill="white"/>
<path opacity="0.62" d="M244.961 136.485L238.796 132.006L150.005 126.505L238 139.585L244.961 136.485Z" fill="#17C0EB" stroke="#17C0EB" stroke-width="0.208551"/>
<path d="M162.856 127.856L162.874 127.64L157.85 127.329L162.829 128.071L162.856 127.856Z" fill="white"/>
<path opacity="0.62" d="M169.855 219.898L172.21 212.65L150.004 126.505L164.756 214.235L169.855 219.898Z" fill="#17C0EB" stroke="#17C0EB" stroke-width="0.208551"/>
<path d="M152.69 139.143L152.901 139.093L151.644 134.219L152.478 139.183L152.69 139.143Z" fill="white"/>
<path opacity="0.62" d="M67.3135 174.245L74.9339 174.245L150.001 126.505L71.1234 167.645L67.3135 174.245Z" fill="#17C0EB" stroke="#17C0EB" stroke-width="0.208551"/>
<path d="M138.814 132.966L138.926 133.151L143.173 130.449L138.709 132.776L138.814 132.966Z" fill="white"/>
<path opacity="0.62" d="M79.0497 62.617L81.4042 69.8645L150.005 126.505L86.5036 64.201L79.0497 62.617Z" fill="#17C0EB" stroke="#17C0EB" stroke-width="0.208551"/>
<path d="M140.403 117.86L140.261 118.024L144.144 121.228L140.551 117.702L140.403 117.86Z" fill="white"/>
<path opacity="0.62" d="M200.603 45.5344L193.874 49.1116L150.006 126.505L200.337 53.1501L200.603 45.5344Z" fill="#17C0EB" stroke="#17C0EB" stroke-width="0.208551"/>
<path d="M156.852 115.548L156.665 115.437L154.184 119.817L157.033 115.667L156.852 115.548Z" fill="white"/>
<path opacity="0.62" d="M242.652 149.604L237.171 144.31L150.009 126.505L235.327 151.705L242.652 149.604Z" fill="#17C0EB" stroke="#17C0EB" stroke-width="0.208551"/>
<path d="M162.545 129.631L162.593 129.42L157.66 128.413L162.488 129.84L162.545 129.631Z" fill="white"/>
<path opacity="0.62" d="M156.668 221.752L160.008 214.903L150.007 126.505L152.406 215.434L156.668 221.752Z" fill="#17C0EB" stroke="#17C0EB" stroke-width="0.208551"/>
<path d="M150.909 139.394L151.125 139.374L150.558 134.372L150.692 139.404L150.909 139.394Z" fill="white"/>
<path opacity="0.62" d="M61.4827 162.272L69.0289 163.333L150.009 126.505L66.174 156.267L61.4827 162.272Z" fill="#17C0EB" stroke="#17C0EB" stroke-width="0.208551"/>
<path d="M138.032 131.345L138.118 131.544L142.7 129.459L137.955 131.143L138.032 131.345Z" fill="white"/>
<path opacity="0.62" d="M88.6338 53.3639L89.9568 60.8686L150.007 126.505L95.7948 55.9699L88.6338 53.3639Z" fill="#17C0EB" stroke="#17C0EB" stroke-width="0.208551"/>
<path d="M141.701 116.607L141.538 116.75L144.937 120.464L141.87 116.472L141.701 116.607Z" fill="white"/>
<path opacity="0.62" d="M211.376 53.3639L204.215 55.9699L150.003 126.505L210.053 60.8685L211.376 53.3639Z" fill="#17C0EB" stroke="#17C0EB" stroke-width="0.208551"/>
<path d="M158.307 116.608L158.138 116.472L155.071 120.464L158.469 116.75L158.307 116.608Z" fill="white"/>
<path opacity="0.62" d="M238.53 162.272L233.838 156.267L150.003 126.505L230.983 163.333L238.53 162.272Z" fill="#17C0EB" stroke="#17C0EB" stroke-width="0.208551"/>
<path d="M161.981 131.345L162.058 131.142L157.314 129.459L161.896 131.544L161.981 131.345Z" fill="white"/>
<path opacity="0.62" d="M143.343 221.752L147.605 215.434L150.004 126.505L140.002 214.903L143.343 221.752Z" fill="#17C0EB" stroke="#17C0EB" stroke-width="0.208551"/>
<path d="M149.1 139.394L149.317 139.404L149.451 134.372L148.885 139.374L149.1 139.394Z" fill="white"/>
<path opacity="0.62" d="M57.3633 149.604L64.6884 151.705L150.006 126.505L62.8447 144.31L57.3633 149.604Z" fill="#17C0EB" stroke="#17C0EB" stroke-width="0.208551"/>
<path d="M137.471 129.631L137.528 129.84L142.356 128.413L137.423 129.42L137.471 129.631Z" fill="white"/>
<path opacity="0.62" d="M99.4073 45.5342L99.6729 53.15L150.003 126.505L106.136 49.1115L99.4073 45.5342Z" fill="#17C0EB" stroke="#17C0EB" stroke-width="0.208551"/>
<path d="M143.156 115.548L142.975 115.667L145.824 119.817L143.343 115.437L143.156 115.548Z" fill="white"/>
<path opacity="0.62" d="M220.964 62.6174L213.51 64.2014L150.009 126.505L218.609 69.8649L220.964 62.6174Z" fill="#17C0EB" stroke="#17C0EB" stroke-width="0.208551"/>
<path d="M159.61 117.86L159.461 117.702L155.869 121.229L159.751 118.024L159.61 117.86Z" fill="white"/>
<path opacity="0.62" d="M232.696 174.245L228.886 167.645L150.009 126.505L225.076 174.245L232.696 174.245Z" fill="#17C0EB" stroke="#17C0EB" stroke-width="0.208551"/>
<path d="M161.196 132.965L161.301 132.775L156.837 130.448L161.084 133.151L161.196 132.965Z" fill="white"/>
<path opacity="0.62" d="M130.152 219.898L135.251 214.235L150.003 126.505L127.797 212.651L130.152 219.898Z" fill="#17C0EB" stroke="#17C0EB" stroke-width="0.208551"/>
<path d="M147.315 139.143L147.528 139.184L148.362 134.219L147.105 139.094L147.315 139.143Z" fill="white"/>
<path opacity="0.62" d="M55.0509 136.486L62.0123 139.586L150.007 126.505L61.2157 132.006L55.0509 136.486Z" fill="#17C0EB" stroke="#17C0EB" stroke-width="0.208551"/>
<path d="M137.157 127.856L137.184 128.071L142.164 127.33L137.139 127.64L137.157 127.856Z" fill="white"/>
<path opacity="0.62" d="M111.172 39.2809L110.376 46.8595L150.007 126.505L117.338 43.7598L111.172 39.2809Z" fill="#17C0EB" stroke="#17C0EB" stroke-width="0.208551"/>
<path d="M144.753 114.702L144.557 114.794L146.8 119.301L144.952 114.618L144.753 114.702Z" fill="white"/>
<path opacity="0.62" d="M229.158 73.1144L221.556 73.6456L150.002 126.506L225.818 79.9637L229.158 73.1144Z" fill="#17C0EB" stroke="#17C0EB" stroke-width="0.208551"/>
<path d="M160.715 119.28L160.59 119.104L156.541 122.096L160.832 119.463L160.715 119.28Z" fill="white"/>
<path opacity="0.62" d="M225.244 185.288L222.39 178.222L150.005 126.505L217.698 184.228L225.244 185.288Z" fill="#17C0EB" stroke="#17C0EB" stroke-width="0.208551"/>
<path d="M160.187 134.46L160.317 134.286L156.22 131.36L160.05 134.628L160.187 134.46Z" fill="white"/>
<path opacity="0.62" d="M117.349 216.226L123.187 211.328L150.005 126.505L116.025 208.722L117.349 216.226Z" fill="#17C0EB" stroke="#17C0EB" stroke-width="0.208551"/>
<path d="M145.585 138.647L145.791 138.716L147.307 133.916L145.384 138.568L145.585 138.647Z" fill="white"/>
<path opacity="0.62" d="M54.5822 123.173L61.0445 127.212L150.003 126.505L61.3104 119.595L54.5822 123.173Z" fill="#17C0EB" stroke="#17C0EB" stroke-width="0.208551"/>
<path d="M137.09 126.054L137.087 126.271L142.121 126.23L137.102 125.838L137.09 126.054Z" fill="white"/>
<path opacity="0.62" d="M123.69 34.7251L121.846 42.119L150.008 126.505L129.172 40.0184L123.69 34.7251Z" fill="#17C0EB" stroke="#17C0EB" stroke-width="0.208551"/>
<path d="M146.447 114.086L146.24 114.15L147.834 118.925L146.656 114.03L146.447 114.086Z" fill="white"/>
<path opacity="0.62" d="M235.815 84.6502L228.213 84.1183L149.999 126.505L231.554 90.968L235.815 84.6502Z" fill="#17C0EB" stroke="#17C0EB" stroke-width="0.208551"/>
<path d="M161.611 120.841L161.511 120.649L157.086 123.048L161.701 121.038L161.611 120.841Z" fill="white"/>
<path opacity="0.62" d="M216.325 195.187L214.482 187.793L150 126.505L209 193.087L216.325 195.187Z" fill="#17C0EB" stroke="#17C0EB" stroke-width="0.208551"/>
<path d="M158.977 135.799L159.129 135.645L155.48 132.178L158.818 135.946L158.977 135.799Z" fill="white"/>
<path opacity="0.62" d="M105.175 210.808L111.637 206.77L149.999 126.505L104.908 203.193L105.175 210.808Z" fill="#17C0EB" stroke="#17C0EB" stroke-width="0.208551"/>
<path d="M143.934 137.913L144.127 138.011L146.297 133.468L143.745 137.807L143.934 137.913Z" fill="white"/>
<path opacity="0.62" d="M55.9703 109.926L61.8076 114.824L149.999 126.505L63.131 107.319L55.9703 109.926Z" fill="#17C0EB" stroke="#17C0EB" stroke-width="0.208551"/>
<path d="M137.276 124.262L137.243 124.476L142.234 125.136L137.318 124.049L137.276 124.262Z" fill="white"/>
<path opacity="0.62" d="M136.711 31.9553L133.856 39.0206L149.999 126.505L141.403 37.96L136.711 31.9553Z" fill="#17C0EB" stroke="#17C0EB" stroke-width="0.208551"/>
<path d="M148.199 113.711L147.985 113.746L148.9 118.696L148.414 113.685L148.199 113.711Z" fill="white"/>
<path d="M150.002 94.7813C132.809 94.7566 116.183 100.926 103.168 112.161L79.4744 153.234C78.6585 157.633 78.2526 162.098 78.2619 166.571H86.3954C86.3954 131.447 114.878 102.965 150.002 102.965C185.126 102.965 213.608 131.447 213.608 166.571H221.742C221.75 162.098 221.344 157.633 220.529 153.234L196.835 112.161C183.82 100.928 167.194 94.7584 150.002 94.7813Z" fill="#FF0000"/>
<path d="M150.003 96.094C130.984 96.094 113.725 103.652 101.048 115.898L81.5983 149.596C80.2215 155.149 79.5261 160.85 79.5273 166.571H86.3982C86.3982 131.447 114.879 102.965 150.003 102.965C185.127 102.965 213.609 131.447 213.609 166.571H220.48C220.48 160.711 219.758 154.989 218.409 149.546L198.959 115.898C186.283 103.654 169.021 96.094 150.003 96.094Z" fill="#FF6600"/>
<path d="M150.003 97.4084C129.468 97.4084 111.041 106.336 98.3695 120.548L84.2754 144.948C81.9881 151.928 80.8284 159.227 80.8399 166.571H86.3965C86.3965 131.447 114.879 102.965 150.003 102.965C185.127 102.965 213.609 131.447 213.609 166.571H219.166C219.166 159.017 217.969 151.754 215.73 144.948L201.635 120.545C188.966 106.337 170.535 97.4067 150.001 97.4067L150.003 97.4084Z" fill="#FFFF00"/>
<path d="M150.003 98.6711C126.481 98.6711 105.752 110.657 93.5719 128.832L89.0242 136.713C84.461 146.005 82.0926 156.221 82.1016 166.573H86.3971C86.3971 131.448 114.878 102.965 150.002 102.965C185.126 102.965 213.608 131.448 213.608 166.571H217.904C217.905 156.238 215.538 146.041 210.984 136.765L206.385 128.783C194.202 110.633 173.507 98.6728 150.003 98.6728V98.6711Z" fill="#00FF00"/>
<path d="M150.002 99.9839C113.227 99.9839 83.4141 129.795 83.4141 166.571H86.3952C86.3952 131.446 114.878 102.965 150.002 102.965C185.125 102.965 213.608 131.446 213.608 166.571H216.589C216.589 129.795 186.778 99.9839 150.002 99.9839Z" fill="#00CCFF"/>
<path d="M150.004 101.248C113.942 101.248 84.7305 130.51 84.7305 166.571H86.9033C86.9033 131.716 115.15 103.471 150.004 103.471C184.857 103.471 213.104 131.717 213.104 166.571H215.327C215.327 130.51 186.065 101.248 150.004 101.248Z" fill="#0000FF"/>
<path d="M150.003 102.562C114.656 102.562 86 131.218 86 166.565L86.0113 167.75H87.3063C87.2985 167.355 87.2947 166.96 87.295 166.565C87.295 131.933 115.37 103.857 150.003 103.857C184.635 103.857 212.71 131.933 212.71 166.565L212.699 167.75H213.987L213.998 166.565C213.998 131.218 185.349 102.562 150.003 102.562Z" fill="#800080"/>
<path d="M150.638 130.817C149.597 130.617 148.656 130.035 147.769 129.831C146.546 131.003 146.419 132.186 146.587 133.194C147.01 133.42 147.088 133.764 148.006 134.584C148.925 135.403 148.808 135.834 148.753 137.761C148.729 138.574 148.866 140.317 149.689 140.48C150.575 140.658 151.196 139.92 151.451 138.604C151.697 137.327 152.126 136.639 152.58 135.853C153.075 132.859 152.268 131.798 150.638 130.817Z" fill="#510000"/>
<path d="M145.426 123.364C144.464 123.388 142.955 125 142.284 124.132C141.898 123.634 141.833 122.674 142.224 121.869C143.128 120.008 144.042 119.095 145.728 118.102C149.572 115.837 152.017 116.566 153.931 119.82C155.706 122.685 157.41 125.851 157.562 128.504C157.61 129.314 158.019 130.78 157.31 131.511C155.13 133.758 149.879 129.191 146.806 129.913C145.771 130.156 144.58 130.911 143.605 130.266C142.845 129.765 143.479 128.654 144.045 128.174C145.034 127.333 146.472 124.35 146.276 123.057C146.168 122.336 146.147 123.346 145.426 123.364Z" fill="#FF0000"/>
<path d="M145.034 121.786C143.283 122.506 143.472 123.526 142.592 124.357C142.841 124.451 143.831 124.858 144.798 123.87C145.215 123.524 145.683 123.397 145.892 123.285C145.399 123.642 145.046 124.181 144.786 124.391C144.133 124.923 143.115 126.142 142.62 127.375C142.125 128.609 141.925 130.08 142.012 130.256C142.099 130.432 142.701 131.517 144.544 132.248C147.826 133.553 148.451 136.191 151.782 136.191C154.391 136.191 153.972 134.484 156.059 134.846C157.87 135.159 158.83 133.721 157.087 132.854C154.871 132.098 150.472 132.544 148.403 132.907C147.733 126.307 148.312 128.623 148.157 125.786C148.002 122.949 147.15 122.779 148.273 120.482C147.339 121.891 146.209 121.668 145.034 121.786Z" fill="url(#paint0_linear_186_21485)"/>
<path d="M151.518 117.335C151.454 117.696 151.394 118.17 151.428 118.305L151.877 119.912C152.063 120.456 152.139 120.85 152.265 121.413C152.398 121.995 152.914 122.221 153.387 122.58C153.985 123.033 153.523 124.256 153.896 124.308C154.194 124.349 154.685 122.575 154.689 122.292C154.699 121.942 154.679 121.592 154.629 121.246C154.414 120.769 154.185 120.299 153.94 119.836C153.841 119.649 153.731 119.467 153.612 119.292C153.255 118.77 152.828 118.3 152.341 117.896L152.251 117.82L151.832 117.518L151.518 117.335Z" fill="#FF2A2A"/>
<path d="M152.023 129.627C150.863 129.323 149.718 128.749 148.73 128.455C146.79 127.875 144.721 126.622 143.288 127.139C142.776 127.365 142.821 127.876 142.658 128.61C142.59 129.472 141.694 130.744 142.438 130.327C143.546 129.708 146.464 131.512 147.442 132.115C147.906 132.401 148.884 132.962 149.191 133.767C149.498 134.573 149.34 136.606 149.257 137.479C149.172 138.394 149.45 140.446 150.366 140.692C151.354 140.955 152.109 140.169 152.494 138.703C152.866 137.279 153.149 136.461 153.718 135.607C154.287 134.754 154.94 134.385 155.852 134.212C156.763 134.039 158.086 134.959 158.086 133.884C158.086 133.177 157.465 132.502 157.73 131.533C157.937 130.77 157.08 130.922 156.369 130.608C154.694 130.093 153.184 129.929 152.023 129.627Z" fill="url(#paint1_linear_186_21485)"/>
<path d="M147.355 132.059C146.826 131.771 143.612 129.669 142.435 130.327C142.064 130.534 141.923 130.301 141.918 129.912C141.913 129.522 142.094 128.951 142.216 128.512C142.337 128.072 142.531 127.231 143.05 126.795C144.16 125.857 146.718 127.724 148.074 128.227L147.355 132.059Z" fill="#910000"/>
<path d="M152.853 136.034C154.334 133.442 155.291 133.775 157.077 133.813C157.674 133.826 157.848 133.281 157.713 132.734C157.263 133.743 155.026 132.621 153.808 133.16C151.265 134.278 151.739 139.254 150.531 139.739C151.786 140.792 152.348 136.917 152.853 136.034Z" fill="#FF3A3A"/>
<path d="M74.1838 162.36L58.0898 190.226H241.919L225.823 162.36H74.1838Z" fill="white"/>
<path d="M68.6932 184.539C66.0127 184.539 63.5247 184.809 61.0787 185.11L60.293 186.477L71.836 185.331C77.1597 185.46 81.9936 186.673 87.6568 186.673H94.9738C100.632 186.673 105.464 185.46 110.79 185.331C116.117 185.46 120.981 186.673 126.638 186.673H133.962C139.62 186.673 144.428 185.46 149.748 185.331C155.072 185.46 159.885 186.673 165.542 186.673H172.886C178.545 186.673 183.378 185.46 188.709 185.331C194.037 185.46 198.861 186.673 204.523 186.673H211.846C217.503 186.673 222.314 185.46 227.633 185.331C231.756 185.431 235.587 186.168 239.736 186.501L238.903 185.058L231.841 184.539C229.369 184.507 226.933 184.587 224.49 184.539C218.832 184.539 214.024 185.748 208.704 185.879C203.375 185.75 198.546 184.539 192.883 184.539C190.437 184.507 187.984 184.589 185.566 184.539C179.907 184.539 175.069 185.75 169.745 185.879C164.42 185.75 159.586 184.539 153.929 184.539C151.468 184.507 149.011 184.587 146.578 184.539C140.92 184.539 136.108 185.75 130.791 185.879C125.466 185.75 120.655 184.539 114.998 184.539C112.537 184.505 110.106 184.589 107.681 184.539C102.019 184.539 97.1887 185.75 91.8601 185.879C86.5348 185.75 81.7026 184.539 76.0442 184.539C73.5869 184.507 71.1247 184.589 68.6932 184.539Z" fill="url(#paint2_linear_186_21485)"/>
<path d="M68.6932 182.74C66.0127 182.74 63.5247 183.01 61.0787 183.31L60.293 184.678L71.836 183.532C77.1597 183.661 81.9936 184.874 87.6568 184.874H94.9738C100.632 184.874 105.464 183.661 110.79 183.532C116.117 183.661 120.981 184.874 126.638 184.874H133.962C139.62 184.874 144.428 183.661 149.748 183.532C155.072 183.661 159.885 184.874 165.542 184.874H172.886C178.545 184.874 183.378 183.661 188.709 183.532C194.037 183.661 198.861 184.874 204.523 184.874H211.846C217.503 184.874 222.314 183.661 227.633 183.532C231.756 183.632 235.587 184.369 239.736 184.702L238.903 183.258L231.841 182.74C229.369 182.707 226.933 182.788 224.49 182.74C218.832 182.74 214.024 183.949 208.704 184.08C203.375 183.95 198.546 182.74 192.883 182.74C190.437 182.707 187.984 182.79 185.566 182.74C179.907 182.74 175.069 183.95 169.745 184.08C164.42 183.95 159.586 182.74 153.929 182.74C151.468 182.707 149.011 182.788 146.578 182.74C140.92 182.74 136.108 183.95 130.791 184.08C125.466 183.95 120.655 182.74 114.998 182.74C112.537 182.706 110.106 182.79 107.681 182.74C102.019 182.74 97.1887 183.95 91.8601 184.08C86.5348 183.95 81.7026 182.74 76.0442 182.74C73.5869 182.707 71.1247 182.79 68.6932 182.74Z" fill="url(#paint3_linear_186_21485)"/>
<path d="M68.6932 180.934C66.0127 180.934 63.5247 181.204 61.0787 181.504L60.293 182.872L71.836 181.726C77.1597 181.855 81.9936 183.068 87.6568 183.068H94.9738C100.632 183.068 105.464 181.855 110.79 181.726C116.117 181.855 120.981 183.068 126.638 183.068H133.962C139.62 183.068 144.428 181.855 149.748 181.726C155.072 181.855 159.885 183.068 165.542 183.068H172.886C178.545 183.068 183.378 181.855 188.709 181.726C194.037 181.855 198.861 183.068 204.523 183.068H211.846C217.503 183.068 222.314 181.855 227.633 181.726C231.756 181.826 235.587 182.563 239.736 182.896L238.903 181.453L231.841 180.934C229.369 180.901 226.933 180.982 224.49 180.934C218.832 180.934 214.024 182.143 208.704 182.274C203.375 182.144 198.546 180.934 192.883 180.934C190.437 180.901 187.984 180.984 185.566 180.934C179.907 180.934 175.069 182.144 169.745 182.274C164.42 182.144 159.586 180.934 153.929 180.934C151.468 180.901 149.011 180.982 146.578 180.934C140.92 180.934 136.108 182.144 130.791 182.274C125.466 182.144 120.655 180.934 114.998 180.934C112.537 180.9 110.106 180.984 107.681 180.934C102.019 180.934 97.1887 182.144 91.8601 182.274C86.5348 182.144 81.7026 180.934 76.0442 180.934C73.5869 180.901 71.1247 180.984 68.6932 180.934Z" fill="url(#paint4_linear_186_21485)"/>
<path d="M68.6932 179.133C66.0127 179.133 63.5247 179.403 61.0787 179.704L60.293 181.071L71.836 179.925C77.1597 180.054 81.9936 181.267 87.6568 181.267H94.9738C100.632 181.267 105.464 180.054 110.79 179.925C116.117 180.054 120.981 181.267 126.638 181.267H133.962C139.62 181.267 144.428 180.054 149.748 179.925C155.072 180.054 159.885 181.267 165.542 181.267H172.886C178.545 181.267 183.378 180.054 188.709 179.925C194.037 180.054 198.861 181.267 204.523 181.267H211.846C217.503 181.267 222.314 180.054 227.633 179.925C231.756 180.025 235.587 180.762 239.736 181.095L238.903 179.652L231.841 179.133C229.369 179.101 226.933 179.181 224.49 179.133C218.832 179.133 214.024 180.342 208.704 180.473C203.375 180.344 198.546 179.133 192.883 179.133C190.437 179.101 187.984 179.183 185.566 179.133C179.907 179.133 175.069 180.344 169.745 180.473C164.42 180.344 159.586 179.133 153.929 179.133C151.468 179.101 149.011 179.181 146.578 179.133C140.92 179.133 136.108 180.344 130.791 180.473C125.466 180.344 120.655 179.133 114.998 179.133C112.537 179.099 110.106 179.183 107.681 179.133C102.019 179.133 97.1887 180.344 91.8601 180.473C86.5348 180.344 81.7026 179.133 76.0442 179.133C73.5869 179.101 71.1247 179.183 68.6932 179.133Z" fill="url(#paint5_linear_186_21485)"/>
<path d="M68.6932 177.334C66.0127 177.334 63.5247 177.604 61.0787 177.904L60.293 179.272L71.836 178.126C77.1597 178.255 81.9936 179.468 87.6568 179.468H94.9738C100.632 179.468 105.464 178.255 110.79 178.126C116.117 178.255 120.981 179.468 126.638 179.468H133.962C139.62 179.468 144.428 178.255 149.748 178.126C155.072 178.255 159.885 179.468 165.542 179.468H172.886C178.545 179.468 183.378 178.255 188.709 178.126C194.037 178.255 198.861 179.468 204.523 179.468H211.846C217.503 179.468 222.314 178.255 227.633 178.126C231.756 178.226 235.587 178.963 239.736 179.296L238.903 177.852L231.841 177.334C229.369 177.301 226.933 177.382 224.49 177.334C218.832 177.334 214.024 178.543 208.704 178.674C203.375 178.544 198.546 177.334 192.883 177.334C190.437 177.301 187.984 177.384 185.566 177.334C179.907 177.334 175.069 178.544 169.745 178.674C164.42 178.544 159.586 177.334 153.929 177.334C151.468 177.301 149.011 177.382 146.578 177.334C140.92 177.334 136.108 178.544 130.791 178.674C125.466 178.544 120.655 177.334 114.998 177.334C112.537 177.3 110.106 177.384 107.681 177.334C102.019 177.334 97.1887 178.544 91.8601 178.674C86.5348 178.544 81.7026 177.334 76.0442 177.334C73.5869 177.301 71.1247 177.384 68.6932 177.334Z" fill="url(#paint6_linear_186_21485)"/>
<path d="M68.6932 175.528C66.0127 175.528 63.5247 175.798 61.0787 176.098L60.293 177.466L71.836 176.32C77.1597 176.449 81.9936 177.662 87.6568 177.662H94.9738C100.632 177.662 105.464 176.449 110.79 176.32C116.117 176.449 120.981 177.662 126.638 177.662H133.962C139.62 177.662 144.428 176.449 149.748 176.32C155.072 176.449 159.885 177.662 165.542 177.662H172.886C178.545 177.662 183.378 176.449 188.709 176.32C194.037 176.449 198.861 177.662 204.523 177.662H211.846C217.503 177.662 222.314 176.449 227.633 176.32C231.756 176.42 235.587 177.157 239.736 177.49L238.903 176.047L231.841 175.528C229.369 175.495 226.933 175.576 224.49 175.528C218.832 175.528 214.024 176.737 208.704 176.868C203.375 176.738 198.546 175.528 192.883 175.528C190.437 175.495 187.984 175.578 185.566 175.528C179.907 175.528 175.069 176.738 169.745 176.868C164.42 176.738 159.586 175.528 153.929 175.528C151.468 175.495 149.011 175.576 146.578 175.528C140.92 175.528 136.108 176.738 130.791 176.868C125.466 176.738 120.655 175.528 114.998 175.528C112.537 175.494 110.106 175.578 107.681 175.528C102.019 175.528 97.1887 176.738 91.8601 176.868C86.5348 176.738 81.7026 175.528 76.0442 175.528C73.5869 175.495 71.1247 175.578 68.6932 175.528Z" fill="url(#paint7_linear_186_21485)"/>
<path d="M68.6932 173.722C66.0127 173.722 63.5247 173.992 61.0787 174.293L60.293 175.66L71.836 174.514C77.1597 174.643 81.9936 175.856 87.6568 175.856H94.9738C100.632 175.856 105.464 174.643 110.79 174.514C116.117 174.643 120.981 175.856 126.638 175.856H133.962C139.62 175.856 144.428 174.643 149.748 174.514C155.072 174.643 159.885 175.856 165.542 175.856H172.886C178.545 175.856 183.378 174.643 188.709 174.514C194.037 174.643 198.861 175.856 204.523 175.856H211.846C217.503 175.856 222.314 174.643 227.633 174.514C231.756 174.614 235.587 175.352 239.736 175.685L238.903 174.241L231.841 173.722C229.369 173.69 226.933 173.77 224.49 173.722C218.832 173.722 214.024 174.931 208.704 175.062C203.375 174.933 198.546 173.722 192.883 173.722C190.437 173.69 187.984 173.772 185.566 173.722C179.907 173.722 175.069 174.933 169.745 175.062C164.42 174.933 159.586 173.722 153.929 173.722C151.468 173.69 149.011 173.77 146.578 173.722C140.92 173.722 136.108 174.933 130.791 175.062C125.466 174.933 120.655 173.722 114.998 173.722C112.537 173.688 110.106 173.772 107.681 173.722C102.019 173.722 97.1887 174.933 91.8601 175.062C86.5348 174.933 81.7026 173.722 76.0442 173.722C73.5869 173.69 71.1247 173.772 68.6932 173.722Z" fill="url(#paint8_linear_186_21485)"/>
<path d="M68.6932 171.923C66.0127 171.923 63.5247 172.193 61.0787 172.493L60.293 173.861L71.836 172.715C77.1597 172.844 81.9936 174.057 87.6568 174.057H94.9738C100.632 174.057 105.464 172.844 110.79 172.715C116.117 172.844 120.981 174.057 126.638 174.057H133.962C139.62 174.057 144.428 172.844 149.748 172.715C155.072 172.844 159.885 174.057 165.542 174.057H172.886C178.545 174.057 183.378 172.844 188.709 172.715C194.037 172.844 198.861 174.057 204.523 174.057H211.846C217.503 174.057 222.314 172.844 227.633 172.715C231.756 172.815 235.587 173.552 239.736 173.885L238.903 172.442L231.841 171.923C229.369 171.89 226.933 171.971 224.49 171.923C218.832 171.923 214.024 173.132 208.704 173.263C203.375 173.133 198.546 171.923 192.883 171.923C190.437 171.89 187.984 171.973 185.566 171.923C179.907 171.923 175.069 173.133 169.745 173.263C164.42 173.133 159.586 171.923 153.929 171.923C151.468 171.89 149.011 171.971 146.578 171.923C140.92 171.923 136.108 173.133 130.791 173.263C125.466 173.133 120.655 171.923 114.998 171.923C112.537 171.889 110.106 171.973 107.681 171.923C102.019 171.923 97.1887 173.133 91.8601 173.263C86.5348 173.133 81.7026 171.923 76.0442 171.923C73.5869 171.89 71.1247 171.973 68.6932 171.923Z" fill="url(#paint9_linear_186_21485)"/>
<path d="M68.6932 170.117C66.0127 170.117 63.5247 170.387 61.0787 170.687L60.293 172.055L71.836 170.909C77.1597 171.038 81.9936 172.251 87.6568 172.251H94.9738C100.632 172.251 105.464 171.038 110.79 170.909C116.117 171.038 120.981 172.251 126.638 172.251H133.962C139.62 172.251 144.428 171.038 149.748 170.909C155.072 171.038 159.885 172.251 165.542 172.251H172.886C178.545 172.251 183.378 171.038 188.709 170.909C194.037 171.038 198.861 172.251 204.523 172.251H211.846C217.503 172.251 222.314 171.038 227.633 170.909C231.756 171.009 235.587 171.746 239.736 172.079L238.903 170.636L231.841 170.117C229.369 170.084 226.933 170.165 224.49 170.117C218.832 170.117 214.024 171.326 208.704 171.457C203.375 171.328 198.546 170.117 192.883 170.117C190.437 170.084 187.984 170.167 185.566 170.117C179.907 170.117 175.069 171.328 169.745 171.457C164.42 171.328 159.586 170.117 153.929 170.117C151.468 170.084 149.011 170.165 146.578 170.117C140.92 170.117 136.108 171.328 130.791 171.457C125.466 171.328 120.655 170.117 114.998 170.117C112.537 170.083 110.106 170.167 107.681 170.117C102.019 170.117 97.1887 171.328 91.8601 171.457C86.5348 171.328 81.7026 170.117 76.0442 170.117C73.5869 170.084 71.1247 170.167 68.6932 170.117Z" fill="url(#paint10_linear_186_21485)"/>
<path d="M74.3898 162.058L74.191 162.405H225.819L225.618 162.058H74.3898ZM74.0357 162.667L73.8304 163.023H226.178L225.972 162.667H74.0374H74.0357ZM73.7124 163.226L73.381 163.802H226.629L226.297 163.226H73.7108H73.7124ZM73.1983 164.116L72.7942 164.817H227.216L226.811 164.117H73.1983V164.116ZM72.5533 165.234L72.1491 165.936H227.861L227.456 165.234H72.5533ZM71.9082 166.352L71.5089 167.047H228.499L228.1 166.352H71.9082ZM71.2648 167.47L70.8606 168.165H229.149L228.745 167.47H71.2648ZM70.5696 168.673L70.0781 169.53H229.93L229.44 168.673H70.5696ZM81.0618 169.864C86.6393 170.935 87.1761 169.864 87.1761 169.864H81.0618ZM212.826 169.864C212.826 169.864 213.361 170.935 218.94 169.864H212.826Z" fill="url(#paint11_linear_186_21485)"/>
<path d="M199.524 145.22C196.761 145.22 195.916 146.613 195.916 146.613C191.493 163.711 176.828 181.102 159.379 181.102H146.316V198.51H245.764L235.762 180.801C220.069 178.459 207.244 162.415 203.16 146.613C203.16 146.613 202.289 145.22 199.524 145.22Z" fill="url(#paint12_linear_186_21485)"/>
<path d="M199.526 145.902C198.258 145.902 197.489 146.193 197.039 146.476C196.613 146.743 196.53 146.922 196.52 146.942C196.52 146.953 196.496 146.958 196.491 146.967C194.228 155.573 189.455 164.216 183.018 170.744C176.532 177.324 168.355 181.786 159.406 181.786H147V197.826H245.383L236.2 181.566C228.623 180.577 221.693 176.452 216.059 170.744C209.615 164.216 204.853 155.573 202.586 146.967L202.559 146.942C202.547 146.922 202.445 146.772 202.012 146.504C201.555 146.219 200.793 145.902 199.526 145.902Z" fill="#97C924"/>
<path d="M199.522 145.902C199.759 145.902 199.974 145.936 200.178 145.957V163.419C200.131 167.202 198.836 170.246 196.925 173.832C196.041 176.344 195.331 175.389 193.126 178.451C190.167 179.508 187.975 179.92 184.82 180.416C180.75 181.06 171.69 181.629 167.219 180.636C173.105 178.91 178.472 175.35 183.015 170.742C184.23 169.51 185.38 168.215 186.459 166.862C188.272 164.582 189.899 162.16 191.325 159.62C191.894 158.608 192.434 157.602 192.937 156.559C193.692 154.998 194.364 153.407 194.958 151.806C195.158 151.271 195.354 150.728 195.533 150.193C195.892 149.119 196.207 148.043 196.49 146.967C196.493 146.958 196.515 146.951 196.516 146.94C196.518 146.929 196.61 146.743 197.035 146.476C197.325 146.306 197.638 146.177 197.965 146.093H197.992C198.4 145.985 198.888 145.902 199.522 145.902Z" fill="#EDE71F"/>
<path d="M198.404 148.225C197.738 157.98 194.723 169.552 187.663 177.018C185.065 179.18 181.746 181.141 178.535 180.664C189.48 171.756 196.133 158.116 198.404 148.225Z" fill="#C6CB24"/>
<path d="M189.602 165.005C187.982 169.404 181.861 175.911 175.311 181.244C173.451 181.301 172.465 181.407 170.777 181.306C174.767 180.942 184.068 173.088 189.602 165.005Z" fill="#9ECB34"/>
<path d="M174.724 145.22C171.961 145.22 171.115 146.613 171.115 146.613C166.692 163.711 152.027 181.102 134.578 181.102H121.516V198.51H220.964L210.961 180.801C195.268 178.459 182.443 162.415 178.359 146.613C178.359 146.613 177.488 145.22 174.724 145.22Z" fill="url(#paint13_linear_186_21485)"/>
<path d="M174.725 145.902C173.457 145.902 172.688 146.193 172.239 146.476C171.812 146.743 171.729 146.922 171.72 146.941C171.72 146.953 171.695 146.958 171.69 146.967C169.427 155.573 164.655 164.216 158.217 170.744C151.731 177.324 143.554 181.786 134.606 181.786H122.199V197.826H220.582L211.399 181.566C203.822 180.576 196.893 176.452 191.259 170.744C184.815 164.216 180.052 155.573 177.785 146.967L177.758 146.941C177.747 146.922 177.645 146.772 177.211 146.503C176.754 146.219 175.992 145.902 174.725 145.902Z" fill="#97C924"/>
<path d="M174.721 145.902C174.958 145.902 175.173 145.936 175.377 145.957V163.418C175.33 167.202 174.035 170.246 172.124 173.831C171.24 176.344 170.53 175.388 168.325 178.45C165.367 179.508 163.174 179.92 160.019 180.416C155.95 181.06 146.89 181.629 142.418 180.636C148.304 178.909 153.672 175.35 158.214 170.742C159.429 169.51 160.579 168.215 161.658 166.862C163.471 164.582 165.099 162.16 166.524 159.619C167.093 158.607 167.633 157.602 168.136 156.559C168.891 154.997 169.564 153.406 170.157 151.806C170.357 151.271 170.553 150.728 170.732 150.192C171.091 149.119 171.407 148.042 171.689 146.967C171.693 146.958 171.714 146.951 171.715 146.94C171.717 146.928 171.809 146.743 172.234 146.476C172.525 146.305 172.838 146.176 173.164 146.093H173.191C173.599 145.984 174.087 145.902 174.721 145.902Z" fill="#EDE71F"/>
<path d="M173.603 148.225C172.937 157.98 169.922 169.552 162.862 177.018C160.264 179.18 156.945 181.141 153.734 180.664C164.679 171.756 171.332 158.116 173.603 148.225Z" fill="#C6CB24"/>
<path d="M164.801 165.005C163.181 169.404 157.06 175.911 150.51 181.244C148.651 181.301 147.664 181.407 145.977 181.306C149.967 180.942 159.267 173.088 164.801 165.005Z" fill="#9ECB34"/>
<path d="M153.587 146.623C158.009 163.719 172.648 181.112 190.097 181.112H203.174V198.52H96.7775L96.75 181.112H109.8C127.247 181.112 141.912 163.719 146.337 146.623C146.337 146.623 147.2 145.223 149.963 145.223C152.726 145.223 153.589 146.623 153.589 146.623H153.587Z" fill="url(#paint14_linear_186_21485)"/>
<path d="M149.963 145.902C151.231 145.902 151.992 146.219 152.45 146.504C152.885 146.772 152.986 146.922 152.998 146.94L153.025 146.967C155.29 155.573 160.055 164.216 166.497 170.744C172.991 177.324 181.188 181.786 190.138 181.786H202.489V197.826H97.4375V181.784H109.845C118.794 181.784 126.971 177.322 133.457 170.742C139.895 164.216 144.667 155.573 146.93 146.967C146.935 146.956 146.955 146.951 146.958 146.942C146.968 146.922 147.05 146.743 147.475 146.476C147.928 146.195 148.696 145.902 149.963 145.902Z" fill="#97C924"/>
<path d="M148.81 146.007C148.678 146.032 148.548 146.062 148.419 146.096H148.389C148.065 146.179 147.753 146.307 147.465 146.478C147.038 146.745 146.957 146.921 146.947 146.94C146.943 146.95 146.92 146.956 146.918 146.968L145.96 150.196L145.384 151.805L143.365 156.561C142.859 157.598 142.321 158.619 141.751 159.623C140.326 162.162 138.698 164.582 136.885 166.861C135.806 168.215 134.656 169.512 133.442 170.746C128.899 175.353 123.535 178.91 117.648 180.635C122.119 181.629 124.167 180.544 128.236 179.901C131.392 179.403 135.042 178.991 138.006 177.933C140.211 174.871 139.459 175.832 140.343 173.319C142.253 169.734 145.041 166.494 145.733 162.518C148.351 157.633 148.81 148.592 148.81 146.007Z" fill="#EDE71F"/>
<path d="M148.83 148.225C148.164 157.98 145.149 169.552 138.089 177.018C135.492 179.18 132.172 181.141 128.961 180.664C139.906 171.756 146.558 158.116 148.83 148.225Z" fill="#C6CB24"/>
<path d="M140.028 165.005C138.408 169.404 132.287 175.912 125.736 181.244C123.877 181.301 122.891 181.407 121.203 181.306C125.191 180.942 134.495 173.088 140.028 165.005Z" fill="#9ECB34"/>
<path d="M151.538 146.094H151.567C151.891 146.178 152.202 146.306 152.49 146.476C152.917 146.743 152.999 146.919 153.009 146.938C153.012 146.948 153.035 146.956 153.038 146.967L153.995 150.194L154.572 151.803L156.592 156.559L158.205 159.623C159.631 162.162 161.258 164.582 163.071 166.861C164.151 168.214 165.3 169.51 166.515 170.744C171.058 175.351 176.422 179.547 182.306 181.272C170.594 181.317 165.511 180.253 161.254 174.779C156.997 169.305 155.424 166.909 154.561 163.564C153.698 160.219 151.286 152.943 151.538 146.094Z" fill="#EDE71F"/>
<path d="M152.387 148.225C153.053 157.98 155.976 167.635 163.036 175.103C165.634 177.264 168.953 179.225 172.163 178.748C160.305 170.662 154.657 158.116 152.387 148.225Z" fill="#C6CB24"/>
<path d="M125.351 145.22C122.586 145.22 121.716 146.613 121.716 146.613C117.637 162.371 102.599 182.694 86.9626 185.108L79.2188 198.51H158.46V180.164C144.193 176.331 132.771 161.362 128.959 146.613C128.959 146.613 128.113 145.22 125.351 145.22Z" fill="url(#paint15_linear_186_21485)"/>
<path d="M125.349 145.902C124.081 145.902 123.32 146.219 122.862 146.504C122.427 146.772 122.325 146.922 122.316 146.94L122.288 146.967C120.022 155.573 114.725 164.274 109.225 171.201C103.726 178.129 93.5114 185.132 86.5242 185.874L79.6016 197.826H157.299V180.539C151.553 178.776 146.305 175.258 141.856 170.742C135.419 164.216 130.646 155.573 128.383 146.967C128.38 146.956 128.359 146.951 128.356 146.942C128.346 146.922 128.262 146.743 127.837 146.476C127.384 146.195 126.616 145.902 125.349 145.902Z" fill="#97C924"/>
<path d="M123.244 148.227C122.246 162.846 114.105 181.294 104.911 184.473C101.912 185.507 96.6674 185.869 94.8438 186.102C110.926 178.454 120.432 160.473 123.244 148.227Z" fill="#93BC30"/>
<path d="M125.344 145.902C125.106 145.902 124.891 145.936 124.688 145.957V163.419C124.736 167.202 126.031 170.246 127.94 173.832C128.052 174.145 128.16 174.404 128.268 174.624C128.931 176.38 129.421 176.989 131.958 178.915C140.02 185.037 150.016 185.952 155.897 185.446C154.054 183.994 152.085 182.673 150.351 181.458C153.117 181.367 155.766 181.053 157.647 180.636C151.762 178.911 146.395 175.35 141.852 170.742C141.067 169.931 140.311 169.093 139.584 168.23L138.626 166.917C136.819 164.654 134.968 162.153 133.542 159.621C132.973 158.618 132.435 157.596 131.93 156.559C130.933 154.493 130.066 152.367 129.334 150.193C128.98 149.128 128.66 148.053 128.377 146.967C128.374 146.958 128.353 146.951 128.349 146.94C128.346 146.929 128.257 146.743 127.83 146.476C127.54 146.305 127.227 146.176 126.901 146.093H126.873C126.374 145.962 125.86 145.898 125.344 145.902Z" fill="#EDE71F"/>
<path d="M126.477 148.225C127.143 157.98 130.158 169.552 137.218 177.018C139.814 179.18 143.135 181.141 146.345 180.664C135.401 171.756 128.746 158.116 126.477 148.225Z" fill="#CCD11E"/>
<path d="M133.215 161.716C137.045 171.153 146.746 179.969 156.726 185.892C158.585 185.949 159.138 185.897 160.828 185.795C153.684 181.962 142.173 176.493 133.215 161.716Z" fill="#9ECB34"/>
<path d="M100.405 145.22C97.6407 145.22 96.771 146.613 96.771 146.613C92.6921 162.371 77.6538 182.694 62.0173 185.108L54.2734 198.51H133.515V180.164C119.248 176.331 107.826 161.362 104.014 146.613C104.014 146.613 103.168 145.22 100.405 145.22Z" fill="url(#paint16_linear_186_21485)"/>
<path d="M100.403 145.902C99.1358 145.902 98.3743 146.219 97.9168 146.504C97.4819 146.772 97.3801 146.922 97.3704 146.94L97.3429 146.967C95.0763 155.573 89.7801 164.274 84.2802 171.201C78.7803 178.129 68.5661 185.132 61.5789 185.874L54.6562 197.826H132.354V180.539C126.608 178.776 121.36 175.258 116.911 170.742C110.473 164.216 105.701 155.573 103.438 146.967C103.435 146.956 103.414 146.951 103.41 146.942C103.401 146.922 103.316 146.743 102.891 146.476C102.439 146.195 101.671 145.902 100.403 145.902Z" fill="#97C924"/>
<path d="M98.2986 148.227C97.3011 162.846 89.1595 181.294 79.9655 184.473C76.9666 185.507 71.722 185.869 69.8984 186.102C85.9811 178.454 95.4872 160.473 98.2986 148.227Z" fill="#93BC30"/>
<path d="M100.399 145.902C100.161 145.902 99.9459 145.936 99.7422 145.957V163.419C99.7907 167.202 101.086 170.246 102.995 173.832C103.106 174.145 103.215 174.404 103.323 174.624C103.986 176.38 104.476 176.989 107.012 178.915C115.075 185.037 125.071 185.952 130.952 185.446C129.109 183.994 127.14 182.673 125.405 181.458C128.171 181.367 130.821 181.053 132.701 180.636C126.817 178.911 121.449 175.35 116.906 170.742C116.122 169.931 115.365 169.093 114.638 168.23L113.681 166.917C111.874 164.654 110.023 162.153 108.597 159.621C108.028 158.618 107.49 157.596 106.985 156.559C105.988 154.493 105.12 152.367 104.388 150.193C104.034 149.128 103.715 148.053 103.431 146.967C103.428 146.958 103.407 146.951 103.404 146.94C103.401 146.929 103.312 146.743 102.885 146.476C102.595 146.305 102.282 146.176 101.955 146.093H101.928C101.429 145.962 100.915 145.898 100.399 145.902Z" fill="#EDE71F"/>
<path d="M101.531 148.225C102.197 157.98 105.212 169.552 112.272 177.018C114.869 179.18 118.189 181.141 121.4 180.664C110.455 171.756 103.801 158.116 101.531 148.225Z" fill="#C6CB24"/>
<path d="M108.27 161.716C112.099 171.153 121.801 179.969 131.781 185.892C133.64 185.949 134.193 185.897 135.882 185.795C128.738 181.962 117.228 176.493 108.27 161.716Z" fill="#9ECB34"/>
<path d="M241.345 189.919C240.417 190.247 234.198 189.612 230.945 189.848L228.876 190.391C227.06 190.378 225.258 190.43 223.492 190.391C217.669 190.391 212.743 191.924 207.204 191.924C201.654 191.924 196.744 190.391 190.916 190.391C189.106 190.378 187.305 190.432 185.533 190.391C179.71 190.391 174.787 191.924 169.243 191.924C163.7 191.924 158.778 190.391 152.955 190.391C151.127 190.38 149.331 190.428 147.543 190.391C141.719 190.391 136.821 191.924 131.282 191.924C125.743 191.924 120.845 190.391 115.022 190.391C114.59 190.391 114.187 190.406 113.767 190.419L112.867 190.391C112.673 190.391 112.508 190.386 112.317 190.391C112.129 190.386 111.935 190.391 111.743 190.391C111.45 190.391 111.185 190.412 110.898 190.419L109.637 190.391C103.808 190.391 98.8985 191.926 93.3485 191.924C87.7985 191.922 82.8838 190.391 77.0606 190.391C76.637 190.391 76.2167 190.407 75.806 190.419C75.515 190.412 75.258 190.391 74.9621 190.391C74.7616 190.391 74.5547 190.386 74.3575 190.391C74.1683 190.386 73.9743 190.391 73.7819 190.391C73.4893 190.391 73.1967 190.412 72.9089 190.419L71.6544 190.391C66.9983 190.391 61.6019 191.373 57.2078 191.765L47.0664 209.319L148.872 209.308L252.945 209.319L241.345 189.919Z" fill="white"/>
<path d="M227.59 187.363L226.627 187.375C221.389 187.528 217.632 189.177 208.52 189.177C199.409 189.177 198.466 187.53 188.176 187.756C178.562 187.968 174.526 189.796 169.309 189.724C164.092 189.651 155.611 188.597 149.085 189.279C142.558 189.961 134.813 191.355 129.728 191.366C123.409 191.339 117.086 190.186 110.48 190.842C103.875 191.499 100.785 193.267 92.595 193.243C85.5528 193.222 77.9108 192.115 71.9889 192.12C66.4356 192.124 60.2405 193.667 55.6831 194.452L54.3203 196.819C57.953 196.399 68.1445 194.85 71.7836 194.755C75.5731 194.656 89.1095 195.536 96.5753 195.28C104.041 195.025 104.914 193.385 113.741 193.385C119.886 193.385 124.518 194.03 130.823 194.03C134.758 194.03 138.329 192.023 144.311 192.023L148.828 191.875C153.87 191.043 162.382 191.948 168.305 192.251C173.665 192.53 177.128 191.256 182.717 191.07L189.95 190.831C195.543 190.645 200.332 191.866 205.599 191.84C210.853 191.517 215.95 190.349 221.539 190.163L228.798 189.924C232.495 189.801 238.235 190.05 242.173 190.734L240.815 188.39C236.969 188.267 232.229 187.363 227.59 187.363Z" fill="url(#paint17_linear_186_21485)"/>
<path d="M69.6737 206.177C64.0849 206.177 59.3238 207.556 54.0696 207.704C52.1134 207.651 50.2429 207.408 48.3547 207.147L47.5625 208.521L49.9681 208.623H57.2011C62.7899 208.623 67.5187 207.245 72.7761 207.095C78.0368 207.244 82.8092 208.623 88.4029 208.623H95.6359C101.225 208.623 106.002 207.244 111.263 207.095C116.527 207.244 121.335 208.623 126.923 208.623H134.15C139.739 208.623 144.498 207.244 149.754 207.095C155.013 207.244 159.763 208.623 165.353 208.623H172.612C178.203 208.623 182.975 207.244 188.24 207.095C193.506 207.244 198.28 208.623 203.874 208.623H211.1C216.687 208.623 221.447 207.244 226.703 207.095C231.962 207.244 236.742 208.623 242.33 208.623H249.563L252.437 208.498L251.688 207.21L246.459 207.704C241.198 207.556 236.443 206.177 230.854 206.177C228.413 206.144 226.009 206.225 223.596 206.177C218.005 206.177 213.254 207.556 207.996 207.704C202.731 207.557 197.963 206.177 192.37 206.177C189.951 206.144 187.531 206.225 185.138 206.177C179.548 206.177 174.77 207.556 169.51 207.704C164.249 207.556 159.472 206.177 153.883 206.177C151.453 206.144 149.028 206.225 146.624 206.177C141.034 206.177 136.277 207.556 131.023 207.704C125.764 207.556 121.01 206.177 115.421 206.177C112.986 206.144 110.587 206.225 108.188 206.177C102.594 206.177 97.8265 207.557 92.561 207.704C87.3003 207.556 82.5247 206.177 76.9342 206.177C74.506 206.144 72.0729 206.225 69.6737 206.177Z" fill="url(#paint18_linear_186_21485)"/>
<path d="M69.6737 204.093C64.0849 204.093 59.3238 205.472 54.0696 205.62C52.1134 205.567 50.2429 205.325 48.3547 205.063L47.5625 206.437L49.9681 206.539H57.2011C62.7899 206.539 67.5187 205.161 72.7761 205.011C78.0368 205.16 82.8092 206.539 88.4029 206.539H95.6359C101.225 206.539 106.002 205.16 111.263 205.011C116.527 205.16 121.335 206.539 126.923 206.539H134.15C139.739 206.539 144.498 205.16 149.754 205.011C155.013 205.16 159.763 206.539 165.353 206.539H172.612C178.203 206.539 182.975 205.16 188.24 205.011C193.506 205.16 198.28 206.539 203.874 206.539H211.1C216.687 206.539 221.447 205.16 226.703 205.011C231.962 205.16 236.742 206.539 242.33 206.539H249.563L252.437 206.414L251.688 205.126L246.459 205.62C241.198 205.472 236.443 204.093 230.854 204.093C228.413 204.06 226.009 204.141 223.596 204.093C218.005 204.093 213.254 205.472 207.996 205.62C202.731 205.473 197.963 204.093 192.37 204.093C189.951 204.06 187.531 204.141 185.138 204.093C179.548 204.093 174.77 205.472 169.51 205.62C164.249 205.472 159.472 204.093 153.883 204.093C151.453 204.06 149.028 204.141 146.624 204.093C141.034 204.093 136.277 205.472 131.023 205.62C125.764 205.472 121.01 204.093 115.421 204.093C112.986 204.06 110.587 204.141 108.188 204.093C102.594 204.093 97.8265 205.473 92.561 205.62C87.3003 205.472 82.5247 204.093 76.9342 204.093C74.506 204.06 72.0729 204.141 69.6737 204.093Z" fill="url(#paint19_linear_186_21485)"/>
<path d="M69.6737 202.013C64.0849 202.013 59.3238 203.393 54.0696 203.541C52.1134 203.488 50.2429 203.245 48.3547 202.984L47.5625 204.358L49.9681 204.46H57.2011C62.7899 204.46 67.5187 203.082 72.7761 202.932C78.0368 203.081 82.8092 204.46 88.4029 204.46H95.6359C101.225 204.46 106.002 203.081 111.263 202.932C116.527 203.081 121.335 204.46 126.923 204.46H134.15C139.739 204.46 144.498 203.081 149.754 202.932C155.013 203.081 159.763 204.46 165.353 204.46H172.612C178.203 204.46 182.975 203.081 188.24 202.932C193.506 203.081 198.28 204.46 203.874 204.46H211.1C216.687 204.46 221.447 203.081 226.703 202.932C231.962 203.081 236.742 204.46 242.33 204.46H249.563L252.437 204.335L251.688 203.047L246.459 203.541C241.198 203.393 236.443 202.013 230.854 202.013C228.413 201.981 226.009 202.062 223.596 202.013C218.005 202.013 213.254 203.393 207.996 203.541C202.731 203.394 197.963 202.013 192.37 202.013C189.951 201.981 187.531 202.062 185.138 202.013C179.548 202.013 174.77 203.393 169.51 203.541C164.249 203.393 159.472 202.013 153.883 202.013C151.453 201.981 149.028 202.062 146.624 202.013C141.034 202.013 136.277 203.393 131.023 203.541C125.764 203.393 121.01 202.013 115.421 202.013C112.986 201.981 110.587 202.062 108.188 202.013C102.594 202.013 97.8265 203.394 92.561 203.541C87.3003 203.393 82.5247 202.013 76.9342 202.013C74.506 201.981 72.0729 202.062 69.6737 202.013Z" fill="url(#paint20_linear_186_21485)"/>
<path d="M69.6737 199.925C64.0849 199.925 59.3238 201.304 54.0696 201.453C52.1134 201.399 50.2429 201.157 48.3547 200.895L47.5625 202.269L49.9681 202.371H57.2011C62.7899 202.371 67.5187 200.994 72.7761 200.843C78.0368 200.992 82.8092 202.371 88.4029 202.371H95.6359C101.225 202.371 106.002 200.992 111.263 200.843C116.527 200.992 121.335 202.371 126.923 202.371H134.15C139.739 202.371 144.498 200.992 149.754 200.843C155.013 200.992 159.763 202.371 165.353 202.371H172.612C178.203 202.371 182.975 200.992 188.24 200.843C193.506 200.992 198.28 202.371 203.874 202.371H211.1C216.687 202.371 221.447 200.992 226.703 200.843C231.962 200.992 236.742 202.371 242.33 202.371H249.563L252.437 202.246L251.688 200.958L246.459 201.453C241.198 201.304 236.443 199.925 230.854 199.925C228.413 199.893 226.009 199.973 223.596 199.925C218.005 199.925 213.254 201.304 207.996 201.453C202.731 201.306 197.963 199.925 192.37 199.925C189.951 199.893 187.531 199.973 185.138 199.925C179.548 199.925 174.77 201.304 169.51 201.453C164.249 201.304 159.472 199.925 153.883 199.925C151.453 199.893 149.028 199.973 146.624 199.925C141.034 199.925 136.277 201.304 131.023 201.453C125.764 201.304 121.01 199.925 115.421 199.925C112.986 199.893 110.587 199.973 108.188 199.925C102.594 199.925 97.8265 201.306 92.561 201.453C87.3003 201.304 82.5247 199.925 76.9342 199.925C74.506 199.893 72.0729 199.973 69.6737 199.925Z" fill="url(#paint21_linear_186_21485)"/>
<path d="M69.6737 197.841C64.0849 197.841 59.3238 199.22 54.0696 199.369C52.1134 199.315 50.2429 199.073 48.3547 198.811L47.5625 200.185L49.9681 200.287H57.2011C62.7899 200.287 67.5187 198.91 72.7761 198.759C78.0368 198.908 82.8092 200.287 88.4029 200.287H95.6359C101.225 200.287 106.002 198.908 111.263 198.759C116.527 198.908 121.335 200.287 126.923 200.287H134.15C139.739 200.287 144.498 198.908 149.754 198.759C155.013 198.908 159.763 200.287 165.353 200.287H172.612C178.203 200.287 182.975 198.908 188.24 198.759C193.506 198.908 198.28 200.287 203.874 200.287H211.1C216.687 200.287 221.447 198.908 226.703 198.759C231.962 198.908 236.742 200.287 242.33 200.287H249.563L252.437 200.162L251.688 198.874L246.459 199.369C241.198 199.22 236.443 197.841 230.854 197.841C228.413 197.809 226.009 197.889 223.596 197.841C218.005 197.841 213.254 199.22 207.996 199.369C202.731 199.222 197.963 197.841 192.37 197.841C189.951 197.809 187.531 197.889 185.138 197.841C179.548 197.841 174.77 199.22 169.51 199.369C164.249 199.22 159.472 197.841 153.883 197.841C151.453 197.809 149.028 197.889 146.624 197.841C141.034 197.841 136.277 199.22 131.023 199.369C125.764 199.22 121.01 197.841 115.421 197.841C112.986 197.809 110.587 197.889 108.188 197.841C102.594 197.841 97.8265 199.222 92.561 199.369C87.3003 199.22 82.5247 197.841 76.9342 197.841C74.506 197.809 72.0729 197.889 69.6737 197.841Z" fill="url(#paint22_linear_186_21485)"/>
<path d="M69.6737 195.762C64.0849 195.762 59.3238 197.141 54.0696 197.29C52.1134 197.236 50.2429 196.994 48.3547 196.732L47.5625 198.106L49.9681 198.208H57.2011C62.7899 198.208 67.5187 196.831 72.7761 196.68C78.0368 196.829 82.8092 198.208 88.4029 198.208H95.6359C101.225 198.208 106.002 196.829 111.263 196.68C116.527 196.829 121.335 198.208 126.923 198.208H134.15C139.739 198.208 144.498 196.829 149.754 196.68C155.013 196.829 159.763 198.208 165.353 198.208H172.612C178.203 198.208 182.975 196.829 188.24 196.68C193.506 196.829 198.28 198.208 203.874 198.208H211.1C216.687 198.208 221.447 196.829 226.703 196.68C231.962 196.829 236.742 198.208 242.33 198.208H249.563L252.437 198.084L251.688 196.795L246.459 197.29C241.198 197.141 236.443 195.762 230.854 195.762C228.413 195.73 226.009 195.811 223.596 195.762C218.005 195.762 213.254 197.141 207.996 197.29C202.731 197.143 197.963 195.762 192.37 195.762C189.951 195.73 187.531 195.811 185.138 195.762C179.548 195.762 174.77 197.141 169.51 197.29C164.249 197.141 159.472 195.762 153.883 195.762C151.453 195.73 149.028 195.811 146.624 195.762C141.034 195.762 136.277 197.141 131.023 197.29C125.764 197.141 121.01 195.762 115.421 195.762C112.986 195.73 110.587 195.811 108.188 195.762C102.594 195.762 97.8265 197.143 92.561 197.29C87.3003 197.141 82.5247 195.762 76.9342 195.762C74.506 195.73 72.0729 195.811 69.6737 195.762Z" fill="url(#paint23_linear_186_21485)"/>
<path d="M69.6737 193.681C64.0849 193.681 59.3238 195.06 54.0696 195.209C52.1134 195.156 50.2429 194.913 48.3547 194.651L47.5625 196.025L49.9681 196.127H57.2011C62.7899 196.127 67.5187 194.75 72.7761 194.6C78.0368 194.748 82.8092 196.127 88.4029 196.127H95.6359C101.225 196.127 106.002 194.748 111.263 194.6C116.527 194.748 121.335 196.127 126.923 196.127H134.15C139.739 196.127 144.498 194.748 149.754 194.6C155.013 194.748 159.763 196.127 165.353 196.127H172.612C178.203 196.127 182.975 194.748 188.24 194.6C193.506 194.748 198.28 196.127 203.874 196.127H211.1C216.687 196.127 221.447 194.748 226.703 194.6C231.962 194.748 236.742 196.127 242.33 196.127H249.563L252.437 196.003L251.688 194.714L246.459 195.209C241.198 195.06 236.443 193.681 230.854 193.681C228.413 193.649 226.009 193.73 223.596 193.681C218.005 193.681 213.254 195.06 207.996 195.209C202.731 195.062 197.963 193.681 192.37 193.681C189.951 193.649 187.531 193.73 185.138 193.681C179.548 193.681 174.77 195.06 169.51 195.209C164.249 195.06 159.472 193.681 153.883 193.681C151.453 193.649 149.028 193.73 146.624 193.681C141.034 193.681 136.277 195.06 131.023 195.209C125.764 195.06 121.01 193.681 115.421 193.681C112.986 193.649 110.587 193.73 108.188 193.681C102.594 193.681 97.8265 195.062 92.561 195.209C87.3003 195.06 82.5247 193.681 76.9342 193.681C74.506 193.649 72.0729 193.73 69.6737 193.681Z" fill="url(#paint24_linear_186_21485)"/>
<path d="M69.6737 191.597C64.0849 191.597 59.3238 192.976 54.0696 193.125C52.1134 193.072 50.2429 192.829 48.3547 192.567L47.5625 193.941L49.9681 194.043H57.2011C62.7899 194.043 67.5187 192.666 72.7761 192.516C78.0368 192.664 82.8092 194.043 88.4029 194.043H95.6359C101.225 194.043 106.002 192.664 111.263 192.516C116.527 192.664 121.335 194.043 126.923 194.043H134.15C139.739 194.043 144.498 192.664 149.754 192.516C155.013 192.664 159.763 194.043 165.353 194.043H172.612C178.203 194.043 182.975 192.664 188.24 192.516C193.506 192.664 198.28 194.043 203.874 194.043H211.1C216.687 194.043 221.447 192.664 226.703 192.516C231.962 192.664 236.742 194.043 242.33 194.043H249.563L252.437 193.919L251.688 192.63L246.459 193.125C241.198 192.976 236.443 191.597 230.854 191.597C228.413 191.565 226.009 191.646 223.596 191.597C218.005 191.597 213.254 192.976 207.996 193.125C202.731 192.978 197.963 191.597 192.37 191.597C189.951 191.565 187.531 191.646 185.138 191.597C179.548 191.597 174.77 192.976 169.51 193.125C164.249 192.976 159.472 191.597 153.883 191.597C151.453 191.565 149.028 191.646 146.624 191.597C141.034 191.597 136.277 192.976 131.023 193.125C125.764 192.976 121.01 191.597 115.421 191.597C112.986 191.565 110.587 191.646 108.188 191.597C102.594 191.597 97.8265 192.978 92.561 193.125C87.3003 192.976 82.5247 191.597 76.9342 191.597C74.506 191.565 72.0729 191.646 69.6737 191.597Z" fill="url(#paint25_linear_186_21485)"/>
<path d="M69.6737 189.518C64.0849 189.518 59.3238 190.897 54.0696 191.046C52.1134 190.993 50.2429 190.75 48.3547 190.488L47.5625 191.863L49.9681 191.964H57.2011C62.7899 191.964 67.5187 190.587 72.7761 190.437C78.0368 190.585 82.8092 191.964 88.4029 191.964H95.6359C101.225 191.964 106.002 190.585 111.263 190.437C116.527 190.585 121.335 191.964 126.923 191.964H134.15C139.739 191.964 144.498 190.585 149.754 190.437C155.013 190.585 159.763 191.964 165.353 191.964H172.612C178.203 191.964 182.975 190.585 188.24 190.437C193.506 190.585 198.28 191.964 203.874 191.964H211.1C216.687 191.964 221.447 190.585 226.703 190.437C231.962 190.585 236.742 191.964 242.33 191.964H249.563L252.437 191.84L251.688 190.551L246.459 191.046C241.198 190.897 236.443 189.518 230.854 189.518C228.413 189.486 226.009 189.567 223.596 189.518C218.005 189.518 213.254 190.897 207.996 191.046C202.731 190.899 197.963 189.518 192.37 189.518C189.951 189.486 187.531 189.567 185.138 189.518C179.548 189.518 174.77 190.897 169.51 191.046C164.249 190.897 159.472 189.518 153.883 189.518C151.453 189.486 149.028 189.567 146.624 189.518C141.034 189.518 136.277 190.897 131.023 191.046C125.764 190.897 121.01 189.518 115.421 189.518C112.986 189.486 110.587 189.567 108.188 189.518C102.594 189.518 97.8265 190.899 92.561 191.046C87.3003 190.897 82.5247 189.518 76.9342 189.518C74.506 189.486 72.0729 189.567 69.6737 189.518Z" fill="url(#paint26_linear_186_21485)"/>
<path d="M59.2205 189.94L55.2969 196.716C59.8866 195.956 66.7785 193.962 72.4886 193.958C78.4105 193.953 85.5545 195.417 92.5967 195.438C100.787 195.461 103.875 193.694 110.482 193.038C117.089 192.381 123.412 193.89 129.73 193.919C134.815 193.907 142.56 192.157 149.087 191.474C155.613 190.792 161.595 191.948 169.461 192.071C177.328 192.194 178.563 190.163 188.176 189.953C198.468 189.725 199.407 191.371 208.52 191.371C215.378 191.741 221.265 189.99 227.38 189.559C233.496 189.127 236.335 189.628 240.807 189.735L237.835 184.476C237.787 184.476 237.738 184.481 237.687 184.482L74.005 188.081L59.2205 189.94Z" fill="#97C924"/>
<path d="M230.945 189.848L237.165 190.294C238.755 190.456 240.347 190.593 241.942 190.703L241.344 189.919C240.417 190.247 234.198 189.612 230.945 189.848Z" fill="white"/>
</g>
<path d="M150.002 28.5464L98.0385 118.572L44.918 210.56L148.867 210.549L255.086 210.56L203.105 120.539L150.002 28.5464ZM150.002 33.3998L201.008 121.754L250.882 208.129L148.867 208.123L49.1166 208.129L100.139 119.786L150.002 33.3998Z" fill="#C8A400"/>
<defs>
<linearGradient id="paint0_linear_186_21485" x1="147.961" y1="132.306" x2="151.014" y2="123.196" gradientUnits="userSpaceOnUse">
<stop stop-color="#510000"/>
<stop offset="0.3" stop-color="#8A0000"/>
<stop offset="1" stop-color="#AA0000"/>
</linearGradient>
<linearGradient id="paint1_linear_186_21485" x1="152.339" y1="136.053" x2="154.736" y2="129.71" gradientUnits="userSpaceOnUse">
<stop stop-color="#FF2A2A"/>
<stop offset="1" stop-color="#FF0000"/>
</linearGradient>
<linearGradient id="paint2_linear_186_21485" x1="60.293" y1="178.27" x2="367.302" y2="178.27" gradientUnits="userSpaceOnUse">
<stop stop-color="#002255"/>
<stop offset="0.5" stop-color="#0044AA"/>
<stop offset="1" stop-color="#002255"/>
</linearGradient>
<linearGradient id="paint3_linear_186_21485" x1="60.293" y1="176.47" x2="367.302" y2="176.47" gradientUnits="userSpaceOnUse">
<stop stop-color="#002255"/>
<stop offset="0.5" stop-color="#0044AA"/>
<stop offset="1" stop-color="#002255"/>
</linearGradient>
<linearGradient id="paint4_linear_186_21485" x1="60.293" y1="174.664" x2="367.302" y2="174.664" gradientUnits="userSpaceOnUse">
<stop stop-color="#002255"/>
<stop offset="0.5" stop-color="#0044AA"/>
<stop offset="1" stop-color="#002255"/>
</linearGradient>
<linearGradient id="paint5_linear_186_21485" x1="60.293" y1="172.863" x2="367.302" y2="172.863" gradientUnits="userSpaceOnUse">
<stop stop-color="#002255"/>
<stop offset="0.5" stop-color="#0044AA"/>
<stop offset="1" stop-color="#002255"/>
</linearGradient>
<linearGradient id="paint6_linear_186_21485" x1="60.293" y1="171.064" x2="367.302" y2="171.064" gradientUnits="userSpaceOnUse">
<stop stop-color="#002255"/>
<stop offset="0.5" stop-color="#0044AA"/>
<stop offset="1" stop-color="#002255"/>
</linearGradient>
<linearGradient id="paint7_linear_186_21485" x1="60.293" y1="169.258" x2="367.302" y2="169.258" gradientUnits="userSpaceOnUse">
<stop stop-color="#002255"/>
<stop offset="0.5" stop-color="#0044AA"/>
<stop offset="1" stop-color="#002255"/>
</linearGradient>
<linearGradient id="paint8_linear_186_21485" x1="60.293" y1="167.453" x2="367.302" y2="167.453" gradientUnits="userSpaceOnUse">
<stop stop-color="#002255"/>
<stop offset="0.5" stop-color="#0044AA"/>
<stop offset="1" stop-color="#002255"/>
</linearGradient>
<linearGradient id="paint9_linear_186_21485" x1="60.293" y1="165.653" x2="367.302" y2="165.653" gradientUnits="userSpaceOnUse">
<stop stop-color="#002255"/>
<stop offset="0.5" stop-color="#0044AA"/>
<stop offset="1" stop-color="#002255"/>
</linearGradient>
<linearGradient id="paint10_linear_186_21485" x1="60.293" y1="163.847" x2="367.302" y2="163.847" gradientUnits="userSpaceOnUse">
<stop stop-color="#002255"/>
<stop offset="0.5" stop-color="#0044AA"/>
<stop offset="1" stop-color="#002255"/>
</linearGradient>
<linearGradient id="paint11_linear_186_21485" x1="60.2908" y1="178.27" x2="367.3" y2="178.27" gradientUnits="userSpaceOnUse">
<stop stop-color="#002255"/>
<stop offset="0.5" stop-color="#0044AA"/>
<stop offset="1" stop-color="#002255"/>
</linearGradient>
<linearGradient id="paint12_linear_186_21485" x1="125.372" y1="168.93" x2="125.372" y2="178.53" gradientUnits="userSpaceOnUse">
<stop stop-color="#F5F549"/>
<stop offset="1" stop-color="#97C924"/>
</linearGradient>
<linearGradient id="paint13_linear_186_21485" x1="100.572" y1="168.93" x2="100.572" y2="178.53" gradientUnits="userSpaceOnUse">
<stop stop-color="#F5F549"/>
<stop offset="1" stop-color="#97C924"/>
</linearGradient>
<linearGradient id="paint14_linear_186_21485" x1="125.37" y1="168.93" x2="125.37" y2="178.53" gradientUnits="userSpaceOnUse">
<stop stop-color="#F5F549"/>
<stop offset="1" stop-color="#97C924"/>
</linearGradient>
<linearGradient id="paint15_linear_186_21485" x1="125.375" y1="168.93" x2="125.375" y2="178.53" gradientUnits="userSpaceOnUse">
<stop stop-color="#F5F549"/>
<stop offset="1" stop-color="#97C924"/>
</linearGradient>
<linearGradient id="paint16_linear_186_21485" x1="100.429" y1="168.93" x2="100.429" y2="178.53" gradientUnits="userSpaceOnUse">
<stop stop-color="#F5F549"/>
<stop offset="1" stop-color="#97C924"/>
</linearGradient>
<linearGradient id="paint17_linear_186_21485" x1="-658.335" y1="-335.001" x2="-656.718" y2="-335.001" gradientUnits="userSpaceOnUse">
<stop stop-color="#002255"/>
<stop offset="0.5" stop-color="#0044AA"/>
<stop offset="1" stop-color="#002255"/>
</linearGradient>
<linearGradient id="paint18_linear_186_21485" x1="-658.334" y1="-335.002" x2="-656.717" y2="-335.002" gradientUnits="userSpaceOnUse">
<stop stop-color="#002255"/>
<stop offset="0.5" stop-color="#0044AA"/>
<stop offset="1" stop-color="#002255"/>
</linearGradient>
<linearGradient id="paint19_linear_186_21485" x1="-658.334" y1="-337.086" x2="-656.717" y2="-337.086" gradientUnits="userSpaceOnUse">
<stop stop-color="#002255"/>
<stop offset="0.5" stop-color="#0044AA"/>
<stop offset="1" stop-color="#002255"/>
</linearGradient>
<linearGradient id="paint20_linear_186_21485" x1="-658.334" y1="-339.165" x2="-656.717" y2="-339.165" gradientUnits="userSpaceOnUse">
<stop stop-color="#002255"/>
<stop offset="0.5" stop-color="#0044AA"/>
<stop offset="1" stop-color="#002255"/>
</linearGradient>
<linearGradient id="paint21_linear_186_21485" x1="-658.334" y1="-341.253" x2="-656.717" y2="-341.253" gradientUnits="userSpaceOnUse">
<stop stop-color="#002255"/>
<stop offset="0.5" stop-color="#0044AA"/>
<stop offset="1" stop-color="#002255"/>
</linearGradient>
<linearGradient id="paint22_linear_186_21485" x1="-658.334" y1="-343.337" x2="-656.717" y2="-343.337" gradientUnits="userSpaceOnUse">
<stop stop-color="#002255"/>
<stop offset="0.5" stop-color="#0044AA"/>
<stop offset="1" stop-color="#002255"/>
</linearGradient>
<linearGradient id="paint23_linear_186_21485" x1="-658.334" y1="-345.416" x2="-656.717" y2="-345.416" gradientUnits="userSpaceOnUse">
<stop stop-color="#002255"/>
<stop offset="0.5" stop-color="#0044AA"/>
<stop offset="1" stop-color="#002255"/>
</linearGradient>
<linearGradient id="paint24_linear_186_21485" x1="-658.334" y1="-347.497" x2="-656.717" y2="-347.497" gradientUnits="userSpaceOnUse">
<stop stop-color="#002255"/>
<stop offset="0.5" stop-color="#0044AA"/>
<stop offset="1" stop-color="#002255"/>
</linearGradient>
<linearGradient id="paint25_linear_186_21485" x1="-658.334" y1="-349.581" x2="-656.717" y2="-349.581" gradientUnits="userSpaceOnUse">
<stop stop-color="#002255"/>
<stop offset="0.5" stop-color="#0044AA"/>
<stop offset="1" stop-color="#002255"/>
</linearGradient>
<linearGradient id="paint26_linear_186_21485" x1="-658.334" y1="-351.66" x2="-656.717" y2="-351.66" gradientUnits="userSpaceOnUse">
<stop stop-color="#002255"/>
<stop offset="0.5" stop-color="#0044AA"/>
<stop offset="1" stop-color="#002255"/>
</linearGradient>
</defs>
</svg>
