<svg width="300" height="300" viewBox="0 0 300 300" fill="none" xmlns="http://www.w3.org/2000/svg">
<path d="M150.892 154.722L258.241 254.377L250.599 73.3876C249.476 45.9574 225.639 52.2507 208.324 62.1456C190.783 73.3876 170.772 73.3876 149.63 65.965C128.494 73.3872 108.481 73.3872 90.9398 62.1452C73.6263 52.2514 49.7921 45.9571 48.6668 73.3872L41.0195 254.377L150.892 154.722Z" fill="white" stroke="#C09300" stroke-width="1.99118" stroke-linejoin="round"/>
<path d="M61.0143 67.0879L53.5942 243.14L41 254.376L48.6474 73.3858C52.2431 70.9124 58.5425 67.0879 61.0143 67.0879ZM76.0929 79.6899L69.7966 226.957L57.2071 239.841L64.8514 69.7917C67.3263 72.2635 74.748 78.3341 76.0929 79.6821V79.6899ZM89.8077 90.9283L84.8626 213.754L74.7449 223.645L81.0427 83.5082C83.5099 85.9815 88.4566 89.5804 89.8077 90.9283ZM104.651 97.2293L99.7044 201.912L89.8093 209.938L94.7561 93.408C97.231 94.5318 102.178 97.2293 104.651 97.2293ZM118.366 97.2293L114.766 184.467L104.648 194.362L108.473 98.3547C110.941 98.3547 117.239 98.3547 118.366 97.2293Z" fill="#C09300"/>
<path d="M238.228 67.0879L245.648 243.14L258.242 254.376L250.595 73.3858C246.999 70.9124 240.7 67.0879 238.228 67.0879ZM223.149 79.6899L229.446 226.957L242.035 239.841L234.391 69.7917C231.916 72.2635 224.494 78.3341 223.149 79.6821V79.6899ZM209.434 90.9283L214.38 213.754L224.497 223.645L218.199 83.5082C215.732 85.9815 210.786 89.5804 209.434 90.9283ZM194.591 97.2293L199.538 201.912L209.433 209.938L204.486 93.408C202.011 94.5318 197.064 97.2293 194.591 97.2293ZM180.876 97.2293L184.476 184.467L194.594 194.362L190.77 98.3547C188.301 98.3547 182.003 98.3547 180.876 97.2293Z" fill="#C09300"/>
<path d="M154.574 174.566L169.642 243.148L164.692 248.094L159.521 244.271L150.975 183.114L154.574 244.271L149.625 250.566L144.678 244.271L148.277 183.114L139.734 244.271L134.558 248.094L129.613 243.148L144.678 174.565L154.574 174.566Z" fill="#C09300" stroke="#C09300" stroke-width="1.68319"/>
<path d="M115.891 144.44L85.9844 250.562L127.137 256.859L144.673 177.04L115.89 144.439L115.891 144.44Z" fill="white" stroke="#C09300" stroke-width="1.86368" stroke-linejoin="round"/>
<path d="M106 180.647L109.598 189.414L129.042 170.843" stroke="#C09300" stroke-width="1.99045" stroke-linejoin="round"/>
<path d="M119.464 158.672L123.532 196.832L135.9 180.644M130.953 186.932L137.708 210.248M140.357 201.682L126.693 222.436M130.955 243.151L126.581 222.464L122.763 201.425L113.609 213.821L109.594 199.528L96.7812 212.67L103.298 236.575L112.291 221.787L117.237 236.853L126.47 222.492" stroke="#C09300" stroke-width="1.99045" stroke-linejoin="round"/>
<path d="M94.7461 248.093L103.053 236.426L108.465 254.384L115.885 241.794L120.835 256.862" stroke="#C09300" stroke-width="1.99045" stroke-linejoin="round"/>
<path d="M183.351 144.44L213.258 250.562L172.105 256.859L154.569 177.04L183.352 144.439L183.351 144.44Z" fill="white" stroke="#C09300" stroke-width="1.86368" stroke-linejoin="round"/>
<path d="M193.242 180.647L189.644 189.414L170.2 170.843" stroke="#C09300" stroke-width="1.99045" stroke-linejoin="round"/>
<path d="M179.779 158.672L175.71 196.832L163.342 180.644M168.289 186.932L161.534 210.248M158.885 201.682L172.549 222.436M168.287 243.151L172.661 222.464L176.479 201.425L185.633 213.821L189.648 199.528L202.461 212.67L195.944 236.575L186.951 221.787L182.005 236.853L172.773 222.492" stroke="#C09300" stroke-width="1.99045" stroke-linejoin="round"/>
<path d="M204.496 248.093L196.189 236.426L190.777 254.384L183.357 241.794L178.408 256.862" stroke="#C09300" stroke-width="1.99045" stroke-linejoin="round"/>
<path d="M149.489 298C180.748 298 210.656 295.527 228.194 290.58C235.617 289.234 235.617 285.411 235.617 280.462C243.039 277.989 239.214 269.223 244.385 269.223C239.214 270.575 238.091 260.454 231.794 261.806C231.794 253.034 223.024 251.911 215.603 254.381C200.76 259.33 174.45 260.455 149.489 260.455C124.529 259.33 98.4431 259.33 83.377 254.381C75.9566 251.911 67.1903 253.034 67.1903 261.806C60.892 260.455 59.7682 270.575 54.5977 269.223C59.7682 269.223 55.9447 277.989 63.3662 280.462C63.3662 285.411 63.3662 289.234 71.0116 290.58C88.3239 295.527 118.235 298 149.489 298H149.489Z" fill="white" stroke="#C09300" stroke-width="3.72735" stroke-linecap="round" stroke-linejoin="round"/>
<path d="M107.128 250.554C117.244 251.904 128.488 253.027 137.261 251.904C142.204 251.904 145.802 260.447 135.909 261.799C127.142 262.92 113.424 261.799 106.003 260.447C99.7064 259.322 85.9899 256.85 77.2188 254.373C68.4492 250.554 74.7483 243.138 79.6908 244.26C87.3381 246.731 97.2333 249.207 107.129 250.554L107.128 250.554ZM192.128 250.554C182.008 251.904 170.768 253.027 162.22 251.904C157.047 251.904 153.449 260.447 163.345 261.799C172.115 262.92 185.832 261.799 193.248 260.447C199.547 259.322 213.262 256.85 222.032 254.373C230.804 250.554 224.509 243.138 219.56 244.26C211.914 246.731 202.02 249.206 192.128 250.554Z" fill="white" stroke="#C09300" stroke-width="1.99045" stroke-linecap="round" stroke-linejoin="round"/>
<path d="M78.5698 248.094C81.0462 248.094 84.8671 249.219 85.992 250.566L78.5625 248.089L78.5698 248.094ZM90.921 251.918C92.2717 251.918 97.2193 253.041 99.692 254.387L90.9144 251.91L90.921 251.918ZM135.906 256.856C133.433 256.856 128.486 256.856 127.14 257.976L135.902 256.848L135.906 256.856ZM122.191 256.856C120.845 255.504 115.896 255.504 113.424 256.856H122.185H122.191ZM220.688 248.094C218.215 248.094 214.614 249.219 213.265 250.566L220.688 248.094ZM208.32 251.918C206.972 251.918 202.024 253.041 199.55 254.387L208.328 251.91L208.32 251.918ZM163.336 256.856C165.811 256.856 170.758 256.856 172.106 257.976L163.328 256.848L163.336 256.856ZM177.05 256.856C178.399 255.504 183.349 255.504 185.821 256.856H177.043H177.05Z" fill="white" stroke="#C09300" stroke-width="1.39639" stroke-linecap="round" stroke-linejoin="round"/>
<path d="M203.922 264.736C202.561 264.946 201.881 265.837 202.085 266.782C202.357 267.884 203.514 268.409 204.738 268.251C206.099 268.041 206.779 267.097 206.507 266.152C206.235 265.155 205.078 264.578 203.922 264.736ZM199.432 276.961C200.044 279.585 201.949 280.057 205.759 279.585C205.963 279.532 206.371 279.48 206.915 279.427C207.256 279.375 207.596 279.322 208.004 279.27L208.548 281.526C203.65 282.156 198.683 282.786 193.717 283.31L190.791 266.31L188.342 267.936C187.594 268.566 187.253 269.301 187.389 270.14L189.499 283.73C186.777 283.94 184.056 284.202 181.334 284.36L180.586 278.221C178.681 279.113 177.592 279.69 177.32 279.9C176.844 280.267 176.64 280.792 176.708 281.474C176.776 282.051 176.98 283.31 177.116 284.622C176.096 284.727 175.143 284.779 174.055 284.832L173.646 279.742C171.537 280.687 170.449 281.159 170.313 281.264C169.836 281.579 169.632 282.208 169.7 283.048C169.7 283.31 169.768 283.94 169.904 284.989C168.884 285.042 167.863 285.094 166.775 285.094L166.571 281.474L163.849 282.523C162.557 282.995 162.489 283.468 162.557 285.199C159.835 285.252 157.046 285.304 154.324 285.304V281.579C154.324 280.424 153.372 279.427 152.011 279.427C146.773 279.322 141.602 279.217 136.363 279.008C134.526 278.903 132.825 279.637 132.213 280.372L133.506 267.517C131.669 268.199 130.784 268.566 130.716 268.566C129.832 269.091 129.288 269.72 129.22 270.507L127.587 284.36C124.661 284.15 121.804 283.887 118.878 283.625L119.763 277.958C117.313 278.903 115.953 279.532 115.681 279.795C115.34 280.162 115 281.316 114.66 283.258C110.782 282.785 106.904 282.366 103.026 281.841L103.843 278.273L101.189 278.798C99.9645 279.06 99.2162 279.375 98.808 279.742C98.3317 280.162 97.9915 280.844 97.7874 281.789C97.7194 281.998 97.3792 283.782 97.3112 283.992C96.6989 286.249 95.5423 287.56 92.3446 287.036C87.7863 286.249 88.4667 284.045 88.8749 280.634C88.0584 280.634 87.242 281.001 86.4937 281.789C85.8133 282.471 85.4051 283.153 85.201 283.835C84.7247 285.357 85.201 286.773 86.6977 288.085C88.0584 289.239 89.8274 290.026 92.1405 290.394C94.4537 290.761 96.6308 290.446 98.6719 289.449C100.645 288.452 101.802 287.141 102.21 285.461C105.816 285.934 109.489 286.353 113.163 286.773C116.837 287.141 120.511 287.508 124.253 287.823C127.927 288.085 131.601 288.295 135.275 288.505C139.017 288.662 142.69 288.82 146.432 288.872C150.106 288.925 153.848 288.977 157.522 288.977C161.264 288.925 164.938 288.82 168.68 288.715C172.354 288.557 176.028 288.4 179.77 288.19C183.443 287.928 187.117 287.613 190.859 287.298C194.533 286.931 198.139 286.563 201.813 286.144C205.487 285.671 209.161 285.147 212.834 284.622C213.855 284.465 214.195 283.625 213.787 282.103L210.793 270.56C210.249 271.609 208.752 272.291 206.167 272.659C205.827 272.711 205.487 272.764 205.215 272.816C204.738 272.869 204.466 272.869 204.262 272.921C202.493 273.183 201.269 273.498 200.588 273.918C199.568 274.6 199.159 275.597 199.432 276.961ZM203.378 276.437C203.31 275.912 203.854 275.387 204.534 275.282C205.351 275.177 206.167 275.072 206.983 274.967L207.46 276.804L204.874 277.171C204.058 277.224 203.514 276.909 203.378 276.437ZM149.834 285.252C143.779 285.147 137.792 284.937 131.737 284.622L132.009 281.894C137.248 282.156 142.418 282.366 147.657 282.471C149.086 282.523 149.834 282.943 149.834 283.678V285.252ZM96.2907 273.026C94.8619 272.869 93.7734 273.446 93.5012 274.443C93.2291 275.492 94.1136 276.332 95.3382 276.542C96.7669 276.751 97.8555 276.122 98.1276 275.177C98.3998 274.075 97.5153 273.236 96.2907 273.026ZM118.13 289.921C116.633 289.817 115.545 290.499 115.408 291.496C115.272 292.598 116.293 293.332 117.586 293.489C119.082 293.594 120.239 292.912 120.375 291.915C120.443 290.866 119.491 290.079 118.13 289.921ZM111.394 289.239C109.966 289.134 108.809 289.712 108.605 290.761C108.401 291.863 109.421 292.65 110.782 292.807C112.211 292.912 113.367 292.283 113.572 291.286C113.708 290.236 112.755 289.397 111.394 289.239Z" fill="#C09300" stroke="#C09300" stroke-width="0.464001" stroke-linecap="round" stroke-linejoin="round"/>
<path d="M76.0958 245.617C68.4515 244.267 64.8538 253.033 67.3298 257.979C68.4526 255.506 73.6249 255.506 74.7509 253.033C76.0958 249.214 73.6249 249.214 76.0958 245.617ZM106.002 268.611C106.002 263.669 110.947 264.277 110.947 259.33C110.947 256.858 109.6 253.033 107.127 253.033C104.653 253.033 102.178 255.506 102.178 257.979C101.053 262.927 106.002 263.67 106.002 268.611ZM141.598 254.379C149.013 254.379 148.278 264.276 144.679 269.222C144.679 265.625 138.384 264.276 138.384 261.806C138.384 257.978 144.067 257.978 141.598 254.379ZM223.151 245.617C230.796 244.267 234.396 253.033 231.921 257.979C230.796 255.506 225.625 255.506 224.501 253.033C223.151 249.214 225.626 249.214 223.151 245.617ZM193.245 268.611C193.245 263.669 188.302 264.277 188.302 259.33C188.302 256.858 189.649 253.033 192.124 253.033C194.596 253.033 197.071 255.506 197.071 257.979C198.196 262.927 193.245 263.67 193.245 268.611ZM157.648 254.379C150.231 254.379 150.967 264.276 154.565 269.222C154.565 265.625 160.859 264.276 160.859 261.806C160.86 257.978 155.175 257.978 157.648 254.379Z" fill="white" stroke="#C09300" stroke-width="1.99045" stroke-linecap="round" stroke-linejoin="round"/>
<path d="M149.589 193.641C200.753 154.289 196.366 96.6439 196.366 96.6439C195.016 96.9139 193.733 97.0489 192.383 97.0489C181.651 97.0489 156.054 90.9091 150.082 83.1104C143.685 90.1691 117.526 97.0489 106.862 97.0489C105.512 97.0489 104.162 96.9139 102.879 96.6439C102.879 96.6439 98.4251 154.288 149.589 193.641Z" fill="white" stroke="#C09300" stroke-width="1.80254"/>
<path d="M192.284 100.866C191.844 100.893 191.401 100.907 190.955 100.907C181.229 100.907 158.637 95.9165 149.928 88.4346C140.806 95.3461 117.841 100.907 108.272 100.907C107.823 100.907 107.38 100.852 106.94 100.771C106.918 102.951 107.031 105.211 107.167 107.266C107.673 114.948 109.02 122.657 111.066 130.075C117.505 153.422 130.684 173.263 149.581 188.313C168.493 173.25 181.688 153.391 188.141 130.027C190.19 122.61 191.541 114.902 192.052 107.221C192.172 105.07 192.292 102.437 192.284 100.866Z" stroke="#C09300" stroke-width="1.43576"/>
<mask id="mask0_194_27403" style="mask-type:luminance" maskUnits="userSpaceOnUse" x="107" y="88" width="85" height="100">
<path d="M107.406 101.183C107.841 101.213 108.279 101.224 108.72 101.224C118.343 101.224 140.695 96.287 149.311 88.8848C158.335 95.7227 181.056 101.224 190.523 101.224C190.967 101.224 191.406 101.172 191.841 101.09C191.864 103.247 191.75 105.482 191.617 107.516C191.116 115.116 189.783 122.742 187.759 130.082C181.389 153.18 168.35 172.809 149.655 187.7C130.943 172.797 117.889 153.149 111.505 130.034C109.478 122.696 108.141 115.07 107.635 107.471C107.517 105.343 107.398 102.738 107.406 101.183Z" fill="white"/>
</mask>
<g mask="url(#mask0_194_27403)">
<path fill-rule="evenodd" clip-rule="evenodd" d="M192.551 87.8887H163.931V188.687H192.551V87.8887Z" fill="#009639"/>
<path fill-rule="evenodd" clip-rule="evenodd" d="M163.93 87.8887H135.31V188.687H163.93V87.8887Z" fill="white"/>
<path fill-rule="evenodd" clip-rule="evenodd" d="M135.309 87.8887H106.689V188.687H135.309V87.8887Z" fill="black"/>
<path fill-rule="evenodd" clip-rule="evenodd" d="M195.289 68.3594V98.8859L149.62 128.332L103.95 98.8859V68.3594H195.289Z" fill="#ED2E38"/>
</g>
<path d="M168.913 77.4322C169.959 77.4949 167.5 71.8397 167.5 71.8397C170.266 74.6673 180.713 75.3428 180.713 75.3428C174.443 72.5748 168.177 51.6811 168.913 35.0273C169.591 18.3123 166.519 11.7354 164.059 9.27772C160.924 6.14289 150.846 3.37796 144.209 3.00805C140.46 2.82466 141.075 5.83567 141.075 5.83567C134.131 4.05352 127.187 3.37796 124.053 5.46733C121.101 7.43444 120.487 17.2668 122.639 15.5458C127.861 11.3671 132.41 15.1775 135.543 19.7246C138.308 23.7199 138.125 35.0273 134.129 48.239C129.951 62.1279 118.52 76.0168 118.52 76.0168C124.726 76.0168 133.454 70.487 133.454 70.487L131.365 79.1517C137.94 76.0168 143.164 71.1625 143.164 71.1625L149.432 77.7379C151.521 74.9729 155.702 71.1625 155.702 71.1625C155.702 71.1625 160.924 76.6939 168.913 77.4322Z" fill="white" stroke="#C09300" stroke-width="1.90911"/>
<path d="M143.539 37.4318C143.539 37.4318 140.036 63.1814 133.461 70.4949M149.072 36.7578C149.072 36.7578 147.72 62.813 143.173 71.172M153.978 37.808C153.978 37.808 153.978 66.3225 155.699 71.1768M160.185 39.2187C160.185 39.2187 161.599 63.1861 167.499 71.8508" stroke="#C09300" stroke-width="1.99062"/>
<path d="M137.205 24.9546C136.898 22.6819 136.345 20.8981 135.545 19.7304C132.41 15.1833 127.865 11.3729 122.641 15.5517C122.641 15.5517 124.423 10.0203 128.233 9.83686C131.183 9.65191 137.881 12.0485 143.782 22.127C143.782 22.127 139.418 21.1442 138.374 22.0659C136.406 23.7869 137.205 24.9546 137.205 24.9546Z" fill="#C09300" stroke="#C09300" stroke-width="0.554866"/>
<path d="M122.093 8.73275C122.522 7.31894 123.199 6.02897 124.06 5.47568C127.195 3.38631 134.138 4.06187 141.082 5.84402C141.082 5.84402 140.467 2.833 144.217 3.01795C150.853 3.38629 160.932 6.1528 164.065 9.28607C164.801 10.0855 165.664 11.2532 166.4 13.0338H166.278C164.742 10.8833 160.378 11.0071 159.333 11.1293C157.673 11.3143 156.629 11.2516 154.416 11.8049C153.372 12.051 151.773 12.3582 150.913 13.0338C150.239 13.5871 149.684 15.6153 148.64 15.6153C146.98 15.6153 147.104 15.1858 146.673 14.6937C146.12 14.0181 145.812 13.0338 145.259 13.0949C143.54 13.4037 140.773 12.051 137.271 9.28607C133.768 6.51958 132.416 5.84402 127.869 6.15123C123.383 6.51958 121.969 9.03996 121.969 9.03996L122.093 8.73275Z" fill="#C09300" stroke="#C09300" stroke-width="0.554866"/>
<path d="M147.777 12.7891C148.795 12.7891 149.62 11.9638 149.62 10.9458C149.62 9.9278 148.795 9.10254 147.777 9.10254C146.759 9.10254 145.934 9.9278 145.934 10.9458C145.934 11.9638 146.759 12.7891 147.777 12.7891Z" fill="white"/>
</svg>
