<svg width="300" height="300" viewBox="0 0 300 300" fill="none" xmlns="http://www.w3.org/2000/svg">
<path d="M295.5 150.462C295.5 230.57 230.601 295.5 150.496 295.5C70.4327 295.5 5.5 230.57 5.5 150.462C5.5 70.3872 70.4327 5.5 150.496 5.5C230.601 5.5 295.5 70.3877 295.5 150.462Z" fill="white" stroke="black" stroke-width="6.39017" stroke-miterlimit="10"/>
<path d="M220.67 127.957C217.147 127.814 217.125 131.696 217.125 131.696C217.125 131.696 217.247 130.549 217.146 131.85C217.079 133.14 217.724 136.284 220.324 136.538C223.068 136.78 223.979 133.571 224.002 132.016C224.002 131.398 223.802 128.034 220.668 127.957" fill="#009B3A"/>
<path d="M220.67 127.957C217.147 127.814 217.125 131.696 217.125 131.696C217.125 131.696 217.247 130.549 217.146 131.85C217.079 133.14 217.724 136.284 220.324 136.538C223.068 136.78 223.979 133.571 224.002 132.016C224.002 131.398 223.802 128.034 220.668 127.957" stroke="black" stroke-width="1.7082"/>
<path d="M59.5429 208.484L58.303 206.427C58.1751 206.199 57.8525 205.82 57.3339 205.255C57.0794 204.96 56.748 204.825 56.374 204.783C55.9917 204.732 55.6266 204.79 55.2443 205.01C54.7602 205.305 54.4455 205.702 54.3947 206.183C54.3013 206.672 54.5305 207.346 55.0744 208.257L56.3316 210.399L59.5429 208.484ZM71.8194 207.776L56.0426 217.162L51.2257 209.067C50.3336 207.549 49.7897 206.343 49.5773 205.39C49.3313 204.42 49.4504 203.509 49.849 202.607C50.2491 201.696 50.9708 200.938 51.982 200.33C52.8228 199.825 53.6981 199.58 54.5473 199.538C55.4315 199.538 56.2382 199.757 57.0197 200.17C57.5038 200.449 58.0649 200.878 58.6765 201.503C58.5323 200.828 58.4473 200.297 58.4814 199.883C58.5323 199.639 58.6424 199.234 58.8632 198.619C59.0756 198.028 59.2797 197.615 59.4071 197.354L62.5933 192.278L65.8467 197.792L62.5933 203.265C62.1853 203.956 61.9388 204.488 61.9047 204.859C61.8824 205.348 62.0003 205.834 62.2445 206.258L62.5162 206.705L68.9054 202.902L71.8194 207.776ZM44.0452 194.93L39.2284 180.536L42.9406 179.288L45.9569 188.311L48.743 187.375L45.9055 179.002L49.4741 177.838L52.2774 186.169L55.6928 185.064L52.6089 175.78L56.5509 174.439L61.4443 189.104L44.0452 194.93ZM44.5599 165.631L44.3643 164.282C44.2374 163.161 43.9652 162.435 43.5492 162.056C43.0987 161.676 42.5973 161.499 41.9942 161.567C41.4335 161.659 40.9746 161.896 40.6263 162.292C40.2608 162.73 40.1422 163.456 40.2949 164.51L40.448 166.129L44.5599 165.631ZM37.4238 172.2L36.3277 162.848C36.1069 160.841 36.3959 159.239 37.2366 158.109C38.1031 156.988 39.4284 156.313 41.2127 156.111C43.0478 155.883 44.5683 156.279 45.7238 157.249C46.8624 158.236 47.593 159.88 47.8647 162.14L48.2129 165.218L54.9672 164.434L55.6301 170.092L37.4238 172.2ZM36.7856 136.414L37.372 130.782L48.2633 131.954C49.3338 132.08 50.3361 132.367 51.2282 132.789C52.1885 133.218 52.9527 133.843 53.5899 134.652C54.2188 135.462 54.6604 136.238 54.8644 137.072C55.1445 138.177 55.2211 139.526 55.0423 141.078C54.9662 141.929 54.7795 142.916 54.533 143.945C54.3038 144.982 53.9466 145.833 53.505 146.491C53.0545 147.166 52.477 147.765 51.738 148.279C50.9985 148.785 50.2511 149.097 49.5037 149.232C48.2974 149.476 47.261 149.527 46.36 149.426L35.5195 148.279L36.1059 142.638L47.2265 143.843C48.2292 143.945 49.0275 143.759 49.648 143.253C50.2684 142.756 50.6162 142.031 50.7352 141.078C50.8375 140.074 50.6335 139.298 50.1494 138.7C49.6652 138.084 48.9174 137.738 47.9067 137.62L36.7856 136.415V136.414ZM55.0304 120.998L56.007 118.283C56.3044 117.364 56.3894 116.656 56.1853 116.141C56.0075 115.677 55.6247 115.315 55.0724 115.138C54.529 114.952 54.0785 114.986 53.6369 115.256C53.1775 115.534 52.7872 116.125 52.4726 117.044L51.5043 119.776L55.0299 120.999L55.0304 120.998ZM48.2248 118.612L49.0493 116.31C49.3293 115.467 49.4059 114.826 49.2024 114.396C49.0493 113.983 48.6921 113.654 48.1403 113.494C47.6562 113.308 47.1968 113.342 46.7977 113.553C46.3985 113.788 46.0671 114.295 45.7949 115.104L44.9373 117.474L48.2248 118.612ZM39.5677 121.656L43.0513 111.613C43.654 109.944 44.5125 108.83 45.6679 108.198C46.7809 107.625 47.9531 107.515 49.2019 107.936C50.2047 108.332 50.9694 108.94 51.496 109.833C51.8106 110.424 52.0057 111.2 52.0057 112.102C52.7279 110.955 53.5603 110.23 54.4865 109.918C55.4295 109.58 56.4575 109.598 57.5705 109.985C58.4134 110.272 59.1663 110.775 59.7539 111.444C60.3057 112.136 60.6712 112.894 60.8495 113.755C60.9345 114.311 60.892 115.053 60.6964 115.973C60.4079 117.262 60.238 118.081 60.0937 118.46L56.8651 127.702L39.5677 121.656V121.656ZM48.9149 98.1559L51.8798 93.3153L63.689 100.475L68.285 92.9192L72.1336 95.272L64.6404 107.659L48.9149 98.1559ZM61.0279 80.1126L64.6725 75.7705L78.6651 87.6009L75.012 91.9435L61.0279 80.1126ZM86.4404 70.2562L91.2063 68.216C91.8179 69.4974 92.1666 70.7205 92.2175 71.9174C92.2595 73.0981 92.0303 74.211 91.5378 75.2484C90.9944 76.3025 90.1018 77.3231 88.8787 78.3936C87.3241 79.6582 85.8965 80.4846 84.5459 80.8472C83.2122 81.193 81.7169 81.109 80.0517 80.5864C78.4462 80.0548 76.9168 78.8999 75.4383 77.171C73.5182 74.8186 72.635 72.5162 72.8301 70.2567C73.0173 67.9547 74.2577 65.8884 76.5172 63.9831C78.3104 62.4987 79.9751 61.7231 81.6151 61.5962C83.2122 61.4445 84.911 61.9251 86.6192 62.9961L83.4839 67.0606C83.0082 66.7484 82.6085 66.538 82.2687 66.4703C81.7735 66.3218 81.2466 66.3158 80.7482 66.453C80.2345 66.5669 79.7564 66.8043 79.3551 67.1446C78.3608 67.9794 77.9275 69.0079 78.0723 70.2389C78.1572 71.1577 78.7431 72.2292 79.7627 73.5021C81.0796 75.0621 82.2178 75.9395 83.1524 76.1163C84.1379 76.3188 85.0468 76.0402 85.8965 75.3324C86.7204 74.624 87.171 73.8815 87.1878 73.0724C87.2125 72.2124 86.9842 71.2763 86.4404 70.2557M104.991 59.2379L100.2 54.2793L101.406 61.0844L104.991 59.2379ZM107.846 62.2482L102.103 65.1657L102.689 68.2773L97.5318 70.8998L95.3489 51.4295L100.863 48.6128L115.33 61.8268L110.055 64.525L107.846 62.2482ZM130.147 43.131L131.557 53.0305L132.934 52.8279C134.114 52.6847 134.939 52.4229 135.406 52.0944C135.856 51.7318 136.162 51.2679 136.349 50.5433C136.553 49.8685 136.553 48.8143 136.342 47.3472C136.07 45.433 135.561 44.1511 134.847 43.544C134.116 42.9364 133.02 42.7176 131.559 42.9364L130.149 43.131H130.147ZM123.979 39.8169L132.305 38.6195C133.945 38.4002 135.279 38.417 136.349 38.7208C137.454 39.0325 138.362 39.5383 139.161 40.2808C139.934 41.0227 140.554 41.9247 140.996 42.9789C141.463 44.0331 141.778 45.2053 141.948 46.4447C142.245 48.3673 142.245 49.9189 141.931 51.0239C141.65 52.1537 141.157 53.1569 140.486 54.0002C139.79 54.8182 139.017 55.4337 138.158 55.7795C136.986 56.3105 135.89 56.6227 134.871 56.7828L126.528 57.955L123.979 39.8169H123.979ZM148.93 36.2627L164.061 37.384L163.78 41.2885L154.308 40.5801L154.087 43.4897L162.871 44.1388L162.557 47.8575L153.815 47.2331L153.56 50.8085L163.305 51.5337L162.998 55.6659L147.579 54.5272L148.93 36.2627H148.93ZM172.243 38.4036L177.689 39.9216L173.925 53.2444L182.43 55.6481L181.189 59.9655L167.231 56.0107L172.243 38.4036ZM203.174 58.7434L204.346 59.5027C205.246 60.1014 206.011 60.3543 206.563 60.295C207.158 60.2273 207.6 59.9665 207.914 59.4518C208.22 58.9879 208.33 58.4653 208.262 57.9007C208.152 57.3607 207.651 56.8124 206.767 56.231L205.416 55.3201L203.174 58.7434ZM202.723 49.0885L210.599 54.2827C212.306 55.4041 213.309 56.6692 213.614 58.035C213.946 59.4182 213.614 60.8685 212.604 62.3692C211.618 63.8956 210.344 64.7898 208.832 65.0511C207.302 65.2956 205.629 64.8233 203.717 63.5667L201.126 61.8466L197.405 67.5215L192.656 64.3763L202.723 49.0885ZM222.612 77.041L225.807 70.9275L219.741 74.2076L222.612 77.041ZM220.675 80.6837L216.079 76.1637L213.31 77.6817L209.189 73.6345L217.658 69.7222L226.988 65.4127L231.371 69.7469L223.402 87.6656L219.189 83.4836L220.675 80.6837ZM237.703 88.6353L238.994 90.676C239.148 90.8785 239.428 91.2747 240.006 91.8146C240.295 92.0675 240.584 92.2276 240.991 92.2444C241.39 92.2953 241.73 92.194 242.078 91.9747C242.562 91.663 242.835 91.2752 242.92 90.7772C242.988 90.3055 242.733 89.5966 242.164 88.7371L240.855 86.6456L237.703 88.6358V88.6353ZM225.444 89.7236L240.898 79.8572L245.969 87.8094C246.913 89.2765 247.507 90.4818 247.796 91.4184C248.009 92.354 247.941 93.2985 247.558 94.201C247.185 95.1287 246.496 95.8954 245.528 96.5282C244.652 97.0849 243.812 97.3966 242.945 97.3966C242.121 97.4475 241.28 97.2366 240.456 96.8908C239.971 96.6043 239.411 96.1824 238.782 95.5837C238.943 96.2585 239.045 96.8068 239.029 97.1862C238.994 97.4475 238.876 97.8778 238.706 98.4508C238.502 99.0584 238.315 99.4881 238.154 99.7495L235.163 104.927L231.697 99.5217L234.806 93.9733C235.223 93.2314 235.426 92.6998 235.426 92.3289C235.444 91.8314 235.367 91.3592 235.036 90.9378L234.789 90.5159L228.503 94.5211L225.444 89.7236ZM247.111 114.411L252.608 110.262L245.735 110.642L247.111 114.411ZM243.773 116.865L241.572 110.802L238.446 111.021L236.449 105.582L256.04 105.81L258.155 111.594L243.28 124.344L241.241 118.745L243.773 116.865V116.865ZM252.546 136.365L256.318 135.867L257.415 144.603L249.657 145.539C248.349 144.021 247.347 142.664 246.812 141.424C246.217 140.193 245.835 138.701 245.614 136.955C245.333 134.796 245.478 132.992 246.081 131.541C246.624 130.091 247.593 128.885 248.953 127.932C250.32 127.03 251.934 126.431 253.812 126.203C255.791 125.942 257.584 126.145 259.147 126.794C260.71 127.418 261.968 128.472 262.945 129.956C263.7 131.128 264.202 132.739 264.44 134.83C264.721 136.828 264.721 138.355 264.457 139.392C264.26 140.407 263.78 141.345 263.072 142.099C262.41 142.841 261.518 143.482 260.379 143.937L258.731 138.65C259.385 138.321 259.87 137.899 260.159 137.301C260.456 136.727 260.532 136.002 260.456 135.21C260.252 133.961 259.742 133.034 258.808 132.41C257.848 131.786 256.437 131.592 254.585 131.819C252.614 132.064 251.281 132.63 250.507 133.447C249.777 134.307 249.505 135.412 249.641 136.727C249.709 137.352 249.896 137.933 250.134 138.473C250.396 139.046 250.779 139.628 251.306 140.353L253.03 140.117L252.546 136.365H252.546ZM264.153 163.853L263.507 169.469L252.667 168.246C251.587 168.119 250.594 167.841 249.676 167.394C248.758 166.948 247.969 166.34 247.331 165.531C246.711 164.738 246.287 163.937 246.083 163.128C245.819 161.955 245.751 160.64 245.929 159.097C246.048 158.22 246.218 157.25 246.431 156.213C246.678 155.175 247.042 154.332 247.501 153.675C247.943 153.017 248.538 152.435 249.251 151.912C250.05 151.415 250.78 151.103 251.511 150.977C252.7 150.748 253.763 150.673 254.655 150.808L265.512 152.048L264.866 157.646L253.762 156.373C252.751 156.264 251.953 156.441 251.324 156.938C250.713 157.444 250.347 158.153 250.245 159.122C250.135 160.117 250.322 160.901 250.814 161.5C251.29 162.107 252.038 162.47 253.032 162.621L264.153 163.853ZM247.278 184.72L254.185 184.964L248.612 180.9L247.278 184.72ZM243.183 184.509L245.273 178.429L242.716 176.599L244.619 171.127L259.69 183.649L257.617 189.509L238.085 189.99L240.006 184.373L243.183 184.509ZM253.301 201.386L250.115 206.808L242.894 206.833L246.352 213.174L243.183 218.528L237.61 206.984L231 203.088L233.906 198.189L240.507 202.11L253.301 201.385V201.386Z" fill="black"/>
<path d="M271.921 150.465C271.921 217.543 217.566 271.906 150.518 271.906C83.4531 271.906 29.0977 217.543 29.0977 150.465C29.0977 83.437 83.4531 29.083 150.518 29.083C217.566 29.083 271.921 83.4375 271.921 150.465Z" stroke="black" stroke-width="2.55587" stroke-miterlimit="10"/>
<path d="M240.859 150.031C240.859 199.961 200.42 240.403 150.516 240.403C100.613 240.403 60.1562 199.961 60.1562 150.031C60.1562 100.152 100.612 59.7012 150.516 59.7012C200.419 59.7012 240.858 100.152 240.858 150.031H240.859Z" stroke="black" stroke-width="2.55637" stroke-miterlimit="10"/>
<path d="M150.525 117.54L158.111 139.262L181.075 139.776L162.776 153.69L169.428 175.707L150.525 162.62L131.613 175.707L138.232 153.69L119.906 139.776L142.913 139.262L150.525 117.54Z" fill="#FEDF00" stroke="black" stroke-width="1.04478"/>
<path d="M192.241 212.404C191.476 213.045 188.392 213.391 187.576 213.526C186.752 213.635 183.515 213.669 182.147 213.719C181.392 213.77 179.939 213.981 179.183 213.981C172.545 213.224 189.964 213.33 192.241 212.404ZM174.85 207.269C175.283 206.493 177.458 201.653 178.24 200.279C179.038 198.929 180.839 195.329 181.918 193.828C182.471 193.018 184.637 190.666 185.155 191.719C181.382 194.981 178.409 200.669 176.825 204.498C176.621 204.911 175.38 207.041 174.922 207.597C174.48 208.145 174.66 209.178 173.964 209.262C173.233 209.355 173.745 209.486 173.745 209.486C173.745 209.486 174.374 208.087 174.85 207.269ZM199.87 210.971C199.87 210.971 196.871 210.524 195.01 209.866C193.158 209.242 190.048 208.761 187.398 208.829C184.773 208.864 182.369 209.655 180.227 210.473C178.095 211.266 175.334 211.333 175.334 211.333C175.334 211.333 173.771 211.578 174.502 211.215C175.198 210.87 177.619 208.981 177.619 208.981L179.183 206.839C179.633 206.714 187.567 196.302 186.704 193.509C187.92 191.451 189.343 187.782 188.808 187.141C188.553 186.879 182.632 189.021 181.332 190.202C179.828 191.501 178.766 194.208 178.316 195.768C177.874 197.319 175.597 198.601 175.597 198.601C173.745 199.933 172.403 204.149 171.774 207.598C171.137 211.004 162.746 212.891 162.746 212.891C162.746 212.891 160.418 213.759 162.483 214.417C162.84 214.519 163.76 216.076 164.499 216.101C165.527 216.219 170.738 213.99 171.545 214.167C172.497 214.361 174.799 214.959 176.795 215.6C178.783 216.275 180.423 216.621 181.817 216.106C183.227 215.6 185.24 215.794 186.752 216.089C188.239 216.41 189.904 216.275 190.864 215.979C191.892 215.668 194.594 214.166 194.594 214.166C194.594 214.166 197.516 212.902 199.207 212.109C200.898 211.317 199.87 210.971 199.87 210.971Z" fill="#009B3A" stroke="black" stroke-width="1.30609"/>
<path d="M177.067 221.1C177.067 221.1 165.512 215.054 164.892 214.91C164.526 214.86 159.65 212.17 157.416 211.478C155.802 210.956 153.576 210.821 152.777 210.871C150.874 211.006 147.77 211.845 147.77 211.845L150.641 213.017C150.641 213.017 153.334 214.341 154.651 215.049C156.537 216.044 156.622 217.258 156.622 217.258L167.084 221.859L169.208 223.385C169.208 223.385 171.136 220.72 177.066 221.1" fill="#009B3A"/>
<path d="M177.067 221.1C177.067 221.1 165.512 215.054 164.892 214.91C164.526 214.86 159.65 212.17 157.416 211.478C155.802 210.956 153.576 210.821 152.777 210.871C150.874 211.006 147.77 211.845 147.77 211.845L150.641 213.017C150.641 213.017 153.334 214.341 154.651 215.049C156.537 216.044 156.622 217.258 156.622 217.258L167.084 221.859L169.208 223.385C169.208 223.385 171.136 220.72 177.066 221.1" stroke="black" stroke-width="1.04478"/>
<path d="M188.689 197.102C192.322 193.862 194.1 189.252 197.09 186.701C197.573 187.048 197.573 187.626 196.982 188.648C196.418 189.652 195.666 189.999 195.334 190.524C194.725 191.341 192.905 192.854 192.413 193.761C191.974 194.623 191.409 195.824 189.823 196.74C188.247 197.682 188.743 199.182 188.608 199.814C188.483 200.507 186.052 202.246 184.879 204.398C184.656 206.64 184.554 205.701 183.195 206.497C185.67 202.765 186.972 200.362 188.688 197.102M180.521 207.361C180.288 207.85 173.119 211.92 175.359 211.316C177.589 210.729 184.211 208.339 186.091 207.503C188.393 206.498 189.772 204.391 191.501 202.676C193.265 200.925 198.722 195.713 199.662 193.704C200.585 191.632 201.425 188.755 197.726 182.292C197.726 182.292 197.153 183.527 195.773 184.737C194.412 185.972 192.379 187.341 192.379 187.341L190.005 189.581C190.005 189.581 181.631 204.969 180.521 207.361Z" fill="#009B3A"/>
<path d="M188.689 197.102C192.322 193.862 194.1 189.252 197.09 186.701C197.573 187.048 197.573 187.626 196.982 188.648C196.418 189.652 195.666 189.999 195.334 190.524C194.725 191.341 192.905 192.854 192.413 193.761C191.974 194.623 191.409 195.824 189.823 196.74C188.247 197.682 188.743 199.182 188.608 199.814C188.483 200.507 186.052 202.246 184.879 204.398C184.656 206.64 184.554 205.701 183.195 206.497C185.67 202.765 186.972 200.362 188.688 197.102M180.521 207.361C180.288 207.85 173.119 211.92 175.359 211.316C177.589 210.729 184.211 208.339 186.091 207.503C188.393 206.498 189.772 204.391 191.501 202.676C193.265 200.925 198.722 195.713 199.662 193.704C200.585 191.632 201.425 188.755 197.726 182.292C197.726 182.292 197.153 183.527 195.773 184.737C194.412 185.972 192.379 187.341 192.379 187.341L190.005 189.581C190.005 189.581 181.631 204.969 180.521 207.361Z" stroke="black" stroke-width="1.37673"/>
<path d="M209.638 201.946C209.638 201.946 205.05 201.532 204.651 201.532C204.218 201.532 201.703 201.186 198.05 201.186C194.431 201.186 193.072 202.443 192.12 203.455C191.092 204.585 188.238 207.199 188.238 207.199L189.775 207.064C193.446 204.206 196.3 205.253 197.439 205.169C198.628 205.127 200.061 205.244 203.73 203.945C207.46 202.639 207.243 203.86 206.835 203.986C206.427 204.146 204.037 204.985 201.301 205.103C198.532 205.255 196.103 205.793 195.016 205.793C193.92 205.793 185.844 208.001 185.844 208.001C185.844 208.001 194.584 208.515 195.527 208.826C196.461 209.206 197.931 209.029 199.146 208.447C202.493 206.904 204.006 206.609 205.382 206.297C206.766 206.027 208.415 205.091 208.415 205.091C208.415 205.091 209.298 204.534 210.114 203.05C210.955 201.532 209.638 201.946 209.638 201.946ZM213.926 178C214.478 176.634 215.854 173.421 217.315 172.156C218.208 171.38 219.746 171.018 220.561 170.672C220.909 170.553 223.416 170.434 220.281 171.294C218.982 171.64 217.227 172.411 216.445 173.718C215.35 176.761 214.392 179.41 212.357 181.354C210.862 182.923 209.916 184.965 209.916 184.965L208.312 185.522C211.25 183.722 212.526 180.386 213.926 178ZM228.131 176.288C226.457 176.845 225.871 177.309 225.871 177.309C222.124 178.43 220.592 180.781 218.953 182.696C218.12 183.699 216.947 184.447 212.997 186.142C209.386 187.694 206.595 190.09 206.526 190.09C206.526 190.09 205.38 190.326 205.601 190.882C205.686 191.144 206.663 190.933 206.663 190.933C206.663 190.933 214.098 189.874 217.199 187.985C219.178 186.745 220.298 185.842 222.175 182.942C223.016 181.66 223.959 179.248 224.002 180.8C224.146 184.915 217.758 188.903 214.971 190.134C213.484 190.766 211.496 191.028 208.896 191.458C206.331 191.93 204.768 191.787 204.954 191.222C205.218 190.404 205.515 190.235 206.194 189.426C207.418 187.967 210.374 187.453 212.549 186.433C215.124 185.277 217.562 183.582 218.786 182.132C220.034 180.665 220.468 180.125 220.807 178.886C221.759 175.647 221.81 173.851 222.702 172.696C225.845 168.826 226.304 167.578 226.457 165.849C226.492 165.453 224.826 166.768 223.959 167.249C222.269 168.252 221.64 168.252 218.173 169.155C214.656 170.031 214.733 172.3 214.189 173.371C214.028 173.8 212.6 175.58 211.921 175.909C211.241 176.255 209.568 178.675 208.947 180.091C208.488 181.129 207.673 181.871 207.019 181.786C206.331 181.66 208.336 174.163 208.777 172.924C209.253 171.693 209.347 169.289 209.347 168.48C209.347 167.704 209.375 165.662 208.014 165.434C206.663 165.207 206.602 163.34 206.602 163.34C203.348 166.156 205.167 171.119 205.515 174.062C205.863 176.98 204.844 182.376 204.844 182.376C207.988 183.717 205.515 187.537 204.538 188.768C203.511 190.025 201.564 190.252 200.69 191.357C199.764 192.495 193.181 201.662 193.181 201.662L201.369 199.342C201.369 199.342 202.134 199.477 200.911 198.55C199.67 197.664 201.31 194.224 202.363 193.381C204.377 191.804 207.095 192.951 207.095 192.951C207.095 192.951 210.893 193.533 215.548 191.686C219.44 190.151 221.113 187.664 222.957 185.791C223.96 184.771 225.794 181.39 226.95 179.383C227.646 178.228 228.895 176.027 228.13 176.288" fill="#009B3A"/>
<path d="M228.131 176.288C226.457 176.845 225.871 177.309 225.871 177.309C222.124 178.43 220.592 180.781 218.953 182.696C218.12 183.699 216.947 184.447 212.997 186.142C209.386 187.694 206.595 190.09 206.526 190.09C206.526 190.09 205.38 190.326 205.601 190.882C205.686 191.144 206.663 190.933 206.663 190.933C206.663 190.933 214.098 189.874 217.199 187.985C219.178 186.745 220.298 185.842 222.175 182.942C223.016 181.66 223.959 179.248 224.002 180.8C224.146 184.915 217.758 188.903 214.971 190.134C213.484 190.766 211.496 191.028 208.896 191.458C206.331 191.93 204.768 191.787 204.954 191.222C205.218 190.404 205.515 190.235 206.194 189.426C207.418 187.967 210.374 187.453 212.549 186.433C215.124 185.277 217.562 183.582 218.786 182.132C220.034 180.665 220.468 180.125 220.807 178.886C221.759 175.647 221.81 173.851 222.702 172.696C225.845 168.826 226.304 167.578 226.457 165.849C226.492 165.453 224.826 166.768 223.959 167.249C222.269 168.252 221.64 168.252 218.173 169.155C214.656 170.031 214.733 172.3 214.189 173.371C214.028 173.8 212.6 175.58 211.921 175.909C211.241 176.255 209.568 178.675 208.947 180.091C208.488 181.129 207.673 181.871 207.019 181.786C206.331 181.66 208.336 174.163 208.777 172.924C209.253 171.693 209.347 169.289 209.347 168.48C209.347 167.704 209.375 165.662 208.014 165.434C206.663 165.207 206.602 163.34 206.602 163.34C203.348 166.156 205.167 171.119 205.515 174.062C205.863 176.98 204.844 182.376 204.844 182.376C207.988 183.717 205.515 187.537 204.538 188.768C203.511 190.025 201.564 190.252 200.69 191.357C199.764 192.495 193.181 201.662 193.181 201.662L201.369 199.342C201.369 199.342 202.134 199.477 200.911 198.55C199.67 197.664 201.31 194.224 202.363 193.381C204.377 191.804 207.095 192.951 207.095 192.951C207.095 192.951 210.893 193.533 215.548 191.686C219.44 190.151 221.113 187.664 222.957 185.791C223.96 184.771 225.794 181.39 226.95 179.383C227.646 178.228 228.895 176.027 228.13 176.288M209.638 201.946C209.638 201.946 205.05 201.532 204.651 201.532C204.218 201.532 201.703 201.186 198.05 201.186C194.431 201.186 193.072 202.443 192.12 203.455C191.092 204.585 188.238 207.199 188.238 207.199L189.775 207.064C193.446 204.206 196.3 205.253 197.439 205.169C198.628 205.127 200.061 205.244 203.73 203.945C207.46 202.639 207.243 203.86 206.835 203.986C206.427 204.146 204.037 204.985 201.301 205.103C198.532 205.255 196.103 205.793 195.016 205.793C193.92 205.793 185.844 208.001 185.844 208.001C185.844 208.001 194.584 208.515 195.527 208.826C196.461 209.206 197.931 209.029 199.146 208.447C202.493 206.904 204.006 206.609 205.382 206.297C206.766 206.027 208.415 205.091 208.415 205.091C208.415 205.091 209.298 204.534 210.114 203.05C210.955 201.532 209.638 201.946 209.638 201.946ZM213.926 178C214.478 176.634 215.854 173.421 217.315 172.156C218.208 171.38 219.746 171.018 220.561 170.672C220.909 170.553 223.416 170.434 220.281 171.294C218.982 171.64 217.227 172.411 216.445 173.718C215.35 176.761 214.392 179.41 212.357 181.354C210.862 182.923 209.916 184.965 209.916 184.965L208.312 185.522C211.25 183.722 212.526 180.386 213.926 178Z" stroke="black" stroke-width="1.30609"/>
<path d="M204.91 198.303C205.535 198.048 205.63 197.936 206.775 196.686C207.902 195.435 206.908 193.33 205.165 193.415C204.313 193.471 203.404 193.273 201.728 195.529C200.108 197.785 202.504 198.612 203.414 198.706C203.802 198.723 204.313 198.556 204.91 198.303Z" fill="#009B3A" stroke="black" stroke-width="1.45577"/>
<path d="M200.679 184.029C199.595 185.844 199.014 187.928 199.866 188.572C200.059 188.678 200.814 189.34 201.453 189.34C202.082 189.34 203.862 188.485 204.878 186.92C205.894 185.403 206.726 183.731 204.646 182.694C202.759 181.762 201.462 182.636 200.679 184.029Z" fill="#009B3A" stroke="black" stroke-width="1.48738"/>
<path d="M206.872 161.865C206.872 161.865 207.042 161.587 206.328 160.845C205.199 159.689 203.784 157.628 203.784 157.628C201.533 158.859 200.785 161.347 200.785 162.334C200.785 163.362 201.167 165.597 200.819 167.874C200.701 168.649 200.573 169.534 199.46 172.351C198.322 175.134 199.622 177.689 199.877 178.591C200.072 179.485 200.998 182.267 200.998 182.267C200.998 182.267 201.882 181.703 202.179 181.635C202.528 181.543 203.725 181.593 203.725 181.593C203.725 181.593 205.08 179.143 205.131 177.777C205.156 176.774 204.996 175.07 204.52 172.457C203.857 168.653 203.899 167.565 204.35 165.441C204.8 163.282 206.873 161.865 206.873 161.865" fill="#009B3A"/>
<path d="M206.872 161.865C206.872 161.865 207.042 161.587 206.328 160.845C205.199 159.689 203.784 157.628 203.784 157.628C201.533 158.859 200.785 161.347 200.785 162.334C200.785 163.362 201.167 165.597 200.819 167.874C200.701 168.649 200.573 169.534 199.46 172.351C198.322 175.134 199.622 177.689 199.877 178.591C200.072 179.485 200.998 182.267 200.998 182.267C200.998 182.267 201.882 181.703 202.179 181.635C202.528 181.543 203.725 181.593 203.725 181.593C203.725 181.593 205.08 179.143 205.131 177.777C205.156 176.774 204.996 175.07 204.52 172.457C203.857 168.653 203.899 167.565 204.35 165.441C204.8 163.282 206.873 161.865 206.873 161.865" stroke="black" stroke-width="1.30609"/>
<path d="M210.232 165.665C210.232 165.665 211.511 165.359 212.155 164.2C212.967 162.802 212.753 161.319 212.753 161.319C210.773 157.483 208.113 160.578 208.113 160.578C205.732 165.452 210.232 165.665 210.232 165.665" fill="#009B3A"/>
<path d="M210.232 165.665C210.232 165.665 211.511 165.359 212.155 164.2C212.967 162.802 212.753 161.319 212.753 161.319C210.773 157.483 208.113 160.578 208.113 160.578C205.732 165.452 210.232 165.665 210.232 165.665" stroke="black" stroke-width="1.43502"/>
<path d="M216.972 158.632C214.019 158.786 212.565 164.096 212.565 164.096C212.565 164.096 212.088 165.407 210.512 166.42C208.836 167.456 209.824 168.943 209.824 171.587C209.824 174.231 207.981 178.902 207.981 178.902L207.293 180.488C207.293 180.488 207.36 181.678 208.436 179.519C210.268 175.883 212.276 176.765 213.031 172.854C213.508 169.946 218.326 169.021 218.326 169.021L216.971 168.767C211.966 166.42 217.26 160.57 218.115 159.535C219.025 158.5 219.891 158.5 216.971 158.632" fill="#009B3A"/>
<path d="M216.972 158.632C214.019 158.786 212.565 164.096 212.565 164.096C212.565 164.096 212.088 165.407 210.512 166.42C208.836 167.456 209.824 168.943 209.824 171.587C209.824 174.231 207.981 178.902 207.981 178.902L207.293 180.488C207.293 180.488 207.36 181.678 208.436 179.519C210.268 175.883 212.276 176.765 213.031 172.854C213.508 169.946 218.326 169.021 218.326 169.021L216.971 168.767C211.966 166.42 217.26 160.57 218.115 159.535C219.025 158.5 219.891 158.5 216.971 158.632" stroke="black" stroke-width="1.70622"/>
<path d="M216.129 164.929C214.777 167.829 218.624 167.97 219.513 167.463C219.872 167.256 220.685 166.29 220.685 166.29C222.245 164.047 220.818 162.527 220.005 162.311C219.22 162.048 217.547 161.852 216.129 164.929Z" fill="#009B3A" stroke="black" stroke-width="1.4533"/>
<path d="M208.812 153.673C209.823 155.554 212.644 160.791 213.307 160.462C213.723 160.259 213.392 159.188 213.392 159.188C213.392 159.188 213.307 157.771 212.848 156.06C212.398 154.331 212.507 152.122 211.606 150.705C210.731 149.288 208.635 147.611 207.811 145.376C206.996 143.133 207.635 138.891 207.703 138.369C207.788 137.88 208.035 138.2 207.601 137.694C207.159 137.146 203.592 135.248 203.592 135.248C203.592 135.248 203.8 136.631 203.715 139.136C203.681 139.743 203.511 140.451 203.418 141.505C203.333 142.509 203.937 143.774 205.397 146.658C207.097 149.997 207.912 152.046 208.813 153.673M230.201 128.771C230.201 128.771 229.173 130.484 228.808 130.863C228.425 131.242 222.615 136.235 222.283 136.445C222.003 136.664 218.97 137.634 216.209 145.097C213.439 152.534 214.637 159.491 214.637 159.491L215.979 159.322L216.209 158.597C216.209 158.597 216.659 156.126 217.007 154.255C217.389 152.408 219.46 149.827 220.836 147.921C222.145 146.057 223.204 143.377 223.204 143.377C224.76 140.24 225.508 137.435 227.049 135.248C227.112 137.853 217.209 153.871 216.15 159.322L219.08 158.875C221.425 156.733 224.492 152.239 226.565 149.338C228.655 146.429 229.538 141.884 229.921 139.869C230.286 137.879 230.201 128.772 230.201 128.772" fill="#009B3A"/>
<path d="M208.812 153.673C209.823 155.554 212.644 160.791 213.307 160.462C213.723 160.259 213.392 159.188 213.392 159.188C213.392 159.188 213.307 157.771 212.848 156.06C212.398 154.331 212.507 152.122 211.606 150.705C210.731 149.288 208.635 147.611 207.811 145.376C206.996 143.133 207.635 138.891 207.703 138.369C207.788 137.88 208.035 138.2 207.601 137.694C207.159 137.146 203.592 135.248 203.592 135.248C203.592 135.248 203.8 136.631 203.715 139.136C203.681 139.743 203.511 140.451 203.418 141.505C203.333 142.509 203.937 143.774 205.397 146.658C207.097 149.997 207.912 152.046 208.813 153.673M230.201 128.771C230.201 128.771 229.173 130.484 228.808 130.863C228.425 131.242 222.615 136.235 222.283 136.445C222.003 136.664 218.97 137.634 216.209 145.097C213.439 152.534 214.637 159.491 214.637 159.491L215.979 159.322L216.209 158.597C216.209 158.597 216.659 156.126 217.007 154.255C217.389 152.408 219.46 149.827 220.836 147.921C222.145 146.057 223.204 143.377 223.204 143.377C224.76 140.24 225.508 137.435 227.049 135.248C227.112 137.853 217.209 153.871 216.15 159.322L219.08 158.875C221.425 156.733 224.492 152.239 226.565 149.338C228.655 146.429 229.538 141.884 229.921 139.869C230.286 137.879 230.201 128.772 230.201 128.772" stroke="black" stroke-width="1.30609"/>
<path d="M210.46 130.418C208.965 129.035 207.801 128.622 207.801 128.622C207.801 128.622 208.158 131.337 208.158 132.99C208.158 134.651 208.302 137.434 208.217 138.918C208.158 140.402 207.419 142.856 208.472 145.259C209.551 147.629 210.766 148.834 211.624 150.327C212.406 151.786 213.838 159.371 213.838 159.371C213.838 159.371 213.315 149.113 213.765 146.212C214.182 143.362 214.317 138.918 213.68 136.692C213.018 134.457 211.922 131.835 210.46 130.418M217.297 120.405C217.747 119.528 218.8 117.715 219.242 114.957C219.403 113.785 219.514 111.888 219.472 110.572C219.437 109.696 219.089 108.169 219.472 108.068C219.811 107.984 219.526 108.543 219.722 109.842C219.815 110.306 219.495 111.589 219.436 113.233C219.359 114.549 219.307 115.647 218.721 117.426C218.211 118.995 218.673 120.734 218.359 121.223C218.019 121.72 217.119 123.601 217.119 123.601C217.119 123.601 216.566 125.119 216.659 126.501C216.71 127.918 216.795 129.445 216.795 129.445C216.795 129.445 217.45 128.23 218.911 128.028C218.911 128.028 219.242 125.658 219.242 124.916C219.242 124.174 220.194 119.317 220.678 117.833C221.341 115.657 221.808 111.871 220.755 107.478C220.466 106.289 220.254 102.57 220.254 102.57C220.254 102.57 218.852 103.692 218.019 107.933C217.764 109.223 218.308 112.68 218.096 116.365C218.011 118.398 216.062 126.634 215.799 127.148" fill="#009B3A"/>
<path d="M210.46 130.418C208.965 129.035 207.801 128.622 207.801 128.622C207.801 128.622 208.158 131.337 208.158 132.99C208.158 134.651 208.302 137.434 208.217 138.918C208.158 140.402 207.419 142.856 208.472 145.259C209.551 147.629 210.766 148.834 211.624 150.327C212.406 151.786 213.838 159.371 213.838 159.371C213.838 159.371 213.315 149.113 213.765 146.212C214.182 143.362 214.317 138.918 213.68 136.692C213.018 134.457 211.922 131.835 210.46 130.418M217.297 120.405C217.747 119.528 218.8 117.715 219.242 114.957C219.403 113.785 219.514 111.888 219.472 110.572C219.437 109.696 219.089 108.169 219.472 108.068C219.811 107.984 219.526 108.543 219.722 109.842C219.815 110.306 219.495 111.589 219.436 113.233C219.359 114.549 219.307 115.647 218.721 117.426C218.211 118.995 218.673 120.734 218.359 121.223C218.019 121.72 217.119 123.601 217.119 123.601C217.119 123.601 216.566 125.119 216.659 126.501C216.71 127.918 216.795 129.445 216.795 129.445C216.795 129.445 217.45 128.23 218.911 128.028C218.911 128.028 219.242 125.658 219.242 124.916C219.242 124.174 220.194 119.317 220.678 117.833C221.341 115.657 221.808 111.871 220.755 107.478C220.466 106.289 220.254 102.57 220.254 102.57C220.254 102.57 218.852 103.692 218.019 107.933C217.764 109.223 218.308 112.68 218.096 116.365C218.011 118.398 216.062 126.634 215.799 127.148" stroke="black" stroke-width="1.30609"/>
<path d="M217.297 120.405C217.229 120.532 217.203 120.583 217.203 120.583C217.203 120.583 217.263 120.532 217.297 120.405Z" fill="#009B3A" stroke="black" stroke-width="1.30609"/>
<path d="M211.774 99.0256C212.521 99.0256 212.521 99.8358 212.368 100.476C212.25 101.134 212.266 102.357 212.266 102.61C212.266 102.896 212.581 104.642 212.827 105.553C213.099 106.489 213.566 106.784 213.362 108.664C213.226 109.845 212.012 111.236 212.436 113.243C212.666 114.297 213.421 115.402 213.795 116.312C214.11 116.944 213.939 118.49 214.023 119.754C214.058 120.986 214.738 121.819 214.738 121.819C214.738 121.819 213.898 123.387 213.617 121.422C213.311 119.171 213.21 118.167 212.776 117.147C212.071 115.477 211.425 112.474 212.521 110.155C212.708 109.708 212.854 108.875 212.854 107.888C212.854 106.885 212.235 105.17 212.116 104.107C212.014 103.264 212.081 101.484 212.081 100.843M208.154 110.275C208.331 111.548 208.74 112.273 210.175 115.039C210.618 115.95 211.62 118.277 211.773 119.019C211.951 119.761 212.104 120.655 212.104 120.882C212.104 121.127 212.266 122.873 212.266 122.873V123.598C212.266 123.598 208.29 121.279 206.548 120.039C204.815 118.791 202.844 117.08 201.587 116.043C200.159 114.87 196.761 110.84 196.719 107.61L195.156 106.193C195.156 106.193 193.966 113.369 199.59 118.016C201.213 119.348 202.98 120.815 206.761 122.527C210.549 124.273 210.052 125.837 211.633 129.192C213.188 132.565 214.16 134.505 214.356 135.458C214.492 136.478 213.926 150.816 213.926 150.816L214.062 152.114C214.062 152.114 217.524 138.835 219.19 137.351C219.19 137.351 215.885 136.845 216.148 131.651L215.57 128.227C215.57 128.227 214.908 124.113 216.148 121.557C216.148 121.557 217.618 116.877 217.116 112.83C216.802 110.409 216.692 109.684 216.395 107.366C215.944 103.757 214.5 98.5959 214.339 97.972C213.846 96.159 213.676 95.8804 213.099 94.4469C212.928 93.9411 212.606 92.2714 212.07 92.2462C211.765 92.2289 211.297 94.3965 211.297 94.3965C211.297 94.3965 210.601 96.7578 210.456 97.3984C210.006 99.3042 208.952 100.906 208.468 105.19C208.383 105.966 208.298 108.057 208.205 108.335C208.154 108.571 208.052 109.802 208.154 110.275" fill="#009B3A"/>
<path d="M211.774 99.0256C212.521 99.0256 212.521 99.8358 212.368 100.476C212.25 101.134 212.266 102.357 212.266 102.61C212.266 102.896 212.581 104.642 212.827 105.553C213.099 106.489 213.566 106.784 213.362 108.664C213.226 109.845 212.012 111.236 212.436 113.243C212.666 114.297 213.421 115.402 213.795 116.312C214.11 116.944 213.939 118.49 214.023 119.754C214.058 120.986 214.738 121.819 214.738 121.819C214.738 121.819 213.898 123.387 213.617 121.422C213.311 119.171 213.21 118.167 212.776 117.147C212.071 115.477 211.425 112.474 212.521 110.155C212.708 109.708 212.854 108.875 212.854 107.888C212.854 106.885 212.235 105.17 212.116 104.107C212.014 103.264 212.081 101.484 212.081 100.843M208.154 110.275C208.331 111.548 208.74 112.273 210.175 115.039C210.618 115.95 211.62 118.277 211.773 119.019C211.951 119.761 212.104 120.655 212.104 120.882C212.104 121.127 212.266 122.873 212.266 122.873V123.598C212.266 123.598 208.29 121.279 206.548 120.039C204.815 118.791 202.844 117.08 201.587 116.043C200.159 114.87 196.761 110.84 196.719 107.61L195.156 106.193C195.156 106.193 193.966 113.369 199.59 118.016C201.213 119.348 202.98 120.815 206.761 122.527C210.549 124.273 210.052 125.837 211.633 129.192C213.188 132.565 214.16 134.505 214.356 135.458C214.492 136.478 213.926 150.816 213.926 150.816L214.062 152.114C214.062 152.114 217.524 138.835 219.19 137.351C219.19 137.351 215.885 136.845 216.148 131.651L215.57 128.227C215.57 128.227 214.908 124.113 216.148 121.557C216.148 121.557 217.618 116.877 217.116 112.83C216.802 110.409 216.692 109.684 216.395 107.366C215.944 103.757 214.5 98.5959 214.339 97.972C213.846 96.159 213.676 95.8804 213.099 94.4469C212.928 93.9411 212.606 92.2714 212.07 92.2462C211.765 92.2289 211.297 94.3965 211.297 94.3965C211.297 94.3965 210.601 96.7578 210.456 97.3984C210.006 99.3042 208.952 100.906 208.468 105.19C208.383 105.966 208.298 108.057 208.205 108.335C208.154 108.571 208.052 109.802 208.154 110.275" stroke="black" stroke-width="1.30609"/>
<path d="M211.109 128.394C211.109 128.394 210.532 127.112 209.946 126.454C208.765 125.063 207.176 123.882 202.657 121.672C198.154 119.43 196.965 115.745 194.67 114.227C193.617 113.502 191.578 113.156 191.578 113.156C191.578 113.156 193.583 115.914 194.059 116.866C194.67 118.081 194.815 118.907 197.295 121.218C199.759 123.536 202.767 124.346 204.704 124.919C207.439 125.771 211.11 128.394 211.11 128.394M196.92 107.085C197.038 107.448 198.199 111.412 200.638 114.49C204.367 119.203 211.546 122.57 211.546 122.57C210.875 119.636 209.704 116.243 208.779 114.742C205.516 109.472 196.894 106.891 196.894 106.891C196.894 106.891 196.741 106.688 196.919 107.085M207.21 109.305C209.142 105.077 203.373 101.037 201.747 98.0901C202.35 97.6095 203.064 98.8657 203.727 99.7005C204.67 100.957 207.329 104.591 207.329 104.591L208.153 100.721L201.285 94.4717C201.2 95.3821 199.081 96.128 199.081 96.128C198.053 101.913 207.21 109.305 207.21 109.305Z" fill="#009B3A"/>
<path d="M211.109 128.394C211.109 128.394 210.532 127.112 209.946 126.454C208.765 125.063 207.176 123.882 202.657 121.672C198.154 119.43 196.965 115.745 194.67 114.227C193.617 113.502 191.578 113.156 191.578 113.156C191.578 113.156 193.583 115.914 194.059 116.866C194.67 118.081 194.815 118.907 197.295 121.218C199.759 123.536 202.767 124.346 204.704 124.919C207.439 125.771 211.11 128.394 211.11 128.394M196.92 107.085C197.038 107.448 198.199 111.412 200.638 114.49C204.367 119.203 211.546 122.57 211.546 122.57C210.875 119.636 209.704 116.243 208.779 114.742C205.516 109.472 196.894 106.891 196.894 106.891C196.894 106.891 196.741 106.688 196.919 107.085M207.21 109.305C209.142 105.077 203.373 101.037 201.747 98.0901C202.35 97.6095 203.064 98.8657 203.727 99.7005C204.67 100.957 207.329 104.591 207.329 104.591L208.153 100.721L201.285 94.4717C201.2 95.3821 199.081 96.128 199.081 96.128C198.053 101.913 207.21 109.305 207.21 109.305Z" stroke="black" stroke-width="1.30609"/>
<path d="M195.247 99.504C193.59 100.246 193.004 100.246 193.004 100.246L193.929 102.697L194.464 103.363C194.464 103.363 196.622 106.483 197.879 106.871C198.406 107.065 200.369 107.411 202.34 108.254C204.82 109.308 208.867 112.849 208.867 112.849C208.867 112.849 202.134 105.254 199.551 99.5613L198.681 96.2793L196.24 96.4428C196.24 96.4428 196.912 98.7448 195.247 99.504Z" fill="#009B3A" stroke="black" stroke-width="1.30609"/>
<path d="M170.048 94.6471C170.821 95.3387 172.086 96.3923 173.709 97.362C175.196 98.2561 179.478 100.777 182.68 101.385C183.428 101.503 187.453 102.009 187.453 102.009C187.615 100.246 189.526 100.095 189.526 100.095L183.827 99.4703C179.232 99.128 175.734 97.2089 173.013 94.1328C176.665 96.3459 181.913 99.8334 186.167 99.6482C203.636 97.9291 180.905 97.4974 178.934 96.2323C176.844 94.942 175.06 92.8001 175.06 92.8001L169.937 92.5728C169.937 92.5728 167.423 92.4123 170.047 94.6466" fill="#009B3A"/>
<path d="M170.048 94.6471C170.821 95.3387 172.086 96.3923 173.709 97.362C175.196 98.2561 179.478 100.777 182.68 101.385C183.428 101.503 187.453 102.009 187.453 102.009C187.615 100.246 189.526 100.095 189.526 100.095L183.827 99.4703C179.232 99.128 175.734 97.2089 173.013 94.1328C176.665 96.3459 181.913 99.8334 186.167 99.6482C203.636 97.9291 180.905 97.4974 178.934 96.2323C176.844 94.942 175.06 92.8001 175.06 92.8001L169.937 92.5728C169.937 92.5728 167.423 92.4123 170.047 94.6466" stroke="black" stroke-width="1.30609"/>
<path d="M190.617 104.594C191.747 104.51 192.537 104.299 192.792 103.059C193.021 101.676 192.494 100.673 190.829 100.31C189.903 100.083 188.28 100.032 187.618 101.676C186.896 103.363 189.521 104.442 189.521 104.442C189.521 104.442 190.022 104.661 190.617 104.594ZM192.575 94.5806C191.096 94.5806 190.595 95.7859 190.909 98.1387C191.3 100.508 194.927 99.471 194.927 99.471L195.599 99.1252C195.599 99.1252 196.091 98.7458 195.82 96.8573C195.565 94.9259 194.061 94.5801 192.574 94.5801M198.514 96.2443H198.455C198.43 96.2616 198.514 96.2443 198.514 96.2443Z" fill="#009B3A"/>
<path d="M192.575 94.5806C191.096 94.5806 190.595 95.7859 190.909 98.1387C191.3 100.508 194.927 99.471 194.927 99.471L195.599 99.1252C195.599 99.1252 196.091 98.7458 195.82 96.8573C195.565 94.9259 194.061 94.5801 192.574 94.5801M190.617 104.594C191.747 104.51 192.537 104.299 192.792 103.059C193.021 101.676 192.494 100.673 190.829 100.31C189.903 100.083 188.28 100.032 187.618 101.676C186.896 103.363 189.521 104.442 189.521 104.442C189.521 104.442 190.022 104.661 190.617 104.594ZM198.514 96.2443H198.455C198.43 96.2616 198.514 96.2443 198.514 96.2443Z" stroke="black" stroke-width="1.30609"/>
<path d="M198.456 96.245C198.498 96.2277 198.6 96.1773 198.983 96.0672C199.739 95.7807 200.503 93.9677 200.503 93.9677C200.886 91.5141 199.127 90.907 199.127 90.907C196.17 90.3167 196.094 92.9141 196.094 92.9141C195.279 96.2954 198.022 96.2618 198.456 96.245ZM185.29 84.6334C185.451 85.7548 187.048 87.3824 187.294 87.6606C187.583 87.914 189.622 90.0386 190.31 90.9915C190.998 91.9444 193.286 96.2672 193.286 96.2672C193.286 96.2672 193.685 96.1991 193.855 95.8706C194.254 95.1958 192.323 89.9625 192.128 89.5999C191.422 88.0098 190.266 86.8252 189.104 85.5863C188.832 85.409 187.88 84.1864 186.836 82.8709C188.902 85.5172 194.204 93.0405 195.766 96.3848C195.766 96.3848 195.577 92.8212 195.382 90.907C194.72 85.325 193.267 83.5961 192.8 82.7869C191.976 81.2773 189.885 79.8102 188.39 79.2954C186.895 78.756 185.128 78.0141 183.233 77.4069C181.279 76.8082 182.784 78.5703 183.505 80.0883C184.406 81.8844 185.128 83.4948 185.29 84.6329" fill="#009B3A"/>
<path d="M185.29 84.6334C185.451 85.7548 187.048 87.3824 187.294 87.6606C187.583 87.914 189.622 90.0386 190.31 90.9915C190.998 91.9444 193.286 96.2672 193.286 96.2672C193.286 96.2672 193.685 96.1991 193.855 95.8706C194.254 95.1958 192.323 89.9625 192.128 89.5999C191.422 88.0098 190.266 86.8252 189.104 85.5863C188.832 85.409 187.88 84.1864 186.836 82.8709C188.902 85.5172 194.204 93.0405 195.766 96.3848C195.766 96.3848 195.577 92.8212 195.382 90.907C194.72 85.325 193.267 83.5961 192.8 82.7869C191.976 81.2773 189.885 79.8102 188.39 79.2954C186.895 78.756 185.128 78.0141 183.233 77.4069C181.279 76.8082 182.784 78.5703 183.505 80.0883C184.406 81.8844 185.128 83.4948 185.29 84.6329M198.456 96.245C198.498 96.2277 198.6 96.1773 198.983 96.0672C199.739 95.7807 200.503 93.9677 200.503 93.9677C200.886 91.5141 199.127 90.907 199.127 90.907C196.17 90.3167 196.094 92.9141 196.094 92.9141C195.279 96.2954 198.022 96.2618 198.456 96.245Z" stroke="black" stroke-width="1.30609"/>
<path d="M177.997 93.8159C179.926 95.4514 180.792 96.5901 184.794 97.1799C188.829 97.8127 189.168 97.543 189.168 97.543C189.168 97.543 191.26 96.5323 190.198 95.6466C184.269 93.0398 178.655 89.9346 175.805 86.4456C175.805 86.4456 176.298 85.965 178.354 88.0224C179.543 89.2287 180.341 89.8353 181.072 90.4005C183.23 91.9101 184.164 92.3398 186.314 93.5126C187.461 94.136 190.324 94.8108 190.324 94.8108C190.324 94.8108 190.732 93.9423 191.097 93.8411C191.445 93.7571 190.875 92.3957 188.386 90.3807C186.194 88.6098 184.75 86.4338 184.75 86.4338C184.75 86.4338 181.803 85.7881 178.609 85.2566C176.23 84.8772 171.752 81.4035 171.829 82.3475C171.914 83.3172 172.5 86.3276 173.706 88.2418C174.921 90.1643 176.077 92.1294 177.997 93.8159" fill="#009B3A"/>
<path d="M177.997 93.8159C179.926 95.4514 180.792 96.5901 184.794 97.1799C188.829 97.8127 189.168 97.543 189.168 97.543C189.168 97.543 191.26 96.5323 190.198 95.6466C184.269 93.0398 178.655 89.9346 175.805 86.4456C175.805 86.4456 176.298 85.965 178.354 88.0224C179.543 89.2287 180.341 89.8353 181.072 90.4005C183.23 91.9101 184.164 92.3398 186.314 93.5126C187.461 94.136 190.324 94.8108 190.324 94.8108C190.324 94.8108 190.732 93.9423 191.097 93.8411C191.445 93.7571 190.875 92.3957 188.386 90.3807C186.194 88.6098 184.75 86.4338 184.75 86.4338C184.75 86.4338 181.803 85.7881 178.609 85.2566C176.23 84.8772 171.752 81.4035 171.829 82.3475C171.914 83.3172 172.5 86.3276 173.706 88.2418C174.921 90.1643 176.077 92.1294 177.997 93.8159" stroke="black" stroke-width="1.30609"/>
<path d="M144.665 214.459C142.914 214.974 129.803 219.898 129.803 219.898L126.141 221.365C131.196 220.227 135.069 222.773 135.069 222.773L149.676 216.011C149.676 216.011 149.634 215.792 149.269 215.53C148.887 215.269 146.431 213.928 144.665 214.459Z" fill="#009B3A" stroke="black" stroke-width="1.04478"/>
<path d="M125.583 221.809C125.486 221.893 125.389 222.239 125.641 222.349C126.369 222.754 126.175 222.914 129.484 223.31C132.822 223.672 134.996 223.04 135.569 222.407C136.239 221.674 127.3 220.308 125.583 221.809Z" fill="#009B3A" stroke="black" stroke-width="1.1164"/>
<path d="M104.604 174.633L103.996 170.537C103.996 170.537 103.232 159.454 101.976 157.232C101.733 156.739 101.841 155.589 101.042 155.57C99.5143 155.454 99.5143 159.058 99.3291 162.324C96.8414 178.796 109.977 191.372 109.977 191.372L104.604 174.633Z" fill="#009B3A" stroke="black" stroke-width="1.44935"/>
<path d="M169.611 223.436C169.611 223.436 168.233 223.128 169.107 222.054C169.942 221.03 172.427 220.483 172.924 220.483C173.413 220.462 174.806 220.582 175.845 220.871C176.892 221.129 178.337 222.054 177.916 222.72C177.471 223.356 176.056 224.152 174.121 224.152C172.465 224.152 171.614 224.112 170.883 223.903C170.176 223.635 169.611 223.436 169.611 223.436" fill="#009B3A"/>
<path d="M169.611 223.436C169.611 223.436 168.233 223.128 169.107 222.054C169.942 221.03 172.427 220.483 172.924 220.483C173.413 220.462 174.806 220.582 175.845 220.871C176.892 221.129 178.337 222.054 177.916 222.72C177.471 223.356 176.056 224.152 174.121 224.152C172.465 224.152 171.614 224.112 170.883 223.903C170.176 223.635 169.611 223.436 169.611 223.436" stroke="black" stroke-width="1.33524"/>
<path d="M155.37 215.599C155.37 215.599 150.859 213.525 146.586 211.434C140.953 208.685 134.182 204.865 129.467 197.857C123.562 189.181 118.431 184.534 117.191 183.598C115.916 182.662 115.729 182.316 115.262 182.974C114.837 183.547 115.134 184.045 115.491 184.652C116.706 186.625 119.688 190.336 120.759 192.326C122.602 195.884 126.417 199.772 126.383 202.074C126.383 202.394 125.27 201.846 125.27 201.846C125.27 201.846 116.34 198.785 112.722 187.966C110.088 180.124 111.209 177.822 110.597 173.901C109.553 166.936 109.34 166.37 105.891 158.563C105.797 158.368 103.784 155.105 103.512 155.83C103.138 156.766 103.852 160.257 103.852 160.257L104.218 164.279C104.218 164.279 103.929 173.209 103.929 173.749C103.929 174.288 101.677 179.863 111.235 189.231C111.235 189.231 111.379 190.825 110.097 189.425C109.188 188.421 102.348 183.168 100.267 174.525C98.1258 165.881 97.8116 157.23 99.4344 153.637C100.904 150.391 103.852 142.456 102.595 135.525C102.45 134.799 102.247 132.674 101.788 133.231C101.593 133.501 100.734 137.009 100.216 138.223C99.4936 139.885 98.3723 141.52 98.024 142.667C97.3527 144.615 94.0564 147.625 94.702 153.165C95.4331 159.532 95.849 160.527 96.6137 162.795C96.8775 163.621 97.5142 165.729 97.0978 165.941C96.7155 166.143 95.3649 163.419 95.3649 163.419C95.3649 163.419 89.3161 151.529 93.0457 141.883C96.8177 132.278 106.282 123.171 106.282 123.171C106.282 123.171 113.97 116.796 115.534 115.312C116.145 114.739 116.001 114.309 115.797 114.376C113.885 114.857 99.0945 117.918 93.8953 135.541C93.8953 135.541 93.6236 136.284 93.2413 136.098C92.7656 135.887 93.2413 135.061 93.2413 135.061C93.2413 135.061 96.4952 122.564 105.628 116.897C115.593 110.683 114.421 111.594 117.717 109.637C119.79 108.347 121.668 106.619 123.987 102.782C124.225 102.352 125.167 100.117 125.04 99.7375C124.938 99.3581 124.488 99.8807 124.276 100.513C124.276 100.513 121.455 104.873 117.233 106.34C112.994 107.807 109.553 105.716 105.296 110.421C101.032 115.152 97.6417 121.704 97.6417 121.704C97.6417 121.704 96.5287 123.399 96.2827 123.348C95.8154 123.205 96.512 121.544 96.512 121.544C96.512 121.544 102.204 109.468 106.775 107.015C111.354 104.544 115.432 102.175 118.032 100.168C121.192 97.6884 126.638 91.6169 128.6 89.5258C129.017 89.0793 131.939 86.1193 132.585 85.158C132.975 84.6349 133.902 83.8761 133.748 83.7413C133.332 83.4291 130.563 84.7619 130.563 84.7619C130.563 84.7619 115.487 88.9163 106.108 103.082C105.674 103.74 104.643 105.078 104.091 105.643C103.088 106.68 102.588 108.411 102.588 108.411C101.976 107.905 107.888 100.514 107.888 100.514L108.924 95.7318C108.924 95.7318 110.674 88.5478 114.353 83.48C114.719 83.0161 116.893 80.8238 117.259 80.3679C117.989 79.5755 115.874 81.0595 116.248 80.731C116.248 80.731 102.187 90.8245 102.187 103.541C102.187 105.826 100.769 107.908 98.806 110.75C96.5119 114.047 95.7478 116.071 94.7534 120.979C94.0484 124.487 93.4621 127.16 93.4621 127.16C93.4621 127.16 93.5979 128.973 93.0121 128.838C92.4 128.703 92.6124 127.202 92.6124 127.202C92.6124 127.202 94.0484 117.724 95.0675 114.806C96.0619 111.973 96.716 110.042 96.716 110.042C96.716 110.042 96.1296 102.917 97.7099 99.0123C99.0525 95.6058 102.451 91.1194 102.977 89.9981C103.206 89.509 104.778 86.313 105.22 82.6703C105.279 82.1813 104.897 82.5864 104.26 84.011C102.714 87.4936 101.423 88.4045 98.8826 91.6845C98.8826 91.6845 92.3664 96.407 90.0042 110.455C90.0042 110.455 89.9281 115.692 89.1294 123.896C88.5514 129.909 89.0444 135.541 89.7241 138.932C90.1573 141.006 90.9813 141.023 90.4715 141.276C90.1573 141.436 90.6745 141.303 89.9355 139.734C89.035 137.854 88.3449 134.96 88.3449 130.963C88.3449 123.635 88.9822 117.749 88.9822 117.749C88.9822 117.749 89.4608 105.91 84.5501 100.572C84.3125 100.294 85.4082 102.967 85.9012 105.632C86.5038 108.937 85.4082 113.525 85.0856 115.312C84.7709 117.108 81.5003 124.934 82.6552 132.278C82.6552 132.278 85.4255 144.733 88.993 150.77C88.993 150.77 91.2125 153.37 89.2499 150.932C87.3046 148.496 83.3097 138.805 82.9615 137.978C82.6557 137.186 79.7926 131.156 77.0999 128.703C75.7063 127.404 71.875 125.102 71.875 125.102C71.875 125.102 69.7934 123.517 71.3736 125.625C72.6224 127.286 74.296 130.271 75.0948 131.57C76.7549 134.255 78.2309 137.05 79.5125 139.935C80.7954 142.751 83.777 151.04 83.777 151.04L85.6863 156.298C85.6863 156.298 88.8834 158.073 90.6247 160.012C92.0523 161.581 95.0088 165.181 97.4639 171.59C98.5684 174.423 100.771 177.021 100.771 177.021C100.771 177.021 100.305 177.92 98.3422 174.521C96.4052 171.081 94.5088 164.625 89.8446 159.599C86.3023 155.746 76.7684 151.858 76.7684 151.858C76.7684 151.858 82.8938 162.533 84.4143 164.439C86.9884 167.492 90.7096 171.775 91.6699 172.905C92.6638 174.061 98.4237 181.178 99.2733 182.316C100.615 184.095 101.499 184.879 102.204 185.605C103.725 187.224 108.226 190.175 108.575 190.64C108.642 191.113 108.733 190.722 108.35 190.444C106.354 189.255 103.969 187.373 101.506 185.771C99.0505 184.143 89.5695 180.098 83.1828 171.295C81.6702 168.689 80.9485 167.652 80.4387 167.922C79.6567 168.335 84.7374 185.149 95.1871 190.496C95.1871 190.496 106.716 195.623 109.273 197.166C110.674 198.009 113.504 199.257 114.812 200.311C115.559 200.927 114.132 200.893 114.039 200.876C107.914 200.395 99.1207 199.586 93.7259 196.457C93.7259 196.457 91.4066 194.83 93.3095 197.115C94.8215 198.886 97.6931 203.245 103.233 205.699C108.78 208.136 116.842 209.552 119.791 209.705C122.688 209.865 133.018 209.916 134.998 210.556C136.935 211.214 140.23 213.326 142.117 213.933C143.833 214.489 149.007 216.471 149.007 216.471C149.007 216.471 150.561 217.322 151.394 217.626C152.328 217.997 156.204 217.964 156.476 217.239C156.74 216.59 155.371 215.599 155.371 215.599" fill="#009B3A"/>
<path d="M155.37 215.599C155.37 215.599 150.859 213.525 146.586 211.434C140.953 208.685 134.182 204.865 129.467 197.857C123.562 189.181 118.431 184.534 117.191 183.598C115.916 182.662 115.729 182.316 115.262 182.974C114.837 183.547 115.134 184.045 115.491 184.652C116.706 186.625 119.688 190.336 120.759 192.326C122.602 195.884 126.417 199.772 126.383 202.074C126.383 202.394 125.27 201.846 125.27 201.846C125.27 201.846 116.34 198.785 112.722 187.966C110.088 180.124 111.209 177.822 110.597 173.901C109.553 166.936 109.34 166.37 105.891 158.563C105.797 158.368 103.784 155.105 103.512 155.83C103.138 156.766 103.852 160.257 103.852 160.257L104.218 164.279C104.218 164.279 103.929 173.209 103.929 173.749C103.929 174.288 101.677 179.863 111.235 189.231C111.235 189.231 111.379 190.825 110.097 189.425C109.188 188.421 102.348 183.168 100.267 174.525C98.1258 165.881 97.8116 157.23 99.4344 153.637C100.904 150.391 103.852 142.456 102.595 135.525C102.45 134.799 102.247 132.674 101.788 133.231C101.593 133.501 100.734 137.009 100.216 138.223C99.4936 139.885 98.3723 141.52 98.024 142.667C97.3527 144.615 94.0564 147.625 94.702 153.165C95.4331 159.532 95.849 160.527 96.6137 162.795C96.8775 163.621 97.5142 165.729 97.0978 165.941C96.7155 166.143 95.3649 163.419 95.3649 163.419C95.3649 163.419 89.3161 151.529 93.0457 141.883C96.8177 132.278 106.282 123.171 106.282 123.171C106.282 123.171 113.97 116.796 115.534 115.312C116.145 114.739 116.001 114.309 115.797 114.376C113.885 114.857 99.0945 117.918 93.8953 135.541C93.8953 135.541 93.6236 136.284 93.2413 136.098C92.7656 135.887 93.2413 135.061 93.2413 135.061C93.2413 135.061 96.4952 122.564 105.628 116.897C115.593 110.683 114.421 111.594 117.717 109.637C119.79 108.347 121.668 106.619 123.987 102.782C124.225 102.352 125.167 100.117 125.04 99.7375C124.938 99.3581 124.488 99.8807 124.276 100.513C124.276 100.513 121.455 104.873 117.233 106.34C112.994 107.807 109.553 105.716 105.296 110.421C101.032 115.152 97.6417 121.704 97.6417 121.704C97.6417 121.704 96.5287 123.399 96.2827 123.348C95.8154 123.205 96.512 121.544 96.512 121.544C96.512 121.544 102.204 109.468 106.775 107.015C111.354 104.544 115.432 102.175 118.032 100.168C121.192 97.6884 126.638 91.6169 128.6 89.5258C129.017 89.0793 131.939 86.1193 132.585 85.158C132.975 84.6349 133.902 83.8761 133.748 83.7413C133.332 83.4291 130.563 84.7619 130.563 84.7619C130.563 84.7619 115.487 88.9163 106.108 103.082C105.674 103.74 104.643 105.078 104.091 105.643C103.088 106.68 102.588 108.411 102.588 108.411C101.976 107.905 107.888 100.514 107.888 100.514L108.924 95.7318C108.924 95.7318 110.674 88.5478 114.353 83.48C114.719 83.0161 116.893 80.8238 117.259 80.3679C117.989 79.5755 115.874 81.0595 116.248 80.731C116.248 80.731 102.187 90.8245 102.187 103.541C102.187 105.826 100.769 107.908 98.806 110.75C96.5119 114.047 95.7478 116.071 94.7534 120.979C94.0484 124.487 93.4621 127.16 93.4621 127.16C93.4621 127.16 93.5979 128.973 93.0121 128.838C92.4 128.703 92.6124 127.202 92.6124 127.202C92.6124 127.202 94.0484 117.724 95.0675 114.806C96.0619 111.973 96.716 110.042 96.716 110.042C96.716 110.042 96.1296 102.917 97.7099 99.0123C99.0525 95.6058 102.451 91.1194 102.977 89.9981C103.206 89.509 104.778 86.313 105.22 82.6703C105.279 82.1813 104.897 82.5864 104.26 84.011C102.714 87.4936 101.423 88.4045 98.8826 91.6845C98.8826 91.6845 92.3664 96.407 90.0042 110.455C90.0042 110.455 89.9281 115.692 89.1294 123.896C88.5514 129.909 89.0444 135.541 89.7241 138.932C90.1573 141.006 90.9813 141.023 90.4715 141.276C90.1573 141.436 90.6745 141.303 89.9355 139.734C89.035 137.854 88.3449 134.96 88.3449 130.963C88.3449 123.635 88.9822 117.749 88.9822 117.749C88.9822 117.749 89.4608 105.91 84.5501 100.572C84.3125 100.294 85.4082 102.967 85.9012 105.632C86.5038 108.937 85.4082 113.525 85.0856 115.312C84.7709 117.108 81.5003 124.934 82.6552 132.278C82.6552 132.278 85.4255 144.733 88.993 150.77C88.993 150.77 91.2125 153.37 89.2499 150.932C87.3046 148.496 83.3097 138.805 82.9615 137.978C82.6557 137.186 79.7926 131.156 77.0999 128.703C75.7063 127.404 71.875 125.102 71.875 125.102C71.875 125.102 69.7934 123.517 71.3736 125.625C72.6224 127.286 74.296 130.271 75.0948 131.57C76.7549 134.255 78.2309 137.05 79.5125 139.935C80.7954 142.751 83.777 151.04 83.777 151.04L85.6863 156.298C85.6863 156.298 88.8834 158.073 90.6247 160.012C92.0523 161.581 95.0088 165.181 97.4639 171.59C98.5684 174.423 100.771 177.021 100.771 177.021C100.771 177.021 100.305 177.92 98.3422 174.521C96.4052 171.081 94.5088 164.625 89.8446 159.599C86.3023 155.746 76.7684 151.858 76.7684 151.858C76.7684 151.858 82.8938 162.533 84.4143 164.439C86.9884 167.492 90.7096 171.775 91.6699 172.905C92.6638 174.061 98.4237 181.178 99.2733 182.316C100.615 184.095 101.499 184.879 102.204 185.605C103.725 187.224 108.226 190.175 108.575 190.64C108.642 191.113 108.733 190.722 108.35 190.444C106.354 189.255 103.969 187.373 101.506 185.771C99.0505 184.143 89.5695 180.098 83.1828 171.295C81.6702 168.689 80.9485 167.652 80.4387 167.922C79.6567 168.335 84.7374 185.149 95.1871 190.496C95.1871 190.496 106.716 195.623 109.273 197.166C110.674 198.009 113.504 199.257 114.812 200.311C115.559 200.927 114.132 200.893 114.039 200.876C107.914 200.395 99.1207 199.586 93.7259 196.457C93.7259 196.457 91.4066 194.83 93.3095 197.115C94.8215 198.886 97.6931 203.245 103.233 205.699C108.78 208.136 116.842 209.552 119.791 209.705C122.688 209.865 133.018 209.916 134.998 210.556C136.935 211.214 140.23 213.326 142.117 213.933C143.833 214.489 149.007 216.471 149.007 216.471C149.007 216.471 150.561 217.322 151.394 217.626C152.328 217.997 156.204 217.964 156.476 217.239C156.74 216.59 155.371 215.599 155.371 215.599" stroke="black" stroke-width="1.04478"/>
<path d="M222.357 128.049C223.529 128.479 224.047 131.953 224.047 131.953C224.047 131.953 223.945 129.963 223.945 128.985C223.945 127.998 223.461 124.297 223.461 124.297L222.425 125.039C221.184 126.025 220.496 127.771 220.496 127.771C220.496 127.771 221.21 127.653 222.356 128.049" fill="#009B3A"/>
<path d="M222.357 128.049C223.529 128.479 224.047 131.953 224.047 131.953C224.047 131.953 223.945 129.963 223.945 128.985C223.945 127.998 223.461 124.297 223.461 124.297L222.425 125.039C221.184 126.025 220.496 127.771 220.496 127.771C220.496 127.771 221.21 127.653 222.356 128.049" stroke="black" stroke-width="1.30609"/>
</svg>
