<svg width="300" height="300" viewBox="0 0 300 300" fill="none" xmlns="http://www.w3.org/2000/svg">
<path d="M85.3945 162.313C77.0689 169.376 69.1371 179.666 67.1895 188.968C61.7068 215.16 54.4243 220.986 43.1758 215.361C43.1758 229.423 55.5073 230.504 60.9161 222.284C60.9161 235.481 65.7004 246.917 76.4905 256.68C81.0348 260.79 81.8993 257.978 79.7364 253.437C77.5735 248.893 77.5735 234.183 73.2476 225.745C80.1702 230.721 90.3357 227.908 89.4711 214.279C80.6009 219.471 71.7862 219.268 70.8662 206.924C69.7863 192.43 75.4413 171.4 85.3945 162.313Z" fill="#F7E017" stroke="black" stroke-width="0.384591"/>
<path d="M74.8604 58.1229C75.4481 52.9263 74.3374 47.5888 70.5407 44.2422C63.2059 37.7826 56.0186 39.9225 50.6713 45.1243C42.6657 40.7975 38.4137 56.1409 29.3281 53.5447C30.8419 58.5204 33.2233 60.6837 37.7645 58.953C33.0048 63.2795 37.7645 68.4715 32.1402 73.6635C42.3088 76.9088 47.7177 71.284 47.2838 61.5489C51.179 65.0102 57.2339 64.7942 60.4799 60.9C55.071 59.1693 55.0464 54.4619 57.2339 50.0834C60.4798 43.5934 75.725 43.845 74.8604 58.1229Z" fill="#F7E017" stroke="black" stroke-width="0.384591"/>
<path d="M98.3417 133.371C86.8747 139.428 65.8916 136.832 63.944 121.905C61.9964 106.978 76.4908 100.272 80.3859 98.3251C86.4563 95.2889 91.2006 100.705 89.2562 106.978C95.9603 104.599 97.4771 96.8107 94.2312 92.2676C103.101 92.9168 111.322 86.2104 114.784 76.6916C111.673 79.6539 103.191 77.651 96.2064 77.2008C98.3693 74.8213 98.3417 70.2016 97.6925 67.822C90.336 75.3936 79.7368 71.9322 65.6762 93.782C67.8391 86.2104 71.9496 71.0671 74.3279 61.1157C74.5648 60.1207 74.7494 59.142 74.8632 58.1223C75.7278 43.8444 60.5012 43.5891 57.2552 50.0788C60.8119 54.093 58.9443 58.7758 57.6706 65.8751C56.1568 74.3121 52.9109 93.782 50.0988 100.272C49.2342 90.1043 42.527 89.4555 41.2286 84.4798C39.281 85.7775 38.2011 89.2389 38.6349 91.6187C36.2536 89.0229 28.0325 92.2676 25.0051 88.3737C21.7591 94.8637 26.9526 101.353 32.3584 104.166C29.2232 104.382 28.4664 108.168 25.0051 108.168C29.657 113.576 34.4136 115.74 39.9302 116.172C45.4467 116.605 49.5573 118.659 52.9109 125.367C58.3198 136.183 78.9245 143.214 98.3417 133.371Z" fill="#337321" stroke="black" stroke-width="0.384591"/>
<path d="M126.897 120.175C120.409 138.131 102.668 150.894 94.6627 152.841C81.0421 156.155 53.2593 169.641 45.8014 176.583C44.623 176.322 43.5307 175.895 42.7431 175.34C39.0664 172.744 36.0389 164.307 42.5277 157.168C62.8648 138.131 84.7126 146.351 98.3424 133.371C86.8755 139.429 65.8923 136.833 63.9448 121.906C76.2762 125.151 98.5578 125.367 116.298 106.33C118.676 108.926 125.599 117.147 126.897 120.175Z" fill="#F7E017" stroke="black" stroke-width="0.384591"/>
<path d="M85.3921 162.313C75.1159 171.032 69.7839 192.43 70.8639 206.924C71.1654 210.956 72.2976 213.689 74.0113 215.366C74.7682 207.145 80.4848 185.903 95.093 176.421C107.424 168.417 126.679 150.461 133.817 129.91C132.518 126.232 130.355 123.636 126.245 121.04C119.181 140.435 100.21 149.739 85.3921 162.313Z" fill="#337321" stroke="black" stroke-width="0.384591"/>
<path d="M120.302 111.846C116.622 117.363 108.293 124.934 100.291 127.963C102.02 126.016 102.561 123.528 102.669 121.473C92.5003 125.367 72.1663 124.934 63.9453 121.906C76.2768 125.151 98.5584 125.367 116.299 106.33C118.028 108.277 119.542 110.007 120.302 111.846Z" fill="#316D3A" stroke="black" stroke-width="0.384591"/>
<path d="M42.5289 157.167C25.9947 172.645 36.9047 186.155 43.3935 189.184C41.6644 200.001 51.8329 198.703 51.6145 207.789C55.725 205.409 56.808 199.135 56.1588 194.16C61.3492 199.785 74.5452 193.511 77.3573 203.895C79.0895 192.429 70.2194 180.963 59.1863 182.045C63.7306 177.935 61.1338 171.229 56.808 169.498C55.9434 177.935 46.424 177.935 42.7443 175.339C39.0676 172.743 36.0401 164.306 42.5289 157.167Z" fill="#337321" stroke="black" stroke-width="0.384591"/>
<path d="M78.3311 255.6C76.5251 256.631 76.6574 258.957 77.7896 260.467C80.0602 263.495 76.1897 270.359 83.5215 271.824C85.6875 272.257 87.352 270.934 88.1735 268.47C90.4441 261.655 83.1985 260.898 82.5493 257.655C81.9001 254.409 79.8448 254.732 78.3311 255.6Z" fill="#F7E017" stroke="black" stroke-width="0.384591"/>
<path d="M84.4978 268.362C82.0702 269.482 79.9535 271.067 80.9288 278.854C81.3288 282.075 81.1441 289.887 78.332 289.995C80.0611 290.862 83.7409 291.779 85.2546 289.779C86.713 292.213 90.0144 291.512 91.3127 288.481C93.0418 289.887 95.4232 287.509 95.4232 285.454C96.937 286.426 99.9644 285.02 99.2076 280.371C101.047 281.017 103.426 279.722 104.29 278.531C101.586 277.989 94.774 274.313 93.1495 271.393C91.5281 268.47 87.3099 267.064 84.4978 268.362Z" fill="#F7E017" stroke="black" stroke-width="0.384591"/>
<path d="M47.0156 49.5693C48.1048 47.9552 49.3231 46.4381 50.6738 45.124" stroke="black" stroke-width="0.384591"/>
<path d="M88.1719 78.2062C90.0825 77.1145 92.9838 76.9939 96.2052 77.201" stroke="black" stroke-width="0.384591"/>
<path d="M85.2547 289.78C84.4978 288.7 84.2271 284.155 84.7686 281.396" stroke="black" stroke-width="0.384591"/>
<path d="M91.3085 288.481C90.1178 287.561 87.8472 284.426 87.4688 281.666" stroke="black" stroke-width="0.384591"/>
<path d="M95.4238 285.454C93.9069 284.75 90.2302 279.99 89.418 276.91" stroke="black" stroke-width="0.384591"/>
<path d="M99.2029 280.371C97.4184 279.989 91.9573 276.42 89.6836 272.636" stroke="black" stroke-width="0.384591"/>
<path d="M198.934 157.384C225.544 179.666 227.273 197.405 223.163 207.789C221 198.054 209.967 182.911 198.5 179.017L198.934 157.384Z" fill="#F7E017" stroke="black" stroke-width="0.384591"/>
<path d="M151.343 144.837H200.668C200.668 144.837 200.668 157.817 200.668 203.247C200.668 253.003 172.978 282.423 144.854 298.001C116.729 282.423 89.0391 253.003 89.0391 203.247C89.0391 157.817 89.0391 144.837 89.0391 144.837H123.652C123.707 147.866 123.978 152.408 127.547 156.952C135.713 156.14 144.961 150.029 151.343 144.837Z" fill="#337321" stroke="black" stroke-width="0.384591"/>
<path d="M200.668 144.837C200.668 144.837 200.668 157.817 200.668 203.247C200.668 218.267 198.142 231.435 193.847 242.927L144.854 153.058L95.8601 242.927C91.562 231.435 89.0391 218.267 89.0391 203.247C89.0391 157.817 89.0391 144.837 89.0391 144.837H200.668Z" fill="#006EC7" stroke="black" stroke-width="0.384591"/>
<path d="M195.339 238.616C194.474 241.265 192.905 245.567 191.69 248.216L144.853 161.174L98.0162 248.216C96.8009 245.567 95.2317 241.265 94.3672 238.616L144.853 145.005L195.339 238.616Z" fill="#F7E017"/>
<path d="M167.122 270.623C168.42 271.273 170.811 272.473 171.894 272.906C174.49 267.713 174.921 260.359 174.057 253.868C171.244 261.009 161.725 260.79 159.131 265.116C160.728 265.916 162.208 266.962 163.485 267.885C160.239 271.128 152.639 276.583 148.314 277.881V231.478C148.314 228.233 147.231 225.528 147.231 222.824C147.231 222.824 147.231 215.395 147.231 213.232C147.231 211.068 146.8 207.932 144.852 207.932C142.905 207.932 142.474 211.068 142.474 213.232C142.474 215.395 142.474 222.824 142.474 222.824C142.474 225.528 141.391 228.665 141.391 231.478V277.881C139.013 270.959 129.693 273.328 125.367 266.405C127.06 265.993 128.841 265.867 130.573 266.199C127.33 255.166 118.46 254.301 116.728 251.055C116.728 255.6 114.784 266.199 117.811 270.743C118.491 269.928 119.512 269.091 120.74 268.34C124.417 276.346 140.957 276.368 144.852 289.564C147.978 284.718 159.239 279.088 167.122 270.623Z" fill="#F7E017" stroke="black" stroke-width="0.384591"/>
<path d="M144.853 232.019C148.53 232.019 160.212 230.823 164.43 230.823C165.528 230.823 166.421 229.179 166.421 227.152C166.421 225.124 165.528 223.48 164.43 223.48C160.212 223.48 148.53 222.284 144.853 222.284C141.176 222.284 129.494 223.48 125.276 223.48C124.177 223.48 123.285 225.124 123.285 227.152C123.285 229.179 124.177 230.823 125.276 230.823C129.494 230.823 141.176 232.019 144.853 232.019Z" fill="#F7E017" stroke="black" stroke-width="0.384591"/>
<path d="M142.484 213.002C141.702 212.374 140.678 211.993 139.555 211.993C137.103 211.993 135.118 213.807 135.118 216.044C135.118 218.281 137.103 220.094 139.555 220.094C142.004 220.094 143.989 218.281 143.989 216.044C143.989 214.313 146.505 214.313 146.505 216.044C146.505 219.549 143.395 222.391 139.555 222.391C135.715 222.391 132.602 219.549 132.602 216.044C132.602 212.538 135.715 209.696 139.555 209.696C140.706 209.696 141.792 209.952 142.749 210.405C142.662 210.987 142.484 212.07 142.484 213.002Z" fill="#F7E017" stroke="black" stroke-width="0.384591"/>
<path d="M125.273 230.822C126.372 230.822 127.261 229.179 127.261 227.151C127.261 225.123 126.372 223.479 125.273 223.479" fill="#F7E017"/>
<path d="M125.273 230.822C126.372 230.822 127.261 229.179 127.261 227.151C127.261 225.123 126.372 223.479 125.273 223.479" stroke="black" stroke-width="0.384591"/>
<path d="M126.91 230.822C128.009 230.822 128.898 229.179 128.898 227.151C128.898 225.123 128.009 223.479 126.91 223.479" fill="#F7E017"/>
<path d="M126.91 230.822C128.009 230.822 128.898 229.179 128.898 227.151C128.898 225.123 128.009 223.479 126.91 223.479" stroke="black" stroke-width="0.384591"/>
<path d="M137.59 231.576C138.913 231.576 139.987 229.595 139.987 227.151C139.987 224.707 138.913 222.726 137.59 222.726" fill="#F7E017"/>
<path d="M137.59 231.576C138.913 231.576 139.987 229.595 139.987 227.151C139.987 224.707 138.913 222.726 137.59 222.726" stroke="black" stroke-width="0.384591"/>
<path d="M140.074 231.777C141.459 231.777 142.582 229.706 142.582 227.151C142.582 224.596 141.459 222.524 140.074 222.524" fill="#F7E017"/>
<path d="M140.074 231.777C141.459 231.777 142.582 229.706 142.582 227.151C142.582 224.596 141.459 222.524 140.074 222.524" stroke="black" stroke-width="0.384591"/>
<path d="M148.375 231.83C149.775 231.83 150.91 229.735 150.91 227.151C150.91 224.567 149.775 222.473 148.375 222.473" fill="#F7E017"/>
<path d="M148.375 231.83C149.775 231.83 150.91 229.735 150.91 227.151C150.91 224.567 149.775 222.473 148.375 222.473" stroke="black" stroke-width="0.384591"/>
<path d="M151 231.681C152.385 231.681 153.504 229.653 153.504 227.151C153.504 224.649 152.385 222.621 151 222.621" fill="#F7E017"/>
<path d="M151 231.681C152.385 231.681 153.504 229.653 153.504 227.151C153.504 224.649 152.385 222.621 151 222.621" stroke="black" stroke-width="0.384591"/>
<path d="M162.617 230.895C163.737 230.895 164.648 229.219 164.648 227.151C164.648 225.083 163.737 223.407 162.617 223.407" fill="#F7E017"/>
<path d="M162.617 230.895C163.737 230.895 164.648 229.219 164.648 227.151C164.648 225.083 163.737 223.407 162.617 223.407" stroke="black" stroke-width="0.384591"/>
<path d="M120.742 268.341C122.081 267.522 123.674 266.818 125.37 266.405Z" fill="#F7E017"/>
<path d="M120.742 268.341C122.081 267.522 123.674 266.818 125.37 266.405" stroke="black" stroke-width="0.384591"/>
<path d="M164.755 268.795C164.358 268.512 163.934 268.211 163.484 267.885Z" fill="#F7E017"/>
<path d="M164.755 268.795C164.358 268.512 163.934 268.211 163.484 267.885" stroke="black" stroke-width="0.384591"/>
<path d="M167.121 270.624C170.152 267.372 172.675 263.695 174.056 259.492Z" fill="#F7E017"/>
<path d="M167.121 270.624C170.152 267.372 172.675 263.695 174.056 259.492" stroke="black" stroke-width="0.384591"/>
<path d="M134.949 186.129C134.949 185.075 135.817 184.622 136.826 183.858C138.044 182.938 138.531 182.506 139.638 182.506H153.837C154.889 182.506 155.132 182.776 155.132 183.75V203.058C155.132 204.031 154.889 204.301 153.837 204.301H134.949V185.94" fill="white"/>
<path d="M134.949 186.129C134.949 185.075 135.817 184.622 136.826 183.858C138.044 182.938 138.531 182.506 139.638 182.506H153.837C154.889 182.506 155.132 182.776 155.132 183.75V203.058C155.132 204.031 154.889 204.301 153.837 204.301H134.949V185.94" stroke="black" stroke-width="0.384591"/>
<path d="M150.319 205.98C152.184 205.98 151.849 205.939 153.159 204.628C154.525 203.262 154.396 203.383 154.396 202.127V184.473C154.396 183.562 154.171 183.31 153.193 183.31H140.055C139.028 183.31 138.579 183.714 137.453 184.574C136.517 185.289 135.727 185.712 135.727 186.699V205.98H150.319Z" fill="#E5E5E5" stroke="black" stroke-width="0.384591"/>
<path d="M151.727 205.572C151.727 206.546 151.484 206.816 150.428 206.816H136.232C135.177 206.816 134.949 206.546 134.949 205.572V186.264C134.949 185.291 135.177 185.021 136.232 185.021H150.428C151.484 185.021 151.727 185.291 151.727 186.264V205.572Z" fill="white" stroke="black" stroke-width="0.384591"/>
<path d="M179.245 133.523C182.011 136.606 182.921 140.761 181.414 144.818H177.303C179.032 139.626 177.952 134.669 170.596 134.02C159.597 133.049 146.801 154.355 127.547 156.951C121.922 150.245 122.224 137.47 129.362 131.413C125.673 120.773 117.876 109.072 112.483 104.007C108.951 103.433 104.871 103.145 102.234 103.301C105.046 97.2433 113.061 90.868 119.553 88.2721C120.602 86.7359 121.732 85.26 122.787 83.9389C123.436 75.6102 163.024 79.5041 171.46 84.6961C171.46 93.9983 175.134 125.086 179.245 133.523Z" fill="#96877D" stroke="black" stroke-width="0.384591"/>
<path d="M131.259 139.202C130.317 124.782 124.49 112.907 116.297 104.815C120.189 105.897 128.195 105.897 133.603 102.003C140.741 97.2433 159.346 88.9143 166.161 92.4842C166.703 93.6737 167.026 96.3781 166.592 98.1088C164.97 93.782 147.015 100.488 141.932 102.544C137.065 104.815 134.902 107.844 136.631 114.658C133.819 112.278 134.791 110.007 131.871 108.276C133.062 111.089 134.034 116.172 134.36 120.283C133.277 117.362 131.33 111.089 127.112 107.411C130.791 114.55 133.982 131.694 132.468 140.78C135.388 140.78 141.824 137.914 144.418 135.859C142.147 139.104 135.603 141.375 131.385 142.241C129.493 144.512 128.195 150.353 128.302 153.598C127.979 149.596 129.241 139.841 131.259 139.202Z" fill="black"/>
<path d="M179.243 133.523C175.662 129.537 168.979 127.378 160.426 129.694C161.724 129.045 164.536 127.963 167.025 127.531C166.702 125.259 164.647 115.524 164.321 113.144L166.702 112.171C167.89 118.012 169.404 124.718 170.379 127.422C171.136 127.639 172.865 127.963 174.382 128.72C173.733 126.449 170.053 110.116 170.164 108.385L173.406 106.654C174.705 115.524 176.76 128.396 179.243 133.523Z" fill="black"/>
<path d="M177.303 144.818C179.032 139.626 177.952 134.669 170.595 134.02C164.894 133.517 158.71 139.058 151.391 144.818H177.303Z" fill="#96877D" stroke="black" stroke-width="0.384591"/>
<path d="M129.493 98.2169C126.247 98.6498 119.001 98.0006 115.322 96.8108C115.534 95.8343 115.912 94.823 116.398 93.752C114.125 95.2663 109.805 98.2169 108.184 100.272C113.377 101.354 124.093 101.893 129.493 98.2169Z" fill="#96877D" stroke="black" stroke-width="0.384591"/>
<path d="M129.363 131.413C130.557 134.862 131.335 138.194 131.443 141.159" stroke="black" stroke-width="0.384591"/>
<path d="M119.551 88.2725C117.588 91.1381 115.883 94.2053 115.32 96.811C119 98.0008 126.246 98.65 129.492 98.2171" stroke="black" stroke-width="0.384591"/>
<path d="M112.484 104.008C113.884 104.235 115.195 104.509 116.3 104.815C120.192 105.897 128.197 105.897 133.606 102.003C139.015 98.109 153.725 85.9944 170.382 84.6963" stroke="black" stroke-width="0.384591"/>
<path d="M108.184 100.272C113.377 101.353 124.093 101.893 129.493 98.2168C142.04 89.6718 154.153 84.6961 166.269 84.0469" stroke="black" stroke-width="0.384591"/>
<path d="M198.934 157.384C217.105 169.931 230.519 182.046 234.411 201.516C238.306 220.986 245.663 226.178 254.748 220.986C252.585 232.235 241.334 233.534 231.818 224.88C232.682 237.859 227.489 253.437 214.077 259.061C213.213 251.271 218.36 245.105 216.889 238.724C216.24 235.912 216.025 229.422 219.701 226.394C212.563 228.773 201.315 224.23 200.232 213.63C208.453 217.524 219.052 218.173 223.163 207.789C227.273 197.405 225.544 179.666 198.934 157.384Z" fill="#337321" stroke="black" stroke-width="0.384591"/>
<path d="M221.867 56.1402C227.491 41.4294 242.204 42.9438 247.179 49.2176C261.674 40.9969 263.621 59.6015 275.95 55.9236C275.734 59.3849 271.624 62.63 267.083 62.4137C271.839 66.7402 265.135 73.2302 275.3 77.1242C266.649 81.451 254.533 76.9082 251.29 65.0095C248.478 70.6344 238.309 70.6344 234.199 66.0913C243.069 63.7118 242.42 55.491 237.445 52.246C232.433 48.9776 223.599 50.299 221.867 56.1402Z" fill="#337321" stroke="black" stroke-width="0.384591"/>
<path d="M177.982 88.5364C182.019 101.556 190.369 113.657 199.368 121.906C209.752 131.424 225.434 129.045 234.197 119.959C234.412 138.077 215.647 139.483 205.208 133.804C200.608 131.301 196.885 132.616 201.316 136.616C208.02 142.674 222.693 147.178 240.036 150.894C270.324 157.384 259.509 181.397 250.639 181.181C253.18 181.127 255.266 178.465 251.611 175.178C225.327 151.543 171.893 160.846 172.758 108.061C167.134 121.906 143.987 116.497 154.802 100.056C158.263 102.869 164.321 103.085 166.054 98.7582C167.398 95.3916 166.518 89.5363 160.457 84.5049C161.454 84.4261 163.592 84.5074 163.374 82.0195C163.645 83.4794 164.971 85.643 168.377 84.9129C169.352 86.4543 170.373 87.4678 171.758 86.914C172.029 86.8057 172.841 86.4002 172.515 84.8587C172.785 87.7253 176.191 88.753 177.982 88.5364Z" fill="#337321" stroke="black" stroke-width="0.384591"/>
<path d="M205.207 133.804C217.754 142.025 231.941 142.019 245.014 126.882C249.124 122.122 255.613 118.012 260.158 117.579C264.699 117.147 264.483 112.82 267.945 111.955C265.782 111.306 264.914 108.71 261.671 109.034C269.782 106.222 267.403 99.7318 271.406 96.5951C268.16 97.7849 263.077 92.9175 258.425 99.083C259.616 96.2705 257.992 92.9175 256.804 91.6194C257.235 94.8645 250.42 95.5133 249.124 103.734C248.395 108.347 245.879 108.061 245.445 100.922C245.128 95.6989 242.633 81.2355 239.605 73.8802C236.575 66.525 235.882 56.4275 239.993 54.9128C239.374 53.8667 238.507 52.9424 237.442 52.2468C232.43 48.9784 223.597 50.2998 221.865 56.141C216.241 70.8515 232.033 79.2885 230.735 95.297C228.357 83.3987 209.103 80.3703 209.318 68.6882C203.044 71.5004 203.909 76.6924 206.29 80.8029C202.395 74.7454 193.525 84.6968 185.953 76.476C185.089 87.2929 194.608 91.4031 202.395 91.8357C198.5 98.7584 203.694 104.6 208.884 106.546C209.103 94.4316 233.944 99.4042 234.196 120.175C234.412 137.915 215.376 139.429 205.207 133.804Z" fill="#F7E017" stroke="black" stroke-width="0.384591"/>
<path d="M240.035 150.895C270.322 157.385 259.507 181.398 250.637 181.181C244.988 181.043 239.604 176.314 239.278 172.203C232.789 175.665 234.521 182.479 239.497 185.183C225.867 183.561 220.135 192.539 219.809 202.382C222.298 197.839 229.869 197.514 232.682 198.488C235.494 199.461 242.739 200.002 245.662 196.757C243.281 198.812 247.176 203.572 243.822 207.249C255.178 206.817 260.157 196.216 258.209 191.565C272.919 178.153 270.107 156.303 240.035 150.895Z" fill="#F7E017" stroke="black" stroke-width="0.384591"/>
<path d="M216.981 253.68C218.953 254.911 218.704 257.498 217.372 259.135C214.704 262.418 218.726 270.248 210.477 271.565C208.043 271.953 206.24 270.402 205.431 267.618C203.194 259.914 211.317 259.384 212.181 255.791C213.049 252.197 215.329 252.646 216.981 253.68Z" fill="#F7E017" stroke="black" stroke-width="0.384591"/>
<path d="M209.541 267.658C212.202 269.015 214.494 270.873 213.07 279.525C212.479 283.103 212.347 291.829 215.482 292.075C213.51 292.964 209.366 293.828 207.763 291.53C206.027 294.182 202.375 293.256 201.058 289.816C199.065 291.312 196.514 288.552 196.603 286.257C194.871 287.278 191.551 285.577 192.597 280.417C190.518 281.063 187.918 279.509 187.004 278.143C190.047 277.657 197.812 273.851 199.751 270.661C201.689 267.473 206.458 266.086 209.541 267.658Z" fill="#F7E017" stroke="black" stroke-width="0.384591"/>
<path d="M207.762 291.53C208.654 290.355 209.155 285.297 208.672 282.195" stroke="black" stroke-width="0.384591"/>
<path d="M201.059 289.816C202.428 288.844 205.098 285.441 205.643 282.38" stroke="black" stroke-width="0.384591"/>
<path d="M196.605 286.257C198.325 285.54 202.639 280.386 203.679 276.98" stroke="black" stroke-width="0.384591"/>
<path d="M192.598 280.417C194.607 280.072 200.859 276.328 203.56 272.202" stroke="black" stroke-width="0.384591"/>
<path d="M172.76 108.061C172.397 130.235 181.615 141.452 194.38 148.757C189.636 145.919 191.691 136.184 185.307 133.047C186.824 132.939 189.202 135.102 192.99 134.236C191.15 130.126 188.119 123.852 181.089 122.987C182.929 122.771 186.932 123.42 189.528 122.446C185.849 116.822 176.114 119.526 172.76 108.061Z" fill="#F7E017" stroke="black" stroke-width="0.384591"/>
<path d="M170.465 86.9743C169.686 86.718 169.025 85.9331 168.379 84.9129C164.973 85.643 163.647 83.4794 163.376 82.0195C163.595 84.5074 161.444 84.4138 160.444 84.4926C166.533 89.5295 167.404 95.3861 166.056 98.7582C164.324 103.085 158.266 102.869 154.804 100.056C154.374 109.25 166.271 112.279 170.597 100.705C170.597 102.652 173.086 102.436 173.735 105.032C176.824 100.058 174.492 92.9176 170.465 86.9743Z" fill="#F7E017" stroke="black" stroke-width="0.384591"/>
<path d="M151.451 43.0517C146.042 38.0763 143.553 29.7473 143.768 24.9882C143.986 20.2288 145.934 15.0368 152.857 17.2001C150.691 17.2001 152.207 21.5269 149.934 21.9595C151.774 22.6084 154.263 21.094 154.586 20.1205C155.02 21.6349 157.832 21.2023 158.047 22.933C159.13 22.0675 157.939 17.849 156.318 16.9838C157.506 16.3349 158.155 12.9816 157.613 11.3589C156.533 11.5755 154.912 13.0896 154.586 15.2531C155.127 13.5225 154.478 9.19566 151.451 8.54677C150.583 9.73655 150.368 12.657 151.558 14.2796C148.746 13.6305 144.636 15.4694 143.66 17.849C143.879 14.9824 144.273 10.9014 146.042 8.33048C146.635 7.465 145.174 5.95093 144.039 8.00588C141.931 3.89568 136.307 1.73243 133.818 3.78738C131.329 5.84233 127.978 2.8139 125.923 6.05893C123.868 9.30365 116.905 9.64578 117.268 13.0896C117.484 15.1448 116.988 18.32 115.97 19.4716C113.484 22.2838 117.161 24.339 117.81 26.8269C117.376 18.6061 130.464 2.5976 143.553 8.87106C142.362 10.9263 141.322 15.0313 140.956 20.0122C140.417 27.3678 141.497 37.7517 148.635 43.8089L151.451 43.0517Z" fill="#337321" stroke="black" stroke-width="0.384591"/>
<path d="M155.345 17.3084C155.274 15.3596 158.643 12.8284 163.187 12.8736C168.649 12.9275 172.867 17.9032 177.248 17.4164C181.629 16.9297 179.466 19.3634 178.546 20.0123C177.626 20.6615 177.088 21.6349 177.411 22.8247C177.734 24.0145 177.174 24.7926 175.411 23.6902C171.516 21.2565 167.621 24.6637 162.483 22.7706C158.028 21.1291 155.453 20.2289 155.345 17.3084Z" fill="#CF142B" stroke="black" stroke-width="0.384591"/>
<path d="M133.059 68.3626C130.896 61.548 122.675 54.0847 118.672 52.3541L118.457 48.6762C120.62 47.811 125.81 43.7008 128.192 41.4292C144.415 49.2174 166.481 38.1842 176.65 26.7188L180.545 29.0983L178.598 31.6941L176.542 30.6127C174.053 33.6414 164.765 42.3815 161.953 44.2201C165.734 45.1758 170.903 45.8348 172.324 45.756C181.41 39.266 188.548 33.4248 192.009 32.9922L194.929 36.8861L192.335 38.7248L190.28 37.5353C180.545 45.5394 169.512 63.0626 165.183 74.7444C159.128 73.4466 137.493 74.3118 133.059 68.3626Z" fill="#96877D" stroke="black" stroke-width="0.384591"/>
<path d="M161.952 44.2203C160.552 43.8659 159.346 43.4613 158.586 43.0518C156.854 44.6744 152.528 46.0805 147.012 46.2968" stroke="black" stroke-width="0.384591"/>
<path d="M133.926 65.9826C132.467 57.9243 134.79 49.0006 138.901 46.2964C147.879 52.2456 163.241 52.2456 172.326 45.7559" stroke="black" stroke-width="0.384591"/>
<path d="M133.926 61.7643C140.848 61.5477 155.884 62.7378 159.561 63.2784C163.241 63.8193 169.403 65.3336 168.539 67.1726" stroke="black" stroke-width="0.384591"/>
<path d="M137.128 60.6169L139.119 58.6281L137.128 56.6396L135.141 58.6281L137.128 60.6169Z" stroke="black" stroke-width="0.384591"/>
<path d="M141.822 20.3363C139.333 16.8749 132.478 15.7799 131.004 20.4446C130.355 22.4998 129.383 24.6631 127.759 25.6365C126.137 26.6097 126.519 29.5578 127.22 30.8285C128.949 33.9652 127.435 36.9937 130.789 39.0489C130.789 36.5611 134.466 33.9653 137.604 33.3164C140.739 32.6672 145.499 29.855 146.148 26.7183C146.797 23.5813 147.877 20.9851 141.822 20.3363Z" fill="#337321" stroke="black" stroke-width="0.384591"/>
<path d="M126.246 51.4883H127.11L127.125 57.4045C127.301 57.4658 127.498 57.5488 127.639 57.6771L132.737 54.737L133.171 55.4865L128.055 58.4562C128.088 58.6408 128.116 58.8515 128.076 59.0392L133.171 61.9842L132.737 62.7337L127.608 59.7875C127.467 59.9105 127.298 60.0382 127.113 60.0979L127.11 65.9831H126.246L126.233 60.0668C126.055 60.0056 125.858 59.9225 125.716 59.7942L120.618 62.7344L120.188 61.9846L125.301 59.0149C125.267 58.8306 125.239 58.6198 125.279 58.4322L120.188 55.4865L120.618 54.737L125.75 57.6839C125.892 57.5608 126.061 57.4331 126.242 57.3735L126.246 51.4883Z" fill="#96877D" stroke="black" stroke-width="0.384591"/>
<path d="M133.955 65.9564C132.096 67.827 129.524 68.9854 126.681 68.9854C121.02 68.9854 116.43 64.3968 116.43 58.7362C116.43 53.0759 121.02 48.4873 126.681 48.4873C130.007 48.4873 132.961 50.0715 134.835 52.5261C134.305 53.8144 133.693 56.7093 133.647 58.0199C133.29 54.4885 130.306 51.732 126.681 51.732C122.811 51.732 119.676 54.8681 119.676 58.7362C119.676 62.6046 122.811 65.7401 126.681 65.7401C129.918 65.7401 132.718 63.4768 133.521 60.4939C133.518 61.7782 133.549 64.8746 133.955 65.9564Z" fill="#96877D" stroke="black" stroke-width="0.384591"/>
<path d="M122.349 75.7179C121.703 74.9607 120.512 72.9055 120.62 71.3914C121.592 71.2831 123.432 71.932 124.297 72.7975C124.189 71.716 123.758 69.3361 123.974 68.2547C125.164 68.6873 127.65 70.0933 128.515 71.716C128.3 70.6342 127.866 67.8218 128.3 66.0911C129.598 66.8483 131.761 68.9035 132.195 70.3096C132.302 68.1461 133.059 64.5767 133.708 63.7116C134.681 64.6847 136.194 65.5502 137.17 66.8483C137.385 65.1176 138.25 63.0627 139.548 62.5215C140.523 63.6033 142.037 66.0911 142.36 68.9035C143.335 68.579 144.634 66.9566 145.172 66.0911C145.714 66.9566 146.255 68.4707 145.932 70.3096C147.12 69.2281 148.526 67.7135 148.852 66.4154C149.717 67.0646 151.338 68.6873 151.772 70.4179C151.556 69.0115 151.664 66.524 151.23 65.1176C152.855 65.9828 154.15 67.4975 154.476 69.1198C154.91 67.6055 155.882 64.9013 156.747 64.2521C157.611 65.9828 158.479 68.0381 158.371 69.7687C158.91 68.6873 159.777 66.74 160.642 66.3074C161.399 67.4975 161.291 70.0933 161.073 71.4994C161.833 70.4179 163.239 69.1198 164.103 68.6873C164.211 69.3361 164.319 70.6342 164.103 71.6074C165.076 71.0668 166.7 68.1461 167.239 66.632C168.755 67.3892 170.269 69.9853 170.377 71.2831C171.457 70.8505 173.623 68.9035 174.269 67.8218C174.269 68.5789 174.595 70.6342 174.161 72.2566C174.81 71.6074 175.46 70.3096 175.786 69.7687C176.216 70.8505 175.893 73.4467 175.46 74.8527C176.435 73.9872 177.841 73.4467 178.705 73.4467C178.813 75.2853 177.515 78.53 176.324 80.9099C165.94 77.9895 144.2 76.908 122.349 75.7179Z" fill="#337321" stroke="black" stroke-width="0.384591"/>
<path d="M158.564 18.4154C158.511 17.6182 160.293 15.8137 163.477 15.8322C167.298 15.8543 170.827 18.6588 173.895 18.4597C176.962 18.2606 175.449 19.2563 174.806 19.5218C174.16 19.7873 173.781 20.1854 174.009 20.6722C174.236 21.1589 173.843 21.4774 172.609 21.0263C169.883 20.0307 167.157 21.4244 163.56 20.65C160.44 19.9784 158.637 19.6101 158.564 18.4154Z" fill="#F7E017"/>
<path d="M125.705 82.2097C122.462 86.1036 119.216 85.4544 118.567 82.9668C117.918 80.479 120.299 79.2892 119.431 77.1257C118.567 74.9624 120.837 73.9889 121.92 74.9624C123 75.9359 126.462 72.7992 127.979 76.0442C129.492 79.2892 130.683 81.5605 129.815 82.8585C128.951 84.1566 126.354 83.5077 125.705 82.2097Z" fill="#F7E017" stroke="black" stroke-width="0.384591"/>
<path d="M139.659 76.368C139.049 74.9447 142.418 72.204 144.148 74.1506C145.88 76.0979 148.584 72.0415 150.098 75.1241C151.612 78.207 152.098 79.8293 152.858 81.56C153.615 83.2907 148.747 84.21 147.23 82.6959C147.449 83.7233 143.028 84.5281 141.825 81.6142C141.176 80.046 140.471 78.2611 139.659 76.368Z" fill="#F7E017" stroke="black" stroke-width="0.384591"/>
<path d="M162.159 78.1529C161.347 76.6388 165.297 74.4752 167.35 77.2335C167.891 76.0979 171.786 75.8813 172.057 79.1805C172.328 82.4794 172.435 84.4266 172.543 85.7247C172.651 87.0228 170.165 88.2125 168.377 84.9134C165.187 85.5626 163.728 83.7774 163.35 81.8846C162.972 79.9918 162.593 79.0725 162.159 78.1529Z" fill="#F7E017" stroke="black" stroke-width="0.384591"/>
<path d="M127.818 75.989C127.332 74.9076 130.575 72.744 132.794 74.3667C135.012 75.9891 138.082 72.9668 139.393 75.8808C142.042 81.7761 142.205 82.2087 141.393 83.3443C140.581 84.4802 137.119 84.0473 136.255 82.4788C136.092 83.5609 133.107 83.3824 131.551 82.5333C129.766 81.5595 128.52 77.936 127.818 75.989Z" fill="#337321" stroke="black" stroke-width="0.384591"/>
<path d="M150.584 76.2596C149.827 74.5828 154.913 73.1229 157.128 76.0433C158.263 75.0157 160.752 74.9616 162.158 78.1525C163.565 81.3436 163.78 83.1281 162.752 83.9395C162.029 84.5099 159.399 84.9668 158.534 83.5069C157.343 84.2641 153.667 83.6149 152.858 81.5596C152.045 79.5047 151.341 77.7199 150.584 76.2596Z" fill="#337321" stroke="black" stroke-width="0.384591"/>
<path d="M172.112 79.4507C172.005 77.9363 174.765 77.2333 175.792 79.4507C176.82 81.6681 180.106 79.6713 180.389 83.3446C180.441 84.0476 180.01 86.7518 178.983 88.0498C177.955 89.3479 172.925 88.0498 172.602 85.2919C172.275 82.5336 172.168 80.965 172.112 79.4507Z" fill="#337321" stroke="black" stroke-width="0.384591"/>
<path d="M125.703 82.2094C124.516 80.5867 122.891 77.9909 120.836 80.8033" stroke="black" stroke-width="0.384591"/>
<path d="M136.248 82.4799C135.547 81.5606 134.627 80.0465 134.301 78.8564" stroke="black" stroke-width="0.384591"/>
<path d="M147.228 82.6968C146.471 82.1559 145.336 81.0741 144.742 79.9385" stroke="black" stroke-width="0.384591"/>
<path d="M146.258 77.0176C148.15 77.2339 149.448 79.0184 150.042 79.8297C150.639 80.6411 151.882 82.1016 152.857 82.2637" stroke="black" stroke-width="0.384591"/>
<path d="M158.533 83.5078C157.883 82.4799 157.234 81.5606 157.074 80.8037" stroke="black" stroke-width="0.384591"/>
<path d="M157.125 76.0439C157.774 76.9633 158.26 77.7205 158.639 78.5856" stroke="black" stroke-width="0.384591"/>
<path d="M168.374 84.9134C167.509 83.2907 166.159 81.7225 165.023 81.1816" stroke="black" stroke-width="0.384591"/>
<path d="M167.945 78.9648C168.053 82.1557 172.327 82.372 172.487 84.6436" stroke="black" stroke-width="0.384591"/>
<path d="M175.785 79.4512C176.216 80.2622 176.379 81.0735 176.434 82.4258" stroke="black" stroke-width="0.384591"/>
</svg>
