<svg width="300" height="300" viewBox="0 0 300 300" fill="none" xmlns="http://www.w3.org/2000/svg">
<path d="M151.098 68.8843V250.668" stroke="#CE1126" stroke-width="4.20008"/>
<path d="M122.961 280.425C122.961 280.425 113.507 287.653 111.951 287.877C110.394 288.099 112.174 289.767 112.174 289.767C112.174 289.767 122.293 289.656 122.961 289.99C123.628 290.324 134.304 282.093 134.304 282.093C134.304 282.093 125.519 278.867 122.961 280.425Z" fill="#07A64F"/>
<path d="M179.229 280.425C179.229 280.425 188.684 287.653 190.24 287.877C191.798 288.099 190.017 289.767 190.017 289.767C190.017 289.767 179.897 289.656 179.229 289.99C178.562 290.324 167.887 282.093 167.887 282.093C167.887 282.093 176.671 278.867 179.229 280.425Z" fill="#07A64F"/>
<path d="M174.862 50.6025C223.59 60.8426 260.021 101.907 260.021 151.006C260.021 207.814 211.254 253.864 151.097 253.864C90.9388 253.864 42.1719 207.814 42.1719 151.006C42.1719 101.93 78.569 60.8804 127.263 50.6166" stroke="#CE1126" stroke-width="4.20008" stroke-linecap="round" stroke-linejoin="round"/>
<path d="M151.096 237.182C199.197 237.182 238.191 199.508 238.191 153.034C238.191 106.561 199.197 68.8862 151.096 68.8862C102.994 68.8862 64 106.561 64 153.034C64 199.508 102.994 237.182 151.096 237.182Z" stroke="#CE1126" stroke-width="4.20008"/>
<path d="M42.1719 150.086H260.021" stroke="#CE1126" stroke-width="4.20008"/>
<path d="M220.094 72.0342L80.4414 229.888" stroke="#CE1126" stroke-width="4.20008"/>
<path d="M230.592 221.138L72.0391 80.085" stroke="#CE1126" stroke-width="4.20008"/>
<path d="M150.905 81.2102C163.665 81.0169 177.732 86.9658 187.22 87.6202C196.708 88.2752 209.785 81.3529 209.785 81.3529L230.92 98.4897C230.92 98.4897 212.07 118.483 218.353 144.76C224.637 171.036 253.198 212.165 186.936 233.301C158.945 241.298 151.005 253.865 151.005 253.865H150.994C150.994 253.865 143.053 241.299 115.063 233.301C48.8006 212.165 77.3618 171.036 83.6449 144.76C89.9286 118.483 71.0781 98.4897 71.0781 98.4897L92.2133 81.3529C92.2133 81.3529 105.291 88.2752 114.779 87.6202C124.267 86.9651 138.334 81.0163 151.095 81.2102H150.905Z" fill="white" stroke="#0B295E" stroke-width="4.20008"/>
<path d="M145.89 36.8937V60.6941H157.09V36.8937H172.978V27.2684H157.09V13.4434H145.89V27.2684H130.004V36.8937H145.89Z" stroke="#CE1126" stroke-width="2.40523"/>
<path d="M75.7533 254.136C71.4627 251.562 58.4727 225.159 58.4727 225.159C58.4727 225.159 80.6721 240.444 82.7988 254.402C82.7988 254.402 76.4187 254.536 75.7533 254.136Z" fill="#07A64F"/>
<path d="M68.1782 243.635C68.1782 243.635 50.6316 239.78 47.5742 236.59C47.5742 236.59 49.7015 248.022 73.3629 255.332C73.3629 255.332 80.1418 256.396 76.0214 250.68C71.9003 244.964 72.1663 244.831 68.1782 243.635Z" fill="#07A64F"/>
<path d="M39.9973 199.902C39.9973 199.902 44.383 209.075 44.2506 212.531C44.1183 215.987 45.4472 219.841 45.4472 219.841C45.4472 219.841 27.3688 210.935 24.7109 206.947C24.7109 206.947 30.2945 220.375 44.6501 227.286C44.6501 227.286 54.4864 234.064 55.949 235.26C55.949 235.26 57.145 212.929 39.9973 199.902Z" fill="#07A64F"/>
<path d="M30.1599 171.588C30.1599 171.588 28.1655 183.153 29.628 188.868C29.628 188.868 15.803 180.892 12.6133 173.582C12.6133 173.582 12.6133 185.147 26.0394 198.706C39.4656 212.265 36.5405 209.472 36.5405 209.472C36.5405 209.472 37.3383 189.533 37.2053 186.609C37.0717 183.684 34.1479 175.576 30.1599 171.588Z" fill="#07A64F"/>
<path d="M12.2151 135.697C12.2151 135.697 16.169 147.361 17.1333 148.723C18.0975 150.086 20.1907 157.363 20.1907 157.363C20.1907 157.363 23.2487 151.516 25.1088 148.989C26.9696 146.463 28.8304 142.875 28.8304 141.28C28.8304 141.28 31.3572 154.041 28.2992 162.548C25.2412 171.055 23.5133 179.164 23.5133 179.164C23.5133 179.164 11.5497 161.618 11.1515 153.509C10.7532 145.401 11.1515 139.286 12.2151 135.697Z" fill="#07A64F"/>
<path d="M26.4376 100.471C26.4376 100.471 27.6342 119.745 26.4376 122.005C26.4376 122.005 38.933 113.232 39.3319 111.371C39.3319 111.371 38.1359 129.052 26.4376 138.357C26.4376 138.357 22.716 143.275 22.849 145.933C22.849 145.933 10.4865 126.391 26.4376 100.471Z" fill="#07A64F"/>
<path d="M44.785 72.9546C44.785 72.9546 40.2651 88.774 40.2651 91.5654C40.2651 91.5654 52.6282 89.1722 54.7549 86.1148C54.7549 86.1148 47.3111 99.1421 38.2719 105.124C29.2327 111.106 29.6316 114.694 29.6316 114.694C29.6316 114.694 25.1117 86.6461 44.785 72.9546Z" fill="#07A64F"/>
<path d="M44.3828 86.381C44.3828 86.381 48.5038 62.0548 74.4248 59.1304C74.4248 59.1304 65.2515 79.6014 44.3828 86.381Z" fill="#07A64F"/>
<path d="M225.127 254.136C229.417 251.562 242.409 225.159 242.409 225.159C242.409 225.159 220.21 240.444 218.082 254.402C218.082 254.402 224.463 254.536 225.127 254.136Z" fill="#07A64F"/>
<path d="M232.702 243.635C232.702 243.635 250.249 239.78 253.306 236.59C253.306 236.59 251.179 248.022 227.518 255.332C227.518 255.332 220.74 256.396 224.86 250.68C228.981 244.964 228.714 244.831 232.702 243.635Z" fill="#07A64F"/>
<path d="M260.887 199.902C260.887 199.902 256.501 209.075 256.633 212.531C256.766 215.987 255.437 219.841 255.437 219.841C255.437 219.841 273.514 210.935 276.173 206.947C276.173 206.947 270.59 220.375 256.234 227.286C256.234 227.286 246.397 234.064 244.936 235.26C244.936 235.26 243.739 212.929 260.887 199.902Z" fill="#07A64F"/>
<path d="M270.721 171.588C270.721 171.588 272.715 183.153 271.253 188.868C271.253 188.868 285.079 180.892 288.268 173.582C288.268 173.582 288.268 185.147 274.842 198.706C261.416 212.265 264.34 209.472 264.34 209.472C264.34 209.472 263.541 189.533 263.675 186.609C263.809 183.684 266.733 175.576 270.721 171.588Z" fill="#07A64F"/>
<path d="M288.667 135.697C288.667 135.697 284.713 147.361 283.749 148.723C282.784 150.086 280.692 157.363 280.692 157.363C280.692 157.363 277.633 151.516 275.773 148.989C273.912 146.463 272.051 142.875 272.051 141.28C272.051 141.28 269.524 154.041 272.583 162.548C275.64 171.055 277.369 179.164 277.369 179.164C277.369 179.164 289.333 161.618 289.731 153.509C290.13 145.401 289.73 139.286 288.667 135.697Z" fill="#07A64F"/>
<path d="M274.441 100.471C274.441 100.471 273.245 119.745 274.441 122.005C274.441 122.005 261.947 113.232 261.547 111.371C261.547 111.371 262.743 129.052 274.441 138.357C274.441 138.357 278.163 143.275 278.03 145.933C278.03 145.933 290.392 126.391 274.441 100.471Z" fill="#07A64F"/>
<path d="M256.099 72.9546C256.099 72.9546 260.619 88.774 260.619 91.5654C260.619 91.5654 248.256 89.1722 246.129 86.1148C246.129 86.1148 253.572 99.1421 262.612 105.124C271.65 111.106 271.253 114.694 271.253 114.694C271.253 114.694 275.772 86.6461 256.099 72.9546Z" fill="#07A64F"/>
<path d="M256.499 86.381C256.499 86.381 252.378 62.0548 226.457 59.1304C226.457 59.1304 235.63 79.6014 256.499 86.381Z" fill="#07A64F"/>
<path d="M135.492 10L141.382 17.8255" stroke="#CE1126" stroke-width="1.40001" stroke-linecap="round" stroke-linejoin="round"/>
<path d="M142.189 22.7473L131.379 12.9043" stroke="#CE1126" stroke-width="1.40001" stroke-linecap="round" stroke-linejoin="round"/>
<path d="M137.591 23.0694L129.766 17.6646" stroke="#CE1126" stroke-width="1.40001" stroke-linecap="round" stroke-linejoin="round"/>
<path d="M137.831 40.8179L129.199 46.707" stroke="#CE1126" stroke-width="1.40001" stroke-linecap="round" stroke-linejoin="round"/>
<path d="M141.704 41.0596L131.781 51.1441" stroke="#CE1126" stroke-width="1.40001" stroke-linecap="round" stroke-linejoin="round"/>
<path d="M141.541 45.9004L135.652 54.3712" stroke="#CE1126" stroke-width="1.40001" stroke-linecap="round" stroke-linejoin="round"/>
<path d="M166.702 10L160.812 17.8255" stroke="#CE1126" stroke-width="1.40001" stroke-linecap="round" stroke-linejoin="round"/>
<path d="M160.008 22.7473L170.818 12.9043" stroke="#CE1126" stroke-width="1.40001" stroke-linecap="round" stroke-linejoin="round"/>
<path d="M164.605 23.0694L172.432 17.6646" stroke="#CE1126" stroke-width="1.40001" stroke-linecap="round" stroke-linejoin="round"/>
<path d="M164.363 40.8179L172.996 46.707" stroke="#CE1126" stroke-width="1.40001" stroke-linecap="round" stroke-linejoin="round"/>
<path d="M160.492 41.0596L170.416 51.1441" stroke="#CE1126" stroke-width="1.40001" stroke-linecap="round" stroke-linejoin="round"/>
<path d="M160.652 45.9004L166.541 54.3712" stroke="#CE1126" stroke-width="1.40001" stroke-linecap="round" stroke-linejoin="round"/>
<path d="M272.319 234.814C272.506 234.937 272.68 235.029 272.853 235.12L272.796 235.247C279.25 238.148 284.562 241.582 284.396 242.742C284.379 242.858 284.033 243.2 282.65 243.391C280.127 243.74 276.465 243.859 272.591 243.986C271.631 244.018 270.733 244.05 269.866 244.083C270.403 242.056 271.896 236.412 272.319 234.814ZM258.858 249.5L260.208 250.379C263.319 252.398 267.19 254.911 266.888 256.042C266.76 256.525 265.546 257.693 257.067 258.156C256.52 258.186 255.974 258.189 255.428 258.202L257.957 248.83C258.25 249.082 258.566 249.309 258.858 249.5ZM46.7804 258.203C46.2339 258.189 45.6893 258.187 45.1422 258.156C36.6629 257.694 35.4486 256.526 35.3205 256.044C35.0187 254.911 38.8896 252.399 42.0007 250.38L43.3516 249.501C43.6443 249.31 43.9597 249.082 44.2512 248.832L46.7804 258.203ZM17.8124 242.742C17.6459 241.582 22.9581 238.15 29.4125 235.247L29.3558 235.12C29.529 235.029 29.7028 234.937 29.8901 234.814C30.3127 236.412 31.8057 242.056 32.3418 244.083C31.4758 244.05 30.578 244.018 29.6175 243.986C25.7422 243.859 22.0823 243.74 19.5591 243.391C18.1753 243.2 17.8295 242.858 17.8124 242.742ZM29.3534 266.699C28.6801 266.118 28.3385 265.48 28.3385 264.799C28.3385 261.722 21.5071 249.417 18.8151 244.688C19.034 244.728 19.2322 244.758 19.367 244.778C21.9627 245.137 25.658 245.257 29.5711 245.385C34.4588 245.544 43.5559 245.843 43.881 247.097C43.881 247.099 43.856 247.495 42.5837 248.329L41.2377 249.204C36.6898 252.157 33.4031 254.288 33.9666 256.403C34.0166 256.59 34.102 256.764 34.2093 256.93L34.0575 256.998C34.0995 257.095 36.7184 263.094 38.7646 268.767C35.0772 269.088 31.1696 268.265 29.3534 266.699ZM259.657 277.301C259.638 277.639 259.454 277.946 259.094 278.241C255.547 281.155 239.532 280.335 231.745 279.248L228.439 278.765C219.732 277.469 205.158 275.302 195.016 277.115L189.265 278.172C177.753 280.31 161.988 283.24 151.109 283.152C139.813 283.063 123.541 280.092 111.66 277.926L107.191 277.115C97.0495 275.302 82.4779 277.469 73.7693 278.765L70.4619 279.248C62.676 280.334 46.6609 281.155 43.1119 278.241C42.7539 277.946 42.5697 277.639 42.5508 277.301C42.3227 273.266 37.9394 262.551 36.1165 258.248C37.8748 258.91 40.7553 259.32 45.0642 259.554C53.2123 259.997 61.1244 258.684 69.4995 257.295C78.9851 255.722 88.794 254.094 100.44 254.631C111.859 255.157 121.455 256.888 129.921 258.415C137.882 259.851 144.757 261.091 151.117 260.959C157.101 260.835 163.511 259.725 170.935 258.439C179.744 256.915 189.73 255.186 201.766 254.631C213.412 254.094 223.22 255.722 232.704 257.295C241.081 258.684 248.992 259.997 257.14 259.554C261.449 259.32 264.331 258.91 266.089 258.248C264.267 262.551 259.884 273.266 259.657 277.301ZM273.869 264.799C273.869 265.48 273.527 266.118 272.855 266.699C271.037 268.265 267.13 269.088 263.442 268.767C265.489 263.095 268.107 257.095 268.15 256.998L267.998 256.931C268.105 256.765 268.191 256.59 268.24 256.404C268.805 254.288 265.518 252.157 260.969 249.205L259.624 248.33C258.351 247.496 258.328 247.099 258.328 247.095C258.653 245.843 267.749 245.545 272.637 245.385C276.548 245.258 280.246 245.138 282.84 244.778C282.975 244.759 283.172 244.729 283.393 244.688C280.699 249.417 273.869 261.722 273.869 264.799Z" fill="white"/>
<path d="M284.963 243.339C284.963 243.339 274.559 261.268 274.559 264.799C274.559 268.33 267.87 270.187 262.297 269.351" stroke="black" stroke-width="1.40275"/>
<path d="M273.355 234.607C273.355 234.607 271.962 233.955 271.962 233.399L268.988 244.64" stroke="#010101" stroke-width="1.40275"/>
<path d="M44.5391 247.243L47.6977 258.948" stroke="#010101" stroke-width="1.40275"/>
<path d="M17.2266 243.339C17.2266 243.339 27.6313 261.268 27.6313 264.799C27.6313 268.33 34.3194 270.187 39.8938 269.351" stroke="black" stroke-width="1.40275"/>
<path d="M28.8359 234.607C28.8359 234.607 30.2289 233.955 30.2289 233.399L33.2021 244.64" stroke="#010101" stroke-width="1.40275"/>
<path d="M273.074 234.608C273.074 234.608 291.47 242.878 282.736 244.085C274.004 245.292 251.428 243.806 259.233 248.915C267.037 254.024 274.19 257.925 257.096 258.855C240.002 259.785 223.93 252.909 201.727 253.932C179.523 254.954 164.102 259.99 151.096 260.259C138.089 260.528 122.669 254.954 100.465 253.932C78.2614 252.909 62.1895 259.785 45.0949 258.855C28.0003 257.925 35.1549 254.024 42.9585 248.915C50.7626 243.806 28.1875 245.292 19.4539 244.085C10.7208 242.878 29.1158 234.608 29.1158 234.608" stroke="black" stroke-width="1.40275"/>
<path d="M267.5 256.718C267.5 256.718 260.625 272.416 260.347 277.341C260.068 282.266 239.63 281.057 231.64 279.941C223.651 278.826 206.558 275.762 195.131 277.804C183.704 279.847 164.01 283.957 151.096 283.853C138.183 283.749 118.488 279.847 107.061 277.804C95.6342 275.762 78.5414 278.826 70.5518 279.941C62.5622 281.057 42.1235 282.266 41.8454 277.341C41.5667 272.416 34.6914 256.718 34.6914 256.718" stroke="black" stroke-width="1.40275"/>
<path d="M257.654 247.243L254.496 258.948" stroke="#010101" stroke-width="1.40275"/>
<path d="M97.352 117.562H115.175C110.718 117.562 106.26 113.698 106.26 113.698C106.26 113.698 101.807 117.562 97.352 117.562ZM90.373 117.562H97.352C93.506 117.562 89.6667 114.691 88.6836 113.901L90.373 117.562ZM115.175 117.562H133.001C128.545 117.562 124.088 113.698 124.088 113.698C124.088 113.698 119.631 117.562 115.175 117.562ZM133.001 117.562H150.828C146.372 117.562 141.916 113.698 141.916 113.698C141.916 113.698 137.46 117.562 133.001 117.562ZM185.74 117.562H203.563C199.106 117.562 194.649 113.698 194.649 113.698C194.649 113.698 190.194 117.562 185.74 117.562ZM203.563 117.562H211.118L212.34 113.811C211.591 114.427 207.582 117.562 203.563 117.562ZM168.29 117.543C163.957 117.334 159.748 113.698 159.748 113.698C159.748 113.698 155.287 117.562 150.828 117.562H185.74C181.283 117.562 176.823 113.698 176.823 113.698C176.823 113.698 172.617 117.334 168.29 117.543Z" fill="#07A64F"/>
<path d="M210.47 122.248C206.014 122.248 203.96 118.384 203.96 118.384C203.96 118.384 199.502 122.248 195.047 122.248C190.589 122.248 186.132 118.384 186.132 118.384C186.132 118.384 181.678 122.248 177.224 122.248C172.767 122.248 168.307 118.384 168.307 118.384C168.307 118.384 163.85 122.248 159.393 122.248H160.157C155.694 122.248 151.232 118.384 151.232 118.384C151.232 118.384 146.772 122.248 142.312 122.248C137.856 122.248 133.401 118.384 133.401 118.384C133.401 118.384 128.945 122.248 124.486 122.248C120.03 122.248 115.573 118.384 115.573 118.384C115.573 118.384 111.116 122.248 106.66 122.248C102.203 122.248 97.7451 118.384 97.7451 118.384C97.7451 118.384 95.9234 122.248 91.4688 122.248H210.47Z" fill="#07A64F"/>
<path d="M210.47 131.698C206.014 131.698 203.96 127.833 203.96 127.833C203.96 127.833 199.502 131.698 195.047 131.698C190.589 131.698 186.132 127.833 186.132 127.833C186.132 127.833 181.678 131.698 177.224 131.698C172.767 131.698 168.307 127.833 168.307 127.833C168.307 127.833 163.85 131.698 159.393 131.698H160.157C155.694 131.698 151.232 127.833 151.232 127.833C151.232 127.833 146.772 131.698 142.312 131.698C137.856 131.698 133.401 127.833 133.401 127.833C133.401 127.833 128.945 131.698 124.486 131.698C120.03 131.698 115.573 127.833 115.573 127.833C115.573 127.833 111.116 131.698 106.66 131.698C102.203 131.698 97.7451 127.833 97.7451 127.833C97.7451 127.833 95.9234 131.698 91.4688 131.698H210.47Z" fill="#07A64F"/>
<path d="M97.7744 126.487H115.53C111.09 126.487 106.648 122.623 106.648 122.623C106.648 122.623 102.211 126.487 97.7744 126.487ZM93.6113 126.312L97.7744 126.487C93.9425 126.487 90.1178 123.616 91.9274 122.652L93.6113 126.312ZM115.53 126.487H133.29C128.85 126.487 124.41 122.623 124.41 122.623C124.41 122.623 119.97 126.487 115.53 126.487ZM133.29 126.487H151.05C146.611 126.487 142.171 122.623 142.171 122.623C142.171 122.623 137.733 126.487 133.29 126.487ZM185.831 126.487H203.588C199.147 126.487 194.706 122.623 194.706 122.623C194.706 122.623 190.269 126.487 185.831 126.487ZM203.588 126.487H208.848L210.066 122.736C211.586 123.352 207.593 126.487 203.588 126.487ZM168.447 126.467C164.131 126.259 159.936 122.623 159.936 122.623C159.936 122.623 155.494 126.487 151.051 126.487H185.831C181.392 126.487 176.949 122.623 176.949 122.623C176.949 122.623 172.757 126.259 168.447 126.467Z" fill="#07A64F"/>
<path d="M90.7656 117.885H210.468" stroke="#07A64F" stroke-width="0.700034"/>
<path d="M90.7656 122.086H210.468" stroke="#07A64F" stroke-width="0.700034"/>
<path d="M92.6523 126.111H208.582" stroke="#07A64F" stroke-width="0.688873"/>
<path d="M92.6523 131.361H208.582" stroke="#07A64F" stroke-width="0.688873"/>
<path d="M171.377 93.0236C176.816 94.3879 181.952 95.6766 186.644 96.0005C194.367 96.5335 203.121 93.5029 208.573 91.1829C211.922 93.8994 214.83 96.2554 219.332 99.9056C214.644 107.066 208.664 119.095 208.664 133.878C208.664 137.962 209.12 142.255 210.185 146.713C211.308 151.402 212.987 156.259 214.764 161.402C218.081 171.003 221.476 180.823 221.476 189.911C221.476 194.303 220.683 198.525 218.707 202.467C214.003 211.852 202.456 219.533 184.386 225.298L184.631 225.223C167.517 230.113 157.049 236.711 151.002 241.8C144.955 236.711 134.487 230.113 117.373 225.223L117.618 225.298C99.5474 219.533 88.0003 211.852 83.2969 202.467C81.3208 198.525 80.5273 194.303 80.5273 189.911C80.5273 180.822 83.9214 171.003 87.2398 161.402C89.017 156.258 90.6961 151.402 91.817 146.713C92.8837 142.254 93.3393 137.96 93.3393 133.878C93.3393 119.095 87.3593 107.067 82.6711 99.9056C87.1733 96.256 90.0801 93.8988 93.4296 91.1829C98.882 93.5029 107.637 96.5335 115.359 96.0005C120.051 95.6766 125.188 94.3879 130.627 93.0236C137.485 91.3037 144.575 89.5258 150.907 89.6088H151.097C157.429 89.5252 164.519 91.3031 171.377 93.0236Z" stroke="#0B295E" stroke-width="2.10004"/>
<path d="M152.43 109.368C152.43 109.368 158.032 105.751 163.514 110.068C163.514 110.068 160.012 105.168 155.346 105.285C155.346 105.285 159.546 100.736 167.129 104.352C167.129 104.352 162.928 98.8682 154.645 101.318C154.645 101.318 161.295 97.3514 165.495 99.5677C165.495 99.5677 160.595 96.184 157.329 97.4679C157.329 97.4679 158.03 94.3184 161.063 92.8016C161.063 92.8016 153.48 93.9677 151.612 96.7677C151.612 96.7677 150.329 93.8506 146.712 92.5674C146.712 92.5674 148.579 96.3011 147.879 98.0515C147.879 98.0515 141.462 91.7513 135.512 94.785C135.512 94.785 133.879 96.1846 133.879 97.935C133.879 97.935 138.545 95.3686 141.112 98.2851C141.112 98.2851 135.279 97.585 132.012 103.535C132.012 103.535 140.529 100.036 146.129 103.652C146.129 103.652 137.728 103.768 136.795 109.835C136.795 109.835 144.424 105.882 147.762 109.019C147.762 109.019 150.213 111.818 152.43 109.368Z" fill="#07A64F"/>
<path d="M153.058 110.667H148.805V129.749H153.058V110.667Z" fill="#995037"/>
<path d="M153.243 107.736C153.243 109.232 151.261 110.445 151.261 110.445C151.261 110.445 149.277 109.232 149.277 107.736C149.277 106.239 150.165 105.026 151.261 105.026C152.356 105.026 153.243 106.239 153.243 107.736Z" fill="#F6C906" stroke="#754438" stroke-width="0.489987"/>
<path d="M150.454 112.287C149.744 113.604 147.423 113.73 147.423 113.73C147.423 113.73 146.253 111.721 146.963 110.404C147.674 109.087 149.031 108.441 149.995 108.961C150.959 109.481 151.164 110.969 150.454 112.287Z" fill="#F6C906" stroke="#754438" stroke-width="0.489987"/>
<path d="M154.707 109.561C155.899 110.465 155.668 112.778 155.668 112.778C155.668 112.778 153.502 113.626 152.31 112.721C151.118 111.817 150.688 110.377 151.35 109.504C152.012 108.631 153.514 108.656 154.707 109.561Z" fill="#F6C906" stroke="#754438" stroke-width="0.489987"/>
<path d="M184.63 225.223C184.566 225.24 184.508 225.26 184.444 225.277C184.425 225.285 184.405 225.291 184.384 225.298L184.63 225.223ZM214.763 161.403C212.985 156.259 211.306 151.403 210.184 146.714C209.432 143.565 208.997 140.505 208.798 137.537L208.525 137.145C164.131 143.432 151.097 127.706 151.097 127.706C125.653 147.302 93.507 137.145 93.507 137.145C93.4223 137.12 93.329 137.11 93.2417 137.09C93.0594 140.195 92.6075 143.409 91.817 146.714C90.6961 151.403 89.017 156.26 87.2398 161.403C83.922 171.004 80.5273 180.823 80.5273 189.912C80.5273 194.304 81.3202 198.525 83.2969 202.468C87.9955 211.842 99.523 219.516 117.559 225.277C134.56 230.162 144.978 236.73 151.002 241.8C157.027 236.73 167.445 230.162 184.445 225.277C202.481 219.516 214.008 211.842 218.707 202.468C220.683 198.525 221.476 194.304 221.476 189.912C221.474 180.823 218.08 171.004 214.763 161.403ZM117.617 225.298C117.597 225.291 117.578 225.285 117.558 225.277C117.495 225.26 117.436 225.24 117.372 225.223L117.617 225.298Z" fill="#0B295E"/>
<path d="M110.306 176.967L101.23 170.281L112.399 170.46L115.783 159.643L119.233 170.441L130.399 170.196L121.364 176.934L124.879 187.357L115.847 180.967L106.85 187.41L110.306 176.967Z" fill="white"/>
<path d="M145.627 149.783L136.551 143.097L147.72 143.277L151.103 132.459L154.553 143.257L165.719 143.013L156.685 149.75L160.2 160.174L151.167 153.783L142.171 160.227L145.627 149.783Z" fill="white"/>
<path d="M145.627 220.427L136.551 213.741L147.72 213.92L151.103 203.103L154.553 213.901L165.719 213.656L156.685 220.394L160.2 230.817L151.167 224.427L142.171 230.87L145.627 220.427Z" fill="white"/>
<path d="M186.498 168.646L177.422 161.961L188.59 162.14L191.975 151.322L195.423 162.12L206.59 161.876L197.556 168.613L201.07 179.037L192.037 172.647L183.041 179.091L186.498 168.646Z" fill="white"/>
<path d="M164.462 191.211L157.273 185.914L166.121 186.056L168.8 177.486L171.533 186.041L180.378 185.847L173.22 191.184L176.007 199.441L168.851 194.38L161.724 199.483L164.462 191.211Z" fill="white"/>
<path d="M47.4691 263.123L54.733 263.51L54.6018 265.977L50.3747 265.751L50.2624 267.848L54.2389 268.06L54.1084 270.511L50.1319 270.298L49.9032 274.593L46.8672 274.431L47.4691 263.123Z" fill="#CE1126"/>
<path d="M58.0798 272.033L57.5748 274.683L54.4375 274.843L57.1503 263.367L61.1768 263.162L65.1252 274.299L61.8532 274.466L60.9987 271.885L58.0798 272.033ZM60.4657 269.659L59.8424 267.654C59.6423 267.025 59.377 266.113 59.1745 265.451L59.141 265.454C59.008 266.132 58.8873 267.08 58.7519 267.727L58.3682 269.766L60.4657 269.659Z" fill="#CE1126"/>
<path d="M67.6746 262.23C67.2959 264.013 66.7336 265.663 66.0096 267.23L64.2227 267.578C64.6124 265.897 64.874 264.279 64.9527 262.681L67.6746 262.23Z" fill="#CE1126"/>
<path d="M71.7892 270.703L71.5416 273.388L68.4336 273.849L70.0339 262.165L74.0232 261.575L79.0207 272.282L75.7797 272.762L74.6813 270.275L71.7892 270.703ZM73.9366 268.11L73.1237 266.175C72.8638 265.568 72.5125 264.686 72.2479 264.046L72.2143 264.05C72.1466 264.739 72.1186 265.695 72.0454 266.351L71.8587 268.417L73.9366 268.11Z" fill="#CE1126"/>
<path d="M82.4195 271.872L77.6172 261.006L80.9246 260.645L82.5933 264.941C83.0971 266.153 83.5325 267.356 83.9582 268.78L83.9918 268.777C84.1247 267.359 84.2992 266.021 84.5022 264.783L85.2329 260.174L88.4397 259.824L85.9764 271.484L82.4195 271.872Z" fill="#CE1126"/>
<path d="M93.2125 268.335L92.6331 270.969L89.4922 271.039L92.5301 259.644L96.5608 259.555L100.191 270.799L96.9158 270.872L96.1345 268.269L93.2125 268.335ZM95.6649 266.027L95.0989 264.007C94.9166 263.373 94.6775 262.454 94.4939 261.786H94.4604C94.3079 262.461 94.1609 263.406 94.0072 264.049L93.5657 266.075L95.6649 266.027Z" fill="#CE1126"/>
<path d="M109.664 267.6L105.655 266.926L105.309 268.98L109.799 269.735L109.387 272.187L101.898 270.928L103.776 259.761L111.032 260.981L110.623 263.417L106.366 262.701L106.062 264.507L110.072 265.181L109.664 267.6Z" fill="#CE1126"/>
<path d="M121.537 262.778L119.647 273.943L116.648 273.435L118.538 262.271L121.537 262.778Z" fill="#CE1126"/>
<path d="M128.372 263.972L131.384 264.39L130.178 273.094L134.488 273.691L134.139 276.204L126.816 275.189L128.372 263.972Z" fill="#CE1126"/>
<path d="M143.366 272.505L139.317 272.14L139.13 274.214L143.664 274.622L143.442 277.1L135.879 276.417L136.894 265.141L144.223 265.8L144.002 268.259L139.702 267.872L139.538 269.696L143.587 270.061L143.366 272.505Z" fill="#CE1126"/>
<path d="M154.133 274.918L153.677 277.577L150.543 277.793L153.046 266.269L157.068 265.991L161.218 277.054L157.951 277.281L157.049 274.716L154.133 274.918ZM156.475 272.5L155.815 270.507C155.603 269.882 155.321 268.976 155.109 268.317L155.074 268.318C154.954 269 154.85 269.951 154.727 270.598L154.38 272.644L156.475 272.5Z" fill="#CE1126"/>
<path d="M162.527 267.952L159.662 268.327L159.332 265.812L168.128 264.658L168.457 267.174L165.543 267.555L166.685 276.267L163.67 276.663L162.527 267.952Z" fill="#CE1126"/>
<path d="M172.334 263.951L173.406 270.28C173.693 271.969 174.435 272.832 175.611 272.631C176.803 272.431 177.235 271.454 176.935 269.681L175.862 263.354L178.861 262.846L179.904 269.007C180.488 272.453 179.061 274.484 175.929 275.015C172.866 275.535 170.975 274.133 170.366 270.539L169.336 264.46L172.334 263.951Z" fill="#CE1126"/>
<path d="M185.034 270.542L184.885 273.235L181.797 273.809L182.967 262.074L186.931 261.337L192.319 271.854L189.098 272.453L187.91 270.008L185.034 270.542ZM187.085 267.871L186.203 265.967C185.921 265.371 185.537 264.503 185.249 263.872L185.215 263.878C185.173 264.57 185.179 265.525 185.131 266.182L185.02 268.254L187.085 267.871Z" fill="#CE1126"/>
<path d="M197.704 267.967C198.401 268.305 199.534 268.632 200.66 268.607C201.7 268.585 202.197 268.22 202.184 267.65C202.171 267.095 201.661 266.787 200.375 266.379C198.445 265.75 197.162 264.719 197.126 263.038C197.082 261.041 198.727 259.458 201.583 259.394C202.943 259.364 203.906 259.595 204.669 259.915L204.084 262.347C203.593 262.139 202.745 261.838 201.604 261.864C200.68 261.885 200.183 262.231 200.194 262.735C200.206 263.307 200.816 263.529 202.256 264.034C204.305 264.729 205.253 265.801 205.287 267.378C205.331 269.326 203.84 271.039 200.53 271.113C199.17 271.144 197.835 270.803 197.189 270.481L197.704 267.967Z" fill="#CE1126"/>
<path d="M210.438 268.571L209.576 271.127L206.445 270.857L210.702 259.859L214.719 260.206L217.107 271.78L213.843 271.497L213.349 268.824L210.438 268.571ZM213.125 266.545L212.782 264.474C212.67 263.824 212.532 262.885 212.423 262.2L212.388 262.197C212.162 262.852 211.915 263.775 211.692 264.396L211.033 266.363L213.125 266.545Z" fill="#CE1126"/>
<path d="M228.878 269.408C229.032 268.123 229.218 266.624 229.491 264.88L229.441 264.871C228.875 266.3 228.163 267.91 227.617 269.086L225.929 272.83L223.586 272.486L223.209 268.458C223.105 267.203 222.999 265.489 222.975 263.923L222.942 263.919C222.644 265.487 222.332 267.14 222.094 268.412L221.341 272.394L218.582 271.989L220.908 260.886L224.946 261.478L225.252 264.597C225.368 265.887 225.482 267.432 225.515 268.83L225.581 268.839C226.098 267.523 226.695 265.997 227.2 264.866L228.471 261.996L232.426 262.576L231.347 273.862L228.421 273.433L228.878 269.408Z" fill="#CE1126"/>
<path d="M244.399 268.895C244.223 272.536 241.928 274.747 238.438 274.577C234.932 274.406 233.129 271.677 233.282 268.54C233.443 265.251 235.734 262.739 239.19 262.907C242.832 263.083 244.547 265.875 244.399 268.895ZM236.489 268.645C236.387 270.761 237.246 272.114 238.706 272.185C240.166 272.256 241.092 270.871 241.19 268.841C241.284 266.894 240.483 265.375 239.023 265.304C237.58 265.234 236.591 266.564 236.489 268.645Z" fill="#CE1126"/>
<path d="M248.669 272.004L248.067 274.634L244.926 274.679L248.06 263.31L252.091 263.252L255.627 274.528L252.351 274.574L251.593 271.963L248.669 272.004ZM251.139 269.719L250.592 267.694C250.414 267.058 250.183 266.136 250.005 265.466L249.972 265.468C249.813 266.141 249.659 267.085 249.499 267.725L249.041 269.748L251.139 269.719Z" fill="#CE1126"/>
<path d="M154.996 15.543C154.996 18.5638 154.996 29.368 154.996 29.368C154.996 29.368 167.719 29.368 170.883 29.368C170.883 31.2184 170.883 32.9426 170.883 34.7936C167.719 34.7936 154.996 34.7936 154.996 34.7936C154.996 34.7936 154.996 55.031 154.996 58.594C152.863 58.594 150.129 58.594 147.996 58.594C147.996 55.031 147.996 34.7936 147.996 34.7936C147.996 34.7936 135.272 34.7936 132.109 34.7936C132.109 32.9432 132.109 31.219 132.109 29.368C135.272 29.368 147.996 29.368 147.996 29.368C147.996 29.368 147.996 18.5638 147.996 15.543C150.129 15.543 152.863 15.543 154.996 15.543Z" fill="#0B295E" stroke="white" stroke-width="1.40001"/>
</svg>
