<svg width="300" height="300" viewBox="0 0 300 300" fill="none" xmlns="http://www.w3.org/2000/svg">
<path fill-rule="evenodd" clip-rule="evenodd" d="M72.9532 191.786C65.7003 192.126 56.4808 192.645 48.2119 195.541C39.9429 198.438 32.406 201.586 20.4453 207.171C32.8321 205.029 39.9629 200.834 47.5707 198.23C55.1786 195.626 63.9803 194.54 69.0227 194.024C74.0651 193.507 74.8447 193.46 74.7678 192.425C75.9527 192.706 77.0448 193.012 78.2489 193.299C77.4604 193.676 76.0752 193.836 75.0063 193.833C57.3196 196.835 37.3875 202.019 26.7369 217.074C43.0017 202.917 54.9195 201.106 74.2755 196.289C76.1596 196.379 79.994 194.523 79.833 193.712C82.4868 194.351 85.0286 194.857 87.4087 195.259C87.4645 195.586 84.9464 195.771 84.0859 195.708C67.2772 199.582 46.1936 202.96 38.0249 219.484C52.54 204.14 64.5064 203.492 83.4598 198.048C85.2419 197.536 88.3846 196.941 89 195.607C89.5379 195.778 90.1011 195.898 90.639 196.018C93.0629 196.664 95.5439 197.401 98.2696 198.323C97.4272 198.534 94.9297 198.33 94.0002 198.237C80.4954 199.056 58.2429 204.562 50.2692 216.354C49.2159 218.343 48.1504 220.261 47.0031 222.175C59.8376 205.084 73.6086 204.452 93.27 200.63C95.109 200.273 100.035 199.703 99.9083 198.866C102.858 199.499 104.589 200.386 106.736 201.138C106.409 201.585 104.457 201.364 103.562 201.218C90.453 201.193 67.1214 206.77 58.6954 217.638C57.5561 219.489 56.4095 221.27 55.1839 223.043C68.6319 207.368 83.8527 206.1 103.075 203.122C104.897 203.372 107.006 202.463 108.158 201.705C110.259 202.49 111.247 203.226 112.779 203.914C112.779 203.914 111.247 203.226 112.897 203.887C112.974 204.054 111.367 203.641 110.381 203.481C97.2726 203.456 74.3676 208.558 65.9415 219.427C64.8023 221.277 63.6556 223.059 62.4301 224.832C75.878 209.156 90.2637 208.817 109.486 205.839C111.308 206.089 113.577 204.891 114.024 204.434C115.717 204.869 116.955 205.661 118.16 206.473C118.16 206.473 116.828 205.802 118.366 206.524C117.708 206.939 116.125 206.795 115.186 206.643C102.077 206.617 80.025 210.771 71.599 221.639C70.4597 223.49 69.313 225.271 68.0875 227.044C81.5355 211.369 94.9316 212.129 114.154 209.152C115.976 209.402 119.348 207.76 119.686 207.169C120.147 207.497 120.59 207.731 121.029 207.968C121.87 208.444 122.69 208.945 123.717 209.558C123.039 210.072 121.42 210.172 120.473 210.018C108.044 209.994 87.1356 213.933 79.1464 224.237C78.0662 225.992 76.979 227.681 75.817 229.362C88.5677 214.499 101.241 215.252 119.467 212.429C121.194 212.666 124.428 210.922 124.918 210.366C125.988 211.158 126.979 211.885 127.957 212.626C127.957 212.626 126.979 211.885 127.987 212.649C127.236 213.482 125.817 213.111 125.014 213.02C113.137 213.571 93.3426 218.315 86.1888 228.566C85.2384 230.299 84.2782 231.969 83.2462 233.635C94.7374 218.792 106.557 219.231 123.84 215.681C125.502 215.828 128.245 214.417 129.009 213.438C129.979 214.182 130.864 214.88 131.836 215.655C131.075 216.424 129.646 216.266 128.805 216.207C118.078 217.191 99.6784 222.754 95.6471 234.146C94.7202 235.761 93.787 237.319 92.7893 238.877C104.651 223.006 111.466 223.11 127.186 219.178C128.678 219.245 131.509 217.201 132.582 216.15C132.843 216.437 133.116 216.651 133.389 216.863C133.389 216.863 133.779 217.16 134.258 217.601C133.819 218.387 132.594 218.357 131.947 218.399C123.673 220.316 111.021 225.134 107.285 235.928C106.734 237.301 106.172 238.63 105.56 239.966C114.934 225.203 118.729 225.849 130.587 221.073C131.759 220.967 134.551 219.203 135.211 218.202C135.709 218.368 136.098 218.922 136.703 219.37C141.478 224.648 149.365 234.229 150.928 243.502C151.409 244.803 151.763 246.441 152.185 248.416C152.928 249.085 155.349 244.887 156.645 243.423C151.87 233.556 150.449 227.414 135.681 214.809C132.105 211.757 129.439 209.673 124.283 206.465C118.645 203.227 111.417 199.838 105.254 197.769C98.5017 195.502 90.4669 193.559 81.6576 191.707C81.6576 191.707 73.0305 190.447 71.9907 190.468C64.3126 190.621 56.2713 189.897 48.9585 191.026C40.9455 192.605 33.5758 194.509 21.804 198.069C33.5218 197.71 40.6525 194.797 48.017 193.4C55.3814 192.002 60.7157 192.547 68.4647 192.431C70.214 192.399 73.481 192.022 73.6849 191.801C73.5546 191.944 73.2708 191.861 72.9798 191.782" fill="#D6B61E"/>
<path d="M72.9532 191.786C65.7003 192.126 56.4808 192.645 48.2119 195.541C39.9429 198.438 32.406 201.586 20.4453 207.171C32.8321 205.029 39.9629 200.834 47.5707 198.23C55.1786 195.626 63.9803 194.54 69.0227 194.024C74.0651 193.507 74.8447 193.46 74.7678 192.425C75.9527 192.706 77.0448 193.012 78.2489 193.299C77.4604 193.676 76.0752 193.836 75.0063 193.833C57.3196 196.835 37.3875 202.019 26.7369 217.074C43.0017 202.917 54.9195 201.106 74.2755 196.289C76.1596 196.379 79.994 194.523 79.833 193.712C82.4868 194.351 85.0286 194.857 87.4086 195.259C87.4645 195.586 84.9464 195.771 84.0859 195.708C67.2772 199.582 46.1936 202.96 38.0249 219.484C52.54 204.14 64.5063 203.492 83.4598 198.048C85.2419 197.536 88.3846 196.941 89 195.607C89.5379 195.778 90.1011 195.898 90.639 196.018C93.0629 196.664 95.5439 197.401 98.2696 198.323C97.4272 198.534 94.9298 198.33 94.0002 198.237C80.4954 199.056 58.2429 204.562 50.2692 216.354C49.2159 218.343 48.1504 220.261 47.0031 222.175C59.8376 205.084 73.6086 204.452 93.27 200.63C95.109 200.273 100.035 199.703 99.9083 198.866C102.858 199.499 104.589 200.386 106.736 201.138C106.409 201.585 104.457 201.364 103.562 201.218C90.453 201.193 67.1214 206.77 58.6954 217.638C57.5561 219.489 56.4095 221.27 55.1839 223.043C68.6319 207.368 83.8527 206.1 103.075 203.122C104.897 203.372 107.006 202.463 108.158 201.705C110.259 202.49 111.247 203.226 112.779 203.914C112.779 203.914 111.247 203.226 112.897 203.887C112.974 204.054 111.367 203.641 110.381 203.481C97.2726 203.456 74.3676 208.558 65.9415 219.427C64.8023 221.277 63.6556 223.059 62.4301 224.832C75.878 209.156 90.2637 208.817 109.486 205.839C111.308 206.089 113.577 204.891 114.024 204.434C115.717 204.869 116.955 205.661 118.16 206.473C118.16 206.473 116.828 205.802 118.366 206.524C117.708 206.939 116.125 206.795 115.186 206.643C102.077 206.617 80.025 210.771 71.599 221.639C70.4597 223.49 69.3131 225.271 68.0875 227.044C81.5355 211.369 94.9316 212.129 114.154 209.152C115.976 209.402 119.348 207.76 119.686 207.169C120.147 207.497 120.59 207.731 121.029 207.968C121.87 208.444 122.69 208.945 123.717 209.558C123.039 210.072 121.42 210.172 120.473 210.018C108.044 209.994 87.1356 213.933 79.1464 224.237C78.0662 225.992 76.979 227.681 75.817 229.362C88.5677 214.499 101.241 215.252 119.467 212.429C121.194 212.666 124.428 210.922 124.918 210.366C125.988 211.158 126.979 211.885 127.957 212.626C127.957 212.626 126.979 211.885 127.987 212.649C127.236 213.482 125.817 213.111 125.014 213.02C113.137 213.571 93.3426 218.315 86.1888 228.566C85.2384 230.299 84.2782 231.969 83.2462 233.635C94.7374 218.792 106.557 219.231 123.84 215.681C125.502 215.828 128.245 214.417 129.009 213.438C129.979 214.182 130.864 214.88 131.836 215.655C131.075 216.424 129.646 216.266 128.805 216.207C118.078 217.191 99.6784 222.754 95.6471 234.146C94.7202 235.761 93.787 237.319 92.7893 238.877C104.651 223.006 111.466 223.11 127.186 219.178C128.678 219.245 131.509 217.201 132.582 216.15C132.843 216.437 133.116 216.651 133.389 216.863C133.389 216.863 133.779 217.16 134.258 217.601C133.819 218.387 132.594 218.357 131.947 218.399C123.673 220.316 111.021 225.134 107.285 235.928C106.734 237.301 106.172 238.63 105.56 239.966C114.934 225.203 118.729 225.849 130.587 221.073C131.759 220.967 134.551 219.203 135.211 218.202C135.709 218.368 136.098 218.922 136.703 219.37C141.478 224.648 149.365 234.229 150.928 243.502C151.409 244.803 151.763 246.441 152.185 248.416C152.928 249.085 155.349 244.887 156.645 243.423C151.87 233.556 150.449 227.414 135.681 214.809C132.105 211.757 129.439 209.673 124.283 206.465C118.645 203.227 111.417 199.838 105.254 197.769C98.5017 195.502 90.4669 193.559 81.6576 191.707C81.6576 191.707 73.0305 190.447 71.9907 190.468C64.3126 190.621 56.2713 189.897 48.9585 191.026C40.9455 192.605 33.5758 194.509 21.804 198.069C33.5218 197.71 40.6525 194.797 48.017 193.4C55.3814 192.002 60.7157 192.547 68.4647 192.431C70.214 192.399 73.481 192.022 73.6849 191.801C73.5546 191.944 73.2708 191.861 72.9798 191.782" stroke="black" stroke-width="0.242649"/>
<path fill-rule="evenodd" clip-rule="evenodd" d="M235.293 191.786C242.546 192.126 251.766 192.645 260.035 195.541C268.304 198.438 275.84 201.586 287.801 207.171C275.414 205.029 268.284 200.834 260.676 198.23C253.068 195.626 244.266 194.54 239.224 194.024C234.181 193.507 233.402 193.46 233.479 192.425C232.294 192.706 231.202 193.012 229.998 193.299C230.786 193.676 232.171 193.836 233.24 193.833C250.927 196.835 270.859 202.019 281.51 217.074C265.245 202.917 253.327 201.106 233.971 196.289C232.087 196.379 228.253 194.523 228.413 193.712C225.76 194.351 223.218 194.857 220.838 195.259C220.782 195.586 223.3 195.771 224.161 195.708C240.969 199.582 262.053 202.96 270.222 219.484C255.706 204.14 243.74 203.492 224.787 198.048C223.005 197.536 219.862 196.941 219.246 195.607C218.709 195.778 218.145 195.898 217.607 196.018C215.184 196.664 212.703 197.401 209.977 198.323C210.819 198.534 213.317 198.33 214.246 198.237C227.751 199.056 250.004 204.562 257.977 216.354C259.031 218.343 260.096 220.261 261.243 222.175C248.409 205.084 234.638 204.452 214.976 200.63C213.137 200.273 208.212 199.703 208.338 198.866C205.388 199.499 203.657 200.386 201.51 201.138C201.838 201.585 203.79 201.364 204.684 201.218C217.793 201.193 241.125 206.77 249.551 217.638C250.69 219.489 251.837 221.27 253.063 223.043C239.615 207.368 224.394 206.1 205.172 203.122C203.349 203.372 201.241 202.463 200.089 201.705C197.988 202.49 197 203.226 195.468 203.914C195.468 203.914 197 203.226 195.35 203.887C195.272 204.054 196.88 203.641 197.865 203.481C210.974 203.456 233.879 208.558 242.305 219.427C243.444 221.277 244.591 223.059 245.816 224.832C232.368 209.156 217.983 208.817 198.761 205.839C196.938 206.089 194.669 204.891 194.222 204.434C192.53 204.869 191.292 205.661 190.087 206.473C190.087 206.473 191.419 205.802 189.88 206.524C190.539 206.939 192.122 206.795 193.061 206.643C206.17 206.617 228.221 210.771 236.647 221.639C237.787 223.49 238.933 225.271 240.159 227.044C226.711 211.369 213.315 212.129 194.093 209.152C192.27 209.402 188.898 207.76 188.561 207.169C188.099 207.497 187.656 207.731 187.218 207.968C186.376 208.444 185.556 208.945 184.529 209.558C185.208 210.072 186.827 210.172 187.773 210.018C200.203 209.994 221.111 213.933 229.1 224.237C230.18 225.992 231.267 227.681 232.43 229.362C219.679 214.499 207.006 215.252 188.78 212.429C187.052 212.666 183.818 210.922 183.328 210.366C182.259 211.158 181.267 211.885 180.289 212.626C180.289 212.626 181.267 211.885 180.26 212.649C181.01 213.482 182.43 213.111 183.233 213.02C195.11 213.571 214.904 218.315 222.058 228.566C223.008 230.299 223.968 231.969 225 233.635C213.509 218.792 201.69 219.231 184.407 215.681C182.745 215.828 180.001 214.417 179.238 213.438C178.267 214.182 177.382 214.88 176.41 215.655C177.172 216.424 178.6 216.266 179.442 216.207C190.168 217.191 208.568 222.754 212.599 234.146C213.526 235.761 214.459 237.319 215.457 238.877C203.595 223.006 196.78 223.11 181.06 219.178C179.568 219.245 176.738 217.201 175.664 216.15C175.403 216.437 175.13 216.651 174.857 216.863C174.857 216.863 174.467 217.16 173.989 217.601C174.428 218.387 175.653 218.357 176.3 218.399C184.573 220.316 197.225 225.134 200.961 235.928C201.512 237.301 202.074 238.63 202.686 239.966C193.313 225.203 189.518 225.849 177.66 221.073C176.487 220.967 173.696 219.203 173.036 218.202C172.537 218.368 172.149 218.922 171.544 219.37C166.768 224.648 158.881 234.229 157.319 243.502C156.838 244.803 156.483 246.441 156.062 248.416C155.319 249.085 152.898 244.887 151.602 243.423C156.376 233.556 157.798 227.414 172.566 214.809C176.141 211.757 178.808 209.673 183.964 206.465C189.601 203.227 196.829 199.838 202.992 197.769C209.745 195.502 217.78 193.559 226.589 191.707C226.589 191.707 235.216 190.447 236.256 190.468C243.934 190.621 251.975 189.897 259.288 191.026C267.301 192.605 274.671 194.509 286.443 198.069C274.725 197.71 267.594 194.797 260.23 193.4C252.865 192.002 247.531 192.547 239.782 192.431C238.032 192.399 234.766 192.022 234.562 191.801C234.692 191.944 234.976 191.861 235.267 191.782" fill="#D6B61E"/>
<path d="M235.293 191.786C242.546 192.126 251.766 192.645 260.035 195.541C268.304 198.438 275.841 201.586 287.801 207.171C275.414 205.029 268.284 200.834 260.676 198.23C253.068 195.626 244.266 194.54 239.224 194.024C234.181 193.507 233.402 193.46 233.479 192.425C232.294 192.706 231.202 193.012 229.998 193.299C230.786 193.676 232.171 193.836 233.24 193.833C250.927 196.835 270.859 202.019 281.51 217.074C265.245 202.917 253.327 201.106 233.971 196.289C232.087 196.379 228.253 194.523 228.413 193.712C225.76 194.351 223.218 194.857 220.838 195.259C220.782 195.586 223.3 195.771 224.161 195.708C240.969 199.582 262.053 202.96 270.222 219.484C255.706 204.14 243.74 203.492 224.787 198.048C223.005 197.536 219.862 196.941 219.246 195.607C218.709 195.778 218.145 195.898 217.607 196.018C215.184 196.664 212.703 197.401 209.977 198.323C210.819 198.534 213.317 198.33 214.246 198.237C227.751 199.056 250.004 204.562 257.977 216.354C259.031 218.343 260.096 220.261 261.243 222.175C248.409 205.084 234.638 204.452 214.976 200.63C213.137 200.273 208.212 199.703 208.338 198.866C205.388 199.499 203.657 200.386 201.51 201.138C201.838 201.585 203.79 201.364 204.684 201.218C217.793 201.193 241.125 206.77 249.551 217.638C250.69 219.489 251.837 221.27 253.063 223.043C239.615 207.368 224.394 206.1 205.172 203.122C203.349 203.372 201.241 202.463 200.089 201.705C197.988 202.49 197 203.226 195.468 203.914C195.468 203.914 197 203.226 195.35 203.887C195.272 204.054 196.88 203.641 197.865 203.481C210.974 203.456 233.879 208.558 242.305 219.427C243.444 221.277 244.591 223.059 245.816 224.832C232.368 209.156 217.983 208.817 198.761 205.839C196.938 206.089 194.669 204.891 194.222 204.434C192.53 204.869 191.292 205.661 190.087 206.473C190.087 206.473 191.419 205.802 189.88 206.524C190.539 206.939 192.122 206.795 193.061 206.643C206.17 206.617 228.221 210.771 236.647 221.639C237.787 223.49 238.933 225.271 240.159 227.044C226.711 211.369 213.315 212.129 194.093 209.152C192.27 209.402 188.898 207.76 188.561 207.169C188.099 207.497 187.656 207.731 187.218 207.968C186.376 208.444 185.556 208.945 184.529 209.558C185.208 210.072 186.827 210.172 187.773 210.018C200.203 209.994 221.111 213.933 229.1 224.237C230.18 225.992 231.267 227.681 232.43 229.362C219.679 214.499 207.006 215.252 188.78 212.429C187.052 212.666 183.818 210.922 183.328 210.366C182.259 211.158 181.267 211.885 180.289 212.626C180.289 212.626 181.267 211.885 180.26 212.649C181.01 213.482 182.43 213.111 183.233 213.02C195.11 213.571 214.904 218.315 222.058 228.566C223.008 230.299 223.968 231.969 225 233.635C213.509 218.792 201.69 219.231 184.407 215.681C182.745 215.828 180.001 214.417 179.238 213.438C178.268 214.182 177.382 214.88 176.41 215.655C177.172 216.424 178.6 216.266 179.442 216.207C190.168 217.191 208.568 222.754 212.599 234.146C213.526 235.761 214.459 237.319 215.457 238.877C203.595 223.006 196.78 223.11 181.06 219.178C179.568 219.245 176.738 217.201 175.664 216.15C175.403 216.437 175.13 216.651 174.857 216.863C174.857 216.863 174.467 217.16 173.989 217.601C174.428 218.387 175.653 218.357 176.3 218.399C184.573 220.316 197.225 225.134 200.961 235.928C201.512 237.301 202.074 238.63 202.686 239.966C193.313 225.203 189.518 225.849 177.66 221.073C176.487 220.967 173.696 219.203 173.036 218.202C172.537 218.368 172.149 218.922 171.544 219.37C166.768 224.648 158.881 234.229 157.319 243.502C156.838 244.803 156.483 246.441 156.062 248.416C155.319 249.085 152.898 244.887 151.602 243.423C156.376 233.556 157.798 227.414 172.566 214.809C176.141 211.757 178.808 209.673 183.964 206.465C189.601 203.227 196.829 199.838 202.992 197.769C209.745 195.502 217.78 193.559 226.589 191.707C226.589 191.707 235.216 190.447 236.256 190.468C243.934 190.621 251.975 189.897 259.288 191.026C267.301 192.605 274.671 194.509 286.443 198.069C274.725 197.71 267.594 194.797 260.23 193.4C252.865 192.002 247.531 192.547 239.782 192.431C238.032 192.399 234.766 192.022 234.562 191.801C234.692 191.944 234.976 191.861 235.267 191.782" stroke="black" stroke-width="0.242649"/>
<path d="M130.724 78.1319C133.265 76.8686 134.85 77.2752 136.391 77.761C134.794 75.1207 132.832 73.9517 130.663 73.6097L130.724 78.1319Z" fill="black" stroke="black" stroke-width="0.242649"/>
<path d="M80.1355 90.1206C88.0993 99.3739 87.5914 92.9469 97.2073 100.641C97.6858 98.1773 95.4321 95.2578 91.375 91.2445C97.6586 96.5821 99.5926 92.0475 106.239 94.5718C106.507 93.0847 104.28 91.6986 102.162 90.3001C108.771 93.0265 109.425 86.4798 119.199 91.7524C118.916 89.7708 117.321 88.0196 115.468 86.3098L122.437 87.8099C123.495 86.5305 124.733 85.5324 126.226 84.9315L131.395 84.0789C130.608 81.4912 131.688 80.2771 131.92 78.2961C131.811 76.679 130.779 75.9608 131.717 73.441C124.6 72.9379 121.079 69.92 116.831 75.3469C112.114 75.0368 107.198 74.3416 103.152 75.363C87.7098 68.413 83.0581 70.5725 77.8582 73.8204" fill="#D6B61E"/>
<path d="M80.1355 90.1206C88.0993 99.3739 87.5914 92.9469 97.2073 100.641C97.6858 98.1773 95.4321 95.2578 91.375 91.2445C97.6586 96.5821 99.5926 92.0475 106.239 94.5718C106.507 93.0847 104.28 91.6986 102.162 90.3001C108.771 93.0265 109.425 86.4798 119.199 91.7524C118.916 89.7708 117.321 88.0196 115.468 86.3098L122.437 87.8099C123.495 86.5305 124.733 85.5324 126.226 84.9315L131.395 84.0789C130.608 81.4912 131.688 80.2771 131.92 78.2961C131.811 76.679 130.779 75.9608 131.717 73.441C124.6 72.9379 121.079 69.92 116.831 75.3469C112.114 75.0368 107.198 74.3416 103.152 75.363C87.7098 68.413 83.0581 70.5725 77.8582 73.8204" stroke="black" stroke-width="0.242649"/>
<path d="M120.914 80.1851C126.105 80.7375 127.268 76.2177 131.915 78.2059L120.914 80.1851Z" fill="#D6B61E"/>
<path d="M120.914 80.1851C126.105 80.7375 127.268 76.2177 131.915 78.2059" stroke="black" stroke-width="0.242649"/>
<path d="M97.3398 78.6143C105.142 82.4356 105.653 77.5784 116.167 80.1851L97.3398 78.6143Z" fill="#D6B61E"/>
<path d="M97.3398 78.6143C105.142 82.4356 105.653 77.5784 116.167 80.1851" stroke="black" stroke-width="0.242649"/>
<path d="M177.499 77.6186C174.958 76.3553 173.373 76.762 171.833 77.2477C173.429 74.6076 175.391 73.4386 177.56 73.0966L177.499 77.6186Z" fill="black" stroke="black" stroke-width="0.242649"/>
<path d="M228.084 89.6065C220.12 98.8593 220.628 92.4327 211.013 100.126C210.535 97.6627 212.788 94.7434 216.845 90.7303C210.562 96.0677 208.628 91.5333 201.982 94.0574C201.714 92.5704 203.94 91.1844 206.058 89.786C199.45 92.5123 198.796 85.9659 189.022 91.2382C189.305 89.2567 190.901 87.5057 192.753 85.7959L185.784 87.2959C184.726 86.0166 183.488 85.0186 181.996 84.4177L176.827 83.5652C177.614 80.9776 176.534 79.7636 176.303 77.7827C176.411 76.1656 177.443 75.4475 176.505 72.9279C183.622 72.4247 187.142 69.4071 191.39 74.8337C196.107 74.5236 201.023 73.8285 205.069 74.8497C210.614 72.3538 214.768 71.0328 218.056 70.5152C223.922 69.5916 225.997 61.3635 229.329 63.445" fill="#D6B720"/>
<path d="M228.084 89.6065C220.12 98.8593 220.628 92.4327 211.013 100.126C210.535 97.6627 212.788 94.7434 216.845 90.7303C210.562 96.0677 208.628 91.5333 201.982 94.0574C201.714 92.5704 203.94 91.1844 206.058 89.786C199.45 92.5123 198.796 85.9659 189.022 91.2382C189.305 89.2567 190.901 87.5057 192.753 85.7959L185.784 87.2959C184.726 86.0166 183.488 85.0186 181.996 84.4178L176.827 83.5652C177.614 80.9776 176.534 79.7636 176.303 77.7827C176.411 76.1656 177.443 75.4475 176.505 72.9279C183.622 72.4247 187.142 69.4071 191.39 74.8337C196.107 74.5236 201.023 73.8285 205.069 74.8497C210.614 72.3538 214.768 71.0328 218.056 70.5152C223.922 69.5916 225.997 61.3635 229.329 63.445" stroke="black" stroke-width="0.242649"/>
<path d="M187.309 79.6714C182.118 80.2238 180.955 75.7043 176.309 77.6924L187.309 79.6714Z" fill="#EAC102"/>
<path d="M187.309 79.6714C182.118 80.2238 180.955 75.7043 176.309 77.6924" stroke="black" stroke-width="0.242649"/>
<path d="M217.087 70.6899C216.33 70.8376 215.533 71.0192 214.683 71.2511C214.259 72.9764 214.007 74.7907 214.426 76.9685C214.937 78.7294 216.527 79.853 217.656 82.9892C218.369 84.4899 218.059 86.2887 218.99 88.2517C219.452 89.0807 219.89 89.5862 220.28 89.8592C221.341 89.7547 222.424 89.6744 222.039 88.1379C222.023 87.9333 221.991 87.7195 221.933 87.5161C221.895 86.9893 221.824 86.5072 221.735 86.0527C220.88 81.6589 217.874 80.2573 217.042 74.3676C216.769 72.9173 216.852 71.7464 217.087 70.6899Z" fill="black" stroke="black" stroke-width="0.242649"/>
<path d="M209.498 72.9878C208.172 73.501 206.75 74.1 205.222 74.7849C205.194 75.6057 205.247 76.4685 205.426 77.401C205.938 79.1619 207.528 80.2855 208.657 83.4217C209.37 84.9224 209.06 86.7212 209.991 88.6842C210.453 89.5132 210.891 90.0187 211.28 90.2917C212.342 90.1872 213.425 90.1068 213.04 88.5704C213.024 88.3658 212.992 88.152 212.933 87.9486C212.896 87.4217 212.825 86.9397 212.736 86.4851C211.925 82.3217 210.368 78.399 209.498 72.9878Z" fill="black" stroke="black" stroke-width="0.242649"/>
<path d="M199.935 74.3149C198.263 74.3174 196.527 74.4433 194.786 74.5803C194.543 76.2014 195.123 77.9471 194.521 80.912C194.352 82.5647 193.159 83.9373 192.936 86.0986C192.901 87.047 193.01 87.7104 193.202 88.1459C194.163 88.6074 195.13 89.0982 195.598 87.5848C195.69 87.4016 195.777 87.2051 195.833 87.0009C196.074 86.531 196.264 86.0781 196.424 85.6436C197.706 82.1677 198.402 78.5569 199.935 74.3149Z" fill="black" stroke="black" stroke-width="0.242649"/>
<path fill-rule="evenodd" clip-rule="evenodd" d="M214.664 77.2192V144.522C211.979 202.204 159.627 220.325 154.106 222.566C148.344 220.199 97.611 202.588 93.582 144.522V77.2192H154.123H214.664Z" fill="#CE1126" stroke="black" stroke-width="0.727947"/>
<path d="M116.706 150.461C116.012 153.348 115.637 156.362 115.637 159.462C115.637 180.671 132.866 197.864 154.121 197.864C175.375 197.864 192.61 180.671 192.61 159.462C192.61 156.362 192.235 153.348 191.54 150.461C187.479 167.326 172.268 179.862 154.121 179.862C135.974 179.862 120.767 167.326 116.706 150.461Z" fill="white" stroke="white" stroke-width="0.242649"/>
<path d="M116.562 151.317C116.562 151.317 117.518 184.779 154.123 184.779C190.728 184.779 191.684 151.317 191.684 151.317" stroke="white" stroke-width="0.242649"/>
<path d="M139.188 134.266L142.069 143.044L151.254 143.033L143.796 148.485L146.645 157.218L139.188 151.81L131.73 157.218L134.558 148.423L127.121 143.033L136.359 143.005L139.188 134.266Z" fill="white" stroke="white" stroke-width="0.242649"/>
<path fill-rule="evenodd" clip-rule="evenodd" d="M131.848 157.057L142.081 143.021L131.848 157.057Z" fill="white"/>
<path d="M131.848 157.057L142.081 143.021" stroke="white" stroke-width="0.242649"/>
<path fill-rule="evenodd" clip-rule="evenodd" d="M146.539 157.096L136.344 142.975L146.539 157.096Z" fill="white"/>
<path d="M146.539 157.096L136.344 142.975" stroke="white" stroke-width="0.242649"/>
<path fill-rule="evenodd" clip-rule="evenodd" d="M134.555 148.43L151.1 143.097L134.555 148.43Z" fill="white"/>
<path d="M134.555 148.43L151.1 143.097" stroke="white" stroke-width="0.242649"/>
<path fill-rule="evenodd" clip-rule="evenodd" d="M127.246 143.075L143.797 148.478L127.246 143.075Z" fill="white"/>
<path d="M127.246 143.075L143.797 148.478" stroke="white" stroke-width="0.242649"/>
<path fill-rule="evenodd" clip-rule="evenodd" d="M139.188 151.815V134.308V151.815Z" fill="white"/>
<path d="M139.188 151.815V134.308" stroke="white" stroke-width="0.242649"/>
<path d="M169.063 134.266L171.944 143.044L181.129 143.033L173.671 148.485L176.52 157.218L169.063 151.81L161.605 157.218L164.433 148.423L156.996 143.033L166.234 143.005L169.063 134.266Z" fill="white" stroke="white" stroke-width="0.242649"/>
<path fill-rule="evenodd" clip-rule="evenodd" d="M161.723 157.057L171.956 143.021L161.723 157.057Z" fill="white"/>
<path d="M161.723 157.057L171.956 143.021" stroke="white" stroke-width="0.242649"/>
<path fill-rule="evenodd" clip-rule="evenodd" d="M176.414 157.096L166.219 142.975L176.414 157.096Z" fill="white"/>
<path d="M176.414 157.096L166.219 142.975" stroke="white" stroke-width="0.242649"/>
<path fill-rule="evenodd" clip-rule="evenodd" d="M164.43 148.43L180.975 143.097L164.43 148.43Z" fill="white"/>
<path d="M164.43 148.43L180.975 143.097" stroke="white" stroke-width="0.242649"/>
<path fill-rule="evenodd" clip-rule="evenodd" d="M157.121 143.075L173.672 148.478L157.121 143.075Z" fill="white"/>
<path d="M157.121 143.075L173.672 148.478" stroke="white" stroke-width="0.242649"/>
<path fill-rule="evenodd" clip-rule="evenodd" d="M169.062 151.815V134.308V151.815Z" fill="white"/>
<path d="M169.062 151.815V134.308" stroke="white" stroke-width="0.242649"/>
<path d="M178.231 105.824L181.112 114.601L190.297 114.591L182.839 120.043L185.688 128.775L178.231 123.368L170.773 128.775L173.601 119.981L166.164 114.591L175.402 114.563L178.231 105.824Z" fill="white" stroke="white" stroke-width="0.242649"/>
<path fill-rule="evenodd" clip-rule="evenodd" d="M170.891 128.615L181.124 114.578L170.891 128.615Z" fill="white"/>
<path d="M170.891 128.615L181.124 114.578" stroke="white" stroke-width="0.242649"/>
<path fill-rule="evenodd" clip-rule="evenodd" d="M185.582 128.653L175.387 114.533L185.582 128.653Z" fill="white"/>
<path d="M185.582 128.653L175.387 114.533" stroke="white" stroke-width="0.242649"/>
<path fill-rule="evenodd" clip-rule="evenodd" d="M173.598 119.988L190.143 114.655L173.598 119.988Z" fill="white"/>
<path d="M173.598 119.988L190.143 114.655" stroke="white" stroke-width="0.242649"/>
<path fill-rule="evenodd" clip-rule="evenodd" d="M166.289 114.632L182.84 120.035L166.289 114.632Z" fill="white"/>
<path d="M166.289 114.632L182.84 120.035" stroke="white" stroke-width="0.242649"/>
<path fill-rule="evenodd" clip-rule="evenodd" d="M178.23 123.372V105.866V123.372Z" fill="white"/>
<path d="M178.23 123.372V105.866" stroke="white" stroke-width="0.242649"/>
<path d="M130.016 105.824L132.897 114.601L142.082 114.591L134.625 120.043L137.473 128.775L130.016 123.368L122.558 128.775L125.386 119.981L117.949 114.591L127.187 114.563L130.016 105.824Z" fill="white" stroke="white" stroke-width="0.242649"/>
<path fill-rule="evenodd" clip-rule="evenodd" d="M122.676 128.615L132.91 114.578L122.676 128.615Z" fill="white"/>
<path d="M122.676 128.615L132.91 114.578" stroke="white" stroke-width="0.242649"/>
<path fill-rule="evenodd" clip-rule="evenodd" d="M137.367 128.653L127.172 114.533L137.367 128.653Z" fill="white"/>
<path d="M137.367 128.653L127.172 114.533" stroke="white" stroke-width="0.242649"/>
<path fill-rule="evenodd" clip-rule="evenodd" d="M125.383 119.988L141.929 114.655L125.383 119.988Z" fill="white"/>
<path d="M125.383 119.988L141.929 114.655" stroke="white" stroke-width="0.242649"/>
<path fill-rule="evenodd" clip-rule="evenodd" d="M118.074 114.632L134.625 120.035L118.074 114.632Z" fill="white"/>
<path d="M118.074 114.632L134.625 120.035" stroke="white" stroke-width="0.242649"/>
<path fill-rule="evenodd" clip-rule="evenodd" d="M130.016 123.372V105.866V123.372Z" fill="white"/>
<path d="M130.016 123.372V105.866" stroke="white" stroke-width="0.242649"/>
<path d="M154.121 88.3315L157.002 97.109L166.188 97.0983L158.73 102.551L161.579 111.283L154.121 105.876L146.664 111.283L149.492 102.489L142.055 97.0983L151.293 97.0705L154.121 88.3315Z" fill="white" stroke="white" stroke-width="0.242649"/>
<path fill-rule="evenodd" clip-rule="evenodd" d="M146.781 111.122L157.015 97.0859L146.781 111.122Z" fill="white"/>
<path d="M146.781 111.122L157.015 97.0859" stroke="white" stroke-width="0.242649"/>
<path fill-rule="evenodd" clip-rule="evenodd" d="M161.473 111.161L151.277 97.0405L161.473 111.161Z" fill="white"/>
<path d="M161.473 111.161L151.277 97.0405" stroke="white" stroke-width="0.242649"/>
<path fill-rule="evenodd" clip-rule="evenodd" d="M149.488 102.496L166.034 97.1626L149.488 102.496Z" fill="white"/>
<path d="M149.488 102.496L166.034 97.1626" stroke="white" stroke-width="0.242649"/>
<path fill-rule="evenodd" clip-rule="evenodd" d="M142.18 97.1401L158.731 102.543L142.18 97.1401Z" fill="white"/>
<path d="M142.18 97.1401L158.731 102.543" stroke="white" stroke-width="0.242649"/>
<path fill-rule="evenodd" clip-rule="evenodd" d="M154.121 105.88V88.3735V105.88Z" fill="white"/>
<path d="M154.121 105.88V88.3735" stroke="white" stroke-width="0.242649"/>
<path d="M71.189 190.84C68.9025 192.478 69.6632 193.798 69.5605 195.918C68.1126 194.07 66.5058 192.687 66.7565 189.167C68.7745 189.987 70.4257 188.578 71.189 190.84Z" fill="black" stroke="black" stroke-width="0.242649"/>
<path d="M79.9862 194.506C82.7492 195.035 82.6123 196.552 83.5946 198.433C84.1341 196.148 85.0123 194.219 83.3083 191.128C81.8203 192.719 79.7306 192.133 79.9862 194.506Z" fill="black" stroke="black" stroke-width="0.242649"/>
<path d="M86.8866 187.837C89.6233 188.488 89.419 189.998 90.3164 191.921C90.9572 189.663 91.9206 187.774 90.3559 184.61C88.7985 186.133 86.737 185.455 86.8866 187.837Z" fill="black" stroke="black" stroke-width="0.242649"/>
<path d="M84.0936 190.852C86.8303 191.503 86.626 193.013 87.5234 194.936C88.1642 192.678 89.1276 190.789 87.563 187.625C86.0056 189.149 83.9441 188.47 84.0936 190.852Z" fill="black" stroke="black" stroke-width="0.242649"/>
<path d="M70.1265 128.979L55.287 132.679V154.321L59.3438 167.022C61.3563 174.075 57.227 176.475 53.1562 182.604C55.9191 182.106 59.0519 181.335 60.5798 178.919C61.1172 183.215 60.2596 187.031 56.8566 190.013C59.8121 189.879 62.8506 190.658 65.3949 186.002L66.8053 190.415C68.0351 190.043 69.2408 189.61 71.4838 191.772C73.8038 193.425 75.8675 195.431 79.6808 195.093C81.1707 193.297 82.2958 190.949 84.7537 190.604C85.7183 189.358 86.1513 187.585 88.0598 187.283L90.9868 186.714C91.7917 181.638 88.0309 179.12 84.7537 179.875C84.7537 179.875 75.454 183.373 72.0753 174.218C69.7095 167.808 76.193 161.588 77.952 154.45C81.737 150.715 83.8095 151.919 87.0437 153.911C83.8779 149.036 80.6426 147.7 78.3083 149.816C77.9386 146.442 76.0651 142.841 71.4838 138.912C68.9431 136.734 70.1265 128.979 70.1265 128.979Z" fill="#D6B61E" stroke="black" stroke-width="0.242649"/>
<path d="M63.8789 142.232C67.1087 142.145 72.6527 145.982 69.7306 153.351C67.3306 159.403 67.9076 163.714 68.7553 166.614" fill="#D6B61E"/>
<path d="M63.8789 142.232C67.1087 142.145 72.6527 145.982 69.7306 153.351C67.3306 159.403 67.9076 163.714 68.7553 166.614" stroke="black" stroke-width="0.242649"/>
<path d="M39.457 209.385C41.2612 211.544 40.1948 212.632 39.7642 214.71C41.6282 213.283 43.5297 212.345 44.1671 208.873C42.0081 209.163 40.7614 207.387 39.457 209.385Z" fill="black" stroke="black" stroke-width="0.242649"/>
<path d="M34.6445 210.614C36.4487 212.773 35.843 213.758 36.334 215.785C38.1979 214.358 39.4851 212.755 40.1225 209.283C37.9635 209.573 35.9489 208.615 34.6445 210.614Z" fill="black" stroke="black" stroke-width="0.242649"/>
<path d="M28.3203 211.869C30.1245 214.027 30.4404 216.036 30.9314 218.063C32.7953 216.636 33.8777 213.906 34.5151 210.435C32.3561 210.725 29.6247 209.87 28.3203 211.869Z" fill="black" stroke="black" stroke-width="0.242649"/>
<path d="M59.5859 145.548C61.6954 145.272 64.3212 146.157 64.4624 141.452C66.3624 139.112 68.3987 136.771 72.8498 134.43C68.6886 132.982 65.1126 136.439 60.9513 137.941" fill="#D6B61E"/>
<path d="M59.5859 145.548C61.6954 145.272 64.3212 146.157 64.4624 141.452C66.3624 139.112 68.3987 136.771 72.8498 134.43C68.6886 132.982 65.1126 136.439 60.9513 137.941" stroke="black" stroke-width="0.242649"/>
<path d="M78.0033 62.3188L65.2188 67.4296L45.4732 75.9375C53.6674 95.1938 53.9715 109.73 45.6021 123.307C43.2813 127.072 37.4596 131.67 35.9265 137.889C33.2384 142.397 31.0274 143.714 25.2954 143.675C19.0737 143.632 11.7343 140.312 14.0426 132.369C14.7916 129.698 24.1507 126.441 25.8186 132.126C26.3406 135.041 22.2118 136.433 20.1164 134.006C19.9408 138.188 28.2333 137.443 28.7759 133.764C29.0913 131.625 28.7219 129.888 26.3797 128.281C28.0291 128.918 30.301 128.281 31.4223 127.584C28.6638 127.899 25.3465 126.999 25.5911 126.439C31.6802 126.333 32.9537 119.969 27.5247 118.576C30.749 121.904 27.0945 124.869 23.3997 124.316C20.8666 123.936 18.8267 123.532 17.4321 126.09C18.7823 122.436 20.5608 121.587 23.2101 117.499C27.441 110.97 28.6303 102.327 27.2669 94.9324C26.3565 89.9946 22.973 86.1579 21.6253 81.7156C21.2355 79.445 22.5484 77.2062 24.431 77.0522C26.3446 76.8934 27.2667 78.6901 25.121 80.0474C26.8505 80.2519 28.4116 79.5389 28.4802 77.4313C28.1836 74.6878 23.0716 72.7067 20.3438 74.3527C18.5296 75.3834 17.3607 76.879 16.9316 78.8796V78.8948H16.9164C15.6299 77.9551 13.9074 77.7501 11.7298 78.2351C9.55259 78.7201 7.73192 78.3329 6.24745 77.0901C4.75018 75.5439 4.24313 72.8147 6.11096 71.5926C8.15258 71.057 10.0493 71.1495 11.2218 73.1395C11.6603 72.1165 11.3997 71.3347 10.4786 70.6523C8.19066 68.9918 4.87646 69.2099 2.99444 71.4182C1.96002 72.6319 1.91475 74.67 2.06176 76.3546C2.39162 78.3856 3.37985 80.2 4.99629 81.8369C5.95261 82.716 7.14471 83.1487 8.52987 83.0881C9.12398 83.0578 9.70556 83.0274 10.2663 82.9971C9.77152 83.2396 9.32268 83.4143 8.89384 83.6265C6.22177 84.9602 4.04692 86.8403 3.48732 89.4576C2.3369 94.8388 5.74647 97.3872 9.62179 100.483C11.0713 101.641 9.92986 102.742 7.5896 103.266C11.7444 104.391 13.8434 100.313 10.145 98.2764C10.5737 98.5189 10.965 98.6936 11.3279 98.8451C13.0105 99.4817 14.3976 99.2919 15.453 98.2006C16.7724 96.8668 16.6795 95.4168 15.1951 93.8708C15.9723 98.9258 8.13552 97.099 7.93841 93.1732C7.91503 89.2318 10.4669 87.3065 14.308 87.1221C23.6166 86.7987 24.4679 100.028 22.1485 108.399C21.1088 104.634 17.3482 103.031 14.1335 105.404C13.1425 106.32 13.1786 107.981 15.1193 108.157C13.6841 105.52 20.1124 104.896 20.2377 110.068C20.0915 114.57 17.5529 118.557 14.4293 121.669C13.1758 122.851 12.2152 124.643 11.5554 126.977C11.0165 122.143 0.263376 123.25 5.80007 115.459C-0.560517 117.706 2.72187 122.826 6.68725 126.318C6.65441 126.318 6.57658 126.302 6.54318 126.333H6.51285C4.43466 126.515 3.57679 127.365 3.97262 128.82C4.96222 128.274 5.72917 128.1 6.32328 128.19C7.08199 128.342 7.5107 128.942 7.64268 130.003C7.67553 136.126 9.0204 141.644 12.8976 144.683C19.2941 149.696 29.7404 149.647 36.4497 145.676C35.9274 149.375 36.035 153.06 37.0715 156.58C37.9765 159.655 37.3383 164.486 35.9947 169.767C32.5409 173.168 28.5344 175.106 23.7182 174.931C25.5673 177.105 27.3778 178.492 29.1626 178.919C25.3058 180.692 23.668 184.335 20.0784 184.151C22.3397 185.435 21.8854 186.476 27.8053 187.177C22.5354 188.578 22.0471 192.996 15.1041 194.191C23.11 198.263 25.4832 196.69 26.2053 193.478C26.6102 193.987 26.8262 194.36 26.7437 194.904V194.942C26.0359 196.52 25.5608 197.512 25.5608 197.512C21.5297 200.318 20.0816 203.048 23.8395 205.618C25.1506 207.785 24.8578 212.017 27.7826 212.109C30.5316 210.89 32.0477 210.258 34.7966 211.381C36.3128 209.884 38.5354 209.477 40.0515 209.865C41.6454 208.837 42.9408 209.577 44.313 209.88C45.2066 203.761 41.5767 202.824 38.7776 200.925C30.7044 196.904 38.4366 187.554 43.2514 184.485C46.6254 182.335 58.8707 177.449 62.5951 167.378C66.598 166.172 67.9679 168.026 69.9808 170.859C68.9652 165.118 66.4994 162.624 63.5126 163.686C63.8414 161.259 63.6904 158.58 62.8757 155.625C61.616 151.056 57.6894 139.173 65.2567 135.432C82.4051 126.955 87.706 117.825 88.2704 97.2148C88.6793 82.282 81.6757 73.7742 78.0033 62.3188ZM8.52987 127.045C9.06464 127.396 9.50961 127.87 9.81894 128.524C9.43692 127.946 9.02974 127.435 8.52987 127.045Z" fill="#D6B720" stroke="black" stroke-width="0.242649"/>
<path d="M55.294 158.422C57.2212 166.441 52.636 173.157 44.1758 179.098L55.294 158.422Z" fill="#D6B61E"/>
<path d="M55.294 158.422C57.2212 166.441 52.636 173.157 44.1758 179.098" stroke="black" stroke-width="0.242649"/>
<path d="M42.6172 140.282C47.3034 149.062 40.2564 156.901 46.1282 157.837C49.7246 158.41 51.5476 154.315 51.0046 151.205" fill="#D6B61E"/>
<path d="M42.6172 140.282C47.3034 149.062 40.2564 156.901 46.1282 157.837C49.7246 158.41 51.5476 154.315 51.0046 151.205" stroke="black" stroke-width="0.242649"/>
<path d="M34.8694 211.379C34.5741 203.184 28.8241 206.925 27.6914 200.81L34.8694 211.379Z" fill="#D6B61E"/>
<path d="M34.8694 211.379C34.5741 203.184 28.8241 206.925 27.6914 200.81" stroke="black" stroke-width="0.242649"/>
<path d="M40.0821 209.882C38.9211 203.78 35.1549 204.743 33.9141 201.261L40.0821 209.882Z" fill="#D6B61E"/>
<path d="M40.0821 209.882C38.9211 203.78 35.1549 204.743 33.9141 201.261" stroke="black" stroke-width="0.242649"/>
<path d="M84.8155 190.778C82.2327 185.724 78.2904 187.947 75.1719 185.884L84.8155 190.778Z" fill="#D6B61E"/>
<path d="M84.8155 190.778C82.2327 185.724 78.2904 187.947 75.1719 185.884" stroke="black" stroke-width="0.242649"/>
<path d="M87.9825 187.467C85.9857 183.032 83.2839 184.943 80.9297 183.725L87.9825 187.467Z" fill="#D6B61E"/>
<path d="M87.9825 187.467C85.9857 183.032 83.2839 184.943 80.9297 183.725" stroke="black" stroke-width="0.242649"/>
<path d="M98.3504 128.317C96.6893 126.341 97.2167 124.495 97.4096 122.629L93.4754 122.458C93.1595 124.937 96.2752 127.065 98.3504 128.317Z" fill="black" stroke="black" stroke-width="0.242649"/>
<path d="M102.629 126.05C105.378 126.753 106.313 128.097 107.162 129.471C107.678 126.429 106.956 124.262 105.537 122.586L102.629 126.05Z" fill="black" stroke="black" stroke-width="0.242649"/>
<path d="M108.102 117.647C110.851 118.35 111.786 119.694 112.635 121.068C113.151 118.026 112.428 115.859 111.009 114.183L108.102 117.647Z" fill="black" stroke="black" stroke-width="0.242649"/>
<path d="M105.75 121.496C108.499 122.199 109.434 123.543 110.283 124.917C110.799 121.875 110.077 119.708 108.658 118.032L105.75 121.496Z" fill="black" stroke="black" stroke-width="0.242649"/>
<path d="M59.6172 97.526C59.6022 109.734 63.4161 104.537 65.6708 116.643C67.6422 115.091 67.8431 111.408 67.3929 105.719C68.6637 113.865 73.0902 111.695 76.4732 117.948C77.6479 116.997 76.8675 114.493 76.1775 112.051C79.3997 118.432 84.172 113.903 88.128 124.28C89.2084 122.595 89.1442 120.226 88.8586 117.722L93.1552 123.41C94.7919 123.133 96.3814 123.186 97.9041 123.706L102.375 126.437C103.469 123.963 105.08 123.75 106.55 122.401C107.524 121.106 107.638 119.817 109.994 118.522C109.542 116.629 111.193 116.003 112.586 115.217C110.575 111.007 107.998 110.018 105.68 109.598C99.9352 108.405 99.9102 110.062 97.0517 110.311C93.6828 106.995 90.4148 103.257 86.6842 101.388C79.5325 86.0382 74.5997 84.6345 68.541 83.6968" fill="#D6B720"/>
<path d="M59.6172 97.526C59.6022 109.734 63.4161 104.537 65.6708 116.643C67.6422 115.091 67.8431 111.408 67.3929 105.719C68.6637 113.865 73.0902 111.695 76.4732 117.948C77.6479 116.997 76.8675 114.493 76.1775 112.051C79.3997 118.432 84.172 113.903 88.128 124.28C89.2084 122.595 89.1442 120.226 88.8586 117.722L93.1552 123.41C94.7919 123.133 96.3814 123.186 97.9041 123.706L102.375 126.437C103.469 123.963 105.08 123.749 106.55 122.401C107.524 121.106 107.638 119.817 109.994 118.522C109.542 116.629 111.193 116.003 112.586 115.217C110.575 111.007 107.998 110.018 105.68 109.598C99.9352 108.405 99.9102 110.062 97.0517 110.311C93.6827 106.995 90.4148 103.257 86.6842 101.388C79.5325 86.0382 74.5997 84.6345 68.541 83.6968" stroke="black" stroke-width="0.242649"/>
<path d="M96.9844 116.642C100.554 120.451 104.387 117.789 106.606 122.33L96.9844 116.642Z" fill="#D6B720"/>
<path d="M96.9844 116.642C100.554 120.451 104.387 117.789 106.606 122.33" stroke="black" stroke-width="0.242649"/>
<path d="M110.153 118.524C109.164 113.559 106.164 115.822 100.531 113.905L110.153 118.524Z" fill="#D6B720"/>
<path d="M110.153 118.524C109.164 113.559 106.164 115.822 100.531 113.905" stroke="black" stroke-width="0.242649"/>
<path d="M80.1602 100.054C83.5715 108.044 87.1309 104.7 93.3891 113.542L80.1602 100.054Z" fill="#D6B720"/>
<path d="M80.1602 100.054C83.5715 108.044 87.1309 104.7 93.3891 113.542" stroke="black" stroke-width="0.242649"/>
<path d="M34.0657 46.5557C33.4024 44.0362 34.6694 42.723 35.8792 41.3741C35.8859 37.8849 37.6519 36.5948 40.5427 36.7107C40.4189 33.7512 41.9614 32.1009 45.2062 31.7881C46.3687 31.0906 46.8695 29.0694 49.3515 31.0109C51.8866 28.4372 54.3113 28.2919 56.6058 31.0109C57.6823 29.7882 59.0218 29.1354 61.5283 31.0109C63.6399 29.3375 66.33 28.1783 70.5961 28.4201C70.3423 32.9199 69.8958 37.0827 67.7462 38.2652C70.7232 38.8814 73.4525 39.9516 75.0005 43.1877C77.5862 46.6898 79.8786 46.7751 81.7366 46.0376C80.0998 51.7897 77.866 49.7813 75.7777 49.6647C78.0944 54.2457 79.9513 55.1438 84.5865 54.5873C84.2622 59.342 82.1306 59.4496 80.1821 60.028C83.4409 62.2349 82.4271 66.0111 87.4364 66.2459C86.8294 69.6424 81.5303 69.9232 77.3322 68.8921C78.598 71.3781 79.8445 72.2399 79.4835 74.7259C79.5674 77.7186 82.6421 77.8878 84.2372 78.6702C78.2065 83.6395 73.598 80.2892 71.3733 76.091C70.868 78.4788 72.8044 81.4488 72.9859 84.1368C73.4272 87.9751 71.4604 89.6461 69.5598 91.3768C70.0996 85.3405 65.8839 84.9266 63.86 79.9772C67.309 89.4152 61.8979 90.3997 59.4324 93.2806C61.714 88.0126 56.8873 85.9929 56.5825 78.1082C54.9041 81.416 55.9573 87.9375 50.6469 86.9724C52.0755 83.6974 48.7174 81.7461 49.5873 76.0678C47.9336 81.8589 45.6157 83.6692 42.0972 81.7908C46.0061 80.2188 42.6541 74.0987 44.7318 69.5907C41.9384 73.3295 40.0428 74.8956 36.0481 71.7536C40.8592 70.9927 39.4052 66.0789 39.2124 61.7951C38.239 63.8136 38.7495 67.0335 33.0294 65.2096C36.3847 64.3578 31.8784 58.7215 35.8792 53.0328C32.1761 52.8443 29.4838 51.3079 27.2188 49.202C29.6063 47.0577 31.918 45.8219 34.0657 46.5557Z" fill="#D6B61E" stroke="black" stroke-width="0.242649"/>
<path d="M27.6523 49.1587C30.6488 49.4464 33.8504 50.2472 36.4047 49.4294L27.6523 49.1587Z" fill="#D6B61E"/>
<path d="M27.6523 49.1587C30.6488 49.4464 33.8504 50.2472 36.4047 49.4294" stroke="black" stroke-width="0.242649"/>
<path d="M70.4197 28.3149C67.7528 29.903 66.028 32.0563 64.5547 34.3604L70.4197 28.3149Z" fill="#D6B61E"/>
<path d="M70.4197 28.3149C67.7528 29.903 66.028 32.0563 64.5547 34.3604" stroke="black" stroke-width="0.242649"/>
<path d="M65.0391 41.458C66.3594 43.3093 67.8713 45.4708 68.3775 47.323C68.1721 50.5914 68.2396 53.2832 68.0167 56.2558" fill="#D6B61E"/>
<path d="M65.0391 41.458C66.3594 43.3093 67.8713 45.4708 68.3775 47.323C68.1721 50.5914 68.2396 53.2832 68.0167 56.2558" stroke="black" stroke-width="0.242649"/>
<path d="M40.9141 54.1211C41.564 57.1757 42.5834 58.7525 43.7112 59.8958C45.3733 60.8952 46.4446 61.9868 49.9371 64.5878" fill="#D6B61E"/>
<path d="M40.9141 54.1211C41.564 57.1757 42.5834 58.7525 43.7112 59.8958C45.3733 60.8952 46.4446 61.9868 49.9371 64.5878" stroke="black" stroke-width="0.242649"/>
<path d="M47.7467 43.3667C42.7749 44.8897 41.0649 48.2092 39.2852 49.4148C42.6874 49.1223 47.3724 50.0453 49.3984 46.5416C45.9529 47.1235 46.9528 45.8466 47.7467 43.3667Z" fill="#E3E4E5" stroke="black" stroke-width="0.242649"/>
<path d="M46.047 46.6816C46.1526 46.9203 46.2283 47.1694 46.2697 47.4147C46.3112 47.6601 46.3176 47.8968 46.2886 48.1114C46.2596 48.3261 46.1958 48.5144 46.1008 48.6655C46.0058 48.8167 45.8815 48.9277 45.735 48.9923C45.5885 49.057 45.4227 49.0739 45.247 49.0421C45.0713 49.0104 44.8893 48.9305 44.7112 48.8072C44.5332 48.6839 44.3626 48.5196 44.2093 48.3236C44.0561 48.1275 43.9231 47.9037 43.8181 47.6648C43.7125 47.4262 43.6368 47.1771 43.5954 46.9317C43.5539 46.6864 43.5476 46.4496 43.5766 46.235C43.6055 46.0203 43.6693 45.8321 43.7643 45.6809C43.8593 45.5298 43.9836 45.4187 44.1302 45.3541C44.2767 45.2895 44.4424 45.2726 44.6181 45.3043C44.7938 45.3361 44.9759 45.4159 45.154 45.5392C45.332 45.6625 45.5025 45.8268 45.6558 46.0229C45.809 46.2189 45.942 46.4427 46.047 46.6816Z" fill="black" stroke="black" stroke-width="0.242649"/>
<path d="M53.3516 40.576C57.5529 38.9545 58.4231 36.6499 61.3343 36.8657C59.8717 40.2539 58.96 44.0986 54.9133 44.1695C57.0943 41.4394 55.9051 41.0855 53.3516 40.576Z" fill="#E3E4E5" stroke="black" stroke-width="0.242649"/>
<path d="M56.7778 40.9448C56.877 41.1862 57.0043 41.4133 57.1527 41.6131C57.301 41.8128 57.4674 41.9814 57.6423 42.1091C57.8173 42.2367 57.9973 42.321 58.1722 42.3571C58.347 42.3932 58.5131 42.3805 58.6612 42.3195C58.8093 42.2585 58.9363 42.1506 59.035 42.0018C59.1337 41.8531 59.2022 41.6664 59.2365 41.4526C59.2708 41.2388 59.2703 41.0019 59.2349 40.7556C59.1996 40.5093 59.1301 40.2584 59.0305 40.0172C58.9314 39.7758 58.804 39.5487 58.6557 39.3489C58.5073 39.1492 58.3409 38.9806 58.166 38.853C57.991 38.7253 57.811 38.641 57.6362 38.6049C57.4613 38.5688 57.2951 38.5816 57.1471 38.6426C56.999 38.7035 56.872 38.8115 56.7733 38.9602C56.6746 39.109 56.6061 39.2956 56.5718 39.5094C56.5375 39.7233 56.538 39.9601 56.5734 40.2064C56.6087 40.4527 56.6782 40.7036 56.7778 40.9448Z" fill="black" stroke="black" stroke-width="0.242649"/>
<path fill-rule="evenodd" clip-rule="evenodd" d="M61.9909 54.5874C62.1703 52.6881 60.5765 57.2589 57.9492 58.3118C55.7128 59.208 55.4174 59.0853 51.957 59.0479C54.7306 60.4479 56.8765 68.2665 59.6575 68.748C61.5162 69.0698 62.5184 67.7974 63.8605 66.746C65.6014 65.3822 61.6311 58.5601 61.9909 54.5874Z" fill="#CE1126" stroke="black" stroke-width="0.242677"/>
<path fill-rule="evenodd" clip-rule="evenodd" d="M57.1293 72.4616C58.5833 73.3084 60.6522 71.5081 60.6164 70.8488C58.7509 69.729 56.6167 65.7323 56.4517 65.6669C55.2954 65.2087 56.7341 70.1418 57.1293 72.4616Z" fill="#E3E4E5" stroke="black" stroke-width="0.242677" stroke-linecap="round" stroke-linejoin="round"/>
<path fill-rule="evenodd" clip-rule="evenodd" d="M49.2656 58.5298C50.6421 60.2018 53.3338 64.8666 54.5748 65.0666C55.5603 65.2255 53.4035 60.9519 53.8972 59.1357" fill="#E3E4E5"/>
<path d="M49.2656 58.5298C50.6421 60.2018 53.3338 64.8666 54.5748 65.0666C55.5603 65.2255 53.4035 60.9519 53.8972 59.1357" stroke="black" stroke-width="0.242677" stroke-linecap="round" stroke-linejoin="round"/>
<path fill-rule="evenodd" clip-rule="evenodd" d="M63.9559 68.7429C64.2525 66.8276 63.1568 62.8702 63.297 62.5957C63.6817 61.8429 66.4302 66.6553 67.7186 68.2729" fill="#E3E4E5"/>
<path d="M63.9559 68.7429C64.2525 66.8276 63.1568 62.8702 63.297 62.5957C63.6817 61.8429 66.4302 66.6553 67.7186 68.2729" stroke="black" stroke-width="0.242677" stroke-linecap="round" stroke-linejoin="round"/>
<path fill-rule="evenodd" clip-rule="evenodd" d="M60.5162 56.1432C62.1238 57.0806 63.1682 62.26 63.7769 61.3063C64.4579 60.2387 63.3659 53.8991 63.2493 51.5723" fill="#E3E4E5"/>
<path d="M60.5162 56.1432C62.1238 57.0806 63.1682 62.26 63.7769 61.3063C64.4579 60.2387 63.3659 53.8991 63.2493 51.5723" stroke="black" stroke-width="0.242677" stroke-linecap="round" stroke-linejoin="round"/>
<path d="M46.9456 59.0961C47.885 57.182 53.6712 60.4526 57.8115 58.3973C61.8735 56.3809 63.3529 49.7123 64.7096 50.1064C66.8343 52.0781 65.5595 56.8171 65.9685 60.1855C68.1234 63.8524 71.536 68.1213 66.8209 68.4997C63.4981 68.405 61.2282 69.2859 60.3641 71.4695C58.6546 73.4696 57.3167 72.6163 55.9613 71.8965C55.0801 70.4056 54.2967 67.1559 52.5884 65.1965C50.2212 62.4812 46.9457 61.0115 46.9456 59.0961Z" stroke="black" stroke-width="0.242677"/>
<path fill-rule="evenodd" clip-rule="evenodd" d="M51.0831 52.6018C51.1594 51.5354 53.2404 52.7544 54.7059 51.6993C56.1717 50.6441 56.1766 49.1115 56.913 49.4555C57.6547 49.8021 57.2672 54.0599 56.3074 54.8125C55.3122 55.5927 51.0051 53.6873 51.0831 52.6018Z" fill="black" stroke="black" stroke-width="0.242649" stroke-linecap="round" stroke-linejoin="round"/>
<path d="M58.6406 60.3154L62.3612 67.9396" stroke="black" stroke-width="0.242649"/>
<path d="M237.03 190.32C239.316 191.959 238.556 193.279 238.658 195.398C240.106 193.551 241.713 192.167 241.462 188.647C239.444 189.467 237.793 188.059 237.03 190.32Z" fill="black" stroke="black" stroke-width="0.242649"/>
<path d="M228.236 193.986C225.474 194.514 225.61 196.032 224.628 197.913C224.089 195.628 223.211 193.699 224.915 190.608C226.402 192.199 228.492 191.613 228.236 193.986Z" fill="black" stroke="black" stroke-width="0.242649"/>
<path d="M221.332 187.317C218.596 187.968 218.8 189.478 217.903 191.401C217.262 189.143 216.298 187.254 217.863 184.091C219.42 185.614 221.482 184.935 221.332 187.317Z" fill="black" stroke="black" stroke-width="0.242649"/>
<path d="M224.128 190.332C221.392 190.983 221.596 192.493 220.699 194.416C220.058 192.158 219.24 189.4 220.804 186.237C222.362 187.76 224.278 187.95 224.128 190.332Z" fill="black" stroke="black" stroke-width="0.242649"/>
<path d="M237.588 127.073L252.93 132.165V153.803L251.65 168.266C250.331 175.445 251.353 177.886 248.568 180.128C248.453 178.432 247.153 178.105 246.507 176.949C246.789 182.253 244.684 181.031 244.809 185.084C241.917 183.564 243.162 182.949 241.059 180.688C239.735 186.021 243.171 188.315 241.415 189.896C240.185 189.525 238.979 189.092 236.736 191.253C234.416 192.906 232.356 194.913 228.543 194.575C227.053 192.779 225.922 190.432 223.464 190.088C222.499 188.842 222.067 187.067 220.159 186.765L217.237 186.191C216.432 181.116 220.187 178.601 223.464 179.355C223.464 179.355 232.766 182.856 236.144 173.702C240.062 163.089 219.711 152.99 236.736 138.392C239.276 136.213 237.588 127.073 237.588 127.073Z" fill="#D6B720" stroke="black" stroke-width="0.242649"/>
<path d="M234.932 140.065C234 141 233.215 141.918 232.566 142.817C235.372 143.278 237.972 143.283 241.378 145.092C242.965 145.906 243.44 144.307 242.386 143.834C239.144 140.9 237.059 140.519 234.932 140.065Z" fill="black" stroke="black" stroke-width="0.242649"/>
<path d="M230.988 145.487C230.445 146.666 230.115 147.812 229.957 148.937C232.414 148.646 234.695 148.081 238.162 149.377C239.878 149.972 241.35 151.82 243.143 152.842C244.692 153.875 245.229 151.737 244.091 150.704C242.686 148.747 240.937 147.382 238.859 146.601C235.89 145.768 233.507 145.72 230.988 145.487Z" fill="black" stroke="black" stroke-width="0.242649"/>
<path d="M229.973 152.41C230.179 153.877 230.613 155.307 231.171 156.702C234.353 157.078 237.626 157.097 240.369 159.083C241.699 159.943 244.443 158.854 241.317 156.876C240.519 156.228 233.98 153.185 229.973 152.41Z" fill="black" stroke="black" stroke-width="0.242649"/>
<path d="M232.906 160.417C233.668 161.918 234.443 163.391 235.098 164.846C237.35 165.094 239.223 164.707 242.574 166.84C244.282 168.169 244.222 166.061 242.574 164.884C239.579 162.767 236.192 162.534 232.906 160.417Z" fill="black" stroke="black" stroke-width="0.242649"/>
<path d="M236.457 168.827C236.694 170.029 236.731 171.233 236.495 172.436C238.062 172.873 239.63 173.333 241.196 175.295C243.18 176.826 242.771 174.187 241.575 172.648C240.08 170.641 238.252 169.786 236.457 168.827Z" fill="black" stroke="black" stroke-width="0.242649"/>
<path d="M268.761 208.864C266.956 211.023 268.023 212.11 268.453 214.189C266.59 212.761 264.688 211.824 264.051 208.352C266.21 208.642 267.456 206.866 268.761 208.864Z" fill="black" stroke="black" stroke-width="0.242649"/>
<path d="M273.571 210.093C271.767 212.251 272.373 213.236 271.882 215.263C270.018 213.836 268.731 212.233 268.094 208.762C270.253 209.051 272.267 208.094 273.571 210.093Z" fill="black" stroke="black" stroke-width="0.242649"/>
<path d="M279.894 211.347C278.09 213.506 277.774 215.515 277.283 217.542C275.419 216.115 274.337 213.385 273.699 209.914C275.858 210.204 278.589 209.349 279.894 211.347Z" fill="black" stroke="black" stroke-width="0.242649"/>
<path d="M248.634 145.031C246.525 144.755 243.899 145.64 243.758 140.935C241.858 138.595 239.822 136.254 235.371 133.914C239.532 132.465 243.108 135.922 247.269 137.424" fill="#D6B720"/>
<path d="M248.634 145.031C246.525 144.755 243.899 145.64 243.758 140.935C241.858 138.595 239.822 136.254 235.371 133.914C239.532 132.465 243.108 135.922 247.269 137.424" stroke="black" stroke-width="0.242649"/>
<path d="M230.217 61.812C226.545 73.2668 219.542 81.7714 219.951 96.7034C220.515 117.312 225.808 126.443 242.956 134.92C250.523 138.661 246.603 150.542 245.343 155.111C240.299 173.409 260.485 181.106 264.972 183.966C269.786 187.034 277.512 196.385 269.44 200.405C266.641 202.304 263.004 203.24 263.897 209.358C265.27 209.055 266.567 208.314 268.161 209.341C269.677 208.954 271.897 209.362 273.413 210.859C276.162 209.736 277.69 210.373 280.439 211.592C283.364 211.5 283.068 207.262 284.379 205.095C288.136 202.525 286.687 199.801 282.656 196.995C281.937 195.532 281.055 194.421 282.008 192.953C282.982 191.375 283.147 194.72 286.425 193.106C283.768 190.525 283.973 187.43 280.405 186.66C286.325 185.959 283.037 185.862 286.937 186.848C285.742 183.25 282.915 180.179 279.058 178.406C280.843 177.979 283.149 177.341 287.141 178.696C284.279 174.081 275.673 172.65 272.219 169.249C272.008 168.416 271.83 167.598 271.657 166.793C273.04 166.777 274.15 165.496 275.221 163.996C273.662 163.321 270.885 162.279 270.736 160.296C272.457 160.614 274.176 160.791 276.039 158.829C273.583 157.754 272.447 156.139 271.554 154.412C271.85 153.008 272.006 151.589 272.049 150.149C273.936 153.355 278.639 159.83 284.975 157.976C291.591 156.041 291.917 150.383 291.797 145.374C291.627 138.295 284.688 130.485 279.058 124.33C273.17 117.893 271.829 115.603 271.213 105.98C275.303 103.707 274.817 97.1268 274.164 95.1003C272.36 89.508 269.099 90.2962 267.888 84.7148C260.987 92.2956 259.063 99.8833 266.404 107.464C266.207 118.582 272.719 126.124 277.932 131.868C283.85 138.387 288.856 150.289 283.645 151.445C278.743 152.532 275.725 142.793 272.032 136.455C270.189 130.696 264.824 126.373 262.618 122.795C256.422 112.742 257.011 102.474 257.967 89.5271C258.328 84.6401 248.34 68.6884 250.467 63.6906L243.007 66.911L230.217 61.812Z" fill="#D6B720" stroke="black" stroke-width="0.242649"/>
<path d="M228.443 70.603C223.684 71.9322 221.268 74.3223 219.212 76.853C218.305 78.1309 217.828 79.3014 221.735 79.3759C220.71 81.6612 219.24 83.2786 217.606 84.6511C215.613 87.3673 217.7 88.4514 218.524 90.041C219.456 92.3703 217.897 95.1147 217.147 97.7244C216.396 102.478 218.971 102.057 220.817 102.77C226.218 101.57 225.981 95.7568 228.386 92.1052C227.402 90.1905 225.035 91.3886 222.881 92.1052C228.573 89.7302 230.232 85.8888 232.744 82.3575C234.114 80.6756 233.232 80.8285 230.679 80.064C235.939 80.8427 237.728 76.4164 240.771 73.8714C239.781 70.0261 229.368 75.1771 228.443 70.603Z" fill="#D6B720" stroke="black" stroke-width="0.242649"/>
<path d="M273.344 210.858C273.639 202.664 279.389 206.404 280.521 200.29" stroke="black" stroke-width="0.242649"/>
<path d="M268.133 209.361C269.294 203.259 273.06 204.221 274.301 200.74" stroke="black" stroke-width="0.242649"/>
<path d="M223.402 190.258C225.985 185.204 229.927 187.427 233.045 185.364L223.402 190.258Z" fill="#D6B720"/>
<path d="M223.402 190.258C225.985 185.204 229.927 187.427 233.045 185.364" stroke="black" stroke-width="0.242649"/>
<path d="M220.238 186.947C222.235 182.513 224.937 184.423 227.291 183.205L220.238 186.947Z" fill="#D6B720"/>
<path d="M220.238 186.947C222.235 182.513 224.937 184.423 227.291 183.205" stroke="black" stroke-width="0.242649"/>
<path d="M209.869 127.8C211.53 125.825 211.002 123.978 210.809 122.112L214.743 121.941C215.059 124.42 211.944 126.548 209.869 127.8Z" fill="black" stroke="black" stroke-width="0.242649"/>
<path d="M206.535 125.027C203.786 125.73 201.91 127.58 201.061 128.954C200.545 125.913 201.267 123.746 202.686 122.07L206.535 125.027Z" fill="black" stroke="black" stroke-width="0.242649"/>
<path d="M200.117 117.131C197.368 117.834 196.433 119.178 195.584 120.552C195.068 117.51 195.791 115.343 197.209 113.667L200.117 117.131Z" fill="black" stroke="black" stroke-width="0.242649"/>
<path d="M202.469 120.979C201.272 121.285 200.419 121.713 199.767 122.212C198.922 122.858 198.415 123.624 197.936 124.4C197.42 121.359 198.142 119.191 199.561 117.516L202.469 120.979Z" fill="black" stroke="black" stroke-width="0.242649"/>
<path d="M248.602 97.011C245.379 113.884 235.882 110.998 229.143 119.054C226.724 116.673 223.623 117.385 219.362 118.781C218.252 120.224 218.105 121.88 215.065 122.894C213.429 122.616 211.839 122.669 210.317 123.189L205.847 125.92C204.752 123.447 203.142 123.233 201.672 121.885C200.698 120.589 200.584 119.301 198.228 118.006C198.68 116.113 197.029 115.487 195.636 114.701C197.647 110.491 200.223 109.502 202.542 109.083C208.286 107.89 208.311 109.546 211.169 109.796C214.538 106.48 217.806 102.742 221.536 100.873C228.687 85.5239 233.62 84.1203 239.678 83.1826" fill="#D6B720"/>
<path d="M248.602 97.011C245.379 113.884 235.882 110.998 229.143 119.054C226.724 116.673 223.623 117.385 219.362 118.781C218.252 120.224 218.105 121.88 215.065 122.894C213.429 122.616 211.839 122.669 210.317 123.189L205.847 125.92C204.752 123.447 203.142 123.233 201.672 121.885C200.698 120.589 200.584 119.301 198.228 118.006C198.68 116.113 197.029 115.487 195.636 114.701C197.647 110.491 200.223 109.502 202.542 109.083C208.286 107.89 208.311 109.546 211.169 109.796C214.538 106.48 217.806 102.742 221.536 100.873C228.687 85.5239 233.62 84.1203 239.678 83.1826" stroke="black" stroke-width="0.242649"/>
<path d="M211.238 116.126C207.669 119.935 203.836 117.273 201.617 121.813L211.238 116.126Z" fill="#D6B720"/>
<path d="M211.238 116.126C207.669 119.935 203.836 117.273 201.617 121.813" stroke="black" stroke-width="0.242649"/>
<path d="M198.066 118.007C199.055 113.043 202.055 115.306 207.688 113.389L198.066 118.007Z" fill="#D6B720"/>
<path d="M198.066 118.007C199.055 113.043 202.055 115.306 207.688 113.389" stroke="black" stroke-width="0.242649"/>
<path d="M217.129 103.971C216.134 104.842 215.164 105.791 214.194 106.761L213.898 107.277C216.183 110.2 222.46 108.805 227.138 109.036C229.562 109.364 232.013 109.779 233.947 108.475C234.647 108.087 236.486 106.33 232.62 106.837C228.641 107.604 225.626 105.832 220.958 106.579C219.759 106.868 218.275 105.256 217.129 103.971Z" fill="black" stroke="black" stroke-width="0.242649"/>
<path d="M207.91 108.892C209.07 111.268 209.622 114.303 212.831 114.458C216.466 114.457 218.17 112.841 221.468 114.018C223.926 115.048 224.552 113.049 222.788 112.062C219.535 110.169 214.727 112.771 211.186 109.779C211.181 109.784 211.176 109.789 211.171 109.794C209.729 109.668 209.008 109.188 207.91 108.892Z" fill="black" stroke="black" stroke-width="0.242649"/>
<path d="M241.873 97.7532C241.755 97.7629 241.634 97.7874 241.509 97.8215C238.151 98.4404 235.925 99.9384 234.07 101.727C232.074 103.278 228.212 101.987 227.519 100.529C226.775 98.7049 225.238 98.2536 223.014 97.8442C222.532 98.7902 222.039 99.7906 221.536 100.87C221.499 100.888 221.466 100.912 221.43 100.93C222.665 101.043 223.848 101.224 224.175 102.735C224.631 104.66 230.739 105.335 234.768 104.502C238.313 103.605 239.163 100.174 242.578 100.149C244.551 100.051 243.643 97.6086 241.873 97.7532Z" fill="black" stroke="black" stroke-width="0.242649"/>
<path d="M243.942 92.9229C239.466 92.8771 237.488 95.5448 231.552 95.175C228.84 95.1299 227.282 94.0972 225.667 93.1125C225.281 93.7307 224.883 94.3885 224.484 95.0916C227.332 96.3654 229.7 98.2122 233.569 98.2612C235.396 98.1142 236.821 96.7794 240.12 96.3049C241.734 95.9085 243.432 96.5721 245.542 96.0546C246.447 95.769 247.031 95.4486 247.377 95.122C247.488 94.0612 247.625 92.9834 246.042 93.0519C245.839 93.0264 245.624 93.0127 245.413 93.0291C244.889 92.9599 244.405 92.9277 243.942 92.9229Z" fill="black" stroke="black" stroke-width="0.242649"/>
<path d="M245.354 32.0137C252.158 31.5532 255.572 35.2989 258.428 39.6972C261.14 39.6067 264.368 39.7463 267.373 41.9907C266.118 43.6294 264.377 44.6151 261.639 45.6604C262.867 49.9752 264.771 54.3866 259.804 57.8163C260.151 59.7577 260.789 62.2411 258.542 63.8942C257.616 63.7616 257.727 60.5905 256.478 62.0594C256.901 66.7972 254.201 67.3633 252.579 68.596C253.572 66.9831 252.398 65.8036 252.006 64.4676C248.957 67.3447 248.047 66.0992 246.157 65.4997C245.543 68.3403 244.396 71.0033 241.111 72.9538C232.35 73.8773 230.373 69.7406 226.433 67.3346C225.983 66.3752 224.97 64.8614 225.974 63.3209C222.359 64.6951 222.785 61.8501 221.387 60.4539C223.815 60.877 225.838 60.4889 227.35 59.0778C225.557 59.5071 223.262 59.0069 222.078 57.9131C224.733 56.7941 226.023 56.1268 226.232 53.7847C223.532 55.2779 223.559 53.6437 222.304 53.1145C224.257 52.0766 225.396 50.9031 225.515 49.5595C223.64 51.5777 222.717 51.0585 221.731 50.7063C224.604 47.6777 221.523 43.2769 226.433 41.876C224.683 42.4793 224.666 41.3489 224.024 40.8439C226.205 39.8906 227.234 38.2041 228.497 36.0275C229.452 35.0851 230.408 35.0991 231.364 35.6834C231.835 32.8266 232.393 31.9658 231.478 28C233.606 28.6545 236.46 28.5697 236.754 30.7523C239.659 30.255 242.449 30.6787 245.354 32.0137Z" fill="#D6B720" stroke="black" stroke-width="0.242649"/>
<path d="M231.784 39.7832C230.463 41.6344 229.41 43.7957 228.904 45.6479C229.109 48.916 228.583 51.6077 228.806 54.5802" stroke="black" stroke-width="0.242649"/>
<path d="M255.905 52.4463C255.255 55.5008 255.498 57.1921 254.37 58.3354C252.708 59.3347 250.375 60.3116 246.883 62.9124" fill="#D6B720"/>
<path d="M255.905 52.4463C255.255 55.5008 255.498 57.1921 254.37 58.3354C252.708 59.3347 250.375 60.3116 246.883 62.9124" stroke="black" stroke-width="0.242649"/>
<path d="M234.83 52.9119C234.651 51.0126 236.244 55.5832 238.871 56.6361C241.108 57.5323 241.403 57.4095 244.863 57.3721C242.09 58.772 239.944 66.5902 237.163 67.0716C235.305 67.3934 234.303 66.1212 232.96 65.0698C231.22 63.706 235.19 56.8843 234.83 52.9119Z" fill="#CE1126" stroke="black" stroke-width="0.242677"/>
<path d="M239.664 70.8016C238.824 71.5164 236.865 70.6551 236.198 69.3614C238.063 68.2418 240.204 64.056 240.369 63.9907C241.525 63.5325 240.06 68.4819 239.664 70.8016Z" fill="#E3E4E5" stroke="black" stroke-width="0.242677" stroke-linecap="round" stroke-linejoin="round"/>
<path d="M247.555 56.854C246.178 58.5259 243.487 63.1904 242.246 63.3904C241.26 63.5493 243.417 59.276 242.923 57.4599" fill="#E3E4E5"/>
<path d="M247.555 56.854C246.178 58.5259 243.487 63.1904 242.246 63.3904C241.26 63.5493 243.417 59.276 242.923 57.4599" stroke="black" stroke-width="0.242677" stroke-linecap="round" stroke-linejoin="round"/>
<path d="M232.865 67.0663C232.568 65.1512 233.664 61.1939 233.523 60.9194C233.139 60.1667 230.39 64.9789 229.102 66.5963" fill="#E3E4E5"/>
<path d="M232.865 67.0663C232.568 65.1512 233.664 61.1939 233.523 60.9194C233.139 60.1667 230.39 64.9789 229.102 66.5963" stroke="black" stroke-width="0.242677" stroke-linecap="round" stroke-linejoin="round"/>
<path d="M236.304 54.4673C234.697 55.4046 233.652 60.5837 233.044 59.63C232.363 58.5626 233.455 52.2233 233.571 49.8967" fill="#E3E4E5"/>
<path d="M236.304 54.4673C234.697 55.4046 233.652 60.5837 233.044 59.63C232.363 58.5626 233.455 52.2233 233.571 49.8967" stroke="black" stroke-width="0.242677" stroke-linecap="round" stroke-linejoin="round"/>
<path d="M249.875 57.4204C248.935 55.5063 243.149 58.7767 239.009 56.7216C234.948 54.7053 233.468 48.037 232.112 48.4311C229.987 50.4027 231.262 55.1414 230.853 58.5096C228.698 62.1763 225.286 66.445 230.001 66.8234C233.323 66.7287 235.593 67.6096 236.457 69.793C238.166 71.793 239.504 70.9398 240.86 70.2199C241.741 68.7292 242.524 65.4796 244.232 63.5203C246.599 60.8053 249.875 59.3356 249.875 57.4204Z" stroke="black" stroke-width="0.242677"/>
<path d="M245.292 51.2603C245.215 50.1939 243.579 51.4236 242.113 50.3685C240.648 49.3135 240.417 47.2469 239.681 47.5909C238.939 47.9374 239.552 52.3849 240.512 53.1376C241.507 53.9177 245.37 52.3457 245.292 51.2603Z" fill="black" stroke="black" stroke-width="0.242649" stroke-linecap="round" stroke-linejoin="round"/>
<path d="M238.181 58.6396L234.461 66.2634L238.181 58.6396Z" fill="#EAC102"/>
<path d="M238.181 58.6396L234.461 66.2634" stroke="black" stroke-width="0.242649"/>
<path d="M267.651 84.9839C267.176 85.5147 266.725 86.0454 266.301 86.5763C267.472 92.2462 268.46 96.999 266.361 102.993C266.04 104.969 267.872 103.955 267.931 102.72C267.191 97.9379 272.749 95.8768 267.651 84.9839Z" fill="black" stroke="black" stroke-width="0.242649"/>
<path d="M271.221 106.178C269 107.53 267.843 107.512 266.399 107.619C266.393 107.912 266.393 108.203 266.399 108.491C266.429 110.055 266.603 111.548 266.876 112.972C267.907 112.42 269.827 111.686 271.722 111.129C271.504 109.71 271.347 108.088 271.221 106.178Z" fill="black" stroke="black" stroke-width="0.242649"/>
<path d="M272.345 114.086C270.826 115.752 269.435 116.645 268 117.059C268.502 118.443 269.105 119.753 269.774 121.002C271.248 120.072 272.653 119.08 274.043 118.067C273.302 116.82 272.758 115.553 272.345 114.086Z" fill="black" stroke="black" stroke-width="0.242649"/>
<path d="M276.019 120.857C275.682 122.494 274.08 123.709 272.145 124.831C272.987 126.031 273.874 127.159 274.768 128.235C276.645 127.657 277.744 125.882 278.802 124.065C277.726 122.884 276.806 121.836 276.019 120.857Z" fill="black" stroke="black" stroke-width="0.242649"/>
<path d="M281.927 127.522C281.283 129.134 280.324 130.659 277.84 131.753C277.872 131.789 277.907 131.824 277.938 131.86C278.83 132.842 279.699 133.948 280.516 135.12C282.046 134.393 283.492 133.856 284.672 130.768C283.777 129.661 282.855 128.576 281.927 127.522Z" fill="black" stroke="black" stroke-width="0.242649"/>
<path d="M287.772 134.953C286.609 136.8 284.81 138.298 282.594 138.449C283.363 139.83 284.031 141.226 284.558 142.573C287.367 141.744 289.321 140.391 290.1 139.017C289.458 137.659 288.668 136.298 287.772 134.953Z" fill="black" stroke="black" stroke-width="0.242649"/>
<path d="M291.657 143.787C289.745 144.958 287.471 145.416 285.379 145.015C285.806 146.624 285.946 148.069 285.72 149.185C287.546 149.38 289.868 150.612 291.68 149.617C291.843 148.215 291.842 146.767 291.809 145.371C291.803 145.15 291.789 144.927 291.771 144.704C291.753 144.482 291.726 144.261 291.695 144.037C291.684 143.954 291.671 143.87 291.658 143.787H291.657Z" fill="black" stroke="black" stroke-width="0.242649"/>
<path d="M284.749 150.929C284.449 151.17 284.081 151.347 283.642 151.445C283.166 151.55 282.704 151.553 282.262 151.468C283.101 153.707 283.663 155.946 284.036 158.186C284.345 158.133 284.658 158.066 284.976 157.973C287.699 157.177 289.359 155.752 290.36 154C288.675 152.79 286.777 151.796 284.749 150.929Z" fill="black" stroke="black" stroke-width="0.242649"/>
<path d="M275.846 143.916C274.985 146.778 273.917 149.161 272.691 151.172C273.839 152.94 275.583 155.181 277.817 156.677C278.73 154.764 279.184 152.312 279.576 149.792C278.242 148.379 277.03 146.24 275.846 143.916Z" fill="black" stroke="black" stroke-width="0.242649"/>
<path d="M272.285 192.386C272.683 193.353 272.922 194.325 272.945 195.26C275.913 195.669 279.494 195.142 279.261 194.631C276.86 194.65 274.565 193.587 272.285 192.386Z" fill="black" stroke="black" stroke-width="0.242649"/>
<path d="M264.738 183.825C264.816 183.872 264.903 183.925 264.973 183.969C266.229 184.77 267.68 185.993 269 187.442C270.639 186.525 274.342 187.904 277.872 189.088C275.668 183.331 269.908 184.119 264.738 183.825Z" fill="black" stroke="black" stroke-width="0.242649"/>
<path d="M266.778 176.553C262.891 176.523 258.922 176.921 255.207 178.222C257.246 179.66 259.285 180.836 261.023 181.785C263.355 179.808 265.807 177.872 270.941 176.735C269.575 176.636 268.181 176.564 266.778 176.553Z" fill="black" stroke="black" stroke-width="0.242649"/>
<path d="M268.022 168.197C267.9 168.193 267.774 168.207 267.658 168.227C265.697 169.159 263.593 169.795 261.296 170.055C252.064 171.491 251.208 170.461 247.336 170.32C248.755 172.581 250.596 174.519 252.56 176.182C256.245 175.206 259.237 174.112 262.175 173.012C264.322 172.138 266.476 171.267 268.295 169.736C269.702 168.85 268.872 168.229 268.022 168.197Z" fill="black" stroke="black" stroke-width="0.242649"/>
<path d="M244.578 159.538C244.434 161.782 244.698 163.838 245.253 165.725C250.524 165.084 254.122 163.643 263.186 164.823C264.366 165.201 266.117 163.557 263.186 162.927C258.087 160.202 251.055 160.272 244.578 159.538Z" fill="black" stroke="black" stroke-width="0.242649"/>
<path d="M250.202 152.845C258.097 153.967 259.274 158.465 266.463 160.219C268.205 160.991 270.622 158.606 268.039 157.887C258.133 156.738 259.209 150.541 251.273 150.008C249.903 149.992 248.402 152.329 250.202 152.845Z" fill="black" stroke="black" stroke-width="0.242649"/>
<path d="M272.292 136.918C270.678 140.308 266.56 146.545 265.771 147.238C263.946 149.372 266.228 150.246 267.917 148.808C270.892 146.232 272.661 143.382 274.135 140.459C273.528 139.234 272.922 138.034 272.292 136.918Z" fill="black" stroke="black" stroke-width="0.242649"/>
<path d="M266.619 127.804C266.909 131.256 266.015 134.179 265.14 137.024C264.058 140.011 262.787 140.923 262.615 143.015C262.387 145.892 264.447 144.871 264.951 143.455C265.992 140.666 266.561 139.819 268.606 137.532C269.736 136.302 270.26 134.725 270.577 133.203C269.452 131.229 268.012 129.443 266.619 127.804Z" fill="black" stroke="black" stroke-width="0.242649"/>
<path d="M261.169 120.206C261.991 123.993 261.269 127.23 260.555 130.374C259.699 133.434 258.499 134.432 258.484 136.531C258.472 139.417 260.446 138.247 260.843 136.797C261.672 133.938 262.182 133.05 264.05 130.617C264.979 129.441 265.396 128.02 265.62 126.628C264.44 125.256 263.347 123.976 262.617 122.791C262.086 121.929 261.604 121.072 261.169 120.206Z" fill="black" stroke="black" stroke-width="0.242649"/>
<path d="M250.458 143.895C249.259 145.07 249.04 144.019 249.197 143.138C249.113 140.743 250.227 138.726 250.143 136.331C251.268 130.787 253.844 129.113 255.878 125.995L258.21 122.717C258.881 122.645 259.917 122.044 259.156 124.041C257.774 130.261 255.043 133.514 252.916 138.096L250.458 143.895Z" fill="black" stroke="black" stroke-width="0.242649"/>
<path d="M257.734 108.399C256.576 110.465 255.193 112.504 255.058 114.716C254.693 118.531 250.629 119.672 248.248 122.026L245.162 125.491C243.568 126.732 244.141 130.034 247.809 126.81C248.869 126.012 249.302 125.22 249.704 124.422C251.931 122.993 254.365 122.387 256.385 120.13C257.674 118.932 258.449 117.121 259.168 115.239C258.469 113.006 258.011 110.735 257.734 108.399Z" fill="black" stroke="black" stroke-width="0.242649"/>
<path d="M257.515 96.5776C251.681 101.274 248.91 107.648 246.231 114.079C245.171 117.003 246.673 119.655 248.817 116.414C251.518 112.647 254.029 108.714 257.484 105.594C257.309 102.712 257.361 99.7174 257.515 96.5776Z" fill="black" stroke="black" stroke-width="0.242649"/>
<path d="M229.658 120.89C232.053 120.785 234.448 121.45 236.843 120.574C240.805 118.743 240.725 114.115 242.642 110.868C243.036 110.218 244.166 109.697 244.029 112.381C244.354 118.69 242.347 120.603 240.373 122.97C237.611 125.31 233.525 123.015 230.099 123.033C227.864 122.658 227.835 121.018 229.658 120.89Z" fill="black" stroke="black" stroke-width="0.242649"/>
<path fill-rule="evenodd" clip-rule="evenodd" d="M233.659 37.2265C238.433 37.3595 239.061 36.6934 242.526 44.1746L233.659 37.2265Z" fill="#D6B720"/>
<path d="M233.659 37.2265C238.433 37.3595 239.061 36.6934 242.526 44.1746" stroke="black" stroke-width="0.242649" stroke-linecap="round" stroke-linejoin="round"/>
<path fill-rule="evenodd" clip-rule="evenodd" d="M242.432 44.3631C240.845 44.3172 239.997 44.1304 239.197 43.1137C237.859 41.5149 238.007 40.1869 237.19 39.7322C237.71 39.0921 238.279 38.5289 239.52 39.0163C241.693 41.2569 240.997 42.0673 242.432 44.3631Z" fill="#E3E4E5" stroke="black" stroke-width="0.242649" stroke-linecap="round" stroke-linejoin="round"/>
<path fill-rule="evenodd" clip-rule="evenodd" d="M240.595 42.1867C240.353 42.6618 240.019 43.0449 239.719 43.1914C239.419 43.3378 239.198 43.2253 239.14 42.8963C239.082 42.5673 239.196 42.0718 239.439 41.5969C239.681 41.1218 240.015 40.7386 240.315 40.5922C240.615 40.4458 240.836 40.5583 240.894 40.8873C240.952 41.2163 240.838 41.7117 240.595 42.1867Z" fill="black" stroke="black" stroke-width="0.242649"/>
<path fill-rule="evenodd" clip-rule="evenodd" d="M246.182 45.9866C252.947 44.6985 253.524 43.9892 256.217 49.5477L246.182 45.9866Z" fill="#D6B720"/>
<path d="M246.182 45.9866C252.947 44.6985 253.524 43.9892 256.217 49.5477" stroke="black" stroke-width="0.242649" stroke-linecap="round" stroke-linejoin="round"/>
<path fill-rule="evenodd" clip-rule="evenodd" d="M246.132 46.1495C247.102 47.4072 247.751 47.9841 249.044 48.0347C251.124 48.1793 252.111 47.2793 252.959 47.6734C253.172 46.877 253.294 46.086 252.171 45.3672C249.081 44.9238 248.834 45.9633 246.132 46.1495Z" fill="#E3E4E5" stroke="black" stroke-width="0.242649" stroke-linecap="round" stroke-linejoin="round"/>
<path fill-rule="evenodd" clip-rule="evenodd" d="M250.064 47.0163C249.822 47.4914 249.488 47.8745 249.188 48.0209C248.887 48.1674 248.667 48.0548 248.609 47.7259C248.551 47.3969 248.665 46.9015 248.908 46.4265C249.15 45.9513 249.484 45.5682 249.784 45.4218C250.084 45.2754 250.305 45.3879 250.363 45.7169C250.42 46.0459 250.306 46.5413 250.064 47.0163Z" fill="black" stroke="black" stroke-width="0.242649"/>
<path d="M231.594 28.3442C232.903 30.0495 235.508 30.6423 234.919 33.1607L231.594 28.3442Z" fill="#D6B720"/>
<path d="M231.594 28.3442C232.903 30.0495 235.508 30.6423 234.919 33.1607" stroke="black" stroke-width="0.242649"/>
<path d="M267.375 41.8761C264.865 41.7887 262.259 40.9341 260.035 43.1376L267.375 41.8761Z" fill="#D6B720"/>
<path d="M267.375 41.8761C264.865 41.7887 262.259 40.9341 260.035 43.1376" stroke="black" stroke-width="0.242649"/>
<path d="M240.197 36.4864C244.449 38.3126 249.335 40.7664 252.697 43.4818C254.543 45.3206 255.994 44.7519 255.105 43.3671C251.067 39.74 246.672 36.611 241.115 35.1103C239.655 34.4195 238.635 35.2806 240.197 36.4864Z" fill="black" stroke="black" stroke-width="0.242649"/>
<path d="M238.915 30.5544C238.199 30.5637 237.48 30.6272 236.754 30.7515C236.752 30.7409 236.748 30.7317 236.746 30.7212L236.238 32.3894C239.858 33.5952 242.909 33.8422 247.104 36.0064C248.824 36.4964 249.031 35.3881 247.757 34.7097C245.241 33.5753 243.721 32.4395 240.007 31.3051L239.484 30.5544C239.295 30.5488 239.104 30.5519 238.915 30.5544Z" fill="black" stroke="black" stroke-width="0.242649"/>
<path d="M259.342 40.2241C259.728 40.8264 260.071 41.4617 260.368 42.1363C260.377 42.1317 260.387 42.1305 260.397 42.1259L259.285 43.4689C256.284 41.1119 254.397 38.7015 250.28 36.3926C248.924 35.2274 249.735 34.4441 251.003 35.134C253.336 36.6085 255.121 37.2515 258.114 39.7263L259.028 39.7494C259.137 39.9037 259.24 40.065 259.342 40.2241Z" fill="black" stroke="black" stroke-width="0.242649"/>
<path d="M224.417 51.6421C223.888 52.1624 223.18 52.65 222.309 53.1132C223.563 53.6424 223.537 55.2813 226.236 53.788C226.144 54.8269 225.839 55.5354 225.296 56.1008C226.068 56.6608 226.886 57.1919 227.768 57.6856C229.726 59.1848 230.144 58.6325 229.436 56.5785C227.678 54.9469 225.961 53.3094 224.417 51.6421Z" fill="black" stroke="black" stroke-width="0.242649"/>
<path d="M260.395 57.375C258.985 58.4047 257.215 59.4315 254.322 60.4612C251.863 62.1529 252.38 62.9177 254.655 63.1303L256.521 62.8422C256.516 62.595 256.507 62.3353 256.483 62.0612C257.197 61.2205 257.468 61.9006 257.741 62.6602L259.819 62.3341C260.448 60.8883 260.053 59.2102 259.804 57.8148C260.014 57.67 260.21 57.5232 260.395 57.375Z" fill="black" stroke="black" stroke-width="0.242649"/>
<path d="M39.3789 45.9098C42.8863 44.4067 44.4841 41.5284 49.3783 42.7989" stroke="black" stroke-width="0.242649"/>
<path d="M51.6016 41.799C52.0624 38.7715 56.5059 37.5437 58.8234 35.5771" stroke="black" stroke-width="0.242649"/>
<path d="M48.3789 52.6875C49.4718 50.9012 51.4397 49.7052 53.7119 49.6877C55.2719 47.9561 56.4906 46.5419 58.9338 46.5768" stroke="black" stroke-width="0.242649"/>
<path d="M46.8789 50.7432C47.9718 48.9569 49.9397 47.7608 52.2119 47.7434C53.7719 46.0118 54.9906 44.5976 57.4338 44.6325" stroke="black" stroke-width="0.242649"/>
<path d="M257.816 87.8726C256.999 88.6881 256.121 89.4258 255.283 89.9275C253.313 91.1074 251.916 90.7823 250.999 91.8459C250.004 92.8575 249.586 93.9947 252.076 94.007C253.279 94.0376 256.084 92.8777 257.801 91.8308C257.854 91.0712 257.91 90.3041 257.968 89.5256C258.002 89.0658 257.947 88.51 257.816 87.8726Z" fill="black" stroke="black" stroke-width="0.242649"/>
<path d="M253.941 77.5752C250.786 80.6816 249.302 84.2472 248.634 88.0319C248.311 89.7361 249.709 90.5205 250.294 89.3892C252.327 86.625 252.75 83.9863 255.913 82.2614C255.307 80.7712 254.619 79.1793 253.941 77.5752Z" fill="black" stroke="black" stroke-width="0.242649"/>
<path d="M251.227 70.5688C249.951 72.7039 246.643 76.8458 245.578 77.1052C244.777 77.3004 239.77 77.7194 239.77 77.7194C238.213 78.0037 238.042 78.6652 239.065 79.653C241.726 79.9523 243.659 80.9769 247.155 80.4416C250.163 80.0941 251.582 77.8961 253.313 76.0588C252.531 74.1743 251.792 72.3004 251.227 70.5688Z" fill="black" stroke="black" stroke-width="0.242649"/>
<path d="M11.2461 232.16C18.5705 253.069 41.9179 253.935 51.3543 271.343C51.8616 265.892 50.695 260.44 49.5952 254.989C54.4035 256.32 59.2118 258.026 64.0201 261.803C59.8674 246.102 44.3728 244.767 37.9849 236.249" fill="white"/>
<path d="M11.2461 232.16C18.5705 253.069 41.9179 253.935 51.3543 271.343C51.8616 265.892 50.695 260.44 49.5952 254.989C54.4035 256.32 59.2118 258.026 64.0201 261.803C59.8674 246.102 44.3728 244.767 37.9849 236.249" stroke="#3C5497" stroke-width="0.905081"/>
<path d="M296.063 232.16C288.739 253.069 265.391 253.935 255.955 271.343C255.448 265.892 256.614 260.44 257.714 254.989C252.906 256.32 248.097 258.026 243.289 261.803C247.442 246.102 262.936 244.767 269.324 236.249" fill="white"/>
<path d="M296.063 232.16C288.739 253.069 265.391 253.935 255.955 271.343C255.448 265.892 256.614 260.44 257.714 254.989C252.906 256.32 248.097 258.026 243.289 261.803C247.442 246.102 262.936 244.767 269.324 236.249" stroke="#3C5497" stroke-width="0.905081"/>
<path d="M16.3217 212.773C15.4515 213.434 15.9662 218.978 15.6924 222.899C15.4187 226.82 10.4179 231.602 11.3962 232.44C55.2 246.729 100.344 257.419 153.639 257.419C206.935 257.419 249.449 246.989 296.864 232.44C297.842 231.602 293.194 226.117 292.92 222.195C292.646 218.274 292.809 213.082 291.939 212.421C244.704 229.191 209.149 236.697 153.6 236.697C98.0518 236.697 60.5842 227.253 16.3217 212.773Z" fill="#3C5497" stroke="#3C5497" stroke-width="0.242649"/>
<path d="M59.4864 242.868L56.3761 242.053L58.8104 234.518C59.0733 233.705 59.4027 232.816 59.7984 231.853L59.7204 231.833C59.3082 232.563 58.9823 233.081 58.7426 233.386L52.7003 241.09L50.1263 240.415L49.5296 231.067C49.5124 230.815 49.5553 230.191 49.6583 229.195L49.5705 229.172C49.2541 230.436 48.9445 231.536 48.6419 232.472L46.392 239.436L43.5547 238.693L47.6232 226.1L52.235 227.308L52.6802 235.522C52.7148 236.178 52.6866 236.822 52.5958 237.452L52.6543 237.468C53.0549 236.817 53.4359 236.26 53.7974 235.795L59.0601 229.097L63.5549 230.275L59.4864 242.868Z" fill="#D6B61E" stroke="#D6B61E" stroke-width="0.211739"/>
<path d="M75.1978 246.118L71.7155 245.392L71.4368 242.339L66.3914 241.287L64.6618 243.922L61.1992 243.2L69.6469 231.499L73.4359 232.288L75.1978 246.118ZM71.2726 239.977L70.8528 235.364C70.8231 235.02 70.8424 234.62 70.9107 234.165L70.8316 234.149C70.7024 234.516 70.5246 234.87 70.298 235.211L67.6419 239.22L71.2726 239.977Z" fill="#D6B61E" stroke="#D6B61E" stroke-width="0.211739"/>
<path d="M84.0708 242.357C83.6923 244.079 82.9592 245.319 81.8716 246.076C80.7839 246.833 79.4 247.062 77.7199 246.763C76.9694 246.629 76.3011 246.389 75.7148 246.042L76.3122 243.323C76.7806 243.798 77.3568 244.097 78.0408 244.219C79.5084 244.48 80.4578 243.63 80.8889 241.668L82.5687 234.024L85.7762 234.596L84.0708 242.357Z" fill="#D6B61E" stroke="#D6B61E" stroke-width="0.211739"/>
<path d="M98.8191 244.156C98.1045 248.042 95.7369 249.685 91.7164 249.086C87.816 248.504 86.2148 246.315 86.9128 242.519L88.2867 235.048L91.5326 235.532L90.152 243.039C89.7671 245.133 90.4829 246.315 92.2995 246.586C94.0827 246.852 95.1602 245.974 95.5319 243.953L96.9323 236.338L100.168 236.82L98.8191 244.156Z" fill="#D6B61E" stroke="#D6B61E" stroke-width="0.211739"/>
<path d="M109.519 251.168L100.922 250.144L102.83 237.142L106.082 237.529L104.522 248.156L109.868 248.792L109.519 251.168Z" fill="#D6B61E" stroke="#D6B61E" stroke-width="0.211739"/>
<path d="M124.216 252.521L120.659 252.203L119.949 249.207L114.795 248.747L113.455 251.559L109.918 251.242L116.632 238.663L120.502 239.009L124.216 252.521ZM119.45 246.883L118.377 242.357C118.299 242.019 118.261 241.621 118.264 241.162L118.183 241.154C118.108 241.534 117.982 241.905 117.805 242.269L115.741 246.552L119.45 246.883Z" fill="#D6B61E" stroke="#D6B61E" stroke-width="0.211739"/>
<path d="M138.611 253.305L135.327 253.131L135.676 247.799L129.655 247.479L129.305 252.811L126.031 252.637L126.889 239.544L130.163 239.718L129.821 244.94L135.842 245.26L136.184 240.038L139.469 240.212L138.611 253.305Z" fill="#D6B61E" stroke="#D6B61E" stroke-width="0.211739"/>
<path d="M152.792 253.07L152.761 250.143C153.935 251.024 155.222 251.458 156.623 251.446C157.293 251.44 157.813 251.312 158.183 251.062C158.553 250.812 158.736 250.489 158.731 250.093C158.728 249.751 158.569 249.431 158.254 249.132C157.94 248.833 157.191 248.438 156.008 247.948C153.777 247.022 152.654 245.751 152.637 244.135C152.625 242.958 153.097 242.011 154.054 241.292C155.011 240.574 156.296 240.208 157.907 240.194C159.328 240.182 160.508 240.34 161.446 240.667L161.474 243.402C160.493 242.8 159.373 242.505 158.114 242.515C157.484 242.521 156.988 242.647 156.625 242.894C156.262 243.141 156.083 243.463 156.087 243.859C156.091 244.249 156.238 244.58 156.529 244.852C156.819 245.124 157.43 245.454 158.362 245.843C159.804 246.446 160.798 247.051 161.346 247.656C161.894 248.261 162.172 248.978 162.181 249.807C162.194 251.015 161.721 251.973 160.764 252.682C159.807 253.392 158.408 253.754 156.566 253.77C155.057 253.783 153.798 253.549 152.792 253.07Z" fill="#D6B61E" stroke="#D6B61E" stroke-width="0.211739"/>
<path d="M167.833 253.311L164.555 253.411L164.062 240.303L167.341 240.203L167.833 253.311Z" fill="#D6B61E" stroke="#D6B61E" stroke-width="0.211739"/>
<path d="M184.205 252.469L180.901 252.661L174.321 244.787C173.935 244.327 173.666 243.979 173.513 243.744L173.473 243.746C173.56 244.205 173.638 244.91 173.706 245.859L174.223 253.051L171.133 253.231L170.191 240.143L173.718 239.937L180.057 247.569C180.346 247.912 180.615 248.254 180.863 248.594L180.904 248.592C180.828 248.291 180.758 247.693 180.693 246.798L180.173 239.561L183.263 239.38L184.205 252.469Z" fill="#D6B61E" stroke="#D6B61E" stroke-width="0.211739"/>
<path d="M199.325 250.189C197.998 251.057 196.284 251.592 194.184 251.792C191.854 252.014 189.95 251.608 188.47 250.575C186.991 249.542 186.131 248.007 185.892 245.97C185.651 243.92 186.188 242.18 187.504 240.748C188.82 239.317 190.696 238.485 193.133 238.252C194.668 238.106 196.044 238.168 197.26 238.438L197.584 241.194C196.398 240.719 194.997 240.558 193.382 240.712C192.028 240.841 190.973 241.342 190.214 242.214C189.455 243.087 189.154 244.184 189.309 245.506C189.467 246.846 189.971 247.846 190.821 248.507C191.671 249.168 192.746 249.436 194.045 249.313C194.826 249.238 195.434 249.079 195.868 248.835L195.569 246.289L192.671 246.565L192.395 244.218L198.555 243.631L199.325 250.189Z" fill="#D6B61E" stroke="#D6B61E" stroke-width="0.211739"/>
<path d="M214.913 249.09L211.375 249.549L209.888 246.794L204.762 247.459L204.209 250.479L200.691 250.936L203.861 237.273L207.71 236.773L214.913 249.09ZM208.785 244.646L206.539 240.483C206.373 240.172 206.231 239.793 206.111 239.347L206.031 239.357C206.058 239.742 206.035 240.13 205.961 240.521L205.097 245.124L208.785 244.646Z" fill="#D6B61E" stroke="#D6B61E" stroke-width="0.211739"/>
<path d="M219.04 243.82L219.929 248.267L216.701 248.79L214.121 235.882L219.178 235.062C222.789 234.477 224.869 235.555 225.417 238.298C225.676 239.594 225.368 240.726 224.492 241.696C223.616 242.665 222.312 243.29 220.579 243.571L219.04 243.82ZM217.795 237.591L218.6 241.615L219.869 241.409C221.588 241.13 222.312 240.313 222.041 238.957C221.776 237.63 220.783 237.107 219.065 237.385L217.795 237.591Z" fill="#D6B61E" stroke="#D6B61E" stroke-width="0.211739"/>
<path d="M239.545 238.889C240.476 242.737 238.951 245.053 234.969 245.834C231.106 246.592 228.72 245.092 227.81 241.333L226.02 233.933L229.234 233.302L231.033 240.737C231.535 242.811 232.685 243.671 234.484 243.318C236.251 242.971 236.891 241.797 236.407 239.795L234.582 232.253L237.787 231.624L239.545 238.889Z" fill="#D6B61E" stroke="#D6B61E" stroke-width="0.211739"/>
<path d="M254.785 241.225L251.139 242.081L248.77 239.149C247.997 238.196 247.212 237.813 246.412 238.001L245.724 238.162L247.13 243.021L243.956 243.766L240.285 231.074L245.316 229.894C248.736 229.091 250.779 229.841 251.444 232.142C251.698 233.021 251.633 233.83 251.249 234.57C250.865 235.309 250.205 235.914 249.271 236.385L249.282 236.42C250.175 236.463 251.035 236.957 251.862 237.904L254.785 241.225ZM244.079 232.471L245.1 236.003L246.476 235.68C247.157 235.52 247.654 235.213 247.967 234.758C248.279 234.304 248.359 233.811 248.205 233.28C247.885 232.171 246.987 231.789 245.513 232.135L244.079 232.471Z" fill="#D6B61E" stroke="#D6B61E" stroke-width="0.211739"/>
<path d="M268.982 237.251L265.574 238.221L263.61 235.72L258.672 237.126L258.67 240.186L255.281 241.151L255.947 227.207L259.656 226.151L268.982 237.251ZM262.135 233.762L259.168 229.983C258.949 229.7 258.74 229.347 258.541 228.924L258.464 228.946C258.56 229.321 258.607 229.708 258.604 230.105L258.581 234.773L262.135 233.762Z" fill="#D6B61E" stroke="#D6B61E" stroke-width="0.211739"/>
</svg>
