<svg width="300" height="300" viewBox="0 0 300 300" fill="none" xmlns="http://www.w3.org/2000/svg">
<path d="M47.7398 31.4454C79.8344 17.3035 114.522 10 149.594 10C184.667 10 219.355 17.3035 251.449 31.4454C262.088 181.896 228.137 267.168 149.594 287.26C71.0522 267.168 37.1007 181.896 47.7398 31.4454Z" fill="#0000FF"/>
<path d="M149.592 58.4824L152.674 65.473L160.269 64.6471L155.756 70.8117L160.269 76.9764L152.674 76.1505L149.592 83.141L146.509 76.1505L138.914 76.9764L143.427 70.8117L138.914 64.6471L146.509 65.473" fill="#FFFF00"/>
<path d="M120.826 20.126L123.908 27.1165L131.503 26.2906L126.991 32.4553L131.503 38.6199L123.908 37.794L120.826 44.7846L117.744 37.794L110.148 38.6199L114.661 32.4553L110.148 26.2906L117.744 27.1165" fill="#FFFF00"/>
<path d="M178.365 20.126L181.447 27.1165L189.042 26.2906L184.53 32.4553L189.042 38.6199L181.447 37.794L178.365 44.7846L175.283 37.794L167.688 38.6199L172.2 32.4553L167.688 26.2906L175.283 27.1165" fill="#FFFF00"/>
<path d="M149.594 98.2109L174.252 147.528L190.691 125.609L231.789 180.406C231.789 182.952 231.434 185.485 230.735 187.933C225.1 207.654 214.778 225.719 200.649 240.587C186.519 255.454 169.003 266.682 149.594 273.312C130.185 266.682 112.668 255.454 98.5389 240.587C84.4096 225.719 74.0872 207.654 68.4526 187.933C67.7532 185.485 67.3984 182.952 67.3984 180.406L108.496 125.609L124.935 147.528L149.594 98.2109Z" fill="white"/>
<path d="M68.4526 187.933C69.5967 191.937 71.6385 195.628 74.4228 198.724C77.2071 201.821 80.6607 204.242 84.5211 205.804C88.3816 207.366 92.5473 208.027 96.7016 207.738C100.856 207.448 104.89 206.216 108.496 204.133C112.661 201.729 117.386 200.463 122.195 200.463C127.005 200.463 131.729 201.729 135.895 204.133C140.06 206.538 144.784 207.804 149.594 207.804C154.403 207.804 159.128 206.538 163.293 204.133C167.458 201.729 172.183 200.463 176.992 200.463C181.802 200.463 186.526 201.729 190.691 204.133C194.298 206.216 198.332 207.448 202.486 207.738C206.64 208.027 210.806 207.366 214.666 205.804C218.527 204.242 221.98 201.821 224.765 198.724C227.549 195.628 229.591 191.937 230.735 187.933L231.789 188.315V208.372C226.98 208.372 222.255 209.638 218.09 212.043C213.925 214.447 209.2 215.713 204.391 215.713C199.581 215.713 194.857 214.447 190.691 212.043C186.526 209.638 181.802 208.372 176.992 208.372C172.183 208.372 167.458 209.638 163.293 212.043C159.128 214.447 154.403 215.713 149.594 215.713C144.784 215.713 140.06 214.447 135.895 212.043C131.729 209.638 127.005 208.372 122.195 208.372C117.386 208.372 112.661 209.638 108.496 212.043C104.331 214.447 99.6063 215.713 94.7969 215.713C89.9875 215.713 85.2628 214.447 81.0977 212.043C76.9326 209.638 72.2079 208.372 67.3984 208.372V188.315" fill="#0000FF"/>
<path d="M68.4526 203.751C69.5967 207.755 71.6385 211.446 74.4228 214.543C77.2071 217.639 80.6607 220.061 84.5211 221.623C88.3816 223.184 92.5473 223.846 96.7016 223.556C100.856 223.267 104.89 222.034 108.496 219.952C112.661 217.547 117.386 216.281 122.195 216.281C127.005 216.281 131.729 217.547 135.895 219.952C140.06 222.357 144.784 223.622 149.594 223.622C154.403 223.622 159.128 222.357 163.293 219.952C167.458 217.547 172.183 216.281 176.992 216.281C181.802 216.281 186.526 217.547 190.691 219.952C194.298 222.034 198.332 223.267 202.486 223.556C206.64 223.846 210.806 223.184 214.666 221.623C218.527 220.061 221.98 217.639 224.765 214.543C227.549 211.446 229.591 207.755 230.735 203.751L231.789 204.133V224.19C226.98 224.19 222.255 225.456 218.09 227.861C213.925 230.266 209.2 231.532 204.391 231.532C199.581 231.532 194.857 230.266 190.691 227.861C186.526 225.456 181.802 224.19 176.992 224.19C172.183 224.19 167.458 225.456 163.293 227.861C159.128 230.266 154.403 231.532 149.594 231.532C144.784 231.532 140.06 230.266 135.895 227.861C131.729 225.456 127.005 224.19 122.195 224.19C117.386 224.19 112.661 225.456 108.496 227.861C104.331 230.266 99.6063 231.532 94.7969 231.532C89.9875 231.532 85.2628 230.266 81.0977 227.861C76.9326 225.456 72.2079 224.19 67.3984 224.19V204.133" fill="#0000FF"/>
<path d="M40 35.0125C42.5595 33.78 45.1395 32.5908 47.7391 31.4453L55.8782 161.448C57.5778 188.594 67.4331 214.595 84.1543 236.048C100.876 257.5 123.684 273.405 149.594 281.681C175.504 273.405 198.312 257.5 215.033 236.048C231.755 214.595 241.61 188.594 243.309 161.448L251.449 31.4453C254.048 32.5908 256.628 33.78 259.188 35.0125L251.241 161.944C249.414 191.118 238.692 219.033 220.519 241.928C202.345 264.823 177.592 281.6 149.594 290C121.595 281.6 96.8426 264.823 78.669 241.928C60.4953 219.033 49.7734 191.118 47.9469 161.944L40 35.0125Z" fill="#FF0000"/>
</svg>
