<svg width="300" height="300" viewBox="0 0 300 300" fill="none" xmlns="http://www.w3.org/2000/svg">
<path d="M259.955 112.863C261.934 109.194 262.218 104.909 260.776 100.471C259.468 96.4458 257.171 93.4366 253.949 91.5271C251.635 90.1566 248.94 89.4216 245.929 89.3396C246.365 84.4035 244.669 79.8016 241.072 76.26C237.772 73.0087 233.849 71.2901 229.726 71.2901C229.194 71.2901 228.679 71.3187 228.183 71.3702C228.14 71.17 228.093 70.9679 228.043 70.7644C226.63 65.0705 222.836 60.955 217.362 59.1762C215.898 58.7001 214.399 58.4589 212.909 58.4589C209.862 58.4589 207.176 59.4351 204.88 60.8505C205.957 56.3253 205.199 52.0564 202.617 48.5037C199.469 44.1696 194.978 41.8786 189.63 41.8786C188.957 41.8786 188.304 41.9159 187.677 41.9805C186.954 38.6072 184.835 34.2388 179.044 31.2336C176.596 29.9629 174.049 29.3186 171.473 29.3186C169.072 29.3186 166.932 29.8664 165.104 30.646C164.365 28.5781 163.223 26.433 161.461 24.5864C158.583 21.5698 154.595 19.9756 149.928 19.9756C145.262 19.9756 141.274 21.5699 138.396 24.5864C136.634 26.433 135.492 28.5781 134.753 30.646C132.925 29.8666 130.785 29.3186 128.384 29.3186C125.808 29.3186 123.261 29.9629 120.814 31.2333C115.022 34.2393 112.903 38.6074 112.18 41.9805C111.553 41.9159 110.9 41.8786 110.227 41.8786C104.88 41.8786 100.389 44.1694 97.2396 48.5037C94.6704 52.04 93.9083 56.2833 94.9613 60.7831C92.4275 59.2513 89.7609 58.4589 87.0581 58.4589C85.5677 58.4589 84.0696 58.7003 82.605 59.1762C77.1306 60.955 73.3374 65.0704 71.924 70.764C71.8737 70.9674 71.8267 71.1698 71.7839 71.37C71.2879 71.3185 70.7733 71.2899 70.2419 71.2899C66.1188 71.2899 62.1948 73.0082 58.8954 76.259C55.2985 79.8019 53.6018 84.4029 54.0387 89.3391C51.0273 89.4213 48.3317 90.1557 46.0191 91.5261C42.7961 93.4354 40.4989 96.4448 39.1909 100.47C37.7489 104.909 38.0331 109.194 40.0122 112.863C41.2256 115.112 42.9165 116.864 44.6576 118.206C41.4043 121.942 40.0734 126.661 40.901 131.639C41.9696 138.076 45.4693 141.44 48.4539 143.171C48.3712 143.358 48.2902 143.549 48.2114 143.743C46.0082 149.181 46.658 154.74 50.0414 159.396C52.6247 162.952 56.409 164.997 61.0511 165.37C57.5385 168.395 55.6521 172.284 55.6523 176.664C55.6523 182.421 58.3941 187.3 63.3725 190.404C63.5505 190.515 63.7276 190.622 63.9048 190.724C62.5078 193.879 61.6536 198.658 64.5723 204.493C66.2832 207.914 68.8106 210.433 72.0838 211.978C73.1661 212.488 74.3096 212.882 75.5067 213.156C74.8876 215.264 74.5492 217.674 74.8896 220.206C75.4451 224.337 77.7343 227.971 81.5098 230.715C84.5101 232.894 87.6876 234 90.9538 234C94.5809 234 97.6572 232.658 100.072 231.005C102.621 235.248 106.695 237.969 111.682 238.72C112.678 238.87 113.667 238.946 114.618 238.946C118.627 238.946 122.179 237.623 124.985 235.102C128.158 237.946 131.87 239.443 135.779 239.443C137.468 239.443 139.192 239.161 140.905 238.605C145.074 237.25 148.193 234.249 149.984 229.967C151.774 234.249 154.891 237.249 159.062 238.604C160.774 239.161 162.499 239.443 164.188 239.443C164.188 239.443 164.188 239.443 164.189 239.443C168.098 239.443 171.81 237.946 174.983 235.102C177.789 237.624 181.341 238.947 185.35 238.947C186.301 238.947 187.289 238.87 188.285 238.72C193.273 237.969 197.347 235.248 199.895 231.005C202.31 232.659 205.387 234 209.013 234C212.28 234 215.457 232.894 218.458 230.715C222.233 227.971 224.523 224.337 225.078 220.205C225.418 217.674 225.08 215.264 224.461 213.156C225.658 212.882 226.801 212.488 227.883 211.978C231.157 210.433 233.684 207.914 235.395 204.493C238.314 198.657 237.46 193.878 236.063 190.724C236.24 190.622 236.417 190.515 236.595 190.404C241.573 187.3 244.315 182.421 244.315 176.665C244.315 172.285 242.429 168.395 238.917 165.37C243.558 164.998 247.343 162.952 249.926 159.397C253.309 154.74 253.959 149.181 251.756 143.743C251.677 143.549 251.596 143.358 251.514 143.171C254.498 141.441 257.998 138.077 259.066 131.64C259.894 126.661 258.563 121.942 255.31 118.206C257.051 116.864 258.741 115.113 259.955 112.863Z" fill="#A29360"/>
<path d="M198.781 51.291C192.861 43.1427 182.921 48.1322 182.921 48.1322C182.921 48.1322 185.513 39.9328 176.859 35.4417C168.205 30.9492 161.683 38.8501 161.683 38.8501C161.683 38.8501 162.347 24.7168 149.928 24.7168C137.509 24.7168 138.173 38.8501 138.173 38.8501C138.173 38.8501 131.651 30.9492 122.997 35.4417C114.343 39.9328 116.935 48.1322 116.935 48.1322C116.935 48.1322 106.995 43.1427 101.075 51.291C95.1537 59.4404 105.383 69.6605 105.382 69.6605L119.532 81.1738L135.993 86.3212L149.928 54.6652L163.862 86.3212L180.324 81.174L194.473 69.6607C194.473 69.6607 204.702 59.4406 198.781 51.291Z" fill="#DCB853"/>
<path d="M84.0699 63.6854C74.4911 66.7975 76.1649 77.7929 76.1649 77.7929C76.1649 77.7929 69.1674 72.7944 62.2221 79.6368C55.2753 86.4791 60.7741 95.1233 60.7741 95.1233C60.7741 95.1233 47.5377 90.1243 43.7 101.935C39.8623 113.747 53.5092 117.482 53.5092 117.482C53.5092 117.482 43.9797 121.244 45.578 130.863C47.1749 140.481 55.7741 140.55 55.7741 140.55C55.7741 140.55 47.9572 148.461 53.8772 156.609C59.7978 164.759 72.6789 158.189 72.6788 158.189L88.0008 148.29L97.9834 134.224L72.1823 111.19L106.595 107.72L106.786 90.4729L100.209 73.4585C100.209 73.4585 93.6503 60.5721 84.0699 63.6854Z" fill="#DCB853"/>
<path d="M60.3906 176.665C60.3905 186.737 71.3648 188.543 71.3648 188.543C71.3648 188.543 64.4486 193.653 68.81 202.373C73.1707 211.094 83.0911 208.536 83.0911 208.536C83.0911 208.536 74.2466 219.58 84.2934 226.879C94.3406 234.179 102.111 222.355 102.111 222.355C102.111 222.355 102.743 232.58 112.385 234.032C122.026 235.486 124.749 227.329 124.749 227.329C124.749 227.329 129.858 237.208 139.436 234.096C149.017 230.983 146.749 216.702 146.749 216.702L142.069 199.071L131.777 185.231L101.897 202.651L109.231 168.85L92.8868 163.338L74.6726 164.336C74.6729 164.336 60.3901 166.592 60.3906 176.665Z" fill="#DCB853"/>
<path d="M160.527 234.095C170.106 237.208 175.215 227.329 175.215 227.329C175.215 227.329 177.938 235.486 187.579 234.032C197.221 232.58 197.853 222.355 197.853 222.355C197.853 222.355 205.623 234.179 215.67 226.879C225.717 219.579 216.873 208.536 216.873 208.536C216.873 208.536 226.793 211.094 231.154 202.373C235.515 193.653 228.599 188.543 228.599 188.543C228.599 188.543 239.573 186.737 239.573 176.665C239.574 166.591 225.291 164.336 225.291 164.335L207.077 163.338L190.733 168.85L198.067 202.65L168.187 185.23L157.894 199.071L153.215 216.702C153.215 216.702 150.946 230.983 160.527 234.095Z" fill="#DCB853"/>
<path d="M246.089 156.61C252.009 148.461 244.192 140.55 244.192 140.55C244.192 140.55 252.791 140.481 254.388 130.862C255.987 121.244 246.457 117.483 246.457 117.483C246.457 117.483 260.104 113.747 256.266 101.936C252.428 90.1246 239.192 95.1235 239.192 95.1235C239.192 95.1235 244.691 86.4793 237.744 79.637C230.799 72.7943 223.801 77.7933 223.801 77.7933C223.801 77.7933 225.475 66.7977 215.897 63.6854C206.316 60.5721 199.757 73.4588 199.757 73.4588L193.18 90.4732L193.371 107.72L227.784 111.19L201.983 134.225L211.966 148.291L227.288 158.19C227.287 158.189 240.168 164.759 246.089 156.61Z" fill="#DCB853"/>
<path d="M296.963 136.469C296.963 77.3045 262.005 26.3082 211.619 3L215.913 18.4901L197.395 22.6448C241.943 41.2226 273.256 85.1875 273.256 136.469C273.256 184.029 246.322 225.296 206.877 245.855L220.512 265.452C266.07 240.485 296.963 192.086 296.963 136.469Z" fill="white" stroke="#0047A0" stroke-width="2.37066"/>
<path d="M149.981 198.818C141.566 198.818 133.4 197.169 125.71 193.915C118.285 190.775 111.618 186.28 105.894 180.556C100.17 174.832 95.6748 168.165 92.5348 160.739C89.2819 153.051 87.6328 144.885 87.6328 136.469C87.6328 128.053 89.2815 119.887 92.5348 112.198C95.675 104.773 100.17 98.1059 105.894 92.382C111.618 86.6575 118.285 82.1628 125.71 79.0223C133.401 75.7693 141.566 74.1201 149.981 74.1201C158.396 74.1201 166.562 75.769 174.252 79.0223C181.677 82.1627 188.344 86.6574 194.068 92.382C199.792 98.1056 204.287 104.773 207.427 112.199C210.68 119.888 212.329 128.054 212.329 136.469C212.329 144.884 210.68 153.05 207.427 160.74C204.287 168.165 199.792 174.832 194.068 180.556C188.344 186.281 181.677 190.775 174.251 193.915C166.562 197.168 158.396 198.818 149.981 198.818Z" fill="white"/>
<path d="M149.981 74.8318C158.3 74.8318 166.373 76.4617 173.975 79.6775C181.315 82.7821 187.906 87.2258 193.565 92.8852C199.225 98.5442 203.668 105.135 206.773 112.476C209.988 120.078 211.619 128.15 211.619 136.469C211.619 144.788 209.988 152.861 206.773 160.463C203.668 167.803 199.225 174.394 193.565 180.053C187.906 185.712 181.315 190.156 173.975 193.261C166.373 196.476 158.3 198.107 149.981 198.107C141.662 198.107 133.59 196.476 125.988 193.261C118.647 190.156 112.056 185.712 106.397 180.053C100.738 174.394 96.2948 167.803 93.1901 160.463C89.9744 152.861 88.3443 144.788 88.3443 136.469C88.3443 128.15 89.9744 120.078 93.1901 112.476C96.2948 105.136 100.738 98.5442 106.397 92.8852C112.056 87.2258 118.647 82.7821 125.988 79.6775C133.589 76.4617 141.662 74.8318 149.981 74.8318ZM149.981 73.4092C141.47 73.4092 133.211 75.0775 125.434 78.3675C117.924 81.5437 111.181 86.0899 105.391 91.8794C99.6023 97.6684 95.0562 104.412 91.8801 111.921C88.5902 119.699 86.9219 127.958 86.9219 136.469C86.9219 144.98 88.59 153.239 91.8801 161.017C95.0564 168.526 99.6023 175.27 105.391 181.059C111.181 186.848 117.924 191.394 125.434 194.57C133.212 197.86 141.47 199.529 149.981 199.529C158.492 199.529 166.751 197.86 174.529 194.57C182.039 191.394 188.782 186.848 194.571 181.059C200.361 175.27 204.906 168.526 208.083 161.017C211.373 153.239 213.041 144.98 213.041 136.469C213.041 127.958 211.373 119.699 208.083 111.921C204.906 104.412 200.36 97.6683 194.571 91.8793C188.782 86.0898 182.039 81.5437 174.529 78.3674C166.751 75.0775 158.492 73.4092 149.981 73.4092Z" fill="#A29360"/>
<path d="M197.318 168.026C214.746 141.883 207.682 106.561 181.539 89.1341C155.397 71.7057 120.076 78.7694 102.647 104.913C89.5759 124.52 94.8738 151.01 114.481 164.082C134.088 177.153 160.579 171.854 173.65 152.248" fill="#CD2E3A"/>
<path d="M102.647 104.912C93.9318 117.983 97.4649 135.643 110.536 144.358C123.607 153.072 141.267 149.54 149.982 136.469C158.697 123.398 176.357 119.864 189.428 128.58C202.499 137.294 206.032 154.955 197.318 168.026C179.889 194.168 144.568 201.232 118.425 183.804C92.2831 166.376 85.2177 131.055 102.647 104.912Z" fill="#0047A0"/>
<path d="M26.7068 136.469C26.7068 85.1875 58.02 41.2227 102.568 22.6448L84.0501 18.4901L88.3434 3C37.9576 26.3079 3 77.3044 3 136.469C3 192.086 33.8916 240.485 79.4512 265.452L93.0864 245.855C53.6407 225.296 26.7068 184.029 26.7068 136.469Z" fill="white" stroke="#0047A0" stroke-width="2.37066"/>
<path d="M252.924 254.728L235.338 237.142L234.501 237.946C212.562 258.991 182.794 271.922 149.993 271.922C117.192 271.922 87.4024 258.991 65.4641 237.946L64.6254 237.142L46.207 255.578L47.0741 256.416C73.7247 282.158 110.013 298 149.993 298H149.997C189.975 298 226.259 282.159 252.909 256.419L253.777 255.58L252.924 254.728Z" fill="#0047A0"/>
<path d="M64.0547 239.443L64.6247 237.143L93.3718 244.704L92.8016 247.005L64.0547 239.443Z" fill="#0047A0"/>
<path d="M235.907 239.444L235.337 237.144L206.59 244.705L207.16 247.005L235.907 239.444Z" fill="#0047A0"/>
<path d="M221.074 264.229L222.665 266.797L229.29 262.695L233.075 268.807L229.879 270.785L227.513 266.963L214.804 274.834L213.386 272.544L219.329 268.863L217.738 266.295L209.539 271.372L208.121 269.082L222.475 260.193C222.295 259.589 222.066 258.886 221.787 258.085C221.508 257.285 221.223 256.58 220.932 255.97L207.965 264.001L206.547 261.712L223.015 251.513C223.697 252.615 224.264 253.907 224.716 255.389C225.169 256.872 225.447 257.838 225.552 258.287L228.794 256.279L230.212 258.569L221.074 264.229Z" fill="white"/>
<path d="M164.494 285.434L162.578 275.239L174.962 272.911L176.878 283.107L164.494 285.434ZM171.893 276.181L166.679 277.161L167.613 282.132L172.828 281.152L171.893 276.181ZM168.746 293.547L167.474 286.78L171.303 286.061L172.078 290.18L186.525 287.465L187.023 290.111L168.746 293.547ZM181.864 285.553L179.148 271.1L182.76 270.421L185.476 284.873L181.864 285.553Z" fill="white"/>
<path d="M127.059 284.91C125.65 285.354 123.93 285.393 121.9 285.027C119.996 284.683 118.43 284.052 117.201 283.133C115.972 282.213 115.448 281.255 115.628 280.256C115.817 279.211 116.646 278.476 118.118 278.051C119.589 277.627 121.285 277.587 123.207 277.934C125.238 278.3 126.831 278.937 127.987 279.843C129.143 280.75 129.627 281.725 129.439 282.77C129.261 283.753 128.467 284.466 127.059 284.91ZM115.767 275.902L116.2 273.506L131.32 276.232L130.887 278.629L115.767 275.902ZM116.473 290.829L117.483 285.229L121.399 285.936L120.845 289.001L134.932 291.541L134.475 294.075L116.473 290.829ZM124.924 280.944C124.336 280.624 123.643 280.392 122.846 280.248C122.012 280.098 121.245 280.067 120.546 280.154C119.846 280.242 119.46 280.494 119.385 280.909C119.307 281.339 119.582 281.71 120.21 282.021C120.837 282.333 121.567 282.563 122.401 282.714C123.199 282.857 123.928 282.891 124.587 282.811C125.247 282.732 125.615 282.485 125.69 282.069C125.768 281.64 125.512 281.265 124.924 280.944ZM119.828 273.161L120.243 270.856L128.374 272.323L127.959 274.627L119.828 273.161ZM135.736 282.882L134.634 288.989L130.99 288.332L133.671 273.468L137.315 274.125L136.234 280.117L139.416 280.69L138.917 283.456L135.736 282.882Z" fill="white"/>
<path d="M76.0816 269.155C75.0997 268.713 73.8145 268.008 72.2251 267.04L69.0859 265.128L76.3445 253.208L83.9207 257.821L82.508 260.141L78.0708 257.439L73.6377 264.719L75.0544 265.581C75.8327 266.038 76.6757 266.477 77.5823 266.902C78.4885 267.326 79.1117 267.614 79.4508 267.765L78.0623 270.045C77.7229 269.894 77.0629 269.598 76.0816 269.155ZM81.619 277.859L86.7588 269.419L84.8236 268.241L80.1715 275.881L77.1502 274.041L87.137 257.641L90.1583 259.481L86.4558 265.561L88.3907 266.739L92.3368 260.259L95.358 262.099L84.6405 279.699L81.619 277.859Z" fill="white"/>
<path d="M149.982 193.365C181.405 193.365 206.878 167.892 206.878 136.469C206.878 105.046 181.405 79.5732 149.982 79.5732C118.559 79.5732 93.0859 105.046 93.0859 136.469C93.0859 167.892 118.559 193.365 149.982 193.365Z" stroke="#A29360" stroke-width="1.42239"/>
</svg>
