<svg width="300" height="300" viewBox="0 0 300 300" fill="none" xmlns="http://www.w3.org/2000/svg">
<path d="M23.4633 102.253C21.4158 101.376 37.2112 69.7854 37.2112 69.7854C37.2112 69.7854 47.1567 58.6699 48.6192 46.9696C49.7893 35.2692 60.027 39.3645 60.027 39.3645C56.8095 29.7116 64.1221 28.5415 64.1221 28.5415C68.5096 29.7116 80.7945 22.9839 80.7945 22.9839C90.1546 12.7461 117.358 3.97047 117.358 3.97047V2.50781H72.0192C57.9787 4.84799 60.6113 7.18819 54.1763 10.1132C48.0338 13.0382 49.7888 1.04531 48.6187 3.67805C46.5712 8.35812 39.5509 10.9907 38.6733 9.52822C21.7087 -1.00217 21.7087 6.01809 23.1701 10.6982C30.7751 24.4461 26.68 27.6643 22.2925 28.5411C25.5101 30.5886 28.7276 32.9288 27.8501 38.1939C26.3876 39.6565 23.755 45.5068 22.2925 52.5267C21.9999 66.8595 21.7075 101.669 22.5851 102.253C23.4625 102.838 23.4633 102.253 23.4633 102.253Z" fill="#D1AF48"/>
<path d="M24.6305 7.18555L39.5478 20.9335C38.3778 23.2736 35.4529 22.6884 32.8202 21.2259C29.895 19.4709 22.5829 8.94047 24.6305 7.18555Z" fill="#F8ECA8"/>
<path d="M45.1062 18.0067C45.1062 18.0067 42.7662 17.4218 43.0588 18.0067C43.6438 18.2993 43.0588 13.0341 40.7188 11.279C42.7662 11.5714 45.9838 9.81641 46.569 9.81641C44.814 12.7416 45.1062 18.0067 45.1062 18.0067Z" fill="#F8ECA8"/>
<path d="M41.598 30.297C35.7478 43.7524 26.973 72.7108 24.6319 84.9962C24.6319 57.7935 19.0743 40.8274 40.7198 28.5419C41.5973 28.2493 41.598 29.4195 41.598 30.297Z" fill="#F6E078"/>
<path d="M40.1289 24.1516C40.1289 21.8116 42.1764 20.0566 44.5164 20.0566C46.564 20.0566 48.6115 21.8116 48.6115 24.1516C48.6115 26.1992 46.564 28.2467 44.5164 28.2467C42.1764 28.2467 40.1289 26.1992 40.1289 24.1516Z" fill="#F6E078"/>
<path d="M50.9532 20.6446C64.7011 15.3792 93.6592 7.18918 105.945 4.849C78.7419 4.26387 61.7758 -1.58615 49.1981 19.7663C48.9057 20.9364 50.0757 20.9371 50.9532 20.6446Z" fill="#F6E078"/>
<path d="M47.4453 29.1279C50.6629 31.1756 55.9281 36.7333 55.0504 36.7333C52.1254 36.4407 49.7853 38.4884 49.2002 39.6583C49.4928 36.1483 47.7377 31.4681 47.4453 29.1279Z" fill="#F8ECA8"/>
<path d="M38.0906 24.7361C38.0906 24.7361 36.9207 26.7836 37.213 26.4912C37.7982 25.9061 31.0705 25.6137 28.7305 27.3686C29.608 25.3211 29.9004 21.811 30.193 20.9336C32.533 23.566 38.0906 24.7361 38.0906 24.7361Z" fill="#F8ECA8"/>
<path d="M60.0186 261.078C55.046 268.976 62.3586 271.901 62.3586 271.901C66.7461 271.023 80.786 277.751 80.786 277.751C96.5816 290.036 114.717 295.302 114.717 295.302L114.424 297.057C114.424 297.057 82.833 298.227 72.0104 296.764C57.3854 292.084 60.6025 292.961 54.1675 290.036C48.0249 287.111 49.78 299.104 48.6099 296.471C46.5624 291.791 38.9571 290.036 38.3721 291.499C21.4061 303.199 21.406 294.131 23.1611 289.451C36.909 275.411 22.5761 272.487 23.4535 272.779C26.3787 270.731 31.3515 269.854 30.4739 264.588C29.0114 262.834 24.6236 254.936 23.1611 248.208C20.8211 233.291 23.1611 197.897 23.1611 197.897H24.3311C27.8412 213.401 43.929 241.188 45.9763 242.359C50.0714 251.719 49.779 258.739 49.779 258.739C52.119 260.786 52.9966 263.419 60.0168 261.079" fill="#D1AF48"/>
<path d="M24.6342 294.426L39.5515 280.678C38.3815 277.168 36.0416 278.923 33.409 280.386C30.7764 282.141 22.5868 291.501 24.6342 294.426Z" fill="#F8ECA8"/>
<path d="M44.2211 283.021C44.2211 283.021 42.7584 282.728 43.051 282.436C42.1734 283.021 41.8809 286.823 40.7109 288.871C42.7584 288.578 45.976 290.333 46.5612 290.333C44.8062 287.408 44.2211 283.021 44.2211 283.021Z" fill="#F8ECA8"/>
<path d="M41.5982 270.146C33.7005 256.984 27.2654 225.393 24.6321 211.353C24.3395 238.555 19.952 257.861 40.7199 271.902C41.5975 271.902 41.5982 270.731 41.5982 270.146Z" fill="#F6E078"/>
<path d="M40.1289 276.29C40.1289 273.95 42.1764 272.195 44.5164 272.195C46.564 272.195 48.6115 273.95 48.6115 276.29C48.6115 278.63 46.564 280.386 44.5164 280.386C42.1764 280.386 40.1289 278.63 40.1289 276.29Z" fill="#F6E078"/>
<path d="M50.9492 276.591C71.7177 267.523 83.7108 283.318 101.26 293.264C83.4171 288.584 58.2618 280.686 50.3633 277.761L50.9492 276.591Z" fill="#F6E078"/>
<path d="M47.4422 271.03C50.3672 270.153 55.925 263.425 55.0473 263.425C49.7823 262.255 50.9522 262.84 49.1971 260.5C49.4897 264.303 46.5647 268.983 47.4422 271.03Z" fill="#F8ECA8"/>
<path d="M38.6747 274.252C38.6747 274.252 38.9673 272.497 39.2599 273.082C39.5523 273.374 33.4097 270.157 32.532 267.231C31.9471 269.571 28.7295 271.912 28.1445 272.497C31.3621 272.497 38.6747 274.252 38.6747 274.252Z" fill="#F8ECA8"/>
<path d="M275.015 100.784C274.43 97.5669 260.39 69.7778 260.39 69.7778C260.39 69.7778 249.275 54.8591 249.567 49.0093C249.86 32.6292 238.452 40.234 238.452 40.234C242.84 31.7513 234.357 28.5337 234.357 28.5337C232.017 29.7038 219.146 22.9761 219.146 22.9761C209.786 12.7382 182.582 3.96264 182.582 3.96264V2.5H232.601C246.348 4.84018 245.179 10.9827 248.688 9.81266C253.369 8.05774 250.443 2.79254 252.783 4.84016C257.171 8.35015 259.804 9.52025 260.389 8.05774C277.355 -2.47264 276.477 5.42515 275.306 10.6902C272.674 15.3703 270.041 18.588 269.456 21.2206C268.579 25.0231 270.626 27.6557 273.259 28.2408C270.041 30.2885 265.068 33.2135 272.089 38.1862C273.551 39.6488 275.014 45.4991 276.476 52.2266C276.769 66.5594 278.231 107.218 277.354 107.803C276.476 108.68 275.014 100.783 275.014 100.783" fill="#D1AF48"/>
<path d="M272.096 5.13281L258.348 18.8808C256.886 21.2208 255.423 15.9558 260.688 10.398C265.369 5.42538 269.464 5.42537 272.096 5.13281Z" fill="#F8ECA8"/>
<path d="M251.321 18.3062C251.321 18.3062 253.662 18.0136 253.369 18.3062C253.661 18.0136 251.614 10.9933 253.369 9.82324C250.444 10.1158 251.614 11.2859 249.566 11.2859C251.321 14.2109 251.321 18.3062 251.321 18.3062Z" fill="#F8ECA8"/>
<path d="M255.713 29.4131C261.27 44.3304 267.706 74.1665 270.924 85.8674C261.563 63.6361 244.013 53.6917 253.081 29.4131H255.713Z" fill="#F6E078"/>
<path d="M250.152 23.5678C250.152 21.5203 251.907 19.4727 254.247 19.4727C256.587 19.4727 258.342 21.5203 258.342 23.5678C258.342 25.9078 256.587 27.6629 254.247 27.6629C251.907 27.6629 250.152 25.9078 250.152 23.5678Z" fill="#F6E078"/>
<path d="M248.984 20.6446C235.236 15.3793 206.278 7.18924 193.992 4.84906C219.734 4.26393 242.256 -0.123584 250.154 18.3045C250.154 19.4744 249.861 20.9372 248.984 20.6446Z" fill="#F6E078"/>
<path d="M249.569 27.374C245.474 27.6666 239.039 29.1291 238.746 29.1291C241.964 29.1291 241.379 34.9794 241.964 36.1495C243.719 32.6394 249.276 29.7143 249.569 27.374Z" fill="#F8ECA8"/>
<path d="M260.391 24.152C260.391 24.152 261.853 26.1996 261.268 25.6146C262.438 26.4922 265.948 26.4922 268.581 26.7846C267.996 24.7371 267.411 21.812 267.118 20.9346C264.778 23.567 260.391 24.152 260.391 24.152Z" fill="#F8ECA8"/>
<path d="M248.684 290.035C245.174 288.573 245.467 293.253 231.426 295.3L186.965 296.178V295.008C186.965 295.008 209.488 286.818 219.726 277.165C219.726 277.165 228.209 269.852 238.446 269.267C238.446 269.267 246.929 266.927 241.956 256.982C241.956 256.982 251.609 262.832 251.609 249.962C251.609 244.111 262.139 228.609 262.139 228.609C262.139 228.609 275.595 202.575 275.887 199.065C275.887 199.065 276.765 192.922 277.642 193.8C278.52 194.385 278.227 232.119 277.935 246.452C276.472 253.179 274.132 259.029 272.962 260.784C271.5 264.295 275.302 267.22 278.52 269.267C275.887 269.852 271.792 274.24 272.67 277.75C273.255 280.675 275.01 281.552 277.642 285.94C279.105 291.498 282.322 299.103 263.309 290.62C261.262 290.62 261.847 287.11 255.119 294.715C252.194 292.083 254.534 290.328 248.684 290.035Z" fill="#D1AF48"/>
<path d="M275.604 292.971L262.734 280.101C259.516 278.638 259.223 282.441 264.489 287.999C267.706 291.216 272.094 293.556 275.604 292.971Z" fill="#F8ECA8"/>
<path d="M255.127 280.683C255.127 280.683 256.59 281.268 256.297 280.975C256.59 280.975 254.542 288.288 254.542 289.75C251.617 289.458 251.325 287.995 249.277 287.995C251.032 285.07 255.127 280.683 255.127 280.683Z" fill="#F8ECA8"/>
<path d="M258.349 268.692C267.124 254.359 272.097 218.966 275.023 207.265C259.52 239.148 247.526 247.631 256.009 268.4L258.349 268.692Z" fill="#F6E078"/>
<path d="M255.129 274.538C255.129 272.197 256.884 270.442 259.224 270.442C261.272 270.442 263.319 272.197 263.319 274.538C263.319 276.878 261.272 278.633 259.224 278.633C256.884 278.633 255.129 276.878 255.129 274.538Z" fill="#F6E078"/>
<path d="M253.374 271.315C248.693 269.853 246.353 268.683 242.551 269.56C243.721 269.56 244.891 264.295 245.768 262.54C247.523 266.05 253.081 268.975 253.374 271.315Z" fill="#F6E078"/>
<path d="M263.895 271.614C263.895 271.614 264.48 269.567 264.187 269.859C264.772 269.274 272.085 264.302 270.915 264.302C270.037 266.642 275.01 269.274 274.717 269.859C270.915 269.859 263.895 271.614 263.895 271.614Z" fill="#F8ECA8"/>
<path d="M201.594 291.504C222.947 287.701 256.001 274.831 253.953 274.245C238.45 267.518 228.798 272.49 213.295 283.606L201.594 291.504Z" fill="#F6E078"/>
<path d="M149.526 276.604C210.367 276.604 255.473 228.737 255.473 149.467C255.473 78.095 210.369 23.8291 149.526 23.8291C88.6849 23.8291 44 78.9533 44 150.18C44 221.406 89.3964 275.178 150.239 275.178" fill="#FEE46E"/>
<path d="M150.51 275.92C209.047 275.92 256.517 219.094 256.517 150.609C256.517 81.8335 209.046 23.8408 150.51 23.8408C91.6821 23.8408 42.4648 81.8335 42.4648 150.609C42.4648 219.094 91.6821 275.92 150.51 275.92Z" stroke="#AA8800" stroke-width="4.82778"/>
<path d="M86.9073 34.6738L59.418 61.2279V236.948L86.9073 264.616V34.6753V34.6738Z" fill="#CE0F25"/>
<path d="M137.833 14.7568L110.344 21.9746V278.476L137.833 285.694V14.764V14.7568Z" fill="#CE0F25"/>
<path d="M161.232 14.7568L160.965 284.803L188.454 277.853V19.754L161.231 14.764L161.232 14.7568Z" fill="#CE0F25"/>
<path d="M212.128 32.9062L239.625 55.8561V240.002L211.836 264.044V33.1771" fill="#CE0F25"/>
<path d="M152.421 288.339C208.185 285.354 268.343 238.629 268.848 147.044C265.711 73.1329 222.054 20.5152 161.468 11.171C95.8779 6.52698 32.6672 65.1431 30.5286 143.27C29.7799 222.161 75.3675 284.982 152.421 288.337V288.339Z" stroke="#AA8800" stroke-width="14.2572"/>
<path d="M150.694 287.996C215.923 287.996 268.867 225.984 268.867 149.64C268.867 73.295 215.923 11.2832 150.694 11.2832C85.4641 11.2832 30.4727 73.295 30.4727 149.64C30.4727 225.984 85.4641 287.996 150.694 287.996Z" stroke="#F6E078" stroke-width="11.1153"/>
<path d="M150.538 284.146C214.28 285.511 265.329 222.909 265.329 146.564C260.289 70.2197 213.617 18.9407 157.655 14.9687C96.5399 10.2994 35.4179 69.149 33.9922 146.921C33.9922 223.265 85.3081 284.146 150.538 284.146Z" stroke="#F8ECA8" stroke-width="3.42173"/>
<path d="M149.054 291.774C212.796 293.139 273.113 235.527 273.113 142.43C269.854 66.0851 213.559 9.81616 157.597 7.98268C97.5511 0.818423 29.3005 61.4501 27.1619 139.578C22.8847 213.428 70.9928 288.923 149.054 291.774Z" stroke="#D1AF48" stroke-width="3.27916"/>
<path d="M54.7863 17.1658C64.8086 13.3275 85.9198 7.35688 94.8747 5.651C75.2454 5.6279 64.179 3.9655 53.506 16.5261C53.2929 17.3791 54.1466 17.3791 54.7863 17.1658Z" fill="#F8ECA8"/>
<path d="M247.601 17.7359C236.461 13.668 212.997 7.34049 203.043 5.53253C224.861 5.50801 242.687 5.70659 248.311 18.1272C248.548 19.0312 248.312 17.9619 247.601 17.7359Z" fill="#F8ECA8"/>
<path d="M55.9251 278.316C66.3454 280.884 87.0885 288.029 95.4161 291.74C79.3112 280.518 71.1718 272.836 55.2394 277.061C54.5775 277.639 55.2781 278.126 55.9251 278.316Z" fill="#F8ECA8"/>
<path d="M248.1 275.906C236.934 278.644 214.695 286.309 205.762 290.304C223.061 278.174 231.814 269.855 248.84 274.543C249.545 275.177 248.793 275.702 248.1 275.906Z" fill="#F8ECA8"/>
<path d="M258.805 265.869C261.94 255.985 269.69 226.556 272.43 215.975C260.286 239.314 250.366 246.053 257.488 266.69C258.162 267.356 258.643 266.574 258.805 265.869Z" fill="#F8ECA8"/>
<path d="M39.2882 269.034C34.841 260.789 27.9449 239.215 25.0742 221.72C25.1565 241.931 23.9423 256.617 39.0339 269.561" fill="#F8ECA8"/>
<path d="M37.1502 37.81C32.4134 47.4029 26.9424 70.0029 25.0703 79.2815C26.3032 60.0114 21.6388 44.4596 38.851 31.5283C39.7079 31.3311 37.3753 37.1745 37.1502 37.81Z" fill="#F8ECA8"/>
<path d="M256.341 37.2544C257.945 47.8322 266.031 69.3189 268.736 78.358C259.435 61.8482 247.424 48.5547 254.143 31.1295C254.733 30.4776 256.162 36.6043 256.341 37.2544Z" fill="#F8ECA8"/>
<path d="M41.5859 23.9805C41.5859 22.5987 42.795 21.5625 44.1768 21.5625C45.3859 21.5625 46.5949 22.5988 46.5949 23.9805C46.5949 25.1896 45.3859 26.3987 44.1768 26.3987C42.795 26.3987 41.5859 25.1897 41.5859 23.9805Z" fill="#F8ECA8"/>
<path d="M251.621 24.0518C251.621 22.67 252.83 21.6338 254.212 21.6338C255.421 21.6338 256.63 22.67 256.63 24.0518C256.63 25.2609 255.421 26.47 254.212 26.47C252.83 26.47 251.621 25.2609 251.621 24.0518Z" fill="#F8ECA8"/>
<path d="M256.941 274.124C256.941 272.742 258.15 271.706 259.532 271.706C260.741 271.706 261.95 272.742 261.95 274.124C261.95 275.333 260.741 276.542 259.532 276.542C258.15 276.542 256.941 275.333 256.941 274.124Z" fill="#F8ECA8"/>
<path d="M41.668 276.334C41.668 274.952 42.877 273.916 44.2588 273.916C45.4679 273.916 46.677 274.952 46.677 276.334C46.677 277.543 45.4679 278.752 44.2588 278.752C42.877 278.752 41.668 277.543 41.668 276.334Z" fill="#F8ECA8"/>
</svg>
