<svg width="300" height="300" viewBox="0 0 300 300" fill="none" xmlns="http://www.w3.org/2000/svg">
<path d="M150.655 298C75.8412 298 78.2708 228.334 78.2708 228.334V121.409H223.036V228.334C223.036 228.334 225.57 298 150.655 298Z" fill="#005BBF"/>
<path d="M150.655 298C75.8412 298 78.2708 228.334 78.2708 228.334V121.409H223.036V228.334C223.036 228.334 225.57 298 150.655 298Z" stroke="black" stroke-width="1.24565"/>
<path d="M150.02 54.1156C150.02 54.1156 134.585 46.6832 119.984 57.6263C119.984 57.6263 93.7105 53.8731 91.777 78.7818C91.6993 79.7903 91.5409 81.6477 92.0101 82.1889C92.4793 82.7301 92.9485 83.7387 92.9485 84.4308C92.9485 85.1287 93.4176 85.5162 93.576 85.8237C93.7314 86.1343 94.1229 86.5987 94.2006 87.9148C94.2783 89.2309 94.0452 89.849 95.2973 91.1651C96.5464 92.4812 96.6241 96.2758 96.6241 97.3583C96.6241 98.4408 97.4071 101.46 97.9539 102.082C98.5008 102.7 99.4391 104.246 99.4391 105.563C99.4391 106.879 99.986 110.517 99.7499 111.442C99.5169 112.371 101.157 113.533 102.646 113.998C104.131 114.462 122.59 120.421 149.494 119.957C176.401 119.493 186.089 118.076 197.206 114.074C198.924 113.456 199.238 112.063 199.083 111.288C198.924 110.517 199.083 108.041 199.552 107.42C200.021 106.802 203.15 101.848 202.522 100.919C201.898 99.9905 201.898 97.9764 202.522 97.2045C203.15 96.4296 205.107 92.706 205.493 91.1651C205.881 89.6213 205.932 87.8024 206.649 87.2641C207.37 86.7258 207.612 84.9809 207.749 84.6171C207.89 84.2503 208.412 83.1146 209.142 82.597C209.142 82.597 210.498 76.3033 209.662 73.2097C208.831 70.1131 204.136 56.7981 185.053 59.5871C185.053 59.5871 170.87 48.9547 150.014 54.1156" fill="#D81126"/>
<path d="M150.02 54.1156C150.02 54.1156 134.585 46.6832 119.984 57.6263C119.984 57.6263 93.7105 53.8731 91.777 78.7818C91.6993 79.7903 91.5409 81.6477 92.0101 82.1889C92.4793 82.7301 92.9485 83.7387 92.9485 84.4308C92.9485 85.1287 93.4176 85.5162 93.576 85.8238C93.7314 86.1343 94.1229 86.5987 94.2006 87.9148C94.2783 89.2309 94.0452 89.849 95.2973 91.1651C96.5464 92.4812 96.6241 96.2758 96.6241 97.3583C96.6241 98.4408 97.4071 101.46 97.9539 102.082C98.5008 102.7 99.4391 104.246 99.4391 105.563C99.4391 106.879 99.986 110.517 99.7499 111.442C99.5169 112.371 101.157 113.533 102.646 113.998C104.131 114.462 122.59 120.421 149.494 119.957C176.401 119.493 186.089 118.076 197.206 114.074C198.924 113.456 199.238 112.063 199.083 111.288C198.924 110.517 199.083 108.041 199.552 107.42C200.021 106.802 203.15 101.848 202.522 100.919C201.898 99.9905 201.898 97.9764 202.522 97.2045C203.15 96.4296 205.107 92.706 205.493 91.1651C205.881 89.6213 205.932 87.8024 206.649 87.2641C207.37 86.7258 207.612 84.9809 207.749 84.6171C207.89 84.2503 208.412 83.1146 209.142 82.597C209.142 82.597 210.498 76.3033 209.662 73.2097C208.831 70.1131 204.136 56.7981 185.053 59.5871C185.053 59.5871 170.87 48.9547 150.014 54.1156H150.02Z" stroke="black" stroke-width="1.867"/>
<path d="M201.659 100.485C143.052 82.1123 97.8828 99.5738 97.8828 99.5738C97.8828 99.5738 98.3012 101.6 98.8211 102.218C99.3441 102.836 100.073 104.282 100.073 105.368C100.073 106.45 100.178 108 100.178 108.825C100.178 109.647 99.5383 113.35 102.882 113.306C102.882 113.306 143.617 97.4917 196.66 114.119C196.66 114.119 198.112 112.83 198.166 110.972C198.217 109.115 198.528 107.154 199.26 106.122C199.989 105.09 201.656 101.866 201.656 100.485" fill="#BCAC0B"/>
<path d="M147.323 197.165H121.877C121.877 197.165 119.373 219.663 138.979 226.477V228.541H143.151V231.224C143.151 231.224 135.955 237.621 142.21 244.95V247.222H143.256V250.833H144.4V256.712C144.4 256.712 143.462 277.717 122.657 287.779V289.018H178.208V287.779C157.406 277.717 156.464 256.712 156.464 256.712V250.833H157.609V247.222H158.652V244.95C164.909 237.621 157.713 231.224 157.713 231.224V228.541H161.885V226.477C181.492 219.663 178.988 197.165 178.988 197.165H147.32" fill="#C8B100" fill-opacity="0.941176"/>
<path d="M147.323 197.165H121.877C121.877 197.165 119.373 219.663 138.979 226.477V228.541H143.151V231.224C143.151 231.224 135.955 237.621 142.21 244.95V247.222H143.256V250.833H144.4V256.712C144.4 256.712 143.462 277.717 122.657 287.779V289.018H178.208V287.779C157.406 277.717 156.464 256.712 156.464 256.712V250.833H157.609V247.222H158.652V244.95C164.909 237.621 157.713 231.224 157.713 231.224V228.541H161.885V226.477C181.492 219.663 178.988 197.165 178.988 197.165H147.32H147.323Z" stroke="black" stroke-width="1.24565"/>
<path d="M138.143 226.167H162.704M138.98 228.024H161.87M143.151 231.121H157.543M142.21 245.208H158.637M143.307 246.938H157.648M143.307 250.449H157.594M134.548 278.96H166.302M125.58 286.235H175.324M123.703 287.318H177.251" stroke="black" stroke-width="0.312157"/>
<path d="M150.646 195.836C159.605 195.836 166.869 188.647 166.869 179.78C166.869 170.913 159.605 163.723 150.646 163.723C141.687 163.723 134.422 170.913 134.422 179.78C134.422 188.647 141.687 195.836 150.646 195.836Z" fill="#CCCCCC"/>
<path d="M150.646 195.836C159.605 195.836 166.869 188.647 166.869 179.78C166.869 170.913 159.605 163.723 150.646 163.723C141.687 163.723 134.422 170.913 134.422 179.78C134.422 188.647 141.687 195.836 150.646 195.836Z" stroke="black" stroke-width="1.24565"/>
<path d="M112.895 148.658H102.779V138.644H93.8109V148.658H83.6953V157.531H93.8109V167.542H102.779V157.531H112.895V148.658Z" fill="#CCCCCC"/>
<path d="M112.895 148.658H102.779V138.644H93.8109V148.658H83.6953V157.531H93.8109V167.542H102.779V157.531H112.895V148.658Z" stroke="black" stroke-width="1.24565"/>
<path d="M218.027 148.658H207.912V138.644H198.941V148.658H188.828V157.531H198.941V167.542H207.912V157.531H218.027V148.658Z" fill="#CCCCCC"/>
<path d="M218.027 148.658H207.912V138.644H198.941V148.658H188.828V157.531H198.941V167.542H207.912V157.531H218.027V148.658Z" stroke="black" stroke-width="1.24565"/>
<path d="M164.75 136.076H154.634V126.064H145.666V136.076H135.551V144.952H145.666V154.963H154.634V144.952H164.75V136.076Z" fill="#CCCCCC"/>
<path d="M164.75 136.076H154.634V126.064H145.666V136.076H135.551V144.952H145.666V154.963H154.634V144.952H164.75V136.076Z" stroke="black" stroke-width="1.24565"/>
<path d="M112.895 192.004H102.779V181.992H93.8109V192.004H83.6953V200.879H93.8109V210.891H102.779V200.879H112.895V192.004Z" fill="#CCCCCC"/>
<path d="M112.895 192.004H102.779V181.992H93.8109V192.004H83.6953V200.879H93.8109V210.891H102.779V200.879H112.895V192.004Z" stroke="black" stroke-width="1.24565"/>
<path d="M218.027 192.004H207.912V181.992H198.941V192.004H188.828V200.879H198.941V210.891H207.912V200.879H218.027V192.004Z" fill="#CCCCCC"/>
<path d="M218.027 192.004H207.912V181.992H198.941V192.004H188.828V200.879H198.941V210.891H207.912V200.879H218.027V192.004Z" stroke="black" stroke-width="1.24565"/>
<path d="M112.895 235.779H102.779V225.765H93.8109V235.779H83.6953V244.655H93.8109V254.663H102.779V244.655H112.895V235.779Z" fill="#CCCCCC"/>
<path d="M112.895 235.779H102.779V225.765H93.8109V235.779H83.6953V244.655H93.8109V254.663H102.779V244.655H112.895V235.779Z" stroke="black" stroke-width="1.24565"/>
<path d="M218.027 235.779H207.912V225.765H198.941V235.779H188.828V244.655H198.941V254.663H207.912V244.655H218.027V235.779Z" fill="#CCCCCC"/>
<path d="M218.027 235.779H207.912V225.765H198.941V235.779H188.828V244.655H198.941V254.663H207.912V244.655H218.027V235.779Z" stroke="black" stroke-width="1.24565"/>
<path d="M150.51 32.6821C155.886 32.6821 160.246 28.37 160.246 23.0493C160.246 17.7286 155.886 13.4165 150.51 13.4165C145.134 13.4165 140.777 17.7286 140.777 23.0493C140.777 28.37 145.134 32.6821 150.51 32.6821Z" fill="#005BBF"/>
<path d="M150.51 32.6821C155.886 32.6821 160.246 28.37 160.246 23.0493C160.246 17.7286 155.886 13.4165 150.51 13.4165C145.134 13.4165 140.777 17.7286 140.777 23.0493C140.777 28.37 145.134 32.6821 150.51 32.6821Z" stroke="black" stroke-width="1.24565"/>
<path d="M159.59 21.3458H151.611V8.57503H154.659V6.01969H151.611V3H149.029V6.01969H145.978V8.57503H149.029V21.3458H141.441V23.0494H149.029V23.1263H151.611V23.0494H159.59V21.3458Z" fill="#FFCC00"/>
<path d="M159.59 21.3458H151.611V8.57503H154.659V6.01969H151.611V3H149.029V6.01969H145.978V8.57503H149.029V21.3458H141.441V23.0494H149.029V23.1263H151.611V23.0494H159.59V21.3458Z" fill="#BCAC0B" stroke="black" stroke-width="0.621341"/>
<path d="M111.541 44.2078C111.541 44.2078 118.737 43.3826 122.906 45.033C122.906 45.033 118.127 50.4128 119.152 57.5198C119.675 61.134 120.404 62.9913 121.447 64.7452C122.49 66.502 123.635 70.1132 123.01 73.0027H124.367C124.367 73.0027 125.724 67.1201 123.429 63.8165C121.134 60.5158 119.986 55.973 122.281 51.2261C124.573 46.4792 127.911 44.6219 127.911 44.6219C131.769 46.1687 139.906 44.7224 142.199 43.0721C144.491 41.4188 145.638 39.1503 141.365 38.9433C137.091 38.7363 129.791 38.8398 124.785 42.5575C124.785 42.5575 122.177 39.5614 109.141 41.0077C96.1061 42.4539 86.6839 47.9639 83.8001 59.5872C82.3418 65.4698 87.8672 77.8531 92.9773 80.8462C92.9773 80.8462 92.8219 78.8351 93.3419 77.3888C93.3419 77.3888 84.6338 67.7382 87.2427 58.759C89.8485 49.7799 100.278 43.8973 111.541 44.2078Z" fill="#FFCC00"/>
<path d="M111.541 44.2078C111.541 44.2078 118.737 43.3826 122.906 45.033C122.906 45.033 118.127 50.4128 119.152 57.5198C119.675 61.134 120.404 62.9913 121.447 64.7452C122.49 66.502 123.635 70.1132 123.01 73.0027H124.367C124.367 73.0027 125.724 67.1201 123.429 63.8165C121.134 60.5158 119.986 55.973 122.281 51.2261C124.573 46.4792 127.911 44.6219 127.911 44.6219C131.769 46.1687 139.906 44.7224 142.199 43.0721C144.491 41.4188 145.638 39.1503 141.365 38.9433C137.091 38.7363 129.791 38.8398 124.785 42.5575C124.785 42.5575 122.177 39.5614 109.141 41.0077C96.1061 42.4539 86.6839 47.9639 83.8001 59.5872C82.3418 65.4698 87.8672 77.8531 92.9773 80.8462C92.9773 80.8462 92.8219 78.8351 93.3419 77.3888C93.3419 77.3888 84.6338 67.7382 87.2427 58.759C89.8485 49.7799 100.278 43.8973 111.541 44.2078Z" fill="#BCAC0B" stroke="black" stroke-width="0.808635"/>
<path d="M136.038 42.4307C138.291 42.2503 140.096 41.8628 140.073 41.5582C140.049 41.2595 138.202 41.1589 135.949 41.3394C133.695 41.5198 131.89 41.9101 131.914 42.2118C131.938 42.5135 133.785 42.6111 136.038 42.4307Z" fill="white"/>
<path d="M127.83 44.5683C130.412 42.1697 135.809 40.543 138.86 41.241C141.908 41.936 138.31 42.3235 137.294 42.4004C136.278 42.4773 134.243 42.8647 131.272 42.4004" stroke="black" stroke-width="0.808635"/>
<path d="M189.332 44.9797C189.332 44.9797 182.139 44.1576 177.967 45.8079C177.967 45.8079 182.749 51.1847 181.721 58.2947C181.201 61.9089 180.471 63.7662 179.429 65.5201C178.383 67.271 177.238 70.8881 177.863 73.7776H176.506C176.506 73.7776 175.152 67.895 177.444 64.5914C179.739 61.2878 180.887 56.7479 178.592 52.001C176.3 47.2512 172.962 45.3938 172.962 45.3938C169.104 46.9436 160.969 45.4973 158.674 43.847C156.385 42.1937 155.235 39.9253 159.508 39.7182C163.784 39.5112 171.085 39.6147 176.091 43.3294C176.091 43.3294 178.696 40.3364 191.732 41.7826C204.77 43.2259 214.189 48.7388 217.073 60.3591C218.534 66.2417 213.006 78.6281 207.896 81.6211C207.896 81.6211 208.054 79.61 207.531 78.1637C207.531 78.1637 216.239 68.5132 213.633 59.534C211.024 50.5548 200.598 44.6722 189.332 44.9797Z" fill="#FFCC00"/>
<path d="M189.332 44.9797C189.332 44.9797 182.139 44.1576 177.967 45.8079C177.967 45.8079 182.749 51.1847 181.721 58.2947C181.201 61.9089 180.471 63.7662 179.429 65.5201C178.383 67.271 177.238 70.8881 177.863 73.7776H176.506C176.506 73.7776 175.152 67.895 177.444 64.5914C179.739 61.2878 180.887 56.7479 178.592 52.001C176.3 47.2512 172.962 45.3938 172.962 45.3938C169.104 46.9436 160.969 45.4973 158.674 43.847C156.385 42.1937 155.235 39.9253 159.508 39.7182C163.784 39.5112 171.085 39.6147 176.091 43.3294C176.091 43.3294 178.696 40.3364 191.732 41.7826C204.77 43.2259 214.189 48.7388 217.073 60.3591C218.534 66.2417 213.006 78.6281 207.896 81.6211C207.896 81.6211 208.054 79.61 207.531 78.1637C207.531 78.1637 216.239 68.5132 213.633 59.534C211.024 50.5548 200.598 44.6722 189.332 44.9797Z" fill="#BCAC0B" stroke="black" stroke-width="0.808635"/>
<path d="M164.835 43.2053C162.585 43.0249 160.777 42.6345 160.801 42.3328C160.828 42.0311 162.672 41.9335 164.925 42.114C167.178 42.2944 168.986 42.6848 168.962 42.9864C168.935 43.2881 167.089 43.3857 164.835 43.2053Z" fill="white"/>
<path d="M173.038 45.3437C170.459 42.9421 165.062 41.3184 162.011 42.0134C158.96 42.7114 162.558 43.0988 163.574 43.1757C164.593 43.2526 166.625 43.6401 169.598 43.1757" stroke="black" stroke-width="0.808635"/>
<path d="M143.761 37.0864V64.5415C143.447 67.2241 147.096 71.0423 149.705 72.178C149.705 72.178 155.858 70.1136 156.273 64.5415V35.5366H154.188V60.6168C154.086 63.1988 152.415 67.8422 150.12 68.5668C150.12 68.5668 145.638 67.8422 145.429 60.7204V36.2642L143.761 37.0864Z" fill="#FFCC00"/>
<path d="M143.761 37.0864V64.5415C143.447 67.2241 147.096 71.0423 149.705 72.178C149.705 72.178 155.858 70.1136 156.273 64.5415V35.5366H154.188V60.6168C154.086 63.1988 152.415 67.8422 150.12 68.5668C150.12 68.5668 145.638 67.8422 145.429 60.7204V36.2642L143.761 37.0864Z" fill="#BCAC0B" stroke="black" stroke-width="0.808635"/>
<path d="M82.3952 74.6352C84.227 74.6352 85.7123 73.1652 85.7123 71.3522C85.7123 69.5422 84.227 68.0693 82.3952 68.0693C80.5633 68.0693 79.0781 69.5392 79.0781 71.3522C79.0781 73.1652 80.5633 74.6352 82.3952 74.6352Z" fill="white"/>
<path d="M82.3952 74.6352C84.227 74.6352 85.7123 73.1652 85.7123 71.3522C85.7123 69.5422 84.227 68.0693 82.3952 68.0693C80.5633 68.0693 79.0781 69.5392 79.0781 71.3522C79.0781 73.1652 80.5633 74.6352 82.3952 74.6352Z" stroke="black" stroke-width="1.24565"/>
<path d="M80.3171 67.0878C82.1519 67.0878 83.6371 65.6179 83.6371 63.8049C83.6371 61.9948 82.1519 60.522 80.3171 60.522C78.4852 60.522 77 61.9919 77 63.8049C77 65.6179 78.4852 67.0878 80.3171 67.0878Z" fill="white"/>
<path d="M80.3171 67.0878C82.1519 67.0878 83.6371 65.6179 83.6371 63.8049C83.6371 61.9948 82.1519 60.522 80.3171 60.522C78.4852 60.522 77 61.9919 77 63.8049C77 65.6179 78.4852 67.0878 80.3171 67.0878Z" stroke="black" stroke-width="1.24565"/>
<path d="M81.4147 57.9545C83.2466 57.9545 84.7318 56.4846 84.7318 54.6687C84.7318 52.8557 83.2466 51.3857 81.4147 51.3857C79.5829 51.3857 78.0977 52.8557 78.0977 54.6687C78.0977 56.4846 79.5829 57.9545 81.4147 57.9545Z" fill="white"/>
<path d="M81.4147 57.9545C83.2466 57.9545 84.7318 56.4846 84.7318 54.6687C84.7318 52.8557 83.2466 51.3857 81.4147 51.3857C79.5829 51.3857 78.0977 52.8557 78.0977 54.6687C78.0977 56.4846 79.5829 57.9545 81.4147 57.9545Z" stroke="black" stroke-width="1.24565"/>
<path d="M86.5749 50.3681C88.4098 50.3681 89.8949 48.8982 89.8949 47.0852C89.8949 45.2692 88.4098 43.7993 86.5749 43.7993C84.743 43.7993 83.2578 45.2692 83.2578 47.0852C83.2578 48.8982 84.743 50.3681 86.5749 50.3681Z" fill="white"/>
<path d="M86.5749 50.3681C88.4098 50.3681 89.8949 48.8982 89.8949 47.0852C89.8949 45.2692 88.4098 43.7993 86.5749 43.7993C84.743 43.7993 83.2578 45.2692 83.2578 47.0852C83.2578 48.8982 84.743 50.3681 86.5749 50.3681Z" stroke="black" stroke-width="1.24565"/>
<path d="M92.6755 44.8354C94.5074 44.8354 95.9926 43.3654 95.9926 41.5495C95.9926 39.7365 94.5074 38.2666 92.6755 38.2666C90.8437 38.2666 89.3555 39.7365 89.3555 41.5495C89.3555 43.3654 90.8437 44.8354 92.6755 44.8354Z" fill="white"/>
<path d="M92.6755 44.8354C94.5074 44.8354 95.9926 43.3654 95.9926 41.5495C95.9926 39.7365 94.5074 38.2666 92.6755 38.2666C90.8437 38.2666 89.3555 39.7365 89.3555 41.5495C89.3555 43.3654 90.8437 44.8354 92.6755 44.8354Z" stroke="black" stroke-width="1.24565"/>
<path d="M100.54 41.7382C102.372 41.7382 103.857 40.2683 103.857 38.4523C103.857 36.6394 102.372 35.1694 100.54 35.1694C98.7079 35.1694 97.2227 36.6394 97.2227 38.4523C97.2227 40.2683 98.7079 41.7382 100.54 41.7382Z" fill="white"/>
<path d="M100.54 41.7382C102.372 41.7382 103.857 40.2683 103.857 38.4523C103.857 36.6394 102.372 35.1694 100.54 35.1694C98.7079 35.1694 97.2227 36.6394 97.2227 38.4523C97.2227 40.2683 98.7079 41.7382 100.54 41.7382Z" stroke="black" stroke-width="1.24565"/>
<path d="M108.751 40.2685C110.582 40.2685 112.068 38.7956 112.068 36.9826C112.068 35.1696 110.582 33.6997 108.751 33.6997C106.919 33.6997 105.434 35.1696 105.434 36.9826C105.434 38.7956 106.919 40.2685 108.751 40.2685Z" fill="white"/>
<path d="M108.751 40.2685C110.582 40.2685 112.068 38.7956 112.068 36.9826C112.068 35.1696 110.582 33.6997 108.751 33.6997C106.919 33.6997 105.434 35.1696 105.434 36.9826C105.434 38.7956 106.919 40.2685 108.751 40.2685Z" stroke="black" stroke-width="1.24565"/>
<path d="M116.574 39.8041C118.406 39.8041 119.891 38.3313 119.891 36.5183C119.891 34.7053 118.406 33.2354 116.574 33.2354C114.739 33.2354 113.254 34.7053 113.254 36.5183C113.254 38.3313 114.739 39.8041 116.574 39.8041Z" fill="white"/>
<path d="M116.574 39.8041C118.406 39.8041 119.891 38.3313 119.891 36.5183C119.891 34.7053 118.406 33.2354 116.574 33.2354C114.739 33.2354 113.254 34.7053 113.254 36.5183C113.254 38.3313 114.739 39.8041 116.574 39.8041Z" stroke="black" stroke-width="1.24565"/>
<path d="M123.61 40.4223C125.442 40.4223 126.927 38.9524 126.927 37.1394C126.927 35.3234 125.442 33.8535 123.61 33.8535C121.778 33.8535 120.293 35.3234 120.293 37.1394C120.293 38.9524 121.778 40.4223 123.61 40.4223Z" fill="white"/>
<path d="M123.61 40.4223C125.442 40.4223 126.927 38.9524 126.927 37.1394C126.927 35.3234 125.442 33.8535 123.61 33.8535C121.778 33.8535 120.293 35.3234 120.293 37.1394C120.293 38.9524 121.778 40.4223 123.61 40.4223Z" stroke="black" stroke-width="1.24565"/>
<path d="M143.676 37.9437C145.508 37.9437 146.997 36.4738 146.997 34.6608C146.997 32.8508 145.508 31.3779 143.676 31.3779C141.845 31.3779 140.359 32.8478 140.359 34.6608C140.359 36.4738 141.845 37.9437 143.676 37.9437Z" fill="white"/>
<path d="M143.676 37.9437C145.508 37.9437 146.997 36.4738 146.997 34.6608C146.997 32.8508 145.508 31.3779 143.676 31.3779C141.845 31.3779 140.359 32.8478 140.359 34.6608C140.359 36.4738 141.845 37.9437 143.676 37.9437Z" stroke="black" stroke-width="1.24565"/>
<path d="M150.087 39.6469C151.918 39.6469 153.407 38.177 153.407 36.364C153.407 34.551 151.918 33.0811 150.087 33.0811C148.255 33.0811 146.77 34.551 146.77 36.364C146.77 38.177 148.255 39.6469 150.087 39.6469Z" fill="white"/>
<path d="M150.087 39.6469C151.918 39.6469 153.407 38.177 153.407 36.364C153.407 34.551 151.918 33.0811 150.087 33.0811C148.255 33.0811 146.77 34.551 146.77 36.364C146.77 38.177 148.255 39.6469 150.087 39.6469Z" stroke="black" stroke-width="1.24565"/>
<path d="M150.087 63.953C151.918 63.953 153.407 62.4831 153.407 60.6701C153.407 58.8571 151.918 57.3872 150.087 57.3872C148.255 57.3872 146.77 58.8571 146.77 60.6701C146.77 62.4831 148.255 63.953 150.087 63.953Z" fill="white"/>
<path d="M150.087 63.953C151.918 63.953 153.407 62.4831 153.407 60.6701C153.407 58.8571 151.918 57.3872 150.087 57.3872C148.255 57.3872 146.77 58.8571 146.77 60.6701C146.77 62.4831 148.255 63.953 150.087 63.953Z" stroke="black" stroke-width="1.24565"/>
<path d="M218.683 76.7265C220.515 76.7265 222 75.2566 222 73.4406C222 71.6276 220.515 70.1577 218.683 70.1577C216.848 70.1577 215.363 71.6276 215.363 73.4406C215.363 75.2566 216.848 76.7265 218.683 76.7265Z" fill="white"/>
<path d="M218.683 76.7265C220.515 76.7265 222 75.2566 222 73.4406C222 71.6276 220.515 70.1577 218.683 70.1577C216.848 70.1577 215.363 71.6276 215.363 73.4406C215.363 75.2566 216.848 76.7265 218.683 76.7265Z" stroke="black" stroke-width="1.24565"/>
<path d="M220.399 68.5575C222.234 68.5575 223.719 67.0876 223.719 65.2746C223.719 63.4616 222.234 61.9917 220.399 61.9917C218.567 61.9917 217.082 63.4616 217.082 65.2746C217.082 67.0876 218.567 68.5575 220.399 68.5575Z" fill="white"/>
<path d="M220.399 68.5575C222.234 68.5575 223.719 67.0876 223.719 65.2746C223.719 63.4616 222.234 61.9917 220.399 61.9917C218.567 61.9917 217.082 63.4616 217.082 65.2746C217.082 67.0876 218.567 68.5575 220.399 68.5575Z" stroke="black" stroke-width="1.24565"/>
<path d="M218.997 60.0458C220.832 60.0458 222.317 58.5759 222.317 56.76C222.317 54.947 220.832 53.4771 218.997 53.4771C217.165 53.4771 215.68 54.947 215.68 56.76C215.68 58.5759 217.165 60.0458 218.997 60.0458Z" fill="white"/>
<path d="M218.997 60.0458C220.832 60.0458 222.317 58.5759 222.317 56.76C222.317 54.947 220.832 53.4771 218.997 53.4771C217.165 53.4771 215.68 54.947 215.68 56.76C215.68 58.5759 217.165 60.0458 218.997 60.0458Z" stroke="black" stroke-width="1.24565"/>
<path d="M215.399 51.9955C217.234 51.9955 218.719 50.5227 218.719 48.7097C218.719 46.8996 217.234 45.4268 215.399 45.4268C213.567 45.4268 212.082 46.8967 212.082 48.7097C212.082 50.5227 213.567 51.9955 215.399 51.9955Z" fill="white"/>
<path d="M215.399 51.9955C217.234 51.9955 218.719 50.5227 218.719 48.7097C218.719 46.8996 217.234 45.4268 215.399 45.4268C213.567 45.4268 212.082 46.8967 212.082 48.7097C212.082 50.5227 213.567 51.9955 215.399 51.9955Z" stroke="black" stroke-width="1.24565"/>
<path d="M209.297 46.4203C211.129 46.4203 212.614 44.9504 212.614 43.1374C212.614 41.3244 211.129 39.8545 209.297 39.8545C207.465 39.8545 205.977 41.3244 205.977 43.1374C205.977 44.9504 207.465 46.4203 209.297 46.4203Z" fill="white"/>
<path d="M209.297 46.4203C211.129 46.4203 212.614 44.9504 212.614 43.1374C212.614 41.3244 211.129 39.8545 209.297 39.8545C207.465 39.8545 205.977 41.3244 205.977 43.1374C205.977 44.9504 207.465 46.4203 209.297 46.4203Z" stroke="black" stroke-width="1.24565"/>
<path d="M201.945 42.8593C203.777 42.8593 205.262 41.3894 205.262 39.5764C205.262 37.7634 203.777 36.2935 201.945 36.2935C200.11 36.2935 198.625 37.7634 198.625 39.5764C198.625 41.3894 200.11 42.8593 201.945 42.8593Z" fill="white"/>
<path d="M201.945 42.8593C203.777 42.8593 205.262 41.3894 205.262 39.5764C205.262 37.7634 203.777 36.2935 201.945 36.2935C200.11 36.2935 198.625 37.7634 198.625 39.5764C198.625 41.3894 200.11 42.8593 201.945 42.8593Z" stroke="black" stroke-width="1.24565"/>
<path d="M193.579 40.9637C195.414 40.9637 196.899 39.4938 196.899 37.6808C196.899 35.8708 195.414 34.3979 193.579 34.3979C191.747 34.3979 190.262 35.8679 190.262 37.6808C190.262 39.4938 191.747 40.9637 193.579 40.9637Z" fill="white"/>
<path d="M193.579 40.9637C195.414 40.9637 196.899 39.4938 196.899 37.6808C196.899 35.8708 195.414 34.3979 193.579 34.3979C191.747 34.3979 190.262 35.8679 190.262 37.6808C190.262 39.4938 191.747 40.9637 193.579 40.9637Z" stroke="black" stroke-width="1.24565"/>
<path d="M185.911 40.3451C187.746 40.3451 189.231 38.8752 189.231 37.0593C189.231 35.2492 187.746 33.7764 185.911 33.7764C184.079 33.7764 182.594 35.2463 182.594 37.0593C182.594 38.8752 184.079 40.3451 185.911 40.3451Z" fill="white"/>
<path d="M185.911 40.3451C187.746 40.3451 189.231 38.8752 189.231 37.0593C189.231 35.2492 187.746 33.7764 185.911 33.7764C184.079 33.7764 182.594 35.2463 182.594 37.0593C182.594 38.8752 184.079 40.3451 185.911 40.3451Z" stroke="black" stroke-width="1.24565"/>
<path d="M178.962 39.4398C180.796 39.4398 182.282 37.9699 182.282 36.1569C182.282 34.3439 180.796 32.874 178.962 32.874C177.13 32.874 175.645 34.3439 175.645 36.1569C175.645 37.9699 177.13 39.4398 178.962 39.4398Z" fill="white"/>
<path d="M178.962 39.4398C180.796 39.4398 182.282 37.9699 182.282 36.1569C182.282 34.3439 180.796 32.874 178.962 32.874C177.13 32.874 175.645 34.3439 175.645 36.1569C175.645 37.9699 177.13 39.4398 178.962 39.4398Z" stroke="black" stroke-width="1.24565"/>
<path d="M183.446 66.3158C185.278 66.3158 186.763 64.843 186.763 63.03C186.763 61.22 185.278 59.7471 183.446 59.7471C181.614 59.7471 180.129 61.217 180.129 63.03C180.129 64.843 181.614 66.3158 183.446 66.3158Z" fill="white"/>
<path d="M183.446 66.3158C185.278 66.3158 186.763 64.843 186.763 63.03C186.763 61.22 185.278 59.7471 183.446 59.7471C181.614 59.7471 180.129 61.217 180.129 63.03C180.129 64.843 181.614 66.3158 183.446 66.3158Z" stroke="black" stroke-width="1.24565"/>
<path d="M185.168 59.9657C187 59.9657 188.485 58.4958 188.485 56.6828C188.485 54.8698 187 53.3999 185.168 53.3999C183.333 53.3999 181.848 54.8698 181.848 56.6828C181.848 58.4958 183.333 59.9657 185.168 59.9657Z" fill="white"/>
<path d="M185.168 59.9657C187 59.9657 188.485 58.4958 188.485 56.6828C188.485 54.8698 187 53.3999 185.168 53.3999C183.333 53.3999 181.848 54.8698 181.848 56.6828C181.848 58.4958 183.333 59.9657 185.168 59.9657Z" stroke="black" stroke-width="1.24565"/>
<path d="M157.282 38.952C159.117 38.952 160.602 37.4792 160.602 35.6662C160.602 33.8532 159.117 32.3833 157.282 32.3833C155.45 32.3833 153.965 33.8532 153.965 35.6662C153.965 37.4792 155.45 38.952 157.282 38.952Z" fill="white"/>
<path d="M157.282 38.952C159.117 38.952 160.602 37.4792 160.602 35.6662C160.602 33.8532 159.117 32.3833 157.282 32.3833C155.45 32.3833 153.965 33.8532 153.965 35.6662C153.965 37.4792 155.45 38.952 157.282 38.952Z" stroke="black" stroke-width="1.24565"/>
<path d="M141.048 38.0619C142.882 38.0619 144.368 36.592 144.368 34.776C144.368 32.966 142.882 31.4961 141.048 31.4961C139.216 31.4961 137.73 32.9631 137.73 34.776C137.73 36.592 139.216 38.0619 141.048 38.0619Z" fill="white"/>
<path d="M141.048 38.0619C142.882 38.0619 144.368 36.592 144.368 34.776C144.368 32.966 142.882 31.4961 141.048 31.4961C139.216 31.4961 137.73 32.9631 137.73 34.776C137.73 36.592 139.216 38.0619 141.048 38.0619Z" stroke="black" stroke-width="1.24565"/>
<path d="M137.141 37.9056C138.973 37.9056 140.458 36.4357 140.458 34.6227C140.458 32.8097 138.973 31.3398 137.141 31.3398C135.309 31.3398 133.824 32.8097 133.824 34.6227C133.824 36.4357 135.309 37.9056 137.141 37.9056Z" fill="white"/>
<path d="M137.141 37.9056C138.973 37.9056 140.458 36.4357 140.458 34.6227C140.458 32.8097 138.973 31.3398 137.141 31.3398C135.309 31.3398 133.824 32.8097 133.824 34.6227C133.824 36.4357 135.309 37.9056 137.141 37.9056Z" stroke="black" stroke-width="1.24565"/>
<path d="M116.059 66.3925C117.891 66.3925 119.379 64.9226 119.379 63.1066C119.379 61.2936 117.891 59.8237 116.059 59.8237C114.227 59.8237 112.742 61.2936 112.742 63.1066C112.742 64.9226 114.227 66.3925 116.059 66.3925Z" fill="white"/>
<path d="M116.059 66.3925C117.891 66.3925 119.379 64.9226 119.379 63.1066C119.379 61.2936 117.891 59.8237 116.059 59.8237C114.227 59.8237 112.742 61.2936 112.742 63.1066C112.742 64.9226 114.227 66.3925 116.059 66.3925Z" stroke="black" stroke-width="1.24565"/>
<path d="M115.087 58.5341C116.918 58.5341 118.407 57.0642 118.407 55.2512C118.407 53.4382 116.918 51.9683 115.087 51.9683C113.255 51.9683 111.77 53.4382 111.77 55.2512C111.77 57.0642 113.255 58.5341 115.087 58.5341Z" fill="white"/>
<path d="M115.087 58.5341C116.918 58.5341 118.407 57.0642 118.407 55.2512C118.407 53.4382 116.918 51.9683 115.087 51.9683C113.255 51.9683 111.77 53.4382 111.77 55.2512C111.77 57.0642 113.255 58.5341 115.087 58.5341Z" stroke="black" stroke-width="1.24565"/>
<path d="M117.43 50.9481C119.265 50.9481 120.75 49.4782 120.75 47.6652C120.75 45.8522 119.265 44.3823 117.43 44.3823C115.598 44.3823 114.113 45.8522 114.113 47.6652C114.113 49.4782 115.598 50.9481 117.43 50.9481Z" fill="white"/>
<path d="M117.43 50.9481C119.265 50.9481 120.75 49.4782 120.75 47.6652C120.75 45.8522 119.265 44.3823 117.43 44.3823C115.598 44.3823 114.113 45.8522 114.113 47.6652C114.113 49.4782 115.598 50.9481 117.43 50.9481Z" stroke="black" stroke-width="1.24565"/>
<path d="M132.012 38.642C133.847 38.642 135.332 37.1721 135.332 35.3591C135.332 33.5432 133.847 32.0732 132.012 32.0732C130.181 32.0732 128.695 33.5432 128.695 35.3591C128.695 37.1721 130.181 38.642 132.012 38.642Z" fill="white"/>
<path d="M132.012 38.642C133.847 38.642 135.332 37.1721 135.332 35.3591C135.332 33.5432 133.847 32.0732 132.012 32.0732C130.181 32.0732 128.695 33.5432 128.695 35.3591C128.695 37.1721 130.181 38.642 132.012 38.642Z" stroke="black" stroke-width="1.24565"/>
<path d="M126.501 40.8861C128.336 40.8861 129.821 39.4162 129.821 37.6032C129.821 35.7873 128.336 34.3174 126.501 34.3174C124.669 34.3174 123.184 35.7873 123.184 37.6032C123.184 39.4162 124.669 40.8861 126.501 40.8861Z" fill="white"/>
<path d="M126.501 40.8861C128.336 40.8861 129.821 39.4162 129.821 37.6032C129.821 35.7873 128.336 34.3174 126.501 34.3174C124.669 34.3174 123.184 35.7873 123.184 37.6032C123.184 39.4162 124.669 40.8861 126.501 40.8861Z" stroke="black" stroke-width="1.24565"/>
<path d="M121.222 45.2992C123.054 45.2992 124.539 43.8264 124.539 42.0134C124.539 40.2004 123.054 38.7305 121.222 38.7305C119.388 38.7305 117.902 40.2004 117.902 42.0134C117.902 43.8264 119.388 45.2992 121.222 45.2992Z" fill="white"/>
<path d="M121.222 45.2992C123.054 45.2992 124.539 43.8264 124.539 42.0134C124.539 40.2004 123.054 38.7305 121.222 38.7305C119.388 38.7305 117.902 40.2004 117.902 42.0134C117.902 43.8264 119.388 45.2992 121.222 45.2992Z" stroke="black" stroke-width="1.24565"/>
<path d="M150.087 43.3647C151.918 43.3647 153.407 41.8918 153.407 40.0788C153.407 38.2688 151.918 36.7959 150.087 36.7959C148.255 36.7959 146.77 38.2658 146.77 40.0788C146.77 41.8918 148.255 43.3647 150.087 43.3647Z" fill="white"/>
<path d="M150.087 43.3647C151.918 43.3647 153.407 41.8918 153.407 40.0788C153.407 38.2688 151.918 36.7959 150.087 36.7959C148.255 36.7959 146.77 38.2658 146.77 40.0788C146.77 41.8918 148.255 43.3647 150.087 43.3647Z" stroke="black" stroke-width="1.24565"/>
<path d="M150.087 49.5551C151.918 49.5551 153.407 48.0852 153.407 46.2722C153.407 44.4592 151.918 42.9893 150.087 42.9893C148.255 42.9893 146.77 44.4592 146.77 46.2722C146.77 48.0852 148.255 49.5551 150.087 49.5551Z" fill="white"/>
<path d="M150.087 49.5551C151.918 49.5551 153.407 48.0852 153.407 46.2722C153.407 44.4592 151.918 42.9893 150.087 42.9893C148.255 42.9893 146.77 44.4592 146.77 46.2722C146.77 48.0852 148.255 49.5551 150.087 49.5551Z" stroke="black" stroke-width="1.24565"/>
<path d="M150.087 56.2128C151.918 56.2128 153.407 54.7429 153.407 52.9299C153.407 51.1198 151.918 49.647 150.087 49.647C148.255 49.647 146.77 51.1169 146.77 52.9299C146.77 54.7429 148.255 56.2128 150.087 56.2128Z" fill="white"/>
<path d="M150.087 56.2128C151.918 56.2128 153.407 54.7429 153.407 52.9299C153.407 51.1198 151.918 49.647 150.087 49.647C148.255 49.647 146.77 51.1169 146.77 52.9299C146.77 54.7429 148.255 56.2128 150.087 56.2128Z" stroke="black" stroke-width="1.24565"/>
<path d="M161.586 38.1005C163.418 38.1005 164.903 36.6276 164.903 34.8146C164.903 33.0046 163.418 31.5317 161.586 31.5317C159.751 31.5317 158.266 33.0017 158.266 34.8146C158.266 36.6276 159.751 38.1005 161.586 38.1005Z" fill="white"/>
<path d="M161.586 38.1005C163.418 38.1005 164.903 36.6276 164.903 34.8146C164.903 33.0046 163.418 31.5317 161.586 31.5317C159.751 31.5317 158.266 33.0017 158.266 34.8146C158.266 36.6276 159.751 38.1005 161.586 38.1005Z" stroke="black" stroke-width="1.24565"/>
<path d="M166.125 37.1713C167.957 37.1713 169.442 35.6984 169.442 33.8854C169.442 32.0754 167.957 30.6025 166.125 30.6025C164.29 30.6025 162.805 32.0725 162.805 33.8854C162.805 35.6984 164.29 37.1713 166.125 37.1713Z" fill="white"/>
<path d="M166.125 37.1713C167.957 37.1713 169.442 35.6984 169.442 33.8854C169.442 32.0754 167.957 30.6025 166.125 30.6025C164.29 30.6025 162.805 32.0725 162.805 33.8854C162.805 35.6984 164.29 37.1713 166.125 37.1713Z" stroke="black" stroke-width="1.24565"/>
<path d="M171.247 37.9853C173.079 37.9853 174.564 36.5124 174.564 34.6994C174.564 32.8864 173.079 31.4165 171.247 31.4165C169.415 31.4165 167.93 32.8864 167.93 34.6994C167.93 36.5124 169.415 37.9853 171.247 37.9853Z" fill="white"/>
<path d="M171.247 37.9853C173.079 37.9853 174.564 36.5124 174.564 34.6994C174.564 32.8864 173.079 31.4165 171.247 31.4165C169.415 31.4165 167.93 32.8864 167.93 34.6994C167.93 36.5124 169.415 37.9853 171.247 37.9853Z" stroke="black" stroke-width="1.24565"/>
<path d="M184.075 51.9154C185.907 51.9154 187.395 50.4455 187.395 48.6325C187.395 46.8195 185.907 45.3496 184.075 45.3496C182.243 45.3496 180.758 46.8195 180.758 48.6325C180.758 50.4455 182.243 51.9154 184.075 51.9154Z" fill="white"/>
<path d="M184.075 51.9154C185.907 51.9154 187.395 50.4455 187.395 48.6325C187.395 46.8195 185.907 45.3496 184.075 45.3496C182.243 45.3496 180.758 46.8195 180.758 48.6325C180.758 50.4455 182.243 51.9154 184.075 51.9154Z" stroke="black" stroke-width="1.24565"/>
<path d="M176.407 40.9252C178.242 40.9252 179.727 39.4553 179.727 37.6423C179.727 35.8264 178.242 34.3564 176.407 34.3564C174.575 34.3564 173.09 35.8264 173.09 37.6423C173.09 39.4553 174.575 40.9252 176.407 40.9252Z" fill="white"/>
<path d="M176.407 40.9252C178.242 40.9252 179.727 39.4553 179.727 37.6423C179.727 35.8264 178.242 34.3564 176.407 34.3564C174.575 34.3564 173.09 35.8264 173.09 37.6423C173.09 39.4553 174.575 40.9252 176.407 40.9252Z" stroke="black" stroke-width="1.24565"/>
<path d="M181.101 45.4145C182.933 45.4145 184.418 43.9446 184.418 42.1286C184.418 40.3156 182.933 38.8457 181.101 38.8457C179.266 38.8457 177.781 40.3156 177.781 42.1286C177.781 43.9446 179.266 45.4145 181.101 45.4145Z" fill="white"/>
<path d="M181.101 45.4145C182.933 45.4145 184.418 43.9446 184.418 42.1286C184.418 40.3156 182.933 38.8457 181.101 38.8457C179.266 38.8457 177.781 40.3156 177.781 42.1286C177.781 43.9446 179.266 45.4145 181.101 45.4145Z" stroke="black" stroke-width="1.24565"/>
<path d="M149.876 94.5933L141.117 98.929L149 103.842L158.345 99.2189L149.876 94.5933Z" fill="white"/>
<path d="M149.876 94.5933L141.117 98.929L149 103.842L158.345 99.2189L149.876 94.5933Z" stroke="black" stroke-width="0.621341"/>
<path d="M130.728 95.5039L117.588 97.515C117.588 97.515 117.43 104.483 118.057 106.187L131.508 104.326C131.508 104.326 132.135 97.8256 130.728 95.5039Z" fill="white"/>
<path d="M130.728 95.5039L117.588 97.515C117.588 97.515 117.43 104.483 118.057 106.187L131.508 104.326C131.508 104.326 132.135 97.8256 130.728 95.5039Z" stroke="black" stroke-width="0.621341"/>
<path d="M129.266 97.9795C129.266 97.9795 121.341 98.7011 119.359 99.4258L119.464 104.173C119.464 104.173 124.679 103.244 129.475 102.83L129.266 97.9795Z" fill="#058E6E" fill-opacity="0.941176"/>
<path d="M129.266 97.9795C129.266 97.9795 121.341 98.7011 119.359 99.4258L119.464 104.173C119.464 104.173 124.679 103.244 129.475 102.83L129.266 97.9795Z" stroke="black" stroke-width="0.621341"/>
<path d="M168.192 95.877L181.328 97.8911C181.328 97.8911 181.487 104.856 180.859 106.56L167.409 104.702C167.409 104.702 166.781 98.1987 168.192 95.877Z" fill="white"/>
<path d="M168.192 95.877L181.328 97.8911C181.328 97.8911 181.487 104.856 180.859 106.56L167.409 104.702C167.409 104.702 166.781 98.1987 168.192 95.877Z" stroke="black" stroke-width="0.621341"/>
<path d="M169.651 98.3555C169.651 98.3555 177.576 99.0771 179.557 99.7988L179.452 104.546C179.452 104.546 174.238 103.617 169.441 103.206L169.651 98.3555Z" fill="#058E6E" fill-opacity="0.941176"/>
<path d="M169.651 98.3555C169.651 98.3555 177.576 99.0771 179.557 99.7988L179.452 104.546C179.452 104.546 174.238 103.617 169.441 103.206L169.651 98.3555Z" stroke="black" stroke-width="0.621341"/>
<path d="M97.8789 101.697C97.8789 101.697 143.971 84.7562 202.582 103.129M99.7556 111.448C99.7556 111.448 144.339 94.945 199.322 112.182M99.9648 101.076L108.933 103.655L102.675 110.262" stroke="black" stroke-width="0.621341"/>
<path d="M100.171 109.023L105.281 104.791L99.4414 103.655C99.4414 103.655 100.236 104.548 100.072 105.367C99.9106 106.186 100.12 108.301 100.171 109.023Z" fill="#FF0000"/>
<path d="M100.171 109.023L105.281 104.791L99.4414 103.655C99.4414 103.655 100.236 104.548 100.072 105.367C99.9106 106.186 100.12 108.301 100.171 109.023Z" stroke="black" stroke-width="0.621341"/>
<path d="M201.589 102.78L192.047 104.483L198.46 111.913" stroke="black" stroke-width="0.621341"/>
<path d="M198.774 109.283L195.176 105.565L200.337 105.101C200.337 105.101 198.929 106.03 198.929 106.805C198.929 107.58 199.088 108.662 198.774 109.283Z" fill="#FF0000"/>
<path d="M198.774 109.283L195.176 105.565L200.337 105.101C200.337 105.101 198.929 106.03 198.929 106.805C198.929 107.58 199.088 108.662 198.774 109.283Z" stroke="black" stroke-width="0.621341"/>
<path d="M111.644 101.73C112.457 101.73 113.117 101.206 113.117 100.559C113.117 99.9169 112.457 99.3934 111.644 99.3934C110.828 99.3934 110.168 99.9169 110.168 100.559C110.168 101.206 110.828 101.73 111.644 101.73ZM137.281 98.8374C138.097 98.8374 138.758 98.3139 138.758 97.6721C138.758 97.0244 138.097 96.5039 137.281 96.5039C136.468 96.5039 135.808 97.0244 135.808 97.6721C135.808 98.3139 136.468 98.8374 137.281 98.8374ZM137.281 102.966C138.097 102.966 138.758 102.443 138.758 101.798C138.758 101.153 138.097 100.633 137.281 100.633C136.468 100.633 135.808 101.153 135.808 101.798C135.808 102.443 136.468 102.966 137.281 102.966ZM162.518 99.0445C163.334 99.0445 163.994 98.5239 163.994 97.8762C163.994 97.2344 163.334 96.7109 162.518 96.7109C161.705 96.7109 161.045 97.2315 161.045 97.8762C161.045 98.5239 161.705 99.0445 162.518 99.0445ZM187.545 103.587C188.361 103.587 189.022 103.064 189.022 102.416C189.022 101.774 188.361 101.251 187.545 101.251C186.733 101.251 186.072 101.774 186.072 102.416C186.072 103.064 186.733 103.587 187.545 103.587ZM187.13 106.888C187.946 106.888 188.606 106.364 188.606 105.723C188.606 105.081 187.946 104.551 187.13 104.551C186.314 104.551 185.654 105.078 185.654 105.723C185.654 106.364 186.314 106.888 187.13 106.888ZM162.518 103.173C163.334 103.173 163.994 102.65 163.994 102.005C163.994 101.363 163.334 100.84 162.518 100.84C161.705 100.84 161.045 101.36 161.045 102.005C161.045 102.65 161.705 103.173 162.518 103.173ZM112.881 106.888C113.694 106.888 114.355 106.364 114.355 105.723C114.355 105.081 113.694 104.551 112.881 104.551C112.066 104.551 111.405 105.078 111.405 105.723C111.405 106.364 112.066 106.888 112.881 106.888Z" stroke="black" stroke-width="0.621341"/>
<path d="M97.0424 88.382C97.0424 88.382 97.2516 97.2577 103.091 96.0185C108.93 94.7793 108.306 87.5539 108.724 87.1428C109.139 86.7287 109.764 86.7287 109.764 86.7287C109.764 86.7287 110.598 93.7471 116.019 92.9219C121.442 92.0967 121.233 83.4281 120.609 81.9818L121.861 81.5678C121.861 81.5678 123.944 91.6827 130.201 90.2394C136.459 88.7931 135.834 82.3959 135.834 82.3959H136.315C136.315 82.3959 137.711 89.2072 142.716 88.7931C147.719 88.382 148.765 86.7287 148.137 79.9175L151.475 79.2993C151.475 79.2993 150.223 89.2072 156.269 89.0002C162.32 88.7931 162.526 84.0462 162.945 83.2211H163.856C163.856 83.2211 164.197 90.2394 169.202 90.2394C174.208 90.2394 175.248 84.2532 175.248 81.9818L180.137 82.1978C180.137 82.1978 175.041 91.4786 182.551 92.7178C190.058 93.9541 190.267 86.7287 190.267 86.7287H191.725C191.725 86.7287 191.516 96.0185 195.688 96.2255C199.857 96.4325 202.361 94.9863 202.776 88.175L205.071 89.0002C205.071 89.0002 203.081 100.011 195.27 98.0799C191.098 97.0507 189.846 92.3038 190.055 91.0645C190.055 91.0645 187.138 96.2225 181.505 94.5722C175.875 92.9219 176.5 89.0002 176.5 87.7609C176.5 87.7609 173.114 93.9156 168.365 92.5049C164.197 91.2686 162.526 89.8224 162.526 86.9328C162.526 86.9328 160.44 91.6797 156.269 91.4757C152.097 91.2686 150.014 88.7902 149.805 86.5217C149.805 86.5217 148.977 90.9581 143.338 91.2686C139.585 91.4756 137.499 89.6213 136.665 87.1399C136.665 87.1399 135.586 91.6354 130.201 92.3008C126.866 92.7149 123.528 90.8575 122.691 87.7609C122.691 87.7609 121.861 93.7441 116.437 94.5722C111.013 95.3974 109.761 91.6827 109.761 91.6827C109.761 91.6827 108.721 96.4325 104.34 97.4618C99.9591 98.494 97.0395 96.6396 95.9965 92.3038C94.9536 87.968 95.372 86.1106 95.372 86.1106L97.0394 88.3791" fill="#FFCC00"/>
<path d="M97.0424 88.382C97.0424 88.382 97.2516 97.2577 103.091 96.0185C108.93 94.7793 108.306 87.5539 108.724 87.1428C109.139 86.7287 109.764 86.7287 109.764 86.7287C109.764 86.7287 110.598 93.7471 116.019 92.9219C121.442 92.0967 121.233 83.4281 120.609 81.9818L121.861 81.5678C121.861 81.5678 123.944 91.6827 130.201 90.2394C136.459 88.7931 135.834 82.3959 135.834 82.3959H136.315C136.315 82.3959 137.711 89.2072 142.716 88.7931C147.719 88.382 148.765 86.7287 148.137 79.9175L151.475 79.2993C151.475 79.2993 150.223 89.2072 156.269 89.0002C162.32 88.7931 162.526 84.0462 162.945 83.2211H163.856C163.856 83.2211 164.197 90.2394 169.202 90.2394C174.208 90.2394 175.248 84.2532 175.248 81.9818L180.137 82.1978C180.137 82.1978 175.041 91.4786 182.551 92.7178C190.058 93.9541 190.267 86.7287 190.267 86.7287H191.725C191.725 86.7287 191.516 96.0185 195.688 96.2255C199.857 96.4325 202.361 94.9863 202.776 88.175L205.071 89.0002C205.071 89.0002 203.081 100.011 195.27 98.0799C191.098 97.0507 189.846 92.3038 190.055 91.0645C190.055 91.0645 187.138 96.2225 181.505 94.5722C175.875 92.9219 176.5 89.0002 176.5 87.7609C176.5 87.7609 173.114 93.9156 168.365 92.5049C164.197 91.2686 162.526 89.8224 162.526 86.9328C162.526 86.9328 160.44 91.6797 156.269 91.4757C152.097 91.2686 150.014 88.7902 149.805 86.5217C149.805 86.5217 148.977 90.9581 143.338 91.2686C139.585 91.4756 137.499 89.6213 136.665 87.1399C136.665 87.1399 135.586 91.6354 130.201 92.3008C126.866 92.7149 123.528 90.8575 122.691 87.7609C122.691 87.7609 121.861 93.7441 116.437 94.5722C111.013 95.3974 109.761 91.6827 109.761 91.6827C109.761 91.6827 108.721 96.4325 104.34 97.4618C99.9591 98.494 97.0395 96.6396 95.9965 92.3038C94.9536 87.968 95.372 86.1106 95.372 86.1106L97.0394 88.3791L97.0424 88.382Z" fill="#BCAC0B" stroke="black" stroke-width="0.808635"/>
<path d="M109.139 88.7724C110.281 88.7724 111.204 87.8585 111.204 86.7287C111.204 85.6019 110.281 84.6851 109.139 84.6851C107.998 84.6851 107.074 85.6019 107.074 86.7287C107.074 87.8585 107.998 88.7724 109.139 88.7724Z" fill="#FFCC00"/>
<path d="M109.139 88.7724C110.281 88.7724 111.204 87.8585 111.204 86.7287C111.204 85.6019 110.281 84.6851 109.139 84.6851C107.998 84.6851 107.074 85.6019 107.074 86.7287C107.074 87.8585 107.998 88.7724 109.139 88.7724Z" fill="#BCAC0B" stroke="black" stroke-width="0.808635"/>
<path d="M136.319 84.4663C137.46 84.4663 138.384 83.5494 138.384 82.4226C138.384 81.2928 137.46 80.3789 136.319 80.3789C135.177 80.3789 134.254 81.2928 134.254 82.4226C134.254 83.5494 135.177 84.4663 136.319 84.4663Z" fill="#FFCC00"/>
<path d="M136.319 84.4663C137.46 84.4663 138.384 83.5494 138.384 82.4226C138.384 81.2928 137.46 80.3789 136.319 80.3789C135.177 80.3789 134.254 81.2928 134.254 82.4226C134.254 83.5494 135.177 84.4663 136.319 84.4663Z" fill="#BCAC0B" stroke="black" stroke-width="0.808635"/>
<path d="M163.866 85.2646C165.007 85.2646 165.931 84.3478 165.931 83.2209C165.931 82.0912 165.007 81.1772 163.866 81.1772C162.724 81.1772 161.801 82.0912 161.801 83.2209C161.801 84.3478 162.724 85.2646 163.866 85.2646Z" fill="#FFCC00"/>
<path d="M163.866 85.2646C165.007 85.2646 165.931 84.3478 165.931 83.2209C165.931 82.0912 165.007 81.1772 163.866 81.1772C162.724 81.1772 161.801 82.0912 161.801 83.2209C161.801 84.3478 162.724 85.2646 163.866 85.2646Z" fill="#BCAC0B" stroke="black" stroke-width="0.808635"/>
<path d="M191.199 89.6123C192.34 89.6123 193.264 88.6954 193.264 87.5686C193.264 86.4388 192.34 85.5249 191.199 85.5249C190.06 85.5249 189.137 86.4388 189.137 87.5686C189.137 88.6954 190.06 89.6123 191.199 89.6123Z" fill="#FFCC00"/>
<path d="M191.199 89.6123C192.34 89.6123 193.264 88.6954 193.264 87.5686C193.264 86.4388 192.34 85.5249 191.199 85.5249C190.06 85.5249 189.137 86.4388 189.137 87.5686C189.137 88.6954 190.06 89.6123 191.199 89.6123Z" fill="#BCAC0B" stroke="black" stroke-width="0.808635"/>
<path d="M148.875 82.1888H146.998C146.529 84.0462 142.54 85.2085 142.54 85.2085C142.071 83.7386 143.087 81.6476 143.087 81.6476C138.473 80.4853 138.473 78.8586 138.473 78.8586C139.175 77.3118 143.4 77.0811 143.4 77.0811C142.304 75.6881 142.54 73.4433 142.54 73.4433C145.355 73.6001 147.701 76.3831 147.701 76.3831C147.701 76.3831 144.886 74.9931 145.199 70.0362C145.199 70.0362 146.762 69.9622 147.701 70.9648C147.701 70.9648 147.701 65.6264 149.969 65.0083H150.202C152.47 65.6264 152.47 70.9648 152.47 70.9648C153.408 69.9622 154.971 70.0362 154.971 70.0362C155.285 74.9901 152.47 76.3831 152.47 76.3831C152.47 76.3831 154.816 73.6001 157.631 73.4433C157.631 73.4433 157.867 75.6851 156.77 77.0811C156.77 77.0811 160.996 77.3118 161.698 78.8586C161.698 78.8586 161.698 80.4853 157.084 81.6476C157.084 81.6476 158.1 83.7386 157.631 85.2085C157.631 85.2085 153.642 84.0462 153.172 82.1888H148.872" fill="#FFCC00"/>
<path d="M148.875 82.1888H146.998C146.529 84.0462 142.54 85.2085 142.54 85.2085C142.071 83.7386 143.087 81.6476 143.087 81.6476C138.473 80.4853 138.473 78.8586 138.473 78.8586C139.175 77.3118 143.4 77.0811 143.4 77.0811C142.304 75.6881 142.54 73.4433 142.54 73.4433C145.355 73.6001 147.701 76.3831 147.701 76.3831C147.701 76.3831 144.886 74.9931 145.199 70.0362C145.199 70.0362 146.762 69.9622 147.701 70.9648C147.701 70.9648 147.701 65.6264 149.969 65.0083H150.202C152.47 65.6264 152.47 70.9648 152.47 70.9648C153.408 69.9622 154.971 70.0362 154.971 70.0362C155.285 74.9901 152.47 76.3831 152.47 76.3831C152.47 76.3831 154.816 73.6001 157.631 73.4433C157.631 73.4433 157.867 75.6851 156.77 77.0811C156.77 77.0811 160.996 77.3118 161.698 78.8586C161.698 78.8586 161.698 80.4853 157.084 81.6476C157.084 81.6476 158.1 83.7386 157.631 85.2085C157.631 85.2085 153.642 84.0462 153.172 82.1888H148.872H148.875Z" fill="#BCAC0B" stroke="black" stroke-width="0.808635"/>
<path d="M149.937 83.2448C152.026 83.2448 153.718 81.5708 153.718 79.5035C153.718 77.4391 152.026 75.7651 149.937 75.7651C147.852 75.7651 146.16 77.4391 146.16 79.5035C146.16 81.5708 147.852 83.2448 149.937 83.2448Z" fill="white"/>
<path d="M149.937 83.2448C152.026 83.2448 153.718 81.5708 153.718 79.5035C153.718 77.4391 152.026 75.7651 149.937 75.7651C147.852 75.7651 146.16 77.4391 146.16 79.5035C146.16 81.5708 147.852 83.2448 149.937 83.2448Z" stroke="black" stroke-width="0.499451"/>
<path d="M149.937 81.5468C151.079 81.5468 152.005 80.6329 152.005 79.5031C152.005 78.3763 151.079 77.4624 149.937 77.4624C148.798 77.4624 147.875 78.3763 147.875 79.5031C147.875 80.6329 148.798 81.5468 149.937 81.5468Z" fill="white"/>
<path d="M149.937 81.5468C151.079 81.5468 152.005 80.6329 152.005 79.5031C152.005 78.3763 151.079 77.4624 149.937 77.4624C148.798 77.4624 147.875 78.3763 147.875 79.5031C147.875 80.6329 148.798 81.5468 149.937 81.5468Z" stroke="black" stroke-width="0.312157"/>
<path d="M178.599 84.6112L180.434 85.0045C180.491 86.9181 184.149 88.8849 184.149 88.8849C184.917 87.5451 184.37 85.2914 184.37 85.2914C189.127 85.1199 189.471 83.5317 189.471 83.5317C189.115 81.8695 185.036 80.7604 185.036 80.7604C186.402 79.6277 186.653 77.3829 186.653 77.3829C183.868 76.9481 180.978 79.1811 180.978 79.1811C180.978 79.1811 184.029 78.4092 184.779 73.4996C184.779 73.4996 183.264 73.1003 182.137 73.8841C182.137 73.8841 183.273 68.664 181.19 67.5874L180.96 67.5371C178.611 67.6702 177.473 72.8903 177.473 72.8903C176.77 71.7102 175.225 71.4589 175.225 71.4589C173.863 76.2353 176.319 78.1873 176.319 78.1873C176.319 78.1873 174.619 74.9725 171.899 74.2331C171.899 74.2331 171.191 76.3773 171.965 77.9685C171.965 77.9685 167.787 77.3148 166.768 78.6812C166.768 78.6812 166.425 80.2695 170.686 82.3693C170.686 82.3693 169.246 84.2001 169.392 85.7351C169.392 85.7351 173.54 85.4334 174.395 83.715L176.226 84.1054L178.599 84.6112Z" fill="#FFCC00"/>
<path d="M178.599 84.6112L180.434 85.0045C180.491 86.9181 184.149 88.8849 184.149 88.8849C184.917 87.5451 184.37 85.2914 184.37 85.2914C189.127 85.1199 189.471 83.5317 189.471 83.5317C189.115 81.8695 185.036 80.7604 185.036 80.7604C186.402 79.6277 186.653 77.3829 186.653 77.3829C183.868 76.9481 180.978 79.1811 180.978 79.1811C180.978 79.1811 184.029 78.4092 184.779 73.4996C184.779 73.4996 183.264 73.1003 182.137 73.8841C182.137 73.8841 183.273 68.664 181.19 67.5874L180.96 67.5371C178.611 67.6702 177.473 72.8903 177.473 72.8903C176.77 71.7102 175.225 71.4589 175.225 71.4589C173.863 76.2353 176.319 78.1873 176.319 78.1873C176.319 78.1873 174.619 74.9725 171.899 74.2331C171.899 74.2331 171.191 76.3773 171.965 77.9685C171.965 77.9685 167.787 77.3148 166.768 78.6812C166.768 78.6812 166.425 80.2695 170.686 82.3693C170.686 82.3693 169.246 84.2001 169.392 85.7351C169.392 85.7351 173.54 85.4334 174.395 83.715L176.226 84.1054L178.599 84.6112Z" fill="#BCAC0B" stroke="black" stroke-width="0.808635"/>
<path d="M177.325 85.4215C175.287 84.9868 173.99 82.9963 174.429 80.9763C174.869 78.9592 176.88 77.6727 178.921 78.1104C180.962 78.5452 182.259 80.5356 181.819 82.5556C181.377 84.5727 179.366 85.8592 177.325 85.4215Z" fill="white"/>
<path d="M177.325 85.4215C175.287 84.9868 173.99 82.9963 174.429 80.9763C174.869 78.9592 176.88 77.6727 178.921 78.1104C180.962 78.5452 182.259 80.5356 181.819 82.5556C181.377 84.5727 179.366 85.8592 177.325 85.4215Z" stroke="black" stroke-width="0.499451"/>
<path d="M177.69 83.7627C176.572 83.5261 175.864 82.4377 176.106 81.3345C176.345 80.2343 177.445 79.5304 178.559 79.77C179.674 80.0066 180.382 81.0979 180.143 82.1981C179.901 83.3013 178.802 84.0022 177.69 83.7627Z" fill="white"/>
<path d="M177.69 83.7627C176.572 83.5261 175.864 82.4377 176.106 81.3345C176.345 80.2343 177.445 79.5304 178.559 79.77C179.674 80.0066 180.382 81.0979 180.143 82.1981C179.901 83.3013 178.802 84.0022 177.69 83.7627Z" stroke="black" stroke-width="0.312157"/>
<path d="M120.321 84.2472L118.459 84.4897C118.241 86.3944 114.44 88.0654 114.44 88.0654C113.779 86.6694 114.508 84.466 114.508 84.466C109.781 83.9159 109.562 82.304 109.562 82.304C110.056 80.6803 114.209 79.8966 114.209 79.8966C112.939 78.6603 112.874 76.4037 112.874 76.4037C115.686 76.1937 118.384 78.6455 118.384 78.6455C118.384 78.6455 115.408 77.6311 115.058 72.6801C115.058 72.6801 116.6 72.3991 117.664 73.2746C117.664 73.2746 116.953 67.9805 119.113 67.0696L119.346 67.043C121.677 67.3565 122.389 72.6535 122.389 72.6535C123.186 71.5355 124.746 71.4054 124.746 71.4054C125.718 76.2765 123.112 78.0215 123.112 78.0215C123.112 78.0215 125.066 74.9574 127.836 74.4369C127.836 74.4369 128.368 76.6285 127.469 78.1516C127.469 78.1516 131.685 77.8292 132.591 79.2725C132.591 79.2725 132.806 80.8844 128.386 82.6382C128.386 82.6382 129.674 84.5755 129.405 86.0957C129.405 86.0957 125.296 85.4657 124.582 83.6852L122.72 83.9307L120.321 84.2472Z" fill="#FFCC00"/>
<path d="M120.321 84.2472L118.459 84.4897C118.241 86.3944 114.44 88.0654 114.44 88.0654C113.779 86.6694 114.508 84.466 114.508 84.466C109.781 83.9159 109.562 82.304 109.562 82.304C110.056 80.6803 114.209 79.8966 114.209 79.8966C112.939 78.6603 112.874 76.4037 112.874 76.4037C115.686 76.1937 118.384 78.6455 118.384 78.6455C118.384 78.6455 115.408 77.6311 115.058 72.6801C115.058 72.6801 116.6 72.3991 117.664 73.2746C117.664 73.2746 116.953 67.9805 119.113 67.0696L119.346 67.043C121.677 67.3565 122.389 72.6535 122.389 72.6535C123.186 71.5355 124.746 71.4054 124.746 71.4054C125.718 76.2765 123.112 78.0215 123.112 78.0215C123.112 78.0215 125.066 74.9574 127.836 74.4369C127.836 74.4369 128.368 76.6285 127.469 78.1516C127.469 78.1516 131.685 77.8292 132.591 79.2725C132.591 79.2725 132.806 80.8844 128.386 82.6382C128.386 82.6382 129.674 84.5755 129.405 86.0957C129.405 86.0957 125.296 85.4657 124.582 83.6852L122.72 83.9307L120.321 84.2472Z" fill="#BCAC0B" stroke="black" stroke-width="0.808635"/>
<path d="M121.519 85.1553C123.59 84.8832 125.045 83.0022 124.767 80.9526C124.492 78.906 122.592 77.4656 120.524 77.7407C118.453 78.0128 117.001 79.8938 117.276 81.9404C117.551 83.9871 119.451 85.4274 121.519 85.1553Z" fill="white"/>
<path d="M121.519 85.1553C123.59 84.8832 125.045 83.0022 124.767 80.9526C124.492 78.906 122.592 77.4656 120.524 77.7407C118.453 78.0128 117.001 79.8938 117.276 81.9404C117.551 83.9871 119.451 85.4274 121.519 85.1553Z" stroke="black" stroke-width="0.499451"/>
<path d="M121.295 83.4724C122.424 83.3246 123.219 82.2983 123.067 81.1774C122.917 80.0594 121.88 79.2757 120.751 79.4206C119.618 79.5714 118.823 80.5977 118.976 81.7156C119.125 82.8366 120.165 83.6203 121.295 83.4724Z" fill="white"/>
<path d="M121.295 83.4724C122.424 83.3246 123.219 82.2983 123.067 81.1774C122.917 80.0594 121.88 79.2757 120.751 79.4206C119.618 79.5714 118.823 80.5977 118.976 81.7156C119.125 82.8366 120.165 83.6203 121.295 83.4724Z" stroke="black" stroke-width="0.312157"/>
<path d="M204.789 92.1975C204.789 92.1975 203.842 89.7368 201.75 90.6211C199.658 91.5054 199.874 91.8278 198.003 91.7154C198.003 91.7154 197.274 89.5031 198.194 88.5478C198.194 88.5478 195.206 87.4417 194.578 84.8449C194.578 84.8449 196.18 83.0053 199.975 83.6915C199.975 83.6915 199.856 81.8253 200.376 81.003C200.376 81.003 204.452 82.2511 204.473 84.5019C204.473 84.5019 203.25 80.0862 205.402 76.8802C205.402 76.8802 207.312 77.6906 207.189 79.7017C207.189 79.7017 208.068 75.5641 213.719 76.6761C213.719 76.6761 210.655 79.3645 210.503 80.5949C210.351 81.8253 207.796 83.9222 207.751 84.6202C207.712 85.3152 207.401 86.5367 206.651 87.2672C205.901 87.9977 205.826 89.2369 205.886 89.6244C205.937 90.0177 205.758 91.7124 204.789 92.1975Z" fill="#FFCC00"/>
<path d="M204.789 92.1975C204.789 92.1975 203.842 89.7368 201.75 90.6211C199.658 91.5054 199.874 91.8278 198.003 91.7154C198.003 91.7154 197.274 89.5031 198.194 88.5478C198.194 88.5478 195.206 87.4417 194.578 84.8449C194.578 84.8449 196.18 83.0053 199.975 83.6915C199.975 83.6915 199.856 81.8253 200.376 81.003C200.376 81.003 204.452 82.2511 204.473 84.5019C204.473 84.5019 203.25 80.0862 205.402 76.8802C205.402 76.8802 207.312 77.6906 207.189 79.7017C207.189 79.7017 208.068 75.5641 213.719 76.6761C213.719 76.6761 210.655 79.3645 210.503 80.5949C210.351 81.8253 207.796 83.9222 207.751 84.6202C207.712 85.3152 207.401 86.5367 206.651 87.2672C205.901 87.9977 205.826 89.2369 205.886 89.6244C205.937 90.0177 205.758 91.7124 204.789 92.1975Z" fill="#BCAC0B" stroke="black" stroke-width="0.808635"/>
<path d="M201.733 87.2879C202.133 85.2619 204.118 83.9369 206.165 84.3333C206.747 84.4427 207.267 84.6852 207.71 85.0165C207.596 85.7174 207.279 86.6609 206.658 87.2672C205.908 87.9977 205.833 89.2369 205.89 89.6244C205.932 89.932 205.821 91.0381 205.307 91.739C205.113 91.7302 204.916 91.7124 204.721 91.674C202.677 91.2806 201.339 89.3168 201.733 87.2879Z" fill="white"/>
<path d="M201.733 87.2879C202.133 85.2619 204.118 83.9369 206.165 84.3333C206.747 84.4427 207.267 84.6852 207.71 85.0165C207.596 85.7174 207.279 86.6609 206.658 87.2672C205.908 87.9977 205.833 89.2369 205.89 89.6244C205.932 89.932 205.821 91.0381 205.307 91.739C205.113 91.7302 204.916 91.7124 204.721 91.674C202.677 91.2806 201.339 89.3168 201.733 87.2879Z" stroke="black" stroke-width="0.499451"/>
<path d="M203.417 87.6133C203.633 86.5072 204.717 85.7826 205.838 85.9985C206.346 86.0961 206.767 86.3771 207.066 86.7557C206.947 86.939 206.812 87.1165 206.657 87.2673C205.907 87.9978 205.832 89.2371 205.889 89.6245C205.898 89.7044 205.898 89.8404 205.883 90.0001C205.617 90.0563 205.333 90.0652 205.049 90.009C203.928 89.7931 203.199 88.7224 203.417 87.6133Z" fill="white"/>
<path d="M203.417 87.6133C203.633 86.5072 204.717 85.7826 205.838 85.9985C206.346 86.0961 206.767 86.3771 207.066 86.7557C206.947 86.939 206.812 87.1165 206.657 87.2673C205.907 87.9978 205.832 89.2371 205.889 89.6245C205.898 89.7044 205.898 89.8404 205.883 90.0001C205.617 90.0563 205.333 90.0652 205.049 90.009C203.928 89.7931 203.199 88.7224 203.417 87.6133Z" stroke="black" stroke-width="0.312157"/>
<path d="M95.2992 91.1682C95.2992 91.1682 96.393 88.7696 98.425 89.7752C100.46 90.7808 100.224 91.0913 102.104 91.0913C102.104 91.0913 102.961 88.9234 102.104 87.9179C102.104 87.9179 105.152 86.9892 105.935 84.4338C105.935 84.4338 104.45 82.4996 100.616 82.9639C100.616 82.9639 100.852 81.1036 100.382 80.2548C100.382 80.2548 96.2376 81.2604 96.0792 83.5052C96.0792 83.5052 97.5674 79.1693 95.61 75.8421C95.61 75.8421 93.6556 76.5371 93.6556 78.5512C93.6556 78.5512 93.0311 74.3692 87.3203 75.1441C87.3203 75.1441 90.2131 78.01 90.2937 79.2463C90.3714 80.4855 92.795 82.7303 92.795 83.4283C92.795 84.1233 93.0311 85.3625 93.7333 86.1374C94.4386 86.9123 94.4386 88.1485 94.3579 88.536C94.2802 88.9205 94.3579 90.6241 95.2992 91.1682Z" fill="#FFCC00"/>
<path d="M95.2992 91.1682C95.2992 91.1682 96.393 88.7696 98.425 89.7752C100.46 90.7808 100.224 91.0913 102.104 91.0913C102.104 91.0913 102.961 88.9234 102.104 87.9179C102.104 87.9179 105.152 86.9892 105.935 84.4338C105.935 84.4338 104.45 82.4996 100.616 82.9639C100.616 82.9639 100.852 81.1036 100.382 80.2548C100.382 80.2548 96.2376 81.2604 96.0792 83.5052C96.0792 83.5052 97.5674 79.1693 95.61 75.8421C95.61 75.8421 93.6556 76.5371 93.6556 78.5512C93.6556 78.5512 93.0311 74.3692 87.3203 75.1441C87.3203 75.1441 90.2131 78.01 90.2937 79.2463C90.3714 80.4855 92.795 82.7303 92.795 83.4283C92.795 84.1233 93.0311 85.3625 93.7333 86.1374C94.4386 86.9123 94.4386 88.1485 94.3579 88.536C94.2802 88.9205 94.3579 90.6241 95.2992 91.1682Z" fill="#BCAC0B" stroke="black" stroke-width="0.808635"/>
<path d="M98.6476 86.4511C98.3727 84.4014 96.4751 82.9641 94.4042 83.2362C93.8184 83.3131 93.2835 83.5231 92.8203 83.8277C92.892 84.5345 93.149 85.4928 93.7348 86.1376C94.44 86.9124 94.44 88.1487 94.3593 88.5361C94.2995 88.8378 94.3414 89.9499 94.8165 90.6774C95.0078 90.6804 95.205 90.6774 95.4023 90.6508C97.4702 90.3787 98.9255 88.4977 98.6476 86.4511Z" fill="white"/>
<path d="M98.6476 86.4511C98.3727 84.4014 96.4751 82.9641 94.4042 83.2362C93.8184 83.3131 93.2835 83.5231 92.8203 83.8277C92.892 84.5345 93.149 85.4928 93.7348 86.1376C94.44 86.9124 94.44 88.1487 94.3593 88.5361C94.2995 88.8378 94.3414 89.9499 94.8165 90.6774C95.0078 90.6804 95.205 90.6774 95.4023 90.6508C97.4702 90.3787 98.9255 88.4977 98.6476 86.4511Z" stroke="black" stroke-width="0.499451"/>
<path d="M96.9475 86.6726C96.798 85.5546 95.7581 84.7679 94.6285 84.9158C94.1115 84.9868 93.6752 85.2411 93.3555 85.599C93.466 85.7912 93.5856 85.9746 93.732 86.1373C94.4373 86.9122 94.4372 88.1484 94.3566 88.5359C94.3416 88.6128 94.3356 88.7459 94.3386 88.9085C94.6016 88.9825 94.8855 89.0061 95.1724 88.9706C96.302 88.8198 97.0969 87.7935 96.9475 86.6726Z" fill="white"/>
<path d="M96.9475 86.6726C96.798 85.5546 95.7581 84.7679 94.6285 84.9158C94.1115 84.9868 93.6752 85.2411 93.3555 85.599C93.466 85.7912 93.5856 85.9746 93.732 86.1373C94.4373 86.9122 94.4372 88.1484 94.3566 88.5359C94.3416 88.6128 94.3356 88.7459 94.3386 88.9085C94.6016 88.9825 94.8855 89.0061 95.1724 88.9706C96.302 88.8198 97.0969 87.7935 96.9475 86.6726Z" stroke="black" stroke-width="0.312157"/>
<path d="M101.633 113.77C101.633 113.77 143.619 97.4913 196.662 114.119" stroke="black" stroke-width="1.867"/>
<path d="M202.581 100.807C143.971 82.4348 97.2539 99.7751 97.2539 99.7751" stroke="black" stroke-width="0.621341"/>
<path d="M149.812 96.7432L145.117 99.0649L149.343 101.697L154.348 99.2186L149.812 96.7432Z" fill="#FF0000"/>
<path d="M149.812 96.7432L145.117 99.0649L149.343 101.697L154.348 99.2186L149.812 96.7432Z" stroke="black" stroke-width="0.621341"/>
</svg>
