<svg width="300" height="300" viewBox="0 0 300 300" fill="none" xmlns="http://www.w3.org/2000/svg">
<path d="M176.928 160.385L182.16 157.288L244.46 238.059L239.228 241.156L176.928 160.385Z" fill="#BC8810" stroke="#FDDD10" stroke-width="1.44975"/>
<path d="M123.97 160.377L118.738 157.28L56.4385 238.051L61.6703 241.148L123.97 160.377Z" fill="#BC8810" stroke="#FDDD10" stroke-width="1.44975"/>
<path d="M68.1295 217.187C62.1724 217.325 56.0269 223.091 53.3705 225.36C49.7597 228.517 48.7102 230.028 48.7102 230.028C47.6556 231.609 46.077 220.625 35.0917 232.135C24.1064 243.642 24.635 243.122 25.1564 248.381C25.6891 253.57 25.6891 256.732 25.1564 261.396C25.1564 261.396 37.7176 256.207 37.7176 254.622C37.7176 254.622 40.4272 268.469 48.1792 271.327C53.1446 273.133 54.9486 269.225 54.9486 269.225C54.9486 269.225 65.4057 261.401 65.9339 259.287C66.4626 257.183 100.394 291.719 151.031 291.189C201.662 291.719 235.593 257.18 236.122 259.287C236.646 261.394 247.103 269.225 247.103 269.225C247.103 269.225 248.911 273.141 253.877 271.327C261.624 268.469 264.334 254.622 264.334 254.622C264.334 256.203 276.9 261.396 276.9 261.396C276.371 256.731 276.371 253.575 276.9 248.381C277.428 243.115 277.95 243.641 266.964 232.135C255.984 220.626 254.403 231.604 253.346 230.023C253.346 230.023 252.291 228.519 248.681 225.361C244.998 222.204 234.541 212.273 227.239 220.172C194.662 255.004 159.902 256.205 151.028 256.205C142.145 256.205 107.389 254.997 74.8129 220.172C72.7666 217.946 70.4572 217.134 68.1295 217.187Z" fill="#FDDD10" stroke="#BC8810" stroke-width="1.44431"/>
<path d="M68.2035 220.537C67.021 220.572 65.6309 220.956 64.1761 221.645C60.8567 223.221 57.5465 226.201 55.5704 227.898C52.465 230.617 51.6195 231.727 51.4824 231.918V231.951C51.4123 232.046 51.3194 232.169 51.2097 232.279V232.293C50.146 233.471 48.5373 235.694 47.2802 237.621C47.3503 237.654 47.42 237.671 47.4669 237.703C50.2995 239.065 52.6553 241.575 56.874 246.1C64.2389 253.926 64.8117 254.182 67.1535 255.993C67.4677 256.085 67.6771 256.201 67.8638 256.289C68.5318 256.617 68.9603 256.92 69.5326 257.329C70.6687 258.135 72.1421 259.275 74.0604 260.702C77.9061 263.556 83.463 267.514 90.6048 271.535C104.896 279.582 125.456 287.844 151.035 287.844C176.604 287.844 197.169 279.577 211.46 271.534C218.602 267.509 224.164 263.55 228 260.702C229.923 259.275 231.396 258.133 232.532 257.329C233.1 256.92 233.533 256.613 234.201 256.289C234.388 256.198 234.592 256.082 234.912 255.993C237.248 254.182 237.83 253.926 245.187 246.1C249.414 241.575 251.761 239.065 254.598 237.703C254.668 237.668 254.738 237.654 254.784 237.621C253.534 235.694 251.916 233.471 250.853 232.293V232.279C250.759 232.17 250.643 232.046 250.575 231.951V231.93V231.918C250.436 231.727 249.589 230.617 246.483 227.898C244.509 226.201 241.192 223.217 237.872 221.645C236.208 220.856 234.634 220.465 233.354 220.544C232.08 220.623 231.017 221.012 229.699 222.437V222.46C196.317 258.158 159.28 259.56 151.037 259.56C142.799 259.56 105.762 258.158 72.3752 222.46V222.437C71.0621 221.016 69.9938 220.628 68.7203 220.544C68.5573 220.535 68.3943 220.532 68.2267 220.537H68.2035ZM43.6699 230.114C43.5301 230.105 43.3161 230.159 42.8389 230.331C41.8891 230.67 40.0523 231.795 37.5197 234.453C35.1429 236.944 33.3967 238.804 32.0234 240.322C32.3727 240.454 32.7242 240.606 33.078 240.778C35.529 242.026 37.6244 244.356 39.1703 247.909C37.9969 243.718 38.4063 240.436 39.2632 238.227C40.2736 235.645 42.1914 232.761 44.0724 230.366C44.0259 230.321 43.9563 230.279 43.933 230.256C43.8397 230.189 43.7933 230.121 43.6699 230.114ZM258.4 230.114C258.26 230.128 258.237 230.189 258.127 230.256C258.081 230.279 258.057 230.321 257.988 230.363C259.861 232.758 261.78 235.641 262.79 238.225C263.663 240.436 264.064 243.716 262.907 247.909C264.452 244.358 266.547 242.026 269.003 240.778C269.343 240.607 269.692 240.454 270.048 240.322C268.675 238.813 266.934 236.951 264.557 234.453C262.02 231.795 260.183 230.67 259.238 230.331C258.758 230.151 258.537 230.105 258.409 230.114H258.4ZM40.2877 251.026C40.5746 252.001 40.8177 252.988 41.0162 253.985C41.0162 253.985 41.6446 257.132 43.1253 260.579C44.6174 264.022 46.9988 267.318 49.3405 268.187C50.9583 268.774 51.1915 268.431 51.5102 268.21L51.6268 268.105C51.5102 267.549 51.1077 266.83 50.0345 265.41C48.5419 263.429 46.0421 260.616 43.2878 256.508C41.9938 254.557 41.0157 252.734 40.2849 251.026H40.2877ZM261.777 251.026C261.047 252.734 260.074 254.564 258.772 256.505C256.025 260.621 253.525 263.433 252.026 265.407C250.957 266.828 250.543 267.547 250.434 268.103L250.55 268.208C250.864 268.436 251.099 268.771 252.72 268.185C255.066 267.314 257.448 264.027 258.93 260.577C260.418 257.13 261.039 253.982 261.039 253.982C261.237 252.986 261.479 252 261.766 251.026H261.777Z" fill="#FDDD10"/>
<path d="M48.7111 230.033C46.602 232.137 43.4406 236.875 42.3861 239.44C41.413 242.073 40.8844 246.812 46.0779 254.632C51.3438 262.454 54.9545 264.034 54.9545 269.23" fill="#FDDD10"/>
<path d="M48.7111 230.033C46.602 232.137 43.4406 236.875 42.3861 239.44C41.413 242.073 40.8844 246.812 46.0779 254.632C51.3438 262.454 54.9545 264.034 54.9545 269.23" stroke="#BC8810" stroke-width="1.44431"/>
<path d="M25.6914 243.655C28.32 242.605 35.094 241.551 37.7221 254.643Z" fill="#FDDD10"/>
<path d="M25.6914 243.655C28.32 242.605 35.094 241.551 37.7221 254.643" stroke="#BC8810" stroke-width="1.44431" stroke-linecap="square"/>
<path d="M41.9414 242.065C44.4976 238.983 46.0781 239.432 54.4261 248.385C62.7832 257.262 63.0022 256.652 66.1609 259.206" fill="#FDDD10"/>
<path d="M41.9414 242.065C44.4976 238.983 46.0781 239.432 54.4261 248.385C62.7832 257.262 63.0022 256.652 66.1609 259.206" stroke="#BC8810" stroke-width="1.44431"/>
<path d="M253.352 230.033C255.461 232.137 258.617 236.875 259.672 239.44C260.654 242.073 261.176 246.812 255.989 254.632C250.718 262.454 247.105 264.034 247.105 269.23" fill="#FDDD10"/>
<path d="M253.352 230.033C255.461 232.137 258.617 236.875 259.672 239.44C260.654 242.073 261.176 246.812 255.989 254.632C250.718 262.454 247.105 264.034 247.105 269.23" stroke="#BC8810" stroke-width="1.44431"/>
<path d="M276.379 243.655C273.742 242.605 266.973 241.551 264.34 254.643Z" fill="#FDDD10"/>
<path d="M276.379 243.655C273.742 242.605 266.973 241.551 264.34 254.643" stroke="#BC8810" stroke-width="1.44431" stroke-linecap="square"/>
<path d="M260.122 242.065C257.566 238.983 255.985 239.432 247.633 248.385C239.285 257.262 239.061 256.652 235.902 259.206" fill="#FDDD10"/>
<path d="M260.122 242.065C257.566 238.983 255.985 239.432 247.633 248.385C239.285 257.262 239.061 256.652 235.902 259.206" stroke="#BC8810" stroke-width="1.44431"/>
<path d="M73.0678 235.58C72.6393 235.92 72.1899 236.274 71.7569 236.635C71.394 236.069 71.0657 235.512 70.7074 234.951C70.3791 235.289 70.0531 235.618 69.7389 235.95C69.2571 235.219 68.7749 234.488 68.3305 233.767C68.7449 233.422 69.1219 233.078 69.5527 232.742C69.911 233.301 70.293 233.858 70.6582 234.423C71.0215 234.118 71.3639 233.815 71.7082 233.513C72.1576 234.202 72.6234 234.886 73.0678 235.58V235.58ZM73.0678 250.492C72.6762 250.206 72.2855 249.941 71.8944 249.664C71.6797 249.503 71.4899 249.312 71.3312 249.096C70.9933 248.665 70.721 248.123 70.5348 247.448C70.2903 246.545 70.2252 245.465 70.258 244.222C69.8131 244.473 69.4475 244.619 69.1939 244.685C68.8496 244.773 68.5746 244.733 68.3492 244.587C68.1975 244.474 68.0529 244.352 67.9162 244.222C67.5715 243.884 67.2291 243.546 66.8963 243.223C66.4519 242.785 66.1814 242.494 66.0908 242.376C65.9979 242.261 65.9514 242.159 65.9747 242.035C65.9974 241.863 66.247 241.444 66.7988 240.822C67.3479 240.196 67.7345 239.843 67.9531 239.761C68.1161 239.703 68.407 239.638 68.8355 239.645C69.0941 239.649 69.4365 239.677 69.9042 239.705C70.044 239.719 70.2138 239.726 70.3905 239.747V239.454C70.3905 239.349 70.4137 239.263 70.4137 239.179C70.4606 238.935 70.5767 238.667 70.742 238.373C70.905 238.073 71.1795 237.752 71.5383 237.408C71.4682 238.499 71.445 239.619 71.3986 240.709C71.352 241.807 71.3287 242.906 71.3289 244.005C71.3289 245.045 71.4218 245.816 71.6012 246.307C71.7173 246.631 71.8921 246.875 72.1366 247.052C72.523 247.339 72.914 247.62 73.3096 247.895C73.1935 248.763 73.1233 249.629 73.0468 250.493L73.0678 250.492ZM70.2766 242.575V241.305C70.1241 241.264 69.9694 241.232 69.8131 241.209C69.4502 241.16 69.208 241.144 68.9685 241.16C68.8055 241.179 68.6771 241.218 68.5723 241.261C68.433 241.318 68.3861 241.391 68.3629 241.46C68.3629 241.547 68.4098 241.695 68.6006 241.893C68.81 242.098 69.0012 242.257 69.2107 242.412C69.3268 242.506 69.4825 242.566 69.6014 242.58C69.8241 242.609 70.0497 242.607 70.2721 242.575H70.2766ZM78.2053 240.096C78.1356 240.581 77.9517 240.916 77.7609 241.097C77.5187 241.33 77.2787 241.321 76.9645 241.104C76.8484 241.021 76.7783 240.929 76.6877 240.816C76.596 240.684 76.5114 240.548 76.4341 240.408C76.271 240.557 76.1244 240.634 75.996 240.669C75.7588 240.746 75.5516 240.695 75.3422 240.529C75.118 240.356 74.9502 240.12 74.86 239.852C74.7671 239.582 74.7903 239.291 74.8372 238.967C74.86 238.807 74.8837 238.644 74.9765 238.527C75.0462 238.406 75.1395 238.262 75.2488 238.106C75.2953 238.124 75.3886 238.141 75.4355 238.157C75.4355 238.208 75.4355 238.294 75.3886 238.397C75.3654 238.499 75.3422 238.602 75.3189 238.679C75.2956 238.823 75.2956 238.97 75.3189 239.114C75.3189 239.261 75.4118 239.382 75.5052 239.456C75.7542 239.654 76.001 239.603 76.2291 239.358C76.322 239.253 76.4614 238.993 76.6572 238.602C76.7273 238.634 76.7969 238.66 76.8438 238.693V239.337C76.8903 239.586 76.96 239.782 77.102 239.894C77.3347 240.076 77.5464 240.038 77.7422 239.824C77.882 239.647 77.9794 239.416 78.0518 239.154C78.1215 239.175 78.1679 239.202 78.2381 239.235V239.68C78.2381 239.84 78.2381 239.985 78.1912 240.096H78.2053ZM78.1124 254.029C76.2173 252.786 74.3527 251.44 72.5114 250.106C72.581 249.238 72.6744 248.374 72.7696 247.504C74.325 248.628 75.8703 249.771 77.4253 250.872C77.4253 250.39 77.3324 249.936 77.2159 249.529C77.1462 249.289 76.9577 248.872 76.6804 248.232C77.0117 247.631 77.3573 247.038 77.7167 246.454C78.0796 247.278 78.2891 248.046 78.3892 248.749C78.4826 249.443 78.4357 250.365 78.3196 251.524C78.2275 252.357 78.1577 253.192 78.1101 254.028L78.1124 254.029ZM77.8724 255.614C77.4909 256.052 77.1621 256.51 76.8179 256.939C76.3735 256.38 75.9774 255.816 75.5448 255.265C75.3071 255.593 75.0439 255.921 74.8044 256.252C74.2548 255.523 73.687 254.806 73.168 254.099C73.4635 253.693 73.8082 253.291 74.136 252.897C74.5458 253.44 75.0093 254.008 75.4583 254.562C75.7157 254.214 75.9877 253.878 76.2733 253.554C76.782 254.259 77.3154 254.946 77.8724 255.614ZM86.1786 259.308C86.1786 259.69 85.9154 260.049 85.4546 260.421C85.0006 260.782 84.5093 261.047 83.9365 261.15C83.264 261.275 82.7495 261.196 82.3001 260.915C81.7509 260.579 81.1736 260.074 80.5448 259.367C80.0166 258.775 79.1993 257.697 78.0796 256.182C78.2194 256.059 78.3519 255.942 78.4707 255.833C79.0249 256.559 79.4625 257.08 79.7812 257.418C80.119 257.758 80.4542 258.049 80.8544 258.298C81.2824 258.563 81.7182 258.687 82.1279 258.708C82.5605 258.726 83.1638 258.619 83.9019 258.41C84.9888 258.1 85.4942 257.707 85.5384 257.206C85.5611 256.953 85.5151 256.569 85.3517 256.028C85.1659 255.425 84.9565 254.869 84.6792 254.354C84.9214 253.612 85.1982 252.86 85.4755 252.125C85.8201 252.802 86.0796 253.52 86.2482 254.262C86.4112 254.981 86.4577 255.698 86.388 256.433C86.2947 257.381 86.225 258.342 86.1786 259.308ZM94.8312 263.145C94.7848 264.227 94.2866 265.056 93.3669 265.635C92.4403 266.215 91.5583 266.271 90.6576 265.81C90.129 265.533 89.5557 265.079 88.9392 264.416C88.3154 263.759 87.403 262.537 86.1786 260.777C86.3021 260.665 86.4344 260.562 86.5742 260.47C87.2094 261.329 87.7658 261.974 88.1756 262.367C88.5203 262.707 88.9392 262.975 89.3677 263.201C89.9869 263.527 90.5944 263.655 91.2136 263.634C91.9053 263.604 92.6406 263.326 93.4506 262.833C93.1784 262.728 92.9548 262.628 92.7781 262.539C92.1723 262.221 91.6658 261.741 91.3138 261.154C90.9691 260.563 90.8598 259.911 90.9226 259.213C90.9923 258.266 91.286 257.455 91.7955 256.82C92.3683 256.107 92.9689 255.938 93.5554 256.254C94.0699 256.524 94.4469 257.085 94.7101 257.958C94.9778 258.836 95.0593 259.744 94.9874 260.71C94.9173 261.534 94.8708 262.34 94.8244 263.145H94.8312ZM93.8304 260.645C93.737 259.541 93.4342 258.85 92.8992 258.566C92.6898 258.456 92.5614 258.44 92.4029 258.545C92.2868 258.614 92.2171 258.773 92.1935 258.959C92.1935 259.187 92.2868 259.434 92.5218 259.716C92.7905 260.014 93.1107 260.262 93.467 260.447C93.5836 260.514 93.7115 260.584 93.8304 260.645ZM99.5685 252.944C99.4988 253.416 99.3358 253.763 99.1359 253.987C98.9028 254.238 98.6487 254.303 98.3254 254.136C98.2088 254.08 98.1159 253.987 98.0294 253.901C97.9229 253.795 97.8257 253.679 97.7389 253.556C97.5759 253.715 97.4293 253.812 97.2941 253.87C97.0614 253.961 96.8565 253.945 96.6216 253.822C96.377 253.693 96.2026 253.489 96.0861 253.242C95.9695 252.995 95.9463 252.709 96.016 252.397C96.0392 252.236 96.0861 252.087 96.179 251.957C96.2491 251.824 96.342 251.684 96.4167 251.519C96.5095 251.524 96.6029 251.533 96.6607 251.547C96.6607 251.598 96.6143 251.682 96.591 251.785C96.5678 251.885 96.5446 251.983 96.5446 252.055C96.5214 252.194 96.5446 252.343 96.5446 252.476C96.5674 252.616 96.6375 252.718 96.7541 252.777C97.045 252.927 97.2868 252.862 97.499 252.602C97.5919 252.478 97.7362 252.215 97.9088 251.805C97.9552 251.822 98.0249 251.845 98.1182 251.855C98.1182 252.19 98.1182 252.39 98.1647 252.485C98.2348 252.725 98.3045 252.874 98.493 252.982C98.7024 253.105 98.9305 253.03 99.1122 252.788C99.252 252.585 99.3544 252.351 99.4032 252.078C99.4728 252.094 99.5662 252.108 99.6358 252.113V252.55C99.6358 252.707 99.6358 252.832 99.6131 252.944H99.5685ZM106.652 269.283C105.942 268.976 105.356 268.676 104.879 268.366C104.385 268.051 103.923 267.691 103.496 267.291C103.119 267.389 102.755 267.414 102.494 267.382C102.222 267.34 101.754 267.193 101.168 266.944C100.635 266.718 100.132 266.509 99.6222 266.278C99.2248 266.099 98.8847 265.814 98.6396 265.454C98.3973 265.102 98.1902 264.63 97.9994 264.029C97.641 264.381 97.2267 264.562 96.7937 264.562C96.4303 264.562 95.9832 264.427 95.4668 264.157C95.0033 263.918 94.5844 263.692 94.14 263.459C94.1865 262.607 94.2097 261.757 94.3026 260.9C94.7356 261.127 95.185 261.357 95.6481 261.604C96.2837 261.943 96.8401 262.067 97.3219 261.925C97.9411 261.746 98.2671 261.141 98.3673 260.153C98.5767 260.291 98.7862 260.412 98.9911 260.556C98.9446 260.743 98.9214 260.968 98.8982 261.217C98.8745 261.473 98.8281 261.748 98.8049 262.06C98.7584 262.379 98.8745 262.717 99.0771 263.028C99.2866 263.352 99.522 263.601 99.8057 263.724C100.197 263.897 100.593 264.064 100.96 264.223C101.766 264.567 102.315 264.686 102.648 264.621C103.081 264.532 103.298 264.144 103.372 263.438C103.372 263.284 103.442 263.168 103.535 263.094C103.605 263.045 103.745 262.993 103.917 262.942C104.057 262.893 104.171 262.856 104.294 262.809V263.315C104.271 263.515 104.294 263.657 104.294 263.729C104.247 264.071 104.155 264.5 104.031 265.028C104.264 265.251 104.504 265.459 104.804 265.661C105.104 265.864 105.395 266.062 105.705 266.245C105.751 266.027 105.705 265.724 105.542 265.316C105.379 264.909 105.309 264.651 105.332 264.521C105.355 264.369 105.379 264.255 105.425 264.181C105.425 264.148 105.542 264.111 105.684 263.99C105.97 263.75 106.27 263.499 106.547 263.261C106.71 263.727 106.801 264.139 106.857 264.502C106.904 264.847 106.904 265.27 106.857 265.745C106.787 266.914 106.694 268.101 106.671 269.283H106.652ZM111.322 271.116C109.53 270.452 107.755 269.745 105.998 268.995C105.998 268.15 106.045 267.298 106.091 266.441C107.474 267.03 108.857 267.579 110.228 268.126C110.065 266.979 109.984 265.833 109.865 264.693C109.748 263.548 109.702 262.414 109.655 261.273C109.422 261.066 109.255 260.854 109.064 260.654C109.11 260.286 109.227 259.934 109.374 259.604C109.583 259.176 109.909 258.696 110.342 258.165C110.482 258.293 110.6 258.412 110.738 258.545C110.738 258.587 110.738 258.682 110.691 258.836C110.621 259.041 110.761 259.281 111.001 259.572C111.21 259.832 111.55 260.165 112.069 260.563C111.93 260.943 111.825 261.317 111.673 261.669C111.51 262.011 111.346 262.314 111.159 262.57C111.043 262.479 110.949 262.395 110.845 262.304C110.891 263.345 110.984 264.39 111.077 265.435C111.171 266.462 111.264 267.509 111.406 268.55C111.359 269.398 111.359 270.259 111.336 271.116H111.322ZM114.3 269.312C114.3 269.87 114.183 270.357 114.046 270.78C113.906 271.202 113.613 271.735 113.235 272.391C113.003 272.244 112.84 272.107 112.649 271.965C112.812 271.208 112.898 270.582 112.907 270.08V268.352C112.907 267.589 112.884 266.826 112.838 266.064C112.791 265.298 112.698 264.381 112.6 263.298C112.554 262.916 112.577 262.663 112.6 262.533C112.6 262.335 112.74 262.041 112.996 261.632C113.245 261.224 113.583 260.75 114.027 260.209C114.073 261.39 114.167 262.565 114.26 263.75C114.353 265.098 114.376 266.25 114.376 267.207C114.376 267.949 114.376 268.65 114.353 269.312H114.3ZM128.123 262.309C127.686 262.803 127.261 263.307 126.849 263.822C126.404 263.459 125.958 263.094 125.557 262.73C125.213 263.168 124.922 263.61 124.593 264.046C124.021 263.58 123.439 263.112 122.901 262.64C123.302 262.158 123.674 261.681 124.112 261.203C124.54 261.548 125.003 261.904 125.438 262.251C125.797 261.832 126.125 261.408 126.483 260.996C127.021 261.441 127.575 261.874 128.123 262.309ZM129.559 276.13C129.121 276.044 128.695 275.96 128.262 275.862C128.027 275.812 127.805 275.716 127.608 275.578C127.24 275.322 126.912 274.893 126.64 274.351C126.276 273.606 126.095 272.633 126.004 271.427C125.56 271.867 125.199 272.163 124.94 272.335C124.563 272.578 124.267 272.671 123.991 272.61C123.874 272.58 123.741 272.519 123.576 272.451C123.148 272.273 122.731 272.112 122.354 271.947C121.849 271.73 121.514 271.56 121.423 271.493C121.306 271.411 121.26 271.32 121.26 271.206C121.26 271.032 121.497 270.552 122 269.754C122.515 268.946 122.869 268.448 123.087 268.289C123.274 268.152 123.569 267.989 124.002 267.824C124.275 267.717 124.679 267.6 125.157 267.437C125.32 267.386 125.485 267.314 125.653 267.253V266.986V266.72C125.653 266.476 125.769 266.194 125.934 265.847C126.074 265.517 126.311 265.11 126.654 264.634C126.7 265.661 126.77 266.695 126.816 267.712C126.886 268.736 127.003 269.768 127.112 270.787C127.205 271.756 127.417 272.436 127.645 272.817C127.808 273.066 128.027 273.231 128.281 273.287C128.718 273.383 129.163 273.457 129.592 273.537C129.568 274.403 129.568 275.266 129.568 276.13H129.559ZM125.848 269.905C125.825 269.516 125.778 269.116 125.755 268.725C125.522 268.767 125.336 268.799 125.219 268.838C124.824 268.936 124.584 269.042 124.337 269.148C124.151 269.237 124.023 269.321 123.909 269.414C123.769 269.516 123.722 269.614 123.722 269.677C123.722 269.768 123.816 269.877 124.014 269.964C124.256 270.082 124.5 270.145 124.705 270.205C124.822 270.235 125.033 270.233 125.173 270.191C125.336 270.145 125.569 270.056 125.86 269.905L125.848 269.905ZM133.933 263.822C133.886 264.307 133.77 264.705 133.57 264.979C133.337 265.312 133.074 265.433 132.746 265.393C132.583 265.372 132.487 265.342 132.401 265.282C132.308 265.23 132.238 265.154 132.091 265.054C131.929 265.263 131.786 265.424 131.677 265.508C131.433 265.698 131.195 265.749 130.967 265.713C130.695 265.668 130.504 265.556 130.385 265.358C130.269 265.153 130.199 264.891 130.222 264.579C130.222 264.409 130.292 264.253 130.385 264.094C130.455 263.948 130.548 263.776 130.622 263.58C130.693 263.554 130.785 263.531 130.832 263.522C130.832 263.571 130.832 263.661 130.785 263.766C130.763 263.875 130.739 263.976 130.739 264.046C130.739 264.192 130.739 264.322 130.785 264.437C130.832 264.567 130.902 264.623 131.049 264.646C131.302 264.688 131.612 264.551 131.803 264.211C131.873 264.064 132.013 263.743 132.166 263.275C132.236 263.271 132.306 263.257 132.375 263.25C132.399 263.578 132.422 263.776 132.422 263.843C132.492 264.062 132.585 264.183 132.767 264.206C133.039 264.246 133.244 264.102 133.421 263.801C133.56 263.554 133.663 263.289 133.698 263.021C133.767 263.01 133.837 263.005 133.907 262.987V263.822H133.933ZM135.192 277.042C133.107 276.791 131.042 276.421 128.954 276.013C128.954 275.15 128.93 274.286 128.954 273.422C130.699 273.753 132.455 274.074 134.196 274.305C134.126 273.855 134.01 273.464 133.833 273.139C133.74 272.956 133.505 272.642 133.146 272.179C133.419 271.451 133.747 270.715 134.042 269.986C134.487 270.599 134.838 271.216 134.987 271.835C135.15 272.461 135.197 273.355 135.174 274.526V277.042H135.192ZM135.099 278.721C134.722 279.331 134.408 279.938 134.079 280.553C133.598 280.241 133.097 279.929 132.615 279.617C132.373 280.073 132.115 280.518 131.891 280.963C131.237 280.506 130.613 280.04 129.978 279.594C130.287 279.052 130.632 278.492 130.927 277.946C131.428 278.285 131.924 278.625 132.459 278.965C132.706 278.474 132.965 277.988 133.237 277.51C133.858 277.915 134.461 278.318 135.099 278.721ZM140.773 277.683C138.682 277.471 136.598 277.217 134.513 276.954V274.328C136.273 274.551 138.009 274.765 139.774 274.954C139.68 274.512 139.564 274.128 139.392 273.816C139.299 273.634 139.029 273.327 138.7 272.885C138.959 272.154 139.287 271.404 139.564 270.652C140.027 271.237 140.346 271.837 140.528 272.447C140.714 273.057 140.765 273.965 140.761 275.145V277.682L140.773 277.683ZM139.836 279.617C139.459 280.297 139.082 280.974 138.735 281.642C137.931 281.153 137.132 280.654 136.34 280.145C136.685 279.461 137.045 278.775 137.462 278.09C138.238 278.623 139.03 279.132 139.836 279.617ZM149.693 278.281C149.693 278.672 149.483 279.214 149.057 279.854C148.612 280.509 148.112 281.063 147.507 281.535C146.853 282.054 146.266 282.308 145.747 282.294C145.146 282.283 144.52 282.122 143.801 281.761C143.21 281.467 142.237 280.788 140.94 279.812C141.103 279.633 141.236 279.447 141.336 279.256C141.971 279.717 142.471 280.029 142.837 280.197C143.219 280.378 143.628 280.464 144.048 280.476C144.53 280.483 144.967 280.355 145.402 280.12C145.865 279.868 146.485 279.408 147.248 278.742C148.331 277.799 148.862 277.07 148.85 276.549C148.85 276.295 148.757 275.946 148.541 275.525C148.296 275.026 147.996 274.619 147.63 274.295C147.793 273.422 148.021 272.552 148.231 271.67C148.675 272.14 149.013 272.675 149.267 273.271C149.511 273.863 149.63 274.535 149.63 275.285C149.63 276.279 149.653 277.278 149.7 278.281H149.693ZM157.068 277.808C156.572 277.853 156.104 277.88 155.622 277.915C155.086 277.962 154.607 277.887 154.214 277.701C153.795 277.512 153.436 277.171 153.194 276.7C152.749 277.233 152.211 277.613 151.52 277.829C151.092 277.976 150.575 278.048 150.019 278.053C149.656 278.053 149.351 278.057 148.987 278.053C148.964 277.168 148.918 276.274 148.941 275.385C149.285 275.394 149.614 275.387 149.972 275.382C150.54 275.369 150.903 275.338 151.145 275.282C151.378 275.234 151.678 275.092 152.023 274.882C151.837 274.495 151.665 274.228 151.522 274.058C151.359 273.846 151.164 273.748 150.989 273.751C150.873 273.753 150.803 273.783 150.747 273.83C150.701 273.879 150.631 273.983 150.538 274.123C150.398 274.107 150.228 274.086 150.11 274.074C150.11 272.892 150.296 272.04 150.745 271.511C151.19 270.988 151.828 270.71 152.71 270.685C153.655 270.647 154.346 270.79 154.9 271.117C155.433 271.442 155.655 271.923 155.655 272.547C155.655 272.887 155.608 273.215 155.492 273.534C155.352 273.86 155.064 274.293 154.681 274.859C154.798 274.982 154.926 275.066 155.077 275.124C155.24 275.18 155.405 275.217 155.564 275.196C156.046 275.166 156.49 275.136 156.991 275.094C157.014 276.002 157.037 276.903 157.084 277.808H157.068ZM161.914 277.385C160.068 277.571 158.222 277.72 156.381 277.862C156.358 276.956 156.311 276.058 156.288 275.154C157.72 275.041 159.17 274.938 160.599 274.796C160.366 273.688 160.136 272.584 159.945 271.481C159.759 270.384 159.563 269.288 159.409 268.171C159.223 268.043 158.981 267.921 158.774 267.798C158.821 267.41 158.867 267.004 159.011 266.609C159.221 266.078 159.503 265.475 159.931 264.749C160.047 264.802 160.203 264.86 160.345 264.907C160.345 264.954 160.299 265.056 160.275 265.245C160.229 265.459 160.415 265.647 160.671 265.812C160.904 265.957 161.276 266.111 161.807 266.255C161.713 266.689 161.603 267.12 161.479 267.547C161.375 267.94 161.237 268.323 161.065 268.692C160.901 268.664 160.792 268.639 160.701 268.601C160.841 269.607 161.034 270.615 161.202 271.623C161.388 272.643 161.603 273.646 161.807 274.658C161.807 275.569 161.877 276.474 161.9 277.385H161.914ZM164.794 274.1C164.794 274.705 164.747 275.255 164.631 275.778C164.514 276.306 164.303 277.008 163.944 277.89C163.758 277.824 163.525 277.762 163.339 277.699C163.432 276.824 163.479 276.121 163.432 275.585C163.409 275.173 163.362 274.57 163.292 273.79C163.223 273.01 163.132 272.231 163.02 271.455C162.927 270.692 162.724 269.796 162.533 268.748C162.464 268.383 162.464 268.129 162.464 267.989C162.464 267.784 162.533 267.41 162.773 266.886C163.071 266.227 163.386 265.577 163.719 264.935C163.858 266.101 164.019 267.265 164.2 268.434C164.41 269.759 164.514 270.911 164.633 271.896C164.726 272.661 164.773 273.394 164.796 274.1H164.794ZM177.893 259.997C177.474 260.726 177.134 261.454 176.757 262.181C176.27 262.034 175.821 261.874 175.393 261.725C175.097 262.319 174.827 262.926 174.582 263.543C173.978 263.347 173.377 263.15 172.79 262.949C173.135 262.269 173.496 261.588 173.873 260.898C174.322 261.029 174.822 261.157 175.286 261.278C175.582 260.684 175.891 260.088 176.201 259.483C176.755 259.674 177.322 259.832 177.893 259.997ZM180.421 273.73C179.977 273.851 179.529 273.967 179.08 274.088C178.894 274.137 178.679 274.167 178.426 274.109C178.058 274.023 177.711 273.727 177.411 273.271C176.987 272.643 176.72 271.725 176.566 270.489C176.133 271.197 175.793 271.7 175.565 271.995C175.225 272.445 174.93 272.694 174.687 272.752C174.548 272.789 174.391 272.796 174.201 272.796C173.791 272.796 173.337 272.803 172.995 272.801C172.462 272.796 172.136 272.785 172.013 272.766C171.873 272.742 171.826 272.668 171.826 272.545C171.826 272.365 172.013 271.734 172.445 270.662C172.883 269.577 173.191 268.92 173.409 268.634C173.572 268.427 173.833 268.101 174.254 267.712C174.522 267.472 174.855 267.17 175.318 266.76C175.481 266.613 175.667 266.46 175.854 266.306C175.854 266.213 175.807 266.125 175.807 266.031V265.755C175.807 265.494 175.877 265.149 175.97 264.728C176.087 264.302 176.266 263.771 176.594 263.11C176.734 264.134 176.88 265.168 177.043 266.18C177.206 267.205 177.353 268.234 177.562 269.253C177.749 270.214 178 270.846 178.249 271.134C178.412 271.327 178.663 271.376 178.903 271.313C179.336 271.195 179.799 271.074 180.249 270.959C180.272 271.879 180.342 272.806 180.412 273.73L180.421 273.73ZM176.254 268.981C176.165 268.591 176.088 268.198 176.021 267.803C175.835 267.954 175.649 268.084 175.539 268.175C175.186 268.476 174.904 268.729 174.694 268.96C174.531 269.132 174.394 269.297 174.299 269.435C174.182 269.614 174.112 269.742 174.112 269.812C174.112 269.912 174.252 269.961 174.457 269.961C174.711 269.961 174.92 269.919 175.125 269.863C175.288 269.821 175.453 269.74 175.593 269.621C175.756 269.495 175.991 269.276 176.249 268.981H176.254ZM183.685 258.822C183.685 259.345 183.568 259.79 183.403 260.177C183.217 260.614 182.94 260.894 182.63 261.001C182.531 261.035 182.426 261.049 182.321 261.043C182.208 261.034 182.097 261.008 181.993 260.966C181.829 261.259 181.71 261.492 181.597 261.65C181.387 261.943 181.164 262.106 180.924 262.188C180.684 262.27 180.451 262.242 180.318 262.083C180.179 261.927 180.155 261.671 180.155 261.331C180.155 261.15 180.179 260.987 180.249 260.794C180.295 260.624 180.342 260.409 180.458 260.163C180.505 260.121 180.575 260.072 180.621 260.018V260.602C180.621 260.752 180.621 260.882 180.691 260.984C180.737 261.087 180.854 261.106 180.95 261.071C181.208 260.978 181.473 260.71 181.636 260.263C181.706 260.065 181.822 259.679 181.964 259.136C182.011 259.087 182.081 259.05 182.151 259.003C182.197 259.322 182.267 259.513 182.267 259.567C182.314 259.756 182.454 259.818 182.626 259.756C182.867 259.669 183.08 259.446 183.249 259.041C183.366 258.736 183.436 258.415 183.459 258.124C183.505 258.086 183.575 258.037 183.622 257.995C183.622 258.107 183.668 258.247 183.668 258.4V258.822H183.685ZM185.994 272.074C183.92 272.729 181.839 273.325 179.802 273.893C179.755 272.971 179.662 272.042 179.639 271.115C181.348 270.641 183.068 270.119 184.813 269.6C184.697 269.151 184.537 268.802 184.332 268.536C184.118 268.266 183.874 268.021 183.603 267.808C183.843 266.912 184.067 266.011 184.276 265.107C184.795 265.54 185.154 266.034 185.363 266.616C185.573 267.193 185.703 268.11 185.777 269.372C185.824 270.273 185.94 271.174 186.01 272.074H185.994ZM185.994 273.955C185.694 274.78 185.384 275.608 185.13 276.409C184.611 276.265 184.11 276.13 183.629 275.974C183.419 276.593 183.196 277.203 182.993 277.811C182.339 277.631 181.683 277.464 181.042 277.278C181.32 276.525 181.597 275.774 181.888 274.999C182.351 275.129 182.893 275.24 183.419 275.347C183.629 274.717 183.873 274.074 184.11 273.439C184.73 273.634 185.354 273.813 185.994 273.955ZM194.696 269.123C194.742 269.54 194.556 270.196 194.176 271.05C193.8 271.903 193.325 272.708 192.759 273.448C192.14 274.272 191.571 274.759 191.09 274.936C190.503 275.148 189.868 275.192 189.176 275.089C188.575 275.001 187.612 274.745 186.285 274.298C186.401 274.032 186.522 273.765 186.648 273.506C187.267 273.709 187.78 273.802 188.157 273.82C188.501 273.834 188.901 273.771 189.33 273.611C189.784 273.453 190.24 273.145 190.64 272.722C191.068 272.282 191.642 271.57 192.349 270.557C193.345 269.127 193.785 268.138 193.727 267.586C193.704 267.312 193.588 266.981 193.369 266.62C193.131 266.232 192.8 265.91 192.405 265.684C192.521 264.69 192.615 263.694 192.759 262.684C193.222 262.987 193.585 263.412 193.881 263.945C194.167 264.476 194.349 265.144 194.395 265.941C194.465 267.007 194.582 268.061 194.696 269.123H194.696ZM203.462 264.204C203.602 265.387 203.276 266.76 202.466 268.359C201.661 269.926 200.811 270.929 199.896 271.348C199.361 271.588 198.76 271.676 198.069 271.59C197.396 271.514 196.332 271.25 194.882 270.694C194.998 270.438 195.115 270.184 195.226 269.938C195.985 270.159 196.586 270.226 197.049 270.189C197.431 270.156 197.88 270.042 198.327 269.84C198.951 269.558 199.549 269.081 200.12 268.441C200.806 267.668 201.447 266.625 202.119 265.296C201.842 265.454 201.637 265.587 201.465 265.663C200.83 265.945 200.297 265.943 199.878 265.675C199.45 265.393 199.223 264.879 199.154 264.118C199.06 263.084 199.223 261.995 199.586 260.835C199.978 259.59 200.478 258.817 201.069 258.557C201.588 258.319 202.052 258.507 202.447 259.089C202.844 259.674 203.12 260.484 203.207 261.536C203.276 262.435 203.37 263.322 203.462 264.204ZM202.14 262.651C201.844 261.629 201.454 261.24 200.899 261.485C200.69 261.578 200.536 261.727 200.432 261.951C200.338 262.174 200.292 262.381 200.315 262.581C200.362 262.824 200.455 262.977 200.748 263.026C201.021 263.07 201.33 263.008 201.763 262.817C201.856 262.777 201.973 262.721 202.142 262.651H202.14ZM212.292 260.37C211.65 260.722 211.004 261.068 210.355 261.408C210.239 261.474 210.102 261.557 209.945 261.65C209.783 261.743 209.583 261.864 209.273 262.065C209.527 262.076 209.755 262.065 210.013 262.109C210.246 262.153 210.39 262.349 210.428 262.628C210.474 262.891 210.428 263.198 210.428 263.536C210.428 263.738 210.334 264.088 210.265 264.611C210.125 265.601 209.969 266.329 209.783 266.748C209.596 267.186 209.319 267.484 208.956 267.684C208.097 268.157 207.257 268.087 206.491 267.414C205.699 266.716 205.251 265.643 205.083 264.225C204.354 264.567 203.646 264.902 202.908 265.247C202.815 264.318 202.699 263.385 202.631 262.451C202.908 262.309 203.181 262.186 203.49 262.041C203.854 261.871 204.201 261.667 204.527 261.431C204.913 261.162 205.18 260.949 205.337 260.831C205.837 258.403 206.333 256.573 206.801 255.37C207.211 254.322 207.646 253.684 208.011 253.486C208.334 253.312 208.651 253.505 208.926 254.075C209.168 254.571 209.314 255.108 209.359 255.658C209.429 256.45 209.359 257.215 209.114 257.923C208.852 258.715 208.409 259.422 207.823 260.037C208.251 259.711 208.686 259.436 209.045 259.213C209.426 258.978 209.769 258.787 210.095 258.612C210.73 258.273 211.354 257.932 211.989 257.593C212.083 258.519 212.223 259.446 212.32 260.37H212.292ZM207.965 257.732C207.942 257.563 207.871 257.379 207.723 257.167C207.583 256.976 207.464 256.915 207.345 256.973C207.182 257.057 207.001 257.362 206.826 257.86C206.64 258.377 206.426 259.113 206.191 260.112C206.877 259.457 207.383 258.95 207.618 258.61C207.865 258.263 207.99 257.972 207.965 257.732ZM209.119 264.418C209.073 264.032 208.828 263.787 208.379 263.655C207.846 263.508 207.12 263.575 206.194 263.855C206.356 264.411 206.684 264.788 207.208 264.975C207.758 265.168 208.314 265.107 208.877 264.797C209.063 264.705 209.135 264.567 209.119 264.418ZM220.202 255.721C219.557 256.122 218.785 256.45 217.856 256.729C217.055 256.962 216.338 257.104 215.714 257.104C215.442 257.896 215.023 258.531 214.527 259.006C214.282 259.248 213.94 259.478 213.496 259.727C212.872 260.065 212.255 260.396 211.631 260.729C211.514 259.807 211.389 258.875 211.303 257.949C211.929 257.626 212.55 257.296 213.167 256.957C213.736 256.65 214.173 256.333 214.49 255.986C214.862 255.579 215.118 255.065 215.249 254.504C215.485 253.483 215.857 252.499 216.354 251.577C216.792 250.765 217.199 250.274 217.528 250.073C217.819 249.892 218.287 250.162 218.854 250.926C219.446 251.729 219.804 252.592 219.9 253.519C219.993 254.255 220.086 254.983 220.202 255.721ZM218.098 253.726C218.075 253.579 217.911 253.407 217.593 253.202C217.265 252.974 216.992 252.927 216.783 253.054C216.529 253.207 216.373 253.638 216.268 254.348C216.582 254.299 216.855 254.245 217.046 254.21C217.547 254.117 217.837 254.033 217.905 253.992C218.044 253.91 218.114 253.824 218.091 253.726H218.098ZM229.933 249.366C226.504 251.773 223.04 253.961 219.557 256.128C219.441 255.207 219.32 254.294 219.204 253.372C221.373 252.034 223.522 250.705 225.678 249.347C224.851 248.989 224.095 248.803 223.44 248.814C222.849 248.826 222.304 248.993 221.748 249.326C221.585 249.415 221.452 249.508 221.32 249.608C221.18 249.706 221.029 249.864 220.766 250.073C221.029 249.035 221.29 248.176 221.662 247.527C222.049 246.861 222.493 246.386 223.007 246.067C223.404 245.825 223.804 245.704 224.176 245.69C224.595 245.676 225.04 245.739 225.559 245.93C225.941 246.067 226.532 246.27 227.295 246.624C227.805 246.859 228.178 246.994 228.431 246.994C228.713 246.994 229.067 246.885 229.558 246.673C229.651 247.574 229.814 248.467 229.933 249.366ZM226.937 253.889C226.66 254.899 226.404 255.879 226.141 256.869C225.368 256.906 224.614 256.932 223.832 256.967C224.114 255.983 224.381 254.995 224.633 254.003C225.424 253.976 226.141 253.94 226.937 253.889ZM234.244 246.344C232.589 247.501 230.953 248.656 229.316 249.803C229.199 248.905 229.058 248.009 228.92 247.112C230.217 246.223 231.49 245.327 232.78 244.435C232.421 243.46 232.093 242.487 231.76 241.495C231.437 240.508 231.178 239.514 230.92 238.527C230.687 238.516 230.506 238.506 230.296 238.506C230.296 238.12 230.296 237.682 230.389 237.224C230.482 236.633 230.685 235.894 230.995 234.98C231.134 234.989 231.267 234.954 231.409 234.936V235.282C231.409 235.491 231.549 235.618 231.804 235.652C232.038 235.687 232.391 235.652 232.892 235.564C232.845 236.008 232.798 236.474 232.729 236.937C232.66 237.375 232.574 237.81 232.471 238.241C232.354 238.274 232.228 238.29 232.142 238.313C232.401 239.215 232.671 240.114 232.952 241.009C233.236 241.904 233.536 242.794 233.853 243.679C233.97 244.58 234.123 245.465 234.26 246.344H234.244ZM236.472 241.665C236.542 242.231 236.542 242.804 236.495 243.362C236.449 243.921 236.332 244.729 236.1 245.783C235.913 245.832 235.718 245.874 235.527 245.914C235.527 244.992 235.48 244.27 235.387 243.756C235.317 243.355 235.201 242.799 235.059 242.075C234.919 241.347 234.705 240.653 234.524 239.966C234.303 239.167 234.057 238.375 233.788 237.591C233.672 237.268 233.625 237.047 233.625 236.905C233.625 236.702 233.649 236.302 233.812 235.692C233.974 235.084 234.189 234.332 234.447 233.429C234.689 234.449 234.957 235.476 235.238 236.498C235.557 237.668 235.844 238.692 236.065 239.594C236.221 240.279 236.355 240.97 236.465 241.665H236.472Z" fill="#584500"/>
<path d="M117.571 174.1C112.418 185.352 102.702 202.456 87.6333 213.224C84.6245 215.435 83.3068 216.175 85.3565 218.802C87.4107 221.33 89.4715 224.59 93.2864 222.389C96.5059 220.525 114.222 204.46 122.127 181.932C120.551 179.392 119.031 176.779 117.571 174.1V174.1ZM123.704 184.379C119.296 195.832 110.904 213.064 97.1787 225.013C94.3108 227.433 93.1433 228.273 95.2655 230.589C97.3965 232.8 99.5258 235.748 103.125 233.23C106.072 231.025 122.075 213.77 128.598 191.404C126.918 189.132 125.286 186.79 123.704 184.379Z" fill="#BC8810" stroke="#FDDD10" stroke-width="1.44431"/>
<path d="M132.896 190.982C128.769 202.716 120.935 220.134 107.818 232.738C105.025 235.372 103.851 236.313 106.057 238.424C108.263 240.528 110.46 243.368 113.989 240.528C116.868 238.245 132.264 219.99 138.144 197.255C136.352 195.239 134.601 193.148 132.896 190.982ZM140.648 199.994C137.608 209.761 131.773 224.143 120.737 240.635C118.461 244.104 117.066 244.638 119.347 246.53C121.623 248.422 126.027 251.269 129.335 248.224C132.066 245.667 142.159 225.81 146.101 205.501C144.251 203.732 142.433 201.896 140.648 199.994Z" fill="#BC8810" stroke="#FDDD10" stroke-width="1.44431"/>
<path d="M183.644 174.097C188.797 185.349 198.513 202.453 213.582 213.221C216.591 215.432 217.908 216.172 215.859 218.799C213.805 221.327 211.744 224.587 207.929 222.386C204.709 220.522 186.993 204.457 179.088 181.929C180.665 179.389 182.184 176.776 183.644 174.097V174.097ZM177.512 184.376C181.92 195.829 190.311 213.061 204.036 225.01C206.904 227.43 208.072 228.271 205.95 230.586C203.819 232.797 201.689 235.745 198.09 233.227C195.143 231.022 179.14 213.768 172.617 191.401C174.297 189.129 175.929 186.787 177.512 184.376Z" fill="#BC8810" stroke="#FDDD10" stroke-width="1.44431"/>
<path d="M150.604 190.112L149.103 190.108C149.103 190.108 148.076 214.528 142.2 228.105C138.969 235.475 136.327 243.474 135.811 244.946C135.293 246.318 132.507 251.258 138.892 251.893C143.222 252.212 150.641 252.212 150.641 252.212L162.32 251.893C168.712 251.261 165.919 246.318 165.401 244.946C164.883 243.475 162.238 235.472 159.009 228.105C153.134 214.524 152.104 190.112 152.104 190.112H150.604Z" fill="#BC8810" stroke="#FDDD10" stroke-width="1.44431"/>
<path d="M168.315 190.978C172.442 202.711 180.276 220.129 193.393 232.733C196.186 235.367 197.36 236.308 195.154 238.419C192.948 240.523 190.751 243.363 187.222 240.523C184.343 238.24 168.947 219.985 163.066 197.25C164.859 195.235 166.609 193.143 168.315 190.978ZM160.563 199.989C163.602 209.756 169.438 224.138 180.474 240.63C182.75 244.099 184.145 244.633 181.864 246.525C179.588 248.417 175.184 251.264 171.876 248.219C169.144 245.662 159.051 225.805 155.109 205.496C156.959 203.727 158.778 201.891 160.563 199.989Z" fill="#BC8810" stroke="#FDDD10" stroke-width="1.44431"/>
<path d="M163.755 8.00003C159.023 7.9932 153.399 9.08964 148.359 13.0027C139.404 19.8491 134.291 33.84 125.415 39.11H131.658C131.658 39.11 126.994 49.4182 123.308 51.5947L129.556 52.6492C129.556 52.6492 124.365 61.0018 120.152 63.1059L125.42 64.1559C125.42 64.1559 117.142 80.7891 112.928 82.8909C112.928 82.8909 115.261 92.2957 108.715 94.4025L116.089 110.05H185.978L193.28 95.4525C185.98 92.2957 189.146 80.7818 189.146 80.7818L184.933 73.4792C176.58 72.4292 178.682 55.7965 178.682 50.6098C178.682 45.3398 174.464 39.1032 174.464 39.1032C178.679 28.6442 177.623 24.4256 177.623 24.4256C178.675 19.2367 185.747 19.4602 185.747 19.4602C185.291 18.932 182.677 18.2732 182.16 17.9613L173.399 19.977L172.393 21.3631C173.559 20.9045 168.427 20.1901 172.764 18.2923C175.928 15.1651 174.464 9.83228 174.464 9.83228C174.464 9.83228 169.845 8.01141 163.756 8.00003H163.755Z" fill="#FDDD10" stroke="#BC8810" stroke-width="1.44567"/>
<path d="M163.75 10.0108C169.433 10.0199 173.719 11.7105 173.719 11.7105L174.17 11.8917L174.662 11.843C174.662 11.843 177.048 11.6199 179.452 12.0734C180.651 12.3038 181.801 12.7045 182.593 13.2491C183.38 13.7868 183.819 14.3574 183.999 15.37C183.999 15.37 177.333 16.7296 177.018 16.8576L173.399 19.9766L182.159 17.9608C181.918 18.0214 181.743 18.0096 181.494 18.0911C179.215 18.8014 176.366 20.5794 175.663 24.0436L175.572 24.4857L175.684 24.9233C175.684 24.9233 175.874 25.4774 175.634 27.6284C175.393 29.7748 174.657 33.2668 172.606 38.351L172.203 39.3495L172.806 40.2319C172.806 40.2319 173.774 41.668 174.762 43.7539C175.753 45.8348 176.675 48.5235 176.675 50.6166C176.675 52.9397 176.13 58.5872 176.675 63.8203C176.95 66.4298 177.48 68.9951 178.665 71.1648C179.685 73.0339 181.394 74.5684 183.589 75.1944L187.018 81.1306C186.79 82.0968 186.359 84.164 186.464 87.0089C186.536 88.8288 186.846 90.8241 187.742 92.6909C188.413 94.0851 189.413 95.2948 190.656 96.2152L184.741 108.039H117.37L111.336 95.2349C112.385 94.5277 113.291 93.7104 113.866 92.7442C114.783 91.2079 115.149 89.5432 115.284 88.0375C115.447 86.1774 115.286 84.7318 115.116 83.705C116.232 82.7948 117.237 81.6893 118.28 80.2718C119.716 78.3207 121.169 75.9976 122.491 73.7515C125.128 69.2583 127.221 65.052 127.221 65.052L128.394 62.6979L124.877 61.9953C126.029 60.8288 127.079 59.5302 128.027 58.3172C129.922 55.8752 131.267 53.7102 131.267 53.7102L132.855 51.1589L127.573 50.2697C128.711 48.7985 129.703 47.1247 130.622 45.5251C132.305 42.5805 133.5 39.9337 133.5 39.9337L134.787 37.0892H131.076C133.823 34.3655 136.2 31.1085 138.516 27.7982C142.038 22.7655 145.493 17.7327 149.592 14.5923L149.597 14.5878L149.606 14.5823C154.192 11.0066 159.33 10.0035 163.751 10.0108H163.75Z" fill="#FDDD10"/>
<path d="M146.131 37.1286C146.724 35.1871 147.437 33.3407 148.219 31.4529L148.738 30.2121L147.607 30.9384C144.39 32.9965 140.611 35.6082 137.722 37.3449C138.663 36.0085 139.825 34.5423 140.94 33.1126C142.481 31.1387 143.928 29.2623 144.606 27.7866L145.195 26.5107C142.46 28.1126 139.918 30.2517 137.904 32.277C139.731 31.4529 141.419 30.0915 142.939 28.99C142.227 30.0678 141.273 31.3131 140.272 32.5985C138.735 34.5678 137.092 36.6236 136.037 38.3785L135.236 39.6985L136.596 38.9608C139.361 37.4614 143.382 34.6862 146.932 32.3768C146.135 34.3652 145.428 36.3509 144.862 38.4832L144.471 39.9685L145.568 38.8953C148.521 36.0085 151.401 32.5935 153.62 29.1858C151.084 31.6277 148.643 34.5396 146.131 37.1286ZM163.592 36.579C163.316 37.2634 163.06 37.9086 162.838 38.4322C162.582 36.4369 162.261 34.7121 161.45 32.7893C161.721 35.4338 162.042 37.175 162.082 39.6356C162.082 39.7704 162.047 39.8587 162.174 40.0614C162.233 40.1638 162.438 40.3036 162.612 40.2849C162.787 40.2667 162.857 40.1893 162.913 40.1383C163.118 39.938 163.176 39.7567 163.318 39.4562C163.59 38.8556 163.946 37.9154 164.372 36.8955C165.101 35.182 165.65 33.567 166.644 31.8067C164.954 32.8539 164.307 34.8164 163.592 36.579ZM155.035 36.2716C154.432 37.012 153.867 37.6454 153.522 37.9177C153.545 35.8805 153.627 32.7893 153.627 32.7893C153.627 32.7893 152.679 35.876 152.679 38.0547C152.679 38.2223 152.693 38.3735 152.763 38.5274C152.826 38.6813 153 38.8488 153.194 38.8862C153.573 38.9722 153.796 38.7814 154.034 38.5947C154.514 38.2223 155.072 37.5753 155.694 36.8026C156.939 35.2754 157.891 33.7459 158.82 32.2606C157.363 33.327 156.255 34.7768 155.035 36.2716ZM168.73 34.8774C168.458 36.1692 168.3 37.8198 169.273 39.1093C169.191 37.766 169.303 36.253 169.554 35.0495C169.805 33.8393 170.217 32.6217 170.217 32.6217C170.217 32.6217 169 33.5829 168.73 34.8774ZM162.931 39.6985C162.94 39.7194 162.936 39.7149 162.931 39.6985ZM170.069 42.3776L169.431 43.572C168.167 45.9233 166.903 48.2769 165.634 50.6205C164.717 48.4558 163.806 46.298 162.889 44.1352L162.55 43.337L162.126 44.091C161.02 46.0558 158.683 48.8797 157.789 49.9293C156.068 47.4782 152.891 43.5091 152.891 43.5091L152.528 43.0506L152.205 43.5419C150.702 45.8519 149.202 48.1635 147.705 50.4766C146.448 49.494 145.472 47.5292 145.156 44.7804L144.988 43.3438L144.357 44.6474C143.719 45.9629 141.884 47.9367 140.234 49.524C139.354 50.3622 138.453 51.1781 137.532 51.971C136.58 49.7135 135.627 47.457 134.671 45.2016L134.131 43.9235C133.872 46.0371 132.587 48.0064 131.651 49.5805C132.899 48.8838 133.784 47.8252 134.336 46.5771C135.217 48.6618 136.098 50.7469 136.977 52.8325L137.201 53.3584L137.639 52.9977C137.639 52.9977 139.143 51.7547 140.823 50.1415C142.148 48.8724 143.584 47.399 144.504 46.0631C145.002 48.6257 146.089 50.5043 147.607 51.4473L147.956 51.6686L148.182 51.3239C149.657 49.0541 151.131 46.7889 152.598 44.5168C153.555 45.7298 156.139 49.0286 157.407 50.8745L157.715 51.3239L158.071 50.9119C158.071 50.9119 160.824 47.7879 162.431 45.2412C163.352 47.4199 164.268 49.5964 165.191 51.7752L165.532 52.5925L165.953 51.8152C167.166 49.5659 168.369 47.3248 169.577 45.0782C170.029 46.9778 170.793 49.3569 172.431 50.1041C170.802 47.3248 170.376 45.1014 170.069 42.3776ZM129.244 59.0828C129.307 59.6833 129.403 60.4679 129.526 61.2875C129.661 62.1694 129.826 63.1052 130.029 63.9202C130.234 64.7421 130.452 65.4332 130.783 65.9082L131.044 66.2806L131.395 65.9942C131.395 65.9942 132.845 64.8094 134.359 63.1684C135.681 61.7414 137.08 59.9766 137.611 58.2236C138.267 58.8818 138.919 59.5446 139.566 60.212C140.877 61.5711 142.336 63.1612 142.811 63.8596L143.056 64.2275L143.409 63.9712C143.409 63.9712 146.843 61.4851 147.963 57.3297C148.366 58.4681 148.801 59.8764 149.206 61.2246C149.795 63.1844 150.312 65.0048 150.589 65.7989L150.803 66.4181L151.28 65.9733C151.28 65.9733 152.526 64.7976 153.808 63.0214C154.863 61.5666 155.962 59.6902 156.408 57.6835C157.005 58.9384 157.614 60.461 158.255 61.8717C159.106 63.7453 159.97 65.4451 161.269 66.0457L161.551 66.1782L161.761 65.9455C161.761 65.9455 165.096 62.2906 166.262 57.2974C166.863 58.8009 167.308 60.0535 167.775 61.1195C168.372 62.4836 169.012 63.5755 170.048 64.4766L170.518 64.8887L170.725 64.2995C171.608 61.8252 172.219 59.1338 173.188 56.8712C173.411 58.4075 173.984 59.9652 175.521 61.527C174.21 58.6661 173.921 56.4824 173.898 53.6866L173.121 55.0763C171.738 57.551 171.07 60.6377 170.15 63.3966C169.498 62.6885 169.035 61.8598 168.551 60.7821C167.978 59.4716 167.41 57.8001 166.505 55.6491L165.909 54.2244L165.695 55.7543C165.064 60.3536 162.186 64.1228 161.358 65.1191C160.613 64.5695 159.777 63.1612 159.025 61.5224C158.192 59.6856 157.407 57.5929 156.551 56.1268L155.849 54.9229L155.759 56.308C155.612 58.5405 154.362 60.8194 153.126 62.5278C152.53 63.3534 151.878 64.1375 151.176 64.8746C150.894 63.9644 150.479 62.5096 150.021 60.987C149.434 59.0177 148.775 56.9318 148.221 55.6446L147.593 54.1893L147.414 55.7634C146.976 59.5508 144.213 62.2113 143.249 63.0287C142.562 62.1276 141.331 60.8217 140.181 59.6273C139.355 58.7709 138.519 57.9252 137.671 57.0902L137.078 56.501L136.956 57.3252C136.722 58.9384 135.218 60.9988 133.746 62.5934C132.96 63.4395 132.13 64.2429 131.258 65.0002C131.118 64.6674 130.976 64.2203 130.848 63.713C130.657 62.9399 130.494 62.0206 130.364 61.1545C130.103 59.4252 129.97 57.8748 129.97 57.8748L129.875 56.7246C128.779 58.275 127.603 59.9301 126.993 61.527C127.971 60.88 128.607 59.9811 129.244 59.0828ZM173.472 75.2943C172.452 73.5577 170.995 70.4082 170.194 68.6529L169.784 67.7705L169.417 68.6666C167.741 72.6917 166.183 75.4036 165.548 76.4559C164.908 75.5689 164.042 73.9534 163.341 72.4936C162.5 70.7433 161.842 69.1906 161.842 69.1906L161.523 68.4503L161.085 69.1324C159.085 72.2983 157.074 75.4664 155.07 78.6255C154.041 77.8783 153.119 76.449 152.365 74.8545C151.532 73.0828 150.868 71.1203 150.328 69.6655L149.788 68.2085L149.52 69.742C149.013 72.6334 147.039 76.4627 146.233 77.9366C145.644 76.8866 145.023 75.2943 144.543 73.8978C143.964 72.2004 143.572 70.757 143.572 70.757L143.307 69.7653L142.797 70.6595C141.074 73.7134 140.495 75.1568 137.404 79.0399C136.698 77.9225 135.704 75.904 134.859 74.1096C133.884 72.0187 133.095 70.1801 133.095 70.1801L132.601 69.0299L132.296 70.2429C132.054 71.2137 131.016 74.0021 129.81 76.1276C129.207 77.189 128.546 78.0992 127.996 78.5226C127.72 78.7466 127.487 78.8277 127.321 78.8259C127.156 78.8231 127 78.7699 126.793 78.5021C124.789 75.9928 123.832 72.4449 123.832 72.4449C123.832 72.4449 123.929 76.2719 126.136 79.028C126.453 79.4264 126.872 79.6591 127.312 79.6609C127.75 79.666 128.145 79.4683 128.516 79.1842C129.249 78.6114 129.922 77.6406 130.548 76.5306C131.493 74.8636 132.313 72.8966 132.78 71.5392C133.104 72.2723 133.574 73.3296 134.096 74.4442C135.075 76.5488 136.219 78.8837 137.036 79.9824L137.364 80.4204L137.704 79.997C140.804 76.1554 141.617 74.5166 143.041 71.9349C143.216 72.5123 143.46 73.2968 143.747 74.1419C144.336 75.8667 145.09 77.8483 145.912 78.9934L146.289 79.5262L146.622 78.9652C146.622 78.9652 149.001 74.9401 150.033 71.281C150.47 72.4913 150.987 73.8855 151.613 75.2033C152.484 77.0332 153.543 78.7394 155.003 79.5708L155.347 79.7711L155.566 79.431C157.503 76.3721 159.439 73.3109 161.381 70.2497C161.767 71.1236 162.166 71.9912 162.58 72.8524C163.432 74.6214 164.431 76.5633 165.289 77.459L165.65 77.8433L165.941 77.4034C165.941 77.4034 167.759 74.6519 169.819 69.8704C170.769 71.9331 172.184 74.9173 173.143 76.3557L173.516 76.9144L173.856 76.3325C175.239 73.9534 176.14 71.9609 176.047 68.8182C175.448 71.1622 174.561 73.2736 173.472 75.2943H173.472Z" fill="#BC8810" stroke="#BC8810" stroke-width="0.489935"/>
<path d="M155.953 23.162C157.534 21.3648 158.357 20.1523 159.491 18.1247C161.148 14.9679 165.206 17.1467 168.519 16.9185C167.993 16.7696 167.541 17.0679 167.541 17.4467C167.541 19.6309 166.333 22.2591 163.784 22.6361C161.451 22.9366 159.272 22.1052 157.015 22.2591C156.63 22.2591 156.33 22.7827 155.953 23.162Z" fill="white"/>
<mask id="mask0_199_66957" style="mask-type:luminance" maskUnits="userSpaceOnUse" x="155" y="16" width="14" height="8">
<path d="M155.953 23.1611C157.534 21.3639 158.358 20.1511 159.492 18.1235C161.149 14.9669 165.207 17.1458 168.519 16.9177C167.993 16.7687 167.541 17.0667 167.541 17.4461C167.541 19.6297 166.333 22.2579 163.784 22.635C161.452 22.9353 159.273 22.1042 157.015 22.2579C156.631 22.2579 156.33 22.7816 155.953 23.1611V23.1611Z" fill="white"/>
</mask>
<g mask="url(#mask0_199_66957)">
<path d="M164.305 21.0523C165.73 21.0523 166.864 19.8488 166.864 18.4218C166.864 16.9901 165.737 15.8564 164.305 15.8564C162.874 15.8564 161.742 16.9831 161.742 18.4218C161.751 19.8511 162.876 21.0523 164.305 21.0523Z" fill="#584500"/>
</g>
<path d="M162.701 15.9688C162.105 15.9688 161.532 16.0389 160.994 16.2342C160.248 16.5092 159.565 17.047 159.125 17.9244C157.775 20.6341 155.957 22.2332 155 24.6587C155.715 24.049 156.369 23.3087 157.016 22.6849H157.03L157.046 22.6803C159.181 22.5383 161.381 23.3788 163.842 23.0573H163.853C165.259 22.8479 166.307 22.0123 166.968 20.9624C167.618 19.9288 167.922 18.6834 167.932 17.5337C168.753 17.3867 169.368 16.8557 170.104 16.3649C167.871 16.9259 165.429 16.1645 163.43 16.0015C163.187 15.9794 162.944 15.9685 162.701 15.9688ZM162.712 16.8138C162.922 16.8138 163.141 16.823 163.358 16.8421C164.503 16.9259 165.797 17.2145 167.091 17.3193C167.082 17.3703 167.073 17.424 167.073 17.4727C167.073 18.4926 166.8 19.6169 166.242 20.5061C165.69 21.3977 164.868 22.0451 163.727 22.2172C161.728 22.4731 159.749 21.8143 157.621 21.8143C158.448 20.732 159.095 19.712 159.87 18.3224L159.872 18.3178V18.3132C160.245 17.6007 160.703 17.2355 161.281 17.021C161.697 16.8767 162.177 16.8161 162.712 16.8138Z" fill="#BC8810" stroke="#BC8810" stroke-width="0.45533"/>
<path d="M113.37 91.022C113.37 91.022 118.861 82.3693 113.37 73.7162C107.879 65.0613 117.434 64.6142 116.38 58.8201C115.402 53.1053 108.405 30.9084 82.8257 31.891C57.1701 32.8691 39.1149 51.1474 34.5985 54.0109C30.0871 56.9464 25.1195 61.237 22.112 55.5144C22.112 55.5144 20.0822 60.3241 22.561 63.1872C25.1199 65.9715 28.1319 67.9272 32.6433 65.9715C32.6433 65.9715 22.1116 81.3936 21.0525 86.2105C20.0771 91.0197 19.549 91.0197 15.5635 89.5904C15.5635 89.5904 16.0916 93.9552 18.5732 94.4046C21.0525 94.9328 24.5936 96.8115 27.0728 92.9776C27.0728 92.9776 22.561 103.588 24.0626 109.827C26.0948 118.026 23.6155 125.703 21.5834 127.209C21.5834 127.209 29.6336 129.097 33.6232 123.822C33.6232 123.822 33.0927 149.862 26.0998 157.986C26.0998 157.986 34.1496 161.366 37.6087 156.099C37.6087 156.099 31.5911 192.663 3 245.702C3 245.702 12.556 249.012 20.0794 234.111C20.0794 234.111 28.5809 236.972 35.1272 222.525C35.1272 222.525 51.1525 223.053 56.1921 197.996C56.1921 197.996 66.7262 200.403 71.2421 184.531L84.7813 169.556C84.7813 169.556 93.8461 172.985 98.3247 156.092C101.202 145.232 102.99 138.092 104.492 118.824C108.449 130.007 111.701 120.633 112.408 117.893C115.202 107.152 113.37 91.022 113.37 91.022Z" fill="#FDDD10" stroke="#BC8810" stroke-width="1.44567"/>
<path d="M32.6503 65.9717C35.1295 63.1851 57.636 40.1572 82.2375 40.1572ZM80.2723 49.1923C80.2723 49.1923 59.8098 50.9941 45.6654 65.5177C33.1019 78.5356 27.082 92.9823 27.082 92.9823" fill="#FDDD10"/>
<path d="M32.6503 65.9717C35.1295 63.1851 57.636 40.1572 82.2375 40.1572M80.2723 49.1923C80.2723 49.1923 59.8098 50.9941 45.6654 65.5177C33.1019 78.5356 27.082 92.9823 27.082 92.9823" stroke="#BC8810" stroke-width="1.44567"/>
<path d="M79.293 56.9404C79.293 56.9404 64.6205 60.2507 53.7144 68.9033C47.6968 73.7198 37.6144 85.7573 36.1082 94.9432C34.6047 104.038 33.6289 119.016 33.6289 123.827" fill="#FDDD10"/>
<path d="M79.293 56.9404C79.293 56.9404 64.6205 60.2507 53.7144 68.9033C47.6968 73.7198 37.6144 85.7573 36.1082 94.9432C34.6047 104.038 33.6289 119.016 33.6289 123.827" stroke="#BC8810" stroke-width="1.44567"/>
<path d="M79.2272 65.0615C76.6665 66.0368 66.5049 69.0548 57.7029 76.1265C51.6834 80.9361 44.6855 90.5664 43.6309 107.42C42.6556 124.27 44.1591 137.741 37.6133 156.097" fill="#FDDD10"/>
<path d="M79.2272 65.0615C76.6665 66.0368 66.5049 69.0548 57.7029 76.1265C51.6834 80.9361 44.6855 90.5664 43.6309 107.42C42.6556 124.27 44.1591 137.741 37.6133 156.097" stroke="#BC8810" stroke-width="1.44567"/>
<path d="M81.3255 72.7412C77.263 74.6946 54.6918 79.9627 52.2057 109.376C49.6468 138.716 49.1933 158.504 41.1458 180.174C35.1259 196.348 20.0781 234.116 20.0781 234.116" fill="#FDDD10"/>
<path d="M81.3255 72.7412C77.263 74.6946 54.6918 79.9627 52.2057 109.376C49.6468 138.716 49.1933 158.504 41.1458 180.174C35.1259 196.348 20.0781 234.116 20.0781 234.116" stroke="#BC8810" stroke-width="1.44567"/>
<path d="M35.1289 222.537C35.1289 222.537 50.1043 189.886 55.2162 169.119C61.2362 144.522 61.462 119.463 61.7648 112.765C62.2138 99.2282 62.7424 90.1198 80.8021 83.3477" fill="#FDDD10"/>
<path d="M35.1289 222.537C35.1289 222.537 50.1043 189.886 55.2162 169.119C61.2362 144.522 61.462 119.463 61.7648 112.765C62.2138 99.2282 62.7424 90.1198 80.8021 83.3477" stroke="#BC8810" stroke-width="1.44567"/>
<path d="M82.8273 91.5488C79.8176 91.9955 70.9409 94.931 71.2414 115.626C71.7696 149.858 57.7746 194.174 56.1914 198.01M88.2566 99.7448C86.2241 100.278 80.4996 99.2307 80.7974 116.077C81.3256 143.091 74.2489 172.962 71.2437 184.544M94.7237 111.857C94.7237 111.857 93.813 139.699 84.7852 169.57Z" fill="#FDDD10"/>
<path d="M82.8273 91.5488C79.8176 91.9955 70.9409 94.931 71.2414 115.626C71.7696 149.858 57.7746 194.174 56.1914 198.01M88.2566 99.7448C86.2241 100.278 80.4996 99.2307 80.7974 116.077C81.3256 143.091 74.2489 172.962 71.2437 184.544M94.7237 111.857C94.7237 111.857 93.813 139.699 84.7852 169.57" stroke="#BC8810" stroke-width="1.44567"/>
<path d="M120.368 103.064C120.368 103.064 115.403 86.2171 106.375 84.3293C97.3476 82.446 107.879 76.1324 100.884 71.7676C100.884 71.7676 107.353 63.1847 105.852 56.413C104.348 49.7155 101.487 39.7101 88.3225 37.1589C83.9085 36.3024 83.9923 35.0266 84.3347 31.9886C83.9741 31.9021 84.0947 31.8657 82.8308 31.8885C82.2907 36.307 81.7789 42.499 80.8009 45.8862C79.821 49.1965 76.2895 69.3562 81.3291 72.7457C81.3291 72.7457 79.2997 85.7608 81.7785 90.1233C84.3393 94.4135 86.819 101.63 90.8063 102.613C90.8063 102.613 91.8609 119.993 108.864 119.993L109.167 117.283L120.368 103.064Z" fill="#BC8810" stroke="black" stroke-width="0.670432"/>
<path d="M84.1901 37.832C85.1563 38.4672 86.4181 38.8351 87.938 39.1306C94.0649 40.3204 97.5126 43.0929 99.8084 46.3822C102.103 49.6715 103.153 53.5614 103.889 56.8507C104.468 59.4675 103.453 62.9685 102.117 65.757C100.783 68.5527 99.2798 70.5529 99.2798 70.5529L97.9548 72.3078L99.8216 73.4698C101.193 74.324 101.352 74.8431 101.426 75.5279C101.503 76.2095 101.254 77.234 100.925 78.4629C100.597 79.6828 100.103 81.2309 100.842 82.9743C101.575 84.711 103.411 85.7678 105.965 86.301C109.38 87.0181 112.723 91.1102 114.985 95.3566C116.574 98.329 117.637 101.22 118.129 102.671L107.225 116.498L107.069 117.914C100.466 117.383 97.1939 113.929 95.2173 110.336C93.0732 106.43 92.8127 102.494 92.8127 102.494L92.7217 101.013L91.2855 100.662C90.308 100.422 88.8436 98.9159 87.4913 96.6019C86.1435 94.2948 84.9005 91.4385 83.5149 89.1222C82.8214 87.8769 82.4371 83.5727 82.6279 79.9063C82.8191 76.2282 83.3127 73.0645 83.3127 73.0645L83.5103 71.7983L82.4467 71.0766C82.0414 70.8134 81.2942 69.4747 80.966 67.2937C80.6381 65.1099 80.6263 62.2746 80.8125 59.4165C81.1777 53.7126 82.3652 47.679 82.7258 46.4614L82.7281 46.4523V46.4478C83.4033 44.1124 83.8341 40.9397 84.1901 37.832Z" fill="#BC8810"/>
<path d="M187.634 91.022C187.634 91.022 182.147 82.3693 187.634 73.7162C193.121 65.0613 183.574 64.6142 184.624 58.8201C185.602 53.1053 192.6 30.9084 218.174 31.891C243.83 32.8691 261.887 51.1474 266.41 54.0109C270.922 56.9464 275.885 61.237 278.897 55.5144C278.897 55.5144 280.925 60.3241 278.45 63.1872C275.885 65.9715 272.872 67.9272 268.366 65.9715C268.366 65.9715 278.897 81.3936 279.954 86.2105C280.932 91.0197 281.458 91.0197 285.439 89.5904C285.439 89.5904 284.91 93.9552 282.429 94.4046C279.954 94.9328 276.413 96.8115 273.932 92.9776C273.932 92.9776 278.443 103.588 276.939 109.827C274.91 118.026 277.391 125.703 279.423 127.209C279.423 127.209 271.371 129.097 267.383 123.822C267.383 123.822 267.912 149.862 274.903 157.986C274.903 157.986 266.852 161.366 263.396 156.099C263.396 156.099 269.416 192.663 298 245.702C298 245.702 288.446 249.012 280.923 234.111C280.923 234.111 272.426 236.972 265.875 222.525C265.875 222.525 249.845 223.053 244.81 197.996C244.81 197.996 234.276 200.403 229.758 184.531L216.218 169.556C216.218 169.556 207.156 172.985 202.684 156.092C199.802 145.232 198.019 138.092 196.515 118.824C192.56 130.007 189.308 120.633 188.596 117.893C185.807 107.152 187.634 91.022 187.634 91.022Z" fill="#FDDD10" stroke="#BC8810" stroke-width="1.44567"/>
<path d="M268.352 65.9717C265.873 63.1851 243.362 40.1572 218.766 40.1572ZM220.726 49.1923C220.726 49.1923 241.191 50.9941 255.335 65.5177C267.898 78.5356 273.916 92.9823 273.916 92.9823" fill="#FDDD10"/>
<path d="M268.352 65.9717C265.873 63.1851 243.362 40.1572 218.766 40.1572M220.726 49.1923C220.726 49.1923 241.191 50.9941 255.335 65.5177C267.898 78.5356 273.916 92.9823 273.916 92.9823" stroke="#BC8810" stroke-width="1.44567"/>
<path d="M221.707 56.9404C221.707 56.9404 236.382 60.2507 247.286 68.9033C253.306 73.7198 263.39 85.7573 264.892 94.9432C266.395 104.038 267.371 119.018 267.371 123.827" fill="#FDDD10"/>
<path d="M221.707 56.9404C221.707 56.9404 236.382 60.2507 247.286 68.9033C253.306 73.7198 263.39 85.7573 264.892 94.9432C266.395 104.038 267.371 119.018 267.371 123.827" stroke="#BC8810" stroke-width="1.44567"/>
<path d="M221.773 65.0615C224.336 66.0368 234.496 69.0548 243.298 76.1265C249.317 80.9361 256.315 90.5664 257.37 107.42C258.347 124.27 256.839 137.741 263.385 156.097" fill="#FDDD10"/>
<path d="M221.773 65.0615C224.336 66.0368 234.496 69.0548 243.298 76.1265C249.317 80.9361 256.315 90.5664 257.37 107.42C258.347 124.27 256.839 137.741 263.385 156.097" stroke="#BC8810" stroke-width="1.44567"/>
<path d="M219.676 72.7412C223.736 74.6946 246.309 79.9627 248.795 109.376C251.358 138.716 251.805 158.504 259.855 180.174C265.875 196.348 280.923 234.116 280.923 234.116" fill="#FDDD10"/>
<path d="M219.676 72.7412C223.736 74.6946 246.309 79.9627 248.795 109.376C251.358 138.716 251.805 158.504 259.855 180.174C265.875 196.348 280.923 234.116 280.923 234.116" stroke="#BC8810" stroke-width="1.44567"/>
<path d="M265.874 222.537C265.874 222.537 250.899 189.886 245.787 169.119C239.767 144.522 239.536 119.463 239.238 112.765C238.794 99.2282 238.261 90.1198 220.203 83.3477" fill="#FDDD10"/>
<path d="M265.874 222.537C265.874 222.537 250.899 189.886 245.787 169.119C239.767 144.522 239.536 119.463 239.238 112.765C238.794 99.2282 238.261 90.1198 220.203 83.3477" stroke="#BC8810" stroke-width="1.44567"/>
<path d="M218.174 91.5488C221.183 91.9955 230.058 94.931 229.764 115.626C229.236 149.858 243.236 194.174 244.816 198.01M212.747 99.7448C214.779 100.278 220.499 99.2307 220.206 116.077C219.678 143.091 226.754 172.962 229.76 184.544M206.277 111.857C206.277 111.857 207.188 139.699 216.218 169.57Z" fill="#FDDD10"/>
<path d="M218.174 91.5488C221.183 91.9955 230.058 94.931 229.764 115.626C229.236 149.858 243.236 194.174 244.816 198.01M212.747 99.7448C214.779 100.278 220.499 99.2307 220.206 116.077C219.678 143.091 226.754 172.962 229.76 184.544M206.277 111.857C206.277 111.857 207.188 139.699 216.218 169.57" stroke="#BC8810" stroke-width="1.44567"/>
<path d="M180.633 103.064C180.633 103.064 185.603 86.2171 194.628 84.3293C203.658 82.446 193.124 76.1324 200.117 71.7676C200.117 71.7676 193.655 63.1847 195.154 56.413C196.658 49.7155 199.514 39.7101 212.676 37.1589C217.09 36.3024 217.011 35.0266 216.659 31.9886C217.022 31.9021 216.901 31.8657 218.166 31.8885C218.707 36.307 219.217 42.499 220.196 45.8862C221.173 49.1965 224.709 69.3562 219.667 72.7457C219.667 72.7457 221.699 85.7608 219.217 90.1233C216.657 94.4135 214.176 101.63 210.188 102.613C210.188 102.613 209.138 119.993 192.128 119.993L191.832 117.283L180.633 103.064Z" fill="#BC8810"/>
<path d="M216.817 37.832C215.849 38.4672 214.59 38.8351 213.072 39.1306C206.947 40.3204 203.497 43.0929 201.197 46.3822C198.909 49.6715 197.852 53.5614 197.119 56.8507C196.539 59.4675 197.554 62.9685 198.895 65.757C200.227 68.5527 201.728 70.5529 201.728 70.5529L203.05 72.3078L201.185 73.4698C199.812 74.324 199.663 74.8431 199.582 75.5279C199.509 76.2095 199.754 77.234 200.083 78.4629C200.413 79.6828 200.906 81.2309 200.168 82.9743C199.435 84.711 197.598 85.7678 195.045 86.301C191.63 87.0181 188.287 91.1102 186.024 95.3566C184.437 98.329 183.372 101.22 182.879 102.671L193.785 116.498L193.943 117.914C200.541 117.383 203.811 113.929 205.792 110.336C207.939 106.43 208.195 102.494 208.195 102.494L208.286 101.013L209.725 100.662C210.7 100.422 212.162 98.9159 213.514 96.6019C214.864 94.2948 216.108 91.4385 217.49 89.1222C218.184 87.8769 218.568 83.5727 218.38 79.9063C218.191 76.2282 217.693 73.0645 217.693 73.0645L217.497 71.7983L218.559 71.0766C218.968 70.8134 219.711 69.4747 220.042 67.2937C220.37 65.1099 220.382 62.2746 220.195 59.4165C219.83 53.7126 218.64 47.679 218.279 46.4614L218.277 46.4523V46.4478C217.609 44.1124 217.171 40.9397 216.817 37.832Z" fill="#BC8810"/>
<path d="M110.793 157.772L106.312 159.786C103.846 161.799 103.176 164.935 103.176 164.935C103.176 164.935 106.085 165.608 108.998 164.714C111.908 163.816 113.253 162.472 113.253 162.472L110.793 157.772ZM113.465 163.119L108.986 165.131C106.521 167.149 105.85 170.285 105.85 170.285C105.85 170.285 108.76 170.957 111.673 170.059C114.582 169.163 115.928 167.819 115.928 167.819L113.465 163.119ZM116.14 168.704L111.661 170.717C109.193 172.736 108.523 175.869 108.523 175.869C108.523 175.869 111.435 176.542 114.347 175.646C117.255 174.745 118.6 173.402 118.6 173.402L116.14 168.704ZM119.038 174.54L114.557 176.556C112.092 178.567 111.421 181.706 111.421 181.706C111.421 181.706 114.331 182.378 117.243 181.482C120.153 180.583 121.496 179.242 121.496 179.242L119.038 174.54ZM122.383 180.327L117.904 182.341C115.439 184.35 114.769 187.49 114.769 187.49C114.769 187.49 117.678 188.163 120.591 187.262C123.5 186.366 124.844 185.023 124.844 185.023L122.383 180.327Z" fill="#FDDD10" stroke="#BC8810" stroke-width="0.670434"/>
<path d="M110.041 159.947L111.112 161.996C110.544 162.333 109.701 162.743 108.509 163.111C107.474 163.436 106.396 163.511 105.516 163.495C105.893 162.757 106.444 161.898 107.217 161.218L110.041 159.947ZM112.718 165.294L113.789 167.34C113.221 167.68 112.376 168.092 111.186 168.456C110.146 168.782 109.073 168.856 108.193 168.837C108.568 168.097 109.117 167.24 109.892 166.558L112.718 165.294ZM115.391 170.881L116.461 172.925C115.891 173.267 115.051 173.677 113.859 174.045C112.823 174.366 111.745 174.443 110.861 174.429C111.24 173.682 111.792 172.832 112.567 172.15L115.391 170.881ZM118.287 176.717L119.357 178.763C118.789 179.103 117.947 179.506 116.755 179.879C115.719 180.207 114.641 180.281 113.761 180.265C114.138 179.518 114.69 178.668 115.463 177.988L118.287 176.717ZM121.634 182.504L122.705 184.551C122.137 184.891 121.292 185.3 120.102 185.668C119.064 185.989 117.991 186.064 117.109 186.05C117.486 185.305 118.035 184.448 118.808 183.771L121.634 182.504Z" fill="#FDDD10"/>
<path d="M189.988 157.771L194.469 159.785C196.935 161.799 197.605 164.935 197.605 164.935C197.605 164.935 194.695 165.607 191.783 164.713C188.873 163.815 187.527 162.471 187.527 162.471L189.988 157.771ZM187.316 163.119L191.795 165.13C194.26 167.148 194.93 170.284 194.93 170.284C194.93 170.284 192.021 170.956 189.108 170.058C186.199 169.162 184.853 167.819 184.853 167.819L187.316 163.119ZM184.641 168.704L189.12 170.717C191.588 172.735 192.258 175.869 192.258 175.869C192.258 175.869 189.346 176.541 186.434 175.645C183.526 174.744 182.181 173.401 182.181 173.401L184.641 168.704ZM181.743 174.539L186.224 176.555C188.689 178.566 189.36 181.705 189.36 181.705C189.36 181.705 186.45 182.378 183.538 181.481C180.628 180.583 179.285 179.242 179.285 179.242L181.743 174.539ZM178.398 180.326L182.877 182.34C185.342 184.349 186.012 187.489 186.012 187.489C186.012 187.489 183.103 188.162 180.19 187.261C177.28 186.365 175.938 185.022 175.938 185.022L178.398 180.326Z" fill="#FDDD10" stroke="#BC8810" stroke-width="0.670434"/>
<path d="M190.742 159.946L189.671 161.995C190.239 162.332 191.081 162.742 192.273 163.11C193.309 163.436 194.387 163.511 195.267 163.494C194.89 162.756 194.338 161.897 193.565 161.218L190.742 159.946ZM188.064 165.294L186.994 167.34C187.562 167.68 188.407 168.091 189.596 168.455C190.637 168.781 191.71 168.855 192.59 168.837C192.215 168.096 191.666 167.24 190.891 166.558L188.064 165.294ZM185.392 170.881L184.321 172.925C184.892 173.267 185.732 173.676 186.924 174.044C187.96 174.365 189.037 174.442 189.922 174.428C189.543 173.681 188.991 172.831 188.216 172.149L185.392 170.881ZM182.496 176.717L181.425 178.763C181.993 179.102 182.836 179.505 184.028 179.878C185.064 180.206 186.142 180.28 187.022 180.264C186.645 179.517 186.093 178.667 185.32 177.987L182.496 176.717ZM179.149 182.504L178.078 184.55C178.646 184.89 179.491 185.3 180.68 185.667C181.718 185.988 182.792 186.063 183.674 186.049C183.297 185.304 182.748 184.448 181.975 183.77L179.149 182.504Z" fill="#FDDD10"/>
<path d="M174.468 84.3656L196.609 113.604C202.747 153.505 186.012 188.518 150.609 211.057C115.249 188.505 98.553 153.471 104.682 113.602L126.748 84.3564H174.461L174.468 84.3656Z" fill="#BC8810" stroke="#BC8810" stroke-width="2.88406"/>
<path d="M194.85 114.343C200.633 153.011 184.689 186.724 150.605 208.864C116.57 186.707 100.656 152.988 106.432 114.343L127.66 86.21H173.543L194.85 114.343ZM129.264 90.2392L128.712 90.9704L109.402 116.442L109.334 116.903C104.043 151.819 118.709 182.654 149.621 202.395L150.613 203.026L151.604 202.395C182.554 182.671 197.261 151.849 191.965 116.903L191.903 116.44L171.962 90.2346H171.04L129.264 90.2392Z" fill="#FDDD10"/>
<path d="M98.0086 185.295C98.0086 185.295 85.6637 178.371 90.9342 174.836C95.676 171.753 98.5323 180.327 98.0086 185.295Z" fill="#FDDD10" stroke="black" stroke-width="0.670434"/>
<path d="M92.854 175.909C93.0261 175.909 93.1681 175.972 93.3448 176.059C93.7546 176.256 94.367 176.878 94.8816 177.855C95.468 178.975 95.9033 180.512 96.1269 181.992C95.3214 181.426 94.4485 180.768 93.6708 180.072C92.5607 179.077 91.697 177.984 91.4711 177.355C91.3619 177.041 91.3801 176.917 91.4083 176.824C91.4361 176.731 91.4994 176.575 91.9087 176.293C92.3581 176.016 92.6281 175.909 92.854 175.909Z" fill="#FDDD10"/>
<path d="M101.39 191.616C101.39 191.616 92.3602 180.853 100.566 174.158C100.566 174.158 107.187 180.102 101.39 191.616Z" fill="#FDDD10" stroke="black" stroke-width="0.670434"/>
<path d="M100.409 176.772C100.768 177.345 101.154 178.118 101.468 179.105C102.123 181.149 102.418 184.047 101.04 187.974C100.517 187.071 99.9762 185.989 99.5664 184.822C99.0127 183.244 98.7309 181.554 98.9754 179.992C99.1498 178.875 99.5596 177.808 100.41 176.773L100.409 176.772Z" fill="#FDDD10"/>
<path d="M101.39 191.616C101.39 191.616 99.1345 180.784 86.9453 182.357C86.9453 182.357 90.8566 193.645 101.39 191.616Z" fill="#FDDD10" stroke="black" stroke-width="0.670434"/>
<path d="M89.6602 183.958C93.6343 184.028 95.8804 185.716 97.3844 187.52C98.0322 188.307 98.5746 189.175 98.9976 190.102C95.5476 190.153 93.2454 188.491 91.532 186.566C90.7384 185.683 90.1191 184.757 89.6606 183.958L89.6602 183.958Z" fill="#FDDD10"/>
<path d="M103.721 197.859C103.721 197.859 102.595 187.543 90.5547 189.128C90.5547 189.128 91.9862 197.029 103.721 197.859Z" fill="#FDDD10" stroke="black" stroke-width="0.670434"/>
<path d="M93.1072 190.719C97.0367 190.719 98.9942 192.297 100.244 193.959C100.663 194.524 101.017 195.135 101.299 195.78C97.467 195.06 95.337 193.473 94.0657 192.022C93.7047 191.618 93.3807 191.181 93.0977 190.719H93.1072Z" fill="#FDDD10"/>
<path d="M104.552 197.556C104.552 197.556 96.0515 187.627 104.252 180.93C104.252 180.93 111.399 188.302 104.552 197.556Z" fill="#FDDD10" stroke="black" stroke-width="0.670434"/>
<path d="M104.045 183.586C104.57 184.433 104.986 185.343 105.281 186.295C105.944 188.43 106.172 191.128 104.48 194.378C103.956 193.507 103.398 192.404 102.997 191.207C102.511 189.743 102.282 188.176 102.564 186.691C102.767 185.637 103.195 184.608 104.045 183.586Z" fill="#FDDD10"/>
<path d="M107.186 203.047C107.186 203.047 105.754 193.794 93.7188 195.375C93.7188 195.375 96.575 205.154 107.186 203.047Z" fill="#FDDD10" stroke="black" stroke-width="0.670434"/>
<path d="M96.4571 196.945C100.34 196.941 102.372 198.351 103.641 199.783C104.116 200.329 104.52 200.933 104.842 201.581C101.322 201.774 99.2324 200.368 97.763 198.799C97.2354 198.231 96.7689 197.61 96.3711 196.945H96.4576H96.4571Z" fill="#FDDD10"/>
<path d="M107.635 203.876C107.635 203.876 99.1332 193.866 107.334 187.169C107.334 187.176 113.95 193.116 107.635 203.876Z" fill="#FDDD10" stroke="black" stroke-width="0.670434"/>
<path d="M107.172 189.781C107.596 190.479 107.93 191.228 108.168 192.009C108.769 193.978 108.988 196.721 107.414 200.42C106.937 199.591 106.446 198.58 106.083 197.484C105.6 196.011 105.372 194.428 105.654 192.938C105.852 191.867 106.294 190.822 107.172 189.781Z" fill="#FDDD10"/>
<path d="M111.625 209.593C111.625 209.593 102.823 200.114 111.02 193.493C111.02 193.493 117.794 198.61 111.625 209.593Z" fill="#FDDD10" stroke="black" stroke-width="0.670434"/>
<path d="M110.949 195.983C111.383 196.605 111.727 197.286 111.97 198.004C112.599 199.813 112.876 202.448 111.311 206.228C110.811 205.432 110.29 204.468 109.903 203.423C109.389 202.022 109.14 200.532 109.393 199.117C109.58 198.069 110.015 197.031 110.949 195.983Z" fill="#FDDD10"/>
<path d="M111.628 209.592C111.628 209.592 109.442 200.113 97.4062 201.687C97.4062 201.694 101.019 211.702 111.627 209.592H111.628Z" fill="#FDDD10" stroke="black" stroke-width="0.670434"/>
<path d="M107.75 206.264C108.282 206.828 108.743 207.454 109.123 208.129C105.65 208.262 103.409 206.818 101.786 205.191C97.4888 201.043 106.316 204.781 107.75 206.264Z" fill="#FDDD10"/>
<path d="M115.01 215.613C115.01 215.613 113.131 206.434 99.9648 206.883C99.9648 206.883 104.402 217.645 115.01 215.613Z" fill="#FDDD10" stroke="black" stroke-width="0.670434"/>
<path d="M103.047 208.728C107.279 209.135 109.672 210.727 111.145 212.287C111.668 212.839 112.126 213.449 112.51 214.105C109.008 214.161 106.571 212.571 104.758 210.757C104.129 210.132 103.557 209.453 103.047 208.728Z" fill="#FDDD10"/>
<path d="M115.764 215.087C115.764 215.087 107.184 209.898 114.41 198.685C114.41 198.685 119.603 203.573 115.764 215.087Z" fill="#FDDD10" stroke="black" stroke-width="0.670434"/>
<path d="M114.5 202.118C114.614 202.406 114.728 202.735 114.84 203.086C115.422 204.986 115.767 207.822 114.863 211.823C114.523 211.363 114.229 210.87 113.986 210.352C113.15 208.526 112.696 205.947 114.509 202.118H114.5Z" fill="#FDDD10"/>
<path d="M120.426 221.104C120.426 221.104 117.416 212.609 105.453 214.183C105.453 214.183 107.937 222.685 120.426 221.104Z" fill="#FDDD10" stroke="black" stroke-width="0.670434"/>
<path d="M108.394 215.745C112.3 215.747 114.7 217.042 116.279 218.39C116.692 218.743 117.075 219.13 117.424 219.547C113.331 219.554 110.931 218.248 109.418 216.916C109.013 216.558 108.639 216.167 108.301 215.745H108.394Z" fill="#FDDD10"/>
<path d="M120.426 221.104C120.426 221.104 110.118 212.153 118.24 205.535C118.242 205.531 125.612 210.119 120.426 221.104Z" fill="#FDDD10" stroke="black" stroke-width="0.670434"/>
<path d="M118.302 207.891C118.865 208.504 119.332 209.199 119.685 209.953C120.504 211.674 121.04 214.178 119.818 217.91C119.149 217.107 118.416 216.108 117.857 215.002C117.175 213.666 116.78 212.244 116.912 210.933C117.01 209.932 117.368 208.936 118.302 207.891Z" fill="#FDDD10"/>
<path d="M127.419 226.599C127.419 226.599 121.176 218.247 109.516 220.431C109.516 220.431 117.794 229.006 127.419 226.599Z" fill="#FDDD10" stroke="black" stroke-width="0.670434"/>
<path d="M114.086 221.828C118.413 221.987 121.57 223.714 123.544 225.241C119.81 225.106 116.427 223.395 114.086 221.828Z" fill="#FDDD10"/>
<path d="M127.418 226.598C127.418 226.598 116.284 222.909 122.681 210.725C122.681 210.725 127.724 211.926 127.418 226.598Z" fill="#FDDD10" stroke="black" stroke-width="0.670434"/>
<path d="M123.318 213.531C123.418 213.678 123.527 213.845 123.637 214.034C124.486 215.529 125.464 218.401 125.641 223.642C125.097 223.241 124.524 222.738 124.023 222.126C122.608 220.38 121.567 217.915 123.318 213.531H123.318Z" fill="#FDDD10"/>
<path d="M132.162 231.264C132.162 231.264 126.82 222.46 115.762 225.544C115.762 225.544 122.005 234.8 132.162 231.264V231.264Z" fill="#FDDD10" stroke="black" stroke-width="0.670434"/>
<path d="M120.37 226.641C123.261 226.636 125.458 227.6 127.13 228.722C127.8 229.166 128.429 229.669 129.009 230.225C125.736 230.663 123.142 229.595 121.129 228.261C120.425 227.793 119.76 227.27 119.141 226.697C119.564 226.659 119.974 226.641 120.37 226.641L120.37 226.641Z" fill="#FDDD10"/>
<path d="M132.161 231.264C132.161 231.264 120.876 223.286 128.097 215.539C128.097 215.539 135.32 218.773 132.161 231.264Z" fill="#FDDD10" stroke="black" stroke-width="0.670434"/>
<path d="M128.452 217.911C128.861 218.293 129.339 218.842 129.802 219.62C130.756 221.226 131.594 223.787 131.024 227.935C130.314 227.216 129.541 226.333 128.901 225.349C128.056 224.048 127.483 222.618 127.451 221.226C127.427 220.167 127.665 219.094 128.452 217.911Z" fill="#FDDD10"/>
<path d="M138.407 237.584C138.407 237.584 125.914 229.387 132.46 221.037C132.46 221.033 140.512 224.492 138.407 237.584Z" fill="#FDDD10" stroke="black" stroke-width="0.670434"/>
<path d="M132.982 223.441C133.505 223.877 134.141 224.503 134.777 225.413C135.999 227.166 137.151 229.885 136.981 234.199C136.141 233.433 135.198 232.476 134.391 231.387C133.359 229.995 132.572 228.437 132.377 226.915C132.23 225.788 132.349 224.664 132.982 223.441H132.982Z" fill="#FDDD10"/>
<path d="M138.406 237.584C138.406 237.584 133.44 227.427 121.023 232.097C121.023 232.09 128.17 242.174 138.406 237.584Z" fill="#FDDD10" stroke="black" stroke-width="0.670434"/>
<path d="M127.286 232.6C129.919 232.6 131.861 233.482 133.355 234.53C134.222 235.142 135.003 235.867 135.679 236.685C132.077 237.632 129.149 236.543 126.816 235.07C125.864 234.461 124.974 233.76 124.16 232.977C125.301 232.712 126.341 232.6 127.286 232.6Z" fill="#FDDD10"/>
<path d="M145.705 243.827C145.705 243.827 133.216 236.522 138.931 227.65C138.931 227.65 146.233 230.738 145.705 243.827Z" fill="#FDDD10" stroke="black" stroke-width="0.670434"/>
<path d="M139.594 230.199C140.034 230.591 140.553 231.13 141.091 231.871C142.308 233.535 143.561 236.161 143.887 240.316C143.114 239.665 142.283 238.861 141.536 237.951C140.453 236.633 139.603 235.127 139.308 233.596C139.103 232.515 139.136 231.414 139.594 230.199Z" fill="#FDDD10"/>
<path d="M144.72 243.301C144.72 243.301 138.404 233.896 127.414 239.087C127.414 239.087 135.317 248.492 144.72 243.301Z" fill="#FDDD10" stroke="black" stroke-width="0.670434"/>
<path d="M133.898 239.257C136.072 239.255 137.843 239.932 139.307 240.775C140.214 241.301 141.055 241.934 141.812 242.658C138.558 243.705 135.724 242.863 133.378 241.589C132.3 241.014 131.379 240.346 130.641 239.739C131.816 239.402 132.901 239.26 133.898 239.257Z" fill="#FDDD10"/>
<path d="M149.385 248.039C149.385 248.039 138.929 241.721 144.721 232.845C144.721 232.845 153.073 237.056 149.385 248.039Z" fill="#FDDD10" stroke="black" stroke-width="0.670434"/>
<path d="M145.318 235.412C145.953 235.966 146.511 236.602 146.978 237.303C148.109 238.997 149.034 241.395 148.366 245.026C145.424 242.268 144.083 238.392 145.318 235.412Z" fill="#FDDD10"/>
<path d="M149.386 248.039C149.386 248.039 145.25 239.614 134.27 244.88C134.27 244.88 139.984 253.232 149.386 248.039Z" fill="#FDDD10" stroke="black" stroke-width="0.670434"/>
<path d="M141.018 244.877C142.736 244.88 144.023 245.394 145.038 245.997C145.657 246.37 146.224 246.825 146.721 247.349C143.452 248.59 141.038 247.901 139.155 246.863C138.487 246.49 137.859 246.049 137.281 245.548C138.716 245.066 139.949 244.875 141.018 244.877V244.877Z" fill="#FDDD10"/>
<path d="M203.163 185.29C203.163 185.29 215.508 178.367 210.238 174.831C205.496 171.749 202.639 180.322 203.163 185.29V185.29Z" fill="#FDDD10" stroke="black" stroke-width="0.670434"/>
<path d="M208.316 175.903C208.144 175.903 208.002 175.967 207.825 176.053C207.415 176.251 206.803 176.872 206.289 177.85C205.702 178.97 205.267 180.506 205.043 181.987C205.849 181.421 206.722 180.762 207.499 180.066C208.61 179.072 209.473 177.978 209.699 177.349C209.808 177.035 209.79 176.912 209.762 176.819C209.734 176.726 209.671 176.569 209.261 176.288C208.812 176.011 208.542 175.904 208.316 175.904V175.903Z" fill="#FDDD10"/>
<path d="M199.781 191.61C199.781 191.61 208.811 180.848 200.605 174.153C200.605 174.153 193.985 180.097 199.781 191.611V191.61Z" fill="#FDDD10" stroke="black" stroke-width="0.670434"/>
<path d="M200.76 176.768C200.402 177.34 200.015 178.113 199.701 179.1C199.047 181.144 198.751 184.042 200.129 187.97C200.653 187.066 201.193 185.983 201.603 184.817C202.157 183.239 202.439 181.549 202.194 179.987C202.02 178.869 201.61 177.803 200.76 176.768Z" fill="#FDDD10"/>
<path d="M199.781 191.61C199.781 191.61 202.037 180.779 214.226 182.353C214.226 182.353 210.315 193.64 199.781 191.61Z" fill="#FDDD10" stroke="black" stroke-width="0.670434"/>
<path d="M211.509 183.954C207.535 184.024 205.289 185.712 203.785 187.516C203.137 188.302 202.595 189.17 202.172 190.097C205.621 190.149 207.924 188.486 209.637 186.561C210.431 185.679 211.05 184.753 211.509 183.954Z" fill="#FDDD10"/>
<path d="M197.445 197.853C197.445 197.853 198.572 187.538 210.612 189.124C210.612 189.124 209.18 197.025 197.445 197.853Z" fill="#FDDD10" stroke="black" stroke-width="0.670434"/>
<path d="M208.063 190.714C204.133 190.714 202.176 192.292 200.926 193.954C200.506 194.519 200.152 195.13 199.871 195.775C203.703 195.055 205.833 193.468 207.104 192.017C207.514 191.559 207.828 191.112 208.072 190.714H208.063Z" fill="#FDDD10"/>
<path d="M196.619 197.551C196.619 197.551 205.121 187.623 196.92 180.926C196.92 180.926 189.773 188.298 196.619 197.551Z" fill="#FDDD10" stroke="black" stroke-width="0.670434"/>
<path d="M197.123 183.581C196.598 184.428 196.182 185.339 195.887 186.291C195.224 188.425 194.996 191.124 196.688 194.373C197.211 193.503 197.77 192.399 198.171 191.203C198.657 189.738 198.885 188.172 198.604 186.686C198.401 185.632 197.973 184.603 197.123 183.581H197.123Z" fill="#FDDD10"/>
<path d="M193.984 203.043C193.984 203.043 195.416 193.79 207.451 195.37C207.451 195.37 204.595 205.15 193.984 203.043Z" fill="#FDDD10" stroke="black" stroke-width="0.670434"/>
<path d="M204.713 196.941C200.83 196.937 198.798 198.347 197.529 199.779C197.054 200.325 196.65 200.928 196.328 201.576C199.848 201.769 201.938 200.363 203.407 198.794C203.935 198.227 204.402 197.606 204.8 196.941H204.713Z" fill="#FDDD10"/>
<path d="M193.532 203.871C193.532 203.871 202.034 193.862 193.832 187.164C193.832 187.171 187.216 193.112 193.532 203.871Z" fill="#FDDD10" stroke="black" stroke-width="0.670434"/>
<path d="M193.994 189.776C193.57 190.474 193.236 191.223 192.998 192.004C192.397 193.974 192.178 196.716 193.752 200.415C194.23 199.586 194.72 198.576 195.084 197.479C195.565 196.006 195.794 194.423 195.512 192.933C195.314 191.862 194.872 190.817 193.994 189.776Z" fill="#FDDD10"/>
<path d="M189.542 209.588C189.542 209.588 198.344 200.109 190.148 193.488C190.148 193.488 183.373 198.605 189.542 209.588V209.588Z" fill="#FDDD10" stroke="black" stroke-width="0.670434"/>
<path d="M190.22 195.979C189.786 196.601 189.442 197.281 189.198 198C188.57 199.809 188.293 202.444 189.857 206.224C190.358 205.428 190.879 204.465 191.266 203.42C191.78 202.018 192.029 200.528 191.775 199.113C191.589 198.065 191.154 197.027 190.221 195.979H190.22Z" fill="#FDDD10"/>
<path d="M189.543 209.588C189.543 209.588 191.729 200.109 203.764 201.682C203.764 201.689 200.151 211.697 189.543 209.588V209.588Z" fill="#FDDD10" stroke="black" stroke-width="0.670434"/>
<path d="M193.42 206.259C192.889 206.823 192.427 207.449 192.047 208.124C195.52 208.256 197.762 206.813 199.385 205.186C203.682 201.038 194.854 204.776 193.42 206.259Z" fill="#FDDD10"/>
<path d="M186.156 215.608C186.156 215.608 188.035 206.429 201.202 206.878C201.202 206.878 196.765 217.64 186.156 215.608V215.608Z" fill="#FDDD10" stroke="black" stroke-width="0.670434"/>
<path d="M198.123 208.723C193.891 209.13 191.498 210.722 190.024 212.282C189.501 212.834 189.044 213.444 188.66 214.1C192.162 214.156 194.599 212.566 196.412 210.753C197.041 210.127 197.613 209.448 198.123 208.723Z" fill="#FDDD10"/>
<path d="M185.402 215.082C185.402 215.082 193.983 209.893 186.757 198.68C186.757 198.68 181.564 203.568 185.402 215.082Z" fill="#FDDD10" stroke="black" stroke-width="0.670434"/>
<path d="M186.667 202.113C186.553 202.402 186.439 202.73 186.327 203.082C185.745 204.981 185.4 207.817 186.304 211.818C186.644 211.358 186.938 210.865 187.181 210.347C188.017 208.522 188.471 205.943 186.657 202.113H186.667Z" fill="#FDDD10"/>
<path d="M180.742 221.1C180.742 221.1 183.752 212.605 195.715 214.179C195.715 214.179 193.231 222.68 180.742 221.1Z" fill="#FDDD10" stroke="black" stroke-width="0.670434"/>
<path d="M192.772 215.74C188.866 215.743 186.466 217.037 184.887 218.385C184.474 218.738 184.091 219.125 183.742 219.541C187.834 219.549 190.234 218.243 191.748 216.911C192.197 216.513 192.567 216.113 192.865 215.74H192.772Z" fill="#FDDD10"/>
<path d="M180.743 221.099C180.743 221.099 191.052 212.148 182.929 205.53C182.927 205.526 175.557 210.114 180.744 221.099H180.743Z" fill="#FDDD10" stroke="black" stroke-width="0.670434"/>
<path d="M182.867 207.886C182.304 208.499 181.837 209.194 181.484 209.948C180.665 211.669 180.13 214.174 181.352 217.905C182.02 217.102 182.753 216.104 183.312 214.998C183.994 213.661 184.39 212.239 184.257 210.928C184.159 209.927 183.801 208.931 182.867 207.886Z" fill="#FDDD10"/>
<path d="M173.746 226.594C173.746 226.594 179.99 218.241 191.65 220.425C191.65 220.425 183.372 229.001 173.746 226.594Z" fill="#FDDD10" stroke="black" stroke-width="0.670434"/>
<path d="M187.083 221.823C182.756 221.982 179.599 223.709 177.625 225.236C181.359 225.101 184.741 223.39 187.083 221.823Z" fill="#FDDD10"/>
<path d="M173.748 226.594C173.748 226.594 184.882 222.904 178.485 210.72C178.485 210.72 173.443 211.921 173.748 226.594Z" fill="#FDDD10" stroke="black" stroke-width="0.670434"/>
<path d="M177.851 213.527C177.751 213.674 177.641 213.842 177.532 214.03C176.682 215.524 175.704 218.397 175.527 223.637C176.072 223.237 176.645 222.734 177.146 222.122C178.561 220.376 179.601 217.911 177.851 213.527Z" fill="#FDDD10"/>
<path d="M169.004 231.259C169.004 231.259 174.346 222.455 185.404 225.539C185.404 225.539 179.16 234.795 169.004 231.259Z" fill="#FDDD10" stroke="black" stroke-width="0.670434"/>
<path d="M180.799 226.636C177.907 226.631 175.71 227.595 174.038 228.717C173.369 229.161 172.74 229.664 172.16 230.221C175.433 230.658 178.026 229.59 180.04 228.256C180.744 227.788 181.408 227.265 182.028 226.691C181.605 226.654 181.195 226.636 180.799 226.636Z" fill="#FDDD10"/>
<path d="M169.003 231.259C169.003 231.259 180.288 223.282 173.067 215.534C173.067 215.534 165.843 218.767 169.003 231.259Z" fill="#FDDD10" stroke="black" stroke-width="0.670434"/>
<path d="M172.715 217.906C172.306 218.288 171.828 218.837 171.365 219.615C170.41 221.221 169.573 223.782 170.143 227.93C170.853 227.21 171.626 226.328 172.266 225.344C173.111 224.042 173.683 222.613 173.716 221.221C173.739 220.162 173.503 219.089 172.715 217.906Z" fill="#FDDD10"/>
<path d="M162.761 237.579C162.761 237.579 175.255 229.382 168.709 221.032C168.709 221.028 160.656 224.487 162.761 237.579Z" fill="#FDDD10" stroke="black" stroke-width="0.670434"/>
<path d="M168.184 223.437C167.66 223.872 167.025 224.498 166.389 225.408C165.167 227.161 164.015 229.88 164.185 234.194C165.025 233.428 165.968 232.471 166.776 231.382C167.807 229.99 168.594 228.432 168.789 226.91C168.936 225.783 168.817 224.659 168.184 223.437Z" fill="#FDDD10"/>
<path d="M162.762 237.579C162.762 237.579 167.727 227.422 180.144 232.092C180.144 232.085 172.998 242.169 162.762 237.579Z" fill="#FDDD10" stroke="black" stroke-width="0.670434"/>
<path d="M173.88 232.595C171.247 232.595 169.306 233.477 167.811 234.524C166.945 235.137 166.164 235.862 165.488 236.68C169.089 237.627 172.018 236.538 174.35 235.064C175.303 234.456 176.192 233.755 177.007 232.972C175.866 232.706 174.826 232.595 173.88 232.595Z" fill="#FDDD10"/>
<path d="M155.465 243.823C155.465 243.823 167.955 236.518 162.239 227.646C162.239 227.646 154.937 230.733 155.465 243.823Z" fill="#FDDD10" stroke="black" stroke-width="0.670434"/>
<path d="M161.578 230.196C161.138 230.587 160.619 231.127 160.081 231.867C158.863 233.532 157.611 236.157 157.285 240.313C158.058 239.661 158.889 238.858 159.636 237.948C160.719 236.63 161.568 235.124 161.864 233.592C162.069 232.512 162.037 231.411 161.578 230.195L161.578 230.196Z" fill="#FDDD10"/>
<path d="M156.449 243.297C156.449 243.297 162.765 233.892 173.754 239.083C173.754 239.083 165.851 248.488 156.449 243.297Z" fill="#FDDD10" stroke="black" stroke-width="0.670434"/>
<path d="M167.27 239.253C165.096 239.251 163.324 239.928 161.86 240.771C160.954 241.297 160.113 241.929 159.355 242.654C162.61 243.701 165.443 242.859 167.789 241.585C168.867 241.011 169.789 240.342 170.527 239.735C169.351 239.397 168.266 239.255 167.27 239.253Z" fill="#FDDD10"/>
<path d="M151.78 248.034C151.78 248.034 162.237 241.716 156.445 232.84C156.445 232.84 148.092 237.052 151.78 248.034Z" fill="#FDDD10" stroke="black" stroke-width="0.670434"/>
<path d="M155.847 235.408C155.212 235.962 154.654 236.598 154.187 237.298C153.055 238.993 152.131 241.391 152.8 245.023C155.742 242.264 157.083 238.388 155.847 235.408Z" fill="#FDDD10"/>
<path d="M151.781 248.034C151.781 248.034 155.918 239.609 166.899 244.875C166.899 244.875 161.184 253.227 151.782 248.034H151.781Z" fill="#FDDD10" stroke="black" stroke-width="0.670434"/>
<path d="M160.153 244.872C158.435 244.875 157.148 245.389 156.132 245.992C155.513 246.365 154.946 246.82 154.449 247.345C157.718 248.585 160.132 247.896 162.015 246.858C162.683 246.485 163.311 246.044 163.889 245.543C162.455 245.061 161.221 244.87 160.153 244.872Z" fill="#FDDD10"/>
<path d="M46.7283 247.118C45.6537 245.843 44.8181 242.813 47.7705 239.946C50.1642 237.653 51.1962 237.346 51.6362 236.257C51.6362 236.257 53.4912 239.739 52.4516 242.984C51.9637 244.457 50.1974 251.007 46.7288 247.117L46.7283 247.118Z" fill="#FDDD10" stroke="#BC8810" stroke-width="1.44431"/>
<path d="M51.3702 252.505C50.1549 251.386 49.662 248.862 51.805 246.288C54.0944 243.697 57.674 244.104 58.2731 243.078C58.6501 244.595 58.563 247.807 57.8917 249.973C57.8917 249.973 54.4582 255.443 51.3702 252.505ZM57.2418 257.325C55.8817 256.296 56.2065 252.648 58.6781 250.424C61.2139 248.042 63.4701 248.083 63.9709 247.024C65.2126 249.043 65.528 252.787 64.0537 254.619C62.0604 257.11 59.1619 258.688 57.2418 257.325Z" fill="#FDDD10" stroke="#BC8810" stroke-width="1.44431"/>
<path d="M50.9092 239.415C51.0992 240.37 51.1695 241.48 50.857 242.468C50.5665 243.345 49.9945 245.153 49.333 246.097C49.0029 246.573 48.7511 246.672 48.7879 246.664C48.8272 246.659 48.6472 246.748 47.9994 246.024C47.7445 245.716 47.3974 244.989 47.4189 244.168C47.4375 243.331 47.7299 242.33 48.939 241.16C49.5699 240.549 50.2274 239.967 50.9096 239.415L50.9092 239.415ZM56.8667 245.515C56.7757 246.834 56.555 248.441 56.3511 249.26C56.0985 249.619 55.4699 250.445 54.7397 251.033C54.2598 251.417 53.773 251.645 53.4724 251.685C53.1677 251.726 52.9955 251.737 52.5228 251.293L52.5219 251.281L52.4977 251.269C52.0436 250.857 51.3728 249.435 53.0675 247.378C53.8988 246.455 54.975 246.028 56.1161 245.715C56.3699 245.642 56.6172 245.578 56.8644 245.515L56.8667 245.515ZM63.4019 249.449C63.4106 249.563 63.443 249.677 63.4515 249.788C63.5809 251.184 63.2141 252.989 62.7581 253.567C61.8989 254.639 60.8269 255.493 59.9527 255.875C59.1211 256.242 58.6623 256.225 58.2849 255.988C58.3461 256 58.0424 255.472 58.2014 254.584C58.3636 253.642 58.9017 252.493 59.8257 251.661L59.8479 251.641L59.8705 251.632C60.9949 250.578 61.8653 250.11 62.6438 249.755C62.9068 249.652 63.1767 249.551 63.4441 249.446L63.4019 249.449Z" fill="#FDDD10"/>
<path fill-rule="evenodd" clip-rule="evenodd" d="M172.093 23.1633C172.243 21.8884 172.137 22.1885 172.394 21.363C172.394 21.363 173.734 20.211 175.647 19.1583C175.809 19.069 175.975 18.9807 176.145 18.8937L176.176 18.8782C176.275 18.8277 176.376 18.7772 176.477 18.728C179.33 17.341 183.077 16.4814 185.672 19.4879C185.672 19.4879 179.352 19.2867 177.787 23.6574C175.732 23.1952 173.722 22.8269 172.093 23.1633ZM172.394 21.363C170.068 18.8127 170.443 12.3611 172.919 9.58541L173.059 9.42969C173.928 9.6915 174.419 9.88502 174.419 9.88502C174.419 9.88502 184.846 8.83503 185.897 15.0621C185.897 15.0621 180.261 15.5776 176.191 17.6926C175.795 17.8969 175.411 18.1219 175.04 18.3664C173.827 19.1678 172.86 20.1541 172.394 21.363Z" fill="#FDDD10"/>
<path d="M172.394 21.363C172.137 22.1885 172.243 21.8884 172.093 23.1633C173.722 22.8269 175.732 23.1952 177.787 23.6574C179.352 19.2867 185.672 19.4879 185.672 19.4879C183.077 16.4814 179.33 17.341 176.477 18.728C176.376 18.7772 176.275 18.8277 176.176 18.8782L176.145 18.8937C175.975 18.9807 175.809 19.069 175.647 19.1583C173.734 20.211 172.394 21.363 172.394 21.363ZM172.394 21.363C170.068 18.8127 170.443 12.3611 172.919 9.58541L173.059 9.42969C173.928 9.6915 174.419 9.88502 174.419 9.88502C174.419 9.88502 184.846 8.83503 185.897 15.0621C185.897 15.0621 180.261 15.5776 176.191 17.6926C175.795 17.8969 175.411 18.1219 175.04 18.3664C173.827 19.1678 172.86 20.1541 172.394 21.363Z" stroke="#BC8810" stroke-width="1.45387"/>
<path d="M254.178 247.124C255.253 245.85 256.088 242.82 253.136 239.952C250.742 237.66 249.71 237.352 249.27 236.264C249.27 236.264 247.415 239.746 248.455 242.991C248.943 244.464 250.709 251.014 254.177 247.124L254.178 247.124Z" fill="#FDDD10" stroke="#BC8810" stroke-width="1.44431"/>
<path d="M249.536 252.512C250.751 251.392 251.244 248.869 249.101 246.295C246.812 243.704 243.232 244.111 242.633 243.085C242.256 244.602 242.343 247.814 243.015 249.98C243.015 249.98 246.448 255.45 249.536 252.512ZM243.664 257.332C245.025 256.303 244.7 252.655 242.228 250.431C239.692 248.049 237.436 248.089 236.935 247.031C235.694 249.05 235.378 252.793 236.853 254.626C238.846 257.117 241.744 258.694 243.664 257.332Z" fill="#FDDD10" stroke="#BC8810" stroke-width="1.44431"/>
<path d="M249.993 239.422C249.803 240.376 249.733 241.487 250.045 242.475C250.336 243.351 250.908 245.16 251.569 246.104C251.899 246.58 252.151 246.679 252.114 246.671C252.075 246.666 252.255 246.755 252.903 246.031C253.158 245.723 253.505 244.996 253.483 244.174C253.465 243.337 253.172 242.337 251.963 241.166C251.332 240.556 250.675 239.974 249.993 239.422L249.993 239.422ZM244.036 245.522C244.127 246.841 244.347 248.448 244.551 249.266C244.804 249.626 245.432 250.452 246.163 251.039C246.643 251.424 247.129 251.652 247.43 251.692C247.735 251.733 247.907 251.744 248.38 251.299L248.38 251.288L248.405 251.276C248.859 250.864 249.53 249.442 247.835 247.385C247.004 246.462 245.927 246.035 244.786 245.722C244.532 245.648 244.285 245.585 244.038 245.522L244.036 245.522ZM237.5 249.456C237.492 249.57 237.459 249.684 237.451 249.795C237.321 251.191 237.688 252.996 238.144 253.574C239.003 254.646 240.075 255.5 240.95 255.882C241.781 256.248 242.24 256.232 242.617 255.995C242.556 256.006 242.86 255.479 242.701 254.591C242.539 253.649 242.001 252.5 241.077 251.668L241.054 251.648L241.032 251.639C239.907 250.585 239.037 250.117 238.259 249.761C237.996 249.659 237.726 249.557 237.458 249.453L237.5 249.456Z" fill="#FDDD10"/>
<path d="M130.183 91.9854L111.159 117.09C105.963 151.354 120.208 181.335 150.61 200.749C150.624 200.74 150.635 200.733 150.649 200.724V91.9854H130.183Z" fill="#CE1126"/>
<path d="M150.652 91.9854V200.724C181.067 181.321 195.341 151.37 190.143 117.09L171.042 91.9854H171.038H150.652Z" fill="black"/>
<path d="M137.324 91.9858V190.679C141.335 194.285 145.767 197.649 150.614 200.745C155.491 197.635 159.949 194.255 163.978 190.63V91.9785L137.324 91.9858Z" fill="white" stroke="#BC8810" stroke-width="0.670432"/>
<path d="M148.181 125.2L150.653 117.537L153.123 125.2L161.176 125.184L154.651 129.9L157.153 137.552L150.653 132.81L144.149 137.552L146.649 129.9L140.129 125.184L148.181 125.2ZM148.181 156.571L150.653 148.908L153.123 156.571L161.176 156.555L154.651 161.276L157.153 168.927L150.653 164.183L144.149 168.927L146.649 161.276L140.129 156.555L148.181 156.571Z" fill="#007A3D" stroke="#BC8810" stroke-width="1.00565"/>
</svg>
