<svg width="295" height="295" viewBox="0 0 295 295" fill="none" xmlns="http://www.w3.org/2000/svg">
<path d="M88.6808 226.248C87.217 225.861 85.9336 225.233 84.4542 224.957C84.3955 225.058 84.286 225.133 84.1407 225.107C84.0624 225.094 83.9851 225.072 83.9079 225.052C83.8918 225.181 83.8065 225.303 83.6411 225.315C83.5558 225.322 83.4705 225.324 83.3852 225.328C83.1403 225.387 82.8706 225.389 82.647 225.364C82.4977 225.348 82.3525 225.324 82.2131 225.281C81.9203 225.236 81.6304 225.169 81.3521 225.041C81.2604 225 81.2218 224.932 81.2115 224.859C81.053 224.83 80.9688 224.701 80.9579 224.57C80.0312 224.49 79.1034 224.425 78.1727 224.401C78.137 224.352 78.0903 224.311 78.0263 224.299C77.7289 224.242 77.4154 224.184 77.1406 224.231C77.0293 224.098 76.7815 224.053 76.6444 224.239C76.3793 224.597 76.2139 224.897 76.0871 225.317C76.0681 225.379 76.0756 225.441 76.0992 225.496C75.6215 226.734 76.1856 228.676 76.2208 229.764C76.2571 230.881 76.328 231.974 76.0439 233.068C75.8278 233.898 75.5033 234.675 75.3558 235.526C75.1575 236.672 75.1431 237.848 75.9205 238.756C77.3261 240.399 80.0935 240.328 80.9931 238.327C82.0915 235.883 81.1475 232.978 81.0351 230.439C82.8406 230.826 82.4562 232.977 82.2834 234.323C82.2384 234.673 82.235 235.054 82.2315 235.44C82.1174 235.448 82.0125 235.509 81.9941 235.643C81.8851 236.438 81.5336 237.18 81.5025 237.977C81.2898 238.868 81.1469 239.762 81.4299 240.516C81.5394 240.808 81.7849 240.988 82.0811 241.115C82.5415 241.941 83.0861 241.997 83.9062 241.587C83.954 241.563 83.9898 241.524 84.0128 241.479C85.2328 241.694 86.4303 241.927 87.727 241.712C87.9783 241.671 88.0013 241.298 87.7961 241.185C87.6965 241.131 87.5927 241.084 87.4896 241.038C87.7518 240.954 87.7708 240.557 87.4873 240.484C87.3547 240.45 87.2222 240.425 87.089 240.402C87.1438 240.384 87.1847 240.356 87.2124 240.32C88.3488 239.62 89.3181 238.621 89.8328 237.611C90.8453 235.626 90.7969 232.91 90.945 230.719C91.0816 228.7 90.8367 226.82 88.6808 226.248Z" fill="white"/>
<path d="M259.286 135.843C260.11 136.131 260.94 136.408 261.787 136.65V136.362C259.096 132.616 259.251 127.7 259.32 123.286C259.505 115.978 259.205 108.649 259.799 101.352C259.845 95.0188 259.908 88.6796 259.972 82.3462C260.052 78.7732 258.744 75.3846 257.569 72.071C254.099 63.8992 249.109 56.344 242.787 50.097C238.666 46.282 233.601 42.7436 227.751 42.8127C222.686 43.5619 218.075 46.0169 213.673 48.5238C211.073 49.9645 208.267 50.9667 205.61 52.2985C200.752 53.9351 195.421 54.8918 190.442 53.1744C186.99 51.8202 184.633 48.8523 182.645 45.8619C181.481 44.0581 180.352 42.2313 179.308 40.3468C177.908 37.5979 176.796 34.7107 175.418 31.9445C174.687 30.1119 173.903 28.3029 172.998 26.5447C167.996 16.1772 160.717 5.86163 149.693 1.39538C139.717 -2.16609 128.831 1.57979 120.342 7.11218C118.833 9.08309 117.449 11.1635 115.853 13.0652C114.338 14.4195 112.257 15.1572 111.197 16.9898C109.318 19.3987 108.961 22.6605 109.831 25.5362C110.28 26.827 110.926 28.0315 111.848 29.0458C112.027 27.9566 111.554 26.5677 112.597 25.7955C115.375 26.3199 118.21 26.5562 120.999 25.9517C124.474 28.8158 127.644 32.3715 128.785 36.8257C129.062 38.6698 128.537 40.4857 128.192 42.2837C127.131 44.4045 126.123 46.6059 124.498 48.3636C121.852 51.4294 117.934 52.8413 114.113 53.7519C109.134 55.4692 94.0343 52.7664 89.1761 51.1292C86.52 49.798 83.7135 48.7952 81.1144 47.3545C76.711 44.8476 72.1007 42.3932 67.0357 41.6435C61.1863 41.5743 56.1207 45.1133 52.0003 48.9283C45.6778 55.1753 40.6871 62.7305 37.2184 70.9023C36.0422 74.2159 34.7341 77.6045 34.8153 81.1775C34.8781 87.5109 34.9421 93.8501 34.9882 100.183C35.5818 107.479 35.2821 114.809 35.4659 122.117C35.5357 126.532 35.6913 131.447 33 135.193V135.481C33.8477 135.239 34.677 134.963 35.5011 134.674C35.7777 135.643 35.9276 136.64 35.8982 137.648C35.8814 143.791 36.014 149.94 36.0025 156.084C36.0486 159.351 35.1899 162.595 33.6685 165.483C34.4926 165.172 35.3161 164.855 36.1293 164.533C36.8271 168.393 36.3194 172.341 36.5038 176.242C36.441 182.3 36.8957 188.367 36.3949 194.413C35.8814 196.263 35.3628 198.118 34.654 199.904C35.455 199.645 36.2508 199.38 37.045 199.132C37.1147 208.024 37.1833 216.922 37.2934 225.815C37.9503 232.516 37.627 239.265 37.789 245.985C37.9388 248.837 37.2934 251.62 36.4802 254.329C37.2006 254.531 37.8627 255.239 38.6413 255.02C43.7933 253.112 48.8474 249.69 50.8932 244.382C53.0197 239.501 52.2072 234.084 52.4089 228.926C55.7001 227.773 58.3279 225.347 60.3732 222.599C61.6468 220.645 62.1251 218.323 62.9313 216.168C68.5334 213.776 72.8205 208.404 73.3506 202.267C75.9612 200.256 78.6813 198.216 80.3583 195.312C81.9431 192.978 82.3235 190.131 82.8306 187.422C82.9055 186.564 82.9804 185.7 83.0611 184.841C85.7005 182.789 88.2183 180.289 89.4291 177.114C90.5183 172.722 90.5466 168.135 90.3742 163.634C91.3309 162.372 92.5296 161.328 93.7744 160.366C94.5754 159.369 95.3534 158.361 96.1083 157.341L96.4541 157.121C96.6783 156.984 96.903 156.853 97.1284 156.719C97.1405 158.937 97.0938 161.173 96.7486 163.374C95.9804 172.291 94.4077 181.126 92.646 189.896C91.4242 195.105 90.4561 200.373 88.9808 205.519C89.632 205.461 90.2832 205.358 90.9286 205.254C91.3436 205.213 92.1677 205.126 92.5768 205.087C91.747 209.334 90.1967 213.391 88.7964 217.477C87.759 219.897 86.8888 222.398 85.4654 224.634C85.1139 224.681 84.405 224.766 84.0535 224.813L83.3331 225.332C84.2725 225.735 85.2176 226.138 86.082 226.698C88.2662 228.484 88.733 231.383 88.4333 234.051C87.6438 233.308 86.9695 232.46 86.3759 231.561C86.4163 234.501 86.5143 237.509 85.5807 240.344C85.3905 240.667 85.0217 241.324 84.8373 241.647C83.9555 241.589 82.9009 241.952 82.2324 241.185C81.1605 240.465 81.6043 238.99 81.7253 237.93C81.8348 235.642 83.5291 233.094 82.1345 230.968C81.6158 230.588 81.0914 230.219 80.5612 229.856C81.1317 232.95 81.5985 236.207 80.4114 239.227C78.9879 239.935 77.115 240.166 76.0834 238.69C73.9396 236.016 76.7923 232.829 76.3946 229.884C76.1353 228.006 76.0604 226.11 76.6251 224.278C79.0455 224.111 80.4229 226.185 81.5294 227.989C81.7599 228.265 82.2209 228.824 82.4514 229.101C82.728 228.41 83.0047 227.723 83.2755 227.038C82.9758 226.71 82.6877 226.375 82.4053 226.047C81.6504 225.061 81.0222 223.903 79.9446 223.24C78.8208 222.86 77.5991 223.038 76.4407 222.992C75.5071 223.926 74.6254 224.946 74.3373 226.277C69.3235 229.585 64.0678 232.524 59.0195 235.786C57.0889 236.852 55.2102 238.01 53.3603 239.227C53.4813 243.215 53.3142 247.203 53.5044 251.19C54.0461 256.435 53.6542 261.719 53.7983 266.987C80.2442 282.517 110.684 290.994 141.314 291.946C143.544 291.715 144.973 293.709 146.477 295H147.111C148.339 294.027 149.537 293.018 150.753 292.033C156.435 291.871 162.129 291.583 167.783 290.938C187.786 288.88 207.524 283.619 225.717 275.015C226.345 274.744 226.973 274.473 227.59 274.191C231.123 272.485 234.621 270.721 238.078 268.889C239.075 268.301 240.453 267.586 240.24 266.209C240.355 257.421 240.389 248.638 240.459 239.85C233.618 235.442 226.726 231.107 219.781 226.866C219.603 226.474 219.251 225.697 219.072 225.305C218.588 223.87 217.027 223.345 215.638 223.53C213.621 223.374 212.629 225.414 211.638 226.797C211.177 226.342 210.722 225.881 210.272 225.426C209.61 225.189 208.953 224.958 208.296 224.728C205.472 218.556 203.167 212.136 201.692 205.503C202.902 205.705 204.106 205.941 205.316 206.149C202.049 192.45 199.248 178.596 198.038 164.546C197.692 162.346 197.646 160.11 197.657 157.891C197.883 158.026 198.108 158.156 198.332 158.294L198.678 158.513C199.432 159.533 200.21 160.542 201.011 161.538C202.256 162.501 203.455 163.544 204.412 164.806C204.239 169.307 204.268 173.894 205.357 178.286C206.567 181.461 209.085 183.962 211.725 186.013C211.805 186.872 211.88 187.736 211.955 188.595C212.462 191.304 212.843 194.15 214.428 196.484C216.105 199.388 218.825 201.428 221.435 203.44C221.965 209.577 226.253 214.948 231.855 217.34C232.661 219.495 233.14 221.818 234.413 223.771C236.459 226.52 239.087 228.946 242.378 230.098C242.579 235.256 241.767 240.674 243.893 245.554C245.939 250.862 250.993 254.285 256.145 256.193C256.923 256.412 257.586 255.703 258.306 255.501C257.494 252.793 256.848 250.01 256.998 247.157C257.159 240.437 256.837 233.689 257.494 226.987C257.603 218.094 257.672 209.197 257.741 200.305C258.537 200.552 259.332 200.818 260.133 201.077C259.424 199.29 258.906 197.435 258.393 195.585C257.891 189.54 258.347 183.471 258.283 177.414C258.468 173.513 257.96 169.565 258.658 165.705C259.47 166.028 260.294 166.344 261.118 166.655C259.597 163.768 258.738 160.523 258.785 157.256C258.773 151.113 258.906 144.964 258.888 138.82C258.859 137.809 259.009 136.811 259.286 135.843Z" fill="black"/>
<path d="M213.205 230.334C212.652 233.002 212.456 235.739 212.767 238.454C212.249 238.275 211.482 238.281 211.384 237.56C210.67 234.668 210.635 231.659 210.445 228.697C210.526 227.764 209.701 227.216 209.177 226.576C207.667 227.354 206.221 228.38 205.679 230.08C205.581 231.55 205.592 233.025 205.575 234.5L205.909 234.103C206.175 233.181 206.641 232.38 207.592 232.08C207.644 234.149 207.563 236.218 207.5 238.292C207.638 239.831 208.295 241.243 209.287 242.424C211.551 242.47 212.375 240.373 212.934 238.552C213.465 241.168 216.83 240.822 217.896 238.88C219.181 236.569 217.424 234.085 217.332 231.694C217.36 231.469 217.406 231.025 217.429 230.801C217.487 228.864 217.47 226.928 217.291 224.997C213.701 224.669 211.782 228.697 211.597 231.734C212.001 231.383 212.802 230.685 213.205 230.334Z" fill="white" stroke="black" stroke-width="0.57629"/>
<path d="M114.677 194.915C111.634 199.088 109.167 203.658 107.035 208.354C105.917 210.493 105.398 212.861 104.909 215.207C104.482 214.434 104.275 213.495 103.56 212.93C102.465 214.325 101.9 216.042 101.036 217.581C99.48 220.67 97.2382 223.522 96.5928 226.992C96.7599 231.493 98.7481 235.936 102.004 239.059C115.149 243.041 128.738 245.986 142.512 246.136C143.981 247.116 145.364 248.211 146.816 249.213C148.251 248.211 149.634 247.127 151.11 246.176C162.613 246.148 174.035 244.165 185.157 241.312C187.324 240.65 189.45 239.837 191.646 239.272C193.461 237.198 195.133 234.927 195.98 232.276C196.625 230.075 197.397 227.649 196.32 225.459C194.602 221.183 192.015 217.327 190.061 213.161C189.571 213.979 189.099 214.815 188.609 215.639C188.35 212.164 186.915 208.942 185.341 205.882C182.218 199.359 178.305 193.152 173.481 187.752C174.807 194.938 177.613 201.762 179.21 208.885C181.901 216.399 182.529 225.003 187.871 231.302C184.437 233.048 180.368 232.841 176.72 231.942C177.596 233.648 176.83 235.486 175.7 236.858C173.862 238.391 171.309 238.834 169.009 238.27C167.701 237.803 166.796 236.702 165.794 235.803C164.941 238.656 162.532 240.638 159.685 241.307C156.809 241.261 154.262 239.78 152.522 237.538C151.507 240.35 149.11 242.085 146.765 243.727C145.312 242.678 143.82 241.67 142.575 240.373C141.889 239.463 141.307 238.477 140.679 237.532C138.91 240.292 135.262 241.802 132.092 240.771C129.954 239.728 128.548 237.786 127.413 235.769C126.646 236.46 125.903 237.186 125.079 237.82C122.532 238.927 119.316 238.287 117.397 236.287C116.164 235.019 116.429 233.187 116.44 231.579C112.971 232.628 109.144 232.345 105.721 231.233C108.92 226.853 110.85 221.73 112.135 216.497C114.066 210.124 115.772 203.687 117.869 197.37C118.665 194.011 120.002 190.801 120.676 187.412C118.267 189.556 116.561 192.328 114.677 194.915Z" fill="white" stroke="black" stroke-width="0.57629"/>
<path d="M218.53 231.51C218.83 233.487 219.637 235.383 219.746 237.389C219.573 240.535 216.41 241.953 214.479 243.97C214.358 243.981 214.122 244.004 214.006 244.016C213.851 243.284 213.695 242.558 213.54 241.832C211.707 243.226 210.462 245.411 208.18 246.16C208.416 245.416 208.664 244.679 208.912 243.947C207.298 243.342 206.29 244.592 205.593 245.854C204.988 246.678 204.019 247.07 203.132 247.508C203.092 247.122 203.005 246.35 202.959 245.964C200.723 245.001 199.836 242.719 200.003 240.403C199.674 240.529 199.017 240.777 198.689 240.898C192.436 243.347 185.93 245.024 179.446 246.725C170.6 248.603 161.628 249.894 152.591 250.28C150.177 250.056 148.961 252.562 146.938 253.323C144.806 252.718 143.492 250.177 141.065 250.217C134.369 249.813 127.673 249.185 121.091 247.848C111.732 246.021 102.471 243.509 93.6484 239.872C93.3545 242.149 92.8185 244.765 90.2944 245.52C90.2079 245.958 90.0235 246.84 89.9371 247.284C88.0814 246.062 87.1824 243.353 84.7793 243.163C84.8138 244.045 84.8484 244.927 84.883 245.808C84.2606 245.376 83.6267 244.973 83.0273 244.506C81.9612 243.388 80.9066 242.264 79.7656 241.227C79.7252 241.792 79.6503 242.921 79.61 243.486C77.4719 242.535 75.7142 240.841 74.36 238.962C72.8904 236.593 74.4061 233.931 74.9996 231.557C74.625 230.727 73.7318 230.335 72.9769 230.94C69.1733 233.516 65.3353 236.046 61.5202 238.599C60.1775 239.555 58.7022 240.339 57.5035 241.48C57.0425 242.327 57.2672 243.359 57.1865 244.293C57.2038 251.064 57.3825 257.835 57.2845 264.607C59.97 266.491 62.984 267.811 65.9 269.292C73.8759 273.228 82.1572 276.565 90.6517 279.21C99.7513 281.93 109.024 284.132 118.423 285.532C123.448 286.16 128.474 286.782 133.522 287.192C136.743 287.439 140.022 287.14 143.192 287.831C144.811 288.436 146.275 291.352 147.992 289.335C148.874 288.719 149.635 287.647 150.839 287.751C159.282 287.399 167.725 286.84 176.081 285.538C186.875 284.022 197.507 281.377 207.834 277.902C214.162 275.821 220.334 273.291 226.345 270.422C227.446 269.914 228.54 269.413 229.63 268.889C231.727 267.874 233.767 266.762 235.836 265.696C236.13 257.945 236.338 250.205 236.424 242.448C231.186 238.564 225.659 235.083 220.398 231.228C219.775 231.32 219.153 231.413 218.53 231.51Z" fill="white" stroke="black" stroke-width="0.57629"/>
<path d="M128.755 189.879C128.323 191.896 127.925 193.919 127.545 195.953C127.482 196.241 127.349 196.818 127.286 197.111L127.153 197.653C125.372 206.298 123.476 214.919 121.748 223.58C121.2 226.479 120.295 229.297 119.563 232.156C119.69 232.542 119.95 233.314 120.082 233.7C121.534 234.409 123.217 234.663 124.796 234.242C125.845 233.608 126.346 232.432 126.796 231.355C128.45 221.725 129.839 212.049 131.424 202.413C132.213 197.792 132.945 193.158 133.694 188.531C134.132 186.035 134.547 183.54 135.1 181.068C133.7 180.768 132.265 180.63 130.836 180.555C130.006 183.632 129.378 186.756 128.755 189.879Z" fill="url(#paint0_radial_241_16624)" stroke="black" stroke-width="0.57629"/>
<path d="M119.818 197.147C118.913 200.138 118.192 203.18 117.345 206.194C116.147 210.401 115.034 214.631 113.859 218.844C112.931 222.475 112.222 226.255 110.142 229.448C111.594 229.505 113.046 229.638 114.498 229.494C116.625 229.125 118.417 227.402 118.838 225.275C120.469 218.083 122.036 210.88 123.627 203.682C124.099 201.538 124.837 199.423 124.808 197.204L125.044 197.763C125.88 194.501 126.439 191.17 127.373 187.932C127.459 187.309 127.551 186.687 127.638 186.065L127.926 185.609C128.191 184.042 128.589 182.497 128.894 180.936C125.972 181.754 122.86 183.967 122.457 187.206C122.134 188.554 121.737 189.88 121.327 191.205L121.391 191.441C121.287 191.856 121.08 192.686 120.976 193.101C120.544 194.432 120.146 195.781 119.818 197.147Z" fill="url(#paint1_radial_241_16624)" stroke="black" stroke-width="0.57629"/>
<path d="M129.891 228.207C129.482 230.547 129.615 233.059 131.038 235.053L131.136 235.238C132.554 236.315 134.479 237.07 136.19 236.165C138.83 234.955 139.93 232.01 140.103 229.29C140.668 224.184 140.737 219.055 141.21 213.95C141.354 210.279 141.521 206.613 141.815 202.948C141.982 197.571 142.53 192.218 142.616 186.841C142.627 185.792 142.61 184.749 142.599 183.706C140.772 182.761 138.87 181.942 136.847 181.533C136.657 182.87 136.438 184.201 136.271 185.538C135.683 189.63 135.049 193.716 134.473 197.808C133.701 202.988 132.911 208.175 132.162 213.362C131.396 218.306 130.721 223.268 129.891 228.207Z" fill="url(#paint2_radial_241_16624)" stroke="black" stroke-width="0.57629"/>
<path d="M150.343 230.53C150.522 224.105 150.038 217.685 150.009 211.259C150.061 202.615 149.882 193.965 149.45 185.332C148.286 186.306 147.514 187.614 146.874 188.968C146.459 187.948 146.01 186.951 145.491 185.983C145.087 185.851 144.69 185.718 144.292 185.58C144.188 192.086 144.252 198.604 143.745 205.093C143.618 214.561 143.261 224.03 143.48 233.498C143.71 235.55 144.978 237.227 146.35 238.685C149.583 237.4 150.234 233.602 150.343 230.53Z" fill="url(#paint3_radial_241_16624)" stroke="black" stroke-width="0.57629"/>
<path d="M159.034 181.154C159.645 185.453 160.515 189.712 160.976 194.034L161.334 194.063C161.518 198.016 162.198 201.958 162.988 205.836C164.111 214.377 165.333 222.923 166.785 231.418C167.05 233.85 169.367 235.262 171.695 234.789C172.352 234.351 173.28 234.213 173.649 233.441C174.006 231.452 173.251 229.522 172.606 227.684C171.505 222.261 170.479 216.815 169.402 211.386C168.981 209.617 168.67 207.825 168.341 206.032C167.304 201.157 166.549 196.218 165.327 191.383C164.907 187.816 164.071 184.179 163.172 180.664C161.783 180.745 160.406 180.912 159.034 181.154Z" fill="url(#paint4_radial_241_16624)" stroke="black" stroke-width="0.57629"/>
<path d="M171.355 209.283C171.92 212.349 172.606 215.404 173.257 218.452C173.487 219.392 173.66 220.337 173.85 221.288C174.571 223.714 174.352 226.722 176.461 228.491C178.207 230.266 180.944 229.655 183.169 229.627C181.371 226.468 180.639 222.895 179.803 219.409C178.899 216.228 178.19 212.995 177.291 209.814C176.807 207.9 176.34 205.987 175.677 204.131C175.366 201.59 174.381 199.083 173.845 196.547C173.539 195.401 173.205 194.265 172.802 193.153C172.421 190.456 171.545 187.655 170.75 184.993C169.182 183.299 167.367 181.431 164.97 181.068C166.601 187.137 167.736 193.332 169.165 199.452C169.862 202.737 170.554 206.022 171.355 209.283Z" fill="url(#paint5_radial_241_16624)" stroke="black" stroke-width="0.57629"/>
<path d="M157.3 181.713C155.323 181.685 153.634 182.843 151.831 183.483C151.306 185.655 151.658 187.909 151.617 190.116C151.831 194.766 151.467 199.463 152.274 204.062C152.067 210.038 152.73 215.991 152.983 221.956C152.851 224.641 153.456 227.292 153.525 229.972C153.657 232.94 155.594 236.472 158.879 236.599C161.437 236.98 163.362 234.507 163.725 232.225C164.111 229.326 163.241 226.462 162.872 223.61C162.648 220.878 162.025 218.198 161.864 215.461C161.593 214.262 161.449 213.041 161.287 211.83L161.374 211.49C160.463 207.312 160.285 203.007 159.438 198.818C159.311 197.798 159.207 196.778 159.057 195.763C159.109 194.593 158.642 193.458 158.619 192.283C158.256 188.75 157.501 185.263 157.3 181.713Z" fill="url(#paint6_radial_241_16624)" stroke="black" stroke-width="0.57629"/>
<path d="M91.1934 243.496C92.3633 239.86 91.5853 235.884 92.9799 232.27C93.1989 232.322 93.6369 232.426 93.8501 232.478C94.7779 234.126 95.8729 235.665 97.0658 237.128C97.4058 237.134 98.0974 237.152 98.4374 237.163C96.0861 234.063 95.1064 230.115 92.444 227.251C91.8619 227.084 91.2856 226.911 90.7151 226.721C89.1303 227.695 89.0784 229.66 88.9516 231.325C88.894 234.051 87.5397 236.495 86.7963 239.071C86.7214 239.998 86.6926 240.932 86.6465 241.871C87.7184 243.399 89.4703 243.623 91.1934 243.496Z" fill="white" stroke="black" stroke-width="0.57629"/>
<path d="M216.029 158.383C216.928 161.593 218.634 164.63 221.377 166.612C221.337 166.048 221.297 165.494 221.256 164.935C221.285 162.803 221.354 160.677 221.348 158.55C221.354 156.579 221.371 154.608 221.406 152.643C221.435 151.087 221.446 149.537 221.452 147.981C221.452 147.088 221.452 146.194 221.458 145.307C219.591 143.976 217.787 142.564 215.914 141.244C215.839 142.852 215.787 144.46 215.781 146.068C215.776 147.301 215.77 148.534 215.77 149.762C215.764 151.272 215.735 152.776 215.735 154.286C215.753 155.496 215.787 156.712 215.885 157.928C215.92 158.037 215.995 158.268 216.029 158.383Z" fill="url(#paint7_radial_241_16624)"/>
<path d="M226.218 169.443C226.258 169.535 226.339 169.719 226.379 169.806C227.544 172.053 229.048 174.237 231.289 175.528C231.433 175.615 231.722 175.793 231.871 175.885C231.912 171.794 231.814 167.708 231.935 163.616V162.977C231.929 162.066 231.918 161.161 231.929 160.256C231.929 159.386 231.935 158.522 231.941 157.657C232.102 155.629 232.482 153.577 232.16 151.543C230.177 149.566 227.699 147.878 224.893 147.342C224.991 149.295 225.031 151.249 225.037 153.203C225.042 155.001 225.002 156.793 224.962 158.591C224.933 162.233 224.472 166.077 226.218 169.443Z" fill="url(#paint8_radial_241_16624)"/>
<path d="M206.146 145.302C206.429 146.172 206.809 147.019 207.253 147.832C208.417 149.86 210.042 151.612 212.019 152.874C212.019 152.471 212.024 151.658 212.024 151.255C212.082 149.082 212.122 146.915 212.151 144.743C212.186 142.806 212.203 140.87 212.226 138.934C209.996 137.078 208.088 134.894 206.141 132.756C206.002 136.173 206.071 139.596 206.215 143.014C206.192 143.775 206.169 144.535 206.146 145.302Z" fill="url(#paint9_radial_241_16624)"/>
<path d="M254.318 176.467C254.33 175.015 254.318 173.562 254.341 172.116C254.359 170.998 254.393 169.886 254.428 168.774C254.457 167.281 254.445 165.794 254.439 164.302C253.379 163.639 252.324 162.97 251.293 162.279C250.198 161.524 249.178 160.677 248.187 159.795C247.87 159.812 247.23 159.835 246.913 159.847C246.901 161.927 246.919 164.008 246.942 166.082C246.948 167.356 246.942 168.629 246.936 169.909C246.93 171.522 246.93 173.136 246.942 174.75C246.948 176.807 246.913 178.864 246.907 180.927C246.907 182.322 246.965 183.722 247.178 185.111C248.59 189.065 251.685 192.113 255.31 194.107C254.877 192.655 254.497 191.191 254.192 189.716C254.307 185.296 254.272 180.881 254.318 176.467Z" fill="url(#paint10_radial_241_16624)"/>
<path d="M242.862 184.398C242.867 180.877 242.798 177.35 242.85 173.829L242.862 173.529C242.925 171.858 242.936 170.181 242.913 168.51C243.034 167.755 243.155 166.994 243.271 166.239L243.334 165.755C243.392 164.499 243.438 163.243 243.438 161.986C243.409 160.672 243.363 159.358 243.323 158.05C240.683 156.627 238.643 154.339 235.963 153.002C235.929 154.108 235.912 155.221 235.912 156.327C235.923 156.852 235.94 157.9 235.946 158.419C235.981 160.177 235.952 161.94 235.923 163.698C235.906 164.925 235.888 166.159 235.871 167.392C235.854 168.383 235.831 169.374 235.842 170.371C235.716 173.385 235.721 176.468 236.759 179.35C237.093 180.036 237.439 180.721 237.756 181.425C239.219 183.632 241.098 185.608 243.495 186.796C243.415 185.557 243.305 184.312 243.253 183.073C243.127 183.517 242.994 183.954 242.862 184.398Z" fill="url(#paint11_radial_241_16624)"/>
<path d="M250.894 155.74C252.358 157.32 254.15 158.535 256.005 159.613C255.452 157.723 254.824 155.81 254.83 153.821C254.732 147.292 255.089 140.757 254.864 134.233C252.075 133.271 250.415 130.372 247.54 129.738C247.592 132.677 247.517 135.622 247.546 138.567C247.419 140.872 247.425 143.177 247.442 145.483C247.182 149.205 248.646 152.83 250.894 155.74Z" fill="url(#paint12_radial_241_16624)" stroke="black" stroke-width="0.57629"/>
<path d="M226.154 137.98C227.595 141.248 229.814 144.296 233.07 145.939C232.759 144.158 232.413 142.371 232.419 140.556C232.419 134.056 232.568 127.555 232.355 121.06L232.246 120.887L231.646 120.449C231.139 120.115 230.621 119.798 230.113 119.487C229.491 119.118 228.869 118.755 228.212 118.461C227.849 118.329 227.122 118.069 226.759 117.937C226.483 117.868 225.918 117.729 225.636 117.66C225.607 120.058 225.532 122.455 225.532 124.858C225.538 125.573 225.549 126.293 225.572 127.008C225.52 130.673 225.192 134.396 226.154 137.98Z" fill="url(#paint13_radial_241_16624)" stroke="black" stroke-width="0.57629"/>
<path d="M216.68 132.413C217.538 135.283 219.434 137.669 221.555 139.721C221.832 139.761 222.385 139.83 222.662 139.865C222.374 138.885 222.091 137.9 221.826 136.92C221.722 129.843 222.195 122.743 221.774 115.684C219.774 114.318 218.023 112.652 216.242 111.027C216.15 114.917 216.219 118.819 215.965 122.703C215.81 125.077 215.804 127.475 216.196 129.826C216.305 130.696 216.467 131.561 216.68 132.413Z" fill="url(#paint14_radial_241_16624)" stroke="black" stroke-width="0.57629"/>
<path d="M243.702 148.438C243.88 142.554 243.73 136.664 243.944 130.781C243.949 129.784 244.024 128.74 243.609 127.813C241.062 126.533 238.953 124.62 236.798 122.805C236.711 122.839 236.527 122.903 236.435 122.937C236.561 126.775 236.267 130.613 236.435 134.452C236.319 138.048 235.847 141.845 237.316 145.251C238.624 148.519 241.154 151.32 244.405 152.737C244.186 151.631 243.961 150.524 243.834 149.406C243.8 149.164 243.736 148.68 243.702 148.438Z" fill="url(#paint15_radial_241_16624)" stroke="black" stroke-width="0.57629"/>
<path d="M206.485 125.946C207.332 129.416 210.127 131.969 212.801 134.135C212.565 132.435 212.283 130.735 212.265 129.018C212.265 122.235 212.421 115.446 212.231 108.658C211.366 107.926 210.502 107.2 209.701 106.404C208.543 105.136 207.505 103.771 206.433 102.439C206.451 105.851 206.261 109.274 206.474 112.686C206.445 117.1 206.22 121.532 206.485 125.946Z" fill="url(#paint16_radial_241_16624)" stroke="black" stroke-width="0.57629"/>
<path d="M197.605 236.098C198.441 234.888 199.196 233.62 199.997 232.387C202.279 235.608 200.706 239.711 201.962 243.233C202.423 244.299 203.777 243.861 204.67 244.097C205.275 243.429 206.336 243.014 206.468 242.028C206.866 239.227 205.518 236.605 204.619 234.035C203.985 232.185 204.215 230.18 204.042 228.261C203.737 228.007 203.132 227.506 202.826 227.258C202.233 227.465 201.639 227.679 201.046 227.892C200.561 228.376 200.089 228.877 199.639 229.396C198.037 232.231 196.66 235.199 194.781 237.873C196.02 237.833 196.977 237.141 197.605 236.098Z" fill="white" stroke="black" stroke-width="0.57629"/>
<path d="M215.712 189.624C216.323 192.367 218.023 194.684 219.839 196.776C220.075 196.828 220.559 196.943 220.801 197.001C220.841 188.731 220.968 180.467 220.899 172.197C218.939 170.878 217.13 169.35 215.609 167.535C215.459 170.111 215.464 172.693 215.222 175.269C215.482 180.046 214.646 184.916 215.712 189.624Z" fill="url(#paint17_radial_241_16624)" stroke="black" stroke-width="0.57629"/>
<path d="M231.197 211.945C231.318 207.26 231.347 202.575 231.347 197.889C232.027 192.409 231.583 186.859 231.739 181.344L231.468 181.431C229.266 180.111 227.192 178.561 225.48 176.642C225.33 176.48 225.025 176.163 224.875 176.002C224.777 181.874 224.967 187.758 224.495 193.619C224.443 196.599 224.287 199.595 224.702 202.557C225.59 206.39 227.901 209.784 231.197 211.945Z" fill="url(#paint18_radial_241_16624)" stroke="black" stroke-width="0.57629"/>
<path d="M242.279 214.549C242.47 212.958 242.671 211.362 242.66 209.76C242.66 203.813 242.919 197.86 242.706 191.907C240.182 190.76 237.865 189.163 235.998 187.1C235.808 186.968 235.433 186.697 235.249 186.559C235.277 192.736 235.203 198.914 235.156 205.092C235.208 208.607 234.39 212.186 235.462 215.627L235.623 216.151C236.551 219.58 238.977 222.289 241.709 224.432C241.991 224.473 242.562 224.553 242.844 224.594C241.79 221.343 242.47 217.891 242.279 214.549Z" fill="url(#paint19_radial_241_16624)" stroke="black" stroke-width="0.57629"/>
<path d="M253.125 244.315C253.241 236.616 253.143 228.899 253.569 221.211L253.264 220.756C253.35 220.462 253.517 219.863 253.604 219.569C253.782 213.749 253.702 207.922 253.811 202.102C253.811 200.978 253.794 199.86 253.782 198.742C251.494 197.63 249.512 196.039 247.628 194.356C247.432 194.08 247.04 193.521 246.844 193.244C246.694 194.875 246.723 196.529 246.435 198.148C246.308 200.782 246.25 203.421 246.406 206.055C245.985 216.878 246.296 227.735 246.049 238.569C245.599 243.888 249.979 247.997 254.203 250.447C253.69 248.43 252.987 246.43 253.125 244.315Z" fill="url(#paint20_radial_241_16624)" stroke="black" stroke-width="0.57629"/>
<path d="M205.985 174.145C206.688 176.145 208.053 177.816 209.494 179.338C209.846 179.632 210.203 179.926 210.566 180.22L210.825 180.421C211.016 180.565 211.407 180.859 211.603 181.003C211.603 173.321 211.915 165.611 211.523 157.946C209.339 156.096 207.391 153.981 205.852 151.566C205.864 153.192 205.875 154.817 205.777 156.442C205.95 162.337 205.31 168.285 205.985 174.145Z" fill="url(#paint21_radial_241_16624)" stroke="black" stroke-width="0.57629"/>
<path d="M120.855 24.0808C121.794 23.9943 122.78 23.7638 123.655 24.2767C124.07 24.3286 124.491 24.3805 124.912 24.4323C122.889 23.8676 121.281 22.2194 119.149 22.0234C117.449 22.4787 116.037 23.637 114.51 24.4842C116.625 24.7781 118.792 24.611 120.855 24.0808Z" fill="white" stroke="black" stroke-width="0.57629"/>
<path d="M93.6255 226.848C93.9309 227.119 94.2248 227.396 94.5129 227.684C94.6397 226.485 95.0489 225.367 95.7001 224.359C96.5703 223.028 96.3456 221.305 97.112 219.927C98.2876 218.51 100.126 217.449 100.385 215.455C100.927 212.799 102.546 210.47 102.639 207.704C101.037 208.77 99.7687 210.223 98.351 211.502C98.0456 208.741 97.8266 205.981 97.5961 203.215C96.6106 204.177 95.6482 205.174 94.8069 206.275C92.9224 208.436 93.539 211.583 91.9715 213.899C91.1071 215.225 91.182 216.861 90.7267 218.331C90.2023 219.547 88.9402 220.336 88.6233 221.668C88.2083 223.258 87.8165 224.86 87.5283 226.48C88.6348 226.099 89.6375 225.431 90.7786 225.177C91.9139 225.333 92.8359 226.07 93.6255 226.848Z" fill="white" stroke="black" stroke-width="0.57629"/>
<path d="M191.277 207.853C191.231 209.518 191.519 211.166 192.291 212.659C193.219 214.515 192.977 216.941 194.62 218.416C195.455 219.355 196.7 220.122 196.867 221.482C197.121 223.003 197.478 224.513 198.377 225.804C198.596 226.259 199.034 227.176 199.253 227.631C199.443 227.487 199.835 227.199 200.031 227.055C200.867 226.432 201.771 225.712 202.866 225.666C203.984 225.908 204.935 226.628 206.024 226.98C205.633 225.072 205.022 223.211 204.647 221.298C203.933 220.393 202.907 219.615 202.699 218.422C202.417 217.022 202.365 215.535 201.57 214.301C200.417 212.515 200.515 210.308 199.835 208.36C198.971 206.498 197.495 205.023 196.049 203.605C196.06 206.418 195.611 209.201 195.3 211.996C193.876 210.694 192.562 209.288 191.277 207.853Z" fill="white" stroke="black" stroke-width="0.57629"/>
<path d="M82.6871 156.777C84.8712 154.927 86.8191 152.813 88.3578 150.398C88.3462 152.023 88.3347 153.649 88.4327 155.273C88.2598 161.169 88.9001 167.117 88.2258 172.977C87.5222 174.977 86.1569 176.648 84.7162 178.17C84.3647 178.464 84.0074 178.758 83.6443 179.051L83.385 179.253C83.1948 179.397 82.8029 179.692 82.607 179.836C82.6064 172.153 82.2952 164.442 82.6871 156.777Z" fill="url(#paint22_radial_241_16624)" stroke="black" stroke-width="0.57629"/>
<path d="M73.3103 171.029C75.2691 169.71 77.0792 168.183 78.6006 166.367C78.7505 168.944 78.7447 171.526 78.9868 174.101C78.7274 178.879 79.563 183.748 78.4969 188.456C77.8855 191.2 76.1854 193.516 74.3707 195.608C74.1344 195.66 73.6503 195.775 73.4083 195.833C73.3679 187.563 73.2411 179.299 73.3103 171.029Z" fill="url(#paint23_radial_241_16624)" stroke="black" stroke-width="0.57629"/>
<path d="M62.4711 180.175L62.7414 180.261C64.9428 178.941 67.0175 177.391 68.7296 175.472C68.8795 175.31 69.1849 174.993 69.3347 174.832C69.4333 180.704 69.2431 186.588 69.7151 192.449C69.7669 195.429 69.9225 198.425 69.5076 201.387C68.6207 205.219 66.3092 208.614 63.0128 210.775C62.8918 206.09 62.863 201.405 62.863 196.719C62.183 191.239 62.6261 185.689 62.4711 180.175Z" fill="url(#paint24_radial_241_16624)" stroke="black" stroke-width="0.57629"/>
<path d="M51.3652 223.426C52.4198 220.176 51.7392 216.724 51.9294 213.381C51.7392 211.79 51.5375 210.195 51.5491 208.592C51.5491 202.645 51.2903 196.692 51.503 190.739C54.0277 189.592 56.3438 187.995 58.2116 185.933C58.4017 185.8 58.7763 185.529 58.9607 185.391C58.9319 191.569 59.0068 197.747 59.0529 203.924C59.0011 207.44 59.8194 211.019 58.7475 214.459L58.5867 214.983C57.6589 218.412 55.2327 221.12 52.5005 223.264C52.2181 223.305 51.647 223.385 51.3652 223.426Z" fill="url(#paint25_radial_241_16624)" stroke="black" stroke-width="0.57629"/>
<path d="M40.0068 249.278C40.5197 247.261 41.2222 245.261 41.0839 243.146C40.9692 235.447 41.0672 227.73 40.6402 220.042L40.9456 219.587C40.8597 219.292 40.692 218.694 40.6056 218.4C40.427 212.579 40.5071 206.752 40.3981 200.932C40.3981 199.808 40.4154 198.689 40.4275 197.572C42.7148 196.46 44.6973 194.87 46.5823 193.187C46.7782 192.91 47.1701 192.351 47.3655 192.074C47.5153 193.705 47.4871 195.359 47.7752 196.979C47.9014 199.612 47.9591 202.252 47.8035 204.885C48.2242 215.708 47.913 226.566 48.1613 237.399C48.6108 242.719 44.231 246.829 40.0068 249.278Z" fill="url(#paint26_radial_241_16624)" stroke="black" stroke-width="0.57629"/>
<path d="M81.9834 137.764C84.2136 135.908 86.1212 133.724 88.069 131.586C88.2073 135.003 88.1382 138.426 87.9941 141.844C88.0172 142.605 88.0402 143.365 88.0633 144.132C87.7809 145.002 87.4005 145.849 86.9568 146.662C85.7921 148.69 84.1675 150.443 82.1903 151.704C82.1903 151.301 82.1845 150.489 82.1845 150.084C82.1269 147.912 82.0866 145.745 82.0577 143.573C82.0232 141.636 82.0065 139.7 81.9834 137.764Z" fill="url(#paint27_radial_241_16624)"/>
<path d="M72.752 144.137C74.6191 142.806 76.4229 141.394 78.2959 140.074C78.3708 141.682 78.4226 143.29 78.4284 144.898C78.4342 146.131 78.4399 147.364 78.4399 148.592C78.4457 150.102 78.4751 151.606 78.4751 153.115C78.4578 154.326 78.4226 155.542 78.3247 156.757C78.2901 156.867 78.2158 157.097 78.1806 157.213C77.2816 160.422 75.5758 163.46 72.8332 165.442C72.873 164.877 72.9139 164.324 72.9542 163.765C72.9248 161.633 72.8563 159.506 72.862 157.38C72.8563 155.409 72.839 153.438 72.8038 151.473C72.775 149.917 72.7641 148.366 72.7583 146.81C72.7577 145.918 72.7577 145.025 72.752 144.137Z" fill="url(#paint28_radial_241_16624)"/>
<path d="M62.0498 150.373C64.0317 148.396 66.5103 146.708 69.3162 146.172C69.2183 148.125 69.1779 150.079 69.1722 152.033C69.1664 153.83 69.2073 155.622 69.2477 157.421C69.2765 161.063 69.7375 164.907 67.9914 168.273C67.951 168.365 67.8698 168.549 67.8294 168.636C66.6653 170.883 65.1618 173.067 62.9194 174.359C62.7754 174.445 62.4872 174.623 62.3374 174.716C62.297 170.624 62.395 166.539 62.274 162.447V161.807C62.2803 160.896 62.2913 159.992 62.2803 159.087C62.2803 158.216 62.274 157.352 62.2682 156.487C62.1074 154.459 61.7271 152.407 62.0498 150.373Z" fill="url(#paint29_radial_241_16624)"/>
<path d="M50.7139 185.626C50.7945 184.387 50.904 183.142 50.9559 181.903C51.0827 182.347 51.2147 182.785 51.3478 183.228C51.342 179.708 51.4112 176.181 51.3593 172.659L51.3478 172.359C51.285 170.688 51.2729 169.011 51.2959 167.34C51.1749 166.585 51.0539 165.824 50.9386 165.069L50.8752 164.585C50.8176 163.329 50.7715 162.073 50.7715 160.817C50.8009 159.502 50.847 158.188 50.8868 156.881C53.5262 155.457 55.5662 153.17 58.2466 151.832C58.2811 152.939 58.2984 154.051 58.2984 155.158C58.2863 155.682 58.269 156.73 58.2633 157.25C58.2281 159.007 58.2575 160.771 58.2863 162.528C58.3036 163.756 58.3209 164.989 58.3388 166.222C58.3555 167.214 58.3785 168.204 58.367 169.201C58.4944 172.215 58.4886 175.299 57.4507 178.18C57.1164 178.866 56.7707 179.552 56.4543 180.255C54.9899 182.462 53.1112 184.438 50.7139 185.626Z" fill="url(#paint30_radial_241_16624)"/>
<path d="M38.9004 192.938C39.3326 191.485 39.713 190.022 40.0178 188.547C39.9031 184.126 39.9371 179.712 39.891 175.298C39.8789 173.845 39.891 172.394 39.868 170.947C39.8513 169.829 39.8161 168.716 39.7815 167.604C39.7533 166.112 39.7648 164.625 39.77 163.132C40.8304 162.469 41.885 161.8 42.9166 161.109C44.0109 160.354 45.0315 159.507 46.0228 158.625C46.3403 158.642 46.9794 158.665 47.2969 158.677C47.3085 160.757 47.2906 162.838 47.2675 164.912C47.2618 166.186 47.2675 167.46 47.2733 168.739C47.2791 170.352 47.2791 171.967 47.2675 173.58C47.2618 175.636 47.2969 177.694 47.3027 179.758C47.3027 181.152 47.2451 182.553 47.0313 183.941C45.6199 187.895 42.5247 190.944 38.9004 192.938Z" fill="url(#paint31_radial_241_16624)"/>
<path d="M81.4072 132.964C81.6435 131.263 81.9253 129.563 81.9432 127.846C81.9432 121.063 81.7876 114.274 81.9783 107.486C82.8428 106.754 83.7072 106.028 84.5082 105.232C85.6666 103.965 86.7039 102.599 87.7758 101.268C87.7585 104.679 87.9487 108.102 87.7355 111.514C87.7643 115.928 87.989 120.36 87.7239 124.774C86.8762 128.244 84.0812 130.797 81.4072 132.964Z" fill="url(#paint32_radial_241_16624)" stroke="black" stroke-width="0.57629"/>
<path d="M71.5479 138.693C71.836 137.713 72.1178 136.728 72.3829 135.748C72.4866 128.671 72.0141 121.571 72.4348 114.512C74.4345 113.146 76.1864 111.481 77.9671 109.855C78.0593 113.745 77.9902 117.647 78.2438 121.531C78.3994 123.905 78.4051 126.303 78.0132 128.654C77.9043 129.524 77.7424 130.389 77.5292 131.242C76.6705 134.112 74.7751 136.497 72.6538 138.549C72.3771 138.589 71.8239 138.658 71.5479 138.693Z" fill="url(#paint33_radial_241_16624)" stroke="black" stroke-width="0.57629"/>
<path d="M61.1387 144.767C61.4499 142.986 61.7962 141.2 61.7899 139.384C61.7899 132.884 61.64 126.383 61.8533 119.888L61.9622 119.716L62.5615 119.278C63.0687 118.943 63.5873 118.626 64.0945 118.315C64.7169 117.946 65.3392 117.583 65.9962 117.289C66.3599 117.157 67.086 116.897 67.4485 116.765C67.7251 116.696 68.2904 116.557 68.5728 116.488C68.601 118.886 68.6765 121.283 68.6765 123.686C68.6708 124.401 68.6593 125.121 68.6362 125.836C68.6881 129.501 69.0166 133.224 68.0541 136.808C66.6134 140.076 64.3947 143.124 61.1387 144.767Z" fill="url(#paint34_radial_241_16624)" stroke="black" stroke-width="0.57629"/>
<path d="M49.8037 151.565C50.0227 150.459 50.2475 149.352 50.3742 148.234C50.4088 147.992 50.4722 147.508 50.5062 147.266C50.3276 141.382 50.4774 135.493 50.2642 129.609C50.2584 128.612 50.1835 127.569 50.5984 126.641C53.1456 125.361 55.2548 123.448 57.4096 121.633C57.496 121.667 57.681 121.731 57.7732 121.765C57.6459 125.603 57.9398 129.442 57.7732 133.28C57.8879 136.876 58.361 140.673 56.8915 144.079C55.5833 147.347 53.054 150.148 49.8037 151.565Z" fill="url(#paint35_radial_241_16624)" stroke="black" stroke-width="0.57629"/>
<path d="M38.2021 158.441C38.756 156.552 39.3841 154.638 39.3784 152.65C39.4763 146.12 39.119 139.585 39.3432 133.061C42.1324 132.099 43.7927 129.2 46.6684 128.566C46.616 131.505 46.6909 134.45 46.6621 137.395C46.7889 139.7 46.7831 142.005 46.7664 144.311C47.0251 148.033 45.5614 151.658 43.3144 154.569C41.8501 156.148 40.0584 157.364 38.2021 158.441Z" fill="url(#paint36_radial_241_16624)" stroke="black" stroke-width="0.57629"/>
<path d="M89.4066 55.0931L88.9514 54.9778C85.1761 53.9808 81.6037 52.3557 78.2837 50.3156C74.6992 48.3274 71.2184 45.6707 66.9942 45.348C62.4472 45.2097 58.7763 48.4715 55.9179 51.6411C50.3573 58.2742 44.2192 64.6422 40.4105 72.5143C39.2228 75.0845 38.1399 77.7816 37.9319 80.6342C37.7475 95.0415 38.7444 109.431 38.4678 123.839C38.416 125.412 37.8454 126.899 37.3389 128.368C40.358 126.818 43.0724 124.49 44.4964 121.349C47.6539 114.042 44.4964 105.858 46.582 98.3263C47.2908 96.6781 48.2647 95.1625 49.5556 93.9119C49.4928 95.3238 49.3948 96.7357 49.3597 98.1534C49.4519 105.899 50.4956 113.684 49.2041 121.389C49.3706 121.349 49.7107 121.274 49.8784 121.234C54.0161 118.819 56.5518 114.434 57.2664 109.771C57.2779 105 57.3701 100.193 58.4933 95.5255C58.8973 93.8485 59.4442 92.2003 60.2164 90.6617C60.3899 90.6559 60.7351 90.6559 60.908 90.6501C60.6596 97.9921 61.4151 105.363 60.7351 112.682C60.6262 113.367 60.4988 114.042 60.3778 114.728C61.3575 114.186 62.3026 113.563 63.1152 112.791C65.9107 109.921 67.1261 106.026 68.2954 102.303C69.2982 97.8192 69.7943 93.2319 70.9008 88.7714C71.0161 88.2124 71.4253 87.7975 71.7532 87.3595C71.8972 92.6556 71.8166 97.9517 71.8114 103.248C71.7883 104.095 71.65 104.931 71.5175 105.772C71.3503 106.821 71.2005 107.875 71.068 108.936C71.3964 108.671 72.0592 108.146 72.3934 107.887C73.8169 106.625 75.0155 105.144 76.1745 103.645C77.6031 101.127 78.6635 98.4128 79.2686 95.5774C80.1163 92.2983 80.0414 88.8694 80.8418 85.5788C81.908 89.2094 81.8791 93.0187 81.7754 96.7646C81.7005 98.7412 81.3144 100.689 80.9052 102.62L81.4982 102.332C83.1643 100.718 84.5468 98.845 85.6706 96.8222C86.9326 94.494 87.8028 91.9641 88.3734 89.3823C88.6263 87.3768 88.6903 85.354 88.7825 83.337C88.9727 83.3485 89.3646 83.3658 89.5605 83.3774C90.0331 86.91 90.7995 90.5867 89.7853 94.1021C89.2211 96.1479 88.9669 98.2629 89.1173 100.384C89.1923 102.113 89.2263 103.847 89.2551 105.582C89.0534 114.048 90.0279 122.496 89.6181 130.962C89.9005 139.917 89.7686 148.878 89.9645 157.834C94.6324 154.267 96.6777 147.968 95.9464 142.245C95.5372 139.301 95.0474 136.361 94.7016 133.411C93.8026 124.403 93.3473 115.287 94.2815 106.268C94.4486 104.527 94.5575 102.781 94.7367 101.041C95.4047 97.4792 95.7453 93.8485 96.7935 90.3678C97.3641 88.4545 102.964 86.5325 103.386 84.5847L112.726 57.6633C108.505 57.5636 95.4024 56.543 89.4066 55.0931Z" fill="url(#paint37_linear_241_16624)"/>
<path d="M101.404 145.574C102.161 149.243 102.013 153.026 101.992 156.754C101.456 160.528 101.174 164.338 100.661 168.118C100.529 168.924 100.413 169.737 100.287 170.55C99.376 175.737 98.1485 180.855 97.0939 186.012C97.0651 186.144 97.0017 186.398 96.9672 186.525C96.1315 189.815 96.3281 188.404 95.5155 191.7C95.4579 191.902 95.3368 192.311 95.2734 192.513C96.2186 193.683 96.0975 195.089 95.8382 196.466C96.5125 197.002 97.2789 197.394 98.0281 197.815C99.0136 197.233 99.9644 196.605 100.904 195.953C100.725 196.87 100.57 197.792 100.454 198.725C101.284 199.377 102.056 200.091 102.794 200.852C103.849 199.446 104.823 197.982 105.699 196.461C105.802 196.622 105.912 196.789 106.027 196.95C105.22 199.947 105.289 203.076 105.462 206.148C105.577 205.964 105.796 205.601 105.912 205.422C106.327 204.627 106.684 203.808 107.001 202.973C109.928 195.665 113.11 188.289 118.244 182.226C122.002 177.893 127.586 174.879 133.424 175.167C138.512 175.409 143.786 177.483 146.926 181.644C151.779 175.576 160.913 173.611 167.949 176.769C173.142 178.918 176.778 183.506 179.55 188.22C182.259 192.49 184.028 197.227 186.079 201.814C186.598 203.434 187.163 205.036 187.797 206.615C188.298 205.001 188.385 203.307 188.131 201.641C188.073 200.892 187.998 200.149 187.929 199.405C187.883 198.501 187.86 197.602 187.889 196.708C188.333 197.584 188.823 198.449 189.387 199.267C190.782 201.198 192.136 203.163 193.623 205.03C193.565 202.621 193.168 200.241 192.931 197.849C193.174 197.7 193.652 197.406 193.894 197.262C194.044 197.337 194.332 197.486 194.482 197.561C194.73 197.711 195.219 197.999 195.467 198.143C197.225 199.21 198.971 200.299 200.717 201.388C200.394 200.091 200.014 198.812 199.593 197.55C198.781 194.253 197.847 190.986 197.012 187.695C196.977 187.568 196.914 187.315 196.885 187.182C195.83 182.025 194.603 176.907 193.692 171.72C193.565 170.908 193.45 170.095 193.318 169.289C192.805 165.508 192.522 161.699 191.986 157.924C191.965 154.179 191.816 150.379 192.586 146.695C162.031 146.723 131.981 147.21 101.404 145.574Z" fill="url(#paint38_radial_241_16624)"/>
<path d="M119.649 9.80273C119.277 10.1733 118.921 10.5606 118.601 10.987C118.261 11.4653 117.938 11.9609 117.598 12.4393C115.535 14.3237 112.631 15.6377 111.72 18.4845C111.109 19.787 111.68 21.1816 111.876 22.5128C113.962 22.3399 115.921 21.5965 117.909 21.0029C120.019 20.8669 122.007 21.5654 123.96 22.3157C120.867 19.3593 119.597 14.4684 119.649 9.80273Z" fill="white"/>
<path d="M256.358 125.122C256.081 110.715 257.078 96.3248 256.894 81.9176C256.687 79.0649 255.603 76.3679 254.416 73.7976C250.607 65.9255 244.469 59.5575 238.908 52.9244C236.05 49.7548 232.379 46.493 227.832 46.6314C223.608 46.9541 220.127 49.6108 216.542 51.599C213.223 53.639 209.65 55.2642 205.875 56.2612L205.42 56.3764C199.559 57.7941 193.11 57.8805 187.595 55.172C183.821 53.3682 181.279 49.9277 178.542 46.9022C177.314 45.4327 176.392 43.7384 175.614 41.998C174.22 38.9494 172.756 35.9354 171.28 32.9272C170.312 31.0081 169.304 29.1006 168.37 27.1643C164.607 20.1566 158.884 13.9442 151.589 10.5902C151.277 10.4519 150.655 10.1753 150.344 10.037L150.384 9.6105C149.842 9.47795 149.301 9.33388 148.765 9.18404C152.188 9.39151 155.553 10.3193 158.665 11.7543C152.591 4.02049 141.665 1.44447 132.387 3.91099C130.289 4.47576 128.255 5.25951 126.295 6.18734C124.27 7.11632 122.271 8.22683 120.687 9.80298C120.635 14.468 121.906 19.3596 124.999 22.3165C125.687 22.5811 126.372 22.8525 127.055 23.0957C130.271 24.7496 132.738 27.5504 133.746 31.0485C134.455 34.1028 134.472 37.3243 133.879 40.4017C133.504 41.6695 133.008 42.9028 132.455 44.1072C131.101 46.9022 128.882 49.1497 126.531 51.1264C123.477 53.5065 120.261 55.9154 116.394 56.7395L116.233 56.7424C114.477 57.6045 107.419 57.8143 104.427 57.7791L95.0869 84.7005C94.9889 88.285 98.7014 91.8176 98.574 95.3964C97.9349 102.306 97.6174 109.279 98.3492 116.189C98.5682 118.292 98.6604 120.402 98.9255 122.499C99.0927 124.148 99.2598 125.796 99.473 127.444C99.7208 129.219 99.9283 131 100.176 132.775C100.845 136.786 101.553 140.797 102.193 144.813C102.289 145.18 102.364 145.55 102.441 145.92C133.018 147.556 163.068 147.07 193.622 147.041C193.696 146.688 193.767 146.335 193.858 145.984C194.498 141.967 195.207 137.956 195.875 133.945C196.123 132.17 196.331 130.389 196.578 128.614C196.792 126.966 196.959 125.318 197.126 123.67C197.391 121.572 197.483 119.463 197.702 117.359C198.434 110.45 198.117 103.477 197.477 96.5668C197.351 92.9881 196.607 89.4554 196.509 85.8709C196.93 87.8188 197.46 89.7378 198.031 91.6511C199.08 95.1319 199.42 98.7625 200.088 102.324C200.267 104.064 200.376 105.811 200.543 107.551C201.477 116.57 201.022 125.687 200.123 134.694C199.777 137.645 199.287 140.584 198.878 143.529C198.146 149.251 200.192 155.55 204.86 159.117C205.056 150.162 204.923 141.2 205.205 132.245C204.796 123.779 205.77 115.331 205.569 106.865C205.597 105.131 205.632 103.396 205.707 101.667C205.857 99.5463 205.603 97.4313 205.038 95.3855C204.024 91.8701 204.791 88.1934 205.263 84.6607C205.459 84.6492 205.851 84.6319 206.041 84.6204C206.133 86.6374 206.197 88.6602 206.45 90.6656C207.021 93.2474 207.891 95.7773 209.153 98.1055C210.277 100.128 211.66 102.001 213.325 103.615L213.919 103.903C213.51 101.972 213.124 100.025 213.049 98.0479C212.945 94.302 212.916 90.4928 213.982 86.8621C214.783 90.1527 214.708 93.5817 215.556 96.8608C216.161 99.6961 217.221 102.41 218.65 104.929C219.809 106.427 221.007 107.908 222.431 109.17C222.765 109.43 223.428 109.954 223.756 110.219C223.624 109.159 223.474 108.104 223.307 107.055C223.174 106.214 223.036 105.378 223.013 104.531C223.007 99.2351 222.926 93.939 223.07 88.6429C223.399 89.0808 223.808 89.4958 223.923 90.0548C225.03 94.5153 225.525 99.1025 226.528 103.586C227.698 107.309 228.914 111.205 231.709 114.075C232.522 114.847 233.467 115.469 234.446 116.011C234.325 115.325 234.199 114.651 234.089 113.965C233.409 106.646 234.164 99.2754 233.916 91.9335C234.089 91.9392 234.435 91.9392 234.608 91.945C235.38 93.4837 235.927 95.1319 236.331 96.8089C237.455 101.477 237.547 106.283 237.558 111.055C238.273 115.717 240.809 120.103 244.946 122.517C245.114 122.558 245.454 122.632 245.621 122.673C244.33 114.968 245.373 107.182 245.465 99.4368C245.43 98.0191 245.333 96.6072 245.269 95.1953C246.56 96.4458 247.534 97.9615 248.243 99.6097C250.329 107.142 247.171 115.325 250.329 122.632C251.752 125.773 254.467 128.101 257.486 129.652C256.98 128.182 256.409 126.695 256.358 125.122Z" fill="url(#paint39_linear_241_16624)"/>
<path d="M125.292 8.71663C123.943 8.91257 123.246 10.0306 123.229 11.3272C124.398 10.7913 125.66 10.5319 126.951 10.578C126.876 12.6469 127.257 14.7561 128.709 16.3237C129.285 16.5542 129.856 16.7962 130.444 16.9922C130.715 16.6925 131.25 16.0874 131.516 15.7819C130.766 15.6782 130.023 15.5572 129.28 15.4362C131.302 15.4246 133.631 15.5918 134.875 13.6497L134.904 12.9408C134.881 11.7883 135.152 10.6703 135.538 9.59259C136.483 9.14885 137.417 8.69358 138.35 8.22102C133.999 7.63321 129.568 7.63321 125.292 8.71663Z" fill="#29141C"/>
<path d="M115.898 17.1489C116.763 16.9529 117.547 16.5438 118.348 16.1807C118.359 15.9041 118.394 15.3508 118.405 15.0742C117.587 15.1088 116.769 15.1607 115.95 15.2241C115.927 15.8637 115.91 16.5034 115.898 17.1489Z" fill="#29141C"/>
<path d="M132.194 10.3641C131.961 10.1976 131.725 10.1152 131.482 10.0679C131.459 10.0529 131.436 10.0374 131.405 10.0293C131.161 9.96302 130.918 9.95553 130.673 9.95841C130.671 9.95783 130.669 9.95726 130.667 9.95726C130.645 9.95149 130.628 9.95899 130.608 9.95899C130.506 9.96071 130.405 9.9636 130.302 9.96475C130.298 9.96475 130.295 9.96705 130.29 9.96705C129.809 9.98204 129.366 10.118 129.099 10.5036C129.017 10.6223 129.042 10.737 129.116 10.8165C129.142 11.0136 129.41 11.179 129.612 11.0026C130.302 10.4016 131.058 10.5762 131.832 10.9035C131.915 10.9387 131.994 10.9341 132.063 10.9076C132.321 10.922 132.415 10.5226 132.194 10.3641Z" fill="white"/>
<path d="M213.775 263.196C214.098 262.504 214.432 261.819 214.772 261.139C215.107 261.237 215.781 261.444 216.115 261.542C216.196 261.784 216.357 262.274 216.438 262.516C215.573 262.816 214.686 263.058 213.775 263.196Z" fill="#C52C1D"/>
<path d="M223.918 257.293C224.477 257.414 225.042 257.541 225.606 257.668C225.566 257.973 225.485 258.584 225.445 258.889C224.777 258.999 224.114 259.108 223.445 259.224C223.601 258.578 223.757 257.933 223.918 257.293Z" fill="#C01C13"/>
<path d="M155.801 272.122C155.657 271.061 155.582 269.972 156.498 269.246C156.752 269.471 157.259 269.932 157.512 270.162C157.472 270.94 157.293 271.695 157.074 272.45C156.757 272.364 156.118 272.202 155.801 272.122Z" fill="#DA2B1C"/>
<path d="M64.7867 253.997C65.7376 253.992 66.6827 253.98 67.6336 253.957C66.9939 254.556 66.9593 255.478 66.5156 256.205C65.9047 256.193 65.3054 256.124 64.7061 255.991C64.7291 255.323 64.7579 254.654 64.7867 253.997Z" fill="#C0251E"/>
<path d="M106.5 270.214C107.186 269.666 107.981 269.338 108.874 269.395C108.978 269.983 109.088 270.577 109.197 271.17C108.235 271.032 107.14 271.084 106.5 270.214Z" fill="#D2231D"/>
<path d="M128.15 272.306C128.899 272.288 129.643 272.265 130.392 272.254C130.242 272.75 129.948 273.746 129.798 274.242C129.164 274.156 128.53 274.075 127.891 273.994C127.977 273.43 128.064 272.865 128.15 272.306Z" fill="#EB160B"/>
<path d="M220.397 231.228C219.774 231.32 219.152 231.413 218.529 231.51C218.829 233.487 219.636 235.383 219.745 237.389C219.572 240.535 216.409 241.953 214.478 243.97C214.357 243.981 214.121 244.004 214.005 244.016C213.85 243.284 213.694 242.558 213.539 241.832C211.706 243.226 210.461 245.411 208.179 246.16C208.415 245.416 208.663 244.679 208.911 243.947C207.297 243.342 206.289 244.592 205.592 245.854C204.987 246.678 204.018 247.07 203.131 247.508C203.091 247.122 203.004 246.35 202.958 245.964C200.722 245.001 199.835 242.719 200.002 240.403C199.673 240.529 199.016 240.777 198.688 240.898C192.435 243.347 185.929 245.024 179.445 246.725C170.599 248.603 161.627 249.894 152.59 250.28C150.176 250.056 148.96 252.562 146.937 253.323C144.805 252.718 143.491 250.177 141.065 250.217C134.368 249.813 127.672 249.185 121.09 247.848C111.731 246.021 102.47 243.509 93.6474 239.872C93.3535 242.149 92.8175 244.765 90.2934 245.52C90.2069 245.958 90.0225 246.84 89.9361 247.284C88.0804 246.062 87.1814 243.353 84.7783 243.163C84.8129 244.045 84.8474 244.927 84.882 245.808C84.2596 245.376 83.6257 244.973 83.0264 244.506C81.9602 243.388 80.9056 242.264 79.7646 241.227C79.7242 241.792 79.6493 242.921 79.609 243.486C77.4709 242.535 75.7133 240.841 74.359 238.962C72.8894 236.593 74.4051 233.931 74.9987 231.557C74.6241 230.727 73.7308 230.335 72.9759 230.94C69.1724 233.516 65.3343 236.046 61.5192 238.599C60.1765 239.555 58.7012 240.339 57.5025 241.48C57.0415 242.327 57.2662 243.359 57.1855 244.293C57.2028 251.064 57.3815 257.835 57.2835 264.607C59.969 266.491 62.983 267.811 65.899 269.292C73.8749 273.228 82.1562 276.565 90.6507 279.21C99.7503 281.93 109.023 284.132 118.422 285.532C123.447 286.16 128.473 286.782 133.521 287.192C136.742 287.439 140.021 287.14 143.191 287.831C144.81 288.436 146.274 291.352 147.992 289.335C148.873 288.719 149.634 287.647 150.838 287.751C159.281 287.399 167.724 286.84 176.08 285.538C186.874 284.022 197.506 281.377 207.833 277.902C214.161 275.821 220.333 273.291 226.344 270.422C227.445 269.914 228.54 269.413 229.629 268.889C231.726 267.874 233.766 266.762 235.835 265.696C236.129 257.945 236.337 250.205 236.423 242.448C231.185 238.564 225.658 235.083 220.397 231.228ZM185.652 262.573C185.871 262.342 186.297 261.887 186.511 261.662C186.926 261.708 187.761 261.8 188.182 261.846C188.153 262.209 188.09 262.93 188.061 263.287C187.444 264.019 186.384 263.5 185.577 263.616C184.799 264.353 183.762 264.313 182.782 264.146C182.379 262.152 184.292 262.1 185.652 262.573ZM171.464 259.772L170.761 260.486C171.003 265.592 171.942 270.687 172.605 275.77C171.654 276 170.219 276.893 169.695 275.585C169.308 269.367 168.092 263.212 167.799 256.983C169.043 257.876 170.403 258.642 171.464 259.772ZM130.322 269.154C130.974 266.105 131.308 262.947 130.795 259.852C131.827 259.08 132.852 258.296 133.89 257.53C133.815 263.212 132.968 268.854 132.593 274.519C133.786 274.703 134.979 274.894 136.178 275.09C136.356 274.012 136.541 272.934 136.719 271.857C136.322 271.372 135.924 270.9 135.521 270.422C136.754 269.586 137.953 268.698 139.134 267.794C139.203 270.22 139.099 272.652 138.978 275.078C139.745 275.118 140.511 275.164 141.278 275.211C141.318 274.127 141.364 273.044 141.416 271.966C141.099 271.557 140.776 271.148 140.459 270.744C141.629 269.747 142.828 268.796 144.055 267.886C144.079 268.237 144.119 268.935 144.136 269.286C144.044 271.966 144.321 274.686 143.727 277.326C137.313 277.729 130.847 276.513 124.421 276.173C124.669 274.997 124.905 273.822 125.17 272.652C125.891 270.416 128.426 269.955 130.322 269.154ZM121.315 256.568C121.557 256.602 122.035 256.666 122.277 256.7C123.004 257.622 123.747 258.538 124.502 259.443C124.237 259.639 123.707 260.02 123.447 260.21C123.119 261.985 122.796 263.765 122.548 265.558C122.105 268.964 121.609 272.358 121.033 275.747C120.209 275.522 119.39 275.303 118.566 275.09C119.252 268.883 120.612 262.768 121.315 256.568ZM69.3625 241.63C69.328 240.91 69.2992 240.189 69.2761 239.469C69.5758 239.452 70.1636 239.423 70.4633 239.406C70.7745 239.596 71.3968 239.976 71.708 240.166C71.564 241.152 71.2297 242.034 69.9619 241.872C70.3883 242.506 70.4805 243.169 70.2327 243.855C69.7429 243.906 68.7574 244.022 68.2676 244.079C67.8411 243.042 67.772 241.446 69.3625 241.63ZM59.9633 255.951C61.3348 255.196 61.8823 253.675 62.8908 252.574C64.3546 251.254 66.4408 251.675 68.1927 252.032C69.8985 249.687 70.9358 246.961 72.1691 244.356C72.0077 244.131 71.6965 243.687 71.5409 243.463C72.9874 242.881 74.4858 242.454 76.0129 242.149C73.604 248.131 70.3941 253.761 67.9161 259.708C65.1614 258.683 62.6142 257.201 59.9633 255.951ZM116.324 274.703C112.988 274.415 109.743 273.539 106.458 272.934C103.225 272.358 100.136 271.061 96.8343 270.877C95.1169 269.972 93.2728 269.327 91.3826 268.883L90.9965 269.148C89.4866 270.427 87.5733 270.981 85.7234 271.551C84.9224 270.11 84.0925 268.681 83.2165 267.287C83.2281 266.987 83.2454 266.399 83.2511 266.099C78.929 264.48 74.5376 262.947 70.4114 260.872C70.4172 260.181 70.4517 259.501 70.5151 258.821C71.4718 259.04 72.4284 259.305 73.3332 259.703C77.7072 261.645 82.1792 263.374 86.7262 264.883C86.2939 266.088 85.8329 267.419 86.778 268.514C87.1296 268.41 87.8326 268.209 88.1842 268.105C88.5818 266.82 89.4117 265.575 89.3828 264.215C88.5357 263.333 87.2679 263.08 86.1729 262.63C81.3494 260.97 76.6584 258.971 71.9501 257.023C72.8433 254.228 74.3532 251.686 75.3848 248.943C76.134 250.263 76.837 251.606 77.4709 252.983C76.4451 253.657 75.356 254.493 75.4424 255.865C80.3812 258.371 85.781 259.829 90.8524 262.037C91.8897 263.339 92.0338 264.976 91.8206 266.572C92.7657 266.854 93.7223 267.125 94.6732 267.396C94.8403 265.114 95.7393 262.624 94.5003 260.492C93.9183 259.092 92.5813 258.291 91.4402 257.392C92.5813 256.983 93.7396 256.625 94.9325 256.429C95.7509 257.893 96.8746 259.311 96.9956 261.051C97.2434 263.385 96.5346 265.667 96.3271 267.972C97.2953 268.266 98.2577 268.577 99.2259 268.883C99.8367 267.408 100.061 265.817 99.7503 264.238C100.961 263.593 102.176 262.959 103.392 262.336C103.335 264.866 102.246 267.223 102.05 269.747C102.609 269.805 103.721 269.926 104.28 269.989C104.355 269.603 104.499 268.831 104.568 268.445C106.038 267.586 107.542 266.768 109.138 266.174C110.233 267.892 112.158 269.367 111.898 271.62C112.486 271.845 113.074 272.076 113.668 272.306C114.699 269.073 115.022 265.684 115.771 262.382C116.111 260.919 116.209 259.409 115.806 257.951C116.976 257.115 118.192 256.354 119.454 255.674C118.624 262.054 117.033 268.312 116.324 274.703ZM139.272 281.63C138.702 281.244 138.517 280.553 138.206 279.988C138.69 279.752 139.658 279.279 140.137 279.043C140.506 279.7 140.863 280.368 141.22 281.043C140.58 281.273 139.929 281.469 139.272 281.63ZM148.931 277.55C148.896 278.334 148.867 279.124 148.839 279.913C147.098 282.08 144.009 282.097 141.819 280.605L142.159 280.357C143.45 280.195 145.312 280.933 145.957 279.377C146.678 277.366 146.349 275.182 146.424 273.09C146.124 272.802 145.525 272.231 145.225 271.943C145.56 271.666 146.222 271.119 146.551 270.842C147.335 270.191 148.101 269.528 148.879 268.877C148.914 270.981 148.919 273.084 148.885 275.193C150.925 275.199 152.965 275.193 155.005 275.147C153.95 272.79 151.933 270.894 151.467 268.289C152.279 268.289 153.097 268.289 153.922 268.295C154.786 267.557 155.783 265.944 157.097 266.739C158.48 267.713 160.019 268.33 161.742 268.232C160.595 270.491 159.454 272.767 158.445 275.101C160.503 274.899 162.566 274.675 164.629 274.548C164.45 270.606 163.989 266.687 163.73 262.751C163.77 261.8 163.044 261.109 162.583 260.36C163.528 259.357 164.468 258.343 165.395 257.323C165.678 258.371 165.954 259.432 166.075 260.515C166.248 265.932 167.395 271.28 167.407 276.709C166.45 276.743 165.493 276.772 164.543 276.824C159.356 277.337 154.146 277.481 148.931 277.55ZM180.223 274.738C177.849 274.41 176.005 272.525 174.011 271.309C175.659 270.71 177.325 269.891 178.431 268.479C179.417 267.102 179.808 265.431 180.396 263.869C181.117 266.601 179.716 269.067 178.437 271.361C179.042 271.712 179.653 272.076 180.258 272.439C184.425 271.776 188.58 270.963 192.654 269.863C192.043 268.007 192.118 265.633 190.199 264.555C191.138 263.379 192.049 262.186 192.994 261.017C193.91 264.503 194.867 267.978 195.691 271.488C190.562 272.686 185.433 273.995 180.223 274.738ZM193.017 252.338C194.314 252.741 195.558 253.294 196.786 253.888C196.578 255.098 196.457 256.36 196.959 257.53C198.325 261.616 199.166 265.88 200.768 269.88C199.944 270.456 198.936 270.571 197.979 270.75C196.406 264.59 194.59 258.492 193.017 252.338ZM201.31 274.277C200.445 273.764 199.535 273.349 198.619 272.957C199.777 272.975 200.964 273.096 202.111 272.819C203.171 272.179 203.286 270.865 202.912 269.799C202.33 267.869 202.024 265.684 200.422 264.284C201.12 262.913 201.967 261.633 202.768 260.325C203.661 263.886 205.292 267.252 205.857 270.894C205.453 272.998 203.269 274.075 201.31 274.277ZM214.374 265.708C212.161 266.457 209.954 267.223 207.73 267.938C206.485 264.687 205.499 261.351 204.318 258.077C203.534 255.202 202.347 252.447 201.656 249.548C202.065 249.692 202.474 249.842 202.883 250.004C203.834 250.372 204.791 250.747 205.747 251.11C205.557 251.894 205.148 252.712 205.511 253.519C206.785 257.305 208.133 261.068 209.441 264.849C210.173 264.734 210.911 264.63 211.648 264.532C211.499 263.904 211.326 263.276 211.159 262.665C211.937 261.195 212.692 259.714 213.504 258.268C215.112 258.752 216.708 259.288 218.305 259.824C218.829 261.034 219.353 262.244 219.872 263.46C218.051 264.238 216.224 264.999 214.374 265.708ZM222.264 262.59C221.785 261.766 221.319 260.936 220.771 260.164C220.788 259.668 220.829 258.683 220.846 258.187C221.134 257.691 221.428 257.201 221.716 256.712C220.932 256.458 220.154 256.21 219.377 255.968C218.293 253.905 217.538 251.698 216.53 249.606C216.218 248.759 215.256 248.638 214.547 248.304C215.239 246.926 215.85 245.514 216.42 244.085C216.587 244.102 216.927 244.125 217.094 244.137C217.947 246.58 219.1 248.903 220.085 251.295C220.616 252.459 221.03 253.847 222.275 254.464C223.497 254.234 223.336 252.712 222.875 251.894C221.405 248.874 220.085 245.779 218.535 242.794C220.108 243.221 221.676 243.682 223.238 244.16C222.633 247.405 225.26 249.911 226.142 252.845C225.768 253.646 225.491 254.493 225.341 255.363C226.073 255.473 226.811 255.582 227.548 255.697C228.125 256.919 228.707 258.141 229.289 259.363C226.989 260.527 224.627 261.558 222.264 262.59ZM231.882 258.031C231.79 258.164 231.611 258.435 231.525 258.567C229.56 254.159 227.185 249.94 225.168 245.555C224.477 243.895 223.186 242.46 223.071 240.604C224.384 241.198 225.768 241.653 227.208 241.82C227.214 242.627 226.857 243.526 227.364 244.264C229.485 248.597 231.934 252.787 233.824 257.225C233.179 257.495 232.527 257.76 231.882 258.031Z" fill="#C9231D"/>
<path d="M130.271 279.325C130.662 279.141 131.458 278.766 131.85 278.582C132.149 278.905 132.743 279.556 133.037 279.879C133.746 279.377 134.535 279.043 135.394 278.905C135.624 279.51 136.471 280.409 135.653 280.945C135.077 281.746 134.126 281.198 133.457 280.876C132.443 280.766 131.423 280.916 130.409 280.887C130.357 280.363 130.311 279.844 130.271 279.325Z" fill="#F5FCF4"/>
<path d="M128.21 261.952C128.831 261.952 129.335 261.452 129.335 260.836C129.335 260.219 128.831 259.719 128.21 259.719C127.589 259.719 127.086 260.219 127.086 260.836C127.086 261.452 127.589 261.952 128.21 261.952Z" fill="white"/>
<path d="M127.853 264.566C128.474 264.566 128.977 264.066 128.977 263.449C128.977 262.832 128.474 262.332 127.853 262.332C127.232 262.332 126.729 262.832 126.729 263.449C126.729 264.066 127.232 264.566 127.853 264.566Z" fill="white"/>
<path d="M103.786 261.759C104.407 261.759 104.911 261.259 104.911 260.642C104.911 260.025 104.407 259.525 103.786 259.525C103.165 259.525 102.662 260.025 102.662 260.642C102.662 261.259 103.165 261.759 103.786 261.759Z" fill="white"/>
<path d="M100.934 260.982C101.555 260.982 102.058 260.482 102.058 259.865C102.058 259.248 101.555 258.748 100.934 258.748C100.313 258.748 99.8096 259.248 99.8096 259.865C99.8096 260.482 100.313 260.982 100.934 260.982Z" fill="white"/>
<path d="M185.6 102.152C179.916 85.1806 165.692 73.9113 146.899 73.9113C142.742 73.9113 141.602 73.83 137.661 75.0483L136.715 75.3635L136.61 76.9264C136.363 80.4453 136.083 84.0367 135.812 87.51C135.562 90.7096 135.312 93.9126 135.083 97.1167L134.966 98.7528L136.604 98.6572C139.12 98.5108 138.778 98.5333 141.364 98.5333C154.025 98.5333 167.316 99.2058 184.358 102.944L185.965 103.285L185.6 102.152Z" fill="url(#paint40_linear_241_16624)" stroke="#7AA35D" stroke-width="2.30516"/>
<path d="M185.6 126.208C179.916 143.179 165.692 154.448 146.899 154.448C142.742 154.448 141.602 154.53 137.661 153.311L136.715 152.996L136.61 151.433C136.363 147.914 136.083 144.323 135.812 140.85C135.562 137.65 135.312 134.447 135.083 131.243L134.966 129.607L136.604 129.702C139.12 129.849 138.778 129.826 141.364 129.826C154.025 129.826 167.316 129.154 184.358 125.416L185.965 125.074L185.6 126.208Z" fill="url(#paint41_linear_241_16624)" stroke="black" stroke-width="2.30516"/>
<path d="M186.436 103.364C169.589 99.6691 150.739 97.3703 133.361 98.3817C132.546 109.771 132.008 118.057 132.692 129.347C150.107 131.528 169.564 131.617 186.436 127.761C187.548 124.503 187.505 120.552 187.505 114.189C187.505 109.762 187.769 107.344 186.436 103.364Z" fill="#FBF7F5"/>
<path d="M133.442 130.262C132.758 118.972 133.296 107.57 134.111 96.1809C134.593 89.4366 135.168 82.6974 135.637 75.9883C119.377 81.0124 107.562 96.1625 107.562 114.073C107.562 132.362 119.884 147.762 136.676 152.453C134.872 145.129 133.893 137.719 133.442 130.262Z" fill="url(#paint42_linear_241_16624)" stroke="#F03924" stroke-width="2.30516"/>
<path d="M147.418 157.641C171.48 157.641 190.986 138.135 190.986 114.073C190.986 90.0117 171.48 70.5059 147.418 70.5059C123.356 70.5059 103.851 90.0117 103.851 114.073C103.851 138.135 123.356 157.641 147.418 157.641Z" stroke="#E4E4E4" stroke-width="6.91548"/>
<path d="M147.393 160.177C172.855 160.177 193.496 139.536 193.496 114.074C193.496 88.6118 172.855 67.9707 147.393 67.9707C121.931 67.9707 101.29 88.6118 101.29 114.074C101.29 139.536 121.931 160.177 147.393 160.177Z" stroke="black" stroke-width="2.88145"/>
<path d="M147.994 61.6836L149.247 65.5361H153.298L150.02 67.9179L151.272 71.7704L147.994 69.3892L144.717 71.7704L145.969 67.9179L142.691 65.5361H146.743L147.994 61.6836Z" fill="white" stroke="black" stroke-width="1.15258"/>
<path d="M107.416 80.5883L111.129 82.2076L113.817 79.1758L113.425 83.2081L117.138 84.8275L113.182 85.7L112.79 89.7323L110.737 86.2399L106.781 87.1124L109.468 84.0812L107.416 80.5883Z" fill="white" stroke="black" stroke-width="1.15258"/>
<path d="M96.0303 124.292L99.5848 122.348L98.8333 118.367L101.781 121.146L105.335 119.202L103.603 122.863L106.55 125.643L102.533 125.127L100.8 128.789L100.049 124.808L96.0303 124.292Z" fill="white" stroke="black" stroke-width="1.15258"/>
<path d="M124.113 160.89L124.707 156.882L121.079 155.079L125.074 154.406L125.669 150.398L127.543 153.99L131.538 153.317L128.702 156.209L130.576 159.801L126.949 157.997L124.113 160.89Z" fill="white" stroke="black" stroke-width="1.15258"/>
<path d="M168.93 161.786L166.306 158.7L162.56 160.242L164.684 156.793L162.06 153.707L165.996 154.661L168.121 151.211L168.429 155.25L172.367 156.204L168.621 157.747L168.93 161.786Z" fill="white" stroke="black" stroke-width="1.15258"/>
<path d="M197.642 126.043L193.593 126.177L192.47 130.07L191.091 126.261L187.042 126.396L190.238 123.907L188.859 120.097L192.213 122.368L195.41 119.879L194.287 123.772L197.642 126.043Z" fill="white" stroke="black" stroke-width="1.15258"/>
<path d="M187.883 81.8446L185.636 85.2159L188.148 88.3941L184.248 87.2997L182.002 90.671L181.837 86.6238L177.937 85.5288L181.735 84.1221L181.571 80.0742L184.083 83.2519L187.883 81.8446Z" fill="white" stroke="black" stroke-width="1.15258"/>
<defs>
<radialGradient id="paint0_radial_241_16624" cx="0" cy="0" r="1" gradientUnits="userSpaceOnUse" gradientTransform="translate(145.664 113.786) scale(124.768 124.768)">
<stop offset="0.5294" stop-color="#C7BCBC"/>
<stop offset="0.5374" stop-color="#C9BEBE"/>
<stop offset="0.6537" stop-color="#E0DADA"/>
<stop offset="0.7701" stop-color="#F1EFEF"/>
<stop offset="0.8858" stop-color="#FCFBFB"/>
<stop offset="1" stop-color="white"/>
</radialGradient>
<radialGradient id="paint1_radial_241_16624" cx="0" cy="0" r="1" gradientUnits="userSpaceOnUse" gradientTransform="translate(145.664 113.786) scale(124.768 124.768)">
<stop offset="0.5294" stop-color="#C7BCBC"/>
<stop offset="0.5374" stop-color="#C9BEBE"/>
<stop offset="0.6537" stop-color="#E0DADA"/>
<stop offset="0.7701" stop-color="#F1EFEF"/>
<stop offset="0.8858" stop-color="#FCFBFB"/>
<stop offset="1" stop-color="white"/>
</radialGradient>
<radialGradient id="paint2_radial_241_16624" cx="0" cy="0" r="1" gradientUnits="userSpaceOnUse" gradientTransform="translate(145.665 113.785) scale(124.768 124.768)">
<stop offset="0.5294" stop-color="#C7BCBC"/>
<stop offset="0.5374" stop-color="#C9BEBE"/>
<stop offset="0.6537" stop-color="#E0DADA"/>
<stop offset="0.7701" stop-color="#F1EFEF"/>
<stop offset="0.8858" stop-color="#FCFBFB"/>
<stop offset="1" stop-color="white"/>
</radialGradient>
<radialGradient id="paint3_radial_241_16624" cx="0" cy="0" r="1" gradientUnits="userSpaceOnUse" gradientTransform="translate(145.664 113.786) scale(124.768 124.768)">
<stop offset="0.5294" stop-color="#C7BCBC"/>
<stop offset="0.5374" stop-color="#C9BEBE"/>
<stop offset="0.6537" stop-color="#E0DADA"/>
<stop offset="0.7701" stop-color="#F1EFEF"/>
<stop offset="0.8858" stop-color="#FCFBFB"/>
<stop offset="1" stop-color="white"/>
</radialGradient>
<radialGradient id="paint4_radial_241_16624" cx="0" cy="0" r="1" gradientUnits="userSpaceOnUse" gradientTransform="translate(145.664 113.786) scale(124.768 124.768)">
<stop offset="0.5294" stop-color="#C7BCBC"/>
<stop offset="0.5374" stop-color="#C9BEBE"/>
<stop offset="0.6537" stop-color="#E0DADA"/>
<stop offset="0.7701" stop-color="#F1EFEF"/>
<stop offset="0.8858" stop-color="#FCFBFB"/>
<stop offset="1" stop-color="white"/>
</radialGradient>
<radialGradient id="paint5_radial_241_16624" cx="0" cy="0" r="1" gradientUnits="userSpaceOnUse" gradientTransform="translate(145.664 113.787) scale(124.768 124.768)">
<stop offset="0.5294" stop-color="#C7BCBC"/>
<stop offset="0.5374" stop-color="#C9BEBE"/>
<stop offset="0.6537" stop-color="#E0DADA"/>
<stop offset="0.7701" stop-color="#F1EFEF"/>
<stop offset="0.8858" stop-color="#FCFBFB"/>
<stop offset="1" stop-color="white"/>
</radialGradient>
<radialGradient id="paint6_radial_241_16624" cx="0" cy="0" r="1" gradientUnits="userSpaceOnUse" gradientTransform="translate(145.664 113.786) scale(124.768)">
<stop offset="0.5294" stop-color="#C7BCBC"/>
<stop offset="0.5374" stop-color="#C9BEBE"/>
<stop offset="0.6537" stop-color="#E0DADA"/>
<stop offset="0.7701" stop-color="#F1EFEF"/>
<stop offset="0.8858" stop-color="#FCFBFB"/>
<stop offset="1" stop-color="white"/>
</radialGradient>
<radialGradient id="paint7_radial_241_16624" cx="0" cy="0" r="1" gradientUnits="userSpaceOnUse" gradientTransform="translate(243.634 63.9348) scale(121.603 121.603)">
<stop offset="0.6878" stop-color="#9B7932"/>
<stop offset="0.7225" stop-color="#A28240"/>
<stop offset="0.7885" stop-color="#B49B66"/>
<stop offset="0.879" stop-color="#D2C3A3"/>
<stop offset="0.9896" stop-color="#FBFAF7"/>
<stop offset="1" stop-color="white"/>
</radialGradient>
<radialGradient id="paint8_radial_241_16624" cx="0" cy="0" r="1" gradientUnits="userSpaceOnUse" gradientTransform="translate(243.634 63.9354) scale(121.603 121.603)">
<stop offset="0.6878" stop-color="#9B7932"/>
<stop offset="0.7225" stop-color="#A28240"/>
<stop offset="0.7885" stop-color="#B49B66"/>
<stop offset="0.879" stop-color="#D2C3A3"/>
<stop offset="0.9896" stop-color="#FBFAF7"/>
<stop offset="1" stop-color="white"/>
</radialGradient>
<radialGradient id="paint9_radial_241_16624" cx="0" cy="0" r="1" gradientUnits="userSpaceOnUse" gradientTransform="translate(243.634 63.9354) scale(121.603 121.603)">
<stop offset="0.6878" stop-color="#9B7932"/>
<stop offset="0.7225" stop-color="#A28240"/>
<stop offset="0.7885" stop-color="#B49B66"/>
<stop offset="0.879" stop-color="#D2C3A3"/>
<stop offset="0.9896" stop-color="#FBFAF7"/>
<stop offset="1" stop-color="white"/>
</radialGradient>
<radialGradient id="paint10_radial_241_16624" cx="0" cy="0" r="1" gradientUnits="userSpaceOnUse" gradientTransform="translate(243.634 63.9349) scale(121.603 121.603)">
<stop offset="0.6878" stop-color="#9B7932"/>
<stop offset="0.7225" stop-color="#A28240"/>
<stop offset="0.7885" stop-color="#B49B66"/>
<stop offset="0.879" stop-color="#D2C3A3"/>
<stop offset="0.9896" stop-color="#FBFAF7"/>
<stop offset="1" stop-color="white"/>
</radialGradient>
<radialGradient id="paint11_radial_241_16624" cx="0" cy="0" r="1" gradientUnits="userSpaceOnUse" gradientTransform="translate(243.634 63.9364) scale(121.603 121.603)">
<stop offset="0.6878" stop-color="#9B7932"/>
<stop offset="0.7225" stop-color="#A28240"/>
<stop offset="0.7885" stop-color="#B49B66"/>
<stop offset="0.879" stop-color="#D2C3A3"/>
<stop offset="0.9896" stop-color="#FBFAF7"/>
<stop offset="1" stop-color="white"/>
</radialGradient>
<radialGradient id="paint12_radial_241_16624" cx="0" cy="0" r="1" gradientUnits="userSpaceOnUse" gradientTransform="translate(256.311 24.7498) scale(118.336 118.336)">
<stop offset="0.819" stop-color="#C7BCBC"/>
<stop offset="0.8625" stop-color="#D0C7C7"/>
<stop offset="0.9377" stop-color="#E7E3E3"/>
<stop offset="1" stop-color="white"/>
</radialGradient>
<radialGradient id="paint13_radial_241_16624" cx="0" cy="0" r="1" gradientUnits="userSpaceOnUse" gradientTransform="translate(256.312 24.7507) scale(118.336 118.336)">
<stop offset="0.819" stop-color="#C7BCBC"/>
<stop offset="0.8625" stop-color="#D0C7C7"/>
<stop offset="0.9377" stop-color="#E7E3E3"/>
<stop offset="1" stop-color="white"/>
</radialGradient>
<radialGradient id="paint14_radial_241_16624" cx="0" cy="0" r="1" gradientUnits="userSpaceOnUse" gradientTransform="translate(256.311 24.751) scale(118.336 118.336)">
<stop offset="0.819" stop-color="#C7BCBC"/>
<stop offset="0.8625" stop-color="#D0C7C7"/>
<stop offset="0.9377" stop-color="#E7E3E3"/>
<stop offset="1" stop-color="white"/>
</radialGradient>
<radialGradient id="paint15_radial_241_16624" cx="0" cy="0" r="1" gradientUnits="userSpaceOnUse" gradientTransform="translate(256.311 24.749) scale(118.336 118.336)">
<stop offset="0.819" stop-color="#C7BCBC"/>
<stop offset="0.8625" stop-color="#D0C7C7"/>
<stop offset="0.9377" stop-color="#E7E3E3"/>
<stop offset="1" stop-color="white"/>
</radialGradient>
<radialGradient id="paint16_radial_241_16624" cx="0" cy="0" r="1" gradientUnits="userSpaceOnUse" gradientTransform="translate(256.311 24.7498) scale(118.336 118.336)">
<stop offset="0.819" stop-color="#C7BCBC"/>
<stop offset="0.8625" stop-color="#D0C7C7"/>
<stop offset="0.9377" stop-color="#E7E3E3"/>
<stop offset="1" stop-color="white"/>
</radialGradient>
<radialGradient id="paint17_radial_241_16624" cx="0" cy="0" r="1" gradientUnits="userSpaceOnUse" gradientTransform="translate(323.161 126.175) scale(132.743 132.743)">
<stop offset="0.8054" stop-color="#C7BCBC"/>
<stop offset="0.8087" stop-color="#C9BEBE"/>
<stop offset="0.8568" stop-color="#E0DADA"/>
<stop offset="0.905" stop-color="#F1EFEF"/>
<stop offset="0.9528" stop-color="#FCFBFB"/>
<stop offset="1" stop-color="white"/>
</radialGradient>
<radialGradient id="paint18_radial_241_16624" cx="0" cy="0" r="1" gradientUnits="userSpaceOnUse" gradientTransform="translate(323.161 126.176) scale(132.743 132.743)">
<stop offset="0.8054" stop-color="#C7BCBC"/>
<stop offset="0.8087" stop-color="#C9BEBE"/>
<stop offset="0.8568" stop-color="#E0DADA"/>
<stop offset="0.905" stop-color="#F1EFEF"/>
<stop offset="0.9528" stop-color="#FCFBFB"/>
<stop offset="1" stop-color="white"/>
</radialGradient>
<radialGradient id="paint19_radial_241_16624" cx="0" cy="0" r="1" gradientUnits="userSpaceOnUse" gradientTransform="translate(323.162 126.175) scale(132.743 132.743)">
<stop offset="0.8054" stop-color="#C7BCBC"/>
<stop offset="0.8087" stop-color="#C9BEBE"/>
<stop offset="0.8568" stop-color="#E0DADA"/>
<stop offset="0.905" stop-color="#F1EFEF"/>
<stop offset="0.9528" stop-color="#FCFBFB"/>
<stop offset="1" stop-color="white"/>
</radialGradient>
<radialGradient id="paint20_radial_241_16624" cx="0" cy="0" r="1" gradientUnits="userSpaceOnUse" gradientTransform="translate(323.162 126.176) scale(132.743 132.743)">
<stop offset="0.8054" stop-color="#C7BCBC"/>
<stop offset="0.8087" stop-color="#C9BEBE"/>
<stop offset="0.8568" stop-color="#E0DADA"/>
<stop offset="0.905" stop-color="#F1EFEF"/>
<stop offset="0.9528" stop-color="#FCFBFB"/>
<stop offset="1" stop-color="white"/>
</radialGradient>
<radialGradient id="paint21_radial_241_16624" cx="0" cy="0" r="1" gradientUnits="userSpaceOnUse" gradientTransform="translate(323.161 126.175) scale(132.743 132.743)">
<stop offset="0.8054" stop-color="#C7BCBC"/>
<stop offset="0.8087" stop-color="#C9BEBE"/>
<stop offset="0.8568" stop-color="#E0DADA"/>
<stop offset="0.905" stop-color="#F1EFEF"/>
<stop offset="0.9528" stop-color="#FCFBFB"/>
<stop offset="1" stop-color="white"/>
</radialGradient>
<radialGradient id="paint22_radial_241_16624" cx="0" cy="0" r="1" gradientUnits="userSpaceOnUse" gradientTransform="translate(-45.0873 109.465) scale(161.501 161.501)">
<stop offset="0.8054" stop-color="#C7BCBC"/>
<stop offset="0.8087" stop-color="#C9BEBE"/>
<stop offset="0.8568" stop-color="#E0DADA"/>
<stop offset="0.905" stop-color="#F1EFEF"/>
<stop offset="0.9528" stop-color="#FCFBFB"/>
<stop offset="1" stop-color="white"/>
</radialGradient>
<radialGradient id="paint23_radial_241_16624" cx="0" cy="0" r="1" gradientUnits="userSpaceOnUse" gradientTransform="translate(-45.0879 109.465) scale(161.501 161.501)">
<stop offset="0.8054" stop-color="#C7BCBC"/>
<stop offset="0.8087" stop-color="#C9BEBE"/>
<stop offset="0.8568" stop-color="#E0DADA"/>
<stop offset="0.905" stop-color="#F1EFEF"/>
<stop offset="0.9528" stop-color="#FCFBFB"/>
<stop offset="1" stop-color="white"/>
</radialGradient>
<radialGradient id="paint24_radial_241_16624" cx="0" cy="0" r="1" gradientUnits="userSpaceOnUse" gradientTransform="translate(-45.0876 109.464) scale(161.501 161.501)">
<stop offset="0.8054" stop-color="#C7BCBC"/>
<stop offset="0.8087" stop-color="#C9BEBE"/>
<stop offset="0.8568" stop-color="#E0DADA"/>
<stop offset="0.905" stop-color="#F1EFEF"/>
<stop offset="0.9528" stop-color="#FCFBFB"/>
<stop offset="1" stop-color="white"/>
</radialGradient>
<radialGradient id="paint25_radial_241_16624" cx="0" cy="0" r="1" gradientUnits="userSpaceOnUse" gradientTransform="translate(-45.0878 109.465) scale(161.501 161.501)">
<stop offset="0.8054" stop-color="#C7BCBC"/>
<stop offset="0.8087" stop-color="#C9BEBE"/>
<stop offset="0.8568" stop-color="#E0DADA"/>
<stop offset="0.905" stop-color="#F1EFEF"/>
<stop offset="0.9528" stop-color="#FCFBFB"/>
<stop offset="1" stop-color="white"/>
</radialGradient>
<radialGradient id="paint26_radial_241_16624" cx="0" cy="0" r="1" gradientUnits="userSpaceOnUse" gradientTransform="translate(-45.0875 109.464) scale(161.501 161.501)">
<stop offset="0.8054" stop-color="#C7BCBC"/>
<stop offset="0.8087" stop-color="#C9BEBE"/>
<stop offset="0.8568" stop-color="#E0DADA"/>
<stop offset="0.905" stop-color="#F1EFEF"/>
<stop offset="0.9528" stop-color="#FCFBFB"/>
<stop offset="1" stop-color="white"/>
</radialGradient>
<radialGradient id="paint27_radial_241_16624" cx="0" cy="0" r="1" gradientUnits="userSpaceOnUse" gradientTransform="translate(39.6267 39.1554) scale(153.362 153.362)">
<stop offset="0.6878" stop-color="#9B7932"/>
<stop offset="0.7225" stop-color="#A28240"/>
<stop offset="0.7885" stop-color="#B49B66"/>
<stop offset="0.879" stop-color="#D2C3A3"/>
<stop offset="0.9896" stop-color="#FBFAF7"/>
<stop offset="1" stop-color="white"/>
</radialGradient>
<radialGradient id="paint28_radial_241_16624" cx="0" cy="0" r="1" gradientUnits="userSpaceOnUse" gradientTransform="translate(39.6274 39.155) scale(153.363 153.362)">
<stop offset="0.6878" stop-color="#9B7932"/>
<stop offset="0.7225" stop-color="#A28240"/>
<stop offset="0.7885" stop-color="#B49B66"/>
<stop offset="0.879" stop-color="#D2C3A3"/>
<stop offset="0.9896" stop-color="#FBFAF7"/>
<stop offset="1" stop-color="white"/>
</radialGradient>
<radialGradient id="paint29_radial_241_16624" cx="0" cy="0" r="1" gradientUnits="userSpaceOnUse" gradientTransform="translate(39.627 39.1555) scale(153.362 153.362)">
<stop offset="0.6878" stop-color="#9B7932"/>
<stop offset="0.7225" stop-color="#A28240"/>
<stop offset="0.7885" stop-color="#B49B66"/>
<stop offset="0.879" stop-color="#D2C3A3"/>
<stop offset="0.9896" stop-color="#FBFAF7"/>
<stop offset="1" stop-color="white"/>
</radialGradient>
<radialGradient id="paint30_radial_241_16624" cx="0" cy="0" r="1" gradientUnits="userSpaceOnUse" gradientTransform="translate(39.6266 39.1565) scale(153.362 153.362)">
<stop offset="0.6878" stop-color="#9B7932"/>
<stop offset="0.7225" stop-color="#A28240"/>
<stop offset="0.7885" stop-color="#B49B66"/>
<stop offset="0.879" stop-color="#D2C3A3"/>
<stop offset="0.9896" stop-color="#FBFAF7"/>
<stop offset="1" stop-color="white"/>
</radialGradient>
<radialGradient id="paint31_radial_241_16624" cx="0" cy="0" r="1" gradientUnits="userSpaceOnUse" gradientTransform="translate(39.6271 39.1556) scale(153.362 153.362)">
<stop offset="0.6878" stop-color="#9B7932"/>
<stop offset="0.7225" stop-color="#A28240"/>
<stop offset="0.7885" stop-color="#B49B66"/>
<stop offset="0.879" stop-color="#D2C3A3"/>
<stop offset="0.9896" stop-color="#FBFAF7"/>
<stop offset="1" stop-color="white"/>
</radialGradient>
<radialGradient id="paint32_radial_241_16624" cx="0" cy="0" r="1" gradientUnits="userSpaceOnUse" gradientTransform="translate(33.672 31.0876) scale(114.152 114.152)">
<stop offset="0.819" stop-color="#C7BCBC"/>
<stop offset="0.8625" stop-color="#D0C7C7"/>
<stop offset="0.9377" stop-color="#E7E3E3"/>
<stop offset="1" stop-color="white"/>
</radialGradient>
<radialGradient id="paint33_radial_241_16624" cx="0" cy="0" r="1" gradientUnits="userSpaceOnUse" gradientTransform="translate(33.6724 31.0888) scale(114.152 114.152)">
<stop offset="0.819" stop-color="#C7BCBC"/>
<stop offset="0.8625" stop-color="#D0C7C7"/>
<stop offset="0.9377" stop-color="#E7E3E3"/>
<stop offset="1" stop-color="white"/>
</radialGradient>
<radialGradient id="paint34_radial_241_16624" cx="0" cy="0" r="1" gradientUnits="userSpaceOnUse" gradientTransform="translate(33.6716 31.0885) scale(114.152 114.152)">
<stop offset="0.819" stop-color="#C7BCBC"/>
<stop offset="0.8625" stop-color="#D0C7C7"/>
<stop offset="0.9377" stop-color="#E7E3E3"/>
<stop offset="1" stop-color="white"/>
</radialGradient>
<radialGradient id="paint35_radial_241_16624" cx="0" cy="0" r="1" gradientUnits="userSpaceOnUse" gradientTransform="translate(33.6722 31.0868) scale(114.152 114.152)">
<stop offset="0.819" stop-color="#C7BCBC"/>
<stop offset="0.8625" stop-color="#D0C7C7"/>
<stop offset="0.9377" stop-color="#E7E3E3"/>
<stop offset="1" stop-color="white"/>
</radialGradient>
<radialGradient id="paint36_radial_241_16624" cx="0" cy="0" r="1" gradientUnits="userSpaceOnUse" gradientTransform="translate(33.6719 31.0876) scale(114.152 114.152)">
<stop offset="0.819" stop-color="#C7BCBC"/>
<stop offset="0.8625" stop-color="#D0C7C7"/>
<stop offset="0.9377" stop-color="#E7E3E3"/>
<stop offset="1" stop-color="white"/>
</radialGradient>
<linearGradient id="paint37_linear_241_16624" x1="166.202" y1="150.509" x2="29.8677" y2="66.6545" gradientUnits="userSpaceOnUse">
<stop offset="0.6983" stop-color="#BC9C22"/>
<stop offset="0.7313" stop-color="#C3A638"/>
<stop offset="0.8002" stop-color="#D4BF70"/>
<stop offset="0.898" stop-color="#EFE7C9"/>
<stop offset="0.9538" stop-color="white"/>
</linearGradient>
<radialGradient id="paint38_radial_241_16624" cx="0" cy="0" r="1" gradientUnits="userSpaceOnUse" gradientTransform="translate(145.088 91.08) scale(116.414 116.414)">
<stop offset="0.5611" stop-color="#BC9C22"/>
<stop offset="0.6128" stop-color="#BD9E27"/>
<stop offset="0.6716" stop-color="#C2A434"/>
<stop offset="0.734" stop-color="#C9AE4B"/>
<stop offset="0.7988" stop-color="#D2BD6B"/>
<stop offset="0.8655" stop-color="#DFCF94"/>
<stop offset="0.9328" stop-color="#EEE5C6"/>
<stop offset="1" stop-color="white"/>
</radialGradient>
<linearGradient id="paint39_linear_241_16624" x1="140.274" y1="154.086" x2="220.684" y2="15.1216" gradientUnits="userSpaceOnUse">
<stop offset="0.6005" stop-color="#BC9C22"/>
<stop offset="0.623" stop-color="#BE9F2A"/>
<stop offset="0.6572" stop-color="#C5A93F"/>
<stop offset="0.699" stop-color="#CFB861"/>
<stop offset="0.7467" stop-color="#DECE91"/>
<stop offset="0.7986" stop-color="#F0E9CE"/>
<stop offset="0.8366" stop-color="white"/>
</linearGradient>
<linearGradient id="paint40_linear_241_16624" x1="139.483" y1="128.868" x2="168.008" y2="77.2592" gradientUnits="userSpaceOnUse">
<stop offset="0.7142" stop-color="#7AA35E"/>
<stop offset="1" stop-color="white"/>
</linearGradient>
<linearGradient id="paint41_linear_241_16624" x1="139.483" y1="99.4911" x2="168.008" y2="151.1" gradientUnits="userSpaceOnUse">
<stop offset="0.7142"/>
<stop offset="0.7294" stop-color="#0E0E0E"/>
<stop offset="1" stop-color="white"/>
</linearGradient>
<linearGradient id="paint42_linear_241_16624" x1="106.222" y1="170.321" x2="140.27" y2="82.9" gradientUnits="userSpaceOnUse">
<stop offset="0.7738" stop-color="#F03924"/>
<stop offset="0.8123" stop-color="#F25644"/>
<stop offset="0.8971" stop-color="#F89F95"/>
<stop offset="1" stop-color="white"/>
</linearGradient>
</defs>
</svg>
