<svg width="300" height="300" viewBox="0 0 300 300" fill="none" xmlns="http://www.w3.org/2000/svg">
<path d="M255.206 225.721C273.353 201.009 275.335 169.483 275.955 128.977V3H149.977H24V128.977C24.6194 169.421 26.6013 201.009 44.7485 225.721C66.6118 255.45 102.968 276.942 149.977 298C197.049 276.942 233.405 255.512 255.206 225.721Z" fill="#FFE25C" stroke="#937901" stroke-width="1.23872"/>
<path d="M149.731 6.96484C149.049 8.14162 146.944 9.87582 147.191 12.9726C145.767 11.1145 144.404 10.8668 142.175 10.3094C142.175 10.3094 143.785 13.4681 144.652 15.45C145.148 16.5649 145.829 18.6088 145.829 18.6088H153.571C153.942 17.5559 154.314 16.5029 154.748 15.45C155.553 13.4681 157.225 10.3094 157.225 10.3094C154.995 10.8668 153.633 11.1145 152.208 12.9726C152.518 9.93776 150.474 8.14162 149.731 6.96484ZM50.9432 7.89388C49.3948 7.89388 47.7845 8.38937 46.5458 9.50421C44.7497 11.0526 43.3251 14.7687 44.0064 20.0952C46.6697 14.7068 48.8993 13.0965 50.8813 12.9726C52.12 12.9107 53.7923 13.2204 54.9071 14.1494C57.1987 16.0075 57.5084 17.2462 59.9859 18.0513C61.4723 18.4849 63.0826 18.1752 64.9407 16.1933C58.8091 17.37 58.6233 11.7958 55.031 9.19453C54.04 8.32743 52.5536 7.89388 50.9432 7.89388ZM248.518 7.89388C246.97 7.89388 245.422 8.32743 244.369 9.07066C240.776 11.7339 240.591 17.3081 234.459 16.0694C236.317 18.0513 237.927 18.423 239.414 17.9275C241.891 17.1842 242.201 15.8836 244.492 14.0255C245.607 13.0965 247.28 12.7868 248.518 12.8487C250.5 12.9726 252.73 14.521 255.393 19.9714C256.074 14.6449 254.588 10.9907 252.854 9.38034C251.677 8.4513 250.067 7.95582 248.518 7.89388ZM40.0425 21.0862C36.2645 21.1481 33.5393 22.3868 32.3006 23.8114C30.1328 26.2269 30.3806 30.2527 31.9289 32.2966C34.5922 35.8888 40.1664 36.0747 38.9277 42.2063C40.9096 40.3482 41.2813 38.7379 40.7858 37.2514C40.0425 34.774 38.7419 34.4643 36.8838 32.1727C35.9548 31.0579 35.6451 29.3856 35.769 28.1469C35.8928 26.1649 37.4412 23.9352 42.8916 21.272C41.9006 21.0862 40.9096 21.0862 40.0425 21.0862ZM259.419 21.0862C258.552 21.0862 257.623 21.1481 256.632 21.272C262.02 23.9352 263.631 26.1649 263.754 28.1469C263.816 29.3856 263.507 31.0579 262.578 32.1727C260.72 34.4643 259.481 34.774 258.676 37.2514C258.242 38.7379 258.552 40.3482 260.534 42.2063C259.357 36.0747 264.931 35.8888 267.533 32.2966C269.081 30.1908 269.267 26.2269 267.161 23.8114C265.922 22.3868 263.259 21.1481 259.419 21.0862ZM60.8529 37.7469L60.9768 43.3211C61.4723 44.3121 61.9059 45.2411 62.3394 46.2321C63.1446 48.1521 64.1355 51.4347 64.1355 51.4347C65.2504 49.5147 66.0555 48.4618 65.7459 46.2321C67.6659 48.5237 70.2672 48.276 71.5678 48.5857C71.2581 47.285 71.444 44.6837 69.2143 42.7637C71.444 43.0734 72.4969 42.2682 74.4169 41.1534C74.4169 41.1534 71.1343 40.1005 69.2143 39.3572C68.1614 38.9237 66.3033 37.9947 66.3033 37.9947L60.8529 37.7469ZM238.609 37.7469L233.22 38.0566C233.22 38.0566 231.362 38.9856 230.309 39.4192C228.389 40.1624 225.107 41.2153 225.107 41.2153C227.027 42.3302 228.079 43.1353 230.309 42.8256C228.018 44.7457 228.265 47.347 227.956 48.6476C229.256 48.3379 231.858 48.5237 233.778 46.2941C233.468 48.5237 234.273 49.5766 235.388 51.4967C235.388 51.4967 236.441 48.2141 237.184 46.2941C237.618 45.3031 238.051 44.3121 238.547 43.3831L238.609 37.7469ZM130.593 38.5521C129.54 38.614 128.363 39.0476 127 40.1624C133.504 39.7908 132.884 45.5508 136.229 48.7715C138.149 50.6296 142.237 51.4347 145.086 49.5147C147.129 48.1521 149.173 44.4979 149.173 38.9856C145.643 44.1882 143.166 45.5508 141.122 45.365C139.821 45.2411 138.149 44.7457 137.096 43.6308C134.99 41.4011 134.804 40.0385 132.389 38.9237C131.769 38.676 131.212 38.4901 130.593 38.5521ZM168.931 38.5521C168.311 38.5521 167.692 38.676 167.135 38.9237C164.657 40.0385 164.533 41.4011 162.428 43.6308C161.375 44.7457 159.702 45.2411 158.402 45.365C156.358 45.5508 153.818 44.1882 150.35 38.9856C150.412 44.5598 152.394 48.1521 154.438 49.5147C157.225 51.3728 161.313 50.6296 163.295 48.7715C166.639 45.5508 166.02 39.7908 172.523 40.1624C171.161 39.0476 169.984 38.5521 168.931 38.5521ZM63.2684 99.9924C61.4723 102.16 61.3484 103.894 62.0297 105.381C63.1446 107.858 64.5072 107.982 66.7368 110.088C67.8517 111.141 68.3472 112.813 68.471 114.114C68.6568 116.158 67.2943 118.697 62.0917 122.165C67.6659 122.103 71.2582 120.121 72.6207 118.078C74.4788 115.29 73.7356 111.203 71.8775 109.221C68.6568 105.876 62.8968 106.496 63.2684 99.9924ZM236.193 99.9924C236.565 106.496 230.805 105.876 227.584 109.221C225.726 111.141 224.921 115.229 226.841 118.078C228.203 120.121 231.858 122.165 237.37 122.165C232.167 118.635 230.805 116.158 230.99 114.114C231.114 112.813 231.61 111.141 232.725 110.088C234.954 107.982 236.317 107.796 237.432 105.381C238.113 103.894 237.989 102.16 236.193 99.9924ZM33.4773 115.229C34.0348 117.458 34.2825 118.821 36.1406 120.245C33.0438 119.998 31.3096 122.041 30.1328 122.785C31.3096 123.466 33.0438 125.572 36.1406 125.324C34.2825 126.749 34.0348 128.111 33.4773 130.341C33.4773 130.341 36.6361 128.731 38.618 127.863C39.7329 127.368 41.7767 126.687 41.7767 126.687V118.945C40.7238 118.573 39.6709 118.201 38.618 117.768C36.6361 116.901 33.4773 115.229 33.4773 115.229ZM266.046 115.229C266.046 115.229 262.887 116.901 260.905 117.706C259.853 118.14 258.8 118.511 257.747 118.883V126.625C257.747 126.625 259.791 127.306 260.905 127.802C262.887 128.669 266.046 130.279 266.046 130.279C265.489 128.049 265.241 126.687 263.383 125.262C266.48 125.51 268.214 123.466 269.391 122.723C268.214 122.041 266.48 119.936 263.383 120.183C265.241 118.821 265.427 117.458 266.046 115.229ZM62.0917 123.342C67.2943 126.872 68.6568 129.35 68.471 131.394C68.3472 132.694 67.8517 134.367 66.7368 135.42C64.5072 137.525 63.1446 137.711 62.0297 140.127C61.3484 141.613 61.4723 143.347 63.2684 145.515C62.8968 139.012 68.6568 139.631 71.8775 136.287C73.7356 134.367 74.5408 130.279 72.6207 127.43C71.2582 125.448 67.6659 123.404 62.0917 123.342ZM237.37 123.342C231.796 123.404 228.203 125.386 226.841 127.43C224.983 130.217 225.726 134.305 227.584 136.287C230.805 139.631 236.565 139.012 236.193 145.515C237.989 143.347 238.113 141.613 237.432 140.127C236.317 137.649 234.954 137.525 232.725 135.42C231.61 134.367 231.114 132.694 230.99 131.394C230.805 129.35 232.167 126.872 237.37 123.342ZM83.6453 197.789C83.6453 197.789 82.4066 201.133 81.5395 203.115C81.044 204.106 78.8762 207.265 78.3188 208.256L83.5214 213.954C83.5214 213.954 87.1756 210.981 88.3524 210.548C90.3963 209.866 93.8647 208.937 93.8647 208.937C91.9447 207.699 90.8298 206.832 88.5382 207.017C91.0156 205.159 90.8918 202.434 91.2634 201.072C89.9008 201.319 87.1756 201.01 85.1318 203.239C85.4414 200.948 84.6982 199.833 83.6453 197.789ZM215.878 197.789C214.763 199.833 214.02 200.948 214.454 203.301C212.348 201.01 209.685 201.381 208.322 201.133C208.694 202.434 208.632 205.159 211.047 207.079C208.694 206.893 207.641 207.761 205.721 208.999C205.721 208.999 209.189 209.928 211.233 210.61C212.348 210.981 216.064 214.016 216.064 214.016L221.267 208.318C220.709 207.327 218.479 204.23 218.046 203.177C217.055 201.133 215.878 197.789 215.878 197.789ZM51.3148 206.646C55.96 211.229 51.3148 214.635 51.191 219.281C51.129 222.006 53.2968 225.536 56.5794 226.341C58.9949 226.899 63.0207 225.97 67.1704 222.254C60.9768 223.183 58.2516 222.254 57.0129 220.581C56.2078 219.528 55.4645 217.918 55.5884 216.432C55.8362 213.397 56.7033 212.344 55.8981 209.804C55.4026 208.194 54.102 207.017 51.3148 206.646ZM248.147 206.646C245.36 207.079 244.121 208.194 243.625 209.804C242.82 212.406 243.687 213.397 243.935 216.432C244.059 217.918 243.316 219.528 242.511 220.581C241.272 222.192 238.547 223.183 232.353 222.254C236.503 225.97 240.529 226.899 242.944 226.341C246.227 225.536 248.394 222.006 248.332 219.281C248.147 214.574 243.501 211.167 248.147 206.646ZM67.9136 223.059C63.8259 226.837 62.5252 230.801 62.8968 233.216C63.3923 236.561 66.7368 239.038 69.4001 239.224C74.0453 239.534 77.8853 235.198 81.973 240.277C81.7872 237.49 80.7962 236.127 79.2479 235.446C76.7704 234.393 75.6556 235.198 72.6207 235.136C71.1343 235.136 69.5859 234.207 68.6569 233.34C67.1704 231.916 66.4272 229.19 67.9136 223.059ZM231.548 223.059C233.034 229.19 232.353 231.916 230.805 233.34C229.876 234.207 228.327 235.136 226.841 235.136C223.744 235.198 222.691 234.393 220.214 235.446C218.727 236.065 217.674 237.428 217.488 240.277C221.576 235.198 225.416 239.534 230.061 239.224C232.787 239.038 236.069 236.561 236.565 233.216C236.936 230.801 235.636 226.837 231.548 223.059ZM140.007 237.242C139.449 237.242 138.892 237.366 138.458 237.49C133.999 238.914 132.017 244.365 126.319 241.082C127.496 243.621 128.982 244.55 130.593 244.612C133.318 244.674 133.999 243.559 136.91 242.507C138.335 242.011 140.131 242.135 141.307 242.754C144.652 244.55 148.864 250.558 149.421 254.089C149.545 253.841 149.669 253.531 149.731 253.283C149.855 253.531 149.917 253.841 150.04 254.089C150.598 250.558 154.809 244.55 158.154 242.754C159.269 242.135 161.127 242.011 162.551 242.507C165.4 243.559 166.144 244.674 168.869 244.612C170.479 244.55 171.966 243.683 173.142 241.082C167.506 244.303 165.462 238.852 161.003 237.49C158.402 236.685 154.438 237.799 152.766 240.71C152.084 241.949 150.474 244.488 149.731 247.338C148.988 244.488 147.377 241.949 146.696 240.71C145.333 238.357 142.422 237.18 140.007 237.242ZM145.891 274.465C145.891 274.465 145.209 276.509 144.714 277.624C143.847 279.606 142.237 282.765 142.237 282.765C144.466 282.207 145.829 281.96 147.253 280.102C147.006 283.198 149.049 284.933 149.793 286.109C150.474 284.933 152.58 283.198 152.332 280.102C153.757 281.96 155.119 282.207 157.349 282.765C157.349 282.765 155.677 279.606 154.871 277.624C154.438 276.571 154.066 275.518 153.695 274.465H145.891Z" fill="#E94545" stroke="#800000" stroke-width="0.619358"/>
<path d="M32.2376 8.82227C32.0518 8.82227 31.8041 8.82227 31.6183 8.82227C31.3705 15.3875 37.8118 20.2184 43.6957 21.2714L43.8815 21.0855L44.0673 20.8997C43.0144 15.1397 38.4931 8.94614 32.2376 8.82227ZM267.284 8.82227C261.028 9.00807 256.445 15.2016 255.454 20.8997L255.64 21.0855L255.826 21.2714C261.71 20.2184 268.089 15.4494 267.903 8.82227C267.655 8.82227 267.47 8.82227 267.284 8.82227ZM149.482 38.7992C145.89 43.8779 144.713 52.1773 149.792 56.8225C154.808 52.1773 153.632 43.8779 150.101 38.7992H149.792H149.482ZM71.1333 119.378C67.8507 119.501 64.5061 120.678 61.9668 122.474V122.784V123.094C67.0455 126.686 75.3449 127.863 79.9901 122.784C77.6365 120.245 74.4159 119.316 71.1333 119.378ZM228.326 119.378C225.044 119.254 221.823 120.245 219.469 122.722C224.115 127.739 232.414 126.562 237.493 123.032V122.722V122.412C234.953 120.678 231.671 119.501 228.326 119.378ZM67.4791 222.315C61.2855 223.12 54.4106 227.827 54.3487 234.702C61.1616 235.259 66.4881 228.818 67.8507 222.748L67.6649 222.563L67.4791 222.315ZM232.042 222.315L231.857 222.501L231.671 222.686C233.033 228.756 238.36 235.197 245.173 234.64C245.111 227.827 238.174 223.12 232.042 222.315ZM149.73 236.25C144.713 240.896 145.89 249.195 149.42 254.274H149.73H150.039C153.57 249.195 154.747 240.896 149.73 236.25Z" fill="#E94545" stroke="#800000" stroke-width="0.619358"/>
<path d="M41.2175 18.2363L41.1555 21.2712C40.7839 56.3888 40.7839 91.4444 41.2794 126.562C41.8987 166.572 44.3142 193.7 58.6833 213.272C76.2731 237.241 106.931 256.689 148.366 276.075L149.667 276.694L150.968 276.075C192.403 256.751 223.061 237.241 240.651 213.272C255.02 193.7 257.435 166.634 258.055 126.562C258.55 91.4444 258.55 56.3268 258.178 21.2712L258.116 18.2363H255.082H44.3142H41.2175ZM47.3491 24.4299H252.109C252.418 58.4326 252.418 92.4973 251.923 126.5C251.304 166.325 248.64 192.028 235.758 209.618C219.469 231.853 190.111 250.867 149.729 269.819C109.347 250.867 80.0512 231.853 63.7001 209.618C50.7556 192.028 48.0923 166.325 47.5349 126.5C47.0394 92.4973 47.0394 58.4326 47.3491 24.4299ZM54.8433 31.9861V35.0829C54.6575 65.4933 54.6575 95.9657 55.0911 126.438C55.7104 166.139 58.4356 189.674 69.8318 205.158C84.3867 225.04 110.895 242.815 148.428 260.901L149.791 261.582L151.153 260.901C188.625 242.877 215.133 225.04 229.75 205.158C241.146 189.674 243.871 166.139 244.491 126.438C244.924 95.9657 244.986 65.5553 244.738 35.0829V31.9861H241.642H57.9401H54.8433ZM61.0369 38.1796H238.421C238.607 67.5372 238.607 96.9567 238.173 126.314C237.554 165.767 234.519 188.064 224.671 201.442C211.355 219.589 186.085 236.993 149.729 254.583C113.373 236.993 88.1028 219.589 74.7866 201.442C64.9389 188.002 61.8421 165.705 61.2846 126.314C60.8511 96.9567 60.8511 67.5372 61.0369 38.1796Z" fill="#E94545" stroke="#800000" stroke-width="0.619358"/>
<path d="M102.596 174.377L105.755 181.81C105.755 181.81 110.833 181.19 113.311 180.447C116.717 179.394 122.044 176.235 122.044 176.235C124.459 174.935 119.071 171.095 117.213 169.051C115.788 167.44 114.797 165.397 114.797 165.397C113.373 163.043 118.389 159.513 121.982 157.097C126.627 154 132.015 151.089 136.846 150.222C145.146 148.736 164.779 146.32 164.779 146.32L166.761 153.629L162.24 164.344L155.427 169.113C156.728 170.599 145.579 169.732 136.97 169.484C134.245 169.422 137.466 177.598 137.466 177.598C137.466 177.598 139.571 179.208 140.439 180.509C141.244 181.81 141.677 183.234 141.058 184.597C140.377 185.959 138.457 186.579 136.784 186.888C135.174 187.198 132.882 186.207 132.882 186.207C133.564 187.384 134.245 188.622 134.059 189.923C133.811 192.215 129.104 195.002 129.104 195.002C129.104 195.002 130.033 192.71 129.724 191.657C129.352 190.357 127.928 188.808 127.928 188.808C127.928 188.808 127.742 190.666 127.37 191.595C126.379 194.135 120.929 196.612 120.929 196.612C120.929 196.612 122.106 194.011 122.106 192.648C122.106 191.286 120.619 189.985 120.619 189.985C120.619 189.985 120.124 192.153 119.071 193.453C117.832 195.064 113.992 196.798 113.992 196.798C113.992 196.798 114.797 194.692 114.859 193.515C114.921 192.462 114.364 190.295 114.364 190.295C114.364 190.295 112.196 193.825 110.833 195.002C109.223 196.488 105.755 197.541 105.755 197.541C105.755 197.541 107.798 193.887 107.117 192.153C106.436 190.481 101.976 189.49 101.976 189.49C101.976 189.49 97.1455 191.781 94.1106 192.277C92.5622 192.524 90.5803 192.71 89.5274 191.595C88.1029 190.047 87.9171 188.684 88.6603 186.702C89.0319 185.711 91.5713 184.225 91.5713 184.225C91.5713 184.225 89.6513 183.11 89.1558 182.429C88.1648 181.128 88.2268 179.58 88.908 178.093C89.6513 176.545 91.1377 176.049 92.81 176.049C94.0487 176.049 96.1545 177.598 96.1545 177.598C96.1545 177.598 96.7119 173.51 98.3223 172.767C100.056 172.086 102.596 174.377 102.596 174.377Z" fill="#CD0707" stroke="#800000" stroke-width="0.619358"/>
<path d="M154.683 165.458L152.825 160.689C152.206 159.078 155.426 157.901 155.302 156.229C155.117 154.433 154.126 152.575 152.515 151.77C150.409 150.717 141.181 152.699 138.827 153.07C135.235 153.628 131.891 155.176 128.67 156.91C125.202 158.769 119.132 163.785 119.132 163.785C119.132 163.785 119.565 165.953 120.123 166.882C122.105 170.103 126.193 171.465 126.069 175.243C126.007 177.535 124.458 178.464 122.972 179.579C119.751 181.932 116.531 182.8 112.629 183.605C109.718 184.224 104.701 183.976 104.701 183.976C104.701 183.976 102.905 178.464 101.047 176.358C100.613 175.863 100.056 175.058 99.4982 175.305C98.0118 175.987 98.8169 180.198 98.8169 180.198C98.8169 180.198 95.5343 178.588 93.8001 178.526C92.5614 178.464 91.6324 178.278 91.1369 179.331C90.8272 179.951 90.7033 180.818 91.1369 181.313C92.2517 182.428 96.2156 184.348 96.2156 184.348C96.2156 184.348 92.004 185.896 91.1988 187.631C90.7653 188.498 90.2698 189.365 91.013 190.046C91.6943 190.604 92.995 190.48 93.8621 190.356C96.8969 189.736 102.533 187.259 102.533 187.259L109.47 189.613L109.903 192.647L114.92 186.702L117.15 192.152L119.503 187.011L124.273 190.913L126.688 185.525L131.147 189.241L130.28 183.481C130.28 183.481 133.996 184.348 135.855 184.348C136.536 184.348 137.527 184.596 137.898 184.038C138.394 183.419 137.898 182.428 137.527 181.685C136.969 180.508 134.864 178.836 134.864 178.836C134.864 178.836 132.386 173.881 132.758 171.28C133.005 169.731 133.315 167.749 134.864 167.44C138.951 166.696 155.24 168.926 154.683 165.458Z" fill="#E94545"/>
<path d="M140.625 154.557C140.625 154.557 134.679 155.733 132.016 156.972C127.928 158.892 121.363 164.9 121.363 164.9L126.814 172.332L124.584 165.024C124.584 165.024 129.539 162.299 131.768 160.812C135.051 158.521 140.625 154.557 140.625 154.557Z" fill="#EE6C6C"/>
<path d="M140.069 120.058C140.069 120.058 136.29 119.191 134.99 117.891C133.565 116.466 132.45 112.44 132.45 112.44C132.45 112.44 128.177 112.255 126.319 111.387C124.399 110.458 122.045 107.362 122.045 107.362C124.027 107.486 125.514 107.486 127.619 106.247C127.619 106.247 123.965 105.256 122.045 103.893C120.373 102.716 117.896 99.5578 117.896 99.5578C119.692 99.4958 121.488 99.9294 123.16 98.4429C123.16 98.4429 119.568 97.6997 118.081 96.7087C116.595 95.7177 114.489 92.6209 114.489 92.6209C116.471 92.8687 118.453 92.8687 120.063 91.4442C120.063 91.4442 116.409 90.7629 114.985 89.7719C113.003 88.4093 110.339 84.6312 110.339 84.6312C112.445 84.9409 114.489 85.1887 116.285 84.2596L115.604 81.4725C114.799 78.066 111.702 78.5615 109.906 77.2609C108.172 76.0222 107.49 73.4828 107.676 72.1821C107.924 69.8905 109.596 66.7318 114.117 68.466C112.507 64.1305 115.418 61.9008 118.081 61.3434C120.621 60.786 122.665 61.5292 123.47 66.1124C123.47 66.1124 126.009 64.6879 127.186 64.6879C128.858 64.626 130.592 65.617 130.902 67.4131C131.026 68.1563 130.84 69.5808 130.283 70.3241C129.416 71.5009 127.867 72.1202 127 74.0402C126.071 76.146 127.248 80.4815 127.248 80.4815C127.248 80.4815 134.742 90.1435 138.087 95.2842C139.883 98.0094 142.918 103.769 142.918 103.769L143.165 103.707L152.022 105.627L149.792 122.102L140.069 120.058Z" fill="#CD0707" stroke="#800000" stroke-width="0.619358"/>
<path d="M133.997 110.334C133.997 110.334 135.793 114.732 137.032 115.785C138.271 116.776 140.934 116.652 140.934 116.652L140.439 114.484L139.324 114.236C137.094 109.777 135.484 104.76 137.218 99.8052C137.218 99.8052 134.679 95.0981 133.006 92.6826C130.839 89.5858 124.893 82.3394 124.893 82.3394C124.893 82.3394 124.088 77.7561 124.397 74.7832C124.521 73.4825 125.017 72.1819 125.822 71.129C126.627 70.0761 128.299 70.0141 128.857 68.7754C129.042 68.4038 128.981 67.8464 128.795 67.4748C128.547 67.0412 128.113 66.6696 127.68 66.6077C125.946 66.3599 122.663 68.5277 122.663 68.5277C122.663 68.5277 121.548 64.8115 120.186 63.6967C119.628 63.2632 118.761 63.0773 118.08 63.2632C117.399 63.387 116.717 63.8206 116.408 64.5019C115.417 66.5457 116.408 71.5006 116.408 71.5006C116.408 71.5006 112.568 69.5187 110.833 70.2619C110.152 70.5716 109.657 71.4387 109.595 72.1819C109.533 73.049 109.904 73.978 110.462 74.5974C111.948 76.3316 116.284 77.6322 116.284 77.6322L120.062 86.3652L114.302 86.8607C116.16 88.5329 117.708 89.3381 123.344 90.5768C121.672 92.9304 119.814 93.4878 118.142 94.3549L127.37 97.9472C126.07 100.363 123.53 100.053 122.168 100.92C124.273 103.212 127.928 104.636 131.706 105.999C130.777 107.981 128.237 107.981 126.131 108.6C127.432 109.529 129.971 109.653 133.997 110.334Z" fill="#E94545"/>
<path d="M135.979 103.336C133.564 92.9922 127.247 86.2412 120.434 79.4902C124.769 90.0193 130.529 97.1419 135.979 103.336Z" fill="#EE6C6C"/>
<path d="M168.558 161.37C168.558 161.37 164.037 164.033 161.126 162.794C159.887 162.237 158.71 161.122 158.4 159.759C158.091 158.459 158.648 157.034 159.391 155.919C159.887 155.238 163.479 153.07 163.479 153.07C163.479 153.07 162.488 149.788 161.373 147.93C159.639 145.143 151.34 142.294 151.34 142.294C154.746 141.241 158.648 141.117 162.612 142.046L169.363 150.283L168.558 161.37Z" fill="#E94545" stroke="#800000" stroke-width="0.619358"/>
<path d="M169.116 215.503C169.116 215.503 170.602 215.131 171.16 215.503C172.646 216.432 175.061 218.661 175.061 218.661C175.061 218.661 175.681 215.874 175 213.645C174.628 212.344 172.398 210.548 172.398 210.548C172.398 210.548 175.247 209.805 176.548 210.734C177.849 211.663 179.459 214.883 179.459 214.883C179.459 214.883 180.078 211.353 179.645 209.123C179.335 207.451 176.486 205.035 176.486 205.035C176.486 205.035 178.84 204.54 179.831 205.035C181.565 205.841 183.547 209.495 183.547 209.495C183.547 209.495 185.033 204.726 183.918 202.063C183.423 200.824 180.76 199.647 180.76 199.647C180.76 199.647 184.414 198.656 185.776 199.647C187.449 200.824 188.192 203.735 188.192 203.735C188.192 203.735 189.926 200.205 189.307 197.603C188.935 195.993 186.334 193.701 186.334 193.701C186.334 193.701 188.316 192.029 188.935 190.914C189.431 189.985 190.112 188.746 189.678 187.755C189.245 186.702 187.882 186.269 186.767 186.083C185.405 185.897 182.803 186.95 182.803 186.95L181.193 185.526C178.344 183.048 176.796 178.961 176.362 174.935C175.929 170.723 179.335 162.857 179.335 162.857C179.335 162.857 180.883 167.998 183.361 170.847C185.095 172.829 187.511 174.377 190.112 174.935C193.394 175.616 195.067 175.802 198.04 174.315C200.765 172.953 203.676 170.723 204.357 167.812C207.02 156.23 203.552 137.464 203.738 138.888C203.738 138.888 205.596 136.473 206.153 134.8C206.834 132.818 207.392 127.864 207.392 127.864C207.825 126.191 209.25 124.705 210.86 123.962C211.851 123.528 213.09 123.59 214.143 123.962C215.815 124.643 217.983 127.616 217.983 127.616C217.983 127.616 217.797 123.28 216.558 121.732C215.258 120.122 213.09 119.007 211.046 118.883C207.887 118.697 204.791 119.874 204.791 119.874C204.791 119.874 208.197 116.158 209.807 112.503C211.108 109.592 211.294 104.142 211.294 104.142C211.294 100.178 209.374 95.7189 206.711 92.5602C203.304 88.5963 197.358 85.8711 197.358 85.8711C197.358 85.8711 199.526 89.4014 200.951 92.8698C201.942 95.2853 202.251 98.3821 202.251 98.3821C202.251 98.3821 200.269 96.3382 198.473 94.9137C196.058 92.9318 191.289 92.8079 191.289 92.8079C191.289 92.8079 195.438 96.0905 196.801 99.8686C197.42 101.603 197.358 103.523 197.111 105.319C196.739 108.168 195.191 112.318 194.571 115.105C193.642 119.007 192.465 121.36 192.713 125.386C192.961 129.412 195.748 137.154 195.748 137.154C195.748 137.154 191.103 137.773 189.369 138.888C186.953 140.498 186.52 145.577 186.52 145.577C186.52 145.577 189.183 142.852 190.855 142.48C192.094 142.171 194.509 143.719 194.509 143.719C194.509 143.719 189.74 145.639 188.44 147.683C187.139 149.665 187.201 153.691 187.201 153.691C187.201 153.691 188.935 151.213 190.545 150.408C191.908 149.727 195.129 150.408 195.129 150.408C195.129 150.408 190.731 153.071 189.678 155.301C188.687 157.283 189.059 161.99 189.059 161.99C189.059 161.99 191.041 158.708 192.651 157.84C193.828 157.221 195.314 156.973 196.615 157.283C197.792 157.531 198.721 157.902 199.402 158.955C200.641 160.813 200.393 163.291 199.402 165.644C198.659 167.379 198.102 168.865 196.367 169.608C194.2 170.475 191.474 170.661 189.369 169.608C186.767 168.308 186.52 167.131 185.405 164.406C183.237 159.265 183.485 152.204 181.441 147.064C179.769 142.79 175.743 139.941 174.442 135.482C173.079 130.898 174.504 125.882 173.823 121.174C173.389 118.263 171.779 113.742 171.407 110.831C171.098 108.54 171.407 105.629 171.407 105.629L150.906 104.576L139.882 114.362C139.882 114.362 135.67 115.538 133.503 115.662C128.238 115.972 122.168 114.362 116.966 114.176C111.33 113.928 100.8 113.556 100.8 113.556L98.7566 109.035C98.0134 107.301 97.9514 105.257 96.2172 104.452C94.9166 103.832 92.9346 103.523 91.8198 104.452C90.7669 105.381 91.2004 108.663 91.2004 108.663C91.2004 108.663 87.794 107.92 86.3694 108.663C84.821 109.469 83.892 110.46 83.8301 112.194C83.8301 114.238 84.9449 116.467 86.7411 117.458C87.5462 117.892 89.4662 117.892 89.4662 117.892C89.4662 117.892 87.794 118.697 87.3604 119.998C86.803 121.608 87.3604 123.838 88.5991 125.014C90.0856 126.439 91.6959 126.315 93.6159 125.634C95.2262 125.076 97.1463 122.723 97.1463 122.723C97.1463 122.723 100.181 122.351 101.358 123.156C102.287 123.776 102.72 125.014 103.03 126.067C103.216 126.873 103.34 127.802 103.03 128.607C102.163 130.713 98.6327 133.933 98.6327 133.933C98.6327 133.933 102.039 134.181 103.588 133.624C106.87 132.509 111.33 128.297 111.33 128.297C111.33 128.297 111.082 130.279 110.215 131.394C109.162 132.818 106.375 135.11 106.375 135.11C106.375 135.11 111.577 134.553 113.993 133.376C116.161 132.323 119.257 128.483 119.257 128.483C119.257 128.483 119.195 130.341 118.7 131.332C118.142 132.447 116.966 135.048 116.966 135.048C116.966 135.048 121.673 133.995 123.717 132.818C125.327 131.889 127.247 128.916 127.247 128.916C127.247 128.916 127.309 130.96 126.999 132.013C126.69 133.004 125.327 134.986 125.327 134.986C125.327 134.986 129.786 134.181 131.706 133.128C133.688 132.075 136.414 128.421 136.414 128.421C136.414 128.421 139.077 127.74 140.749 128.731C144.094 130.651 145.58 135.11 149.544 137.216C155.923 140.56 164.409 142.542 167.134 149.913C168.063 152.452 168.125 154.186 166.824 156.602C165.214 159.513 158.525 163.043 156.852 166.264C156.852 166.264 154.189 169.918 153.508 173.51C153.074 175.802 153.446 178.341 154.437 180.447C155.676 183.172 158.215 185.154 160.507 187.136C163.232 189.428 169.611 192.896 169.611 192.896L170.664 195.064C170.664 195.064 166.638 197.789 165.152 199.771C163.294 202.125 160.321 207.389 160.321 207.389C160.321 207.389 158.463 205.469 156.419 204.664C154.808 204.106 152.579 203.487 151.34 204.664C150.163 205.779 150.101 207.141 150.659 208.628C151.216 209.99 153.074 211.043 153.074 211.043C153.074 211.043 151.464 212.53 151.092 213.459C150.597 214.636 150.597 216.184 151.34 217.237C152.269 218.599 153.879 218.414 155.552 218.537C156.728 218.599 159.082 218.104 159.082 218.104C159.082 218.104 158.525 219.467 158.648 220.334C158.772 221.634 159.082 223.183 160.197 223.864C161.683 224.793 164.037 224.669 165.523 223.616C168.125 221.882 169.116 215.503 169.116 215.503Z" fill="#CD0707"/>
<path d="M197.669 86.1797L200.58 92.4352L202.19 98.2572L197.545 94.2313L191.104 92.9307L195.315 97.452L197.111 102.469V106.495L195.006 114.237L192.9 122.598V128.234L195.811 136.162L195.439 135.728L198.66 140.497C198.66 140.497 202.376 135.295 203.243 132.26C203.924 129.844 203.739 127.243 204.853 124.951C205.597 123.465 207.145 122.35 208.755 121.731C210.613 121.05 211.542 120.678 213.339 121.483C215.197 122.288 217.426 126.066 217.426 126.066L216.869 121.917L212.843 119.191H205.597L209.127 114.175L211.542 105.442L210.242 98.0094L204.296 89.9578L197.669 86.1797ZM94.4839 106.68C94.1123 106.68 93.7406 106.742 93.5548 106.99C92.5639 107.981 93.5548 111.388 93.5548 111.388C93.5548 111.388 89.8387 110.025 87.9806 110.954C87.2374 111.326 86.4941 112.069 86.4941 112.936C86.4941 113.803 87.2993 114.546 87.9806 115.042C89.8387 116.404 94.6077 117.148 94.6077 117.148C94.6077 117.148 90.5819 118.572 89.7767 120.306C89.467 121.05 89.2193 122.164 89.7767 122.722C90.52 123.527 92.0064 123.217 93.0593 122.846C94.6077 122.35 96.9613 119.811 96.9613 119.811C96.9613 119.811 101.854 119.873 103.588 121.297C104.765 122.288 105.199 124.022 105.57 125.509C105.818 126.562 105.632 127.615 105.57 128.668C105.57 129.225 105.446 130.34 105.446 130.34L114.056 123.403C115.17 126.128 114.117 128.853 112.879 131.517L121.178 124.27C123.036 126.686 122.045 129.101 121.178 131.517L128.734 124.89C130.53 127.243 130.035 129.225 129.478 131.207C129.478 131.207 131.521 130.216 132.512 129.535C134.309 128.296 137.467 125.137 137.467 125.137C137.467 125.137 140.564 125.942 141.989 126.624C143.661 127.429 146.634 129.782 146.634 129.782C146.634 129.782 147.749 126.5 147.253 124.951C146.634 122.97 143.971 122.164 143.041 120.306C142.67 119.563 142.608 117.891 142.608 117.891C142.608 117.891 140.626 119.315 139.449 119.377C137.715 119.563 136.105 118.077 134.309 118.015C132.76 117.953 129.787 118.758 129.787 118.758C129.787 118.758 120.001 116.962 116.099 116.528C110.092 115.847 99.2529 116.528 99.2529 116.528L96.4039 108.724C96.4039 108.724 96.4039 107.424 95.6606 106.928C95.2271 106.804 94.8555 106.68 94.4839 106.68ZM165.648 123.279C165.648 123.279 165.029 125.075 164.038 126.004C160.569 129.225 150.722 131.641 150.722 131.641C150.722 131.641 151.527 133.622 152.332 134.366C155.862 137.524 161.436 137.462 165.214 140.25C167.32 141.798 169.364 143.718 170.417 146.134C171.78 149.292 172.337 153.07 171.346 156.291C170.169 159.945 166.205 162.051 163.852 165.086C161.87 167.749 159.393 170.288 158.402 173.447C157.782 175.491 157.72 176.978 158.649 178.898C161.189 184.1 168.559 185.896 172.213 190.418C173.452 191.904 174.691 195.62 174.691 195.62L166.577 202.185L161.808 210.547C161.808 210.547 158.154 207.388 155.924 206.707C154.995 206.397 153.694 206.025 153.013 206.707C152.703 207.016 152.889 207.636 153.013 208.069C153.509 209.556 155.924 211.662 155.924 211.662C155.924 211.662 153.323 214.449 154.128 215.749C154.685 216.74 156.42 216.059 157.534 215.997C159.207 215.873 162.489 215.068 162.489 215.068V218.66C162.489 219.589 161.746 220.828 162.489 221.385C163.233 221.943 164.471 221.138 165.214 220.456C167.134 218.66 168.373 213.21 168.373 213.21L172.213 212.962L168.125 208.689H176.239L171.965 202.805L179.893 202.557L175.806 198.965L185.529 196.673L182.804 193.762C182.804 193.762 186.83 191.037 185.963 189.489C185.344 188.374 182.123 189.736 182.123 189.736L179.398 188.374C179.398 188.374 173.947 182.304 173.08 178.402C172.399 175.367 172.461 172.147 173.08 169.112C173.824 165.21 177.726 160.998 178.716 157.096C179.398 154.433 179.522 151.646 178.964 148.983C178.407 146.443 176.053 144.647 174.691 142.417C173.328 140.25 172.275 138.268 171.532 135.852C170.479 132.446 170.851 125.199 170.851 125.199L165.648 123.279Z" fill="#E94545"/>
<path d="M194.446 92.9297L191.721 93.1155L194.136 95.7168L197.171 100.548L197.481 105.193L195.375 112.935L192.65 120.987V124.207C194.322 129.224 195.994 130.525 197.667 131.268C197.667 131.268 196.366 128.109 196.242 126.437C195.932 123.774 196.242 120.987 196.861 118.385C197.419 116.094 198.843 114.112 199.587 111.944C200.206 110.148 201.135 108.352 201.197 106.494C201.321 103.335 200.64 100.052 199.091 97.3271C198.1 95.4071 194.446 92.9297 194.446 92.9297ZM108.727 117.209C106.993 117.209 105.197 117.332 103.4 117.456C114.363 120.429 123.53 121.234 131.767 120.677C123.901 118.199 116.407 117.147 108.727 117.209ZM162.859 129.162C162.859 129.162 160.753 130.772 159.576 131.268C157.718 132.073 153.754 132.692 153.754 132.692C153.754 132.692 155.241 134.055 156.108 134.551C158.833 136.037 162.487 135.727 164.965 137.585L170.539 141.797L162.859 129.162ZM169.424 163.041C169.424 163.041 163.23 167.438 161.496 171.65C160.505 174.066 160.505 176.481 161.496 178.897C163.974 184.842 173.388 188.001 173.388 188.001C173.388 188.001 166.637 183.975 164.965 178.649C164.345 176.667 164.593 174.437 164.965 172.331C165.646 168.615 169.424 163.041 169.424 163.041Z" fill="#EE6C6C"/>
<path d="M169.116 215.503C169.116 215.503 170.602 215.131 171.159 215.503C172.646 216.432 175.061 218.661 175.061 218.661C175.061 218.661 175.681 215.874 175 213.645C174.628 212.344 172.398 210.548 172.398 210.548C172.398 210.548 175.247 209.805 176.548 210.734C177.849 211.663 179.459 214.883 179.459 214.883C179.459 214.883 180.078 211.353 179.645 209.123C179.335 207.451 176.486 205.035 176.486 205.035C176.486 205.035 178.84 204.54 179.831 205.035C181.565 205.841 183.547 209.495 183.547 209.495C183.547 209.495 185.033 204.726 183.918 202.063C183.423 200.824 180.76 199.647 180.76 199.647C180.76 199.647 184.414 198.656 185.776 199.647C187.449 200.824 188.192 203.735 188.192 203.735C188.192 203.735 189.926 200.205 189.307 197.603C188.935 195.993 186.334 193.701 186.334 193.701C186.334 193.701 188.316 192.029 188.935 190.914C189.431 189.985 190.112 188.746 189.678 187.755C189.245 186.702 187.882 186.269 186.767 186.083C185.405 185.897 182.803 186.95 182.803 186.95L181.193 185.526C178.344 183.048 176.796 178.961 176.362 174.935C175.929 170.723 179.335 162.857 179.335 162.857C179.335 162.857 180.883 167.998 183.361 170.847C185.095 172.829 187.511 174.377 190.112 174.935C193.394 175.616 195.067 175.802 198.04 174.315C200.765 172.953 203.676 170.723 204.357 167.812C207.02 156.23 203.552 137.464 203.738 138.888C203.738 138.888 205.596 136.473 206.153 134.8C206.834 132.818 207.392 127.864 207.392 127.864C207.825 126.191 209.25 124.705 210.86 123.962C211.851 123.528 213.09 123.59 214.143 123.962C215.815 124.643 217.983 127.616 217.983 127.616C217.983 127.616 217.797 123.28 216.558 121.732C215.258 120.122 213.09 119.007 211.046 118.883C207.887 118.697 204.791 119.874 204.791 119.874C204.791 119.874 208.197 116.158 209.807 112.503C211.108 109.592 211.294 104.142 211.294 104.142C211.294 100.178 209.374 95.7189 206.711 92.5602C203.304 88.5963 197.358 85.8711 197.358 85.8711C197.358 85.8711 199.526 89.4014 200.951 92.8698C201.942 95.2853 202.251 98.3821 202.251 98.3821C202.251 98.3821 200.269 96.3382 198.473 94.9137C196.058 92.9318 191.289 92.8079 191.289 92.8079C191.289 92.8079 195.438 96.0905 196.801 99.8686C197.42 101.603 197.358 103.523 197.111 105.319C196.739 108.168 195.191 112.318 194.571 115.105C193.642 119.007 192.465 121.36 192.713 125.386C192.961 129.412 195.748 137.154 195.748 137.154C195.748 137.154 191.103 137.773 189.369 138.888C186.953 140.498 186.52 145.577 186.52 145.577C186.52 145.577 189.183 142.852 190.855 142.48C192.094 142.171 194.509 143.719 194.509 143.719C194.509 143.719 189.74 145.639 188.44 147.683C187.139 149.665 187.201 153.691 187.201 153.691C187.201 153.691 188.935 151.213 190.545 150.408C191.908 149.727 195.129 150.408 195.129 150.408C195.129 150.408 190.731 153.071 189.678 155.301C188.687 157.283 189.059 161.99 189.059 161.99C189.059 161.99 191.041 158.708 192.651 157.84C193.828 157.221 195.314 156.973 196.615 157.283C197.792 157.531 198.721 157.902 199.402 158.955C200.641 160.813 200.393 163.291 199.402 165.644C198.659 167.379 198.102 168.865 196.367 169.608C194.2 170.475 191.474 170.661 189.369 169.608C186.767 168.308 186.52 167.131 185.405 164.406C183.237 159.265 183.485 152.204 181.441 147.064C179.769 142.79 175.743 139.941 174.442 135.482C173.079 130.898 174.504 125.882 173.823 121.174C173.389 118.263 171.779 113.742 171.407 110.831C171.098 108.54 171.407 105.629 171.407 105.629L150.906 104.576L139.882 114.362C139.882 114.362 135.67 115.538 133.503 115.662C128.238 115.972 122.168 114.362 116.966 114.176C111.33 113.928 100.8 113.556 100.8 113.556L98.7566 109.035C98.0134 107.301 97.9514 105.257 96.2172 104.452C94.9166 103.832 92.9346 103.523 91.8198 104.452C90.7669 105.381 91.2004 108.663 91.2004 108.663C91.2004 108.663 87.794 107.92 86.3694 108.663C84.821 109.469 83.892 110.46 83.8301 112.194C83.8301 114.238 84.9449 116.467 86.7411 117.458C87.5462 117.892 89.4662 117.892 89.4662 117.892C89.4662 117.892 87.794 118.697 87.3604 119.998C86.803 121.608 87.3604 123.838 88.5991 125.014C90.0856 126.439 91.6959 126.315 93.6159 125.634C95.2263 125.076 97.1463 122.723 97.1463 122.723C97.1463 122.723 100.181 122.351 101.358 123.156C102.287 123.776 102.72 125.014 103.03 126.067C103.216 126.873 103.34 127.802 103.03 128.607C102.163 130.713 98.6327 133.933 98.6327 133.933C98.6327 133.933 102.039 134.181 103.588 133.624C106.87 132.509 111.33 128.297 111.33 128.297C111.33 128.297 111.082 130.279 110.215 131.394C109.162 132.818 106.375 135.11 106.375 135.11C106.375 135.11 111.577 134.553 113.993 133.376C116.161 132.323 119.257 128.483 119.257 128.483C119.257 128.483 119.195 130.341 118.7 131.332C118.142 132.447 116.966 135.048 116.966 135.048C116.966 135.048 121.673 133.995 123.717 132.818C125.327 131.889 127.247 128.916 127.247 128.916C127.247 128.916 127.309 130.96 126.999 132.013C126.69 133.004 125.327 134.986 125.327 134.986C125.327 134.986 129.786 134.181 131.706 133.128C133.688 132.075 136.414 128.421 136.414 128.421C136.414 128.421 139.077 127.74 140.749 128.731C144.094 130.651 145.58 135.11 149.544 137.216C155.923 140.56 164.408 142.542 167.134 149.913C168.063 152.452 168.125 154.186 166.824 156.602C165.214 159.513 158.525 163.043 156.852 166.264C156.852 166.264 154.189 169.918 153.508 173.51C153.074 175.802 153.446 178.341 154.437 180.447C155.676 183.172 158.215 185.154 160.507 187.136C163.232 189.428 169.611 192.896 169.611 192.896L170.664 195.064C170.664 195.064 166.638 197.789 165.152 199.771C163.294 202.125 160.321 207.389 160.321 207.389C160.321 207.389 158.463 205.469 156.419 204.664C154.808 204.106 152.579 203.487 151.34 204.664C150.163 205.779 150.101 207.141 150.659 208.628C151.216 209.99 153.074 211.043 153.074 211.043C153.074 211.043 151.464 212.53 151.092 213.459C150.597 214.636 150.597 216.184 151.34 217.237C152.269 218.599 153.879 218.414 155.552 218.537C156.728 218.599 159.082 218.104 159.082 218.104C159.082 218.104 158.525 219.467 158.648 220.334C158.772 221.634 159.082 223.183 160.197 223.864C161.683 224.793 164.037 224.669 165.523 223.616C168.125 221.882 169.116 215.503 169.116 215.503Z" stroke="#800000" stroke-width="0.619358"/>
<path d="M166.701 83.3937C166.701 83.3937 159.268 81.7833 156.296 81.102C152.765 80.2969 147.686 81.9072 144.28 80.8543C142.236 80.2349 141.741 79.7394 140.75 77.8814C140.13 76.7046 139.821 74.7227 139.821 74.7227C139.821 74.7227 138.148 76.8285 138.396 78.6865C138.644 80.2969 139.759 81.8453 141.183 82.6504C145.147 84.7563 152.022 83.3317 156.419 84.3846C159.454 85.0659 163.17 89.4014 163.17 89.4014L166.701 83.3937Z" fill="#377BC8" stroke="#2C5AA0" stroke-width="0.619358"/>
<path d="M146.88 77.0137C147.438 80.4821 148.181 80.8537 148.924 81.9685L148.986 77.0756L146.88 77.0137ZM148.862 82.3402C148.119 83.455 147.376 83.8266 146.818 87.295L148.862 87.2331V82.3402Z" fill="white"/>
<path d="M134.865 115.476L138.458 113.927C139.449 113.494 139.077 111.76 139.51 110.769C139.944 109.654 141.926 108.105 141.926 108.105L137.219 107.982C137.219 107.982 140.625 106.371 140.873 104.018C140.935 103.46 140.687 101.602 140.749 100.983C140.749 98.939 142.545 97.2667 144.218 96.1519C145.27 95.4706 148.181 95.1609 148.739 94.046L149.792 92.0641C149.792 92.0641 148.305 93.0551 146.943 93.2409C145.58 93.4267 143.474 92.8073 143.474 92.8073L146.509 89.9583C147.005 89.5247 146.2 87.5428 146.385 86.9234C146.695 85.7467 149.11 85.2512 149.11 85.2512C149.11 85.2512 154.189 86.1802 156.419 84.8796C158.525 83.6408 159.578 81.2253 158.896 79.0576L158.401 77.6331C157.781 75.8369 151.154 78.2524 149.296 78.5002C147.624 78.7479 146.014 77.9428 145.147 76.5182C143.536 73.855 144.899 71.1918 145.147 68.5285L155.242 68.095C159.02 63.202 169.549 64.8124 177.539 65.9272C179.583 66.2369 178.158 64.5646 181.936 63.5117C181.936 63.5117 183.051 64.5027 182.742 66.4227C182.618 67.2279 180.636 68.9001 180.698 69.5195C180.76 69.953 181.936 68.7763 183.237 68.9001C184.909 69.024 186.705 70.4485 186.705 70.8201C186.52 71.9969 186.272 74.1647 185.157 75.2176C184.29 76.0227 182.68 75.8989 181.998 76.5182C181.131 77.1995 178.468 77.3853 178.468 77.3853C178.468 77.3853 181.874 79.4911 182.804 81.1015C184.538 84.1983 182.494 87.6667 184.166 90.7635C184.785 91.8783 186.148 92.5596 186.148 92.5596C186.148 92.5596 184.6 93.8602 183.175 93.5506C181.874 93.2409 180.45 92.7454 180.45 92.7454C180.45 92.7454 183.051 95.7803 183.175 98.4435C183.361 101.478 179.893 103.832 179.645 106.929C179.459 109.096 181.007 113.246 181.007 113.246C181.007 113.246 179.025 112.627 178.034 111.884C177.229 111.264 175.681 109.344 175.681 109.344L176.486 113.68C176.858 115.785 172.708 117.086 172.336 119.564C172.089 121.174 173.513 122.908 173.513 122.908C173.513 122.908 169.735 122.041 168.187 120.926C167.01 120.059 165.462 117.396 165.462 117.396C165.462 117.396 164.099 121.05 162.922 122.289C161.622 123.713 158.834 124.457 156.543 125.509C152.703 127.306 149.296 128.978 149.296 128.978C149.296 128.978 149.978 126.438 149.668 125.076C149.234 122.908 146.2 120.555 145.147 118.573C144.094 116.591 145.147 113.865 145.147 113.865C145.147 113.865 142.669 116.281 140.811 116.591C138.705 116.838 134.865 115.476 134.865 115.476Z" fill="#E94545"/>
<path d="M168.682 76.9512C168.682 76.9512 168.31 83.0828 166.514 85.3125C165.213 86.9848 162.922 87.728 160.816 88.2235C158.524 88.7809 156.109 87.9757 153.755 88.2235C152.207 88.4093 150.72 89.5241 149.234 89.2764C148.181 89.0906 146.509 87.728 146.509 87.728V90.0196L143.783 92.6209L146.942 93.6119L149.482 92.6209L148.676 94.1074C148.057 95.2222 145.208 95.5319 144.155 96.2132C142.483 97.328 140.687 99.0622 140.687 101.044C140.687 101.664 140.872 103.46 140.811 104.079C140.563 106.371 137.156 108.043 137.156 108.043L141.863 108.167C141.863 108.167 139.881 109.715 139.448 110.83C139.076 111.821 139.448 113.555 138.395 113.989L134.803 115.537C134.803 115.537 138.705 116.9 140.687 116.466C142.483 116.095 145.022 113.741 145.022 113.741C145.022 113.741 143.969 116.466 145.022 118.448C146.075 120.43 149.11 122.784 149.543 124.951C149.853 126.376 149.172 128.853 149.172 128.853C149.172 128.853 152.578 127.181 156.418 125.385C158.648 124.332 161.435 123.651 162.798 122.164C163.974 120.864 165.337 117.271 165.337 117.271C165.337 117.271 166.885 119.935 168.062 120.802C169.611 121.917 173.389 122.784 173.389 122.784C173.389 122.784 171.964 121.049 172.212 119.439C172.584 116.962 176.733 115.599 176.362 113.555L175.556 109.22C175.556 109.22 177.105 111.14 177.91 111.759C178.901 112.502 180.883 113.122 180.883 113.122C180.883 113.122 179.335 108.972 179.52 106.804C179.768 103.769 183.237 101.416 183.051 98.319C182.865 95.6558 180.326 92.6209 180.326 92.6209C180.326 92.6209 181.812 93.1164 183.051 93.4261C184.475 93.7977 186.024 92.4351 186.024 92.4351C186.024 92.4351 184.661 91.7538 184.042 90.639C182.369 87.5422 184.413 84.0738 182.679 80.977C181.75 79.3047 178.344 77.2609 178.344 77.2609C178.344 77.2609 180.016 80.8531 180.511 82.7731C181.131 85.1886 181.564 90.2054 181.564 90.2054L173.575 84.3835C173.575 84.3835 179.149 94.5409 178.715 97.8235C178.529 99.2481 177.848 99.8674 177.291 101.168C176.671 102.655 176.733 105.937 176.733 105.937L169.301 92.9925C169.301 92.9925 173.389 109.096 172.336 112.812C171.778 114.732 169.673 117.953 169.673 117.953C169.673 117.953 168.558 116.962 168.062 116.342C166.452 114.298 163.974 103.398 163.974 103.398C163.974 103.398 162.488 116.652 159.887 119.315C157.967 121.297 152.269 123.589 152.269 123.589C152.269 123.589 152.331 122.04 152.083 121.297C151.402 119.191 149.11 117.767 148.552 115.661C147.933 113.246 154.56 101.664 154.56 101.664C154.56 101.664 147.562 108.848 146.509 109.406C145.084 110.211 142.669 112.626 142.669 112.626C142.669 112.626 142.731 111.14 143.04 110.52C144.093 108.291 147.438 103.645 147.438 103.645L143.164 105.07C143.721 103.336 143.721 102.716 143.721 100.796C143.721 99.3719 148.181 98.5668 149.234 97.6377C150.039 96.8945 150.225 95.5938 150.287 94.479C150.349 93.6738 150.039 92.8067 149.853 92.3732L150.287 92.1874L153.198 90.7009H156.418L161.497 91.1345L165.523 89.8338L168.929 86.799L169.92 82.1538L169.549 77.8802L168.682 76.9512Z" fill="#CD0707"/>
<path d="M157.162 70.0148C157.224 71.5013 158.896 73.0497 161.126 72.9877C163.294 72.9258 164.656 71.6871 164.594 70.2006C164.532 68.7142 163.17 67.9709 160.94 68.0329C158.772 68.0948 157.162 68.5284 157.162 70.0148Z" fill="white"/>
<path d="M160.784 71.683C161.605 71.6606 162.252 70.9772 162.229 70.1565C162.207 69.3359 161.523 68.6889 160.703 68.7113C159.882 68.7338 159.235 69.4172 159.257 70.2378C159.28 71.0584 159.963 71.7055 160.784 71.683Z" fill="#2B2200"/>
<path d="M160.941 67.6618C159.826 67.6618 158.835 67.8476 158.092 68.1572C157.348 68.4669 156.791 69.1482 156.791 70.0153C156.853 71.7495 158.711 73.4218 161.064 73.3599C162.241 73.2979 163.17 72.9882 163.852 72.4308C164.533 71.8734 164.904 71.0682 164.904 70.2631C164.904 69.4579 164.471 68.7147 163.728 68.2811C162.984 67.8476 162.117 67.5998 160.941 67.6618ZM151.279 68.0953L144.837 68.4669L144.342 72.0592C144.342 72.0592 147.315 71.8115 148.491 71.316C150.288 70.6347 151.279 68.0953 151.279 68.0953ZM161.002 68.3431C162.055 68.3431 162.923 68.4669 163.418 68.7766C163.913 69.0863 164.223 69.5198 164.223 70.1392C164.223 70.7585 163.975 71.3779 163.418 71.8115C162.861 72.245 162.117 72.5547 161.064 72.5547C159.021 72.6166 157.534 71.1302 157.534 69.8915C157.534 69.2721 157.782 68.9624 158.401 68.7147C159.021 68.4669 159.888 68.405 161.002 68.3431ZM181.999 70.8824C179.459 70.9444 177.601 71.8734 175.929 74.8463C181.503 77.3237 183.423 74.0411 184.786 71.1302C183.795 70.9444 182.866 70.8824 181.999 70.8824ZM167.63 75.7134C167.63 75.7134 168.435 76.3947 168.868 77.3857C169.302 78.3767 169.735 79.5534 169.797 80.2347C170.045 82.1547 169.55 84.9418 168.744 86.4902C167.692 88.5341 165.772 89.587 163.48 90.3922C161.993 90.8877 160.321 90.8257 158.587 90.7019C156.853 90.578 154.933 90.1444 153.075 90.5161C152.208 90.7019 151.217 91.1354 150.473 91.569C149.73 92.0025 149.049 92.6219 149.049 92.6219L149.173 93.489C149.173 93.489 150.473 92.5599 151.217 92.1883C151.96 91.8167 152.889 91.4451 153.384 91.3212C154.933 91.0115 156.729 91.4451 158.463 91.569C160.259 91.6928 162.117 91.8786 163.913 91.2593C166.391 90.3922 168.311 89.4632 169.612 86.9857C170.664 85.0038 170.912 82.5264 170.664 80.4825C170.541 79.4915 169.859 77.0141 168.868 76.5186L167.63 75.7134Z" fill="#9C0000"/>
<path d="M181.193 63.8203C180.883 63.8203 181.193 63.8823 181.441 64.1919L182.246 63.8823C181.688 63.8823 181.379 63.8203 181.193 63.8203ZM181.503 64.1919L176.919 66.1119L171.221 65.121L163.789 64.4397L160.754 65.121L157.534 66.1739L154.808 68.3416C156.728 68.2797 159.206 66.5455 162.798 66.6074C168.31 66.6694 175.433 68.899 177.972 68.2797C180.264 67.7223 181.75 65.4926 181.75 64.7493C181.688 64.5016 181.565 64.3158 181.503 64.1919ZM170.23 89.214C170.23 89.214 173.017 91.3198 173.761 93.6733C174.132 94.7882 173.513 96.6463 173.761 97.7611C174.008 98.9379 176.61 101.23 176.61 101.23C176.61 101.23 175.061 98.1947 175.061 96.894C175.123 95.8411 175.681 94.1688 175.247 93.1779C174.318 90.5146 170.23 89.214 170.23 89.214ZM158.71 94.1069C158.71 94.1069 154.375 94.2927 152.764 96.5224C152.145 97.3895 152.207 99.1237 152.021 100.177C151.712 101.415 149.42 104.017 149.42 104.017C149.42 104.017 152.517 102.468 153.074 101.415C153.632 100.362 153.508 98.4424 154.127 97.4514C155.49 95.4695 158.71 94.1069 158.71 94.1069ZM161.931 96.894C161.931 96.894 153.879 105.565 153.817 110.52C153.817 112.13 155.49 113.369 155.675 114.979C155.861 116.775 154.746 120.306 154.746 120.306C154.746 120.306 158.277 116.713 158.401 114.67C158.524 112.873 157.038 111.263 157.038 109.467C156.914 104.946 161.931 96.894 161.931 96.894ZM165.214 99.9289C165.214 99.9289 167.629 102.406 168.063 104.884C168.248 106.061 167.381 107.795 167.443 108.971C167.505 110.148 169.735 112.812 169.735 112.812C169.735 112.812 168.682 109.529 168.93 108.29C169.115 107.237 169.921 105.689 169.735 104.636C169.054 101.911 165.214 99.9289 165.214 99.9289Z" fill="#EE6C6C"/>
<path d="M178.283 77.3231C178.283 77.3231 181.689 79.4289 182.619 81.0393C184.353 84.1361 182.309 87.6045 183.981 90.7013C184.6 91.8161 185.963 92.4974 185.963 92.4974C185.963 92.4974 184.415 93.798 182.99 93.4884C181.689 93.1787 180.265 92.6832 180.265 92.6832C180.265 92.6832 182.866 95.7181 182.99 98.3813C183.176 101.416 179.708 103.77 179.46 106.866C179.274 109.034 180.822 113.184 180.822 113.184C180.822 113.184 178.84 112.565 177.849 111.821C177.044 111.202 175.496 109.282 175.496 109.282L176.301 113.617C176.673 115.723 172.523 117.024 172.151 119.501C171.904 121.112 173.328 122.846 173.328 122.846C173.328 122.846 169.55 121.979 168.002 120.864C166.825 119.997 165.277 117.334 165.277 117.334C165.277 117.334 163.914 120.988 162.737 122.227C161.436 123.651 158.649 124.394 156.358 125.447C152.518 127.243 149.111 128.916 149.111 128.916C149.111 128.916 149.793 126.376 149.483 125.014C149.049 122.846 146.014 120.492 144.962 118.51C143.909 116.528 144.962 113.803 144.962 113.803C144.962 113.803 142.484 116.219 140.626 116.528C138.644 116.962 134.742 115.599 134.742 115.599L138.334 114.051C139.325 113.617 138.954 111.883 139.387 110.892C139.821 109.777 141.803 108.229 141.803 108.229L137.096 108.105C137.096 108.105 140.502 106.495 140.75 104.141C140.812 103.584 140.564 101.726 140.626 101.106C140.626 99.0626 142.422 97.3903 144.094 96.2755C145.147 95.5942 148.058 95.2845 148.616 94.1697L149.854 92.3735C149.854 92.3735 148.306 93.3645 146.944 93.5503C145.581 93.7361 143.475 93.1168 143.475 93.1168L146.51 90.2677C147.005 89.8342 146.2 87.8522 146.386 87.2329C146.696 86.0561 149.111 85.5606 149.111 85.5606C149.111 85.5606 154.5 86.3657 156.667 85.0032C158.773 83.7644 159.578 81.7206 158.897 79.5528L158.402 78.1283C157.782 76.3322 151.341 77.9425 149.483 78.1902C147.811 78.438 145.891 77.6328 145.024 76.2083C143.413 73.545 144.776 71.3773 145.024 68.7141C151.465 67.785 150.784 68.4663 155.243 68.2805C164.038 59.7334 173.39 68.2186 178.655 65.3076L181.937 63.6973C182.928 66.1128 181.813 67.4753 180.698 69.5192C185.529 69.0237 185.715 70.1386 186.582 70.7579C186.582 70.7579 185.901 73.607 184.6 75.2173C183.052 76.9515 178.283 77.3231 178.283 77.3231Z" stroke="#800000" stroke-width="0.619358"/>
<path d="M112.445 59.6716C114.613 61.5296 115.046 62.5206 115.232 65.2458C116.223 65.9271 117.028 65.989 117.647 65.6174C118.886 64.8122 119.258 63.5116 118.638 62.0251C117.4 61.5296 116.842 59.5477 112.445 59.6716ZM125.389 60.9103C126.628 63.5735 126.628 64.6884 125.761 67.2277C126.38 68.3426 127.124 68.7142 127.805 68.6523C129.229 68.5284 130.034 67.4755 130.034 65.8032C129.229 64.9361 129.477 62.8303 125.389 60.9103ZM107.614 69.1477C106.685 69.0858 105.446 69.3336 103.712 70.2626C106.375 70.9439 107.118 71.6871 108.357 74.1026C109.534 74.2884 110.277 73.9168 110.711 73.2974C111.516 72.0587 111.392 70.6961 110.215 69.5813C109.472 69.6432 108.791 69.2097 107.614 69.1477ZM91.2627 102.469C90.4576 102.469 89.4666 102.655 88.104 103.15C90.6433 104.203 91.3247 105.009 92.2537 107.548C93.3685 107.858 94.1737 107.61 94.6692 107.052C95.6602 105.876 95.6601 104.513 94.6072 103.274C93.8021 103.274 92.9969 102.469 91.2627 102.469ZM84.6975 109.034C83.6446 109.592 81.8485 108.601 78.9375 112.007C81.6627 111.698 82.6537 112.069 84.6356 113.865C85.8124 113.618 86.3698 112.998 86.4937 112.317C86.8653 110.831 86.184 109.592 84.6975 109.034ZM88.5375 121.669C88.3517 121.669 88.1659 121.669 87.9801 121.731C87.3608 122.722 85.3169 122.846 84.5117 127.243C86.6795 125.571 87.7324 125.385 90.3956 125.943C91.2627 125.138 91.4485 124.333 91.2008 123.651C90.7672 122.351 89.8382 121.669 88.5375 121.669ZM96.2795 170.784C95.5363 170.784 94.6692 170.908 93.6163 171.218C96.0937 172.457 96.7131 173.262 97.3943 175.925C98.5092 176.359 99.3144 176.173 99.8099 175.615C100.863 174.562 100.987 173.2 100.058 171.899C99.1905 171.775 98.4473 170.784 96.2795 170.784ZM89.3427 176.854C88.3517 177.535 86.4937 176.854 84.0782 180.632C86.7414 179.889 87.7324 180.137 90.024 181.685C91.1389 181.251 91.6343 180.632 91.6343 179.827C91.6963 178.34 90.8911 177.226 89.3427 176.854ZM90.2098 188.188C89.8382 188.188 89.5285 188.188 89.095 188.312C88.5376 189.365 86.5556 189.613 86.1221 194.134C88.1659 192.276 89.1569 192.028 91.8821 192.276C92.6873 191.409 92.8111 190.604 92.5014 189.922C92.006 188.87 91.2008 188.25 90.2098 188.188ZM149.606 204.044C148.615 204.044 147.315 204.354 145.518 205.654C148.244 206.026 149.111 206.645 150.597 208.875C151.774 208.937 152.455 208.503 152.827 207.822C153.508 206.459 153.137 205.159 151.836 204.23C151.217 204.292 150.597 204.044 149.606 204.044ZM151.588 214.077C151.402 214.077 151.217 214.077 151.031 214.139C150.411 215.13 148.367 215.254 147.562 219.652C149.73 217.979 150.783 217.794 153.446 218.351C154.313 217.546 154.499 216.741 154.251 216.059C153.818 214.759 152.889 214.077 151.588 214.077ZM161.126 219.899C160.94 219.899 160.755 219.961 160.569 219.961C160.011 221.014 157.968 221.2 157.472 225.659C159.578 223.863 160.569 223.616 163.232 223.987C164.037 223.12 164.161 222.315 163.913 221.634C163.418 220.457 162.427 219.837 161.126 219.899Z" fill="#377BC8" stroke="#2C5AA0" stroke-width="0.619358"/>
</svg>
