<svg width="300" height="300" viewBox="0 0 300 300" fill="none" xmlns="http://www.w3.org/2000/svg">
<path d="M91.2179 136.684L87.8973 135.593L80.9588 132.422L68.42 118.941L66.0411 114.729L41.1617 129.002C41.1617 129.002 18.1161 209.686 87.5008 206.862C89.9789 206.762 92.7047 206.069 95.4305 205.771C98.4537 205.424 101.328 203.838 104.649 203.194L99.3954 202.203L86.1131 198.139L75.0611 179.603L77.5392 161.514L83.536 147.092L91.2179 136.684Z" fill="white"/>
<path d="M207.982 136.437L225.328 128.656L234.646 115.076L260.566 129.003C260.566 129.003 282.819 207.754 215.714 206.466C212.988 206.416 209.865 206.119 206.842 205.822C203.67 205.475 200.548 204.087 197.029 203.443C196.781 203.393 198.813 203.195 198.566 203.145L196.831 202.897L197.574 202.848L203.026 201.906L212.988 197.842L218.885 191.251L222.949 183.916L225.18 168.8L220.025 149.719L207.982 136.437Z" fill="white"/>
<path d="M63.5132 154.526V154.477C63.4637 154.526 63.5132 154.427 63.5132 154.526Z" fill="#231F20"/>
<path d="M82.9411 199.626C85.7661 200.717 88.6406 201.609 91.6142 202.303C94.3168 202.919 97.0441 203.538 99.5935 203.74C101.08 203.988 102.369 203.839 103.806 203.889C104.004 203.889 104.748 203.789 104.748 203.789L106.582 203.641C114.66 207.259 122.59 210.133 131.461 211.769C131.461 211.769 138.3 212.909 141.72 213.206C142.265 213.255 142.81 213.305 143.355 213.454C142.909 214.247 131.312 229.115 130.866 230.056C130.42 230.75 130.618 231.791 131.015 232.485C131.709 233.427 133.096 233.724 134.236 233.427C134.335 233.327 134.435 233.278 134.534 233.278L138.35 228.371C139.49 226.785 140.729 225.249 142.017 223.762C144.495 220.243 147.072 217.022 149.699 213.652C150.096 213.553 150.492 213.553 150.839 213.652C151.087 213.503 151.533 213.553 151.781 213.553C151.88 213.652 151.979 213.801 152.029 213.949C153.862 216.427 163.774 229.462 167.194 233.575C167.591 233.575 167.937 233.823 168.284 233.625C169.127 233.625 169.92 233.228 170.515 232.634C170.911 232.039 171.109 231.295 170.961 230.552C170.663 229.61 169.87 228.867 169.375 228.124C169.127 227.826 161.693 218.013 158.174 213.553C158.075 213.454 158.075 213.355 158.174 213.255C160.008 213.008 161.842 212.859 163.675 212.611C172.497 211.521 181.121 209.291 189.348 205.871C189.595 205.772 194.651 203.641 194.651 203.641C196.683 203.542 198.764 203.69 200.4 203.789C200.796 203.74 201.292 203.789 201.738 203.74C206.595 203.046 211.253 202.104 215.763 200.419C218.44 199.577 221.265 198.586 223.743 197.049C225.527 195.81 227.41 194.769 229.095 193.283C231.474 191.003 233.704 188.773 235.389 185.997C235.389 185.898 235.538 185.7 235.538 185.601V185.551C236.182 184.461 236.777 183.321 237.322 182.181L237.174 182.131L237.421 182.032H237.273C237.322 181.983 237.322 181.884 237.421 181.884C238.859 178.761 239.751 175.342 239.949 171.922C240.345 166.768 238.859 162.109 238.016 157.202C237.471 154.13 236.232 151.602 235.092 148.827C234.695 147.984 234.497 147.142 233.952 146.448C233.209 144.664 232.118 142.929 231.325 141.095C229.839 138.617 228.5 136.09 227.261 133.513C226.568 132.521 225.789 130.656 225.145 129.814C227.013 127.676 229.293 125.623 230.597 123.718C234.163 119.423 236.086 116.876 238.165 112.202C238.916 109.909 239.453 108.038 240.098 106.205C240.147 105.858 240.246 105.461 240.345 105.114C240.643 103.181 241.012 100.654 241.188 98.8202C241.287 98.3741 241.436 98.1263 241.337 97.7298L241.485 97.6307H241.436C241.584 96.8873 241.684 96.3917 241.882 95.5492C243.17 96.4413 243.567 98.0272 244.657 98.9193C244.905 99.2166 245.202 98.7706 245.252 99.0184V98.9193L246.094 98.7706C249.068 98.4237 251.744 96.7386 253.33 94.1615C256.155 93.4676 258.534 91.5843 259.773 88.9576C263.391 88.6602 266.662 88.8089 270.379 88.4124C272.659 87.8177 274.592 86.3805 275.831 84.398C276.128 84.0016 276.277 83.4068 276.772 83.0103C278.309 82.8617 279.895 83.2582 281.431 82.5643C283.562 81.3253 285.743 79.5907 286.635 77.2118C288.816 77.0135 290.947 76.3692 292.83 75.2293C293.821 74.6842 296.2 72.3053 296.597 71.7601C297.191 71.0167 298.133 67.9935 297.984 68.0926C297.984 68.0926 194.353 71.7601 191.082 73.1478C187.167 74.2877 183.648 76.8153 180.972 80.0367C180.427 80.4332 167.789 102.735 167.789 102.735C166.352 100.753 165.707 98.6715 164.865 96.4413C164.022 94.211 159.81 73.4452 159.314 72.5035C158.868 71.4627 158.224 70.4715 157.48 69.6786C156.043 68.0431 154.16 67.597 152.029 66.9032C149.6 66.1598 144.248 65.7137 142.662 66.2093C140.58 66.9032 138.598 68.1917 138.052 70.5707C138.052 70.5707 135.277 70.0255 133.889 70.1742C129.925 70.4715 127.744 73.7921 126.455 77.0631C126.406 78.1534 125.712 79.5907 126.406 80.681C126.654 79.3924 127.793 78.5499 129.082 78.203C130.668 78.1534 132.403 77.7569 134.088 78.1534C137.012 79.0951 138.251 82.2174 138.994 84.8936C139.787 88.8585 138.399 92.972 136.913 96.4908C135.822 98.721 135.475 101.249 133.79 103.181C130.817 97.9776 127.744 92.5755 124.721 87.223C123.779 85.4388 122.738 83.6051 121.747 81.92V81.8705C118.575 77.6578 114.214 74.3373 108.911 73.1478C104.302 72.1566 3.09912 68.39 3 68.5882C3.29736 68.8856 3.69385 70.2237 3.99121 70.6698C4.48682 71.7601 6.07275 73.5938 6.07275 73.5938C8.35254 75.9232 11.4253 77.3604 14.6467 77.5587C14.9441 77.5091 15.0432 77.9552 15.0432 77.9552C15.4397 78.7977 15.9353 79.5411 16.53 80.235C18.0168 81.3748 19.6028 82.3661 21.2383 83.2086C22.4277 83.3077 23.6667 83.3573 24.8562 83.3573C25.55 84.6458 26.2935 85.984 27.4829 86.8265C28.0281 87.223 28.4741 87.5699 29.0193 87.9168C30.3079 88.8089 32.092 88.8089 33.678 88.9081C36.0569 89.0567 41.8059 89.3045 41.8059 89.3045C42.0041 89.8993 42.3511 90.4444 42.7475 90.94C43.7883 92.179 45.1265 93.1703 46.5637 93.8641C47.1089 94.0623 47.6045 94.211 48.1496 94.3101C49.4382 96.0448 50.6772 97.4325 52.7588 98.4237C53.0066 98.5724 55.6828 99.2662 56.7236 99.1175C57.7148 98.0272 58.6565 96.7882 59.6477 95.8961L59.7468 96.0448C59.8459 96.6395 59.9451 97.2342 59.9946 97.8289H60.0937C60.292 98.5228 60.3911 99.2662 60.3911 99.9601C60.4407 100.852 60.5893 101.496 60.6885 102.24C60.7876 103.033 61.0641 103.687 61.2624 104.43C61.5503 106.619 62.4523 109.153 62.8131 110.438C63.2096 111.281 63.2344 111.604 63.6309 112.347C63.8554 113.133 64.3624 114.047 64.4412 114.275C64.798 115.186 66.0162 117.004 66.7378 118.159C68.0145 120.363 75.3227 128.39 77.0851 129.56C76.8373 130.006 72.9299 136.139 72.9299 136.139C72.3352 136.982 69.6094 142.731 68.6181 144.416L65.9914 149.669C65.248 150.958 63.216 158.095 63.1665 158.342C62.8691 159.928 62.4231 161.613 62.2248 163.249C61.9275 164.339 61.8284 165.479 61.6301 166.569C61.6301 167.957 61.4814 169.246 61.531 170.733C61.531 174.251 62.4726 177.572 63.4638 180.694C64.4055 182.627 65.1489 184.51 66.2888 186.443C67.2304 187.583 67.9243 188.971 69.0642 189.962C70.7988 191.994 72.7812 193.828 74.9619 195.315C75.5071 195.761 75.0115 195.463 76.7461 196.454C78.5798 197.793 82.9411 199.626 82.9411 199.626ZM72.7683 123.424C70.0356 120.107 68.1027 117.405 66.3384 113.787C65.6445 112.152 65.0002 110.715 64.4551 109.03C64.0353 107.486 63.6011 105.973 63.2656 104.619C63.2656 104.619 63.0292 103.624 62.9494 103.083C62.6317 101.349 62.3735 99.8609 62.2248 98.0767L62.1753 95.9456C62.324 95.8465 89.3344 131.481 92.3081 135.594C90.0779 134.887 88.1039 134.162 85.9643 133.251C85.0088 132.742 83.7118 132.097 82.6933 131.53C82.7429 131.728 82.5942 131.233 82.6933 131.53C79.066 129.215 76.1727 126.742 72.7683 123.424ZM112.479 174.697C111.934 175.292 112.083 176.283 111.884 177.175C111.587 177.324 111.488 177.869 111.339 178.167C110.943 177.919 110.1 177.77 110.249 177.225C111.389 174.846 112.38 172.764 113.47 170.485C113.57 170.386 113.57 169.791 113.322 169.692C108.465 163.893 101.725 160.027 94.2905 158.739C94.1418 158.888 93.8445 158.739 93.6958 158.888C92.9028 159.284 92.1594 159.73 91.4655 160.176C91.4655 160.275 83.1889 172.665 80.4135 177.126C79.6206 177.423 79.7197 178.563 79.8684 179.406C80.1658 180.942 81.1074 182.478 82.5447 183.073C83.6845 183.618 85.1714 183.47 86.4104 183.123L86.8069 183.222C87.699 183.767 88.4919 184.362 89.2849 185.055V185.303C87.9963 186.741 86.7573 188.475 85.4192 189.962C85.5678 190.805 98.7014 199.577 104.896 202.848C104.401 202.848 104.748 202.848 103.806 202.798C99.8953 202.027 95.7392 200.967 92.5559 198.982C89.0589 197.142 83.7738 192.293 82.1482 189.516C81.7021 188.921 81.3552 188.227 81.0578 187.534C77.7437 180.667 78.11 173.688 78.7781 166.718C79.0754 164.488 79.5215 162.258 80.1657 160.127C80.8348 158.278 81.2591 157.019 82.0986 155.27C82.7429 153.436 83.5854 151.602 84.5271 149.917C84.9236 148.975 85.4192 148.133 85.9643 147.29C88.1946 144.069 90.177 140.847 93.0515 138.072C93.4975 137.973 93.7453 137.378 94.1418 137.626C100.287 145.754 119.913 171.377 120.458 172.368C118.526 172.616 116.543 172.12 114.561 172.517C113.619 173.062 112.876 173.805 112.479 174.697ZM119.963 182.528C118.03 181.834 116.196 180.992 114.462 179.901C114.759 179.455 115.056 179.009 115.304 178.514C116.89 178.86 118.526 178.91 120.161 178.662L120.607 178.761C120.458 180.099 120.26 181.239 119.963 182.528ZM123.878 157.896C123.432 158.987 123.63 160.176 123.482 161.415C122.887 162.357 122.441 163.398 122.243 164.488C122.292 165.628 123.234 166.272 124.176 166.718C124.423 166.966 124.126 168.354 123.928 168.552C123.779 168.552 109.406 149.421 102.22 140.302C101.923 139.608 81.0578 112.449 71.4431 99.7122L89.5327 100.01C90.8213 100.059 91.8125 100.059 93.0515 100.158C93.0515 100.307 87.6989 103.826 84.9731 105.362C85.3696 106.452 86.0635 107.196 86.6582 108.187C86.6582 108.187 88.4919 110.467 89.8796 111.409C89.8796 111.409 91.3169 112.35 91.9612 112.697C91.9612 112.697 89.4336 114.63 88.2937 115.522C88.1946 115.819 89.6814 117.504 89.6814 117.504C90.7717 118.843 92.1098 119.933 93.6462 120.726C94.5383 121.271 95.48 121.717 96.4712 122.014C95.3808 122.857 94.6374 123.848 93.4975 124.691C94.0427 125.434 94.6374 126.178 95.2817 126.822C96.2729 127.813 97.4128 128.656 98.6518 129.3C98.6518 129.3 101.328 130.242 102.319 130.588C101.477 131.58 100.733 132.571 99.9404 133.612C100.486 134.206 101.08 134.801 101.725 135.297C102.567 135.941 103.509 136.486 104.5 136.982C104.748 137.031 107.672 138.072 108.861 138.27C108.564 139.063 106.879 141.244 107.028 141.74C109.704 143.276 112.628 144.416 115.899 144.267C115.502 145.556 114.759 146.547 114.462 147.935C114.511 147.984 121.995 151.107 125.91 150.165C125.96 150.165 126.059 151.652 125.662 151.999C125.117 152.891 124.869 153.882 124.968 154.923C125.018 155.27 125.068 155.567 125.018 155.914C124.622 156.36 124.076 157.748 123.878 157.896ZM125.613 184.758C125.811 184.163 126.108 183.618 126.406 183.073C126.703 182.528 126.703 181.784 127.347 181.438C128.686 183.024 129.875 184.659 131.015 186.344C129.132 185.948 127.347 185.452 125.613 184.758ZM137.706 186.542L137.557 186.691C136.268 184.907 134.93 183.222 133.642 181.388C134.534 182.032 135.277 182.825 135.872 183.767C136.714 182.677 137.111 181.289 137.557 180C137.805 178.811 137.309 177.621 136.318 176.928C136.367 176.482 136.566 175.788 136.07 175.49H135.971C134.732 174.251 132.997 173.607 131.213 173.706C130.916 173.607 130.271 174.004 130.123 173.458C129.925 172.269 129.925 171.079 130.172 169.94C130.916 169.989 131.56 170.485 132.254 170.633C132.948 170.782 133.542 171.179 134.236 170.782C135.624 170.534 135.674 168.948 135.921 167.808L135.872 166.718C136.02 166.669 136.12 166.966 136.318 166.867C136.714 166.024 136.615 164.934 136.714 164.042C136.615 163.844 136.566 163.645 136.566 163.447C136.813 163.546 136.863 163.844 137.012 163.596C137.16 162.208 138.102 161.068 138.003 159.532C139.291 161.068 140.431 162.357 141.819 163.844C141.918 164.141 142.364 164.438 142.513 164.785C140.977 172.021 139.44 179.257 137.706 186.542ZM165.162 176.878C164.32 177.324 164.171 178.266 163.923 179.009C164.171 180.694 164.518 182.478 165.608 183.668C165.905 183.321 166.153 182.974 166.352 182.577C166.798 182.082 167.343 181.586 167.888 181.19C166.946 182.627 165.905 184.015 164.815 185.353C164.468 185.749 164.171 186.146 163.873 186.592H163.725C162.04 179.207 160.404 171.922 158.818 164.587C160.355 162.951 161.792 161.217 163.279 159.433C163.378 159.433 163.477 159.482 163.477 159.581C163.477 159.631 163.477 159.681 163.427 159.73C163.279 161.118 164.27 162.159 164.369 163.497L164.815 163.348C164.666 164.438 164.567 165.826 165.113 166.718C165.261 166.718 165.41 166.669 165.509 166.569C165.311 167.808 165.559 169.047 166.203 170.088C166.748 170.683 167.541 170.98 168.334 170.782C169.176 170.534 169.969 170.237 170.713 169.84H171.159C171.456 171.03 171.506 172.318 171.258 173.508L170.961 173.557C168.83 173.26 166.352 174.103 165.063 175.837C165.113 176.234 165.113 176.581 165.162 176.878ZM175.917 184.709C175.471 185.006 174.826 184.857 174.38 185.254C173.141 185.65 171.853 185.997 170.515 186.245V186.096C171.754 184.56 172.894 182.875 174.182 181.487C175.025 182.28 175.173 183.618 175.867 184.56V184.709H175.917ZM177.106 167.115C177.503 166.123 178.89 166.123 179.089 165.033C179.386 163.645 178.643 162.406 177.998 161.415C177.85 159.928 178.048 158.59 177.453 157.252C177.057 157.252 177.156 156.806 176.908 156.558C176.809 156.261 176.462 156.013 176.313 155.716C176.858 154.179 176.214 152.742 175.57 151.503C175.421 151.007 175.421 150.512 175.57 150.066C177.651 150.561 179.832 150.561 181.914 150.115C183.153 149.868 184.342 149.421 185.432 148.827C185.829 148.529 186.275 148.282 186.721 148.034C186.77 147.984 186.969 147.984 186.969 147.885C186.523 146.646 185.977 145.506 185.531 144.267H185.829C185.878 144.366 186.126 144.168 186.225 144.168C188.654 144.168 191.033 143.524 193.164 142.334V142.433C193.61 142.136 194.105 141.888 194.551 141.591C193.957 140.6 193.312 139.46 192.619 138.369C193.907 138.122 195.146 137.725 196.385 137.279C198.368 136.486 200.152 135.297 201.589 133.76C200.895 132.67 200.053 131.778 199.309 130.737C199.408 130.588 199.607 130.588 199.755 130.489C200.003 130.489 200.251 130.44 200.449 130.341C203.522 129.498 205.802 127.664 207.735 125.285C207.735 125.038 208.131 124.988 208.032 124.74C206.991 123.848 206.049 122.907 205.108 121.915C208.478 120.875 211.352 118.644 213.236 115.621V115.373C211.997 114.382 210.857 113.54 209.717 112.598C209.717 112.35 209.965 112.449 210.014 112.35C212.839 110.715 215.119 108.237 216.457 105.263V105.114C213.88 103.429 211.154 101.893 208.627 100.109V100.01C215.218 99.6131 221.265 99.7122 227.707 99.3158H229.789C229.492 100.109 228.798 100.703 228.401 101.397C226.419 104.173 224.09 106.899 222.404 109.476C222.157 109.575 222.107 110.021 221.81 110.17C214.376 119.735 206.942 130.093 199.408 139.807C195.493 145.011 191.578 149.868 187.91 154.972C184.392 159.482 181.071 164.091 177.602 168.502C177.354 168.155 177.156 167.66 177.106 167.115ZM186.027 180.545C185.878 180.496 185.779 180.595 185.73 180.595V180.645C184.491 181.14 182.905 181.933 181.517 182.429C181.269 181.19 181.021 179.951 180.922 178.662C181.666 178.514 182.36 178.811 183.202 178.761C184.193 178.761 185.185 178.662 186.176 178.464C186.424 179.009 186.77 179.554 186.919 180C186.622 180.149 186.324 180.347 186.027 180.545ZM221.215 186.195C220.769 186.988 219.133 190.111 218.539 190.656C217.399 192.44 215.615 193.976 214.078 195.364C211.024 197.774 207.488 199.888 204.018 201.064C202.184 202.005 200.251 202.154 198.268 202.6L196.881 202.848V202.749C201.886 200.221 206.694 197.247 211.253 193.877C212.443 193.084 213.583 192.192 214.623 191.251C215.02 191.003 215.565 190.854 215.714 190.408C215.962 190.259 216.11 190.21 216.16 189.962C215.02 188.178 213.533 186.741 212.344 185.105C213.038 184.263 213.88 183.866 214.822 183.172C215.367 182.875 215.813 183.321 216.358 183.321C219.034 183.668 221.463 181.834 221.859 179.158C221.909 178.662 221.909 178.117 221.81 177.621C217.894 171.724 214.078 165.975 210.163 159.879C209.568 159.383 208.825 158.987 208.081 158.739C206.446 158.342 204.86 159.185 203.324 159.482C200.4 160.473 197.575 161.564 195.196 163.398C192.668 165.182 188.158 170.237 188.307 170.435C188.753 171.525 189.298 172.764 189.843 173.805C190.289 174.945 190.983 176.085 191.38 177.324C191.082 177.621 190.686 177.82 190.289 177.919C190.141 177.522 189.447 174.598 188.852 173.756C188.009 172.814 187.018 172.12 185.73 172.219C184.441 172.318 182.756 172.269 181.269 172.269C181.666 171.278 182.558 170.336 183.202 169.444C188.356 162.704 193.412 155.914 198.615 149.174C201.688 145.358 204.513 141.294 207.735 137.279C209.172 137.973 214.822 145.407 216.408 148.083C216.556 148.629 219.48 154.526 220.075 156.211C220.075 156.509 220.372 156.509 220.323 156.806C220.472 157.202 220.62 157.549 220.769 157.896C221.066 158.739 223.247 168.701 223.247 169.741C223.445 171.377 223.544 173.062 223.495 174.747C223.098 178.811 222.603 182.875 221.215 186.195ZM238.165 103.826C237.074 108.732 235.357 113.639 232.961 117.554C231.131 120.088 229.143 122.793 227.212 124.592C225.923 126.128 224.486 127.565 222.9 128.804C218.3 131.588 214.17 134.177 209.32 135.445C209.767 134.603 210.56 133.959 210.956 133.066V133.116C211.204 133.116 211.105 132.918 211.253 132.819C214.177 129.349 216.556 125.385 219.381 121.866C219.431 121.717 219.381 121.618 219.53 121.618C225.973 113.242 231.871 105.263 238.413 96.8377C238.71 96.5404 238.958 95.8961 239.354 95.8465C239.461 98.8301 238.601 101.37 238.165 103.826Z" fill="#231F20"/>
<path d="M178.544 115.224C178.494 116.661 178.246 118.148 177.999 119.684C176.859 127.614 170.961 142.531 170.763 142.68C165.856 152.741 158.868 161.662 150.294 168.848C149.402 168.105 144.496 163.446 144.446 163.347C138.251 157.053 133.295 149.668 129.33 141.54C129.281 141.292 129.181 140.995 129.033 140.747C125.663 133.214 123.383 125.185 122.342 116.958C122.342 116.958 122.193 115.818 122.193 115.323C124.87 113.34 126.951 111.556 129.479 109.722C130.866 108.731 132.403 107.591 133.642 106.501C134.336 106.6 136.715 108.632 137.706 109.128C137.854 109.326 139.094 109.722 139.341 109.97C141.77 110.961 144.347 111.705 146.924 112.2C147.568 112.2 148.213 112.25 148.857 112.349C149.799 112.597 157.431 111.407 157.679 111.209C158.075 111.308 163.973 108.434 164.221 108.285C165.212 107.69 166.104 107.046 166.996 106.303C166.947 106.402 175.025 112.448 178.544 115.224Z" fill="#C49C5B"/>
<path d="M177.007 115.77C177.007 115.77 176.611 119.734 176.264 121.519C175.124 127.813 171.06 138.914 171.06 138.914C171.06 138.914 166.847 147.141 165.906 148.579C162.833 153.634 159.215 157.946 155.399 162.158C154.308 163.149 150.938 166.222 150.393 166.817C149.848 166.52 141.175 157.747 138.102 153.336V153.386C136.07 150.511 134.187 147.488 132.502 144.416C132.105 143.573 130.916 141.095 130.767 140.798C129.677 138.567 127.595 132.917 127.397 132.521C126.158 128.854 124.473 121.469 124.473 121.469C124.225 119.685 123.928 117.851 123.729 116.116C123.977 115.819 130.618 110.665 133.394 108.534C133.394 108.534 133.394 108.286 133.542 108.385C139.341 112.895 146.676 114.877 153.961 113.837C158.868 113.143 163.477 111.26 167.392 108.236C170.515 110.714 173.934 113.292 177.007 115.77Z" fill="#231F20"/>
<path d="M167.937 111.26C170.019 112.896 172.299 114.729 174.479 116.266C174.628 116.414 174.925 116.662 174.876 116.959C174.529 119.834 173.984 122.659 173.339 125.484C172.646 127.714 172.199 129.944 171.357 132.026C170.861 133.661 170.267 135.247 169.573 136.784C169.176 136.338 168.978 135.545 168.284 135.396C167.442 135.247 165.162 135.545 164.914 135.545C164.072 135.941 164.864 137.378 163.923 137.527C163.873 137.824 162.833 137.626 162.684 137.378C162.535 136.784 162.386 135.991 162.684 135.446C163.725 134.851 164.617 134.008 164.765 132.621C164.914 132.224 164.914 130.539 165.013 130.242C167.293 128.259 168.681 125.93 170.068 123.254C170.514 122.461 170.861 121.618 171.159 120.726L171.109 120.627C169.127 121.866 166.946 122.411 164.666 122.907C164.369 122.956 164.072 122.956 163.824 122.808C163.526 122.56 163.576 122.213 163.675 121.866C164.22 119.933 164.617 117.951 164.815 115.968C165.013 115.621 165.063 115.274 165.063 114.878C163.576 115.126 162.436 115.82 161.098 116.266C158.174 118 156.043 120.726 155.002 123.948C154.804 124.245 154.457 124.394 154.06 124.394C152.92 124.294 152.623 123.006 151.83 122.262C151.136 121.469 148.856 120.032 148.757 119.933C147.171 119.239 145.585 118.694 143.9 118.248C143.256 117.951 142.711 117.554 142.215 117.108C142.067 116.86 141.868 116.613 141.67 116.414C141.67 117.802 141.72 119.239 141.918 120.627C141.968 120.924 141.621 121.222 141.373 121.321C139.093 121.123 137.111 120.032 135.029 119.19C134.88 121.172 135.624 122.808 136.466 124.394C136.863 125.335 137.854 125.93 137.755 127.07C137.16 127.665 136.219 127.516 135.376 127.615C134.385 127.516 133.443 127.07 132.601 126.971C132.7 127.516 133.74 129.35 133.84 129.498L134.583 130.44L135.426 131.282L136.268 131.877C136.962 132.571 137.804 133.166 138.746 133.562C139.192 133.81 140.976 134.702 141.125 134.702C141.868 135.495 140.58 137.626 140.282 137.676C138.845 137.527 139.836 136.04 138.746 135.446C137.358 135.297 135.426 135.049 134.236 135.594C133.641 136.239 133.988 137.378 133.096 137.824C132.501 137.824 131.708 138.221 131.56 137.378C130.469 135.099 129.627 132.521 128.784 130.143C128.685 129.746 128.586 129.35 128.388 129.003C127.694 126.376 127 123.7 126.554 121.023L125.86 116.811C126.257 116.266 127.099 115.919 127.645 115.374C129.478 113.936 131.56 112.4 133.394 110.913C133.641 110.814 133.542 111.062 133.691 111.062C137.656 113.589 142.067 115.225 146.725 115.919H153.02C155.101 115.671 157.183 115.274 159.215 114.68C159.512 114.581 165.112 112.301 167.343 110.715C167.541 110.913 167.739 111.062 167.937 111.26Z" fill="white"/>
<path d="M160.652 118.694C160.107 119.735 159.463 120.726 158.719 121.668C158.075 122.263 157.629 123.056 156.885 123.452C156.836 123.452 156.638 123.452 156.638 123.303C157.034 121.519 158.125 119.933 159.71 118.992C160.057 118.892 160.355 118.347 160.652 118.694Z" fill="#00A650"/>
<path d="M162.287 121.074C161.99 121.917 161.593 122.512 161.296 123.354C160.999 123.899 160.602 124.345 160.305 124.792C159.908 124.891 159.859 125.386 159.462 125.337C159.413 125.485 159.066 125.485 158.917 125.634C158.818 125.634 158.62 125.733 158.521 125.535C158.62 124.445 159.512 123.999 159.908 123.057C160.552 121.768 161.048 120.133 161.99 118.993C162.138 118.993 162.386 118.745 162.436 118.993C162.684 119.687 162.287 120.381 162.287 121.074Z" fill="#00A650"/>
<path d="M146.28 120.279C147.023 120.428 151.038 122.708 151.434 124.195C151.335 124.492 151.038 124.69 150.74 124.74C150.195 124.442 149.65 124.145 149.105 123.749C148.51 123.451 146.577 122.361 146.577 122.906C147.37 124.195 148.411 125.384 149.105 126.574C149.155 126.97 148.808 126.722 148.659 126.821C147.717 126.326 146.875 125.682 146.131 124.988C146.131 124.988 144.843 123.6 144.446 123.055C144.05 122.113 143.158 121.271 143.455 120.131C144.099 119.685 146.28 120.279 146.28 120.279Z" fill="#00A650"/>
<path d="M139.787 122.114C141.225 122.808 142.612 123.65 143.851 124.642C144.397 125.385 145.14 125.93 145.636 126.723L145.338 126.872C145.09 126.971 143.851 126.277 143.554 126.128C142.86 125.881 142.612 125.583 141.919 125.187C141.522 125.038 141.274 124.889 140.927 124.741C140.828 124.741 140.779 124.79 140.779 124.889C141.522 126.029 142.365 127.07 143.306 128.012V128.16C143.009 128.408 142.761 128.061 142.365 128.012C142.265 128.16 142.117 128.012 142.067 127.913C141.919 127.913 141.621 127.665 141.472 127.615C141.175 127.764 141.026 127.367 140.779 127.318C140.481 127.169 140.184 127.07 140.085 126.773C139.639 126.525 139.193 126.178 138.846 125.782C138.499 125.336 138.102 124.939 137.706 124.543C137.309 123.7 136.169 122.61 136.764 121.618C137.855 121.321 138.747 121.965 139.787 122.114Z" fill="#00A650"/>
<path d="M168.036 123.65C167.937 124.492 165.509 127.961 165.509 127.961C164.964 128.556 164.716 129.101 163.824 129.2C163.576 129.2 162.436 128.804 162.684 128.407C162.932 128.011 163.427 127.714 163.626 127.317C163.477 127.218 162.188 127.615 162.089 127.466C161.841 127.714 161.544 127.714 161.494 128.16C161.346 128.308 161.048 128.061 161.048 128.061C160.454 128.308 159.859 128.655 159.363 129.052C159.066 129.349 156.191 132.025 156.142 132.025C155.894 132.025 155.646 131.926 155.547 131.728C155.398 131.431 155.349 131.084 155.448 130.737C156.142 129.597 157.133 129.052 158.124 128.209C158.868 127.763 159.76 126.97 160.602 126.375C161.098 125.979 161.643 125.632 162.188 125.384C162.486 124.839 166.004 123.451 167.491 123.303C167.69 123.352 168.036 123.352 168.036 123.65Z" fill="#00A650"/>
<path d="M143.95 130.64C143.95 130.888 143.801 130.888 143.652 130.937C143.355 130.937 143.107 130.937 142.81 131.036C141.967 130.937 141.125 130.838 140.282 130.789C140.084 130.937 140.034 131.185 140.183 131.383C140.183 131.433 140.233 131.433 140.282 131.482C140.877 131.928 141.422 132.424 141.918 133.019C141.769 133.316 140.629 133.167 140.48 133.167C138.399 132.474 135.425 129.797 135.425 129.797C135.425 129.5 135.276 129.004 135.723 128.856C135.97 128.707 136.367 128.757 136.466 128.707C138.498 128.757 143.454 130.293 143.95 130.64Z" fill="#00A650"/>
<path d="M145.536 67.9932C147.469 68.1419 149.204 68.6871 151.038 69.0836C152.128 69.4801 153.169 69.9757 154.16 70.6199C153.863 71.4625 153.02 71.859 152.227 72.305C151.484 72.7015 150.691 72.8997 150.096 73.2962C149.799 73.3953 149.501 73.4449 149.204 73.4945C147.271 73.2467 144.843 72.5032 143.158 73.7918C142.563 74.0396 141.869 74.2379 141.324 73.7423C140.63 73.1971 139.242 72.751 139.391 71.512C139.441 70.6695 139.986 69.9757 140.531 69.2818C140.531 69.2818 141.472 68.2906 142.265 68.4393C143.009 68.0924 145.338 67.8446 145.536 67.9932Z" fill="#C49C5B"/>
<path d="M93.2993 73.9414C95.0835 74.2388 96.7685 74.7344 98.4536 75.4282C98.751 75.5273 99.1474 75.7256 99.5439 75.8247L99.99 76.1221C100.684 76.5186 101.378 76.5681 101.923 77.0637C102.171 77.2124 102.518 77.3115 102.716 77.5098C107.92 80.4834 112.331 85.3403 115.205 90.4946C115.255 90.5937 115.354 90.8911 115.502 90.9407C115.651 91.4858 116.048 91.7832 116.246 92.3284C116.543 92.6257 116.692 93.3196 117.088 93.6169C117.782 94.7073 118.377 95.8967 119.071 96.9871C119.12 97.0862 119.319 97.5322 119.467 97.6313C120.26 98.8704 121.004 100.308 121.747 101.547C122.144 101.943 125.514 108.089 126.406 109.377C124.324 111.211 122.044 112.846 119.864 114.581C120.359 120.082 121.4 125.534 122.937 130.837C120.905 130.936 118.972 129.945 117.881 128.21C117.584 127.764 117.832 126.971 117.634 126.426C116.642 126.376 115.354 126.277 114.66 125.435C113.223 124.146 112.38 122.362 112.38 120.429C112.331 120.181 112.826 119.983 112.38 119.834C111.984 120.082 111.438 119.587 111.141 119.438C109.853 118.496 109.208 116.96 108.614 115.523C108.465 114.631 107.87 113.292 108.614 112.599C108.614 112.45 108.861 112.202 108.614 112.153C108.465 112.053 108.217 112.153 108.167 112.153H107.87C107.573 111.905 107.176 112.004 106.78 111.756C105.64 111.161 105.095 109.774 104.5 108.683C104.104 107.841 103.856 106.949 103.707 106.007C104.004 105.611 104.203 105.115 104.302 104.619C104.252 104.52 103.211 104.718 102.864 104.471C101.179 104.025 100.634 102.141 99.8909 100.853C99.5935 99.7129 98.9492 98.3748 99.2961 97.1853C98.751 97.0366 98.2554 96.8879 97.7597 96.6401C96.0747 94.3108 93.4975 92.7248 91.0195 91.238C88.938 90.2468 84.3288 87.6201 84.081 87.5706C82.1482 86.1333 80.5622 84.2996 79.3232 82.218C78.332 80.533 77.7373 78.3027 76.2009 77.1628C72.6821 76.7664 65.8428 76.6177 65.8428 76.7168C65.8428 76.7168 35.9082 75.1804 20.8418 74.4866C18.3638 74.2388 15.8362 74.1892 13.3086 74.0901C11.6731 73.8423 10.4836 72.9502 9.09595 72.0085C8.55078 71.5129 8.00562 70.9678 7.55957 70.373L93.2993 73.9414Z" fill="#C49C5B"/>
<path d="M293.475 70.5215C292.632 71.5623 291.641 72.4544 290.501 73.1482C289.51 73.6934 288.42 74.3872 287.181 74.1394C283.711 74.2881 226.419 77.0635 224.734 77.2122C222.355 79.3433 222.058 82.763 219.679 85.0427C218.242 86.6782 216.21 88.4129 214.079 89.3545C210.015 91.2874 205.554 93.2698 202.878 97.086C202.977 97.3833 202.63 97.3833 202.432 97.4824C202.184 97.4824 201.887 97.2346 201.639 97.1851C201.887 98.1763 201.54 99.3162 201.243 100.307C200.4 101.943 199.706 104.074 197.724 104.52L196.485 104.421C196.336 104.718 196.881 104.718 196.881 105.016C197.179 106.255 197.03 107.543 196.435 108.634C195.741 110.269 194.453 112.004 192.421 112.103C192.371 112.053 192.272 112.004 192.173 112.004C192.024 112.45 192.47 112.797 192.57 113.243C192.47 115.572 191.479 117.753 189.794 119.388C189.348 119.686 188.803 119.834 188.258 119.834C188.159 120.082 188.407 120.231 188.407 120.528C188.357 121.916 187.861 123.254 186.969 124.344C186.028 125.435 184.987 126.426 183.45 126.327C183.302 126.228 183.203 126.228 183.153 126.327C182.905 126.723 183.153 127.07 183.054 127.467C182.657 129.003 181.468 129.796 180.08 130.391C179.386 130.688 178.643 130.638 177.949 130.787L177.801 130.638C178.742 127.516 179.486 124.295 179.932 121.073L180.031 120.925C180.279 118.694 180.774 116.563 180.873 114.333C178.742 112.698 176.562 110.864 174.381 109.179C175.521 107.395 180.427 99.0684 181.121 97.8789C182.757 95.2027 186.325 89.4536 186.325 89.3049C189.199 84.3985 193.363 80.3345 198.269 77.5095C200.945 75.874 203.82 74.7342 206.843 74.0403C207.339 74.0899 291.492 70.4224 293.475 70.5215Z" fill="#C49C5B"/>
<path d="M156.439 72.6528C156.737 73.0493 158.669 78.0053 158.669 80.3842C158.917 82.1684 159.115 83.7543 159.413 85.4394C159.809 86.8271 159.958 88.2148 160.255 89.4042C160.255 89.7512 160.305 90.1477 160.404 90.4946C160.801 92.6752 161.346 94.8063 161.99 96.9374C159.314 97.9287 156.836 98.7216 154.308 99.7128C153.02 102.092 151.83 104.718 150.542 107.147L150.442 106.998L150.195 107.246C148.807 104.718 147.717 102.439 146.428 99.812C144.049 98.9694 141.521 98.226 139.242 97.3339C141.323 91.8327 142.017 84.0021 138.151 79.1452V78.9965C139.39 79.2443 140.53 79.7895 141.521 80.5329C142.265 80.7807 143.008 81.1772 143.653 81.6728C142.414 80.0373 140.431 79.1452 138.746 78.0549C137.111 77.0637 131.907 76.0725 131.213 75.9733C131.262 75.7255 134.88 75.8247 134.88 75.8247H137.16C134.88 74.5361 131.51 74.883 129.032 75.5769C128.735 75.7751 128.388 75.9238 128.041 76.0229C128.14 75.7255 130.37 73.5449 131.51 73.0493C132.65 72.7519 133.443 72.5041 134.682 72.7519C135.426 72.851 137.804 73.0493 138.35 73.2971C138.746 73.3466 139.192 73.4457 139.589 73.5944C139.737 73.7431 140.134 73.7431 140.282 73.8918C141.125 74.1396 142.562 74.6352 143.653 75.0317C143.9 74.9821 144.941 75.6264 145.239 75.7751C145.784 76.0725 146.081 77.0141 146.924 76.7167C147.617 76.3203 148.262 75.8742 148.856 75.329C149.302 75.0317 150.839 73.7431 151.334 73.4953C152.276 73.0493 153.119 72.5041 154.11 72.0581C154.358 71.9094 155.25 71.3642 155.498 71.6616C155.894 72.0085 156.142 72.3554 156.439 72.6528Z" fill="#C49C5B"/>
<path d="M110.497 76.1207H110.646C114.462 77.9544 117.782 80.482 120.062 84.2486C120.855 84.992 121.202 85.9832 121.846 86.9249C123.234 89.2542 124.522 91.6827 125.662 94.1112C127.298 96.4901 128.636 99.1168 130.024 101.545C130.618 102.784 131.411 103.676 131.808 105.014C130.718 106.105 129.479 107.096 128.19 107.939C127.397 107.096 126.901 105.857 126.208 104.965C122.59 98.6707 118.526 92.327 114.858 85.9337C114.561 85.785 114.462 85.2894 114.263 84.992C111.092 80.3829 106.78 76.765 101.725 74.3861C102.815 74.1383 103.806 74.3861 104.698 74.4852C106.681 74.7826 108.614 75.3277 110.497 76.1207Z" fill="#C49C5B"/>
<path d="M199.161 74.3364C193.015 77.4091 187.811 82.0678 184.59 88.1638C180.625 94.5075 172.398 107.74 172.398 107.74L168.929 104.965C169.226 103.974 182.36 81.3244 183.896 80.2837C185.531 78.6482 187.266 77.7561 189.249 76.5171C189.496 76.4179 193.213 74.8816 194.948 74.6833C196.336 74.3859 197.723 74.2868 199.161 74.3364Z" fill="#C49C5B"/>
<path d="M75.0115 79.4916C75.6062 80.5819 76.1514 81.7218 76.8452 82.713L21.5852 80.235C19.9001 79.7889 18.5125 78.4012 17.6699 76.9144C17.8682 76.7162 75.0115 79.4916 75.0115 79.4916Z" fill="#C49C5B"/>
<path d="M283.265 77.0137C282.62 78.3022 281.282 79.4917 279.944 80.2351C277.169 80.5325 226.914 82.7627 223.99 82.7627C223.99 82.4653 225.477 80.2351 225.824 79.4421C228.847 79.343 276.227 77.2615 283.265 77.0137Z" fill="#C49C5B"/>
<path d="M28.6724 82.8613C29.4653 82.9604 54.7412 84.0012 56.0793 84.1499C55.8315 84.5464 55.1872 86.6279 55.1872 86.6279C54.9394 86.7766 29.9609 86.0332 29.3166 84.8437C28.6228 84.2986 28.0281 83.6543 27.582 82.9109C27.929 82.8613 28.3254 82.8613 28.6724 82.8613Z" fill="#C49C5B"/>
<path d="M273.303 82.9102H273.402C273.402 82.9102 271.667 85.5369 270.081 85.5864C268.991 85.9829 253.181 86.7263 246.243 86.9741C246.144 86.4785 245.995 85.9829 245.747 85.5369C245.45 85.0413 245.152 84.5952 244.756 84.1987C245.103 84.1492 272.857 82.9102 273.303 82.9102Z" fill="#C49C5B"/>
<path d="M65.595 84.5487C66.1401 84.5487 76.3496 84.9947 78.0842 85.1434C78.8276 86.0851 79.6206 86.9772 80.364 87.8197C76.8948 87.671 64.1577 87.1258 63.4143 87.0763C63.3152 86.1842 63.0674 85.3417 62.6709 84.5983C62.8196 84.2018 64.9011 84.5487 65.595 84.5487Z" fill="#C49C5B"/>
<path d="M238.165 84.5469C237.818 85.092 237.62 85.7363 237.521 86.3806C237.471 86.6284 237.422 86.8267 237.471 87.0745C235.489 87.3223 233.506 87.2231 231.425 87.3223C230.136 87.4709 228.749 87.4709 227.361 87.6196C225.081 87.7187 222.752 87.7683 220.521 87.917C220.918 87.2727 221.513 86.9258 221.81 86.2815C222.207 85.9841 222.355 85.439 222.801 85.1416C226.766 84.9929 230.781 84.8442 235.092 84.6956C235.984 84.5964 237.124 84.5964 238.165 84.5469Z" fill="#C49C5B"/>
<path d="M59.3506 88.6113C60.336 88.6113 61.1348 87.8125 61.1348 86.8271C61.1348 85.8418 60.336 85.043 59.3506 85.043C58.3652 85.043 57.5664 85.8418 57.5664 86.8271C57.5664 87.8125 58.3652 88.6113 59.3506 88.6113Z" fill="#C49C5B"/>
<path d="M241.485 88.6113C242.471 88.6113 243.27 87.8125 243.27 86.8271C243.27 85.8418 242.471 85.043 241.485 85.043C240.5 85.043 239.701 85.8418 239.701 86.8271C239.701 87.8125 240.5 88.6113 241.485 88.6113Z" fill="#C49C5B"/>
<path d="M47.5552 88.7109C47.7039 88.8101 55.7822 89.1074 55.8318 89.157C56.2778 89.7021 56.6743 90.2473 57.2195 90.396C57.2195 90.4951 58.9045 91.189 59.2019 91.4863C59.1028 91.7837 49.1411 91.2385 47.4561 91.189C46.3162 90.7429 45.4736 89.7021 44.6807 88.8101C45.0276 88.6118 46.9605 88.9092 47.5552 88.7109Z" fill="#C49C5B"/>
<path d="M256.254 88.8574C255.66 89.8982 254.768 90.7407 253.727 91.3354C251.051 91.4841 242.13 91.7815 241.684 91.7319C241.981 91.4841 242.675 91.0381 242.675 91.0381C243.666 90.8398 244.558 90.2947 245.202 89.5017C245.748 89.4026 246.243 89.3035 246.788 89.2539C250.109 89.0061 252.983 88.9565 256.254 88.8574Z" fill="#C49C5B"/>
<path d="M83.5361 90.5428C84.5273 91.2862 86.8071 92.4756 86.8071 92.6243C83.8831 92.5252 69.4114 92.0791 65.7935 91.8809C65.1492 91.187 64.604 90.4436 64.1084 89.6507C64.1084 89.6011 83.2388 90.3941 83.5361 90.5428Z" fill="#C49C5B"/>
<path d="M236.677 89.7012C236.182 90.4941 235.637 91.2375 235.042 91.9314C231.077 92.0305 216.952 92.6252 214.028 92.6252C214.623 92.1792 217.299 90.2959 217.944 90.4941C220.422 90.2959 234.844 89.7012 236.677 89.7012Z" fill="#C49C5B"/>
<path d="M122.441 169.791C122.342 170.039 121.895 171.03 121.648 171.03C112.231 158.888 65.5452 96.8381 61.0352 90.6926C61.3325 90.3457 61.6299 90.0979 62.0264 89.9492L122.441 169.791Z" fill="#C49C5B"/>
<path d="M239.156 90.2458C239.305 90.6423 239.9 90.3945 239.701 90.9397C234.944 97.2834 179.436 170.484 178.99 171.029C178.593 170.782 178.296 170.336 178.296 169.89C181.963 164.735 238.314 90.6423 238.76 90.0476C239.008 89.998 238.908 90.2458 239.156 90.2458Z" fill="#C49C5B"/>
<path d="M52.6096 93.7654C52.6096 93.7654 59.3003 94.0132 59.8455 94.1619C59.5977 94.261 58.6064 95.5991 58.3091 96.0947C57.6152 96.1938 54.6912 95.9956 53.8486 95.946C52.8079 95.4504 51.9158 94.7566 51.0732 93.9636V93.7654C51.7175 93.6662 52.1636 93.8149 52.6096 93.7654Z" fill="#C49C5B"/>
<path d="M248.424 93.9134C248.87 93.9134 249.365 93.9134 249.812 94.0125C249.217 94.7064 248.473 95.2515 247.68 95.648C246.987 96.2427 243.369 96.1932 242.823 96.2427C242.278 95.6976 241.733 95.1028 241.287 94.4586C241.287 94.3099 247.829 93.8143 248.424 93.9134Z" fill="#C49C5B"/>
<path d="M69.3618 94.4592C69.7583 94.3601 91.0693 95.0044 91.5649 95.3018C92.1597 95.4009 92.5561 95.9956 93.2004 96.293C93.5474 96.5408 93.8447 96.7886 94.043 97.1355C87.501 97.0364 71.5425 96.4912 69.1636 96.3425C68.7175 95.7974 68.321 94.9548 67.875 94.4097V94.3105C68.321 94.3601 68.8662 94.3601 69.3618 94.4592Z" fill="#C49C5B"/>
<path d="M233.11 94.4583C232.713 95.1522 232.218 95.846 231.623 96.4407C223.545 96.6885 215.07 96.9859 206.843 97.1841C207.289 96.4407 208.131 96.0443 208.825 95.4991C209.271 95.4 209.767 95.053 210.312 95.1026C212.195 95.1026 232.466 94.3592 233.11 94.4583Z" fill="#C49C5B"/>
<path d="M163.13 99.9103C163.873 101.595 164.666 103.231 165.608 104.817C165.608 104.817 163.477 106.601 162.535 106.948C160.156 108.385 154.556 109.922 154.556 109.922C153.664 110.07 152.722 110.169 151.78 110.169L156.142 101.199C156.588 101.1 162.584 98.9687 162.832 99.0678C162.882 99.3652 162.981 99.613 163.13 99.9103Z" fill="#C49C5B"/>
<path d="M138.845 99.2659C138.845 99.2659 144.049 101.1 144.991 101.397C146.478 104.519 147.667 107.295 149.055 110.219C147.717 110.268 146.379 110.07 145.041 109.773C142.81 109.178 136.219 105.808 135.228 105.015C135.971 103.875 138.003 99.1667 138.052 99.1172C138.399 99.1172 138.548 99.2659 138.845 99.2659Z" fill="#C49C5B"/>
<path d="M212.988 105.807C211.501 107.988 209.419 109.623 206.991 110.614C205.355 109.474 203.819 108.235 202.233 107.145C201.589 106.699 200.945 106.154 200.399 105.708C201.985 104.469 203.175 102.784 203.77 100.851C203.918 100.702 203.819 100.306 204.067 100.107L212.988 105.807Z" fill="#C49C5B"/>
<path d="M96.9177 100.405C96.9673 100.802 99.1479 104.469 99.1479 104.469C99.5444 104.866 100.437 105.609 100.437 105.708C100.04 106.353 98.6028 107.146 98.6028 107.146C96.9673 108.286 95.53 109.525 93.9441 110.615C91.6643 109.624 89.4341 108.137 87.9473 105.857C87.9473 105.56 88.3933 105.411 88.5916 105.312C89.5828 104.618 90.4253 104.172 91.5156 103.379C92.0608 103.131 92.5564 102.784 92.9529 102.388C93.3494 102.14 94.4893 101.446 94.5884 101.446C94.8857 101.297 96.6699 100.306 96.9177 100.405Z" fill="#C49C5B"/>
<path d="M199.557 107.792C199.656 107.644 199.656 107.941 199.705 107.941C203.075 110.32 206.198 112.847 209.617 115.474C209.221 116.019 208.775 116.515 208.23 116.911C206.594 118.349 204.661 119.389 202.53 119.984C200.151 117.903 197.822 115.92 195.394 113.69C197.376 112.253 198.565 109.923 199.16 107.445C199.259 107.644 199.507 107.693 199.557 107.792Z" fill="#C49C5B"/>
<path d="M102.815 110.765C103.459 111.905 104.352 112.946 105.442 113.689C105.442 113.689 100.833 117.853 98.4539 119.884C96.3723 119.488 91.7632 116.019 91.2676 115.523C93.4978 113.739 99.2468 109.378 99.6433 109.179C100.337 108.634 101.626 107.544 101.774 107.643C102.022 108.733 102.369 109.774 102.815 110.765Z" fill="#C49C5B"/>
<path d="M200.548 121.221C200.548 121.221 203.621 123.897 204.364 124.591C203.77 125.285 199.012 128.11 196.98 128.258C195.146 125.78 193.213 123.5 191.28 121.022C191.677 120.626 192.024 120.229 192.371 119.783C193.015 119.337 194.006 117.107 194.056 116.562C194.303 116.265 194.155 115.967 194.204 115.67C196.484 117.553 198.417 119.288 200.548 121.221Z" fill="#C49C5B"/>
<path d="M106.631 116.761C107.176 117.901 108.861 120.825 109.406 121.073C109.406 121.073 105.491 125.929 103.756 128.259C102.517 128.11 101.278 127.714 100.138 127.119C100.138 127.119 97.2141 125.285 96.4707 124.591C96.6194 124.443 100.138 121.221 100.138 121.221C100.436 121.221 105.342 116.86 106.531 115.77C106.581 116.067 106.581 116.463 106.631 116.761Z" fill="#C49C5B"/>
<path d="M191.032 124.145C191.479 124.69 192.024 125.384 192.42 125.929V125.83C192.817 126.227 192.965 126.673 193.362 126.97C194.75 128.754 196.435 130.885 197.872 132.719C195.889 134.354 193.411 135.395 190.834 135.643C189.397 133.363 187.762 130.737 186.374 128.407C186.225 128.11 186.671 128.11 186.77 127.961C186.869 127.961 187.018 127.912 187.068 127.812C187.216 127.515 187.514 127.366 187.662 127.119C188.703 125.88 189.496 124.542 190.14 123.055C190.586 123.302 190.735 123.848 191.032 124.145Z" fill="#C49C5B"/>
<path d="M110.943 123.897C111.785 125.433 112.38 126.722 113.718 127.812C113.867 128.11 114.263 128.06 114.511 128.357C113.124 130.588 111.438 133.363 110.051 135.643C107.375 135.494 104.996 134.255 102.914 132.818C104.748 130.34 107.077 127.614 108.911 125.235C109.159 124.987 109.406 124.74 109.605 124.492C109.952 124.046 110.299 123.6 110.695 123.203C110.794 123.352 110.893 123.649 110.943 123.897Z" fill="#C49C5B"/>
<path d="M190.736 139.956C190.686 140.055 190.339 140.551 190.339 140.551C190.339 140.551 186.424 141.641 184.144 141.641C182.856 138.816 181.864 136.189 180.625 133.364C180.625 133.265 180.328 132.968 180.625 132.968C182.261 132.175 183.797 131.332 184.59 129.598C186.721 133.067 188.803 136.437 190.736 139.956Z" fill="#C49C5B"/>
<path d="M120.31 133.017C119.17 135.941 117.832 138.865 116.642 141.591C114.412 141.69 112.231 141.293 110.199 140.352C110.051 140.203 110.001 140.005 110.051 139.807C112.132 136.288 114.016 133.066 116.097 129.498C116.89 131.282 118.625 132.422 120.31 133.017Z" fill="#C49C5B"/>
<path d="M179.139 134.703C180.675 138.767 182.36 142.533 183.847 146.349C181.567 147.44 174.728 147.341 174.728 147.341C174.232 146.002 173.588 144.763 172.795 143.574C173.489 141.988 176.016 135.843 176.462 134.752C176.71 134.851 178.147 134.207 178.693 134.207C178.891 134.257 179.089 134.554 179.139 134.703Z" fill="#C49C5B"/>
<path d="M124.275 134.902C125.415 137.975 126.505 140.75 127.893 143.575C127.199 144.814 126.555 146.153 125.96 147.491C122.937 148.185 119.716 147.838 116.891 146.499C117.832 144.121 118.724 141.89 119.716 139.511C120.409 137.727 121.004 136.191 121.797 134.456C122.64 134.208 123.185 134.754 123.928 134.902H124.275Z" fill="#C49C5B"/>
<path d="M161.346 137.032C161.644 137.676 161.594 138.568 162.189 138.866C162.883 139.113 165.014 139.014 165.311 138.667C165.708 137.825 165.559 136.685 166.6 136.586C167.046 136.536 167.492 136.784 167.69 137.18C167.839 138.023 168.087 138.866 168.235 139.807C167.938 140.352 167.839 141.046 167.294 141.393C165.807 141.542 135.525 141.244 133.939 141.244C133.394 141.046 133.047 140.551 132.948 140.005C132.948 139.857 133.097 139.609 133.097 139.46C133.246 139.212 133.741 139.312 134.039 139.014C134.98 138.766 134.584 137.23 135.426 136.883C135.872 136.487 136.566 136.635 137.21 136.635C137.557 136.734 137.855 136.982 137.954 137.329C138.103 137.924 138.35 138.866 139.044 139.113C139.788 139.262 140.581 139.212 141.324 139.014C142.613 138.766 142.117 136.784 143.455 136.635C144.298 136.536 144.843 136.536 145.388 137.18C145.636 137.874 145.685 138.965 146.677 139.014L147.073 139.113C147.321 139.163 149.055 139.014 149.155 138.717C149.551 138.122 149.353 136.933 150.245 136.734C151.087 136.586 152.326 136.338 152.872 137.131C153.169 137.825 153.169 138.915 154.111 139.064C154.854 139.064 157.382 139.163 157.629 138.618C157.927 137.973 157.778 137.23 158.373 136.784L158.819 136.635C159.76 136.536 160.653 136.338 161.346 137.032Z" fill="#C49C5B"/>
<path d="M146.477 160.275L143.305 156.905L141.323 154.427L139.935 152.544L137.358 148.926L135.673 145.952L133.74 142.434H166.896L165.062 145.853L163.179 149.025L160.751 152.544L158.818 155.072L156.389 157.896L153.416 161.068L150.293 163.844L146.477 160.275Z" fill="white"/>
<path d="M102.121 174.597L102.567 174.994C103.112 175.44 103.856 175.936 104.5 176.382C105.194 176.927 105.739 177.075 106.334 177.621C107.474 178.414 108.713 179.058 109.853 179.752C110.249 180.198 112.231 180.743 112.529 181.189C113.272 181.685 114.016 182.081 114.809 182.428C114.809 182.478 114.858 182.478 114.858 182.478C116.147 183.023 119.864 184.609 119.913 184.708C120.012 185.848 120.161 186.839 120.905 187.781C121.598 187.384 122.193 186.839 122.738 186.244C122.937 185.996 123.234 185.947 123.531 186.095C124.076 186.343 133.493 188.871 133.989 189.02C135.723 189.317 144.198 190.556 145.883 190.556C146.973 190.705 159.215 190.259 160.949 189.961C161.197 189.862 164.865 189.416 166.252 189.02C167.244 188.871 176.363 186.343 177.552 185.897C178.097 186.839 178.791 187.136 179.535 187.83C180.377 187.136 180.675 185.897 180.675 184.757C181.071 184.609 188.109 181.288 188.109 181.288C188.356 181.437 198.07 175.242 199.706 173.904C199.755 173.904 212.443 188.772 212.542 189.317C202.679 197.147 191.38 202.996 179.237 206.514L179.138 206.564C174.033 208.199 168.73 209.29 163.427 209.885C161.941 210.182 160.057 210.281 158.422 210.479C155.746 210.529 148.758 210.777 148.658 210.876C147.122 210.876 135.475 209.785 131.015 209.042C120.657 207.06 111.24 203.442 102.171 198.684C97.3137 195.859 92.4072 192.935 88.0459 189.267C88.4424 188.326 100.386 173.606 100.535 173.557C101.031 173.755 101.576 174.3 102.121 174.597Z" fill="#C49C5B"/>
<path d="M200.945 182.281C202.878 185.552 203.918 189.814 202.729 193.63C202.382 194.472 201.886 195.216 201.193 195.761C200.598 196.108 199.954 196.405 199.26 196.604C197.277 197 195.642 197.892 193.511 197.892C196.336 197.297 198.913 195.91 200.895 193.828C202.878 191.697 203.026 188.228 201.837 185.7C201.094 184.015 200.152 182.181 198.368 181.042C198.219 181.339 198.615 181.785 198.615 182.281C199.557 184.362 200.053 186.592 200.053 188.872C199.607 188.03 199.755 186.89 199.458 185.799C198.665 183.668 197.773 181.537 196.782 179.505C196.534 178.91 196.237 178.117 196.484 177.572C197.922 178.811 200.003 180.298 200.945 182.281Z" fill="#231F20"/>
<path d="M106.284 180.743L107.375 180.694C107.325 180.644 107.226 180.743 107.325 180.941L107.226 180.892C106.879 181.239 106.482 181.536 106.086 181.833C105.789 181.933 104.996 181.833 104.797 181.933C104.104 181.784 103.41 181.734 102.716 181.784C102.865 181.189 103.509 180.941 103.955 180.545C104.649 180.545 105.491 180.743 106.284 180.743Z" fill="#231F20"/>
<path d="M194.551 182.032C195.691 183.172 195.939 185.006 195.79 186.641C196.186 186.79 196.484 186.344 196.88 186.245C197.178 186.046 197.525 185.947 197.872 185.947C198.615 186.938 197.723 188.227 197.425 189.317C197.128 190.408 196.038 190.953 195.294 191.696C194.402 192.192 193.609 192.737 192.816 193.381C192.668 193.629 192.222 193.778 192.42 194.075C193.163 194.373 193.956 193.827 194.551 193.778C194.254 194.472 194.551 195.463 193.808 195.76C192.023 196.603 191.528 198.387 190.14 199.676C189.545 200.022 188.802 200.072 188.158 199.824C186.919 199.081 186.869 197.445 187.067 196.157C186.919 195.859 186.522 196.206 186.374 196.206C186.126 196.256 185.878 196.355 185.68 196.504C185.134 196.9 184.441 197.594 183.697 197.792C183.251 199.428 183.301 201.162 182.161 202.5C181.467 203.492 180.377 204.136 179.187 204.334C178.444 204.384 177.75 204.037 177.254 203.492C177.007 203.046 176.808 202.55 176.709 202.054H176.461C175.966 203.393 174.875 204.483 173.537 204.979C172.992 205.375 172.447 205.276 171.753 205.623C171.357 205.524 170.911 205.771 170.514 205.672V205.771C170.217 205.722 169.969 205.722 169.672 205.771C168.73 205.771 167.838 205.672 166.896 205.474C166.748 205.425 166.896 205.425 166.847 205.325C169.275 205.573 172.001 204.929 173.835 203.492C176.808 201.509 176.511 197.594 177.552 194.521C177.849 194.075 177.998 193.282 178.692 193.431C179.237 193.976 178.939 194.819 178.84 195.512C178.692 195.512 178.394 195.364 178.246 195.562C177.155 196.801 177.7 198.387 177.106 199.725C176.858 200.518 177.056 201.41 177.651 202.005C178.394 202.6 179.385 202.649 180.178 202.253C181.566 201.559 182.607 200.369 183.003 198.883C182.855 198.635 183.003 198.337 182.706 198.288C182.557 198.139 182.409 198.337 182.409 198.139C182.26 198.387 181.963 198.387 181.715 198.387C181.318 198.288 180.922 198.04 180.724 197.693C180.624 196.851 180.773 195.959 181.17 195.215C181.863 194.918 182.656 195.612 183.152 196.206C183.549 196.157 183.895 196.058 184.242 195.81C184.193 194.422 184.441 193.084 185.035 191.795C185.283 191.647 185.481 191.002 185.878 191.349C186.621 191.597 186.869 192.341 186.968 193.134C186.968 193.431 186.671 193.877 186.968 194.224C188.108 193.431 188.951 192.142 188.802 190.755C188.554 189.962 188.505 188.921 188.059 188.277C187.662 187.285 186.919 186.443 185.977 185.997C185.977 185.848 185.828 185.997 185.927 185.947C185.382 185.699 185.184 186.344 184.936 186.641C184.688 187.484 184.49 188.475 184.688 189.268C184.54 189.813 184.738 190.507 184.391 190.903C183.648 190.11 184.242 188.822 184.242 187.831C184.54 186.542 184.391 184.758 185.729 184.014C187.117 184.114 187.959 185.154 188.653 186.096C189.099 187.137 189.397 188.277 189.496 189.417C189.496 191.548 189.05 194.026 187.662 195.463C187.365 196.206 187.513 197.049 187.959 197.693C188.405 198.288 189.347 198.288 190.091 198.09C190.834 197.644 191.429 196.999 191.776 196.256C191.23 195.166 191.776 193.778 192.469 192.935C193.708 191.102 195.988 190.259 197.475 188.624C197.525 188.425 197.475 188.177 197.326 188.029C196.087 188.177 195.641 189.02 194.551 189.565C194.055 190.011 193.51 190.408 192.866 190.656C192.767 190.556 192.915 190.358 192.717 190.358C193.015 189.912 192.965 189.218 193.312 188.723C194.055 188.029 195.84 187.434 195.146 185.947C194.997 185.452 194.749 184.956 194.402 184.56C194.105 184.56 194.254 185.154 194.105 185.501C194.155 186.046 194.006 186.592 193.708 187.038C193.56 186.492 193.857 186.096 193.808 185.501C193.659 184.114 193.56 182.726 194.204 181.487L194.501 181.189C194.749 181.487 194.501 181.883 194.749 182.181" fill="#231F20"/>
<path d="M100.138 185.005C99.841 185.402 99.2958 185.451 99.1471 185.848C98.9984 185.848 99.048 185.997 98.9984 185.997V186.046L98.8993 185.997C98.7011 186.244 98.4533 186.443 98.2055 186.591L98.1063 186.74C98.1063 186.641 98.0568 186.641 98.0568 186.74V186.79C97.7594 187.186 97.5116 187.236 97.3134 187.731H97.2142C96.7682 188.574 95.9752 189.664 96.7682 190.655C97.6107 191.101 98.0568 190.209 98.7011 189.714C99.494 189.02 100.237 188.029 101.08 187.335C101.179 187.384 101.229 187.236 101.328 187.186C102.17 186.492 102.963 185.501 104.252 185.749C104.401 186.096 104.401 186.492 104.252 186.839C103.261 188.276 102.567 190.358 103.657 192.142C107.027 196.454 112.578 198.436 117.831 198.734C120.309 198.981 122.738 197.891 125.117 197.792C125.266 197.941 125.662 198.04 125.513 198.387C125.513 198.783 124.77 199.13 125.365 199.626C126.356 200.072 127.149 198.932 127.892 198.684C127.942 198.833 127.744 199.081 127.595 199.229L126.802 200.072C127.248 200.518 128.041 200.22 128.586 200.22C128.983 200.171 128.883 199.527 129.032 199.279C129.875 198.188 130.717 197.148 131.857 196.503C132.452 196.256 133.542 196.057 134.236 196.503C134.632 196.9 134.236 197.742 134.93 197.891C135.673 198.04 136.417 197.842 136.912 197.296C137.259 196.305 137.358 195.215 137.21 194.174C136.962 194.025 137.061 194.323 136.912 194.422L135.871 195.512C136.714 194.075 137.011 192.142 138.548 191.151L138.696 191.25C138.449 192.687 138.994 194.174 138.449 195.611C138.151 196.9 137.21 197.842 136.516 198.585C136.268 198.684 136.02 198.833 135.822 199.031C135.128 199.427 134.385 199.576 133.592 199.477C133.195 199.229 133.294 198.635 133.146 198.238C132.898 197.792 132.254 197.842 131.758 197.842C131.461 197.99 131.163 197.842 130.816 198.139C130.568 198.188 130.37 198.337 130.271 198.585C130.222 198.783 130.37 199.031 130.568 199.081C131.114 199.229 131.708 199.229 132.254 199.13V199.378C131.708 199.923 131.262 200.815 130.42 200.667C129.627 200.716 129.131 201.36 128.289 201.41C127.644 201.608 127 201.757 126.306 201.806L126.058 201.658C125.91 201.806 125.513 201.757 125.315 201.757C124.919 201.459 124.175 201.459 123.828 200.766C123.779 200.171 124.373 199.527 123.779 199.13C123.63 199.081 123.184 199.229 122.936 199.13V199.229L122.837 199.13V199.229L122.787 199.13C122.639 199.279 122.193 199.279 121.945 199.378C121.697 199.378 121.449 199.427 121.251 199.527C120.656 199.378 120.161 199.923 119.616 199.824C119.17 199.923 118.724 199.973 118.228 199.973C116.692 200.072 115.155 199.973 113.619 199.725C113.371 199.774 113.222 199.576 112.925 199.626C112.727 199.427 112.479 199.378 112.231 199.378C111.835 199.13 111.389 199.229 110.992 198.981V199.031C109.703 198.436 108.167 197.891 106.68 197.098V197.049C106.135 196.801 105.54 196.355 104.995 196.057C104.549 195.611 104.004 195.364 103.707 194.769H103.558C103.261 194.323 102.715 193.926 102.319 193.332C102.022 192.737 101.873 192.043 101.922 191.349C101.675 190.754 101.972 189.961 102.319 189.268C102.468 188.524 103.112 187.88 102.864 187.037C101.724 186.79 101.08 188.029 100.386 188.326C99.5436 189.168 98.7506 190.308 98.0072 190.953C97.5612 191.498 97.0656 191.944 96.4708 192.34C96.0744 192.39 95.7274 192.192 95.5292 191.894C94.7362 189.763 96.7682 187.83 98.0072 186.542C98.6019 185.947 99.2958 185.402 99.9896 184.906L100.138 185.005Z" fill="#231F20"/>
<path d="M118.228 185.997C118.773 186.046 118.922 186.443 119.318 186.641V186.691L119.071 186.641C119.071 186.691 119.021 186.691 118.922 186.79C118.575 186.74 118.278 186.691 117.931 186.691C117.683 186.79 117.485 186.542 117.138 186.691C116.692 186.542 115.75 186.691 115.354 186.542C115.304 186.691 115.205 186.443 115.106 186.542C114.61 186.492 114.065 186.443 113.569 186.443C113.173 186.195 112.628 186.443 112.182 186.195L111.19 186.096C111.19 186.195 111.091 186.096 111.042 186.096H110.943C110.744 186.245 110.497 186.046 110.249 186.096H109.803C110.497 185.65 111.339 185.699 112.083 185.551C114.015 185.65 116.345 185.799 118.228 185.997Z" fill="#231F20"/>
<path d="M110.199 188.029C109.654 188.327 109.208 188.822 108.96 189.417H108.861C108.465 189.813 109.555 190.507 108.712 190.656H108.613C108.465 190.755 108.316 190.953 107.969 190.904C107.672 190.606 107.92 190.21 107.969 189.813C108.564 189.021 109.307 188.426 110.199 188.029Z" fill="#231F20"/>
<path d="M116.296 190.211C116.543 190.508 116.89 190.459 117.287 190.459C117.584 190.31 117.683 189.914 118.08 190.013C118.179 190.26 117.683 190.409 117.832 190.607C118.377 190.855 119.021 190.707 119.368 190.211H119.517C119.517 190.459 119.368 190.657 119.121 190.756L119.17 190.806C118.625 191.5 118.03 191.648 117.089 191.648C116.841 191.252 116.246 191.4 115.85 191.351C115.8 191.202 115.602 191.351 115.552 191.202C115.304 191.004 115.255 190.707 115.304 190.409C115.552 189.914 115.998 189.567 116.543 189.418C116.692 189.765 116.296 189.864 116.296 190.211Z" fill="#231F20"/>
<path d="M166.55 189.963C166.104 190.409 165.46 190.657 165.014 191.103C164.766 191.202 164.568 191.351 164.32 191.4C161.495 193.234 158.224 194.473 155.647 196.257L155.201 196.554C155.052 196.406 155.3 196.257 155.3 196.108C157.679 193.581 160.801 192.639 163.725 190.905C164.617 190.508 165.609 190.161 166.55 189.963Z" fill="#231F20"/>
<path d="M137.309 190.26V190.408C136.665 190.854 135.922 191.003 135.178 190.805C135.03 190.805 134.633 190.954 134.583 190.805C133.84 190.904 133.047 191.102 132.304 190.904V190.805C133.939 190.26 135.624 190.26 137.309 190.26Z" fill="#231F20"/>
<path d="M172.993 191.499C174.133 194.968 172.745 198.339 170.763 200.866C169.524 202.403 167.64 203.542 165.757 204.484L165.658 204.385C165.36 204.831 164.518 204.831 163.973 205.128H163.824C163.576 205.178 163.279 205.376 162.982 205.426C161.396 205.872 159.76 206.12 158.125 206.268C156.935 206.318 155.696 206.268 154.507 206.02C154.408 205.921 154.209 206.02 154.11 205.921C153.912 205.822 153.714 205.723 153.516 205.674C152.524 204.93 151.533 204.385 151.285 202.898C150.988 202.204 150.889 201.461 150.591 200.767C150.591 200.717 150.443 200.519 150.294 200.47C149.6 200.618 149.204 201.461 149.154 202.006C148.609 203.79 149.105 206.07 148.312 207.854C148.064 208.102 148.014 208.399 147.568 208.399C146.974 208.399 146.428 207.755 146.181 207.259C145.735 205.723 145.933 203.988 146.032 202.353C146.23 201.411 146.527 200.47 146.974 199.627H147.023C146.577 201.362 146.032 203.146 146.329 204.98C146.28 205.574 146.627 206.169 147.172 206.417C147.469 206.566 147.717 206.367 147.866 206.169C149.006 203.691 148.163 200.47 150.096 198.636C150.344 198.636 150.492 198.388 150.74 198.537C151.731 199.776 151.285 201.61 152.425 202.749C153.714 204.187 155.795 204.137 157.629 204.385C159.463 204.236 161.247 203.939 162.982 203.443C167.046 202.353 171.11 199.974 172.596 195.861C172.844 194.869 172.547 194.126 172.2 193.085C172.051 192.837 171.803 193.184 171.803 193.234C171.556 194.175 171.407 195.216 171.11 196.158L171.01 196.257C171.308 194.324 171.407 192.243 172.002 190.31C172.101 190.26 172.15 190.062 172.299 190.26C172.695 190.657 172.894 191.053 172.993 191.499Z" fill="#231F20"/>
<path d="M131.807 191.795C131.857 191.943 131.857 192.191 131.758 192.241C131.361 192.538 130.915 192.786 130.519 193.083C130.221 192.885 129.924 192.687 129.676 192.389C129.379 192.29 129.131 192.042 128.982 191.745C129.28 191.25 129.726 190.903 130.271 190.754C130.816 191.051 131.361 191.398 131.807 191.795Z" fill="#231F20"/>
<path d="M142.017 191.102C142.959 194.273 143.157 197.693 142.265 200.716C142.017 200.766 142.166 200.964 142.116 201.113C141.026 203.393 140.035 206.564 137.606 207.704C137.16 208.051 136.665 208.25 136.169 208.299C134.633 208.696 133.394 208.002 132.204 207.209C131.808 207.06 131.411 206.862 131.064 206.664C130.916 206.416 130.618 206.614 130.371 206.366C129.925 206.069 129.528 205.771 129.132 205.425V205.474L129.082 205.325C131.758 207.11 136.219 207.457 138.895 205.425C141.869 203.145 142.513 198.833 141.72 195.116C141.72 194.819 141.67 194.373 141.323 194.174C140.58 196.008 140.382 198.238 139.688 200.022C139.291 200.469 139.242 201.162 138.845 201.41C138.895 200.419 139.688 199.626 139.738 198.734C140.283 196.603 140.431 194.422 141.125 192.44C141.125 192.192 141.423 192.142 141.522 191.895C141.621 191.647 141.571 191.201 142.017 191.102Z" fill="#231F20"/>
<path d="M198.863 192.639C198.566 193.035 198.169 193.58 197.872 194.026C197.376 193.927 196.93 193.729 196.484 193.481C196.435 192.886 196.782 192.49 197.029 191.945C197.178 191.846 197.327 191.796 197.475 191.846C197.922 192.143 198.417 192.44 198.863 192.639Z" fill="#231F20"/>
<path d="M150.393 192.241C150.095 192.885 150.095 193.678 149.451 194.074C149.054 194.62 148.361 194.768 147.815 195.214C147.518 195.462 147.171 195.611 146.824 195.76C146.775 195.363 146.824 194.917 146.973 194.52C147.221 193.678 148.212 193.579 148.807 193.034C149.352 192.786 149.748 192.241 150.194 191.943C150.293 192.042 150.393 192.092 150.393 192.241Z" fill="#231F20"/>
<path d="M186.126 194.126C186.126 194.423 185.878 194.423 185.68 194.522C185.383 194.522 185.135 194.374 184.986 194.126C184.837 193.828 185.135 193.531 185.383 193.283C185.829 193.333 185.977 193.828 186.126 194.126Z" fill="#C49C5B"/>
<path d="M165.806 193.779C165.855 194.324 165.756 194.869 165.508 195.414C165.409 195.414 165.36 195.414 165.36 195.513C165.112 195.513 164.963 195.811 164.666 195.959L163.377 196.554C163.229 196.505 162.832 196.505 162.584 196.257C162.683 195.613 162.287 194.621 162.981 194.274C163.278 194.522 162.931 195.414 163.675 195.266C163.922 195.167 164.071 195.167 164.22 194.869C164.369 194.572 164.071 194.027 164.517 193.779C164.765 194.027 164.517 194.572 164.815 194.77C164.963 194.621 165.261 194.621 165.36 194.374C165.608 193.927 165.112 193.283 165.756 193.283L165.806 193.779Z" fill="#231F20"/>
<path d="M119.071 202.302C118.625 202.749 118.079 203.095 117.534 203.393C116.84 203.542 115.849 203.294 114.907 203.244L114.858 203.195C114.709 203.244 114.412 203.095 114.164 203.095C113.867 202.996 113.52 203.095 113.371 202.798C113.52 202.352 114.065 201.956 114.461 201.658C116.097 201.906 117.534 202.352 119.071 202.302Z" fill="#231F20"/>
<path d="M135.97 201.857C135.723 202.303 135.177 202.848 134.979 203.245C134.236 203.492 133.344 203.938 132.352 203.839V203.79C131.857 203.889 131.361 203.938 130.866 203.839C130.717 203.393 131.163 203.096 131.411 202.749L131.807 202.353C133.096 202.204 134.583 202.501 135.822 201.758L135.97 201.857Z" fill="#231F20"/>
<path d="M165.311 206.467C165.063 207.161 164.865 207.904 164.221 208.301C163.081 208.896 161.842 209.342 160.603 209.688C160.355 209.788 160.454 209.391 160.454 209.242C160.702 208.796 160.752 208.103 161.297 207.855C162.684 207.607 163.973 207.111 165.162 206.318L165.311 206.467Z" fill="#231F20"/>
<path d="M129.132 149.521C128.884 150.016 128.537 150.462 128.141 150.809C127.992 150.76 127.992 150.958 127.843 150.958C127.843 151.106 127.596 151.057 127.695 151.206L127.397 151.255C127.001 149.867 127.397 148.331 128.488 147.34C129.033 147.935 129.281 148.728 129.132 149.521Z" fill="#C49C5B"/>
<path d="M173.29 151.057L173.241 151.206C172.448 150.809 171.853 150.115 171.556 149.273C171.456 148.579 171.704 147.835 172.249 147.34C173.389 148.083 173.538 149.818 173.29 151.057Z" fill="#C49C5B"/>
<path d="M170.564 153.435C170.415 153.831 170.217 154.178 169.969 154.525C169.721 153.732 169.126 152.84 169.572 152.146L170.266 151.254C170.762 151.849 170.911 152.691 170.564 153.435Z" fill="#C49C5B"/>
<path d="M131.262 153.436C131.064 153.783 130.915 154.13 130.816 154.526C130.568 154.427 130.37 153.931 130.122 153.535C129.924 153.039 129.924 152.445 130.023 151.899L130.42 151.305C130.965 151.899 131.559 152.593 131.262 153.436Z" fill="#C49C5B"/>
<path d="M173.935 152.99C174.232 153.982 173.786 155.122 173.389 156.162C172.745 155.915 172.25 155.369 172.15 154.676C172.2 153.932 172.299 153.189 172.448 152.445C172.993 152.544 173.439 152.743 173.935 152.99Z" fill="#C49C5B"/>
<path d="M128.438 153.733C128.537 154.278 128.586 155.121 128.14 155.567C127.942 155.864 127.645 156.112 127.298 156.162C126.802 155.17 126.653 154.08 126.753 153.039C127.149 152.742 127.843 152.742 128.19 152.494C128.289 152.891 128.339 153.337 128.438 153.733Z" fill="#C49C5B"/>
<path d="M168.037 156.805C167.938 156.954 167.492 157.103 167.74 157.449C167.69 157.499 167.591 157.499 167.442 157.449C167.294 156.805 166.748 156.31 166.996 155.665C167.541 155.467 167.988 155.071 168.235 154.525C168.83 155.12 168.434 156.111 168.037 156.805Z" fill="#C49C5B"/>
<path d="M132.799 154.974C132.898 155.271 133.245 155.42 133.493 155.569C133.592 155.717 133.79 155.717 133.79 155.965C133.641 156.51 133.542 157.254 133.047 157.601C132.948 157.501 132.898 157.353 132.997 157.204C132.452 156.56 132.006 155.668 132.353 154.825C132.402 154.379 132.749 154.676 132.799 154.974Z" fill="#C49C5B"/>
<path d="M170.762 156.806C170.96 157.5 170.861 158.194 170.465 158.789C169.969 158.541 169.821 157.946 169.672 157.302C169.672 156.856 169.969 156.559 170.068 156.162C170.366 156.311 170.564 156.509 170.762 156.806Z" fill="#C49C5B"/>
<path d="M130.817 156.757C131.213 157.302 130.867 157.896 130.718 158.392C130.569 158.59 130.42 158.789 130.272 158.937C129.875 158.392 129.677 157.698 129.826 157.004C129.974 156.707 130.222 156.509 130.52 156.311L130.767 156.856L130.817 156.757Z" fill="#C49C5B"/>
<path d="M175.372 159.184C175.223 159.383 175.124 159.779 174.925 159.928C174.182 159.531 172.993 159.779 172.646 158.837C172.596 158.441 172.398 158.243 172.596 157.846C173.191 157.846 173.538 158.292 174.083 158.441L174.38 157.698L174.826 157.152C175.223 157.747 175.421 158.49 175.372 159.184Z" fill="#C49C5B"/>
<path d="M126.605 158.144C126.605 158.293 126.605 158.541 126.753 158.59C126.902 158.64 127.001 158.293 127.298 158.194C127.596 158.194 127.745 157.797 128.141 157.946C128.24 158.342 128.141 158.788 127.893 159.086C127.447 159.68 126.357 159.68 125.762 160.027C124.92 159.185 125.465 158.094 125.861 157.252C126.208 157.45 126.357 157.797 126.605 158.144Z" fill="#C49C5B"/>
<path d="M166.054 158.145C166.054 158.739 165.955 159.334 165.756 159.929L165.509 160.325C164.964 159.681 164.815 158.789 165.211 158.045C165.36 157.798 165.459 157.401 165.756 157.352C165.905 157.599 166.103 157.798 166.054 158.145Z" fill="#C49C5B"/>
<path d="M135.723 158.49C135.624 159.085 135.624 159.779 135.277 160.324C135.029 160.423 135.128 160.026 134.979 160.026L135.029 159.977C134.781 159.283 134.335 158.143 134.979 157.449C135.475 157.499 135.425 158.193 135.723 158.49Z" fill="#C49C5B"/>
<path d="M168.879 159.829C169.127 160.225 168.731 160.522 168.83 160.77C168.83 161.068 168.78 161.315 168.582 161.563C168.186 161.266 168.136 160.869 167.789 160.423C167.69 159.977 167.789 159.482 168.086 159.135C168.384 159.184 168.78 159.482 168.879 159.829Z" fill="#C49C5B"/>
<path d="M132.947 159.979C132.947 160.623 132.452 160.92 132.402 161.465L132.105 161.614L132.154 161.465C131.857 161.465 131.906 161.168 131.857 161.019C131.956 160.623 131.559 160.177 131.857 159.78C132.154 159.532 132.253 159.235 132.551 159.186C132.798 159.285 132.799 159.681 132.947 159.979Z" fill="#C49C5B"/>
<path d="M94.9842 160.424C95.9754 160.721 97.1648 160.969 98.0569 161.366L103.112 163.596C103.409 163.844 108.762 167.759 110.199 169.048C109.258 169.345 101.774 170.287 100.535 170.485C99.5437 171.327 98.7507 172.715 97.8587 173.706C95.3311 176.68 93.0017 179.753 90.3255 182.825C89.4829 182.429 88.7891 181.735 88.0457 181.388C87.7483 181.239 87.7979 180.793 88.0457 180.546C89.4334 178.315 91.0193 176.036 92.5557 173.855C93.0017 172.715 93.646 172.021 94.2407 171.03C95.6284 169.048 97.0161 167.016 98.2056 165.033C98.3543 164.438 98.8003 163.943 98.6516 163.249C98.6021 162.952 98.8003 162.406 98.4038 162.307C98.2056 162.456 98.2056 162.902 98.0073 163.15C97.3631 164.042 96.3223 164.538 95.232 164.538C94.8355 164.637 92.5557 162.605 92.6052 161.415C92.6548 160.622 93.1504 160.474 93.6956 160.176C94.2407 160.127 94.4885 160.523 94.9842 160.424Z" fill="#C49C5B"/>
<path d="M207.834 160.82C208.28 161.415 207.983 162.356 207.685 162.951C207.09 163.645 206.545 164.388 205.554 164.488C204.414 164.636 203.324 164.091 202.729 163.199C202.58 162.951 202.68 162.505 202.333 162.356C201.936 162.307 202.283 162.654 202.085 162.802C201.986 163.496 202.134 164.19 202.58 164.785C203.126 166.073 204.166 167.412 205.058 168.75C206.198 170.683 211.749 178.711 213.038 180.942C212.294 181.685 211.452 182.28 210.51 182.726C210.114 182.478 201.292 171.525 200.598 170.683C199.656 170.137 192.52 169.394 192.52 169.394L190.587 169.097C190.488 169.047 193.065 166.718 194.106 165.776C197.922 163.05 202.283 161.167 206.843 160.176C207.14 160.424 207.586 160.324 207.834 160.82Z" fill="#C49C5B"/>
<path d="M171.456 160.672C171.357 161.267 170.613 161.267 170.167 161.663C170.018 161.316 170.018 160.87 170.167 160.523C170.415 160.424 170.564 160.523 170.613 160.275C170.861 160.275 171.307 160.375 171.456 160.672Z" fill="#C49C5B"/>
<path d="M130.569 160.821L130.47 161.664C130.073 161.465 129.082 161.267 129.231 160.672C129.28 160.474 129.627 160.524 129.776 160.375C130.024 160.425 130.519 160.375 130.569 160.821Z" fill="#C49C5B"/>
<path d="M167.045 161.86C167.095 162.604 166.699 163.248 166.054 163.644C166.054 162.851 165.806 161.959 166.599 161.414C166.897 161.414 166.946 161.711 167.045 161.86Z" fill="#C49C5B"/>
<path d="M176.462 162.06C175.719 163.001 174.38 162.803 173.389 163.348C171.308 164.191 169.573 165.727 167.244 166.124C166.798 166.124 166.649 165.578 166.55 165.281C166.847 164.885 167.491 164.587 167.69 164.141C168.532 164.141 169.672 163.992 170.316 163.299C171.01 163.398 172.001 163.596 172.448 162.902C172.497 162.704 172.894 162.307 172.894 161.911C173.24 161.812 173.587 161.762 173.984 161.762C174.777 161.812 175.57 161.713 176.264 161.465C176.412 161.614 176.462 161.812 176.462 162.06Z" fill="#C49C5B"/>
<path d="M134.633 162.207C134.93 162.604 134.484 163.149 134.732 163.446L134.633 163.694C134.335 163.694 134.088 163.248 133.889 163C133.741 162.653 133.642 162.306 133.642 161.91C133.889 161.067 134.484 161.86 134.633 162.207Z" fill="#C49C5B"/>
<path d="M127.298 161.813C127.397 161.912 127.595 161.912 127.843 161.912C127.992 162.507 128.091 163.349 128.834 163.448C129.38 163.547 129.925 163.498 130.42 163.3C131.065 164.241 131.957 164.142 132.948 164.241C133.245 164.638 133.592 164.985 134.038 165.232C134.187 165.53 133.89 165.827 133.791 166.075C133.097 166.224 132.403 166.075 131.808 165.678L131.709 165.728C131.461 165.53 131.164 165.381 130.866 165.332V165.282C129.033 164.142 127.05 163.25 124.969 162.705C124.622 162.655 124.324 162.407 124.176 162.11L124.324 161.664C125.316 161.862 126.307 161.912 127.298 161.813Z" fill="#C49C5B"/>
<path d="M92.0107 164.785C92.5559 165.479 93.7949 165.726 94.5383 166.073C94.8357 165.974 95.1331 166.321 95.48 166.123C95.1826 166.718 88.7893 176.382 85.8652 180.694C84.5767 181.239 83.0898 180.396 82.0986 179.405L81.3057 178.166C81.5535 177.373 90.6726 164.14 90.9204 163.496C91.3664 163.893 91.416 164.487 92.0107 164.785Z" fill="#C49C5B"/>
<path d="M210.064 163.942C211.204 165.627 219.729 178.117 219.134 178.811C218.291 180.05 216.656 181.14 214.921 180.793C211.948 176.432 208.924 171.723 205.951 167.312C205.752 166.916 205.505 166.569 205.257 166.222C205.901 166.073 206.545 166.123 207.041 165.776C207.091 165.776 210.163 163.695 210.064 163.942Z" fill="#C49C5B"/>
<path d="M157.282 166.322C158.422 171.228 159.512 175.837 160.503 180.744C161.049 183.123 161.742 185.105 162.04 187.434L158.571 187.88C158.372 187.583 158.323 187.236 158.323 186.889C157.183 180.496 156.192 173.855 155.25 167.412C155.795 166.768 156.439 166.123 157.084 165.578C157.332 165.727 157.282 166.123 157.282 166.322Z" fill="#C49C5B"/>
<path d="M144 166.023C144.446 166.568 145.09 166.865 145.487 167.559C144.496 173.903 143.554 180.148 142.414 186.442L142.117 187.978C140.927 187.978 139.787 187.78 138.647 187.433C139.341 183.419 141.175 175.638 141.175 175.638C141.324 175.638 141.423 175.241 141.423 175.241L141.572 174.646C142.166 171.574 142.959 168.749 143.554 165.676C143.802 165.577 143.752 165.973 144 166.023Z" fill="#C49C5B"/>
<path d="M175.768 169.79C176.313 170.881 177.057 171.773 176.908 173.111C176.512 173.805 175.768 174.251 174.975 174.251C174.133 174.102 173.34 173.854 172.894 173.111C172.547 171.723 172.448 170.286 172.497 168.898C172.596 168.651 172.696 168.403 172.795 168.205C173.241 167.808 173.786 167.56 174.43 167.61C175.372 168.006 175.372 169.047 175.768 169.79Z" fill="#C49C5B"/>
<path d="M127.645 168.105C127.793 168.353 128.091 168.65 127.893 168.848C128.041 168.848 128.19 168.948 128.19 169.096C128.19 170.385 127.793 171.921 127.645 173.259C127.149 173.854 126.455 174.25 125.662 174.35C124.869 174.201 123.977 173.904 123.729 173.111C123.581 171.178 125.018 170.434 125.365 168.749C125.464 168.254 125.761 167.857 126.208 167.609C126.753 167.659 127.248 167.808 127.645 168.105Z" fill="#C49C5B"/>
<path d="M153.911 168.701C154.803 174.995 155.894 181.438 156.736 187.98C156.042 188.178 155.348 188.228 154.655 188.228C153.713 182.182 153.267 176.086 152.523 170.039C152.821 169.494 153.267 169.048 153.812 168.751H153.911V168.701Z" fill="#C49C5B"/>
<path d="M148.213 170.039C147.519 175.887 146.825 182.38 146.082 188.327C145.388 188.327 144.694 188.277 144 188.178C144.099 185.898 144.595 183.718 144.843 181.438C145.586 177.126 146.082 173.211 146.825 168.85H146.974L148.213 170.039Z" fill="#C49C5B"/>
<path d="M110.645 170.883C110.497 171.577 108.564 175.095 108.266 175.938C108.266 175.938 104.351 173.559 102.666 172.122C104.351 171.626 109.951 170.932 110.645 170.883Z" fill="#C49C5B"/>
<path d="M193.66 171.377C195.146 171.526 196.633 171.774 198.12 172.17C196.286 173.459 194.453 174.846 192.619 175.986C191.677 174.301 190.785 172.616 189.992 170.832C189.992 170.882 192.421 171.328 193.66 171.377Z" fill="#C49C5B"/>
<path d="M151.384 171.724C151.929 177.027 152.474 182.677 152.97 188.228C152.276 188.475 151.681 188.327 150.888 188.376C150.591 188.525 150.343 188.128 150.145 188.475C149.203 188.376 148.708 188.475 147.667 188.376C148.113 182.677 148.807 176.779 149.451 171.129C149.897 171.228 150.046 171.575 150.442 171.823C150.442 171.427 150.839 171.228 151.136 170.98C151.334 171.08 151.285 171.476 151.384 171.724Z" fill="#C49C5B"/>
<path d="M182.905 173.607C183.598 173.657 184.837 173.657 185.383 174.202L185.482 174.153C185.928 174.4 186.423 174.45 186.423 175.144C186.423 175.54 186.225 175.887 185.878 176.085C183.499 176.779 181.219 176.135 179.039 175.243C178.791 175.193 178.593 174.995 178.593 174.797C179.683 174.053 180.972 173.657 182.26 173.707L182.905 173.607Z" fill="#C49C5B"/>
<path d="M120.013 173.854C120.806 174.102 121.5 174.449 122.144 174.945C121.153 175.738 119.716 176.085 118.328 176.332C117.039 176.481 115.701 176.481 114.561 175.886C114.413 175.539 114.363 175.093 114.512 174.747C114.908 174.201 115.503 174.201 116.048 173.904C117.287 173.458 118.675 173.706 120.013 173.854Z" fill="#C49C5B"/>
<path d="M171.456 175.093C171.655 175.341 172.2 175.242 172.448 175.639C172.497 175.936 172.844 176.233 172.596 176.63C171.754 177.72 170.366 177.175 169.226 177.571C168.83 177.522 168.384 177.819 167.937 177.522C167.69 177.274 167.194 177.373 167.194 176.977C167.045 176.828 167.045 176.58 166.946 176.432C167.095 175.837 167.888 175.688 168.235 175.292C168.483 175.292 168.681 175.192 168.83 174.994C169.722 174.945 170.614 174.598 171.456 175.093Z" fill="#C49C5B"/>
<path d="M133.345 175.936C133.642 176.135 133.741 176.531 133.593 176.878C133.444 177.423 132.849 177.324 132.453 177.572C131.214 177.572 129.975 177.473 128.785 177.275C128.339 176.977 127.992 176.729 127.992 176.333C128.091 176.234 127.992 176.085 128.091 176.085C128.24 175.788 128.488 175.243 129.033 175.243C129.182 175.342 129.281 175.094 129.429 174.995C130.668 174.549 132.304 175.143 133.345 175.936Z" fill="#C49C5B"/>
<path d="M178.444 178.464C178.592 179.158 179.137 179.753 179.137 180.447C178.493 181.141 177.551 181.537 176.61 181.537C176.065 180.843 175.966 179.852 175.619 179.01C175.47 178.316 174.677 177.721 175.222 176.928C175.52 176.928 175.619 176.779 175.767 176.779C177.006 176.978 177.998 177.275 178.444 178.464Z" fill="#C49C5B"/>
<path d="M125.414 177.076C125.959 177.77 125.117 178.315 125.018 178.91C124.77 179.802 124.423 180.694 124.027 181.536C123.035 181.586 122.094 181.189 121.499 180.396C121.598 179.901 121.796 179.455 122.044 179.009C122.143 178.662 122.242 178.365 122.441 178.067C122.837 177.225 124.027 176.927 124.82 176.828C124.968 176.927 125.266 176.828 125.414 177.076Z" fill="#C49C5B"/>
<path d="M112.925 177.92C113.074 178.019 113.024 178.316 112.925 178.366C112.727 178.861 112.331 179.258 111.835 179.506C111.785 178.861 111.884 178.267 112.083 177.672C112.479 177.672 112.628 177.969 112.925 177.92Z" fill="#C49C5B"/>
<path d="M188.802 178.91C188.802 179.158 188.852 179.455 188.703 179.654C188.307 179.059 187.563 178.811 187.613 177.969L187.761 178.117C187.761 177.869 188.307 177.82 188.505 177.721C188.802 178.117 188.901 178.514 188.802 178.91Z" fill="#C49C5B"/>
<path d="M166.401 178.909C165.856 179.207 165.41 179.901 164.964 180.297C165.113 179.554 164.914 178.463 165.658 178.166C165.955 178.315 166.252 178.612 166.401 178.909Z" fill="#C49C5B"/>
<path d="M135.624 179.753C135.624 179.901 135.574 180.05 135.475 180.149C135.079 179.703 134.682 179.257 134.187 178.91C134.434 178.613 134.682 178.365 134.93 178.117C135.574 178.464 135.624 179.009 135.624 179.753Z" fill="#C49C5B"/>
<path d="M172.299 179.604C170.713 181.983 168.929 184.114 167.244 186.443C166.6 186.691 165.956 186.84 165.262 186.889C166.55 185.056 167.938 183.371 169.326 181.438V181.487C169.772 180.645 170.416 179.901 171.159 179.356C171.259 179.307 171.308 179.455 171.308 179.307C171.655 179.505 172.101 179.307 172.299 179.604Z" fill="#C49C5B"/>
<path d="M130.023 179.851C130.321 180.148 130.569 180.446 130.767 180.792C132.204 182.775 133.939 184.956 135.376 186.988C134.236 186.74 132.948 186.839 132.551 185.55C131.262 183.717 129.577 181.635 128.239 179.653C128.685 179.553 129.131 179.504 129.627 179.504L130.023 179.851Z" fill="#C49C5B"/>
<path d="M179.287 184.065C179.237 184.462 179.534 185.354 178.989 185.503C178.741 185.106 178.246 184.66 178.394 184.065C178.394 183.966 178.692 183.917 178.791 183.867C178.94 183.917 179.237 183.818 179.287 184.065Z" fill="#C49C5B"/>
<path d="M122.143 184.758C122.044 185.105 121.796 185.402 121.548 185.6C121.251 185.204 121.399 184.51 121.399 183.965C121.647 183.866 121.945 183.866 122.192 183.965C122.143 184.213 121.994 184.51 122.143 184.758Z" fill="#C49C5B"/>
<path d="M155.349 212.957C159.265 218.31 167.938 229.461 168.186 229.907C168.136 230.304 167.739 230.353 167.343 230.502C166.6 230.948 157.728 218.607 153.516 212.908C154.209 213.057 154.804 212.759 155.349 212.957Z" fill="#C49C5B"/>
<path d="M147.023 213.156C145.883 214.742 136.566 226.687 133.84 230.503C133.394 230.503 132.7 230.503 132.452 230.106C132.304 229.858 132.452 229.66 132.601 229.412C136.665 224.06 141.125 218.36 145.338 213.008C145.883 213.008 146.428 213.057 147.023 213.156Z" fill="#C49C5B"/>
<path d="M148.113 160.126C148.758 159.234 149.947 158.837 151.037 159.234C151.632 159.531 152.177 159.928 152.623 160.374L151.483 161.365C150.889 160.275 150.145 160.671 150.145 160.671C149.749 160.671 149.352 160.869 149.104 161.167L148.113 160.126Z" fill="#00ADEF"/>
<path d="M144.099 156.012C144.892 155.368 146.031 156.21 146.031 156.21C146.428 156.458 146.775 156.805 147.072 157.202C147.865 157.796 148.559 156.656 148.559 156.656C149.104 155.963 149.996 155.665 150.839 155.864C151.979 156.21 152.078 156.706 152.078 156.706C153.416 157.945 154.209 156.756 154.209 156.756C154.556 156.111 155.25 155.764 155.993 155.864L157.034 156.062L156.043 157.4C155.646 157.35 155.299 157.499 155.002 157.747C153.664 159.382 152.177 158.49 152.177 158.49L151.632 158.094C150.888 157.251 150.195 157.4 150.195 157.4C149.848 157.499 149.501 157.697 149.253 157.995C148.658 158.738 147.617 159.085 146.725 158.788C145.883 158.292 144.049 156.012 144.099 156.012Z" fill="#00ADEF"/>
<path d="M142.314 153.931C142.909 153.088 143.9 152.593 144.892 152.692C145.536 152.692 146.131 153.039 146.428 153.634C147.221 154.823 148.063 153.881 148.063 153.881C149.253 152.345 150.294 152.692 150.294 152.692C151.979 152.841 152.276 153.782 152.276 153.782C152.722 154.228 153.416 154.228 153.862 153.782C153.961 153.683 154.06 153.584 154.11 153.435C154.556 152.642 155.498 152.345 156.34 152.593C157.183 152.89 157.926 153.435 158.521 154.08L157.53 155.319C156.687 153.931 155.795 153.981 155.795 153.981C155.349 154.03 155.002 154.278 154.754 154.625C153.813 156.26 152.474 155.517 152.474 155.517C151.83 155.368 151.334 154.972 151.037 154.377C149.749 153.683 149.302 154.526 149.302 154.526C148.46 156.062 147.271 155.616 147.271 155.616C146.131 155.814 145.387 154.526 145.387 154.526L145.04 154.328C144.297 154.129 143.504 154.427 143.058 155.071L142.314 153.931Z" fill="#00ADEF"/>
<path d="M135.624 144.665C136.07 144.169 136.566 143.723 137.111 143.326C138.598 142.732 139.44 143.326 139.44 143.326C139.837 143.574 140.233 143.921 140.531 144.268C140.778 144.615 141.274 144.665 141.571 144.417C141.571 144.417 141.621 144.417 141.621 144.367C141.968 144.07 142.265 143.772 142.562 143.426C143.256 143.029 144.049 142.93 144.793 143.178C145.288 143.376 145.685 143.673 146.032 144.07C146.379 144.516 147.073 144.615 147.519 144.218L147.568 144.169C147.816 143.872 148.113 143.574 148.312 143.277C149.005 142.979 149.749 142.88 150.492 143.079C151.037 143.227 151.483 143.574 151.781 144.07C152.128 144.466 152.722 144.516 153.119 144.169C153.168 144.169 153.168 144.119 153.218 144.07C154.308 142.732 155.002 142.831 155.002 142.831C156.489 142.781 156.836 143.178 156.836 143.178L157.183 143.525C157.48 144.119 158.174 144.318 158.719 144.02C158.818 143.971 158.917 143.921 158.967 143.822C160.156 142.583 160.999 142.831 160.999 142.831C162.337 142.88 162.635 143.326 162.635 143.326C163.675 144.367 163.675 144.07 163.675 144.07C164.419 144.268 164.964 143.426 164.964 143.426C165.41 142.831 165.559 143.079 165.559 143.079L164.072 145.755C163.774 145.953 162.783 145.259 162.783 145.259C162.436 145.061 162.188 144.813 161.99 144.466C161.495 144.07 160.801 144.119 160.305 144.516C159.314 146.052 157.926 145.656 157.926 145.656L157.678 145.606C157.282 145.507 156.935 145.309 156.687 145.011C155.894 144.169 155.349 144.417 155.349 144.417C154.804 144.516 154.358 144.863 154.061 145.309L153.813 145.606C153.268 146.052 152.524 146.102 151.88 145.804C151.136 145.457 150.988 145.111 150.988 145.111L150.74 144.813C150.244 144.466 149.551 144.417 149.005 144.714C147.965 146.102 146.874 146.052 146.874 146.052C146.23 146.102 145.635 145.804 145.288 145.259L144.991 144.863C144.644 144.516 144.099 144.367 143.653 144.615C143.108 144.615 142.761 145.358 142.761 145.358L142.513 145.656C141.869 146.102 141.076 146.151 140.332 145.854C139.886 145.705 139.589 145.358 139.391 144.962C138.102 143.921 136.813 145.755 136.813 145.755L136.566 146.003L135.624 144.665Z" fill="#00ADEF"/>
<path d="M137.16 146.794C137.656 146.497 138.25 146.398 138.845 146.448C139.489 146.646 140.084 147.042 140.481 147.587C141.323 148.331 141.918 147.687 141.918 147.687C142.959 146.348 143.603 146.398 143.603 146.398C144.446 146.051 145.387 146.695 145.387 146.695L145.883 147.141C146.824 148.182 147.419 147.687 147.419 147.687C147.717 147.439 148.014 147.141 148.262 146.794C148.708 146.398 149.352 146.15 149.947 146.2C150.591 146.249 151.186 146.547 151.632 147.042C152.375 147.984 153.02 147.587 153.02 147.587C153.416 147.24 153.763 146.894 154.06 146.448L154.457 146.2C155.745 145.704 156.439 146.15 156.439 146.15C156.935 146.497 157.381 146.844 157.827 147.29C158.719 147.885 159.611 146.398 159.611 146.398C160.156 145.853 160.999 145.655 161.693 145.902C162.337 146.101 162.932 146.448 163.427 146.943L162.634 148.38C161.891 147.141 161.098 147.389 161.098 147.389C160.652 147.389 160.255 147.637 160.107 148.033C159.413 149.025 158.075 149.272 157.083 148.579C157.034 148.529 156.984 148.529 156.935 148.48L156.588 148.033C155.448 147.092 154.605 147.835 154.605 147.835C153.664 149.322 152.474 149.223 152.474 149.223C151.83 149.173 151.285 148.826 150.938 148.281C150.492 147.736 149.749 147.587 149.154 147.934C148.807 148.033 148.163 148.975 148.163 148.975C146.775 149.867 145.784 149.074 145.784 149.074L145.387 148.579C144.644 147.736 144.099 147.934 144.099 147.934C143.603 147.984 143.207 148.281 142.959 148.678C142.513 149.372 141.72 149.768 140.877 149.669C140.382 149.471 139.985 149.124 139.688 148.678C139.242 148.331 138.746 148.182 138.201 148.133L137.16 146.794Z" fill="#00ADEF"/>
<path d="M138.895 149.818C139.39 149.421 140.084 150.165 140.084 150.165C140.976 151.305 141.571 151.057 141.571 151.057C142.265 151.007 142.661 150.165 142.661 150.165C143.305 149.52 144.247 149.322 145.09 149.669C145.585 149.818 146.031 150.165 146.329 150.561C147.221 151.453 148.162 150.413 148.162 150.413C148.608 149.719 149.451 149.322 150.244 149.421C150.987 149.421 151.681 149.818 152.028 150.462C152.425 150.908 153.118 150.958 153.564 150.561C153.614 150.512 153.664 150.462 153.713 150.363C154.803 149.174 155.398 149.322 155.398 149.322L156.092 149.273C156.637 149.322 157.182 149.57 157.529 150.016C157.926 150.561 158.719 150.71 159.264 150.313L159.413 150.165C159.908 149.372 160.899 148.975 161.841 149.174L162.089 149.273L161.197 150.66C160.552 150.512 160.305 151.255 160.305 151.255C159.66 152.098 158.471 152.345 157.529 151.85C156.34 150.313 155.349 150.859 155.349 150.859C154.853 150.908 154.11 151.899 154.11 151.899L153.812 152.098C153.069 152.544 152.127 152.445 151.582 151.8C150.591 150.462 149.798 150.958 149.798 150.958C149.203 151.206 148.708 151.602 148.361 152.098L148.063 152.296C147.369 152.643 146.527 152.593 145.932 152.098C145.09 150.958 144.594 151.007 144.594 151.007C143.454 151.057 143.355 151.305 143.355 151.305C142.859 152.246 141.868 152.692 140.827 152.494L138.895 149.818Z" fill="#00ADEF"/>
<path d="M59.5781 94.4321C27.9089 131.057 27.681 152.001 27.681 152.001L27.4332 155.123C26.6898 198.587 59.9944 208.351 59.9944 208.351L65.4461 209.838C90.5733 215.289 106.581 203.643 106.581 203.643L103.965 203.817C72.8405 213.283 51.47 187.486 51.47 187.486L50.0823 185.454C33.876 156.164 56.0296 128.063 56.0296 128.063L59.8953 122.363L65.0709 115.473C63.8319 112.401 62.4962 109.256 61.7033 106.034C61.059 103.061 60.5495 100.161 60.2521 98.0297C59.9548 95.8986 60.3795 94.0252 59.8458 94.1635" fill="#EA282C"/>
<path d="M236.428 115.699C237.32 113.567 238.226 111.362 239.21 108.934C239.457 107.95 239.619 107.461 239.818 106.668C240.449 103.86 240.832 101.461 241.188 98.8207C241.337 97.6312 241.549 96.4091 241.664 95.1602L244.658 98.3747C255.363 110.12 268.149 133.662 268.149 133.662L269.041 135.743C281.332 162.506 267.109 185.849 267.109 185.849L265.82 188.277C236.48 229.908 195.262 203.62 195.262 203.62C196.563 203.589 197.824 203.62 199.07 203.707C221.373 211.042 239.503 197.843 239.503 197.843L243.32 194.968C255.115 185.998 258.683 167.71 256.949 156.014C256.156 150.562 254.471 145.308 251.943 140.452L249.564 135.942C244.608 126.376 237.011 116.559 237.011 116.559" fill="#EA282C"/>
<path d="M153.02 128.903C154.087 128.903 154.953 128.037 154.953 126.97C154.953 125.902 154.087 125.037 153.02 125.037C151.952 125.037 151.087 125.902 151.087 126.97C151.087 128.037 151.952 128.903 153.02 128.903Z" fill="#ED1C24"/>
<path d="M147.122 134.157C148.19 134.157 149.055 133.291 149.055 132.224C149.055 131.156 148.19 130.291 147.122 130.291C146.055 130.291 145.189 131.156 145.189 132.224C145.189 133.291 146.055 134.157 147.122 134.157Z" fill="#ED1C24"/>
<path d="M151.781 134.504C152.848 134.504 153.713 133.639 153.713 132.572C153.713 131.504 152.848 130.639 151.781 130.639C150.713 130.639 149.848 131.504 149.848 132.572C149.848 133.639 150.713 134.504 151.781 134.504Z" fill="#ED1C24"/>
<path d="M161.644 134.256C162.711 134.256 163.577 133.391 163.577 132.323C163.577 131.256 162.711 130.391 161.644 130.391C160.576 130.391 159.711 131.256 159.711 132.323C159.711 133.391 160.576 134.256 161.644 134.256Z" fill="#ED1C24"/>
<path d="M155.597 138.271C156.309 138.271 156.886 137.427 156.886 136.387C156.886 135.347 156.309 134.504 155.597 134.504C154.886 134.504 154.309 135.347 154.309 136.387C154.309 137.427 154.886 138.271 155.597 138.271Z" fill="white"/>
<path d="M147.766 138.519C148.478 138.519 149.055 137.675 149.055 136.635C149.055 135.595 148.478 134.752 147.766 134.752C147.054 134.752 146.478 135.595 146.478 136.635C146.478 137.675 147.054 138.519 147.766 138.519Z" fill="white"/>
</svg>
