<svg width="600" height="600" viewBox="0 0 600 600" fill="none" xmlns="http://www.w3.org/2000/svg">
<mask id="mask0_118_8" style="mask-type:alpha" maskUnits="userSpaceOnUse" x="0" y="0" width="600" height="600">
<path fill-rule="evenodd" clip-rule="evenodd" d="M0 300C0 134.315 134.315 0 300 0C465.685 0 600 134.315 600 300C600 465.685 465.685 600 300 600C134.315 600 0 465.685 0 300Z" fill="#003776"/>
</mask>
<g mask="url(#mask0_118_8)">
<path d="M-150 0H750V600H-150V0Z" fill="black"/>
<path d="M-150 0H750V400H-150V0Z" fill="white"/>
<path d="M-150 0H750V200H-150V0Z" fill="#007A3D"/>
<path d="M64.8256 364L106.609 235L148.393 364L39 284.274H174.215M450.611 364L492.394 235L534.178 364L424.785 284.274H560M257.713 364L299.497 235L341.28 364L231.888 284.274H367.102" fill="#CE1126"/>
</g>
</svg>
