<svg width="600" height="600" viewBox="0 0 600 600" fill="none" xmlns="http://www.w3.org/2000/svg">
<g clip-path="url(#clip0_1_20316)">
<mask id="mask0_1_20316" style="mask-type:alpha" maskUnits="userSpaceOnUse" x="0" y="0" width="600" height="600">
<circle cx="300" cy="300" r="300" fill="white"/>
</mask>
<g mask="url(#mask0_1_20316)">
<circle cx="300" cy="300" r="300" fill="#0F204B"/>
</g>
<path d="M493.691 140L486.07 163.456L497.798 167.267L493.691 140Z" fill="#FFB612"/>
<path d="M493.691 140L501.313 163.456L489.585 167.267L493.691 140Z" fill="#FFB612"/>
<path d="M517.148 157.043H492.485V169.374L517.148 157.043Z" fill="#FFB612"/>
<path d="M517.148 157.042L497.195 171.539L489.947 161.563L517.148 157.042Z" fill="#FFB612"/>
<path d="M470.234 157.042L490.187 171.539L497.436 161.563L470.234 157.042Z" fill="#FFB612"/>
<path d="M470.234 157.043H494.898V169.374L470.234 157.043Z" fill="#FFB612"/>
<path d="M508.188 184.618L500.566 161.162L488.838 164.973L508.188 184.618Z" fill="#FFB612"/>
<path d="M508.188 184.618L488.234 170.121L495.483 160.145L508.188 184.618Z" fill="#FFB612"/>
<path d="M479.193 184.618L499.146 170.121L491.898 160.145L479.193 184.618Z" fill="#FFB612"/>
<path d="M479.193 184.618L486.815 161.162L498.543 164.973L479.193 184.618Z" fill="#FFB612"/>
<path d="M95.1445 240.816L90.601 254.8L97.5928 257.072L95.1445 240.816Z" fill="#FFB612"/>
<path d="M95.1445 240.816L99.6881 254.8L92.6963 257.072L95.1445 240.816Z" fill="#FFB612"/>
<path d="M109.129 250.976H94.4258V258.328L109.129 250.976Z" fill="#FFB612"/>
<path d="M109.129 250.976L97.2338 259.619L92.9127 253.671L109.129 250.976Z" fill="#FFB612"/>
<path d="M81.1602 250.976L93.0553 259.619L97.3764 253.671L81.1602 250.976Z" fill="#FFB612"/>
<path d="M81.1602 250.976H95.8633V258.328L81.1602 250.976Z" fill="#FFB612"/>
<path d="M103.787 267.416L99.2436 253.432L92.2518 255.704L103.787 267.416Z" fill="#FFB612"/>
<path d="M103.787 267.416L91.892 258.773L96.2132 252.826L103.787 267.416Z" fill="#FFB612"/>
<path d="M86.502 267.416L98.3971 258.773L94.0759 252.826L86.502 267.416Z" fill="#FFB612"/>
<path d="M86.502 267.416L91.0455 253.432L98.0372 255.704L86.502 267.416Z" fill="#FFB612"/>
<path d="M166.789 267.415L162.246 281.398L169.237 283.67L166.789 267.415Z" fill="#FFB612"/>
<path d="M166.789 267.415L171.333 281.398L164.341 283.67L166.789 267.415Z" fill="#FFB612"/>
<path d="M180.773 277.575H166.07V284.926L180.773 277.575Z" fill="#FFB612"/>
<path d="M180.773 277.575L168.878 286.217L164.557 280.269L180.773 277.575Z" fill="#FFB612"/>
<path d="M152.805 277.574L164.7 286.217L169.021 280.269L152.805 277.574Z" fill="#FFB612"/>
<path d="M152.805 277.574H167.508V284.926L152.805 277.574Z" fill="#FFB612"/>
<path d="M175.432 294.014L170.888 280.03L163.896 282.302L175.432 294.014Z" fill="#FFB612"/>
<path d="M175.432 294.014L163.537 285.371L167.858 279.424L175.432 294.014Z" fill="#FFB612"/>
<path d="M158.146 294.014L170.042 285.371L165.72 279.424L158.146 294.014Z" fill="#FFB612"/>
<path d="M158.146 294.014L162.69 280.03L169.682 282.302L158.146 294.014Z" fill="#FFB612"/>
<path d="M202.396 305.596L197.853 319.579L204.845 321.851L202.396 305.596Z" fill="#FFB612"/>
<path d="M202.396 305.596L206.94 319.579L199.948 321.851L202.396 305.596Z" fill="#FFB612"/>
<path d="M216.381 315.756H201.678V323.107L216.381 315.756Z" fill="#FFB612"/>
<path d="M216.381 315.756L204.486 324.398L200.165 318.451L216.381 315.756Z" fill="#FFB612"/>
<path d="M188.412 315.756L200.307 324.398L204.628 318.451L188.412 315.756Z" fill="#FFB612"/>
<path d="M188.412 315.756H203.115V323.107L188.412 315.756Z" fill="#FFB612"/>
<path d="M211.039 332.195L206.496 318.212L199.504 320.484L211.039 332.195Z" fill="#FFB612"/>
<path d="M211.039 332.195L199.144 323.553L203.465 317.605L211.039 332.195Z" fill="#FFB612"/>
<path d="M193.754 332.195L205.649 323.553L201.328 317.605L193.754 332.195Z" fill="#FFB612"/>
<path d="M193.754 332.195L198.297 318.212L205.289 320.484L193.754 332.195Z" fill="#FFB612"/>
<path d="M238.432 345.493L233.888 359.477L240.88 361.748L238.432 345.493Z" fill="#FFB612"/>
<path d="M238.432 345.493L242.975 359.477L235.983 361.748L238.432 345.493Z" fill="#FFB612"/>
<path d="M252.416 355.653H237.713V363.005L252.416 355.653Z" fill="#FFB612"/>
<path d="M252.416 355.653L240.521 364.296L236.2 358.348L252.416 355.653Z" fill="#FFB612"/>
<path d="M224.447 355.653L236.342 364.295L240.664 358.348L224.447 355.653Z" fill="#FFB612"/>
<path d="M224.447 355.653H239.15V363.005L224.447 355.653Z" fill="#FFB612"/>
<path d="M247.074 372.092L242.531 358.109L235.539 360.381L247.074 372.092Z" fill="#FFB612"/>
<path d="M247.074 372.092L235.179 363.45L239.5 357.502L247.074 372.092Z" fill="#FFB612"/>
<path d="M229.789 372.093L241.684 363.45L237.363 357.503L229.789 372.093Z" fill="#FFB612"/>
<path d="M229.789 372.093L234.333 358.109L241.324 360.381L229.789 372.093Z" fill="#FFB612"/>
<path d="M345.684 383.675L341.14 397.658L348.132 399.93L345.684 383.675Z" fill="#FFB612"/>
<path d="M345.684 383.675L350.227 397.658L343.235 399.93L345.684 383.675Z" fill="#FFB612"/>
<path d="M359.668 393.835H344.965V401.187L359.668 393.835Z" fill="#FFB612"/>
<path d="M359.668 393.835L347.773 402.477L343.452 396.53L359.668 393.835Z" fill="#FFB612"/>
<path d="M331.699 393.835L343.594 402.477L347.915 396.529L331.699 393.835Z" fill="#FFB612"/>
<path d="M331.699 393.835H346.402V401.186L331.699 393.835Z" fill="#FFB612"/>
<path d="M354.326 410.274L349.783 396.291L342.791 398.562L354.326 410.274Z" fill="#FFB612"/>
<path d="M354.326 410.274L342.431 401.632L346.752 395.684L354.326 410.274Z" fill="#FFB612"/>
<path d="M337.041 410.274L348.936 401.632L344.615 395.684L337.041 410.274Z" fill="#FFB612"/>
<path d="M337.041 410.274L341.585 396.291L348.576 398.562L337.041 410.274Z" fill="#FFB612"/>
<path d="M233.713 401.693L229.169 415.676L236.161 417.948L233.713 401.693Z" fill="#FFB612"/>
<path d="M233.713 401.693L238.256 415.676L231.265 417.948L233.713 401.693Z" fill="#FFB612"/>
<path d="M247.697 411.853H232.994V419.205L247.697 411.853Z" fill="#FFB612"/>
<path d="M247.697 411.853L235.802 420.495L231.481 414.548L247.697 411.853Z" fill="#FFB612"/>
<path d="M219.729 411.853L231.624 420.495L235.945 414.548L219.729 411.853Z" fill="#FFB612"/>
<path d="M219.729 411.853H234.432V419.205L219.729 411.853Z" fill="#FFB612"/>
<path d="M242.355 428.292L237.812 414.309L230.82 416.58L242.355 428.292Z" fill="#FFB612"/>
<path d="M242.355 428.292L230.46 419.65L234.782 413.702L242.355 428.292Z" fill="#FFB612"/>
<path d="M225.07 428.292L236.965 419.65L232.644 413.702L225.07 428.292Z" fill="#FFB612"/>
<path d="M225.07 428.292L229.614 414.309L236.606 416.58L225.07 428.292Z" fill="#FFB612"/>
<path d="M314.365 428.291L309.822 442.275L316.813 444.546L314.365 428.291Z" fill="#FFB612"/>
<path d="M314.365 428.291L318.909 442.275L311.917 444.546L314.365 428.291Z" fill="#FFB612"/>
<path d="M328.35 438.451H313.646V445.803L328.35 438.451Z" fill="#FFB612"/>
<path d="M328.35 438.451L316.455 447.093L312.133 441.146L328.35 438.451Z" fill="#FFB612"/>
<path d="M300.383 438.451L312.278 447.093L316.599 441.146L300.383 438.451Z" fill="#FFB612"/>
<path d="M300.381 438.451H315.084V445.803L300.381 438.451Z" fill="#FFB612"/>
<path d="M323.008 454.89L318.464 440.907L311.473 443.178L323.008 454.89Z" fill="#FFB612"/>
<path d="M323.008 454.89L311.113 446.248L315.434 440.3L323.008 454.89Z" fill="#FFB612"/>
<path d="M305.723 454.89L317.618 446.248L313.297 440.301L305.723 454.89Z" fill="#FFB612"/>
<path d="M305.723 454.89L310.266 440.907L317.258 443.179L305.723 454.89Z" fill="#FFB612"/>
</g>
<defs>
<clipPath id="clip0_1_20316">
<rect width="600" height="600" fill="white"/>
</clipPath>
</defs>
</svg>
