<svg width="600" height="600" viewBox="0 0 600 600" fill="none" xmlns="http://www.w3.org/2000/svg">
<mask id="mask0_1_21483" style="mask-type:alpha" maskUnits="userSpaceOnUse" x="0" y="0" width="600" height="600">
<circle cx="300" cy="300" r="300" fill="white"/>
</mask>
<g mask="url(#mask0_1_21483)">
<path d="M0 0H900V600H0V0Z" fill="#B50027"/>
<rect width="900" height="600" fill="#B50027"/>
<path d="M330 162H900V362H330L330 162Z" fill="white"/>
<path d="M0 0H330V362H0V0Z" fill="#002D56"/>
<path d="M181.939 94.3868L192.982 86.5998L179.466 86.4055L175.467 73.4927L171.114 86.2863L157.599 86.0923L168.424 94.1934L164.072 106.987L175.115 99.1997L185.939 107.3L181.939 94.3868ZM128.833 103.89L134.992 91.8638L122.935 97.9719L113.393 88.397L115.483 101.748L103.427 107.856L116.775 109.999L118.867 123.349L125.026 111.323L138.375 113.465L128.833 103.89ZM86.06 137.247L85.9254 123.736L78.0876 134.747L65.1901 130.703L73.2446 141.553L65.4074 152.563L78.2226 148.258L86.2779 159.107L86.1433 145.596L98.958 141.291L86.06 137.247ZM64.0205 186.56L57.6237 174.66L55.8002 188.051L42.501 190.463L54.6741 196.327L52.8509 209.718L62.1977 199.952L74.3711 205.814L67.9741 193.914L77.3203 184.148L64.0205 186.56ZM67.1335 240.341L55.9401 232.776L60.5479 245.481L49.8931 253.796L63.3964 253.332L68.0042 266.036L71.7422 253.045L85.2451 252.58L74.0516 245.016L77.7889 232.025L67.1335 240.341ZM95.0045 286.822L81.5786 285.325L91.5619 294.433L85.9915 306.746L97.7322 300.061L107.715 309.168L104.989 295.929L116.728 289.243L103.302 287.746L100.575 274.507L95.0045 286.822ZM141.367 314.729L128.784 319.643L141.855 323.068L142.645 336.56L149.934 325.185L163.005 328.61L154.439 318.154L161.727 306.779L149.144 311.692L140.578 301.237L141.367 314.729ZM195.104 318.05L186.246 328.248L199.412 325.207L206.379 336.786L207.548 323.327L220.713 320.286L208.27 315.009L209.438 301.55L200.579 311.748L188.136 306.471L195.104 318.05ZM244.537 296.071L241.431 309.216L251.676 300.406L263.226 307.421L258.007 294.961L268.251 286.151L254.781 287.26L249.561 274.801L246.456 287.946L232.987 289.056L244.537 296.071ZM277.911 253.385L281.27 266.467L286.247 253.906L299.733 254.751L289.323 246.143L294.3 233.583L282.888 240.823L272.477 232.217L275.836 245.3L264.425 252.54L277.911 253.385ZM271.817 148.766L284.49 153.435L276.981 142.203L285.337 131.586L272.34 135.263L264.832 124.032L264.308 137.535L251.311 141.213L263.984 145.881L263.46 159.384L271.817 148.766ZM233.507 110.414L246.897 108.659L235.03 102.203L237.496 88.9193L227.696 98.214L215.83 91.7586L221.639 103.959L211.841 113.254L225.231 111.499L231.041 123.698L233.507 110.414ZM287.616 200.4L296.668 210.423L295.239 196.988L307.572 191.47L294.355 188.686L292.925 175.252L286.186 186.965L272.968 184.183L282.021 194.206L275.282 205.919L287.616 200.4Z" fill="white"/>
<path fill-rule="evenodd" clip-rule="evenodd" d="M118.885 276.967H114.972V276.532C115.082 276.523 115.241 276.511 115.449 276.495C115.658 276.479 115.805 276.454 115.89 276.421C116.025 276.368 116.123 276.297 116.184 276.207C116.246 276.113 116.276 275.984 116.276 275.821V269.517C116.276 269.374 116.254 269.255 116.209 269.161C116.164 269.063 116.058 268.982 115.89 268.916C115.768 268.867 115.613 268.822 115.425 268.781C115.241 268.736 115.09 268.71 114.972 268.701V268.266H118.885V268.701C118.759 268.706 118.608 268.722 118.432 268.751C118.256 268.775 118.103 268.808 117.973 268.849C117.818 268.898 117.713 268.977 117.66 269.088C117.607 269.198 117.581 269.321 117.581 269.456V275.753C117.581 275.888 117.609 276.009 117.667 276.115C117.728 276.217 117.83 276.299 117.973 276.36C118.059 276.393 118.197 276.43 118.389 276.47C118.585 276.507 118.751 276.528 118.885 276.532V276.967H118.885ZM129.608 268.701C129.494 268.706 129.318 268.738 129.081 268.8C128.844 268.861 128.675 268.924 128.573 268.99C128.426 269.092 128.326 269.288 128.273 269.578C128.224 269.869 128.199 270.237 128.199 270.682V277.053H127.667L122.4 269.934V274.423C122.4 274.925 122.43 275.312 122.492 275.581C122.557 275.851 122.655 276.043 122.786 276.158C122.879 276.248 123.073 276.332 123.367 276.409C123.661 276.487 123.855 276.528 123.949 276.532V276.967H120.385V276.532C120.495 276.523 120.681 276.485 120.942 276.415C121.203 276.342 121.367 276.276 121.432 276.219C121.575 276.105 121.673 275.931 121.726 275.698C121.779 275.461 121.805 275.058 121.806 274.49V270.204C121.806 270.016 121.773 269.828 121.708 269.64C121.642 269.452 121.555 269.307 121.444 269.204C121.297 269.069 121.097 268.955 120.844 268.861C120.595 268.763 120.393 268.71 120.238 268.702V268.266H122.718L127.605 274.901V270.762C127.605 270.255 127.573 269.867 127.508 269.597C127.442 269.323 127.348 269.141 127.226 269.051C127.111 268.973 126.924 268.898 126.662 268.824C126.405 268.75 126.209 268.71 126.075 268.701V268.266H129.608V268.701H129.608ZM142.425 273.49C142.327 273.503 142.195 273.523 142.027 273.552C141.864 273.576 141.731 273.613 141.629 273.662C141.507 273.723 141.419 273.811 141.366 273.926C141.317 274.036 141.292 274.167 141.292 274.318V274.993C141.292 275.483 141.294 275.814 141.298 275.986C141.307 276.158 141.315 276.299 141.323 276.409C140.78 276.654 140.239 276.842 139.7 276.973C139.161 277.104 138.632 277.169 138.114 277.169C137.558 277.169 137.024 277.065 136.509 276.857C135.995 276.648 135.545 276.352 135.162 275.968C134.774 275.579 134.465 275.107 134.237 274.551C134.008 273.995 133.894 273.374 133.894 272.687C133.894 272.025 134.002 271.412 134.218 270.848C134.439 270.28 134.749 269.787 135.149 269.37C135.537 268.961 135.999 268.644 136.533 268.419C137.072 268.191 137.648 268.076 138.261 268.076C138.751 268.076 139.177 268.135 139.54 268.254C139.904 268.372 140.224 268.516 140.502 268.683L140.753 268.266H141.243L141.298 271.307H140.796C140.71 270.972 140.604 270.642 140.478 270.32C140.351 269.993 140.188 269.701 139.988 269.443C139.79 269.188 139.539 268.979 139.253 268.83C138.967 268.675 138.624 268.597 138.224 268.597C137.787 268.597 137.397 268.687 137.054 268.867C136.711 269.043 136.413 269.306 136.16 269.658C135.911 269.997 135.719 270.42 135.584 270.927C135.449 271.434 135.382 272 135.382 272.626C135.382 273.178 135.447 273.699 135.578 274.189C135.713 274.676 135.907 275.097 136.16 275.452C136.413 275.816 136.729 276.102 137.109 276.311C137.489 276.519 137.919 276.624 138.401 276.624C138.761 276.624 139.087 276.568 139.381 276.458C139.679 276.348 139.889 276.231 140.012 276.109C140.045 275.896 140.061 275.681 140.061 275.465C140.065 275.248 140.067 275.064 140.067 274.913V274.435C140.067 274.263 140.043 274.112 139.994 273.981C139.949 273.846 139.853 273.748 139.706 273.687C139.571 273.625 139.387 273.58 139.155 273.552C138.926 273.519 138.746 273.499 138.616 273.49V273.043H142.425V273.49H142.425ZM150.971 269.296C151.354 269.697 151.654 270.181 151.871 270.749C152.087 271.314 152.195 271.939 152.196 272.626C152.196 273.317 152.085 273.944 151.865 274.508C151.644 275.072 151.338 275.553 150.946 275.949C150.571 276.338 150.121 276.647 149.623 276.857C149.121 277.069 148.586 277.175 148.019 277.176C147.414 277.176 146.855 277.063 146.341 276.838C145.83 276.61 145.391 276.293 145.024 275.888C144.656 275.491 144.366 275.011 144.154 274.447C143.946 273.879 143.842 273.272 143.842 272.626C143.842 271.919 143.952 271.289 144.172 270.737C144.393 270.181 144.697 269.701 145.085 269.296C145.469 268.896 145.914 268.589 146.42 268.376C146.926 268.165 147.47 268.056 148.019 268.058C148.594 268.058 149.137 268.166 149.648 268.383C150.158 268.599 150.599 268.904 150.971 269.296ZM150.058 275.465C150.287 275.093 150.452 274.672 150.554 274.202C150.66 273.732 150.713 273.206 150.713 272.626C150.713 272.029 150.654 271.481 150.536 270.982C150.421 270.484 150.252 270.059 150.028 269.707C149.803 269.36 149.521 269.09 149.182 268.898C148.843 268.701 148.455 268.603 148.019 268.603C147.529 268.603 147.112 268.716 146.769 268.94C146.426 269.165 146.146 269.466 145.93 269.842C145.726 270.202 145.573 270.623 145.471 271.105C145.373 271.587 145.324 272.094 145.324 272.626C145.324 273.214 145.377 273.746 145.483 274.22C145.589 274.694 145.757 275.115 145.985 275.483C146.206 275.843 146.483 276.125 146.818 276.329C147.153 276.53 147.553 276.63 148.019 276.63C148.455 276.63 148.85 276.528 149.201 276.323C149.552 276.119 149.837 275.833 150.058 275.465ZM161.823 272.669C161.823 273.409 161.684 274.05 161.406 274.594C161.129 275.138 160.767 275.583 160.322 275.931C159.873 276.278 159.369 276.538 158.81 276.71C158.25 276.881 157.672 276.967 157.076 276.967H153.475V276.532C153.593 276.532 153.747 276.522 153.934 276.501C154.126 276.477 154.253 276.45 154.314 276.421C154.437 276.368 154.524 276.291 154.578 276.188C154.635 276.082 154.663 275.956 154.663 275.808V269.529C154.663 269.39 154.639 269.266 154.59 269.155C154.545 269.045 154.453 268.957 154.314 268.892C154.184 268.829 154.046 268.784 153.904 268.757C153.757 268.728 153.63 268.71 153.524 268.702V268.266H157.321C157.844 268.266 158.358 268.348 158.865 268.511C159.371 268.671 159.812 268.888 160.188 269.161C160.698 269.525 161.098 270.001 161.388 270.59C161.678 271.179 161.823 271.872 161.823 272.669ZM160.322 272.662C160.322 272.078 160.244 271.551 160.089 271.08C159.934 270.606 159.708 270.193 159.41 269.842C159.128 269.507 158.781 269.243 158.369 269.051C157.96 268.859 157.505 268.763 157.003 268.763C156.835 268.763 156.646 268.767 156.433 268.775C156.225 268.779 156.07 268.783 155.968 268.787V275.477C155.968 275.849 156.076 276.107 156.293 276.249C156.509 276.393 156.842 276.464 157.291 276.464C157.809 276.464 158.262 276.372 158.65 276.188C159.038 276.004 159.353 275.749 159.593 275.422C159.847 275.078 160.03 274.682 160.145 274.232C160.263 273.778 160.322 273.255 160.322 272.662ZM178.419 268.701C178.317 268.706 178.198 268.73 178.063 268.775C177.932 268.814 177.807 268.87 177.69 268.941C177.547 269.031 177.431 269.135 177.341 269.253C177.255 269.368 177.179 269.529 177.114 269.738C176.824 270.682 176.487 271.786 176.104 273.049C175.694 274.393 175.279 275.736 174.86 277.077H174.297L172.104 270.382L169.82 277.077H169.281C168.862 275.594 168.443 274.11 168.026 272.626C167.593 271.085 167.303 270.053 167.156 269.529C167.122 269.408 167.066 269.294 166.991 269.192C166.921 269.094 166.825 269.004 166.703 268.922C166.601 268.853 166.48 268.802 166.341 268.769C166.207 268.732 166.084 268.71 165.974 268.702V268.266H169.52V268.702C169.21 268.718 168.944 268.749 168.724 268.794C168.507 268.839 168.399 268.914 168.399 269.02C168.399 269.061 168.405 269.117 168.418 269.186C168.43 269.252 168.44 269.305 168.448 269.345C168.542 269.705 168.707 270.3 168.944 271.13C169.185 271.956 169.54 273.194 170.01 274.846L172.178 268.389H172.778L174.964 274.987C175.221 274.103 175.474 273.218 175.724 272.332C175.936 271.571 176.112 270.921 176.251 270.382C176.349 270.001 176.41 269.742 176.434 269.603C176.459 269.46 176.471 269.339 176.471 269.241C176.471 269.102 176.375 268.986 176.183 268.892C175.995 268.798 175.689 268.734 175.265 268.701V268.266H178.419V268.701ZM186.857 274.404L186.692 276.967H179.477V276.532C179.641 276.519 179.804 276.503 179.967 276.483C180.171 276.454 180.304 276.426 180.365 276.397C180.496 276.336 180.586 276.256 180.635 276.158C180.688 276.06 180.714 275.935 180.715 275.784V269.529C180.715 269.394 180.692 269.276 180.647 269.174C180.602 269.067 180.508 268.982 180.365 268.916C180.255 268.863 180.106 268.816 179.918 268.775C179.735 268.734 179.588 268.71 179.477 268.701V268.266H186.202V270.363H185.743C185.661 270.052 185.483 269.723 185.21 269.376C184.94 269.024 184.683 268.832 184.438 268.799C184.288 268.781 184.137 268.769 183.985 268.763C183.809 268.754 183.609 268.751 183.385 268.75H182.019V272.209H182.999C183.313 272.209 183.542 272.18 183.685 272.123C183.832 272.062 183.961 271.961 184.071 271.822C184.161 271.704 184.236 271.547 184.297 271.35C184.363 271.15 184.406 270.962 184.426 270.786H184.885V274.189H184.426C184.41 273.993 184.365 273.787 184.291 273.57C184.222 273.349 184.148 273.19 184.071 273.092C183.944 272.932 183.799 272.828 183.636 272.779C183.477 272.73 183.264 272.705 182.999 272.705H182.019V275.318C182.019 275.579 182.038 275.786 182.074 275.937C182.111 276.088 182.182 276.203 182.289 276.28C182.395 276.358 182.54 276.409 182.723 276.434C182.907 276.454 183.168 276.464 183.507 276.464H184.04C184.261 276.464 184.446 276.457 184.597 276.44C184.759 276.422 184.918 276.394 185.075 276.354C185.242 276.309 185.361 276.25 185.43 276.176C185.618 275.98 185.814 275.684 186.018 275.287C186.227 274.886 186.359 274.592 186.416 274.404L186.857 274.404ZM199.64 270.627H199.217C199.18 270.48 199.113 270.306 199.015 270.106C198.923 269.906 198.817 269.713 198.696 269.529C198.574 269.341 198.439 269.178 198.292 269.039C198.149 268.896 198.01 268.814 197.876 268.793C197.749 268.777 197.59 268.765 197.398 268.757C197.206 268.748 197.028 268.745 196.865 268.744H196.51V275.704C196.51 275.839 196.539 275.964 196.596 276.078C196.653 276.188 196.753 276.274 196.896 276.336C196.969 276.364 197.123 276.403 197.355 276.452C197.592 276.501 197.776 276.528 197.907 276.532V276.967H193.803V276.532C193.917 276.523 194.091 276.508 194.324 276.483C194.561 276.458 194.724 276.428 194.814 276.391C194.948 276.338 195.046 276.262 195.108 276.164C195.173 276.062 195.205 275.927 195.206 275.759V268.745H194.85C194.724 268.745 194.567 268.749 194.379 268.757C194.199 268.761 194.019 268.773 193.84 268.794C193.705 268.81 193.564 268.892 193.417 269.039C193.274 269.182 193.142 269.345 193.019 269.529C192.897 269.713 192.788 269.91 192.695 270.118C192.601 270.322 192.536 270.492 192.499 270.627H192.07V268.266H199.64V270.627H199.64ZM209.517 276.967H207.178C206.659 276.154 206.19 275.451 205.769 274.858C205.331 274.236 204.878 273.624 204.41 273.024H203.522V275.784C203.522 275.927 203.544 276.053 203.589 276.164C203.634 276.27 203.73 276.352 203.877 276.409C203.95 276.438 204.079 276.464 204.263 276.489C204.446 276.513 204.601 276.528 204.728 276.532V276.967H201.053V276.532C201.151 276.523 201.292 276.509 201.476 276.489C201.664 276.469 201.794 276.442 201.868 276.409C201.991 276.356 202.078 276.278 202.131 276.176C202.188 276.074 202.217 275.943 202.217 275.784V269.492C202.217 269.349 202.197 269.223 202.156 269.112C202.115 269.002 202.019 268.918 201.868 268.861C201.766 268.824 201.633 268.791 201.47 268.763C201.306 268.73 201.168 268.71 201.054 268.701V268.266H205.065C205.432 268.266 205.777 268.305 206.1 268.382C206.423 268.456 206.714 268.577 206.976 268.744C207.229 268.908 207.431 269.122 207.582 269.388C207.733 269.65 207.809 269.967 207.809 270.339C207.809 270.674 207.758 270.97 207.656 271.228C207.556 271.481 207.401 271.71 207.202 271.896C207.019 272.072 206.798 272.225 206.541 272.356C206.284 272.483 206 272.591 205.69 272.681C206.118 273.249 206.474 273.728 206.755 274.116C207.041 274.504 207.39 274.976 207.803 275.532C207.982 275.777 208.144 275.959 208.287 276.078C208.434 276.192 208.578 276.286 208.721 276.36C208.827 276.413 208.96 276.454 209.119 276.483C209.279 276.511 209.411 276.528 209.517 276.532V276.967H209.517ZM206.296 270.48C206.296 269.952 206.145 269.535 205.843 269.229C205.54 268.918 205.114 268.763 204.563 268.763H203.522V272.497H204.324C204.887 272.497 205.357 272.317 205.732 271.957C206.108 271.594 206.296 271.101 206.296 270.48ZM218.606 268.701C218.491 268.706 218.324 268.73 218.104 268.775C217.883 268.82 217.703 268.888 217.565 268.977C217.426 269.072 217.33 269.266 217.277 269.56C217.224 269.854 217.197 270.214 217.197 270.639V274.422C217.197 274.905 217.097 275.324 216.897 275.679C216.697 276.035 216.434 276.328 216.107 276.556C215.784 276.777 215.444 276.934 215.084 277.028C214.729 277.126 214.388 277.176 214.061 277.176C213.539 277.176 213.073 277.106 212.665 276.967C212.257 276.832 211.914 276.648 211.636 276.415C211.363 276.182 211.156 275.917 211.018 275.618C210.879 275.316 210.809 275.001 210.809 274.674V269.529C210.809 269.386 210.785 269.268 210.736 269.174C210.691 269.075 210.597 268.986 210.454 268.904C210.352 268.847 210.221 268.802 210.062 268.769C209.903 268.732 209.772 268.71 209.67 268.701V268.266H213.29V268.701C213.175 268.706 213.03 268.724 212.855 268.757C212.683 268.789 212.557 268.82 212.475 268.849C212.336 268.898 212.242 268.98 212.193 269.094C212.148 269.209 212.126 269.333 212.126 269.468V274.275C212.126 274.508 212.15 274.754 212.199 275.011C212.252 275.265 212.354 275.502 212.506 275.722C212.665 275.947 212.881 276.131 213.155 276.274C213.428 276.417 213.804 276.489 214.282 276.489C214.731 276.489 215.106 276.417 215.409 276.274C215.715 276.131 215.956 275.943 216.131 275.71C216.299 275.489 216.417 275.259 216.486 275.017C216.556 274.776 216.59 274.533 216.591 274.288V270.719C216.591 270.265 216.558 269.895 216.493 269.609C216.427 269.319 216.331 269.129 216.205 269.039C216.062 268.937 215.866 268.857 215.617 268.799C215.372 268.742 215.184 268.71 215.053 268.701V268.266H218.606V268.701H218.606ZM225.051 272.975C225.235 273.18 225.37 273.405 225.455 273.65C225.545 273.891 225.59 274.173 225.59 274.496C225.59 275.265 225.306 275.898 224.739 276.397C224.171 276.896 223.467 277.145 222.626 277.145C222.238 277.145 221.85 277.086 221.462 276.967C221.074 276.844 220.74 276.697 220.458 276.526L220.195 276.973H219.705L219.619 273.993H220.115C220.217 274.361 220.335 274.694 220.47 274.993C220.609 275.287 220.79 275.563 221.015 275.82C221.223 276.058 221.475 276.254 221.756 276.397C222.042 276.54 222.373 276.611 222.748 276.611C223.03 276.611 223.275 276.575 223.483 276.501C223.696 276.427 223.867 276.323 223.998 276.188C224.128 276.054 224.226 275.893 224.286 275.716C224.351 275.532 224.383 275.322 224.384 275.085C224.384 274.737 224.286 274.414 224.09 274.116C223.894 273.813 223.602 273.584 223.214 273.429C222.911 273.309 222.607 273.192 222.301 273.08C221.958 272.949 221.662 272.826 221.413 272.712C220.923 272.491 220.542 272.203 220.268 271.847C219.999 271.487 219.864 271.019 219.864 270.443C219.864 270.112 219.931 269.803 220.066 269.517C220.201 269.231 220.392 268.975 220.642 268.751C220.878 268.538 221.158 268.372 221.481 268.254C221.803 268.131 222.146 268.069 222.491 268.07C222.891 268.07 223.249 268.131 223.563 268.254C223.881 268.377 224.171 268.52 224.433 268.683L224.684 268.266H225.174L225.223 271.154H224.727C224.64 270.833 224.538 270.515 224.42 270.204C224.31 269.901 224.165 269.628 223.985 269.382C223.81 269.145 223.595 268.957 223.342 268.818C223.089 268.675 222.779 268.604 222.412 268.603C222.024 268.603 221.693 268.728 221.419 268.977C221.146 269.227 221.009 269.531 221.009 269.891C221.009 270.267 221.097 270.58 221.272 270.829C221.448 271.075 221.703 271.277 222.038 271.436C222.324 271.574 222.616 271.699 222.914 271.81C223.204 271.913 223.483 272.023 223.753 272.142C223.995 272.247 224.231 272.367 224.457 272.503C224.686 272.638 224.884 272.796 225.051 272.975ZM234.457 270.627H234.035C233.998 270.48 233.931 270.306 233.833 270.106C233.741 269.906 233.635 269.713 233.514 269.529C233.392 269.341 233.257 269.178 233.11 269.039C232.967 268.896 232.828 268.814 232.694 268.793C232.567 268.777 232.408 268.765 232.216 268.757C232.024 268.748 231.846 268.745 231.683 268.744H231.328V275.704C231.328 275.839 231.356 275.964 231.413 276.078C231.471 276.188 231.571 276.274 231.714 276.336C231.787 276.364 231.94 276.403 232.173 276.452C232.41 276.501 232.593 276.528 232.724 276.532V276.967H228.621V276.532C228.735 276.523 228.908 276.508 229.141 276.483C229.378 276.458 229.541 276.428 229.631 276.391C229.766 276.338 229.864 276.262 229.925 276.164C229.99 276.062 230.023 275.927 230.023 275.759V268.745H229.668C229.541 268.745 229.384 268.749 229.196 268.757C229.016 268.761 228.836 268.773 228.658 268.794C228.523 268.81 228.382 268.892 228.235 269.039C228.092 269.182 227.959 269.345 227.837 269.529C227.714 269.713 227.606 269.91 227.512 270.118C227.418 270.322 227.353 270.492 227.316 270.627H226.888V268.266H234.457V270.627Z" fill="#EED000" stroke="#EED000" stroke-width="0.226806" stroke-miterlimit="3.864"/>
<path d="M175.31 166.763C175.328 166.756 175.338 166.754 175.339 166.754C175.346 166.752 176.42 167.138 176.429 168.82C177.379 168.642 177.763 169.144 177.579 170.326C177.579 170.326 176.451 170.021 176.267 170.664C175.99 171.408 176.201 172.014 176.9 172.482C176.9 172.482 178.073 173.411 178.811 171.649C179.55 169.887 179.815 169.287 179.815 169.287C180.021 168.638 181.243 167.116 182.353 166.903C182.776 166.734 183.181 166.767 183.633 166.875C183.633 166.875 184.604 167.085 184.632 167.897C184.659 168.709 184.328 169.062 183.78 169.297C183.175 169.558 182.427 168.999 182.427 168.999C182.166 168.95 182.083 169.04 181.923 169.151C181.849 169.203 181.542 169.54 181.363 169.92C181.363 169.92 180.824 171.06 180.567 171.93C180.364 172.615 179.918 174.689 177.819 175H172.865C170.766 174.689 170.32 172.615 170.117 171.93C169.86 171.06 169.321 169.92 169.321 169.92C169.143 169.54 168.835 169.203 168.761 169.151C168.601 169.04 168.518 168.95 168.257 168.999C168.257 168.999 167.509 169.558 166.904 169.297C166.356 169.062 166.025 168.709 166.052 167.897C166.08 167.085 167.051 166.875 167.051 166.875C167.503 166.767 167.908 166.734 168.331 166.903C169.441 167.116 170.663 168.638 170.869 169.287C170.869 169.287 171.134 169.887 171.873 171.649C172.611 173.411 173.784 172.482 173.784 172.482C174.483 172.014 174.694 171.408 174.417 170.664C174.233 170.02 173.105 170.326 173.105 170.326C172.921 169.144 173.305 168.642 174.255 168.82C174.264 167.138 175.338 166.751 175.345 166.754C175.346 166.754 175.356 166.757 175.374 166.763H175.31Z" fill="#EED000"/>
<path fill-rule="evenodd" clip-rule="evenodd" d="M181.475 223.357H169.484L170.899 176.569H180.116L181.475 223.357ZM181.424 249.375H168.69L168.689 228.128L181.424 228.124V249.375Z" fill="#EED000" stroke="#002D56" stroke-width="1.17903" stroke-miterlimit="3.864"/>
<path d="M168.482 225.705H181.39C182.289 225.705 183.018 226.253 183.018 226.929C183.018 227.605 182.289 228.153 181.39 228.153H168.482C167.582 228.153 166.854 227.605 166.854 226.929C166.854 226.253 167.582 225.705 168.482 225.705Z" fill="#EED000" stroke="#002D56" stroke-width="1.17903" stroke-miterlimit="3.864"/>
<path fill-rule="evenodd" clip-rule="evenodd" d="M169.438 223.408H180.706C181.507 223.408 182.156 223.922 182.156 224.556C182.156 225.191 181.507 225.705 180.706 225.705H169.438C168.637 225.705 167.988 225.191 167.988 224.556C167.988 223.922 168.637 223.408 169.438 223.408Z" fill="#EED000" stroke="#002D56" stroke-width="1.17903" stroke-miterlimit="3.864"/>
<path d="M171.563 232.108H178.367V246.116H171.563V232.108Z" stroke="#002D56" stroke-width="1.17903" stroke-miterlimit="3.864"/>
<path d="M171.422 174.937H179.237C179.879 174.937 180.4 175.315 180.4 175.782C180.4 176.248 179.879 176.627 179.237 176.627H171.422C170.779 176.627 170.259 176.248 170.259 175.782C170.259 175.315 170.78 174.937 171.422 174.937Z" fill="#EED000" stroke="#002D56" stroke-width="0.680556" stroke-miterlimit="3.864"/>
<path fill-rule="evenodd" clip-rule="evenodd" d="M111.247 251.917H241.031V256.294H111.247V251.917Z" fill="#EED000" stroke="#002D56" stroke-width="1.38889" stroke-miterlimit="3.864"/>
<path d="M105.71 256.256H246.658V260.89H105.71V256.256Z" fill="#EED000" stroke="#002D56" stroke-width="0.833333" stroke-miterlimit="3.864"/>
<path fill-rule="evenodd" clip-rule="evenodd" d="M115.085 156.89H236.263V159.571H115.085V156.89Z" fill="#EED000" stroke="#002D56" stroke-width="1.32639" stroke-miterlimit="3.864"/>
<path fill-rule="evenodd" clip-rule="evenodd" d="M213.438 156.808C207.16 141.767 192.589 131.258 175.616 131.258C158.654 131.258 144.09 141.782 137.806 156.808H122.743C129.71 133.69 150.77 116.742 175.616 116.742C200.479 116.742 221.552 133.658 228.512 156.8L213.438 156.808Z" fill="#EED000" stroke="#002D56" stroke-width="0.680542" stroke-miterlimit="3.8637" stroke-linejoin="round"/>
<path fill-rule="evenodd" clip-rule="evenodd" d="M118.341 159.605C118.341 159.605 120.435 160.857 122.18 164.588L229.983 164.584C229.983 164.584 231.756 160.412 234.198 159.596L118.341 159.605Z" fill="#EED000" stroke="#002D56" stroke-width="0.833333" stroke-miterlimit="3.864"/>
<path fill-rule="evenodd" clip-rule="evenodd" d="M145.087 165.557C145.087 165.557 155.073 182.697 175.381 182.461C195.442 182.227 205.676 166.14 205.676 166.14L211.025 174.067C211.025 174.067 213.002 176.748 209.165 180.129C195.607 192.072 184.867 194.42 175.381 194.351C161.371 193.585 150.071 188.844 141.482 180.129C139.936 178.844 139.621 177.156 140.086 175.757L145.087 165.557Z" fill="#EED000" stroke="#002D56" stroke-width="0.680542" stroke-miterlimit="3.8637" stroke-linejoin="round"/>
<path d="M139.883 177.535C139.883 177.535 139.272 174.067 144.738 176.865L145.145 165.615M211.403 175.175C209.659 171.415 206.461 176.02 206.461 176.02L205.656 166.198" stroke="#002D56" stroke-width="0.884306" stroke-miterlimit="3.864"/>
<path d="M121.597 164.79H229.983C230.369 164.79 230.681 165.116 230.681 165.518V165.76C230.681 166.162 230.369 166.488 229.983 166.488H121.597C121.212 166.488 120.899 166.162 120.899 165.76V165.518C120.899 165.116 121.212 164.79 121.597 164.79Z" fill="#EED000" stroke="#002D56" stroke-width="0.694444" stroke-miterlimit="3.864"/>
<path d="M131.177 166.629C131.195 166.621 131.205 166.619 131.206 166.619C131.213 166.617 132.287 167.003 132.296 168.686C133.246 168.507 133.63 169.009 133.447 170.191C133.447 170.191 132.318 169.886 132.134 170.529C131.858 171.273 132.069 171.879 132.767 172.347C132.767 172.347 133.94 173.277 134.679 171.515C135.417 169.752 135.683 169.153 135.683 169.153C135.888 168.503 137.11 166.982 138.221 166.769C138.643 166.599 139.048 166.633 139.5 166.741C139.5 166.741 140.471 166.951 140.499 167.762C140.526 168.574 140.195 168.927 139.647 169.163C139.042 169.423 138.294 168.864 138.294 168.864C138.033 168.816 137.95 168.906 137.79 169.017C137.716 169.068 137.409 169.405 137.231 169.785C137.231 169.785 136.691 170.925 136.434 171.796C136.232 172.481 135.785 174.554 133.686 174.865H128.732C126.633 174.554 126.187 172.481 125.984 171.796C125.727 170.925 125.188 169.785 125.188 169.785C125.01 169.405 124.702 169.068 124.629 169.017C124.469 168.906 124.385 168.816 124.125 168.864C124.125 168.864 123.377 169.423 122.771 169.163C122.223 168.927 121.892 168.574 121.92 167.762C121.947 166.951 122.919 166.741 122.919 166.741C123.37 166.633 123.775 166.599 124.198 166.769C125.308 166.982 126.53 168.503 126.736 169.153C126.736 169.153 127.002 169.752 127.74 171.515C128.478 173.277 129.651 172.347 129.651 172.347C130.35 171.879 130.561 171.273 130.284 170.529C130.1 169.886 128.972 170.191 128.972 170.191C128.789 169.009 129.172 168.508 130.123 168.686C130.132 167.003 131.206 166.616 131.213 166.619C131.214 166.619 131.223 166.622 131.241 166.629H131.177Z" fill="#EED000"/>
<path fill-rule="evenodd" clip-rule="evenodd" d="M137.205 223.357H125.213L126.808 176.569H135.666L137.205 223.357ZM137.576 249.375H124.842L124.842 228.128L137.576 228.124V249.375Z" fill="#EED000" stroke="#002D56" stroke-width="1.17903" stroke-miterlimit="3.864"/>
<path fill-rule="evenodd" clip-rule="evenodd" d="M124.754 225.705H137.663C138.562 225.705 139.291 226.253 139.291 226.929C139.291 227.605 138.562 228.153 137.663 228.153H124.754C123.855 228.153 123.126 227.605 123.126 226.929C123.126 226.253 123.855 225.705 124.754 225.705ZM125.574 223.408H136.843C137.643 223.408 138.292 223.922 138.292 224.556C138.292 225.191 137.643 225.705 136.843 225.705H125.574C124.773 225.705 124.124 225.191 124.124 224.556C124.124 223.922 124.773 223.408 125.574 223.408Z" fill="#EED000" stroke="#002D56" stroke-width="1.17903" stroke-miterlimit="3.864"/>
<path d="M127.808 232.108H134.611V246.116H127.808V232.108Z" stroke="#002D56" stroke-width="1.17903" stroke-miterlimit="3.864"/>
<path d="M127.302 175.116H135.117C135.759 175.116 136.28 175.494 136.28 175.961C136.28 176.428 135.759 176.806 135.117 176.806H127.302C126.659 176.806 126.139 176.428 126.139 175.961C126.139 175.494 126.659 175.116 127.302 175.116Z" fill="#EED000" stroke="#002D56" stroke-width="0.680556" stroke-miterlimit="3.864"/>
<path fill-rule="evenodd" clip-rule="evenodd" d="M122.138 249.429H140.28V251.877H122.138V249.429Z" fill="#EED000" stroke="#002D56" stroke-width="0.567083" stroke-miterlimit="3.864"/>
<path d="M220.1 166.763C220.117 166.756 220.127 166.754 220.128 166.754C220.135 166.752 221.209 167.138 221.218 168.82C222.168 168.642 222.552 169.144 222.369 170.326C222.369 170.326 221.24 170.021 221.056 170.664C220.78 171.408 220.991 172.014 221.689 172.482C221.689 172.482 222.862 173.411 223.601 171.649C224.339 169.887 224.605 169.287 224.605 169.287C224.81 168.638 226.032 167.116 227.143 166.903C227.566 166.734 227.97 166.767 228.422 166.875C228.422 166.875 229.393 167.085 229.421 167.897C229.449 168.709 229.117 169.062 228.569 169.297C227.964 169.558 227.216 168.999 227.216 168.999C226.955 168.95 226.872 169.04 226.712 169.151C226.638 169.203 226.331 169.54 226.153 169.92C226.153 169.92 225.613 171.06 225.356 171.93C225.154 172.615 224.707 174.689 222.608 175H217.654C215.555 174.689 215.109 172.615 214.906 171.93C214.649 171.06 214.11 169.92 214.11 169.92C213.932 169.54 213.624 169.203 213.551 169.151C213.39 169.04 213.307 168.95 213.046 168.999C213.046 168.999 212.299 169.558 211.693 169.297C211.145 169.062 210.814 168.709 210.841 167.897C210.869 167.085 211.84 166.875 211.84 166.875C212.292 166.767 212.697 166.734 213.12 166.903C214.23 167.116 215.452 168.638 215.658 169.287C215.658 169.287 215.924 169.887 216.662 171.649C217.4 173.411 218.573 172.482 218.573 172.482C219.272 172.014 219.483 171.408 219.206 170.664C219.022 170.02 217.894 170.326 217.894 170.326C217.711 169.144 218.094 168.642 219.044 168.82C219.054 167.138 220.127 166.751 220.134 166.754C220.135 166.754 220.145 166.757 220.163 166.763H220.1Z" fill="#EED000"/>
<path fill-rule="evenodd" clip-rule="evenodd" d="M226.355 223.357H214.363L215.958 176.569H224.816L226.355 223.357ZM227.017 249.375H214.283L214.148 228.128L227.017 228.124V249.375Z" fill="#EED000" stroke="#002D56" stroke-width="1.17903" stroke-miterlimit="3.864"/>
<path d="M214.165 225.705H227.074C227.973 225.705 228.702 226.253 228.702 226.929C228.702 227.605 227.973 228.153 227.074 228.153H214.165C213.266 228.153 212.537 227.605 212.537 226.929C212.537 226.253 213.266 225.705 214.165 225.705Z" fill="#EED000" stroke="#002D56" stroke-width="1.17903" stroke-miterlimit="3.864"/>
<path fill-rule="evenodd" clip-rule="evenodd" d="M214.821 223.408H226.089C226.89 223.408 227.539 223.922 227.539 224.556C227.539 225.191 226.89 225.705 226.089 225.705H214.821C214.02 225.705 213.371 225.191 213.371 224.556C213.371 223.922 214.02 223.408 214.821 223.408Z" fill="#EED000" stroke="#002D56" stroke-width="1.17903" stroke-miterlimit="3.864"/>
<path d="M217.131 232.108H223.934V246.116H217.131V232.108Z" stroke="#002D56" stroke-width="1.17903" stroke-miterlimit="3.864"/>
<path d="M216.391 174.937H224.206C224.849 174.937 225.369 175.315 225.369 175.782C225.369 176.248 224.849 176.627 224.206 176.627H216.391C215.749 176.627 215.229 176.248 215.229 175.782C215.229 175.315 215.749 174.937 216.391 174.937Z" fill="#EED000" stroke="#002D56" stroke-width="0.680556" stroke-miterlimit="3.864"/>
<path fill-rule="evenodd" clip-rule="evenodd" d="M165.689 249.429H183.831V251.877H165.689V249.429Z" fill="#EED000" stroke="#002D56" stroke-width="0.567083" stroke-miterlimit="3.864"/>
<path fill-rule="evenodd" clip-rule="evenodd" d="M98.338 216.254C95.2562 214.039 92 214.622 92 214.622C92 214.622 94.3531 211.489 98.1054 213.048C100.489 214.039 102.525 217.711 108.572 213.864C114.619 210.017 116.966 208.074 122.295 206.287C127.769 204.451 132.063 204.072 133.342 203.606C134.622 203.139 136.623 202.409 137.645 196.261C137.878 194.862 143.46 207.919 143.46 207.919C143.46 207.919 142.646 212.232 137.296 214.68C131.947 217.129 122.678 218.593 117.526 222.724C115.782 224.123 112.43 226.542 110.403 229.515C105.635 236.509 100.664 237.296 100.664 237.296C100.664 237.296 105.172 233.348 106.42 228.028C106.653 227.038 106.273 222.581 108.049 220.801C106.163 222.691 101.389 218.967 102.001 219.46C102.001 219.46 101.42 218.469 98.338 216.254ZM213.76 196.373C213.76 196.373 214.69 201.678 225.098 204.359C235.507 207.04 237.135 210.421 238.821 211.237C240.508 212.053 244.889 215.195 249.578 213.627C251.426 213.009 256.589 211.587 257.01 211.903C257.168 212.166 255.535 214.905 255.335 215.142C251.882 219.234 250.567 219.864 249.288 220.505C246.494 221.905 246.278 222.075 244.287 222.195C244.287 222.195 246.148 224.527 246.439 228.315C246.729 232.104 251.788 235.951 251.788 235.951C251.788 235.951 245.043 234.202 242.078 230.181C239.112 226.159 234.228 222.72 232.425 221.845C230.623 220.971 221.435 217.823 219.517 217.066C217.598 216.308 211.609 213.16 210.794 208.089C209.98 203.018 213.76 196.373 213.76 196.373Z" fill="#EED000" stroke="#002D56" stroke-width="1.03167" stroke-miterlimit="3.864"/>
<path d="M115.078 200.452C108.013 197.684 110.195 195.815 110.195 195.815C111.933 192.707 114.211 188.803 122.819 185.491C134.332 181.061 146.077 183.043 142.937 188.172C141.029 191.291 137.733 196.741 137.733 196.741C137.733 196.741 136.367 193.069 130.087 195.4C123.807 197.732 121.869 198.72 121.496 199.952C120.915 201.875 121.147 203.099 125.683 202.4C122.717 203.391 119.413 202.357 115.704 200.707L115.078 200.452Z" fill="#EED000" stroke="#002D56" stroke-width="1.03167" stroke-miterlimit="3.864"/>
<path d="M222.744 195.225C224.05 195.562 226.278 196.643 227.592 197.587C233.993 202.183 232.814 206.194 231.04 206.298C229.063 206.415 243.59 206.009 245.334 205.076C247.078 204.143 247.66 203.094 246.613 200.879C245.567 198.664 237.659 185.142 224.75 182.577C211.841 180.012 206.726 185.455 207.829 187.298C208.876 189.047 213.644 194.876 213.818 197.265C215.142 194.764 218.121 194.052 222.744 195.225Z" fill="#EED000" stroke="#002D56" stroke-width="0.884306" stroke-miterlimit="3.864" stroke-linejoin="round"/>
<path fill-rule="evenodd" clip-rule="evenodd" d="M216.557 192.72L214.065 189.141L214.714 193.03L213.714 193.197L212.583 186.421L213.656 186.241L216.892 190.772L218.52 185.425L219.469 185.266L220.599 192.042L219.276 192.264L218.627 188.375L217.306 192.595L216.557 192.72ZM226.844 190.124C226.628 191.185 226.224 191.947 225.631 192.409C225.039 192.867 224.35 193.016 223.564 192.856C222.786 192.697 222.212 192.291 221.843 191.636C221.475 190.979 221.397 190.126 221.609 189.079L221.687 188.696C221.885 187.72 222.271 186.97 222.844 186.446C223.42 185.922 224.142 185.749 225.01 185.926C225.858 186.099 226.436 186.542 226.743 187.255C227.053 187.969 227.111 188.805 226.917 189.762L226.844 190.124ZM225.416 189.739L225.453 189.557C225.621 188.727 225.679 188.097 225.625 187.668C225.571 187.239 225.289 186.972 224.779 186.868C224.308 186.772 223.959 186.887 223.732 187.212C223.507 187.538 223.302 188.161 223.115 189.08L223.082 189.245C222.894 190.17 222.834 190.819 222.902 191.192C222.97 191.566 223.255 191.803 223.757 191.906C224.168 191.99 224.503 191.864 224.762 191.53C225.023 191.196 225.241 190.599 225.416 189.739ZM232.351 193.096C231.821 194.075 231.242 194.702 230.616 194.975C229.992 195.251 229.32 195.192 228.6 194.8L226.503 193.659L229.774 187.621L231.654 188.644C232.514 189.112 232.987 189.707 233.074 190.428C233.166 191.148 232.969 191.956 232.483 192.852L232.351 193.096ZM231.076 192.35L231.165 192.186C231.523 191.524 231.688 190.96 231.66 190.492C231.632 190.024 231.431 189.689 231.057 189.485L230.575 189.223L228.28 193.46L228.871 193.782C229.238 193.982 229.589 193.992 229.926 193.812C230.263 193.63 230.647 193.142 231.076 192.35ZM236.085 193.379L234.796 194.695L236.177 196.056L235.451 196.797L234.07 195.435L232.713 196.819L234.618 198.696L233.902 199.427L230.951 196.519L235.755 191.618L238.58 194.401L237.864 195.132L236.085 193.379ZM236.77 204.243L236.034 202.99C236.981 202.418 237.609 201.93 237.92 201.525C238.235 201.122 238.288 200.744 238.081 200.391L237.906 200.093L235.253 201.66L234.508 200.392L240.414 196.905L241.714 199.119C242.031 199.658 242.132 200.112 242.019 200.48C241.906 200.851 241.671 201.142 241.314 201.354L240.993 201.543C240.656 201.742 240.329 201.803 240.01 201.727C239.691 201.651 239.398 201.427 239.131 201.056C239.252 201.58 239.139 202.094 238.792 202.597C238.449 203.101 237.775 203.65 236.77 204.243ZM240.138 200.366L240.299 200.271C240.554 200.121 240.699 199.948 240.733 199.754C240.766 199.56 240.709 199.337 240.56 199.083L240.317 198.669L238.755 199.591L238.957 199.934C239.133 200.235 239.317 200.416 239.508 200.478C239.698 200.539 239.908 200.502 240.138 200.366ZM218.228 212.723L217.014 211.838L217.592 210.222L215.854 208.956L214.49 210L213.523 209.296L219.324 205.028L220.431 205.834L218.228 212.723ZM217.923 209.236L218.756 206.719L216.667 208.321L217.923 209.236ZM225.857 209.869L224.585 209.247L222.029 214.502L220.71 213.857L223.267 208.602L221.964 207.965L222.412 207.045L226.305 208.948L225.857 209.869ZM229.004 210.004L226.327 216.328L224.976 215.754L227.654 209.429L229.004 210.004ZM234.199 216.284C233.759 217.274 233.2 217.93 232.522 218.252C231.844 218.571 231.14 218.567 230.406 218.24C229.681 217.916 229.209 217.395 228.99 216.676C228.772 215.954 228.88 215.105 229.313 214.129L229.472 213.771C229.876 212.861 230.414 212.213 231.087 211.825C231.763 211.439 232.505 211.426 233.314 211.788C234.105 212.141 234.574 212.699 234.72 213.462C234.868 214.226 234.744 215.054 234.348 215.947L234.199 216.284ZM232.887 215.599L232.963 215.429C233.307 214.655 233.499 214.053 233.539 213.622C233.579 213.192 233.361 212.87 232.886 212.658C232.447 212.462 232.081 212.498 231.789 212.766C231.499 213.036 231.164 213.599 230.783 214.456L230.715 214.61C230.332 215.472 230.133 216.093 230.119 216.472C230.105 216.851 230.332 217.145 230.8 217.354C231.183 217.525 231.538 217.476 231.863 217.206C232.19 216.936 232.531 216.401 232.887 215.599ZM238.778 219.178L240.805 215.657L241.71 216.18L238.283 222.131L237.737 221.815L237.069 216.444L234.916 220.182L234.012 219.659L237.439 213.708L238.119 214.102L238.778 219.178ZM121.706 196.422L120.796 196.97L115.724 192.009L116.996 191.243L120.201 194.39L119.071 189.993L119.962 189.456L123.311 192.517L121.985 188.238L123.002 187.625L124.986 194.446L124.076 194.994L120.604 191.863L121.706 196.422ZM126.781 186.694L128.785 193.264L127.382 193.695L125.378 187.124L126.781 186.694ZM134.662 190.201C134.763 190.922 134.61 191.488 134.203 191.898C133.795 192.305 133.185 192.565 132.373 192.679C131.909 192.745 131.513 192.771 131.186 192.759C130.859 192.747 130.586 192.712 130.365 192.654L130.201 191.482C130.378 191.564 130.647 191.626 131.007 191.667C131.367 191.705 131.714 191.701 132.051 191.653C132.524 191.587 132.839 191.475 132.997 191.318C133.158 191.16 133.217 190.928 133.174 190.622C133.146 190.423 133.057 190.256 132.908 190.121C132.758 189.986 132.365 189.834 131.729 189.666C131.221 189.53 130.814 189.322 130.508 189.043C130.201 188.761 130.01 188.347 129.933 187.8C129.86 187.277 130.009 186.805 130.38 186.385C130.753 185.964 131.313 185.702 132.06 185.596C132.422 185.545 132.751 185.531 133.047 185.554C133.346 185.573 133.558 185.599 133.681 185.63L133.827 186.667C133.576 186.639 133.324 186.618 133.073 186.603C132.824 186.589 132.563 186.602 132.289 186.64C131.902 186.695 131.631 186.797 131.478 186.947C131.325 187.098 131.261 187.268 131.288 187.457C131.322 187.698 131.411 187.87 131.557 187.975C131.702 188.081 132.104 188.21 132.761 188.362C133.374 188.503 133.826 188.727 134.119 189.035C134.415 189.34 134.596 189.729 134.662 190.201ZM155.874 185.529C155.663 185.943 155.354 186.227 154.947 186.38C154.544 186.532 154.077 186.472 153.547 186.201C153.236 186.043 152.998 185.893 152.83 185.753C152.665 185.614 152.541 185.478 152.457 185.343L152.934 184.406C153.012 184.5 153.122 184.609 153.266 184.734C153.41 184.855 153.568 184.96 153.737 185.046C153.895 185.127 154.056 185.151 154.218 185.118C154.38 185.085 154.516 184.96 154.626 184.744L156.957 180.159L158.264 180.827L155.874 185.529ZM163.32 188.275C163.089 188.879 162.732 189.284 162.249 189.492C161.767 189.697 161.156 189.657 160.418 189.373C159.626 189.068 159.127 188.667 158.92 188.168C158.714 187.669 158.749 187.06 159.024 186.34L160.677 182.025L162.047 182.552L160.327 187.041C160.194 187.39 160.167 187.68 160.247 187.913C160.331 188.143 160.557 188.329 160.925 188.471C161.266 188.602 161.549 188.621 161.772 188.528C161.998 188.437 162.188 188.19 162.343 187.787L164.053 183.323L165.068 183.714L163.32 188.275ZM170.57 189.757C170.482 190.48 170.188 190.986 169.688 191.277C169.189 191.564 168.533 191.657 167.72 191.557C167.254 191.5 166.865 191.423 166.552 191.326C166.24 191.23 165.984 191.125 165.787 191.012L165.93 189.837C166.08 189.962 166.324 190.092 166.661 190.225C166.999 190.355 167.336 190.441 167.673 190.482C168.147 190.541 168.48 190.515 168.674 190.404C168.87 190.293 168.987 190.085 169.024 189.777C169.049 189.578 169.006 189.394 168.896 189.225C168.787 189.055 168.446 188.807 167.875 188.479C167.42 188.216 167.081 187.909 166.857 187.561C166.633 187.209 166.555 186.759 166.622 186.21C166.687 185.686 166.952 185.269 167.419 184.96C167.889 184.651 168.497 184.542 169.246 184.634C169.608 184.679 169.93 184.75 170.21 184.849C170.494 184.945 170.692 185.025 170.803 185.087L170.675 186.127C170.441 186.034 170.203 185.949 169.964 185.869C169.727 185.791 169.471 185.736 169.197 185.702C168.809 185.654 168.521 185.683 168.335 185.788C168.148 185.894 168.043 186.041 168.02 186.231C167.99 186.472 168.032 186.662 168.145 186.802C168.259 186.941 168.613 187.17 169.209 187.488C169.764 187.783 170.143 188.117 170.347 188.49C170.554 188.861 170.628 189.283 170.57 189.757ZM177.327 186.344L175.912 186.319L175.81 192.165L174.344 192.139L174.446 186.294L172.996 186.268L173.014 185.244L177.345 185.32L177.327 186.344ZM181.329 184.937L182.164 191.757L180.708 191.936L179.873 185.117L181.329 184.937ZM189.532 189.714C189.456 189.81 189.301 189.927 189.066 190.066C188.833 190.207 188.549 190.329 188.217 190.431C187.378 190.688 186.609 190.625 185.912 190.242C185.217 189.855 184.707 189.132 184.384 188.072L184.303 187.807C184.002 186.82 184.028 185.945 184.382 185.183C184.739 184.419 185.323 183.913 186.135 183.665C186.484 183.558 186.782 183.49 187.03 183.462C187.276 183.431 187.474 183.43 187.625 183.461L187.943 184.506C187.805 184.475 187.626 184.465 187.406 184.475C187.189 184.485 186.945 184.531 186.672 184.614C186.166 184.769 185.833 185.098 185.674 185.601C185.517 186.103 185.551 186.72 185.774 187.451L185.802 187.543C186.041 188.327 186.349 188.866 186.728 189.159C187.109 189.452 187.529 189.528 187.988 189.387C188.299 189.292 188.555 189.179 188.755 189.047C188.955 188.913 189.111 188.797 189.222 188.699L189.532 189.714ZM191.563 182.434L192.399 184.077L194.125 183.195L194.595 184.12L192.869 185.002L193.747 186.73L196.127 185.514L196.591 186.427L192.904 188.31L189.792 182.188L193.322 180.386L193.785 181.298L191.563 182.434ZM119.304 215.148C119.843 216.123 120.06 216.949 119.954 217.625C119.85 218.301 119.44 218.837 118.724 219.235L116.637 220.395L113.312 214.384L115.184 213.345C116.039 212.869 116.794 212.789 117.447 213.103C118.102 213.412 118.676 214.013 119.17 214.905L119.304 215.148ZM117.992 215.825L117.901 215.662C117.537 215.004 117.15 214.561 116.742 214.333C116.333 214.105 115.943 214.095 115.57 214.301L115.091 214.568L117.424 218.786L118.013 218.459C118.377 218.256 118.575 217.964 118.604 217.584C118.632 217.2 118.428 216.614 117.992 215.825ZM125.489 212.565C125.912 213.563 126.009 214.42 125.781 215.137C125.552 215.851 125.068 216.365 124.33 216.68C123.599 216.991 122.896 216.981 122.222 216.651C121.547 216.319 121.001 215.66 120.585 214.677L120.432 214.316C120.044 213.4 119.938 212.563 120.114 211.805C120.293 211.046 120.79 210.493 121.606 210.146C122.403 209.807 123.129 209.844 123.786 210.257C124.445 210.67 124.965 211.326 125.346 212.225L125.489 212.565ZM124.095 213.059L124.023 212.887C123.692 212.108 123.384 211.556 123.097 211.233C122.81 210.91 122.427 210.85 121.948 211.054C121.506 211.242 121.283 211.535 121.279 211.932C121.278 212.329 121.46 212.958 121.826 213.822L121.892 213.977C122.26 214.846 122.577 215.415 122.844 215.684C123.111 215.953 123.48 215.987 123.952 215.787C124.338 215.622 124.544 215.329 124.568 214.906C124.595 214.483 124.437 213.867 124.095 213.059ZM130.889 214.304L127.789 211.24L129.134 214.945L128.181 215.293L125.837 208.836L126.859 208.463L130.865 212.327L131.493 206.772L132.397 206.442L134.741 212.899L133.48 213.359L132.135 209.654L131.603 214.044L130.889 214.304ZM139.925 146.301C139.921 146.442 139.859 146.66 139.739 146.954C139.622 147.25 139.447 147.566 139.213 147.899C138.624 148.741 137.883 149.247 136.992 149.416C136.099 149.581 135.149 149.31 134.142 148.605L133.889 148.428C132.951 147.771 132.386 146.975 132.195 146.039C132.005 145.1 132.195 144.223 132.765 143.409C133.01 143.059 133.236 142.781 133.442 142.575C133.644 142.368 133.824 142.222 133.981 142.139L134.975 142.835C134.828 142.909 134.659 143.031 134.466 143.2C134.275 143.367 134.084 143.587 133.893 143.86C133.538 144.368 133.457 144.903 133.65 145.466C133.846 146.027 134.291 146.551 134.987 147.038L135.074 147.098C135.819 147.62 136.462 147.873 137.003 147.857C137.547 147.839 137.98 147.599 138.302 147.139C138.521 146.827 138.677 146.539 138.771 146.276C138.862 146.011 138.925 145.794 138.961 145.626L139.925 146.301ZM143.646 137.126C144.511 137.961 144.972 138.805 145.03 139.657C145.085 140.506 144.786 141.269 144.133 141.945C143.488 142.614 142.738 142.937 141.885 142.913C141.029 142.888 140.175 142.463 139.322 141.64L139.009 141.338C138.214 140.57 137.752 139.752 137.623 138.882C137.495 138.01 137.792 137.201 138.513 136.454C139.217 135.725 140.004 135.419 140.873 135.538C141.745 135.653 142.571 136.088 143.351 136.841L143.646 137.126ZM142.372 138.299L142.223 138.155C141.547 137.502 140.989 137.076 140.55 136.876C140.11 136.676 139.679 136.796 139.255 137.235C138.865 137.639 138.75 138.049 138.912 138.463C139.077 138.874 139.533 139.442 140.282 140.165L140.417 140.295C141.17 141.022 141.745 141.463 142.141 141.615C142.536 141.768 142.942 141.629 143.359 141.198C143.701 140.844 143.796 140.442 143.645 139.992C143.497 139.539 143.073 138.975 142.372 138.299ZM150.442 132.439L147.79 128.788L148.779 128.07L153.261 134.238L152.664 134.672L146.762 133.039L149.578 136.914L148.588 137.633L144.107 131.464L144.851 130.924L150.442 132.439ZM159.939 128.575C160.281 129.308 160.29 129.964 159.965 130.543C159.639 131.119 159.041 131.609 158.17 132.015C157.673 132.247 157.239 132.414 156.87 132.515C156.501 132.617 156.185 132.675 155.921 132.691L155.366 131.5C155.589 131.526 155.909 131.498 156.324 131.415C156.738 131.33 157.125 131.204 157.485 131.036C157.992 130.799 158.309 130.57 158.435 130.347C158.565 130.123 158.557 129.855 158.412 129.544C158.318 129.342 158.166 129.196 157.956 129.104C157.746 129.013 157.259 128.989 156.495 129.033C155.886 129.064 155.366 128.985 154.935 128.796C154.503 128.603 154.158 128.229 153.899 127.673C153.651 127.142 153.668 126.588 153.949 126.011C154.233 125.432 154.775 124.957 155.575 124.583C155.962 124.403 156.325 124.272 156.664 124.193C157.004 124.109 157.248 124.062 157.395 124.052L157.887 125.106C157.598 125.163 157.31 125.228 157.024 125.301C156.742 125.374 156.454 125.478 156.161 125.615C155.746 125.808 155.477 126.012 155.353 126.225C155.23 126.439 155.213 126.642 155.303 126.834C155.417 127.079 155.572 127.231 155.767 127.293C155.963 127.354 156.452 127.351 157.235 127.283C157.963 127.218 158.539 127.299 158.964 127.524C159.391 127.746 159.716 128.096 159.939 128.575ZM166.537 122.259L164.936 122.688L166.615 128.955L164.955 129.399L163.276 123.132L161.636 123.572L161.342 122.474L166.242 121.161L166.537 122.259ZM170.99 120.562L172.704 120.442L173.237 128.049L171.523 128.169L170.99 120.562ZM181.889 121.898L180.235 121.783L179.783 128.255L178.069 128.135L178.521 121.663L176.828 121.544L176.907 120.41L181.968 120.764L181.889 121.898ZM190.23 128.427C190.021 129.113 189.645 129.587 189.104 129.847C188.564 130.105 187.851 130.098 186.965 129.827C186.014 129.537 185.395 129.12 185.107 128.578C184.818 128.035 184.799 127.355 185.049 126.536L186.549 121.632L188.191 122.134L186.631 127.237C186.51 127.633 186.508 127.958 186.624 128.212C186.744 128.464 187.025 128.657 187.466 128.792C187.875 128.917 188.205 128.921 188.456 128.804C188.71 128.688 188.907 128.401 189.047 127.943L190.598 122.87L191.816 123.242L190.23 128.427ZM199.808 127.948L198.331 127.196L195.386 132.977L193.855 132.197L196.8 126.416L195.288 125.645L195.804 124.632L200.324 126.935L199.808 127.948ZM204.021 129.308L205.411 130.317L200.929 136.486L199.539 135.476L204.021 129.308ZM210.708 140.462C209.858 141.312 209.006 141.759 208.153 141.801C207.303 141.842 206.546 141.53 205.881 140.865C205.224 140.208 204.914 139.453 204.952 138.6C204.992 137.745 205.432 136.898 206.27 136.06L206.578 135.752C207.359 134.971 208.185 134.523 209.057 134.409C209.931 134.297 210.735 134.608 211.469 135.342C212.186 136.059 212.478 136.851 212.344 137.718C212.213 138.587 211.764 139.405 210.997 140.172L210.708 140.462ZM209.558 139.168L209.704 139.022C210.369 138.357 210.805 137.807 211.012 137.371C211.219 136.935 211.107 136.501 210.676 136.07C210.278 135.672 209.871 135.551 209.454 135.706C209.04 135.863 208.464 136.31 207.728 137.046L207.596 137.178C206.855 137.919 206.405 138.486 206.246 138.879C206.086 139.272 206.218 139.68 206.642 140.104C206.99 140.452 207.39 140.554 207.843 140.412C208.297 140.271 208.869 139.857 209.558 139.168ZM215.44 147.101L219.09 144.449L219.809 145.438L213.64 149.92L213.207 149.323L214.84 143.421L210.964 146.237L210.246 145.248L216.414 140.766L216.955 141.51L215.44 147.101Z" fill="#002D56"/>
<path fill-rule="evenodd" clip-rule="evenodd" d="M200.09 202.582C200.09 202.582 200.511 202.119 200.647 202.457C200.784 202.794 200.813 203.082 200.696 203.208C200.579 203.334 200.593 203.413 200.428 203.625C200.263 203.836 200.336 203.957 200.177 204.059C200.017 204.161 199.944 204.115 199.768 204.106L199.697 204.63L199.582 205.069L199.648 205.49L199.948 206.161L199.719 205.658L200.039 206.207C200.282 206.845 202.584 207.487 203.418 207.86C205.154 208.637 204.883 212.329 205.065 212.695C205.248 213.06 205.979 217.949 205.979 218.772C205.979 219.594 205.065 224.026 204.974 224.94C204.929 225.395 204.815 226.486 204.701 227.59C204.679 227.808 204.365 227.522 204.266 227.718C204.135 227.978 204.154 228.727 204.185 228.975C204.131 229.514 203.977 229.933 203.952 230.207C203.861 231.212 202.935 231.306 202.935 231.306C202.935 231.306 202.902 234.744 202.719 235.566C202.536 236.389 202.412 236.546 202.686 238.83C202.96 241.115 202.321 243.948 202.321 243.948C202.321 243.948 201.377 248.113 201.194 248.752C201.011 249.392 201.315 249.979 201.407 250.436C201.498 250.893 201.498 251.624 201.498 251.624H193.463C193.259 251.624 193.604 250.901 193.874 250.39C193.999 250.154 194.377 249.796 194.925 249.705C195.474 249.613 195.519 249.02 195.839 248.288C196.159 247.557 196.022 246.004 195.748 245.044C195.474 244.085 195.108 241.755 195.108 240.932C195.108 240.11 194.655 238.236 194.198 236.957C193.741 235.678 193.512 232.89 193.512 232.616C193.512 232.497 193.46 232.342 193.363 232.1C193.238 231.787 193.218 231.327 192.961 230.606C192.504 229.326 192.546 227.773 192.5 226.448C192.455 225.123 191.952 223.661 191.721 223.337L191.579 222.764L190.17 223.204L188.808 224.271C188.508 224.542 188.18 224.587 187.63 224.636C186.563 224.731 185.497 223.48 185.246 221.671C184.97 219.671 185.365 218.814 187.59 218.821L188.579 218.823L189.438 218.852H189.854C189.854 218.852 190.104 219.338 189.716 219.51C189.327 219.682 189.217 219.711 189.217 219.711L189.713 220.279C189.704 220.28 189.982 220.092 190.81 219.639L191.118 218.92C191.141 218.463 191.175 218.36 191.084 217.858C190.993 217.355 190.815 214.465 190.815 213.78C190.815 213.095 190.835 212.284 190.905 211.493C190.968 210.773 190.959 209.169 191.308 208.488C191.742 207.643 194.089 207.277 194.089 207.277C194.089 207.277 195.105 207.166 195.242 206.891C195.293 206.789 195.548 206.351 195.656 206.18C195.003 205.948 194.789 205.145 194.693 204.95C194.594 204.746 194.419 203.807 194.396 203.716C194.363 203.581 194.158 202.732 194.044 202.396C193.929 202.06 194.026 201.448 194.026 201.448L193.283 201.366L192.384 201.297C192.384 201.297 191.882 201.226 191.752 201.176C191.623 201.125 191.187 201.036 191.187 201.036C191.187 201.036 190.473 200.424 191.181 199.933C191.889 199.442 192.722 198.987 192.858 198.906C192.995 198.825 193.049 198.69 193.049 198.69L193.036 198.514C192.873 198.263 192.715 197.924 192.512 197.187C192.308 196.45 194.242 196.143 194.242 196.143C194.802 196.095 196.678 196.343 196.485 196.3C196.876 196.387 197.133 196.373 197.881 196.368C198.63 196.364 199.606 196.635 200.15 196.751C200.695 196.868 201.249 197.372 201.53 197.893C201.811 198.414 202.948 199.073 203.283 199.398C203.79 199.891 204.393 200.924 204.625 201.301C205.031 201.961 204.593 201.803 204.457 201.884C203.823 202.261 200.293 201.465 200.6 201.503C200.853 201.534 200.794 201.444 200.521 201.297L200.519 201.546L200.313 202.323L200.09 202.582Z" fill="#EED000" stroke="#EED000" stroke-width="0.226806" stroke-miterlimit="3.864"/>
<path d="M196.339 212.466C196.451 210.594 196.604 209.052 196.887 207.851C196.978 207.463 196.887 207.28 196.887 207.28C196.4 207.268 196.073 207.231 195.569 206.649" stroke="#002D56" stroke-width="0.567083" stroke-miterlimit="3.864"/>
<path d="M193.256 232.875L193.363 232.1C193.363 232.1 193.604 231.656 193.512 230.788C193.421 229.92 193.512 227.499 193.741 226.265C193.957 225.097 195.79 221.467 195.973 220.508C196.131 219.68 196.156 216.898 196.156 216.67C196.156 216.594 196.065 216.33 196.11 215.299" stroke="#002D56" stroke-width="0.680556" stroke-miterlimit="3.864"/>
<path d="M195.657 206.18L195.242 206.891C195.242 206.891 191.743 207.643 191.309 208.488C190.959 209.169 190.815 213.095 190.815 213.78C190.815 214.466 190.993 217.355 191.084 217.858C191.176 218.36 191.141 218.463 191.118 218.92" stroke="#002D56" stroke-width="0.752917" stroke-miterlimit="3.864" stroke-linejoin="round"/>
<path d="M197.664 217.629C197.71 217.995 197.616 220.336 198.578 221.833C198.989 222.472 200.787 225.957 201.182 226.402C201.419 226.668 202.028 226.772 202.182 227.135C202.975 229.011 202.137 230.857 203.258 231.126L203.572 232.202" stroke="#002D56" stroke-width="0.680556" stroke-miterlimit="3.864"/>
<path d="M200.162 206.145C199.972 206.409 198.695 207.177 197.942 207.177C197.668 207.177 197.83 207.737 197.709 208.4C197.581 209.097 197.572 213.06 197.663 213.563C197.7 213.767 197.628 213.871 197.617 214.522" stroke="#002D56" stroke-width="0.567083" stroke-miterlimit="3.864"/>
<path d="M201.354 211.044L201.821 212.877L202.461 216.258L202.689 218.314L202.735 220.142L202.689 221.696L202.506 222.792L202.278 223.797L201.867 227.087C203.192 226.767 204.063 227.078 204.699 227.59" stroke="#002D56" stroke-width="0.680542" stroke-miterlimit="3.8637" stroke-linecap="round" stroke-linejoin="round"/>
<path d="M192.609 207.681L192.699 207.995C192.574 207.306 194.785 217.081 202.324 221.65L202.69 221.879" stroke="#002D56" stroke-width="0.680556" stroke-miterlimit="3.864"/>
<path d="M194.089 207.277C194.881 209.794 197.251 216.084 202.666 219.365L202.735 219.822M195.229 222.246C196.619 222.538 197.516 222.537 198.772 222.201M197.405 229.366C197.679 231.265 198.017 233.533 198.12 233.895C198.303 234.535 198.486 237.733 198.486 237.733L198.577 240.84L198.668 244.77V249.339C197.918 249.864 197.524 250.648 197.486 251.689" stroke="#002D56" stroke-width="0.680556" stroke-miterlimit="3.864"/>
<path d="M189.889 219.59C189.422 220.291 187.12 218.96 187.003 220.946C186.913 222.473 187.209 224.199 188.685 224.389L189.772 223.67L190.063 223.378" stroke="#002D56" stroke-width="0.627361" stroke-miterlimit="3.864" stroke-linejoin="round"/>
<path fill-rule="evenodd" clip-rule="evenodd" d="M188.519 218.775C187.886 208.856 188.18 200.167 189.825 193.587C185.396 200.018 187.218 218.782 187.218 218.782L188.519 218.775Z" fill="#EED000"/>
<path d="M191.13 218.771L190.81 219.64C189.983 220.092 189.726 220.116 189.736 220.116" stroke="#002D56" stroke-width="0.752917" stroke-miterlimit="3.864" stroke-linejoin="round"/>
<path d="M189.625 219.901C189.625 219.901 190.437 222.06 189.772 223.67" stroke="#002D56" stroke-width="0.627361" stroke-miterlimit="3.864" stroke-linejoin="round"/>
<path d="M188.541 218.832L189.438 218.852H189.854C189.854 218.852 190.104 219.339 189.716 219.51C189.328 219.682 189.062 219.679 189.062 219.679" stroke="#002D56" stroke-width="0.484444" stroke-miterlimit="3.864" stroke-linejoin="round"/>
<path d="M188.808 224.271C188.508 224.542 188.181 224.587 187.63 224.636C186.564 224.731 185.497 223.48 185.247 221.671C184.97 219.671 185.237 218.839 187.218 218.782" stroke="#002D56" stroke-width="0.484444" stroke-miterlimit="3.864"/>
<path d="M189.152 219.66H187.73C187.73 219.66 186.974 219.861 186.94 220.476C186.886 221.456 186.868 222.84 187.29 223.384L187.711 223.82" stroke="#002D56" stroke-width="0.484444" stroke-miterlimit="3.864"/>
<path d="M194.029 200.561L194.153 201.301L193.978 201.619L193.209 201.568L192.308 201.538C192.308 201.538 191.803 201.49 191.672 201.445C191.54 201.4 191.101 201.33 191.101 201.33C191.101 201.33 190.449 200.467 191.135 199.946C191.821 199.424 192.527 199.057 192.66 198.97C192.793 198.883 192.858 198.906 192.858 198.906" stroke="#002D56" stroke-width="0.567083" stroke-miterlimit="3.864"/>
<path d="M194.021 200.722L194.022 201.559" stroke="#002D56" stroke-width="0.226806" stroke-miterlimit="3.864"/>
<path d="M194.143 201.345C194.143 201.345 193.929 202.06 194.043 202.397C194.158 202.733 194.363 203.582 194.396 203.716C194.419 203.808 194.594 204.747 194.693 204.95C194.793 205.153 195.021 206.014 195.737 206.205C196.453 206.397 197.253 206.263 197.709 205.956" stroke="#002D56" stroke-width="0.45375" stroke-miterlimit="3.864"/>
<path d="M195.529 204.531C195.529 204.531 195.878 204.404 195.996 204.455C196.115 204.505 196.454 204.545 196.454 204.545C196.454 204.545 196.876 204.468 197.017 204.508C197.158 204.548 197.383 204.549 197.449 204.542M195.836 204.984C195.836 204.984 196.668 205.146 197.017 205M196.989 201.413C196.989 201.413 197.74 201.104 198.397 201.59" stroke="#002D56" stroke-width="0.340278" stroke-miterlimit="3.864"/>
<path d="M196.035 201.367C196.092 201.524 195.98 201.981 195.883 202.163C195.785 202.345 195.757 202.673 195.695 202.813C195.632 202.953 195.554 203.191 195.558 203.323C195.562 203.455 195.562 203.445 195.766 203.554C195.969 203.664 196.113 203.569 196.269 203.522C196.426 203.476 196.565 203.431 196.706 203.471C196.847 203.512 197.051 203.401 197.047 203.258C197.044 203.115 197 202.903 196.905 202.821C196.81 202.739 196.608 202.608 196.608 202.608" stroke="#002D56" stroke-width="0.272222" stroke-miterlimit="3.864"/>
<path d="M194.632 201.459C194.745 201.442 195.466 201.038 196.064 201.454" stroke="#002D56" stroke-width="0.340278" stroke-miterlimit="3.864"/>
<path d="M195.259 201.826C194.987 201.821 194.766 201.872 194.765 201.94C194.764 202.007 194.983 202.066 195.255 202.07C195.527 202.075 195.748 202.024 195.749 201.957C195.75 201.889 195.531 201.831 195.259 201.826Z" fill="#002D56" stroke="#002D56" stroke-width="0.226806" stroke-miterlimit="3.864"/>
<path d="M195.656 206.18C195.682 206.19 195.709 206.198 195.737 206.205C196.453 206.397 197.253 206.263 197.709 205.956" stroke="#002D56" stroke-width="0.45375" stroke-miterlimit="3.864"/>
<path d="M193.893 196.146C193.893 196.146 192.02 196.701 192.256 197.428C192.491 198.155 192.664 198.487 192.838 198.73C193.012 198.973 193.355 199.921 193.462 200.186C193.57 200.45 193.505 200.932 193.941 200.717C196.42 199.498 201.755 201.608 200.607 201.516C200.298 201.492 204.061 202.269 204.678 201.866C204.81 201.779 205.076 201.606 204.642 200.965C204.394 200.598 203.639 199.637 203.111 199.167C202.762 198.856 201.749 198.193 201.446 197.685C201.143 197.177 200.415 196.752 199.866 196.659C199.318 196.567 198.331 196.338 197.583 196.376C196.836 196.413 196.617 196.345 196.222 196.276C196.416 196.31 194.45 196.074 193.893 196.146Z" stroke="#002D56" stroke-width="0.453472" stroke-miterlimit="3.864"/>
<path d="M198.414 235.612C198.414 235.612 200.387 236.822 202.719 235.566C204.892 234.397 203.123 235.342 203.123 235.342M193.749 235.88C193.749 235.88 195.933 236.913 198.175 235.747" stroke="#002D56" stroke-width="0.680556" stroke-miterlimit="3.864"/>
<path d="M197.663 201.884C197.378 201.854 197.142 201.887 197.134 201.957C197.127 202.028 197.351 202.11 197.636 202.139C197.92 202.169 198.156 202.136 198.164 202.066C198.171 201.995 197.947 201.914 197.663 201.884Z" fill="#002D56" stroke="#002D56" stroke-width="0.226806" stroke-miterlimit="3.864"/>
<path d="M194.781 223.502C196.104 223.995 198.145 223.861 199.423 223.457" stroke="#002D56" stroke-width="0.680556" stroke-miterlimit="3.864"/>
<path fill-rule="evenodd" clip-rule="evenodd" d="M211.579 249.429H229.721V251.877H211.579V249.429Z" fill="#EED000" stroke="#002D56" stroke-width="0.0944444" stroke-miterlimit="3.864"/>
</g>
</svg>
