<svg width="600" height="600" viewBox="0 0 600 600" fill="none" xmlns="http://www.w3.org/2000/svg">
<g clip-path="url(#clip0_1_41595)">
<mask id="mask0_1_41595" style="mask-type:alpha" maskUnits="userSpaceOnUse" x="0" y="0" width="600" height="600">
<path fill-rule="evenodd" clip-rule="evenodd" d="M0 300C0 134.315 134.315 0 300 0V0C465.685 0 600 134.315 600 300V300C600 465.685 465.685 600 300 600V600C134.315 600 0 465.685 0 300V300Z" fill="#003776"/>
</mask>
<g mask="url(#mask0_1_41595)">
<rect x="-108" y="-1" width="900" height="76" fill="white"/>
<rect x="-108" y="224" width="900" height="76" fill="white"/>
<rect x="-108" y="449" width="900" height="76" fill="white"/>
<rect x="-108" y="74" width="900" height="75" fill="#C8102E"/>
<rect x="-108" y="299" width="900" height="75" fill="#C8102E"/>
<rect x="-108" y="524" width="900" height="75" fill="#C8102E"/>
<rect x="-108" y="149" width="900" height="75" fill="#012169"/>
<rect x="-108" y="374" width="900" height="75" fill="#012169"/>
<mask id="mask1_1_41595" style="mask-type:alpha" maskUnits="userSpaceOnUse" x="-108" y="0" width="489" height="300">
<rect x="-108" width="488.25" height="300" fill="#D9D9D9"/>
</mask>
<g mask="url(#mask1_1_41595)">
<rect x="-108" width="488.25" height="300" fill="#D9D9D9"/>
<path d="M-108 0H1008V600H-108V0Z" fill="#012169"/>
<mask id="mask2_1_41595" style="mask-type:luminance" maskUnits="userSpaceOnUse" x="-108" y="0" width="558" height="350">
<path d="M-108 0H450V350H-108V0Z" fill="white"/>
</mask>
<g mask="url(#mask2_1_41595)">
<path d="M-108 0L543 400ZM380.25 0L-108 300Z" fill="#012169"/>
<path d="M-108 0L543 400M380.25 0L-108 300" stroke="white" stroke-width="55.8"/>
</g>
<mask id="mask3_1_41595" style="mask-type:luminance" maskUnits="userSpaceOnUse" x="-108" y="0" width="512" height="325">
<path d="M-108 0V150H403.5V300H380.25L-108 0ZM380.25 0H136.125V325H-108V300L380.25 0Z" fill="white"/>
</mask>
<g mask="url(#mask3_1_41595)">
<path d="M-108 0L543 400ZM380.25 0L-108 300Z" fill="#012169"/>
<path d="M-108 0L543 400M380.25 0L-108 300" stroke="#C8102E" stroke-width="37.2"/>
</g>
<path d="M136.125 0V350ZM-108 150H450Z" fill="#012169"/>
<path d="M136.125 0V350M-108 150H450" stroke="white" stroke-width="93"/>
<path d="M1008 0V100H403.5L380.25 75V0H1008ZM1008 225V325H380.25V225H1008ZM1008 450V600H-108V450H1008Z" fill="white"/>
<path d="M1008 75V180H-108V120H380.25V75H1008ZM1008 300V375H-108V300H1008ZM1008 525V600H-108V525H1008ZM108.225 0H164.025V325H108.225V0Z" fill="#C8102E"/>
</g>
</g>
</g>
<defs>
<clipPath id="clip0_1_41595">
<rect width="600" height="600" fill="white"/>
</clipPath>
</defs>
</svg>
