<svg width="600" height="600" viewBox="0 0 600 600" fill="none" xmlns="http://www.w3.org/2000/svg">
<path fill-rule="evenodd" clip-rule="evenodd" d="M0 300C0 134.315 134.315 0 300 0V0C465.685 0 600 134.315 600 300V300C600 465.685 465.685 600 300 600V600C134.315 600 0 465.685 0 300V300Z" fill="#000F5D"/>
<path d="M278.879 280.22C278.851 280.188 278.824 280.148 278.797 280.109C266.769 265.281 279.023 256.361 279.293 244.075C288.879 260.045 276.395 264.934 290.403 280.232L278.879 280.22Z" fill="#FFB900"/>
<path d="M293.401 280.23C288.772 273.718 285.525 263.324 286.914 256.535C288.291 249.748 292.994 243.064 292.342 237.927C293.154 239.881 296.044 244.332 296.912 249.086C301.14 238.16 308.523 233.548 319.993 232.984C299.365 248.659 326.292 260.705 308.487 280.248L293.401 280.23Z" fill="#FFB900"/>
<path d="M312.309 280.257C320.705 269.657 318.484 261.606 317.725 255.172C317.069 249.608 317.35 246.113 326.404 241.788C325.699 243.39 324.749 244.418 324.183 245.804C323.512 247.448 322.558 249.329 323.86 253.276C325.24 256.339 325.282 260.638 324.158 262.804C323.083 263.1 328.961 255.537 331.211 255.002C328.713 260.167 329.744 266.08 325.777 272.625C324.317 275.034 321.809 277.794 318.727 280.256" fill="#FFB900"/>
<path d="M309.382 322.995C310.113 304.463 314.077 298.687 321.595 290.937C307.008 290.902 290.706 290.945 277.441 290.89C284.927 298.652 288.932 304.478 289.623 323.008C296.27 323.011 302.781 322.979 309.382 322.995Z" fill="#FFB900"/>
<path d="M299.475 368.146L305.246 386.248L308.434 332.496C302.491 332.475 296.548 332.513 290.604 332.504L293.664 386.237L299.475 368.146Z" fill="#FFB900"/>
<path d="M299.481 449.314C302.027 446.953 302.749 439.262 302.749 439.262L304.333 406.422L299.523 403.042L294.703 406.411L296.236 439.259C296.236 439.259 296.919 446.928 299.469 449.316L299.481 449.314Z" fill="#FFB900"/>
<path d="M272.664 199.817L261.44 194.061L262.222 192.538L273.446 198.293L272.664 199.817ZM274.577 195.672L265.507 186.905L266.811 185.557L277.493 187.689C277.728 187.734 277.943 187.783 278.137 187.836C278.332 187.889 278.505 187.949 278.655 188.015L271.305 180.909L272.442 179.733L281.51 188.5L280.218 189.835L269.355 187.706C269.189 187.672 269.022 187.631 268.856 187.581C268.694 187.527 268.527 187.466 268.356 187.396L275.707 194.502L274.577 195.672ZM284.15 174.874L281.406 175.944L284.899 184.903L287.643 183.833C288.819 183.375 289.558 182.649 289.863 181.654C290.165 180.654 290.025 179.406 289.442 177.912C288.885 176.481 288.152 175.504 287.244 174.982C286.335 174.46 285.304 174.424 284.15 174.874ZM283.863 186.962L279.281 175.21L283.757 173.465C285.395 172.826 286.838 172.828 288.087 173.468C289.341 174.107 290.327 175.348 291.047 177.194C291.791 179.104 291.919 180.767 291.429 182.182C290.944 183.592 289.892 184.611 288.275 185.242L283.863 186.962ZM295.725 183.387L294.728 170.814L296.435 170.678L297.432 183.252L295.725 183.387ZM303.441 178.225L307.301 178.965L306.432 173.131L303.441 178.225ZM298.871 182.684L305.848 171.179L307.706 171.536L309.946 184.809L308.121 184.459L307.52 180.507L302.642 179.571L300.612 183.018L298.871 182.684ZM311.199 185.481L318.329 175.076L319.876 176.136L319.557 187.024C319.552 187.263 319.54 187.483 319.52 187.684C319.5 187.885 319.47 188.065 319.431 188.224L325.209 179.79L326.558 180.714L319.429 191.12L317.896 190.069L318.181 179.003C318.187 178.833 318.2 178.662 318.221 178.49C318.247 178.321 318.281 178.147 318.321 177.966L312.542 186.401L311.199 185.481ZM326.882 192.344L328.975 195.671L332.646 191.053L326.882 192.344ZM320.503 192.049L333.673 189.293L334.681 190.895L326.511 201.593L325.521 200.021L327.998 196.883L325.352 192.68L321.447 193.549L320.503 192.049Z" fill="#FFB900"/>
<path fill-rule="evenodd" clip-rule="evenodd" d="M277.614 202.06H294.333L299.5 186.178L304.666 202.06H321.385L307.859 211.875L313.026 227.756L299.5 217.941L285.974 227.756L291.14 211.875L277.614 202.06Z" fill="#FFB900"/>
<path fill-rule="evenodd" clip-rule="evenodd" d="M284.174 150.127H295.882L299.501 139L303.119 150.127H314.828L305.355 157.003L308.973 168.129L299.501 161.253L290.029 168.129L293.647 157.003L284.174 150.127Z" fill="#FFB900"/>
<path fill-rule="evenodd" clip-rule="evenodd" d="M353.592 169.053H365.3L368.919 157.926L372.537 169.053H384.246L374.773 175.929L378.391 187.055L368.919 180.178L359.446 187.055L363.065 175.929L353.592 169.053Z" fill="#FFB900"/>
<path fill-rule="evenodd" clip-rule="evenodd" d="M404.764 214.44H416.472L420.09 203.314L423.708 214.44H435.417L425.945 221.317L429.563 232.443L420.09 225.566L410.618 232.443L414.236 221.317L404.764 214.44Z" fill="#FFB900"/>
<path fill-rule="evenodd" clip-rule="evenodd" d="M273.513 282.992H325.486V287.89H273.513V282.992Z" fill="#FFB900"/>
<path fill-rule="evenodd" clip-rule="evenodd" d="M432.347 279.727H444.055L447.674 268.6L451.291 279.727H463L453.528 286.603L457.146 297.73L447.674 290.853L438.201 297.73L441.819 286.603L432.347 279.727Z" fill="#FFB900"/>
<path fill-rule="evenodd" clip-rule="evenodd" d="M423.345 352.11H435.053L438.671 340.985L442.289 352.11H453.998L444.526 358.987L448.144 370.114L438.671 363.237L429.199 370.114L432.817 358.987L423.345 352.11Z" fill="#FFB900"/>
<path fill-rule="evenodd" clip-rule="evenodd" d="M383.39 408.017L395.098 408.018L398.717 396.891L402.335 408.018L414.043 408.017L404.57 414.894L408.189 426.02L398.717 419.143L389.244 426.02L392.863 414.894L383.39 408.017Z" fill="#FFB900"/>
<path fill-rule="evenodd" clip-rule="evenodd" d="M322.595 442.73H334.303L337.922 431.604L341.54 442.73H353.248L343.776 449.607L347.394 460.734L337.922 453.857L328.449 460.734L332.068 449.607L322.595 442.73Z" fill="#FFB900"/>
<path fill-rule="evenodd" clip-rule="evenodd" d="M348.654 361.53L360.363 361.531L363.981 350.405L367.599 361.531L379.307 361.53L369.835 368.407L373.453 379.534L363.981 372.657L354.508 379.534L358.127 368.407L348.654 361.53Z" fill="#FFB900"/>
<path fill-rule="evenodd" clip-rule="evenodd" d="M376.262 296.721H387.97L391.588 285.594L395.206 296.721H406.915L397.443 303.597L401.061 314.723L391.588 307.847L382.116 314.723L385.734 303.597L376.262 296.721Z" fill="#FFB900"/>
<path fill-rule="evenodd" clip-rule="evenodd" d="M284.174 388.35H295.882L299.501 377.223L303.119 388.35H314.828L305.355 395.226L308.973 406.353L299.501 399.476L290.029 406.353L293.647 395.226L284.174 388.35Z" fill="#FFB900"/>
<path fill-rule="evenodd" clip-rule="evenodd" d="M409.127 221.366L410.121 223.832L334.31 254.468L333.316 252.002L409.127 221.366Z" fill="#FFB900"/>
<path fill-rule="evenodd" clip-rule="evenodd" d="M430.149 279.842L429.858 282.478L330.414 272.015L330.705 269.378L430.149 279.842Z" fill="#FFB900"/>
<path fill-rule="evenodd" clip-rule="evenodd" d="M245.409 169.053H233.7L230.082 157.926L226.464 169.053H214.755L224.228 175.929L220.61 187.055L230.082 180.178L239.554 187.055L235.936 175.929L245.409 169.053Z" fill="#FFB900"/>
<path fill-rule="evenodd" clip-rule="evenodd" d="M194.237 214.44H182.528L178.911 203.314L175.293 214.44H163.584L173.056 221.317L169.438 232.443L178.911 225.566L188.383 232.443L184.765 221.317L194.237 214.44Z" fill="#FFB900"/>
<path fill-rule="evenodd" clip-rule="evenodd" d="M166.653 279.727H154.944L151.326 268.6L147.709 279.727H136L145.472 286.603L141.854 297.73L151.326 290.853L160.799 297.73L157.181 286.603L166.653 279.727Z" fill="#FFB900"/>
<path fill-rule="evenodd" clip-rule="evenodd" d="M175.655 352.11H163.946L160.329 340.985L156.711 352.11H145.002L154.474 358.987L150.856 370.114L160.329 363.237L169.801 370.114L166.183 358.987L175.655 352.11Z" fill="#FFB900"/>
<path fill-rule="evenodd" clip-rule="evenodd" d="M215.611 408.017L203.902 408.018L200.284 396.891L196.666 408.018L184.957 408.017L194.43 414.894L190.812 426.02L200.284 419.143L209.756 426.02L206.138 414.894L215.611 408.017Z" fill="#FFB900"/>
<path fill-rule="evenodd" clip-rule="evenodd" d="M276.406 442.73H264.697L261.079 431.604L257.461 442.73H245.752L255.225 449.607L251.607 460.734L261.079 453.857L270.551 460.734L266.933 449.607L276.406 442.73Z" fill="#FFB900"/>
<path fill-rule="evenodd" clip-rule="evenodd" d="M250.346 361.53L238.638 361.531L235.02 350.405L231.401 361.531L219.693 361.53L229.166 368.407L225.547 379.534L235.02 372.657L244.492 379.534L240.873 368.407L250.346 361.53Z" fill="#FFB900"/>
<path fill-rule="evenodd" clip-rule="evenodd" d="M226.486 295.044L214.777 295.044L211.159 283.918L207.541 295.044L195.833 295.044L205.305 301.921L201.687 313.047L211.159 306.17L220.631 313.047L217.013 301.921L226.486 295.044Z" fill="#FFB900"/>
<path fill-rule="evenodd" clip-rule="evenodd" d="M189.874 221.366L188.88 223.832L270.171 256.677L271.164 254.212L189.874 221.366Z" fill="#FFB900"/>
<path fill-rule="evenodd" clip-rule="evenodd" d="M168.852 279.842L169.142 282.478L268.586 272.015L268.295 269.378L168.852 279.842Z" fill="#FFB900"/>
<path fill-rule="evenodd" clip-rule="evenodd" d="M298.155 221.367H300.844V239.93H298.155V221.367Z" fill="#FFB900"/>
<path fill-rule="evenodd" clip-rule="evenodd" d="M241.457 187.901L239.248 189.425L274.885 241.262L277.094 239.738L241.457 187.901Z" fill="#FFB900"/>
<path fill-rule="evenodd" clip-rule="evenodd" d="M357.456 188.149L359.666 189.673L326.666 237.674L324.457 236.15L357.456 188.149Z" fill="#FFB900"/>
</svg>
