<svg width="600" height="600" viewBox="0 0 600 600" fill="none" xmlns="http://www.w3.org/2000/svg">
<mask id="mask0_1_12127" style="mask-type:alpha" maskUnits="userSpaceOnUse" x="0" y="0" width="600" height="600">
<path fill-rule="evenodd" clip-rule="evenodd" d="M0 300C0 134.315 134.315 0 300 0V0C465.685 0 600 134.315 600 300V300C600 465.685 465.685 600 300 600V600C134.315 600 0 465.685 0 300V300Z" fill="#003776"/>
</mask>
<g mask="url(#mask0_1_12127)">
<path d="M-138 0H762V600H-138V0Z" fill="black"/>
<path d="M-138 600V50L-63 100V600H12V0H87V600H162V0H237V600H312V0H387V600H462V0H537V600H612V0H687V600H762V550L-63 0V100L687 600H-138Z" fill="#EAAA00"/>
<path d="M312 0H537V300H762V150H312V0Z" fill="white"/>
<path d="M537 0H762V150H312V300H537V0Z" fill="#9D2235"/>
<path d="M537 279C542.092 279 546.976 276.977 550.576 273.376C554.177 269.776 556.2 264.892 556.2 259.8V250.2H574.8C579.892 250.2 584.776 248.177 588.376 244.576C591.977 240.976 594 236.092 594 231C594 225.908 591.977 221.024 588.376 217.424C584.776 213.823 579.892 211.8 574.8 211.8H556.2V169.2H675.6V187.8C675.6 192.892 677.623 197.776 681.224 201.376C684.824 204.977 689.708 207 694.8 207C699.892 207 704.776 204.977 708.376 201.376C711.977 197.776 714 192.892 714 187.8V169.2H730.8C735.892 169.2 740.776 167.177 744.376 163.576C747.977 159.976 750 155.092 750 150H537V279Z" fill="#9D2235"/>
<path d="M537 279C531.908 279 527.024 276.977 523.424 273.376C519.823 269.776 517.8 264.892 517.8 259.8V250.2H499.2C494.108 250.2 489.224 248.177 485.624 244.576C482.023 240.976 480 236.092 480 231C480 225.908 482.023 221.024 485.624 217.424C489.224 213.823 494.108 211.8 499.2 211.8H517.8V169.2H398.4V187.8C398.4 192.892 396.377 197.776 392.776 201.376C389.176 204.977 384.292 207 379.2 207C374.108 207 369.224 204.977 365.624 201.376C362.023 197.776 360 192.892 360 187.8V169.2H343.2C338.108 169.2 333.224 167.177 329.624 163.576C326.023 159.976 324 155.092 324 150H537V279Z" fill="white"/>
<path d="M537 21C542.092 21 546.976 23.0229 550.576 26.6235C554.177 30.2242 556.2 35.1078 556.2 40.2V49.8H574.8C579.892 49.8 584.776 51.8229 588.376 55.4235C591.977 59.0242 594 63.9078 594 69C594 74.0922 591.977 78.9757 588.376 82.5764C584.776 86.1771 579.892 88.2 574.8 88.2H556.2V130.8H675.6V112.2C675.6 107.108 677.623 102.224 681.224 98.6235C684.824 95.0228 689.708 93 694.8 93C699.892 93 704.776 95.0228 708.376 98.6235C711.977 102.224 714 107.108 714 112.2V130.8H730.8C735.892 130.8 740.776 132.823 744.376 136.424C747.977 140.024 750 144.908 750 150H537V21Z" fill="white"/>
<path d="M537 21C531.908 21 527.024 23.0229 523.424 26.6235C519.823 30.2242 517.8 35.1078 517.8 40.2V49.8H499.2C494.108 49.8 489.224 51.8229 485.624 55.4235C482.023 59.0242 480 63.9078 480 69C480 74.0922 482.023 78.9757 485.624 82.5764C489.224 86.1771 494.108 88.2 499.2 88.2H517.8V130.8H398.4V112.2C398.4 107.108 396.377 102.224 392.776 98.6235C389.176 95.0228 384.292 93 379.2 93C374.108 93 369.224 95.0228 365.624 98.6235C362.023 102.224 360 107.108 360 112.2V130.8H343.2C338.108 130.8 333.224 132.823 329.624 136.424C326.023 140.024 324 144.908 324 150H537V21Z" fill="#9D2235"/>
<path d="M-138 300H87V600H312V450H-138V300Z" fill="white"/>
<path d="M87 300H312V450H-138V600H87V300Z" fill="#9D2235"/>
<path d="M87 579C92.0922 579 96.9758 576.977 100.576 573.376C104.177 569.776 106.2 564.892 106.2 559.8V550.2H124.8C129.892 550.2 134.776 548.177 138.376 544.576C141.977 540.976 144 536.092 144 531C144 525.908 141.977 521.024 138.376 517.424C134.776 513.823 129.892 511.8 124.8 511.8H106.2V469.2H225.6V487.8C225.6 492.892 227.623 497.776 231.224 501.376C234.824 504.977 239.708 507 244.8 507C249.892 507 254.776 504.977 258.376 501.376C261.977 497.776 264 492.892 264 487.8V469.2H280.8C285.892 469.2 290.776 467.177 294.376 463.576C297.977 459.976 300 455.092 300 450H87V579Z" fill="#9D2235"/>
<path d="M87 579C81.9078 579 77.0242 576.977 73.4235 573.376C69.8228 569.776 67.8 564.892 67.8 559.8V550.2H49.2C44.1078 550.2 39.2242 548.177 35.6235 544.576C32.0228 540.976 30 536.092 30 531C30 525.908 32.0228 521.024 35.6235 517.424C39.2242 513.823 44.1078 511.8 49.2 511.8H67.8V469.2H-51.6V487.8C-51.6 492.892 -53.6229 497.776 -57.2236 501.376C-60.8243 504.977 -65.7079 507 -70.8 507C-75.8922 507 -80.7758 504.977 -84.3765 501.376C-87.9772 497.776 -90 492.892 -90 487.8V469.2H-106.8C-111.892 469.2 -116.776 467.177 -120.376 463.576C-123.977 459.976 -126 455.092 -126 450H87V579Z" fill="white"/>
<path d="M87 321C92.0922 321 96.9758 323.023 100.576 326.624C104.177 330.224 106.2 335.108 106.2 340.2V349.8H124.8C129.892 349.8 134.776 351.823 138.376 355.424C141.977 359.024 144 363.908 144 369C144 374.092 141.977 378.976 138.376 382.576C134.776 386.177 129.892 388.2 124.8 388.2H106.2V430.8H225.6V412.2C225.6 407.108 227.623 402.224 231.224 398.624C234.824 395.023 239.708 393 244.8 393C249.892 393 254.776 395.023 258.376 398.624C261.977 402.224 264 407.108 264 412.2V430.8H280.8C285.892 430.8 290.776 432.823 294.376 436.424C297.977 440.024 300 444.908 300 450H87V321Z" fill="white"/>
<path d="M87 321C81.9078 321 77.0242 323.023 73.4235 326.624C69.8228 330.224 67.8 335.108 67.8 340.2V349.8H49.2C44.1078 349.8 39.2242 351.823 35.6235 355.424C32.0228 359.024 30 363.908 30 369C30 374.092 32.0228 378.976 35.6235 382.576C39.2242 386.177 44.1078 388.2 49.2 388.2H67.8V430.8H-51.6V412.2C-51.6 407.108 -53.6229 402.224 -57.2236 398.624C-60.8243 395.023 -65.7079 393 -70.8 393C-75.8922 393 -80.7758 395.023 -84.3765 398.624C-87.9772 402.224 -90 407.108 -90 412.2V430.8H-106.8C-111.892 430.8 -116.776 432.823 -120.376 436.424C-123.977 440.024 -126 444.908 -126 450H87V321Z" fill="#9D2235"/>
</g>
</svg>
