<svg width="600" height="600" viewBox="0 0 600 600" fill="none" xmlns="http://www.w3.org/2000/svg">
<mask id="mask0_1_17128" style="mask-type:alpha" maskUnits="userSpaceOnUse" x="0" y="0" width="600" height="600">
<circle cx="300" cy="300" r="300" fill="white"/>
</mask>
<g mask="url(#mask0_1_17128)">
<path d="M-10.2471 600H889.753V0H-10.2471V600Z" fill="white"/>
<path d="M-10.2471 600H889.753V0H-10.2471V600Z" fill="white"/>
<path d="M-10.2471 300H889.753V0H-10.2471V300Z" fill="#BF0A30"/>
<path d="M-10.2471 300H889.753V0H-10.2471V300Z" fill="#BF0A30"/>
<path fill-rule="evenodd" clip-rule="evenodd" d="M-11 0H297V600H-11V0Z" fill="#002868"/>
<path fill-rule="evenodd" clip-rule="evenodd" d="M78.7266 165C65.0069 172.597 62.5193 175.765 55 181.591L71.6749 181.937C71.4764 183.477 67.8362 202.647 67.4911 204C80.045 195.728 86.0019 191.936 103.13 187.151C109.936 185.277 102.595 178.421 101.887 176.597C97.2335 178.68 93.6556 181.152 90.2255 184.183" fill="#FFCA00"/>
<path d="M78.7266 165C65.0069 172.597 62.5193 175.765 55 181.591L71.6749 181.937C71.4764 183.477 67.8362 202.647 67.4911 204C80.045 195.728 86.0019 191.936 103.13 187.151C109.936 185.277 102.595 178.421 101.887 176.597C97.2335 178.68 93.6556 181.152 90.2255 184.183" stroke="#002868" stroke-width="1.51247"/>
<path fill-rule="evenodd" clip-rule="evenodd" d="M90.8797 184.278C116.296 160.92 200.396 161.478 223.819 185C224.575 184.727 239.728 159.08 238.973 159.353C192.985 127.033 110.584 132.57 76 158.076L76.4102 159.598L90.8797 184.278Z" fill="#FFCA00" stroke="#002868" stroke-width="1.51247"/>
<path d="M95.4166 174C95.2899 173.668 88 160.184 88 160.184L99.9323 170.629L97.1559 155.367L104.971 168.426M138.693 150.708C138.745 146.585 142.071 146.307 144.36 147.021C145.703 148.038 146.408 151.354 144.799 153.244L141.567 155.981C140.449 157.369 139.211 158.953 139.292 160.698L146.594 160.421M151.948 146.305C150.614 146.952 150.165 147.976 149.856 149.493C149.657 151.237 149.745 155.36 150.105 157.064C150.425 158.333 150.742 159.166 151.701 159.998C152.819 160.632 154.056 160.514 154.735 160.078C155.652 159.562 156.291 158.492 156.61 157.223C157.129 155.598 157.089 150.84 156.729 149.096C156.397 147.933 155.985 147.008 155.053 146.321C153.936 145.845 152.626 145.948 151.948 146.305Z" stroke="#002868" stroke-width="4.72646" stroke-linecap="round" stroke-linejoin="round"/>
<path d="M186 150.569C187.542 150.007 188.715 149.318 190 148L187.724 162" stroke="#002868" stroke-width="4.72645" stroke-linecap="round" stroke-linejoin="round"/>
<path d="M197.245 150C197.407 150.061 204 151.965 204 151.965C200.785 155.953 198.149 159.497 196 164" stroke="#002868" stroke-width="4.72646" stroke-linecap="round" stroke-linejoin="round"/>
<path d="M209.734 153L217 156.326C212.686 159.188 209.139 162.789 206 167" stroke="#002868" stroke-width="4.72647" stroke-linecap="round" stroke-linejoin="round"/>
<path d="M227 161.574L222.678 159L218.856 164.256C221.602 163.706 223.447 164.548 224.236 167.079C224.72 170.806 222.521 172.933 220.144 173C217.643 172.942 216.352 171.547 216 168.62" stroke="#002868" stroke-width="4.72646" stroke-linecap="round" stroke-linejoin="round"/>
<path d="M108 167C108 167 108.45 151.004 108.618 151.022C108.691 150.375 118 164.284 118 164.284M108.305 161.302L114.629 159.51" stroke="#002868" stroke-width="4.72646" stroke-linecap="round" stroke-linejoin="round"/>
<path fill-rule="evenodd" clip-rule="evenodd" d="M74 314.681L82.6609 314.799L82.3873 276.727L98.9884 315L108 314.999V259L99.2035 259.12L99.3372 294.526L83.8203 259.278L74.1337 259.397L74 314.681Z" fill="#FFCA00"/>
<path fill-rule="evenodd" clip-rule="evenodd" d="M233.211 276.941H242.524L242.411 272.089C242.147 268.955 240.949 264.984 237.82 262.048C235.738 259.757 233.273 258.463 230.075 257.599C227.36 256.546 220.712 256.856 217.338 258.722C213.348 260.924 209.979 264.851 207.729 271.179C204.778 281.833 206.111 295.174 207.981 301.453C210.208 308.106 213.701 311.657 218.349 313.897C221.243 314.858 226.291 315.591 231.014 314.327C236.16 312.403 238.512 309.064 240.556 305.503C241.796 303.092 243.22 298.471 242.972 293.349L233.255 293.466C233.261 295.34 232.877 297.504 232.395 299.378C231.295 301.998 229.597 303.751 225.376 303.751C222.547 303.748 220.634 302.596 219.051 300.533C216.914 298.494 216.353 293.93 216.211 292.64C215.567 286.814 215.549 281.046 217.248 274.967C217.895 272.511 219.181 270.239 220.864 269.132C223.592 267.671 226.414 267.888 228.009 268.348C230.104 268.988 232.037 270.535 232.64 272.583C233.109 274.51 233.184 275.681 233.211 276.941Z" fill="#FFCA00"/>
<path fill-rule="evenodd" clip-rule="evenodd" d="M179.172 316L158.433 299.951L137.146 315.901L145.581 290.922L124 275.11L149.953 275.722L157.902 250L165.507 275.356L192 275.271L170.747 290.331L179.172 316Z" fill="white"/>
<path d="M91 184.264C91.9087 185.064 93.7051 184.866 96.1838 184.461C98.1628 184.255 100.418 184.176 102.192 184C105.13 184.207 106.813 184.799 105.605 186" stroke="#002868" stroke-width="1.51247"/>
<path fill-rule="evenodd" clip-rule="evenodd" d="M235.713 166C249.179 173.597 251.62 176.765 259 182.591L242.634 182.937C242.829 184.477 246.402 203.647 246.74 205C234.419 196.728 228.573 192.936 211.762 188.151C205.083 186.277 212.528 179.299 213.223 177.476C217.79 179.558 221.664 182.031 224.427 185.183" fill="#FFCA00"/>
<path d="M235.713 166C249.179 173.597 251.62 176.765 259 182.591L242.634 182.937C242.829 184.477 246.402 203.647 246.74 205C234.419 196.728 228.573 192.936 211.762 188.151C205.083 186.277 212.528 179.299 213.223 177.476C217.79 179.558 221.664 182.031 224.427 185.183" stroke="#002868" stroke-width="1.51247"/>
<path d="M224 185.338C222.457 185.918 220.865 185.661 218.938 185.526C217.11 185.31 215.035 185.056 212.981 185C209.539 185.019 208.295 186.188 209.382 187" stroke="#002868" stroke-width="1.51247"/>
<path d="M159 152C162.05 152 165 152 165 152" stroke="#002868" stroke-width="3.40305" stroke-linecap="round" stroke-linejoin="round"/>
<path d="M167.308 148L167 160.436M172.796 161C173.533 152.074 172.349 151.755 167.978 151.775" stroke="#002868" stroke-width="3.40306" stroke-linecap="round" stroke-linejoin="round"/>
<path d="M161.253 148L161.001 158.452C160.965 160.435 161.764 161 164 161" stroke="#002868" stroke-width="3.40305" stroke-linecap="round" stroke-linejoin="round"/>
<path d="M117 149.263L123.363 155.849L124.512 163M127 147L123.513 156.164" stroke="#002868" stroke-width="4.72646" stroke-linecap="round" stroke-linejoin="round"/>
<path fill-rule="evenodd" clip-rule="evenodd" d="M79.7266 401C66.0069 393.598 63.5193 390.511 56 384.834L72.6749 384.497C72.4764 382.997 68.8362 364.318 68.4911 363C81.045 371.06 87.0019 374.755 104.13 379.417C110.936 381.243 103.595 387.923 102.887 389.7C98.2335 387.671 94.6556 385.262 91.2255 382.309" fill="#FFCA00"/>
<path d="M79.7266 401C66.0069 393.598 63.5193 390.511 56 384.834L72.6749 384.497C72.4764 382.997 68.8362 364.318 68.4911 363C81.045 371.06 87.0019 374.755 104.13 379.417C110.936 381.243 103.595 387.923 102.887 389.7C98.2335 387.671 94.6556 385.262 91.2255 382.309" stroke="#002868" stroke-width="1.51247"/>
<path fill-rule="evenodd" clip-rule="evenodd" d="M90.971 382.707C116.543 405.578 201.159 405.032 224.726 382C225.486 382.267 240.733 407.38 239.972 407.113C193.703 438.76 110.796 433.338 76 408.363L76.4127 406.873L90.971 382.707Z" fill="#FFCA00" stroke="#002868" stroke-width="1.51247"/>
<path d="M91 382.736C91.9087 381.936 93.7051 382.134 96.1838 382.539C98.1628 382.745 100.418 382.824 102.192 383C105.13 382.793 106.813 382.201 105.605 381" stroke="#002868" stroke-width="1.51247"/>
<path fill-rule="evenodd" clip-rule="evenodd" d="M236.247 401C249.982 393.403 252.472 390.235 260 384.409L243.307 384.063C243.506 382.523 247.15 363.353 247.495 362C234.928 370.272 228.964 374.064 211.817 378.849C205.004 380.723 212.599 387.701 213.308 389.524C217.966 387.442 221.917 384.969 224.736 381.817" fill="#FFCA00"/>
<path d="M236.247 401C249.982 393.403 252.472 390.235 260 384.409L243.307 384.063C243.506 382.523 247.15 363.353 247.495 362C234.928 370.272 228.964 374.064 211.817 378.849C205.004 380.723 212.599 387.701 213.308 389.524C217.966 387.442 221.917 384.969 224.736 381.817" stroke="#002868" stroke-width="1.51247"/>
<path d="M224 381.662C222.457 381.082 220.865 381.339 218.938 381.474C217.11 381.69 215.035 381.944 212.981 382C209.539 381.981 208.295 380.812 209.382 380" stroke="#002868" stroke-width="1.51247"/>
<path d="M157 412.993C158.093 409.395 160.584 409.835 162.805 410.328C164.588 411.502 164.844 414.702 163.14 416.564L160.014 418.848C158.692 419.69 157.38 421.253 157.429 423L165 422.856" stroke="#002868" stroke-width="4.72646" stroke-linecap="round" stroke-linejoin="round"/>
<path d="M149 412.46C150.496 411.745 150.854 411.462 152 410L151.361 423" stroke="#002868" stroke-width="4.72646" stroke-linecap="round" stroke-linejoin="round"/>
<path d="M132.625 406C132.622 406.084 130.108 420.364 130 420.949L138 422" stroke="#002868" stroke-width="4.72646" stroke-linecap="round"/>
<path d="M124 420L126 405" stroke="#002868" stroke-width="4.72646" stroke-linecap="round" stroke-linejoin="round"/>
<path d="M98 412L103.655 398C105.348 398.828 107.53 399.155 109.412 400.792C110.635 402.773 110.072 406.837 106.57 407.222C104.641 406.971 103.029 406.06 101.337 405.313" stroke="#002868" stroke-width="4.72646" stroke-linecap="round"/>
<path d="M190 409.167C191.034 408.026 191.737 406.875 192.328 405L195 421" stroke="#002868" stroke-width="4.66491" stroke-linecap="round" stroke-linejoin="round"/>
<path d="M196 404.615C196.189 404.568 203.733 402 203.733 402C203.386 407.619 203.278 413.013 204 418" stroke="#002868" stroke-width="4.72646" stroke-linecap="round" stroke-linejoin="round"/>
<path d="M207 400.939L214.625 398C214.297 403.684 213.94 409.736 215 414" stroke="#002868" stroke-width="4.72646" stroke-linecap="round" stroke-linejoin="round"/>
<path d="M224.838 395.533C224.025 394.2 222.782 393.711 221.035 394.166C219.416 395.572 219.115 396.682 219 398.393C219.067 400.514 219.656 402.607 220.629 404.478C221.296 406.222 222.739 407.468 223.826 407.741C225.056 408.191 225.978 408.076 226.965 407.231C227.718 406.29 228.061 404.711 227.991 403.522C227.757 401.943 227.037 400.513 225.411 399.675C224.152 399.165 223.632 399.06 222.496 399.538C220.77 400.547 220.457 402.415 220.713 404.32" stroke="#002868" stroke-width="4.72645" stroke-linecap="round" stroke-linejoin="round"/>
<path d="M167 414C169.54 414 172 414 172 414" stroke="#002868" stroke-width="3.40305" stroke-linecap="round" stroke-linejoin="round"/>
<path d="M169 410L169.488 420.565C169.59 422.568 170.252 423.098 172 422.986" stroke="#002868" stroke-width="3.40305" stroke-linecap="round" stroke-linejoin="round"/>
<path d="M174 410L175.397 422M181 421.768C180.489 413.086 179.317 412.938 175.153 413.541" stroke="#002868" stroke-width="3.40306" stroke-linecap="round" stroke-linejoin="round"/>
<path d="M85 405.547C85 405.547 95.8353 393.886 95.9417 394.009C96.4188 393.572 93.8115 410 93.8115 410M88.961 401.487L94.5825 404.248" stroke="#002868" stroke-width="4.72646" stroke-linecap="round" stroke-linejoin="round"/>
<path d="M110 417C109.998 416.918 114.173 402 114.173 402C115.96 402.418 117.828 402.67 119.536 403.253C120.73 403.631 122.545 405.052 121.844 407.348C121.514 408.741 120.841 409.978 119.818 410.736" stroke="#002868" stroke-width="4.72646" stroke-linecap="round"/>
<path d="M112 409L117.951 410.442C119.554 410.987 119.942 412.312 119.945 412.395C120.243 413.64 119.24 419 119.24 419" stroke="#002868" stroke-width="4.72646" stroke-linecap="round" stroke-linejoin="round"/>
</g>
</svg>
