<svg width="600" height="600" viewBox="0 0 600 600" fill="none" xmlns="http://www.w3.org/2000/svg">
<path fill-rule="evenodd" clip-rule="evenodd" d="M0 300C0 134.315 134.315 0 300 0V0C465.685 0 600 134.315 600 300V300C600 465.685 465.685 600 300 600V600C134.315 600 0 465.685 0 300V300Z" fill="#FFD700"/>
<path d="M326.623 183.799V416.201ZM308.867 165V435ZM291.133 165V435ZM273.377 183.799V416.201Z" fill="black"/>
<path d="M326.623 183.799V416.201M308.867 165V435M291.133 165V435M273.377 183.799V416.201" stroke="#BF0A30" stroke-width="38.1675" stroke-linecap="round"/>
<path d="M183.799 273.377H416.201ZM165 291.133H435ZM165 308.867H435ZM183.799 326.623H416.201Z" fill="black"/>
<path d="M183.799 273.377H416.201M165 291.133H435M165 308.867H435M183.799 326.623H416.201" stroke="#BF0A30" stroke-width="38.1675" stroke-linecap="round"/>
<path d="M300 343.94C324.268 343.94 343.94 324.267 343.94 300C343.94 275.733 324.268 256.06 300 256.06C275.733 256.06 256.061 275.733 256.061 300C256.061 324.267 275.733 343.94 300 343.94Z" fill="#FFD700" stroke="#BF0A30" stroke-width="19.0838"/>
</svg>
