<svg width="600" height="600" viewBox="0 0 600 600" fill="none" xmlns="http://www.w3.org/2000/svg">
<mask id="mask0_1_9596" style="mask-type:alpha" maskUnits="userSpaceOnUse" x="0" y="0" width="600" height="600">
<path fill-rule="evenodd" clip-rule="evenodd" d="M0 300C0 134.315 134.315 0 300 0V0C465.685 0 600 134.315 600 300V300C600 465.685 465.685 600 300 600V600C134.315 600 0 465.685 0 300V300Z" fill="#003776"/>
</mask>
<g mask="url(#mask0_1_9596)">
<mask id="mask1_1_9596" style="mask-type:luminance" maskUnits="userSpaceOnUse" x="-10" y="-77" width="1155" height="769">
<path d="M-9.46875 692V-77L1144.03 67.1875L877.839 307.5L1144.03 547.812L-9.46875 692Z" fill="white"/>
</mask>
<g mask="url(#mask1_1_9596)">
<path d="M1144.03 147.5L-9.46875 -77V692L1144.03 433.5" fill="white"/>
<path d="M1144.03 147.5L-9.46875 -77V692L1144.03 433.5" stroke="#C1133D" stroke-width="120"/>
<path d="M-9.46875 307.5H1144.03Z" fill="white"/>
<path d="M-9.46875 307.5H1144.03" stroke="#C1133D" stroke-width="60"/>
</g>
<path d="M-10.2363 -77V692L756.97 307.5L-10.2363 -77Z" fill="#001C5A"/>
<path d="M226.843 451.688C306.29 451.688 370.695 387.133 370.695 307.5C370.695 227.867 306.29 163.312 226.843 163.312C147.397 163.312 82.9922 227.867 82.9922 307.5C82.9922 387.133 147.397 451.688 226.843 451.688Z" fill="white"/>
<path d="M226.842 403.625C279.807 403.625 322.743 360.588 322.743 307.5C322.743 254.412 279.807 211.375 226.842 211.375C173.878 211.375 130.941 254.412 130.941 307.5C130.941 360.588 173.878 403.625 226.842 403.625Z" fill="#C1133D"/>
<path d="M617.037 336.069L599.422 311.767L611.545 302.938L617.037 336.069Z" fill="white"/>
<path d="M617.037 278.932L599.422 303.234L611.545 312.063L617.037 278.932Z" fill="white"/>
<path d="M583.529 325.157L612.031 315.874L607.401 301.59L583.529 325.157Z" fill="white"/>
<path d="M583.529 325.157L601.145 300.855L613.267 309.683L583.529 325.157Z" fill="white"/>
<path d="M583.531 289.843L601.146 314.145L613.269 305.317L583.531 289.843Z" fill="white"/>
<path d="M583.531 289.843L612.033 299.126L607.403 313.41L583.531 289.843Z" fill="white"/>
<path d="M445.942 307.5L417.439 298.218L412.809 312.502L445.942 307.5Z" fill="white"/>
<path d="M445.942 307.5L417.439 316.782L412.809 302.498L445.942 307.5Z" fill="white"/>
<path d="M425.234 336.069L425.234 306.03L410.25 306.03L425.234 336.069Z" fill="white"/>
<path d="M425.234 336.069L407.619 311.767L419.742 302.939L425.234 336.069Z" fill="white"/>
<path d="M425.233 278.932L407.617 303.234L419.74 312.062L425.233 278.932Z" fill="white"/>
<path d="M425.234 278.932L425.234 308.971L410.25 308.971L425.234 278.932Z" fill="white"/>
<path d="M391.724 325.157L420.227 315.874L415.596 301.59L391.724 325.157Z" fill="white"/>
<path d="M391.725 325.157L409.34 300.855L421.463 309.683L391.725 325.157Z" fill="white"/>
<path d="M391.726 289.843L409.342 314.146L421.465 305.317L391.726 289.843Z" fill="white"/>
<path d="M391.726 289.843L420.229 299.126L415.598 313.41L391.726 289.843Z" fill="white"/>
<path d="M537.384 254.572L507.732 250.21L505.556 265.071L537.384 254.572Z" fill="white"/>
<path d="M537.384 254.572L510.838 268.513L503.884 255.208L537.384 254.572Z" fill="white"/>
<path d="M521.746 286.217L516.723 256.603L501.95 259.12L521.746 286.217Z" fill="white"/>
<path d="M521.745 286.216L500.314 265.218L510.789 254.478L521.745 286.216Z" fill="white"/>
<path d="M512.188 229.887L498.887 256.805L512.314 263.471L512.188 229.887Z" fill="white"/>
<path d="M512.189 229.887L517.213 259.501L502.44 262.019L512.189 229.887Z" fill="white"/>
<path d="M486.887 281.088L513.434 267.148L506.48 253.844L486.887 281.088Z" fill="white"/>
<path d="M486.886 281.088L500.188 254.17L513.615 260.837L486.886 281.088Z" fill="white"/>
<path d="M480.982 246.275L502.412 267.273L512.887 256.533L480.982 246.275Z" fill="white"/>
<path d="M480.98 246.275L510.631 250.637L508.455 265.498L480.98 246.275Z" fill="white"/>
<path d="M537.384 360.428L510.838 346.487L503.884 359.792L537.384 360.428Z" fill="white"/>
<path d="M537.384 360.428L507.732 364.79L505.556 349.929L537.384 360.428Z" fill="white"/>
<path d="M512.193 385.113L517.217 355.499L502.444 352.981L512.193 385.113Z" fill="white"/>
<path d="M512.192 385.113L498.891 358.195L512.318 351.528L512.192 385.113Z" fill="white"/>
<path d="M521.747 328.784L500.316 349.782L510.791 360.522L521.747 328.784Z" fill="white"/>
<path d="M521.746 328.783L516.723 358.397L501.95 355.88L521.746 328.783Z" fill="white"/>
<path d="M480.985 368.725L510.637 364.363L508.461 349.503L480.985 368.725Z" fill="white"/>
<path d="M480.986 368.726L502.416 347.727L512.891 358.468L480.986 368.726Z" fill="white"/>
<path d="M486.89 333.912L500.191 360.83L513.619 354.164L486.89 333.912Z" fill="white"/>
<path d="M486.891 333.912L513.438 347.853L506.484 361.157L486.891 333.912Z" fill="white"/>
<path d="M324.827 503.926L320.363 474.222L305.546 476.459L324.827 503.926Z" fill="white"/>
<path d="M324.827 503.926L303.797 482.525L314.473 471.985L324.827 503.926Z" fill="white"/>
<path d="M290.072 498.137L316.877 484.703L310.176 471.269L290.072 498.137Z" fill="white"/>
<path d="M290.071 498.138L303.879 471.477L317.178 478.397L290.071 498.138Z" fill="white"/>
<path d="M341.058 472.585L311.494 467.66L309.038 482.477L341.058 472.585Z" fill="white"/>
<path d="M341.059 472.585L314.254 486.019L307.553 472.585L341.059 472.585Z" fill="white"/>
<path d="M284.822 463.218L305.852 484.619L316.527 474.08L284.822 463.218Z" fill="white"/>
<path d="M284.821 463.218L314.385 468.142L311.928 482.958L284.821 463.218Z" fill="white"/>
<path d="M316.333 447.425L302.525 474.086L315.825 481.006L316.333 447.425Z" fill="white"/>
<path d="M316.334 447.426L320.797 477.13L305.979 479.367L316.334 447.426Z" fill="white"/>
<path d="M216.995 526.889L227.527 498.766L213.499 493.487L216.995 526.889Z" fill="white"/>
<path d="M216.996 526.889L209.025 497.932L223.47 493.937L216.996 526.889Z" fill="white"/>
<path d="M189.452 504.869L219.391 506.219L220.064 491.215L189.452 504.869Z" fill="white"/>
<path d="M189.452 504.869L214.465 488.323L222.719 500.859L189.452 504.869Z" fill="white"/>
<path d="M246.4 507.438L222.971 488.707L213.627 500.449L246.4 507.438Z" fill="white"/>
<path d="M246.4 507.438L216.461 506.087L217.134 491.083L246.4 507.438Z" fill="white"/>
<path d="M201.834 471.809L209.805 500.766L224.25 496.772L201.834 471.809Z" fill="white"/>
<path d="M201.833 471.809L225.262 490.54L215.918 502.282L201.833 471.809Z" fill="white"/>
<path d="M237.028 473.396L212.016 489.943L220.269 502.478L237.028 473.396Z" fill="white"/>
<path d="M237.029 473.396L226.496 501.519L212.468 496.24L237.029 473.396Z" fill="white"/>
<path d="M111.653 494.312L134.516 474.89L124.827 463.432L111.653 494.312Z" fill="white"/>
<path d="M111.653 494.312L118.76 465.13L133.317 468.691L111.653 494.312Z" fill="white"/>
<path d="M98.2959 461.636L123.789 477.428L131.667 464.652L98.2959 461.636Z" fill="white"/>
<path d="M98.2963 461.636L128.182 459.393L129.301 474.37L98.2963 461.636Z" fill="white"/>
<path d="M146.787 491.676L135.424 463.88L121.558 469.575L146.787 491.676Z" fill="white"/>
<path d="M146.786 491.676L121.293 475.884L129.171 463.107L146.786 491.676Z" fill="white"/>
<path d="M125.169 438.805L118.062 467.987L132.62 471.548L125.169 438.805Z" fill="white"/>
<path d="M125.172 438.805L136.535 466.601L122.67 472.296L125.172 438.805Z" fill="white"/>
<path d="M155.141 457.37L125.256 459.613L126.375 474.59L155.141 457.37Z" fill="white"/>
<path d="M155.142 457.37L132.279 476.792L122.591 465.334L155.142 457.37Z" fill="white"/>
<path d="M108.5 600.106L127.791 577.118L116.324 567.45L108.5 600.106Z" fill="white"/>
<path d="M108.499 600.106L110.625 570.143L125.572 571.208L108.499 600.106Z" fill="white"/>
<path d="M89.8651 570.137L117.639 581.422L123.268 567.503L89.8651 570.137Z" fill="white"/>
<path d="M89.8658 570.137L118.953 562.904L122.561 577.482L89.8658 570.137Z" fill="white"/>
<path d="M142.691 591.604L126.84 566.111L114.123 574.055L142.691 591.604Z" fill="white"/>
<path d="M142.69 591.604L114.916 580.318L120.546 566.399L142.69 591.604Z" fill="white"/>
<path d="M112.542 543.112L110.416 573.075L125.363 574.14L112.542 543.112Z" fill="white"/>
<path d="M112.541 543.112L128.393 568.605L115.676 576.549L112.541 543.112Z" fill="white"/>
<path d="M145.189 556.379L116.102 563.612L119.71 578.189L145.189 556.379Z" fill="white"/>
<path d="M145.189 556.379L125.898 579.367L114.431 569.699L145.189 556.379Z" fill="white"/>
<path d="M18.6622 544.454L44.4492 529.149L36.8142 516.225L18.6622 544.454Z" fill="white"/>
<path d="M18.6642 544.455L30.5508 516.879L44.3062 522.837L18.6642 544.455Z" fill="white"/>
<path d="M10.958 509.996L33.4492 529.849L43.3523 518.577L10.958 509.996Z" fill="white"/>
<path d="M10.9573 509.996L40.7949 512.806L39.3932 527.76L10.9573 509.996Z" fill="white"/>
<path d="M53.7396 547.758L47.1855 518.447L32.5638 521.731L53.7396 547.758Z" fill="white"/>
<path d="M53.7393 547.758L31.248 527.906L41.1511 516.634L53.7393 547.758Z" fill="white"/>
<path d="M41.2714 492.004L29.3848 519.579L43.1402 525.536L41.2714 492.004Z" fill="white"/>
<path d="M41.2722 492.004L47.8262 521.315L33.2044 524.6L41.2722 492.004Z" fill="white"/>
<path d="M67.7145 515.341L37.877 512.531L36.4752 527.485L67.7145 515.341Z" fill="white"/>
<path d="M67.7128 515.342L41.9258 530.647L34.2908 517.724L67.7128 515.342Z" fill="white"/>
<path d="M35.4786 414.443L64.8828 408.638L61.9874 393.902L35.4786 414.443Z" fill="white"/>
<path d="M35.4786 414.443L55.8633 392.423L66.8474 402.639L35.4786 414.443Z" fill="white"/>
<path d="M39.6855 379.382L54.2793 405.619L67.3671 398.305L39.6855 379.382Z" fill="white"/>
<path d="M39.6847 379.382L66.877 392.01L60.5777 405.638L39.6847 379.382Z" fill="white"/>
<path d="M67.4425 429.287L71.0215 399.463L56.1442 397.67L67.4425 429.287Z" fill="white"/>
<path d="M67.4434 429.288L52.8496 403.051L65.9374 395.737L67.4434 429.288Z" fill="white"/>
<path d="M74.2519 372.559L53.8672 394.578L64.8513 404.795L74.2519 372.559Z" fill="white"/>
<path d="M74.2508 372.559L70.6719 402.383L55.7946 400.589L74.2508 372.559Z" fill="white"/>
<path d="M91.4071 403.402L64.2148 390.774L57.9156 404.402L91.4071 403.402Z" fill="white"/>
<path d="M91.4062 403.402L62.002 409.206L59.1065 394.47L91.4062 403.402Z" fill="white"/>
<path d="M7.74388 307.5L36.2461 316.782L40.8766 302.498L7.74388 307.5Z" fill="white"/>
<path d="M7.74388 307.5L36.2461 298.217L40.8766 312.502L7.74388 307.5Z" fill="white"/>
<path d="M28.4512 278.931L28.4512 308.97L43.4357 308.97L28.4512 278.931Z" fill="white"/>
<path d="M28.4511 278.931L46.0664 303.233L33.9437 312.061L28.4511 278.931Z" fill="white"/>
<path d="M28.453 336.069L46.0684 311.767L33.9456 302.938L28.453 336.069Z" fill="white"/>
<path d="M28.4512 336.069L28.4512 306.03L43.4357 306.03L28.4512 336.069Z" fill="white"/>
<path d="M61.9592 289.843L33.457 299.126L38.0875 313.41L61.9592 289.843Z" fill="white"/>
<path d="M61.9591 289.843L44.3438 314.146L32.221 305.317L61.9591 289.843Z" fill="white"/>
<path d="M61.9571 325.156L44.3418 300.854L32.2191 309.683L61.9571 325.156Z" fill="white"/>
<path d="M61.9573 325.156L33.4551 315.874L38.0855 301.589L61.9573 325.156Z" fill="white"/>
<path d="M324.827 111.074L320.363 140.778L305.546 138.541L324.827 111.074Z" fill="white"/>
<path d="M324.827 111.074L303.797 132.476L314.473 143.015L324.827 111.074Z" fill="white"/>
<path d="M290.072 116.863L316.877 130.296L310.176 143.73L290.072 116.863Z" fill="white"/>
<path d="M290.071 116.863L303.879 143.523L317.178 136.603L290.071 116.863Z" fill="white"/>
<path d="M341.056 142.416L311.492 147.34L309.036 132.524L341.056 142.416Z" fill="white"/>
<path d="M341.057 142.416L314.252 128.982L307.551 142.416L341.057 142.416Z" fill="white"/>
<path d="M284.822 151.782L305.852 130.381L316.527 140.92L284.822 151.782Z" fill="white"/>
<path d="M284.821 151.782L314.385 146.858L311.928 132.042L284.821 151.782Z" fill="white"/>
<path d="M316.333 167.575L302.525 140.915L315.825 133.994L316.333 167.575Z" fill="white"/>
<path d="M316.334 167.575L320.797 137.871L305.979 135.634L316.334 167.575Z" fill="white"/>
<path d="M216.995 88.1114L227.527 116.234L213.499 121.513L216.995 88.1114Z" fill="white"/>
<path d="M216.996 88.1114L209.025 117.069L223.47 121.063L216.996 88.1114Z" fill="white"/>
<path d="M189.452 110.131L219.391 108.781L220.064 123.785L189.452 110.131Z" fill="white"/>
<path d="M189.452 110.131L214.465 126.677L222.719 114.142L189.452 110.131Z" fill="white"/>
<path d="M246.4 107.563L222.971 126.294L213.627 114.552L246.4 107.563Z" fill="white"/>
<path d="M246.4 107.563L216.461 108.913L217.134 123.917L246.4 107.563Z" fill="white"/>
<path d="M201.834 143.192L209.805 114.235L224.25 118.229L201.834 143.192Z" fill="white"/>
<path d="M201.833 143.192L225.262 124.461L215.918 112.719L201.833 143.192Z" fill="white"/>
<path d="M237.028 141.604L212.016 125.058L220.269 112.522L237.028 141.604Z" fill="white"/>
<path d="M237.029 141.604L226.496 113.482L212.468 118.76L237.029 141.604Z" fill="white"/>
<path d="M111.651 120.688L134.514 140.11L124.825 151.568L111.651 120.688Z" fill="white"/>
<path d="M111.651 120.688L118.758 149.87L133.315 146.309L111.651 120.688Z" fill="white"/>
<path d="M98.294 153.364L123.787 137.571L131.665 150.348L98.294 153.364Z" fill="white"/>
<path d="M98.2924 153.364L128.178 155.607L129.297 140.63L98.2924 153.364Z" fill="white"/>
<path d="M146.785 123.325L135.422 151.121L121.556 145.426L146.785 123.325Z" fill="white"/>
<path d="M146.784 123.325L121.291 139.117L129.169 151.894L146.784 123.325Z" fill="white"/>
<path d="M125.167 176.196L118.061 147.014L132.618 143.452L125.167 176.196Z" fill="white"/>
<path d="M125.17 176.196L136.533 148.4L122.668 142.705L125.17 176.196Z" fill="white"/>
<path d="M155.139 157.631L125.254 155.388L126.373 140.41L155.139 157.631Z" fill="white"/>
<path d="M155.14 157.631L132.277 138.209L122.589 149.667L155.14 157.631Z" fill="white"/>
<path d="M108.498 14.894L127.789 37.8826L116.322 47.5504L108.498 14.894Z" fill="white"/>
<path d="M108.497 14.8943L110.623 44.8577L125.57 43.7924L108.497 14.8943Z" fill="white"/>
<path d="M89.8631 44.8629L117.637 33.5774L123.266 47.4966L89.8631 44.8629Z" fill="white"/>
<path d="M89.8639 44.8628L118.951 52.0957L122.559 37.5181L89.8639 44.8628Z" fill="white"/>
<path d="M142.689 23.3971L126.838 48.8904L114.121 40.9462L142.689 23.3971Z" fill="white"/>
<path d="M142.69 23.3971L114.916 34.6826L120.546 48.6019L142.69 23.3971Z" fill="white"/>
<path d="M112.542 71.8882L110.416 41.9248L125.363 40.8595L112.542 71.8882Z" fill="white"/>
<path d="M112.541 71.8883L128.393 46.395L115.676 38.4508L112.541 71.8883Z" fill="white"/>
<path d="M145.189 58.6211L116.102 51.3882L119.71 36.8105L145.189 58.6211Z" fill="white"/>
<path d="M145.189 58.6214L125.898 35.6328L114.431 45.3007L145.189 58.6214Z" fill="white"/>
<path d="M18.6603 70.5461L44.4473 85.8518L36.8123 98.7754L18.6603 70.5461Z" fill="white"/>
<path d="M18.6622 70.5461L30.5488 98.1213L44.3043 92.1641L18.6622 70.5461Z" fill="white"/>
<path d="M10.956 105.004L33.4473 85.1516L43.3504 96.4235L10.956 105.004Z" fill="white"/>
<path d="M10.9554 105.004L40.793 102.194L39.3912 87.2404L10.9554 105.004Z" fill="white"/>
<path d="M53.7376 67.2425L47.1836 96.5544L32.5618 93.2698L53.7376 67.2425Z" fill="white"/>
<path d="M53.7373 67.2422L31.2461 87.0947L41.1492 98.3666L53.7373 67.2422Z" fill="white"/>
<path d="M41.2694 122.997L29.3828 95.4216L43.1383 89.4644L41.2694 122.997Z" fill="white"/>
<path d="M41.2702 122.997L47.8242 93.6851L33.2024 90.4004L41.2702 122.997Z" fill="white"/>
<path d="M67.7106 99.6592L37.873 102.469L36.4713 87.5156L67.7106 99.6592Z" fill="white"/>
<path d="M67.7089 99.659L41.9219 84.3533L34.2869 97.2769L67.7089 99.659Z" fill="white"/>
<path d="M35.4786 200.557L64.8828 206.362L61.9874 221.098L35.4786 200.557Z" fill="white"/>
<path d="M35.4786 200.557L55.8633 222.577L66.8474 212.361L35.4786 200.557Z" fill="white"/>
<path d="M39.6855 235.618L54.2793 209.381L67.3671 216.695L39.6855 235.618Z" fill="white"/>
<path d="M39.6847 235.618L66.877 222.99L60.5777 209.362L39.6847 235.618Z" fill="white"/>
<path d="M67.4425 185.713L71.0215 215.537L56.1442 217.331L67.4425 185.713Z" fill="white"/>
<path d="M67.4434 185.713L52.8496 211.95L65.9374 219.264L67.4434 185.713Z" fill="white"/>
<path d="M74.2519 242.441L53.8672 220.422L64.8513 210.206L74.2519 242.441Z" fill="white"/>
<path d="M74.2508 242.441L70.6719 212.617L55.7946 214.411L74.2508 242.441Z" fill="white"/>
<path d="M91.4071 211.598L64.2148 224.226L57.9156 210.598L91.4071 211.598Z" fill="white"/>
<path d="M91.4062 211.598L62.002 205.794L59.1065 220.53L91.4062 211.598Z" fill="white"/>
</g>
</svg>
