<svg width="600" height="600" viewBox="0 0 600 600" fill="none" xmlns="http://www.w3.org/2000/svg">
<path fill-rule="evenodd" clip-rule="evenodd" d="M0 300C0 134.315 134.315 0 300 0V0C465.685 0 600 134.315 600 300V300C600 465.685 465.685 600 300 600V600C134.315 600 0 465.685 0 300V300Z" fill="white"/>
<path d="M295.848 208.637C295.848 208.637 294.93 310.971 294.93 318.415C294.93 325.86 294.93 336.091 286.707 334.23C278.501 332.369 268.451 332.369 253.839 322.137C239.236 311.906 239.236 310.045 239.236 310.045L252.93 305.388C252.93 305.388 239.236 302.6 230.104 296.091C220.971 289.573 213.666 283.99 213.666 283.99C213.666 283.99 212.757 297.952 217.319 308.184C221.889 318.415 231.013 327.721 231.013 327.721V315.628C231.013 315.628 243.798 327.721 248.368 330.517C252.93 333.304 271.195 340.748 278.492 345.405C285.798 350.045 299.184 363.073 299.184 363.073C299.184 363.073 313.195 348.184 322.327 344.462C331.459 340.74 343.327 335.165 348.806 331.443C354.286 327.721 368.889 313.767 368.889 313.767V329.582C368.889 329.582 378.93 317.489 381.674 309.11C384.418 300.739 385.327 285.851 385.327 285.851C385.327 285.851 378.021 291.434 371.633 294.23C365.236 297.017 346.98 304.461 346.98 304.461L361.583 308.184C361.583 308.184 337.848 326.794 329.633 330.517C314.669 337.711 304.062 336.091 304.062 326.794C304.062 317.498 304.98 208.637 304.98 208.637H295.848ZM296.757 174.211H303.145V202.119H296.757V174.211Z" fill="#FEC500" stroke="#FEC500" stroke-width="1.29843"/>
<path d="M251.113 202.128C251.113 202.128 276.674 196.544 300.41 196.544C324.145 196.544 348.798 202.119 348.798 202.119V212.359C348.798 212.359 315.93 217.008 296.757 217.008C277.583 217.008 251.105 211.424 251.105 211.424L251.113 202.128Z" fill="#FEC500" stroke="white" stroke-width="1.29843"/>
<path fill-rule="evenodd" clip-rule="evenodd" d="M315.012 197.003C315.012 192.762 313.376 188.925 310.732 186.148C309.409 184.76 307.835 183.637 306.087 182.861C305.213 182.473 305.368 182.325 304.417 182.12L304.445 187.437C305.591 188.003 305.858 188.565 306.725 189.576C308.459 191.597 309.533 194.389 309.533 197.471C309.533 203.634 305.239 207.626 299.95 207.626C294.661 207.626 290.368 203.634 290.368 197.471C290.368 194.389 291.441 191.597 293.176 189.576C294.043 188.565 294.31 188.003 295.456 187.437L295.484 182.12C294.533 182.325 294.688 182.473 293.814 182.861C292.066 183.637 290.491 184.76 289.169 186.148C286.525 188.925 284.889 192.762 284.889 197.003C284.889 205.486 291.841 212.359 299.95 212.359C308.06 212.359 315.012 205.486 315.012 197.003Z" fill="#FEC500" stroke="white" stroke-width="1.29843"/>
<path d="M214.988 375.572C214.988 375.572 227.116 386.652 238.983 388.227C250.851 389.811 269.54 395.386 269.54 395.386C269.54 395.386 270.033 412.456 269.453 413.936C268.873 415.417 268.501 415.806 266.796 415.867C261.264 416.066 247.795 416.083 233.14 412.673C213.984 408.215 195.191 396.685 195.191 396.685C199.571 394.884 210.167 393.3 217.005 391.603L214.988 375.572ZM384.009 375.572C384.009 375.572 371.882 386.652 360.014 388.227C348.147 389.811 329.458 395.386 329.458 395.386C329.458 395.386 328.964 412.456 329.544 413.936C330.124 415.417 330.497 415.806 332.202 415.867C337.733 416.066 351.202 416.083 365.857 412.673C385.013 408.215 403.806 396.685 403.806 396.685C399.426 394.884 388.831 393.3 381.992 391.603L384.009 375.572Z" fill="#003271" stroke="white" stroke-width="0.865621" stroke-linejoin="round"/>
<path d="M253.845 401.212C251.733 400.554 250.504 401.93 250.504 401.93V372.361C250.504 372.361 251.785 371.201 254.018 372.179C261.895 375.615 282.203 382.584 299.498 382.584C316.793 382.584 337.101 375.615 344.978 372.179C347.211 371.201 348.492 372.352 348.492 372.352V401.93C348.492 401.93 347.263 400.545 345.151 401.212C336.754 403.817 314.802 410.301 299.498 410.301C284.194 410.301 262.242 403.817 253.845 401.22V401.212Z" fill="#003271" stroke="white" stroke-width="0.865621" stroke-linejoin="round"/>
<path d="M348.493 401.93C349.791 405.393 329.293 408.595 329.544 413.936ZM250.505 401.93C249.206 405.393 269.704 408.595 269.453 413.936Z" fill="#003271"/>
<path d="M348.493 401.93C349.791 405.393 329.293 408.595 329.544 413.936M250.505 401.93C249.206 405.393 269.704 408.595 269.453 413.936" stroke="white" stroke-width="0.865621" stroke-linejoin="round"/>
<path d="M299.501 87L319.853 149.637L266.57 110.925H332.431L279.148 149.637L299.501 87Z" fill="#FEC500"/>
<path d="M398.05 111.288L386.964 176.209L357.773 117.171L416.091 147.775L350.922 157.294L398.05 111.288Z" fill="#FEC500"/>
<path d="M474.027 178.59L434.043 230.924L435.63 165.083L473.047 219.282L410.918 197.427L474.027 178.59Z" fill="#FEC500"/>
<path d="M510.032 273.525L450.303 301.276L482.314 243.718L490.249 309.098L445.399 260.868L510.032 273.525Z" fill="#FEC500"/>
<path d="M497.795 374.283L432.011 371.101L487.102 335.009L463.747 396.589L446.446 333.042L497.795 374.283Z" fill="#FEC500"/>
<path d="M440.137 457.816L383.366 424.429L448.919 418.07L399.623 461.745L413.833 397.436L440.137 457.816Z" fill="#FEC500"/>
<path d="M350.265 504.988L315.511 449.044L376.511 473.876L312.565 489.642L355.032 439.3L350.265 504.988Z" fill="#FEC500"/>
<path d="M200.952 111.288L212.038 176.209L241.229 117.171L182.911 147.775L248.08 157.294L200.952 111.288Z" fill="#FEC500"/>
<path d="M124.973 178.59L164.957 230.924L163.37 165.083L125.953 219.282L188.082 197.427L124.973 178.59Z" fill="#FEC500"/>
<path d="M88.968 273.525L148.697 301.276L116.686 243.718L108.751 309.098L153.601 260.868L88.968 273.525Z" fill="#FEC500"/>
<path d="M101.205 374.283L166.989 371.101L111.898 335.009L135.253 396.589L152.554 333.042L101.205 374.283Z" fill="#FEC500"/>
<path d="M158.863 457.816L215.634 424.429L150.081 418.07L199.377 461.745L185.167 397.436L158.863 457.816Z" fill="#FEC500"/>
<path d="M248.735 504.988L283.489 449.044L222.489 473.876L286.435 489.642L243.968 439.3L248.735 504.988Z" fill="#FEC500"/>
<path d="M328.279 381.502C333.159 380.174 337.995 378.681 342.813 377.139C342.877 378.632 342.929 380.129 342.967 381.63C339.906 382.573 336.848 383.506 333.786 384.397C333.794 385.502 333.799 386.608 333.802 387.714C336.652 386.895 339.503 386.043 342.361 385.189C342.376 386.626 342.38 388.067 342.373 389.511C339.506 390.338 336.649 391.171 333.795 391.979C333.788 393.354 333.776 394.731 333.759 396.109C336.918 395.229 340.08 394.326 343.257 393.448C343.221 395.064 343.171 396.683 343.105 398.307C338.13 399.618 333.185 401.03 328.216 402.334C328.29 395.375 328.311 388.431 328.279 381.502ZM305.778 385.941C308.898 385.654 312.004 385.185 315.09 384.598C317.11 384.214 318.608 384.432 319.603 385.32C319.96 385.635 320.253 386.024 320.481 386.488C320.893 387.319 321.097 388.389 321.095 389.701C321.093 390.992 320.885 392.159 320.472 393.197C320.216 393.846 319.88 394.444 319.464 394.99C318.394 396.404 316.744 397.352 314.513 397.747C313.502 397.925 312.488 398.09 311.47 398.239C311.459 400.799 311.436 403.361 311.401 405.924C309.53 406.187 307.653 406.395 305.77 406.54C305.862 399.664 305.864 392.798 305.778 385.941ZM311.476 394.047C311.932 393.979 312.387 393.908 312.841 393.833C313.913 393.658 314.664 393.308 315.095 392.804C315.526 392.291 315.741 391.697 315.739 391.027C315.738 390.376 315.549 389.861 315.172 389.479C314.794 389.096 314.088 389.004 313.046 389.18C312.517 389.269 311.988 389.354 311.458 389.435C311.468 390.972 311.475 392.509 311.476 394.047ZM279.51 394.148C279.493 390.772 280.303 388.335 281.941 386.787C283.588 385.232 285.869 384.741 288.822 385.146C291.844 385.561 294.18 386.655 295.831 388.575C297.483 390.487 298.324 393.049 298.325 396.352C298.326 398.749 297.958 400.715 297.23 402.231C296.511 403.738 295.471 404.89 294.118 405.652C292.774 406.404 291.1 406.679 289.099 406.428C287.067 406.174 285.376 405.532 284.039 404.563C282.707 403.593 281.621 402.21 280.784 400.438C279.948 398.665 279.522 396.561 279.51 394.148ZM285.051 395.26C285.059 397.337 285.406 398.891 286.085 399.904C286.773 400.918 287.701 401.511 288.87 401.662C290.073 401.817 291.004 401.473 291.663 400.652C292.322 399.832 292.649 398.269 292.646 395.974C292.643 394.04 292.294 392.603 291.597 391.643C290.908 390.675 289.973 390.123 288.79 389.963C287.658 389.81 286.751 390.121 286.067 390.92C285.384 391.717 285.043 393.161 285.051 395.26ZM255.459 376.801C257.235 377.439 259.02 378.054 260.812 378.646C260.755 381.059 260.719 383.482 260.705 385.913C262.699 386.544 264.694 387.153 266.691 387.735C266.689 385.317 266.697 382.905 266.716 380.498C268.533 381.038 270.359 381.551 272.191 382.035C272.188 388.912 272.225 395.818 272.303 402.751C270.467 402.28 268.635 401.785 266.807 401.273C266.761 398.452 266.729 395.639 266.71 392.835C264.709 392.26 262.708 391.661 260.708 391.045C260.727 393.869 260.775 396.706 260.852 399.555C259.039 399.021 257.229 398.479 255.422 397.941C255.126 390.795 255.139 383.748 255.459 376.801Z" fill="#FEC500"/>
</svg>
