<svg width="600" height="600" viewBox="0 0 600 600" fill="none" xmlns="http://www.w3.org/2000/svg">
<path fill-rule="evenodd" clip-rule="evenodd" d="M0 300C0 134.315 134.315 0 300 0V0C465.685 0 600 134.315 600 300V300C600 465.685 465.685 600 300 600V600C134.315 600 0 465.685 0 300V300Z" fill="#041E42"/>
<path fill-rule="evenodd" clip-rule="evenodd" d="M52.5003 187.84C36.5004 241.18 100.834 284.279 144.656 245.607C190.613 197.351 139.327 132.176 86.0668 152.981C124.938 146.298 148.108 191.211 121.97 219.235C96.7228 245.026 50.6815 228.078 52.5003 187.84ZM333.22 181.228C331.181 182.175 329.675 184.933 328.815 187.11C326.773 193.187 324.673 199.25 322.622 205.316C321.551 208.044 320.517 210.82 319.439 213.526C317.459 213.259 320.22 209.877 320.068 208.43C320.722 205.46 322.176 202.556 322.3 199.525C321.803 197.255 322.351 194.309 321.224 192.462C319.542 196.343 317.411 200.061 315.964 204.029C314.875 208.792 313.414 213.469 312.803 218.329C312.439 220.844 311.997 223.325 311.18 225.736C309.165 225.548 309.697 221.999 308.513 220.535C307.438 217.117 305.273 214.159 303.708 210.949C302.909 210.155 301.071 204.567 301.105 207.681C300.925 209.931 300.77 212.183 300.564 214.431C296.088 206.065 291.598 197.707 287.116 189.344C287.481 192.06 287.105 194.989 288.092 197.555C290.266 202.241 292.252 207.012 294.328 211.741C293.236 212.775 293.016 211.066 292.47 210.372C288.329 203.061 284.188 195.75 280.047 188.439C278.375 189.614 279.539 191.78 279.324 193.474C280.007 195.849 281.581 197.976 282.653 200.226C284.613 203.893 286.627 207.541 288.64 211.17C287.197 212.76 286.412 208.257 285.379 207.243C281.634 200.747 277.929 194.227 274.073 187.797C272.384 188.381 271.861 189.618 272.145 191.255C271.866 192.895 272.545 194.291 273.494 195.609C276.391 200.623 279.316 205.622 282.237 210.622C281.247 211.772 280.945 210.093 280.368 209.421C275.667 201.983 270.967 194.545 266.266 187.106C265.122 186.592 263.505 185.219 263.871 187.499C263.327 190.352 266.428 192.347 267.442 194.815C271.623 201.283 275.931 207.787 280.095 214.193C279.223 215.367 278.824 213.867 278.261 213.222C275.62 209.476 272.978 205.729 270.336 201.982C269.35 201.726 268.083 201.085 268.455 202.685C268.39 203.701 268.119 204.773 268.981 205.538C273.207 211.88 277.512 218.191 281.689 224.553C283.044 227.325 284.279 230.18 285.708 232.9C288.121 235.383 290.535 237.867 292.948 240.35C291.216 241.745 289.46 237.318 287.735 236.518C285.908 234.462 283.45 232.818 282.419 230.185C281.165 228.225 280.446 225.886 278.512 224.453C276.37 222.846 274.725 219.918 272.24 219.191C271.438 220.962 272.093 224.945 274.498 226.313C274.737 226.973 278.11 229.245 276.259 228.779C272.627 228.38 269.217 227.11 265.814 225.855C263.758 227.828 270.723 229.407 266.814 230.211C263.986 230.249 261.805 227.686 259.221 226.736C252.779 223.214 246.18 219.969 239.593 216.739C238.226 216.327 236.858 215.914 235.491 215.502C235.111 217.887 238.838 218.56 240.076 220.247C245.073 222.945 250.192 225.502 255.199 228.212C255.038 229.717 253.68 228.579 252.772 228.433C243.402 225.416 234.032 222.399 224.661 219.381C223.087 219.005 223.362 219.831 223.999 220.893C224.156 222.121 225.376 222.182 226.328 222.537C233.683 225.005 241.032 227.494 248.391 229.949C248.681 231.109 248.924 232.28 249.177 233.448C247.505 232.071 245.857 230.496 243.567 230.347C238.776 229.16 233.84 230.166 228.983 230.222C226.391 229.6 226.055 231.692 228.636 232.139C230.71 233.751 233.384 232.846 235.795 232.974C239.717 232.856 243.638 232.731 247.558 232.591C248.253 234.825 243.73 233.33 243.558 235.144C243.106 237.299 247.172 237.299 248.639 236.859C250.882 236.896 252.436 233.572 254.342 234.138C253.844 236.27 250.1 236.747 249.675 238.953C249.393 241.162 253.903 240.512 255.2 239.568C256.706 238.317 259.297 236.429 259.435 239.779C259.873 242.806 263.876 241.634 266.052 242.659C269.931 243.251 273.903 243.496 277.746 244.132C281.424 245.8 285.113 247.456 288.782 249.133C288.028 251.215 284.794 248.058 283.118 248.181C280.341 247.406 277.783 245.83 274.833 245.801C272.283 245.332 269.722 245.387 267.162 245.685C259.409 246.333 251.64 246.858 243.896 247.582C236.689 248.799 229.463 249.965 222.257 251.156C220.427 251.725 216.447 252.797 220.258 253.536C228.44 253.152 236.606 252.464 244.774 251.846C245.364 253.275 243.609 252.787 242.73 253.016C235.938 253.705 229.145 254.394 222.353 255.083C220.262 256.63 217.471 257.481 216.331 260.01C216.658 263.611 221.166 260.318 223.4 260.558C229.277 259.57 235.132 258.634 240.799 256.821C242.487 256.956 246.708 253.941 246.963 256.107C240.556 258.084 234.132 260.087 227.67 261.878C226.294 262.2 224.919 262.521 223.543 262.843C223.141 266.15 228.144 264.221 230.183 264.747C234.668 263.698 238.941 261.889 243.373 260.632C245.737 260.437 249.317 257.667 251.029 258.805C249.508 260.358 245.974 261.178 243.764 262.463C239.204 264.458 234.58 266.29 230.136 268.555C227.208 271.521 233.246 271.249 234.728 269.713C239.477 267.535 244.166 265.236 248.844 262.89C249.99 263.839 248.304 264.292 247.707 264.943C245.057 267.017 242.472 269.163 239.517 270.795C238.373 271.714 236.501 272.035 236.276 273.72C238.872 275.196 241.352 273.406 243.679 272.244C249.76 268.307 255.911 264.456 262.101 260.701C264.777 259.502 267.523 258.464 270.241 257.368C271.292 258.417 269.575 258.735 268.924 259.35C265.937 261.349 262.939 263.334 259.959 265.342C256.701 268.711 253.752 272.417 249.904 275.152C248.11 276.653 246.279 278.004 244.861 279.659C242.048 282.488 239.135 285.217 236.348 288.072C235.478 290.956 233.625 293.667 233.83 296.761C233.866 300.093 233.487 303.46 233.801 306.769C234.143 308.144 234.936 311.278 235.205 308.145C235.356 306.712 236.345 301.771 237.406 305.238C237.989 306.535 238.563 310.445 239.254 309.767C240.267 307.76 240.454 304.945 242.084 303.424C243.536 304.271 244.683 306.362 246.066 303.957C247.822 301.913 247.562 298.841 248.435 296.353C249.188 293.124 249.943 289.896 250.7 286.668C252.076 286.27 251.75 287.936 252.093 288.79C252.533 290.78 252.973 292.77 253.414 294.76C256.416 293.459 255.19 289.4 256.159 286.832C256.351 284.908 256.963 279.84 259.03 283.708C260.244 286.62 263.608 283.263 263.505 281.146C264.192 277.791 264.85 274.43 265.552 271.078C266.453 272.684 267.393 274.267 268.313 275.862C271.449 275.717 272.527 272.572 274.561 270.708C276.389 268.811 278.019 266.612 280.047 264.961C282.359 263.77 284.525 262.178 286.902 261.153C289.222 263.297 285.721 266.192 284.403 268.031C281.462 271.665 277.832 274.659 274.752 278.177C273.537 279.58 271.635 280.758 272.145 282.846C273.69 283.535 275.302 284.161 276.858 284.859C274.508 286.037 271.981 287.051 269.813 288.477C267.713 290.293 265.446 291.906 263.244 293.594C262.649 295.192 262.265 296.997 264.629 296.332C266.317 296.042 270.862 296.763 267.29 298.426C263.933 300.62 260.045 301.99 256.722 304.162C255.802 305.391 253.331 307.319 256.341 307.232C258.351 306.943 261.361 303.88 262.854 305.431C260.741 307.766 258.003 310.019 255.69 312.351C254.512 313.263 251.9 315.797 253.447 316.509C257.11 314.757 259.685 311.465 262.806 308.957C263.903 307.214 266.842 305.666 265.911 309.063C262.288 313.575 258.785 318.215 255.056 322.608C255.431 327.02 258.268 321.342 259.666 320.158C261.845 317.585 263.872 314.829 266.72 312.947C267.709 312.733 270.317 309.017 270.455 310.536C270.389 311.799 270.779 313.209 269.705 314.192C267.452 317.23 265.946 320.704 264.1 323.989C263.796 325.406 263.48 329.481 265.528 327.559C267.967 323.01 270.943 318.756 272.864 313.94C274.832 309.809 276.16 305.374 277.81 301.139C279.199 299.067 279.877 299.769 279.684 301.936C279.908 303.95 279.823 308.261 281.214 308.565C283.742 302.789 286.916 297.326 289.611 291.635C290.544 288.859 291.653 286.132 292.805 283.431C294.257 283.279 293.59 284.855 293.733 285.771C293.636 287.608 293.928 289.508 293.59 291.306C292.024 295.804 290.849 300.442 288.665 304.7C287.341 307.438 285.469 309.906 284.189 312.659C282.905 314.331 283.382 314.343 284.828 313.361C287.385 312.19 289.102 309.994 290.875 307.905C293.664 305.669 291.594 310.755 290.951 311.833C289.434 316.134 288.452 320.646 286.736 324.893C286.714 326.18 286.268 329.139 287.908 326.874C290.986 324.467 292.106 320.612 293.947 317.324C295.064 318.956 297.164 319.898 298.182 317.887C298.011 315.346 296.839 312.714 297.983 310.253C299.113 306.184 300.04 302.037 300.677 297.866C300.984 295.33 301.155 292.765 301.469 290.238C302.88 289.511 302.283 291.751 302.397 292.602V298.402C303.779 298.554 306.316 296.104 307.038 297.712C305.643 298.907 303.512 299.647 302.249 300.947C302.195 302.566 302.141 304.185 302.087 305.804C303.809 304.757 305.531 303.71 307.252 302.663C308.473 303.521 306.855 304.116 306.302 304.825C304.889 306.143 303.476 307.461 302.064 308.78C302.04 309.922 302.016 311.064 301.992 312.207C303.189 311.831 304.395 311.481 305.586 311.088C306.568 312.206 304.874 312.458 304.172 313.04C303.378 313.778 301.593 313.905 301.851 315.292C301.761 318.779 301.633 322.264 301.492 325.75C302.122 324.504 304.342 321.503 304.018 321.333C303.29 322.757 300.641 322.853 302.445 321.37C303.194 320.46 307.281 317.55 305.838 320.458C304.431 322.486 303.209 325.187 301.732 326.854C301.312 326.813 300.808 329.795 302.081 329.206C303.138 329.925 306.399 330.253 304.147 331.505C303.183 332.473 301.976 333.334 301.159 334.366C301.226 337.285 300.491 342.145 301.062 343.84C301.923 342.63 304.756 340.445 304.161 339.874C302.966 340.445 299.325 340.172 301.873 339.245C303.426 338.657 307.763 338.491 304.991 340.935C303.515 343.567 299.999 344.396 300.663 347.275C300.676 349.399 299.806 350.696 302.406 350.308C305.382 350.047 305.589 352.947 302.907 353.74C301.062 354.817 299.45 354.746 300.564 357.192C301.139 358.799 305.107 359.883 304.111 361.547C303.962 359.67 303.54 362.271 302.513 360.388C301.25 359.38 299.623 356.985 300.157 360.163C299.925 366.226 299.685 372.288 299.446 378.351C300.696 377.968 302.915 379.721 302.937 380.532C301.647 381.728 298.568 376.505 299.369 380.641C299.412 382.504 298.922 385.947 299.301 386.815C299.922 386.293 300.907 387.786 301.669 388.044C302.538 388.645 303.408 389.246 304.277 389.847C303.798 391.325 302.779 389.802 301.963 389.409C301.005 388.746 300.047 388.083 299.089 387.42C299.313 389.885 298.23 394.42 299.223 395.695C300.354 396.528 303.309 398.926 303.236 400.266C301.774 400.657 299.662 396.293 298.741 396.542C298.599 400.221 298.467 403.9 298.327 407.579C299.863 408.095 302.973 410.094 303.784 411.353C302.397 412.529 299.467 408.163 298.267 408.717C298.049 411.69 298.227 414.728 297.802 417.665C297.238 419.801 303.122 419.274 301.849 421.456C299.679 420.74 296.668 417.636 296.651 421.648C296.187 424.846 293.276 428.112 295.542 431.143C296.414 433.604 299.209 434.652 301.302 435.903C303.774 435.513 306.146 434.291 308.72 434.195C312.513 433.607 316.372 433.396 320.153 432.785C321.751 431.62 323.731 430.521 321.322 429.027C319.405 426.673 319.86 423.319 318.749 420.646C318.746 418.471 318.299 417.526 316.385 419.096C314.885 419.393 312.554 422.592 311.703 420.599C313.945 419.514 315.979 418.103 318.249 417.052C317.98 414.206 317.43 411.375 317.487 408.508C315.694 409.664 313.045 412.069 311.324 411.737C312.026 410.135 315.455 409.431 316.916 407.746C317.977 407.732 317.284 406.226 317.464 405.336C317.44 402.855 317.416 400.373 317.392 397.892C315.731 399.767 313.742 401.105 311.227 401.51C309.357 399.875 314.082 400.464 314.693 399.072C315.823 397.794 317.914 396.998 317.354 395.001C317.335 392.807 317.316 390.613 317.297 388.419C315.835 389.39 313.157 392.871 311.745 391.429C313.271 390.069 316.575 388.768 317.268 386.733C317.238 383.884 317.208 381.034 317.178 378.185C315.602 380.29 313.451 381.731 310.907 382.395C309.658 383.78 307.109 382.55 309.649 381.857C312.127 381.035 314.629 380.138 316.17 377.886C317.571 377.135 317.1 375.801 317.15 374.419C317.128 372.39 317.105 370.36 317.082 368.331C314.123 370.955 311.449 373.864 308.514 376.518C306.968 374.887 311.386 373.472 312.013 371.853C313.474 370.102 315.952 368.41 317.079 366.905C317.056 364.691 317.034 362.476 317.011 360.262C315.883 361.305 314.056 362.628 316.368 361.381C317.403 362.546 315.586 362.664 314.825 363.17C313.777 363.662 312.725 364.146 311.679 364.642C310.585 362.587 315.22 361.58 316.144 359.772C317.395 360.079 316.932 358.901 316.988 357.684C316.972 356.14 316.956 354.595 316.94 353.05C315.393 355.866 312.312 354.233 309.854 353.722C308.038 353.573 309.746 353.02 310.501 352.571C312.449 351.525 314.397 350.478 316.345 349.432C317.443 350.541 315.631 350.751 314.897 351.294C313.745 351.903 312.593 352.512 311.441 353.122C313.601 354.331 316.249 353.557 316.911 351.459C316.917 347.749 316.81 344.103 316.63 340.388C314.923 342.103 313.944 343.979 311.822 344.744C312.815 344.285 316.906 344.88 314.155 345.6C312.577 345.916 307.308 346.117 310.995 344.106C312.878 343.367 314.101 341.991 315.298 340.411C316.722 339.591 316.708 339.036 316.515 337.36C316.419 335.077 316.322 332.793 316.226 330.51C315.362 331.573 311.681 334.481 312.62 334.479C313.722 333.784 318.04 333.583 315.473 334.83C313.826 334.725 310.266 337.019 309.68 335.009C311.975 333.691 313.662 331.634 315.578 329.82C316.7 329.964 315.961 328.314 316.102 327.294C315.826 320.44 315.55 313.586 315.274 306.733C314.196 307.69 309.681 311.337 311.332 307.717C312.438 306.449 313.566 304.23 314.795 303.799C315.599 303.386 314.865 301.89 315.052 301.042C315.238 298.944 313.958 297.158 313.333 295.232C313.289 294.445 311.814 293.07 313.068 292.837C314.434 293.996 315.08 297.145 316.186 299.009C317.869 302.903 319.79 306.712 321.271 310.684C322.09 313.988 322.962 317.282 323.08 320.704C323.921 320.398 325.489 320.905 325.431 319.595C325.627 318.305 326.558 316.976 325.74 315.742C322.054 305.711 317.862 295.88 313.964 285.93C314.889 284.97 315.195 286.279 315.558 287.059C317.825 291.579 319.306 296.44 321.195 301.127C323.112 306.21 325.128 311.264 327.436 316.182C330.987 314.116 328.051 310.416 327.549 307.41C325.889 301.912 323.646 296.609 321.723 291.198C321.152 290.237 319.904 289.786 319.074 289.02C317.851 288.118 316.597 287.205 315.393 286.311C316.394 284.419 318.618 287.745 320.155 287.909C322.798 290.694 323.449 286.413 325.794 285.921C326.452 288.335 321.994 290.288 324.368 293.075C326.078 298.911 327.613 304.807 329.879 310.46C330.254 311.479 330.633 312.496 331.006 313.516C330.24 314.618 331.331 319.333 332.894 318.117C333.43 315.572 335.057 313.053 333.675 310.48C331.646 302.724 328.86 295.19 326.515 287.526C326.546 284.733 328.291 288.717 328.485 289.918C331.181 297.239 334.098 304.493 336.481 311.921C335.974 314.103 335.99 318.718 338.837 316.11C338.965 313.197 339.192 310.214 337.98 307.47C335.515 300.911 333.556 294.16 331.363 287.501C330.111 288.864 327.755 287.559 327.389 286.054C327.81 282.745 325.078 282.838 322.611 283.05C321.531 282.945 324.494 281.399 324.842 280.837C326.174 280.104 329.015 277.862 326.276 277.26C325.401 276.859 324.53 276.447 323.652 276.053C324.959 273.803 326.313 271.595 328.045 269.637C329.112 267.692 328.301 264.202 326.231 263.016C324.73 262.191 324.899 260.289 324.305 258.88C323.522 258.05 324.308 256.451 324.933 257.654C325.323 258.995 325.713 260.336 326.103 261.676C328.364 262.889 329.413 264.88 329.361 267.39C330.392 269.732 327.675 271.153 326.672 272.926C326.075 273.795 325.571 274.73 325.008 275.624C326.267 276.217 327.552 276.756 328.793 277.385C329.053 279.751 324.971 281.314 325.27 282.122C329.232 281.059 326.827 286.58 329.818 287.033C330.834 287.023 331.718 286.012 332.68 285.592C334.396 285.917 331.959 286.716 332.363 287.483C335.561 296.178 338.845 304.881 341.884 313.611C341.594 316.77 344.603 317.182 346.477 318.491C346.737 320.174 347.542 323.373 349.319 322.686C349.395 318.181 349.678 313.65 349.69 309.16C349.948 307.622 347.335 303.895 349.476 303.71C350.679 307.232 352.27 310.667 353.096 314.293C353.678 316.648 352.519 320.474 355.896 320.824C357.387 321.43 356.233 316.017 357.83 317.491L360.472 319.585C364.047 319.671 361.389 315.751 361.448 313.754C360.324 310.959 359.257 308.13 358.14 305.328C359.804 304.64 357.246 305.572 357.728 303.787C357.344 301.023 355.553 298.944 353.949 296.784C353.269 295.319 353.315 293.585 352.045 295.665C350.534 296.916 351.199 298.98 352.26 300.3C353.983 302.968 353.813 306.494 355.966 308.907C356.913 310.461 358.184 312.029 357.854 313.957C357.939 314.845 358.009 316.609 356.902 315.755C356.754 314.249 357.307 312.62 356.375 311.423C355.233 309.179 353.595 307.778 353.142 305.257C352.647 302.722 351.233 300.555 350.166 298.259C350.405 297.702 346.61 298.565 346.904 297.379C347.954 297.231 347.768 296.769 349.548 297.164C350.895 296.025 350.882 293.88 349.976 292.452C348.188 288.446 345.435 284.935 343.431 281.051C342.925 278.516 343.932 275.395 341.501 273.629C338.99 271.183 337.719 267.884 336.314 264.747C334.7 262.498 332.073 261.173 330.197 259.13C329.176 259.453 325.325 259.573 327.237 258.42C329.872 257.366 331.685 258.87 333.363 260.653C335.275 262.139 337.305 263.677 337.946 266.118C339.138 268.968 340.69 271.605 342.899 273.792C344.845 275.619 343.84 278.541 344.359 280.884C346.754 285.23 349.959 289.196 351.571 293.927C351.222 295.997 352.142 293.265 353.125 293.506C353.032 291.163 353.848 287.995 352.332 285.811C350.75 282.869 348.908 280.033 347.477 277.028C346.481 274.884 345.263 272.201 344.153 269.861C342.988 267.156 341.295 264.728 339.694 262.271C341.29 260.602 342.121 265.411 343.359 266.246C346.147 271.177 347.901 276.623 350.948 281.415C351.837 283.518 353.721 285.363 354.12 287.603C354.426 288.942 353.588 293.28 354.675 292.92C355.218 291.875 355.77 290.834 356.307 289.786C357.176 289.374 358.894 289.637 359.103 288.686C359.404 285.763 356.46 283.635 356.164 280.765C355.333 276.851 353.764 273.149 351.817 269.667C349.728 265.081 346.662 261.008 345.009 256.222C344.572 253.429 346.836 256.994 346.884 258.298C348.491 261.955 350.839 265.242 352.499 268.888C354.081 271.855 355.594 274.846 356.463 278.113C357.058 281.185 358.326 284.025 359.925 286.716C360.2 287.943 359.889 288.9 360.935 289.011C361.419 290.14 359.07 289.569 359.998 291.297C360.266 292.379 359.718 296.466 358.907 294.14C358.978 292.222 359.882 289.103 357.142 290.572C356.412 291.204 356.133 292.41 355.573 293.257C355.111 294.41 353.386 294.328 354.56 295.964C356.097 298.252 358.142 300.289 358.544 303.138C358.869 305.679 360.98 307.399 362.257 309.595C363.641 311.017 365.264 315.373 366.653 314.591C367.274 311.886 364.898 310.081 364.03 307.732C362.172 303.757 360.486 299.702 358.711 295.689C360.153 296.729 361.991 297.335 362.813 299.042C366.114 303.439 369.36 307.881 372.754 312.207C376.309 313.914 374.126 309.483 373.04 308.089C370.328 302.618 366.616 297.723 363.413 292.533C362.717 291.823 360.492 288.371 362.57 289.434C366.226 293.946 369.883 298.459 373.539 302.972C374.775 303.816 377.006 304.519 376.264 302.417C373.128 296.691 369.136 291.492 365.644 285.977C361.994 280.785 358.893 275.234 355.617 269.793C357.341 268.398 359.603 271.9 361.524 272.358C364.597 274.037 367.336 276.181 369.852 278.604C374.092 282.291 378.168 286.193 382.574 289.674C384.77 290.876 386.482 292.977 388.844 293.761C388.883 292.968 386.429 289.989 387.46 290.008C389.935 290.705 392.275 291.733 394.561 292.876C396.093 293.63 400.885 295.433 398.483 292.309C397.719 290.746 394.079 289.9 394.673 288.205C395.349 287.841 396.446 288.983 397.284 289.198C399.207 290.354 401.369 290.879 403.577 291.19C406.804 291.046 404.776 287.685 402.597 287.663C397.595 284.999 392.632 282.256 387.654 279.551C388.686 277.461 392.062 280.78 394.009 280.67C395.146 280.312 399.324 281.171 397.862 279.199C397.243 278.441 395.964 278.416 395.078 277.954C388.257 275.484 381.423 273.044 374.611 270.554C371.704 268.597 368.749 266.699 365.828 264.771C366.274 262.981 369.203 265.287 370.659 265.104C373.211 265.771 375.776 266.321 378.427 266.289C380.13 266.336 383.7 266.769 384.32 266.486C383.192 265.877 378.217 264.437 381.057 263.661C382.482 263.574 386.959 263.484 383.142 263.342C380.435 263.06 377.606 263.157 374.991 262.438C375.326 261.471 376.679 261.835 378.445 262.023C380.373 262.684 384.28 261.551 385.034 263.169C386.948 263.782 390.31 262.995 392.773 263.144C396.182 262.844 399.932 263.314 403.126 262.473C404.239 260.738 407.569 260.176 407.508 257.925C407.286 255.836 407.262 253.683 406.918 251.634C406.209 250.859 406.059 249.285 404.858 249.215C401.639 248.686 398.56 247.802 395.508 246.705C389.156 246.55 382.778 246.608 376.443 246.229C374.39 246.096 371.947 247.955 369.588 247.824C365.945 248.19 362.224 247.889 358.69 249.016C357.327 250.072 355.433 248.548 357.616 248.276C360.346 247.554 363.107 247.06 365.94 247.103C368.82 247.011 371.716 246.796 374.386 245.616C376.023 244.506 376.385 246.392 376.706 244.333C378.204 243.765 382.999 244.167 381.87 242.588C375.953 242.788 370.033 242.86 364.114 242.969C361.985 242.758 359.271 244.073 357.164 245.087C354.695 246.085 356.732 243.582 358.259 243.516C360.879 241.962 364.14 242.347 366.685 240.66C370.662 238.806 374.4 236.461 378.276 234.424C379.283 233.533 382.085 232.143 379.12 231.855C376.794 231.319 374.307 232.659 371.897 232.686C368.719 233.248 371.901 230.478 373.096 229.944C376.807 228.036 380.439 225.95 383.988 223.737C385.114 222.877 388.438 222.291 387.368 220.857C384.359 221.862 381.38 223.3 378.3 224.142C377.258 224.39 372.532 224.974 374.866 223.132C379.403 220.135 383.869 217.029 388.368 213.978C389.866 211.965 388.781 211.914 386.982 212.735C384.899 213.37 383.346 215.073 381.406 216.063C380.74 217.231 377.007 218.219 378.989 216.196C380.999 214.45 382.962 212.645 385.059 211.003C386.119 209.527 387.206 206.013 384.327 207.669C382.471 208.646 380.085 208.791 378.792 210.596C376.507 212.971 374.179 215.33 371.921 217.715C370.27 216.167 374.54 214.46 375.066 212.821C376.92 210.698 378.873 208.633 380.537 206.362C380.889 204.5 380.97 203.189 379.081 204.486C378.162 204.881 377.243 205.276 376.324 205.672C376.601 207.592 372.524 209.598 371.231 211.503C369.041 213.372 366.064 214.157 364.138 216.382C362.599 214.739 366.834 213.492 367.922 212.526C371.001 211.028 373.084 208.207 375.563 205.933C372.85 206.484 369.725 206.372 368.137 209.075C364.03 212.979 360.034 217.02 355.831 220.809C350.707 224.362 345.5 227.844 340.241 231.163C337.836 232.132 334.418 231.336 333.278 234.236C331.269 237.062 328.89 239.59 326.651 242.231C329.058 241.701 331.344 242.251 333.517 243.318C335.607 244.049 337.383 245.493 339.384 246.396C338.938 248.385 336.194 249.893 334.034 249.528C332.677 249.491 331.453 248.573 330.149 248.181C330.279 246.616 331.606 247.879 332.492 248.1C334.232 249.042 336.592 248.675 337.874 247.131C337.205 245.758 333.655 244.371 331.595 243.603C329.726 242.48 327.583 243.253 325.556 243.278C323.157 243.822 326.225 241.698 326.58 240.868C329.234 237.885 331.774 234.809 334.077 231.544C333.909 229.134 336.582 227.431 337.471 225.208C340.089 221.349 341.441 216.802 343.449 212.609C344.304 210.86 343.863 208.817 344.085 206.924C344.021 205.897 344.385 204.778 344.026 203.815C342.162 207.244 340.245 210.669 338.456 214.121C336.251 214.248 338.229 210.754 338.864 209.847C340.559 206.422 342.471 203.055 344.055 199.604C344.101 198.159 344.146 196.715 344.192 195.27C342.765 194.029 342.046 198.263 340.912 199.255C338.431 203.386 336.14 207.654 333.554 211.707C333.3 213.077 330.561 214.073 331.659 212.132C335.355 205.333 339.15 198.559 342.941 191.832C344.464 189.131 343.975 185.976 344.192 183.013C342.732 180.705 341.712 184.255 340.542 185.172C339.045 187.031 338.494 189.473 337.344 191.561C335.479 195.613 333.544 199.639 331.649 203.672C329.528 202.799 332.872 199.632 332.901 197.851C334.719 193.153 336.528 188.452 338.337 183.75C337.43 181.865 335.395 186.84 334.434 187.987C332.707 191.845 330.703 195.572 328.793 199.34C326.75 198.45 330.039 195.314 329.95 193.606C330.938 190.751 332.24 187.923 333.196 185.107C333.052 184.044 334.558 181.281 333.22 181.228ZM346.311 232.448C346.781 234.326 343.951 235.182 342.788 236.637C341.326 237.183 336.096 238.467 338.347 239.643C339.835 238.854 341.326 238.072 342.812 237.28C344.713 239.084 347.589 241.016 347.364 243.771C345.558 244.224 346.329 240.231 344.178 239.859C343.187 238.145 341.932 238.582 340.598 239.526C339.537 240.098 338.454 240.63 337.409 241.231C335.633 238.806 337.601 236.846 340.156 236.557C342.69 236.161 344.165 233.978 346.073 232.52L346.125 232.476L346.311 232.448ZM359.782 237.685C359.958 239.804 356.23 238.88 355.225 240.668C353.599 241.454 351.954 243.87 350.502 243.849C348.899 243.537 352.429 241.988 352.991 241.116C355.023 239.487 357.098 237.987 359.782 237.685ZM377.062 245.967C376.939 246.283 376.65 246.362 377.062 245.967ZM328.245 248.038C330.454 248.869 332.808 249.397 334.678 250.924C337.095 251.779 337.209 254.542 337.911 256.629C337.978 257.973 336.817 262.251 335.598 261.335C336.09 259.364 337.839 256.934 336.362 254.679C336.167 252.2 333.593 251.511 331.85 250.315C330.537 249.85 329.225 249.384 327.912 248.919C328.023 248.625 328.134 248.332 328.245 248.038ZM390.462 248.276C394.949 248.46 399.474 248.656 403.934 249.085C404.431 249.611 403.038 249.642 403.244 249.919C397.465 249.655 391.688 248.953 385.903 249.432C383.195 249.084 380.83 251.152 378.087 250.568C376.625 250.855 373.26 250.074 375.563 249.466C378.19 249.761 380.864 249.793 383.315 248.666C385.637 248.243 388.097 248.526 390.462 248.276ZM383.56 252.037C388.195 252.697 392.851 253.108 397.537 253.052C400.489 253.217 403.943 252.922 406.596 253.392C406.155 255.358 402.031 253.462 400.27 254.049C395.066 253.987 389.852 253.988 384.702 253.132C383.706 253.16 383.397 253.003 383.56 252.037ZM388.582 257.226C390.489 259.213 393.22 259.57 395.965 259.124C399.194 258.915 402.504 259.79 405.637 258.587C408.361 258.334 405.438 260.12 404.012 259.943C400.846 260.607 397.611 259.729 394.413 260.129C391.859 261.033 389.766 258.88 387.932 258.401C386.561 259.211 385.054 259.387 383.505 259.272H376.824C376.373 257.788 378.084 258.465 378.974 258.32C381.199 258.304 383.433 258.352 385.654 258.297C386.619 257.919 387.558 257.42 388.582 257.226ZM297.589 260.248C299.909 261.203 295.704 263.5 296.389 265.011C296.492 266.595 296.679 267.721 297.422 265.532C297.763 264.509 298.078 263.476 298.446 262.462C299.383 264.008 300.616 264.874 302.397 264.89C303.158 266.195 303.523 269.155 304.324 266.421C305.058 265.01 305.625 263.38 306.681 262.224C308.398 263.205 306.443 266.696 306.943 268.484C306.802 271.301 307.401 274.121 307.002 276.946C307.248 278.627 305.589 282.907 308.579 280.866C309.61 280.376 309.746 278.921 310.378 278.001C311.523 275.786 311.1 273.088 311.846 270.745C314.064 270.176 312.05 276.907 314.19 274.772C314.814 272.494 313.127 270.575 312.941 268.055V263.581C314.426 263.13 313.749 264.84 313.893 265.73C313.784 267.524 313.972 269.307 314.75 270.959C317.195 272.279 316.802 267.731 318.749 266.818C320.867 265.971 319.677 261.552 321.819 262.033C321.62 264.756 320.103 267.009 318.225 268.864C317.455 270.162 317.097 273.293 314.893 272.03C316.492 273.67 314.677 277.11 312.703 276.529C312.267 275.071 312.232 273.364 311.999 275.856C311.93 277.935 310.476 279.581 309.728 281.455C307.93 282.442 304.698 283.524 305.88 280.18C306.099 276.598 306.36 273.012 305.92 269.436C305.878 268.261 306.518 264.566 305.934 265.292C305.108 266.963 304.319 268.664 303.492 270.34C302.469 268.809 302.876 265.195 300.453 265.561C299.109 265.294 298.634 263.69 298.303 265.866C297.708 266.509 296.969 270.105 295.899 268.484C295.638 266.505 295.802 263.433 293.543 265.842C293.128 264.234 292.735 262.62 292.329 261.01C293.661 260.202 293.425 262.025 293.778 262.857C293.702 265.591 296.626 262.927 296.97 261.51C297.175 261.089 297.381 260.668 297.589 260.248ZM334.91 272.316C337.447 277.457 340.136 282.538 342.859 287.596C344.33 291.185 346.107 294.69 346.727 298.553C346.146 300.387 350.469 302.875 348.358 303.353C346.026 301.531 345.786 298.637 345.144 295.974C343.621 291.224 341.426 286.696 338.988 282.342C337.231 279.217 335.739 275.968 334.1 272.792C334.37 272.633 334.64 272.474 334.91 272.316ZM329.721 277.933C332.146 278.211 327.517 280.734 330.534 281.018C332.096 281.274 331.693 283.483 333.108 283.855C336.671 284.058 332.723 289.127 336.385 288.382C338.143 289.766 336.295 293.347 339.051 294.261C341.342 295.362 340.692 298.076 341.763 299.958C342.017 301.4 342.843 301.182 343.838 300.471C344.579 299.981 346.061 299.216 345.782 300.57C344.49 301.212 343.198 301.852 341.907 302.496C340.879 300.503 339.963 298.45 339.741 296.189C337.724 294.671 335.897 292.984 336.213 290.212C336.692 288.086 332.643 290.251 333.712 287.576C335.115 284.857 331.975 285.207 331.327 283.382C331.148 281.551 328.402 281.85 328.245 280.242C328.697 279.447 329.266 278.726 329.721 277.933ZM315.178 304.186C314.78 305.37 310.971 308.924 313.788 306.678C315.244 305.796 315.452 306.37 315.189 304.416L315.181 304.251L315.178 304.186ZM314.607 312.635C317.36 313.104 311.184 315.754 312.51 315.82C313.318 315.233 315.045 315.308 314.148 316.327C312.81 316.738 311.471 317.15 310.132 317.562C309.135 315.425 313.521 314.358 314.559 312.683L314.607 312.635ZM314.893 321.751C317.153 321.821 313.655 324.105 313.012 325.084C310.547 327.088 315.944 323.096 315.512 325.078C314.479 325.803 310.729 328.162 309.434 326.856C311.055 325.011 313.38 323.806 314.893 321.751ZM301.326 329.915C301.201 331.655 300.868 333.842 302.542 331.679C304.403 330.536 302.347 330.587 301.326 329.915ZM300.517 350.979C300.476 352.614 299.859 355.214 302.016 353.169C303.613 352.475 304.809 351.22 302.24 351.242C301.666 351.149 301.09 351.069 300.517 350.979ZM300.112 368.831C301.548 369.706 305.217 369.926 305.124 371.562C304.096 371.402 300.293 370.525 300.112 369.287V368.831ZM293.567 428.977C287.945 429.132 282.304 428.95 276.691 429.143C274.266 430.689 271.463 431.705 269.566 433.942C268.13 435.96 271.977 437.688 273.954 437.236C274.951 437.898 278.51 436.603 277.905 438.474C276.974 441.175 273.936 441.65 271.931 443.282C270.694 445.85 273.629 449.04 275.834 446.59C277.142 445.348 278.269 445.206 279.195 446.738C280.726 447.938 278.123 451.168 281.475 450.993C283.665 449.89 285.619 447.963 287.676 446.503C289.041 444.758 291.25 442.818 292.115 446.114C294.119 447.828 296.632 447.402 299.027 447.244C301.968 447.143 305.207 446.748 306.897 443.977C309.647 442.664 312.268 445.346 313.654 447.498C315.511 448.718 318.606 448.879 317.66 445.79C316.931 443.769 317.561 441.632 319.991 442.935C322.652 443.443 324.717 445.458 327.269 446.161C327.115 444.221 327.088 440.566 329.782 443.05C332.053 444.695 334.424 446.29 337.171 447.018C337.269 445.872 336.967 444.618 337.337 443.543C339.102 441.729 342.634 447.052 341.86 442.996C342.227 441.604 340.321 438.526 342.264 438.735C344.947 439.867 347.778 440.649 350.642 441.163C348.746 438.01 345.36 436.277 342.479 434.166C339.696 433.007 336.756 432.089 333.712 432.147C330.427 431.847 327.061 431.984 323.82 431.503C322.431 430.494 322.66 431.395 322.914 431.69C320.976 434.468 317.514 433.93 314.582 434.454C310.486 434.846 306.348 435.255 302.468 436.712C299.787 437.061 297.415 434.696 295.473 433.046C294.62 431.864 294.216 430.311 293.567 428.977Z" fill="white"/>
</svg>
