<svg width="600" height="600" viewBox="0 0 600 600" fill="none" xmlns="http://www.w3.org/2000/svg">
<mask id="mask0_1_8257" style="mask-type:alpha" maskUnits="userSpaceOnUse" x="0" y="0" width="600" height="600">
<path fill-rule="evenodd" clip-rule="evenodd" d="M0 300C0 134.315 134.315 0 300 0V0C465.685 0 600 134.315 600 300V300C600 465.685 465.685 600 300 600V600C134.315 600 0 465.685 0 300V300Z" fill="#003776"/>
</mask>
<g mask="url(#mask0_1_8257)">
<path d="M-150 1H750V601H-150V1Z" fill="white"/>
<path d="M750 1V243.278L660 185.528L615 214.417L480 127.806L435.025 156.667L300 70.0556L164.975 156.667L120 127.806L-15 214.417L-60 185.528L-150 243.278V1L750 1Z" fill="#071D49"/>
<path d="M750 416.472V601H-150V416.472H120L300 531.944L480 416.472H750Z" fill="#AA0200"/>
<path d="M452.847 390V214L300.436 126L148 214V390L300.436 478L452.847 390Z" fill="#071D49"/>
<path d="M300.424 141.962L161.824 221.993V382.031L300.424 462.062L439.024 382.031V221.993L300.424 141.962ZM432.424 378.218L300.424 454.436L168.424 378.218V225.807L300.424 149.589L432.424 225.807V378.218Z" fill="#FFB81D"/>
<path d="M348.165 222.702H252.758C250.925 222.702 249.996 220.453 251.316 219.182C265.2 205.884 282.018 197.231 300.4 197.231C318.783 197.231 335.771 205.884 349.583 219.182C350.903 220.453 349.998 222.702 348.14 222.702H348.165Z" fill="#FFB81D"/>
<path d="M369.994 256.827H230.856C228.119 256.827 226.359 253.918 227.605 251.498C230.319 246.267 233.35 241.207 236.699 236.415C238.923 233.238 242.541 231.355 246.427 231.355H354.472C358.359 231.355 362.001 233.262 364.201 236.44C367.525 241.231 370.556 246.267 373.245 251.498C374.492 253.918 372.732 256.827 369.994 256.827Z" fill="#FFB81D"/>
<path d="M382.582 290.927H218.267C215.871 290.927 214.136 288.678 214.722 286.38C216.116 281.002 217.533 275.918 219.024 271.444C220.198 267.876 223.547 265.456 227.336 265.456H373.538C377.302 265.456 380.651 267.876 381.849 271.444C383.34 275.918 384.782 281.002 386.151 286.38C386.738 288.678 384.978 290.927 382.607 290.927H382.582Z" fill="#FFB81D"/>
<path d="M389.989 325.051H210.884C208.586 325.051 206.875 322.973 207.291 320.725C208.171 316.105 209.1 311.313 210.102 306.522C210.958 302.489 214.527 299.58 218.658 299.58H382.215C386.371 299.58 389.94 302.489 390.771 306.522C391.773 311.313 392.702 316.08 393.582 320.725C393.998 322.973 392.287 325.051 389.989 325.051Z" fill="#FFB81D"/>
<path d="M317.462 359.151C315.433 359.151 313.796 357.513 313.796 355.509C313.796 351.818 312.304 348.493 309.884 346.073C307.464 343.653 304.116 342.162 300.424 342.162C293.042 342.162 287.053 348.127 287.053 355.484C287.053 357.489 285.416 359.127 283.387 359.127H205.091C202.842 359.127 201.131 357.147 201.473 354.947C201.962 351.744 202.72 346.88 203.698 340.964C204.407 336.76 208.049 333.68 212.327 333.68H388.547C392.824 333.68 396.467 336.76 397.176 340.964C398.153 346.88 398.911 351.744 399.4 354.947C399.742 357.147 398.031 359.127 395.782 359.127H317.487L317.462 359.151Z" fill="#FFB81D"/>
<path d="M300.423 381.615L305.874 398.433H323.548L309.248 408.822L314.723 425.615L300.423 415.227L286.123 425.615L291.574 408.822L277.299 398.433H294.948L300.423 381.615Z" fill="white"/>
</g>
</svg>
