<svg width="682" height="682" viewBox="0 0 682 682" fill="none" xmlns="http://www.w3.org/2000/svg">
<g clip-path="url(#clip0_148_54)">
<path d="M1 341C1 528.777 153.223 681 341 681C528.777 681 681 528.777 681 341C681 153.223 528.777 1 341 1C153.223 1 1 153.223 1 341Z" fill="#951A42" stroke="#CCCCCC" stroke-width="0.5036" stroke-linecap="round" stroke-linejoin="round" stroke-dasharray="1.01 2.01"/>
<path fill-rule="evenodd" clip-rule="evenodd" d="M327.623 542.324C326.593 540.874 325.614 539.398 324.659 537.922C322.068 533.956 319.639 529.876 317.344 525.722C315.113 521.693 313.029 517.589 311.058 513.436C310.464 512.171 309.881 510.894 309.31 509.618C305.666 501.509 302.528 493.139 299.85 484.622C297.06 475.744 294.767 466.706 292.906 457.629C292.411 455.212 291.952 452.808 291.518 450.389C288.457 433.427 286.806 416.207 286.323 398.984C286.174 393.406 286.137 387.826 286.219 382.245C286.38 372.216 286.938 362.186 287.892 352.192C289.282 337.537 291.5 322.956 294.686 308.587C297.538 295.741 301.16 283.045 305.895 270.759C306.997 267.92 308.189 265.092 309.416 262.303C310.867 265.129 312.38 268.365 313.904 271.936L319.496 265.501C319.496 265.501 317.103 271.489 315.838 275.482C315.768 275.706 315.641 276.128 315.885 276.734C317.819 281.607 319.717 286.902 321.44 292.406L326.188 288.637C323.622 291.662 322.63 296.324 323.424 299.175C327.701 314.685 330.156 330.952 327.837 342.98C343.819 320.762 345.878 278.532 327.93 254.106C329.22 254.566 330.583 255.099 331.984 255.682L332.828 250.611C332.828 250.611 333.46 253.698 333.957 255.904C334.105 256.598 334.515 256.797 334.712 256.884C338.567 258.645 342.338 260.716 346.701 263.53L348.352 256.45C348.352 256.45 348.797 260.541 349.343 264.285C349.467 265.178 349.95 265.7 350.186 265.861C355.443 269.543 360.799 273.995 365.919 279.251L369.243 272.406C367.506 276.274 369.441 282.895 372.577 286.752C379.645 295.356 382.509 295.542 387.579 307.011C389.749 287.83 392.055 253.151 343.093 238.335C343.093 238.335 346.479 236.972 351.649 235.285L347.692 230.945C347.692 230.945 351.078 232.768 353.831 234.083C354.352 234.33 354.935 234.242 355.17 234.164C359.645 232.813 364.964 231.398 370.433 230.395L367.073 226.588C369.787 228.72 374.164 229.75 376.595 229.464C384.059 228.609 391.311 228.833 396.531 231.337C388.348 219.892 365.547 208.896 327.372 219.024C328.338 215.169 329.542 212.131 331.252 209.527L328.302 207.556C328.302 207.556 329.951 207.673 331.848 207.754C332.542 207.777 332.79 207.469 332.914 207.319C335.581 204.244 339.275 201.765 344.644 199.099L342.883 197.203C342.883 197.203 346.392 198.319 347.928 197.5C350.756 196.013 353.508 194.625 358.071 193.57C342.003 185.35 323.515 187.867 308.116 209.23C308.023 209.353 307.882 209.577 307.683 209.874C295.52 185.437 267.263 183.429 250.414 184.185C259.179 187.098 267.585 191.364 274.653 197.067C275.136 197.464 275.619 197.872 276.116 198.244C279.066 200.475 283.468 201.208 283.468 201.208L280.22 202.224C282.352 204.443 284.324 206.799 286.034 209.366C286.081 209.448 286.184 209.614 286.506 209.7C286.816 209.77 292.234 211.237 292.234 211.237L287.721 212.019C289.159 214.672 290.821 218.317 291.812 221.417C269.842 199.906 234.866 189.602 193.677 225.632C205.185 223.054 218.487 221.963 230.415 222.62C232.884 222.78 238.288 221.578 242.095 218.317L238.426 223.364C244.451 224.169 249.843 225.496 254.109 227.394C254.227 227.44 254.469 227.516 254.804 227.347C256.651 226.354 259.242 224.842 259.242 224.842L256.664 228.685C258.337 229.64 259.788 230.706 260.916 231.896C237.285 231.475 205.99 246.688 199.072 272.874C208.334 266.724 215.636 262.706 221.922 260.03C224.092 258.962 226.82 255.404 227.639 251.821L228.952 257.438C234.197 255.826 238.909 255.094 243.831 254.624C243.981 254.612 244.253 254.624 244.65 253.978C246.101 251.635 248.294 247.704 248.294 247.704L247.898 254.289C248.965 254.219 250.043 254.139 251.158 254.064C227.997 272.935 223.237 295.203 223.795 323.807C228.122 311.507 236.752 299.679 246.918 289.339C250.328 285.979 252.759 280.659 252.113 275.266L254.891 281.776C260.991 276.37 267.339 271.547 273.464 267.456C273.65 267.332 274.009 267.182 274.233 266.166C275.002 262.545 275.795 259.087 275.795 259.087L277.133 265.087C282.578 261.665 287.723 258.901 292.235 256.905C273.637 293.965 262.74 338.523 259.528 383.149C257.731 408.305 258.362 433.475 261.45 457.342C263.36 472.072 266.199 486.304 269.968 499.719C271.258 504.281 272.646 508.771 274.158 513.134L275.721 517.648L327.623 542.324Z" fill="#951A42"/>
<path fill-rule="evenodd" clip-rule="evenodd" d="M403.488 525.158C420.759 517.446 438.613 509.486 453.541 501.004C530.103 457.498 523.741 419.359 509.793 335.782C507.265 320.569 504.387 303.323 501.908 284.911C497.06 248.906 505.677 229.799 519.018 207.781L458.922 150.685H458.909C447.8 155.383 429.425 161.819 411.944 161.819C408.237 161.819 404.665 161.533 401.305 160.962C380.774 157.54 354.835 141.435 340.998 132H340.987C327.15 141.435 301.2 157.542 280.693 160.962C277.333 161.533 273.762 161.819 270.056 161.819C252.573 161.819 234.199 155.383 223.09 150.685H223.078L162.982 207.781C176.336 229.799 184.94 248.906 180.092 284.911C177.613 303.323 174.735 320.569 172.207 335.782C158.257 419.359 151.898 457.501 228.459 501.004C243.4 509.485 261.24 517.444 278.512 525.158C301.748 535.523 323.927 545.417 341.013 557.034C341.013 557.022 341.002 557.022 341.013 557.01V557.022C358.086 545.405 380.267 535.523 403.49 525.158M275.724 517.643C260.214 510.713 244.531 503.546 231.288 496.033C220.762 490.058 211.934 484.217 204.458 478.366C172.506 453.32 166.58 427.867 170.224 388.984C171.651 373.846 174.49 356.687 177.825 336.7C180.367 321.462 183.256 304.192 185.748 285.655C190.658 249.216 181.954 228.695 170.213 208.747L224.332 157.343C236.656 162.265 253.604 167.497 270.069 167.497C274.087 167.497 277.98 167.186 281.65 166.567C301.723 163.22 326.31 148.615 341.002 138.857C355.68 148.615 380.267 163.208 400.365 166.567C404.023 167.186 407.93 167.497 411.946 167.497C428.412 167.497 445.361 162.264 457.672 157.343L511.792 208.747C500.064 228.697 491.359 249.216 496.268 285.655C498.761 304.192 501.638 321.462 504.191 336.7C507.514 356.687 510.366 373.846 511.792 388.984C514.395 416.869 512.101 437.848 498.81 456.719C489.239 470.307 473.989 482.817 450.73 496.035C436.025 504.391 418.308 512.289 401.147 519.951C378.979 529.845 357.976 539.217 341.015 550.178C336.922 547.587 332.348 544.909 327.611 542.319L275.724 517.643Z" fill="#FCED00"/>
<path fill-rule="evenodd" clip-rule="evenodd" d="M396.852 382.267C392.474 382.144 388.097 382.018 383.696 381.92C388.097 382.025 392.474 382.144 396.852 382.267Z" fill="#951A42"/>
<path fill-rule="evenodd" clip-rule="evenodd" d="M445.209 253.91C462.926 253.91 477.283 239.554 477.283 221.835C477.283 204.118 462.926 189.76 445.209 189.76C427.491 189.76 413.134 204.117 413.134 221.835C413.134 239.554 427.491 253.91 445.209 253.91Z" fill="#FCED00"/>
<path fill-rule="evenodd" clip-rule="evenodd" d="M427.972 446.881L412.981 514.652C409.04 516.437 405.083 518.198 401.153 519.945C391.457 524.285 381.997 528.525 372.972 532.841L418.995 446.882V443.485C414.643 443.15 410.253 442.876 405.84 442.665V446.882L341.033 550.184C357.994 539.223 378.997 529.837 401.153 519.955C418.326 512.293 436.043 504.383 450.735 496.025C474.007 482.823 489.257 470.312 498.83 456.723C476.821 450.87 453.004 446.592 427.972 444.199V446.881Z" fill="#72BF44"/>
<path fill-rule="evenodd" clip-rule="evenodd" d="M396.852 442.247C392.499 442.111 388.097 442.059 383.696 442.036V446.884C383.696 446.884 383.684 446.884 383.684 446.896L309.305 509.618C309.875 510.896 310.471 512.173 311.065 513.437C313.024 517.591 315.119 521.695 317.339 525.724L396.85 446.882L396.852 442.247Z" fill="#72BF44"/>
<path fill-rule="evenodd" clip-rule="evenodd" d="M374.72 442.086C345.596 442.458 317.512 445.396 291.513 450.394C291.947 452.811 292.418 455.215 292.901 457.621C294.774 466.709 297.067 475.748 299.856 484.626L374.72 446.884V442.086Z" fill="#72BF44"/>
<path fill-rule="evenodd" clip-rule="evenodd" d="M204.471 478.381C211.936 484.233 220.777 490.061 231.303 496.036C244.532 503.562 260.215 510.73 275.726 517.66C268.448 514.399 261.133 511.102 254.054 507.728L269.986 499.719C266.215 486.304 263.376 472.083 261.467 457.342C240.762 463.008 221.457 470.122 204.471 478.381Z" fill="#72BF44"/>
<path fill-rule="evenodd" clip-rule="evenodd" d="M418.994 383.017C414.679 382.845 410.191 382.657 405.838 382.509V442.655C410.252 442.879 414.642 443.151 418.994 443.485V383.017Z" fill="#0072BC"/>
<path fill-rule="evenodd" clip-rule="evenodd" d="M396.852 382.267C392.474 382.144 388.097 382.018 383.696 381.92V442.041C388.097 442.064 392.498 442.11 396.852 442.251V382.267Z" fill="#0072BC"/>
<path fill-rule="evenodd" clip-rule="evenodd" d="M427.962 383.368V444.194C453.006 446.589 476.824 450.865 498.82 456.718C512.111 437.859 514.417 416.868 511.8 388.983C484.834 386.529 456.738 384.647 427.962 383.368Z" fill="#0072BC"/>
<path fill-rule="evenodd" clip-rule="evenodd" d="M445.208 189.757C462.926 189.757 477.283 204.115 477.283 221.833C477.283 239.55 462.926 253.907 445.208 253.907C427.491 253.907 413.134 239.55 413.134 221.833C413.134 204.115 427.491 189.757 445.208 189.757ZM374.724 381.776L374.735 321.73C374.735 321.024 375.306 320.453 376 320.453H378.021V318.432C378.021 317.738 378.592 317.156 379.299 317.156H423.388C424.096 317.156 424.665 317.737 424.665 318.432V320.453H426.686C427.381 320.453 427.951 321.024 427.951 321.73L427.964 383.376C456.74 384.653 484.836 386.537 511.802 388.993C510.376 373.853 507.525 356.707 504.201 336.709C501.661 321.471 498.772 304.199 496.28 285.663C491.369 249.223 500.074 228.704 511.802 208.755L457.695 157.35C445.371 162.272 428.422 167.504 411.957 167.504C407.939 167.504 404.048 167.195 400.377 166.574C380.279 163.214 355.693 148.621 341.013 138.864C326.333 148.621 301.734 163.227 281.661 166.574C278.004 167.193 274.099 167.504 270.081 167.504C253.627 167.504 236.667 162.272 224.355 157.35L170.236 208.755C181.964 228.705 190.669 249.223 185.758 285.663C183.266 304.199 180.39 321.471 177.835 336.709C174.513 356.707 171.66 373.853 170.236 388.993C198.951 386.376 228.818 384.43 259.554 383.152C262.754 338.53 273.652 293.97 292.262 256.909C287.736 258.904 282.591 261.669 277.149 265.092L275.809 259.09C275.809 259.09 275.015 262.55 274.246 266.17C274.022 267.188 273.675 267.335 273.491 267.46C267.353 271.551 261.006 276.387 254.906 281.78L252.128 275.283C252.774 280.664 250.343 285.982 246.933 289.342C236.779 299.683 228.137 311.512 223.81 323.81C223.252 295.208 228.014 272.94 251.173 254.07C250.071 254.139 248.98 254.217 247.913 254.292L248.311 247.709C248.311 247.709 246.116 251.652 244.678 253.983C244.268 254.627 243.996 254.616 243.848 254.627C238.925 255.099 234.227 255.831 228.982 257.442L227.655 251.827C226.837 255.409 224.109 258.979 221.939 260.047C215.653 262.725 208.363 266.729 199.088 272.879C206.02 246.693 237.302 231.493 260.946 231.901C259.805 230.711 258.354 229.645 256.68 228.69L259.272 224.847C259.272 224.847 256.667 226.371 254.821 227.351C254.486 227.538 254.238 227.444 254.127 227.397C249.862 225.501 244.467 224.174 238.456 223.368L242.113 218.322C238.306 221.583 232.9 222.785 230.433 222.624C218.519 221.968 205.215 223.059 193.709 225.637C234.896 189.607 269.862 199.909 291.832 221.422C290.839 218.322 289.179 214.678 287.74 212.023L292.254 211.242C292.254 211.242 286.848 209.791 286.526 209.705C286.215 209.624 286.116 209.456 286.054 209.37C284.343 206.803 282.372 204.447 280.238 202.227L283.499 201.211C283.499 201.211 279.086 200.479 276.134 198.247C275.639 197.875 275.168 197.467 274.671 197.07C267.605 191.379 259.199 187.102 250.433 184.188C267.295 183.433 295.54 185.44 307.703 209.878C307.9 209.594 308.05 209.358 308.136 209.234C323.535 187.871 342.023 185.354 358.091 193.574C353.528 194.628 350.776 196.016 347.961 197.504C346.411 198.324 342.914 197.206 342.914 197.206L344.662 199.102C339.295 201.769 335.599 204.261 332.934 207.323C332.811 207.484 332.562 207.782 331.868 207.757C329.971 207.688 328.334 207.56 328.334 207.56L331.272 209.531C329.562 212.134 328.358 215.172 327.392 219.041C365.567 208.898 388.368 219.898 396.551 231.34C391.331 228.835 384.091 228.612 376.615 229.467C374.184 229.753 369.808 228.724 367.105 226.592L370.452 230.397C364.984 231.402 359.665 232.816 355.189 234.179C354.955 234.237 354.37 234.34 353.851 234.075C351.098 232.76 347.712 230.95 347.712 230.95L351.667 235.277C346.51 236.964 343.113 238.327 343.113 238.327C392.075 253.143 389.769 287.822 387.599 307.003C382.527 295.534 379.663 295.348 372.597 286.744C369.461 282.887 367.526 276.268 369.261 272.399L365.939 279.243C360.819 273.985 355.463 269.535 350.206 265.853C349.982 265.692 349.487 265.17 349.363 264.29C348.817 260.533 348.37 256.442 348.37 256.442L346.721 263.522C342.37 260.707 338.588 258.637 334.732 256.875C334.533 256.794 334.125 256.603 333.975 255.896C333.48 253.689 332.848 250.603 332.848 250.603L332.004 255.673C330.603 255.091 329.24 254.558 327.95 254.098C345.891 278.524 343.832 320.753 327.857 342.971C330.188 330.944 327.721 314.69 323.456 299.166C322.649 296.316 323.642 291.653 326.208 288.628L321.458 292.397C319.748 286.893 317.839 281.61 315.905 276.726C315.669 276.118 315.788 275.696 315.858 275.474C317.135 271.481 319.516 265.494 319.516 265.494L313.936 271.928C312.398 268.358 310.886 265.12 309.436 262.295C308.208 265.097 307.017 267.911 305.926 270.75C301.19 283.037 297.57 295.733 294.706 308.578C291.518 322.948 289.3 337.529 287.911 352.184C286.956 362.178 286.411 372.209 286.25 382.239C309.584 381.198 358.757 381.37 374.737 381.767" fill="#00C0F3"/>
<path fill-rule="evenodd" clip-rule="evenodd" d="M418.992 323.86H405.838V382.516C410.189 382.654 414.679 382.851 418.992 383.012V323.86Z" fill="#00C0F3"/>
<path fill-rule="evenodd" clip-rule="evenodd" d="M396.85 323.86H383.696V381.91C388.097 382.015 392.474 382.132 396.85 382.257V323.86Z" fill="#00C0F3"/>
<path fill-rule="evenodd" clip-rule="evenodd" d="M423.597 447.991C421.241 447.991 418.998 446.889 418.998 446.889L372.974 532.835C381.989 528.52 391.449 524.28 401.157 519.953C405.087 518.193 409.042 516.432 412.985 514.647L427.974 446.875V446.887C427.974 446.887 425.965 447.991 423.597 447.991Z" fill="#5EA14D"/>
<path fill-rule="evenodd" clip-rule="evenodd" d="M379.113 447.991C376.757 447.991 374.725 446.889 374.725 446.889L299.861 484.617C302.539 493.136 305.664 501.504 309.31 509.613L383.689 446.891C383.553 446.949 381.408 447.993 379.113 447.993" fill="#5EA14D"/>
<path fill-rule="evenodd" clip-rule="evenodd" d="M405.839 446.88C405.816 446.892 403.807 447.984 401.451 447.984C399.107 447.984 396.85 446.88 396.85 446.88L317.352 525.709C319.645 529.863 322.076 533.943 324.668 537.922C325.622 539.398 326.6 540.861 327.629 542.324C332.366 544.915 336.942 547.582 341.033 550.185L405.839 446.88Z" fill="#5EA14D"/>
<path fill-rule="evenodd" clip-rule="evenodd" d="M275.732 517.65L274.17 513.138C272.671 508.761 271.281 504.285 269.991 499.709L254.047 507.72C261.138 511.092 268.454 514.389 275.732 517.65Z" fill="#5EA14D"/>
<path fill-rule="evenodd" clip-rule="evenodd" d="M374.728 381.766C358.748 381.369 309.562 381.196 286.242 382.239C286.147 387.818 286.184 393.409 286.323 398.976C286.818 416.21 288.455 433.419 291.518 450.38C317.505 445.385 345.6 442.459 374.725 442.074L374.728 381.766Z" fill="#0072BC"/>
<path fill-rule="evenodd" clip-rule="evenodd" d="M204.471 478.382C221.457 470.125 240.763 463.007 261.469 457.341C258.381 433.487 257.736 408.304 259.546 383.147C228.809 384.426 198.942 386.383 170.239 389C166.595 427.869 172.507 453.325 204.471 478.382Z" fill="#0072BC"/>
<path fill-rule="evenodd" clip-rule="evenodd" d="M405.839 446.88V323.86H418.995V446.88C418.995 446.88 421.251 447.996 423.594 447.996C425.963 447.996 427.971 446.88 427.971 446.88V444.202L427.959 383.376V321.729C427.959 321.022 427.388 320.453 426.681 320.453H424.66V318.432C424.66 317.725 424.09 317.155 423.383 317.155H379.308C378.6 317.155 378.029 317.725 378.029 318.432V320.453H376.009C375.301 320.453 374.732 321.024 374.732 321.729V381.764L374.719 442.084V446.882C374.719 446.882 376.752 447.998 379.108 447.998C381.401 447.998 383.56 446.955 383.682 446.882H383.696V323.86H396.85V446.882C396.85 446.882 399.108 447.998 401.451 447.998C403.793 447.998 405.802 446.905 405.841 446.882L405.839 446.88Z" fill="#FCED00"/>
</g>
<defs>
<clipPath id="clip0_148_54">
<rect width="682" height="682" fill="white"/>
</clipPath>
</defs>
</svg>
