<svg xmlns="http://www.w3.org/2000/svg" width="600" height="600" fill="none"><mask id="mask0_350_82" width="600" height="600" x="0" y="0" maskUnits="userSpaceOnUse" style="mask-type:alpha"><circle cx="300" cy="300" r="300" fill="#D9D9D9"/></mask><g clip-path="url(#clip0_350_82)" mask="url(#mask0_350_82)"><path fill="#1EB53A" d="M-139-8h912v608h-912"/><path fill="#000" d="M-139 194.667h912v202.666h-912"/><path fill="#0093CD" d="M-139-8v202.728h912V-8"/><path fill="#1EB53A" d="M329 192.993V-12.528c25.443 11.466-19.366-20.943 0 0-25.443-11.465-66.872-16.077-94.518-16.32-27.646-.242-55.071 5.303-80.711 16.32s-48.992 27.29-68.723 47.89c-19.73 20.6-35.454 45.123-46.272 72.17C27.96 134.578 22.258 163.618 22 192.993l210.518 1.848L329 192.993Z"/><path fill="#00A3DD" d="M88 194h246V-8"/><path fill="#FCD116" d="M4.933 162.226 287.16-1.049 333.5 1.5V63l-222 131.5H19L4.933 162.226Z"/><path fill="#000" d="M12.745 176.52 319.055-.09 333.5 1.5V43L79.397 195.988 9.27 203.886l3.476-27.366Z"/></g><defs><clipPath id="clip0_350_82"><path fill="#fff" d="M-139-8h912v608h-912z"/></clipPath></defs></svg>