<?xml version="1.0" encoding="utf-8"?>
<!-- Generator: Adobe Illustrator 23.0.1, SVG Export Plug-In . SVG Version: 6.00 Build 0)  -->
<!DOCTYPE svg PUBLIC "-//W3C//DTD SVG 1.1//EN" "http://www.w3.org/Graphics/SVG/1.1/DTD/svg11.dtd" [
	<!ENTITY ns_extend "http://ns.adobe.com/Extensibility/1.0/">
	<!ENTITY ns_ai "http://ns.adobe.com/AdobeIllustrator/10.0/">
	<!ENTITY ns_graphs "http://ns.adobe.com/Graphs/1.0/">
	<!ENTITY ns_vars "http://ns.adobe.com/Variables/1.0/">
	<!ENTITY ns_imrep "http://ns.adobe.com/ImageReplacement/1.0/">
	<!ENTITY ns_sfw "http://ns.adobe.com/SaveForWeb/1.0/">
	<!ENTITY ns_custom "http://ns.adobe.com/GenericCustomNamespace/1.0/">
	<!ENTITY ns_adobe_xpath "http://ns.adobe.com/XPath/1.0/">
]>
<svg version="1.1" id="YouTube_Icon" xmlns:x="&ns_extend;" xmlns:i="&ns_ai;" xmlns:graph="&ns_graphs;"
	 xmlns="http://www.w3.org/2000/svg" xmlns:xlink="http://www.w3.org/1999/xlink" x="0px" y="0px" viewBox="0 0 1026.2 718.5"
	 style="enable-background:new 0 0 1026.2 718.5;" xml:space="preserve">
<style type="text/css">
	.st0{fill:#BFC1C2;}
	.st1{clip-path:url(#path7_2_);fill:url(#SVGID_1_);}
	.st2{fill:#A1A1A1;}
</style>
<metadata>
	<sfw  xmlns="&ns_sfw;">
		<slices></slices>
		<sliceSourceBounds  bottomLeftOrigin="true" height="752.5" width="1088.6" x="121.8" y="-998.5"></sliceSourceBounds>
	</sfw>
</metadata>
<g>
	<path id="path7" class="st0" d="M1005.1,112.4c-11.8-44-46.5-78.6-90.4-90.4C834.3,0,513.1,0,513.1,0S191.9,0,111.6,21.1
		C68.5,33,33,68.5,21.1,112.4C0,192.7,0,359.3,0,359.3s0,167.4,21.1,246.8c11.8,44,46.5,78.6,90.4,90.4c81.1,22,401.5,22,401.5,22
		s321.2,0,401.5-21.1c44-11.8,78.6-46.5,90.4-90.4c21.1-80.3,21.1-246.8,21.1-246.8S1027,192.7,1005.1,112.4z"/>
	<g>
		<defs>
			<path id="path7_1_" d="M1005.1,112.4c-11.8-44-46.5-78.6-90.4-90.4C834.3,0,513.1,0,513.1,0S191.9,0,111.6,21.1
				C68.5,33,33,68.5,21.1,112.4C0,192.7,0,359.3,0,359.3s0,167.4,21.1,246.8c11.8,44,46.5,78.6,90.4,90.4c81.1,22,401.5,22,401.5,22
				s321.2,0,401.5-21.1c44-11.8,78.6-46.5,90.4-90.4c21.1-80.3,21.1-246.8,21.1-246.8S1027,192.7,1005.1,112.4z"/>
		</defs>
		<clipPath id="path7_2_">
			<use xlink:href="#path7_1_"  style="overflow:visible;"/>
		</clipPath>
		<linearGradient id="SVGID_1_" gradientUnits="userSpaceOnUse" x1="502.7485" y1="394.5836" x2="1044.291" y2="332.8826">
			<stop  offset="0" style="stop-color:#F4F4F4;stop-opacity:0"/>
			<stop  offset="0.5" style="stop-color:#F4F4F4"/>
			<stop  offset="1" style="stop-color:#F4F4F4;stop-opacity:0"/>
		</linearGradient>
		<polygon class="st1" points="542.1,740 458.1,-12.5 1004.9,-12.5 1088.6,740 		"/>
	</g>
	<polygon id="polygon9" class="st2" points="677.9,359.3 410.8,205.4 410.8,513.1 	"/>
</g>
</svg>
