<svg xmlns="http://www.w3.org/2000/svg" width="640" height="480" fill="none"><g clip-path="url(#a)"><mask id="b" width="642" height="480" x="-1" y="0" maskUnits="userSpaceOnUse" style="mask-type:luminance"><path fill="#fff" d="M-.025 0h640.031v480H-.025V0Z"/></mask><g fill-rule="evenodd" clip-rule="evenodd" mask="url(#b)"><path fill="#000001" d="M-120.025 0h960v160.031h-960V0Z"/><path fill="#fff" d="M0 0h640v480H0V0Z"/></g><path fill="#000" d="M501.848 329.783c12.946-5.309 25.848-10.694 38.798-15.992-.684 1.959-1.581 4.2-3.88 5.189-11.938 4.877-23.852 9.795-35.785 14.669-.787.336-1.568.702-2.426.88.787-1.341 1.529-2.699 2.287-4.049.161-.377.616-.528 1.006-.697Zm-40.313-18.456c2.788 1.808 5.321 3.874 7.099 6.101 3.289 4.292 4.138 9.857 2.096 14.686-.177.396-.552.691-.871 1.008.632-2.672.819-5.503-.171-8.128-1.358-3.814-4.431-7.017-8.534-8.891.07-1.668.279-3.351.381-4.776Zm-106.806-2.323c1.735-1.243 4.145-1.363 6.316-1.361 2.18.129 4.486.211 6.408 1.197.91.896.045 1.956-.886 2.519-3.781 2.312-7.945 4.317-11.012 7.353-.832.784-.4 2.005.652 2.464 1.59.675 3.431.708 5.179.67 4.151-.192 8.138-1.522 11.611-3.418.968-.522 1.836-1.172 2.835-1.656a43.685 43.685 0 0 1-7.202 5.973c-2.238 1.423-4.76 2.658-7.56 3.03-2.203.158-4.574.068-6.477-.987-2.119-1.063-3.112-3.442-2.328-5.407.474-1.104 1.351-2.038 2.273-2.899 2.381-2.136 5.29-3.77 8.193-5.347-1.967-.079-3.961-.169-5.915.033-1.278.109-2.136.921-3.042 1.579-.274-1.281-.28-2.8.955-3.743Zm-77.901-3.216c1.726-.716 4.106-.612 5.467.634 1.138 1.142 1.261 2.713 1.177 4.142-.913 1.03-1.964 1.978-2.729 3.101-1.599.252-3.28.03-4.844.429-.787.388-1.816.623-2.193 1.404-.494 1.009-.265 2.129-.055 3.172.813 3.645 2.316 7.227 2.238 10.981-.087 1.317-.19 2.683-.925 3.874-.171-2.087-1.039-4.06-1.668-6.068-1.187-3.658-2.129-7.412-2.267-11.215-.155-1.465.838-2.725 1.841-3.828 1.481-1.754 4.135-2.268 6.493-2.648-.613-.478-1.307-1.03-2.213-.923-1.267.155-2.125 1.054-2.822 1.882-.126-1.827.465-3.986 2.5-4.937Zm112.972-.707c.113-.099.261-.137.445-.112-.671.65-1.039 1.47-1.555 2.207-1.467 2.35-3.164 4.845-2.774 7.61.042 1.297.903 2.975 2.693 2.964.875-.369 1.1-1.314 1.539-1.994-.055 2.024-.406 4.483-2.651 5.641-1.864-.254-3.264-1.655-3.338-3.237-.381-4.784 1.983-9.503 5.641-13.079ZM55.41 278.127c1.068-1.612 2.071-3.369 3.939-4.434-2.267 3.877-4.625 7.806-5.615 12.087-.33 1.637-.494 3.527.754 4.934.97.883 2.529 1.044 3.858.771 2.016-.377 2.954-2.164 3.786-3.582.639 1.057-.022 2.199-.316 3.254-.835 2.232-1.832 4.65-4.138 6.101-1.77 1.147-4.309.688-6.012-.323-2.245-1.486-2.296-4.183-1.903-6.366.887-4.417 3.18-8.518 5.648-12.442Zm164.356-17.295c.658-1.06 1.949-2.317 3.532-1.787 1.903.487 4.167 1.765 3.864 3.683-.509.653-1.164 1.213-1.742 1.823-.616-.989-1.306-2.254-2.751-2.465-1.88.522-3.006 2.12-3.599 3.642-1.248 3.325-1.526 6.836-1.874 10.292-.455.205-.91.407-1.374.593.013-3.18-.803-6.557-3.322-9.022-.571-.817-1.839-.407-2.697-.8-1.599-.486-2.18-1.965-2.567-3.23-.194-.855-.539-1.882.135-2.644 1.416-.345 2.526.707 3.535 1.371 2.6 2.093 4.396 4.787 5.867 7.53.619-3.063 1.274-6.204 2.993-8.986Zm270.436-8.393c1.967-.574 4.038.18 5.647 1.142 2.687 1.683 4.783 3.969 6.403 6.426.864 1.423 1.851 2.983 1.502 4.639-.206 1.115-.309 2.311-1.096 3.262-.871.913-2.506.82-3.603.276-1.251-.601-2.445-1.286-3.754-1.795-1.771 4.077-5.502 7.287-9.547 9.834-2.739 1.776-5.742 3.235-8.783 4.598-1.877.858-3.954 1.317-5.967 1.874-2.009.484-4.054 1.121-6.176.943 1.338-.065 2.396-.801 3.525-1.325 5.883-2.899 11.646-6.017 16.881-9.713 2.78-2.038 5.622-4.161 7.496-6.877a54.68 54.68 0 0 0-3.645-.552c-.984-2.424-.993-5.388 1.129-7.393-1.058-.689-1.181-1.937-1.358-2.976-.151-.904.207-2.052 1.346-2.363Zm5.276 6.003c.4 1.795.519 3.625.552 5.45 1.657.203 3.306.76 4.996.599.861-.107.829-1.066.351-1.522-1.571-1.833-3.751-3.213-5.899-4.527Zm-5.615 2.929c.848 1.33 2.77 1.669 4.341 2.095.323-.858.739-1.756.581-2.666-.568-.94-1.339-2.17-2.764-2.164-1.233.535-1.72 1.705-2.158 2.735Zm-108.816-11.462c.977-1.071 2.632-1.593 4.193-1.634 1.083-.008 1.609.978 1.857 1.73.471 1.773.555 3.702-.464 5.355.529.325 1.061.656 1.603.978a33.72 33.72 0 0 0-.268 3.418c-1.077-.489-1.906-1.268-2.829-1.923-2.87 4.194-7.066 7.83-12.294 9.885-2.764 1.18-5.929 1.697-9.006 1.372 5.828-1.765 11.489-4.312 15.717-8.219a24.354 24.354 0 0 0 3.764-4.404c-.819-.741-1.8-1.375-2.438-2.241-.509-1.385-.884-3.041.165-4.317Zm1.599 1.366c.423 1.014 1.232 1.85 2.074 2.637.355-.877.819-1.831.3-2.732-.796-.131-1.596-.057-2.374.095ZM55.749 262.254c11.695-6.221 23.439-12.385 35.156-18.574-.335 2.161-1.21 4.661-3.667 5.743-10.847 5.697-21.72 11.361-32.55 17.077-.28.126-.574.229-.88.309.69-1.506 1.215-3.066 1.94-4.555Zm244.846-32.864a22.29 22.29 0 0 1 3.054-3.101c-.839 1.612-.339 3.372.052 5.02.441 1.803 1.038 3.573 1.706 5.327.468 1.323 2.258 1.787 3.69 2.047.858.232 1.909-.309 1.577-1.14-.791-2.142-1.8-4.221-2.955-6.237.41-1.353.874-2.692 1.268-4.047.542 0 1.09.006 1.642.011.474 2.506 1.883 4.779 3.18 7.03.003 2.435-.168 4.973-1.187 7.282-.681 1.636-2.958 2.144-4.796 2.013-2.442-.399-4.061-2.183-5.493-3.751-.713 2.057-2.729 3.653-5.115 4.298-2.02.628-4.348-.284-5.432-1.793-1.187-1.672-1.413-3.691-1.358-5.603.107-2.735.733-5.924 3.629-7.566l.813.002c-.129.049-.394.145-.523.194a8.697 8.697 0 0 0-.306 8.97c.455.888 1.606 1.527 2.771 1.32 1.451-.298 2.599-1.172 3.589-2.074.036-2.735.023-5.472.194-8.202Zm-230.747-5.713c2.626-.481 5.016.91 6.883 2.306 2.5 2.069 4.584 4.533 5.903 7.285.4.83.577 1.737.429 2.631-.19 1.186-.3 2.486-1.19 3.472-1.046.817-2.694.64-3.803.011a28.012 28.012 0 0 0-3.455-1.642c-1.8 4.036-5.476 7.227-9.486 9.774-3.147 2.016-6.58 3.71-10.127 5.166a78.302 78.302 0 0 1-7.78 2.077c-1.051.243-2.145.219-3.222.194.632-.126 1.306-.167 1.883-.443 5.774-2.762 11.405-5.759 16.653-9.196 3.545-2.418 7.064-4.978 9.579-8.227-1.223-.235-2.451-.456-3.7-.557-.983-2.429-1.013-5.386 1.061-7.424-1-.74-1.145-1.959-1.325-3.003-.19-1.011.42-2.21 1.697-2.423m4.902 6.046c.465 1.811.51 3.672.597 5.516 1.748.167 3.509.869 5.27.503.816-.388.242-1.276-.184-1.729-1.61-1.675-3.648-3.011-5.683-4.29Zm-4.293.779c-.574.721-1.241 1.552-1.151 2.461 1.016 1.082 2.732 1.533 4.283 1.771.152-.519.332-1.027.452-1.549.425-1.06-.542-2.011-1.316-2.749-.578-.593-1.768-.612-2.268.066Zm194.748-8.916c1.713 1.211 2.754 2.951 3.912 4.539 2.964 4.418 5.49 9.035 7.935 13.671 5.364 9.953 8.892 20.58 10.834 31.385.548 3.35 1.11 6.719.997 10.112.326 6.735 1.27 13.62 4.589 19.82 2.442 4.211 6.595 7.948 9.847 10.68 1.55.907 2.206.693 2.615.323.252-.229.153-3.183.669-4.571.735-2.279 2.419-4.219 4.209-5.987 2.003-1.858 4.27-3.562 6.947-4.685 5.361-2.304 10.918-4.263 16.53-6.077 4.225-1.328 8.522-2.506 12.915-3.361-18.855.112-37.711.244-56.567.427.942-3.88 1.9-7.757 2.871-11.631 2-2.224 4.516-4.052 6.999-5.869 10.812-7.557 23.293-13.15 35.934-18.159-1.48-1.964-3.538-3.795-3.864-6.207-.764-3.388.897-6.738 2.987-9.558 1.238-1.601 2.396-3.35 4.302-4.451 1.913-1.123 4.501-1.197 6.593-.399 7.009 2.666 14.239 7.36 19.584 11.574.536.459 1.223.855 1.558 1.454-1.258 3.451-2.586 6.888-3.806 10.353-5.573 1.054-11.175 2.062-16.607 3.579.552 2.915 1.535 6.095.058 8.921-.516-.06-1.216-.137-1.303-.672-.21-2.451-1.603-4.681-3.035-6.768-6.931 2.311-13.847 4.702-20.381 7.743-5.267 2.478-10.608 5.167-14.51 9.131 28.989.009 57.981.009 86.972 0-1.858 3.459-3.845 6.872-5.738 10.317-18.981 3.918-37.927 8.106-56.34 13.675-7.728 2.399-15.45 5.038-22.303 8.951-.71.459-1.12 1.306-.603 1.994 1.064 1.385 3.006 1.956 4.634 2.746 3.542 1.661 7.467 2.565 11.324 3.536 2.765.691 5.529 1.379 8.289 2.079-.229 4.144-.267 8.301-.564 12.44-2.261 0-4.568-.339-6.841-.508-4.455-.448-8.977-.749-13.273-1.907-5.851-1.569-11.121-4.547-15.249-8.378-4.532-4.131-7.809-9.144-10.157-14.399-3.206-7.281-4.993-16.2-5.613-23.935-.283-.033-.352 1.507-.626 1.482-.803 3.41-1.747 6.437-3.092 9.726-.255.782-.932 1.378-1.529 1.984-4.316 4.246-8.918 8.282-13.73 12.12-4.925 3.888-10.06 7.609-15.608 10.85-5.834 3.391-12.146 6.44-19.126 7.721-3.751.659-8.015.785-11.302-1.139-3.67-2.126-5.46-5.819-6.428-9.361-3.344 2.151-6.715 4.271-10.16 6.307-3.109 1.767-6.205 3.636-9.766 4.702-8.903 2.8-18.165 4.636-27.381 6.53-6.608 1.268-13.22 2.538-19.874 3.623 6.164-2.965 12.424-5.795 18.561-8.801 16.653-8.07 33.057-16.551 48.716-25.951 2.135-8.664 5.583-17.38 12.262-24.333l.339-.079c-.532.959-.787 2.011-1.335 2.964-4.026 5.973-6.886 12.574-7.9 19.412 7.128-4.39 14.085-8.994 20.633-14 4.044-3.071 7.844-6.372 11.314-9.912.955-1.003 2.252-1.863 2.613-3.18.158-.857.069-1.386-.506-3.163-4.048-9.477-9.793-21.302-13.608-29.635 1.306-4.21 2.516-8.442 3.835-12.65 1.758.981 2.903 2.522 4.154 3.915 2.555 3.178 4.958 6.445 7.115 9.83 1.207 1.861 1.436 4.022 1.878 6.077-1.732-1.32-2.939-3.109-4.861-4.238.084.301.2.593.351.88 3.042 5.085 5.122 10.563 6.471 16.142.832 3.314 1.193 6.713.961 10.101-.174 3.673-.765 7.435-2.755 10.749-1.767 2.942-4.144 5.579-6.628 8.109-8.418 8.368-18.285 15.582-28.305 22.527.013.405.555.514.877.735 3.587 1.896 8.074 1.705 12.079 1.115 3.019-.593 6.128-1.044 8.892-2.295 7.254-3.216 13.579-7.7 19.685-12.268 8.005-6.172 15.546-12.77 22.738-19.617a1219.367 1219.367 0 0 0-7.441-21.612c-1.38-3.754-2.664-7.541-4.315-11.216-2.738-4.847-5.37-9.751-7.757-14.727.964-3.8 2.176-7.56 3.205-11.352m72.96 19.549c-.877.295-1.612 1.115-1.245 1.937.136.623.939.839 1.361 1.301a65.927 65.927 0 0 1 4.951 5.412c3.816-1.175 7.69-2.194 11.541-3.273-2.868-2.32-6.051-4.527-9.877-5.576a11.25 11.25 0 0 0-6.731.199Zm84.41-4.994c11.75-6.164 23.436-12.413 35.201-18.552-.332 1.915-.98 4.013-2.838 5.276-11.392 6.019-22.848 11.956-34.237 17.986.487-1.607 1.255-3.139 1.874-4.71Zm-59.281-23.235c1.087-.533 2.68-.495 3.415.478 1.013 1.295 1.284 2.989.736 4.475-1.036 2.948-3.323 5.454-5.816 7.634-3.031 2.508-6.66 4.82-10.95 5.385.719-.754 1.771-1.172 2.697-1.713 2.657-1.516 5.215-3.188 7.447-5.142 1.171-1.147 2.438-2.388 2.648-3.959.081-1.317-1.329-2.442-2.767-2.661-2.097.314-3.403 1.85-4.945 2.929-.368-.954.616-1.623 1.197-2.322 1.848-1.902 3.709-3.943 6.338-5.104Zm-153.04-6.383c3.593-1.877 7.115-3.86 10.753-5.674-.358 1.937-1.1 4.18-3.322 5.144-7.947 4.121-15.807 8.363-23.784 12.44.891-1.543 1.768-3.103 2.748-4.606 4.497-2.481 9.077-4.864 13.605-7.304Zm346.107-12.068c5.238 2.987 9.557 7.249 11.895 12.241 2.303 4.839 2.284 10.331.429 15.273-.251.571-.79 1-1.241 1.459.806-3.355 1.083-6.877-.039-10.205-1.587-5.273-6.125-9.653-11.643-12.303.274-2.15.335-4.314.599-6.465Zm-126.22 2.167c.9-.932 1.778-1.88 2.765-2.746-.939 1.858-.223 3.877.222 5.76.506 1.724.993 3.464 1.761 5.12.958 1.063 2.639 1.603 4.187 1.563a.866.866 0 0 0 .812-1.227c-.758-2.077-1.741-4.093-2.861-6.047.216-1.434.845-2.814 1.287-4.213.536.041 1.081.08 1.629.126.358 2.544 1.929 4.798 3.161 7.082-.052 1.839-.203 3.688-.623 5.497-.316 1.26-.867 2.719-2.37 3.287-1.281.421-2.781.656-4.074.147-1.9-.713-3.248-2.117-4.416-3.521-.738 1.986-2.615 3.56-4.918 4.256-1.894.738-4.196-.035-5.396-1.385-1.378-1.593-1.619-3.645-1.642-5.56.077-1.839.248-3.732 1.183-5.421.607-1.134 1.545-2.248 2.987-2.672-1.922 2.692-2.135 6.142-.716 9.033.41.82 1.251 1.612 2.374 1.639 1.706-.073 3.032-1.114 4.161-2.101-.026-2.347.096-4.688.1-7.035.081-.53-.109-1.167.387-1.582Zm-284.621-19.049c4.286 2.352 7.698 5.932 9.33 10.049 1.326 3.328 1.232 6.989.052 10.336-.158.544-.642.951-1.074 1.35.87-3.158.777-6.582-.784-9.579-1.59-3.095-4.506-5.647-7.96-7.298.187-1.617.281-3.24.435-4.857l.001-.001Zm138.34-3.514c.971-1.019 1.838-2.191 3.129-2.934-.852 1.096-.494 2.448-.291 3.656.478 2.254 1.187 4.472 2.026 6.65.264.91 1.371 1.298 2.283 1.648.826.262 1.819.505 2.658.155.529-.393.281-1.065.094-1.552-.807-1.907-1.632-3.819-2.768-5.606l1.303-4.159c.568.039 1.136.072 1.713.101.261 2.561 1.922 4.796 3.119 7.093-.042 1.959-.21 3.935-.71 5.853-.284 1.131-.9 2.325-2.161 2.893-1.448.487-3.174.713-4.589.039-1.642-.798-2.955-2.014-3.984-3.342-.825 2.036-2.809 3.648-5.218 4.312-1.658.527-3.629-.036-4.761-1.148-1.442-1.268-1.829-3.104-1.967-4.795-.113-2.175.093-4.418 1.096-6.443a5.81 5.81 0 0 1 2.958-2.781c-1.332 2.241-2.016 4.847-1.271 7.322.329 1.298.878 2.954 2.584 3.361 1.841.199 3.306-.986 4.493-2.014.222-2.765.083-5.547.264-8.309Zm142.622-3.502c6.203-2.274 12.405-4.569 18.75-6.536-.194 1.221-.716 2.615-2.119 3.197-9.008 3.257-18.053 6.459-26.871 10.076-1.751.819-3.551 1.661-4.915 2.923.974.91 2.432 1.252 3.748 1.661-.016.883-.013 1.765-.013 2.651-1.864-.383-3.732-.959-5.177-2.06.084-1.255.058-2.517.261-3.763.21-1.131 1.574-1.664 2.561-2.278 4.371-2.306 9.102-4.063 13.775-5.871Zm-279.109-11 .255.216c-.562.604-.274 1.401-.184 2.096a23.183 23.183 0 0 0 1.351 4.404c.2.639.984.945 1.651 1.158.584.104 1.529.347 1.771-.314-.4-1.549-1.361-2.932-1.955-4.418.281-.858.413-1.779.894-2.574.322.006.651.017.98.036.323 1.666 1.345 3.134 2.08 4.672-.041 1.582-.1 3.224-.803 4.71-.438 1.006-1.835 1.274-2.957 1.26-1.642-.197-2.719-1.372-3.69-2.393-.626 1.491-2.226 2.658-4.09 2.863-1.568.068-2.896-1.003-3.309-2.224-.545-1.615-.484-3.35-.042-4.975.345-1.137 1.019-2.367 2.406-2.804-1.093 1.566-1.364 3.492-.751 5.238.238.721.68 1.625 1.687 1.729 1.115.017 1.945-.705 2.741-1.265.206-1.787-.042-3.59.219-5.374.404-.768 1.21-1.336 1.746-2.041Zm51.399-3.079c.683.155 1.177.628 1.741.964 3.419 2.385 6.267 5.486 7.625 9.09 1.271 3.263 1.193 6.845.061 10.126-.155.568-.58 1.028-.955 1.503-.029-.06-.087-.183-.119-.243.826-3.033.703-6.298-.738-9.184-1.558-3.161-4.477-5.778-7.999-7.426.09-1.612.238-3.224.384-4.83Zm31.017-2.814c.868-1.79 3.142-3.293 5.513-2.949 1.183.216 2.012 1.099 2.435 2.014.829 1.885.951 3.94.661 5.924 1.454 1.475 3.035 2.97 3.644 4.882 1.129 2.516.119 5.202-.842 7.631-1.228 3.214-3.564 6.131-3.999 9.547-.152.844.232 1.765 1.251 2.057 1.639-.41 1.894-2.06 2.229-3.262.513-.104 1.316-.15 1.493.399.281 1.519-.506 2.981-1.141 4.366-.574 1.052-1.371 2.295-2.845 2.53-1.178.183-2.077-.691-2.548-1.492-1.342-2.306-.919-5.041.203-7.344 1.748-3.669 4.057-7.363 3.845-11.435.006-1.729-.852-3.379-2.223-4.639-2.048 4.686-5.36 8.91-9.176 12.691-1.973 2.077-4.809 3.345-7.515 4.61-2.422 1.063-4.879 2.109-7.46 2.877 4.967-3.027 9.731-6.336 13.853-10.18 3.4-3.233 6.528-6.877 7.789-11.139l-.083-.241c-1.839-1.005-4.048-1.893-5.006-3.669-.406-1.011-.355-2.148-.078-3.178Zm1.842.514c-.474.259-.148.757.239.926a62.885 62.885 0 0 0 3.551 1.604c-.029-1.028.19-2.304-.871-3.036-.919-.65-2.177-.087-2.919.506Zm196.356-2.287c.62-.915 1.578-2.044 2.997-1.885 1.506.287 2.98.972 3.906 2.043.471.67.861 1.692.026 2.282-.439.363-.752.978-1.294 1.161-.758-.839-1.345-2.336-2.877-2.292-1.919.598-2.98 2.245-3.554 3.811-1.19 3.229-1.432 6.634-1.806 9.978-.381.334-.894.52-1.352.757 0-3.391-.929-7.022-3.796-9.527-1.38-.145-3.022-.284-3.796-1.418-.942-1.445-1.619-3.229-.968-4.858 1.462-.243 2.645.686 3.639 1.457 2.625 2.041 4.322 4.743 5.854 7.429.648-3.05 1.299-6.17 3.021-8.938Zm-373.478 1.101c.8-1.197 1.683-2.429 3.07-3.197-2.213 4.044-4.787 8.061-5.609 12.522-.258 1.459-.268 3.131.835 4.358 1.033 1.101 2.91 1.12 4.37.735 1.636-.554 2.397-2.041 3.162-3.279.342.009.413.35.577.555-.861 2.866-1.693 5.975-4.245 8.148-2.37 2.123-7.047 1.03-8.211-1.607-.845-1.896-.565-3.994-.068-5.929 1.22-4.355 3.528-8.429 6.118-12.306Zm222.45-4.544c4.251 2.462 7.737 6.014 9.363 10.189.806 2.191 1.103 4.527.79 6.812-.232 1.663-.545 3.39-1.645 4.822-.155-.437-.052-.885.045-1.32a12.365 12.365 0 0 0-1.913-9.751c-1.667-2.424-4.135-4.457-7.037-5.798.055-1.656.245-3.304.397-4.954Zm59.324-2.224c1.677.738 2.774 2.085 3.854 3.347 2.635 3.268 4.874 6.938 6.883 10.504.196.47.206 1.055.345 2.622-1.212-1.117-2.632-2.196-4.435-2.524-.319.598-.316 1.243-.045 1.855 2.342 6.084 4.99 12.085 7.257 18.191 1.445 3.981 2.713 8.07 2.761 12.262.1 3.89-.683 7.776-2.038 11.486-1.361 3.486-3.448 6.942-6.928 9.243-2.864 1.97-6.686 2.787-10.33 2.497-4.448-.281-8.661-2.098-11.747-4.798-1.648-1.33-2.987-2.901-4.242-4.502l.481-.096-.526.054c-2.786-3.978-4.854-8.319-6.047-12.836.106-.585-1.209-.536-1.077.046-1.7 6.588-4.413 13.085-8.903 18.697-2.622 3.224-6.015 6.101-10.224 7.803-4.587 1.834-9.989 1.954-14.818.779-4.851-1.186-8.695-4.432-10.779-8.256-3.019-5.481-3.48-11.686-3.148-17.645.649-4.815 2.068-9.522 3.455-14.213.467-1.443.883-2.995.28-4.459l-.767-.339c-.649.358-1.316.71-1.823 1.213-3.554 3.322-5.573 7.568-7.186 11.779a65.196 65.196 0 0 0-2.809 10.358c-.848 5.541-2.148 11.148-5.157 16.169-1.632 2.669-4.084 5.442-7.777 6.055-3.422.388-7.079-.522-9.586-2.566-3.07-2.432-4.415-5.967-5.225-9.366-1.29-6.101-.89-12.355-.08-18.481a102.944 102.944 0 0 1 2.28-11.238c.316-.024.635-.043.961-.06-1.277 6.26-2.158 12.615-1.935 18.978.2 3.626.703 7.32 2.441 10.675 1.181 2.298 3.184 4.437 5.967 5.427 2.629.907 5.873 1.071 8.335-.282 2.544-1.415 3.738-3.942 4.683-6.284 1.861-5.183 2.683-10.573 4.144-15.839 1.532-5.344 3.735-10.543 6.438-15.544 1.548-2.915 3.255-5.781 5.444-8.393 1.945-2.325 3.732-4.877 6.493-6.585l.819.035c.506 1.752-.09 3.566-.18 5.339-.171 2.929-1.429 5.68-2.152 8.519-.896 3.246-1.664 6.519-2.432 9.789-1.187 4.684-2.032 9.623-.538 14.334 1.128 3.694 4.138 6.954 8.202 8.637 2.641 1.177 5.605 1.776 8.579 1.866 4.18.358 8.551-.069 12.289-1.774 4.506-1.989 7.696-5.595 9.763-9.448a31.683 31.683 0 0 0 3.513-12.218c.045-8.342-.639-16.845-4.006-24.755-.429-1.092-.99-2.226-.745-3.399.532-3.215 1.8-6.311 3.286-9.292.094-.341.578-.366.868-.541 1.59 4.025 3.135 8.077 4.099 12.249 1.216 5.424 1.916 10.918 2.636 16.399.571 3.913.738 7.885 1.896 11.721.961 3.183 2.458 6.298 4.809 8.935 2.858 3.363 7.147 5.86 11.918 6.814 4.083.803 8.444-.23 11.879-2.161 1.806-1.044 3.68-2.804 3.08-4.795-5.718-12.744-10.421-25.792-15.094-38.828-.31-1.077-.9-2.107-.997-3.213.607-3.448 2.032-6.754 3.639-9.948l-.001.001Zm-159.782 10.711c1.955-3.738 3.906-7.478 5.902-11.2 3.861 7.524 7.003 15.311 9.357 23.27.277 1.609-.284 3.227-.216 4.844-1.348-2.027-2.897-3.953-4.309-5.948.364 3.651 1.025 7.282 1.425 10.932 2.703 21.56 5.08 43.15 7.109 64.765 2.325-1.426 4.099-3.473 5.096-5.749 1.3-2.563 2.703-5.112 4.602-7.401.713-.823 1.655-1.878 3.035-1.623.781.038 1.152.748 1.229 1.325.346 2.03-1.467 3.781-1.158 5.795.084 1.653 1.61 3.071 3.422 3.571 3.135.959 6.541.53 9.757.145 1.451-.271 3.264-.503 3.97-1.779a70.445 70.445 0 0 0-2.545-6.066c1.358-2.931 2.909-5.8 4.325-8.716.365-.688.61-1.448 1.21-2.027 1.029 3.333 1.287 6.792 1.703 10.208.429 5.521-.616 11.254-3.867 16.112-1.752 2.486-4.367 4.746-7.78 5.464-2.974.604-6.241.328-8.938-.929-3.122-1.505-5.263-4.15-6.376-7-1.69 3.29-3.913 6.399-6.741 9.074.329 4.268.697 8.533.948 12.803.187 4.763-1.255 9.43-2.922 13.938-.809 1.937-1.606 3.885-2.606 5.759a112.052 112.052 0 0 1-34.737 31.347c-9.228 5.368-19.436 9.532-30.154 12.267-5.602 1.377-11.33 2.5-17.158 2.861-6.016.071-12.12-.588-17.743-2.456-5.277-1.743-9.886-4.918-12.844-9.022-10.392.91-20.845 1.41-31.296 1.432 9.321-2.831 18.55-5.888 27.622-9.255-2.422-10.008-.42-20.328 2.61-30.076 1.854-5.91 4.046-11.778 6.733-17.45 2.035-4.538 2.837-6.625 6.726-11.979-4.074 6.091-4.667 8.598-6.488 12.915-2.452 6.648-4.214 13.51-4.733 20.464-.513 7.645.135 15.672 4.34 22.591 11.183-4.429 22.069-9.408 32.506-14.992 8.85-4.803 17.401-10.044 25.171-16.052 3.683-2.885 7.263-5.896 10.288-9.295.894-.89.458-2.161.168-3.175-.674-1.702-1.438-3.377-2.216-5.043-5.289 1.814-10.924 3.057-16.661 3.035-3.129.077-6.348-.429-9.045-1.825-2.312-1.208-4.028-3.191-4.725-5.415-.964-2.918-.545-5.998.033-8.94.916-4.26 2.767-8.519 6.286-11.743 2.47-2.251 5.741-3.983 9.367-4.437 4.099.016 7.959 1.71 10.885 4.063 3.725 2.992 6.267 6.871 8.222 10.852 3.648-1.8 7.154-3.932 9.87-6.699 2.664-2.347 5.405-4.743 8.808-6.32.848-.413 2.313-.869 2.877.095.616 1.432.029 3.006-.384 4.429-1.097 2.077.229 4.438 1.868 6.025 2.28 2.18 6.028 2.391 9.205 1.902-3.329-28.976-6.712-57.948-10.044-86.924-.067-.972-.564-1.86-.99-2.748m-45.329 88.972c-1.632.596-3.673 1.478-3.915 3.142.383 1.266 2.138 1.656 3.457 1.927 4.242.696 8.65.683 12.889-.022-.078-.129-.239-.383-.32-.511-2.209-2.12-5.025-3.946-8.373-4.481-1.229-.156-2.535-.454-3.738-.055Zm27.774 11.836c.438 5.904-.539 11.874-2.735 17.483-.848 1.948-1.555 4.011-3.155 5.634-7.866 8.907-18 16.183-28.679 22.571-9.515 5.614-19.562 10.595-30.063 14.756 1.793.741 3.676 1.336 5.634 1.689 5.245.986 10.66.456 15.914-.186 16.449-2.087 31.937-8.169 45.277-16.481 8.844-5.511 16.901-11.928 23.932-19.073 2.351-2.525 5.244-4.992 5.818-8.314-.561-5.637-1.303-11.26-1.922-16.893-3.657 1.243-8.186 1.535-11.505-.541-4.028-2.577-5.56-6.973-6.196-11.033-3.474 3.953-7.56 7.538-12.32 10.388Zm201.371-108.83c.913-1.284 1.784-2.702 3.342-3.511-2.265 3.841-4.574 7.748-5.593 11.989-.397 1.834-.532 4.066 1.245 5.44 1.032.426 2.222.68 3.348.344 2.058-.39 3.019-2.205 3.822-3.674.222.59.371 1.202.132 1.808-.732 2.552-1.706 5.224-3.909 7.156-2.48 2.251-7.483.956-8.428-1.929-.828-2.617-.071-5.361.839-7.891 1.323-3.388 3.154-6.62 5.202-9.732Zm-261.35 7.194c2.199-3.612 4.312-7.26 6.457-10.894 3.483 7.708 6.241 15.653 8.154 23.746.125 1.473-.349 2.94-.503 4.404-1.574-1.803-2.519-3.975-4.122-5.776.874 6.08 1.187 12.208 1.758 18.312.635 7.893 1.235 15.79 1.831 23.685 4.777-.677 9.07-3.068 11.954-6.33 4.338-4.886 6.263-11.033 6.808-17.049-.035-7.73-.522-15.593-3.389-22.992-.507-1.513-1.439-2.978-1.42-4.582.342-2.981 1.519-5.839 2.764-8.623.317-.65.523-1.478 1.452-1.672 1.416 3.708 2.88 7.413 3.822 11.232 1.461 5.984 2.167 12.076 2.98 18.142.542 3.672.703 7.405 1.8 11.003 1.422 4.839 4.306 9.555 9.054 12.631 3.57 2.295 8.131 3.866 12.672 3.257 3.203-.489 6.444-1.569 8.686-3.64 1.013-.918 1.71-2.262 1.277-3.519-4.586-10.003-8.331-20.262-12.117-30.497-1.293-3.56-2.564-7.128-3.832-10.694-.361-.904.11-1.836.284-2.729.797-2.727 1.829-5.429 3.255-7.964 1.551.631 2.557 1.879 3.57 3.008 3.054 3.727 5.489 7.787 7.728 11.899-.107.524-.21 1.052-.294 1.582-1.135-1.194-2.593-2.265-4.418-2.569-.291.585-.278 1.224-.026 1.817 2.032 5.205 4.199 10.372 6.267 15.566 1.757 4.631 3.87 11.363 3.751 14.24-.37 4.041-1.039 9.398-2.481 13.164-1.587 3.347-4.351 7.344-8.115 9.183-3.228 1.645-7.215 1.899-10.853 1.292-4.79-.811-8.898-3.434-11.84-6.664-4.135-4.552-6.674-10.021-8.176-15.584-.226.006-.678.022-.904.03-1.406 5.596-3.544 11.107-6.847 16.115-2.961 4.478-7.054 8.71-12.699 10.847.987 13.855 2.02 27.707 2.726 41.576.103 6.839-.223 13.675-.623 20.505-.006.929-.464 1.79-.806 2.659a212.501 212.501 0 0 1-3.522 8.841c-.197.489-.451.967-.816 1.388-.161-13.057-1.467-26.082-2.509-39.104-.945-11.467-1.89-22.934-2.809-34.401-4.519-.085-9.173-1.205-12.508-3.894-3.886-3.03-5.87-7.398-6.818-11.71-.839-3.82-1.016-7.735-.665-11.601.774-5.049 2.3-9.986 3.754-14.921.2-.882.346-1.808.11-2.696-.09-.323-.177-.705-.619-.796-.677-.073-1.18.356-1.638.703-2.536 2.076-4.193 4.762-5.642 7.45-2.744 5.555-4.36 11.476-5.24 17.44-.73 3.932-1.794 7.847-3.536 11.555-1.383 2.754-3.109 5.59-6.108 7.317-2.561 1.494-5.948 1.311-8.75.453-3.548-1.115-6.074-3.809-7.416-6.727-2.331-5.016-2.483-10.508-2.341-15.827.332-6.235 1.377-12.437 2.987-18.525.303-.054.61-.106.912-.155-1.303 6.983-2.364 14.065-1.748 21.145.3 3.068.945 6.166 2.494 8.975 1.316 2.399 3.625 4.555 6.682 5.339 2.6.677 5.68.623 7.893-.858 2.406-1.631 3.544-4.181 4.425-6.601 2.07-6.134 2.848-12.525 4.993-18.642 2.08-5.997 4.909-11.814 8.408-17.317 2.029-2.852 4.222-5.642 6.77-8.183.755-.667 1.513-1.615 2.713-1.626.658.358.422 1.142.438 1.702-.335 2.76-.367 5.582-1.342 8.252-1.78 5.478-2.98 11.076-4.286 16.644-.906 4.336-1.148 8.968.81 13.126 1.441 3.172 4.44 5.746 8.06 7.178 1.967.787 4.093 1.268 6.244 1.53-1.187-15.47-2.535-30.932-3.764-46.402-.28-2.406-.094-4.89-1.2-7.169h-.001Zm479.125.06c1.938-3.896 3.731-7.839 5.692-11.727 3.006 8.39 5.941 16.806 8.392 25.324.368 1.468.849 2.924 1.029 4.418-.255 1.184-.68 2.345-.716 3.56a667.945 667.945 0 0 0-3.235-5.229c1.368 21.795 3.019 43.579 4.864 65.352.571 7.003 1.406 13.992 1.709 21.008.555 12.998.02 26.276-4.641 38.771-1.751 4.516-3.98 8.917-6.812 13.027-3.806 5.311-9.456 9.5-15.672 12.718-11.069 5.642-23.739 8.577-36.388 10.388-.716.222-1.007-.483-1.413-.803 11.285-4.604 22.135-10.014 32.263-16.265 5.064-3.213 10.021-6.598 14.282-10.577 4.883-4.658 8.566-10.267 10.24-16.355 1.836-6.12 1.203-12.488.8-18.718-1.057-14.361-2.367-28.708-3.483-43.066-1.719-22.125-3.451-44.254-5.174-66.379-.364-1.555-1.509-2.888-2.038-4.402-.142-.371.187-.704.3-1.046l.001.001Zm-28.586 3.798c6.595-5.866 12.991-11.893 19.329-17.965.281 5.456-3.032 10.472-6.731 14.735-1.98 2.478-4.774 4.333-7.286 6.393a113.116 113.116 0 0 0-3.525 2.836c.332 1.459.838 2.896 1.025 4.377-.096 1.375-.358 2.741-.551 4.11-1.422-1.891-2.438-4-4.064-5.771.716 6.189 1.064 12.405 1.551 18.61a5743.705 5743.705 0 0 1 3.532 54.666c-.064.47.423.768.735 1.101 4.693 4.421 9.367 8.858 13.759 13.497 3.452 3.891 6.719 7.912 9.489 12.183 3.629 5.59 6.503 11.645 7.351 18.027.461 4.014.232 8.156-1.31 12-2.717-10.533-7.716-20.109-13.543-26.751-4.903-5.659-10.265-11.202-15.678-16.514.377 6.497.755 12.997 1.048 19.497.287 8.385-.077 16.773-.497 25.151.003 1.587-.842 3.038-1.277 4.554-1.261 3.405-2.277 6.891-3.893 10.191-.258-7.737-.568-15.483-1.119-23.212-.99-13.845-2.032-27.683-2.967-41.528-.139-1.09-.068-2.202-.313-3.273-3.561-3.527-7.406-6.844-11.125-10.249-6.551-5.798-13.169-11.541-20.039-17.065 1.303 14.462 2.651 28.92 3.87 43.388.523 6.568 1.213 13.136 1.287 19.724.094 5.729.026 11.461-.126 17.188.02 3.615.078 7.35-1.435 10.787-2.238 4.257-6.254 7.812-11.095 10.005-3.78 1.7-8.054 2.604-12.331 2.634-2.886.055-5.757-.595-8.308-1.713-4.467-2.134-7.654-5.773-9.705-9.691-1.406-2.697-2.416-5.547-2.961-8.462-.316-1.276-.651-2.751-1.996-3.549-1.071-.612-2.352-.123-3.387.287-2.519 1.137-4.944 2.508-6.767 4.396-5.934 6.049-8.757 13.77-10.524 21.369-.865 3.279-2.235 6.538-4.641 9.246-1.745 1.928-4.237 3.776-7.186 3.825-2.311.038-4.539-.795-6.6-1.659-4.56-2.038-7.724-5.775-9.608-9.764-.503-1.067-1.118-1.953-2.105-5.731-1.065-4.072-1.433-10.259-1.02-16.554.2-.609-.545-.83-.955-1.169-1.625-1.181-2.29-3.055-2.267-4.82-.045-6.478 1.064-13.068 4.283-18.995 2.609-4.888 6.518-9.155 10.324-13.407.358-.459.99-.825 1.164-1.36-2.37-2.293-4.873-4.489-7.402-6.656-1.441-1.413-3.196-2.56-4.615-3.986-5.335-4.899-10.579-9.866-15.821-14.837.5 7.271.881 14.547 1.31 21.822.326 6.738.877 13.473.764 20.219.023 6.013-.297 12.021-.587 18.027-.016 1.497-.729 2.89-1.18 4.317-1.271 3.516-2.419 7.073-3.961 10.516-.287-2.847-.113-5.713-.326-8.562-.583-14.216-1.896-28.399-2.828-42.599-.794-10.863-1.494-21.735-2.339-32.593-3.493-3.672-7.179-7.226-10.634-10.934-4.044-4.322-8.086-8.675-11.472-13.393-4.861-7.41-10.318-14.604-17.055-20.9-.384-.306-.265-.762-.262-1.153.233-4.073.416-8.148.655-12.221 4.796 2.645 9.37 5.577 13.766 8.683 3.406 2.489 6.648 5.159 9.406 8.178 1.422 1.426 2.735 3.246 2.257 5.194-1.619-.544-3.293-.978-4.825-1.683a6.655 6.655 0 0 0-1.977-.557c-.1 1.139.816 2.038 1.503 2.934 4.996 6.2 10.208 12.268 15.556 18.252.687.767 1.445 1.5 1.974 2.363-.339-7.016-.971-14.025-1.42-21.038-.758-10.83-1.535-21.658-2.293-32.489-.139-1.617-.045-3.287-.813-4.809-.371-.606.178-1.161.481-1.685a362.023 362.023 0 0 0 5.351-9.091c.084-.213.487-.762.609-.235 3.3 7.265 5.867 14.768 7.764 22.383.583 1.822-.136 3.68-.352 5.502-1.232-2.063-2.628-4.049-3.996-6.049 1.751 19.019 2.767 38.085 4.08 57.125.887 1.263 2.248 2.262 3.332 3.416 10.466 10.224 21.333 20.144 32.192 30.065 8.07-7.59 16.221-15.12 24.4-22.626.354-.279.596-.62.471-1.044-2.461-23.674-4.926-47.352-7.39-71.026-.313-2.394-.229-4.858-1.29-7.132 2.016-3.669 4.225-7.264 6.228-10.942 1.097 1.931 1.852 3.994 2.716 6.011 2.032 5.024 3.79 10.131 5.18 15.308.29 1.167.768 2.344.577 3.552-.145 1.09-.322 2.177-.461 3.27-1.348-1.929-2.641-3.885-3.999-5.809 1.927 19.068 3.884 43.078 5.634 60.771 8.48-7.631 16.892-15.32 25.41-22.918.935-.902 1.999-1.708 2.861-2.664-4.145-4.719-8.012-9.607-11.87-14.495-1.342-1.609-2.384-3.374-3.664-5.016-2.696-3.541-5.451-7.123-9.154-9.978-.322-4.601-.496-9.214-.729-13.823 8.696 6.437 17.53 12.749 25.981 19.421a6.862 6.862 0 0 1 1.906 2.211c-.761-7.2-1.458-14.402-2.177-21.604-.087-.661-.062-1.35-.387-1.967-.216-.634-.813-1.312-.329-1.959 1.999-3.484 3.886-7.014 5.863-10.508 3.461 6.94 6.158 14.147 8.293 21.458.219 1.028.748 2.036.587 3.096-.158 1.169-.252 2.344-.409 3.514a1134.62 1134.62 0 0 1-3.655-5.167 12.084 12.084 0 0 1-.584-.825c1.103 8.238 1.832 16.508 2.694 24.765 6.37-5.727 12.911-11.314 19.5-16.863 2.935-2.353 5.98-4.609 8.792-7.071-.264-3.197-.416-6.399-.713-9.593-.054-1.014-1.154-2.036-.383-3.006 2.08-3.349 4.051-6.751 5.992-10.163 2.274 4.426 3.81 9.104 5.455 13.719m-37.944 40.131c.101 1.292.23 2.584.368 3.874 2.071 2.167 4.174 4.314 6.361 6.399 8.337 7.973 16.962 15.724 25.422 23.601-1.31-19.483-2.781-38.964-4.08-58.45a965.069 965.069 0 0 0-28.071 24.576Zm-18.007-17.673c2.674 3.542 5.457 7.031 8.425 10.4-.239-3.123-.597-6.243-.92-9.361-.161.276-.335.552-.471.833-2.016-1.245-4.476-2.224-7.034-1.872Zm-17.14 50.399c-1.729 1.724-3.654 3.315-5.28 5.107.384 5.525 1.216 11.035 1.729 16.557.252 9.128-1.538 18.817-8.163 26.287.19-1.188.1-2.391.116-3.587-.01-4.096.194-8.192.171-12.29-.022-3.926.061-3.657-.119-11.779-.076-3.391-.571-6.081-.894-8.467-2.312 2.071-4.515 4.23-6.821 6.306-4.539 4.295-9.363 8.361-14.014 12.566 4.725 4.311 7.689 9.986 8.453 15.825.771 6.21-1.054 12.814-5.866 17.642-4.245 4.233-10.334 6.905-16.659 8.134-2.967.557-6.138.94-9.083.098.368 2.607.829 5.205 1.445 7.779 1.058 4.339 2.435 8.718 5.167 12.541 1.461 1.954 3.464 3.847 6.218 4.421 2.945.606 5.941-.645 8.012-2.361 1.845-1.401 2.7-3.434 3.477-5.369 2.339-5.696 3.129-11.816 6.222-17.295 2.171-4.347 4.929-8.565 8.909-11.915 2.064-1.82 4.438-3.371 6.925-4.754 1.712-.869 3.786-1.593 5.802-1.085 1.919.479 3.212 1.913 4.099 3.358 2.019 3.254 2.545 6.976 4.18 10.358 1.197 2.795 2.783 5.634 5.602 7.519 2.848 1.905 6.603 2.489 10.154 2.361 6.199-.224 16.394-4.504 16.91-5.713.537-1.254-.879-10.753-1.432-16.123-2.698-26.236-5.279-52.481-7.918-78.719-.09-.721-.854-1.21-1.232-1.822-8.86 8.019-17.449 16.248-26.109 24.421m-40.394 37.642c-1.855 1.814-3.606 3.707-5.351 5.598-3.319 3.792-6.641 7.628-9.098 11.88-.62 1.079-1.184 2.426-.471 3.573.841 1.175 2.641 1.35 4.118 1.353 6.522-.221 12.605-2.694 17.901-5.781 1.771-.741 3.435-2.38 2.767-4.159-.877-2.391-2.538-4.5-4.164-6.568a87.312 87.312 0 0 0-5.357-5.918l-.345.022Z"/></g><defs><clipPath id="a"><path fill="#fff" d="M0 0h640v480H0z"/></clipPath></defs></svg>