<svg xmlns="http://www.w3.org/2000/svg" width="900" height="600" fill="none"><g clip-path="url(#a)"><path fill="#bf0a30" d="M0 0h900v600H0z"/><path fill="#002868" d="M75 297.68 448.45 550 825 297.19 448.45 50z"/><path fill="#fff" d="M168 298.256 448.834 488 732 297.888 448.834 112z"/><path fill="#002868" d="M296.35 290.028h15.67l2.72 8.752h9.64l-14.96-42.456h-10.232l-15.136 42.456h9.342zm7.806-24.126h.118l5.262 16.794h-10.82zm25.94 32.878h8.69v-16.616h9.166q4.739-.042 5.92 1.848c.788 1.26 1.12 3.322.998 6.194q.003 3.219.252 5.174.246 1.953.694 3.4h9.816v-1.124q-1.362-.413-1.656-2.166-.297-1.755-.236-6.29-.01-5.728-1.382-7.776-1.373-2.046-4-2.986 3.166-1.125 4.856-3.836 1.691-2.71 1.708-6.276.066-1.95-.954-4.74t-3.926-4.966q-2.901-2.176-8.484-2.296h-21.464v42.456zm8.69-23.772v-11.352h11.058q3.803.135 5.056 1.936t1.152 3.622q.003 3.118-1.7 4.472-1.704 1.354-5.16 1.322zm43.56 9.402 4.14-4.256 13.126 18.626h11.412l-18.33-25.072 17.324-17.384h-11.47l-16.202 17.266v-17.266h-8.87v42.456h8.87zm42.2 5.618h15.668l2.72 8.752h9.64l-14.96-42.456h-10.23l-15.138 42.456h9.342zm7.804-24.126h.12l5.26 16.794h-10.82zm51.838 19.986h-.12l-16.85-29.564h-9.344v42.456h8.28v-30.276h.118l17.324 30.276h8.87v-42.456h-8.28zm14.644-.176q-.092 2.748 1.264 6.018 1.359 3.27 5.298 5.662t11.592 2.51q2.068.098 5.994-.764 3.924-.863 7.228-3.852 3.306-2.99 3.512-9.28-.151-5.584-3.386-8.034-3.233-2.448-7.732-3.378l-10.348-2.54a8.2 8.2 0 0 1-2.912-1.132q-1.466-.893-1.58-3.304.144-2.841 2.43-3.984a10.54 10.54 0 0 1 4.96-1.1q5.605.22 7.162 2.48 1.558 2.264 1.53 3.904h8.516q.025-2.712-1.428-5.868-1.456-3.158-5.068-5.45-3.614-2.289-10.06-2.4-6.81.11-10.356 2.336-3.545 2.227-4.796 5.24c-.834 2.012-1.222 3.84-1.17 5.492q.201 6.761 4.17 9.142 3.969 2.382 9.312 3.334l4.554 1.064c2.286.48 4.128 1.074 5.528 1.79q2.1 1.071 2.16 3.474-.162 3.291-2.862 4.434-2.699 1.141-6.01 1.064-5.64-.207-7.376-2.542-1.737-2.337-1.61-4.316zm50.674 4.316h15.67l2.72 8.752h9.638l-14.96-42.456h-10.23l-15.138 42.456h9.344zm7.804-24.126h.12l5.26 16.794h-10.82zm23.752 19.81q-.096 2.748 1.264 6.018 1.356 3.27 5.296 5.662 3.942 2.393 11.592 2.51 2.07.098 5.994-.764 3.927-.863 7.23-3.852 3.303-2.99 3.51-9.28-.151-5.584-3.384-8.034-3.234-2.448-7.732-3.378l-10.348-2.54a8.2 8.2 0 0 1-2.912-1.132q-1.47-.893-1.58-3.304.144-2.841 2.43-3.984a10.54 10.54 0 0 1 4.96-1.1q5.605.22 7.16 2.48 1.56 2.264 1.532 3.904h8.514q.029-2.712-1.428-5.868-1.456-3.158-5.068-5.45-3.611-2.289-10.06-2.4-6.809.11-10.354 2.336-3.547 2.227-4.796 5.24c-.834 2.012-1.224 3.84-1.17 5.492q.198 6.761 4.168 9.142 3.97 2.382 9.314 3.334l4.552 1.064c2.288.48 4.13 1.074 5.53 1.79q2.1 1.071 2.158 3.474-.161 3.291-2.86 4.434-2.7 1.141-6.01 1.064-5.641-.207-7.376-2.542-1.739-2.337-1.612-4.316z"/><path fill="#fff" d="m458.968 99.962-11.042-8L436.904 100l4.19-12.982-11.044-8.008 13.63-.024L447.88 66l4.236 12.968 13.636-.02-11.014 8.04 4.232 12.974z"/><path fill="#002868" d="M469.928 380 450 394.162l-19.952-14.15 7.62 22.906-19.932 14.176 24.638-.006L450.008 440l7.608-22.908 24.648-.018-19.936-14.152zm-64.528 0-19.93-14.162-19.952 14.15 7.62-22.906-19.93-14.176 24.638.006L385.48 320l7.606 22.908 24.65.018-19.936 14.152z"/><path fill="#fff" d="m431.962 487.082-8 11.042L432 509.146l-12.982-4.19L411.01 516l-.024-13.63L398 498.172l12.968-4.236-.02-13.636 8.04 11.014zm34.076 0 8 11.042L466 509.146l12.982-4.19L486.99 516l.024-13.63L500 498.172l-12.968-4.236.02-13.636-8.04 11.014z"/><path fill="#002868" d="m534.456 380-19.93-14.162-19.952 14.15 7.62-22.906-19.93-14.176 24.638.006L514.536 320l7.606 22.908 24.65.018-19.936 14.152zm-64.528-170-19.93-14.162-19.952 14.15 7.62-22.906-19.93-14.176 24.638.006L450.008 150l7.606 22.908 24.65.018-19.936 14.152z"/><path fill="#fff" d="m734.918 249.082-8 11.042 8.038 11.022-12.982-4.19L713.966 278l-.024-13.63-12.986-4.198 12.968-4.236-.02-13.636 8.04 11.014zm-54-36-8 11.042 8.038 11.022-12.982-4.19L659.966 242l-.024-13.63-12.986-4.198 12.968-4.236-.02-13.636 8.04 11.014zm-54-36-8 11.042 8.038 11.022-12.982-4.19L605.966 206l-.024-13.63-12.986-4.198 12.968-4.236-.02-13.636 8.04 11.014zm-54-34-8 11.042 8.038 11.022-12.982-4.19L551.966 172l-.024-13.63-12.986-4.198 12.968-4.236-.02-13.636 8.04 11.014zm-54-36-8 11.042 8.038 11.022-12.982-4.19L497.966 136l-.024-13.63-12.986-4.198 12.968-4.236-.02-13.636 8.04 11.014zm-326.956 216-8 11.042L192 345.146l-12.982-4.19L171.01 352l-.024-13.63L158 334.172l12.968-4.236-.02-13.636 8.04 11.014zm48 32-8 11.042L240 377.146l-12.982-4.19L219.01 384l-.024-13.63L206 366.172l12.968-4.236-.02-13.636 8.04 11.014zm48 32-8 11.042L288 409.146l-12.982-4.19L267.01 416l-.024-13.63L254 398.172l12.968-4.236-.02-13.636 8.04 11.014zm48 34-8 11.042L336 443.146l-12.982-4.19L315.01 450l-.024-13.63L302 432.172l12.968-4.236-.02-13.636 8.04 11.014zm48 32-8 11.042L384 475.146l-12.982-4.19L363.01 482l-.024-13.63L350 464.172l12.968-4.236-.02-13.636 8.04 11.014zm-240-164.15-8 11.042L144 310.996l-12.982-4.19-8.008 11.044-.024-13.63L110 300.022l12.968-4.236-.02-13.636 8.04 11.014zm20.076-39.85 8 11.042L164 271.146l12.982-4.19L184.99 278l.024-13.63L198 260.172l-12.968-4.236.02-13.636-8.04 11.014zm54-36 8 11.042L218 235.146l12.982-4.19L238.99 242l.024-13.63L252 224.172l-12.968-4.236.02-13.636-8.04 11.014zm54-36 8 11.042L272 199.146l12.982-4.19L292.99 206l.024-13.63L306 188.172l-12.968-4.236.02-13.636-8.04 11.014zm54-34 8 11.042L326 165.146l12.982-4.19L346.99 172l.024-13.63L360 154.172l-12.968-4.236.02-13.636-8.04 11.014zm54-36 8 11.042L380 129.146l12.982-4.19L400.99 136l.024-13.63L414 118.172l-12.968-4.236.02-13.636-8.04 11.014zm374 181.85 8 11.042L754 310.996l12.982-4.19 8.008 11.044.024-13.63L788 300.022l-12.968-4.236.02-13.636-8.04 11.014zm-48 34.15 8 11.042L706 345.146l12.982-4.19L726.99 352l.024-13.63L740 334.172l-12.968-4.236.02-13.636-8.04 11.014zm-48 32 8 11.042L658 377.146l12.982-4.19L678.99 384l.024-13.63L692 366.172l-12.968-4.236.02-13.636-8.04 11.014zm-48 32 8 11.042L610 409.146l12.982-4.19L630.99 416l.024-13.63L644 398.172l-12.968-4.236.02-13.636-8.04 11.014zm-48 34 8 11.042L562 443.146l12.982-4.19L582.99 450l.024-13.63L596 432.172l-12.968-4.236.02-13.636-8.04 11.014zm-48 32 8 11.042L514 475.146l12.982-4.19L534.99 482l.024-13.63L548 464.172l-12.968-4.236.02-13.636-8.04 11.014z"/></g><defs><clipPath id="a"><path fill="#fff" d="M0 0h900v600H0z"/></clipPath></defs></svg>