<svg xmlns="http://www.w3.org/2000/svg" width="900" height="600" fill="none"><g clip-path="url(#a)"><path fill="#0f204b" d="M0 0h900v600H0z"/><path fill="#ffb612" d="m721.116 49-10.662 32.813 16.407 5.331z"/><path fill="#ffb612" d="m721.116 49 10.661 32.813-16.406 5.331z"/><path fill="#ffb612" d="M753.931 72.841h-34.502v17.251z"/><path fill="#ffb612" d="m753.931 72.841-27.913 20.28-10.14-13.956z"/><path fill="#ffb612" d="m688.302 72.84 27.912 20.28 10.14-13.956z"/><path fill="#ffb612" d="M688.301 72.841h34.502v17.251z"/><path fill="#ffb612" d="m741.396 111.417-10.662-32.813-16.407 5.33z"/><path fill="#ffb612" d="m741.396 111.417-27.912-20.28 10.139-13.956z"/><path fill="#ffb612" d="m700.835 111.417 27.912-20.28-10.14-13.956z"/><path fill="#ffb612" d="m700.835 111.417 10.662-32.813 16.406 5.33zm-537.25 78.616-6.356 19.562 9.781 3.178z"/><path fill="#ffb612" d="m163.585 190.033 6.356 19.562-9.781 3.178z"/><path fill="#ffb612" d="M183.148 204.246H162.58v10.285z"/><path fill="#ffb612" d="m183.148 204.246-16.641 12.09-6.045-8.32z"/><path fill="#ffb612" d="m144.023 204.246 16.64 12.09 6.045-8.32z"/><path fill="#ffb612" d="M144.022 204.246h20.569v10.285z"/><path fill="#ffb612" d="m175.675 227.243-6.356-19.561-9.781 3.178z"/><path fill="#ffb612" d="m175.675 227.243-16.64-12.089 6.045-8.321z"/><path fill="#ffb612" d="m151.495 227.243 16.64-12.089-6.045-8.321z"/><path fill="#ffb612" d="m151.495 227.244 6.356-19.562 9.781 3.178zm112.313-.002-6.356 19.562 9.781 3.178z"/><path fill="#ffb612" d="m263.808 227.242 6.356 19.562-9.78 3.178z"/><path fill="#ffb612" d="M283.372 241.455h-20.569v10.284z"/><path fill="#ffb612" d="m283.371 241.454-16.64 12.09-6.045-8.32z"/><path fill="#ffb612" d="m244.246 241.455 16.64 12.09 6.045-8.32z"/><path fill="#ffb612" d="M244.246 241.455h20.568v10.284z"/><path fill="#ffb612" d="m275.898 264.452-6.356-19.562-9.78 3.178z"/><path fill="#ffb612" d="m275.899 264.452-16.64-12.09 6.045-8.32z"/><path fill="#ffb612" d="m251.718 264.452 16.64-12.09-6.045-8.32z"/><path fill="#ffb612" d="m251.719 264.452 6.356-19.561 9.78 3.178zm61.901 16.203-6.356 19.561 9.781 3.178z"/><path fill="#ffb612" d="m313.62 280.655 6.356 19.561-9.781 3.178z"/><path fill="#ffb612" d="M333.183 294.868h-20.569v10.284z"/><path fill="#ffb612" d="m333.182 294.867-16.64 12.09-6.045-8.32z"/><path fill="#ffb612" d="m294.057 294.867 16.641 12.09 6.045-8.32z"/><path fill="#ffb612" d="M294.057 294.868h20.568v10.284z"/><path fill="#ffb612" d="m325.709 317.865-6.356-19.562-9.781 3.178z"/><path fill="#ffb612" d="m325.71 317.864-16.641-12.089 6.045-8.321z"/><path fill="#ffb612" d="m301.529 317.865 16.641-12.09-6.045-8.32z"/><path fill="#ffb612" d="m301.529 317.865 6.356-19.562 9.781 3.178zm62.503 18.602-6.356 19.562 9.781 3.178z"/><path fill="#ffb612" d="m364.032 336.467 6.356 19.562-9.781 3.178z"/><path fill="#ffb612" d="M383.594 350.681h-20.568v10.284z"/><path fill="#ffb612" d="m383.594 350.68-16.64 12.09-6.045-8.32z"/><path fill="#ffb612" d="m344.469 350.68 16.641 12.09 6.045-8.32z"/><path fill="#ffb612" d="M344.469 350.681h20.569v10.284z"/><path fill="#ffb612" d="m376.121 373.678-6.356-19.562-9.78 3.178z"/><path fill="#ffb612" d="m376.122 373.677-16.64-12.089 6.045-8.321z"/><path fill="#ffb612" d="m351.941 373.677 16.641-12.089-6.045-8.32z"/><path fill="#ffb612" d="m351.942 373.678 6.356-19.562 9.781 3.178zm162.125 16.202-6.356 19.562 9.781 3.178z"/><path fill="#ffb612" d="m514.067 389.88 6.356 19.562-9.781 3.178z"/><path fill="#ffb612" d="M533.63 404.093h-20.569v10.284z"/><path fill="#ffb612" d="m533.629 404.093-16.64 12.09-6.045-8.321z"/><path fill="#ffb612" d="m494.505 404.093 16.64 12.09 6.045-8.321z"/><path fill="#ffb612" d="M494.505 404.093h20.568v10.284z"/><path fill="#ffb612" d="m526.157 427.09-6.356-19.562-9.781 3.178z"/><path fill="#ffb612" d="M526.157 427.09 509.517 415l6.045-8.32z"/><path fill="#ffb612" d="M501.976 427.09 518.617 415l-6.045-8.32z"/><path fill="#ffb612" d="m501.977 427.09 6.356-19.562 9.781 3.178zM357.43 415.086l-6.356 19.561 9.781 3.178z"/><path fill="#ffb612" d="m357.43 415.086 6.356 19.561-9.781 3.178z"/><path fill="#ffb612" d="M376.993 429.299h-20.569v10.284z"/><path fill="#ffb612" d="m376.993 429.298-16.641 12.09-6.045-8.32z"/><path fill="#ffb612" d="m337.868 429.299 16.64 12.089 6.045-8.32z"/><path fill="#ffb612" d="M337.867 429.299h20.569v10.284z"/><path fill="#ffb612" d="m369.52 452.296-6.356-19.562-9.781 3.178z"/><path fill="#ffb612" d="m369.52 452.296-16.64-12.09 6.045-8.32z"/><path fill="#ffb612" d="m345.34 452.296 16.64-12.09-6.045-8.32z"/><path fill="#ffb612" d="m345.34 452.296 6.356-19.562 9.781 3.178zm124.917-.002-6.356 19.562 9.781 3.178z"/><path fill="#ffb612" d="m470.256 452.294 6.356 19.562-9.78 3.178z"/><path fill="#ffb612" d="M489.819 466.508h-20.568v10.284z"/><path fill="#ffb612" d="m489.819 466.507-16.64 12.09-6.045-8.32z"/><path fill="#ffb612" d="m450.694 466.507 16.641 12.09 6.045-8.32z"/><path fill="#ffb612" d="M450.694 466.508h20.569v10.284z"/><path fill="#ffb612" d="m482.346 489.505-6.356-19.562-9.78 3.178z"/><path fill="#ffb612" d="m482.347 489.504-16.64-12.089 6.045-8.321z"/><path fill="#ffb612" d="m458.166 489.505 16.64-12.09-6.045-8.32z"/><path fill="#ffb612" d="m458.167 489.505 6.356-19.562 9.78 3.178z"/></g><defs><clipPath id="a"><path fill="#fff" d="M0 0h900v600H0z"/></clipPath></defs></svg>