<svg xmlns="http://www.w3.org/2000/svg" width="900" height="600" fill="none"><path fill="#b50027" d="M0 0h900v600H0z"/><path fill="#fff" d="M400 200h500v200H400z"/><path fill="#002d56" d="M0 0h400v400H0z"/><path fill="#fff" d="m208.954 54.693 14.248-10.048-17.439-.25-5.161-16.662-5.617 16.507-17.438-.25 13.967 10.453-5.615 16.508 14.249-10.048 13.967 10.452zm-68.525 12.262 7.947-15.518-15.558 7.882-12.311-12.355 2.697 17.227-15.557 7.88 17.224 2.766 2.699 17.226 7.948-15.518 17.223 2.765zm-55.19 43.041-.174-17.433-10.114 14.208-16.641-5.219 10.392 14-10.112 14.207 16.536-5.555 10.394 13.998-.174-17.432 16.535-5.556zM56.8 173.625l-8.254-15.354-2.352 17.279-17.16 3.112 15.706 7.567-2.352 17.278 12.06-12.602 15.708 7.565-8.254-15.355 12.06-12.602zm4.017 69.395-14.443-9.76 5.946 16.393-13.749 10.729 17.424-.598 5.946 16.392 4.823-16.762 17.423-.601-14.443-9.76 4.822-16.762zm35.963 59.976-17.324-1.932 12.882 11.753-7.188 15.888 15.149-8.626 12.881 11.751-3.518-17.083 15.148-8.627-17.323-1.931-3.519-17.083zm59.822 36.01-16.236 6.339 16.867 4.421 1.018 17.408 9.405-14.678 16.866 4.42-11.053-13.491 9.404-14.678-16.236 6.34-11.053-13.49zm69.339 4.285-11.431 13.158 16.989-3.924 8.99 14.941 1.508-17.367 16.988-3.923-16.056-6.81L244.436 322l-11.431 13.158-16.055-6.808zm63.784-28.361-4.007 16.962 13.219-11.368 14.903 9.051-6.735-16.077 13.218-11.368-17.38 1.431-6.735-16.076-4.007 16.962-17.38 1.431zm43.064-55.078 4.333 16.88 6.423-16.208 17.401 1.09-13.433-11.107 6.422-16.207-14.725 9.343-13.434-11.105 4.334 16.881-14.723 9.343zm-7.865-134.992 16.353 6.024-9.688-14.493 10.781-13.7-16.77 4.745-9.688-14.492-.677 17.424-16.769 4.745 16.352 6.024-.676 17.423zm-49.431-49.487 17.277-2.264-15.312-8.33 3.181-17.141-12.644 11.993-15.312-8.33 7.497 15.742-12.643 11.994 17.277-2.264 7.497 15.74zm69.817 116.111 11.681 12.933-1.844-17.335 15.914-7.121-17.055-3.592-1.845-17.335-8.696 15.115-17.055-3.591 11.681 12.933-8.695 15.114z"/><path fill="#eed000" fill-rule="evenodd" stroke="#eed000" stroke-miterlimit="3.864" stroke-width=".227" d="M127.594 290.28h-5.05v-.561l.616-.048q.404-.031.569-.095a.8.8 0 0 0 .38-.277q.118-.181.118-.498v-8.134q0-.276-.087-.459-.087-.189-.411-.316a4 4 0 0 0-.6-.174 4 4 0 0 0-.585-.103v-.562h5.05v.562a5 5 0 0 0-.585.063 4 4 0 0 0-.593.127q-.3.094-.403.309-.102.213-.103.474v8.126q0 .261.111.467a.8.8 0 0 0 .395.316q.166.063.538.142.38.072.64.079zm13.836-10.665a3.4 3.4 0 0 0-.68.127q-.459.119-.656.245-.285.198-.387.759-.095.563-.095 1.425v8.22h-.687l-6.797-9.186v5.792q0 .973.119 1.495.127.523.379.744.181.174.751.324.568.151.751.159v.561h-4.599v-.561q.213-.016.719-.151.505-.142.632-.253.276-.221.379-.672.103-.46.103-1.559v-5.531q0-.363-.126-.728a1.4 1.4 0 0 0-.34-.561q-.285-.261-.775-.443-.482-.19-.782-.206v-.562h3.201l6.306 8.561v-5.34q0-.98-.127-1.504-.126-.53-.363-.704-.222-.15-.727-.293a4 4 0 0 0-.759-.158v-.562h4.56zm16.538 6.179q-.19.024-.514.079a1.8 1.8 0 0 0-.513.143.7.7 0 0 0-.34.34 1.2 1.2 0 0 0-.095.506v.871q0 .95.008 1.281.015.333.032.546a12 12 0 0 1-2.095.728 8.6 8.6 0 0 1-2.046.253 5.5 5.5 0 0 1-2.071-.403 5.2 5.2 0 0 1-1.738-1.147 5.5 5.5 0 0 1-1.194-1.828q-.442-1.076-.442-2.405 0-1.282.419-2.374a5.7 5.7 0 0 1 1.201-1.907 5.2 5.2 0 0 1 1.786-1.226 5.6 5.6 0 0 1 2.228-.443q.948 0 1.652.229.702.23 1.24.554l.324-.538h.633l.071 3.925h-.648a11 11 0 0 0-.411-1.274 4.5 4.5 0 0 0-.632-1.132 2.9 2.9 0 0 0-.949-.791q-.553-.3-1.327-.301-.846 0-1.51.348a3.25 3.25 0 0 0-1.153 1.021q-.483.657-.743 1.638a8.5 8.5 0 0 0-.261 2.192q0 1.068.253 2.017.261.942.75 1.63.49.704 1.225 1.107.735.404 1.668.404.695 0 1.264-.213.577-.214.814-.451.063-.413.063-.831.008-.42.008-.712v-.617q0-.333-.095-.586a.61.61 0 0 0-.371-.38 2.5 2.5 0 0 0-.711-.174 10 10 0 0 0-.696-.079v-.577h4.916zm11.026-5.412a5.5 5.5 0 0 1 1.162 1.876q.418 1.09.419 2.421 0 1.337-.427 2.429a5.4 5.4 0 0 1-1.185 1.859c-.484.502-1.065.9-1.707 1.171a5.3 5.3 0 0 1-2.071.411q-1.17 0-2.165-.435a5.1 5.1 0 0 1-1.699-1.226 5.6 5.6 0 0 1-1.122-1.859 6.8 6.8 0 0 1-.403-2.35q0-1.37.426-2.437a5.7 5.7 0 0 1 1.178-1.86 5.1 5.1 0 0 1 1.723-1.186 5.3 5.3 0 0 1 2.062-.412q1.115 0 2.102.42a5 5 0 0 1 1.707 1.178Zm-1.177 7.96q.442-.72.64-1.63a9.3 9.3 0 0 0 .205-2.033q0-1.155-.229-2.121-.22-.965-.656-1.646a3.1 3.1 0 0 0-1.09-1.044q-.656-.38-1.502-.38-.948 0-1.612.435a3.4 3.4 0 0 0-1.083 1.163 5.7 5.7 0 0 0-.592 1.63 10 10 0 0 0-.19 1.963q0 1.139.206 2.057a5.2 5.2 0 0 0 .648 1.63q.426.696 1.074 1.091.648.388 1.549.388.846 0 1.525-.396a3.1 3.1 0 0 0 1.107-1.107Zm15.18-3.608q0 1.432-.537 2.484a5.1 5.1 0 0 1-1.399 1.725q-.87.673-1.952 1.005a7.6 7.6 0 0 1-2.236.332h-4.647v-.561q.229 0 .593-.04.37-.048.49-.103a.65.65 0 0 0 .339-.3 1 1 0 0 0 .111-.491v-8.102q0-.269-.095-.482-.087-.214-.355-.341a2.2 2.2 0 0 0-.53-.174 4 4 0 0 0-.49-.071v-.562h4.9a6.4 6.4 0 0 1 1.991.317 5.9 5.9 0 0 1 1.707.838 4.86 4.86 0 0 1 1.549 1.844q.561 1.139.561 2.682Zm-1.936-.008q0-1.131-.301-2.042a4.7 4.7 0 0 0-.877-1.598 3.9 3.9 0 0 0-1.343-1.02 4.1 4.1 0 0 0-1.762-.372q-.324 0-.735.016-.403.008-.601.015v8.632q0 .721.419.997.419.277 1.288.277 1.004 0 1.755-.356t1.216-.989q.49-.664.712-1.535.228-.877.229-2.025Zm23.35-5.111a1.7 1.7 0 0 0-.458.095 2 2 0 0 0-.482.213 1.7 1.7 0 0 0-.451.404q-.165.222-.292.625a1453 1453 0 0 0-1.304 4.272 844 844 0 0 1-1.604 5.199h-.727l-2.829-8.64-2.948 8.64h-.695l-1.62-5.744-1.123-3.996a1.4 1.4 0 0 0-.584-.783 1.4 1.4 0 0 0-.467-.198 2.6 2.6 0 0 0-.474-.087v-.562h4.576v.562a7 7 0 0 0-1.027.119q-.42.087-.419.293 0 .079.023.213l.04.206q.181.697.64 2.302.466 1.599 1.375 4.795l2.797-8.331h.775l2.821 8.513q.497-1.712.98-3.426.41-1.472.68-2.516.189-.736.237-1.005a3 3 0 0 0 .047-.467q0-.268-.371-.451-.364-.182-1.186-.245v-.562h4.07zm10.888 7.358-.213 3.307h-9.309v-.561q.317-.024.632-.064.396-.055.514-.111a.7.7 0 0 0 .348-.308q.102-.19.102-.483v-8.07q0-.261-.087-.459-.087-.206-.363-.332a2.7 2.7 0 0 0-.577-.182 4 4 0 0 0-.569-.095v-.562h8.677v2.706h-.593q-.157-.601-.687-1.274-.522-.68-.996-.744a8 8 0 0 0-.585-.047 16 16 0 0 0-.774-.016h-1.762v4.462h1.264q.609 0 .885-.11.285-.119.498-.388.174-.23.292-.609.127-.388.166-.728h.593v4.391h-.593a3.4 3.4 0 0 0-.173-.799q-.135-.428-.285-.617a1.14 1.14 0 0 0-.561-.404q-.308-.095-.822-.095h-1.264v3.371q0 .507.071.799a.74.74 0 0 0 .277.443q.204.15.561.198.356.039 1.011.039h.688q.426.001.719-.031.311-.034.616-.111.324-.087.458-.23.365-.38.759-1.147.403-.775.514-1.139zm16.494-4.874h-.545a3.6 3.6 0 0 0-.261-.672 6 6 0 0 0-.411-.744 3.5 3.5 0 0 0-.522-.633q-.276-.276-.537-.316a8 8 0 0 0-.616-.048 17 17 0 0 0-.688-.016h-.458v8.98q0 .263.11.483a.75.75 0 0 0 .388.333q.142.055.592.15.459.095.712.103v.561h-5.295v-.561q.221-.016.672-.064.458-.047.632-.118a.75.75 0 0 0 .379-.293q.126-.198.127-.522v-9.051h-.459q-.245 0-.608.015a7 7 0 0 0-.696.048q-.26.031-.545.316a4.3 4.3 0 0 0-.514.633 5.3 5.3 0 0 0-.418.76 4.3 4.3 0 0 0-.253.656h-.553v-3.046h9.767zm12.745 8.181h-3.018a68 68 0 0 0-1.818-2.721 61 61 0 0 0-1.754-2.366h-1.146v3.56q0 .277.087.491.087.206.371.316.142.056.498.103.355.048.601.055v.562h-4.742v-.562q.19-.016.545-.055.364-.039.506-.103a.66.66 0 0 0 .34-.3 1.04 1.04 0 0 0 .111-.507v-8.118q0-.276-.079-.49-.08-.213-.372-.325a3 3 0 0 0-.513-.126 4 4 0 0 0-.538-.079v-.562h5.176q.712 0 1.336.15.624.143 1.13.467.49.316.782.831.293.507.293 1.226 0 .65-.198 1.147a2.4 2.4 0 0 1-.585.863 3.5 3.5 0 0 1-.853.593 6.7 6.7 0 0 1-1.098.42q.83 1.1 1.375 1.851.552.751 1.351 1.828.348.474.624.704.285.222.561.364.205.102.514.158.307.055.514.063zm-4.156-8.371q0-1.02-.585-1.614-.585-.601-1.652-.601h-1.343v4.818h1.035q1.09 0 1.818-.696.726-.704.727-1.907Zm15.883-2.294a4 4 0 0 0-.648.095 2 2 0 0 0-.695.261q-.269.183-.371.752a8 8 0 0 0-.103 1.392v4.882q0 .933-.387 1.622a3.4 3.4 0 0 1-1.02 1.131 4.2 4.2 0 0 1-1.32.609q-.687.19-1.319.19-1.012 0-1.802-.269-.79-.26-1.328-.712a3 3 0 0 1-.798-1.029 2.9 2.9 0 0 1-.269-1.218v-6.638a1 1 0 0 0-.095-.459q-.087-.189-.363-.348a1.8 1.8 0 0 0-.506-.174 4 4 0 0 0-.506-.087v-.562h4.671v.562a4 4 0 0 0-.561.071 4 4 0 0 0-.49.119.58.58 0 0 0-.364.316 1.3 1.3 0 0 0-.087.483v6.203q0 .451.095.95.103.49.395.917.309.436.838.712.529.277 1.454.277.869 0 1.454-.277.593-.277.932-.727.324-.427.459-.895.134-.467.134-.941v-4.605q0-.878-.126-1.432-.127-.562-.372-.736-.276-.198-.758-.309a5 5 0 0 0-.727-.126v-.562h4.583zm8.317 5.515q.356.394.522.87.173.466.173 1.092 0 1.488-1.098 2.452-1.098.965-2.726.966a5.1 5.1 0 0 1-1.502-.23 6 6 0 0 1-1.296-.569l-.34.577h-.632l-.111-3.845h.641q.197.712.458 1.29.268.57.703 1.068c.268.307.593.559.956.743q.554.277 1.281.277.544 0 .948-.142.41-.143.664-.404c.168-.172.294-.381.371-.609a2.5 2.5 0 0 0 .127-.815q0-.672-.38-1.25-.379-.585-1.13-.886-.586-.233-1.177-.451a19 19 0 0 1-1.146-.475q-.948-.426-1.478-1.115-.52-.696-.521-1.812 0-.64.261-1.195.26-.553.742-.989a3.3 3.3 0 0 1 1.083-.641 3.7 3.7 0 0 1 1.304-.237q.774 0 1.383.237.617.238 1.122.554l.324-.538h.632l.063 3.727h-.64a14 14 0 0 0-.395-1.227 4.2 4.2 0 0 0-.561-1.06 2.6 2.6 0 0 0-.83-.728q-.49-.276-1.201-.277a1.83 1.83 0 0 0-1.28.483q-.53.483-.53 1.179 0 .728.34 1.21.34.475.988.784.554.267 1.13.482.561.199 1.083.428.47.203.908.466.443.261.767.61Zm12.137-3.031h-.545a3.6 3.6 0 0 0-.261-.672 5.6 5.6 0 0 0-.411-.744 3.5 3.5 0 0 0-.522-.633q-.276-.276-.537-.316a8 8 0 0 0-.616-.048 17 17 0 0 0-.688-.016h-.458v8.98q0 .263.11.483a.75.75 0 0 0 .388.333q.142.055.592.15.459.095.712.103v.561h-5.295v-.561q.22-.016.672-.064.458-.047.632-.118a.76.76 0 0 0 .379-.293q.126-.198.127-.522v-9.051h-.459q-.245 0-.608.015a7 7 0 0 0-.696.048q-.26.031-.545.316a4.3 4.3 0 0 0-.514.633 5.3 5.3 0 0 0-.418.76 4.3 4.3 0 0 0-.253.656h-.554v-3.046h9.768z" clip-rule="evenodd"/><path fill="#eed000" d="m200.401 148.082.037-.013c.008-.002 1.394.496 1.406 2.667q1.839-.344 1.485 1.942s-1.456-.393-1.694.437q-.535 1.439.817 2.345s1.514 1.2 2.466-1.074a192 192 0 0 1 1.296-3.047c.265-.838 1.842-2.802 3.275-3.077.545-.218 1.068-.175 1.651-.036 0 0 1.253.271 1.288 1.319.036 1.047-.392 1.503-1.098 1.807-.782.336-1.747-.386-1.747-.386-.336-.062-.443.054-.65.197-.095.066-.492.502-.722.992 0 0-.695 1.47-1.027 2.594-.262.884-.838 3.559-3.546 3.961h-6.392c-2.709-.402-3.285-3.077-3.546-3.961-.332-1.124-1.028-2.594-1.028-2.594-.229-.49-.626-.926-.721-.992-.207-.143-.314-.259-.651-.197 0 0-.965.722-1.746.386-.707-.304-1.134-.76-1.099-1.807.036-1.048 1.289-1.319 1.289-1.319.583-.139 1.105-.182 1.651.036 1.432.275 3.01 2.239 3.275 3.077 0 0 .343.773 1.295 3.047.953 2.274 2.467 1.074 2.467 1.074q1.352-.906.816-2.345c-.237-.831-1.693-.437-1.693-.437q-.355-2.286 1.485-1.942c.011-2.171 1.397-2.67 1.406-2.667l.037.013z"/><path fill="#eed000" fill-rule="evenodd" stroke="#002d56" stroke-miterlimit="3.864" stroke-width="1.179" d="M208.355 221.106h-15.473l1.826-60.372h11.893zm-.066 33.571h-16.431l-.001-27.415 16.432-.005z" clip-rule="evenodd"/><path fill="#eed000" stroke="#002d56" stroke-miterlimit="3.864" stroke-width="1.179" d="M191.589 224.135h16.656c1.161 0 2.101.707 2.101 1.58 0 .872-.94 1.579-2.101 1.579h-16.656c-1.16 0-2.101-.707-2.101-1.579 0-.873.941-1.58 2.101-1.58Z"/><path fill="#eed000" fill-rule="evenodd" stroke="#002d56" stroke-miterlimit="3.864" stroke-width="1.179" d="M192.824 221.172h14.54c1.033 0 1.87.663 1.87 1.482 0 .818-.837 1.481-1.87 1.481h-14.54c-1.033 0-1.871-.663-1.871-1.481s.838-1.482 1.871-1.482Z" clip-rule="evenodd"/><path stroke="#002d56" stroke-miterlimit="3.864" stroke-width="1.179" d="M195.565 232.397h8.779v18.075h-8.779z"/><path fill="#eed000" stroke="#002d56" stroke-miterlimit="3.864" stroke-width=".681" d="M195.383 158.628h10.084c.829 0 1.501.488 1.501 1.09s-.672 1.091-1.501 1.091h-10.084c-.828 0-1.5-.488-1.5-1.091 0-.602.672-1.09 1.5-1.09Z"/><path fill="#eed000" fill-rule="evenodd" stroke="#002d56" stroke-miterlimit="3.864" stroke-width="1.389" d="M117.738 257.958h167.464v5.647H117.738z" clip-rule="evenodd"/><path fill="#eed000" stroke="#002d56" stroke-miterlimit="3.864" stroke-width=".833" d="M110.594 263.557h181.869v5.979H110.594z"/><path fill="#eed000" fill-rule="evenodd" stroke="#002d56" stroke-miterlimit="3.864" stroke-width="1.326" d="M122.689 135.342h156.36v3.459h-156.36z" clip-rule="evenodd"/><path fill="#eed000" fill-rule="evenodd" stroke="#002d56" stroke-linejoin="round" stroke-miterlimit="3.864" stroke-width=".681" d="M249.597 135.236c-8.101-19.407-26.902-32.967-48.802-32.967-21.888 0-40.679 13.579-48.788 32.967h-19.436c8.99-29.829 36.164-51.698 68.224-51.698 32.081 0 59.271 21.828 68.252 51.688z" clip-rule="evenodd"/><path fill="#eed000" fill-rule="evenodd" stroke="#002d56" stroke-miterlimit="3.864" stroke-width=".833" d="M126.892 138.845s2.702 1.616 4.953 6.43l139.101-.006s2.288-5.382 5.439-6.435z" clip-rule="evenodd"/><path fill="#eed000" fill-rule="evenodd" stroke="#002d56" stroke-linejoin="round" stroke-miterlimit="3.864" stroke-width=".681" d="M161.402 146.525s12.886 22.116 39.09 21.811c25.885-.301 39.09-21.059 39.09-21.059l6.903 10.229s2.55 3.459-2.401 7.822c-17.494 15.41-31.352 18.439-43.592 18.351q-27.116-1.484-43.741-18.351c-1.994-1.658-2.401-3.836-1.801-5.641z" clip-rule="evenodd"/><path stroke="#002d56" stroke-miterlimit="3.864" stroke-width=".884" d="M154.686 161.981s-.787-4.475 6.265-.865l.525-14.516m85.495 12.335c-2.251-4.851-6.377 1.09-6.377 1.09l-1.039-12.672"/><path fill="#eed000" stroke="#002d56" stroke-miterlimit="3.864" stroke-width=".694" d="M131.093 145.536h139.853c.497 0 .9.42.9.939v.312c0 .519-.403.939-.9.939H131.093c-.498 0-.901-.42-.901-.939v-.312c0-.519.403-.939.901-.939Z"/><path fill="#eed000" d="m143.455 147.908.036-.012c.009-.003 1.395.495 1.406 2.666q1.84-.345 1.486 1.943s-1.456-.394-1.694.436q-.536 1.44.817 2.346s1.513 1.199 2.466-1.075a192 192 0 0 1 1.296-3.047c.265-.838 1.842-2.801 3.274-3.076.546-.219 1.068-.176 1.651-.037 0 0 1.254.272 1.289 1.319.036 1.047-.392 1.503-1.099 1.807-.781.336-1.746-.385-1.746-.385-.336-.063-.444.053-.65.197-.095.066-.492.501-.722.991 0 0-.696 1.471-1.027 2.594-.262.884-.838 3.56-3.546 3.961H140.3c-2.709-.401-3.285-3.077-3.546-3.961-.332-1.123-1.028-2.594-1.028-2.594-.23-.49-.626-.925-.722-.991-.206-.144-.314-.26-.65-.197 0 0-.965.721-1.746.385-.707-.304-1.135-.76-1.099-1.807s1.289-1.319 1.289-1.319c.583-.139 1.105-.182 1.651.037 1.432.275 3.009 2.238 3.274 3.076 0 0 .343.773 1.296 3.047s2.466 1.075 2.466 1.075q1.353-.906.817-2.346c-.238-.83-1.694-.436-1.694-.436q-.354-2.288 1.485-1.943c.012-2.171 1.398-2.67 1.407-2.666l.036.012z"/><path fill="#eed000" fill-rule="evenodd" stroke="#002d56" stroke-miterlimit="3.864" stroke-width="1.179" d="M151.232 221.106h-15.474l2.058-60.372h11.43zm.479 33.571h-16.432v-27.415l16.432-.005z" clip-rule="evenodd"/><path fill="#eed000" fill-rule="evenodd" stroke="#002d56" stroke-miterlimit="3.864" stroke-width="1.179" d="M135.167 224.135h16.656c1.161 0 2.101.707 2.101 1.58 0 .872-.94 1.579-2.101 1.579h-16.656c-1.16 0-2.101-.707-2.101-1.579 0-.873.941-1.58 2.101-1.58Zm1.058-2.963h14.54c1.033 0 1.871.663 1.871 1.482 0 .818-.838 1.481-1.871 1.481h-14.54c-1.033 0-1.87-.663-1.87-1.481s.837-1.482 1.87-1.482Z" clip-rule="evenodd"/><path stroke="#002d56" stroke-miterlimit="3.864" stroke-width="1.179" d="M139.106 232.397h8.779v18.075h-8.779z"/><path fill="#eed000" stroke="#002d56" stroke-miterlimit="3.864" stroke-width=".681" d="M138.454 158.859h10.084c.828 0 1.5.488 1.5 1.091 0 .602-.672 1.09-1.5 1.09h-10.084c-.829 0-1.501-.488-1.501-1.09s.672-1.091 1.501-1.091Z"/><path fill="#eed000" fill-rule="evenodd" stroke="#002d56" stroke-miterlimit="3.864" stroke-width=".567" d="M131.791 254.747H155.2v3.159h-23.409z" clip-rule="evenodd"/><path fill="#eed000" d="m258.193 148.082.037-.013c.009-.002 1.394.496 1.406 2.667q1.839-.344 1.485 1.942s-1.456-.393-1.693.437q-.535 1.439.816 2.345s1.514 1.2 2.467-1.074c.952-2.274 1.295-3.047 1.295-3.047.265-.838 1.842-2.802 3.275-3.077.546-.218 1.068-.175 1.651-.036 0 0 1.253.271 1.289 1.319.035 1.047-.392 1.503-1.099 1.807-.781.336-1.746-.386-1.746-.386-.337-.062-.444.054-.651.197-.095.066-.492.502-.722.992 0 0-.695 1.47-1.027 2.594-.261.884-.838 3.559-3.546 3.961h-6.392c-2.708-.402-3.285-3.077-3.546-3.961-.332-1.124-1.028-2.594-1.028-2.594-.229-.49-.626-.926-.721-.992-.207-.143-.314-.259-.651-.197 0 0-.965.722-1.746.386-.707-.304-1.135-.76-1.099-1.807.036-1.048 1.289-1.319 1.289-1.319.583-.139 1.105-.182 1.651.036 1.432.275 3.01 2.239 3.275 3.077 0 0 .343.773 1.295 3.047.953 2.274 2.467 1.074 2.467 1.074q1.352-.906.816-2.345c-.237-.831-1.693-.437-1.693-.437q-.355-2.286 1.485-1.942c.011-2.171 1.397-2.67 1.406-2.667l.037.013z"/><path fill="#eed000" fill-rule="evenodd" stroke="#002d56" stroke-miterlimit="3.864" stroke-width="1.179" d="M266.264 221.106h-15.473l2.057-60.372h11.43zm.854 33.571h-16.431l-.173-27.415 16.604-.005z" clip-rule="evenodd"/><path fill="#eed000" stroke="#002d56" stroke-miterlimit="3.864" stroke-width="1.179" d="M250.536 224.135h16.657c1.16 0 2.1.707 2.1 1.58 0 .872-.94 1.579-2.1 1.579h-16.657c-1.16 0-2.1-.707-2.1-1.579 0-.873.94-1.58 2.1-1.58Z"/><path fill="#eed000" fill-rule="evenodd" stroke="#002d56" stroke-miterlimit="3.864" stroke-width="1.179" d="M251.382 221.172h14.54c1.033 0 1.871.663 1.871 1.482 0 .818-.838 1.481-1.871 1.481h-14.54c-1.033 0-1.87-.663-1.87-1.481s.837-1.482 1.87-1.482Z" clip-rule="evenodd"/><path stroke="#002d56" stroke-miterlimit="3.864" stroke-width="1.179" d="M254.362 232.397h8.779v18.075h-8.779z"/><path fill="#eed000" stroke="#002d56" stroke-miterlimit="3.864" stroke-width=".681" d="M253.409 158.628h10.084c.828 0 1.5.488 1.5 1.09s-.672 1.091-1.5 1.091h-10.084c-.829 0-1.501-.488-1.501-1.091 0-.602.672-1.09 1.501-1.09Z"/><path fill="#eed000" fill-rule="evenodd" stroke="#002d56" stroke-miterlimit="3.864" stroke-width=".567" d="M187.986 254.747h23.409v3.159h-23.409z" clip-rule="evenodd"/><path fill="#eed000" fill-rule="evenodd" stroke="#002d56" stroke-miterlimit="3.864" stroke-width="1.032" d="M101.082 211.941c-3.976-2.858-8.178-2.106-8.178-2.106s3.037-4.043 7.878-2.031c3.076 1.279 5.702 6.017 13.505 1.053s10.832-7.472 17.707-9.777c7.064-2.369 12.605-2.858 14.255-3.46s4.234-1.544 5.553-9.476c.3-1.805 7.502 15.042 7.502 15.042s-1.05 5.565-7.953 8.724c-6.902 3.159-18.862 5.049-25.509 10.379-2.251 1.805-6.576 4.926-9.191 8.762-6.153 9.026-12.568 10.041-12.568 10.041s5.817-5.094 7.428-11.959c.3-1.278-.19-7.029 2.101-9.326-2.433 2.439-8.593-2.366-7.803-1.729 0 0-.75-1.279-4.727-4.137Zm148.932-25.653s1.2 6.845 14.63 10.304 15.531 7.822 17.707 8.875 7.829 5.107 13.88 3.084c2.384-.798 9.046-2.633 9.589-2.225.204.34-1.903 3.875-2.161 4.18-4.456 5.28-6.152 6.092-7.803 6.92-3.605 1.807-3.883 2.026-6.452 2.181 0 0 2.401 3.008 2.776 7.897.375 4.888 6.903 9.852 6.903 9.852s-8.704-2.256-12.53-7.446c-3.827-5.189-10.129-9.627-12.455-10.755s-14.18-5.189-16.656-6.167-10.204-5.039-11.255-11.582c-1.05-6.544 3.827-15.118 3.827-15.118Z" clip-rule="evenodd"/><path fill="#eed000" stroke="#002d56" stroke-miterlimit="3.864" stroke-width="1.032" d="M122.682 191.552c-9.116-3.573-6.301-5.984-6.301-5.984 2.243-4.011 5.182-9.048 16.289-13.321 14.855-5.716 30.011-3.159 25.959 3.459-2.463 4.024-6.715 11.056-6.715 11.056s-1.763-4.738-9.866-1.73-10.604 4.284-11.085 5.874c-.75 2.482-.45 4.061 5.402 3.159-3.826 1.278-8.089-.056-12.875-2.185z"/><path fill="#eed000" stroke="#002d56" stroke-linejoin="round" stroke-miterlimit="3.864" stroke-width=".884" d="M261.605 184.807c1.684.434 4.56 1.829 6.255 3.047 8.259 5.931 6.738 11.105 4.449 11.24-2.551.151 16.193-.373 18.444-1.577s3.001-2.557 1.651-5.415c-1.351-2.858-11.555-20.307-28.211-23.616s-23.257 3.714-21.833 6.092c1.35 2.256 7.503 9.777 7.728 12.861 1.708-3.227 5.551-4.146 11.517-2.632Z"/><path fill="#002d56" fill-rule="evenodd" d="m253.622 181.575-3.215-4.619.837 5.018-1.29.216-1.459-8.744 1.384-.232 4.175 5.846 2.1-6.898 1.225-.206 1.459 8.744-1.708.286-.837-5.018-1.705 5.445zm13.273-3.351q-.418 2.055-1.564 2.949-1.146.886-2.668.577-1.506-.308-2.22-1.574-.714-1.273-.302-3.299l.101-.496q.383-1.887 1.492-2.903 1.115-1.013 2.795-.671 1.642.335 2.237 1.716.6 1.381.224 3.235zm-1.842-.496.048-.236q.325-1.606.222-2.436-.105-.831-1.092-1.032-.911-.186-1.351.443-.435.631-.796 2.41l-.043.213q-.364 1.79-.232 2.513t1.103.92q.796.163 1.297-.484.506-.646.844-2.311m8.948 4.332q-1.026 1.894-2.238 2.425-1.207.532-2.602-.227l-2.705-1.472 4.22-7.792 2.427 1.321q1.662.906 1.832 2.302.176 1.393-.763 3.128zm-1.645-.963.115-.212q.693-1.28.639-2.186-.055-.904-.779-1.299l-.621-.338-2.962 5.467.764.416q.71.386 1.36.038.653-.353 1.484-1.886m6.463 1.328-1.663 1.697 1.783 1.757-.937.956-1.783-1.757-1.75 1.785 2.458 2.422-.924.943-3.809-3.752 6.2-6.324 3.645 3.592-.924.942zm.884 14.017-.949-1.616q1.832-1.107 2.433-1.89.61-.78.208-1.464l-.226-.384-3.424 2.021-.96-1.635 7.62-4.5 1.678 2.857q.613 1.043.393 1.757-.218.718-.91 1.126l-.414.245q-.651.384-1.268.237-.618-.147-1.134-.865.235 1.013-.438 1.988-.664.975-2.609 2.123m4.346-5.002.207-.122q.495-.292.56-.667t-.223-.866l-.313-.534-2.015 1.19.26.442q.341.582.711.701t.813-.144m-28.271 15.944-1.567-1.141.747-2.085-2.243-1.634-1.76 1.347-1.248-.909 7.486-5.506 1.428 1.04zm-.393-4.499 1.074-3.248-2.696 2.068zm10.237.817-1.641-.802-3.298 6.78-1.702-.832 3.299-6.78-1.681-.822.578-1.188 5.024 2.456zm4.061.174-3.455 8.161-1.742-.742 3.455-8.161zm6.702 8.104q-.85 1.916-2.163 2.539-1.311.618-2.73-.016-1.404-.627-1.827-2.018-.422-1.397.417-3.287l.205-.461q.782-1.761 2.084-2.511 1.307-.748 2.873-.048 1.531.683 1.814 2.16.288 1.479-.48 3.207zm-1.692-.884.098-.22q.666-1.497.743-2.331.078-.834-.843-1.244-.85-.38-1.415.14-.56.52-1.297 2.18l-.088.198q-.742 1.67-.769 2.403-.027.735.878 1.138.743.331 1.371-.191.633-.522 1.322-2.073m7.601 4.618 2.616-4.544 1.167.676-4.421 7.678-.704-.408-.863-6.93-2.778 4.823-1.166-.675 4.421-7.678.878.508zm-151.061-29.363-1.174.707-6.544-6.401 1.641-.989 4.136 4.062-1.459-5.674 1.15-.693 4.322 3.949-1.711-5.522 1.312-.79 2.56 8.801-1.174.707-4.48-4.039zm6.549-12.552 2.585 8.478-1.81.555-2.585-8.478zm10.169 4.524q.195 1.397-.593 2.19-.79.788-2.36 1.009a9 9 0 0 1-1.532.103 5 5 0 0 1-1.059-.135l-.212-1.513q.343.16 1.04.239.696.074 1.347-.018.915-.129 1.221-.433.311-.305.228-.898a1.04 1.04 0 0 0-.344-.646q-.29-.262-1.521-.587-.981-.264-1.575-.804-.593-.546-.742-1.604-.141-1.013.576-1.826.724-.815 2.168-1.017a6 6 0 0 1 1.275-.055q.578.037.817.098l.188 1.338a18 18 0 0 0-.973-.082 5 5 0 0 0-1.011.047q-.75.106-1.046.397t-.245.657q.065.466.346.669.282.204 1.555.499 1.185.272 1.752.869.571.59.7 1.503m27.37-6.027q-.408.801-1.195 1.097-.781.294-1.808-.23-.6-.308-.924-.578a2.3 2.3 0 0 1-.481-.529l.614-1.21q.151.183.429.424.281.235.607.402a.93.93 0 0 0 .622.094q.313-.065.526-.483l3.007-5.916 1.687.862zm9.608 3.543q-.447 1.168-1.382 1.57-.934.396-2.362-.153-1.534-.59-1.933-1.556-.399-.964.134-2.358l2.133-5.568 1.767.68-2.219 5.792q-.258.675-.103 1.125.163.447.875.721.66.254 1.093.074.438-.178.736-.957l2.206-5.759 1.31.503zm9.355 1.911q-.171 1.4-1.137 1.962-.966.555-2.541.362a9 9 0 0 1-1.506-.298 5 5 0 0 1-.988-.406l.185-1.516q.29.243.943.501.654.252 1.306.332.917.113 1.291-.101.38-.214.453-.809a1.04 1.04 0 0 0-.166-.713q-.212-.327-1.318-.961-.88-.511-1.313-1.186-.432-.68-.303-1.742.125-1.016 1.028-1.614.91-.599 2.357-.42.702.087 1.245.278.55.186.764.307l-.164 1.341q-.454-.179-.918-.332a5 5 0 0 0-.989-.216q-.751-.093-1.113.111t-.407.572q-.057.466.162.736.22.27 1.373.885 1.074.57 1.468 1.294.4.718.288 1.633m8.719-4.403-1.826-.032-.131 7.543-1.893-.033.132-7.543-1.871-.033.023-1.321 5.589.097zm5.164-1.815 1.078 8.8-1.879.231-1.078-8.799zm10.584 6.163q-.148.187-.601.455a5 5 0 0 1-1.096.471q-1.624.498-2.974-.244-1.346-.748-1.971-2.8l-.105-.342q-.582-1.911.103-3.386.69-1.478 2.261-1.959a6.7 6.7 0 0 1 1.154-.262q.477-.06.768-.001l.411 1.348q-.268-.059-.693-.039-.42.018-.947.179-.98.3-1.288 1.274-.303.97.129 2.387l.036.118q.462 1.518 1.194 2.086a1.71 1.71 0 0 0 1.627.294q.601-.184.99-.439.386-.259.603-.449zm2.621-9.394 1.078 2.121 2.227-1.138.607 1.193-2.228 1.138 1.134 2.23 3.07-1.568.599 1.178-4.757 2.43-4.015-7.9 4.554-2.326.598 1.178zm-93.238 42.213q1.043 1.887.839 3.196-.2 1.307-1.588 2.078l-2.692 1.495-4.29-7.755 2.415-1.341q1.656-.92 2.921-.313 1.267.6 2.222 2.327zm-1.693.874-.117-.211q-.705-1.274-1.496-1.715-.79-.44-1.511-.041l-.619.344 3.011 5.443.759-.422q.706-.393.763-1.13.054-.741-.79-2.268m9.674-4.207q.818 1.93.377 3.318-.443 1.382-1.873 1.991-1.414.602-2.719-.037-1.307-.643-2.113-2.547l-.197-.465q-.752-1.774-.41-3.241.346-1.469 1.924-2.14 1.543-.657 2.813.143 1.275.798 2.013 2.54zm-1.798.637-.094-.221q-.639-1.51-1.194-2.135-.556-.625-1.483-.231-.857.365-.863 1.134-.002.766.705 2.438l.085.2q.713 1.682 1.229 2.203t1.429.132q.749-.318.795-1.136.053-.82-.609-2.384m8.766 1.607-4.001-3.954 1.736 4.781-1.23.448-3.024-8.331 1.318-.481 5.169 4.985.811-7.167 1.166-.425 3.025 8.331-1.627.593-1.736-4.781-.686 5.665zm11.659-87.746q-.007.273-.24.842a6 6 0 0 1-.679 1.22q-1.14 1.63-2.866 1.957-1.728.319-3.677-1.046l-.326-.228q-1.815-1.272-2.187-3.084-.367-1.817.736-3.392a8 8 0 0 1 .873-1.077q.393-.401.697-.562l1.282.897a3.3 3.3 0 0 0-.657.472 4.7 4.7 0 0 0-.739.851q-.688.983-.313 2.073.378 1.085 1.724 2.027l.112.079q1.443 1.01 2.49.979 1.052-.036 1.676-.927.423-.604.605-1.113a8 8 0 0 0 .245-.84zm4.801-11.839q1.674 1.617 1.786 3.265.107 1.645-1.157 2.953-1.25 1.295-2.901 1.25-1.657-.05-3.307-1.644l-.404-.389q-1.538-1.486-1.789-3.169-.246-1.688 1.149-3.133 1.363-1.411 3.046-1.183 1.686.225 3.197 1.683zm-1.643 1.513-.192-.185q-1.309-1.264-2.16-1.65-.85-.387-1.67.462-.756.784-.443 1.585.319.797 1.768 2.196l.173.168q1.459 1.409 2.225 1.704.767.295 1.572-.539.661-.685.37-1.556-.287-.876-1.643-2.185m10.412-7.561-3.422-4.71 1.277-.927 5.783 7.959-.77.56-7.616-2.107 3.633 5-1.276.928-5.783-7.96.96-.698zm12.255-4.985q.661 1.418.033 2.539-.631 1.115-2.316 1.899-.963.45-1.677.646a6 6 0 0 1-1.225.226l-.717-1.536q.433.05 1.237-.11a6.7 6.7 0 0 0 1.498-.49q.981-.457 1.226-.888.252-.433-.03-1.036a1.12 1.12 0 0 0-.588-.567q-.406-.178-1.885-.093-1.18.062-2.013-.306-.836-.372-1.337-1.448-.48-1.028.064-2.145.55-1.12 2.098-1.842a7.4 7.4 0 0 1 1.405-.504q.658-.163.945-.181l.633 1.359q-.56.112-1.112.252a6.4 6.4 0 0 0-1.114.405q-.804.374-1.042.788-.24.414-.066.786.221.473.6.59.379.12 1.893-.012 1.41-.125 2.232.312.826.429 1.258 1.356m8.513-8.15-2.066.553 2.167 8.087-2.142.573-2.166-8.086-2.116.567-.38-1.417 6.323-1.694zm5.747-2.19 2.211-.154.687 9.815-2.212.155zm14.062 1.725-2.134-.15-.584 8.352-2.211-.155.584-8.351-2.186-.153.103-1.463 6.53.456zm10.763 8.424q-.405 1.328-1.453 1.832-1.045.499-2.76-.025-1.84-.563-2.398-1.613t-.074-2.634l1.935-6.329 2.119.649-2.013 6.584q-.234.766-.009 1.258.232.487 1.087.748.791.243 1.277.016.49-.225.762-1.11l2.001-6.547 1.572.48zm12.358-.618-1.905-.971-3.801 7.459-1.975-1.006 3.801-7.46-1.952-.994.666-1.307 5.832 2.972zm5.437 1.754 1.793 1.303-5.783 7.96-1.794-1.304zm8.628 14.392q-1.646 1.646-3.296 1.729-1.647.078-2.932-1.208-1.273-1.272-1.199-2.923.078-1.655 1.701-3.278l.396-.396q1.512-1.512 3.2-1.734 1.692-.216 3.112 1.204 1.387 1.388 1.13 3.065-.254 1.683-1.739 3.168zm-1.484-1.669.189-.189q1.286-1.285 1.687-2.13.4-.843-.433-1.678-.77-.77-1.577-.47-.802.304-2.227 1.729l-.17.17q-1.434 1.434-1.743 2.195t.512 1.581q.673.673 1.549.397.88-.273 2.213-1.605m7.59 10.236 4.71-3.422.927 1.277-7.959 5.783-.56-.771 2.107-7.615-5 3.633-.928-1.276 7.96-5.784.697.96z" clip-rule="evenodd"/><path fill="#eed000" fill-rule="evenodd" stroke="#eed000" stroke-miterlimit="3.864" stroke-width=".227" d="M232.375 194.299s.542-.597.718-.161.213.806.063.969c-.151.162-.133.265-.346.538s-.119.429-.324.56-.3.072-.527.06l-.092.677-.148.566.085.544.387.865-.295-.648.413.707c.312.825 3.283 1.653 4.359 2.134 2.24 1.002 1.89 5.766 2.126 6.238s1.179 6.78 1.179 7.841c0 1.062-1.179 6.78-1.297 7.959-.059.588-.205 1.995-.352 3.42-.029.282-.433-.089-.561.165-.169.336-.145 1.302-.105 1.622-.07.695-.268 1.236-.3 1.59-.118 1.297-1.313 1.418-1.313 1.418s-.043 4.436-.279 5.497c-.235 1.061-.396 1.263-.042 4.211s-.472 6.603-.472 6.603-1.217 5.375-1.453 6.2.156 1.583.274 2.172.118 1.533.118 1.533h-10.368c-.263 0 .182-.932.531-1.592.161-.305.648-.766 1.356-.884.707-.118.766-.884 1.179-1.828.413-.943.236-2.947-.118-4.186s-.825-4.244-.825-5.306c0-1.061-.585-3.478-1.175-5.129s-.884-5.247-.884-5.601c0-.154-.068-.353-.193-.666-.161-.404-.187-.997-.519-1.928-.59-1.651-.535-3.655-.594-5.365s-.708-3.596-1.006-4.014l-.183-.739-1.818.567-1.758 1.377c-.387.349-.809.408-1.52.471-1.376.123-2.752-1.492-3.075-3.826-.357-2.58.153-3.686 3.024-3.677l1.276.002 1.109.037h.537s.321.629-.179.85c-.501.222-.644.259-.644.259l.641.733c-.012.002.347-.241 1.415-.825l.397-.929c.03-.589.074-.722-.044-1.37s-.346-4.377-.346-5.261.025-1.931.115-2.952c.082-.928.07-2.998.521-3.877.56-1.091 3.588-1.563 3.588-1.563s1.31-.143 1.487-.497c.066-.132.395-.697.535-.918-.842-.299-1.119-1.335-1.242-1.588-.129-.262-.354-1.474-.384-1.591-.043-.174-.307-1.27-.455-1.703-.147-.434-.022-1.224-.022-1.224l-.959-.106-1.16-.089s-.648-.091-.815-.156c-.167-.066-.729-.181-.729-.181s-.922-.789-.008-1.422c.914-.634 1.988-1.222 2.164-1.326s.246-.278.246-.278l-.016-.228c-.211-.324-.415-.761-.678-1.712-.262-.951 2.234-1.347 2.234-1.347.722-.062 3.142.258 2.893.203.505.112.836.094 1.802.088s2.226.343 2.928.494 1.418.8 1.78 1.473c.363.672 1.83 1.522 2.262 1.943.655.635 1.432 1.968 1.732 2.455.523.851-.041.648-.217.752-.818.486-5.373-.542-4.976-.492.326.04.249-.076-.103-.266l-.003.321-.265 1.003z" clip-rule="evenodd"/><path stroke="#002d56" stroke-miterlimit="3.864" stroke-width=".567" d="M227.534 207.053c.144-2.415.342-4.405.707-5.955.118-.501 0-.737 0-.737-.628-.015-1.05-.062-1.7-.814"/><path stroke="#002d56" stroke-miterlimit="3.864" stroke-width=".681" d="m223.557 233.388.138-1.001s.311-.572.193-1.692 0-4.245.294-5.837c.279-1.507 2.645-6.19 2.881-7.429.203-1.068.235-4.657.235-4.952 0-.098-.116-.439-.059-1.769"/><path stroke="#002d56" stroke-linejoin="round" stroke-miterlimit="3.864" stroke-width=".753" d="m226.653 198.942-.535.918s-4.515.969-5.075 2.06c-.452.879-.637 5.944-.637 6.829s.229 4.612.347 5.261c.118.648.074.781.044 1.371"/><path stroke="#002d56" stroke-miterlimit="3.864" stroke-width=".681" d="M229.244 213.715c.059.472-.062 3.492 1.179 5.424.531.826 2.85 5.321 3.361 5.896.305.344 1.091.477 1.289.945 1.024 2.421-.058 4.803 1.389 5.151l.405 1.388"/><path stroke="#002d56" stroke-miterlimit="3.864" stroke-width=".567" d="M232.468 198.897c-.246.34-1.894 1.331-2.865 1.331-.353 0-.144.723-.301 1.578-.165.9-.177 6.013-.059 6.662.048.263-.045.398-.059 1.238"/><path stroke="#002d56" stroke-linecap="round" stroke-linejoin="round" stroke-miterlimit="3.864" stroke-width=".681" d="m234.006 205.219.602 2.365.825 4.362.295 2.653.059 2.359-.059 2.004-.236 1.415-.295 1.297-.53 4.245c1.709-.412 2.834-.012 3.655.649"/><path stroke="#002d56" stroke-miterlimit="3.864" stroke-width=".681" d="m222.722 200.878.115.406c-.16-.889 2.692 11.724 12.42 17.619l.472.295"/><path stroke="#002d56" stroke-miterlimit="3.864" stroke-width=".681" d="M224.631 200.358c1.022 3.247 4.081 11.363 11.068 15.598l.088.589m-9.685 3.128c1.794.376 2.951.375 4.572-.059m-1.765 9.246c.354 2.449.79 5.376.924 5.844.235.825.471 4.952.471 4.952l.118 4.009.118 5.07v5.896q-1.452 1.016-1.525 3.033"/><path stroke="#002d56" stroke-linejoin="round" stroke-miterlimit="3.864" stroke-width=".627" d="M219.211 216.245c-.602.905-3.573-.813-3.723 1.751-.116 1.97.265 4.196 2.171 4.441l1.402-.927.375-.377"/><path fill="#eed000" fill-rule="evenodd" d="M217.443 215.194c-.817-12.799-.437-24.011 1.686-32.501-5.716 8.298-3.365 32.51-3.365 32.51z" clip-rule="evenodd"/><path stroke="#002d56" stroke-linejoin="round" stroke-miterlimit="3.864" stroke-width=".753" d="m220.813 215.189-.412 1.12c-1.068.584-1.399.615-1.387.614"/><path stroke="#002d56" stroke-linejoin="round" stroke-miterlimit="3.864" stroke-width=".627" d="M218.871 216.647s1.048 2.785.19 4.862"/><path stroke="#002d56" stroke-linejoin="round" stroke-miterlimit="3.864" stroke-width=".484" d="m217.473 215.267 1.158.026h.536s.322.628-.179.849c-.5.222-.843.217-.843.217"/><path stroke="#002d56" stroke-miterlimit="3.864" stroke-width=".484" d="M217.817 222.285c-.387.349-.809.408-1.52.471-1.376.123-2.752-1.492-3.075-3.826-.357-2.58-.013-3.654 2.543-3.727"/><path stroke="#002d56" stroke-miterlimit="3.864" stroke-width=".484" d="M218.261 216.335h-1.834s-.976.26-1.02 1.054c-.069 1.263-.092 3.05.451 3.752l.544.562"/><path stroke="#002d56" stroke-miterlimit="3.864" stroke-width=".567" d="m224.555 191.692.159.955-.226.41-.992-.066-1.162-.038s-.652-.063-.822-.121-.736-.148-.736-.148-.841-1.113.044-1.786 1.796-1.147 1.968-1.259.256-.083.256-.083"/><path stroke="#002d56" stroke-miterlimit="3.864" stroke-width=".227" d="M224.544 191.9v1.079"/><path stroke="#002d56" stroke-miterlimit="3.864" stroke-width=".454" d="M224.701 192.703s-.276.923-.128 1.357c.147.434.412 1.529.455 1.703.03.118.255 1.329.383 1.592.128.262.422 1.372 1.347 1.619.924.248 1.956.075 2.544-.321"/><path stroke="#002d56" stroke-miterlimit="3.864" stroke-width=".34" d="M226.49 196.815s.45-.164.603-.099.59.116.59.116.545-.099.727-.047.472.053.557.043m-2.081.571s1.073.209 1.524.02m-.036-4.628s.968-.398 1.816.228"/><path stroke="#002d56" stroke-miterlimit="3.864" stroke-width=".272" d="M227.142 192.732c.074.203-.07.791-.196 1.026s-.162.659-.243.84-.182.487-.176.658c.005.17.006.156.268.298.263.141.448.019.649-.041.203-.061.382-.118.564-.066s.445-.09.44-.275c-.004-.185-.061-.458-.183-.564s-.383-.275-.383-.275"/><path stroke="#002d56" stroke-miterlimit="3.864" stroke-width=".34" d="M225.332 192.85c.146-.021 1.076-.543 1.848-.006"/><path fill="#002d56" stroke="#002d56" stroke-miterlimit="3.864" stroke-width=".227" d="M226.142 193.324c-.351-.006-.637.059-.638.146-.002.088.282.163.632.169s.637-.059.638-.146-.281-.163-.632-.169Z"/><path stroke="#002d56" stroke-miterlimit="3.864" stroke-width=".454" d="M226.654 198.942a1 1 0 0 0 .104.032c.924.248 1.956.074 2.545-.321"/><path stroke="#002d56" stroke-miterlimit="3.864" stroke-width=".453" d="M224.379 185.995s-2.416.716-2.112 1.654c.303.939.527 1.366.751 1.68s.667 1.537.806 1.878c.138.342.054.963.617.686 3.199-1.573 10.083 1.15 8.602 1.031-.399-.032 4.456.972 5.252.451.171-.112.513-.336-.047-1.163-.32-.473-1.293-1.713-1.975-2.32-.45-.401-1.757-1.256-2.148-1.912s-1.33-1.203-2.038-1.323-1.982-.414-2.946-.366c-.965.049-1.247-.039-1.757-.128.251.044-2.286-.262-3.005-.168Z"/><path stroke="#002d56" stroke-miterlimit="3.864" stroke-width=".681" d="M230.211 236.918s2.546 1.562 5.556-.058c2.803-1.51.521-.29.521-.29m-12.096.695s2.818 1.333 5.712-.172"/><path fill="#002d56" stroke="#002d56" stroke-miterlimit="3.864" stroke-width=".227" d="M229.242 193.398c-.367-.038-.672.004-.682.095-.009.092.28.197.647.235.367.039.672-.004.681-.095s-.28-.196-.646-.235Z"/><path stroke="#002d56" stroke-miterlimit="3.864" stroke-width=".681" d="M225.523 221.293c1.708.636 4.341.463 5.99-.058"/><path fill="#eed000" fill-rule="evenodd" stroke="#002d56" stroke-miterlimit="3.864" stroke-width=".094" d="M247.199 254.747h23.409v3.159h-23.409z" clip-rule="evenodd"/></svg>