<svg xmlns="http://www.w3.org/2000/svg" width="900" height="600" fill="none"><path fill="#fff" d="M0 0h900v76H0zm0 225h900v76H0zm0 225h900v76H0z"/><path fill="#c8102e" d="M0 75h900v75H0zm0 225h900v75H0zm0 225h900v75H0z"/><path fill="#012169" d="M0 150h900v75H0zm0 225h900v75H0z"/><mask id="a" width="489" height="300" x="0" y="0" maskUnits="userSpaceOnUse" style="mask-type:alpha"><path fill="#d9d9d9" d="M0 0h488.25v300H0z"/></mask><g mask="url(#a)"><path fill="#d9d9d9" d="M0 0h488.25v300H0z"/><path fill="#012169" d="M0 0h1116v600H0z"/><mask id="b" width="558" height="350" x="0" y="0" maskUnits="userSpaceOnUse" style="mask-type:luminance"><path fill="#fff" d="M0 0h558v350H0z"/></mask><g mask="url(#b)"><path fill="#012169" d="m0 0 651 400Zm488.25 0L0 300Z"/><path stroke="#fff" stroke-width="55.8" d="m0 0 651 400M488.25 0 0 300"/></g><mask id="c" width="512" height="325" x="0" y="0" maskUnits="userSpaceOnUse" style="mask-type:luminance"><path fill="#fff" d="M0 0v150h511.5v150h-23.25zm488.25 0H244.125v325H0v-25z"/></mask><g mask="url(#c)"><path fill="#012169" d="m0 0 651 400Zm488.25 0L0 300Z"/><path stroke="#c8102e" stroke-width="37.2" d="m0 0 651 400M488.25 0 0 300"/></g><path fill="#012169" d="M244.125 0v350ZM0 150h558Z"/><path stroke="#fff" stroke-width="93" d="M244.125 0v350M0 150h558"/><path fill="#fff" d="M1116 0v100H511.5l-23.25-25V0zm0 225v100H488.25V225zm0 225v150H0V450z"/><path fill="#c8102e" d="M1116 75v105H0v-60h488.25V75zm0 225v75H0v-75zm0 225v75H0v-75zM216.225 0h55.8v325h-55.8z"/></g></svg>