<svg xmlns="http://www.w3.org/2000/svg" width="900" height="600" fill="none"><path fill="#000f5d" d="M0 600h900V0H0z"/><path fill="#000f5d" d="M74 43h750v500H74z"/><path fill="#ffb900" d="M420.554 265.899a2 2 0 0 1-.113-.154c-16.592-20.453.312-32.758.685-49.705 13.223 22.029-3.998 28.773 15.324 49.875z"/><path fill="#ffb900" d="M440.584 265.912c-6.385-8.982-10.864-23.319-8.948-32.685 1.9-9.362 8.387-18.581 7.488-25.667 1.12 2.695 5.106 8.835 6.303 15.392 5.832-15.071 16.017-21.433 31.838-22.211-28.454 21.622 8.689 38.239-15.871 65.197z"/><path fill="#ffb900" d="M466.668 265.95c11.582-14.622 8.519-25.728 7.472-34.603-.905-7.674-.518-12.496 11.971-18.462-.972 2.211-2.282 3.628-3.063 5.54-.926 2.268-2.242 4.862-.446 10.307 1.904 4.226 1.961 10.156.411 13.143-1.483.409 6.625-10.024 9.729-10.762-3.445 7.125-2.024 15.281-7.495 24.309-2.014 3.324-5.474 7.131-9.725 10.527m-12.89 58.954c1.008-25.563 6.477-33.53 16.847-44.221-20.122-.048-42.609.011-60.906-.064 10.326 10.707 15.85 18.743 16.804 44.303 9.168.004 18.149-.04 27.255-.018m-13.667 62.282 7.961 24.97 4.397-74.147c-8.198-.028-16.396.024-24.594.012l4.22 74.119zm.009 111.963c3.512-3.257 4.509-13.866 4.509-13.866l2.185-45.299-6.635-4.662-6.649 4.647 2.115 45.31s.942 10.579 4.459 13.873zM411.982 154.99l-15.482-7.939 1.078-2.102 15.482 7.939zm2.638-5.718-12.51-12.092 1.798-1.86 14.735 2.941q.486.093.889.202.404.11.714.247l-10.139-9.802 1.568-1.622 12.509 12.093-1.782 1.842-14.985-2.937a8 8 0 0 1-.688-.172 11 11 0 0 1-.689-.255l10.14 9.802zm13.206-28.688-3.786 1.476 4.819 12.358 3.785-1.476q2.433-.948 3.062-3.006.626-2.07-.58-5.162-1.154-2.961-3.033-4.041t-4.267-.149m-.396 16.674-6.32-16.211 6.173-2.407q3.39-1.321 5.973.004 2.595 1.321 4.083 5.14 1.54 3.951.528 6.881-1.006 2.915-4.351 4.22zm16.362-4.931-1.375-17.344 2.355-.187 1.375 17.344zm10.644-7.121 5.324 1.021-1.198-8.047zm-6.304 6.151 9.624-15.87 2.563.492 3.09 18.309-2.517-.483-.83-5.451-6.728-1.291-2.801 4.754zm17.006 3.858 9.835-14.353 2.134 1.462-.44 15.02q-.01.494-.051.91a5 5 0 0 1-.124.745l7.971-11.634 1.861 1.275-9.834 14.353-2.115-1.449.394-15.265a8 8 0 0 1 .055-.707q.054-.35.137-.723l-7.971 11.635zm21.632 9.467 2.888 4.589 5.063-6.37zm-8.798-.407 18.166-3.801 1.391 2.209-11.27 14.757-1.366-2.169 3.417-4.328-3.65-5.798-5.386 1.199z"/><path fill="#ffb900" fill-rule="evenodd" d="M418.811 158.084h23.062L449 136.176l7.127 21.908h23.062l-18.658 13.539 7.127 21.907L449 179.991l-18.658 13.539 7.127-21.907zm9.046-71.637h16.151l4.991-15.348 4.991 15.348h16.151l-13.067 9.486 4.991 15.347-13.066-9.485-13.066 9.485 4.991-15.347zm95.757 26.107h16.151l4.991-15.348 4.991 15.348h16.151l-13.067 9.485 4.991 15.348-13.066-9.486-13.066 9.486 4.991-15.348zm70.587 62.608h16.151l4.99-15.348 4.991 15.348h16.151l-13.066 9.485 4.991 15.348-13.067-9.486-13.066 9.486 4.991-15.348zm-181.047 94.561h71.692v6.756h-71.692zm219.096-4.504h16.151l4.991-15.348 4.99 15.348h16.151l-13.066 9.485 4.991 15.348-13.066-9.485-13.067 9.485 4.991-15.348zm-12.418 99.846h16.151l4.99-15.347 4.991 15.347h16.151l-13.066 9.486 4.991 15.348-13.067-9.486-13.066 9.486 4.991-15.348zm-55.114 77.118 16.151.001 4.991-15.348 4.991 15.348 16.151-.001-13.067 9.486 4.991 15.348-13.066-9.486-13.066 9.486 4.991-15.348zm-83.863 47.884h16.151l4.991-15.347 4.991 15.347h16.151l-13.067 9.486 4.991 15.348-13.066-9.486-13.066 9.486 4.991-15.348zm35.948-112.008 16.151.001 4.991-15.348 4.991 15.348 16.15-.001-13.066 9.486 4.991 15.348-13.066-9.486-13.067 9.486 4.992-15.348zm38.083-89.399h16.151l4.99-15.348 4.991 15.348h16.151l-13.066 9.485 4.991 15.348-13.067-9.486-13.066 9.486 4.991-15.348zM427.857 415.054h16.151l4.991-15.348 4.991 15.348h16.151l-13.067 9.485 4.991 15.348-13.066-9.486-13.066 9.486 4.991-15.348z" clip-rule="evenodd"/><path fill="#ffb900" fill-rule="evenodd" d="m600.22 184.716 1.371 3.401-104.575 42.26-1.37-3.402zm28.998 80.661-.401 3.637-137.174-14.433.402-3.638zM374.386 112.554h-16.151l-4.991-15.348-4.991 15.348h-16.151l13.067 9.485-4.991 15.348 13.066-9.486 13.066 9.486-4.991-15.348zm-70.587 62.608h-16.151l-4.99-15.348-4.991 15.348h-16.151l13.066 9.485-4.991 15.348 13.067-9.486 13.066 9.486-4.991-15.348zm-38.049 90.057h-16.151l-4.991-15.348-4.99 15.348h-16.151l13.066 9.485-4.991 15.348 13.066-9.485 13.067 9.485-4.991-15.348zm12.417 99.846h-16.151l-4.99-15.347-4.991 15.347h-16.151l13.066 9.486-4.991 15.348 13.067-9.486 13.066 9.486-4.991-15.348zm55.115 77.118-16.151.001-4.991-15.348-4.991 15.348-16.151-.001 13.067 9.486-4.991 15.348 13.066-9.486 13.066 9.486-4.991-15.348zm83.861 47.884h-16.151l-4.991-15.347-4.991 15.347h-16.151l13.067 9.486-4.991 15.348 13.066-9.486 13.066 9.486-4.991-15.348zm-35.946-112.008-16.151.001-4.991-15.348-4.991 15.348-16.15-.001 13.066 9.486-4.991 15.348 13.066-9.486 13.066 9.486-4.991-15.348zm-32.914-91.712-16.151.001L327.141 271l-4.991 15.348-16.15-.001 13.066 9.486-4.991 15.348 13.066-9.486 13.066 9.486-4.991-15.348z" clip-rule="evenodd"/><path fill="#ffb900" fill-rule="evenodd" d="m297.78 184.716-1.371 3.401 112.134 45.307 1.37-3.401zm-28.998 80.661.401 3.637 137.174-14.433-.402-3.638zm178.364-80.66h3.708v25.606h-3.708zm-78.211-46.164-3.047 2.103 49.157 71.504 3.047-2.103zm160.01.343 3.047 2.102-45.52 66.213-3.047-2.103z" clip-rule="evenodd"/></svg>