<svg xmlns="http://www.w3.org/2000/svg" width="900" height="600" fill="none"><path fill="#000" d="M0 0h900v600H0z"/><path fill="#eaaa00" d="M0 600V50l75 50v500h75V0h75v600h75V0h75v600h75V0h75v600h75V0h75v600h75V0h75v600h75v-50L75 0v100l750 500z"/><path fill="#fff" d="M450 0h225v300h225V150H450z"/><path fill="#9d2235" d="M675 0h225v150H450v150h225z"/><path fill="#9d2235" d="M675 279c5.092 0 9.976-2.023 13.576-5.624A19.2 19.2 0 0 0 694.2 259.8v-9.6h18.6c5.092 0 9.976-2.023 13.576-5.624a19.197 19.197 0 0 0 0-27.152A19.2 19.2 0 0 0 712.8 211.8h-18.6v-42.6h119.4v18.6c0 5.092 2.023 9.976 5.624 13.576a19.197 19.197 0 0 0 27.152 0A19.2 19.2 0 0 0 852 187.8v-18.6h16.8c5.092 0 9.976-2.023 13.576-5.624A19.2 19.2 0 0 0 888 150H675z"/><path fill="#fff" d="M675 279a19.2 19.2 0 0 1-13.576-5.624A19.2 19.2 0 0 1 655.8 259.8v-9.6h-18.6a19.2 19.2 0 0 1-13.576-5.624 19.197 19.197 0 0 1 0-27.152A19.2 19.2 0 0 1 637.2 211.8h18.6v-42.6H536.4v18.6c0 5.092-2.023 9.976-5.624 13.576a19.197 19.197 0 0 1-27.152 0A19.2 19.2 0 0 1 498 187.8v-18.6h-16.8a19.2 19.2 0 0 1-13.576-5.624A19.2 19.2 0 0 1 462 150h213zm0-258a19.2 19.2 0 0 1 19.2 19.2v9.6h18.6A19.2 19.2 0 0 1 732 69a19.2 19.2 0 0 1-19.2 19.2h-18.6v42.6h119.4v-18.6a19.2 19.2 0 0 1 38.4 0v18.6h16.8c5.092 0 9.976 2.023 13.576 5.624A19.2 19.2 0 0 1 888 150H675z"/><path fill="#9d2235" d="M675 21a19.2 19.2 0 0 0-19.2 19.2v9.6h-18.6A19.2 19.2 0 0 0 618 69a19.2 19.2 0 0 0 19.2 19.2h18.6v42.6H536.4v-18.6a19.2 19.2 0 0 0-38.4 0v18.6h-16.8a19.2 19.2 0 0 0-13.576 5.624A19.2 19.2 0 0 0 462 150h213z"/><path fill="#fff" d="M0 300h225v300h225V450H0z"/><path fill="#9d2235" d="M225 300h225v150H0v150h225z"/><path fill="#9d2235" d="M225 579c5.092 0 9.976-2.023 13.576-5.624A19.2 19.2 0 0 0 244.2 559.8v-9.6h18.6c5.092 0 9.976-2.023 13.576-5.624a19.197 19.197 0 0 0 0-27.152A19.2 19.2 0 0 0 262.8 511.8h-18.6v-42.6h119.4v18.6c0 5.092 2.023 9.976 5.624 13.576a19.197 19.197 0 0 0 27.152 0A19.2 19.2 0 0 0 402 487.8v-18.6h16.8c5.092 0 9.976-2.023 13.576-5.624A19.2 19.2 0 0 0 438 450H225z"/><path fill="#fff" d="M225 579a19.2 19.2 0 0 1-13.576-5.624A19.2 19.2 0 0 1 205.8 559.8v-9.6h-18.6a19.2 19.2 0 0 1-13.576-5.624 19.197 19.197 0 0 1 0-27.152A19.2 19.2 0 0 1 187.2 511.8h18.6v-42.6H86.4v18.6A19.2 19.2 0 0 1 67.2 507 19.2 19.2 0 0 1 48 487.8v-18.6H31.2A19.2 19.2 0 0 1 12 450h213zm0-258c5.092 0 9.976 2.023 13.576 5.624A19.2 19.2 0 0 1 244.2 340.2v9.6h18.6c5.092 0 9.976 2.023 13.576 5.624a19.197 19.197 0 0 1 0 27.152A19.2 19.2 0 0 1 262.8 388.2h-18.6v42.6h119.4v-18.6c0-5.092 2.023-9.976 5.624-13.576a19.197 19.197 0 0 1 27.152 0A19.2 19.2 0 0 1 402 412.2v18.6h16.8c5.092 0 9.976 2.023 13.576 5.624A19.2 19.2 0 0 1 438 450H225z"/><path fill="#9d2235" d="M225 321a19.2 19.2 0 0 0-13.576 5.624A19.2 19.2 0 0 0 205.8 340.2v9.6h-18.6a19.2 19.2 0 0 0-13.576 5.624 19.197 19.197 0 0 0 0 27.152A19.2 19.2 0 0 0 187.2 388.2h18.6v42.6H86.4v-18.6A19.2 19.2 0 0 0 67.2 393 19.2 19.2 0 0 0 48 412.2v18.6H31.2A19.2 19.2 0 0 0 12 450h213z"/></svg>