<svg xmlns="http://www.w3.org/2000/svg" width="900" height="600" fill="none"><path fill="gold" d="M0 600h900V0H0z"/><path fill="#000" d="M481.546 159.628v279.744zM460.173 137v325zm-21.347 0v325zm-21.373 22.628v279.744z"/><path stroke="#bf0a30" stroke-linecap="round" stroke-width="45.942" d="M481.546 159.628v279.744M460.173 137v325m-21.347-325v325m-21.373-302.372v279.744"/><path fill="#000" d="M309.628 267.454h279.744zM287 288.827h325zm0 21.346h325zm22.628 21.373h279.744z"/><path stroke="#bf0a30" stroke-linecap="round" stroke-width="45.942" d="M309.628 267.454h279.744M287 288.827h325m-325 21.346h325m-302.372 21.373h279.744"/><path fill="gold" stroke="#bf0a30" stroke-width="22.971" d="M449.5 352.39c29.21 0 52.89-23.679 52.89-52.89s-23.68-52.891-52.89-52.891-52.891 23.68-52.891 52.891 23.68 52.89 52.891 52.89Z"/></svg>