<svg xmlns="http://www.w3.org/2000/svg" width="900" height="600" fill="none"><path fill="#002a86" d="M0 600h900V0H0z"/><path fill="#efae0e" d="m458.469 95.384 14.293-10.39-18.136.122L449.174 69l-4.998 15.964h-17.667l14.294 10.42-5.727 17.148 14.567-10.662 14.536 10.663zm-129.654 41.313 14.019-10.905-17.924.759-5.984-16.101-4.92 16.375-17.423.775 14.081 9.993-4.724 17.028 14.293-11.179 14.809 10.146zm-78.178 120.42 18.149-1.426-15.341-9.343 3.904-16.646-12.986 11.193-15.341-9.113 7.017 16.146-13.761 11.651 17.923-1.534 6.546 16.752zm16.631 131.51 13.214-12.364-17.68 2.339-7.275-15.341-3.373 16.92-17.406 2.067 15.327 8.551-3.632 17.68 13.246-12.455 15.113 8.946zm91.424 92.35 3.114-17.68-13.199 12.606-15.068-8.035 7.747 15.463-12.744 12.212 17.421-2.338 7.534 16.343 3.358-17.908 17.664-2.325-15.842-8.307"/><path fill="#efae0e" d="m410.396 100.563-2.082-1.033-2.065-1.033-4.42-.5-4.164.257-3.37.777-4.163 1.03-3.388.244 5.211-2.855 6.745-3.874 6.759-4.693 2.338-2.339 1.824-2.081 1.305.258 1.535-.532 1.048-.76.775-1.047.258-1.534-.258-1.58-.776-1.306-1.306-.775-1.563-.5-1.292.273-1.291.773-1.033 1.292-.259 1.55.259 1.306.516 1.306 1.033 1.033-.258.243-4.147 3.645-4.936 3.387-5.21 2.841-5.453 2.856-11.164 4.678-11.178 3.387 2.081-1.306 2.125-1.429 7.792-3.888 5.939-3.493 2.583-2.339 2.354-2.614 2.339-2.61 1.534-3.115 1.565-3.356.775-3.646-3.373.501-2.856.804-3.129 1.276-2.596 1.566-5.18 3.63-4.42 4.42-3.889 4.679L366.741 99l-2.338 4.177-1.55 3.083-.501.546-1.307-.546-.516-1.003.242-1.565.517-1.822 1.565-4.42 1.292-4.648h1.305l1.291-.532 1.049-1.048.517-1.306V88.64l-.517-1.307-1.049-1.033-1.291-.53h-1.564l-1.307.53-.759 1.033-.517 1.307-.258 1.276.517 1.047.516.76 1.049.776-1.307 4.192-1.822 4.647-2.34 4.951-2.339 3.89-11.163 6.743-.259-1.017v-1.565l1.032-3.388 1.049-1.806 1.806-1.55 3.647-2.871 1.306-1.806 1.033-2.857.516-3.645v-5.194l-.775 1.305-1.563 1.048-3.89 2.568-4.161 3.114-1.808 1.853-1.565 2.307-.516 1.566.258 2.08.776 2.082 1.29 2.583.517 1.563v1.55l-.259 3.387-3.356 2.597-1.048.775-.259.775.259.501.273.272 1.535.258 1.563-.759 4.147-2.611 3.387-.518h3.888l1.824.517 1.822.759 1.549 1.049 1.034 1.563-.775 1.307-.243 1.276.243 1.581.516 1.274 1.307 1.033 1.549.533 1.565-.259 1.549-.775 1.048-1.307.501-1.548-.243-1.565-.775-1.305-1.047-1.002-1.292-.548h-1.565l-1.29.546-2.34-2.354-2.597-1.807-2.855-.776-2.856-.257 5.179-3.114 2.855-.531 2.614.258 2.855.531 2.856 1.276 3.903 2.355 4.937 2.065 2.597.776 2.597.273h2.857l2.596-.777 4.421-1.836 1.549-.501h1.807l-1.29-1.823-2.34-2.096-4.663-4.131-3.114-1.307-3.387-.532-3.373.274-2.855 1.033-3.646 1.549-3.644 1.063-3.373.501-3.113-.775 4.678-2.338 3.63-1.807 12.213-4.148 3.129.229 3.373 1.305 3.098 1.55 2.87 2.065 4.404 2.355 4.42 1.306 4.679.532 4.678-.532 4.162-1.306 3.873-1.808 3.387-2.612 2.34-3.113-3.128.258-3.374-.503-3.371-1.031-3.114-1.824m-112.233 64.174-2.34.274-2.339.532-3.645 2.339-3.098 2.583-2.34 2.855-2.597 3.373-2.597 2.08 2.339-5.194 3.113-7.535 2.325-7.534.516-3.387v-2.583l1.306-.759.776-1.305.531-1.307v-1.306l-.791-1.549-1.033-1.034-1.548-.501-1.55.228-1.307.532-1.033 1.307-.53 1.276v1.579l.53 1.305 1.033 1.002 1.307.532 1.55.245v.272l-1.291 5.453-1.824 5.726-2.338 5.696-2.597 5.484-5.984 10.617-6.487 9.387 1.807-5.194 3.645-7.807 2.34-5.956.517-3.387.516-3.645v-3.387l-.516-3.614-1.033-3.387-1.566-3.388-2.08 2.354-2.08 2.611-1.534 2.569-1.307 2.855-1.822 6.228-.777 6.258v5.97l.26 5.452.79 4.693.758 3.616-.242.775-1.306.258-1.033-.532-.79-1.276-.775-1.837-1.29-4.421-1.824-4.42 1.033-.775.517-1.305.274-1.276-.274-1.292-1.033-1.048-1.033-.775-1.55-.227-1.305.501-1.033.775-.775 1.305-.259 1.276.517 1.307.775 1.033.775.775 1.047.258h1.291l1.55 3.888 1.307 4.951 1.29 5.195.258 4.664-4.42 12.212-1.032-.759-.759-1.307-1.307-3.114-.258-2.354.516-2.309 1.049-4.42v-2.08l-1.049-2.871-1.823-3.358-3.114-4.177v1.565l-.516 1.806-1.306 4.422-1.55 5.194-.242 2.612.242 2.583.517 1.55 1.306 1.564 2.066 1.306 2.597 1.034 1.307.773 1.033 1.307 1.822 2.855-1.29 4.147v1.306l.257.775.258.259h.516l1.292-.791 1.033-1.549 1.564-4.664 2.081-2.338 3.374-2.339 1.82-.776 1.808-.531h1.824l1.82.532v1.306l.759 1.307 1.049 1.002 1.292.775h1.822l1.291-.501 1.307-1.276.515-1.307.258-1.838-.773-1.276-1.033-1.306-1.565-.774h-1.306l-1.534.501-1.049.775-.775 1.306-3.113-.502-3.113.243-2.871 1.033-2.34 1.566 2.082-5.728 1.822-1.806 2.34-1.565 2.597-1.276 3.113-.805 4.42-.502 5.18-1.306 2.597-1.033 2.34-1.549 2.08-1.58 1.564-2.309 2.34-3.919 1.033-1.276 1.291-1.305-2.081-.532-3.098-.502-6.244-.273-3.113.776-3.129 1.836-2.597 2.325-1.55 2.338-1.806 3.616-2.34 3.145-2.34 2.05-2.856 1.58 2.082-4.695 1.807-3.614 7.017-10.921 2.856-1.581 2.916-1.153 4.086-.653 3.129-.229 4.937-.804 4.42-1.55 3.889-2.583 3.387-3.143 2.855-3.614 1.823-3.89 1.017-3.888v-4.178l-2.323 2.34-2.856 1.55-3.387 1.305-3.63.532m-50.427 120.026-1.822 1.549-1.292 1.838-1.823 4.146-.775 3.889v7.807l-.775 3.387-1.29-5.725-2.082-7.534-2.855-7.52-1.565-3.143-1.548-2.34.516-1.276v-1.305l-.516-1.307-.79-1.033-1.535-.775h-1.563l-1.307.274-1.292 1.033-.774 1.305v1.55l.516 1.534 1.033 1.064 1.049.774 1.548.244 1.291-.244 1.292-1.032v.501l2.338 5.194 2.082 5.453 1.564 5.726 1.291 5.97 1.565 12.212.517 11.422-1.246-2.187-.775-2.886-1.352-8.415-1.822-6.227-1.55-3.144-1.806-3.099-2.082-2.871-2.597-2.309-2.856-2.354-3.129-1.564-.517 3.144v3.083l1.033 6.228 2.34 5.998 3.129 5.455 3.615 4.92 3.645 4.164 3.373 3.371 2.855 2.354v.76l-.776 1.047-1.016.258-1.565-.53-1.564-1.034-3.631-2.855-2.081-1.307-2.08-1.033.258-1.305-.258-1.534-.761-1.049-1.047-.775-1.291-.532-1.306.274-1.291.776-.791 1.03-.516 1.307.258 1.535.79 1.048 1.034 1.033 1.031.274h1.292l1.033-.532.79-.775 3.63 2.339 4.162 3.115 4.162 3.387 3.114 3.387 3.614 12.455h-1.033l-1.548-.502-2.857-1.838-1.548-1.548-1.049-2.082-1.822-4.146-1.549-1.838-2.325-1.55-3.387-1.837-4.937-1.002.776 1.002.774 1.837 1.565 4.421 1.806 4.921 1.307 2.354 1.822 1.807 1.534 1.033 1.824.274h2.338l2.857-1.047h1.564l1.565.516 3.113 1.032 1.535 4.177.79 1.018.515.532h.517l.516-.532.532-1.307-.274-1.807-1.549-4.389.516-3.387 1.033-3.89.791-1.837 1.291-1.306 1.564-1.276 1.55-.532 1.033 1.033 1.305.501 1.55.274 1.307-.274 1.29-1.002 1.048-1.307.259-1.534-.517-1.58-.79-1.564-1.548-.775-1.566-.243-1.563.501-1.292.777-.759 1.031-.274 1.55v1.305l-2.855 1.581-2.34 2.065-1.548 2.612-1.049 2.583-1.534-5.726.243-2.841 1.033-2.612 1.307-2.325 1.806-2.611 3.387-3.115 3.114-4.146 1.565-2.339 1.033-2.582.517-2.613v-2.855l-.517-4.679-.258-1.549.516-1.838-2.081 1.063-2.855 1.55-4.937 3.387-2.081 2.583-1.291 3.113-.79 3.372.273 3.113.777 3.919v3.615l-.518 3.387-1.564 2.857-1.824-9.084-1.033-12.729 1.292-3.144 2.081-2.84 2.339-2.583 2.597-2.354 3.387-3.373 2.597-4.16 1.536-4.421.79-4.42v-4.389l-1.049-4.421-1.534-3.645-2.34-3.356-.531 3.082-1.291 3.115-1.823 3.144zm33.522 126.024-.517 2.355.259 2.066.776 4.42 1.807 3.646 2.08 2.855 2.597 3.645 1.291 2.855-4.403-3.659-6.229-4.922-6.76-4.42-2.855-1.307-2.855-.759-.258-1.55-.791-1.063-1.29-.774-1.307-.243-1.549.243-1.29.776-1.033 1.305-.259 1.564.259 1.581.759 1.002 1.305 1.033 1.55.272 1.307-.272 1.29-.502.79-1.032.517-1.581.516.274 4.937 2.612 4.936 3.342 4.663 3.662 4.678 4.146 8.567 8.581 7.291 8.841-2.551-1.17-2.127-1.944-6.227-5.727-5.454-3.888-2.855-1.581-3.387-1.305-3.373-.775-3.387-.501h-3.63l-3.646.501 1.565 2.886 4.162 4.663 2.339 2.066 5.453 3.388 5.711 2.612 5.727 1.534 5.438 1.307 4.677.531 3.632.242.79.532v1.307l-.79.775-1.55.501h-1.824l-4.677.273-4.921.502-.517-1.307-.79-1.002-1.291-.548h-1.306l-1.55.548-.79 1.002-.517 1.307-.242 1.306.759 1.565.79.775 1.292.501 1.564.272 1.033-.531.79-.776.759-.773.259-1.307 4.162-.227h5.193l5.454.227 4.42.804 10.374 7.535-.76.775-1.563.501-3.374.501-2.338-.501-2.081-1.033-3.888-2.08-2.082-.501h-3.128l-3.615.773-4.679 1.808 1.292.501 1.564.776 3.888 2.87 4.678 2.612 2.34 1.018 2.597.532h1.822l1.55-1.049 1.824-1.564 1.806-2.324 1.291-.759 1.307-.805 3.372-.776 3.646 2.082 1.033.532h.79l.515-.274.258-.501-.532-1.564-1.29-1.276-3.903-2.612-1.807-2.886-1.307-3.616-.258-2.081v-1.806l.516-1.839 1.048-1.534 1.291.258 1.564-.258 1.291-.775.776-1.306.516-1.549v-1.565l-.775-1.306-1.292-1.017-1.563-.533h-1.55l-1.564.775-1.033 1.306-.516 1.549.242 1.307.532 1.29 1.033 1.049-1.565 2.841-.516 3.113v3.129l1.048 2.597-4.937-3.645-1.306-2.309-.76-2.611-.516-2.857.258-2.87.501-4.695v-5.179l-.243-2.855-.516-2.583-1.306-2.611-1.565-2.066-3.372-3.388-1.033-1.307-.53-1.548-1.292 1.838-1.307 2.855-1.806 5.97-.259 3.113 1.048 3.373 1.276 3.112 2.081 2.356 2.855 2.84 2.339 2.855 1.565 3.144.517 2.841-3.889-3.144-2.87-2.841-8.567-9.614-1.049-3.114v-3.616l.274-3.659.775-3.342.775-4.694-.517-4.922-1.307-4.419-2.066-3.919-2.871-3.616-3.371-2.855-3.373-2.08-3.903-1.065 1.565 2.887.774 3.113.258 3.616-.516 3.646m179.567 117.154h5.453l3.129-.775 2.855-1.534v-.532l-.515-.775-3.645-1.305-5.454-2.082-3.129-1.534-3.373-1.822-4.935-2.597-3.374-1.018-2.338-.804-1.306-.761-1.534-1.581-2.855-4.145-2.082-5.193-.273-2.341v-2.081l1.306-.501 1.049-1.047.759-1.307.259-1.276-.532-1.565-.76-1.306-1.291-1.033-1.822-.243-1.55.501-1.307 1.033-.79 1.306-.243 1.55.244 1.58.791 1.032 1.305 1.033 1.292.243.258 4.146 1.032 5.195 1.549 4.421 1.049 1.837 1.033 1.018-5.984-.517-2.325-1.305-2.066-1.808-2.08-2.066-1.307-2.855-1.822-4.147-2.857-4.694-1.549-2.08-2.081-1.838-2.08-1.534-2.597-1.018-4.679-1.064-1.306-.775-1.535-1.031v2.338l.501 3.114 1.307 5.97 1.549 2.87 2.596 2.583 2.857 1.807 2.871.774 3.888.805 3.387 1.534 2.857 1.581 2.338 2.309-5.193-.776-3.906-.758-12.469-3.89-2.34-2.08-1.806-3.145-1.566-3.084-1.291-3.113-1.822-4.693-2.857-3.645-3.645-3.114-3.888-2.583-4.161-1.549-4.148-.791-4.161.26-3.903 1.047 2.597 1.534 2.596 2.355 2.082 2.841 1.306 3.387 1.033 2.339 1.048 1.806 3.114 3.115 3.614 2.354 3.129 1.291 3.89 1.55 2.871 2.08-6.198-.896-7.579-.912-7.793-.272-3.387.272-2.84.761-1.033-1.033-1.307-.501h-1.305l-1.292.501-1.291 1.033-.531 1.306-.258 1.58.516 1.275 1.048 1.307 1.291.775h1.564l1.549-.517 1.034-.759.774-1.307.274-1.58-.532-1.275h.532l5.711-.259 5.711.259 5.984.501 6.229 1.048 11.68 3.114 10.921 3.614-5.469-.243-8.567-1.534-6.501-.53-3.356.227-3.387.532-3.373 1.047-3.387 1.307-3.114 1.807-2.597 2.34 2.855 1.549 2.857 1.306 3.129.759 3.113.548h6.243l6.228-.777 5.97-1.577 5.194-1.808 4.162-2.082 3.372-1.564h.775l.774 1.307-.242 1.032-1.049 1.048-1.565 1.306-4.147 2.34-1.822 1.276-1.823 1.563-1.032-.79-1.291-.241-1.55.242-1.049.791-.773 1.047-.517 1.307.259 1.534.774 1.047 1.032 1.033 1.307.274 1.55-.274 1.031-.774.777-.775.53-1.063v-1.276l-.273-1.033 3.387-2.612 4.42-2.583 4.663-2.611 4.162-1.551h3.646l3.373.776 3.098.773 3.129.502 1.822.273 2.066.805 4.162 2.568 3.904 2.856 3.372 3.113m109.407-390.789-13.776-10.89 17.68.501 5.954-15.843 4.936 16.344 17.681.775-14.537 9.614 4.922 17.407-14.277-11.149-14.81 9.873zm77.692 120.314-17.664-1.565 15.327-9.082-3.89-16.633 13.246 11.178 15.083-9.112-6.761 16.115 13.763 11.681-18.181-1.533-6.761 16.373-4.16-17.422m-16.374 131.493-12.988-12.227 17.407 2.339 7.276-15.6 3.645 16.876 17.665 2.354-15.584 8.567 3.616 17.681-13.23-12.486-15.6 8.567zm-91.196 92.23-3.114-17.423 12.73 12.501 15.324-8.081-7.275 15.615 12.137 12.197-17.407-2.354-7.201 16.146-3.372-17.68-17.679-2.354z"/><path fill="#efae0e" d="m488.621 101.111 2.081-1.307 2.065-.775 4.42-.532 4.162.258 3.374.777 4.145 1.031h3.373l-5.18-2.567-6.76-3.918-6.485-4.663-2.597-2.34-1.824-2.08h-1.307l-1.29-.274-1.306-.76-.76-1.306-.258-1.549.258-1.306.76-1.306 1.306-1.033 1.564-.243 1.55.243 1.305.805.777 1.275.257 1.566v1.275l-.775 1.306-1.048.776.274.257 4.404 3.661 4.664 3.34 5.194 3.116 5.469 2.886 11.422 4.692 10.921 3.343-2.082-1.535-2.597-1.549-7.533-3.646-5.726-3.645-2.597-2.08-2.309-2.583-2.082-2.871-1.822-2.855-1.307-3.387-.775-3.646 3.114.532 3.115.773 2.87 1.034 2.855 1.58 5.18 3.889 4.42 4.389 3.63 4.679 3.129 4.42 2.325 4.161 1.548 3.387.776.228 1.306-.501.258-1.033v-1.307l-.516-1.806-1.824-4.39-1.29-4.694h-1.307l-1.291-.5-.775-1.08-.517-1.276V89.14l.517-1.291.776-1.049 1.549-.5h1.306l1.29.5 1.049 1.049.517 1.291v1.047l-.259 1.308-.79.774-.775.76 1.049 4.162 2.066 4.647 2.08 4.968 2.597 3.873 10.921 6.774.258-1.307v-1.275l-1.047-3.417-1.033-1.779-1.823-1.563-3.372-2.856-1.291-1.838-1.29-2.856-.517-3.872v-4.968l1.016 1.048 1.307 1.307 3.89 2.583 4.419 3.112 1.823 1.839 1.306 2.309.516 1.579v2.065l-.79 2.082-1.548 2.612-.517 1.276v1.838l.517 3.113 3.373 2.583.773 1.033.274.775v.53l-.532.245-1.55.272-1.564-.775-3.903-2.611-3.373-.502h-3.887l-2.066.501-1.824.776-1.564 1.063-1.033 1.548.775 1.291.258 1.276v1.581l-.775 1.305-1.306 1.034-1.549.242h-1.565l-1.55-.775-1.031-1.305-.259-1.534v-1.55l.775-1.565 1.306-.775 1.291-.501h1.306l1.534.501 2.082-2.354 2.596-1.806 2.871-1.034h2.857l-5.195-3.387-2.597-.258-2.857.258-2.855.532-2.597 1.276-4.163 2.354-4.678 2.065-2.855.776-2.597.273h-2.856l-2.597-.775-4.164-1.838-1.548-.501h-1.822l1.29-1.808 2.34-2.354 4.679-3.888 2.855-1.291 3.387-.517 3.63.243 2.597 1.033 3.645 1.581 3.616 1.031 3.388.243 3.113-.501-4.679-2.583-3.614-1.579-11.954-4.147-3.387.229-3.374 1.305-3.113 1.55-2.855 1.838-4.162 2.582-4.677 1.306-4.679.258-4.405-.258-4.42-1.306-3.904-2.05-3.113-2.37-2.597-3.084 3.371.229 3.129-.501 3.372-1.033 3.129-1.808m112.233 64.191 2.597.272 2.082.501 3.888 2.112 3.114 2.841 2.081 2.855 2.597 3.372 2.597 2.08-2.339-5.452-2.855-7.276-2.597-7.533-.518-3.388v-2.841l-1.291-.775-.79-1.033-.515-1.305.258-1.307.532-1.548 1.29-1.033 1.291-.532h1.55l1.564.774 1.033 1.033.516 1.564-.242 1.55-.532 1.307-1.034 1.031-1.305.517h-1.291v.532l1.291 5.454 1.564 5.694 2.34 5.485 2.597 5.695 5.97 10.39 6.759 9.614-1.824-5.194-3.888-7.776-2.081-6.26-.774-3.356-.517-3.373v-3.387l.517-3.644 1.033-3.387 1.564-3.342 2.324 2.338 1.807 2.583 1.566 2.612 1.306 2.841 1.822 6.227.776 6.228.257 5.999-.517 5.423-.516 4.693-1.048 3.616.517.805 1.306.242 1.033-.515.759-1.307.532-1.806 1.29-4.422 1.823-4.419-1.033-1.033-.532-1.033-.242-1.307.501-1.276.79-1.305 1.291-.501 1.306-.274 1.291.274 1.307 1.002.517 1.062.258 1.55-.258 1.307-.777 1.002-1.047.532-1.033.531-1.016-.259-1.567 4.147-1.563 4.937-1.034 5.211-.53 4.663 4.42 11.954 1.047-.532.775-1.276 1.307-3.387.243-2.067-.243-2.354-1.049-4.42v-2.309l.775-2.885 1.807-3.373 3.13-3.888v1.534l.515 1.853 1.565 4.42 1.292 4.922.258 2.839v2.614l-.776 1.548-1.306 1.566-1.806 1.047-2.871 1.276-1.033.79-1.307 1.276-1.534 2.886 1.018 4.147v1.806l-.517.548h-.501l-1.305-.775-.777-1.579-1.563-4.679-2.339-2.323-3.114-2.34-1.807-1.033-1.824-.273-2.08-.273-1.807.804v1.276l-.518 1.307-1.047 1.033-1.55.546-1.563.258-1.55-.804-1.033-1.033-.775-1.534v-1.55l.517-1.579 1.033-1.033 1.563-.775h1.55l1.291.516 1.034.791.79 1.276 3.372-.501 3.129.242 2.855 1.063 2.309 1.55-2.309-5.726-1.824-1.824-2.338-1.837-2.597-1.002-2.857-.776-4.677-.531-4.937-1.55-2.597-1.062-2.34-1.276-2.066-1.566-1.822-2.323-2.339-4.177-.776-1.276-1.564-1.033 2.082-.546 3.372-.501 5.984-.259 3.373.76 2.855 1.853 2.611 2.309 1.81 2.338 1.822 3.646 2.08 2.855 2.583 2.34 2.597 1.548-2.081-4.92-1.806-3.387-7.003-10.921-2.871-1.808-3.373-1.033-3.372-.546-3.387-.229-4.936-.775-4.42-1.563-3.904-2.583-3.373-3.145-2.597-3.63-1.806-3.888-1.033-4.146v-3.92l2.338 2.082 2.857 1.838 3.372 1.275 3.371.532m50.672 119.766 1.564 1.809 1.291 1.807 1.807 3.919.776 4.147.258 3.63v4.177l.773 3.083 1.307-5.423 2.081-7.806 2.597-7.534 1.535-2.872 1.564-2.323-.517-1.307v-1.305l.517-1.276 1.049-1.307 1.291-.532 1.564-.226 1.549.5 1.033 1.033.775 1.307v1.548l-.258 1.565-1.018 1.047-1.306.761-1.292.243-1.564-.501-1.033-.776-.274.273-2.338 5.18-2.066 5.696-1.55 5.727-1.29 5.971-1.565 12.226-.532 11.422 1.048-2.324.775-2.871 1.807-8.309 1.823-6.5 1.292-3.114 1.822-2.841 2.34-2.855 2.338-2.612 2.855-2.067 3.388-1.822.244 3.388v3.113l-.244 3.084-.791 3.143-2.338 5.97-3.114 5.453-3.373 4.922-3.644 4.16-3.373 3.388-2.869 2.066-.245 1.048.777 1.033h1.29l1.307-.502 1.548-1.047 3.904-2.597 2.081-1.55 2.081-1.033-.517-1.307.258-1.305.777-1.049 1.016-.759 1.307-.546 1.563.303 1.034.501 1.048 1.276.258 1.307-.258 1.305-.532 1.307-1.291.775-1.047.501h-1.034l-1.048-.501-1.016-.776-3.632 2.34-4.162 3.113-3.904 3.358-3.373 3.387-3.644 12.485h1.307l1.29-.531 3.129-1.808 1.291-1.58 1.307-2.05 1.534-4.177 1.564-1.807 2.34-1.808 3.646-1.58 4.935-1.032-1.047 1.032-.776 1.839-1.306 4.389-2.065 4.968-1.291 2.065-1.823 2.08-1.306.776-2.066.531-2.339-.274-2.87-.759h-1.292l-1.823.227-3.114 1.307-1.549 4.162-.517.759-.773.532h-.517l-.532-.258-.516-1.276.258-1.839 1.565-4.663-.258-3.143-1.049-3.888-1.033-1.808-1.306-1.534-1.291-1.049-1.823-.775-1.032 1.276-1.307.548-1.276.258-1.565-.532-1.306-.775-.774-1.305-.259-1.808.259-1.566 1.048-1.305 1.29-.775 1.565-.243 1.535.243 1.305 1.033.776 1.047.531 1.566-.274 1.275 2.871 1.581 2.34 2.065 1.548 2.612 1.049 2.583 1.806-5.956-.515-2.611-.775-2.612-1.307-2.583-2.08-2.338-3.113-3.115-3.373-4.161-1.306-2.583-1.033-2.338-.775-2.613v-2.841l.776-4.694V308.2l-.533-1.808 2.082.775 2.855 1.58 4.952 3.613 2.08 2.583 1.55 3.114.517 3.373-.259 2.885-.516 4.148-.258 3.63.774 3.371 1.048 2.855 1.291-5.193.776-3.89 1.047-12.728-1.306-3.114-2.081-2.871-2.324-2.855-2.597-2.081-3.387-3.615-2.597-3.918-1.567-4.421-.758-4.389.243-4.679.79-4.163 1.549-3.887 2.34-3.115.774 3.115 1.032 3.129 2.082 2.84 2.597 2.612m-33.491 125.995.256 2.339v2.34l-1.031 4.389-1.824 3.661-2.08 2.84-2.597 3.387-1.307 3.115 4.42-3.616 6.243-4.968 6.76-4.417 3.098-1.536 2.597-.775.517-1.305.774-1.033 1.048-.777 1.565-.272 1.534.274 1.305.775.777 1.033.257 1.548-.259 1.565-.775 1.306-1.305 1.048-1.276.228-1.565-.226-1.306-.806-.776-1.018-.515-1.307-.258.243-4.937 2.613-4.936 3.387-4.937 3.616-4.663 3.917-8.324 8.81-7.534 8.841 4.679-3.114 6.501-5.727 5.179-3.888 3.114-1.579 3.129-1.276 3.373-1.033 3.63-.531h3.387l3.646.773-1.566 2.614-1.822 2.597-2.34 2.323-2.338 2.082-5.438 3.373-5.712 2.337-5.726 1.824-5.453 1.307-4.677.501h-3.646l-.516.79v1.274l.774.777 1.306.53h6.745l4.677.517.516-1.049 1.034-1.033 1.306-.501h1.306l1.291.501 1.049 1.033.515 1.307v1.306l-.515 1.307-1.049 1.002-1.291.547h-1.306l-1.306-.274-.775-.774-.517-1.034-.243-1.033-4.42-.516h-5.194l-5.195.516-4.678.791-10.389 7.533 1.033.775 1.305.501 3.63.274 2.082-.274 2.08-1.033 3.889-2.338 2.34-.517h2.855l3.888 1.049 4.679 1.806-1.55.532-1.55.775-3.902 2.611-4.42 2.841-2.597 1.049-2.34.501-1.793-.274-1.822-.759-1.823-1.549-1.822-2.34-1.033-.774-1.566-.775-3.113-.805-3.888 2.112-1.033.501h-.791l-.515-.259v-.516l.258-1.564 1.306-1.276 3.888-2.612 1.824-2.841 1.29-3.888.516-1.838v-2.051l-.516-1.837-1.032-1.55-1.55.243-1.307-.243-1.305-.532-1.033-1.306-.517-1.534.258-1.58.775-1.276 1.047-1.306 1.535-.258h1.823l1.306.759 1.033 1.307.532 1.306v1.549l-.532 1.306-1.033 1.033 1.291 2.857.776 3.113-.244 3.113-1.049 2.613 4.937-3.661 1.307-2.308 1.032-2.614.258-2.839v-3.114l-.516-4.42-.257-5.469.257-2.611.776-2.583 1.047-2.612 1.534-2.035 3.387-3.388 1.034-1.306.774-1.807 1.048 2.08 1.307 2.84 2.064 5.97v3.145l-.773 3.356-1.565 3.113-1.807 2.34-3.13 2.583-2.414 3.143-1.551 3.113-.424 2.841 4.146-3.373 2.855-2.581 8.583-9.614.774-3.387v-3.374l-.258-3.659-.775-3.373-.516-4.92.258-4.694 1.55-4.39 2.08-4.177 2.583-3.356 3.387-2.887 3.63-2.066 3.646-1.305-1.307 2.87-1.032 3.388v3.356zM438.207 528.278l-2.338.258h-3.129l-3.114-.776-2.583-1.838-.258-.501.759-.501 3.388-1.305 5.453-2.082 3.387-1.564 3.114-2.081 5.194-2.309 3.114-1.306 2.325-.532 1.564-.775 1.291-1.548 2.871-4.42 2.066-4.953.517-2.309-.245-2.08-1.305-.532-1.033-1.033-.775-1.306-.258-1.549.516-1.55 1.049-1.306 1.29-.759 1.549-.274 1.55.532 1.306.775.776 1.548.272 1.566-.274 1.549-.774 1.032-1.306 1.033-1.291.274-.259 4.146-.774 4.937-1.807 4.679-.776 1.806-1.306 1.049 6.229-.532 2.354-1.276 2.065-1.837 1.823-2.325 1.55-2.611 1.806-4.148 2.597-4.693 1.567-2.066 2.08-2.05 2.339-1.307 2.324-1.048 4.677-1.291 1.55-.546 1.565-1.033-.258 2.338-.258 3.114-1.566 5.97-1.534 2.87-2.338 2.325-3.129 2.096-2.597.775-3.89.774-3.644 1.306-2.857 1.806-2.08 2.34 5.194-.759 3.904-.775 12.212-3.918 2.34-2.34 2.08-2.855 1.535-3.113 1.048-3.373 2.081-4.435 2.855-3.874 3.373-3.113 3.902-2.354 4.164-1.535 4.419-.774 4.146.258 3.646 1.017-2.597 1.566-2.34 2.323-2.081 2.87-1.565 3.388-.773 2.081-1.307 2.067-3.098 3.113-3.373 2.08-3.387 1.581-3.889 1.533-2.611 1.808 5.725-.76 7.792-.774 8.066-.274 3.373.274 2.597.774 1.016-1.048 1.307-.531h1.307l1.549.273 1.033 1.033.791 1.549v1.565l-.518 1.306-1.047 1.307-1.292.501-1.565.274-1.564-.532-1.017-1.049-.517-1.033-.258-1.548.258-1.307h-.258l-5.726-.259h-5.97l-5.984.777-5.97 1.061-11.939 2.841-10.921 3.888 5.712-.258 8.307-1.55 6.502-.501 3.372.229 3.646.546 3.373.759 3.112 1.55 3.129 1.838 2.856 2.309-2.856 1.58-3.129 1.306-2.855.775-3.114.501h-6.502l-6.228-.775-5.726-1.564-5.18-1.823-4.42-2.067-3.114-1.806-.776.258-.789 1.016.274 1.293 1.033 1.047 1.564 1.033 3.888 2.613 2.082 1.276 1.822 1.58 1.018-.776 1.307-.272 1.291.272 1.305.776.777 1.032-.215 1.428.213 1.155-.516 1.305-1.292.805-1.305.502-1.307-.273-1.29-.775-.761-.76-.272-1.305v-1.049l.272-1.002-3.387-2.612-4.419-2.871-4.679-2.324-4.42-1.566h-3.63l-3.357.761-3.129.774-2.856.273-2.08.501-1.823.805-4.147 2.34-4.162 3.113-3.372 2.857m-49.724-91.065-6.573-2.814 3.599 6.224-4.839 5.543 7.148-1.595 3.763 6.503.714-7.533 7.271-1.607-6.876-2.949.697-7.377zm122.084.127 6.573-2.808-3.596 6.211 4.841 5.548-7.152-1.6-3.768 6.516-.71-7.544-7.264-1.606 6.863-2.947-.686-7.381zm-61.509-292.407a2.73 2.73 0 0 0-2.728 2.731 2.728 2.728 0 0 0 4.661 1.935 2.736 2.736 0 0 0 0-3.865 2.73 2.73 0 0 0-1.933-.801M334.297 197.88a2.74 2.74 0 0 0-2.734 2.735 2.732 2.732 0 1 0 4.664-1.932 2.73 2.73 0 0 0-1.93-.803m-35.054 73.818a2.73 2.73 0 0 0-2.673 2.734 2.733 2.733 0 0 0 2.673 2.735 2.734 2.734 0 1 0 0-5.469m4.237 69.572a2.73 2.73 0 0 0-1.924.805 2.72 2.72 0 0 0-.794 1.929 2.73 2.73 0 0 0 2.718 2.738 2.737 2.737 0 0 0 0-5.472m216.072-179.69a2.74 2.74 0 0 1 2.728 2.735 2.74 2.74 0 0 1-.462 1.517 2.733 2.733 0 0 1-4.791-2.569 2.73 2.73 0 0 1 2.525-1.683M411.324 444.332l-3.465-.93.53-1.978c.924.206 1.577.316 1.97.333.608.025 1.167-.108 1.63-.4.323-.197.603-.502.852-.909.151-.24.235-.433.274-.563l2.411.649-3.938 14.805-2.964-.796zm30.279-.155-.09 2.36c-.473.426-1.128 1.19-1.979 2.292a21 21 0 0 0-2.145 3.441c-.472.928-.912 2.074-1.3 3.434-.412 1.36-.627 2.475-.658 3.356l-3.116-.127c.195-2.744 1.214-5.565 3.044-8.451 1.182-1.791 2.153-3.036 2.935-3.731l-7.609-.316.151-2.705zm23.757.322v2.358q-.675.67-1.874 2.373a22 22 0 0 0-2.01 3.52c-.432.955-.807 2.121-1.157 3.488-.35 1.378-.531 2.506-.531 3.383h-3.116c.098-2.745.992-5.6 2.701-8.572 1.107-1.835 2.03-3.119 2.762-3.839h-7.608l.045-2.713h10.788m21.677-3.011c-.913-.636-2.074-.89-3.486-.748-.988.1-1.795.412-2.454.934a5.24 5.24 0 0 0-1.526 1.948c-.412.918-.638 2.029-.687 3.343-.023.741.028 1.689.138 2.861.205 1.98.723 3.561 1.564 4.745 1.053 1.51 2.547 2.173 4.48 1.971 1.776-.18 3.026-.86 3.767-2.033.743-1.169 1.023-2.465.891-3.889-.141-1.428-.697-2.558-1.647-3.394-.969-.826-2.112-1.177-3.457-1.036a4.2 4.2 0 0 0-1.64.477c-.473.253-.861.62-1.2 1.095-.03-1.185.032-2.091.196-2.714q.447-1.703 1.901-1.853c.647-.066 1.165.12 1.53.563.215.283.339.545.357.789l2.974-.307c-.22-1.197-.79-2.117-1.701-2.752m-135.393-26.901-2.075-2.297q.689-.824.775-1.505c.112-.82-.25-1.708-1.118-2.653q-.772-.848-1.432-1.214c-.85-.447-1.604-.378-2.25.219a1.35 1.35 0 0 0-.432 1.298c.107.518.4 1.204.892 2.065l.833 1.468c.828 1.444 1.28 2.54 1.397 3.288.161 1.258-.31 2.402-1.424 3.436-1.034.938-2.224 1.342-3.588 1.216-1.369-.127-2.712-.914-4.025-2.371-1.111-1.204-1.724-2.535-1.863-3.98q-.2-2.165 1.568-3.898l2.105 2.31c-.647.674-.873 1.423-.647 2.254.138.546.473 1.102.984 1.647.555.624 1.129 1.005 1.713 1.146.586.14 1.098.012 1.55-.402q.614-.561.419-1.383c-.07-.361-.367-1.002-.892-1.936l-1.324-2.417c-.583-1.057-.903-1.969-.969-2.732q-.122-1.77 1.411-3.17c1.044-.961 2.286-1.355 3.712-1.187 1.417.169 2.8.992 4.132 2.456 1.365 1.5 2.089 2.989 2.196 4.475.096 1.482-.453 2.774-1.648 3.867m-24.758-21.272 2.076-1.736 4.82 5.818 3.065-2.549-5.486-6.64 2.146-1.79 7.522 9.084-11.95 9.952-7.271-8.788 2.118-1.767 5.251 6.344 2.53-2.117zm-4.958-24.454-10.19 12.975 1.949 3.113 16.084-3.616-1.81-2.878-3.271.795-3.056-4.851 2.174-2.557zm-9.407-14.897 2.565-1.101 4.292 10.092-14.271 6.116-1.275-2.987 11.705-5.026zm-1.547-95.61-.774 3.181-12.409-3.019-1.098 4.55-2.677-.653 2.959-12.258 2.678.65-1.098 4.523zm-3.742-17.609 2.388-5.598-5.445-2.327 1.267-2.972 14.27 6.114-1.26 2.982-6.371-2.736-2.391 5.601 6.371 2.729-1.258 2.967-14.28-6.122 1.273-2.967zm14.193-26.342 2.276 1.45-4.045 6.386 3.359 2.148 4.615-7.275 2.358 1.51-6.319 9.954-13.095-8.365 6.114-9.638 2.321 1.48-4.409 6.955 2.773 1.776zm26.013-22.855 2.257-2.13c.55.447 1.065.7 1.507.764.819.1 1.701-.284 2.636-1.165.555-.525.957-1.016 1.183-1.466.44-.855.354-1.609-.251-2.247-.343-.381-.776-.514-1.296-.408-.529.109-1.195.416-2.046.925l-1.454.863c-1.418.841-2.508 1.323-3.25 1.434-1.249.194-2.388-.259-3.434-1.377-.963-1.012-1.383-2.209-1.272-3.574.109-1.369.873-2.721 2.301-4.063q1.786-1.694 3.942-1.931c1.429-.163 2.732.342 3.905 1.506l-2.271 2.144c-.689-.642-1.42-.847-2.255-.614-.555.164-1.098.494-1.642 1.016-.599.573-.986 1.153-1.109 1.745q-.192.887.421 1.542.57.607 1.388.405.531-.125 1.913-.927l2.391-1.369c1.034-.601 1.937-.931 2.712-1.002 1.172-.102 2.237.35 3.176 1.362.976 1.03 1.383 2.267 1.228 3.695-.132 1.431-.946 2.831-2.379 4.192-1.467 1.388-2.948 2.149-4.42 2.269q-2.214.18-3.881-1.589m26.039-14.811-2.733 1.793-7.006-10.718-3.903 2.564-1.506-2.306 10.511-6.921 1.51 2.309-3.879 2.554zm22.039-11.521-11.548-11.779-3.322 1.554 1.545 16.466 3.07-1.439-.376-3.356 5.184-2.428 2.25 2.476zm14.567-4.53-3.144.882-3.43-12.349-4.496 1.263-.734-2.663 12.105-3.392.741 2.666-4.474 1.242zm20.876-13.806.403 2.668-7.446 1.148.596 3.958 8.49-1.304.427 2.766-11.63 1.777-2.343-15.397 11.266-1.724.406 2.725-8.124 1.242.499 3.274zm41.616-5.77c-2.216-.07-3.918.483-5.143 1.652-1.623 1.379-2.47 3.496-2.56 6.348-.096 2.794.627 4.962 2.154 6.501 1.129 1.247 2.796 1.904 5.02 1.977q3.333.11 5.143-1.656 2.414-2.148 2.554-6.342c.085-2.851-.626-5.016-2.145-6.497-1.125-1.247-2.799-1.913-5.023-1.983m-.089 2.753c1.284.042 2.294.553 3.018 1.531.731.982 1.054 2.341.995 4.09-.053 1.747-.475 3.095-1.264 4.015q-1.17 1.393-3.107 1.327c-1.272-.04-2.287-.549-3.016-1.524-.738-.973-1.074-2.339-1.022-4.092.065-1.755.485-3.092 1.28-4.019.79-.925 1.842-1.365 3.116-1.328m29.184 4.756-.872 2.588-7.38-2.477-1.129 3.395 6.454 2.175-.858 2.565-6.457-2.18-2.075 6.196-3.057-1.031 4.939-14.743zm40.661 20.394-2.045 12.349 6.834-8.435 2.345 1.913-9.79 12.086-2.517-2.055 2.03-12.598-6.947 8.59-2.351-1.92 9.796-12.088zm20.947 26.618-1.902 1.912-5.338-5.347-2.82 2.827 6.07 6.101-1.969 1.977-8.317-8.345 10.974-11.013 8.051 8.077-1.939 1.951-5.809-5.828-2.334 2.339zm13.215 18.5 2.165-2.167-2.791 1.259-8.527 3.636-1.712-2.487 10.254-12.493 1.961 2.841-6.139 6.769-1.784 1.784 2.25-1.012 8.349-3.666 1.948 2.827-6.262 6.596-1.759 1.802 2.222-.964 8.562-3.42 1.882 2.72-15.254 5.256-1.764-2.553zm19.938 39.88 1.592 5.869 5.713-1.564.84 3.122-14.968 4.103-.849-3.122 6.691-1.825-1.611-5.877-6.681 1.829-.841-3.108 14.967-4.1.853 3.109zm-4.95 18.214.498 3.366 3.311.602.833 5.681-3.016 1.455.519 3.492 14.555-7.724-.536-3.642zm6.585 4.443 6.326 1.095-5.751 2.814zm-.847 24.211 12.209 2.803v4.68l-15.528.014v-3.033l10.502-.011c.314 0 .735.006 1.273.011.543.007.968.01 1.26.01l-13.035-2.935v-3.162l13.027-2.941q-.445.002-1.261.011c-.546.012-.975.017-1.273.017l-10.502.011v-3.034l15.525-.017v4.731zm-3.768 16.255-.42 3.211 5.542.736-.44 3.277q-.338 2.567.613 4.1c.621 1.022 1.848 1.652 3.657 1.896 1.667.221 2.96-.071 3.872-.892.924-.814 1.476-2 1.682-3.548l.892-6.724zm7.763 4.3 4.53.607-.399 3.009c-.106.762-.35 1.327-.753 1.708-.395.372-.989.508-1.795.403-.783-.105-1.344-.393-1.667-.869-.306-.469-.406-1.087-.317-1.849zm-6.611 15.838-.937 2.97c-.71-.124-1.266-.099-1.688.07-.77.311-1.35 1.08-1.722 2.302-.227.734-.328 1.355-.325 1.863.043.964.473 1.578 1.304 1.845a1.35 1.35 0 0 0 1.344-.287c.401-.353.841-.952 1.332-1.81l.841-1.464c.833-1.431 1.549-2.385 2.146-2.844.993-.785 2.214-.953 3.669-.49q1.989.626 2.851 2.494c.565 1.242.565 2.803-.018 4.676-.493 1.567-1.333 2.775-2.508 3.622-1.17.838-2.548 1.044-4.144.595l.939-2.981c.903.226 1.655.036 2.268-.57.399-.405.717-.967.942-1.688.246-.797.291-1.492.112-2.065a1.63 1.63 0 0 0-1.126-1.143c-.53-.169-.995-.056-1.413.333-.265.247-.675.827-1.215 1.745l-1.419 2.365q-.926 1.555-1.863 2.2-1.467.998-3.435.376c-1.363-.424-2.319-1.299-2.89-2.622-.566-1.317-.549-2.926.041-4.823.606-1.934 1.517-3.317 2.759-4.151 1.228-.828 2.616-1.002 4.155-.518m-3.995 25.042-2.528 5.535 5.37 2.481-1.345 2.936-14.106-6.502 1.355-2.936 6.296 2.898 2.528-5.529-6.295-2.9 1.337-2.933 14.105 6.5-1.338 2.935zm-5.798 22.557-13.241-8.14 1.681-2.759 13.247 8.139zm-4.99 8.826-12.194-9.647-1.959 2.497 4.777 3.782-2.075 2.641c-.584.749-1.133 1.16-1.604 1.235q-.707.093-1.882-.808l-1.154-.878a7 7 0 0 0-1.126-.722 14 14 0 0 0-.787-.353l-2.204 2.816.309.24q.504-.19 1.054.084c.237.116.626.39 1.19.826l.809.649q1.293 1.02 2.183 1.157.91.144 1.91-.436c-.315.858-.294 1.656.052 2.391.317.734.762 1.334 1.352 1.793.483.379.981.643 1.468.78.491.141.988.2 1.517.178a3.85 3.85 0 0 0 1.773-.494c.554-.313 1.189-.886 1.863-1.736zm-26.342 20.816-1.881-1.944 5.421-5.267-2.776-2.875-6.168 6.002-1.943-2.018 8.445-8.204 10.806 11.192-8.181 7.946-1.919-1.983 5.908-5.733-2.291-2.375zM291.519 312.593c-1.17 1.209-1.736 2.926-1.658 5.15q.091 3.338 1.949 5.053c1.45 1.541 3.615 2.266 6.457 2.191 2.779-.077 4.906-.927 6.336-2.546 1.179-1.205 1.736-2.921 1.661-5.147-.054-2.23-.713-3.907-1.948-5.053q-2.274-2.3-6.461-2.183c-2.84.081-4.945.925-6.337 2.535m-1.929-22.46 2.725.005-.011 7.811 3.562.003.023-6.831 2.691.005-.009 6.831 6.505.011-.008 3.242-15.497-.031z"/><path fill="#002a86" d="M482.897 449.254c.348-.349.79-.547 1.301-.6q.938-.102 1.664.547c.48.428.762 1.086.861 1.976.082.799-.058 1.471-.381 2.007-.329.542-.821.85-1.488.912a2.09 2.09 0 0 1-1.752-.607q-.739-.71-.864-1.938c-.105-1.019.121-1.782.659-2.297M321.969 379.94l-6.242 1.575 4.135-4.915zm62.567-216.081-.762-6.404 4.348 4.731zm187.675 234.708c-.646.29-1.332.141-2.07-.445q-1.03-.813-.769-1.849c.098-.392.357-.875.821-1.448l2.264-2.9 3.283 2.592-2.335 2.974c-.439.553-.828.909-1.194 1.076m-270.026-78.073c-.923.794-2.266 1.219-4.011 1.26-1.742.054-3.105-.296-4.069-1.039-.974-.744-1.468-1.753-1.51-3.044-.028-1.291.412-2.325 1.345-3.108.937-.789 2.272-1.195 4.014-1.245 1.756-.048 3.108.291 4.069 1.022.978.731 1.463 1.745 1.507 3.03.031 1.29-.412 2.323-1.345 3.124"/><path fill="#fff" stroke="#000" stroke-width=".485" d="M314.047 300.624h270.355c-.005-34.152-14.33-69.871-38.017-95.004-25.288-26.831-61.125-41.914-97.725-40.459-32.004 1.272-63.689 12.168-87.441 32.604-28.862 24.831-47.172 64.125-47.172 102.859Z"/><path fill="#946922" fill-rule="evenodd" d="m558.208 326.927 25.305-.357-9.029 26.375-8.554 14.495-84.828 8.673-125.221-.238-16.002 4.605-13.822-24.069-9.382-25.444-1.663-11.168 86.016 3.801z" clip-rule="evenodd"/><path fill="#4f9eff" d="M475.947 364.487c-2.774 1.109-42.911 5.755-48.78 8.491-1.91-1.095-8.843 7.255-12.8 2.772-9.87 1.716-24.728 5.933-35.803 4.451-9.799-1.315-26.108 4.118-35.353 3.113 24.137 30.251 64.587 51.373 106.29 52.265 48.583 1.039 101.343-28.752 120.031-73.023.135-.221-21.345-2.068-27.79-1.817 0 0-63.035 2.639-65.795 3.748"/><path fill="#efae0e" fill-rule="evenodd" d="M433.293 300.804a16.207 16.207 0 0 1 32.411.371l-16.205-.186z" clip-rule="evenodd"/><path stroke="#000" stroke-linecap="round" stroke-linejoin="round" stroke-miterlimit="6.3" stroke-width=".813" d="m519.706 307.186-1.47-34.024-.217 6.48-.212 6.359-.705 21.143z" clip-rule="evenodd"/><path fill="#2a1510" fill-rule="evenodd" d="m514.694 272.573-37.87 20.138z" clip-rule="evenodd"/><path stroke="#000" stroke-linecap="round" stroke-linejoin="round" stroke-miterlimit="6.3" stroke-width=".929" d="m514.694 272.573-37.87 20.138"/><path fill="#efae0e" fill-rule="evenodd" d="m469.422 295.932 32.29-9.542c.963 1.063 1.879 2.465 1.261 4.861l-33.19 6.602zm-1.972-3.995 5.293-3.697c.644.734.557 1.76.084 2.941l-4.537 2.856zm-3.528-4.201 25.79-23.522c1.792.644 3.191 1.682 3.865 3.444l-28.143 22.01zm7.141-17.558-11.006 15.038 2.184 1.344 11.846-13.777c-.548-1.329-1.363-2.389-3.024-2.605m-1.513-23.942-13.861 37.216 2.604 1.176 16.214-36.964c-1.501-1.005-3.017-1.958-4.957-1.428m-16.549 16.802-2.857 19.238 2.605.336 4.116-19.154c-1.59-1.047-2.707-.672-3.864-.42m-11.257-21.759 2.1 42.173 3.36-.756.756-41.836c-1.965-.074-3.635-.739-6.216.419m-8.317 22.347 5.628 21.59 2.689-1.512-5.209-20.75c-1.389-.481-2.391-.191-3.108.672M420.49 246.32l16.549 39.904-1.26 1.26-19.826-38.392c1.077-1.649 2.803-2.216 4.537-2.772m-1.177 22.346 14.702 20.498-1.344 1.513-16.214-20.078c.808-1.512 1.83-1.736 2.856-1.933m-19.49-3.696 32.26 26.967-.924 1.428-36.544-25.707c1.358-1.4 3.18-2.181 5.208-2.688m4.537 16.55c-1.073.871-1.644 1.844-1.596 2.94l26.546 12.433.757-1.68zm-16.466 5.292c-.731 1.59-1.22 3.228-.84 5.041l41.332 8.569.588-1.597z" clip-rule="evenodd"/><path fill="#4f9eff" d="M316.163 324.397c36.374 5.938 204.758 15.199 212.623 13.764 2.825-.513 6.904.49 8.968.774 4.75.641 8.723.129 13.718-1.413 4.476-1.386 22.471-4.058 29.014-4.256 2.937-10.93 4.64-21.222 4.64-33.072 0 0-274.941 0-270.782.118"/><path stroke="#000" stroke-width=".465" d="M316.163 324.397c36.374 5.938 204.758 15.199 212.623 13.764 2.825-.513 6.904.49 8.968.774 4.75.641 8.723.129 13.718-1.413 4.476-1.386 22.471-4.058 29.014-4.256 2.937-10.93 4.64-21.222 4.64-33.072 0 0-274.941 0-270.782.118"/><path stroke="#000" stroke-linecap="round" stroke-linejoin="round" stroke-miterlimit="6.3" stroke-width=".813" d="m479.383 314.535.276-4.452 4.2.127-.156-3.854-3.898.157.148-4.092 3.597.131-.109-2.684-3.391-.123.148-3.944 3.074-.126-.132-3.261-2.835.303.104-2.884 2.418.088-.168-4.117-2.1-.084.168-3.948 1.932.084-.168-4.537-1.596-.084.084-3.15 1.386-.042-.19-3.306-.993-.007"/><path fill="#2a1510" fill-rule="evenodd" d="M409.7 256.83 356 290.927z" clip-rule="evenodd"/><path stroke="#000" stroke-linecap="round" stroke-linejoin="round" stroke-miterlimit="6.3" stroke-width=".929" d="M409.7 256.83 356 290.927"/><path stroke="#000" stroke-linecap="round" stroke-linejoin="round" stroke-miterlimit="6.3" stroke-width=".813" d="m479.551 313.527 2.1-57.966 2.352 58.218zm8.821 1.596-6.637-59.31 11.257 58.554z" clip-rule="evenodd"/><path stroke="#000" stroke-linecap="round" stroke-linejoin="round" stroke-miterlimit="6.3" stroke-width=".813" d="m482.051 254.484 19.247 61.541-6.891-.119-1.901-2.851z" clip-rule="evenodd"/><path stroke="#000" stroke-linecap="round" stroke-linejoin="round" stroke-miterlimit="6.3" stroke-width=".929" d="m502.904 314.871.168-8.233m4.2-.168-.252 8.653m-15.625-8.821 20.834.252m2.267.588 4.957-.252v-2.184l-4.873.084.252-2.94h4.537l-.084-2.647-4.117-.126.252-3.108 3.697-1.428.252-3.445-2.521-.503"/><path stroke="#000" stroke-linecap="round" stroke-linejoin="round" stroke-miterlimit="6.3" stroke-width=".813" d="m414.835 258.312 6.498 50.174-2.982.168-.21-2.688-3.796-43.893-.74-2.564 1.848 49.481 6.217 1.008-.715-4.116-5.502-.42-.168-2.604 5.124.168-.378-3.57-4.872-.043-.126-3.36 4.536.084-.42-3.444-4.2.168-.168-3.318 3.78-.546-.336-2.857-3.57.168-.126-3.612 3.276-.084-.42-4.537h-3.066l-.126-4.2 2.562-.252-.462-3.066-2.268.252-.126-3.319 1.974.084-.42-3.78-1.722.252-.84-4.662z" clip-rule="evenodd"/><path stroke="#000" stroke-linecap="round" stroke-linejoin="round" stroke-miterlimit="6.3" stroke-width=".929" d="M346.316 286.323c9.131 14.213 21.305 25.985 33.86 38.018"/><path fill="#2a1510" fill-rule="evenodd" d="m475.994 254.985-81.396 47.384z" clip-rule="evenodd"/><path stroke="#000" stroke-linecap="round" stroke-linejoin="round" stroke-miterlimit="6.3" stroke-width=".929" d="m475.994 254.985-81.396 47.384"/><path stroke="#000" stroke-linecap="round" stroke-linejoin="round" stroke-miterlimit="6.3" stroke-width=".813" d="m414.453 242.335 1.663-24.592m76.037 92.34-4.117-.085-.588-3.696 3.949.084-.672-3.78h-3.529l-.42-2.857h3.276l-.714-4.704-2.982.084-.504-5.04h2.52l-.82-4.285-2.456-.21-.42-3.738 2.184.084-.504-3.025-1.974-.041-.378-3.907 1.596-.084-.712-3.948-1.472-.085-.336-2.772 1.315-.181"/><path fill="#2a1510" stroke="#000" stroke-linecap="round" stroke-linejoin="round" stroke-width=".473" d="M370.096 299.809c-.09 1.291.045 7.811-.255 8.886-.43-.155-13.443-14.908-14.427-16.223zm-9.713-6.657c-.9-.355-1.791-.733-2.663-1.154-1.147-.554-2.213-1.263-3.297-1.931-2.591-1.595-7.663-4.96-7.663-4.96l-1.307 1.01s2.738 1.898 4.01 2.97c2.441 2.058 4.669 4.359 6.921 6.624a231 231 0 0 1 7.781 8.227c2.158 2.394 4.311 4.799 6.297 7.336 1.304 1.666 2.456 3.445 3.683 5.168 5.158 7.238 15.831 22.366 15.831 22.366s5.896.856 9.029 1.158c11.797 1.137 23.334 1.668 35.137 2.732 22.917 2.066 46.033 4.304 68.937 6.505 5.157.495 10.319.881 15.475 1.396 2.248.224 6.682.832 6.682.832s.513-2.132.654-3c.054-.335-.01-.697.119-1.01.114-.271.299-.507.534-.683.495-.37 1.256-.279 1.723-.683.362-.314.856-.791.713-1.248-.069-.22-.412-.208-.624-.297-.505-.212-1.271-.089-1.544-.564-.342-.592-.179-1.595.356-2.02.287-.228.733.077 1.099.06.4-.019.907.107 1.188-.178.414-.42.461-1.207.238-1.753-.086-.209-.456-.112-.661-.206-.45-.207-1.016-.123-1.33-.506-.231-.284-.254-.836 0-1.1.193-.2.555-.037.832-.029.527.015 1.067.289 1.575.148.498-.138.846-.53.869-1.047.02-.448-.548-.803-.968-.891-.687-.143-.97-.622-1.238-1.27-.125-.302-.013-.661.06-.98.087-.386.339-.718.445-1.099.135-.483.269-.985.237-1.485-.019-.319-.308-.604-.267-.921.045-.343.292-.643.535-.891.352-.359.828-.576 1.277-.802.712-.356 1.522-.491 2.228-.861.593-.311 1.213-.631 1.663-1.128.279-.309.363-.753.594-1.099.253-.382.581-.708.861-1.07.386-.498.893-.931 1.129-1.515.172-.425.086-.916.178-1.366.103-.504.289-.987.416-1.485.12-.472.161-.967.327-1.426.305-.845.752-1.637 1.218-2.405.573-.948 1.34-1.766 1.93-2.703.35-.555.778-1.09.951-1.723.096-.354-.008-.734.029-1.099.035-.33.123-.652.178-.98.089-.526-1.844-.294-2.264-.62-.64-.497.753-1.5.756-2.31.003-.691-.497-1.297-.63-1.974-.136-.689-.41-1.441-.168-2.101 3.2-8.702 8.819-26.019 8.819-26.019l-1.594-.695-10.627 29.193s-.34.44-.588.462c-7.32.643-21.884 1.008-21.884 1.008l.042-3.108 4.116-30.873 3.739.041.419-4.704-4.368-.084.924-10.627-2.1-.378-1.134-.42-.672.252.042 1.134 1.512.42.084.924-.546 8.317-2.521-.168-.209 4.704h.84l-3.739 33.94-.083 6.047-1.075 1.679s-6.416-.176-9.623-.268c-8.413-.24-16.839-.254-25.257-.39l.958-8.976 6.35-49.409 4.325.053-.021-3.8-3.746.066.404-7.301 1.589.215-.02-2.451-3.186-.408 2.37-25.672-1.583.133-2.077 25.385-1.991-.093-.153 2.204 1.688.23-.495 7.894-2.816-.155-.394 3.545 3.334.121-7.267 49.289-1.471 9.051c-6.793-.151-13.58-.418-20.35-.986-9.672-.811-19.319-2.127-28.841-4.01-3.726-.738-8.432-1.864-13.306-3.094l6.772-46.716 2.495.119v-4.395l-2.257-.119s.206-5.655.713-8.911c.064-.416.776-.448.95-.831.147-.325.196-.772 0-1.07-.498-.755-1.664-.71-2.495-1.069-.912-.394-1.78-.906-2.732-1.188-.174-.051-.375-.167-.55-.166a.3.3 0 0 0-.163.047c-.41.269-.431.942-.357 1.426.093.597 1.012.943.951 1.544-.387 3.788-.594 9.862-.594 9.862l-1.545.237-.237 4.633 1.544.119-6.619 45.403c-11.489-2.985-22.637-6.167-22.637-6.167l.178 3.772s-9.252-4.062-13.93-5.97a66 66 0 0 0-2.308-.885z"/><path fill="#fff" stroke="#000" stroke-width=".473" d="M429.823 374.727c5.869-2.735 13.653-5.004 21.232-4.077 7.559.926 11.62-.552 13.456-1.847 1.858-1.298 4.255-2.785 8.489-2.223 4.252.544 7.564-.186 10.344-1.3 2.76-1.109 6.24-1.575 8.483-1.109 8.124 1.662 44.418-.475 51.135-3.523-7.878.993-49.973.973-53.895-.507-3.919-1.481-8.378-.785-13.544 1.435-5.161 2.226-8.743 2.526-11.252 1.341-1.413-.648-3.511-.556-4.724.692-1.219 1.255-.743 2.596-6.277 2.596-5.529 0-24.345.295-35.055 2.146 3.952 4.477 9.69 5.281 11.608 6.376Z"/><path fill="#949492" stroke="#000" stroke-width=".473" d="M345.514 387.837c4.918 3.933 54.327-.541 56.919-1.835 2.574-1.3 4.801-2.363 10.516-2.709 6.325-.373 11.332-1.112 16.247-5.996 5.762-4.022-5.545-10.774-13.105-10.008-2.273.231-4.433.192-6.831-.55-1.241-.384-14.641-2.664-29.813-2.27-14.232.37-30.238 3.32-32.939 5.681-.447.404-4.722 1.884-5.203 2.307-3.485 3.064-2.507 5.147 1.067 10.783 1.04 1.626 1.658 3.412 3.142 4.597Z"/><path fill="#000" fill-rule="evenodd" stroke="#000" stroke-linecap="round" stroke-linejoin="round" stroke-miterlimit="6.3" stroke-width=".465" d="m441.706 404.006.462 4.2.336 3.528-3.906 1.933.378-8.779zm15.626-.042-.463 4.2-.336 3.528 3.907 1.933-.378-8.779z" clip-rule="evenodd"/><path fill="#efae0e" fill-rule="evenodd" stroke="#000" stroke-linecap="round" stroke-linejoin="round" stroke-miterlimit="6.3" stroke-width=".465" d="m361.879 336.015.891 5.406 165.912 11.94 44.548 3.347.059-1.663-38.123-3.746z" clip-rule="evenodd"/><path stroke="#000" stroke-width=".697" d="M379.851 216.444c-.066-1.417 1.475-3.064 2.892-3.122 1.498-.062 3.177 1.544 3.317 3.036.131 1.4-1.13 3.235-2.529 3.375-1.637.162-3.602-1.646-3.68-3.289Zm-11.814-14.442c-.067-1.418 1.473-3.065 2.892-3.125 1.499-.065 3.187 1.536 3.328 3.03.132 1.404-1.137 3.244-2.541 3.383-1.636.162-3.601-1.645-3.679-3.288Zm-14.781 48.147c-.644-1.266.084-3.404 1.354-4.042 1.336-.672 3.526.094 4.264 1.395.697 1.227.291 3.428-.933 4.13-1.421.816-3.942-.023-4.685-1.483Zm-15.517-6.701c-.644-1.266.084-3.404 1.354-4.042 1.336-.672 3.526.094 4.264 1.395.697 1.227.291 3.428-.933 4.13-1.421.816-3.942-.023-4.685-1.483Zm-14.617 45.113c-.645-1.267.083-3.404 1.353-4.042 1.336-.672 3.526.094 4.265 1.394.697 1.228.291 3.428-.934 4.131-1.42.815-3.942-.023-4.684-1.483Zm19.154 45.7c-.645-1.266.083-3.404 1.353-4.042 1.336-.671 3.526.094 4.265 1.395.696 1.228.291 3.428-.934 4.131-1.42.815-3.942-.024-4.684-1.484Zm-15.206 4.956c-.644-1.266.084-3.403 1.353-4.041 1.337-.672 3.527.094 4.265 1.394.697 1.228.291 3.428-.933 4.131-1.421.815-3.942-.023-4.685-1.484Zm33.099 32.008c-.644-1.267.084-3.404 1.354-4.042 1.336-.672 3.526.094 4.264 1.395.697 1.227.291 3.428-.933 4.13-1.421.815-3.942-.023-4.685-1.483Zm-12.433 9.829c-.644-1.267.084-3.404 1.353-4.042 1.337-.672 3.527.094 4.265 1.395.697 1.227.291 3.428-.933 4.13-1.421.816-3.942-.023-4.685-1.483Zm39.904 15.793c-.644-1.266.084-3.403 1.354-4.041 1.336-.672 3.526.093 4.264 1.394.697 1.228.291 3.428-.933 4.131-1.421.815-3.942-.024-4.685-1.484Zm-6.804 14.198c-.645-1.266.083-3.404 1.353-4.042 1.336-.672 3.526.094 4.264 1.395.697 1.227.292 3.427-.933 4.13-1.42.815-3.942-.023-4.685-1.483zm30.514-228.054c-.068-1.414 1.463-3.063 2.878-3.125 1.499-.066 3.185 1.54 3.325 3.033.132 1.402-1.136 3.24-2.537 3.377-1.633.16-3.587-1.646-3.666-3.285Z"/><path fill="#efae0e" d="M429.575 422.735c1.336-3.692 3.588-14.991 2.718-19.905-.011.029-.031.061-.031.083 0-.037.011-.083.019-.126.277-1.363.317-3.314.095-3.924-2.07-.115-5.178-.275-8.541-.232 2.794 13.362-2.581 20.861-.614 26.048 2.341 2.499 5.013 1.757 6.354-1.944m12.066-4.09c-.637 2.698-2.652 4.804-5.13 6.156 1.37 1.881 2.363 2.813 3.499 2.162 1.056-.601 3.934-3.657 5.361-6.565-1.501-.046-2.871-.573-3.73-1.753"/><path stroke="#000" stroke-width=".465" d="M432.281 402.787c-.008.043-.019.089-.019.126 0-.022.02-.054.031-.083.87 4.914-1.382 16.213-2.718 19.905-1.341 3.701-4.013 4.443-6.354 1.944-1.967-5.187 3.408-12.686.614-26.048 3.363-.043 6.471.117 8.541.232.222.61.182 2.561-.095 3.924Zm0 0v-.003m9.36 15.861c-.637 2.698-2.652 4.804-5.13 6.156 1.37 1.881 2.363 2.813 3.499 2.162 1.056-.601 3.934-3.657 5.361-6.565-1.501-.046-2.871-.573-3.73-1.753Z"/><path fill="#efae0e" stroke="#000" stroke-width=".465" d="M440.844 416.95c-3.169-5.611 1.162-8.038.91-12.062-.056-.906-.342-2.156-.542-2.67-1.524-4.041-9.699-2.043-8.917.613.87 4.913-1.382 16.212-2.709 19.905-1.35 3.695-4.442 2.931-6.797.428-.571 6.814 7.958 9.185 13.636 6.075 2.478-1.36 4.479-3.458 5.13-6.156.194-.805.337-1.716.451-2.678.065-.467.111-.939.154-1.432a21 21 0 0 1-1.316-2.023Zm16.495 1.695c.637 2.698 2.652 4.804 5.13 6.156-1.37 1.881-2.363 2.813-3.5 2.162-1.056-.601-3.933-3.657-5.36-6.565 1.501-.046 2.871-.573 3.73-1.753Z"/><path fill="#efae0e" stroke="#000" stroke-width=".465" d="M449.482 404.914c-2.414.068-6.297 2.14-7.368 3.387.125 1.66-2.212 3.105-2.258 4.904-.052 2.069 3.06 7.896 5.946 10.838.992 1.012 3.465 2.117 3.687 2.117s2.693-1.107 3.687-2.117c2.809-2.852 5.824-8.552 5.82-10.503-.004-1.886-2.256-3.591-2.132-5.239-1.071-1.247-4.954-3.319-7.368-3.387z"/><path fill="#efae0e" d="M469.405 422.735c-1.336-3.692-3.588-14.991-2.718-19.905.012.029.032.061.032.083 0-.037-.012-.083-.02-.126-.277-1.363-.317-3.314-.094-3.924 2.069-.115 5.178-.275 8.541-.232-2.795 13.362 2.58 20.861.613 26.048-2.341 2.499-5.012 1.757-6.354-1.944"/><path stroke="#000" stroke-width=".465" d="M466.699 402.787c.008.043.02.089.02.126 0-.022-.02-.054-.032-.083-.87 4.914 1.382 16.213 2.718 19.905 1.342 3.701 4.013 4.443 6.354 1.944 1.967-5.187-3.408-12.686-.613-26.048-3.363-.043-6.472.117-8.541.232-.223.61-.183 2.561.094 3.924Zm0 0v-.003"/><path fill="#efae0e" stroke="#000" stroke-width=".465" d="M458.137 416.95c3.168-5.611-1.163-8.038-.911-12.062.057-.906.343-2.156.542-2.67 1.524-4.041 9.7-2.043 8.918.613-.871 4.913 1.381 16.212 2.708 19.905 1.351 3.695 4.442 2.931 6.798.428.57 6.814-7.959 9.185-13.637 6.075-2.478-1.36-4.478-3.458-5.129-6.156-.195-.805-.337-1.716-.451-2.678a28 28 0 0 1-.155-1.432c.508-.683.928-1.356 1.317-2.023Z"/><path fill="#3f863f" stroke="#000" stroke-width=".464" d="M433.14 194.556c3.161-2.577 6.872-4.966 9.276-6.26-3.894-2.395-7.969-2.58-12.047-2.58 2.771-1.475 5.563-5.705 5.746-9.023-4.82-.738-11.675 2.393-13.895 6.078-1.404 2.298-6.388 7.468-9.652 10.342.886-2.131 2.339-4.811 2.339-7.129 0-.962-.965-1.244-1.249-.094-1.175 4.648-6.388 8.724-11.099 10.33-6.52 2.225-13.239 5.417-19.833 9.519-.965-.778-1.209-1.681-1.183-2.435.114-1.849 2.622-2.624 5.562-2.757 4.845-.211 21.363-10.017 18.69-18.838-1.9 3.854-6.545 5.002-12.898 5.572-7.993.737-14.73 7.926-13.05 15.934.412 1.957.598 3.068.556 4.022a102 102 0 0 0-7.371 5.326c.316-2.694.341-6.103-.287-8.014-.41-1.288-1.851-2.831-1.367-.137.39 2.17-.667 7.787-2.63 11.762-7.13 6.329-13.652 13.913-18.985 22.691-.914-.35-1.419-.962-1.651-1.572-.667-1.717 1.261-3.469 3.871-4.822 3.95-4.921 15.16-17.991 9.024-24.883-.103 4.277-3.834 7.262-9.347 10.427-6.95 4.001-10.033 13.334-5.135 19.896 1.008 1.345 1.619 2.213 2 2.982-1.327 2.307-2.539 4.725-3.702 7.186-.831-2.273-1.983-4.696-3.15-5.947-.914-1.002-2.857-1.825-1.303.436 1.077 1.564 2.244 5.89 2.461 9.883-3.897 8.271-6.909 18.455-8.543 29.856-1.009.026-1.716-.361-2.189-.84-1.264-1.352-.123-3.693 1.799-5.918 1.506-5.642 6.519-21.11-.916-26.427 1.495 4.013-.851 8.165-4.801 13.136-4.943 6.28-4.326 16.08 2.694 20.364 1.534.937 2.436 1.543 3.095 2.15a121 121 0 0 0-.69 6.858c-1.797-2.008-4.269-4.252-6.092-5.047-1.23-.556-3.362-.524-1.003.914 1.808 1.113 5.106 5.349 6.834 9.325-.329 9.949.401 20.503 2.436 31.289a2.68 2.68 0 0 1-2.066-.168c-1.588-.826-1.6-3.184-.929-5.642 1.135-4.041-3.017-21.429-11.503-22.753 2.868 3.082 2.622 7.342 1.407 12.762-1.522 6.819 2.972 15.183 10.485 16.983 1.347.32 2.267.564 2.969.835.551 2.715 1.339 5.776 2.362 9.077-2.467-1.077-5.588-2.085-7.557-2.071-1.367.006-3.278.9-.55 1.253 2.014.265 6.393 2.533 9.585 5.252 2.766 7.684 6.826 16.345 12.325 24.992-.73.7-1.515.889-2.189.851-1.85-.142-3.55-2.755-3.659-5.671-.138-4.819-8.824-21.237-17.741-18.711 3.839 1.937 4.935 6.579 5.427 12.891.636 7.954 7.769 14.745 15.849 13.175 1.685-.324 2.743-.484 3.617-.499a120 120 0 0 0 5.459 7.581c-2.654-.188-5.854-.1-7.68.559-1.284.45-2.78 1.925-.101 1.361 1.983-.418 6.866.265 10.792 1.775 5.067 5.986 10.956 11.688 17.71 16.758a2.74 2.74 0 0 1-1.605 1.002c-1.834.35-5.794-2.111-6.668-4.91-1.424-4.603-13.509-10.974-21.438-6.203 4.221.863 7.248-.467 9.385 5.494 2.728 7.507 12.87 10.236 19.045 7.266 1.359-.647 2.273-1.066 3.043-1.322a98 98 0 0 0 7.995 5.167c-2.315.931-4.82 2.224-6.069 3.451-.971.949-1.717 2.92.496 1.282 1.439-1.077 5.364-2.318 9.179-2.762 8.642 4.562 18.397 8.051 29.364 10.01-.123.96-.636 1.558-1.129 1.999-1.404 1.225-4.397.853-6.566-1.118-4.24-2.426-22.395-7.612-26.785.493 4.072-1.386 9.03-.092 13.919 3.966 6.167 5.101 16.045 4.768 20.547-2.084 1.043-1.584 1.789-2.322 2.533-2.794q2.94.454 5.901.746c.378-1.723.862-3.358 1.057-4.674-2.087-.225-4.184-.55-6.279-.914.625-1.769 1.639-3.78.791-6.115-1.482-4.312-8.317-10.402-15.039-10.461-5.273-.08-9.809-5.759-13.973-6.198 1.521 2.561 2.476 4.551 3.026 7.274 1.429 7.172 9.405 11.56 19.076 10.771 2.462-.199 4.253 2.304 4.631 4.457-9.932-1.897-20.005-5.342-29.539-10.21-2.456-2.868-3.29-5.54-3.628-7.163-.55-2.48-1.736-2.871-1.296.211a25.7 25.7 0 0 0 1.212 4.947c-2.298-1.276-4.522-2.646-6.731-4.084 1.303-1.559 3.591-3.005 3.828-5.845.453-4.534-3.229-12.888-9.321-15.716-4.76-2.241-6.528-9.284-10.136-11.395.318 2.959.358 5.161-.278 7.866-1.696 7.112 3.743 14.397 12.864 17.661 2.642.946 3.02 4.708 2.06 6.764-6.587-4.412-12.714-9.541-18.131-15.342-2.065-4.847-1.625-8.539-1.18-10.518.547-2.478-.361-3.327-1.255-.35-.636 2.105-1.101 4.802-1.049 6.946a91 91 0 0 1-5.734-7.678c1.347-1.795 4.995-2.228 6.219-5.528 1.639-4.264.3-13.281-4.832-17.613-4.02-3.415-3.84-10.657-6.757-13.645-.49 2.939-1.029 5.075-2.356 7.517-3.516 6.422-.206 14.87 7.74 20.408 2.74 1.906 1.347 6.821-.719 7.798-4.974-7.636-8.866-15.94-11.757-24.533-.321-5.24 1.324-8.589 2.404-10.304 1.347-2.156.771-3.255-1.08-.749-1.149 1.564-2.327 3.617-3.064 5.474a141 141 0 0 1-2.063-8.211c1.757-.447 4.528.211 6.299-1.734 2.642-2.814 4.075-10.755.894-16.408-2.482-4.451-.252-10.314-1.911-13.967-1.264 2.21-1.27 3.855-3.13 5.307-4.182 4.404-3.749 10.676-.265 19.784 1.607 2.364-.218 5.332-2.103 5.984-3.092-14.995-3.505-30.158-1.705-43.507 2.157-.097 4.955 1.66 7.892.16 4.104-2.037 9.273-9.567 8.445-16.206-.616-5.215 4.442-10.435 4.322-14.594-2.347 1.837-4.213 3.045-6.855 3.944-6.957 2.358-10.279 10.809-8.213 20.227.668 3.039-3.161 5.585-5.427 5.334 1.296-9.014 3.722-18.395 7.267-27.432 3.99-4.429 7.955-5.551 10.104-5.916 2.522-.449 2.954-1.606-.155-1.298-2.584.257-5.863 1.053-7.826 2.187a111 111 0 0 1 4.482-8.968c2.189.464 4.161 3.514 7.657 3.178 4.573-.371 12.191-5.46 13.907-11.928 1.373-5.066 8.016-8.046 9.471-11.953-2.877.836-5.038 1.275-7.832 1.138-7.345-.381-13.589 6.238-15.194 15.745-.547 3.264-5.599 4.144-7.387 2.719 4.911-8.567 10.956-16.333 18.111-22.577 5.302-2.247 9.279-1.652 11.342-1.122 2.482.624 3.365-.256.39-1.244-2.221-.738-5.141-1.321-7.345-1.268a118 118 0 0 1 7.975-5.738c1.812 1.336 2.31 4.93 5.623 6.084 4.301 1.566 13.356.116 17.649-5.042 3.396-4.026 10.681-3.959 13.649-6.904-2.966-.433-5.129-.945-7.591-2.232-6.505-3.403-14.97 0-20.433 7.966-1.865 2.709-6.754 1.444-7.823-.55 8.68-5.537 18.383-9.889 28.427-12.349 6.847-1.677 18.041 1.011 21.104-1.496Z"/><path fill="#d4212f" d="M379.851 216.444c-.066-1.417 1.475-3.064 2.892-3.122 1.498-.062 3.177 1.544 3.317 3.036.131 1.4-1.13 3.235-2.529 3.375-1.637.162-3.602-1.646-3.68-3.289m-11.814-14.442c-.067-1.418 1.473-3.065 2.892-3.125 1.499-.065 3.187 1.536 3.328 3.03.132 1.404-1.137 3.244-2.541 3.383-1.636.162-3.601-1.645-3.679-3.288m-14.781 48.147c-.644-1.266.084-3.404 1.354-4.042 1.336-.672 3.526.094 4.264 1.395.697 1.227.291 3.428-.933 4.13-1.421.816-3.942-.023-4.685-1.483m-15.517-6.701c-.644-1.266.084-3.404 1.354-4.042 1.336-.672 3.526.094 4.264 1.395.697 1.227.291 3.428-.933 4.13-1.421.816-3.942-.023-4.685-1.483m-14.617 45.113c-.645-1.267.083-3.404 1.353-4.042 1.336-.672 3.526.094 4.265 1.394.697 1.228.291 3.428-.934 4.131-1.42.815-3.942-.023-4.684-1.483m19.154 45.7c-.645-1.266.083-3.404 1.353-4.042 1.336-.671 3.526.094 4.265 1.395.696 1.228.291 3.428-.934 4.131-1.42.815-3.942-.024-4.684-1.484m-15.206 4.956c-.644-1.266.084-3.403 1.353-4.041 1.337-.672 3.527.094 4.265 1.394.697 1.228.291 3.428-.933 4.131-1.421.815-3.942-.023-4.685-1.484m33.099 32.008c-.644-1.267.084-3.404 1.354-4.042 1.336-.672 3.526.094 4.264 1.395.697 1.227.291 3.428-.933 4.13-1.421.815-3.942-.023-4.685-1.483m-12.433 9.829c-.644-1.267.084-3.404 1.353-4.042 1.337-.672 3.527.094 4.265 1.395.697 1.227.291 3.428-.933 4.13-1.421.816-3.942-.023-4.685-1.483m39.904 15.793c-.644-1.266.084-3.403 1.354-4.041 1.336-.672 3.526.093 4.264 1.394.697 1.228.291 3.428-.933 4.131-1.421.815-3.942-.024-4.685-1.484m-6.804 14.198c-.645-1.266.083-3.404 1.353-4.042 1.336-.672 3.526.094 4.264 1.395.697 1.227.292 3.427-.933 4.13-1.42.815-3.942-.023-4.685-1.483zm30.514-228.054c-.068-1.414 1.463-3.063 2.878-3.125 1.499-.066 3.185 1.54 3.325 3.033.132 1.402-1.136 3.24-2.537 3.377-1.633.16-3.587-1.646-3.666-3.285"/><path stroke="#000" stroke-width=".697" d="M519.133 216.444c.067-1.417-1.474-3.064-2.892-3.122-1.497-.062-3.177 1.544-3.316 3.036-.131 1.4 1.13 3.235 2.528 3.375 1.637.162 3.602-1.646 3.68-3.289Zm11.814-14.442c.068-1.418-1.473-3.065-2.891-3.125-1.499-.065-3.188 1.536-3.329 3.03-.132 1.404 1.138 3.244 2.541 3.383 1.637.162 3.601-1.645 3.679-3.288Zm14.781 48.147c.644-1.266-.084-3.404-1.353-4.042-1.337-.672-3.527.094-4.265 1.395-.697 1.227-.291 3.428.933 4.13 1.421.816 3.942-.023 4.685-1.483Zm15.517-6.701c.644-1.266-.084-3.404-1.353-4.042-1.336-.672-3.526.094-4.265 1.395-.697 1.227-.291 3.428.934 4.13 1.42.816 3.942-.023 4.684-1.483Zm14.618 45.113c.644-1.267-.084-3.404-1.354-4.042-1.336-.672-3.526.094-4.264 1.394-.697 1.228-.291 3.428.933 4.131 1.421.815 3.942-.023 4.685-1.483Zm-19.154 45.7c.644-1.266-.084-3.404-1.354-4.042-1.336-.671-3.526.094-4.264 1.395-.697 1.228-.291 3.428.933 4.131 1.421.815 3.942-.024 4.685-1.484Zm15.205 4.956c.644-1.266-.084-3.403-1.353-4.041-1.336-.672-3.526.094-4.265 1.394-.696 1.228-.291 3.428.934 4.131 1.42.815 3.942-.023 4.684-1.484Zm-33.099 32.008c.644-1.267-.084-3.404-1.353-4.042-1.337-.672-3.527.094-4.265 1.395-.697 1.227-.291 3.428.933 4.13 1.421.815 3.942-.023 4.685-1.483Zm12.433 9.829c.644-1.267-.084-3.404-1.353-4.042-1.336-.672-3.526.094-4.265 1.395-.697 1.227-.291 3.428.933 4.13 1.421.816 3.943-.023 4.685-1.483Zm-39.904 15.793c.644-1.266-.084-3.403-1.353-4.041-1.336-.672-3.527.093-4.265 1.394-.697 1.228-.291 3.428.933 4.131 1.421.815 3.943-.024 4.685-1.484Zm6.805 14.198c.644-1.266-.084-3.404-1.354-4.042-1.336-.672-3.526.094-4.264 1.395-.697 1.227-.291 3.427.933 4.13 1.421.815 3.942-.023 4.685-1.483Zm-30.515-228.054c.068-1.414-1.463-3.063-2.877-3.125-1.499-.066-3.186 1.54-3.326 3.033-.131 1.402 1.136 3.24 2.538 3.377 1.633.16 3.586-1.646 3.665-3.285Z"/><path fill="#3f863f" stroke="#000" stroke-width=".464" d="M465.843 194.556c-3.161-2.577-6.872-4.966-9.277-6.26 3.895-2.395 7.97-2.58 12.048-2.58-2.771-1.475-5.563-5.705-5.746-9.023 4.82-.738 11.675 2.393 13.895 6.078 1.405 2.298 6.388 7.468 9.652 10.342-.886-2.131-2.339-4.811-2.339-7.129 0-.962.965-1.244 1.249-.094 1.176 4.648 6.388 8.724 11.099 10.33 6.52 2.225 13.239 5.417 19.833 9.519.965-.778 1.209-1.681 1.183-2.435-.114-1.849-2.622-2.624-5.562-2.757-4.845-.211-21.363-10.017-18.69-18.838 1.9 3.854 6.545 5.002 12.898 5.572 7.993.737 14.73 7.926 13.05 15.934-.412 1.957-.598 3.068-.556 4.022a102 102 0 0 1 7.371 5.326c-.315-2.694-.341-6.103.287-8.014.41-1.288 1.851-2.831 1.366-.137-.389 2.17.668 7.787 2.631 11.762 7.13 6.329 13.652 13.913 18.985 22.691.914-.35 1.419-.962 1.651-1.572.667-1.717-1.261-3.469-3.872-4.822-3.949-4.921-15.159-17.991-9.024-24.883.104 4.277 3.835 7.262 9.348 10.427 6.949 4.001 10.033 13.334 5.135 19.896-1.008 1.345-1.619 2.213-2 2.982 1.327 2.307 2.539 4.725 3.702 7.186.831-2.273 1.983-4.696 3.15-5.947.914-1.002 2.857-1.825 1.303.436-1.077 1.564-2.244 5.89-2.461 9.883 3.897 8.271 6.909 18.455 8.543 29.856 1.009.026 1.717-.361 2.189-.84 1.264-1.352.123-3.693-1.8-5.918-1.505-5.642-6.518-21.11.917-26.427-1.495 4.013.851 8.165 4.8 13.136 4.943 6.28 4.327 16.08-2.694 20.364-1.533.937-2.435 1.543-3.094 2.15q.442 3.42.69 6.858c1.796-2.008 4.269-4.252 6.092-5.047 1.23-.556 3.362-.524 1.003.914-1.808 1.113-5.106 5.349-6.834 9.325.329 9.949-.401 20.503-2.436 31.289a2.68 2.68 0 0 0 2.066-.168c1.588-.826 1.599-3.184.929-5.642-1.135-4.041 3.017-21.429 11.503-22.753-2.869 3.082-2.622 7.342-1.407 12.762 1.521 6.819-2.972 15.183-10.486 16.983-1.347.32-2.266.564-2.969.835-.55 2.715-1.338 5.776-2.361 9.077 2.467-1.077 5.588-2.085 7.557-2.071 1.367.006 3.278.9.55 1.253-2.014.265-6.393 2.533-9.585 5.252-2.766 7.684-6.827 16.345-12.326 24.992.731.7 1.516.889 2.19.851 1.851-.142 3.55-2.755 3.659-5.671.138-4.819 8.824-21.237 17.741-18.711-3.839 1.937-4.935 6.579-5.427 12.891-.636 7.954-7.769 14.745-15.85 13.175-1.685-.324-2.742-.484-3.616-.499a120 120 0 0 1-5.459 7.581c2.654-.188 5.854-.1 7.68.559 1.284.45 2.78 1.925.101 1.361-1.983-.418-6.866.265-10.792 1.775-5.067 5.986-10.956 11.688-17.71 16.758.473.595 1.06.888 1.605 1.002 1.834.35 5.795-2.111 6.668-4.91 1.424-4.603 13.509-10.974 21.438-6.203-4.221.863-7.248-.467-9.385 5.494-2.729 7.507-12.87 10.236-19.045 7.266-1.359-.647-2.273-1.066-3.044-1.322a98 98 0 0 1-7.994 5.167c2.315.931 4.819 2.224 6.069 3.451.971.949 1.716 2.92-.496 1.282-1.439-1.077-5.364-2.318-9.179-2.762-8.643 4.562-18.398 8.051-29.364 10.01.123.96.636 1.558 1.129 1.999 1.404 1.225 4.397.853 6.566-1.118 4.24-2.426 22.395-7.612 26.785.493-4.072-1.386-9.03-.092-13.919 3.966-6.167 5.101-16.045 4.768-20.547-2.084-1.043-1.584-1.789-2.322-2.533-2.794q-2.94.454-5.901.746c-.378-1.723-.862-3.358-1.057-4.674 2.087-.225 4.184-.55 6.279-.914-.625-1.769-1.639-3.78-.791-6.115 1.482-4.312 8.317-10.402 15.039-10.461 5.274-.08 9.809-5.759 13.973-6.198-1.521 2.561-2.476 4.551-3.026 7.274-1.43 7.172-9.405 11.56-19.077 10.771-2.461-.199-4.252 2.304-4.63 4.457 9.932-1.897 20.005-5.342 29.539-10.21 2.456-2.868 3.29-5.54 3.628-7.163.55-2.48 1.737-2.871 1.296.211a25.7 25.7 0 0 1-1.212 4.947c2.298-1.276 4.522-2.646 6.731-4.084-1.303-1.559-3.591-3.005-3.828-5.845-.453-4.534 3.229-12.888 9.321-15.716 4.76-2.241 6.528-9.284 10.136-11.395-.318 2.959-.358 5.161.278 7.866 1.696 7.112-3.743 14.397-12.864 17.661-2.642.946-3.02 4.708-2.06 6.764 6.587-4.412 12.714-9.541 18.131-15.342 2.065-4.847 1.624-8.539 1.18-10.518-.547-2.478.361-3.327 1.255-.35.636 2.105 1.101 4.802 1.049 6.946a91 91 0 0 0 5.734-7.678c-1.347-1.795-4.995-2.228-6.219-5.528-1.639-4.264-.3-13.281 4.832-17.613 4.02-3.415 3.84-10.657 6.757-13.645.49 2.939 1.029 5.075 2.356 7.517 3.516 6.422.206 14.87-7.741 20.408-2.739 1.906-1.346 6.821.719 7.798 4.975-7.636 8.867-15.94 11.758-24.533.321-5.24-1.324-8.589-2.404-10.304-1.347-2.156-.771-3.255 1.08-.749 1.149 1.564 2.327 3.617 3.064 5.474a141 141 0 0 0 2.063-8.211c-1.757-.447-4.528.211-6.299-1.734-2.642-2.814-4.075-10.755-.894-16.408 2.481-4.451.252-10.314 1.911-13.967 1.264 2.21 1.27 3.855 3.13 5.307 4.182 4.404 3.749 10.676.265 19.784-1.607 2.364.218 5.332 2.103 5.984 3.092-14.995 3.505-30.158 1.705-43.507-2.157-.097-4.954 1.66-7.892.16-4.104-2.037-9.273-9.567-8.445-16.206.616-5.215-4.442-10.435-4.322-14.594 2.347 1.837 4.212 3.045 6.855 3.944 6.957 2.358 10.279 10.809 8.213 20.227-.668 3.039 3.161 5.585 5.427 5.334-1.296-9.014-3.722-18.395-7.267-27.432-3.99-4.429-7.956-5.551-10.104-5.916-2.522-.449-2.954-1.606.155-1.298 2.584.257 5.863 1.053 7.826 2.187a111 111 0 0 0-4.482-8.968c-2.189.464-4.161 3.514-7.657 3.178-4.574-.371-12.191-5.46-13.907-11.928-1.373-5.066-8.016-8.046-9.471-11.953 2.877.836 5.037 1.275 7.832 1.138 7.345-.381 13.588 6.238 15.194 15.745.547 3.264 5.599 4.144 7.387 2.719-4.912-8.567-10.956-16.333-18.111-22.577-5.302-2.247-9.279-1.652-11.343-1.122-2.481.624-3.364-.256-.389-1.244 2.221-.738 5.141-1.321 7.345-1.268a118 118 0 0 0-7.975-5.738c-1.811 1.336-2.31 4.93-5.623 6.084-4.301 1.566-13.356.116-17.65-5.042-3.395-4.026-10.68-3.959-13.648-6.904 2.966-.433 5.129-.945 7.591-2.232 6.505-3.403 14.97 0 20.433 7.966 1.865 2.709 6.754 1.444 7.823-.55-8.68-5.537-18.383-9.889-28.428-12.349-6.846-1.677-18.04 1.011-21.103-1.496Z"/><path fill="#d4212f" d="M519.133 216.444c.067-1.417-1.474-3.064-2.892-3.122-1.497-.062-3.177 1.544-3.316 3.036-.131 1.4 1.13 3.235 2.528 3.375 1.637.162 3.602-1.646 3.68-3.289m11.814-14.442c.068-1.418-1.473-3.065-2.891-3.125-1.499-.065-3.188 1.536-3.329 3.03-.132 1.404 1.138 3.244 2.541 3.383 1.637.162 3.601-1.645 3.679-3.288m14.781 48.147c.644-1.266-.084-3.404-1.353-4.042-1.337-.672-3.527.094-4.265 1.395-.697 1.227-.291 3.428.933 4.13 1.421.816 3.942-.023 4.685-1.483m15.517-6.701c.644-1.266-.084-3.404-1.353-4.042-1.336-.672-3.526.094-4.265 1.395-.697 1.227-.291 3.428.934 4.13 1.42.816 3.942-.023 4.684-1.483m14.618 45.113c.644-1.267-.084-3.404-1.354-4.042-1.336-.672-3.526.094-4.264 1.394-.697 1.228-.291 3.428.933 4.131 1.421.815 3.942-.023 4.685-1.483m-19.154 45.7c.644-1.266-.084-3.404-1.354-4.042-1.336-.671-3.526.094-4.264 1.395-.697 1.228-.291 3.428.933 4.131 1.421.815 3.942-.024 4.685-1.484m15.205 4.956c.644-1.266-.084-3.403-1.353-4.041-1.336-.672-3.526.094-4.265 1.394-.696 1.228-.291 3.428.934 4.131 1.42.815 3.942-.023 4.684-1.484m-33.099 32.008c.644-1.267-.084-3.404-1.353-4.042-1.337-.672-3.527.094-4.265 1.395-.697 1.227-.291 3.428.933 4.13 1.421.815 3.942-.023 4.685-1.483m12.433 9.829c.644-1.267-.084-3.404-1.353-4.042-1.336-.672-3.526.094-4.265 1.395-.697 1.227-.291 3.428.933 4.13 1.421.816 3.943-.023 4.685-1.483m-39.904 15.793c.644-1.266-.084-3.403-1.353-4.041-1.336-.672-3.527.093-4.265 1.394-.697 1.228-.291 3.428.933 4.131 1.421.815 3.943-.024 4.685-1.484m6.805 14.198c.644-1.266-.084-3.404-1.354-4.042-1.336-.672-3.526.094-4.264 1.395-.697 1.227-.291 3.427.933 4.13 1.421.815 3.942-.023 4.685-1.483m-30.515-228.054c.068-1.414-1.463-3.063-2.877-3.125-1.499-.066-3.186 1.54-3.326 3.033-.131 1.402 1.136 3.24 2.538 3.377 1.633.16 3.586-1.646 3.665-3.285"/><path fill="#d4212f" fill-rule="evenodd" stroke="#000" stroke-miterlimit="6.3" stroke-width=".465" d="M482.468 216.257s-1.367.464-2.079.535c-1.539.155-3.125.103-4.634-.237-1.714-.388-3.236-1.374-4.871-2.02-3.659-1.447-7.32-2.901-11.049-4.158-3.799-1.282-7.551-2.904-11.524-3.446-2.002-.272-4.06-.169-6.059.119-1.341.193-2.68.526-3.921 1.069-1.027.45-2.21.863-2.851 1.782-.555.797-.679 1.885-.594 2.852.07.797.413 1.586.891 2.227.4.537.993.915 1.574 1.248.452.258 1.162.135 1.456.564.128.188.122.491 0 .683-.165.258-.543.288-.832.386-.692.235-1.431.296-2.139.476-2.515.638-5.129 1.049-7.484 2.138-1.037.48-2.121 1.023-2.852 1.901-.385.464-.574 1.076-.713 1.663-.154.657.032 1.363-.118 2.02-.163.71-.374 1.454-.832 2.02-.574.708-1.466 1.09-2.257 1.544-.703.404-1.42.813-2.198 1.04-.604.176-1.34-.064-1.871.237-.494.28.965.212 1.455.268.867.099 1.744.055 2.614.119.794.057 1.588.349 2.376.237.844-.119 1.72-.405 2.376-.95.684-.57 1.131-1.418 1.426-2.258.237-.676-.058-1.484.237-2.138.243-.537.687-.998 1.188-1.307 1.995-1.232 4.525-1.231 6.772-1.901 1.513-.451 3.186-.575 4.515-1.426.496-.317.895-.796 1.188-1.306.33-.577.555-1.239.594-1.901a3.9 3.9 0 0 0-.357-1.901c-.315-.659-1.035-1.046-1.425-1.664-.208-.329-.624-.708-.475-1.069.424-1.032 2.018-1.033 3.118-1.218 1.72-.288 3.499-.018 5.228.208 2.243.294 4.463.812 6.623 1.485 2.12.661 4.175 1.536 6.178 2.495 1.759.842 3.509 1.736 5.109 2.852 1.198.835 2.135 2.006 3.326 2.851 1.158.822 2.348 1.658 3.683 2.138 1.587.572 3.31.693 4.99.832 1.105.092 3.327 0 3.327 0h.148z" clip-rule="evenodd"/><path fill="#fff" fill-rule="evenodd" d="m465.567 212.485-2.672 5.109 1.93 1.04 2.346-5.465zm2.258.981-2.465 5.554 2.109 1.366 2.168-6.326zm2.734 1.069-2.287 6.386 1.901 1.693 2.109-7.366zm-16.514-.921s.271-.248.297-.416c.045-.287-.084-.605-.267-.832-.518-.636-1.38-.907-2.139-1.217-1.289-.528-2.66-.872-4.039-1.069a15 15 0 0 0-3.505-.09c-.806.075-1.602.268-2.376.505-.654.201-1.354.363-1.901.773-.344.257-.655.606-.802 1.009-.116.317-.096.68-.03 1.01.071.352.278.663.446.981.33.624.869 1.143 1.099 1.811.191.556.358 1.184.208 1.753-.167.629-.69 1.122-1.159 1.574a5.2 5.2 0 0 1-1.396.95c-1.381.656-2.929.877-4.396 1.307-1.265.371-2.571.624-3.801 1.099-1.029.397-2.173.695-2.971 1.455-.326.313-.474.773-.653 1.188-.23.535-.534 1.664-.534 1.664s-.144 1.283-.476 1.812c-.283.452-.735.811-1.217 1.039-.51.241-1.111.189-1.664.297-1.033.202-2.088.329-3.089.654-.185.06-.713.237-.534.237s2.195.234 3.297.297c.791.046 1.598.212 2.376.06.583-.114 1.179-.33 1.633-.713.689-.581 1.168-1.414 1.485-2.257.306-.814-.024-1.803.357-2.585.193-.396.545-.719.921-.95 1.748-1.078 3.926-1.21 5.88-1.842 1.847-.596 3.826-.901 5.525-1.841.381-.211.756-.477 1.01-.832.442-.619.701-1.383.802-2.138a2.75 2.75 0 0 0-.119-1.248c-.174-.5-.525-.927-.862-1.336-.253-.309-.63-.506-.861-.832-.22-.311-.516-.66-.475-1.039.042-.394.374-.746.713-.951.901-.545 2.066-.463 3.118-.505 1.807-.07 3.617.186 5.406.446 1.531.222 4.544.95 4.544.95z" clip-rule="evenodd"/><path fill="#002a86" fill-rule="evenodd" d="m473.409 216.168-1.069 7.812s1.604 1.01 1.841 1.04c.238.029 3.951.237 3.951.237l3.831.03.386-9-2.049.535s-3.089 0-3.267-.03c-.179-.029-2.644-.594-2.644-.594l-.921-.386z" clip-rule="evenodd"/><path fill="#fff" fill-rule="evenodd" d="m462.955 211.743-2.376 4.574 1.723.891 2.257-5.019zm-5.198-1.901-2.257 4.515 1.901.801 2.019-4.692zm2.466.861-2.258 4.574 1.901.832 2.049-4.841-1.692-.654z" clip-rule="evenodd"/><path fill="#fff" d="M480.506 218.604a.267.267 0 1 0 0-.535.268.268 0 0 0 0 .535m-2.106-.119a.267.267 0 1 0 .002-.534.267.267 0 0 0-.002.534m-1.722-.148a.267.267 0 1 0 0-.534.267.267 0 0 0 0 .534m-1.981-.599a.268.268 0 1 0 0-.536.268.268 0 0 0 0 .536m-.214 1.397a.268.268 0 1 0-.001-.535.268.268 0 0 0 .001.535m1.925.657a.267.267 0 1 0 .002-.534.267.267 0 0 0-.002.534m1.727.158a.268.268 0 1 0 0-.536.268.268 0 0 0 0 .536m2.047.169a.267.267 0 1 0 0-.534.267.267 0 0 0 0 .534m-.239 1.366a.268.268 0 1 0 0-.536.268.268 0 0 0 0 .536m-1.988.068a.267.267 0 1 0 .002-.534.267.267 0 0 0-.002.534m-1.754-.216a.268.268 0 1 0 0-.536.268.268 0 0 0 0 .536m-1.961-.713a.268.268 0 1 0 0-.536.268.268 0 0 0 0 .536m-.273 1.515a.268.268 0 1 0 0-.536.268.268 0 0 0 0 .536m1.976.603a.268.268 0 1 0 0-.536.268.268 0 0 0 0 .536m1.805.152a.268.268 0 1 0 0-.536.268.268 0 0 0 0 .536m1.926.106a.268.268 0 1 0 0-.536.268.268 0 0 0 0 .536m-.176 1.604a.268.268 0 1 0 0-.536.268.268 0 0 0 0 .536m-2.168-.178a.268.268 0 1 0 0-.536.268.268 0 0 0 0 .536m-1.73-.259a.267.267 0 1 0 0-.534.267.267 0 0 0 0 .534m-1.985-.543a.268.268 0 1 0 0-.536.268.268 0 0 0 0 .536"/><path stroke="#000" stroke-miterlimit="6.3" stroke-width=".465" d="M482.438 216.168s-1.341.537-2.049.624a13.7 13.7 0 0 1-4.634-.237c-1.714-.388-3.236-1.374-4.871-2.02-3.659-1.447-7.32-2.901-11.049-4.158-3.799-1.282-7.551-2.904-11.524-3.446-2.002-.272-4.06-.169-6.059.119-1.341.193-2.68.526-3.921 1.069-1.027.45-2.21.863-2.851 1.782-.555.797-.712 1.888-.594 2.852.114.927.6 1.824 1.218 2.524.421.478 1.042.739 1.604 1.04.351.188.879.142 1.099.475a.68.68 0 0 1 0 .683c-.165.258-.543.288-.832.386-.692.235-1.431.296-2.139.476-2.515.638-5.129 1.049-7.484 2.138-1.037.48-2.121 1.023-2.852 1.901-.385.464-.574 1.076-.713 1.663-.154.657.032 1.363-.118 2.02-.163.71-.374 1.454-.832 2.02-.574.708-1.466 1.09-2.257 1.544-.703.404-1.42.813-2.198 1.04-.604.176-1.34-.064-1.871.237-.494.28.965.212 1.455.268.867.099 1.744.055 2.614.119.794.057 1.588.349 2.376.237.844-.119 1.72-.405 2.376-.95.684-.57 1.131-1.418 1.426-2.258.237-.676-.058-1.484.237-2.138.243-.537.687-.998 1.188-1.307 1.995-1.232 4.525-1.231 6.772-1.901 1.513-.451 3.186-.575 4.515-1.426.496-.317.895-.796 1.188-1.306.33-.577.555-1.239.594-1.901a3.9 3.9 0 0 0-.357-1.901c-.315-.659-1.035-1.046-1.425-1.664-.208-.329-.624-.708-.475-1.069.424-1.032 2.018-1.033 3.118-1.218 1.72-.288 3.499-.018 5.228.208 2.243.294 4.463.812 6.623 1.485 2.12.661 4.175 1.536 6.178 2.495 1.759.842 3.509 1.736 5.109 2.852 1.198.835 2.135 2.006 3.326 2.851 1.158.822 2.348 1.658 3.683 2.138 1.587.572 3.31.693 4.99.832 1.105.092 3.327 0 3.327 0l.237.06z" clip-rule="evenodd"/><path fill="#fefdfe" fill-rule="evenodd" d="M546.421 280.049s-4.241-.739-6.385-.798c-2.596-.07-5.237-.022-7.771.546-1.055.237-2.069.669-3.024 1.176-.542.289-.951.803-1.512 1.051-.578.255-1.237.261-1.848.42-.777.201-1.59.319-2.31.672-.513.251-.875.755-1.387 1.008-.877.434-1.874.565-2.814.84-.88.257-1.74.611-2.646.756-.346.055-1.051.042-1.051.042s-2.071 1.805-2.184 4.62c-.093 2.33-1.448 4.361-1.176 6.721 1.65.495 3.256-.314 4.789-.84 1.019-.349 1.855-1.115 2.856-1.512 1.282-.508 2.725-.543 3.991-1.092 1.101-.479 1.932-1.496 3.066-1.89 1.478-.514 3.098-.525 4.662-.546 2.362-.033 4.723.268 7.057.63 1.02.158 3.024.672 3.024.672z" clip-rule="evenodd"/><path fill="#d4212f" fill-rule="evenodd" d="M537.731 278.871c-1.76-.018-3.567.058-5.321.474-.971.231-1.904.616-2.765 1.097-.783.436-1.245 1.084-1.774 1.328-1.113.512-2.598.381-4.04.909-1.204.442-2.168 1.203-3.179 1.65-.617.273-1.187.603-1.809.799-.988.311-1.956.541-2.724.633l-.445.001c-.287.261-.471.492-.666.726l.899-.01c.926-.045 2.111-.286 3.124-.562.696-.19 1.359-.454 1.997-.737 1.155-.511 2.104-1.254 3.123-1.627 1.172-.43 2.691-.286 4.108-.939.835-.384 1.31-1.065 1.839-1.36a10 10 0 0 1 2.527-1.003c1.638-.389 3.37-.468 5.096-.45 1.376.014 3.222.174 4.82.366.799.095 1.538.199 2.125.295.588.096.755-.818.15-.917a53 53 0 0 0-2.164-.301c-1.621-.194-3.483-.358-4.921-.373z" clip-rule="evenodd"/><path fill="#d4212f" fill-rule="evenodd" d="M537.044 280.775c-1.76-.018-3.567.058-5.321.475-.971.23-1.904.615-2.765 1.096-.782.436-1.245 1.084-1.774 1.328-1.113.512-2.598.381-4.04.91-1.204.441-2.168 1.202-3.179 1.649-.622.276-1.237.532-1.858.689-1.099.278-3.725.487-3.725.487-.189.309-.308.616-.448.923 0 0 3.198-.205 4.401-.51.711-.179 1.373-.459 2.007-.739 1.154-.511 2.103-1.253 3.122-1.627 1.173-.43 2.692-.286 4.109-.938.834-.384 1.309-1.066 1.838-1.361a10 10 0 0 1 2.527-1.003c1.638-.389 3.371-.467 5.097-.45 1.375.014 3.221.174 4.82.366.799.096 1.537.2 2.125.295.587.096 1.477-.644 1.477-.644-.282-.09-.723-.175-1.327-.273a55 55 0 0 0-2.165-.301c-1.621-.194-3.482-.358-4.921-.372" clip-rule="evenodd"/><path fill="#d4212f" fill-rule="evenodd" d="M536.328 282.749c-1.76-.018-3.567.058-5.321.475-.971.23-1.904.616-2.765 1.096-.783.436-1.246 1.084-1.774 1.328-1.113.512-2.598.381-4.041.91-1.203.441-2.167 1.202-3.178 1.65-.62.274-1.237.525-1.862.689-1.07.28-3.787.553-3.787.553-.062.254-.092.589-.112.933 0 0 2.983-.285 4.135-.587.704-.185 1.366-.457 2.002-.739 1.154-.511 2.104-1.253 3.122-1.627 1.173-.43 2.692-.286 4.109-.938.835-.384 1.31-1.065 1.839-1.36a10 10 0 0 1 2.527-1.004c1.638-.389 3.37-.467 5.096-.45 1.376.014 3.222.175 4.82.366.799.096 1.538.2 2.125.296.588.096.755-.819.15-.918a54 54 0 0 0-2.164-.301c-1.621-.194-3.483-.357-4.921-.372" clip-rule="evenodd"/><path fill="#d4212f" fill-rule="evenodd" d="M535.488 284.891c-1.76-.018-3.567.058-5.32.475-.972.231-1.905.616-2.766 1.096-.782.437-1.245 1.085-1.774 1.328-1.113.512-2.598.381-4.04.91-1.204.441-2.168 1.202-3.179 1.65-.627.277-1.237.542-1.85.686-.961.225-3.184.379-3.184.379l-.207.917s2.508-.134 3.603-.391c.725-.17 1.386-.464 2.014-.742 1.155-.511 2.104-1.253 3.123-1.626 1.173-.43 2.691-.286 4.108-.939.835-.384 1.31-1.066 1.839-1.36a10 10 0 0 1 2.527-1.004c1.638-.389 3.371-.467 5.096-.449a47 47 0 0 1 4.786.322c.799.095 1.572.243 2.16.338.587.096 1.192.135 1.339.182l.137-.826c-.281-.09-.722-.174-1.327-.273a52 52 0 0 0-2.164-.3c-1.621-.195-3.483-.358-4.921-.373" clip-rule="evenodd"/><path fill="#d4212f" fill-rule="evenodd" d="M534.69 286.655c-1.76-.018-3.567.058-5.321.475-.971.231-1.904.616-2.765 1.096-.782.437-1.245 1.085-1.774 1.328-1.113.513-2.598.381-4.04.91-1.204.441-2.168 1.202-3.179 1.65-.625.276-1.237.538-1.853.687-.864.208-2.856.378-2.856.378l-.238.876.412-.002c.87-.043 1.927-.114 2.9-.349.72-.173 1.381-.461 2.011-.74 1.155-.511 2.104-1.254 3.123-1.627 1.172-.43 2.691-.286 4.108-.938.835-.384 1.31-1.066 1.839-1.361a10 10 0 0 1 2.527-1.003c1.638-.39 3.37-.468 5.096-.45 1.376.014 3.222.174 4.82.366.799.095 1.538.199 2.125.295.588.096 1.045.193 1.193.241l.394.147.333-.89-.442-.142c-.282-.091-.723-.174-1.328-.273a53 53 0 0 0-2.164-.301c-1.621-.194-3.483-.358-4.921-.373" clip-rule="evenodd"/><path fill="#d4212f" fill-rule="evenodd" d="M534.062 288.504c-1.76-.018-3.568.058-5.321.474-.972.231-1.904.616-2.765 1.097-.782.436-1.245 1.084-1.774 1.328-1.113.512-2.598.381-4.04.909-1.204.442-2.168 1.203-3.179 1.65-.626.277-1.237.54-1.852.687-.784.187-2.667.241-2.667.241a9 9 0 0 0-.152.929s2.146-.054 3.035-.266c.721-.172 1.383-.463 2.012-.741 1.154-.511 2.104-1.254 3.122-1.627 1.173-.43 2.692-.286 4.109-.938.835-.384 1.31-1.066 1.839-1.361a10 10 0 0 1 2.527-1.004c1.638-.389 3.37-.467 5.096-.449 1.376.014 3.222.174 4.82.366.799.096 1.538.199 2.125.295.588.096 1.55.323 1.55.323l.321-.857s-1.116-.285-1.721-.383a53 53 0 0 0-2.164-.301c-1.621-.194-3.483-.358-4.921-.372" clip-rule="evenodd"/><path fill="#d4212f" fill-rule="evenodd" d="M533.221 290.52c-1.76-.018-3.568.058-5.321.475a10.8 10.8 0 0 0-2.765 1.096c-.783.436-1.246 1.084-1.775 1.328-1.112.512-2.597.381-4.039.91-1.231.451-2.145 1.299-3.139 1.634-1.092.368-2.707.566-3.529.606l-.374.007-.045.944.465-.023c.903-.044 2.529-.232 3.779-.654 1.25-.421 2.171-1.278 3.163-1.642 1.172-.429 2.691-.286 4.108-.938.835-.384 1.31-1.066 1.838-1.361a10 10 0 0 1 2.528-1.003c1.638-.389 3.37-.467 5.096-.45 1.376.014 3.222.174 4.82.366.799.096 1.559.233 2.147.328.587.096 1.58.382 1.58.382l.356-.952s-1.203-.281-1.808-.38a52 52 0 0 0-2.165-.301c-1.62-.194-3.482-.358-4.92-.372" clip-rule="evenodd"/><path fill="#002868" d="M546.422 280.049s-.869-.405-1.331-.524c-1.336-.343-2.729-.421-4.105-.527-1.495-.116-4.499-.121-4.499-.121s-.903 2.1-1.208 3.198c-.34 1.227-.681 3.759-.681 3.759s3.473.064 5.196.257c1.379.154 4.101.72 4.101.72z"/><path fill="#fff" fill-opacity=".994" d="m539.97 279.46-.073.35-.377.043.332.173-.072.349.277-.242.333.172-.161-.322.278-.244-.377.044zm1.479.166-.237.279-.355-.126.208.298-.237.278.366-.094.209.298.018-.356.366-.095-.355-.125zm-2.872.331.109.342-.313.203.38.008.109.341.126-.336.379.008-.301-.216.125-.336-.312.203zm3.5.339.037.355-.348.142.371.077.037.354.192-.307.371.076-.252-.266.192-.307-.348.142zm-3.937.453-.176.316-.374-.059.265.254-.175.316.34-.158.265.254-.055-.352.34-.158-.374-.06zm4.761.537-.142.33-.379-.025.29.229-.142.331.322-.189.29.229-.091-.345.323-.189-.379-.026zm-5.306.611v.357l-.361.11.361.11v.356l.224-.288.361.109-.224-.288.223-.288-.361.11zm5.546.625-.29.23-.323-.188.144.33-.29.23.379-.026.143.33.091-.346.379-.026-.323-.188zm-4.854.531-.265.255-.34-.157.177.315-.265.255.374-.06.177.315.054-.352.375-.061-.341-.157zm3.89.438-.036.355-.37.077.348.142-.036.355.251-.267.349.142-.193-.307.251-.267-.371.077zm-3.311.382-.107.341-.38.01.312.202-.108.341.302-.217.313.202-.127-.336.302-.216-.38.009zm2.542.286-.208.298-.366-.093.238.278-.208.298.355-.127.238.278-.019-.356.355-.127-.366-.093zm-1.623.187.074.35-.332.173.378.042.073.35.16-.323.376.042-.278-.242.16-.323-.332.173z"/><path stroke="#000" stroke-linecap="round" stroke-linejoin="round" stroke-miterlimit="6.3" stroke-width=".403" d="M537.731 278.871a39 39 0 0 0-1.133.006h-.111v.001c-1.36.031-2.734.149-4.076.467-.972.231-1.904.616-2.765 1.097-.783.436-1.246 1.084-1.774 1.327-1.113.513-2.598.382-4.041.91-1.204.442-2.168 1.203-3.178 1.65-.617.273-1.188.603-1.81.799-.985.31-1.95.539-2.717.632l-.031.001-.42.001a4 4 0 0 0-.305.305l-.036.038c-.115.128-.217.252-.321.377l-.005.006q-.345.437-.625.921h-.002a4 4 0 0 0-.151.275 7 7 0 0 0-.254.552l-.044.097.004-.001a6.4 6.4 0 0 0-.333 1.117h-.003c-.061.255-.091.59-.111.933a8 8 0 0 1-.226 1.529l-.056.248q-.13.512-.28 1.017l-.025.002-.237.877h.012q-.115.414-.206.834l-.008.001a7 7 0 0 0-.09.478 7 7 0 0 0-.061.444v.007a6 6 0 0 0-.031.758h-.002l-.045.943.465-.023c.903-.044 2.529-.232 3.779-.654 1.25-.421 2.171-1.278 3.163-1.642 1.172-.429 2.691-.286 4.108-.938.835-.384 1.31-1.066 1.838-1.36a10 10 0 0 1 2.528-1.004c1.638-.389 3.371-.467 5.096-.45 1.376.014 3.222.175 4.82.366.783.094 1.524.226 2.106.322.835.189 1.621.388 1.621.388l.356-.952.432-1.156.32-.857.346-.926.332-.89.349-.933 2.527-6.761s-.868-.406-1.33-.525c-1.336-.343-2.73-.421-4.105-.527a41 41 0 0 0-2.018-.085 29 29 0 0 0-1.237-.042z" clip-rule="evenodd"/><path fill="#fefdfe" fill-rule="evenodd" d="M539.792 310.708a2 2 0 0 0-.209.002s-3.6.604-5.406.861c-2.431.347-4.865.665-7.307.921-2.252.235-4.51.447-6.772.564-2.383.124-4.771.148-7.158.149-.495 0-1.484-.03-1.484-.03-.982.134-.648 1.041.059 1.129 0 0 3.682.209 5.524.178 2.579-.042 5.151-.304 7.723-.505 2.289-.179 4.582-.344 6.861-.624 2.177-.268 4.346-.613 6.504-1.01a60 60 0 0 0 1.812-.386c.686-.123.823-1.186-.147-1.249m-153.322 7.885a1 1 0 0 0-.295.017c-.183.038-.38.137-.476.298-.143.238-.182.582-.059.831.188.385.678.539 1.069.713 6.31 2.807 13.303 3.772 20.078 5.109 9.162 1.807 18.478 2.735 27.742 3.92 3.795.486 7.594.957 11.405 1.307 7.708.708 15.441 1.126 23.167 1.604 4.354.269 8.708.572 13.069.713 8.115.26 16.238.423 24.355.237 4.639-.106 9.271-.451 13.9-.772 1.427-.099 4.277-.356 4.277-.356l-.178-1.069s-10.573.294-15.861.296c-7.763.004-15.527-.161-23.286-.415-4.16-.136-8.319-.343-12.474-.594-8.105-.491-16.216-.971-24.296-1.783-9.335-.937-18.644-2.153-27.919-3.564-5.288-.804-10.542-1.819-15.801-2.791-5.137-.95-10.286-1.842-15.386-2.971-.717-.159-1.418-.39-2.139-.534-.294-.059-.595-.176-.892-.196m148.553 3.953c.399-.032.814-1.308-.223-1.07-3.594.58-7.255.219-10.885.34-1.081-.009-.501.942-.163.908 3.544.04 7.252.146 11.271-.178" clip-rule="evenodd"/><path fill="#efae0e" fill-rule="evenodd" d="m371.611 305.172-.15 1.137 2.365.669.214-1.318zm3.742.89-.149 1.138 2.364.669.215-1.318zm4.272 1.25-.149 1.137 2.364.669.215-1.318zm-9.202.889-.15 1.511 2.365.89.214-1.752zm4.526 4.349s1.297 1.524 2.079 2.138c1.591 1.252 3.463 2.096 5.227 3.089.548.309 1.034.894 1.663.891.249-.001.509-.154.654-.356.199-.277.263-.679.178-1.01-.094-.369-.389-.692-.713-.891-.327-.201-.761-.123-1.128-.238-.779-.243-1.512-.618-2.257-.95-1.919-.853-5.703-2.673-5.703-2.673m158.937 4.284c-.275.004-.58.289-.657.551-.289.989-.736 1.781-1.009 2.673-.103.336-.033.889.296 1.011.376.139.898-.269 1.011-.654.301-1.032.594-1.512.89-2.436.123-.381-.033-1.007-.415-1.128a.4.4 0 0 0-.116-.016zm-6.506.036c-.275.004-.579.288-.657.551-.289.988-.736 1.78-1.01 2.673-.103.335-.031.888.298 1.01.375.139.897-.269 1.009-.653.302-1.033.596-1.512.892-2.436.122-.382-.034-1.008-.417-1.129a.4.4 0 0 0-.115-.016m3.179.083c-.274.004-.579.289-.656.551-.29.988-.737 1.781-1.01 2.673-.103.336-.032.888.297 1.01.376.139.897-.268 1.01-.653.301-1.032.595-1.512.891-2.436.122-.382-.034-1.008-.416-1.128a.4.4 0 0 0-.116-.017" clip-rule="evenodd"/><path stroke="#efae0e" stroke-linecap="round" stroke-linejoin="round" stroke-miterlimit="6.3" stroke-width="1.069" d="m536.108 315.817-10.455.059m-155.101-14.553-.06 6.297.594.415 13.485 3.505.237-1.604-.237-.951-.951-.831v-3.148l-1.782-.416-.416 1.248-3.029-.773-.475-1.901-1.545-.178-.237 1.307-3.149-.951-.356-1.722z"/><path fill="#d4212f" fill-rule="evenodd" stroke="#000" stroke-linecap="round" stroke-linejoin="round" stroke-miterlimit="6.3" stroke-width=".465" d="m388.256 326.749-6.475.059 7.129 10.158 5.049-.119zm4.099.356c-.351 1.299 1.306 2.765 2.792 4.217 0 0 33.825 2.385 50.73 3.684 21.987 1.689 65.937 5.346 65.937 5.346l-.713-2.317s-44.454-4.629-66.709-6.653c-17.333-1.577-52.037-4.277-52.037-4.277m126.034 10.454c-.398.025-.817.498-.813.892.007.602.72 1.115 1.307 1.248 2.529.569 6.95.772 6.95.772l.238-2.02s-5.133-.659-7.603-.891zm.969 3.862c-.532-.025-1.109.542-1.188 1.069-.051.343.196.819.535.892 2.417.519 6.059.772 6.059.772l.535-2.139s-3.931-.5-5.941-.594m.417 3.624c-.392-.012-.809.44-.832.831-.021.352.304.781.653.832 1.373.202 3.861.356 3.861.356l.594-1.663s-2.874-.314-4.276-.356" clip-rule="evenodd"/><path fill="#efae0e" fill-rule="evenodd" d="m404.203 333.283.03 4.752 6.443.7v-4.75zm16.34 1.755.007 4.75 6.772.701.071-4.742zm17.87 1.787.059 4.755 6.368.523-.082-4.756zm15.268 1.231-.155 4.737 7.894.765-.123-4.762zm16.565 1.659.123 4.762 7.01.726-.108-4.761zm16.359 1.615-.081 4.744 7.496.497v-4.75zm16.842.997.151 4.758 7.025.336-.029-4.752z" clip-rule="evenodd"/><path fill="#efae0e" fill-rule="evenodd" stroke="#000" stroke-linecap="round" stroke-linejoin="round" stroke-miterlimit="6.3" stroke-width=".465" d="M400.171 327.022c-.249-.004-.526.095-.756.25-.338.228-.691.555-.82.937-2.03 6.021-6.73 20.817-6.539 20.937.721.452 1.906.674 2.715.062.214-.161 4.082-14.042 5.972-20.748.113-.399.222-.879.036-1.188-.114-.188-.377-.247-.608-.25m15.923 1.717c-.25-.003-.516.09-.726.237-.309.217-.621.528-.702.892-1.263 5.722-4.077 19.786-3.871 19.9.781.429 1.997.64 2.73.059.193-.154 2.291-13.347 3.326-19.722.062-.379.11-.835-.116-1.129-.138-.179-.41-.234-.641-.237m17.662 1.693a1.2 1.2 0 0 0-.713.237c-.297.217-.592.528-.653.891-.953 5.723-3.006 19.786-2.792 19.9.803.43 2.031.641 2.733.06.185-.154 1.567-13.347 2.257-19.722.041-.379.064-.835-.179-1.129-.147-.179-.421-.234-.653-.237m15.999 1.574c-.251-.004-.5.09-.686.238-.273.217-.532.527-.551.89-.302 5.724-.753 19.787-.526 19.901.852.429 2.103.64 2.739.059.168-.154.047-13.347.011-19.722-.002-.379-.031-.834-.306-1.128-.168-.179-.449-.235-.681-.238m16.231 1.128a1.05 1.05 0 0 0-.672.238c-.26.217-.501.528-.499.891.04 5.723.429 19.786.662 19.9.878.43 2.142.641 2.743.06.158-.154-.749-13.347-1.165-19.722-.025-.379-.081-.835-.374-1.129-.179-.178-.463-.234-.695-.238m14.894 1.191a.88.88 0 0 0-.629.244c-.221.222-.406.541-.339.913 1.063 5.864 3.966 20.274 4.219 20.391.954.44 2.256.657 2.752.061.131-.158-3.134-13.677-4.691-20.209-.092-.388-.23-.855-.575-1.156-.21-.183-.504-.24-.737-.244m30.684.596a.76.76 0 0 0-.597.248c-.193.226-.339.549-.224.927 1.807 5.959 6.538 20.6 6.806 20.719 1.01.447 2.338.667 2.759.061.111-.16-4.87-13.895-7.254-20.532-.142-.394-.339-.869-.722-1.175-.234-.186-.535-.244-.768-.248m-14.921.355a.8.8 0 0 0-.609.244c-.202.223-.361.543-.262.916 1.56 5.88 5.682 20.328 5.945 20.445.992.442 2.312.658 2.757.061.118-.158-4.292-13.712-6.401-20.262-.125-.389-.302-.858-.673-1.16-.226-.184-.524-.241-.757-.244" clip-rule="evenodd"/><path fill="#d4212f" fill-rule="evenodd" stroke="#000" stroke-miterlimit="6.3" stroke-width=".465" d="M415.787 219.353s-5.403.197-7.981.924c-2.496.705-4.941 1.776-7.056 3.277-2.261 1.604-4.062 3.802-5.797 5.964-.67.837-1.59 1.631-1.764 2.689-.127.77.144 1.625.588 2.268.604.876 2.169.877 2.604 1.848.208.463.036 1.048-.168 1.512-.72 1.635-2.025 3.067-3.528 4.033-1.402.9-3.326.63-4.789 1.428-1.36.741-2.633 1.76-3.528 3.024-.538.76-1.163 1.686-1.008 2.604.079.471.45 1.042.924 1.092.457.049.778-.504 1.092-.84.551-.59.773-1.445 1.344-2.016.786-.785 1.73-1.464 2.772-1.848 1.112-.41 2.403-.053 3.529-.42 1.466-.479 2.871-1.253 4.032-2.268 1.295-1.132 2.539-2.494 3.108-4.117.325-.925.519-2.061.085-2.94-.383-.773-1.605-.806-2.101-1.512-.234-.334-.419-.777-.336-1.176.252-1.208 1.42-2.049 2.352-2.857.818-.707 1.784-1.244 2.773-1.68 1.816-.801 3.757-1.34 5.712-1.68 1.907-.331 5.797-.336 5.797-.336l.84.084z" clip-rule="evenodd"/><path fill="#fff" fill-rule="evenodd" d="m406.562 220.661.49 6.281 1.594-.28-.44-6.488zm-6.634 3.516 1.8 4.763-1.081.694-1.737-4.57zm-2.242 2.115-1.038 1.163 2.217 3.708.887-.793zm-3.174 3.747 3.46 3.725-.161-.885-2.499-3.806z" clip-rule="evenodd"/><path fill="#002a86" fill-rule="evenodd" d="m409.823 219.92-.135 6.607c1.851-.11 3.689-.284 5.595-.117l.505-7.056c-2.029.148-4.162.189-5.965.566" clip-rule="evenodd"/><path fill="#fff" fill-rule="evenodd" d="m405.486 221.048-1.465.621.885 5.869 1.375-.36zm-4.109 2.079 1.556 5.215.955-.393-1.384-5.504zm-3.657 10.152s.194.591.444.973c.323.493.779 1.051.841 1.672.085.845-.344 1.674-.672 2.457a8.6 8.6 0 0 1-1.155 1.996c-.628.797-1.359 1.539-2.205 2.1-.528.35-1.136.577-1.743.756-.701.206-1.447.212-2.163.357-.826.167-1.688.245-2.458.588-.597.266-1.118.689-1.617 1.113-.539.459-1.019.988-1.47 1.533-.378.457-.686.967-1.029 1.449-.21.295-.391.612-.63.882-.304.345.063.609.063.609l.861.106s.848-1.219 1.302-1.807c.45-.582.838-1.235 1.407-1.701.584-.478 1.28-.831 1.995-1.071.605-.203 1.262-.185 1.891-.294.807-.14 1.65-.168 2.415-.462 1.284-.494 2.466-1.267 3.528-2.142.563-.464 1.47-1.617 1.47-1.617s.597-1.118.84-1.702c.282-.676.632-1.351.715-2.079.059-.524-.168-1.575-.168-1.575l-1.303-.777c-.47-.37-.791-.89-1.159-1.364m16.777-13.086a.18.18 0 0 0-.127.053.2.2 0 0 0-.038.058.17.17 0 0 0 0 .136.177.177 0 0 0 .291.058.18.18 0 0 0 0-.252.18.18 0 0 0-.126-.052zm-1.229.137a.17.17 0 0 0-.126.052.18.18 0 0 0-.053.127.18.18 0 0 0 .179.178.18.18 0 0 0 .068-.344.2.2 0 0 0-.068-.013m-1.239.105a.177.177 0 0 0-.178.178.2.2 0 0 0 .013.069.2.2 0 0 0 .097.097.2.2 0 0 0 .068.013.175.175 0 0 0 .165-.11.18.18 0 0 0-.165-.247m-1.155.084a.175.175 0 0 0-.165.11.18.18 0 0 0 0 .137.2.2 0 0 0 .038.058q.026.025.058.039a.2.2 0 0 0 .069.013.175.175 0 0 0 .165-.11.18.18 0 0 0-.165-.247m3.612.756a.18.18 0 0 0-.165.247.2.2 0 0 0 .039.058q.025.025.058.039a.18.18 0 0 0 .137-.001.2.2 0 0 0 .058-.038.18.18 0 0 0 .052-.127.18.18 0 0 0-.179-.178m-1.26.273a.178.178 0 1 0 0 .357.18.18 0 0 0 .179-.178.18.18 0 0 0-.053-.126.18.18 0 0 0-.126-.053m-1.26.021a.177.177 0 0 0-.178.178.17.17 0 0 0 .052.127q.025.025.057.039a.2.2 0 0 0 .069.013.175.175 0 0 0 .165-.11.18.18 0 0 0-.165-.247m-1.155.063a.2.2 0 0 0-.068.014.177.177 0 0 0-.097.233.177.177 0 0 0 .291.058.17.17 0 0 0 .052-.126.2.2 0 0 0-.013-.069.2.2 0 0 0-.039-.058.2.2 0 0 0-.126-.052m3.675.84a.18.18 0 0 0-.165.247.2.2 0 0 0 .039.058q.025.025.058.039a.2.2 0 0 0 .068.013.2.2 0 0 0 .069-.013.2.2 0 0 0 .058-.039.2.2 0 0 0 .052-.126.18.18 0 0 0-.179-.179m-1.302.168a.18.18 0 0 0-.126.053.18.18 0 0 0-.052.126c0 .047.018.093.052.126a.18.18 0 0 0 .305-.126.18.18 0 0 0-.111-.166.2.2 0 0 0-.068-.013m-1.218.105a.18.18 0 0 0-.126.053.18.18 0 0 0-.052.126.177.177 0 0 0 .178.178.175.175 0 0 0 .165-.11.18.18 0 0 0 0-.137.18.18 0 0 0-.097-.096.2.2 0 0 0-.068-.014m-1.218.147a.18.18 0 0 0-.126.053.18.18 0 0 0-.053.126.18.18 0 0 0 .179.178.18.18 0 0 0 .126-.052.178.178 0 0 0-.126-.305m3.675.819a.18.18 0 0 0-.126.053.2.2 0 0 0-.039.058.17.17 0 0 0 0 .136.2.2 0 0 0 .039.058q.024.025.058.039a.18.18 0 0 0 .247-.165.18.18 0 0 0-.053-.126.18.18 0 0 0-.126-.053m-1.197.105a.18.18 0 0 0-.126.053.17.17 0 0 0-.052.126.18.18 0 0 0 .052.126q.025.025.058.039a.176.176 0 0 0 .233-.097.175.175 0 0 0-.039-.194.18.18 0 0 0-.126-.053m-1.281.147a.18.18 0 0 0-.165.11.18.18 0 0 0-.001.137.18.18 0 0 0 .331 0 .2.2 0 0 0 .013-.068.17.17 0 0 0-.052-.126.18.18 0 0 0-.126-.053m-1.239.064a.17.17 0 0 0-.126.052.176.176 0 0 0 0 .252.18.18 0 0 0 .252 0 .18.18 0 0 0 .052-.126.17.17 0 0 0-.052-.126.17.17 0 0 0-.126-.052m3.675.84a.178.178 0 0 0-.126.304q.025.025.058.039a.18.18 0 0 0 .195-.039.18.18 0 0 0 .052-.126.18.18 0 0 0-.053-.126.2.2 0 0 0-.058-.039.2.2 0 0 0-.068-.013m-1.197.041a.18.18 0 0 0-.126.053.18.18 0 0 0-.052.126c0 .047.018.093.052.126a.18.18 0 0 0 .126.052.2.2 0 0 0 .068-.013.2.2 0 0 0 .058-.039.176.176 0 0 0-.058-.291.2.2 0 0 0-.068-.014m-1.239.106a.17.17 0 0 0-.126.052.17.17 0 0 0-.053.126q0 .035.013.068a.18.18 0 0 0 .331 0 .18.18 0 0 0-.039-.194.18.18 0 0 0-.126-.052m-1.197.104a.18.18 0 0 0-.127.053.2.2 0 0 0-.038.058.18.18 0 0 0 .039.194.18.18 0 0 0 .126.052.18.18 0 0 0 .126-.052.18.18 0 0 0-.126-.305" clip-rule="evenodd"/><path stroke="#000" stroke-miterlimit="6.3" stroke-width=".465" d="M415.787 219.353s-5.403.197-7.981.924c-2.496.705-4.941 1.776-7.056 3.277-2.261 1.604-4.062 3.802-5.797 5.964-.67.837-1.59 1.631-1.764 2.689-.127.77.144 1.625.588 2.268.604.876 2.169.877 2.604 1.848.208.463.036 1.048-.168 1.512-.72 1.635-2.025 3.067-3.528 4.033-1.402.9-3.326.63-4.789 1.428-1.36.741-2.633 1.76-3.528 3.024-.538.76-1.163 1.686-1.008 2.604.079.471.45 1.042.924 1.092.457.049.778-.504 1.092-.84.551-.59.773-1.445 1.344-2.016.786-.785 1.73-1.464 2.772-1.848 1.112-.41 2.403-.053 3.529-.42 1.466-.479 2.871-1.253 4.032-2.268 1.295-1.132 2.539-2.494 3.108-4.117.325-.925.519-2.061.085-2.94-.383-.773-1.605-.806-2.101-1.512-.234-.334-.419-.777-.336-1.176.252-1.208 1.42-2.049 2.352-2.857.818-.707 1.784-1.244 2.773-1.68 1.816-.801 3.757-1.34 5.712-1.68 1.907-.331 5.797-.336 5.797-.336l.84.084z" clip-rule="evenodd"/><path fill="#efae0e" fill-rule="evenodd" d="M449.498 163.232a136.96 136.96 0 0 0-96.847 40.116 136.96 136.96 0 0 0 0 193.695 136.962 136.962 0 1 0 96.847-233.811m0 3.327a133.637 133.637 0 1 1 0 267.274 133.637 133.637 0 0 1 0-267.274" clip-rule="evenodd"/><path fill="#efae0e" fill-rule="evenodd" d="M449.498 129.967a170.23 170.23 0 0 0-120.37 290.598 170.226 170.226 0 0 0 240.74.001 170.225 170.225 0 0 0 36.902-185.514 170.24 170.24 0 0 0-92.128-92.128 170.2 170.2 0 0 0-65.143-12.958zm0 3.326a166.904 166.904 0 0 1 154.198 230.773 166.905 166.905 0 0 1-154.198 103.032 166.902 166.902 0 0 1 0-333.805" clip-rule="evenodd"/><path fill="#efae0e" fill-rule="evenodd" d="M449.497 120.561a179.633 179.633 0 0 0-179.634 179.634 179.634 179.634 0 0 0 306.656 127.021 179.633 179.633 0 0 0-58.278-292.981 179.6 179.6 0 0 0-68.743-13.674zm0 6.079a173.556 173.556 0 1 1 0 347.111 173.556 173.556 0 0 1 0-347.111" clip-rule="evenodd"/><path fill="#fff" d="M510.684 317.555h6.712v4.671h-6.712z"/><path fill="#fff" d="M517.924 322.225q-3.37.087-6.74.131l-.062-4.671q3.342-.043 6.683-.129zm-11.46.173q-3.372.016-6.743-.011l.037-4.672q3.342.027 6.685.012zM495 322.329a523 523 0 0 1-6.742-.155l.137-4.67q3.34.097 6.683.154zm-11.461-.315a522 522 0 0 1-6.738-.301l.239-4.665q3.338.17 6.678.298zm-11.452-.563a504 504 0 0 1-6.729-.45l.341-4.658q3.333.243 6.669.445zm-11.436-.816q-3.362-.278-6.717-.6l.445-4.649q3.326.318 6.656.593zm-11.415-1.073a505 505 0 0 1-6.702-.751l.552-4.638q3.317.394 6.639.745zm-11.386-1.332a470 470 0 0 1-6.682-.906l.659-4.622q3.307.471 6.619.897zm-11.352-1.594a483 483 0 0 1-6.658-1.063l.767-4.605q3.294.548 6.595 1.052zm-11.31-1.862a466 466 0 0 1-6.632-1.221l.878-4.585q3.279.627 6.567 1.209zm-11.264-2.132a466 466 0 0 1-6.601-1.381l.99-4.563q3.262.708 6.535 1.368zm-11.209-2.405a447 447 0 0 1-6.567-1.544l1.103-4.538q3.244.79 6.499 1.529z"/></svg>