<svg xmlns="http://www.w3.org/2000/svg" width="900" height="600" fill="none"><g clip-path="url(#a)"><mask id="b" width="900" height="600" x="0" y="0" maskUnits="userSpaceOnUse" style="mask-type:luminance"><path fill="#fff" d="M0 600V0l900 112.5L692.308 300 900 487.5z"/></mask><g mask="url(#b)"><path fill="#fff" d="M900 112.5 0 0v600l900-112.5"/><path stroke="#c1133d" stroke-width="120" d="M900 112.5 0 0v600l900-112.5"/><path fill="#fff" d="M0 300h900z"/><path stroke="#c1133d" stroke-width="60" d="M0 300h900"/></g><path fill="#001c5a" d="M-.602 0v600L598 300z"/><path fill="#fff" d="M184.378 412.5c61.987 0 112.238-50.368 112.238-112.5s-50.251-112.5-112.238-112.5S72.141 237.868 72.141 300s50.25 112.5 112.237 112.5"/><path fill="#c1133d" d="M184.38 375c41.325 0 74.825-33.579 74.825-75s-33.5-75-74.825-75-74.825 33.579-74.825 75 33.5 75 74.825 75"/><path fill="#fff" d="m504.981 300-22.239-7.243-3.613 11.146z"/><path fill="#fff" d="m504.981 300-22.239 7.242-3.613-11.145z"/><path fill="#fff" d="M488.82 322.29v-23.437h-11.691z"/><path fill="#fff" d="m488.818 322.29-13.744-18.961 9.459-6.888z"/><path fill="#fff" d="m488.822 277.71-13.744 18.962 9.459 6.888z"/><path fill="#fff" d="M488.82 277.71v23.437h-11.691z"/><path fill="#fff" d="m462.68 313.776 22.238-7.242-3.613-11.146z"/><path fill="#fff" d="m462.678 313.776 13.744-18.961 9.458 6.888z"/><path fill="#fff" d="m462.682 286.224 13.744 18.961 9.458-6.888z"/><path fill="#fff" d="m462.68 286.224 22.238 7.242-3.613 11.146zM355.328 300l-22.238-7.242-3.613 11.145z"/><path fill="#fff" d="m355.328 300-22.238 7.242-3.613-11.145z"/><path fill="#fff" d="M339.172 322.29v-23.437H327.48z"/><path fill="#fff" d="m339.17 322.291-13.744-18.962 9.458-6.888z"/><path fill="#fff" d="m339.17 277.71-13.744 18.962 9.458 6.888z"/><path fill="#fff" d="M339.168 277.71v23.438h-11.691z"/><path fill="#fff" d="m313.027 313.776 22.239-7.242-3.613-11.145z"/><path fill="#fff" d="m313.025 313.776 13.745-18.961 9.458 6.888z"/><path fill="#fff" d="m313.029 286.224 13.744 18.961 9.459-6.888z"/><path fill="#fff" d="m313.027 286.224 22.239 7.242-3.613 11.146zm113.647-27.52-23.135-3.404-1.698 11.595z"/><path fill="#fff" d="m426.673 258.704-20.712 10.877-5.426-10.381z"/><path fill="#fff" d="m414.474 283.394-3.919-23.106-11.526 1.964z"/><path fill="#fff" d="m414.475 283.394-16.721-16.384 8.173-8.38z"/><path fill="#fff" d="m407.019 239.444-10.378 21.002 10.476 5.201z"/><path fill="#fff" d="m407.018 239.443 3.92 23.106-11.526 1.965z"/><path fill="#fff" d="m387.28 279.393 20.712-10.877-5.425-10.38z"/><path fill="#fff" d="m387.278 279.393 10.378-21.003 10.477 5.202z"/><path fill="#fff" d="m382.67 252.23 16.721 16.384 8.172-8.38z"/><path fill="#fff" d="m382.67 252.23 23.135 3.404-1.698 11.594zm44.003 89.066-20.712-10.877-5.426 10.381z"/><path fill="#fff" d="m426.674 341.296-23.135 3.403-1.698-11.594z"/><path fill="#fff" d="m407.018 360.556 3.92-23.106-11.526-1.964z"/><path fill="#fff" d="m407.019 360.556-10.378-21.002 10.476-5.202z"/><path fill="#fff" d="M414.471 316.606 397.75 332.99l8.173 8.38z"/><path fill="#fff" d="m414.471 316.606-3.92 23.106-11.526-1.964z"/><path fill="#fff" d="m382.67 347.77 23.135-3.403-1.698-11.595z"/><path fill="#fff" d="m382.67 347.77 16.721-16.383 8.172 8.38z"/><path fill="#fff" d="m387.274 320.607 10.378 21.003 10.477-5.202z"/><path fill="#fff" d="m387.276 320.608 20.712 10.876-5.425 10.381zm-126.45 132.65-3.482-23.176-11.561 1.745z"/><path fill="#fff" d="m260.826 453.258-16.408-16.698 8.33-8.223z"/><path fill="#fff" d="m233.715 448.741 20.914-10.481-5.229-10.482z"/><path fill="#fff" d="m233.711 448.742 10.773-20.802 10.377 5.399z"/><path fill="#fff" d="m273.492 428.804-23.066-3.842-1.917 11.561z"/><path fill="#fff" d="m273.492 428.804-20.914 10.482-5.228-10.482z"/><path fill="#fff" d="m229.615 421.496 16.408 16.698 8.33-8.223z"/><path fill="#fff" d="m229.617 421.496 23.067 3.842-1.917 11.56z"/><path fill="#fff" d="m254.203 409.174-10.773 20.802 10.376 5.399z"/><path fill="#fff" d="m254.201 409.175 3.483 23.176-11.561 1.745zm-77.505 62 8.218-21.943-10.946-4.118z"/><path fill="#fff" d="m176.695 471.175-6.218-22.594 11.27-3.116z"/><path fill="#fff" d="m155.203 453.994 23.359 1.054.526-11.707z"/><path fill="#fff" d="m155.203 453.994 19.516-12.91 6.44 9.781z"/><path fill="#fff" d="m199.636 455.998-18.281-14.614-7.29 9.161z"/><path fill="#fff" d="m199.633 455.998-23.36-1.054.526-11.706z"/><path fill="#fff" d="m164.859 428.199 6.219 22.594 11.27-3.117z"/><path fill="#fff" d="m164.86 428.199 18.281 14.615-7.291 9.161z"/><path fill="#fff" d="m192.324 429.438-19.515 12.91 6.44 9.781z"/><path fill="#fff" d="m192.323 429.438-8.218 21.942-10.945-4.118zm-97.817 16.319 17.838-15.154-7.559-8.94z"/><path fill="#fff" d="m94.506 445.757 5.545-22.769 11.358 2.779z"/><path fill="#fff" d="m84.086 420.262 19.891 12.322 6.146-9.969z"/><path fill="#fff" d="m84.085 420.262 23.317-1.75.873 11.686z"/><path fill="#fff" d="m121.917 443.7-8.866-21.688-10.819 4.444z"/><path fill="#fff" d="m121.914 443.7-19.891-12.322 6.147-9.969z"/><path fill="#fff" d="m105.053 402.448-5.545 22.769 11.358 2.779z"/><path fill="#fff" d="m105.052 402.448 8.866 21.687-10.818 4.444z"/><path fill="#fff" d="m128.439 416.933-23.318 1.75.873 11.686z"/><path fill="#fff" d="m128.44 416.933-17.838 15.154-7.56-8.94zM92.043 528.301l15.051-17.936-8.948-7.544z"/><path fill="#fff" d="m92.04 528.301 1.66-23.378 11.661.831z"/><path fill="#fff" d="m77.502 504.918 21.67 8.805 4.392-10.86z"/><path fill="#fff" d="m77.504 504.918 22.695-5.643 2.815 11.374z"/><path fill="#fff" d="m118.719 521.667-12.367-19.891-9.923 6.199z"/><path fill="#fff" d="m118.721 521.667-21.67-8.805 4.392-10.861z"/><path fill="#fff" d="m95.194 483.832-1.659 23.379 11.662.831z"/><path fill="#fff" d="m95.19 483.832 12.369 19.891-9.923 6.198z"/><path fill="#fff" d="m120.668 494.184-22.695 5.643 2.815 11.374z"/><path fill="#fff" d="m120.668 494.184-15.051 17.936-8.947-7.543zm-98.714-9.304 20.12-11.942-5.957-10.084z"/><path fill="#fff" d="m21.952 484.88 9.275-21.515 10.732 4.648z"/><path fill="#fff" d="m15.936 457.995 17.548 15.489 7.727-8.795z"/><path fill="#fff" d="m15.939 457.995 23.28 2.192-1.094 11.667z"/><path fill="#fff" d="m49.32 487.457-5.113-22.87-11.408 2.563z"/><path fill="#fff" d="M49.318 487.457 31.77 471.968l7.726-8.795z"/><path fill="#fff" d="m39.59 443.956-9.274 21.515 10.733 4.648z"/><path fill="#fff" d="m39.59 443.956 5.113 22.87-11.408 2.563z"/><path fill="#fff" d="m60.222 462.165-23.28-2.193-1.094 11.667z"/><path fill="#fff" d="m60.221 462.165-20.12 11.942-5.956-10.084zM35.07 383.44l22.942-4.528-2.26-11.498z"/><path fill="#fff" d="m35.068 383.44 15.905-17.18 8.57 7.971z"/><path fill="#fff" d="m38.352 356.085 11.386 20.471 10.212-5.707z"/><path fill="#fff" d="m38.35 356.085 21.216 9.853-4.915 10.633z"/><path fill="#fff" d="m60.008 395.023 2.793-23.27-11.608-1.4z"/><path fill="#fff" d="M60.008 395.023 48.62 374.552l10.212-5.707z"/><path fill="#fff" d="m65.323 350.761-15.905 17.18 8.57 7.971z"/><path fill="#fff" d="m65.324 350.761-2.793 23.27-11.608-1.4z"/><path fill="#fff" d="m78.705 374.826-21.217-9.853-4.915 10.633z"/><path fill="#fff" d="m78.708 374.826-22.942 4.529-2.26-11.498zM13.434 300l22.238 7.242 3.613-11.145z"/><path fill="#fff" d="m13.434 300 22.238-7.243 3.613 11.146z"/><path fill="#fff" d="M29.59 277.71v23.437h11.69z"/><path fill="#fff" d="m29.592 277.71 13.744 18.961-9.459 6.888z"/><path fill="#fff" d="m29.588 322.29 13.744-18.961-9.458-6.888z"/><path fill="#fff" d="M29.59 322.29v-23.437h11.69z"/><path fill="#fff" d="m55.735 286.224-22.239 7.242 3.613 11.146z"/><path fill="#fff" d="m55.736 286.224-13.744 18.961-9.458-6.888z"/><path fill="#fff" d="m55.732 313.776-13.744-18.961-9.458 6.888z"/><path fill="#fff" d="m55.735 313.776-22.239-7.243 3.613-11.145zm205.091-167.034-3.482 23.176-11.561-1.745z"/><path fill="#fff" d="m260.826 146.742-16.408 16.698 8.33 8.223z"/><path fill="#fff" d="m233.715 151.258 20.914 10.482-5.229 10.482z"/><path fill="#fff" d="m233.711 151.258 10.773 20.802 10.377-5.399z"/><path fill="#fff" d="m273.492 171.196-23.066 3.842-1.917-11.56z"/><path fill="#fff" d="m273.492 171.196-20.914-10.482-5.228 10.482z"/><path fill="#fff" d="m229.615 178.504 16.408-16.698 8.33 8.223z"/><path fill="#fff" d="m229.617 178.504 23.067-3.842-1.917-11.56z"/><path fill="#fff" d="m254.203 190.826-10.773-20.802 10.376-5.399z"/><path fill="#fff" d="m254.201 190.826 3.483-23.176-11.561-1.746zm-77.509-62.001 8.218 21.943-10.945 4.118z"/><path fill="#fff" d="m176.691 128.825-6.218 22.594 11.27 3.116z"/><path fill="#fff" d="m155.199 146.006 23.36-1.054.525 11.707z"/><path fill="#fff" d="m155.199 146.006 19.516 12.91 6.44-9.781z"/><path fill="#fff" d="m199.636 144.002-18.281 14.614-7.29-9.161z"/><path fill="#fff" d="m199.633 144.002-23.36 1.054.526 11.706z"/><path fill="#fff" d="m164.859 171.801 6.219-22.593 11.27 3.116z"/><path fill="#fff" d="m164.86 171.801 18.281-14.615-7.291-9.161z"/><path fill="#fff" d="m192.324 170.562-19.515-12.91 6.44-9.78z"/><path fill="#fff" d="m192.323 170.562-8.218-21.942-10.945 4.119zm-97.821-16.319 17.838 15.153-7.559 8.94z"/><path fill="#fff" d="m94.502 154.243 5.545 22.769 11.358-2.779z"/><path fill="#fff" d="m84.078 179.738 19.891-12.322 6.146 9.968z"/><path fill="#fff" d="m84.077 179.738 23.318 1.75.873-11.686z"/><path fill="#fff" d="m121.913 156.3-8.866 21.688-10.818-4.444z"/><path fill="#fff" d="m121.91 156.3-19.89 12.322 6.146 9.969z"/><path fill="#fff" d="m105.049 197.552-5.545-22.769 11.358-2.779z"/><path fill="#fff" d="m105.048 197.552 8.866-21.687-10.818-4.444z"/><path fill="#fff" d="m128.435 183.067-23.318-1.75.873-11.686z"/><path fill="#fff" d="m128.436 183.067-17.838-15.154-7.56 8.94zM92.043 71.699l15.051 17.936-8.948 7.543z"/><path fill="#fff" d="m92.04 71.699 1.66 23.378 11.661-.83z"/><path fill="#fff" d="m77.502 95.082 21.67-8.806 4.392 10.86z"/><path fill="#fff" d="m77.504 95.082 22.695 5.643 2.815-11.374z"/><path fill="#fff" d="m118.719 78.333-12.367 19.89-9.923-6.198z"/><path fill="#fff" d="m118.721 78.333-21.67 8.805 4.392 10.86z"/><path fill="#fff" d="m95.194 116.167-1.659-23.378 11.662-.831z"/><path fill="#fff" d="m95.19 116.167 12.369-19.89-9.923-6.199z"/><path fill="#fff" d="m120.668 105.816-22.695-5.644 2.815-11.373z"/><path fill="#fff" d="m120.668 105.816-15.051-17.937-8.947 7.544zm-98.714 9.304 20.12 11.942-5.957 10.084z"/><path fill="#fff" d="m21.952 115.12 9.275 21.515 10.732-4.648z"/><path fill="#fff" d="m15.936 142.006 17.548-15.49 7.727 8.795z"/><path fill="#fff" d="m15.939 142.005 23.28-2.192-1.094-11.667z"/><path fill="#fff" d="m49.32 112.543-5.113 22.87-11.408-2.563z"/><path fill="#fff" d="M49.318 112.543 31.77 128.032l7.726 8.795z"/><path fill="#fff" d="m39.59 156.044-9.274-21.515 10.733-4.648z"/><path fill="#fff" d="m39.59 156.044 5.113-22.87-11.408-2.562z"/><path fill="#fff" d="m60.222 137.836-23.28 2.192-1.094-11.667z"/><path fill="#fff" d="m60.221 137.835-20.12-11.942-5.956 10.084zM35.07 216.56l22.942 4.529-2.26 11.497z"/><path fill="#fff" d="m35.068 216.56 15.905 17.18 8.57-7.971z"/><path fill="#fff" d="m38.352 243.915 11.386-20.471 10.212 5.707z"/><path fill="#fff" d="m38.35 243.915 21.216-9.853-4.915-10.633z"/><path fill="#fff" d="m60.008 204.977 2.793 23.27-11.608 1.4z"/><path fill="#fff" d="M60.008 204.977 48.62 225.448l10.212 5.707z"/><path fill="#fff" d="m65.323 249.239-15.905-17.18 8.57-7.971z"/><path fill="#fff" d="m65.324 249.239-2.793-23.27-11.608 1.4z"/><path fill="#fff" d="m78.705 225.174-21.217 9.853-4.915-10.633z"/><path fill="#fff" d="m78.708 225.174-22.942-4.529-2.26 11.498z"/></g><defs><clipPath id="a"><path fill="#fff" d="M0 0h900v600H0z"/></clipPath></defs></svg>