<svg xmlns="http://www.w3.org/2000/svg" width="900" height="600" fill="none"><path fill="#041e42" d="M0 600h900V0H0z"/><path fill="#fff" fill-rule="evenodd" d="M79.658 131.023c-23.407 78.031 70.707 141.08 134.815 84.507 67.23-70.593-7.797-165.937-85.711-135.502 56.865-9.778 90.761 55.926 52.523 96.923-36.934 37.729-104.288 12.936-101.627-45.928m410.664-9.673c-2.982 1.386-5.185 5.421-6.444 8.605-2.987 8.889-6.058 17.76-9.06 26.634-1.566 3.991-3.078 8.051-4.656 12.01-2.896-.39 1.143-5.338.92-7.455.957-4.345 3.084-8.593 3.267-13.027-.728-3.321.073-7.63-1.575-10.333-2.461 5.678-5.578 11.116-7.695 16.922-1.593 6.967-3.731 13.81-4.624 20.919-.533 3.68-1.18 7.308-2.375 10.837-2.947-.275-2.168-5.468-3.902-7.609-1.572-5.001-4.739-9.329-7.028-14.023-1.17-1.163-3.857-9.338-3.809-4.782-.263 3.292-.489 6.586-.79 9.874-6.549-12.238-13.117-24.465-19.673-36.699.533 3.974-.017 8.258 1.427 12.013 3.18 6.855 6.086 13.833 9.123 20.752-1.598 1.512-1.92-.987-2.719-2.003L412.536 131.9c-2.446 1.719-.742 4.887-1.058 7.365.999 3.475 3.302 6.586 4.87 9.878 2.867 5.363 5.814 10.701 8.758 16.009-2.11 2.327-3.259-4.261-4.77-5.745-5.478-9.502-10.899-19.04-16.539-28.447-2.472.854-3.236 2.664-2.821 5.059-.408 2.4.586 4.441 1.974 6.369 4.238 7.336 8.516 14.648 12.79 21.963-1.448 1.682-1.891-.774-2.735-1.757l-20.629-32.644c-1.673-.753-4.039-2.761-3.504.574-.795 4.174 3.741 7.092 5.224 10.702 6.117 9.463 12.419 18.977 18.51 28.348-1.275 1.719-1.86-.476-2.682-1.419l-11.594-16.443c-1.443-.375-3.297-1.313-2.752 1.028-.095 1.487-.492 3.054.77 4.174 6.182 9.278 12.48 18.509 18.59 27.816 1.983 4.055 3.789 8.232 5.88 12.211l10.59 10.899c-2.534 2.041-5.101-4.436-7.625-5.605-2.673-3.009-6.268-5.414-7.778-9.266-1.833-2.866-2.886-6.289-5.714-8.385-3.133-2.351-5.541-6.634-9.175-7.698-1.175 2.591-.217 8.418 3.302 10.42.351.965 5.284 4.288 2.576 3.607-5.312-.584-10.302-2.442-15.279-4.277-3.008 2.885 7.181 5.195 1.462 6.372-4.137.056-7.327-3.695-11.107-5.084-9.424-5.153-19.078-9.899-28.714-14.624l-6.001-1.811c-.557 3.49 4.896 4.474 6.708 6.942 7.309 3.947 14.798 7.687 22.122 11.652-.234 2.201-2.221.537-3.55.324l-41.123-13.242c-2.302-.551-1.901.658-.969 2.211.229 1.796 2.014 1.886 3.407 2.405 10.76 3.611 21.511 7.252 32.277 10.844.424 1.696.779 3.409 1.149 5.118-2.446-2.015-4.857-4.319-8.207-4.537-7.008-1.735-14.23-.264-21.335-.183-3.791-.909-4.283 2.152-.507 2.805 3.034 2.358 6.946 1.034 10.473 1.221 5.737-.171 11.473-.355 17.208-.56 1.016 3.269-5.6 1.081-5.851 3.736-.662 3.151 5.285 3.152 7.432 2.507 3.281.055 5.555-4.808 8.343-3.979-.729 3.119-6.205 3.816-6.827 7.043-.412 3.232 6.185 2.281 8.083.9 2.202-1.829 5.992-4.592 6.195.309.641 4.428 6.496 2.713 9.68 4.213 5.674.865 11.485 1.225 17.107 2.154 5.38 2.441 10.777 4.864 16.145 7.317-1.104 3.046-5.835-1.572-8.287-1.393-4.062-1.134-7.804-3.44-12.119-3.482-3.731-.685-7.477-.606-11.222-.17-11.343.948-22.708 1.717-34.037 2.776-10.543 1.781-21.113 3.486-31.654 5.228-2.678.832-8.501 2.401-2.925 3.482 11.97-.562 23.915-1.569 35.863-2.472.864 2.09-1.703 1.377-2.989 1.71l-29.81 3.026c-3.059 2.262-7.142 3.507-8.809 7.207.479 5.268 7.073.45 10.341.801 8.598-1.446 17.163-2.814 25.453-5.467 2.469.198 8.644-4.213 9.018-1.044-9.374 2.891-18.771 5.823-28.224 8.443l-6.038 1.411c-.588 4.838 6.73 2.016 9.714 2.785 6.56-1.534 12.812-4.181 19.296-6.02 3.457-.284 8.695-4.337 11.2-2.673-2.226 2.273-7.396 3.472-10.628 5.353-6.671 2.918-13.436 5.598-19.937 8.911-4.283 4.339 4.55 3.941 6.718 1.694 6.946-3.186 13.806-6.55 20.65-9.981 1.677 1.388-.789 2.051-1.663 3.003-3.877 3.035-7.658 6.174-11.981 8.561-1.675 1.344-4.413 1.814-4.741 4.279 3.798 2.159 7.426-.459 10.829-2.159a1088 1088 0 0 1 26.95-16.887c3.915-1.753 7.931-3.272 11.908-4.875 1.537 1.534-.975 2-1.927 2.9-4.369 2.924-8.756 5.828-13.115 8.765-4.766 4.929-9.081 10.35-14.709 14.351-2.624 2.195-5.303 4.172-7.377 6.593-4.116 4.139-8.377 8.131-12.455 12.308-1.272 4.219-3.982 8.185-3.683 12.711.052 4.873-.502 9.8-.042 14.64.5 2.011 1.66 6.597 2.053 2.013.221-2.096 1.668-9.324 3.22-4.252.854 1.897 1.693 7.617 2.704 6.624 1.482-2.935 1.756-7.053 4.14-9.278 2.124 1.24 3.802 4.298 5.826.779 2.567-2.989 2.187-7.483 3.465-11.124q1.651-7.085 3.313-14.167c2.013-.583 1.536 1.854 2.038 3.105l1.932 8.733c4.393-1.904 2.599-7.842 4.015-11.598.282-2.816 1.177-10.229 4.201-4.57 1.776 4.259 6.697-.651 6.547-3.748 1.005-4.909 1.967-9.826 2.995-14.729 1.318 2.349 2.692 4.666 4.039 6.999 4.586-.213 6.164-4.813 9.14-7.54 2.673-2.776 5.058-5.992 8.025-8.408 3.382-1.742 6.55-4.071 10.028-5.571 3.394 3.137-1.728 7.372-3.656 10.063-4.302 5.316-9.613 9.695-14.118 14.842-1.778 2.053-4.56 3.775-3.814 6.83 2.261 1.008 4.618 1.924 6.895 2.945-3.439 1.724-7.134 3.206-10.307 5.293-3.072 2.657-6.388 5.016-9.61 7.486-.87 2.338-1.432 4.978 2.027 4.006 2.469-.426 9.118.63 3.892 3.062-4.911 3.21-10.597 5.214-15.459 8.392-1.347 1.797-4.961 4.618-.557 4.491 2.94-.423 7.343-4.904 9.528-2.635-3.091 3.415-7.098 6.711-10.481 10.124-1.723 1.333-5.544 5.04-3.282 6.082 5.36-2.563 9.126-7.379 13.692-11.048 1.605-2.549 5.904-4.814 4.543.155-5.301 6.6-10.426 13.388-15.881 19.815.55 6.455 4.7-1.852 6.745-3.584 3.188-3.764 6.152-7.796 10.319-10.548 1.447-.314 5.263-5.75 5.464-3.528-.097 1.848.474 3.911-1.097 5.349-3.296 4.443-5.499 9.526-8.199 14.331-.446 2.074-.908 8.034 2.089 5.223 3.568-6.654 7.921-12.877 10.73-19.924 2.88-6.043 4.823-12.53 7.236-18.725 2.032-3.032 3.025-2.004 2.742 1.165.327 2.947.203 9.253 2.238 9.698 3.698-8.45 8.341-16.442 12.284-24.766 1.365-4.062 2.987-8.051 4.672-12.003 2.125-.223 1.149 2.084 1.358 3.423-.142 2.687.285 5.468-.209 8.097-2.291 6.58-4.009 13.366-7.205 19.595-1.937 4.005-4.675 7.615-6.548 11.643-1.877 2.445-1.181 2.463.935 1.026 3.741-1.713 6.253-4.925 8.847-7.98 4.08-3.273 1.051 4.168.11 5.746-2.219 6.291-3.655 12.892-6.166 19.105-.032 1.883-.685 6.211 1.714 2.898 4.503-3.521 6.142-9.16 8.836-13.97 1.633 2.386 4.706 3.765 6.194.823-.25-3.717-1.963-7.568-.29-11.168 1.652-5.953 3.009-12.019 3.941-18.121.448-3.71.698-7.462 1.158-11.159 2.064-1.063 1.192 2.214 1.358 3.458v8.485c2.022.223 5.733-3.361 6.789-1.009-2.041 1.748-5.158 2.831-7.006 4.733l-.236 7.105 7.556-4.596c1.786 1.256-.581 2.126-1.391 3.164l-6.2 5.785-.104 5.014c1.751-.551 3.515-1.063 5.257-1.637 1.437 1.635-1.041 2.003-2.068 2.856-1.162 1.079-3.773 1.264-3.396 3.293-.132 5.102-.319 10.2-.525 15.3.921-1.823 4.169-6.213 3.694-6.462-1.064 2.084-4.939 2.224-2.301.055 1.097-1.332 7.076-5.588 4.965-1.336-2.058 2.968-3.846 6.92-6.007 9.357-.614-.059-1.352 4.303.511 3.442 1.546 1.052 6.317 1.531 3.022 3.363-1.41 1.415-3.176 2.675-4.371 4.185.098 4.27-.978 11.38-.143 13.86 1.26-1.77 5.405-4.967 4.535-5.803-1.748.835-7.076.437-3.347-.919 2.271-.86 8.615-1.104 4.561 2.472-2.16 3.851-7.303 5.062-6.333 9.274.02 3.108-1.253 5.006 2.551 4.437 4.353-.381 4.656 3.861.732 5.022-2.698 1.574-5.057 1.471-3.426 5.049.84 2.35 6.645 3.937 5.188 6.372-.218-2.746-.835 1.059-2.337-1.696-1.849-1.474-4.229-4.979-3.447-.33-.339 8.87-.69 17.739-1.041 26.608 1.83-.56 5.075 2.003 5.107 3.191-1.886 1.749-6.391-5.892-5.219.159.063 2.726-.654 7.763-.099 9.031.908-.764 2.349 1.421 3.464 1.798l3.815 2.639c-.7 2.161-2.192-.067-3.386-.641l-4.204-2.911c.329 3.606-1.256 10.241.196 12.106 1.655 1.22 5.978 4.727 5.871 6.687-2.139.572-5.229-5.812-6.575-5.448-.209 5.382-.401 10.765-.606 16.147 2.246.754 6.797 3.679 7.983 5.521-2.029 1.72-6.315-4.667-8.072-3.856-.318 4.348-.057 8.792-.68 13.089-.824 3.124 7.783 2.353 5.922 5.545-3.175-1.046-7.58-5.588-7.606.282-.678 4.678-4.937 9.456-1.621 13.89 1.276 3.6 5.365 5.133 8.426 6.964 3.616-.571 7.086-2.358 10.852-2.499 5.549-.86 11.194-1.169 16.725-2.063 2.337-1.704 5.234-3.311 1.71-5.497-2.805-3.443-2.138-8.351-3.765-12.26-.003-3.182-.657-4.566-3.457-2.268-2.194.435-5.605 5.114-6.849 2.198 3.279-1.587 6.255-3.651 9.575-5.188-.392-4.164-1.197-8.305-1.114-12.5-2.623 1.692-6.498 5.21-9.016 4.724 1.027-2.343 6.044-3.374 8.18-5.838 1.553-.021.539-2.224.803-3.526l-.106-10.889c-2.43 2.743-5.34 4.699-9.018 5.292-2.737-2.392 4.176-1.53 5.069-3.567 1.654-1.869 4.712-3.033 3.893-5.955l-.084-9.629c-2.138 1.42-6.056 6.513-8.121 4.403 2.233-1.989 7.066-3.893 8.079-6.869l-.132-12.506c-2.305 3.08-5.451 5.189-9.174 6.16-1.827 2.026-5.555.226-1.839-.788 3.624-1.201 7.285-2.514 9.539-5.809 2.049-1.098 1.36-3.049 1.434-5.071l-.099-8.907c-4.329 3.839-8.24 8.095-12.535 11.978-2.261-2.386 4.202-4.456 5.119-6.825 2.137-2.561 5.762-5.037 7.411-7.238l-.099-9.719c-1.65 1.527-4.323 3.462-.941 1.637 1.515 1.704-1.143 1.878-2.257 2.618-1.533.719-3.072 1.427-4.602 2.152-1.601-3.006 5.18-4.479 6.532-7.123 1.83.449 1.151-1.275 1.235-3.055l-.072-6.779c-2.262 4.119-6.769 1.731-10.366.983-2.657-.217-.157-1.028.947-1.684l8.549-4.591c1.606 1.621-1.044 1.929-2.118 2.723l-5.055 2.674c3.159 1.769 7.033.637 8.002-2.432.008-5.427-.148-10.761-.412-16.197-2.496 2.509-3.93 5.253-7.033 6.372 1.452-.671 7.438.201 3.412 1.254-2.308.461-10.016.755-4.622-2.186 2.754-1.082 4.543-3.094 6.295-5.405 2.082-1.2 2.063-2.013 1.781-4.465l-.424-10.02c-1.264 1.555-6.649 5.81-5.276 5.806 1.612-1.016 7.93-1.311 4.174.513-2.409-.152-7.617 3.203-8.474.262 3.357-1.927 5.825-4.937 8.629-7.59 1.641.21.559-2.203.766-3.695l-1.212-30.08c-1.577 1.4-8.181 6.737-5.767 1.44 1.619-1.855 3.269-5.1 5.066-5.731 1.177-.604.103-2.794.377-4.033.272-3.069-1.6-5.683-2.516-8.5-.063-1.151-2.221-3.163-.386-3.504 1.997 1.696 2.942 6.303 4.561 9.029 2.461 5.697 5.272 11.269 7.439 17.079 1.198 4.835 2.473 9.653 2.647 14.659 1.229-.448 3.523.294 3.438-1.623.287-1.886 1.649-3.83.452-5.635-5.392-14.675-11.524-29.058-17.226-43.613 1.352-1.404 1.8.511 2.331 1.651 3.316 6.612 5.483 13.724 8.246 20.581 2.805 7.436 5.754 14.829 9.13 22.023 5.195-3.022.899-8.435.166-12.832-2.428-8.042-5.71-15.801-8.524-23.716-.835-1.406-2.66-2.066-3.875-3.187-1.789-1.319-3.622-2.655-5.385-3.963 1.466-2.767 4.718 2.098 6.967 2.338 3.866 4.075 4.819-2.188 8.25-2.907.962 3.53-5.56 6.387-2.088 10.465 2.503 8.538 4.749 17.162 8.063 25.432.549 1.49 1.104 2.979 1.649 4.471-1.121 1.611.476 8.509 2.762 6.731.783-3.724 3.165-7.409 1.142-11.173-2.969-11.346-7.044-22.367-10.474-33.579.045-4.086 2.597 1.742 2.882 3.499 3.944 10.71 8.211 21.322 11.697 32.189-.741 3.192-.718 9.943 3.447 6.128.186-4.262.519-8.626-1.254-12.639-3.605-9.596-6.471-19.473-9.679-29.214-1.833 1.993-5.279.084-5.814-2.117.615-4.84-3.381-4.704-6.991-4.394-1.578-.154 2.756-2.416 3.264-3.238 1.95-1.072 6.105-4.352 2.098-5.232-1.28-.588-2.553-1.19-3.839-1.767 1.912-3.291 3.894-6.521 6.427-9.385 1.561-2.846.375-7.951-2.653-9.686-2.196-1.206-1.949-3.989-2.817-6.05-1.147-1.214.003-3.554.917-1.794l1.713 5.884c3.307 1.775 4.842 4.687 4.765 8.358 1.508 3.427-2.467 5.506-3.933 8.1-.874 1.27-1.611 2.639-2.434 3.946 1.841.868 3.721 1.657 5.536 2.577.381 3.46-5.591 5.748-5.153 6.929 5.796-1.555 2.278 6.523 6.652 7.185 1.487-.015 2.78-1.494 4.187-2.108 2.511.474-1.053 1.644-.462 2.766 4.678 12.72 9.482 25.451 13.927 38.223-.424 4.621 3.978 5.224 6.72 7.138.38 2.463 1.558 7.142 4.157 6.137.112-6.59.525-13.219.543-19.786.377-2.25-3.446-7.702-.313-7.974 1.759 5.153 4.088 10.177 5.295 15.482.851 3.445-.844 9.042 4.097 9.555 2.181.886.493-7.033 2.829-4.877l3.865 3.064c5.23.126 1.342-5.608 1.428-8.53-1.645-4.089-3.206-8.228-4.84-12.326 2.435-1.008-1.308.356-.603-2.255-.562-4.043-3.182-7.084-5.527-10.245-.995-2.142-.928-4.68-2.786-1.637-2.211 1.83-1.237 4.85.314 6.78 2.522 3.904 2.272 9.063 5.422 12.592 1.385 2.274 3.244 4.567 2.762 7.387.124 1.299.227 3.88-1.392 2.63-.217-2.203.591-4.586-.772-6.336-1.67-3.283-4.066-5.332-4.73-9.021-.724-3.708-2.792-6.878-4.352-10.236.349-.816-5.203.447-4.772-1.289 1.535-.215 1.263-.892 3.866-.313 1.971-1.667 1.952-4.806.627-6.894-2.615-5.86-6.643-10.997-9.575-16.679-.74-3.708.733-8.273-2.822-10.857-3.675-3.578-5.534-8.404-7.589-12.994-2.361-3.29-6.204-5.228-8.949-8.217-1.494.473-7.126.648-4.329-1.039 3.854-1.541 6.506.658 8.96 3.267 2.797 2.175 5.768 4.424 6.705 7.995 1.744 4.17 4.015 8.027 7.246 11.226 2.847 2.674 1.377 6.947 2.136 10.376 3.504 6.356 8.192 12.159 10.55 19.08-.51 3.027.836-.968 2.274-.615-.136-3.428 1.057-8.063-1.16-11.258-2.315-4.303-5.01-8.452-7.103-12.848-1.456-3.138-3.239-7.062-4.863-10.486-1.704-3.957-4.181-7.509-6.523-11.102 2.335-2.442 3.551 4.592 5.362 5.815 4.078 7.212 6.644 15.18 11.102 22.19 1.3 3.077 4.057 5.776 4.64 9.053.448 1.959-.778 8.304.813 7.778.793-1.529 1.601-3.052 2.387-4.585 1.271-.603 3.785-.218 4.09-1.609.441-4.277-3.866-7.39-4.299-11.588-1.217-5.726-3.512-11.141-6.359-16.235-3.056-6.709-7.541-12.667-9.96-19.669-.64-4.085 2.673 1.13 2.742 3.037 2.352 5.351 5.786 10.158 8.215 15.493 2.314 4.339 4.527 8.716 5.799 13.495.871 4.494 2.725 8.648 5.065 12.584.401 1.796-.053 3.196 1.478 3.359.707 1.65-2.73.815-1.371 3.343.391 1.583-.411 7.562-1.597 4.159.104-2.806 1.427-7.369-2.582-5.22-1.067.925-1.476 2.689-2.296 3.929-.675 1.686-3.199 1.567-1.481 3.959 2.248 3.348 5.24 6.327 5.828 10.495.476 3.717 3.563 6.235 5.431 9.446 2.026 2.081 4.401 8.453 6.432 7.309.908-3.957-2.567-6.597-3.838-10.034-2.718-5.815-5.184-11.747-7.78-17.618 2.11 1.522 4.798 2.408 6.001 4.905 4.829 6.433 9.577 12.931 14.542 19.26 5.201 2.497 2.007-3.986.418-6.024-3.966-8.005-9.397-15.165-14.083-22.757-1.018-1.039-4.273-6.09-1.233-4.535l16.047 19.806c1.808 1.234 5.071 2.263 3.985-.812-4.587-8.377-10.427-15.983-15.535-24.05-5.34-7.596-9.876-15.716-14.669-23.676 2.522-2.041 5.831 3.083 8.642 3.753 4.495 2.455 8.502 5.592 12.183 9.137 6.203 5.393 12.165 11.101 18.611 16.194 3.212 1.759 5.717 4.833 9.172 5.979.057-1.161-3.533-5.519-2.025-5.491 3.621 1.02 7.044 2.524 10.388 4.196 2.241 1.103 9.252 3.74 5.739-.829-1.118-2.286-6.444-3.524-5.574-6.005.988-.531 2.593 1.139 3.819 1.454 2.814 1.691 5.976 2.459 9.206 2.914 4.72-.211 1.754-5.127-1.434-5.159-7.317-3.898-14.578-7.911-21.86-11.867 1.51-3.058 6.449 1.797 9.297 1.636 1.663-.523 7.775.733 5.636-2.152-.905-1.108-2.776-1.145-4.072-1.82-9.979-3.615-19.976-7.184-29.942-10.826-4.252-2.864-8.575-5.641-12.848-8.461.653-2.619 4.937.755 7.068.487 3.733.976 7.485 1.781 11.363 1.734 2.491.069 7.714.702 8.62.288-1.649-.89-8.927-2.997-4.772-4.132 2.084-.128 8.634-.26 3.05-.468-3.961-.411-8.099-.27-11.924-1.321.489-1.415 2.468-.882 5.052-.608 2.821.967 8.536-.69 9.639 1.677 2.8.896 7.718-.255 11.322-.037 4.987-.438 10.473.25 15.145-.982 1.629-2.537 6.5-3.36 6.411-6.653-.325-3.055-.361-6.205-.863-9.203-1.037-1.133-1.257-3.436-3.014-3.539-4.709-.773-9.213-2.067-13.678-3.671-9.293-.226-18.623-.143-27.89-.696-3.003-.196-6.578 2.524-10.028 2.333-5.33.535-10.774.095-15.943 1.743-1.993 1.545-4.765-.684-1.571-1.082 3.993-1.057 8.033-1.779 12.177-1.717 4.213-.134 8.449-.449 12.355-2.174 2.396-1.625 2.926 1.136 3.395-1.877 2.191-.831 9.206-.243 7.554-2.554-8.656.294-17.316.399-25.975.558-3.114-.308-7.086 1.616-10.167 3.099-3.612 1.46-.632-2.201 1.601-2.299 3.834-2.273 8.603-1.709 12.326-4.178 5.819-2.711 11.287-6.143 16.957-9.122 1.473-1.304 5.573-3.336 1.235-3.758-3.403-.785-7.041 1.175-10.566 1.216-4.65.821.005-3.231 1.753-4.012 5.429-2.791 10.742-5.843 15.935-9.08 1.647-1.258 6.509-2.115 4.944-4.213-4.402 1.47-8.76 3.574-13.266 4.805-1.524.363-8.437 1.217-5.023-1.478 6.638-4.383 13.17-8.928 19.751-13.39 2.193-2.945.605-3.021-2.027-1.818-3.047.927-5.318 3.419-8.157 4.867-.974 1.708-6.435 3.155-3.535.195 2.939-2.554 5.812-5.195 8.88-7.597 1.55-2.159 3.141-7.3-1.072-4.878-2.714 1.43-6.205 1.643-8.097 4.283-3.343 3.475-6.749 6.924-10.052 10.414-2.414-2.264 3.831-4.761 4.601-7.159 2.713-3.107 5.569-6.127 8.004-9.449.515-2.724.634-4.642-2.131-2.744l-4.032 1.734c.404 2.81-5.559 5.744-7.451 8.531-3.203 2.734-7.559 3.882-10.376 7.138-2.252-2.404 3.943-4.229 5.536-5.641 4.504-2.192 7.551-6.319 11.177-9.645-3.968.805-8.54.641-10.864 4.596-6.007 5.711-11.854 11.622-18.001 17.166-7.496 5.197-15.114 10.291-22.807 15.146-3.518 1.417-8.519.253-10.186 4.496-2.939 4.134-6.42 7.832-9.696 11.695 3.522-.775 6.866.029 10.046 1.591 3.056 1.069 5.654 3.182 8.583 4.503-.654 2.909-4.668 5.115-7.828 4.581-1.985-.054-3.775-1.396-5.682-1.97.189-2.289 2.13-.442 3.427-.118 2.545 1.378 5.997.841 7.873-1.418-.979-2.009-6.171-4.038-9.185-5.161-2.735-1.643-5.869-.512-8.835-.476-3.509.797.979-2.311 1.498-3.525 3.883-4.365 7.598-8.865 10.967-13.641-.245-3.525 3.665-6.016 4.966-9.268 3.83-5.645 5.807-12.298 8.745-18.431 1.25-2.559.605-5.548.93-8.316-.093-1.503.439-3.14-.087-4.549-2.726 5.016-5.53 10.026-8.147 15.077-3.226.186-.333-4.926.597-6.253 2.479-5.011 5.275-9.936 7.593-14.985l.201-6.339c-2.088-1.816-3.14 4.378-4.798 5.83-3.629 6.042-6.981 12.286-10.764 18.215-.372 2.005-4.38 3.461-2.773.622 5.407-9.946 10.958-19.856 16.504-29.697 2.229-3.952 1.514-8.566 1.831-12.902-2.137-3.376-3.628 1.817-5.34 3.159-2.19 2.72-2.995 6.292-4.678 9.347-2.729 5.927-5.559 11.816-8.332 17.717-3.102-1.278 1.79-5.911 1.831-8.517 2.66-6.872 5.307-13.749 7.954-20.626-1.327-2.759-4.305 4.52-5.711 6.197-2.525 5.644-5.458 11.096-8.252 16.609-2.988-1.302 1.823-5.89 1.692-8.388 1.447-4.177 3.351-8.314 4.75-12.434-.211-1.555 1.993-5.597.034-5.675m19.151 74.931c.688 2.747-3.451 3.999-5.153 6.128-2.14.798-9.789 2.676-6.497 4.396 2.177-1.153 4.358-2.297 6.532-3.456 2.781 2.639 6.988 5.465 6.659 9.496-2.643.663-1.514-5.179-4.661-5.723-1.45-2.508-3.285-1.868-5.237-.487-1.553.836-3.137 1.615-4.665 2.494-2.598-3.548.281-6.415 4.018-6.838 3.707-.579 5.866-3.773 8.656-5.906l.076-.063zm19.708 7.66c.257 3.101-5.197 1.748-6.667 4.364-2.378 1.15-4.785 4.684-6.909 4.654-2.346-.457 2.819-2.723 3.641-3.998 2.973-2.383 6.007-4.578 9.935-5.02m25.278 12.117c-.603.577-.18.462 0 0m-71.414 3.029c3.232 1.216 6.675 1.988 9.411 4.221 3.535 1.251 3.703 5.294 4.729 8.346.099 1.967-1.601 8.224-3.384 6.886.72-2.885 3.279-6.439 1.118-9.738-.285-3.627-4.051-4.635-6.6-6.384l-5.761-2.043zm91.018.348c6.563.269 13.182.556 19.707 1.184.727.769-1.311.815-1.01 1.219-8.453-.385-16.905-1.413-25.367-.712-3.962-.51-7.422 2.517-11.434 1.663-2.139.418-7.061-.724-3.693-1.613 3.843.431 7.755.478 11.341-1.17 3.397-.619 6.996-.205 10.456-.571m-10.098 5.502c6.781.965 13.592 1.567 20.446 1.484 4.32.242 9.372-.19 13.253.498-.645 2.877-6.677.102-9.254.961-7.613-.09-15.241-.089-22.774-1.342-1.458.042-1.909-.188-1.671-1.601m7.347 7.59c2.79 2.907 6.784 3.43 10.8 2.778 4.725-.306 9.566.974 14.149-.786 3.985-.37-.29 2.243-2.377 1.983-4.631.972-9.364-.313-14.042.273-3.736 1.322-6.798-1.828-9.48-2.529-2.007 1.186-4.211 1.443-6.477 1.276h-9.774c-.659-2.172 1.843-1.182 3.145-1.393 3.256-.024 6.524.047 9.773-.035 1.412-.552 2.784-1.282 4.283-1.567m-133.114 4.422c3.394 1.397-2.758 4.757-1.756 6.967.151 2.318.424 3.965 1.512.763.498-1.497.959-3.008 1.498-4.492 1.371 2.263 3.174 3.529 5.78 3.552 1.113 1.91 1.646 6.239 2.819 2.24 1.073-2.064 1.903-4.449 3.448-6.14 2.512 1.435-.348 6.543.383 9.158-.207 4.122.669 8.247.086 12.379.361 2.46-2.066 8.721 2.307 5.735 1.509-.718 1.707-2.845 2.633-4.191 1.674-3.241 1.055-7.188 2.147-10.615 3.245-.832.299 9.015 3.429 5.891.913-3.332-1.556-6.14-1.828-9.826v-6.546c2.173-.66 1.182 1.843 1.393 3.144-.16 2.624.116 5.233 1.254 7.65 3.577 1.931 3.002-4.722 5.849-6.059 3.1-1.238 1.359-7.702 4.492-6.998-.291 3.983-2.51 7.278-5.258 9.993-1.126 1.898-1.649 6.479-4.874 4.631 2.339 2.399-.316 7.432-3.204 6.581-.638-2.133-.689-4.629-1.029-.984-.101 3.042-2.228 5.449-3.323 8.191-2.629 1.444-7.357 3.026-5.629-1.866.321-5.24.702-10.485.058-15.718-.061-1.718.875-7.124.021-6.061-1.208 2.445-2.363 4.933-3.573 7.385-1.496-2.24-.901-7.528-4.446-6.992-1.965-.39-2.66-2.737-3.144.446-.871.941-1.952 6.201-3.517 3.83-.381-2.894-.142-7.389-3.447-3.865-.607-2.352-1.182-4.713-1.776-7.068 1.948-1.183 1.603 1.484 2.121 2.702-.112 3.999 4.165.102 4.669-1.971q.449-.925.905-1.846m54.597 17.654c3.711 7.521 7.645 14.954 11.629 22.354 2.152 5.25 4.752 10.377 5.658 16.028-.851 2.683 5.475 6.323 2.385 7.022-3.41-2.666-3.762-6.9-4.7-10.794-2.228-6.949-5.44-13.573-9.006-19.942-2.57-4.573-4.754-9.326-7.15-13.972zm-7.591 8.217c3.548.406-3.224 4.098 1.189 4.514 2.285.374 1.696 3.605 3.767 4.149 5.212.298-.565 7.713 4.793 6.623 2.572 2.024-.132 7.264 3.9 8.6 3.351 1.611 2.401 5.582 3.967 8.334.373 2.11 1.58 1.792 3.036.751 1.084-.717 3.251-1.836 2.843.145-1.889.94-3.78 1.875-5.668 2.817-1.504-2.914-2.844-5.919-3.168-9.227-2.951-2.219-5.624-4.688-5.162-8.743.701-3.11-5.223.058-3.659-3.856 2.053-3.978-2.541-3.466-3.489-6.136-.262-2.678-4.278-2.24-4.508-4.594.661-1.163 1.493-2.217 2.159-3.377m-21.274 38.405c-.583 1.732-6.155 6.933-2.035 3.646 2.131-1.289 2.435-.451 2.05-3.309l-.011-.242zm-.836 12.361c4.027.686-5.008 4.562-3.068 4.659 1.182-.858 3.708-.748 2.397.741l-5.875 1.808c-1.459-3.127 4.957-4.687 6.476-7.138zm.418 13.336c3.306.103-1.811 3.443-2.751 4.875-3.607 2.932 4.289-2.908 3.656-.008-1.511 1.061-6.996 4.511-8.891 2.601 2.372-2.699 5.772-4.462 7.986-7.468m-19.847 11.943c-.183 2.545-.669 5.744 1.778 2.58 2.724-1.671-.285-1.597-1.778-2.58m-1.184 30.815c-.059 2.391-.962 6.194 2.194 3.203 2.336-1.016 4.085-2.851.326-2.819-.838-.136-1.682-.254-2.52-.384m-.592 26.114c2.101 1.282 7.468 1.602 7.332 3.996-1.504-.234-7.067-1.516-7.332-3.329zm-9.575 87.988c-8.224.227-16.476-.039-24.687.244-3.548 2.262-7.649 3.747-10.424 7.02-2.101 2.952 3.527 5.48 6.42 4.819 1.458.968 6.665-.927 5.78 1.81-1.363 3.952-5.807 4.646-8.74 7.034-1.809 3.757 2.484 8.424 5.71 4.84 1.913-1.817 3.563-2.026 4.917.216 2.239 1.755-1.568 6.48 3.336 6.225 3.203-1.614 6.062-4.432 9.07-6.569 1.997-2.552 5.228-5.39 6.494-.569 2.931 2.507 6.609 1.885 10.112 1.653 4.303-.147 9.04-.725 11.513-4.778 4.022-1.922 7.857 2.002 9.885 5.15 2.716 1.784 7.244 2.02 5.86-2.498-1.067-2.957-.144-6.083 3.409-4.178 3.893.743 6.914 3.692 10.649 4.721-.226-2.839-.265-8.186 3.675-4.553 3.322 2.407 6.792 4.742 10.809 5.806.144-1.677-.298-3.511.244-5.083 2.582-2.654 7.748 5.132 6.616-.801.538-2.037-2.251-6.539.592-6.233 3.924 1.656 8.065 2.8 12.256 3.552-2.774-4.614-7.727-7.148-11.943-10.237-4.07-1.694-8.372-3.038-12.825-2.954-4.806-.438-9.729-.237-14.471-.941-2.031-1.476-1.696-.158-1.325.274-2.835 4.063-7.9 3.276-12.189 4.043-5.992.573-12.045 1.172-17.721 3.304-3.923.51-7.393-2.951-10.233-5.364-1.248-1.729-1.839-4-2.789-5.953" clip-rule="evenodd"/></svg>