<svg xmlns="http://www.w3.org/2000/svg" width="900" height="600" fill="none"><path fill="#bf0d3e" d="M0 0h900v600H0z"/><path fill="#fff" d="M0 0h900v300H0z"/><path fill="#00205b" d="M0 0h300v600H0z"/><path fill="#fff" d="m149.633 210-27.035 83.204 36.98 12.016"/><path fill="#fff" d="m149.633 210 27.035 83.204-36.98 12.016"/><path fill="#fff" d="M232.836 270.452H145.35v38.882"/><path fill="#fff" d="m232.836 270.452-70.778 51.423-22.855-31.457"/><path fill="#fff" d="M201.055 368.264 174.02 285.06l-36.98 12.015"/><path fill="#fff" d="m201.055 368.264-70.778-51.423 22.855-31.457"/><path fill="#fff" d="m98.207 368.264 70.778-51.423-22.855-31.457"/><path fill="#fff" d="m98.207 368.264 27.035-83.204 36.979 12.015"/><path fill="#fff" d="m66.426 270.451 70.778 51.423 22.854-31.456"/><path fill="#fff" d="M66.426 270.451h87.486v38.883"/></svg>