<svg xmlns="http://www.w3.org/2000/svg" width="900" height="600" fill="none"><path fill="#c00" d="M0 0h900v600H0z"/><path fill="#fff" d="M832.5 0H900v600h-67.5z"/><path fill="#002d65" d="M843.75 0H900v600h-56.25z"/><path fill="#002d65" d="M843.75 0H900v600h-56.25z"/><path fill="#fff" d="M428.684 465.625c92.61 0 167.684-75.074 167.684-167.684 0-92.609-75.074-167.684-167.684-167.684-92.609 0-167.684 75.075-167.684 167.684 0 92.61 75.075 167.684 167.684 167.684"/><path fill="#002d65" d="M428.684 452.727c85.486 0 154.785-69.3 154.785-154.786S514.17 143.156 428.684 143.156s-154.786 69.299-154.786 154.785 69.3 154.786 154.786 154.786"/><path fill="#fff" d="m426.691 304.075-42.963 59.133 29.567 21.482"/><path fill="#fff" d="M426.691 304.075v73.093h-36.546"/><path fill="#fff" d="m477.199 373.591-69.515-22.587-11.294 34.757"/><path fill="#fff" d="m477.199 373.591-69.515 22.587-11.294-34.758"/><path fill="#fff" d="M426.695 443.106v-73.093h-36.546"/><path fill="#fff" d="m426.695 443.106-42.963-59.133 29.567-21.482"/><path fill="#fff" d="m344.973 416.553 69.515-22.587-11.293-34.757"/><path fill="#fff" d="m344.973 416.553 42.963-59.133 29.567 21.481"/><path fill="#fff" d="m344.969 330.627 42.963 59.134 29.567-21.482"/><path fill="#fff" d="m344.969 330.627 69.515 22.587-11.293 34.758m21.176-94.824-29.729-66.774-33.387 14.865"/><path fill="#fff" d="m424.367 293.148-63.3-36.546 18.273-31.651"/><path fill="#fff" d="m338.914 302.13 54.319-48.909-24.455-27.159"/><path fill="#fff" d="m338.914 302.13 15.197-71.496 35.748 7.599"/><path fill="#fff" d="m303.965 223.632 63.3 36.547 18.274-31.65"/><path fill="#fff" d="m303.965 223.632 72.693-7.64 3.82 36.347"/><path fill="#fff" d="m367.82 166.137-15.197 71.496 35.748 7.598"/><path fill="#fff" d="m367.82 166.137 29.73 66.774-33.387 14.864"/><path fill="#fff" d="m442.234 209.1-72.692 7.64 3.82 36.347"/><path fill="#fff" d="m442.234 209.1-54.318 48.909-24.455-27.16m71.531 65.751 72.693 7.64 3.82-36.346"/><path fill="#fff" d="m434.992 296.6 63.301-36.546 18.273 31.65"/><path fill="#fff" d="m469.945 218.103 15.197 71.496L520.89 282"/><path fill="#fff" d="m469.945 218.103 54.319 48.909-24.454 27.159"/><path fill="#fff" d="m555.398 227.084-63.3 36.547 18.273 31.65"/><path fill="#fff" d="m555.398 227.084-29.729 66.774-33.387-14.865"/><path fill="#fff" d="m573.266 311.133-54.319-48.909-24.455 27.159"/><path fill="#fff" d="m573.266 311.133-72.693-7.641 3.82-36.346"/><path fill="#fff" d="m498.852 354.096 29.729-66.774-33.387-14.865"/><path fill="#fff" d="M498.852 354.096 483.655 282.6l35.748-7.598"/></svg>