<svg xmlns="http://www.w3.org/2000/svg" width="900" height="600" fill="none">
  <path fill="#fff" fill-rule="evenodd" d="M0 0h900v600H0V0Z" clip-rule="evenodd"/>
  <path fill="#E81B39" d="M0 180.057h900v120H0v-120Zm0 180h900v120H0v-120ZM64 76.586l37.082 26.941-14.164 43.593L124 120.178l37.082 26.942-14.164-43.593L184 76.586h-45.837l-14.164-43.593-14.164 43.593H64ZM390 76.586l37.082 26.941-14.164 43.593L450 120.178l37.082 26.942-14.164-43.593L510 76.586h-45.837l-14.164-43.593-14.164 43.593H390ZM716 76.586l37.082 26.941-14.164 43.593L776 120.178l37.082 26.942-14.164-43.593L836 76.586h-45.837l-14.164-43.593-14.164 43.593H716Z"/>
</svg>
