<svg width="300" height="300" viewBox="0 0 300 300" fill="none" xmlns="http://www.w3.org/2000/svg">
<path fill-rule="evenodd" clip-rule="evenodd" d="M150.022 300C166.827 294.616 183.29 287.563 198.744 279.056C204.876 275.677 211.633 271.768 217.301 267.602C231.956 255.985 243.737 243.231 246.852 224.229C248.276 215.526 248.026 206.37 248.026 197.57V0H52.017V197.57C52.017 206.37 51.7661 215.526 53.1917 224.229C56.3048 243.23 68.087 255.984 82.7431 267.602C88.4118 271.768 95.1674 275.678 101.3 279.056C116.753 287.562 133.216 294.616 150.022 300Z" fill="#FFD700"/>
<path fill-rule="evenodd" clip-rule="evenodd" d="M245.356 196.804V2.66797H54.6844V196.804C54.6844 221.869 53.4422 240.36 84.9564 265.316C84.9564 265.316 110.341 284.012 150.02 296.463C189.699 284.013 215.084 265.316 215.084 265.316C246.597 240.36 245.356 221.87 245.356 196.804Z" fill="#FF0000"/>
<path fill-rule="evenodd" clip-rule="evenodd" d="M180.075 85.9618C182.483 85.9618 184.009 86.7138 184.009 87.7183C184.009 88.7409 182.484 89.6466 180.075 89.6466C177.658 89.6466 176.162 88.8169 176.162 87.7951C176.162 86.7906 177.658 85.9618 180.075 85.9618ZM119.969 85.9618C122.385 85.9618 123.882 86.7898 123.882 87.7951C123.882 88.8177 122.385 89.6466 119.968 89.6466C117.561 89.6466 116.035 88.7409 116.035 87.7183C116.035 86.7138 117.561 85.9618 119.969 85.9618ZM119.529 80.6349C116.558 80.5847 111.628 81.5822 111.738 83.8618C103.464 82.444 102.602 85.8614 103.089 88.9024C103.876 87.6956 104.834 87.04 105.571 86.9169C106.675 86.7342 107.83 87.0902 109.008 87.8148C110.188 88.5385 111.486 89.7077 112.063 90.4307C109.143 91.1294 106.887 90.6777 104.598 90.2778C103.469 90.081 101.889 89.4458 100.95 88.7887C100.011 88.1316 99.7159 87.5128 98.2393 86.001C96.4977 84.2186 94.6447 84.7204 95.2226 87.4901C96.5581 90.0637 98.7882 91.2102 101.599 91.6721C102.952 91.8948 104.967 92.3763 107.252 92.3778C109.536 92.3802 112.1 92.0485 113.495 92.3394C112.657 92.8656 111.708 93.7736 109.83 94.1344C107.918 94.5021 105.013 92.9981 103.242 92.5872C103.467 94.0779 105.346 95.4706 109.046 96.1959C115.126 97.5204 120.18 98.5273 123.519 100.34C126.859 102.153 128.965 104.423 130.47 106.202C133.463 109.742 133.621 112.459 133.812 113.056C134.427 118.712 132.456 121.893 128.79 122.872C126.957 123.36 123.7 122.44 122.508 121.038C121.314 119.637 120.153 117.229 120.484 113.458C120.805 111.979 122.497 108.125 121.056 107.329C114.42 103.66 106.362 99.9513 100.531 97.7431C98.9372 97.1393 97.6238 99.3052 97.1133 100.15C87.2077 98.9429 78.2775 92.2398 74.2579 85.1031C71.5196 80.242 67.0067 85.1133 67.7666 89.7054C68.9906 94.8299 72.8958 98.5351 77.5804 101.161C82.3889 103.809 88.3988 106.414 94.4785 106.279C97.7547 106.898 97.7218 111.135 93.7915 111.93C86.1043 111.979 79.9713 111.788 74.1818 106.202C69.7897 102.192 67.318 106.97 68.5868 109.677C70.7386 118.023 82.6438 120.36 94.6878 117.659C99.3521 116.886 96.5596 121.884 95.2422 121.936C90.2102 125.544 81.2001 129.075 73.2651 121.898C69.6344 119.117 67.1792 121.455 68.5296 125.468C72.0505 135.933 85.5178 133.735 94.7647 128.581C97.1446 127.254 99.305 130.341 96.4067 132.686C84.9077 140.721 79.1582 140.812 73.9717 137.726C67.4772 135.166 66.9063 142.368 70.7644 144.734C75.0507 147.364 85.9593 145.392 93.9633 140.361C97.394 137.81 97.5493 141.798 95.3763 143.377C85.8777 151.586 82.1349 153.747 72.234 152.41C67.3243 152.028 67.398 158.079 71.26 160.449C76.5328 163.681 86.8297 158.314 94.8211 151.684C98.1852 149.887 98.7381 152.835 97.0748 156.324C92.1918 162.484 87.6084 166.116 83.1927 167.799C78.7786 169.482 74.5316 169.213 71.5274 168.18C67.8614 166.922 67.4011 170.732 69.4274 174.196C70.6484 176.283 75.7078 176.953 81.1703 175.016C86.6321 173.08 92.4953 168.537 96.522 163.216C100.024 160.15 99.5889 164.269 97.9923 167.168C89.9303 179.913 82.5568 184.641 72.8464 183.838C68.5405 183.106 67.5619 186.454 70.3065 189.546C75.126 193.543 81.1507 193.419 86.4211 189.47C91.1065 184.952 100.07 175.225 104.771 170.013C108.083 167.371 109.142 169.975 108.169 175.34C107.285 178.411 105.073 181.648 99.0423 184.009C94.9231 186.36 98.0158 189.6 101.104 189.66C102.803 189.693 106.254 187.707 108.895 184.734C112.368 180.824 112.575 178.198 114.49 172.114C116.299 169.147 119.53 170.53 119.53 173.641C117.981 179.735 116.649 180.828 113.516 183.32C110.519 186.136 115.603 187.072 117.315 185.918C122.271 182.578 124.079 178.257 125.735 174.329C126.93 171.493 130.398 172.868 128.791 177.498C124.95 188.565 118.639 192.923 107.596 195.16C106.477 195.359 105.795 196.021 106.183 197.318C107.666 198.855 109.149 200.251 110.632 201.785C103.804 203.773 98.2566 204.89 91.4241 206.884C88.0718 204.686 85.3633 202.821 82.011 200.621C81.1264 198.555 80.714 195.4 75.7674 197.623C72.4143 196.074 70.8679 196.642 69.0079 198.196C71.6929 198.295 72.8621 199.015 73.9152 200.239C75.2891 203.859 78.4595 204.21 81.7051 203.179C83.8169 204.958 84.9406 206.322 87.0516 208.105C83.1112 207.97 80.3658 207.901 76.4355 207.781C72.6825 203.752 69.6886 203.973 67.002 207.131C64.9553 207.447 64.088 207.49 62.6875 209.976C64.8902 209.073 66.2759 208.802 67.2318 209.786C71.22 212.098 73.8266 211.582 75.8043 209.786C79.653 210.021 83.1221 210.22 86.9748 210.474C85.5585 211.677 83.6169 212.316 82.2015 213.529C76.4199 211.876 73.4039 214.102 72.3869 218.818C71.6129 220.721 71.249 222.681 71.5862 224.718C72.1446 222.855 73.0448 221.254 74.6978 220.25C79.8506 221.558 81.7875 219.455 82.0682 216.373C84.5517 214.347 88.2961 213.901 90.7748 211.847C93.6731 212.776 95.0736 213.35 97.9923 214.272C99.0306 217.425 101.378 218.674 105.191 217.862C109.729 218.005 108.928 219.867 109.296 221.356C110.502 219.217 110.468 217.137 107.673 215.247C106.656 212.483 104.403 211.226 101.448 212.821C98.6675 212.032 97.9366 210.896 95.1662 210.11C102.174 207.876 107.144 207.374 114.146 205.146C115.899 206.799 117.288 207.986 119.054 209.46C119.984 210.016 120.875 210.156 121.421 209.46C125.809 203.111 127.768 197.514 131.846 193.327C133.405 191.594 135.373 189.256 137.556 188.686C138.648 188.402 139.986 188.574 140.84 189.508C141.696 190.44 142.366 192.158 142.081 194.72C141.673 198.398 140.784 199.56 139.752 201.765C138.72 203.97 137.459 205.328 136.162 207.015C133.569 210.394 130.149 212.359 128.124 213.68C124.074 216.32 122.362 215.165 119.226 214.997C115.173 215.452 114.095 217.427 117.412 220.153C120.513 221.766 123.301 221.965 125.566 221.546C127.511 221.186 129.786 218.677 131.409 217.326C133.234 215.218 136.261 217.718 134.197 220.171C130.445 224.629 126.697 227.568 122.072 227.503C117.211 228.158 118.12 230.889 121.346 232.221C127.152 234.617 132.393 230.13 135.055 227.179C137.11 224.933 138.569 224.844 138.206 228.326C136.167 234.627 133.38 237.062 128.831 237.377C125.142 237.033 125.103 239.881 127.801 241.806C133.947 246.06 138.399 238.816 140.479 234.435C141.961 230.486 144.234 232.364 144.469 235.62C144.5 239.969 142.535 243.522 137.271 247.974C141.297 254.391 145.993 260.917 150.025 267.354C154.058 260.916 158.752 254.389 162.78 247.973C157.517 243.521 155.55 239.969 155.582 235.619C155.817 232.365 158.09 230.484 159.572 234.435C161.653 238.816 166.104 246.06 172.251 241.806C174.949 239.881 174.909 237.032 171.22 237.375C166.671 237.062 163.884 234.627 161.845 228.326C161.482 224.845 162.94 224.931 164.996 227.179C167.659 230.128 172.901 234.616 178.705 232.221C181.93 230.89 182.84 228.158 177.98 227.504C173.355 227.568 169.606 224.629 165.856 220.171C163.791 217.719 166.816 215.218 168.643 217.326C170.264 218.677 172.541 221.186 174.486 221.547C176.751 221.966 179.537 221.765 182.639 220.153C185.955 217.426 184.877 215.452 180.825 214.997C177.69 215.165 175.975 216.32 171.927 213.68C169.901 212.359 166.482 210.394 163.888 207.017C162.592 205.328 161.33 203.971 160.299 201.765C159.266 199.559 158.379 198.4 157.969 194.72C157.684 192.157 158.355 190.44 159.21 189.508C160.064 188.576 161.402 188.402 162.493 188.688C164.677 189.257 166.645 191.594 168.204 193.327C172.281 197.515 174.241 203.112 178.628 209.461C179.176 210.156 180.066 210.016 180.997 209.461C182.763 207.986 184.151 206.799 185.905 205.146C192.906 207.375 197.877 207.877 204.884 210.11C202.114 210.898 201.382 212.032 198.601 212.822C195.646 211.228 193.393 212.484 192.376 215.247C189.581 217.137 189.547 219.217 190.753 221.357C191.122 219.867 190.32 218.005 194.858 217.862C198.672 218.674 201.018 217.425 202.057 214.274C204.976 213.351 206.378 212.777 209.274 211.849C211.752 213.9 215.498 214.348 217.982 216.374C218.263 219.456 220.2 221.559 225.351 220.25C227.004 221.254 227.904 222.855 228.465 224.717C228.8 222.681 228.437 220.722 227.664 218.818C226.644 214.1 223.629 211.875 217.848 213.529C216.432 212.316 214.491 211.678 213.074 210.474C216.928 210.22 220.395 210.021 224.244 209.786C226.222 211.582 228.829 212.098 232.817 209.786C233.773 208.803 235.158 209.073 237.362 209.976C235.961 207.491 235.094 207.447 233.046 207.131C230.36 203.973 227.366 203.752 223.614 207.781C219.683 207.901 216.939 207.97 212.998 208.106C215.109 206.322 216.233 204.957 218.344 203.179C221.589 204.209 224.759 203.859 226.135 200.239C227.188 199.014 228.356 198.295 231.041 198.196C229.182 196.642 227.633 196.074 224.283 197.623C219.335 195.4 218.923 198.555 218.039 200.621C214.687 202.822 211.978 204.686 208.625 206.884C201.791 204.89 196.245 203.773 189.417 201.785C190.9 200.253 192.383 198.856 193.865 197.318C194.254 196.021 193.572 195.359 192.453 195.16C181.411 192.922 175.099 188.565 171.259 177.498C169.652 172.868 173.118 171.493 174.314 174.329C175.97 178.258 177.78 182.579 182.734 185.918C184.448 187.074 189.531 186.135 186.534 183.322C183.401 180.828 182.07 179.735 180.521 173.641C180.521 170.532 183.752 169.147 185.562 172.113C187.476 178.2 187.683 180.823 191.155 184.734C193.796 187.707 197.247 189.693 198.946 189.66C202.035 189.6 205.129 186.36 201.008 184.009C194.979 181.648 192.766 178.411 191.881 175.34C190.909 169.974 191.967 167.371 195.28 170.013C199.98 175.224 208.944 184.952 213.63 189.47C218.901 193.416 224.926 193.543 229.744 189.546C232.49 186.454 231.512 183.106 227.206 183.836C217.493 184.641 210.121 179.913 202.059 167.168C200.462 164.269 200.027 160.149 203.53 163.216C207.556 168.537 213.419 173.08 218.881 175.016C224.343 176.953 229.402 176.282 230.623 174.195C232.65 170.73 232.189 166.92 228.524 168.18C225.518 169.212 221.272 169.48 216.857 167.799C212.442 166.116 207.859 162.484 202.975 156.323C201.312 152.833 201.865 149.886 205.228 151.684C213.22 158.313 223.517 163.68 228.79 160.448C232.653 158.079 232.727 152.026 227.817 152.409C217.916 153.747 214.173 151.585 204.676 143.377C202.502 141.798 202.657 137.809 206.088 140.36C214.091 145.392 225 147.363 229.287 144.733C233.143 142.367 232.572 135.164 226.078 137.725C220.892 140.81 215.144 140.719 203.643 132.684C200.747 130.338 202.906 127.252 205.287 128.579C214.532 133.733 228 135.931 231.521 125.467C232.872 121.453 230.417 119.116 226.786 121.895C218.851 129.073 209.842 125.543 204.809 121.934C203.492 121.882 200.7 116.885 205.362 117.657C217.407 120.358 229.312 118.02 231.465 109.676C232.734 106.968 230.261 102.191 225.868 106.2C220.079 111.786 213.947 111.977 206.258 111.929C202.328 111.134 202.297 106.897 205.573 106.276C211.652 106.413 217.661 103.807 222.47 101.16C227.156 98.5335 231.06 94.8283 232.285 89.703C233.044 85.1117 228.531 80.2405 225.794 85.1015C221.773 92.2375 212.842 98.9405 202.938 100.147C202.428 99.3036 201.115 97.1385 199.522 97.7415C193.69 99.949 185.631 103.658 178.995 107.327C177.554 108.124 179.245 111.977 179.567 113.455C179.899 117.227 178.737 119.635 177.545 121.036C176.35 122.437 173.094 123.358 171.262 122.869C167.597 121.891 165.624 118.71 166.239 113.055C166.431 112.457 166.588 109.74 169.581 106.2C171.085 104.422 173.192 102.152 176.531 100.339C179.872 98.5257 184.924 97.518 191.004 96.1952C194.705 95.469 196.584 94.0755 196.808 92.5856C195.037 92.9965 192.132 94.499 190.221 94.1328C188.343 93.7721 187.395 92.8648 186.555 92.3386C187.951 92.0461 190.515 92.3786 192.799 92.3763C195.083 92.3739 197.099 91.8916 198.451 91.6697C201.262 91.2086 203.494 90.0622 204.829 87.4893C205.406 84.7181 203.552 84.2162 201.812 85.9994C200.335 87.5113 200.04 88.13 199.1 88.7863C198.161 89.4435 196.583 90.0786 195.453 90.2763C193.164 90.6762 190.908 91.1271 187.988 90.4292C188.565 89.7062 189.865 88.5378 191.043 87.814C192.223 87.0894 193.377 86.7334 194.48 86.9153C195.216 87.04 196.176 87.6948 196.964 88.9016C197.449 85.8606 196.587 82.4424 188.314 83.861C188.424 81.5806 183.494 80.5839 180.521 80.6341C178.839 80.6631 175.388 81.6488 172.904 82.8102C168.973 84.0013 165.067 84.8726 160.492 85.1972C163.135 87.4164 163.653 87.5419 166.316 89.4356C162.285 90.9036 159.161 93.9446 157.762 95.9278C161.285 96.0964 162.448 95.7999 163.644 96.3096C158.736 97.7306 156.516 98.5633 153.925 101.16C154.841 101.327 156.206 101.572 156.788 101.79C157.391 102.015 157.141 102.326 156.73 102.763C155.606 103.467 151.302 108.538 150.029 109.713C148.756 108.537 144.452 103.467 143.327 102.763C142.917 102.324 142.667 102.015 143.269 101.789C143.852 101.571 145.216 101.326 146.134 101.159C143.542 98.5626 141.322 97.7298 136.415 96.3089C137.611 95.7992 138.775 96.0964 142.296 95.927C140.898 93.9422 137.775 90.902 133.742 89.4348C136.406 87.5411 136.925 87.4148 139.566 85.1964C134.992 84.8718 131.086 84.0013 127.155 82.8094C124.67 81.6481 121.219 80.6608 119.536 80.6333L119.529 80.6349Z" fill="black"/>
<path fill-rule="evenodd" clip-rule="evenodd" d="M156.995 54.6014C156.369 54.6014 155.848 55.1401 155.848 55.7643C155.848 56.4191 156.369 56.9398 156.995 56.9398C157.6 56.9398 158.139 56.4199 158.139 55.7643C158.139 55.1393 157.6 54.6014 156.995 54.6014ZM138.221 51.5094C138.198 50.2924 139.052 49.7388 140.118 50.3198C141.294 49.8634 141.926 50.0634 141.88 51.4255C142.485 52.2512 142.438 53.0111 141.354 53.5169C140.514 54.4469 139.587 54.3606 138.97 53.582C137.349 52.9852 137.876 52.2018 138.221 51.5094ZM136.923 53.5396L137.113 53.8494L137.349 54.1223L137.626 54.3552L137.922 54.5418L138.244 54.7229L138.331 54.7472L138.503 54.9103L138.721 55.0946L138.97 55.2483L139.237 55.3667L139.515 55.4577L139.796 55.5165L140.109 55.54L140.404 55.5165L140.69 55.4577L140.985 55.3667L141.249 55.2483L141.521 55.0993L141.766 54.915L141.993 54.7237L142.065 54.6469L142.124 54.61L142.374 54.4657L142.614 54.2846L142.837 54.0744L143.028 53.8501L143.195 53.582L143.314 53.295L143.409 52.9899L143.445 52.6802L143.432 52.379L143.396 52.0881L143.323 51.8176L143.233 51.558L143.11 51.3228L143.051 51.22L143.042 50.9895L142.983 50.6743L142.896 50.3551L142.782 50.0493L142.573 49.7631L142.328 49.5004L142.032 49.2941L141.709 49.1616L141.396 49.0981L141.092 49.0746L140.801 49.0981L140.534 49.1255L140.275 49.1891L140.189 49.2126L140.07 49.1851L139.761 49.1036L139.438 49.0753L139.121 49.0801L138.785 49.1271L138.477 49.2432L138.195 49.3906L137.904 49.6007L137.682 49.8407L137.469 50.1112L137.323 50.4194L137.219 50.7221L137.133 51.0389L137.101 51.3581L137.086 51.3918L136.995 51.5588L136.919 51.7596L136.85 51.9885L136.783 52.2379L136.734 52.5249V52.8441L136.807 53.1922L136.923 53.5396ZM139.987 53.2526C140.618 53.2526 141.141 52.7288 141.141 52.0873C141.139 51.4498 140.625 50.9338 139.987 50.9291C139.361 50.9291 138.847 51.449 138.847 52.0873C138.848 52.728 139.361 53.2526 139.987 53.2526ZM164.406 29.2461C163.352 30.1173 162.267 30.9877 161.2 31.8574C165.11 29.6358 169.123 26.6623 172.829 26.227C173.919 26.4231 174.041 27.1249 174.027 27.866C173.65 28.2588 173.274 28.654 172.9 29.0508C169.266 30.6843 165.634 32.3263 162.007 33.977C163.029 33.7582 164.059 33.5198 165.077 33.3034C165.413 33.1944 165.748 33.472 166.08 34.1268C165.807 34.642 165.544 35.1666 165.277 35.6982C163.351 37.9731 163.374 40.0558 163.465 42.148C163.873 43.0702 164.272 43.9869 164.682 44.8934C165.616 46.2743 166.388 47.6239 166.216 48.8174C165.858 49.3686 165.411 49.469 164.881 49.0808C157.758 39.8081 150.987 40.5287 145.603 41.0439C145.439 41.069 145.272 40.771 145.108 40.7828C147.732 38.6569 152.622 38.6867 154.992 37.759C149.139 37.7402 147.827 38.3958 143.691 40.0904C143.027 40.0511 142.351 40.0033 141.689 39.9508C141.152 40.0551 141.048 40.3562 141.429 40.8581C141.829 40.9725 142.828 40.8784 142.624 41.2588C142.293 41.9041 141.33 41.8994 140.69 42.2241C140.036 41.8806 139.832 41.454 140.095 40.9114C140.804 40.1139 141.52 39.3211 142.233 38.5142C144.891 36.9898 147.574 35.4904 150.248 33.977C150.584 33.3755 151.224 33.2469 152.104 33.5763C153.872 34.6372 155.955 34.9188 158.266 34.6741C157.47 33.9621 156.817 33.2516 157.131 32.5357C156.662 32.611 156.193 32.6807 155.724 32.7458C154.657 33.1842 153.671 33.0979 153.171 32.6831C152.954 32.4541 152.672 32.2189 153.035 31.9907C153.907 31.2418 155.096 31.3124 156.327 31.499C157.022 29.5174 158.139 27.7083 162.138 27.0473C162.624 26.663 163.128 26.271 163.609 25.8804C164.081 24.465 165.117 24.6462 165.992 24.418C166.643 23.7389 167.314 23.0237 168.826 22.7947C174.116 19.2362 179.582 18.0709 185.072 17.1017C177.128 20.0345 167.616 25.0673 164.406 29.2461ZM166.199 51.8537C166.53 51.0515 165.382 50.0265 164.028 48.9648C150.474 41.0917 141.83 41.8704 139.292 43.9547C138.679 44.5468 138.062 45.1529 137.58 45.8571C137.458 46.1865 137.684 46.4539 137.939 46.6499C147.328 48.5688 156.509 50.4547 165.904 52.3696C166.103 52.2222 166.13 52.027 166.199 51.8537ZM166.247 54.4665L165.681 56.6481C165.467 56.3807 165.191 56.223 164.91 56.223C164.795 56.223 164.696 56.2419 164.596 56.2787L165.154 54.1991C165.255 53.8211 165.545 53.5584 165.795 53.6251L165.977 53.6588C166.235 53.7357 166.353 54.0972 166.247 54.4665ZM167.698 55.9651C168.601 56.4434 167.281 54.4892 166.417 55.1205C165.836 56.7343 165.255 58.3568 164.664 59.9769C165.288 60.5869 165.904 61.0214 166.513 60.3431C165.936 59.8506 166.799 55.4828 167.698 55.9651ZM166.295 64.1455C166.399 65.0583 166.355 65.8926 166.236 66.6901H132.232C132.232 65.5868 132.091 65.0512 131.796 63.4382C131.751 63.177 135.157 63.8436 139.855 64.6717C145.145 65.6017 152.256 65.1633 157.736 65.0818H157.853C162.64 64.5078 166.249 64.4388 166.295 64.1455ZM133.317 57.1985C132.745 57.0166 133.384 59.6177 133.276 60.6677C134.048 61.9153 135.134 63.0759 138.362 63.624C144.182 64.5078 153.418 64.6403 162.639 63.624C163.28 63.5189 163.503 63.199 163.343 62.6266C152.313 61.3899 142.566 60.1008 133.317 57.1985ZM134.729 55.9651C134.47 55.6835 134.279 55.3934 133.698 55.1205C133.856 54.8664 134.002 54.61 134.157 54.3795C134.606 54.4892 134.919 54.8476 135.083 55.373C135.569 56.0976 135.215 56.089 134.729 55.9651ZM134.47 49.7811C135.061 49.3529 135.157 49.7858 135.192 50.3551C135.06 51.322 134.834 52.1822 134.583 53.0103C134.583 53.7819 134.229 53.9215 133.553 53.4204C133.317 52.2089 133.743 50.9895 134.47 49.7811ZM142.934 58.3913C142.766 58.0792 141.631 58.1654 140.904 58.1239C140.749 57.869 140.414 57.5734 140.994 57.4495C141.653 57.5679 142.411 57.1115 143.11 57.2354C143.601 57.4361 143.11 58.6971 142.934 58.3913ZM148.918 50.8468L146.933 58.0329C146.816 58.4062 146.52 58.6712 146.257 58.6053L146.067 58.5559C145.821 58.4956 145.676 58.1372 145.794 57.7451L147.787 50.5637C147.896 50.1724 148.192 49.9285 148.469 49.9858L148.645 50.0258C148.909 50.0916 149.036 50.4555 148.918 50.8468ZM150.475 51.1126L148.469 58.3097C148.373 58.6869 148.065 58.9394 147.819 58.8806L147.61 58.839C147.365 58.7614 147.219 58.4046 147.339 58.0321L149.323 50.846C149.431 50.4547 149.726 50.1959 150.003 50.2587L150.189 50.301C150.439 50.3551 150.584 50.7221 150.475 51.1126ZM152.005 51.3808L150.011 58.5779C149.916 58.9621 149.621 59.2217 149.344 59.1527L149.154 59.1103C148.909 59.0437 148.764 58.6861 148.873 58.3089L150.874 51.1118C150.989 50.7198 151.283 50.4774 151.557 50.5245L151.738 50.5864C151.993 50.6421 152.128 50.9895 152.005 51.3808ZM151.319 57.5271L151.614 58.2964L151.696 58.4297L151.519 59.068C151.409 59.4413 151.119 59.704 150.843 59.642L150.662 59.5942C150.402 59.5314 150.27 59.1746 150.38 58.7833L151.234 55.6914L151.187 56.0497V56.7618L151.319 57.5271ZM152.564 59.3127L152.836 59.5597L152.814 59.6859C152.695 60.0757 152.4 60.3203 152.159 60.2568L151.96 60.2152C151.696 60.1478 151.569 59.7902 151.675 59.4036L151.924 58.5246L152.065 58.7575L152.564 59.3127ZM162.235 57.7185L161.353 60.8724C161.249 61.2645 160.949 61.513 160.69 61.4644L160.513 61.4087C160.241 61.3499 160.109 60.9978 160.227 60.6112L160.391 59.951L160.463 59.9039L160.891 59.5934L161.295 59.2068L161.691 58.7426L162.021 58.2093L162.235 57.7185ZM163.366 53.6823L162.494 56.8347L162.559 56.2936L162.544 55.6686L162.458 55.0954L162.318 54.5622L162.14 54.0972L162.102 53.9921L162.068 53.8925L162.221 53.4071C162.317 53.033 162.625 52.7751 162.89 52.8331L163.066 52.8801C163.344 52.9515 163.456 53.3004 163.366 53.6823ZM164.941 60.8677L164.631 61.833C164.527 62.1341 164.241 62.3607 163.992 62.2972L163.814 62.2525C163.564 62.2102 163.434 61.9051 163.542 61.5993L164.059 59.9769C164.242 60.4387 164.564 60.7649 164.941 60.8677ZM162.829 61.2229L164.822 54.0187C164.941 53.6353 164.808 53.2714 164.551 53.2165L164.359 53.1671C164.102 53.0989 163.801 53.3671 163.692 53.7404L161.699 60.9398C161.581 61.3084 161.712 61.6816 161.976 61.7467L162.166 61.7812C162.439 61.8565 162.73 61.5993 162.829 61.2229ZM161.083 54.5606L161.227 54.9339L161.333 55.3299L161.396 55.7635L161.405 56.2317L161.342 56.7092L161.215 57.1923L161.015 57.6228L160.746 58.0329L160.466 58.3826L160.143 58.6767L159.826 58.9269L159.54 59.1049L159.282 59.3362L158.936 59.5722L158.577 59.7918L158.188 59.969L157.783 60.1023L157.348 60.1886L156.902 60.216L156.462 60.1886L156.025 60.0976L155.622 59.9533L155.23 59.7777L154.886 59.5471L154.554 59.2954L154.48 59.2288L154.159 59.0649L153.753 58.799L153.36 58.4728L152.992 58.058L152.695 57.5475L152.488 56.9986L152.387 56.4442L152.375 55.9243L152.455 55.4836L152.542 55.108L152.66 54.7982L152.755 54.5387L152.792 54.4892L152.815 54.3144L152.923 53.8549L153.077 53.4079L153.304 52.9664L153.594 52.5523L153.959 52.1783L154.385 51.8686L154.848 51.6262L155.321 51.4726L155.812 51.3722L156.283 51.3683L156.752 51.4263L157.011 51.4773L157.119 51.4545L157.5 51.4012L157.914 51.3683L158.363 51.4051L158.862 51.5141L159.383 51.7352L159.874 52.074L160.288 52.4888L160.582 52.9766L160.788 53.4408L160.913 53.8925L160.987 54.334V54.3614L161.083 54.5606ZM145.785 51.9203L146.234 50.2838C146.343 49.9058 146.648 49.6494 146.915 49.705L147.092 49.7584C147.365 49.8313 147.484 50.1732 147.388 50.5653L145.381 57.7467C145.272 58.1388 144.978 58.392 144.713 58.3348L144.527 58.2925C144.264 58.2289 144.131 57.8698 144.24 57.484L144.931 55.017L145.263 54.4665L145.534 53.869L145.704 53.2205L145.794 52.5602V51.9399L145.785 51.9203ZM135.582 52.4418V52.957L135.678 53.5177L135.891 54.0689L136.203 54.5622L136.553 54.9864L136.945 55.3087L137.348 55.5738L137.685 55.7416L137.757 55.8184L138.075 56.0654L138.433 56.2905L138.81 56.4716L139.227 56.6073L139.655 56.7069L140.109 56.7312L140.545 56.7069L140.97 56.6253L141.375 56.4763L141.766 56.3109L142.124 56.0984L142.469 55.8513L142.728 55.6137L143.019 55.4404L143.336 55.1981L143.667 54.9041L143.945 54.5426L144.217 54.1466L144.404 53.7106L144.54 53.2338L144.607 52.7515L144.585 52.2834L144.526 51.8537L144.418 51.4475L144.286 51.0797L144.182 50.8742V50.8507L144.109 50.4171L143.981 49.9677L143.777 49.4902L143.477 49.0126L143.063 48.5876L142.573 48.2441L142.064 48.023L141.565 47.9273L141.102 47.8858L140.688 47.9093L140.321 47.9673L140.2 47.9948L139.954 47.932L139.482 47.8866L139.001 47.8897L138.52 47.9901L138.043 48.1438L137.58 48.3821L137.158 48.6919L136.808 49.0746L136.509 49.4894L136.272 49.9285L136.118 50.3692L136.014 50.824L135.986 51.0083L135.959 51.0577L135.868 51.3L135.75 51.6129L135.646 51.9972L135.582 52.4418ZM192.661 16.0383C193.002 16.0383 192.492 16.276 192.149 16.3763C189.834 17.0272 187.15 17.6428 184.358 18.4348C181.578 19.2127 178.727 20.1827 176.144 21.5565C176.13 21.7149 176.13 21.8914 176.13 22.067C182.4 20.8892 185.96 21.05 188.126 22.7077C188.18 22.7547 187.994 22.7077 187.926 22.7077H187.721C186.304 22.6677 184.951 22.7077 183.635 22.8034C182.327 22.903 181.078 23.0598 179.893 23.2997C177.532 23.764 175.401 24.4932 173.572 25.5056C173.826 25.5723 174.335 25.7683 174.571 25.8389C175.298 26.1024 175.483 26.8669 174.988 27.7554C174.629 28.4517 174.703 28.7136 174.144 29.4155C171.864 30.4765 169.593 31.5515 167.329 32.6141C167.36 34.1252 167.065 35.6331 166.094 37.1607C164.717 38.4177 164.441 40.0794 164.285 41.7677C164.976 44.0755 166.057 45.7309 167.256 47.1973C167.682 48.401 167.246 49.3514 165.934 50.0399C166.315 50.7456 166.864 51.7094 167.22 52.4269C168.231 52.8841 168.6 53.3671 167.983 54.8656C168.278 55.3675 168.3 55.9454 168.195 56.4418C168.513 56.6528 168.826 56.8802 169.135 57.1021C169.453 57.8039 169.217 58.3427 168.408 58.7426C167.529 59.1488 167.278 59.9282 167.114 60.7438C166.542 60.7642 166.33 61.1359 166.175 61.5719C166.283 62.2345 166.048 62.5309 165.444 62.4587C165.411 62.712 165.389 62.9653 165.367 63.2092C165.961 63.3998 166.579 63.6005 167.188 63.8059C167.219 65.0363 167.278 66.28 167.328 67.5315C155.286 67.501 143.454 67.5057 131.403 67.4923C131.325 66.1255 131.031 64.7226 130.963 63.3629C131.248 63.1786 131.537 63.0022 131.829 62.8312C131.734 62.5607 131.625 62.2831 131.53 62.0149C131.602 61.6722 131.684 61.3319 131.748 60.9798C132.42 59.4899 132.366 57.4118 132.302 55.8176C131.168 55.344 131.281 54.1779 131.898 53.1711C131.436 52.2504 130.763 50.2932 133.191 49.0753C133.228 48.1492 133.36 47.3306 134.213 47.0553C134.749 45.8179 134.703 46.0712 136.852 45.5709C137.638 44.6997 138.418 43.903 139.204 43.0427C139.204 42.4946 138.932 41.8743 138.932 41.3286C139.481 39.6104 140.616 38.2029 142.336 37.0823C145.21 35.67 147.99 33.9511 150.659 31.9562C151.408 31.023 152.156 30.1165 152.905 29.1951C153.583 28.3419 154.3 27.5868 155.372 27.3327C156.674 27.1273 157.977 26.9367 159.289 26.743C160.557 26.0828 161.841 25.4515 163.127 24.8038C163.454 23.7914 164.38 23.3719 165.879 23.5373C173.696 18.0709 182.521 15.8282 192.661 16.0383ZM158.363 57.1985C157.509 58.1247 156.582 58.0556 155.966 57.2777C154.356 56.681 154.871 55.8835 155.23 55.1981C155.184 53.9882 156.033 53.44 157.118 53.9921C158.295 53.5443 158.921 53.7404 158.885 55.1111C159.48 55.9274 159.42 56.7061 158.363 57.1985ZM160.133 55.3001L160.203 55.573L160.252 55.8686V56.1603L160.22 56.4708L160.134 56.772L159.998 57.0496L159.839 57.3264L159.649 57.5632L159.422 57.7694L159.18 57.9317L158.922 58.109L158.864 58.1372L158.79 58.1905L158.563 58.3913L158.331 58.5779L158.054 58.7347L157.796 58.8524L157.51 58.9386L157.2 59.0061L156.9 59.021L156.605 59.0061L156.321 58.9386L156.024 58.8531L155.765 58.7347L155.525 58.5779L155.299 58.3913L155.129 58.2321L155.049 58.1991L154.716 58.0313L154.421 57.84L154.158 57.6118L153.907 57.3295L153.727 57.0151L153.595 56.6802L153.541 56.3367V56.0043L153.572 55.7173L153.645 55.4553L153.727 55.235L153.799 55.0437L153.881 54.8664L153.908 54.8484L153.944 54.5143L154.031 54.2046L154.144 53.8917L154.28 53.5867L154.481 53.3208L154.717 53.0762L154.995 52.8801L155.289 52.7288L155.599 52.6206L155.917 52.561L156.239 52.5523L156.561 52.59L156.879 52.6621L156.996 52.7037L157.069 52.6802L157.332 52.6198L157.6 52.5704L157.901 52.5516L158.196 52.5743L158.517 52.6417L158.839 52.7751L159.125 52.9844L159.383 53.2479L159.573 53.5396L159.707 53.8501L159.789 54.1552L159.848 54.4657L159.861 54.7033L159.92 54.806L160.042 55.0437L160.133 55.3001Z" fill="#FFD700"/>
</svg>
