<svg width="300" height="300" viewBox="0 0 300 300" fill="none" xmlns="http://www.w3.org/2000/svg">
<g clip-path="url(#clip0_151_10199)">
<rect width="300" height="300" fill="white"/>
<g clip-path="url(#clip1_151_10199)">
<mask id="mask0_151_10199" style="mask-type:luminance" maskUnits="userSpaceOnUse" x="0" y="0" width="300" height="301">
<path d="M0 0.000488281H300V300.001H0V0.000488281Z" fill="white"/>
</mask>
<g mask="url(#mask0_151_10199)">
<path d="M-75.002 0.1875H374.998V300.188H-75.002V0.1875Z" fill="#072B5F"/>
<path d="M150 205.688C180.755 205.688 205.688 180.756 205.688 150C205.688 119.245 180.755 94.313 150 94.313C119.245 94.313 94.3125 119.245 94.3125 150C94.3125 180.756 119.245 205.688 150 205.688Z" stroke="white" stroke-width="4.065"/>
<path d="M149.999 253.756C207.198 253.756 253.567 207.387 253.567 150.188C253.567 92.9894 207.198 46.6206 149.999 46.6206C92.8004 46.6206 46.4316 92.9894 46.4316 150.188C46.4316 207.387 92.8004 253.756 149.999 253.756Z" stroke="white" stroke-width="4.04467"/>
<path d="M150 298.821C232.088 298.821 298.633 232.276 298.633 150.188C298.633 68.1008 232.088 1.55566 150 1.55566C67.9123 1.55566 1.36719 68.1008 1.36719 150.188C1.36719 232.276 67.9123 298.821 150 298.821Z" stroke="white" stroke-width="4.03858"/>
<path d="M-112.689 150H412.686M149.998 -112.687V412.688" stroke="white" stroke-width="4.065"/>
<path d="M-77.4941 18.6566L377.494 281.344M281.344 -77.4937L18.6562 377.494" stroke="white" stroke-width="4.065"/>
<path d="M18.6544 -77.4937L281.342 377.494M377.492 18.6566L-77.4959 281.344" stroke="white" stroke-width="4.065"/>
<path d="M164.507 48.9756L163.805 48.6752L164.507 48.9756ZM184.568 247.201L181.86 245.599L173.835 247.601L166.814 243.196V244.898L165.109 242.596L167.115 240.594L166.814 234.587H169.121L170.525 230.582L172.13 229.881L170.826 227.879L172.832 227.178L172.531 224.175L170.525 223.174L173.133 222.873L171.528 215.565L167.516 211.56L165.109 212.562L166.112 215.865H157.786L150.765 212.862L148.056 211.56L134.715 208.557L133.712 210.159L128.998 210.559H127.694L125.688 213.863L119.97 209.859L116.961 210.86L117.362 213.563L109.939 209.558L109.638 212.161L102.316 208.857L101.915 209.158L98.3035 210.559L97.6013 207.856L88.8745 203.551L79.5459 200.548L77.8407 192.839V191.137L74.2296 184.53L75.8345 176.521L72.8253 175.519L71.8222 172.116L76.8376 171.515H74.5305L74.8314 166.509L67.5089 168.812L67.208 166.81L66.2049 170.514L62.1926 172.116L59.4842 169.513L58.4812 166.81L57.4781 161.504L59.7852 159.802L60.7883 161.103L61.4904 159.501L59.7852 147.488L62.4935 148.088L63.7975 135.474L64.1987 135.073L66.8067 133.472L63.4966 133.772L62.1926 130.769L68.211 124.061L62.7944 123.06L58.7821 127.064L57.1771 122.459L54.7698 125.763L54.1679 123.46L51.1587 124.461L49.1525 125.463L50.7574 119.456L49.4534 118.755L50.1556 117.053L48.4504 117.453L48.1494 114.05H54.4688L54.1679 112.448H52.1618L48.4504 106.041L46.4442 106.741L45.1402 104.439L44.438 106.441L42.4319 105.039L44.438 103.738L41.4288 102.737L42.131 101.035L39.7236 99.7333L39.1217 94.4273L36.7143 93.7265L38.1186 92.7254L35.4103 85.7174L35.7112 83.4148L36.7143 76.4068H38.7205L38.1186 80.7117L43.134 87.7197L46.7451 92.425L54.1679 94.4273V94.7277L55.171 93.0257L59.1833 97.7311L61.1895 100.034L62.1926 101.035L73.5274 106.441L75.5335 107.442L76.2357 108.043L81.552 114.45L84.5613 113.048L106.629 108.043L107.331 104.038L108.936 104.739L108.635 103.438L109.638 102.737L114.353 101.035V96.4296L115.958 94.7277L117.964 87.0189L116.961 84.0155L121.675 72.7026V71.0007V65.6946H123.982L126.691 61.6901L130.001 60.6889L130.402 56.9847L135.016 51.3784L137.022 52.3795L146.451 48.9756L147.454 47.9745L149.461 45.9722L148.758 42.6685H150.765L151.768 47.9745L162.099 50.3772L163.805 48.6753L164.507 48.9756L173.534 50.9779L173.835 50.6776L178.55 47.9745L178.851 50.9779L182.863 51.3784L186.173 53.9813L186.875 54.6821L191.891 58.987L197.909 59.3875L201.621 59.9881L206.235 58.3863L206.636 61.3897L208.642 62.6912L210.247 59.6878H212.253L213.658 67.3966L215.263 67.6969L214.962 70.4L214.661 70.7003H215.263L219.275 68.6981L222.986 67.3966L233.318 71.0007L235.324 70.4L236.026 74.0041L238.735 74.4046L238.032 72.7026H240.34L241.042 76.4069L243.75 73.4034L250.069 77.408L251.775 84.7163L249.066 85.4171L249.769 91.0235L250.772 92.7254L257.793 110.446L254.082 113.749L253.781 117.754L250.772 121.458L254.082 123.761L252.778 124.762L255.787 127.765L260.401 128.466L261.806 130.468L263.109 133.071L266.42 134.473L270.432 131.77L273.14 132.07L269.83 136.775L273.14 145.485L269.128 148.789L270.833 154.095L269.83 158.801L271.836 161.504L277.153 162.505L271.836 169.813L272.839 171.115L274.143 172.516L271.836 176.12L274.143 177.522L262.407 187.133L265.116 193.84L264.414 197.845L260.401 199.146L259.398 202.55L254.784 204.553L253.38 208.857L252.377 211.16L257.091 213.563L250.069 214.163L251.775 217.868L248.364 221.171L243.048 222.173L241.343 225.176L245.355 227.178L237.732 234.186L240.039 237.89L234.02 236.589L227.3 240.594L218.272 244.898L216.266 247.902L214.962 246.901L216.266 243.897L210.247 246.2L208.943 243.897L199.915 249.203L195.903 247.902L188.581 249.203L186.574 248.202M186.875 54.6823L186.173 53.9815H185.872V54.3819H186.574L186.875 54.6823V54.6823ZM184.568 247.201L186.574 248.202L184.568 247.201ZM184.568 247.201L186.574 248.202ZM43.7359 109.445L44.1371 107.042L40.4257 104.739L43.7359 109.445H43.7359V109.445ZM35.7112 91.0237H33.7051L34.7082 94.0271L35.7112 91.4242V91.0237V91.0237ZM34.7082 88.0203L33.7051 89.0215L35.7112 90.423L34.7082 88.0203ZM43.7359 109.445L44.1371 107.042L40.4257 104.739L43.7359 109.445H43.7359ZM35.7112 91.0237H33.7051L34.7082 94.0271L35.7112 91.4242V91.0237V91.0237ZM34.7082 88.0203L33.7051 89.0214L35.7112 90.423L34.7082 88.0203ZM43.7359 109.445L44.1371 107.042L40.4257 104.739L43.7359 109.445H43.7359V109.445ZM35.7112 91.0237H33.7051L34.7082 94.0271L35.7112 91.4241V91.0237V91.0237ZM34.7082 88.0203L33.7051 89.0214L35.7112 90.423L34.7082 88.0203ZM40.7266 81.0123V78.4094L38.4195 79.01L38.7205 80.712L40.7266 81.0123ZM38.1186 73.704L38.7205 75.0055L40.1248 72.0021L38.1186 73.4037V73.704ZM40.7266 81.0123V78.4094L38.4195 79.01L38.7205 80.712L40.7266 81.0123ZM38.1186 73.704L38.7205 75.0055L40.1248 72.0021L38.1186 73.4037V73.704ZM40.7266 81.0123V78.4094L38.4195 79.01L38.7205 80.712L40.7266 81.0123ZM38.1186 73.704L38.7205 75.0055L40.1248 72.0021L38.1186 73.4037V73.704ZM73.8284 175.82L71.5213 176.12L69.5151 178.824L72.8253 178.123L73.8284 175.82V175.82ZM73.8284 175.82L71.5213 176.12L69.5151 178.824L72.8253 178.123L73.8284 175.82V175.82ZM73.8284 175.82L71.5213 176.12L69.5151 178.824L72.8253 178.123L73.8284 175.82V175.82ZM76.2358 108.043L75.5336 107.443L73.5274 106.441L75.5336 107.443L76.2358 108.043Z" fill="white"/>
<mask id="mask1_151_10199" style="mask-type:luminance" maskUnits="userSpaceOnUse" x="33" y="42" width="244" height="208">
<path d="M164.389 49.237L163.688 48.9373L164.389 49.237ZM184.409 247.055L181.706 245.457L173.698 247.455L166.691 243.059V244.757L164.989 242.46L166.991 240.461L166.691 234.467H168.993L170.395 230.471L171.996 229.771L170.695 227.773L172.697 227.074L172.397 224.076L170.395 223.077L172.997 222.778L171.396 215.484L167.392 211.488L164.989 212.487L165.99 215.784H157.682L150.675 212.787L147.972 211.488L134.658 208.491L133.657 210.089L128.952 210.489H127.651L125.649 213.786L119.943 209.789L116.94 210.789L117.341 213.486L109.933 209.49L109.633 212.087L102.325 208.79L101.925 209.09L98.3212 210.489L97.6205 207.791L88.9116 203.495L79.6021 200.498L77.9004 192.805V191.107L74.2967 184.513L75.8983 176.52L72.8953 175.521L71.8943 172.124L76.8994 171.525H74.597L74.8973 166.529L67.5899 168.827L67.2896 166.829L66.2885 170.526L62.2844 172.124L59.5817 169.527L58.5807 166.829L57.5796 161.534L59.882 159.835L60.883 161.134L61.5837 159.536L59.882 147.547L62.5847 148.146L63.8861 135.558L64.2865 135.158L66.8891 133.56L63.5858 133.859L62.2844 130.862L68.2905 124.168L62.8851 123.169L58.881 127.165L57.2793 122.57L54.8769 125.867L54.2763 123.569L51.2732 124.568L49.2712 125.567L50.8728 119.572L49.5715 118.873L50.2722 117.175L48.5705 117.574L48.2701 114.177H54.5766L54.2763 112.579H52.2742L48.5705 106.185L46.5684 106.884L45.2671 104.586L44.5664 106.584L42.5643 105.186L44.5664 103.887L41.5633 102.888L42.264 101.189L39.8616 99.8905L39.261 94.5954L36.8585 93.8961L38.26 92.897L35.5572 85.9034L35.8575 83.6055L36.8585 76.6119H38.8606L38.26 80.908L43.2651 87.9016L46.8687 92.5973L54.2763 94.5954V94.8951L55.2773 93.1967L59.2814 97.8924L61.2834 100.19L62.2845 101.189L73.596 106.584L75.598 107.583L76.2987 108.183L81.6041 114.577L84.6072 113.178L106.63 108.183L107.33 104.187L108.932 104.886L108.632 103.587L109.633 102.888L114.337 101.189V96.5936L115.939 94.8951L117.941 87.2022L116.94 84.205L121.645 72.9153V71.2169V65.9218H123.947L126.65 61.9254L129.953 60.9263L130.354 57.2297L134.958 51.6349L136.961 52.634L146.37 49.2371L147.371 48.238L149.373 46.2398L148.672 42.9429H150.674L151.676 48.238L161.986 50.6358L163.688 48.9374L164.388 49.2371L173.398 51.2353L173.698 50.9355L178.403 48.238L178.703 51.2353L182.707 51.6349L186.011 54.2325L186.711 54.9319L191.716 59.2279L197.722 59.6275L201.426 60.227L206.031 58.6285L206.431 61.6257L208.433 62.9245L210.035 59.9273H212.037L213.438 67.6202L215.04 67.9199L214.74 70.6174L214.439 70.9172H215.04L219.044 68.919L222.748 67.6202L233.058 71.2169L235.06 70.6175L235.761 74.2142L238.464 74.6138L237.763 72.9154H240.066L240.766 76.612L243.469 73.6147L249.775 77.6111L251.477 84.9044L248.774 85.6037L249.475 91.1986L250.476 92.897L257.483 110.581L253.78 113.878L253.479 117.874L250.476 121.571L253.78 123.869L252.478 124.868L255.481 127.865L260.086 128.564L261.487 130.562L262.789 133.16L266.092 134.559L270.096 131.861L272.799 132.161L269.496 136.857L272.799 145.549L268.795 148.846L270.497 154.141L269.496 158.836L271.498 161.534L276.803 162.533L271.498 169.826L272.499 171.125L273.8 172.524L271.498 176.121L273.8 177.519L262.088 187.11L264.791 193.804L264.09 197.801L260.086 199.099L259.085 202.496L254.48 204.494L253.079 208.791L252.078 211.088L256.783 213.486L249.775 214.086L251.477 217.782L248.074 221.079L242.768 222.078L241.067 225.076L245.071 227.074L237.463 234.067L239.765 237.764L233.759 236.465L227.052 240.461L218.043 244.757L216.041 247.755L214.74 246.756L216.041 243.758L210.035 246.056L208.734 243.758L199.724 249.053L195.72 247.755L188.413 249.053L186.411 248.054M186.711 54.932L186.01 54.2326H185.71V54.6323H186.411L186.711 54.932V54.932ZM184.409 247.055L186.411 248.055L184.409 247.055ZM184.409 247.055L186.411 248.055ZM43.8657 109.582L44.2661 107.184L40.5623 104.886L43.8657 109.582H43.8657V109.582ZM35.8575 91.1988H33.8555L34.8565 94.1961L35.8575 91.5984V91.1988V91.1988ZM34.8565 88.2016L33.8555 89.2007L35.8575 90.5994L34.8565 88.2016ZM43.8657 109.582L44.2661 107.184L40.5623 104.886L43.8657 109.582H43.8657ZM35.8575 91.1988H33.8555L34.8565 94.196L35.8575 91.5984V91.1988V91.1988ZM34.8565 88.2016L33.8555 89.2006L35.8575 90.5993L34.8565 88.2016ZM43.8657 109.582L44.2661 107.184L40.5623 104.886L43.8657 109.582H43.8657V109.582ZM35.8575 91.1988H33.8555L34.8565 94.196L35.8575 91.5984V91.1988V91.1988ZM34.8565 88.2015L33.8555 89.2006L35.8575 90.5993L34.8565 88.2015ZM40.8626 81.208V78.6104L38.5603 79.2098L38.8606 80.9082L40.8626 81.208ZM38.2599 73.9147L38.8606 75.2135L40.262 72.2162L38.2599 73.6149V73.9147ZM40.8626 81.208V78.6104L38.5603 79.2098L38.8606 80.9082L40.8626 81.208ZM38.2599 73.9147L38.8606 75.2135L40.262 72.2162L38.2599 73.6149V73.9147ZM40.8626 81.208V78.6104L38.5603 79.2098L38.8606 80.9082L40.8626 81.208ZM38.2599 73.9147L38.8606 75.2135L40.262 72.2162L38.2599 73.6149V73.9147ZM73.8963 175.821L71.594 176.121L69.5919 178.818L72.8953 178.119L73.8963 175.821V175.821ZM73.8963 175.821L71.594 176.121L69.5919 178.818L72.8953 178.119L73.8963 175.821V175.821ZM73.8963 175.821L71.594 176.121L69.5919 178.818L72.8953 178.119L73.8963 175.821V175.821ZM76.2988 108.183L75.5981 107.584L73.596 106.585L75.5981 107.584L76.2988 108.183Z" fill="white"/>
</mask>
<g mask="url(#mask1_151_10199)">
<path d="M149.907 205.745C180.599 205.745 205.48 180.895 205.48 150.242C205.48 119.588 180.599 94.7378 149.907 94.7378C119.215 94.7378 94.334 119.588 94.334 150.242C94.334 180.895 119.215 205.745 149.907 205.745Z" stroke="#072B5F" stroke-width="4.05412"/>
<path d="M149.909 253.961C207.263 253.961 253.758 207.524 253.758 150.242C253.758 92.9591 207.263 46.5225 149.909 46.5225C92.5552 46.5225 46.0605 92.9591 46.0605 150.242C46.0605 207.524 92.5552 253.961 149.909 253.961Z" stroke="#072B5F" stroke-width="4.05412"/>
<path d="M149.909 299.373C232.375 299.373 299.227 232.605 299.227 150.242C299.227 67.8792 232.375 1.11084 149.909 1.11084C67.4436 1.11084 0.591797 67.8792 0.591797 150.242C0.591797 232.605 67.4436 299.373 149.909 299.373Z" stroke="#072B5F" stroke-width="4.05412"/>
<path d="M-112.24 150.242H412.056M149.908 -111.579V412.062" stroke="#072B5F" stroke-width="4.05412"/>
<path d="M-77.1169 19.3312L376.937 281.152M280.984 -76.5018L18.8359 376.985" stroke="#072B5F" stroke-width="4.05412"/>
<path d="M18.8346 -76.5018L280.982 376.985M376.935 19.3312L-77.1182 281.152" stroke="#072B5F" stroke-width="4.05412"/>
</g>
</g>
</g>
</g>
<defs>
<clipPath id="clip0_151_10199">
<rect width="300" height="300" fill="white"/>
</clipPath>
<clipPath id="clip1_151_10199">
<rect width="300" height="300" fill="white"/>
</clipPath>
</defs>
</svg>
