<svg width="300" height="300" viewBox="0 0 300 300" fill="none" xmlns="http://www.w3.org/2000/svg">
<g clip-path="url(#clip0_151_10200)">
<path d="M215.948 166.513C215.948 215.14 186.303 254.58 149.811 254.58C113.318 254.58 83.6738 215.14 83.6738 166.513C83.6738 117.798 113.318 78.3589 149.811 78.3589C186.303 78.3589 215.948 117.798 215.948 166.513Z" fill="white"/>
<path d="M83.6738 167.553C83.6738 118.925 113.232 79.4858 149.811 79.4858C186.303 79.4858 215.861 118.925 215.861 167.553C215.861 167.726 215.861 167.9 215.861 168.073L149.811 167.553H83.6738Z" fill="#75AADB"/>
<path d="M152.495 53.9151L150.502 1.04016C150.502 1.04016 150.502 0 149.808 0C149.115 0 149.115 1.04016 149.115 1.04016L147.121 53.9151H152.495Z" fill="#FCBF49"/>
<path d="M152.495 53.9151L150.502 1.04016C150.502 1.04016 150.502 0 149.808 0C149.115 0 149.115 1.04016 149.115 1.04016L147.121 53.9151" stroke="#843511" stroke-width="0.179753"/>
<path d="M154.66 36.7524C157.607 30.1647 155.007 24.7038 157.954 18.983C160.988 13.2621 159.081 8.3213 159.254 5.63421C159.428 3.03381 161.595 2.25368 160.988 1.64692C160.468 1.04016 158.214 2.25368 157.347 5.80757C156.481 9.36146 158.648 11.3551 155.007 18.3762C151.453 25.3106 154.4 28.7778 150.76 35.1055L154.66 36.7524Z" fill="#FCBF49"/>
<path d="M154.66 36.7524C157.607 30.1647 155.007 24.7038 157.954 18.983C160.988 13.2621 159.081 8.3213 159.254 5.63421C159.428 3.03381 161.595 2.25368 160.988 1.64692C160.468 1.04016 158.214 2.25368 157.347 5.80757C156.481 9.36146 158.648 11.3551 155.007 18.3762C151.453 25.3106 154.4 28.7778 150.76 35.1055" stroke="#843511" stroke-width="0.179753"/>
<path d="M149.809 51.1411L99.1007 53.2214C99.1007 53.2214 98.0605 53.2214 98.0605 53.9149C98.0605 54.6083 99.1007 54.6083 99.1007 54.6083L149.809 56.6886V51.1411Z" fill="#FCBF49"/>
<path d="M149.809 51.1411L99.1007 53.2214C99.1007 53.2214 98.0605 53.2214 98.0605 53.9149C98.0605 54.6083 99.1007 54.6083 99.1007 54.6083L149.809 56.6886" stroke="#843511" stroke-width="0.179753"/>
<path d="M133.339 48.8007C127.012 45.6802 121.724 48.454 116.263 45.4201C110.803 42.2997 106.035 44.2933 103.521 44.1199C101.008 43.9466 100.228 41.6062 99.6208 42.213C99.0141 42.8197 100.228 45.1601 103.608 46.0269C106.989 46.9804 108.982 44.7267 115.657 48.454C122.418 52.1812 125.712 49.1474 131.692 52.8746L133.339 48.8007Z" fill="#FCBF49"/>
<path d="M133.339 48.8007C127.012 45.6802 121.724 48.454 116.263 45.4201C110.803 42.2997 106.035 44.2933 103.521 44.1199C101.008 43.9466 100.228 41.6062 99.6208 42.213C99.0141 42.8197 100.228 45.1601 103.608 46.0269C106.989 46.9804 108.982 44.7267 115.657 48.454C122.418 52.1812 125.712 49.1474 131.692 52.8746" stroke="#843511" stroke-width="0.179753"/>
<path d="M149.807 56.6891L200.515 54.6088C200.515 54.6088 201.555 54.6088 201.555 53.9154C201.555 53.2219 200.515 53.2219 200.515 53.2219L149.807 51.1416V56.6891Z" fill="#FCBF49"/>
<path d="M149.807 56.6891L200.515 54.6088C200.515 54.6088 201.555 54.6088 201.555 53.9154C201.555 53.2219 200.515 53.2219 200.515 53.2219L149.807 51.1416" stroke="#843511" stroke-width="0.179753"/>
<path d="M166.277 58.9421C172.605 62.0626 177.806 59.2889 183.353 62.4093C188.814 65.5298 193.582 63.5362 196.095 63.7095C198.609 63.8829 199.302 66.1366 199.996 65.6165C200.603 65.0097 199.389 62.6694 196.009 61.7159C192.628 60.8491 190.634 63.1028 183.96 59.3755C177.199 55.6483 173.905 58.6821 167.838 54.8682L166.277 58.9421Z" fill="#FCBF49"/>
<path d="M166.277 58.9421C172.605 62.0626 177.806 59.2889 183.353 62.4093C188.814 65.5298 193.582 63.5362 196.095 63.7095C198.609 63.8829 199.302 66.1366 199.996 65.6165C200.603 65.0097 199.389 62.6694 196.009 61.7159C192.628 60.8491 190.634 63.1028 183.96 59.3755C177.199 55.6483 173.905 58.6821 167.838 54.8682" stroke="#843511" stroke-width="0.179753"/>
<path d="M151.716 55.822L186.128 16.9893C186.128 16.9893 186.822 16.2959 186.388 15.7758C185.868 15.3424 185.175 16.0358 185.175 16.0358L147.902 51.9214L151.716 55.822Z" fill="#FCBF49"/>
<path d="M151.716 55.822L186.128 16.9893C186.128 16.9893 186.822 16.2959 186.388 15.7758C185.868 15.3424 185.175 16.0358 185.175 16.0358L147.902 51.9214" stroke="#843511" stroke-width="0.179753"/>
<path d="M164.891 45.3342C171.479 42.9072 173.299 37.0996 179.28 35.1926C185.261 33.3724 187.341 28.4316 189.162 26.698C191.068 25.0511 193.149 26.0912 193.235 25.2244C193.235 24.3576 190.808 23.5775 187.775 25.3978C184.741 27.3047 184.914 30.3385 177.633 32.5922C170.352 34.9326 170.092 39.5266 163.244 41.2602L164.891 45.3342Z" fill="#FCBF49"/>
<path d="M164.891 45.3342C171.479 42.9072 173.299 37.0996 179.28 35.1926C185.261 33.3724 187.341 28.4316 189.162 26.698C191.068 25.0511 193.149 26.0912 193.235 25.2244C193.235 24.3576 190.808 23.5775 187.775 25.3978C184.741 27.3047 184.914 30.3385 177.633 32.5922C170.352 34.9326 170.092 39.5266 163.244 41.2602" stroke="#843511" stroke-width="0.179753"/>
<path d="M151.714 51.9214L114.442 16.0358C114.442 16.0358 113.662 15.3424 113.228 15.7758C112.795 16.2959 113.488 16.9893 113.488 16.9893L147.901 55.822L151.714 51.9214Z" fill="#FCBF49"/>
<path d="M151.714 51.9214L114.442 16.0358C114.442 16.0358 113.662 15.3424 113.228 15.7758C112.795 16.2959 113.488 16.9893 113.488 16.9893L147.901 55.822" stroke="#843511" stroke-width="0.179753"/>
<path d="M141.66 38.2259C139.233 31.3782 133.685 29.3845 131.865 23.1436C130.131 16.9893 125.364 14.8223 123.717 12.8286C122.07 10.9217 123.11 8.75465 122.243 8.66797C121.463 8.66797 120.683 11.1817 122.503 14.3022C124.237 17.4227 127.184 17.336 129.351 24.8772C131.605 32.505 136.025 32.765 137.672 39.8728L141.66 38.2259Z" fill="#FCBF49"/>
<path d="M141.66 38.2259C139.233 31.3782 133.685 29.3845 131.865 23.1436C130.131 16.9893 125.364 14.8223 123.717 12.8286C122.07 10.9217 123.11 8.75465 122.243 8.66797C121.463 8.66797 120.683 11.1817 122.503 14.3022C124.237 17.4227 127.184 17.336 129.351 24.8772C131.605 32.505 136.025 32.765 137.672 39.8728" stroke="#843511" stroke-width="0.179753"/>
<path d="M152.233 54.9547L169.829 5.37369C169.829 5.37369 170.176 4.42021 169.569 4.16017C168.962 3.90013 168.616 4.85361 168.616 4.85361L147.379 52.8744L152.233 54.9547Z" fill="#FCBF49"/>
<path d="M152.233 54.9547L169.829 5.37369C169.829 5.37369 170.176 4.42021 169.569 4.16017C168.962 3.90013 168.616 4.85361 168.616 4.85361L147.379 52.8744" stroke="#843511" stroke-width="0.179753"/>
<path d="M160.557 40.0464C165.757 35.1056 165.324 28.9513 170.178 24.8774C175.032 20.8034 175.119 15.4292 176.246 13.0889C177.372 10.7485 179.626 10.9219 179.366 10.0551C179.106 9.27493 176.506 9.53497 174.425 12.4821C172.345 15.3425 173.559 18.1163 167.664 23.1438C161.857 28.1712 163.244 32.5052 157.609 36.9259L160.557 40.0464Z" fill="#FCBF49"/>
<path d="M160.557 40.0464C165.757 35.1056 165.324 28.9513 170.178 24.8774C175.032 20.8034 175.119 15.4292 176.246 13.0889C177.372 10.7485 179.626 10.9219 179.366 10.0551C179.106 9.27493 176.506 9.53497 174.425 12.4821C172.345 15.3425 173.559 18.1163 167.664 23.1438C161.857 28.1712 163.244 32.5052 157.609 36.9259" stroke="#843511" stroke-width="0.179753"/>
<path d="M150.85 51.3144L103.176 33.0249C103.176 33.0249 102.309 32.6782 102.049 33.2849C101.789 33.8917 102.655 34.3251 102.655 34.3251L148.769 56.4285L150.85 51.3144Z" fill="#FCBF49"/>
<path d="M150.85 51.3144L103.176 33.0249C103.176 33.0249 102.309 32.6782 102.049 33.2849C101.789 33.8917 102.655 34.3251 102.655 34.3251L148.769 56.4285" stroke="#843511" stroke-width="0.179753"/>
<path d="M136.46 42.647C131.779 37.2728 125.885 37.7062 121.984 32.6787C117.997 27.6513 112.883 27.5646 110.629 26.3511C108.375 25.2243 108.549 22.7972 107.768 23.1439C106.988 23.404 107.248 26.0911 110.022 28.2581C112.796 30.4251 115.483 29.1249 120.25 35.2791C125.105 41.3468 129.265 39.8732 133.512 45.7674L136.46 42.647Z" fill="#FCBF49"/>
<path d="M136.46 42.647C131.779 37.2728 125.885 37.7062 121.984 32.6787C117.997 27.6513 112.883 27.5646 110.629 26.3511C108.375 25.2243 108.549 22.7972 107.768 23.1439C106.988 23.404 107.248 26.0911 110.022 28.2581C112.796 30.4251 115.483 29.1249 120.25 35.2791C125.105 41.3468 129.265 39.8732 133.512 45.7674" stroke="#843511" stroke-width="0.179753"/>
<path d="M148.771 56.4286L196.446 74.7181C196.446 74.7181 197.312 75.1515 197.572 74.5447C197.832 73.8513 196.879 73.5046 196.879 73.5046L150.852 51.3145L148.771 56.4286Z" fill="#FCBF49"/>
<path d="M148.771 56.4286L196.446 74.7181C196.446 74.7181 197.312 75.1515 197.572 74.5447C197.832 73.8513 196.879 73.5046 196.879 73.5046L150.852 51.3145" stroke="#843511" stroke-width="0.179753"/>
<path d="M148.769 51.314L102.655 73.5041C102.655 73.5041 101.789 73.8508 102.049 74.5442C102.309 75.151 103.176 74.7176 103.176 74.7176L150.85 56.4281L148.769 51.314Z" fill="#FCBF49"/>
<path d="M148.769 51.314L102.655 73.5041C102.655 73.5041 101.789 73.8508 102.049 74.5442C102.309 75.151 103.176 74.7176 103.176 74.7176L150.85 56.4281" stroke="#843511" stroke-width="0.179753"/>
<path d="M132.734 55.7357C125.8 55.3889 121.899 60.0697 115.745 59.3762C109.504 58.6828 105.777 62.41 103.437 63.2768C101.01 64.1436 99.536 62.3234 99.1893 63.1035C98.8426 63.8836 100.836 65.5305 104.303 65.0104C107.684 64.4904 108.724 61.7166 116.265 62.41C123.806 63.1902 125.8 59.1162 132.734 60.1564V55.7357Z" fill="#FCBF49"/>
<path d="M132.734 55.7357C125.8 55.3889 121.899 60.0697 115.745 59.3762C109.504 58.6828 105.777 62.41 103.437 63.2768C101.01 64.1436 99.536 62.3234 99.1893 63.1035C98.8426 63.8836 100.836 65.5305 104.303 65.0104C107.684 64.4904 108.724 61.7166 116.265 62.41C123.806 63.1902 125.8 59.1162 132.734 60.1564" stroke="#843511" stroke-width="0.179753"/>
<path d="M150.852 56.4285L196.879 34.3251C196.879 34.3251 197.832 33.8917 197.572 33.2849C197.312 32.6782 196.446 33.0249 196.446 33.0249L148.771 51.3144L150.852 56.4285Z" fill="#FCBF49"/>
<path d="M150.852 56.4285L196.879 34.3251C196.879 34.3251 197.832 33.8917 197.572 33.2849C197.312 32.6782 196.446 33.0249 196.446 33.0249L148.771 51.3144" stroke="#843511" stroke-width="0.179753"/>
<path d="M166.883 52.0081C173.817 52.3549 177.718 47.7608 183.872 48.3676C190.113 49.061 193.754 45.3338 196.181 44.467C198.521 43.6868 200.081 45.5071 200.428 44.727C200.775 43.9469 198.781 42.2133 195.314 42.7334C191.847 43.2534 190.893 46.1139 183.352 45.3338C175.724 44.5536 173.817 48.7143 166.883 47.5875V52.0081Z" fill="#FCBF49"/>
<path d="M166.883 52.0081C173.817 52.3549 177.718 47.7608 183.872 48.3676C190.113 49.061 193.754 45.3338 196.181 44.467C198.521 43.6868 200.081 45.5071 200.428 44.727C200.775 43.9469 198.781 42.2133 195.314 42.7334C191.847 43.2534 190.893 46.1139 183.352 45.3338C175.724 44.5536 173.817 48.7143 166.883 47.5875" stroke="#843511" stroke-width="0.179753"/>
<path d="M152.236 52.8744L131 4.85361C131 4.85361 130.653 3.90013 130.046 4.16017C129.439 4.42021 129.786 5.37369 129.786 5.37369L147.382 54.9547L152.236 52.8744Z" fill="#FCBF49"/>
<path d="M152.236 52.8744L131 4.85361C131 4.85361 130.653 3.90013 130.046 4.16017C129.439 4.42021 129.786 5.37369 129.786 5.37369L147.382 54.9547" stroke="#843511" stroke-width="0.179753"/>
<path d="M147.987 36.1451C148.334 28.864 143.913 24.8767 144.52 18.3757C145.213 11.8747 141.573 8.06075 140.793 5.54703C140.013 3.11998 141.746 1.55974 140.966 1.12634C140.186 0.779617 138.626 2.85994 139.059 6.50051C139.579 10.0544 142.353 11.0946 141.573 18.9824C140.879 26.8703 144.78 28.864 143.74 36.1451H147.987Z" fill="#FCBF49"/>
<path d="M147.987 36.1451C148.334 28.864 143.913 24.8767 144.52 18.3757C145.213 11.8747 141.573 8.06075 140.793 5.54703C140.013 3.11998 141.746 1.55974 140.966 1.12634C140.186 0.779617 138.626 2.85994 139.059 6.50051C139.579 10.0544 142.353 11.0946 141.573 18.9824C140.879 26.8703 144.78 28.864 143.74 36.1451" stroke="#843511" stroke-width="0.179753"/>
<path d="M151.108 53.9152L149.808 17.5962L148.508 53.9152H151.108Z" fill="#843511"/>
<path d="M149.808 52.5283L114.963 53.9152L149.808 55.3021V52.5283Z" fill="#843511"/>
<path d="M149.807 55.3016L184.652 53.9147L149.807 52.5278V55.3016Z" fill="#843511"/>
<path d="M150.762 54.8686L174.426 28.2578L148.855 52.875L150.762 54.8686Z" fill="#843511"/>
<path d="M150.76 52.875L125.189 28.2578L148.853 54.8686L150.76 52.875Z" fill="#843511"/>
<path d="M151.025 54.4349L163.16 20.3696L148.598 53.3948L151.025 54.4349Z" fill="#843511"/>
<path d="M150.331 52.6145L117.652 40.0459L149.291 55.1282L150.331 52.6145Z" fill="#843511"/>
<path d="M149.291 55.129L181.969 67.7843L150.331 52.6152L149.291 55.129Z" fill="#843511"/>
<path d="M149.291 52.6152L117.652 67.7843L150.331 55.129L149.291 52.6152Z" fill="#843511"/>
<path d="M150.331 55.1282L181.969 40.0459L149.291 52.6145L150.331 55.1282Z" fill="#843511"/>
<path d="M151.021 53.3948L136.459 20.3696L148.594 54.4349L151.021 53.3948Z" fill="#843511"/>
<path d="M153.796 35.0186C156.136 28.4309 153.622 24.0102 156.743 18.376C153.189 22.5366 155.616 27.6508 152.582 34.4118L153.796 35.0186Z" fill="#843511"/>
<path d="M131.694 49.6676C125.366 47.3272 121.119 49.9276 115.658 46.6338C119.732 50.361 124.586 47.8473 131.087 50.9678L131.694 49.6676Z" fill="#843511"/>
<path d="M167.924 58.0756C174.251 60.5026 178.499 57.8156 183.873 61.1094C179.886 57.4688 175.032 59.9826 168.531 56.7754L167.924 58.0756Z" fill="#843511"/>
<path d="M165.499 43.5136C171.566 40.5665 172.78 35.6257 178.847 33.8921C173.473 34.2388 171.74 39.613 164.979 42.1267L165.499 43.5136Z" fill="#843511"/>
<path d="M139.841 37.6196C136.981 31.2052 132.213 29.9917 130.566 23.6641C130.913 29.2116 136.114 31.0319 138.541 38.053L139.841 37.6196Z" fill="#843511"/>
<path d="M160.467 38.0529C164.975 32.9388 164.281 27.8247 169.222 23.8374C164.454 26.2644 164.801 31.9853 159.514 37.0128L160.467 38.0529Z" fill="#843511"/>
<path d="M134.552 42.8194C129.611 38.052 124.757 38.8322 120.943 33.6313C123.284 38.5721 128.745 38.2254 133.599 43.7729L134.552 42.8194Z" fill="#843511"/>
<path d="M131.521 57.209C124.846 57.5557 121.899 61.6297 115.658 60.8496C120.686 62.5832 124.326 58.3358 131.434 58.6825L131.521 57.209Z" fill="#843511"/>
<path d="M168.1 50.5342C174.774 50.2742 177.721 46.1135 183.962 46.9803C178.935 45.16 175.294 49.4074 168.186 49.1473L168.1 50.5342Z" fill="#843511"/>
<path d="M146.603 34.8455C146.257 27.8244 142.356 24.7906 143.136 18.2896C141.402 23.577 145.476 27.3043 145.216 34.7588L146.603 34.8455Z" fill="#843511"/>
<path d="M169.659 53.9148C169.659 42.473 160.818 33.1982 149.809 33.1982C138.801 33.1982 129.873 42.473 129.873 53.9148C129.873 65.3566 139.581 74.0246 150.59 74.0246C161.598 74.0246 169.659 65.3566 169.659 53.9148Z" fill="#FCBF49" stroke="#843511" stroke-width="0.11987"/>
<path d="M163.416 49.0611C159.602 45.5939 154.748 45.0738 152.148 47.6742C151.628 48.541 151.021 49.5812 150.847 50.5347C150.587 52.5283 151.281 54.782 152.581 56.8623C152.494 56.8623 152.148 57.0357 151.974 57.209C150.674 54.6086 150.154 51.8349 150.587 49.3211C150.674 48.7144 151.021 48.0209 151.107 47.5008C154.748 44.207 159.775 43.8603 163.416 49.0611Z" fill="#843511"/>
<path d="M157.438 48.0205C155.271 48.0205 154.75 48.5406 153.797 49.4074C152.757 50.2742 152.323 50.1008 152.15 50.2742C151.977 50.4476 152.15 50.9676 152.497 50.7943C152.757 50.6209 153.45 50.2742 154.404 49.4074C155.444 48.5406 156.397 48.5406 157.438 48.5406C160.385 48.5406 162.032 51.141 162.378 50.9676C162.725 50.7943 160.731 48.0205 157.438 48.0205Z" fill="#843511"/>
<path d="M161.248 50.9681C159.081 48.5411 155.094 48.3677 153.447 51.1415H154.141C155.788 48.3677 159.775 49.5812 160.035 50.7948V51.1415L161.248 50.9681Z" fill="#843511"/>
<path d="M158.564 50.7946C158.564 49.9278 157.958 49.2344 157.091 49.2344C156.311 49.2344 155.617 49.9278 155.617 50.7946C155.617 51.6614 156.311 52.3549 157.091 52.3549C157.958 52.3549 158.564 51.6614 158.564 50.7946Z" fill="#843511"/>
<path d="M153.447 51.1416C155.094 52.7019 158.735 52.8752 161.248 50.9683L160.035 50.7949C158.388 52.7019 155.788 52.5285 154.141 51.1416V50.7949L153.447 51.1416Z" fill="#843511"/>
<path d="M161.424 51.8345C158.563 54.0882 155.79 53.9148 154.143 52.8747C152.496 51.8345 152.496 51.4878 152.756 51.4878C153.102 51.4878 153.449 51.8345 154.749 52.528C156.136 53.2214 158.13 53.2214 161.424 51.8345Z" fill="#843511"/>
<path d="M153.275 57.0361C153.708 57.1228 153.968 57.5562 153.968 57.9896C153.968 58.5097 153.535 59.0298 152.928 59.0298C152.408 59.0298 151.975 58.5964 151.975 57.9896C151.801 58.423 151.108 59.4632 149.808 59.4632H149.461L149.548 59.8966H149.808C150.154 59.8966 151.108 59.8966 151.801 59.4632C152.061 59.8099 152.495 60.0699 153.015 60.0699C153.795 60.0699 154.488 59.3765 154.488 58.5097C154.488 57.8163 153.968 57.1228 153.275 57.0361Z" fill="#843511"/>
<path d="M135.939 49.0611C139.753 45.5939 144.607 45.0738 147.208 47.6742C147.815 48.541 148.335 49.5812 148.508 50.5347C148.768 52.5283 148.075 54.782 146.774 56.8623C146.948 56.8623 147.208 57.0357 147.381 57.209C148.681 54.6086 149.202 51.8349 148.768 49.3211C148.681 48.7144 148.335 48.0209 148.248 47.5008C144.607 44.207 139.58 43.8603 135.939 49.0611Z" fill="#843511"/>
<path d="M141.921 48.0205C144.088 48.0205 144.608 48.5406 145.562 49.4074C146.602 50.2742 147.035 50.1008 147.209 50.2742C147.382 50.4476 147.209 50.9676 146.949 50.7943C146.602 50.6209 145.908 50.2742 144.955 49.4074C143.915 48.5406 142.961 48.5406 141.921 48.5406C138.974 48.5406 137.327 51.141 136.98 50.9676C136.634 50.7943 138.627 48.0205 141.921 48.0205Z" fill="#843511"/>
<path d="M138.107 50.9686C140.274 48.5416 144.262 48.3682 145.909 51.142H145.215C143.568 48.3682 139.581 49.5817 139.321 50.7952V51.142L138.107 50.9686Z" fill="#843511"/>
<path d="M140.795 50.7946C140.795 49.9278 141.488 49.2344 142.268 49.2344C143.135 49.2344 143.742 49.9278 143.742 50.7946C143.742 51.6614 143.135 52.3549 142.268 52.3549C141.488 52.3549 140.795 51.6614 140.795 50.7946Z" fill="#843511"/>
<path d="M145.909 51.1412C144.262 52.7014 140.621 52.8748 138.107 50.9678L139.321 50.7944C140.968 52.7014 143.568 52.528 145.215 51.1412V50.7944L145.909 51.1412Z" fill="#843511"/>
<path d="M137.932 51.8345C140.792 54.0882 143.566 53.9148 145.213 52.8747C146.946 51.8345 146.946 51.4878 146.6 51.4878C146.253 51.4878 145.906 51.8345 144.606 52.528C143.306 53.2214 141.312 53.2214 137.932 51.8345Z" fill="#843511"/>
<path d="M146.081 57.0356C145.647 57.1223 145.387 57.5557 145.387 57.9891C145.387 58.5092 145.907 59.0293 146.427 59.0293C146.948 59.0293 147.381 58.5959 147.381 57.9891C147.554 58.4225 148.248 59.4627 149.548 59.4627H149.895L149.548 59.8961C149.201 59.8961 148.248 59.8961 147.554 59.4627C147.294 59.8094 146.861 60.0694 146.341 60.0694C145.561 60.0694 144.867 59.376 144.867 58.5092C144.867 57.8158 145.387 57.1223 146.081 57.0356Z" fill="#843511"/>
<path d="M159.083 124.212C152.929 123.259 146.515 122.826 139.32 124.386C110.716 136.608 192.889 134.874 159.083 124.212Z" fill="#D40000"/>
<path d="M147.203 123.866L147.376 243.658C147.376 245.392 148.677 246.779 150.15 246.779C151.624 246.779 152.837 245.392 152.837 243.658L152.664 123.866H147.203Z" fill="#C87137"/>
<path d="M147.203 123.866L147.376 243.658C147.376 245.392 148.677 246.779 150.15 246.779C151.624 246.779 152.837 245.392 152.837 243.658L152.664 123.866" stroke="#CE9548" stroke-width="0.343128" stroke-linecap="round" stroke-linejoin="bevel"/>
<path d="M151.193 214.274V244.525" stroke="#FFBF00" stroke-width="0.418981" stroke-linejoin="bevel"/>
<path d="M151.105 124.126V167.033" stroke="#FFBF00" stroke-width="0.49944" stroke-linejoin="bevel"/>
<path d="M147.984 123.78L148.071 129.414C148.071 129.414 149.978 127.94 151.885 129.414L152.145 123.866L147.984 123.78Z" fill="#8A5B29"/>
<path d="M136.283 101.155C136.543 101.935 136.11 102.802 137.497 103.409C139.924 103.929 140.444 103.322 141.831 102.889C141.224 103.755 139.924 106.529 138.537 109.303C136.63 112.337 136.37 114.764 137.67 114.157C147.118 116.584 156.653 114.85 166.188 115.197C162.894 101.588 157.607 83.8189 143.391 91.8802C140.357 94.0472 136.977 95.6941 136.283 101.155Z" fill="#F82323"/>
<path d="M137.322 103.322C138.536 104.015 140.269 104.015 141.743 103.062C144.777 99.4213 147.897 97.9478 150.584 97.6011C148.157 97.1677 145.47 95.8675 141.916 100.982C140.443 101.242 138.883 102.022 137.322 103.322Z" fill="#D40000"/>
<path d="M142.004 109.13C137.67 111.903 147.292 107.223 155.786 108.35C153.619 105.923 151.279 103.842 142.004 109.13Z" fill="#D40000"/>
<path d="M136.89 100.895L136.976 103.148C136.716 107.309 133.249 109.303 130.995 107.396C129.002 103.668 134.203 101.241 136.89 100.895Z" fill="#F82323"/>
<path d="M133.161 129.326L132.814 117.711C133.681 115.371 135.502 114.417 137.495 113.984C145.903 112.337 154.918 112.597 164.279 114.244C166.273 114.764 168.007 115.718 168.613 117.798C168.007 120.832 169.393 127.766 166.966 130.02C166.966 129.846 167.053 129.413 166.966 129.24C157.258 122.045 138.709 124.212 133.161 129.326Z" fill="#FF2A2A"/>
<path d="M151.109 166.946L151.196 192.864" stroke="#FFBF00" stroke-width="0.479069" stroke-linejoin="bevel"/>
<path d="M131.693 212.799C132.734 211.933 133.514 210.979 134.034 210.112L138.281 209.939C137.588 211.413 136.547 212.713 134.987 213.58C133.514 214.273 132.56 213.84 131.693 212.799Z" fill="#E68A5D"/>
<path d="M131.52 212.973L131.606 212.626C132.56 211.759 133.34 210.892 133.86 210.026L134.033 209.852L138.281 209.766L138.541 210.026C137.761 211.586 136.72 212.886 135.073 213.753C133.513 214.533 132.386 214.1 131.52 212.973ZM134.38 213.58L134.9 213.406L135.94 212.713C136.547 212.193 137.067 211.586 137.5 210.892L137.934 210.199L134.207 210.286L133.253 211.586L132.04 212.799L131.866 212.626C132.56 213.493 133.34 213.926 134.38 213.58Z" fill="#7F4100"/>
<path d="M91.1289 207.425L91.2156 207.165C105.604 204.825 121.814 201.271 136.289 197.197C138.37 195.724 140.797 194.597 143.31 193.73C146.864 193.903 150.158 194.337 153.365 194.77L167.928 212.193L166.714 213.753L167.321 214.447L165.414 215.747L163.507 214.793C163.16 216.614 161.86 216.874 160.213 216.527C158.913 217.74 157.613 218.26 156.139 217.307L153.712 218.521L148.858 216.96C144.09 215.053 139.583 212.886 135.249 210.546L99.1035 223.808L97.89 221.988C94.9428 216.96 93.0359 212.626 91.1289 207.425Z" fill="#F1BD89"/>
<path d="M99.5355 223.894C113.404 218.607 120.512 214.88 135.161 210.372H135.334C138.628 212.106 141.922 213.753 145.389 215.313L148.943 216.787L153.711 218.26L156.051 217.133H156.224C157.611 218 158.825 217.567 160.038 216.353L160.212 216.267C161.859 216.613 162.985 216.353 163.332 214.706L163.592 214.533L165.412 215.486L167.666 212.193L153.19 195.03L148.423 194.337C147.643 194.25 146.776 194.163 145.909 194.163L143.309 193.903L141.489 194.597C139.668 195.377 137.935 196.243 136.461 197.37H136.375C121.552 201.618 105.516 204.825 90.8675 207.165L90.6074 206.732C103.176 204.738 116.438 202.224 129.007 198.931L136.201 197.024L137.761 195.983C139.495 194.943 141.315 194.163 143.222 193.47H143.309C146.95 193.73 150.157 194.076 153.364 194.597L153.537 194.683L168.099 212.019V212.279L167.493 214.36L165.499 215.92H165.326L163.679 215.053L163.592 215.486C163.159 216.527 162.292 216.873 161.338 216.873L160.298 216.7L159.345 217.48C158.478 218 157.524 218.174 156.571 217.827L156.138 217.567L153.797 218.694H153.711L148.77 217.133C145.129 215.747 141.749 214.1 138.455 212.453L135.248 210.806L129.007 212.799C116.438 217.22 111.931 219.994 99.7088 224.588L99.5355 223.894Z" fill="#7F4100"/>
<path d="M96.416 219.474L131.868 209.246L135.075 209.072L153.105 216.873C153.538 216.873 154.145 216.613 154.405 215.92C154.838 216.353 155.272 216.613 155.445 216.96L155.705 217.307L153.712 218.26L148.944 216.787L145.39 215.313C141.923 213.753 138.629 212.106 135.335 210.372H135.162C129.268 212.193 123.46 214.273 117.826 216.613L99.5365 224.068L96.416 219.474Z" fill="#E68A5D"/>
<path d="M153.537 214.706C154.837 214.36 156.311 213.753 157.178 212.799C158.044 213.666 158.825 214.706 159.431 215.66L159.865 216.527C159.691 216.7 159.431 216.96 159.085 217.133C157.351 218.867 155.097 216.353 153.537 214.706Z" fill="#E68A5D"/>
<path d="M160.817 216.354H160.557L160.297 216.44C159.17 215.574 157.87 213.32 157.09 212.366C158.217 212.54 159.257 211.846 160.384 210.459C161.25 211.326 162.291 212.973 163.071 214.187L163.331 214.707C163.071 216.18 162.117 216.527 160.817 216.354Z" fill="#E68A5D"/>
<path d="M165.412 215.487L163.938 214.793C162.118 213.06 161.165 211.499 159.518 209.592C160.818 209.419 161.945 208.465 162.898 207.425C164.285 209.766 167.145 211.153 166.972 214.36L166.799 214.533L165.412 215.487Z" fill="#E68A5D"/>
<path d="M155.966 217.48L149.205 211.586L149.552 211.239L156.226 217.134L155.966 217.48Z" fill="#7F4100"/>
<path d="M150.852 207.252L151.112 206.992C153.279 209.679 157.526 211.586 160.386 216.353L159.953 216.527C157.093 211.672 153.192 210.286 150.852 207.252Z" fill="#7F4100"/>
<path d="M155.271 205.779L155.618 205.519C157.785 208.812 161.252 209.939 163.766 214.62L163.419 214.88C160.819 210.113 157.525 209.246 155.271 205.779Z" fill="#7F4100"/>
<path d="M167.147 213.667C165.673 210.893 163.853 208.119 161.079 205.345C158.999 204.045 157.439 202.658 156.398 201.271C154.925 200.578 153.798 199.884 152.931 199.191C151.631 199.104 150.851 198.758 150.071 198.411C148.337 199.538 146.69 200.405 144.957 201.098C142.963 200.838 141.576 200.405 142.096 199.018C143.396 197.804 144.61 196.157 145.65 194.164C145.997 193.643 146.69 193.383 147.904 193.037C148.771 192.95 151.891 192.95 154.578 193.037C157.005 193.99 163.766 197.804 168.014 201.271C180.842 203.785 191.244 207.426 204.593 210.286L206.413 210.633L204.766 214.447C202.946 219.214 200.519 222.595 198.178 226.149C186.303 220.861 177.635 216.614 167.147 213.667Z" fill="#F1BD89"/>
<path d="M169.833 214.273L167.233 213.493L166.106 211.499L165.152 209.939L201.991 220.427L200.431 222.681C200.344 223.894 198.871 224.848 198.611 226.061L197.831 225.628C188.123 221.294 178.588 216.96 169.833 214.273Z" fill="#E68A5D"/>
<path d="M163.506 207.685L163.419 207.599C162.726 206.732 162.032 205.952 161.252 205.172C159.172 203.872 157.612 202.485 156.572 201.184L156.485 201.098C155.011 200.404 153.885 199.711 153.104 199.017L152.931 198.931C151.718 198.844 150.937 198.584 150.157 198.237H149.984C149.117 198.757 148.25 199.277 147.384 199.711L145.823 200.404L145.477 200.144C146.863 199.017 149.03 197.977 148.684 196.244C149.984 196.85 152.931 197.977 154.405 197.544C155.185 197.284 155.618 199.104 156.312 199.191C156.312 201.791 162.813 205.345 166.713 204.132L163.506 207.685Z" fill="#E68A5D"/>
<path d="M135.074 213.493L141.835 210.286C143.135 210.632 144.002 211.239 144.002 212.973C142.615 214.273 140.968 215.573 138.715 216.527C136.028 216.267 135.161 215.053 135.074 213.493Z" fill="#F1BD89"/>
<path d="M134.814 213.493L134.988 213.233L141.749 210.112H141.922C143.222 210.459 144.263 211.152 144.176 212.973L144.089 213.146C142.702 214.446 141.055 215.747 138.802 216.7H138.715C135.855 216.527 134.988 215.226 134.814 213.493ZM138.715 216.267L140.189 215.573C141.142 215.053 142.009 214.446 142.702 213.753L143.743 212.886V212.453C143.656 211.586 143.222 211.152 142.616 210.806L141.836 210.546L135.335 213.58V214.013C135.508 215.053 136.201 215.833 137.848 216.18L138.715 216.267Z" fill="#7F4100"/>
<path d="M138.715 216.267L137.848 216.18C136.201 215.833 135.507 215.053 135.334 214.013V213.579L137.674 212.453L137.934 212.973C138.541 214.186 139.581 215.313 141.315 214.793V214.88L140.188 215.573L138.715 216.267Z" fill="#E68A5D"/>
<path d="M139.844 215.92L144.698 211.586C146.345 211.066 147.298 212.106 147.732 213.06L144.004 218.347C141.837 218.434 140.711 217.567 139.844 215.92Z" fill="#F1BD89"/>
<path d="M139.67 216.007L139.757 215.747L144.524 211.413L144.611 211.326C146.431 210.806 147.471 212.019 147.905 212.973V213.233L144.177 218.52L144.004 218.607C141.75 218.694 140.537 217.74 139.67 216.007ZM143.831 218.174L147.471 213.06L147.124 212.54C146.691 212.019 146.084 211.586 145.304 211.673L144.784 211.759L140.19 216.007L140.71 216.874C141.317 217.654 142.097 218 143.224 218.087L143.831 218.174Z" fill="#7F4100"/>
<path d="M143.828 218.174L143.221 218.087C142.094 218 141.314 217.654 140.708 216.874L140.188 216.007L141.488 214.707L141.921 215.313C142.441 216.007 143.221 216.614 144.175 216.787L144.868 216.7L143.828 218.174Z" fill="#E68A5D"/>
<path d="M144.088 218.521L147.728 213.32C148.509 213.407 149.289 213.753 149.895 214.793C149.549 216.44 148.509 218.087 146.862 219.821C145.301 219.561 144.175 219.214 144.088 218.521Z" fill="#F1BD89"/>
<path d="M143.914 218.607V218.434L147.555 213.233L147.728 213.146C148.595 213.146 149.462 213.58 150.068 214.62L150.155 214.793C149.808 216.527 148.681 218.261 147.035 219.908L146.861 219.994C145.388 219.821 144.001 219.474 143.914 218.607ZM146.775 219.561L147.815 218.434C148.508 217.567 149.028 216.787 149.375 215.92L149.722 214.793L149.288 214.273C148.942 213.927 148.595 213.753 148.248 213.667L147.815 213.58L144.347 218.607L144.521 218.867C144.694 219.041 145.128 219.214 145.821 219.387L146.775 219.561Z" fill="#7F4100"/>
<path d="M146.777 219.561L145.823 219.387C145.13 219.214 144.696 219.041 144.523 218.867L144.35 218.607L145.563 216.874L145.65 216.96C146.17 217.48 146.777 217.914 147.47 218.087H148.077L147.817 218.434L146.777 219.561Z" fill="#E68A5D"/>
<path d="M166.885 213.84C165.845 211.76 164.545 209.679 162.811 207.599L160.991 205.519L159.517 204.565C158.564 203.872 157.784 203.178 157.09 202.485L156.31 201.445L155.27 200.925C154.577 200.578 153.97 200.231 153.536 199.884L152.843 199.364L151.976 199.278C151.716 199.191 151.456 199.191 151.283 199.104L150.069 198.671L147.642 200.058C146.775 200.491 145.909 200.925 145.042 201.271H144.955C143.135 201.098 141.228 200.578 141.921 198.931L142.008 198.844C143.221 197.717 144.348 196.071 145.475 194.077V193.99C145.909 193.47 146.689 193.123 147.902 192.863C148.769 192.777 151.889 192.777 154.577 192.863H154.663C156.83 193.643 162.291 196.677 166.452 199.798L168.099 201.098L174.513 202.485C183.788 204.565 193.149 207.339 202.771 209.593L206.671 210.546L206.325 210.806L204.418 210.373C191.936 207.599 179.974 203.872 168.012 201.531L167.925 201.445C163.938 198.151 157.697 194.684 155.01 193.47L154.49 193.297L152.496 193.21C150.849 193.21 149.202 193.21 148.336 193.21L147.989 193.297L147.209 193.47C146.689 193.643 146.342 193.817 146.082 193.99L145.822 194.25L145.042 195.724C144.435 196.677 143.828 197.457 143.221 198.151L142.355 199.104L142.268 199.451C142.181 200.144 142.875 200.491 144.262 200.751L144.955 200.838L147.382 199.711C148.249 199.278 149.116 198.758 149.982 198.238H150.156C150.936 198.584 151.716 198.844 152.93 198.931L153.103 199.018C153.883 199.711 155.01 200.405 156.483 201.098L156.57 201.185C157.61 202.485 159.171 203.872 161.251 205.172C163.331 207.252 164.891 209.419 166.105 211.5L167.232 213.493L169.832 214.273C178.587 216.96 188.902 221.554 198.61 225.975L198.35 226.322C188.208 221.988 178.674 217.22 166.885 213.84Z" fill="#7F4100"/>
<path d="M144.089 197.024L146.256 197.544C145.736 198.758 144.176 200.491 142.355 199.104C144.956 196.33 143.569 197.717 144.089 197.024Z" fill="#FFE6D5"/>
<path d="M140.273 211.586C141.574 213.32 141.747 213.32 141.747 213.32C142.18 212.973 142.7 212.713 142.787 212.193C142.614 211.76 142.7 211.413 141.66 210.979L140.273 211.586Z" fill="#FAE4D4"/>
<path d="M144.088 212.973C145.301 214.186 145.735 214.1 145.995 214.273C146.342 213.926 146.428 213.666 146.602 213.493C146.775 213.233 146.775 212.799 146.602 212.539C146.255 212.193 145.475 211.759 145.128 212.019C144.781 212.106 144.521 212.366 144.088 212.973Z" fill="#FAE4D4"/>
<path d="M147.297 214.88C148.077 215.66 148.684 215.66 148.77 215.66C148.944 215.487 149.204 215.227 149.291 214.793C148.684 214.013 148.164 214.1 147.817 214.1L147.297 214.88Z" fill="#FFE6D5"/>
<path d="M164.457 214.447C164.717 213.32 166.191 213.32 166.191 213.32C166.537 213.84 166.537 214.013 166.537 214.273C166.277 214.533 166.104 214.707 165.497 215.053C165.237 214.88 164.977 214.967 164.457 214.447Z" fill="#FFCCAA"/>
<path d="M215.861 166.947C215.861 215.574 186.303 255.014 149.811 255.014C113.232 255.014 83.6738 215.574 83.6738 166.947C83.6738 118.232 113.232 78.793 149.811 78.793C186.303 78.793 215.861 118.232 215.861 166.947Z" stroke="#F2CE67" stroke-width="1.40626"/>
<path d="M158.13 65.1836C155.789 70.0377 160.817 66.1371 159.603 68.5641C160.557 67.0906 166.971 69.5176 167.058 68.044L158.13 65.1836Z" fill="#66A72E" stroke="#0B572F" stroke-width="0.698949" stroke-linecap="round" stroke-linejoin="round"/>
<path d="M165.585 63.7967C150.763 57.6424 144.522 65.0969 127.186 67.8706V69.0842C128.226 68.8241 148.249 68.304 147.642 69.0842L164.025 72.638C163.851 70.2977 162.118 68.2174 158.13 66.3971C160.124 65.3569 162.811 64.5768 165.585 63.7967Z" fill="#66A72E" stroke="#0B572F" stroke-width="0.698949" stroke-linecap="round" stroke-linejoin="round"/>
<path d="M127.533 68.651V68.1309L130.047 67.6975H130.134C133.514 67.7842 136.895 67.6975 140.102 67.6108C147.643 65.1838 155.271 64.0569 162.985 63.7969H164.286L161.425 64.6637C160.125 65.0971 158.998 65.6172 157.958 66.1372C157.785 66.1372 157.698 66.3106 157.785 66.3973V66.484L156.138 66.8307C153.971 67.2641 151.63 67.5241 149.203 67.6975C154.577 67.9575 159.432 68.911 163.072 71.5114L163.505 71.8581L163.592 72.2048L147.903 68.8243L147.73 68.651C146.429 68.0442 132.387 68.3909 128.227 68.651H127.533Z" fill="#007F01"/>
<path d="M182.834 79.3124C175.119 76.8853 166.798 76.0185 162.811 66.9171C172.605 62.063 178.153 69.0841 182.747 79.2257L182.834 79.3124Z" fill="#66A72E"/>
<path d="M182.834 79.3124C175.119 76.8853 166.798 76.0185 162.811 66.9171C172.605 62.063 178.153 69.0841 182.747 79.2257" stroke="#0B572F" stroke-width="0.517968" stroke-linecap="round" stroke-linejoin="round"/>
<path d="M164.198 69.0839L163.244 67.177L163.591 67.0903C168.272 66.9169 174.513 70.9909 181.967 78.7054L177.026 77.2319C171.999 75.845 167.318 74.0247 164.198 69.0839Z" fill="#007F01"/>
<path d="M228.859 188.703C224.525 181.248 218.891 174.487 220.364 164.085C229.726 167.206 230.419 177.087 228.859 188.616V188.703Z" fill="#66A72E"/>
<path d="M228.859 188.703C224.525 181.248 218.891 174.487 220.364 164.085C229.726 167.206 230.419 177.087 228.859 188.616" stroke="#0B572F" stroke-width="0.532299" stroke-linecap="round" stroke-linejoin="round"/>
<path d="M220.364 166.859L220.537 164.692L220.797 164.779L222.098 168.073C224.265 173.707 226.172 179.515 227.905 185.409L228.599 187.663L225.651 182.895C222.704 178.041 220.191 173.187 220.364 166.859Z" fill="#007F01"/>
<path d="M160.556 74.2853C152.235 74.4586 143.74 76.1922 136.893 69.3445C145.127 62.1501 152.928 66.6574 160.47 74.1986L160.556 74.2853Z" fill="#66A72E"/>
<path d="M160.556 74.2853C152.235 74.4586 143.74 76.1922 136.893 69.3445C145.127 62.1501 152.928 66.6574 160.47 74.1986" stroke="#0B572F" stroke-width="0.530149" stroke-linecap="round" stroke-linejoin="round"/>
<path d="M138.974 70.8181L137.5 69.4312L137.76 69.2578L140.967 69.7779C146.601 70.7314 152.062 71.9449 157.523 73.4185L159.603 73.9385L154.229 74.1986C148.855 74.4586 143.568 74.1986 138.974 70.8181Z" fill="#007F01"/>
<path d="M79.8608 166.859C78.5606 177.694 79.2541 189.049 69.0258 196.677C61.2246 184.802 68.5057 175.527 79.7742 166.946L79.8608 166.859Z" fill="#66A72E"/>
<path d="M79.8608 166.859C78.5606 177.694 79.2541 189.049 69.0258 196.677C61.2246 184.802 68.5057 175.527 79.7742 166.946" stroke="#0B572F" stroke-width="0.69291" stroke-linecap="round" stroke-linejoin="round"/>
<path d="M71.365 194.25L69.3714 195.983L69.1113 195.55L70.3249 191.476C72.5785 184.455 75.2656 177.52 78.1261 170.673L79.2529 168.072L78.5595 175.093C77.866 182.114 76.6525 188.876 71.365 194.25Z" fill="#007F01"/>
<path d="M147.12 60.5892C131.171 59.549 130.131 67.7837 114.441 76.0183L114.788 77.1451C115.742 76.625 134.551 69.6039 134.204 70.5574L150.847 68.6505C149.98 66.5701 147.727 65.0966 143.393 64.6632C144.953 63.0162 144.779 62.1494 147.12 60.5892Z" fill="#66A72E" stroke="#0B572F" stroke-width="0.712973" stroke-linecap="round" stroke-linejoin="round"/>
<path d="M115.048 76.7118L114.875 76.1918L117.129 74.8916H117.215C120.423 73.8514 123.543 72.7246 126.664 71.5977C130.304 66.6569 135.332 63.1031 146.513 60.7627L145.3 61.7162C144.26 62.583 143.913 63.9699 143.133 64.75C142.959 64.9233 142.959 64.6633 143.046 64.75V64.8367L141.659 65.7035C139.666 66.7436 137.585 67.7838 135.332 68.7373C140.532 67.2637 145.3 66.6569 149.634 67.8705L150.154 68.0438L150.327 68.3905L134.378 70.2108L134.205 70.1242C132.818 69.9508 119.556 74.8049 115.655 76.4518L115.048 76.7118Z" fill="#007F01"/>
<path d="M141.225 73.1581C132.297 75.2384 123.109 78.4456 116.781 75.4985C126.403 68.7374 134.031 69.9509 141.225 73.1581Z" fill="#66A72E" stroke="#0B572F" stroke-width="0.448974" stroke-linecap="round" stroke-linejoin="round"/>
<path d="M118.69 75.9317L117.303 75.4116L117.563 75.2383L120.943 74.8049C126.751 74.1114 132.385 73.678 138.019 73.3313L140.186 73.2446L134.465 74.6315C128.658 76.0184 123.197 77.1452 118.69 75.9317Z" fill="#007F01"/>
<path d="M105.514 83.5601C112.015 73.7652 120.596 65.2706 131.951 58.4229C127.53 75.7589 120.509 69.8646 110.454 82.5199L105.514 83.5601Z" fill="#66A72E" stroke="#0B572F" stroke-width="0.754636" stroke-linecap="round" stroke-linejoin="round"/>
<path d="M108.546 84.6001L107.506 84.0801L131.256 59.4629L130.736 61.2832C126.662 74.1118 124.062 68.1309 110.193 82.5198L108.546 84.6001Z" fill="#007F01"/>
<path d="M105.774 69.604C102.133 81.0458 99.2728 93.181 92.3384 99.682C91.9916 85.6398 98.0593 76.9718 105.774 69.604Z" fill="#66A72E" stroke="#0B572F" stroke-width="0.638554" stroke-linecap="round" stroke-linejoin="round"/>
<path d="M92.5977 98.9022V98.4688L94.3313 94.4815C97.3651 87.287 100.572 80.2659 103.866 73.4182L104.906 71.3379L102.826 78.0989C100.312 85.9868 97.7118 93.3546 93.3778 98.2087L92.5977 98.9022Z" fill="#007F01"/>
<path d="M117.044 69.0845C111.063 78.1859 105.776 88.5875 97.541 91.1012C100.055 77.3191 107.856 72.1183 117.044 69.0845Z" fill="#66A72E" stroke="#0B572F" stroke-width="0.550622" stroke-linecap="round" stroke-linejoin="round"/>
<path d="M97.8887 90.7542L97.9754 90.2341L100.576 87.1136C105.083 81.7394 109.677 76.712 114.358 71.7712L116.178 69.8643L112.364 75.8452C108.377 82.1728 104.216 87.9804 98.9288 90.3208L97.8887 90.7542Z" fill="#007F01"/>
<path d="M121.636 82.1732C111.928 88.4141 102.393 96.1287 93.4648 95.2619C101.873 83.1266 111.581 81.3064 121.636 82.1732Z" fill="#66A72E" stroke="#0B572F" stroke-width="0.57693" stroke-linecap="round" stroke-linejoin="round"/>
<path d="M95.98 95.0017H93.9863L94.2464 94.5683L98.147 92.6613C104.735 89.3675 111.322 86.4204 117.91 83.6466L120.424 82.6064L114.183 86.7671C107.942 90.9277 101.874 94.5683 95.98 95.0017Z" fill="#007F01"/>
<path d="M95.6323 87.1138C92.5118 96.9086 90.0848 107.397 84.0172 113.031C83.7571 100.896 88.9579 93.4414 95.6323 87.1138Z" fill="#66A72E" stroke="#0B572F" stroke-width="0.543355" stroke-linecap="round" stroke-linejoin="round"/>
<path d="M84.3633 112.338V111.991L85.7502 108.524C88.4372 102.283 91.211 96.3019 93.9848 90.4077L94.8516 88.5874L93.0313 94.4817C91.1243 100.549 89.1307 106.357 85.9235 110.517L84.3633 112.338Z" fill="#007F01"/>
<path d="M87.3096 87.2871C87.3963 96.5619 88.6098 106.357 83.9291 111.991C78.9883 100.809 82.1088 93.6148 87.3096 87.2871Z" fill="#66A72E" stroke="#0B572F" stroke-width="0.475281" stroke-linecap="round" stroke-linejoin="round"/>
<path d="M84.0152 111.471L83.8418 111.124L84.1885 107.657C84.7953 101.763 85.6621 96.0419 86.7022 90.4077L87.049 88.2407L87.2223 94.3083C87.3957 100.636 87.2223 106.617 84.5352 110.778L84.0152 111.471Z" fill="#007F01"/>
<path d="M106.987 92.748C99.5321 101.156 92.6844 111.038 83.9297 112.511C88.5237 98.8157 97.1918 94.5683 106.987 92.748Z" fill="#66A72E" stroke="#0B572F" stroke-width="0.570583" stroke-linecap="round" stroke-linejoin="round"/>
<path d="M84.3633 112.164L84.5366 111.644L87.6571 108.87C93.0313 104.016 98.4055 99.509 103.866 95.0883L105.947 93.4414L101.266 98.9889C96.2385 104.883 91.211 110.171 85.4901 111.904L84.3633 112.164Z" fill="#007F01"/>
<path d="M78.1222 104.796C77.4288 111.817 84.7966 117.105 74.135 124.299C71.7946 117.278 71.3612 109.911 78.1222 104.796Z" fill="#66A72E" stroke="#0B572F" stroke-width="0.712973" stroke-linecap="round" stroke-linejoin="round"/>
<path d="M77.0811 106.096L77.1677 106.01L77.6878 105.576V106.096C77.8612 112.337 82.9753 116.758 75.6942 122.739L74.9141 123.346L75.0874 122.826C76.821 117.451 75.8675 112.337 76.821 107.396L77.0811 106.096Z" fill="#007F01"/>
<path d="M69.5414 148.57C70.8416 142.589 72.1418 136.521 71.4483 130.887C67.0276 122.566 70.2348 119.185 69.2813 111.731C72.4018 114.071 75.0889 117.365 75.869 120.919C76.9959 115.978 79.7696 111.384 82.1967 107.917C83.2368 111.558 84.277 115.111 84.1036 119.099C87.3975 116.065 90.6046 115.718 93.8985 115.458C83.8436 123.086 90.8647 128.287 75.609 139.555L71.9684 150.304L69.5414 148.57Z" fill="#66A72E" stroke="#0B572F" stroke-width="0.712973" stroke-linecap="round" stroke-linejoin="round"/>
<path d="M71.5351 149.436L73.7888 138.861C81.7634 132.794 84.2771 120.399 91.2982 116.325L91.9916 115.978H92.8584L91.9916 116.671C84.2771 123.606 89.738 128.72 75.4357 139.295C75.3491 139.382 75.2624 139.382 75.2624 139.468L71.9685 149.263L71.5351 149.436ZM69.7148 112.597L71.2751 113.898C73.3554 115.978 75.0023 118.405 75.5224 121.005C75.5224 121.265 75.8691 121.352 76.0425 121.179V121.265C77.256 125.079 77.0827 129.933 74.7423 136.868C73.7888 129.24 72.922 122.132 70.6683 115.111L69.7148 112.597ZM82.0234 108.783V108.697L82.5435 110.43L82.8902 112.164C83.3236 114.071 83.5837 115.891 83.6703 117.712L83.757 118.318V119.098V119.185V119.445C83.8437 125.253 81.9367 130.107 76.0425 133.227C78.4695 127.073 80.1165 120.832 81.1566 114.591L82.0234 108.783Z" fill="#007F01"/>
<path d="M58.9648 133.661C64.859 149.61 72.6602 165.733 69.3664 179.168C55.4975 163.826 55.4109 148.657 58.9648 133.661Z" fill="#66A72E" stroke="#0B572F" stroke-width="0.712973" stroke-linecap="round" stroke-linejoin="round"/>
<path d="M69.1064 178.388L67.1995 176.134L66.4193 175.094L65.2925 171.454C61.912 160.619 59.9183 149.87 59.1382 139.295L58.9648 135.655L59.0515 134.875L63.2122 145.71C67.3728 156.631 70.84 167.206 69.4531 176.568L69.1064 178.388Z" fill="#007F01"/>
<path d="M83.5814 140.076C82.7146 148.57 75.0868 157.758 66.3321 165.213C62.6915 157.758 76.8204 147.964 83.5814 140.076Z" fill="#66A72E" stroke="#0B572F" stroke-width="0.712973" stroke-linecap="round" stroke-linejoin="round"/>
<path d="M66.5061 164.606L66.2461 163.999L83.062 141.462V141.549C81.5885 148.483 76.041 155.765 69.2799 162.092L66.5061 164.606Z" fill="#007F01"/>
<path d="M68.6739 132.535C70.841 145.71 74.8282 159.579 68.6739 168.767C58.6191 154.118 61.9129 142.936 68.6739 132.535Z" fill="#66A72E" stroke="#0B572F" stroke-width="0.712973" stroke-linecap="round" stroke-linejoin="round"/>
<path d="M68.6746 168.073L68.3279 167.64L68.1545 162.526C67.8945 153.945 68.0678 145.537 68.4145 137.215L68.5879 133.921L70.1481 142.503C71.7084 151.604 72.7485 160.185 69.368 166.86L68.6746 168.073Z" fill="#007F01"/>
<path d="M77.6009 139.815C75.4339 152.904 74.1337 166.86 68.2394 174.921C66.2458 159.318 71.0132 148.917 77.6009 139.815Z" fill="#66A72E" stroke="#0B572F" stroke-width="0.712973" stroke-linecap="round" stroke-linejoin="round"/>
<path d="M68.4988 173.881L68.4121 173.361L69.539 168.853C71.6193 160.445 73.873 152.297 76.2133 144.236L76.9068 142.156L75.6932 149.61C74.3064 158.625 72.6594 167.206 68.9322 173.101L68.4988 173.881Z" fill="#007F01"/>
<path d="M57.6641 167.033C66.5921 174.661 71.0995 189.83 72.7464 204.825C61.3913 202.832 61.3046 180.295 57.6641 167.033Z" fill="#66A72E" stroke="#0B572F" stroke-width="0.958752" stroke-linecap="round" stroke-linejoin="round"/>
<path d="M72.139 204.132L71.2722 203.872L58.877 168.853C65.638 175.701 69.6253 187.229 71.5323 199.278L72.139 204.132Z" fill="#007F01"/>
<path d="M73.3538 211.673C70.1466 201.185 66.7661 203.612 71.8802 193.383C72.0536 186.536 78.4679 182.982 60.7852 161.225C66.246 174.834 64.4257 188.616 68.413 206.299C68.8464 208.119 69.1065 210.633 68.4997 212.54L73.3538 211.673Z" fill="#66A72E" stroke="#0B572F" stroke-width="0.712973" stroke-linecap="round" stroke-linejoin="round"/>
<path d="M62.9512 164.519L64.8581 167.206C71.2725 176.308 74.7397 180.208 71.5325 193.817L62.9512 164.519Z" fill="#007F01"/>
<path d="M64.7754 205.778C73.3567 212.626 83.6717 218.607 83.7583 228.055C68.3293 225.195 64.9488 216.267 64.7754 205.778Z" fill="#66A72E" stroke="#0B572F" stroke-width="0.712973" stroke-linecap="round" stroke-linejoin="round"/>
<path d="M83.3256 227.622L82.8922 227.535L80.1184 224.588C75.4377 219.387 71.1037 214.1 66.9431 208.812L65.3828 206.645L71.1037 211.066C77.0846 215.66 82.3721 220.34 83.2389 226.408L83.3256 227.622Z" fill="#007F01"/>
<path d="M81.5908 202.484C86.3582 213.059 86.8783 225.628 79.5104 231.869C71.6226 218.78 73.5295 209.505 81.6775 202.484H81.5908Z" fill="#66A72E"/>
<path d="M81.5908 202.484C86.3582 213.059 86.8783 225.628 79.5104 231.869C71.6226 218.78 73.5295 209.505 81.6775 202.484" stroke="#0B572F" stroke-width="0.712973" stroke-linecap="round" stroke-linejoin="round"/>
<path d="M79.5979 231.349L79.3379 230.916L79.858 226.928L81.5049 202.918C85.3188 212.019 87.0524 222.161 80.7248 230.482L79.5979 231.349Z" fill="#05933F"/>
<path d="M95.8917 242.617C86.2702 236.983 84.6233 229.182 81.0694 218.347C79.4225 213.059 74.2217 205.258 69.1076 204.044C70.2344 208.552 71.3613 213.059 73.4416 217.567C69.6277 214.879 65.6404 212.106 61.5664 209.419C66.4205 222.767 74.135 233.256 88.6106 241.837C90.2575 242.877 92.0778 244.611 93.118 246.431L95.8917 242.617Z" fill="#66A72E" stroke="#0B572F" stroke-width="0.712973" stroke-linecap="round" stroke-linejoin="round"/>
<path d="M69.8002 205.258L69.6268 204.651L70.8404 205.085C75.1744 207.425 79.2483 213.839 80.7219 218.434C83.8424 227.968 85.4893 235.249 92.5104 240.71L93.4639 241.404L92.8571 243.137C81.0686 230.569 80.8086 217.133 70.4936 205.952L69.8002 205.258ZM62.3457 210.546V210.372L67.3732 213.839C69.3668 215.14 71.2738 216.527 73.1807 217.827C73.2674 217.913 73.3541 217.913 73.4408 217.913H73.6141L74.9143 221.207C76.4746 224.848 78.4682 228.402 80.6352 232.042C74.9143 223.894 70.8404 217.913 62.7791 210.892L62.3457 210.546Z" fill="#007F01"/>
<path d="M77.166 237.07C87.741 240.884 99.7895 243.485 103.083 252.499C87.3076 254.666 80.9799 247.125 77.166 237.07Z" fill="#66A72E" stroke="#0B572F" stroke-width="0.726588" stroke-linecap="round" stroke-linejoin="round"/>
<path d="M78.1197 237.764L85.1408 240.191C92.4219 242.705 99.0963 245.478 102.043 251.026L102.563 252.239H102.043L98.4028 250.332C92.0752 246.778 86.0943 243.138 80.3734 239.324L78.1197 237.764ZM77.6863 237.504L77.5996 237.244L77.773 237.504H77.6863Z" fill="#007F01"/>
<path d="M96.7542 230.829C102.909 239.757 110.97 248.512 108.196 257.527C94.3272 250.505 93.8071 240.971 96.7542 230.829Z" fill="#66A72E" stroke="#0B572F" stroke-width="0.712973" stroke-linecap="round" stroke-linejoin="round"/>
<path d="M107.937 257.006L107.503 256.746L105.77 253.192C102.822 246.865 100.309 240.624 97.9684 234.383L97.1016 231.956L101.262 237.763C105.596 243.831 109.237 249.725 108.197 255.793L107.937 257.006Z" fill="#007F01"/>
<path d="M120.94 265.154L108.025 254.059L89.6483 234.383C91.902 242.531 94.7625 250.419 102.39 256.4C96.6694 253.366 89.6483 251.806 82.3672 250.679C89.3883 256.746 97.1895 261.514 107.418 261.514L117.993 266.108L120.94 265.154Z" fill="#66A72E" stroke="#0B572F" stroke-width="0.712973" stroke-linecap="round" stroke-linejoin="round"/>
<path d="M90.4278 235.77L107.677 254.233L107.764 254.32L120.246 264.981L119.639 265.241L118.946 264.808C107.07 257.44 97.5356 248.165 91.5547 237.85L90.4278 235.77ZM83.5801 251.286L87.654 251.979C92.9415 253.019 97.969 254.406 102.216 256.747C102.39 256.833 102.563 256.747 102.65 256.66L102.736 256.4L104.73 258.134C98.6624 257.787 91.2079 255.1 84.4469 251.719L83.5801 251.286Z" fill="#007F01"/>
<path d="M178.929 292.285C173.555 286.131 156.565 275.556 148.157 273.736C149.544 272.435 134.982 272.002 119.033 272.089L102.13 266.888L99.7031 265.848C108.458 261.947 117.906 262.207 127.267 265.848C121.113 259.693 115.306 253.799 116.866 249.205C124.234 252.759 133.248 257.353 138.883 264.981L147.897 272.349L156.479 273.389C148.331 273.562 175.115 279.456 184.476 282.49C177.282 287.344 185.343 288.645 178.929 292.285Z" fill="#66A72E" stroke="#0B572F" stroke-width="0.712973" stroke-linecap="round" stroke-linejoin="round"/>
<path d="M147.897 272.782L129.781 269.835C123.366 266.541 114.438 266.368 105.944 266.108L101.87 266.541L100.223 265.761C107.244 262.814 116.605 261.514 127.18 266.194C127.44 266.368 127.787 266.021 127.614 265.674L127.527 265.588L128.654 266.281C129.261 266.541 129.867 266.888 130.387 267.321C132.728 268.795 136.455 269.055 140.009 269.228C133.768 263.421 125.707 260.473 121.113 255.273L117.299 249.812L117.125 249.725L123.8 252.846C128.307 256.226 133.248 257.7 138.622 265.067L138.275 264.807L147.723 272.609C147.723 272.695 147.81 272.695 147.897 272.695V272.782Z" fill="#007F01"/>
<path d="M179.188 292.198C175.808 288.558 158.992 276.596 153.271 275.556C151.364 275.209 149.457 274.862 147.55 274.602L147.203 274.516L150.324 274.949C157.951 275.816 166.966 279.803 179.101 287.431L179.188 292.198Z" fill="#007F01"/>
<path d="M193.496 69.604C197.137 81.0458 199.997 93.181 206.932 99.682C207.278 85.6398 201.211 76.9718 193.496 69.604Z" fill="#66A72E" stroke="#0B572F" stroke-width="0.638554" stroke-linecap="round" stroke-linejoin="round"/>
<path d="M206.585 98.9022L205.892 98.2087C201.558 93.3546 198.871 85.9868 196.444 78.1856L194.363 71.3379L195.403 73.4182C198.697 80.2659 201.904 87.287 204.938 94.4815L206.585 98.4688V98.9022Z" fill="#007F01"/>
<path d="M183.785 71.1641C189.766 80.2655 193.493 88.5868 201.728 91.1005C199.214 77.3184 193.06 74.2845 183.872 71.2507L183.785 71.1641Z" fill="#66A72E"/>
<path d="M183.785 71.1641C189.766 80.2655 193.493 88.5868 201.728 91.1005C199.214 77.3184 193.06 74.2845 183.872 71.2507" stroke="#0B572F" stroke-width="0.550622" stroke-linecap="round" stroke-linejoin="round"/>
<path d="M201.383 90.7542L200.342 90.3208C194.968 87.9805 190.894 82.1729 186.907 75.8453L184.307 71.3379L184.913 71.7713C193.755 78.1856 197.482 82.8664 198.696 87.1137L201.296 90.2342L201.383 90.7542Z" fill="#007F01"/>
<path d="M177.631 82.1727C187.339 88.4136 196.874 96.1282 205.802 95.2614C197.394 83.1262 187.686 81.3059 177.631 82.1727Z" fill="#66A72E" stroke="#0B572F" stroke-width="0.57693" stroke-linecap="round" stroke-linejoin="round"/>
<path d="M184.565 86.4199L178.844 82.606L181.357 83.6461C187.945 86.4199 194.533 89.367 201.121 92.6609L205.021 94.5678L205.281 95.0012H204.154C197.913 94.9145 191.326 90.9273 184.565 86.4199Z" fill="#007F01"/>
<path d="M203.637 87.1138C206.757 96.9086 209.184 107.397 215.165 113.031C215.512 100.896 210.311 93.4414 203.637 87.1138Z" fill="#66A72E" stroke="#0B572F" stroke-width="0.543355" stroke-linecap="round" stroke-linejoin="round"/>
<path d="M214.904 112.338L213.344 110.517C210.137 106.357 208.143 100.549 206.236 94.4817L204.416 88.5874L205.283 90.4077C208.057 96.3019 210.83 102.283 213.517 108.524L214.904 111.991V112.338Z" fill="#007F01"/>
<path d="M211.958 87.2871C211.871 96.5619 210.658 106.357 215.339 111.991C220.193 100.809 217.159 93.6148 211.958 87.2871Z" fill="#66A72E" stroke="#0B572F" stroke-width="0.475281" stroke-linecap="round" stroke-linejoin="round"/>
<path d="M215.253 111.471L214.733 110.778C212.046 106.617 211.872 100.636 212.046 94.3083L212.219 88.2407L212.566 90.4077C213.519 96.0419 214.386 101.763 215.08 107.657L215.426 111.124L215.253 111.471Z" fill="#007F01"/>
<path d="M192.281 92.7476C199.649 101.156 206.583 111.037 215.338 112.511C210.744 98.8152 202.076 94.5678 192.281 92.7476Z" fill="#66A72E" stroke="#0B572F" stroke-width="0.570583" stroke-linecap="round" stroke-linejoin="round"/>
<path d="M214.904 112.164L213.778 111.904C208.057 110.17 203.029 104.883 198.002 98.9884L193.234 93.4409L195.401 95.0878C200.862 99.5085 206.236 104.016 211.611 108.87L214.731 111.73L214.904 112.164Z" fill="#007F01"/>
<path d="M221.146 104.796C221.84 111.817 214.472 117.104 225.134 124.299C227.474 117.278 227.907 109.91 221.146 104.796Z" fill="#66A72E" stroke="#0B572F" stroke-width="0.712973" stroke-linecap="round" stroke-linejoin="round"/>
<path d="M224.354 123.346L223.574 122.739C216.293 116.758 221.407 112.337 221.58 106.096V105.576L222.1 106.01L222.187 106.096L222.447 107.396C223.4 112.337 222.447 117.451 224.18 122.826L224.354 123.346Z" fill="#007F01"/>
<path d="M229.726 148.569C228.426 142.589 227.126 136.521 227.819 130.887C232.24 122.565 229.033 119.185 229.986 111.73C226.866 114.071 224.179 117.365 223.399 120.919C222.272 115.978 219.498 111.384 217.071 107.917C216.031 111.557 214.904 115.111 215.164 119.098C211.87 116.064 208.663 115.718 205.369 115.458C215.424 123.086 208.403 128.286 223.659 139.555L227.299 150.303L229.726 148.569Z" fill="#66A72E" stroke="#0B572F" stroke-width="0.712973" stroke-linecap="round" stroke-linejoin="round"/>
<path d="M227.732 149.436L227.298 149.263L224.004 139.468C224.004 139.381 223.918 139.381 223.831 139.294C209.442 128.633 214.99 123.605 207.275 116.671L206.408 115.977H207.275L207.968 116.324C214.99 120.398 217.503 132.793 225.478 138.861L227.732 149.436ZM223.224 121.178C223.398 121.352 223.744 121.265 223.744 121.005C224.264 118.404 225.911 115.977 227.992 113.897L229.552 112.597L228.598 115.111C226.345 122.132 225.478 129.239 224.524 136.867C222.184 129.933 222.011 125.079 223.224 121.265V121.178ZM215.51 119.185V119.098V118.318L215.596 117.711C215.683 115.891 215.943 114.07 216.376 112.163L216.723 110.43L217.243 108.696V108.783L218.11 114.591C219.15 120.832 220.797 127.072 223.224 133.227C217.33 130.106 215.423 125.252 215.51 119.445V119.185Z" fill="#007F01"/>
<path d="M240.3 133.661C234.405 149.61 226.604 165.733 229.898 179.168C243.767 163.826 243.853 148.657 240.3 133.661Z" fill="#66A72E" stroke="#0B572F" stroke-width="0.712973" stroke-linecap="round" stroke-linejoin="round"/>
<path d="M230.159 178.388L229.813 176.568C228.426 167.206 231.893 156.631 236.054 145.71L240.127 134.875L240.301 135.655L240.127 139.295C239.347 149.87 237.354 160.619 233.973 171.454L232.846 175.094L232.066 176.134L230.159 178.388Z" fill="#007F01"/>
<path d="M215.594 140.075C216.547 148.57 224.175 157.758 232.93 165.212C236.57 157.758 222.355 147.963 215.594 140.075Z" fill="#66A72E" stroke="#0B572F" stroke-width="0.712973" stroke-linecap="round" stroke-linejoin="round"/>
<path d="M232.757 164.606L229.983 162.092C223.136 155.764 217.588 148.483 216.201 141.549V141.462L233.017 163.912L232.757 164.606Z" fill="#007F01"/>
<path d="M230.59 132.534C228.423 145.71 224.435 159.578 230.59 168.766C240.645 154.118 237.351 142.936 230.59 132.534Z" fill="#66A72E" stroke="#0B572F" stroke-width="0.712973" stroke-linecap="round" stroke-linejoin="round"/>
<path d="M230.59 168.073L229.896 166.859C226.516 160.185 227.556 151.604 229.116 142.502L230.677 133.921L230.85 137.215C231.197 145.536 231.283 153.944 231.11 162.525L230.937 167.639L230.59 168.073Z" fill="#007F01"/>
<path d="M221.662 139.815C223.829 152.904 225.129 166.859 231.024 174.92C233.017 159.318 228.163 148.916 221.662 139.815Z" fill="#66A72E" stroke="#0B572F" stroke-width="0.712973" stroke-linecap="round" stroke-linejoin="round"/>
<path d="M230.763 173.88L230.33 173.1C226.603 167.206 224.956 158.625 223.569 149.61L222.355 142.069L222.962 144.236C225.389 152.297 227.643 160.445 229.723 168.853L230.85 173.36L230.763 173.88Z" fill="#007F01"/>
<path d="M241.604 167.033C232.676 174.661 228.168 189.83 226.521 204.825C237.877 202.832 237.963 180.295 241.604 167.033Z" fill="#66A72E" stroke="#0B572F" stroke-width="0.958752" stroke-linecap="round" stroke-linejoin="round"/>
<path d="M227.129 204.132L227.736 199.278C229.643 187.229 233.63 175.701 240.304 168.853L240.478 168.767L227.996 203.872L227.129 204.132Z" fill="#007F01"/>
<path d="M226.347 207.426C229.468 197.024 225.914 203.698 219.673 185.929C218.026 181.075 218.286 170.327 223.053 169.373C224.874 174.314 228.428 179.081 228.948 187.576C227.647 179.515 233.455 164.692 238.222 161.225C232.762 174.747 234.755 188.616 230.855 206.299C230.421 208.119 230.161 210.633 230.768 212.54L226.347 207.426Z" fill="#66A72E" stroke="#0B572F" stroke-width="0.712973" stroke-linecap="round" stroke-linejoin="round"/>
<path d="M221.84 170.153C222.447 169.98 222.273 169.46 222.62 169.72C223.4 185.756 228.081 188.096 227.821 201.185C227.648 201.878 225.741 198.151 227.301 200.231C221.407 193.124 215.166 178.041 221.84 170.153ZM228.948 184.456C228.168 180.208 234.929 162.612 236.489 163.306L236.836 162.959L235.709 165.126C230.855 175.094 231.461 177.955 230.248 187.489C229.988 186.449 230.681 197.458 230.161 196.071C229.728 195.031 228.774 185.409 228.948 184.456Z" fill="#007F01"/>
<path d="M234.495 205.778C225.913 212.626 215.598 218.607 215.512 228.055C230.941 225.195 234.321 216.267 234.495 205.778Z" fill="#66A72E" stroke="#0B572F" stroke-width="0.712973" stroke-linecap="round" stroke-linejoin="round"/>
<path d="M215.945 227.622L216.032 226.408C216.899 220.34 222.186 215.66 228.167 211.066L233.888 206.645L232.328 208.812C228.167 214.1 223.833 219.387 219.152 224.588L216.379 227.535L215.945 227.622Z" fill="#007F01"/>
<path d="M214.731 203.438C214.385 214.186 212.391 225.628 219.759 231.869C227.647 218.78 222.792 210.545 214.731 203.438Z" fill="#66A72E" stroke="#0B572F" stroke-width="0.712973" stroke-linecap="round" stroke-linejoin="round"/>
<path d="M219.672 231.348L218.718 230.395C214.558 225.801 214.384 218.866 214.731 211.585L215.078 204.478L215.685 207.078C217.158 213.492 218.458 220.167 219.412 226.928L219.932 230.915L219.672 231.348Z" fill="#05933F"/>
<path d="M203.289 242.617C212.997 236.983 214.644 229.182 218.198 218.347C219.845 213.059 225.046 205.258 230.16 204.044C229.033 208.552 227.906 213.059 225.826 217.567C229.64 214.879 233.627 212.106 237.701 209.419C232.847 222.767 225.132 233.256 210.657 241.837C209.01 242.877 207.19 244.611 206.15 246.431L203.289 242.617Z" fill="#66A72E" stroke="#0B572F" stroke-width="0.712973" stroke-linecap="round" stroke-linejoin="round"/>
<path d="M206.409 243.137L205.803 241.403L206.756 240.71C213.777 235.249 215.424 227.968 218.458 218.433C219.932 213.839 224.092 207.425 228.426 205.084L229.64 204.651L229.466 205.258L228.686 205.951C218.458 217.133 218.198 230.568 206.409 243.137ZM225.652 217.913H225.826C225.913 217.913 225.999 217.913 226.086 217.826C227.993 216.526 229.9 215.139 231.893 213.839L236.921 210.372L236.834 210.545L236.488 210.892C228.426 218 224.352 223.894 218.631 232.042C220.798 228.401 222.792 224.847 224.352 221.207L225.652 217.913Z" fill="#007F01"/>
<path d="M222.097 237.07C211.522 240.884 199.474 243.485 196.18 252.499C211.955 254.666 218.283 247.125 222.097 237.07Z" fill="#66A72E" stroke="#0B572F" stroke-width="0.726588" stroke-linecap="round" stroke-linejoin="round"/>
<path d="M197.219 252.239L196.266 252.153L196.699 252.239L197.219 251.026C200.166 245.478 206.841 242.704 214.122 240.191L221.143 237.764L218.889 239.324C213.082 243.138 207.187 246.778 200.86 250.332L197.219 252.239Z" fill="#007F01"/>
<path d="M202.423 230.829C196.268 239.757 188.294 248.512 191.067 257.527C204.936 250.505 205.456 240.971 202.423 230.829Z" fill="#66A72E" stroke="#0B572F" stroke-width="0.712973" stroke-linecap="round" stroke-linejoin="round"/>
<path d="M191.328 257.006L191.068 255.793C190.028 249.725 193.668 243.831 198.002 237.763L202.163 231.869L201.296 234.383C198.956 240.624 196.442 246.865 193.495 253.192L191.761 256.746L191.328 257.006Z" fill="#007F01"/>
<path d="M178.326 265.155L191.242 254.06L209.618 234.383C207.364 242.531 204.504 250.419 196.876 256.4C202.597 253.366 209.618 251.806 216.899 250.679C209.878 256.747 202.077 261.514 191.762 261.514L181.273 266.108L178.326 265.155Z" fill="#66A72E" stroke="#0B572F" stroke-width="0.712973" stroke-linecap="round" stroke-linejoin="round"/>
<path d="M179.626 265.241L179.02 264.981L191.501 254.319V254.232L208.838 235.77H208.751L207.711 237.85C201.73 248.165 192.195 257.44 180.32 264.807L179.626 265.241ZM194.535 258.133L196.529 256.399L196.616 256.659C196.702 256.746 196.876 256.833 197.049 256.746C201.296 254.406 206.324 253.019 211.611 251.979L215.685 251.285L214.818 251.719C208.057 255.099 200.603 257.786 194.535 258.133Z" fill="#007F01"/>
<path d="M117.217 291.246C126.058 288.472 142.181 276.51 151.282 274.95C160.73 273.476 170.438 272.696 180.32 272.783L197.223 265.675L199.563 265.849C190.808 261.948 181.36 262.208 171.999 265.849C179.28 262.035 183.094 255.014 181.36 249.899C173.992 253.54 166.018 257.354 160.384 264.982L151.369 272.35C142.094 275.21 130.999 277.984 120.857 280.758C120.424 284.311 117.217 286.652 117.217 291.246Z" fill="#66A72E" stroke="#0B572F" stroke-width="0.712973" stroke-linecap="round" stroke-linejoin="round"/>
<path d="M151.367 272.697C151.454 272.697 151.541 272.697 151.541 272.61L160.642 265.242V265.156C165.583 258.481 169.743 255.967 175.724 252.934L181.098 250.247L181.532 251.807L176.418 256.054C171.737 261.255 165.496 263.422 159.255 269.23C162.809 269.056 166.536 268.796 168.877 267.323C169.397 266.889 170.003 266.542 170.61 266.282L171.737 265.589L171.65 265.676C171.477 266.022 171.824 266.369 172.084 266.196C180.232 262.989 188.466 262.382 196.181 264.896L197.308 265.416C197.221 265.329 197.134 265.416 197.134 265.416L195.487 266.109H193.32C184.826 266.369 175.898 266.542 169.483 269.836L151.367 272.783V272.697Z" fill="#007F01"/>
<path d="M118.863 290.38L120.684 287.172L121.377 284.919C122.244 284.659 125.104 282.232 149.548 274.69L152.062 274.517L151.628 274.604C140.62 277.464 129.698 285.439 118.863 290.38Z" fill="#007F01"/>
<path d="M117.045 291.072C119.819 289.946 122.94 287.345 123.98 280.411C117.825 279.717 116.525 284.485 117.045 291.072Z" fill="#EE9948" stroke="#0B572F" stroke-width="0.722186" stroke-linecap="round" stroke-linejoin="round"/>
<path d="M184.567 282.664C185 284.918 186.214 289.165 178.932 292.026C178.152 286.218 181.446 282.837 184.567 282.664Z" fill="#EE9948" stroke="#0B572F" stroke-width="0.698949" stroke-linecap="round" stroke-linejoin="round"/>
<path d="M135.42 262.814C135.506 266.975 140.967 270.009 145.215 272.176C146.602 272.956 148.162 271.482 148.335 270.269C142.874 265.935 140.794 261.774 140.447 259.867C138.887 260.561 134.38 259.174 135.42 262.814Z" fill="#75AADB"/>
<path d="M152.756 271.569L155.703 273.129C158.997 269.922 165.671 266.195 165.238 262.294L159.344 261.601C160.21 263.074 155.01 268.622 152.756 271.569Z" fill="#75AADB"/>
<path d="M136.46 260.907C137.5 260.734 136.98 259.694 138.367 260.04C139.407 263.074 143.741 268.882 148.075 271.309C148.509 271.569 145.648 270.962 146.168 271.916C141.921 269.315 136.113 263.941 136.46 260.907Z" fill="#ECECEC"/>
<path d="M161.077 261.774C160.211 264.634 157.784 268.622 154.49 270.875L154.316 272.002C157.957 270.269 162.638 265.848 164.025 261.254L161.077 261.774Z" fill="#E6E6E6"/>
<path d="M150.502 276.249C151.455 280.237 151.715 284.744 153.796 287.691L161.337 286.131C155.356 279.977 155.616 277.636 154.056 273.996L150.502 276.249Z" fill="#75AADB"/>
<path d="M164.803 290.378C167.23 292.025 167.49 296.186 168.27 299.653C169.223 298.786 170.004 297.226 173.297 297.746C172.517 294.365 172.171 290.551 169.483 288.038L164.803 290.378Z" fill="#75AADB"/>
<path d="M151.629 275.99L152.929 275.296C153.796 277.723 156.223 283.964 159.343 287.085L155.963 287.518C153.276 284.658 152.842 279.977 151.629 275.99Z" fill="#ECECEC"/>
<path d="M166.625 289.165C166.105 286.565 168.358 288.298 168.445 288.385C169.919 290.465 171.652 295.579 171.739 297.66C169.485 298.006 169.659 298.44 169.052 299.046C169.832 297.14 167.752 291.245 166.625 289.165Z" fill="#F9F9F9"/>
<path d="M160.904 292.545C164.632 290.465 169.486 288.038 169.919 289.078C169.746 288.298 169.052 287.604 168.532 286.997C168.359 286.824 168.185 286.651 168.099 286.564C167.232 285.437 166.625 284.744 165.238 284.05C163.331 284.657 161.598 285.437 160.124 286.044C151.023 288.558 153.537 284.917 153.19 285.957C152.323 288.644 154.577 294.279 160.904 292.545Z" fill="#75AADB"/>
<path d="M153.275 288.645C155.182 288.125 155.182 290.119 159.95 288.212C162.203 287.518 164.804 285.785 167.231 285.785C168.704 286.131 169.138 287.605 169.918 288.472C168.011 287.345 167.144 287.952 163.937 289.512C160.47 291.592 156.396 293.066 154.662 291.246C154.142 290.812 153.275 289.165 153.275 288.645Z" fill="white"/>
<path d="M148.16 275.036L150.847 276.509C149.461 282.663 146.513 286.564 144.52 288.991L136.285 287.778C138.452 286.998 145.647 280.323 148.16 275.036Z" fill="#75AADB"/>
<path d="M127.703 298.699C129.523 297.659 131.517 298.699 133.511 299.999C133.337 292.978 133.251 290.464 134.117 288.124L131.257 285.87C128.657 287.95 128.223 294.711 127.703 298.699Z" fill="#75AADB"/>
<path d="M148.072 276.683C147.639 280.15 142.178 286.478 138.711 288.298C142.438 292.112 149.113 279.89 149.633 277.637C149.373 277.377 148.506 277.637 148.072 276.683Z" fill="#ECECEC"/>
<path d="M131.778 286.044C134.638 283.443 129.871 295.665 131.605 298.872C130.478 298.612 129.958 298.352 129.351 298.526C129.091 295.232 130.044 288.644 131.778 286.044Z" fill="#F9F9F9"/>
<path d="M130.043 287.344C132.21 284.57 134.117 284.137 136.717 285.177C138.538 286.737 141.831 289.598 145.039 288.211C144.259 290.811 141.918 292.285 136.457 290.551C133.25 289.511 130.823 287.257 130.043 287.344Z" fill="#75AADB"/>
<path d="M130.908 286.131C131.688 285.351 133.509 283.617 136.109 286.651C138.883 290.291 141.743 289.858 144.517 289.338C143.477 291.852 138.449 291.938 136.802 290.205C132.902 286.391 131.948 286.477 130.908 286.131Z" fill="white"/>
<path d="M140.098 256.747C154.92 259.26 154.313 257.267 162.115 256.833C166.102 258.307 165.929 260.04 165.062 263.594C156.914 259.52 153.187 264.548 148.592 262.901C142.352 260.647 135.677 261.514 135.59 263.074C135.07 259.954 136.717 257.527 140.098 256.747Z" fill="#75AADB"/>
<path d="M136.978 258.22C135.765 259.174 135.245 260.994 135.332 261.687C138.192 260.647 141.659 259.434 146.253 260.474C151.801 262.381 153.621 260.561 156.742 260.04C163.676 259.434 164.976 260.647 165.323 262.121C165.583 260.994 165.93 259.434 164.716 258.307C161.596 257.44 159.082 257.96 156.655 258.567C152.234 260.04 147.987 259.434 143.393 258.307C140.186 257.613 138.625 257.96 136.978 258.22Z" fill="white"/>
<path d="M145.819 272.175C146.166 271.222 146.599 270.355 147.726 269.922C149.719 269.315 151.54 269.401 153.273 269.748C154.747 269.835 155.527 271.048 156.307 272.435C156.394 273.302 156.48 274.082 155.874 275.209C154.4 277.723 153.273 277.116 151.973 277.636C151.02 277.549 150.326 277.549 148.766 277.289C147.032 277.203 145.732 275.989 145.732 275.556C145.559 274.516 145.559 273.389 145.819 272.175Z" fill="#75AADB"/>
<path d="M149.633 269.749C148.16 271.396 148.333 274.256 149.287 277.55C149.807 277.723 150.414 277.983 151.28 277.637C154.748 274.083 152.927 270.702 152.321 269.575C151.714 269.315 150.154 269.315 149.633 269.749Z" fill="white"/>
</g>
<defs>
<clipPath id="clip0_151_10200">
<rect width="300" height="300" fill="white"/>
</clipPath>
</defs>
</svg>
