<svg width="300" height="300" viewBox="0 0 300 300" fill="none" xmlns="http://www.w3.org/2000/svg">
<path d="M74.0903 146.029C78.1725 127.203 74.1588 107.972 66.1055 88.5386C71.9327 83.0749 78.2489 78.1 81.1625 69.7227H144.128L144.014 150.934L74.4325 149.679L74.0903 146.029Z" fill="#0077D6"/>
<path d="M226.946 145.941C222.864 127.115 226.878 107.884 234.931 88.4507C229.104 82.987 222.788 78.0121 219.874 69.6348H156.908L157.022 150.846L226.604 149.591L226.946 145.941Z" fill="url(#paint0_linear_151_171)"/>
<path d="M68.3884 165.193L143.479 161.429L140.285 246.043L118.179 245.72C83.0337 241.272 63.9646 212.441 64.6857 188.573C64.9388 180.198 65.4828 172.095 68.3884 165.193Z" fill="url(#paint1_linear_151_171)"/>
<path d="M231.799 164.878L156.742 161.113L159.936 245.727L182.043 245.405C217.188 240.957 236.257 212.125 235.536 188.257C235.283 179.883 234.705 171.779 231.799 164.878Z" fill="#AA0000"/>
<path d="M195.303 228.841V227.332L194.806 227.298C192.083 227.112 189.088 226.35 186.713 225.238C186.472 225.125 186.252 225.042 186.225 225.054C186.197 225.065 185.938 225.501 185.648 226.022L185.121 226.969L184.842 226.803C184.689 226.712 184.106 226.374 183.547 226.053C182.988 225.732 182.514 225.454 182.494 225.434C182.473 225.414 182.698 224.966 182.993 224.438C183.479 223.57 183.522 223.474 183.446 223.428C183.281 223.33 182.2 222.53 181.769 222.188C180.082 220.849 178.457 219.117 177.127 217.238C176.905 216.924 176.71 216.671 176.694 216.676C176.678 216.68 176.189 216.967 175.607 217.312C174.744 217.825 174.539 217.928 174.493 217.875C174.462 217.839 174.103 217.223 173.695 216.506L172.954 215.203L174.053 214.551L175.153 213.898L174.877 213.271C173.712 210.624 173.005 207.841 172.832 205.22C172.816 204.987 172.792 204.714 172.778 204.611L172.753 204.425H171.418H170.082V202.861V201.296H171.468H172.854V201.133C172.854 200.827 173.044 199.486 173.207 198.639C173.619 196.509 174.369 194.303 175.334 192.385C175.429 192.196 175.487 192.034 175.462 192.024C175.437 192.014 174.863 191.677 174.186 191.274L172.955 190.541L173.735 189.177C174.164 188.427 174.533 187.817 174.556 187.823C174.578 187.828 175.164 188.17 175.858 188.582C176.551 188.993 177.133 189.324 177.15 189.316C177.168 189.309 177.353 189.073 177.563 188.792C178.442 187.613 179.754 186.187 180.891 185.175C181.615 184.53 182.898 183.547 183.535 183.148C183.656 183.073 183.755 182.988 183.755 182.961C183.755 182.934 183.412 182.297 182.993 181.547C182.574 180.797 182.231 180.167 182.231 180.147C182.231 180.106 184.861 178.581 184.885 178.607C184.894 178.617 185.258 179.269 185.694 180.057C186.168 180.912 186.509 181.479 186.541 181.464C189.411 180.18 191.806 179.565 194.899 179.319L195.303 179.287V177.627V175.967L196.862 175.98L198.421 175.993L198.433 177.667L198.445 179.341L198.595 179.366C198.677 179.38 198.963 179.415 199.229 179.445C201.696 179.717 204.468 180.54 206.812 181.694L207.167 181.869L207.912 180.532C208.322 179.798 208.674 179.196 208.696 179.196C208.738 179.196 211.238 180.627 211.301 180.688C211.322 180.708 210.996 181.342 210.576 182.097L209.812 183.468L210.237 183.774C212.235 185.215 214.57 187.606 215.79 189.463C215.866 189.579 215.944 189.674 215.964 189.674C215.984 189.675 216.679 189.272 217.509 188.78C218.705 188.071 219.028 187.898 219.071 187.948C219.159 188.053 220.57 190.548 220.57 190.6C220.57 190.627 219.92 191.034 219.126 191.504C218.333 191.975 217.658 192.377 217.626 192.398C217.585 192.425 217.666 192.647 217.92 193.202C218.917 195.38 219.621 197.831 219.9 200.093C219.939 200.413 219.982 200.726 219.995 200.787L220.017 200.899H221.634H223.25L223.238 202.451L223.226 204.003L221.675 204.016L220.125 204.029L220.069 204.836C219.86 207.836 219.245 210.372 218.06 213.125L217.896 213.507L218.043 213.599C218.125 213.65 218.736 214.014 219.402 214.408C220.555 215.09 220.611 215.129 220.553 215.225C220.519 215.281 220.165 215.899 219.765 216.6L219.039 217.874L218.43 217.512C218.095 217.314 217.499 216.958 217.106 216.723L216.39 216.295L216.312 216.407C216.269 216.468 216.049 216.786 215.823 217.114C214.385 219.202 212.656 221.008 210.581 222.59C210.155 222.915 209.913 223.131 209.933 223.166C210.489 224.129 211.416 225.858 211.39 225.883C211.363 225.909 209.499 226.995 208.857 227.359C208.769 227.409 208.711 227.32 208.007 226.054L207.251 224.694L207.016 224.822C206.655 225.019 205.777 225.418 205.188 225.654C203.245 226.429 201.392 226.91 199.345 227.17C198.913 227.225 198.534 227.27 198.502 227.27C198.459 227.27 198.442 227.625 198.433 228.797L198.421 230.324L196.862 230.338L195.303 230.351L195.303 228.841ZM195.303 215.386V207.921L194.968 207.806C194.556 207.665 193.891 207.313 193.547 207.053C193.405 206.946 193.277 206.859 193.261 206.859C193.236 206.859 181.112 214.036 180.624 214.34L180.427 214.462L180.601 214.696C181.811 216.322 183.136 217.68 184.63 218.826C187.398 220.949 190.897 222.371 194.287 222.748C194.553 222.777 194.834 222.809 194.91 222.818C194.987 222.828 195.106 222.838 195.176 222.843L195.303 222.85V215.386ZM199.245 222.726C204.716 221.993 209.549 219.098 212.784 214.618C212.908 214.447 213 214.299 212.99 214.29C212.98 214.28 210.117 212.58 206.628 210.511L200.285 206.75L200.023 206.953C199.66 207.233 199.176 207.517 198.779 207.682L198.444 207.821V215.311V222.8L198.571 222.8C198.641 222.8 198.944 222.767 199.245 222.726ZM185.395 207.826C188.748 205.839 191.51 204.196 191.532 204.175C191.555 204.152 191.54 203.943 191.498 203.697C191.404 203.147 191.402 202.578 191.494 202.016C191.533 201.777 191.558 201.576 191.551 201.57C191.497 201.524 179.064 194.17 179.045 194.172C179.006 194.177 178.467 195.358 178.237 195.943C177.325 198.262 176.874 200.65 176.874 203.159C176.874 205.985 177.428 208.578 178.601 211.244L178.816 211.731L179.057 211.584C179.189 211.504 182.041 209.813 185.395 207.826ZM214.773 211.142C215.882 208.662 216.457 205.938 216.457 203.159C216.457 200.653 215.991 198.195 215.083 195.908C214.877 195.391 214.491 194.53 214.417 194.426C214.357 194.34 213.963 194.566 208.128 198.026L201.903 201.717L201.94 201.966C201.982 202.241 201.99 203.353 201.954 203.774L201.932 204.043L208.237 207.784C211.705 209.842 214.555 211.526 214.571 211.526C214.588 211.527 214.678 211.354 214.773 211.142ZM197.557 205.402C198.637 205.066 199.39 204.1 199.485 202.927C199.59 201.638 198.713 200.373 197.477 200.03C197.101 199.926 196.433 199.926 196.067 200.03C195.438 200.209 194.8 200.696 194.47 201.249C193.968 202.089 193.935 203.212 194.386 204.069C194.714 204.693 195.4 205.245 196.088 205.439C196.493 205.554 197.122 205.538 197.557 205.402ZM206.471 195.33C209.843 193.332 212.627 191.673 212.658 191.642C212.793 191.509 210.966 189.426 209.853 188.443C207.089 186.001 203.794 184.394 200.215 183.742C199.704 183.648 198.747 183.518 198.571 183.517L198.444 183.517L198.455 190.695L198.467 197.873L198.86 198.046C199.278 198.23 199.881 198.602 200.123 198.824C200.203 198.898 200.285 198.959 200.304 198.96C200.324 198.962 203.099 197.328 206.471 195.33ZM193.515 198.668C193.825 198.418 194.536 198.033 194.953 197.891L195.28 197.78L195.292 190.619L195.303 183.459L194.991 183.491C194.298 183.56 193.774 183.63 193.247 183.722C188.986 184.464 185.133 186.555 182.183 189.724C181.498 190.458 180.752 191.358 180.753 191.447C180.754 191.494 193.124 198.85 193.215 198.858C193.248 198.86 193.383 198.775 193.515 198.668Z" fill="black" fill-opacity="0.264151"/>
<path d="M194.781 228.176V226.667L194.285 226.633C191.562 226.447 188.566 225.685 186.191 224.573C185.95 224.46 185.731 224.377 185.703 224.389C185.676 224.4 185.416 224.836 185.126 225.356L184.599 226.304L184.321 226.138C184.167 226.047 183.585 225.709 183.026 225.388C182.467 225.067 181.993 224.788 181.972 224.769C181.952 224.749 182.177 224.301 182.472 223.773C182.958 222.905 183.001 222.809 182.925 222.763C182.76 222.665 181.678 221.865 181.247 221.523C179.56 220.184 177.935 218.452 176.606 216.573C176.383 216.259 176.188 216.006 176.172 216.01C176.156 216.015 175.667 216.302 175.085 216.647C174.222 217.16 174.017 217.263 173.971 217.21C173.94 217.174 173.581 216.558 173.173 215.841L172.432 214.538L173.532 213.886L174.632 213.233L174.356 212.606C173.19 209.958 172.483 207.176 172.31 204.555C172.295 204.322 172.271 204.049 172.257 203.946L172.232 203.76H170.896H169.561V202.196V200.631H170.946H172.332V200.468C172.332 200.162 172.522 198.821 172.686 197.974C173.097 195.844 173.848 193.638 174.812 191.72C174.908 191.531 174.965 191.369 174.941 191.359C174.916 191.349 174.342 191.012 173.664 190.609L172.433 189.876L173.213 188.512C173.642 187.762 174.012 187.152 174.034 187.158C174.057 187.163 174.643 187.505 175.336 187.917C176.03 188.328 176.611 188.659 176.629 188.651C176.646 188.644 176.832 188.408 177.041 188.127C177.921 186.948 179.232 185.522 180.369 184.51C181.094 183.865 182.377 182.881 183.014 182.483C183.135 182.408 183.233 182.323 183.233 182.296C183.233 182.269 182.89 181.632 182.471 180.882C182.052 180.132 181.709 179.502 181.709 179.482C181.709 179.441 184.339 177.916 184.364 177.942C184.373 177.952 184.737 178.604 185.173 179.392C185.647 180.247 185.987 180.814 186.02 180.799C188.889 179.514 191.285 178.899 194.377 178.654L194.781 178.622V176.962V175.302L196.34 175.315L197.899 175.328L197.912 177.002L197.924 178.676L198.073 178.701C198.155 178.715 198.441 178.75 198.708 178.78C201.174 179.052 203.946 179.875 206.291 181.029L206.645 181.204L207.39 179.867C207.8 179.133 208.153 178.531 208.174 178.531C208.217 178.531 210.717 179.962 210.78 180.023C210.801 180.043 210.475 180.677 210.054 181.432L209.29 182.803L209.715 183.109C211.714 184.55 214.048 186.941 215.268 188.798C215.344 188.914 215.423 189.009 215.443 189.009C215.463 189.01 216.158 188.607 216.987 188.115C218.183 187.406 218.507 187.233 218.549 187.283C218.638 187.388 220.048 189.883 220.048 189.935C220.048 189.962 219.399 190.369 218.605 190.839C217.811 191.31 217.136 191.712 217.105 191.733C217.064 191.76 217.145 191.982 217.399 192.536C218.395 194.715 219.099 197.166 219.378 199.427C219.418 199.748 219.461 200.061 219.473 200.122L219.496 200.234H221.112H222.729L222.717 201.786L222.705 203.338L221.154 203.351L219.603 203.364L219.547 204.17C219.338 207.171 218.724 209.707 217.539 212.46L217.374 212.842L217.522 212.934C217.603 212.985 218.215 213.349 218.881 213.743C220.034 214.425 220.089 214.464 220.031 214.56C219.997 214.616 219.643 215.234 219.244 215.935L218.517 217.209L217.909 216.847C217.574 216.648 216.978 216.293 216.584 216.058L215.868 215.63L215.79 215.742C215.747 215.803 215.528 216.121 215.302 216.449C213.863 218.536 212.134 220.343 210.06 221.925C209.634 222.25 209.391 222.466 209.412 222.501C209.967 223.464 210.894 225.193 210.868 225.218C210.842 225.244 208.977 226.33 208.336 226.694C208.247 226.744 208.189 226.655 207.485 225.388L206.73 224.029L206.495 224.157C206.134 224.354 205.256 224.753 204.666 224.989C202.724 225.764 200.871 226.245 198.823 226.505C198.391 226.56 198.012 226.605 197.981 226.605C197.937 226.605 197.921 226.96 197.911 228.132L197.899 229.659L196.34 229.672L194.781 229.686L194.781 228.176ZM194.781 214.72V207.256L194.447 207.141C194.034 207 193.37 206.647 193.026 206.388C192.884 206.281 192.755 206.194 192.74 206.194C192.715 206.194 180.591 213.371 180.103 213.675L179.906 213.797L180.079 214.031C181.29 215.657 182.615 217.015 184.108 218.16C186.877 220.284 190.376 221.706 193.765 222.083C194.032 222.112 194.313 222.144 194.389 222.153C194.465 222.163 194.585 222.173 194.654 222.178L194.781 222.185V214.72ZM198.724 222.061C204.194 221.328 209.027 218.433 212.263 213.953C212.386 213.782 212.479 213.634 212.469 213.624C212.458 213.615 209.595 211.914 206.106 209.846L199.763 206.085L199.501 206.288C199.139 206.568 198.655 206.852 198.257 207.017L197.923 207.156V214.646V222.135L198.05 222.135C198.119 222.135 198.423 222.102 198.724 222.061ZM184.873 207.161C188.227 205.174 190.989 203.531 191.011 203.51C191.033 203.487 191.018 203.278 190.976 203.032C190.882 202.482 190.881 201.913 190.972 201.351C191.011 201.112 191.037 200.911 191.03 200.905C190.975 200.859 178.543 193.505 178.524 193.507C178.485 193.512 177.945 194.693 177.715 195.278C176.804 197.597 176.353 199.985 176.353 202.494C176.353 205.32 176.907 207.913 178.08 210.579L178.294 211.066L178.535 210.919C178.668 210.839 181.52 209.147 184.873 207.161ZM214.252 210.477C215.361 207.997 215.936 205.273 215.936 202.494C215.936 199.988 215.469 197.53 214.561 195.243C214.356 194.726 213.969 193.865 213.895 193.761C213.835 193.675 213.442 193.901 207.606 197.361L201.381 201.052L201.419 201.301C201.46 201.576 201.469 202.688 201.433 203.109L201.41 203.378L207.715 207.119C211.183 209.177 214.034 210.861 214.05 210.861C214.066 210.862 214.157 210.689 214.252 210.477ZM197.036 204.737C198.116 204.401 198.869 203.435 198.964 202.262C199.068 200.972 198.192 199.708 196.955 199.365C196.58 199.261 195.911 199.261 195.545 199.365C194.917 199.544 194.278 200.031 193.948 200.584C193.447 201.424 193.414 202.547 193.865 203.404C194.193 204.028 194.879 204.58 195.567 204.774C195.972 204.889 196.6 204.873 197.036 204.737ZM205.949 194.665C209.321 192.667 212.106 191.008 212.137 190.977C212.272 190.844 210.445 188.761 209.332 187.778C206.567 185.336 203.272 183.729 199.694 183.076C199.183 182.983 198.225 182.853 198.049 182.852L197.922 182.852L197.934 190.03L197.946 197.208L198.338 197.381C198.756 197.565 199.36 197.937 199.601 198.159C199.681 198.233 199.763 198.294 199.783 198.295C199.802 198.297 202.577 196.663 205.949 194.665ZM192.994 198.003C193.303 197.752 194.015 197.368 194.432 197.226L194.758 197.115L194.77 189.954L194.782 182.794L194.47 182.826C193.777 182.895 193.253 182.965 192.726 183.056C188.465 183.799 184.612 185.89 181.661 189.058C180.977 189.793 180.23 190.693 180.232 190.782C180.232 190.829 192.602 198.185 192.693 198.193C192.726 198.195 192.861 198.11 192.994 198.003Z" fill="url(#paint2_linear_151_171)"/>
<path d="M65.5295 189.697C65.4398 194.964 65.6513 199.846 67.0483 204.896C67.09 205.047 67.3467 205.424 67.3901 205.575L82.5485 205.344C85.0473 207.735 87.6123 210.074 93.0565 210.151L92.201 211.177C90.8097 214.557 94.039 214.564 95.2238 213.63L96.6497 212.318L97.163 212.831L96.0223 213.858C93.6229 216.28 98.5644 216.886 99.2732 215.398L100.015 214.428L100.585 214.828L99.7866 215.968C99.3885 218.481 103.107 219.154 104.549 216.481C105.251 217.12 106.051 217.166 106.614 217.442C108.087 218.164 109.199 217.838 109.939 216.653C111.754 217.789 112.91 218.208 113.817 214.828C116.108 216.42 116.826 214.795 116.84 213.459C118.124 214.495 120.124 215.441 119.977 210.493C121.973 209.626 123.969 208.349 125.965 205.075L141.193 205.018V189.904L120.619 190.907C115.334 188.413 109.727 187.782 103.681 189.697C97.8166 188.716 91.0184 188.499 86.9041 189.616C83.0481 190.668 78.7357 190.573 74.2407 190.019C71.2458 189.684 68.3103 189.497 65.5295 189.697Z" fill="black" fill-opacity="0.183962"/>
<path d="M64.5976 189.017C64.5052 194.442 65.5186 199.709 67.0174 204.907L81.6166 204.665C84.1154 207.056 86.6804 209.394 92.1246 209.471L91.2691 210.498C89.8778 213.877 93.1071 213.884 94.2919 212.95L95.7178 211.638L96.2311 212.152L95.0904 213.178C92.691 215.601 97.6326 216.207 98.3414 214.718L99.0828 213.749L99.6532 214.148L98.8547 215.288C98.4567 217.802 102.175 218.474 103.617 215.802C104.32 216.44 105.119 216.487 105.682 216.762C107.155 217.484 108.267 217.158 109.007 215.973C110.822 217.109 111.978 217.529 112.885 214.148C115.176 215.741 115.894 214.115 115.908 212.779C117.192 213.815 119.193 214.761 119.045 209.813C121.041 208.947 123.037 207.67 125.033 204.395L140.262 204.338V189.224L119.688 190.227C114.402 187.734 108.795 187.102 102.749 189.017C96.8847 188.036 90.0865 187.819 85.9722 188.936C82.1162 189.989 77.8038 189.894 73.3088 189.34C70.3139 189.004 67.3785 188.817 64.5976 189.017Z" fill="#AA0000"/>
<path d="M97.6699 197.365C99.6956 198.146 101.602 196.536 103.477 194.3C106.431 194.326 108.596 192.491 110.492 190.022C109.527 196.43 116.298 203.246 122.355 195.27C120.584 199.583 118.608 200.198 115.055 200.517L119.161 209.813C119.087 211.936 118.896 213.817 117.735 213.692C118.308 212.709 118.586 211.555 118.249 210.041C115.558 203.739 112.529 197.819 107.583 194.072C105.773 194.894 105.019 194.659 103.99 194.699C101.485 197.74 99.415 198.429 97.6699 197.365Z" fill="black" fill-opacity="0.259434"/>
<path d="M64.6313 188.974C68.3293 188.599 70.9592 189.117 73.9671 189.333C77.7865 189.908 81.3572 189.798 84.7466 189.19C90.6089 187.676 96.5375 187.829 102.748 189.018C103.389 189.141 102.109 189.219 102.721 188.996C108.637 186.833 115.333 188.087 119.88 190.046L140.298 189.076V190.445L120.222 191.301C113.563 188.23 108.356 188.256 104.594 189.117C104.043 189.243 103.91 189.417 103.381 189.548C102.15 189.853 101.469 191.561 100.488 192.613C95.9301 195.352 96.8382 196.369 97.6934 197.403C96.6978 196.303 95.0416 195.399 99.6896 192.613L101.572 189.932C94.3434 188.072 89.2158 189.144 85.0407 189.951C80.9609 190.907 76.7527 190.836 72.458 190.072C69.4497 189.789 66.5868 189.496 64.6309 190.16L64.6313 188.974Z" fill="#CA3E3E"/>
<path d="M107.242 200.003C114.201 204.553 119.863 217.575 112.775 214.262C117.253 216.097 116.149 209.406 107.242 200.003Z" fill="#7E0000"/>
<path d="M104.332 203.653C111.067 210.732 115.331 216.394 109.18 216.087C111.539 218.049 112.737 215.995 112.812 214.29C112.923 211.782 108.42 207.155 104.332 203.653Z" fill="#7E0000"/>
<path d="M101.057 207.447C103.476 210.275 107.746 213.997 108.066 215.808C108.231 216.807 107.468 216.877 107.005 217.247C107.677 217.227 108.35 216.853 109.022 215.997C109.261 214.254 103.91 210.365 101.057 207.447Z" fill="black" fill-opacity="0.235849"/>
<path d="M67.0058 204.92L81.672 204.778C83.7762 207.608 86.9857 209.298 92.1261 209.699C96.2013 212.187 100.063 214.745 105.729 216.799C100.251 214.195 96.3372 211.619 92.8105 209.014C87.4872 208.484 84.5055 206.432 82.2021 203.938L66.7188 203.89L67.0058 204.92Z" fill="#7E0000"/>
<path d="M91.9487 209.682L91.3 210.455C90.2687 211.694 90.8043 214.263 93.7097 213.278C92.6139 213.464 90.6454 213.058 91.9416 210.611L92.5298 209.945L92.1323 209.699L91.9487 209.682Z" fill="#B92E2E"/>
<path d="M96.1915 212.196L96.8645 212.592C95.6152 213.371 94.0164 214.904 96.8224 215.519C92.7888 215.48 94.7114 213.163 96.1915 212.196Z" fill="#B92E2E"/>
<path d="M99.6835 214.123L98.8675 215.267C98.6689 216.239 99.2294 217.668 101.324 217.488C100.129 217.253 99.3351 216.607 99.8349 215.604L100.6 214.619L99.6835 214.123Z" fill="#B92E2E"/>
<path d="M110.525 190.139C112.651 195.858 115.885 198.83 121.765 195.254C116.779 200.756 111.67 198.605 110.525 190.139Z" fill="white" fill-opacity="0.0424528"/>
<path d="M107.901 189.567C106.316 190.201 105.4 189.329 102.854 192.124C101.468 193.193 100.193 193.986 98.6475 195.456C98.3114 195.887 97.4783 197.383 99.9935 196.23C101.133 195.799 102.011 194.67 102.887 193.538C105.714 192.709 107.584 191.471 107.901 189.567Z" fill="white" fill-opacity="0.0660378"/>
<path d="M103.432 205.436C105.765 208.692 110.619 211.631 110.026 215.256C114.009 212.848 106.468 208.826 103.432 205.436Z" fill="white" fill-opacity="0.127358"/>
<path d="M107.145 203.834C109.405 207.142 114.191 210.189 113.517 213.799C117.553 211.481 110.105 207.292 107.145 203.834Z" fill="white" fill-opacity="0.188679"/>
<path d="M110.73 201.007C112.639 204.529 117.088 208.051 116.047 211.573C120.3 209.682 113.32 204.751 110.73 201.007Z" fill="white" fill-opacity="0.15566"/>
<path d="M98.0938 207.814C100.856 210.716 106.07 212.955 105.984 216.626C109.595 213.69 101.571 210.752 98.0938 207.814Z" fill="white" fill-opacity="0.188679"/>
<g filter="url(#filter0_f_151_171)">
<path d="M64.5195 190.203C66.5486 189.962 68.6924 189.763 73.0855 190.393C76.7779 190.976 80.498 191.227 84.3164 190.298C89.3891 189.242 94.6188 188.472 101.068 189.917C100.162 190.835 99.8068 191.919 97.7364 192.487C92.9048 195.602 96.2882 199.669 101.068 198.579C102.202 202.315 109.646 207.095 92.5016 207.811C88.4025 207.483 84.7804 206.47 82.6984 203.242L66.6134 203.337C65.7526 199.448 65.0012 195.23 64.5195 190.203Z" fill="white" fill-opacity="0.0471698"/>
</g>
<g filter="url(#filter1_f_151_171)">
<path d="M64.709 191.535C64.8819 194.842 65.2998 198.19 66.2318 201.624L83.1734 201.719C94.3779 202.171 95.8015 195.761 82.412 193.248C79.8516 194.738 77.1988 194.379 74.5123 193.343C71.9338 191.775 68.5544 191.329 64.709 191.535Z" fill="white" fill-opacity="0.0566038"/>
</g>
<path d="M140.336 191.25L123.053 192.392C125.261 197.675 121.447 203.615 117.438 203.527L119.151 209.714C121.537 209.397 123.448 206.94 125.337 204.384L140.336 204.003V191.25Z" fill="black" fill-opacity="0.0801887"/>
<path d="M118.793 209.171C119.975 209.943 124.888 204.225 124.211 203.619L140.252 203.383V204.46L125.22 204.494C123.495 207.009 121.492 209.03 118.961 210.113L118.793 209.171Z" fill="#7E0000"/>
<path d="M74.7074 146.723C77.8056 144.386 85.3569 142.272 93.4573 140.186C87.1265 135.489 87.5743 128.894 87.366 122.483C87.8292 116.142 86.3822 110.235 81.2746 105.161C87.992 108.68 92.9552 113.262 91.3634 121.817C90.5567 127.783 93.3765 131.129 95.9319 134.666C93.4827 130.079 93.3576 124.523 93.9332 118.676C94.0242 112.762 92.6364 107.521 89.9358 102.876C93.0196 102.228 102.919 123.845 99.168 124.386C99.0185 124.408 99.0482 126.501 99.6775 123.977C101.88 115.141 97.0472 98.6748 96.1223 99.1644C101.311 103.447 103.864 109.485 105.259 116.296C107.14 107.491 107.884 98.8047 104.974 90.5033C100.433 85.5996 98.763 79.5917 98.8824 72.8955C104.701 77.1907 108.059 82.5248 105.83 90.2178C107.643 93.6937 108.013 99.2112 108.4 104.875C109.273 101.397 111.177 98.3602 113.825 95.6429C112.461 101.782 109.982 107.828 111.446 114.202C111.535 110.679 113.678 107.84 116.014 105.065C118.207 102.337 118.145 99.6086 118.679 96.8802C119.029 99.8941 119.601 102.908 118.489 105.922C117.086 109.588 116.911 112.947 117.537 116.106C119.193 110.033 121.867 104.839 129.054 103.543C125.083 107.159 123.583 110.776 123.153 114.393L122.677 121.817C125.786 112.29 131.248 110.079 136.573 107.445C132.578 111.419 128.468 115.333 128.673 121.531C127.709 134.68 123.654 137.148 120.012 141.042C129.997 141.168 134.562 143.1 141.102 144.374V146.723H74.4219H74.7074Z" fill="black" fill-opacity="0.212264"/>
<path d="M140.252 69.7227V145.915H74.0477C72.6714 152.855 70.7685 159.268 68.377 165.193H140.252V245.72C145.592 247.315 149.071 250.579 150.732 255.473C151.684 250.487 155.451 247.812 159.927 245.72V165.193H231.934L226.998 145.915C224.758 135.713 225.306 122.825 226.439 117.226L219.138 116.431L213.149 115.556L203.121 117.44L192.622 115.017L181.45 117.575L167.607 114.537L159.927 117.297V69.7227H140.252Z" fill="url(#paint3_linear_151_171)"/>
<path d="M171.508 115.488C172.335 110.426 172.773 105.221 178.265 101.878C181.475 99.9933 183.716 97.8934 184.642 95.5013C190.842 78.2975 197.923 75.9801 206.152 93.0267C207.747 95.9112 209.872 96.6763 211.958 97.5952C214.084 98.7373 214.973 99.8794 215.86 101.022L224.331 118.153L171.508 115.488Z" fill="black" fill-opacity="0.160377"/>
<path d="M170.129 114.851C170.956 109.789 171.394 104.584 176.886 101.241C180.096 99.3561 182.337 97.2562 183.263 94.8641C189.463 77.6603 196.544 75.3429 204.773 92.3894C206.368 95.274 208.493 96.0391 210.579 96.958C212.705 98.1001 213.594 99.2422 214.481 100.384L222.952 117.516L170.129 114.851Z" fill="#006500"/>
<path d="M168.32 114.756C169.147 109.694 169.585 104.489 175.078 101.146C178.287 99.2609 180.529 97.161 181.455 94.7688C187.654 77.5651 194.736 75.2477 202.965 92.2942C204.56 95.1788 206.684 95.9439 208.771 96.8627C210.897 98.0049 211.786 99.147 212.673 100.289L221.144 117.421L168.32 114.756Z" fill="#339933"/>
<path d="M169.176 114.756C170.003 109.694 170.441 104.489 175.933 101.146C179.143 99.2609 181.384 97.161 182.31 94.7688C188.51 77.5651 195.591 75.2477 203.82 92.2942C205.415 95.1788 207.54 95.9439 209.626 96.8627C211.752 98.0049 212.641 99.147 213.528 100.289L221.999 117.421L169.176 114.756Z" fill="#008000"/>
<path d="M159.916 114.527C164.235 112.339 168.822 112.561 173.498 113.584C176.862 114.763 180.367 115.194 184.266 113.517C187.89 111.765 191.819 111.136 196.515 113.315C199.853 114.75 202.778 114.639 205.399 113.383C209.497 111.738 213.802 111.085 218.791 113.719C221.494 115.433 225.403 115.223 226.836 114.357C226.443 115.941 226.186 118.463 225.868 120.651C223.029 120.608 221.055 120.028 219.464 119.271C214.521 116.751 211.289 117.343 208.292 118.363C204.597 119.393 200.922 120.82 197.053 118.565C195.202 118.141 191.327 116.15 185.478 118.228C181.826 119.64 178.136 120.359 174.306 118.565C168.793 116.956 163.993 118.447 159.916 120.786V114.527Z" fill="#0077D6"/>
<path d="M159.994 126C164.313 123.813 168.9 124.035 173.576 125.058C176.94 126.237 180.445 126.668 184.344 124.991C187.968 123.239 191.897 122.609 196.593 124.789C199.931 126.223 202.856 126.113 205.477 124.856C209.575 123.212 213.88 122.559 218.869 125.193C220.843 126.444 223.458 126.67 225.285 126.363C225.326 126.357 225.471 126.317 225.439 126.342C225.086 126.61 225.22 126.331 225.442 126.344C225.363 128.18 225.315 130.155 225.339 132.005C222.501 131.963 221.133 131.501 219.543 130.745C214.599 128.224 211.367 128.817 208.371 129.836C204.675 130.866 201 132.293 197.132 130.038C195.28 129.614 191.405 127.623 185.556 129.702C181.904 131.113 178.214 131.832 174.384 130.038C168.872 128.429 164.071 129.92 159.994 132.259L159.994 126Z" fill="#0077D6"/>
<path d="M159.969 137.935C164.288 135.748 168.875 135.97 173.551 136.993C176.915 138.172 180.419 138.603 184.319 136.926C187.942 135.174 191.872 134.545 196.568 136.724C199.905 138.158 202.831 138.048 205.451 136.791C209.55 135.147 213.855 134.494 218.844 137.128C220.992 138.489 223.869 138.642 225.692 138.211C225.702 138.209 225.719 138.194 225.721 138.204C225.729 138.257 225.731 138.309 225.736 138.358C225.773 138.7 225.791 138.845 225.793 138.926C225.795 138.98 225.808 139.069 225.81 139.075C225.829 139.127 225.822 139.146 225.799 139.146C225.805 139.156 225.815 139.164 225.816 139.176C225.899 139.816 225.953 140.227 225.996 140.504C226.066 140.955 226.075 141.114 226.094 141.237C226.123 141.416 226.148 141.646 226.271 142.399C226.332 142.772 226.513 143.68 226.543 144.009C223.704 143.967 221.107 143.436 219.517 142.68C214.573 140.159 211.342 140.752 208.345 141.771C204.649 142.801 200.975 144.229 197.106 141.973C195.255 141.549 191.38 139.559 185.53 141.637C181.879 143.049 178.188 143.767 174.358 141.973C168.846 140.364 164.045 141.855 159.969 144.194L159.969 137.935Z" fill="#0077D6"/>
<path d="M73.9848 145.962C77.083 143.626 84.6343 141.512 92.7347 139.425C86.4039 134.728 86.8516 128.133 86.6433 121.722C87.1066 115.381 85.6596 109.475 80.552 104.4C87.2694 107.919 92.2326 112.501 90.6408 121.056C89.834 127.022 92.6538 130.368 95.2093 133.905C92.76 129.318 92.635 123.762 93.2106 117.915C93.3016 112.001 91.9137 106.76 89.2131 102.116C92.2969 101.467 102.196 123.084 98.4453 123.626C98.2959 123.647 98.3256 125.74 98.9549 123.216C101.158 114.38 96.3245 97.914 95.3996 98.4037C100.588 102.686 103.142 108.724 104.537 115.536C106.418 106.73 107.161 98.044 104.251 89.7426C99.7102 84.8388 98.0403 78.8309 98.1598 72.1348C103.978 76.4299 107.336 81.764 105.108 89.457C106.92 92.933 107.29 98.4505 107.677 104.114C108.55 100.636 110.454 97.5995 113.103 94.8821C111.739 101.021 109.26 107.067 110.723 113.442C110.813 109.918 112.955 107.079 115.292 104.305C117.484 101.576 117.422 98.8478 117.957 96.1194C118.306 99.1334 118.878 102.147 117.766 105.161C116.364 108.827 116.189 112.186 116.815 115.345C118.471 109.272 121.144 104.078 128.331 102.782C124.36 106.399 122.861 110.015 122.43 113.632L121.954 121.056C125.064 111.529 130.525 109.318 135.85 106.684C131.855 110.659 127.745 114.572 127.95 120.77C126.987 133.919 122.931 136.387 119.289 140.282C129.274 140.407 133.839 142.339 140.379 143.613V145.962H73.6992H73.9848Z" fill="url(#paint4_linear_151_171)"/>
<path d="M96.1387 99.1138C105.495 110.488 104.071 124.803 106.2 138.148C106.745 124.01 105.538 107.425 96.1387 99.1138Z" fill="black" fill-opacity="0.226415"/>
<path d="M89.6445 102.21C93.3249 107.561 96.6179 113.449 97.9898 121.996C98.5625 128.125 98.2508 135.191 101.691 138.283C99.6873 134.266 99.6906 127.797 99.2012 121.929C98.873 117.719 95.7128 107.159 89.6445 102.21Z" fill="black" fill-opacity="0.15566"/>
<path d="M80.9609 104.633C86.2979 108.115 90.3198 112.394 89.7773 119.439C89.792 123.865 89.0884 130.187 96.9785 135.928C92.6787 131.159 90.557 126.248 90.9214 120.045C91.4415 114.045 89.2063 108.664 80.9609 104.633Z" fill="black" fill-opacity="0.188679"/>
<path d="M113.064 95.0088C109.428 100.304 107.515 106.659 106.199 113.382C106.188 105.602 108.589 99.5585 113.064 95.0088Z" fill="white" fill-opacity="0.433962"/>
<path d="M112.93 95.1431C110.974 101.342 110.333 107.339 110.709 113.18C110.459 121.72 113.114 134.088 109.363 138.013C111.124 133.603 109.756 121.795 109.767 113.247C109.54 106.7 110.466 100.614 112.93 95.1431Z" fill="black" fill-opacity="0.207547"/>
<path d="M117.843 95.8164C118.33 99.7854 118.042 103.533 116.026 106.786C114.26 109.462 114.161 112.245 115.555 117.891C116.495 127.005 114.788 134.032 112.324 138.687C115.937 137.205 118.343 128.194 117.17 118.295C116.639 115.033 115.66 111.219 117.246 107.007C118.343 103.514 118.868 102.086 117.843 95.8164Z" fill="black" fill-opacity="0.122642"/>
<path d="M128.275 102.815C122.657 108.2 121.908 114.469 122.151 120.919C121.328 128.144 120.817 135.808 116.699 138.35C119.053 134.66 120.558 129.117 120.939 121.121C121.076 113.964 121.944 107.141 128.275 102.815Z" fill="black" fill-opacity="0.127358"/>
<path d="M135.947 106.787C132.684 110.172 128.831 113.454 128.477 117.353C127.373 125.411 127.82 133.857 119.189 140.033C124.322 134.497 127.135 127.442 127.064 118.497C128.303 112.979 131.864 109.638 135.947 106.787Z" fill="black" fill-opacity="0.136792"/>
<path d="M74.0801 145.962C91.6668 136.048 114.428 136.64 140.38 143.708C117.613 139.599 95.0923 137.287 74.0801 145.962Z" fill="#F3E5A9"/>
<path d="M98.1582 72.3252C98.2102 80.0104 100.312 85.9646 104.821 89.8854C100.883 83.9573 99.1985 78.1273 98.1582 72.3252Z" fill="white" fill-opacity="0.504717"/>
<path d="M98.207 72.1826C104.085 77.4217 105.623 83.4119 104.917 89.7904C107.211 82.756 104.795 76.933 98.207 72.1826Z" fill="black" fill-opacity="0.136792"/>
<path d="M98.209 123.281L98.435 124.816L98.8158 123.924L99.0656 123.126L98.209 123.281Z" fill="#C1AC49"/>
<path d="M124.648 103.879C121.012 109.174 119.099 115.53 117.783 122.252C117.772 114.473 120.173 108.429 124.648 103.879Z" fill="white" fill-opacity="0.433962"/>
<path d="M84.5371 107.917C88.4699 112.619 88.3338 118.832 88.9116 127.031C89.2525 118.811 89.214 112.198 84.5371 107.917Z" fill="white" fill-opacity="0.433962"/>
<path d="M91.2383 107.076C95.1711 111.778 95.035 117.99 95.6128 126.19C95.9537 117.97 95.9152 111.357 91.2383 107.076Z" fill="white" fill-opacity="0.433962"/>
<path d="M97.5645 104.586C101.497 109.288 101.361 115.5 101.939 123.699C102.28 115.48 102.241 108.867 97.5645 104.586Z" fill="white" fill-opacity="0.433962"/>
<path d="M73.5664 147.389L73.9702 145.915H140.251V69.7227H141.674V147.389H73.5664Z" fill="white" fill-opacity="0.476415"/>
<path d="M67.7109 166.772L69.1243 163.542H141.674L140.251 165.193V166.772H67.7109Z" fill="black" fill-opacity="0.122642"/>
<path d="M141.676 163.542L140.252 165.193V245.72L141.676 246.195V163.542Z" fill="white" fill-opacity="0.136792"/>
<path d="M158.5 69.7227V147.389H227.14L227.044 145.915H161.73V69.7227H158.5Z" fill="black" fill-opacity="0.146226"/>
<path d="M161.73 245.72H159.926L158.5 246.489V163.542H231.518L232.47 166.772H161.73V245.72Z" fill="black" fill-opacity="0.221698"/>
<path d="M81.1361 69.7227L83.4679 71.5165C79.9575 77.2707 76.5042 83.0203 68.6203 89.1243C80.068 114.729 80.0241 132.498 75.7585 147.389C74.4543 154.104 72.0462 160.451 70.3334 165.193C59.3567 192.418 69.9866 234.056 117.732 243.216H140.25C143.111 243.321 147.347 244.898 150.729 249.688V255.78C149.124 250.601 145.662 247.218 140.25 245.72H118.493C105.739 244.477 94.799 239.205 86.3837 232.569C73.8281 222.667 66.0707 208.363 64.616 192.281C63.7593 182.809 65.3421 172.812 68.3823 165.193C70.3953 159.711 72.2884 153.942 73.855 147.389C78.5904 127.98 73.8063 108.3 66.0611 88.5346C75.8939 80.4064 79.1087 74.8352 81.1361 69.7227Z" fill="white" fill-opacity="0.245283"/>
<path d="M219.839 69.6313L217.507 71.4252C221.018 77.1793 224.471 82.9289 232.355 89.033C220.907 114.637 220.951 132.407 225.217 147.298C226.521 154.013 228.929 160.36 230.642 165.101C241.619 192.326 230.989 233.964 183.244 243.125H160.726C157.865 243.23 153.628 244.807 150.246 249.597V255.688C151.851 250.51 155.313 247.127 160.726 245.629H182.482C195.236 244.385 206.176 239.114 214.591 232.478C227.147 222.576 234.905 208.272 236.359 192.19C237.216 182.718 235.633 172.72 232.593 165.101C230.58 159.62 228.687 153.851 227.12 147.298C222.385 127.889 227.169 108.208 234.914 88.4433C225.081 80.3151 221.867 74.7438 219.839 69.6313Z" fill="black" fill-opacity="0.136792"/>
<path d="M89.8184 69.994C89.9792 62.9885 92.5083 59.0843 100.183 61.9179C108.34 63.2808 114.04 61.0221 117.681 59.4951L117.815 53.8419C116.477 54.2872 115.191 55.0219 113.508 53.5727C115.307 52.9243 116.846 51.9705 116.873 50.0731C116.928 40.9874 121.068 37.8441 124.949 34.3248L121.819 30.084C117.746 31.1996 109.66 30.6367 109.732 25.23C109.535 21.7497 113.473 20.8707 116.204 22.9457C112.328 22.9983 112.198 26.1248 115.537 27.6094C116.958 28.0737 119.329 29.1312 121.914 27.5142L121.819 25.5155C122.356 25.9431 122.468 28.02 122.924 27.3909C124.627 25.0388 127.637 26.4094 127.623 26.2228C127.543 25.194 128.426 24.1399 127.924 22.4535C126.218 17.3941 122.576 17.2155 122.581 20.1394C120.282 19.1754 119.207 18.2841 118.697 16.2467C115.077 14.5913 115.844 13.2087 115.823 11.81C116.533 10.6831 118.041 10.5536 119.44 10.2872C121.756 7.45247 124.072 6.76027 126.388 5.62348C126.5 4.60032 126.311 3.45039 129.719 3.81512L136.191 2.57782C138.584 1.66375 141.157 1.95741 143.652 3.11182C143.749 3.15682 143.501 3.56504 143.725 3.13306C144.47 1.69642 144.22 -0.0173468 144.383 0.0701097C144.611 0.193048 144.89 3.75535 145.117 3.89208C153.252 8.79695 159.986 22.4017 155.988 32.0827C156.448 33.9474 158.597 33.7231 160.461 33.6104L157.606 34.1766C161.955 37.4842 170.391 39.9821 178.164 38.8403C188.731 35.9256 193.407 42.3815 198.576 48.054C209.339 48.6624 207.92 31.0679 196.018 28.4023C191.603 31.26 187.26 32.4346 183.097 29.4791C180.297 27.7703 176.467 30.0129 180.001 34.4594C174.958 34.7134 173.844 30.7848 175.155 28.4023C164.796 28.1286 158.458 19.3272 160.349 10.0966C162.527 4.29824 167.077 -1.01088 177.444 2.55894C180.233 3.12354 185.741 8.69389 186.462 2.55894C188.24 6.26475 183.819 9.03019 181.751 6.46237C187.239 14.8199 194.204 7.36849 188.75 5.78936C192 2.28119 196.329 8.78379 191.442 12.3848C184.936 16.9794 179.521 15.079 177.04 10.0966C178.869 19.2053 168.885 18.0891 167.752 14C169.693 16.0834 172.518 15.7838 172.329 12.654C172.187 9.16911 161.626 9.90383 164.791 18.3072C167.486 22.4489 171.127 24.5924 177.04 21.9415C175.861 21.3582 175.834 20.7749 175.694 20.1917C177.464 20.4488 179.227 20.7406 181.347 19.2495C185.159 12.8692 198.386 16.0191 197.634 23.2875C204.8 24.3417 220.601 44.3093 200.729 52.8997L201.402 59.3605C203.563 62.8146 205.487 66.2903 204.902 69.994H89.8184Z" fill="#AA0000"/>
<path d="M138.293 14.4521C142.094 15.3198 142.567 17.8176 141.69 20.976C141.967 18.2928 141.195 15.9882 138.293 14.4521Z" fill="black" fill-opacity="0.139535"/>
<path d="M127.945 12.0058C130.931 14.1924 133.622 14.094 135.495 7.62793C136.171 6.25649 138.252 6.50218 139.969 6.68369C138.821 7.6562 137.956 7.6544 137.033 11.4049C135.777 17.5653 132.743 17.7484 127.945 12.0058Z" fill="black" fill-opacity="0.0471698"/>
<path d="M128.295 11.8767C131.244 12.112 133.159 9.69482 135.111 7.37012C133.621 10.5524 132.638 14.8258 128.295 11.8767Z" fill="white" fill-opacity="0.251163"/>
<path d="M127.615 11.5359C130.887 11.6961 131.995 10.263 132.657 8.50098C132.53 10.1149 131.777 12.5675 127.615 11.5359Z" fill="black" fill-opacity="0.265116"/>
<path d="M127.37 8.43984C127.37 8.43984 131.654 7.95764 131.621 8.19706C131.249 10.9128 127.101 11.9185 127.37 8.43984Z" fill="white" fill-opacity="0.455814"/>
<path d="M127.32 8.50034C127.295 8.48466 127.526 9.97982 127.864 9.98742C127.966 9.99046 127.889 9.50184 127.889 9.50184L128.136 9.25907L128.482 9.22867L128.877 9.35008L129.05 9.59286L129.124 9.95705L129.001 10.2605L128.877 10.4123C130.343 10.7382 131.173 9.27521 131.868 7.98438C131.76 10.4487 127.168 12.8651 127.32 8.50034Z" fill="black"/>
<path fill-rule="evenodd" clip-rule="evenodd" d="M129.175 9.8666C129.175 10.2772 128.857 10.6101 128.464 10.6101C128.072 10.6101 127.754 10.2772 127.754 9.8666C127.754 9.45594 128.072 9.12305 128.464 9.12305C128.857 9.12305 129.175 9.45594 129.175 9.8666Z" fill="black"/>
<path fill-rule="evenodd" clip-rule="evenodd" d="M128.285 9.64667C128.285 9.74305 128.218 9.82118 128.137 9.82118C128.055 9.82118 127.988 9.74305 127.988 9.64667C127.988 9.5503 128.055 9.47217 128.137 9.47217C128.218 9.47217 128.285 9.5503 128.285 9.64667Z" fill="white"/>
<path d="M129.57 4.82812C126.693 5.17815 125.136 7.97772 127.123 9.04664C126.782 9.57771 130.126 9.43396 131.152 7.2257C131.361 6.85363 131.819 6.27011 132.532 6.78958C134.208 8.01081 136.043 7.44324 136.491 4.88882C135.456 5.89482 134.417 6.85709 133.253 6.0421C132.08 4.71217 131.009 5.5215 129.966 6.92221C128.715 8.53824 127.344 7.30059 129.57 4.82812Z" fill="#930000"/>
<path d="M137.488 10.761C138.027 8.71522 138.867 7.08006 141.158 7.41322C142.246 7.93444 143.237 7.27174 144.234 6.68359C143.318 7.30038 142.65 8.83162 141.403 8.22871C139.418 7.48622 138.601 9.46828 137.488 10.761Z" fill="#D65252"/>
<path d="M137.943 11.276C137.824 10.2267 139.523 7.70165 141.753 8.7437C143.274 8.82129 143.754 7.68022 144.34 6.64062C144.347 7.5557 144.113 8.57218 142.907 10.16C141.22 11.953 140.278 11.8884 137.943 11.276Z" fill="black" fill-opacity="0.141509"/>
<path d="M141.797 3.68744C143.166 3.08151 144.296 2.20137 144.274 0C144.712 1.27623 144.565 3.10131 142.693 4.23149L141.797 3.68744Z" fill="#D65252"/>
<path d="M143.221 4.71527C144.531 4.12351 145.037 2.8084 144.38 0.121094C146.743 3.08675 145.93 5.42223 145.012 7.13326C145.054 5.67524 143.993 4.93027 143.221 4.71527Z" fill="#8E0000"/>
<path d="M120.898 20.5448L122.17 20.1983L122.862 20.7412L122.883 19.1497L124.11 18.2106L126.05 20.0313L128.115 20.1673L128.567 21.0452L129.593 21.3887L129.694 22.8994L128.655 23.1138L128.708 24.5136L129.111 25.973L128.755 27.4413L128.242 28.2757C128.242 28.2757 129.429 27.29 129.449 27.0896C129.47 26.8893 130.113 25.399 130.113 25.399C130.113 25.399 130.648 23.9169 130.633 23.7194C130.618 23.5218 130.432 22.0456 130.432 22.0456L131.574 22.355C131.574 22.355 132.319 24.5333 132.035 25.0521C131.75 25.5709 131.128 27.8048 131.128 27.8048L129.74 29.452L128.418 30.1004L127.319 29.887L126.134 29.4815L124.066 29.615C123.999 30.1091 124.383 30.5684 125.132 30.9996L124.094 29.5879C123.356 31.2758 124.082 28.8793 123.075 30.2366C123.348 29.5051 123.165 31.5094 124.264 31.162L126.879 30.8957L126.863 30.8667L125.881 29.9483L127.22 30.9381L127.817 32.1341L128.487 30.2712L128.487 30.2008C130.301 30.7676 128.908 32.183 128.842 33.2475C129.244 32.5349 130.095 31.4452 130.079 30.446L130.284 29.9566L130.719 30.9168L130.697 32.5083L130.421 34.0697L131.05 31.9346L131.611 29.8543L132.059 28.1802L132.895 29.656L133.151 31.5739L133.215 33.8047L133.574 31.4419C133.574 31.4419 133.503 30.0562 133.441 29.7133C133.378 29.3703 132.544 27.4473 132.544 27.4473L132.643 25.4524L132.721 23.6578L134.099 26.0854L135.864 28.3838L136.702 30.3562C136.702 30.3562 136.136 28.1641 135.985 28.0764C135.834 27.9887 134.426 26.1099 134.339 25.9179C134.252 25.7258 132.657 22.8182 132.8 22.8071C132.944 22.7961 134.47 23.8708 134.521 24.0656C134.572 24.2604 136.536 27.7358 136.536 27.7358L137.852 30.7644C137.852 30.7644 136.878 27.9579 136.772 27.5189C136.666 27.0799 134.87 23.4425 134.819 23.2477C134.767 23.0529 133.431 20.2247 133.431 20.2247L131.525 18.434L132.942 19.9643L133.978 22.1698L132.758 21.3199L131.576 19.5727L128.92 16.9456L130.944 19.3234L132.231 21.5095C132.231 21.5095 130.435 21.1511 130.312 20.9619C130.19 20.7726 128.972 19.0282 128.972 19.0282L127.056 18.0333L125.616 17.1505L125.266 15.8858L125.091 16.8929L124.159 16.9648L123.703 16.205L123.562 17.6566L122.464 18.3872L121.628 19.2465L120.601 19.0276L118.528 16.0077L119.354 14.5529L120.469 13.5727L119.948 11.0293L119.827 12.7279L118.74 14.5505L118.178 14.743L117.718 13.9338L117.346 12.3726L117.145 13.978L117.247 15.3115L118.184 16.2329L120.152 19.7577L120.898 20.5448Z" fill="#9A0000"/>
<path d="M161.604 66.8218C160.605 64.6132 163.106 61.4144 169.98 64.4423C178.004 63.842 188.432 64.7445 192.822 61.8726C189.105 63.2159 193.634 65.9534 171.312 65.2038C168.875 64.905 167.598 65.6011 166.934 66.8218C167.975 65.1641 165.174 64.2064 164.364 66.6314C164.807 66.1372 164.163 64.4327 161.604 66.8218Z" fill="#D65252"/>
<path d="M129.154 56.3013C132.088 54.0691 132.254 50.1245 132.889 46.4697C133.062 50.6243 133.646 55.0325 129.154 56.3013Z" fill="white" fill-opacity="0.102326"/>
<path d="M144.953 34.8306C143.407 37.1335 142.644 39.9175 139.48 41.2275C134.366 42.8609 133.059 46.5819 131.168 49.9827C133.749 47.3764 135.449 44.4982 139.601 42.3765C145.196 40.4054 143.578 37.3742 144.953 34.8306Z" fill="white" fill-opacity="0.227907"/>
<path d="M155.699 20.5947C158.272 25.5267 156.52 30.0162 154.721 34.5008C157.317 29.8654 159 25.2301 155.699 20.5947Z" fill="black" fill-opacity="0.306977"/>
<path d="M121.263 47.4982C119.665 44.2725 123.217 42.6435 124.868 43.508C127.036 43.635 127.955 41.9811 128.673 40.0411C130.817 34.9752 132.521 36.2417 134.28 36.705C132.113 36.3823 130.325 37.3619 129.223 40.6952C128.273 43.7089 126.803 44.9594 125.318 44.4892C121.912 43.7013 121.059 45.5532 121.263 47.4982Z" fill="#D65252" fill-opacity="0.306604"/>
<path d="M121.771 47.2407C122.434 45.9907 123.214 44.9636 125.051 45.9583C127.269 48.2002 128.585 46.5552 130.044 45.5309C133.227 45.2919 135.418 43.131 136.23 42.2823C135.631 42.473 139.603 38.6243 139.161 38.4414C138.693 38.2479 135.97 41.7189 135.237 41.9206C134.61 43.2229 131.029 44.031 129.448 44.676C128.381 45.5509 127.446 46.821 125.423 44.847C122.794 44.1501 121.822 45.2071 121.771 47.2407Z" fill="#9B0000"/>
<path d="M153.629 30.6885C152.551 33.4592 152.019 36.8086 149.813 38.3847C146.248 40.3498 145.336 44.8267 144.018 48.9183C145.817 45.7826 147.002 42.3198 149.897 39.7671C153.798 37.3956 152.67 33.7487 153.629 30.6885Z" fill="white" fill-opacity="0.227907"/>
<path d="M138.037 49.057C139.455 46.6473 140.064 43.814 143.15 42.2789C148.164 40.2808 149.265 36.473 150.967 32.9429C148.533 35.7298 146.994 38.7246 142.966 41.1408C137.49 43.5106 139.271 46.4194 138.037 49.057Z" fill="#AE0000"/>
<path d="M148.643 49.6619C149.147 47.2859 148.768 44.824 151.096 42.6255C155.043 39.4508 154.793 36.0535 155.186 32.6904C153.873 35.6875 153.451 38.5707 150.55 41.7709C146.301 45.3882 148.903 47.1609 148.643 49.6619Z" fill="black" fill-opacity="0.127358"/>
<path d="M132.912 41.8952C134.324 40.3679 135.247 38.2962 137.669 37.8929C141.517 37.6282 142.954 34.9177 144.761 32.5825C142.574 34.1416 140.975 36.0977 137.741 36.9491C133.505 37.386 134.236 40.1405 132.912 41.8952Z" fill="#AE0000"/>
<path d="M89.8282 69.9936C88.4944 63.4999 92.9099 58.2869 100.41 61.9171C107.387 61.8503 112.658 61.3909 117.624 59.3136C120.127 59.3832 124.592 58.5828 128.1 57.6851C125.313 59.5641 122.004 60.66 118.202 61.0163C114.367 63.4167 107.483 63.5731 101.471 63.9134C98.2906 64.0933 96.4024 66.5363 96.7867 69.9936C95.6812 67.2964 95.136 64.7465 98.7854 63.3005C92.1282 61.5962 90.6389 66.4617 89.8282 69.9936Z" fill="#D65252"/>
<path d="M136.191 59.7788L134.669 64.5377C137.816 69.1612 133.301 69.5823 128.768 69.9935H161.509C160.512 66.0917 161.804 64.7321 163.031 63.3004C155.179 68.3526 139.568 72.1289 136.191 59.7788Z" fill="#9B0000"/>
<path d="M177.784 44.5508C174.819 48.8299 173.956 54.3102 178.069 62.6345C172.404 54.433 173.054 48.6957 177.784 44.5508Z" fill="#D65252"/>
<path d="M168.643 63.9522C172.737 64.1243 175.118 61.2622 174.518 55.4717C175.049 57.2597 176.693 60.9706 178.924 63.8693C176.659 64.1893 174.988 64.1627 173.619 64.3097C170.411 64.654 169.048 64.3349 168.643 63.9522Z" fill="#9B0000"/>
<path d="M113.51 53.7741C117.738 54.429 121.294 50.1547 125.018 47.1113C121.544 50.9416 118.507 56.7121 113.51 53.7741Z" fill="#9B0000"/>
<path d="M119.477 57.2187C123.73 56.7562 126.058 51.7067 128.867 47.8027C126.503 52.4021 125.064 58.7623 119.477 57.2187Z" fill="#9B0000"/>
<path d="M128.74 56.2633C132.962 55.569 135.011 50.3998 137.602 46.3481C135.493 51.0698 134.404 57.4992 128.74 56.2633Z" fill="#9B0000"/>
<path d="M137.924 54.0669C141.909 52.5084 142.835 47.026 144.526 42.5234C143.447 47.5807 143.72 54.096 137.924 54.0669Z" fill="#9B0000"/>
<path d="M137.594 53.8447C140.528 51.6126 140.694 47.668 141.328 44.0132C141.502 48.1678 142.085 52.576 137.594 53.8447Z" fill="white" fill-opacity="0.102326"/>
<path d="M120.652 57.0801C123.586 54.848 123.753 50.9033 124.387 47.2485C124.56 51.4031 125.144 55.8113 120.652 57.0801Z" fill="white" fill-opacity="0.102326"/>
<path d="M112.904 53.6799C116.473 52.7542 118.15 49.1798 120.146 46.0537C118.702 49.9529 117.537 54.2443 112.904 53.6799Z" fill="white" fill-opacity="0.102326"/>
<path d="M148.948 19.3032C149.125 21.1439 149.903 22.9232 148.842 24.8908C146.924 27.8152 147.817 30.3093 148.279 32.8693C148.501 30.4512 148.161 28.2445 149.385 25.4496C151.406 22.1527 149.313 21.2022 148.948 19.3032Z" fill="black" fill-opacity="0.227907"/>
<path d="M143.558 23.3896C143.778 25.2258 144.596 26.9866 143.581 28.9782C141.731 31.946 142.681 34.4188 143.202 36.9675C143.368 34.5449 142.977 32.3467 144.136 29.5243C146.081 26.1818 143.967 25.2797 143.558 23.3896Z" fill="black" fill-opacity="0.117925"/>
<path d="M144.775 8.88623C145.997 10.2746 147.669 11.2617 147.961 13.4782C148.118 16.9718 150.302 18.471 152.175 20.2761C150.939 18.1858 149.372 16.596 148.728 13.6136C148.436 9.75753 146.183 10.2119 144.775 8.88623Z" fill="black" fill-opacity="0.227907"/>
<path d="M151.898 16.2856C152.532 18.0231 153.731 19.5505 153.197 21.7213C152.073 25.0331 153.563 27.2236 154.652 29.5862C154.26 27.1897 153.378 25.1388 153.862 22.1263C154.992 18.4281 152.728 18.0324 151.898 16.2856Z" fill="black" fill-opacity="0.227907"/>
<path d="M144.855 13.9111C145.503 15.6432 146.715 17.1607 146.199 19.3359C145.103 22.6569 146.611 24.835 147.719 27.1884C147.308 24.7952 146.408 22.7517 146.867 19.7353C147.967 16.0278 145.7 15.651 144.855 13.9111Z" fill="white" fill-opacity="0.227907"/>
<path d="M151.213 25.2222C151.146 27.0702 151.681 28.9366 150.37 30.7467C148.082 33.3919 148.638 35.9821 148.757 38.5808C149.297 36.2132 149.251 33.9809 150.834 31.3723C153.273 28.3716 151.324 27.1528 151.213 25.2222Z" fill="white" fill-opacity="0.227907"/>
<path d="M145.746 6.35352C147.193 7.50496 149.013 8.18213 149.691 10.3125C150.461 13.7239 152.875 14.8147 155.037 16.2616C153.452 14.4217 151.629 13.133 150.469 10.3107C149.503 6.56627 147.366 7.41043 145.746 6.35352Z" fill="white" fill-opacity="0.227907"/>
<path d="M125.994 35.5435C125.144 36.9852 124.693 38.7524 123.02 39.5224C120.325 40.4566 119.572 42.8124 118.521 44.95C119.916 43.3366 120.857 41.5297 123.06 40.2613C126.012 39.1212 125.228 37.1432 125.994 35.5435Z" fill="white" fill-opacity="0.227907"/>
<path d="M122.199 30.1786L124.959 34.652C132.395 37.1222 135.572 33.3129 136.095 31.987L136.381 34.8423L137.999 29.7979L139.141 31.7966L138.76 25.8957L139.902 26.7523L137.332 21.3271L138.379 24.6584L137.142 23.6114L138.475 28.751L137.332 27.704L136.761 31.7015L136.095 30.4642C131.243 35.9718 124.938 34.5303 122.199 30.1786Z" fill="#9B0000"/>
<path d="M118.32 28.402C121.065 28.4118 121.796 27.4737 123.132 26.8205C124.824 25.5405 126.762 25.9801 128.718 26.5513C127.104 26.7963 125.502 26.0169 123.873 27.4598C122.012 27.8916 120.1 28.937 118.32 28.402Z" fill="#B71919"/>
<path d="M126.978 33.8372C120.168 34.4733 120.134 27.2295 121.6 25.2713C126.811 30.2507 130.46 29.143 131.356 22.3208C132.868 34.8396 121.764 28.7473 122.124 26.9845C121.557 30.0011 124.76 31.668 126.978 33.8372Z" fill="#BD3A3A"/>
<path d="M121.72 25.6428C120.685 32.6711 127.765 38.5405 136.19 30.7576L136.93 27.6618L134.642 20.1914L129.056 16.6245C129.856 18.6195 131.366 20.0238 131.209 22.8161C130.733 33.7673 122.277 27.1199 121.72 25.6428Z" fill="#AA0000"/>
<path d="M166.742 25.8957C151.829 11.0901 166.924 -2.65908 177.878 3.43387C182.566 6.75629 186.315 7.12817 186.539 2.86281C185.405 5.85978 183.145 5.79947 178.544 2.76763C166.395 -5.02599 149.216 10.9721 166.742 25.8957Z" fill="#BD3A3A"/>
<path d="M179.877 34.4618C168.775 33.7894 175.408 22.2315 185.017 26.7525C175.525 25.7286 172.447 31.5134 179.877 34.4618Z" fill="#BD3A3A"/>
<path d="M175.498 20.0898C175.969 24.1891 180.841 22.4202 185.777 20.5657C182.196 20.8092 177.934 22.8234 175.498 20.0898Z" fill="#950000"/>
<path d="M195.486 27.9897C207.923 32.6576 208.091 47.8991 198.532 48.2625C211.926 49.0399 207.793 30.1496 195.486 27.9897Z" fill="#BD3A3A"/>
<path d="M197.77 23.2305C212.176 29.308 213.469 49.1428 199.673 52.9258C201.356 55.21 200.46 57.4943 199.959 59.7785C201.68 62.6838 204.195 64.939 203.29 69.9932H205.003C205.238 67.0246 205.189 63.9382 201.862 59.493C202.116 57.3356 201.862 55.1783 201.101 53.0209C214.927 48.4384 214.461 30.0051 197.77 23.2305Z" fill="#9B0000"/>
<path d="M171.657 16.8937C175.938 17.499 179.514 9.7302 171.59 6.79868C178.958 6.3573 180.339 18.6966 171.657 16.8937Z" fill="#950000"/>
<path d="M81.1055 69.5898L83.9321 72.1472L217.322 71.7434L219.744 69.5898H81.1055Z" fill="white" fill-opacity="0.476415"/>
<path opacity="0.103175" d="M89.6337 66.6956L89.5664 68.2435L89.9029 69.8587H204.987L204.852 66.4937C193.995 69.7568 170.794 69.1224 161.24 66.5701C152.94 68.9654 144.641 68.1262 136.341 66.6137C115.679 69.8272 112.239 67.4545 103.901 66.6706C99.4516 69.7496 97.8844 68.1449 96.2288 66.6841C93.9077 68.4062 91.6029 69.8994 89.6337 66.6956Z" fill="url(#paint5_linear_151_171)"/>
<path d="M204.321 288.369C199.777 287.242 198.464 286.851 195.554 285.763C190.313 283.804 185.906 280.751 183.136 277.161C182.369 276.167 182.049 275.937 180.636 275.364C179.745 275.003 178.901 274.714 178.762 274.722C178.623 274.731 175.934 275.211 172.787 275.789C169.639 276.367 165.424 277.064 163.42 277.338L159.775 277.835L161.593 278.438C162.754 278.823 164.032 279.094 165.125 279.185C168.163 279.44 169.247 279.745 171.099 280.864C172.814 281.9 175.296 284.67 174.815 285.013C174.392 285.314 170.906 285.885 169.491 285.885C167.56 285.885 166.2 285.388 163.655 283.751C161.452 282.334 159.113 281.036 156.544 279.803C154.797 278.964 154.782 278.961 152.405 278.891C151.093 278.853 149.252 278.891 148.315 278.975C147.196 279.077 146.555 279.068 146.451 278.951C146.132 278.591 141.26 281.052 137.148 283.651C134.239 285.49 133.437 285.775 131.148 285.78C129.463 285.78 125.79 285.172 125.79 284.888C125.79 284.644 127.113 282.917 127.88 282.159C129.774 280.289 131.911 279.409 135.112 279.181C136.569 279.077 137.641 278.869 139.053 278.415C140.691 277.889 140.899 277.777 140.392 277.695C140.062 277.642 137.82 277.313 135.409 276.965C130.83 276.304 127.616 275.751 124.022 275.005L121.889 274.563L120.254 275.243C118.809 275.845 118.482 276.087 117.435 277.33C113.564 281.927 108.434 284.972 100.953 287.115C97.9313 287.981 92.4317 289.298 92.2845 289.192C92.2211 289.145 92.7013 288.641 93.3516 288.07C94.002 287.499 95.6179 285.96 96.9425 284.649C101.791 279.853 104.511 277.906 108.015 276.723C110.415 275.914 112.426 275.604 115.451 275.579C118.07 275.557 118.173 275.54 119.43 274.956L120.722 274.355L116.377 273.265C113.988 272.666 110.504 271.725 108.635 271.175L105.238 270.175L103.753 271.279L102.268 272.383L102.362 273.618C102.444 274.693 102.381 274.934 101.88 275.469C100.72 276.707 99.0177 276.632 98.0918 275.302C97.1583 273.96 97.5497 272.505 99.0595 271.703C99.6326 271.398 99.8428 271.377 100.607 271.547C101.482 271.741 101.504 271.734 102.814 270.761C103.542 270.221 104.106 269.769 104.067 269.757C104.029 269.745 102.155 269.074 99.905 268.266C97.0441 267.238 95.7256 266.848 95.5219 266.971C95.3618 267.067 94.2999 267.274 93.1623 267.43C91.237 267.695 91.0095 267.774 89.875 268.569C85.9365 271.329 81.684 272.843 76.1895 273.444C73.752 273.71 66.917 273.769 63.5751 273.552L61.8706 273.442L63.4534 272.661C64.3239 272.231 66.351 271.152 67.9582 270.263C69.5653 269.374 71.5775 268.307 72.4296 267.892C77.7597 265.292 83.1185 264.889 88.8506 266.657L90.5983 267.196L92.7318 266.884C93.9053 266.712 94.8654 266.524 94.8654 266.467C94.8654 266.411 94.0288 266.019 93.0063 265.597C88.5729 263.769 82.4724 260.655 77.8746 257.874C74.8496 256.044 75.0706 256.086 72.8283 256.894C71.0545 257.533 70.7584 257.773 70.7584 258.573C70.7584 260.495 68.614 261.637 67.0172 260.564C65.4244 259.494 65.5326 257.408 67.231 256.439C68.1141 255.936 68.833 255.956 69.6541 256.508C70.2583 256.914 70.3659 256.932 70.7311 256.693C70.9544 256.546 71.7739 256.215 72.5525 255.957L73.968 255.487L70.7084 253.08C68.9156 251.757 66.9482 250.26 66.3366 249.755C65.4439 249.017 64.864 248.732 63.3974 248.31L61.5703 247.784L60.0159 248.162C57.7097 248.724 51.9599 248.723 49.2743 248.162C47.1166 247.71 43.7861 246.655 41.2286 245.614C38.7223 244.594 32.7338 241.732 32.8815 241.625C32.9498 241.576 33.857 241.478 34.8976 241.407C35.9382 241.335 38.7052 241.099 41.0465 240.88C44.7528 240.533 45.5887 240.507 47.5088 240.678C52.3844 241.112 56.0177 242.645 59.8491 245.882C60.8321 246.713 61.6864 247.25 62.3387 247.446C63.9085 247.919 64.0739 247.831 63.1545 247.014C58.6773 243.038 54.4091 238.192 50.523 232.674C47.8387 228.863 47.9279 228.92 44.6731 228.893C43.0625 228.88 43.0596 228.88 42.9106 229.42C42.8281 229.718 42.4397 230.194 42.0466 230.479C39.5487 232.29 36.6674 228.787 39.001 226.776C40.1598 225.778 41.8097 225.987 42.6646 227.24C43.0988 227.877 43.171 227.906 44.1682 227.854C44.7444 227.824 45.7579 227.914 46.4206 228.055C47.0833 228.196 47.6256 228.298 47.6256 228.281C47.6256 228.265 47.2516 227.608 46.7945 226.823C45.511 224.617 43.5692 220.607 42.2899 217.521L41.13 214.723L39.2034 213.082C38.0959 212.139 37.0178 211.391 36.6679 211.322C33.3872 210.682 30.0488 209.22 27.5188 207.318C24.4552 205.014 22.9528 203.08 19.3533 196.808C18.1717 194.748 16.9196 192.656 16.5709 192.157C16.2222 191.658 16.0813 191.311 16.2578 191.386C16.4343 191.46 18.1647 192.402 20.103 193.477C24.1382 195.717 29.3468 199.368 31.4531 201.434C34.0386 203.97 36.2938 207.284 37.5196 210.347C37.805 211.061 38.26 211.595 39.236 212.361C39.9663 212.935 40.5639 213.312 40.5639 213.198C40.5639 213.085 40.2838 212.139 39.9415 211.096C39.0158 208.276 37.7346 202.902 37.1547 199.404L36.6424 196.316L35.4985 195.457C34.8693 194.984 33.9244 194.367 33.3986 194.086L32.4427 193.573L31.8158 193.992C30.9267 194.586 30.426 194.671 29.4871 194.386C28.2536 194.013 27.7598 193.138 27.865 191.512C27.9191 190.677 29.1821 189.697 30.2047 189.697C31.58 189.697 32.7656 190.896 32.7704 192.292C32.7704 192.552 33.1272 192.858 33.8489 193.218C34.4413 193.513 35.2753 194.053 35.7022 194.418L36.4783 195.08L36.3281 193.492C36.2456 192.618 36.1059 189.525 36.0177 186.617L35.8574 181.331L34.5647 179.36C33.769 178.147 33.0393 177.279 32.6664 177.102C31.4381 176.518 28.8166 174.603 27.463 173.3C23.9228 169.893 22.3867 166.606 20.6061 158.628C20.2047 156.83 19.669 154.626 19.4157 153.731C19.1623 152.836 18.9871 152.103 19.0261 152.103C19.0652 152.103 19.9742 152.999 21.0462 154.095C27.3437 160.529 30.9619 165.643 32.6269 170.464C33.2748 172.339 33.9758 175.639 33.9846 176.854C33.9929 177.506 35.6002 180.166 35.9908 180.166C36.0953 180.166 36.1822 179.471 36.1839 178.622C36.1839 176.891 36.6771 172.561 37.3101 168.667L37.7305 166.08L36.6172 164.431C35.1185 162.21 34.9887 162.098 34.1738 162.323C32.5806 162.762 31.0673 161.61 31.0673 159.959C31.0673 158.407 31.916 157.574 33.4974 157.574C35.0613 157.574 36.2656 159.238 35.7339 160.663C35.5038 161.28 35.5343 161.433 35.9759 161.875C36.2538 162.154 36.8314 162.929 37.2596 163.599L38.0379 164.817L38.4685 162.829C38.7052 161.735 39.2608 159.61 39.7031 158.106L40.5072 155.373L39.546 153.194C38.6772 151.224 38.4454 150.894 37.1335 149.762C34.357 147.365 32.5792 145.086 31.3264 142.317C29.9589 139.294 29.4998 136.949 29.1276 131.087C28.9955 129.007 28.8223 126.511 28.7425 125.54L28.5975 123.775L29.2481 124.57C30.9432 126.639 34.2786 131.861 35.8194 134.857C38.2414 139.567 39.1185 142.822 39.2547 147.602C39.346 150.804 39.4157 151.276 40.0054 152.677C40.363 153.526 40.7271 154.221 40.8145 154.221C40.9019 154.221 41.109 153.764 41.2746 153.206C41.4402 152.648 42.5207 149.928 43.6755 147.161L45.7754 142.131L45.6832 140.454C45.4293 135.838 45.5634 131.364 45.9989 129.918C46.9197 126.862 48.5297 123.953 51.3515 120.245C52.1644 119.177 53.5647 117.28 54.4634 116.03L56.0975 113.755L55.9878 114.971C55.1392 124.374 54.1089 129.351 52.1036 133.736C51.0825 135.969 49.2812 138.702 47.7468 140.348C46.9564 141.195 46.4009 142.08 45.9179 143.26C44.9385 145.653 42.9639 151.409 43.0546 151.606C43.0963 151.697 43.7373 151.27 44.4791 150.657C45.6553 149.686 45.9295 149.31 46.6231 147.713C47.6616 145.323 50.1245 141.829 52.1752 139.836C54.0203 138.044 58.5225 134.707 61.2618 133.103C63.9594 131.523 67.4162 129.678 67.5276 129.758C67.5809 129.797 67.3025 130.293 66.9086 130.861C66.5146 131.429 65.2938 133.483 64.1955 135.424C60.6881 141.624 58.3519 144.423 54.8766 146.589C53.1007 147.695 49.7278 149.047 47.6742 149.475C46.7056 149.677 45.2463 150.685 42.8412 152.813C42.3447 153.252 40.4409 160.443 39.7782 164.382L39.687 164.925L41.0945 164.118C42.2841 163.436 42.5027 163.222 42.507 162.741C42.5228 160.913 44.5029 159.681 46.1117 160.497C47.8997 161.405 47.7653 164.208 45.9003 164.907C44.9534 165.262 44.6091 165.232 43.7739 164.723C43.376 164.48 42.935 164.281 42.794 164.281C42.6529 164.281 41.8313 164.778 40.9682 165.385C39.182 166.64 39.3425 166.238 38.73 170.997C38.4121 173.468 37.8841 181.898 38.0361 182.077C38.0628 182.109 38.5243 181.712 39.0612 181.195C39.857 180.428 40.1574 179.899 40.6864 178.333C42.8919 171.805 47.5897 166.546 56.791 160.306C58.3249 159.266 59.6312 158.452 59.6936 158.497C59.7561 158.543 59.5218 159.128 59.173 159.798C58.8243 160.468 57.934 162.366 57.1947 164.017C55.5597 167.666 54.1937 170.304 53.1879 171.754C50.6358 175.433 47.3866 177.882 42.7717 179.602C40.8391 180.323 40.5818 180.486 39.2724 181.816L37.8592 183.251L38.0003 185.989C38.0779 187.494 38.2658 190.024 38.4176 191.609L38.6936 194.492L39.2464 193.507C39.5504 192.965 40.0314 192.286 40.3153 191.997C40.7195 191.585 40.776 191.396 40.5759 191.125C40.1134 190.499 40.2693 189.098 40.8738 188.448C41.7136 187.545 42.4995 187.283 43.4834 187.578C45.0203 188.04 45.6468 189.945 44.7027 191.287C44.101 192.142 43.4463 192.411 42.2512 192.295L41.3301 192.205L40.366 193.643C38.9057 195.82 38.8757 195.978 39.3861 198.787C40.387 204.296 43.1126 213.701 43.708 213.701C44.1903 213.701 44.706 211.923 44.7067 210.259C44.7067 205.81 46.1768 200.897 48.8995 196.227C50.5974 193.315 55.2313 186.866 56.5723 185.549C56.9022 185.225 56.92 185.265 56.7887 186.032C56.7104 186.491 56.421 188.755 56.1463 191.062C55.3792 197.505 54.8482 199.975 53.6704 202.581C52.3395 205.526 50.0671 208.316 47.182 210.547C45.7501 211.654 45.3096 212.142 44.7045 213.29L43.9686 214.687L44.5557 216.091C45.4959 218.34 47.4716 222.253 48.9092 224.713L50.2392 226.989L50.4141 225.974C50.5103 225.416 50.7429 224.584 50.931 224.125C51.2455 223.357 51.234 223.232 50.7885 222.563C49.3586 220.418 51.6457 217.772 53.9282 218.93C56.0992 220.033 55.243 223.354 52.7212 223.612C52.1884 223.667 52.0785 223.837 51.6019 225.349C51.3111 226.272 51.0646 227.286 51.054 227.603C51.0031 229.113 58.2389 237.991 63.5539 242.941C66.5334 245.716 66.4871 245.7 66.2734 243.923C66.136 242.782 65.8973 242.151 65.1715 241.012C64.0306 239.221 62.8345 236.551 62.2197 234.422C60.8932 229.829 60.687 222.577 61.6558 214.591L61.8155 213.274L62.7158 215.297C63.211 216.409 64.2324 218.55 64.9855 220.055C68.0049 226.087 68.981 229.635 68.7242 233.645C68.5662 236.112 68.1079 238.255 67.2331 240.617C66.6881 242.087 66.6619 242.347 66.878 244.123C67.0798 245.781 67.1964 246.117 67.7368 246.594C68.578 247.338 75.9393 252.717 76.0277 252.653C76.066 252.625 75.9361 252.213 75.7386 251.737C75.5411 251.261 75.31 250.33 75.2249 249.666C75.0854 248.578 74.9819 248.396 74.1635 247.803C73.1021 247.034 72.7721 246.075 73.1857 244.962C73.8639 243.136 76.3201 242.821 77.4562 244.413C78.2459 245.52 77.6537 247.728 76.4795 248.054C75.9089 248.213 76.062 249.654 76.9896 252.859C77.1862 253.538 79.7281 255.158 84.76 257.812C87.6461 259.334 93.4109 262.061 93.7424 262.061C94.2467 262.061 93.4161 260.551 92.1892 259.237C87.434 254.145 84.9798 247.496 83.9158 236.822C83.7755 235.414 83.6084 233.905 83.5444 233.468C83.4334 232.71 83.4911 232.761 84.8403 234.616C85.617 235.683 87.0572 237.59 88.0409 238.851C92.2031 244.192 93.7319 247.339 94.3844 251.912C94.6595 253.841 94.559 256.402 94.1157 258.759C93.9407 259.689 93.977 260.235 94.2781 261.194C94.6355 262.333 94.7451 262.466 95.6788 262.895C96.8173 263.418 104.611 266.297 104.888 266.297C104.986 266.297 104.866 265.875 104.622 265.36C104.377 264.845 104.103 264.111 104.011 263.728C103.881 263.179 103.684 262.976 103.084 262.767C101.345 262.163 100.726 260.47 101.728 259.061C102.638 257.78 104.286 257.648 105.433 258.765C106.196 259.507 106.162 261.399 105.372 262.202C104.716 262.869 104.752 263.204 105.725 265.436L106.315 266.789L109.296 267.672C114.239 269.135 123.287 271.347 123.549 271.157C123.608 271.114 123.404 270.64 123.097 270.103C122.706 269.419 122.259 268.985 121.613 268.66C120.177 267.939 116.986 265.443 115.643 263.991C112.189 260.255 109.535 255.566 106.568 247.956C106.024 246.562 105.58 245.339 105.58 245.238C105.58 245.136 105.989 245.405 106.489 245.835C106.99 246.266 108.881 247.732 110.692 249.094C112.502 250.457 114.701 252.221 115.577 253.015C119.77 256.813 121.938 261.128 122.608 267.003C122.771 268.438 122.936 268.882 123.753 270.086L124.706 271.492L128.962 272.252C136.06 273.52 147.592 274.945 150.759 274.945C153.881 274.945 164.186 273.671 171.611 272.366L176.157 271.568L177.123 269.947C177.929 268.593 178.112 268.063 178.232 266.724C178.536 263.344 179.824 259.787 181.763 256.97C182.956 255.237 183.845 254.266 185.679 252.693C187.51 251.123 195.037 245.301 195.14 245.376C195.262 245.464 193.104 250.877 191.971 253.324C188.541 260.738 184.809 265.383 179.974 268.259C178.62 269.065 178.063 269.534 177.663 270.208C177.373 270.697 177.191 271.136 177.257 271.184C177.738 271.533 193.69 267.366 194.381 266.711C194.7 266.41 195.551 264.455 195.804 263.444C195.932 262.935 195.854 262.688 195.438 262.28C194.365 261.228 194.494 259.415 195.704 258.538C196.677 257.833 197.459 257.846 198.479 258.586C199.874 259.597 199.873 261.393 198.478 262.485C198.155 262.737 197.681 262.943 197.425 262.943C197.048 262.943 196.902 263.148 196.67 264.002C196.512 264.584 196.218 265.347 196.016 265.698C195.814 266.048 195.682 266.36 195.724 266.39C195.819 266.459 201.74 264.331 204.234 263.332L206.096 262.586L206.484 261.341C206.782 260.384 206.821 259.823 206.651 258.916C205.803 254.373 206.253 250.127 207.995 246.222C208.747 244.536 210.926 241.23 213.307 238.162C214.294 236.891 215.554 235.196 216.106 234.395C216.658 233.594 217.151 232.939 217.2 232.939C217.249 232.939 217.249 233.276 217.2 233.689C217.152 234.101 216.995 235.551 216.853 236.91C215.695 247.97 213.158 254.667 208.231 259.674C207.583 260.332 207.116 261.033 207.004 261.514L206.823 262.291L207.763 261.883C211.983 260.054 219.369 256.199 222.552 254.165C223.621 253.482 223.791 253.187 224.278 251.17C224.791 249.041 224.765 248.422 224.142 248.013C222.434 246.892 222.588 244.425 224.415 243.643C225.335 243.249 225.708 243.275 226.559 243.794C227.505 244.371 227.967 245.653 227.592 246.661C227.298 247.452 226.483 248.294 226.011 248.294C225.801 248.294 225.648 248.71 225.543 249.574C225.457 250.277 225.231 251.271 225.041 251.783L224.696 252.712L225.641 252.169C226.679 251.574 232.787 247.011 233.321 246.433C233.504 246.234 233.756 245.221 233.881 244.182C234.099 242.362 234.078 242.206 233.31 239.954C232.286 236.948 231.845 233.972 232.046 231.425C232.323 227.912 233.216 225.269 236.1 219.437C237.012 217.592 238.025 215.488 238.352 214.76L238.946 213.436L239.11 214.76C240.58 226.653 239.502 234.976 235.736 240.818C234.817 242.243 234.639 242.707 234.505 244.021L234.349 245.558L234.981 245.029C239.368 241.353 244.938 235.157 248.419 230.08L249.834 228.015L249.521 226.667C249.349 225.925 249.057 224.948 248.871 224.496C248.588 223.804 248.433 223.668 247.903 223.647C245.266 223.538 244.758 219.488 247.3 218.845C249.542 218.279 251.267 220.685 249.99 222.596C249.537 223.274 249.493 223.495 249.713 223.979C249.858 224.296 250.113 225.106 250.281 225.778L250.587 227.002L252.149 224.278C253.008 222.78 254.412 220.051 255.27 218.214L256.83 214.873L256.158 213.538C255.609 212.446 255.133 211.913 253.557 210.618C251.288 208.755 250.126 207.551 248.921 205.814C246.413 202.202 245.581 199.379 244.614 191.197C244.339 188.867 244.056 186.564 243.985 186.079L243.855 185.196L244.879 186.432C246.75 188.692 249.965 193.114 251.1 194.992C254.411 200.469 255.705 204.347 256.049 209.818C256.176 211.847 256.332 212.736 256.654 213.259L257.088 213.965L257.429 213.171C258.665 210.296 260.355 204.217 261.28 199.321C261.912 195.978 261.887 195.822 260.33 193.576C259.372 192.193 259.336 192.17 258.497 192.399C257.892 192.565 257.676 192.54 257.106 192.237C255.312 191.283 255.067 189.171 256.611 187.976C257.225 187.501 258.387 187.452 259.203 187.867C260.253 188.4 260.78 190.043 260.253 191.142C260.103 191.454 260.297 191.892 261.073 193L262.09 194.45L262.359 191.676C262.844 186.683 262.936 183.567 262.612 183.128C262.45 182.908 261.783 182.196 261.13 181.545C260.189 180.608 259.672 180.272 258.646 179.932C255.727 178.963 252.771 177.28 250.695 175.406C248.055 173.022 246.448 170.472 243.626 164.193C242.71 162.154 241.688 159.986 241.355 159.373L240.75 158.26L242.381 159.314C244.842 160.904 249.943 164.729 251.596 166.223C255.933 170.144 258.591 173.967 260.081 178.428C260.629 180.07 260.952 180.57 262.278 181.83C262.474 182.017 262.668 182.136 262.709 182.095C262.749 182.053 262.7 180.232 262.601 178.048C262.39 173.425 261.582 166.924 261.159 166.458C260.998 166.28 260.212 165.718 259.411 165.21L257.956 164.285L257.236 164.724C255.443 165.818 253.387 164.732 253.387 162.693C253.387 161.57 253.841 160.915 254.91 160.498C255.643 160.211 255.82 160.202 256.429 160.418C257.433 160.775 258.037 161.466 258.219 162.467C258.363 163.258 258.526 163.445 259.813 164.296C260.761 164.923 261.201 165.126 261.112 164.895C261.037 164.703 260.902 164.069 260.812 163.487C260.608 162.177 259.1 155.973 258.588 154.342C258.247 153.253 258.026 152.982 256.268 151.493C254.35 149.868 254.299 149.841 252.213 149.298C251.051 148.996 249.336 148.416 248.401 148.01C246.406 147.141 243.403 145.041 242.015 143.543C240.623 142.041 238.558 138.992 236.591 135.534C235.66 133.898 234.511 131.944 234.038 131.19C233.564 130.437 233.176 129.788 233.176 129.748C233.176 129.634 235.74 131.025 238.886 132.847C246.903 137.491 251.625 142.125 254.16 147.838C254.865 149.428 255.141 149.801 256.298 150.73C257.029 151.317 257.664 151.717 257.709 151.619C257.808 151.404 255.881 145.812 254.872 143.387C254.386 142.217 253.786 141.251 253.052 140.45C248.467 135.452 246.099 128.846 245.115 118.304C244.97 116.751 244.813 115.142 244.766 114.73C244.719 114.317 244.714 113.98 244.755 113.98C244.844 113.98 248.054 118.417 250.819 122.363C252.825 125.225 253.992 127.462 254.732 129.864C255.292 131.682 255.483 136.611 255.099 139.307C254.755 141.719 254.508 140.803 257.405 147.867C258.38 150.245 259.316 152.648 259.487 153.206C259.657 153.764 259.861 154.221 259.94 154.22C260.019 154.22 260.385 153.601 260.753 152.846C261.377 151.566 261.423 151.277 261.423 148.65C261.423 141.754 263.317 136.746 269.278 127.879C270.762 125.671 272.019 123.895 272.07 123.933C272.178 124.011 271.771 130.169 271.382 134.365C270.968 138.829 269.824 142.406 267.94 145.131C266.882 146.662 264.867 148.855 263.422 150.05C262.313 150.967 262.061 151.335 261.227 153.249L260.285 155.411L260.963 157.772C261.336 159.071 261.884 161.189 262.179 162.48C262.475 163.77 262.796 164.763 262.893 164.686C262.99 164.609 263.192 164.266 263.343 163.923C263.494 163.58 263.994 162.885 264.455 162.378C265.199 161.559 265.264 161.396 265.036 160.921C264.62 160.056 264.99 158.901 265.91 158.193C267.636 156.867 269.702 157.905 269.702 160.099C269.702 161.738 268.189 162.846 266.559 162.4C265.896 162.219 265.839 162.247 265.118 163.114C264.705 163.61 264.069 164.49 263.705 165.07L263.043 166.123L263.452 168.6C264.035 172.129 264.582 177.007 264.585 178.71C264.588 179.511 264.674 180.166 264.78 180.166C264.885 180.166 265.341 179.63 265.793 178.975C266.487 177.969 266.663 177.453 266.925 175.665C267.859 169.299 270.555 164.207 276.45 157.671C279.053 154.785 281.408 152.41 281.558 152.519C281.621 152.564 281.45 153.423 281.178 154.426C280.906 155.43 280.398 157.561 280.048 159.163C278.836 164.716 277.75 167.622 275.86 170.37C274.066 172.979 271.789 175.025 268.545 176.944C267.638 177.48 267.183 177.977 266.163 179.548L264.903 181.49L264.749 186.696C264.664 189.56 264.526 192.618 264.442 193.492L264.289 195.08L265.402 194.256C266.014 193.803 266.835 193.295 267.226 193.128C267.817 192.875 267.962 192.674 268.081 191.946C268.419 189.878 270.931 188.998 272.27 190.479C273.314 191.633 273.149 193.226 271.893 194.137C271.006 194.78 270.069 194.791 269.172 194.168C268.601 193.771 268.407 193.727 267.941 193.886C267.251 194.122 264.659 195.803 264.359 196.209C264.236 196.375 263.855 198.095 263.512 200.031C262.814 203.973 261.756 208.343 260.795 211.255C260.443 212.321 260.208 213.232 260.273 213.279C260.337 213.326 260.951 212.908 261.637 212.35C262.658 211.52 262.997 211.067 263.507 209.856C265.657 204.746 269.851 200.22 276.105 196.26C278.658 194.643 284.366 191.442 284.51 191.547C284.562 191.584 284.112 192.394 283.511 193.347C282.91 194.301 281.812 196.153 281.071 197.463C277.963 202.957 275.96 205.501 273.14 207.531C270.68 209.303 267.383 210.761 264.744 211.242C263.76 211.422 263.38 211.653 261.597 213.157L259.569 214.869L258.645 217.22C257.697 219.635 255.572 224.058 254.033 226.822C253.339 228.068 253.248 228.355 253.58 228.249C253.809 228.175 254.837 228.081 255.864 228.038C257.66 227.964 257.743 227.941 258.028 227.444C258.662 226.334 260.445 225.876 261.41 226.576C262.341 227.25 262.707 228.005 262.555 228.934C262.386 229.97 261.921 230.54 260.947 230.905C259.721 231.365 258.528 230.822 257.867 229.504C257.602 228.976 257.574 228.968 255.919 228.98C252.876 229.003 252.73 229.083 250.971 231.703C247.707 236.565 243.028 242.078 238.981 245.83C236.579 248.057 236.631 247.955 238.064 247.623C239.115 247.379 239.55 247.123 240.972 245.908C242.802 244.347 244.531 243.272 246.87 242.244C250.475 240.658 254.193 240.379 261.788 241.123C264.333 241.373 266.821 241.599 267.318 241.626C268.213 241.675 268.19 241.692 264.917 243.261C261.052 245.116 260.385 245.401 257.229 246.552C251.188 248.755 245.986 249.304 241.034 248.262L239.274 247.892L237.437 248.4C235.665 248.891 235.499 248.989 232.744 251.18C231.174 252.43 229.143 253.932 228.23 254.519L226.572 255.586L227.416 255.797C227.88 255.913 228.773 256.225 229.4 256.491L230.54 256.976L231.082 256.606C231.826 256.1 233.176 256.113 233.848 256.634C235.776 258.126 234.839 261.002 232.425 261.002C230.948 261.002 230.19 260.168 229.953 258.283C229.9 257.857 229.641 257.67 228.428 257.183C225.734 256.102 226.054 256.057 222.923 257.948C218.132 260.841 211.552 264.155 206.488 266.225L205.585 266.594L207.854 266.939L210.123 267.283L212.15 266.693C219.008 264.697 223.718 265.39 231.228 269.497C233.036 270.486 235.471 271.79 236.639 272.395L238.763 273.494L237.492 273.596C232.093 274.026 225.892 273.849 221.975 273.153C217.941 272.436 214.314 270.991 211.383 268.935L209.678 267.739L207.655 267.516C206.543 267.393 205.467 267.205 205.266 267.098C204.978 266.945 204.026 267.221 200.836 268.378C198.601 269.189 196.772 269.878 196.772 269.909C196.772 269.939 197.362 270.416 198.082 270.968C199.014 271.683 199.466 271.917 199.652 271.782C199.989 271.537 201.17 271.538 201.801 271.782C202.435 272.028 203.213 273.272 203.22 274.05C203.228 274.96 202.371 276.101 201.478 276.369C200.534 276.653 199.738 276.377 198.885 275.469C198.382 274.935 198.322 274.705 198.419 273.679L198.531 272.503L196.989 271.395L195.446 270.287L191.726 271.37C189.68 271.965 186.363 272.856 184.354 273.348C182.345 273.841 180.538 274.287 180.339 274.34C180.093 274.405 180.408 274.631 181.313 275.039C182.612 275.626 182.72 275.643 185.228 275.647C192.409 275.658 196.61 277.67 203.476 284.387C205.262 286.134 207.21 287.981 207.804 288.491C208.399 289 208.79 289.413 208.673 289.408C208.556 289.401 206.598 288.937 204.321 288.372L204.321 288.369Z" fill="#008000"/>
<path opacity="0.170635" d="M166.619 285.872C166.162 285.721 165.121 285.174 164.305 284.655C162.176 283.302 155.466 279.783 154.308 279.413C153.768 279.24 152.559 278.955 151.622 278.778C149.981 278.469 149.953 278.455 150.872 278.4C153.079 278.27 156.905 279.746 162.994 283.077C164.293 283.788 165.408 284.369 165.472 284.369C165.537 284.369 165.487 284.112 165.363 283.797C165.021 282.933 165.09 281.848 165.515 281.408C166.4 280.493 169.167 281.221 171.996 283.114C173.414 284.063 174.389 284.961 174.389 285.319C174.389 285.536 171.418 285.993 169.54 286.065C167.979 286.125 167.239 286.076 166.619 285.872ZM129.828 285.84C128.311 285.667 125.914 285.198 125.787 285.048C125.378 284.569 128.893 282.089 131.139 281.273C133.061 280.573 133.768 280.519 134.454 281.016C134.996 281.409 135.115 282.61 134.712 283.628L134.482 284.208L135.747 283.546C136.442 283.182 137.833 282.437 138.838 281.892C142.601 279.846 145.848 278.551 148.118 278.188C150.026 277.884 150.474 278.081 148.699 278.444C147.896 278.608 146.742 278.885 146.135 279.059C144.848 279.429 139.192 282.339 136.037 284.256C133.466 285.819 132.284 286.12 129.828 285.84ZM199.209 284.527C197.545 283.837 195.142 282.752 193.869 282.116C191.126 280.746 184.67 277.165 184.44 276.887C184.325 276.747 184.379 276.748 184.63 276.887C187.682 278.599 197.212 283.37 200.261 284.713C202.139 285.539 202.601 285.779 202.314 285.779C202.271 285.779 200.874 285.215 199.209 284.525V284.527ZM98.9028 285.007C98.9028 284.967 100.574 284.236 102.616 283.384C106.82 281.63 111.167 279.687 114.304 278.161C115.476 277.59 116.435 277.162 116.435 277.209C116.435 277.357 112.711 279.355 110.577 280.351C107.619 281.733 98.9028 285.209 98.9028 285.007ZM183.611 276.471C183.308 276.191 183.317 276.185 183.703 276.404C184.109 276.635 184.238 276.78 184.037 276.78C183.987 276.78 183.795 276.641 183.611 276.471ZM199.498 274.374C198.927 274.084 198.802 273.275 199.275 272.932C199.436 272.816 199.822 272.721 200.134 272.721C200.835 272.721 201.264 273.409 200.944 274.02C200.656 274.569 200.134 274.697 199.498 274.374ZM98.5649 274.081C98.016 273.79 98.1166 272.748 98.7202 272.474C99.7188 272.021 100.628 273.386 99.7509 274.022C99.2728 274.369 99.1223 274.376 98.5649 274.081ZM68.7743 272.084C68.8551 272.026 69.0652 272.02 69.2409 272.07C69.4352 272.127 69.3775 272.169 69.0939 272.177C68.8372 272.185 68.6933 272.143 68.7743 272.084ZM75.0394 270.963C80.9458 269.86 84.5813 269.11 87.4384 268.403C88.4319 268.157 89.2886 267.988 89.342 268.026C89.4826 268.128 86.0802 269.053 82.8316 269.796C80.2166 270.394 70.5893 272.032 69.8799 272C69.7042 271.992 72.026 271.525 75.0394 270.963ZM228.569 270.751C224.359 269.857 218.726 268.814 214.811 268.203C210.48 267.528 212.196 267.559 217.002 268.242C220.534 268.745 223.834 269.393 228.447 270.49C232.168 271.376 232.241 271.531 228.569 270.751ZM120.531 264.911C119.405 263.765 117.723 261.831 116.499 260.275C114.995 258.364 111.267 252.757 111.424 252.643C111.486 252.599 112.298 253.665 113.229 255.012C115.175 257.827 117.948 261.487 119.928 263.852C121.303 265.494 121.577 265.975 120.531 264.911ZM179.746 265.341C179.746 265.063 181.434 262.029 182.647 260.127C183.643 258.565 188.706 251.894 188.896 251.894C188.952 251.894 187.473 254.058 185.611 256.703C183.749 259.349 181.708 262.387 181.076 263.454C179.868 265.495 179.746 265.668 179.746 265.341ZM102.077 260.377C101.69 259.853 101.775 259.394 102.326 259.033C102.931 258.636 103.53 258.832 103.878 259.54C104.302 260.402 102.659 261.165 102.077 260.377ZM195.876 260.337C195.047 259.737 196.002 258.376 196.984 258.757C197.601 258.997 197.783 259.523 197.427 260.042C197.105 260.511 196.322 260.66 195.876 260.337ZM231.207 258.492C230.833 258.078 230.827 257.982 231.148 257.567C231.346 257.312 231.716 257.074 231.97 257.038C232.913 256.907 233.45 258.126 232.691 258.676C232.14 259.076 231.683 259.019 231.207 258.492ZM66.5654 258.565C66.4048 258.449 66.2733 258.147 66.2733 257.895C66.2733 256.972 67.7887 256.629 68.2212 257.453C68.7162 258.397 67.4792 259.228 66.5654 258.565ZM208.742 255.527C208.732 255.341 208.789 255.236 208.87 255.295C208.951 255.354 208.96 255.506 208.89 255.633C208.812 255.774 208.754 255.732 208.742 255.527ZM91.6363 254.03C90.2635 251.424 89.1579 248.656 88.0462 245.041C87.4394 243.068 86.9787 241.376 87.0224 241.281C87.0666 241.185 87.5257 242.363 88.0436 243.897C89.151 247.179 91.0713 252.144 91.95 253.997C92.2914 254.718 92.5281 255.338 92.476 255.375C92.4243 255.413 92.0462 254.808 91.6363 254.03ZM208.995 254.74C208.95 254.07 210.092 250.21 211.015 247.914C211.907 245.696 214.273 240.592 214.305 240.818C214.315 240.891 213.677 242.526 212.886 244.453C211.742 247.241 209.826 252.522 209.131 254.806C209.04 255.105 209.019 255.095 208.995 254.74ZM243.057 247.015C245.73 246.069 250.113 244.988 255.413 243.968C257.982 243.474 260.225 243.073 260.398 243.079C260.57 243.086 258.41 243.594 255.598 244.211C252.785 244.829 248.621 245.807 246.345 246.385C240.867 247.775 240.964 247.756 243.057 247.015ZM58.547 247.023C58.6278 246.964 58.838 246.958 59.0138 247.009C59.208 247.065 59.1504 247.107 58.8667 247.116C58.61 247.123 58.4662 247.082 58.547 247.023ZM54.2724 246.508C52.8282 246.28 50.6367 245.879 49.4024 245.617C46.3369 244.967 39.4468 243.217 39.5773 243.123C39.6356 243.08 41.5843 243.482 43.9077 244.015C48.7515 245.126 52.7248 245.947 56.0461 246.523C59.0972 247.052 57.641 247.04 54.2724 246.508ZM73.9813 245.748C73.4527 245.324 73.4699 244.784 74.0238 244.421C74.5798 244.057 74.8999 244.053 75.3874 244.406C76.1059 244.927 75.6299 246.071 74.6946 246.071C74.5241 246.071 74.203 245.925 73.9813 245.748ZM223.565 245.701C222.94 244.855 224 243.904 225 244.412C225.57 244.701 225.671 245.19 225.273 245.729C224.934 246.188 223.912 246.171 223.565 245.701ZM86.7468 240.702C86.736 240.516 86.7934 240.411 86.8747 240.47C86.9555 240.529 86.9643 240.681 86.8939 240.808C86.8164 240.949 86.7584 240.907 86.7468 240.702ZM65.3184 238.231C65.3076 238.045 65.3651 237.94 65.4463 237.999C65.5272 238.058 65.5359 238.21 65.4655 238.337C65.388 238.478 65.3301 238.436 65.3184 238.231ZM64.6068 235.971C63.918 233.547 63.4182 230.673 63.1146 227.391C62.7696 223.664 62.8556 222.322 63.2464 225.332C63.8234 229.775 64.3474 233.058 64.8475 235.363C65.1178 236.609 65.2902 237.664 65.2306 237.707C65.1706 237.75 64.8903 236.969 64.6068 235.971ZM233.222 233.892C233.273 232.484 233.474 230.578 233.67 229.656C234.206 227.129 235.585 221.887 235.693 221.965C235.745 222.003 235.452 223.61 235.042 225.536C234.368 228.695 233.495 233.577 233.232 235.657C233.176 236.094 233.172 235.299 233.222 233.892ZM39.1603 228.98C38.9386 228.803 38.7573 228.491 38.7573 228.287C38.7573 227.867 39.3565 227.361 39.8531 227.361C40.8421 227.361 41.2893 228.495 40.5035 229.011C39.9328 229.385 39.6581 229.379 39.1603 228.98ZM258.679 228.843C258.099 228.549 257.969 227.743 258.447 227.397C258.976 227.013 259.851 227.146 260.115 227.649C260.6 228.574 259.67 229.346 258.679 228.843ZM51.5454 221.25C50.6684 220.614 51.578 219.249 52.5761 219.703C53.1797 219.976 53.2803 221.018 52.7314 221.309C52.174 221.604 52.0235 221.597 51.5454 221.25ZM246.1 221.12C245.708 220.686 245.892 219.941 246.454 219.69C246.917 219.482 247.679 219.784 247.836 220.238C248.202 221.295 246.87 221.971 246.1 221.12ZM34.8611 210.028C31.0747 206.853 29.3521 205.042 23.8558 198.46C23.5923 198.144 23.4293 197.886 23.4937 197.886C23.5579 197.886 24.5136 198.899 25.6173 200.136C28.2361 203.073 32.103 207.12 34.0916 209.005C34.962 209.831 35.7786 210.605 35.9063 210.726C36.4999 211.29 35.8454 210.853 34.8611 210.028ZM265.214 208.917C266.492 207.315 269.047 204.625 270.855 202.98C273 201.028 277.826 197.004 278.021 197.004C278.09 197.004 277.018 198.002 275.638 199.221C272.157 202.3 268.642 205.609 266.746 207.593C264.948 209.475 264.374 209.971 265.214 208.917ZM252.831 208.52C251.219 206.221 248.745 200.9 247.077 196.146C246.427 194.295 246.798 194.756 247.664 196.877C249.083 200.349 251.29 205.161 252.401 207.203C253.502 209.227 253.656 209.697 252.831 208.52ZM46.6922 207.77C46.9153 206.764 48.2512 203.391 49.1078 201.67C50.1275 199.622 53.1648 194.327 53.2745 194.406C53.3203 194.439 52.6109 195.891 51.6977 197.633C50.7846 199.374 49.4246 202.148 48.6756 203.799C46.6279 208.31 46.5278 208.511 46.6922 207.77ZM28.5479 192.604C27.9743 192.188 27.9503 192.085 28.2805 191.455C28.5494 190.943 29.493 190.832 29.9789 191.257C30.4069 191.631 30.1912 192.425 29.5828 192.716C29.1066 192.944 29.0015 192.933 28.5479 192.604ZM269.028 192.445C268.179 191.765 268.8 190.687 269.923 190.891C270.755 191.042 271.017 191.726 270.473 192.328C270 192.85 269.577 192.885 269.028 192.445ZM256.255 190.438C255.588 189.954 256.158 188.708 257.046 188.708C257.521 188.708 257.972 189.181 257.972 189.679C257.972 190.492 256.952 190.943 256.255 190.438ZM41.5618 190.01C40.6847 189.374 41.5943 188.009 42.5925 188.462C43.1959 188.736 43.2966 189.777 42.7477 190.068C42.1902 190.364 42.0399 190.357 41.5618 190.01ZM256.296 177.721C253.243 174.945 251.439 172.999 248.726 169.558C246.555 166.805 245.919 165.94 246.067 165.94C246.122 165.94 247.076 167.032 248.187 168.367C250.338 170.949 254.997 176.125 256.687 177.81C257.248 178.368 257.662 178.824 257.608 178.824C257.553 178.824 256.963 178.328 256.296 177.721ZM43.1403 177.857C43.1403 177.607 45.3438 174.751 47.0234 172.823C48.5876 171.028 54.7498 164.881 54.9851 164.881C55.0493 164.881 54.3172 165.695 53.3587 166.69C50.1827 169.987 46.4075 174.122 44.8582 176C43.2119 177.997 43.1403 178.074 43.1403 177.857ZM29.5589 172.697C29.0184 171.942 28.0098 170.345 27.3177 169.149C25.9893 166.854 23.0576 160.67 23.2363 160.54C23.2938 160.498 23.8634 161.518 24.5011 162.805C26.1745 166.183 28.5574 170.548 29.7201 172.366C30.2732 173.231 30.6843 173.968 30.6337 174.005C30.5828 174.042 30.0993 173.453 29.5589 172.697ZM269.622 173.824C269.572 173.501 270.613 170.841 271.645 168.657C272.721 166.382 276.398 160.043 276.57 160.168C276.619 160.203 276.107 161.218 275.434 162.424C273.691 165.541 271.625 169.576 270.56 171.941C270.057 173.057 269.635 173.904 269.622 173.824ZM245.492 165.411C245.349 165.216 245.287 165.058 245.354 165.058C245.42 165.058 245.593 165.216 245.736 165.411C245.879 165.605 245.942 165.764 245.875 165.764C245.808 165.764 245.636 165.605 245.492 165.411ZM254.141 162.829C253.264 162.194 254.173 160.828 255.172 161.282C256.007 161.661 255.669 163.116 254.746 163.116C254.631 163.116 254.359 162.987 254.141 162.829ZM43.3477 162.511C42.7136 161.503 43.989 160.541 44.8906 161.348C45.4303 161.831 45.4412 162.042 44.9532 162.547C44.4525 163.065 43.6853 163.048 43.3477 162.511ZM31.8633 160.329C31.0962 159.714 31.5311 158.704 32.5625 158.704C33.3937 158.704 33.8318 159.485 33.3531 160.114C32.9285 160.672 32.3889 160.75 31.8633 160.329ZM265.716 160.039C265.312 159.685 265.495 158.69 266.008 158.458C266.632 158.174 267.27 158.532 267.364 159.218C267.451 159.856 267.073 160.292 266.434 160.292C266.199 160.292 265.876 160.178 265.716 160.039ZM250.455 147.364C247.947 145.45 245.231 142.783 242.051 139.112C238.005 134.444 237.91 134.108 241.851 138.406C244.58 141.384 248.201 145.041 250.283 146.922C251.008 147.578 251.564 148.114 251.519 148.114C251.475 148.114 250.996 147.776 250.455 147.364ZM262.557 147.334C262.546 147.148 262.604 147.044 262.685 147.103C262.766 147.161 262.774 147.314 262.704 147.441C262.626 147.582 262.569 147.54 262.557 147.334ZM49.495 146.393C50.9155 144.684 53.274 142.175 54.6309 140.928C56.5024 139.209 61.6253 134.877 61.7865 134.877C61.8524 134.877 60.6092 136.048 59.0235 137.48C55.5387 140.627 52.197 143.838 50.4817 145.687C49.1732 147.098 48.5211 147.564 49.495 146.393ZM262.914 146.172C263.071 145.211 264.041 142.365 264.871 140.436C265.676 138.563 268.662 132.727 268.774 132.808C268.823 132.843 268.149 134.415 267.277 136.301C265.858 139.373 264.195 143.284 263.156 145.996C262.786 146.963 262.785 146.964 262.914 146.172ZM35.8316 145.699C34.1455 142.481 33.2447 140.237 32.0466 136.266C31.0383 132.924 31.032 132.152 32.0375 135.172C32.8552 137.628 35.348 144.043 36.0659 145.539C36.7191 146.901 36.5291 147.03 35.8316 145.699ZM252.55 135.815C251.464 133.746 250.332 131.216 249.745 129.547C248.847 126.995 247.405 122.135 247.521 122.052C247.576 122.011 248.09 123.352 248.661 125.03C249.883 128.615 251.784 133.538 252.663 135.392C253.404 136.955 253.317 137.278 252.55 135.815ZM47.0556 136.039C47.0448 135.852 47.1023 135.748 47.1835 135.807C47.2644 135.866 47.2731 136.018 47.2027 136.145C47.1252 136.286 47.0674 136.244 47.0556 136.039ZM47.3019 135.31C47.2719 134.816 48.0859 132.176 48.9599 129.935C49.7828 127.824 52.6485 121.942 52.8004 122.052C52.8554 122.092 52.1823 123.733 51.304 125.698C50.4257 127.663 49.275 130.433 48.7468 131.853C48.2185 133.273 47.6823 134.713 47.5551 135.053C47.4169 135.422 47.315 135.525 47.3019 135.31ZM62.1337 134.435C62.3004 134.29 62.4916 134.171 62.5586 134.171C62.6253 134.171 62.5444 134.29 62.3772 134.435C62.2105 134.581 62.0193 134.7 61.9523 134.7C61.8856 134.7 61.9664 134.581 62.1337 134.435ZM30.9843 132.685C30.9735 132.499 31.031 132.395 31.1123 132.453C31.1931 132.512 31.2018 132.664 31.1315 132.792C31.054 132.932 30.996 132.891 30.9843 132.685Z" fill="black"/>
<path d="M19.7734 153.229C23.1543 160.641 26.0425 168.054 31.5833 175.467C22.7723 170.462 21.7081 161.632 19.7734 153.229Z" fill="white" fill-opacity="0.132075"/>
<path d="M28.9395 126.647C31.2852 134.268 33.1408 141.852 37.6357 149.628C29.5561 144.012 29.7101 135.149 28.9395 126.647Z" fill="white" fill-opacity="0.132075"/>
<path d="M55.9113 115.37C52.242 122.71 48.1855 129.83 46.2133 138.139C43.561 130.256 50.2601 122.84 55.9113 115.37Z" fill="white" fill-opacity="0.132075"/>
<path d="M17.207 193.453C23.3361 199.873 28.9927 206.394 37.1941 212.373C26.7927 209.373 22.3344 201.119 17.207 193.453Z" fill="white" fill-opacity="0.132075"/>
<path d="M31.8945 241.77C42.0536 244.365 51.9115 247.242 63.3916 248.598C52.5398 250.59 42.2507 245.8 31.8945 241.77Z" fill="white" fill-opacity="0.132075"/>
<path d="M61.1465 273.418C71.7229 271.939 82.2361 270.814 93.0897 267.782C85.1111 273.473 72.893 273.105 61.1465 273.418Z" fill="white" fill-opacity="0.132075"/>
<path d="M118.288 275.807C109.397 277.333 100.917 282.26 92.623 289.218C98.3918 280.029 109.626 273.503 118.288 275.807Z" fill="white" fill-opacity="0.132075"/>
<path d="M182.285 275.742C191.175 277.273 199.65 282.205 207.936 289.168C202.177 279.975 190.95 273.443 182.285 275.742Z" fill="#006F00"/>
<path d="M209.32 267.592C218.399 266.844 228.681 269.397 239.737 273.907C230.013 266.678 216.393 263.297 209.32 267.592Z" fill="#006F00"/>
<path d="M238.959 247.357C246.237 243.353 256.876 241.742 269.559 241.527C256.106 238.911 242.014 241.046 238.959 247.357Z" fill="#006F00"/>
<path d="M148.32 272.672L143.275 277.526C141.256 280.722 140.899 284.582 143.942 289.803C142.959 293.423 140.405 292.327 137.946 291.517C133.272 289.068 129.295 289.525 126.144 293.42C124.821 296.703 120.649 294.643 117.482 294.467C120.822 296.156 123.686 301.167 127.952 296.371C130.087 293.86 133.03 292.746 137.946 295.038C142.756 296.721 146.419 296.656 145.94 290.279C144.385 285.543 143.674 281.34 146.892 279.619C148.257 282.346 150.422 282.673 152.793 282.38C156.218 284.17 159.389 286.164 159.075 290.946C159.209 295.626 164.711 297.346 168.593 295.324C171.965 294.506 175.209 293.927 176.587 296.847C178.478 301.661 189.147 298.981 190.864 291.993C188.389 294.438 182.508 298.315 179.157 293.991C175.604 291.301 172.051 292.07 168.497 292.849C164.91 293.321 162.325 292.329 162.025 287.995C161.277 283.757 158.451 282.519 155.458 281.523C156.597 280.287 157.538 278.961 155.934 276.479C157.18 276.011 158.527 274.946 160.027 272.957L168.497 273.814C170.351 272.014 171.256 267.368 172.114 262.583C168.317 257.085 164.94 257.883 161.645 259.918L157.742 263.154L153.079 274.004L153.459 276.193C155.726 272.747 159.215 272.966 160.122 265.438C161.276 263.739 162.296 261.971 165.547 261.345C167.203 260.962 167.359 262.293 167.26 263.915C166.093 265.711 166.239 267.799 167.355 270.102C162.241 268.128 158.61 271.345 154.982 274.575L151.841 272.672C153.423 265.076 150.413 260.442 144.132 257.919L139.754 257.538C128.666 254.184 124.404 259.215 128.618 266.199C131.327 268.928 133.383 272.156 140.23 271.72C144.937 269.22 146.4 271.385 147.083 274.67C148.412 269.658 147.137 266.971 141.372 268.293L138.612 270.007C138.612 270.007 138.041 269.911 138.421 269.911C138.67 269.911 141.269 270.961 138.882 269.815C125.14 263.215 130.054 256.432 138.802 260.965C149.588 259.442 148.523 268.789 148.32 272.672Z" fill="#008000"/>
<path d="M154.529 274.52C159.699 276.413 156.543 286.716 148.404 281.654C152.609 283.28 158.173 281.117 154.529 274.52Z" fill="#006A00"/>
<path d="M154.731 274.52C153.169 271.682 145.879 270.636 145.511 277.01C139.235 279.7 141.594 284.858 143.895 289.999C142.333 284.922 140.914 279.91 145.847 277.817C146.251 279.291 146.715 280.759 148.876 282.057C145.054 275.867 149.771 271.892 154.731 274.52Z" fill="#229122"/>
<path d="M157.154 264.963C160.296 259.615 167.505 257.77 172.028 262.809C172.818 256.994 159.578 255.383 157.154 264.963Z" fill="#229122"/>
<path d="M157.088 276.135L159.511 272.433C165.414 273.617 170.729 273.263 172.029 262.405C171.385 269.959 171.755 278.735 160.184 273.106L157.088 276.135Z" fill="#006A00"/>
<path d="M158.029 277.926L164.025 279.432C167.872 280.444 171.894 280.636 175.018 285.017C174.289 282.143 172.167 280.028 167.261 279.432L159.79 277.784L158.029 277.926Z" fill="#229122"/>
<path d="M138.849 260.858C130.569 259.092 125.925 261.228 139.051 269.943C122.412 265.197 130.859 252.667 138.849 260.858Z" fill="#006A00"/>
<path d="M139.992 271.626C139.09 271.776 138.23 272.028 137.446 271.887C119.152 268.601 125.737 249.848 139.857 257.762C129.085 253.242 118.858 267.524 139.992 271.626Z" fill="#229122"/>
<path d="M117.783 294.508C121.223 296.701 124.801 299.703 127.205 295.854C130.766 291.671 134.987 293.105 139.252 294.912C144.961 296.822 145.137 293.703 145.04 290.335C143.033 281.917 144.445 280.04 146.52 279.433C145.164 280.873 144.306 283.128 146.319 290.066C146.598 295.501 144.618 297.992 138.983 295.719C134.988 294.581 130.959 293.374 128.888 296.258C126.161 300.048 122.021 300.485 117.783 294.508Z" fill="#006A00"/>
<path d="M153.793 282.781C155.952 284.686 158.527 286.269 158.504 289.871C158.899 296.895 163.195 297.117 168.498 295.582C169.912 295.707 174.528 293.577 176.064 297.962C178.6 301.733 188.022 300.533 190.864 292.156C187.408 299.127 177.965 300.552 177.064 296.629C176.621 293.293 172.255 294.285 168.26 294.868C164.826 294.667 160.39 297.105 159.551 290.062C159.462 286.969 158.057 284.355 153.793 282.781Z" fill="#229122"/>
<defs>
<filter id="filter0_f_151_171" x="63.6523" y="188.255" width="40.8614" height="20.4224" filterUnits="userSpaceOnUse" color-interpolation-filters="sRGB">
<feFlood flood-opacity="0" result="BackgroundImageFix"/>
<feBlend mode="normal" in="SourceGraphic" in2="BackgroundImageFix" result="shape"/>
<feGaussianBlur stdDeviation="0.433607" result="effect1_foregroundBlur_151_171"/>
</filter>
<filter id="filter1_f_151_171" x="64.1456" y="190.924" width="28.4354" height="11.3808" filterUnits="userSpaceOnUse" color-interpolation-filters="sRGB">
<feFlood flood-opacity="0" result="BackgroundImageFix"/>
<feBlend mode="normal" in="SourceGraphic" in2="BackgroundImageFix" result="shape"/>
<feGaussianBlur stdDeviation="0.281714" result="effect1_foregroundBlur_151_171"/>
</filter>
<linearGradient id="paint0_linear_151_171" x1="235.312" y1="110.24" x2="156.528" y2="110.24" gradientUnits="userSpaceOnUse">
<stop stop-color="#CC992D"/>
<stop offset="0.142857" stop-color="#E1A832"/>
<stop offset="0.321429" stop-color="#E5CF5C"/>
<stop offset="0.5" stop-color="#E5C547"/>
<stop offset="0.75" stop-color="#FFFFA3"/>
<stop offset="0.875" stop-color="#FFD94D"/>
<stop offset="1" stop-color="#FFDB4E"/>
</linearGradient>
<linearGradient id="paint1_linear_151_171" x1="64.2853" y1="203.736" x2="143.86" y2="203.736" gradientUnits="userSpaceOnUse">
<stop stop-color="#CC992D"/>
<stop offset="0.142857" stop-color="#E1A832"/>
<stop offset="0.321429" stop-color="#E5CF5C"/>
<stop offset="0.5" stop-color="#E5C547"/>
<stop offset="0.75" stop-color="#FFFFA3"/>
<stop offset="0.875" stop-color="#FFD94D"/>
<stop offset="1" stop-color="#FFDB4E"/>
</linearGradient>
<linearGradient id="paint2_linear_151_171" x1="222.729" y1="202.494" x2="169.561" y2="202.494" gradientUnits="userSpaceOnUse">
<stop stop-color="#A3A3A3"/>
<stop offset="0.142857" stop-color="#B0B0B0"/>
<stop offset="0.321429" stop-color="#D1D1D1"/>
<stop offset="0.5" stop-color="#BDBDBD"/>
<stop offset="0.75" stop-color="#E5E5E5"/>
<stop offset="0.875" stop-color="#CCCCCC"/>
<stop offset="1" stop-color="#CCCCCC"/>
</linearGradient>
<linearGradient id="paint3_linear_151_171" x1="232.315" y1="162.598" x2="67.9962" y2="162.598" gradientUnits="userSpaceOnUse">
<stop stop-color="#A3A3A3"/>
<stop offset="0.142857" stop-color="#B0B0B0"/>
<stop offset="0.321429" stop-color="#D1D1D1"/>
<stop offset="0.5" stop-color="#BDBDBD"/>
<stop offset="0.75" stop-color="#E5E5E5"/>
<stop offset="0.875" stop-color="#CCCCCC"/>
<stop offset="1" stop-color="#CCCCCC"/>
</linearGradient>
<linearGradient id="paint4_linear_151_171" x1="73.3185" y1="109.049" x2="140.76" y2="109.049" gradientUnits="userSpaceOnUse">
<stop stop-color="#CC992D"/>
<stop offset="0.142857" stop-color="#E1A832"/>
<stop offset="0.321429" stop-color="#E5CF5C"/>
<stop offset="0.5" stop-color="#E5C547"/>
<stop offset="0.75" stop-color="#FFFFA3"/>
<stop offset="0.875" stop-color="#FFD94D"/>
<stop offset="1" stop-color="#FFDB4E"/>
</linearGradient>
<linearGradient id="paint5_linear_151_171" x1="147.277" y1="70.2394" x2="147.277" y2="66.1129" gradientUnits="userSpaceOnUse">
<stop/>
<stop offset="1" stop-opacity="0"/>
</linearGradient>
</defs>
</svg>
