<svg width="300" height="300" viewBox="0 0 300 300" fill="none" xmlns="http://www.w3.org/2000/svg">
<g clip-path="url(#clip0_151_10247)">
<path d="M126.703 287.973L127.919 285.744C128.73 284.19 128.932 282.365 128.662 280.676L128.459 278.581L129.743 279.663C131.162 280.811 132.514 281.892 133.932 282.906L134.878 283.581L126.703 287.973ZM285.284 174.257C285.284 174.19 285.284 174.19 285.284 174.122C285.284 174.054 285.284 174.054 285.284 173.987C285.284 173.919 285.216 173.919 285.216 173.919C285.216 173.919 285.149 173.852 285.081 173.852C285.014 173.852 285.014 173.852 284.946 173.852C284.878 173.852 284.878 173.852 284.811 173.852C284.743 173.852 284.743 173.919 284.743 173.919C284.743 173.919 284.676 173.987 284.676 174.054C283.257 178.109 281.635 182.365 279.946 185.946C278.932 187.163 277.041 189.392 275.622 189.865C277.041 188.041 277.987 185.879 278.324 183.581C280.757 179.122 282.649 174.392 284 169.527C284 169.46 284 169.46 284 169.392C284 169.325 284 169.325 283.932 169.257C283.932 169.19 283.865 169.19 283.865 169.19C283.865 169.19 283.797 169.122 283.73 169.122C283.662 169.122 283.662 169.122 283.595 169.122C283.527 169.122 283.527 169.122 283.459 169.19C283.392 169.19 283.392 169.257 283.392 169.257C283.392 169.325 283.324 169.325 283.324 169.392C282.176 173.717 280.554 177.906 278.527 181.892C278.73 180.068 278.797 178.311 278.73 176.487C280.757 172.298 282.243 167.906 283.189 163.311C283.189 163.244 283.189 163.244 283.189 163.176C283.189 163.108 283.189 163.109 283.122 163.041C283.122 162.973 283.054 162.973 283.054 162.973C283.054 162.973 282.986 162.906 282.919 162.906C282.851 162.906 282.784 162.906 282.716 162.973C282.649 163.041 282.581 163.108 282.581 163.176C281.703 167.298 280.419 171.284 278.73 175.136C278.73 173.919 278.662 172.838 278.662 171.96C278.662 171.419 278.662 170.879 278.662 170.406C280.284 165.068 281.568 159.663 282.514 154.19C282.514 154.122 282.514 154.122 282.514 154.054C282.514 153.987 282.514 153.987 282.446 153.919L282.378 153.852C282.311 153.852 282.311 153.784 282.243 153.784C282.176 153.784 282.108 153.784 282.041 153.852C281.973 153.919 281.905 153.987 281.905 154.054C280.824 160 279.405 165.879 277.581 171.69C277.108 172.365 276.635 173.041 276.162 173.649C275.892 173.919 275.689 174.19 275.554 174.392C274.946 175.271 274.203 176.352 273.459 177.568C275.081 172.365 276.77 166.554 277.784 162.027C277.784 161.96 277.784 161.892 277.716 161.825C277.649 161.757 277.581 161.69 277.514 161.69C277.446 161.69 277.378 161.69 277.311 161.757C277.243 161.825 277.176 161.892 277.176 161.96C276.095 167.163 274 174.122 272.108 179.798C270.824 181.825 269.811 184.054 269.135 186.352C268.797 184.122 268.865 181.825 269.473 179.595C271.5 174.19 273.257 168.717 274.743 163.176C274.743 163.108 274.743 163.109 274.743 163.041C274.743 162.973 274.743 162.973 274.676 162.906C274.676 162.838 274.608 162.838 274.608 162.838C274.608 162.838 274.541 162.771 274.473 162.771C274.405 162.771 274.405 162.771 274.338 162.771C274.27 162.771 274.27 162.771 274.203 162.838C274.135 162.838 274.135 162.906 274.135 162.906C274.135 162.973 274.068 162.973 274.068 163.041C272.311 169.663 270.149 176.217 267.581 182.5C267.514 182.568 267.514 182.636 267.514 182.636C265.487 185.406 263.932 188.514 263.054 191.892C262.108 187.906 265.216 180.203 266.162 177.433C256.5 198.649 241.027 215.136 221.432 228.311C201.838 241.487 178.932 248.852 155.284 249.595C154 249.663 152.649 249.663 151.365 249.663C124.068 249.663 97.5811 240.811 75.7568 224.392C53.9324 207.973 38.0541 186.892 30.4865 160.676C28.9324 158.379 26.7027 156.217 24.473 156.217C23.8649 156.284 23.3243 156.419 22.7838 156.69C22.2432 156.96 21.8378 157.365 21.5 157.838C17.2432 162.568 22.6486 167.906 23.3243 168.446C23.6622 168.784 23.9324 169.19 24.0676 169.595C24.2027 170.068 24.2703 170.541 24.2027 170.946C24.0676 171.69 23.4595 172.23 22.4459 172.636C21.6351 172.906 20.9595 173.379 20.3514 174.054C19.8108 174.73 19.4054 175.473 19.2703 176.284C19.1351 177.298 19.2703 178.311 19.6081 179.257L20.2162 180.608L18.7297 180.406C18.4595 180.406 18.0541 180.406 17.7162 180.406C16.5676 180.338 15.4189 180.676 14.473 181.419C14.2703 181.622 14.1351 181.825 14.0676 182.027C14 182.23 14 182.5 14 182.703C14.4054 186.217 19.1351 189.663 19.1351 189.663C19.0676 189.933 19.0676 190.271 19.1351 190.541C19.2027 190.811 19.3378 191.149 19.473 191.352C19.6757 191.622 19.8784 191.825 20.1486 191.96C20.4189 192.095 20.6892 192.23 21.027 192.298C21.6351 192.5 22.3108 192.568 22.9865 192.568C23.2568 192.568 23.527 192.568 23.7973 192.5C23.7973 192.5 24.6081 192.433 25.0811 192.365C22.7162 194.527 24.2703 204.73 34.3378 205.744C34.8108 205.811 35.2838 205.811 35.7568 205.744C31.0946 212.095 39.0676 215.338 39.0676 217.906C39.0676 218.987 37.7838 220 36.6351 220.676C35.0811 221.554 33.1892 222.23 33.1892 224.663C33.1892 227.433 34.8108 230.136 41.1622 230.136C43.3919 230.136 45.8243 230.338 45.8243 231.96C45.8243 232.636 44.9459 233.379 44 233.987C42.8514 234.798 41.5 235.608 41.5 237.027C41.5 237.365 41.4324 240.406 46.1622 242.027L48.1216 242.636L46.2973 243.514C45.7568 243.717 45.3514 244.054 45.0135 244.46C44.6757 244.933 44.473 245.406 44.473 245.946C44.4054 247.365 45.6216 248.717 48.1892 249.73C50.0811 250.406 52.0405 250.879 54.0676 251.014L54.2027 251.352L54.4054 251.622C54.6081 251.825 54.8108 252.027 55.0811 252.163C55.3514 252.298 55.6216 252.365 55.8919 252.433L56.7027 252.5V253.311C56.7027 253.852 56.8378 254.325 57.0405 254.798C57.2432 255.271 57.5811 255.676 57.9865 256.014C59 257.095 60.1486 258.041 61.3649 258.919L63.3919 260.338L60.9595 260.473C57.1081 260.676 53.8649 262.973 53.3243 265.811C53.1892 266.487 53.1892 267.163 53.3243 267.838C53.4595 268.514 53.7297 269.122 54.1351 269.73C55.2838 271.014 56.9054 271.892 58.5946 272.027C58.7297 272.027 58.9324 272.027 59.0676 272.027C60.1486 271.96 61.2297 271.825 62.3108 271.487C64.3378 271.014 65.0135 271.014 65.8919 273.649C66.6351 275.811 67.1757 277.298 69.2027 277.298H70.4865C70.4865 277.298 67.9189 284.798 71.027 287.568C71.4324 287.838 71.9054 287.973 72.3784 287.906C74.0676 287.906 76.3649 285.744 78.1216 283.581C80.5541 280.676 82.5811 280.406 82.8514 280.406H83.1216L83.3243 280.541C84.1351 281.014 85.0135 281.352 85.9595 281.487C86.4324 281.622 86.9054 281.825 87.3108 282.163C87.7162 282.5 87.9865 282.973 88.1216 283.446C88.2568 283.987 88.2568 284.527 88.0541 285C87.9189 285.541 87.5811 285.946 87.1757 286.284C85.8919 287.636 85.2162 289.46 85.2162 291.284C85.1487 292.095 85.2838 292.906 85.5541 293.717C85.8243 294.46 86.2297 295.203 86.7703 295.811C87.3108 296.352 87.9865 296.825 88.7297 297.095C89.473 297.365 90.2838 297.5 91.027 297.5C91.973 297.568 92.9865 297.433 93.8649 297.027C94.7432 296.622 95.5541 296.081 96.1622 295.338C97.3784 293.919 98.0541 292.095 97.9189 290.203C97.8514 289.865 97.8514 289.46 97.9189 289.122C97.9865 288.784 98.1892 288.446 98.3919 288.108C98.527 287.906 98.7297 287.771 99 287.703C99.2027 287.636 99.473 287.568 99.6757 287.568C100.216 287.568 100.689 287.771 101.095 288.041C102.108 288.919 103.392 289.46 104.676 289.527C105.622 289.527 106.568 289.122 107.311 288.581C107.919 288.176 108.392 287.568 108.662 286.825L109.068 285.608L110.014 286.554C110.419 286.96 110.892 287.365 111.432 287.568C111.973 287.838 112.581 287.906 113.189 287.906C114.338 287.906 115.419 287.568 116.365 286.96L117.581 286.014L117.649 287.568V287.771C117.649 288.176 117.784 288.581 117.986 288.987C118.189 289.325 118.459 289.663 118.865 289.933C120.554 291.014 123.527 289.663 123.527 289.663C123.527 289.663 119 292.298 118.459 292.771C118.324 292.906 118.189 293.041 118.122 293.244C118.054 293.446 118.054 293.649 118.054 293.852C118.257 295.338 120.892 295.879 122.649 295.879C123.257 295.879 123.865 295.811 124.405 295.676C125.284 295.473 126.095 295.136 126.838 294.73C126.838 294.73 134.541 289.054 140.284 287.027C136.162 289.392 132.243 292.027 128.392 294.865C128.054 295.136 127.784 295.406 127.649 295.811C127.514 296.217 127.446 296.622 127.514 297.027C127.919 298.784 131.5 299.122 132.514 299.122C134.338 299.122 138.122 298.244 139.338 297.095C139.405 297.027 139.473 296.96 139.541 296.825L139.608 296.757C141.703 294.46 144.068 292.433 146.703 290.744L147.108 290.473L147.581 290.744C150.216 292.23 155.689 295.473 158.595 297.163L159.473 297.703V297.636L160.419 298.244C160.824 298.514 161.365 298.649 161.838 298.717C162.649 298.852 163.459 298.852 164.338 298.852C169.405 298.852 172.986 296.825 173.054 295.068C173.054 294.73 172.986 294.392 172.784 294.122C172.581 293.852 172.311 293.649 172.041 293.514L171.973 293.446C169.608 292.433 161.162 288.446 155.216 285.541L160.081 286.014L160.486 286.149C163.459 286.487 170.689 290.608 174.676 293.041L174.811 293.108C175.689 293.514 176.635 293.717 177.581 293.717C179.541 293.717 182.716 292.906 183.054 291.284C183.122 290.811 183.054 290.406 182.851 290C182.649 289.595 182.311 289.325 181.838 289.122L162.986 281.622L163.392 280.136V280.068C173.865 284.527 184.541 288.379 195.351 291.622L194.405 292.433C193.122 293.446 189.338 295.946 181.23 297.163C183.73 297.703 186.365 297.906 188.932 297.838C194.946 297.703 200.824 296.284 206.23 293.717C206.568 290.879 207.108 288.041 207.851 285.271L207.986 284.663L213.122 284.527L212.041 285.879C211.162 287.095 210.486 288.446 210.014 289.798C214 288.108 217.851 285.946 221.432 283.514C223.122 281.419 224.338 279.054 224.946 276.419C224.811 276.217 224.676 275.946 224.473 275.744C219.338 276.352 205.824 277.23 201.432 276.622C201.635 276.419 202.581 275.946 203.054 275.676C210.892 275.541 218.662 274.122 226.095 271.487C227.243 271.014 228.459 270.676 229.676 270.406C234.811 268.919 239.743 266.757 244.338 263.919C244.405 263.919 244.405 263.852 244.405 263.852C244.405 263.852 244.473 263.784 244.473 263.717C244.473 263.649 244.473 263.649 244.473 263.581C244.473 263.514 244.473 263.514 244.405 263.446C244.405 263.379 244.338 263.379 244.338 263.379C244.338 263.379 244.27 263.311 244.203 263.311C244.135 263.311 244.135 263.311 244.068 263.311C244 263.311 244 263.311 243.932 263.379C235.689 268.108 230.486 269.798 224.541 270.879C219.608 271.419 213.392 268.581 213.392 268.581C220.689 269.527 231.635 265.338 240.014 260.676C244.811 258.717 249.338 256.014 253.392 252.703L253.459 252.636C253.459 252.568 253.459 252.568 253.459 252.5C253.459 252.433 253.459 252.433 253.459 252.365C253.459 252.298 253.459 252.298 253.392 252.23L253.324 252.163C253.257 252.163 253.257 252.163 253.189 252.163C253.122 252.163 253.122 252.163 253.054 252.163C252.986 252.163 252.986 252.163 252.919 252.23C249.743 254.865 246.297 257.095 242.514 258.852C237.919 260.203 233.122 260.541 228.392 259.798C233.459 259.392 240.081 256.014 245.351 252.703C251.365 249.663 257.041 246.081 262.378 241.96C262.446 241.892 262.514 241.825 262.514 241.757C262.514 241.69 262.514 241.622 262.446 241.554C262.378 241.487 262.311 241.419 262.243 241.419C262.176 241.419 262.108 241.419 262.041 241.487C257.716 244.798 253.189 247.771 248.392 250.406C244.743 251.149 240.959 251.149 237.311 250.406C244.878 249.933 250.959 246.081 256.635 241.352C261.027 238.514 265.216 235.271 269.068 231.622L269.135 231.554C269.135 231.487 269.135 231.487 269.135 231.419C269.135 231.352 269.135 231.352 269.135 231.284C269.135 231.217 269.068 231.217 269.068 231.149L269 231.081C268.932 231.081 268.932 231.081 268.865 231.081C268.797 231.081 268.797 231.081 268.73 231.081C268.662 231.081 268.662 231.149 268.595 231.149C265.216 234.325 261.568 237.23 257.784 239.798C253.865 241.149 249.743 241.554 245.622 241.149C252.716 240.473 258.054 236.149 262.041 232.163C265.689 229.257 269.135 226.014 272.311 222.568C272.378 222.5 272.378 222.433 272.378 222.365C272.378 222.298 272.311 222.23 272.311 222.163C272.243 222.095 272.176 222.095 272.108 222.095C272.041 222.095 271.973 222.095 271.905 222.163C269.541 224.73 266.973 227.23 264.338 229.527C262.176 230.744 259.743 231.352 257.243 231.284C260.622 230.203 265.824 225.406 269.203 220.946C273.865 216.081 278.054 210.811 281.635 205.068C281.635 205 281.703 205 281.703 204.933C281.703 204.865 281.703 204.865 281.703 204.798C281.703 204.73 281.703 204.73 281.635 204.663C281.635 204.595 281.568 204.595 281.568 204.595C281.5 204.595 281.5 204.527 281.432 204.527C281.365 204.527 281.365 204.527 281.297 204.527C281.23 204.527 281.23 204.527 281.162 204.595C281.095 204.595 281.095 204.663 281.095 204.663C277.716 210 273.797 215 269.541 219.595C267.784 220 265.959 220.271 264.135 220.338C267.378 218.919 269.27 214.933 273.054 209.595C276.703 205.541 279.878 201.081 282.514 196.352C282.581 196.284 282.581 196.217 282.514 196.149C282.514 196.081 282.446 196.014 282.378 195.946C282.311 195.879 282.243 195.879 282.176 195.946C282.108 195.946 282.041 196.014 281.973 196.081C279.878 199.865 277.446 203.446 274.676 206.757C273.527 207.973 271.973 208.717 270.351 208.987C273.054 205.946 275.284 202.568 277.041 198.919C279.676 195.338 281.905 191.419 283.595 187.298C283.595 187.23 283.595 187.23 283.595 187.163C283.595 187.095 283.595 187.095 283.595 187.027C283.595 186.96 283.527 186.96 283.527 186.892C283.527 186.892 283.459 186.825 283.392 186.825C283.324 186.825 283.324 186.825 283.257 186.825C283.189 186.825 283.189 186.825 283.122 186.825C283.054 186.825 283.054 186.892 282.986 186.892L282.919 186.96C281.23 191.217 279 195.136 276.23 198.784C275.216 199.73 274.068 200.406 272.784 200.879C276.635 197.163 277.986 192.027 279.27 187.5C281.838 183.379 283.73 178.852 285.284 174.257Z" fill="black"/>
<path d="M45.0764 200.135C47.9818 202.365 48.1169 203.648 47.5088 204.797C46.9007 205.946 45.6845 208.851 48.3196 210.135C50.4818 211.216 52.5764 207.027 53.1845 204.392C50.6845 201.216 48.3196 197.973 46.0899 194.594C45.5493 194.797 45.0764 195.067 44.671 195.54C44.2656 196.013 44.0629 196.486 43.9277 197.027C43.7926 197.567 43.8602 198.175 44.0629 198.716C44.3331 199.324 44.671 199.797 45.0764 200.135Z" fill="#005844"/>
<path d="M68.4563 225.202C68.7266 225.945 69.0644 226.351 69.1995 226.351C69.5374 225.202 69.5374 223.986 69.1995 222.837C68.8617 221.689 68.186 220.675 67.3076 219.864C66.8347 219.459 66.2266 219.256 65.5509 219.121C64.9428 219.053 64.2671 219.121 63.7266 219.391C66.632 220.54 67.9833 223.918 68.4563 225.202Z" fill="#005844"/>
<path d="M135.483 277.297C135.01 271.756 129.199 277.162 129.199 277.162C131.429 279.256 133.726 281.148 136.226 282.972C136.767 282.702 136.699 282.702 137.24 282.432L136.834 281.689C136.091 280.337 135.618 278.851 135.483 277.297Z" fill="#005844"/>
<path d="M115.146 280.946C112.916 280.946 110.822 279.324 109.335 278.04C109.335 278.04 108.051 276.757 107.038 277.567C106.295 278.175 106.768 279.865 107.308 280.811C107.984 281.757 108.457 282.77 108.862 283.784C109.673 285 111.633 286.757 113.051 286.486C115.551 286.081 117.173 284.797 116.497 280.473C116.092 280.811 115.619 280.946 115.146 280.946Z" fill="#005844"/>
<path d="M39.8075 191.216C37.375 184.459 33.9967 181.486 30.2129 178.108L29.6723 177.635C29.6048 177.567 29.6048 177.5 29.5372 177.432C29.5372 177.365 29.5372 177.297 29.6048 177.229C29.6723 177.162 29.7399 177.162 29.8075 177.094C29.875 177.094 29.9426 177.094 30.0102 177.162L30.5507 177.635C33.7264 180.135 36.3615 183.175 38.3885 186.621C35.6183 179.121 31.9021 171.959 27.375 165.405C27.3075 165.338 27.3075 165.27 27.3075 165.202C27.3075 165.135 27.375 165.067 27.4426 165C27.5102 164.932 27.5777 164.932 27.6453 164.932C27.7129 164.932 27.7804 165 27.848 165.067C33.1183 173.175 37.375 180.27 40.4831 191.419C43.0507 195.135 40.8885 186.081 40.8885 186.081V186.013C37.1723 179.256 34.1318 172.162 31.6994 164.797L31.6318 164.729C30.2804 160.946 25.2129 154.121 22.1048 158.311C20.0102 161.081 19.9426 163.243 24.6048 168.581C24.9426 168.919 25.1453 169.392 25.2804 169.797C25.4156 170.27 25.4156 170.743 25.348 171.216C25.2804 171.689 25.0777 172.094 24.8075 172.5C24.5372 172.905 24.1318 173.175 23.7264 173.378C18.8615 175.54 20.0102 178.446 22.1048 179.932C23.5237 180.946 29.2669 184.865 28.9967 188.04C28.7264 191.283 25.0102 191.689 25.1453 195.743C25.2129 198.311 27.7804 204.459 33.9967 204.527C38.8615 204.527 42.1048 198.311 39.8075 191.216Z" fill="#005844"/>
<path d="M57.1714 209.189C55.8201 208.986 53.1173 209.256 52.239 210.202C50.8876 211.621 47.5092 213.513 45.82 209.729C43.8606 205.405 42.1038 203.108 37.8471 205.54C33.5903 207.972 35.7525 212.499 37.8471 214.391C39.9417 216.418 42.7119 218.648 39.0633 220.743C36.0903 222.432 34.1309 222.635 34.1309 224.932C34.1309 226.621 34.8741 229.053 41.766 229.053C44.4687 229.053 47.7119 229.459 47.5768 232.094C47.3741 235.472 42.6444 234.999 42.6444 237.094C42.5768 239.324 44.9417 241.486 50.6849 241.891C52.7795 242.026 54.8741 241.418 56.6309 240.202C56.4957 239.797 56.4282 239.391 56.4282 238.918C56.4957 237.162 57.8471 235.945 59.3336 234.797C59.8741 234.391 59.9417 234.121 59.9417 234.121C59.9417 233.986 59.8065 233.31 57.5768 231.486C56.6309 230.743 55.8876 229.864 55.3471 228.783C53.8606 227.499 52.3741 226.08 50.8876 224.526C49.9417 224.662 48.9957 224.729 48.0498 224.729C45.5498 224.662 42.9822 224.391 40.5498 223.851C40.4822 223.851 40.4146 223.783 40.3471 223.716C40.2795 223.648 40.2795 223.58 40.2795 223.513C40.2795 223.445 40.3471 223.378 40.4146 223.31C40.4822 223.243 40.5498 223.243 40.6173 223.243C43.793 223.986 47.1038 224.256 50.3471 223.986C46.0903 219.391 42.3065 214.459 39.0633 209.121C38.9957 209.053 38.9957 208.986 38.9957 208.918C38.9957 208.851 39.0633 208.783 39.1309 208.716C39.1984 208.648 39.266 208.648 39.3336 208.648C39.4011 208.648 39.4687 208.716 39.5363 208.783C42.7795 213.986 46.4957 218.851 50.6173 223.378C50.4146 219.999 50.4822 216.553 50.9552 213.175C50.9552 213.108 50.9552 213.108 51.0228 213.04C51.0228 212.972 51.0903 212.972 51.0903 212.972C51.0903 212.972 51.1579 212.905 51.2255 212.905C51.293 212.905 51.293 212.905 51.3606 212.905C51.4282 212.905 51.4282 212.905 51.4957 212.972C51.5633 212.972 51.5633 213.04 51.5633 213.04C51.5633 213.04 51.6309 213.108 51.6309 213.175C51.6309 213.243 51.6309 213.243 51.6309 213.31C51.1579 216.891 51.0903 220.54 51.3606 224.121C52.5092 225.337 53.7255 226.486 54.8741 227.567C54.4687 226.148 54.4687 224.662 55.0768 223.31C55.6173 221.959 56.6309 220.81 57.9146 220.135C59.1309 219.391 60.4822 218.986 61.8336 218.918C62.1714 218.918 62.4417 218.918 62.7795 218.986C62.7795 217.432 62.6444 215.81 62.239 214.324C60.3471 212.635 58.7255 210.945 57.1714 209.189Z" fill="#005844"/>
<path d="M67.3087 225.27C66.0249 222.162 62.9844 218.041 58.2546 221.149C54.8763 223.378 54.7411 227.77 58.2546 230.608C61.2276 232.973 62.0384 234.054 59.6735 235.878C57.3087 237.703 56.4979 239.46 59.4033 241.96C62.3087 244.46 64.2006 246.216 62.9844 247.973C60.8898 250.878 55.1465 252.23 58.5925 255.541C59.9438 256.96 61.4979 258.176 63.1871 259.122C63.1871 258.919 63.1871 258.784 63.1871 258.514C63.1195 257.838 63.1871 257.095 63.3898 256.487C63.5925 255.811 63.9303 255.203 64.4033 254.662C64.7411 254.324 65.1465 254.054 65.5519 253.851C66.0249 253.649 66.4979 253.581 66.9708 253.581C67.7141 253.581 68.4573 253.784 69.133 254.189C69.9438 254.73 70.8898 255.068 71.9033 255.068C72.6465 255.068 73.3222 254.865 73.9303 254.527C74.4708 254.189 74.8087 253.649 75.0114 253.041C72.3763 252.5 69.8087 251.622 67.4438 250.338C67.3763 250.338 67.3763 250.27 67.3087 250.27C67.3087 250.27 67.2411 250.203 67.2411 250.135C67.2411 250.068 67.2411 250.068 67.2411 250C67.2411 249.933 67.2411 249.933 67.2411 249.865C67.2411 249.797 67.3087 249.797 67.3087 249.797C67.3087 249.797 67.3763 249.73 67.4438 249.73C67.5114 249.73 67.5114 249.73 67.579 249.73C67.6465 249.73 67.6465 249.73 67.7141 249.797C70.0114 251.014 72.5114 251.892 75.0114 252.433C75.079 252.433 75.079 252.433 75.1465 252.5V252.433C75.2817 251.554 75.4844 250.608 75.8222 249.797C75.8222 249.797 75.7546 249.797 75.7546 249.73C74.4708 246.622 72.9168 243.581 71.16 240.676C69.4708 240 67.7141 239.527 65.9573 239.324C64.4033 239.054 62.6465 238.716 60.9573 238.311C60.8898 238.311 60.8898 238.311 60.8222 238.243C60.7546 238.243 60.7546 238.176 60.7546 238.176C60.7546 238.108 60.6871 238.108 60.6871 238.041C60.6871 237.973 60.6871 237.973 60.6871 237.906C60.6871 237.838 60.6871 237.838 60.7546 237.77L60.8222 237.703C60.8898 237.703 60.8898 237.703 60.9573 237.635C61.0249 237.635 61.0249 237.635 61.0925 237.635C62.7817 238.041 64.5384 238.378 66.0925 238.649C67.6465 238.851 69.133 239.189 70.6195 239.662C67.3763 234.595 63.7952 229.662 59.9438 225.068C59.9438 225.068 59.8763 225 59.8763 224.933C59.8763 224.865 59.8763 224.865 59.8763 224.797C59.8763 224.73 59.8763 224.73 59.9438 224.662C59.9438 224.595 60.0114 224.595 60.0114 224.595C60.0114 224.595 60.079 224.527 60.1465 224.527C60.2141 224.527 60.2141 224.527 60.2817 224.527C60.3492 224.527 60.3492 224.527 60.4168 224.595C60.4844 224.595 60.4844 224.662 60.4844 224.662C64.4033 229.324 67.9844 234.189 71.2276 239.324C71.2952 234.797 71.8357 230.676 72.579 229.257C72.6465 229.189 72.7141 229.122 72.7817 229.122C72.8492 229.122 72.9168 229.122 72.9844 229.122C73.0519 229.189 73.1195 229.257 73.1195 229.324C73.1195 229.392 73.1195 229.46 73.1195 229.527C72.5114 230.743 71.8357 234.865 71.8357 240.27C73.5249 243.041 74.9438 245.946 76.2276 248.919C76.7681 248.041 77.4438 247.297 78.3222 246.757C78.7952 246.419 79.3357 246.216 79.8763 246.081V241.216C79.8763 241.149 79.8763 241.081 79.9438 241.014C80.0114 240.946 80.079 240.946 80.1465 240.946C80.2141 240.946 80.2817 240.946 80.3492 241.014C80.4168 241.081 80.4168 241.149 80.4168 241.216V246.014C80.5519 246.014 80.6195 246.014 80.7546 246.014C84.133 246.014 88.3222 249.392 90.8222 252.568C91.4979 252.433 92.106 252.365 92.7817 252.365C94.5384 252.365 94.9438 252.162 95.2141 251.419C95.5519 250.406 95.2141 250 91.4303 248.243C90.9573 248.041 90.4168 247.77 89.8763 247.5C88.9979 247.162 88.2546 246.622 87.6465 245.946C87.0384 245.27 86.5654 244.46 86.3627 243.514C86.2276 242.635 86.2276 241.689 86.4303 240.811C86.633 239.933 87.0384 239.122 87.5114 238.378C86.4303 235.946 84.7411 234.122 81.0925 234.797C79.4033 235.135 77.1736 235.743 76.4303 232.095C75.6871 228.378 74.5384 225 71.8357 226.622C69.9438 228.108 68.5249 228.378 67.3087 225.27Z" fill="#005844"/>
<path d="M123.12 258.581C123.66 255.608 122.782 247.973 116.633 250.27C111.768 252.094 111.025 251.757 110.687 248.581C110.349 245.405 106.633 243.784 103.525 243.851C100.484 243.919 100.552 244.662 99.4033 242.838C98.2547 241.013 91.1601 237.365 91.1601 237.365C90.3493 237.5 89.606 237.905 88.9979 238.513C87.3087 240.676 85.9574 244.594 89.9439 246.486C93.9979 248.378 97.106 248.446 96.2952 251.554C95.2817 255.338 91.025 252.297 90.0114 255.135C89.4033 256.892 91.9709 261.689 96.4304 260.067C100.349 258.649 105.755 258.311 106.025 261.419C106.43 266.351 96.7006 265.946 101.633 271.689C103.998 274.392 109.403 273.851 113.187 273.311C114.944 272.905 116.498 271.892 117.511 270.405C117.241 269.054 116.903 267.703 116.43 266.419C112.714 265.27 110.417 265.135 108.457 266.013C108.39 266.013 108.322 266.013 108.255 266.013C108.187 266.013 108.12 265.946 108.052 265.878C108.052 265.811 107.984 265.743 108.052 265.608C108.052 265.54 108.12 265.473 108.187 265.405C110.552 264.392 113.052 264.73 116.093 265.608C113.93 260.338 110.147 257.23 106.228 254.459C103.863 254.932 101.498 255.203 99.0655 255.27C98.6601 255.27 98.2547 255.27 97.8493 255.203C97.7817 255.203 97.7817 255.203 97.7142 255.203C97.6466 255.203 97.6466 255.135 97.6466 255.135C97.6466 255.135 97.579 255.067 97.579 255C97.579 254.932 97.579 254.932 97.579 254.865C97.579 254.797 97.6466 254.73 97.7142 254.662C97.7817 254.594 97.8493 254.594 97.9169 254.594C100.484 254.662 102.984 254.459 105.484 253.986L104.674 253.378C100.349 250.405 95.8898 247.297 93.5925 241.554C93.5925 241.486 93.5925 241.419 93.5925 241.284C93.5925 241.216 93.6601 241.149 93.7952 241.149C93.8628 241.149 93.9304 241.149 94.0655 241.149C94.1331 241.149 94.2006 241.216 94.2006 241.351C96.4304 246.892 100.62 249.797 105.079 252.905C105.484 253.176 105.89 253.446 106.295 253.716C106.295 251.216 105.755 248.716 104.809 246.419C104.809 246.351 104.809 246.351 104.741 246.284C104.741 246.216 104.741 246.216 104.741 246.149C104.741 246.081 104.741 246.081 104.809 246.013L104.876 245.946C104.944 245.946 104.944 245.946 105.011 245.878C105.079 245.878 105.079 245.878 105.147 245.878C105.214 245.878 105.214 245.878 105.282 245.946L105.349 246.013C106.43 248.513 106.971 251.284 106.903 253.986V254.054C110.552 256.622 114.065 259.527 116.295 264.257C116.228 263.513 116.093 262.567 115.957 261.622C115.552 259.392 115.349 257.162 115.282 254.865C115.282 254.797 115.282 254.797 115.282 254.73C115.282 254.662 115.349 254.662 115.349 254.662L115.417 254.594C115.484 254.594 115.484 254.594 115.552 254.594C115.62 254.594 115.62 254.594 115.687 254.594C115.755 254.594 115.755 254.662 115.755 254.662L115.822 254.73C115.822 254.797 115.822 254.797 115.822 254.865C115.89 257.094 116.16 259.324 116.498 261.554C116.768 262.973 116.903 264.459 116.971 265.946C117.444 267.162 117.782 268.378 118.052 269.594C118.255 269.257 118.457 268.919 118.593 268.513C119.471 266.486 120.484 264.257 121.363 262.432C122.309 261.284 122.782 259.932 123.12 258.581Z" fill="#005844"/>
<path d="M115.617 273.919C113.387 274.73 110.955 275.068 108.59 275C105.347 275 102.982 274.257 101.292 272.635C101.225 272.568 101.09 272.432 101.022 272.365C100.279 273.108 99.5357 273.919 98.9276 274.797C98.8601 277.905 99.6033 280.946 101.09 283.649C101.157 283.716 101.157 283.784 101.157 283.851C101.157 283.919 101.09 283.987 101.022 284.054C100.955 284.122 100.887 284.122 100.82 284.122C100.752 284.122 100.684 284.054 100.617 283.987C99.1303 281.419 98.3871 278.514 98.3871 275.608C95.1438 280.608 93.1844 286.284 92.7114 292.162C92.7114 292.23 92.6438 292.297 92.6438 292.365C92.5763 292.432 92.5087 292.432 92.4411 292.432C92.3736 292.432 92.306 292.365 92.2384 292.297C92.1709 292.23 92.1709 292.162 92.1709 292.095C92.6438 286.351 94.5357 280.811 97.5763 275.878C96.0222 276.96 93.3871 278.851 91.833 280.203C91.7655 280.27 91.6979 280.27 91.6303 280.27C91.5628 280.27 91.4952 280.203 91.4276 280.135C91.3601 280.068 91.3601 280 91.3601 279.932C91.3601 279.865 91.3601 279.797 91.4276 279.73C93.7925 277.703 98.3195 274.595 98.5898 274.392C99.2655 273.514 100.009 272.635 100.82 271.824C100.414 271.419 100.076 270.878 99.8736 270.338C99.6709 269.797 99.5357 269.189 99.6033 268.581C99.806 266.689 101.428 265.541 102.914 264.595C103.387 264.257 103.792 263.987 104.198 263.716C103.725 263.176 103.387 262.77 103.117 262.5C102.441 261.892 101.63 261.419 100.82 261.081C99.9411 260.811 99.0628 260.676 98.1168 260.743C97.9141 260.811 97.779 260.811 97.5763 260.878C96.9682 261.081 96.2925 261.284 95.6168 261.284C93.6574 262.297 94.4006 264.392 95.8195 265.203C96.2249 265.405 96.6303 265.743 96.833 266.149C97.1033 266.554 97.2384 267.027 97.2384 267.5C97.2384 267.973 97.1033 268.446 96.9006 268.851C96.6979 269.257 96.2925 269.595 95.8871 269.865C93.5222 271.419 90.8195 272.365 87.9817 272.635C84.1303 273.311 82.5087 274.865 82.3736 276.757C82.1033 280.946 87.2384 279.392 88.6574 280.946C89.0628 281.419 89.333 281.892 89.5357 282.5C89.7384 283.041 89.806 283.649 89.7384 284.257C89.6709 284.865 89.5357 285.405 89.1979 285.946C88.9276 286.487 88.5222 286.892 88.0492 287.297C87.5087 287.77 87.0357 288.378 86.7655 289.122C86.4952 289.797 86.2925 290.541 86.3601 291.284C86.3601 292.027 86.5628 292.77 86.9006 293.446C87.2384 294.122 87.7114 294.73 88.2519 295.203C90.7519 297.23 95.4141 296.081 96.1574 292.635C96.833 289.257 95.8871 287.162 98.3871 286.284C100.887 285.405 103.59 289.662 107.036 287.432C110.482 285.203 105.887 281.824 105.752 278.851C105.617 275.878 108.455 275.203 110.211 276.757C111.968 278.311 114.603 280.811 116.63 279.054C117.982 277.838 117.644 275.541 115.617 273.919Z" fill="#005844"/>
<path d="M156.429 283.04C158.658 280.338 158.456 275.473 153.185 272.905C148.456 270.608 157.442 267.365 154.266 263.986C151.091 260.54 149.199 262.23 143.658 261.892C138.118 261.554 141.969 257.23 138.726 253.311C137.172 251.419 134.807 251.554 132.239 252.838C129.334 254.662 123.793 261.013 120.956 266.824C122.51 266.486 123.996 266.216 125.348 265.946C129.334 264.054 132.983 261.486 136.158 258.446C136.226 258.378 136.293 258.378 136.361 258.311C136.429 258.311 136.496 258.311 136.564 258.378C136.631 258.446 136.631 258.513 136.631 258.581C136.631 258.648 136.631 258.716 136.564 258.784C133.861 261.486 130.753 263.716 127.375 265.54C131.969 264.797 135.347 264.797 138.591 266.081C141.226 266.824 148.456 267.838 151.293 266.621C151.361 266.621 151.429 266.554 151.564 266.621C151.631 266.621 151.699 266.689 151.766 266.757C151.766 266.824 151.766 266.892 151.766 267.027C151.766 267.094 151.699 267.162 151.631 267.23C149.199 268.243 144.131 267.77 140.888 267.23C144.064 269.189 147.375 272.635 151.766 278.108C151.834 278.175 151.834 278.243 151.834 278.311C151.834 278.378 151.766 278.446 151.699 278.513C151.631 278.581 151.564 278.581 151.496 278.581C151.429 278.581 151.361 278.513 151.293 278.446C146.969 272.973 143.726 269.662 140.55 267.703C142.983 270.203 142.915 272.162 142.78 274.662C142.78 274.73 142.712 274.797 142.712 274.865C142.645 274.932 142.577 274.932 142.51 274.932C142.442 274.932 142.375 274.865 142.307 274.797C142.239 274.73 142.239 274.662 142.239 274.594C142.375 271.621 142.442 269.73 138.456 266.621C135.077 265.27 131.564 265.405 126.564 266.284C128.185 267.094 129.469 268.311 130.415 269.797C130.415 269.865 130.483 269.865 130.483 269.932C130.483 270 130.483 270 130.483 270.067C130.483 270.135 130.483 270.135 130.415 270.203L130.348 270.27C130.28 270.27 130.28 270.338 130.212 270.338C130.145 270.338 130.145 270.338 130.077 270.338C130.01 270.338 130.01 270.338 129.942 270.27L129.875 270.203C128.861 268.581 127.307 267.297 125.483 266.554C123.996 266.824 122.442 267.162 120.753 267.567C120.01 269.121 119.537 270.743 119.334 272.432C119.402 273.176 119.672 273.919 120.01 274.594C120.415 275.27 120.888 275.878 121.496 276.284C127.712 281.013 128.253 274.392 133.523 273.784C137.78 273.311 136.023 277.567 138.05 281.148C140.077 284.662 142.51 281.824 144.064 280.675C145.618 279.527 146.564 278.716 148.185 281.959C148.591 282.703 149.131 283.311 149.807 283.851C150.483 284.324 151.293 284.662 152.104 284.73C152.915 284.865 153.793 284.73 154.604 284.459C155.145 284.121 155.888 283.648 156.429 283.04Z" fill="#005844"/>
<path d="M88.3223 271.486C91.9034 270.878 95.0115 269.729 95.0115 267.702C95.0115 266.351 92.7142 265.607 93.3223 262.972C93.3223 262.432 93.2548 261.959 93.0521 261.418C92.9845 261.418 92.9169 261.486 92.8494 261.418C90.8899 261.013 88.8629 260.743 86.8358 260.675C84.471 262.364 82.4439 264.459 80.6872 266.756C80.6872 266.824 80.6196 266.824 80.5521 266.824C80.4845 266.824 80.4845 266.824 80.4169 266.824C80.3494 266.824 80.2818 266.824 80.2142 266.756L80.1467 266.689C80.1467 266.689 80.0791 266.621 80.0791 266.553C80.0791 266.486 80.0791 266.486 80.0791 266.418C80.0791 266.351 80.0791 266.351 80.1467 266.283C81.7683 264.121 83.6602 262.229 85.7548 260.54C82.3088 260.675 78.9304 261.351 75.6872 262.634C74.4034 265.202 72.7142 267.567 70.7548 269.662C70.7548 269.662 70.6872 269.729 70.6196 269.729C70.5521 269.729 70.5521 269.729 70.4845 269.729C70.4169 269.729 70.4169 269.729 70.3494 269.662C70.2818 269.662 70.2818 269.594 70.2818 269.594C70.2818 269.594 70.2142 269.526 70.2142 269.459C70.2142 269.391 70.2142 269.391 70.2142 269.324C70.2142 269.256 70.2142 269.256 70.2818 269.189C70.2818 269.121 70.3494 269.121 70.3494 269.121C72.1061 267.229 73.6602 265.134 74.8764 262.837C71.7007 264.053 68.3223 264.729 64.944 264.797C63.998 264.797 63.1196 264.729 62.1737 264.662C62.1061 264.662 62.0385 264.594 61.971 264.526C61.9034 264.459 61.9034 264.391 61.9034 264.324C61.9034 264.256 61.971 264.189 62.0385 264.121C62.1061 264.053 62.1737 264.053 62.2412 264.053C66.0926 264.459 70.0115 263.986 73.5926 262.634C72.5115 262.229 71.4304 261.689 70.4845 261.08C69.5385 260.54 68.525 259.999 67.5115 259.526C67.4439 259.526 67.444 259.459 67.444 259.459L67.3764 259.391C67.3764 259.324 67.3764 259.324 67.3764 259.256C67.3764 259.189 67.3764 259.189 67.3764 259.121C67.3764 259.053 67.4439 258.986 67.5115 258.986C67.5791 258.986 67.6467 258.986 67.7142 258.986C68.7953 259.459 69.8088 259.999 70.7548 260.54C71.971 261.418 73.3223 261.959 74.8088 262.229L75.2142 262.094C78.525 260.81 82.0385 260.067 85.6196 259.932C83.3223 258.513 79.1331 255.878 79.1331 255.878C79.0656 255.81 78.998 255.743 78.998 255.675C78.998 255.607 78.998 255.54 79.0656 255.472C79.1331 255.405 79.2007 255.337 79.2683 255.337C79.3358 255.337 79.4034 255.337 79.471 255.405C79.5385 255.472 85.0115 258.986 86.8358 259.999C88.5926 260.067 90.2818 260.27 91.971 260.54C91.2277 260.134 90.5521 259.459 90.0791 258.783C89.6061 258.175 89.2683 257.432 89.0656 256.689C88.9304 255.945 88.9304 255.134 89.0656 254.324C89.3358 253.918 89.6061 253.513 89.944 253.175C87.1737 249.729 81.7007 246.013 79.2007 247.77C75.2142 250.54 77.2412 253.851 74.6061 255.27C73.6602 255.81 72.6467 256.08 71.5656 256.013C70.4845 255.945 69.471 255.607 68.5926 254.999C68.1196 254.729 67.5791 254.594 67.0385 254.594C66.498 254.594 65.9575 254.797 65.5521 255.067C65.0791 255.337 64.7413 255.81 64.5385 256.283C64.3358 256.756 64.2007 257.297 64.2683 257.837C64.3358 261.013 64.8764 261.013 62.1737 261.283C59.6737 261.553 54.8088 261.891 54.0656 265.81C53.3223 269.729 57.2412 270.945 58.5926 271.013C61.8358 271.216 64.944 268.648 66.025 271.486C67.1061 274.256 67.1737 276.418 69.2007 276.351C73.4575 276.216 73.9304 271.486 77.1061 271.283C78.525 271.216 80.7548 272.837 81.9034 274.256C82.8494 273.04 84.8088 272.094 88.3223 271.486Z" fill="#005844"/>
<path d="M178.323 288.648C171.498 286.351 162.714 282.567 162.714 282.567C161.971 283.378 161.025 283.986 160.012 284.256C164.471 286.418 173.12 290.337 173.12 290.337C173.998 288.918 177.106 288.445 178.323 288.648Z" fill="#005844"/>
<path d="M170.754 294.054C162.714 293.243 158.187 297.432 162.173 297.905C170.078 298.918 175.281 294.459 170.754 294.054Z" fill="#005844"/>
<path d="M181.159 290.067C177.51 288.716 173.118 291.216 175.415 292.432C178.523 294.054 184.807 291.486 181.159 290.067Z" fill="#005844"/>
<path d="M167.984 292.635C165.079 291.351 159.335 288.851 153.998 286.283C152.038 287.297 150.214 288.445 148.457 289.729C153.052 292.162 157.511 294.729 159.133 295.675C160.281 294.526 161.7 293.648 163.187 293.108C164.741 292.567 166.43 292.432 167.984 292.635Z" fill="#005844"/>
<path d="M151.365 0C126.5 0 102.176 7.36486 81.5004 21.2162C60.8247 35.0676 44.6761 54.6622 35.149 77.6351C25.622 100.608 23.122 125.878 27.9869 150.338C32.8517 174.73 44.8112 197.162 62.3788 214.73C79.9463 232.297 102.379 244.324 126.771 249.122C151.163 253.987 176.433 251.486 199.406 241.959C222.379 232.432 242.041 216.284 255.825 195.608C269.676 174.932 277.041 150.608 277.041 125.743C277.041 109.257 273.798 92.8378 267.446 77.6351C261.095 62.3649 251.838 48.5135 240.217 36.8243C228.527 25.1351 214.676 15.8784 199.406 9.52703C184.203 3.24324 167.852 0 151.365 0Z" fill="#AA8A00"/>
<path d="M268.174 126.009C268.319 61.5257 216.194 9.13383 151.748 8.98812C87.3028 8.84241 34.941 60.998 34.7952 125.481C34.6494 189.964 86.7748 242.356 151.22 242.502C215.666 242.647 268.028 190.492 268.174 126.009Z" fill="#00B5E2"/>
<path d="M151.5 224.662C206.094 224.662 250.351 180.405 250.351 125.811C250.351 71.2167 206.094 26.9595 151.5 26.9595C96.9057 26.9595 52.6484 71.2167 52.6484 125.811C52.6484 180.405 96.9057 224.662 151.5 224.662Z" fill="#EF3340"/>
<path d="M232.432 126.264C232.72 81.5593 196.713 45.0853 152.007 44.7975C107.302 44.5098 70.8282 80.5173 70.5405 125.223C70.2528 169.928 106.26 206.402 150.965 206.689C195.671 206.977 232.145 170.97 232.432 126.264Z" fill="#509E2F"/>
<path d="M149.271 253.852C150.826 255.406 151.907 257.365 152.312 259.595C154.542 258.244 157.785 254.663 156.704 253.041C155.961 251.757 152.042 252.027 149.271 253.852Z" fill="#AA8A00"/>
<path d="M145.556 256.014C145.421 256.014 145.285 256.082 145.15 256.149C145.015 256.217 144.948 256.352 144.88 256.487C144.812 256.622 144.813 256.757 144.813 256.96C144.813 257.095 144.948 257.23 145.015 257.366C145.15 257.501 145.285 257.568 145.421 257.568C145.556 257.568 145.758 257.568 145.894 257.501C146.029 257.433 146.164 257.366 146.231 257.23C146.299 257.095 146.367 256.96 146.367 256.825C146.367 256.622 146.299 256.42 146.164 256.284C145.961 256.149 145.758 256.014 145.556 256.014Z" fill="#AA8A00"/>
<path d="M148.46 254.46C148.46 254.325 148.393 254.19 148.325 254.055C148.258 253.919 148.122 253.852 147.987 253.784C147.852 253.717 147.717 253.717 147.514 253.717C147.379 253.717 147.244 253.852 147.109 253.919C146.974 254.055 146.906 254.19 146.906 254.325C146.906 254.46 146.906 254.663 146.974 254.798C147.041 254.933 147.109 255.068 147.244 255.136C147.379 255.203 147.514 255.271 147.649 255.271C147.785 255.271 147.852 255.271 147.92 255.203C147.987 255.136 148.122 255.136 148.19 255.068C148.258 255.001 148.325 254.933 148.325 254.798C148.46 254.663 148.46 254.528 148.46 254.46Z" fill="#AA8A00"/>
<path d="M148.192 256.352C148.057 256.352 147.922 256.42 147.787 256.487C147.652 256.555 147.584 256.69 147.517 256.825C147.449 256.96 147.449 257.095 147.449 257.298C147.449 257.433 147.584 257.568 147.652 257.703C147.787 257.839 147.922 257.906 148.057 257.906C148.192 257.906 148.395 257.906 148.53 257.839C148.665 257.771 148.801 257.703 148.868 257.568C148.936 257.433 149.003 257.298 149.003 257.163C149.003 257.028 149.003 256.96 148.936 256.893C148.868 256.825 148.868 256.69 148.801 256.622C148.733 256.555 148.665 256.487 148.53 256.487C148.395 256.352 148.26 256.352 148.192 256.352Z" fill="#AA8A00"/>
<path d="M150.083 258.244C149.948 258.244 149.813 258.311 149.678 258.379C149.543 258.446 149.475 258.581 149.407 258.717C149.34 258.852 149.34 258.987 149.34 259.19C149.34 259.325 149.475 259.46 149.543 259.595C149.678 259.73 149.813 259.798 149.948 259.798C150.083 259.798 150.286 259.798 150.421 259.73C150.556 259.663 150.691 259.595 150.759 259.46C150.826 259.325 150.894 259.19 150.894 259.054C150.894 258.852 150.826 258.649 150.691 258.514C150.488 258.379 150.286 258.244 150.083 258.244Z" fill="#AA8A00"/>
<path d="M147.448 258.649C147.313 258.649 147.178 258.717 147.043 258.784C146.908 258.852 146.84 258.987 146.773 259.122C146.705 259.257 146.705 259.392 146.705 259.595C146.705 259.73 146.84 259.865 146.908 260C147.043 260.135 147.178 260.203 147.313 260.203C147.448 260.203 147.651 260.203 147.786 260.135C147.921 260.068 148.056 260 148.124 259.865C148.192 259.73 148.259 259.595 148.259 259.46C148.259 259.257 148.192 259.054 148.056 258.919C147.854 258.784 147.651 258.649 147.448 258.649Z" fill="#AA8A00"/>
<path d="M120.623 283.175C118.934 284.797 117.92 288.108 119.474 289.121C121.366 290.337 124.61 286.824 124.61 286.824C123.596 285.337 122.245 284.121 120.623 283.175Z" fill="#AA8A00"/>
<path d="M124.001 281.689C124.001 281.554 123.934 281.419 123.866 281.284C123.799 281.149 123.663 281.081 123.528 281.013C123.393 280.946 123.258 280.946 123.055 280.946C122.92 280.946 122.785 281.081 122.65 281.149C122.515 281.284 122.447 281.419 122.447 281.554C122.447 281.689 122.447 281.892 122.515 282.027C122.582 282.162 122.65 282.297 122.785 282.365C122.92 282.432 123.055 282.5 123.191 282.5C123.393 282.5 123.596 282.432 123.731 282.297C123.934 282.094 124.001 281.892 124.001 281.689Z" fill="#AA8A00"/>
<path d="M125.759 280.878C125.624 280.878 125.489 280.945 125.353 281.013C125.218 281.081 125.151 281.216 125.083 281.351C125.016 281.486 125.016 281.621 125.016 281.824C125.016 281.959 125.151 282.094 125.218 282.229C125.353 282.364 125.489 282.432 125.624 282.432C125.759 282.432 125.962 282.432 126.097 282.364C126.232 282.297 126.367 282.229 126.435 282.094C126.502 281.959 126.57 281.824 126.57 281.689C126.57 281.486 126.502 281.283 126.367 281.148C126.164 281.013 125.962 280.878 125.759 280.878Z" fill="#AA8A00"/>
<path d="M125.421 283.513C125.286 283.513 125.151 283.581 125.016 283.648C124.88 283.716 124.813 283.851 124.745 283.986C124.678 284.121 124.678 284.256 124.678 284.459C124.678 284.594 124.813 284.729 124.88 284.865C125.016 285 125.151 285.067 125.286 285.067C125.421 285.067 125.624 285.067 125.759 285C125.894 284.932 126.029 284.865 126.097 284.729C126.164 284.594 126.232 284.459 126.232 284.324C126.232 284.189 126.232 284.121 126.164 284.054C126.097 283.986 126.097 283.851 126.029 283.783C125.962 283.716 125.894 283.648 125.759 283.648C125.624 283.513 125.556 283.513 125.421 283.513Z" fill="#AA8A00"/>
<path d="M71.7038 278.109C69.8794 281.69 70.2848 285.947 71.501 286.96C73.0551 288.244 77.8524 282.771 78.3929 281.217C76.6362 279.46 74.2038 278.312 71.7038 278.109Z" fill="#AA8A00"/>
<path d="M74.4746 276.42C74.4746 276.555 74.5422 276.69 74.6097 276.825C74.6773 276.96 74.8124 277.028 74.9476 277.095C75.0827 277.163 75.2179 277.163 75.4206 277.163C75.5557 277.163 75.6908 277.028 75.826 276.96C75.9611 276.825 76.0287 276.69 76.0287 276.555C76.0287 276.42 76.0287 276.217 75.9611 276.082C75.8935 275.947 75.826 275.812 75.6908 275.744C75.5557 275.676 75.4206 275.609 75.2854 275.609C75.0827 275.609 74.88 275.676 74.7449 275.812C74.5422 276.082 74.4746 276.217 74.4746 276.42Z" fill="#AA8A00"/>
<path d="M76.7715 275.812C76.7715 275.947 76.839 276.082 76.9066 276.217C76.9742 276.352 77.1093 276.42 77.2445 276.487C77.3796 276.555 77.5147 276.555 77.7174 276.555C77.8526 276.555 77.9877 276.42 78.1228 276.352C78.258 276.217 78.3255 276.082 78.3255 275.947C78.3255 275.812 78.3255 275.609 78.258 275.474C78.1904 275.339 78.1228 275.204 77.9877 275.136C77.8526 275.069 77.7174 275.001 77.5823 275.001C77.3796 275.001 77.1769 275.069 77.0418 275.204C76.8391 275.406 76.7715 275.609 76.7715 275.812Z" fill="#AA8A00"/>
<path d="M78.2569 277.5C78.1218 277.5 77.9866 277.568 77.8515 277.636C77.7164 277.703 77.6488 277.838 77.5812 277.973C77.5137 278.109 77.5137 278.244 77.5137 278.446C77.5137 278.582 77.6488 278.717 77.7164 278.852C77.8515 278.987 77.9866 279.055 78.1218 279.055C78.2569 279.055 78.4596 279.055 78.5948 278.987C78.7299 278.919 78.865 278.852 78.9326 278.717C79.0002 278.582 79.0677 278.446 79.0677 278.311C79.0677 278.109 79.0002 277.906 78.865 277.771C78.6623 277.568 78.4596 277.5 78.2569 277.5Z" fill="#AA8A00"/>
<path d="M80.6221 277.636C80.487 277.636 80.3519 277.703 80.2167 277.771C80.0816 277.838 80.014 277.974 79.9465 278.109C79.8789 278.244 79.8789 278.379 79.8789 278.582C79.8789 278.717 80.014 278.852 80.0816 278.987C80.2167 279.122 80.3519 279.19 80.487 279.19C80.6222 279.19 80.8249 279.19 80.96 279.122C81.0951 279.055 81.2303 278.987 81.2978 278.852C81.3654 278.717 81.433 278.582 81.433 278.447C81.433 278.244 81.3654 278.041 81.2303 277.906C81.0276 277.771 80.8249 277.636 80.6221 277.636Z" fill="#AA8A00"/>
<path d="M80.6224 275.203C80.6224 275.068 80.5548 274.933 80.4873 274.798C80.4197 274.663 80.2846 274.595 80.1494 274.528C80.0143 274.46 79.8792 274.46 79.6765 274.46C79.5413 274.46 79.4062 274.595 79.2711 274.663C79.1359 274.798 79.0684 274.933 79.0684 275.068C79.0684 275.203 79.0684 275.406 79.1359 275.541C79.2035 275.676 79.2711 275.811 79.4062 275.879C79.5413 275.946 79.6765 276.014 79.8116 276.014C80.0143 276.014 80.217 275.946 80.3521 275.811C80.5548 275.609 80.6224 275.406 80.6224 275.203Z" fill="#AA8A00"/>
<path d="M76.5011 272.568C76.3659 272.568 76.2308 272.636 76.0957 272.704C75.9605 272.771 75.8929 272.906 75.8254 273.041C75.7578 273.176 75.7578 273.312 75.7578 273.514C75.7578 273.649 75.8929 273.785 75.9605 273.92C76.0956 274.055 76.2308 274.122 76.3659 274.122C76.5011 274.122 76.7038 274.122 76.8389 274.055C76.974 273.987 77.1092 273.92 77.1767 273.785C77.2443 273.649 77.3119 273.514 77.3119 273.379C77.3119 273.176 77.2443 272.974 77.1092 272.839C76.9065 272.636 76.7038 272.568 76.5011 272.568Z" fill="#AA8A00"/>
<path d="M45.825 246.217C45.7574 248.109 50.352 249.865 54.2033 249.933C54.6763 247.771 54.6763 245.473 54.2033 243.311C50.825 243.041 45.825 244.325 45.825 246.217Z" fill="#AA8A00"/>
<path d="M56.0284 249.798C55.8933 249.798 55.7581 249.865 55.623 249.933C55.4879 250.001 55.4203 250.136 55.3527 250.271C55.2852 250.406 55.2852 250.541 55.2852 250.744C55.2852 250.879 55.4203 251.014 55.4879 251.149C55.623 251.284 55.7581 251.352 55.8933 251.352C56.0284 251.352 56.2311 251.352 56.3662 251.284C56.5014 251.217 56.6365 251.149 56.7041 251.014C56.7716 250.879 56.8392 250.744 56.8392 250.609C56.8392 250.406 56.7716 250.203 56.6365 250.068C56.4338 249.933 56.2311 249.798 56.0284 249.798Z" fill="#AA8A00"/>
<path d="M58.2589 248.514C58.1237 248.514 57.9886 248.581 57.8535 248.649C57.7183 248.716 57.6508 248.852 57.5832 248.987C57.5156 249.122 57.5156 249.257 57.5156 249.46C57.5156 249.595 57.6508 249.73 57.7183 249.865C57.8535 250 57.9886 250.068 58.1237 250.068C58.2589 250.068 58.4616 250.068 58.5967 250C58.7318 249.933 58.867 249.865 58.9345 249.73C59.0021 249.595 59.0697 249.46 59.0697 249.324C59.0697 249.122 59.0021 248.919 58.867 248.784C58.6643 248.581 58.4616 248.514 58.2589 248.514Z" fill="#AA8A00"/>
<path d="M60.421 247.095C60.2858 247.095 60.1507 247.163 60.0156 247.23C59.8804 247.298 59.8129 247.433 59.7453 247.568C59.6777 247.703 59.6777 247.838 59.6777 248.041C59.6777 248.176 59.8129 248.311 59.8804 248.447C60.0156 248.582 60.1507 248.649 60.2858 248.649C60.421 248.649 60.6237 248.649 60.7588 248.582C60.8939 248.514 61.0291 248.447 61.0967 248.311C61.1642 248.176 61.2318 248.041 61.2318 247.906C61.2318 247.703 61.1642 247.501 61.0291 247.365C60.8264 247.163 60.6237 247.095 60.421 247.095Z" fill="#AA8A00"/>
<path d="M56.3663 246.757C56.2312 246.757 56.096 246.825 55.9609 246.892C55.8257 246.96 55.7582 247.095 55.6906 247.23C55.623 247.365 55.623 247.501 55.623 247.703C55.623 247.838 55.7582 247.974 55.8258 248.109C55.9609 248.244 56.096 248.311 56.2312 248.311C56.3663 248.311 56.569 248.311 56.7041 248.244C56.8393 248.176 56.9744 248.109 57.042 247.974C57.1095 247.838 57.1771 247.703 57.1771 247.568C57.1771 247.365 57.1095 247.163 56.9744 247.028C56.7717 246.825 56.569 246.757 56.3663 246.757Z" fill="#AA8A00"/>
<path d="M58.5968 245.135C58.4616 245.135 58.3265 245.203 58.1914 245.27C58.0562 245.338 57.9886 245.473 57.9211 245.608C57.8535 245.743 57.8535 245.879 57.8535 246.081C57.8535 246.216 57.9886 246.351 58.0562 246.487C58.1914 246.622 58.3265 246.689 58.4616 246.689C58.5968 246.689 58.7995 246.689 58.9346 246.622C59.0697 246.554 59.2049 246.487 59.2724 246.351C59.34 246.216 59.4076 246.081 59.4076 245.946C59.4076 245.743 59.34 245.541 59.2049 245.406C59.0022 245.27 58.7995 245.135 58.5968 245.135Z" fill="#AA8A00"/>
<path d="M56.5694 243.244C56.4343 243.244 56.2991 243.311 56.164 243.379C56.0289 243.446 55.9613 243.581 55.8937 243.717C55.8262 243.852 55.8262 243.987 55.8262 244.19C55.8262 244.325 55.9613 244.46 56.0289 244.595C56.164 244.73 56.2991 244.798 56.4343 244.798C56.5694 244.798 56.7721 244.798 56.9073 244.73C57.0424 244.663 57.1775 244.595 57.2451 244.46C57.3127 244.325 57.3802 244.19 57.3802 244.054C57.3802 243.852 57.3127 243.649 57.1775 243.514C56.9748 243.379 56.7721 243.244 56.5694 243.244Z" fill="#AA8A00"/>
<path d="M23.5285 183.582C20.8934 181.352 15.961 181.419 15.2853 182.433C14.5421 183.649 17.2448 186.825 19.8123 188.717C21.3664 187.163 22.5826 185.473 23.5285 183.582Z" fill="#AA8A00"/>
<path d="M21.0968 189.459C20.8941 189.459 20.6914 189.527 20.5562 189.662C20.4211 189.797 20.3535 190 20.3535 190.202C20.3535 190.405 20.4211 190.608 20.5562 190.743C20.6914 190.878 20.8941 190.945 21.0968 190.945C21.2995 190.945 21.5022 190.878 21.6373 190.743C21.7724 190.608 21.84 190.405 21.84 190.202C21.84 190 21.7724 189.797 21.6373 189.662C21.5022 189.594 21.2995 189.459 21.0968 189.459Z" fill="#AA8A00"/>
<path d="M23.5304 189.459C23.3277 189.459 23.1249 189.527 22.9898 189.662C22.8547 189.797 22.7871 190 22.7871 190.202C22.7871 190.405 22.8547 190.608 22.9898 190.743C23.1249 190.878 23.3277 190.945 23.5304 190.945C23.7331 190.945 23.9358 190.878 24.0709 190.743C24.206 190.608 24.2736 190.405 24.2736 190.202C24.2736 190 24.206 189.797 24.0709 189.662C23.9358 189.594 23.7331 189.459 23.5304 189.459Z" fill="#AA8A00"/>
<path d="M23.3272 188.378C23.5299 188.378 23.7326 188.311 23.8678 188.175C24.0029 188.04 24.0705 187.838 24.0705 187.635C24.0705 187.432 24.0029 187.229 23.8678 187.094C23.7326 186.959 23.5299 186.892 23.3272 186.892C23.1245 186.892 22.9218 186.959 22.7867 187.094C22.6516 187.229 22.584 187.432 22.584 187.635C22.584 187.77 22.584 187.838 22.6516 187.905C22.7191 187.973 22.7191 188.108 22.7867 188.175C22.8543 188.243 22.9218 188.311 23.057 188.311C23.1245 188.378 23.2597 188.378 23.3272 188.378Z" fill="#AA8A00"/>
<path d="M26.0968 186.892C25.8941 186.892 25.6914 186.959 25.5562 187.094C25.4211 187.229 25.3535 187.432 25.3535 187.635C25.3535 187.838 25.4211 188.04 25.5562 188.175C25.6914 188.311 25.8941 188.378 26.0968 188.378C26.2995 188.378 26.5022 188.311 26.6373 188.175C26.7724 188.04 26.84 187.838 26.84 187.635C26.84 187.432 26.7724 187.229 26.6373 187.094C26.5022 187.027 26.2995 186.892 26.0968 186.892Z" fill="#AA8A00"/>
<path d="M26.0978 184.797C26.0978 184.662 26.0978 184.594 26.0302 184.527C25.9627 184.459 25.9627 184.324 25.8951 184.256C25.8275 184.189 25.76 184.121 25.6248 184.121C25.5573 184.054 25.4221 184.054 25.3546 184.054C25.1519 184.054 24.9492 184.121 24.814 184.256C24.6789 184.392 24.6113 184.594 24.6113 184.797C24.6113 185 24.6789 185.202 24.814 185.337C24.9492 185.473 25.1519 185.54 25.3546 185.54C25.5573 185.54 25.76 185.473 25.8951 185.337C26.0302 185.202 26.0978 185 26.0978 184.797Z" fill="#AA8A00"/>
<path d="M250.893 89.1892C253.461 89.1892 255.488 87.0946 255.488 84.5946C255.488 82.027 253.393 80 250.893 80C248.326 80 246.299 82.0946 246.299 84.5946C246.299 87.1622 248.393 89.1892 250.893 89.1892Z" fill="#AA8A00"/>
<path d="M194.404 30.608C195.215 30.2702 195.958 29.6621 196.499 28.9188C197.04 28.1756 197.31 27.2972 197.31 26.3513C197.31 25.4053 197.04 24.5269 196.499 23.7837C195.958 23.0405 195.283 22.4324 194.404 22.0945C193.594 21.7567 192.648 21.6215 191.769 21.8242C190.891 22.0269 190.08 22.4324 189.404 23.108C188.729 23.7837 188.323 24.5945 188.121 25.4729C187.918 26.3513 188.053 27.2972 188.391 28.108C188.864 29.2567 189.742 30.1351 190.891 30.608C192.04 31.081 193.323 31.081 194.404 30.608Z" fill="#AA8A00"/>
<path d="M112.041 30.608C112.852 30.2702 113.595 29.6621 114.136 28.9188C114.676 28.1756 114.947 27.2972 114.947 26.3513C114.947 25.4053 114.676 24.5269 114.136 23.7837C113.595 23.0405 112.92 22.4324 112.041 22.0945C111.23 21.7567 110.284 21.6215 109.406 21.8242C108.528 22.0269 107.717 22.4324 107.041 23.108C106.365 23.7837 105.96 24.5945 105.757 25.4729C105.555 26.3513 105.69 27.2972 106.028 28.108C106.501 29.2567 107.379 30.1351 108.528 30.608C109.609 31.081 110.892 31.081 112.041 30.608Z" fill="#AA8A00"/>
<path d="M52.0415 89.1892C54.6091 89.1892 56.6361 87.0946 56.6361 84.5946C56.6361 82.027 54.5415 80 52.0415 80C49.5415 80 47.4469 82.0946 47.4469 84.5946C47.3793 87.1622 49.4739 89.1892 52.0415 89.1892Z" fill="#AA8A00"/>
<path d="M52.0415 171.621C54.6091 171.621 56.6361 169.527 56.6361 167.027C56.6361 164.459 54.5415 162.432 52.0415 162.432C49.5415 162.432 47.4469 164.527 47.4469 167.027C47.3793 169.527 49.4739 171.621 52.0415 171.621Z" fill="#AA8A00"/>
<path d="M108.526 221.014C107.716 221.352 106.972 221.96 106.432 222.703C105.959 223.446 105.621 224.325 105.621 225.271C105.621 226.149 105.891 227.095 106.432 227.838C106.972 228.581 107.648 229.19 108.526 229.527C109.337 229.865 110.283 230 111.162 229.798C112.04 229.595 112.851 229.19 113.526 228.514C114.202 227.838 114.608 227.027 114.81 226.149C115.013 225.271 114.878 224.325 114.54 223.514C114.067 222.365 113.189 221.487 112.04 221.014C110.891 220.541 109.608 220.541 108.526 221.014Z" fill="#AA8A00"/>
<path d="M190.892 221.014C190.081 221.351 189.338 221.96 188.797 222.703C188.324 223.446 187.986 224.324 187.986 225.27C187.986 226.149 188.257 227.095 188.797 227.838C189.338 228.581 190.013 229.189 190.892 229.527C191.703 229.865 192.648 230 193.527 229.797C194.405 229.595 195.216 229.189 195.892 228.514C196.567 227.838 196.973 227.027 197.176 226.149C197.378 225.27 197.243 224.324 196.905 223.514C196.703 222.973 196.365 222.433 195.892 222.027C195.486 221.622 194.946 221.284 194.405 221.014C193.865 220.811 193.257 220.676 192.648 220.676C192.04 220.676 191.432 220.743 190.892 221.014Z" fill="#AA8A00"/>
<path d="M250.893 171.621C253.461 171.621 255.488 169.527 255.488 167.027C255.488 164.459 253.393 162.432 250.893 162.432C248.326 162.432 246.299 164.527 246.299 167.027C246.299 169.527 248.393 171.621 250.893 171.621Z" fill="#AA8A00"/>
<path d="M268.053 125.135L209.54 101.284L233.391 42.7704L175.216 67.2974L150.689 9.0542L126.837 67.5677L68.3236 43.7164L92.8507 101.96L34.6074 126.419L93.1209 150.27L69.2696 208.784L127.513 184.257L151.972 242.5L175.824 183.987L234.337 207.838L209.81 149.662L268.053 125.135Z" fill="#AA8A00"/>
<path d="M173.459 178.446L226.365 200L204.203 147.365L256.838 125.203L204 103.649L225.554 50.7432L172.919 72.9053L150.757 20.2026L129.203 73.108L76.2972 51.554L98.4594 104.189L45.8242 126.351L98.7296 147.905L77.108 200.811L129.811 178.649L151.905 231.351L173.459 178.446Z" fill="white"/>
<path d="M157.245 147.297C157.245 125.811 148.393 120.27 148.393 99.0541C148.596 90.7433 150.218 82.5001 153.191 74.7974C151.366 96.3514 169.542 110 169.542 138.716C169.542 156.892 162.448 167.365 157.11 167.365C153.731 167.365 153.934 165.135 152.177 165.135C150.42 165.135 148.866 167.77 145.353 167.77C141.772 167.77 130.218 162.027 128.326 136.554C126.299 141.757 127.988 149.122 129.069 153.041C121.907 140.135 122.245 124.595 132.785 108.716C130.758 125.27 132.042 138.581 137.11 150.676C138.191 153.243 140.083 154.595 141.772 153.243C143.461 151.892 141.772 149.257 140.488 146.351C139.204 143.446 125.083 112.365 146.299 86.8244C143.866 109.189 152.853 123.176 152.853 133.649C152.853 144.122 146.569 158.176 152.65 158.176C156.366 158.108 157.245 150.811 157.245 147.297Z" fill="#EF3340"/>
<path d="M164.812 162.838C170.015 158.987 174.271 153.987 177.244 148.243C180.217 142.5 181.771 136.149 181.906 129.662C181.906 111.689 163.798 97.0949 160.758 86.6895C160.758 103.311 172.109 113.784 172.109 136.081C172.042 156.757 164.812 162.838 164.812 162.838Z" fill="#EF3340"/>
<path d="M145.624 280.946C145.286 281.013 144.948 281.149 144.745 281.419C144.475 281.621 144.205 281.892 143.935 282.162C143.056 283.311 141.705 283.986 140.286 284.189C139.813 284.189 139.408 284.054 139.002 283.919C138.597 283.716 138.191 283.446 137.921 283.108C132.043 285.946 126.637 289.054 122.516 291.486C124.272 291.554 125.962 292.094 127.448 293.04C131.705 290.203 139.137 286.149 146.772 282.094C146.164 281.216 145.759 280.946 145.624 280.946Z" fill="#FFC600"/>
<path d="M166.029 271.689C163.326 272.5 160.286 273.513 157.178 274.73C157.718 275.338 158.124 276.013 158.394 276.757C162.043 275.202 165.353 273.919 168.259 272.973C167.38 272.77 166.637 272.297 166.029 271.689Z" fill="#FFC600"/>
<path d="M130.422 294.459C133.395 293.784 136.435 294.054 139.273 295.067C143.327 291.689 147.584 288.581 152.043 285.811C150.625 285.675 149.341 285.067 148.26 284.189C142.043 287.162 136.098 290.608 130.422 294.459Z" fill="#FFC600"/>
<path d="M156.231 264.054C159.272 260 162.583 256.284 166.299 252.838C161.569 254.257 156.839 257.77 153.123 260.946C154.001 261.419 154.812 262.095 155.42 262.838C155.758 263.243 156.028 263.649 156.231 264.054Z" fill="#FFC600"/>
<path d="M275.016 188.919C277.786 185.608 278.192 182.703 278.192 171.824C276.435 174.73 271.435 181.486 270.624 184.662C269.002 190.743 272.313 192.297 275.016 188.919Z" fill="#FFC600"/>
<path d="M272.718 200.067C275.488 197.567 277.718 193.108 278.732 188.311C275.488 192.297 271.907 192.365 269.542 194.932C265.015 199.865 269.948 202.567 272.718 200.067Z" fill="#FFC600"/>
<path d="M268.53 192.77C269.206 190.608 267.719 186.081 268.327 182.635C265.354 185.946 263.26 192.095 264.543 194.933C265.76 197.838 267.854 194.865 268.53 192.77Z" fill="#FFC600"/>
<path d="M261.973 202.567C264.473 199.932 260.622 194.189 262.311 186.756C262.311 186.756 257.244 194.932 256.703 197.973C254.879 207.973 259.406 205.202 261.973 202.567Z" fill="#FFC600"/>
<path d="M266.367 210.135C268.935 209.932 272.11 206.959 275.421 200.743C272.786 203.784 265.894 202.567 263.867 204.865C263.394 205.338 263.056 205.878 262.921 206.554C262.786 207.23 262.854 207.838 263.124 208.446C263.394 209.054 263.867 209.527 264.408 209.865C265.083 210.135 265.759 210.27 266.367 210.135Z" fill="#FFC600"/>
<path d="M257.584 218.108C255.827 220.203 253.732 222.297 252.111 223.851C248.327 226.486 243.395 226.419 240.692 228.378C236.3 231.621 239.07 233.378 242.246 232.635C244.476 232.094 246.908 230.338 251.57 224.932C253.732 222.905 255.827 220.811 257.719 218.581C258.057 219.324 258.665 220 259.408 220.338C260.151 220.676 261.03 220.743 261.84 220.473C265.084 219.662 266.638 218.581 272.651 209.527C270.354 210.811 262.449 211.013 259.273 214.257C258.732 214.73 258.259 215.338 257.989 215.946C257.651 216.689 257.516 217.365 257.584 218.108Z" fill="#FFC600"/>
<path d="M232.718 231.96C233.055 228.243 231.974 228.784 235.42 222.433C233.934 223.514 227.785 228.311 227.785 233.108C227.853 239.595 232.38 235.676 232.718 231.96Z" fill="#FFC600"/>
<path d="M223.596 240.405C226.704 237.364 224.542 234.121 227.65 228.175C227.65 228.175 222.312 232.027 220.42 236.554C218.393 241.148 220.42 243.446 223.596 240.405Z" fill="#FFC600"/>
<path d="M215.962 245.946C219.881 241.96 217.178 238.919 219.611 234.054C217.516 236.216 214.476 238.379 212.584 241.757C210.422 245.743 212.043 249.933 215.962 245.946Z" fill="#FFC600"/>
<path d="M206.57 252.162C211.097 248.108 208.192 243.919 213.665 237.5C210.219 239.189 204.07 244.595 202.111 248.514C200.151 252.432 202.043 256.284 206.57 252.162Z" fill="#FFC600"/>
<path d="M196.503 257.095C199.679 253.919 200.016 248.446 203.935 241.757C201.706 243.176 194.408 247.365 191.503 252.23C188.057 257.973 193.327 260.27 196.503 257.095Z" fill="#FFC600"/>
<path d="M184.002 263.176C190.353 257.027 187.516 255.068 192.38 246.892C187.043 250.068 182.448 254.392 178.867 259.527C177.178 262.298 178.326 268.716 184.002 263.176Z" fill="#FFC600"/>
<path d="M167.178 266.081C165.016 270.743 168.935 273.04 172.178 270C175.422 266.959 176.705 259.189 183.462 249.662C178.867 252.365 170.422 259.122 167.178 266.081Z" fill="#FFC600"/>
<path d="M162.382 271.351C167.855 265.743 166.436 261.149 175.017 251.959C168.463 254.324 158.53 262.095 155.828 267.77C153.328 273.176 158.733 275.068 162.382 271.351Z" fill="#FFC600"/>
<path d="M129.88 295.743C125.962 297.567 132.043 299.324 136.975 297.567C141.975 295.81 133.191 294.256 129.88 295.743Z" fill="#FFC600"/>
<path d="M120.894 292.635C116.367 293.716 121.029 295.608 124.407 294.865C127.718 294.189 123.732 292.027 120.894 292.635Z" fill="#FFC600"/>
<path d="M189.137 296.419C194.069 296.554 199.002 295.608 203.596 293.581C201.569 293.243 199.61 292.703 197.718 292.095C195.218 294.189 192.245 295.676 189.137 296.419Z" fill="#FFC600"/>
<path d="M199.341 278.04C197.246 279.459 195.152 280.743 192.922 281.892C202.111 282.973 211.435 283.311 220.692 282.973C222.179 281.081 223.327 279.054 224.206 276.824C215.962 277.838 207.652 278.243 199.341 278.04Z" fill="#FFC600"/>
<path d="M212.516 287.5C212.718 287.567 218.462 284.256 218.462 284.256H215.083C214.137 285.27 213.259 286.351 212.516 287.5Z" fill="#FFC600"/>
<path d="M213.8 271.689L212.314 272.162C209.543 273.04 207.043 273.784 204.679 274.459C209.476 274.865 215.354 273.851 222.584 271.824C219.476 271.621 216.435 270.811 213.665 269.594C212.111 268.919 210.354 268.851 208.733 269.392L208.327 269.527C204.814 270.743 201.233 271.689 197.584 272.432C199.341 273.378 201.233 274.054 203.192 274.324C205.895 273.581 208.868 272.635 212.246 271.621L213.733 271.148C213.8 271.148 213.868 271.148 214.003 271.148C214.07 271.216 214.138 271.284 214.138 271.351C214.138 271.419 214.138 271.486 214.138 271.621C213.935 271.621 213.868 271.621 213.8 271.689Z" fill="#FFC600"/>
<path d="M228.191 253.108C229.948 252.365 231.705 251.554 233.394 250.675C231.908 250.405 230.354 250.27 228.8 250.27C227.245 251.148 225.556 251.892 223.8 252.5C223.529 252.838 223.394 253.175 223.191 253.581C224.408 253.851 225.691 253.784 226.908 253.513C227.043 253.446 227.516 253.311 228.191 253.108Z" fill="#FFC600"/>
<path d="M234.34 250.811C233.326 251.419 232.313 251.892 231.367 252.365C228.732 253.986 226.096 255.54 223.326 256.824C223.934 258.04 225.353 258.851 227.651 258.851C232.515 258.851 237.313 256.621 245.759 251.486C241.975 252.027 238.123 251.756 234.34 250.811Z" fill="#FFC600"/>
<path d="M243.123 242.297C241.907 242.162 240.826 242.095 239.745 242.095C237.785 243.243 235.758 244.257 233.664 245.135C233.461 245.676 233.461 246.351 233.596 246.892C236.907 245.676 240.083 244.122 243.123 242.297Z" fill="#FFC600"/>
<path d="M244.137 242.365C240.894 244.459 237.448 246.148 233.867 247.5C234.273 248.311 235.016 248.986 235.962 249.257C236.975 248.648 238.056 248.04 239.273 247.297C239.34 247.23 239.408 247.23 239.475 247.297C239.543 247.297 239.61 247.365 239.678 247.432C239.746 247.5 239.746 247.567 239.746 247.635C239.746 247.702 239.678 247.77 239.61 247.838C238.597 248.446 237.651 248.986 236.773 249.527C237.448 249.662 238.056 249.662 238.732 249.594C246.773 248.581 250.556 245.54 256.3 241.148C252.313 242.365 248.192 242.77 244.137 242.365Z" fill="#FFC600"/>
<path d="M251.636 232.567C251.231 232.837 250.825 233.04 250.42 233.243C248.393 234.932 246.231 236.486 243.934 237.702C243.934 238.175 244.069 238.581 244.271 238.986C246.501 237.77 248.596 236.351 250.488 234.729C250.555 234.662 250.623 234.662 250.69 234.662C250.758 234.662 250.825 234.729 250.893 234.797C250.961 234.864 250.961 234.932 250.961 234.999C250.961 235.067 250.893 235.135 250.825 235.202C248.934 236.824 246.839 238.31 244.609 239.459C245.15 239.864 245.825 240.067 246.501 240.135C247.177 240.202 247.853 240.135 248.528 239.932C256.096 238.243 261.636 231.621 261.636 231.621C258.393 232.432 255.015 232.77 251.636 232.567Z" fill="#FFC600"/>
<path d="M251.434 228.446C251.569 228.986 251.839 229.459 252.177 229.797C252.515 230.203 252.988 230.473 253.528 230.608C255.285 229.392 257.177 227.905 259.812 225.676C259.88 225.608 259.947 225.608 260.015 225.608C260.082 225.608 260.15 225.676 260.217 225.743C260.285 225.811 260.285 225.878 260.285 225.946C260.285 226.013 260.217 226.081 260.15 226.149C257.785 228.176 255.961 229.662 254.271 230.811C254.947 230.878 255.555 230.878 256.231 230.743C259.474 230.067 262.177 227.973 268.528 220.946C264.947 221.216 261.366 221.757 257.853 222.5C255.893 224.662 253.731 226.621 251.434 228.446Z" fill="#FFC600"/>
<path d="M256.838 222.77C255.892 222.973 254.946 223.378 254.068 223.851C253.392 224.256 252.784 224.797 252.311 225.473C251.838 226.148 251.568 226.892 251.365 227.635C253.325 226.148 255.081 224.527 256.838 222.77Z" fill="#FFC600"/>
<path d="M250.826 207.635L250.893 207.703C250.893 207.77 250.893 207.77 250.961 207.838C250.961 207.905 250.961 207.905 250.961 207.973C250.961 208.04 250.961 208.04 250.893 208.108C249.947 209.324 249.001 210.405 248.123 211.351C248.123 211.824 248.191 212.23 248.393 212.635C248.596 213.04 248.799 213.446 249.137 213.716C250.893 211.622 252.853 209.324 254.272 207.77C254.542 205.203 254.339 202.094 254.407 199.324C252.65 201.013 248.326 206.554 248.123 210.473C248.866 209.662 249.61 208.716 250.353 207.77L250.42 207.703C250.488 207.703 250.488 207.635 250.555 207.635C250.623 207.635 250.623 207.635 250.691 207.635C250.758 207.635 250.826 207.635 250.826 207.635Z" fill="#FFC600"/>
<path d="M252.784 212.5C253.594 211.419 254.067 210.135 254.202 208.851C252.851 210.338 251.229 212.229 249.811 213.986C250.419 214.054 251.027 213.919 251.5 213.648C251.973 213.446 252.446 213.04 252.784 212.5Z" fill="#FFC600"/>
<path d="M234.341 234.527C229.881 237.094 231.841 239.189 235.557 239.054C239.273 238.919 243.057 237.703 249.544 232.567C245.017 234.324 238.192 232.365 234.341 234.527Z" fill="#FFC600"/>
<path d="M224.27 241.351C221.77 243.513 222.716 245.878 225.96 245.878C229.27 245.878 232.446 245.27 240.149 240.81C232.851 241.554 228.122 238.108 224.27 241.351Z" fill="#FFC600"/>
<path d="M231.502 247.703C226.096 248.311 219.002 245.405 216.299 247.23C214.61 248.378 214.34 250.878 217.38 251.689C221.975 252.973 225.421 251.351 231.502 247.703Z" fill="#FFC600"/>
<path d="M174.205 270.946C169.07 271.419 168.057 278.175 175.692 279.054C183.327 279.932 192.178 278.648 201.908 274.932C190.084 276.013 180.624 270.338 174.205 270.946Z" fill="#FFC600"/>
<path d="M234.745 230.608C235.758 231.486 237.65 230.338 239.745 227.5C241.839 224.662 238.934 221.824 246.974 212.229C243.663 215.405 240.555 218.851 237.717 222.5C234.947 226.216 233.731 229.729 234.745 230.608Z" fill="#FFC600"/>
<path d="M243.19 221.014C240.352 224.865 244.339 227.433 247.244 224.595C248.325 223.514 249.204 222.297 250.014 221.014C252.514 218.851 256.974 214.392 260.15 210.946L260.217 210.878V210.811V210.743C260.217 210.743 260.217 210.676 260.15 210.676C260.15 210.676 260.082 210.676 260.082 210.608H260.014H259.947C259.947 210.608 259.879 210.608 259.879 210.676C257.041 213.716 253.325 217.433 250.825 219.797C251.771 218.243 252.717 216.419 253.798 214.324C256.163 211.892 258.325 209.257 260.217 206.487V206.419V206.351V206.284L260.15 206.216H260.082H260.014H259.947L259.879 206.284C257.987 209.054 255.893 211.622 253.596 214.054C251.704 214.797 245.69 217.703 243.19 221.014Z" fill="#FFC600"/>
<path d="M161.232 277.838C172.516 282.973 196.57 291.419 204.949 292.567C205.827 288.378 206.638 284.527 206.638 284.527C189.746 283.108 178.53 281.689 164.003 276.892C162.786 277.297 161.232 277.838 161.232 277.838Z" fill="#FFC600"/>
<path d="M201.097 266.148C200.354 266.148 199.543 266.148 198.732 266.08C202.043 267.162 205.489 267.635 209.003 267.635C208.057 267.162 207.246 266.621 206.435 265.945C204.678 266.08 202.854 266.216 201.097 266.148Z" fill="#FFC600"/>
<path d="M207.11 253.446C203.123 256.284 205.218 258.851 208.596 259.121C211.907 259.392 218.664 258.311 225.285 254.459C222.11 254.932 212.245 249.865 207.11 253.446Z" fill="#FFC600"/>
<path d="M197.178 258.243C193.934 258.986 190.218 264.189 195.961 264.932C202.11 265.811 208.461 265 214.205 262.567C208.394 261.959 202.042 257.095 197.178 258.243Z" fill="#FFC600"/>
<path d="M215.961 261.622C218.596 261.014 221.163 260.203 223.596 259.189C222.65 258.716 221.839 258.243 221.028 257.771C217.379 259.325 213.461 260.135 209.542 260.068C209.204 260.068 208.934 260.068 208.663 260.068L208.596 260.135C210.758 260.879 213.393 261.96 215.961 261.622Z" fill="#FFC600"/>
<path d="M224.408 259.594C222.313 260.405 220.489 261.081 218.664 261.554C215.151 263.175 211.57 264.527 207.854 265.473C208.259 266.013 208.732 266.419 209.34 266.756C209.881 267.094 210.556 267.297 211.164 267.365C211.299 267.365 211.502 267.432 211.637 267.432C215.759 266.689 219.745 265.337 223.394 263.446C223.462 263.378 223.529 263.378 223.597 263.446C223.664 263.446 223.732 263.513 223.799 263.581C223.867 263.648 223.867 263.716 223.799 263.851C223.799 263.919 223.732 263.986 223.664 264.054C220.421 265.743 217.043 266.959 213.462 267.77C220.016 268.378 226.502 266.419 238.326 260.608C230.962 261.621 227.11 260.743 224.408 259.594Z" fill="#FFC600"/>
<path d="M185.083 264.595C179.947 265.676 179.677 270.27 184.001 271.487C188.326 272.635 195.083 272.635 208.191 268.514C200.015 268.446 190.623 263.446 185.083 264.595Z" fill="#FFC600"/>
<path d="M195.826 272.703C194.339 272.973 192.853 273.108 191.299 273.176C193.866 273.716 196.434 274.054 199.069 274.122C197.92 273.784 196.839 273.311 195.826 272.703Z" fill="#FFC600"/>
</g>
<defs>
<clipPath id="clip0_151_10247">
<rect width="272.297" height="300" fill="white" transform="translate(14)"/>
</clipPath>
</defs>
</svg>
