<svg width="300" height="300" viewBox="0 0 300 300" fill="none" xmlns="http://www.w3.org/2000/svg">
<g clip-path="url(#clip0_151_15438)">
<path d="M46.7268 1.40623L253.393 0.200012V185.957C253.795 210.081 213.186 234.607 149.658 265.969C84.1205 232.195 46.3286 211.69 45.9219 185.555L46.726 1.40822L46.7268 1.40623Z" fill="#006129" stroke="black" stroke-width="1.63341"/>
<path d="M74.8516 28.8582L87.0505 10.942L99.309 28.8963" stroke="#F7C600" stroke-width="1.63341"/>
<path d="M89.5035 22.1594C89.5039 23.4977 88.4191 24.5829 87.0808 24.5829C85.7426 24.5829 84.6577 23.4977 84.6582 22.1594C84.6577 20.8212 85.7426 19.736 87.0808 19.736C88.4191 19.736 89.504 20.8212 89.5035 22.1594Z" fill="#F7C600" stroke="black" stroke-width="0.816748"/>
<path d="M77.1447 42.0913L96.0571 42.1451C96.0571 42.1451 96.3536 39.6907 94.0817 38.1989C103.987 36.8368 101.414 28.0997 109.71 27.6038C111.32 27.8514 105.377 31.3184 105.377 31.3184C105.377 31.3184 100.375 34.8481 102.653 36.6426C104.461 38.0674 105.253 35.776 105.5 34.0425C105.748 32.3089 113.549 31.1945 112.434 26.2418C110.577 22.1556 99.6808 28.9657 99.6808 28.9657L91.907 28.9226C91.4223 28.0501 89.2798 24.5513 87.0673 24.5352C84.4424 24.6309 82.5935 28.9658 82.5935 28.9658H65.0105C65.0105 28.9658 64.4077 33.4772 73.3228 34.3438C75.33 36.9653 76.886 37.6977 78.6308 38.3763C77.4676 39.3458 77.1398 40.5189 77.1447 42.0913Z" fill="#F7C600" stroke="black" stroke-width="0.816748"/>
<path d="M78.5117 38.2486L94.2642 38.1949Z" fill="#F7C600"/>
<path d="M78.5117 38.2486L94.2642 38.1949" stroke="black" stroke-width="0.816748"/>
<path d="M71.293 28.9621C71.293 28.9621 72.5532 36.3295 78.3694 38.0747Z" fill="#F7C600"/>
<path d="M71.293 28.9621C71.293 28.9621 72.5532 36.3295 78.3694 38.0747" stroke="black" stroke-width="0.816748"/>
<path d="M70.3259 28.8669C70.9075 26.0557 71.9738 25.5709 73.1371 21.9842C73.331 18.4944 70.3259 18.8821 71.1984 16.6526C72.7494 14.2291 71.9739 11.9026 69.0657 10.0608C69.6474 13.2598 65.2852 16.2649 65.2852 18.8817C65.2852 21.4991 67.5147 20.9175 67.2239 24.892C67.4178 27.2184 66.6423 26.6369 66.4484 28.8664L70.3259 28.8669Z" fill="url(#paint0_linear_151_15438)" stroke="black" stroke-width="0.816748"/>
<path d="M89.313 11.4016C89.3134 12.6327 88.3155 13.631 87.0842 13.631C85.853 13.631 84.855 12.6327 84.8555 11.4016C84.855 10.1704 85.853 9.17212 87.0842 9.17212C88.3155 9.17212 89.3134 10.1704 89.313 11.4016Z" fill="#F7C600" stroke="black" stroke-width="0.816748"/>
<path d="M74.1816 64.6057L86.3805 46.6895L98.6391 64.6438" stroke="#F7C600" stroke-width="1.63341"/>
<path d="M88.8335 57.907C88.834 59.2453 87.7492 60.3304 86.4109 60.3304C85.0726 60.3304 83.9878 59.2453 83.9883 57.907C83.9878 56.5687 85.0726 55.4836 86.4109 55.4836C87.7492 55.4836 88.8341 56.5687 88.8335 57.907Z" fill="#F7C600" stroke="black" stroke-width="0.816748"/>
<path d="M76.4748 77.8389L95.3872 77.8927C95.3872 77.8927 95.6837 75.4383 93.4117 73.9465C103.317 72.5843 100.744 63.8473 109.04 63.3513C110.65 63.599 104.707 67.066 104.707 67.066C104.707 67.066 99.7048 70.5957 101.983 72.3902C103.791 73.8149 104.583 71.5236 104.831 69.79C105.078 68.0565 112.879 66.9421 111.765 61.9893C109.907 57.9032 99.0109 64.7132 99.0109 64.7132L91.2371 64.6701C90.7524 63.7977 88.6099 60.2989 86.3974 60.2827C83.7725 60.3785 81.9236 64.7133 81.9236 64.7133H64.3406C64.3406 64.7133 63.7378 69.2247 72.6529 70.0914C74.6601 72.7128 76.216 73.4453 77.9609 74.1238C76.7976 75.0933 76.4699 76.2665 76.4748 77.8389Z" fill="#F7C600" stroke="black" stroke-width="0.816748"/>
<path d="M77.8418 73.9962L93.5943 73.9425Z" fill="#F7C600"/>
<path d="M77.8418 73.9962L93.5943 73.9425" stroke="black" stroke-width="0.816748"/>
<path d="M70.623 64.7096C70.623 64.7096 71.8833 72.077 77.6995 73.8222Z" fill="#F7C600"/>
<path d="M70.623 64.7096C70.623 64.7096 71.8833 72.077 77.6995 73.8222" stroke="black" stroke-width="0.816748"/>
<path d="M69.6559 64.6144C70.2376 61.8033 71.3039 61.3184 72.4672 57.7317C72.6611 54.242 69.656 54.6297 70.5284 52.4002C72.0795 49.9767 71.3039 47.6502 68.3958 45.8083C68.9775 49.0073 64.6152 52.0124 64.6152 54.6293C64.6152 57.2466 66.8448 56.665 66.554 60.6396C66.7479 62.966 65.9724 62.3844 65.7785 64.614L69.6559 64.6144Z" fill="url(#paint1_linear_151_15438)" stroke="black" stroke-width="0.816748"/>
<path d="M88.6431 47.1491C88.6435 48.3803 87.6455 49.3786 86.4143 49.3786C85.1831 49.3786 84.1851 48.3803 84.1855 47.1491C84.1851 45.918 85.1831 44.9197 86.4143 44.9197C87.6455 44.9197 88.6435 45.918 88.6431 47.1491Z" fill="#F7C600" stroke="black" stroke-width="0.816748"/>
<path d="M73.9082 99.8384L86.1071 81.9222L98.3657 99.8765" stroke="#F7C600" stroke-width="1.63341"/>
<path d="M88.5601 93.1397C88.5606 94.4779 87.4758 95.5631 86.1375 95.5631C84.7992 95.5631 83.7143 94.4779 83.7148 93.1397C83.7144 91.8014 84.7992 90.7162 86.1375 90.7162C87.4758 90.7162 88.5606 91.8014 88.5601 93.1397Z" fill="#F7C600" stroke="black" stroke-width="0.816748"/>
<path d="M76.2014 113.072L95.1137 113.125C95.1137 113.125 95.4103 110.671 93.1383 109.179C103.044 107.817 100.471 99.0799 108.767 98.584C110.377 98.8316 104.433 102.299 104.433 102.299C104.433 102.299 99.4314 105.828 101.709 107.623C103.517 109.048 104.309 106.756 104.557 105.023C104.805 103.289 112.605 102.175 111.491 97.222C109.634 93.1358 98.7375 99.9459 98.7375 99.9459L90.9636 99.9028C90.4789 99.0303 88.3365 95.5316 86.124 95.5154C83.4991 95.6112 81.6502 99.946 81.6502 99.946H64.0671C64.0671 99.946 63.4643 104.457 72.3794 105.324C74.3866 107.945 75.9426 108.678 77.6875 109.356C76.5242 110.326 76.1964 111.499 76.2014 113.072Z" fill="#F7C600" stroke="black" stroke-width="0.816748"/>
<path d="M77.5684 109.229L93.3209 109.175Z" fill="#F7C600"/>
<path d="M77.5684 109.229L93.3209 109.175" stroke="black" stroke-width="0.816748"/>
<path d="M70.3496 99.9423C70.3496 99.9423 71.6098 107.31 77.4261 109.055Z" fill="#F7C600"/>
<path d="M70.3496 99.9423C70.3496 99.9423 71.6098 107.31 77.4261 109.055" stroke="black" stroke-width="0.816748"/>
<path d="M69.3825 99.8471C69.9641 97.0359 71.0305 96.5511 72.1938 92.9644C72.3877 89.4746 69.3825 89.8624 70.255 87.6328C71.806 85.2093 71.0305 82.8828 68.1224 81.041C68.704 84.24 64.3418 87.2451 64.3418 89.8619C64.3418 92.4793 66.5714 91.8977 66.2806 95.8722C66.4744 98.1986 65.6989 97.6171 65.505 99.8467L69.3825 99.8471Z" fill="url(#paint2_linear_151_15438)" stroke="black" stroke-width="0.816748"/>
<path d="M88.3696 82.3818C88.3701 83.6129 87.3721 84.6113 86.1409 84.6113C84.9097 84.6113 83.9117 83.6129 83.9121 82.3818C83.9117 81.1507 84.9097 80.1523 86.1409 80.1523C87.3721 80.1523 88.3701 81.1507 88.3696 82.3818Z" fill="#F7C600" stroke="black" stroke-width="0.816748"/>
<path d="M97.0273 137.994L109.226 120.078L121.485 138.032" stroke="#F7C600" stroke-width="1.63341"/>
<path d="M111.679 131.295C111.68 132.633 110.595 133.718 109.257 133.718C107.918 133.718 106.833 132.633 106.834 131.295C106.834 129.957 107.918 128.872 109.257 128.872C110.595 128.872 111.68 129.957 111.679 131.295Z" fill="#F7C600" stroke="black" stroke-width="0.816748"/>
<path d="M99.3205 151.227L118.233 151.281C118.233 151.281 118.529 148.826 116.257 147.334C126.163 145.972 123.59 137.235 131.886 136.739C133.496 136.987 127.552 140.454 127.552 140.454C127.552 140.454 122.551 143.984 124.828 145.778C126.637 147.203 127.429 144.912 127.676 143.178C127.924 141.444 135.725 140.33 134.61 135.377C132.753 131.291 121.857 138.101 121.857 138.101L114.083 138.058C113.598 137.186 111.456 133.687 109.243 133.671C106.618 133.766 104.769 138.101 104.769 138.101H87.1863C87.1863 138.101 86.5835 142.613 95.4986 143.479C97.5058 146.101 99.0617 146.833 100.807 147.512C99.6433 148.481 99.3156 149.654 99.3205 151.227Z" fill="#F7C600" stroke="black" stroke-width="0.816748"/>
<path d="M100.688 147.384L116.44 147.33Z" fill="#F7C600"/>
<path d="M100.688 147.384L116.44 147.33" stroke="black" stroke-width="0.816748"/>
<path d="M93.4688 138.098C93.4688 138.098 94.729 145.465 100.545 147.21Z" fill="#F7C600"/>
<path d="M93.4688 138.098C93.4688 138.098 94.729 145.465 100.545 147.21" stroke="black" stroke-width="0.816748"/>
<path d="M92.5017 138.002C93.0833 135.191 94.1496 134.706 95.3129 131.12C95.5068 127.63 92.5017 128.018 93.3742 125.788C94.9252 123.365 94.1496 121.038 91.2415 119.196C91.8232 122.395 87.4609 125.4 87.4609 128.017C87.4609 130.635 89.6905 130.053 89.3997 134.027C89.5936 136.354 88.8181 135.772 88.6242 138.002L92.5017 138.002Z" fill="url(#paint3_linear_151_15438)" stroke="black" stroke-width="0.816748"/>
<path d="M111.489 120.537C111.489 121.768 110.491 122.767 109.26 122.767C108.029 122.767 107.031 121.768 107.031 120.537C107.031 119.306 108.029 118.308 109.26 118.308C110.491 118.308 111.489 119.306 111.489 120.537Z" fill="#F7C600" stroke="black" stroke-width="0.816748"/>
<path d="M70.8906 169.206L83.0895 151.29L95.3481 169.244" stroke="#F7C600" stroke-width="1.63341"/>
<path d="M85.5425 162.507C85.543 163.846 84.4582 164.931 83.1199 164.931C81.7816 164.931 80.6967 163.846 80.6973 162.507C80.6968 161.169 81.7816 160.084 83.1199 160.084C84.4582 160.084 85.543 161.169 85.5425 162.507Z" fill="#F7C600" stroke="black" stroke-width="0.816748"/>
<path d="M73.1838 182.439L92.0961 182.493C92.0961 182.493 92.3927 180.039 90.1207 178.547C100.026 177.185 97.453 168.448 105.749 167.952C107.359 168.199 101.416 171.666 101.416 171.666C101.416 171.666 96.4138 175.196 98.6916 176.991C100.5 178.415 101.292 176.124 101.54 174.39C101.787 172.657 109.588 171.543 108.474 166.59C106.616 162.504 95.7199 169.314 95.7199 169.314L87.9461 169.271C87.4613 168.398 85.3189 164.899 83.1064 164.883C80.4815 164.979 78.6326 169.314 78.6326 169.314H61.0496C61.0496 169.314 60.4468 173.825 69.3619 174.692C71.3691 177.313 72.925 178.046 74.6699 178.724C73.5066 179.694 73.1789 180.867 73.1838 182.439Z" fill="#F7C600" stroke="black" stroke-width="0.816748"/>
<path d="M74.5508 178.597L90.3033 178.543Z" fill="#F7C600"/>
<path d="M74.5508 178.597L90.3033 178.543" stroke="black" stroke-width="0.816748"/>
<path d="M67.332 169.31C67.332 169.31 68.5922 176.678 74.4085 178.423Z" fill="#F7C600"/>
<path d="M67.332 169.31C67.332 169.31 68.5922 176.678 74.4085 178.423" stroke="black" stroke-width="0.816748"/>
<path d="M66.3649 169.215C66.9466 166.404 68.0129 165.919 69.1762 162.332C69.3701 158.842 66.3649 159.23 67.2374 157.001C68.7884 154.577 68.0129 152.251 65.1048 150.409C65.6864 153.608 61.3242 156.613 61.3242 159.23C61.3242 161.847 63.5538 161.266 63.263 165.24C63.4569 167.566 62.6813 166.985 62.4875 169.214L66.3649 169.215Z" fill="url(#paint4_linear_151_15438)" stroke="black" stroke-width="0.816748"/>
<path d="M85.3521 151.75C85.3525 152.981 84.3545 153.979 83.1233 153.979C81.8921 153.979 80.8941 152.981 80.8945 151.75C80.8941 150.518 81.8921 149.52 83.1233 149.52C84.3545 149.52 85.3525 150.518 85.3521 151.75Z" fill="#F7C600" stroke="black" stroke-width="0.816748"/>
<path d="M71.5762 206.084L83.7751 188.168L96.0336 206.122" stroke="#F7C600" stroke-width="1.63341"/>
<path d="M86.2281 199.385C86.2285 200.724 85.1437 201.809 83.8054 201.809C82.4672 201.809 81.3823 200.724 81.3828 199.385C81.3824 198.047 82.4672 196.962 83.8054 196.962C85.1437 196.962 86.2286 198.047 86.2281 199.385Z" fill="#F7C600" stroke="black" stroke-width="0.816748"/>
<path d="M73.8694 219.317L92.7817 219.371C92.7817 219.371 93.0782 216.917 90.8063 215.425C100.712 214.063 98.1386 205.326 106.435 204.83C108.045 205.077 102.101 208.544 102.101 208.544C102.101 208.544 97.0994 212.074 99.3771 213.869C101.185 215.293 101.977 213.002 102.225 211.268C102.473 209.535 110.273 208.42 109.159 203.468C107.302 199.382 96.4054 206.192 96.4054 206.192L88.6316 206.148C88.1469 205.276 86.0044 201.777 83.7919 201.761C81.167 201.857 79.3181 206.192 79.3181 206.192H61.7351C61.7351 206.192 61.1323 210.703 70.0474 211.57C72.0546 214.191 73.6106 214.924 75.3555 215.602C74.1922 216.572 73.8644 217.745 73.8694 219.317Z" fill="#F7C600" stroke="black" stroke-width="0.816748"/>
<path d="M75.2363 215.474L90.9888 215.421Z" fill="#F7C600"/>
<path d="M75.2363 215.474L90.9888 215.421" stroke="black" stroke-width="0.816748"/>
<path d="M68.0176 206.188C68.0176 206.188 69.2778 213.555 75.094 215.301Z" fill="#F7C600"/>
<path d="M68.0176 206.188C68.0176 206.188 69.2778 213.555 75.094 215.301" stroke="black" stroke-width="0.816748"/>
<path d="M67.0505 206.093C67.6321 203.282 68.6985 202.797 69.8617 199.21C70.0556 195.72 67.0505 196.108 67.923 193.878C69.474 191.455 68.6985 189.128 65.7904 187.287C66.372 190.486 62.0098 193.491 62.0098 196.108C62.0098 198.725 64.2393 198.143 63.9485 202.118C64.1424 204.444 63.3669 203.863 63.173 206.092L67.0505 206.093Z" fill="url(#paint5_linear_151_15438)" stroke="black" stroke-width="0.816748"/>
<path d="M86.0376 188.627C86.038 189.859 85.0401 190.857 83.8088 190.857C82.5776 190.857 81.5796 189.859 81.5801 188.627C81.5797 187.396 82.5776 186.398 83.8088 186.398C85.0401 186.398 86.038 187.396 86.0376 188.627Z" fill="#F7C600" stroke="black" stroke-width="0.816748"/>
<path d="M201.453 29.4398L213.652 11.5236L225.911 29.4779" stroke="#F7C600" stroke-width="1.63341"/>
<path d="M216.105 22.741C216.105 24.0793 215.021 25.1645 213.682 25.1645C212.344 25.1645 211.259 24.0793 211.26 22.741C211.259 21.4028 212.344 20.3176 213.682 20.3176C215.021 20.3176 216.106 21.4028 216.105 22.741Z" fill="#F7C600" stroke="black" stroke-width="0.816748"/>
<path d="M203.746 42.6729L222.659 42.7267C222.659 42.7267 222.955 40.2723 220.683 38.7805C230.589 37.4184 228.016 28.6813 236.312 28.1854C237.922 28.433 231.978 31.9 231.978 31.9C231.978 31.9 226.976 35.4298 229.254 37.2242C231.062 38.649 231.854 36.3576 232.102 34.6241C232.35 32.8905 240.15 31.7761 239.036 26.8234C237.179 22.7372 226.282 29.5473 226.282 29.5473L218.509 29.5042C218.024 28.6317 215.881 25.1329 213.669 25.1168C211.044 25.2125 209.195 29.5474 209.195 29.5474H191.612C191.612 29.5474 191.009 34.0588 199.924 34.9254C201.932 37.5469 203.488 38.2793 205.232 38.9579C204.069 39.9274 203.741 41.1005 203.746 42.6729Z" fill="#F7C600" stroke="black" stroke-width="0.816748"/>
<path d="M205.113 38.8302L220.866 38.7766Z" fill="#F7C600"/>
<path d="M205.113 38.8302L220.866 38.7766" stroke="black" stroke-width="0.816748"/>
<path d="M197.895 29.5437C197.895 29.5437 199.155 36.9111 204.971 38.6563Z" fill="#F7C600"/>
<path d="M197.895 29.5437C197.895 29.5437 199.155 36.9111 204.971 38.6563" stroke="black" stroke-width="0.816748"/>
<path d="M196.927 29.4485C197.509 26.6373 198.575 26.1525 199.739 22.5658C199.933 19.076 196.927 19.4638 197.8 17.2342C199.351 14.8107 198.575 12.4842 195.667 10.6424C196.249 13.8414 191.887 16.8465 191.887 19.4633C191.887 22.0807 194.116 21.4991 193.825 25.4736C194.019 27.8 193.244 27.2185 193.05 29.448L196.927 29.4485Z" fill="url(#paint6_linear_151_15438)" stroke="black" stroke-width="0.816748"/>
<path d="M215.915 11.9832C215.915 13.2143 214.917 14.2126 213.686 14.2126C212.455 14.2126 211.457 13.2143 211.457 11.9832C211.457 10.7521 212.455 9.75372 213.686 9.75372C214.917 9.75372 215.915 10.7521 215.915 11.9832Z" fill="#F7C600" stroke="black" stroke-width="0.816748"/>
<path d="M200.289 64.5313L212.488 46.6151L224.747 64.5694" stroke="#F7C600" stroke-width="1.63341"/>
<path d="M214.941 57.8326C214.941 59.1709 213.857 60.256 212.518 60.256C211.18 60.256 210.095 59.1709 210.096 57.8326C210.095 56.4943 211.18 55.4092 212.518 55.4092C213.857 55.4092 214.941 56.4943 214.941 57.8326Z" fill="#F7C600" stroke="black" stroke-width="0.816748"/>
<path d="M202.582 77.7645L221.495 77.8183C221.495 77.8183 221.791 75.3639 219.519 73.8721C229.425 72.5099 226.851 63.7729 235.148 63.2769C236.758 63.5246 230.814 66.9916 230.814 66.9916C230.814 66.9916 225.812 70.5213 228.09 72.3158C229.898 73.7405 230.69 71.4492 230.938 69.7156C231.186 67.9821 238.986 66.8677 237.872 61.9149C236.015 57.8288 225.118 64.6388 225.118 64.6388L217.344 64.5957C216.86 63.7233 214.717 60.2245 212.505 60.2083C209.88 60.3041 208.031 64.6389 208.031 64.6389H190.448C190.448 64.6389 189.845 69.1503 198.76 70.017C200.768 72.6384 202.323 73.3709 204.068 74.0494C202.905 75.0189 202.577 76.1921 202.582 77.7645Z" fill="#F7C600" stroke="black" stroke-width="0.816748"/>
<path d="M203.949 73.9218L219.702 73.8681Z" fill="#F7C600"/>
<path d="M203.949 73.9218L219.702 73.8681" stroke="black" stroke-width="0.816748"/>
<path d="M196.73 64.6352C196.73 64.6352 197.991 72.0026 203.807 73.7478Z" fill="#F7C600"/>
<path d="M196.73 64.6352C196.73 64.6352 197.991 72.0026 203.807 73.7478" stroke="black" stroke-width="0.816748"/>
<path d="M195.763 64.54C196.345 61.7288 197.411 61.244 198.575 57.6573C198.769 54.1675 195.763 54.5553 196.636 52.3257C198.187 49.9022 197.411 47.5757 194.503 45.7339C195.085 48.9329 190.723 51.938 190.723 54.5548C190.723 57.1722 192.952 56.5906 192.661 60.5651C192.855 62.8915 192.08 62.31 191.886 64.5396L195.763 64.54Z" fill="url(#paint7_linear_151_15438)" stroke="black" stroke-width="0.816748"/>
<path d="M214.751 47.0747C214.751 48.3059 213.753 49.3042 212.522 49.3042C211.291 49.3042 210.293 48.3059 210.293 47.0747C210.293 45.8436 211.291 44.8453 212.522 44.8453C213.753 44.8453 214.751 45.8436 214.751 47.0747Z" fill="#F7C600" stroke="black" stroke-width="0.816748"/>
<path d="M198.736 100.399L210.935 82.483L223.194 100.437" stroke="#F7C600" stroke-width="1.63341"/>
<path d="M213.388 93.7004C213.389 95.0387 212.304 96.1239 210.966 96.1239C209.627 96.1239 208.542 95.0387 208.543 93.7004C208.543 92.3622 209.627 91.277 210.966 91.277C212.304 91.277 213.389 92.3622 213.388 93.7004Z" fill="#F7C600" stroke="black" stroke-width="0.816748"/>
<path d="M201.03 113.632L219.942 113.686C219.942 113.686 220.238 111.232 217.966 109.74C227.872 108.378 225.299 99.6407 233.595 99.1448C235.205 99.3924 229.261 102.859 229.261 102.859C229.261 102.859 224.26 106.389 226.537 108.184C228.346 109.608 229.138 107.317 229.385 105.583C229.633 103.85 237.434 102.736 236.319 97.7828C234.462 93.6966 223.566 100.507 223.566 100.507L215.792 100.464C215.307 99.5911 213.165 96.0924 210.952 96.0762C208.327 96.172 206.478 100.507 206.478 100.507H188.895C188.895 100.507 188.292 105.018 197.208 105.885C199.215 108.506 200.771 109.239 202.516 109.917C201.352 110.887 201.025 112.06 201.03 113.632Z" fill="#F7C600" stroke="black" stroke-width="0.816748"/>
<path d="M202.396 109.79L218.149 109.736Z" fill="#F7C600"/>
<path d="M202.396 109.79L218.149 109.736" stroke="black" stroke-width="0.816748"/>
<path d="M195.178 100.503C195.178 100.503 196.438 107.871 202.254 109.616Z" fill="#F7C600"/>
<path d="M195.178 100.503C195.178 100.503 196.438 107.871 202.254 109.616" stroke="black" stroke-width="0.816748"/>
<path d="M194.209 100.408C194.79 97.5967 195.857 97.1118 197.02 93.5251C197.214 90.0354 194.209 90.4231 195.081 88.1936C196.632 85.7701 195.857 83.4436 192.949 81.6017C193.53 84.8007 189.168 87.8058 189.168 90.4227C189.168 93.04 191.398 92.4584 191.107 96.433C191.301 98.7594 190.525 98.1778 190.331 100.407L194.209 100.408Z" fill="url(#paint8_linear_151_15438)" stroke="black" stroke-width="0.816748"/>
<path d="M213.198 82.9426C213.198 84.1737 212.2 85.1721 210.969 85.1721C209.738 85.1721 208.74 84.1737 208.74 82.9426C208.74 81.7115 209.738 80.7131 210.969 80.7131C212.2 80.7131 213.198 81.7115 213.198 82.9426Z" fill="#F7C600" stroke="black" stroke-width="0.816748"/>
<path d="M200.482 135.685L212.681 117.768L224.94 135.723" stroke="#F7C600" stroke-width="1.63341"/>
<path d="M215.134 128.986C215.135 130.324 214.05 131.409 212.712 131.409C211.373 131.409 210.289 130.324 210.289 128.986C210.289 127.648 211.373 126.562 212.712 126.562C214.05 126.562 215.135 127.648 215.134 128.986Z" fill="#F7C600" stroke="black" stroke-width="0.816748"/>
<path d="M202.776 148.918L221.688 148.971C221.688 148.971 221.984 146.517 219.713 145.025C229.618 143.663 227.045 134.926 235.341 134.43C236.951 134.678 231.007 138.145 231.007 138.145C231.007 138.145 226.006 141.675 228.283 143.469C230.092 144.894 230.884 142.602 231.131 140.869C231.379 139.135 239.18 138.021 238.065 133.068C236.208 128.982 225.312 135.792 225.312 135.792L217.538 135.749C217.053 134.876 214.911 131.378 212.698 131.362C210.073 131.457 208.224 135.792 208.224 135.792H190.641C190.641 135.792 190.039 140.304 198.954 141.17C200.961 143.792 202.517 144.524 204.262 145.203C203.098 146.172 202.771 147.345 202.776 148.918Z" fill="#F7C600" stroke="black" stroke-width="0.816748"/>
<path d="M204.143 145.075L219.895 145.021Z" fill="#F7C600"/>
<path d="M204.143 145.075L219.895 145.021" stroke="black" stroke-width="0.816748"/>
<path d="M196.924 135.788C196.924 135.788 198.184 143.156 204 144.901Z" fill="#F7C600"/>
<path d="M196.924 135.788C196.924 135.788 198.184 143.156 204 144.901" stroke="black" stroke-width="0.816748"/>
<path d="M195.957 135.693C196.538 132.882 197.605 132.397 198.768 128.811C198.962 125.321 195.957 125.709 196.829 123.479C198.38 121.056 197.605 118.729 194.697 116.887C195.278 120.086 190.916 123.091 190.916 125.708C190.916 128.325 193.146 127.744 192.855 131.718C193.049 134.045 192.273 133.463 192.079 135.693L195.957 135.693Z" fill="url(#paint9_linear_151_15438)" stroke="black" stroke-width="0.816748"/>
<path d="M214.944 118.228C214.944 119.459 213.946 120.457 212.715 120.457C211.484 120.457 210.486 119.459 210.486 118.228C210.486 116.997 211.484 115.999 212.715 115.999C213.946 115.999 214.944 116.997 214.944 118.228Z" fill="#F7C600" stroke="black" stroke-width="0.816748"/>
<path d="M200.092 170.97L212.291 153.054L224.549 171.008" stroke="#F7C600" stroke-width="1.63341"/>
<path d="M214.744 164.271C214.744 165.61 213.659 166.695 212.321 166.695C210.983 166.695 209.898 165.61 209.898 164.271C209.898 162.933 210.983 161.848 212.321 161.848C213.659 161.848 214.744 162.933 214.744 164.271Z" fill="#F7C600" stroke="black" stroke-width="0.816748"/>
<path d="M202.385 184.203L221.297 184.257C221.297 184.257 221.594 181.803 219.322 180.311C229.227 178.949 226.654 170.212 234.951 169.716C236.56 169.963 230.617 173.43 230.617 173.43C230.617 173.43 225.615 176.96 227.893 178.754C229.701 180.179 230.493 177.888 230.741 176.154C230.988 174.421 238.789 173.306 237.675 168.354C235.817 164.267 224.921 171.077 224.921 171.077L217.147 171.034C216.663 170.162 214.52 166.663 212.308 166.647C209.683 166.743 207.834 171.078 207.834 171.078H190.251C190.251 171.078 189.648 175.589 198.563 176.456C200.57 179.077 202.126 179.81 203.871 180.488C202.708 181.458 202.38 182.631 202.385 184.203Z" fill="#F7C600" stroke="black" stroke-width="0.816748"/>
<path d="M203.752 180.36L219.504 180.307Z" fill="#F7C600"/>
<path d="M203.752 180.36L219.504 180.307" stroke="black" stroke-width="0.816748"/>
<path d="M196.533 171.074C196.533 171.074 197.793 178.441 203.61 180.187Z" fill="#F7C600"/>
<path d="M196.533 171.074C196.533 171.074 197.793 178.441 203.61 180.187" stroke="black" stroke-width="0.816748"/>
<path d="M195.566 170.979C196.148 168.167 197.214 167.683 198.377 164.096C198.571 160.606 195.566 160.994 196.439 158.764C197.99 156.341 197.214 154.014 194.306 152.173C194.888 155.372 190.525 158.377 190.525 160.993C190.525 163.611 192.755 163.029 192.464 167.004C192.658 169.33 191.883 168.749 191.689 170.978L195.566 170.979Z" fill="url(#paint10_linear_151_15438)" stroke="black" stroke-width="0.816748"/>
<path d="M214.553 153.513C214.554 154.745 213.556 155.743 212.324 155.743C211.093 155.743 210.095 154.745 210.096 153.513C210.095 152.282 211.093 151.284 212.324 151.284C213.556 151.284 214.554 152.282 214.553 153.513Z" fill="#F7C600" stroke="black" stroke-width="0.816748"/>
<path d="M200.289 206.449L212.488 188.533L224.747 206.487" stroke="#F7C600" stroke-width="1.63341"/>
<path d="M214.941 199.75C214.941 201.089 213.857 202.174 212.518 202.174C211.18 202.174 210.095 201.089 210.096 199.75C210.095 198.412 211.18 197.327 212.518 197.327C213.857 197.327 214.941 198.412 214.941 199.75Z" fill="#F7C600" stroke="black" stroke-width="0.816748"/>
<path d="M202.582 219.682L221.495 219.736C221.495 219.736 221.791 217.282 219.519 215.79C229.425 214.428 226.851 205.691 235.148 205.195C236.758 205.442 230.814 208.909 230.814 208.909C230.814 208.909 225.812 212.439 228.09 214.234C229.898 215.658 230.69 213.367 230.938 211.634C231.186 209.9 238.986 208.786 237.872 203.833C236.015 199.747 225.118 206.557 225.118 206.557L217.344 206.514C216.86 205.641 214.717 202.142 212.505 202.126C209.88 202.222 208.031 206.557 208.031 206.557H190.448C190.448 206.557 189.845 211.068 198.76 211.935C200.768 214.556 202.323 215.289 204.068 215.967C202.905 216.937 202.577 218.11 202.582 219.682Z" fill="#F7C600" stroke="black" stroke-width="0.816748"/>
<path d="M203.949 215.84L219.702 215.786Z" fill="#F7C600"/>
<path d="M203.949 215.84L219.702 215.786" stroke="black" stroke-width="0.816748"/>
<path d="M196.73 206.553C196.73 206.553 197.991 213.921 203.807 215.666Z" fill="#F7C600"/>
<path d="M196.73 206.553C196.73 206.553 197.991 213.921 203.807 215.666" stroke="black" stroke-width="0.816748"/>
<path d="M195.763 206.458C196.345 203.647 197.411 203.162 198.575 199.575C198.769 196.085 195.763 196.473 196.636 194.244C198.187 191.82 197.411 189.494 194.503 187.652C195.085 190.851 190.723 193.856 190.723 196.473C190.723 199.09 192.952 198.508 192.661 202.483C192.855 204.809 192.08 204.228 191.886 206.457L195.763 206.458Z" fill="url(#paint11_linear_151_15438)" stroke="black" stroke-width="0.816748"/>
<path d="M214.751 188.993C214.751 190.224 213.753 191.222 212.522 191.222C211.291 191.222 210.293 190.224 210.293 188.993C210.293 187.762 211.291 186.763 212.522 186.763C213.753 186.763 214.751 187.762 214.751 188.993Z" fill="#F7C600" stroke="black" stroke-width="0.816748"/>
<path d="M162.305 223.149C162.305 223.149 167.24 234.527 172.861 227.536C178.482 220.544 176.425 217.528 176.425 217.528L163.813 210.673L160.111 218.488L162.305 223.149Z" fill="#F7C600" stroke="black" stroke-width="0.816748"/>
<path d="M173.14 221.634C173.14 221.634 173.963 221.771 174.648 220.537C175.334 219.303 173.14 218.755 172.181 217.384L171.084 219.578L173.14 221.634Z" fill="#FFC6B5" stroke="black" stroke-width="0.816748"/>
<path d="M144.624 218.622L133.52 224.654C133.52 224.654 128.036 225.751 127.625 224.654C127.214 223.557 127.762 222.598 130.641 222.461C133.52 222.324 141.334 215.195 141.334 215.195L144.624 218.622Z" fill="#FFC6B5" stroke="black" stroke-width="0.816748"/>
<path d="M144.76 21.3459C144.76 21.3459 145.034 23.9506 145.172 25.3215C145.309 26.6924 142.978 29.5714 142.841 29.4343C142.704 29.2972 141.607 29.5713 141.744 30.3939C141.881 31.2165 143.527 31.4906 143.527 31.4906C143.527 31.4906 142.841 34.3695 143.527 34.5066C144.212 34.6437 141.744 38.2083 143.527 39.1678C145.309 40.1274 148.325 41.3612 149.696 41.0871C151.067 40.8129 149.696 46.4336 149.696 46.4336L145.857 54.6591L166.969 52.4657L162.583 45.474C162.583 45.474 160.526 44.1031 161.075 40.1275C161.623 36.1518 160.8 18.1929 160.8 18.1929L145.72 16.1364L144.76 21.3459Z" fill="#FFC6B5" stroke="black" stroke-width="0.816748"/>
<path d="M140.919 52.5982C140.919 52.5982 134.064 55.7514 134.338 64.2509C132.556 72.4764 131.596 80.7019 131.596 80.7019C131.596 80.7019 123.508 89.8871 121.04 93.1768C118.573 96.467 114.871 103.184 113.5 104.966C112.129 106.749 106.783 112.644 106.92 114.837C107.057 117.03 105.686 126.764 111.032 127.861C112.403 128.409 116.79 116.619 116.79 116.619C116.79 116.619 117.064 111.547 115.556 110.587C114.048 109.628 118.847 106.337 118.847 106.337C118.847 106.337 128.032 99.6198 130.088 97.9747C132.145 96.3296 137.765 90.0234 137.765 90.0234L140.919 52.5982Z" fill="#FFC6B5" stroke="black" stroke-width="0.816748"/>
<path d="M148.735 46.159C148.735 46.159 150.517 50.9573 154.493 50.1347C158.468 49.3121 163.129 45.6107 163.129 45.6107C163.129 45.6107 166.831 45.4736 167.379 46.0219C167.928 46.5702 177.387 55.755 177.112 58.6345C176.838 61.5135 172.725 60.6908 171.217 62.6101C169.709 64.5295 167.242 69.3276 167.927 72.8919C168.613 76.4563 170.669 81.1175 170.395 82.8994C170.121 84.6816 168.613 85.2299 168.613 86.1896C168.613 87.1492 169.847 88.7944 169.847 90.5766C169.847 92.3588 168.201 94.9635 168.476 96.7456C168.75 98.5279 168.887 103.737 168.887 103.737L168.476 127.865C168.476 127.865 169.847 128.687 169.984 130.058C170.121 131.429 179.306 171.323 179.306 171.323C179.306 171.323 178.895 172.556 177.935 172.419C176.975 172.282 181.636 178.588 181.773 180.371C181.91 182.153 186.572 196.136 186.434 198.056C186.297 199.975 185.612 204.225 185.201 204.362C184.789 204.499 188.217 213.136 187.668 214.507C187.12 215.878 181.499 215.741 181.499 215.741L179.991 215.467C179.991 215.467 180.128 217.249 179.032 217.386C177.935 217.523 169.846 216.974 169.846 216.974C169.846 216.974 167.516 220.539 166.145 220.402C164.774 220.265 162.992 217.797 162.58 218.208C162.169 218.62 163.814 220.95 163.403 221.636C162.992 222.321 156 223.829 154.629 220.539C153.258 217.249 155.451 218.071 155.04 217.386C154.629 216.7 151.476 214.918 150.516 215.467C149.556 216.015 152.984 216.837 152.847 218.208C152.71 219.579 149.83 221.636 148.734 221.636C147.637 221.636 145.032 216.563 141.194 217.112C137.355 217.66 134.888 218.62 134.888 218.62C134.888 218.62 130.364 220.539 128.444 220.128C126.525 219.717 125.702 218.208 125.702 217.386C125.702 216.563 127.073 212.999 126.936 211.902C126.799 210.806 125.702 209.709 125.702 208.064C125.702 206.419 128.855 200.798 128.855 200.798L128.718 175.573C128.718 175.573 125.839 175.573 125.702 173.79C125.565 172.008 130.089 133.897 130.775 131.429C131.46 128.961 133.242 120.187 133.242 120.187C133.242 120.187 131.186 121.147 131.049 120.187C130.912 119.228 137.218 97.4304 137.218 97.4304C137.218 97.4304 138.315 86.5999 138.315 83.7213C138.315 80.8424 137.766 76.8668 137.766 76.8668C137.766 76.8668 132.138 74.4841 132.008 70.8348C131.494 65.0285 137.355 61.7862 138.041 59.8674C138.726 57.9482 140.782 52.1904 140.782 52.1904C140.782 52.1904 143.798 46.981 148.734 46.1583L148.735 46.159Z" fill="white" stroke="black" stroke-width="0.816748"/>
<path d="M146.675 220.267C146.675 220.267 133.377 227.258 131.458 227.807C129.539 228.355 128.305 225.476 130.224 224.928C132.143 224.379 135.159 224.105 135.159 224.105C135.159 224.105 130.635 220.541 130.772 220.404C130.91 220.267 136.942 218.073 137.079 218.073C137.216 218.073 138.998 221.637 140.232 221.363C141.466 221.089 145.03 218.347 145.03 218.347C145.03 218.347 146.949 220.541 146.675 220.267Z" fill="#F7C600" stroke="black" stroke-width="0.816748"/>
<path d="M165.412 224.101C166.669 225.722 167.161 228.535 170.04 226.89C172.919 225.245 168.565 222.191 168.565 222.191L165.412 224.101Z" fill="#FFC6B5" stroke="black" stroke-width="0.816748"/>
<path d="M170.665 223.832C170.665 223.832 172.036 224.929 173.269 223.695C174.503 222.461 170.802 219.857 170.802 219.857L169.02 221.913L170.665 223.832Z" fill="#FFC6B5" stroke="black" stroke-width="0.816748"/>
<path d="M176.568 59.2623C176.705 59.2623 181.092 72.8347 181.64 76.262C182.188 79.6892 183.97 93.3984 183.285 95.318C182.6 97.2373 175.608 106.422 174.785 108.753C173.963 111.083 169.027 119.994 169.027 119.994C169.027 119.994 167.794 128.769 167.245 129.18C166.697 129.591 168.661 131.745 168.479 132.47C168.207 133.286 164.503 137.131 162.858 136.72C161.213 136.308 158.609 134.389 158.472 132.607C158.335 130.825 158.609 124.93 159.842 123.422C161.076 121.914 167.52 106.696 167.931 105.737C168.342 104.777 173.826 92.8496 173.963 90.7933C174.1 88.7369 172.257 83.9817 170.318 82.2369C166.003 69.5377 167.699 61.8795 176.568 59.2623Z" fill="#FFC6B5" stroke="black" stroke-width="0.816748"/>
<path d="M144.345 20.5237C144.345 20.5237 147.361 20.9348 149.006 19.9753C150.651 19.0157 152.57 18.6044 153.941 20.5237C155.312 22.443 156.272 22.3059 156.272 22.3059C156.272 22.3059 154.215 27.3782 156.272 27.9266C158.328 28.475 159.288 28.4749 159.425 29.1604C159.562 29.8459 157.642 31.3538 158.191 32.0394C158.739 32.7249 159.699 33.5474 159.836 34.0958C159.973 34.6441 158.602 36.9746 159.013 37.5231C159.425 38.0715 160.659 40.265 161.481 40.265C162.304 40.265 161.755 43.6923 164.223 42.8697C166.691 42.0472 166.554 39.8536 166.554 39.8536C166.554 39.8536 169.158 39.4424 169.844 37.1118C170.529 34.7813 172.174 34.2329 172.174 34.2329C172.174 34.2329 175.464 32.4507 171.078 29.7089C171.078 10.5161 158.465 12.5725 158.465 12.5725C158.465 12.5725 156.957 9.14504 154.489 9.5564C152.022 9.96776 151.885 12.8468 150.102 12.5725C148.32 12.2982 147.909 11.0645 147.772 11.2016C147.635 11.3387 146.127 14.0804 146.127 14.7659C146.127 15.4513 141.329 13.8062 141.74 17.3706C142.151 20.935 144.482 20.7978 144.345 20.5237Z" fill="#9C5100" stroke="black" stroke-width="0.816748"/>
<path d="M166.555 51.5077C166.555 51.5077 154.353 59.3219 154.628 62.0639" stroke="black" stroke-width="0.816748"/>
<path d="M169.297 52.8751C169.297 52.8751 166.555 55.8911 166.418 55.8911" stroke="black" stroke-width="0.816748"/>
<path d="M173 56.1639C173 56.1639 166.968 61.0992 167.928 64.2523" stroke="black" stroke-width="0.816748"/>
<path d="M144.485 50.8153C144.485 50.8153 142.703 54.5167 143.114 55.7505C143.526 56.9843 146.542 61.6455 146.953 64.5247C147.364 67.4036 146.953 69.46 146.953 69.46" stroke="black" stroke-width="0.816748"/>
<path d="M141.334 57.6699C141.334 57.6699 141.882 62.0569 142.705 62.8793C143.527 63.7018 145.721 67.4033 145.995 68.9113" stroke="black" stroke-width="0.816748"/>
<path d="M140.232 75.9054C140.232 75.9054 143.797 77.6877 147.087 70.8331" stroke="black" stroke-width="0.816748"/>
<path d="M152.438 66.0389C152.301 66.0389 149.833 72.7564 154.22 75.2242C158.607 77.6919 161.897 77.4176 163.816 76.7322C165.736 76.0468 167.792 74.8129 167.792 74.8129" stroke="black" stroke-width="0.816748"/>
<path d="M150.518 74.261C150.518 74.261 150.792 83.3095 164.09 92.2196" stroke="black" stroke-width="0.816748"/>
<path d="M151.061 82.7599C151.061 82.7599 150.924 90.7111 156.133 94.2759" stroke="black" stroke-width="0.816748"/>
<path d="M148.328 73.4388C148.328 73.4388 144.352 85.2283 141.199 86.4624" stroke="black" stroke-width="0.816748"/>
<path d="M147.089 82.0762C147.089 82.0762 146.952 90.576 145.855 93.5922" stroke="black" stroke-width="0.816748"/>
<path d="M144.762 95.6468C144.762 95.6468 147.504 99.0742 150.52 98.8C153.535 98.5259 154.769 94.9614 156.826 95.5098C158.882 96.0582 160.801 97.7034 165.6 97.292" stroke="black" stroke-width="0.816748"/>
<path d="M158.738 100.857C158.738 100.857 158.738 107.849 159.972 108.534C161.206 109.22 160.658 115.663 160.658 115.663" stroke="black" stroke-width="0.816748"/>
<path d="M142.017 97.5682C142.017 97.5682 141.88 104.149 141.058 106.479C140.235 108.81 138.59 112.785 138.864 116.212" stroke="black" stroke-width="0.816748"/>
<path d="M133.658 120.053C134.344 119.779 136.674 117.723 136.674 117.723" stroke="black" stroke-width="0.816748"/>
<path d="M137.907 119.231C137.907 119.231 132.012 144.456 133.657 159.536" stroke="black" stroke-width="0.816748"/>
<path d="M139.274 120.46C139.274 120.46 136.258 139.378 137.629 142.943" stroke="black" stroke-width="0.816748"/>
<path d="M137.77 119.915C137.907 119.915 149.286 120.737 149.286 120.737" stroke="black" stroke-width="0.816748"/>
<path d="M150.932 119.231C150.932 119.231 154.085 120.876 158.472 120.602" stroke="black" stroke-width="0.816748"/>
<path d="M149.556 128.414C149.556 128.414 149.008 160.768 148.186 167.896" stroke="black" stroke-width="0.816748"/>
<path d="M166.424 135.814C166.424 135.814 169.988 164.192 172.045 166.796" stroke="black" stroke-width="0.816748"/>
<path d="M159.568 139.379C159.568 139.379 161.762 164.467 162.996 166.661" stroke="black" stroke-width="0.816748"/>
<path d="M128.447 175.435C128.447 175.435 132.697 174.064 136.536 169.951C140.923 175.846 147.64 170.226 147.64 170.226C147.64 170.226 158.058 177.354 162.72 169.403C169.848 174.064 173.413 168.718 173.413 168.718C173.413 168.718 176.017 172.693 177.937 172.282" stroke="black" stroke-width="0.816748"/>
<path d="M166.553 175.028C166.553 175.028 171.899 200.116 179.851 207.245" stroke="black" stroke-width="0.816748"/>
<path d="M139.004 172.423C139.004 172.423 139.689 193.398 140.923 208.204" stroke="black" stroke-width="0.816748"/>
<path d="M138.045 196.137C138.045 196.137 137.36 209.846 136.537 210.806" stroke="black" stroke-width="0.816748"/>
<path d="M129.953 212.174C129.953 212.174 131.461 218.069 139.001 212.586C146.541 207.102 146.678 214.642 146.952 215.465C147.226 216.287 148.46 222.182 151.339 217.247" stroke="black" stroke-width="0.816748"/>
<path d="M157.371 209.163C157.371 209.163 156.137 221.363 166.967 212.453C177.798 203.542 179.58 212.316 179.854 215.057" stroke="black" stroke-width="0.816748"/>
<path d="M157.51 15.8588C157.51 15.8588 156.55 21.8907 162.993 21.3424C162.171 24.6327 164.638 25.7294 164.638 25.7294" stroke="black" stroke-width="0.816748"/>
<path d="M169.436 29.438C169.573 29.438 172.315 31.2202 169.299 33.4137" stroke="black" stroke-width="0.816748"/>
<path d="M160.113 34.2328C160.113 34.2328 161.484 35.878 162.992 35.4667C164.5 35.0554 166.968 36.9747 166.968 36.9747C166.968 36.9747 169.024 37.6601 169.298 37.2489" stroke="black" stroke-width="0.816748"/>
<path d="M151.754 39.4429C151.754 39.4429 156.415 41.2252 159.431 33.8222" stroke="black" stroke-width="0.816748"/>
<path d="M143.115 31.6277L145.857 31.7648" stroke="black" stroke-width="0.816748"/>
<path d="M112.693 118.08L112.908 124.088" stroke="black" stroke-width="0.816748"/>
<path d="M107.061 117.639C107.061 117.639 110.912 124.08 110.591 127.514" stroke="black" stroke-width="0.816748"/>
<path d="M143.523 34.3712H145.991L143.798 35.3309" stroke="black" stroke-width="0.816748" stroke-linejoin="round"/>
<path d="M158.686 131.097C158.686 131.097 161.566 130.794 161.475 135.602C163.314 129.629 167.054 129.487 167.054 129.487" stroke="black" stroke-width="0.816748" stroke-linejoin="round"/>
<path d="M146.949 26.6945C147.36 26.6945 148.868 26.1461 149.143 26.5574C149.417 26.9688 147.497 27.2429 146.949 26.6945Z" stroke="black" stroke-width="1.4701" stroke-linejoin="round"/>
<path d="M148.856 268.378C206.755 266.77 244.145 224.955 243.747 224.552C243.345 224.15 251.386 212.893 257.819 214.501C264.252 216.109 273.5 235.006 284.758 239.027C290.387 247.872 283.15 255.914 280.737 257.522C278.325 259.13 267.469 263.553 265.861 257.12C264.253 250.687 261.036 251.893 261.036 251.893C261.036 251.893 209.571 302.152 150.065 300.141C88.5477 300.543 37.8906 251.893 37.8906 251.893L33.4678 256.718C33.4678 256.718 28.643 261.945 26.2306 261.542C23.8182 261.14 13.3644 254.305 12.5604 247.47C11.7563 240.635 18.9936 236.212 18.9936 236.212C18.9936 236.212 36.6847 222.542 38.6952 215.304C42.716 211.283 50.3549 218.118 50.3549 218.118C50.3549 218.118 96.9953 271.593 148.863 268.377L148.856 268.378Z" fill="#F7C600" stroke="black" stroke-width="1.63341"/>
<path d="M17.7891 237.282C17.7891 237.282 22.5733 236.006 24.3276 237.999C26.0818 239.993 38.1224 251.794 38.1224 251.794" stroke="black" stroke-width="1.63341"/>
<path d="M28.71 242.864L23.9258 246.452C23.9258 246.452 35.9663 248.844 33.2547 256.738" stroke="black" stroke-width="1.63341"/>
<path d="M280.41 236.875C280.41 236.875 278.017 235.599 274.27 238.39C270.522 241.181 261.033 251.786 261.033 251.786" stroke="black" stroke-width="1.63341"/>
<path d="M269.675 242.544L274.857 246.531C274.857 246.531 264.013 247.248 266.405 257.534" stroke="black" stroke-width="1.63341"/>
<path d="M79.0637 250.048C78.7501 250.958 77.9202 250.023 77.2317 250.206C75.4189 250.274 73.9132 251.456 72.3611 252.263C67.0506 255.359 61.74 258.455 56.4294 261.551C55.8935 261.374 56.0207 260.941 56.1514 260.507C57.5668 253.875 59.0369 247.254 60.4137 240.613C60.6423 239.451 61.0102 238.008 59.8887 237.163C59.412 236.837 60.1498 236.177 60.4558 236.777C63.1704 238.713 65.885 240.649 68.5997 242.585C68.3385 243.35 67.8758 242.814 67.4123 242.503C66.285 241.418 64.9258 242.42 64.9593 243.791C63.9905 248.163 63.0458 252.541 62.0871 256.916C65.6922 254.773 69.3387 252.698 72.9116 250.501C74.1866 249.934 75.1276 248.224 73.8015 247.164C73.298 246.868 72.4658 246.057 73.2956 245.934C75.2184 247.305 77.1409 248.676 79.0637 250.048Z" fill="black"/>
<path d="M84.7945 277.725C84.6493 278.221 84.391 278.33 83.9964 277.973C80.8015 276.226 77.6067 274.479 74.4121 272.732C74.5573 272.237 74.8156 272.128 75.2102 272.484C76.0751 273.073 77.4903 273.296 78.1212 272.264C79.3896 270.229 80.4587 268.076 81.6341 265.986C83.2319 263.026 84.8967 260.102 86.4456 257.116C87.1865 256.059 86.3596 254.756 85.3229 254.303C84.9724 254.115 84.456 253.976 84.8992 253.556C85.1123 253.292 85.5669 253.854 85.877 253.921C88.9395 255.596 92.0022 257.271 95.0649 258.946C94.9197 259.441 94.6614 259.55 94.2668 259.194C93.4004 258.606 91.9801 258.381 91.3415 259.406C90.0732 261.441 89.004 263.594 87.8286 265.684C86.2308 268.644 84.5659 271.569 83.017 274.554C82.2766 275.619 83.1006 276.931 84.1539 277.375C84.3675 277.492 84.5809 277.609 84.7945 277.725Z" fill="black"/>
<path d="M121.664 269.079C120.796 271.515 119.929 273.951 119.061 276.386C117.995 276.274 118.704 274.909 118.372 274.189C117.991 270.9 115.566 267.83 112.261 267.126C109.735 266.438 107.068 267.739 105.585 269.793C103.343 272.854 101.98 276.59 101.788 280.383C101.66 282.538 102.649 284.75 104.531 285.884C106.023 286.868 107.835 287.263 109.606 287.213C110.231 285.371 110.978 283.565 111.499 281.691C111.713 280.471 110.452 279.735 109.443 279.455C109.286 279.102 109.677 278.666 110.088 279.047C113.272 280.182 116.456 281.316 119.64 282.45C119.526 283.625 118.197 282.356 117.462 282.825C116.285 283.277 116.184 284.692 115.738 285.715C115.35 286.804 114.962 287.894 114.574 288.983C110.293 289.286 105.882 288.38 102.156 286.226C98.5342 283.943 96.0848 279.537 96.7972 275.215C97.3488 271.516 99.6543 268.051 103.065 266.418C106.198 264.753 110.021 264.759 113.274 266.079C115.053 266.678 116.589 267.778 117.965 269.03C118.799 270.155 120.413 270.158 121.098 268.879C121.286 268.946 121.475 269.012 121.664 269.079Z" fill="black"/>
<path d="M137.206 294.014C137.187 294.402 137.143 294.758 136.678 294.541C133.032 293.989 129.386 293.436 125.74 292.884C125.76 292.496 125.803 292.14 126.268 292.357C127.216 292.55 128.487 292.534 128.945 291.511C129.408 290.05 129.5 288.503 129.767 286.998C130.393 282.795 131.061 278.598 131.659 274.391C131.891 273.484 131.581 272.458 130.642 272.106C130.11 271.854 129.518 271.816 128.946 271.721C128.965 271.333 129.009 270.977 129.474 271.194C133.12 271.746 136.766 272.298 140.412 272.851C140.392 273.239 140.349 273.595 139.884 273.378C138.93 273.182 137.665 273.207 137.191 274.221C136.728 275.682 136.636 277.229 136.369 278.734C135.743 282.937 135.075 287.134 134.477 291.342C134.247 292.246 134.559 293.293 135.503 293.634C136.04 293.878 136.632 293.919 137.206 294.014Z" fill="black"/>
<path d="M166.727 286.839C166.583 289.424 166.439 292.01 166.294 294.595C159.79 294.927 153.286 295.259 146.781 295.591C146.662 295.116 146.789 294.863 147.306 294.963C148.287 294.988 149.55 294.572 149.675 293.447C149.762 291.519 149.545 289.592 149.48 287.664C149.27 283.821 149.118 279.973 148.867 276.132C148.974 274.988 147.944 274.14 146.858 274.175C146.514 274.001 145.582 274.535 145.675 273.906C145.518 273.397 146.225 273.668 146.523 273.571C150.141 273.386 153.759 273.202 157.377 273.017C157.497 273.492 157.37 273.745 156.853 273.645C155.85 273.64 154.546 273.884 154.269 275.015C154.111 276.683 154.343 278.36 154.388 280.031C154.608 284.034 154.764 288.042 155.028 292.041C154.947 293.088 155.787 294.015 156.872 293.813C158.456 293.734 160.074 293.801 161.62 293.403C163.79 292.826 164.973 290.677 165.568 288.669C165.957 288.127 165.635 286.773 166.494 286.85C166.572 286.846 166.65 286.843 166.727 286.839Z" fill="black"/>
<path d="M181.942 268.067C181.425 268.076 181.653 268.736 181.522 269.082C180.658 275.552 179.839 282.029 178.946 288.496C178.729 289.929 178.371 291.601 176.957 292.327C176.436 292.512 176.895 293.332 177.373 292.876C179.545 292.224 181.717 291.573 183.889 290.921C183.807 289.823 182.556 290.82 181.855 290.627C180.361 290.626 180.138 288.81 180.346 287.675C180.437 286.909 180.527 286.143 180.617 285.376C183.105 284.628 185.593 283.88 188.082 283.132C189.034 284.331 190.084 285.46 190.946 286.726C191.593 287.946 190.021 288.504 189.107 288.74C188.681 288.785 189.053 289.678 189.442 289.263C192.712 288.283 195.982 287.303 199.251 286.323C199.222 285.213 197.8 286.253 197.201 285.513C195.365 284.133 194.048 282.213 192.528 280.515C188.999 276.365 185.47 272.216 181.941 268.067L181.942 268.067ZM181.888 275.829C183.655 277.939 185.422 280.048 187.189 282.158C185.07 282.789 182.952 283.42 180.833 284.051C181.185 281.31 181.536 278.57 181.888 275.829Z" fill="black"/>
<path d="M215.325 253.492C216.265 255.241 217.205 256.989 218.145 258.738C217.267 259.491 216.811 257.743 216.016 257.476C214.712 256.379 212.745 256.171 211.293 257.102C210.699 257.411 210.112 257.734 209.521 258.05C212.357 263.301 215.154 268.575 218.015 273.812C218.458 275.155 220.108 275.407 221.173 274.65C221.584 274.351 221.957 274.182 222.089 274.812C220.65 275.647 219.077 276.441 217.586 277.26C215.708 278.269 213.83 279.279 211.952 280.289C211.51 279.83 211.806 279.594 212.304 279.418C213.639 278.923 214.152 277.302 213.258 276.162C210.483 270.947 207.667 265.754 204.876 260.547C203.321 261.408 201.336 262.184 200.944 264.122C200.502 265.342 201.151 266.836 201.152 267.873C200.673 268.37 200.548 267.693 200.326 267.334C199.523 265.84 198.719 264.346 197.916 262.852C203.719 259.732 209.522 256.612 215.325 253.492Z" fill="black"/>
<path d="M228.522 245.668C230.32 248.052 232.118 250.436 233.916 252.82C235.167 252.025 236.212 250.604 235.836 249.052C235.981 247.84 234.247 246.466 234.842 245.616C235.235 245.373 235.466 246.28 235.791 246.52C237.844 249.242 239.897 251.964 241.951 254.686C241.147 255.601 240.566 253.736 239.715 253.535C238.515 252.681 236.831 252.256 235.544 253.191C234.583 253.498 234.627 254.037 235.281 254.629C236.727 256.495 238.069 258.446 239.611 260.233C240.555 261.15 241.73 260.192 242.529 259.555C244.596 258.148 246.411 255.95 246.305 253.314C246.44 252.164 245.717 250.88 245.725 249.909C246.188 249.292 246.317 250.25 246.583 250.563L249.497 255.824C244.435 259.642 239.374 263.46 234.313 267.277C233.653 266.811 234.302 266.536 234.717 266.213C236.135 265.337 235.685 263.549 234.641 262.567C231.397 258.294 228.211 253.977 224.925 249.738C224.085 248.598 222.533 249.198 221.684 249.993C221.333 250.492 220.781 249.492 221.449 249.418C226.221 245.818 230.994 242.219 235.766 238.619C237.072 240.351 238.379 242.082 239.685 243.814C238.777 244.735 237.973 242.683 236.937 242.576C235.056 241.597 232.819 242.386 231.265 243.623C230.336 244.284 229.435 244.985 228.522 245.668Z" fill="black"/>
</g>
<defs>
<linearGradient id="paint0_linear_151_15438" x1="67.6967" y1="23.4856" x2="57.8205" y2="22.0255" gradientUnits="userSpaceOnUse">
<stop stop-color="#FF0000"/>
<stop offset="1" stop-color="#FFFF00"/>
</linearGradient>
<linearGradient id="paint1_linear_151_15438" x1="67.0267" y1="59.2332" x2="57.1506" y2="57.7731" gradientUnits="userSpaceOnUse">
<stop stop-color="#FF0000"/>
<stop offset="1" stop-color="#FFFF00"/>
</linearGradient>
<linearGradient id="paint2_linear_151_15438" x1="66.7533" y1="94.4658" x2="56.8771" y2="93.0058" gradientUnits="userSpaceOnUse">
<stop stop-color="#FF0000"/>
<stop offset="1" stop-color="#FFFF00"/>
</linearGradient>
<linearGradient id="paint3_linear_151_15438" x1="89.8724" y1="132.621" x2="79.9963" y2="131.161" gradientUnits="userSpaceOnUse">
<stop stop-color="#FF0000"/>
<stop offset="1" stop-color="#FFFF00"/>
</linearGradient>
<linearGradient id="paint4_linear_151_15438" x1="63.7357" y1="163.834" x2="53.8596" y2="162.374" gradientUnits="userSpaceOnUse">
<stop stop-color="#FF0000"/>
<stop offset="1" stop-color="#FFFF00"/>
</linearGradient>
<linearGradient id="paint5_linear_151_15438" x1="64.4213" y1="200.711" x2="54.5451" y2="199.251" gradientUnits="userSpaceOnUse">
<stop stop-color="#FF0000"/>
<stop offset="1" stop-color="#FFFF00"/>
</linearGradient>
<linearGradient id="paint6_linear_151_15438" x1="194.298" y1="24.0672" x2="184.422" y2="22.6071" gradientUnits="userSpaceOnUse">
<stop stop-color="#FF0000"/>
<stop offset="1" stop-color="#FFFF00"/>
</linearGradient>
<linearGradient id="paint7_linear_151_15438" x1="193.134" y1="59.1588" x2="183.258" y2="57.6987" gradientUnits="userSpaceOnUse">
<stop stop-color="#FF0000"/>
<stop offset="1" stop-color="#FFFF00"/>
</linearGradient>
<linearGradient id="paint8_linear_151_15438" x1="191.579" y1="95.0266" x2="181.703" y2="93.5665" gradientUnits="userSpaceOnUse">
<stop stop-color="#FF0000"/>
<stop offset="1" stop-color="#FFFF00"/>
</linearGradient>
<linearGradient id="paint9_linear_151_15438" x1="193.328" y1="130.312" x2="183.451" y2="128.852" gradientUnits="userSpaceOnUse">
<stop stop-color="#FF0000"/>
<stop offset="1" stop-color="#FFFF00"/>
</linearGradient>
<linearGradient id="paint10_linear_151_15438" x1="192.937" y1="165.597" x2="183.061" y2="164.137" gradientUnits="userSpaceOnUse">
<stop stop-color="#FF0000"/>
<stop offset="1" stop-color="#FFFF00"/>
</linearGradient>
<linearGradient id="paint11_linear_151_15438" x1="193.134" y1="201.077" x2="183.258" y2="199.617" gradientUnits="userSpaceOnUse">
<stop stop-color="#FF0000"/>
<stop offset="1" stop-color="#FFFF00"/>
</linearGradient>
<clipPath id="clip0_151_15438">
<rect width="300" height="300" fill="white"/>
</clipPath>
</defs>
</svg>
