<svg width="301" height="301" viewBox="0 0 301 301" fill="none" xmlns="http://www.w3.org/2000/svg">
<g clip-path="url(#clip0_151_16652)">
<path d="M135.85 281.25C123.758 279.641 112.671 275.786 104.97 270.504C103.477 269.478 102.072 268.639 101.853 268.639C101.628 268.639 101.447 269.778 101.447 271.186C101.447 275.173 99.8483 277.182 95.826 278.227C91.9785 279.228 86.1074 277.207 81.348 273.252C76.42 269.152 70.7301 266.023 65.9145 264.772C61.9483 263.733 56.6831 263.902 52.8793 265.178C51.1118 265.773 49.1006 266.612 48.401 267.043C47.7077 267.475 46.927 267.826 46.6772 267.826C46.0026 267.826 46.0963 263.539 46.8021 262.168C47.7327 260.372 50.0249 258.601 52.6982 257.625C54.0473 257.13 55.1528 256.498 55.1528 256.216C55.1528 255.935 54.6969 254.902 54.141 253.932C52.3297 250.753 53.073 247.674 56.2334 245.252C59.4687 242.774 64.9463 242.348 69.7869 244.194C71.0048 244.657 72.1416 245.039 72.3103 245.039C72.9473 245.039 72.5601 244.144 70.805 241.585C68.7813 238.618 68.3816 237.154 68.6314 233.624C68.9562 229.156 72.5913 225.501 77.0446 225.175C80.6797 224.912 82.9407 226.139 88.3059 231.258C104.327 246.566 121.746 255.002 142.064 257.287C147.192 257.862 157.51 257.556 163.562 256.642C181.844 253.882 200.263 244.67 214.648 231.096C218.632 227.334 220.55 226.339 223.816 226.327C226.658 226.314 228.651 227.234 230.687 229.487C232.542 231.552 233.173 233.511 232.973 236.647C232.842 238.656 232.517 239.644 231.324 241.591C229.563 244.463 229.862 244.726 233.348 243.374C238.057 241.535 243.859 242.386 246.989 245.365C249.743 247.987 250.005 250.609 247.863 254.164C247.082 255.465 246.445 256.686 246.445 256.88C246.445 257.237 247.039 257.406 249.899 257.869C253.641 258.469 255.783 261.254 255.783 265.51C255.783 266.787 255.627 267.826 255.433 267.826C255.246 267.826 253.828 267.306 252.285 266.668C247.926 264.865 245.446 264.402 240.349 264.434C236.471 264.459 235.134 264.64 232.43 265.523C228.289 266.881 223.86 269.497 220.25 272.72C216.271 276.274 213.767 277.395 209.894 277.363C206.297 277.326 203.836 276.281 202.537 274.222C201.843 273.12 201.744 272.451 201.912 269.96C202.025 268.339 202 267.012 201.868 267.012C201.731 267.012 200.332 267.901 198.752 268.996C194.605 271.85 191.962 273.264 187.216 275.148C172.738 280.887 151.845 283.371 135.85 281.25Z" fill="#CF1126"/>
<path d="M142.47 253.369C118.373 251.051 95.3174 238.475 81.2986 218.537C66.0774 197.737 61.2805 170.275 65.9268 145.165C68.3961 133.732 73.3775 122.293 81.8813 114.152C75.1045 128.548 72.8148 145.049 76.4287 160.645C82.0431 191.782 108.305 218.14 139.724 222.7C152.154 226.305 165.012 222.498 176.885 218.636C203.077 209.387 223.029 184.476 225.463 156.629C227.547 141.561 225.238 125.892 218.464 112.248C222.325 114.294 227.2 122.316 230.074 127.71C240.069 147.113 240.526 170.364 234.641 191.07C226.659 217.415 206.557 240.497 179.983 248.885C167.924 252.833 155.098 254.037 142.472 253.371L142.47 253.369Z" fill="#CF1126"/>
<path d="M21.0984 218.779C19.5192 218.532 17.7781 220.089 18.3735 221.719C19.5121 223.367 21.474 224.172 23.244 224.96C27.4859 226.664 32.1001 227.327 36.6545 227.217C35.0848 227.213 37.1933 227.233 37.7798 227.216C41.3861 227.227 44.9725 226.576 48.3627 225.351C50.2478 224.687 52.65 224.084 53.4225 221.995C54.1763 220.634 52.8103 219.275 51.4326 219.548C49.5142 219.967 47.7205 220.839 45.8178 221.336C41.7127 222.496 37.3896 222.945 33.1368 222.595C30.0269 222.215 27.0134 221.218 24.1365 220.002C23.1389 219.561 22.2031 218.918 21.0984 218.779Z" fill="#CF1126"/>
<path d="M22.8546 212.283C21.2582 212.045 19.8829 213.885 20.5488 215.354C21.7761 217.137 23.8385 218.086 25.7678 218.921C29.1222 220.266 32.7657 220.828 36.3702 220.72C35.0013 220.717 36.8402 220.737 37.3477 220.72C40.4125 220.724 43.4613 220.116 46.2949 218.948C48.027 218.273 50.1482 217.619 50.8695 215.708C51.4292 214.659 51.0025 213.132 49.683 213.05C48.4783 212.99 47.4389 213.759 46.3238 214.103C42.2734 215.781 37.8157 216.493 33.4486 216.115C30.7274 215.764 28.1277 214.758 25.6599 213.592C24.7326 213.144 23.8979 212.443 22.8546 212.283Z" fill="#CF1126"/>
<path d="M25.0084 206.056C23.6401 205.891 22.6988 207.438 22.9293 208.673C23.1334 209.758 24.105 210.487 24.9086 211.152C28.2371 213.591 32.4554 214.63 36.5421 214.494C34.9547 214.488 38.6715 214.52 37.5382 214.489C40.1266 214.479 42.6834 213.844 45.012 212.721C46.5665 212.044 48.3919 211.26 48.9158 209.481C49.1664 208.653 49.3232 207.462 48.3905 206.997C47.4138 206.45 46.4437 207.291 45.5556 207.632C42.5644 209.158 39.2316 210.006 35.8701 209.991C32.9653 210.089 30.228 208.865 27.708 207.545C26.7936 207.079 26.0394 206.267 25.0084 206.056Z" fill="#CF1126"/>
<path d="M2.05531 114.14C0.0207115 116.181 1.57431 119.942 1.46428 122.616C2.51853 130.85 3.82834 139.19 6.89632 146.942C10.6532 154.516 18.6329 158.565 23.4685 165.259C25.197 168.485 24.5833 172.365 24.9476 175.894C25.2337 185.511 25.1449 195.134 24.9769 204.752C29.3108 206.931 34.0172 209.124 39.0027 208.286C41.9574 207.579 47.4421 207.139 48.0567 204.191C47.8179 187.606 47.663 171.015 47.4428 154.433C45.7625 149.353 40.603 146.723 36.7443 143.473C33.5594 140.327 30.5958 136.942 27.8826 133.397C26.245 130.633 19.8454 129.637 22.1606 134.446C23.5182 138.611 26.9827 141.712 27.8501 146.088C28.0396 148.486 30.8966 152.897 28.4579 154.295C26.9066 151.653 24.6589 149.404 21.786 148.064C19.0176 145.996 14.4415 145.135 13.4422 141.482C12.7086 136.3 10.0599 131.605 6.64227 127.722C7.52307 123.068 6.6454 117.248 2.6303 114.273L2.05531 114.14Z" fill="#CF1126"/>
<path d="M8.24379 115.073C6.3932 115.372 6.45616 117.735 7.31253 118.977C8.22337 121.661 8.47138 124.575 7.97827 127.369C11.2683 131.228 13.8161 135.845 14.5839 140.912C14.6026 142.817 16.603 143.447 17.8999 144.389C20.9423 146.33 24.3631 147.738 27.0725 150.167C27.6427 150.777 28.0729 151.435 27.67 150.189C27.2472 148.595 27.0298 146.836 25.7833 145.629C24.0754 143.79 21.9421 142.148 19.4544 141.587C19.247 139.012 18.0233 136.647 16.8925 134.37C15.6392 132.193 14.3301 129.86 12.1827 128.448C12.2691 124.632 12.2067 120.628 10.5677 117.107C10.087 116.202 9.37898 115.127 8.24442 115.073H8.24379Z" fill="#CF1126"/>
<path d="M13.4233 116.593C12.1341 116.977 12.3806 118.57 12.7889 119.545C13.4065 122.246 13.5032 125.036 13.4528 127.796C15.8207 129.674 17.3018 132.396 18.6504 135.047C19.4957 136.818 20.2972 138.647 20.6213 140.595C22.5424 141.233 24.2235 142.439 25.7248 143.773C25.1299 141.969 23.8032 140.573 22.9116 138.926C21.9425 137.213 21.0168 135.427 20.6066 133.486C18.759 131.51 17.7415 128.711 18.1452 126.006C18.2281 123.017 17.265 119.929 15.2684 117.676C14.7657 117.18 14.1655 116.631 13.4233 116.593Z" fill="#CF1126"/>
<path d="M19.3145 117.438C18.6135 117.563 18.1869 118.231 17.8115 118.776C17.6665 119.322 18.3348 119.91 18.4412 120.503C19.2611 122.563 19.5707 124.823 19.3257 127.028C19.2717 128.594 19.8309 130.123 20.6273 131.449C20.8571 130.471 21.7618 129.768 22.7425 129.672C23.0992 129.609 23.6236 129.79 23.4157 129.244C23.1666 126.25 22.7111 123.238 21.6664 120.408C21.2615 119.398 20.8017 118.334 19.9279 117.642C19.7507 117.516 19.5388 117.407 19.3145 117.438Z" fill="#CF1126"/>
<path d="M280.902 218.779C282.481 218.532 284.222 220.089 283.627 221.719C282.488 223.367 280.526 224.172 278.756 224.96C274.514 226.664 269.9 227.327 265.345 227.217C266.915 227.213 264.807 227.233 264.22 227.216C260.614 227.227 257.028 226.576 253.637 225.351C251.752 224.687 249.35 224.084 248.578 221.995C247.824 220.634 249.19 219.275 250.567 219.548C252.486 219.967 254.28 220.839 256.182 221.336C260.287 222.496 264.61 222.945 268.863 222.595C271.973 222.215 274.987 221.218 277.864 220.002C278.861 219.561 279.797 218.918 280.902 218.779Z" fill="#CF1126"/>
<path d="M279.145 212.283C280.742 212.045 282.117 213.886 281.451 215.355C280.224 217.137 278.161 218.086 276.232 218.921C272.878 220.266 269.234 220.828 265.63 220.721C266.999 220.717 265.16 220.737 264.652 220.72C261.587 220.724 258.539 220.117 255.705 218.948C253.973 218.273 251.852 217.619 251.131 215.708C250.571 214.659 250.998 213.132 252.317 213.05C253.522 212.991 254.561 213.759 255.676 214.104C259.727 215.782 264.184 216.493 268.551 216.115C271.273 215.764 273.872 214.758 276.34 213.592C277.267 213.144 278.102 212.444 279.145 212.283Z" fill="#CF1126"/>
<path d="M276.992 206.056C278.36 205.891 279.301 207.438 279.071 208.673C278.867 209.758 277.895 210.487 277.091 211.152C273.763 213.591 269.545 214.63 265.458 214.494C267.045 214.488 263.328 214.52 264.462 214.489C261.873 214.479 259.317 213.844 256.988 212.721C255.433 212.044 253.608 211.26 253.084 209.481C252.834 208.653 252.677 207.462 253.61 206.997C254.586 206.45 255.556 207.291 256.444 207.632C259.436 209.158 262.768 210.006 266.13 209.991C269.035 210.089 271.772 208.865 274.292 207.545C275.206 207.079 275.961 206.267 276.992 206.056Z" fill="#CF1126"/>
<path d="M299.945 114.14C301.979 116.181 300.426 119.943 300.536 122.616C299.481 130.851 298.172 139.19 295.104 146.942C291.347 154.516 283.367 158.566 278.532 165.259C276.803 168.485 277.417 172.365 277.052 175.894C276.766 185.511 276.855 195.134 277.023 204.752C272.689 206.931 267.983 209.124 262.997 208.286C260.043 207.579 254.558 207.139 253.943 204.191C254.182 187.606 254.337 171.016 254.557 154.433C256.238 149.353 261.397 146.723 265.256 143.473C268.441 140.327 271.404 136.942 274.117 133.397C275.755 130.633 282.155 129.637 279.839 134.447C278.482 138.611 275.017 141.712 274.15 146.088C273.96 148.486 271.103 152.897 273.542 154.295C275.093 151.653 277.341 149.405 280.214 148.064C282.982 145.996 287.559 145.135 288.558 141.482C289.291 136.3 291.94 131.605 295.358 127.722C294.477 123.068 295.355 117.248 299.37 114.273L299.945 114.14Z" fill="#CF1126"/>
<path d="M293.756 115.073C295.607 115.372 295.544 117.735 294.687 118.977C293.777 121.661 293.529 124.575 294.022 127.369C290.732 131.228 288.184 135.845 287.416 140.912C287.397 142.817 285.397 143.447 284.1 144.389C281.058 146.33 277.637 147.738 274.927 150.167C274.357 150.777 273.927 151.435 274.33 150.189C274.753 148.595 274.97 146.836 276.217 145.629C277.925 143.79 280.058 142.148 282.546 141.587C282.753 139.012 283.977 136.647 285.107 134.37C286.361 132.193 287.67 129.86 289.817 128.448C289.731 124.632 289.793 120.628 291.432 117.107C291.913 116.202 292.621 115.127 293.756 115.073H293.756Z" fill="#CF1126"/>
<path d="M288.577 116.593C289.866 116.977 289.619 118.57 289.211 119.545C288.594 122.246 288.497 125.036 288.547 127.796C286.179 129.674 284.698 132.396 283.35 135.047C282.504 136.818 281.703 138.647 281.379 140.595C279.458 141.233 277.777 142.439 276.275 143.773C276.87 141.969 278.197 140.573 279.088 138.926C280.058 137.213 280.983 135.427 281.393 133.486C283.241 131.51 284.259 128.711 283.855 126.006C283.772 123.017 284.735 119.929 286.732 117.676C287.234 117.18 287.835 116.631 288.577 116.593Z" fill="#CF1126"/>
<path d="M282.685 117.438C283.387 117.563 283.813 118.231 284.188 118.776C284.334 119.322 283.665 119.91 283.559 120.503C282.739 122.563 282.429 124.823 282.674 127.028C282.728 128.594 282.169 130.123 281.373 131.449C281.143 130.471 280.238 129.768 279.258 129.672C278.901 129.609 278.376 129.79 278.584 129.244C278.833 126.25 279.289 123.238 280.334 120.408C280.739 119.398 281.198 118.334 282.072 117.642C282.249 117.516 282.461 117.407 282.685 117.438Z" fill="#CF1126"/>
<path d="M148.297 222.584C139.869 221.78 132.266 215.625 129.666 207.564C129.806 206.176 131.531 208.341 132.347 208.487C133.877 209.338 135.532 210.039 137.294 210.148C139.516 211.105 140.889 213.299 143.01 214.443C143.995 215.211 147.479 216.721 146.831 214.277C146.015 213.001 145.454 211.383 146.156 209.921C147.338 207.323 149.156 205.062 150.985 202.895C152.329 202.445 153.23 205.102 154.191 205.997C155.522 208.049 157.127 210.553 156.344 213.102C155.582 214.046 155.082 216.886 157.119 215.932C159.631 214.825 161.689 212.964 163.772 211.227C165.595 209.951 167.928 209.861 169.838 208.743C170.724 208.518 172.568 206.743 172.952 207.727C171.906 210.536 170.153 213.051 168.279 215.369C165.244 218.843 161.139 221.455 156.546 222.192C153.831 222.69 151.046 222.795 148.297 222.584Z" fill="#CF1126"/>
<path d="M158.202 212.721C158.388 211.026 158.003 209.296 157.139 207.755C155.813 205.048 153.94 202.645 152.113 200.27C150.391 199.259 149.436 202.559 148.291 203.506C146.506 206.183 144.266 208.923 144.158 212.29C143.154 213.856 141.282 211.013 140.475 210.078C138.934 207.893 137.767 205.308 137.958 202.576C137.776 198.173 138.618 193.788 140.219 189.695C141.428 186.202 143.39 182.808 143.19 178.991C143.33 176.118 142.748 172.946 140.426 171.014C138.216 169.277 141.857 168.907 143.013 169.808C144.993 169.941 146.063 173.217 147.871 172.406C148.591 170.695 148.734 168.653 150.219 167.319C151.677 165.318 153.2 168.167 153.699 169.501C154.727 170.673 153.641 173.573 155.311 173.65C157.314 172.243 158.742 169.88 161.302 169.366C162.341 168.772 164.115 169.287 162.746 170.483C160.851 172.263 159.232 174.488 158.887 177.136C158.307 180.458 159.136 183.826 160.581 186.818C163.359 192.694 165.506 199.332 164.101 205.871C163.45 208.777 161.479 211.281 159.085 212.968C158.782 213.151 158.304 213.138 158.202 212.721Z" fill="#CF1126"/>
<path d="M155.204 168.544C154.295 166.902 153.191 165.283 151.661 164.166C150.174 164.163 149.256 166.043 148.246 167.028C147.537 168.348 146.677 170.556 144.932 168.83C142.156 167.207 141.665 163.651 141.683 160.72C141.508 155.97 143.418 151.537 145.113 147.21C146.192 144.502 145.927 141.453 145.268 138.678C144.44 135.491 141.887 133.281 139.922 130.796C140.056 129.834 142.567 130.359 143.512 130.542C145.61 131.075 146.864 132.936 148.428 134.251C149.541 133.913 149.087 131.66 149.605 130.6C149.643 129.11 151.624 127.144 152.441 129.279C153.664 130.635 152.401 133.324 153.982 134.169C155.489 133.61 156.232 131.961 157.647 131.215C159.039 130.264 161.005 130.157 162.505 130.904C163.032 132.289 160.856 133.442 160.225 134.645C157.694 137.778 156.805 142.099 157.889 145.98C158.749 149.025 160.271 151.867 160.796 155.013C161.429 158.551 161.408 162.266 160.494 165.752C159.948 167.868 158.119 169.282 156.231 170.161C155.765 169.726 155.519 169.088 155.204 168.544L155.204 168.544Z" fill="#CF1126"/>
<path d="M145.76 129.279C143.662 127.74 142.968 126.269 142.968 123.359C142.968 121.869 143.243 121.062 144.224 119.71C145.667 117.707 145.404 117.075 143.362 117.664C140.077 118.609 138.509 117.745 138.397 114.941C138.347 113.571 138.634 112.989 140.476 110.773C141.95 108.996 142.488 108.063 142.194 107.769C141.907 107.481 140.164 108.996 136.585 112.644C133.731 115.555 130.52 118.527 129.452 119.253C123.306 123.409 117.435 124.053 114.756 120.855C113.382 119.222 113.457 118.302 115.043 117.313C115.774 116.863 117.004 115.824 117.785 115.004C119.628 113.083 125.118 109.115 127.841 107.738C130.052 106.618 130.577 105.86 129.14 105.86C127.279 105.86 121.308 109.753 116.78 113.921C115.449 115.154 113.532 116.525 112.526 116.969C110.265 117.97 105.824 118.34 103.851 117.689C102.458 117.226 99.9157 114.822 99.9157 113.965C99.9157 113.74 100.497 113.239 101.202 112.857C101.908 112.482 103.176 111.562 104.013 110.83C107.636 107.644 114.5 104.365 119.946 103.219C121.676 102.856 121.039 101.98 119.109 102.068C115.368 102.231 107.942 105.717 103.507 109.384C98.3105 113.677 90.4719 113.27 87.9486 108.577C87.5113 107.769 87.2553 107.012 87.3802 106.893C87.4989 106.774 89.0416 106.311 90.8092 105.86C92.7204 105.379 96.5054 103.808 100.122 101.999C105.812 99.1578 107.498 98.5508 111.414 97.9187C113.176 97.6371 113.269 96.7734 111.558 96.5731C109.353 96.3103 105.974 97.418 100.003 100.359C92.3332 104.139 90.1846 104.79 86.1435 104.552C82.4584 104.327 80.3786 103.382 77.3868 100.547C75.4318 98.6885 72.6587 93.9697 73.2021 93.4252C73.3332 93.2938 74.2326 93.4252 75.2007 93.7068C76.275 94.026 79.3542 94.2388 83.0643 94.2451C88.2546 94.2576 89.6349 94.1199 92.4019 93.3188C97.0301 91.9795 103.182 88.8441 107.392 85.6962C115.443 79.6632 122.007 77.2412 130.377 77.2037C138.103 77.1724 143.018 78.9623 147.372 83.3869C148.846 84.8826 150.101 85.8527 150.307 85.6461C150.501 85.4521 150.713 82.8362 150.776 79.8322C150.776 79.8322 153.049 79.6131 153.53 80.2515C153.53 85.1267 153.586 85.5085 154.292 85.5085C154.754 85.5085 155.248 85.0328 155.554 84.2943C156.216 82.6985 158.664 80.5143 161.281 79.1876C166.934 76.315 176.715 76.2274 184.572 78.9748C187.883 80.1388 191.555 82.2166 195.053 84.9202C198.563 87.6238 205.74 91.2411 209.98 92.4489C214.271 93.6693 221.835 93.9759 225.714 93.0935C227.313 92.7305 228.812 92.4301 229.049 92.4301C230.479 92.4301 228.044 97.2052 225.183 100.003C219.955 105.122 213.153 105.097 203.585 99.9276C197.62 96.7108 190.487 94.9522 190.487 96.7046C190.487 97.0675 190.862 97.3116 191.418 97.3116C193.491 97.3116 197.495 98.7072 203.079 101.361C209.119 104.24 212.51 105.454 214.521 105.454C215.983 105.454 216.027 106.361 214.665 108.364C213.222 110.498 210.774 111.556 207.313 111.549C204.009 111.537 202.173 110.811 199.219 108.351C194.278 104.233 181.968 99.6397 182.442 102.093C182.536 102.581 183.129 102.882 184.397 103.076C188.682 103.733 193.71 106.136 198.857 109.997C200.443 111.193 202.092 112.369 202.51 112.619C203.216 113.033 203.229 113.158 202.673 114.203C201.748 115.93 199.419 117.269 196.895 117.532C193.629 117.87 190.787 116.894 187.845 114.428C181.637 109.221 175.784 105.454 173.911 105.454C172.38 105.454 173.067 106.299 175.766 107.732C179.313 109.615 182.961 112.163 185.647 114.635C186.914 115.811 188.345 116.975 188.819 117.232C189.944 117.833 189.9 118.715 188.663 120.336C187.402 121.988 185.316 122.714 182.611 122.426C177.215 121.857 173.005 119.247 166.391 112.369C163.805 109.684 161.5 107.488 161.263 107.488C160.382 107.488 160.9 108.683 162.606 110.598C164.717 112.964 165.123 114.297 164.323 116.218C163.617 117.92 162.443 118.315 160.032 117.664C157.565 116.994 157.178 117.601 158.796 119.616C161.206 122.627 160.85 126.313 157.896 128.847C156.978 129.63 156.016 130.274 155.754 130.274C155.498 130.274 154.848 129.605 154.305 128.785C152.406 125.893 150.738 125.912 148.89 128.835C148.246 129.855 147.703 130.681 147.684 130.675C147.659 130.668 146.791 130.043 145.76 129.279Z" fill="#CF1126"/>
<path d="M155.167 70.5385L151.963 73.0793L149.09 70.9077V88.2682L155.167 88.3434V70.5385Z" fill="#CF1126"/>
<path d="M135.32 52.5271C134.683 60.7318 132.603 66.4581 129.711 72.7728L136.644 66.333L141.466 72.0718L146.687 66.2328L152.015 71.1644L157.137 66.0326L162.458 72.2721L167.08 67.1403L174.912 72.7728C172.071 66.4581 168.223 61.1073 168.704 52.2205C161.115 57.8717 143.083 58.8918 135.32 52.5271Z" fill="#CF1126"/>
<path d="M149.099 48.3403C146.313 48.3904 143.377 48.4279 140.735 48.9474C138.905 49.3104 137.244 49.9049 135.857 50.8875C136.082 56.2258 161.466 58.4538 168.274 50.9876C166.843 49.9425 165.094 49.3229 163.171 48.9474C160.629 48.453 157.818 48.4029 155.151 48.3591C155.151 49.8236 155.163 51.2943 155.163 52.765L149.099 52.7462V48.3403Z" fill="#CF1126"/>
<path d="M154.062 21.0603L150.121 21.0916V51.9951L154.143 52.0139L154.062 21.0603Z" fill="#CF1126"/>
<path d="M154.056 21.8552L152.551 36.6499L167.741 44.0847L160.052 33.7836L170.551 30.3728L154.056 21.8552Z" fill="#CF1126"/>
<path d="M152.363 18C150.059 18 148.354 18.8636 148.354 19.89C148.354 20.9164 150.059 21.7863 152.363 21.7863C154.668 21.7863 156.361 20.9164 156.361 19.89C156.361 18.8636 154.668 18 152.363 18Z" fill="#CF1126"/>
<path d="M145.411 277.557C147.903 276.731 149.321 275.217 150.339 272.3C150.845 270.848 151.188 269.34 151.101 268.946C150.889 268.013 149.814 268.063 148.628 269.052C147.816 269.734 147.716 270.078 147.947 271.468C148.54 274.972 147.297 275.842 140.677 276.556C140.021 276.625 138.122 276.512 136.448 276.305C133.3 275.911 132.176 276.224 133.319 277.175C133.662 277.463 134.537 277.851 135.261 278.033C137.029 278.49 143.518 278.183 145.411 277.557Z" fill="#FFCE0B"/>
<path d="M159.134 276.975C159.509 276.631 160.796 276.036 161.995 275.648C163.594 275.135 164.418 274.584 165.093 273.577C167.035 270.679 166.673 268.182 163.819 264.815C162.27 262.988 161.583 263.038 160.346 265.066C159.278 266.818 159.303 266.931 160.84 267.331C161.645 267.538 162.42 268.132 162.845 268.864C164.518 271.768 164.025 273.564 161.545 273.583C159.297 273.602 158.679 273.921 158.073 275.379C157.754 276.137 157.498 276.944 157.498 277.175C157.498 277.789 158.347 277.682 159.134 276.975Z" fill="#FFCE0B"/>
<path d="M154.631 273.696C155.056 272.544 155.206 270.473 155.156 266.248C155.125 263.032 155 260.303 154.875 260.178C154.5 259.802 152.651 260.998 152.408 261.767C152.283 262.168 152.489 263.094 152.864 263.82C153.438 264.94 153.513 265.985 153.338 270.373C153.113 275.917 153.476 276.85 154.631 273.696Z" fill="#FFCE0B"/>
<path d="M144.064 271.055C144.289 270.022 144.576 267.907 144.707 266.361C144.838 264.815 145.157 262.863 145.407 262.018C146.044 259.852 145.401 259.283 143.695 260.497L142.428 261.404L142.69 264.515C142.933 267.319 142.49 272.544 141.847 274.572C141.672 275.11 141.922 274.972 142.627 274.146C143.196 273.483 143.845 272.087 144.064 271.055Z" fill="#FFCE0B"/>
<path d="M134.688 272.563C136.968 270.651 136.706 267.387 137.211 264.728C137.159 262.96 138.338 260.84 137.577 259.294C135.446 259.684 134.132 261.706 135.223 263.721C135.314 266.061 135.231 268.607 134.031 270.676C133.05 272.029 129.945 271.692 130.088 269.774C130.867 266.891 127.42 268.294 126.074 269.05C125.034 269.776 122.837 269.829 123.601 268.013C123.097 265.594 119.991 267.107 118.303 267.096C116.709 267.067 118.171 263.86 115.884 264.423C111.633 264.088 106.94 264.461 103.261 261.888C101.107 260.85 101.426 258.255 102.548 256.575C103.887 254.282 104.269 251.413 106.394 249.633C108.499 247.611 104.41 248.465 103.489 249.146C101.439 250.27 103.344 253.166 101.666 254.771C100.686 256.437 99.3946 258.737 97.1251 258.42C93.8524 257.8 91.9658 254.749 89.6195 252.705C87.6096 252.303 88.7396 255.973 89.7774 256.744C91.8309 258.285 94.2302 259.408 96.7053 260.073C99.1687 259.678 99.2485 262.91 101.355 263.417C105.22 265.221 109.527 265.762 113.742 265.982C115.398 266.12 114.467 269.075 116.644 268.491C117.861 268.807 120.609 268.038 120.747 269.454C118.902 271.648 122.517 271.599 123.854 271.206C125.567 270.944 127.756 270.288 128.208 272.641C129.638 274.151 132.263 273.928 134.004 273.064C134.249 272.922 134.479 272.754 134.688 272.563Z" fill="#FFCE0B"/>
<path d="M97.3607 253.619C98.054 252.737 99.0908 250.953 99.6655 249.651C100.234 248.343 101.09 246.86 101.558 246.353C102.657 245.164 102.045 244.432 100.271 244.826C99.3345 245.033 98.9534 245.377 98.7973 246.19C98.2664 248.844 97.3045 251.56 96.4488 252.824C94.8998 255.115 94.8624 255.209 95.4995 255.209C95.8305 255.209 96.6674 254.495 97.3607 253.619Z" fill="#FFCE0B"/>
<path d="M73.965 238.925C72.2161 238.925 72.1412 240.032 73.8463 240.627C74.6707 240.915 75.3703 241.609 75.9324 242.742C77.5938 246.053 78.5682 246.641 82.9778 247.023L85.8072 247.279L85.9446 249C86.0133 249.952 86.2381 250.74 86.4567 250.74C86.6753 250.74 87.7684 250.265 88.8739 249.701C90.9475 248.65 92.915 246.197 92.915 244.676C92.915 243.681 91.2598 242.604 89.7546 242.604C89.0863 242.604 87.8121 243.143 86.8065 243.875C83.6586 246.159 80.2921 245.696 78.4495 242.723C76.938 240.27 75.3578 238.925 73.965 238.925ZM89.2424 245.026C90.0793 245.026 90.2855 245.646 89.8295 246.829C89.5172 247.642 88.4991 247.667 88.1931 246.866C87.8308 245.921 88.3367 245.026 89.2424 245.026Z" fill="#FFCE0B"/>
<path d="M207.74 241.178C206.597 241.221 206.26 241.472 205.535 242.548C204.348 244.313 204.23 248.137 205.323 249.489C206.004 250.327 206.104 250.346 207.546 249.745C209.558 248.9 209.895 248.932 209.889 250.014C209.876 252.78 205.916 258.113 201.769 260.948C200.651 261.711 199.652 262.562 199.545 262.844C199.246 263.632 200.782 263.457 202.668 262.493C205.242 261.179 208.621 257.725 210.007 255.002C211.106 252.831 211.263 252.092 211.394 248.293C211.512 244.795 211.419 243.769 210.825 242.604C210.163 241.296 209.951 241.178 208.29 241.178C208.09 241.178 207.909 241.171 207.74 241.178ZM207.877 243.618C208.739 243.618 208.889 243.812 208.989 245.051C209.077 246.078 208.895 246.704 208.327 247.217C207.553 247.918 207.49 247.912 206.803 246.866C205.841 245.389 206.435 243.618 207.877 243.618Z" fill="#FFCE0B"/>
<path d="M188.917 270.329C192.571 268.527 194.726 266.499 196.113 263.564C196.768 262.168 197.305 260.854 197.305 260.629C197.305 260.122 195.507 259.283 194.426 259.283C193.352 259.283 193.133 258.538 193.595 256.479C194.045 254.47 193.502 251.954 192.621 251.954C192.303 251.954 191.74 252.424 191.366 252.993C190.791 253.876 190.76 254.251 191.185 255.534C191.809 257.437 191.316 258.857 189.617 260.072C188.811 260.647 188.368 261.311 188.368 261.955C188.368 262.5 188.436 262.944 188.518 262.944C188.605 262.944 189.492 262.481 190.491 261.924L192.315 260.904L193.389 261.749C193.976 262.212 194.464 262.969 194.464 263.432C194.464 265.66 188.124 269.403 183.771 269.753C181.453 269.941 181.06 269.86 180.254 269.058C179.598 268.401 179.411 267.851 179.573 267.075C179.698 266.48 179.923 265.397 180.073 264.671C180.473 262.731 179.642 262.994 178.206 265.26C177.025 267.131 176.675 269.127 177.337 270.179C177.881 271.036 181.491 271.856 184.046 271.699C185.651 271.606 187.237 271.155 188.917 270.329Z" fill="#FFCE0B"/>
<path d="M213.297 256.698C215.596 254.401 216.57 251.604 216.583 247.279L216.589 244.031L218.488 243.13C220.955 241.954 223.291 239.613 223.291 238.311C223.291 236.972 222.698 237.041 221.623 238.499C220.843 239.557 219.799 240.195 215.983 241.954C215.021 242.398 214.959 242.636 214.74 246.679C214.484 251.341 213.853 253.087 211.255 256.273C209.662 258.213 209.606 258.469 210.712 258.469C211.168 258.469 212.329 257.674 213.297 256.698Z" fill="#FFCE0B"/>
<path d="M188.264 254.095C188.482 253.425 187.215 252.949 186.665 253.494C186.434 253.725 186.371 254.126 186.527 254.383C186.89 254.965 188.039 254.771 188.264 254.095Z" fill="#FFCE0B"/>
<path d="M222.785 245.139C223.01 244.47 221.736 243.994 221.192 244.538C220.955 244.776 220.893 245.177 221.049 245.433C221.411 246.015 222.56 245.821 222.785 245.139Z" fill="#FFCE0B"/>
<path d="M181.239 220.894C180.346 221.32 179.883 222.286 179.263 223.024C178.816 223.328 179.174 223.613 179.431 223.899C181.007 225.6 181.673 227.896 182.422 230.038C183.157 232.567 184.083 235.281 183.314 237.916C183.011 238.925 182.219 239.97 181.036 239.635C179.144 239.516 177.281 239.013 175.383 239.033C173.694 239.121 172.388 240.661 170.66 240.494C169.557 240.566 169.603 238.229 168.578 238.854C168.07 240.073 168.32 241.432 168.26 242.721C168.451 242.906 168.987 242.745 169.309 242.799H172.71C172.95 243.975 172.92 245.325 173.764 246.26C174.944 246.681 176.272 246.318 177.394 245.858C178.596 245.297 178.757 243.848 179.097 242.719C179.459 241.506 181.044 241.824 181.98 241.348C184.269 240.678 185.769 238.294 185.635 235.949C185.487 232.368 184.123 228.999 183.089 225.61C182.568 224.116 182.208 222.559 181.604 221.101C181.534 220.975 181.388 220.869 181.239 220.894ZM175.574 241.372C176.846 241.288 177.399 242.855 177.13 243.893C176.654 245.305 174.922 244.4 174.571 243.383C173.928 242.474 174.326 241.252 175.574 241.372Z" fill="#FFCE0B"/>
<path d="M128.48 229.619C127.912 229.606 127.274 229.819 126.644 230.263C123.327 232.591 122.478 235.345 124.732 236.421C126.388 237.216 125.969 238.149 123.365 239.457C119.636 241.322 116.344 241.09 110.092 238.499C108.556 237.861 108.156 238.105 108.512 239.513C108.855 240.896 110.117 241.653 113.252 242.367C116.625 243.143 120.704 242.892 123.327 241.76C124.607 241.209 126.125 240.051 127.406 238.656L129.436 236.421L131.796 236.715C134.707 237.072 134.763 237.104 134.763 238.499C134.763 239.607 134.826 239.632 137.499 239.882C139.004 240.026 140.984 240.158 141.909 240.158C143.089 240.164 143.757 240.37 144.151 240.921C144.675 241.653 144.988 241.691 149.385 241.297C153.495 240.921 154.3 240.952 156.155 241.584C157.473 242.035 158.922 242.217 160.022 242.098C163.17 241.741 167.51 239.162 168.141 237.266C168.216 237.035 169.359 236.628 170.677 236.365C173.856 235.727 173.994 235.032 171.027 234.663C169.74 234.5 167.81 234.031 166.736 233.605C165.655 233.18 164.181 232.823 163.457 232.823C161.858 232.823 160.353 233.824 160.353 234.857C160.353 235.533 160.59 235.602 162.482 235.408C164.263 235.226 164.781 235.326 165.718 236.071C166.336 236.559 166.748 237.135 166.617 237.341C166.199 238.023 162.482 239.719 160.84 239.982C159.741 240.158 158.854 240.039 157.992 239.594C156.549 238.843 154.425 238.731 154.026 239.375C153.857 239.657 153.401 239.475 152.776 238.887L151.802 237.967L149.597 238.887C147.355 239.82 146.531 239.782 146.531 238.712C146.531 238.224 145.875 238.167 142.571 238.38C138.929 238.618 138.548 238.555 137.867 237.792C137.237 237.091 137.224 236.847 137.674 236.127C138.086 235.464 138.086 235.176 137.693 234.782C137.299 234.387 136.787 234.394 135.35 234.782C131.728 235.752 130.703 235.207 130.703 232.372C130.703 230.67 129.729 229.637 128.48 229.619ZM127.581 232.222C127.774 232.222 127.936 232.341 128.186 232.591C128.505 232.91 128.674 233.467 128.536 233.824C128.211 234.669 126.675 234.638 126.35 233.787C126.194 233.374 126.394 232.91 126.856 232.572C127.181 232.335 127.387 232.216 127.581 232.222Z" fill="#FFCE0B"/>
<path d="M121.083 234.863C123.287 233.461 123.238 233.568 123.556 229.675C123.775 226.927 123.737 226.721 122.994 226.721C121.913 226.721 121.351 227.91 121.351 230.175C121.351 231.627 121.126 232.278 120.352 233.048C118.516 234.888 113.956 234.049 113.382 231.765C113.188 230.983 113.438 230.276 114.393 228.918C116.386 226.083 115.936 225.388 113.494 227.541C111.814 229.011 111.514 229.055 111.833 227.785C112.126 226.615 111.514 226.151 110.146 226.496C109.447 226.671 109.066 227.109 108.897 227.96C108.735 228.792 108.354 229.256 107.692 229.418C106.586 229.7 104.7 228.648 104.7 227.754C104.7 227.09 107.523 223.636 111.146 219.868C112.513 218.441 113.631 217.114 113.631 216.914C113.631 216.714 112.901 216.551 112.007 216.551C110.702 216.551 110.384 216.695 110.384 217.302C110.384 217.715 108.56 220.112 106.324 222.634C101.664 227.891 101.277 228.986 103.582 230.388C105.437 231.527 107.816 231.44 109.684 230.169L111.195 229.137V231.008C111.195 233.399 111.67 234.256 113.544 235.251C115.899 236.496 118.747 236.346 121.083 234.863Z" fill="#FFCE0B"/>
<path d="M218.869 202.376C217.141 203.41 218.493 205.582 218.755 207.025C218.049 208.994 215.525 209.524 213.685 209.89C211.078 210.322 209.231 212.507 208.239 214.829C207.702 216.337 206.405 218.674 204.992 216.379C203.763 215.131 201.505 214.143 200.053 215.599C198.949 216.652 198.669 218.201 198.258 219.606C197.607 218.526 197.314 216.917 195.934 216.575C193.731 216.886 194.527 219.669 195.563 220.817C196.505 222.155 197.409 223.92 196.486 225.509C195.672 227.419 192.858 228.707 191.204 227.073C189.66 226.257 190.693 223.34 189.172 223.18C188.42 223.724 188.358 226.776 187.154 225.122C186.286 223.708 186.746 221.772 185.684 220.5C184.428 220.656 183.418 222.823 183.836 223.987C185.511 226.251 186.2 229.091 186.854 231.789C187.261 232.869 186.794 235.06 187.803 235.488C188.502 233.749 187.852 231.776 188.403 230.021C190.038 229.815 191.857 230.563 193.572 230.165C196.026 229.846 197.922 227.771 198.783 225.562C199.043 223.901 198.733 222.215 198.687 220.545C200.626 220.846 202.64 220.84 204.504 221.47C205.429 222.891 204.211 224.88 203.955 226.433C202.982 229.595 200.51 231.89 198.105 234.003C197.1 234.6 196.965 236.18 198.45 235.329C201.681 233.945 204.09 231.012 205.475 227.838C206.486 225.396 205.673 222.677 206.334 220.179C207.309 218.305 209.657 218.7 211.395 218.705C213.193 218.637 214.728 216.538 214.127 214.787C213.555 212.755 215.701 211.776 217.167 211.049C219.11 210.067 220.601 208.071 220.45 205.819C220.37 204.667 220.427 202.481 218.869 202.376ZM211.979 214.11C214.061 214.665 211.602 218.649 210.496 216.125C210.155 215.162 210.964 214.076 211.979 214.11ZM202.317 216.964C205.027 216.806 204.054 220.77 201.764 218.97C200.577 218.372 200.97 216.89 202.317 216.964Z" fill="#FFCE0B"/>
<path d="M104.219 232.285C104.294 231.89 104.095 231.609 103.739 231.609C102.983 231.609 102.527 232.272 102.883 232.848C103.251 233.442 104.063 233.104 104.219 232.285Z" fill="#FFCE0B"/>
<path d="M135.973 228.73C135.973 228.148 135.754 227.929 135.267 228.023C134.205 228.223 134.087 229.575 135.13 229.575C135.711 229.575 135.973 229.312 135.973 228.73Z" fill="#FFCE0B"/>
<path d="M96.6799 209.629C95.4126 209.369 94.6154 210.443 94.1815 211.468C93.2338 213.064 92.0763 214.696 90.3758 215.541C89.153 215.882 87.819 215.416 86.7645 214.784C85.5062 214.156 85.7922 212.64 85.2529 211.592C84.3429 210.876 82.7291 211.9 82.7649 213.013C82.6643 214.507 84.0586 215.369 85.2159 215.947C86.1995 216.55 87.6254 216.886 88.0185 218.108C87.9912 219.146 88.4079 220.334 89.6696 219.933C91.081 219.91 91.4465 221.632 90.8767 222.666C90.2962 223.831 89.9046 225.195 90.1822 226.493C90.8568 227.062 91.5455 225.536 92.0342 225.1C92.3661 224.656 92.6981 224.213 93.0299 223.769C95.5272 223.905 98.0221 224.224 100.526 224.135C102.306 224.103 103.822 223.002 104.954 221.71C106.555 220.033 107.871 218.062 109.699 216.615C111.001 216.296 110.302 213.84 108.942 214.549C107.717 215.01 107.332 216.396 106.483 217.28C105.037 219.034 103.562 220.814 101.74 222.189C100.413 222.74 98.8853 222.499 97.522 222.188C96.9532 221.69 98.6517 221.284 98.8886 220.73C99.6706 219.948 100.599 219.205 101.052 218.176C100.619 217.228 99.2928 217.151 98.3585 217.132C96.0565 217.409 94.2983 219.345 91.9734 219.528C90.2087 219.59 91.127 217.675 91.9226 217.022C93.4788 215.17 95.1607 213.426 96.7855 211.635C97.2465 211.079 98.9145 210.551 97.8477 209.77C97.4746 209.635 97.071 209.635 96.6799 209.629ZM97.8119 218.997C98.9728 219.652 97.0713 220.723 96.2704 220.576C95.2196 220.892 95.2008 219.818 96.134 219.604C96.6588 219.331 97.213 219.045 97.8119 218.997ZM94.24 221.442C94.9008 221.429 96.2854 222.066 94.9852 222.473C94.0799 223.176 93.0573 221.757 94.24 221.442Z" fill="#FFCE0B"/>
<path d="M122.366 223.06C122.366 222.177 120.786 222.303 120.611 223.197C120.498 223.773 120.679 223.911 121.416 223.805C121.941 223.729 122.366 223.398 122.366 223.06Z" fill="#FFCE0B"/>
<path d="M192.348 216.851C192.511 216.007 191.336 215.443 190.718 216.063C190.1 216.682 190.668 217.859 191.505 217.696C191.892 217.621 192.273 217.239 192.348 216.851Z" fill="#FFCE0B"/>
<path d="M83.4339 208.259C84.5332 207.314 84.5457 207.251 84.071 205.174C83.3964 202.263 83.4401 201.951 84.5456 201.675C85.9447 201.318 89.4986 203.227 90.2856 204.754C90.8977 205.937 90.879 206.018 89.8422 206.982C88.7242 208.015 88.7304 209.223 89.8484 209.223C90.7728 209.223 93.3273 206.801 93.3273 205.931C93.3273 204.723 90.4917 201.869 88.2495 200.824C86.8629 200.173 85.4763 199.873 83.8711 199.866C80.998 199.866 80.6107 200.486 81.3852 203.834C82.2971 207.758 81.0604 208.29 77.9063 205.33C75.5641 203.133 74.6397 200.849 74.6522 197.251C74.6584 193.389 76.1325 191.48 79.4553 191.03C81.6601 190.736 81.6038 190.216 79.3366 189.878C76.0263 189.378 73.2281 191.593 72.1663 195.548C70.9859 199.935 73.6903 205.28 78.4747 208.034C80.9793 209.473 81.9786 209.517 83.4339 208.259Z" fill="#FFCE0B"/>
<path d="M213.872 203.446C214.141 203.177 214.359 202.57 214.359 202.101C214.359 201.631 214.815 200.624 215.371 199.866C215.933 199.109 216.389 198.333 216.389 198.145C216.389 197.376 215.121 197.401 214.122 198.195C213.098 198.997 212.33 199.015 212.33 198.233C212.33 198.039 212.817 197.638 213.416 197.344C214.903 196.618 215.028 195.899 213.772 195.323C212.161 194.591 210.543 195.93 210.375 198.139C210.268 199.616 210.387 199.873 211.524 200.542C212.561 201.156 212.754 201.481 212.579 202.357C212.28 203.878 212.91 204.41 213.872 203.446Z" fill="#FFCE0B"/>
<path d="M226.133 202.057C227.032 201.249 227.763 200.329 227.763 200.023C227.763 199.716 228.538 198.903 229.487 198.22C232.179 196.28 232.772 194.322 231.567 191.311C231.099 190.128 229.625 188.495 226.42 185.604C223.96 183.376 221.692 181.555 221.399 181.555C220.524 181.555 220.68 184.778 221.567 185.059C223.166 185.572 224.134 186.23 226.652 188.501C229.575 191.149 230.924 193.621 230.187 194.997C229.481 196.33 228.544 195.917 225.964 193.145C224.609 191.687 223.266 190.498 222.991 190.498C222.692 190.504 222.479 191.03 222.479 191.768C222.479 192.694 222.973 193.577 224.309 195.066C226.489 197.494 226.701 198.953 225.065 200.242C224.478 200.705 223.872 201.087 223.722 201.087C223.579 201.087 223.098 200.361 222.66 199.478C221.748 197.626 216.171 191.724 215.334 191.724C214.953 191.724 214.766 192.2 214.766 193.139C214.766 194.271 214.99 194.672 215.89 195.135C216.995 195.711 219.731 198.471 222.479 201.8C223.266 202.751 224.041 203.521 224.209 203.527C224.372 203.527 225.24 202.864 226.133 202.057Z" fill="#FFCE0B"/>
<path d="M231.605 186.367C231.243 185.197 223.76 177.48 222.992 177.48C222.592 177.48 222.467 177.956 222.561 179.183C222.667 180.672 222.829 180.929 223.854 181.198C224.491 181.367 226.465 182.919 228.232 184.64C229.993 186.361 231.542 187.669 231.667 187.538C231.792 187.412 231.767 186.887 231.605 186.367Z" fill="#FFCE0B"/>
<path d="M186.914 273.22C186.914 273.491 186.797 273.751 186.588 273.942C186.379 274.134 186.097 274.241 185.802 274.241C185.507 274.241 185.224 274.134 185.015 273.942C184.807 273.751 184.689 273.491 184.689 273.22C184.689 272.949 184.807 272.689 185.015 272.498C185.224 272.306 185.507 272.198 185.802 272.198C186.097 272.198 186.379 272.306 186.588 272.498C186.797 272.689 186.914 272.949 186.914 273.22Z" fill="#FFCE0B"/>
<path d="M190.845 271.906C190.845 272.177 190.728 272.437 190.52 272.628C190.311 272.82 190.028 272.927 189.733 272.927C189.438 272.927 189.155 272.82 188.947 272.628C188.738 272.437 188.621 272.177 188.621 271.906C188.621 271.635 188.738 271.375 188.947 271.184C189.155 270.992 189.438 270.885 189.733 270.885C190.028 270.885 190.311 270.992 190.52 271.184C190.728 271.375 190.845 271.635 190.845 271.906Z" fill="#FFCE0B"/>
</g>
<defs>
<clipPath id="clip0_151_16652">
<rect width="300" height="300" fill="white" transform="translate(0.712891 0.130005)"/>
</clipPath>
</defs>
</svg>
