<svg width="300" height="300" viewBox="0 0 300 300" fill="none" xmlns="http://www.w3.org/2000/svg">
<path d="M223.258 82.3331L228.109 86.1689L247.454 61.7027L242.603 57.8669L223.258 82.3331Z" fill="#FCD116" stroke="#120B15" stroke-width="1.21199"/>
<path d="M85.9101 248.822L90.7617 252.658L110.106 228.189L105.255 224.353L85.9101 248.822Z" fill="#FCD116" stroke="#120B15" stroke-width="1.21199"/>
<path d="M217.158 76.7128L90.207 233.054C90.207 233.054 93.5344 237.275 97.4616 240.258C101.381 243.235 106.367 244.77 106.367 244.77L233.738 89.1599C233.738 89.1599 232.735 86.2095 227.306 81.9025C222.302 77.9324 217.158 76.7128 217.158 76.7128Z" fill="#FCD116" stroke="#120B15" stroke-width="1.21199"/>
<path d="M110.401 216.162L93.4336 236.766" stroke="#120B15" stroke-width="1.21199"/>
<path d="M114.645 219.394L97.8789 240.199" stroke="#120B15" stroke-width="1.21199"/>
<path d="M118.485 222.424L102.527 243.028" stroke="#120B15" stroke-width="1.21199"/>
<path d="M120.503 227.272L116.867 231.716L93.0312 229.494L96.6672 225.252L120.503 227.272Z" fill="#FCD116" stroke="#120B15" stroke-width="1.21199"/>
<path d="M101.719 218.99L105.153 215.152L112.829 236.362L109.509 240.43L101.719 218.99Z" fill="#FCD116" stroke="#120B15" stroke-width="1.21199"/>
<path d="M213.445 104.636L230.413 84.032" stroke="#120B15" stroke-width="1.21199"/>
<path d="M209.203 101.404L225.969 80.598" stroke="#120B15" stroke-width="1.21199"/>
<path d="M200.406 104.524L221.325 77.77" stroke="#120B15" stroke-width="1.21199"/>
<path d="M203.863 93.461L207.388 89.082L231.628 91.304L227.588 95.546L203.863 93.461Z" fill="#FCD116" stroke="#120B15" stroke-width="1.21199"/>
<path d="M222.133 102.616L218.295 106.858L211.023 84.436L214.7 80.1609L222.133 102.616Z" fill="#FCD116" stroke="#120B15" stroke-width="1.21199"/>
<path d="M269.485 68.4458C269.485 68.4458 273.479 82.4386 263.918 92.6731C255.012 102.207 241.833 98.5985 241.833 98.5985C241.833 98.5985 243.853 87.1521 242.372 82.8426C240.921 78.6245 240.577 78.4661 238.273 76.2777C235.969 74.0892 229.846 68.0802 227.558 65.8747C223.787 62.2387 223.249 59.9493 224.595 58.6028C225.339 57.859 228.086 58.3264 232.137 60.8922C236.177 63.4507 241.948 68.7617 248.753 70.8649C255.703 73.0122 259.743 72.4736 262.805 71.2103C265.805 69.9725 269.485 68.4458 269.485 68.4458Z" fill="white" stroke="#120B15" stroke-width="1.21199"/>
<path d="M57.7068 57.8582L52.8555 61.694L72.2002 86.1602L77.0515 82.3244L57.7068 57.8582Z" fill="#FCD116" stroke="#120B15" stroke-width="1.21199"/>
<path d="M195.05 224.363L190.199 228.198L209.544 252.664L214.395 248.829L195.05 224.363Z" fill="#FCD116" stroke="#120B15" stroke-width="1.21199"/>
<path d="M83.1535 76.713L210.105 233.054C210.105 233.054 206.778 237.276 202.851 240.259C198.932 243.236 193.945 244.77 193.945 244.77L66.5742 89.1606C66.5742 89.1606 67.5773 86.2102 73.0059 81.9032C78.0094 77.9327 83.1535 76.713 83.1535 76.713Z" fill="#FCD116" stroke="#120B15" stroke-width="1.21199"/>
<path d="M189.914 216.162L206.882 236.766" stroke="#120B15" stroke-width="1.21199"/>
<path d="M185.672 219.394L202.438 240.2" stroke="#120B15" stroke-width="1.21199"/>
<path d="M181.836 222.424L197.794 243.028" stroke="#120B15" stroke-width="1.21199"/>
<path d="M179.812 227.272L183.448 231.716L207.284 229.494L203.648 225.252L179.812 227.272Z" fill="#FCD116" stroke="#120B15" stroke-width="1.21199"/>
<path d="M198.602 218.99L195.168 215.152L187.492 236.362L190.812 240.43L198.602 218.99Z" fill="#FCD116" stroke="#120B15" stroke-width="1.21199"/>
<path d="M86.8702 104.636L69.9023 84.0322" stroke="#120B15" stroke-width="1.21199"/>
<path d="M91.1057 101.404L74.3398 80.5983" stroke="#120B15" stroke-width="1.21199"/>
<path d="M99.9069 104.524L78.9883 77.7703" stroke="#120B15" stroke-width="1.21199"/>
<path d="M96.4518 93.4612L92.9274 89.0823L68.6875 91.3043L72.7275 95.5462L96.4518 93.4612Z" fill="#FCD116" stroke="#120B15" stroke-width="1.21199"/>
<path d="M78.1836 102.616L82.0216 106.858L89.2935 84.4361L85.6163 80.161L78.1836 102.616Z" fill="#FCD116" stroke="#120B15" stroke-width="1.21199"/>
<path d="M30.8277 68.4459C30.8277 68.4459 26.8333 82.4388 36.3943 92.6732C45.3009 102.207 58.4797 98.5987 58.4797 98.5987C58.4797 98.5987 56.4597 87.1522 57.9412 82.8428C59.3915 78.6246 59.7361 78.4662 62.0401 76.2778C64.3441 74.0893 70.4663 68.0803 72.7545 65.8749C76.5255 62.2389 77.064 59.9494 75.7175 58.6029C74.9737 57.8591 72.2265 58.3266 68.176 60.8923C64.1361 63.4509 58.365 68.7618 51.5592 70.865C44.6096 73.0123 40.5697 72.4737 37.5082 71.2104C34.5081 69.9726 30.8277 68.4459 30.8277 68.4459Z" fill="white" stroke="#120B15" stroke-width="1.21199"/>
<path d="M209.722 200.46C223.093 181.436 236.747 143.945 228.824 90.0699C228.527 88.0491 196.504 120.774 177.819 88.0499H151.762H150.045H123.904C105.219 120.774 73.1962 88.0491 72.8992 90.0699C64.9122 144.381 78.8525 182.042 92.3259 200.918L151.202 88.6232L209.722 200.46Z" fill="#007A5E"/>
<path d="M150.996 88.6105H178.443C196.908 121.109 228.553 88.6097 228.846 90.6163C236.831 145.183 222.639 182.829 209.183 201.354C187.326 231.445 150.996 250.654 150.996 250.654V88.6105Z" fill="#FCD116"/>
<path d="M150.897 250.056L150.334 249.743C141.747 244.929 112.248 227.197 93.2805 201.216C93.1973 201.102 93.1145 200.986 93.0312 200.87L151.197 89.9302L209.008 200.413C208.815 200.684 208.624 200.952 208.432 201.215C189.471 227.191 160.031 244.925 151.46 249.742L150.897 250.056Z" fill="#CE1126"/>
<path d="M151.197 88.6229L209.716 200.46C209.451 200.838 209.186 201.21 208.921 201.573C189.647 227.977 159.254 246.057 151.757 250.271L150.897 250.75L150.039 250.273C142.532 246.064 112.069 227.982 92.7914 201.573C92.6346 201.358 92.4775 201.138 92.3203 200.918L151.197 88.6229ZM151.196 91.2348L93.7412 200.818C93.7509 200.832 93.7606 200.845 93.7707 200.859C101.901 211.997 112.935 222.906 126.563 233.283C137.524 241.629 147.047 247.206 150.632 249.216L150.896 249.363L151.167 249.212C154.742 247.203 164.246 241.625 175.188 233.28C188.792 222.904 199.812 211.996 207.942 200.858C208.061 200.696 208.18 200.531 208.298 200.364L151.196 91.2348Z" fill="#120B15"/>
<path d="M177.819 88.0499C184.113 99.073 191.92 102.67 199.519 102.67C206.655 102.67 213.608 99.4972 218.949 96.3246C224.29 93.1516 228.019 89.9794 228.71 89.9794C228.777 89.9794 228.815 90.0089 228.824 90.0703C236.904 145.014 222.543 182.921 208.926 201.574C189.652 227.978 159.26 246.058 151.762 250.272L150.903 250.75L150.045 250.274C142.537 246.064 112.074 227.982 92.7968 201.574C79.1805 182.921 64.8192 145.014 72.8991 90.0703C72.908 90.0089 72.9464 89.9794 73.0131 89.9794C73.7043 89.9794 77.434 93.152 82.7749 96.3246C88.1165 99.4976 95.0669 102.67 102.204 102.67C109.802 102.67 117.611 99.0722 123.905 88.0499H150.045H151.763H177.819ZM177.121 89.2619H151.762H150.044H124.602C118.873 98.9631 111.34 103.882 102.204 103.882C96.1779 103.882 89.4327 101.69 82.1551 97.3665C79.309 95.6758 76.9339 93.9992 75.1995 92.7751C74.7398 92.4507 74.2731 92.121 73.8683 91.8439C70.4941 115.942 71.1741 138.582 75.8928 159.16C79.6011 175.332 85.9519 190.142 93.7753 200.859C101.907 211.998 112.94 222.907 126.568 233.284C137.529 241.63 147.052 247.206 150.637 249.217L150.901 249.363L151.172 249.213C154.747 247.204 164.251 241.626 175.193 233.28C188.797 222.904 199.817 211.996 207.947 200.859C215.771 190.142 222.121 175.332 225.83 159.16C230.548 138.582 231.228 115.941 227.854 91.8439C227.45 92.121 226.983 92.4503 226.524 92.7747C224.789 93.9988 222.414 95.6758 219.567 97.3665C212.289 101.69 205.544 103.882 199.519 103.882C190.382 103.881 182.85 98.9631 177.121 89.2619Z" fill="#120B15"/>
<path d="M158.159 128.88L157.073 128.307L151.198 125.215L145.32 128.301L144.233 128.872L144.441 127.662L145.567 121.119L140.816 116.483L139.938 115.626L141.152 115.45L147.722 114.499L150.664 108.548L151.208 107.447L151.75 108.549L154.685 114.503L161.254 115.461L162.469 115.638L161.589 116.495L156.832 121.126L157.951 127.668L158.159 128.88Z" fill="#FCD116"/>
<path d="M151.202 134.055C149.384 133.904 149.384 132.49 147.97 135.52C146.663 138.32 146.96 137.54 148.576 140.166C150.192 142.792 150.192 139.661 150.596 144.812C151 149.963 152.212 150.872 150.394 153.498C148.197 156.671 146.152 155.72 144.738 160.366C143.324 165.012 141.91 166.426 140.496 170.668C139.082 174.91 140.496 176.324 137.668 179.959C134.84 183.595 129.992 187.029 125.75 188.645C121.508 190.261 122.114 189.453 118.276 193.493C114.571 197.393 115.044 197.735 113.226 201.169C111.408 204.603 111.61 205.007 110.398 206.219C109.186 207.431 108.782 206.623 109.388 209.653C110.312 214.273 114.438 211.269 115.852 213.693C119.521 219.984 120.094 216.117 121.306 218.945C124.401 226.167 123.124 225.813 126.356 226.015C129.588 226.217 128.982 226.217 133.022 225.409C137.062 224.601 134.638 225.611 141.102 223.793C147.566 221.975 146.556 221.975 150.394 221.975C154.232 221.975 149.788 221.167 156.05 222.581C162.311 223.995 163.725 225.611 167.563 225.611C171.401 225.611 171.401 227.025 174.027 225.813C176.575 224.637 176.653 222.783 176.855 219.753C177.057 216.723 174.633 213.895 172.209 212.885C169.785 211.875 167.159 212.077 164.533 210.663C161.907 209.249 161.099 209.451 161.503 206.623C161.907 203.795 162.109 201.573 162.513 199.351C162.917 197.129 162.311 195.109 162.917 192.079C163.523 189.049 163.119 188.645 163.725 185.009C164.331 181.373 164.533 180.161 164.735 178.747C164.937 177.333 166.149 177.535 165.139 174.304C164.129 171.072 165.947 172.688 162.109 170.466C158.405 168.321 157.666 169.86 156.656 166.022C155.252 160.69 155.04 162.386 155.848 160.568C156.835 158.345 158.676 159.154 159.888 158.144C161.099 157.134 162.513 156.124 161.301 154.508C160.089 152.892 158.878 151.68 158.474 149.66C158.07 147.64 158.272 146.832 157.262 145.418C156.252 144.004 156.05 143.802 155.646 141.782C155.242 139.762 155.646 139.56 154.434 137.944C153.222 136.328 151.202 134.055 151.202 134.055Z" fill="#4B5EAA" stroke="#120B15" stroke-width="0.807995"/>
<path d="M140.02 207.877C140.02 212.86 133.147 216.9 124.668 216.9C116.19 216.9 109.316 212.86 109.316 207.877H140.02Z" fill="white" stroke="black" stroke-width="1.21199"/>
<path d="M126.014 151.452L109.277 207.418" stroke="black" stroke-width="1.21199"/>
<path d="M126.012 151.452L125.473 207.473" stroke="black" stroke-width="1.21199"/>
<path d="M126.012 151.452L140.066 207.511" stroke="black" stroke-width="1.21199"/>
<path d="M192.075 207.877C192.075 212.86 185.202 216.9 176.723 216.9C168.245 216.9 161.371 212.86 161.371 207.877H192.075Z" fill="white" stroke="#120B15" stroke-width="1.21199"/>
<path d="M178.068 151.452L161.332 207.418" stroke="#120B15" stroke-width="1.21199"/>
<path d="M178.066 151.452L177.527 207.473" stroke="#120B15" stroke-width="1.21199"/>
<path d="M178.066 151.452L192.12 207.511" stroke="#120B15" stroke-width="1.21199"/>
<path d="M125.418 152.26H178.663" stroke="#120B15" stroke-width="2.45159"/>
<path d="M151.199 130.217L145.543 229.853L151.199 234.045L156.855 230.055L151.199 130.217Z" fill="black" stroke="#120B15" stroke-width="2.42399"/>
<path d="M151.34 233.504L145.156 239.604L151.256 245.788L157.44 239.687L151.34 233.504Z" fill="#120B15" stroke="#120B15" stroke-width="0.807995"/>
<path d="M135.441 221.268C137.735 219.318 142.586 218.137 151.399 218.137C160.212 218.137 165.637 219.555 167.357 221.268" stroke="#120B15" stroke-width="4.03998"/>
<path d="M150.944 263.096C120.132 263.11 97.4317 247.044 97.4317 247.044L91.162 255.047C77.0694 246.417 66.2289 231.335 66.2289 231.335L56.3984 240.267C56.3984 240.267 86.9677 285.908 151.248 286" fill="#FCD116"/>
<path d="M150.944 263.096C120.132 263.11 97.4317 247.044 97.4317 247.044L91.162 255.047C77.0694 246.417 66.2289 231.335 66.2289 231.335L56.3984 240.267C56.3984 240.267 86.9677 285.908 151.248 286" stroke="#120B15" stroke-width="1.21199"/>
<path d="M149.213 263.096C180.026 263.11 202.726 247.044 202.726 247.044L208.996 255.046C223.089 246.417 234.333 231.739 234.333 231.739L243.76 240.267C243.76 240.267 213.191 285.908 148.91 286" fill="#FCD116"/>
<path d="M149.213 263.096C180.026 263.11 202.726 247.044 202.726 247.044L208.996 255.046C223.089 246.417 234.333 231.739 234.333 231.739L243.76 240.267C243.76 240.267 213.191 285.908 148.91 286" stroke="#120B15" stroke-width="1.21199"/>
<path d="M59.9727 241.476L66.6051 235.883L68.9818 238.702C69.5793 239.41 69.9542 239.976 70.1061 240.397C70.2576 240.819 70.2629 241.255 70.1211 241.705C69.9789 242.154 69.7122 242.545 69.3204 242.875C68.8226 243.295 68.2881 243.495 67.7173 243.476C67.1464 243.457 66.5732 243.192 65.9979 242.681C66.0734 243.113 66.0892 243.508 66.0464 243.867C66.0031 244.226 65.8585 244.783 65.6125 245.537L65.0016 247.439L63.6511 245.837L64.2777 243.652C64.5035 242.873 64.6299 242.364 64.6574 242.124C64.6849 241.884 64.6635 241.672 64.594 241.489C64.5241 241.305 64.3597 241.059 64.1003 240.752L63.8712 240.48L61.1026 242.815L59.9727 241.476ZM64.9293 239.588L65.7648 240.578C66.3065 241.221 66.6722 241.599 66.8608 241.713C67.0499 241.827 67.2491 241.874 67.4583 241.852C67.6672 241.831 67.8712 241.736 68.0704 241.569C68.2938 241.38 68.4235 241.169 68.4602 240.934C68.497 240.699 68.4421 240.458 68.295 240.21C68.2187 240.089 67.9516 239.757 67.4939 239.214L66.6124 238.168L64.9293 239.588Z" fill="black"/>
<path d="M66.7617 249.229L72.8193 243.018L77.4244 247.509L76.3995 248.56L73.0483 245.292L71.7054 246.668L74.8235 249.71L73.803 250.756L70.6849 247.715L69.0362 249.405L72.5058 252.79L71.4853 253.836L66.7617 249.229Z" fill="black"/>
<path d="M73.75 255.847L79.2411 249.13L81.4175 250.909C82.242 251.583 82.7523 252.057 82.9478 252.329C83.2504 252.744 83.3934 253.227 83.3769 253.776C83.3603 254.326 83.1341 254.868 82.6969 255.403C82.36 255.815 82.0013 256.101 81.6219 256.259C81.2425 256.417 80.8721 256.483 80.5105 256.455C80.1485 256.427 79.8277 256.341 79.547 256.198C79.1708 255.998 78.6755 255.646 78.0619 255.144L77.1775 254.422L75.1062 256.955L73.75 255.847ZM79.6682 251.375L78.1099 253.281L78.8521 253.888C79.3866 254.325 79.7724 254.582 80.0103 254.659C80.2479 254.736 80.4794 254.742 80.704 254.676C80.9286 254.61 81.1222 254.477 81.2846 254.279C81.4841 254.035 81.5775 253.774 81.5633 253.498C81.5492 253.222 81.449 252.974 81.2615 252.754C81.1246 252.592 80.8119 252.31 80.323 251.911L79.6682 251.375Z" fill="black"/>
<path d="M86.1675 254.661L87.6174 255.644L84.9801 259.533C84.5616 260.151 84.3083 260.563 84.2202 260.77C84.0829 261.106 84.0707 261.442 84.1835 261.778C84.2962 262.115 84.5551 262.42 84.96 262.695C85.3716 262.974 85.7385 263.1 86.0617 263.074C86.3844 263.048 86.6507 262.927 86.8591 262.71C87.0676 262.494 87.3645 262.102 87.75 261.534L90.4438 257.562L91.8934 258.546L89.3356 262.317C88.7511 263.179 88.299 263.761 87.979 264.064C87.6591 264.366 87.3112 264.569 86.9347 264.671C86.5578 264.773 86.1441 264.777 85.6928 264.683C85.2415 264.589 84.7321 264.35 84.1637 263.964C83.4781 263.5 83.0115 263.068 82.7646 262.669C82.5178 262.27 82.3776 261.875 82.3433 261.482C82.3089 261.09 82.3534 260.732 82.4766 260.411C82.6608 259.935 83.0252 259.295 83.5702 258.492L86.1675 254.661Z" fill="black"/>
<path d="M94.1132 259.908L97.1505 261.582C97.7516 261.913 98.1859 262.186 98.4542 262.399C98.722 262.611 98.9289 262.862 99.0743 263.149C99.2198 263.437 99.2977 263.755 99.3074 264.105C99.3171 264.455 99.2315 264.794 99.0509 265.123C98.8549 265.479 98.579 265.753 98.2235 265.944C97.868 266.135 97.485 266.215 97.0749 266.183C97.4636 266.572 97.693 266.999 97.7629 267.46C97.8328 267.922 97.7468 268.373 97.5048 268.811C97.3141 269.157 97.0491 269.448 96.7081 269.687C96.3675 269.925 96.0043 270.065 95.6185 270.107C95.2327 270.149 94.8234 270.08 94.3912 269.9C94.1201 269.787 93.4939 269.464 92.5122 268.932L89.9258 267.506L94.1132 259.908ZM93.285 265.04L92.1655 267.072L93.5856 267.855C94.1383 268.159 94.4978 268.337 94.6635 268.388C94.9143 268.472 95.1559 268.473 95.3878 268.392C95.6197 268.31 95.81 268.134 95.9587 267.865C96.0843 267.637 96.1356 267.413 96.1126 267.193C96.0896 266.973 95.9934 266.769 95.8246 266.581C95.6557 266.393 95.2218 266.107 94.5241 265.723L93.285 265.04ZM94.9503 262.019L93.9823 263.776L94.9879 264.33C95.5854 264.659 95.9619 264.855 96.1162 264.918C96.3958 265.032 96.6527 265.055 96.8855 264.987C97.1186 264.92 97.3028 264.763 97.4381 264.518C97.5678 264.283 97.6078 264.057 97.5593 263.838C97.5104 263.62 97.367 263.425 97.1287 263.253C96.986 263.152 96.5538 262.902 95.8318 262.504L94.9503 262.019Z" fill="black"/>
<path d="M99.0664 272.345L102.555 264.479L104.156 265.19L101.26 271.719L105.242 273.485L104.649 274.821L99.0664 272.345Z" fill="black"/>
<path d="M107.227 275.787L110.248 267.655L111.89 268.265L108.868 276.397L107.227 275.787Z" fill="black"/>
<path d="M118.897 278.422C119.223 278.839 119.602 279.205 120.035 279.522L119.067 280.526C118.836 280.376 118.619 280.199 118.416 279.996C118.371 279.954 118.07 279.598 117.514 278.928C116.9 279.006 116.26 278.948 115.598 278.753C114.319 278.376 113.428 277.705 112.924 276.739C112.421 275.773 112.37 274.608 112.771 273.246C113.17 271.887 113.845 270.937 114.794 270.395C115.743 269.854 116.839 269.766 118.084 270.133C119.318 270.496 120.186 271.161 120.687 272.129C121.188 273.097 121.238 274.26 120.838 275.619C120.627 276.338 120.34 276.94 119.98 277.427C119.705 277.798 119.345 278.13 118.897 278.422ZM117.824 277.076C118.115 276.886 118.366 276.628 118.58 276.299C118.794 275.971 118.969 275.575 119.106 275.109C119.389 274.148 119.388 273.367 119.104 272.768C118.82 272.168 118.335 271.767 117.65 271.566C116.965 271.364 116.34 271.439 115.773 271.791C115.207 272.143 114.783 272.798 114.502 273.755C114.216 274.727 114.215 275.518 114.499 276.126C114.783 276.733 115.25 277.133 115.901 277.325C116.143 277.396 116.384 277.423 116.623 277.408C116.348 277.084 116.053 276.808 115.738 276.579L116.491 275.759C116.988 276.111 117.432 276.55 117.824 277.076Z" fill="black"/>
<path d="M124.142 271.932L125.86 272.271L124.949 276.881C124.805 277.613 124.732 278.091 124.732 278.316C124.737 278.679 124.856 278.993 125.092 279.259C125.327 279.524 125.684 279.705 126.164 279.799C126.652 279.896 127.039 279.869 127.326 279.719C127.613 279.568 127.81 279.353 127.918 279.072C128.026 278.792 128.146 278.315 128.279 277.642L129.21 272.934L130.928 273.273L130.045 277.743C129.843 278.765 129.654 279.478 129.478 279.881C129.302 280.285 129.06 280.607 128.753 280.848C128.446 281.089 128.067 281.254 127.614 281.344C127.162 281.434 126.6 281.412 125.926 281.279C125.113 281.119 124.515 280.902 124.133 280.632C123.75 280.361 123.466 280.052 123.282 279.703C123.097 279.356 122.998 279.009 122.986 278.665C122.97 278.155 123.057 277.424 123.245 276.472L124.142 271.932Z" fill="black"/>
<path d="M132.598 282.292L133.581 273.672L139.973 274.402L139.806 275.86L135.155 275.329L134.937 277.24L139.264 277.734L139.099 279.186L134.771 278.692L134.503 281.039L139.319 281.588L139.153 283.04L132.598 282.292Z" fill="black"/>
<path d="M147.202 274.768L150.403 274.805C151.125 274.813 151.674 274.875 152.053 274.99C152.56 275.146 152.992 275.417 153.351 275.804C153.71 276.191 153.98 276.663 154.163 277.219C154.346 277.776 154.433 278.46 154.424 279.273C154.415 279.987 154.319 280.601 154.136 281.116C153.912 281.745 153.596 282.252 153.189 282.638C152.882 282.931 152.469 283.156 151.95 283.316C151.562 283.434 151.045 283.489 150.398 283.482L147.102 283.444L147.202 274.768ZM148.936 276.256L148.869 282.002L150.177 282.017C150.666 282.023 151.02 281.999 151.238 281.946C151.523 281.879 151.76 281.761 151.949 281.594C152.139 281.426 152.295 281.149 152.417 280.762C152.54 280.374 152.606 279.845 152.613 279.175C152.621 278.504 152.568 277.988 152.453 277.628C152.339 277.268 152.177 276.986 151.966 276.782C151.756 276.578 151.486 276.439 151.16 276.364C150.916 276.306 150.437 276.273 149.723 276.265L148.936 276.256Z" fill="black"/>
<path d="M156.684 274.708L158.429 274.564L158.817 279.246C158.879 279.99 158.94 280.469 159.001 280.686C159.106 281.033 159.307 281.303 159.606 281.494C159.904 281.685 160.298 281.76 160.785 281.72C161.281 281.679 161.646 281.547 161.881 281.324C162.116 281.1 162.246 280.839 162.273 280.54C162.3 280.241 162.285 279.749 162.228 279.065L161.833 274.282L163.579 274.138L163.954 278.679C164.04 279.717 164.054 280.455 163.995 280.891C163.936 281.327 163.792 281.703 163.563 282.019C163.334 282.335 163.015 282.598 162.604 282.808C162.194 283.018 161.647 283.152 160.963 283.208C160.137 283.277 159.503 283.233 159.06 283.078C158.618 282.922 158.261 282.703 157.988 282.419C157.715 282.134 157.525 281.828 157.419 281.501C157.264 281.015 157.146 280.288 157.066 279.321L156.684 274.708Z" fill="black"/>
<path d="M177.274 277.282L179.049 277.449C178.994 278.43 178.72 279.208 178.225 279.785C177.73 280.363 177.028 280.75 176.118 280.947C174.992 281.191 173.983 281.006 173.092 280.394C172.2 279.781 171.611 278.808 171.322 277.474C171.016 276.062 171.144 274.887 171.704 273.948C172.263 273.01 173.137 272.412 174.325 272.156C175.362 271.931 176.271 272.055 177.051 272.528C177.515 272.807 177.917 273.265 178.256 273.902L176.649 274.674C176.454 274.256 176.169 273.954 175.796 273.768C175.423 273.583 175.009 273.539 174.554 273.638C173.926 273.774 173.465 274.11 173.171 274.645C172.877 275.181 172.84 275.954 173.058 276.965C173.29 278.037 173.648 278.758 174.132 279.13C174.616 279.501 175.167 279.621 175.784 279.487C176.238 279.389 176.599 279.159 176.864 278.799C177.129 278.439 177.266 277.934 177.274 277.282Z" fill="black"/>
<path d="M190.026 276.896L188.209 277.468L186.895 275.816L183.587 276.857L183.495 278.953L181.723 279.511L182.34 270.221L184.107 269.664L190.026 276.896ZM185.919 274.591L183.812 271.879L183.661 275.302L185.919 274.591Z" fill="black"/>
<path d="M192.338 276.035L188.926 268.058L191.336 267.027L195.111 271.85L194.215 265.797L196.63 264.763L200.042 272.74L198.546 273.38L195.86 267.101L196.963 274.057L195.412 274.721L191.148 269.116L193.834 275.396L192.338 276.035Z" fill="black"/>
<path d="M202.983 271.256L198.824 263.642L204.47 260.558L205.173 261.846L201.065 264.09L201.987 265.779L205.809 263.69L206.51 264.973L202.688 267.061L203.82 269.134L208.073 266.81L208.773 268.093L202.983 271.256Z" fill="black"/>
<path d="M211.382 266.517L206.566 259.301L209.633 257.254C210.404 256.74 211.008 256.431 211.443 256.327C211.879 256.223 212.313 256.267 212.744 256.458C213.176 256.649 213.533 256.958 213.818 257.385C214.18 257.926 214.319 258.48 214.236 259.045C214.153 259.61 213.825 260.15 213.253 260.664C213.691 260.638 214.086 260.666 214.438 260.749C214.79 260.832 215.327 261.038 216.049 261.367L217.87 262.186L216.127 263.349L214.026 262.482C213.278 262.171 212.786 261.988 212.55 261.935C212.315 261.88 212.102 261.878 211.912 261.927C211.721 261.975 211.459 262.112 211.125 262.335L210.829 262.532L212.84 265.544L211.382 266.517ZM210.06 261.38L211.138 260.66C211.837 260.194 212.254 259.873 212.388 259.698C212.523 259.523 212.592 259.33 212.594 259.12C212.596 258.91 212.524 258.697 212.38 258.48C212.218 258.237 212.022 258.084 211.793 258.021C211.564 257.958 211.318 257.986 211.055 258.105C210.926 258.167 210.566 258.396 209.976 258.789L208.839 259.549L210.06 261.38Z" fill="black"/>
<path d="M216.89 257.579C216.333 256.893 215.968 256.233 215.796 255.601C215.67 255.134 215.63 254.656 215.673 254.168C215.717 253.68 215.843 253.243 216.052 252.855C216.328 252.337 216.739 251.855 217.288 251.41C218.281 250.605 219.324 250.268 220.42 250.4C221.516 250.532 222.508 251.147 223.398 252.243C224.281 253.331 224.676 254.422 224.583 255.516C224.49 256.61 223.949 257.559 222.96 258.362C221.958 259.174 220.913 259.515 219.826 259.384C218.738 259.252 217.76 258.651 216.89 257.579ZM218.254 256.396C218.873 257.158 219.518 257.594 220.19 257.701C220.862 257.809 221.469 257.643 222.011 257.203C222.554 256.763 222.84 256.207 222.871 255.534C222.901 254.861 222.6 254.134 221.966 253.353C221.34 252.581 220.703 252.142 220.056 252.037C219.409 251.932 218.805 252.107 218.245 252.562C217.684 253.017 217.389 253.576 217.357 254.239C217.327 254.902 217.625 255.62 218.254 256.396Z" fill="black"/>
<path d="M222.211 247.442L223.463 246.216L226.75 249.574C227.272 250.106 227.626 250.437 227.811 250.564C228.113 250.765 228.44 250.844 228.792 250.8C229.144 250.756 229.495 250.563 229.844 250.221C230.2 249.873 230.396 249.538 230.435 249.216C230.473 248.895 230.407 248.61 230.236 248.363C230.066 248.116 229.741 247.747 229.26 247.256L225.902 243.828L227.154 242.602L230.342 245.858C231.071 246.602 231.552 247.161 231.785 247.534C232.018 247.908 232.147 248.289 232.173 248.679C232.198 249.068 232.12 249.475 231.938 249.898C231.757 250.322 231.421 250.774 230.93 251.254C230.338 251.834 229.823 252.205 229.383 252.368C228.943 252.53 228.527 252.59 228.136 252.545C227.744 252.501 227.403 252.386 227.112 252.201C226.683 251.926 226.128 251.442 225.449 250.748L222.211 247.442Z" fill="black"/>
<path d="M235.558 246.302L228.922 240.714L230.02 239.41L236.739 240.426L232.307 236.694L233.356 235.449L239.992 241.038L238.859 242.382L232.279 241.413L236.607 245.058L235.558 246.302Z" fill="black"/>
<path d="M94.4844 255.14L97.6501 250.3L99.7961 251.703C100.228 251.985 100.527 252.244 100.695 252.478C100.863 252.711 100.941 252.982 100.932 253.29C100.922 253.598 100.83 253.885 100.656 254.152C100.431 254.495 100.131 254.712 99.7545 254.802C99.378 254.892 98.9368 254.817 98.4306 254.577C98.547 254.769 98.6229 254.934 98.6593 255.071C98.734 255.365 98.7708 255.695 98.7696 256.062L98.7498 257.93L97.9442 257.403L97.9624 255.977C97.9652 255.565 97.9567 255.242 97.9365 255.008C97.9163 254.775 97.8784 254.596 97.823 254.472C97.7677 254.348 97.6982 254.241 97.615 254.152C97.5523 254.089 97.4384 254.004 97.2736 253.896L96.5306 253.41L95.1247 255.559L94.4844 255.14ZM96.8934 252.855L98.2702 253.755C98.5631 253.947 98.8116 254.067 99.0164 254.114C99.2212 254.161 99.4099 254.147 99.5828 254.07C99.7557 253.993 99.8935 253.876 99.9957 253.72C100.146 253.491 100.185 253.248 100.116 252.992C100.046 252.736 99.8317 252.491 99.4729 252.256L97.941 251.254L96.8934 252.855Z" fill="black"/>
<path d="M100.102 258.706L102.888 253.637L106.553 255.652L106.224 256.25L103.23 254.604L102.376 256.156L105.18 257.698L104.853 258.292L102.05 256.751L101.101 258.476L104.213 260.187L103.884 260.785L100.102 258.706Z" fill="black"/>
<path d="M105.555 261.618L107.965 256.36L109.948 257.269C110.297 257.429 110.556 257.568 110.725 257.686C110.963 257.847 111.142 258.029 111.261 258.23C111.38 258.43 111.443 258.664 111.45 258.93C111.456 259.196 111.4 259.46 111.281 259.72C111.076 260.167 110.76 260.481 110.334 260.66C109.907 260.839 109.322 260.758 108.579 260.417L107.23 259.799L106.25 261.937L105.555 261.618ZM107.514 259.179L108.874 259.802C109.324 260.008 109.681 260.071 109.947 259.99C110.212 259.909 110.414 259.717 110.554 259.413C110.655 259.193 110.685 258.979 110.646 258.772C110.606 258.564 110.507 258.393 110.349 258.26C110.246 258.175 110.037 258.06 109.721 257.915L108.376 257.299L107.514 259.179Z" fill="black"/>
<path d="M116.791 260.04L117.509 260.307L116.344 263.439C116.142 263.984 115.919 264.394 115.677 264.668C115.434 264.943 115.115 265.121 114.719 265.202C114.322 265.283 113.862 265.227 113.34 265.033C112.832 264.844 112.449 264.602 112.192 264.307C111.934 264.012 111.797 263.673 111.783 263.29C111.768 262.907 111.867 262.428 112.081 261.853L113.246 258.721L113.963 258.988L112.8 262.116C112.625 262.587 112.539 262.95 112.544 263.206C112.549 263.462 112.635 263.69 112.804 263.89C112.972 264.09 113.21 264.247 113.519 264.361C114.046 264.557 114.466 264.578 114.78 264.422C115.093 264.266 115.377 263.848 115.63 263.168L116.791 260.04Z" fill="black"/>
<path d="M117.438 266.366L119.062 260.815L121.145 261.425C121.569 261.549 121.892 261.704 122.116 261.892C122.339 262.079 122.489 262.311 122.566 262.586C122.643 262.863 122.644 263.128 122.569 263.383C122.5 263.62 122.37 263.825 122.18 263.997C121.99 264.169 121.746 264.281 121.448 264.334C121.755 264.53 121.964 264.774 122.075 265.064C122.186 265.354 122.195 265.661 122.1 265.984C122.024 266.244 121.898 266.469 121.723 266.661C121.548 266.852 121.362 266.985 121.165 267.058C120.968 267.132 120.738 267.165 120.477 267.155C120.215 267.146 119.908 267.089 119.554 266.986L117.438 266.366ZM118.364 265.926L119.746 266.331C119.983 266.4 120.152 266.44 120.253 266.45C120.431 266.47 120.587 266.46 120.722 266.423C120.856 266.386 120.98 266.311 121.092 266.197C121.205 266.083 121.287 265.938 121.339 265.761C121.4 265.554 121.399 265.359 121.338 265.175C121.276 264.991 121.161 264.841 120.991 264.724C120.821 264.607 120.559 264.497 120.206 264.394L118.923 264.018L118.364 265.926ZM119.114 263.363L120.314 263.714C120.64 263.809 120.879 263.856 121.033 263.855C121.236 263.854 121.404 263.803 121.536 263.702C121.669 263.601 121.764 263.453 121.82 263.258C121.874 263.074 121.878 262.899 121.83 262.733C121.783 262.567 121.685 262.434 121.536 262.334C121.387 262.235 121.113 262.126 120.714 262.01L119.605 261.685L119.114 263.363Z" fill="black"/>
<path d="M123.41 268.034L124.692 262.395L125.438 262.564L124.308 267.538L127.085 268.17L126.934 268.835L123.41 268.034Z" fill="black"/>
<path d="M128.75 269.172L129.789 263.483L130.543 263.62L129.503 269.31L128.75 269.172Z" fill="black"/>
<path d="M135.988 268.229L136.721 268.522C136.479 269.124 136.129 269.56 135.672 269.832C135.215 270.104 134.688 270.2 134.091 270.12C133.473 270.038 132.988 269.844 132.634 269.541C132.281 269.237 132.035 268.834 131.897 268.33C131.759 267.825 131.727 267.3 131.8 266.752C131.88 266.155 132.064 265.65 132.351 265.236C132.639 264.822 133.008 264.528 133.461 264.353C133.912 264.179 134.391 264.126 134.897 264.193C135.47 264.27 135.933 264.481 136.285 264.825C136.637 265.169 136.855 265.617 136.938 266.166L136.167 266.242C136.09 265.807 135.938 265.477 135.711 265.253C135.483 265.029 135.178 264.891 134.795 264.84C134.354 264.781 133.972 264.838 133.648 265.009C133.324 265.181 133.078 265.436 132.91 265.776C132.743 266.116 132.634 266.475 132.583 266.853C132.518 267.34 132.532 267.775 132.625 268.158C132.718 268.54 132.903 268.842 133.179 269.062C133.455 269.282 133.767 269.415 134.116 269.462C134.541 269.519 134.917 269.445 135.245 269.239C135.571 269.034 135.82 268.697 135.988 268.229Z" fill="black"/>
<path d="M141.156 267.927C141.197 266.968 141.486 266.228 142.025 265.707C142.563 265.186 143.239 264.944 144.054 264.978C144.587 265.001 145.063 265.149 145.48 265.422C145.898 265.696 146.209 266.065 146.414 266.531C146.62 266.996 146.71 267.518 146.685 268.096C146.66 268.682 146.519 269.201 146.263 269.653C146.007 270.106 145.657 270.442 145.213 270.661C144.769 270.88 144.297 270.979 143.795 270.958C143.251 270.934 142.77 270.782 142.353 270.501C141.936 270.22 141.627 269.847 141.426 269.383C141.224 268.919 141.134 268.434 141.156 267.927ZM141.943 267.972C141.913 268.668 142.077 269.225 142.435 269.642C142.792 270.059 143.253 270.279 143.818 270.303C144.393 270.328 144.876 270.146 145.265 269.757C145.654 269.368 145.865 268.802 145.896 268.058C145.917 267.588 145.854 267.174 145.711 266.817C145.567 266.459 145.346 266.177 145.048 265.971C144.749 265.764 144.41 265.653 144.029 265.637C143.488 265.613 143.014 265.78 142.608 266.135C142.202 266.489 141.98 267.103 141.943 267.972Z" fill="black"/>
<path d="M148.394 271.006L148.246 265.224L152.147 265.124L152.164 265.806L149.029 265.886L149.074 267.677L151.788 267.607L151.805 268.289L149.092 268.359L149.16 270.986L148.394 271.006Z" fill="black"/>
<path d="M161.095 268.358L161.874 268.486C161.767 269.126 161.519 269.628 161.131 269.992C160.743 270.355 160.249 270.562 159.649 270.612C159.028 270.664 158.512 270.58 158.101 270.36C157.691 270.139 157.365 269.797 157.121 269.335C156.878 268.872 156.733 268.366 156.687 267.815C156.637 267.215 156.708 266.682 156.9 266.216C157.092 265.75 157.39 265.383 157.794 265.116C158.198 264.848 158.654 264.693 159.163 264.651C159.739 264.603 160.236 264.709 160.654 264.97C161.072 265.231 161.38 265.62 161.579 266.14L160.843 266.38C160.674 265.971 160.455 265.682 160.184 265.512C159.914 265.343 159.587 265.273 159.201 265.305C158.758 265.342 158.397 265.479 158.117 265.717C157.837 265.954 157.652 266.256 157.561 266.624C157.47 266.992 157.441 267.366 157.473 267.746C157.514 268.236 157.621 268.658 157.794 269.012C157.968 269.366 158.213 269.62 158.529 269.776C158.846 269.932 159.179 269.995 159.531 269.965C159.958 269.93 160.309 269.776 160.585 269.505C160.861 269.234 161.031 268.851 161.095 268.358Z" fill="black"/>
<path d="M163.125 270.197L164.527 264.162L165.344 264.048L168.486 269.45L167.622 269.57L166.713 267.929L164.317 268.262L163.93 270.085L163.125 270.197ZM164.45 267.614L166.393 267.343L165.574 265.84C165.324 265.384 165.134 265.007 165.002 264.709C164.98 265.087 164.928 265.465 164.846 265.846L164.45 267.614Z" fill="black"/>
<path d="M169.873 269.217L168.715 263.551L169.844 263.32L172.005 267.058C172.205 267.406 172.352 267.668 172.447 267.842C172.47 267.622 172.508 267.299 172.563 266.872L173.114 262.652L174.123 262.445L175.281 268.112L174.558 268.26L173.589 263.517L172.912 268.596L172.235 268.734L169.61 264.246L170.596 269.069L169.873 269.217Z" fill="black"/>
<path d="M177.272 267.612L175.734 262.036L179.766 260.925L179.947 261.583L176.654 262.491L177.125 264.199L180.209 263.349L180.389 264.003L177.305 264.853L177.828 266.751L181.251 265.807L181.432 266.465L177.272 267.612Z" fill="black"/>
<path d="M183.238 265.905L181.332 260.444L183.753 259.599C184.24 259.429 184.627 259.349 184.915 259.358C185.202 259.368 185.465 259.47 185.703 259.666C185.941 259.862 186.113 260.11 186.218 260.41C186.353 260.798 186.342 261.168 186.183 261.521C186.025 261.874 185.697 262.178 185.198 262.433C185.421 262.459 185.598 262.498 185.729 262.553C186.007 262.673 186.292 262.846 186.582 263.07L188.051 264.225L187.142 264.542L186.022 263.658C185.696 263.404 185.435 263.214 185.238 263.087C185.041 262.961 184.876 262.882 184.744 262.85C184.612 262.819 184.484 262.808 184.364 262.82C184.276 262.831 184.138 262.87 183.952 262.934L183.114 263.227L183.96 265.652L183.238 265.905ZM182.896 262.602L184.449 262.06C184.779 261.944 185.026 261.82 185.188 261.687C185.351 261.553 185.454 261.395 185.499 261.21C185.543 261.027 185.535 260.846 185.473 260.67C185.383 260.411 185.215 260.232 184.97 260.131C184.724 260.03 184.399 260.051 183.994 260.192L182.266 260.794L182.896 262.602Z" fill="black"/>
<path d="M188.141 261.167C187.758 260.287 187.695 259.495 187.951 258.791C188.206 258.087 188.708 257.572 189.456 257.247C189.945 257.034 190.438 256.959 190.932 257.022C191.427 257.084 191.869 257.28 192.257 257.609C192.645 257.937 192.955 258.367 193.186 258.898C193.42 259.435 193.521 259.964 193.489 260.483C193.457 261.002 193.289 261.457 192.986 261.848C192.683 262.24 192.302 262.536 191.841 262.736C191.342 262.953 190.843 263.027 190.345 262.957C189.847 262.887 189.406 262.687 189.022 262.359C188.637 262.03 188.344 261.633 188.141 261.167ZM188.87 260.863C189.148 261.502 189.539 261.931 190.042 262.149C190.546 262.367 191.057 262.363 191.576 262.138C192.104 261.908 192.458 261.533 192.637 261.013C192.817 260.493 192.759 259.892 192.461 259.209C192.273 258.778 192.036 258.433 191.75 258.174C191.464 257.915 191.142 257.759 190.784 257.704C190.425 257.649 190.072 257.697 189.722 257.85C189.225 258.066 188.872 258.422 188.662 258.919C188.453 259.417 188.522 260.065 188.87 260.863Z" fill="black"/>
<path d="M194.413 258.379C193.96 257.532 193.834 256.748 194.032 256.026C194.231 255.304 194.691 254.751 195.409 254.367C195.88 254.115 196.365 254.001 196.864 254.024C197.362 254.047 197.817 254.207 198.231 254.504C198.644 254.8 198.987 255.203 199.261 255.714C199.537 256.231 199.679 256.749 199.689 257.27C199.699 257.79 199.568 258.257 199.297 258.671C199.027 259.086 198.669 259.411 198.227 259.648C197.747 259.905 197.256 260.018 196.753 259.988C196.252 259.958 195.796 259.794 195.386 259.497C194.977 259.199 194.652 258.827 194.413 258.379ZM195.115 258.018C195.443 258.632 195.867 259.028 196.386 259.205C196.906 259.382 197.415 259.338 197.914 259.071C198.422 258.8 198.745 258.398 198.882 257.865C199.019 257.333 198.913 256.738 198.562 256.082C198.34 255.667 198.076 255.341 197.771 255.107C197.464 254.872 197.131 254.742 196.769 254.715C196.408 254.689 196.059 254.766 195.723 254.946C195.245 255.201 194.922 255.585 194.752 256.097C194.584 256.61 194.704 257.25 195.115 258.018Z" fill="black"/>
<path d="M202.151 257.337L199.027 252.469L199.688 252.044L204.697 254.226L202.245 250.404L202.863 250.008L205.986 254.876L205.325 255.3L200.314 253.115L202.768 256.94L202.151 257.337Z" fill="black"/>
<path d="M32.3945 45.6674C32.8139 45.2351 33.3896 44.7055 34.1863 44.1181C35.1656 43.3961 36.0499 43.0952 36.8074 43.1691C37.497 43.2228 38.1592 43.5957 38.6626 44.2789C39.1748 44.9733 39.3724 45.6706 39.2787 46.3542C39.1667 47.2979 38.5228 48.2118 37.5552 48.9253C37.2595 49.1434 36.9775 49.3337 36.7076 49.4444L38.9736 52.5176L37.9834 53.248L32.3945 45.6674ZM36.1121 48.6364C36.3707 48.5342 36.6603 48.3552 36.9904 48.112C38.1858 47.2309 38.486 46.113 37.7059 45.0546C36.9589 44.0417 35.8806 44.0813 34.7882 44.8869C34.3559 45.2056 34.0509 45.4832 33.9136 45.6545L36.1121 48.6364Z" fill="black"/>
<path d="M42.5406 46.1608L43.5231 49.1613L42.499 49.9168L39.4492 40.3239L40.6442 39.4427L48.9181 45.1836L47.8596 45.9641L45.2611 44.1554L42.5406 46.1608ZM44.4855 43.532L42.1059 41.8776C41.5658 41.5031 41.1161 41.1311 40.6754 40.7715L40.6523 40.7885C40.8741 41.3274 41.0931 41.8865 41.289 42.4622L42.1746 45.2357L44.4855 43.532Z" fill="black"/>
<path d="M45.3808 35.9514L51.0372 43.6225L50.0474 44.353L44.3906 36.6818L45.3808 35.9514Z" fill="black"/>
<path d="M56.9706 39.2507L54.7409 38.2767C53.8642 37.9216 53.3031 37.6852 52.7367 37.4174L52.7141 37.4344C52.8247 38.0379 52.9108 38.6068 53.0082 39.5723L53.3281 41.9365L52.1901 42.776L51.6734 37.1661L46.625 35.0374L47.7748 34.1898L50.1135 35.2411C50.7672 35.5319 51.269 35.7594 51.776 36.0183L51.8099 35.9933C51.6903 35.3784 51.6237 34.8827 51.5473 34.1838L51.269 31.6136L52.4074 30.774L52.8264 36.2276L58.1203 38.4035L56.9706 39.2507Z" fill="black"/>
<path d="M40.6328 57.9971C40.9322 57.6885 41.3434 57.3103 41.9127 56.891C42.6112 56.3755 43.243 56.1601 43.784 56.2135C44.2765 56.2519 44.7487 56.5181 45.1083 57.0057C45.4735 57.5014 45.6149 57.9996 45.5487 58.4876C45.4683 59.1614 45.0089 59.8139 44.3177 60.3229C44.1064 60.4789 43.9052 60.6146 43.7133 60.6938L45.3309 62.8883L44.6239 63.4099L40.6328 57.9971ZM43.2875 60.1169C43.4717 60.0438 43.679 59.9161 43.9145 59.7424C44.7681 59.113 44.9831 58.3151 44.4251 57.5596C43.8923 56.836 43.1222 56.8643 42.3421 57.4396C42.0335 57.6671 41.8157 57.8654 41.718 57.9878L43.2875 60.1169Z" fill="black"/>
<path d="M49.8923 55.5613L47.7628 57.1312L49.2188 59.106L51.5919 57.3563L52.029 57.9497L48.9493 60.221L44.9102 54.7432L47.8682 52.562L48.3058 53.1551L46.0551 54.8147L47.3309 56.5458L49.4604 54.9759L49.8923 55.5613Z" fill="black"/>
<path d="M52.5637 54.896L53.2651 57.0384L52.5334 57.5777L50.3555 50.7275L51.2087 50.0985L57.1168 54.1979L56.3609 54.755L54.5057 53.4634L52.5637 54.896ZM53.9527 53.019L52.2539 51.8377C51.868 51.5699 51.5469 51.3048 51.2321 51.0479L51.216 51.0596C51.3748 51.4446 51.5303 51.8438 51.6709 52.2546L52.3027 54.235L53.9527 53.019Z" fill="black"/>
<path d="M61.4989 50.6924C61.3349 51.0144 60.9167 51.536 60.2497 52.0272C58.7057 53.1657 56.8186 53.0393 55.4943 51.2435C54.2302 49.5285 54.5356 47.5093 56.234 46.2573C56.9168 45.754 57.4549 45.5827 57.7138 45.5419L57.9688 46.2448C57.6052 46.3127 57.1507 46.4969 56.6958 46.8326C55.4115 47.7792 55.1638 49.2296 56.2243 50.6678C57.2129 52.0087 58.6204 52.3008 59.9532 51.3182C60.3835 51.0007 60.7563 50.5878 60.939 50.24L61.4989 50.6924Z" fill="black"/>
<path d="M63.4622 45.5576L61.3327 47.1276L62.7887 49.1023L65.1618 47.3526L65.5993 47.9461L62.5192 50.2173L58.4805 44.7395L61.4385 42.5583L61.8761 43.1514L59.625 44.811L60.9008 46.5422L63.0303 44.9722L63.4622 45.5576Z" fill="black"/>
<path d="M236.954 23.9326C237.491 24.2057 238.167 24.5992 238.963 25.187C239.942 25.9098 240.49 26.6665 240.643 27.4122C240.795 28.0869 240.634 28.8291 240.129 29.5118C239.617 30.2055 239.009 30.6002 238.328 30.7129C237.393 30.8842 236.33 30.5384 235.363 29.8245C235.068 29.606 234.803 29.393 234.617 29.168L232.349 32.24L231.359 31.5088L236.954 23.9326ZM235.214 28.3604C235.388 28.577 235.645 28.8012 235.975 29.0448C237.169 29.9271 238.325 29.8843 239.106 28.8262C239.855 27.8138 239.499 26.7953 238.407 25.989C237.974 25.6702 237.619 25.4601 237.415 25.3797L235.214 28.3604Z" fill="black"/>
<path d="M239.476 33.7756L236.899 35.5996L235.875 34.8437L244.142 29.1001L245.336 29.982L242.291 39.5814L241.233 38.8001L242.195 35.7834L239.476 33.7756ZM242.561 34.8583L243.44 32.097C243.639 31.4704 243.861 30.9314 244.075 30.4042L244.052 30.3868C243.602 30.7577 243.133 31.1322 242.64 31.4893L240.251 33.1534L242.561 34.8583Z" fill="black"/>
<path d="M249.04 34.0152L246.709 32.2933L247.33 31.4514L253.007 35.6433L252.385 36.4848L250.042 34.7545L245.001 41.5804L244 40.8411L249.04 34.0152Z" fill="black"/>
<path d="M253.781 36.3749C254.358 36.6423 255.117 37.1142 255.799 37.6184C256.857 38.3997 257.396 39.097 257.556 39.8824C257.69 40.5098 257.52 41.1921 257.083 41.784C256.335 42.7964 255.203 42.9968 254.193 42.6732L254.168 42.7075C254.608 43.3495 254.558 44.1559 254.151 45.0863C253.613 46.3407 253.248 47.2145 253.189 47.6278L252.165 46.872C252.208 46.552 252.516 45.7775 253.006 44.6621C253.56 43.4364 253.444 42.7354 252.571 42.0377L251.638 41.3489L249.185 44.671L248.195 43.9397L253.781 36.3749ZM252.192 40.5983L253.204 41.3465C254.263 42.1278 255.362 42.0434 256.009 41.1675C256.74 40.1777 256.342 39.2158 255.304 38.432C254.826 38.0793 254.452 37.8725 254.259 37.8006L252.192 40.5983Z" fill="black"/>
<path d="M260.968 41.523L255.306 49.1901L254.316 48.4589L259.978 40.7914L260.968 41.523Z" fill="black"/>
<path d="M263.664 49.8037L260.684 47.6027L258.642 50.3673L261.964 52.82L261.351 53.651L257.039 50.4667L262.701 42.7992L266.842 45.8571L266.228 46.6873L263.078 44.3602L261.288 46.7834L264.269 48.984L263.664 49.8037Z" fill="black"/>
<path d="M221.124 30.5541L224.073 32.7312L223.635 33.3247L221.393 31.6691L220.05 33.4883L222.121 35.0178L221.689 35.6024L219.618 34.0733L217.789 36.551L217.082 36.0286L221.124 30.5541Z" fill="black"/>
<path d="M222.56 37.4144L220.72 38.7173L219.988 38.1772L225.891 34.0762L226.744 34.706L224.569 41.5606L223.814 41.0027L224.501 38.8486L222.56 37.4144ZM224.763 38.1877L225.391 36.2161C225.533 35.7689 225.692 35.3835 225.844 35.007L225.828 34.9953C225.507 35.2603 225.172 35.5269 224.82 35.7819L223.114 36.97L224.763 38.1877Z" fill="black"/>
<path d="M229.392 37.5868L227.727 36.357L228.171 35.7559L232.224 38.7491L231.781 39.3502L230.107 38.1144L226.508 42.9878L225.793 42.4598L229.392 37.5868Z" fill="black"/>
<path d="M233.538 39.7216L231.847 42.0123L234.495 43.9681L236.187 41.6774L236.902 42.205L232.859 47.6804L232.144 47.1524L234.039 44.5854L231.391 42.63L229.496 45.197L228.789 44.6746L232.832 39.2001L233.538 39.7216Z" fill="black"/>
<path d="M238.817 48.1131L236.688 46.5411L235.231 48.5151L237.603 50.2664L237.165 50.8599L234.086 48.5866L238.129 43.1112L241.086 45.2948L240.648 45.8879L238.398 44.2262L237.12 45.9566L239.249 47.5285L238.817 48.1131Z" fill="black"/>
<path d="M242.072 46.1362C242.483 46.3273 243.025 46.6643 243.512 47.0242C244.268 47.5817 244.653 48.0799 244.766 48.6406C244.862 49.0878 244.74 49.5755 244.428 49.998C243.895 50.7212 243.086 50.8646 242.365 50.6335L242.347 50.6582C242.662 51.1159 242.625 51.692 242.336 52.3562C241.951 53.2518 241.691 53.876 241.649 54.1709L240.917 53.6312C240.948 53.4025 241.168 52.8495 241.518 52.0532C241.913 51.1781 241.83 50.678 241.207 50.1794L240.541 49.6874L238.789 52.0592L238.082 51.5377L242.072 46.1362ZM240.937 49.1521L241.659 49.6853C242.415 50.2433 243.2 50.1831 243.662 49.5577C244.184 48.8511 243.9 48.1643 243.159 47.6048C242.818 47.3527 242.55 47.2052 242.412 47.1539L240.937 49.1521Z" fill="black"/>
<path d="M246.5 49.2911L247.206 49.8131L243.602 54.6946L245.941 56.4221L245.503 57.0152L242.457 54.7661L246.5 49.2911Z" fill="black"/>
<path d="M248.451 56.5296L246.61 57.832L245.879 57.2923L251.782 53.1909L252.634 53.8207L250.46 60.6754L249.704 60.1175L250.391 57.9633L248.451 56.5296ZM250.653 57.3028L251.281 55.3309C251.423 54.8841 251.582 54.4987 251.734 54.1217L251.718 54.11C251.397 54.375 251.062 54.6417 250.71 54.897L249.005 56.0848L250.653 57.3028Z" fill="black"/>
<path d="M251.262 61.2696L255.305 55.7942L256.076 56.3642L255.785 60.4297C255.718 61.371 255.608 62.1818 255.454 62.934L255.477 62.9381C255.952 62.1592 256.428 61.4813 257.057 60.628L258.749 58.3374L259.415 58.8294L255.372 64.3044L254.657 63.7764L254.97 59.7146C255.038 58.8238 255.134 57.9281 255.296 57.131L255.266 57.1209C254.797 57.8412 254.327 58.5115 253.655 59.4209L251.928 61.7604L251.262 61.2696Z" fill="black"/>
<path d="M260.598 59.8157C261.077 60.069 261.625 60.3978 262.185 60.8115C263.201 61.5613 263.75 62.3314 263.899 63.1317C264.056 63.9385 263.873 64.7816 263.219 65.6672C262.559 66.5604 261.743 67.0876 260.859 67.2133C259.969 67.347 258.921 66.9996 257.857 66.2138C257.353 65.8413 256.949 65.5052 256.621 65.2006L260.598 59.8157ZM257.73 65.1787C257.885 65.3432 258.139 65.5432 258.415 65.7468C259.925 66.8626 261.37 66.6234 262.462 65.1456C263.423 63.8601 263.298 62.4998 261.804 61.3961C261.438 61.1262 261.138 60.9549 260.921 60.8576L257.73 65.1787Z" fill="black"/>
<path d="M129.477 14.1174H126.578V13.071H133.635V14.1174H130.722V22.6022H129.477V14.1174Z" fill="black"/>
<path d="M134.695 13.198C135.317 13.0707 136.209 13 137.057 13C138.372 13 139.22 13.2404 139.815 13.7777C140.296 14.2019 140.564 14.8523 140.564 15.5876C140.564 16.8461 139.772 17.6807 138.768 18.0201V18.0625C139.503 18.317 139.942 18.9961 140.168 19.9859C140.479 21.3151 140.705 22.2342 140.903 22.6022H139.631C139.475 22.3194 139.263 21.5134 138.994 20.3253C138.711 19.0103 138.202 18.5154 137.085 18.473H135.925V22.6022H134.695V13.198ZM135.926 17.5393H137.184C138.499 17.5393 139.334 16.8182 139.334 15.7294C139.334 14.4992 138.443 13.9619 137.142 13.9474C136.548 13.9474 136.124 14.0039 135.926 14.0605V17.5393Z" fill="black"/>
<path d="M143.915 19.6041L142.925 22.6022H141.652L144.891 13.071H146.375L149.628 22.6022H148.313L147.295 19.6041H143.915ZM147.04 18.6426L146.107 15.899C145.895 15.2769 145.753 14.7113 145.612 14.1598H145.584C145.442 14.7254 145.287 15.3052 145.103 15.8849L144.17 18.6426H147.04Z" fill="black"/>
<path d="M152.369 22.6022L149.258 13.071H150.587L152.072 17.7659C152.483 19.0526 152.836 20.2125 153.091 21.3296H153.118C153.387 20.2267 153.783 19.0244 154.207 17.78L155.82 13.071H157.135L153.726 22.6022H152.369Z" fill="black"/>
<path d="M158.899 19.6041L157.909 22.6022H156.637L159.875 13.071H161.36L164.613 22.6022H163.297L162.279 19.6041H158.899ZM162.024 18.6426L161.091 15.899C160.879 15.2769 160.738 14.7113 160.596 14.1598H160.568C160.426 14.7254 160.271 15.3052 160.087 15.8849L159.154 18.6426H162.024Z" fill="black"/>
<path d="M167.246 13.0708V22.6019H166.016V13.0708H167.246Z" fill="black"/>
<path d="M169.395 13.0708H170.625V21.5697H174.698V22.6019H169.395V13.0708Z" fill="black"/>
<path d="M139.465 34.7222L137.738 27.9165H138.667L139.475 31.3597C139.677 32.2077 139.859 33.0561 139.98 33.7122H140C140.111 33.0359 140.323 32.2279 140.556 31.3492L141.465 27.9161H142.383L143.211 31.3694C143.403 32.1774 143.585 32.985 143.686 33.7017H143.706C143.848 32.9543 144.039 32.1972 144.252 31.3488L145.15 27.9156H146.049L144.12 34.7214H143.202L142.343 31.1771C142.131 30.3089 141.99 29.6423 141.899 28.9555H141.878C141.757 29.6322 141.606 30.2984 141.353 31.1771L140.384 34.7214H139.465V34.7222Z" fill="black"/>
<path d="M152.716 31.2486C152.716 33.5909 151.292 34.8332 149.556 34.8332C147.758 34.8332 146.496 33.4399 146.496 31.3799C146.496 29.2189 147.839 27.8053 149.657 27.8053C151.515 27.8053 152.716 29.229 152.716 31.2486ZM147.435 31.3597C147.435 32.8137 148.223 34.1161 149.606 34.1161C150.999 34.1161 151.787 32.8339 151.787 31.2886C151.787 29.9356 151.08 28.522 149.616 28.522C148.162 28.522 147.435 29.8653 147.435 31.3597Z" fill="black"/>
<path d="M153.859 28.0069C154.304 27.916 154.94 27.8655 155.546 27.8655C156.485 27.8655 157.091 28.0372 157.515 28.421C157.858 28.724 158.05 29.1882 158.05 29.7134C158.05 30.6123 157.485 31.2078 156.767 31.4501V31.4804C157.293 31.6622 157.605 32.1466 157.767 32.8536C157.989 33.803 158.151 34.4591 158.292 34.7217H157.384C157.273 34.5197 157.121 33.9444 156.929 33.096C156.727 32.1567 156.364 31.8036 155.566 31.7733H154.738V34.7217H153.859V28.0069ZM154.738 31.1072H155.637C156.576 31.1072 157.172 30.5921 157.172 29.8148C157.172 28.9365 156.536 28.5523 155.607 28.5426C155.182 28.5426 154.879 28.583 154.738 28.6234V31.1072H154.738Z" fill="black"/>
<path d="M159.29 27.9164H160.169V31.1981H160.199C160.38 30.9355 160.562 30.6931 160.734 30.4709L162.814 27.9164H163.904L161.44 30.8042L164.096 34.7221H163.056L160.814 31.3799L160.168 32.1273V34.7221H159.289V27.9164H159.29Z" fill="black"/>
</svg>
