<svg width="300" height="300" viewBox="0 0 300 300" fill="none" xmlns="http://www.w3.org/2000/svg">
<g clip-path="url(#clip0_159_8386)">
<path d="M36.2533 266.732C38.5043 272.735 54.6357 280.613 73.3938 270.484C86.1492 263.356 94.4025 253.226 102.281 235.219C104.532 230.717 105.657 225.09 100.405 221.713C96.2783 218.712 89.5253 215.336 86.524 212.334C85.0234 210.834 83.5227 209.708 82.3972 208.583C83.1475 209.333 83.8979 210.083 84.6482 211.209C92.1514 220.213 84.2731 233.343 76.0199 241.222C70.0174 246.849 59.1374 260.73 43.3814 247.599C40.005 244.598 32.1267 256.978 36.2533 266.732Z" fill="#FCEA83" stroke="black" stroke-width="1.12547"/>
<path d="M264.35 266.732C261.724 272.735 245.592 280.613 227.209 270.484C214.454 263.356 206.201 253.226 197.947 235.219C196.072 230.717 194.946 225.09 200.198 221.713C204.325 218.712 211.078 215.336 214.079 212.334C215.58 210.834 216.705 209.708 218.206 208.583C217.456 209.333 216.705 210.083 215.955 211.209C208.452 220.213 216.33 233.343 224.208 241.222C230.211 246.849 241.466 260.73 257.223 247.599C260.599 244.598 268.102 256.978 264.351 266.732L264.35 266.732Z" fill="#FCEA83" stroke="black" stroke-width="1.12547"/>
<path d="M150.295 299C180.307 299 226.452 285.495 251.209 238.224C255.336 230.346 251.209 226.219 246.332 223.593C241.08 221.342 234.702 216.09 231.326 212.714C237.328 218.716 236.203 222.843 232.076 229.596C212.943 261.485 186.682 277.616 150.294 277.616C113.904 277.616 87.643 261.485 68.5123 229.596C64.3856 222.843 63.26 218.716 68.8874 212.714C65.8862 216.09 59.1334 221.342 53.8807 223.593C49.0036 226.219 44.8766 230.346 49.0037 238.224C73.7645 285.495 120.284 299 150.294 299H150.295Z" fill="#FCEA83" stroke="black" stroke-width="1.12547"/>
<path d="M80.8986 235.599C80.1483 231.847 75.2712 233.348 73.7705 237.85C71.8947 235.224 70.0189 232.598 68.5183 229.597C64.0164 222.844 63.2661 218.342 69.6438 211.964C72.6451 208.963 78.6479 205.587 82.7742 209.338C91.4025 216.466 86.9012 228.096 80.8986 235.599Z" fill="#DB161C" stroke="black" stroke-width="1.12547"/>
<path d="M219.33 235.599C220.08 231.847 225.332 233.348 226.833 237.85C228.709 235.224 230.585 232.598 232.085 229.597C236.587 222.844 237.337 218.342 230.585 211.964C227.959 208.963 221.956 205.587 217.454 209.338C209.201 216.466 213.327 228.096 219.33 235.599Z" fill="#DB161C" stroke="black" stroke-width="1.12547"/>
<path d="M36.2553 266.732C32.5037 261.105 29.5026 246.473 28.7522 242.722C27.6267 239.346 27.2516 236.344 31.3782 234.844C35.505 233.343 39.2566 238.595 41.1323 243.097C43.0081 247.599 46.0094 254.352 49.3856 262.605C41.1323 257.728 34.3797 261.105 36.2553 266.732Z" fill="#DB161C" stroke="black" stroke-width="1.12547"/>
<path d="M264.353 266.732C267.729 261.105 270.731 246.473 271.856 242.722C272.606 239.346 273.357 236.344 269.23 234.844C265.103 233.343 261.352 238.595 259.476 243.097C257.6 247.599 254.599 254.352 251.223 262.605C259.476 257.728 265.854 261.105 264.353 266.732Z" fill="#DB161C" stroke="black" stroke-width="1.12547"/>
<path d="M58.0102 232.969L55.0089 234.47C54.2586 234.845 54.2586 235.595 54.2586 235.97H53.8834L52.3828 232.594H52.758C52.758 232.969 53.1331 233.344 53.8834 232.969L60.2612 229.593C61.0115 229.217 61.0114 228.842 60.6363 228.467L61.0114 228.092L62.8873 231.844H62.5121C62.137 231.468 61.7618 231.093 61.0115 231.468L58.3854 232.969L59.5109 235.22L62.5122 234.094C63.2625 233.719 62.8873 232.969 62.8873 232.594H63.2625L64.7631 235.97C64.3879 235.595 64.0128 235.22 63.2625 235.595L56.8848 238.972C56.1345 239.347 56.1345 239.722 56.5097 240.097L56.1345 240.472L54.2587 237.096L54.6338 236.721C55.009 237.096 55.3842 237.471 56.1344 237.096L59.1357 235.595L58.0102 232.969Z" fill="#00493D"/>
<path d="M64.3898 237.846C65.1402 237.471 65.1402 237.096 64.765 236.345H65.1402L68.8918 241.973L66.2657 243.849V243.473C67.7664 242.348 67.7664 240.847 67.3912 240.472C67.016 240.097 66.6409 239.722 66.6409 239.347C66.2657 239.347 66.2657 238.972 65.5154 239.722C65.1402 240.097 62.8893 241.598 62.8893 241.598C63.2645 241.973 63.6396 243.098 65.5154 241.973H65.8906L61.7638 244.974V244.599C63.6396 243.098 62.8893 241.973 62.5141 241.598L59.8881 243.473C59.1377 243.849 59.1377 244.224 59.1377 244.599C59.5129 244.599 59.5129 244.974 59.8881 245.349C60.2632 246.1 61.3888 246.85 63.2645 246.1L63.6397 246.475L60.6384 247.6L56.8867 241.598H57.2619C57.637 241.973 58.0122 242.348 58.7625 241.973L64.3898 237.846Z" fill="#00493D"/>
<path d="M70.393 252.101L67.7669 254.352C67.3917 254.727 67.3917 255.478 67.7669 255.853H67.3917L64.7656 253.227L65.1408 252.852C65.5159 253.227 65.8911 253.602 66.6414 252.852L71.5185 247.975C72.2688 247.599 72.2688 247.224 71.8936 246.474L74.5197 249.475C74.1446 249.1 73.3943 249.1 73.0191 249.475L70.7682 251.726L72.644 253.602L74.8949 251.726C75.6452 250.976 75.2701 250.601 74.8949 250.226L75.2701 249.85L77.8961 252.852H77.521C77.1459 252.852 76.7707 252.477 76.0203 253.227L71.1432 257.729C70.3929 258.479 70.3929 258.854 70.7681 259.229V259.605L68.142 256.603C68.5172 256.603 69.2675 256.978 69.6426 256.603L72.2687 253.977L70.393 252.101Z" fill="#00493D"/>
<path d="M76.0254 259.984L77.1509 261.11L78.6514 257.733C78.6514 257.733 77.526 258.109 75.6502 259.234L76.0254 259.984L75.6502 260.359L74.8999 259.609C74.5247 259.984 74.1496 259.984 73.7744 260.359C72.6489 261.11 73.0241 261.485 73.3992 261.86V262.235L71.5234 260.359H71.8986L73.3992 259.984L80.9024 255.858L81.2775 256.233C81.2775 256.233 80.9024 256.608 77.5259 264.111C77.5259 264.861 77.1507 265.237 77.5259 265.987L74.5246 263.361L74.8998 262.986C75.2749 263.736 76.0253 263.736 76.4004 262.986C76.4004 262.61 76.7755 261.86 76.7755 261.485L75.6502 260.359L76.0254 259.984Z" fill="#00493D"/>
<path d="M79.0195 267.484L79.3947 267.109C79.7699 267.484 80.145 267.484 80.8953 267.109L85.7724 260.731L85.3973 260.356C84.6469 259.981 83.5214 259.981 82.396 261.106V260.731L83.8966 258.855L89.5239 262.982L87.6481 265.233H87.2729C88.3984 264.107 88.0233 262.607 87.2729 262.232V261.856L82.3959 268.234C81.6456 268.609 82.0207 269.36 82.3959 269.735H82.0208L79.0195 267.484Z" fill="#00493D"/>
<path d="M88.7755 268.987L86.8997 271.613C86.5245 272.363 86.8997 272.739 87.2749 273.114L86.8997 273.489L83.8984 271.238V270.863C84.6488 271.238 85.0239 271.238 85.399 270.488L89.5258 264.86C89.9009 264.11 89.5258 263.735 89.1506 263.36L89.5258 262.984L92.5271 265.235V265.611C91.7768 265.235 91.4016 265.235 91.0264 265.986L89.1507 268.612L91.4016 270.112L93.2774 267.486C93.6526 266.736 93.2774 266.361 92.9022 265.986L93.2774 265.611L96.2787 267.861V268.237C95.9036 267.861 95.1532 267.861 94.7781 268.612L91.0264 274.614C90.2761 274.99 90.6513 275.365 91.0264 275.74V276.115L87.6501 273.864H88.0252C88.4003 273.864 88.7755 273.864 89.1507 273.489L91.0265 270.488L88.7755 268.987Z" fill="#00493D"/>
<path d="M96.2812 279.492L96.6564 279.117C97.0316 279.492 97.7819 279.492 98.157 278.742L101.158 272.364C101.533 271.614 101.158 271.239 100.783 270.864L107.161 273.865L105.66 276.866L105.285 276.491C106.411 274.991 105.285 273.49 104.91 273.115C104.535 273.115 104.16 272.74 103.784 272.74C103.409 272.74 103.409 272.74 103.034 273.49C102.659 273.865 101.534 276.116 101.534 276.116C101.909 276.491 102.659 277.241 104.16 275.366H104.535L102.284 279.868L101.909 279.492C103.034 277.241 101.534 276.866 101.158 276.866L99.6578 279.868C99.2826 280.618 99.6578 280.993 100.033 280.993V281.368L96.2812 279.492Z" fill="#00493D"/>
<path d="M107.154 284.745C106.029 283.995 106.029 281.744 107.154 279.493C107.905 277.242 109.405 275.366 110.906 276.117C112.031 276.492 111.656 278.743 110.906 280.994C109.781 283.62 108.28 285.12 107.154 284.745L106.779 284.745C109.405 285.871 111.281 284.37 112.407 281.744C113.532 279.493 113.157 276.867 110.906 275.741C108.655 274.616 106.404 276.117 105.279 278.743C104.153 281.369 104.528 283.995 106.779 284.745L107.154 284.745Z" fill="#00493D"/>
<path d="M118.788 285.489L120.289 280.987C120.664 280.237 120.289 279.861 119.914 279.486L121.789 279.862V280.237C121.414 280.237 121.039 280.237 120.664 280.987L119.163 285.489C118.413 287.365 117.287 288.865 115.036 288.115C113.536 287.74 112.41 285.864 113.161 283.988L115.036 279.111C115.412 278.361 115.037 277.986 114.661 277.611V277.235L118.038 278.736V279.111C117.663 278.736 116.912 278.736 116.912 279.486L115.036 284.363C114.661 285.864 114.661 287.365 115.787 287.74C116.912 288.115 118.038 287.365 118.788 285.489Z" fill="#00493D"/>
<path d="M122.165 280.62C122.165 280.244 122.165 280.245 121.79 280.245L124.416 280.62L126.667 287.748L127.793 283.246C128.168 282.495 127.793 282.12 127.417 281.745L129.668 282.12L129.293 282.496C128.918 282.496 128.543 282.496 128.168 283.246L126.292 291.499H125.917L122.915 282.495L121.04 288.498C121.04 289.623 121.415 289.623 121.79 289.998V290.374L119.539 289.623V289.248C119.914 289.623 120.665 289.248 120.665 288.498L122.54 281.745L122.165 280.62Z" fill="#00493D"/>
<path d="M134.921 288.119C134.171 291.496 132.67 292.246 131.92 292.246H131.169C131.169 292.246 130.794 291.871 131.169 291.496L132.295 283.992C132.67 283.617 132.67 283.242 133.045 283.617H133.796C134.546 283.617 135.296 285.118 134.921 288.119L136.046 288.494C136.797 284.743 135.296 283.242 133.42 282.867C131.92 282.492 129.669 282.117 129.669 282.117V282.492C130.044 282.867 130.794 282.867 130.419 283.992L129.294 290.745C128.918 291.496 128.543 291.871 128.168 291.871H127.793L131.545 292.621C133.42 292.996 135.296 292.621 136.046 288.494L134.921 288.119Z" fill="#00493D"/>
<path d="M138.294 285.121C138.294 284.371 137.544 283.996 137.169 283.996V283.62L143.921 284.371L143.546 287.372C143.546 285.496 142.421 284.746 141.67 284.746C141.295 284.371 140.92 284.371 140.545 284.371C140.17 284.371 140.17 284.371 140.17 285.496C140.17 285.871 139.795 288.498 139.795 288.498C140.17 288.498 141.295 288.873 142.046 286.622L141.67 291.499H141.295C141.295 289.248 140.17 289.248 139.795 289.248L139.419 292.624C139.419 293.375 139.419 293.375 139.795 293.375L140.545 293.75C141.67 293.75 142.796 293.375 143.546 291.124H143.921L143.171 294.125L136.043 293.375C136.793 293.375 137.168 292.999 137.544 292.249L138.294 285.121Z" fill="#00493D"/>
<path d="M150.675 289.622C150.675 292.998 149.549 294.124 148.424 294.124C148.048 293.749 148.048 293.749 147.673 293.749L147.298 293.374L147.673 285.495C147.673 285.12 147.673 285.12 148.048 285.12H148.799C149.549 285.12 150.675 286.246 150.675 289.622L152.175 289.622C152.175 285.87 150.299 284.745 148.424 284.745C146.923 284.37 144.672 284.37 144.672 284.37V284.745C145.047 284.745 145.797 285.12 145.797 285.87L145.422 292.998C145.422 293.749 145.047 294.124 144.672 294.124V294.499H148.048C149.924 294.499 151.8 293.749 152.175 289.622L150.675 289.622Z" fill="#00493D"/>
<path d="M161.552 292.62C161.552 293.371 161.928 293.371 162.678 293.371V293.746L158.551 294.121C158.926 293.746 159.677 293.371 159.677 292.62L158.926 285.492C158.551 284.742 158.176 284.742 157.426 284.742V284.367L161.553 283.992C161.177 284.367 160.427 284.742 160.802 285.492L161.552 292.62Z" fill="#00493D"/>
<path d="M165.302 293.372V292.997C165.677 292.997 166.052 292.622 166.052 291.871L164.552 283.993H164.177C163.426 284.368 162.676 285.118 163.051 286.619H162.676L162.301 283.993L169.054 282.867L169.429 285.494H169.054C169.054 283.993 167.928 283.618 166.803 283.618H166.427L167.928 291.496C167.928 292.246 168.303 292.622 169.054 292.622V292.997L165.302 293.372Z" fill="#00493D"/>
<path d="M181.437 285.865L179.936 281.363C179.936 280.612 179.186 280.612 178.811 280.612V280.237L180.687 279.487V279.862C180.312 280.237 180.312 280.237 180.312 280.988L181.812 285.865C182.187 287.365 182.187 289.616 179.936 290.367C178.436 290.742 176.56 289.991 176.185 287.74L174.684 282.863C174.309 282.113 173.934 282.113 173.559 282.113L173.184 281.738L176.935 280.612V280.988C176.56 281.363 176.185 281.738 176.56 282.488L177.686 287.365C178.061 288.866 179.186 289.616 180.312 289.616C181.437 289.241 181.812 287.74 181.437 285.865Z" fill="#00493D"/>
<path d="M185.568 283.242C187.444 282.492 187.069 281.366 186.694 280.241C186.319 279.115 185.568 278.365 184.818 278.74C184.443 278.74 184.068 279.115 184.443 279.49L185.568 283.242L185.943 283.617L186.694 286.619C187.069 287.369 187.819 287.369 188.194 286.994V287.369L184.818 288.869L184.443 288.494C185.193 288.119 185.193 287.744 185.193 286.994L182.567 280.616C182.192 279.491 181.817 279.866 181.066 279.866V279.491L184.818 277.99C186.319 277.615 187.819 277.99 188.57 279.491C188.945 281.366 188.194 282.492 186.694 283.242C186.319 283.242 185.943 283.617 185.943 283.617L185.568 283.242Z" fill="#00493D"/>
<path d="M194.937 284.37C193.812 284.745 192.311 283.244 191.186 280.618C190.06 278.367 190.06 276.116 191.186 275.741C192.311 275.366 193.812 276.866 194.937 279.117C196.063 281.368 196.063 283.619 194.937 284.37C197.188 283.619 197.939 280.993 196.813 278.367C195.688 276.116 193.437 274.615 191.186 275.366C188.935 276.491 188.185 279.117 189.31 281.368C190.436 283.994 192.686 285.495 194.937 284.37Z" fill="#00493D"/>
<path d="M195.317 273.864H194.566L196.817 272.363L203.57 276.115L201.319 271.988C200.944 271.238 200.194 271.238 199.819 271.238V270.863L201.694 270.112C201.319 270.487 200.944 270.863 201.694 271.613L205.446 279.116L205.071 279.491L196.818 274.989L199.819 280.617C200.194 281.367 200.944 281.367 201.319 280.992V281.367L199.444 282.492V282.117C199.819 281.742 199.819 281.367 199.444 280.617L196.442 274.614L195.317 273.864Z" fill="#00493D"/>
<path d="M212.202 274.991V274.616C212.202 274.241 212.577 273.866 212.202 273.115L207.7 266.738H207.325C206.575 267.113 206.199 268.614 207.325 269.739L206.95 270.114L205.449 267.488L211.077 263.736L212.577 265.987C211.452 264.862 210.326 264.862 209.576 265.237L209.201 265.612L213.703 271.99C214.078 272.74 214.828 272.74 215.203 272.365V272.74L212.202 274.991Z" fill="#00493D"/>
<path d="M216.33 265.981L218.581 268.607C218.956 268.982 219.707 268.982 220.082 268.607V268.982L217.081 271.608V271.233C217.456 270.858 217.456 270.483 217.081 269.732L212.579 264.105C212.204 263.355 211.828 263.73 211.078 263.73L214.079 261.104V261.479C214.079 261.854 213.704 262.229 214.079 262.979L215.955 265.23L218.206 263.73L216.33 261.104C215.955 260.353 215.205 260.729 214.83 260.729L217.831 258.103V258.478C217.456 258.853 217.456 259.228 217.831 259.978L222.333 265.606C222.708 265.981 223.083 265.981 223.458 265.606L223.833 265.981L220.832 268.607L220.457 268.232C220.832 267.857 221.207 267.481 220.832 266.731L218.581 264.105L216.33 265.981Z" fill="#00493D"/>
<path d="M219.704 258.106C219.329 257.73 218.578 257.73 218.203 258.106V257.73L223.08 253.229L225.331 255.479H224.956C223.831 253.979 222.33 254.729 221.58 255.104C221.58 255.479 221.204 255.479 220.829 255.855C220.829 255.855 220.829 256.23 221.204 256.98C221.58 257.355 223.455 259.231 223.455 259.231C223.831 258.856 224.956 258.106 223.455 256.23H223.831L226.832 259.606V259.981C224.956 258.106 224.206 259.231 223.831 259.606L226.081 261.857C226.457 262.607 226.832 262.607 226.832 262.607L227.957 261.482C228.332 261.107 228.708 259.981 227.957 257.73H228.332L229.833 260.356L224.956 265.233L224.581 264.858C224.956 264.483 225.331 264.108 224.581 263.358L219.704 258.106Z" fill="#00493D"/>
<path d="M228.735 247.6C228.36 247.975 228.36 248.725 229.11 249.101C229.861 249.851 230.611 249.851 232.112 249.101C232.862 248.725 234.363 248.35 235.488 249.476C237.364 251.352 236.614 252.852 236.238 253.603C235.863 253.978 235.113 254.353 234.738 254.728C234.363 254.728 234.363 254.728 234.363 255.103V255.478L231.736 253.227H232.112C233.612 253.978 235.113 254.353 235.863 253.227C236.614 252.477 235.863 251.727 235.488 251.352C234.738 250.601 233.987 250.601 232.862 251.352C231.736 251.727 230.236 251.727 229.11 250.976C227.61 249.476 227.61 248.35 228.36 247.225C228.735 246.85 229.485 246.474 229.861 246.099C230.236 246.099 230.236 246.099 229.861 245.349L232.487 247.225H232.112C230.236 246.474 229.11 246.85 228.735 247.6Z" fill="#00493D"/>
<path d="M232.102 244.602C231.352 244.227 230.977 244.602 230.602 244.977H230.227L234.353 238.974L236.979 240.85L236.604 241.225C235.104 240.1 233.603 240.85 233.228 241.225C233.228 241.6 232.853 241.976 232.853 242.351C232.477 242.351 232.478 242.726 233.228 243.101C233.603 243.476 235.854 244.977 235.854 244.977C236.229 244.602 236.979 243.851 235.479 242.351V241.976L239.23 244.977C236.979 243.851 236.604 244.977 236.229 245.352L238.855 247.228C239.605 247.603 239.981 247.603 239.981 247.603C239.981 247.228 240.356 246.853 240.731 246.478C241.106 245.727 241.481 244.602 239.981 243.101L240.356 242.726L242.232 244.977L238.48 250.604H238.105C238.48 249.854 238.48 249.479 237.73 248.729L232.102 244.602Z" fill="#00493D"/>
<path d="M242.201 237.846L241.076 239.722C239.575 238.221 238.825 237.096 238.825 237.096L242.201 237.846L242.952 237.846C243.327 237.846 244.077 238.221 244.452 238.221C245.578 238.596 245.203 238.972 244.827 239.722H245.203L247.078 236.345C246.328 237.096 245.953 236.721 245.203 236.721C237.324 235.22 236.574 234.845 236.574 234.845V235.22L242.577 241.973C242.952 242.348 242.952 243.098 242.952 243.473H243.327L244.453 241.598L244.077 241.222C243.702 241.973 243.327 242.348 242.577 241.222C242.202 240.847 241.826 240.472 241.826 240.472L242.952 237.846L242.201 237.846Z" fill="#00493D"/>
<path d="M239.931 229.595C239.556 229.97 239.556 230.72 240.682 231.096C241.807 231.471 242.182 231.096 243.308 230.345C244.433 229.595 245.559 228.845 247.059 229.595C249.31 230.721 248.935 232.596 248.56 233.347C248.185 233.722 247.81 234.472 247.434 234.847V235.598L244.433 234.097C246.309 234.472 247.81 234.097 248.185 232.972C248.56 232.221 247.81 231.471 247.434 231.096C246.684 230.721 245.934 231.096 244.808 231.846C243.683 232.971 242.557 233.347 241.057 232.596C239.556 231.846 238.806 230.721 239.556 229.595C239.556 228.845 240.306 228.47 240.682 228.094C240.682 227.719 240.682 227.719 240.306 227.344V226.969L243.308 228.47H242.933C241.057 228.094 239.931 228.845 239.931 229.595Z" fill="#00493D"/>
<path d="M121.416 96.7882C116.539 97.9137 113.163 98.2888 108.661 94.1621C105.659 91.1609 106.41 85.9088 109.411 84.0331C112.787 81.7822 115.789 80.2815 119.916 81.4071C124.042 82.5325 134.922 92.6618 132.296 93.0367C129.67 93.0367 125.543 95.6627 121.416 96.7882Z" fill="white" stroke="black" stroke-width="1.12547"/>
<path d="M133.047 78.7832C134.547 77.6578 136.423 76.9074 141.3 76.5323C145.802 76.1571 149.179 76.1571 150.304 79.5336C151.805 83.6603 152.93 88.5376 155.932 90.7883C154.056 91.9137 144.677 93.0392 141.301 91.1634C136.799 88.9125 135.673 80.2839 133.047 78.7832Z" fill="white" stroke="black" stroke-width="1.12547"/>
<path d="M165.309 79.1589C166.81 78.0334 168.685 78.0334 173.562 78.4086C178.439 78.7837 180.315 79.1589 181.441 82.5353C182.566 86.2869 181.441 91.1637 183.692 94.5408C181.441 95.2911 173.938 95.2911 171.311 92.665C167.184 89.6637 167.56 81.0353 165.309 79.1596L165.309 79.1589Z" fill="white" stroke="black" stroke-width="1.12547"/>
<path d="M187.823 81.4058C184.447 80.6554 182.196 80.2803 180.695 81.4058C182.571 83.6567 181.07 92.6605 184.822 95.6618C187.448 97.5376 194.201 97.9128 195.702 93.786C197.578 90.0344 197.578 84.4071 187.823 81.4058Z" fill="#073163" stroke="black" stroke-width="1.12547"/>
<path d="M149.184 77.6559C150.309 76.5304 152.56 76.1553 157.062 76.1553C161.939 76.1553 164.94 76.9056 166.441 79.9069C167.942 83.6585 167.566 88.5352 170.193 91.5366C169.067 93.0372 158.938 93.0372 155.937 90.7863C151.81 88.1602 151.435 79.5315 149.184 77.6559Z" fill="#073163" stroke="black" stroke-width="1.12547"/>
<path d="M117.289 81.03C117.289 79.1542 119.915 78.779 126.668 78.4039C133.421 77.6536 133.796 78.0287 136.047 82.9058C137.173 85.5319 138.673 90.0338 141.675 91.5341C133.421 93.4099 130.795 94.5354 126.293 91.9093C122.917 90.0334 119.165 85.5316 118.415 83.6559C118.039 82.5304 118.04 81.4051 117.289 81.03Z" fill="#073163" stroke="black" stroke-width="1.12547"/>
<path d="M135.296 42.7653C127.418 36.7627 118.038 31.1356 109.41 30.0099C115.038 33.3863 130.794 45.7666 134.921 49.8937" fill="#F9D050"/>
<path d="M135.296 42.7653C127.418 36.7627 118.038 31.1356 109.41 30.0099C115.038 33.3863 130.794 45.7666 134.921 49.8937" stroke="black" stroke-width="0.506411"/>
<path d="M139.798 37.1367C130.419 30.759 119.539 23.6313 109.035 22.8806C116.914 27.0074 128.543 36.7617 134.921 44.6401" fill="#F9D050"/>
<path d="M139.798 37.1367C130.419 30.759 119.539 23.6313 109.035 22.8806C116.914 27.0074 128.543 36.7617 134.921 44.6401" stroke="black" stroke-width="0.506411"/>
<path d="M151.801 26.631C157.053 15.0014 162.681 8.62366 170.183 1.49524C166.432 9.37361 162.305 25.5053 160.429 31.883" fill="#F9D050"/>
<path d="M151.801 26.631C157.053 15.0014 162.681 8.62366 170.183 1.49524C166.432 9.37361 162.305 25.5053 160.429 31.883" stroke="black" stroke-width="0.506411"/>
<path d="M160.051 24.76C163.802 16.5067 169.43 9.37826 179.184 4.87622C174.307 9.75331 166.803 24.3843 164.928 32.2627" fill="#F9D050"/>
<path d="M160.051 24.76C163.802 16.5067 169.43 9.37826 179.184 4.87622C174.307 9.75331 166.803 24.3843 164.928 32.2627" stroke="black" stroke-width="0.506411"/>
<path d="M163.434 32.2595C167.935 25.8818 176.939 13.8771 193.071 7.49866C183.692 16.8777 169.811 34.1351 166.435 40.8878" fill="#F9D050"/>
<path d="M163.434 32.2595C167.935 25.8818 176.939 13.8771 193.071 7.49866C183.692 16.8777 169.811 34.1351 166.435 40.8878" stroke="black" stroke-width="0.506411"/>
<path d="M168.684 40.5105C175.437 36.7589 188.943 30.7565 198.697 32.6322C192.695 34.8831 174.687 43.1369 166.809 50.6395" fill="#F9D050"/>
<path d="M168.684 40.5105C175.437 36.7589 188.943 30.7565 198.697 32.6322C192.695 34.8831 174.687 43.1369 166.809 50.6395" stroke="black" stroke-width="0.506411"/>
<path d="M167.18 37.8881C173.557 31.1353 185.187 21.0057 197.567 16.8794C188.563 25.5077 169.43 45.0165 166.805 48.0171" fill="#F9D050"/>
<path d="M167.18 37.8881C173.557 31.1353 185.187 21.0057 197.567 16.8794C188.563 25.5077 169.43 45.0165 166.805 48.0171" stroke="black" stroke-width="0.506411"/>
<path d="M149.177 33.7626C144.675 19.8815 137.922 6.75116 127.793 2.62488C133.42 10.8782 140.548 22.8837 144.3 40.891" fill="#F9D050"/>
<path d="M149.177 33.7626C144.675 19.8815 137.922 6.75116 127.793 2.62488C133.42 10.8782 140.548 22.8837 144.3 40.891" stroke="black" stroke-width="0.506411"/>
<path d="M140.539 33.3867C133.036 24.3827 122.907 15.3794 111.277 13.5029C119.156 18.0048 132.286 31.1353 137.163 43.8907" fill="#F9D050"/>
<path d="M140.539 33.3867C133.036 24.3827 122.907 15.3794 111.277 13.5029C119.156 18.0048 132.286 31.1353 137.163 43.8907" stroke="black" stroke-width="0.506411"/>
<path d="M144.677 33.0111C135.298 16.1287 128.17 13.1273 124.043 9.75098C127.419 16.1287 135.673 33.0111 140.55 40.1388" fill="#F9D050"/>
<path d="M144.677 33.0111C135.298 16.1287 128.17 13.1273 124.043 9.75098C127.419 16.1287 135.673 33.0111 140.55 40.1388" stroke="black" stroke-width="0.506411"/>
<path d="M125.91 31.8838C130.412 34.5099 137.165 40.8879 139.416 45.0141" stroke="black" stroke-width="0.506411"/>
<path d="M125.91 39.767C128.161 41.6428 132.288 43.8937 136.039 47.2701L125.91 39.767Z" fill="#F9D050"/>
<path d="M125.91 39.767C128.161 41.6428 132.288 43.8937 136.039 47.2701" stroke="black" stroke-width="0.506411"/>
<path d="M170.555 45.3877C174.306 42.3864 182.56 37.5093 186.686 36.0087L170.555 45.3877Z" fill="#F9D050"/>
<path d="M170.555 45.3877C174.306 42.3864 182.56 37.5093 186.686 36.0087" stroke="black" stroke-width="0.506411"/>
<path d="M167.934 42.7653C171.685 37.8882 179.188 31.1356 181.815 28.8842L167.934 42.7653Z" fill="#F9D050"/>
<path d="M167.934 42.7653C171.685 37.8882 179.188 31.1356 181.815 28.8842" stroke="black" stroke-width="0.506411"/>
<path d="M178.436 19.5073C175.059 23.2589 167.181 32.6377 164.18 37.1397L178.436 19.5073Z" fill="#F9D050"/>
<path d="M178.436 19.5073C175.059 23.2589 167.181 32.6377 164.18 37.1397" stroke="black" stroke-width="0.506411"/>
<path d="M168.684 16.1255C166.058 19.5019 160.805 29.2559 159.305 32.6322L168.684 16.1255Z" fill="#F9D050"/>
<path d="M168.684 16.1255C166.058 19.5019 160.805 29.2559 159.305 32.6322" stroke="black" stroke-width="0.506411"/>
<path d="M139.047 16.8771C141.298 22.8796 145.425 33.0088 146.925 37.1359L139.047 16.8771Z" fill="#F9D050"/>
<path d="M139.047 16.8771C141.298 22.8796 145.425 33.0088 146.925 37.1359" stroke="black" stroke-width="0.506411"/>
<path d="M135.66 23.2571C137.161 25.508 140.162 30.7603 141.288 34.5118L135.66 23.2571Z" fill="#F9D050"/>
<path d="M135.66 23.2571C137.161 25.508 140.162 30.7603 141.288 34.5118" stroke="black" stroke-width="0.506411"/>
<path d="M148.43 21.3784C148.43 18.002 150.681 14.2504 152.932 14.2504C155.558 14.2504 157.433 18.7522 157.433 21.3784C157.433 24.3797 155.183 27.0058 152.932 27.0058C150.681 27.0058 148.43 24.7548 148.43 21.3784Z" fill="#F9D050" stroke="black" stroke-width="0.506411"/>
<path d="M143.552 24.3844C143.927 20.6328 146.553 17.6316 148.804 18.0067C151.055 18.3819 152.181 22.8838 151.806 25.5099C151.43 28.5111 148.804 30.7621 146.929 30.387C145.053 30.387 143.177 27.7609 143.552 24.3844Z" fill="#F9D050" stroke="black" stroke-width="0.506411"/>
<path d="M153.683 25.5118C152.933 22.1354 154.434 18.3837 156.685 18.0086C158.936 17.6334 161.187 21.385 161.562 24.3863C162.312 27.3876 160.436 30.3889 158.561 30.3889C156.685 30.764 154.059 28.8883 153.683 25.5118Z" fill="#F9D050" stroke="black" stroke-width="0.506411"/>
<path d="M148.055 28.51C148.055 24.7584 150.306 21.382 152.557 21.382C155.183 21.382 157.058 25.5087 157.058 28.51C157.058 31.5113 154.808 34.1373 152.557 34.1373C150.306 34.1373 148.055 31.8864 148.055 28.51Z" fill="#F9D050" stroke="black" stroke-width="0.506411"/>
<path d="M141.301 30.381C141.301 27.0045 143.927 23.2529 146.178 23.2529C148.429 23.2529 150.68 27.7548 150.68 30.381C150.68 33.3822 148.054 36.0083 146.178 36.0083C143.927 36.0083 141.301 33.7574 141.301 30.381Z" fill="#F9D050" stroke="black" stroke-width="0.506411"/>
<path d="M155.184 28.8856C155.184 25.5092 157.435 21.7576 159.685 21.7576C162.312 21.7576 164.187 26.2594 164.187 28.8856C164.187 31.8869 161.936 34.513 159.685 34.513C157.435 34.513 155.184 32.262 155.184 28.8856Z" fill="#F9D050" stroke="black" stroke-width="0.506411"/>
<path d="M153.68 31.8839C153.68 28.1323 156.306 24.7559 158.557 24.7559C160.808 24.7559 163.059 28.8826 163.059 31.8839C163.059 34.8852 160.808 37.5112 158.557 37.5112C156.306 37.5112 153.68 35.2603 153.68 31.8839Z" fill="#F9D050" stroke="black" stroke-width="0.506411"/>
<path d="M147.68 35.2658C147.68 31.5142 149.931 28.1378 152.182 28.1378C154.808 28.1378 156.683 32.6397 156.683 35.2658C156.683 38.2671 154.433 40.8932 152.182 40.8932C149.931 40.8932 147.68 38.6423 147.68 35.2658Z" fill="#F9D050" stroke="black" stroke-width="0.506411"/>
<path d="M138.301 35.2658C138.301 31.5142 140.177 28.1378 142.052 28.1378C143.928 28.1378 145.429 32.6397 145.429 35.2658C145.429 38.2671 143.553 40.8932 142.052 40.8932C140.177 40.8932 138.301 38.6423 138.301 35.2658Z" fill="#F9D050" stroke="black" stroke-width="0.506411"/>
<path d="M159.309 34.5143C159.309 31.1379 161.184 27.7615 163.06 27.7615C164.936 27.7615 166.812 31.8882 166.812 34.5143C166.812 37.8907 164.561 40.1417 163.06 40.1417C161.184 40.1417 159.309 37.8907 159.309 34.5143Z" fill="#F9D050" stroke="black" stroke-width="0.506411"/>
<path d="M161.556 40.8863C162.306 37.1347 164.557 34.1335 166.058 34.5087C167.559 34.8838 167.934 39.3857 167.183 42.0118C166.808 45.3882 164.557 47.264 163.057 46.8889C161.556 46.5138 160.806 43.8876 161.556 40.8863Z" fill="#F9D050" stroke="black" stroke-width="0.506411"/>
<path d="M154.435 39.767C154.81 36.3906 157.061 33.0142 158.937 33.3893C161.188 33.3893 162.313 37.8912 161.938 40.5174C161.563 43.8938 159.687 46.1447 157.811 45.7696C155.936 45.7696 154.06 43.1435 154.435 39.767Z" fill="#F9D050" stroke="black" stroke-width="0.506411"/>
<path d="M143.929 40.8865C142.803 37.1348 140.552 34.5088 139.051 34.8839C137.551 35.2591 137.176 39.761 137.926 42.3871C138.676 45.3884 140.927 47.2641 142.428 46.889C143.553 46.5138 144.679 43.8877 143.929 40.8865Z" fill="#F9D050" stroke="black" stroke-width="0.506411"/>
<path d="M141.301 40.1349C141.301 36.7585 143.177 33.3821 145.052 33.3821C147.303 33.3821 148.804 37.5088 148.804 40.1349C148.804 43.5113 146.928 45.7623 145.052 45.7623C143.552 45.7623 141.301 43.5113 141.301 40.1349Z" fill="#F9D050" stroke="black" stroke-width="0.506411"/>
<path d="M146.926 41.6379C146.926 37.8863 149.177 34.5099 151.428 34.5099C154.054 34.5099 155.93 38.6366 155.93 41.6379C155.93 44.6392 153.679 47.2653 151.428 47.2653C149.177 47.2653 146.926 45.0143 146.926 41.6379Z" fill="#F9D050" stroke="black" stroke-width="0.506411"/>
<path d="M148.805 0.375127C148.055 3.37641 145.429 6.00248 147.305 10.1292C143.928 9.00368 140.927 8.62847 138.301 11.6298C141.677 11.2546 144.678 12.3801 146.179 14.631C143.178 14.2559 141.677 15.7565 140.927 17.6323C143.553 16.882 146.179 16.1317 147.305 16.5069C146.179 17.6323 144.303 19.5081 143.928 21.0087C146.179 19.1329 148.805 19.5081 150.306 18.3827C149.18 21.0087 151.431 23.6349 153.307 26.261C152.932 22.5094 155.183 19.8833 154.057 18.0077C157.434 18.758 157.809 21.7593 162.686 21.7593C160.81 20.6338 159.685 16.8822 157.434 16.8822C158.559 16.5071 163.061 16.1319 163.811 16.8822C163.061 15.3816 160.435 13.8809 158.934 13.8809C160.435 12.3803 163.061 9.37905 164.937 8.62871C162.311 9.00387 158.184 9.37903 156.683 11.63C160.435 8.62871 159.685 3.00167 163.811 2.25094C161.56 1.87578 158.184 3.37641 155.558 6.00256C156.684 3.75162 156.684 0.75034 158.184 0C155.183 0.750316 151.806 4.50188 150.681 6.37769C150.681 4.50188 149.556 1.5006 148.805 0.375127Z" fill="#F9D050" stroke="black" stroke-width="0.506411"/>
<path d="M150.676 6.37158C150.676 7.49705 150.676 9.74799 150.301 10.4983L150.676 6.37158Z" fill="#F9D050"/>
<path d="M150.676 6.37158C150.676 7.49705 150.676 9.74799 150.301 10.4983" stroke="black" stroke-width="0.506411"/>
<path d="M155.552 6.00366C154.801 6.75398 153.301 9.38007 153.301 11.631L155.552 6.00366Z" fill="#F9D050"/>
<path d="M155.552 6.00366C154.801 6.75398 153.301 9.38007 153.301 11.631" stroke="black" stroke-width="0.506411"/>
<path d="M157.806 10.5049C156.68 11.2552 155.555 12.3807 155.18 13.8813" stroke="black" stroke-width="0.506411"/>
<path d="M118.038 47.6422C115.412 47.6422 113.161 46.5167 111.66 44.6409C109.034 41.2645 101.906 39.7638 98.905 42.7651C97.7795 43.5154 96.279 43.5154 95.1534 43.8906C93.2776 43.8906 91.0267 45.7664 91.777 49.5179C93.2776 48.3924 93.6528 49.5179 94.7783 49.5179C95.5286 49.1428 95.1534 49.8931 95.1534 50.6434C95.1534 52.5192 99.2802 56.2707 103.032 55.8956C107.159 55.8956 109.034 57.3962 109.785 58.1466C110.91 59.272 110.16 58.8969 110.91 60.7726C112.036 61.8981 112.411 62.2732 110.535 63.7739C107.909 66.0248 106.033 71.2771 110.535 75.4036C115.412 79.1552 127.792 84.7826 141.673 73.9029C155.178 63.3981 176.188 69.401 177.688 73.1526C179.564 76.9042 180.314 79.1552 180.689 81.031C181.065 82.5316 182.94 84.0322 185.567 83.657C188.193 83.657 191.194 84.7825 192.695 85.908C194.57 87.0334 197.197 86.6583 196.446 83.2819C194.946 72.7771 188.568 71.2765 187.818 66.3994C191.57 66.7746 194.196 66.7746 195.696 65.274C196.822 63.7734 198.322 61.1472 199.823 60.3969C200.949 59.6466 200.949 58.8963 199.448 59.2714C197.572 59.6466 196.447 60.3969 193.07 60.0217C175.813 58.1459 127.418 45.0157 118.039 47.6413L118.038 47.6422Z" fill="#059334" stroke="black" stroke-width="1.12547"/>
<path d="M194.571 60.3945C192.695 61.52 190.819 63.3958 187.443 67.8976C183.691 72.7747 172.437 77.6517 158.556 77.6517C145.05 77.6517 136.796 75.4007 130.794 70.5236C127.418 67.8976 124.792 66.3969 122.541 65.2714C118.414 63.3956 117.664 59.2689 118.789 55.8924C117.664 57.7682 116.913 59.644 114.662 59.2688C113.162 59.2688 110.161 59.2688 110.911 60.7694C110.536 60.0191 110.536 58.8936 110.16 58.5184C109.785 58.1433 109.41 57.7681 109.41 57.7681C110.536 58.5184 113.162 56.2675 115.038 56.2675C116.538 56.6427 118.414 54.7669 118.039 52.5159C117.664 50.6401 117.288 49.1395 116.913 47.6388C119.915 46.1382 159.307 53.2662 167.185 54.0165C175.063 54.3917 197.572 57.7684 194.571 60.3945Z" fill="black" stroke="black" stroke-width="1.12547"/>
<path d="M123.291 46.1392C127.043 42.3876 131.544 40.5119 136.046 41.6373H137.172C139.423 39.7615 144.675 39.3864 147.677 40.887H149.177C153.679 39.3864 162.308 40.887 165.309 43.8883L166.434 44.6386C176.563 43.8883 182.566 48.3902 189.695 55.5183C190.445 56.2687 191.57 57.7693 193.446 58.1444C195.697 58.5196 196.072 59.645 194.196 60.7705C191.946 61.896 190.07 63.7718 186.318 67.8985C182.942 72.4004 172.062 76.9026 158.557 76.9026C145.426 76.9026 137.548 74.6517 131.545 70.1498C128.169 67.5237 125.543 66.023 123.667 64.8976C121.416 64.1472 118.415 61.1459 119.54 58.1447C120.29 55.1434 118.415 51.3919 116.914 47.64C118.04 46.8897 121.041 45.7642 122.541 46.5145L123.291 46.1392Z" fill="#059334" stroke="black" stroke-width="1.12547"/>
<path d="M189.686 55.5175C182.558 48.3895 176.556 43.8879 166.426 44.6378C166.426 45.013 166.426 46.1384 166.051 46.8888C172.053 49.1397 180.682 55.8928 184.433 60.7698C185.934 59.2692 188.561 57.3934 189.686 55.5175Z" fill="#00493D" stroke="black" stroke-width="1.12547"/>
<path d="M165.308 43.8926C162.307 40.8913 153.678 39.3907 149.176 40.8913C149.176 42.392 149.176 44.6429 148.426 46.1435C151.052 47.269 153.303 49.8951 155.554 52.5212C157.054 52.1461 160.806 51.0206 162.682 50.6454C163.432 49.1448 164.933 45.7683 165.308 43.8926Z" fill="#00493D" stroke="black" stroke-width="1.12547"/>
<path d="M147.677 40.8865C144.676 39.3859 139.424 39.761 137.172 41.6368C136.422 43.1375 136.047 46.1387 136.047 47.6394C137.547 47.6394 139.798 48.7649 140.549 49.5152C142.8 48.7649 145.801 47.2643 146.926 46.1388C147.302 44.6382 148.052 42.3871 147.677 40.8865Z" fill="#00493D" stroke="black" stroke-width="1.12547"/>
<path d="M123.289 46.1393C127.041 42.3876 131.542 40.5119 136.044 41.6374C135.294 42.7628 134.919 45.0138 134.919 47.2647C130.792 46.8896 125.54 48.015 123.289 49.5157L123.289 46.1393Z" fill="#00493D" stroke="black" stroke-width="1.12547"/>
<path d="M182.941 61.5217C179.565 56.6446 171.312 51.017 165.684 48.3914C165.684 48.7665 164.934 50.2672 164.559 51.3926C166.81 54.769 171.311 62.2724 173.187 66.3987C175.063 65.6483 180.315 63.3975 182.941 61.5217Z" fill="#00493D" stroke="black" stroke-width="1.12547"/>
<path d="M154.43 69.7728C155.18 64.5206 155.555 57.0175 155.555 54.3911C157.431 54.0159 161.183 52.8905 162.683 52.5153C164.559 55.5165 169.061 63.395 170.937 67.1463C166.435 68.2718 158.931 70.1481 154.43 69.7728Z" fill="#00493D" stroke="black" stroke-width="1.12547"/>
<path d="M141.297 51.7679C143.173 51.0175 145.799 49.5169 147.675 48.0162C149.176 49.1417 152.177 51.7679 153.302 53.2685C153.302 56.6449 152.177 66.3988 151.802 69.7752C148.8 69.7752 143.923 69.0248 141.297 67.5242C141.672 61.8968 142.048 55.5192 141.297 51.7679Z" fill="#00493D" stroke="black" stroke-width="1.12547"/>
<path d="M122.539 56.2691C122.914 55.5188 123.289 52.8927 123.289 51.7672C126.291 49.8914 133.794 48.0156 139.421 51.0169C139.796 54.7685 139.421 64.1473 139.046 66.3987C134.169 62.647 126.29 57.394 122.539 56.2691Z" fill="#00493D" stroke="black" stroke-width="1.12547"/>
<path d="M103.779 49.5212C103.029 49.5212 102.654 47.2703 101.153 47.2703C100.778 47.2703 99.6526 47.6454 99.2773 47.2703C99.2773 48.0206 99.6525 48.7709 100.028 49.1461C100.403 50.2715 102.279 49.5212 103.779 49.5212Z" fill="black"/>
<path d="M103.781 55.8933C108.283 55.8933 109.033 50.266 111.284 49.8907" stroke="black" stroke-width="1.12547"/>
<path d="M106.398 56.269C109.775 57.7696 112.401 49.8913 115.027 50.2664" stroke="black" stroke-width="1.12547"/>
<path d="M99.6562 46.5151C100.782 46.5151 101.532 45.0144 103.408 46.8902C104.158 47.6405 105.284 48.0157 106.034 48.0157" stroke="black" stroke-width="1.12547"/>
<path d="M105.284 52.1437C103.783 54.3946 101.157 55.8953 99.6562 55.145" stroke="black" stroke-width="1.12547"/>
<path d="M98.8995 42.7653C97.774 43.5156 97.0237 45.0162 96.2734 46.1417" stroke="black" stroke-width="1.12547"/>
<path d="M95.1523 48.3938V50.2696" stroke="black" stroke-width="1.12547"/>
<path d="M220.454 97.1638V170.32C220.454 233.722 190.441 255.484 150.299 272.737C110.157 255.48 79.7695 233.721 79.7695 170.32V97.1638H220.451H220.454Z" fill="white"/>
<path d="M150.297 159.062C153.673 159.062 158.925 156.061 163.427 151.559C168.304 146.307 176.557 144.431 185.187 151.559C193.815 158.687 199.068 155.686 203.569 151.559C208.071 147.432 211.822 145.932 220.451 145.932V97.1606H79.7695V145.932C88.3979 145.932 92.1499 147.432 96.652 151.559C101.154 155.686 106.406 158.687 115.035 151.559C124.039 144.431 131.918 146.307 137.17 151.559C141.296 156.061 146.549 159.062 150.3 159.062H150.297Z" fill="#CF142B"/>
<path d="M150.3 196.583C154.801 196.583 163.805 191.706 166.056 190.58C174.31 185.703 180.312 190.205 185.189 192.456C190.442 194.707 200.195 197.333 206.198 192.456C212.201 187.579 215.577 187.954 219.703 187.954C220.454 182.327 220.454 176.7 220.454 170.322V165.82C215.202 164.695 212.575 166.195 206.948 171.072C201.321 175.949 194.943 174.824 186.69 171.823C178.811 168.446 170.933 162.444 163.055 171.823C160.804 174.449 155.551 178.2 150.299 178.2C144.672 178.2 139.794 174.449 137.544 171.823C129.29 162.444 121.787 168.446 113.909 171.823C105.655 174.824 98.9026 175.949 93.2749 171.072C88.0227 166.195 85.3965 164.695 79.7695 165.82V170.322C79.7695 176.7 80.1447 182.327 80.895 187.954C85.0217 187.954 88.023 187.579 94.0254 192.456C100.028 197.333 110.157 194.707 115.034 192.456C120.286 190.205 126.289 185.703 134.542 190.58C136.793 191.706 145.423 196.583 150.3 196.583Z" fill="#0B50A0"/>
<path d="M150.3 212.709C155.928 212.709 162.681 210.458 168.683 207.082C176.186 202.955 181.438 204.831 188.941 208.582C196.82 212.334 203.197 211.208 207.699 208.582C209.95 207.082 211.826 204.081 216.704 205.206C214.453 214.585 211.076 222.838 206.95 229.591C199.446 231.467 195.32 231.467 187.441 228.09C179.563 224.339 169.809 222.088 164.557 225.464C159.68 228.466 154.428 229.966 150.301 229.966C146.174 229.966 140.922 228.466 136.045 225.464C130.793 222.088 121.039 224.339 113.161 228.09C105.282 231.467 101.155 231.467 93.6525 229.591C89.5257 222.838 86.1493 214.585 83.8984 205.206C88.7755 204.081 90.6513 207.082 92.9025 208.582C97.0293 211.208 103.782 212.334 111.285 208.582C119.163 204.831 124.415 202.955 131.919 207.082C137.921 210.458 144.674 212.709 150.301 212.709H150.3Z" fill="#0B50A0"/>
<path d="M150.299 272.736C165.305 266.359 179.186 259.231 190.441 249.476C187.44 248.351 185.564 249.101 182.938 247.225C180.312 245.349 172.433 244.599 165.68 248.351C158.552 251.727 155.551 252.477 150.299 252.477C145.046 252.477 142.045 251.727 134.917 248.351C128.164 244.599 120.286 245.349 117.659 247.225C115.033 249.101 113.158 248.351 110.156 249.476C121.411 259.23 134.917 266.359 150.298 272.736H150.299Z" fill="#0B50A0"/>
<path d="M140.543 115.545C140.918 116.295 140.168 118.171 140.543 118.921C141.293 120.422 141.293 121.172 142.419 121.922H145.045C153.298 121.922 163.052 118.546 171.305 118.546C179.184 118.546 184.061 121.172 188.563 121.172C191.189 121.172 193.44 119.296 193.44 117.42C193.44 115.545 190.439 114.419 184.061 114.419C175.057 114.419 170.18 116.67 162.677 116.67C151.423 116.67 149.547 112.543 149.547 110.668C149.547 108.792 151.423 106.166 157.425 106.166C159.301 106.166 160.802 105.791 161.552 105.04C161.927 104.29 163.053 102.789 165.304 101.664C167.93 100.163 173.182 101.664 175.808 99.788C175.808 101.289 173.557 103.54 171.682 104.29C175.433 103.164 179.56 103.164 180.31 106.166C178.434 105.04 175.433 105.791 174.307 106.166C172.807 106.541 172.056 106.916 170.556 107.291C172.056 106.916 172.807 109.917 175.058 109.917C172.807 111.793 169.055 111.793 165.304 110.292C164.178 109.917 161.177 108.792 159.301 108.792C155.549 108.792 153.299 109.542 153.299 111.043C153.299 112.919 155.549 114.044 162.303 114.044C169.055 114.044 172.807 112.168 182.936 112.168C182.186 111.043 183.312 109.917 181.811 108.792C185.562 108.792 189.689 109.917 191.19 112.543C190.815 109.917 193.066 107.666 192.315 105.415C194.566 105.79 196.442 108.041 196.817 109.917C196.817 108.792 198.318 108.792 198.318 107.666C200.569 108.792 201.694 111.418 201.319 113.669C202.445 111.793 203.57 112.543 204.32 110.292C205.071 111.793 204.696 116.295 202.069 117.796C204.32 116.295 207.697 116.295 209.948 118.921C207.697 118.546 206.571 119.671 205.446 120.047C200.944 122.673 193.441 124.173 187.814 123.798C181.811 123.423 181.061 122.297 177.309 122.297C179.56 122.673 184.062 127.175 188.189 127.175C190.815 127.175 192.69 127.175 193.816 126.799C194.941 126.424 196.817 126.799 198.318 127.55C199.443 128.675 201.694 129.801 203.195 129.426C202.82 130.926 202.069 131.676 200.944 132.052C202.82 133.177 201.694 133.927 203.57 135.428C202.82 135.428 202.069 136.178 200.944 135.803C202.069 136.929 202.069 138.429 203.195 139.18C202.82 139.18 201.694 139.555 200.944 139.18C202.069 140.68 200.944 142.556 202.069 143.306C203.195 144.807 200.944 146.683 199.068 145.182C199.443 146.308 198.318 147.433 197.192 147.058C196.067 146.683 195.317 145.557 195.692 145.182C195.692 144.807 195.692 144.807 196.067 144.432C195.317 145.557 193.816 145.557 193.066 145.182C192.69 144.807 192.315 144.432 192.315 144.057C189.689 144.807 188.564 142.556 188.939 141.431C189.314 140.305 191.565 139.93 192.315 140.305C193.066 140.68 193.816 141.055 194.566 140.305C195.317 139.93 195.692 139.18 195.692 138.429C195.692 137.304 194.566 133.927 189.689 134.303C184.062 134.678 175.058 133.177 170.556 131.677C170.181 131.301 169.806 131.301 169.431 130.926C169.431 132.427 167.93 133.177 167.93 134.678C167.93 136.554 168.68 138.054 170.931 138.805C169.806 140.68 167.93 140.305 167.18 139.18C167.18 140.305 165.679 141.056 165.679 142.556C165.304 141.806 164.929 141.431 164.553 140.68C163.428 143.306 160.427 144.807 158.926 144.057C157.05 145.557 154.799 145.182 154.049 143.682C152.924 144.432 151.423 144.432 150.673 143.682C150.673 144.807 149.922 144.432 149.547 145.933C149.547 146.683 148.047 147.058 147.296 146.683C146.546 146.308 146.171 144.807 146.921 144.057C145.796 144.807 144.67 144.807 143.92 144.057C143.92 143.306 143.92 142.181 144.67 141.806H145.42C144.67 141.431 143.545 141.806 142.794 141.431C142.044 140.68 142.044 139.93 142.419 139.18C142.794 138.805 143.92 138.054 144.67 138.805L145.045 139.18C145.045 138.429 145.42 137.679 145.796 137.679C146.546 137.304 147.671 137.304 148.797 138.429C149.547 139.555 150.297 139.555 152.549 139.18C154.424 139.18 157.426 137.304 159.677 135.428C153.299 134.303 157.05 130.176 158.926 128.675C157.426 128.3 155.175 128.3 153.674 129.05C145.796 133.177 137.542 138.054 132.29 136.554C132.29 137.304 132.665 138.054 133.041 138.804C131.915 138.804 129.664 138.805 128.914 137.679C128.539 138.429 127.788 140.305 128.539 141.806C127.788 141.055 125.537 140.305 124.412 139.93C125.162 140.68 124.412 142.181 124.787 143.306C123.662 142.181 121.786 141.431 121.035 142.181C120.285 142.931 118.785 143.306 117.659 142.931C116.909 144.057 115.783 144.807 114.658 145.182C114.658 144.432 114.658 143.306 114.283 142.931C113.907 144.057 112.782 145.557 111.281 146.308C111.281 145.557 111.281 144.432 110.906 143.682C110.906 145.182 107.905 145.933 107.53 147.058C107.905 145.933 107.905 144.807 107.905 144.057C107.155 145.182 106.029 146.308 104.153 146.683C104.528 145.932 104.904 145.182 104.528 144.432C104.153 145.932 101.902 146.683 100.027 146.308C100.027 147.058 98.526 148.183 96.6502 147.058C95.5247 146.683 94.7743 145.557 95.5247 144.807C94.0241 144.807 92.5234 143.306 93.2738 142.181C93.2738 141.806 93.6489 141.431 93.6489 141.055C92.5235 140.305 92.1483 138.805 93.2738 137.679C93.6489 137.304 94.7743 137.304 95.5247 137.304C95.5247 134.303 98.1508 134.303 99.2763 136.554C100.027 137.679 102.278 139.555 104.153 139.18C104.904 139.18 105.279 138.804 106.029 138.804C108.28 138.054 112.782 136.178 115.408 133.927C115.783 132.802 115.783 132.052 115.783 131.301C114.283 132.052 112.782 132.802 112.032 133.927V132.802C110.906 132.802 109.031 132.427 108.28 132.427C108.655 132.052 109.031 130.176 109.781 129.801C107.905 130.176 106.029 129.801 104.529 129.426C105.279 128.675 105.279 127.55 105.654 126.424C104.904 126.799 103.028 126.049 101.527 126.424C101.903 125.299 102.278 123.798 103.403 123.423C101.903 123.798 100.027 123.423 98.151 122.673C99.6516 122.673 100.402 120.797 101.527 120.797C98.5261 120.797 97.7758 119.296 96.2752 118.546C97.4006 118.921 98.1509 117.796 99.2764 117.796C98.1509 117.42 96.2752 115.545 97.0255 114.419C96.6503 114.794 96.2752 115.545 95.5249 115.92C94.7746 116.295 93.2739 115.92 92.1485 114.794C91.3981 113.294 91.7733 111.418 93.274 111.043C91.3981 110.668 91.3981 108.792 92.1485 108.041C92.5236 107.291 94.0243 106.166 94.7745 107.291C95.1497 107.666 95.5248 108.417 95.9 108.792C95.5248 108.041 95.5249 106.541 95.5249 105.415C95.9 104.29 96.6503 104.29 97.7758 103.915C98.9013 103.915 99.6516 105.04 99.6516 106.166C99.6516 107.291 100.027 108.041 100.402 109.542C100.402 109.167 100.777 108.417 100.777 108.041C100.777 106.541 102.653 106.916 103.778 107.291C104.904 107.666 105.279 109.917 103.778 111.043C103.028 111.793 103.403 112.919 104.154 113.669C106.78 117.796 111.282 121.172 115.033 121.547C115.033 120.047 115.784 118.546 116.909 117.42C116.909 116.67 117.284 115.545 117.659 114.794C118.035 112.543 119.16 111.418 120.661 112.168C120.286 111.793 119.91 111.418 119.91 111.043C118.785 109.917 117.659 108.042 118.41 106.541C119.16 105.04 121.411 105.415 122.161 106.166C121.786 103.915 124.412 102.039 124.412 100.914C124.787 102.039 125.538 103.54 125.163 104.665C125.538 103.165 128.164 101.289 130.04 100.538C129.289 101.664 131.54 103.54 131.165 104.665C131.916 102.789 134.917 101.664 137.168 101.664C136.417 102.414 136.417 103.915 136.417 104.665C137.543 104.665 139.419 104.29 140.169 103.165C140.169 104.665 139.419 106.166 138.668 106.916C139.044 106.541 140.544 106.541 141.67 106.541C140.544 107.667 140.919 108.792 139.794 109.542C141.295 108.792 143.17 108.792 143.546 110.293C144.296 111.418 143.17 113.294 142.42 114.419C141.67 114.795 140.919 115.545 140.544 115.545L140.543 115.545Z" fill="#F9D050" stroke="black" stroke-width="1.12547"/>
<path d="M117.283 120.046C114.657 121.171 113.906 123.798 113.531 125.298" stroke="black" stroke-width="1.12547"/>
<path d="M116.912 122.676C113.161 124.927 111.66 126.803 112.41 130.93" stroke="black" stroke-width="1.12547"/>
<path d="M118.789 133.926C121.04 133.175 122.541 132.425 124.416 129.048" stroke="black" stroke-width="1.12547"/>
<path d="M123.293 130.552C122.543 132.052 123.293 134.678 122.168 135.804C124.044 134.678 125.544 133.178 125.92 130.552" stroke="black" stroke-width="1.12547"/>
<path d="M124.043 134.677C125.544 133.927 127.795 131.676 128.92 129.05C128.545 130.175 128.92 132.051 128.17 133.176C130.046 131.301 130.796 130.175 131.171 128.299C131.171 128.675 131.546 129.425 131.546 129.8C132.297 129.05 133.047 128.299 133.047 126.799" stroke="black" stroke-width="1.12547"/>
<path d="M133.051 127.929V129.805C134.551 128.68 134.927 127.179 134.927 125.303" stroke="black" stroke-width="1.12547"/>
<path d="M134.551 127.553C136.802 126.053 137.177 123.802 137.177 120.425" stroke="black" stroke-width="1.12547"/>
<path d="M137.172 124.171C138.672 123.046 139.048 122.296 139.048 118.919" stroke="black" stroke-width="1.12547"/>
<path d="M134.171 108.789C133.421 108.789 132.671 109.164 132.671 110.29C132.671 111.04 131.545 112.165 131.545 113.291C131.17 114.791 130.42 115.167 129.294 114.791C128.169 114.041 128.169 114.041 128.169 112.916C128.169 111.415 130.045 111.04 130.045 109.539C130.42 108.789 130.795 107.663 131.17 107.663C129.294 108.789 126.668 108.039 126.293 105.788" stroke="black" stroke-width="1.12547"/>
<path d="M137.549 109.916C136.798 110.291 136.048 109.166 134.923 109.541C134.548 109.541 133.422 109.916 133.047 109.541" stroke="black" stroke-width="1.12547"/>
<path d="M132.297 111.795C132.672 112.17 134.548 112.92 136.424 112.17C134.923 112.545 133.798 110.67 135.298 109.544" stroke="black" stroke-width="1.12547"/>
<path d="M128.921 108.045C127.421 108.045 126.295 109.171 126.67 110.296C127.046 111.422 128.546 111.422 129.672 110.671" stroke="black" stroke-width="1.12547"/>
<path d="M126.285 126.802C126.66 126.427 127.035 125.676 127.035 125.301C127.786 125.301 128.536 124.926 128.911 124.551C130.412 124.551 131.537 123.425 131.913 122.3C132.663 122.3 133.038 120.424 133.413 119.674C133.788 120.049 134.539 119.674 134.914 118.173C135.664 118.548 136.79 118.173 137.165 117.048" stroke="black" stroke-width="1.12547"/>
<path d="M121.79 114.417C121.79 114.793 121.04 115.543 120.29 115.918C120.665 116.668 120.29 118.544 119.539 118.919C119.914 119.67 119.539 120.795 119.164 121.545C119.164 121.921 119.539 123.046 119.539 123.421" stroke="black" stroke-width="1.12547"/>
<path d="M123.289 106.918C122.539 108.794 122.914 111.045 124.415 111.42" stroke="black" stroke-width="1.12547"/>
<path d="M124.042 112.922C123.667 114.798 123.667 117.424 123.292 118.55C122.917 119.3 122.167 121.926 125.168 122.676C128.544 123.427 130.42 123.052 132.296 117.424" stroke="black" stroke-width="1.12547"/>
<path d="M137.918 132.055C137.918 132.43 137.543 133.18 136.793 133.18" stroke="black" stroke-width="1.12547"/>
<path d="M140.543 131.303C140.543 132.053 139.793 133.179 139.418 133.554" stroke="black" stroke-width="1.12547"/>
<path d="M143.18 130.552C143.18 131.302 143.18 132.427 142.43 132.802" stroke="black" stroke-width="1.12547"/>
<path d="M120.29 107.294C120.665 107.294 121.04 108.044 121.415 108.794C120.29 108.044 119.164 109.92 119.915 111.045" stroke="black" stroke-width="1.12547"/>
<path d="M119.169 113.674C118.793 114.049 118.043 114.424 117.668 114.799" stroke="black" stroke-width="1.12547"/>
<path d="M118.04 117.048C117.664 117.048 117.289 117.423 116.914 117.423" stroke="black" stroke-width="1.12547"/>
<path d="M100.031 110.292C100.031 109.917 100.031 109.917 100.406 109.542" stroke="black" stroke-width="1.12547"/>
<path d="M96.6527 109.165C96.2775 109.165 96.2775 109.165 95.9023 108.79" stroke="black" stroke-width="1.12547"/>
<path d="M97.0312 114.417H97.7816" stroke="black" stroke-width="1.12547"/>
<path d="M95.5322 112.171C94.7819 111.42 93.6564 111.045 93.2812 111.045" stroke="black" stroke-width="1.12547"/>
<path d="M116.158 126.05C113.532 128.301 112.406 130.177 112.031 132.803" stroke="black" stroke-width="1.12547"/>
<path d="M118.79 127.929C118.04 129.43 116.915 130.555 115.789 131.305" stroke="black" stroke-width="1.12547"/>
<path d="M104.156 139.178C101.155 139.929 98.9038 139.553 96.6528 138.053C96.2777 137.678 95.9025 137.678 95.5273 137.302" stroke="black" stroke-width="1.12547"/>
<path d="M115.415 133.925C115.04 135.426 114.664 137.302 113.914 137.677C116.915 136.177 119.541 133.925 119.917 130.549" stroke="black" stroke-width="1.12547"/>
<path d="M93.6523 141.057C94.7778 140.682 95.9033 141.432 96.6536 140.682" stroke="black" stroke-width="1.12547"/>
<path d="M158.934 128.673C159.684 129.048 160.809 129.423 161.185 129.798C161.56 129.048 163.06 127.922 164.186 127.547" stroke="black" stroke-width="1.12547"/>
<path d="M132.295 136.556C131.92 135.055 132.67 133.18 134.921 132.429" stroke="black" stroke-width="1.12547"/>
<path d="M117.664 142.936C118.039 142.185 118.039 141.06 118.414 140.31" stroke="black" stroke-width="1.12547"/>
<path d="M101.153 144.055C100.778 144.806 100.027 145.556 100.027 146.306" stroke="black" stroke-width="1.12547"/>
<path d="M95.5273 144.807C95.5273 144.807 95.5274 144.432 95.9025 144.432C96.6528 144.056 97.7783 143.306 98.1534 142.556" stroke="black" stroke-width="1.12547"/>
<path d="M146.547 139.554C145.797 139.929 145.422 139.554 145.047 139.179" stroke="black" stroke-width="1.12547"/>
<path d="M146.172 141.433C146.172 141.433 145.797 141.808 145.422 141.808" stroke="black" stroke-width="1.12547"/>
<path d="M148.051 143.312C147.676 143.687 147.301 144.062 146.926 144.062" stroke="black" stroke-width="1.12547"/>
<path d="M158.934 144.055C159.684 143.68 160.059 142.93 160.434 141.429" stroke="black" stroke-width="1.12547"/>
<path d="M154.059 143.68C155.184 143.304 155.934 142.554 157.06 141.429" stroke="black" stroke-width="1.12547"/>
<path d="M164.562 140.681C164.562 139.931 164.563 139.181 164.938 138.43" stroke="black" stroke-width="1.12547"/>
<path d="M192.32 144.055C191.57 143.305 191.569 142.179 192.695 141.429C193.445 141.054 193.82 140.679 194.571 140.304" stroke="black" stroke-width="1.12547"/>
<path d="M169.438 130.927C163.436 128.301 163.811 124.925 158.934 125.3" stroke="black" stroke-width="1.12547"/>
<path d="M196.07 142.56C196.445 142.935 196.07 144.061 196.07 144.436" stroke="black" stroke-width="1.12547"/>
<path d="M199.445 142.56C199.07 143.686 199.07 144.061 199.07 145.186" stroke="black" stroke-width="1.12547"/>
<path d="M170.56 107.294H167.559" stroke="black" stroke-width="1.12547"/>
<path d="M139.047 120.046C139.047 120.796 140.172 122.297 143.174 122.297C142.798 122.297 142.423 121.922 142.423 121.922" stroke="black" stroke-width="1.12547"/>
<path d="M140.549 115.545C140.173 115.92 139.798 115.545 139.798 115.545C139.048 114.794 140.173 113.294 141.299 112.543C140.174 112.919 139.423 112.919 138.673 112.919C137.923 115.169 135.672 116.295 134.171 114.794C133.796 116.295 131.92 118.171 130.419 117.796C128.919 117.045 128.544 115.92 128.919 114.794C127.043 117.045 124.792 115.545 124.042 114.794C123.667 114.044 124.042 112.168 124.792 109.917" stroke="black" stroke-width="1.12547"/>
<path d="M164.565 129.8C163.44 130.55 162.314 129.8 161.189 130.926C160.439 131.676 161.564 132.051 162.314 132.051C161.939 133.176 161.939 133.552 163.815 133.552C163.065 134.677 165.316 135.052 164.94 136.553C166.066 135.427 166.066 133.927 165.691 132.801C165.316 131.676 163.44 130.926 164.565 129.8Z" fill="black"/>
<path d="M130.415 117.799C128.914 117.049 128.539 115.923 128.914 114.798C128.539 115.548 127.789 115.923 127.038 115.923C125.538 119.3 123.662 122.301 121.411 122.301C118.785 122.676 119.16 125.302 121.036 125.302C125.163 126.053 127.038 124.552 130.415 117.799Z" fill="#073163"/>
<path d="M93.2755 108.789C94.401 107.663 93.6506 106.538 92.9003 106.163C91.7748 105.788 89.5239 106.163 88.3984 108.039C89.5239 107.663 90.6494 107.663 91.0245 108.414C91.3997 109.164 92.15 109.914 93.2755 108.789Z" fill="#073163"/>
<path d="M95.1523 102.041C97.7784 102.041 98.5288 102.416 98.904 103.541C99.2791 104.292 98.5288 105.417 97.7785 105.417C96.6531 105.417 95.5276 104.667 95.9027 104.292C96.2779 103.542 96.2778 102.416 95.1523 102.041Z" fill="#073163"/>
<path d="M102.649 108.045C104.525 108.42 105.275 107.295 104.15 105.794C103.775 104.669 102.649 103.919 100.773 104.294C102.649 105.419 100.773 107.295 102.649 108.045Z" fill="#073163"/>
<path d="M88.7734 114.417C89.8989 116.293 91.7747 116.293 92.5251 115.918C93.6505 115.543 94.0257 114.417 93.6505 113.667C92.9002 112.542 91.7747 112.167 91.3996 113.667C90.6493 115.168 89.5237 114.793 88.7734 114.417Z" fill="#073163"/>
<path d="M94.4044 137.307C93.6541 135.807 91.4032 135.807 89.5273 137.307C90.2777 136.932 91.7783 137.307 92.1534 138.058C92.5286 138.808 93.2789 138.808 93.6541 138.808C94.0293 138.433 94.7796 138.058 94.4044 137.307Z" fill="#073163"/>
<path d="M97.4002 135.053C97.4002 133.177 94.7741 132.802 93.2734 133.552C94.0238 133.552 95.1492 134.302 95.1492 135.053C95.5244 135.803 96.2747 136.178 96.6498 136.178C97.4001 135.803 97.7753 135.428 97.4002 135.053Z" fill="#073163"/>
<path d="M93.6499 141.809C91.3989 141.433 90.2734 144.06 90.2734 145.935C90.6486 144.81 91.7741 144.06 92.8995 144.435C94.025 144.435 94.4002 144.06 94.4002 143.309C94.7753 142.559 94.4002 142.184 93.6499 141.809Z" fill="#073163"/>
<path d="M94.0312 148.181C94.7816 148.556 95.5319 147.805 95.9071 146.68C95.9071 145.93 97.4077 145.93 97.7829 146.305C98.5332 146.68 98.5332 148.181 97.4077 148.931C96.6574 149.306 94.7816 149.681 94.0312 148.181Z" fill="#073163"/>
<path d="M146.17 136.931C145.419 136.556 143.544 135.806 142.043 136.931C143.168 136.556 143.919 137.307 144.294 138.057C144.294 138.807 145.419 139.182 145.795 138.432C146.17 138.057 146.545 137.307 146.17 136.931Z" fill="#073163"/>
<path d="M142.799 139.554C141.298 138.804 139.422 140.679 139.047 142.18C139.422 141.805 140.923 141.055 141.673 141.055C142.423 141.43 143.174 141.055 143.174 140.304C143.549 139.929 143.549 139.554 142.799 139.554Z" fill="#073163"/>
<path d="M144.673 142.56C143.547 142.56 142.047 144.061 142.047 145.561C142.422 144.811 143.172 144.436 143.923 144.811C144.673 144.811 145.798 144.436 145.798 143.686C145.798 142.935 145.423 142.56 144.673 142.56Z" fill="#073163"/>
<path d="M148.048 145.558C147.298 145.183 146.172 145.558 146.172 146.684C146.172 147.809 146.172 148.935 145.797 149.31C146.547 148.56 147.297 148.184 148.048 147.809C148.423 147.434 148.798 146.309 148.048 145.558Z" fill="#073163"/>
<path d="M190.442 142.184C189.692 141.434 188.566 141.809 188.191 142.559C187.816 143.31 187.441 145.185 188.191 146.686C188.191 145.936 188.941 144.81 189.692 144.81C190.817 144.435 191.192 142.935 190.442 142.184Z" fill="#073163"/>
<path d="M192.693 143.679C191.192 144.43 191.192 147.056 192.318 148.557C192.318 147.806 192.693 146.681 193.443 146.306C194.569 146.306 194.944 144.805 194.569 144.055C193.818 143.304 193.068 143.679 192.693 143.679Z" fill="#073163"/>
<path d="M197.196 145.183C196.446 144.807 195.695 145.558 195.695 146.308C195.32 147.433 196.07 148.934 197.196 149.684C197.196 148.934 197.571 148.184 197.946 147.809C199.072 147.058 198.697 145.558 197.196 145.183Z" fill="#073163"/>
<path d="M200.569 144.807C199.819 144.807 199.068 145.932 199.819 147.058C200.194 147.808 200.944 148.183 202.445 147.808C202.07 147.808 201.319 146.682 201.694 146.307C202.07 145.557 201.694 144.807 200.569 144.807Z" fill="#073163"/>
<path d="M96.2859 214.964L115.044 157.189L133.802 214.964L84.6562 179.324H145.432L96.2859 214.964Z" fill="#F9D050"/>
<path d="M100.035 209.711L139.051 181.199H91.0312L129.672 209.711L115.041 163.941L100.035 209.711Z" fill="#024919"/>
<path d="M166.809 214.964L185.567 157.189L204.326 214.964L155.18 179.324H215.955L166.809 214.964Z" fill="#F9D050"/>
<path d="M170.559 209.711L209.575 181.199H161.555L200.196 209.711L185.565 163.941L170.559 209.711Z" fill="#024919"/>
<path d="M131.552 255.856L150.31 198.082L169.068 255.856L119.922 220.217H180.697L131.552 255.856Z" fill="#F9D050"/>
<path d="M135.301 250.604L174.317 222.092H126.297L164.938 250.604L150.307 204.834L135.301 250.604Z" fill="#024919"/>
<path d="M220.454 97.1638V170.32C220.454 233.722 190.441 255.484 150.299 272.737C110.157 255.48 79.7695 233.721 79.7695 170.32V97.1638H220.451H220.454Z" stroke="black" stroke-width="1.12547"/>
</g>
<defs>
<clipPath id="clip0_159_8386">
<rect width="300" height="300" fill="white"/>
</clipPath>
</defs>
</svg>
