<svg width="300" height="300" viewBox="0 0 300 300" fill="none" xmlns="http://www.w3.org/2000/svg">
<path d="M73.7969 185.269C74.1343 186.022 74.3908 186.635 74.8722 187.622C75.6964 189.31 76.7334 191.306 77.9906 193.496C78.6191 194.59 79.3026 195.733 80.0421 196.911C80.7815 198.088 81.5773 199.3 82.4293 200.532C83.2813 201.763 84.1897 203.015 85.1561 204.272C86.1224 205.529 87.1466 206.792 88.2291 208.046C89.2369 209.214 90.3071 210.371 91.417 211.512C94.245 211.688 97.1263 211.877 99.9142 212.04C107.206 212.465 114.383 212.845 121.477 213.157C128.571 213.469 135.583 213.713 142.536 213.86C146.013 213.934 149.475 213.983 152.927 214.006C156.379 214.029 159.821 214.025 163.255 213.991C166.69 213.957 170.115 213.892 173.538 213.795C176.962 213.697 180.385 213.567 183.805 213.4C187.225 213.233 190.642 213.028 194.066 212.785C197.49 212.541 200.919 212.257 204.352 211.931C206.149 211.76 207.944 211.549 209.732 211.352C209.955 211.109 210.182 210.89 210.402 210.639C211.161 209.774 211.905 208.863 212.623 207.909C213.341 206.955 214.033 205.956 214.688 204.914C214.74 204.831 214.783 204.737 214.835 204.653L214.266 204.76C212.798 205.035 211.373 205.322 209.864 205.557C207.389 205.944 204.827 206.15 202.19 206.443C199.553 206.736 196.416 206.879 193.634 207.077C190.851 207.274 188.386 207.425 185.086 207.526C181.786 207.627 178.416 207.577 174.986 207.579C171.556 207.582 168.545 207.636 165.001 207.538C161.458 207.441 157.86 207.527 154.221 207.328C150.582 207.128 146.9 206.878 143.182 206.575C139.464 206.273 127.276 205.437 123.496 205.03C119.717 204.623 115.912 204.163 112.088 203.65C108.421 203.157 104.736 202.61 101.044 202.019C104.891 202.459 108.668 202.921 112.684 203.302C115.892 203.606 119.146 203.889 122.438 204.146C125.731 204.403 137.499 205.115 140.856 205.316C144.214 205.517 147.599 205.688 151.001 205.825C154.403 205.962 157.821 206.066 161.247 206.131C164.673 206.195 168.107 206.221 171.538 206.205C174.969 206.189 178.398 206.13 181.812 206.024C185.227 205.918 188.214 205.764 191.196 205.56C194.179 205.356 197.142 205.103 200.075 204.793C203.008 204.482 205.913 204.116 208.779 203.69C211.255 203.323 213.685 202.89 216.093 202.43C216.233 202.168 216.394 201.927 216.529 201.661C217.098 200.534 217.619 199.365 218.079 198.155C218.492 197.07 218.838 195.942 219.146 194.792L218.561 195.1C218.067 195.359 217.648 195.522 217.184 195.728C216.235 196.149 215.214 196.539 214.13 196.897C213.046 197.256 211.901 197.585 210.701 197.885C209.501 198.185 208.248 198.456 206.952 198.702C205.656 198.947 204.318 199.167 202.945 199.363C201.572 199.559 200.164 199.732 198.732 199.884C195.868 200.187 192.908 200.408 189.923 200.567C186.938 200.725 183.929 200.823 180.97 200.879C178.011 200.936 175.103 200.953 172.318 200.952C166.75 200.949 161.68 200.874 157.682 200.902H157.675C154.007 200.902 150.347 200.817 146.698 200.653C143.047 200.49 139.406 200.248 135.778 199.926C132.15 199.605 128.537 199.206 124.936 198.732C121.335 198.258 117.747 197.709 114.176 197.088C101.861 194.694 87.354 190.747 76.3316 186.846C76.8423 187.001 77.3526 187.158 77.8648 187.31C81.3408 188.343 89.1025 190.394 92.6195 191.296C96.1369 192.198 99.6755 193.036 103.231 193.801C106.786 194.567 110.357 195.263 113.946 195.887C114.843 196.043 115.744 196.194 116.643 196.341C119.341 196.782 122.047 197.181 124.762 197.538C125.667 197.657 126.571 197.771 127.478 197.88C129.291 198.099 131.109 198.3 132.929 198.481C133.839 198.572 134.749 198.659 135.661 198.739C139.307 199.063 142.967 199.307 146.638 199.472C150.308 199.636 153.991 199.72 157.681 199.72H157.689C161.663 199.693 166.736 199.767 172.317 199.77H172.322C175.112 199.771 178.028 199.755 180.999 199.698C183.969 199.641 186.992 199.542 189.996 199.382C191.498 199.303 192.997 199.209 194.48 199.095C195.963 198.981 197.431 198.848 198.878 198.695C200.324 198.541 201.746 198.367 203.138 198.169C204.529 197.97 205.889 197.746 207.207 197.496C208.526 197.246 209.803 196.969 211.031 196.662C212.259 196.355 213.436 196.019 214.556 195.649C215.676 195.278 216.739 194.874 217.734 194.432C218.365 194.152 218.903 193.844 219.435 193.549C219.479 193.356 219.522 193.163 219.563 192.968C219.687 192.377 219.628 192.373 219.72 191.765C215.618 190.659 213.967 190.554 206.208 189.153C169.769 197.696 122.225 199.275 73.7993 185.269L73.7969 185.269ZM206.29 189.83L218.266 191.953C218.266 191.953 216.652 192.803 216.142 192.803C215.632 192.803 204.081 190.425 204.081 190.425L206.29 189.83ZM89.7022 194.525L90.3834 196.671L92.6353 196.656L90.8051 197.968L91.5146 200.105L89.7022 198.769L87.8891 200.105L88.5986 197.968L86.7685 196.656L89.0203 196.671L89.7022 194.525ZM95.9271 199.722L96.8363 202.584L99.839 202.564L97.3979 204.313L98.3445 207.162L95.9271 205.381L93.5097 207.162L94.4569 204.313L92.0159 202.564L95.0186 202.584L95.9271 199.722ZM93.0761 213.117C93.853 213.868 94.611 214.628 95.4344 215.354C96.7543 216.516 98.1344 217.642 99.5754 218.716C100.576 219.461 101.645 220.145 102.705 220.836C103.835 221.272 104.99 221.656 106.18 221.911C122.832 226.261 173.955 227.671 198.037 220.464C200.58 219.639 202.061 218.298 203.48 217.186C204.226 216.599 204.991 215.965 205.763 215.283C206.406 214.716 207.055 214.096 207.703 213.464L206.232 213.567C205.643 213.608 205.106 213.663 204.539 213.701C199.862 214.015 195.067 214.282 190.171 214.505C185.276 214.728 180.279 214.904 175.19 215.032C170.102 215.159 164.922 215.239 159.665 215.267C154.409 215.296 149.075 215.274 143.676 215.198C138.277 215.123 132.814 214.997 127.297 214.816C121.78 214.634 116.21 214.397 110.601 214.105C104.659 213.67 98.5227 213.522 93.0751 213.117L93.0761 213.117Z" fill="#3A2313"/>
<path d="M31.9377 159.136L73.8443 192.77H0L16.1125 175.953L0.288551 159.136H31.9377Z" fill="#D4B400"/>
<path d="M267.125 159.136L225.219 192.77H299.063L282.951 175.953L298.775 159.136H267.125Z" fill="#D4B400"/>
<path d="M23.0273 150.505C23.0273 195.671 47.165 237.478 86.28 260.062C125.395 282.646 173.672 282.645 212.788 260.062C251.903 237.479 276.04 195.672 276.04 150.505H238.617C238.617 182.361 221.663 211.726 194.076 227.653C166.488 243.581 132.582 243.581 104.995 227.653C77.407 211.725 60.453 182.36 60.453 150.505H23.0273Z" fill="#002B7F"/>
<path d="M230.501 181.026C230.051 182.26 229.612 183.499 229.109 184.71C228.37 186.488 227.573 188.24 226.722 189.964C226.252 190.915 225.726 191.835 225.223 192.768L274.285 181.026H271.57L230.501 181.026Z" fill="#AA9000"/>
<path d="M68.5607 181.026C69.0108 182.26 69.4499 183.499 69.9533 184.71C70.6925 186.488 71.4889 188.24 72.3405 189.964C72.8101 190.915 73.3365 191.835 73.8395 192.768L24.7773 181.026H27.4924L68.5607 181.026Z" fill="#AA9000"/>
<path d="M149.54 24.0008C84.3276 24.0008 30.642 73.7201 23.7584 137.526C23.7508 137.595 23.7454 137.664 23.738 137.733C23.6797 138.283 23.6251 138.833 23.5737 139.384C23.4827 140.331 23.3982 141.28 23.3359 142.234H60.8492C60.9931 140.651 61.1875 139.083 61.4122 137.526H23.8175C25.3106 136.441 26.8801 135.376 28.5237 134.332C36.7788 74.4459 87.7708 28.3672 149.542 28.3672C195.626 28.3672 235.703 54.0163 256.518 91.9084C257.11 92.0993 257.758 92.281 258.461 92.4405C259.558 92.6892 260.772 92.9069 262.053 93.104C241.035 52.0758 198.546 24 149.542 24L149.54 24.0008ZM263.101 99.2828C262.174 99.2841 261.233 99.3133 260.291 99.3722C265.348 110.276 268.87 122.048 270.566 134.41C272.203 135.429 273.769 136.468 275.261 137.526H237.668C237.892 139.084 238.087 140.652 238.231 142.235H275.745C275.682 141.258 275.594 140.288 275.501 139.32C275.464 138.92 275.423 138.522 275.382 138.124C275.362 137.925 275.343 137.725 275.323 137.526H275.319C273.865 124.048 270.316 111.202 265.017 99.3163C264.385 99.2982 263.753 99.2819 263.101 99.2828Z" fill="#002B7F"/>
<path d="M151.044 46.6982V50.1324C152.454 50.1532 153.856 50.2027 155.251 50.2809C155.51 49.0599 156.01 47.926 156.697 46.93C154.826 46.8024 152.941 46.7252 151.044 46.6982ZM173.285 49.417C173.564 50.2997 173.715 51.2376 173.715 52.2096V53.0505C194.292 58.1373 212.353 69.5685 225.72 85.1548C226.535 84.3801 227.428 83.6743 228.435 83.0809C214.327 66.5705 195.136 54.5387 173.285 49.417ZM122.911 50.1383C87.0429 59.6442 58.7955 87.8906 49.25 123.75C50.5606 123.206 51.8951 122.673 53.2525 122.151C63.0074 88.9268 89.4539 62.8659 122.912 53.6865L122.911 50.1383ZM244.292 108.145C243.481 109.156 242.7 110.212 241.939 111.299C243.43 114.815 244.731 118.432 245.82 122.141C247.174 122.651 248.506 123.173 249.814 123.704C248.382 118.334 246.526 113.136 244.292 108.145Z" fill="#14BCB0"/>
<path d="M149.538 35.6768C149.224 35.6768 148.911 35.6844 148.597 35.6869C149.413 36.8805 150.048 38.2057 150.467 39.6225C185.199 39.9076 216.094 56.1418 236.215 81.3663C238.347 81.547 240.429 82.1702 242.393 83.0289C221.528 54.3403 187.715 35.6768 149.538 35.6768ZM123.849 38.5672C79.5254 48.7132 44.983 84.5429 36.6719 129.542C38.112 128.806 39.5918 128.084 41.11 127.376C49.9126 85.8487 81.9132 52.9207 122.935 42.8222C123.017 41.3303 123.335 39.9011 123.849 38.5672ZM253.016 100.795C251.771 101.276 250.611 101.898 249.587 102.701C253.283 110.436 256.111 118.667 257.943 127.267C259.48 128.04 260.973 128.829 262.421 129.634C260.556 119.492 257.356 109.817 253.016 100.795Z" fill="#0471B0" fill-opacity="0.94118"/>
<path d="M151.043 57.8211V60.745C152.385 60.7671 153.72 60.8177 155.048 60.8981V57.9682C153.72 57.8903 152.385 57.8425 151.043 57.8211ZM173.714 60.9992V64.0237C176.711 64.8596 179.643 65.8489 182.505 66.9791C182.545 66.7923 182.596 66.6168 182.653 66.4589C182.79 66.0813 182.864 66.1075 183.031 65.8479C182.849 65.4773 182.74 65.3505 182.571 64.7752C182.486 64.4843 182.362 64.1757 182.34 63.7905C179.528 62.7244 176.65 61.7915 173.714 60.9992ZM122.911 61.6956C94.8049 70.1224 72.3097 91.5409 62.3828 118.972C63.5501 118.58 64.7314 118.195 65.9262 117.817C75.804 92.537 96.7987 72.8447 122.912 64.7471L122.911 61.6956ZM199.104 72.18C202.004 75.2437 204.951 78.6878 207.781 82.1959C211.984 85.7866 215.852 89.759 219.331 94.0598C219.692 93.49 220.052 92.9063 220.417 92.3105C220.591 92.0267 220.771 91.7374 220.949 91.45C214.736 83.9391 207.361 77.4237 199.104 72.18Z" fill="#FFD305"/>
<path d="M136.991 31.2141C130.151 31.2134 124.606 36.7563 124.606 43.596V108.828C121.031 107.712 119.213 104.711 119.173 101.628V81.5161C119.173 77.2907 115.749 73.8648 111.523 73.8645C107.298 73.8638 103.871 77.2904 103.871 81.5161V101.628C105.061 114.215 113.71 123.064 124.606 124.399V144.815H149.375V106.429C153.491 105.866 157.751 104.5 161.722 101.98C162.921 101.22 164.086 100.307 165.18 99.2638C165.015 99.2202 164.833 99.1571 164.567 99.0214C164.226 98.8469 163.867 98.6259 163.528 98.2522C163.188 97.8785 162.876 97.2868 162.857 96.631C162.853 96.5107 162.941 96.436 162.951 96.3229C161.57 96.0243 160.365 95.5697 159.54 94.6668C158.881 93.9448 158.515 92.8348 158.711 91.8362C158.738 91.6951 158.889 91.6195 158.932 91.4861C156.82 90.5392 155.612 89.0925 154.943 87.9441C153.566 89.3974 151.558 90.1717 149.375 90.7675V82.6473C147.886 82.1294 146.607 81.3095 145.716 80.2069C144.671 78.9146 144.328 77.2891 144.462 75.6782C143.062 75.1675 141.818 74.3581 141.021 73.2056C140.466 72.404 140.059 71.4639 140.118 70.3723C140.136 70.0417 140.317 69.7275 140.448 69.4041C140.255 69.2227 139.912 69.1661 139.768 68.9574C139.22 68.1663 139.059 67.2978 139.052 66.5814C139.046 65.8607 139.186 65.7604 139.323 65.303C138.881 64.9169 138.479 64.6297 137.843 63.8132C137.368 63.2042 136.76 62.6134 136.865 61.2953C136.917 60.6362 137.424 59.8481 138.012 59.5157C138.6 59.1833 139.152 59.1267 139.737 59.1229C142.553 59.1051 145.804 59.7242 149.375 60.8045V43.5976C149.375 36.7582 143.833 31.2154 136.994 31.2158L136.991 31.2141ZM164.394 44.5498C160.168 44.5498 156.744 47.9761 156.744 52.2021V63.466C158.544 64.2048 160.394 65.0141 162.289 65.8874C165.457 67.3468 168.733 68.9831 172.046 70.7269V52.2022C172.046 47.9758 168.62 44.5495 164.394 44.5498Z" fill="#036939"/>
<path d="M139.752 60.8016C136.383 60.8231 141.124 64.7344 141.124 64.7344C141.124 64.7344 139.549 68.1835 142.771 69.022C140.187 70.4535 143.237 74.3516 146.231 74.5349C144.755 77.3847 147.761 81.5845 152.438 81.7325C152.092 83.8382 155.543 85.3296 155.543 85.3296C155.543 85.3296 156.767 90.1671 161.391 90.6158C159.034 92.7011 160.7 94.8294 165.705 95.0329C162.267 97.5603 167.549 98.1164 167.549 98.1164C167.549 98.1164 166.909 102.025 171.128 100.866C168.851 104.509 176.292 104.182 176.292 104.182L178.889 106.774L180.604 108.598L186.521 111.423C186.521 111.423 188.837 114.877 192.13 118.601C181.119 126.939 175.311 134.458 168.957 144.813H188.305C191.86 143.794 195.546 143.506 199.51 143.235C230.311 143.029 232.34 115.14 248.077 101.771C253.097 97.4232 260.738 97.4202 266.541 97.6781C271.707 97.8915 279.439 99.0147 283.332 97.8023C277.911 95.4679 256.476 95.9972 252.191 91.5539C247.693 87.7344 241.091 82.7742 234.545 82.9972C233.61 83.029 232.677 83.167 231.75 83.4287C223.974 85.9112 222.145 95.0273 216.725 100.173C202.173 90.1962 157.618 60.6901 139.752 60.8011L139.752 60.8016ZM184.545 63.0739C183.325 63.0875 184.918 65.9492 184.918 65.9492C184.918 65.9492 183.15 67.7987 184.898 69.013C182.998 69.3706 183.919 72.488 185.682 73.24C184.117 74.7311 184.938 78.0291 187.727 79.1192C187.66 79.2375 187.622 79.3603 187.595 79.4844C188.248 79.8734 188.905 80.2616 189.552 80.6511C200.613 87.3109 210.518 93.9007 216.501 97.9808C216.707 97.7483 216.91 97.51 217.107 97.2635C208.399 85.117 193.746 66.1807 185.02 63.1658C184.828 63.0999 184.672 63.0711 184.545 63.0725L184.545 63.0739ZM238.965 89.379C239.235 89.3862 239.508 89.4331 239.776 89.5249C241.208 90.0142 241.979 91.5866 241.49 93.0184C241 94.4502 239.428 95.2212 237.996 94.7316C236.564 94.2422 235.793 92.6698 236.283 91.2381C236.681 90.0747 237.793 89.3482 238.965 89.379ZM239.053 90.3992C239.36 90.674 239.492 91.1098 239.353 91.5179C239.166 92.0654 238.562 92.3545 238.003 92.1637C237.642 92.0405 237.392 91.7467 237.308 91.4076C237.284 91.4598 237.258 91.5104 237.24 91.5659C236.926 92.4815 237.408 93.4627 238.324 93.7757C239.24 94.0888 240.221 93.6063 240.534 92.6905C240.847 91.7751 240.364 90.7942 239.449 90.4813C239.317 90.4363 239.185 90.4124 239.053 90.3992Z" fill="#002B7F"/>
<path d="M21.0809 147.403C20.801 158.882 22.0729 170.179 24.7781 181.036H274.278C276.982 170.178 278.255 158.882 277.975 147.403H21.0809Z" fill="#FFD305"/>
<path d="M106.89 150.529L102.713 153.913L104.363 155.772L108.854 152.932L106.89 150.529ZM115.279 156.148C111.979 156.148 109.639 158.237 109.639 160.848C109.639 163.104 111.164 164.462 112.793 165.109L114.778 165.945C116.115 166.509 116.971 166.801 116.971 167.7C116.971 168.535 116.323 169.057 114.945 169.057C113.712 169.057 112.271 168.41 111.164 167.47L109.054 170.039C110.663 171.522 112.835 172.274 114.861 172.274C118.621 172.274 120.794 169.997 120.794 167.407C120.794 165.214 119.645 163.919 117.723 163.146L115.781 162.373C114.402 161.83 113.42 161.495 113.42 160.639C113.42 159.803 114.13 159.344 115.279 159.344C116.491 159.344 117.452 159.762 118.475 160.535L120.334 158.195C118.976 156.838 117.075 156.148 115.279 156.148ZM172.301 156.148C168.061 156.148 165.179 159.031 165.179 164.128C165.179 169.225 168.061 172.274 172.301 172.274C176.542 172.274 179.424 169.225 179.424 164.128C179.424 159.052 176.542 156.148 172.301 156.148ZM204.034 156.148C199.877 156.148 196.389 159.114 196.389 164.295C196.389 169.559 199.773 172.274 204.097 172.274C206.27 172.274 208.192 171.418 209.278 170.374V163.105H203.492V166.154H205.956V168.661C205.622 168.911 205.037 169.057 204.473 169.057C201.59 169.057 200.212 167.261 200.212 164.17C200.212 161.141 201.862 159.344 204.16 159.344C205.455 159.344 206.27 159.866 207.022 160.556L209.005 158.175C207.94 157.109 206.311 156.148 204.034 156.148ZM246.554 156.148C242.313 156.148 239.43 159.031 239.43 164.128C239.43 169.225 242.313 172.274 246.554 172.274C250.794 172.274 253.676 169.225 253.676 164.128C253.676 159.052 250.794 156.148 246.554 156.148ZM45.3711 156.441V171.982H48.7134V166.655C48.7134 165.109 48.4206 162.79 48.2326 161.266H48.3167L49.5694 164.985L51.6794 170.666H53.7263L55.8152 164.985L57.1107 161.266H57.1941C57.0061 162.791 56.7133 165.109 56.7133 166.655V171.982H60.1187V156.441H56.0661L53.6849 163.146C53.3924 164.044 53.1416 165.026 52.8283 165.987H52.7238C52.4314 165.026 52.1805 164.044 51.8672 163.146L49.4025 156.441H45.3711ZM63.6896 156.441V171.982H67.4287V156.441H63.6896ZM75.7654 156.441V171.982H79.5045V166.822H81.3221C84.6016 166.822 87.4629 165.193 87.4629 161.495C87.4629 157.652 84.6435 156.441 81.2178 156.441H75.7654ZM91.8049 156.441L86.9792 171.982H90.7814L91.6795 168.41H96.2751L97.1731 171.982H101.1L96.2751 156.441H91.8049ZM102.732 156.441V171.982H106.472V156.441H102.732ZM135.494 156.441V171.982H138.836V166.655C138.836 165.109 138.543 162.79 138.355 161.266H138.438L139.692 164.985L141.802 170.666H143.849L145.938 164.985L147.232 161.266H147.317C147.129 162.791 146.836 165.109 146.836 166.655V171.982H150.24V156.441H146.188L143.807 163.146C143.514 164.044 143.264 165.026 142.951 165.987H142.846C142.554 165.026 142.303 164.044 141.99 163.146L139.525 156.441H135.494ZM153.812 156.441V171.982H157.55V156.441H153.812ZM182.289 156.441V171.982H186.028V166.509H187.824L190.686 171.982H194.863L191.396 165.819C193.005 165.067 194.07 163.606 194.07 161.329C194.07 157.569 191.313 156.441 187.991 156.441H182.289ZM212.314 156.441V164.671C212.314 169.914 214.466 172.274 218.623 172.274C222.759 172.274 224.848 169.914 224.848 164.671V156.441H221.255V165.068C221.255 168.013 220.315 169.057 218.623 169.057C216.91 169.057 216.032 168.013 216.032 165.068V156.441H212.314ZM225.917 156.441L230.596 166.488V171.982H234.314V166.488L239.014 156.441H235.108L233.813 159.887C233.374 161.057 232.956 162.143 232.518 163.355H232.434C231.995 162.143 231.599 161.057 231.181 159.887L229.885 156.441H225.917ZM93.9151 159.219H93.9986C94.4163 160.806 94.8131 162.665 95.2309 164.211L95.5653 165.527H92.3898L92.7241 164.211C93.121 162.666 93.5391 160.848 93.9151 159.219ZM172.301 159.344C174.349 159.344 175.623 161.12 175.623 164.128C175.623 167.157 174.349 169.057 172.301 169.057C170.254 169.057 169.001 167.157 169.001 164.128C169.001 161.12 170.254 159.344 172.301 159.344ZM246.554 159.344C248.601 159.344 249.875 161.12 249.875 164.128C249.875 167.157 248.601 169.057 246.554 169.057C244.507 169.057 243.253 167.157 243.253 164.128C243.253 161.12 244.507 159.344 246.554 159.344ZM79.5065 159.386H81.0312C82.8276 159.386 83.8302 159.929 83.8302 161.496C83.8302 163.02 82.9529 163.877 81.1356 163.877H79.5065V159.386ZM186.031 159.386H187.702C189.477 159.386 190.417 159.867 190.417 161.329C190.417 162.791 189.477 163.563 187.702 163.563H186.031V159.386ZM125.362 167.658C124.067 167.658 123.044 168.494 123.044 169.747C123.044 171.084 124.109 171.835 125.258 171.835H125.446C125.446 173.005 124.485 174.112 122.689 174.739L123.441 176.723C126.324 175.846 127.89 173.82 127.89 171.125C127.89 168.953 126.992 167.658 125.362 167.658Z" fill="black"/>
<path d="M89.4077 229.322L79.1875 244.113L82.7459 246.571L85.4248 242.695L88.5458 241.621L87.835 250.089L91.7311 252.781L92.5502 240.247L101.116 237.414L97.2202 234.722L88.9874 237.667L88.9276 237.626L92.9663 231.782L89.4077 229.322ZM204.189 233.435L200.588 235.51L205.571 244.157C207.272 247.109 206.934 248.698 205.238 249.675C203.521 250.665 202.038 250.125 200.337 247.173L195.354 238.526L191.628 240.674L196.382 248.922C199.41 254.177 202.93 255.3 207.096 252.899C211.241 250.51 211.972 246.938 208.943 241.683L204.189 233.435ZM113.839 235.822L110.7 237.563L114.311 242.539L116.858 241.238L113.839 235.822ZM110.558 242.172C107.315 242.188 104.47 244.263 102.833 248.372C100.652 253.849 102.444 258.36 107.001 260.175C111.559 261.99 115.962 259.946 118.143 254.468C120.316 249.013 118.461 244.659 113.903 242.844C112.764 242.39 111.639 242.167 110.558 242.172ZM179.409 245.336C178.579 245.341 177.716 245.473 176.834 245.733C172.13 247.124 169.877 251.266 171.549 256.92C173.22 262.575 177.417 265.013 182.122 263.622C186.826 262.232 189.024 257.904 187.353 252.249C186 247.674 183.007 245.315 179.409 245.336L179.409 245.336ZM111.315 246.021C111.716 246.03 112.125 246.115 112.538 246.279C114.738 247.155 115.347 249.609 114.06 252.842C112.763 256.097 110.58 257.594 108.38 256.718C106.18 255.842 105.647 253.262 106.943 250.007C107.989 247.381 109.576 245.983 111.315 246.021ZM128.881 247.997L126.193 265.773L130.469 266.419L131.416 260.16L133.471 260.471L135.797 267.226L140.576 267.948L137.675 260.301C139.645 259.719 141.116 258.23 141.51 255.626C142.161 251.325 139.202 249.559 135.403 248.984L128.881 247.997ZM178.722 249.13C180.639 249.023 182.275 250.576 183.138 253.496C184.131 256.856 183.341 259.382 181.07 260.054C178.799 260.725 176.786 259.027 175.793 255.667C174.806 252.33 175.614 249.95 177.885 249.278C178.169 249.195 178.449 249.145 178.722 249.13ZM156.503 249.447C156.372 249.45 156.241 249.454 156.112 249.463C152.302 249.706 149.755 252.29 149.948 255.304C150.115 257.909 151.975 259.364 153.904 259.991L156.257 260.809C157.841 261.362 158.852 261.636 158.918 262.673C158.98 263.638 158.271 264.288 156.68 264.39C155.257 264.481 153.545 263.84 152.198 262.837L149.952 265.958C151.918 267.552 154.481 268.259 156.82 268.11C161.161 267.832 163.501 265.043 163.31 262.053C163.148 259.521 161.725 258.111 159.45 257.361L157.151 256.612C155.519 256.087 154.361 255.773 154.298 254.784C154.236 253.82 155.021 253.237 156.348 253.152C157.746 253.062 158.886 253.474 160.125 254.29L162.099 251.452C160.535 250.077 158.465 249.415 156.503 249.447ZM132.65 252.013L134.561 252.302C136.592 252.609 137.584 253.321 137.331 254.993C137.078 256.665 135.869 257.387 133.838 257.08L131.927 256.791L132.65 252.013Z" fill="white"/>
<path d="M35.5117 205.268C36.2794 206.866 37.0778 208.448 37.9114 210.011H83.2324C81.8529 208.475 80.5305 206.892 79.2646 205.268H35.5117ZM219.798 205.268C218.533 206.892 217.21 208.475 215.831 210.011H261.152C261.985 208.448 262.784 206.866 263.551 205.268H219.798Z" fill="white"/>
</svg>
