<svg width="300" height="300" viewBox="0 0 300 300" fill="none" xmlns="http://www.w3.org/2000/svg">
<path fill-rule="evenodd" clip-rule="evenodd" d="M150.001 213.682C106.41 184.388 68.5138 142.258 67.7891 18.7153C116.66 40.6601 183.237 40.246 232.212 18.7153C231.487 142.258 193.488 184.388 150.001 213.682Z" fill="#D87900" stroke="#554400" stroke-width="1.42462"/>
<path d="M131.346 187.412C131.346 187.109 131.285 186.319 131.346 185.226C131.285 184.133 131.346 182.676 131.346 180.915V177.09C131.346 175.39 131.346 173.811 131.467 172.414C131.528 171.018 131.528 170.046 131.589 169.621H131.528C131.164 169.985 130.496 170.593 129.463 171.564C128.37 172.475 127.398 173.446 126.305 174.297L127.337 175.632C128.127 174.904 128.673 174.357 129.099 173.932V180.369C129.099 182.069 129.038 183.587 129.038 184.862C128.977 186.259 128.977 187.109 128.916 187.473L131.346 187.412Z" fill="white"/>
<path d="M139.124 188.384C140.339 187.594 141.493 186.501 142.586 185.166C143.68 183.769 144.53 182.251 145.259 180.611C145.988 178.911 146.291 177.211 146.291 175.45C146.231 173.811 145.684 172.475 144.712 171.443C143.68 170.471 142.404 169.985 140.764 169.985C139.185 170.046 137.788 170.714 136.634 171.868C135.48 172.961 134.934 174.418 134.934 176.057C134.994 177.697 135.784 178.911 137.242 179.822C138.699 180.733 140.461 181.097 142.708 180.976C141.979 182.372 141.25 183.587 140.278 184.619C139.307 185.591 138.456 186.319 137.788 186.805L139.124 188.384ZM143.862 175.875C143.862 176.604 143.862 177.272 143.74 177.879C143.619 178.426 143.498 178.911 143.376 179.276C141.797 179.518 140.339 179.276 139.246 178.668C138.031 178 137.363 177.029 137.302 175.572C137.302 174.6 137.606 173.689 138.213 172.961C138.821 172.232 139.61 171.868 140.643 171.746C141.554 171.746 142.344 172.05 142.89 172.779C143.498 173.446 143.801 174.539 143.862 175.875Z" fill="white"/>
<path d="M156.134 169.075C154.98 169.925 153.826 171.018 152.672 172.354C151.639 173.75 150.668 175.268 150 176.908C149.271 178.608 148.906 180.247 148.906 181.887C148.967 182.919 149.088 183.708 149.392 184.437C149.635 185.166 150.121 185.712 150.607 186.259C151.093 186.684 151.7 187.048 152.247 187.23C152.854 187.412 153.583 187.534 154.312 187.534C155.83 187.412 157.288 186.805 158.442 185.651C159.657 184.558 160.325 183.101 160.325 181.28C160.203 179.64 159.414 178.426 158.078 177.515C156.62 176.604 154.798 176.179 152.55 176.3C153.219 174.965 154.008 173.811 154.98 172.839C156.012 171.868 156.863 171.139 157.531 170.775L156.134 169.075ZM151.214 181.705C151.214 180.915 151.214 180.247 151.336 179.701C151.457 179.094 151.639 178.547 151.822 178.061C153.401 177.879 154.798 178.122 155.952 178.79C157.166 179.458 157.835 180.429 157.895 181.887C157.895 182.858 157.592 183.708 156.984 184.437C156.377 185.226 155.466 185.651 154.433 185.651C153.522 185.712 152.733 185.348 152.186 184.68C151.579 183.951 151.275 182.98 151.214 181.705Z" fill="white"/>
<path d="M168.881 169.742C167.241 169.742 165.966 170.35 165.115 171.443C164.022 172.839 163.172 175.086 163.172 178.243C163.172 181.401 163.961 183.951 164.933 185.165C165.905 186.441 167.241 187.048 168.881 187.048C170.46 187.048 171.736 186.501 172.586 185.348C173.679 183.951 174.53 181.401 174.53 178.243C174.53 175.086 173.679 172.839 172.647 171.503C171.736 170.35 170.46 169.742 168.881 169.742ZM168.517 171.807C169.003 171.807 169.61 171.868 170.035 172.111C170.521 172.293 170.946 172.9 171.311 173.689C171.675 174.6 171.797 175.693 172.039 177.94C172.161 180.247 172.039 181.947 171.797 182.919C171.675 183.708 171.371 184.133 170.764 184.558C170.46 184.862 169.914 185.044 169.428 185.105C168.76 185.105 168.213 184.983 167.788 184.801C167.241 184.558 166.816 183.951 166.452 183.162C166.148 182.312 165.905 180.794 165.662 178.425C165.541 176.118 165.723 174.904 166.027 173.932C166.209 173.204 166.512 172.536 166.998 172.293C167.302 171.989 167.909 171.868 168.517 171.807Z" fill="white"/>
<path d="M152.898 108.72C169.361 95.1597 185.721 76.1134 191.83 42.6269C192.037 40.9707 196.179 40.9707 196.903 42.1094C197.628 43.455 198.974 46.0429 197.939 49.0447C201.045 48.1131 202.391 49.2518 201.149 56.1871C205.497 56.0836 203.944 61.5698 201.666 68.4534C204.462 68.5569 204.565 71.7658 200.424 79.1152C206.947 80.6679 196.179 91.4333 194.211 92.986C200.32 92.8825 187.792 103.648 177.438 111.825" fill="white"/>
<path d="M194.605 41.304C193.307 41.2797 191.958 41.6921 191.841 42.6237C188.948 58.4867 183.736 71.108 177.32 81.4419L178.623 81.8291C178.623 81.8291 178.244 82.2071 186.367 66.7136C194.491 51.22 191.245 53.3496 193.244 45.228C194.125 41.6503 195.621 43.2475 196.244 46.0421C196.72 48.1764 196.114 51.5298 197.738 50.7182C201.487 48.844 198.988 58.3375 198.988 58.3375C198.988 58.3375 200.741 58.9694 202.49 57.8448C204.24 56.7203 198.864 71.2183 198.864 71.2183C198.864 71.2183 199.123 71.9663 201.997 70.0921C204.872 68.2179 198.122 81.0813 199.621 80.4565C201.121 79.8318 202.241 82.4568 197.492 87.8295C192.742 93.2023 192.118 94.7011 193.742 94.0763C194.592 93.7496 194.801 94.9204 194.799 96.1176C196.206 94.1739 196.292 92.9502 194.218 92.9854C196.185 91.4327 206.954 80.6719 200.431 79.1192C204.573 71.7698 204.459 68.5591 201.663 68.4556C203.941 61.572 205.501 56.0872 201.153 56.1908C202.395 49.2554 201.055 48.1149 197.949 49.0465C198.985 46.0446 197.635 43.4591 196.911 42.1134C196.594 41.6153 195.614 41.3229 194.605 41.304Z" fill="white"/>
<path d="M177.756 80.7383C170.546 92.5712 161.743 101.435 152.902 108.717L157.567 109.315C158.423 108.571 160.102 107.994 160.964 107.133C161.724 106.373 162.3 104.724 163.076 103.948C165.071 101.954 167.584 100.691 169.448 98.8276C173.555 94.7212 176.928 88.1464 180.22 84.8559C180.769 84.3063 179.079 82.1314 178.812 81.8645C178.407 81.4597 178.065 81.0514 177.756 80.7383Z" fill="white"/>
<path d="M178.811 82.0337C179.544 85.2897 178.987 88.0427 177.397 89.6319C176.69 90.4214 177.284 91.4908 177.888 92.4429C180.641 97.2979 172.527 101.901 173.509 107.832C173.685 108.008 174.158 105.946 174.216 105.889C175.621 104.483 176.098 101.947 176.867 100.411C178.266 97.6138 178.455 97.2362 179.872 94.4029C180.204 93.7378 178.575 91.3412 179.165 90.162C180.689 87.115 182.087 84.6533 178.811 82.0337Z" fill="#C8C8C8"/>
<path d="M174.224 109.568C173.981 107.079 174.649 103.618 176.41 101.067C179.326 96.9384 181.391 93.1737 178.597 91.2307C180.966 87.891 181.512 83.8835 178.05 81.2725" stroke="#525252" stroke-width="0.957258" stroke-linecap="round" stroke-linejoin="round"/>
<path d="M152.898 108.72C169.361 95.1597 185.721 76.1134 191.83 42.6269C192.037 40.9707 196.179 40.9707 196.903 42.1094C197.628 43.455 198.974 46.0429 197.939 49.0447C201.045 48.1131 202.391 49.2518 201.149 56.1871C205.497 56.0836 203.944 61.5698 201.666 68.4534C204.462 68.5569 204.565 71.7658 200.424 79.1152C206.947 80.6679 196.179 91.4333 194.211 92.986C200.32 92.8825 187.792 103.648 177.438 111.825" stroke="#343434" stroke-width="0.957258" stroke-linecap="round" stroke-linejoin="round"/>
<path d="M197.817 47.4644L194.57 61.356C194.57 61.356 198.154 49.4892 198.518 49.307C197.6 49.4909 197.774 48.4021 197.817 47.4644Z" fill="#525252"/>
<path d="M201.102 54.0327L196.641 67.3066L201.682 56.6805C201.172 56.4305 201.121 55.2643 201.102 54.0327Z" fill="#525252"/>
<path d="M202.081 66.177L195.848 77.3257L202.112 68.9947C201.132 68.8436 201.361 67.6805 202.081 66.177Z" fill="#525252"/>
<path d="M200.991 76.9905L196.215 84.7943L200.593 79.5618C200.132 78.5797 200.703 77.9725 200.991 76.9905Z" fill="#525252"/>
<path d="M205.086 97.1123C204.94 97.4418 202.744 101.055 203.072 102.677C203.251 103.564 204.5 104.984 204.5 104.984C204.5 104.984 206.055 102.393 205.893 100.994C205.746 99.7292 205.086 97.1123 205.086 97.1123ZM199.953 98.2222C199.953 98.2222 197.053 102.631 197.056 104.693C197.058 106.227 198.487 109.067 198.487 109.067C198.487 109.067 200.489 106.311 200.635 104.693C200.818 102.663 199.953 98.2222 199.953 98.2222ZM210.055 101.376L202.53 106.41C202.53 106.41 202.104 106.745 201.207 107.447C200.285 108.169 198.883 109.265 198.324 109.703C195.336 112.042 193.05 113.418 190.105 115.811C187.121 118.236 181.558 123.557 181.558 123.557L176.914 128.501L177.4 128.725L182.044 123.707C182.044 123.707 186.329 119.398 189.333 116.836C189.387 117.211 190.319 119.342 191.379 120.118C192.784 121.146 196.072 120.995 196.072 120.995C196.072 120.995 195.018 117.976 193.764 117.177C192.63 116.455 190.044 116.638 189.517 116.683C189.779 116.462 190.052 116.229 190.288 116.042C191.219 115.305 191.372 115.167 192.501 114.366C192.632 114.571 195.701 117.215 197.464 117.972C199.145 118.694 202.952 117.932 202.952 117.932C202.952 117.932 199.53 115.154 197.708 114.383C196.202 113.745 193.098 114.214 192.63 114.277C195.019 112.585 197.456 110.819 198.633 109.705C199.191 109.178 200.422 108.313 201.247 107.629C202.094 106.926 210.055 101.376 210.055 101.376ZM193.012 101.572C193.012 101.572 191.584 105.817 191.619 108.014C191.648 109.817 192.931 113.262 192.931 113.262V113.502C192.931 113.502 195.346 109.684 195.358 107.537C195.37 105.401 193.012 101.572 193.012 101.572ZM208.895 105.424C207.22 105.345 205.599 106.073 203.994 106.556C203.592 106.677 202.816 106.997 202.816 106.997C203.365 107.034 205.682 108.912 207.32 108.975C209.427 109.056 213.29 106.887 213.29 106.887C213.29 106.887 210.437 105.497 208.895 105.424ZM187.428 107.093C187.428 107.093 186.312 111.273 186.791 113.296C187.2 115.024 187.997 117.375 187.997 117.375C187.997 117.375 191.637 113.689 191.166 111.626C190.729 109.717 187.428 107.093 187.428 107.093ZM202.084 110.265C200.455 110.31 198.434 110.555 198.225 110.526C198.225 110.526 200.583 113.512 202.282 114.144C203.811 114.712 208.162 113.479 208.162 113.479C208.162 113.479 205.244 111.106 203.545 110.454C203.138 110.298 202.627 110.25 202.084 110.265Z" fill="#E6E6E6" stroke="#343434" stroke-width="1.52035" stroke-linecap="round" stroke-linejoin="round"/>
<path d="M153.935 109.548C143.581 107.167 115.521 69.592 104.028 50.9079C102.889 49.2517 101.543 48.6306 100.922 48.4236C99.4726 48.0095 94.5026 47.4919 98.1266 57.0151C92.0177 57.9468 93.2602 62.5013 96.0558 67.6252C90.9823 71.1447 93.3637 74.5606 96.0558 78.08C93.5708 81.5995 94.7097 84.8084 97.1947 87.9137C96.3664 90.2945 95.7451 92.7789 99.3691 96.5053C99.0585 98.7826 97.6089 101.06 102.475 104.165C100.612 108.616 102.475 110.066 104.857 111.204C105.064 118.14 107.963 119.071 110.966 119.175C110.655 121.348 111.483 123.419 115.314 123.108C115.832 125.592 116.764 127.766 120.284 127.766C125.047 128.594 128.361 130.665 129.707 133.873L121.423 145.26C119.974 146.916 122.355 152.506 127.015 151.367C128.361 153.748 129.292 156.646 134.677 154.783C137.265 158.406 140.268 159.338 143.581 156.336C145.962 159.131 149.379 159.441 151.243 156.336C154.039 157.474 157.973 157.578 158.905 154.162C162.115 154.576 166.36 155.094 167.499 150.229C170.916 151.781 174.022 150.953 173.919 145.57L157.559 127.456C159.319 127.456 161.079 127.249 162.425 126.11C164.393 125.903 166.049 125.282 167.499 124.143C169.466 124.143 171.33 123.419 173.09 121.97H189.243C189.243 121.97 186.384 118.273 182.115 116.618C180.698 116.069 182.091 113.854 181.199 112.707C179.787 110.89 176.495 109.784 174.85 109.755C167.706 109.341 162.633 111.515 153.935 109.548Z" fill="#EDEDED" stroke="#343434" stroke-width="0.957258" stroke-linecap="round" stroke-linejoin="round"/>
<path d="M98.0782 57.0176C97.6255 57.0887 97.2196 57.189 96.8462 57.2991C105.142 71.2258 116.509 85.7868 98.0782 57.0176ZM95.7901 67.8219C94.6976 68.6231 93.9714 69.4218 93.5547 70.2151C98.45 73.1077 100.961 78.4847 104.221 81.864C107.225 84.8673 110.152 82.8315 107.583 80.2628C106.685 79.365 104.414 76.1182 102.813 75.3181C101.379 74.6013 98.4204 69.3928 95.7901 67.8219ZM95.1036 76.7962C95.329 77.1101 95.5685 77.4311 95.8077 77.7464C95.6307 77.2922 95.3868 76.8097 95.1036 76.7962ZM95.9661 78.2039C94.7408 79.9991 94.4722 81.7155 94.822 83.3774C99.5456 87.0577 108.351 91.4015 110.945 94.4105C111.841 92.1713 109.576 90.5722 107.477 88.674C104.518 85.9975 101 83.237 99.4512 81.6881C98.3672 80.6044 97.1411 79.5546 96.0893 78.5031C96.0676 78.4815 96.0235 78.3692 95.9661 78.2039ZM97.0926 88.2516C96.8384 89.0115 96.6099 89.7817 96.5645 90.6096C97.2178 91.432 97.9422 92.1805 98.043 92.2813C100.057 94.2947 109.776 100.026 113.409 101.291L113.761 102.171C113.392 101.248 113.679 99.4487 113.057 98.8272C109.438 95.2093 104.227 91.6594 99.8032 89.4482C99.4739 89.2836 98.2059 88.5343 97.0926 88.2516ZM99.3456 96.5748C99.2184 97.4436 98.9631 98.3147 98.9407 99.2319C100.946 100.745 104.53 102.598 106.527 103.596C108.525 104.595 111.904 105.973 114.131 105.356C112.298 105.356 113.03 104.801 112.177 103.948C110.79 102.561 107.092 102.208 105.823 100.939C105.028 100.144 100.975 97.4937 99.3456 96.5748ZM102.32 104.053C102.375 104.09 102.422 104.123 102.479 104.159C102.098 105.067 101.872 105.853 101.775 106.535C105.316 108.172 112.874 109.41 115.486 109.825C115.029 109.625 115.129 109.215 114.483 108.892C113.07 108.186 108.997 106.987 108.287 106.763C106.798 106.295 103.901 104.844 102.32 104.053ZM115.504 109.843C115.666 109.908 115.896 109.948 116.243 109.948C116.095 109.924 115.759 109.883 115.504 109.843ZM107.847 110.74C106.644 110.738 105.543 110.834 104.661 111.092C104.728 111.125 104.787 111.165 104.855 111.198C104.91 113.043 105.154 114.469 105.541 115.562C108.683 114.786 115.978 112.441 117.792 112.887C117.266 112.54 119.542 111.562 118.003 111.55C115.511 111.529 111.264 110.744 107.847 110.74ZM117.968 116.389C115.926 116.408 112.557 118.037 110.927 119.609C110.887 120.203 110.947 120.774 111.138 121.281C112.613 120.344 115.482 118.43 116.419 118.43C118.094 118.43 119.267 116.982 119.605 117.374C119.464 116.669 118.839 116.381 117.968 116.389ZM122.597 118.852C120.151 118.79 117.054 121.336 115.644 124.342C115.891 125.133 116.222 125.847 116.736 126.419C119.518 126.277 122.41 120.613 124.551 119.679C124.001 119.136 123.329 118.871 122.597 118.852ZM159.965 130.132C159.771 131.069 161.501 133.815 161.848 134.161C165.757 138.232 169.288 144.084 173.395 148.89C173.755 148.066 173.95 146.973 173.923 145.564L159.965 130.132ZM129.145 139.106C129.041 139.106 127.252 141.191 127.033 141.411C125.789 142.732 123.895 146.371 121.576 148.784C121.958 149.518 122.543 150.196 123.266 150.702C124.087 149.361 124.745 147.903 124.903 147.588C126.15 145.16 129.66 141.974 129.145 139.106ZM159.542 139.458C158.984 139.179 160.626 148.767 161.707 154.397C162.678 154.413 163.643 154.318 164.506 153.993C162.72 148.624 159.682 139.528 159.542 139.458ZM147.098 142.467C146.239 142.526 145.936 145.797 145.936 147.939C145.936 149.687 145.408 153.517 145.408 155.189C145.408 156.109 145.471 157.056 145.584 157.987C146.413 158.424 147.278 158.618 148.101 158.533C148.127 157.962 148.066 157.296 148.066 156.949C148.066 153.701 149.796 148.202 148.946 145.652C148.161 143.297 147.548 142.436 147.098 142.467ZM134.601 142.484C134.152 142.569 133.226 143.862 131.627 147.06C131.231 147.85 130.677 148.641 130.377 149.541C129.869 151.062 128.74 152.124 128.282 153.553C128.976 154.536 129.889 155.296 131.451 155.365C133.372 151.526 135.859 142.249 134.601 142.484ZM153.135 142.66C152.686 142.644 152.836 144.624 152.836 147.588C153.346 153.285 153.831 155.859 154.244 157.037C154.71 157.064 155.176 157.032 155.617 156.967C155.797 153.341 155.569 146.718 155.124 145.828C154.024 143.629 153.443 142.672 153.135 142.66ZM139.565 144.754C139.447 144.77 139.324 144.837 139.213 144.948C139.163 144.998 137.811 153.945 137.277 155.013C136.977 155.613 136.753 156.241 136.59 156.879C138.091 158.111 139.701 158.464 141.413 157.758C143.472 153.644 141.253 144.538 139.565 144.754Z" fill="white"/>
<path d="M175.547 115.326C175.547 116.378 174.694 117.232 173.641 117.232C172.588 117.232 171.734 116.378 171.734 115.326C171.734 114.273 172.588 113.42 173.641 113.42C174.694 113.42 175.547 114.273 175.547 115.326Z" fill="#343434"/>
<path d="M116.064 78.4995C116.53 89.3494 121.344 101.161 130.028 106.949C131.195 107.727 134.235 109.422 135.33 109.422C136.163 109.422 137.805 108.943 137.805 109.776C128.598 98.473 122.6 89.2686 116.064 78.4995C116.037 78.4559 114.1 76.7531 114.474 76.379C114.925 75.9284 115.976 78.2788 116.064 78.4995Z" fill="#C8C8C8"/>
<path d="M129.564 134.073L121.415 145.265C120.899 145.855 120.888 146.939 121.274 148.045L121.257 147.799L129.934 134.126L129.564 134.073ZM161.001 138.367L165.735 153.289C166.525 152.65 167.153 151.688 167.495 150.227C168.835 150.836 170.122 151.08 171.192 150.825L161.001 138.367ZM131.941 138.561L124.988 151.441C125.603 151.555 126.278 151.551 127.012 151.371C127.303 151.884 127.574 152.411 127.875 152.919L131.941 138.561ZM156.248 140.004L157.515 156.228C158.146 155.769 158.648 155.115 158.906 154.169C159.527 154.249 160.191 154.314 160.86 154.362L156.248 140.004ZM143.874 141.746L142.413 157.248C142.801 157 143.179 156.692 143.575 156.333C144.044 156.883 144.56 157.338 145.089 157.688L143.874 141.746ZM137.82 141.798L132.416 155.33C133.071 155.255 133.805 155.084 134.669 154.785C135.048 155.316 135.451 155.781 135.848 156.192L137.82 141.798ZM150.933 141.939L149.348 158.163C150.065 157.81 150.723 157.211 151.249 156.333C151.795 156.555 152.373 156.736 152.974 156.861L150.933 141.939Z" fill="#C8C8C8"/>
<path d="M95.9336 67.3674L110.693 84.7335" stroke="#525252" stroke-width="0.957258" stroke-linecap="round" stroke-linejoin="round"/>
<path d="M95.9336 77.9937L110.693 91.5344" stroke="#525252" stroke-width="0.957258" stroke-linecap="round" stroke-linejoin="round"/>
<path d="M97.0273 87.7695L112.09 98.5778" stroke="#525252" stroke-width="0.957258" stroke-linecap="round" stroke-linejoin="round"/>
<path d="M99.0352 95.9668C102.436 98.8207 108.449 103.618 112.215 102.889" stroke="#525252" stroke-width="0.957258" stroke-linecap="round" stroke-linejoin="round"/>
<path d="M102.012 103.557C104.138 104.953 106.749 107.261 114.645 107.929" stroke="#525252" stroke-width="0.957258" stroke-linecap="round" stroke-linejoin="round"/>
<path d="M103.773 110.661L117.682 111.39" stroke="#525252" stroke-width="0.957258" stroke-linecap="round" stroke-linejoin="round"/>
<path d="M110.695 119.405L119.32 114.669" stroke="#525252" stroke-width="0.957258" stroke-linecap="round" stroke-linejoin="round"/>
<path d="M120.355 127.784L126.186 121.166" stroke="#525252" stroke-width="0.957258" stroke-linecap="round" stroke-linejoin="round"/>
<path d="M126.973 151.587L131.771 138.714" stroke="#525252" stroke-width="0.957258" stroke-linecap="round" stroke-linejoin="round"/>
<path d="M134.688 154.926L137.602 142.054" stroke="#525252" stroke-width="0.957258" stroke-linecap="round" stroke-linejoin="round"/>
<path d="M143.617 156.505L143.921 141.629" stroke="#525252" stroke-width="0.957258" stroke-linecap="round" stroke-linejoin="round"/>
<path d="M151.451 156.505L150.965 142.054" stroke="#525252" stroke-width="0.957258" stroke-linecap="round" stroke-linejoin="round"/>
<path d="M159.648 154.319L156.43 140.05" stroke="#525252" stroke-width="0.957258" stroke-linecap="round" stroke-linejoin="round"/>
<path d="M167.97 150.433L160.863 138.35" stroke="#525252" stroke-width="0.957258" stroke-linecap="round" stroke-linejoin="round"/>
<path d="M98 56.8628C102.859 64.0278 108.508 70.95 110.694 78.9044" stroke="#525252" stroke-width="0.957258" stroke-linecap="round" stroke-linejoin="round"/>
<path d="M115.375 123.534L121.692 117.766" stroke="#525252" stroke-width="0.957258" stroke-linecap="round" stroke-linejoin="round"/>
<path d="M114.16 76.4146C119.93 85.0976 130.013 106.471 138.698 110.722C139.488 111.086 141.006 111.815 141.674 111.268C140.52 110.782 139.791 110.418 139.002 109.872C131.774 104.771 118.715 76.4753 114.16 76.4146Z" fill="#525252"/>
<path d="M160.124 123.199C159.477 123.845 158.222 123.463 157.624 124.061C154.274 127.41 159.123 127.824 156.005 130.941C154.533 132.413 150.496 129.815 150.496 129.815C149.749 131.286 146.083 134.481 144.001 133.44C140.557 131.719 144.561 128.111 143.385 126.934C143.11 126.66 139.678 129.489 139.371 129.182C138.349 130.159 136.862 127.467 136.01 128.319C135.863 128.466 133.343 130.158 132.753 129.569C132.507 129.322 132.645 128.512 132.26 128.319C131.43 127.904 130.884 127.947 130.254 127.316C129.983 127.046 130.155 126.338 129.884 126.067C129.543 125.726 122.3 127.033 122.14 127.193C121.854 127.479 122.116 127.902 122.263 128.196C122.267 128.204 122.277 128.206 122.28 128.214C123.776 128.625 125.096 129.167 126.206 129.868C126.499 129.868 126.774 129.943 127.015 130.185C128.046 131.215 130.208 132.807 131.75 132.807C132.298 132.807 135.376 133.213 135.376 132.683C135.376 130.792 138.876 131.555 139.759 132.437C140.927 133.605 140.279 135.579 141.378 136.678C141.603 136.903 142.542 136.592 142.751 136.801C144.569 138.619 149.705 133.334 151.252 132.56C152.394 131.989 155.7 134.995 158.258 132.437C158.932 131.763 159.633 131.143 160.388 130.589L157.554 127.457C159.314 127.457 161.083 127.241 162.429 126.102C164.397 125.895 166.049 125.288 167.499 124.149C169.466 124.149 171.336 123.416 173.096 121.967H188.356C188.365 121.915 188.374 121.864 188.374 121.809C184.831 122.273 181.528 120.525 178.253 119.433C173.672 118.609 163.384 120.299 160.124 123.199Z" fill="#C8C8C8"/>
<path d="M140.885 131.367C139.306 131.549 137.423 131.306 136.573 130.274C133.597 132.703 130.499 132.278 130.56 131.003C130.56 130.578 130.925 129.546 130.196 129.546C129.285 129.546 126.977 129.91 127.402 128.695C127.584 128.088 128.981 126.57 126.794 126.935C125.944 127.056 124.79 127.602 123.94 127.906C123.393 128.088 123.636 128.938 123.758 128.999C124.183 129.181 128.92 131.428 128.92 131.549C129.467 133.796 134.69 134.282 136.512 131.61C137.302 132.824 139.428 132.642 139.853 133.189C138.82 140.779 147.081 136.893 150.36 133.128C154.43 135.193 161.475 131.974 159.714 129.971C159.046 129.242 157.588 136.286 150.421 131.064C149.571 132.824 146.534 136.711 142.768 136.893C141.979 136.771 140.946 136.225 141.25 134.707C141.736 132.217 144.226 126.206 143.679 125.902C143.315 125.72 141.675 129.546 140.885 131.367Z" fill="#525252"/>
<path d="M135.353 120.194C131.952 122.38 128.065 122.805 125.21 121.591C123.813 120.134 122.295 119.041 119.987 119.344C119.379 117.826 118.59 116.915 117.314 116.065C119.197 114.183 116.342 112.301 115.31 111.936C115.614 109.993 115.431 108.84 111.726 107.382C111.909 105.561 111.362 103.739 110.694 101.917C112.941 100.703 111.544 98.4563 108.507 96.4525C109.601 94.8738 111.787 94.6309 108.021 88.2553L108.204 82.6082C112.03 81.5153 108.082 76.0504 107.414 71.9214C114.945 81.2117 113.791 88.8625 111.544 90.8055C113.184 92.2628 114.277 96.7562 113.245 98.7599C114.46 101.249 115.553 104.043 115.249 107.139C117.982 108.475 119.744 110.6 118.468 112.058C120.473 113.515 121.991 115.094 122.234 117.037C125.939 116.551 128.733 118.008 127.336 120.073C129.644 120.862 132.681 119.769 135.353 120.194Z" fill="#525252"/>
<path d="M99.3579 48.2546C98.7064 48.2992 98.0212 48.5211 97.5273 49.0992L97.633 49.2224C97.633 49.2224 113.499 68.7173 130.372 92.4573C147.244 116.197 161.504 113.945 166.754 112.57C172.003 111.196 178.367 111.448 179.867 112.447C180.034 112.559 180.258 112.557 180.518 112.465C178.579 110.919 176.593 109.786 174.85 109.755C167.706 109.341 162.3 110.233 153.602 108.266C143.248 105.886 115.515 69.5957 104.022 50.9116C102.883 49.2554 101.546 48.6375 100.924 48.4305C100.562 48.327 99.971 48.2125 99.3579 48.2546Z" fill="white"/>
<path d="M153.606 108.267C143.251 105.886 115.521 69.592 104.028 50.9079C102.889 49.2517 101.543 48.6306 100.922 48.4236C99.4726 48.0095 94.5026 47.4919 98.1266 57.0151C92.0177 57.9468 93.2602 62.5013 96.0558 67.6252C90.9823 71.1447 93.3637 74.5606 96.0558 78.08C93.5708 81.5995 94.7097 84.8084 97.1947 87.9137C96.3664 90.2945 95.7451 92.7789 99.3691 96.5053C99.0585 98.7826 97.6089 101.06 102.475 104.165C100.612 108.616 102.475 110.066 104.857 111.204C105.064 118.14 107.963 119.071 110.966 119.175C110.655 121.348 111.483 123.419 115.314 123.108C115.832 125.592 116.764 127.766 120.284 127.766C125.047 128.594 128.361 130.665 129.707 133.873L121.423 145.26C119.974 146.916 122.355 152.506 127.015 151.367C128.361 153.748 129.292 156.646 134.677 154.783C137.265 158.406 140.268 159.338 143.581 156.336C145.962 159.131 149.379 159.441 151.243 156.336C154.039 157.474 157.973 157.578 158.905 154.162C162.115 154.576 166.36 155.094 167.499 150.229C170.916 151.781 174.022 150.953 173.919 145.57L157.559 127.456C159.319 127.456 161.079 127.249 162.426 126.11C164.393 125.903 166.049 125.282 167.499 124.143C169.466 124.143 171.33 123.419 173.09 121.97H189.243C189.243 121.97 185.717 117.635 182.348 116.557C181.22 116.196 181.715 113.651 180.746 112.615C179.253 111.021 176.878 109.791 174.85 109.755C167.706 109.341 162.303 110.233 153.606 108.267Z" stroke="#343434" stroke-width="0.957258" stroke-linecap="round" stroke-linejoin="round"/>
<path d="M191.758 113.788C192.019 113.788 192.23 113.577 192.23 113.316C192.23 113.055 192.019 112.843 191.758 112.843C191.497 112.843 191.285 113.055 191.285 113.316C191.285 113.577 191.497 113.788 191.758 113.788Z" fill="#E6E6E6" stroke="#343434" stroke-width="1.12619" stroke-linecap="round" stroke-linejoin="round"/>
<path d="M196.25 113.483C196.519 113.483 196.738 113.264 196.738 112.995C196.738 112.725 196.519 112.507 196.25 112.507C195.98 112.507 195.762 112.725 195.762 112.995C195.762 113.264 195.98 113.483 196.25 113.483Z" fill="#E6E6E6" stroke="#343434" stroke-width="1.12619" stroke-linecap="round" stroke-linejoin="round"/>
<path d="M195.729 110.82C195.98 110.82 196.184 110.616 196.184 110.364C196.184 110.113 195.98 109.909 195.729 109.909C195.477 109.909 195.273 110.113 195.273 110.364C195.273 110.616 195.477 110.82 195.729 110.82Z" fill="#E6E6E6" stroke="#343434" stroke-width="1.12619" stroke-linecap="round" stroke-linejoin="round"/>
<path d="M200.317 109.974C200.567 109.974 200.77 109.771 200.77 109.521C200.77 109.27 200.567 109.067 200.317 109.067C200.066 109.067 199.863 109.27 199.863 109.521C199.863 109.771 200.066 109.974 200.317 109.974Z" fill="#E6E6E6" stroke="#343434" stroke-width="1.12619" stroke-linecap="round" stroke-linejoin="round"/>
<path d="M201.238 106.838C201.51 106.838 201.73 106.618 201.73 106.346C201.73 106.075 201.51 105.854 201.238 105.854C200.966 105.854 200.746 106.075 200.746 106.346C200.746 106.618 200.966 106.838 201.238 106.838Z" fill="#E6E6E6" stroke="#343434" stroke-width="1.12619" stroke-linecap="round" stroke-linejoin="round"/>
<path d="M207.138 105.161C207.353 105.161 207.527 104.988 207.527 104.773C207.527 104.559 207.353 104.385 207.138 104.385C206.924 104.385 206.75 104.559 206.75 104.773C206.75 104.988 206.924 105.161 207.138 105.161Z" fill="#E6E6E6" stroke="#343434" stroke-width="1.12619" stroke-linecap="round" stroke-linejoin="round"/>
<path fill-rule="evenodd" clip-rule="evenodd" d="M177.623 296.871C170.625 287.564 162.764 269.52 141.505 256.575C121.694 244.511 125.083 250.774 105.006 235.851C84.9514 220.944 76.7994 215.395 60.9039 197.474C46.7676 181.536 49.7889 187.283 39.9934 164.086C31.2167 143.301 30.6787 141.731 28.9678 113.044C27.2569 84.3572 32.3895 64.6889 34.6707 49.3381C36.9518 33.9872 37.332 35.6182 36.7617 51.6407C36.1915 67.6632 30.0133 85.9883 31.8192 114.387C33.6252 142.786 35.6212 144.418 44.1755 165.237C52.7298 186.057 50.9239 179.437 66.6068 196.706C82.2897 213.976 88.3533 218.626 108.428 233.165C128.673 247.827 128.768 240.98 147.588 253.888C167.356 267.447 175.817 283.055 183.326 293.801C185.281 295.515 182.584 302.442 177.623 296.871Z" fill="#3E933E" stroke="#4E5A30" stroke-width="1.2388"/>
<path fill-rule="evenodd" clip-rule="evenodd" d="M11.3782 128.177C8.73157 149.826 26.5958 159.686 44.4934 169.528C44.971 146.971 28.2701 149.522 11.3782 128.177Z" fill="#3E933E" stroke="#4E5A30" stroke-width="1.23882"/>
<path fill-rule="evenodd" clip-rule="evenodd" d="M44.1743 169.221C39.2513 152.888 23.9321 153.131 16.0234 138.687L44.1743 169.221Z" fill="#3E933E"/>
<path d="M44.1743 169.221C39.2513 152.888 23.9321 153.131 16.0234 138.687" stroke="#4E5A30" stroke-width="1.23882"/>
<path fill-rule="evenodd" clip-rule="evenodd" d="M4.91596 74.9517C-1.41673 95.8088 14.4776 108.651 30.4083 121.481C34.7613 99.3492 17.876 98.935 4.91596 74.9517Z" fill="#3E933E" stroke="#4E5A30" stroke-width="1.23881"/>
<path fill-rule="evenodd" clip-rule="evenodd" d="M30.156 121.123C28.1185 104.175 12.9904 101.728 7.6875 86.1167L30.156 121.123Z" fill="#3E933E"/>
<path d="M30.156 121.123C28.1185 104.175 12.9904 101.728 7.6875 86.1167" stroke="#4E5A30" stroke-width="1.23881"/>
<path fill-rule="evenodd" clip-rule="evenodd" d="M21.262 25.6699C8.6885 43.4106 19.7131 60.6894 30.7761 77.9675C41.874 58.3831 25.9954 52.5688 21.262 25.6699Z" fill="#3E933E" stroke="#4E5A30" stroke-width="1.2388"/>
<path fill-rule="evenodd" clip-rule="evenodd" d="M30.6368 77.5444C34.0446 60.8216 20.4726 53.6458 20.3633 37.1426L30.6368 77.5444Z" fill="#3E933E"/>
<path d="M30.6368 77.5444C34.0446 60.8216 20.4726 53.6458 20.3633 37.1426" stroke="#4E5A30" stroke-width="1.2388"/>
<path fill-rule="evenodd" clip-rule="evenodd" d="M26.1278 185.084C33.1136 205.726 53.4504 206.721 73.8089 207.684C64.4791 187.182 50.5592 196.84 26.1278 185.084Z" fill="#3E933E" stroke="#4E5A30" stroke-width="1.23883"/>
<path fill-rule="evenodd" clip-rule="evenodd" d="M73.387 207.55C61.8914 195.027 48.2156 201.999 34.8516 192.491L73.387 207.55Z" fill="#3E933E"/>
<path d="M73.387 207.55C61.8914 195.027 48.2156 201.999 34.8516 192.491" stroke="#4E5A30" stroke-width="1.23883"/>
<path fill-rule="evenodd" clip-rule="evenodd" d="M56.2541 220.328C66.2685 239.657 86.5186 237.519 106.785 235.346C94.4753 216.514 82.1724 228.196 56.2541 220.328Z" fill="#3E933E" stroke="#4E5A30" stroke-width="1.23882"/>
<path fill-rule="evenodd" clip-rule="evenodd" d="M106.348 235.278C93.0995 224.665 80.6332 233.655 65.9922 226.309L106.348 235.278Z" fill="#3E933E"/>
<path d="M106.348 235.278C93.0995 224.665 80.6332 233.655 65.9922 226.309" stroke="#4E5A30" stroke-width="1.23882"/>
<path fill-rule="evenodd" clip-rule="evenodd" d="M99.7303 248.474C110.412 267.436 130.575 264.58 150.754 261.688C137.795 243.305 125.907 255.417 99.7303 248.474Z" fill="#3E933E" stroke="#4E5A30" stroke-width="1.23882"/>
<path fill-rule="evenodd" clip-rule="evenodd" d="M150.315 261.635C136.705 251.499 124.56 260.927 109.672 254.106L150.315 261.635Z" fill="#3E933E"/>
<path d="M150.315 261.635C136.705 251.499 124.56 260.927 109.672 254.106" stroke="#4E5A30" stroke-width="1.23882"/>
<path fill-rule="evenodd" clip-rule="evenodd" d="M48.9324 52.9604C58.1444 72.6924 44.2243 87.6912 30.2666 102.682C22.8342 81.4042 39.4893 78.5636 48.9324 52.9604Z" fill="#3E933E" stroke="#4E5A30" stroke-width="1.23881"/>
<path fill-rule="evenodd" clip-rule="evenodd" d="M30.4813 102.291C30.1048 85.2222 44.733 80.6239 47.7773 64.4089L30.4813 102.291Z" fill="#3E933E"/>
<path d="M30.4813 102.291C30.1048 85.2222 44.733 80.6239 47.7773 64.4089" stroke="#4E5A30" stroke-width="1.23881"/>
<path fill-rule="evenodd" clip-rule="evenodd" d="M41.7621 89.5685C55.3074 106.565 45.2664 124.444 35.1869 142.325C23.0118 123.404 38.5401 116.694 41.7621 89.5685Z" fill="#3E933E" stroke="#4E5A30" stroke-width="1.2388"/>
<path fill-rule="evenodd" clip-rule="evenodd" d="M35.2985 141.895C30.9612 125.393 44.1104 117.455 43.2969 100.972L35.2985 141.895Z" fill="#3E933E"/>
<path d="M35.2985 141.895C30.9612 125.393 44.1104 117.455 43.2969 100.972" stroke="#4E5A30" stroke-width="1.2388"/>
<path fill-rule="evenodd" clip-rule="evenodd" d="M44.9036 140.765C64.3173 150.346 62.749 170.837 61.1464 191.346C42.1633 179.436 53.3989 166.705 44.9036 140.765Z" fill="#3E933E" stroke="#4E5A30" stroke-width="1.23883"/>
<path fill-rule="evenodd" clip-rule="evenodd" d="M61.0694 190.909C50.2 177.829 58.765 165.006 51.0938 150.431L61.0694 190.909Z" fill="#3E933E"/>
<path d="M61.0694 190.909C50.2 177.829 58.765 165.006 51.0938 150.431" stroke="#4E5A30" stroke-width="1.23883"/>
<path fill-rule="evenodd" clip-rule="evenodd" d="M65.2948 175.8C86.1152 181.642 88.2798 202.078 90.414 222.537C69.5955 214.326 78.3394 199.738 65.2948 175.8Z" fill="#3E933E" stroke="#4E5A30" stroke-width="1.23883"/>
<path fill-rule="evenodd" clip-rule="evenodd" d="M90.2549 222.122C77.202 211.264 83.3036 197.078 73.125 184.163L90.2549 222.122Z" fill="#3E933E"/>
<path d="M90.2549 222.122C77.202 211.264 83.3036 197.078 73.125 184.163" stroke="#4E5A30" stroke-width="1.23883"/>
<path fill-rule="evenodd" clip-rule="evenodd" d="M95.2832 206.551C116.889 206.979 124.023 226.229 131.133 245.509C108.945 242.784 113.818 226.459 95.2832 206.551Z" fill="#3E933E" stroke="#4E5A30" stroke-width="1.23883"/>
<path fill-rule="evenodd" clip-rule="evenodd" d="M130.878 245.146C115.559 237.909 117.972 222.636 104.93 212.684L130.878 245.146Z" fill="#3E933E"/>
<path d="M130.878 245.146C115.559 237.909 117.972 222.636 104.93 212.684" stroke="#4E5A30" stroke-width="1.23883"/>
<path fill-rule="evenodd" clip-rule="evenodd" d="M53.8777 4.22142C63.0897 23.9534 49.1697 38.9522 35.2119 53.9433C27.7796 32.6652 44.4346 29.8246 53.8777 4.22142Z" fill="#3E933E" stroke="#4E5A30" stroke-width="1.23881"/>
<path fill-rule="evenodd" clip-rule="evenodd" d="M35.4267 53.5518C35.0501 36.4831 49.6783 31.8849 52.7227 15.6699L35.4267 53.5518Z" fill="#3E933E"/>
<path d="M35.4267 53.5518C35.0501 36.4831 49.6783 31.8849 52.7227 15.6699" stroke="#4E5A30" stroke-width="1.23881"/>
<path d="M30.8337 48.1351C32.1679 48.1351 33.2494 47.0538 33.2494 45.72C33.2494 44.3862 32.1679 43.3049 30.8337 43.3049C29.4995 43.3049 28.418 44.3862 28.418 45.72C28.418 47.0538 29.4995 48.1351 30.8337 48.1351Z" fill="#3E933E" stroke="#4E5A30" stroke-width="0.844639"/>
<path d="M37.5602 72.8733C38.8944 72.8733 39.976 71.7921 39.976 70.4583C39.976 69.1245 38.8944 68.0432 37.5602 68.0432C36.2261 68.0432 35.1445 69.1245 35.1445 70.4583C35.1445 71.7921 36.2261 72.8733 37.5602 72.8733Z" fill="#3E933E" stroke="#4E5A30" stroke-width="0.844639"/>
<path d="M25.5563 98.063C26.8905 98.063 27.9721 96.9818 27.9721 95.648C27.9721 94.3142 26.8905 93.2329 25.5563 93.2329C24.2222 93.2329 23.1406 94.3142 23.1406 95.648C23.1406 96.9818 24.2222 98.063 25.5563 98.063Z" fill="#3E933E" stroke="#4E5A30" stroke-width="0.844639"/>
<path d="M33.7556 112.415C35.0897 112.415 36.1713 111.334 36.1713 110C36.1713 108.666 35.0897 107.585 33.7556 107.585C32.4214 107.585 31.3398 108.666 31.3398 110C31.3398 111.334 32.4214 112.415 33.7556 112.415Z" fill="#3E933E" stroke="#4E5A30" stroke-width="0.844639"/>
<path d="M28.7829 143.17C30.1171 143.17 31.1986 142.088 31.1986 140.755C31.1986 139.421 30.1171 138.34 28.7829 138.34C27.4487 138.34 26.3672 139.421 26.3672 140.755C26.3672 142.088 27.4487 143.17 28.7829 143.17Z" fill="#3E933E" stroke="#4E5A30" stroke-width="0.844639"/>
<path d="M47.5329 170.41C48.8671 170.41 49.9486 169.328 49.9486 167.995C49.9486 166.661 48.8671 165.58 47.5329 165.58C46.1987 165.58 45.1172 166.661 45.1172 167.995C45.1172 169.328 46.1987 170.41 47.5329 170.41Z" fill="#3E933E" stroke="#4E5A30" stroke-width="0.844639"/>
<path d="M49.5759 190.913C50.91 190.913 51.9916 189.832 51.9916 188.498C51.9916 187.164 50.91 186.083 49.5759 186.083C48.2417 186.083 47.1602 187.164 47.1602 188.498C47.1602 189.832 48.2417 190.913 49.5759 190.913Z" fill="#3E933E" stroke="#4E5A30" stroke-width="0.844639"/>
<path d="M69.7985 199.407C71.1327 199.407 72.2143 198.326 72.2143 196.992C72.2143 195.658 71.1327 194.577 69.7985 194.577C68.4644 194.577 67.3828 195.658 67.3828 196.992C67.3828 198.326 68.4644 199.407 69.7985 199.407Z" fill="#3E933E" stroke="#4E5A30" stroke-width="0.844639"/>
<path d="M81.2165 223.718C82.5507 223.718 83.6322 222.637 83.6322 221.303C83.6322 219.969 82.5507 218.888 81.2165 218.888C79.8823 218.888 78.8008 219.969 78.8008 221.303C78.8008 222.637 79.8823 223.718 81.2165 223.718Z" fill="#3E933E" stroke="#4E5A30" stroke-width="0.844639"/>
<path d="M107.006 231.919C108.34 231.919 109.421 230.838 109.421 229.504C109.421 228.17 108.34 227.089 107.006 227.089C105.671 227.089 104.59 228.17 104.59 229.504C104.59 230.838 105.671 231.919 107.006 231.919Z" fill="#3E933E" stroke="#4E5A30" stroke-width="0.844639"/>
<path d="M120.775 250.958C122.109 250.958 123.191 249.877 123.191 248.543C123.191 247.209 122.109 246.128 120.775 246.128C119.441 246.128 118.359 247.209 118.359 248.543C118.359 249.877 119.441 250.958 120.775 250.958Z" fill="#3E933E" stroke="#4E5A30" stroke-width="0.844639"/>
<path fill-rule="evenodd" clip-rule="evenodd" d="M122.369 296.871C129.367 287.564 137.228 269.52 158.488 256.575C178.299 244.511 174.909 250.774 194.986 235.851C215.041 220.944 223.193 215.395 239.088 197.474C253.225 181.536 250.203 187.283 259.999 164.086C268.775 143.301 269.314 141.731 271.024 113.044C272.735 84.3572 267.603 64.6889 265.322 49.3381C263.04 33.9872 262.66 35.6182 263.23 51.6407C263.801 67.6632 269.979 85.9883 268.173 114.387C266.367 142.786 264.371 144.418 255.817 165.237C247.262 186.057 249.068 179.437 233.385 196.706C217.702 213.976 211.639 218.626 191.564 233.165C171.319 247.827 171.224 240.98 152.404 253.888C132.636 267.447 124.175 283.055 116.666 293.801C114.711 295.515 117.408 302.442 122.369 296.871Z" fill="#3E933E" stroke="#4E5A30" stroke-width="1.2388"/>
<path fill-rule="evenodd" clip-rule="evenodd" d="M288.626 128.177C291.272 149.826 273.408 159.686 255.511 169.528C255.033 146.971 271.734 149.523 288.626 128.177Z" fill="#3E933E" stroke="#4E5A30" stroke-width="1.23882"/>
<path fill-rule="evenodd" clip-rule="evenodd" d="M255.83 169.222C260.753 152.888 276.072 153.131 283.98 138.687L255.83 169.222Z" fill="#3E933E"/>
<path d="M255.83 169.222C260.753 152.888 276.072 153.131 283.98 138.687" stroke="#4E5A30" stroke-width="1.23882"/>
<path fill-rule="evenodd" clip-rule="evenodd" d="M295.08 74.9521C301.412 95.8079 285.516 108.651 269.584 121.481C265.232 99.3505 282.118 98.9352 295.08 74.9521Z" fill="#3E933E" stroke="#4E5A30" stroke-width="1.23881"/>
<path fill-rule="evenodd" clip-rule="evenodd" d="M269.844 121.123C271.881 104.175 287.01 101.728 292.312 86.1167L269.844 121.123Z" fill="#3E933E"/>
<path d="M269.844 121.123C271.881 104.175 287.01 101.728 292.312 86.1167" stroke="#4E5A30" stroke-width="1.23881"/>
<path fill-rule="evenodd" clip-rule="evenodd" d="M278.738 25.6699C291.311 43.4106 280.287 60.6894 269.224 77.9675C258.126 58.3831 274.005 52.5688 278.738 25.6699Z" fill="#3E933E" stroke="#4E5A30" stroke-width="1.2388"/>
<path fill-rule="evenodd" clip-rule="evenodd" d="M269.363 77.5444C265.955 60.8216 279.527 53.6458 279.637 37.1426L269.363 77.5444Z" fill="#3E933E"/>
<path d="M269.363 77.5444C265.955 60.8216 279.527 53.6458 279.637 37.1426" stroke="#4E5A30" stroke-width="1.2388"/>
<path fill-rule="evenodd" clip-rule="evenodd" d="M273.872 185.084C266.886 205.726 246.55 206.721 226.191 207.684C235.521 187.182 249.441 196.84 273.872 185.084Z" fill="#3E933E" stroke="#4E5A30" stroke-width="1.23883"/>
<path fill-rule="evenodd" clip-rule="evenodd" d="M226.613 207.55C238.109 195.027 251.784 201.999 265.148 192.491L226.613 207.55Z" fill="#3E933E"/>
<path d="M226.613 207.55C238.109 195.027 251.784 201.999 265.148 192.491" stroke="#4E5A30" stroke-width="1.23883"/>
<path fill-rule="evenodd" clip-rule="evenodd" d="M243.742 220.328C233.728 239.657 213.477 237.519 193.211 235.346C205.521 216.514 217.824 228.196 243.742 220.328Z" fill="#3E933E" stroke="#4E5A30" stroke-width="1.23882"/>
<path fill-rule="evenodd" clip-rule="evenodd" d="M193.648 235.278C206.897 224.665 219.363 233.655 234.004 226.309L193.648 235.278Z" fill="#3E933E"/>
<path d="M193.648 235.278C206.897 224.665 219.363 233.655 234.004 226.309" stroke="#4E5A30" stroke-width="1.23882"/>
<path fill-rule="evenodd" clip-rule="evenodd" d="M200.27 248.474C189.588 267.436 169.425 264.58 149.246 261.688C162.205 243.305 174.093 255.417 200.27 248.474Z" fill="#3E933E" stroke="#4E5A30" stroke-width="1.23882"/>
<path fill-rule="evenodd" clip-rule="evenodd" d="M149.685 261.635C163.295 251.499 175.44 260.927 190.328 254.106L149.685 261.635Z" fill="#3E933E"/>
<path d="M149.685 261.635C163.295 251.499 175.44 260.927 190.328 254.106" stroke="#4E5A30" stroke-width="1.23882"/>
<path fill-rule="evenodd" clip-rule="evenodd" d="M251.064 52.9607C241.852 72.6926 255.772 87.6914 269.73 102.683C277.162 81.4044 260.507 78.5639 251.064 52.9607Z" fill="#3E933E" stroke="#4E5A30" stroke-width="1.23881"/>
<path fill-rule="evenodd" clip-rule="evenodd" d="M269.515 102.291C269.891 85.2224 255.263 80.6242 252.219 64.4092L269.515 102.291Z" fill="#3E933E"/>
<path d="M269.515 102.291C269.891 85.2224 255.263 80.6242 252.219 64.4092" stroke="#4E5A30" stroke-width="1.23881"/>
<path fill-rule="evenodd" clip-rule="evenodd" d="M258.238 89.5685C244.693 106.565 254.734 124.444 264.813 142.325C276.988 123.404 261.46 116.694 258.238 89.5685Z" fill="#3E933E" stroke="#4E5A30" stroke-width="1.2388"/>
<path fill-rule="evenodd" clip-rule="evenodd" d="M264.702 141.895C269.039 125.393 255.89 117.455 256.703 100.972L264.702 141.895Z" fill="#3E933E"/>
<path d="M264.702 141.895C269.039 125.393 255.89 117.455 256.703 100.972" stroke="#4E5A30" stroke-width="1.2388"/>
<path fill-rule="evenodd" clip-rule="evenodd" d="M255.096 140.765C235.683 150.346 237.251 170.837 238.854 191.346C257.837 179.436 246.601 166.705 255.096 140.765Z" fill="#3E933E" stroke="#4E5A30" stroke-width="1.23883"/>
<path fill-rule="evenodd" clip-rule="evenodd" d="M238.931 190.909C249.8 177.829 241.235 165.006 248.906 150.431L238.931 190.909Z" fill="#3E933E"/>
<path d="M238.931 190.909C249.8 177.829 241.235 165.006 248.906 150.431" stroke="#4E5A30" stroke-width="1.23883"/>
<path fill-rule="evenodd" clip-rule="evenodd" d="M234.697 175.8C213.877 181.642 211.712 202.078 209.578 222.537C230.397 214.326 221.653 199.738 234.697 175.8Z" fill="#3E933E" stroke="#4E5A30" stroke-width="1.23883"/>
<path fill-rule="evenodd" clip-rule="evenodd" d="M209.737 222.122C222.79 211.264 216.689 197.078 226.867 184.163L209.737 222.122Z" fill="#3E933E"/>
<path d="M209.737 222.122C222.79 211.264 216.689 197.078 226.867 184.163" stroke="#4E5A30" stroke-width="1.23883"/>
<path fill-rule="evenodd" clip-rule="evenodd" d="M204.709 206.55C183.103 206.979 175.97 226.228 168.859 245.509C191.047 242.784 186.174 226.459 204.709 206.55Z" fill="#3E933E" stroke="#4E5A30" stroke-width="1.23883"/>
<path fill-rule="evenodd" clip-rule="evenodd" d="M169.111 245.146C184.429 237.908 182.017 222.636 195.059 212.683L169.111 245.146Z" fill="#3E933E"/>
<path d="M169.111 245.146C184.429 237.908 182.017 222.636 195.059 212.683" stroke="#4E5A30" stroke-width="1.23883"/>
<path fill-rule="evenodd" clip-rule="evenodd" d="M246.118 4.22142C236.906 23.9534 250.826 38.9522 264.784 53.9433C272.217 32.6652 255.561 29.8246 246.118 4.22142Z" fill="#3E933E" stroke="#4E5A30" stroke-width="1.23881"/>
<path fill-rule="evenodd" clip-rule="evenodd" d="M264.569 53.5518C264.946 36.4831 250.318 31.8849 247.273 15.6699L264.569 53.5518Z" fill="#3E933E"/>
<path d="M264.569 53.5518C264.946 36.4831 250.318 31.8849 247.273 15.6699" stroke="#4E5A30" stroke-width="1.23881"/>
<path d="M269.166 48.1353C267.832 48.1353 266.751 47.054 266.751 45.7202C266.751 44.3864 267.832 43.3052 269.166 43.3052C270.5 43.3052 271.582 44.3864 271.582 45.7202C271.582 47.054 270.5 48.1353 269.166 48.1353Z" fill="#3E933E" stroke="#4E5A30" stroke-width="0.844639"/>
<path d="M262.432 72.8733C261.098 72.8733 260.016 71.7921 260.016 70.4583C260.016 69.1245 261.098 68.0432 262.432 68.0432C263.766 68.0432 264.848 69.1245 264.848 70.4583C264.848 71.7921 263.766 72.8733 262.432 72.8733Z" fill="#3E933E" stroke="#4E5A30" stroke-width="0.844639"/>
<path d="M274.44 98.063C273.106 98.063 272.024 96.9818 272.024 95.648C272.024 94.3142 273.106 93.2329 274.44 93.2329C275.774 93.2329 276.855 94.3142 276.855 95.648C276.855 96.9818 275.774 98.063 274.44 98.063Z" fill="#3E933E" stroke="#4E5A30" stroke-width="0.844639"/>
<path d="M266.233 112.415C264.899 112.415 263.817 111.334 263.817 110C263.817 108.666 264.899 107.585 266.233 107.585C267.567 107.585 268.648 108.666 268.648 110C268.648 111.334 267.567 112.415 266.233 112.415Z" fill="#3E933E" stroke="#4E5A30" stroke-width="0.844639"/>
<path d="M271.217 143.17C269.883 143.17 268.801 142.088 268.801 140.755C268.801 139.421 269.883 138.34 271.217 138.34C272.551 138.34 273.633 139.421 273.633 140.755C273.633 142.088 272.551 143.17 271.217 143.17Z" fill="#3E933E" stroke="#4E5A30" stroke-width="0.844639"/>
<path d="M252.463 170.41C251.129 170.41 250.047 169.328 250.047 167.995C250.047 166.661 251.129 165.58 252.463 165.58C253.797 165.58 254.879 166.661 254.879 167.995C254.879 169.328 253.797 170.41 252.463 170.41Z" fill="#3E933E" stroke="#4E5A30" stroke-width="0.844639"/>
<path d="M250.42 190.913C249.086 190.913 248.005 189.832 248.005 188.498C248.005 187.164 249.086 186.083 250.42 186.083C251.754 186.083 252.836 187.164 252.836 188.498C252.836 189.832 251.754 190.913 250.42 190.913Z" fill="#3E933E" stroke="#4E5A30" stroke-width="0.844639"/>
<path d="M230.201 199.407C228.867 199.407 227.786 198.326 227.786 196.992C227.786 195.658 228.867 194.577 230.201 194.577C231.536 194.577 232.617 195.658 232.617 196.992C232.617 198.326 231.536 199.407 230.201 199.407Z" fill="#3E933E" stroke="#4E5A30" stroke-width="0.844639"/>
<path d="M218.776 223.718C217.442 223.718 216.36 222.637 216.36 221.303C216.36 219.969 217.442 218.888 218.776 218.888C220.11 218.888 221.191 219.969 221.191 221.303C221.191 222.637 220.11 223.718 218.776 223.718Z" fill="#3E933E" stroke="#4E5A30" stroke-width="0.844639"/>
<path d="M192.991 231.919C191.656 231.919 190.575 230.838 190.575 229.504C190.575 228.17 191.656 227.089 192.991 227.089C194.325 227.089 195.406 228.17 195.406 229.504C195.406 230.838 194.325 231.919 192.991 231.919Z" fill="#3E933E" stroke="#4E5A30" stroke-width="0.844639"/>
<path d="M179.225 250.958C177.891 250.958 176.809 249.877 176.809 248.543C176.809 247.209 177.891 246.128 179.225 246.128C180.559 246.128 181.641 247.209 181.641 248.543C181.641 249.877 180.559 250.958 179.225 250.958Z" fill="#3E933E" stroke="#4E5A30" stroke-width="0.844639"/>
</svg>
