<svg width="300" height="300" viewBox="0 0 300 300" fill="none" xmlns="http://www.w3.org/2000/svg">
<path fill-rule="evenodd" clip-rule="evenodd" d="M172.625 214.187L222.914 83.3265C199.153 46.9161 242.952 19.5771 255.9 6C256.331 37.5883 269.356 71.3449 231.025 87.1117L183.981 216.89L172.625 214.187Z" fill="#393939" stroke="black" stroke-width="0.720757"/>
<path fill-rule="evenodd" clip-rule="evenodd" d="M57.7999 245.307C74.7196 243.618 90.8494 244.299 107.316 243.969C120.763 243.481 134.209 245.931 147.656 247.028C159.891 247.881 172.127 246.402 184.363 246.072L216.481 247.792L238.467 248.748C241.823 248.958 241.649 250.68 241.526 252.381C240.603 261.508 235.943 267.645 232.732 274.94C228.801 280.165 224.679 284.236 220.496 287.941C217.831 290.635 213.857 291.236 208.643 289.852C206.21 288.4 185.318 289.852 173.656 289.852C173.656 289.852 169.259 288.849 166.2 288.897C163.141 288.944 164.145 289.948 161.421 290.044C158.696 290.139 157.74 289.136 155.303 289.279C153.63 289.518 153.821 290.569 151.67 290.617C145.468 290.724 131.793 288.593 130.258 289.47C119.258 295.448 103.767 292.098 89.7274 291.764H75.0063C69.7193 291.73 67.6033 287.844 65.8296 283.543C64.2706 279.044 61.9144 276.936 59.903 273.793C54.702 264.561 56.1676 257.551 55.9837 249.991C54.6718 245.806 56.3616 245.977 57.7999 245.307Z" fill="#D5B5AF" stroke="black" stroke-width="0.720757"/>
<path fill-rule="evenodd" clip-rule="evenodd" d="M56.1016 246.091C61.1677 238.803 77.6825 232.687 88.3435 225.61L213.323 231.288C222.559 236.123 231.007 241.944 239.549 247.645C242.271 250.109 240.948 249.998 239.82 250.011C178.58 250.897 117.341 252.135 56.1016 246.091Z" fill="#D5B5AF" stroke="black" stroke-width="0.720757"/>
<path fill-rule="evenodd" clip-rule="evenodd" d="M139.913 214.728C37.428 106.96 81.764 46.297 98.8165 15.7335C17.3418 85.6292 55.5734 164.469 97.7351 222.839L139.913 214.728Z" fill="white" stroke="black" stroke-width="0.720757"/>
<path d="M97.468 16.8149C52.7035 63.0146 53.8961 140.972 110.987 213.646" stroke="black" stroke-width="0.720757"/>
<path fill-rule="evenodd" clip-rule="evenodd" d="M94.1255 215.1C99.2239 206.716 97.8097 197.039 92.2137 191.585C73.8911 175.108 47.8267 151.622 38.6827 125.818C33.5624 109.699 27.6102 94.7692 25.8735 73.8167C23.4522 57.4376 -1.4203 64.0992 1.78456 83.5669L8.8583 113.583C24.056 186.062 66.8411 197.124 91.8313 223.703L94.1255 215.1Z" fill="#CF223F" stroke="black" stroke-width="0.720757"/>
<path d="M24.6401 98.4785L25.0638 105.001L24.2334 105.023C23.9895 104.301 23.5974 104.171 22.5625 104.201L15.9953 104.619C14.7096 104.7 13.7689 104.588 13.1731 104.281C12.5774 103.973 12.0678 103.393 11.6443 102.539C11.2208 101.686 10.9872 100.641 10.9434 99.4046C10.8898 97.8947 11.1432 96.6551 11.7036 95.6858C12.264 94.7166 13.647 94.2091 14.3657 94.1634C14.8273 94.134 15.2082 94.3001 15.5085 94.6615C15.8088 95.0229 15.9686 95.4774 15.988 96.0248C16.0071 96.5634 15.8946 97.0241 15.6505 97.4069C15.4063 97.7897 15.0963 97.993 14.7205 98.017C14.5359 98.0287 14.3732 98.0081 14.2326 97.9551C14.1654 97.9239 13.8918 97.8809 13.7183 97.5696C13.3209 96.8566 12.5632 97.0952 12.3932 97.2416C11.7375 97.6695 11.716 98.2021 11.7299 98.943C11.7434 99.3227 11.827 99.6316 11.9808 99.8696C12.1347 100.108 12.3667 100.268 12.6769 100.35C12.9871 100.432 13.8411 100.428 15.2389 100.339L22.4094 99.8833C23.6222 99.901 23.7475 99.4915 23.8749 98.5254L24.6401 98.4785Z" fill="#ECD718"/>
<path d="M27.1874 109.737L28.773 115.409L28.4178 115.56C28.2698 115.031 28.1626 114.827 28.0004 114.662C27.8381 114.496 27.6513 114.399 27.4399 114.372C27.2284 114.344 26.7467 114.442 25.9946 114.667L19.5367 116.593C18.3566 116.945 18.4136 116.984 18.0826 117.282C17.7515 117.58 17.5185 117.978 17.3836 118.475C17.2487 118.973 17.2711 119.543 17.4509 120.186C17.6568 120.923 17.9928 121.503 18.4589 121.926C18.7071 122.152 18.9794 122.33 19.2758 122.461C19.9654 123.019 25.7213 121.032 28.944 120.318C29.1613 120.115 29.2914 119.902 29.3344 119.679C29.3992 119.333 29.3549 118.885 29.2014 118.336L29.5612 118.229L30.7436 122.458L30.3484 122.504C29.9394 121.606 29.0638 121.5 27.9689 121.73L22.9602 123.224C21.4106 123.686 20.2626 123.914 19.5164 123.908C18.7701 123.902 17.9942 123.577 17.1887 122.932C16.3833 122.287 15.783 121.258 15.3879 119.844C15.0584 118.666 14.9561 117.709 15.0811 116.975C15.2508 115.974 15.6093 115.196 16.1566 114.641C16.7038 114.086 17.5254 113.645 18.6211 113.318L25.079 111.392C26.3114 111.094 26.7812 110.689 26.7208 109.755L27.1874 109.737Z" fill="#ECD718"/>
<path d="M37.0285 135.815L33.1125 138.087L32.8917 137.637C33.7843 136.885 34.3302 135.93 34.5295 134.771C34.7288 133.612 34.5914 132.55 34.1175 131.584C33.7512 130.837 33.3015 130.333 32.7683 130.071C32.2351 129.808 31.7604 129.79 31.3441 130.015C31.0803 130.158 30.8834 130.362 30.7537 130.626C30.5822 130.988 30.4765 131.475 30.4367 132.09C30.4119 132.538 30.4585 133.518 30.5765 135.028C30.7451 137.141 30.6735 138.666 30.3618 139.604C30.0465 140.534 29.496 141.211 28.7103 141.636C27.7136 142.176 26.6182 142.155 25.4242 141.575C24.2302 140.994 23.267 139.957 22.5345 138.464C22.3047 137.996 22.1255 137.533 21.9971 137.074C21.8686 136.616 21.7555 136.015 21.6578 135.272C21.6027 134.857 21.5195 134.536 21.4082 134.309C21.3148 134.119 21.1575 133.95 20.9361 133.801C20.7147 133.652 20.4515 133.577 20.1464 133.575L19.9472 133.169L24.45 130.732L24.6493 131.138C23.5409 132.146 22.8792 133.289 22.6644 134.567C22.4496 135.846 22.6025 137.015 23.1232 138.076C23.5253 138.896 24.0246 139.452 24.621 139.745C25.2175 140.038 25.7532 140.056 26.2281 139.799C26.5095 139.647 26.7363 139.406 26.9086 139.076C27.0809 138.747 27.1924 138.328 27.2431 137.819C27.2939 137.31 27.2728 136.469 27.1799 135.297C27.0492 133.655 27.026 132.436 27.1104 131.64C27.1948 130.844 27.3905 130.162 27.6975 129.593C28.0044 129.024 28.4364 128.588 28.9934 128.287C29.9433 127.773 30.966 127.77 32.0617 128.279C33.1574 128.788 34.0302 129.705 34.6801 131.029C34.9171 131.512 35.1 132.006 35.2288 132.51C35.3272 132.892 35.4023 133.382 35.4542 133.979C35.506 134.576 35.5804 134.973 35.6773 135.171C35.7707 135.361 35.8912 135.486 36.0389 135.545C36.1865 135.604 36.4625 135.584 36.8669 135.485L37.0285 135.815Z" fill="#ECD718"/>
<path d="M45.7513 151.177L42.8353 153.306L42.6351 153.006C43.1893 152.338 43.5411 151.788 43.6905 151.358C43.84 150.927 43.8761 150.46 43.7989 149.955C43.7534 149.675 43.5546 149.272 43.2026 148.746L42.6411 147.907L34.33 153.975C33.7791 154.377 33.4561 154.66 33.361 154.824C33.2659 154.988 33.2288 155.201 33.2497 155.462C33.2705 155.723 33.3884 156.014 33.6034 156.335L33.8535 156.709L33.5595 156.924L29.6127 151.025L29.9067 150.81L30.1568 151.184C30.3755 151.511 30.6071 151.733 30.8518 151.852C31.0223 151.941 31.2254 151.962 31.4611 151.914C31.629 151.882 31.9831 151.669 32.5234 151.274L40.8345 145.207L40.2897 144.392C39.7819 143.633 39.2596 143.194 38.7226 143.075C37.9711 142.907 37.1555 143.049 36.2757 143.501L36.0644 143.186L38.9805 141.057L45.7513 151.177Z" fill="#ECD718"/>
<path d="M44.8685 170.224L44.592 170.457L38.0864 163.473L38.363 163.24L38.7759 163.683C39.1368 164.071 39.4797 164.338 39.8046 164.487C40.0334 164.599 40.2753 164.629 40.5304 164.578C40.7173 164.55 41.0649 164.322 41.5732 163.893L48.241 158.277C48.7592 157.84 49.0495 157.531 49.1118 157.35C49.1741 157.169 49.1513 156.927 49.0436 156.625C48.9358 156.323 48.7076 155.985 48.359 155.611L47.9461 155.168L48.2227 154.935L54.7282 161.919L54.4516 162.152L54.0387 161.708C53.6778 161.321 53.3349 161.053 53.01 160.905C52.7812 160.793 52.5362 160.759 52.275 160.803C52.0881 160.832 51.7405 161.06 51.2322 161.488L44.5645 167.105C44.0462 167.541 43.7574 167.852 43.6982 168.037C43.639 168.221 43.6632 168.464 43.771 168.766C43.8787 169.068 44.1069 169.406 44.4556 169.781L44.8685 170.224Z" fill="#ECD718"/>
<path d="M66.5707 171.749L63.84 175.837L63.5019 175.61C63.9603 174.372 64.0325 173.236 63.7185 172.202C63.4045 171.168 62.8083 170.356 61.9298 169.766C61.1958 169.273 60.3811 169.032 59.4858 169.044C58.5904 169.056 57.7726 169.309 57.0323 169.803C56.0834 170.434 55.2506 171.286 54.5341 172.358C53.8291 173.414 53.3201 174.464 53.0069 175.51C52.6937 176.555 52.6721 177.49 52.9422 178.314C53.2123 179.138 53.7982 179.853 54.6998 180.459C55.4396 180.956 56.2257 181.248 57.0581 181.337C57.8905 181.426 58.9131 181.302 60.1257 180.966L59.4459 181.983C58.3261 182.231 57.3058 182.27 56.3848 182.101C55.4638 181.932 54.5265 181.527 53.5728 180.886C52.3187 180.044 51.3731 179.043 50.7363 177.884C50.0994 176.726 49.8322 175.496 49.9347 174.196C50.0372 172.895 50.4448 171.712 51.1575 170.645C51.9089 169.52 52.9148 168.65 54.1754 168.035C55.436 167.42 56.7507 167.169 58.1195 167.282C59.4883 167.395 60.7333 167.828 61.8545 168.581C62.681 169.136 63.4336 169.902 64.1125 170.879C64.5047 171.445 64.7731 171.776 64.9176 171.873C65.1026 171.998 65.3085 172.037 65.5353 171.992C65.7621 171.947 65.9945 171.79 66.2326 171.522L66.5707 171.749Z" fill="#ECD718"/>
<path d="M73.9908 181.446L70.3379 185.665L70.5823 185.876C71.3605 186.55 72.1033 186.832 72.8106 186.722C73.5179 186.613 74.2683 186.197 75.0619 185.476L75.4058 185.773L70.7074 191.2L70.3635 190.902C70.8028 190.248 71.0696 189.632 71.1638 189.054C71.2579 188.476 71.2074 187.989 71.0122 187.592C70.817 187.196 70.4268 186.744 69.8416 186.238L67.3137 189.157C66.8196 189.728 66.546 190.102 66.4931 190.279C66.4401 190.456 66.4567 190.653 66.543 190.87C66.6293 191.088 66.8474 191.348 67.1973 191.651L67.9304 192.286C69.0767 193.278 70.1894 193.849 71.2685 193.999C72.3475 194.149 73.4349 193.896 74.5307 193.24L74.8655 193.53L71.4613 196.346L60.8547 187.162L61.0996 186.879L61.5068 187.232C61.8628 187.54 62.1957 187.735 62.5055 187.816C62.7242 187.88 62.9507 187.862 63.1852 187.762C63.3574 187.698 63.6685 187.405 64.1185 186.886L70.0214 180.068C70.4273 179.599 70.6614 179.298 70.7239 179.165C70.818 178.935 70.8255 178.701 70.7464 178.463C70.6407 178.122 70.3887 177.779 69.9905 177.434L69.5833 177.081L69.8281 176.798L80.0999 185.692L77.4462 188.757L77.1023 188.459C77.5759 187.559 77.7954 186.808 77.7611 186.208C77.7266 185.608 77.486 184.98 77.0392 184.326C76.7807 183.942 76.1869 183.347 75.2578 182.543L73.9908 181.446Z" fill="#ECD718"/>
<path fill-rule="evenodd" clip-rule="evenodd" d="M206.834 215.94C201.736 207.555 203.15 197.879 208.746 192.425C227.068 175.948 253.133 152.462 262.277 126.658C267.397 110.539 273.349 95.609 275.086 74.6565C277.507 58.2774 302.38 64.9391 299.175 84.4068L292.101 114.422C276.904 186.902 234.118 197.964 209.128 224.543L206.834 215.94Z" fill="#CF223F" stroke="black" stroke-width="0.720757"/>
<path d="M228.083 183.576L230.442 186.309L230.16 186.533C229.449 186.035 228.872 185.729 228.431 185.615C227.989 185.501 227.521 185.503 227.024 185.621C226.749 185.69 226.363 185.92 225.867 186.314L225.077 186.942L231.8 194.732C232.246 195.248 232.554 195.547 232.726 195.629C232.897 195.71 233.112 195.73 233.37 195.688C233.629 195.646 233.909 195.505 234.212 195.264L234.564 194.985L234.802 195.26L229.244 199.674L229.006 199.398L229.358 199.118C229.666 198.874 229.869 198.625 229.967 198.371C230.043 198.194 230.047 197.99 229.979 197.759C229.934 197.594 229.693 197.259 229.256 196.752L222.532 188.962L221.765 189.571C221.05 190.139 220.655 190.695 220.58 191.24C220.473 192.003 220.681 192.804 221.203 193.645L220.906 193.881L218.547 191.147L228.083 183.576Z" fill="#ECD718"/>
<path d="M277.388 131.128L275.427 135.845L276.494 136.947C276.85 137.311 277.17 137.552 277.452 137.669C277.827 137.825 278.165 137.789 278.468 137.56C278.647 137.427 278.907 137.023 279.249 136.349L279.613 136.5L277.398 141.829L277.033 141.678C277.01 141.119 277.233 140.896 276.929 140.248C276.625 139.6 276.219 139.144 275.39 138.268L267.812 130.003L268.709 127.846L280.121 127.724C281.349 127.696 282.159 127.59 282.551 127.407C282.848 127.268 283.097 127.002 283.299 126.609L283.663 126.76L280.977 133.221L280.613 133.069L280.723 132.803C280.939 132.285 281.018 131.89 280.961 131.62C280.916 131.432 280.795 131.297 280.598 131.215C280.48 131.166 280.35 131.135 280.209 131.123C280.145 131.111 279.857 131.107 279.348 131.111L277.388 131.128ZM276.52 131.16L271.094 131.237L274.842 135.198L276.52 131.16Z" fill="#ECD718"/>
<path d="M259.004 165.311L255.716 169.222L256.403 170.594C256.634 171.048 256.867 171.374 257.101 171.57C257.411 171.831 257.745 171.898 258.102 171.771C258.313 171.697 258.682 171.39 259.211 170.85L259.513 171.104L255.8 175.522L255.498 175.268C255.643 174.728 255.922 174.582 255.827 173.873C255.732 173.164 255.482 172.607 254.954 171.522L250.207 161.364L251.709 159.576L262.631 162.885C263.812 163.227 264.616 163.369 265.045 163.312C265.37 163.269 265.687 163.09 265.998 162.775L266.3 163.029L261.798 168.385L261.496 168.131L261.682 167.911C262.043 167.481 262.237 167.128 262.264 166.853C262.277 166.66 262.202 166.495 262.039 166.358C261.941 166.276 261.827 166.207 261.696 166.153C261.638 166.123 261.365 166.033 260.878 165.883L259.004 165.311ZM258.166 165.081L252.967 163.526L255.352 168.429L258.166 165.081Z" fill="#ECD718"/>
<path d="M272.707 119.235L272.367 119.112L275.166 109.987L275.506 110.11L275.328 110.689C275.173 111.195 275.112 111.626 275.146 111.981C275.163 112.236 275.258 112.46 275.429 112.656C275.547 112.804 275.919 112.991 276.544 113.217L284.741 116.186C285.378 116.417 285.791 116.514 285.979 116.477C286.167 116.44 286.365 116.3 286.573 116.056C286.78 115.812 286.959 115.445 287.109 114.956L287.287 114.377L287.627 114.5L284.828 123.625L284.488 123.502L284.666 122.923C284.821 122.416 284.882 121.986 284.848 121.63C284.83 121.376 284.737 121.147 284.568 120.943C284.45 120.795 284.079 120.608 283.454 120.382L275.257 117.413C274.62 117.182 274.207 117.087 274.017 117.128C273.827 117.169 273.629 117.312 273.421 117.556C273.214 117.8 273.035 118.167 272.885 118.656L272.707 119.235Z" fill="#ECD718"/>
<path d="M241.681 180.856L244.242 183.775C244.737 184.338 245.082 184.662 245.279 184.748C245.477 184.833 245.7 184.843 245.951 184.777C246.201 184.711 246.565 184.47 247.041 184.052L247.291 184.336L241.959 189.013L241.71 188.729C242.191 188.307 242.479 187.976 242.571 187.735C242.664 187.495 242.683 187.273 242.626 187.069C242.569 186.865 242.294 186.481 241.799 185.918L235.869 179.158C235.374 178.595 235.029 178.27 234.831 178.185C234.634 178.1 234.41 178.09 234.16 178.156C233.909 178.222 233.546 178.463 233.07 178.881L232.82 178.597L237.66 174.351C238.92 173.246 239.918 172.524 240.654 172.186C241.391 171.848 242.149 171.751 242.929 171.896C243.709 172.041 244.375 172.429 244.928 173.059C245.602 173.827 245.882 174.705 245.77 175.692C245.695 176.319 245.41 176.991 244.914 177.707L250.512 179.036C251.239 179.204 251.722 179.284 251.959 179.275C252.308 179.25 252.628 179.123 252.918 178.896L253.167 179.18L249.887 182.058L242.365 180.256L241.681 180.856ZM237.199 175.747L241.203 180.31L241.641 179.926C242.352 179.302 242.828 178.769 243.066 178.328C243.305 177.888 243.376 177.409 243.28 176.89C243.183 176.372 242.895 175.839 242.414 175.291C241.718 174.498 241.017 174.074 240.314 174.021C239.61 173.968 238.846 174.303 238.021 175.026L237.199 175.747Z" fill="#ECD718"/>
<path d="M264.924 139.182L265.272 139.389C265.073 139.898 265.076 140.459 265.281 141.073C265.439 141.522 265.945 142.351 266.798 143.56L273.214 152.487L272.511 153.884L261.024 152.418C259.487 152.221 258.559 152.148 258.24 152.201C257.92 152.254 257.585 152.512 257.235 152.974L256.887 152.768L260.51 146.644L260.858 146.85L260.735 147.058C260.409 147.61 260.255 148.028 260.274 148.311C260.283 148.511 260.378 148.665 260.56 148.773C260.673 148.84 260.822 148.894 261.005 148.934C261.189 148.975 261.702 149.05 262.545 149.158L270.515 150.198L266.347 144.323C265.841 143.617 265.492 143.16 265.3 142.954C265.109 142.747 264.931 142.595 264.768 142.499C264.579 142.387 264.383 142.339 264.179 142.354C263.975 142.369 263.778 142.452 263.588 142.602C263.321 142.809 263.056 143.135 262.792 143.581L262.444 143.375L264.924 139.182Z" fill="#ECD718"/>
<path d="M287.78 96.3655L292.133 98.025L289.316 109.812L288.969 109.722L289.074 109.281C289.166 108.896 289.174 108.569 289.099 108.3C289.052 108.107 288.933 107.938 288.741 107.791C288.608 107.68 288.222 107.542 287.583 107.376L279.201 105.202C278.55 105.033 278.134 104.963 277.954 104.993C277.774 105.022 277.597 105.131 277.422 105.318C277.248 105.505 277.116 105.784 277.027 106.156L276.922 106.597L276.574 106.506L278.266 99.4285L278.614 99.5187L278.475 100.096C278.383 100.481 278.375 100.808 278.451 101.078C278.498 101.27 278.616 101.443 278.806 101.596C278.939 101.707 279.325 101.845 279.964 102.011L288.083 104.117C288.734 104.286 289.159 104.354 289.356 104.322C289.553 104.29 289.723 104.171 289.865 103.966C289.961 103.817 290.083 103.43 290.233 102.803L290.497 101.697C290.666 100.992 290.687 100.374 290.561 99.8421C290.436 99.3105 290.157 98.8067 289.725 98.3308C289.293 97.8549 288.613 97.3336 287.684 96.7668L287.78 96.3655Z" fill="#ECD718"/>
<path fill-rule="evenodd" clip-rule="evenodd" d="M88.5789 223.13C83.3499 208.225 100.293 207.873 104.065 210.894L183.214 211.277C187.788 212.307 190.517 212.272 193.92 211.277C200.333 210.285 209.748 205.027 212.274 212.424C212.092 219.551 212.952 225.638 213.421 232.116C213.56 235.227 212.658 239.249 210.553 239.572L106.932 240.336C93.6399 242.389 86.9578 235.901 88.5789 223.13Z" fill="#CF223F" stroke="black" stroke-width="0.720757"/>
<path d="M114.12 228.724C114.294 230.178 114.253 230.22 115.755 230.341V231.141H108.816V230.24C110.45 230.293 110.433 230.148 110.553 228.724V220.164C110.553 219.451 110.502 219.002 110.399 218.817C110.047 218.503 109.58 218.584 109.104 218.581L109.088 217.849H115.145C117.364 217.85 118.955 218.187 119.92 218.861C120.885 219.535 121.367 220.378 121.367 221.39C121.367 222.246 121.056 222.979 120.433 223.588C119.81 224.198 118.951 224.613 117.857 224.833C117.121 224.989 115.875 225.067 114.12 225.067V228.724ZM114.12 218.608V224.241C114.696 224.306 115.258 224.288 115.822 224.182C116.222 224.065 116.558 223.879 116.832 223.622C117.333 223.152 117.584 222.424 117.584 221.439C117.584 220.46 117.333 219.743 116.832 219.289C116.33 218.835 115.582 218.608 114.587 218.608H114.12Z" fill="#ECD718"/>
<path d="M138.655 226.852H133.546L132.938 228.259C132.739 228.729 132.639 229.116 132.639 229.422C132.639 229.827 132.803 230.126 133.13 230.318C133.322 230.432 133.795 230.517 134.549 230.574V230.969H128.777V230.574C129.284 230.338 129.576 230.458 130.057 229.929C130.539 229.399 130.804 228.85 131.294 227.747L136.017 217.578L138.352 217.577L142.847 228.067C143.344 229.191 143.753 229.898 144.073 230.19C144.315 230.41 144.656 230.538 145.097 230.574V230.969H138.1V230.574H138.388C138.95 230.574 139.345 230.496 139.572 230.339C139.729 230.226 139.807 230.062 139.807 229.849C139.807 229.721 139.786 229.589 139.743 229.454C139.729 229.39 139.622 229.123 139.423 228.654L138.655 226.852ZM138.292 226.062L136.138 221.081L133.919 226.062H138.292Z" fill="#ECD718"/>
<path d="M178.002 223.294L181.534 228.536C182.162 229.468 182.61 230.034 182.877 230.234C183.144 230.433 183.46 230.553 183.825 230.593V230.969H177.125V230.593C177.659 230.553 178.003 230.472 178.159 230.35C178.314 230.229 178.392 230.08 178.392 229.904C178.392 229.783 178.368 229.674 178.321 229.58C178.226 229.377 177.99 228.999 177.611 228.445L175.838 225.82L172.563 229.62C172.408 229.87 172.502 230.085 172.807 230.263C173.059 230.411 173.209 230.458 173.526 230.533C173.668 230.573 173.959 230.593 174.398 230.593V230.969H169.117V230.593C169.719 230.506 170.192 230.343 170.536 230.107C170.989 229.796 171.621 229.147 172.432 228.161L175.158 224.836L171.661 219.697C171.087 218.852 170.759 218.383 170.678 218.288C170.496 218.065 170.317 217.906 170.141 217.812C169.965 217.717 169.722 217.646 169.411 217.599V217.224H176.233V217.599H175.888C175.496 217.599 175.223 217.661 175.067 217.786C174.912 217.911 174.834 218.069 174.834 218.258C174.834 218.406 174.858 218.535 174.905 218.643L175.604 219.697L177.307 222.292L178.757 220.518C179.5 219.606 179.872 218.967 179.872 218.602C179.872 218.42 179.819 218.251 179.715 218.096C179.61 217.94 179.459 217.819 179.263 217.731C179.068 217.643 178.763 217.599 178.351 217.599V217.224H183.409V217.599C183.01 217.606 182.642 217.607 182.207 217.937L178.002 223.294Z" fill="#ECD718"/>
<path d="M160.9 230.691L160.884 231.052L151.34 231.11L151.356 230.749L151.961 230.745C152.491 230.742 152.92 230.671 153.249 230.532C153.487 230.44 153.673 230.282 153.808 230.06C153.914 229.903 153.981 229.493 154.01 228.829L154.393 220.119C154.423 219.442 154.392 219.02 154.301 218.851C154.209 218.682 154.016 218.535 153.721 218.41C153.426 218.285 153.023 218.224 152.511 218.227L151.905 218.231L151.921 217.87L161.466 217.812L161.45 218.173L160.844 218.177C160.314 218.18 159.885 218.251 159.556 218.39C159.319 218.482 159.128 218.64 158.984 218.862C158.878 219.019 158.811 219.429 158.781 220.093L158.399 228.803C158.369 229.48 158.402 229.902 158.498 230.071C158.594 230.24 158.789 230.387 159.084 230.512C159.379 230.637 159.783 230.698 160.294 230.695L160.9 230.691Z" fill="#ECD718"/>
<path fill-rule="evenodd" clip-rule="evenodd" d="M183.634 72.2193C187.002 68.04 191.248 64.5698 196.252 61.3219C204.846 56.4044 211.11 59.0482 208.105 77.19C206.121 82.6523 203.103 86.2388 199.885 89.0433L200.267 90.1904L197.208 93.0581C194.318 96.2784 196.47 98.6877 197.782 101.088C202.997 111.936 197.738 118.819 192.811 123.838L183.443 131.295C181.776 133.689 181.173 136.296 180.766 138.942C180.148 142.02 176.36 145.807 173.884 150.413C172.331 154.041 172.843 157.355 172.163 161.884C168.137 174.965 155.658 173.227 149.587 173.484C143.515 173.295 131.036 175.032 127.01 161.951C126.33 157.422 126.842 154.108 125.289 150.48C122.813 145.874 119.025 142.088 118.407 139.009C118 136.363 117.397 133.756 115.73 131.362L106.362 123.906C101.435 118.886 96.1757 112.003 101.392 101.155C102.703 98.7551 104.855 96.3458 101.965 93.1255L98.9061 90.2578L99.2885 89.1107C96.0705 86.3062 93.0524 82.7197 91.0677 77.2574C88.0634 59.1156 94.3274 56.4718 102.921 61.3893C107.925 64.6372 112.171 68.1074 115.539 72.2867L111.118 67.3739C117.05 62.7825 126.819 60.8175 134.1 58.5868C146.298 47.8412 153.708 48.0746 165.734 58.8572C173.389 61.0225 182.248 63.4652 187.904 67.5091L183.634 72.2193Z" fill="#ECD618" stroke="black" stroke-width="0.720757"/>
<path fill-rule="evenodd" clip-rule="evenodd" d="M183.634 72.2195C187.002 68.0403 191.248 64.5701 196.252 61.3221C204.846 56.4047 211.11 59.0485 208.105 77.1902C206.121 82.6525 203.103 86.2391 199.885 89.0435L200.267 90.1906L197.208 93.0584C194.318 96.2786 196.47 98.6879 197.782 101.088C202.997 111.936 197.738 118.819 192.811 123.839L183.443 131.295C181.776 133.689 181.173 136.296 180.766 138.942C180.148 142.021 176.36 145.807 173.884 150.413C172.331 154.041 172.843 157.355 172.163 161.884C168.137 174.965 155.658 173.227 149.587 173.484C143.515 173.295 131.036 175.033 127.01 161.951C126.33 157.423 126.842 154.108 125.289 150.48C122.813 145.875 119.025 142.088 118.407 139.009C118 136.363 117.397 133.756 115.73 131.362L106.362 123.906C101.435 118.887 96.1757 112.004 101.392 101.155C102.703 98.7553 104.855 96.346 101.965 93.1258L98.9061 90.258L99.2885 89.1109C96.0705 86.3065 93.0524 82.7199 91.0677 77.2576C88.0634 59.1159 94.3274 56.4721 102.921 61.3895C107.925 64.6375 112.171 68.1077 115.539 72.2869L111.118 67.3742C117.05 62.7827 126.819 60.8178 134.1 58.5871C146.298 47.8414 153.708 48.0749 165.734 58.8574C173.389 61.0228 182.248 63.4655 187.904 67.5093L183.634 72.2195Z" fill="url(#paint0_radial_164_1552)" stroke="black" stroke-width="0.720757"/>
<path fill-rule="evenodd" clip-rule="evenodd" d="M183.634 72.2195C187.002 68.0403 191.248 64.5701 196.252 61.3221C204.846 56.4047 211.11 59.0485 208.105 77.1903C206.121 82.6525 203.103 86.2391 199.885 89.0435L200.267 90.1906L197.208 93.0584C194.318 96.2786 196.47 98.6879 197.782 101.088C202.997 111.936 197.738 118.819 192.811 123.839L183.443 131.295C181.776 133.689 181.173 136.296 180.766 138.942C180.148 142.021 176.36 145.807 173.884 150.413C172.331 154.041 172.843 157.355 172.163 161.884C168.137 174.965 155.658 173.227 149.587 173.484C143.515 173.295 131.036 175.033 127.01 161.951C126.33 157.423 126.842 154.108 125.289 150.48C122.813 145.875 119.025 142.088 118.407 139.009C118 136.363 117.397 133.756 115.73 131.362L106.362 123.906C101.435 118.887 96.1757 112.004 101.392 101.155C102.703 98.7553 104.855 96.346 101.965 93.1258L98.9061 90.258L99.2885 89.111C96.0705 86.3065 93.0524 82.7199 91.0677 77.2577C88.0634 59.1159 94.3274 56.4721 102.921 61.3895C107.925 64.6375 112.171 68.1077 115.539 72.2869L111.118 67.3742C117.05 62.7827 126.819 60.8178 134.1 58.5871C146.298 47.8414 153.708 48.0749 165.734 58.8574C173.389 61.0228 182.248 63.4655 187.904 67.5093L183.634 72.2195Z" fill="url(#paint1_radial_164_1552)" stroke="black" stroke-width="0.720757"/>
<path fill-rule="evenodd" clip-rule="evenodd" d="M119.068 89.801C119.043 88.7757 131.392 87.3759 136.274 90.9481C141.595 96.209 134.04 99.4696 130.634 98.0218C129.514 97.4615 127.998 96.2279 125.892 94.4873C122.726 91.8707 118.227 90.4884 119.068 89.801Z" fill="white" fill-opacity="0.776536"/>
<path fill-rule="evenodd" clip-rule="evenodd" d="M119.845 88.2504C119.82 87.2251 132.17 85.8253 137.051 89.3975C142.373 94.6585 134.818 97.9191 131.412 96.4713C130.291 95.911 128.775 94.6773 126.669 92.9368C123.503 90.3201 119.004 88.9379 119.845 88.2504Z" fill="black" stroke="black" stroke-width="0.480504"/>
<path d="M136.571 92.4566C136.572 92.9212 136.477 93.3814 136.292 93.8107C136.107 94.24 135.836 94.6302 135.494 94.9588C135.152 95.2874 134.747 95.5481 134.3 95.726C133.853 95.9038 133.375 95.9954 132.891 95.9954C132.408 95.9954 131.929 95.9038 131.482 95.726C131.036 95.5481 130.63 95.2874 130.288 94.9588C129.946 94.6302 129.675 94.24 129.491 93.8107C129.306 93.3814 129.211 92.9212 129.211 92.4566C129.211 91.992 129.306 91.5319 129.491 91.1025C129.675 90.6732 129.946 90.2831 130.288 89.9544C130.63 89.6258 131.036 89.3651 131.482 89.1873C131.929 89.0094 132.408 88.9178 132.891 88.9178C133.375 88.9178 133.853 89.0094 134.3 89.1873C134.747 89.3651 135.152 89.6258 135.494 89.9544C135.836 90.2831 136.107 90.6732 136.292 91.1025C136.477 91.5319 136.572 91.992 136.571 92.4566Z" fill="black" stroke="#777772" stroke-width="0.720757"/>
<path fill-rule="evenodd" clip-rule="evenodd" d="M151.376 156.515C152.932 156.719 154.062 157.315 155.522 158.277C164.331 162.514 166.243 153.176 166.993 141.548C168.459 130.778 175.346 129.564 174.832 127.592C174.429 126.966 169.387 128.01 166.898 128.452C157.59 130.065 154.38 127.715 151.016 125.605C147.651 127.757 144.441 130.107 135.133 128.494C132.644 128.052 127.602 127.008 127.199 127.634C126.685 129.605 133.572 130.82 135.038 141.59C135.788 153.218 137.7 162.556 146.509 158.319C148.194 157.209 149.564 156.615 151.376 156.515Z" fill="#270000" stroke="black" stroke-width="0.480504"/>
<path fill-rule="evenodd" clip-rule="evenodd" d="M151.354 150.575C152.033 150.663 152.526 150.923 153.163 151.343C157.007 153.192 158.511 149.117 158.838 144.043C158.713 137.623 161.719 132.313 161.494 131.452C161.318 131.179 159.022 131.635 157.936 131.828C153.874 132.532 152.569 131.506 151.101 130.586C149.632 131.525 148.232 132.55 144.17 131.846C143.084 131.653 140.31 131.293 140.134 131.566C139.972 132.055 143.629 136.034 143.65 144.444C143.978 149.518 145.386 153.211 149.23 151.361C149.965 150.877 150.563 150.618 151.354 150.575Z" fill="#800000" stroke="black" stroke-width="0.209687"/>
<path fill-rule="evenodd" clip-rule="evenodd" d="M162.484 131.317C163.032 128.73 164.834 129.405 166.202 128.951C167.77 130.716 164.51 137.86 162.755 137.738L162.484 131.317Z" fill="white" stroke="black" stroke-width="0.384404"/>
<path fill-rule="evenodd" clip-rule="evenodd" d="M137.312 130.911C136.764 128.324 134.962 128.998 133.594 128.545C132.026 130.31 135.287 137.454 137.042 137.332L137.312 130.911Z" fill="white" stroke="black" stroke-width="0.384404"/>
<path fill-rule="evenodd" clip-rule="evenodd" d="M145.005 89.4461C146.79 89.4085 148.506 94.7436 145.271 95.3711C144.878 95.2295 144.798 89.975 145.005 89.4461Z" fill="black" stroke="black" stroke-width="0.480504"/>
<path fill-rule="evenodd" clip-rule="evenodd" d="M136.966 121.067C136.458 121.53 136.524 122.038 136.966 122.567C137.407 123.097 138.135 123.207 138.642 122.744C139.15 122.281 139.172 121.861 138.731 121.332C138.289 120.802 137.473 120.604 136.966 121.067Z" fill="black" stroke="black" stroke-width="0.313682"/>
<path fill-rule="evenodd" clip-rule="evenodd" d="M134.864 111.942C134.357 112.405 134.423 112.912 134.864 113.442C135.305 113.972 136.033 114.082 136.541 113.619C137.048 113.155 137.07 112.736 136.629 112.206C136.188 111.677 135.371 111.478 134.864 111.942Z" fill="black" stroke="black" stroke-width="0.313682"/>
<path fill-rule="evenodd" clip-rule="evenodd" d="M139.703 115.272C140.382 114.547 142.425 117.384 141.761 117.785C141.066 117.682 140.236 117.151 139.703 115.272Z" fill="black" stroke="black" stroke-width="0.234414"/>
<path fill-rule="evenodd" clip-rule="evenodd" d="M134.355 107.881C135.034 107.157 137.28 109.048 136.616 109.448C135.921 109.345 134.888 109.761 134.355 107.881Z" fill="black" stroke="black" stroke-width="0.234414"/>
<path fill-rule="evenodd" clip-rule="evenodd" d="M139.437 117.665C139.152 116.861 137.779 116.237 137.278 116.963C136.778 117.689 137.447 119.542 138.232 119.62C139.018 119.697 139.722 118.468 139.437 117.665Z" fill="black" stroke="black" stroke-width="0.330463"/>
<path fill-rule="evenodd" clip-rule="evenodd" d="M142.415 120.627C142.182 119.971 141.061 119.461 140.653 120.054C140.244 120.647 140.79 122.16 141.432 122.223C142.073 122.286 142.648 121.283 142.415 120.627Z" fill="black" stroke="black" stroke-width="0.269761"/>
<path fill-rule="evenodd" clip-rule="evenodd" d="M132.64 109.609C132.448 109.067 131.524 108.647 131.187 109.136C130.85 109.625 131.3 110.873 131.829 110.925C132.358 110.977 132.832 110.15 132.64 109.609Z" fill="black" stroke="black" stroke-width="0.222549"/>
<path fill-rule="evenodd" clip-rule="evenodd" d="M131.984 112.84C131.502 113.447 131.682 114.806 132.484 114.842C133.285 114.877 134.391 113.468 134.072 112.825C133.752 112.182 132.465 112.232 131.984 112.84Z" fill="black" stroke="black" stroke-width="0.300481"/>
<path fill-rule="evenodd" clip-rule="evenodd" d="M134.446 116.11C135.303 115.609 136.916 118.063 136.165 118.257C135.528 117.96 134.42 118.063 134.446 116.11Z" fill="black" stroke="black" stroke-width="0.234414"/>
<path fill-rule="evenodd" clip-rule="evenodd" d="M137.698 103.602C138.995 102.122 144.398 106.125 143.958 107.541C143.118 108.388 137.233 105.058 137.698 103.602Z" fill="black" stroke="black" stroke-width="0.480504"/>
<path fill-rule="evenodd" clip-rule="evenodd" d="M141.114 99.583C142.751 98.4902 145.973 103.471 146.137 105.012C144.341 104.369 140.287 100.868 141.114 99.583Z" fill="black" stroke="black" stroke-width="0.480504"/>
<path fill-rule="evenodd" clip-rule="evenodd" d="M146.351 97.7247C147.641 97.8374 147.688 101.691 146.617 102.216C145.432 102.074 144.917 98.2536 146.351 97.7247Z" fill="black" stroke="black" stroke-width="0.480504"/>
<path fill-rule="evenodd" clip-rule="evenodd" d="M124.902 71.9701C123.719 71.5983 121.387 74.1331 121.793 75.3497C122.198 76.5664 125.747 77.6817 126.524 76.8368C127.302 75.9919 126.085 72.3418 124.902 71.9701Z" fill="black" stroke="black" stroke-width="0.480504"/>
<path fill-rule="evenodd" clip-rule="evenodd" d="M118.121 79.8168C116.938 79.4451 114.606 81.1687 115.012 82.3854C115.417 83.602 118.966 84.7173 119.743 83.8724C120.52 83.0275 119.304 80.1886 118.121 79.8168Z" fill="black" stroke="black" stroke-width="0.480504"/>
<path fill-rule="evenodd" clip-rule="evenodd" d="M141.51 64.5482C140.328 64.1764 136.779 66.1704 137.184 67.3871C137.59 68.6037 141.544 69.1783 142.322 68.3334C143.099 67.4885 142.693 64.9199 141.51 64.5482Z" fill="black" stroke="black" stroke-width="0.480504"/>
<path fill-rule="evenodd" clip-rule="evenodd" d="M125.584 64.535C124.807 65.2448 124.503 66.9684 125.179 67.7795C125.854 68.5906 127.51 68.4892 128.288 67.7795C129.065 67.0698 128.964 65.7517 128.288 64.9406C127.612 64.1295 126.361 63.8253 125.584 64.535Z" fill="black" stroke="black" stroke-width="0.480504"/>
<path fill-rule="evenodd" clip-rule="evenodd" d="M118.397 66.4761C117.62 67.1858 117.721 67.9631 118.397 68.7742C119.073 69.5854 120.188 69.7543 120.966 69.0446C121.743 68.3349 121.777 67.6927 121.101 66.8816C120.425 66.0705 119.175 65.7663 118.397 66.4761Z" fill="black" stroke="black" stroke-width="0.480504"/>
<path fill-rule="evenodd" clip-rule="evenodd" d="M138.699 83.1906C137.529 84.2564 130.599 76.1878 132.211 75.7554C132.756 75.609 139.558 82.4092 138.699 83.1906Z" fill="black" stroke="black" stroke-width="0.480504"/>
<path fill-rule="evenodd" clip-rule="evenodd" d="M144.179 81.4534C143.19 82.6893 136.125 74.5966 137.69 74.0182C139.177 73.4689 145.01 80.4153 144.179 81.4534Z" fill="black" stroke="black" stroke-width="0.480504"/>
<path fill-rule="evenodd" clip-rule="evenodd" d="M138.263 57.5185C137.08 57.1467 135.153 58.1944 135.559 59.4111C135.965 60.6278 138.702 61.4727 139.479 60.6278C140.257 59.7829 139.446 57.8903 138.263 57.5185Z" fill="black" stroke="black" stroke-width="0.480504"/>
<path fill-rule="evenodd" clip-rule="evenodd" d="M115.984 91.7073C116.615 91.3468 122.476 97.8758 121.121 98.3314C118.86 98.3214 115.857 95.9534 115.984 91.7073Z" fill="black" stroke="black" stroke-width="0.480504"/>
<path fill-rule="evenodd" clip-rule="evenodd" d="M111.293 98.947C112.923 97.7296 116.023 104.192 114.537 104.76C113.172 104.302 111.689 102.931 111.293 98.947Z" fill="black" stroke="black" stroke-width="0.480504"/>
<path fill-rule="evenodd" clip-rule="evenodd" d="M125.18 97.2498C127.514 98.8177 131.456 102.874 130.317 104.685C128.844 105.148 125.737 99.9547 125.18 97.2498Z" fill="black" stroke="black" stroke-width="0.480504"/>
<path fill-rule="evenodd" clip-rule="evenodd" d="M123.478 112.244C121.729 114.626 128.825 120.155 131.029 117.788C127.834 116.957 125.684 114.558 123.478 112.244Z" fill="black" stroke="black" stroke-width="0.480504"/>
<path fill-rule="evenodd" clip-rule="evenodd" d="M118.507 115.876C118.643 115.739 125.848 120.292 125.102 121.038C124.152 121.988 118.277 116.105 118.507 115.876Z" fill="black" stroke="black" stroke-width="0.480504"/>
<path fill-rule="evenodd" clip-rule="evenodd" d="M120.979 134.692C121.508 133.181 124.898 141.45 124.559 142.264C124.042 143.505 120.872 134.998 120.979 134.692Z" fill="black" stroke="black" stroke-width="0.480504"/>
<path fill-rule="evenodd" clip-rule="evenodd" d="M106.746 106.508C104.325 113.036 107.648 120.745 112.003 121.707C112.644 120.754 108.99 119.375 107.943 114.597C107.102 110.754 107.343 106.272 106.746 106.508Z" fill="black" stroke="black" stroke-width="0.480504"/>
<path fill-rule="evenodd" clip-rule="evenodd" d="M127.68 144.553C128.09 143.944 130.504 149.047 131.026 151.436C131.466 153.449 128.832 154.006 128.732 153.252C128.438 151.041 127.372 145.012 127.68 144.553Z" fill="black" stroke="black" stroke-width="0.480504"/>
<path fill-rule="evenodd" clip-rule="evenodd" d="M145.863 111.107C148.656 114.311 151.057 112.753 152.352 111.039C156.313 106.921 160.071 111.183 157.354 114.013L153.23 118.136C151.719 119.727 147.168 119.909 145.863 118.339L141.199 113.608C138.907 110.561 142.241 107.613 145.863 111.107Z" fill="black" stroke="black" stroke-width="0.480504"/>
<path fill-rule="evenodd" clip-rule="evenodd" d="M174.27 71.9028C175.453 71.5311 177.785 74.0658 177.379 75.2825C176.973 76.4991 173.425 77.6144 172.647 76.7695C171.87 75.9246 173.087 72.2746 174.27 71.9028Z" fill="black" stroke="black" stroke-width="0.480504"/>
<path fill-rule="evenodd" clip-rule="evenodd" d="M181.063 79.7495C182.246 79.3777 184.577 81.1013 184.172 82.318C183.766 83.5347 180.218 84.65 179.44 83.805C178.663 82.9601 179.88 80.1212 181.063 79.7495Z" fill="black" stroke="black" stroke-width="0.480504"/>
<path fill-rule="evenodd" clip-rule="evenodd" d="M157.671 64.4807C158.854 64.1089 162.402 66.1029 161.997 67.3196C161.591 68.5362 157.637 69.1108 156.86 68.2659C156.082 67.421 156.488 64.8524 157.671 64.4807Z" fill="black" stroke="black" stroke-width="0.480504"/>
<path fill-rule="evenodd" clip-rule="evenodd" d="M173.593 64.4675C174.37 65.1773 174.675 66.9009 173.999 67.712C173.323 68.5231 171.667 68.4217 170.889 67.712C170.112 67.0023 170.213 65.6842 170.889 64.8731C171.565 64.062 172.816 63.7578 173.593 64.4675Z" fill="black" stroke="black" stroke-width="0.480504"/>
<path fill-rule="evenodd" clip-rule="evenodd" d="M180.773 66.4087C181.55 67.1184 181.449 67.8957 180.773 68.7069C180.097 69.518 178.982 69.687 178.204 68.9772C177.427 68.2675 177.393 67.6254 178.069 66.8142C178.745 66.0031 179.995 65.699 180.773 66.4087Z" fill="black" stroke="black" stroke-width="0.480504"/>
<path fill-rule="evenodd" clip-rule="evenodd" d="M160.477 83.1231C161.648 84.1888 168.578 76.1203 166.966 75.6879C166.421 75.5415 159.619 82.3417 160.477 83.1231Z" fill="black" stroke="black" stroke-width="0.480504"/>
<path fill-rule="evenodd" clip-rule="evenodd" d="M154.979 81.3862C155.968 82.6221 163.033 74.5293 161.468 73.9509C159.981 73.4016 154.148 80.3481 154.979 81.3862Z" fill="black" stroke="black" stroke-width="0.480504"/>
<path fill-rule="evenodd" clip-rule="evenodd" d="M160.914 57.4511C162.096 57.0793 164.023 58.127 163.617 59.3437C163.212 60.5604 160.474 61.4053 159.697 60.5604C158.92 59.7155 159.731 57.8229 160.914 57.4511Z" fill="black" stroke="black" stroke-width="0.480504"/>
<path fill-rule="evenodd" clip-rule="evenodd" d="M183.191 91.6399C182.56 91.2794 176.7 97.8084 178.054 98.264C180.316 98.254 183.319 95.8861 183.191 91.6399Z" fill="black" stroke="black" stroke-width="0.480504"/>
<path fill-rule="evenodd" clip-rule="evenodd" d="M187.886 98.8795C186.256 97.6621 183.157 104.125 184.642 104.692C186.007 104.234 187.49 102.864 187.886 98.8795Z" fill="black" stroke="black" stroke-width="0.480504"/>
<path fill-rule="evenodd" clip-rule="evenodd" d="M173.995 97.1824C171.661 98.7503 167.72 102.807 168.858 104.618C170.331 105.081 173.439 99.8874 173.995 97.1824Z" fill="black" stroke="black" stroke-width="0.480504"/>
<path fill-rule="evenodd" clip-rule="evenodd" d="M175.696 112.176C177.445 114.559 170.349 120.088 168.145 117.72C171.34 116.89 173.49 114.491 175.696 112.176Z" fill="black" stroke="black" stroke-width="0.480504"/>
<path fill-rule="evenodd" clip-rule="evenodd" d="M180.673 115.809C180.537 115.672 173.331 120.224 174.078 120.971C175.028 121.921 180.902 116.038 180.673 115.809Z" fill="black" stroke="black" stroke-width="0.480504"/>
<path fill-rule="evenodd" clip-rule="evenodd" d="M178.201 134.625C177.672 133.113 174.282 141.383 174.621 142.197C175.138 143.437 178.308 134.931 178.201 134.625Z" fill="black" stroke="black" stroke-width="0.480504"/>
<path fill-rule="evenodd" clip-rule="evenodd" d="M192.434 106.441C194.854 112.969 191.531 120.678 187.177 121.64C186.535 120.687 190.19 119.308 191.236 114.529C192.078 110.686 191.837 106.205 192.434 106.441Z" fill="black" stroke="black" stroke-width="0.480504"/>
<path fill-rule="evenodd" clip-rule="evenodd" d="M171.497 144.486C171.088 143.877 168.673 148.98 168.151 151.369C167.711 153.381 170.345 153.938 170.445 153.185C170.74 150.973 171.805 144.945 171.497 144.486Z" fill="black" stroke="black" stroke-width="0.480504"/>
<path fill-rule="evenodd" clip-rule="evenodd" d="M162.203 120.999C162.71 121.463 162.644 121.97 162.203 122.5C161.762 123.029 161.034 123.14 160.526 122.676C160.019 122.213 159.997 121.794 160.438 121.264C160.879 120.735 161.695 120.536 162.203 120.999Z" fill="black" stroke="black" stroke-width="0.313682"/>
<path fill-rule="evenodd" clip-rule="evenodd" d="M164.316 111.875C164.824 112.338 164.757 112.846 164.316 113.375C163.875 113.905 163.147 114.015 162.639 113.552C162.132 113.088 162.11 112.669 162.551 112.14C162.992 111.61 163.809 111.411 164.316 111.875Z" fill="black" stroke="black" stroke-width="0.313682"/>
<path fill-rule="evenodd" clip-rule="evenodd" d="M159.478 115.204C158.799 114.48 156.756 117.317 157.42 117.717C158.115 117.614 158.945 117.084 159.478 115.204Z" fill="black" stroke="black" stroke-width="0.234414"/>
<path fill-rule="evenodd" clip-rule="evenodd" d="M164.815 107.814C164.137 107.089 161.891 108.98 162.555 109.38C163.25 109.277 164.283 109.693 164.815 107.814Z" fill="black" stroke="black" stroke-width="0.234414"/>
<path fill-rule="evenodd" clip-rule="evenodd" d="M159.737 117.598C160.022 116.794 161.395 116.169 161.895 116.896C162.396 117.622 161.727 119.475 160.941 119.553C160.155 119.63 159.451 118.401 159.737 117.598Z" fill="black" stroke="black" stroke-width="0.330463"/>
<path fill-rule="evenodd" clip-rule="evenodd" d="M156.764 120.56C156.997 119.904 158.117 119.394 158.526 119.987C158.934 120.58 158.388 122.092 157.747 122.156C157.106 122.219 156.531 121.216 156.764 120.56Z" fill="black" stroke="black" stroke-width="0.269761"/>
<path fill-rule="evenodd" clip-rule="evenodd" d="M166.536 109.541C166.728 109 167.652 108.579 167.989 109.069C168.326 109.558 167.876 110.806 167.347 110.858C166.818 110.91 166.344 110.082 166.536 109.541Z" fill="black" stroke="black" stroke-width="0.222549"/>
<path fill-rule="evenodd" clip-rule="evenodd" d="M167.191 112.772C167.673 113.379 167.492 114.739 166.691 114.774C165.89 114.81 164.784 113.4 165.103 112.757C165.423 112.114 166.709 112.164 167.191 112.772Z" fill="black" stroke="black" stroke-width="0.300481"/>
<path fill-rule="evenodd" clip-rule="evenodd" d="M164.729 116.043C163.872 115.542 162.259 117.996 163.01 118.189C163.647 117.892 164.755 117.996 164.729 116.043Z" fill="black" stroke="black" stroke-width="0.234414"/>
<path fill-rule="evenodd" clip-rule="evenodd" d="M161.469 103.535C160.172 102.055 154.77 106.057 155.209 107.474C156.049 108.321 161.934 104.991 161.469 103.535Z" fill="black" stroke="black" stroke-width="0.480504"/>
<path fill-rule="evenodd" clip-rule="evenodd" d="M158.063 99.5154C156.426 98.4226 153.203 103.403 153.039 104.944C154.835 104.301 158.889 100.801 158.063 99.5154Z" fill="black" stroke="black" stroke-width="0.480504"/>
<path fill-rule="evenodd" clip-rule="evenodd" d="M152.823 97.6572C151.533 97.7699 151.486 101.624 152.557 102.148C153.742 102.007 154.257 98.1861 152.823 97.6572Z" fill="black" stroke="black" stroke-width="0.480504"/>
<path fill-rule="evenodd" clip-rule="evenodd" d="M154.175 89.3786C152.39 89.341 150.673 94.6761 153.908 95.3036C154.301 95.162 154.381 89.9075 154.175 89.3786Z" fill="black" stroke="black" stroke-width="0.480504"/>
<path fill-rule="evenodd" clip-rule="evenodd" d="M179.877 89.6099C179.902 88.5846 167.553 87.1848 162.671 90.757C157.35 96.018 164.905 99.2786 168.311 97.8308C169.431 97.2705 170.947 96.0368 173.053 94.2963C176.219 91.6796 180.718 90.2974 179.877 89.6099Z" fill="white" fill-opacity="0.776536"/>
<path fill-rule="evenodd" clip-rule="evenodd" d="M179.334 88.1831C179.359 87.1578 167.01 85.7579 162.128 89.3301C156.807 94.5911 164.362 97.8517 167.768 96.4039C168.888 95.8436 170.404 94.6099 172.51 92.8694C175.676 90.2527 180.175 88.8705 179.334 88.1831Z" fill="black" stroke="black" stroke-width="0.480504"/>
<path d="M162.604 92.3891C162.604 92.8537 162.699 93.3139 162.884 93.7432C163.069 94.1725 163.34 94.5626 163.682 94.8913C164.023 95.2199 164.429 95.4806 164.876 95.6585C165.322 95.8363 165.801 95.9279 166.285 95.9279C166.768 95.9279 167.247 95.8363 167.693 95.6585C168.14 95.4806 168.546 95.2199 168.888 94.8913C169.229 94.5626 169.5 94.1725 169.685 93.7432C169.87 93.3139 169.965 92.8537 169.965 92.3891C169.965 91.9245 169.87 91.4643 169.685 91.035C169.5 90.6057 169.229 90.2156 168.888 89.8869C168.546 89.5583 168.14 89.2976 167.693 89.1197C167.247 88.9419 166.768 88.8503 166.285 88.8503C165.801 88.8503 165.322 88.9419 164.876 89.1197C164.429 89.2976 164.023 89.5583 163.682 89.8869C163.34 90.2156 163.069 90.6057 162.884 91.035C162.699 91.4643 162.604 91.9245 162.604 92.3891Z" fill="black" stroke="#777772" stroke-width="0.720757"/>
<path fill-rule="evenodd" clip-rule="evenodd" d="M151.354 150.575C152.033 150.663 152.526 150.923 153.163 151.343C157.007 153.192 158.511 149.117 158.838 144.043C158.713 137.622 161.719 132.313 161.494 131.452C161.318 131.179 159.022 131.635 157.936 131.828C153.874 132.532 152.569 131.506 151.101 130.586C149.632 131.525 148.232 132.55 144.17 131.846C143.084 131.653 140.31 131.293 140.134 131.566C139.972 132.055 143.629 136.034 143.65 144.444C143.978 149.518 145.386 153.211 149.23 151.361C149.965 150.877 150.563 150.618 151.354 150.575Z" fill="url(#paint2_radial_164_1552)" stroke="black" stroke-width="0.209687"/>
<path fill-rule="evenodd" clip-rule="evenodd" d="M140.492 154.208C140.478 157.549 146.48 156.564 146.706 154.304C146.865 150.71 144.672 148.002 145.176 144.649C143.09 147.003 140.625 149.308 140.492 154.208Z" fill="white" stroke="black" stroke-width="0.384404"/>
<path fill-rule="evenodd" clip-rule="evenodd" d="M161.136 153.739C161.15 157.08 155.148 156.095 154.922 153.835C154.763 150.241 156.956 147.533 156.452 144.18C158.538 146.534 161.003 148.839 161.136 153.739Z" fill="white" stroke="black" stroke-width="0.384404"/>
<path fill-rule="evenodd" clip-rule="evenodd" d="M146.071 130.303C145.704 129.554 147.568 128.74 147.963 129.492C148.47 130.455 148.369 132.804 148.369 132.804C148.369 132.804 146.443 131.063 146.071 130.303Z" fill="white" stroke="black" stroke-width="0.384404"/>
<path fill-rule="evenodd" clip-rule="evenodd" d="M154.826 129.946C155.192 129.196 153.329 128.383 152.933 129.134C152.426 130.098 152.528 132.446 152.528 132.446C152.528 132.446 154.454 130.706 154.826 129.946Z" fill="white" stroke="black" stroke-width="0.384404"/>
<path fill-rule="evenodd" clip-rule="evenodd" d="M99.2885 89.1109C96.0705 86.3064 93.0524 82.7199 91.0677 77.2576C88.0634 59.1158 94.3274 56.472 102.921 61.3895C107.925 64.6374 112.171 68.1077 115.539 72.2869L115.443 72.2867C109.494 68.3015 88.2998 45.1458 91.9279 76.9706C93.3569 82.6566 96.7239 85.2419 99.2885 89.1109Z" fill="black" stroke="black" stroke-width="0.720757"/>
<path fill-rule="evenodd" clip-rule="evenodd" d="M199.918 89.0156C203.136 86.2111 206.155 82.6246 208.139 77.1623C211.144 59.0205 204.88 56.3767 196.286 61.2942C191.282 64.5421 187.036 68.0123 183.668 72.1915L183.764 72.1913C189.712 68.2062 210.907 45.0505 207.279 76.8753C205.85 82.5613 202.483 85.1465 199.918 89.0156Z" fill="black" stroke="black" stroke-width="0.720757"/>
<path d="M255.678 6.32947L230.633 77.258" stroke="black" stroke-width="0.720757"/>
<defs>
<radialGradient id="paint0_radial_164_1552" cx="0" cy="0" r="1" gradientUnits="userSpaceOnUse" gradientTransform="translate(201.588 67.7119) scale(59.6422 61.7784)">
<stop stop-color="#BFBFB5"/>
<stop offset="1" stop-color="#BFBFB5" stop-opacity="0"/>
</radialGradient>
<radialGradient id="paint1_radial_164_1552" cx="0" cy="0" r="1" gradientUnits="userSpaceOnUse" gradientTransform="translate(98.3497 69.2413) scale(59.6422 61.7784)">
<stop stop-color="#BFBFB5"/>
<stop offset="1" stop-color="#BFBFB5" stop-opacity="0"/>
</radialGradient>
<radialGradient id="paint2_radial_164_1552" cx="0" cy="0" r="1" gradientUnits="userSpaceOnUse" gradientTransform="translate(150.817 141.216) scale(10.7934 10.7348)">
<stop stop-color="white"/>
<stop offset="1" stop-color="white" stop-opacity="0"/>
</radialGradient>
</defs>
</svg>
