<svg width="300" height="300" viewBox="0 0 300 300" fill="none" xmlns="http://www.w3.org/2000/svg">
<g clip-path="url(#clip0_164_8701)">
<path d="M151.009 154.265L259.451 254.933L251.73 72.103C250.596 44.3939 226.517 50.7511 209.025 60.7467C191.306 72.103 171.091 72.103 149.735 64.6049C128.384 72.1026 108.167 72.1026 90.4475 60.7463C72.958 50.7519 48.8813 44.3935 47.7446 72.1026L40.0195 254.933L151.009 154.265Z" fill="white" stroke="#C09300" stroke-width="2.01144" stroke-linejoin="round"/>
<path d="M60.2179 65.739L52.7223 243.582L40 254.931L47.7252 72.1009C51.3574 69.6024 57.721 65.739 60.2179 65.739ZM75.4498 78.4692L69.0895 227.234L56.3719 240.249L64.094 68.4703C66.5941 70.9672 74.0913 77.0996 75.4498 78.4613V78.4692ZM89.3042 89.8219L84.3087 213.897L74.0881 223.888L80.45 82.3263C82.9422 84.8248 87.9393 88.4602 89.3042 89.8219ZM104.299 96.187L99.3015 201.935L89.3058 210.041L94.3029 92.3268C96.803 93.462 101.8 96.187 104.299 96.187ZM118.153 96.187L114.516 184.312L104.295 194.308L108.159 97.3238C110.653 97.3238 117.015 97.3238 118.153 96.187Z" fill="#C09300"/>
<path d="M239.235 65.739L246.731 243.582L259.453 254.931L251.728 72.1009C248.096 69.6024 241.732 65.739 239.235 65.739ZM224.003 78.4692L230.364 227.234L243.081 240.249L235.359 68.4703C232.859 70.9672 225.362 77.0996 224.003 78.4613V78.4692ZM210.149 89.8219L215.144 213.897L225.365 223.888L219.003 82.3263C216.511 84.8248 211.514 88.4602 210.149 89.8219ZM195.155 96.187L200.152 201.935L210.147 210.041L205.15 92.3268C202.65 93.462 197.653 96.187 195.155 96.187ZM181.3 96.187L184.937 184.312L195.158 194.308L191.294 97.3238C188.801 97.3238 182.439 97.3238 181.3 96.187Z" fill="#C09300"/>
<path d="M154.731 174.31L169.951 243.59L164.951 248.586L159.727 244.724L151.095 182.945L154.73 244.724L149.731 251.083L144.734 244.724L148.369 182.945L139.739 244.724L134.51 248.586L129.516 243.59L144.734 174.31L154.731 174.31Z" fill="#C09300" stroke="#C09300" stroke-width="1.70031"/>
<path d="M115.652 143.878L85.4414 251.079L127.012 257.44L144.727 176.81L115.652 143.877L115.652 143.878Z" fill="white" stroke="#C09300" stroke-width="1.88263" stroke-linejoin="round"/>
<path d="M105.66 180.453L109.295 189.309L128.936 170.549" stroke="#C09300" stroke-width="2.0107" stroke-linejoin="round"/>
<path d="M119.261 158.255L123.371 196.803L135.864 180.45M130.867 186.803L137.691 210.355M140.367 201.702L126.563 222.668M130.869 243.593L126.451 222.696L122.594 201.443L113.347 213.965L109.291 199.527L96.3477 212.803L102.93 236.951L112.015 222.012L117.012 237.231L126.338 222.724" stroke="#C09300" stroke-width="2.0107" stroke-linejoin="round"/>
<path d="M94.293 248.585L102.684 236.799L108.151 254.94L115.647 242.222L120.647 257.444" stroke="#C09300" stroke-width="2.0107" stroke-linejoin="round"/>
<path d="M183.801 143.878L214.012 251.079L172.441 257.44L154.726 176.81L183.801 143.877L183.801 143.878Z" fill="white" stroke="#C09300" stroke-width="1.88263" stroke-linejoin="round"/>
<path d="M193.793 180.453L190.158 189.309L170.517 170.549" stroke="#C09300" stroke-width="2.0107" stroke-linejoin="round"/>
<path d="M180.192 158.255L176.082 196.803L163.589 180.45M168.586 186.803L161.762 210.355M159.086 201.702L172.89 222.668M168.584 243.593L173.002 222.696L176.859 201.443L186.106 213.965L190.162 199.527L203.105 212.803L196.523 236.951L187.438 222.012L182.442 237.231L173.115 222.724" stroke="#C09300" stroke-width="2.0107" stroke-linejoin="round"/>
<path d="M205.16 248.585L196.769 236.799L191.302 254.94L183.806 242.222L178.806 257.444" stroke="#C09300" stroke-width="2.0107" stroke-linejoin="round"/>
<path d="M149.728 299C181.305 299 211.517 296.502 229.233 291.504C236.731 290.145 236.731 286.283 236.731 281.283C244.229 278.786 240.365 269.93 245.589 269.93C240.365 271.296 239.231 261.072 232.87 262.438C232.87 253.577 224.01 252.443 216.514 254.937C201.52 259.936 174.943 261.073 149.728 261.073C124.514 259.936 98.1625 259.936 82.9432 254.937C75.4473 252.443 66.5919 253.577 66.5919 262.438C60.2294 261.073 59.0942 271.296 53.8711 269.93C59.0942 269.93 55.2319 278.786 62.7288 281.283C62.7288 286.283 62.7288 290.145 70.452 291.504C87.9404 296.502 118.156 299 149.728 299Z" fill="white" stroke="#C09300" stroke-width="3.76526" stroke-linecap="round" stroke-linejoin="round"/>
<path d="M106.804 251.072C117.024 252.435 128.382 253.57 137.245 252.435C142.237 252.435 145.873 261.065 135.879 262.431C127.023 263.563 113.165 262.431 105.668 261.065C99.3078 259.929 85.4518 257.432 76.5915 254.929C67.7327 251.072 74.0959 243.58 79.0886 244.714C86.8137 247.21 96.8096 249.711 106.805 251.072L106.804 251.072ZM192.67 251.072C182.447 252.435 171.092 253.57 162.458 252.435C157.232 252.435 153.597 261.065 163.593 262.431C172.453 263.563 186.31 262.431 193.801 261.065C200.164 259.929 214.018 257.432 222.877 254.929C231.739 251.072 225.38 243.58 220.38 244.714C212.657 247.21 202.662 249.71 192.67 251.072Z" fill="white" stroke="#C09300" stroke-width="2.0107" stroke-linecap="round" stroke-linejoin="round"/>
<path d="M75.4545 246.084C67.7325 244.721 64.0982 253.576 66.5994 258.572C67.7336 256.074 72.9585 256.074 74.096 253.576C75.4545 249.717 72.9585 249.718 75.4545 246.084ZM105.665 269.312C105.665 264.32 110.66 264.934 110.66 259.936C110.66 257.439 109.3 253.576 106.802 253.576C104.302 253.576 101.802 256.073 101.802 258.571C100.665 263.57 105.665 264.321 105.665 269.312ZM141.623 254.935C149.113 254.935 148.371 264.933 144.735 269.929C144.735 266.295 138.376 264.933 138.376 262.437C138.376 258.571 144.118 258.571 141.623 254.935ZM224.006 246.084C231.729 244.721 235.365 253.576 232.865 258.572C231.728 256.074 226.505 256.074 225.369 253.576C224.006 249.717 226.506 249.718 224.006 246.084ZM193.795 269.312C193.795 264.32 188.802 264.934 188.802 259.936C188.802 257.439 190.163 253.576 192.663 253.576C195.16 253.576 197.66 256.073 197.66 258.571C198.797 263.57 193.795 264.321 193.795 269.312ZM157.837 254.935C150.344 254.935 151.087 264.933 154.722 269.929C154.722 266.295 161.08 264.933 161.08 262.437C161.081 258.571 155.338 258.571 157.837 254.935Z" fill="white" stroke="#C09300" stroke-width="2.0107" stroke-linecap="round" stroke-linejoin="round"/>
<path d="M77.9566 248.586C80.4582 248.586 84.3179 249.722 85.4543 251.083L77.9492 248.581L77.9566 248.586ZM90.4334 252.449C91.7979 252.449 96.7958 253.583 99.2937 254.943L90.4268 252.442L90.4334 252.449ZM135.876 257.437C133.378 257.437 128.38 257.437 127.02 258.569L135.872 257.429L135.876 257.437ZM122.021 257.437C120.662 256.071 115.662 256.071 113.165 257.437H122.016H122.021ZM221.52 248.586C219.022 248.586 215.385 249.722 214.022 251.083L221.52 248.586ZM209.027 252.449C207.665 252.449 202.666 253.583 200.168 254.943L209.034 252.442L209.027 252.449ZM163.585 257.437C166.086 257.437 171.082 257.437 172.444 258.569L163.577 257.429L163.585 257.437ZM177.439 257.437C178.801 256.071 183.802 256.071 186.298 257.437H177.431H177.439Z" fill="white" stroke="#C09300" stroke-width="1.41059" stroke-linecap="round" stroke-linejoin="round"/>
<path d="M75.8485 268.552C75.0029 268.39 74.5589 267.721 74.7715 266.93C75.031 265.965 75.8034 265.413 76.5331 265.672C76.9974 265.836 77.847 266.692 77.8507 267C77.8551 267.353 77.4059 268.191 77.2129 268.193C77.1295 268.194 77.0003 268.267 76.9258 268.355C76.7674 268.542 76.2714 268.632 75.8485 268.552V268.552ZM162.822 274.759C162.508 274.642 162.007 273.937 162.007 273.613C162.01 273 162.916 272.001 163.478 271.995C163.755 271.994 164.515 272.388 164.799 272.683C165.313 273.219 165.201 274.097 164.554 274.596C164.236 274.842 163.287 274.931 162.823 274.758L162.822 274.759ZM163.392 278.685C162.727 278.46 162.484 278.135 162.429 277.397C162.373 276.628 162.448 276.509 163.26 276.066L163.839 275.75L164.387 275.995C165.148 276.334 165.485 276.699 165.512 277.21C165.541 277.761 165.133 278.324 164.498 278.608C163.942 278.858 163.909 278.86 163.392 278.686V278.685Z" fill="#C09300"/>
<path d="M82.8296 261.443C82.2816 261.425 81.5294 261.929 81.098 262.185C80.0701 262.426 78.8739 263.057 77.8819 262.383C76.9046 262.081 75.6047 262.319 75.4571 263.521C75.7081 264.553 77.1541 265.143 78.0302 264.461C78.6805 263.61 80.455 263.111 80.6525 264.56C79.9291 265.656 80.0114 267.107 79.4157 268.271C79.3187 268.996 79.0171 269.684 78.6241 270.3C77.8922 270.373 77.1138 270.287 76.4964 270.745C75.5051 270.799 74.4938 271.292 73.9232 272.13C73.2847 273.046 72.6747 273.976 72.4883 275.099C72.6581 276.247 73.9727 276.576 74.9625 276.633C76.0181 276.924 77.0751 277.305 78.1292 277.623C79.8476 278.007 81.4574 278.628 83.1762 279.008C85.6848 279.764 88.3188 280.112 90.8455 280.789C91.1105 280.877 91.3585 280.954 91.6371 280.987C92.686 281.205 93.233 280.065 93.3194 279.206C93.8398 277.37 94.2369 275.502 94.7543 273.664C95.1105 272.927 95.5404 271.262 94.1114 271.636C93.2957 272.124 92.6041 272.86 91.5877 272.922C90.2037 273.003 90.9935 274.418 91.5382 275C91.6586 275.93 91.3644 277.041 90.7466 277.771C89.9235 278.293 88.8916 277.683 88.0251 277.474C87.1153 277.49 85.2965 277.026 86.145 275.792C86.4462 274.878 86.4727 273.879 86.8378 272.972C87.3024 271.998 87.3688 270.937 87.5796 269.904C87.0075 268.673 86.0302 270.309 85.2544 270.448C84.7193 270.82 82.7123 270.977 83.7697 271.932C84.6805 272.624 83.9822 273.827 83.8191 274.703C83.7608 275.923 82.4927 276.214 81.4936 275.941C80.4997 275.893 79.1164 275.153 79.9597 274.06C80.1517 273.15 80.4694 272.255 80.6525 271.339C81.0282 270.234 81.3449 269.181 81.7412 268.073C81.9129 267.091 82.2653 266.161 82.7304 265.302C82.758 264.217 83.487 263.283 83.4726 262.185C83.3987 261.648 83.1585 261.453 82.8296 261.443ZM77.1397 272.922C77.2689 272.9 77.3611 272.919 77.4859 272.971C77.8811 273.14 77.8929 273.461 77.4859 273.813C77.308 273.966 77.1057 274.114 77.0404 274.11C76.3 274.046 76.0816 273.936 76.0513 273.664C76.0236 273.425 76.0993 273.356 76.5953 273.12C76.8415 273.002 77.0101 272.944 77.1397 272.922ZM75.4988 280.871C74.7134 280.132 74.84 279.594 76.0011 278.728C76.4982 278.358 76.7994 278.399 77.3678 278.918C78.2425 279.716 78.2775 280.221 77.5054 280.905C77.1238 281.243 76.957 281.312 76.5126 281.316C76.048 281.321 75.9162 281.263 75.4988 280.871ZM80.3281 282.327C80.1473 282.284 79.9772 282.204 79.8284 282.093C79.6796 281.981 79.5552 281.841 79.4629 281.679C79.3705 281.518 79.3122 281.34 79.2916 281.155C79.2709 280.97 79.2883 280.783 79.3427 280.605C79.5456 279.917 79.6638 279.849 80.6728 279.839C81.8047 279.828 82.0243 280.017 82.035 281.014C82.0413 281.575 81.9981 281.705 81.7187 281.965C81.391 282.269 80.7606 282.434 80.3281 282.327V282.327ZM221.421 282.454C221.062 282.155 220.989 282.019 220.985 281.639C220.981 280.989 221.355 280.512 222.166 280.144C223.246 279.655 223.686 279.722 224.093 280.438C224.634 281.391 224.608 281.779 223.96 282.421C223.602 282.775 223.536 282.796 222.717 282.804C221.914 282.809 221.822 282.787 221.421 282.454ZM86.7407 284.275C86.1646 284.121 85.866 283.688 85.8586 282.998C85.852 282.469 85.8903 282.385 86.2598 282.095C86.4997 281.908 86.8776 281.747 87.1758 281.707C87.5984 281.649 87.753 281.685 88.093 281.924C88.9647 282.537 89.15 283.143 88.6451 283.732C88.1074 284.358 87.598 284.503 86.7407 284.275ZM121.448 285.826C121.32 285.667 121.038 285.573 121.009 285.372C121.059 284.493 121.101 283.604 121.381 282.762C121.533 281.934 121.4 281.069 121.689 280.263C121.985 278.795 121.984 277.282 122.325 275.824C122.341 275.072 122.412 274.321 122.63 273.598C122.88 272.455 122.652 271.261 122.988 270.132C122.952 269.707 123.44 268.575 123.869 269.246C124.492 270.159 125.312 270.901 126.119 271.645C126.812 272.045 126.176 272.634 125.697 272.832C125.04 273.091 124.88 273.815 124.926 274.451C124.834 275.107 124.571 275.728 124.544 276.398C124.405 277.384 124.432 278.385 124.304 279.369C124.016 280.334 124.126 281.364 124.03 282.358C124.042 282.989 123.743 283.562 123.784 284.196C123.707 284.838 123.678 285.611 123.139 286.052C122.619 286.315 121.866 286.269 121.448 285.826H121.448ZM168.474 270.309C167.71 270.887 167.027 271.569 166.346 272.239C165.408 272.95 167.117 273.363 167.335 273.971C167.585 274.899 167.57 275.888 167.632 276.841C167.916 277.714 168.041 278.644 167.979 279.563C167.897 280.548 166.612 280.34 166.049 280.899C165.27 281.226 164.96 281.992 164.367 282.531C163.977 283.295 163.872 284.235 163.823 285.104C163.878 285.813 163.344 286.607 163.823 287.232C163.884 287.32 163.957 287.441 164.02 287.529C164.181 287.759 164.563 287.575 164.812 287.628C165.609 287.583 166.44 287.702 167.187 287.38C169.103 287.049 171.036 287.022 172.976 286.935C174.162 286.973 175.304 286.56 176.489 286.589C177.418 286.794 177.837 285.787 177.826 285.055C177.299 284.02 177.754 282.793 177.331 281.739C176.959 280.675 177.105 279.478 176.935 278.375C176.911 277.507 175.809 277.185 175.252 277.831C174.712 278.377 173.839 278.486 173.422 279.167C172.952 280.12 174.415 280.121 174.658 280.849C174.937 281.584 174.846 282.401 174.906 283.174C175.087 284.113 174.068 284.166 173.422 284.263C172.572 284.582 171.379 284.795 170.898 283.769C170.596 283.009 170.637 282.196 170.552 281.393C170.531 279.981 170.191 278.593 170.106 277.188C170.025 275.451 169.725 273.725 169.612 271.992C169.596 271.271 169.5 270.095 168.474 270.31V270.309ZM167.484 283.372L167.979 283.422L168.028 284.015L168.078 284.609L167.434 284.807C167.094 284.908 166.796 284.956 166.791 284.955C166.689 284.894 166.59 284.828 166.494 284.757C166.147 284.506 166.236 284.148 166.692 283.669C166.95 283.399 167.071 283.347 167.484 283.372ZM120.039 268.679C119.437 268.892 118.673 269.776 118.06 269.767C116.666 269.866 116.861 271.223 117.861 271.697C117.994 272.108 117.87 272.628 117.911 273.082C118.105 274.332 117.317 275.339 117.466 276.596C117.396 277.973 116.98 279.315 116.921 280.702C116.53 282.133 116.526 283.603 116.278 285.057C116.113 286.36 115.171 285.9 114.348 285.552C114.342 284.986 114.305 284.434 114.299 283.869C114.642 282.575 113.601 282.198 112.567 282.039C111.481 282.141 110.948 281.21 111.182 280.257C111.649 279.701 112.822 279.856 113.557 279.763C115.11 280.084 115.048 278.002 114.249 277.288C113.704 276.282 112.352 275.849 111.973 274.815C112.125 273.443 111.214 272.072 110.093 271.401C108.37 271.28 107.068 272.767 106.432 274.221C105.715 274.428 105 274.643 104.304 274.913C103.181 275.194 101.581 277.141 103.116 277.882C103.978 278.12 106.6 278.718 105.442 279.911C104.789 281.03 103.54 281.05 102.424 280.752C101.278 280.753 100.003 280.195 100.049 278.872C99.815 277.684 99.8534 276.405 99.3068 275.309C99.0713 273.98 97.5637 274.291 97.4759 275.507C96.3148 276.353 96.4694 277.72 97.278 278.723C97.7825 279.877 97.2828 281.221 96.7835 282.286C96.4808 283.671 94.9529 283.718 93.8637 284.166C93.3293 284.373 91.2854 284.043 92.0332 285.205C93.2253 285.626 94.6499 286.004 95.8925 285.699C97.1953 285.538 98.3269 284.647 98.9602 283.523C99.8353 282.636 101.339 283.1 102.473 283.077C103.697 283.074 104.948 283.936 106.135 283.374C106.479 282.481 108.07 281.006 108.559 282.533C108.476 283.899 109.682 284.632 110.934 284.463C112.302 284.385 111.797 285.43 111.776 286.244C111.866 287.724 112.82 288.5 114.052 289.114C114.471 289.227 114.914 289.189 115.338 289.114C116.522 288.742 117.798 288.214 118.159 286.888C118.639 285.81 118.651 284.59 119 283.474C119.28 281.684 119.642 279.895 119.692 278.08C120.129 276.436 120.004 274.698 120.335 273.033C120.545 271.795 120.701 270.558 120.83 269.322C120.685 268.662 120.4 268.551 120.039 268.679ZM109.302 275.259C109.542 275.289 109.674 275.583 109.698 276.101C109.723 276.677 110.024 277.147 110.39 277.239C110.679 277.311 110.654 277.617 110.341 277.832C110.159 277.958 109.833 278.034 109.252 278.03C108.337 278.025 107.77 277.788 107.273 277.288L106.976 276.991L107.422 276.694C107.734 276.448 108.031 276.184 108.312 275.903C108.763 275.442 109.062 275.23 109.302 275.259ZM213.853 262.788C212.955 262.83 212.052 262.975 211.23 263.184C209.583 263.082 208.757 264.81 210.34 265.658C211.292 268.088 212.779 265.157 214.298 265.361C216.574 265.804 216.767 268.262 217.119 270.111C217.247 271.943 217.774 273.724 218.306 275.456C219.829 277.149 217.165 278.211 216.03 276.89C215.062 275.838 212.989 274.548 211.824 276C210.393 276.606 210.335 278.518 209.152 279.067C207.238 279.65 206.997 277.296 205.986 276.297C205.056 274.991 203.277 274.877 201.829 274.416C201.15 273.041 201.504 270.702 200.097 269.765C198.916 270.247 196.751 272.46 198.564 273.476C200.333 274.997 197.791 275.694 196.98 276.742C195.822 278.032 195.637 279.807 195.446 281.443C193.452 282.544 193.064 280.195 192.824 278.721C192.669 276.961 191.184 277.478 190.152 278.127C188.644 278.738 187.891 280.17 186.837 281.294C186.71 282.32 186.896 283.442 186.886 284.51C187.229 285.795 188.79 285.192 189.756 285.104C191.306 284.456 191.94 286.097 190.696 287.034C189.854 288.104 187.181 287.545 187.431 289.26C188.292 289.361 189.189 289.329 190.053 289.26C191.779 288.789 193.633 287.57 193.813 285.648C194.041 283.973 196.454 284.278 197.772 283.917C199.419 283.442 201.405 283.319 201.78 285.401C202.903 286.58 205.34 287.909 206.579 286.291C207.837 285.523 208.441 284.173 208.36 282.729C208.104 281.487 210.369 281.442 210.933 282.135C211.759 283.494 214.339 283.093 215.584 282.333C216.908 281.356 217.195 279.633 219.098 279.612C221.919 278.767 224.851 278.279 227.608 277.237C229.841 276.75 227.276 275.34 226.717 274.515C225.017 273.674 223.538 277.115 221.621 275.406C220.139 274.272 220.24 272.118 219.691 270.458C219.316 268.309 219.411 265.83 217.86 264.124C216.796 262.992 215.35 262.72 213.853 262.788ZM203.066 277.781C203.266 277.776 203.49 277.875 203.858 278.078C204.552 278.461 205.046 279.096 205.045 279.612C205.045 279.948 204.959 279.971 204.452 280.206C204.14 280.349 203.784 280.504 203.66 280.502C203.373 280.499 202.671 279.938 202.671 279.711C202.669 279.616 202.578 279.257 202.472 278.969C202.286 278.461 202.315 278.468 202.571 278.127C202.735 277.91 202.867 277.786 203.066 277.781ZM213.408 278.325C213.997 278.287 214.347 278.471 214.595 278.919C214.883 279.44 214.687 279.839 213.952 280.156C213.629 280.295 213.307 280.408 213.259 280.403C213.211 280.399 212.945 280.241 212.665 280.057C212.238 279.776 212.175 279.639 212.17 279.315C212.166 278.816 212.724 278.37 213.408 278.325ZM199.256 278.473C199.429 278.447 199.586 278.537 199.8 278.721C200.085 278.966 200.175 279.163 200.246 279.661C200.295 280.008 200.288 280.456 200.246 280.651C200.169 281.009 200.161 280.992 199.355 280.997C198.341 281.007 198.247 280.896 198.266 279.958C198.279 279.361 198.285 279.201 198.613 278.869C198.867 278.613 199.084 278.5 199.256 278.473ZM190.548 280.75C190.864 280.824 191.162 281.062 191.24 281.442C191.344 281.945 191.253 282.174 190.844 282.383C190.493 282.562 189.682 282.621 189.459 282.482C189.387 282.436 189.238 282.318 189.162 282.184C189.054 281.993 189.074 281.9 189.212 281.789C189.308 281.711 189.41 281.599 189.41 281.542C189.409 281.484 189.516 281.283 189.657 281.096C189.888 280.789 190.232 280.675 190.548 280.75ZM205.194 282.63C205.476 282.628 205.714 282.726 205.886 282.877C206.18 283.134 206.17 283.511 205.837 283.768C205.623 283.933 204.457 283.918 204.056 283.768C203.877 283.701 203.809 283.612 203.808 283.422C203.805 283.199 203.868 283.061 204.254 282.877C204.577 282.723 204.912 282.632 205.194 282.63ZM178.006 290.26C177.854 290.161 177.629 290.074 177.855 289.909C178.129 289.43 178.675 289.264 179.161 289.086C180.028 288.71 180.777 288.072 181.336 287.315C181.415 286.788 182.007 286.502 182.004 285.951C182.009 285.199 182.054 284.428 181.87 283.693C181.667 283.019 181.155 282.502 180.561 282.151C180.155 281.832 179.494 281.744 179.344 281.178C179.261 280.636 179.746 280.222 179.915 279.739C180.269 279.071 180.566 278.371 180.946 277.72C181.356 277.264 181.989 277.695 182.201 278.135C182.501 278.575 182.766 279.047 182.915 279.556C183.394 280.082 183.818 280.698 183.99 281.396C184.225 281.888 184.597 282.35 184.575 282.926C184.575 283.585 184.947 284.172 184.924 284.836C184.945 285.723 184.945 286.648 184.62 287.486C184.399 287.951 183.954 288.23 183.66 288.646C183.155 289.114 182.598 289.563 181.95 289.812C181.493 289.957 181.227 290.486 180.653 290.358C179.838 290.372 179.012 290.483 178.203 290.351C178.254 290.437 177.956 290.206 178.006 290.26V290.26ZM167.16 290.972C166.775 290.577 166.692 290.41 166.688 290.022C166.683 289.63 166.759 289.474 167.135 289.094C167.828 288.393 168.168 288.376 169.366 288.983C170.511 289.562 170.898 289.615 171 289.204C171.099 288.808 171.758 288.446 172.384 288.443C172.78 288.44 173.004 288.519 173.322 288.766C173.72 289.076 173.739 289.124 173.749 289.841C173.755 290.575 173.746 290.602 173.289 291.007C172.85 291.393 172.78 291.417 172.236 291.363C171.543 291.293 171.128 290.976 171.015 290.431C170.933 290.035 170.794 289.94 170.69 290.209C170.657 290.296 170.487 290.403 170.312 290.446C169.99 290.528 169.443 290.872 169.055 291.238C168.908 291.377 168.65 291.442 168.233 291.446C167.67 291.451 167.592 291.417 167.16 290.972ZM135.778 276.881C134.725 276.892 133.592 277.777 133.452 278.81C133.692 280.001 134.682 281.168 134.046 282.422C134.485 284.026 132.84 284.635 131.72 283.709C131.044 282.171 130.701 280.485 129.691 279.107C128.418 278.747 127.863 280.781 126.97 281.482C127.413 282.678 128.705 283.75 128.85 285.243C129.159 286.691 128.278 288.299 127.019 289.053C125.933 290.089 124.446 289.719 123.11 289.943C121.489 290.891 124.301 291.237 125.04 291.279C126.699 291.448 128.421 291.229 129.641 289.993C130.859 289.411 130.765 287.305 132.215 287.073C134.729 286.961 137.222 287.459 139.736 287.519C141.08 287.84 143.161 287.358 144.09 288.36C144.093 290.113 145.579 291.195 147.009 291.873C147.799 292.093 148.631 291.114 149.434 290.933C150.962 290.445 150.497 288.555 151.413 287.815C154.026 287.674 156.664 287.704 159.28 287.667C159.778 287.68 159.925 286.971 160.27 286.678C160.212 285.666 160.176 284.662 160.023 283.659C159.518 282.382 160.104 280.738 159.181 279.651C157.867 279.293 156.749 280.496 155.421 280.592C153.954 281.245 152.719 282.599 152.65 284.253C151.782 285.673 150.39 284 150.869 282.818C150.814 282.303 150.98 281.703 150.819 281.235C150.016 280.272 148.611 280.586 147.504 280.443C145.891 280.507 144.317 280.159 142.704 280.196C141.291 280.089 139.82 280.319 138.449 279.949C136.816 279.902 137.041 278.304 136.767 277.177C136.477 276.962 136.128 276.877 135.778 276.881ZM138.944 282.719C139.487 282.73 139.999 282.801 140.528 282.867C141.21 282.98 141.936 282.633 142.605 282.867C144.152 283.13 145.699 283.068 147.257 283.214C147.668 283.208 147.963 283.506 148.246 283.758C148.25 284.84 148.247 285.941 148.246 287.024C148.199 287.432 148.367 287.971 147.999 288.261C147.881 288.342 147.748 288.431 147.603 288.459C147.175 288.348 146.721 288.066 146.514 287.667C146.449 287.101 146.543 286.552 146.564 285.985C146.553 285.838 146.628 285.609 146.564 285.49C146.227 285.251 145.845 285.096 145.426 285.094C144.081 285.048 142.763 284.949 141.418 284.896C140.299 284.826 139.149 284.992 138.053 284.698C137.629 284.544 137.075 284.597 136.817 284.154C136.446 283.723 136.98 283.209 137.361 283.016C137.865 282.787 138.401 282.709 138.944 282.719L138.944 282.719ZM156.806 283.115C157.057 283.112 157.137 283.194 157.251 283.659C157.324 283.956 157.409 284.32 157.449 284.451C157.507 284.638 157.415 284.698 157.152 284.797C156.37 285.092 155.592 285.063 155.322 284.698C155.199 284.533 155.342 284.01 155.569 283.808C156.027 283.398 156.535 283.116 156.806 283.115Z" fill="#C09300"/>
<path d="M169.215 76.1891C170.271 76.2524 167.787 70.5397 167.787 70.5397C170.582 73.3961 181.135 74.0785 181.135 74.0785C174.801 71.2823 168.471 50.1761 169.215 33.353C169.899 16.468 166.796 9.82427 164.311 7.34156C161.145 4.17485 150.964 1.3818 144.26 1.00813C140.472 0.822878 141.093 3.86451 141.093 3.86451C134.079 2.06423 127.065 1.3818 123.898 3.49242C120.916 5.47953 120.296 15.4119 122.47 13.6734C127.745 9.45217 132.34 13.3013 135.505 17.8946C138.298 21.9306 138.113 33.353 134.077 46.6991C129.856 60.7292 118.309 74.7593 118.309 74.7593C124.579 74.7593 133.395 69.1733 133.395 69.1733L131.284 77.9261C137.926 74.7593 143.204 69.8557 143.204 69.8557L149.536 76.4979C151.646 73.7048 155.869 69.8557 155.869 69.8557C155.869 69.8557 161.145 75.4434 169.215 76.1891Z" fill="white" stroke="#C09300" stroke-width="1.92853"/>
<path d="M143.583 35.7819C143.583 35.7819 140.045 61.7933 133.402 69.1813M149.173 35.1011C149.173 35.1011 147.806 61.4212 143.213 69.8653M154.128 36.1619C154.128 36.1619 154.128 64.9664 155.867 69.87M160.399 37.587C160.399 37.587 161.827 61.7981 167.787 70.5509" stroke="#C09300" stroke-width="2.01086"/>
<path d="M137.181 23.1783C136.871 20.8824 136.312 19.0805 135.505 17.9009C132.338 13.3076 127.746 9.45847 122.469 13.6797C122.469 13.6797 124.269 8.09204 128.118 7.90679C131.098 7.71995 137.864 10.1409 143.825 20.3219C143.825 20.3219 139.417 19.3291 138.362 20.2601C136.374 21.9987 137.181 23.1783 137.181 23.1783Z" fill="#C09300" stroke="#C09300" stroke-width="0.560509"/>
<path d="M121.918 6.79058C122.352 5.36239 123.036 4.05931 123.905 3.50039C127.072 1.38977 134.086 2.0722 141.1 3.87248C141.1 3.87248 140.48 0.830831 144.267 1.01767C150.971 1.38976 161.152 4.1844 164.317 7.34953C165.061 8.15704 165.932 9.33663 166.676 11.1353H166.553C165.001 8.96296 160.593 9.08805 159.537 9.21155C157.86 9.39838 156.806 9.33505 154.57 9.89398C153.516 10.1426 151.901 10.4529 151.031 11.1353C150.35 11.6942 149.79 13.7431 148.735 13.7431C147.059 13.7431 147.184 13.3093 146.748 12.8121C146.189 12.1297 145.879 11.1353 145.32 11.1971C143.583 11.509 140.789 10.1426 137.251 7.34953C133.712 4.5549 132.346 3.87247 127.753 4.18281C123.221 4.5549 121.793 7.10092 121.793 7.10092L121.918 6.79058Z" fill="#C09300" stroke="#C09300" stroke-width="0.560509"/>
<path d="M147.862 10.8884C148.89 10.8884 149.724 10.0547 149.724 9.02633C149.724 7.99796 148.89 7.16431 147.862 7.16431C146.834 7.16431 146 7.99796 146 9.02633C146 10.0547 146.834 10.8884 147.862 10.8884Z" fill="white"/>
<path d="M149.694 193.58C201.378 153.828 196.947 95.5961 196.947 95.5961C195.583 95.8688 194.287 96.0052 192.924 96.0052C182.082 96.0052 156.224 89.803 150.192 81.9249C143.73 89.0555 117.305 96.0052 106.532 96.0052C105.168 96.0052 103.805 95.8688 102.509 95.5961C102.509 95.5961 98.0097 153.826 149.694 193.58Z" fill="white" stroke="#C09300" stroke-width="1.82087"/>
<path d="M192.824 99.8602C192.379 99.8881 191.932 99.902 191.482 99.902C181.656 99.902 158.834 94.8609 150.037 87.3029C140.823 94.2847 117.624 99.902 107.958 99.902C107.504 99.902 107.056 99.8466 106.612 99.765C106.59 101.967 106.704 104.25 106.841 106.326C107.352 114.086 108.713 121.873 110.78 129.367C117.284 152.951 130.597 172.994 149.686 188.197C168.791 172.981 182.12 152.92 188.639 129.318C190.708 121.826 192.074 114.039 192.59 106.28C192.711 104.108 192.832 101.448 192.824 99.8602Z" stroke="#C09300" stroke-width="1.45036"/>
<mask id="mask0_164_8701" style="mask-type:luminance" maskUnits="userSpaceOnUse" x="107" y="87" width="86" height="101">
<path d="M192.375 100.182C191.935 100.211 191.493 100.223 191.047 100.223C181.326 100.223 158.747 95.2355 150.044 87.7579C140.927 94.6654 117.976 100.223 108.412 100.223C107.963 100.223 107.52 100.17 107.081 100.087C107.058 102.266 107.172 104.524 107.307 106.578C107.814 114.255 109.16 121.96 111.204 129.374C117.64 152.707 130.811 172.536 149.696 187.578C168.598 172.524 181.785 152.676 188.234 129.326C190.282 121.913 191.632 114.209 192.143 106.533C192.263 104.384 192.383 101.752 192.375 100.182Z" fill="white"/>
</mask>
<g mask="url(#mask0_164_8701)">
<path fill-rule="evenodd" clip-rule="evenodd" d="M106.359 86.7515H135.27V188.575H106.359V86.7515Z" fill="#CE1126"/>
<path fill-rule="evenodd" clip-rule="evenodd" d="M135.27 86.7515H164.18V188.575H135.27V86.7515Z" fill="white"/>
<path fill-rule="evenodd" clip-rule="evenodd" d="M164.18 86.7515H193.09V188.575H164.18V86.7515Z" fill="black"/>
</g>
</g>
<defs>
<clipPath id="clip0_164_8701">
<rect width="300" height="300" fill="white"/>
</clipPath>
</defs>
</svg>
