<svg width="300" height="300" viewBox="0 0 300 300" fill="none" xmlns="http://www.w3.org/2000/svg">
<path fill-rule="evenodd" clip-rule="evenodd" d="M243.09 212.149L253.598 227.003L253.676 226.97L262.799 213.071L256.255 201.177L243.09 212.149Z" fill="white" stroke="black" stroke-width="1.37097"/>
<path fill-rule="evenodd" clip-rule="evenodd" d="M178.156 255.217L178.857 269.999C178.857 269.999 183.025 269.981 186.585 268.728C190.145 267.476 193.097 264.989 193.097 264.989L192.624 257.154L178.156 255.217Z" fill="white" stroke="black" stroke-width="1.39609"/>
<path fill-rule="evenodd" clip-rule="evenodd" d="M123.203 255.212L122.49 269.532C122.49 269.532 118.705 269.384 115.315 268.536C111.925 267.687 108.83 265.834 108.83 265.834L104.879 255.938L123.203 255.212Z" fill="white" stroke="black" stroke-width="1.38498"/>
<path fill-rule="evenodd" clip-rule="evenodd" d="M71.7305 51.1049H228.394C228.394 51.1049 228.394 163.794 228.394 215.411C228.394 270.528 156.603 228.14 150.331 257.442C139.575 227.38 72.2672 271.154 72.2672 212.086C72.2672 154.752 71.7305 51.1049 71.7305 51.1049Z" fill="#DDDDDD" stroke="black" stroke-width="1.90412"/>
<path fill-rule="evenodd" clip-rule="evenodd" d="M57.2289 212.145L46.721 226.999L35.3008 208.114L43.8117 198.86L57.2289 212.145Z" fill="white" stroke="black" stroke-width="1.37097"/>
<path d="M144.89 28.1122L135.8 28.5229L131.547 36.567L126.646 28.9L117.553 29.2383L121.742 21.1606L116.902 13.4548L125.993 13.0441L130.246 5L135.147 12.667L144.24 12.3287L140.051 20.4064L144.89 28.1122Z" fill="#FFFF00" stroke="black" stroke-width="1.90412"/>
<path d="M106.405 31.0892L97.5773 33.2947L95.0035 42.0226L88.6795 35.4799L79.834 37.6149L82.3381 28.8668L76.0664 22.2739L84.8946 20.0685L87.4683 11.3406L93.7924 17.8833L102.638 15.7482L100.134 24.4964L106.405 31.0892Z" fill="#FFFF00" stroke="black" stroke-width="1.90412"/>
<path d="M69.3414 38.7437L61.2098 42.8275L60.6083 51.9071L53.0058 46.9069L44.842 50.9258L45.371 41.8418L37.8086 36.7811L45.9402 32.6973L46.5416 23.6177L54.1441 28.6179L62.308 24.599L61.7789 33.683L69.3414 38.7437Z" fill="#FFFF00" stroke="black" stroke-width="1.90412"/>
<path d="M156.691 28.1122L165.782 28.5229L170.035 36.567L174.936 28.9L184.029 29.2383L179.84 21.1606L184.679 13.4548L175.589 13.0441L171.336 5L166.435 12.667L157.342 12.3287L161.531 20.4064L156.691 28.1122Z" fill="#FFFF00" stroke="black" stroke-width="1.90412"/>
<path d="M195.18 31.0892L204.008 33.2947L206.582 42.0226L212.906 35.4799L221.751 37.6149L219.247 28.8668L225.519 22.2739L216.691 20.0685L214.117 11.3406L207.793 17.8833L198.947 15.7482L201.451 24.4964L195.18 31.0892Z" fill="#FFFF00" stroke="black" stroke-width="1.90412"/>
<path d="M232.242 38.7437L240.374 42.8275L240.975 51.9071L248.578 46.9069L256.742 50.9258L256.213 41.8418L263.775 36.7811L255.643 32.6973L255.042 23.6177L247.439 28.6179L239.276 24.599L239.805 33.683L232.242 38.7437Z" fill="#FFFF00" stroke="black" stroke-width="1.90412"/>
<path fill-rule="evenodd" clip-rule="evenodd" d="M108.387 264.719V284.578C108.387 298.477 192.788 298.471 192.788 284.578V264.719C192.788 275.036 108.387 273.288 108.387 264.719Z" fill="white" stroke="black" stroke-width="1.37097"/>
<path fill-rule="evenodd" clip-rule="evenodd" d="M33.3438 239.101C40.4378 276.765 108.428 277.503 108.428 277.503L108.39 264.768C107.016 260.019 109.777 258.338 120.847 256.791C125.339 256.163 123.139 249.609 123.139 249.609C123.139 249.609 93.7103 255.232 72.801 246.811C44.8117 235.539 40.6038 213.309 40.6038 213.309C40.6038 213.309 38.6785 230.348 33.3438 239.101Z" fill="white" stroke="black" stroke-width="1.37097"/>
<path fill-rule="evenodd" clip-rule="evenodd" d="M267.842 239.102C260.748 276.765 192.758 277.503 192.758 277.503L192.796 264.768C194.17 260.02 191.408 258.338 180.339 256.791C175.846 256.163 178.047 249.609 178.047 249.609C178.047 249.609 207.475 255.232 228.384 246.811C256.374 235.539 259.704 213.411 259.704 213.411C259.704 213.411 262.507 230.348 267.842 239.102Z" fill="white" stroke="black" stroke-width="1.37097"/>
<path fill-rule="evenodd" clip-rule="evenodd" d="M38.5024 224.677C19.5882 214.432 34.4903 203.804 36.0188 173.475C39.1711 191.863 59.7094 199.912 57.2257 211.876C48.7238 212.187 44.7117 199.028 40.604 213.309L38.5024 224.677Z" fill="white" stroke="black" stroke-width="1.37097"/>
<path fill-rule="evenodd" clip-rule="evenodd" d="M262.328 224.576C281.243 214.33 265.834 203.804 264.305 173.475C261.153 191.863 240.615 199.912 243.098 211.876C251.6 212.187 255.612 199.028 259.72 213.309L262.328 224.576Z" fill="white" stroke="black" stroke-width="1.37097"/>
<path d="M134.979 287.621V273.642H139.509C141.225 273.642 142.344 273.712 142.865 273.852C143.666 274.062 144.337 274.52 144.877 275.225C145.418 275.925 145.688 276.83 145.688 277.943C145.688 278.801 145.532 279.523 145.221 280.107C144.909 280.692 144.512 281.153 144.029 281.49C143.552 281.821 143.066 282.04 142.57 282.148C141.896 282.282 140.92 282.348 139.642 282.348H137.802V287.621H134.979ZM137.802 276.007V279.974H139.347C140.459 279.974 141.203 279.901 141.578 279.755C141.953 279.608 142.245 279.38 142.455 279.068C142.671 278.757 142.779 278.394 142.779 277.981C142.779 277.472 142.63 277.053 142.331 276.722C142.033 276.392 141.654 276.185 141.197 276.103C140.86 276.039 140.183 276.007 139.166 276.007H137.802ZM159.162 287.621H156.091L154.871 284.446H149.283L148.129 287.621H145.135L150.58 273.642H153.564L159.162 287.621ZM153.965 282.091L152.039 276.903L150.15 282.091H153.965ZM159.457 287.621V285.075L166.8 276.007H160.287V273.642H170.518V275.836L162.861 285.266H170.814V287.621H159.457Z" fill="black"/>
<path fill-rule="evenodd" clip-rule="evenodd" d="M161.365 231.212C161.365 231.212 159.388 233.41 155.605 231.789C151.822 230.168 151.496 126.514 151.496 126.514C159.636 117.632 166.357 114.457 166.357 114.457L171.316 118.622C152.576 128.052 154.436 141.705 155.97 164.851C156.545 173.524 156.37 184.776 158.575 195.334C161.412 208.916 167.134 220.262 167.511 228.808C167.761 234.401 161.365 231.212 161.365 231.212Z" fill="#64430B" stroke="black" stroke-width="0.418907"/>
<path fill-rule="evenodd" clip-rule="evenodd" d="M148.734 112.379H155.946C149.929 171.554 155.152 206.944 155.094 223.777C155.073 229.631 158.387 231.696 158.153 231.954C150.724 240.138 147.062 231.357 147.062 231.357L148.734 112.379Z" fill="#64430B" stroke="black" stroke-width="0.418907"/>
<path fill-rule="evenodd" clip-rule="evenodd" d="M137.363 231.415C130.233 234.793 129.644 227.882 129.977 227.202C145.01 196.475 151.641 129.04 137.619 121.747L138.465 115.142C143.617 116.746 148.513 123.794 148.513 123.794C150.56 199.26 148.544 230.56 147.581 231.603C140.244 239.551 137.039 230.716 136.937 229.829" fill="#996600"/>
<path d="M137.363 231.415C130.233 234.793 129.644 227.882 129.977 227.202C145.01 196.475 151.641 129.04 137.619 121.747L138.465 115.142C143.617 116.746 148.513 123.794 148.513 123.794C150.56 199.26 148.544 230.56 147.581 231.603C140.244 239.551 137.039 230.716 136.937 229.829" stroke="black" stroke-width="0.418907"/>
<path d="M136.951 229.888C135.464 223.518 147.568 206.868 146.817 189.281" stroke="black" stroke-width="0.418907"/>
<path d="M156.762 203.32C160.463 213.721 162.04 222.724 161.443 231.166" stroke="black" stroke-width="0.418907"/>
<path fill-rule="evenodd" clip-rule="evenodd" d="M172.668 84.3418C175.343 81.4999 175.104 81.6193 179.833 81.285C180.43 75.2668 191.03 75.3763 191.532 82.9707C199.652 81.2751 201.347 86.4096 198.314 91.2815C205.885 89.371 212.909 91.172 210.974 100.39C224.921 103.949 219.691 113.668 213.267 116.057C212.67 121.836 206.747 124.224 198.843 121.597C189.075 128.666 183.439 126.087 178.782 119.113C167.964 120.976 167.176 118.445 162.065 112.236C153.754 115.961 151.796 115.889 144.583 111.471C144.154 116.988 142.195 115.292 138.565 115.006C138.852 122.505 136.058 125.776 129.49 123.317C134.482 133.275 121.776 137.956 115.352 129.239C109.597 129.932 109.358 128.093 106.468 126.087C104.2 134.254 95.1484 132.869 93.2857 128.475C81.9658 126.732 83.2793 120.833 92.5215 120.355C93.5961 113.716 99.1367 115.125 102.934 115.675C103.101 111.901 105.68 112.642 107.71 113.477C106.492 110.492 107.209 109.035 111.054 107.937C105.752 101.298 108.976 98.623 114.397 96.2826C111.34 89.7629 116.188 90.0973 120.129 89.5958C119.651 82.7417 121.466 81.3327 129.013 80.8073C128.057 78.0609 129.466 76.3176 133.502 76.2221C131.043 69.0337 134.338 67.5769 141.909 68.6755C142.745 58.6929 164.787 63.4693 163.02 77.5594C169.014 78.2759 171.355 79.4938 172.668 84.3418Z" fill="#009900" stroke="black" stroke-width="0.418907"/>
<path d="M129.043 80.8008C130.708 81.5277 132.787 80.5297 133.268 85.0624C136.606 79.3427 140.656 82.7518 140.489 89.1462" stroke="black" stroke-width="0.418907"/>
<path d="M163.018 77.5116C161.239 79.7804 155.436 79.9833 155.902 86.5866C153.812 83.5656 150.098 82.6103 148.164 85.6791" stroke="black" stroke-width="0.418907"/>
<path d="M172.715 84.2939C172.906 86.0134 172.333 91.0166 170.613 93.3212" stroke="black" stroke-width="0.418907"/>
<path d="M198.313 91.3136C198.48 91.5657 192.418 91.1958 189.672 93.4168" stroke="black" stroke-width="0.418907"/>
<path d="M213.219 116.057C211.63 115.054 208.442 112.952 206.102 116.248C206.197 114.576 206.161 110.253 201.469 110.038" stroke="black" stroke-width="0.418907"/>
<path d="M198.841 121.597C199.176 117.454 198.125 116.092 197.504 115.149" stroke="black" stroke-width="0.418907"/>
<path d="M185.607 115.674C182.085 113.585 179.1 116.952 178.777 119.161" stroke="black" stroke-width="0.418907"/>
<path d="M161.967 112.188C161.884 110.612 160.427 107.173 163.352 105.883" stroke="black" stroke-width="0.418907"/>
<path d="M115.3 129.287C116.033 125.474 118.707 125.488 118.478 123.185C118.146 119.837 114.263 116.982 109.664 121.454" stroke="black" stroke-width="0.418907"/>
<path d="M118.48 123.173C120.773 122.487 123.185 122.761 124.308 124.248" stroke="black" stroke-width="0.418907"/>
<path d="M111.281 107.887C113.093 106.397 117.001 106.715 119.544 108.053" stroke="black" stroke-width="0.418907"/>
<path d="M119.414 98.3842C121.862 98.1573 125.325 97.5245 126.722 101.298C131.176 94.0378 134.555 95.196 135.319 96.8558" stroke="black" stroke-width="0.418907"/>
<path d="M143.199 95.9005C146.698 94.7662 152.215 98.0379 155.665 103.495C157.206 99.1126 159.534 99.7216 162.066 99.6738" stroke="black" stroke-width="0.418907"/>
<path d="M177.773 103.638C183.015 101.131 186.538 105.979 188.043 107.937C190.359 104.88 192.592 104.952 195.064 104.976" stroke="black" stroke-width="0.418907"/>
<path d="M128.09 113.241C129.627 111.586 132.21 111.012 134.237 112.296C133.966 108.378 136.567 106.858 138.154 107.567" stroke="black" stroke-width="0.418907"/>
<path d="M50.0964 238.697L51.9774 240.382L47.4565 245.428C46.7391 246.228 46.2974 246.768 46.1314 247.047C45.8703 247.501 45.7877 247.979 45.8838 248.481C45.9798 248.983 46.2904 249.47 46.8157 249.94C47.3495 250.419 47.8497 250.67 48.3163 250.695C48.7829 250.72 49.1861 250.598 49.5259 250.329C49.8656 250.061 50.3657 249.558 51.0262 248.821L55.6439 243.668L57.5248 245.353L53.1406 250.246C52.1385 251.364 51.3797 252.109 50.8643 252.48C50.3489 252.85 49.8122 253.072 49.2543 253.145C48.6964 253.218 48.1042 253.143 47.4778 252.922C46.8513 252.701 46.1696 252.26 45.4324 251.599C44.5428 250.802 43.9602 250.095 43.6847 249.478C43.4091 248.86 43.285 248.268 43.3123 247.7C43.3396 247.133 43.4722 246.631 43.7101 246.195C44.0655 245.551 44.7101 244.708 45.6439 243.666L50.0964 238.697ZM51.3361 256.317L58.0421 245.758L60.1164 247.075L59.9595 256.871L64.4378 249.82L66.4184 251.078L59.7125 261.637L57.5734 260.278L57.6898 250.689L53.3168 257.575L51.3361 256.317ZM62.0918 262.724L67.5621 251.475L69.8333 252.58L64.363 263.828L62.0918 262.724ZM70.7013 253.162L75.0481 254.716C76.0283 255.066 76.7487 255.408 77.2093 255.742C77.8275 256.192 78.2902 256.765 78.5974 257.461C78.9045 258.156 79.0521 258.927 79.0403 259.771C79.0285 260.615 78.8254 261.589 78.4311 262.693C78.0847 263.662 77.6656 264.455 77.1738 265.07C76.5729 265.822 75.9045 266.366 75.1687 266.701C74.6127 266.955 73.9437 267.069 73.1616 267.043C72.5773 267.022 71.846 266.854 70.9675 266.54L66.4922 264.941L70.7013 253.162ZM72.3676 256.005L69.5796 263.806L71.3553 264.441C72.0195 264.678 72.5123 264.812 72.8337 264.842C73.2538 264.884 73.6322 264.835 73.969 264.695C74.3057 264.556 74.6487 264.251 74.9979 263.781C75.3471 263.311 75.6845 262.62 76.0099 261.71C76.3352 260.799 76.5047 260.071 76.5182 259.527C76.5317 258.982 76.4426 258.521 76.251 258.145C76.0593 257.768 75.7585 257.452 75.3484 257.197C75.043 257.003 74.4056 256.733 73.4361 256.387L72.3676 256.005ZM89.5418 271.152L86.8448 270.628L86.3142 267.631L81.406 266.678L79.851 269.27L77.2211 268.76L84.3875 257.409L87.0092 257.918L89.5418 271.152ZM85.9202 265.407L85.1129 260.522L82.5699 264.757L85.9202 265.407ZM91.4691 258.729L96.0803 258.939C97.1201 258.986 97.9092 259.102 98.4475 259.286C99.1706 259.535 99.7811 259.947 100.279 260.522C100.777 261.097 101.144 261.79 101.38 262.6C101.617 263.411 101.708 264.402 101.655 265.572C101.608 266.601 101.44 267.481 101.151 268.214C100.797 269.109 100.317 269.825 99.7122 270.361C99.2553 270.767 98.6492 271.073 97.894 271.278C97.3291 271.429 96.5808 271.483 95.6489 271.44L90.9014 271.225L91.4691 258.729ZM93.896 260.958L93.5199 269.234L95.4036 269.32C96.1082 269.352 96.6186 269.335 96.9347 269.27C97.3485 269.186 97.6959 269.028 97.9769 268.796C98.2579 268.564 98.4963 268.172 98.6922 267.62C98.8881 267.068 99.008 266.309 99.0519 265.343C99.0958 264.377 99.0443 263.632 98.8973 263.107C98.7503 262.582 98.53 262.168 98.2363 261.864C97.9427 261.56 97.5623 261.347 97.0954 261.223C96.7467 261.127 96.0581 261.056 95.0296 261.009L93.896 260.958Z" fill="black"/>
<path d="M198.825 261.434L201.248 261.143L202.162 268.764C202.282 269.761 202.286 270.538 202.175 271.095C202.024 271.824 201.664 272.438 201.097 272.937C200.529 273.435 199.739 273.745 198.726 273.867C197.538 274.009 196.584 273.786 195.863 273.198C195.143 272.609 194.703 271.672 194.543 270.386L196.803 269.849C196.913 270.535 197.072 271.01 197.282 271.274C197.597 271.675 198.022 271.843 198.559 271.779C199.101 271.714 199.465 271.513 199.653 271.177C199.84 270.841 199.875 270.186 199.758 269.211L198.825 261.434ZM202.814 260.967L205.211 260.47L206.543 266.901C206.754 267.922 206.921 268.577 207.043 268.867C207.246 269.332 207.571 269.671 208.018 269.886C208.465 270.1 209.023 270.138 209.693 269.999C210.373 269.858 210.857 269.613 211.145 269.263C211.433 268.914 211.57 268.529 211.557 268.11C211.543 267.69 211.439 267.011 211.244 266.071L209.885 259.503L212.282 259.006L213.573 265.243C213.868 266.668 214.012 267.689 214.004 268.304C213.996 268.919 213.86 269.466 213.596 269.943C213.332 270.42 212.933 270.839 212.399 271.2C211.866 271.561 211.129 271.839 210.19 272.033C209.056 272.268 208.169 272.315 207.529 272.174C206.889 272.034 206.355 271.79 205.929 271.441C205.502 271.093 205.187 270.701 204.984 270.265C204.686 269.617 204.4 268.629 204.125 267.3L202.814 260.967ZM215.475 266.645L217.677 265.709C218.054 266.429 218.508 266.902 219.039 267.128C219.569 267.354 220.19 267.355 220.9 267.131C221.652 266.895 222.169 266.557 222.45 266.119C222.731 265.681 222.804 265.249 222.67 264.823C222.584 264.549 222.431 264.342 222.21 264.2C221.989 264.059 221.656 263.98 221.212 263.964C220.909 263.955 220.232 263.983 219.183 264.047C217.834 264.131 216.835 264.026 216.188 263.733C215.278 263.32 214.679 262.656 214.39 261.741C214.205 261.151 214.199 260.548 214.371 259.93C214.544 259.312 214.902 258.77 215.446 258.304C215.99 257.838 216.707 257.465 217.596 257.185C219.047 256.728 220.24 256.703 221.174 257.108C222.108 257.513 222.761 258.242 223.132 259.292L220.829 260.13C220.542 259.567 220.193 259.207 219.783 259.05C219.372 258.894 218.838 258.919 218.18 259.126C217.502 259.339 217.015 259.646 216.718 260.045C216.527 260.302 216.479 260.58 216.574 260.88C216.66 261.153 216.849 261.351 217.142 261.473C217.514 261.627 218.31 261.66 219.531 261.571C220.752 261.481 221.679 261.494 222.314 261.609C222.948 261.725 223.498 261.983 223.962 262.383C224.426 262.783 224.773 263.348 225.003 264.08C225.212 264.742 225.223 265.421 225.037 266.115C224.851 266.81 224.466 267.404 223.881 267.897C223.296 268.39 222.502 268.795 221.497 269.111C220.035 269.571 218.806 269.587 217.809 269.158C216.813 268.729 216.035 267.891 215.475 266.645ZM230.513 265.617L226.547 256.357L223.24 257.773L222.432 255.887L231.29 252.094L232.097 253.98L228.798 255.393L232.764 264.653L230.513 265.617ZM237.379 262.477L231.816 251.703L233.991 250.58L239.555 261.354L237.379 262.477ZM245.86 252.436L248.271 251.814C248.665 253.129 248.674 254.283 248.298 255.277C247.922 256.27 247.182 257.113 246.079 257.803C244.714 258.658 243.301 258.894 241.838 258.512C240.376 258.13 239.138 257.131 238.126 255.514C237.055 253.803 236.664 252.198 236.955 250.699C237.245 249.199 238.11 247.999 239.55 247.098C240.807 246.31 242.061 246.042 243.311 246.294C244.053 246.44 244.799 246.852 245.548 247.528L243.801 249.305C243.346 248.848 242.829 248.586 242.25 248.519C241.672 248.452 241.107 248.592 240.555 248.937C239.794 249.414 239.347 250.074 239.215 250.918C239.083 251.762 239.4 252.796 240.167 254.021C240.981 255.32 241.794 256.099 242.607 256.357C243.419 256.616 244.2 256.511 244.947 256.043C245.499 255.698 245.863 255.225 246.041 254.626C246.219 254.027 246.158 253.297 245.86 252.436ZM251.823 253.663L244.557 243.956L246.517 242.489L253.783 252.196L251.823 253.663ZM263.869 243.595L261.875 245.359L259.257 243.998L255.627 247.21L256.702 249.936L254.757 251.657L250.26 239.446L252.199 237.73L263.869 243.595ZM257.314 242.989L253.082 240.726L254.837 245.181L257.314 242.989Z" fill="black"/>
</svg>
