<svg width="300" height="300" viewBox="0 0 300 300" fill="none" xmlns="http://www.w3.org/2000/svg">
<path d="M264.273 3C271.866 25.9251 281.555 107.102 272.057 154.103C262.56 201.104 227.652 269.266 150.5 296.665C73.3475 269.266 38.4402 201.104 28.9426 154.103C19.445 107.102 29.1342 25.9251 36.7274 3H264.273Z" fill="#21409A"/>
<path d="M116.923 189.733C116.923 189.733 120.334 188.238 124.644 186.706C128.955 185.175 132.122 182.042 132.452 177.793L131.023 176.328C131.023 176.328 131.529 175.217 131.395 174.161C130.038 172.852 120.487 170.059 112.017 172.613C110.167 173.171 109.171 174.224 107.52 175.364C107.52 175.364 104.635 181.256 107.337 186.513C110.04 191.77 116.923 189.733 116.923 189.733Z" fill="#CB9947"/>
<path d="M119.817 185.176C119.817 185.176 119.591 185.495 119.869 185.644C119.961 185.693 120.104 185.723 120.339 185.717C121.278 185.695 126.056 183.593 128.699 180.762C130.417 178.922 131.639 177.91 132.453 177.794C132.444 177.491 132.422 177.212 132.368 176.901L131.024 176.328C129.664 178.394 126.026 182.75 119.817 185.176ZM108.726 176.995C109.04 176.905 114.509 175.56 117.199 173.632C119.889 171.705 127.555 172.601 127.555 172.601C127.555 172.601 120.516 169.732 111.282 172.826L108.726 176.995Z" fill="#973E2B"/>
<path d="M102.532 153.446C102.532 153.446 92.6413 159.596 85.3504 161.878C85.3504 161.878 93.7191 170.627 98.157 173.353C102.595 176.08 103.736 172.783 105.575 172.783C107.413 172.783 107.667 175.636 107.667 175.636C107.667 175.636 105.004 183.878 110.9 189.647C110.9 189.647 111.154 193.514 104.497 192.5C97.84 191.486 71.2758 169.74 71.2758 169.74C71.2758 169.74 67.1549 167.204 70.5784 160.927C74.002 154.651 92.1341 138.484 92.1341 138.484C92.1341 138.484 108.554 142.795 102.532 153.446Z" fill="#CCCCCC"/>
<path d="M89.5975 139.752C89.5975 139.752 78.3125 149.008 71.719 156.806C71.719 156.806 67.8516 158.835 67.4078 163.717C66.964 168.599 70.3876 171.705 75.1425 174.178C79.8974 176.65 87.3151 185.336 93.7185 188.125C100.122 190.915 104.306 194.022 106.588 194.148C108.871 194.275 109.695 191.993 109.695 191.993C107.829 193.173 99.0785 190.162 93.9086 186.857C88.7388 183.553 86.6112 181.105 82.0648 177.365C77.5184 173.624 71.6484 169.908 70.5778 166.633C69.5072 163.359 72.353 162.195 72.353 162.195C72.353 162.195 71.2415 160.604 74.7621 156.743C78.6929 152.432 90.2949 141.908 90.4217 141.591C90.5485 141.274 89.5975 139.752 89.5975 139.752Z" fill="white"/>
<path d="M90.2319 155.792C90.2319 155.792 84.0188 158.011 83.3214 159.913C82.6241 161.815 98.2836 173.48 98.2836 173.48C98.2836 173.48 86.1374 163.785 85.6672 161.434C85.197 159.084 87.8228 157.948 90.2319 155.792Z" fill="#717171"/>
<path d="M82.8976 208.824C82.8976 208.824 79.9837 211.559 76.1731 214.652C72.3626 217.745 70.2825 222.049 71.4705 226.464L73.4413 227.434C73.4413 227.434 73.328 228.739 73.842 229.759C75.6835 230.597 86.3442 229.999 93.9945 224.38C95.6656 223.153 96.2965 221.73 97.557 219.987C97.557 219.987 98.364 212.993 93.7465 208.645C89.129 204.296 82.8976 208.824 82.8976 208.824Z" fill="#CB9947"/>
<path d="M73.2584 226.531C74.0653 222.317 80.1174 214.741 80.1174 214.741C80.1174 214.741 77.1137 215.638 74.424 219.493C71.7342 223.349 72.3169 226.352 72.3169 226.352L73.2584 226.531Z" fill="#FDE6C0"/>
<path d="M93.4979 207.598L92.0387 209.543C92.0387 209.543 95.8429 211.247 96.6987 215.945C97.6117 220.957 94.852 223.664 94.852 223.664C95.7355 223.083 97.2249 221.649 98.4561 219.946C98.4561 219.946 99.8282 212.744 95.2107 208.395C94.7497 207.961 94.005 207.868 93.4979 207.598ZM81.6045 214.47C81.6045 214.47 81.719 214.066 81.3849 214.015C81.2735 213.998 81.1181 214.02 80.8827 214.109C79.9413 214.468 76.2653 218.724 74.6066 222.535C73.5284 225.012 72.2524 226.055 71.4707 226.465C71.5879 226.768 71.7105 227.041 71.8764 227.336L73.4415 227.435C74.0764 224.858 76.1949 219.149 81.6045 214.47Z" fill="#973E2B"/>
<path d="M84.2853 209.919C84.2853 209.919 89.5949 211.615 94.4767 209.586C94.4767 209.586 95.713 210.157 96.8224 209.713C96.8224 209.713 97.3519 211.462 99.9195 211.43C99.9195 211.43 102.338 210.664 101.894 204.894C101.451 199.125 101.672 195.48 102.782 191.834C103.891 188.189 107.156 182.736 107.156 182.736C107.156 182.736 108.932 176.84 112.26 173.512C115.589 170.183 126.114 158.749 126.697 156.597C127.28 154.445 125.845 152.249 125.845 152.249L120.787 142.098L107.537 143.366C107.537 143.366 102.402 166.887 98.0904 177.474C98.0904 177.474 90.9263 192.246 86.9322 197.001C82.938 201.756 81.7176 208.714 84.2853 209.919Z" fill="#CCCCCC"/>
<path d="M98.0525 174.216C96.08 182.33 83.8863 200.307 82.8103 203.086C81.7344 205.866 81.5103 209.273 84.5139 209.99C84.5139 209.99 82.5414 206.448 85.2312 202.055C87.921 197.662 98.2767 178.475 101.729 176.233C101.729 176.233 100.16 172.198 103.477 165.115C106.794 158.032 107.108 153.146 106.794 150.456L105.674 149.425L104.396 152.585C104.396 152.585 100.025 166.102 98.0525 174.216ZM96.3805 209.586C96.3805 209.586 96.4439 211.837 99.7724 211.425C99.7724 211.425 98.2191 211.013 97.7119 210.22C97.2047 209.428 96.3805 209.586 96.3805 209.586Z" fill="white"/>
<path d="M123.293 153.818C122.362 156.016 118.527 160.428 113.071 168.657C113.071 168.657 119.751 161.08 122.351 158.749C124.951 156.418 125.086 154.535 125.086 154.535L123.293 153.818ZM94.7331 206.448C94.7331 206.448 94.0674 205.402 93.1798 206.226C92.2922 207.05 93.2432 208.572 94.7648 207.779C94.7648 207.779 96.5082 208.92 98.3151 208.445C98.3151 208.445 96.6984 203.183 98.8857 198.174C98.8857 198.174 96.0644 199.22 95.684 206.384C95.3037 206.701 94.7331 206.448 94.7331 206.448ZM100.407 211.139C100.407 211.139 101.897 206.955 100.914 202.644C99.9318 198.333 103.657 185.737 106.975 181.837C106.975 181.837 108.364 176.367 112.22 173.588C112.22 173.588 108.813 177.623 107.513 183.137C107.513 183.137 102.178 189.144 101.954 201.293C101.954 201.293 103.882 209.42 100.407 211.139Z" fill="#717171"/>
<path d="M182.827 205.258C182.827 205.258 179.913 207.993 176.103 211.086C172.292 214.18 170.212 218.483 171.4 222.899L173.371 223.869C173.371 223.869 173.258 225.174 173.772 226.194C175.613 227.031 186.274 226.433 193.924 220.814C195.595 219.587 196.226 218.165 197.487 216.421C197.487 216.421 198.294 209.428 193.676 205.079C189.059 200.731 182.827 205.258 182.827 205.258Z" fill="#CB9947"/>
<path d="M173.188 222.966C173.995 218.752 180.047 211.176 180.047 211.176C180.047 211.176 177.043 212.072 174.354 215.928C171.664 219.783 172.247 222.787 172.247 222.787L173.188 222.966Z" fill="#FDE6C0"/>
<path d="M193.428 204.032L191.968 205.978C191.968 205.978 195.773 207.681 196.628 212.38C197.541 217.392 194.782 220.099 194.782 220.099C195.665 219.517 197.155 218.084 198.386 216.381C198.386 216.381 199.758 209.178 195.14 204.83C194.679 204.396 193.935 204.303 193.428 204.032ZM181.534 210.905C181.534 210.905 181.649 210.5 181.315 210.45C181.203 210.433 181.048 210.454 180.812 210.544C179.871 210.902 176.195 215.159 174.536 218.97C173.458 221.446 172.182 222.49 171.4 222.899C171.518 223.202 171.64 223.476 171.806 223.771L173.371 223.869C174.006 221.292 176.125 215.583 181.534 210.905Z" fill="#973E2B"/>
<path d="M182.605 208.856C182.605 208.856 191.291 210.378 196.996 208.73C196.996 208.73 198.581 211.836 201.498 210.949C204.414 210.061 202.829 205.116 204.414 197.571C205.999 190.027 214.051 181.785 217.348 180.137C220.644 178.488 221.025 173.67 218.933 169.993C216.84 166.316 215.636 149.452 215.636 149.452L199.406 149.325C199.406 149.325 197.694 151.607 198.138 153.572C198.581 155.538 203.78 161.751 203.78 165.682C203.78 169.612 192.876 189.583 190.023 194.021C187.17 198.459 177.026 205.94 182.605 208.856Z" fill="#CCCCCC"/>
<path d="M197.376 154.587C197.566 154.904 203.336 162.004 202.765 166.316C202.194 170.627 192.051 189.773 188.564 194.592C185.077 199.41 180.72 203.175 180.047 205.327C179.528 206.989 179.913 208.286 182.647 208.869C182.647 208.869 180.989 206.582 182.199 205.013C183.41 203.444 185.696 203.175 190.224 196.271C194.751 189.368 204.614 170.673 204.48 166.549C204.345 162.425 198.965 154.535 198.965 154.535L197.376 154.587Z" fill="white"/>
<path d="M196.992 206.179L198.651 208.689C198.651 208.689 200.623 207.21 200.444 204.161C200.265 201.113 201.386 199.185 201.386 199.185C201.386 199.185 199.368 200.351 199.279 202.637C199.189 204.924 198.875 206.224 196.992 206.179ZM215.372 169.911C215.372 170.18 217.345 172.78 215.641 175.56C213.938 178.339 210.8 179.236 209.948 183.584C209.948 183.584 213.131 180.267 216.269 177.712C219.407 175.156 218.78 170.405 216.045 169.553L215.372 169.911Z" fill="#717171"/>
<path d="M208.965 153.19C208.965 153.19 210.176 156.059 209.324 158.794C208.472 161.528 207.71 165.563 209.503 167.535C211.297 169.508 213.628 170.449 217.169 169.732C217.169 169.732 219.949 171.211 223.49 170.36C227.032 169.508 228.87 165.922 226.942 161.214C225.014 156.507 215.197 148.617 215.197 148.617L208.965 153.19Z" fill="#CCCCCC"/>
<path d="M215.829 169.232C215.829 169.232 213.895 169.771 211.486 169.042C211.486 169.042 212.747 170.882 217.407 170.153L215.829 169.232ZM226.385 161.307C226.385 161.307 227.978 165.116 226.48 167.996C224.983 170.875 216.765 169.947 216.765 169.947C216.765 169.947 223.152 172.751 227.273 169.359C231.394 165.967 226.385 161.307 226.385 161.307Z" fill="#717171"/>
<path d="M208.159 153.235C208.159 153.414 209.728 154.535 208.742 158.48C207.755 162.425 206.41 167.087 211.924 169.463C211.924 169.463 208.966 166.953 209.235 162.156C209.453 158.258 211.745 153.818 208.159 153.235ZM213.09 160.99C213.09 160.99 211.713 167.867 217.406 170.153L218.809 170.074C218.809 170.074 214.825 169.202 214.39 164.98C213.972 160.916 213.09 160.99 213.09 160.99Z" fill="white"/>
<path d="M216.064 208.824C216.064 208.824 213.15 211.559 209.339 214.652C205.529 217.746 203.449 222.049 204.637 226.465L206.607 227.435C206.607 227.435 206.494 228.74 207.008 229.76C208.85 230.597 219.51 229.999 227.16 224.38C228.832 223.153 229.462 221.731 230.723 219.987C230.723 219.987 231.53 212.994 226.912 208.645C222.295 204.297 216.064 208.824 216.064 208.824Z" fill="#CB9947"/>
<path d="M206.424 226.532C207.231 222.318 213.283 214.742 213.283 214.742C213.283 214.742 210.28 215.638 207.59 219.494C204.9 223.349 205.483 226.353 205.483 226.353L206.424 226.532Z" fill="#FDE6C0"/>
<path d="M226.664 207.598L225.205 209.544C225.205 209.544 229.009 211.247 229.865 215.946C230.778 220.958 228.018 223.664 228.018 223.664C228.901 223.083 230.391 221.65 231.622 219.947C231.622 219.947 232.994 212.744 228.377 208.396C227.916 207.962 227.171 207.869 226.664 207.598ZM214.771 214.471C214.771 214.471 214.885 214.066 214.551 214.016C214.44 213.999 214.284 214.02 214.049 214.11C213.107 214.468 209.431 218.725 207.773 222.536C206.694 225.012 205.418 226.056 204.637 226.465C204.754 226.768 204.877 227.042 205.042 227.337L206.608 227.435C207.242 224.858 209.361 219.149 214.771 214.471Z" fill="#973E2B"/>
<path d="M242.728 154.446C242.728 154.446 245.441 159.406 247.596 162.385C249.752 165.365 250.078 168.096 247.279 171.198C244.48 174.299 237.452 187.925 234.98 200.985C234.98 200.985 235.722 207.741 234.834 209.738C233.947 211.736 232.538 210.004 231.937 209.227C231.937 209.227 230.542 210.495 229.337 209.227C229.337 209.227 218.338 210.844 215.136 207.959C215.136 207.959 213.768 204.386 217.444 202.324C221.12 200.262 230.624 177.936 230.624 172.019C230.624 166.101 227.844 160.184 222.913 155.97C217.982 151.756 225.154 144.314 230.893 143.597C236.631 142.879 242.638 151.038 242.728 154.446Z" fill="#CCCCCC"/>
<path d="M221.432 157.046C221.432 157.046 229.188 162.47 229.905 168.343C230.622 174.215 224.211 189.726 221.342 194.434C218.473 199.141 217.666 200.665 215.066 202.548C212.466 204.431 213.766 207.927 216.187 208.6C216.187 208.6 213.901 205.686 216.546 203.669C219.191 201.651 226.442 189.619 228.336 183.406C230.268 177.068 233.267 170.494 230.443 164.711C227.216 158.105 223.942 156.463 221.432 157.046Z" fill="white"/>
<path d="M234.66 151.935C234.66 151.935 243.671 161.932 244.209 164.891C244.747 167.85 242.685 172.646 240.578 178.026C240.578 178.026 244.567 172.781 245.329 166.684C245.329 166.684 246.271 166.684 246.181 165.07C246.092 163.456 241.609 158.077 239.636 154.625C237.664 151.173 235.422 150.187 235.422 150.187L234.66 151.935ZM228.29 206.122C228.29 206.122 228.353 205.171 229.875 204.759C231.396 204.346 231.999 202.793 230.984 200.542C230.984 200.542 232.732 193.134 235.063 191.296C235.063 191.296 232.598 196.72 232.463 200.575C233.136 205.327 232.486 206.627 232.486 206.627C232.486 206.627 230.76 207.031 229.594 206C229.594 206 228.756 205.907 228.29 206.122ZM216.723 208.825C216.723 208.825 224.679 210.156 229.434 208.286C229.434 208.286 230.607 209.047 231.938 208.413L231.97 209.459C231.97 209.459 230.353 210.6 229.244 209.269C229.244 209.269 220.875 210.854 216.723 208.825Z" fill="#717171"/>
<path d="M71.1972 105.536C71.1972 105.536 74.2008 110.781 73.3042 114.547C72.4076 118.312 69.9868 119.859 67.7005 119.523C67.5884 121.114 70.4216 123.647 75.1646 120.89C79.9077 118.133 78.101 107.777 78.101 107.777C78.101 107.777 80.477 96.1663 75.0974 95.2697C69.7178 94.3731 68.1488 102.846 71.1972 105.536Z" fill="#E32238"/>
<path d="M47.1676 50.1714C47.1676 50.1714 38.9189 64.6066 44.6571 74.8278C44.6571 74.8278 46.271 88.7251 52.0989 97.3324C52.0989 97.3324 54.344 102.664 55.8022 106.277C57.2603 109.891 59.9706 112.078 64.3452 112.522C64.3452 112.522 67.531 114.329 70.3205 112.364C73.1101 110.398 71.1447 103.615 71.0813 100.825C71.0179 98.0356 72.1591 95.6264 74.1245 95.6898C76.0899 95.7532 78.3088 99.7473 78.1186 103.488C77.9284 107.228 77.6114 110.842 80.2108 110.715C82.8102 110.589 82.937 108.179 82.0494 106.721C82.0494 106.721 81.669 96.2604 82.5565 92.7735C82.5565 92.7735 83.9513 91.1885 83.9513 91.4421C83.9513 91.6957 89.8474 110.652 78.4356 118.45C78.4356 118.45 81.2832 119.478 83.7936 117.551C83.7936 117.551 80.1624 130.215 85.004 140.616L86.4834 134.183C86.4834 134.183 90.6526 139.831 91.2354 143.462C91.8182 147.094 98.6324 150.927 98.6324 150.927C98.6324 150.927 97.0633 146.69 98.6772 144.314C98.6772 144.314 102.757 146.914 102.084 151.263C101.412 155.611 97.8478 157.808 97.8478 157.808C97.8478 157.808 104.527 155.925 106.141 150.277C106.141 150.277 114.296 159.33 118.449 158.981C118.449 158.981 113.273 151.291 116.76 145.141C116.76 145.141 119.962 146.853 120.374 150.276C120.786 153.7 127.602 154.778 127.602 154.778C127.602 154.778 132.261 167.347 141.93 166.301C141.93 166.301 137.841 161.213 137.619 158.106C137.619 158.106 142.885 165.2 147.894 166.563C147.894 166.563 143.42 158.423 147.255 151.798C147.255 151.798 150.774 154.873 151.693 158.962C152.613 163.051 156.696 166.174 160.849 166.142C159.687 164.545 159.648 163.997 159.048 162.925C159.048 162.925 158.033 160.706 158.318 157.726C158.604 154.746 157.684 151.291 157.684 151.291C157.684 151.291 161.52 153.288 162.281 157.028C163.042 160.769 165.166 163.463 167.416 164.383C169.667 165.302 171.743 165.682 172.441 165.302C171.31 164.09 171.078 163.569 170.396 162.703C170.396 162.703 169.318 158.772 169.001 155.475C168.684 152.178 167.099 150.625 167.099 150.625L167.702 149.801C167.702 149.801 171.696 151.101 172.647 154.017C173.598 156.933 175.69 159.818 178.131 161.276C180.572 162.734 182.03 163.701 185.073 163.226C185.073 163.226 183.266 162.291 182.664 160.864C182.061 159.438 182.188 157.948 181.998 155.507C181.808 153.066 180.667 150.562 180.667 150.562C180.667 150.562 185.105 151.798 186.277 154.588C187.45 157.377 190.113 158.994 191.952 159.786C193.79 160.579 195.407 160.896 197.499 160.61C197.499 160.61 194.836 159.659 194.139 157.536C193.442 155.412 194.044 152.147 194.044 152.147C194.044 152.147 201.652 154.397 203.522 158.582C203.522 158.582 203.681 155.031 204.029 154.112C204.378 153.193 206.533 152.273 206.533 152.273C206.533 152.273 211.372 154.836 213.337 154.963C213.337 154.963 212.747 152.527 213.983 151.227C213.983 151.227 219.277 158.043 227.233 156.965C227.233 156.965 225.173 153.763 226.155 151.766C226.155 151.766 229.484 155.824 233.763 155.602C233.7 155.412 232.337 151.735 235.76 150.688C235.76 150.688 239.913 156.173 245.682 156.521C245.682 156.521 239.945 143.017 241.657 138.991C241.657 138.991 243.933 141.019 246.437 141.114C246.437 141.114 244.002 138.04 244.002 136.329C244.002 136.329 247.204 138.452 249.898 138.199C249.898 138.199 255.39 142.915 258.877 141.932C258.877 141.932 250.862 130.884 250.785 120.823C250.708 110.762 249.799 83.4352 221.287 75.7244C221.287 75.7244 216.266 71.9587 209.721 74.3795C209.452 74.3347 205.866 71.3759 201.786 73.6622C201.786 73.6622 195.958 70.031 191.116 74.6485C191.116 74.6485 185.513 69.6724 179.506 75.0071C179.506 75.0071 173.857 70.3 170.853 75.9037C170.853 75.9037 166.281 72.6311 162.649 76.8452C162.649 76.8452 157.987 74.2898 155.387 77.7866C155.387 77.7866 151.442 74.2002 147.9 76.9348C147.9 76.9348 144.359 72.9001 139.921 75.052C139.921 75.052 137.096 71.0621 132.927 72.9001C132.927 72.9001 130.058 68.0585 124.051 68.2826C124.051 68.2826 120.42 63.3962 116.026 62.7686C111.633 62.1409 107.509 56.1786 107.509 56.1786C101.955 39.9128 68.4828 15.6672 47.1676 50.1714Z" fill="#CCCCCC"/>
<path d="M45.6889 74.1556C41.9231 70.7037 43.806 58.4651 43.806 58.4651C43.806 58.4651 40.0403 69.7174 43.7163 74.9177C43.7163 74.9177 43.268 79.2662 45.1509 80.7904C45.1509 80.7904 47.3924 93.8359 52.0995 97.3327C52.0995 97.3327 44.7923 80.5214 45.6889 74.1556ZM50.9564 72.2727C50.934 72.3624 52.0323 76.6885 52.0323 76.6885C52.0323 76.6885 52.5703 76.1505 52.7047 74.4918C52.7047 74.4918 54.7669 74.4246 55.3945 75.3212C56.0222 76.2178 55.798 76.8678 55.798 76.8678C55.798 76.8678 56.8515 75.2763 55.3497 73.797C53.8479 72.3176 52.3237 72.7883 52.3237 72.7883L51.6512 71.3313L50.9564 72.2727ZM82.8977 92.3565L84.8702 89.8909C84.8702 89.8909 87.1597 101.394 85.991 107.868C84.8254 114.323 80.1182 118.661 77.8319 118.571C77.8319 118.571 83.6292 113.996 84.6012 105.85C85.5495 97.9036 83.5291 94.0237 82.8977 92.3565ZM85.2737 116.341L81.8666 118.672C81.0383 119.959 79.4366 133.995 85.0047 140.616C85.0047 140.616 80.8803 126.203 85.2737 116.341ZM86.9138 134.381C86.7887 136.75 88.7909 137.771 89.667 141.176C90.5431 144.582 93.7914 150.344 98.633 150.927C93.7017 147.923 91.4602 143.373 90.7878 139.293C90.1153 135.214 86.9138 134.381 86.9138 134.381ZM98.8571 144.483C98.8571 144.483 101.502 147.856 101.188 151.711C100.91 155.132 97.8485 157.808 97.8485 157.808C97.8485 157.808 101.502 157.315 102.444 152.429C103.362 147.661 101.054 144.259 98.8571 144.483ZM107.061 146.511L106.142 150.277C106.142 150.277 109.708 159.654 118.449 158.981C118.449 158.981 108.361 156.015 107.061 146.511ZM116.322 143.908L116.976 145.485C116.976 145.485 119.031 146.735 119.569 149.963C120.107 153.191 123.693 155.208 127.19 155.343C127.19 155.343 129.521 164.264 137.814 165.878C137.814 165.878 130.911 162.067 129.297 156.553C127.683 151.039 126.159 149.56 123.872 148.618C123.872 148.618 126.652 152.204 126.562 153.953C126.562 153.953 121.855 153.325 120.869 148.887C119.882 144.449 117.757 143.908 116.322 143.908ZM135.699 149.55L136.828 155.791C136.828 155.791 138.615 164.008 147.894 166.563C147.894 166.563 140.594 161.798 139.428 157.181C138.263 152.563 137.761 150.132 135.699 149.55ZM147.242 150.783L147.497 152.752C147.497 152.752 149.739 154.849 150.77 159.332C151.801 163.815 155.335 166.187 160.849 166.142C160.849 166.142 153.908 163.905 152.967 160.05C152.025 156.194 150.111 151.546 147.242 150.783ZM157.157 150.63L158.324 152.243C158.324 152.243 161.44 154.67 161.978 158.481C162.516 162.291 166.758 165.631 171.779 165.452C171.779 165.452 165.161 163.771 164.398 160.184C163.636 156.598 161.461 150.317 157.157 150.63ZM166.986 149.152L167.671 150.56C167.671 150.56 171.84 152.473 172.692 156.284C173.544 160.095 178.52 163.143 182.734 163.277C182.734 163.277 175.875 160.274 174.709 156.598C173.544 152.922 170.662 148.39 166.986 149.152ZM180.667 149.452L181.412 151.164C181.412 151.164 184.852 152.464 185.803 155.634C186.754 158.804 191.572 160.357 195.249 160.674C195.249 160.674 188.56 158.011 187.261 155.158C185.961 152.305 183.33 149.326 180.667 149.452ZM193.907 150.745L194.184 153.106C194.184 153.106 202.656 156.74 203.822 159.43L203.529 157.423C203.529 157.423 199.197 151.462 193.907 150.745ZM184.124 130.193C184.124 130.193 188.892 127.953 192.372 132.434C195.959 137.052 202.918 151.864 212.736 153.523L213.338 154.963C212.08 155.34 204.028 154.132 197.976 143.866C191.924 133.6 189.414 131.538 184.124 130.193ZM202.818 142.79C202.818 142.79 209.273 141.356 212.456 147.318C215.639 153.28 219.943 156.273 226.757 156.362L227.777 157.45C226.093 157.968 218.194 157.988 214.473 152.653C210.753 147.318 208.152 143.911 202.818 142.79ZM225.546 150.624L226.499 152.731C226.499 152.731 229.75 156.436 233.92 156.346L233.225 155.138C233.225 155.138 228.236 153.18 225.546 150.624ZM235.521 149.246L235.72 151.437C235.72 151.437 237.718 156.25 245.653 157.057L244.809 155.359C244.809 155.359 239.063 154.401 235.521 149.246ZM241.349 137.478L241.865 139.876C241.865 139.876 243.524 141.294 246.438 141.114C246.438 141.114 241.528 138.061 241.349 137.478ZM243.882 134.766L244.442 137.097C244.442 137.097 245.765 138.845 249.665 138.666C249.665 138.666 253.207 142.88 258.407 142.028C258.407 142.028 251.055 140.728 247.827 133.286C247.827 133.286 247.155 135.976 248.544 137.5C248.544 137.5 245.496 136.604 243.882 134.766ZM242.313 113.875C242.313 113.875 243.949 115.242 245.787 115.153C245.563 115.646 244.823 116.61 243.523 115.937C242.223 115.265 242.313 113.875 242.313 113.875ZM210.573 74.6487C218.374 71.7348 223.798 79.2662 223.798 79.2662C219.315 69.0002 210.17 73.7073 210.17 73.7073C206.449 70.4795 202.056 72.9004 202.056 72.9004C195.062 68.507 190.983 74.0211 190.983 74.0211C184.258 68.5967 179.685 74.2453 179.685 74.2453C174.082 69.8071 170.988 75.097 170.988 75.097C165.34 71.6003 162.56 76.3074 162.56 76.3074C158.391 73.6176 155.612 76.9351 155.612 76.9351C151.667 73.8418 147.811 76.173 147.811 76.173C144.404 72.721 140.19 74.2453 140.19 74.2453C137.187 70.3899 132.838 72.2727 132.838 72.2727C130.328 68.1932 123.917 67.2966 123.917 67.2966C121.855 62.9929 117.731 63.0378 114.01 61.0204C110.289 59.0031 108.646 57.0166 108.646 57.0166L108.361 57.8375C108.361 57.8375 110.334 61.6929 115.534 63.3516C120.734 65.0103 124.052 67.6553 125.262 72.8555C125.262 72.8555 125.934 70.6589 124.545 68.5519C124.545 68.5519 131.135 69.9864 133.376 74.9177C133.376 74.9177 133.824 73.6625 133.376 73.0349C133.376 73.0349 139.159 72.5417 141.087 78.1903C141.087 78.1903 141.849 76.3074 140.683 74.9177C140.683 74.9177 146.601 73.9763 150.008 80.2973C150.008 80.2973 149.739 77.8765 148.708 76.6661C148.708 76.6661 154.088 74.9625 157.674 80.9697C157.674 80.9697 157.622 78.8576 156.449 77.6847C156.449 77.6847 160.38 74.4513 163.993 79.2063C163.993 79.2063 164.279 77.8115 163.423 76.9239C163.423 76.9239 167.512 72.3275 173.059 78.3821C173.059 78.3821 173.091 76.385 171.807 75.6401C171.807 75.6401 175.659 71.1229 181.396 77.4311C181.396 77.4311 181.46 75.8144 180.35 74.8C180.35 74.8 185.898 70.0451 192.111 76.068C192.111 76.068 192.206 75.3389 191.794 74.7049C191.794 74.7049 197.658 68.999 204.062 76.3216C204.062 76.3216 204.22 74.5464 203.015 73.5638C203.015 73.5638 208.499 71.5667 211.384 77.1775C211.384 77.1775 211.728 75.7971 210.573 74.6487Z" fill="white"/>
<path d="M52.7333 65.0347C52.7333 65.0347 49.4361 66.0478 49.7051 70.4636C49.974 74.8793 51.5677 74.2674 51.4781 77.6969C51.3884 81.1264 50.1915 82.7021 50.1915 82.7021C50.1915 82.7021 51.4019 82.8344 51.9174 81.2429C51.9174 81.2429 55.1967 89.0034 55.1967 91.1907C55.1967 91.1907 55.3661 83.8365 54.1298 80.2544C54.1298 80.2544 58.6211 79.8063 58.2407 76.0023C57.8603 72.1984 55.3884 71.1571 53.4865 70.8401C53.4865 70.8401 51.9718 68.074 52.7333 65.0347ZM52.5137 72.1738C54.5766 72.0729 56.807 73.2964 57.0011 76.3475C57.223 79.8344 52.5204 79.0194 52.5204 79.0194C52.6789 76.8955 51.6507 72.2994 51.6507 72.2994C51.932 72.232 52.2189 72.1883 52.5137 72.1738ZM61.5319 111.926C61.5319 111.926 62.8197 112.427 64.3452 112.522C64.3452 112.522 65.3438 110.304 63.8856 107.419C63.8856 107.419 64.2581 111.419 61.5319 111.926ZM81.3204 99.0819C80.7498 95.5949 82.2713 91.0302 82.2713 91.0302C82.2713 91.0302 88.4528 83.6759 86.424 76.6703L87.2799 75.9412C88.3872 79.0261 89.6636 86.2926 82.937 92.742C82.937 92.742 81.9226 95.8168 82.4615 99.6842C83.0004 103.552 82.2471 107.038 82.2471 107.038C82.2471 107.038 82.3592 108.204 81.1712 108.719C81.1712 108.719 81.891 102.569 81.3204 99.0819ZM77.8313 118.571C77.8313 118.571 83.7489 117.708 85.8559 113.651C85.8559 113.651 86.349 115.085 85.968 116.116C85.968 116.116 82.6057 120.14 77.8313 118.571ZM87.1784 134.474C87.1784 134.474 87.0215 132.928 86.3939 132.39C86.3939 132.39 85.3836 133.446 85.3164 136.741C85.2491 140.036 85.0041 140.616 85.0041 140.616C86.7386 138.118 86.2258 135.583 87.1784 134.474ZM98.4979 142.97C98.4979 142.97 96.9289 145.144 97.3324 147.632C97.7358 150.12 98.6324 150.927 98.6324 150.927C98.6324 150.927 96.9961 144.785 99.798 144.001C99.798 144.001 99.5739 143.082 98.4979 142.97ZM114.954 151.006C114.732 146.536 116.322 143.908 116.322 143.908L116.975 145.485C116.975 145.485 114.798 153.493 118.449 158.981C118.449 158.981 115.175 155.475 114.954 151.006ZM136.102 149.662C136.102 149.662 135.21 148.755 134.322 148.914C134.322 148.914 135.273 163.289 141.93 166.301C140.649 165.02 136.07 156.318 136.102 149.662ZM147.242 150.783C147.242 150.783 144.783 152.337 145.068 158.582C145.353 164.827 147.894 166.563 147.894 166.563C147.894 166.563 144.231 160.043 147.496 152.752C147.56 152.435 147.242 150.783 147.242 150.783ZM157.156 150.63C157.156 150.63 158.319 155.38 157.875 159.216C157.431 163.052 160.849 166.142 160.849 166.142C160.849 166.142 158.509 162.735 158.857 158.677C159.206 154.619 158.323 152.243 158.323 152.243C158.323 152.243 157.632 150.757 157.156 150.63ZM166.985 149.152C166.985 149.152 166.243 150.403 167.068 151.798C167.892 153.193 168.97 156.87 168.811 159.406C168.653 161.942 172.441 165.302 172.441 165.302C172.441 165.302 169.984 162.798 169.921 159.026C169.857 155.253 168.843 151.797 167.67 150.56C167.67 150.56 167.841 149.533 166.985 149.152ZM180.667 149.452C180.477 149.579 179.716 150.086 180.096 151.006C180.477 151.925 181.523 153.7 181.174 156.458C180.825 159.216 182.854 162.592 185.073 163.226C185.073 163.226 182.442 161.403 182.442 158.297C182.442 155.19 182.775 153.32 181.412 151.164C181.412 151.164 181.459 149.674 180.667 149.452ZM194.184 153.106C194.184 153.106 193.695 155.285 194.9 157.472C196.104 159.66 197.499 160.611 197.499 160.611C197.499 160.611 194.266 160.801 193.41 156.902C192.554 153.003 193.082 151.981 193.907 150.745C193.907 150.745 194.691 151.838 194.184 153.106ZM204.532 151.515C204.532 151.515 203.18 154.728 203.528 157.423L203.821 159.43C203.821 159.43 203.617 154.247 206.026 152.567L204.532 151.515ZM213.077 150.691C212.253 152.149 212.736 153.523 212.736 153.523L213.337 154.963C213.337 154.963 213.323 153.275 214.052 152.038L213.077 150.691ZM225.546 150.624C225.546 150.624 224.672 154.412 226.756 156.362L227.776 157.45C227.776 157.45 226.207 154.412 226.499 152.731L225.546 150.624ZM235.521 149.246C235.521 149.246 232.527 150.288 233.225 155.138L233.919 156.346C233.919 156.346 233.215 152.483 235.719 151.437L235.521 149.246ZM244.809 155.359C244.809 155.359 238.972 143.799 241.348 137.478L241.864 139.876C241.864 139.876 243.433 151.622 246.437 156.912L245.652 157.057L244.809 155.359ZM246.437 141.114C246.437 141.114 242.312 138.128 241.999 131.179C241.685 124.231 242.088 117.91 239.354 112.665C239.354 112.665 242.357 112.709 242.85 118.672C243.343 124.634 242.537 136.004 246.437 141.114ZM245.787 115.153C244.711 115.063 240.435 109.142 238.732 101.432C237.028 93.7208 234.171 84.0643 225.815 79.5352C225.815 79.5352 231.419 79.6249 235.588 88.6357C239.757 97.6465 241.774 110.199 245.988 113.92C245.988 113.92 246.773 114.928 245.787 115.153Z" fill="#717171"/>
<path d="M74.8278 22.9206C70.9473 23.0293 68.0966 25.5723 68.0966 25.5723C58.7136 25.0651 57.584 32.4761 57.584 32.4761C49.4689 33.3003 50.7273 42.0473 50.7273 42.0473L48.3894 43.2555C48.3894 43.2555 47.3048 45.8616 47.495 48.8413C47.6852 51.8211 51.2921 57.1573 51.2921 57.1573C51.2921 57.1573 54.2128 62.5977 60.2357 63.0098C66.2586 63.4219 69.3362 61.174 69.3362 61.174L70.2148 61.2839C70.2148 61.2839 68.6413 64.9196 69.1793 66.7128C69.7172 68.506 69.9952 68.6427 69.9952 68.6427C69.9952 68.6427 72.1655 73.359 76.5695 74.9189C79.8345 78.4058 83.4733 77.1469 83.4733 77.1469L83.9283 77.649C90.6486 77.6807 92.7621 75.4053 92.7621 75.4053L94.0957 76.0957C100.055 74.0035 99.8385 69.2232 99.8385 69.2232L102.004 69.8038C106.7 66.2622 105.496 62.8125 104.839 60.3469C106.11 58.1055 106.707 60.3047 108.609 56.2472C110.511 52.1897 106.272 48.7785 106.272 48.7785C110.519 40.9171 103.479 37.3559 103.479 37.3559C103.479 37.3559 103.639 34.6336 100.469 30.8931C97.2993 27.1525 93.1543 28.9301 93.1543 28.9301C89.287 20.6248 80.5862 24.7407 80.5862 24.7407C78.5654 23.3143 76.5917 22.8713 74.8278 22.9206ZM83.1124 45.7503C85.0148 45.6927 86.7448 46.017 87.647 46.4877C89.7091 47.5637 93.8895 49.8567 94.1585 54.788C94.4275 59.7193 90.7021 63.077 90.2987 63.4805L88.6825 60.264C88.6825 60.264 88.6893 58.2892 87.8823 56.1374C87.0754 53.9855 82.8143 53.3915 82.8143 53.3915C82.8143 53.3915 80.4316 52.7751 78.5936 52.6855C76.7555 52.5958 75.1461 54.2456 74.922 54.38C74.6978 54.5145 72.537 54.788 72.537 54.788C72.537 54.788 73.5255 51.6432 76.3498 48.3706C77.9385 46.5298 80.6665 45.8243 83.1124 45.7503ZM80.5549 60.6562C81.3268 60.6773 82.1979 60.8692 83.1281 61.2839C83.1281 61.2839 84.8698 62.2365 84.5559 64.6573C84.2421 67.0781 82.1374 67.6475 80.8373 67.513C79.5372 67.3785 76.6659 65.592 76.7107 63.5747C76.7443 62.0616 78.2391 60.5932 80.5549 60.6562Z" fill="#CB9947"/>
<path d="M60.2204 63.3237C63.2743 63.5327 65.5984 63.0623 67.1556 62.5392C68.7129 62.0161 69.5249 61.4252 69.5249 61.4252L69.4397 60.5869C69.4397 60.5869 68.4376 61.4438 66.9516 61.943C65.4657 62.4421 63.2365 62.8992 60.2675 62.6961C57.3866 62.499 54.3753 60.3387 52.3281 58.5617C53.9585 60.8214 57.0784 63.1087 60.2204 63.3237ZM69.7759 58.2086L69.8768 56.9893C69.0318 57.9364 67.7051 58.4551 66.7712 58.9147C67.8093 59.0518 68.9755 58.8105 69.7759 58.2086ZM69.5249 59.4011L69.3075 58.5314C68.1755 59.4361 67.2606 59.8943 65.8533 60.3818C67.1153 60.3286 68.4261 60.0571 69.5249 59.4011ZM69.8858 60.1072L69.5607 59.3966C67.5453 60.5609 65.5258 61.1951 63.2879 61.8645C65.4348 61.8903 68.0742 61.494 69.8858 60.1072Z" fill="#973E2B"/>
<path d="M100.47 30.8931C97.9343 26.5186 93.4356 27.711 93.4356 27.711C89.8158 20.0099 82.0239 22.4633 80.2777 22.9705C73.2208 19.2398 68.9959 22.9055 67.2809 24.5555C59.4026 24.5242 57.2422 28.9514 55.9958 31.5294C48.1978 34.002 49.022 41.3563 48.8952 41.7367C43.4126 46.8709 49.0571 55.6726 51.8713 58.0999C51.8713 58.0999 45.5124 47.75 50.2644 43.8498C50.2644 43.8498 51.6989 49.588 55.5991 50.4846C55.5991 50.4846 46.7676 37.8874 56.2268 33.6734C56.2268 33.6734 56.8992 38.6944 59.4993 40.5324C59.4993 40.5324 54.5232 27.4421 66.8963 26.7696C66.8963 26.7696 65.4169 32.8665 68.4205 35.7804C68.4205 35.7804 64.2513 21.3004 78.5072 24.9764C78.5072 24.9764 75.5485 30.4008 78.2382 34.0321C78.2382 34.0321 77.936 27.3952 81.8304 25.6226C85.7247 23.8501 89.8479 24.9639 92.1804 28.249C90.0298 28.8892 86.9801 30.7595 87.9215 35.5114C87.9215 35.5114 91.3979 25.7654 100.47 30.8931ZM86.8456 46.3155C86.8456 46.3155 93.9736 49.2294 93.3011 54.609C92.6287 59.9886 90.0733 61.5576 90.0733 61.5576C90.0733 61.5576 90.8019 64.5286 89.3755 66.4306C89.3755 66.4306 96.8249 61.6123 95.6203 54.5116C94.4157 47.4109 88.2148 46.2344 86.8456 46.3155ZM87.6478 55.0505C85.2228 52.1183 81.7676 52.7681 81.7676 52.7681C81.7676 52.7681 80.88 51.9439 78.1221 51.9756C75.3643 52.0073 74.0963 54.0044 74.0963 54.0044C74.0963 54.0044 72.1309 53.5606 70.2289 56.0332C68.2454 58.6117 69.4048 61.4221 69.4048 61.4221C69.4048 61.4221 67.2809 62.9754 68.327 66.3038C69.3731 69.6323 73.4306 69.0934 73.4306 69.0934C73.4306 69.0934 69.9436 68.2058 69.6583 65.7649C69.3731 63.324 70.6727 62.7218 70.6727 62.7218C70.6727 62.7218 71.3384 63.7361 73.0502 63.8312C73.0502 63.8312 70.1972 62.3414 70.5776 59.0446C70.958 55.7479 74.0963 55.3041 74.0963 55.3041C74.0963 55.3041 73.8427 57.9668 75.3643 58.7276C75.3643 58.7276 74.3868 55.3068 77.0126 54.0995C79.6385 52.8922 81.2287 54.0995 81.2287 54.0995C81.2287 54.0995 79.8339 55.7162 80.2143 57.4913C80.246 57.4597 81.7359 54.2897 84.1133 54.4482C86.4908 54.6067 87.5369 56.4294 87.5369 56.4294L87.6478 55.0505ZM76.8282 62.38C76.8282 62.38 75.079 68.6496 82.5601 69.03C82.5601 69.03 84.0816 68.0156 84.145 65.6064C84.145 65.6064 78.8172 68.4966 77.1518 62.5906L76.8282 62.38Z" fill="#FDE6C0"/>
<path d="M107.191 49.1226C110.347 44.2014 107.228 38.0938 103.958 37.3938C104.338 31.9098 100.471 30.8931 100.471 30.8931C100.471 30.8931 102.595 33.5898 102.753 36.0307C102.753 36.0307 97.9665 34.8578 95.4939 38.3765C95.4939 38.3765 102.403 35.6036 105.257 40.0565C108.112 44.5095 105.891 48.0131 105.891 48.0131C105.891 48.0131 103.768 45.9527 99.8051 45.9844C99.8051 45.9844 108.166 49.0477 108.396 53.719C108.625 58.3904 106.018 59.1397 104.116 58.9495C104.116 58.9495 102.119 56.889 99.9002 56.3818C99.9002 56.3818 105.701 60.2491 105.479 64.1165C105.479 64.1165 106.24 62.1511 105.606 60.5027C105.606 60.5027 109.156 59.9005 109.41 55.4308C109.664 50.9612 107.191 49.1226 107.191 49.1226ZM96.0011 63.8946C96.0011 63.8946 98.8858 64.592 99.2662 67.6351C99.6466 70.6783 98.9175 72.4535 98.9175 72.4535C98.9175 72.4535 100.407 71.6293 100.312 69.9492C100.312 69.9492 101.612 70.5198 102.5 69.4737L101.041 69.125C101.041 69.125 100.502 62.5632 96.0011 63.8946ZM91.5949 69.3469C91.5949 69.3469 93.2433 71.1538 92.7361 73.2143C92.2289 75.2747 90.8975 76.3842 90.8975 76.3842C90.8975 76.3842 92.0387 76.4159 92.5776 76.0038C92.5776 76.0038 93.4018 76.2891 94.543 76.0355L93.4969 75.2747C93.4969 75.2747 95.494 70.3296 91.5949 69.3469ZM86.1109 73.3094C86.1109 73.3094 85.3818 76.5427 82.2752 77.2401C82.2752 77.2401 84.2089 78.3496 85.5403 77.0499C86.8717 75.7502 86.4913 73.88 86.1109 73.3094ZM69.9441 68.6495C69.9441 68.6495 69.4052 69.4737 71.6876 72.1048C73.97 74.7358 76.6644 74.8943 76.6644 74.8943C76.6644 74.8943 80.4684 74.4822 81.1658 72.612C81.1658 72.612 77.3301 74.0701 74.3821 72.7071C71.434 71.344 70.4196 68.7129 70.4196 68.7129L69.9441 68.6495ZM81.3876 70.4247C81.3876 70.4247 84.2723 68.5861 84.1455 65.1943C84.0187 61.8024 82.0533 60.9148 80.1197 60.788C78.186 60.6612 77.1522 62.5905 77.1522 62.5905L76.8287 62.3799C76.8287 62.3799 78.2494 59.4567 81.1975 60.059C84.1455 60.6613 85.4616 62.6907 85.0648 66.0819C84.7161 69.0616 83.2262 69.9809 81.3876 70.4247ZM87.5374 56.4294C87.5374 56.4294 88.4249 58.0302 88.2982 59.6469C88.2982 59.6469 87.1253 59.0129 84.7795 59.6152C84.7795 59.6152 89.154 59.5834 89.0272 62.8802C88.9004 66.177 88.0129 67.9521 84.9697 69.5054C84.9697 69.5054 88.7736 69.2835 90.0099 65.4479C91.2462 61.6122 89.0272 59.425 89.0272 59.425C89.0272 59.425 89.3044 56.7094 87.6483 55.0504L87.5374 56.4294ZM88.8687 46.5866C88.8687 46.5866 83.8744 44.1492 79.3906 46.1746C74.9068 48.2 72.5941 51.731 72.2285 54.3305L73.6213 53.9409C73.6213 53.9409 76.8229 43.6386 88.0762 46.8402" fill="#973E2B"/>
</svg>
