<svg width="300" height="300" viewBox="0 0 300 300" fill="none" xmlns="http://www.w3.org/2000/svg">
<path d="M12.0391 149.94C12.0458 111.768 26.582 75.1609 52.4515 48.1685C78.3209 21.1761 113.406 6.00816 149.991 6C186.576 5.99185 221.668 21.1441 247.548 48.125C273.429 75.1058 287.98 111.706 288.002 149.879C288.024 188.051 273.516 224.671 247.667 251.685C221.818 278.698 186.745 293.895 150.16 293.934C113.574 293.973 78.4721 278.85 52.571 251.89C26.6699 224.931 12.0906 188.342 12.0391 150.17L150.021 149.967L12.0391 149.94Z" fill="white"/>
<path fill-rule="evenodd" clip-rule="evenodd" d="M122.061 268.243C112.33 268.792 102.634 275.359 98.0898 278.875C106.249 282.446 114.96 285.234 124.227 287.144C138.994 289.623 153.761 289.605 168.528 289.605C170.938 289.302 173.324 288.959 175.665 288.572L206.774 278.087C206.774 278.087 191.809 268.209 179.948 268.636C168.085 269.064 160.077 280.668 150.512 279.81C140.947 278.954 137.116 268.243 123.341 268.243C122.911 268.243 122.492 268.218 122.061 268.243Z" fill="#083D9C" stroke="#083D9C" stroke-width="3.45533"/>
<path fill-rule="evenodd" clip-rule="evenodd" d="M42.9974 239.412C42.9974 239.412 250.867 240.135 254.274 240.147C257.973 237.541 258.512 238.451 260.665 235.479C259.619 233.671 257.765 231.709 255.398 229.866C250.663 226.179 243.872 222.964 237.368 222.397C226.652 222.774 219.002 233.363 210.202 233.742C201.401 234.119 191.454 222.774 181.505 223.155C171.558 223.532 161.227 233.742 151.277 233.742C141.33 233.742 134.06 222.774 121.434 222.774C108.808 222.774 103.068 234.875 93.5028 234.119C83.935 233.363 75.5185 222.02 66.3361 222.02C57.1538 222.02 41.8487 235.632 38.7879 234.875C35.7271 234.119 42.612 240.548 42.9974 239.412Z" fill="#083D9C" stroke="#083D9C" stroke-width="3.24588"/>
<path fill-rule="evenodd" clip-rule="evenodd" d="M95.0332 170.97L208.29 171.347L95.0332 170.97Z" fill="#630810"/>
<path d="M95.0332 170.97L208.29 171.347" stroke="#630810" stroke-width="4.39714" stroke-linecap="round"/>
<path fill-rule="evenodd" clip-rule="evenodd" d="M100.385 144.121L113.777 161.894L100.385 144.121Z" fill="#630810"/>
<path d="M100.385 144.121L113.777 161.894" stroke="#630810" stroke-width="4.39714" stroke-linecap="round"/>
<path fill-rule="evenodd" clip-rule="evenodd" d="M100.385 161.894L114.926 144.5L100.385 161.894Z" fill="#630810"/>
<path d="M100.385 161.894L114.926 144.5" stroke="#630810" stroke-width="4.39714" stroke-linecap="round"/>
<path fill-rule="evenodd" clip-rule="evenodd" d="M108.038 142.985L107.656 153.951L108.038 142.985Z" fill="#630810"/>
<path d="M108.038 142.985L107.656 153.951" stroke="#630810" stroke-width="4.39714" stroke-linecap="round"/>
<path fill-rule="evenodd" clip-rule="evenodd" d="M121.82 144.121L135.213 161.894L121.82 144.121Z" fill="#630810"/>
<path d="M121.82 144.121L135.213 161.894" stroke="#630810" stroke-width="4.39714" stroke-linecap="round"/>
<path fill-rule="evenodd" clip-rule="evenodd" d="M121.82 161.894L136.361 144.5L121.82 161.894Z" fill="#630810"/>
<path d="M121.82 161.894L136.361 144.5" stroke="#630810" stroke-width="4.39714" stroke-linecap="round"/>
<path fill-rule="evenodd" clip-rule="evenodd" d="M129.474 142.985L129.092 153.951L129.474 142.985Z" fill="#630810"/>
<path d="M129.474 142.985L129.092 153.951" stroke="#630810" stroke-width="4.39714" stroke-linecap="round"/>
<path fill-rule="evenodd" clip-rule="evenodd" d="M143.625 144.121L157.017 161.894L143.625 144.121Z" fill="#630810"/>
<path d="M143.625 144.121L157.017 161.894" stroke="#630810" stroke-width="4.39714" stroke-linecap="round"/>
<path fill-rule="evenodd" clip-rule="evenodd" d="M143.625 161.894L158.166 144.5L143.625 161.894Z" fill="#630810"/>
<path d="M143.625 161.894L158.166 144.5" stroke="#630810" stroke-width="4.39714" stroke-linecap="round"/>
<path fill-rule="evenodd" clip-rule="evenodd" d="M151.279 142.985L150.896 153.951L151.279 142.985Z" fill="#630810"/>
<path d="M151.279 142.985L150.896 153.951" stroke="#630810" stroke-width="4.39714" stroke-linecap="round"/>
<path fill-rule="evenodd" clip-rule="evenodd" d="M166.189 144.121L179.582 161.894L166.189 144.121Z" fill="#630810"/>
<path d="M166.189 144.121L179.582 161.894" stroke="#630810" stroke-width="4.39714" stroke-linecap="round"/>
<path fill-rule="evenodd" clip-rule="evenodd" d="M166.189 161.894L180.73 144.5L166.189 161.894Z" fill="#630810"/>
<path d="M166.189 161.894L180.73 144.5" stroke="#630810" stroke-width="4.39714" stroke-linecap="round"/>
<path fill-rule="evenodd" clip-rule="evenodd" d="M173.843 142.985L173.461 153.951L173.843 142.985Z" fill="#630810"/>
<path d="M173.843 142.985L173.461 153.951" stroke="#630810" stroke-width="4.39714" stroke-linecap="round"/>
<path fill-rule="evenodd" clip-rule="evenodd" d="M187.998 144.121L201.39 161.894L187.998 144.121Z" fill="#630810"/>
<path d="M187.998 144.121L201.39 161.894" stroke="#630810" stroke-width="4.39714" stroke-linecap="round"/>
<path fill-rule="evenodd" clip-rule="evenodd" d="M187.998 161.894L202.539 144.5L187.998 161.894Z" fill="#630810"/>
<path d="M187.998 161.894L202.539 144.5" stroke="#630810" stroke-width="4.39714" stroke-linecap="round"/>
<path fill-rule="evenodd" clip-rule="evenodd" d="M195.652 142.985L195.27 153.951L195.652 142.985Z" fill="#630810"/>
<path d="M195.652 142.985L195.27 153.951" stroke="#630810" stroke-width="4.39714" stroke-linecap="round"/>
<path fill-rule="evenodd" clip-rule="evenodd" d="M18.8887 172.104L67.0978 172.482V142.609L12 139.963L18.8887 172.104Z" fill="#FF9C10"/>
<path fill-rule="evenodd" clip-rule="evenodd" d="M16.5898 130.887L67.8623 135.803L67.4807 114.627L23.6224 97.4214L16.9734 112.925L16.5898 130.887Z" fill="#FF9C10"/>
<path fill-rule="evenodd" clip-rule="evenodd" d="M26.9258 88.535L66.3368 107.442L71.9642 101.635C71.9642 101.635 68.3398 99.1674 68.5193 96.8968C68.5875 94.6 72.1651 94.2515 72.2334 91.7586C72.2991 89.4617 68.1806 89.1857 68.1363 86.8876C67.8672 84.3972 71.3109 81.727 71.3109 81.727L44.6235 58.7549L26.9258 88.535Z" fill="#FF9C10"/>
<path fill-rule="evenodd" clip-rule="evenodd" d="M285.577 172.482H234.688L234.307 143.366L286.676 139.465L285.577 172.482Z" fill="#FF9C10"/>
<path fill-rule="evenodd" clip-rule="evenodd" d="M286.815 130.418C286.172 125.692 285.498 120.976 284.403 116.341C282.936 110.135 281.062 104.028 278.791 98.0791C278.624 97.6399 278.373 97.2368 278.201 96.7993L234.688 115.012L235.081 136.571L286.815 130.418Z" fill="#FF9C10"/>
<path fill-rule="evenodd" clip-rule="evenodd" d="M257.084 60.424L231.045 80.1131C231.032 80.1297 231.004 80.1922 230.996 80.2116C230.994 80.2179 230.997 80.2535 230.996 80.2607C230.994 80.2686 230.997 80.302 230.996 80.3098C230.995 80.3177 230.996 80.3505 230.996 80.359C230.996 80.3684 230.995 80.3992 230.996 80.4081C230.997 80.4269 230.993 80.4867 230.996 80.5066C231.22 81.6359 233.52 84.4134 233.851 86.4625C233.676 89.5746 231.007 90.9522 230.553 92.3201C230.542 92.3552 230.511 92.4325 230.504 92.4678C230.499 92.4913 230.507 92.5428 230.504 92.5662C230.5 92.6015 230.504 92.6784 230.504 92.714C230.504 92.7373 230.5 92.7896 230.504 92.8124C230.507 92.835 230.499 92.8888 230.504 92.9109C230.51 92.9328 230.546 92.9879 230.553 93.0093C230.58 93.0835 230.608 93.1859 230.651 93.2554C231.366 94.3392 233.9 94.9692 233.9 97.2425C233.9 99.7248 231.585 101.201 231.291 101.377C234.291 103.357 234.84 105.769 235.475 108.219L274.46 87.9394C269.809 78.1475 264.018 68.8764 257.084 60.424Z" fill="#FF9C10"/>
<path fill-rule="evenodd" clip-rule="evenodd" d="M184.562 135.992L206.371 135.047L206.753 126.347L184.562 135.992Z" fill="#FF9C10"/>
<path fill-rule="evenodd" clip-rule="evenodd" d="M117.99 135.329L95.0332 134.668V125.592L117.99 135.329Z" fill="#FF9C10"/>
<path fill-rule="evenodd" clip-rule="evenodd" d="M117.891 132.683L95.029 121.054C95.029 116.013 95.029 110.97 95.029 105.929C95.029 105.929 92.3499 106.306 92.7328 103.281C92.8591 96.9792 109.535 114.784 118.082 120.582L117.891 132.683Z" fill="#FF9C10"/>
<path fill-rule="evenodd" clip-rule="evenodd" d="M184.56 131.264L184.467 121.434C184.467 121.434 205.125 103 209.525 99.5957C209.525 103.378 207.136 106.306 207.136 106.306V120.677L184.56 131.264Z" fill="#FF9C10"/>
<path fill-rule="evenodd" clip-rule="evenodd" d="M50.6484 48.4507C51.0301 48.8291 73.8305 73.8732 73.8305 73.8732C74.4699 71.5002 79.7271 71.1392 85.0828 71.5177C90.441 71.8949 94.7112 71.163 94.7112 74.9448C94.7112 78.7254 91.993 78.1884 91.993 80.8361C91.993 83.4839 96.066 83.2616 96.066 86.6613C96.066 90.0647 93.1126 89.3703 93.0975 92.0056C93.088 94.1838 96.1785 94.2999 96.1785 94.2999L117.892 115.099L117.987 92.8811L76.0192 27.8296L50.6484 48.4507Z" fill="#FF9C10"/>
<path fill-rule="evenodd" clip-rule="evenodd" d="M86.4609 22.1767C86.8009 23.1859 116.782 83.458 116.782 83.458C116.782 83.458 117.122 26.8903 122.232 23.8603L115.845 12.2432L86.4609 22.1767Z" fill="#FF9C10"/>
<path fill-rule="evenodd" clip-rule="evenodd" d="M184.331 15.6802L173.01 54.8123C173.01 54.8123 178.475 55.4928 182.904 55.1569C184.011 55.0726 184.661 55.2999 185.02 55.6491C185.095 55.7275 185.169 55.8537 185.217 55.9444C185.249 56.0103 185.295 56.1199 185.315 56.1905C185.359 56.3622 185.375 56.5933 185.365 56.7812C185.286 57.8499 184.528 59.0455 184.528 59.0455L184.479 84.2475L216.474 27.7398C209.943 24.4047 203.487 19.0743 196.097 16.7569C192.251 15.3035 188.026 16.6213 184.331 15.6802Z" fill="#FF9C10"/>
<path fill-rule="evenodd" clip-rule="evenodd" d="M224.148 32.0226L184.573 92.862L184.523 116.292L210.562 91.5822C210.88 91.2806 211.116 91.0149 211.251 90.7946C211.293 90.7228 211.326 90.6134 211.35 90.5485C211.363 90.5104 211.392 90.4367 211.399 90.4008C211.402 90.3773 211.398 90.325 211.399 90.3023C211.399 90.2801 211.402 90.2253 211.399 90.2039C211.396 90.1828 211.405 90.1258 211.399 90.1054C211.393 90.0854 211.359 90.0264 211.35 90.007C211.326 89.9593 211.287 89.904 211.251 89.8592C210.623 89.1168 208.553 88.6923 208.347 86.4629C208.389 86.0239 208.494 85.6562 208.643 85.38C209.206 84.3871 210.371 84.2107 211.104 83.3126C211.485 82.8261 211.744 82.1175 211.744 80.9499C211.744 80.129 211.647 79.573 211.498 79.2271C211.48 79.1887 211.468 79.1136 211.448 79.0794C211.409 79.014 211.346 78.9332 211.301 78.8825C211.293 78.8746 211.259 78.841 211.252 78.8333C211.244 78.8255 211.21 78.7913 211.202 78.7842C210.862 78.4976 210.392 78.442 209.972 78.1443C209.952 78.1301 209.893 78.1112 209.873 78.0952C209.834 78.0615 209.764 77.9874 209.726 77.9474C209.668 77.885 209.584 77.7808 209.529 77.7013C209.274 77.3157 209.038 76.69 208.889 75.7324C208.811 75.351 208.788 74.9421 208.889 74.551C208.908 74.4838 208.961 74.3715 208.987 74.3049C209.009 74.2519 209.059 74.1605 209.086 74.108C209.17 73.9515 209.296 73.7633 209.43 73.6158C209.465 73.5791 209.54 73.504 209.578 73.468C210.493 72.6369 212.387 71.9914 215.928 71.9914C222.35 71.9914 229.1 70.7594 230.202 73.3696C230.313 73.2581 244.444 59.1259 250.433 52.9421C242.803 44.9945 234.012 37.9406 224.148 32.0226Z" fill="#FF9C10"/>
<path fill-rule="evenodd" clip-rule="evenodd" d="M137.907 183.462C127.005 201.308 97.859 196.015 91.0436 183.557C89.0014 182.985 90.2095 106.691 90.2095 106.691C90.2095 106.691 86.9529 105.225 86.8025 102.879C86.6533 100.51 91.2306 100.295 91.2306 97.2629C91.2306 94.2329 86.556 95.4206 86.4625 92.3707C86.4827 89.4544 91.453 89.8566 91.2306 87.1613C90.9677 84.1238 85.6638 84.5735 85.4389 81.7733C85.267 79.5489 89.2327 77.6093 90.3346 76.6089L86.6319 76.5552L78.2836 76.7238C72.3529 76.7301 78.386 78.0015 78.2994 81.3836C78.245 83.5931 75.2917 85.0631 75.0275 86.984C74.934 88.9561 79.2535 90.3412 79.3078 92.7079C79.3571 94.8199 75.0642 94.9636 75.2184 96.9257C75.485 100.247 79.0209 100.977 78.9679 102.988C78.9135 104.996 74.2099 105.762 74.1973 107.364C74.3615 110.464 74.8784 185.818 74.8784 185.818C82.3736 224.203 125.641 233.967 137.907 183.462Z" fill="#CE1126" stroke="#630810" stroke-width="3.04301" stroke-linejoin="round"/>
<path fill-rule="evenodd" clip-rule="evenodd" d="M166.438 183.462C177.34 201.308 206.484 196.015 213.3 183.557C215.342 182.985 214.135 106.691 214.135 106.691C214.135 106.691 217.392 105.225 217.541 102.879C217.69 100.51 213.4 100.295 213.4 97.2629C213.4 94.2329 217.789 95.4206 217.881 92.3707C217.862 89.4544 213.273 89.668 213.496 86.9715C213.757 83.9352 217.36 84.29 217.565 81.4898C217.737 79.0781 215.303 77.6093 214.201 76.6089L217.713 76.5552L226.06 76.7238C231.992 76.7301 225.957 78.0015 226.046 81.3836C226.099 83.5931 229.052 85.0631 229.317 86.984C229.41 88.9561 225.09 90.3412 225.036 92.7079C224.988 94.8199 229.281 94.9636 229.125 96.9257C228.859 100.247 225.323 100.977 225.377 102.988C225.43 104.996 230.135 105.762 230.146 107.364C229.983 110.464 229.467 185.818 229.467 185.818C221.97 224.203 178.704 233.967 166.438 183.462Z" fill="#CE1126" stroke="#630810" stroke-width="3.04301" stroke-linejoin="round"/>
<path fill-rule="evenodd" clip-rule="evenodd" d="M127.322 218.556L176.007 218.528C176.007 218.528 167.488 203.679 151.672 203.056C136.706 203.443 127.322 218.556 127.322 218.556Z" fill="#083D9C" stroke="#083D9C" stroke-width="3.24588"/>
<path fill-rule="evenodd" clip-rule="evenodd" d="M270.065 217.385H215.938C215.938 217.385 224.56 212.349 226.911 207.702C231.22 210.026 230.045 212.349 238.667 212.736C247.287 213.124 255.517 203.056 263.747 203.443C264.776 203.491 265.841 203.752 266.918 204.169C267.995 204.587 269.083 205.162 270.157 205.839C271.232 206.517 272.293 207.298 273.314 208.127L270.065 217.385Z" fill="#083D9C" stroke="#083D9C" stroke-width="3.24588"/>
<path fill-rule="evenodd" clip-rule="evenodd" d="M28.3642 217.385H86.655C86.655 217.385 78.0325 212.349 75.6819 207.702C71.3726 210.026 72.5479 212.349 63.9254 212.736C55.3067 213.124 47.0759 203.056 38.8452 203.443C34.7311 203.637 30.029 207.219 26.3555 210.704C26.7253 215.123 26.9998 214.586 28.3642 217.385Z" fill="#083D9C" stroke="#083D9C" stroke-width="3.24588"/>
<path fill-rule="evenodd" clip-rule="evenodd" d="M25.0138 196.684L72.4584 197.061C72.4584 197.061 69.3976 190.634 69.016 182.693C56.7691 178.535 46.8222 191.768 38.0215 192.146C29.2233 192.523 20.041 182.693 20.041 182.693L25.0138 196.684Z" fill="#083D9C" stroke="#083D9C" stroke-width="3.24588"/>
<path fill-rule="evenodd" clip-rule="evenodd" d="M278.309 196.684L230.863 197.061C230.863 197.061 233.925 190.634 234.307 182.693C246.553 178.535 256.5 191.768 265.3 192.146C274.1 192.523 283.282 182.693 283.282 182.693L278.309 196.684Z" fill="#083D9C" stroke="#083D9C" stroke-width="3.24588"/>
<path fill-rule="evenodd" clip-rule="evenodd" d="M139.417 197.06L163.52 197.028C163.52 197.028 163.905 189.121 151.277 189.121C138.651 189.121 139.417 197.06 139.417 197.06Z" fill="#083D9C" stroke="#083D9C" stroke-width="3.24587"/>
<path fill-rule="evenodd" clip-rule="evenodd" d="M124.877 186.853C129.087 184.582 132.912 182.315 135.591 177.02L119.137 177.397C119.137 177.397 111.488 181.937 107.66 186.853H124.877Z" fill="#630810" stroke="#630810" stroke-width="4.39714" stroke-linecap="round"/>
<path fill-rule="evenodd" clip-rule="evenodd" d="M65.5659 260.211C65.5659 260.211 192.62 260.755 236.812 260.944C237.267 259 238.472 259.952 239.664 258.421C237.949 256.891 235.474 254.847 232.437 252.791C226.363 248.679 218.041 244.519 209.048 244.331C191.065 243.95 196.041 251.893 182.266 253.026C168.492 254.161 165.046 244.708 152.42 245.085C139.795 245.462 132.524 253.026 122.96 253.406C113.395 253.783 101.15 243.95 93.88 244.331C86.6097 244.708 60.5918 255.674 60.5918 255.674L65.5659 260.211Z" fill="#083D9C" stroke="#083D9C" stroke-width="3.24588"/>
<path fill-rule="evenodd" clip-rule="evenodd" d="M178.056 186.853C173.847 184.582 170.023 182.315 167.344 177.02L183.796 177.397C183.796 177.397 191.447 181.937 195.274 186.853H178.056Z" fill="#630810" stroke="#630810" stroke-width="4.39714" stroke-linecap="round"/>
<path d="M13.5527 150.41C13.5594 112.417 27.9332 75.9822 53.5134 49.1166C79.0935 22.251 113.786 7.15425 149.962 7.146C186.138 7.13776 220.837 22.2188 246.428 49.0727C272.019 75.9266 286.408 112.355 286.431 150.348C286.453 188.341 272.107 224.788 246.548 251.675C220.988 278.563 186.307 293.689 150.131 293.727C113.955 293.766 79.2448 278.715 53.633 251.882C28.0212 225.05 13.6043 188.634 13.5527 150.641" stroke="white" stroke-width="7.84845" stroke-linecap="round" stroke-linejoin="round"/>
<path fill-rule="evenodd" clip-rule="evenodd" d="M127.483 121.591L177.566 135.21V62.4517C154.627 63.6197 135.514 18.0981 176.037 14.9857C136.277 9.14893 131.689 19.6543 127.102 30.937L127.483 121.591Z" fill="#CE1126" stroke="#630810" stroke-width="3.08551" stroke-linejoin="round"/>
</svg>
