<svg width="300" height="300" viewBox="0 0 300 300" fill="none" xmlns="http://www.w3.org/2000/svg">
<path fill-rule="evenodd" clip-rule="evenodd" d="M54.6816 26.1123C54.7594 72.1167 54.5251 118.13 54.8007 164.132C56.2663 205.416 87.8608 243.116 128.212 251.834C165.542 260.929 207.341 244.583 228.412 212.353C241.031 194.327 245.68 172.023 244.639 150.308C244.639 108.909 244.639 67.5117 244.639 26.1123C181.322 26.1123 117.999 26.1123 54.6816 26.1123Z" fill="#EAC102" stroke="black" stroke-width="0.761997"/>
<path fill-rule="evenodd" clip-rule="evenodd" d="M54.873 26.416C54.9505 72.2668 54.717 118.123 54.9915 163.97C56.4513 205.117 87.9255 242.699 128.117 251.388C165.3 260.453 206.925 244.163 227.912 212.04C240.481 194.075 245.11 171.841 244.073 150.2C244.073 108.938 244.073 67.6772 244.073 26.416C181.007 26.416 117.94 26.416 54.873 26.416Z" fill="#F8D80E" stroke="black" stroke-width="0.380998"/>
<path fill-rule="evenodd" clip-rule="evenodd" d="M70.5865 42.6533C70.6511 81.9951 70.4566 121.341 70.6852 160.68C71.901 195.986 98.1143 228.232 131.588 235.688C162.555 243.466 197.222 229.489 214.702 201.926C225.174 186.434 229.488 166.378 228.162 148.864C228.162 113.461 228.162 78.057 228.162 42.6533C175.637 42.6533 123.112 42.6533 70.5865 42.6533Z" fill="#DA000C" stroke="black" stroke-width="0.723897"/>
<path fill-rule="evenodd" clip-rule="evenodd" d="M70.6309 42.3457C70.6551 57.0929 70.6435 71.8413 70.6309 86.5891V130.856C70.6458 140.692 70.669 150.525 70.7261 160.36C70.9394 166.554 71.9273 172.652 73.5836 178.541H225.197C226.94 172.248 227.963 165.803 228.305 159.479V150.013C228.276 149.522 228.246 149.037 228.209 148.549C228.209 113.149 228.209 77.7454 228.209 42.3457H70.6309Z" fill="white" stroke="black" stroke-width="0.609597"/>
<path d="M193.893 127.64H104.824V165.557H193.893V127.64Z" fill="black" stroke="black" stroke-width="0.761997"/>
<path d="M129.741 160.016H100.464L93.9746 164.928V170.135H129.741" fill="#DA000C"/>
<path d="M129.741 160.016H100.464L93.9746 164.928V170.135H129.741" stroke="black" stroke-width="0.761997" stroke-linecap="square"/>
<path d="M168.979 160.016H198.255L204.745 164.928V170.135H168.979" fill="#DA000C"/>
<path d="M168.979 160.016H198.255L204.745 164.928V170.135H168.979" stroke="black" stroke-width="0.761997" stroke-linecap="square"/>
<path d="M93.9746 164.928H204.746H93.9746Z" fill="#ED1C24"/>
<path d="M93.9746 164.928H204.746" stroke="black" stroke-width="0.761997" stroke-linecap="square"/>
<path fill-rule="evenodd" clip-rule="evenodd" d="M128.799 162.558L121.469 166.625V172.684H149.359H177.25V166.625L169.92 162.558H149.359H128.799Z" fill="#DA000C" stroke="black" stroke-width="0.761997"/>
<path fill-rule="evenodd" clip-rule="evenodd" d="M121.459 166.613H177.256H121.459Z" fill="#DA000C"/>
<path d="M121.459 166.613H177.256" stroke="black" stroke-width="0.761997"/>
<path d="M117.486 138.235C121.701 138.235 125.143 142.276 125.143 147.258V159.997H130.647V111.731H100.461V159.997H109.828V147.258C109.828 142.47 113.211 138.235 117.486 138.235Z" fill="#DA000C" stroke="black" stroke-width="0.761997" stroke-linecap="square"/>
<path d="M125.232 79.0781H111.352V108.348H125.232V79.0781Z" fill="black" stroke="black" stroke-width="0.761997"/>
<path fill-rule="evenodd" clip-rule="evenodd" d="M107.934 68.4473V98.8576H112.484V90.5059C112.484 87.3783 114.404 84.8192 117.09 84.6629C117.177 84.6574 117.26 84.6629 117.348 84.6629C120.155 84.6629 122.429 87.278 122.429 90.5059V98.8576H126.761V68.4473H107.934Z" fill="#DA000C" stroke="black" stroke-width="0.761997"/>
<path fill-rule="evenodd" clip-rule="evenodd" d="M124.628 103.814H112.482V98.8574H103.576V103.814H97.534V98.8574H93.9277V107.851H124.628M97.534 107.819H123.74V111.731H97.534V107.819Z" fill="#DA000C"/>
<path d="M124.628 103.814H112.482V98.8574H103.576V103.814H97.534V98.8574H93.9277V107.851H124.628M97.534 107.819H123.74V111.731H97.534V107.819Z" stroke="black" stroke-width="0.761997"/>
<path d="M159.951 60.4531H137.973V106.353H159.951V60.4531Z" fill="black" stroke="black" stroke-width="0.761997"/>
<path fill-rule="evenodd" clip-rule="evenodd" d="M136.434 60.4766V98.8846H143.412V87.4919C143.412 84.8635 144.875 81.2139 149.36 81.2139C153.845 81.2139 155.308 84.8635 155.308 87.4919V98.8846H162.287V60.4766H149.36H136.434ZM148.283 64.7847H149.36H150.438V75.861H149.36H148.283V64.7847ZM142.101 67.3703H144.279V76.9862H142.101V67.3703ZM154.442 67.3703H156.62V76.9862H154.442V67.3703Z" fill="#DA000C" stroke="black" stroke-width="0.761997"/>
<path d="M134.068 54.9521V60.422H149.36H164.652V54.9521H149.36H134.068Z" fill="#DA000C" stroke="black" stroke-width="0.761997" stroke-linecap="square"/>
<path d="M131.188 48.5957V54.9522H149.36H167.532V48.5957H162.965V52.0968H157.813V48.5957H151.936V52.0968H149.36H146.784V48.5957H140.906V52.0968H135.754V48.5957H131.188Z" fill="#DA000C" stroke="black" stroke-width="0.761997" stroke-linecap="square"/>
<path d="M106.293 64.3262V68.4468H128.212V64.3262H106.293Z" fill="#DA000C" stroke="black" stroke-width="0.761997" stroke-linecap="square"/>
<path d="M103.484 56.4346V64.3271H129.783V56.4346H125.731V60.4491H120.837V56.4346H113.367V60.4491H108.472V56.4346H103.484Z" fill="#DA000C" stroke="black" stroke-width="0.761997" stroke-linecap="square"/>
<path d="M181.231 138.235C177.016 138.235 173.573 142.276 173.573 147.258V159.997H168.07V111.731H198.256V159.997H188.889V147.258C188.889 142.47 185.505 138.235 181.231 138.235Z" fill="#DA000C" stroke="black" stroke-width="0.761997" stroke-linecap="square"/>
<path d="M124.443 111.731V115.691H149.36H174.276V111.731H149.36H124.443Z" fill="#DA000C" stroke="black" stroke-width="0.761997" stroke-linecap="round"/>
<path d="M174.051 79.0781H187.932V108.348H174.051V79.0781Z" fill="black" stroke="black" stroke-width="0.761997"/>
<path fill-rule="evenodd" clip-rule="evenodd" d="M190.785 68.4473V98.8576H186.234V90.5059C186.234 87.3783 184.315 84.8192 181.629 84.6629C181.542 84.6574 181.459 84.6629 181.371 84.6629C178.564 84.6629 176.289 87.278 176.289 90.5059V98.8576H171.957V68.4473H190.785Z" fill="#DA000C" stroke="black" stroke-width="0.761997"/>
<path fill-rule="evenodd" clip-rule="evenodd" d="M174.09 103.814H186.236V98.8574H195.142V103.814H201.184V98.8574H204.791V107.851H174.09M201.184 107.819H174.979V111.731H201.184V107.819Z" fill="#DA000C"/>
<path d="M174.09 103.814H186.236V98.8574H195.142V103.814H201.184V98.8574H204.791V107.851H174.09M201.184 107.819H174.979V111.731H201.184V107.819Z" stroke="black" stroke-width="0.761997"/>
<path fill-rule="evenodd" clip-rule="evenodd" d="M122.406 98.8574V111.731H149.36H176.314V98.8574H171.209V103.814H164.418V98.8574H155.308V103.814H149.36H143.412V98.8574H134.303V103.814H127.512V98.8574H122.406Z" fill="#DA000C" stroke="black" stroke-width="0.761997"/>
<path d="M192.423 64.3262V68.4468H170.504V64.3262H192.423Z" fill="#DA000C" stroke="black" stroke-width="0.761997" stroke-linecap="square"/>
<path d="M195.234 56.4346V64.3271H168.936V56.4346H172.987V60.4491H177.881V56.4346H185.352V60.4491H190.246V56.4346H195.234Z" fill="#DA000C" stroke="black" stroke-width="0.761997" stroke-linecap="square"/>
<path d="M134.324 215.389V221.365H138.068V218.365H143.161V221.365H147.184V215.389H134.324ZM134.324 223.621V229.62H147.184V223.621H143.161V226.62H138.068V223.621H134.324Z" fill="#F8D80E" stroke="black" stroke-width="0.761997"/>
<path fill-rule="evenodd" clip-rule="evenodd" d="M162.24 157.694C161.242 157.988 159.978 158.627 158.427 159.485C156.875 160.343 155.101 161.423 153.427 162.531C152.187 163.353 151.15 164.174 150.125 164.973C149.767 165.252 149.274 165.543 148.962 165.81C148.598 166.122 148.348 166.42 148.055 166.717C147.864 166.911 147.61 167.107 147.451 167.298C147.049 167.782 146.66 168.203 146.66 169.089C146.66 169.25 146.665 169.411 146.683 169.577C147.26 168.886 148.088 168.405 149.009 168.298C149.013 168.298 149.029 168.298 149.032 168.298C149.055 168.298 149.102 168.298 149.125 168.298C149.128 168.298 149.144 168.298 149.148 168.298C149.239 168.291 149.311 168.298 149.404 168.298C149.497 168.298 149.569 168.291 149.66 168.298C149.799 168.309 149.923 168.342 150.055 168.368C150.106 168.321 150.146 168.274 150.195 168.228C150.364 168.071 150.455 167.962 150.66 167.787C151.069 167.437 151.743 166.994 152.264 166.601C153.107 165.965 153.871 165.355 154.869 164.694C156.483 163.624 158.203 162.582 159.682 161.764C161.162 160.945 162.475 160.356 162.985 160.206L162.24 157.694Z" fill="#F8D80E" stroke="black" stroke-width="0.761995"/>
<path fill-rule="evenodd" clip-rule="evenodd" d="M152.645 163.171V166.082V163.171Z" fill="#F8D80E"/>
<path d="M152.645 163.171V166.082" stroke="black" stroke-width="0.761995" stroke-linecap="round"/>
<path fill-rule="evenodd" clip-rule="evenodd" d="M154.441 161.902V164.792V161.902Z" fill="#F8D80E"/>
<path d="M154.441 161.902V164.792" stroke="black" stroke-width="0.761995" stroke-linecap="round"/>
<path fill-rule="evenodd" clip-rule="evenodd" d="M156.24 160.781V163.652V160.781Z" fill="#F8D80E"/>
<path d="M156.24 160.781V163.652" stroke="black" stroke-width="0.761995" stroke-linecap="round"/>
<path fill-rule="evenodd" clip-rule="evenodd" d="M158.037 159.676V162.638V159.676Z" fill="#F8D80E"/>
<path d="M158.037 159.676V162.638" stroke="black" stroke-width="0.761995" stroke-linecap="round"/>
<path d="M150.889 190.154H147.176V233.4H150.889V190.154Z" fill="#F8D80E" stroke="black" stroke-width="0.761997"/>
<path d="M149.033 179.554L156.94 184.158L149.033 188.739L141.127 184.158L149.033 179.554ZM138.452 182.507H136.383V185.809H138.452L149.033 191.949L159.614 185.809H161.683V182.507H159.614L149.033 176.368L138.452 182.507Z" fill="#F8D80E" stroke="black" stroke-width="0.761997"/>
<path fill-rule="evenodd" clip-rule="evenodd" d="M136.636 157.787L135.752 160.252C138.61 161.285 142.665 163.293 145.914 165.252C147.539 166.231 148.96 167.194 149.937 167.996C150.425 168.397 150.8 168.769 151.007 169.019C151.032 169.05 151.062 169.087 151.076 169.112C151.079 169.117 151.074 169.131 151.076 169.135C151.093 169.17 151.113 169.206 151.123 169.228C151.104 169.395 151.074 169.574 151.03 169.693C151.026 169.703 151.011 169.731 151.007 169.74C151.004 169.744 151.009 169.759 151.007 169.763C151.004 169.767 150.986 169.783 150.984 169.786C150.968 169.806 150.953 169.837 150.937 169.856C150.933 169.86 150.917 169.876 150.914 169.879C150.91 169.883 150.895 169.899 150.891 169.903C150.882 169.91 150.854 169.919 150.844 169.926C150.828 169.936 150.794 169.963 150.774 169.972C150.668 170.015 150.494 170.042 150.216 170.042C150.051 170.042 149.918 170.018 149.821 169.996C149.784 169.986 149.734 169.984 149.705 169.972C149.695 169.969 149.667 169.953 149.658 169.949C149.633 169.936 149.608 169.918 149.588 169.903C149.582 169.897 149.568 169.882 149.565 169.879C149.563 169.877 149.544 169.859 149.542 169.856C149.536 169.846 149.524 169.818 149.519 169.81C149.517 169.81 149.497 169.81 149.496 169.81C149.493 169.81 149.475 169.809 149.472 169.81C149.467 169.809 149.455 169.81 149.449 169.81C149.437 169.81 149.413 169.81 149.403 169.81C149.33 169.81 149.264 169.802 149.193 169.81C148.339 169.896 147.616 170.505 147.379 171.344C147.38 171.347 147.379 171.366 147.379 171.368C147.382 171.371 147.4 171.388 147.403 171.391C147.414 171.401 147.437 171.425 147.449 171.437C148.047 172.158 149.071 172.647 150.216 172.647C151.421 172.647 152.471 172.142 153.053 171.391C153.636 170.639 153.774 169.785 153.774 169.089C153.774 168.277 153.41 167.805 153.03 167.345C152.651 166.884 152.158 166.44 151.588 165.973C150.45 165.038 148.958 164.041 147.263 163.019C143.874 160.976 139.761 158.917 136.636 157.787Z" fill="#F8D80E" stroke="black" stroke-width="0.761995"/>
<path fill-rule="evenodd" clip-rule="evenodd" d="M147.916 163.65L147.684 166.135L147.916 163.65Z" fill="#F8D80E"/>
<path d="M147.916 163.65L147.684 166.135" stroke="black" stroke-width="0.761995" stroke-linecap="round"/>
<path fill-rule="evenodd" clip-rule="evenodd" d="M149.987 164.919L149.346 167.352L149.987 164.919Z" fill="#F8D80E"/>
<path d="M149.987 164.919L149.346 167.352" stroke="black" stroke-width="0.761995" stroke-linecap="round"/>
<path fill-rule="evenodd" clip-rule="evenodd" d="M152.2 166.609L150.854 168.497L152.2 166.609Z" fill="#F8D80E"/>
<path d="M152.2 166.609L150.854 168.497" stroke="black" stroke-width="0.761995" stroke-linecap="round"/>
<path fill-rule="evenodd" clip-rule="evenodd" d="M152.876 171.2L150.934 170.158L152.876 171.2Z" fill="#F8D80E"/>
<path d="M152.876 171.2L150.934 170.158" stroke="black" stroke-width="0.761995" stroke-linecap="round"/>
<path fill-rule="evenodd" clip-rule="evenodd" d="M153.481 169.152L151.252 169.361L153.481 169.152Z" fill="#F8D80E"/>
<path d="M153.481 169.152L151.252 169.361" stroke="black" stroke-width="0.761995" stroke-linecap="round"/>
<path fill-rule="evenodd" clip-rule="evenodd" d="M150.606 172.379L150.453 170.42L150.606 172.379Z" fill="#F8D80E"/>
<path d="M150.606 172.379L150.453 170.42" stroke="black" stroke-width="0.761995" stroke-linecap="round"/>
<path fill-rule="evenodd" clip-rule="evenodd" d="M149.791 170.14L147.951 171.496L149.791 170.14Z" fill="#F8D80E"/>
<path d="M149.791 170.14L147.951 171.496" stroke="black" stroke-width="0.761995" stroke-linecap="round"/>
<path fill-rule="evenodd" clip-rule="evenodd" d="M140.941 159.856V162.174V159.856Z" fill="#F8D80E"/>
<path d="M140.941 159.856V162.174" stroke="black" stroke-width="0.761995" stroke-linecap="round"/>
<path fill-rule="evenodd" clip-rule="evenodd" d="M145.619 162.317V164.947V162.317Z" fill="#F8D80E"/>
<path d="M145.619 162.317V164.947" stroke="black" stroke-width="0.761995" stroke-linecap="round"/>
<path fill-rule="evenodd" clip-rule="evenodd" d="M143.281 161.089V163.559V161.089Z" fill="#F8D80E"/>
<path d="M143.281 161.089V163.559" stroke="black" stroke-width="0.761995" stroke-linecap="round"/>
<path d="M148.88 168.299C147.154 168.564 145.834 170.135 145.834 171.973V180.182C145.834 182.204 147.44 183.879 149.415 183.879C149.467 183.879 149.504 183.882 149.555 183.879C149.606 183.882 149.643 183.879 149.694 183.879C151.098 183.879 152.317 183.026 152.903 181.81L151.624 181.042C151.306 181.831 150.56 182.368 149.694 182.368C149.661 182.368 149.629 182.368 149.601 182.368C149.593 182.368 149.567 182.368 149.555 182.368C149.542 182.369 149.52 182.368 149.508 182.368C149.481 182.368 149.449 182.368 149.415 182.368C148.261 182.368 147.322 181.417 147.322 180.182V171.973C147.322 170.738 148.261 169.811 149.415 169.811C149.448 169.811 149.481 169.811 149.508 169.811C149.52 169.811 149.542 169.809 149.555 169.811C149.567 169.81 149.593 169.811 149.601 169.811C149.629 169.811 149.661 169.811 149.694 169.811C150.019 169.811 150.327 169.887 150.601 170.02C150.603 170.02 150.623 170.02 150.624 170.02C150.685 170.009 150.747 169.989 150.787 169.973C150.806 169.961 150.845 169.934 150.857 169.927C150.861 169.923 150.876 169.908 150.88 169.904C150.882 169.904 150.901 169.903 150.903 169.904C150.907 169.9 150.923 169.884 150.927 169.88C150.932 169.875 150.948 169.859 150.95 169.857C150.964 169.838 150.983 169.805 150.996 169.787C150.996 169.785 150.997 169.767 150.996 169.764L151.02 169.741C151.023 169.734 151.037 169.707 151.043 169.694C151.087 169.575 151.117 169.396 151.136 169.229C151.126 169.207 151.106 169.171 151.089 169.136C151.09 169.135 151.089 169.118 151.089 169.113C151.074 169.089 151.042 169.047 151.02 169.02C150.868 168.836 150.609 168.6 150.299 168.322C150.296 168.323 150.277 168.322 150.275 168.322C150.253 168.317 150.205 168.304 150.182 168.299C150.179 168.299 150.162 168.299 150.159 168.299C150.147 168.299 150.12 168.299 150.113 168.299C150.108 168.299 150.092 168.299 150.089 168.299C150.076 168.299 150.052 168.299 150.043 168.299C150.019 168.3 149.972 168.301 149.95 168.299C149.859 168.292 149.787 168.299 149.694 168.299C149.636 168.299 149.606 168.299 149.555 168.299C149.503 168.299 149.473 168.299 149.415 168.299C149.323 168.299 149.25 168.292 149.159 168.299C149.138 168.301 149.09 168.3 149.066 168.299C149.057 168.299 149.033 168.299 149.02 168.299C149.014 168.299 149.001 168.299 148.997 168.299C148.987 168.299 148.958 168.3 148.95 168.299C148.947 168.299 148.93 168.299 148.927 168.299C148.913 168.301 148.894 168.297 148.88 168.299ZM153.182 171.206C153.145 171.262 153.107 171.336 153.066 171.392C152.757 171.791 152.314 172.124 151.787 172.345V177.973L153.275 178.833V171.973C153.275 171.713 153.256 171.452 153.206 171.206C153.203 171.205 153.184 171.206 153.182 171.206Z" fill="#F8D80E" stroke="black" stroke-width="0.761997"/>
<path d="M150.889 193.896H147.176V231.147H150.889V193.896Z" fill="#F8D80E" stroke="black" stroke-width="0.761997"/>
<path fill-rule="evenodd" clip-rule="evenodd" d="M129.053 115.705V162.544H138.677C138.677 162.544 138.677 152.848 138.677 145.01C138.677 136.75 143.471 132.863 149.52 132.863C155.334 132.863 160.362 136.75 160.362 145.01C160.362 152.848 160.362 162.544 160.362 162.544H169.987V115.705H149.52H129.053Z" fill="#DA000C" stroke="black" stroke-width="0.761997" stroke-linejoin="round"/>
<path fill-rule="evenodd" clip-rule="evenodd" d="M46.1416 201.389C41.3819 204.077 36.6095 206.769 31.8498 209.458C31.0739 209.896 29.5403 211.204 30.1331 213.246C35.7431 232.567 45.8599 243.029 56.1616 252.331C66.6293 261.786 78.5691 267.157 86.7811 270.725C87.3358 268.865 88.2289 266.999 89.0965 265.226C89.1022 265.213 89.0908 265.192 89.0965 265.181C89.1753 265.02 89.2574 264.887 89.336 264.728C89.3959 264.602 89.437 264.492 89.4957 264.371C89.5041 264.353 89.5275 264.342 89.5356 264.325C89.5508 264.295 89.5607 264.266 89.5757 264.236C89.603 264.178 89.6282 264.11 89.6554 264.054C89.6971 263.97 89.7343 263.865 89.7753 263.783C89.9093 263.512 90.0459 263.28 90.1745 263.017C90.3888 262.576 90.5836 262.127 90.7733 261.709C92.4675 258.324 96.5787 258.11 99.6757 258.058C103.498 257.484 107.056 260.726 110.814 258.961C114.432 258.826 116.186 254.234 112.37 252.377C107.313 249.729 101.541 249.69 96.2823 247.69C79.4502 242.644 63.4849 232.016 53.4071 215.679C50.5813 211.201 48.1592 206.391 46.1416 201.389Z" fill="#F8D80E" stroke="black" stroke-width="0.761997"/>
<path fill-rule="evenodd" clip-rule="evenodd" d="M114.605 256.931C112.699 258.465 110.588 259.532 108.351 259.532C106.677 259.532 103.999 258.204 102.408 258.204C100.817 258.204 98.0103 257.707 94.817 258.645C93.3638 259.152 91.6945 259.747 90.897 261.335C90.3926 262.324 91.5159 262.818 91.9876 263.478C95.7119 266.97 100.36 268.868 104.949 270.385C107.263 271.126 109.61 271.738 111.97 272.258C114.014 269.636 114.333 265.976 114.514 262.634C114.6 260.734 114.603 258.834 114.605 256.931Z" fill="#F8D80E" stroke="black" stroke-width="0.761997"/>
<path fill-rule="evenodd" clip-rule="evenodd" d="M49.6556 200.036C48.5923 200.096 47.4442 200.541 46.1426 201.389C46.1899 201.506 46.2475 201.62 46.3023 201.75C46.3149 201.78 46.3293 201.807 46.3422 201.84C46.3853 201.941 46.4144 202.049 46.4618 202.155C46.4857 202.213 46.5178 202.28 46.5418 202.337C46.5645 202.387 46.558 202.461 46.5816 202.513C47.7837 205.205 50.0976 209.662 52.4898 214.146C52.5378 214.227 52.5614 214.339 52.6097 214.419C52.6837 214.558 52.7751 214.686 52.8491 214.824C52.8926 214.895 52.9654 214.98 53.0089 215.05C53.0242 215.079 53.0335 215.112 53.0487 215.14C53.0757 215.184 53.1018 215.23 53.1288 215.273C53.216 215.415 53.3197 215.54 53.4081 215.679C55.7331 219.447 58.341 222.929 61.2328 226.096L67.2207 219.286C58.068 208.474 54.9221 199.745 49.6556 200.036Z" fill="#F8D80E" stroke="black" stroke-width="0.761997"/>
<path fill-rule="evenodd" clip-rule="evenodd" d="M253.292 201.389C258.052 204.077 262.824 206.769 267.584 209.458C268.36 209.896 269.893 211.204 269.3 213.246C263.69 232.567 253.574 243.029 243.272 252.331C232.804 261.786 220.864 267.157 212.652 270.725C212.098 268.865 211.205 266.999 210.337 265.226C210.331 265.213 210.343 265.192 210.337 265.181C210.258 265.02 210.176 264.887 210.097 264.728C210.038 264.602 209.996 264.492 209.938 264.371C209.929 264.353 209.906 264.342 209.898 264.325C209.883 264.295 209.873 264.266 209.858 264.236C209.83 264.178 209.805 264.11 209.778 264.054C209.736 263.97 209.699 263.865 209.658 263.783C209.524 263.512 209.387 263.28 209.259 263.017C209.045 262.576 208.85 262.127 208.66 261.709C206.966 258.324 202.855 258.11 199.758 258.058C195.935 257.484 192.377 260.726 188.62 258.961C185.001 258.826 183.247 254.234 187.063 252.377C192.121 249.729 197.893 249.69 203.151 247.69C219.983 242.644 235.948 232.016 246.026 215.679C248.852 211.201 251.274 206.391 253.292 201.389Z" fill="#F8D80E" stroke="black" stroke-width="0.761997"/>
<path fill-rule="evenodd" clip-rule="evenodd" d="M184.826 256.931C186.732 258.465 188.844 259.532 191.08 259.532C192.755 259.532 195.432 258.204 197.023 258.204C198.614 258.204 201.421 257.707 204.614 258.645C206.067 259.152 207.737 259.747 208.534 261.335C209.038 262.324 207.915 262.818 207.444 263.478C203.719 266.97 199.071 268.868 194.482 270.385C192.168 271.126 189.821 271.738 187.461 272.258C185.417 269.636 185.098 265.976 184.918 262.634C184.831 260.734 184.828 258.834 184.826 256.931Z" fill="#F8D80E" stroke="black" stroke-width="0.761997"/>
<path fill-rule="evenodd" clip-rule="evenodd" d="M149.715 298C138.201 298 84.4375 294.815 84.4375 280.536C84.4375 275.673 88.9503 264.863 90.7395 262.092C102.467 276.316 142.505 275.565 149.715 275.565C157.461 275.565 196.964 276.316 208.691 262.092C210.481 264.863 214.993 275.673 214.993 280.536C214.993 294.815 161.095 298 149.715 298Z" fill="#F8D80E" stroke="black" stroke-width="0.761997"/>
<path fill-rule="evenodd" clip-rule="evenodd" d="M249.778 200.036C250.841 200.096 251.989 200.541 253.291 201.389C253.244 201.506 253.186 201.62 253.131 201.75C253.119 201.78 253.104 201.807 253.091 201.84C253.048 201.941 253.019 202.049 252.972 202.155C252.948 202.213 252.916 202.28 252.892 202.337C252.869 202.387 252.876 202.461 252.852 202.513C251.65 205.205 249.336 209.662 246.943 214.146C246.896 214.227 246.872 214.339 246.824 214.419C246.75 214.558 246.658 214.686 246.584 214.824C246.541 214.895 246.468 214.98 246.425 215.05C246.409 215.079 246.4 215.112 246.385 215.14C246.358 215.184 246.332 215.23 246.305 215.273C246.217 215.415 246.114 215.54 246.026 215.679C243.7 219.447 241.093 222.929 238.201 226.096L232.213 219.286C241.366 208.474 244.511 199.745 249.778 200.036Z" fill="#F8D80E" stroke="black" stroke-width="0.761997"/>
<path d="M44.7763 206.486L46.3378 209.81L38.1534 218.946L49.4642 216.465L51.0253 219.788L38.8505 227.081L37.8288 224.907L47.8878 218.88L36.2282 221.5L35.1756 219.259L43.6558 209.872L33.5971 215.898L32.6016 213.781L44.7763 206.486ZM53.7315 226.041C52.8603 224.886 51.8267 224.332 50.6297 224.362C49.4375 224.39 48.2105 225.015 46.9488 226.231C45.6919 227.444 44.955 228.715 44.7383 230.044C44.5216 231.376 44.8489 232.616 45.7198 233.767C46.5868 234.913 47.6186 235.469 48.8156 235.435C50.0123 235.401 51.2393 234.782 52.4965 233.566C53.7579 232.352 54.4948 231.081 54.7067 229.756C54.9273 228.429 54.6024 227.193 53.7315 226.041ZM55.2468 224.579C56.5756 226.335 57.1294 228.196 56.9083 230.161C56.6922 232.121 55.7278 233.924 54.0153 235.575C52.3032 237.227 50.5706 238.023 48.8186 237.964C47.0711 237.896 45.5331 236.989 44.2045 235.229C42.8718 233.468 42.3135 231.608 42.5298 229.648C42.7459 227.688 43.7127 225.879 45.4297 224.223C47.1466 222.567 48.8792 221.774 50.6267 221.838C52.3742 221.902 53.914 222.816 55.2468 224.579ZM59.2555 230.26L61.1442 231.991L59.628 245.598L66.1272 236.561L67.8486 238.14L59.1617 250.22L57.2877 248.501L58.7748 234.869L52.2756 243.908L50.5685 242.343L59.2555 230.26ZM67.7533 237.992L76.9294 244.361L75.8714 246.303L72.2679 243.803L66.1116 255.119L64.1663 253.769L70.3226 242.456L66.6954 239.938L67.7533 237.992ZM77.6543 244.609L79.697 245.808L73.3462 259.619L71.3035 258.425L77.6543 244.609ZM88.9321 255.556L86.9314 254.581C87.1984 253.75 87.1723 252.984 86.8528 252.279C86.5391 251.581 85.9681 251.024 85.1395 250.614C84.4538 250.275 83.8238 250.178 83.2493 250.325C82.6751 250.472 82.284 250.813 82.0763 251.35C81.8662 251.889 81.8851 252.429 82.1327 252.969C82.3829 253.501 83.0506 254.244 84.1358 255.205C85.7874 256.652 86.7761 257.825 87.1016 258.725C87.4328 259.628 87.3833 260.635 86.9529 261.742C86.4324 263.084 85.5678 263.945 84.3585 264.326C83.1576 264.699 81.8144 264.521 80.3288 263.784C78.7632 263.01 77.7083 261.98 77.1646 260.697C76.6261 259.415 76.636 257.958 77.1937 256.329L79.2334 257.337C78.9328 258.29 78.9607 259.154 79.3173 259.938C79.6797 260.727 80.3378 261.353 81.2923 261.826C82.0122 262.184 82.6769 262.279 83.2865 262.111C83.9021 261.946 84.321 261.575 84.5437 261C84.6315 260.777 84.6645 260.488 84.6432 260.139C84.63 259.786 84.5635 259.455 84.4436 259.15C84.2449 258.647 83.6353 257.954 82.6152 257.074C82.397 256.879 82.2316 256.738 82.1183 256.643C80.8694 255.524 80.0788 254.499 79.7462 253.566C79.4162 252.626 79.4675 251.598 79.9005 250.479C80.3609 249.293 81.1604 248.539 82.2996 248.216C83.4471 247.895 84.7292 248.082 86.1462 248.783C87.5233 249.464 88.4613 250.414 88.9606 251.641C89.4683 252.86 89.4587 254.165 88.9321 255.556Z" fill="black"/>
<path d="M97.1609 270.549L99.2707 271.588L93.7644 285.857L91.6543 284.816L97.1609 270.549ZM104.604 273.692L106.98 274.282L111.036 287.211L113.249 275.84L115.415 276.376L112.457 291.579L110.099 290.994L106.007 278.056L103.794 289.428L101.646 288.895L104.604 273.692ZM131.374 282.96L129.204 282.732C129.23 281.848 128.994 281.129 128.497 280.572C128.006 280.015 127.311 279.687 126.41 279.587C125.665 279.505 125.04 279.635 124.534 279.976C124.029 280.316 123.751 280.779 123.7 281.359C123.649 281.949 123.815 282.455 124.199 282.878C124.583 283.296 125.422 283.773 126.717 284.306C128.685 285.102 129.947 285.87 130.504 286.611C131.066 287.353 131.295 288.326 131.191 289.534C131.065 290.992 130.479 292.111 129.434 292.894C128.395 293.673 127.069 293.972 125.454 293.792C123.753 293.608 122.468 292.998 121.598 291.966C120.735 290.937 120.344 289.552 120.426 287.805L122.642 288.049C122.618 289.057 122.882 289.873 123.437 290.492C123.997 291.115 124.796 291.481 125.833 291.596C126.615 291.683 127.273 291.539 127.806 291.167C128.346 290.793 128.643 290.295 128.697 289.674C128.718 289.428 128.671 289.141 128.555 288.818C128.446 288.484 128.292 288.199 128.094 287.949C127.766 287.538 126.996 287.093 125.784 286.611C125.524 286.504 125.327 286.427 125.194 286.378C123.7 285.751 122.666 285.052 122.094 284.284C121.522 283.505 121.288 282.51 121.393 281.296C121.505 280.008 122.058 279.011 123.053 278.306C124.054 277.593 125.325 277.324 126.864 277.492C128.361 277.66 129.514 278.237 130.325 279.225C131.142 280.206 131.492 281.451 131.374 282.96ZM138.972 278.815L141.273 278.906L140.786 294.462L138.486 294.37L138.972 278.815ZM160.795 283.638L158.522 283.684C158.332 282.767 157.925 282.055 157.299 281.553C156.679 281.043 155.908 280.802 154.985 280.821C153.606 280.849 152.545 281.388 151.801 282.441C151.057 283.483 150.701 284.94 150.732 286.816C150.762 288.654 151.169 290.094 151.953 291.134C152.738 292.174 153.794 292.681 155.122 292.653C156.251 292.628 157.159 292.216 157.844 291.412C158.536 290.61 158.893 289.544 158.915 288.221L155.145 288.298L155.11 286.153L160.994 286.032L161.132 294.429L159.616 294.462L159.2 292.504C158.702 293.298 158.091 293.9 157.368 294.317C156.645 294.735 155.825 294.951 154.908 294.972C153.006 295.011 151.45 294.293 150.24 292.817C149.037 291.335 148.415 289.372 148.375 286.928C148.334 284.436 148.897 282.433 150.064 280.924C151.231 279.411 152.809 278.635 154.798 278.593C156.457 278.558 157.815 278.986 158.872 279.871C159.928 280.759 160.569 282.013 160.795 283.638ZM167.751 278.443L170.171 278.165L177.602 289.015L176.556 277.428L178.763 277.177L180.159 292.661L177.758 292.937L170.29 282.092L171.335 293.676L169.148 293.927L167.751 278.443ZM185.728 275.849L187.987 275.356L190.612 290.633L188.353 291.128L185.728 275.849ZM199.401 274.636L199.507 281.771L203.361 280.2L199.401 274.636ZM197.407 272.663L199.836 271.673L209.281 284.368L206.976 285.306L204.602 281.996L199.56 284.055L199.637 288.3L197.384 289.223L197.407 272.663Z" fill="black"/>
<path d="M225.942 248.01L223.923 249.167C223.436 248.396 222.817 247.939 222.066 247.794C221.317 247.637 220.504 247.815 219.625 248.316C218.452 248.991 217.745 249.96 217.504 251.23C217.269 252.495 217.52 253.946 218.258 255.585C219.001 257.236 219.912 258.351 220.989 258.925C222.066 259.5 223.172 259.46 224.307 258.811C225.208 258.293 225.816 257.567 226.131 256.637C226.449 255.694 226.419 254.714 226.042 253.687L228.044 252.539C228.7 254.137 228.76 255.724 228.223 257.296C227.688 258.86 226.667 260.075 225.16 260.939C223.409 261.945 221.734 262.089 220.137 261.369C218.546 260.648 217.238 259.149 216.215 256.878C215.181 254.58 214.885 252.493 215.329 250.617C215.772 248.742 216.906 247.283 218.73 246.237C220.209 245.387 221.587 245.12 222.863 245.439C224.146 245.755 225.172 246.61 225.942 248.01ZM229.842 242.402L231.463 249.302L234.869 246.726L229.842 242.402ZM227.486 241.029L229.632 239.407L241.503 249.165L239.465 250.705L236.457 248.133L232.001 251.501L232.98 255.602L230.989 257.109L227.486 241.029ZM233.531 236.313L235.262 234.617L242.929 244.591L248.066 239.554L249.433 241.336L242.566 248.068L233.531 236.313ZM243.102 229.419L246.393 232.632L248.339 230.09C248.947 229.299 249.252 228.607 249.255 228.023C249.261 227.433 248.974 226.854 248.394 226.287C247.823 225.733 247.277 225.491 246.756 225.57C246.23 225.643 245.689 226.041 245.134 226.764L243.102 229.419ZM240.095 229.903L243.529 225.421C244.084 224.695 244.525 224.192 244.851 223.904C245.177 223.608 245.515 223.387 245.864 223.245C246.53 222.954 247.21 222.907 247.904 223.101C248.593 223.287 249.272 223.71 249.942 224.361C250.494 224.901 250.902 225.5 251.165 226.16C251.424 226.812 251.529 227.499 251.483 228.214C251.448 228.702 251.32 229.187 251.098 229.672C250.877 230.152 250.497 230.746 249.959 231.451L247.914 234.117L252.019 238.126L250.52 240.086L240.095 229.903ZM246.675 221.239L251.807 211.704L253.534 212.893L249.574 220.25L252.652 222.365L256.306 215.571L257.953 216.703L254.299 223.494L257.857 225.936L261.949 218.333L263.716 219.544L258.453 229.325L246.675 221.239Z" fill="black"/>
</svg>
