<svg width="300" height="300" viewBox="0 0 300 300" fill="none" xmlns="http://www.w3.org/2000/svg">
<path fill-rule="evenodd" clip-rule="evenodd" d="M150.294 13.0278C150.294 13.0278 58.3516 80.0195 58.3516 149.608C58.3516 219.206 150.294 287.973 150.294 287.973C150.294 287.973 241.647 224.214 241.647 149.608C241.647 75.0114 150.294 13.0278 150.294 13.0278Z" fill="#92DBFC"/>
<path fill-rule="evenodd" clip-rule="evenodd" d="M68.5254 192.086L232.389 192.081L210.799 228.812L177.323 265.621L150.295 287.972L119.125 260.5L77.9243 209.716L68.5254 192.086Z" fill="#008CE7" stroke="black" stroke-width="0.230671" stroke-miterlimit="33" stroke-linecap="round" stroke-linejoin="round"/>
<path fill-rule="evenodd" clip-rule="evenodd" d="M232.709 176.897C218.534 186.184 138.776 181.724 138.776 181.724L134.316 192.121L229.285 192.391C229.68 190.964 230.629 189.269 230.959 187.828L232.709 176.897Z" fill="#CCCCCC" stroke="black" stroke-width="0.230671"/>
<path fill-rule="evenodd" clip-rule="evenodd" d="M89.9922 219.931C94.0306 220.051 98.0538 220.832 101.666 222.607C108.124 225.71 111.869 225.687 118.829 225.784C126.115 225.886 131.832 230.797 139.706 231.001C154.211 231.373 160.309 237.97 149.031 237.965C143.704 237.96 132.284 234.685 126.764 235.373C118.373 236.154 113.522 236.739 107.313 241.259C101.397 234.755 95.4816 227.601 89.9922 219.931ZM118.687 253.045C122.284 250.792 124.76 249.032 128.25 248.934C135.033 248.743 137.347 244.901 145.185 244.906C154.094 246.402 166.169 243.926 173.236 242.49C185.782 239.842 179.831 231.805 172.236 228.888C166.098 226.481 154.591 228.767 147.453 226.379C142.05 224.446 146.504 221.366 149.411 220.711C152.344 220.219 155.489 221.106 159.137 221.649C165.651 222.174 173.835 221.617 179.557 220.804C191.383 219.145 190.896 215.968 196.604 215.893C200.769 215.717 203.94 214.583 206.781 212.725C210.119 210.686 213.594 206.5 217.633 206.667L220.007 206.76C195.066 250.941 150.274 279.944 150.274 279.944C150.274 279.944 135.8 269.798 118.687 253.045Z" fill="#FFDE52" stroke="black" stroke-width="0.230671"/>
<path fill-rule="evenodd" clip-rule="evenodd" d="M176.023 220.683C177.571 226.165 179.21 228.028 185.501 229.436C191.71 230.843 201.197 225.315 195.317 219.949C189.722 214.959 183.826 213.682 178.814 209.189C171.036 202.128 160.367 187.531 155.299 173.728C149.754 158.639 150.718 116.158 150.966 94.6392C150.971 94.3884 151.641 94.2397 151.717 94.1375C152.077 93.6636 152.422 94.2908 151.859 91.1363C151.712 90.328 151.012 89.4918 151.017 88.6741C151.022 87.2153 145.517 90.2676 144.066 92.8692C143.737 93.4639 145.122 95.1596 145.122 95.494C145.309 116.14 142.884 156.902 148.871 175.354C152.574 186.778 159.332 195.601 165.451 203.763C169.119 208.994 174.425 214.639 176.023 220.683Z" fill="#8C4200" stroke="black" stroke-width="0.230671"/>
<path fill-rule="evenodd" clip-rule="evenodd" d="M93.1485 88.5399C93.5392 89.0324 93.4834 91.1555 93.4834 91.1555C93.803 91.332 98.988 87.1137 98.988 87.3042C98.9931 88.1915 99.1098 90.0219 99.1098 90.0219C99.1098 90.0219 104.477 85.3483 104.701 85.8407C104.949 86.3936 104.68 89.1021 104.68 89.1021C104.68 89.1021 108.252 85.497 108.906 84.8466C109.378 84.382 109.302 85.4319 109.348 87.1276C109.358 87.4296 115.202 83.1787 115.558 83.1044C116.313 82.9557 116.547 85.3111 116.506 85.9011C116.476 86.3378 121.899 83.0672 121.661 83.4993L122.062 86.0126C123.573 85.8222 127.176 84.591 129.342 84.9116C130.037 85.0138 130.001 85.3344 129.382 85.5667C118.941 89.4366 110.91 95.2716 106.233 103.402C104.64 106.171 104.153 108.586 104.574 109.195C104.574 109.195 106.451 105.497 108.566 104.916C108.851 104.842 109.038 107.285 109.327 107.146C109.327 107.146 110.931 103.439 112.087 102.073C112.397 101.706 112.914 104.02 113.244 103.676C113.244 103.676 114.076 101.195 115.705 99.4667C115.938 99.2205 116.359 101.813 116.618 101.594C118.307 100.168 119.895 96.591 120.529 96.3262C120.971 96.0103 121.047 99.2995 121.468 99.0161C121.468 99.0161 123.878 94.584 125.319 93.7803C126.242 93.26 126.207 96.2007 126.207 96.2007C128.043 94.5422 130.067 91.7919 131.026 90.598C131.468 90.0498 131.224 94.2217 131.696 94.3843C132.3 94.598 136.257 91.188 136.703 91.1183C136.998 91.0718 137.343 92.0893 136.571 92.9069C136.511 92.972 131.681 98.073 131.681 98.073C132.619 98.2356 132.985 97.994 133.659 98.1566C135.663 98.6398 129.905 101.664 130.001 102.231C130.001 102.231 132.777 102.184 131.848 102.677C131.178 103.035 127.51 107.36 127.51 107.207C127.51 107.128 129.352 107.244 129.342 107.727C129.327 108.623 126.293 113.246 126.262 113.218C126.095 113.065 127.891 113.018 128.134 113.474C128.581 114.315 125.019 118.054 125.714 118.691C125.811 118.779 127.749 118.719 128.611 118.895C129.027 118.979 130.194 125.687 129.9 125.418C129.834 125.353 131.148 119.128 131.945 117.232C132.432 116.085 133.989 118.965 134.116 118.709C134.05 118.709 133.801 114.616 134.02 112.754C134.08 112.233 135.202 113.297 135.186 112.8C135.146 111.671 135.044 110.463 135.298 109.362C135.491 108.531 136.445 110.863 136.815 110.236C136.815 110.236 135.658 106.184 136.14 105.042C136.46 104.289 137.231 106.863 137.738 106.965C137.738 106.965 137.454 103.815 137.987 103.002L139.595 104.582C139.945 104.075 139.879 99.1694 140.204 98.7095C140.473 98.3239 142.142 100.549 142.391 100.201C142.614 99.8848 141.685 96.2426 141.893 95.9545C142.188 95.5411 144.019 96.9673 144.055 96.9394C144.8 96.2519 144.775 94.5376 145.09 93.9011C145.932 92.1776 150.762 91.9546 151.33 93.181C151.609 93.7757 151.416 94.5422 151.304 95.4667C151.35 95.5039 153.724 95.6619 153.745 95.4946C153.745 95.4946 153.461 97.5248 153.628 99.7594C153.653 100.057 156.038 99.6851 156.068 99.9824C156.286 102.087 155.759 102.282 155.759 102.282C155.779 102.435 157.367 102.059 157.392 102.222C157.565 103.248 157.205 104.498 156.494 105.701C156.388 105.873 158.767 105.534 158.803 105.734C159.092 107.313 159.148 108.568 158.848 110.798C158.823 110.979 161.177 109.223 161.213 109.404C161.568 111.281 161.157 113.306 161.37 115.248C161.421 115.699 162.927 113.906 163.064 114.426C163.201 114.937 162.73 118.654 162.958 118.863C162.958 118.863 165.479 118.747 165.703 118.942C167.702 120.661 167.321 123.662 167.321 123.662C167.869 123.29 167.661 119.676 167.108 116.368C167.047 116.02 169.046 116.154 168.985 115.829C168.985 115.829 166.793 114.621 166.073 111.258C165.921 110.538 168.189 110.686 168.189 110.686C167.56 109.362 166.454 109.111 165.515 107.838C165.211 107.42 167.869 107.23 167.869 107.109C167.874 105.841 165.627 105.237 164.465 103.917C163.968 103.355 166.89 103.327 166.89 103.327C166.032 102.236 163.207 101.757 161.766 100.312C160.979 99.5271 164.632 98.7559 164.587 98.6212C164.186 97.4644 160.751 97.102 159.087 95.7966C158.742 95.5271 161.258 94.6166 161.258 94.6166C161.005 94.1241 155.52 90.821 158.311 91.123C159.488 91.2531 161.877 92.7861 162.065 92.5539C162.065 92.5539 161.964 90.6259 162.207 90.3936C163.125 89.5202 166.291 94.1009 167.367 93.9151C167.367 93.9151 167.762 90.6352 168.249 90.5469C169.406 90.3471 170.817 95.3227 171.958 95.3227C172.11 95.3227 172.197 92.447 172.785 92.2891C173.45 92.1125 174.195 95.5132 175.038 96.2658C175.819 96.958 175.829 93.6084 176.286 94.2449C177.062 95.2716 177.25 97.4133 178.31 98.3564C179 98.9696 179.127 95.4017 179.893 95.8802C180.781 96.4331 180.573 98.2821 181.572 99.1926C182.049 99.6247 182.369 96.8372 182.911 97.2461C183.393 97.6038 183.718 101.014 184.236 101.553C184.895 102.24 185.656 99.7548 186.341 100.15C186.833 100.438 186.716 103.388 187.173 104.02C188.107 105.33 188.594 102.435 189.213 102.881C189.644 103.183 190.577 106.575 190.968 106.844C191.835 107.448 192.312 105.302 192.972 105.604C193.449 105.817 194.413 110.184 194.808 110.073C195.067 109.999 195.706 100.122 191.556 95.9545C184.794 89.1625 172.684 85.2415 162.801 85.1439C162.801 85.1439 167.768 84.238 167.899 83.4854C168.163 81.9848 170.629 82.1613 172.349 82.5051C172.653 82.5655 172.491 79.8524 172.531 79.8385C174.069 79.8059 175.443 80.6375 176.915 81.4552C177.371 81.7107 175.986 78.7374 176.473 78.9929C178.361 79.9918 180.461 80.2844 181.734 81.497C182.069 81.8175 181.349 79.2066 181.349 79.2066C182.293 78.9976 184.154 80.2426 184.885 81.4087C185.24 81.9848 184.865 78.3658 185.144 79.0069C185.144 79.0069 188.431 80.0289 188.786 81.2972C188.786 81.2972 189.055 79.0022 189.497 79.123C190.816 79.4389 191.972 81.4784 193.002 81.7711C193.002 81.7711 192.576 79.727 192.911 79.8059C195.387 80.3774 198.076 81.7804 198.071 81.7711C196.676 78.5748 191.384 75.2252 182.074 74.3286C180.365 74.166 173.429 73.9058 167.549 75.1556C162.73 76.1776 158.925 76.7583 159.706 76.0615C162.892 73.2043 168.041 72.8559 169.457 72.1916C170.472 71.7177 166.043 70.1521 166.92 69.9291C167.793 69.7386 171.75 69.4366 171.75 69.4366C172.607 68.8234 168.874 67.6248 169.432 66.7328C170.548 64.9442 177.148 66.5702 177.711 65.8919C177.894 65.6643 174.875 64.029 175.002 63.7874C175.484 62.8815 181.359 64.4564 181.496 63.6666C181.496 63.6666 179.715 62.4494 178.447 61.4506C178.295 61.3298 183.693 60.0011 183.693 60.0011C183.591 59.9082 182.769 59.3786 181.532 58.9373C180.4 58.5331 186.27 57.1347 186.27 57.1347C178.833 54.0221 159.528 62.8768 155.698 72.0661C154.704 74.2589 154.673 71.8756 154.881 70.0173C155.079 68.0197 155.353 66.2682 155.12 64.4332C155.049 63.8896 153.542 65.878 153.44 65.3484C153.055 63.3972 154.196 61.2555 153.674 59.0906C153.501 58.3612 151.502 61.2415 151.239 60.5122C150.508 58.5099 151.786 55.6945 151.269 52.9349C151.066 51.8571 149.174 55.2439 148.54 54.2776C147.799 53.1579 148.124 49.0093 147.773 48.3821C147.489 47.8804 145.805 50.3705 145.663 49.9013C143.38 42.2962 146.414 41.3485 142.03 45.6365C141.878 45.7852 140.904 41.1394 140.737 41.2974C138.941 44.8188 135.998 38.7887 134.994 39.3508C134.243 39.7782 137.043 42.1104 137.074 43.1603C137.089 43.6667 134.496 43.6992 134.496 43.6992C134.552 44.568 139.428 47.0023 139.585 47.9547C139.712 48.7398 136.135 48.5447 136.135 48.5447C136.247 49.6086 140.311 50.6214 140.534 51.7503C140.661 52.3728 138.631 52.5122 138.697 53.144C138.804 54.115 142.624 56.0337 142.751 57.0232C142.837 57.7108 140.311 57.9942 140.25 58.6353C140.174 59.4111 145.323 62.0127 145.328 62.7421C145.333 63.7735 143.278 63.2439 142.345 63.7642C141.031 64.4936 146.561 67.4482 146.794 68.2891C146.977 69.0278 144.582 68.3774 144.501 69.051C144.4 69.9337 147.21 71.2671 147.855 72.7816C148.499 74.2775 147.839 74.6585 146.916 74.0638C145.064 72.8698 137.596 65.6039 135.613 63.6666C132.731 60.8513 126.831 57.6968 120.945 57.511C120.332 57.6829 124.111 60.1312 124.137 61.0185C124.142 61.2462 122.437 61.5853 122.513 61.655C123.558 62.612 126.81 63.7502 126.81 63.7502L125.877 65.288C126.095 65.7386 127.637 65.8594 130.108 66.6027C130.108 66.6027 128.256 67.6527 128.393 67.7502C129.702 68.7072 132.239 69.4134 132.239 69.4134L129.743 70.1799C129.596 70.6213 135.359 72.7351 135.359 72.7351C135.359 72.7351 133.558 74.1567 133.639 74.231C134.08 74.6352 138.317 75.5319 138.317 75.5319C138.388 75.5969 135.323 76.4703 135.344 76.4889C136.455 77.5063 139.519 77.8361 140.234 79.5179C140.234 79.5179 140.656 80.4749 139.443 80.2937C134.674 78.7095 127.287 75.4296 112.965 76.7165C98.3234 78.4633 87.1671 90.1195 87.3599 91.2809C87.3599 91.2809 92.5956 87.8431 93.1486 88.5399L93.1485 88.5399Z" fill="#109421" stroke="black" stroke-width="0.230671"/>
<path fill-rule="evenodd" clip-rule="evenodd" d="M124.242 173.337L123.562 206.406C122.75 206.433 121.929 206.493 121.124 206.511C107.25 206.836 94.8249 205.971 94.8249 205.971C94.8249 205.971 93.5566 205.733 93.5566 205.766C93.5566 206.147 94.0495 207.215 95.0794 208.219C99.2345 211.74 107.149 211.424 107.368 211.74C107.591 212.06 108.027 214.253 107.428 214.425C106.83 214.597 104.531 214.425 104.531 214.425C107.185 217.83 119.732 217.589 123.537 217.455C135.13 217.051 135.571 214.022 135.571 214.022L134.627 214.193C133.683 214.369 131.76 214.454 131.694 213.646C131.633 212.837 132.39 211.28 132.39 211.28C135.541 210.76 141.277 210.241 143.545 207.82C145.813 205.395 144.234 204.414 144.234 204.414C140.009 205.245 135.184 205.781 130.243 206.113C128.823 206.208 127.402 206.236 125.974 206.3L125.258 173.337C124.919 173.073 124.581 172.874 124.242 173.337ZM108.622 211.654C108.622 211.654 118.377 212.699 129.601 211.654C129.601 211.654 129.896 213.436 129.383 214.114C128.869 214.792 115.921 215.312 109.39 214.362C108.339 214.08 108.303 213.001 108.622 211.654Z" fill="#8C4200" stroke="black" stroke-width="0.230671"/>
<path fill-rule="evenodd" clip-rule="evenodd" d="M100.377 203.68C100.377 203.68 110.078 191.506 106.968 170.449C121.964 178.795 134.703 191.369 138.169 203.053C124.565 199.907 112.557 202.079 100.377 203.68Z" fill="#FDF9FF" stroke="black" stroke-width="0.230671"/>
<path fill-rule="evenodd" clip-rule="evenodd" d="M150.312 5C150.312 5 53 71.3365 53 149.557C53 227.787 150.312 296 150.312 296C150.312 296 247 233.413 247 149.557C247 65.7059 150.312 5 150.312 5ZM150.276 21.0557C150.276 21.0557 63.7048 80.0705 63.7048 149.659C63.7048 219.257 150.276 279.944 150.276 279.944C150.276 279.944 236.295 224.265 236.295 149.659C236.295 75.0624 150.276 21.0557 150.276 21.0557Z" fill="#C62139"/>
<path d="M145.533 91.8999C147.445 91.8999 148.995 90.3498 148.995 88.4375C148.995 86.5253 147.445 84.9751 145.533 84.9751C143.62 84.9751 142.07 86.5253 142.07 88.4375C142.07 90.3498 143.62 91.8999 145.533 91.8999Z" fill="#8C4200" stroke="black" stroke-width="0.189453" stroke-miterlimit="33" stroke-linecap="round" stroke-linejoin="round"/>
<path d="M145.203 97.584C147.115 97.584 148.665 96.0338 148.665 94.1216C148.665 92.2094 147.115 90.6592 145.203 90.6592C143.29 90.6592 141.74 92.2094 141.74 94.1216C141.74 96.0338 143.29 97.584 145.203 97.584Z" fill="#8C4200" stroke="black" stroke-width="0.189453" stroke-miterlimit="33" stroke-linecap="round" stroke-linejoin="round"/>
<path d="M149.974 90.5933C151.886 90.5933 153.437 89.0431 153.437 87.1309C153.437 85.2186 151.886 83.6685 149.974 83.6685C148.062 83.6685 146.512 85.2186 146.512 87.1309C146.512 89.0431 148.062 90.5933 149.974 90.5933Z" fill="#8C4200" stroke="black" stroke-width="0.189453" stroke-miterlimit="33" stroke-linecap="round" stroke-linejoin="round"/>
<path d="M150.498 95.4282C152.41 95.4282 153.96 93.8781 153.96 91.9658C153.96 90.0536 152.41 88.5034 150.498 88.5034C148.585 88.5034 147.035 90.0536 147.035 91.9658C147.035 93.8781 148.585 95.4282 150.498 95.4282Z" fill="#8C4200" stroke="black" stroke-width="0.189453" stroke-miterlimit="33" stroke-linecap="round" stroke-linejoin="round"/>
<path fill-rule="evenodd" clip-rule="evenodd" d="M136.495 141.517C136.495 141.349 136.448 141.218 136.355 141.122C136.279 141.002 136.064 140.919 135.707 140.871V140.44H141.508V140.871C141.151 140.919 140.926 141.002 140.832 141.122C140.757 141.218 140.719 141.349 140.719 141.517V151.138C140.719 152.718 140.513 154.046 140.1 155.123C139.705 156.201 139.152 157.062 138.438 157.708C137.744 158.355 136.918 158.809 135.96 159.073C135.022 159.312 134.017 159.432 132.947 159.432C131.877 159.432 130.863 159.312 129.906 159.073C128.967 158.809 128.141 158.355 127.428 157.708C126.733 157.062 126.18 156.201 125.767 155.123C125.372 154.046 125.175 152.718 125.175 151.138V141.517C125.175 141.349 125.128 141.218 125.034 141.122C124.959 141.002 124.743 140.919 124.387 140.871V140.44H130.188V140.871C129.831 140.919 129.606 141.002 129.512 141.122C129.437 141.218 129.399 141.349 129.399 141.517V151.138C129.399 152.527 129.709 153.52 130.328 154.118C130.948 154.717 131.821 155.016 132.947 155.016C134.074 155.016 134.947 154.717 135.566 154.118C136.186 153.52 136.495 152.527 136.495 151.138V141.517Z" fill="#BD0728" stroke="black" stroke-width="0.230671" stroke-miterlimit="33" stroke-linecap="round" stroke-linejoin="round"/>
<path fill-rule="evenodd" clip-rule="evenodd" d="M158.902 158.637C158.902 158.758 158.935 158.854 158.999 158.926C159.084 158.974 159.244 158.998 159.479 158.998V159.432H153.807V158.998C154.042 158.95 154.213 158.878 154.319 158.782C154.426 158.661 154.533 158.457 154.64 158.168C154.683 158.048 154.79 157.723 154.96 157.193C155.131 156.663 155.356 156.002 155.634 155.207C155.911 154.389 156.221 153.486 156.563 152.499C156.905 151.512 157.247 150.513 157.588 149.503C157.93 148.467 158.262 147.469 158.582 146.506C158.924 145.519 159.223 144.64 159.479 143.87C159.736 143.1 159.939 142.474 160.088 141.993C160.259 141.511 160.345 141.258 160.345 141.234C160.345 141.114 160.27 141.03 160.12 140.982C159.992 140.933 159.853 140.897 159.704 140.873V140.44H168.069V140.873C167.898 140.897 167.759 140.933 167.652 140.982C167.545 141.03 167.492 141.15 167.492 141.343C167.492 141.391 167.588 141.704 167.78 142.281C167.994 142.859 168.261 143.617 168.581 144.556C168.902 145.471 169.265 146.518 169.671 147.697C170.098 148.853 170.536 150.044 170.985 151.272C171.434 152.475 171.861 153.655 172.267 154.81C172.694 155.965 173.079 157 173.421 157.915C173.592 158.348 173.731 158.637 173.837 158.782C173.966 158.926 174.126 158.998 174.318 158.998V159.432H168.004V158.998C168.41 158.974 168.613 158.83 168.613 158.565C168.613 158.541 168.56 158.385 168.453 158.096C168.346 157.783 168.229 157.446 168.101 157.085C167.972 156.7 167.844 156.339 167.716 156.002C167.609 155.665 167.545 155.436 167.524 155.316H159.928C159.714 155.965 159.543 156.495 159.415 156.904C159.287 157.313 159.18 157.638 159.095 157.879C159.031 158.12 158.977 158.3 158.935 158.421C158.913 158.517 158.902 158.589 158.902 158.637ZM166.69 152.427L163.582 143.834L160.729 152.427H166.69Z" fill="#BD0728" stroke="black" stroke-width="0.230671" stroke-miterlimit="33" stroke-linecap="round" stroke-linejoin="round"/>
<path fill-rule="evenodd" clip-rule="evenodd" d="M108.658 152.545C108.498 152.545 108.388 152.616 108.329 152.758C108.269 152.876 108.229 153.042 108.209 153.255H107.85V148.285H108.209C108.249 148.711 108.398 148.924 108.658 148.924H117.479V149.35C117.16 149.374 117 149.575 117 149.954V155.846C117 156.012 117.02 156.154 117.06 156.272C117.1 156.391 117.199 156.45 117.359 156.45H117.508V156.876C114.797 158.58 111.588 159.432 107.88 159.432C106.624 159.432 105.408 159.254 104.232 158.899C103.076 158.52 102.049 157.941 101.152 157.16C100.255 156.379 99.5276 155.397 98.9694 154.213C98.4312 153.006 98.1621 151.598 98.1621 149.989C98.1621 148.38 98.4312 146.983 98.9694 145.8C99.5276 144.593 100.255 143.599 101.152 142.818C102.049 142.014 103.076 141.422 104.232 141.043C105.408 140.641 106.624 140.44 107.88 140.44C108.378 140.44 108.817 140.452 109.196 140.475C109.575 140.499 109.943 140.546 110.302 140.617C110.661 140.688 111.03 140.783 111.409 140.901C111.787 140.996 112.236 141.126 112.754 141.292C113.252 141.458 113.711 141.659 114.13 141.895C114.548 142.108 114.817 142.215 114.937 142.215C115.096 142.215 115.236 142.12 115.356 141.931L115.714 142.073L113.771 146.759L113.412 146.51C113.452 146.368 113.472 146.238 113.472 146.12C113.472 145.954 113.302 145.777 112.963 145.587C112.625 145.374 112.196 145.185 111.678 145.019C111.159 144.854 110.571 144.712 109.913 144.593C109.276 144.475 108.648 144.416 108.03 144.416C107.312 144.416 106.624 144.534 105.966 144.771C105.329 144.984 104.75 145.327 104.232 145.8C103.734 146.274 103.335 146.865 103.036 147.575C102.737 148.261 102.588 149.09 102.588 150.06C102.588 151.007 102.767 151.835 103.126 152.545C103.485 153.231 103.933 153.799 104.471 154.249C105.03 154.698 105.647 155.03 106.325 155.243C107.003 155.456 107.671 155.562 108.329 155.562C109.166 155.562 109.913 155.503 110.571 155.385C111.249 155.266 111.897 155.101 112.515 154.888V152.545H108.658Z" fill="#BD0728" stroke="black" stroke-width="0.230671" stroke-miterlimit="33" stroke-linecap="round" stroke-linejoin="round"/>
<path fill-rule="evenodd" clip-rule="evenodd" d="M196.452 159.139C196.843 159.091 197.079 159.019 197.161 158.922C197.264 158.802 197.316 158.658 197.316 158.489V145.202L197.254 145.13L191.765 159.139L186.338 144.985H186.277V158.489C186.277 158.658 186.318 158.802 186.4 158.922C186.503 159.019 186.749 159.091 187.14 159.139V159.572H181.713V159.139C182.103 159.091 182.34 159.019 182.422 158.922C182.525 158.802 182.576 158.658 182.576 158.489V141.664C182.576 141.495 182.525 141.363 182.422 141.267C182.34 141.146 182.103 141.062 181.713 141.014V140.581H189.761V141.014C189.268 141.038 189.021 141.255 189.021 141.664C189.021 141.688 189.083 141.88 189.206 142.241C189.329 142.602 189.483 143.048 189.668 143.577C189.874 144.107 190.09 144.685 190.316 145.31C190.563 145.912 190.789 146.502 190.994 147.08C191.22 147.633 191.416 148.127 191.58 148.56C191.745 148.993 191.858 149.282 191.919 149.426C192.269 148.512 192.629 147.621 192.999 146.755C193.369 145.888 193.698 145.094 193.985 144.372C194.294 143.65 194.54 143.048 194.725 142.566C194.91 142.085 195.003 141.784 195.003 141.664C195.003 141.255 194.756 141.038 194.263 141.014V140.581H202.619V141.014C202.229 141.062 201.982 141.146 201.879 141.267C201.797 141.363 201.756 141.495 201.756 141.664V158.489C201.756 158.658 201.797 158.802 201.879 158.922C201.982 159.019 202.229 159.091 202.619 159.139V159.572H196.452V159.139Z" fill="#BD0728" stroke="black" stroke-width="0.230671" stroke-miterlimit="33" stroke-linecap="round" stroke-linejoin="round"/>
</svg>
