<svg width="300" height="300" viewBox="0 0 300 300" fill="none" xmlns="http://www.w3.org/2000/svg">
<path d="M73.7188 264.143C101.631 273.187 131.812 272.296 159.142 261.621C186.472 250.946 209.267 231.144 223.659 205.576C238.052 180.007 243.155 150.247 238.104 121.344C233.052 92.4418 218.157 66.1768 195.946 47.0059C210.403 68.4427 218.613 93.479 219.655 119.315C220.698 145.15 214.533 170.766 201.849 193.299C189.166 215.831 170.464 234.39 147.836 246.902C125.208 259.413 99.5457 265.383 73.7188 264.143Z" fill="black"/>
<path d="M236.22 239.615C254.506 228.984 269.211 213.148 278.461 194.126C287.71 175.104 291.085 153.758 288.155 132.81C285.224 111.862 276.121 92.2622 262.006 76.5089C247.892 60.7555 229.405 49.5629 208.903 44.3583C223.542 55.3829 235.863 69.1864 245.16 84.9785C254.458 100.771 260.55 118.241 263.087 136.391C265.624 154.54 264.557 173.012 259.947 190.748C255.337 208.485 247.274 224.998 236.22 239.615ZM150.09 287L143.121 147.631L150.09 37.9473C154.323 43.8568 159.98 48.6025 166.535 51.7448V133.694L160.96 272.088L150.09 287Z" fill="black"/>
<path d="M147.305 29.1667L150.092 31.954C152.895 36.0361 157.109 38.9375 161.922 40.1005C166.736 41.2635 171.809 40.6058 176.167 38.254C180.525 35.9022 183.859 32.0222 185.529 27.3604C187.199 22.6985 187.086 17.5838 185.213 13C184.477 16.8095 182.59 20.3015 179.806 23.0042C177.022 25.7069 173.476 27.4903 169.646 28.1133C165.817 28.7364 161.888 28.1692 158.391 26.4883C154.894 24.8074 151.998 22.0939 150.092 18.7141" fill="black"/>
<path d="M226.465 264.143C198.553 273.187 168.371 272.296 141.041 261.621C113.712 250.946 90.9166 231.144 76.5242 205.576C62.1318 180.007 57.0283 150.247 62.0797 121.344C67.1311 92.4418 82.0262 66.1768 104.238 47.0059C89.7801 68.4427 81.5709 93.479 80.5284 119.315C79.4858 145.15 85.6509 170.766 98.3343 193.299C111.018 215.831 129.719 234.39 152.347 246.902C174.975 259.413 200.638 265.383 226.465 264.143Z" fill="black"/>
<path d="M63.9637 239.615C45.6778 228.984 30.9724 213.148 21.7228 194.126C12.4732 175.104 9.09847 153.758 12.029 132.81C14.9596 111.862 24.0627 92.2622 38.1774 76.5089C52.2921 60.7555 70.7788 49.5629 91.2801 44.3583C76.6414 55.3829 64.3207 69.1864 55.0231 84.9785C45.7256 100.771 39.6339 118.241 37.0966 136.391C34.5593 154.54 35.6263 173.012 40.2365 190.748C44.8467 208.485 52.9096 224.998 63.9637 239.615ZM150.094 287L157.062 147.631L150.094 37.9473C145.86 43.8568 140.204 48.6025 133.648 51.7448V133.694L139.223 272.088L150.094 287Z" fill="black"/>
<path d="M152.879 29.1667L150.092 31.954C147.288 36.0361 143.075 38.9375 138.261 40.1005C133.448 41.2635 128.374 40.6058 124.017 38.254C119.659 35.9022 116.324 32.0222 114.655 27.3604C112.985 22.6985 113.097 17.5838 114.971 13C115.707 16.8095 117.594 20.3015 120.378 23.0042C123.161 25.7069 126.708 27.4903 130.537 28.1133C134.367 28.7364 138.295 28.1692 141.792 26.4883C145.289 24.8074 148.186 22.0939 150.092 18.7141" fill="black"/>
</svg>
