<svg width="300" height="300" viewBox="0 0 300 300" fill="none" xmlns="http://www.w3.org/2000/svg">
<path d="M149.47 297.431C205.17 297.431 232.106 284.906 232.106 284.906L231.388 279.362C231.388 279.362 231.844 279.033 234.714 278.249C237.323 277.532 238.236 272.383 238.04 270.099C237.843 268.075 239.863 262.926 240.972 262.008C240.972 262.008 236.343 260.378 234.714 258.486C232.04 255.55 229.366 252.616 225.127 254.833C223.496 255.681 224.409 247.982 224.409 247.982C224.409 247.982 199.033 260.507 149.597 259.79C100.158 259.071 74.5897 247.984 74.5897 247.984C74.5897 247.984 75.503 255.682 73.8726 254.834C69.6327 252.617 66.9585 255.552 64.2844 258.487C62.5886 260.379 58.0234 262.009 58.0234 262.009C59.1319 262.923 61.1541 268.078 60.9582 270.101C60.7623 272.384 61.676 277.537 64.2844 278.251C67.1544 279.033 67.6109 279.363 67.6109 279.363L66.8284 284.908C66.8315 284.908 93.7692 297.431 149.47 297.431Z" fill="white" stroke="#4D4D4D" stroke-width="0.629506"/>
<path d="M149.862 294.234C202.954 294.234 229.305 282.886 229.305 282.886L228.587 277.732C228.587 277.732 229.436 276.82 232.174 276.229C234.588 275.641 235.501 271.924 235.305 270.293C235.109 268.793 236.936 263.513 238.501 262.923C238.501 262.923 234.718 262.401 233.609 261.422C231.522 259.661 229.174 255.031 222.974 257.639C222.195 258.031 221.933 252.291 221.933 252.291C221.933 252.291 197.019 264.422 149.923 263.836C102.833 263.318 77.7874 253.077 77.7874 253.077C77.7874 253.077 78.7004 257.838 77.07 257.313C71.2648 255.359 69.8303 258.291 66.8294 260.708C65.851 261.487 61.9375 263.249 61.9375 263.249C63.0467 263.97 63.2419 265.922 63.6987 267.357C64.2853 269.379 63.2419 273.748 65.3291 275.118C66.8294 276.031 70.3519 277.01 70.3519 277.01L69.6337 282.88C69.6364 282.886 96.77 294.234 149.862 294.234Z" fill="#038B55" stroke="#4D4D4D" stroke-width="0.629506"/>
<path d="M219.99 255.454C220.076 256.17 220.172 256.877 220.361 257.559C220.46 257.914 220.536 258.251 220.889 258.766C221.065 259.024 221.329 259.377 221.915 259.647C222.502 259.916 223.423 259.881 223.965 259.608L223.83 259.671C226.409 258.586 227.484 258.994 228.637 259.741C229.782 260.483 230.722 261.856 232.165 263.082C233.054 263.863 233.905 264.162 234.736 264.375C234.562 264.74 234.347 265.075 234.197 265.453C233.844 266.343 233.556 267.246 233.358 268.087C233.161 268.928 232.995 269.602 233.122 270.578L233.119 270.556C233.144 270.772 233.04 271.958 232.687 272.801C232.334 273.644 231.886 274.032 231.656 274.088L231.711 274.075C230.159 274.41 229.058 274.855 228.301 275.268C227.822 275.535 227.377 275.859 226.976 276.232L226.262 277L226.877 281.422C223.067 282.938 198.41 292.032 149.863 292.032C123.474 292.032 103.573 289.212 90.2971 286.405C83.659 285.001 78.6763 283.6 75.3686 282.556C74.2485 282.204 73.1363 281.827 72.0328 281.426L72.7706 275.395L70.9436 274.888C70.9436 274.888 70.1149 274.657 69.1065 274.318C68.1193 273.987 66.95 273.504 66.5309 273.258C66.5232 273.255 66.4739 273.242 66.3746 272.935C66.2699 272.61 66.1856 272.042 66.1533 271.376C66.089 270.045 66.3257 268.498 65.8165 266.743L65.808 266.716L65.7992 266.689C65.631 266.161 65.4651 265.301 65.161 264.359C65.1445 264.308 65.1075 264.245 65.0898 264.192C66.1879 263.658 67.2591 263.184 68.2028 262.432L68.2078 262.429L68.2128 262.424C69.9186 261.05 70.9936 259.826 71.9493 259.308C72.9049 258.79 73.8344 258.547 76.3693 259.401L76.3828 259.405L76.3962 259.411C77.034 259.616 78.007 259.597 78.7178 259.163C79.4283 258.73 79.7493 258.127 79.9275 257.666C80.1342 257.13 80.202 256.675 80.2289 256.246C87.4447 258.719 110.697 265.607 149.9 266.039C190.08 266.539 213.419 258.164 219.99 255.454H219.99Z" fill="#03A967"/>
<path d="M222.125 272.583L221.053 272.904C221.155 273.147 221.262 273.358 221.374 273.538L221.543 273.809L221.829 274.133C222.127 274.51 222.529 274.828 223.034 275.086C222.75 275.171 222.449 275.186 222.157 275.129L221.682 275.009L221.163 274.784C220.563 274.506 220.108 274.009 219.797 273.295L210.348 276.121L209.707 273.977L218.807 271.254L218.402 270.485C218.195 270.119 217.845 269.795 217.352 269.514C217.074 269.335 216.669 269.232 216.136 269.206C215.929 269.2 215.626 269.227 215.226 269.289L214.616 269.398L213.224 269.771C212.219 270.09 211.539 270.192 211.183 270.075C210.836 269.955 210.594 269.667 210.457 269.211L209.856 267.201L210.467 267.486C210.67 267.58 211.11 267.682 211.785 267.792L212.165 267.795L212.588 267.742L213.153 267.631L213.502 267.527C214.341 267.275 214.873 267.165 215.096 267.196C215.538 267.141 215.918 267.145 216.238 267.205C216.661 267.253 217.045 267.382 217.39 267.59C217.726 267.772 218.129 268.06 218.598 268.455L219.351 269.413C219.467 269.573 219.758 270.055 220.222 270.861L221.496 270.48L222.125 272.584M218.574 277.603L217.494 279.605L215.566 278.576L216.584 276.563L218.574 277.603" fill="black"/>
<path d="M210.323 276.121L207.397 276.874C207.384 277.578 207.157 278.261 206.746 278.833C206.341 279.429 205.777 279.819 205.054 280.006C204.251 280.212 203.481 280.18 202.747 279.906C202.185 279.781 201.626 279.314 201.071 278.503L198.957 279.048L198.406 276.907L200.492 276.37C200.494 275.589 200.744 274.914 201.242 274.342C201.486 274.058 201.79 273.816 202.153 273.617C202.522 273.406 202.856 273.262 203.154 273.185C203.831 273.011 204.476 273.047 205.089 273.294C205.701 273.541 206.273 274.024 206.805 274.744L209.772 273.98L210.323 276.121ZM205.354 276.288C205.261 275.927 205.041 275.613 204.693 275.346C204.345 275.079 203.954 275.002 203.52 275.114C203.141 275.211 202.836 275.449 202.606 275.826C202.546 275.966 202.498 276.138 202.463 276.339C202.438 276.548 202.454 276.76 202.509 276.963C202.606 277.342 202.818 277.659 203.143 277.912C203.473 278.145 203.868 278.202 204.328 278.083C204.789 277.965 205.101 277.735 205.264 277.395C205.426 277.054 205.456 276.686 205.354 276.288" fill="black"/>
<path d="M198.977 279.163L190.523 280.833L191.456 285.554L191.061 285.646C190.887 285.681 190.784 285.711 190.75 285.737C190.22 285.841 189.867 285.882 189.691 285.86L189.422 285.87C189.339 285.887 189.254 285.879 189.175 285.848L188.931 285.839L188.666 285.792C188.252 285.768 187.92 285.701 187.67 285.589L187.168 285.431L186.535 285.186C185.864 284.919 185.285 284.539 184.798 284.046C184.357 283.591 183.946 282.978 183.565 282.208L180.889 282.736L180.461 280.568L183.206 280.026C183.065 279.312 183.097 278.559 183.302 277.768L183.6 276.896C183.72 276.587 183.869 276.306 184.047 276.052C184.311 275.658 184.762 275.175 185.4 274.601C185.766 274.387 186.368 274.087 187.205 273.703L187.023 272.784L186.169 271.997L188.446 269.879L189.112 273.255C189.433 273.192 189.608 273.167 189.639 273.18C189.749 273.158 189.878 273.161 190.026 273.189L190.473 273.214L191.09 273.307C192.209 273.485 193.186 273.957 194.022 274.723L194.553 275.317L194.728 275.554L195.015 275.996C195.279 276.467 195.469 276.995 195.585 277.58L198.549 276.995L198.977 279.163ZM193.581 277.976C193.299 276.549 192.428 275.652 190.968 275.284C190.327 275.268 189.928 275.266 189.769 275.278C189.613 275.309 189.523 275.336 189.5 275.36L190.15 278.654L193.581 277.976ZM188.147 279.05L187.485 275.701C186.945 275.808 186.488 276.045 186.115 276.414C185.125 277.227 184.764 278.311 185.031 279.665L188.146 279.05M189.092 283.839L188.575 281.218L185.693 281.787C185.878 282.245 186.099 282.596 186.357 282.84C186.578 283.043 186.988 283.295 187.589 283.594L188.321 283.835C188.577 283.865 188.836 283.867 189.092 283.839Z" fill="black"/>
<path d="M180.851 282.64L178.312 282.969L178.364 283.371C178.465 284.148 178.382 284.855 178.117 285.491C177.862 286.136 177.373 286.716 176.65 287.233C175.928 287.759 175.239 288.064 174.582 288.15C173.648 288.271 172.706 288.078 171.757 287.57L171.362 287.354L171.987 287.499L172.489 287.56L173.035 287.532C173.729 287.442 174.367 287.181 174.951 286.748C175.535 286.324 175.937 285.83 176.155 285.266C176.374 284.702 176.448 284.147 176.377 283.601L176.328 283.226L171.445 283.859L171.195 281.931L171.14 281.289L171.109 281.053C171.099 280.969 171.092 280.886 171.091 280.802C171.099 280.716 171.101 280.626 171.099 280.532C171.105 280.437 171.126 280.27 171.16 280.031C171.194 279.782 171.312 279.527 171.513 279.266C171.725 279.013 172.005 278.816 172.354 278.677L172.574 278.635L172.768 278.609L172.92 278.59L172.99 278.581C172.913 278.339 172.858 278.092 172.823 277.841C172.781 277.517 172.763 277.336 172.767 277.298L172.785 277.112C172.834 276.908 172.985 276.658 173.238 276.362C173.345 276.239 173.476 276.14 173.624 276.072L174.16 275.96L174.326 275.939L174.82 275.833L175.926 275.548C176.138 275.445 176.412 275.269 176.746 275.019L177.152 274.67L177.945 280.788L180.567 280.448L180.851 282.64M176.003 281.04L175.591 277.863C175.508 277.873 175.449 277.891 175.414 277.914L175.104 278.025C175.048 278.032 174.951 278.077 174.812 278.161L174.503 278.286C174.438 278.294 174.37 278.345 174.298 278.439C174.224 278.524 174.167 278.626 174.125 278.744L174.122 279.153C174.159 279.44 174.296 279.662 174.533 279.819C174.403 279.789 174.268 279.782 174.136 279.8C173.654 279.863 173.327 280.126 173.152 280.591C173.13 280.641 173.114 280.774 173.105 280.992L173.125 281.144L173.131 281.412L176.003 281.04M168.365 285.952C168.264 286.493 168.119 286.924 167.927 287.247C167.027 288.874 165.656 289.756 163.814 289.891C163.368 289.923 162.923 289.919 162.481 289.876L161.759 289.789L161.345 289.693C161.157 289.669 161.028 289.637 160.959 289.595L160.274 289.421L161.006 289.465C161.285 289.445 161.434 289.443 161.454 289.46C161.641 289.446 161.739 289.449 161.75 289.466C163.014 289.374 164.081 288.936 164.949 288.152C165.87 287.318 166.352 286.296 166.394 285.086L166.379 284.681C166.329 283.96 166.1 283.263 165.711 282.654C165.319 282.028 164.888 281.639 164.419 281.486L163.69 281.302C164.006 281.016 164.275 280.548 164.499 279.896L164.597 279.313L164.612 278.751C164.6 278.602 164.559 278.423 164.488 278.213L164.394 277.898L164.242 277.543L164.612 277.798C164.896 277.982 165.163 278.178 165.412 278.384C165.661 278.59 165.907 278.815 166.149 279.059C166.603 279.521 167.029 280.103 167.427 280.803C167.681 281.245 167.911 281.701 168.116 282.169C168.291 282.652 168.398 283.149 168.435 283.661L168.449 283.842L168.461 284.01L168.47 284.135C168.478 284.247 168.482 284.363 168.482 284.485C168.491 284.621 168.487 284.758 168.47 284.893C168.483 285.069 168.473 285.266 168.443 285.484L168.365 285.952M157.495 284.882L151.034 285.038L150.98 282.829L155.302 282.724L155.229 279.704L154.389 279.123L157.283 276.1L157.495 284.882ZM157.557 288.603L156.11 287.225L153.341 290.202L151.88 288.768L153.272 287.321L156.179 290.106L157.557 288.603Z" fill="black"/>
<path d="M147.301 272.754L145.83 271.164L142.603 274.273L141.106 272.626L142.683 271.113L145.75 274.339L147.301 272.754ZM151.048 285.08L140.826 284.821L140.894 282.136L140.904 281.717L140.961 281.145L141.012 280.754L141.148 280.365L141.253 280.088L141.444 279.743C141.596 279.454 141.791 279.19 142.023 278.96C142.808 278.169 143.727 277.786 144.781 277.813L145.172 277.837C145.396 277.842 145.54 277.864 145.604 277.903C145.763 277.907 145.86 277.933 145.896 277.98L146.284 278.131L146.325 276.494L145.561 275.719L148.623 273.628L148.391 282.802L151.104 282.87L151.048 285.08ZM146.168 282.745L146.234 280.13C145.904 279.879 145.52 279.748 145.082 279.737C144.541 279.724 144.061 279.912 143.64 280.302C143.221 280.683 143.003 281.149 142.99 281.7L142.965 282.665L146.167 282.745M133.165 271.518L132.144 272.017L130.902 284.04L128.898 283.833L130.508 268.248L133.165 271.518ZM126.47 283.524L121.629 282.888L121.916 280.697L124.788 281.074L126.077 271.24L125.159 270.498L128.513 267.947L126.47 283.524Z" fill="black"/>
<path d="M121.629 282.988L114.703 281.75L113.742 280.527L112.555 281.366L106.605 280.304L106.994 278.128L112.393 279.092L116.842 276.377L116.702 275.969L116.57 275.675C116.537 275.593 116.468 275.505 116.362 275.411C116.312 275.375 116.261 275.342 116.208 275.312C116.121 275.257 116.03 275.208 115.937 275.164L115.813 275.142L115.611 275.077C115.535 275.046 115.466 275 115.408 274.942L115.185 274.76L114.919 274.414L114.733 274.182L114.488 274.365L114.228 274.546L113.842 274.719L113.269 274.744C113.103 274.715 112.841 274.753 112.481 274.859L112.202 275.065L111.984 275.254L111.884 275.335L113.381 277.138L111.768 278.057L110.7 276.715C110.632 276.618 110.517 276.521 110.353 276.426C110.188 276.32 110.003 276.248 109.809 276.215C109.424 276.193 109.055 276.402 108.702 276.841L108.575 276.52L108.58 276.095C108.631 275.81 108.776 275.58 109.016 275.405C109.265 275.232 109.531 275.17 109.816 275.221L110.045 275.291L110.031 275.132L110.022 274.86C110.073 274.575 110.308 274.268 110.728 273.935C111.014 273.711 111.281 273.569 111.529 273.51L112.478 273.366C112.894 273.318 113.183 273.265 113.344 273.209C113.578 273.175 113.873 273.033 114.23 272.784L114.506 272.592L114.76 272.367L115.004 272.113L115.263 271.775C115.325 272.384 115.493 272.821 115.768 273.088L116.162 273.428L116.602 273.748L117.485 274.29L117.764 274.482C117.852 274.516 117.954 274.582 118.07 274.678C118.233 274.774 118.44 274.991 118.692 275.329C119.014 275.757 119.146 276.131 119.089 276.452C119.071 276.553 119.026 276.645 118.954 276.727L118.845 276.863L119.254 276.879C119.483 276.921 119.668 277.077 119.81 277.348C119.866 277.406 119.906 277.522 119.932 277.697C119.968 277.865 119.972 278.031 119.942 278.196C119.926 278.288 119.805 278.484 119.581 278.785C119.552 278.524 119.478 278.327 119.361 278.192C119.264 278.042 119.062 277.925 118.755 277.842C118.419 277.778 118.071 277.825 117.764 277.977L115.037 279.565L122.019 280.812L121.629 282.988Z" fill="black"/>
<path d="M106.619 280.243L104.52 279.757C104.415 280.211 104.198 280.754 103.87 281.387C103.607 281.9 103.333 282.297 103.049 282.575C101.706 283.949 100.131 284.427 98.323 284.007C97.487 283.814 96.6141 283.387 95.7046 282.726L95.4333 282.534L95.7739 282.613C97.0913 282.918 98.3495 282.879 99.5488 282.497C100.755 282.125 101.646 281.297 102.22 280.014L102.336 279.639C102.509 278.893 102.494 278.172 102.292 277.474C102.101 276.77 101.803 276.279 101.398 276.004L100.759 275.597C101.145 275.419 101.541 275.056 101.945 274.508L102.228 273.97L102.392 273.448L102.442 273.173C102.465 273.072 102.473 272.974 102.467 272.877L102.468 272.561C102.471 272.435 102.451 272.309 102.41 272.189L102.901 272.863L103.497 273.762L103.811 274.265C104.205 274.96 104.475 275.798 104.621 276.779L104.706 277.531L107.118 278.09L106.619 280.243ZM97.3057 265.012L96.2203 265.351L93.169 277.046L91.2199 276.538L95.175 261.377L97.3057 265.012ZM91.8053 263.937L90.8724 262.181L87.3253 264.168L86.3423 262.383L88.1235 261.414L90.0741 264.935L91.8053 263.937ZM88.8044 276.001C88.647 276.552 88.3884 277.07 88.0415 277.527C87.7055 277.983 87.2621 278.374 86.711 278.7C85.464 279.485 84.0303 279.642 82.4091 279.172C81.2445 278.835 80.2588 278.131 79.4521 277.063C78.5572 275.861 78.2916 274.634 78.6554 273.38C78.7512 273.048 78.9028 272.709 79.1103 272.361L79.5914 271.758L79.989 271.188C80.2276 270.869 80.3827 270.584 80.4555 270.333C80.4893 270.217 80.5055 270.11 80.5047 270.012C80.5332 269.914 80.4889 269.765 80.3719 269.566C80.2665 269.361 80.1241 269.232 79.9447 269.18C79.8446 269.154 79.7395 269.154 79.6391 269.179C79.1434 269.249 78.8228 269.535 78.6769 270.036L78.6219 269.976C78.4556 269.511 78.4402 269.045 78.5753 268.579C78.7308 268.042 79.0526 267.703 79.5398 267.562L79.9147 267.526L80.2699 267.556L80.2499 267.273L80.2938 266.82L80.4393 266.469C80.4947 266.378 80.5809 266.282 80.6979 266.18C80.8303 266.069 80.9791 265.979 81.139 265.914L82.0616 265.846L82.3591 265.874L82.1255 266.229L81.8507 266.776L81.8422 267.458V268.011C81.8253 268.404 81.7321 268.892 81.5635 269.474C81.5274 269.6 81.2218 270.118 80.6467 271.029C80.0721 271.941 79.7003 272.687 79.5317 273.269L79.412 273.934C79.3966 274.657 79.7122 275.361 80.3589 276.043L80.4928 276.184L80.7957 276.447C80.8265 276.475 80.92 276.536 81.0774 276.63C81.1502 276.68 81.2287 276.728 81.313 276.772L81.8326 277.039C81.9773 277.11 82.1794 277.183 82.4392 277.258C83.3436 277.52 84.2012 277.477 85.0106 277.13C85.2904 277.036 85.6171 276.829 85.9913 276.511L86.186 276.29L86.4119 275.963L86.5998 275.667C86.696 275.501 86.7549 275.383 86.7757 275.311L82.1135 273.96L82.6547 272.092L82.824 271.558L82.9056 271.276C82.9368 271.168 82.9872 271.062 83.0569 270.956C83.1439 270.737 83.271 270.537 83.4318 270.365C83.4653 270.317 83.5819 270.215 83.7828 270.059L84.2108 269.688C84.3597 269.576 84.5429 269.513 84.7612 269.498L85.1299 269.532L85.4505 269.581L85.6922 269.651L85.7334 269.459L85.7592 269.219L85.8488 268.91C85.9135 268.686 86.0351 268.435 86.213 268.156C86.4023 267.872 86.6656 267.666 87.0031 267.541L87.2683 267.53L87.6139 267.543L88.1039 267.612L88.6989 267.77C89.0392 267.868 89.4348 267.944 89.8855 267.997C90.3451 268.053 90.6842 268.039 90.9024 267.957L91.1179 267.917L88.8202 275.845L88.8044 276.001ZM87.3911 273.188L88.306 270.03L88.0596 270.075L87.5835 270.01C87.3953 269.956 87.2244 269.96 87.0705 270.021C86.823 270.105 86.6471 270.326 86.5432 270.685L86.4808 271.001C86.4812 271.099 86.5139 271.205 86.5774 271.321L86.303 271.212L86.0844 271.163C86.0394 271.15 85.9351 271.159 85.7711 271.189C85.6183 271.213 85.4189 271.315 85.1722 271.496L85.016 271.684L84.8358 272.054L84.7843 272.432L87.3911 273.188Z" fill="black"/>
<path d="M155.526 183.186L169.441 241.336H129.496L143.413 183.186H155.526Z" fill="#E3B209" stroke="#715803" stroke-width="0.629506"/>
<path d="M168.649 241.337L164.213 248.381L158.278 241.729L152.409 188.963L154.625 184.919L157.952 184.201L168.649 241.337ZM130.297 241.337L133.558 248.381L140.603 241.729L146.472 188.963L144.255 184.919L140.994 184.201L130.297 241.337ZM149.082 181.333L155.734 241.729L149.473 250.6L143.211 242.121L149.082 181.333Z" fill="#201B17" stroke="#201B17" stroke-width="0.00818358"/>
<path d="M183.058 172.723C185.275 176.441 197.342 190.987 197.342 190.987C200.212 198.947 211.104 205.924 211.104 205.924C212.212 211.469 224.018 219.621 224.018 219.621C226.954 227.32 239.476 234.559 239.476 234.559C246.521 244.671 255 250.603 255 250.603L246.912 71.6277C246.912 71.6277 246.129 61.3224 235.824 56.8874C225.519 52.452 218.867 56.8874 212.93 59.1043C207.061 61.3213 198.78 67.9748 191.537 69.41C184.167 70.9103 179.014 70.9103 149.47 62.0399C119.989 70.9103 114.837 70.9103 107.467 69.4104C100.226 67.9748 91.9432 61.3217 86.0075 59.1043C80.1372 56.8863 73.4841 52.4505 63.1784 56.8863C52.8081 61.3209 52.091 71.6266 52.091 71.6266L44 250.601C44 250.601 52.479 244.665 59.4581 234.555C59.4581 234.555 72.0462 227.316 74.9809 219.619C74.9809 219.619 86.7869 211.466 87.8961 205.921C87.8961 205.921 98.7884 198.942 101.593 190.985C101.593 190.985 113.725 176.44 115.942 172.718L183.058 172.723Z" fill="#E3B209"/>
<path d="M71.4128 57.5107C65.7438 57.4422 59.0711 61.1448 56.9219 65.5556C59.6014 63.9748 62.953 63.6996 65.7446 62.9907C69.1308 60.2438 73.0066 64.2577 75.3659 66.5324C77.3212 68.1693 78.9411 70.7157 80.8709 71.992C83.9038 72.6263 83.8657 76.9154 85.5704 79.0442C87.25 83.4723 92.0034 86.1369 93.9516 90.0558C97.6766 92.2958 102.008 93.6976 106.419 94.134C106.82 95.9084 106.636 98.2669 107.056 99.7518C109.852 99.9473 112.218 102.012 115.165 101.441C118.779 101.576 122.225 101.013 125.758 100.328C123.413 123.619 121.068 146.909 118.724 170.2L180.273 170.205L173.239 100.342C179.426 101.477 186.395 102.581 192.142 99.2757C191.197 96.3929 192.84 94.0251 195.66 93.5513C198.739 93.1083 201.659 92.2427 204.114 90.2933C206.013 89.9954 205.916 87.611 207.643 86.5914C211.24 83.2514 213.736 79.0539 215.525 74.5395C217.552 72.2999 220.13 70.5945 222.186 68.3083C225.542 65.3169 229.708 63.17 234.209 62.6443C234.381 64.0614 237.126 63.2105 238.242 64.063C239.642 64.4994 241.001 65.0602 242.319 65.7007C237.375 57.3856 225.663 55.4623 217.474 59.8754C206.574 63.8648 197.239 73.259 184.926 72.5909C172.77 72.4804 161.332 67.5115 149.708 64.8939C144.12 65.7265 138.883 68.2136 133.305 69.2431C122.181 72.5 109.307 74.996 98.7292 68.7093C89.9585 64.369 81.4729 57.8663 71.4128 57.5107Z" fill="#F6C314"/>
<path d="M225.431 61.5029C212.692 63.4231 203.136 74.4412 190.138 76.06C175.923 78.2127 162.592 71.1285 148.865 68.9327C134.059 72.5722 118.444 79.4905 103.069 74.7029C93.5319 71.6077 85.8646 64.4673 76.082 61.9983C79.4063 65.1112 82.6035 68.5902 85.9905 71.3933C88.3706 75.5358 89.6792 80.5193 93.7128 83.4518C95.7319 86.6444 98.6863 89.1604 102.537 89.603C105.037 90.8666 109.7 89.1311 110.104 92.7791C110.556 94.4779 109.525 97.6779 112.33 97.3403C117.353 98.8391 122.519 96.2242 127.437 96.7649C131.397 98.8306 128.672 103.829 128.866 107.175L122.9 166.423L176.098 166.428C173.728 142.888 171.356 119.348 168.988 95.8089C175.312 96.3639 182.169 99.3267 188.126 96.6102C188.769 91.4597 194.361 89.3621 198.866 88.9614C203.051 87.4284 205.451 83.3709 208.252 80.1583C211.103 75.0401 213.867 69.6471 218.851 66.2466C220.865 64.4685 223.176 62.7634 225.43 61.5029H225.431Z" fill="#F8C300"/>
<path d="M145.081 76.506C130.109 80.9234 113.425 85.8826 98.2109 79.639C100.849 82.979 105.012 84.091 109.059 84.2334C112.537 85.0636 115.8 87.7962 116.36 91.4592C122.048 90.6563 129.772 88.7154 133.825 94.1826C138.16 100.82 134.083 108.78 134.311 115.949L129.861 160.127L169.139 160.132C166.77 136.6 164.401 113.069 162.031 89.5375C169.214 88.1057 176.101 91.6147 183.243 91.3129C186.154 85.1548 193.575 84.0425 199.004 81.3764C201.198 79.5493 200.195 79.6725 198.074 80.5758C186.77 84.5255 174.513 82.7335 163.429 78.9716C157.564 77.5244 151.12 74.5412 145.081 76.506Z" fill="#F8C300"/>
<path d="M239.476 234.556C245.807 244.34 254.999 250.601 254.999 250.601L246.912 71.6269C246.912 71.6269 240.454 66.2131 234.323 65.8875V65.9529L239.476 234.556ZM219.062 75.1482C223.3 70.1909 227.345 66.7997 231.781 65.7559L236.581 232.693C232.628 229.744 228.454 228.425 224.018 219.619L219.062 75.1482ZM211.104 205.923L207.778 90.0844L208.365 89.1715C211.561 86.4977 214.04 83.8235 216.648 78.1484L216.976 77.3659C218.376 124.08 219.852 170.628 221.25 217.343C217.683 214.02 212.744 211.173 211.104 205.923ZM197.342 190.986L194.471 96.7372L194.667 96.3454C198.451 95.5629 201.385 95.3023 204.647 92.9537L205.17 92.6932L208.264 203.891C205.229 201.333 200.795 198.682 197.342 190.986ZM194.341 186.942L191.927 102.672L191.73 102.281C185.863 105.282 176.078 103.39 176.078 103.39L183.058 172.723C185.275 177.158 194.341 186.942 194.341 186.942Z" fill="#201B17" stroke="#201B17" stroke-width="0.00818358"/>
<path d="M59.4581 234.556C53.1972 244.34 44 250.601 44 250.601L52.088 71.6269C52.088 71.6269 58.5452 66.2131 64.6114 65.8875V65.9529L59.4581 234.556ZM79.9386 75.1482C75.6995 70.1909 71.8033 65.7559 67.2201 65.7559C65.594 121.412 63.9674 176.961 62.3405 232.615C67.3413 228.982 72.8452 224.023 74.9809 219.618L79.9386 75.1482ZM87.8961 205.923L91.2223 90.0844L90.5703 89.1715C87.4389 86.4977 84.8952 83.8235 82.3518 78.1484L81.9604 77.3659L77.4854 217.638C81.3057 214.434 85.8959 211.518 87.8961 205.923ZM101.593 190.986L104.463 96.7372L104.333 96.3454C100.55 95.5629 97.6145 95.3023 94.2879 92.9537L93.7668 92.6932L90.5564 203.97C90.5564 203.97 98.1156 199.272 101.593 190.986ZM104.659 186.942L107.072 102.672L107.268 102.281C113.138 105.282 122.921 103.39 122.921 103.39L115.942 172.723C113.725 177.158 104.659 186.942 104.659 186.942Z" fill="#201B17" stroke="#201B17" stroke-width="0.00818358"/>
<path d="M183.058 172.723C185.275 176.441 197.342 190.987 197.342 190.987C200.212 198.947 211.104 205.924 211.104 205.924C212.212 211.469 224.018 219.621 224.018 219.621C226.954 227.32 239.476 234.559 239.476 234.559C246.521 244.671 255 250.603 255 250.603L246.912 71.6277C246.912 71.6277 246.129 61.3224 235.824 56.8874C225.519 52.452 218.867 56.8874 212.93 59.1043C207.061 61.3213 198.78 67.9748 191.537 69.41C184.167 70.9103 179.014 70.9103 149.47 62.0399C119.989 70.9103 114.837 70.9103 107.467 69.4104C100.226 67.9748 91.9432 61.3217 86.0075 59.1043C80.1372 56.8863 73.4841 52.4505 63.1784 56.8863C52.8081 61.3209 52.091 71.6266 52.091 71.6266L44 250.601C44 250.601 52.479 244.665 59.4581 234.555C59.4581 234.555 72.0462 227.316 74.9809 219.619C74.9809 219.619 86.7869 211.466 87.8961 205.921C87.8961 205.921 98.7884 198.942 101.593 190.985C101.593 190.985 113.725 176.44 115.942 172.718L183.058 172.723Z" stroke="#705804" stroke-opacity="0.99" stroke-width="0.629506"/>
<path d="M170.078 82.1172C169.317 80.5353 168.233 77.7072 167.927 76.0595C170.862 79.0605 179.013 79.8926 181.947 79.7775C175.298 75.9506 168.64 54.6661 169.423 36.9898C170.143 19.2493 166.879 12.2698 164.268 9.66148C160.942 6.33492 150.245 3.40017 143.201 3.00875C139.223 2.81169 139.874 6.00969 139.874 6.00969C132.504 4.11799 125.134 3.40017 121.808 5.61788C118.676 7.70473 118.025 18.1413 120.307 16.3146C125.852 11.8792 130.679 15.9232 134.005 20.75C136.94 24.9891 136.744 36.9906 132.504 51.0143C128.069 65.7546 115.938 80.4953 115.938 80.4953C122.525 80.4953 131.787 74.625 131.787 74.625L129.57 83.8215C136.549 80.4953 142.093 75.3421 142.093 75.3421L148.746 82.3208C150.962 79.3861 155.399 75.3421 155.399 75.3421C155.399 75.3421 161.437 82.1076 170.078 82.1172Z" fill="#E3B209"/>
<path d="M142.574 4.26758C139.651 3.86768 142.635 8.73647 140.166 7.37744C134.307 6.23819 127.732 3.8927 122.181 6.95407C120.555 9.17332 120.126 12.0973 120.253 14.7934C124.452 11.4622 130.438 13.7631 133.306 17.7647C138.812 23.7366 137.284 32.6736 136.385 40.0018C134.339 54.3519 127.423 67.4691 118.766 78.9094C124.457 77.2783 131.296 75.2815 133.395 69.0622C137.657 59.2191 139.573 41.9844 142.499 36.6502C145.116 47.6603 137.657 71.1009 134.031 74.3343C132.164 76.1741 132.089 79.1823 131.505 81.3993C135.744 78.6485 141.282 76.2757 142.252 70.753C144.652 64.4208 146.009 37.9369 148.36 36.8046C151.846 41.4144 147.08 71.5173 143.855 75.3635C145.636 76.0594 147.522 81.3816 149.249 79.7466C150.501 77.9788 152.925 76.624 153.622 74.7869C151.848 62.8494 151.409 42.3662 153.224 36.6733C157.159 42.7241 154.703 59.0328 156.985 75.1091C160.107 77.8418 164.281 80.0691 168.231 80.4859C162.979 75.5329 156.483 48.0856 159.73 36.7234C163.922 48.5085 163.327 64.9377 169.625 75.7776C171.961 77.0239 176.066 78.0581 177.853 77.8372C171.052 67.7235 169.057 55.1413 168.178 43.2141C167.803 32.6463 169.803 21.194 164.242 11.5842C159.773 6.82514 152.635 5.81789 146.562 4.61782C145.24 4.44539 143.909 4.25603 142.574 4.26758Z" fill="#F6C314"/>
<path d="M143.111 6.2002C143.525 8.00915 141.65 10.1949 139.809 9.21076C135.262 8.32014 130.588 6.50194 125.915 7.58424C124.443 7.95373 122.908 8.65114 122.666 10.3015C122.6 10.6691 121.826 12.2129 122.664 11.7683C127.341 10.4813 132.271 13.1628 135.09 16.858C138.077 20.5441 139.328 25.3667 139.06 30.0592C139.024 46.3318 132.746 62.0778 123.497 75.2743C128.049 73.754 131.959 70.1546 132.885 65.3378C137.016 54.2612 136.922 41.7312 143.166 31.4055C144.205 34.8541 144.79 38.4412 144.815 42.0461C145.357 39.8441 145.675 37.4236 146.935 35.5134C147.749 34.3772 149.482 34.7113 150.014 35.9356C150.522 36.7735 150.808 37.7273 150.995 38.6837C151.449 37.0891 151.006 34.9927 152.291 33.7503C153.64 33.1379 154.433 34.9923 154.951 35.9172C156.149 38.4705 156.676 41.2863 157.062 44.064C156.796 39.46 158.181 35.0004 159.422 30.6277C165.765 44.4066 163.948 60.5044 170.795 74.0585C171.904 74.5784 173.093 74.9714 174.262 75.2562C166.983 61.8334 165.926 46.1428 166.259 31.1704C166.232 25.5322 166.177 19.5545 163.575 14.3982C162.503 11.9685 160.21 10.4947 157.936 9.49327C153.3 7.37371 148.048 6.60779 143.111 6.2002ZM157.519 52.5388C157.458 57.5053 157.547 62.4419 158.03 67.3815C158.199 69.7351 157.761 72.5982 159.452 74.4849C160.925 75.5307 162.43 76.5625 164.117 77.1814C160.56 69.2728 158.399 60.7634 157.516 52.1447L157.518 52.4114L157.519 52.5388ZM143.009 56.0836C141.707 60.987 140.311 65.9058 138.327 70.5795C137.21 73.0004 135.429 75.0392 134.156 77.3519C136.989 75.7535 139.574 73.4265 140.552 70.2258C142.108 65.5186 142.092 60.4851 143.112 55.6591L143.049 55.9181L143.009 56.0836ZM150.266 57.6347C149.404 62.9576 148.369 68.3349 146.589 73.4111C145.627 74.6308 147.042 75.6661 147.654 76.5806C147.881 77.0163 148.61 78.144 148.938 77.0952C150.393 75.7604 152.588 73.9461 151.425 71.6803C150.977 66.8365 150.547 61.9889 150.338 57.1282L150.3 57.3918L150.266 57.6347Z" fill="#F8C300"/>
<path d="M145.845 10.4428C143.848 13.7928 138.804 13.4637 136.121 12.3672C140.081 15.9832 142.066 21.5421 142.993 26.4374C145.583 26.2681 146.967 29.3599 147.148 31.2065C149.759 31.8685 151.698 28.9588 154.369 30.1673C156.794 31.4544 156.021 26.198 157.155 24.7882C157.875 19.8659 159.037 19.6142 160.667 24.2979C161.601 26.116 162.893 29.6597 162.385 25.7747C162.223 20.2954 160.489 13.5538 154.438 12.0474C151.652 11.1406 148.641 10.6237 145.845 10.4424V10.4428Z" fill="#F8C300"/>
<path d="M148.981 17.872C147.426 18.4009 144.855 16.2093 145.905 18.5856C146.956 20.9615 147.99 24.5371 150.438 25.3761C152.887 26.2152 152.153 22.0242 152.922 20.4889C153.692 18.9532 155.392 17.7373 153.275 17.0103C151.157 16.2836 150.536 17.3428 148.981 17.872Z" fill="#F8C300"/>
<path d="M135.771 26.2941C135.444 23.8805 134.858 21.9896 134.01 20.7499C130.684 15.923 125.857 11.879 120.312 16.3145C120.312 16.3145 122.204 10.4442 126.248 10.2487C129.378 10.0516 136.489 12.5961 142.75 23.294C142.75 23.294 138.119 22.2501 137.01 23.2285C134.923 25.0544 135.771 26.2941 135.771 26.2941Z" fill="#201B17" stroke="#201B17" stroke-width="0.00818358"/>
<path d="M119.724 9.07476C120.18 7.57447 120.898 6.20467 121.811 5.61772C125.137 3.40078 132.507 4.11705 139.878 6.00953C139.878 6.00953 139.226 2.81345 143.204 3.00859C150.248 3.40001 160.946 6.33476 164.272 9.66132C165.054 10.5092 165.967 11.7482 166.75 13.6395H166.624C164.99 11.3571 160.362 11.4872 159.25 11.6177C157.489 11.8136 156.38 11.7482 154.036 12.3355C152.924 12.5965 151.231 12.9228 150.318 13.6395C149.6 14.2268 149.014 16.3791 147.905 16.3791C146.144 16.3791 146.274 15.9222 145.818 15.4011C145.23 14.6829 144.905 13.6395 144.318 13.7053C142.491 14.0317 139.557 12.5968 135.838 9.66132C132.119 6.7258 130.685 6.00876 125.858 6.33476C121.098 6.7258 119.598 9.39998 119.598 9.39998L119.724 9.07476Z" fill="#201B17" stroke="#201B17" stroke-width="0.00818358"/>
<path d="M146.992 13.3799C148.101 13.3799 148.948 12.532 148.948 11.4236C148.948 10.3151 148.1 9.4668 146.992 9.4668C145.949 9.4668 145.035 10.3147 145.035 11.4236C145.035 12.532 145.949 13.3799 146.992 13.3799Z" fill="#F6C314" stroke="#201B17" stroke-width="0.00818358"/>
<path d="M139.451 54.0994C137.653 61.8861 134.944 70.651 131.559 74.416L132.026 74.8367C135.62 70.8396 138.259 62.0596 140.065 54.2415C141.87 46.4225 142.488 39.5358 142.488 39.5358C142.488 39.5358 141.249 46.3132 139.451 54.0994ZM146.726 53.7173C145.765 61.7279 144.176 70.8662 141.822 75.1919L142.375 75.4933C144.847 70.9489 146.388 61.8268 147.352 53.7923C148.315 45.7578 148.359 38.8184 148.359 38.8184C148.359 38.8184 147.686 45.707 146.726 53.7173ZM153.492 55.7117C153.606 59.8192 153.777 64.0876 154.034 67.6574C154.291 71.2272 154.619 74.0692 155.107 75.449L155.7 75.2385C155.276 74.0415 154.918 71.1672 154.662 67.6131C154.406 64.0591 154.235 59.7957 154.121 55.6932C153.972 50.4365 153.791 45.1806 153.578 39.9261C153.578 39.9261 153.263 47.496 153.492 55.7117H153.492ZM161.386 55.3426C162.547 62.8679 164.465 71.5382 167.665 76.238L168.185 75.8839C165.124 71.3877 163.164 62.7393 162.008 55.2468C160.853 47.7542 160.164 41.4271 160.164 41.4271C160.164 41.4271 160.226 47.8174 161.386 55.3426Z" fill="#705804"/>
<path d="M170.078 82.1172C169.317 80.5353 168.233 77.7072 167.927 76.0595C170.862 79.0605 179.013 79.8926 181.947 79.7775C175.298 75.9506 168.64 54.6661 169.423 36.9898C170.143 19.2493 166.879 12.2698 164.268 9.66148C160.942 6.33492 150.245 3.40017 143.201 3.00875C139.223 2.81169 139.874 6.00969 139.874 6.00969C132.504 4.11799 125.134 3.40017 121.808 5.61788C118.676 7.70473 118.025 18.1413 120.307 16.3146C125.852 11.8792 130.679 15.9232 134.005 20.75C136.94 24.9891 136.744 36.9906 132.504 51.0143C128.069 65.7546 115.938 80.4953 115.938 80.4953C122.525 80.4953 131.787 74.625 131.787 74.625L129.57 83.8215C136.549 80.4953 142.093 75.3421 142.093 75.3421L148.746 82.3208C150.962 79.3861 155.399 75.3421 155.399 75.3421C155.399 75.3421 161.437 82.1076 170.078 82.1172Z" stroke="#705804" stroke-width="0.629506"/>
<path d="M117.383 143.24L89.3359 243.555C89.3359 243.555 111.513 251.704 128.471 250.205L142.494 177.874L117.383 143.24Z" fill="#E3B209"/>
<path d="M92.4023 241.925C104.519 242.141 102.631 245.243 104.642 245.205C107.526 245.151 113.564 247.461 114.711 246.98C118.44 245.415 123.465 247.899 126.369 247.806L139.809 178.469L118.4 148.938L92.4023 241.925Z" fill="#F6C314"/>
<path d="M121.624 157.717C122.083 161.518 121.224 165.58 121.851 169.181C122.582 167.315 125.897 165.363 126.429 168.429C127.103 171.316 126.125 174.893 123.303 176.264C124.175 180.099 123.418 185.028 124.864 188.179C129.284 184.024 130.726 177.832 130.022 171.956C130.812 172.028 132.707 175.781 133.735 177.575C134.934 179.577 135.438 182.052 134.867 184.284C135.821 188.689 136.048 184.224 136.596 181.815C138.277 177.608 133.231 174.89 131.588 171.419C128.279 166.882 124.873 162.102 121.624 157.717ZM118.341 176.209C117.448 180.546 115.219 184.637 112.179 187.833C114.321 193.072 112.812 199.02 114.193 204.466C117.074 201.487 118.408 197.472 120.321 193.88C117.021 188.733 117.189 181.973 119.13 176.45C118.877 176.433 118.368 175.905 118.342 176.209H118.341ZM130.135 191.631C128.891 193.359 126.59 194.784 125.785 196.464C127.873 201.086 127.805 206.289 129.309 211.078C131.417 207.31 133.824 202.676 131.387 198.424C130.666 196.338 130.531 193.119 130.135 191.631ZM107.763 205.003C104.847 207.418 103.187 210.664 102.665 214.4C101.861 217.749 101.9 221.411 102.582 224.664C106.672 221.305 110.577 216.404 110.667 211.028C108.63 209.914 108.296 206.624 107.763 205.003ZM121.62 205.008C120.169 207.782 117.786 210.144 115.086 211.564C116.647 216.514 116.484 221.777 117.428 226.842C119.609 223.47 122.315 220.369 124.683 217.238C124.118 214.644 122.594 211.438 122.227 208.487C121.96 207.399 121.819 205.815 121.62 205.008ZM110.705 225.556C109.331 227.316 107.665 228.866 105.738 230.004C107.764 233.998 107.833 239.08 109.445 242.913C111.527 240.381 112.91 237.025 113.961 234.096C111.509 232.095 111.275 228.352 110.864 225.346L110.705 225.556ZM123.465 229.204C122.546 231.171 120.428 232.607 119.33 234.141C119.592 236.588 118.554 239.204 120.345 241.268C121.061 242.332 120.454 245.213 121.985 245.203C125.532 242.869 126.818 237.633 124.537 234.004C123.997 232.499 123.722 230.458 123.465 229.204ZM96.7734 235.643C97.2649 236.74 98.6648 231.764 99.1489 230.618C97.5902 228.443 97.5617 234.904 96.7734 235.643Z" fill="#F8C300"/>
<path d="M127.633 175.622C126.312 176.944 125.754 178.242 126.282 180.153C126.18 183.309 127.304 178.974 127.444 177.712C127.524 177.139 127.641 176.226 127.633 175.622ZM115.385 187.899C114.451 189.631 116.328 191.644 115.895 193.613C115.814 196.589 116.103 197.363 117.272 194.32C116.949 192.451 115.622 189.635 115.385 187.899ZM106.608 210.365C105.195 213.059 104.663 216.179 104.648 219.063C106.4 216.85 109.558 212.62 106.608 210.365ZM120.07 211.083C118.654 212.069 117.581 212.996 118.434 214.777C118.812 216.486 118.84 218.927 119.249 220.104C120.94 218.374 122.652 216.281 121.028 213.906C120.661 213.079 120.457 211.596 120.07 211.083ZM109.047 230.714C108.761 232.042 110.149 234.133 110.167 235.81C110.311 237.851 111.663 234.093 110.364 233.664C109.746 232.856 109.534 231.162 109.047 230.714ZM122.212 234.567C121.232 236.279 121.737 239.251 122.796 240.261C123.382 238.409 123.007 236.174 122.212 234.567Z" fill="#F8C300"/>
<path d="M117.717 161.081C116.33 163.015 114.759 164.804 112.941 167.569C115.135 166.213 116.657 164.521 118.106 162.53C117.994 163.742 117.869 164.506 117.864 166.557C117.86 168.195 117.944 169.863 118.233 171.227C118.377 171.908 118.57 172.515 118.861 173.022C119.152 173.528 119.559 174.027 120.148 174.113L120.157 174.114L120.164 174.117C122.52 174.922 124.292 172.399 124.029 170.505C122.908 171.679 122.04 173.251 120.468 172.891C120.309 172.855 120.14 172.72 119.953 172.395C119.764 172.066 119.592 171.567 119.465 170.964C119.209 169.76 119.119 168.151 119.123 166.561C119.131 163.38 119.288 163.028 119.251 161.262C119.238 160.653 119.131 159.439 119.131 159.439C119.131 159.439 118.138 160.494 117.717 161.081ZM112.076 181.635C110.799 183.756 110.024 184.671 109.524 185.307C108.881 182.763 108.877 180.562 108.506 177.875C107.736 180.779 107.405 184.333 108.729 187.033L109.165 187.886L109.775 187.146C109.775 187.146 111.465 185.091 113.154 182.285C114.842 179.478 116.57 175.928 115.941 172.726C115.311 175.457 113.713 178.915 112.075 181.635H112.076ZM128.486 187.695C126.695 189.974 124.876 191.717 124.074 192.473C122.412 190.711 121.69 187.525 121.527 184.599C121.351 181.446 121.094 178.658 121.094 178.658C121.094 178.658 120.087 181.379 120.27 184.669C120.453 187.958 121.145 191.803 123.624 193.881L124.052 194.239L124.459 193.858C124.91 193.436 127.342 191.188 129.475 188.474C131.243 186.058 133.609 182.735 132.116 180.092C131.901 183.171 130.082 185.652 128.486 187.695ZM136.256 200.444C136.19 200.367 136.155 200.39 136.084 200.278C135.83 199.879 135.572 199.285 135.342 198.574C134.882 197.153 134.519 195.266 134.248 193.398C133.707 189.661 132.899 186.027 132.899 186.027C132.899 186.027 132.451 189.765 133.003 193.578C133.279 195.484 133.645 197.417 134.145 198.961C134.395 199.734 134.675 200.41 135.022 200.955C135.368 201.499 135.798 201.95 136.403 202.098L136.93 202.226L137.135 201.726C137.811 199.79 138.186 198.051 138.052 195.62C137.294 197.349 136.81 198.995 136.256 200.444ZM104.264 203.315C103.128 204.618 102.27 205.263 101.655 205.657L101.101 201.883L100.281 204.3L100.603 207.634L101.395 207.278C101.395 207.278 103.202 206.449 105.214 204.141C107.225 201.834 109.496 198.02 110.006 191.899C108.298 197.583 106.134 201.171 104.264 203.315Z" fill="#715803"/>
<path d="M109.792 198.914C109.904 201.268 110.116 203.66 110.524 205.577C110.728 206.535 110.976 207.375 111.311 208.053C111.646 208.731 112.077 209.296 112.741 209.517L112.752 209.521L112.763 209.524C113.139 209.634 113.438 209.549 113.764 209.43C114.089 209.312 114.438 209.128 114.82 208.878C115.584 208.38 116.473 207.618 117.382 206.59C119.201 204.535 121.095 201.409 121.419 197.115C119.917 200.909 118.126 203.849 116.439 205.756C115.596 206.709 114.777 207.403 114.133 207.824C113.81 208.034 113.529 208.175 113.332 208.246C113.146 208.314 113.061 208.292 113.13 208.313C112.962 208.253 112.697 208.015 112.441 207.496C112.182 206.971 111.945 206.212 111.755 205.315C111.373 203.521 111.159 201.172 111.051 198.854C110.832 194.219 110.397 189.68 110.397 189.68C110.397 189.68 109.571 194.206 109.792 198.914ZM133.029 209.178C132.209 211.1 131.296 212.974 130.445 214.229C130.019 214.857 129.602 215.326 129.283 215.558C128.967 215.788 128.867 215.783 128.746 215.724C128.573 215.634 128.271 215.325 127.982 214.796C127.691 214.264 127.402 213.537 127.133 212.694C126.595 211.009 126.133 208.857 125.765 206.749C125.029 202.533 124.028 198.549 124.028 198.549C124.028 198.549 123.777 202.687 124.524 206.966C124.898 209.106 125.363 211.295 125.932 213.077C126.217 213.968 126.525 214.757 126.878 215.401C127.23 216.044 127.614 216.564 128.176 216.852L128.182 216.854L128.187 216.856C128.797 217.155 129.5 216.958 130.024 216.576C130.549 216.195 131.016 215.629 131.486 214.936C132.427 213.549 133.352 211.632 134.187 209.673C135.858 205.754 136.552 201.484 136.552 201.484C136.552 201.484 134.668 205.334 133.029 209.178ZM119.653 228.073C118.937 229.067 118.177 229.962 117.511 230.526C117.178 230.808 116.868 231.005 116.629 231.1C116.389 231.195 116.25 231.191 116.15 231.156L116.141 231.153L116.134 231.15C116.228 231.181 115.967 230.994 115.758 230.482C115.549 229.969 115.34 229.216 115.152 228.321C114.775 226.532 114.47 224.17 114.235 221.829C113.764 217.149 112.941 212.575 112.941 212.575C112.941 212.575 112.507 217.229 112.982 221.957C113.219 224.32 113.526 226.708 113.92 228.581C114.117 229.517 114.332 230.323 114.591 230.957C114.849 231.589 115.098 232.131 115.74 232.343C116.192 232.5 116.67 232.438 117.094 232.269C117.522 232.099 117.923 231.825 118.324 231.486C119.125 230.808 119.923 229.852 120.675 228.808C122.178 226.721 122.953 224.534 123.311 222.88C122.335 224.272 121.085 226.085 119.653 228.073ZM129.03 235.08C128.706 234.622 128.361 233.965 128.091 232.972C127.695 231.511 127.42 229.65 127.239 227.831C126.876 224.193 126.246 220.727 126.246 220.727C126.246 220.727 125.615 224.239 125.986 227.955C126.172 229.813 126.448 231.724 126.876 233.302C127.305 234.881 127.826 235.929 128.894 236.746C129.102 236.905 129.489 236.764 129.656 236.563C130.874 235.097 132.116 230.319 132.116 230.319L129.03 235.08ZM93.4167 238.567C93.5583 239.744 93.7669 240.949 94.1029 241.953C94.4378 242.954 94.8708 243.849 95.781 244.147C96.3449 244.341 96.9057 244.066 97.2994 243.704C97.6958 243.339 98.0415 242.842 98.3886 242.243C99.0841 241.046 99.7611 239.436 100.371 237.805C101.59 234.542 101.917 231.029 101.917 231.029C101.917 231.029 100.385 234.169 99.1904 237.365C98.5938 238.962 97.9252 240.533 97.2994 241.611C96.9865 242.15 96.6778 242.564 96.4461 242.777C96.2144 242.99 96.1779 242.955 96.1906 242.96L96.1829 242.957L96.1744 242.955C95.9819 242.893 95.5847 242.414 95.2969 241.553C95.0086 240.692 94.8015 239.547 94.6656 238.416C94.3947 236.157 93.765 233.967 93.765 233.967C93.765 233.967 93.1338 236.212 93.4167 238.567ZM113.426 241.416C112.566 242.955 111.589 244.403 110.683 245.383C110.23 245.874 109.794 246.245 109.431 246.454C109.073 246.662 108.823 246.695 108.66 246.658C108.511 246.616 108.261 246.44 107.99 246.053C107.716 245.663 107.433 245.093 107.171 244.413C106.647 243.054 106.195 241.259 105.836 239.484C105.118 235.936 104.135 232.533 104.135 232.533C104.135 232.533 103.868 236.108 104.601 239.734C104.968 241.546 105.425 243.388 105.996 244.866C106.281 245.605 106.592 246.254 106.958 246.776C107.325 247.299 107.757 247.725 108.343 247.882L108.351 247.884L108.358 247.885C108.945 248.027 109.531 247.852 110.062 247.545C110.592 247.238 111.099 246.788 111.607 246.238C112.623 245.138 113.632 243.629 114.525 242.029C115.728 239.408 117.633 236.611 116.658 233.968C115.987 236.647 114.56 239.37 113.426 241.416V241.416ZM124.8 246.174C123.315 247.651 121.616 248.397 120.47 248.098L120.462 248.097L120.454 248.094C120.224 248.04 119.827 247.659 119.483 246.948C118.609 244.88 118.258 242.849 117.375 240.618C117.128 243.116 117.307 245.307 118.35 247.498C118.763 248.351 119.287 249.108 120.161 249.316C122.013 249.794 124.028 248.718 125.688 247.066C127.35 245.413 128.698 243.107 128.464 240.619C127.511 242.567 126.284 244.697 124.8 246.174ZM98.2955 219.713C98.3902 221.713 98.5749 223.742 98.9348 225.366C99.1145 226.178 99.3343 226.89 99.638 227.468C99.942 228.047 100.353 228.541 100.972 228.706L100.98 228.709L100.988 228.71C101.974 228.946 103.036 228.635 104.107 228.058C105.179 227.481 106.28 226.611 107.329 225.558C109.426 223.452 111.315 220.629 111.505 217.726C110.194 219.978 108.399 222.699 106.436 224.67C105.454 225.655 104.431 226.455 103.511 226.951C102.597 227.443 101.808 227.604 101.293 227.486C101.178 227.453 100.971 227.297 100.753 226.883C100.534 226.466 100.33 225.842 100.164 225.094C99.8335 223.6 99.6461 221.616 99.5533 219.654C99.3674 215.729 98.9171 211.856 98.9171 211.856C98.9171 211.856 98.1061 215.712 98.2955 219.713Z" fill="#715803"/>
<path d="M117.379 143.24L89.332 243.555C89.332 243.555 111.509 251.704 128.467 250.205L142.49 177.874L117.379 143.24Z" stroke="#705803" stroke-opacity="0.992" stroke-width="0.629506"/>
<path d="M72.7663 241.338C71.266 243.49 73.4833 246.491 74.5918 247.991C75.7002 249.49 94.8771 254.249 105.965 256.139C119.336 258.357 137.011 259.535 142.099 260.187C145.033 260.514 146.926 257.97 146.926 255.033C146.926 250.928 143.599 250.206 141.773 250.206C141.773 250.206 139.555 249.815 139.555 251.315C139.555 251.315 137.664 249.492 135.837 249.492C134.011 249.492 132.512 250.209 132.512 251.709C132.512 251.709 131.077 249.099 129.185 248.708C127.359 248.38 124.75 248.708 124.424 250.208C124.424 250.208 122.206 249.817 120.314 248.708C118.488 247.598 115.944 247.598 114.444 249.099C114.444 249.099 110.4 247.598 108.509 247.273C106.682 246.881 103.03 246.164 102.638 247.601C102.638 247.601 101.53 244.666 99.7036 244.338C97.8119 243.946 93.4415 242.122 91.5506 243.946C91.5506 243.946 90.1161 241.729 89.0069 241.729C87.8976 241.729 85.2889 241.011 84.8982 242.12C84.8982 242.12 83.4634 239.511 80.1364 239.12C76.8095 238.794 74.5918 238.794 72.7663 241.338Z" fill="#E3B209" stroke="#715803" stroke-width="0.629506"/>
<path d="M80.385 243.506L80.5093 243.57L80.6409 243.521C81.4365 243.221 81.8864 242.738 82.013 242.19C82.1397 241.642 81.9642 241.094 81.7128 240.614C81.2105 239.654 80.348 238.888 80.348 238.888L79.9266 239.355C79.9266 239.355 80.7275 240.089 81.1547 240.905C81.3683 241.313 81.4742 241.723 81.3995 242.048C81.3291 242.352 81.0878 242.637 80.5093 242.88C80.2834 242.768 78.9628 242.133 77.2031 242.447C78.9397 242.762 80.385 243.506 80.385 243.506V243.506ZM91.4924 245.875C91.4208 245.538 91.3892 245.184 91.4269 244.895C91.4654 244.606 91.5616 244.322 91.7468 244.186L91.3742 243.679C91.0209 243.939 90.855 244.415 90.8026 244.813C90.7503 245.211 90.7976 245.623 90.8765 246.003C90.9181 246.205 90.9435 246.2 90.997 246.376C90.0294 245.873 88.6508 246.097 87.8991 246.492C88.8555 246.624 89.7238 246.495 90.596 246.813C91.2025 247.035 91.4069 247.255 91.9819 247.789C91.7183 246.983 91.6105 246.431 91.4924 245.875ZM98.8163 247.868L98.9826 247.976L99.1508 247.873C99.6762 247.553 99.9483 247.084 100.003 246.612C100.058 246.139 99.9244 245.678 99.7424 245.269C99.3779 244.452 98.7844 243.811 98.7844 243.811L98.321 244.236C98.321 244.236 98.8575 244.83 99.167 245.525C99.3217 245.872 99.4121 246.236 99.3771 246.539C99.3471 246.799 99.1747 247.013 98.9025 247.221C97.7375 246.507 96.5894 246.368 95.661 247.276C96.8488 246.863 97.8499 247.34 98.8167 247.868H98.8163ZM120.823 250.873C120.555 250.26 120.337 249.653 120.283 249.28C120.258 249.113 120.281 249.032 120.284 249.013C120.295 249.013 120.288 249.011 120.313 249.017L120.398 248.434C120.267 248.405 120.183 248.367 120.052 248.411C119.92 248.453 119.803 248.553 119.738 248.665C119.608 248.889 119.624 249.12 119.66 249.37C119.734 249.871 119.969 250.492 120.247 251.126C120.513 251.735 120.619 251.881 120.868 252.356C119.109 251.806 117.426 251.754 115.554 252.035C117.36 252.501 118.99 252.355 120.73 252.964C120.997 253.061 121.204 253.172 121.331 253.275C121.366 253.338 121.541 253.691 121.541 253.691L122.129 254.724C122.129 254.724 122.208 253.868 122.109 253.458C121.881 252.523 121.36 252.098 120.823 250.873ZM129.307 249.849C129.004 249.313 128.634 248.819 128.204 248.379L127.764 248.829C127.764 248.829 128.328 249.384 128.757 250.155C129.187 250.926 129.455 251.846 129.251 252.817C130.154 251.898 129.788 250.712 129.307 249.849Z" fill="#715803"/>
<path d="M77.4784 240.233C76.2825 239.683 72.9136 242.119 74.2907 242.061C75.9746 241.288 78.2608 240.853 79.9201 241.283C79.4093 240.202 78.6038 240.122 77.4784 240.233ZM83.304 242.113C82.9684 244.736 79.9809 245.385 78.0722 243.951C76.6308 244.076 73.4409 241.219 73.5537 243.37C73.9982 246.865 77.2063 248.287 80.2176 248.875C93.8752 252.82 107.76 255.623 121.953 256.957C121.411 254.155 119.149 253.496 116.679 253.534C114.582 253.171 109.222 251.586 114.034 251.161C115.425 250.531 117.396 250.688 118.675 250.568C118.754 248.233 115.617 249.233 114.733 250.541C111.237 249.339 107.59 247.803 103.799 248.103C102.98 253.527 102.07 248.531 101.01 247.626C100.14 249.578 98.3518 249.361 96.7742 248.392C92.9103 249.559 92.1386 248.867 92.4589 248.274C90.7942 249.762 90.2142 247.256 88.1285 247.787C83.264 247.708 83.3317 246.803 87.7509 245.164C88.9664 245.058 90.6865 244.273 89.15 243.107C87.4527 242.634 85.1133 242.241 85.0791 244.855C84.4844 243.986 83.9956 242.812 83.304 242.113ZM93.5577 244.427C91.5205 245.001 93.7932 249.464 94.824 246.338C95.265 245.277 97.6883 245.668 97.4196 245.114C96.2688 244.622 94.8344 244.375 93.5577 244.427ZM126.957 249.922C125.057 249.726 125.754 252.649 123.755 251.353C121.178 250.241 123.556 252.356 123.416 253.826C122.622 256.87 124.139 257.758 127.21 257.494C132.706 257.686 138.313 259.095 143.757 258.706C147.221 256.834 145.685 250.526 141.361 251.425C140.535 253.819 140.464 254.26 138.085 251.728C136.486 250.003 132.508 250.549 133.652 253.673C134.072 258.848 131.833 251.813 131.007 252.093C130.459 254.161 128.359 255.345 127.202 257.051C127.294 254.773 129.18 251.68 126.957 249.922Z" fill="#F6C314"/>
<path d="M76.835 245.531C78.5493 247.04 81.053 247.492 83.1086 247.853C82.7257 247.04 83.2314 246.042 83.5678 245.459C82.9043 245.659 82.4393 246.416 81.6253 246.438C79.9372 246.784 78.2783 246.069 76.7461 245.449L76.835 245.531ZM105.767 249.894C104.634 250.016 105.173 251.599 104.202 252.042C102.906 252.949 101.266 251.769 100.61 250.598C98.5964 251.53 96.3875 249.764 94.41 250.769C100.292 252.112 106.225 253.235 112.198 254.08C111.306 253.51 109.947 252.541 110.671 251.408C110.694 250.532 109.264 250.741 108.703 250.458C107.73 250.256 106.776 249.845 105.767 249.894ZM135.615 252.56C134.612 252.776 135.426 254.153 135.371 254.831C135.474 255.425 135.345 256.129 135.028 256.586C137.269 256.749 139.6 257.071 141.876 257.135C143.109 257.259 144.228 256.16 143.773 254.935C143.99 253.89 142.248 252.564 141.917 254.018C141.482 255.474 139.346 255.592 138.387 254.519C137.492 253.869 136.81 252.645 135.615 252.56V252.56ZM126.194 252.854C125.67 253.218 124.539 253.381 125.163 254.267C124.512 254.638 124.891 255.931 125.574 255.766C125.779 254.832 126.172 253.625 126.193 252.854H126.194ZM131.074 255.412C130.778 255.733 130.098 256.136 130.935 256.038C131.539 256.219 131.596 256.103 131.232 255.606C131.149 255.746 131.165 255.221 131.074 255.412Z" fill="#F8C300"/>
<path d="M74.5937 243.949C75.3116 245.057 76.42 247.601 74.9852 249.815C73.4845 252.032 73.4676 253.454 74.9852 255.033C74.9852 255.033 69.4405 253.924 69.8323 247.597C70.1591 241.34 73.4849 242.122 74.5937 243.949Z" fill="#E18D11" stroke="#84530A" stroke-width="0.629506"/>
<path d="M72.4513 243.905C70.3614 245.797 70.6985 250.436 72.5264 252.093C73.3096 249.645 75.7374 247.193 73.5259 244.613C73.2969 244.25 72.9082 243.89 72.4513 243.905Z" fill="#EE9B21"/>
<path d="M72.6802 245.727C71.9932 246.801 72.2222 250.835 73.0243 247.796C73.2837 247.168 73.2056 245.91 72.6802 245.727Z" fill="#F0A83E"/>
<path d="M108.184 248.709C110.402 249.101 110.402 250.927 109.294 253.927C108.184 256.862 106.359 259.406 107.468 261.624C107.468 261.624 101.141 258.301 103.033 252.823C104.859 247.275 105.967 248.382 108.184 248.709Z" fill="#E18D11" stroke="#84530A" stroke-width="0.629506"/>
<path d="M106.169 249.659C103.632 251.89 103.032 256.726 105.983 258.95C106.413 255.965 109.373 253.085 108.47 250.108C107.737 249.86 106.936 249.745 106.169 249.659Z" fill="#EE9B21"/>
<path d="M106.496 251.14C105.382 252.506 104.943 254.649 105.542 256.204C106.024 254.657 107.915 252.46 107.098 251.059L106.629 250.985L106.496 251.14Z" fill="#F0A83E"/>
<path d="M141.773 253.536C143.469 252.819 146.926 256.342 146.926 258.297C146.926 261.62 145.034 264.947 141.773 266.059C141.773 266.059 143.207 259.407 141.773 259.077C140.273 258.689 138.055 255.037 141.773 253.536Z" fill="#E18D11" stroke="#84530A" stroke-width="0.629506"/>
<path d="M142.248 254.704C139.644 255.614 141.841 257.947 143.202 258.711C144.028 260.148 143.504 262.252 143.533 263.533C146.279 260.799 146.706 256.123 142.248 254.704Z" fill="#EE9B21"/>
<path d="M142.342 256.138C143.15 257.761 145.084 258.038 143.008 256.432C142.924 256.412 142.268 255.933 142.342 256.138Z" fill="#F0A83E"/>
<path d="M181.619 143.24L209.666 243.555C209.666 243.555 187.489 251.704 170.531 250.205L156.508 177.874L181.619 143.24Z" fill="#E3B209"/>
<path d="M206.595 241.925C194.478 242.141 196.366 245.243 194.355 245.205C191.471 245.151 185.432 247.461 184.285 246.98C180.557 245.415 175.532 247.899 172.628 247.806L159.188 178.469L180.597 148.938L206.595 241.925Z" fill="#F6C314"/>
<path d="M177.373 157.717C176.914 161.518 177.773 165.58 177.147 169.181C176.415 167.315 173.1 165.363 172.568 168.429C171.895 171.316 172.872 174.893 175.695 176.264C174.822 180.099 175.579 185.028 174.133 188.179C169.714 184.024 168.271 177.832 168.976 171.956C168.185 172.028 166.291 175.781 165.262 177.575C164.063 179.577 163.559 182.052 164.13 184.284C163.177 188.689 162.95 184.224 162.401 181.815C160.72 177.608 165.766 174.89 167.41 171.419C170.719 166.882 174.124 162.102 177.373 157.717ZM180.656 176.209C181.55 180.546 183.779 184.637 186.818 187.833C184.676 193.072 186.186 199.02 184.804 204.466C181.924 201.487 180.589 197.472 178.676 193.88C181.976 188.733 181.808 181.973 179.868 176.45C180.12 176.433 180.63 175.905 180.656 176.209H180.656ZM168.862 191.631C170.106 193.359 172.407 194.784 173.212 196.464C171.124 201.086 171.192 206.289 169.688 211.078C167.58 207.31 165.173 202.676 167.611 198.424C168.332 196.338 168.466 193.119 168.862 191.631ZM191.234 205.003C194.15 207.418 195.811 210.664 196.332 214.4C197.137 217.749 197.097 221.411 196.416 224.664C192.325 221.305 188.421 216.404 188.33 211.028C190.368 209.914 190.701 206.624 191.234 205.003ZM177.377 205.008C178.829 207.782 181.211 210.144 183.912 211.564C182.351 216.514 182.514 221.777 181.569 226.842C179.389 223.47 176.683 220.369 174.314 217.238C174.879 214.644 176.404 211.438 176.77 208.487C177.038 207.399 177.178 205.815 177.377 205.008ZM188.292 225.556C189.666 227.316 191.332 228.866 193.26 230.004C191.233 233.998 191.164 239.08 189.552 242.913C187.47 240.381 186.088 237.025 185.037 234.096C187.488 232.095 187.723 228.352 188.134 225.346L188.292 225.556ZM175.533 229.204C176.451 231.171 178.569 232.607 179.667 234.141C179.405 236.588 180.443 239.204 178.653 241.268C177.937 242.332 178.543 245.213 177.013 245.203C173.466 242.869 172.18 237.633 174.46 234.004C175 232.499 175.275 230.458 175.533 229.204ZM202.224 235.643C201.732 236.74 200.333 231.764 199.848 230.618C201.407 228.443 201.436 234.904 202.224 235.643Z" fill="#F8C300"/>
<path d="M171.364 175.622C172.685 176.944 173.243 178.242 172.715 180.153C172.816 183.309 171.693 178.974 171.553 177.712C171.472 177.139 171.355 176.226 171.364 175.622ZM183.612 187.899C184.546 189.631 182.669 191.644 183.102 193.613C183.183 196.589 182.894 197.363 181.725 194.32C182.047 192.451 183.375 189.635 183.612 187.899ZM192.388 210.365C193.802 213.059 194.334 216.179 194.348 219.063C192.597 216.85 189.438 212.62 192.388 210.365ZM178.926 211.083C180.343 212.069 181.416 212.996 180.563 214.777C180.185 216.486 180.157 218.927 179.748 220.104C178.056 218.374 176.345 216.281 177.969 213.906C178.336 213.079 178.54 211.596 178.926 211.083ZM189.949 230.714C190.236 232.042 188.847 234.133 188.829 235.81C188.685 237.851 187.333 234.093 188.632 233.664C189.25 232.856 189.462 231.162 189.949 230.714ZM176.785 234.567C177.764 236.279 177.26 239.251 176.201 240.261C175.615 238.409 175.989 236.174 176.785 234.567Z" fill="#F8C300"/>
<path d="M181.272 161.081C182.659 163.015 184.23 164.804 186.048 167.569C183.854 166.213 182.333 164.521 180.883 162.53C180.995 163.742 181.12 164.506 181.126 166.557C181.13 168.195 181.045 169.863 180.756 171.227C180.612 171.908 180.419 172.515 180.128 173.022C179.837 173.528 179.43 174.027 178.841 174.113L178.832 174.114C178.83 174.115 178.827 174.116 178.825 174.117C176.47 174.922 174.697 172.399 174.961 170.505C176.081 171.679 176.949 173.251 178.521 172.891C178.68 172.855 178.849 172.72 179.037 172.395C179.225 172.066 179.397 171.567 179.525 170.964C179.78 169.76 179.871 168.151 179.866 166.561C179.859 163.38 179.701 163.028 179.738 161.262C179.751 160.653 179.858 159.439 179.858 159.439C179.858 159.439 180.851 160.494 181.272 161.081ZM186.914 181.635C188.19 183.756 188.965 184.671 189.465 185.307C190.108 182.763 190.112 180.562 190.483 177.875C191.253 180.779 191.584 184.333 190.261 187.033L189.824 187.886L189.214 187.146C189.214 187.146 187.524 185.091 185.836 182.285C184.147 179.478 182.419 175.928 183.048 172.726C183.678 175.457 185.276 178.915 186.914 181.635ZM170.504 187.695C172.295 189.974 174.113 191.717 174.915 192.473C176.577 190.711 177.3 187.525 177.463 184.599C177.638 181.446 177.895 178.658 177.895 178.658C177.895 178.658 178.902 181.379 178.719 184.669C178.536 187.958 177.844 191.803 175.365 193.881L174.937 194.239L174.53 193.858C174.079 193.436 171.648 191.188 169.514 188.474C167.746 186.058 165.38 182.735 166.873 180.092C167.088 183.171 168.907 185.652 170.504 187.695ZM162.733 200.444C162.799 200.367 162.834 200.39 162.905 200.278C163.16 199.879 163.417 199.285 163.647 198.574C164.107 197.153 164.471 195.266 164.741 193.398C165.282 189.661 166.09 186.027 166.09 186.027C166.09 186.027 166.539 189.765 165.987 193.578C165.711 195.484 165.344 197.417 164.844 198.961C164.594 199.734 164.314 200.41 163.968 200.955C163.621 201.499 163.191 201.95 162.586 202.098L162.06 202.226L161.854 201.726C161.178 199.79 160.803 198.051 160.937 195.62C161.695 197.349 162.179 198.995 162.733 200.444ZM194.725 203.315C195.861 204.618 196.719 205.263 197.334 205.657L197.888 201.883L198.708 204.3L198.386 207.634L197.595 207.278C197.595 207.278 195.787 206.449 193.776 204.141C191.764 201.834 189.493 198.02 188.983 191.899C190.692 197.583 192.855 201.171 194.725 203.315Z" fill="#715803"/>
<path d="M189.197 198.914C189.085 201.268 188.873 203.66 188.465 205.577C188.261 206.535 188.013 207.375 187.678 208.053C187.343 208.731 186.912 209.296 186.248 209.517L186.237 209.521L186.226 209.524C185.85 209.634 185.551 209.549 185.225 209.43C184.9 209.312 184.551 209.128 184.169 208.878C183.405 208.38 182.516 207.618 181.607 206.59C179.788 204.535 177.894 201.409 177.57 197.115C179.072 200.909 180.863 203.849 182.55 205.756C183.393 206.709 184.212 207.403 184.856 207.824C185.179 208.034 185.46 208.175 185.657 208.246C185.843 208.314 185.928 208.292 185.859 208.313C186.027 208.253 186.292 208.015 186.548 207.496C186.807 206.971 187.044 206.212 187.234 205.315C187.616 203.521 187.83 201.172 187.938 198.854C188.157 194.219 188.592 189.68 188.592 189.68C188.592 189.68 189.418 194.206 189.197 198.914ZM165.96 209.178C166.78 211.1 167.693 212.974 168.544 214.229C168.97 214.857 169.387 215.326 169.706 215.558C170.022 215.788 170.121 215.783 170.243 215.724C170.416 215.634 170.718 215.325 171.007 214.796C171.298 214.264 171.587 213.537 171.856 212.694C172.394 211.009 172.856 208.857 173.224 206.749C173.96 202.533 174.961 198.549 174.961 198.549C174.961 198.549 175.212 202.687 174.465 206.966C174.091 209.106 173.626 211.295 173.057 213.077C172.772 213.968 172.464 214.757 172.111 215.401C171.759 216.044 171.375 216.564 170.813 216.852L170.807 216.854L170.802 216.856C170.192 217.155 169.489 216.958 168.965 216.576C168.44 216.195 167.973 215.629 167.503 214.936C166.562 213.549 165.637 211.632 164.802 209.673C163.131 205.754 162.438 201.484 162.438 201.484C162.438 201.484 164.321 205.334 165.96 209.178ZM179.336 228.073C180.052 229.067 180.812 229.962 181.478 230.526C181.811 230.808 182.121 231.005 182.36 231.1C182.6 231.195 182.739 231.191 182.839 231.156L182.847 231.153L182.855 231.15C182.761 231.181 183.022 230.994 183.231 230.482C183.44 229.969 183.649 229.216 183.837 228.321C184.214 226.532 184.519 224.17 184.754 221.829C185.225 217.149 186.048 212.575 186.048 212.575C186.048 212.575 186.482 217.229 186.007 221.957C185.77 224.32 185.463 226.708 185.069 228.581C184.872 229.517 184.657 230.323 184.398 230.957C184.14 231.589 183.891 232.131 183.249 232.343C182.797 232.5 182.319 232.438 181.895 232.269C181.467 232.099 181.066 231.825 180.665 231.486C179.864 230.808 179.066 229.852 178.314 228.808C176.811 226.721 176.036 224.534 175.678 222.88C176.654 224.272 177.904 226.085 179.336 228.073ZM169.959 235.08C170.283 234.622 170.628 233.965 170.898 232.972C171.294 231.511 171.568 229.65 171.75 227.831C172.113 224.193 172.743 220.727 172.743 220.727C172.743 220.727 173.374 224.239 173.003 227.955C172.817 229.813 172.541 231.724 172.113 233.302C171.684 234.881 171.163 235.929 170.095 236.746C169.887 236.905 169.5 236.764 169.333 236.563C168.115 235.097 166.873 230.319 166.873 230.319L169.959 235.08ZM205.572 238.567C205.431 239.744 205.222 240.949 204.886 241.953C204.551 242.954 204.118 243.849 203.208 244.147C202.644 244.341 202.083 244.066 201.69 243.704C201.293 243.339 200.948 242.842 200.6 242.243C199.905 241.046 199.228 239.436 198.618 237.805C197.399 234.542 197.072 231.029 197.072 231.029C197.072 231.029 198.604 234.169 199.799 237.365C200.395 238.962 201.064 240.533 201.69 241.611C202.002 242.15 202.311 242.564 202.543 242.777C202.775 242.99 202.811 242.955 202.798 242.96L202.806 242.957L202.815 242.955C203.007 242.893 203.404 242.414 203.692 241.553C203.98 240.692 204.187 239.547 204.323 238.416C204.594 236.157 205.224 233.967 205.224 233.967C205.224 233.967 205.855 236.212 205.572 238.567ZM185.563 241.416C186.423 242.955 187.4 244.403 188.306 245.383C188.759 245.874 189.195 246.245 189.558 246.454C189.916 246.662 190.166 246.695 190.329 246.658C190.478 246.616 190.728 246.44 190.999 246.053C191.273 245.663 191.556 245.093 191.818 244.413C192.342 243.054 192.794 241.259 193.153 239.484C193.871 235.936 194.854 232.533 194.854 232.533C194.854 232.533 195.121 236.108 194.388 239.734C194.021 241.546 193.564 243.388 192.993 244.866C192.708 245.605 192.397 246.254 192.031 246.776C191.664 247.299 191.232 247.725 190.646 247.882L190.638 247.884L190.631 247.885C190.044 248.027 189.458 247.852 188.927 247.545C188.397 247.238 187.89 246.788 187.382 246.238C186.366 245.138 185.357 243.629 184.464 242.029C183.261 239.408 181.356 236.611 182.331 233.968C183.002 236.647 184.429 239.37 185.563 241.416V241.416ZM174.189 246.174C175.674 247.651 177.373 248.397 178.519 248.098L178.527 248.097L178.535 248.094C178.765 248.04 179.162 247.659 179.506 246.948C180.38 244.88 180.731 242.849 181.614 240.618C181.861 243.116 181.682 245.307 180.639 247.498C180.226 248.351 179.702 249.108 178.828 249.316C176.976 249.794 174.961 248.718 173.301 247.066C171.639 245.413 170.291 243.107 170.525 240.619C171.478 242.567 172.705 244.697 174.189 246.174ZM200.694 219.713C200.599 221.713 200.414 223.742 200.054 225.366C199.874 226.178 199.655 226.89 199.351 227.468C199.047 228.047 198.636 228.541 198.017 228.706L198.009 228.709L198.001 228.71C197.015 228.946 195.953 228.635 194.882 228.058C193.81 227.481 192.709 226.611 191.66 225.558C189.563 223.452 187.674 220.629 187.484 217.726C188.795 219.978 190.59 222.699 192.553 224.67C193.535 225.655 194.558 226.455 195.478 226.951C196.392 227.443 197.181 227.604 197.696 227.486C197.811 227.453 198.018 227.297 198.236 226.883C198.455 226.466 198.659 225.842 198.825 225.094C199.156 223.6 199.343 221.616 199.436 219.654C199.622 215.729 200.072 211.856 200.072 211.856C200.072 211.856 200.883 215.712 200.694 219.713Z" fill="#715803"/>
<path d="M181.619 143.24L209.666 243.555C209.666 243.555 187.489 251.704 170.531 250.205L156.508 177.874L181.619 143.24Z" stroke="#705803" stroke-opacity="0.992" stroke-width="0.629506"/>
<path d="M226.234 241.337C227.734 243.489 225.517 246.49 224.408 247.99C223.3 249.489 204.123 254.248 193.035 256.138C179.664 258.356 161.989 259.534 156.901 260.186C153.967 260.513 152.074 257.969 152.074 255.032C152.074 250.927 155.401 250.205 157.227 250.205C157.227 250.205 159.445 249.814 159.445 251.314C159.445 251.314 161.336 249.491 163.163 249.491C164.989 249.491 166.489 250.208 166.489 251.708C166.489 251.708 167.923 249.098 169.815 248.707C171.641 248.379 174.251 248.707 174.577 250.207C174.577 250.207 176.794 249.816 178.686 248.707C180.512 247.597 183.056 247.597 184.556 249.098C184.556 249.098 188.6 247.597 190.491 247.272C192.318 246.88 195.97 246.163 196.362 247.6C196.362 247.6 197.47 244.665 199.297 244.337C201.188 243.945 205.559 242.121 207.45 243.945C207.45 243.945 208.884 241.728 209.993 241.728C211.102 241.728 213.711 241.01 214.102 242.119C214.102 242.119 215.537 239.51 218.864 239.119C222.191 238.793 224.408 238.793 226.234 241.337Z" fill="#E3B209" stroke="#715803" stroke-width="0.629672"/>
<path d="M218.618 243.506L218.494 243.57L218.362 243.521C217.567 243.221 217.117 242.738 216.99 242.19C216.864 241.642 217.039 241.094 217.291 240.614C217.793 239.654 218.655 238.888 218.655 238.888L219.077 239.355C219.077 239.355 218.276 240.089 217.849 240.905C217.635 241.313 217.529 241.723 217.604 242.048C217.674 242.352 217.916 242.637 218.494 242.88C218.72 242.768 220.041 242.133 221.8 242.447C220.064 242.762 218.618 243.506 218.618 243.506V243.506ZM207.511 245.875C207.583 245.538 207.614 245.184 207.576 244.895C207.538 244.606 207.442 244.322 207.257 244.186L207.629 243.679C207.983 243.939 208.148 244.415 208.201 244.813C208.253 245.211 208.206 245.623 208.127 246.003C208.085 246.205 208.06 246.2 208.006 246.376C208.974 245.873 210.353 246.097 211.104 246.492C210.148 246.624 209.28 246.495 208.407 246.813C207.8 247.035 207.596 247.255 207.021 247.789C207.285 246.983 207.393 246.431 207.511 245.875ZM200.187 247.868L200.021 247.976L199.853 247.873C199.327 247.553 199.055 247.084 199 246.612C198.946 246.139 199.079 245.678 199.261 245.269C199.626 244.452 200.219 243.811 200.219 243.811L200.682 244.236C200.682 244.236 200.146 244.83 199.836 245.525C199.682 245.872 199.591 246.236 199.626 246.539C199.656 246.799 199.829 247.013 200.101 247.221C201.266 246.507 202.414 246.368 203.342 247.276C202.155 246.863 201.154 247.34 200.187 247.868H200.187ZM178.18 250.873C178.448 250.26 178.666 249.653 178.721 249.28C178.746 249.113 178.723 249.032 178.72 249.013C178.708 249.013 178.716 249.011 178.69 249.017L178.605 248.434C178.736 248.405 178.821 248.367 178.952 248.411C179.084 248.453 179.201 248.553 179.266 248.665C179.395 248.889 179.38 249.12 179.343 249.37C179.27 249.871 179.035 250.492 178.757 251.126C178.49 251.735 178.385 251.881 178.136 252.356C179.895 251.806 181.577 251.754 183.45 252.035C181.644 252.501 180.013 252.355 178.273 252.964C178.007 253.061 177.799 253.172 177.672 253.275C177.637 253.338 177.462 253.691 177.462 253.691L176.874 254.724C176.874 254.724 176.795 253.868 176.895 253.458C177.122 252.523 177.644 252.098 178.18 250.873ZM169.697 249.849C169.999 249.313 170.37 248.819 170.799 248.379L171.24 248.829C171.24 248.829 170.676 249.384 170.246 250.155C169.817 250.926 169.548 251.846 169.752 252.817C168.85 251.898 169.215 250.712 169.697 249.849Z" fill="#715803"/>
<path d="M221.527 240.232C222.723 239.682 226.092 242.118 224.715 242.06C223.031 241.287 220.745 240.852 219.085 241.282C219.596 240.201 220.402 240.121 221.527 240.232ZM215.701 242.112C216.037 244.735 219.025 245.384 220.933 243.95C222.375 244.075 225.565 241.218 225.452 243.369C225.007 246.864 221.799 248.286 218.788 248.874C205.13 252.819 191.246 255.622 177.052 256.956C177.595 254.154 179.856 253.495 182.327 253.533C184.423 253.17 189.783 251.585 184.972 251.16C183.58 250.53 181.609 250.687 180.33 250.567C180.252 248.232 183.389 249.232 184.273 250.54C187.769 249.338 191.416 247.802 195.206 248.103C196.026 253.526 196.935 248.53 197.996 247.625C198.865 249.577 200.654 249.36 202.231 248.391C206.095 249.558 206.867 248.867 206.547 248.273C208.211 249.761 208.791 247.255 210.877 247.787C215.741 247.707 215.674 246.802 211.254 245.163C210.039 245.057 208.319 244.272 209.855 243.106C211.553 242.633 213.892 242.24 213.926 244.854C214.521 243.985 215.01 242.811 215.701 242.112ZM205.448 244.426C207.485 245 205.212 249.463 204.181 246.337C203.74 245.276 201.317 245.667 201.586 245.113C202.737 244.621 204.171 244.374 205.448 244.426ZM172.048 249.921C173.948 249.725 173.252 252.648 175.251 251.352C177.827 250.24 175.449 252.355 175.589 253.825C176.384 256.869 174.866 257.757 171.795 257.493C166.3 257.685 160.692 259.094 155.248 258.705C151.784 256.833 153.32 250.525 157.645 251.424C158.47 253.818 158.541 254.259 160.92 251.727C162.519 250.002 166.497 250.548 165.354 253.672C164.933 258.847 167.173 251.812 167.998 252.092C168.547 254.16 170.646 255.345 171.803 257.05C171.712 254.772 169.825 251.679 172.048 249.921Z" fill="#F6C314"/>
<path d="M222.163 245.531C220.448 247.04 217.945 247.492 215.889 247.853C216.272 247.04 215.766 246.042 215.43 245.459C216.093 245.659 216.558 246.416 217.372 246.438C219.06 246.784 220.719 246.069 222.252 245.449L222.163 245.531ZM193.23 249.894C194.363 250.016 193.825 251.599 194.796 252.042C196.091 252.949 197.732 251.769 198.387 250.598C200.401 251.53 202.61 249.764 204.588 250.769C198.706 252.112 192.772 253.235 186.799 254.08C187.692 253.51 189.051 252.541 188.327 251.408C188.304 250.532 189.733 250.741 190.295 250.458C191.268 250.256 192.222 249.845 193.23 249.894ZM163.383 252.56C164.386 252.776 163.571 254.153 163.626 254.831C163.524 255.425 163.653 256.129 163.97 256.586C161.729 256.749 159.398 257.071 157.121 257.135C155.889 257.259 154.77 256.16 155.225 254.935C155.008 253.89 156.75 252.564 157.081 254.018C157.516 255.474 159.651 255.592 160.611 254.519C161.506 253.869 162.188 252.645 163.383 252.56V252.56ZM172.804 252.854C173.327 253.218 174.459 253.381 173.834 254.267C174.486 254.638 174.106 255.931 173.424 255.766C173.218 254.832 172.825 253.625 172.804 252.854ZM167.924 255.412C168.22 255.733 168.899 256.136 168.062 256.038C167.458 256.219 167.401 256.103 167.766 255.606C167.849 255.746 167.832 255.221 167.924 255.412Z" fill="#F8C300"/>
<path d="M224.414 243.949C223.696 245.057 222.587 247.601 224.022 249.815C225.523 252.032 225.54 253.454 224.022 255.033C224.022 255.033 229.567 253.924 229.175 247.597C228.848 241.34 225.523 242.122 224.414 243.949Z" fill="#E18D11" stroke="#84530A" stroke-width="0.629506"/>
<path d="M226.56 243.905C228.65 245.797 228.313 250.436 226.485 252.093C225.702 249.645 223.274 247.193 225.486 244.613C225.715 244.25 226.103 243.89 226.56 243.905Z" fill="#EE9B21"/>
<path d="M226.332 245.727C227.019 246.801 226.79 250.835 225.988 247.796C225.728 247.168 225.806 245.91 226.332 245.727Z" fill="#F0A83E"/>
<path d="M190.826 248.709C188.608 249.101 188.608 250.927 189.717 253.927C190.826 256.862 192.651 259.406 191.542 261.624C191.542 261.624 197.869 258.301 195.978 252.823C194.151 247.275 193.043 248.382 190.826 248.709Z" fill="#E18D11" stroke="#84530A" stroke-width="0.629506"/>
<path d="M192.838 249.659C195.375 251.89 195.975 256.726 193.024 258.95C192.595 255.965 189.634 253.085 190.538 250.108C191.27 249.86 192.071 249.745 192.838 249.659Z" fill="#EE9B21"/>
<path d="M192.518 251.14C193.633 252.506 194.072 254.649 193.473 256.204C192.99 254.657 191.1 252.46 191.917 251.059L192.386 250.985L192.518 251.14Z" fill="#F0A83E"/>
<path d="M157.235 253.536C155.539 252.819 152.082 256.342 152.082 258.297C152.082 261.62 153.974 264.947 157.235 266.059C157.235 266.059 155.801 259.407 157.235 259.077C158.736 258.689 160.953 255.037 157.235 253.536Z" fill="#E18D11" stroke="#84530A" stroke-width="0.629506"/>
<path d="M156.756 254.704C159.36 255.614 157.163 257.947 155.802 258.711C154.976 260.148 155.5 262.252 155.471 263.533C152.725 260.799 152.298 256.123 156.756 254.704Z" fill="#EE9B21"/>
<path d="M156.67 256.138C155.862 257.761 153.928 258.038 156.004 256.432C156.087 256.412 156.744 255.933 156.67 256.138Z" fill="#F0A83E"/>
<path d="M149.504 82.6553C159.552 89.3619 184.043 98.6299 196.096 96.1443C196.096 96.1443 200.502 153.601 149.504 192.825C98.5059 153.601 102.912 96.1443 102.912 96.1443C114.965 98.6299 139.456 89.3619 149.504 82.6553Z" fill="white" stroke="#705804" stroke-width="0.629506"/>
<path d="M149.505 85.5801C154.918 88.9401 162.885 92.5561 171.281 95.2441C179.183 97.7736 187.134 99.3932 193.676 98.8651C193.826 110.033 191.642 156.009 149.505 189.53C107.369 156.009 105.185 110.033 105.334 98.8651C111.877 99.3932 119.828 97.7736 127.73 95.2441C136.126 92.5561 144.093 88.9405 149.505 85.5801Z" fill="white"/>
<path d="M119.891 154.695C126.433 166.544 135.878 178.688 149.506 189.53C163.134 178.688 172.578 166.544 179.121 154.695H119.891Z" fill="black"/>
<path d="M149.505 85.5801C144.093 88.9401 136.126 92.5561 127.73 95.2441C119.828 97.7736 111.877 99.3932 105.334 98.8651C105.287 102.39 105.476 109.388 107.076 118.362H191.934C193.535 109.388 193.724 102.39 193.676 98.8651C187.134 99.3932 179.182 97.7736 171.281 95.2441C162.885 92.5561 154.918 88.9405 149.505 85.5801Z" fill="#CE2028"/>
<path d="M164.031 130.552C163.831 130.446 163.606 130.276 163.531 130.174C163.418 130.016 163.484 130.011 163.948 130.136C164.78 130.361 165.316 130.274 165.849 129.823L166.317 129.428L166.87 129.709C167.174 129.863 167.497 129.969 167.59 129.945C167.83 129.882 168.325 129.245 168.311 129.025C168.293 128.753 168.522 128.821 168.633 129.119C168.853 129.704 168.532 130.376 167.964 130.524C167.686 130.597 167.428 130.57 167.009 130.424C166.493 130.244 166.405 130.246 166.146 130.445C165.565 130.889 164.757 130.93 164.031 130.552ZM166.087 128.671C165.886 128.414 165.644 127.443 165.722 127.204C165.79 126.998 165.861 126.957 166.05 127.016C166.378 127.119 166.456 127.345 166.405 128.115C166.367 128.742 166.274 128.906 166.087 128.671ZM141.872 127.974C141.805 128.444 142.706 129.612 143.112 129.823C142.836 129.947 142.492 129.891 142.239 130.03C140.823 131.447 135.651 136.488 134.707 137.693C137.504 137.749 140.607 137.655 143.229 137.535C143.227 135.635 145.029 135.537 146.235 134.844C146.856 135.822 148.414 135.747 148.609 137.218C148.609 138.979 148.612 141.631 148.612 143.547H124.716C124.296 145.403 122.62 146.819 120.285 146.237C121.007 145.483 122.225 145.223 122.659 144.18C123.027 141.896 121.926 140.487 121.214 139.191C122.391 138.763 122.57 138.656 123.768 137.851C122.928 140.405 125.953 140.124 128.199 140.067C128.275 139.199 128.231 138.175 127.565 138.05C128.425 137.737 128.568 137.63 129.939 136.467V140.025C130.304 140.025 146.488 140.066 146.488 140.066C146.488 138.989 146.774 137.061 145.921 137.061C145.107 137.061 145.882 139.275 145.25 139.275H132.471C132.471 138.799 132.459 137.803 132.459 137.085C133 136.543 132.936 136.59 136.637 132.89C137.004 132.523 139.6 130.177 141.872 127.974ZM173.815 127.882C174.707 128.363 175.413 129.027 176.504 129.307C176.378 129.759 175.975 129.938 175.869 130.414V140.067C177.089 140.335 177.348 139.643 177.928 139.275C178.087 140.82 179.07 142.335 179.036 143.547H173.815V127.882ZM166.854 133.051C166.854 133.051 168.753 131.448 168.753 131.386V139.81L170.122 139.808C170.122 136.598 170.08 133.343 170.08 130.361C170.636 129.806 171.722 129 171.995 128.439V143.524C168.14 143.524 160.95 143.529 159.999 143.529C159.824 140.397 159.792 137.155 163.442 137.852V136.574C163.331 136.356 163.131 136.626 163.085 136.342C163.665 135.763 163.86 135.615 165.431 134.244C165.431 135.899 165.46 139.803 165.46 139.803L166.843 139.805C166.84 139.806 166.854 133.268 166.854 133.051ZM162.215 139.764C162.538 140.246 163.63 140.236 163.578 139.425C163.393 138.756 161.958 139.011 162.215 139.764Z" fill="#119B4A"/>
<path d="M127.627 146.058C128.032 146.058 128.36 145.73 128.36 145.326C128.36 144.921 128.032 144.593 127.627 144.593C127.223 144.593 126.895 144.921 126.895 145.326C126.895 145.73 127.223 146.058 127.627 146.058Z" fill="#119B4A"/>
<path d="M150.227 127.897C151.119 128.378 151.825 129.042 152.917 129.322C152.791 129.774 152.388 129.953 152.283 130.429V140.082C153.503 140.351 153.761 139.659 154.341 139.29C154.5 140.835 155.482 142.35 155.45 143.563H150.228C150.227 138.342 150.227 133.12 150.227 127.897Z" fill="#119B4A"/>
<path d="M149.505 85.5811C154.918 88.9411 162.885 92.5571 171.281 95.2451C179.183 97.7746 187.134 99.3942 193.676 98.8661C193.826 110.034 191.642 156.01 149.505 189.531C107.369 156.01 105.185 110.034 105.334 98.8661C111.877 99.3942 119.828 97.7746 127.73 95.2451C136.126 92.5571 144.093 88.9415 149.505 85.5811Z" stroke="#705804" stroke-width="0.629506"/>
</svg>
