<svg width="300" height="300" viewBox="0 0 300 300" fill="none" xmlns="http://www.w3.org/2000/svg">
<path fill-rule="evenodd" clip-rule="evenodd" d="M157.298 238.792C157.422 238.417 157.672 234.548 157.547 234.548C157.422 234.548 151.682 227.809 151.807 227.809C151.932 227.809 159.17 229.432 159.17 229.182C159.17 228.933 162.04 222.069 162.04 221.944C162.04 221.82 165.535 230.305 165.535 230.305L172.648 233.426L167.656 237.543C167.656 237.543 168.779 245.531 168.779 245.656C168.779 245.78 163.787 240.913 163.787 240.913L158.295 241.537C158.295 241.537 157.547 239.041 157.298 238.792Z" fill="#F9DD16" fill-opacity="0.988235" stroke="black" stroke-width="1.36678"/>
<path fill-rule="evenodd" clip-rule="evenodd" d="M118.63 133.917C113.888 136.359 95.689 157.162 93.1929 160.406C91.1017 165.117 87.0116 171.075 82.7985 174.911C78.3015 178.313 75.8023 182.961 76.4215 187.362C76.3712 192.838 79.4414 196.566 81.8872 200.419C83.3346 202.18 85.2823 203.317 87.353 203.456C91.6009 204.016 91.9781 205.324 94.1042 206.134C102.479 217.537 114.973 225.946 123.971 232.607C129.706 235.63 133.695 238.653 135.061 240.303C137.696 245.334 137.211 250.239 136.85 252.649C134.624 261.05 132.396 269.452 130.17 277.853C129.046 284.717 135.011 283.174 135.332 281.801C138.024 278.306 142.041 280.761 147.782 260.544C150.413 257.001 153.046 253.458 155.677 249.916C155.677 249.916 158.714 248.701 158.714 248.398C163.332 242.853 159.816 239.679 157.195 238.681C155.272 237.972 153.349 237.263 151.426 236.555C151.426 236.555 144.745 229.874 144.442 229.874C141.267 220.639 125.685 200.924 122.065 198.179C119.56 195.568 118.368 194.456 115.99 193.003C112.333 191.254 111.153 190.685 108.914 189.791C107.049 189.043 108.376 186.996 109.562 186.06C121.904 179.342 131.688 171.875 143.531 164.283C144.138 163.878 144.745 163.473 145.352 163.068C143.936 154.971 142.518 146.873 141.101 138.776C134.522 136.448 127.942 134.119 121.363 131.791C120.328 132.499 119.542 133.209 118.63 133.917Z" fill="white" stroke="black" stroke-width="1.63449"/>
<path fill-rule="evenodd" clip-rule="evenodd" d="M135.142 261.817C135.205 261.568 147.496 259.321 147.496 259.321C147.496 259.321 146.061 263.877 145.999 263.877L133.77 267.558L135.142 261.817Z" fill="#F9DD16"/>
<path d="M103.113 215.535C105.484 209.233 112.066 204.243 116.488 202.866" stroke="black" stroke-width="1.36678"/>
<path d="M134.702 261.928C135.495 261.704 139.019 260.676 140.045 260.516C141.14 260.26 142.229 259.973 143.282 259.634C144.497 259.386 145.257 259.157 146.519 258.928C147.507 258.55 148.484 258.292 149.541 258.045M132.477 269.528C132.579 269.391 133.417 268.65 134.018 268.293C134.727 268.069 137.149 267.041 138.065 266.881C139.043 266.625 140.016 266.338 140.956 265.999C142.042 265.75 142.72 265.522 143.848 265.292C144.73 264.915 145.603 264.657 146.546 264.41" stroke="black" stroke-width="1.51139"/>
<path d="M137.473 217.318C137.413 217.318 137.355 217.318 137.297 217.318C137.849 217.318 137.51 217.272 136.767 218.2C136.502 218.914 134.237 220.494 132.531 220.494C131.708 220.583 130.443 220.671 129.619 220.671C129.384 220.671 129.06 220.494 128.824 220.494" stroke="black" stroke-width="1.36678"/>
<path d="M137.293 253.677C137.351 253.677 137.41 253.677 137.469 253.677C137.234 253.677 137.94 253.677 138.175 253.677C139.09 253.677 140.008 253.84 140.822 253.853C141.705 253.853 142.588 254.103 143.47 254.103C144.361 254.229 145.434 254.188 146.356 254.319C147.389 254.354 148.218 254.558 149.294 254.558M149.294 254.558C150.161 254.591 150.628 254.736 151.589 254.736L149.294 254.558Z" stroke="black" stroke-width="1.36678"/>
<path d="M131.293 275.207C131.387 275.07 132.154 274.33 132.705 273.972C133.353 273.748 135.572 272.72 136.411 272.56C137.306 272.304 138.197 272.017 139.058 271.678C140.052 271.43 140.674 271.201 141.706 270.971C142.515 270.594 143.313 270.336 144.176 270.089" stroke="black" stroke-width="1.36678"/>
<path d="M147.821 244.53C147.321 245.98 147.968 246.344 148.236 246.969C148.701 247.575 149.889 248.498 151.766 249.087C152.49 249.282 153.046 249.472 153.884 249.793C154.438 249.844 154.711 249.983 155.119 250.146" stroke="black" stroke-width="1.36678"/>
<path d="M77.9951 191.374C78.0535 191.374 78.113 191.374 78.1714 191.374C77.6179 191.374 77.95 191.41 78.8777 190.668C79.4507 190.027 79.9294 189.737 80.4656 189.08" stroke="black" stroke-width="1.36678"/>
<path d="M89.4219 203.947C89.5398 203.947 99.6891 198.832 100.773 197.74C101.54 197.183 102.122 196.596 103.056 195.963C103.654 195.65 104.084 195.25 104.644 194.904C105.111 194.229 105.72 193.821 106.056 193.203C106.679 192.662 106.412 192.077 106.917 191.426C107.156 190.76 107.603 189.637 107.748 189.027" stroke="black" stroke-width="1.36678"/>
<path d="M120.672 196.618C120.728 196.983 120.51 198.108 120.526 198.964C120.491 199.956 119.215 203.021 117.672 203.936" stroke="black" stroke-width="1.36678"/>
<path d="M102.441 196.505C102.501 196.505 104.046 197.007 106.628 197.802C109.736 198.919 116.2 202.993 116.842 203.553C117.497 204.069 118.669 204.529 119.117 205.141C119.82 205.748 120.334 206.448 120.883 207.083C121.527 207.869 122.077 208.534 122.471 209.201C124.434 210.793 129.714 221.815 129.883 222.437C130.179 223.02 130.546 223.831 130.766 224.379C131.157 224.83 131.423 225.468 131.824 226.144C132.193 227.022 132.607 227.421 133.061 228.086C133.645 228.492 134.432 229.263 135.179 229.674C135.974 230.354 136.72 230.631 137.296 231.086C138.129 231.44 147.43 237.32 147.862 237.614C148.712 238.297 151.306 240.985 149.485 242.941C148.712 243.602 148.016 244.478 147.356 244.852C146.683 245.525 145.747 245.827 144.974 246.175C140.784 247.414 138.649 246.97 137.825 246.97C137.531 246.97 137.237 246.97 136.943 246.97" stroke="black" stroke-width="1.36678"/>
<path d="M81.8945 175.71C83.0857 176.176 82.6049 175.832 83.6772 176.32C84.3978 176.636 84.8724 176.644 85.5807 176.902C86.3321 177.143 88.4315 177.521 89.4402 178.534C90.1803 179.202 90.7451 179.767 91.558 180.255C92.5195 180.918 93.2135 181.214 94.4057 181.711C95.4113 182.087 96.5358 182.504 97.5527 182.54C98.6096 182.602 98.8628 182.549 99.8766 182.549M99.8766 182.549C100.701 182.549 101.524 182.549 102.348 182.549H99.8766Z" stroke="black" stroke-width="1.36678"/>
<path fill-rule="evenodd" clip-rule="evenodd" d="M81.6119 187.492C84.2586 187.315 88.6706 188.11 88.7587 188.11L94.5833 188.022C97.6432 187.726 98.3187 186.551 98.8189 185.726C99.966 183.962 100.76 183.344 101.643 182.021C103.055 180.962 104.997 183.432 105.085 183.432C110.026 188.11 106.055 193.845 105.791 194.021C103.32 196.287 102.79 196.433 101.29 194.992C99.7897 193.227 99.3489 192.434 98.1137 191.815C95.7314 190.668 90.7895 191.551 90.7003 191.551C90.6121 191.551 88.1417 192.522 88.1417 192.522C86.9351 192.962 86.1704 194.022 84.0823 194.374C81.9645 194.522 81.2582 194.316 80.1993 192.61C78.7878 190.404 79.493 187.756 81.6119 187.492Z" fill="#FFE606" stroke="black" stroke-width="1.36678"/>
<path fill-rule="evenodd" clip-rule="evenodd" d="M219.792 80.4479C219.404 80.5237 215.909 82.2016 215.971 82.3106C216.032 82.4197 212.971 90.7261 212.91 90.6171C212.849 90.5081 210.716 83.4035 210.498 83.5261C210.281 83.6482 202.891 84.5102 202.782 84.5715C202.674 84.6323 208.358 77.4275 208.358 77.4275L207.592 69.698L213.628 72.0315C213.628 72.0315 220.04 67.1376 220.149 67.0763C220.257 67.0155 218.461 73.7524 218.461 73.7524L221.696 78.2331C221.696 78.2331 219.887 80.1087 219.792 80.4479Z" fill="#F9DD16" fill-opacity="0.988235" stroke="black" stroke-width="1.36678"/>
<path fill-rule="evenodd" clip-rule="evenodd" d="M147.325 165.55C151.777 168.487 178.83 174.156 182.881 174.741C188.012 174.256 195.21 174.901 200.619 176.693C205.788 178.946 211.065 178.846 214.597 176.15C219.395 173.51 221.14 169.007 223.3 164.986C224.125 162.862 224.162 160.607 223.268 158.734C221.675 154.756 222.63 153.786 222.294 151.536C228.13 138.648 229.336 123.636 230.733 112.528C230.557 106.047 231.237 101.089 232.006 99.089C235.1 94.3275 239.613 92.3462 241.891 91.4796C250.305 89.3029 258.72 87.1271 267.135 84.9503C273.669 82.5657 269.4 78.1228 268.046 78.5158C263.681 77.882 263.851 73.1775 243.415 78.0816C239.037 77.5241 234.659 76.9657 230.282 76.4082C230.282 76.4082 227.734 74.356 227.47 74.5047C220.373 73.1967 219.33 77.8169 219.744 80.591C220.069 82.6144 220.394 84.6383 220.719 86.6617C220.719 86.6617 218.169 95.759 218.318 96.0235C211.824 103.317 202.157 126.736 201.538 131.237C201.245 135.466 199.648 134.702 200.076 138.812C200.092 142.025 199.719 140.019 200.791 146.637C201.052 148.629 198.617 148.475 197.22 147.9C185.315 140.434 174.012 135.566 161.591 128.963C160.94 128.633 160.289 128.301 159.639 127.971C153.275 133.174 146.911 138.378 140.547 143.582C141.742 150.457 142.937 157.334 144.132 164.21C145.257 164.765 146.261 165.103 147.325 165.55Z" fill="white" stroke="black" stroke-width="1.63449"/>
<path fill-rule="evenodd" clip-rule="evenodd" d="M250.722 88.4728C250.474 88.5404 242.491 78.9272 242.491 78.9272C242.491 78.9272 247.166 77.9455 247.196 78.0001L256.398 86.856L250.722 88.4728Z" fill="#F9DD16"/>
<path d="M226.075 139.077C219.419 140.099 211.843 136.807 208.477 133.628" stroke="black" stroke-width="1.36678"/>
<path d="M251.032 88.8036C250.449 88.2215 247.826 85.6543 247.184 84.8382C246.424 84.0095 245.639 83.2004 244.828 82.449C244.016 81.5117 243.444 80.9607 242.626 79.9733C241.812 79.2968 241.108 78.5719 240.375 77.7717M258.748 87.0188C258.578 86.9968 257.522 86.6295 256.915 86.2803C256.373 85.7724 254.29 84.1648 253.702 83.4444C252.999 82.7175 252.272 82.0102 251.516 81.3571C250.767 80.5325 250.235 80.053 249.483 79.1826C248.721 78.5981 248.069 77.9643 247.391 77.2634" stroke="black" stroke-width="1.51139"/>
<path d="M210.789 108.255C210.818 108.307 210.847 108.358 210.876 108.409C210.605 107.927 210.731 108.245 211.905 108.438C212.656 108.319 215.144 109.519 215.98 111.006C216.46 111.68 217.157 112.74 217.561 113.458C217.676 113.663 217.681 114.031 217.797 114.237" stroke="black" stroke-width="1.36678"/>
<path d="M242.57 90.5908C242.542 90.5399 242.513 90.489 242.484 90.4371C242.599 90.6426 242.253 90.027 242.138 89.8224C241.69 89.0244 241.382 88.144 240.994 87.428C240.562 86.6586 240.347 85.7667 239.915 84.9974C239.588 84.1591 239.026 83.2436 238.689 82.376C238.213 81.4583 237.984 80.6354 237.457 79.6981M237.457 79.6981C237.061 78.9261 236.958 78.4478 236.487 77.6105L237.457 79.6981Z" stroke="black" stroke-width="1.36678"/>
<path d="M264.282 85.2699C264.116 85.255 263.095 84.9494 262.513 84.6449C262 84.1888 260.017 82.7591 259.466 82.1056C258.804 81.4512 258.118 80.8154 257.4 80.2311C256.696 79.4859 256.193 79.0564 255.486 78.2692C254.761 77.7491 254.145 77.1796 253.506 76.5483" stroke="black" stroke-width="1.36678"/>
<path d="M229.441 85.8964C230.949 85.6212 230.949 84.879 231.363 84.3394C231.663 83.6368 231.886 82.1485 231.479 80.2241C231.294 79.4978 231.188 78.9192 231.057 78.0319C230.83 77.5234 230.817 77.2179 230.759 76.7824" stroke="black" stroke-width="1.36678"/>
<path d="M217.325 172.815C217.297 172.764 217.268 172.713 217.239 172.662C217.51 173.144 217.379 172.837 216.277 172.392C215.438 172.207 214.95 171.932 214.115 171.786" stroke="black" stroke-width="1.36678"/>
<path d="M222.685 156.692C222.627 156.589 213.195 150.249 211.711 149.84C210.85 149.444 210.053 149.225 209.044 148.721C208.478 148.352 207.918 148.174 207.342 147.855C206.525 147.779 205.871 147.448 205.167 147.458C204.391 147.18 204.012 147.7 203.196 147.578C202.499 147.697 201.301 147.857 200.698 148.029" stroke="black" stroke-width="1.36678"/>
<path d="M200.979 133.042C201.27 132.815 202.356 132.453 203.095 132.02C203.977 131.564 207.274 131.175 208.828 132.071" stroke="black" stroke-width="1.36678"/>
<path d="M209.816 148.992C209.787 148.94 209.468 147.348 208.895 144.707C208.346 141.451 208.729 133.82 208.903 132.985C209.031 132.162 208.858 130.915 209.172 130.224C209.357 129.314 209.715 128.522 209.999 127.733C210.368 126.786 210.679 125.981 211.067 125.311C211.493 122.82 218.513 112.815 218.972 112.363C219.335 111.819 219.862 111.102 220.232 110.642C220.434 110.08 220.859 109.536 221.252 108.854C221.836 108.102 221.982 107.546 222.339 106.825C222.406 106.117 222.692 105.053 222.685 104.201C222.888 103.174 222.764 102.387 222.878 101.662C222.778 100.763 223.345 89.7737 223.39 89.2533C223.569 88.178 224.641 84.5987 227.239 85.228C228.194 85.5777 229.298 85.7554 229.948 86.1475C230.864 86.4036 231.586 87.0717 232.268 87.5746C235.401 90.6205 236.06 92.6984 236.464 93.4168C236.608 93.6732 236.753 93.9297 236.897 94.1861" stroke="black" stroke-width="1.36678"/>
<path d="M201.712 176.735C201.684 176.684 201.655 176.632 201.626 176.581C201.86 176.997 201.73 176.789 201.434 175.879C201.356 175.096 201.114 174.037 200.992 173.293C200.834 172.52 200.472 171.639 200.57 171.101C200.293 170.316 200.467 169.667 200.541 168.89C200.761 167.917 200.861 167.213 200.888 166.265C200.994 165.102 200.908 164.278 200.975 163.179C200.668 162.274 200.606 161.516 200.139 160.612C199.723 159.748 199.405 158.948 198.908 158.064M198.908 158.064C198.505 157.346 198.101 156.628 197.697 155.91L198.908 158.064Z" stroke="black" stroke-width="1.36678"/>
<path fill-rule="evenodd" clip-rule="evenodd" d="M212.169 171.563C210.718 169.342 209.249 165.107 209.205 165.03L206.274 159.997C204.517 157.474 203.161 157.461 202.198 157.429C200.098 157.294 199.17 156.904 197.583 156.784C195.969 156.072 197.17 153.168 197.127 153.091C198.783 146.492 205.728 147.143 206.011 147.287C209.197 148.33 209.584 148.72 209.063 150.734C208.26 152.907 207.784 153.68 207.851 155.06C208.019 157.699 211.21 161.574 211.254 161.652C211.297 161.728 213.354 163.406 213.354 163.406C214.329 164.242 215.628 164.389 216.958 166.037C218.124 167.81 218.291 168.527 217.323 170.286C216.092 172.598 213.438 173.28 212.169 171.563Z" fill="#F9DD16" stroke="black" stroke-width="1.36678"/>
<path fill-rule="evenodd" clip-rule="evenodd" d="M48.2996 110.226C48.5754 110.509 51.8937 112.513 51.9513 112.402C52.0089 112.291 60.6349 110.302 60.5773 110.413C60.5197 110.524 55.7443 116.2 55.9663 116.315C56.1873 116.43 60.9567 122.14 61.0676 122.198C61.1777 122.255 52.0364 121.446 52.0364 121.446L45.9895 126.321L44.6352 119.993C44.6352 119.993 37.0285 117.31 36.9175 117.252C36.8074 117.195 43.4274 115.007 43.4274 115.007L45.4036 109.846C45.4036 109.846 47.9638 110.332 48.2996 110.226Z" fill="#F9DD16" fill-opacity="0.988235" stroke="black" stroke-width="1.36678"/>
<path fill-rule="evenodd" clip-rule="evenodd" d="M159.191 124.232C159.209 118.898 149.132 93.1605 147.403 89.4502C144.186 85.4239 140.782 79.0481 139.319 73.5415C138.372 67.9826 135.398 63.6229 131.207 62.1447C126.371 59.5768 121.647 60.5837 117.1 60.9789C114.871 61.4525 112.964 62.6568 111.887 64.4308C109.432 67.9425 108.097 67.6746 106.399 69.1883C92.4194 71.3669 79.1996 78.5806 69.1417 83.4973C63.816 87.1946 59.2952 89.3416 57.2008 89.7939C51.5226 89.8142 47.3927 87.1237 45.4201 85.693C38.9895 79.8457 32.5594 73.9974 26.1288 68.1501C20.5546 63.9901 19.1762 69.9955 20.2465 70.9127C22.1076 74.912 18.0785 77.3466 33.376 91.7569C35.3077 95.7247 37.2389 99.6934 39.1706 103.661C39.1706 103.661 38.8491 106.917 39.1184 107.056C41.9115 113.71 46.3483 112.052 48.4422 110.185C49.957 108.805 51.4726 107.425 52.9874 106.045C52.9874 106.045 61.9947 103.194 62.1345 102.925C71.7935 104.363 96.6821 99.6208 100.786 97.6733C104.485 95.6018 104.721 97.3564 107.925 94.7464C110.604 92.9735 109.13 94.3847 114.079 89.8624C115.603 88.5523 116.808 90.6738 117.092 92.1576C117.368 106.207 119.486 118.331 120.767 132.339C120.847 133.064 120.926 133.791 121.006 134.516C128.845 136.989 136.686 139.463 144.525 141.936C149.622 137.17 154.721 132.403 159.819 127.637C159.667 126.392 159.4 125.367 159.191 124.232Z" fill="white" stroke="black" stroke-width="1.63449"/>
<path fill-rule="evenodd" clip-rule="evenodd" d="M38.0702 79.9557C38.2625 80.126 34.5928 92.0705 34.5928 92.0705C34.5928 92.0705 31.2111 88.6977 31.2399 88.6422L33.6079 76.0924L38.0702 79.9557Z" fill="#F9DD16"/>
<path d="M93.9045 72.8528C98.4053 77.861 99.8012 86.0021 98.9858 90.5603" stroke="black" stroke-width="1.36678"/>
<path d="M38.1767 79.5121C38.0095 80.3192 37.2985 83.9199 36.9677 84.9042C36.6906 85.994 36.4433 87.0933 36.2593 88.184C35.9198 89.3764 35.7722 90.1568 35.3945 91.3825C35.274 92.4334 35.0531 93.4194 34.7854 94.4712M32.4571 74.035C32.5318 74.1893 32.8027 75.2736 32.843 75.9725C32.7149 76.7041 32.5113 79.3277 32.2309 80.2147C32.0078 81.2007 31.8143 82.1963 31.6823 83.1869C31.4022 84.2647 31.2924 84.9723 30.9766 86.0789C30.9047 87.036 30.732 87.9293 30.5167 88.8801" stroke="black" stroke-width="1.51139"/>
<path d="M76.4911 102.522C76.5185 102.47 76.5454 102.418 76.5723 102.366C76.3177 102.856 76.515 102.576 76.0332 101.489C75.5219 100.925 75.1629 98.1863 75.9488 96.6725C76.2499 95.9013 76.7545 94.738 77.1343 94.0065C77.2425 93.7982 77.5482 93.592 77.6568 93.3827" stroke="black" stroke-width="1.36678"/>
<path d="M44.3047 85.6133C44.2778 85.6651 44.2508 85.717 44.2234 85.7698C44.3321 85.5605 44.0066 86.1874 43.8985 86.3957C43.4767 87.2081 42.9088 87.9482 42.5219 88.6644C42.1153 89.4477 41.4866 90.1158 41.0799 90.8991C40.5575 91.6316 40.0994 92.603 39.5583 93.3605C39.0512 94.2615 38.4881 94.9035 37.9926 95.8578M37.9926 95.8578C37.5639 96.6124 37.2202 96.9606 36.7776 97.8131L37.9926 95.8578Z" stroke="black" stroke-width="1.36678"/>
<path d="M27.9575 70.3652C28.0359 70.5122 28.3395 71.5338 28.4034 72.1872C28.3027 72.866 28.193 75.3085 27.9481 76.1273C27.7632 77.0396 27.6075 77.9625 27.5119 78.8831C27.2739 79.8799 27.1905 80.5365 26.9186 81.5585C26.8808 82.4501 26.7421 83.2778 26.5636 84.1577" stroke="black" stroke-width="1.36678"/>
<path d="M47.5715 99.17C46.5152 98.059 45.8941 98.4654 45.2159 98.4147C44.4638 98.5486 43.0966 99.1775 41.7096 100.572C41.2032 101.125 40.7775 101.531 40.1069 102.126C39.8058 102.595 39.5574 102.773 39.2247 103.06" stroke="black" stroke-width="1.36678"/>
<path d="M126.921 61.6893C126.894 61.7411 126.867 61.7939 126.84 61.8458C127.095 61.3545 126.91 61.6327 127.141 62.7981C127.446 63.6018 127.483 64.1604 127.819 64.939" stroke="black" stroke-width="1.36678"/>
<path d="M110.496 66.0382C110.442 66.1428 110.305 77.5075 110.776 78.9726C110.916 79.9105 111.17 80.697 111.301 81.8172C111.302 82.4926 111.46 83.0585 111.508 83.7153C111.893 84.4405 111.974 85.1689 112.368 85.7522C112.56 86.5542 113.203 86.5865 113.548 87.335C114.029 87.854 114.82 88.7678 115.294 89.1781" stroke="black" stroke-width="1.36678"/>
<path d="M102.606 97.1532C102.256 97.0341 101.358 96.3231 100.592 95.9423C99.7271 95.4542 97.5949 92.9092 97.4934 91.1182" stroke="black" stroke-width="1.36678"/>
<path d="M111.105 81.0225C111.078 81.0752 109.92 82.2148 108.026 84.1405C105.602 86.3841 99.0077 90.244 98.2144 90.5552C97.455 90.8989 96.5066 91.7267 95.7566 91.8432C94.8944 92.1868 94.0359 92.3209 93.2201 92.5152C92.2252 92.7252 91.3815 92.9063 90.6088 92.9486C88.2914 93.9573 76.0755 93.5645 75.4454 93.4279C74.7921 93.4225 73.9034 93.3746 73.3156 93.3166C72.7348 93.4563 72.0466 93.3981 71.261 93.443C70.3122 93.3662 69.767 93.5486 68.9682 93.6456C68.3387 93.9771 67.2918 94.3206 66.5831 94.7935C65.6125 95.1859 65.023 95.7207 64.3536 96.0222C63.6562 96.598 54.1517 102.144 53.6917 102.391C52.6942 102.831 49.1124 103.895 48.2159 101.377C47.9852 100.386 47.529 99.3651 47.5011 98.6068C47.2133 97.6997 47.377 96.7302 47.4239 95.8836C48.2558 91.5938 49.6331 89.9042 50.0129 89.1727C50.1485 88.9116 50.284 88.6505 50.4196 88.3894" stroke="black" stroke-width="1.36678"/>
<path d="M138.757 72.6049C138.73 72.6568 138.703 72.7096 138.676 72.7614C138.895 72.3384 138.793 72.5601 138.194 73.307C137.581 73.8011 136.828 74.5833 136.272 75.0929C135.712 75.6487 135.174 76.4342 134.669 76.647C134.164 77.3087 133.526 77.5182 132.835 77.8822C131.901 78.2311 131.257 78.5335 130.45 79.0302C129.418 79.5779 128.776 80.1014 127.82 80.648C127.23 81.4001 126.631 81.8673 126.131 82.7533C125.635 83.5747 125.14 84.2787 124.673 85.1785M124.673 85.1785C124.293 85.91 123.914 86.6405 123.534 87.372L124.673 85.1785Z" stroke="black" stroke-width="1.36678"/>
<path d="M130.811 132.715C130.865 132.611 130.919 132.506 130.974 132.401C130.673 132.981 130.778 132.829 131.061 131.851C131.064 130.677 131.342 129.258 131.354 128.223C131.53 127.128 131.709 125.944 131.72 124.834C131.654 123.536 131.656 122.373 131.462 121.121C131.447 119.968 131.312 118.773 131.278 117.645C131.257 116.526 131.173 115.568 130.931 114.482C130.908 113.669 130.858 112.554 130.66 111.557C130.766 110.772 130.543 110.05 130.376 109.422C130.072 108.212 129.954 107.506 129.635 106.252C129.443 105.581 129.254 104.722 128.964 103.716C128.859 102.763 128.349 101.526 128.142 100.704C127.858 100.1 127.573 99.2817 127.463 98.563C127.166 97.8996 126.744 97.0899 126.629 96.3394C126.316 95.7671 125.983 94.8771 125.638 94.0347C125.34 93.3429 125.121 92.49 124.804 91.8125C124.484 90.9558 124.093 90.2241 123.894 89.3513C123.588 89.055 123.519 88.7303 123.354 88.4751" stroke="black" stroke-width="1.36678"/>
<path fill-rule="evenodd" clip-rule="evenodd" d="M128.702 66.6908C127.639 69.1211 124.901 72.6707 124.861 72.7489L122.255 77.9589C121.107 80.8106 121.839 81.9519 122.34 82.7757C123.377 84.6066 123.56 85.5965 124.328 86.9896C124.617 88.7303 121.529 89.316 121.489 89.3942C115.061 91.624 111.801 85.4568 111.766 85.1409C110.894 81.9044 111.008 81.3665 112.978 80.6996C115.236 80.1811 116.143 80.1555 117.261 79.344C119.377 77.7582 120.871 72.9655 120.912 72.8864C120.952 72.8081 121.229 70.1683 121.229 70.1683C121.394 68.8944 120.806 67.7273 121.456 65.712C122.301 63.7644 122.809 63.2325 124.811 63.0787C127.419 62.8424 129.444 64.6884 128.702 66.6908Z" fill="#F9DD16" stroke="black" stroke-width="1.36678"/>
<path fill-rule="evenodd" clip-rule="evenodd" d="M120.263 129.425C119.292 128.543 138.53 136.396 141.176 136.485C144.795 135.162 159.709 122.543 159.709 122.543C159.856 123.778 160.384 126.984 161.825 127.661C156.061 132.339 150.825 136.839 145.06 141.515C145.472 148.928 144.119 156.782 147.883 165.077C147.883 165.077 143.384 165.164 143.384 165.077C139.413 161.106 138 141.957 138 141.957C131.676 139.133 125.351 136.398 119.027 133.574C119.94 132.985 120.675 131.162 120.263 129.425Z" fill="#F9DD16" fill-opacity="0.987421" stroke="black" stroke-width="1.36678"/>
<path d="M138.566 149.056C138.874 148.832 135.096 150.811 134.125 151.307C116.648 160.63 107.654 174.192 107.093 174.704C106.791 175.282 106.235 176.053 105.726 176.807C105.317 177.44 104.729 178.095 104.341 178.735C103.806 179.477 102.68 180.941 102.065 181.591C101.989 182.01 102.357 181.448 102.236 181.727" stroke="black" stroke-width="1.36678"/>
<path d="M150.508 137.976C150.168 137.805 153.656 140.26 154.541 140.895C170.826 152.172 187 153.968 187.712 154.232C188.364 154.236 189.303 154.378 190.207 154.486C190.957 154.56 191.808 154.783 192.555 154.835C193.459 154.972 195.276 155.303 196.136 155.553C196.543 155.429 195.875 155.359 196.178 155.338" stroke="black" stroke-width="1.36678"/>
</svg>
