<svg width="300" height="300" viewBox="0 0 300 300" fill="none" xmlns="http://www.w3.org/2000/svg">
<g clip-path="url(#clip0_180_8409)">
<path d="M268.219 4V222.581C268.219 222.581 269.465 274.687 204.583 281.854C200.718 282.291 159.348 281.418 148.939 297C138.593 281.418 98.5646 282.291 94.6381 281.854C29.8174 274.687 31.0015 222.581 31.0015 222.581V4H268.218H268.219Z" stroke="#0077B9" stroke-width="8.43799"/>
<path d="M268.219 4V222.581C268.219 222.581 269.465 274.687 204.583 281.854C200.718 282.291 159.348 281.418 148.939 297C138.593 281.418 98.5646 282.291 94.6381 281.854C29.8174 274.687 31.0015 222.581 31.0015 222.581V4H268.218H268.219Z" fill="#0077B9" stroke="white" stroke-width="5.49845"/>
<path d="M78.336 243.234C78.336 243.234 67.0727 240.373 66.1596 234.467C66.1596 234.467 65.6115 230.388 67.7425 226.431C67.7425 226.431 71.0301 225.761 71.3344 224.483C71.5777 223.204 71.4563 221.438 69.6299 220.769C67.8644 220.099 67.1337 220.404 65.977 221.804C64.881 223.204 65.4901 224.178 65.4901 224.178C65.4901 224.178 67.5601 226.857 63.9676 229.353C63.9676 229.353 61.7153 222.961 61.7153 218.699C61.7153 218.699 64.6377 209.932 68.5949 203.478C70.2387 200.8 73.8309 195.564 73.8309 195.564C73.8309 207.192 65.7944 217.542 65.7944 217.542C76.9964 210.967 77.8488 195.564 77.8488 193.189C77.8488 190.876 76.5095 184.604 76.5095 184.604C76.5095 184.604 68.8382 194.894 66.5246 199.521C64.2112 204.087 63.2981 206.522 61.593 211.515C61.593 211.515 61.2888 202.078 61.593 200.982C62.1412 199.156 66.281 194.407 66.281 194.407C66.281 194.407 68.1684 194.65 68.8989 193.25C69.6293 191.91 69.8119 189.779 68.0465 189.11C66.281 188.44 64.3326 190.327 64.3326 190.327C63.6628 191.91 64.5155 193.737 64.5155 193.737L61.593 196.355L61.715 186.796C61.715 186.796 64.6374 178.881 68.5946 172.428C70.2384 169.749 73.8307 164.452 73.8307 164.452C73.8307 176.08 65.7941 186.431 65.7941 186.431C76.9961 179.916 77.2397 164.026 77.2397 161.712C77.2397 159.399 76.5095 153.554 76.5095 153.554C76.5095 153.554 68.4123 163.234 66.0986 167.801C63.785 172.367 63.2981 174.619 61.5933 179.551C61.5933 179.551 61.2891 171.027 61.5933 169.931C62.1415 168.105 66.2813 163.356 66.2813 163.356C66.2813 163.356 68.1687 163.539 68.8991 162.199C69.6296 160.859 69.8122 158.728 68.0467 158.059C66.2813 157.389 64.3329 159.277 64.3329 159.277C63.6631 160.859 64.5158 162.686 64.5158 162.686L61.5933 165.304L61.7153 155.502C61.7153 155.502 64.6377 147.587 68.5949 141.133C70.2387 138.455 73.8309 133.158 73.8309 133.158C73.8309 144.786 65.7944 155.136 65.7944 155.136C76.9964 148.622 77.8488 133.158 77.8488 130.844C77.8488 128.531 76.5095 122.26 76.5095 122.26C76.5095 122.26 68.8382 131.514 66.5246 136.08C64.2112 140.647 63.2981 143.325 61.593 148.257C61.593 148.257 61.2888 139.733 61.593 138.637C62.1412 136.811 66.281 132.062 66.281 132.062C66.281 132.062 68.1684 132.245 68.8989 130.905C69.6293 129.566 69.8119 127.435 68.0465 126.765C66.281 126.095 64.3326 127.983 64.3326 127.983C63.6628 129.566 64.5155 131.392 64.5155 131.392L61.593 134.01L61.715 125.669C61.715 125.669 64.0283 117.511 67.9861 111.118C69.6299 108.44 71.9432 104.665 71.9432 104.665C71.9432 116.232 65.3682 124.269 65.3682 124.269C76.5705 117.754 76.1443 105.699 76.1443 103.386C76.1443 101.011 75.84 93.2795 75.84 93.2795C75.84 93.2795 68.047 101.498 65.6727 106.065C63.3594 110.631 63.2984 113.492 61.5936 118.485C61.5936 118.485 61.2893 110.144 61.5936 109.048C62.1417 107.222 64.577 103.082 64.577 103.082C64.577 103.082 66.6471 103.812 67.4385 102.595C68.4735 101.011 68.7778 99.7939 66.7684 98.6372C65.1246 97.6629 63.2984 99.246 63.2984 99.246C62.6283 100.829 63.4201 102.229 63.4201 102.229L61.5936 104.421L61.7155 97.6022C61.7155 97.6022 63.1768 89.4437 67.1342 82.9902C68.7781 80.3114 71.9438 75.2579 71.9438 75.2579C71.9438 86.8865 65.7949 94.0706 65.7949 94.0706C75.536 87.0691 77.2406 74.5884 77.2406 72.2748C77.2406 69.9612 76.5104 62.9596 76.5104 62.9596C76.5104 62.9596 67.6214 72.3358 65.2471 76.9018C62.9338 81.4678 62.2027 85.4252 61.5942 90.357C61.5942 90.357 61.2899 80.9809 61.5942 79.8852C62.1423 78.0585 63.9075 74.7711 63.9075 74.7711C63.9075 74.7711 65.43 75.1973 66.1605 73.8577C66.8906 72.5184 66.2211 70.9962 64.8819 70.3267C63.1773 69.4133 62.4466 70.692 62.4466 70.692C61.7765 72.2748 62.5685 74.1013 62.5685 74.1013L61.168 75.2579L61.0463 68.3783C61.0463 68.3783 63.299 60.7073 67.2562 54.2536C68.9003 51.575 73.101 46.278 73.101 46.278C73.101 57.9068 66.769 64.6644 66.769 64.6644C77.9716 58.1501 77.1192 47.7392 77.1192 45.4256C77.1192 39.2155 76.3887 37.3893 76.3887 37.3893C76.3887 37.3893 66.83 45.9734 64.5166 50.6007C62.203 55.1667 61.3506 59.7939 59.7068 64.7861C59.6663 50.6613 59.6258 36.5366 59.5851 22.4118C64.0352 30.1097 63.7081 37.4665 63.299 46.1563C63.299 46.1563 65.369 39.6417 65.9169 34.1623C66.4644 28.6222 63.1771 23.2645 62.3246 21.9859C61.4722 20.7076 59.3412 14.2539 59.3412 14.2539C59.3412 14.2539 59.037 17.2983 56.4188 22.1685C53.7402 27.0391 53.314 31.6054 53.2531 34.6495C53.0704 39.3374 57.6367 50.5397 58.002 51.1488C58.4891 52.1838 58.1849 65.9431 58.1849 65.9431C53.314 61.9249 51.1223 59.8549 49.5395 57.3589C46.7996 53.1579 45.7037 45.3652 45.7037 45.3652C45.7037 45.3652 48.5651 48.5919 50.2699 50.2967C51.9745 52.0015 56.0536 58.8811 56.0536 58.8811C56.906 49.5659 42.5379 37.6332 42.5379 37.6332C42.5379 37.6332 41.381 53.4624 46.3734 61.0728C49.7221 66.2479 58.6108 69.9618 58.6108 69.9618V75.8673L56.4801 74.528C56.4801 74.528 57.1501 72.5797 56.2974 71.1184C56.2974 71.1184 54.1667 69.4139 52.4619 70.266C50.8178 71.1184 51.2443 73.2494 52.0357 74.5278C52.8878 75.8064 54.8362 75.3802 54.8362 75.3802C54.8362 75.3802 57.6977 77.9374 58.4282 79.7026C58.8541 80.7376 58.6108 95.7757 58.6108 95.7757C53.7402 91.7576 52.1574 89.1397 50.5742 86.6432C47.8347 82.4424 46.1299 75.4408 46.1299 75.4408C46.1299 75.4408 49.5395 78.1804 51.244 79.8852C52.8878 81.5897 56.0536 87.7389 56.0536 87.7389C56.906 78.4237 42.5379 65.0904 42.5379 65.0904C42.5379 65.0904 41.6858 80.7373 46.3734 88.591C50.2093 95.0447 58.6108 98.6366 58.6108 98.6366V104.42L55.4453 102.107C55.4453 102.107 56.0538 100.219 55.2624 98.6973C55.2624 98.6973 53.1317 97.0535 51.4266 97.8449C49.7221 98.6973 50.1483 100.828 51.0004 102.107C51.8528 103.385 53.7402 102.959 53.7402 102.959C53.7402 102.959 57.6977 107.099 58.4282 108.865C58.8541 109.899 58.6108 124.937 58.6108 124.937C53.7402 120.919 52.1574 118.301 50.5742 115.866C47.8347 111.604 46.1299 104.664 46.1299 104.664C46.1299 104.664 49.5395 107.403 51.244 109.047C52.8878 110.751 56.0536 116.901 56.0536 116.901C56.906 107.586 42.5379 94.2524 42.5379 94.2524C42.5379 94.2524 41.6858 109.899 46.3734 117.753C50.2093 124.267 58.7327 127.859 58.7327 127.859L58.6108 134.008L55.4453 131.695C55.4453 131.695 56.0538 129.808 55.2624 128.286C55.2624 128.286 53.1317 126.641 51.4266 127.494C49.7221 128.286 50.1483 130.417 51.0004 131.695C51.8528 132.973 53.7402 132.547 53.7402 132.547C53.7402 132.547 57.6977 136.687 58.4282 138.453C58.8541 139.488 58.6108 154.526 58.6108 154.526C53.7402 150.508 52.1574 147.889 50.5742 145.454C47.8347 141.192 46.1299 134.252 46.1299 134.252C46.1299 134.252 49.5395 136.991 51.244 138.696C52.8878 140.34 56.0536 146.489 56.0536 146.489C56.906 137.174 42.5379 123.841 42.5379 123.841C42.5379 123.841 41.6858 139.488 46.3734 147.342C50.2093 153.856 58.6108 157.509 58.6108 157.509V165.302L55.4453 162.988C55.4453 162.988 56.0538 161.101 55.2624 159.579C55.2624 159.579 53.1317 157.935 51.4266 158.726C49.7221 159.579 50.1483 161.71 51.0004 162.988C51.8528 164.267 53.7402 163.841 53.7402 163.841C53.7402 163.841 57.6977 167.981 58.4282 169.746C58.8541 170.781 58.6108 185.819 58.6108 185.819C53.7402 181.801 52.1574 179.183 50.5742 176.747C47.8347 172.486 46.1299 165.545 46.1299 165.545C46.1299 165.545 49.5395 168.285 51.244 169.929C52.8878 171.633 56.0536 177.783 56.0536 177.783C56.906 168.468 42.5379 155.134 42.5379 155.134C42.5379 155.134 41.6858 170.781 46.3734 178.635C50.2093 185.149 58.6108 188.559 58.6108 188.559V196.352L55.4453 194.038C55.4453 194.038 56.0538 192.151 55.2624 190.69C55.2624 190.69 53.1317 188.985 51.4266 189.837C49.7221 190.69 50.1483 192.76 51.0004 194.038C51.8528 195.317 53.7402 194.891 53.7402 194.891C53.7402 194.891 57.6977 199.092 58.4282 200.796C58.8541 201.892 58.6108 216.869 58.6108 216.869C53.7402 212.851 52.1574 210.233 50.5742 207.798C47.8347 203.597 46.1299 196.595 46.1299 196.595C46.1299 196.595 49.5395 199.335 51.244 201.04C52.8878 202.744 56.0536 208.833 56.0536 208.833C56.906 199.579 42.5379 186.245 42.5379 186.245C42.5379 186.245 41.6858 201.892 46.3734 209.685C50.2093 216.199 59.037 219.852 59.037 219.852C59.4632 224.053 60.3156 229.593 60.3156 229.593C56.4798 227.462 57.3322 225.758 57.3322 225.758C57.3322 225.758 57.7584 224.053 56.4798 222.774C55.2624 221.557 53.9835 220.704 52.279 221.557C50.5742 222.409 51.4266 224.053 51.8528 225.331C52.279 226.61 54.41 227.462 54.41 227.462C55.6886 229.167 61.7765 233.794 61.7765 233.794C67.0735 248.832 81.0154 252.424 81.0154 252.424L78.336 243.234ZM76.5702 246.034C76.3873 247.313 76.144 247.557 74.8654 246.704C73.648 245.852 70.9082 244.147 69.2034 240.981C69.2034 240.981 74.0742 244.573 75.2916 244.817C76.5702 245 76.8138 244.817 76.5702 246.034ZM245.155 199.521C242.78 204.087 241.867 206.522 240.223 211.515C240.223 211.515 239.919 202.078 240.223 200.982C240.71 199.156 244.85 194.407 244.85 194.407C244.85 194.407 246.799 194.65 247.529 193.25C248.199 191.91 248.442 189.779 246.677 189.11C244.911 188.44 242.963 190.327 242.963 190.327C242.293 191.91 243.085 193.737 243.085 193.737L240.162 196.355L240.284 186.796C240.284 186.796 243.268 178.881 247.225 172.428C248.869 169.749 252.461 164.452 252.461 164.452C252.461 176.08 244.424 186.431 244.424 186.431C255.626 179.916 255.809 164.026 255.809 161.712C255.809 159.399 255.079 153.554 255.079 153.554C255.079 153.554 247.042 163.234 244.729 167.801C242.354 172.367 241.867 174.619 240.223 179.551C240.223 179.551 239.919 171.027 240.223 169.931C240.711 168.105 244.851 163.356 244.851 163.356C244.851 163.356 246.799 163.539 247.529 162.199C248.199 160.859 248.442 158.728 246.677 158.059C244.911 157.389 242.963 159.277 242.963 159.277C242.293 160.859 243.085 162.686 243.085 162.686L240.163 165.304L240.284 155.502C240.284 155.502 243.268 147.587 247.225 141.133C248.869 138.455 252.461 133.158 252.461 133.158C252.461 144.786 244.425 155.136 244.425 155.136C255.627 148.622 256.479 133.158 256.479 130.844C256.479 128.531 255.079 122.26 255.079 122.26C255.079 122.26 247.468 131.514 245.155 136.08C242.78 140.647 241.867 143.325 240.223 148.257C240.223 148.257 239.919 139.733 240.223 138.637C240.71 136.811 244.85 132.062 244.85 132.062C244.85 132.062 246.799 132.245 247.529 130.905C248.199 129.566 248.442 127.435 246.677 126.765C244.911 126.095 242.963 127.983 242.963 127.983C242.293 129.566 243.085 131.392 243.085 131.392L240.162 134.01L240.284 125.669C240.284 125.669 242.658 117.511 246.555 111.118C248.199 108.44 250.573 104.665 250.573 104.665C250.573 116.232 243.998 124.269 243.998 124.269C255.201 117.754 254.774 105.699 254.774 103.386C254.774 101.011 254.47 93.2795 254.47 93.2795C254.47 93.2795 246.616 101.498 244.303 106.065C241.929 110.631 241.868 113.492 240.224 118.485C240.224 118.485 239.92 110.144 240.224 109.048C240.711 107.222 243.207 103.082 243.207 103.082C243.207 103.082 245.216 103.812 246.008 102.595C247.043 101.011 247.347 99.7939 245.399 98.6372C243.755 97.6629 241.929 99.246 241.929 99.246C241.198 100.829 242.05 102.229 242.05 102.229L240.163 104.421L240.285 97.6022C240.285 97.6022 241.746 89.4437 245.764 82.9902C247.347 80.3114 250.574 75.2579 250.574 75.2579C250.574 86.8865 244.425 94.0706 244.425 94.0706C254.166 87.0691 255.809 74.5884 255.809 72.2748C255.809 69.9612 255.079 62.9596 255.079 62.9596C255.079 62.9596 246.191 72.3358 243.877 76.9018C241.503 81.4678 240.833 85.4252 240.224 90.357C240.224 90.357 239.92 80.9809 240.224 79.8852C240.711 78.0585 242.538 74.7711 242.538 74.7711C242.538 74.7711 244.06 75.1973 244.79 73.8577C245.46 72.5184 244.851 70.9962 243.512 70.3267C241.807 69.4133 241.076 70.692 241.076 70.692C240.346 72.2748 241.198 74.1013 241.198 74.1013L239.737 75.2579L239.676 68.3783C239.676 68.3783 241.868 60.7073 245.825 54.2536C247.469 51.575 251.731 46.278 251.731 46.278C251.731 57.9068 245.338 64.6644 245.338 64.6644C256.541 58.1501 255.749 47.7392 255.749 45.4256C255.749 39.2155 255.019 37.3893 255.019 37.3893C255.019 37.3893 245.46 45.9734 243.146 50.6007C240.772 55.1667 239.98 59.7939 238.276 64.7861C238.235 50.6613 238.195 36.5366 238.154 22.4118C242.639 30.0669 242.327 37.4856 241.868 46.1563C241.868 46.1563 243.999 39.6417 244.546 34.1623C245.034 28.6222 241.746 23.2645 240.955 21.9859C240.102 20.7076 237.971 14.2539 237.971 14.2539C237.971 14.2539 237.667 17.2983 234.988 22.1685C232.37 27.0391 231.944 31.6054 231.822 34.6495C231.7 39.3374 236.267 50.5397 236.571 51.1488C237.119 52.1838 236.814 65.9431 236.814 65.9431C231.944 61.9249 229.752 59.8549 228.108 57.3589C225.368 53.1579 224.333 45.3652 224.333 45.3652C224.333 45.3652 227.195 48.5919 228.9 50.2967C230.543 52.0015 234.683 58.8811 234.683 58.8811C235.536 49.5659 221.168 37.6332 221.168 37.6332C221.168 37.6332 220.011 53.4624 224.942 61.0728C228.352 66.2479 237.24 69.9618 237.24 69.9618V75.8673L235.11 74.528C235.11 74.528 235.719 72.5797 234.927 71.1184C234.927 71.1184 232.796 69.4139 231.092 70.266C229.387 71.1184 229.813 73.2494 230.665 74.5278C231.518 75.8061 233.405 75.3802 233.405 75.3802C233.405 75.3802 236.327 77.9374 236.997 79.7026C237.423 80.7376 237.24 95.7757 237.24 95.7757C232.37 91.7576 230.787 89.1397 229.204 86.6432C226.464 82.4424 224.759 75.4408 224.759 75.4408C224.759 75.4408 228.108 78.1804 229.812 79.8852C231.517 81.5897 234.683 87.7389 234.683 87.7389C235.535 78.4237 221.167 65.0904 221.167 65.0904C221.167 65.0904 220.315 80.7373 224.942 88.591C228.839 95.0447 237.24 98.6366 237.24 98.6366V104.42L234.074 102.107C234.074 102.107 234.683 100.219 233.831 98.6973C233.831 98.6973 231.7 97.0535 230.056 97.8449C228.352 98.6973 228.778 100.828 229.63 102.107C230.482 103.385 232.37 102.959 232.37 102.959C232.37 102.959 236.327 107.099 236.997 108.865C237.423 109.899 237.24 124.937 237.24 124.937C232.37 120.919 230.787 118.301 229.204 115.866C226.464 111.604 224.759 104.664 224.759 104.664C224.759 104.664 228.108 107.403 229.812 109.047C231.517 110.751 234.683 116.901 234.683 116.901C235.535 107.586 221.167 94.2524 221.167 94.2524C221.167 94.2524 220.315 109.899 224.942 117.753C228.839 124.267 237.362 127.859 237.362 127.859L237.24 134.008L234.074 131.695C234.074 131.695 234.683 129.808 233.831 128.286C233.831 128.286 231.7 126.641 230.056 127.494C228.352 128.286 228.778 130.417 229.63 131.695C230.482 132.973 232.37 132.547 232.37 132.547C232.37 132.547 236.327 136.687 236.997 138.453C237.423 139.488 237.24 154.526 237.24 154.526C232.37 150.508 230.787 147.889 229.204 145.454C226.464 141.192 224.759 134.252 224.759 134.252C224.759 134.252 228.108 136.991 229.812 138.696C231.517 140.34 234.683 146.489 234.683 146.489C235.535 137.174 221.167 123.841 221.167 123.841C221.167 123.841 220.315 139.488 224.942 147.342C228.839 153.856 237.24 157.509 237.24 157.509V165.302L234.074 162.988C234.074 162.988 234.683 161.101 233.831 159.579C233.831 159.579 231.7 157.935 230.056 158.726C228.352 159.579 228.778 161.71 229.63 162.988C230.482 164.267 232.37 163.841 232.37 163.841C232.37 163.841 236.327 167.981 236.997 169.746C237.423 170.781 237.24 185.819 237.24 185.819C232.37 181.801 230.787 179.183 229.204 176.747C226.464 172.486 224.759 165.545 224.759 165.545C224.759 165.545 228.108 168.285 229.812 169.929C231.517 171.633 234.683 177.783 234.683 177.783C235.535 168.468 221.167 155.134 221.167 155.134C221.167 155.134 220.315 170.781 224.942 178.635C228.839 185.149 237.24 188.559 237.24 188.559V196.352L234.074 194.038C234.074 194.038 234.683 192.151 233.831 190.69C233.831 190.69 231.7 188.985 230.056 189.837C228.352 190.69 228.778 192.76 229.63 194.038C230.482 195.317 232.37 194.891 232.37 194.891C232.37 194.891 236.327 199.092 236.997 200.796C237.423 201.892 237.24 216.869 237.24 216.869C232.37 212.851 230.787 210.233 229.204 207.798C226.464 203.597 224.759 196.595 224.759 196.595C224.759 196.595 228.108 199.335 229.812 201.04C231.517 202.744 234.683 208.833 234.683 208.833C235.535 199.579 221.167 186.245 221.167 186.245C221.167 186.245 220.315 201.892 224.942 209.685C228.839 216.199 237.076 220 237.076 220C237.076 220 236.809 225.945 235.048 229.35C231.517 226.853 233.587 224.175 233.587 224.175C233.587 224.175 234.135 223.201 233.039 221.8C231.882 220.4 231.152 220.096 229.386 220.765C227.621 221.435 227.438 223.201 227.742 224.479C227.986 225.758 231.274 226.427 231.274 226.427C233.466 230.385 232.857 234.464 232.857 234.464C231.944 240.369 220.741 243.231 220.741 243.231L218.002 252.424C218.002 252.424 231.944 248.832 237.24 233.794C237.24 233.794 243.39 229.167 244.668 227.462C244.668 227.462 246.738 226.61 247.164 225.331C247.591 224.053 248.443 222.409 246.738 221.557C245.094 220.705 243.816 221.557 242.537 222.774C241.259 224.053 241.685 225.758 241.685 225.758C241.685 225.758 242.537 227.462 238.702 229.593C239.882 223.463 240.285 218.695 240.285 218.695C240.285 218.695 243.268 209.928 247.225 203.474C248.869 200.796 252.461 195.56 252.461 195.56C252.461 207.188 244.425 217.538 244.425 217.538C255.627 210.963 256.479 195.56 256.479 193.185C256.479 190.872 255.079 184.601 255.079 184.601C255.079 184.601 247.469 194.894 245.155 199.521ZM224.149 246.704C222.871 247.557 222.688 247.313 222.445 246.034C222.262 244.817 222.445 244.999 223.723 244.817C225.002 244.574 229.872 240.981 229.872 240.981C228.167 244.147 225.428 245.852 224.149 246.704ZM165.154 243.234C163.145 243.234 151.821 243.234 151.334 243.234C150.786 243.234 148.655 242.564 147.802 241.407L145.489 249.261C145.489 249.261 145.611 251.453 148.168 251.453C150.664 251.453 159.553 251.453 159.553 251.453V267.83C159.553 267.83 166.006 265.273 166.311 265.09C166.615 264.847 166.859 264.786 166.859 263.386C166.859 262.046 166.859 245.304 166.859 245.304C166.859 245.304 167.163 243.234 165.154 243.234ZM164.728 247.861C164.728 247.861 164.728 260.343 164.728 261.438C164.728 262.534 164.545 262.656 164.302 262.778C164.059 262.961 162.293 263.326 162.293 263.326V248.957C162.293 248.957 154.013 248.957 151.943 248.957C149.934 248.957 149.873 247.131 149.873 247.131L150.36 245C151.029 245.974 152.734 246.462 153.16 246.462C153.525 246.462 161.623 246.462 163.267 246.462C164.85 246.461 164.728 247.861 164.728 247.861ZM216.113 242.016C214.834 242.016 211.851 242.442 210.634 242.26C209.355 242.016 207.65 241.225 207.65 241.225L204.241 250.722C205.093 251.574 209.355 251.149 209.355 251.149L208.503 258.089L215.504 256.202C214.834 253.888 216.965 247.313 217.574 245.243C218.244 243.112 217.391 242.016 216.113 242.016ZM214.591 247.983C214.165 249.444 213.556 252.306 213.556 254.071L211.851 254.558L212.46 249.384C212.46 249.384 210.816 250.053 208.868 249.384L210.086 246.218C210.086 246.218 211.06 246.157 211.973 246.34C212.825 246.461 213.008 246.401 213.86 246.401C214.773 246.401 215.078 246.461 214.591 247.983ZM138.975 258.516C138.122 258.089 138.975 256.628 138.975 256.628C138.975 256.628 140.984 255.35 141.592 254.741C142.201 254.071 142.749 253.584 142.749 252.001C142.749 251.149 142.749 245.609 142.749 244.574C142.749 243.538 142.993 243.112 141.714 242.869C140.436 242.686 137.452 242.686 136.174 242.686C134.956 242.686 133.678 242.26 133.678 242.26C133.434 243.721 130.938 250.053 130.938 250.053C131.547 250.479 132.825 250.479 133.861 250.723C134.956 250.906 134.287 250.906 134.713 251.575C135.139 252.184 134.713 255.35 134.713 255.35C130.695 253.645 120.162 244.148 119.31 243.539C118.458 242.869 117.605 243.113 117.361 243.721C117.179 244.391 114.013 248.836 114.013 248.836C114.013 248.836 115.291 254.741 115.474 257.237C115.717 259.795 114.196 267.648 114.196 267.648H124.911L127.651 260.769H121.806C121.806 260.769 121.806 256.872 121.806 256.02C121.806 255.168 122.232 255.168 122.232 255.168C122.232 255.168 137.452 266.552 138.548 267.222C139.583 267.831 139.766 267.405 139.766 267.405L142.992 260.83C141.897 260.464 139.766 258.942 138.975 258.516ZM136.418 245.365C136.418 245.365 137.392 245.669 138.366 245.669C139.34 245.669 139.036 245.609 140.01 245.609C141.045 245.609 140.862 246.887 140.862 247.679C140.862 248.531 140.862 248.531 140.862 249.201C140.862 250.479 140.741 252.002 140.375 252.428C139.888 252.976 138.366 253.95 138.366 253.95C138.366 253.95 138.914 249.932 138.61 249.445C138.244 248.958 138.731 248.958 137.939 248.775C137.087 248.592 135.809 249.018 135.322 248.714C135.322 248.714 136.235 246.522 136.418 245.365ZM139.036 264.604C139.036 264.604 138.549 264.117 137.757 263.63C136.905 263.143 120.223 251.514 120.223 251.514C120.223 251.514 120.101 252.732 120.101 253.402C120.101 254.072 120.284 262.534 120.284 262.534H125.033L123.572 264.909H117.848C117.848 264.909 118.579 259.43 118.458 257.481C118.275 255.29 117.788 249.628 117.788 249.628C117.788 249.628 118.579 248.714 118.762 248.227C118.944 247.679 119.614 247.497 120.223 248.044C121.623 249.323 131.851 259.064 140.497 261.926L139.036 264.604ZM196.569 243.234L194.439 250.479L196.752 250.905C196.752 250.905 197.057 254.071 196.569 255.35C196.021 256.628 195.474 257.602 194.56 258.028C193.586 258.455 188.655 259.246 188.655 259.246C188.655 259.246 192.978 244.025 193.038 243.234H185.367L182.81 250.053L185.245 250.723C185.245 250.723 181.775 259.185 181.044 259.916C181.044 259.916 178.487 256.628 179.948 251.636C180.557 249.688 181.593 245.426 182.201 244.391C182.627 243.66 181.41 243.234 180.618 243.234C179.766 243.234 177.513 243.721 173.617 242.017L170.572 249.018C170.572 249.018 171.303 250.418 173.434 250.845C175.504 251.271 173.799 252.854 173.434 253.158C173.008 253.462 172.581 254.436 172.581 255.472C172.581 256.507 172.338 267.831 172.338 267.831C172.338 267.831 193.647 264.969 195.169 264.665C196.265 264.482 196.265 264.239 196.874 263.691C197.483 263.204 200.892 259.064 201.196 258.638C201.501 258.211 201.501 258.09 201.623 257.054C201.745 256.02 202.475 243.234 202.475 243.234H196.569V243.234ZM200.405 255.107C200.344 255.959 199.979 257.542 199.735 257.846C199.492 258.211 196.265 261.194 195.778 261.621C195.23 262.047 195.23 262.169 194.378 262.351C193.16 262.595 175.382 264.908 175.382 264.908C175.382 264.908 175.565 255.837 175.565 254.985C175.565 254.132 175.808 252.854 176.113 252.61C176.478 252.367 178.366 249.871 177.209 249.566C175.504 249.201 174.712 248.775 174.712 248.775L176.174 245.609C177.757 245.73 178.122 246.157 178.792 246.157C179.522 246.157 180.436 246.461 180.07 247.07C179.644 247.922 178.792 251.332 178.305 252.915C177.878 254.376 177.757 260.829 178.244 261.926C178.548 262.595 183.358 261.804 183.358 261.804C183.967 261.255 188.655 249.201 188.655 249.201H185.793L187.071 246.705H190.907C190.846 247.375 186.219 261.743 186.219 261.743C186.219 261.743 194.499 260.647 195.291 260.281C196.021 259.977 198.274 257.846 198.639 256.811C199.065 255.837 199.37 250.114 199.37 250.114L197.3 249.992L198.274 246.583L201.135 246.644C201.136 246.644 200.466 254.254 200.405 255.107Z" fill="white"/>
<path d="M156.209 147.041C156.176 147.019 156.141 146.995 156.108 146.971C156.049 146.928 155.991 146.883 155.932 146.836L155.933 146.836L155.951 146.861C155.969 146.885 155.985 146.911 156.001 146.937L156.003 146.938L156.209 147.041ZM155.695 146.635C155.774 146.705 155.853 146.772 155.932 146.836C155.866 146.75 155.79 146.677 155.695 146.635Z" fill="white"/>
<path d="M211.49 38.9129C208.568 37.8779 205.341 38.6696 203.637 39.5218C201.932 40.3739 200.653 44.2704 202.358 45.9752C204.063 47.68 203.15 52.0636 203.515 53.7682C203.88 55.2903 203.211 57.9082 203.211 57.9082C202.602 58.7604 203.576 61.9264 203.028 62.5962C201.932 63.8138 202.48 65.7622 202.48 65.7622C202.48 65.7622 202.176 66.6146 201.932 67.8322C201.749 69.1108 201.749 71.2416 201.749 71.2416C201.932 73.129 201.323 75.2597 201.323 75.2597C201.323 75.2597 200.41 78.8516 199.436 81.1653C198.766 82.6262 199.74 83.296 198.036 85.6096C198.036 85.6096 197.305 88.5927 196.879 89.9323C196.879 89.9323 194.565 92.185 193.287 94.0724C193.287 94.0724 191.156 96.9339 190.242 98.5167C190.242 98.5167 189.451 99.5517 187.99 101.987C187.99 101.987 183.363 103.814 182.632 105.701C182.267 106.553 178.249 107.832 175.448 110.267C175.022 110.572 170.76 112.276 170.029 112.337C170.029 112.337 166.437 112.642 165.402 113.738C165.402 113.738 160.288 114.773 159.436 115.199C159.436 115.199 158.117 115.561 156.895 115.814C156.786 113.991 156.513 111.85 156.513 111.85C156.714 111.57 156.783 110.809 156.791 109.832L157.001 109.841C158.705 109.902 164.002 107.711 164.002 107.711C169.238 107.163 171.795 104.545 171.795 104.545C174.656 104.119 174.778 102.84 174.778 102.84C175.935 102.657 178.675 101.379 178.675 101.379C180.258 101.135 181.78 98.0307 181.78 98.0307C182.206 97.6652 183.85 95.9607 183.85 95.9607C186.103 94.9256 187.99 90.9075 188.538 90.1767C189.938 88.2286 190.364 86.7674 190.73 86.2196C191.704 85.0019 193.469 79.0354 193.895 77.3916C194.321 75.7477 194.87 75.0779 195.417 71.2424C196.026 66.7978 196.331 61.1968 196.331 61.1968C196.27 58.2134 196.574 56.5695 196.574 56.5695C196.574 56.5695 196.026 54.5605 196.026 52.8556C196.026 51.1508 196.452 46.5239 198.157 43.9667C199.861 41.4095 197.061 38.4263 193.895 38.2437C190.12 38.0611 188.659 39.5223 186.955 40.3744C185.25 41.2268 183.119 45.1233 184.824 46.8281C186.528 48.533 186.468 52.0642 186.833 53.7687C187.137 55.2909 187.381 58.335 187.381 58.335C186.711 59.1871 186.711 60.8919 186.711 61.7443C186.711 62.5967 186.224 64.2406 186.224 64.2406C186.224 64.2406 185.859 65.9451 186.102 67.224C186.346 68.7462 186.528 70.39 186.528 70.39C184.824 70.8162 185.676 75.2606 185.676 75.2606C185.676 75.2606 183.119 79.0354 182.51 81.4097C182.084 82.9929 181.049 84.1495 179.831 86.4629C179.831 86.4629 178.371 87.0107 178.066 87.4369C178.066 87.4369 174.23 89.446 173.013 92.3684C173.013 92.3684 169.603 93.769 168.629 95.3518C168.629 95.3518 165.281 95.9607 164.124 97.1176C164.124 97.1176 158.705 99.9181 157.853 100.222C157.515 100.347 157.187 100.415 156.852 100.445C156.899 97.9999 156.754 95.5607 156.499 93.2593C162.854 92.2983 168.233 89.538 169.847 87.9244C171.491 86.2196 170.639 85.7934 171.917 85.4281C173.196 85.0019 174.657 81.1664 175.935 79.8878C177.092 78.7308 177.457 76.5392 178.675 73.7996C180.623 69.5986 180.623 65.5195 180.623 65.5195C182.267 63.3885 180.197 60.0401 180.197 60.0401C180.197 60.0401 180.623 56.2049 180.623 54.561C180.623 52.8562 180.806 48.1683 181.415 45.4285C182.145 42.506 182.267 40.8015 179.344 39.7665C176.483 38.7315 171.917 38.6708 170.212 39.5232C168.568 40.3753 164.733 44.3937 166.437 46.0985C168.142 47.7424 170.212 51.5779 170.638 53.2827C171.064 54.9872 171.49 59.7971 171.49 59.7971C170.882 60.6495 171.734 61.0757 171.734 61.9278C171.734 62.7799 171.734 63.3887 171.734 63.3887C171.734 63.3887 171.064 68.9291 169.847 69.7815C168.568 70.5729 168.994 72.7036 168.994 72.7036C167.29 73.1298 166.437 77.1483 166.437 77.1483C166.437 77.1483 163.758 80.0097 162.601 80.7402C160.105 82.445 159.253 82.2621 156.696 82.6276C156.305 82.6929 155.731 82.8151 155.068 82.9553C154.951 81.0553 154.991 79.7052 154.991 79.7052C154.991 79.7052 155.235 78.0004 155.235 76.2959C155.235 74.5913 154.382 74.4084 154.382 74.4084L155.234 72.521C155.234 72.521 156.087 72.0948 156.087 71.2424C156.087 70.39 155.234 69.7812 155.234 69.7812C155.66 69.1114 155.234 65.763 155.234 64.4844C155.234 63.2058 154.808 61.5013 154.808 61.5013C155.234 59.7965 154.991 56.6308 154.625 55.5958C154.199 54.561 153.773 52.1864 154.382 50.9688C154.991 49.6902 157.366 45.8547 158.218 44.5761C159.009 43.3584 159.862 40.8012 153.53 38.6705C147.198 36.5395 144.215 39.34 142.145 40.375C140.014 41.41 140.866 44.5761 140.866 45.8544C140.866 47.1327 144.884 50.1161 144.884 51.3947C144.884 52.6123 144.458 53.7083 144.458 54.9869C144.458 56.2046 144.215 57.3006 144.641 57.9094C144.641 57.9094 143.18 58.7615 143.18 59.3703C143.18 60.0401 144.032 60.6489 144.458 61.5013C144.884 62.3537 144.215 62.3537 144.215 62.3537C144.215 62.3537 142.997 63.8147 143.18 64.6671C143.362 65.5195 143.606 66.981 144.458 67.2243C145.311 67.4072 143.788 68.2593 144.458 69.1117C144.458 69.1117 143.606 69.9641 143.606 71.2424C143.606 72.5207 145.067 73.9819 145.067 73.9819C145.067 73.9819 143.789 74.4082 144.032 75.2606C144.032 75.2606 143.362 76.7218 143.362 77.8178C143.362 78.6377 143.516 80.5282 143.67 83.0641L143.606 83.0535C141.049 82.6883 137.7 81.9576 135.995 79.4616C134.534 77.3916 133.256 76.9654 133.256 76.9654C133.256 76.9654 132.403 72.9472 130.699 72.521C130.699 72.521 131.125 70.3903 129.846 69.5379C128.568 68.6855 127.776 64.2409 127.776 64.2409C127.776 64.2409 128.385 63.3885 128.385 62.597C128.385 61.7446 128.568 61.5013 127.959 60.6489C127.959 60.6489 127.959 54.9869 128.385 53.2824C128.811 51.5776 130.942 47.7421 132.586 46.0982C134.291 44.3934 133.864 41.4103 132.16 40.5579C130.516 39.7665 122.601 38.7312 119.74 39.7665C116.756 40.8015 114.626 42.9322 116.33 45.4285C118.035 47.9857 119.07 52.0041 119.07 53.7086C119.07 55.3525 119.496 59.188 119.496 59.188C119.496 59.188 118.217 62.1711 119.922 64.2411C119.922 64.2411 120.348 69.5989 122.236 73.7999C123.514 76.5394 123.21 78.9747 124.366 80.1317C125.645 81.4103 127.106 84.5763 128.384 85.0025C129.663 85.4287 128.811 85.7939 130.515 87.4987C132.135 89.1788 136.712 92.9285 143.313 93.3866C143.266 94.0573 143.267 94.5259 143.361 94.6829C143.788 95.3527 144.214 96.2048 144.214 96.8136C144.214 97.2264 143.627 98.3387 143.325 99.8654C142.559 99.6668 141.667 99.3763 141.17 99.1273C139.769 98.5184 135.569 96.5094 135.569 96.5094C134.412 95.3527 131.003 94.9265 131.003 94.9265C130.089 93.3436 126.924 92.187 126.924 92.187C125.645 90.2386 124.366 89.0819 124.366 89.0819C124.062 88.6557 121.505 86.0375 121.505 86.0375C119.8 83.7242 118.461 82.202 117.791 80.7408C116.817 78.4271 114.625 75.6876 114.625 75.6876C114.625 75.6876 115.051 70.3909 113.347 69.9647C113.347 69.9647 112.677 68.747 112.921 67.2248C113.164 65.9462 112.86 64.2414 112.86 64.2414C112.86 64.2414 112.312 62.5976 112.312 61.7452C112.312 60.8928 112.555 60.6492 111.886 59.7971C111.886 59.7971 111.886 55.2918 112.19 53.7696C112.555 52.0651 111.277 47.2552 112.92 45.5504C114.625 43.8456 113.773 40.3753 112.129 39.5232C110.424 38.6708 106.528 37.8791 103.666 38.9144C100.683 39.9491 98.5521 42.0801 100.257 44.5763C101.961 47.1336 102.997 51.1517 102.997 52.8565C102.997 54.5613 103.118 57.3618 103.118 57.3618C103.118 57.3618 103.423 59.0666 103.301 62.0497C103.301 62.0497 103.849 66.7984 104.519 71.243C105.067 75.0785 105.554 75.7483 105.98 77.3921C106.406 79.036 108.172 82.8715 109.146 84.1501C109.572 84.6979 109.998 86.0982 111.337 88.0466C111.885 88.7773 114.016 94.0741 116.208 95.1091C116.208 95.1091 118.217 96.5094 118.643 96.8136C118.643 96.8136 120.47 100.102 122.053 100.284C122.053 100.284 124.549 102.232 125.767 102.415C125.767 102.415 126.924 104.302 129.785 104.729C129.785 104.729 131.002 106.677 135.264 107.042C135.264 107.042 139.709 109.051 141.352 108.99C141.352 108.99 142.191 109.205 143.82 109.401C143.931 110.052 144.061 110.542 144.214 110.755C144.214 110.755 143.702 113.986 143.617 115.976C142.096 115.767 139.587 115.2 139.587 115.2C138.734 114.774 133.681 113.739 133.681 113.739C132.585 112.643 129.846 111.912 129.846 111.912C129.115 111.851 125.523 109.964 125.097 109.599C122.235 107.164 118.035 105.459 117.73 104.667C116.939 102.719 113.59 101.806 113.59 101.806C112.129 99.3703 109.268 97.0569 109.268 97.0569C108.293 95.4131 106.589 93.8302 106.589 93.8302C105.31 91.9428 103.849 89.3249 103.849 89.3249C103.545 88.8987 102.936 85.0025 102.936 85.0025C101.231 82.6279 101.718 82.2017 101.109 80.7408C100.136 78.4271 98.5521 74.8352 98.5521 74.8352C98.5521 74.8352 98.1262 72.5216 98.3695 70.5735C98.3695 70.5735 97.3345 69.1125 97.0912 67.8339C96.9083 66.6163 97.2131 64.9115 97.2131 64.9115C97.2131 64.9115 97.9433 63.8155 96.9085 62.5979C96.3607 61.9281 96.6652 60.8931 96.0561 60.0407C96.0561 60.0407 95.204 55.2921 95.5083 53.7699C95.8735 52.0654 94.5342 47.2555 96.2388 45.5507C97.9433 43.8459 97.0912 40.3756 95.3864 39.5235C93.7425 38.6711 90.4548 38.4884 87.5934 39.5235C84.6102 40.5585 83.7578 43.359 85.4626 45.8552C87.1675 48.4124 86.315 51.1523 86.315 52.8568C86.315 54.5616 86.1931 56.7533 86.1931 56.7533C86.1931 56.7533 86.315 59.9193 86.1931 62.9024C86.1931 62.9024 86.4974 66.3727 87.1675 70.8171C87.715 74.6526 87.5934 74.2874 88.0196 75.8705C88.4458 77.575 88.3238 82.0194 89.2982 83.298C89.6634 83.8458 90.0893 85.2461 91.4896 87.1942C92.0377 87.9249 92.8898 92.7955 95.3254 94.6829C95.3254 94.6829 96.4821 99.1273 99.2219 101.258C99.2219 101.258 101.109 104.424 101.961 104.302C101.961 104.302 103.849 107.894 105.006 108.138C105.006 108.138 105.98 111.73 108.841 112.156C108.841 112.156 110.607 115.2 113.468 115.748C113.468 115.748 115.904 119.036 118.948 119.096C118.948 119.096 118.035 121.532 123.392 121.532L123.94 121.775C123.94 121.775 125.645 123.054 127.106 123.054C127.106 123.054 132.159 125.124 133.438 124.941C133.438 124.941 135.58 125.222 138.552 125.52V131.272C138.552 131.272 141.292 131.882 141.292 133.403C141.292 134.864 141.292 135.473 142.327 135.717C142.327 135.717 143.179 136.326 142.57 137.847C142.57 137.847 141.9 138.7 141.9 139.918C141.9 139.918 139.769 140.77 139.769 143.753H138.308V148.198H141.048C141.048 148.198 141.291 148.624 141.291 149.233C141.291 149.902 141.9 152.399 141.474 153.069C141.048 153.677 140.196 154.53 139.769 155.139C139.404 155.808 134.533 157.756 133.681 167.437C133.438 169.75 130.515 170.36 127.776 171.212H171.732C168.567 170.36 167.288 169.75 167.045 167.437C166.192 157.757 161.383 155.808 160.956 155.139C160.53 154.53 159.678 153.677 159.252 153.069C158.826 152.399 159.435 149.902 159.435 149.233C159.435 148.624 159.678 148.198 159.678 148.198H162.418V143.753H160.957C160.957 140.77 158.826 139.918 158.826 139.918C158.826 138.7 158.217 137.847 158.217 137.847C157.547 136.326 158.399 135.717 158.399 135.717C159.435 135.473 159.435 134.864 159.435 133.403C159.435 131.881 162.235 131.272 162.235 131.272V125.407C164.332 124.881 167.372 124.026 168.323 123.845C169.602 123.662 171.307 123.236 172.768 122.81C174.229 122.384 174.046 121.531 175.63 121.531C180.805 121.531 180.926 119.766 180.926 119.766C183.971 119.644 185.371 116.356 185.371 116.356C189.024 115.687 191.703 112.338 191.703 112.338C194.077 111.973 195.295 108.563 195.295 108.563C196.452 108.32 199.009 104.728 199.009 104.728C199.861 104.85 201.079 101.684 201.079 101.684C203.879 99.5529 205.036 93.8299 205.036 93.8299C207.472 91.9425 207.228 89.4463 207.776 88.6548C209.298 86.5241 209.42 83.7233 209.785 83.2971C210.698 82.0185 211.246 77.3916 211.672 75.6868C212.099 74.1039 211.977 74.4081 212.525 70.5726C213.134 66.1892 213.499 62.658 213.499 62.658C213.377 59.7355 212.829 56.7524 212.829 56.7524C212.829 56.7524 212.707 54.561 212.707 52.8562C212.707 51.1514 211.855 48.4116 213.559 45.8547C215.265 43.3573 214.413 39.948 211.49 38.9129ZM189.938 85.6706C189.39 86.6446 188.477 87.8625 187.624 86.8882C187.016 86.2187 185.98 86.2797 185.676 85.6706C185.311 84.8791 186.589 84.9401 186.833 84.0877C187.076 82.931 188.172 84.6358 188.964 84.6965C189.451 84.6965 190.181 85.1837 189.938 85.6706ZM193.286 70.8154C192.921 71.1806 191.886 71.1196 191.338 70.8154C189.431 69.7427 191.549 68.1445 192.096 66.7642C192.044 66.0098 191.979 65.24 192.251 64.6052C192.312 64.4223 192.312 64.0574 192.556 63.9964C192.982 63.7531 193.53 63.9964 193.713 64.2397C195.356 66.2494 194.991 69.1108 193.286 70.8154ZM188.294 44.9404C189.573 44.6969 190.79 44.6969 191.825 44.3316C192.13 44.2097 192.678 44.2097 192.982 43.8445C193.469 43.2356 193.652 42.3835 194.261 42.018C194.87 41.6525 195.6 42.018 195.844 42.6268C196.148 43.3573 196.027 44.3316 195.844 45.1231C195.6 46.0364 194.809 46.7669 194.505 47.6803C194.2 48.4717 194.444 49.3241 194.383 50.2375C194.017 53.1599 194.505 56.0824 194.87 59.1264C194.931 59.5526 194.748 60.5874 194.017 60.9529C192.8 61.562 191.521 61.7443 190.243 61.7443C189.932 61.7443 189.783 61.4517 189.772 61.1281C189.768 61.0087 189.784 60.8851 189.817 60.7703L189.573 61.3791C189.451 60.5877 190.365 60.6486 190.608 60.1005C190.791 59.6743 190.912 59.1264 190.973 58.6396C191.4 56.7521 190.912 55.0473 190.243 53.4035C191.034 53.5864 191.582 52.9773 191.826 52.3075C192.435 50.4201 192.557 47.8632 190.73 46.7672C190 46.341 188.843 46.4019 187.93 46.0974C187.198 45.9145 187.563 45.0621 188.294 44.9404ZM187.503 73.2509C187.564 73.1899 187.746 73.2509 187.868 73.2509L188.111 74.1033C188.131 74.0065 188.162 73.9153 188.195 73.8267C188.263 73.6369 188.336 73.4583 188.294 73.2509C189.999 73.129 191.825 73.4335 193.165 74.5295C192.556 76.1734 192.739 78.1824 191.521 79.461C190.973 80.0092 189.694 79.583 189.025 79.0348C188.598 78.6696 188.294 77.8782 188.842 77.6346C190.059 77.0258 190.912 76.1734 190.303 74.9557C189.755 73.8597 188.294 75.26 187.563 74.4079C187.381 74.2247 187.138 73.6159 187.503 73.2509ZM185.615 81.3479C187.381 80.4348 189.268 81.8348 191.034 82.3829C191.217 82.4439 191.521 82.8091 191.399 82.9308C190.912 83.4786 189.938 83.357 189.451 83.0524C188.355 82.3826 187.077 82.5046 186.042 81.8348C185.92 81.7134 185.311 81.5308 185.615 81.3479ZM181.414 90.6631C181.841 90.4198 182.51 90.6021 183.058 90.1759H181.962C182.32 90.1759 182.707 90.1314 183.058 90.0443C183.425 89.9531 183.754 89.8146 183.972 89.6283C184.459 89.2021 183.484 87.8628 184.52 87.7409C185.798 87.5583 186.833 88.4714 187.624 89.3847C188.111 89.9326 188.111 90.846 187.746 91.3331C187.381 91.9417 186.407 91.881 185.859 92.3679C185.493 92.6721 185.493 93.4029 185.067 93.7074C184.824 93.8294 184.276 94.1336 184.215 93.9507C184.033 93.5245 183.545 93.5245 183.363 93.1593C183.058 92.7331 182.206 92.5505 181.902 92.1852C181.475 91.6374 180.562 91.2112 181.414 90.6631ZM177.396 94.8638C177.639 94.5595 178.127 94.4376 178.553 94.316C179.162 94.0727 178.492 93.5855 178.614 93.0983C178.797 93.1593 178.918 93.0374 179.04 92.9157C178.797 92.9767 178.675 92.7938 178.797 92.7328C179.893 92.3066 180.38 93.7678 180.867 94.6202C180.989 94.8635 180.806 95.229 180.989 95.4117C181.354 95.8986 181.719 96.325 181.537 96.9336C181.476 97.0555 181.294 97.2378 181.111 97.2988C179.893 97.664 179.284 96.2641 178.371 95.655C178.188 95.594 177.945 95.7159 177.762 95.594C177.518 95.412 177.152 95.1077 177.396 94.8638ZM174.109 99.613C174.474 99.1258 175.448 100.1 176.24 99.8563L175.63 99.4301C177.335 99.3082 176.179 98.0298 176.483 96.9339C177.457 97.9689 178.614 99.3082 178.066 100.648C177.7 101.5 176.422 101.5 175.569 101.805C174.352 102.292 173.378 100.465 174.109 99.613ZM174.291 81.2265C173.926 81.7134 173.074 81.7134 172.769 81.2265C172.647 81.1046 172.465 80.8613 172.465 80.6174C172.404 80.3131 172.039 79.9479 172.1 79.8869C173.013 79.0955 174.17 79.0345 175.022 78.1212C175.752 79.3388 174.961 80.3131 174.291 81.2265ZM175.326 75.2597C174.839 75.0771 173.743 74.5902 173.013 74.2247C172.647 74.103 173.073 73.4332 173.256 73.3116C174.047 72.5808 174.961 72.7637 175.448 71.8504C175.752 71.1806 175.63 70.2675 176.239 70.0846C176.909 70.5718 178.187 70.2675 178.187 70.937C178.249 72.6418 176.787 75.8078 175.326 75.2597ZM179.04 68.3801C178.796 68.3194 178.675 68.5627 178.614 68.5627C177.335 68.5627 176.3 67.6493 175.022 67.467C174.839 67.406 174.109 67.406 174.413 66.9191C174.9 66.1887 175.813 66.0667 176.422 65.5796C176.97 65.0314 178.371 65.8838 178.492 67.1018C178.492 67.1624 178.857 67.406 178.979 67.5886C179.101 67.7713 179.04 68.0758 179.04 68.3801ZM179.953 62.2919C180.319 63.0833 179.831 64.9708 179.406 64.9098C177.457 64.1793 174.778 63.7531 175.448 62.9007C176.726 62.7791 177.335 63.205 178.614 63.0833C178.979 62.4745 179.406 61.2569 179.953 62.2919ZM170.577 46.7669C170.212 46.3407 170.273 45.5493 171.003 45.3666C173.682 44.8185 176.179 45.3057 178.796 44.9404C179.77 44.8185 179.466 45.5493 179.466 45.6709C179.344 47.2538 177.64 48.8976 178.492 50.5415C179.831 53.1593 179.04 55.7165 179.649 58.4561C179.832 59.3695 179.345 60.2219 178.919 60.6478C177.579 61.9264 175.448 61.2569 174.048 60.2216C173.378 59.7344 173.865 58.943 174.778 58.7604C175.387 58.6387 175.996 58.7604 176.422 58.5777C177.762 57.8473 177.884 56.0815 177.579 54.9248C177.275 53.8898 175.935 53.8898 174.779 54.0115C175.753 53.6462 177.153 52.3067 176.179 51.6372C175.448 51.15 174.352 51.0283 173.622 50.4802C173.135 50.2369 173.196 49.3235 172.77 48.7754C172.221 47.9845 171.247 47.558 170.577 46.7669ZM165.95 82.8094C166.498 82.6265 167.29 82.931 167.716 82.6875C168.386 82.2613 168.873 81.5305 169.42 80.9826C170.151 80.3129 171.308 81.1655 171.795 82.1396C172.038 82.6265 171.795 83.2353 171.551 83.5399C171.125 84.0267 170.882 84.7575 170.334 85.062C169.786 85.3053 169.299 85.6099 168.811 85.8535C167.29 86.4623 166.011 84.8185 165.646 83.4182C165.585 83.1137 165.828 82.8701 165.95 82.8094ZM119.68 46.1581C119.07 45.4273 119.558 44.4533 120.288 44.2097C122.176 43.4792 124.307 43.6009 126.377 44.0271C126.985 44.0878 127.655 44.1487 128.264 44.3313C129.299 44.6356 130.09 45.549 129.664 46.5843C129.055 47.9845 127.899 49.0805 127.29 50.4805C126.498 52.3069 127.533 54.316 127.229 56.3254C126.925 58.2128 125.646 59.4914 123.82 59.9176C123.211 60.0392 122.541 60.0392 122.236 59.4914C121.019 57.4823 123.881 57.2387 124.611 55.8992C124.794 55.5339 124.854 54.9251 124.611 54.7425C123.576 53.6468 123.089 52.4289 122.358 51.2722C121.688 50.1153 122.663 48.776 121.871 47.7409C121.323 47.0105 120.228 46.8279 119.68 46.1581ZM120.715 63.0833C120.593 62.9617 120.593 62.5355 120.715 62.5355C121.616 62.1563 122.629 62.1828 123.637 62.2136C123.922 62.2221 124.207 62.2312 124.489 62.2312H123.637C124.976 62.4141 126.377 61.805 127.594 62.5355C127.716 62.5964 127.716 62.9617 127.594 63.0833C126.62 64.1186 125.281 63.3269 124.003 63.6315C122.906 63.8748 121.628 64.1793 120.715 63.0833ZM126.62 68.1975C126.681 69.1108 124.794 69.2325 123.82 69.4151C123.82 69.2932 123.82 68.7453 123.82 68.6237C124.915 68.6846 126.438 66.9189 126.62 68.1975ZM124.185 73.1899C124.139 73.2361 123.814 73.3862 123.58 73.2458C123.574 73.3039 123.562 73.3617 123.541 73.4204C123.512 73.505 123.464 73.5908 123.393 73.6768V73.007C123.438 73.1258 123.505 73.2002 123.58 73.2455C123.627 72.7407 123.169 72.2652 123.454 71.7894C123.637 71.4242 124.124 71.3022 124.489 71.1806C125.89 70.6937 127.412 70.7544 128.873 70.9977C129.421 71.1196 130.151 71.5458 129.664 71.8501C127.96 72.9464 125.768 71.4851 124.185 73.1899ZM127.838 79.0955C127.412 79.2174 127.229 79.7653 127.046 79.7043C126.377 79.461 127.107 78.9739 126.925 78.4257C127.29 78.4867 127.229 77.5733 127.655 77.6953C127.533 76.0514 128.994 74.8338 130.334 75.321C130.821 75.4429 131.43 76.1124 131.186 76.7819C130.578 78.1212 129.299 78.791 127.838 79.0955ZM130.09 82.2613C129.603 81.6524 130.273 80.7393 131.004 80.1912C131.856 79.4607 132.526 78.73 133.5 79.4607C133.683 79.5827 133.622 80.0699 133.561 80.4348C133.256 81.5305 132.039 81.3479 131.369 82.0786C131.065 82.4442 130.273 82.5048 130.09 82.2613ZM143.485 90.9676C140.562 91.0893 137.701 90.1152 135.083 88.7759C133.074 87.8019 130.821 86.158 132.099 83.9661C132.648 82.992 133.317 84.6358 133.865 85.4273C136.179 88.8973 140.319 88.654 143.667 90.4195C143.789 90.4807 143.789 90.9676 143.485 90.9676ZM103.911 45.7319C103.546 45.0621 103.972 44.4533 104.337 43.9664C104.398 43.8444 104.641 43.9054 104.763 43.9054C104.702 43.9664 104.702 43.9664 104.641 44.0274C106.65 44.149 107.564 43.7228 109.512 43.6621C109.756 43.6621 110.791 44.21 110.973 44.21C110.547 45.4276 110.486 47.1324 110.364 48.35C110.121 50.5417 110.182 52.6727 110.547 54.9254C110.791 56.6909 110.304 58.3957 110.364 60.1612C110.303 60.1612 110.182 60.1612 110.182 60.2219C109.938 61.5614 110.182 60.2219 109.451 61.4395C109.268 61.8047 108.721 61.8657 108.355 61.7438C107.807 61.5005 107.32 60.8307 107.503 60.2216C108.233 57.6037 108.72 57.7863 108.416 55.1074C108.294 54.1337 107.686 53.1593 106.894 52.5502C106.65 52.3676 106.346 52.124 106.224 51.8198C105.615 50.4802 106.224 48.8973 105.676 47.558C105.311 46.7669 104.337 46.4623 103.911 45.7319ZM104.824 63.5095C104.764 63.3876 104.764 62.9617 104.824 62.9617C105.771 62.5831 106.755 62.609 107.747 62.6395C108.031 62.648 108.314 62.6574 108.599 62.6574H107.747C109.086 62.84 110.487 62.2312 111.765 62.9617C111.826 63.0227 111.887 63.3879 111.765 63.5095C110.791 64.5446 109.391 63.7531 108.173 64.0577C107.077 64.301 105.738 64.6055 104.824 63.5095ZM109.086 70.5718C110.182 70.2675 109.999 69.0499 110.487 68.5627C111.4 67.6493 112.069 69.2325 112.252 70.0846C112.617 71.7894 110.669 72.1546 109.269 71.6678C108.903 71.5461 108.538 70.7544 109.086 70.5718ZM111.704 80.3741C111.461 80.6174 110.73 80.4958 110.547 80.0089C110.425 79.6436 110.73 79.2175 110.912 79.2781C111.521 79.2778 112.191 79.765 111.704 80.3741ZM110.913 83.9661C110.487 84.1487 110.06 83.7834 109.695 83.5399C109.573 83.4789 109.634 83.1137 109.695 82.992C110.487 82.5051 111.339 82.2003 112.191 81.896C112.374 81.896 112.557 81.896 112.618 81.957C113.347 82.992 111.765 83.6618 110.913 83.9661ZM112.191 87.9235C111.948 87.9235 111.339 87.4973 111.643 87.0101C111.947 86.5839 112.556 86.5839 113.044 86.3406C113.104 86.28 113.044 85.9751 113.044 85.9751C113.591 85.7925 114.2 85.9751 114.748 86.158C114.383 87.1928 113.226 87.9842 112.191 87.9235ZM159.314 105.762C160.349 105.397 161.323 105.275 162.297 104.848C168.568 102.413 169.482 100.952 170.821 100.587C171.247 100.465 173.256 102.778 172.708 103.083C169.908 104.423 167.838 105.397 163.332 107.101C159.132 108.684 157.366 108.684 152.922 108.441C152.495 108.441 151.521 107.832 149.938 107.65C149.329 107.589 148.234 107.284 148.66 107.041C151.947 105.092 155.844 106.98 159.314 105.762ZM154.87 115.929C153.835 116.538 152.556 116.356 151.582 115.99C150.121 115.443 150.365 113.373 149.756 111.972C149.634 111.546 149.086 111.363 148.72 111.181C147.685 110.693 146.346 110.693 145.616 109.598C145.92 109.598 146.164 109.78 146.468 109.78C149.634 110.085 152.8 110.389 155.966 110.267C155.661 112.094 156.94 114.773 154.87 115.929ZM159.923 87.9235C160.654 87.5583 161.445 86.8882 162.175 86.523C162.724 86.2187 163.271 85.4273 164.002 85.7315C165.098 86.2187 165.402 87.8016 164.732 88.2888C162.297 90.2369 159.436 90.9066 156.392 91.6374C153.226 92.3679 146.59 92.7941 146.894 90.1762C147.46 90.1762 148.306 90.3163 149.086 90.4229C149.339 90.4579 149.585 90.4887 149.813 90.5106L150.103 90.493C153.617 90.2648 156.643 89.4243 159.923 87.9235ZM151.947 71.7894C152.861 70.8763 151.399 70.2675 151.887 69.8413C153.165 68.8063 154.322 71.9113 153.652 72.8857C152.617 74.4076 150.364 73.7381 148.599 73.5552C148.051 73.4945 147.625 72.5204 148.173 72.3375C149.33 71.9113 150.669 72.2769 151.947 72.1549C151.947 72.1546 151.887 71.8504 151.947 71.7894ZM150.242 78.5474V79.3998C150.289 79.2311 150.319 79.0602 150.339 78.889C150.476 77.697 150.099 76.454 150.79 75.4426C151.095 75.0164 152.008 74.9554 152.556 75.0164C152.86 75.0771 153.104 75.6862 153.104 75.9905C153.287 78.0605 154.261 80.4351 152.982 81.896C151.704 83.4182 148.66 82.7484 146.468 82.2003C145.737 82.0177 145.554 80.6174 146.103 80.3738C147.442 79.826 148.903 79.2778 150.242 78.5474ZM145.007 45.4273C144.824 45.3666 144.337 44.9404 144.58 44.5142C144.641 44.4533 144.824 44.5142 145.007 44.5142L144.763 45.1231C144.843 45.0692 144.923 45.0208 145.004 44.9772C146.296 44.2849 147.833 44.847 149.208 44.3316C149.756 44.0883 149.999 43.4182 150.669 43.4182C150.547 42.8704 151.217 42.8097 151.278 42.3835C151.461 41.6528 151.156 40.983 151.095 40.2528C153.774 40.3138 156.209 43.2359 155.357 45.6715C155.053 46.5239 154.505 47.2543 153.713 47.9848C152.8 48.8372 152.556 50.2375 152.252 51.5161C151.522 54.4385 153.774 56.9954 153.348 59.9179C153.165 60.9526 152.983 61.927 152.13 62.6574C151.583 63.0836 150.852 63.0836 150.304 62.7794C149.087 62.2312 147.382 63.0836 146.651 61.3788C148.356 61.0136 150 60.3438 150.608 58.6393C151.278 56.9345 151.157 55.108 150.73 53.4032C150.183 51.2115 151.035 48.8369 149.817 47.1931C148.842 45.9755 146.65 46.0971 145.007 45.4273ZM144.398 93.8291C144.581 93.6462 145.068 93.8291 145.372 93.7071C148.72 92.7938 152.069 94.9248 155.113 93.5245C155.539 95.351 155.6 97.2384 155.174 99.0039C154.809 100.587 152.374 101.561 151.034 100.526C149.147 99.0649 148.964 96.2644 146.833 94.9248C146.346 94.6205 145.616 94.6205 145.007 94.4986C144.702 94.4989 144.033 94.1943 144.398 93.8291ZM117.975 93.8291C117.853 93.7681 117.366 93.7072 117.305 93.3422C117.183 92.4288 117.731 91.3938 118.766 91.4548C118.645 91.3331 118.462 91.2722 118.34 91.2115C119.192 91.0286 120.106 90.42 120.654 90.6636C121.384 91.0893 118.888 94.2553 117.975 93.8291ZM124.185 96.447C124.124 96.5689 123.759 96.8122 123.698 96.9341C123.394 97.9692 122.846 98.517 122.115 98.8825C121.384 99.2478 120.654 98.1518 120.897 97.3603C121.019 97.1168 121.263 96.9341 121.506 96.6906C122.602 95.8382 123.577 93.6462 124.794 94.9248C124.976 95.1684 124.367 95.8991 124.185 96.447ZM124.976 100.465C124.733 99.7953 125.281 99.3691 125.951 99.2475H125.342C126.498 98.2125 127.412 96.1424 129.116 96.2641C128.264 98.0905 127.899 100.1 126.681 101.683C126.012 102.535 125.22 101.257 124.976 100.465ZM143.911 107.223C136.422 106.554 133.987 105.275 129.421 103.144C128.995 102.961 128.264 102.353 128.386 101.805C128.508 101.378 129.36 101.135 129.847 101.378C131.247 102.231 135.266 105.153 142.328 106.188C142.876 106.249 144.642 106.31 144.703 106.675C144.763 106.979 144.154 107.223 143.911 107.223ZM88.7515 60.1609C91.0648 58.7604 90.5169 55.6556 91.3087 53.4029C91.342 53.3696 91.4129 53.3733 91.499 53.3827C91.6839 52.8482 92.0423 52.5443 92.2824 52.0636C93.1346 50.6634 92.3434 49.3238 91.6126 48.1671C91.1255 47.3757 89.9688 47.3147 89.421 46.5843C88.8731 45.7928 89.7862 45.2447 90.2734 45.1231C91.6736 44.6359 92.526 43.9664 93.5001 42.9314C93.9263 42.5661 94.3525 43.4792 94.2305 44.0883C94.2305 44.0276 94.2305 43.9057 94.2305 43.8447C93.8043 45.306 93.3781 46.7062 93.6214 48.2894C94.4738 52.7947 93.4998 57.0564 93.1952 61.3791C91.7346 61.6831 88.8121 62.5352 88.7515 60.1609ZM92.4072 71.3911C91.7782 70.7692 90.0717 71.2404 90.6386 70.3892C91.1867 69.5977 92.4044 69.1715 93.3175 68.4408C94.3528 67.6493 93.8046 65.8836 94.718 64.8488C94.9006 64.5446 95.2049 65.0314 95.5091 64.9708C95.4482 66.7362 96.057 68.6846 95.3265 70.2065C94.8673 71.074 93.5955 71.3851 92.4072 71.3911C92.4531 71.4367 92.493 71.4877 92.5263 71.5458L91.7349 71.3629C91.8329 71.372 91.9337 71.3786 92.0354 71.3831C92.1577 71.3888 92.2816 71.392 92.4072 71.3911ZM92.5263 82.5658C92.9522 82.6875 92.8913 81.835 93.3784 82.1396C93.2565 80.5564 94.5961 81.1046 94.8396 80.1912C95.0832 79.3388 94.2308 78.8516 93.622 78.4864C93.5004 78.4254 93.683 78.1821 93.8049 78.1212C94.4137 77.9992 95.0835 78.1212 95.4487 78.5474C95.6316 78.791 96.0576 78.9736 95.9359 79.3998C96.7273 79.3998 96.6664 80.2522 96.8493 80.6784C97.5191 82.2613 96.8493 84.5749 94.8399 84.8185C94.8399 84.8185 94.779 84.3923 94.6573 84.2706C93.7437 83.6618 92.3434 83.9661 92.5263 82.5658ZM94.2308 90.3588C94.4134 90.1759 94.1089 89.8716 94.2918 89.7497C96.057 88.715 97.9444 88.1668 99.7712 87.0711C100.075 86.8882 100.684 86.7059 100.989 87.1928C101.171 87.5583 100.989 87.9845 100.745 88.2278C99.1621 89.9326 96.4225 91.8197 94.2308 90.3588ZM98.7359 97.9692C98.4926 97.9082 97.7618 97.543 97.4575 97.1168C97.1533 96.6299 97.5795 96.2644 98.0663 96.1427C98.6752 95.9601 99.345 96.2037 99.9538 96.0211C100.502 95.7778 100.745 95.4122 101.293 95.108C101.78 94.8644 102.267 94.4382 102.937 94.3772C102.937 94.6208 103.302 94.7425 103.12 94.986C101.841 96.447 100.684 98.5777 98.7359 97.9692ZM100.319 100.831C99.8928 100.222 101.171 99.7956 101.78 99.4911C102.694 99.1258 103.606 98.456 104.581 97.9692C104.703 98.639 104.398 99.3085 104.094 99.8566C103.667 100.648 102.937 100.953 102.206 101.5C101.415 102.048 100.684 101.318 100.319 100.831ZM108.234 105.275C107.564 105.64 107.564 106.858 106.711 107.223C105.92 107.528 105.798 106.614 105.311 106.188C105.19 106.127 105.372 105.823 105.433 105.579C104.642 105.823 104.155 105.336 103.789 104.727C103.546 104.24 103.911 103.935 104.215 103.753C104.763 103.509 105.676 103.875 106.042 103.205C106.163 102.962 105.981 102.414 106.163 102.292C106.529 101.865 107.381 101.683 107.686 102.231C108.112 103.022 108.842 103.205 109.39 103.753C109.573 103.936 109.573 104.484 109.39 104.666C109.147 104.97 108.599 105.153 108.234 105.275ZM112.191 112.276C111.095 112.337 109.999 111.485 109.512 110.45C109.269 109.902 109.573 109.536 110.06 109.111C110.243 108.928 110.06 108.502 110.121 108.136C110.182 107.771 110.609 108.015 110.73 107.71C110.852 107.406 110.852 107.101 111.095 106.797C111.765 106.188 112.435 106.431 112.8 106.919C113.104 107.345 112.374 108.197 112.922 108.441C114.505 109.05 115.296 106.979 116.514 106.127C116.879 105.884 117.61 106.675 117.184 107.223C115.662 109.171 114.992 112.094 112.191 112.276ZM118.401 116.356C118.462 116.903 117.488 116.599 117.123 116.477C116.027 116.112 114.505 115.321 114.565 114.042C114.992 114.042 115.235 113.616 115.296 113.372C115.539 112.094 116.026 110.876 117.061 110.876C118.705 110.876 121.688 108.441 121.506 110.876C121.323 112.946 118.218 113.798 118.401 116.356ZM139.71 124.088C134.474 123.235 129.299 122.87 124.55 120.496C123.089 119.765 121.811 118.73 120.471 117.878L121.08 118.243C121.037 118.156 120.956 118.086 120.861 118.026C120.772 117.97 120.672 117.923 120.58 117.878C120.358 117.77 120.185 117.676 120.349 117.512C121.262 116.356 121.262 114.833 122.419 113.92C122.541 113.798 122.967 113.433 123.15 113.677C124.063 114.712 124.124 116.051 124.915 117.208C125.342 117.695 125.829 118.121 126.377 118.426C129.786 120.435 133.378 121.287 137.214 122.14C139.406 122.627 141.658 122.018 143.911 122.627C144.763 122.809 145.737 122.627 146.407 123.357C146.65 123.6 146.103 123.722 146.224 123.966C144.033 123.844 141.902 124.392 139.71 124.088ZM147.26 164.331C147.26 164.514 146.955 164.757 146.894 164.696C146.285 164.514 145.555 164.514 145.007 164.392C144.033 164.088 144.642 162.322 144.581 161.165C144.581 160.922 144.764 160.678 145.007 160.556C145.737 160.13 146.59 160.191 147.016 160.799C147.574 161.637 147.422 162.581 147.237 163.496C147.268 163.582 147.284 163.859 147.26 164.331ZM151.765 167.314C150.364 167.314 150.303 165.853 149.634 165.001C149.451 164.818 149.086 165.305 148.964 164.757C148.72 163.235 148.538 161.774 149.086 160.374C149.451 159.582 150.73 159.339 151.217 160.191C152.495 162.322 151.521 164.94 151.765 167.314ZM156.026 168.958C155.357 168.045 154.382 167.619 153.652 166.888V167.558C153.53 164.879 153.287 163.174 153.53 160.983C153.591 160.434 153.895 159.948 154.504 159.765C155.357 159.522 156.392 159.826 156.513 160.617C157.122 163.844 157.305 166.34 157.853 169.202C157.366 169.323 156.331 169.262 156.026 168.958ZM160.836 157.634C161.445 157.756 161.749 158.364 162.054 158.913C164.063 162.322 164.915 165.975 166.133 169.628C164.367 170.054 162.601 170.054 160.836 169.993C160.471 169.932 160.105 169.445 160.044 169.019C159.497 166.827 158.827 163.6 157.974 160.13C157.853 159.704 158.522 158.182 159.07 157.938C159.679 157.634 160.166 157.512 160.836 157.634ZM159.375 155.26C157.914 155.016 155.965 155.929 154.991 154.773C154.626 154.347 155.722 153.737 155.296 153.19C154.931 152.824 154.2 152.398 154.017 152.824C153.591 153.494 154.139 154.773 153.713 155.381C153.165 156.051 151.216 156.051 150.912 154.833C151.887 154.59 153.104 154.347 152.678 153.19C152.374 152.459 151.338 151.972 150.243 152.094C150.364 153.19 150.364 154.346 149.938 155.198C149.512 155.99 148.477 155.198 147.746 155.259C147.746 154.894 147.746 154.59 147.746 154.224C148.477 154.407 149.269 154.102 148.964 153.128C148.599 151.911 147.685 150.571 146.59 151.424C145.433 152.276 146.59 154.407 145.311 155.381C144.763 155.747 143.85 155.686 143.302 155.016C143.241 154.894 143.241 154.59 143.302 154.468C143.728 153.92 144.459 154.164 144.946 153.92C145.859 153.433 145.494 152.094 145.494 151.241C145.494 150.754 144.459 150.389 143.972 150.693C143.728 150.876 143.18 150.937 143.302 151.485C142.45 150.389 142.754 148.623 143.485 148.136C145.068 147.04 147.321 147.71 149.269 148.258C152.252 149.049 155.418 148.258 158.523 148.684C158.462 150.937 158.401 153.25 159.375 155.26ZM145.189 136.264C145.25 136.629 146.224 136.568 145.737 136.994C145.433 137.299 144.763 137.665 144.398 137.055C144.094 136.508 144.824 136.386 145.189 136.264ZM159.314 143.814C160.836 144.057 162.602 145.64 161.688 147.101C161.445 147.527 160.471 146.918 159.801 146.858C158.705 146.858 157.67 147.466 156.574 147.527C156.302 147.562 156.181 147.216 156.001 146.936L155.357 146.614C155.492 146.58 155.602 146.593 155.695 146.634C154.627 145.677 153.652 144.226 152.495 144.909C151.704 145.335 150.851 145.579 150.06 145.275C149.877 145.214 149.634 144.727 149.877 144.544C150.486 144.118 150.547 143.205 151.338 143.022C153.165 142.535 154.87 143.205 156.452 144.118C157.305 144.666 158.401 143.631 159.314 143.814ZM158.644 132.002C158.462 132.672 158.218 133.646 157.427 133.707C156.149 133.829 156.818 136.021 156.088 136.508C154.444 137.482 152.374 137.055 150.486 137.116C150.486 136.873 150.425 136.568 150.486 136.508C151.643 135.838 151.643 134.863 151.217 133.95C151.034 133.524 150.182 133.585 149.938 133.95C149.269 134.924 149.999 136.386 149.269 137.177C149.025 137.542 148.173 137.42 147.503 137.238C146.955 137.116 146.529 136.508 146.955 136.142C147.199 135.838 147.929 136.203 148.294 135.959C148.477 135.838 148.355 135.35 148.355 134.985C148.355 135.107 148.294 135.289 148.294 135.168C148.173 134.316 147.624 133.524 146.711 133.768C146.224 133.889 145.92 134.559 145.372 134.742C145.311 133.828 144.52 133.281 143.728 133.098C143.606 133.828 142.754 133.585 142.51 133.402C141.78 132.976 142.693 132.245 142.449 131.576C146.224 130.967 149.999 132.002 153.835 131.089C154.018 131.028 154.139 130.541 154.322 130.358C154.748 129.993 155.113 129.506 155.783 129.506C155.661 128.836 156.27 128.714 156.635 128.471C157.061 128.166 157.792 128.471 157.975 128.714C158.644 129.628 158.949 130.846 158.644 132.002ZM179.406 117.208C179.101 119.4 176.422 119.887 174.535 120.435C169.847 121.896 165.22 122.87 160.349 124.088C157.82 124.663 155.237 125.074 152.651 124.862C152.498 124.85 152.344 124.836 152.191 124.818L153.652 125.062C152.617 125.123 151.643 124.697 150.73 124.332C150.669 124.332 150.669 124.027 150.73 124.027C152.922 123.114 155.296 123.54 157.67 123.175C160.897 122.627 163.88 121.653 166.924 120.618C168.507 120.13 169.847 118.913 171.429 118.121C171.795 117.939 172.343 118.061 172.647 117.817C174.047 116.478 175.874 116.295 177.579 115.625C178.675 115.138 179.527 116.599 179.406 117.208ZM184.459 115.26C184.154 116.173 183.423 117.269 182.449 116.903C180.501 116.234 180.014 114.103 178.796 112.52C178.675 112.398 178.857 112.216 179.04 112.155C179.223 112.094 179.466 112.094 179.649 112.155C180.136 112.459 180.075 113.312 180.927 113.433C182.084 113.616 181.414 112.398 181.841 112.033C182.145 111.79 182.449 112.52 182.997 112.703C183.972 113.007 184.824 114.225 184.459 115.26ZM189.869 111.044C189.861 111.127 189.844 111.213 189.816 111.302L189.573 110.632C189.512 111.728 188.781 112.52 188.599 113.616C188.477 114.164 187.442 113.92 187.138 113.737C185.493 112.398 184.763 110.389 183.423 108.745C183.85 108.745 184.398 108.623 184.641 108.806C186.041 110.146 187.746 109.171 189.086 109.78C189.463 109.942 189.937 110.392 189.869 111.044ZM197.913 103.753C197.487 104.24 197.183 105.64 196.391 105.275C195.235 104.666 194.687 103.509 193.652 102.596C193.408 102.353 193.895 102.109 194.017 102.048C194.808 101.865 195.721 102.718 196.27 101.926C196.696 101.318 195.782 100.343 196.391 99.7347C196.635 99.4914 197.061 99.7956 197.427 99.8566C197.427 99.7956 197.427 99.7346 197.427 99.674C198.34 100.222 199.618 101.013 199.557 101.987C199.497 102.657 198.522 103.205 197.913 103.753ZM201.993 97.9082C201.871 97.9692 201.81 98.578 201.445 98.2125C201.079 98.9429 201.384 99.9173 200.593 100.526C200.41 100.1 200.045 99.9173 199.862 99.4911C199.619 99.0649 199.132 98.6996 198.462 98.517C197.731 98.3344 197.67 97.3603 197.001 96.9341C198.036 95.6555 200.288 96.2644 201.81 96.5689C202.48 96.6296 202.419 97.6643 201.993 97.9082ZM204.306 91.3935C203.515 92.6114 202.054 92.9157 200.836 92.1852C200.471 91.9417 199.74 91.8807 199.74 91.2112C199.74 90.9069 199.618 90.5414 199.801 90.4198C200.592 89.6283 201.81 90.6631 202.662 89.9326C202.784 89.8107 202.784 89.4454 202.662 89.3238C202.114 88.715 200.41 87.8628 201.323 87.4973C203.028 86.8275 205.463 89.4454 204.306 91.3935ZM208.142 85.8535C207.716 86.9492 206.133 87.3144 204.55 86.8882C203.637 86.5839 202.906 85.7315 203.454 85.1837C204.063 84.6965 205.28 84.1487 204.732 83.2356C204.55 82.9313 204.611 82.4442 204.184 82.3222C203.758 82.2613 203.21 82.6265 202.906 82.0789C202.845 81.957 202.845 81.5918 202.906 81.5308C204.854 81.0439 206.62 81.8351 207.898 83.2356C208.568 83.9661 208.385 85.2447 208.142 85.8535ZM209.968 76.5993C209.359 77.7559 208.385 78.4867 208.081 80.0089C208.02 80.2522 207.411 80.6784 206.985 80.3741C205.889 79.5827 204.428 79.8263 203.575 78.9129C203.453 78.7303 203.149 78.2434 203.332 78.1824C204.611 77.9391 206.072 78.4867 206.985 77.7562C207.715 77.2084 207.655 75.8688 208.446 75.199C208.629 75.0774 208.933 75.1383 209.238 75.1383C209.481 75.1383 209.725 75.0774 209.846 75.199C210.395 75.5642 210.151 76.234 209.968 76.5993ZM210.334 71.6678C208.75 71.6068 207.35 70.6327 205.646 70.5718C205.28 70.5718 204.489 70.3285 204.611 69.6584C204.672 69.5367 204.793 69.2932 204.854 69.2932C206.132 68.6234 207.411 69.4761 208.811 69.2322C209.785 69.0496 210.273 69.841 210.638 70.5108C210.882 70.937 210.699 71.6678 210.334 71.6678ZM210.882 67.8932C210.638 68.3194 210.09 67.7103 209.968 67.6496C208.933 66.7362 207.472 67.0408 206.315 66.2494C205.828 65.9448 205.28 65.0314 205.889 64.9708C207.229 64.8488 208.081 64.0574 209.481 63.9357C209.359 64.0577 209.299 64.24 209.238 64.3619C210.029 63.9967 210.212 63.205 210.577 62.4745C210.821 61.9873 211.429 62.2916 211.429 62.4745C211.734 64.301 211.734 66.2494 210.882 67.8932ZM211.551 61.1962C210.517 61.4395 209.116 61.9876 208.629 61.2572C207.838 60.1002 210.09 60.831 210.942 60.831C211.247 60.77 211.49 60.2221 211.734 60.5874C211.916 60.77 211.856 61.0743 211.551 61.1962ZM212.343 44.6969C211.429 47.4974 209.299 50.3591 210.395 53.3422C211.064 55.047 212.16 57.1778 211.125 58.7002C210.395 59.7959 208.811 60.1612 207.35 59.2481C206.985 59.0655 207.046 58.5783 207.168 58.274C207.837 56.9954 209.603 56.1433 208.872 54.4385C208.081 52.6118 208.507 50.603 207.898 49.0198C207.289 47.376 204.854 46.5236 204.367 44.6362C203.636 41.4704 208.263 41.9576 210.516 42.3228C211.49 42.4442 212.83 43.3573 212.343 44.6969Z" fill="white"/>
<path d="M186.497 204.323L186.503 204.326H186.503C186.541 204.345 186.581 204.368 186.621 204.391C186.656 204.412 186.695 204.438 186.736 204.465C186.964 204.617 187.163 204.832 187.163 204.94L187.163 204.973V204.974C187.176 205.518 187.038 206.091 186.9 206.661C186.629 207.789 186.36 208.906 187.428 209.569L187.433 209.573C188.058 209.99 188.847 209.934 189.617 209.879C189.889 209.86 190.159 209.841 190.42 209.841H190.423V209.841C191.025 209.841 191.676 209.692 192.287 209.415C192.437 209.347 192.584 209.272 192.725 209.191C193.454 208.769 194.081 208.16 194.428 207.407L194.815 207.586C194.428 208.422 193.738 209.096 192.938 209.558C192.782 209.648 192.623 209.73 192.462 209.803C191.799 210.103 191.086 210.266 190.423 210.266V210.267H190.42C190.168 210.267 189.909 210.285 189.648 210.304C188.808 210.363 187.95 210.424 187.203 209.93V209.93C185.876 209.106 186.18 207.84 186.488 206.563C186.618 206.021 186.749 205.476 186.739 204.985L186.737 204.946L186.737 204.94C186.737 204.919 186.626 204.902 186.5 204.818C186.472 204.799 186.44 204.778 186.404 204.757L186.403 204.757C186.373 204.739 186.342 204.721 186.312 204.706L186.312 204.706L186.307 204.703L186.497 204.323ZM171.018 205.763C171.252 205.784 171.453 205.806 171.651 205.827C172.737 205.943 173.798 206.056 175.141 205.709V205.709L175.148 205.707C175.261 205.675 175.375 205.636 175.486 205.591C175.598 205.546 175.71 205.493 175.82 205.436C176.361 205.15 176.825 204.723 176.941 204.223L176.944 204.21C177.017 203.963 177.069 203.689 177.122 203.416C177.292 202.526 177.463 201.636 178.346 201.273H178.347C179.143 200.947 179.768 201.361 180.423 201.796C180.957 202.15 181.515 202.521 182.168 202.417L182.234 202.836C181.418 202.967 180.789 202.55 180.188 202.151C179.628 201.78 179.095 201.426 178.507 201.666L178.507 201.666C177.838 201.942 177.689 202.719 177.54 203.496C177.486 203.776 177.432 204.056 177.354 204.325C177.205 204.957 176.655 205.476 176.018 205.813C175.897 205.877 175.771 205.935 175.645 205.985C175.517 206.037 175.39 206.081 175.265 206.117L175.259 206.119L175.253 206.12C173.832 206.488 172.732 206.371 171.607 206.251C171.389 206.227 171.169 206.204 170.98 206.187L171.018 205.763ZM180.24 204.458C180.068 204.687 179.897 204.943 179.815 205.189C179.745 205.399 179.742 205.607 179.872 205.783L179.873 205.783L179.878 205.789C180.002 205.948 180.149 206.097 180.293 206.244C180.639 206.594 180.972 206.932 181.069 207.45H181.069C181.078 207.49 181.087 207.53 181.093 207.569V207.569C181.218 208.252 181.065 208.874 180.711 209.365C180.361 209.851 179.814 210.205 179.149 210.356V210.357H179.148C179.108 210.366 179.063 210.375 179.013 210.384V210.384C178.011 210.572 177.058 210.541 176.129 210.377C175.21 210.216 174.314 209.922 173.42 209.583L172.334 209.171H173.495H173.738V209.248C174.553 209.551 175.37 209.811 176.202 209.958C177.086 210.114 177.989 210.143 178.935 209.966H178.937C178.971 209.96 179.01 209.952 179.053 209.942H179.054C179.617 209.814 180.076 209.52 180.366 209.117C180.654 208.719 180.777 208.208 180.675 207.645H180.675C180.669 207.612 180.662 207.577 180.654 207.543L180.652 207.534C180.581 207.141 180.291 206.848 179.99 206.542C179.839 206.389 179.685 206.233 179.543 206.051H179.542L179.537 206.044L179.535 206.041C179.303 205.732 179.3 205.391 179.412 205.056C179.512 204.754 179.707 204.462 179.9 204.204L180.24 204.458ZM186.432 202.172C186.937 202.244 187.437 202.041 187.923 201.844C188.623 201.559 189.3 201.285 190.037 201.71V201.71C190.89 202.188 191.113 202.935 191.019 203.731C190.951 204.316 190.706 204.924 190.423 205.462C190.602 205.424 190.782 205.392 190.96 205.361C191.618 205.244 192.269 205.128 192.712 204.723L192.715 204.719C192.89 204.566 193.068 204.439 193.243 204.313C193.556 204.089 193.861 203.87 194.079 203.543L194.432 203.78C194.17 204.173 193.835 204.413 193.491 204.659H193.49C193.323 204.779 193.153 204.901 192.995 205.039C192.46 205.527 191.75 205.653 191.033 205.781C190.706 205.838 190.376 205.897 190.08 205.988L190.08 205.988L190.057 205.995L189.524 206.162L189.811 205.683C190.164 205.095 190.517 204.362 190.597 203.683C190.671 203.049 190.497 202.455 189.829 202.082L189.826 202.08C189.269 201.757 188.686 201.993 188.083 202.239C187.545 202.457 186.99 202.682 186.372 202.594L186.432 202.172ZM176.628 186.763C175.681 186.615 174.744 186.66 173.821 186.824C172.891 186.988 171.974 187.274 171.072 187.605L170.925 187.206C171.849 186.867 172.791 186.574 173.747 186.404C174.711 186.234 175.692 186.187 176.693 186.343L176.628 186.763ZM171.016 185.488L171.034 185.49C171.123 185.496 171.216 185.496 171.308 185.488C171.401 185.481 171.493 185.467 171.582 185.446C172.031 185.344 172.425 185.09 172.571 184.763L172.575 184.754C172.653 184.596 172.675 184.461 172.652 184.349C172.628 184.228 172.549 184.125 172.435 184.045C172.306 183.953 172.132 183.889 171.94 183.855C171.579 183.79 171.166 183.835 170.855 184.001L170.655 183.627C171.053 183.415 171.569 183.357 172.014 183.436C172.265 183.48 172.499 183.569 172.682 183.699C172.882 183.841 173.024 184.031 173.07 184.266C173.11 184.463 173.08 184.688 172.958 184.935L172.957 184.938L172.954 184.944C172.749 185.392 172.243 185.732 171.677 185.861C171.566 185.887 171.453 185.904 171.341 185.914C171.228 185.923 171.113 185.924 171 185.915H170.999L170.981 185.914L171.016 185.488ZM180.621 188.036L180.609 188.033C180.366 187.965 180.108 187.901 179.85 187.837C178.518 187.506 177.179 187.174 176.424 185.942C176.374 185.868 176.325 185.791 176.278 185.71L176.278 185.711C175.876 185.022 175.646 184.155 175.682 183.349C175.688 183.206 175.704 183.065 175.727 182.926C175.621 182.9 175.512 182.871 175.401 182.838H175.4C175.203 182.779 175.001 182.708 174.802 182.625H174.802C173.863 182.231 173.001 181.563 172.871 180.563C172.687 180.654 172.497 180.741 172.305 180.828C171.403 181.238 170.441 181.674 170.102 182.607L169.703 182.462C170.104 181.36 171.15 180.885 172.13 180.44C172.424 180.307 172.712 180.177 172.961 180.038L172.966 180.036L173.296 179.852L173.281 180.229C173.242 181.201 174.063 181.852 174.967 182.232L174.967 182.232C175.15 182.309 175.338 182.375 175.523 182.43C175.624 182.46 175.727 182.488 175.827 182.512C175.985 182.018 176.274 181.585 176.722 181.279C176.765 181.25 176.811 181.222 176.859 181.194L176.869 181.187L176.878 181.183L176.886 181.18C176.987 181.134 177.098 181.092 177.214 181.056H177.215C177.332 181.02 177.455 180.989 177.578 180.966C178.237 180.843 178.996 180.915 179.49 181.409L179.493 181.412L179.492 181.412C179.644 181.556 179.788 181.719 179.919 181.895C180.05 182.072 180.171 182.264 180.275 182.465C180.818 183.511 180.952 184.832 180.243 185.823L179.897 185.577C180.502 184.73 180.375 183.581 179.897 182.66C179.804 182.479 179.696 182.307 179.578 182.148C179.461 181.991 179.332 181.846 179.196 181.717L179.191 181.713L179.189 181.711C178.81 181.333 178.197 181.283 177.656 181.384C177.546 181.405 177.44 181.431 177.341 181.462V181.462C177.242 181.493 177.147 181.528 177.061 181.567L177.058 181.569C177.026 181.588 176.994 181.609 176.962 181.631C176.396 182.016 176.137 182.664 176.106 183.367C176.075 184.092 176.282 184.873 176.646 185.496V185.496C176.686 185.566 176.73 185.635 176.776 185.702L176.782 185.711C177.445 186.802 178.702 187.114 179.952 187.424C180.207 187.487 180.463 187.551 180.724 187.623H180.725L180.737 187.627L180.621 188.036ZM178.112 183.447C178.275 183.674 178.406 183.888 178.489 184.112V184.113C178.576 184.349 178.611 184.595 178.577 184.874L178.154 184.822C178.18 184.615 178.154 184.434 178.09 184.26C178.021 184.074 177.907 183.891 177.766 183.693L178.112 183.447Z" fill="white"/>
<path d="M158.66 205.936C158.364 205.679 158.003 205.491 157.616 205.394C157.184 205.286 156.72 205.293 156.278 205.445L156.273 205.447C155.659 205.641 155.551 206.307 155.446 206.961C155.378 207.385 155.31 207.807 155.117 208.146V208.147L155.115 208.15C154.884 208.554 154.379 208.426 153.818 208.284C153.617 208.233 153.406 208.179 153.212 208.152C153.188 208.301 153.158 208.442 153.128 208.577L153.126 208.586L153.122 208.598C153.017 208.914 152.875 209.199 152.703 209.457C153.886 210.319 155.151 210.444 156.294 210.093C156.52 210.024 156.745 209.934 156.965 209.826C157.187 209.718 157.4 209.594 157.602 209.457L157.605 209.456L157.614 209.45L157.629 209.44C157.772 209.363 157.91 209.296 158.049 209.23C158.594 208.971 159.18 208.691 159.351 208.052C159.456 207.632 159.43 207.233 159.307 206.878C159.181 206.512 158.953 206.19 158.66 205.936ZM142.781 204.8C142.664 204.817 142.545 204.839 142.426 204.867C142.486 204.956 142.56 205.052 142.661 205.154C142.818 205.311 142.87 205.459 142.914 205.583V205.584C142.938 205.651 142.955 205.7 143.058 205.7L143.076 205.701C143.643 205.748 143.971 206.04 144.292 206.326C144.37 206.396 144.449 206.464 144.53 206.528C144.704 206.309 144.919 206.151 145.16 206.041L145.16 206.04C145.384 205.938 145.63 205.88 145.885 205.856C145.274 205.19 144.433 204.77 143.431 204.754C143.224 204.751 143.006 204.766 142.781 204.8Z" fill="white"/>
<path d="M188.843 193.859V171.211H110.609V193.859H96.4844V219.004H202.785V193.859H188.843ZM155.535 186.648H155.535C155.455 186.802 155.375 186.953 155.298 187.086L154.931 186.873C155.009 186.738 155.083 186.596 155.158 186.452L155.158 186.451C155.532 185.731 155.944 184.94 156.819 184.94V184.939C157.281 184.939 157.678 185.145 158.09 185.358C158.379 185.508 158.678 185.663 158.997 185.737L158.903 186.152C158.532 186.066 158.208 185.898 157.895 185.736C157.531 185.547 157.18 185.366 156.819 185.366V185.365C156.203 185.365 155.853 186.037 155.535 186.648ZM158.372 183.621C157.893 183.48 157.517 183.221 157.405 182.77L157.364 182.628C157.153 181.879 156.959 181.195 156.294 180.836C156.06 180.735 155.793 180.711 155.51 180.731C155.206 180.752 154.887 180.825 154.567 180.912C154.052 181.084 153.626 181.414 153.191 181.749C152.89 181.98 152.585 182.216 152.236 182.416L152.232 182.418C150.992 183.085 149.692 183.119 148.419 182.802C147.17 182.492 145.948 181.843 144.838 181.135C144.428 180.888 143.931 180.701 143.456 180.679V180.679C143.365 180.675 143.276 180.676 143.189 180.685C143.106 180.692 143.021 180.708 142.937 180.73L142.936 180.73L142.934 180.73L142.935 180.731C142.513 180.851 142.207 181.22 141.903 181.586C141.643 181.899 141.382 182.212 141.035 182.415L141.029 182.418L141.014 182.425C140.732 182.55 140.394 182.563 140.049 182.576C139.676 182.589 139.29 182.604 139.037 182.772L139.03 182.777C138.691 182.986 138.662 183.417 138.636 183.828C138.608 184.256 138.581 184.668 138.269 184.947L138.259 184.953C138.097 185.083 137.898 185.221 137.7 185.358C137.503 185.495 137.305 185.632 137.164 185.745L137.155 185.752C137.001 185.862 136.932 186.067 136.908 186.301C136.88 186.568 136.909 186.875 136.938 187.138L136.516 187.185C136.484 186.901 136.452 186.568 136.485 186.257C136.522 185.913 136.636 185.6 136.908 185.406C137.069 185.278 137.264 185.143 137.459 185.008C137.652 184.875 137.846 184.74 137.986 184.629C138.168 184.467 138.19 184.14 138.212 183.801C138.245 183.282 138.28 182.739 138.808 182.414L138.808 182.415C139.161 182.183 139.605 182.166 140.035 182.15C140.333 182.139 140.624 182.128 140.83 182.041C141.11 181.875 141.343 181.595 141.577 181.314C141.924 180.896 142.272 180.477 142.818 180.321H142.821L142.826 180.319L142.827 180.318C142.93 180.291 143.038 180.272 143.15 180.261C143.258 180.251 143.368 180.249 143.476 180.253H143.477C144.026 180.28 144.593 180.491 145.056 180.769L145.061 180.773C146.14 181.462 147.323 182.092 148.521 182.389C149.698 182.682 150.895 182.654 152.028 182.045C152.351 181.86 152.644 181.635 152.931 181.413C153.396 181.054 153.851 180.703 154.439 180.507L154.45 180.504C154.798 180.409 155.147 180.33 155.48 180.306C155.83 180.281 156.169 180.316 156.479 180.454L156.494 180.46C157.319 180.904 157.536 181.672 157.774 182.513L157.815 182.66L157.817 182.666C157.886 182.944 158.151 183.112 158.492 183.214C158.878 183.328 159.362 183.357 159.803 183.357V183.783C159.33 183.783 158.808 183.751 158.372 183.621ZM153.008 186.933L152.593 187.025C152.457 186.412 152.625 185.87 152.945 185.399C152.967 185.365 152.991 185.332 153.015 185.299C151.251 186.027 149.23 186.222 147.414 185.543C146.963 185.374 146.524 185.151 146.107 184.87C145.688 184.589 145.291 184.249 144.922 183.847L144.921 183.845L144.911 183.834L144.909 183.831C144.74 183.638 144.459 183.467 144.189 183.405C144.095 183.383 144.003 183.376 143.922 183.387C143.854 183.397 143.793 183.42 143.747 183.461C143.696 183.505 143.656 183.575 143.633 183.676C143.482 184.488 144.198 185.268 145.052 185.815C145.225 185.926 145.404 186.028 145.582 186.117C145.758 186.206 145.937 186.285 146.111 186.351L146.11 186.352L146.116 186.354L145.968 186.752L145.96 186.749H145.959C145.775 186.679 145.583 186.594 145.39 186.497C145.198 186.4 145.006 186.292 144.822 186.173C143.838 185.543 143.021 184.614 143.215 183.592L143.217 183.583C143.262 183.388 143.35 183.243 143.468 183.141C143.58 183.042 143.716 182.987 143.862 182.966C143.996 182.947 144.14 182.957 144.284 182.99C144.635 183.072 145.002 183.295 145.225 183.549L145.235 183.559C145.582 183.937 145.954 184.256 146.343 184.517C146.733 184.78 147.142 184.988 147.562 185.145C149.733 185.957 152.23 185.435 154.149 184.241L154.384 184.595L154.374 184.603L154.373 184.603C153.968 184.894 153.565 185.24 153.296 185.637C153.038 186.018 152.901 186.452 153.008 186.933ZM139.935 186.468C139.684 186.848 139.433 187.229 138.913 187.368L138.804 186.956C139.168 186.859 139.375 186.546 139.58 186.235C139.848 185.827 140.117 185.42 140.707 185.309L140.71 185.308L140.718 185.307H140.718C140.873 185.28 141.031 185.266 141.188 185.265C141.348 185.263 141.504 185.274 141.654 185.297V185.298C142.447 185.421 143.161 185.88 143.498 186.651L143.108 186.821C142.834 186.194 142.246 185.819 141.589 185.717L141.589 185.718C141.456 185.698 141.322 185.688 141.192 185.689C141.061 185.691 140.926 185.703 140.791 185.726L140.783 185.728C140.371 185.806 140.152 186.137 139.935 186.468ZM134.84 176.873V190.024H133.745V176.325L133.745 175.777H134.293H157.55V176.873H134.84ZM131.249 173.524V172.978H131.797H159.681V174.07H132.345V191.728H131.249V173.524ZM113.227 173.524V172.976H113.775H128.996V174.072H114.323V191.728H113.227V173.524ZM126.926 175.777V176.873H116.88V190.024H115.784V176.325V175.777H116.332H126.926ZM100.199 217.299H99.1023V197.451V196.905H99.6504H123.334V197.997H100.199V217.299ZM124.33 207.479C124.643 207.254 124.948 207.036 125.166 206.709L125.519 206.945C125.257 207.339 124.922 207.578 124.578 207.825H124.577C124.41 207.945 124.24 208.067 124.082 208.204H124.082C123.547 208.692 122.837 208.819 122.121 208.946C121.793 209.004 121.464 209.063 121.167 209.154L121.167 209.154L121.144 209.161L120.611 209.327L120.898 208.849C121.251 208.261 121.605 207.527 121.684 206.849C121.758 206.215 121.584 205.622 120.916 205.247L120.913 205.245C120.346 204.917 119.755 205.167 119.141 205.427C118.614 205.649 118.072 205.879 117.469 205.821L117.509 205.398C118.006 205.445 118.498 205.238 118.976 205.036C119.688 204.735 120.375 204.445 121.124 204.877C121.977 205.354 122.199 206.101 122.107 206.897C122.038 207.482 121.794 208.09 121.511 208.629C121.69 208.59 121.869 208.559 122.047 208.527C122.705 208.41 123.357 208.295 123.799 207.889L123.803 207.885C123.977 207.733 124.155 207.605 124.33 207.48L124.33 207.479ZM102.695 215.594H101.599V200.191V199.643H102.147H122.055V200.739H102.695V215.594ZM114.149 212.095C113.817 212.562 113.304 212.908 112.702 213.072C112.623 213.093 112.547 213.111 112.476 213.125H112.475C111.473 213.312 110.519 213.281 109.591 213.118C108.671 212.956 107.775 212.662 106.881 212.323L105.795 211.911H106.956H107.139V211.965C107.975 212.278 108.81 212.548 109.664 212.698C110.547 212.854 111.45 212.884 112.396 212.707C112.467 212.693 112.532 212.678 112.591 212.662C113.098 212.524 113.528 212.236 113.803 211.849C114.074 211.469 114.196 210.988 114.095 210.458C114.086 210.405 114.072 210.35 114.056 210.292L114.053 210.274C113.985 209.901 113.72 209.616 113.452 209.327C113.289 209.152 113.124 208.974 112.989 208.772C112.676 208.387 112.766 207.88 113.001 207.42H113.001C113.045 207.335 113.092 207.252 113.142 207.175C113.194 207.092 113.247 207.015 113.299 206.946L113.394 207.017L113.645 207.192L113.643 207.195L113.64 207.201C113.589 207.268 113.542 207.336 113.501 207.401C113.457 207.471 113.415 207.543 113.379 207.612L113.38 207.613C113.212 207.943 113.136 208.292 113.328 208.516L113.339 208.529L113.344 208.536C113.463 208.716 113.614 208.878 113.763 209.037C114.071 209.369 114.374 209.695 114.469 210.183C114.486 210.247 114.501 210.312 114.513 210.379C114.638 211.031 114.485 211.623 114.149 212.095ZM113.573 204.902C113.019 204.542 112.489 204.198 111.905 204.407C111.221 204.691 111.083 205.536 110.956 206.322C110.916 206.569 110.876 206.812 110.821 207.037V207.039L110.815 207.062L110.812 207.072C110.62 207.697 110.058 208.249 109.417 208.58C109.293 208.644 109.166 208.701 109.039 208.747C108.91 208.794 108.78 208.833 108.652 208.861H108.651C108.457 208.912 108.27 208.941 108.093 208.948C107.548 208.968 107.1 208.785 106.75 208.461C106.411 208.147 106.17 207.7 106.031 207.183C105.951 206.886 105.904 206.562 105.892 206.226L106.316 206.211C106.327 206.513 106.37 206.804 106.442 207.073C106.561 207.516 106.762 207.892 107.04 208.15C107.307 208.398 107.655 208.539 108.078 208.523C108.223 208.518 108.378 208.493 108.545 208.448L108.556 208.446L108.562 208.445C108.672 208.421 108.783 208.388 108.893 208.347C109.005 208.306 109.116 208.257 109.223 208.202C109.768 207.92 110.242 207.464 110.403 206.958L110.409 206.935H110.409C110.46 206.727 110.498 206.494 110.536 206.255C110.682 205.354 110.839 204.386 111.746 204.013L111.754 204.01C112.539 203.724 113.157 204.125 113.804 204.546C114.343 204.896 114.906 205.262 115.568 205.156L115.635 205.576C114.812 205.707 114.179 205.296 113.573 204.902ZM124.03 212.748C123.874 212.836 123.714 212.916 123.55 212.987C122.883 213.279 122.172 213.432 121.51 213.432V213.433H121.507C121.275 213.433 121.028 213.451 120.775 213.469C119.94 213.529 119.039 213.593 118.29 213.096C116.963 212.272 117.267 211.006 117.575 209.729C117.705 209.187 117.836 208.642 117.826 208.151L117.824 208.112L117.824 208.106C117.824 208.085 117.713 208.069 117.587 207.984C117.559 207.965 117.526 207.944 117.491 207.924L117.49 207.923C117.46 207.905 117.428 207.887 117.399 207.872L117.399 207.872L117.394 207.869L117.584 207.489L117.59 207.492H117.59C117.628 207.511 117.668 207.533 117.708 207.557C117.743 207.578 117.782 207.603 117.823 207.631C118.051 207.784 118.25 207.998 118.25 208.106H118.249L118.25 208.139V208.141C118.263 208.684 118.125 209.257 117.987 209.827C117.716 210.955 117.447 212.072 118.514 212.735L118.52 212.738C119.15 213.158 119.978 213.099 120.745 213.044C121.008 213.025 121.265 213.007 121.507 213.007H121.51V213.007C122.114 213.007 122.766 212.866 123.38 212.598C123.529 212.533 123.677 212.459 123.822 212.378C124.559 211.964 125.201 211.353 125.578 210.571L125.961 210.755C125.543 211.622 124.837 212.295 124.03 212.748ZM128.591 185.279C128.27 185.108 127.839 185.066 127.47 185.135V185.136C127.284 185.171 127.117 185.235 126.993 185.322C126.887 185.398 126.814 185.492 126.793 185.601C126.773 185.702 126.794 185.824 126.87 185.967L126.872 185.971C127.137 186.501 127.793 186.766 128.508 186.766V187.192C127.643 187.192 126.839 186.85 126.494 186.165L126.494 186.165C126.369 185.93 126.337 185.714 126.374 185.521C126.418 185.297 126.554 185.113 126.747 184.976C126.922 184.851 127.147 184.764 127.39 184.718H127.391C127.846 184.631 128.382 184.687 128.791 184.905L128.591 185.279ZM126.942 181.982C126.818 181.929 126.697 181.876 126.577 181.824C126.455 182.834 125.587 183.506 124.64 183.882C124.439 183.962 124.236 184.028 124.039 184.08C123.938 184.108 123.839 184.131 123.74 184.152C123.77 184.308 123.788 184.468 123.795 184.631C123.83 185.447 123.593 186.324 123.206 187.015C123.17 187.08 123.13 187.146 123.086 187.215L123.085 187.217C122.991 187.362 122.888 187.495 122.779 187.617C123.77 187.436 124.744 187.483 125.708 187.661C126.675 187.838 127.628 188.146 128.579 188.483L128.438 188.885C127.502 188.552 126.567 188.25 125.631 188.079C124.704 187.908 123.77 187.863 122.825 188.04L122.751 187.648C121.937 188.534 120.765 188.826 119.603 189.113C119.343 189.178 119.082 189.243 118.837 189.311L118.825 189.315L118.71 188.905L118.722 188.902H118.723C118.985 188.828 119.244 188.765 119.502 188.701C120.753 188.39 122.017 188.077 122.729 186.985L122.729 186.986C122.763 186.932 122.799 186.872 122.835 186.807C123.186 186.179 123.402 185.385 123.37 184.649C123.339 183.938 123.074 183.282 122.471 182.898L122.47 182.897C122.44 182.878 122.409 182.859 122.377 182.842L122.372 182.839L122.36 182.832L122.358 182.83C122.282 182.786 122.197 182.747 122.107 182.716C122.016 182.683 121.915 182.655 121.806 182.635C121.272 182.532 120.636 182.612 120.257 182.99L120.255 182.992L120.254 182.992C120.126 183.121 120.002 183.267 119.889 183.425C119.776 183.583 119.669 183.757 119.575 183.939C119.102 184.86 118.945 186.011 119.549 186.856L119.203 187.103C118.493 186.109 118.661 184.789 119.197 183.745C119.3 183.545 119.417 183.353 119.545 183.177C119.672 182.999 119.81 182.835 119.953 182.692V182.691L119.955 182.688C120.444 182.2 121.233 182.091 121.886 182.217C122.011 182.241 122.134 182.275 122.25 182.317C122.368 182.359 122.477 182.408 122.573 182.465L122.575 182.466L122.585 182.472C122.623 182.493 122.662 182.516 122.698 182.539C123.164 182.836 123.464 183.258 123.631 183.74C123.729 183.72 123.83 183.697 123.93 183.67C124.115 183.621 124.303 183.56 124.483 183.488C125.384 183.131 126.203 182.48 126.164 181.509L126.15 181.15L126.471 181.31L126.471 181.31C126.674 181.406 126.888 181.497 127.107 181.591C128.185 182.051 129.365 182.555 129.745 183.75L129.34 183.878C129.021 182.87 127.934 182.405 126.942 181.982ZM120.868 186.127C120.868 185.863 120.902 185.613 120.978 185.377C121.054 185.139 121.174 184.917 121.344 184.713L121.67 184.984C121.537 185.144 121.442 185.319 121.382 185.507C121.321 185.697 121.294 185.904 121.294 186.127H120.868ZM130.396 216.872H129.3V195.32V194.772H129.848H157.793V195.868H130.396V216.872ZM132.953 215.168H131.857V198.06V197.512H132.405H155.662V198.608H132.953V215.168ZM141.874 211.848C141.682 211.657 141.455 211.57 141.227 211.482V211.481C140.903 211.357 140.575 211.231 140.276 210.856C140.182 210.739 139.831 210.856 139.565 210.98C139.505 211.009 139.45 211.037 139.403 211.064C139.361 211.088 139.324 211.113 139.294 211.135C139.071 211.31 138.876 211.476 138.683 211.64C138.052 212.178 137.43 212.707 136.615 212.994L136.474 212.593C137.217 212.331 137.809 211.827 138.409 211.317C138.62 211.137 138.834 210.955 139.031 210.8L139.036 210.798L139.038 210.796L139.038 210.795C139.077 210.766 139.13 210.732 139.192 210.697C139.25 210.663 139.316 210.628 139.386 210.596C139.788 210.408 140.352 210.272 140.607 210.592C140.835 210.877 141.108 210.982 141.378 211.085L141.379 211.084C141.651 211.189 141.921 211.293 142.175 211.547L141.874 211.848ZM142.671 209.012C142.513 208.412 141.874 208.069 141.216 207.714C140.729 207.453 140.233 207.186 139.866 206.795L139.866 206.795L139.865 206.794L139.865 206.795C139.669 206.599 139.543 206.473 139.422 206.421L139.422 206.421C139.343 206.387 139.25 206.377 139.115 206.392C139.159 206.562 139.214 206.731 139.269 206.896C139.406 207.308 139.538 207.706 139.496 208.126L139.074 208.084C139.106 207.752 138.989 207.397 138.867 207.029C138.784 206.78 138.699 206.525 138.65 206.255L138.612 206.049L138.817 206.009C139.167 205.939 139.384 205.942 139.589 206.03H139.59C139.787 206.115 139.936 206.263 140.166 206.493L140.169 206.497L140.175 206.503L140.175 206.504C140.496 206.844 140.961 207.094 141.417 207.34C142.158 207.738 142.878 208.125 143.083 208.904L142.671 209.012ZM159.765 208.157L159.764 208.16C159.543 208.992 158.865 209.315 158.234 209.615C158.096 209.681 157.959 209.746 157.845 209.808L157.842 209.81L157.841 209.81L157.84 209.811C157.616 209.962 157.387 210.096 157.154 210.209C156.918 210.324 156.673 210.422 156.42 210.5C155.154 210.888 153.755 210.749 152.449 209.795C151.951 210.38 151.281 210.797 150.534 211.089C149.381 211.541 148.047 211.696 146.9 211.727L146.89 211.302C147.996 211.273 149.28 211.124 150.379 210.693C151.448 210.274 152.342 209.587 152.716 208.479C152.774 208.217 152.832 207.927 152.84 207.622C152.846 207.322 152.804 206.999 152.665 206.665H152.665L152.665 206.664V206.664C152.642 206.611 152.616 206.557 152.586 206.504V206.503C152.556 206.446 152.524 206.392 152.491 206.341H152.49C152.313 206.062 152.087 205.805 151.92 205.639L151.92 205.638C151.818 205.545 151.709 205.461 151.595 205.39C151.48 205.317 151.358 205.255 151.232 205.204C150.588 204.944 149.822 204.983 149.142 205.423L149.133 205.428C148.826 205.608 148.66 205.82 148.611 206.063C148.56 206.317 148.629 206.622 148.789 206.972L148.794 206.984L148.407 207.16L148.407 207.159V207.158L148.403 207.149C148.35 207.045 148.198 206.916 147.981 206.786C147.647 206.586 147.181 206.405 146.695 206.321C146.22 206.239 145.73 206.25 145.336 206.429C145.107 206.533 144.907 206.698 144.764 206.937L144.652 207.123L144.469 207.008C144.299 206.902 144.155 206.774 144.01 206.645C143.743 206.407 143.471 206.164 143.048 206.127C142.655 206.124 142.596 205.958 142.514 205.726H142.514C142.485 205.644 142.45 205.546 142.361 205.457C142.186 205.282 142.083 205.121 141.993 204.98C141.856 204.765 141.757 204.609 141.323 204.542L141.276 204.535L141.236 204.509L141.232 204.506L141.232 204.506L141.082 204.407L141.082 204.408L140.923 204.308C140.663 204.149 140.413 204.007 140.246 203.923C139.684 203.746 139.065 203.569 138.48 203.555C137.918 203.541 137.378 203.678 136.939 204.117C136.292 204.764 136.138 205.619 136.217 206.521C136.299 207.455 136.629 208.445 136.929 209.316L136.526 209.454C136.218 208.559 135.878 207.539 135.792 206.557C135.703 205.541 135.885 204.569 136.638 203.816C137.173 203.281 137.82 203.114 138.491 203.13C139.136 203.146 139.792 203.333 140.384 203.52L140.396 203.524L140.415 203.533C140.598 203.624 140.873 203.778 141.146 203.946L141.147 203.947L141.307 204.046L141.31 204.049L141.431 204.128C141.835 204.196 142.028 204.324 142.171 204.495C142.359 204.445 142.543 204.406 142.722 204.38C142.965 204.344 143.204 204.328 143.437 204.331C144.637 204.35 145.633 204.884 146.328 205.718L146.174 205.846C146.371 205.848 146.571 205.868 146.767 205.902C147.296 205.993 147.807 206.19 148.179 206.409C148.162 206.259 148.166 206.116 148.193 205.979C148.266 205.615 148.496 205.308 148.918 205.062C149.721 204.546 150.627 204.502 151.391 204.81C151.54 204.87 151.684 204.944 151.821 205.03C151.959 205.117 152.089 205.216 152.208 205.326L152.214 205.332L152.221 205.338C152.403 205.52 152.652 205.802 152.85 206.113L152.849 206.114C152.889 206.177 152.927 206.239 152.96 206.301L152.961 206.301C152.995 206.365 153.028 206.43 153.056 206.497V206.498L153.057 206.501L153.059 206.503C153.223 206.898 153.273 207.278 153.265 207.631C153.264 207.665 153.262 207.697 153.26 207.731C153.481 207.76 153.708 207.818 153.923 207.872H153.924C154.321 207.973 154.677 208.063 154.747 207.94L154.749 207.937L154.749 207.937C154.905 207.663 154.966 207.281 155.028 206.896C155.154 206.113 155.283 205.316 156.144 205.043C156.666 204.863 157.214 204.856 157.721 204.983C158.172 205.095 158.594 205.316 158.939 205.616C159.288 205.918 159.561 206.303 159.712 206.741C159.86 207.17 159.892 207.651 159.765 208.157ZM161.994 173.524H186.956V191.972H161.994V173.524ZM201.081 216.872H163.881V195.747H201.081V216.872Z" fill="white"/>
<path d="M164.395 190.023V176.324V175.989H164.73H183.786H184.121V176.324V190.023V190.358H183.786H164.73H164.395V190.023ZM165.065 176.659V189.688H183.451V176.659H165.065ZM167.257 213.828V198.486L167.257 198.15L167.591 198.151H197.85L198.183 198.15L198.184 198.486V213.828L198.183 214.163H197.85H167.591H167.257L167.257 213.828ZM167.925 198.821V213.493H197.516V198.821H167.925Z" fill="white"/>
<path d="M92.8855 243.113V242.017C92.8855 242.017 92.8855 230.937 92.9464 230.389C93.4946 227.71 93.7379 225.031 95.1991 224.057C95.8079 223.631 95.9296 222.413 94.347 222.596C93.4946 222.718 86.8583 223.144 85.5797 222.048L84.1797 229.354C84.1797 229.354 88.624 228.928 85.0318 231.911C85.0318 231.911 85.2751 232.946 85.2751 236.782C85.2751 240.557 85.2751 249.445 84.423 251.15H102.383C103.236 251.333 103.418 251.759 103.418 253.22C103.418 254.743 104.514 258.334 101.531 259.37C98.5475 260.465 96.9039 260.648 95.6253 260.648L94.347 267.832C94.347 267.832 102.383 265.275 104.514 263.814C106.584 262.353 109.567 261.257 109.567 256.873C109.567 252.429 109.567 244.575 110.603 243.114H92.8855V243.113ZM107.619 255.229C107.619 258.943 107.558 259.917 106.462 260.769C104.818 262.17 98.1825 264.727 98.1825 264.727L98.8523 262.475C99.9483 262.109 101.531 261.379 104.21 260.344C106.645 259.309 105.671 252.064 105.671 250.785C105.671 249.568 105.489 249.202 104.819 249.02H88.4417C89.1115 247.558 89.1115 240.496 89.1115 237.269C89.1115 234.043 89.2944 230.268 89.2944 230.268C92.3385 227.772 87.7109 228.381 87.7109 228.381L87.407 223.875C87.7109 224.667 91.1815 224.545 91.8513 224.423C93.1906 224.241 93.1296 225.337 92.5818 225.702C91.3644 226.493 91.7906 227.346 91.3644 229.659C91.2425 230.147 91.1208 245.976 91.1208 245.976V246.889H107.985C107.071 248.106 107.619 251.455 107.619 255.229Z" fill="white"/>
</g>
<defs>
<clipPath id="clip0_180_8409">
<rect width="300" height="300" fill="white"/>
</clipPath>
</defs>
</svg>
