<svg width="300" height="300" viewBox="0 0 300 300" fill="none" xmlns="http://www.w3.org/2000/svg">
<path d="M150.001 150L248.243 150.13C273.918 155.237 266.489 192.582 240.815 187.475L150.001 150Z" fill="#FFD700" stroke="black" stroke-width="1.18988"/>
<path d="M149.997 150L240.711 187.716C262.477 202.26 241.323 233.919 219.557 219.375L149.997 150Z" fill="#FFD700" stroke="black" stroke-width="1.18988"/>
<path d="M149.999 150L219.374 219.56C233.917 241.326 202.258 262.48 187.715 240.714L149.999 150Z" fill="#FFD700" stroke="black" stroke-width="1.18988"/>
<path d="M150 150L187.475 240.814C192.582 266.488 155.237 273.916 150.13 248.242L150 150Z" fill="#FFD700" stroke="black" stroke-width="1.18988"/>
<path d="M150 150L149.869 248.242C144.762 273.917 107.418 266.488 112.524 240.814L150 150Z" fill="#FFD700" stroke="black" stroke-width="1.18988"/>
<path d="M150.002 150L112.286 240.714C97.7427 262.48 66.0835 241.326 80.6269 219.56L150.002 150Z" fill="#FFD700" stroke="black" stroke-width="1.18988"/>
<path d="M149.997 150L80.437 219.375C58.6713 233.918 37.5173 202.259 59.283 187.716L149.997 150Z" fill="#FFD700" stroke="black" stroke-width="1.18988"/>
<path d="M149.997 150L59.1826 187.475C33.5083 192.582 26.08 155.237 51.7543 150.13L149.997 150Z" fill="#FFD700" stroke="black" stroke-width="1.18988"/>
<path d="M149.991 149.999L51.749 149.869C26.0747 144.762 33.5029 107.417 59.1773 112.524L149.991 149.999Z" fill="#FFD700" stroke="black" stroke-width="1.18988"/>
<path d="M149.995 149.999L59.2807 112.283C37.5151 97.7395 58.669 66.0804 80.4347 80.6237L149.995 149.999Z" fill="#FFD700" stroke="black" stroke-width="1.18988"/>
<path d="M149.994 149.999L80.6181 80.4392C66.0747 58.6735 97.7339 37.5195 112.277 59.2852L149.994 149.999Z" fill="#FFD700" stroke="black" stroke-width="1.18988"/>
<path d="M149.993 149.999L112.517 59.1853C107.411 33.5109 144.755 26.0827 149.862 51.757L149.993 149.999Z" fill="#FFD700" stroke="black" stroke-width="1.18988"/>
<path d="M149.993 150L150.123 51.7571C155.23 26.0827 192.575 33.511 187.468 59.1854L149.993 150Z" fill="#FFD700" stroke="black" stroke-width="1.18988"/>
<path d="M149.99 150L187.706 59.2854C202.25 37.5197 233.909 58.6737 219.365 80.4393L149.99 150Z" fill="#FFD700" stroke="black" stroke-width="1.18988"/>
<path d="M149.995 150L219.555 80.6239C241.321 66.0806 262.475 97.7397 240.709 112.283L149.995 150Z" fill="#FFD700" stroke="black" stroke-width="1.18988"/>
<path d="M149.995 149.999L240.81 112.524C266.484 107.417 273.912 144.762 248.238 149.869L149.995 149.999Z" fill="#FFD700" stroke="black" stroke-width="1.18988"/>
<path d="M146.979 165.171C155.358 166.837 163.502 161.396 165.168 153.017C166.835 144.638 161.394 136.495 153.015 134.828C144.636 133.162 136.493 138.603 134.826 146.982C133.159 155.361 138.601 163.504 146.979 165.171Z" fill="#FFD700" stroke="black" stroke-width="1.18988"/>
<path d="M150.941 148.932L256.563 128.069C285.25 128.069 285.25 169.796 256.563 169.796L150.941 148.932Z" fill="#FFD700" stroke="black" stroke-width="1.30396"/>
<path d="M150.942 148.932L256.507 170.076C283.011 181.055 267.042 219.605 240.539 208.627L150.942 148.932Z" fill="#FFD700" stroke="black" stroke-width="1.30396"/>
<path d="M150.943 148.932L240.381 208.865C260.666 229.15 231.16 258.655 210.875 238.37L150.943 148.932Z" fill="#FFD700" stroke="black" stroke-width="1.30396"/>
<path d="M150.94 148.933L210.634 238.53C221.612 265.033 183.062 281.001 172.084 254.498L150.94 148.933Z" fill="#FFD700" stroke="black" stroke-width="1.30396"/>
<path d="M150.93 148.933L171.793 254.554C171.793 283.241 130.066 283.241 130.066 254.554L150.93 148.933Z" fill="#FFD700" stroke="black" stroke-width="1.30396"/>
<path d="M150.928 148.932L129.784 254.498C118.806 281.001 80.255 265.033 91.2331 238.53L150.928 148.932Z" fill="#FFD700" stroke="black" stroke-width="1.30396"/>
<path d="M150.931 148.932L90.9982 238.37C70.7133 258.655 41.2079 229.15 61.4928 208.865L150.931 148.932Z" fill="#FFD700" stroke="black" stroke-width="1.30396"/>
<path d="M150.93 148.932L61.3329 208.627C34.8293 219.605 18.8612 181.055 45.3647 170.076L150.93 148.932Z" fill="#FFD700" stroke="black" stroke-width="1.30396"/>
<path d="M150.934 148.933L45.3125 169.796C16.6252 169.796 16.6252 128.069 45.3125 128.069L150.934 148.933Z" fill="#FFD700" stroke="black" stroke-width="1.30396"/>
<path d="M150.933 148.933L45.368 127.789C18.8645 116.81 34.8327 78.2598 61.3362 89.238L150.933 148.933Z" fill="#FFD700" stroke="black" stroke-width="1.30396"/>
<path d="M150.94 148.933L61.5021 88.9999C41.2172 68.715 70.7225 39.2096 91.0074 59.4945L150.94 148.933Z" fill="#FFD700" stroke="black" stroke-width="1.30396"/>
<path d="M150.943 148.932L91.2485 59.3353C80.2704 32.8318 118.821 16.8636 129.799 43.3671L150.943 148.932Z" fill="#FFD700" stroke="black" stroke-width="1.30396"/>
<path d="M150.934 148.933L130.07 43.3115C130.07 14.6243 171.797 14.6243 171.797 43.3115L150.934 148.933Z" fill="#FFD700" stroke="black" stroke-width="1.30396"/>
<path d="M150.935 148.933L172.08 43.3675C183.058 16.864 221.608 32.8322 210.63 59.3357L150.935 148.933Z" fill="#FFD700" stroke="black" stroke-width="1.30396"/>
<path d="M150.936 148.933L210.869 59.4948C231.154 39.2098 260.659 68.7152 240.374 89.0001L150.936 148.933Z" fill="#FFD700" stroke="black" stroke-width="1.30396"/>
<path d="M150.937 148.933L240.534 89.2383C267.038 78.2601 283.006 116.811 256.502 127.789L150.937 148.933Z" fill="#FFD700" stroke="black" stroke-width="1.30396"/>
<path d="M150.936 165.884C160.298 165.884 167.887 158.294 167.887 148.932C167.887 139.57 160.298 131.981 150.936 131.981C141.574 131.981 133.984 139.57 133.984 148.932C133.984 158.294 141.574 165.884 150.936 165.884Z" fill="#FFD700" stroke="black" stroke-width="1.30396"/>
</svg>
