<svg width="219" height="271" viewBox="0 0 219 271" fill="none" xmlns="http://www.w3.org/2000/svg">
<path fill-rule="evenodd" clip-rule="evenodd" d="M2.98633 3.23071V163.122C2.98633 208.788 60.4222 268.101 109.273 268.101C158.123 268.101 215.559 208.788 215.559 163.122V3.23071H2.98633Z" fill="#D1081D" stroke="#F7D917" stroke-width="4" stroke-linecap="square"/>
<path fill-rule="evenodd" clip-rule="evenodd" d="M193.629 131.114C193.629 134.043 194.28 136.972 194.606 137.949C194.931 138.925 195.094 140.146 195.094 140.146C195.094 140.146 196.234 138.437 196.234 136.484C196.234 134.531 195.908 131.846 195.908 131.846" fill="#0139AB"/>
<path d="M193.629 131.114C193.629 134.043 194.28 136.972 194.606 137.949C194.931 138.925 195.094 140.146 195.094 140.146C195.094 140.146 196.234 138.437 196.234 136.484C196.234 134.531 195.908 131.846 195.908 131.846" stroke="black" stroke-width="0.90294"/>
<path fill-rule="evenodd" clip-rule="evenodd" d="M187.77 131.114C187.77 131.358 186.793 132.578 186.956 134.775C187.118 136.972 187.607 138.681 187.607 138.437C187.607 138.193 187.607 136.24 188.747 135.019C189.886 133.799 191.676 133.067 191.676 133.067" fill="#0139AB"/>
<path d="M187.77 131.114C187.77 131.358 186.793 132.578 186.956 134.775C187.118 136.972 187.607 138.681 187.607 138.437C187.607 138.193 187.607 136.24 188.747 135.019C189.886 133.799 191.676 133.067 191.676 133.067" stroke="black" stroke-width="0.90294"/>
<path fill-rule="evenodd" clip-rule="evenodd" d="M186.63 125.988C182.886 130.137 184.188 132.334 184.188 132.334C184.188 132.334 184.351 131.358 185.653 131.358C186.955 131.358 189.397 132.578 189.397 132.578" fill="#0139AB"/>
<path d="M186.63 125.988C182.886 130.137 184.188 132.334 184.188 132.334C184.188 132.334 184.351 131.358 185.653 131.358C186.955 131.358 189.397 132.578 189.397 132.578" stroke="black" stroke-width="0.90294"/>
<path fill-rule="evenodd" clip-rule="evenodd" d="M127.377 134.775C127.051 138.681 128.19 141.122 128.19 141.122C128.19 141.122 129.493 139.902 129.33 136.728C129.167 133.555 128.354 131.846 128.354 131.846" fill="#0139AB"/>
<path d="M127.377 134.775C127.051 138.681 128.19 141.122 128.19 141.122C128.19 141.122 129.493 139.902 129.33 136.728C129.167 133.555 128.354 131.846 128.354 131.846" stroke="black" stroke-width="0.90294"/>
<path fill-rule="evenodd" clip-rule="evenodd" d="M121.516 132.334C121.353 132.334 120.051 133.555 119.074 134.775C118.098 135.996 118.26 137.949 118.26 137.949C118.26 137.949 121.191 135.996 122.167 136.24C123.144 136.484 123.632 137.461 123.632 137.461" fill="#0139AB"/>
<path d="M121.516 132.334C121.353 132.334 120.051 133.555 119.074 134.775C118.098 135.996 118.26 137.949 118.26 137.949C118.26 137.949 121.191 135.996 122.167 136.24C123.144 136.484 123.632 137.461 123.632 137.461" stroke="black" stroke-width="0.90294"/>
<path fill-rule="evenodd" clip-rule="evenodd" d="M122.493 126.232C119.726 125.011 117.772 127.696 117.935 127.696C118.098 127.696 120.703 127.696 121.191 129.161C121.679 130.626 122.981 132.334 122.981 132.334" fill="#0139AB"/>
<path d="M122.493 126.232C119.726 125.011 117.772 127.696 117.935 127.696C118.098 127.696 120.703 127.696 121.191 129.161C121.679 130.626 122.981 132.334 122.981 132.334" stroke="black" stroke-width="0.90294"/>
<path fill-rule="evenodd" clip-rule="evenodd" d="M128.516 123.302C128.191 123.302 128.191 121.349 126.726 121.105C125.261 120.861 124.121 122.326 124.121 122.326C124.121 122.326 127.214 125.255 127.377 125.255C127.54 125.255 128.516 123.79 128.516 123.302Z" fill="#0139AB" stroke="black" stroke-width="0.90294"/>
<path fill-rule="evenodd" clip-rule="evenodd" d="M31.1901 91.4783C31.4203 89.4069 30.9023 86.0411 30.9023 86.0411C30.9023 86.0411 31.9383 85.8685 32.9742 87.422C34.0102 88.9755 33.5498 91.4783 33.5498 91.4783" fill="#0139AB"/>
<path d="M31.1901 91.4783C31.4203 89.4069 30.9023 86.0411 30.9023 86.0411C30.9023 86.0411 31.9383 85.8685 32.9742 87.422C34.0102 88.9755 33.5498 91.4783 33.5498 91.4783" stroke="black" stroke-width="0.90294"/>
<path fill-rule="evenodd" clip-rule="evenodd" d="M25.1481 90.7015C25.3783 86.4726 23.5941 85.3506 23.5366 85.3506C23.479 85.3506 25.2056 84.5738 26.3567 85.3506C27.5077 86.1273 27.9681 90.0111 27.9681 90.0111" fill="#0139AB"/>
<path d="M25.1481 90.7015C25.3783 86.4726 23.5941 85.3506 23.5366 85.3506C23.479 85.3506 25.2056 84.5738 26.3567 85.3506C27.5077 86.1273 27.9681 90.0111 27.9681 90.0111" stroke="black" stroke-width="0.90294"/>
<path fill-rule="evenodd" clip-rule="evenodd" d="M20.1982 91.996C18.8169 88.1986 17.5508 89.0616 17.5508 89.0616C17.5508 89.0616 18.5867 87.5945 20.0255 88.026C21.4643 88.4574 22.7305 90.4425 22.7305 90.3562" fill="#0139AB"/>
<path d="M20.1982 91.996C18.8169 88.1986 17.5508 89.0616 17.5508 89.0616C17.5508 89.0616 18.5867 87.5945 20.0255 88.026C21.4643 88.4574 22.7305 90.4425 22.7305 90.3562" stroke="black" stroke-width="0.90294"/>
<path fill-rule="evenodd" clip-rule="evenodd" d="M21.579 100.454C20.3128 101.49 19.9675 101.921 18.9316 101.662C17.8956 101.403 17.0898 101.317 17.0898 101.317C17.0898 101.317 17.7229 98.2963 18.5287 97.9511C19.3344 97.6059 20.7733 97.6922 20.7733 97.6922" fill="#0139AB"/>
<path d="M21.579 100.454C20.3128 101.49 19.9675 101.921 18.9316 101.662C17.8956 101.403 17.0898 101.317 17.0898 101.317C17.0898 101.317 17.7229 98.2963 18.5287 97.9511C19.3344 97.6059 20.7733 97.6922 20.7733 97.6922" stroke="black" stroke-width="0.90294"/>
<path fill-rule="evenodd" clip-rule="evenodd" d="M25.312 119.397C25.312 117.444 24.498 116.467 24.498 116.467C24.498 116.467 25.6375 115.247 26.777 116.955C27.9165 118.664 28.4048 121.349 28.4048 121.349" fill="#0139AB"/>
<path d="M25.312 119.397C25.312 117.444 24.498 116.467 24.498 116.467C24.498 116.467 25.6375 115.247 26.777 116.955C27.9165 118.664 28.4048 121.349 28.4048 121.349" stroke="black" stroke-width="0.90294"/>
<path fill-rule="evenodd" clip-rule="evenodd" d="M20.6008 122.117C20.5432 122.117 20.0252 120.649 19.2771 120.131C18.5289 119.614 17.8382 119.527 18.0685 119.527C18.2987 119.527 18.0685 118.492 19.68 118.492C21.2914 118.492 22.3274 119.268 22.3274 119.268" fill="#0139AB"/>
<path d="M20.6008 122.117C20.5432 122.117 20.0252 120.649 19.2771 120.131C18.5289 119.614 17.8382 119.527 18.0685 119.527C18.2987 119.527 18.0685 118.492 19.68 118.492C21.2914 118.492 22.3274 119.268 22.3274 119.268" stroke="black" stroke-width="0.90294"/>
<path fill-rule="evenodd" clip-rule="evenodd" d="M19.968 126.518C16.4572 126.173 16.1119 129.366 16.227 129.453C16.3421 129.539 17.6658 130.488 18.4716 130.575C19.2773 130.661 19.968 130.575 19.968 130.575" fill="#0139AB"/>
<path d="M19.968 126.518C16.4572 126.173 16.1119 129.366 16.227 129.453C16.3421 129.539 17.6658 130.488 18.4716 130.575C19.2773 130.661 19.968 130.575 19.968 130.575" stroke="black" stroke-width="0.90294"/>
<path fill-rule="evenodd" clip-rule="evenodd" d="M21.5803 133.94C19.7962 137.651 20.1415 139.637 20.3142 139.637C20.4868 139.637 21.1199 139.119 22.0407 138.083C22.9616 137.047 23.5947 135.062 23.5947 135.062" fill="#0139AB"/>
<path d="M21.5803 133.94C19.7962 137.651 20.1415 139.637 20.3142 139.637C20.4868 139.637 21.1199 139.119 22.0407 138.083C22.9616 137.047 23.5947 135.062 23.5947 135.062" stroke="black" stroke-width="0.90294"/>
<path fill-rule="evenodd" clip-rule="evenodd" d="M23.0332 125.987C23.196 125.987 23.8471 118.176 26.1261 118.664C28.4051 119.153 27.5912 119.153 28.4051 119.641C29.219 120.129 30.8469 125.499 30.8469 125.499" fill="#FDD400"/>
<path d="M23.0332 125.987C23.196 125.987 23.8471 118.176 26.1261 118.664C28.4051 119.153 27.5912 119.153 28.4051 119.641C29.219 120.129 30.8469 125.499 30.8469 125.499" stroke="black" stroke-width="0.90294"/>
<path fill-rule="evenodd" clip-rule="evenodd" d="M187.447 130.576C187.101 130.231 184.454 128.16 185.836 126.434C187.217 124.708 195.389 126.088 195.389 126.088" fill="#FDD400"/>
<path d="M187.447 130.576C187.101 130.231 184.454 128.16 185.836 126.434C187.217 124.708 195.389 126.088 195.389 126.088" stroke="black" stroke-width="0.90294"/>
<path fill-rule="evenodd" clip-rule="evenodd" d="M133.692 130.059C132.772 129.541 131.736 129.368 130.584 126.606C129.434 123.845 130.124 123.845 129.664 123.154C129.204 122.464 128.282 122.809 126.671 123.327C125.059 123.845 125.52 129.368 125.52 129.368" fill="#FDD400"/>
<path d="M133.692 130.059C132.772 129.541 131.736 129.368 130.584 126.606C129.434 123.845 130.124 123.845 129.664 123.154C129.204 122.464 128.282 122.809 126.671 123.327C125.059 123.845 125.52 129.368 125.52 129.368" stroke="black" stroke-width="0.90294"/>
<path fill-rule="evenodd" clip-rule="evenodd" d="M147.389 107.619C146.468 108.137 138.526 113.833 138.756 116.94C138.986 120.047 143.821 121.773 143.706 123.672C143.59 125.571 139.101 126.952 134.958 127.124C130.814 127.297 129.663 128.333 127.245 127.642C124.828 126.952 121.26 123.499 120.569 127.469C119.879 131.44 120.799 131.612 120.799 131.612C120.799 131.612 120.224 133.683 120.799 135.41C121.375 137.136 121.951 138.171 123.447 138.171C124.943 138.171 125.404 136.79 125.404 136.79C125.404 136.79 125.634 138.517 128.281 138.689C130.929 138.862 131.735 136.963 131.85 136.963C131.965 136.963 134.152 137.654 135.188 137.308C136.224 136.963 137.605 136.1 137.605 136.1C137.605 136.1 136.454 138.516 136.569 138.516C136.684 138.516 138.871 138.344 141.173 137.826C143.475 137.308 145.202 135.064 145.087 135.064C144.972 135.064 143.13 138.171 146.007 137.999C148.885 137.826 150.267 134.546 152.338 134.892C154.41 135.237 155.561 134.546 155.561 134.546C155.561 134.546 156.137 133.166 156.828 132.475C157.518 131.785 158.324 131.612 158.324 131.612C158.324 131.612 160.166 131.267 160.166 131.094C160.166 130.922 160.166 126.779 160.166 126.779C160.166 126.779 157.173 126.434 157.173 123.327C157.173 120.22 165.23 116.94 165.23 116.94L147.389 107.619Z" fill="#F7D917" stroke="black" stroke-width="0.90294"/>
<path fill-rule="evenodd" clip-rule="evenodd" d="M31.1327 105.548C31.5931 91.3938 34.1254 97.2625 34.1254 94.1556C34.1254 91.0486 33.0895 88.9773 32.2838 88.9773C30.4421 88.9773 25.8379 94.846 25.8379 94.846" fill="#FDD400"/>
<path d="M31.1327 105.548C31.5931 91.3938 34.1254 97.2625 34.1254 94.1556C34.1254 91.0486 33.0895 88.9773 32.2838 88.9773C30.4421 88.9773 25.8379 94.846 25.8379 94.846" stroke="black" stroke-width="0.90294"/>
<path fill-rule="evenodd" clip-rule="evenodd" d="M63.2475 115.214C62.0964 114.697 44.2551 111.072 38.2696 107.62C32.2842 104.168 29.7519 98.6443 29.2914 95.8826C28.831 93.1208 29.982 88.6331 26.5288 88.6331C23.0757 88.6331 24.9174 93.1208 24.9174 93.1208C24.9174 93.1208 22.1548 85.8713 20.0829 90.0139C18.0111 94.1565 22.6153 97.2635 22.6153 97.2635C22.6153 97.2635 18.1608 94.4824 19.2772 98.9895C21.1536 106.565 24.2268 103.823 24.6872 105.549C25.1476 107.275 22.3851 109.001 22.8455 109.346C23.3059 109.691 25.1476 110.9 26.2986 111.245C27.4497 111.59 29.0612 112.108 29.0612 112.108L27.3346 114.178C27.3346 114.178 30.5576 117.631 32.169 118.494C33.7805 119.357 35.8524 118.494 35.7373 118.494C35.6222 118.494 32.7445 120.392 32.7445 120.392C32.7445 120.392 34.3561 121.773 36.0826 122.118C37.8092 122.464 39.3056 122.636 39.3056 122.636L37.4639 123.844L62.3267 131.267L63.2475 115.214Z" fill="#F7D917" stroke="black" stroke-width="0.90294"/>
<path fill-rule="evenodd" clip-rule="evenodd" d="M64.8584 112.452C64.2829 112.625 53.6932 124.19 42.528 124.708C31.3627 125.225 25.0319 124.362 25.0319 124.362C25.0319 124.362 23.4205 116.422 20.658 120.047C17.8954 123.672 20.0824 125.053 20.0824 125.053C20.0824 125.053 20.5428 124.88 21.2335 125.743C21.9241 126.606 22.3845 127.642 22.3845 127.642C22.3845 127.642 18.7012 123.154 18.7012 128.505C18.7012 133.856 21.1183 131.957 21.0032 131.957C20.8882 131.957 20.4277 136.618 21.0032 136.79C21.5788 136.963 23.8809 137.826 25.147 137.481C26.4132 137.136 26.2981 136.1 26.6434 135.927C26.9887 135.755 28.9455 134.546 29.2908 135.064C29.6361 135.582 27.1038 138.862 27.5642 138.862C28.0246 138.862 31.8231 138.862 32.9742 137.481C34.1252 136.1 34.7008 134.029 34.8159 134.201C34.931 134.374 32.8591 138.344 33.0893 138.344C33.3195 138.344 37.4634 139.034 38.4993 138.516C39.5352 137.999 40.5712 136.272 40.5712 136.272C40.5712 136.272 39.8805 138.344 40.1107 138.516C40.3409 138.689 42.4128 138.862 44.3696 137.826C46.3264 136.79 47.1321 135.927 47.1321 135.927L46.5566 138.344C46.5566 138.344 49.5494 138.171 51.2759 136.272C53.0025 134.374 53.8083 134.201 53.8083 134.201C53.8083 134.201 52.0817 137.136 52.3119 137.136C52.5421 137.136 55.6499 136.963 57.0312 136.272C58.4125 135.582 59.7938 135.064 59.7938 135.064C59.7938 135.064 58.1823 137.481 58.2974 137.481C58.4125 137.481 60.5995 137.653 63.3621 136.618C66.1248 135.582 68.0814 134.374 68.0814 134.374C68.0814 134.374 64.8584 137.826 65.5491 137.826C66.2398 137.826 70.3835 137.999 72.4551 136.79C74.5273 135.582 74.9879 134.374 74.9879 134.374C74.9879 134.374 81.6639 134.719 83.0453 133.165C84.4262 131.612 84.0811 130.922 83.9661 131.094C83.851 131.267 87.9948 132.13 90.1814 132.648C92.3686 133.165 96.9729 133.338 100.081 132.475C103.188 131.612 137.029 111.762 143.245 112.107C149.461 112.452 150.612 114.696 152.453 114.524C154.296 114.351 155.331 113.488 155.331 113.661C155.331 113.833 164.425 124.19 176.741 123.499C189.057 122.809 186.64 121.773 188.597 121.601C190.553 121.428 192.855 123.327 192.625 125.053C192.395 126.779 191.359 127.815 190.093 127.987C188.827 128.16 187.446 129.368 187.446 131.094C187.446 132.82 188.827 135.237 190.323 135.237C191.82 135.237 192.28 134.374 192.74 134.201C193.201 134.029 193.661 136.1 195.618 135.237C197.575 134.374 198.151 133.511 198.611 133.338C199.071 133.165 202.064 132.993 202.064 132.82C202.064 132.648 202.294 127.124 202.294 127.124C202.294 127.124 205.517 126.779 205.517 125.743C205.517 124.708 204.366 122.464 203.676 121.428C202.985 120.392 202.179 119.529 202.179 119.529C202.179 119.529 204.366 120.738 204.827 120.565C205.287 120.392 206.323 119.702 206.323 119.702C206.323 119.702 204.827 117.113 203.676 116.25C202.524 115.387 199.762 114.524 199.762 114.524C199.762 114.524 201.373 114.178 202.639 113.143C203.906 112.107 205.057 110.726 205.057 110.554C205.057 110.381 201.604 107.447 198.956 107.792C196.309 108.137 192.625 111.417 188.136 111.417C183.647 111.417 178.813 107.964 178.813 107.964C178.813 107.964 185.374 107.964 188.367 107.792C191.359 107.619 197.805 105.548 197.805 99.1614C197.805 92.7748 192.855 89.3225 180.884 88.9774C168.914 88.6321 144.679 88.9678 137.115 89.8237C124.854 91.2111 112.988 90.2024 107.348 90.2024C101.707 90.2024 100.211 88.9941 100.096 86.2323C100.036 84.785 102.599 84.2857 105.053 84.0639C105.85 83.9918 111.136 82.6985 117.598 82.7151C129.21 82.7447 144.621 84.1245 144.621 83.9662C144.621 83.4484 144.851 82.7579 144.966 82.7579C145.081 82.7579 145.887 84.8292 147.038 85.0018C148.189 85.1744 150.491 84.6566 150.491 84.6566C150.491 84.6566 151.412 86.21 153.023 86.0375C154.635 85.8648 155.326 84.6566 155.326 84.6566C155.326 84.6566 156.246 85.8648 157.973 85.6922C159.7 85.5197 160.966 83.2757 161.311 83.2757C161.656 83.2757 162.923 83.6208 164.074 82.9305C165.224 82.2401 170.52 77.0618 170.52 77.0618C170.52 77.0618 165.915 78.27 163.153 78.27C160.39 78.27 158.663 76.7165 155.21 77.2343C151.757 77.7521 148.074 79.3057 146.117 79.1331C144.848 79.0211 129.449 77.5542 117.589 77.4449C111.164 77.3856 105.777 78.6376 104.24 78.6376C99.8658 78.6376 95.9522 82.9527 95.4921 87.9584C95.0314 92.9642 99.2614 92.9096 104.125 95.5533C110.619 99.0834 169.259 93.983 178.007 94.3283C186.755 94.6734 192.395 95.364 192.395 99.1614C192.395 102.959 186.525 103.131 182.266 102.959C178.007 102.786 168.108 101.06 160.856 101.233C153.605 101.405 106.987 111.417 98.5844 111.244C90.1814 111.071 85.0019 110.381 85.0019 110.208C85.0019 110.036 64.8584 112.798 64.8584 112.452ZM148.534 81.8948C148.534 81.8948 149.11 83.621 149.915 84.3114C150.721 85.0018 151.872 85.8648 151.872 85.8648M153.369 82.4127C153.369 82.4127 154.175 82.5853 154.52 83.2757C154.865 83.9662 155.671 84.8292 155.671 84.8292M158.894 81.5496C159.584 81.5496 160.39 83.6209 160.39 83.6209L158.894 81.5496Z" fill="#F7D917"/>
<path d="M148.534 81.8948C148.534 81.8948 149.11 83.621 149.915 84.3114C150.721 85.0018 151.872 85.8648 151.872 85.8648M153.369 82.4127C153.369 82.4127 154.175 82.5853 154.52 83.2757C154.865 83.9662 155.671 84.8292 155.671 84.8292M158.894 81.5496C159.584 81.5496 160.39 83.6209 160.39 83.6209M64.8584 112.452C64.2829 112.625 53.6932 124.19 42.528 124.708C31.3627 125.225 25.0319 124.362 25.0319 124.362C25.0319 124.362 23.4205 116.422 20.658 120.047C17.8954 123.672 20.0824 125.053 20.0824 125.053C20.0824 125.053 20.5428 124.88 21.2335 125.743C21.9241 126.606 22.3845 127.642 22.3845 127.642C22.3845 127.642 18.7012 123.154 18.7012 128.505C18.7012 133.856 21.1183 131.957 21.0032 131.957C20.8882 131.957 20.4277 136.618 21.0032 136.79C21.5788 136.963 23.8809 137.826 25.147 137.481C26.4132 137.136 26.2981 136.1 26.6434 135.927C26.9887 135.755 28.9455 134.546 29.2908 135.064C29.6361 135.582 27.1038 138.862 27.5642 138.862C28.0246 138.862 31.8231 138.862 32.9742 137.481C34.1252 136.1 34.7008 134.029 34.8159 134.201C34.931 134.374 32.8591 138.344 33.0893 138.344C33.3195 138.344 37.4634 139.034 38.4993 138.516C39.5352 137.999 40.5712 136.272 40.5712 136.272C40.5712 136.272 39.8805 138.344 40.1107 138.516C40.3409 138.689 42.4128 138.862 44.3696 137.826C46.3264 136.79 47.1321 135.927 47.1321 135.927L46.5566 138.344C46.5566 138.344 49.5494 138.171 51.2759 136.272C53.0025 134.374 53.8083 134.201 53.8083 134.201C53.8083 134.201 52.0817 137.136 52.3119 137.136C52.5421 137.136 55.6499 136.963 57.0312 136.272C58.4125 135.582 59.7938 135.064 59.7938 135.064C59.7938 135.064 58.1823 137.481 58.2974 137.481C58.4125 137.481 60.5995 137.653 63.3621 136.618C66.1248 135.582 68.0814 134.374 68.0814 134.374C68.0814 134.374 64.8584 137.826 65.5491 137.826C66.2398 137.826 70.3835 137.999 72.4551 136.79C74.5273 135.582 74.9879 134.374 74.9879 134.374C74.9879 134.374 81.6639 134.719 83.0453 133.165C84.4262 131.612 84.0811 130.922 83.9661 131.094C83.851 131.267 87.9948 132.13 90.1814 132.648C92.3686 133.165 96.9729 133.338 100.081 132.475C103.188 131.612 137.029 111.762 143.245 112.107C149.461 112.452 150.612 114.696 152.453 114.524C154.296 114.351 155.331 113.488 155.331 113.661C155.331 113.833 164.425 124.19 176.741 123.499C189.057 122.809 186.64 121.773 188.597 121.601C190.553 121.428 192.855 123.327 192.625 125.053C192.395 126.779 191.359 127.815 190.093 127.987C188.827 128.16 187.446 129.368 187.446 131.094C187.446 132.82 188.827 135.237 190.323 135.237C191.82 135.237 192.28 134.374 192.74 134.201C193.201 134.029 193.661 136.1 195.618 135.237C197.575 134.374 198.151 133.511 198.611 133.338C199.071 133.165 202.064 132.993 202.064 132.82C202.064 132.648 202.294 127.124 202.294 127.124C202.294 127.124 205.517 126.779 205.517 125.743C205.517 124.708 204.366 122.464 203.676 121.428C202.985 120.392 202.179 119.529 202.179 119.529C202.179 119.529 204.366 120.738 204.827 120.565C205.287 120.392 206.323 119.702 206.323 119.702C206.323 119.702 204.827 117.113 203.676 116.25C202.524 115.387 199.762 114.524 199.762 114.524C199.762 114.524 201.373 114.178 202.639 113.143C203.906 112.107 205.057 110.726 205.057 110.554C205.057 110.381 201.604 107.447 198.956 107.792C196.309 108.137 192.625 111.417 188.136 111.417C183.647 111.417 178.813 107.964 178.813 107.964C178.813 107.964 185.374 107.964 188.367 107.792C191.359 107.619 197.805 105.548 197.805 99.1614C197.805 92.7748 192.855 89.3225 180.884 88.9774C168.914 88.6321 144.679 88.9678 137.115 89.8237C124.854 91.2111 112.988 90.2024 107.348 90.2024C101.707 90.2024 100.211 88.9941 100.096 86.2323C100.036 84.785 102.599 84.2857 105.053 84.0639C105.85 83.9918 111.136 82.6985 117.598 82.7151C129.21 82.7447 144.621 84.1245 144.621 83.9662C144.621 83.4484 144.851 82.7579 144.966 82.7579C145.081 82.7579 145.887 84.8292 147.038 85.0018C148.189 85.1744 150.491 84.6566 150.491 84.6566C150.491 84.6566 151.412 86.21 153.023 86.0375C154.635 85.8648 155.326 84.6566 155.326 84.6566C155.326 84.6566 156.246 85.8648 157.973 85.6922C159.7 85.5197 160.966 83.2757 161.311 83.2757C161.656 83.2757 162.923 83.6208 164.074 82.9305C165.224 82.2401 170.52 77.0618 170.52 77.0618C170.52 77.0618 165.915 78.27 163.153 78.27C160.39 78.27 158.663 76.7165 155.21 77.2343C151.757 77.7521 148.074 79.3057 146.117 79.1331C144.848 79.0211 129.449 77.5542 117.589 77.4449C111.164 77.3856 105.777 78.6376 104.24 78.6376C99.8658 78.6376 95.9522 82.9527 95.4921 87.9584C95.0314 92.9642 99.2614 92.9096 104.125 95.5533C110.619 99.0834 169.259 93.983 178.007 94.3283C186.755 94.6734 192.395 95.364 192.395 99.1614C192.395 102.959 186.525 103.131 182.266 102.959C178.007 102.786 168.108 101.06 160.856 101.233C153.605 101.405 106.987 111.417 98.5844 111.244C90.1814 111.071 85.0019 110.381 85.0019 110.208C85.0019 110.036 64.8584 112.798 64.8584 112.452Z" stroke="black" stroke-width="0.90294"/>
<path fill-rule="evenodd" clip-rule="evenodd" d="M57.2988 115.25C57.4616 115.006 57.9499 112.687 58.3568 110.978C58.7638 109.269 59.4964 107.072 59.4964 107.072C59.4964 107.072 57.8686 108.171 57.95 107.927C58.0313 107.683 57.6244 104.265 58.5197 101.824C59.415 99.3831 60.3102 98.0404 60.3102 97.064C60.3102 96.0875 59.415 96.5758 59.415 94.6229C59.415 92.67 59.008 89.8627 60.0661 89.2525C61.1242 88.6423 64.3796 92.9141 64.3796 92.67C64.3796 92.426 63.6474 86.8114 65.0311 86.4453C66.4147 86.0792 68.3679 88.3982 68.3679 88.3982C68.3679 88.3982 69.0194 83.516 69.5077 83.516C69.996 83.516 71.2983 87.2997 71.2983 87.2997C71.2983 87.2997 72.6007 83.272 73.089 83.272C73.5773 83.272 75.0422 87.5438 75.0422 87.5438C75.0422 87.5438 75.7744 83.8822 76.7516 83.8822C77.7282 83.8822 78.4604 88.2761 78.4604 88.2761C78.4604 88.2761 79.1119 85.9571 80.0072 86.2013C80.9025 86.4453 81.6347 92.3039 81.6347 92.3039C81.6347 92.3039 83.9955 88.5202 85.5417 89.0084C87.088 89.4967 85.5417 94.5009 85.623 96.6978C85.7043 98.8947 87.1698 99.9933 87.2511 101.58C87.3324 103.167 87.3324 113.053 87.2511 113.053C87.1692 113.053 70.8913 119.4 69.0193 119.034C67.1474 118.667 57.3802 115.494 57.2988 115.25Z" fill="#F7D917" stroke="black" stroke-width="0.90294"/>
<path fill-rule="evenodd" clip-rule="evenodd" d="M65.953 104.341C64.8016 107.191 60.3703 115.218 59.4495 116.599C58.5286 117.979 56.2266 120.051 56.2266 120.051C56.2266 120.051 57.1474 122.122 58.7589 121.777C60.3704 121.432 62.6724 119.015 62.6724 119.015C62.6724 119.015 60.0827 122.034 59.277 123.674C58.4712 125.313 57.9532 128.075 57.9532 128.075C57.9532 128.075 61.1762 127.989 63.133 125.572C65.0897 123.156 66.3561 121.171 66.2986 121.171C66.2411 121.171 64.399 124.019 64.514 126.09C64.6296 128.161 64.2265 129.888 64.2841 129.888C64.3415 129.888 66.6437 128.42 67.6795 127.212C68.7159 126.004 70.3273 123.242 70.3273 123.242C70.3273 123.242 69.7516 126.781 70.0967 128.42C70.4423 130.06 71.3631 132.39 71.3056 132.39C71.2481 132.39 72.9171 131.268 73.7803 128.766C74.6436 126.263 74.9312 124.278 74.9312 124.278C74.9312 124.278 75.2192 127.73 76.14 128.938C77.0608 130.147 81.2045 129.888 81.2045 129.888C81.2045 129.888 79.7656 129.37 79.3055 126.953C78.8448 124.537 79.0173 121.689 79.0173 121.689C79.0173 121.689 80.0537 124.882 81.032 125.227C82.0103 125.572 82.816 124.537 83.5067 125.227C84.1974 125.918 85.1182 128.248 85.1757 128.161C85.2332 128.075 87.1323 126.867 86.0965 123.933C85.0607 120.998 82.9885 120.826 81.8952 118.927C80.8014 117.028 80.1687 114.094 80.1687 114.008C80.1687 113.921 81.0895 118.236 82.4709 119.186C83.8518 120.135 84.6575 121.171 86.6146 121.257C88.5712 121.343 89.5495 122.811 89.5495 124.019C89.5495 125.227 89.377 126.004 89.377 126.004C89.377 126.004 91.6216 125.486 91.6216 122.034C91.6216 118.582 90.2402 117.201 88.7438 116.683C87.2473 116.165 84.485 115.216 83.8518 114.18C83.2186 113.144 83.046 112.109 83.046 112.109C83.046 112.109 83.2761 114.008 84.5425 114.612C85.8089 115.216 87.4779 116.424 88.6287 115.993C89.7801 115.561 92.7725 111.246 92.7725 111.246C92.7725 111.246 90.0101 110.728 87.1323 109.52C84.2549 108.311 83.588 104.086 83.588 104.086L65.953 104.341Z" fill="#F7D917" stroke="black" stroke-width="0.90294"/>
<path d="M69.9961 118.301C69.9961 118.301 71.2166 116.349 73.1704 116.226C75.1237 116.104 77.3214 118.79 77.3214 118.79" stroke="black" stroke-width="0.90294"/>
<path fill-rule="evenodd" clip-rule="evenodd" d="M71.7867 110.002C71.7867 110.368 71.0539 112.321 71.2171 115.128C71.3796 117.935 73.5773 120.01 73.5773 120.01C73.5773 120.01 75.9376 118.545 76.0189 115.006C76.1002 111.466 75.6932 109.513 75.6932 109.513L71.7867 110.002Z" fill="#0139AB" stroke="black" stroke-width="0.90294"/>
<path d="M73.7383 110.124C73.7383 110.124 73.8201 116.471 73.7383 116.471" stroke="black" stroke-width="0.846507" stroke-linecap="round"/>
<path fill-rule="evenodd" clip-rule="evenodd" d="M62.0996 102.556C62.181 102.556 63.4833 103.411 63.4833 105.73C63.4833 108.049 64.053 111.1 65.8438 111.1C67.6345 111.1 68.3666 109.758 68.4479 109.88C68.5298 110.002 69.669 113.663 71.4597 113.175C73.2503 112.687 73.8199 109.88 73.8199 109.88C73.8199 109.88 74.7965 113.541 76.1802 113.175C77.5638 112.809 78.3778 109.513 78.3778 109.513C78.3778 109.513 79.5176 111.588 80.7381 111.222C81.9591 110.856 82.9358 109.391 83.4241 107.805C83.9124 106.218 84.0756 103.289 83.9943 103.289" fill="#FDD400" fill-opacity="0.996081"/>
<path d="M62.0996 102.556C62.181 102.556 63.4833 103.411 63.4833 105.73C63.4833 108.049 64.053 111.1 65.8438 111.1C67.6345 111.1 68.3666 109.758 68.4479 109.88C68.5298 110.002 69.669 113.663 71.4597 113.175C73.2503 112.687 73.8199 109.88 73.8199 109.88C73.8199 109.88 74.7965 113.541 76.1802 113.175C77.5638 112.809 78.3778 109.513 78.3778 109.513C78.3778 109.513 79.5176 111.588 80.7381 111.222C81.9591 110.856 82.9358 109.391 83.4241 107.805C83.9124 106.218 84.0756 103.289 83.9943 103.289" stroke="black" stroke-width="0.90294"/>
<path d="M71.216 96.2095C71.216 96.2095 72.7628 103.289 69.1002 103.167C65.4375 103.044 67.3095 99.871 66.1697 99.749C65.0305 99.627 64.4609 99.749 64.4609 99.749" stroke="black" stroke-width="0.90294"/>
<path d="M74.4722 95.5994C74.4722 95.5994 73.5768 103.777 76.588 103.167C79.5997 102.556 80.3319 99.3831 80.3319 99.3831" stroke="black" stroke-width="0.90294"/>
<path fill-rule="evenodd" clip-rule="evenodd" d="M61.123 91.2053C61.123 91.2053 61.53 94.6229 62.3439 96.6978C63.1578 98.7726 63.809 98.4064 64.5416 98.7726C64.5416 97.3079 64.5416 96.6977 63.6462 94.7448C62.751 92.792 61.123 91.4494 61.123 91.2053Z" fill="black" fill-opacity="0.996078"/>
<path fill-rule="evenodd" clip-rule="evenodd" d="M82.2863 98.2845C82.2863 98.1625 81.9606 95.7215 82.8559 93.5245C83.7513 91.3275 84.7279 90.8394 84.7279 90.8394C84.7279 90.8394 84.8904 92.7922 84.2395 94.745C83.5886 96.6979 82.5302 98.6507 82.2863 98.2845Z" fill="black" fill-opacity="0.996078"/>
<path d="M66.9023 98.7728C67.3094 98.7728 68.9368 96.0876 70.8901 98.7728" stroke="black" stroke-width="0.90294"/>
<path d="M75.6113 98.1625C77.6464 95.9655 79.8436 98.6507 79.8436 98.6507" stroke="black" stroke-width="0.90294"/>
<path fill-rule="evenodd" clip-rule="evenodd" d="M70.6458 100.359C70.6458 101.101 69.8982 101.702 68.9775 101.702C68.0563 101.702 67.3086 101.101 67.3086 100.359C67.3086 99.6183 68.0563 99.0168 68.9775 99.0168C69.8982 99.0168 70.6458 99.6183 70.6458 100.359Z" stroke="black" stroke-width="1.00923"/>
<path fill-rule="evenodd" clip-rule="evenodd" d="M79.1933 100.115C79.1933 100.856 78.4639 101.458 77.5657 101.458C76.6669 101.458 75.9375 100.856 75.9375 100.115C75.9375 99.3742 76.6669 98.7727 77.5657 98.7727C78.4639 98.7727 79.1933 99.3742 79.1933 100.115Z" stroke="black" stroke-width="0.996851"/>
<path d="M68.9375 98.6506C68.9375 98.7726 69.0193 101.824 69.0193 101.824" stroke="black" stroke-width="0.90294"/>
<path d="M77.4023 98.5286L77.4836 101.58" stroke="black" stroke-width="0.90294"/>
<path fill-rule="evenodd" clip-rule="evenodd" d="M75.6933 107.499C75.6933 106.868 75.4704 106.263 75.0735 105.816C74.6767 105.37 74.1384 105.119 73.5771 105.119C73.0159 105.119 72.4776 105.37 72.0808 105.816C71.6839 106.263 71.4609 106.868 71.4609 107.499C71.4609 108.131 71.6839 108.736 72.0808 109.182C72.4776 109.629 73.0159 109.88 73.5771 109.88C74.1384 109.88 74.6767 109.629 75.0735 109.182C75.4704 108.736 75.6933 108.131 75.6933 107.499Z" fill="black"/>
<path d="M197.115 127.469C197.115 127.469 196.769 129.368 197.23 130.404C197.69 131.439 198.726 133.511 198.726 133.511" stroke="black" stroke-width="0.90294"/>
<path d="M194.008 129.023C194.008 129.023 192.281 130.922 192.396 132.13C192.511 133.338 192.971 134.546 192.971 134.546" stroke="black" stroke-width="0.90294"/>
<path d="M199.877 125.053C202.064 125.743 202.064 127.469 202.064 127.469" stroke="black" stroke-width="0.90294"/>
<path d="M123.103 130.231C122.642 130.404 120.801 131.785 120.801 131.785" stroke="black" stroke-width="0.90294"/>
<path d="M126.44 132.82C125.864 133.166 125.289 132.648 125.058 134.374C124.828 136.1 125.404 136.963 125.404 136.963" stroke="black" stroke-width="0.90294"/>
<path d="M131.391 133.511C131.506 133.511 132.196 134.374 132.196 135.237C132.196 136.1 131.736 137.136 131.736 137.136" stroke="black" stroke-width="0.90294"/>
<path d="M21.9247 129.713C21.8097 129.713 21.0039 130.749 21.0039 131.957" stroke="black" stroke-width="0.90294"/>
<path d="M155.606 113.986C154.464 112.691 153.422 110.854 153.422 110.854" stroke="black" stroke-width="0.90294"/>
<path fill-rule="evenodd" clip-rule="evenodd" d="M193.629 66.1138C193.629 69.043 194.28 71.9724 194.606 72.9488C194.931 73.9253 195.094 75.1457 195.094 75.1457C195.094 75.1457 196.234 73.4371 196.234 71.4842C196.234 69.5313 195.908 66.846 195.908 66.846" fill="#0139AB"/>
<path d="M193.629 66.1138C193.629 69.043 194.28 71.9724 194.606 72.9488C194.931 73.9253 195.094 75.1457 195.094 75.1457C195.094 75.1457 196.234 73.4371 196.234 71.4842C196.234 69.5313 195.908 66.846 195.908 66.846" stroke="black" stroke-width="0.90294"/>
<path fill-rule="evenodd" clip-rule="evenodd" d="M187.77 66.1138C187.77 66.3578 186.793 67.5784 186.956 69.7753C187.118 71.9724 187.607 73.681 187.607 73.437C187.607 73.1929 187.607 71.24 188.747 70.0195C189.886 68.7989 191.676 68.0667 191.676 68.0667" fill="#0139AB"/>
<path d="M187.77 66.1138C187.77 66.3578 186.793 67.5784 186.956 69.7753C187.118 71.9724 187.607 73.681 187.607 73.437C187.607 73.1929 187.607 71.24 188.747 70.0195C189.886 68.7989 191.676 68.0667 191.676 68.0667" stroke="black" stroke-width="0.90294"/>
<path fill-rule="evenodd" clip-rule="evenodd" d="M186.63 60.9875C182.886 65.1374 184.188 67.3344 184.188 67.3344C184.188 67.3344 184.351 66.3579 185.653 66.3579C186.955 66.3579 189.397 67.5785 189.397 67.5785" fill="#0139AB"/>
<path d="M186.63 60.9875C182.886 65.1374 184.188 67.3344 184.188 67.3344C184.188 67.3344 184.351 66.3579 185.653 66.3579C186.955 66.3579 189.397 67.5785 189.397 67.5785" stroke="black" stroke-width="0.90294"/>
<path fill-rule="evenodd" clip-rule="evenodd" d="M127.377 69.7752C127.051 73.681 128.19 76.1221 128.19 76.1221C128.19 76.1221 129.493 74.9016 129.33 71.7281C129.167 68.5547 128.354 66.8459 128.354 66.8459" fill="#0139AB"/>
<path d="M127.377 69.7752C127.051 73.681 128.19 76.1221 128.19 76.1221C128.19 76.1221 129.493 74.9016 129.33 71.7281C129.167 68.5547 128.354 66.8459 128.354 66.8459" stroke="black" stroke-width="0.90294"/>
<path fill-rule="evenodd" clip-rule="evenodd" d="M121.516 67.3342C121.353 67.3342 120.051 68.5547 119.074 69.7752C118.098 70.9958 118.26 72.9487 118.26 72.9487C118.26 72.9487 121.191 70.9957 122.167 71.2399C123.144 71.4841 123.632 72.4604 123.632 72.4604" fill="#0139AB"/>
<path d="M121.516 67.3342C121.353 67.3342 120.051 68.5547 119.074 69.7752C118.098 70.9958 118.26 72.9487 118.26 72.9487C118.26 72.9487 121.191 70.9957 122.167 71.2399C123.144 71.4841 123.632 72.4604 123.632 72.4604" stroke="black" stroke-width="0.90294"/>
<path fill-rule="evenodd" clip-rule="evenodd" d="M122.493 61.2317C119.726 60.0111 117.772 62.6964 117.935 62.6964C118.098 62.6964 120.703 62.6964 121.191 64.161C121.679 65.6256 122.981 67.3344 122.981 67.3344" fill="#0139AB"/>
<path d="M122.493 61.2317C119.726 60.0111 117.772 62.6964 117.935 62.6964C118.098 62.6964 120.703 62.6964 121.191 64.161C121.679 65.6256 122.981 67.3344 122.981 67.3344" stroke="black" stroke-width="0.90294"/>
<path fill-rule="evenodd" clip-rule="evenodd" d="M128.516 58.3023C128.191 58.3023 128.191 56.3494 126.726 56.1053C125.261 55.8612 124.121 57.3259 124.121 57.3259C124.121 57.3259 127.214 60.2552 127.377 60.2552C127.54 60.2552 128.516 58.7905 128.516 58.3023Z" fill="#0139AB" stroke="black" stroke-width="0.90294"/>
<path fill-rule="evenodd" clip-rule="evenodd" d="M31.1901 26.4781C31.4203 24.4067 30.9023 21.0409 30.9023 21.0409C30.9023 21.0409 31.9383 20.8682 32.9742 22.4217C34.0102 23.9752 33.5498 26.4781 33.5498 26.4781" fill="#0139AB"/>
<path d="M31.1901 26.4781C31.4203 24.4067 30.9023 21.0409 30.9023 21.0409C30.9023 21.0409 31.9383 20.8682 32.9742 22.4217C34.0102 23.9752 33.5498 26.4781 33.5498 26.4781" stroke="black" stroke-width="0.90294"/>
<path fill-rule="evenodd" clip-rule="evenodd" d="M25.1481 25.7015C25.3783 21.4726 23.5941 20.3506 23.5366 20.3506C23.479 20.3506 25.2056 19.5738 26.3567 20.3506C27.5077 21.1273 27.9681 25.0111 27.9681 25.0111" fill="#0139AB"/>
<path d="M25.1481 25.7015C25.3783 21.4726 23.5941 20.3506 23.5366 20.3506C23.479 20.3506 25.2056 19.5738 26.3567 20.3506C27.5077 21.1273 27.9681 25.0111 27.9681 25.0111" stroke="black" stroke-width="0.90294"/>
<path fill-rule="evenodd" clip-rule="evenodd" d="M20.1982 26.996C18.8169 23.1986 17.5508 24.0616 17.5508 24.0616C17.5508 24.0616 18.5867 22.5945 20.0255 23.026C21.4643 23.4574 22.7305 25.4425 22.7305 25.3562" fill="#0139AB"/>
<path d="M20.1982 26.996C18.8169 23.1986 17.5508 24.0616 17.5508 24.0616C17.5508 24.0616 18.5867 22.5945 20.0255 23.026C21.4643 23.4574 22.7305 25.4425 22.7305 25.3562" stroke="black" stroke-width="0.90294"/>
<path fill-rule="evenodd" clip-rule="evenodd" d="M21.579 35.454C20.3128 36.4896 19.9675 36.9212 18.9316 36.6623C17.8956 36.4034 17.0898 36.317 17.0898 36.317C17.0898 36.317 17.7229 33.2963 18.5287 32.9511C19.3344 32.6059 20.7733 32.6922 20.7733 32.6922" fill="#0139AB"/>
<path d="M21.579 35.454C20.3128 36.4896 19.9675 36.9212 18.9316 36.6623C17.8956 36.4034 17.0898 36.317 17.0898 36.317C17.0898 36.317 17.7229 33.2963 18.5287 32.9511C19.3344 32.6059 20.7733 32.6922 20.7733 32.6922" stroke="black" stroke-width="0.90294"/>
<path fill-rule="evenodd" clip-rule="evenodd" d="M25.312 54.3966C25.312 52.4437 24.498 51.4673 24.498 51.4673C24.498 51.4673 25.6375 50.2467 26.777 51.9554C27.9165 53.6643 28.4048 56.3494 28.4048 56.3494" fill="#0139AB"/>
<path d="M25.312 54.3966C25.312 52.4437 24.498 51.4673 24.498 51.4673C24.498 51.4673 25.6375 50.2467 26.777 51.9554C27.9165 53.6643 28.4048 56.3494 28.4048 56.3494" stroke="black" stroke-width="0.90294"/>
<path fill-rule="evenodd" clip-rule="evenodd" d="M20.6008 57.1165C20.5432 57.1165 20.0252 55.6493 19.2771 55.1315C18.5289 54.6137 17.8382 54.5274 18.0685 54.5274C18.2987 54.5274 18.0685 53.4917 19.68 53.4917C21.2914 53.4917 22.3274 54.2684 22.3274 54.2684" fill="#0139AB"/>
<path d="M20.6008 57.1165C20.5432 57.1165 20.0252 55.6493 19.2771 55.1315C18.5289 54.6137 17.8382 54.5274 18.0685 54.5274C18.2987 54.5274 18.0685 53.4917 19.68 53.4917C21.2914 53.4917 22.3274 54.2684 22.3274 54.2684" stroke="black" stroke-width="0.90294"/>
<path fill-rule="evenodd" clip-rule="evenodd" d="M19.968 61.518C16.4572 61.1728 16.1119 64.3661 16.227 64.4523C16.3421 64.5386 17.6658 65.4879 18.4716 65.5743C19.2773 65.6607 19.968 65.5743 19.968 65.5743" fill="#0139AB"/>
<path d="M19.968 61.518C16.4572 61.1728 16.1119 64.3661 16.227 64.4523C16.3421 64.5386 17.6658 65.4879 18.4716 65.5743C19.2773 65.6607 19.968 65.5743 19.968 65.5743" stroke="black" stroke-width="0.90294"/>
<path fill-rule="evenodd" clip-rule="evenodd" d="M21.5803 68.9404C19.7962 72.6515 20.1415 74.6366 20.3142 74.6366C20.4868 74.6366 21.1199 74.1187 22.0407 73.083C22.9616 72.0474 23.5947 70.0624 23.5947 70.0624" fill="#0139AB"/>
<path d="M21.5803 68.9404C19.7962 72.6515 20.1415 74.6366 20.3142 74.6366C20.4868 74.6366 21.1199 74.1187 22.0407 73.083C22.9616 72.0474 23.5947 70.0624 23.5947 70.0624" stroke="black" stroke-width="0.90294"/>
<path fill-rule="evenodd" clip-rule="evenodd" d="M23.0332 60.9875C23.196 60.9875 23.8471 53.1761 26.1261 53.6643C28.4051 54.1525 27.5912 54.1526 28.4051 54.6407C29.219 55.1289 30.8469 60.4993 30.8469 60.4993" fill="#FDD400"/>
<path d="M23.0332 60.9875C23.196 60.9875 23.8471 53.1761 26.1261 53.6643C28.4051 54.1525 27.5912 54.1526 28.4051 54.6407C29.219 55.1289 30.8469 60.4993 30.8469 60.4993" stroke="black" stroke-width="0.90294"/>
<path fill-rule="evenodd" clip-rule="evenodd" d="M187.447 65.5762C187.101 65.231 184.454 63.1596 185.836 61.4335C187.217 59.7076 195.389 61.0883 195.389 61.0883" fill="#FDD400"/>
<path d="M187.447 65.5762C187.101 65.231 184.454 63.1596 185.836 61.4335C187.217 59.7076 195.389 61.0883 195.389 61.0883" stroke="black" stroke-width="0.90294"/>
<path fill-rule="evenodd" clip-rule="evenodd" d="M133.692 65.0584C132.772 64.5405 131.736 64.3679 130.584 61.6061C129.434 58.8444 130.124 58.8444 129.664 58.1539C129.204 57.4635 128.282 57.8088 126.671 58.3266C125.059 58.8444 125.52 64.3679 125.52 64.3679" fill="#FDD400"/>
<path d="M133.692 65.0584C132.772 64.5405 131.736 64.3679 130.584 61.6061C129.434 58.8444 130.124 58.8444 129.664 58.1539C129.204 57.4635 128.282 57.8088 126.671 58.3266C125.059 58.8444 125.52 64.3679 125.52 64.3679" stroke="black" stroke-width="0.90294"/>
<path fill-rule="evenodd" clip-rule="evenodd" d="M147.389 42.6191C146.468 43.1369 138.526 48.833 138.756 51.94C138.986 55.047 143.821 56.7731 143.706 58.6718C143.59 60.5706 139.101 61.9514 134.958 62.124C130.814 62.2966 129.663 63.3323 127.245 62.6419C124.828 61.9514 121.26 58.4992 120.569 62.4692C119.879 66.4393 120.799 66.6118 120.799 66.6118C120.799 66.6118 120.224 68.6832 120.799 70.4093C121.375 72.1354 121.951 73.1711 123.447 73.1711C124.943 73.1711 125.404 71.7902 125.404 71.7902C125.404 71.7902 125.634 73.5163 128.281 73.6889C130.929 73.8615 131.735 71.9627 131.85 71.9627C131.965 71.9627 134.152 72.6533 135.188 72.3081C136.224 71.9627 137.605 71.0998 137.605 71.0998C137.605 71.0998 136.454 73.5163 136.569 73.5163C136.684 73.5163 138.871 73.3436 141.173 72.8258C143.475 72.308 145.202 70.0641 145.087 70.0641C144.972 70.0641 143.13 73.171 146.007 72.9984C148.885 72.8258 150.267 69.5462 152.338 69.8914C154.41 70.2366 155.561 69.5462 155.561 69.5462C155.561 69.5462 156.137 68.1653 156.828 67.4749C157.518 66.7844 158.324 66.6118 158.324 66.6118C158.324 66.6118 160.166 66.2667 160.166 66.094C160.166 65.9215 160.166 61.7788 160.166 61.7788C160.166 61.7788 157.173 61.4336 157.173 58.3266C157.173 55.2197 165.23 51.94 165.23 51.94L147.389 42.6191Z" fill="#F7D917" stroke="black" stroke-width="0.90294"/>
<path fill-rule="evenodd" clip-rule="evenodd" d="M31.1327 40.5478C31.5931 26.3938 34.1254 32.2625 34.1254 29.1556C34.1254 26.0486 33.0895 23.9773 32.2838 23.9773C30.4421 23.9773 25.8379 29.846 25.8379 29.846" fill="#FDD400"/>
<path d="M31.1327 40.5478C31.5931 26.3938 34.1254 32.2625 34.1254 29.1556C34.1254 26.0486 33.0895 23.9773 32.2838 23.9773C30.4421 23.9773 25.8379 29.846 25.8379 29.846" stroke="black" stroke-width="0.90294"/>
<path fill-rule="evenodd" clip-rule="evenodd" d="M63.2475 50.214C62.0964 49.6971 44.2551 46.0723 38.2696 42.62C32.2842 39.1679 29.7519 33.6443 29.2914 30.8826C28.831 28.1208 29.982 23.6331 26.5288 23.6331C23.0757 23.6331 24.9174 28.1208 24.9174 28.1208C24.9174 28.1208 22.1548 20.8713 20.0829 25.0139C18.0111 29.1565 22.6153 32.2635 22.6153 32.2635C22.6153 32.2635 18.1608 29.4824 19.2772 33.9895C21.1536 41.5649 24.2268 38.8226 24.6872 40.5487C25.1476 42.2749 22.3851 44.001 22.8455 44.3462C23.3059 44.6914 25.1476 45.8996 26.2986 46.2448C27.4497 46.5902 29.0612 47.1079 29.0612 47.1079L27.3346 49.1784C27.3346 49.1784 30.5576 52.6305 32.169 53.4936C33.7805 54.3567 35.8524 53.4936 35.7373 53.4936C35.6222 53.4936 32.7445 55.3923 32.7445 55.3923C32.7445 55.3923 34.3561 56.7731 36.0826 57.1184C37.8092 57.4636 39.3056 57.6362 39.3056 57.6362L37.4639 58.8445L62.3267 66.2668L63.2475 50.214Z" fill="#F7D917" stroke="black" stroke-width="0.90294"/>
<path fill-rule="evenodd" clip-rule="evenodd" d="M64.8584 47.4522C64.2829 47.6249 53.6932 59.1898 42.528 59.7076C31.3627 60.2253 25.0319 59.3623 25.0319 59.3623C25.0319 59.3623 23.4205 51.4222 20.658 55.0471C17.8954 58.6719 20.0824 60.0527 20.0824 60.0527C20.0824 60.0527 20.5428 59.8802 21.2335 60.7432C21.9241 61.6063 22.3845 62.642 22.3845 62.642C22.3845 62.642 18.7012 58.154 18.7012 63.5049C18.7012 68.8559 21.1183 66.9572 21.0032 66.9572C20.8882 66.9572 20.4277 71.6177 21.0032 71.7902C21.5788 71.9628 23.8809 72.8259 25.147 72.4807C26.4132 72.1355 26.2981 71.0998 26.6434 70.9272C26.9887 70.7545 28.9455 69.5464 29.2908 70.0642C29.6361 70.582 27.1038 73.8615 27.5642 73.8615C28.0246 73.8615 31.8231 73.8616 32.9742 72.4807C34.1252 71.0999 34.7008 69.0286 34.8159 69.2011C34.931 69.3737 32.8591 73.3438 33.0893 73.3438C33.3195 73.3438 37.4634 74.0342 38.4993 73.5163C39.5352 72.9985 40.5712 71.2724 40.5712 71.2724C40.5712 71.2724 39.8805 73.3438 40.1107 73.5163C40.3409 73.689 42.4128 73.8615 44.3696 72.8258C46.3264 71.7902 47.1321 70.9272 47.1321 70.9272L46.5566 73.3438C46.5566 73.3438 49.5494 73.1712 51.2759 71.2724C53.0025 69.3737 53.8083 69.2011 53.8083 69.2011C53.8083 69.2011 52.0817 72.1355 52.3119 72.1355C52.5421 72.1355 55.6499 71.9629 57.0312 71.2724C58.4125 70.582 59.7938 70.0642 59.7938 70.0642C59.7938 70.0642 58.1823 72.4807 58.2974 72.4807C58.4125 72.4807 60.5995 72.6533 63.3621 71.6177C66.1248 70.582 68.0814 69.3737 68.0814 69.3737C68.0814 69.3737 64.8584 72.8258 65.5491 72.8258C66.2398 72.8258 70.3835 72.9985 72.4551 71.7902C74.5273 70.582 74.9879 69.3737 74.9879 69.3737C74.9879 69.3737 81.6639 69.719 83.0453 68.1654C84.4262 66.6119 84.0811 65.9215 83.9661 66.0941C83.851 66.2668 87.9948 67.1297 90.1814 67.6476C92.3686 68.1654 96.9729 68.3381 100.081 67.475C103.188 66.6119 137.029 46.7618 143.245 47.1071C149.461 47.4522 150.612 49.6962 152.453 49.5235C154.296 49.3509 155.331 48.4878 155.331 48.6605C155.331 48.8331 164.425 59.1898 176.741 58.4993C189.057 57.8089 186.64 56.7732 188.597 56.6006C190.553 56.428 192.855 58.3267 192.625 60.0527C192.395 61.7789 191.359 62.8145 190.093 62.9872C188.827 63.1598 187.446 64.368 187.446 66.0941C187.446 67.8202 188.827 70.2367 190.323 70.2367C191.82 70.2367 192.28 69.3737 192.74 69.2011C193.201 69.0286 193.661 71.0999 195.618 70.2367C197.575 69.3737 198.151 68.5106 198.611 68.3381C199.071 68.1654 202.064 67.9928 202.064 67.8202C202.064 67.6476 202.294 62.1241 202.294 62.1241C202.294 62.1241 205.517 61.7789 205.517 60.7432C205.517 59.7076 204.366 57.4636 203.676 56.428C202.985 55.3923 202.179 54.5293 202.179 54.5293C202.179 54.5293 204.366 55.7376 204.827 55.5649C205.287 55.3923 206.323 54.7018 206.323 54.7018C206.323 54.7018 204.827 52.1127 203.676 51.2497C202.524 50.3867 199.762 49.5235 199.762 49.5235C199.762 49.5235 201.373 49.1784 202.639 48.1427C203.906 47.1071 205.057 45.7261 205.057 45.5535C205.057 45.3809 201.604 42.4466 198.956 42.7918C196.309 43.137 192.625 46.4166 188.136 46.4166C183.647 46.4166 178.813 42.9644 178.813 42.9644C178.813 42.9644 185.374 42.9643 188.367 42.7918C191.359 42.6192 197.805 40.5479 197.805 34.1613C197.805 27.7747 192.855 24.3225 180.884 23.9773C168.914 23.6321 144.679 23.9677 137.115 24.8236C124.854 26.211 112.988 25.2023 107.348 25.2023C101.707 25.2023 100.211 23.994 100.096 21.2323C100.036 19.7849 102.599 19.2857 105.053 19.0638C105.85 18.9918 111.136 17.715 117.598 17.715C128.085 17.715 140.16 18.7102 151.6 18.7009C163.039 18.6916 169.163 17.6925 169.163 17.6134C169.163 17.0956 169.393 16.4051 169.508 16.4051C169.623 16.4051 170.429 18.4764 171.58 18.649C172.731 18.8216 175.033 18.3038 175.033 18.3038C175.033 18.3038 175.954 19.8573 177.565 19.6847C179.177 19.512 179.867 18.3038 179.867 18.3038C179.867 18.3038 180.788 19.5121 182.515 19.3395C184.242 19.1669 185.508 16.9229 185.853 16.9229C186.198 16.9229 187.465 17.2681 188.616 16.5777C189.766 15.8873 195.061 10.709 195.061 10.709C195.061 10.709 190.457 11.9173 187.695 11.9173C184.932 11.9173 183.205 10.3638 179.752 10.8816C176.299 11.3994 172.616 12.9529 170.659 12.7803C170.025 12.7243 163.587 13.634 151.961 13.5778C140.334 13.5216 128.74 12.4448 117.589 12.4448C111.163 12.4448 105.777 13.6375 104.24 13.6375C99.8658 13.6375 95.9522 17.9527 95.4921 22.9583C95.0314 27.9641 99.2614 27.9096 104.125 30.5532C110.619 34.0833 169.259 28.983 178.007 29.3282C186.755 29.6734 192.395 30.3639 192.395 34.1613C192.395 37.9587 186.525 38.1313 182.266 37.9587C178.007 37.7861 168.108 36.06 160.856 36.2326C153.605 36.4052 106.987 46.4166 98.5844 46.2439C90.1814 46.0714 85.0019 45.3809 85.0019 45.2083C85.0019 45.0357 64.8584 47.7975 64.8584 47.4522ZM173.076 15.542C173.076 15.542 173.652 17.2682 174.457 17.9586C175.263 18.649 176.414 19.5121 176.414 19.5121M177.911 16.0599C177.911 16.0599 178.717 16.2325 179.062 16.9229C179.407 17.6134 180.213 18.4764 180.213 18.4764M183.436 15.1969C184.126 15.1969 184.932 17.2682 184.932 17.2682L183.436 15.1969Z" fill="#F7D917"/>
<path d="M173.076 15.542C173.076 15.542 173.652 17.2682 174.457 17.9586C175.263 18.649 176.414 19.5121 176.414 19.5121M177.911 16.0599C177.911 16.0599 178.717 16.2325 179.062 16.9229C179.407 17.6134 180.213 18.4764 180.213 18.4764M183.436 15.1969C184.126 15.1969 184.932 17.2682 184.932 17.2682M64.8584 47.4522C64.2829 47.6249 53.6932 59.1898 42.528 59.7076C31.3627 60.2253 25.0319 59.3623 25.0319 59.3623C25.0319 59.3623 23.4205 51.4222 20.658 55.0471C17.8954 58.6719 20.0824 60.0527 20.0824 60.0527C20.0824 60.0527 20.5428 59.8802 21.2335 60.7432C21.9241 61.6062 22.3845 62.642 22.3845 62.642C22.3845 62.642 18.7012 58.154 18.7012 63.5049C18.7012 68.8559 21.1183 66.9572 21.0032 66.9572C20.8882 66.9572 20.4277 71.6177 21.0032 71.7902C21.5788 71.9628 23.8809 72.8259 25.147 72.4807C26.4132 72.1355 26.2981 71.0998 26.6434 70.9272C26.9887 70.7545 28.9455 69.5464 29.2908 70.0642C29.6361 70.582 27.1038 73.8615 27.5642 73.8615C28.0246 73.8615 31.8231 73.8616 32.9742 72.4807C34.1252 71.0999 34.7008 69.0286 34.8159 69.2011C34.931 69.3737 32.8591 73.3438 33.0893 73.3438C33.3195 73.3438 37.4634 74.0342 38.4993 73.5163C39.5352 72.9985 40.5712 71.2724 40.5712 71.2724C40.5712 71.2724 39.8805 73.3438 40.1107 73.5163C40.3409 73.689 42.4128 73.8615 44.3696 72.8258C46.3264 71.7902 47.1321 70.9272 47.1321 70.9272L46.5566 73.3438C46.5566 73.3438 49.5494 73.1712 51.2759 71.2724C53.0025 69.3737 53.8083 69.2011 53.8083 69.2011C53.8083 69.2011 52.0817 72.1355 52.3119 72.1355C52.5421 72.1355 55.6499 71.9629 57.0312 71.2724C58.4125 70.582 59.7938 70.0642 59.7938 70.0642C59.7938 70.0642 58.1823 72.4807 58.2974 72.4807C58.4125 72.4807 60.5995 72.6533 63.3621 71.6177C66.1248 70.582 68.0814 69.3737 68.0814 69.3737C68.0814 69.3737 64.8584 72.8258 65.5491 72.8258C66.2398 72.8258 70.3835 72.9985 72.4551 71.7902C74.5273 70.582 74.9879 69.3737 74.9879 69.3737C74.9879 69.3737 81.6639 69.719 83.0453 68.1654C84.4262 66.6119 84.0811 65.9215 83.9661 66.0941C83.851 66.2668 87.9948 67.1297 90.1814 67.6476C92.3686 68.1654 96.9729 68.3381 100.081 67.475C103.188 66.6119 137.029 46.7618 143.245 47.1071C149.461 47.4522 150.612 49.6962 152.453 49.5235C154.296 49.3509 155.331 48.4878 155.331 48.6605C155.331 48.8331 164.425 59.1898 176.741 58.4993C189.057 57.8089 186.64 56.7732 188.597 56.6006C190.553 56.428 192.855 58.3267 192.625 60.0527C192.395 61.7789 191.359 62.8145 190.093 62.9872C188.827 63.1598 187.446 64.368 187.446 66.0941C187.446 67.8202 188.827 70.2367 190.323 70.2367C191.82 70.2367 192.28 69.3737 192.74 69.2011C193.201 69.0286 193.661 71.0999 195.618 70.2367C197.575 69.3737 198.151 68.5106 198.611 68.3381C199.071 68.1654 202.064 67.9928 202.064 67.8202C202.064 67.6476 202.294 62.1241 202.294 62.1241C202.294 62.1241 205.517 61.7789 205.517 60.7432C205.517 59.7076 204.366 57.4636 203.676 56.428C202.985 55.3923 202.179 54.5293 202.179 54.5293C202.179 54.5293 204.366 55.7376 204.827 55.5649C205.287 55.3923 206.323 54.7018 206.323 54.7018C206.323 54.7018 204.827 52.1127 203.676 51.2497C202.524 50.3867 199.762 49.5235 199.762 49.5235C199.762 49.5235 201.373 49.1784 202.639 48.1427C203.906 47.1071 205.057 45.7261 205.057 45.5535C205.057 45.3809 201.604 42.4466 198.956 42.7918C196.309 43.137 192.625 46.4166 188.136 46.4166C183.647 46.4166 178.813 42.9644 178.813 42.9644C178.813 42.9644 185.374 42.9643 188.367 42.7918C191.359 42.6192 197.805 40.5479 197.805 34.1613C197.805 27.7747 192.855 24.3225 180.884 23.9773C168.914 23.6321 144.679 23.9677 137.115 24.8236C124.854 26.211 112.988 25.2023 107.348 25.2023C101.707 25.2023 100.211 23.994 100.096 21.2323C100.036 19.7849 102.599 19.2857 105.053 19.0638C105.85 18.9918 111.136 17.715 117.598 17.715C128.085 17.715 140.16 18.7102 151.6 18.7009C163.039 18.6916 169.163 17.6925 169.163 17.6134C169.163 17.0956 169.393 16.4051 169.508 16.4051C169.623 16.4051 170.429 18.4764 171.58 18.649C172.731 18.8216 175.033 18.3038 175.033 18.3038C175.033 18.3038 175.954 19.8573 177.565 19.6847C179.177 19.512 179.867 18.3038 179.867 18.3038C179.867 18.3038 180.788 19.5121 182.515 19.3395C184.242 19.1669 185.508 16.9229 185.853 16.9229C186.198 16.9229 187.465 17.2681 188.616 16.5777C189.766 15.8873 195.061 10.709 195.061 10.709C195.061 10.709 190.457 11.9173 187.695 11.9173C184.932 11.9173 183.205 10.3638 179.752 10.8816C176.299 11.3994 172.616 12.9529 170.659 12.7803C170.024 12.7243 163.587 13.634 151.961 13.5778C140.334 13.5216 128.74 12.4448 117.589 12.4448C111.163 12.4448 105.777 13.6375 104.24 13.6375C99.8658 13.6375 95.9522 17.9527 95.4921 22.9583C95.0314 27.9641 99.2614 27.9096 104.125 30.5532C110.619 34.0833 169.259 28.983 178.007 29.3282C186.755 29.6734 192.395 30.3639 192.395 34.1613C192.395 37.9587 186.525 38.1313 182.266 37.9587C178.007 37.7861 168.108 36.06 160.856 36.2326C153.605 36.4052 106.987 46.4166 98.5844 46.2439C90.1814 46.0714 85.0019 45.3809 85.0019 45.2083C85.0019 45.0357 64.8584 47.7975 64.8584 47.4522Z" stroke="black" stroke-width="0.90294"/>
<path fill-rule="evenodd" clip-rule="evenodd" d="M57.2988 50.25C57.4616 50.0058 57.9499 47.6869 58.3568 45.9781C58.7638 44.2694 59.4964 42.0724 59.4964 42.0724C59.4964 42.0724 57.8686 43.1708 57.95 42.9268C58.0313 42.6826 57.6244 39.2652 58.5197 36.8241C59.415 34.3831 60.3102 33.0404 60.3102 32.064C60.3102 31.0875 59.415 31.5758 59.415 29.6229C59.415 27.67 59.008 24.8627 60.0661 24.2525C61.1242 23.6423 64.3796 27.9141 64.3796 27.67C64.3796 27.426 63.6474 21.8114 65.0311 21.4453C66.4147 21.0792 68.3679 23.3982 68.3679 23.3982C68.3679 23.3982 69.0194 18.516 69.5077 18.516C69.996 18.516 71.2983 22.2997 71.2983 22.2997C71.2983 22.2997 72.6007 18.272 73.089 18.272C73.5773 18.272 75.0422 22.5438 75.0422 22.5438C75.0422 22.5438 75.7744 18.8822 76.7516 18.8822C77.7282 18.8822 78.4604 23.2761 78.4604 23.2761C78.4604 23.2761 79.1119 20.9571 80.0072 21.2013C80.9025 21.4453 81.6347 27.3039 81.6347 27.3039C81.6347 27.3039 83.9955 23.5202 85.5417 24.0084C87.088 24.4967 85.5417 29.5009 85.623 31.6978C85.7043 33.8947 87.1698 34.9933 87.2511 36.58C87.3324 38.1667 87.3324 48.053 87.2511 48.053C87.1692 48.053 70.8913 54.3997 69.0193 54.0336C67.1474 53.6675 57.3802 50.494 57.2988 50.25Z" fill="#F7D917" stroke="black" stroke-width="0.90294"/>
<path fill-rule="evenodd" clip-rule="evenodd" d="M65.953 39.3414C64.8016 42.1913 60.3703 50.2177 59.4495 51.5986C58.5286 52.9794 56.2266 55.0507 56.2266 55.0507C56.2266 55.0507 57.1474 57.1219 58.7589 56.7768C60.3704 56.4316 62.6724 54.015 62.6724 54.015C62.6724 54.015 60.0827 57.0339 59.277 58.6736C58.4712 60.3135 57.9532 63.0752 57.9532 63.0752C57.9532 63.0752 61.1762 62.9889 63.133 60.5724C65.0897 58.1559 66.3561 56.1708 66.2986 56.1708C66.2411 56.1708 64.399 59.019 64.514 61.0903C64.6296 63.1615 64.2265 64.8876 64.2841 64.8876C64.3415 64.8876 66.6437 63.4205 67.6795 62.2122C68.7159 61.0039 70.3273 58.2421 70.3273 58.2421C70.3273 58.2421 69.7516 61.7807 70.0967 63.4205C70.4423 65.0602 71.3631 67.3904 71.3056 67.3904C71.2481 67.3904 72.9171 66.2685 73.7803 63.7657C74.6436 61.2628 74.9312 59.2778 74.9312 59.2778C74.9312 59.2778 75.2192 62.73 76.14 63.9383C77.0608 65.1465 81.2045 64.8876 81.2045 64.8876C81.2045 64.8876 79.7656 64.3698 79.3055 61.9532C78.8448 59.5367 79.0173 56.6887 79.0173 56.6887C79.0173 56.6887 80.0537 59.882 81.032 60.2272C82.0103 60.5724 82.816 59.5367 83.5067 60.2272C84.1974 60.9176 85.1182 63.2478 85.1757 63.1615C85.2332 63.0752 87.1323 61.867 86.0965 58.9326C85.0607 55.9983 82.9885 55.8256 81.8952 53.9269C80.8014 52.0282 80.1687 49.0939 80.1687 49.0076C80.1687 48.9213 81.0895 53.2365 82.4709 54.1859C83.8518 55.1351 84.6575 56.1708 86.6146 56.2572C88.5712 56.3434 89.5495 57.8107 89.5495 59.019C89.5495 60.2272 89.377 61.0039 89.377 61.0039C89.377 61.0039 91.6216 60.4861 91.6216 57.0339C91.6216 53.5817 90.2402 52.2008 88.7438 51.683C87.2473 51.1652 84.485 50.2158 83.8518 49.1802C83.2186 48.1445 83.046 47.1089 83.046 47.1089C83.046 47.1089 83.2761 49.0075 84.5425 49.6117C85.8089 50.2158 87.4779 51.4241 88.6287 50.9925C89.7801 50.561 92.7725 46.2457 92.7725 46.2457C92.7725 46.2457 90.0101 45.728 87.1323 44.5198C84.2549 43.3114 83.588 39.0862 83.588 39.0862L65.953 39.3414Z" fill="#F7D917" stroke="black" stroke-width="0.90294"/>
<path d="M69.9961 53.3011C69.9961 53.3011 71.2166 51.3484 73.1704 51.2262C75.1237 51.1041 77.3214 53.7894 77.3214 53.7894" stroke="black" stroke-width="0.90294"/>
<path fill-rule="evenodd" clip-rule="evenodd" d="M71.7867 45.0016C71.7867 45.3677 71.0539 47.3206 71.2171 50.1279C71.3796 52.9351 73.5773 55.01 73.5773 55.01C73.5773 55.01 75.9376 53.5454 76.0189 50.0058C76.1002 46.4662 75.6932 44.5134 75.6932 44.5134L71.7867 45.0016Z" fill="#0139AB" stroke="black" stroke-width="0.90294"/>
<path d="M73.7383 45.1238C73.7383 45.1238 73.8201 51.4706 73.7383 51.4706" stroke="black" stroke-width="0.846507" stroke-linecap="round"/>
<path fill-rule="evenodd" clip-rule="evenodd" d="M62.0996 37.5564C62.181 37.5564 63.4833 38.4107 63.4833 40.7298C63.4833 43.0488 64.053 46.1001 65.8438 46.1001C67.6345 46.1001 68.3666 44.7575 68.4479 44.8796C68.5298 45.0017 69.669 48.6632 71.4597 48.175C73.2503 47.6868 73.8199 44.8796 73.8199 44.8796C73.8199 44.8796 74.7965 48.5411 76.1802 48.175C77.5638 47.8089 78.3778 44.5135 78.3778 44.5135C78.3778 44.5135 79.5176 46.5883 80.7381 46.2221C81.9591 45.856 82.9358 44.3915 83.4241 42.8047C83.9124 41.2179 84.0756 38.2887 83.9943 38.2887" fill="#FDD400" fill-opacity="0.996081"/>
<path d="M62.0996 37.5564C62.181 37.5564 63.4833 38.4107 63.4833 40.7298C63.4833 43.0488 64.053 46.1001 65.8438 46.1001C67.6345 46.1001 68.3666 44.7575 68.4479 44.8796C68.5298 45.0017 69.669 48.6632 71.4597 48.175C73.2503 47.6868 73.8199 44.8796 73.8199 44.8796C73.8199 44.8796 74.7965 48.5411 76.1802 48.175C77.5638 47.8089 78.3778 44.5135 78.3778 44.5135C78.3778 44.5135 79.5176 46.5883 80.7381 46.2221C81.9591 45.856 82.9358 44.3915 83.4241 42.8047C83.9124 41.2179 84.0756 38.2887 83.9943 38.2887" stroke="black" stroke-width="0.90294"/>
<path d="M71.216 31.2095C71.216 31.2095 72.7628 38.2886 69.1002 38.1665C65.4375 38.0445 67.3095 34.871 66.1697 34.749C65.0305 34.627 64.4609 34.749 64.4609 34.749" stroke="black" stroke-width="0.90294"/>
<path d="M74.4722 30.5994C74.4722 30.5994 73.5768 38.777 76.588 38.1667C79.5997 37.5564 80.3319 34.3831 80.3319 34.3831" stroke="black" stroke-width="0.90294"/>
<path fill-rule="evenodd" clip-rule="evenodd" d="M61.123 26.2053C61.123 26.2053 61.53 29.6229 62.3439 31.6978C63.1578 33.7726 63.809 33.4064 64.5416 33.7726C64.5416 32.3079 64.5416 31.6977 63.6462 29.7448C62.751 27.792 61.123 26.4494 61.123 26.2053Z" fill="black" fill-opacity="0.996078"/>
<path fill-rule="evenodd" clip-rule="evenodd" d="M82.2863 33.2845C82.2863 33.1625 81.9606 30.7215 82.8559 28.5245C83.7513 26.3275 84.7279 25.8394 84.7279 25.8394C84.7279 25.8394 84.8904 27.7922 84.2395 29.745C83.5886 31.6979 82.5302 33.6507 82.2863 33.2845Z" fill="black" fill-opacity="0.996078"/>
<path d="M66.9023 33.7725C67.3094 33.7725 68.9368 31.0873 70.8901 33.7725" stroke="black" stroke-width="0.90294"/>
<path d="M75.6113 33.1625C77.6464 30.9655 79.8436 33.6507 79.8436 33.6507" stroke="black" stroke-width="0.90294"/>
<path fill-rule="evenodd" clip-rule="evenodd" d="M70.6458 35.3592C70.6458 36.1004 69.8982 36.7018 68.9775 36.7018C68.0563 36.7018 67.3086 36.1004 67.3086 35.3592C67.3086 34.6181 68.0563 34.0166 68.9775 34.0166C69.8982 34.0166 70.6458 34.6181 70.6458 35.3592Z" stroke="black" stroke-width="1.00923"/>
<path fill-rule="evenodd" clip-rule="evenodd" d="M79.1933 35.1153C79.1933 35.8565 78.4639 36.4579 77.5657 36.4579C76.6669 36.4579 75.9375 35.8565 75.9375 35.1153C75.9375 34.3742 76.6669 33.7727 77.5657 33.7727C78.4639 33.7727 79.1933 34.3742 79.1933 35.1153Z" stroke="black" stroke-width="0.996851"/>
<path d="M68.9375 33.6506C68.9375 33.7726 69.0193 36.824 69.0193 36.824" stroke="black" stroke-width="0.90294"/>
<path d="M77.4023 33.5286L77.4836 36.5799" stroke="black" stroke-width="0.90294"/>
<path fill-rule="evenodd" clip-rule="evenodd" d="M75.6933 42.4995C75.6933 41.8682 75.4704 41.2629 75.0735 40.8165C74.6767 40.3701 74.1384 40.1194 73.5771 40.1194C73.0159 40.1194 72.4776 40.3701 72.0808 40.8165C71.6839 41.2629 71.4609 41.8682 71.4609 42.4995C71.4609 43.1307 71.6839 43.7361 72.0808 44.1825C72.4776 44.6288 73.0159 44.8796 73.5771 44.8796C74.1384 44.8796 74.6767 44.6288 75.0735 44.1825C75.4704 43.7361 75.6933 43.1307 75.6933 42.4995Z" fill="black"/>
<path d="M197.115 62.4692C197.115 62.4692 196.769 64.368 197.23 65.4036C197.69 66.4393 198.726 68.5106 198.726 68.5106" stroke="black" stroke-width="0.90294"/>
<path d="M194.008 64.0227C194.008 64.0227 192.281 65.9214 192.396 67.1297C192.511 68.338 192.971 69.5462 192.971 69.5462" stroke="black" stroke-width="0.90294"/>
<path d="M199.877 60.0527C202.064 60.7432 202.064 62.4693 202.064 62.4693" stroke="black" stroke-width="0.90294"/>
<path d="M123.103 65.231C122.642 65.4035 120.801 66.7844 120.801 66.7844" stroke="black" stroke-width="0.90294"/>
<path d="M126.44 67.8203C125.864 68.1655 125.289 67.6477 125.058 69.3738C124.828 71.1 125.404 71.9629 125.404 71.9629" stroke="black" stroke-width="0.90294"/>
<path d="M131.391 68.5107C131.506 68.5107 132.196 69.3738 132.196 70.2368C132.196 71.0999 131.736 72.1356 131.736 72.1356" stroke="black" stroke-width="0.90294"/>
<path d="M21.9247 64.7131C21.8097 64.7131 21.0039 65.7488 21.0039 66.9571" stroke="black" stroke-width="0.90294"/>
<path d="M155.606 48.986C154.464 47.6914 153.422 45.8545 153.422 45.8545" stroke="black" stroke-width="0.90294"/>
<path fill-rule="evenodd" clip-rule="evenodd" d="M193.629 196.114C193.629 199.043 194.28 201.972 194.606 202.949C194.931 203.925 195.094 205.146 195.094 205.146C195.094 205.146 196.234 203.437 196.234 201.484C196.234 199.531 195.908 196.846 195.908 196.846" fill="#0139AB"/>
<path d="M193.629 196.114C193.629 199.043 194.28 201.972 194.606 202.949C194.931 203.925 195.094 205.146 195.094 205.146C195.094 205.146 196.234 203.437 196.234 201.484C196.234 199.531 195.908 196.846 195.908 196.846" stroke="black" stroke-width="0.90294"/>
<path fill-rule="evenodd" clip-rule="evenodd" d="M187.77 196.114C187.77 196.358 186.793 197.578 186.956 199.775C187.118 201.972 187.607 203.681 187.607 203.437C187.607 203.193 187.607 201.24 188.747 200.019C189.886 198.799 191.676 198.067 191.676 198.067" fill="#0139AB"/>
<path d="M187.77 196.114C187.77 196.358 186.793 197.578 186.956 199.775C187.118 201.972 187.607 203.681 187.607 203.437C187.607 203.193 187.607 201.24 188.747 200.019C189.886 198.799 191.676 198.067 191.676 198.067" stroke="black" stroke-width="0.90294"/>
<path fill-rule="evenodd" clip-rule="evenodd" d="M186.63 190.988C182.886 195.137 184.188 197.334 184.188 197.334C184.188 197.334 184.351 196.358 185.653 196.358C186.955 196.358 189.397 197.578 189.397 197.578" fill="#0139AB"/>
<path d="M186.63 190.988C182.886 195.137 184.188 197.334 184.188 197.334C184.188 197.334 184.351 196.358 185.653 196.358C186.955 196.358 189.397 197.578 189.397 197.578" stroke="black" stroke-width="0.90294"/>
<path fill-rule="evenodd" clip-rule="evenodd" d="M114.936 214.805C115.993 218.579 117.912 220.47 117.912 220.47C117.912 220.47 118.707 218.872 117.448 215.954C116.188 213.037 114.83 211.719 114.83 211.719" fill="#0139AB"/>
<path d="M114.936 214.805C115.993 218.579 117.912 220.47 117.912 220.47C117.912 220.47 118.707 218.872 117.448 215.954C116.188 213.037 114.83 211.719 114.83 211.719" stroke="black" stroke-width="0.90294"/>
<path fill-rule="evenodd" clip-rule="evenodd" d="M108.592 214.561C108.44 214.618 107.645 216.216 107.155 217.701C106.665 219.185 107.499 220.959 107.499 220.959C107.499 220.959 109.564 218.106 110.565 217.995C111.565 217.883 112.363 218.627 112.363 218.627" fill="#0139AB"/>
<path d="M108.592 214.561C108.44 214.618 107.645 216.216 107.155 217.701C106.665 219.185 107.499 220.959 107.499 220.959C107.499 220.959 109.564 218.106 110.565 217.995C111.565 217.883 112.363 218.627 112.363 218.627" stroke="black" stroke-width="0.90294"/>
<path fill-rule="evenodd" clip-rule="evenodd" d="M107.378 208.501C104.359 208.322 103.464 211.52 103.617 211.463C103.769 211.407 106.21 210.498 107.179 211.7C108.147 212.903 109.964 214.05 109.964 214.05" fill="#0139AB"/>
<path d="M107.378 208.501C104.359 208.322 103.464 211.52 103.617 211.463C103.769 211.407 106.21 210.498 107.179 211.7C108.147 212.903 109.964 214.05 109.964 214.05" stroke="black" stroke-width="0.90294"/>
<path fill-rule="evenodd" clip-rule="evenodd" d="M112.003 203.655C111.697 203.769 111.016 201.938 109.558 202.221C108.1 202.503 107.543 204.273 107.543 204.273C107.543 204.273 111.463 205.94 111.616 205.883C111.768 205.826 112.173 204.113 112.003 203.655Z" fill="#0139AB" stroke="black" stroke-width="0.90294"/>
<path fill-rule="evenodd" clip-rule="evenodd" d="M31.1901 156.478C31.4203 154.407 30.9023 151.041 30.9023 151.041C30.9023 151.041 31.9383 150.868 32.9742 152.422C34.0102 153.975 33.5498 156.478 33.5498 156.478" fill="#0139AB"/>
<path d="M31.1901 156.478C31.4203 154.407 30.9023 151.041 30.9023 151.041C30.9023 151.041 31.9383 150.868 32.9742 152.422C34.0102 153.975 33.5498 156.478 33.5498 156.478" stroke="black" stroke-width="0.90294"/>
<path fill-rule="evenodd" clip-rule="evenodd" d="M25.1481 155.702C25.3783 151.473 23.5941 150.351 23.5366 150.351C23.479 150.351 25.2056 149.574 26.3567 150.351C27.5077 151.127 27.9681 155.011 27.9681 155.011" fill="#0139AB"/>
<path d="M25.1481 155.702C25.3783 151.473 23.5941 150.351 23.5366 150.351C23.479 150.351 25.2056 149.574 26.3567 150.351C27.5077 151.127 27.9681 155.011 27.9681 155.011" stroke="black" stroke-width="0.90294"/>
<path fill-rule="evenodd" clip-rule="evenodd" d="M20.1982 156.996C18.8169 153.199 17.5508 154.062 17.5508 154.062C17.5508 154.062 18.5867 152.594 20.0255 153.026C21.4643 153.457 22.7305 155.443 22.7305 155.356" fill="#0139AB"/>
<path d="M20.1982 156.996C18.8169 153.199 17.5508 154.062 17.5508 154.062C17.5508 154.062 18.5867 152.594 20.0255 153.026C21.4643 153.457 22.7305 155.443 22.7305 155.356" stroke="black" stroke-width="0.90294"/>
<path fill-rule="evenodd" clip-rule="evenodd" d="M21.579 165.454C20.3128 166.49 19.9675 166.921 18.9316 166.662C17.8956 166.403 17.0898 166.317 17.0898 166.317C17.0898 166.317 17.7229 163.296 18.5287 162.951C19.3344 162.606 20.7733 162.692 20.7733 162.692" fill="#0139AB"/>
<path d="M21.579 165.454C20.3128 166.49 19.9675 166.921 18.9316 166.662C17.8956 166.403 17.0898 166.317 17.0898 166.317C17.0898 166.317 17.7229 163.296 18.5287 162.951C19.3344 162.606 20.7733 162.692 20.7733 162.692" stroke="black" stroke-width="0.90294"/>
<path fill-rule="evenodd" clip-rule="evenodd" d="M25.312 184.397C25.312 182.444 24.498 181.467 24.498 181.467C24.498 181.467 25.6375 180.247 26.777 181.955C27.9165 183.664 28.4048 186.349 28.4048 186.349" fill="#0139AB"/>
<path d="M25.312 184.397C25.312 182.444 24.498 181.467 24.498 181.467C24.498 181.467 25.6375 180.247 26.777 181.955C27.9165 183.664 28.4048 186.349 28.4048 186.349" stroke="black" stroke-width="0.90294"/>
<path fill-rule="evenodd" clip-rule="evenodd" d="M20.6008 187.117C20.5432 187.117 20.0252 185.649 19.2771 185.131C18.5289 184.614 17.8382 184.527 18.0685 184.527C18.2987 184.527 18.0685 183.492 19.68 183.492C21.2914 183.492 22.3274 184.268 22.3274 184.268" fill="#0139AB"/>
<path d="M20.6008 187.117C20.5432 187.117 20.0252 185.649 19.2771 185.131C18.5289 184.614 17.8382 184.527 18.0685 184.527C18.2987 184.527 18.0685 183.492 19.68 183.492C21.2914 183.492 22.3274 184.268 22.3274 184.268" stroke="black" stroke-width="0.90294"/>
<path fill-rule="evenodd" clip-rule="evenodd" d="M19.968 191.518C16.4572 191.173 16.1119 194.366 16.227 194.453C16.3421 194.539 17.6658 195.488 18.4716 195.575C19.2773 195.661 19.968 195.575 19.968 195.575" fill="#0139AB"/>
<path d="M19.968 191.518C16.4572 191.173 16.1119 194.366 16.227 194.453C16.3421 194.539 17.6658 195.488 18.4716 195.575C19.2773 195.661 19.968 195.575 19.968 195.575" stroke="black" stroke-width="0.90294"/>
<path fill-rule="evenodd" clip-rule="evenodd" d="M21.5803 198.94C19.7962 202.651 20.1415 204.637 20.3142 204.637C20.4868 204.637 21.1199 204.119 22.0407 203.083C22.9616 202.047 23.5947 200.062 23.5947 200.062" fill="#0139AB"/>
<path d="M21.5803 198.94C19.7962 202.651 20.1415 204.637 20.3142 204.637C20.4868 204.637 21.1199 204.119 22.0407 203.083C22.9616 202.047 23.5947 200.062 23.5947 200.062" stroke="black" stroke-width="0.90294"/>
<path fill-rule="evenodd" clip-rule="evenodd" d="M23.0332 190.987C23.196 190.987 23.8471 183.176 26.1261 183.664C28.4051 184.153 27.5912 184.153 28.4051 184.641C29.219 185.129 30.8469 190.499 30.8469 190.499" fill="#FDD400"/>
<path d="M23.0332 190.987C23.196 190.987 23.8471 183.176 26.1261 183.664C28.4051 184.153 27.5912 184.153 28.4051 184.641C29.219 185.129 30.8469 190.499 30.8469 190.499" stroke="black" stroke-width="0.90294"/>
<path fill-rule="evenodd" clip-rule="evenodd" d="M187.447 195.576C187.101 195.231 184.454 193.16 185.836 191.434C187.217 189.708 195.389 191.088 195.389 191.088" fill="#FDD400"/>
<path d="M187.447 195.576C187.101 195.231 184.454 193.16 185.836 191.434C187.217 189.708 195.389 191.088 195.389 191.088" stroke="black" stroke-width="0.90294"/>
<path fill-rule="evenodd" clip-rule="evenodd" d="M119.21 208.182C118.166 208.018 117.135 208.218 115.093 206.031C113.051 203.844 113.699 203.603 113.026 203.116C112.354 202.63 111.611 203.275 110.282 204.322C108.952 205.369 111.31 210.385 111.31 210.385" fill="#FDD400"/>
<path d="M119.21 208.182C118.166 208.018 117.135 208.218 115.093 206.031C113.051 203.844 113.699 203.603 113.026 203.116C112.354 202.63 111.611 203.275 110.282 204.322C108.952 205.369 111.31 210.385 111.31 210.385" stroke="black" stroke-width="0.90294"/>
<path fill-rule="evenodd" clip-rule="evenodd" d="M129.761 174.76C129.522 176.453 113.583 186.097 119.382 194.121C121.207 196.646 125.815 196.885 126.369 198.704C126.923 200.524 123.197 203.384 119.374 204.99C115.551 206.597 114.833 207.97 112.327 208.166C109.82 208.361 105.272 206.37 106.009 210.332C106.747 214.294 107.67 214.134 107.67 214.134C107.67 214.134 107.853 216.276 108.994 217.693C110.136 219.11 111.036 219.88 112.438 219.358C113.841 218.837 113.791 217.382 113.791 217.382C113.791 217.382 114.609 218.919 117.15 218.158C119.692 217.396 119.785 215.336 119.892 215.295C120 215.255 122.291 215.14 123.141 214.455C123.992 213.77 124.985 212.48 124.985 212.48C124.985 212.48 124.75 215.146 124.857 215.105C124.965 215.065 126.955 214.141 128.931 212.853C130.908 211.565 131.744 208.859 131.636 208.9C131.528 208.94 130.886 212.494 133.522 211.329C136.159 210.163 136.31 206.608 138.372 206.209C140.435 205.81 141.273 204.761 141.273 204.761C141.273 204.761 141.33 203.266 141.737 202.378C142.144 201.49 142.839 201.048 142.839 201.048C142.839 201.048 144.444 200.082 144.384 199.92C144.324 199.758 142.879 195.876 142.879 195.876C142.879 195.876 138.007 196.669 138.87 193.684C141.946 183.046 170.177 182.681 168.014 186.697C166.528 173.44 151.292 171.508 129.761 174.76Z" fill="#F7D917" stroke="black" stroke-width="0.90294"/>
<path fill-rule="evenodd" clip-rule="evenodd" d="M31.1327 170.548C31.5931 156.394 34.1254 162.263 34.1254 159.156C34.1254 156.049 33.0895 153.977 32.2838 153.977C30.4421 153.977 25.8379 159.846 25.8379 159.846" fill="#FDD400"/>
<path d="M31.1327 170.548C31.5931 156.394 34.1254 162.263 34.1254 159.156C34.1254 156.049 33.0895 153.977 32.2838 153.977C30.4421 153.977 25.8379 159.846 25.8379 159.846" stroke="black" stroke-width="0.90294"/>
<path fill-rule="evenodd" clip-rule="evenodd" d="M63.2475 180.214C62.0964 179.697 44.2551 176.072 38.2696 172.62C32.2842 169.168 29.7519 163.644 29.2914 160.883C28.831 158.121 29.982 153.633 26.5288 153.633C23.0757 153.633 24.9174 158.121 24.9174 158.121C24.9174 158.121 22.1548 150.871 20.0829 155.014C18.0111 159.157 22.6153 162.264 22.6153 162.264C22.6153 162.264 18.1608 159.482 19.2772 163.99C21.1536 171.565 24.2268 168.823 24.6872 170.549C25.1476 172.275 22.3851 174.001 22.8455 174.346C23.3059 174.691 25.1476 175.9 26.2986 176.245C27.4497 176.59 29.0612 177.108 29.0612 177.108L27.3346 179.178C27.3346 179.178 30.5576 182.631 32.169 183.494C33.7805 184.357 35.8524 183.494 35.7373 183.494C35.6222 183.494 32.7445 185.392 32.7445 185.392C32.7445 185.392 34.3561 186.773 36.0826 187.118C37.8092 187.464 39.3056 187.636 39.3056 187.636L37.4639 188.844L62.3267 196.267L63.2475 180.214Z" fill="#F7D917" stroke="black" stroke-width="0.90294"/>
<path fill-rule="evenodd" clip-rule="evenodd" d="M64.8584 177.452C64.2829 177.625 53.6932 189.19 42.528 189.708C31.3627 190.225 25.0319 189.362 25.0319 189.362C25.0319 189.362 23.4205 181.422 20.658 185.047C17.8954 188.672 20.0824 190.053 20.0824 190.053C20.0824 190.053 20.5428 189.88 21.2335 190.743C21.9241 191.606 22.3845 192.642 22.3845 192.642C22.3845 192.642 18.7012 188.154 18.7012 193.505C18.7012 198.856 21.1183 196.957 21.0032 196.957C20.8882 196.957 20.4277 201.618 21.0032 201.79C21.5788 201.963 23.8809 202.826 25.147 202.481C26.4132 202.136 26.2981 201.1 26.6434 200.927C26.9887 200.755 28.9455 199.546 29.2908 200.064C29.6361 200.582 27.1038 203.862 27.5642 203.862C28.0246 203.862 31.8231 203.862 32.9742 202.481C34.1252 201.1 34.7008 199.029 34.8159 199.201C34.931 199.374 32.8591 203.344 33.0893 203.344C33.3195 203.344 37.4634 204.034 38.4993 203.516C39.5352 202.999 40.5712 201.272 40.5712 201.272C40.5712 201.272 39.8805 203.344 40.1107 203.516C40.3409 203.689 42.4128 203.862 44.3696 202.826C46.3264 201.79 47.1321 200.927 47.1321 200.927L46.5566 203.344C46.5566 203.344 49.5494 203.171 51.2759 201.272C53.0025 199.374 53.8083 199.201 53.8083 199.201C53.8083 199.201 52.0817 202.136 52.3119 202.136C52.5421 202.136 55.6499 201.963 57.0312 201.272C58.4125 200.582 59.7938 200.064 59.7938 200.064C59.7938 200.064 58.1823 202.481 58.2974 202.481C58.4125 202.481 60.5995 202.653 63.3621 201.618C66.1248 200.582 68.0814 199.374 68.0814 199.374C68.0814 199.374 64.8584 202.826 65.5491 202.826C66.2398 202.826 70.3835 202.999 72.4551 201.79C74.5273 200.582 74.9879 199.374 74.9879 199.374C74.9879 199.374 81.6639 199.719 83.0453 198.165C84.4262 196.612 84.0811 195.922 83.9661 196.094C83.851 196.267 87.9948 197.13 90.1814 197.648C92.3686 198.165 96.9729 198.338 100.081 197.475C103.188 196.612 137.029 176.762 143.245 177.107C149.461 177.452 150.612 179.696 152.453 179.524C154.296 179.351 155.331 178.488 155.331 178.661C155.331 178.833 164.425 189.19 176.741 188.499C189.057 187.809 186.64 186.773 188.597 186.601C190.553 186.428 192.855 188.327 192.625 190.053C192.395 191.779 191.359 192.815 190.093 192.987C188.827 193.16 187.446 194.368 187.446 196.094C187.446 197.82 188.827 200.237 190.323 200.237C191.82 200.237 192.28 199.374 192.74 199.201C193.201 199.029 193.661 201.1 195.618 200.237C197.575 199.374 198.151 198.511 198.611 198.338C199.071 198.165 202.064 197.993 202.064 197.82C202.064 197.648 202.294 192.124 202.294 192.124C202.294 192.124 205.517 191.779 205.517 190.743C205.517 189.708 204.366 187.464 203.676 186.428C202.985 185.392 202.179 184.529 202.179 184.529C202.179 184.529 204.366 185.738 204.827 185.565C205.287 185.392 206.323 184.702 206.323 184.702C206.323 184.702 204.827 182.113 203.676 181.25C202.524 180.387 199.762 179.524 199.762 179.524C199.762 179.524 201.373 179.178 202.639 178.143C203.906 177.107 205.057 175.726 205.057 175.554C205.057 175.381 201.604 172.447 198.956 172.792C196.309 173.137 192.625 176.417 188.136 176.417C183.647 176.417 178.813 172.964 178.813 172.964C178.813 172.964 185.374 172.964 188.367 172.792C191.359 172.619 197.805 170.548 197.805 164.161C197.805 157.775 192.855 154.323 180.884 153.977C168.914 153.632 144.679 153.968 137.115 154.824C124.854 156.211 112.988 155.202 107.348 155.202C101.707 155.202 100.211 153.994 100.096 151.232C100.036 149.785 102.599 149.286 105.053 149.064C105.85 148.992 111.136 147.699 117.598 147.715C129.21 147.745 144.621 149.124 144.621 148.966C144.621 148.448 144.851 147.758 144.966 147.758C145.081 147.758 145.887 149.829 147.038 150.002C148.189 150.174 150.491 149.657 150.491 149.657C150.491 149.657 151.412 151.21 153.023 151.037C154.635 150.865 155.326 149.657 155.326 149.657C155.326 149.657 156.246 150.865 157.973 150.692C159.7 150.52 160.966 148.276 161.311 148.276C161.656 148.276 162.923 148.621 164.074 147.93C165.224 147.24 170.52 142.062 170.52 142.062C170.52 142.062 165.915 143.27 163.153 143.27C160.39 143.27 158.663 141.717 155.21 142.234C151.757 142.752 148.074 144.306 146.117 144.133C144.848 144.021 129.449 142.554 117.589 142.445C111.164 142.386 105.777 143.638 104.24 143.638C99.8658 143.638 95.9522 147.953 95.4921 152.958C95.0314 157.964 99.2614 157.91 104.125 160.553C110.619 164.083 169.259 158.983 178.007 159.328C186.755 159.673 192.395 160.364 192.395 164.161C192.395 167.959 186.525 168.131 182.266 167.959C178.007 167.786 168.108 166.06 160.856 166.233C153.605 166.405 106.987 176.417 98.5844 176.244C90.1814 176.071 85.0019 175.381 85.0019 175.208C85.0019 175.036 64.8584 177.798 64.8584 177.452ZM148.534 146.895C148.534 146.895 149.11 148.621 149.915 149.311C150.721 150.002 151.872 150.865 151.872 150.865M153.369 147.413C153.369 147.413 154.175 147.585 154.52 148.276C154.865 148.966 155.671 149.829 155.671 149.829M158.894 146.55C159.584 146.55 160.39 148.621 160.39 148.621L158.894 146.55Z" fill="#F7D917"/>
<path d="M148.534 146.895C148.534 146.895 149.11 148.621 149.915 149.311C150.721 150.002 151.872 150.865 151.872 150.865M153.369 147.413C153.369 147.413 154.175 147.585 154.52 148.276C154.865 148.966 155.671 149.829 155.671 149.829M158.894 146.55C159.584 146.55 160.39 148.621 160.39 148.621M64.8584 177.452C64.2829 177.625 53.6932 189.19 42.528 189.708C31.3627 190.225 25.0319 189.362 25.0319 189.362C25.0319 189.362 23.4205 181.422 20.658 185.047C17.8954 188.672 20.0824 190.053 20.0824 190.053C20.0824 190.053 20.5428 189.88 21.2335 190.743C21.9241 191.606 22.3845 192.642 22.3845 192.642C22.3845 192.642 18.7012 188.154 18.7012 193.505C18.7012 198.856 21.1183 196.957 21.0032 196.957C20.8882 196.957 20.4277 201.618 21.0032 201.79C21.5788 201.963 23.8809 202.826 25.147 202.481C26.4132 202.136 26.2981 201.1 26.6434 200.927C26.9887 200.755 28.9455 199.546 29.2908 200.064C29.6361 200.582 27.1038 203.862 27.5642 203.862C28.0246 203.862 31.8231 203.862 32.9742 202.481C34.1252 201.1 34.7008 199.029 34.8159 199.201C34.931 199.374 32.8591 203.344 33.0893 203.344C33.3195 203.344 37.4634 204.034 38.4993 203.516C39.5352 202.999 40.5712 201.272 40.5712 201.272C40.5712 201.272 39.8805 203.344 40.1107 203.516C40.3409 203.689 42.4128 203.862 44.3696 202.826C46.3264 201.79 47.1321 200.927 47.1321 200.927L46.5566 203.344C46.5566 203.344 49.5494 203.171 51.2759 201.272C53.0025 199.374 53.8083 199.201 53.8083 199.201C53.8083 199.201 52.0817 202.136 52.3119 202.136C52.5421 202.136 55.6499 201.963 57.0312 201.272C58.4125 200.582 59.7938 200.064 59.7938 200.064C59.7938 200.064 58.1823 202.481 58.2974 202.481C58.4125 202.481 60.5995 202.653 63.3621 201.618C66.1248 200.582 68.0814 199.374 68.0814 199.374C68.0814 199.374 64.8584 202.826 65.5491 202.826C66.2398 202.826 70.3835 202.999 72.4551 201.79C74.5273 200.582 74.9879 199.374 74.9879 199.374C74.9879 199.374 81.6639 199.719 83.0453 198.165C84.4262 196.612 84.0811 195.922 83.9661 196.094C83.851 196.267 87.9948 197.13 90.1814 197.648C92.3686 198.165 96.9729 198.338 100.081 197.475C103.188 196.612 137.029 176.762 143.245 177.107C149.461 177.452 150.612 179.696 152.453 179.524C154.296 179.351 155.331 178.488 155.331 178.661C155.331 178.833 164.425 189.19 176.741 188.499C189.057 187.809 186.64 186.773 188.597 186.601C190.553 186.428 192.855 188.327 192.625 190.053C192.395 191.779 191.359 192.815 190.093 192.987C188.827 193.16 187.446 194.368 187.446 196.094C187.446 197.82 188.827 200.237 190.323 200.237C191.82 200.237 192.28 199.374 192.74 199.201C193.201 199.029 193.661 201.1 195.618 200.237C197.575 199.374 198.151 198.511 198.611 198.338C199.071 198.165 202.064 197.993 202.064 197.82C202.064 197.648 202.294 192.124 202.294 192.124C202.294 192.124 205.517 191.779 205.517 190.743C205.517 189.708 204.366 187.464 203.676 186.428C202.985 185.392 202.179 184.529 202.179 184.529C202.179 184.529 204.366 185.738 204.827 185.565C205.287 185.392 206.323 184.702 206.323 184.702C206.323 184.702 204.827 182.113 203.676 181.25C202.524 180.387 199.762 179.524 199.762 179.524C199.762 179.524 201.373 179.178 202.639 178.143C203.906 177.107 205.057 175.726 205.057 175.554C205.057 175.381 201.604 172.447 198.956 172.792C196.309 173.137 192.625 176.417 188.136 176.417C183.647 176.417 178.813 172.964 178.813 172.964C178.813 172.964 185.374 172.964 188.367 172.792C191.359 172.619 197.805 170.548 197.805 164.161C197.805 157.775 192.855 154.323 180.884 153.977C168.914 153.632 144.679 153.968 137.115 154.824C124.854 156.211 112.988 155.202 107.348 155.202C101.707 155.202 100.211 153.994 100.096 151.232C100.036 149.785 102.599 149.286 105.053 149.064C105.85 148.992 111.136 147.699 117.598 147.715C129.21 147.745 144.621 149.124 144.621 148.966C144.621 148.448 144.851 147.758 144.966 147.758C145.081 147.758 145.887 149.829 147.038 150.002C148.189 150.174 150.491 149.657 150.491 149.657C150.491 149.657 151.412 151.21 153.023 151.037C154.635 150.865 155.326 149.657 155.326 149.657C155.326 149.657 156.246 150.865 157.973 150.692C159.7 150.52 160.966 148.276 161.311 148.276C161.656 148.276 162.923 148.621 164.074 147.93C165.224 147.24 170.52 142.062 170.52 142.062C170.52 142.062 165.915 143.27 163.153 143.27C160.39 143.27 158.663 141.717 155.21 142.234C151.757 142.752 148.074 144.306 146.117 144.133C144.848 144.021 129.449 142.554 117.589 142.445C111.164 142.386 105.777 143.638 104.24 143.638C99.8658 143.638 95.9522 147.953 95.4921 152.958C95.0314 157.964 99.2614 157.91 104.125 160.553C110.619 164.083 169.259 158.983 178.007 159.328C186.755 159.673 192.395 160.364 192.395 164.161C192.395 167.959 186.525 168.131 182.266 167.959C178.007 167.786 168.108 166.06 160.856 166.233C153.605 166.405 106.987 176.417 98.5844 176.244C90.1814 176.071 85.0019 175.381 85.0019 175.208C85.0019 175.036 64.8584 177.798 64.8584 177.452Z" stroke="black" stroke-width="0.90294"/>
<path fill-rule="evenodd" clip-rule="evenodd" d="M57.2988 180.25C57.4616 180.006 57.9499 177.687 58.3568 175.978C58.7638 174.269 59.4964 172.072 59.4964 172.072C59.4964 172.072 57.8686 173.171 57.95 172.927C58.0313 172.683 57.6244 169.265 58.5197 166.824C59.415 164.383 60.3102 163.04 60.3102 162.064C60.3102 161.088 59.415 161.576 59.415 159.623C59.415 157.67 59.008 154.863 60.0661 154.253C61.1242 153.642 64.3796 157.914 64.3796 157.67C64.3796 157.426 63.6474 151.811 65.0311 151.445C66.4147 151.079 68.3679 153.398 68.3679 153.398C68.3679 153.398 69.0194 148.516 69.5077 148.516C69.996 148.516 71.2983 152.3 71.2983 152.3C71.2983 152.3 72.6007 148.272 73.089 148.272C73.5773 148.272 75.0422 152.544 75.0422 152.544C75.0422 152.544 75.7744 148.882 76.7516 148.882C77.7282 148.882 78.4604 153.276 78.4604 153.276C78.4604 153.276 79.1119 150.957 80.0072 151.201C80.9025 151.445 81.6347 157.304 81.6347 157.304C81.6347 157.304 83.9955 153.52 85.5417 154.008C87.088 154.497 85.5417 159.501 85.623 161.698C85.7043 163.895 87.1698 164.993 87.2511 166.58C87.3324 168.167 87.3324 178.053 87.2511 178.053C87.1692 178.053 70.8913 184.4 69.0193 184.034C67.1474 183.667 57.3802 180.494 57.2988 180.25Z" fill="#F7D917" stroke="black" stroke-width="0.90294"/>
<path fill-rule="evenodd" clip-rule="evenodd" d="M65.953 169.341C64.8016 172.191 60.3703 180.218 59.4495 181.599C58.5286 182.979 56.2266 185.051 56.2266 185.051C56.2266 185.051 57.1474 187.122 58.7589 186.777C60.3704 186.432 62.6724 184.015 62.6724 184.015C62.6724 184.015 60.0827 187.034 59.277 188.674C58.4712 190.313 57.9532 193.075 57.9532 193.075C57.9532 193.075 61.1762 192.989 63.133 190.572C65.0897 188.156 66.3561 186.171 66.2986 186.171C66.2411 186.171 64.399 189.019 64.514 191.09C64.6296 193.162 64.2265 194.888 64.2841 194.888C64.3415 194.888 66.6437 193.42 67.6795 192.212C68.7159 191.004 70.3273 188.242 70.3273 188.242C70.3273 188.242 69.7516 191.781 70.0967 193.42C70.4423 195.06 71.3631 197.39 71.3056 197.39C71.2481 197.39 72.9171 196.269 73.7803 193.766C74.6436 191.263 74.9312 189.278 74.9312 189.278C74.9312 189.278 75.2192 192.73 76.14 193.938C77.0608 195.147 81.2045 194.888 81.2045 194.888C81.2045 194.888 79.7656 194.37 79.3055 191.953C78.8448 189.537 79.0173 186.689 79.0173 186.689C79.0173 186.689 80.0537 189.882 81.032 190.227C82.0103 190.572 82.816 189.537 83.5067 190.227C84.1974 190.918 85.1182 193.248 85.1757 193.161C85.2332 193.075 87.1323 191.867 86.0965 188.933C85.0607 185.998 82.9885 185.826 81.8952 183.927C80.8014 182.028 80.1687 179.094 80.1687 179.008C80.1687 178.921 81.0895 183.237 82.4709 184.186C83.8518 185.135 84.6575 186.171 86.6146 186.257C88.5712 186.343 89.5495 187.811 89.5495 189.019C89.5495 190.227 89.377 191.004 89.377 191.004C89.377 191.004 91.6216 190.486 91.6216 187.034C91.6216 183.582 90.2402 182.201 88.7438 181.683C87.2473 181.165 84.485 180.216 83.8518 179.18C83.2186 178.145 83.046 177.109 83.046 177.109C83.046 177.109 83.2761 179.008 84.5425 179.612C85.8089 180.216 87.4779 181.424 88.6287 180.993C89.7801 180.561 92.7725 176.246 92.7725 176.246C92.7725 176.246 90.0101 175.728 87.1323 174.52C84.2549 173.311 83.588 169.086 83.588 169.086L65.953 169.341Z" fill="#F7D917" stroke="black" stroke-width="0.90294"/>
<path d="M69.9961 183.301C69.9961 183.301 71.2166 181.349 73.1704 181.226C75.1237 181.104 77.3214 183.79 77.3214 183.79" stroke="black" stroke-width="0.90294"/>
<path fill-rule="evenodd" clip-rule="evenodd" d="M71.7867 175.002C71.7867 175.368 71.0539 177.321 71.2171 180.128C71.3796 182.935 73.5773 185.01 73.5773 185.01C73.5773 185.01 75.9376 183.545 76.0189 180.006C76.1002 176.466 75.6932 174.513 75.6932 174.513L71.7867 175.002Z" fill="#0139AB" stroke="black" stroke-width="0.90294"/>
<path d="M73.7383 175.124C73.7383 175.124 73.8201 181.471 73.7383 181.471" stroke="black" stroke-width="0.846507" stroke-linecap="round"/>
<path fill-rule="evenodd" clip-rule="evenodd" d="M62.0996 167.556C62.181 167.556 63.4833 168.411 63.4833 170.73C63.4833 173.049 64.053 176.1 65.8438 176.1C67.6345 176.1 68.3666 174.758 68.4479 174.88C68.5298 175.002 69.669 178.663 71.4597 178.175C73.2503 177.687 73.8199 174.88 73.8199 174.88C73.8199 174.88 74.7965 178.541 76.1802 178.175C77.5638 177.809 78.3778 174.513 78.3778 174.513C78.3778 174.513 79.5176 176.588 80.7381 176.222C81.9591 175.856 82.9358 174.391 83.4241 172.805C83.9124 171.218 84.0756 168.289 83.9943 168.289" fill="#FDD400" fill-opacity="0.996081"/>
<path d="M62.0996 167.556C62.181 167.556 63.4833 168.411 63.4833 170.73C63.4833 173.049 64.053 176.1 65.8438 176.1C67.6345 176.1 68.3666 174.758 68.4479 174.88C68.5298 175.002 69.669 178.663 71.4597 178.175C73.2503 177.687 73.8199 174.88 73.8199 174.88C73.8199 174.88 74.7965 178.541 76.1802 178.175C77.5638 177.809 78.3778 174.513 78.3778 174.513C78.3778 174.513 79.5176 176.588 80.7381 176.222C81.9591 175.856 82.9358 174.391 83.4241 172.805C83.9124 171.218 84.0756 168.289 83.9943 168.289" stroke="black" stroke-width="0.90294"/>
<path d="M71.216 161.209C71.216 161.209 72.7628 168.289 69.1002 168.167C65.4375 168.044 67.3095 164.871 66.1697 164.749C65.0305 164.627 64.4609 164.749 64.4609 164.749" stroke="black" stroke-width="0.90294"/>
<path d="M74.4722 160.599C74.4722 160.599 73.5768 168.777 76.588 168.167C79.5997 167.556 80.3319 164.383 80.3319 164.383" stroke="black" stroke-width="0.90294"/>
<path fill-rule="evenodd" clip-rule="evenodd" d="M61.123 156.205C61.123 156.205 61.53 159.623 62.3439 161.698C63.1578 163.773 63.809 163.406 64.5416 163.773C64.5416 162.308 64.5416 161.698 63.6462 159.745C62.751 157.792 61.123 156.449 61.123 156.205Z" fill="black" fill-opacity="0.996078"/>
<path fill-rule="evenodd" clip-rule="evenodd" d="M82.2863 163.285C82.2863 163.163 81.9606 160.721 82.8559 158.525C83.7513 156.327 84.7279 155.839 84.7279 155.839C84.7279 155.839 84.8904 157.792 84.2395 159.745C83.5886 161.698 82.5302 163.651 82.2863 163.285Z" fill="black" fill-opacity="0.996078"/>
<path d="M66.9023 163.773C67.3094 163.773 68.9368 161.088 70.8901 163.773" stroke="black" stroke-width="0.90294"/>
<path d="M75.6113 163.162C77.6464 160.966 79.8436 163.651 79.8436 163.651" stroke="black" stroke-width="0.90294"/>
<path fill-rule="evenodd" clip-rule="evenodd" d="M70.6458 165.359C70.6458 166.101 69.8982 166.702 68.9775 166.702C68.0563 166.702 67.3086 166.101 67.3086 165.359C67.3086 164.618 68.0563 164.017 68.9775 164.017C69.8982 164.017 70.6458 164.618 70.6458 165.359Z" stroke="black" stroke-width="1.00923"/>
<path fill-rule="evenodd" clip-rule="evenodd" d="M79.1933 165.115C79.1933 165.856 78.4639 166.458 77.5657 166.458C76.6669 166.458 75.9375 165.856 75.9375 165.115C75.9375 164.374 76.6669 163.773 77.5657 163.773C78.4639 163.773 79.1933 164.374 79.1933 165.115Z" stroke="black" stroke-width="0.996851"/>
<path d="M68.9375 163.651C68.9375 163.773 69.0193 166.824 69.0193 166.824" stroke="black" stroke-width="0.90294"/>
<path d="M77.4023 163.529L77.4836 166.58" stroke="black" stroke-width="0.90294"/>
<path fill-rule="evenodd" clip-rule="evenodd" d="M75.6933 172.499C75.6933 171.868 75.4704 171.263 75.0735 170.816C74.6767 170.37 74.1384 170.119 73.5771 170.119C73.0159 170.119 72.4776 170.37 72.0808 170.816C71.6839 171.263 71.4609 171.868 71.4609 172.499C71.4609 173.131 71.6839 173.736 72.0808 174.182C72.4776 174.629 73.0159 174.88 73.5771 174.88C74.1384 174.88 74.6767 174.629 75.0735 174.182C75.4704 173.736 75.6933 173.131 75.6933 172.499Z" fill="black"/>
<path d="M197.115 192.469C197.115 192.469 196.769 194.368 197.23 195.404C197.69 196.439 198.726 198.511 198.726 198.511" stroke="black" stroke-width="0.90294"/>
<path d="M194.008 194.023C194.008 194.023 192.281 195.922 192.396 197.13C192.511 198.338 192.971 199.546 192.971 199.546" stroke="black" stroke-width="0.90294"/>
<path d="M199.877 190.053C202.064 190.743 202.064 192.469 202.064 192.469" stroke="black" stroke-width="0.90294"/>
<path d="M109.344 212.037C108.973 212.359 107.729 214.296 107.729 214.296" stroke="black" stroke-width="0.90294"/>
<path d="M113.377 213.3C112.958 213.824 112.238 213.539 112.624 215.238C113.01 216.936 113.851 217.544 113.851 217.544" stroke="black" stroke-width="0.90294"/>
<path d="M118.256 212.221C118.364 212.181 119.312 212.749 119.613 213.557C119.914 214.366 119.844 215.497 119.844 215.497" stroke="black" stroke-width="0.90294"/>
<path d="M21.9247 194.713C21.8097 194.713 21.0039 195.749 21.0039 196.957" stroke="black" stroke-width="0.90294"/>
<path d="M155.606 178.986C154.464 177.691 153.422 175.854 153.422 175.854" stroke="black" stroke-width="0.90294"/>
</svg>
