<svg width="300" height="300" viewBox="0 0 300 300" fill="none" xmlns="http://www.w3.org/2000/svg">
<path fill-rule="evenodd" clip-rule="evenodd" d="M150 2C196.691 2 243.309 9.56779 290 24.2538C290 128.317 290.905 238.636 150 297.795C9.0573 238.636 10.0002 128.317 10.0002 24.2538C56.6538 9.56779 103.346 2 150 2Z" fill="#D0A650" stroke="#034EA2" stroke-width="0.853659"/>
<path d="M150.001 16.4492C192.109 16.4492 234.217 23.2647 276.325 36.5193C276.325 130.464 277.153 229.987 150.001 283.381C22.8291 229.987 23.6759 130.464 23.6759 36.5193C65.7839 23.2651 107.892 16.4492 150.001 16.4492Z" fill="#034EA2"/>
<path d="M152.303 78.8633C154.086 80.8464 155.279 82.8279 155.279 85.238C153.782 85.9433 151.715 86.2313 150.521 87.506C157.952 86.5121 159.433 94.7261 167.755 91.6091C168.057 92.7467 169.251 93.7395 170.73 93.3103L171.622 91.0481C174.884 90.1985 173.993 95.2949 177.572 94.3016C179.355 95.72 178.162 98.1244 179.355 99.8308C179.355 101.81 180.247 103.509 181.137 105.208C182.029 104.222 182.618 102.804 184.702 103.229C186.182 104.784 187.376 106.202 187.677 107.901C187.073 111.162 186.182 113.991 189.746 115.69V116.683C192.133 117.676 197.48 115.69 197.48 119.656C197.177 121.075 198.96 119.8 199.564 120.649C201.045 120.081 203.129 120.369 204.911 120.369C206.391 123.342 203.129 125.466 202.237 128.158C203.717 129.569 203.129 132.125 202.827 133.816L201.935 134.241C204.306 134.665 207.281 133.968 209.366 135.242L213.233 136.652C215.015 135.667 217.084 135.515 219.471 135.667C221.253 136.941 218.866 139.065 220.362 140.051C222.447 140.051 224.229 140.339 224.515 142.038L224.818 142.599C226.298 140.051 230.467 141.749 232.249 139.915C235.225 139.915 235.813 143.025 237.293 144.724C237.898 149.122 232.249 151.11 234.031 155.493C232.838 157.616 230.467 159.316 228.685 161.303C229.273 161.591 228.971 162.289 228.971 162.713C227.189 163.715 228.685 166.688 226.297 166.962C226.011 168.811 222.447 168.099 223.624 170.085C226.011 173.059 222.447 174.894 222.447 177.594C220.951 179.156 217.975 176.168 217.975 179.156C216.193 179.581 214.411 177.594 213.233 179.293C212.629 181.28 214.411 181.978 214.124 183.965C217.084 183.677 217.976 186.513 219.169 188.213L222.144 191.049C219.169 193.309 215.302 190.76 211.737 192.034C210.846 191.61 211.737 190.487 210.846 190.063C209.954 189.061 208.172 189.061 206.693 188.788C206.979 190.063 204.306 190.487 205.499 192.034C205.499 192.458 206.088 193.733 204.91 193.733C202.523 194.446 202.826 191.761 200.741 192.747C198.068 193.733 200.152 197.556 196.286 197.131C196.874 200.544 190.35 202.804 194.805 205.778C195.394 206.339 195.092 207.476 195.092 208.326C192.418 210.601 187.675 209.752 184.7 208.902C182.314 208.326 183.809 205.489 182.918 203.942C182.027 202.516 179.354 201.53 179.354 199.543C177.57 198.844 176.076 198.407 174.882 196.994C170.729 200.817 165.67 204.503 159.733 204.64C157.06 205.914 155.564 211.026 151.411 208.901C149.78 211.451 144.871 208.901 144.576 212.573C142.643 213.286 143.534 215.698 142.349 216.82C141.903 219.656 142.349 222.068 144.871 223.768C145.913 225.891 142.643 225.891 143.979 227.879C144.282 228.577 143.979 229.577 143.534 229.865C142.643 230.29 142.349 230.715 142.643 231.564C141.903 231.564 141.601 231.989 141.011 232.55C140.263 233.961 137.892 234.674 136.254 235.66C134.622 236.084 133.429 234.962 132.395 233.961C132.092 235.523 130.756 236.373 129.125 236.373C126.745 236.373 127.191 234.386 125.409 233.537C126.149 230.988 123.77 229.865 124.518 227.59C126.45 226.179 129.713 225.178 128.822 222.206C126.745 219.808 127.485 216.259 125.409 213.423C124.072 212.3 121.844 210.602 122.584 207.901C124.518 205.778 122.584 203.229 121.542 200.969C121.097 199.119 119.911 197.42 119.911 195.296C116.641 193.461 116.49 188.637 111.883 188.213C108.613 188.213 108.024 184.253 104.754 184.526C104.452 183.965 103.712 183.541 103.116 182.979C100.744 184.526 97.7691 182.555 94.8007 183.252C92.8674 180.142 96.4319 175.895 91.2287 174.044V172.073C91.8254 172.345 92.1199 171.784 92.2707 171.496C92.5653 169.372 88.5549 169.099 90.1942 166.687C89.303 165.975 88.2609 165.686 88.8576 164.275C86.6221 159.891 79.9385 160.317 78.4506 155.918C79.644 154.932 79.644 153.93 80.0899 153.081C79.0473 151.382 78.7533 149.547 79.0473 147.711C80.0899 147.423 80.6784 146.149 81.2751 145.148C79.9385 144.299 78.3068 143.024 76.8194 143.449C74.1462 143.024 72.2123 141.052 69.8337 139.915C69.237 139.353 69.5397 138.353 69.5397 137.655C72.809 136.653 69.0943 132.262 73.1041 132.831C74.1467 131.557 76.3741 131.132 78.0058 130.139C79.6445 129.858 80.9811 130.427 82.6123 130.852C83.9489 132.543 86.3281 131.838 87.6642 133.256C89.0008 132.968 90.6401 132.262 92.2713 132.968C92.2713 130.563 93.4571 129.145 95.2466 127.446C95.5412 126.459 97.1724 125.747 98.509 125.185C101.04 125.747 104.007 125.747 105.797 124.048C106.983 124.76 108.025 123.342 109.362 123.342C110.993 123.054 112.33 123.479 113.523 124.192C113.666 121.355 118.87 123.767 119.912 120.369C121.098 118.101 116.642 117.252 116.936 115.265C116.196 112.997 117.979 111.867 118.87 110.312C119.912 109.887 121.097 109.319 122.434 109.599C125.855 108.469 123.181 101.81 128.68 104.222C128.68 104.928 128.378 105.777 128.823 105.921C130.756 105.921 131.053 103.795 132.396 103.085C132.984 101.105 131.648 98.6938 133.43 97.1383C134.321 96.9946 135.069 96.7138 135.658 96.0008C135.658 94.4459 134.767 93.5968 133.43 92.6029C132.985 93.3108 131.799 92.7472 131.053 93.028C131.053 91.3288 130.016 90.199 129.714 88.6363C128.823 88.2118 128.378 87.5065 128.68 86.5126C130.016 85.2385 128.68 82.1215 131.799 82.8284C132.985 81.8407 135.069 82.546 136.255 80.8469C139.374 79.1482 143.534 79.1482 145.914 76.0312C146.956 76.175 148.142 75.1816 149.184 76.0312C149.479 77.8736 152.303 77.1605 152.303 78.8633Z" fill="#D0A650"/>
<path d="M175.31 40.4576L171.202 28.4189L167.144 40.4576H153.855L164.608 47.9032L160.5 59.9419L171.202 52.4963L181.954 59.9419L177.846 47.9032L188.598 40.4576H175.31Z" fill="white"/>
<path d="M217.101 47.4688L212.993 35.4785L208.935 47.4688H195.646L206.399 54.9144L202.291 66.9531L212.993 59.5075L223.745 66.9531L219.637 54.9144L230.389 47.4688H217.101Z" fill="white"/>
<path d="M256.968 61.296L252.911 49.3057L248.802 61.296H235.514L246.266 68.7416L242.158 80.7802L252.911 73.3346L263.612 80.7802L259.504 68.7416L270.257 61.296H256.968Z" fill="white"/>
<path d="M132.857 40.4576L128.799 28.4189L124.691 40.4576H111.402L122.155 47.9032L118.047 59.9419L128.799 52.4963L139.501 59.9419L135.393 47.9032L146.145 40.4576H132.857Z" fill="white"/>
<path d="M91.0638 47.4688L87.0062 35.4785L82.8979 47.4688H69.6094L80.3619 54.9144L76.2537 66.9531L87.0062 59.5075L97.7081 66.9531L93.5998 54.9144L104.352 47.4688H91.0638Z" fill="white"/>
<path d="M51.1985 61.296L47.0903 49.3057L43.0327 61.296H29.7441L40.4967 68.7416L36.3884 80.7802L47.0903 73.3346L57.8428 80.7802L53.7345 68.7416L64.4871 61.296H51.1985Z" fill="white"/>
</svg>
