<svg width="300" height="300" viewBox="0 0 300 300" fill="none" xmlns="http://www.w3.org/2000/svg">
<path d="M248.887 38.1573C254.06 36.2099 258.068 35.1378 262.099 41.4657C275.012 61.7339 280.889 85.3789 278.704 108.624L262.906 102.307" fill="white"/>
<path d="M248.887 38.1573C254.06 36.2099 258.068 35.1378 262.099 41.4657C275.012 61.7339 280.889 85.3789 278.704 108.624L262.906 102.307" stroke="black" stroke-width="2.3599" stroke-linejoin="round"/>
<path d="M214.357 16.7504C218.528 13.2445 221.915 10.9389 227.964 15.5855C262.755 42.3123 280.09 86.6249 266.581 129.876L255.044 117.472" fill="#FEB402"/>
<path d="M214.357 16.7504C218.528 13.2445 221.915 10.9389 227.964 15.5855C262.755 42.3123 280.09 86.6249 266.581 129.876L255.044 117.472" stroke="black" stroke-width="2.3599" stroke-linejoin="round"/>
<path d="M178.002 8.88103C180.95 4.38761 183.506 1.25762 190.695 4.06796C232.042 20.2328 261.923 57.9955 261.923 103.121C261.923 108.077 261.566 112.955 260.877 117.732L249.344 113.727" fill="white"/>
<path d="M178.002 8.88103C180.95 4.38761 183.506 1.25762 190.695 4.06796C232.042 20.2328 261.923 57.9955 261.923 103.121C261.923 108.077 261.566 112.955 260.877 117.732L249.344 113.727" stroke="black" stroke-width="2.3599" stroke-linejoin="round"/>
<path d="M150.352 13.4681C150.352 5.97905 158.201 5.04386 164.535 5.91109C215.199 12.8475 254.346 54.0491 254.346 104.179C254.346 108.802 254.013 113.352 253.369 117.808L240.696 119.719" fill="#FEB402"/>
<path d="M150.352 13.4681C150.352 5.97905 158.201 5.04386 164.535 5.91109C215.199 12.8475 254.346 54.0491 254.346 104.179C254.346 108.802 254.013 113.352 253.369 117.808L240.696 119.719" stroke="black" stroke-width="2.20119" stroke-linejoin="round"/>
<path d="M51.8189 38.1573C46.6459 36.2099 42.638 35.1378 38.6065 41.4657C25.6938 61.7339 19.8167 85.3789 22.0013 108.624L37.7997 102.307" fill="white"/>
<path d="M51.8189 38.1573C46.6459 36.2099 42.638 35.1378 38.6065 41.4657C25.6938 61.7339 19.8167 85.3789 22.0013 108.624L37.7997 102.307" stroke="black" stroke-width="2.3599" stroke-linejoin="round"/>
<path d="M86.3477 16.7504C82.1769 13.2445 78.7899 10.9389 72.7413 15.5855C37.9504 42.3123 20.6152 86.6249 34.1244 129.876L45.6615 117.472" fill="#FEB402"/>
<path d="M86.3477 16.7504C82.1769 13.2445 78.7899 10.9389 72.7413 15.5855C37.9504 42.3123 20.6152 86.6249 34.1244 129.876L45.6615 117.472" stroke="black" stroke-width="2.3599" stroke-linejoin="round"/>
<path d="M122.702 8.88103C119.754 4.38761 117.198 1.25762 110.01 4.06796C68.6624 20.2328 38.7812 57.9955 38.7812 103.121C38.7812 108.077 39.1378 112.955 39.8277 117.732L51.36 113.727" fill="white"/>
<path d="M122.702 8.88103C119.754 4.38761 117.198 1.25762 110.01 4.06796C68.6624 20.2328 38.7812 57.9955 38.7812 103.121C38.7812 108.077 39.1378 112.955 39.8277 117.732L51.36 113.727" stroke="black" stroke-width="2.3599" stroke-linejoin="round"/>
<path d="M150.353 13.4681C150.353 5.97905 142.504 5.04386 136.17 5.91109C85.5062 12.8475 46.3594 54.0491 46.3594 104.179C46.3594 108.802 46.6919 113.352 47.3355 117.808L60.0086 119.719" fill="#FEB402"/>
<path d="M150.353 13.4681C150.353 5.97905 142.504 5.04386 136.17 5.91109C85.5062 12.8475 46.3594 54.0491 46.3594 104.179C46.3594 108.802 46.6919 113.352 47.3355 117.808L60.0086 119.719" stroke="black" stroke-width="2.20119" stroke-linejoin="round"/>
<path d="M150.955 13.1807C99.0711 13.1807 56.8822 52.6874 55.5469 101.809C55.6186 101.118 55.6474 100.43 55.822 99.7281C56.1133 98.5573 56.5369 97.3792 57.0946 96.2386C57.6523 95.0981 58.3418 93.9969 59.141 92.9622C59.9402 91.9275 60.8595 90.9649 61.8753 90.1117C62.8911 89.2584 64.004 88.5126 65.2115 87.9165C65.8152 87.6184 66.439 87.3661 67.0859 87.1465C67.7329 86.9269 68.4109 86.7376 69.098 86.6059C69.7851 86.4742 70.4891 86.3945 71.2132 86.3601C71.9373 86.3258 72.6736 86.3369 73.4316 86.4093C74.1896 86.4817 74.9644 86.6138 75.7532 86.8025C76.5419 86.9912 77.3443 87.2416 78.1607 87.556C78.0912 86.4804 78.0824 85.423 78.1435 84.3943C78.2046 83.3656 78.3384 82.3689 78.5218 81.3963C78.7053 80.4237 78.9464 79.486 79.2441 78.5786C79.5419 77.6712 79.8892 76.7905 80.2931 75.9574C80.697 75.1243 81.1498 74.3317 81.6517 73.582C82.1535 72.8323 82.7108 72.1258 83.3026 71.4687C83.8943 70.8115 84.5208 70.2058 85.1942 69.6503C85.8676 69.0947 86.5796 68.5878 87.3266 68.1431C88.0736 67.6983 88.8702 67.3048 89.6826 66.9799C90.495 66.6551 91.3237 66.4059 92.1933 66.21C93.063 66.0141 93.9744 65.8746 94.8932 65.8168C95.812 65.759 96.7365 65.7765 97.6963 65.866C98.6561 65.9554 99.6444 66.128 100.637 66.3738C101.63 66.6196 102.629 66.9455 103.646 67.3567C104.664 67.768 105.691 68.2617 106.725 68.8475C107.759 69.4333 108.812 70.1094 109.854 70.8789C110.358 70.2004 110.862 69.6177 111.385 69.1424C111.908 68.6672 112.448 68.2996 112.984 68.012C113.521 67.7245 114.056 67.5212 114.601 67.4059C115.145 67.2906 115.687 67.2662 116.234 67.3076C116.782 67.349 117.341 67.4527 117.885 67.6352C118.43 67.8178 118.966 68.0642 119.502 68.3724C120.038 68.6807 120.561 69.0517 121.084 69.47C121.607 69.8884 122.128 70.3659 122.632 70.8789C122.319 69.1413 122.182 67.5281 122.185 66.0625C122.187 64.597 122.334 63.2771 122.615 62.098C122.895 60.919 123.299 59.8799 123.818 59.0018C124.078 58.5627 124.366 58.167 124.678 57.8059C124.991 57.4448 125.332 57.1207 125.693 56.8393C126.053 56.558 126.441 56.3183 126.845 56.1185C127.249 55.9188 127.658 55.7598 128.1 55.6434C128.542 55.5271 129.017 55.4616 129.493 55.4305C129.969 55.3993 130.45 55.4074 130.955 55.4632C131.965 55.5749 133.022 55.8609 134.119 56.3315C135.216 56.8021 136.36 57.4534 137.507 58.2974C138.497 56.9569 139.663 55.5848 140.981 54.2673C142.299 52.9498 143.762 51.6802 145.332 50.5649C146.116 50.0073 146.923 49.4985 147.756 49.025C148.589 48.5515 149.447 48.1141 150.319 47.7472C151.191 47.3802 152.083 47.0842 152.984 46.8462C153.886 46.6082 154.797 46.4413 155.718 46.3547C156.64 46.2681 157.573 46.2512 158.504 46.3383C159.436 46.4255 160.375 46.612 161.307 46.8953C162.24 47.1786 163.169 47.5566 164.093 48.0585C165.017 48.5603 165.939 49.1832 166.845 49.926C167.75 50.6689 168.633 51.541 169.51 52.5472C170.388 53.5534 171.249 54.6955 172.09 55.9875C172.93 57.2795 173.755 58.7122 174.549 60.3124C175.342 61.9126 176.099 63.6731 176.836 65.6038C178.31 65.4634 179.671 65.4224 180.912 65.4564C182.153 65.4904 183.283 65.6106 184.317 65.8168C185.35 66.0231 186.286 66.3088 187.137 66.6851C187.988 67.0613 188.747 67.517 189.441 68.0612C190.135 68.6053 190.771 69.2354 191.333 69.9451C191.895 70.6549 192.39 71.4473 192.846 72.3206C193.302 73.1938 193.709 74.153 194.085 75.1875C194.46 76.2219 194.797 77.3359 195.116 78.5294C196.222 77.8039 197.304 77.2747 198.349 76.9076C199.394 76.5404 200.403 76.333 201.376 76.2687C202.349 76.2043 203.288 76.2824 204.179 76.4653C205.07 76.6481 205.926 76.9427 206.724 77.3171C207.523 77.6916 208.265 78.15 208.96 78.6605C209.655 79.171 210.288 79.7242 210.869 80.3151C211.449 80.906 211.978 81.5341 212.434 82.1499C212.889 82.7657 213.284 83.3669 213.603 83.952C215.102 82.8286 216.638 81.8823 218.212 81.1178C219.786 80.3534 221.396 79.7824 222.992 79.3813C223.79 79.1808 224.589 79.0151 225.383 78.9062C226.176 78.7974 226.956 78.7427 227.739 78.726C228.521 78.7094 229.295 78.7318 230.06 78.8079C230.825 78.8841 231.59 79.0152 232.33 79.1847C233.071 79.3542 233.787 79.5603 234.497 79.8236C235.207 80.087 235.906 80.3996 236.578 80.7574C237.25 81.1152 237.893 81.5169 238.521 81.9697C239.149 82.4225 239.767 82.9285 240.344 83.4769C240.921 84.0252 241.458 84.6181 241.978 85.2625C242.497 85.907 242.984 86.6019 243.439 87.3431C243.895 88.0842 244.327 88.8801 244.712 89.7185C244.984 90.3126 245.2 90.9593 245.434 91.6025C238.982 47.337 199.188 13.1807 150.955 13.1807Z" fill="#0182D6"/>
<path fill-rule="evenodd" clip-rule="evenodd" d="M245.291 92.3771C245.817 96.2423 246.007 100.177 246.007 104.178C246.007 154.406 203.216 195.17 150.491 195.17C97.7662 195.17 54.975 154.406 54.975 104.178C54.975 53.951 54.9219 112.196 54.9219 103.193C54.9219 94.191 64.6429 82.5248 77.7062 87.5556C76.5944 70.345 92.7151 58.5625 109.392 70.8746C113.422 65.4467 118.147 66.7706 122.177 70.8746C119.676 56.9738 127.875 51.5459 137.047 58.2977C144.968 47.5742 164.597 34.7177 176.389 65.6099C188.181 64.4866 192.112 68.98 194.666 78.5285C203.511 72.7245 210.586 79.2774 213.141 83.958C225.129 74.9712 240.377 77.399 245.291 92.3771Z" fill="white"/>
<path fill-rule="evenodd" clip-rule="evenodd" d="M203.516 103.887C207.103 103.465 211.918 108.661 213.49 109.129C215.063 109.597 218.354 109.691 218.354 109.691L212.213 116.852C212.213 116.852 211.672 117.18 210.198 117.039C208.724 116.899 205.678 115.214 203.172 113.014C200.666 110.814 196.539 110.674 196.539 110.674L203.516 103.887Z" fill="white" stroke="black" stroke-width="0.550299"/>
<path fill-rule="evenodd" clip-rule="evenodd" d="M203.864 103.866C203.749 103.869 203.632 103.869 203.52 103.883L202.918 104.472L203.864 107.405C207.254 107.124 210.686 112.074 212.307 112.074C213.019 112.074 214.652 112.121 216.246 112.172L218.361 109.698C218.361 109.698 215.066 109.593 213.494 109.125C211.971 108.671 207.409 103.788 203.864 103.866Z" fill="#007A3D"/>
<path fill-rule="evenodd" clip-rule="evenodd" d="M199.684 108.338L197.81 109.452L196.537 110.681C196.537 110.681 200.669 110.807 203.175 113.007C205.681 115.207 208.717 116.896 210.191 117.037C211.665 117.177 212.221 116.857 212.221 116.857L214.714 113.941C213.107 114.105 211.436 114.203 210.398 113.99C207.892 113.475 205.182 110.248 202.676 109.78L199.684 108.338Z" fill="#CE1126"/>
<path fill-rule="evenodd" clip-rule="evenodd" d="M203.516 103.887C207.103 103.465 211.918 108.661 213.49 109.129C215.063 109.597 218.354 109.691 218.354 109.691L212.213 116.852C212.213 116.852 211.672 117.18 210.198 117.039C208.724 116.899 205.678 115.214 203.172 113.014C200.666 110.814 196.539 110.674 196.539 110.674L203.516 103.887Z" stroke="black" stroke-width="0.550299"/>
<path d="M157.213 67.8607C165.667 63.9512 174.077 59.9982 182.499 56.047C185.626 56.4539 182.87 57.6038 181.504 58.5782C173.403 63.9072 165.703 70.1682 160.263 78.0556C156.855 84.4748 153.725 91.0634 151.445 97.9283C154.903 96.3486 157.996 94.0963 161.3 92.228C164.851 86.0735 168.064 79.7205 171.972 73.7687C173.766 74.9968 173.076 77.4266 173.663 79.2388C173.652 82.9278 174.71 85.2181 178.137 81.8977C186.127 77.0869 194.025 72.139 202.01 67.3206C203.877 69.4598 199.407 70.8362 198.755 72.7597C196.661 74.9285 194.938 77.335 193.779 80.0716C189.479 83.218 188.076 88.5261 185.679 92.9623C184.65 97.2444 182.845 101.421 183.165 105.886C182.99 110.079 182.741 114.275 183.638 118.415C185.555 118.302 187.804 118.892 189.53 118.378C194.354 112.882 198.327 109.047 203.473 103.82C203.555 104.676 203.629 103.781 204.349 104.01C202.634 104.061 206.107 107.811 205.474 108.783C204.18 110.773 203.056 109.466 199.43 110.296C197.172 111.067 196.961 110.833 195.371 112.735C193.749 114.628 192.126 116.521 190.504 118.415C196.604 118.554 202.703 118.693 208.803 118.832C204.246 123.744 196.035 138.158 193.722 144.361C170.324 148.049 145.069 144.335 119.23 144.884C117.066 140.768 110.043 133.773 106.863 130.354C104.059 127.852 101.255 125.35 98.4515 122.848C93.5863 123.383 88.6943 123.814 83.7999 123.963C81.6253 117.74 83.0479 110.979 85.5553 105.083C87.3658 103.67 87.2014 102.502 85.1007 101.573C97.281 95.4639 109.845 89.9401 122.206 84.1127C125.537 74.365 128.755 64.526 132.142 54.8309C132.962 53.6867 133.298 57.4536 134.171 58.1952C136.304 63.9256 138.543 69.6795 141.093 75.2291C146.501 72.8433 151.846 70.328 157.213 67.8607ZM147.674 121.961C151.251 123.426 148.494 115.82 147.871 117.976C147.503 119.303 145.328 120.648 146.24 121.961C146.718 121.961 147.196 121.961 147.674 121.961ZM154.502 121.961C155.742 121.644 159.233 122.854 158.562 120.78C157.619 119.38 157.874 116.315 155.46 116.958C152.622 117.078 147.223 116.285 150.203 120.476C150.07 123.044 152.861 121.585 154.502 121.961ZM161.45 121.88C164.121 122.653 162.57 119.34 163.636 118.623C165.734 119.654 167.869 116.934 165.088 116.954C162.261 117.238 156.023 115.654 159.04 119.952C159.649 121.348 159.459 122.488 161.45 121.88ZM85.0341 120.781C87.0297 118.154 92.4169 119.062 93.354 116.217C94.0543 113.521 96.486 116.145 98.1308 116.443C99.0258 116.489 103.377 116.357 101.734 115.326C96.9806 111.543 92.5463 107.271 87.4049 104.031C86.1773 104.782 85.8338 107.198 84.9327 108.565C83.7501 112.783 82.8355 117.292 84.1046 121.589C84.4144 121.32 84.7242 121.05 85.0341 120.781ZM90.1246 121.498C92.1132 121.247 98.8534 121.792 94.5014 119.326C92.7245 119.646 87.4923 120.894 88.34 121.51C88.9349 121.506 89.5297 121.502 90.1246 121.498ZM128.559 121.492C130.786 121.509 133.012 121.527 135.239 121.544C135.885 119.155 132.61 120.775 131.19 120.498C129.081 120.622 122.395 121.169 122.504 121.445C124.522 121.461 126.541 121.476 128.559 121.492ZM142.005 121.544C144.493 122.194 145.723 120.831 146.367 118.659C145.973 116.83 140.318 118.371 138.875 119.732C138.045 122.003 140.451 121.555 142.005 121.544ZM105.621 120.377C108.66 120.962 105.743 117.959 104.365 118.212C102.051 118.049 100.439 118.142 103.098 119.796C103.793 120.77 104.56 120.522 105.621 120.377ZM109.692 119.875C112.082 118.462 109.913 117.142 107.68 117.789C105.883 117.162 109.529 120.401 109.692 119.875ZM116.076 119.65C119.506 120.186 124.19 117.892 118.545 118.137C116.327 118.003 114.109 117.87 111.892 117.736C109.441 120.715 113.311 119.788 115.199 119.702C115.491 119.685 115.784 119.667 116.076 119.65ZM123.413 118.944C128.317 118.76 118.519 118.801 123.413 118.944ZM139.563 118.381C141.881 116.248 147.91 118.807 147.895 115.086C146.806 111.424 146.292 107.505 144.655 104.061C142.358 105.471 140.06 106.881 137.763 108.292C138.056 111.758 138.312 115.231 138.85 118.673C139.088 118.576 139.325 118.478 139.563 118.381ZM176.484 118.623C181.105 118.945 177.327 117.742 174.686 117.628C171.833 117.865 175.123 119.153 176.484 118.623ZM134.801 118.206C136.607 116.583 133.111 116.028 134.675 118.206H134.801ZM182.472 118.144C182.482 113.193 181.623 108.24 182.585 103.32C182.968 97.0636 185.67 91.2122 188.209 85.508C187.244 83.7522 186.131 82.037 183.801 81.9234C180.673 80.9875 178.468 83.8611 175.868 85.0016C172.981 86.9115 176.802 91.7791 176.212 94.7573C177.48 102.415 178.561 110.104 179.973 117.739C180.806 117.869 181.649 117.956 182.472 118.144ZM130.706 117.311C133.329 117.754 132.884 113.664 134.839 112.392C134.353 101.853 133.905 91.2906 133.274 80.7522C131.271 81.7389 127.647 81.8002 128.073 84.7047C126.374 95.2751 124.286 105.812 122.975 116.421C125.548 116.748 128.115 117.134 130.706 117.311ZM178.053 117.301C180.031 114.578 176.883 107.97 176.875 103.751C176.002 97.9991 174.899 92.2657 174.221 86.4949C171.709 85.8569 173.231 88.9812 172.882 90.3602C173.167 99.21 173.021 108.089 173.878 116.909C175.268 117.049 176.659 117.196 178.053 117.301ZM151.189 116.506C153.846 116.4 158.123 116.684 155.528 113.417C154.6 110.542 152.936 106.513 151.36 111.6C151.203 113.057 147.7 115.834 149.855 116.46L150.475 116.5L151.189 116.506ZM165.544 116.459C168.318 114.722 166.825 108.538 168.006 105.276C168.655 99.9735 169.292 94.6696 169.935 89.3666C168.642 88.4611 166.967 90.9246 165.525 91.3281C163.547 92.6422 161.025 93.474 160.292 95.8893C158.181 99.7052 155.828 103.419 154.1 107.41C154.969 110.32 156.281 113.087 157.41 115.911C160.122 116.089 162.836 116.24 165.544 116.459ZM108.083 115.856C114.088 116.395 112.937 108.5 115.241 104.76C117.169 98.6434 119.677 92.5767 121.043 86.3665C119.602 86.5864 117.605 87.8976 115.951 88.5358C106.698 92.825 97.4455 97.1143 88.1929 101.404C87.8271 103.073 90.6033 103.797 91.529 105.077C95.9518 108.759 100.375 112.441 104.798 116.122C105.893 116.034 106.988 115.945 108.083 115.856ZM117.281 116.12C118.736 115.686 121.922 117.038 122.152 115.355C123.796 104.607 125.959 93.9152 127.355 83.1428C123.455 84.3289 121.239 86.946 120.762 90.93C117.994 99.3212 114.908 107.658 112.463 116.12C114.069 116.12 115.675 116.12 117.281 116.12ZM148.639 114.451C149.989 111.994 151.952 109.479 152.789 106.926C151.732 105.201 151.618 100.835 149.712 100.91C144.436 102.571 146.186 107.059 147.652 111.127C147.977 112.235 148.24 113.364 148.639 114.451ZM137.634 106.523C142.133 104.576 146.258 102.094 143.12 97.0557C141.527 90.7535 139.847 84.4717 138.206 78.1806C136.49 79.0161 134.15 79.5249 135.204 81.8116C136.061 90.0418 136.741 98.3222 137.634 106.523ZM153.887 105.063C155.544 102.186 158.675 97.8749 158.842 95.5672C156.151 96.9677 153.636 98.6452 151.048 100.208C151.996 101.501 152.508 106.302 153.887 105.063ZM147.505 100.64C151.702 99.608 147.931 95.8936 147.406 93.3597C145.279 88.0767 143.129 82.8022 140.989 77.524C138.589 76.8289 139.121 79.5275 139.67 80.8798C141.541 87.8999 143.256 94.9629 145.288 101.94C146.027 101.507 146.766 101.074 147.505 100.64ZM150.839 96.6903C153.659 90.5023 155.5 83.8811 159.421 78.1983C159.568 76.98 157.428 74.7152 155.898 74.6727C153.597 74.146 152.292 76.3162 150.569 77.3547C150.763 75.7831 150.677 73.4868 148.747 73.3232C146.434 74.3588 144.121 75.3944 141.809 76.4299C144.048 83.6763 147.225 90.7493 150.195 97.7785C150.342 98.2223 150.702 96.7737 150.839 96.6903ZM184.952 56.4527C185.737 55.9197 184.166 55.9197 184.952 56.4527ZM163.541 90.6674C165.902 89.5442 168.036 88.0395 170.267 86.7035C170.496 83.421 171.047 80.1657 171.441 76.8981C168.682 79.8527 167.154 84.0933 164.935 87.6002C164.714 88.4005 162.917 90.3902 163.541 90.6674ZM173.152 84.8259C174.819 84.8871 172.47 78.9506 172.521 79.4904C172.504 81.2689 172.486 83.0474 172.469 84.8259C172.697 84.8259 172.924 84.8259 173.152 84.8259ZM125.534 82.5641C129.033 81.9575 128.123 78.179 128.87 75.6634C129.447 71.3864 131.359 63.1934 130.875 61.3261C128.14 68.6995 125.685 76.1686 123.29 83.6472C124.038 83.2861 124.786 82.9251 125.534 82.5641ZM130.869 80.0226C133.267 79.5918 133.455 77.9294 133.047 75.9347C132.83 71.0565 132.57 66.1769 132.611 61.2929C131.042 62.9587 131.59 65.5845 130.942 67.6681C130.168 72.1614 129.557 76.6865 128.556 81.1392C129.327 80.767 130.098 80.3948 130.869 80.0226ZM135.041 78.1499C138.415 77.8962 137.628 75.6118 136.86 73.4617C135.598 69.1258 134.844 64.543 133.008 60.4479C133.97 66.2965 134.007 72.417 135.041 78.1499ZM138.585 76.4808C142.004 74.3402 136.009 67.0556 135.652 64.9994C136.451 68.8614 137.483 72.6883 138.585 76.4808Z" fill="black"/>
<path fill-rule="evenodd" clip-rule="evenodd" d="M63.6699 141.639C64.4275 143.187 65.1525 144.753 66.0021 146.26C66.4093 146.982 66.886 147.664 67.3128 148.376C70.0792 147.13 72.6298 145.514 75.0583 144.008C79.948 140.976 84.3232 138.397 88.932 138.397C93.5409 138.397 97.9161 140.976 102.806 144.008C107.695 147.04 113.1 150.527 119.71 150.527C126.319 150.527 131.741 147.04 136.63 144.008C141.52 140.976 145.895 138.397 150.504 138.397C155.113 138.397 159.471 140.976 164.361 144.008C169.251 147.04 174.656 150.527 181.265 150.527C187.874 150.527 193.279 147.04 198.169 144.008C203.058 140.976 207.433 138.397 212.042 138.397C216.651 138.397 221.026 140.976 225.916 144.008C228.324 145.501 230.854 147.101 233.593 148.343C234.077 147.529 234.617 146.752 235.074 145.924C235.849 144.52 236.507 143.05 237.202 141.606C234.532 140.569 231.843 139.006 228.963 137.221C224.073 134.189 218.651 130.702 212.042 130.702C205.433 130.702 200.028 134.189 195.138 137.221C190.249 140.253 185.874 142.832 181.265 142.832C176.656 142.832 172.298 140.253 167.408 137.221C162.518 134.189 157.113 130.702 150.504 130.702C143.895 130.702 138.473 134.189 133.583 137.221C128.694 140.253 124.318 142.832 119.71 142.832C115.101 142.832 110.743 140.253 105.853 137.221C100.963 134.189 95.5412 130.702 88.932 130.702C82.3229 130.702 76.9179 134.189 72.0282 137.221C69.1101 139.03 66.375 140.604 63.6699 141.639Z" fill="#0182D6"/>
<path fill-rule="evenodd" clip-rule="evenodd" d="M66.8008 147.554C67.8498 149.346 68.9234 151.123 70.0862 152.846C70.3231 153.198 70.594 153.523 70.8352 153.871C72.2908 153.042 73.6958 152.195 75.0569 151.351C79.9466 148.319 84.3218 145.74 88.9307 145.74C93.5395 145.74 97.9147 148.319 102.804 151.351C107.694 154.383 113.099 157.853 119.708 157.853C126.317 157.853 131.739 154.383 136.629 151.351C141.519 148.319 145.894 145.74 150.503 145.74C155.112 145.74 159.47 148.319 164.36 151.351C169.249 154.383 174.654 157.853 181.263 157.853C187.872 157.853 193.277 154.383 198.167 151.351C203.057 148.319 207.432 145.74 212.041 145.74C216.65 145.74 221.025 148.319 225.915 151.351C227.256 152.183 228.653 153.02 230.085 153.838C230.434 153.332 230.818 152.855 231.158 152.342C232.198 150.775 233.157 149.152 234.103 147.521C232.428 146.64 230.739 145.649 228.962 144.547C224.072 141.515 218.65 138.028 212.041 138.028C205.432 138.028 200.027 141.515 195.137 144.547C190.247 147.579 185.872 150.158 181.263 150.158C176.654 150.158 172.296 147.579 167.407 144.547C162.517 141.515 157.112 138.028 150.503 138.028C143.894 138.028 138.472 141.515 133.582 144.547C128.692 147.579 124.317 150.158 119.708 150.158C115.099 150.158 110.741 147.579 105.852 144.547C100.962 141.515 95.5398 138.028 88.9307 138.028C82.3215 138.028 76.9165 141.515 72.0268 144.547C70.2253 145.664 68.4967 146.666 66.8008 147.554Z" fill="white"/>
<path fill-rule="evenodd" clip-rule="evenodd" d="M70.1895 152.981C71.5766 155.03 73.0244 157.038 74.5473 158.979C74.7133 158.876 74.8932 158.778 75.058 158.676C79.9477 155.644 84.3229 153.065 88.9318 153.065C93.5406 153.065 97.9158 155.644 102.805 158.676C107.695 161.708 113.1 165.178 119.709 165.178C126.318 165.178 131.74 161.708 136.63 158.676C141.52 155.644 145.895 153.065 150.504 153.065C155.113 153.065 159.471 155.644 164.361 158.676C169.25 161.708 174.655 165.178 181.264 165.178C187.874 165.178 193.279 161.708 198.168 158.676C203.058 155.644 207.433 153.065 212.042 153.065C216.651 153.065 221.026 155.644 225.916 158.676C226.059 158.765 226.214 158.855 226.358 158.945C226.498 158.768 226.645 158.602 226.784 158.424C228.16 156.656 229.472 154.817 230.733 152.947C230.142 152.59 229.569 152.248 228.963 151.872C224.073 148.84 218.651 145.37 212.042 145.37C205.433 145.37 200.028 148.84 195.138 151.872C190.248 154.904 185.873 157.483 181.264 157.483C176.656 157.483 172.297 154.904 167.408 151.872C162.518 148.84 157.113 145.37 150.504 145.37C143.895 145.37 138.473 148.84 133.583 151.872C128.693 154.904 124.318 157.483 119.709 157.483C115.1 157.483 110.742 154.904 105.853 151.872C100.963 148.84 95.5409 145.37 88.9318 145.37C82.3226 145.37 76.9176 148.84 72.0279 151.872C71.4023 152.26 70.7992 152.612 70.1895 152.981Z" fill="#0182D6"/>
<path fill-rule="evenodd" clip-rule="evenodd" d="M73.8984 158.071C74.1588 158.409 74.3834 158.777 74.6475 159.112C75.9321 160.744 77.285 162.304 78.6479 163.85C82.1565 161.845 85.4731 160.389 88.9297 160.389C93.5386 160.389 97.9138 162.968 102.803 166C107.693 169.032 113.098 172.519 119.707 172.519C122.147 172.519 124.385 171.943 126.534 171.192C126.714 170.656 126.907 170.13 127.163 169.68C127.474 169.134 127.836 168.65 128.236 168.218C128.636 167.786 129.064 167.409 129.53 167.076C130.46 166.41 131.495 165.922 132.543 165.564C133.59 165.205 134.651 164.976 135.624 164.808C136.013 163.44 136.501 162.239 137.071 161.179C137.64 160.118 138.285 159.199 138.977 158.407C139.67 157.615 140.415 156.953 141.173 156.39C141.931 155.828 142.705 155.368 143.471 154.996C144.238 154.624 145.001 154.326 145.718 154.106C146.436 153.885 147.116 153.743 147.727 153.635C148.949 153.419 149.896 153.383 150.349 153.383C151.607 153.383 152.808 153.523 153.941 153.786C155.073 154.05 156.138 154.438 157.124 154.929C158.11 155.419 159.012 156.011 159.83 156.693C160.649 157.374 161.379 158.141 162.009 158.978C162.639 159.814 163.172 160.727 163.593 161.683C164.013 162.639 164.321 163.634 164.512 164.673C164.6 165.152 164.578 165.661 164.614 166.152C169.439 169.146 174.764 172.519 181.262 172.519C187.872 172.519 193.277 169.032 198.166 166C203.056 162.968 207.431 160.389 212.04 160.389C215.479 160.389 218.782 161.828 222.271 163.816C223.824 162.076 225.332 160.287 226.782 158.423C226.875 158.303 226.961 158.174 227.054 158.054C222.655 155.36 217.816 152.694 212.04 152.694C205.431 152.694 200.026 156.181 195.136 159.213C190.246 162.245 185.871 164.824 181.262 164.824C176.654 164.824 172.295 162.245 167.406 159.213C162.516 156.181 157.111 152.694 150.502 152.694C143.893 152.694 138.471 156.181 133.581 159.213C128.691 162.245 124.316 164.824 119.707 164.824C115.098 164.824 110.74 162.245 105.851 159.213C100.961 156.181 95.5389 152.694 88.9297 152.694C83.1424 152.694 78.3044 155.371 73.8984 158.071Z" fill="white"/>
<path fill-rule="evenodd" clip-rule="evenodd" d="M164.514 164.774C164.692 165.783 164.776 166.83 164.718 167.882C164.658 168.968 164.471 170.061 164.14 171.158C163.952 171.781 163.885 172.353 163.748 172.956C163.955 173.084 164.152 173.196 164.361 173.326C169.251 176.358 174.656 179.844 181.265 179.844C187.874 179.844 193.279 176.358 198.169 173.326C203.058 170.294 207.433 167.714 212.042 167.714C213.862 167.714 215.646 168.2 217.439 168.873C219 167.339 220.545 165.76 222.035 164.102C222.338 163.765 222.621 163.402 222.92 163.06C219.625 161.363 216.072 160.02 212.042 160.02C205.433 160.02 200.028 163.506 195.138 166.538C190.249 169.57 185.874 172.15 181.265 172.15C176.656 172.15 172.298 169.57 167.408 166.538C166.472 165.958 165.493 165.36 164.514 164.774Z" fill="#0182D6"/>
<path fill-rule="evenodd" clip-rule="evenodd" d="M78.002 163.094C78.5454 163.721 79.0644 164.38 79.6191 164.993C80.8518 166.354 82.1354 167.638 83.4153 168.924C85.2488 168.223 87.0697 167.714 88.9307 167.714C93.5396 167.714 97.9147 170.294 102.804 173.326C107.694 176.358 113.099 179.844 119.708 179.844C126.317 179.844 131.739 176.358 136.629 173.326C136.478 172.704 136.24 172.049 136.016 171.427C135.51 169.742 130.539 170.668 126.398 171.511C126.531 171.061 126.724 170.677 126.909 170.285C124.5 171.407 122.139 172.15 119.708 172.15C115.099 172.15 110.741 169.57 105.852 166.538C100.962 163.506 95.5398 160.02 88.9307 160.02C84.8756 160.02 81.3136 161.381 78.002 163.094Z" fill="#0182D6"/>
<path fill-rule="evenodd" clip-rule="evenodd" d="M164.002 171.797C163.667 173.01 163.378 174.208 163.236 175.342C163.068 176.68 163.031 177.964 163.117 179.172C163.137 179.466 163.235 179.711 163.27 179.996C163.635 180.22 163.988 180.421 164.359 180.651C169.249 183.683 174.654 187.169 181.263 187.169C187.872 187.169 193.277 183.683 198.167 180.651C202.43 178.007 206.311 175.821 210.287 175.275C210.758 174.889 211.232 174.546 211.7 174.149C213.484 172.637 215.251 171.036 216.977 169.361C217.308 169.04 217.619 168.68 217.948 168.353C216.074 167.78 214.131 167.345 212.041 167.345C205.431 167.345 200.026 170.831 195.137 173.863C190.247 176.895 185.872 179.475 181.263 179.475C176.654 179.475 172.296 176.895 167.406 173.863C166.306 173.181 165.162 172.48 164.002 171.797Z" fill="white"/>
<path fill-rule="evenodd" clip-rule="evenodd" d="M82.9043 168.403C83.5706 169.081 84.2187 169.797 84.896 170.453C86.6141 172.117 88.3693 173.693 90.1391 175.207C94.3079 175.608 98.3467 177.887 102.804 180.651C107.694 183.683 113.099 187.169 119.708 187.169C126.317 187.169 131.739 183.683 136.629 180.651C137.182 180.308 137.705 180.005 138.246 179.676C138.119 178.587 137.959 177.486 137.65 176.283C137.321 175.002 136.835 173.62 136.288 172.217C135.375 172.766 134.457 173.321 133.582 173.863C128.692 176.895 124.317 179.475 119.708 179.475C115.099 179.475 110.741 176.895 105.851 173.863C100.962 170.831 95.5396 167.345 88.9304 167.345C86.7877 167.345 84.8194 167.805 82.9043 168.403Z" fill="white"/>
<path fill-rule="evenodd" clip-rule="evenodd" d="M163.133 178.652C163.14 178.819 163.104 179.008 163.116 179.172C163.201 180.381 163.408 181.508 163.728 182.566C164.049 183.624 164.483 184.602 165.022 185.489C165.561 186.377 166.206 187.179 166.946 187.875C167.686 188.571 168.524 189.171 169.448 189.656C170.372 190.141 171.387 190.512 172.478 190.765C173.569 191.017 174.728 191.151 175.968 191.151C177.354 191.151 178.831 191.02 180.36 190.765C181.888 190.509 183.467 190.12 185.109 189.622C186.752 189.125 188.455 188.518 190.182 187.791C191.91 187.064 193.675 186.231 195.459 185.288C197.244 184.345 199.043 183.292 200.856 182.146C202.668 181 204.491 179.752 206.303 178.416C207.858 177.271 209.398 176.03 210.933 174.754C204.83 175.117 199.746 178.33 195.136 181.189C190.246 184.221 185.871 186.8 181.262 186.8C176.653 186.8 172.295 184.221 167.405 181.189C166.034 180.338 164.6 179.486 163.133 178.652Z" fill="#0182D6"/>
<path fill-rule="evenodd" clip-rule="evenodd" d="M89.6289 174.737C89.8859 174.96 90.1371 175.207 90.3949 175.426C92.2506 177.005 94.1146 178.513 95.9955 179.912C97.8764 181.311 99.7717 182.606 101.647 183.81C103.523 185.014 105.392 186.126 107.231 187.119C109.07 188.113 110.872 188.989 112.644 189.757C114.416 190.525 116.145 191.178 117.819 191.706C119.493 192.233 121.125 192.644 122.671 192.916C123.958 193.142 125.151 193.213 126.33 193.252C130.085 191.975 133.487 189.941 136.629 187.993C136.868 187.845 137.091 187.718 137.327 187.573C137.342 187.542 137.364 187.52 137.378 187.489C137.804 186.547 138.108 185.497 138.281 184.347C138.453 183.198 138.5 181.946 138.4 180.601C138.352 179.962 138.155 179.232 138.042 178.551C136.507 179.416 135.011 180.303 133.582 181.189C128.693 184.221 124.317 186.8 119.709 186.8C115.1 186.8 110.741 184.221 105.852 181.189C101.137 178.265 95.9195 174.973 89.6289 174.737Z" fill="#0182D6"/>
<path d="M246.007 104.178C246.007 154.431 203.243 195.17 150.491 195.17C97.7386 195.17 54.9746 154.431 54.9746 104.178C54.9746 53.9249 97.7386 13.1865 150.491 13.1865C203.243 13.1865 246.007 53.9249 246.007 104.178Z" stroke="black" stroke-width="2.20119" stroke-linejoin="round"/>
<path fill-rule="evenodd" clip-rule="evenodd" d="M199.32 222.187C202.822 220.797 215.761 214.773 215.761 214.773C215.761 214.773 212.453 209.955 207.784 207.73C221.208 205.692 239.205 197.444 247.765 186.138C241.929 186.138 233.563 185.582 233.563 185.582C264.692 169.457 275.977 149.255 275.977 149.255C269.167 149.625 262.747 148.699 262.747 148.699C280.062 130.164 284.732 104.958 285.704 90.501C273.058 101.251 258.466 113.669 244.263 117.932C240.372 156.668 198.157 189.045 175.977 189.045C166.055 189.045 160.639 180.928 164.139 169.751C166.792 161.277 160.418 152.591 150.352 152.591C148.543 152.591 138.74 153.054 135.627 163.619C131.735 164.267 126.482 165.936 125.996 172.237C127.941 171.218 131.444 170.384 136.016 170.013C141.658 183.172 136.988 191.142 127.066 191.142C104.886 191.142 60.3322 156.668 56.4411 117.932C42.2382 113.669 27.6463 101.251 15 90.501C15.9728 104.958 20.6422 130.164 37.958 148.699C37.958 148.699 31.5375 149.625 24.7279 149.255C24.7279 149.255 36.0124 169.457 67.1418 185.582C67.1418 185.582 58.7758 186.138 52.939 186.138C61.4996 197.444 79.4963 205.692 92.9209 207.73C88.2515 209.955 84.9439 214.773 84.9439 214.773C84.9439 214.773 97.8821 220.797 101.384 222.187" fill="#FEB402"/>
<path d="M199.32 222.187C202.822 220.797 215.761 214.773 215.761 214.773C215.761 214.773 212.453 209.955 207.784 207.73C221.208 205.692 239.205 197.444 247.765 186.138C241.929 186.138 233.563 185.582 233.563 185.582C264.692 169.457 275.977 149.255 275.977 149.255C269.167 149.625 262.747 148.699 262.747 148.699C280.062 130.164 284.732 104.958 285.704 90.501C273.058 101.251 258.466 113.669 244.263 117.932C240.372 156.668 198.157 189.045 175.977 189.045C166.055 189.045 160.639 180.928 164.139 169.751C166.792 161.277 160.418 152.591 150.352 152.591C148.543 152.591 138.74 153.054 135.627 163.619C131.735 164.267 126.482 165.936 125.996 172.237C127.941 171.218 131.444 170.384 136.016 170.013C141.658 183.172 136.988 191.142 127.066 191.142C104.886 191.142 60.3322 156.668 56.4411 117.932C42.2382 113.669 27.6463 101.251 15 90.501C15.9728 104.958 20.6422 130.164 37.958 148.699C37.958 148.699 31.5375 149.625 24.7279 149.255C24.7279 149.255 36.0124 169.457 67.1418 185.582C67.1418 185.582 58.7758 186.138 52.939 186.138C61.4996 197.444 79.4963 205.692 92.9209 207.73C88.2515 209.955 84.9439 214.773 84.9439 214.773C84.9439 214.773 97.8821 220.797 101.384 222.187" stroke="black" stroke-width="2.17906"/>
<path fill-rule="evenodd" clip-rule="evenodd" d="M150.359 193.641L149.951 194.078L149.338 194.727C142.091 202.547 131.555 205.724 122.065 206.907C112.575 208.089 104.39 207.263 101.381 207.263H100.564H100.02V207.782V208.561C100.02 225.506 101.458 241.299 108.412 256.11C115.367 270.922 127.83 284.673 149.627 297.562L150.07 297.822L150.359 298L150.649 297.822L151.074 297.562C172.871 284.673 185.335 270.922 192.289 256.11C199.243 241.299 200.682 225.506 200.682 208.561V207.782V207.263H200.137H199.32C196.311 207.263 188.126 208.089 178.636 206.907C169.146 205.724 158.627 202.547 151.381 194.727L150.768 194.078L150.359 193.641Z" fill="black"/>
<path fill-rule="evenodd" clip-rule="evenodd" d="M102.24 212.677C102.478 227.919 104.188 242.045 110.395 255.264C114.521 264.053 120.647 272.466 129.683 280.579V232.138L102.24 212.677Z" fill="#CE1126"/>
<path fill-rule="evenodd" clip-rule="evenodd" d="M132.305 231.992V282.867C137.42 287.164 143.391 291.372 150.35 295.516C157.312 291.371 163.278 287.164 168.395 282.867V231.992H132.305Z" fill="white"/>
<path fill-rule="evenodd" clip-rule="evenodd" d="M198.46 212.677L171.018 232.138V280.579C180.056 272.467 186.196 264.054 190.323 255.264C196.529 242.045 198.222 227.919 198.46 212.677Z" fill="#007A3D"/>
<path fill-rule="evenodd" clip-rule="evenodd" d="M136.504 168.962C138.911 168.503 139.737 171.518 145.343 171.518C150.949 171.518 154.492 169.552 156.555 169.028C152.738 172.042 146.891 175.417 137.054 171.124M146.822 159.755C149.986 159.755 152.91 162.147 152.91 162.147H140.872C140.872 162.147 143.429 159.722 146.822 159.755Z" fill="black"/>
<path fill-rule="evenodd" clip-rule="evenodd" d="M150.487 13.1807C120.426 13.1807 93.6068 26.4399 76.0938 47.1411L95.5778 61.3445C95.5778 61.3445 115.491 36.1813 150.35 36.1813C185.209 36.1813 205.122 61.3445 205.122 61.3445L224.795 47.01C207.28 26.3799 180.488 13.1807 150.487 13.1807Z" fill="white" stroke="black" stroke-width="1.6509"/>
<path d="M54.9219 103.193C54.9219 94.191 64.6429 82.5248 77.7062 87.5556C76.5944 70.345 92.7151 58.5625 109.392 70.8746C113.422 65.4467 118.147 66.7706 122.177 70.8746C119.676 56.9738 127.875 51.5459 137.047 58.2977C144.968 47.5742 164.597 34.7177 176.389 65.6099C188.181 64.4866 192.112 68.98 194.666 78.5285C203.511 72.7245 210.586 79.2774 213.141 83.958C225.129 74.9712 240.459 77.4051 245.373 92.3832" stroke="black" stroke-width="2.20119"/>
<path d="M91.1425 43.0737C91.1425 43.9506 90.3954 44.6623 89.4748 44.6623C88.5543 44.6623 87.8072 43.9506 87.8072 43.0737C87.8072 42.1967 88.5543 41.485 89.4748 41.485C90.3954 41.485 91.1425 42.1967 91.1425 43.0737ZM93.5745 41.154C93.5745 42.031 92.8273 42.7427 91.9068 42.7427C90.9863 42.7427 90.2391 42.031 90.2391 41.154C90.2391 40.2771 90.9863 39.5654 91.9068 39.5654C92.8273 39.5654 93.5745 40.2771 93.5745 41.154ZM102.608 46.9791C102.608 47.8561 101.86 48.5678 100.94 48.5678C100.019 48.5678 99.2723 47.8561 99.2723 46.9791C99.2723 46.1022 100.019 45.3905 100.94 45.3905C101.86 45.3905 102.608 46.1022 102.608 46.9791ZM105.04 45.0595C105.04 45.9364 104.292 46.6482 103.372 46.6482C102.451 46.6482 101.704 45.9364 101.704 45.0595C101.704 44.1826 102.451 43.4708 103.372 43.4708C104.292 43.4708 105.04 44.1826 105.04 45.0595ZM85.4446 50.4874C85.931 50.1565 86.8344 52.0761 88.5715 52.0761C89.4862 52.0761 92.3476 50.7957 94.5229 48.7388C96.4786 46.8895 97.8131 44.3236 97.8131 43.0075C97.8131 41.6174 97.0488 39.6978 97.0488 39.6978C97.0488 39.6978 100.662 40.2935 100.662 39.4992C100.662 38.7048 98.7164 37.6457 98.7164 36.3219C98.7164 34.998 102.816 37.7119 102.816 39.6978C102.816 41.6836 100.801 41.6836 99.9671 42.4117C99.1333 43.1399 99.9671 46.9791 95.659 50.9508C91.3509 54.9224 88.5715 54.5915 86.9039 52.9366C85.2362 51.2818 84.4718 51.2818 85.4446 50.4874ZM105.457 48.3692C106.985 46.1848 110.737 42.4117 110.737 38.1091C108.685 39.2382 104.831 41.3526 104.831 35.7261C104.831 30.0996 110.598 34.9318 112.475 34.9318C114.629 34.9318 138.323 25.9293 137.489 24.4731C136.656 23.0168 122.619 31.2249 116.435 31.2249C110.251 31.2249 114.455 26.0286 120.049 20.7C121.542 19.2768 121.855 21.0972 119.979 22.8844C118.103 24.6717 114.837 28.2461 116.018 28.9743C117.2 29.7024 132.07 21.9577 136.864 21.9577C141.659 21.9577 141.103 23.414 141.103 24.2745C141.103 25.135 139.782 26.5251 139.782 27.7166C139.782 28.9081 140.686 30.2982 142.492 30.2982C144.299 30.2982 145.55 29.1729 145.55 26.7237C145.55 24.2745 143.048 18.3832 142.979 17.1917C142.909 16.0002 146.106 16.0664 145.828 17.7213C145.55 19.3761 146.662 25.9294 146.662 27.849C146.662 29.7686 145.721 33.2583 142.423 32.4164C139.125 31.5745 138.462 28.6433 138.74 27.2532C134.571 29.5038 120.743 36.5866 112.266 36.5866C112.266 41.485 113.586 43.6694 105.457 48.3692ZM151.178 16.0664C149.858 17.2579 150.761 27.3856 150.9 29.3053C152.637 26.2603 151.734 18.2508 151.178 16.0664ZM165.284 20.1705C165.284 25.9955 163.199 27.2532 170.078 31.4235C176.957 35.5937 180.154 36.5866 184.531 36.5866C188.909 36.5866 191.827 27.3856 192.453 26.4589C193.078 25.5322 194.468 27.518 193.147 29.1729C191.827 30.8277 191.758 30.4306 190.368 33.4093C188.978 36.388 188.909 38.1091 184.114 38.1091C179.32 38.1091 173.066 36.7852 168.48 33.4755C163.894 30.1658 163.686 27.849 163.686 26.3927C162.296 27.7828 160.42 28.1138 158.683 26.1941C156.945 24.2745 157.432 23.2154 160.628 23.2154C163.824 23.2154 163.963 22.8182 164.519 21.4943C165.075 20.1705 165.145 19.5085 165.284 20.1705ZM156.39 18.3832C156.459 17.3903 158.405 17.0593 159.238 17.0593C160.072 17.0593 159.655 18.0522 160.489 18.0522C161.323 18.0522 162.018 17.3903 162.643 17.3903C163.269 17.3903 163.825 17.7875 163.825 18.648C163.825 19.5085 162.852 20.369 161.879 20.2366C160.906 20.1043 160.906 19.1775 159.933 19.1775C158.96 19.1775 159.03 19.7733 157.988 19.7733C156.945 19.7733 156.32 19.4423 156.39 18.3832ZM179.945 27.0878C182.968 27.0878 184.601 27.187 185.261 27.0547C185.921 26.9223 183.906 28.3785 180.084 28.3123C176.262 28.2462 174.421 26.6906 175.359 26.3596C176.297 26.0286 176.575 27.0878 179.945 27.0878ZM203.292 39.8301C203.292 43.3384 201.972 46.251 195.024 46.251C188.075 46.251 186.06 40.8893 187.172 41.3526C188.283 41.816 190.229 44.9271 195.857 44.9271C199.332 44.9271 200.999 44.3976 200.374 43.537C199.749 42.6765 197.664 43.1399 197.664 40.0949C197.664 37.05 199.401 37.05 200.93 37.05C202.459 37.05 203.223 38.1753 203.292 39.8301ZM210.38 45.589C211.978 45.589 212.187 47.9059 212.187 49.6931C212.187 51.4803 211.422 55.121 208.156 55.121C204.891 55.121 201.486 52.0099 201.486 50.5536C201.486 49.0973 202.389 48.8326 202.945 48.8326C203.501 48.8326 205.099 52.9366 208.156 52.9366C211.214 52.9366 210.102 51.4141 210.102 49.8255C210.102 48.2368 208.99 48.5678 208.99 47.5087C208.99 46.4496 208.99 45.5229 210.38 45.589ZM215.8 43.0737C215.8 43.4708 207.323 42.9413 206.628 41.9484C205.933 40.9555 209.685 42.3455 212.117 42.3455C214.549 42.3455 216.564 42.2793 215.8 43.0737Z" fill="black"/>
</svg>
