<svg width="300" height="300" viewBox="0 0 300 300" fill="none" xmlns="http://www.w3.org/2000/svg">
<path fill-rule="evenodd" clip-rule="evenodd" d="M230.794 17.9072L44.3949 144.87C34.0229 153.21 31.436 216.623 80.6198 244.4L251.253 132.458C240.524 113.176 214.24 78.1445 256.117 50.6151C247.676 41.3501 239.235 30.9114 230.794 17.9072Z" fill="white"/>
<path fill-rule="evenodd" clip-rule="evenodd" d="M250.843 132.869L80.207 245.095L127.46 266.096L150.758 285.785C154.016 280.029 163.307 272.933 174.385 265.44C245.273 238.111 280.449 202.24 250.843 132.869Z" fill="#ED1C24"/>
<path fill-rule="evenodd" clip-rule="evenodd" d="M68.8337 18.7977L44.5789 51.3151C44.5789 51.3151 64.9411 60.9973 66.968 84.3657C68.1008 97.426 43.7793 145.136 43.7793 145.136L222.892 23.3288C215.217 25.8072 211.763 29.4368 197.038 29.9922C197.828 23.5997 197.766 17.5857 192.24 14C164.412 26.6319 136.998 25.6082 109.88 14.7996C102.95 17.3274 103.278 23.8144 104.017 30.5253C87.9207 28.8002 79.7557 23.1097 68.8337 18.7977Z" fill="#ED1C24"/>
<path d="M112.373 15.3286C106.421 13.6726 99.5381 21.1611 103.654 30.2108C87.4198 29.5213 79.8746 22.758 68.8325 17.7421C60.5469 30.8963 52.2612 42.5536 43.9756 51.0549C43.9756 51.0549 66.84 68.8648 67.2435 82.0787C68.2249 114.223 23.1084 150.139 43.1291 201.292C62.2186 250.067 114.636 258.397 126.309 265.827C146.048 278.391 149.048 286.039 150 286.157C150.561 286.227 155.049 276.91 173.691 265.827C183.095 260.236 237.781 250.067 256.871 201.292C276.892 150.139 231.775 114.223 232.757 82.0787C233.16 68.8648 256.024 51.0549 256.024 51.0549C247.739 42.5536 239.453 30.8963 231.168 17.7421C220.125 22.758 212.58 29.5213 196.346 30.2108C200.462 21.1611 196.03 11.9071 188.426 15.0621C160.12 26.8076 140.412 23.1295 112.373 15.3286Z" stroke="black" stroke-width="2.63806"/>
<path d="M109.452 23.1899C114.54 21.8274 119.409 30.9213 104.902 30.8901" stroke="black" stroke-width="1.31903"/>
<path d="M190.548 23.1899C185.46 21.8274 180.592 30.9213 195.098 30.8901" stroke="black" stroke-width="1.31903"/>
<path d="M148.568 75.3828L146.837 78.2656C145.885 79.8513 143.579 82.2316 141.72 83.5506C139.86 84.8697 137.619 86.8337 136.727 87.9159L135.096 89.8789L136.827 89.4259C137.775 89.1754 139.01 88.7741 139.578 88.5337C140.147 88.2932 140.612 88.4269 140.612 88.8357C140.612 88.8466 140.613 88.8655 140.612 88.8769C140.609 88.8999 140.605 88.9346 140.599 88.9592C140.349 89.9761 137.378 92.3064 135.021 93.2833C132.766 94.2184 129.421 96.6597 128.983 97.6349C128.972 97.6591 128.965 97.695 128.958 97.7173C128.955 97.7282 128.947 97.748 128.946 97.7585C128.944 97.7688 128.946 97.7899 128.946 97.7997C128.945 97.8028 128.946 97.8102 128.946 97.8134C128.945 97.816 128.945 97.8245 128.946 97.8271C128.946 97.8298 128.945 97.8382 128.946 97.8408C128.946 97.8433 128.945 97.8521 128.946 97.8546C128.948 97.8646 128.954 97.8862 128.958 97.8957C128.961 97.9027 128.966 97.9164 128.97 97.9232C128.972 97.9254 128.981 97.9348 128.983 97.9369C128.986 97.9413 128.991 97.9464 128.995 97.9507C128.997 97.9528 129.006 97.9624 129.008 97.9644C129.016 97.9723 129.035 97.9844 129.045 97.9918C129.309 98.1763 130.036 98.2043 130.875 98.0193C132.347 97.6947 132.954 97.8962 133.44 98.8979C134.184 100.43 133.757 101.122 132.045 101.122C129.975 101.122 127.028 103.201 126.629 104.952C126.362 106.125 125.233 107.083 122.807 108.191C118.847 110.001 113.736 113.456 113.382 114.52C113.373 114.549 113.371 114.59 113.37 114.616C113.37 116.123 116.705 116.018 121.537 114.355C122.621 113.982 123.098 114.362 123.915 116.222C124.927 118.524 124.911 118.581 122.558 121.617C120.915 123.737 119.471 124.83 117.902 125.158C114.775 125.812 113.804 126.447 109.746 130.498C107.805 132.437 105.856 134.041 105.414 134.054C105.24 134.059 105.125 134.085 105.065 134.136C105.063 134.138 105.054 134.148 105.053 134.15C105.051 134.152 105.042 134.162 105.04 134.164C105.039 134.166 105.029 134.175 105.028 134.177C105.027 134.179 105.029 134.189 105.028 134.191C105.027 134.193 105.016 134.202 105.015 134.205C105.015 134.207 105.016 134.216 105.015 134.218C105.015 134.221 105.016 134.23 105.015 134.232C105.015 134.235 105.015 134.243 105.015 134.246C105.015 134.251 105.015 134.268 105.015 134.273C105.016 134.276 105.015 134.284 105.015 134.287C105.018 134.298 105.024 134.317 105.028 134.328C105.03 134.334 105.038 134.35 105.04 134.356C105.043 134.362 105.049 134.377 105.053 134.383C105.379 134.984 107.521 136.168 108.725 136.168C109.607 136.168 111.756 135.16 113.494 133.93C116.544 131.772 116.695 131.74 117.927 132.969C118.628 133.67 119.209 135.027 119.209 135.976C119.209 137.421 118.432 138.081 114.428 140.121C111.465 141.631 107.986 144.225 105.264 146.944C101.607 150.598 100.569 151.272 99.0139 151.021C98.0322 150.862 97.4832 150.796 97.3082 150.897C97.3027 150.901 97.288 150.906 97.2833 150.911C97.2812 150.914 97.2727 150.923 97.2709 150.925C97.2692 150.927 97.2599 150.936 97.2585 150.938C97.252 150.952 97.2472 150.977 97.2461 150.993C97.245 151.18 97.5753 151.562 98.1674 152.215C98.7282 152.833 100.029 153.341 101.056 153.341C103.857 153.341 112.709 150.041 115.437 147.987C117.969 146.08 120.43 145.712 122.471 146.916C125.628 148.779 120.349 152.53 110.406 155.496C106.749 156.587 103.58 157.648 103.173 157.912C103.167 157.916 103.152 157.922 103.148 157.926C103.146 157.927 103.137 157.937 103.135 157.939C103.134 157.941 103.124 157.951 103.123 157.953C103.122 157.954 103.124 157.965 103.123 157.967C102.981 158.202 103.191 158.823 103.621 159.394C104.659 160.773 109.883 160.84 114.341 159.518C116.125 158.989 120.568 157.191 124.214 155.537C130.828 152.537 130.852 152.542 133.166 153.752C138.543 156.565 138.046 161.488 131.585 169.58C128.771 173.104 126.275 174.676 121.737 175.785C120.058 176.195 116.607 179.446 116.607 180.617C116.607 180.733 116.63 180.824 116.657 180.905H117.815C118.069 180.719 118.329 180.452 118.587 180.109C120.017 178.209 122.902 176.941 125.82 176.924C128.991 176.906 132.876 175.165 135.793 172.449C138.357 170.063 140.932 169.352 142.878 170.5C143.956 171.136 144.937 171.199 146.24 170.706C148.556 169.828 149.701 170.252 149.701 171.982C149.701 172.76 150.516 173.804 151.631 174.44C152.696 175.047 154.598 176.534 155.852 177.748C156.806 178.672 157.502 179.094 157.869 179.093C157.883 179.093 157.905 179.095 157.918 179.093C157.928 179.092 157.947 179.096 157.956 179.093C157.962 179.092 157.975 179.081 157.981 179.079C157.986 179.077 158 179.068 158.005 179.066C158.021 179.058 158.042 179.049 158.055 179.038C158.057 179.037 158.066 179.026 158.068 179.025C158.07 179.022 158.078 179.013 158.08 179.011C158.082 179.008 158.091 178.999 158.092 178.997C158.094 178.995 158.103 178.985 158.105 178.983C158.11 178.976 158.113 178.964 158.117 178.956C158.12 178.951 158.127 178.935 158.13 178.929C158.132 178.922 158.14 178.907 158.142 178.901C158.145 178.892 158.152 178.87 158.154 178.86C158.157 178.846 158.153 178.821 158.154 178.805C158.192 178.399 157.877 177.581 157.146 176.43C156.716 175.754 156.498 175.08 156.561 174.742C156.564 174.726 156.568 174.701 156.573 174.687C156.575 174.682 156.583 174.665 156.586 174.66C156.587 174.657 156.584 174.649 156.586 174.646C156.587 174.643 156.597 174.634 156.598 174.632C156.605 174.62 156.614 174.601 156.623 174.591C156.625 174.59 156.634 174.579 156.635 174.577C156.641 174.572 156.654 174.568 156.66 174.563C156.662 174.562 156.67 174.552 156.673 174.55C156.678 174.547 156.691 174.539 156.697 174.536C157.102 174.38 159.245 174.459 161.591 174.728C165.716 175.201 166.216 175.449 168.65 178.27C169.852 179.663 170.839 180.538 171.638 180.906H173.294C173.647 180.747 173.896 180.516 173.954 180.288C173.955 180.281 173.966 180.267 173.966 180.26C173.967 180.251 173.965 180.228 173.966 180.219C173.966 180.213 173.966 180.198 173.966 180.192C173.966 180.185 173.966 180.171 173.966 180.164C173.966 180.163 173.966 180.152 173.966 180.151C173.965 180.147 173.967 180.14 173.966 180.137C173.824 179.663 171.382 177.339 168.45 174.893C161.788 169.333 160.767 167.302 160.743 159.601C160.729 154.995 160.948 153.816 162.026 152.627C163.705 150.776 164.627 150.821 168.749 152.97C171.862 154.594 172.829 154.73 179.905 154.577C187.504 154.412 187.727 154.46 191.546 156.704C193.687 157.962 196.303 159.647 197.373 160.452C199.736 162.228 202.136 162.353 202.702 160.726C203.371 158.805 198.878 155.078 190.438 150.582C182.045 146.11 181.166 144.86 185.035 142.826C187.235 141.669 187.387 141.691 190.874 143.636C193.669 145.195 194.947 145.53 196.738 145.16L199.029 144.679L193.987 140.547C191.214 138.275 188.532 135.865 188.023 135.18C186.55 133.199 183.702 131.885 180.901 131.885C179.588 131.885 178.362 131.633 178.025 131.322C178.014 131.312 177.996 131.292 177.988 131.281C177.985 131.278 177.977 131.27 177.976 131.267C177.972 131.262 177.966 131.245 177.964 131.24C177.176 129.834 179.549 129.167 186.169 128.906C195.088 128.555 196.315 127.516 190.165 125.529C187.71 124.736 184.031 123.732 181.985 123.292C179.491 122.755 178.109 122.169 177.765 121.493C177.727 121.416 177.701 121.326 177.69 121.246C177.683 121.187 177.683 121.115 177.69 121.054C177.72 120.825 177.857 120.582 178.088 120.327C178.507 119.865 180.508 119.916 183.915 120.491C187.734 121.136 189.825 121.28 190.203 120.835C190.596 120.322 188.836 119.046 184.949 116.895C181.407 114.935 176.937 111.764 174.901 109.757C172.884 107.767 169.887 105.505 168.252 104.732C166.095 103.713 165.396 103.021 165.675 102.22C166.161 100.823 169.556 100.809 171.751 102.193C172.643 102.755 174.98 103.209 176.943 103.195L180.516 103.167L178.151 102.206C175.788 101.248 169.36 96.6766 168.862 95.6448C168.853 95.6244 168.842 95.5935 168.837 95.5762C168.836 95.5694 168.838 95.5549 168.837 95.5487C168.837 95.5469 168.837 95.5368 168.837 95.535C168.838 95.5331 168.837 95.5231 168.837 95.5213C168.838 95.5194 168.849 95.5093 168.849 95.5075C168.852 95.504 168.859 95.4972 168.861 95.4938C168.863 95.4921 168.872 95.4818 168.873 95.4801C169.136 95.2859 170.618 95.2029 172.397 95.3016L175.97 95.5075L170.828 91.5403C167.055 88.6334 164.73 87.3821 162.075 86.8181C160.085 86.3954 157.804 85.8931 157.008 85.7062C154.875 85.2056 151.294 81.4729 149.836 78.2247L148.568 75.3828ZM136.852 95.3974C136.929 95.3946 137.015 95.3974 137.101 95.3974C137.764 95.3974 138.245 95.559 138.445 95.8092C138.45 95.815 138.466 95.8307 138.47 95.8366C138.474 95.8427 138.479 95.858 138.483 95.8641C138.504 95.9011 138.523 95.9472 138.532 95.9876C138.535 95.9978 138.543 96.0184 138.545 96.0288C138.546 96.0427 138.544 96.0695 138.545 96.0837C138.545 96.0944 138.546 96.114 138.545 96.1249C138.543 96.1432 138.536 96.1748 138.532 96.1935C138.53 96.2049 138.523 96.2232 138.52 96.2347C138.381 96.6928 137.635 97.5282 136.852 98.1016C136.253 98.54 135.895 98.7786 135.694 98.7468C135.68 98.7439 135.656 98.7387 135.644 98.7331C135.638 98.7299 135.625 98.7231 135.619 98.7194C135.608 98.7112 135.591 98.6892 135.582 98.6782C135.445 98.5123 135.42 98.0666 135.42 97.278C135.42 95.8345 135.685 95.4399 136.852 95.3974ZM154.195 97.1819C154.211 97.1817 154.217 97.1819 154.233 97.1819C155.245 97.1819 155.925 97.6552 156.063 98.4448C156.234 99.4228 155.828 99.694 154.233 99.694C153.336 99.694 152.816 99.6007 152.564 99.3509C152.378 99.1565 152.342 98.8651 152.415 98.4448C152.551 97.6675 153.21 97.1961 154.195 97.1819ZM149.116 97.6075C149.995 97.539 150.348 98.0593 150.348 99.1724C150.348 100.512 149.836 100.93 147.422 101.547C145.9 101.937 144.504 102.116 144.21 101.973C144.203 101.969 144.191 101.963 144.185 101.959C144.183 101.958 144.174 101.947 144.173 101.945C143.337 101.024 144.069 99.8419 146.152 98.7468C147.492 98.0424 148.453 97.659 149.116 97.6075ZM160.807 97.6212C162.095 97.5786 162.258 98.1874 161.628 99.996C161.412 100.618 160.515 101.122 159.636 101.122C158.351 101.122 158.075 100.811 158.242 99.5156C158.39 98.3632 158.957 97.8382 160.234 97.6761C160.446 97.6493 160.636 97.6269 160.807 97.6212ZM141.085 101.122C141.129 101.118 141.18 101.122 141.222 101.122C142.785 101.122 141.81 104.069 139.802 105.418C138.015 106.62 136.115 107.136 135.582 106.668C135.579 106.665 135.571 106.656 135.569 106.654C135.535 106.619 135.503 106.574 135.482 106.53C135.479 106.524 135.472 106.509 135.47 106.503C135.466 106.493 135.46 106.471 135.457 106.462C135.456 106.455 135.446 106.441 135.445 106.434C135.443 106.424 135.446 106.404 135.445 106.393C135.443 106.375 135.433 106.343 135.432 106.324C135.433 106.321 135.432 106.315 135.432 106.311C135.476 104.701 139.238 101.281 141.085 101.122ZM155.764 107.944C156.509 107.854 156.981 108.671 156.723 110.168C156.579 111.002 155.835 111.577 154.718 111.719C153.865 111.828 153.339 111.79 153.137 111.555C153.135 111.552 153.126 111.543 153.125 111.541C153.116 111.529 153.107 111.512 153.1 111.5C153.097 111.494 153.09 111.477 153.087 111.472C153.086 111.469 153.076 111.461 153.075 111.458C153.069 111.444 153.067 111.418 153.063 111.403C152.963 111.004 153.373 110.261 154.283 109.056C154.809 108.359 155.332 107.996 155.764 107.944ZM149.925 108.274C149.961 108.271 149.994 108.274 150.024 108.274C151.52 108.274 151.762 109.59 150.41 110.388C149.787 110.756 149.181 111.031 148.979 111.06C148.972 111.061 148.959 111.074 148.954 111.074C148.949 111.074 148.933 111.061 148.929 111.06C148.816 111.021 147.991 110.755 147.098 110.456L145.48 109.907L147.31 109.084C148.252 108.663 149.382 108.316 149.925 108.274ZM162.512 109.921C163.219 109.883 163.984 110.021 164.729 110.333C166.08 110.899 166.343 111.39 166.086 112.872C165.737 114.885 164.638 115.111 160.881 113.916C159.036 113.328 158.846 113.046 159.437 111.829C160.001 110.668 161.163 109.992 162.512 109.921ZM134.648 110.415C134.69 110.415 134.729 110.415 134.772 110.415C137.506 110.415 137.883 110.89 136.553 112.639C136.107 113.225 135.26 114.118 134.66 114.616C133.744 115.377 133.463 115.296 132.88 114.094C132.185 112.664 131.969 111.723 132.307 111.156C132.62 110.651 133.387 110.428 134.648 110.415ZM127.451 111.623C128.617 111.592 129.336 112.142 130.265 113.737L131.573 115.988L129.618 116.743C127.834 117.429 127.533 117.3 126.057 115.22C125.126 113.909 124.77 113.039 125.023 112.488C125.047 112.439 125.078 112.381 125.111 112.337C125.119 112.326 125.139 112.306 125.148 112.296C125.157 112.285 125.175 112.265 125.185 112.255C125.519 111.921 126.191 111.739 127.215 111.651C127.297 111.643 127.374 111.625 127.451 111.623ZM170.506 118.363C171.801 118.259 173.123 119.171 172.934 120.642C172.693 122.511 170.652 123.051 168.974 121.699C167.973 120.891 167.936 120.592 168.713 119.42C169.158 118.749 169.827 118.418 170.506 118.363ZM146.065 121.864C146.113 121.861 146.165 121.864 146.215 121.864C146.324 121.864 146.426 121.887 146.513 121.919C146.568 121.94 146.629 121.967 146.675 122.001C146.688 122.011 146.713 122.031 146.725 122.042C146.731 122.048 146.744 122.064 146.75 122.07C146.756 122.076 146.769 122.091 146.775 122.097C146.78 122.103 146.794 122.118 146.8 122.125C146.997 122.379 147.066 122.816 146.986 123.415C146.729 125.341 145.454 125.906 144.907 124.335C144.419 122.932 144.893 121.939 146.065 121.864ZM137.897 123.346C138.446 123.272 139.348 123.637 140.251 124.39C140.864 124.901 141.119 125.398 141.11 125.762C141.108 125.796 141.103 125.841 141.097 125.872C141.093 125.892 141.09 125.922 141.085 125.941C141.08 125.956 141.066 125.982 141.06 125.996C141.051 126.017 141.034 126.045 141.023 126.064C141.019 126.071 141.014 126.086 141.01 126.092C141.006 126.098 140.99 126.113 140.985 126.119C140.965 126.146 140.936 126.179 140.911 126.202C140.905 126.207 140.892 126.224 140.886 126.229C140.511 126.519 139.716 126.451 138.807 125.749C138.055 125.168 137.431 124.41 137.375 124.019C137.374 124.013 137.375 123.998 137.375 123.992C137.374 123.985 137.375 123.97 137.375 123.964C137.375 123.592 137.568 123.391 137.897 123.346ZM150.883 123.621C151.137 123.599 151.4 123.847 151.842 124.335C152.397 124.947 153.049 126.119 153.286 126.943C153.856 128.923 152.956 129.75 151.195 128.851C149.304 127.886 148.844 126.357 149.937 124.637C150.355 123.98 150.614 123.644 150.883 123.621ZM155.416 126.311C155.896 126.246 156.548 126.965 156.71 128.178C156.805 128.886 156.707 129.489 156.486 129.675C156.484 129.676 156.476 129.687 156.474 129.688C156.467 129.693 156.456 129.698 156.449 129.702C156.44 129.707 156.421 129.712 156.412 129.716C156.409 129.717 156.401 129.729 156.399 129.73C156.397 129.73 156.389 129.729 156.387 129.73C156.382 129.731 156.367 129.729 156.362 129.73C156.359 129.73 156.352 129.729 156.35 129.73C156.347 129.73 156.34 129.73 156.337 129.73C155.411 129.73 154.88 128.894 154.88 127.41C154.88 126.7 155.117 126.352 155.416 126.311ZM126.953 129.167C127.907 129.166 128.743 129.218 129.294 129.331C130.203 129.52 130.808 129.779 131.099 130.087C131.161 130.153 131.216 130.234 131.249 130.306C131.264 130.342 131.278 130.392 131.286 130.43C131.301 130.505 131.3 130.596 131.286 130.677C131.178 131.234 130.378 131.913 128.896 132.695C127.666 133.343 125.586 134.09 124.264 134.342C122.069 134.76 121.768 134.605 120.852 132.654C120.31 131.497 119.87 130.396 119.856 130.183C119.856 130.18 119.856 130.172 119.856 130.169C119.857 130.164 119.855 130.147 119.856 130.141C119.857 130.139 119.868 130.13 119.869 130.128C119.872 130.122 119.877 130.105 119.881 130.1C119.883 130.098 119.891 130.089 119.894 130.087C120.352 129.612 124.155 129.17 126.953 129.167ZM171.103 135.591C173.66 135.478 175.039 137.207 172.261 139.352C170.474 140.733 167.85 140.788 166.223 139.476C165.052 138.532 165.112 138.397 167.244 136.964C168.592 136.058 169.962 135.642 171.103 135.591ZM180.416 137.609C180.462 137.604 180.512 137.609 180.553 137.609C180.931 137.608 181.803 138.053 182.496 138.611C183.729 139.606 183.725 139.672 182.184 141.48C181.387 142.416 180.574 143.15 180.292 143.21C180.289 143.21 180.281 143.21 180.28 143.21C180.277 143.21 180.27 143.21 180.268 143.21C180.266 143.21 180.258 143.21 180.256 143.21C180.255 143.21 180.246 143.21 180.244 143.21C180.039 143.147 178.914 142.97 177.754 142.812C176.464 142.635 175.65 142.115 175.65 141.48C175.65 141.452 175.657 141.415 175.662 141.384C175.867 140.315 179.06 137.776 180.418 137.609H180.416ZM133.59 140.464C133.708 140.458 133.85 140.464 134 140.464C135.758 140.464 136.727 141.911 136.727 144.541C136.727 148.076 134.572 147.792 133.577 144.13C132.711 140.941 132.624 140.519 133.59 140.464ZM146.974 141.467C148.034 141.433 150.599 142.024 150.933 142.427C150.935 142.429 150.944 142.439 150.946 142.441C150.947 142.443 150.957 142.453 150.958 142.455C150.959 142.457 150.957 142.467 150.958 142.469C150.959 142.471 150.97 142.48 150.97 142.482C150.971 142.484 150.97 142.494 150.97 142.496C150.971 142.498 150.97 142.508 150.97 142.51C150.97 142.512 150.971 142.521 150.97 142.524C150.937 142.797 150.251 143.911 149.427 145.022L147.908 147.067L147.111 144.432C146.717 143.117 146.475 141.933 146.526 141.631C146.526 141.629 146.525 141.62 146.526 141.618C146.527 141.613 146.537 141.608 146.538 141.604C146.539 141.602 146.537 141.592 146.538 141.59C146.54 141.587 146.549 141.579 146.55 141.576C146.554 141.573 146.559 141.565 146.563 141.563C146.565 141.561 146.573 141.55 146.575 141.549C146.577 141.548 146.585 141.55 146.588 141.549C146.59 141.548 146.598 141.536 146.6 141.535C146.605 141.533 146.619 141.524 146.625 141.521C146.704 141.491 146.826 141.471 146.974 141.467ZM140.462 142.633C140.654 142.614 140.955 142.664 141.371 142.729C142.206 142.86 142.974 143.554 143.102 144.294C143.257 145.193 143.171 145.821 142.952 146.148C142.935 146.172 142.909 146.209 142.89 146.23C142.868 146.254 142.839 146.279 142.815 146.298C142.806 146.305 142.787 146.32 142.778 146.326C142.735 146.354 142.677 146.381 142.629 146.394C142.608 146.4 142.576 146.405 142.554 146.408C142.517 146.412 142.468 146.412 142.43 146.408C141.997 146.353 141.436 145.816 140.948 144.775C140.385 143.574 140.126 143.005 140.226 142.77C140.234 142.754 140.251 142.729 140.263 142.716C140.307 142.673 140.372 142.642 140.462 142.633Z" fill="#00A651"/>
</svg>
