<svg width="300" height="300" viewBox="0 0 300 300" fill="none" xmlns="http://www.w3.org/2000/svg">
<path d="M150 295C230.081 295 295 230.081 295 150C295 69.9187 230.081 5 150 5C69.9187 5 5 69.9187 5 150C5 230.081 69.9187 295 150 295Z" fill="#0F7562"/>
<mask id="mask0_186_12916" style="mask-type:luminance" maskUnits="userSpaceOnUse" x="110" y="150" width="80" height="66">
<path d="M110.125 150H189.875V215.25H110.125V150Z" fill="white"/>
</mask>
<g mask="url(#mask0_186_12916)">
<path d="M112.66 213.8C144.693 213.8 170.66 187.832 170.66 155.8C170.66 123.767 144.693 97.7998 112.66 97.7998C80.6276 97.7998 54.6602 123.767 54.6602 155.8C54.6602 187.832 80.6276 213.8 112.66 213.8Z" fill="white"/>
<path d="M187.336 213.8C219.368 213.8 245.336 187.832 245.336 155.8C245.336 123.767 219.368 97.7998 187.336 97.7998C155.303 97.7998 129.336 123.767 129.336 155.8C129.336 187.832 155.303 213.8 187.336 213.8Z" fill="white"/>
</g>
<path d="M110.125 208C142.158 208 168.125 182.033 168.125 150C168.125 117.967 142.158 92 110.125 92C78.0925 92 52.125 117.967 52.125 150C52.125 182.033 78.0925 208 110.125 208Z" fill="#0F7562"/>
<path d="M189.875 208C221.908 208 247.875 182.033 247.875 150C247.875 117.967 221.908 92 189.875 92C157.842 92 131.875 117.967 131.875 150C131.875 182.033 157.842 208 189.875 208Z" fill="#0F7562"/>
<mask id="mask1_186_12916" style="mask-type:luminance" maskUnits="userSpaceOnUse" x="63" y="72" width="117" height="117">
<path d="M121.723 188.426C153.755 188.426 179.723 162.458 179.723 130.426C179.723 98.3933 153.755 72.4258 121.723 72.4258C89.6901 72.4258 63.7227 98.3933 63.7227 130.426C63.7227 162.458 89.6901 188.426 121.723 188.426Z" fill="white"/>
</mask>
<g mask="url(#mask1_186_12916)">
<path d="M178.273 188.426C210.306 188.426 236.273 162.458 236.273 130.426C236.273 98.3933 210.306 72.4258 178.273 72.4258C146.241 72.4258 120.273 98.3933 120.273 130.426C120.273 162.458 146.241 188.426 178.273 188.426Z" fill="white"/>
</g>
<mask id="mask2_186_12916" style="mask-type:luminance" maskUnits="userSpaceOnUse" x="56" y="77" width="117" height="117">
<path d="M114.473 193.863C146.505 193.863 172.473 167.896 172.473 135.863C172.473 103.831 146.505 77.8633 114.473 77.8633C82.4401 77.8633 56.4727 103.831 56.4727 135.863C56.4727 167.896 82.4401 193.863 114.473 193.863Z" fill="white"/>
</mask>
<g mask="url(#mask2_186_12916)">
<path d="M185.523 193.863C217.556 193.863 243.523 167.896 243.523 135.863C243.523 103.831 217.556 77.8633 185.523 77.8633C153.491 77.8633 127.523 103.831 127.523 135.863C127.523 167.896 153.491 193.863 185.523 193.863Z" fill="#0F7562"/>
</g>
<path d="M150.001 118.1C162.814 118.1 173.201 107.713 173.201 94.9002C173.201 82.0872 162.814 71.7002 150.001 71.7002C137.188 71.7002 126.801 82.0872 126.801 94.9002C126.801 107.713 137.188 118.1 150.001 118.1Z" fill="#0F7562"/>
<mask id="mask3_186_12916" style="mask-type:luminance" maskUnits="userSpaceOnUse" x="54" y="81" width="117" height="117">
<path d="M112.297 197.125C144.329 197.125 170.297 171.158 170.297 139.125C170.297 107.092 144.329 81.125 112.297 81.125C80.2644 81.125 54.2969 107.092 54.2969 139.125C54.2969 171.158 80.2644 197.125 112.297 197.125Z" fill="white"/>
</mask>
<g mask="url(#mask3_186_12916)">
<path d="M187.699 197.125C219.732 197.125 245.699 171.158 245.699 139.125C245.699 107.092 219.732 81.125 187.699 81.125C155.667 81.125 129.699 107.092 129.699 139.125C129.699 171.158 155.667 197.125 187.699 197.125Z" fill="white"/>
</g>
<mask id="mask4_186_12916" style="mask-type:luminance" maskUnits="userSpaceOnUse" x="49" y="87" width="117" height="117">
<path d="M107.953 203.648C139.986 203.648 165.953 177.681 165.953 145.648C165.953 113.616 139.986 87.6484 107.953 87.6484C75.9206 87.6484 49.9531 113.616 49.9531 145.648C49.9531 177.681 75.9206 203.648 107.953 203.648Z" fill="white"/>
</mask>
<g mask="url(#mask4_186_12916)">
<path d="M82.2164 280.136C119.855 280.136 150.366 249.624 150.366 211.986C150.366 174.348 119.855 143.836 82.2164 143.836C44.5782 143.836 14.0664 174.348 14.0664 211.986C14.0664 249.624 44.5782 280.136 82.2164 280.136Z" fill="white"/>
</g>
<mask id="mask5_186_12916" style="mask-type:luminance" maskUnits="userSpaceOnUse" x="53" y="82" width="117" height="117">
<path d="M111.578 198.574C143.611 198.574 169.578 172.607 169.578 140.574C169.578 108.542 143.611 82.5742 111.578 82.5742C79.5456 82.5742 53.5781 108.542 53.5781 140.574C53.5781 172.607 79.5456 198.574 111.578 198.574Z" fill="white"/>
</mask>
<g mask="url(#mask5_186_12916)">
<path d="M84.0289 286.299C121.667 286.299 152.179 255.787 152.179 218.149C152.179 180.511 121.667 149.999 84.0289 149.999C46.3907 149.999 15.8789 180.511 15.8789 218.149C15.8789 255.787 46.3907 286.299 84.0289 286.299Z" fill="#0F7562"/>
</g>
<path d="M63.0008 184.075C75.8138 184.075 86.2008 173.688 86.2008 160.875C86.2008 148.062 75.8138 137.675 63.0008 137.675C50.1878 137.675 39.8008 148.062 39.8008 160.875C39.8008 173.688 50.1878 184.075 63.0008 184.075Z" fill="#0F7562"/>
<mask id="mask6_186_12916" style="mask-type:luminance" maskUnits="userSpaceOnUse" x="49" y="87" width="117" height="117">
<path d="M107.953 203.648C139.986 203.648 165.953 177.681 165.953 145.648C165.953 113.616 139.986 87.6484 107.953 87.6484C75.9206 87.6484 49.9531 113.616 49.9531 145.648C49.9531 177.681 75.9206 203.648 107.953 203.648Z" fill="white"/>
</mask>
<g mask="url(#mask6_186_12916)">
<mask id="mask7_186_12916" style="mask-type:luminance" maskUnits="userSpaceOnUse" x="59" y="81" width="117" height="117">
<path d="M117.379 197.85C149.411 197.85 175.379 171.882 175.379 139.85C175.379 107.817 149.411 81.8496 117.379 81.8496C85.3464 81.8496 59.3789 107.817 59.3789 139.85C59.3789 171.882 85.3464 197.85 117.379 197.85Z" fill="white"/>
</mask>
<g mask="url(#mask7_186_12916)">
<path d="M89.1031 292.099C126.741 292.099 157.253 261.587 157.253 223.949C157.253 186.311 126.741 155.799 89.1031 155.799C51.4649 155.799 20.9531 186.311 20.9531 223.949C20.9531 261.587 51.4649 292.099 89.1031 292.099Z" fill="white"/>
</g>
<path d="M133.691 166.312L150.004 180.812H153.629V200.749H150.004L133.691 166.312Z" fill="white"/>
</g>
<path d="M142.516 139.311L150.001 150L155.346 146.258L142.516 139.311Z" fill="#FFDE23"/>
<path d="M142.516 139.311L150.001 150L144.656 153.743L142.516 139.311Z" fill="#FFDE23"/>
<path d="M157.855 139.576L150.002 149.998L155.213 153.925L157.855 139.576Z" fill="#FFDE23"/>
<path d="M157.855 139.576L150.002 149.998L144.791 146.072L157.855 139.576Z" fill="#FFDE23"/>
<path d="M149.777 163.047L150.005 149.999L143.481 149.885L149.777 163.047Z" fill="#FFDE23"/>
<path d="M149.777 163.047L150.005 149.999L156.529 150.113L149.777 163.047Z" fill="#FFDE23"/>
<path d="M162.34 154.25L150.001 150.001L147.876 156.171L162.34 154.25Z" fill="#FFDE23"/>
<path d="M162.34 154.25L150.001 150.001L152.125 143.832L162.34 154.25Z" fill="#FFDE23"/>
<path d="M137.523 153.815L150.003 150L148.095 143.76L137.523 153.815Z" fill="#FFDE23"/>
<path d="M137.523 153.815L150.003 150L151.911 156.24L137.523 153.815Z" fill="#FFDE23"/>
<path d="M138.176 144.484L150.003 150L152.761 144.086L138.176 144.484Z" fill="#FFDE23"/>
<path d="M138.176 144.484L150.003 150L147.246 155.913L138.176 144.484Z" fill="#FFDE23"/>
<path d="M151.594 137.047L150.003 150L156.48 150.795L151.594 137.047Z" fill="#FFDE23"/>
<path d="M151.594 137.047L150.003 150L143.527 149.204L151.594 137.047Z" fill="#FFDE23"/>
<path d="M156.328 161.413L150.001 149.999L144.294 153.163L156.328 161.413Z" fill="#FFDE23"/>
<path d="M156.328 161.413L150.001 149.999L155.708 146.836L156.328 161.413Z" fill="#FFDE23"/>
<path d="M162.812 147.51L150.002 150L151.247 156.405L162.812 147.51Z" fill="#FFDE23"/>
<path d="M162.812 147.51L150.002 150L148.757 143.595L162.812 147.51Z" fill="#FFDE23"/>
<path d="M141.102 159.544L150.002 150L145.23 145.55L141.102 159.544Z" fill="#FFDE23"/>
<path d="M141.102 159.544L150.002 150L154.774 154.45L141.102 159.544Z" fill="#FFDE23"/>
<mask id="mask8_186_12916" style="mask-type:luminance" maskUnits="userSpaceOnUse" x="134" y="87" width="117" height="117">
<path d="M192.047 203.648C160.014 203.648 134.047 177.681 134.047 145.648C134.047 113.616 160.014 87.6484 192.047 87.6484C224.079 87.6484 250.047 113.616 250.047 145.648C250.047 177.681 224.079 203.648 192.047 203.648Z" fill="white"/>
</mask>
<g mask="url(#mask8_186_12916)">
<path d="M217.784 280.136C180.145 280.136 149.634 249.624 149.634 211.986C149.634 174.348 180.145 143.836 217.784 143.836C255.422 143.836 285.934 174.348 285.934 211.986C285.934 249.624 255.422 280.136 217.784 280.136Z" fill="white"/>
</g>
<mask id="mask9_186_12916" style="mask-type:luminance" maskUnits="userSpaceOnUse" x="130" y="82" width="117" height="117">
<path d="M188.422 198.574C156.389 198.574 130.422 172.607 130.422 140.574C130.422 108.542 156.389 82.5742 188.422 82.5742C220.454 82.5742 246.422 108.542 246.422 140.574C246.422 172.607 220.454 198.574 188.422 198.574Z" fill="white"/>
</mask>
<g mask="url(#mask9_186_12916)">
<path d="M215.971 286.299C178.333 286.299 147.821 255.787 147.821 218.149C147.821 180.511 178.333 149.999 215.971 149.999C253.609 149.999 284.121 180.511 284.121 218.149C284.121 255.787 253.609 286.299 215.971 286.299Z" fill="#0F7562"/>
</g>
<path d="M236.999 184.075C224.186 184.075 213.799 173.688 213.799 160.875C213.799 148.062 224.186 137.675 236.999 137.675C249.812 137.675 260.199 148.062 260.199 160.875C260.199 173.688 249.812 184.075 236.999 184.075Z" fill="#0F7562"/>
<mask id="mask10_186_12916" style="mask-type:luminance" maskUnits="userSpaceOnUse" x="134" y="87" width="117" height="117">
<path d="M192.047 203.648C160.014 203.648 134.047 177.681 134.047 145.648C134.047 113.616 160.014 87.6484 192.047 87.6484C224.079 87.6484 250.047 113.616 250.047 145.648C250.047 177.681 224.079 203.648 192.047 203.648Z" fill="white"/>
</mask>
<g mask="url(#mask10_186_12916)">
<mask id="mask11_186_12916" style="mask-type:luminance" maskUnits="userSpaceOnUse" x="124" y="81" width="117" height="117">
<path d="M182.621 197.85C150.589 197.85 124.621 171.882 124.621 139.85C124.621 107.817 150.589 81.8496 182.621 81.8496C214.654 81.8496 240.621 107.817 240.621 139.85C240.621 171.882 214.654 197.85 182.621 197.85Z" fill="white"/>
</mask>
<g mask="url(#mask11_186_12916)">
<path d="M210.897 292.099C173.259 292.099 142.747 261.587 142.747 223.949C142.747 186.311 173.259 155.799 210.897 155.799C248.535 155.799 279.047 186.311 279.047 223.949C279.047 261.587 248.535 292.099 210.897 292.099Z" fill="white"/>
</g>
<path d="M166.309 166.312L149.996 180.812H146.371V200.749H149.996L166.309 166.312Z" fill="white"/>
</g>
<path d="M157.484 139.311L149.999 150L144.654 146.258L157.484 139.311Z" fill="#FFDE23"/>
<path d="M157.484 139.311L149.999 150L155.344 153.743L157.484 139.311Z" fill="#FFDE23"/>
<path d="M142.145 139.576L149.998 149.998L144.787 153.925L142.145 139.576Z" fill="#FFDE23"/>
<path d="M142.145 139.576L149.998 149.998L155.209 146.072L142.145 139.576Z" fill="#FFDE23"/>
<path d="M150.223 163.047L149.995 149.999L156.519 149.885L150.223 163.047Z" fill="#FFDE23"/>
<path d="M150.223 163.047L149.995 149.999L143.471 150.113L150.223 163.047Z" fill="#FFDE23"/>
<path d="M137.66 154.25L149.999 150.001L152.124 156.171L137.66 154.25Z" fill="#FFDE23"/>
<path d="M137.66 154.25L149.999 150.001L147.875 143.832L137.66 154.25Z" fill="#FFDE23"/>
<path d="M162.477 153.815L149.997 150L151.905 143.76L162.477 153.815Z" fill="#FFDE23"/>
<path d="M162.477 153.815L149.997 150L148.089 156.24L162.477 153.815Z" fill="#FFDE23"/>
<path d="M161.824 144.484L149.997 150L147.239 144.086L161.824 144.484Z" fill="#FFDE23"/>
<path d="M161.824 144.484L149.997 150L152.754 155.913L161.824 144.484Z" fill="#FFDE23"/>
<path d="M148.406 137.047L149.997 150L143.52 150.795L148.406 137.047Z" fill="#FFDE23"/>
<path d="M148.406 137.047L149.997 150L156.473 149.204L148.406 137.047Z" fill="#FFDE23"/>
<path d="M143.672 161.413L149.999 149.999L155.706 153.163L143.672 161.413Z" fill="#FFDE23"/>
<path d="M143.672 161.413L149.999 149.999L144.292 146.836L143.672 161.413Z" fill="#FFDE23"/>
<path d="M137.188 147.51L149.998 150L148.753 156.405L137.188 147.51Z" fill="#FFDE23"/>
<path d="M137.188 147.51L149.998 150L151.243 143.595L137.188 147.51Z" fill="#FFDE23"/>
<path d="M158.898 159.544L149.998 150L154.77 145.55L158.898 159.544Z" fill="#FFDE23"/>
<path d="M158.898 159.544L149.998 150L145.226 154.45L158.898 159.544Z" fill="#FFDE23"/>
<path d="M41.25 208H112.663V213.8H41.25V208ZM187.338 208H258.75V213.8H187.338V208ZM59.375 219.6H240.625V222.5H59.375V219.6ZM59.375 228.3H240.625V232.65H59.375V228.3ZM59.375 237H240.625V242.8H59.375V237ZM59.375 245.7H222.5V252.95H77.5L59.375 245.7Z" fill="white"/>
<path d="M150 273.25C218.069 273.25 273.25 218.069 273.25 150C273.25 81.9309 218.069 26.75 150 26.75C81.9309 26.75 26.75 81.9309 26.75 150C26.75 218.069 81.9309 273.25 150 273.25Z" stroke="white" stroke-width="31.9"/>
<path d="M150 131.149V149.999H159.425L150 131.149Z" fill="#FFDE23"/>
<path d="M150 131.149V149.999H140.575L150 131.149Z" fill="#FFDE23"/>
<path d="M167.926 144.175L149.998 150L152.911 158.963L167.926 144.175Z" fill="#FFDE23"/>
<path d="M167.926 144.175L149.998 150L147.086 141.036L167.926 144.175Z" fill="#FFDE23"/>
<path d="M138.914 165.249L149.994 149.999L142.369 144.459L138.914 165.249Z" fill="#FFDE23"/>
<path d="M138.914 165.249L149.994 149.999L157.619 155.539L138.914 165.249Z" fill="#FFDE23"/>
<path d="M161.078 165.25L149.998 150L142.373 155.54L161.078 165.25Z" fill="#FFDE23"/>
<path d="M161.078 165.25L149.998 150L157.623 144.46L161.078 165.25Z" fill="#FFDE23"/>
<path d="M132.07 144.174L149.998 149.999L152.91 141.035L132.07 144.174Z" fill="#FFDE23"/>
<path d="M132.07 144.174L149.998 149.999L147.085 158.963L132.07 144.174Z" fill="#FFDE23"/>
<path d="M141.562 141.646L150.797 138.935L151.584 141.614L150.141 142.038L151.897 148.019L159.228 145.867L159.973 148.403L152.642 150.555L154.581 157.159L156.024 156.735L156.768 159.271L147.533 161.983L144.849 152.844L140.789 154.036L140.351 151.618C140.212 150.671 140.482 150.522 141.161 151.172L144.105 150.308L141.562 141.646ZM148.559 158.927L152.753 157.695L150.814 151.092L146.619 152.323L148.559 158.927ZM145.875 149.787L150.069 148.556L148.313 142.575L144.118 143.806L145.875 149.787Z" fill="#0F7562" stroke="#0F7562" stroke-width="0.26468"/>
<path d="M148.975 143.013V138.201H150.6V143.013H152.746V139.074H154.35V148.474H155.814V140.27H157.378V148.474H159.985V150.793H157.438V159.246H155.814V150.793H154.35V160.617H152.746V156.328H150.6V161.564H148.976V156.279H146.83V159.296H145.226V139.921H146.83V143.013H148.975ZM148.975 153.81V150.793H146.83V153.81H148.975ZM148.975 148.474V145.357H146.83V148.474H148.975ZM152.745 153.81V150.793H150.6V153.81H152.745ZM152.745 148.474V145.357H150.6V148.474H152.745ZM143.621 146.579V152.539H145.025V154.882H143.621V161.141H141.937V154.932H140.012L140.272 152.663C140.446 151.849 140.714 151.807 141.075 152.539H141.937V146.579H140.072L140.333 144.485C140.466 143.587 140.734 143.537 141.135 144.335H141.937V138.126H143.621V144.335H145.025V146.579H143.621Z" fill="#0F7562" stroke="#0F7562" stroke-width="0.26468"/>
<path d="M141.215 146.047C141.666 145.175 141.948 145.258 142.061 146.296C145.522 147.416 148.793 147.571 151.873 146.76C155.194 145.414 158.178 143.319 160.825 140.475C160.944 140.354 161.048 140.402 161.137 140.619C161.274 141.387 161.48 142.157 161.754 142.931C161.844 143.148 161.786 143.347 161.579 143.529C159.317 145.585 156.759 147.276 153.903 148.604C152.495 149.126 151.078 149.515 149.651 149.772C151.231 150.894 152.636 152.442 153.868 154.414C155.146 157.371 155.894 159.877 156.112 161.934L156.006 162.293C155.249 162.833 154.63 163.422 154.15 164.061C154.011 164.106 153.922 164.054 153.882 163.904C153.753 160.643 152.723 157.413 150.793 154.213C148.81 151.95 145.269 150.01 140.171 148.391L141.215 146.047Z" fill="#0F7562" stroke="#0F7562" stroke-width="0.26468"/>
<path d="M149.704 140.886L147.241 139.303L139.598 151.197L142.061 152.78L149.704 140.886ZM150.12 149.512L147.189 148.102L143.562 153.745L146.279 155.49L150.12 149.512ZM151.441 158.808L154.203 151.246L155.671 152.486L151.949 163.433C152.289 164.264 152.081 164.624 151.326 164.514L149.416 164.147L150.471 161.356L136.722 152.52L147.264 136.117L152.662 139.586L148.577 145.942L151.523 147.331L155.756 140.744L157.308 141.742L153.291 147.993C154.584 148.33 155.753 148.488 156.798 148.469C158.323 148.124 159.456 147.697 160.198 147.185C160.876 146.475 160.55 145.228 159.217 143.443C159.247 143.324 159.335 143.223 159.484 143.14C160.1 143.022 160.716 142.855 161.332 142.638C161.467 142.626 161.568 142.642 161.636 142.685C162.434 143.792 162.911 144.868 163.064 145.915C163.031 146.981 162.439 148.013 161.288 149.012C159.872 149.979 158.218 150.586 156.327 150.834C155.001 150.771 153.53 150.538 151.915 150.132L147.831 156.488L151.441 158.808Z" fill="#0F7562" stroke="#0F7562" stroke-width="0.26468"/>
<path d="M148.971 143.446L146.095 140.127L148.372 138.605C149.167 138.075 149.373 138.313 148.989 139.317L151.025 141.666L154.888 138.319L156.096 139.713L152.233 143.061L155.555 146.894L160.21 142.861L161.405 144.24L143.371 159.867L142.176 158.488L147.019 154.291L143.697 150.457L139.758 153.87L138.55 152.476L142.488 149.063L139.613 145.744L141.871 144.238C142.615 143.752 142.821 143.99 142.488 144.95L144.524 147.299L148.971 143.446ZM145.732 148.694L149.054 152.528L153.501 148.674L150.179 144.84L145.732 148.694ZM156.084 149.408C159.603 148.748 162.386 148.494 164.433 148.649L164.068 151.008C161.381 150.877 158.624 151.108 155.795 151.702L156.084 149.408ZM151.33 155.04C152.019 154.921 152.135 155.183 151.68 155.825C151.369 158.588 150.737 161.082 149.783 163.306L147.341 163.459C148.57 160.943 149.173 158.263 149.149 155.418L151.33 155.04Z" fill="#0F7562" stroke="#0F7562" stroke-width="0.26468"/>
<path d="M161.998 153.899L161.223 152.203L156.71 154.264L157.709 156.452L155.486 157.468L148.539 142.255L157.566 138.132L164.289 152.853L161.998 153.899ZM156.033 140.838L151.52 142.899L155.985 152.677L160.498 150.615L156.033 140.838ZM138.813 152.891L138.08 151.286L143.16 148.966L141.919 146.248C140.706 146.993 139.461 147.687 138.183 148.329C137.654 148.012 137.082 147.7 136.467 147.394L136.513 147.196C139.904 145.456 142.789 143.492 145.17 141.302L147.136 142.124C147.573 142.322 147.298 142.601 146.313 142.963C145.132 143.899 144.35 144.528 143.967 144.85L145.383 147.951L149.171 146.221L149.904 147.826L146.298 149.473C148.11 150.718 149.888 151.391 151.632 151.49L150.897 153.48C149.738 153.465 148.612 153.178 147.516 152.621L151.04 160.337L148.817 161.352L145.018 153.033C144.682 154.818 143.954 156.826 142.834 159.057L142.563 159.181C142.059 158.999 141.411 158.92 140.618 158.944C140.565 158.91 140.52 158.85 140.481 158.765C141.753 156.347 142.558 153.768 142.896 151.027L138.813 152.891Z" fill="#0F7562" stroke="#0F7562" stroke-width="0.26468"/>
<path d="M142.853 160.721L140.434 161.069L137.703 142.073L159.299 138.968L162.021 157.904L159.726 158.234L159.626 157.54L142.745 159.967L142.853 160.721ZM159.392 155.912L157.24 140.946L140.359 143.373L142.511 158.339L159.392 155.912ZM142.961 152.886L142.298 148.281L149.037 147.312L149.699 151.917L142.961 152.886ZM147.543 150.768L147.272 148.882L144.508 149.28L144.779 151.166L147.543 150.768ZM150.416 154.103L144.576 156.057C144.116 156.947 143.671 157.011 143.243 156.248L142.766 154.858L150.431 152.804L150.416 154.103ZM156.721 144.87L151.785 145.58C152.242 147.594 152.833 149.427 153.558 151.078C154.066 149.587 154.459 148.058 154.737 146.492L156.641 146.765C157.5 147.02 157.515 147.295 156.684 147.59C156.353 149.38 155.763 151.173 154.913 152.97C155.052 153.234 155.344 153.516 155.79 153.816C156.188 153.894 156.557 153.247 156.897 151.875L157.119 151.843C157.565 152.143 158.04 152.467 158.543 152.813C158.555 152.892 158.582 152.909 158.626 152.862C158.38 153.721 158.042 154.526 157.612 155.277C157.176 155.745 156.567 155.947 155.786 155.884C154.959 155.624 154.256 155.172 153.676 154.526C152.922 155.472 152.069 156.256 151.117 156.879L150.96 156.841C150.404 156.475 149.859 156.189 149.326 155.982C149.318 155.929 149.325 155.861 149.346 155.776C150.36 155.117 151.345 154.26 152.301 153.204C151.085 150.934 150.198 148.495 149.638 145.888L141.444 147.067L141.23 145.577L149.375 144.406L149.104 142.521L150.876 142.408C151.777 142.373 151.934 142.648 151.347 143.232L151.472 144.105L153.694 143.786C153.399 143.369 152.976 142.998 152.425 142.672L153.636 141.808C154.641 142.258 155.327 142.822 155.693 143.498L156.507 143.381L156.721 144.87Z" fill="#0F7562" stroke="#0F7562" stroke-width="0.26468"/>
<path d="M155.41 148.381C155.717 148.115 156.041 147.675 156.381 147.062L158.011 147.64C157.56 148.319 157.204 148.754 156.941 148.946L155.41 148.381ZM153.13 146.19L150.56 146.022L149.829 144.621C152.159 144.767 154.255 144.791 156.116 144.694L149.724 143.775L149.133 147.884L152.811 148.412L153.13 146.19ZM151.058 146.236C151.7 146.909 152.171 147.436 152.469 147.816L151.058 148.161C150.757 147.807 150.329 147.333 149.776 146.74L151.058 146.236ZM158.265 149.197L158.856 145.088L157.647 144.914L158.451 145.982L155.178 146.14L154.81 148.7L158.265 149.197ZM151.319 154.58L151.884 153.284L153.46 153.713C154.839 154.046 155.009 154.32 153.971 154.536L153.763 154.931L161.217 156.003L160.98 157.65L154.439 156.71C156.598 158.168 158.652 159.24 160.602 159.926C160.62 160.036 160.585 160.106 160.496 160.134C159.856 160.501 159.398 160.826 159.122 161.111C159.001 161.134 158.891 161.138 158.793 161.124C156.147 160.015 153.929 158.683 152.137 157.129C149.572 158.381 147.185 159.098 144.976 159.28C144.795 159.254 144.67 159.188 144.601 159.084C144.346 158.642 144.084 158.24 143.817 157.877C143.79 157.833 143.84 157.772 143.969 157.697C146.476 157.314 148.37 156.756 149.651 156.022L143.925 155.198L144.162 153.551L151.319 154.58ZM144.654 143.998C143.476 142.735 142.239 141.76 140.943 141.074L140.664 140.913L142.145 139.727C143.866 140.718 145.219 141.763 146.203 142.864L144.654 143.998ZM142.744 148.343C141.602 147.409 140.457 146.555 139.309 145.783L138.842 145.351L140.173 144.327C142.116 145.416 143.487 146.39 144.288 147.248L142.744 148.343ZM144.81 151.496C143.238 153.553 141.583 155.605 139.845 157.651C139.749 158.312 139.445 158.383 138.932 157.864L137.533 156.204C139.14 154.841 140.806 153.183 142.531 151.229L143.841 149.655L144.81 151.496ZM148.594 151.635C150.23 151.236 151.488 150.66 152.369 149.909L148.914 149.412L148.594 151.635ZM154.837 150.264C155.602 151.252 156.575 152.074 157.757 152.73L158.046 150.725L154.837 150.264ZM145.841 153.792L147.55 141.903L152.535 142.619L154.813 140.617L156.418 141.719C157.059 142.284 156.966 142.527 156.137 142.448L155.3 143.017L161.322 143.883L159.612 155.772L157.366 155.449L157.677 153.286L156.458 153.88C155.713 153.341 155.004 152.726 154.331 152.035L154.105 153.603L152.106 153.315L152.311 151.887C151.553 152.372 150.614 152.77 149.495 153.082L148.528 152.092L148.234 154.136L145.841 153.792Z" fill="#0F7562" stroke="#0F7562" stroke-width="0.26468"/>
<path d="M156.046 143.853L155.455 145.148L160.422 147.417L161.014 146.121L156.046 143.853ZM154.772 146.644L154.172 147.957L159.139 150.226L159.739 148.912L154.772 146.644ZM135.612 153.965L143.609 136.453L153.476 140.959L150.277 147.964L142.724 144.514L137.925 155.021L135.612 153.965ZM145.273 138.933L144.682 140.228L149.943 142.631L150.535 141.336L145.273 138.933ZM143.998 141.724L143.399 143.037L148.66 145.44L149.26 144.127L143.998 141.724ZM154.428 141.394L163.977 145.755L156.83 161.406C156.229 162.44 155.32 162.73 154.102 162.277L151.993 161.314C151.917 161.279 151.861 161.202 151.824 161.082C151.863 160.556 151.8 159.874 151.636 159.034C151.652 158.998 151.703 158.947 151.787 158.883L153.908 159.94C154.392 160.161 154.74 160.04 154.951 159.578L158.533 151.734L151.229 148.399L154.32 141.632L154.428 141.394Z" fill="#0F7562" stroke="#0F7562" stroke-width="0.26468"/>
<path d="M149.08 138.512C149.531 139.133 149.368 139.346 148.592 139.151C147.934 139.783 147.374 140.289 146.914 140.668L148.139 141.73L151.343 138.032L153.174 140.069C153.501 140.529 153.264 140.625 152.463 140.356L149.929 143.281L152.039 145.11L150.936 146.382L148.826 144.554L146.042 147.767L148.239 148.582L146.951 149.802L144.847 149.146L140.435 154.238L138.644 152.686L142.387 148.367L139.177 147.311C138.438 147.555 138.094 147.407 138.144 146.867L138.638 145.04L143.634 146.928L147.036 143.003L145.622 141.778C144.741 142.288 143.721 142.792 142.562 143.292L141.139 141.316C143.636 140.136 145.785 138.62 147.588 136.768L149.08 138.512ZM158.429 150.567L156.841 152.401L161.174 156.156L160.045 157.459L149.568 148.381L150.697 147.077L155.088 150.882L156.676 149.048L152.795 145.685L153.819 144.503L157.701 147.866L159.842 145.396L161.41 147.127C162.023 147.816 161.817 148.054 160.793 147.839L159.454 149.385L163.43 152.83L162.405 154.012L158.429 150.567ZM148.552 153.551C148.772 154.997 148.917 156.29 148.986 157.429L146.978 157.042C146.942 155.561 146.823 154.29 146.62 153.23L148.552 153.551ZM155.407 154.131L156.976 155.861C157.458 156.473 157.274 156.686 156.424 156.498L155.978 157.013L158.315 159.038L157.29 160.221L154.954 158.196L151.487 162.197C150.889 162.81 150.12 162.86 149.179 162.346L146.88 160.354C146.742 160.234 146.687 160.133 146.714 160.051C146.751 159.729 146.822 159.127 146.927 158.245C146.954 158.162 147.028 158.103 147.148 158.065L149.419 160.166C149.746 160.449 150.056 160.382 150.351 159.966L153.162 156.722L147.226 151.579L148.289 150.351L154.225 155.495L155.407 154.131Z" fill="#0F7562" stroke="#0F7562" stroke-width="0.26468"/>
<path d="M147.659 154.738L157.933 148.135L159.011 150.258C159.303 151.059 159.073 151.207 158.32 150.703L148.94 156.731L147.659 154.738ZM151.553 139.432L148.854 141.166L152.265 146.473L154.964 144.739L151.553 139.432ZM163.708 153.82C164.074 154.612 163.849 154.757 163.033 154.254L149.234 163.122C148.284 163.673 147.382 163.443 146.526 162.432L144.827 159.789C144.793 159.811 144.764 159.691 144.74 159.43C145.025 159.108 145.347 158.546 145.705 157.743C145.728 157.63 145.815 157.642 145.968 157.781L147.491 160.152C147.84 160.62 148.248 160.723 148.716 160.462L162.583 151.55L163.708 153.82ZM145.285 140.436L151.612 136.371L157.719 145.873L151.527 149.852L150.206 147.796L150.83 147.395L149.388 145.15C148.747 145.562 148.089 145.936 147.414 146.271L150.353 150.843C148.25 152.195 146.111 153.293 143.936 154.137C142.549 154.575 141.412 154.228 140.527 153.098L139.3 151.189C139.199 150.957 139.205 150.805 139.317 150.733C139.697 150.212 140.031 149.681 140.32 149.141C140.398 149.09 140.49 149.11 140.596 149.2L141.695 151.132C142.079 151.656 142.587 151.853 143.219 151.723C144.368 151.36 145.821 150.654 147.578 149.604L145.987 147.128C143.488 147.865 140.363 147.749 136.611 146.782C136.469 146.635 136.419 146.47 136.459 146.286C136.511 145.601 136.532 144.965 136.521 144.379C136.521 144.28 136.592 144.255 136.734 144.302C139.247 145.196 141.537 145.483 143.604 145.163C144.723 144.878 146.211 144.189 148.067 143.095L147.419 142.088L146.66 142.576L145.285 140.436Z" fill="#0F7562" stroke="#0F7562" stroke-width="0.26468"/>
<path d="M157.289 144.148C157.066 144.716 156.783 144.557 156.439 143.67C154.326 142.264 152.307 140.726 150.381 139.056L150.942 136.838C153.284 138.836 155.573 140.486 157.809 141.787L157.289 144.148ZM156.545 148.161L158.161 147.686L161.308 158.404L159.692 158.879L156.545 148.161ZM153.632 157.385L144.762 159.989C143.515 160.251 142.664 159.773 142.209 158.556L141.211 155.158C141.211 154.968 141.249 154.836 141.325 154.761C141.814 154.34 142.263 153.853 142.672 153.3C142.735 153.23 142.825 153.299 142.942 153.507L143.785 156.663C144.042 157.16 144.427 157.333 144.941 157.182L152.887 154.849L150.969 148.317L152.739 147.797L156.603 160.956L154.833 161.476L153.632 157.385ZM139.238 147.655L138.563 145.358L147.126 142.844C146.204 142.266 145.339 141.576 144.532 140.774C144.47 140.705 144.452 140.572 144.477 140.374C144.748 139.826 144.994 139.287 145.214 138.754C145.276 138.632 145.346 138.611 145.426 138.692C147.598 140.584 150.288 142.132 153.499 143.338L153.167 145.411C153.045 146.278 152.745 146.297 152.264 145.468L150.221 144.56C150.185 145.385 149.91 145.423 149.397 144.672L139.238 147.655Z" fill="#0F7562" stroke="#0F7562" stroke-width="0.26468"/>
<path d="M150.312 149.138V145.497H144.818L145.76 149.611L144.036 149.138L141.589 139.588C140.867 139.089 140.774 138.682 141.308 138.366L143.114 137.593L143.515 139.114H152.659L152.438 141.183C152.264 142.048 151.983 142.114 151.596 141.383H143.976L144.377 143.278H156.449V138.266H158.033V149.712H156.449V145.547H151.917V149.137L150.312 149.138ZM154.523 153.426C153.587 153.111 152.832 152.803 152.257 152.503L152.378 153.576C150.412 154.108 148.788 154.698 147.505 155.346C148.788 156.277 151.127 157.009 154.523 157.541V153.426ZM156.107 161.855H154.523V159.859C150.82 159.261 147.926 158.255 145.84 156.842C144.249 158.288 142.913 160.159 141.83 162.453C141.749 162.453 141.669 162.436 141.589 162.403C141.402 161.987 141.067 161.505 140.586 160.957C140.439 160.807 140.392 160.666 140.446 160.533C141.368 158.771 142.652 157 144.296 155.222C142.879 153.493 141.749 151.365 140.907 148.838C140.867 148.722 140.867 148.622 140.907 148.539C141.295 148.124 141.716 147.667 142.17 147.168H142.371C143.213 150.06 144.417 152.304 145.981 153.9C147.264 153.053 148.909 152.296 150.914 151.631L150.513 151.332L151.315 149.138C153.093 150.551 155.914 151.606 159.777 152.305L159.497 154.1C159.283 155.197 158.995 155.305 158.634 154.424C157.485 154.208 156.643 154.008 156.108 153.825L156.107 161.855Z" fill="#0F7562" stroke="#0F7562" stroke-width="0.26468"/>
<path d="M149.457 157.29L152.513 146.883L157.573 148.369L154.517 158.776L149.457 157.29ZM151.647 155.595L153.591 156.165L155.333 150.232L153.39 149.662L151.647 155.595ZM145.9 144.136L146.56 141.887L152.332 143.582L150.063 151.309L144.291 149.615L144.952 147.366L145.548 147.541L146.496 144.311L145.9 144.136ZM143.308 152.964L143.947 150.787L149.662 152.465L147.386 160.216L141.671 158.538L142.338 156.266L142.935 156.441L143.904 153.14L143.308 152.964ZM144.358 156.859L146.417 157.464L147.387 154.162L145.328 153.558L144.358 156.859ZM147.02 148.077L149.08 148.682L150.056 145.357L147.997 144.752L147.02 148.077ZM140.367 159.351L138.712 158.865L144.24 140.036L143.124 139.708L143.778 137.483L160.133 142.286L160.498 141.042L162.172 141.533L155.814 163.185L154.14 162.693L159.458 144.583L145.874 140.594L140.367 159.351Z" fill="#0F7562" stroke="#0F7562" stroke-width="0.26468"/>
<path d="M92.1133 248.919L95.723 250.602L95.7794 266.629L107.586 256.134L111.431 257.927L103.71 274.485L101.007 273.225L107.667 258.943L94.84 270.349L93.0444 269.512L93.1014 252.152L86.4418 266.433L84.392 265.477L92.1133 248.919Z" fill="#0F7562"/>
<path d="M110.94 276.94L123.281 260.963L126.957 261.778L131.75 281.554L128.41 280.813L126.829 275.094L117.193 272.958L113.655 277.542L110.94 276.94ZM124.28 263.963L118.495 271.291L126.353 273.033L124.28 263.963Z" fill="#0F7562"/>
<path d="M157.278 276.344L160.659 276.538C160.022 278.298 159.034 279.605 157.694 280.458C156.355 281.3 155.171 281.808 154.142 281.98C153.129 282.142 152.28 282.25 151.594 282.304C150.924 282.358 150.238 282.385 149.536 282.385C148.785 282.385 148.05 282.31 147.331 282.158C146.628 281.996 145.795 281.716 144.832 281.316C143.868 280.906 142.945 280.274 142.063 279.421C141.198 278.568 140.585 277.726 140.226 276.894C139.866 276.052 139.63 275.372 139.515 274.854C139.401 274.335 139.344 273.79 139.344 273.218C139.344 272.667 139.401 272.133 139.515 271.614C139.629 271.085 139.809 270.535 140.054 269.962C140.299 269.39 140.577 268.882 140.887 268.44C141.198 267.986 141.696 267.436 142.382 266.788C143.084 266.129 143.966 265.595 145.028 265.184C146.089 264.774 147.004 264.493 147.772 264.342C148.54 264.191 149.348 264.115 150.197 264.115H150.785C151.912 264.115 153.023 264.25 154.117 264.52C155.228 264.779 156.232 265.157 157.131 265.654C158.029 266.151 158.756 266.739 159.311 267.419C159.883 268.088 160.226 268.828 160.34 269.638L157.278 270.026C156.984 269.109 156.51 268.369 155.857 267.808C155.22 267.246 154.534 266.836 153.799 266.577C153.08 266.318 152.492 266.156 152.035 266.091C151.577 266.026 151.218 265.983 150.957 265.961C150.712 265.94 150.459 265.929 150.197 265.929C149.103 265.929 148.082 266.156 147.135 266.609C146.22 267.009 145.469 267.543 144.881 268.213C144.293 268.882 143.852 269.633 143.558 270.464C143.28 271.296 143.141 272.127 143.141 272.958C143.141 274.621 143.639 276.171 144.636 277.607C145.632 279.032 146.971 279.885 148.654 280.166L149.413 280.279L150.222 280.409L150.908 280.441C151.839 280.441 152.696 280.312 153.48 280.052C154.264 279.794 154.901 279.437 155.391 278.984C155.897 278.53 156.281 278.104 156.543 277.704C156.804 277.305 157.049 276.851 157.278 276.344Z" fill="#0F7562"/>
<path d="M168.247 281.554L172.679 261.858L176.356 261.043L189.057 276.94L185.717 277.681L181.867 273.166L172.231 275.302L170.963 280.952L168.247 281.554ZM174.852 264.154L172.707 273.241L180.565 271.499L174.852 264.154Z" fill="#0F7562"/>
<path d="M204.316 250.584L207.023 249.322L212.454 260.969C212.817 261.748 212.892 262.557 212.678 263.398C212.475 264.222 212.065 265.027 211.447 265.814C210.828 266.6 210.149 267.275 209.408 267.839C208.678 268.386 208.048 268.82 207.516 269.141C206.984 269.462 206.453 269.746 205.924 269.993C204.431 270.689 202.914 271.153 201.375 271.385C199.846 271.599 198.473 271.498 197.256 271.082C196.05 270.648 195.168 269.832 194.61 268.634L189.43 257.525L192.603 256.046L197.783 267.155C198.309 268.282 199.296 268.897 200.745 268.999C202.21 269.094 203.735 268.771 205.322 268.032C206.302 267.575 207.175 267.01 207.941 266.337C208.706 265.664 209.254 264.928 209.582 264.131C209.907 263.324 209.908 262.576 209.587 261.887L204.316 250.584Z" fill="#0F7562"/>
</svg>
