<svg width="300" height="300" viewBox="0 0 300 300" fill="none" xmlns="http://www.w3.org/2000/svg">
<path d="M149.82 296.64C230.907 296.64 296.64 230.907 296.64 149.82C296.64 68.7336 230.907 3 149.82 3C68.7336 3 3 68.7336 3 149.82C3 230.907 68.7336 296.64 149.82 296.64Z" fill="#FFFF00" stroke="black" stroke-width="0.982075" stroke-linecap="round" stroke-linejoin="round"/>
<path d="M149.821 201.38C178.296 201.38 201.38 178.296 201.38 149.821C201.38 121.345 178.296 98.2617 149.821 98.2617C121.345 98.2617 98.2617 121.345 98.2617 149.821C98.2617 178.296 121.345 201.38 149.821 201.38Z" fill="white"/>
<path d="M238.062 230.577L202.797 220.139" stroke="#DE2919" stroke-width="1.4446"/>
<path d="M98.4912 259.758C75.1931 253.843 45.9562 216.077 44.1289 208.342C54.6359 208.342 253.812 208.797 253.812 208.797C243.305 233.822 209.5 257.028 201.734 258.848" stroke="#DE2919" stroke-width="1.4446"/>
<path d="M46.8672 213.803H251.069" stroke="#DE2919" stroke-width="1.4446"/>
<path d="M51.4375 220.173H247.416" stroke="#DE2919" stroke-width="1.4446"/>
<path d="M59.6602 230.638H238.736" stroke="#DE2919" stroke-width="1.4446"/>
<path d="M85.0664 253.389H211.785" stroke="#DE2919" stroke-width="1.4446"/>
<path d="M83.4844 252.392H213.814" stroke="#DE2919" stroke-width="1.4446"/>
<path d="M69.1992 240.647H228.899" stroke="#DE2919" stroke-width="1.4446"/>
<path d="M68.3984 239.743H229.671" stroke="#DE2919" stroke-width="1.4446"/>
<path d="M58.75 213.881L75.4183 208.299" stroke="#DE2919" stroke-width="1.4446"/>
<path d="M239.131 213.87L222 208.509" stroke="#DE2919" stroke-width="1.4446"/>
<path d="M60.1953 230.354L95.021 220.213" stroke="#DE2919" stroke-width="1.4446"/>
<path d="M210.898 213.818L231.613 220.211" stroke="#DE2919" stroke-width="1.4446"/>
<path d="M79.1602 240.222L95.8229 230.764" stroke="#DE2919" stroke-width="1.4446"/>
<path d="M219.273 240.222L201.715 230.585" stroke="#DE2919" stroke-width="1.4446"/>
<path d="M88.3008 252.179L103.53 240.4" stroke="#DE2919" stroke-width="1.4446"/>
<path d="M209.955 253.071L194.547 240.579" stroke="#DE2919" stroke-width="1.4446"/>
<path d="M160.864 213.988L153.16 208.635" stroke="#DE2919" stroke-width="1.4446"/>
<path d="M128.973 213.988L137.394 208.456" stroke="#DE2919" stroke-width="1.4446"/>
<path d="M166.595 252.714L161.578 240.4" stroke="#DE2919" stroke-width="1.4446"/>
<path d="M130.762 252.893L136.137 240.579" stroke="#DE2919" stroke-width="1.4446"/>
<path d="M67.7148 220.174L85.8467 213.832" stroke="#DE2919" stroke-width="1.4446"/>
<path d="M92.9258 268.869C119.859 281.934 162.637 289.727 206.828 268.748" stroke="white" stroke-width="28.8618"/>
<path d="M160.118 97.36L170.992 41.5957" stroke="#EF8410" stroke-width="1.45437"/>
<path d="M157.219 96.7844L162.695 68.6104" stroke="#EF8410" stroke-width="1.45437"/>
<path d="M163.039 97.9377L168.516 69.7637" stroke="#EF8410" stroke-width="1.45437"/>
<path d="M148.276 35.7432H140.488L146.772 95.7055L148.352 95.6477L148.276 35.7432V35.7432Z" fill="#00943A" stroke="#00943A" stroke-width="1.4446"/>
<path d="M151.365 35.7432H159.152L152.869 95.7055L151.289 95.6477L151.365 35.7432H151.365Z" fill="#00943A" stroke="#00943A" stroke-width="1.4446"/>
<path d="M139.539 97.36L128.664 41.5957" stroke="#EF8410" stroke-width="1.45437"/>
<path d="M142.437 96.7844L136.961 68.6104" stroke="#EF8410" stroke-width="1.45437"/>
<path d="M136.617 97.9377L131.141 69.7637" stroke="#EF8410" stroke-width="1.45437"/>
<path d="M100.681 47.1043L93.5859 50.3389L123.836 102.361L125.252 101.652L100.681 47.1043V47.1043Z" fill="#00943A" stroke="#00943A" stroke-width="1.44461"/>
<path d="M103.495 45.8221L110.59 42.5875L129.39 99.8297L127.927 100.433L103.495 45.8221L103.495 45.8221Z" fill="#00943A" stroke="#00943A" stroke-width="1.44461"/>
<path d="M117.907 106.876L85.1914 60.585" stroke="#EF8410" stroke-width="1.45438"/>
<path d="M120.318 105.147L103.805 81.752" stroke="#EF8410" stroke-width="1.45438"/>
<path d="M115.486 108.613L98.9727 85.2178" stroke="#EF8410" stroke-width="1.45438"/>
<path d="M63.0601 76.21L57.9609 82.1416L107.05 116.617L108.041 115.376L63.0601 76.21V76.21Z" fill="#00943A" stroke="#00943A" stroke-width="1.44462"/>
<path d="M65.0808 73.8574L70.1799 67.9258L111.04 111.973L109.962 113.139L65.0808 73.8573L65.0808 73.8574Z" fill="#00943A" stroke="#00943A" stroke-width="1.44462"/>
<path d="M103.547 123.215L54.6016 94.9854" stroke="#EF8410" stroke-width="1.45438"/>
<path d="M105.018 120.63L80.3008 106.354" stroke="#EF8410" stroke-width="1.45438"/>
<path d="M102.073 125.815L77.3555 111.539" stroke="#EF8410" stroke-width="1.45438"/>
<path d="M40.5545 118.377L38.2695 125.879L96.9975 137.419L97.4061 135.88L40.5545 118.377V118.377Z" fill="#00943A" stroke="#00943A" stroke-width="1.4446"/>
<path d="M41.4597 115.402L43.7447 107.899L98.7853 131.546L98.2669 133.051L41.4597 115.402L41.4597 115.402Z" fill="#00943A" stroke="#00943A" stroke-width="1.4446"/>
<path d="M96.4401 144.879L40.3477 138.993" stroke="#EF8410" stroke-width="1.45437"/>
<path d="M96.7447 141.914L68.4102 138.924" stroke="#EF8410" stroke-width="1.45437"/>
<path d="M96.1315 147.858L67.7969 144.867" stroke="#EF8410" stroke-width="1.45437"/>
<path d="M198.951 47.1043L206.047 50.3389L175.797 102.361L174.381 101.652L198.951 47.1043V47.1043Z" fill="#00943A" stroke="#00943A" stroke-width="1.44461"/>
<path d="M196.138 45.8221L189.043 42.5875L170.243 99.8297L171.706 100.433L196.138 45.8221L196.138 45.8221Z" fill="#00943A" stroke="#00943A" stroke-width="1.44461"/>
<path d="M181.725 106.876L214.441 60.585" stroke="#EF8410" stroke-width="1.45438"/>
<path d="M179.315 105.147L195.828 81.752" stroke="#EF8410" stroke-width="1.45438"/>
<path d="M184.147 108.613L200.66 85.2178" stroke="#EF8410" stroke-width="1.45438"/>
<path d="M236.573 76.21L241.672 82.1416L192.583 116.617L191.592 115.376L236.573 76.21V76.21Z" fill="#00943A" stroke="#00943A" stroke-width="1.44462"/>
<path d="M234.552 73.8574L229.453 67.9258L188.593 111.973L189.671 113.139L234.552 73.8573L234.552 73.8574Z" fill="#00943A" stroke="#00943A" stroke-width="1.44462"/>
<path d="M196.085 123.215L245.031 94.9854" stroke="#EF8410" stroke-width="1.45438"/>
<path d="M194.615 120.63L219.332 106.354" stroke="#EF8410" stroke-width="1.45438"/>
<path d="M197.56 125.815L222.277 111.539" stroke="#EF8410" stroke-width="1.45438"/>
<path d="M259.078 118.377L261.363 125.879L202.635 137.419L202.227 135.88L259.078 118.377V118.377Z" fill="#00943A" stroke="#00943A" stroke-width="1.4446"/>
<path d="M258.173 115.402L255.888 107.899L200.848 131.546L201.366 133.051L258.173 115.402L258.173 115.402Z" fill="#00943A" stroke="#00943A" stroke-width="1.4446"/>
<path d="M203.193 144.879L259.285 138.993" stroke="#EF8410" stroke-width="1.45437"/>
<path d="M202.888 141.914L231.223 138.924" stroke="#EF8410" stroke-width="1.45437"/>
<path d="M203.501 147.858L231.836 144.867" stroke="#EF8410" stroke-width="1.45437"/>
<path d="M92.425 265.549C94.0842 263.605 89.8014 259.151 87.7629 257.633C86.8281 260.097 89.2697 266.321 92.425 265.549Z" fill="#60BC24" stroke="#60BC24" stroke-width="0.722299"/>
<path d="M89.9403 268.314C89.016 270.693 83.0428 269.068 80.7315 268.007C82.46 266.014 89.1168 265.183 89.9403 268.314Z" fill="#60BC24" stroke="#60BC24" stroke-width="0.722299"/>
<path d="M84.6593 260.814C86.3186 258.87 82.0357 254.416 79.9973 252.898C79.0624 255.362 81.5041 261.586 84.6593 260.814Z" fill="#60BC24" stroke="#60BC24" stroke-width="0.722299"/>
<path d="M82.1747 263.578C81.2504 265.958 75.2771 264.332 72.9658 263.272C74.6943 261.278 81.3512 260.448 82.1747 263.578Z" fill="#60BC24" stroke="#60BC24" stroke-width="0.722299"/>
<path d="M75.5343 255.43C77.1936 253.486 72.9107 249.032 70.8723 247.514C69.9374 249.978 72.3791 256.202 75.5343 255.43Z" fill="#60BC24" stroke="#60BC24" stroke-width="0.722299"/>
<path d="M73.0497 258.194C72.1254 260.574 66.1521 258.949 63.8408 257.888C65.5693 255.894 72.2262 255.064 73.0497 258.194Z" fill="#60BC24" stroke="#60BC24" stroke-width="0.722299"/>
<path d="M67.5183 250.925C69.5317 249.348 66.2207 244.136 64.5249 242.246C63.1181 244.476 64.2721 251.059 67.5183 250.925Z" fill="#60BC24" stroke="#60BC24" stroke-width="0.7223"/>
<path d="M64.5304 253.144C63.1507 255.294 57.6197 252.521 55.5655 251.025C57.6566 249.413 64.3465 249.914 64.5304 253.144Z" fill="#60BC24" stroke="#60BC24" stroke-width="0.7223"/>
<path d="M60.0462 245.288C62.2052 243.915 59.4236 238.405 57.9221 236.358C56.3024 238.44 56.8024 245.104 60.0462 245.288Z" fill="#60BC24" stroke="#60BC24" stroke-width="0.7223"/>
<path d="M56.852 247.205C55.2671 249.21 50.036 245.91 48.1391 244.22C50.3789 242.82 56.9872 243.972 56.852 247.205Z" fill="#60BC24" stroke="#60BC24" stroke-width="0.7223"/>
<path d="M53.3436 238.638C55.6378 237.503 53.4644 231.728 52.1915 229.533C50.3573 231.43 50.1383 238.109 53.3436 238.638Z" fill="#60BC24" stroke="#60BC24" stroke-width="0.722301"/>
<path d="M49.9631 240.203C48.1719 242.027 43.3255 238.188 41.6211 236.306C43.9985 235.153 50.445 237.003 49.9631 240.203Z" fill="#60BC24" stroke="#60BC24" stroke-width="0.722301"/>
<path d="M47.0895 230.804C49.4516 229.817 47.6516 223.916 46.5216 221.645C44.5699 223.422 43.9245 230.073 47.0895 230.804Z" fill="#60BC24" stroke="#60BC24" stroke-width="0.722301"/>
<path d="M43.6188 232.153C41.7147 233.86 37.1234 229.722 35.5428 227.735C37.9891 226.735 44.3043 228.99 43.6188 232.153Z" fill="#60BC24" stroke="#60BC24" stroke-width="0.722301"/>
<path d="M41.9098 222.636C44.2719 221.649 42.4719 215.748 41.3419 213.477C39.3902 215.254 38.7448 221.905 41.9098 222.636Z" fill="#60BC24" stroke="#60BC24" stroke-width="0.722301"/>
<path d="M38.4391 223.985C36.535 225.692 31.9438 221.554 30.3631 219.567C32.8094 218.567 39.1246 220.822 38.4391 223.985Z" fill="#60BC24" stroke="#60BC24" stroke-width="0.722301"/>
<path d="M35.9246 215.111C38.4198 214.533 37.6424 208.414 36.9121 205.986C34.688 207.411 32.9284 213.859 35.9246 215.111Z" fill="#60BC24" stroke="#60BC24" stroke-width="0.722302"/>
<path d="M32.2748 215.858C30.1095 217.221 26.2827 212.372 25.0603 210.149C27.6407 209.573 33.4849 212.854 32.2748 215.858Z" fill="#60BC24" stroke="#60BC24" stroke-width="0.722302"/>
<path d="M31.6269 207.184C34.1583 206.793 33.8395 200.633 33.2924 198.158C30.9682 199.414 28.7323 205.714 31.6269 207.184Z" fill="#60BC24" stroke="#60BC24" stroke-width="0.722302"/>
<path d="M27.933 207.658C25.672 208.858 22.2176 203.739 21.1643 201.431C23.7806 201.048 29.3638 204.753 27.933 207.658Z" fill="#60BC24" stroke="#60BC24" stroke-width="0.722302"/>
<path d="M27.5316 198.606C30.0784 198.331 30.0454 192.164 29.6136 189.666C27.2337 190.814 24.7082 197.004 27.5316 198.606Z" fill="#60BC24" stroke="#60BC24" stroke-width="0.722302"/>
<path d="M23.817 198.91C21.5028 200.004 18.2893 194.732 17.3441 192.379C19.9753 192.116 25.3809 196.073 23.817 198.91Z" fill="#60BC24" stroke="#60BC24" stroke-width="0.722302"/>
<path d="M24.5368 190.099C27.0979 190.153 27.8593 184.032 27.7527 181.499C25.2446 182.334 21.9429 188.151 24.5368 190.099Z" fill="#60BC24" stroke="#60BC24" stroke-width="0.722302"/>
<path d="M20.8156 189.926C18.3796 190.716 15.8714 185.077 15.2371 182.622C17.8804 182.698 22.7319 187.313 20.8156 189.926Z" fill="#60BC24" stroke="#60BC24" stroke-width="0.722302"/>
<path d="M23.193 181.306C25.7542 181.36 26.5155 175.239 26.409 172.706C23.9008 173.541 20.5991 179.358 23.193 181.306Z" fill="#60BC24" stroke="#60BC24" stroke-width="0.722302"/>
<path d="M19.4719 181.134C17.0359 181.923 14.5277 176.284 13.8934 173.829C16.5367 173.905 21.3881 178.52 19.4719 181.134Z" fill="#60BC24" stroke="#60BC24" stroke-width="0.722302"/>
<path d="M21.739 172.816C24.279 173.147 25.706 167.146 25.8774 164.617C23.2928 165.174 19.3739 170.597 21.739 172.816Z" fill="#60BC24" stroke="#60BC24" stroke-width="0.722302"/>
<path d="M18.0553 172.242C15.5474 172.762 13.6716 166.884 13.3098 164.375C15.9292 164.737 20.2463 169.852 18.0553 172.242Z" fill="#60BC24" stroke="#60BC24" stroke-width="0.722302"/>
<path d="M20.0612 165.499C17.6313 164.692 18.6383 159.435 19.5937 157.086C21.674 158.712 23.162 164.533 20.0612 165.499Z" fill="#60BC24" stroke="#60BC24" stroke-width="0.722299"/>
<path d="M207.204 265.549C205.545 263.605 209.828 259.151 211.866 257.633C212.801 260.097 210.359 266.321 207.204 265.549Z" fill="#60BC24" stroke="#60BC24" stroke-width="0.722299"/>
<path d="M209.689 268.314C210.613 270.693 216.586 269.068 218.897 268.007C217.169 266.014 210.512 265.183 209.689 268.314Z" fill="#60BC24" stroke="#60BC24" stroke-width="0.722299"/>
<path d="M214.97 260.814C213.31 258.87 217.593 254.416 219.632 252.898C220.566 255.362 218.125 261.586 214.97 260.814Z" fill="#60BC24" stroke="#60BC24" stroke-width="0.722299"/>
<path d="M217.454 263.578C218.379 265.958 224.352 264.332 226.663 263.272C224.935 261.278 218.278 260.448 217.454 263.578Z" fill="#60BC24" stroke="#60BC24" stroke-width="0.722299"/>
<path d="M224.095 255.43C222.435 253.486 226.718 249.032 228.757 247.514C229.691 249.978 227.25 256.202 224.095 255.43Z" fill="#60BC24" stroke="#60BC24" stroke-width="0.722299"/>
<path d="M226.579 258.194C227.504 260.574 233.477 258.949 235.788 257.888C234.06 255.894 227.403 255.064 226.579 258.194Z" fill="#60BC24" stroke="#60BC24" stroke-width="0.722299"/>
<path d="M232.111 250.925C230.097 249.348 233.408 244.136 235.104 242.246C236.511 244.476 235.357 251.059 232.111 250.925Z" fill="#60BC24" stroke="#60BC24" stroke-width="0.7223"/>
<path d="M235.098 253.144C236.478 255.294 242.009 252.521 244.063 251.025C241.972 249.413 235.282 249.914 235.098 253.144Z" fill="#60BC24" stroke="#60BC24" stroke-width="0.7223"/>
<path d="M239.583 245.288C237.424 243.915 240.205 238.405 241.707 236.358C243.326 238.44 242.826 245.104 239.583 245.288Z" fill="#60BC24" stroke="#60BC24" stroke-width="0.7223"/>
<path d="M242.777 247.205C244.362 249.21 249.593 245.91 251.49 244.22C249.25 242.82 242.642 243.972 242.777 247.205Z" fill="#60BC24" stroke="#60BC24" stroke-width="0.7223"/>
<path d="M246.285 238.638C243.991 237.503 246.165 231.728 247.437 229.533C249.272 231.43 249.491 238.109 246.285 238.638Z" fill="#60BC24" stroke="#60BC24" stroke-width="0.722301"/>
<path d="M249.666 240.203C251.457 242.027 256.303 238.188 258.008 236.306C255.63 235.153 249.184 237.003 249.666 240.203Z" fill="#60BC24" stroke="#60BC24" stroke-width="0.722301"/>
<path d="M252.539 230.804C250.177 229.817 251.977 223.916 253.107 221.645C255.059 223.422 255.704 230.073 252.539 230.804Z" fill="#60BC24" stroke="#60BC24" stroke-width="0.722301"/>
<path d="M256.01 232.152C257.914 233.859 262.505 229.721 264.086 227.734C261.64 226.734 255.325 228.989 256.01 232.152Z" fill="#60BC24" stroke="#60BC24" stroke-width="0.722301"/>
<path d="M257.719 222.636C255.357 221.649 257.157 215.748 258.287 213.477C260.239 215.254 260.884 221.905 257.719 222.636Z" fill="#60BC24" stroke="#60BC24" stroke-width="0.722301"/>
<path d="M261.19 223.985C263.094 225.692 267.685 221.554 269.266 219.567C266.819 218.567 260.504 220.822 261.19 223.985Z" fill="#60BC24" stroke="#60BC24" stroke-width="0.722301"/>
<path d="M263.704 215.111C261.209 214.533 261.987 208.414 262.717 205.986C264.941 207.411 266.701 213.859 263.704 215.111Z" fill="#60BC24" stroke="#60BC24" stroke-width="0.722302"/>
<path d="M267.354 215.858C269.519 217.221 273.346 212.372 274.569 210.149C271.988 209.573 266.144 212.854 267.354 215.858Z" fill="#60BC24" stroke="#60BC24" stroke-width="0.722302"/>
<path d="M268.002 207.184C265.471 206.793 265.789 200.633 266.336 198.158C268.661 199.414 270.897 205.714 268.002 207.184Z" fill="#60BC24" stroke="#60BC24" stroke-width="0.722302"/>
<path d="M271.696 207.658C273.957 208.858 277.411 203.739 278.465 201.431C275.848 201.048 270.265 204.753 271.696 207.658Z" fill="#60BC24" stroke="#60BC24" stroke-width="0.722302"/>
<path d="M272.097 198.606C269.55 198.331 269.583 192.164 270.015 189.666C272.395 190.814 274.921 197.004 272.097 198.606Z" fill="#60BC24" stroke="#60BC24" stroke-width="0.722302"/>
<path d="M275.812 198.91C278.126 200.004 281.34 194.732 282.285 192.379C279.654 192.116 274.248 196.073 275.812 198.91Z" fill="#60BC24" stroke="#60BC24" stroke-width="0.722302"/>
<path d="M275.092 190.099C272.531 190.153 271.77 184.032 271.876 181.499C274.384 182.334 277.686 188.151 275.092 190.099Z" fill="#60BC24" stroke="#60BC24" stroke-width="0.722302"/>
<path d="M278.813 189.926C281.249 190.716 283.757 185.077 284.392 182.622C281.748 182.698 276.897 187.313 278.813 189.926Z" fill="#60BC24" stroke="#60BC24" stroke-width="0.722302"/>
<path d="M276.44 181.306C273.879 181.36 273.117 175.239 273.224 172.706C275.732 173.541 279.034 179.358 276.44 181.306Z" fill="#60BC24" stroke="#60BC24" stroke-width="0.722302"/>
<path d="M280.161 181.134C282.597 181.923 285.105 176.284 285.739 173.829C283.096 173.905 278.245 178.52 280.161 181.134Z" fill="#60BC24" stroke="#60BC24" stroke-width="0.722302"/>
<path d="M277.89 172.816C275.35 173.147 273.923 167.146 273.751 164.617C276.336 165.174 280.255 170.597 277.89 172.816Z" fill="#60BC24" stroke="#60BC24" stroke-width="0.722302"/>
<path d="M281.574 172.242C284.082 172.762 285.957 166.884 286.319 164.375C283.7 164.737 279.383 169.852 281.574 172.242Z" fill="#60BC24" stroke="#60BC24" stroke-width="0.722302"/>
<path d="M279.568 165.499C281.998 164.692 280.991 159.435 280.035 157.086C277.955 158.712 276.467 164.533 279.568 165.499Z" fill="#60BC24" stroke="#60BC24" stroke-width="0.722299"/>
<path fill-rule="evenodd" clip-rule="evenodd" d="M84.8468 156.203C83.1454 191.184 109.934 217.07 127.799 220.631V210.889C106.683 203.728 91.8649 185.947 84.8468 156.203ZM214.791 156.203C207.773 185.947 192.924 203.728 171.808 210.889V220.631C189.673 217.07 216.493 191.184 214.791 156.203ZM129.355 211.262V220.818C135.576 222.564 139.517 226.282 142.24 231.867C144.628 236.763 145.286 242.28 146.131 245.997C146.245 246.501 146.076 246.857 145.882 246.869C145.601 246.885 145.469 246.395 145.415 246.184C143.769 239.719 141.054 234 138.505 229.875C137.085 227.576 135.449 225.313 133.401 223.681C132.699 223.122 131.981 223.035 131.16 223.307C131.479 226.197 132.047 228.98 133.339 231.587C134.682 234.299 136.224 235.795 137.509 237.78C138.795 239.766 139.974 242.218 140.964 246.869C141.734 250.483 141.689 255.273 142.427 259.163C143.208 263.279 145.58 265.823 149.803 265.823C154.026 265.823 156.399 263.279 157.18 259.163C157.918 255.273 157.873 250.483 158.643 246.869C159.633 242.218 160.812 239.766 162.098 237.78C163.383 235.795 164.924 234.299 166.268 231.587C167.56 228.98 168.128 226.197 168.447 223.307C167.626 223.035 166.907 223.122 166.206 223.681C164.158 225.313 162.522 227.576 161.102 229.875C158.553 234 155.838 239.719 154.192 246.184C154.138 246.395 154.006 246.885 153.725 246.869C153.531 246.857 153.362 246.501 153.476 245.997C154.321 242.28 154.979 236.763 157.367 231.867C160.09 226.282 164.031 222.564 170.252 220.818V211.262C163.883 213.765 156.613 214.717 149.803 214.717C142.994 214.717 135.723 213.765 129.355 211.262ZM122.819 221.876C115.97 222.117 108.854 224.032 107.163 229.065C112.42 230.965 122.728 229.104 127.456 221.969C125.976 221.866 124.399 221.82 122.819 221.876ZM173.676 221.876C173.166 221.894 172.675 221.935 172.182 221.969C176.91 229.103 187.218 230.965 192.475 229.065C190.524 223.258 181.323 221.604 173.676 221.876Z" fill="#DE2919"/>
<path d="M24.326 117.621C24.5834 117.227 25.002 116.89 25.5816 116.61C26.1629 116.323 26.922 116.084 27.8587 115.892L32.4196 114.919L31.8553 117.085L27.5776 117.985C26.4621 118.215 25.6824 118.52 25.2386 118.9C24.7965 119.273 24.4714 119.859 24.2633 120.658L23.6912 122.855L29.9204 124.515L29.3951 126.532L14.6562 122.605L15.8421 118.051C16.286 116.347 16.9692 115.169 17.8919 114.518C18.8145 113.867 19.9866 113.731 21.4082 114.109C22.3362 114.357 23.049 114.782 23.5466 115.384C24.046 115.98 24.3058 116.725 24.326 117.621ZM16.8203 121.024L22.0525 122.418L22.713 119.882C22.9661 118.91 22.9364 118.119 22.6237 117.509C22.3062 116.89 21.7164 116.466 20.8543 116.236C19.9921 116.007 19.2788 116.084 18.7144 116.467C18.1452 116.842 17.734 117.516 17.4809 118.488L16.8203 121.024Z" fill="black"/>
<path d="M19.2266 106.397L22.6293 97.2764L24.253 97.8962L21.5784 105.065L25.8 106.677L28.3629 99.8073L29.9866 100.427L27.4237 107.296L32.591 109.269L35.3304 101.926L36.9541 102.546L33.4865 111.84L19.2266 106.397Z" fill="black"/>
<path d="M27.4599 90.5301L32.5578 93.17L33.7394 90.8352C34.1767 89.9711 34.2937 89.1887 34.0902 88.4878C33.8868 87.7869 33.3761 87.2248 32.5583 86.8012C31.7465 86.3809 31.0001 86.2921 30.319 86.5349C29.638 86.7778 29.0788 87.3312 28.6415 88.1953L27.4599 90.5301ZM25.0117 91.6057L27.133 87.4142C27.9115 85.876 28.8445 84.8936 29.9321 84.4668C31.0168 84.0308 32.2224 84.1563 33.5492 84.8433C34.888 85.5366 35.6997 86.4558 35.9842 87.6008C36.2718 88.7397 36.0264 90.0782 35.2479 91.6163L34.0663 93.9511L39.5186 96.7745L38.5789 98.6313L25.0117 91.6057Z" fill="black"/>
<path d="M37.0426 73.1918C36.22 74.4573 36.032 75.7741 36.4786 77.1422C36.9289 78.5045 37.9587 79.7209 39.5681 80.7912C41.1718 81.8577 42.6811 82.3301 44.096 82.2083C45.5147 82.0808 46.6354 81.3842 47.4579 80.1187C48.2805 78.8532 48.4648 77.5421 48.0107 76.1855C47.5604 74.8232 46.5334 73.6088 44.9297 72.5422C43.3204 71.4719 41.8082 70.9976 40.3932 71.1194C38.982 71.2355 37.8651 71.9263 37.0426 73.1918ZM35.6436 72.2614C36.8176 70.4552 38.3561 69.4103 40.2589 69.1269C42.1561 68.8397 44.1112 69.3655 46.1243 70.7043C48.1318 72.0394 49.384 73.6467 49.881 75.5262C50.3723 77.4018 50.0309 79.2428 48.8569 81.0491C47.6791 82.8611 46.1398 83.9136 44.2389 84.2065C42.3418 84.4937 40.3866 83.9679 38.3735 82.6291C36.3604 81.2902 35.1081 79.6829 34.6168 77.8072C34.1236 75.922 34.4658 74.0734 35.6436 72.2614Z" fill="black"/>
<path d="M50.2814 66.2817L54.5007 69.9819L56.6674 67.4539C57.3941 66.606 57.7591 65.8282 57.7623 65.1203C57.7648 64.4027 57.4087 63.7305 56.6939 63.1036C55.974 62.4723 55.2682 62.2133 54.5766 62.3265C53.8843 62.4301 53.1748 62.9059 52.4481 63.7537L50.2814 66.2817ZM45.5454 62.1283L49.0164 65.1724L51.0159 62.8394C51.6758 62.0696 52.0248 61.3734 52.0629 60.7508C52.1004 60.1186 51.826 59.5454 51.2398 59.0313C50.6587 58.5217 50.0615 58.3305 49.448 58.4577C48.8391 58.5796 48.2047 59.0256 47.5449 59.7954L45.5454 62.1283ZM42.9141 62.5815L46.3647 58.5555C47.3946 57.3539 48.435 56.6444 49.4859 56.4272C50.5369 56.2099 51.5174 56.5003 52.4276 57.2986C53.1321 57.9164 53.55 58.5744 53.6812 59.2726C53.8124 59.9708 53.653 60.6875 53.203 61.4227C54.0319 60.7919 54.8913 60.4933 55.7814 60.5267C56.6708 60.5505 57.5064 60.9051 58.288 61.5905C59.3165 62.4925 59.8078 63.5429 59.762 64.7419C59.7162 65.9409 59.1338 67.1932 58.0147 68.4988L54.4303 72.6809L42.9141 62.5815Z" fill="black"/>
<path d="M53.4023 50.8837L54.9131 49.4639L64.1064 59.4725L69.5435 54.3624L70.7248 55.6484L63.777 62.1784L53.4023 50.8837Z" fill="black"/>
<path d="M62.9023 42.3816L64.51 41.0752L74.0559 53.0944L72.4483 54.4008L62.9023 42.3816Z" fill="black"/>
<path d="M68.5156 37.8567L70.2301 36.6977L73.8095 42.1152L75.9169 32.8532L78.1237 31.3613L75.7824 41.5888L87.0427 43.8755L84.7849 45.4018L74.6207 43.3429L78.6992 49.516L76.9847 50.675L68.5156 37.8567Z" fill="black"/>
<path d="M87.2585 28.8088L88.2246 36.9279L93.2136 34.3448L87.2585 28.8088ZM85.2969 27.516L87.3779 26.4385L99.4934 37.4854L97.585 38.4735L94.5676 35.5927L88.4517 38.7593L88.9973 42.9198L87.0617 43.922L85.2969 27.516Z" fill="black"/>
<path d="M96.0234 22.325L98.6303 21.3575L109.367 31.1114L104.975 19.0028L106.853 18.3057L112.103 32.7797L109.496 33.7472L98.7599 23.9933L103.152 36.1019L101.273 36.799L96.0234 22.325Z" fill="black"/>
<path d="M119.43 15.0195L120.695 20.6062L119.003 20.998L117.738 15.4114L119.43 15.0195Z" fill="black"/>
<path d="M122.254 14.4303L124.278 14.0322L127.187 29.1664L125.162 29.5645L122.254 14.4303Z" fill="black"/>
<path d="M155.193 11.6035L158.255 11.8652L161.258 22.6509L166.027 12.5294L169.089 12.7911L167.806 28.1538L165.802 27.9826L166.929 14.4926L162.132 24.6947L160.067 24.5182L157.031 13.6467L155.904 27.1367L153.91 26.9663L155.193 11.6035Z" fill="black"/>
<path d="M179.135 16.8376L174.759 23.7139L180.23 24.9434L179.135 16.8376ZM178.439 14.5762L180.721 15.089L183.086 31.4139L180.993 30.9436L180.486 26.7781L173.779 25.2708L171.576 28.8272L169.453 28.3501L178.439 14.5762Z" fill="black"/>
<path d="M191.261 19.7982L187.4 31.1334L189.755 31.9542C191.744 32.6471 193.353 32.6983 194.583 32.1078C195.82 31.5194 196.774 30.2424 197.443 28.2768C198.108 26.3241 198.132 24.7339 197.513 23.5063C196.903 22.2744 195.604 21.3119 193.616 20.619L191.261 19.7982ZM189.863 17.498L193.869 18.894C196.661 19.8673 198.51 21.1706 199.415 22.8039C200.322 24.4307 200.35 26.4938 199.499 28.9932C198.643 31.5057 197.358 33.1222 195.645 33.8428C193.931 34.5635 191.684 34.4394 188.904 33.4706L184.898 32.0747L189.863 17.498Z" fill="black"/>
<path d="M209.4 27.6035L203.555 33.2531L208.59 35.7436L209.4 27.6035ZM209.247 25.2402L211.348 26.2791L209.87 42.7105L207.944 41.7578L208.415 37.5879L202.243 34.5348L199.278 37.4708L197.324 36.5046L209.247 25.2402Z" fill="black"/>
<path d="M221.427 47.5562L223.664 44.0886L220.843 42.226L221.769 40.7905L226.3 43.782L222.724 49.325C221.748 49.3632 220.778 49.241 219.815 48.9583C218.855 48.6699 217.919 48.2247 217.007 47.6226C215.013 46.3056 213.83 44.6865 213.461 42.7654C213.101 40.8423 213.6 38.8286 214.957 36.7244C216.319 34.6144 217.94 33.3421 219.822 32.9073C221.713 32.4705 223.656 32.9107 225.651 34.2277C226.483 34.777 227.205 35.402 227.818 36.1025C228.436 36.8067 228.932 37.5694 229.304 38.3906L228.104 40.2499C227.819 39.2807 227.407 38.4208 226.867 37.6699C226.328 36.9191 225.662 36.2821 224.87 35.7591C223.308 34.7281 221.85 34.3939 220.494 34.7567C219.144 35.1232 217.905 36.1799 216.778 37.9267C215.655 39.6677 215.199 41.237 215.411 42.6345C215.628 44.0359 216.517 45.252 218.079 46.2831C218.689 46.6857 219.267 46.9932 219.812 47.2055C220.362 47.412 220.9 47.5289 221.427 47.5562Z" fill="black"/>
<path d="M237.33 45.9677L230.341 50.078L234.661 53.6905L237.33 45.9677ZM237.728 43.6338L239.53 45.1406L234.295 60.7669L232.642 59.3851L234.064 55.4421L228.769 51.0137L225.207 53.167L223.531 51.7654L237.728 43.6338Z" fill="black"/>
<path d="M252.572 58.4925L251.119 59.899C250.849 59.0652 250.54 58.3304 250.192 57.6945C249.845 57.0587 249.448 56.5045 249.001 56.032C248.225 55.2113 247.467 54.7294 246.729 54.5864C245.996 54.4484 245.339 54.6602 244.759 55.2218C244.272 55.693 244.042 56.1967 244.069 56.7329C244.105 57.2694 244.438 58.0242 245.066 58.9974L245.743 60.0861C246.595 61.4148 247.005 62.6047 246.972 63.6558C246.95 64.707 246.491 65.6657 245.596 66.532C244.529 67.5649 243.376 67.9847 242.139 67.7916C240.906 67.6035 239.628 66.8106 238.306 65.413C237.807 64.8857 237.334 64.2666 236.888 63.5555C236.446 62.8494 236.039 62.0661 235.668 61.2058L237.202 59.7207C237.442 60.6609 237.753 61.5078 238.136 62.2613C238.519 63.0148 238.979 63.6751 239.515 64.2421C240.329 65.1026 241.125 65.6047 241.901 65.7486C242.678 65.8925 243.376 65.6646 243.996 65.0649C244.537 64.5413 244.8 63.9628 244.785 63.3295C244.774 62.7012 244.483 61.9302 243.911 61.0167L243.219 59.9277C242.377 58.5894 241.955 57.4406 241.951 56.4813C241.948 55.522 242.367 54.6354 243.208 53.8215C244.181 52.8791 245.276 52.4822 246.49 52.631C247.709 52.7847 248.896 53.4709 250.048 54.6895C250.542 55.2118 250.999 55.7892 251.419 56.4218C251.838 57.0543 252.223 57.7446 252.572 58.4925Z" fill="black"/>
<path d="M256.839 62.7598L258.139 64.379L246.308 74.0988L245.008 72.4796L256.839 62.7598Z" fill="black"/>
<path d="M261.241 68.3438L262.417 70.057L257.127 73.7742L266.319 75.7395L267.833 77.9446L257.682 75.7601L255.624 87.1894L254.075 84.9334L255.928 74.6166L249.899 78.8523L248.723 77.1391L261.241 68.3438Z" fill="black"/>
<path d="M270.528 87.0228L262.522 88.1645L265.177 93.1576L270.528 87.0228ZM271.766 85.0127L272.873 87.0954L262.2 99.5723L261.185 97.6623L263.971 94.5523L260.717 88.4314L256.616 89.0676L255.586 87.1303L271.766 85.0127Z" fill="black"/>
<path d="M272.178 105.595C272.2 106.067 272.059 106.589 271.755 107.161C271.453 107.74 270.981 108.386 270.337 109.101L267.226 112.612L266.416 110.527L269.341 107.244C270.107 106.392 270.558 105.68 270.694 105.109C270.833 104.543 270.753 103.876 270.454 103.107L269.632 100.993L263.637 103.376L262.883 101.435L277.068 95.7949L278.771 100.177C279.408 101.818 279.545 103.176 279.181 104.253C278.817 105.33 277.951 106.14 276.583 106.684C275.69 107.039 274.866 107.122 274.113 106.934C273.362 106.751 272.717 106.305 272.178 105.595ZM276.245 98.3634L271.21 100.366L272.158 102.807C272.522 103.742 273.008 104.363 273.616 104.668C274.234 104.977 274.957 104.967 275.787 104.637C276.617 104.307 277.148 103.819 277.379 103.172C277.619 102.529 277.557 101.74 277.194 100.804L276.245 98.3634Z" fill="black"/>
<path d="M282.13 117.458L274.09 116.599L275.466 122.095L282.13 117.458ZM283.813 115.812L284.387 118.105L271.039 127.587L270.513 125.485L273.962 123.152L272.275 116.415L268.143 116.025L267.609 113.893L283.813 115.812Z" fill="black"/>
<path fill-rule="evenodd" clip-rule="evenodd" d="M147.873 192.778C147.524 192.76 147.34 192.747 147.1 192.747C146.86 192.747 146.565 192.76 146.213 192.836C145.861 192.911 145.453 193.049 145.006 193.243C144.559 193.437 144.072 193.687 143.638 193.95C143.204 194.213 142.823 194.489 142.576 194.716C142.33 194.943 142.218 195.12 142.106 195.176C141.995 195.232 141.883 195.167 141.758 195.203C141.633 195.239 141.495 195.377 141.353 195.436C141.212 195.495 141.067 195.476 140.864 195.476C140.66 195.476 140.397 195.495 140.144 195.535C139.89 195.574 139.647 195.633 139.443 195.699C139.239 195.765 139.075 195.837 138.983 195.798C138.891 195.758 138.871 195.607 138.861 195.486C138.851 195.364 138.851 195.272 138.792 195.219C138.733 195.167 138.615 195.153 138.437 195.091C138.26 195.028 138.023 194.917 137.852 194.756C137.681 194.595 137.576 194.384 137.411 194.233C137.247 194.082 137.024 193.99 136.79 193.904C136.557 193.819 136.313 193.74 136.077 193.7C135.84 193.661 135.61 193.661 135.347 193.644C135.084 193.628 134.788 193.595 134.559 193.557C134.331 193.519 134.17 193.477 134.083 193.426C133.996 193.375 133.982 193.316 133.982 193.237C133.982 193.158 133.996 193.059 133.994 192.978C133.992 192.898 133.976 192.836 133.894 192.783C133.811 192.73 133.663 192.688 133.552 192.62C133.44 192.553 133.364 192.461 133.29 192.394C133.216 192.326 133.144 192.283 133.042 192.264C132.94 192.244 132.809 192.247 132.697 192.231C132.585 192.214 132.493 192.178 132.391 192.075C132.289 191.971 132.177 191.8 132.117 191.663C132.056 191.527 132.046 191.425 132.046 191.32C132.046 191.215 132.056 191.106 131.992 190.975C131.928 190.843 131.789 190.689 131.683 190.547C131.576 190.406 131.5 190.278 131.459 190.145C131.418 190.012 131.411 189.873 131.413 189.776C131.415 189.679 131.425 189.624 131.449 189.577C131.474 189.532 131.513 189.495 131.512 189.425C131.51 189.354 131.467 189.249 131.362 189.093C131.257 188.936 131.089 188.729 130.902 188.529C130.714 188.328 130.507 188.134 130.31 187.986C130.113 187.838 129.925 187.736 129.83 187.564C129.735 187.391 129.732 187.148 129.722 186.872C129.712 186.596 129.695 186.287 129.685 186.015C129.675 185.744 129.672 185.511 129.671 185.271C129.669 185.031 129.669 184.784 129.666 184.551C129.662 184.317 129.656 184.097 129.601 183.913C129.547 183.729 129.445 183.581 129.421 183.482C129.396 183.384 129.449 183.334 129.478 183.214C129.508 183.094 129.514 182.903 129.509 182.721C129.505 182.539 129.488 182.365 129.542 182.253C129.596 182.141 129.721 182.092 129.814 182.057C129.906 182.023 129.965 182.003 129.975 181.929C129.984 181.855 129.945 181.727 129.97 181.64C129.994 181.552 130.083 181.506 130.132 181.437C130.182 181.368 130.192 181.276 130.131 181.164C130.07 181.053 129.938 180.921 129.794 180.809C129.649 180.698 129.491 180.606 129.381 180.487C129.271 180.369 129.209 180.224 129.184 180.033C129.159 179.843 129.172 179.606 129.167 179.409C129.163 179.212 129.14 179.054 129.113 178.939C129.087 178.824 129.057 178.751 128.98 178.644C128.903 178.537 128.778 178.396 128.615 178.25C128.452 178.103 128.252 177.952 128.089 177.775C127.926 177.597 127.801 177.393 127.708 177.232C127.614 177.071 127.552 176.953 127.509 176.81C127.466 176.667 127.443 176.499 127.45 176.372C127.456 176.246 127.492 176.16 127.491 176.055C127.489 175.95 127.45 175.825 127.381 175.689C127.312 175.552 127.213 175.404 127.167 175.256C127.121 175.108 127.127 174.96 127.095 174.822C127.062 174.684 126.99 174.556 126.973 174.444C126.957 174.332 126.996 174.237 126.96 174.109C126.924 173.981 126.812 173.82 126.749 173.65C126.685 173.481 126.671 173.303 126.724 173.184C126.777 173.064 126.899 173.001 127.004 173.001C127.109 173.001 127.198 173.063 127.239 172.996C127.279 172.929 127.271 172.731 127.232 172.611C127.193 172.492 127.124 172.449 127.039 172.417C126.953 172.386 126.851 172.366 126.8 172.228C126.749 172.09 126.749 171.834 126.753 171.644C126.756 171.454 126.763 171.331 126.767 171.24C126.772 171.148 126.776 171.089 126.78 170.995C126.784 170.9 126.789 170.77 126.811 170.665C126.833 170.56 126.873 170.479 126.929 170.445C126.986 170.41 127.06 170.422 127.114 170.475C127.169 170.529 127.203 170.624 127.271 170.671C127.34 170.717 127.441 170.716 127.495 170.645C127.548 170.575 127.553 170.435 127.556 170.328C127.558 170.221 127.558 170.147 127.546 170.044C127.533 169.94 127.509 169.807 127.531 169.671C127.553 169.536 127.622 169.397 127.698 169.302C127.774 169.207 127.856 169.154 127.935 169.128C128.014 169.102 128.089 169.102 128.129 169.036C128.168 168.97 128.171 168.839 128.168 168.523C128.165 168.207 128.155 167.708 128.161 167.397C128.168 167.086 128.191 166.965 128.319 166.818C128.448 166.672 128.681 166.501 128.865 166.403C129.049 166.304 129.184 166.277 129.304 166.287C129.424 166.297 129.529 166.343 129.618 166.358C129.707 166.373 129.779 166.356 129.855 166.304C129.93 166.251 130.009 166.163 130.103 166.049C130.196 165.936 130.305 165.798 130.368 165.597C130.43 165.397 130.447 165.133 130.497 164.798C130.548 164.463 130.634 164.055 130.716 163.74C130.798 163.424 130.877 163.2 130.992 163.046C131.107 162.891 131.259 162.806 131.387 162.753C131.515 162.701 131.62 162.681 131.699 162.54C131.778 162.398 131.831 162.135 131.88 161.892C131.929 161.649 131.975 161.425 132.061 161.275C132.146 161.126 132.271 161.05 132.335 160.973C132.4 160.896 132.403 160.817 132.462 160.746C132.521 160.675 132.636 160.613 132.728 160.552C132.82 160.491 132.889 160.432 132.935 160.317C132.982 160.202 133.004 160.031 133.055 159.878C133.106 159.725 133.185 159.59 133.281 159.411C133.376 159.232 133.488 159.009 133.598 158.805C133.708 158.601 133.816 158.417 133.941 158.226C134.066 158.036 134.208 157.838 134.316 157.699C134.425 157.559 134.5 157.477 134.533 157.394C134.566 157.312 134.556 157.23 134.52 157.149C134.484 157.069 134.421 156.99 134.401 156.893C134.382 156.796 134.405 156.681 134.349 156.648C134.293 156.615 134.158 156.665 134.056 156.646C133.954 156.628 133.885 156.543 133.893 156.327C133.902 156.112 133.987 155.767 134.041 155.496C134.096 155.224 134.119 155.027 134.199 154.905C134.28 154.784 134.418 154.738 134.449 154.687C134.48 154.636 134.405 154.58 134.375 154.496C134.345 154.412 134.362 154.301 134.362 154.195C134.362 154.09 134.345 153.992 134.242 153.85C134.138 153.709 133.948 153.525 133.76 153.262C133.573 152.999 133.389 152.657 133.221 152.368C133.053 152.078 132.902 151.842 132.817 151.625C132.731 151.408 132.711 151.211 132.702 151.03C132.692 150.849 132.692 150.684 132.741 150.497C132.79 150.309 132.889 150.099 132.922 149.918C132.955 149.738 132.922 149.586 132.807 149.281C132.692 148.975 132.495 148.515 132.268 148.137C132.041 147.758 131.784 147.462 131.669 147.262C131.554 147.061 131.581 146.956 131.594 146.696C131.607 146.437 131.607 146.023 131.559 145.763C131.511 145.503 131.416 145.398 131.36 145.218C131.304 145.039 131.288 144.786 131.28 144.544C131.272 144.303 131.272 144.073 131.29 143.882C131.308 143.691 131.344 143.54 131.387 143.394C131.429 143.247 131.479 143.106 131.489 142.971C131.498 142.836 131.469 142.708 131.378 142.562C131.288 142.416 131.137 142.251 131.017 142.105C130.897 141.959 130.808 141.83 130.775 141.663C130.742 141.495 130.765 141.288 130.801 141.066C130.838 140.844 130.887 140.608 130.966 140.39C131.045 140.173 131.153 139.976 131.275 139.807C131.396 139.638 131.531 139.496 131.645 139.352C131.758 139.207 131.85 139.059 131.918 138.885C131.985 138.711 132.028 138.51 132.097 138.382C132.166 138.254 132.261 138.198 132.368 138.073C132.475 137.948 132.593 137.754 132.705 137.568C132.817 137.383 132.922 137.205 132.989 137.039C133.057 136.873 133.086 136.718 133.157 136.566C133.228 136.413 133.34 136.262 133.448 136.135C133.557 136.008 133.662 135.906 133.744 135.821C133.826 135.735 133.885 135.666 133.92 135.578C133.954 135.489 133.964 135.38 133.908 135.239C133.852 135.098 133.731 134.924 133.7 134.827C133.668 134.729 133.728 134.71 133.828 134.647C133.928 134.585 134.069 134.48 134.117 134.379C134.165 134.279 134.119 134.184 134.038 134.052C133.958 133.921 133.843 133.753 133.765 133.592C133.688 133.431 133.649 133.276 133.691 133C133.734 132.724 133.859 132.326 133.986 132.15C134.112 131.974 134.24 132.02 134.365 132.02C134.49 132.02 134.612 131.974 134.803 131.986C134.993 131.997 135.253 132.066 135.5 132.106C135.746 132.145 135.98 132.155 136.123 132.198C136.266 132.241 136.318 132.316 136.469 132.303C136.621 132.29 136.871 132.188 137.114 132.03C137.357 131.873 137.594 131.659 137.78 131.455C137.965 131.251 138.1 131.057 138.289 130.899C138.478 130.742 138.721 130.62 138.883 130.539C139.044 130.459 139.123 130.419 139.187 130.442C139.251 130.465 139.3 130.551 139.33 130.668C139.359 130.784 139.369 130.932 139.348 131.123C139.327 131.314 139.274 131.547 139.31 131.646C139.346 131.744 139.471 131.708 139.604 131.626C139.737 131.544 139.879 131.416 139.951 131.33C140.023 131.244 140.027 131.202 139.996 131.139C139.966 131.077 139.902 130.995 139.88 130.919C139.857 130.843 139.877 130.774 139.937 130.74C139.997 130.705 140.097 130.705 140.205 130.699C140.313 130.692 140.428 130.679 140.567 130.649C140.707 130.62 140.872 130.574 140.983 130.58C141.095 130.587 141.154 130.646 141.169 130.756C141.184 130.866 141.154 131.027 141.158 131.136C141.163 131.244 141.2 131.3 141.278 131.272C141.355 131.243 141.472 131.13 141.535 131.048C141.598 130.967 141.608 130.917 141.629 130.815C141.651 130.712 141.684 130.556 141.699 130.41C141.713 130.265 141.71 130.13 141.659 130.045C141.608 129.959 141.509 129.923 141.498 129.826C141.486 129.729 141.562 129.571 141.664 129.459C141.766 129.348 141.894 129.282 141.998 129.302C142.101 129.321 142.18 129.427 142.293 129.482C142.407 129.538 142.555 129.545 142.711 129.502C142.867 129.46 143.031 129.367 143.176 129.329C143.321 129.29 143.446 129.305 143.508 129.424C143.569 129.544 143.568 129.767 143.591 129.902C143.615 130.037 143.665 130.083 143.808 130.095C143.952 130.107 144.191 130.086 144.325 130.021C144.458 129.956 144.488 129.847 144.444 129.783C144.399 129.719 144.281 129.7 144.192 129.665C144.103 129.63 144.044 129.581 144.077 129.499C144.11 129.417 144.235 129.302 144.338 129.21C144.442 129.118 144.524 129.049 144.627 128.992C144.73 128.935 144.853 128.891 144.969 128.867C145.085 128.843 145.193 128.84 145.323 128.885C145.453 128.93 145.604 129.024 145.653 129.151C145.701 129.279 145.647 129.44 145.586 129.536C145.525 129.632 145.458 129.663 145.469 129.711C145.48 129.759 145.568 129.823 145.649 129.919C145.729 130.015 145.802 130.143 145.844 130.264C145.887 130.385 145.9 130.498 145.943 130.558C145.986 130.617 146.058 130.622 146.138 130.579C146.218 130.536 146.305 130.446 146.419 130.393C146.533 130.34 146.674 130.326 146.752 130.283C146.829 130.24 146.842 130.17 146.783 130.098C146.724 130.027 146.592 129.954 146.466 129.875C146.339 129.795 146.218 129.708 146.179 129.629C146.14 129.55 146.185 129.479 146.227 129.399C146.268 129.32 146.308 129.231 146.324 129.173C146.339 129.116 146.331 129.09 146.272 129.062C146.213 129.034 146.103 129.004 146.048 128.94C145.994 128.876 145.996 128.777 146.022 128.686C146.048 128.595 146.099 128.511 146.3 128.329C146.5 128.148 146.85 127.868 147.032 127.723C147.213 127.577 147.227 127.566 147.313 127.5C147.399 127.434 147.559 127.314 147.767 127.137C147.975 126.959 148.231 126.724 148.456 126.519C148.681 126.315 148.875 126.141 149.102 125.971C149.329 125.802 149.589 125.638 149.783 125.552C149.977 125.467 150.105 125.46 150.149 125.531C150.194 125.601 150.154 125.749 150.161 125.861C150.168 125.973 150.22 126.048 150.329 126.098C150.437 126.147 150.602 126.17 150.709 126.21C150.815 126.249 150.865 126.305 150.853 126.376C150.842 126.446 150.769 126.532 150.636 126.66C150.503 126.788 150.309 126.959 150.232 127.102C150.155 127.245 150.194 127.36 150.306 127.388C150.418 127.416 150.602 127.357 150.761 127.295C150.921 127.232 151.055 127.166 151.17 127.165C151.285 127.163 151.381 127.225 151.494 127.23C151.608 127.235 151.739 127.183 151.756 127.089C151.772 126.995 151.673 126.86 151.591 126.77C151.509 126.68 151.443 126.634 151.443 126.53C151.443 126.426 151.509 126.265 151.46 126.165C151.41 126.065 151.246 126.025 151.131 125.97C151.016 125.914 150.95 125.841 150.891 125.731C150.832 125.621 150.779 125.473 150.796 125.347C150.812 125.22 150.898 125.115 151.049 124.995C151.2 124.875 151.417 124.74 151.54 124.572C151.664 124.405 151.693 124.204 151.787 124.064C151.881 123.925 152.038 123.846 152.206 123.767C152.374 123.688 152.551 123.609 152.63 123.514C152.709 123.418 152.689 123.307 152.599 123.272C152.508 123.238 152.347 123.28 152.247 123.272C152.147 123.264 152.107 123.205 152.137 123.068C152.166 122.932 152.265 122.718 152.439 122.514C152.614 122.311 152.863 122.117 153.067 122.075C153.271 122.034 153.429 122.146 153.524 122.296C153.62 122.445 153.653 122.633 153.662 122.761C153.672 122.889 153.659 122.958 153.664 123.032C153.669 123.106 153.692 123.185 153.618 123.294C153.544 123.402 153.373 123.54 153.255 123.713C153.136 123.885 153.071 124.093 153.039 124.285C153.008 124.477 153.011 124.655 153.079 124.725C153.146 124.796 153.278 124.76 153.349 124.665C153.419 124.569 153.429 124.415 153.503 124.309C153.577 124.204 153.715 124.148 153.838 124.009C153.962 123.869 154.07 123.645 154.149 123.45C154.228 123.254 154.277 123.086 154.36 122.908C154.442 122.729 154.558 122.539 154.664 122.382C154.77 122.224 154.865 122.099 154.967 122.015C155.069 121.932 155.177 121.889 155.286 121.881C155.394 121.873 155.503 121.899 155.577 121.968C155.651 122.037 155.69 122.149 155.767 122.148C155.844 122.148 155.958 122.035 156.038 122.053C156.118 122.071 156.164 122.218 156.207 122.274C156.25 122.33 156.289 122.294 156.327 122.207C156.365 122.12 156.401 121.982 156.46 121.937C156.519 121.893 156.601 121.942 156.68 122.062C156.759 122.182 156.835 122.373 156.938 122.392C157.041 122.412 157.172 122.26 157.165 122.072C157.159 121.885 157.015 121.662 156.881 121.526C156.746 121.39 156.621 121.341 156.431 121.356C156.24 121.37 155.983 121.449 155.827 121.439C155.671 121.429 155.615 121.331 155.548 121.311C155.48 121.291 155.401 121.351 155.311 121.352C155.221 121.354 155.119 121.298 155.063 121.143C155.007 120.989 154.997 120.736 154.936 120.537C154.875 120.339 154.762 120.195 154.753 120.084C154.745 119.972 154.84 119.893 154.937 119.795C155.034 119.696 155.133 119.578 155.189 119.441C155.245 119.305 155.258 119.15 155.325 119.073C155.392 118.996 155.514 118.996 155.626 119.054C155.738 119.111 155.839 119.226 155.969 119.248C156.099 119.269 156.257 119.197 156.328 119.091C156.398 118.986 156.382 118.848 156.329 118.725C156.277 118.601 156.188 118.493 156.208 118.407C156.227 118.322 156.356 118.26 156.477 118.297C156.599 118.335 156.714 118.473 156.789 118.655C156.864 118.837 156.9 119.063 156.914 119.25C156.929 119.437 156.922 119.585 156.997 119.668C157.072 119.751 157.228 119.769 157.302 119.678C157.377 119.587 157.371 119.386 157.358 119.215C157.344 119.044 157.325 118.903 157.305 118.72C157.284 118.537 157.264 118.313 157.221 118.173C157.178 118.033 157.112 117.977 156.969 117.908C156.826 117.839 156.605 117.756 156.563 117.658C156.52 117.559 156.655 117.444 156.614 117.293C156.573 117.142 156.356 116.954 156.207 116.805C156.059 116.656 155.979 116.545 155.918 116.404C155.857 116.263 155.814 116.092 155.82 115.966C155.827 115.839 155.883 115.757 155.957 115.712C156.031 115.668 156.123 115.661 156.11 115.591C156.096 115.52 155.978 115.385 155.939 115.265C155.899 115.145 155.939 115.04 156.011 114.981C156.083 114.922 156.188 114.909 156.264 114.884C156.34 114.859 156.386 114.823 156.413 114.687C156.442 114.55 156.451 114.314 156.529 114.179C156.606 114.044 156.75 114.011 156.814 114.128C156.879 114.245 156.862 114.511 156.892 114.629C156.921 114.747 156.997 114.718 157.038 114.634C157.079 114.55 157.086 114.412 157.147 114.356C157.208 114.3 157.323 114.327 157.388 114.402C157.454 114.478 157.471 114.603 157.533 114.67C157.596 114.738 157.704 114.747 157.771 114.802C157.839 114.856 157.865 114.954 157.886 115.153C157.908 115.352 157.924 115.651 158.08 115.877C158.237 116.102 158.532 116.253 158.694 116.27C158.855 116.286 158.881 116.168 158.881 115.97C158.881 115.773 158.855 115.497 158.879 115.282C158.904 115.066 158.98 114.912 159.022 114.792C159.065 114.672 159.075 114.586 159.157 114.522C159.239 114.458 159.394 114.415 159.571 114.399C159.749 114.382 159.949 114.392 160.056 114.349C160.163 114.307 160.176 114.211 160.104 114.108C160.032 114.004 159.874 113.892 159.831 113.71C159.788 113.528 159.861 113.274 159.964 113.2C160.068 113.126 160.203 113.232 160.272 113.343C160.341 113.455 160.344 113.574 160.443 113.656C160.541 113.738 160.735 113.784 160.918 113.787C161.1 113.791 161.271 113.751 161.413 113.718C161.555 113.685 161.669 113.659 161.755 113.603C161.841 113.547 161.901 113.462 161.902 113.36C161.904 113.258 161.848 113.14 161.854 113.034C161.861 112.929 161.93 112.837 162.007 112.761C162.084 112.686 162.17 112.627 162.183 112.548C162.196 112.469 162.137 112.37 162.106 112.25C162.075 112.13 162.071 111.989 162.119 111.831C162.167 111.673 162.266 111.499 162.43 111.229C162.594 110.96 162.825 110.595 162.948 110.333C163.071 110.072 163.087 109.914 163.038 109.801C162.989 109.688 162.874 109.619 162.803 109.553C162.732 109.487 162.706 109.425 162.708 109.296C162.709 109.168 162.739 108.974 162.699 108.872C162.66 108.77 162.552 108.76 162.509 108.688C162.466 108.616 162.489 108.481 162.502 108.359C162.516 108.238 162.519 108.129 162.473 108.078C162.427 108.027 162.331 108.034 162.289 107.99C162.246 107.945 162.256 107.85 162.175 107.756C162.095 107.662 161.924 107.57 161.797 107.431C161.671 107.291 161.588 107.103 161.621 106.985C161.654 106.867 161.802 106.818 161.966 106.822C162.131 106.827 162.312 106.887 162.435 106.99C162.558 107.094 162.624 107.242 162.703 107.337C162.782 107.432 162.874 107.475 162.953 107.427C163.032 107.38 163.097 107.242 163.13 107.094C163.163 106.946 163.163 106.788 163.206 106.652C163.249 106.515 163.334 106.4 163.451 106.306C163.568 106.213 163.715 106.14 163.814 106.099C163.913 106.058 163.962 106.048 164.018 106.017C164.074 105.986 164.136 105.933 164.207 105.892C164.278 105.851 164.357 105.822 164.399 105.743C164.442 105.664 164.449 105.535 164.5 105.427C164.551 105.318 164.646 105.23 164.595 105.174C164.544 105.118 164.347 105.095 164.204 105.06C164.061 105.026 163.972 104.98 163.978 104.868C163.985 104.756 164.087 104.579 164.207 104.534C164.327 104.49 164.465 104.579 164.58 104.651C164.695 104.723 164.787 104.779 164.787 104.735C164.787 104.69 164.695 104.546 164.687 104.398C164.679 104.25 164.754 104.099 164.856 103.989C164.958 103.878 165.086 103.809 165.216 103.836C165.346 103.862 165.478 103.984 165.558 104.135C165.639 104.286 165.668 104.467 165.703 104.6C165.737 104.733 165.777 104.819 165.829 104.945C165.882 105.072 165.948 105.239 165.938 105.341C165.928 105.443 165.843 105.48 165.711 105.45C165.58 105.42 165.402 105.325 165.276 105.34C165.149 105.355 165.073 105.48 165.067 105.562C165.06 105.644 165.123 105.683 165.152 105.754C165.182 105.825 165.178 105.927 165.218 106.014C165.257 106.101 165.34 106.173 165.428 106.135C165.517 106.098 165.612 105.95 165.709 105.881C165.806 105.811 165.905 105.821 165.987 105.879C166.069 105.936 166.135 106.041 166.178 106.158C166.221 106.275 166.24 106.403 166.311 106.456C166.382 106.508 166.503 106.485 166.65 106.52C166.796 106.554 166.967 106.646 167.107 106.781C167.246 106.916 167.355 107.094 167.421 107.246C167.486 107.399 167.509 107.528 167.439 107.659C167.368 107.791 167.204 107.925 167.138 108.106C167.072 108.287 167.105 108.514 167.202 108.621C167.299 108.727 167.46 108.714 167.58 108.749C167.7 108.783 167.779 108.866 167.809 109.01C167.838 109.155 167.818 109.362 167.846 109.429C167.874 109.497 167.95 109.424 168.063 109.403C168.177 109.382 168.328 109.411 168.44 109.475C168.551 109.54 168.624 109.638 168.652 109.732C168.68 109.825 168.663 109.914 168.744 109.998C168.824 110.082 169.002 110.161 169.069 110.266C169.137 110.371 169.094 110.503 169.129 110.608C169.163 110.713 169.275 110.792 169.39 110.899C169.505 111.006 169.623 111.14 169.651 111.3C169.679 111.459 169.617 111.644 169.6 111.844C169.584 112.045 169.613 112.262 169.684 112.457C169.755 112.653 169.867 112.827 170.001 113.033C170.136 113.238 170.294 113.475 170.348 113.675C170.402 113.876 170.353 114.04 170.328 114.182C170.304 114.323 170.304 114.441 170.348 114.566C170.393 114.691 170.481 114.823 170.531 114.93C170.58 115.036 170.59 115.119 170.585 115.225C170.58 115.332 170.56 115.464 170.614 115.599C170.669 115.733 170.797 115.871 170.871 116.016C170.945 116.161 170.965 116.312 170.978 116.568C170.991 116.825 170.997 117.186 170.996 117.645C170.994 118.104 170.984 118.659 170.999 118.95C171.014 119.241 171.053 119.268 171.101 119.337C171.149 119.406 171.205 119.517 171.241 119.643C171.277 119.767 171.293 119.906 171.29 120.017C171.287 120.129 171.264 120.215 171.228 120.287C171.192 120.359 171.142 120.418 171.126 120.609C171.109 120.8 171.126 121.122 171.16 121.339C171.195 121.556 171.248 121.668 171.307 121.77C171.366 121.871 171.432 121.964 171.476 122.067C171.52 122.171 171.543 122.286 171.563 122.481C171.583 122.677 171.599 122.953 171.639 123.196C171.678 123.44 171.741 123.65 171.808 123.764C171.875 123.877 171.948 123.893 171.976 123.954C172.004 124.015 171.988 124.12 171.996 124.234C172.004 124.347 172.037 124.469 172.126 124.617C172.214 124.765 172.359 124.939 172.502 125.074C172.645 125.208 172.786 125.304 172.857 125.47C172.928 125.636 172.928 125.872 172.931 126.058C172.934 126.244 172.941 126.379 172.947 126.533C172.954 126.688 172.961 126.862 172.937 127.077C172.914 127.293 172.862 127.549 172.773 127.827C172.684 128.105 172.559 128.404 172.428 128.619C172.296 128.835 172.158 128.966 172.073 129.135C171.987 129.305 171.954 129.512 171.933 129.668C171.912 129.824 171.902 129.929 171.854 129.995C171.807 130.061 171.721 130.087 171.617 130.192C171.514 130.298 171.392 130.482 171.31 130.635C171.228 130.787 171.185 130.909 171.113 130.978C171.041 131.047 170.939 131.064 170.861 131.029C170.784 130.995 170.731 130.909 170.626 130.796C170.521 130.682 170.363 130.541 170.215 130.46C170.067 130.38 169.929 130.36 169.855 130.283C169.781 130.205 169.771 130.071 169.77 129.946C169.768 129.821 169.775 129.706 169.724 129.599C169.673 129.492 169.564 129.393 169.479 129.3C169.393 129.206 169.331 129.117 169.311 129.022C169.291 128.927 169.314 128.825 169.344 128.751C169.374 128.676 169.41 128.631 169.42 128.57C169.429 128.509 169.413 128.433 169.346 128.384C169.278 128.335 169.16 128.312 169.101 128.248C169.042 128.183 169.042 128.078 169.048 127.907C169.055 127.736 169.068 127.5 169.035 127.375C169.002 127.25 168.923 127.237 168.747 127.253C168.571 127.27 168.298 127.316 168.099 127.396C167.901 127.477 167.776 127.592 167.684 127.715C167.592 127.838 167.532 127.97 167.527 128.087C167.523 128.203 167.572 128.305 167.593 128.407C167.615 128.509 167.608 128.611 167.624 128.731C167.641 128.851 167.68 128.989 167.741 129.16C167.802 129.331 167.884 129.535 167.937 129.699C167.989 129.864 168.012 129.988 168.034 130.105C168.055 130.222 168.075 130.33 168.068 130.441C168.062 130.551 168.029 130.662 167.961 130.746C167.894 130.83 167.792 130.886 167.743 130.965C167.694 131.044 167.697 131.146 167.751 131.207C167.805 131.267 167.91 131.287 167.963 131.363C168.016 131.439 168.016 131.57 168.055 131.66C168.095 131.751 168.174 131.8 168.32 131.894C168.466 131.987 168.68 132.126 168.796 132.237C168.913 132.349 168.933 132.435 168.898 132.523C168.864 132.612 168.775 132.704 168.721 132.842C168.666 132.98 168.647 133.165 168.66 133.312C168.673 133.46 168.719 133.572 168.772 133.641C168.824 133.71 168.883 133.737 168.897 133.878C168.91 134.019 168.877 134.276 168.834 134.46C168.791 134.644 168.739 134.756 168.675 134.859C168.611 134.963 168.535 135.058 168.492 135.168C168.45 135.278 168.44 135.403 168.433 135.484C168.426 135.565 168.423 135.601 168.346 135.64C168.269 135.68 168.117 135.722 168.033 135.813C167.95 135.903 167.933 136.041 168.037 136.178C168.14 136.314 168.364 136.449 168.513 136.531C168.663 136.613 168.739 136.643 168.679 136.694C168.62 136.745 168.426 136.817 168.229 136.871C168.032 136.926 167.831 136.962 167.688 136.993C167.545 137.024 167.46 137.05 167.328 137.162C167.197 137.274 167.019 137.471 166.886 137.656C166.753 137.84 166.664 138.011 166.617 138.162C166.569 138.313 166.562 138.444 166.48 138.635C166.398 138.826 166.24 139.076 166.132 139.316C166.023 139.556 165.964 139.786 165.941 140.006C165.918 140.226 165.931 140.437 166.017 140.601C166.102 140.766 166.26 140.884 166.326 141.002C166.391 141.121 166.365 141.239 166.352 141.381C166.339 141.522 166.339 141.686 166.401 141.831C166.464 141.976 166.589 142.101 166.615 142.255C166.641 142.41 166.569 142.594 166.444 142.962C166.319 143.33 166.142 143.882 166.033 144.234C165.925 144.586 165.885 144.737 165.895 144.888C165.905 145.04 165.964 145.191 165.987 145.316C166.01 145.441 165.997 145.539 165.921 145.641C165.846 145.743 165.708 145.849 165.621 145.992C165.533 146.135 165.497 146.315 165.482 146.501C165.468 146.687 165.474 146.878 165.471 147.002C165.468 147.127 165.454 147.187 165.395 147.318C165.336 147.45 165.231 147.653 165.109 147.861C164.988 148.068 164.85 148.278 164.728 148.564C164.606 148.85 164.501 149.212 164.416 149.511C164.33 149.81 164.264 150.047 164.172 150.346C164.08 150.645 163.962 151.007 163.834 151.227C163.706 151.447 163.567 151.526 163.479 151.684C163.39 151.842 163.351 152.079 163.305 152.286C163.259 152.493 163.206 152.67 163.196 152.884C163.186 153.098 163.219 153.348 163.157 153.558C163.094 153.768 162.936 153.939 162.772 154.232C162.607 154.525 162.437 154.939 162.321 155.271C162.206 155.603 162.147 155.853 162.081 156.162C162.016 156.471 161.943 156.839 161.92 157.128C161.897 157.418 161.924 157.628 161.861 157.852C161.799 158.075 161.647 158.312 161.486 158.565C161.325 158.818 161.154 159.088 161.019 159.394C160.885 159.699 160.786 160.041 160.648 160.465C160.51 160.889 160.332 161.396 160.188 161.876C160.043 162.356 159.931 162.809 159.862 163.151C159.793 163.493 159.767 163.723 159.732 163.862C159.698 164 159.655 164.045 159.584 164.113C159.514 164.18 159.415 164.269 159.431 164.32C159.448 164.371 159.579 164.384 159.617 164.499C159.655 164.614 159.599 164.831 159.522 165.053C159.445 165.275 159.346 165.502 159.25 165.75C159.155 165.998 159.063 166.268 159.007 166.505C158.951 166.741 158.932 166.945 158.846 167.244C158.761 167.543 158.609 167.938 158.341 168.671C158.074 169.404 157.689 170.476 157.428 171.121C157.166 171.765 157.028 171.982 156.939 172.215C156.85 172.448 156.811 172.698 156.732 172.981C156.653 173.264 156.535 173.58 156.43 173.882C156.325 174.184 156.232 174.474 156.137 174.72C156.042 174.967 155.943 175.171 155.92 175.437C155.897 175.703 155.95 176.032 155.956 176.354C155.963 176.677 155.923 176.992 155.848 177.268C155.772 177.544 155.66 177.781 155.562 178.031C155.463 178.281 155.378 178.544 155.348 178.791C155.319 179.037 155.345 179.267 155.276 179.527C155.207 179.787 155.042 180.076 154.894 180.369C154.746 180.661 154.615 180.957 154.549 181.21C154.484 181.464 154.483 181.674 154.451 182.068C154.418 182.463 154.352 183.042 154.201 183.64C154.049 184.238 153.813 184.856 153.596 185.257C153.379 185.659 153.182 185.843 153.09 186.092C152.997 186.342 153.011 186.658 152.919 186.914C152.827 187.171 152.629 187.368 152.485 187.684C152.34 187.999 152.248 188.433 152.136 188.802C152.024 189.17 151.893 189.472 151.847 189.702C151.801 189.933 151.84 190.09 151.781 190.189C151.722 190.288 151.564 190.327 151.485 190.432C151.406 190.537 151.406 190.708 151.34 190.853C151.275 190.998 151.143 191.116 151.077 191.254C151.012 191.392 151.012 191.55 150.952 191.636C150.893 191.721 150.775 191.734 150.671 191.816C150.568 191.899 150.479 192.05 150.392 192.102C150.305 192.155 150.219 192.109 150.107 192.073C149.996 192.037 149.858 192.01 149.71 192.14C149.562 192.27 149.404 192.556 149.069 192.687C148.734 192.819 148.221 192.797 147.873 192.778ZM169.711 137.052C169.568 137.364 169.374 137.758 169.204 138.013C169.035 138.268 168.89 138.383 168.738 138.408C168.585 138.433 168.423 138.367 168.479 138.102C168.535 137.837 168.808 137.374 169.01 136.953C169.212 136.532 169.344 136.154 169.443 135.926C169.541 135.697 169.607 135.618 169.701 135.702C169.794 135.786 169.916 136.032 169.931 136.271C169.946 136.509 169.854 136.739 169.711 137.052ZM160.854 109.351C160.718 109.376 160.54 109.478 160.415 109.611C160.29 109.744 160.218 109.908 160.236 110.063C160.254 110.218 160.363 110.362 160.497 110.411C160.632 110.461 160.793 110.415 160.872 110.321C160.951 110.227 160.948 110.086 160.953 109.969C160.958 109.852 160.971 109.76 161.01 109.675C161.05 109.59 161.116 109.511 161.101 109.445C161.086 109.379 160.99 109.326 160.854 109.351ZM158.568 113.514C158.395 113.464 158.227 113.374 158.127 113.259C158.027 113.145 157.994 113.007 158.01 112.884C158.025 112.76 158.089 112.652 158.15 112.601C158.211 112.55 158.269 112.557 158.31 112.516C158.352 112.474 158.379 112.386 158.418 112.29C158.458 112.195 158.51 112.093 158.624 112.044C158.739 111.995 158.915 111.998 159.026 112.06C159.138 112.123 159.186 112.244 159.183 112.349C159.179 112.453 159.125 112.54 159.142 112.621C159.158 112.701 159.245 112.775 159.286 112.854C159.327 112.933 159.322 113.017 159.31 113.085C159.298 113.153 159.278 113.206 159.242 113.287C159.206 113.367 159.153 113.475 159.037 113.525C158.921 113.574 158.742 113.564 158.568 113.514ZM159.106 113.669C158.982 113.653 158.795 113.752 158.743 113.874C158.691 113.997 158.775 114.143 158.885 114.208C158.995 114.273 159.131 114.256 159.214 114.2C159.296 114.143 159.324 114.046 159.307 113.932C159.291 113.817 159.23 113.686 159.106 113.669ZM155.224 117.062C155.134 117.085 155.019 117.174 155.001 117.278C154.982 117.381 155.062 117.5 155.117 117.618C155.173 117.736 155.206 117.855 155.249 117.95C155.292 118.045 155.344 118.118 155.407 118.106C155.469 118.095 155.541 117.999 155.581 117.863C155.62 117.727 155.627 117.549 155.599 117.419C155.571 117.289 155.509 117.207 155.444 117.145C155.38 117.082 155.315 117.039 155.224 117.062ZM153.906 120.679C153.833 120.77 153.77 120.946 153.758 121.11C153.746 121.275 153.784 121.427 153.931 121.505C154.078 121.582 154.334 121.584 154.46 121.475C154.586 121.367 154.581 121.148 154.507 120.98C154.433 120.812 154.29 120.696 154.177 120.64C154.063 120.584 153.979 120.589 153.906 120.679ZM130.647 133.087C130.483 133.109 130.301 133.219 130.288 133.357C130.276 133.495 130.434 133.661 130.62 133.71C130.805 133.758 131.019 133.689 131.104 133.584C131.188 133.479 131.144 133.338 131.049 133.234C130.955 133.13 130.81 133.065 130.647 133.087ZM130.675 148.122C130.519 148.133 130.397 148.193 130.342 148.319C130.286 148.446 130.296 148.64 130.373 148.783C130.45 148.926 130.595 149.018 130.748 148.998C130.901 148.978 131.062 148.847 131.141 148.692C131.22 148.538 131.216 148.36 131.119 148.253C131.022 148.147 130.831 148.11 130.675 148.122ZM129.697 147.505C129.582 147.545 129.48 147.627 129.452 147.744C129.424 147.861 129.47 148.012 129.597 148.094C129.723 148.176 129.931 148.189 130.059 148.128C130.187 148.068 130.236 147.933 130.225 147.811C130.213 147.69 130.141 147.581 130.041 147.525C129.941 147.469 129.812 147.466 129.697 147.505ZM130.777 146.843C130.621 146.845 130.394 146.956 130.342 147.124C130.289 147.292 130.411 147.515 130.57 147.598C130.73 147.68 130.927 147.621 131.022 147.507C131.118 147.394 131.111 147.226 131.065 147.088C131.019 146.95 130.933 146.841 130.777 146.843Z" fill="#DE2919" stroke="#DE2919" stroke-width="0.383231" stroke-miterlimit="22.9256" stroke-linecap="round" stroke-linejoin="round"/>
<path d="M108.902 269.124L111.494 269.969L111.326 270.483L109.344 269.837L108.911 271.166L110.699 271.749L110.532 272.263L108.743 271.679L108.041 273.834L107.43 273.634L108.902 269.124Z" fill="black"/>
<path d="M112.358 270.227L112.973 270.412L111.609 274.956L110.995 274.771L112.358 270.227Z" fill="black"/>
<path d="M113.461 270.569L117.331 271.631L117.188 272.152L115.564 271.706L114.452 275.761L113.83 275.59L114.942 271.536L113.318 271.09L113.461 270.569Z" fill="black"/>
<path d="M117.823 271.74L118.446 271.896L117.3 276.499L116.677 276.344L117.823 271.74Z" fill="black"/>
<path d="M120.989 273.141L119.623 275.254L121.325 275.636L120.989 273.141ZM120.774 272.444L121.484 272.604L122.209 277.629L121.558 277.483L121.403 276.201L119.317 275.732L118.628 276.825L117.968 276.677L120.774 272.444Z" fill="black"/>
<path d="M123.685 277.9L122.801 272.899L123.459 273.026L124.182 277.232L126.415 273.593L127.07 273.719L124.399 278.038L123.685 277.9Z" fill="black"/>
<path d="M128.663 274.602L127.432 276.797L129.155 277.071L128.663 274.602ZM128.404 273.921L129.123 274.035L130.164 279.004L129.505 278.9L129.269 277.63L127.157 277.294L126.539 278.429L125.871 278.322L128.404 273.921Z" fill="black"/>
<path d="M131.433 274.386L132.291 274.491L133.894 278.687L134.379 274.748L134.997 274.824L134.418 279.533L133.56 279.428L131.957 275.231L131.472 279.17L130.854 279.094L131.433 274.386Z" fill="black"/>
<path d="M137.627 275.705L136.553 277.981L138.291 278.134L137.627 275.705ZM137.322 275.044L138.047 275.107L139.433 279.992L138.768 279.933L138.444 278.683L136.313 278.496L135.776 279.671L135.102 279.611L137.322 275.044Z" fill="black"/>
<path d="M141.735 275.379L145.745 275.55L145.722 276.09L144.04 276.018L143.861 280.218L143.216 280.191L143.395 275.991L141.712 275.919L141.735 275.379Z" fill="black"/>
<path d="M147.294 276.193L146.392 278.542L148.137 278.565L147.294 276.193ZM146.94 275.555L147.667 275.565L149.414 280.332L148.746 280.324L148.33 279.101L146.192 279.073L145.744 280.285L145.067 280.276L146.94 275.555Z" fill="black"/>
<path d="M150.006 275.58L150.87 275.561L153.06 279.483L152.973 275.515L153.596 275.501L153.7 280.244L152.836 280.263L150.645 276.341L150.732 280.309L150.11 280.323L150.006 275.58Z" fill="black"/>
<path d="M154.749 275.443L155.391 275.412L155.615 280.152L154.974 280.182L154.749 275.443Z" fill="black"/>
<path d="M156.547 275.361L157.409 275.298L159.797 279.103L159.507 275.144L160.128 275.099L160.474 279.831L159.612 279.894L157.225 276.089L157.514 280.047L156.893 280.093L156.547 275.361Z" fill="black"/>
<path d="M161.919 275.454L162.325 279.121L163.096 279.035C163.746 278.963 164.206 278.763 164.474 278.435C164.745 278.107 164.845 277.624 164.774 276.989C164.705 276.357 164.502 275.911 164.166 275.652C163.832 275.391 163.34 275.296 162.689 275.369L161.919 275.454ZM161.222 275L162.533 274.855C163.447 274.754 164.139 274.87 164.608 275.204C165.078 275.535 165.357 276.105 165.447 276.914C165.537 277.727 165.389 278.347 165.001 278.776C164.614 279.205 163.966 279.47 163.056 279.57L161.745 279.716L161.222 275Z" fill="black"/>
<path d="M168.628 276.607C168.771 276.633 168.917 276.712 169.067 276.844C169.219 276.976 169.38 277.164 169.548 277.409L170.381 278.598L169.699 278.698L168.922 277.582C168.72 277.29 168.539 277.104 168.377 277.022C168.217 276.941 168.012 276.919 167.76 276.955L167.069 277.057L167.36 279.041L166.725 279.134L166.036 274.44L167.47 274.23C168.006 274.151 168.423 274.204 168.72 274.39C169.017 274.575 169.199 274.895 169.265 275.347C169.308 275.643 169.275 275.898 169.166 276.113C169.058 276.328 168.879 276.493 168.628 276.607ZM166.747 274.869L166.992 276.535L167.791 276.418C168.097 276.373 168.317 276.269 168.451 276.106C168.588 275.94 168.636 275.72 168.595 275.446C168.555 275.171 168.446 274.976 168.269 274.861C168.093 274.743 167.852 274.707 167.546 274.752L166.747 274.869Z" fill="black"/>
<path d="M171.763 274.167L171.326 276.646L173.043 276.335L171.763 274.167ZM171.294 273.61L172.01 273.48L174.634 277.827L173.977 277.946L173.335 276.825L171.231 277.206L171.022 278.48L170.356 278.601L171.294 273.61Z" fill="black"/>
<path d="M174.041 273.104L177.685 272.316L177.788 272.795L175.641 277.06L178.645 276.41L178.759 276.938L174.973 277.757L174.87 277.279L177.016 273.014L174.156 273.632L174.041 273.104Z" fill="black"/>
<path d="M180.197 272.343L179.931 274.846L181.622 274.419L180.197 272.343ZM179.691 271.819L180.397 271.641L183.311 275.799L182.664 275.962L181.947 274.888L179.873 275.411L179.752 276.697L179.096 276.862L179.691 271.819Z" fill="black"/>
<path d="M182.652 271.055L183.482 270.813L186.61 274.037L185.502 270.226L186.1 270.052L187.424 274.608L186.594 274.849L183.466 271.625L184.574 275.437L183.976 275.61L182.652 271.055Z" fill="black"/>
<path d="M188.863 269.824L188.776 272.339L190.433 271.793L188.863 269.824ZM188.321 269.337L189.012 269.109L192.216 273.049L191.582 273.258L190.79 272.237L188.759 272.907L188.73 274.198L188.087 274.41L188.321 269.337Z" fill="black"/>
<path d="M126.952 281.247L129.541 281.697L129.452 282.21L127.472 281.866L127.241 283.193L129.027 283.504L128.938 284.017L127.152 283.706L126.777 285.858L126.168 285.752L126.952 281.247Z" fill="black"/>
<path d="M131.228 282.554L130.076 284.688L131.741 284.926L131.228 282.554ZM130.969 281.901L131.663 282L132.742 286.773L132.106 286.683L131.859 285.462L129.818 285.171L129.24 286.274L128.594 286.182L130.969 281.901Z" fill="black"/>
<path d="M133.888 282.302L134.716 282.39L136.33 286.407L136.733 282.603L137.33 282.666L136.848 287.214L136.02 287.126L134.406 283.108L134.004 286.913L133.407 286.849L133.888 282.302Z" fill="black"/>
<path d="M138.972 283.307L138.73 286.855L139.476 286.906C140.105 286.949 140.576 286.838 140.886 286.573C141.199 286.307 141.377 285.867 141.419 285.252C141.46 284.641 141.344 284.184 141.07 283.88C140.798 283.575 140.348 283.401 139.718 283.358L138.972 283.307ZM138.39 282.758L139.658 282.845C140.542 282.905 141.178 283.134 141.567 283.531C141.955 283.926 142.123 284.514 142.069 285.296C142.016 286.083 141.769 286.646 141.328 286.987C140.887 287.327 140.227 287.467 139.347 287.407L138.078 287.32L138.39 282.758Z" fill="black"/>
<path d="M145.134 285.552C145.265 285.601 145.391 285.702 145.51 285.853C145.632 286.004 145.752 286.21 145.87 286.471L146.457 287.741L145.792 287.719L145.246 286.527C145.105 286.216 144.965 286.008 144.825 285.904C144.688 285.799 144.497 285.743 144.252 285.735L143.578 285.712L143.515 287.644L142.896 287.624L143.047 283.053L144.443 283.099C144.965 283.116 145.351 283.238 145.601 283.465C145.851 283.692 145.969 284.026 145.955 284.467C145.945 284.755 145.87 284.991 145.729 285.176C145.59 285.362 145.392 285.487 145.134 285.552ZM143.648 283.582L143.595 285.204L144.373 285.23C144.671 285.24 144.897 285.179 145.053 285.047C145.211 284.914 145.294 284.713 145.303 284.446C145.311 284.178 145.241 283.975 145.093 283.835C144.946 283.693 144.724 283.618 144.426 283.608L143.648 283.582Z" fill="black"/>
<path d="M149.102 283.593C148.653 283.594 148.296 283.762 148.031 284.098C147.768 284.433 147.638 284.89 147.639 285.468C147.64 286.043 147.773 286.498 148.037 286.833C148.303 287.167 148.661 287.334 149.11 287.333C149.559 287.332 149.914 287.163 150.175 286.828C150.437 286.493 150.568 286.037 150.567 285.461C150.566 284.883 150.433 284.427 150.169 284.093C149.907 283.759 149.551 283.592 149.102 283.593ZM149.101 283.091C149.742 283.089 150.255 283.303 150.64 283.733C151.024 284.161 151.218 284.737 151.219 285.46C151.221 286.18 151.03 286.757 150.647 287.188C150.264 287.618 149.752 287.834 149.111 287.835C148.468 287.836 147.953 287.623 147.566 287.195C147.181 286.767 146.988 286.192 146.986 285.469C146.985 284.746 147.175 284.17 147.558 283.74C147.943 283.309 148.457 283.092 149.101 283.091Z" fill="black"/>
<path d="M154.775 283.192L154.796 283.795C154.557 283.691 154.333 283.616 154.123 283.568C153.913 283.52 153.711 283.5 153.517 283.507C153.18 283.519 152.922 283.593 152.743 283.731C152.566 283.868 152.482 284.057 152.491 284.297C152.498 284.499 152.564 284.65 152.688 284.75C152.814 284.848 153.048 284.922 153.389 284.973L153.765 285.037C154.229 285.108 154.574 285.251 154.801 285.465C155.029 285.678 155.15 285.97 155.163 286.341C155.179 286.784 155.042 287.125 154.752 287.364C154.464 287.603 154.034 287.733 153.46 287.754C153.244 287.761 153.012 287.745 152.766 287.705C152.521 287.665 152.267 287.601 152.002 287.515L151.979 286.878C152.235 287.01 152.485 287.107 152.728 287.17C152.972 287.233 153.21 287.26 153.442 287.252C153.795 287.239 154.065 287.16 154.252 287.014C154.439 286.869 154.528 286.667 154.519 286.41C154.511 286.186 154.435 286.013 154.292 285.891C154.15 285.77 153.922 285.683 153.605 285.631L153.226 285.571C152.762 285.495 152.423 285.363 152.21 285.175C151.997 284.986 151.884 284.718 151.871 284.369C151.857 283.965 151.987 283.641 152.263 283.398C152.54 283.156 152.929 283.025 153.429 283.007C153.643 283 153.862 283.011 154.086 283.042C154.31 283.073 154.539 283.123 154.775 283.192Z" fill="black"/>
<path d="M157.738 283.285C157.29 283.315 156.945 283.507 156.703 283.859C156.463 284.211 156.363 284.676 156.402 285.252C156.442 285.827 156.605 286.272 156.89 286.588C157.178 286.904 157.546 287.046 157.994 287.016C158.442 286.985 158.785 286.793 159.023 286.441C159.263 286.089 159.363 285.626 159.324 285.052C159.284 284.475 159.121 284.029 158.836 283.713C158.552 283.397 158.186 283.254 157.738 283.285ZM157.703 282.784C158.343 282.74 158.869 282.919 159.282 283.323C159.694 283.724 159.925 284.286 159.975 285.007C160.024 285.726 159.872 286.314 159.518 286.77C159.165 287.224 158.668 287.473 158.029 287.517C157.387 287.561 156.859 287.382 156.444 286.981C156.032 286.579 155.801 286.018 155.752 285.297C155.702 284.576 155.854 283.988 156.208 283.534C156.563 283.078 157.062 282.828 157.703 282.784Z" fill="black"/>
<path d="M162.099 283.099L161.498 285.448L163.17 285.276L162.099 283.099ZM161.689 282.528L162.387 282.456L164.589 286.827L163.949 286.892L163.415 285.768L161.364 285.979L161.07 287.189L160.421 287.256L161.689 282.528Z" fill="black"/>
<path d="M164.631 282.212L165.457 282.099L167.985 285.614L167.466 281.823L168.06 281.742L168.681 286.272L167.856 286.386L165.327 282.871L165.847 286.661L165.252 286.742L164.631 282.212Z" fill="black"/>
<path d="M170.736 281.916L170.294 284.3L171.951 284.016L170.736 281.916ZM170.289 281.374L170.98 281.255L173.471 285.468L172.837 285.576L172.228 284.491L170.197 284.839L169.984 286.066L169.341 286.176L170.289 281.374Z" fill="black"/>
</svg>
