<svg width="300" height="300" viewBox="0 0 300 300" fill="none" xmlns="http://www.w3.org/2000/svg">
<path d="M58.9069 107.285C56.818 108.525 55.723 110.561 56.4683 111.818C57.2145 113.074 59.5269 113.087 61.6158 111.847C63.7045 110.606 64.7997 108.571 64.0538 107.314C63.3083 106.058 60.9958 106.044 58.9069 107.285Z" fill="#573F2F"/>
<path d="M241.393 107.285C243.482 108.525 244.577 110.561 243.832 111.818C243.086 113.074 240.773 113.087 238.684 111.847C236.595 110.606 235.5 108.571 236.246 107.314C236.992 106.058 239.304 106.044 241.393 107.285Z" fill="#573F2F"/>
<path d="M132.316 3.45585C132.316 3.45585 131.677 3.71276 131.869 4.73453C132.06 5.75807 130.335 4.98969 130.335 4.67133C130.335 4.35181 129.823 5.05464 130.015 5.24659C130.206 5.43854 130.782 5.6937 131.037 6.14138C131.293 6.58848 130.974 7.42007 130.718 7.16375C130.462 6.9086 129.631 6.84539 129.759 7.10055C129.887 7.35628 130.527 7.42066 131.038 8.31544C131.549 9.20906 130.974 9.27402 130.974 9.27402C130.974 9.27402 130.207 9.01769 130.207 9.40218C130.207 9.78608 130.335 10.1688 130.782 10.4245C131.23 10.6809 132.189 11.4481 132.7 11.4481C133.212 11.4481 133.02 12.1503 133.02 12.1503C133.02 12.1503 132.061 11.7032 131.869 12.3423C131.677 12.9813 132.317 13.4934 132.317 13.4934C132.317 13.4934 133.915 14.6445 134.554 14.7721C135.193 14.8991 135.577 15.7307 135.193 15.7945C134.809 15.8577 133.659 15.9226 133.275 15.8577C132.892 15.7944 132.444 16.5611 132.828 16.8812C133.212 17.2007 134.426 17.6484 135.513 17.9047C136.599 18.1593 136.408 18.607 136.152 18.7351C135.896 18.8633 134.234 19.0553 133.851 18.7351C133.467 18.415 132.508 19.1184 133.404 19.6305C134.299 20.142 135.961 19.8857 135.832 20.9086C135.705 21.931 134.874 21.5471 134.49 21.612C134.107 21.6752 133.595 22.2505 134.299 22.6344C135.002 23.0177 136.344 23.7849 137.047 23.7849C137.75 23.7849 137.942 24.8717 137.558 24.8717C137.175 24.8717 135.705 24.7447 135.64 24.6159C135.577 24.4884 134.298 24.6159 135.577 25.5751C136.855 26.4699 136.088 26.1504 137.303 26.598C138.517 27.0451 137.303 27.7492 137.111 27.6848C136.919 27.6204 136.024 28.3238 136.855 28.579C137.686 28.8359 138.326 29.2186 138.07 29.4744C137.814 29.7307 137.047 30.4324 137.942 30.6243C138.837 30.8168 140.179 31.0094 139.668 31.7116C139.156 32.4151 139.86 32.0311 140.754 32.3507C141.649 32.6714 140.818 33.3736 140.499 33.3098C140.179 33.2466 138.133 32.2231 137.941 32.7984C137.75 33.3736 138.07 33.5662 138.07 33.5662C138.07 33.5662 139.541 33.8219 140.179 34.3334C140.818 34.8437 140.946 35.2914 140.179 35.2914C139.412 35.2914 139.092 34.5247 138.645 34.9718C138.198 35.4201 139.156 36.1224 138.837 37.0172C138.517 37.9125 137.941 37.3373 137.941 36.1224C137.941 34.9086 136.919 33.9495 136.919 33.9495C136.919 33.9495 136.535 34.9081 136.535 33.373C136.535 31.8398 135.64 32.6058 135.64 33.1179C135.64 33.6294 136.215 34.5247 135.768 34.7161C135.32 34.9081 134.106 32.9265 134.106 32.2225C134.106 31.5191 133.083 31.3921 133.083 32.2225C133.083 33.0541 133.594 34.9081 134.234 35.9948C134.874 37.0815 136.024 38.4878 135.448 38.8073C134.873 39.1268 134.362 39.1912 134.362 38.6154C134.362 38.0401 132.189 32.9265 131.102 31.6478C130.014 30.3691 129.951 30.4324 129.951 31.2639C129.951 32.0944 131.932 34.3966 131.485 35.7385C131.037 37.0821 130.59 35.7385 130.527 35.7385C130.462 35.7385 129.503 31.903 127.586 29.4106C125.668 26.9182 125.668 28.579 126.18 29.2186C126.69 29.8571 128.673 32.3507 128.417 33.9495C128.161 35.5471 127.65 34.8431 127.522 34.0765C127.394 33.3098 125.604 28.452 123.303 26.5331C121.001 24.6159 121.384 26.4699 121.896 26.79C122.408 27.1095 124.837 29.6019 124.901 31.8398C124.965 34.0771 124.197 32.6064 124.006 32.1599C123.814 31.7116 122.919 27.9399 120.234 25.7033C117.549 23.466 118.956 26.2779 118.956 25.8946C118.956 25.5107 121.768 28.5152 121.768 30.4324C121.768 32.3507 120.938 31.6478 120.873 31.2639C120.809 30.8806 119.659 27.4934 117.549 26.086C115.44 24.6797 115.568 24.2958 114.8 24.5527C114.034 24.8079 113.586 24.6159 113.33 24.1677C113.075 23.7211 110.901 22.9539 111.732 24.5527C112.563 26.1504 110.453 24.2326 110.39 24.1677C110.326 24.1045 107.704 22.8907 108.6 24.1677C109.494 25.4475 112.819 26.0866 112.819 27.6848C112.819 29.2824 113.394 29.4744 112.243 28.7071C111.093 27.9399 110.453 25.5113 107.769 24.6797C105.084 23.8487 107.769 26.1504 107.704 25.8314C107.641 25.5113 109.943 27.1739 108.728 27.4934C107.513 27.8124 107.321 26.6618 106.938 26.0866C106.554 25.5113 105.02 24.1677 104.636 24.7447C104.253 25.3199 105.084 25.5751 104.509 25.5751C103.933 25.5751 102.335 24.9992 102.399 26.0866C102.463 27.1739 101.888 26.5337 101.504 26.5337C101.12 26.5337 100.481 26.7256 100.546 27.1101C100.609 27.494 99.3309 27.1101 99.3309 27.5572C99.3309 28.0037 99.97 28.1957 100.354 28.2606C100.738 28.3238 101.057 28.5796 100.354 29.2192C99.6502 29.8577 99.9062 31.0094 100.738 30.6893C101.568 30.3697 102.271 29.8577 103.039 29.8577C103.806 29.8577 103.997 29.6663 103.614 30.2416C103.23 30.8168 102.783 31.5203 103.614 31.5203C104.445 31.5203 106.746 29.5393 107.258 30.3065C107.769 31.0732 107.769 31.2645 107.129 31.7766C106.491 32.2869 107.066 32.8633 108.088 32.7352C109.111 32.607 110.709 31.5852 111.605 32.0955C112.499 32.607 111.86 32.7352 111.413 32.9909C110.965 33.2472 110.39 33.9501 111.157 33.9501C111.924 33.9501 112.563 33.6937 113.906 33.7587C115.248 33.8219 114.673 32.9909 115.376 33.6305C116.079 34.269 116.527 34.269 115.632 34.6529C114.736 35.0368 114.417 35.996 115.504 35.931C116.591 35.8678 117.741 35.0374 119.148 35.2287C120.554 35.4207 120.618 35.5477 120.042 36.123C119.467 36.6982 118.572 36.6344 118.572 37.2746C118.572 37.9137 119.531 37.9137 119.915 37.785C120.298 37.6585 121.384 37.1465 121.896 37.1465C122.408 37.1465 122.919 37.2103 122.471 37.7217C122.024 38.2332 121.704 37.9775 121.384 38.489C121.065 39.0004 121.065 39.1924 122.024 39.2562C122.983 39.3205 124.517 39.1286 124.773 39.2562C125.028 39.3838 126.307 39.3838 125.668 39.6389C125.028 39.8958 123.558 40.663 124.389 40.8544C125.22 41.0457 126.115 41.2377 127.138 41.1095C128.16 40.9825 129.119 41.621 128.544 41.813C127.969 42.0055 127.266 42.5802 128.608 42.5802C129.951 42.5802 130.781 42.5802 130.781 43.0917C130.781 43.6031 129.95 43.283 129.566 44.1152C129.183 44.9456 132.188 47.503 133.658 49.8052C135.128 52.1057 135 50.3799 134.489 51.2753C133.977 52.1689 132.955 51.8499 132.635 51.0821C132.315 50.3149 131.612 48.973 129.694 47.1197C127.777 45.2657 127.904 45.0738 127.649 45.0738C127.393 45.0738 126.881 45.5852 127.712 46.5444C128.543 47.503 130.589 48.9098 130.972 50.5718C131.356 52.2338 129.758 51.4022 129.694 51.0189C129.63 50.635 128.607 48.1414 126.179 45.9686C123.749 43.7951 121.575 43.7313 122.47 44.7537C123.365 45.7778 126.562 47.4398 126.945 49.5483C127.329 51.6586 125.73 50.4437 125.667 50.0598C125.603 49.6765 124.261 47.0547 121.959 45.4577C119.658 43.8589 118.188 44.0502 118.827 45.137C119.466 46.2237 118.443 45.841 118.252 45.6484C118.06 45.4577 116.397 44.3066 115.95 44.5617C115.503 44.8174 115.184 44.8818 115.567 45.5852C115.95 46.2875 114.927 45.841 114.032 45.5209C113.137 45.2025 112.05 44.8174 112.05 45.649C112.05 46.4794 110.58 45.3933 110.197 45.3289C109.813 45.2657 106.873 44.5623 106.873 45.1376C106.873 45.7128 108.087 46.4794 106.873 46.5444C105.658 46.6076 104.316 46.7996 104.955 47.503C105.594 48.2064 107.32 47.2472 109.174 49.7397C111.028 52.2338 108.471 50.6988 108.407 50.6988C108.343 50.6988 107.449 49.3563 106.233 48.8449C105.019 48.3334 103.74 47.6943 102.462 47.5662C101.183 47.4398 100.097 48.1414 101.247 48.6529C102.399 49.165 104.827 49.2931 106.106 50.827C107.385 52.3608 104.508 51.2753 104.252 50.7632C103.996 50.2517 100.8 49.6765 100.8 49.6765C100.8 49.6765 95.942 49.6121 99.33 50.827C102.718 52.0425 104.444 53.2562 101.312 52.3608C98.1792 51.4672 93.2561 51.5942 95.494 52.5522C97.7312 53.5119 94.5989 52.9373 94.088 53.0005C93.5765 53.0637 92.1059 53.5119 93.1291 54.8544C94.1515 56.1963 91.7229 55.1096 93.0013 55.6216C94.28 56.1331 91.3393 56.7084 93.4481 56.8359C95.5586 56.9635 90.3163 58.0502 91.5953 58.1784C92.8734 58.3066 89.4212 60.5438 91.9786 59.9686C94.5354 59.3939 92.2346 60.1599 93.1932 60.6708C94.1515 61.1823 94.2159 59.3939 94.5992 59.3289C94.9834 59.2651 96.0695 57.2836 96.0695 58.7537C96.0695 60.2243 95.4305 61.1191 97.3482 59.0732C99.266 57.0279 98.8183 58.4336 98.6901 59.137C98.5622 59.8404 98.6901 60.607 99.3938 60.1599C100.097 59.7123 99.7137 61.7576 100.481 60.7358C101.247 59.7122 101.12 58.3704 102.015 57.7951C102.91 57.2198 103.805 56.5796 103.229 58.0502C102.653 59.5203 102.91 60.9271 104.316 58.8818C105.722 56.8359 106.298 56.3877 105.978 57.6031C105.658 58.8169 105.85 59.9036 106.873 58.4336C107.896 56.9635 108.791 56.5802 108.215 57.8583C107.64 59.137 108.599 58.4979 109.174 58.2422C109.75 57.9865 110.069 57.9233 109.878 58.7537C109.685 59.5847 111.475 56.7084 111.987 56.1331C112.498 55.5578 114.224 53.8958 112.754 56.8997C111.284 59.9042 113.84 57.5388 113.84 57.5388C113.84 57.5388 117.996 53.5119 116.461 56.3245C114.927 59.1376 115.694 59.3939 116.909 58.4979C118.123 57.6031 119.658 54.6625 118.763 57.0279C117.868 59.3939 118.187 59.9036 119.658 58.3704C121.128 56.8359 124.26 53.0637 123.109 56.452C121.958 59.8404 124.388 57.1549 124.772 56.7084C125.155 56.2601 127.137 55.2377 125.603 57.2198C124.069 59.2002 126.881 57.9865 127.457 57.5382C128.032 57.0911 130.077 55.2377 128.607 57.6664C127.137 60.0956 128.096 59.2651 129.694 58.4336C131.292 57.6026 131.484 58.4336 130.717 59.4571C129.95 60.4789 129.246 59.2002 129.95 60.9904C130.653 62.7811 128.991 61.8225 128.287 61.9495C127.584 62.0771 128.927 62.7805 127.329 63.0995C125.73 63.4196 121 63.5477 123.686 64.8258C126.37 66.1045 122.982 65.0816 122.599 65.4649C122.215 65.8482 120.425 66.1045 121.448 66.5516C122.47 66.9999 120.297 67.3182 119.85 67.255C119.402 67.1918 114.416 68.1504 117.101 68.4705C119.786 68.7901 125.219 67.3832 125.603 68.7901C125.987 70.1957 122.983 69.3009 122.151 69.3009C121.32 69.3009 110.197 70.0038 114.927 70.5153C119.658 71.0256 120.169 70.4509 120.681 70.8992C121.192 71.3457 118.252 71.5376 117.357 71.5376C116.462 71.5376 110.07 72.433 112.69 72.6882C115.311 72.9445 115.056 73.1996 113.329 73.5829C111.603 73.9668 108.663 74.9904 111.987 75.1179C115.311 75.2455 119.53 75.3737 115.503 76.0771C111.475 76.7799 111.347 75.757 109.046 76.5236C106.745 77.292 105.53 77.8023 112.498 77.8673C119.466 77.9305 113.457 78.3776 113.648 78.6339C113.84 78.8896 108.471 78.6971 105.85 79.7206C103.229 80.743 104.508 81.1919 103.74 81.8297C102.974 82.4694 101.183 83.94 105.211 83.3004C109.238 82.6619 103.677 84.7066 103.165 84.7066C102.653 84.7066 97.2195 89.053 104.124 86.0491C111.028 83.0446 106.681 85.4739 106.233 86.3692C105.786 87.2634 100.288 88.7335 100.288 88.7335C100.288 88.7335 99.7766 90.0122 101.374 89.6283C102.973 89.245 104.188 87.391 105.019 88.2226C105.85 89.0536 103.42 89.5013 101.503 90.3967C99.5849 91.2903 96.7724 93.9758 102.334 91.6742C107.895 89.3731 103.229 92.2506 102.781 92.5058C102.334 92.7609 99.4573 93.4005 98.4347 95.2545C97.4111 97.1085 97.8594 98.5785 99.2016 97.6831C100.544 96.7883 100.672 96.9797 100.033 98.1302C99.3935 99.2819 99.074 101.327 99.5217 101.774C99.9688 102.223 100.608 102.861 100.864 100.624C101.12 98.3866 101.887 98.7705 101.887 99.7922C101.887 100.816 102.59 100.177 102.782 98.7067C102.974 97.2349 103.932 97.4918 103.932 98.2584C103.932 99.0256 104.444 99.6652 104.827 97.0429C105.211 94.4229 105.658 94.2959 105.787 95.4464C105.914 96.5964 106.681 98.7705 107 95.2545C107.32 91.7386 107.832 91.9305 108.024 93.2724C108.216 94.6149 108.855 95.4464 109.302 92.3138C109.75 89.1818 109.622 86.6876 110.261 89.6932C110.9 92.6977 111.54 89.1168 111.54 87.8399C111.54 86.5612 112.435 85.0273 112.435 86.8163C112.435 88.6065 113.393 90.3967 114.416 87.0715C115.439 83.7487 115.503 82.5975 115.503 84.8986C115.503 87.1996 116.59 85.6658 116.717 84.8354C116.845 84.0044 118.06 77.5477 118.635 81.9585C119.211 86.3698 119.914 82.6619 119.85 81.6384C119.786 80.6148 121 76.0139 121.064 80.6148C121.128 85.2187 122.598 79.9764 122.535 79.7212C122.47 79.4643 123.11 74.6065 123.749 78.5695C124.388 82.5332 125.028 78.3144 124.963 77.8673C124.9 77.419 126.498 72.1773 126.179 76.7167C125.859 81.2551 127.201 77.8023 127.201 77.2271C127.201 76.6518 128.224 72.6882 128.287 75.7564C128.352 78.8259 129.374 74.4151 129.374 74.6059C129.374 74.7978 129.758 74.5427 130.014 73.0071C130.269 71.4738 130.845 72.6244 130.845 73.3278C130.845 74.0312 129.822 75.9478 131.484 75.0536C133.146 74.1594 132.123 75.2449 132.187 75.9484C132.251 76.6518 135.192 74.1594 136.79 73.7749C138.388 73.3916 139.347 74.0944 137.174 74.6697C135 75.2455 131.356 77.6104 130.845 78.442C130.334 79.2724 129.95 80.6798 130.973 80.2315C131.996 79.7838 131.612 80.6148 131.164 80.9344C130.717 81.2551 129.183 84.067 131.484 82.4694C133.786 80.8712 132.059 81.1263 135.32 79.9758C138.58 78.8259 136.087 80.6143 135.064 81.0625C134.041 81.5096 130.27 83.0446 128.735 84.8986C127.201 86.7525 128.864 86.5606 129.055 86.4324C129.247 86.3043 130.845 84.3233 133.082 83.4285C135.32 82.5332 135.384 82.4694 135.064 83.4917C134.744 84.5153 133.018 84.1952 131.868 85.0905C130.717 85.9853 128.735 87.1359 127.777 88.9254C126.817 90.715 126.754 90.4599 127.969 90.5236C129.183 90.588 131.292 86.5606 133.211 86.3043C135.128 86.0491 133.721 87.4548 133.466 87.4548C133.211 87.4548 132.251 87.5198 131.037 88.4783C129.822 89.4369 128.352 90.2035 127.777 91.5466C127.201 92.8891 127.138 91.9305 128.8 91.9305C130.462 91.9305 129.886 89.757 131.932 89.4369C133.978 89.1168 133.274 90.6518 132.699 90.7806C132.124 90.907 128.735 91.9943 127.138 94.5511C125.539 97.1084 128.16 95.7654 128.16 95.7654C128.16 95.7654 129.311 93.8477 131.484 92.9523C133.658 92.0587 132.188 93.6563 132.379 93.7207C132.571 93.7845 128.608 94.9344 126.626 97.8757C124.645 100.816 127.393 99.6009 127.585 99.09C127.777 98.5785 129.247 96.3412 131.037 95.893C132.827 95.4465 131.804 96.9797 131.356 97.4286C130.909 97.8757 127.713 98.3871 126.307 101.264C124.9 104.14 127.329 102.158 127.329 102.158C127.329 102.158 128.224 99.6652 130.526 99.3457C132.827 99.0256 132.059 99.3457 130.717 100.496C129.374 101.648 127.073 102.925 127.009 104.332C126.946 105.739 126.69 106.634 127.968 105.354C129.247 104.077 130.909 102.67 130.909 102.67C130.909 102.67 132.699 102.798 130.909 103.501C129.118 104.204 126.881 106.378 126.881 107.081C126.881 107.784 126.05 109.767 128.032 107.656C130.014 105.547 128.927 107.272 128.479 108.168C128.032 109.063 127.265 112.195 129.183 109.638C131.101 107.081 129.439 107.209 130.462 108.04C131.484 108.871 131.164 108.807 130.845 109.255C130.526 109.702 130.462 109.446 129.375 111.108C128.288 112.77 126.946 113.793 128.288 113.985C129.631 114.176 128.992 115.774 129.055 116.478C129.119 117.181 129.758 117.628 130.397 117.053C131.037 116.478 130.909 118.652 130.909 119.29C130.909 119.931 131.804 119.674 131.804 119.354C131.804 119.035 131.676 116.798 132.379 117.693C133.082 118.587 133.721 118.332 133.53 117.565C133.338 116.798 131.868 113.409 133.274 114.688C134.681 115.966 133.53 113.089 133.402 112.706C133.274 112.322 133.274 110.277 134.169 112.45C135.064 114.624 135.064 111.108 134.873 110.66C134.681 110.213 135.064 108.807 135.512 110.341C135.96 111.875 135.768 109.958 135.384 107.848C135 105.739 134.361 103.5 135.512 104.524C136.662 105.547 137.813 105.866 136.982 104.204C136.151 102.542 134.617 98.3228 136.023 99.7928C137.429 101.265 137.302 101.265 137.174 99.921C137.046 98.5791 136.983 98.0038 137.941 98.963C138.9 99.921 139.028 97.7475 138.453 97.236C137.877 96.7251 136.918 94.1683 137.813 94.8068C138.708 95.447 138.389 94.2965 138.261 93.785C138.133 93.2736 138.9 93.3379 139.283 93.7212C139.668 94.1051 139.347 91.8679 138.964 91.6116C138.58 91.3564 137.685 88.2232 138.772 89.2455C139.859 90.2691 139.731 89.7576 140.051 88.926C140.37 88.0956 140.69 88.4157 140.37 89.5025C140.051 90.5892 139.283 92.3144 140.498 91.8679C141.713 91.4196 140.69 92.5701 140.562 93.2104C140.434 93.8488 140.178 95.447 141.329 94.6154C142.479 93.785 141.648 95.7028 141.521 96.1505C141.392 96.5976 140.434 100.37 142.288 97.5556C144.141 94.743 143.631 95.1907 142.991 96.8527C142.352 98.5153 141.521 100.562 141.776 101.136C142.032 101.712 143.119 100.369 144.462 97.0441C145.804 93.7207 147.593 92.8259 147.018 93.9764C146.443 95.1269 144.845 97.9395 144.142 99.8578C143.438 101.775 142.032 106.441 143.566 105.099C145.101 103.757 144.014 105.803 143.887 106.314C143.758 106.826 143.247 108.871 143.95 107.911C144.653 106.953 144.653 108.68 144.589 109.767C144.525 110.852 144.973 111.108 144.717 112.706C144.461 114.305 145.548 114.113 145.803 113.601C146.059 113.089 145.995 114.688 146.123 115.136C146.251 115.583 146.379 116.542 147.082 116.03C147.785 115.52 147.785 116.734 147.785 117.31C147.785 117.885 148.68 115.263 148.488 117.437C148.296 119.61 149.703 121.081 149.767 120.058C149.831 119.035 150.854 119.866 151.173 121.336C151.493 122.806 152.58 123.19 152.58 122.231C152.58 121.272 151.493 118.332 152.643 119.61C153.794 120.889 153.474 119.354 153.347 118.844C153.219 118.332 151.11 116.415 152.26 116.862C153.411 117.31 153.858 116.67 153.411 116.094C152.963 115.519 151.301 113.921 152.452 113.857C153.603 113.793 153.73 113.089 152.835 111.939C151.941 110.788 153.347 110.981 154.05 111.492C154.753 112.003 154.498 110.406 153.73 109.575C152.963 108.743 151.941 106.634 153.283 107.144C154.625 107.656 154.242 106.698 154.05 106.249C153.858 105.802 150.918 102.862 153.091 103.949C155.265 105.036 154.69 104.587 154.243 103.309C153.795 102.031 151.173 99.2176 152.899 99.6015C154.625 99.9854 154.243 98.8342 153.666 98.1308C153.091 97.4286 152.068 95.9585 153.603 96.2774C155.137 96.597 153.028 95.1263 153.091 94.8718C153.155 94.6155 151.877 93.2098 153.155 93.273C154.434 93.3374 154.114 92.9529 153.603 91.9311C153.091 90.9075 152.644 90.0771 154.114 90.9075C155.585 91.7391 154.882 89.8852 154.625 89.2455C154.369 88.6071 152.452 86.9451 154.05 87.1364C155.649 87.3284 154.498 86.2417 154.434 85.8578C154.37 85.4739 156.287 85.8578 155.585 84.6429C154.882 83.4291 152.452 81.2551 153.922 81.5102C155.393 81.7671 154.051 79.9132 153.859 79.273C153.666 78.6345 152.835 77.1006 153.922 77.5472C155.009 77.9943 155.457 79.9764 156.288 80.1045C157.119 80.2315 158.142 79.8476 157.758 80.4235C157.375 80.9987 158.142 80.9344 159.037 79.9764C159.931 79.0178 160.635 77.292 160.762 78.1856C160.891 79.081 160.251 80.1045 159.868 80.6148C159.484 81.1263 157.246 83.6199 157.246 84.6423C157.246 85.6658 157.183 86.0491 158.653 84.1952C160.123 82.3418 161.785 81.5752 160.827 83.4917C159.868 85.4107 158.142 89.3731 160.251 86.8157C162.361 84.259 163 84.8354 161.209 87.391C159.42 89.9484 159.548 91.2903 161.146 89.4369C162.744 87.5835 164.917 84.7066 163 88.7979C161.082 92.8891 159.356 94.1678 161.466 92.9523C163.575 91.7391 163.447 91.611 162.871 92.8259C162.296 94.0396 160.699 95.1263 160.699 95.4464C160.699 95.7654 160.315 97.8119 162.232 95.7654C164.151 93.7207 164.086 95.0625 163.447 96.0849C162.808 97.1084 157.949 102.798 162.169 99.9854C166.387 97.1716 162.935 100.113 162.935 100.496C162.935 100.88 160.378 105.162 163.255 102.223C166.132 99.2819 164.278 102.925 163.766 103.053C163.255 103.181 159.42 108.551 162.04 107.08C164.662 105.61 165.301 104.076 164.789 105.674C164.278 107.272 162.552 108.296 162.232 108.742C161.913 109.19 159.995 112.642 162.04 111.235C164.086 109.829 165.237 107.911 164.598 109.575C163.958 111.235 162.04 113.218 163.511 112.962C164.981 112.706 163.638 113.857 163.319 114.559C163 115.263 162.808 116.478 163.703 116.094C164.598 115.711 164.343 117.053 164.343 117.628C164.343 118.204 165.365 118.586 165.621 117.501C165.877 116.415 165.301 116.478 166.58 116.67C167.858 116.861 166.387 115.774 166.516 114.944C166.644 114.112 167.794 114.624 168.242 115.007C168.689 115.391 169.52 116.286 170.032 115.454C170.542 114.624 168.88 111.746 167.922 110.66C166.963 109.575 167.027 107.336 167.794 108.231C168.561 109.126 169.776 111.427 169.904 112.003C170.032 112.579 170.862 112.003 170.479 110.596C170.096 109.19 169.521 107.656 168.689 106.889C167.858 106.122 167.091 104.14 168.114 104.843C169.137 105.547 170.671 109.51 170.671 109.51C170.671 109.51 172.269 112.13 171.949 109.126C171.63 106.122 168.88 103.82 168.561 103.373C168.242 102.925 167.283 101.391 168.242 101.455C169.2 101.519 171.182 105.674 171.182 105.674C171.182 105.674 172.333 106.057 171.373 103.436C170.415 100.816 168.434 100.049 168.178 99.6003C167.922 99.1532 167.41 96.5332 168.625 98.0027C169.84 99.4733 171.246 101.327 171.502 102.733C171.757 104.14 172.589 102.477 172.141 101.582C171.694 100.687 170.735 97.8113 168.945 96.2763C167.155 94.7424 167.922 94.039 168.817 94.9982C169.712 95.9579 172.972 101.839 172.781 98.898C172.589 95.9579 169.52 93.5925 168.945 92.9523C168.37 92.3138 168.242 90.715 169.265 91.9305C170.287 93.1454 172.781 96.5332 172.077 93.9758C171.373 91.419 168.242 89.5651 168.242 89.5651C168.242 89.5651 167.155 87.8393 168.434 88.4145C169.712 88.9898 174.762 96.2131 173.227 91.8023C171.694 87.3916 171.246 89.5651 170.991 88.6065C170.734 87.6467 172.333 87.9669 172.333 87.9669C172.333 87.9669 171.438 86.6882 170.351 85.9859C169.265 85.2825 169.52 84.771 170.287 85.0911C171.054 85.4107 172.014 85.1543 170.863 83.8756C169.712 82.5975 168.689 80.2965 170.351 82.0217C172.014 83.7487 173.356 83.7487 172.333 81.9585C171.31 80.1683 169.84 79.6568 170.479 78.6977C171.118 77.7397 169.584 76.1409 170.927 76.8443C172.269 77.5477 171.694 79.4649 172.589 78.8902C173.484 78.315 173.42 74.8622 173.995 78.6345C174.57 82.4056 175.529 83.1728 175.529 81.0637C175.529 78.9534 176.871 81.1919 176.871 83.4923C176.871 85.794 177.831 87.264 178.086 85.2825C178.342 83.301 179.046 82.5338 178.981 85.2825C178.917 88.0318 180.771 87.9669 180.708 85.6026C180.643 83.2372 182.114 85.9865 181.602 88.7341C181.091 91.4828 181.154 95.6384 182.753 90.9725C184.351 86.3049 184.031 89.0536 184.287 90.6524C184.543 92.2512 184.607 94.4235 185.694 92.3144C186.78 90.2041 186.269 94.3603 186.204 95.5102C186.141 96.6608 187.547 96.9803 187.547 95.5734C187.547 94.1683 188.953 96.0855 188.505 98.0038C188.059 99.921 188.505 100.177 189.337 100.304C190.167 100.433 190.807 103.5 190.871 102.095C190.935 100.688 191.446 101.519 192.148 102.35C192.852 103.181 193.62 101.967 193.684 103.308C193.747 104.652 194.643 103.373 194.451 101.136C194.259 98.8986 195.537 101.264 196.112 101.648C196.688 102.031 197.839 101.966 195.857 98.0032C193.876 94.0396 196.432 97.4918 196.944 97.1722C197.456 96.8521 196.24 95.2545 195.793 94.5511C195.345 93.8482 195.282 92.8259 196.369 92.6339C197.456 92.4426 196.816 91.9305 195.09 90.7806C193.364 89.6283 194.067 89.757 195.218 89.6938C196.369 89.6289 194.898 88.6703 193.812 87.9031C192.725 87.1364 191.254 85.794 192.916 85.4744C194.578 85.1543 194.003 84.3239 191.702 83.6843C189.4 83.0452 187.611 82.5975 189.656 82.0217C191.702 81.4464 192.085 81.5108 190.871 81.1269C189.656 80.7436 188.505 81.1919 188.634 79.9132C188.761 78.6345 189.529 78.4425 188.122 77.9311C186.716 77.4196 187.355 77.9311 185.437 77.6759C183.519 77.4196 186.652 77.2276 187.035 76.2053C187.419 75.1817 186.141 75.5656 185.565 75.5024C184.99 75.4375 183.391 74.8622 184.606 74.3519C185.821 73.8404 183.328 72.7531 182.433 72.7531C181.538 72.7531 180.324 72.2416 181.857 71.4095C183.391 70.579 181.026 70.1957 180.132 70.1957C179.236 70.1957 177.83 69.7492 179.236 69.2372C180.643 68.7257 178.15 68.2136 177.639 68.2786C177.127 68.3418 174.634 68.0872 176.807 67.447C178.981 66.8085 175.784 66.2333 174.953 66.3603C174.122 66.489 173.419 64.9546 173.419 64.9546C173.419 64.9546 172.333 61.4392 173.356 62.5248C174.378 63.6115 177.831 67.0005 176.808 64.9546C175.785 62.9081 175.146 61.3742 176.424 62.5248C177.702 63.6765 179.237 68.151 179.237 65.5298C179.237 62.9081 177.447 61.3742 179.428 63.1644C181.41 64.9546 181.41 68.5343 182.114 66.1683C182.817 63.8035 181.985 63.1 183.328 64.9546C184.671 66.8085 184.159 65.5298 184.351 64.5701C184.542 63.6121 184.926 64.3149 185.182 65.5298C185.438 66.7436 187.036 68.5975 186.716 65.593C186.396 62.5892 187.419 64.5063 187.867 65.593C188.314 66.6804 189.018 68.7906 189.465 66.5522C189.912 64.3149 190.999 67.0637 191.191 68.151C191.383 69.2377 192.789 70.5796 192.47 68.0872C192.149 65.593 193.812 68.3424 193.812 69.4291C193.812 70.5158 195.474 71.3468 195.026 68.7263C194.579 66.1051 196.049 66.9355 196.625 69.3009C197.2 71.667 198.287 72.9451 198.287 70.3883C198.287 67.8303 199.373 69.813 199.884 71.41C200.396 73.0088 202.058 76.7173 201.866 72.4968C201.674 68.2786 201.995 70.3245 202.761 71.9865C203.528 73.6485 204.551 75.9489 204.551 73.2002C204.551 70.4515 205.702 72.7531 205.894 74.16C206.086 75.5656 206.789 78.3776 207.108 75.5656C207.428 72.7531 207.939 75.0536 208.323 76.0139C208.706 76.9719 210.497 77.1639 210.497 76.3323C210.497 75.5018 210.24 75.0536 211.391 75.3099C212.542 75.5656 211.902 73.3284 211.52 73.6479C211.135 73.9668 211.072 72.3048 212.349 72.5612C213.628 72.8169 212.286 70.771 211.775 70.771C211.264 70.771 211.775 70.0038 210.368 69.6205C208.962 69.2372 209.601 68.5337 209.73 68.1504C209.857 67.7665 209.922 67.4464 208.835 67.1913C207.748 66.9349 208.451 66.2965 208.579 65.8482C208.706 65.4017 208.386 65.0178 207.173 65.4017C205.958 65.785 203.592 65.2729 205.446 64.5695C207.3 63.8673 207.045 63.0362 205.703 62.9725C204.359 62.9075 203.529 63.0357 204.424 62.1409C205.319 61.2467 203.528 60.7358 202.122 60.9904C200.717 61.2467 197.328 62.2053 199.055 61.2467C200.78 60.2875 200.972 59.137 199.63 59.3284C198.287 59.5197 194.324 60.2869 195.921 59.5847C197.52 58.8818 198.351 57.1549 196.752 57.3462C195.154 57.5382 192.086 58.6249 193.685 57.4106C195.283 56.1963 195.41 55.2371 193.813 55.3003C192.214 55.3653 190.041 56.7716 190.616 56.0676C191.192 55.3653 190.232 54.5975 189.146 54.8538C188.06 55.1096 186.845 54.3423 189.081 53.7671C191.319 53.1918 188.315 53.1286 186.077 53.5751C183.84 54.0222 181.603 54.1504 184.096 52.9999C186.588 51.8499 183.713 51.658 182.306 52.2332C180.899 52.8085 178.47 53.8309 180.005 52.4884C181.539 51.1465 178.598 51.9769 177.767 52.3602C176.936 52.7435 174.827 52.5516 176.105 51.8499C177.384 51.1465 175.338 50.6988 174.827 51.4666C174.315 52.2332 172.909 51.0815 173.932 50.5712C174.954 50.0592 172.845 50.5069 171.758 51.2103C170.672 51.9131 168.882 52.1683 169.329 51.4666C169.777 50.7632 167.603 51.5936 166.645 52.3602C165.686 53.1286 163.959 51.0183 164.919 50.7632C165.878 50.5063 165.302 49.6759 164.279 49.2926C163.257 48.9087 164.535 48.269 165.941 49.6759C167.348 51.0815 166.581 48.3328 166.262 48.0777C165.941 47.8219 164.279 46.4157 166.581 46.799C168.882 47.1829 169.394 47.5024 168.626 46.2869C167.86 45.0732 167.667 44.7537 169.522 45.4571C171.375 46.1605 172.91 45.5852 172.015 44.6905C171.119 43.7945 171.695 43.4118 172.845 43.9864C173.997 44.5617 174.445 44.6249 173.869 43.5399C173.292 42.4532 173.677 41.9411 175.083 43.6031C176.489 45.2651 178.407 44.3698 177.129 43.2192C175.85 42.0687 176.362 41.6204 177.64 42.5796C178.919 43.5393 179.877 43.0279 178.855 41.9411C177.832 40.8544 178.344 39.8309 180.006 41.3009C181.668 42.7715 182.499 41.9411 181.348 40.9825C180.197 40.0222 181.476 39.3205 182.818 41.4297C184.161 43.5399 184.927 42.4532 184.48 41.4929C184.033 40.5343 184.417 39.7671 185.44 41.5572C186.463 43.3474 187.612 41.8768 187.037 41.1739C186.463 40.4699 187.549 39.6389 188.572 41.4923C189.595 43.3474 190.937 42.771 190.106 41.4291C189.274 40.0872 190.553 39.7671 191.384 41.4291C192.216 43.0911 193.942 43.2192 193.494 42.0043C193.046 40.79 194.389 41.2371 194.645 41.7492C194.901 42.2607 197.009 42.7072 196.114 41.3659C195.22 40.0216 196.946 40.5987 197.521 41.8124C198.097 43.0279 199.375 43.2824 199.056 42.2607C198.736 41.2371 200.014 42.579 200.526 43.3474C201.037 44.1146 202.316 43.9859 202.124 43.3474C201.932 42.7072 203.849 44.0496 203.338 41.6854C202.827 39.32 202.38 39.8946 202.699 39.32C203.019 38.7435 202.124 38.7435 201.804 38.616C201.485 38.4884 200.718 37.9125 201.356 37.593C201.996 37.2746 200.718 36.2511 199.631 36.6344C198.544 37.0177 195.412 36.954 198.097 35.8672C200.781 34.7805 198.736 34.5259 198.225 34.5259C197.713 34.5259 200.014 32.8633 196.371 33.5024C192.727 34.142 194.197 33.438 195.284 32.9903C196.371 32.5432 195.731 31.2013 191.512 33.438C187.294 35.6759 185.44 35.4207 188.891 33.6299C192.344 31.8404 194.645 30.114 189.595 31.8404C184.545 33.5667 187.358 31.7116 188.125 31.3283C188.891 30.9444 191.385 28.6439 186.398 30.9444C181.413 33.2466 181.605 33.1185 183.714 31.6484C185.823 30.1778 185.632 27.9405 181.605 31.776C177.577 35.6126 176.299 36.6344 177.193 35.1644C178.088 33.6937 183.203 28.8365 178.727 31.1369C174.253 33.438 174.189 39.1918 173.422 35.8672C172.654 32.5432 175.339 33.1817 176.49 32.0317C177.64 30.8812 175.786 30.6249 174.445 31.9679C173.102 33.3104 172.144 33.438 172.144 36.3787C172.144 39.3194 170.417 37.4011 170.8 36.8264C171.184 36.2511 170.929 32.9271 173.102 31.0732C175.276 29.2192 170.673 31.5846 170.545 31.9679C170.417 32.3513 168.564 34.5259 168.691 33.1817C168.82 31.8404 168.18 32.9271 167.158 33.3736C166.135 33.8219 163.769 34.0771 164.473 33.5024C165.175 32.9271 166.454 31.7116 167.861 31.8404C169.267 31.9679 168.691 30.7536 167.349 30.9444C166.006 31.1364 164.281 30.1778 166.262 29.9864C168.244 29.7945 170.353 28.7709 169.267 28.3244C168.18 27.8773 168.499 27.6204 169.906 27.3658C171.313 27.1101 173.293 25.959 171.504 25.767C169.714 25.5757 169.203 24.4884 171.248 24.4884C173.293 24.4884 175.468 23.593 174.445 23.0833C173.422 22.5712 174.061 22.443 175.147 22.5062C176.234 22.5712 176.043 21.6758 174.764 21.2925C173.486 20.9092 175.147 20.269 176.874 20.269C178.6 20.269 179.878 19.4386 179.048 19.1834C178.216 18.9271 178.536 18.2237 179.878 18.5438C181.22 18.8633 183.97 18.0967 182.755 17.8398C181.541 17.5846 181.988 16.5617 183.33 16.5617C184.673 16.5617 185.76 16.4979 185.184 15.8582C184.609 15.2192 185.44 15.3473 186.783 15.2192C188.125 15.091 191.576 14.8991 190.299 14.5158C189.02 14.1324 187.613 13.1733 188.572 12.9819C189.531 12.7906 187.677 11.8952 186.846 11.64C186.015 11.3837 185.057 10.8728 185.121 10.4883C185.184 10.1044 184.29 10.1044 183.65 10.6165C183.012 11.1286 181.924 11.0648 181.989 10.4883C182.051 9.91307 181.989 9.97803 181.094 10.4883C180.198 10.9998 179.303 11.2561 179.494 10.6165C179.686 9.97803 178.408 10.6165 177.896 11.1286C177.385 11.64 176.49 12.8538 176.49 12.0865C176.49 11.3193 174.955 10.4245 174.892 11.4481C174.828 12.4704 173.741 14.964 173.741 14.1324C173.741 13.3003 173.358 11.3837 172.462 12.5986C171.568 13.8123 172.271 16.1778 171.44 15.9226C170.609 15.6657 171.313 14.5158 171.376 13.621C171.44 12.725 170.098 11.3837 169.524 13.9405C168.947 16.4973 170.482 19.5018 169.586 18.7995C168.691 18.0961 168.499 17.3933 168.564 15.7312C168.628 14.0687 167.476 14.8353 167.349 16.1778C167.221 17.5208 167.668 21.4839 167.158 19.4386C166.646 17.3933 166.582 13.429 165.559 16.0496C164.536 18.6714 166.327 23.593 165.559 22.3793C164.792 21.1638 164.473 20.5885 164.473 19.1828C164.473 17.7766 163.386 17.9685 163.066 19.1828C162.747 20.3971 163.066 26.2147 162.811 25.1912C162.555 24.1677 162.811 22.8907 162.235 21.739C161.659 20.5885 161.212 23.7849 161.212 23.2097C161.212 22.6344 162.235 27.0457 161.659 26.4705C161.085 25.8952 160.318 27.5572 159.806 24.6797C159.295 21.804 159.102 24.8085 158.527 25.3837C157.952 25.9584 157.313 24.6165 156.738 27.494C156.163 30.3697 155.651 31.3283 155.012 30.3697C154.373 29.4112 153.606 30.6249 153.606 31.7116C153.606 32.7984 152.454 33.6299 152.327 32.8633C152.2 32.0949 150.857 32.48 150.792 31.5197C150.729 30.5617 149.961 31.0094 149.642 32.672C149.322 34.334 148.363 33.5667 148.939 30.8812C149.514 28.1957 149.705 26.2153 148.939 27.0457C148.172 27.8767 148.108 26.4073 148.172 25.4481C148.236 24.4884 148.236 22.9539 147.916 23.3372C147.596 23.7217 146.893 24.2332 147.212 22.1229C147.532 20.0138 146.829 19.3104 146.254 21.612C145.679 23.9131 146.318 27.3021 145.55 28.0037C144.783 28.7077 144.017 28.8359 144.527 27.429C145.039 26.0234 146.062 23.274 145.935 20.142C145.806 17.0093 144.911 16.1146 144.783 18.1599C144.655 20.2058 145.487 23.593 144.144 24.6165C142.802 25.6401 142.61 25.1918 142.93 24.0413C143.249 22.8907 144.4 21.4207 143.952 18.5432C143.505 15.6663 142.227 14.1962 142.163 16.2433C142.099 18.2886 142.994 21.1006 141.971 21.4845C140.948 21.8678 140.948 21.2276 141.395 20.077C141.843 18.9271 142.163 15.4111 141.971 13.7491C141.779 12.0871 140.564 11.5757 140.436 12.9175C140.309 14.2612 140.18 11.4487 140.309 10.3619C140.436 9.27519 139.286 6.90918 139.158 8.69993C139.03 10.4883 138.135 10.105 138.135 8.63497C138.135 7.16492 138.199 3.52198 137.624 5.43971C137.048 7.35687 136.409 7.67639 136.281 6.71782C136.154 5.75924 136.154 3.33003 135.642 3.90529C135.13 4.48056 134.3 4.4156 134.108 3.58518C133.916 2.75476 133.788 2.81855 133.597 3.71392C133.403 4.60637 132.444 3.52081 132.316 3.45585Z" fill="#00A650"/>
<path d="M57.5655 133.393C59.7931 141.306 62.9849 144.131 66.5412 148.553C64.713 154.271 49.4867 166.439 42.5718 177.242C39.6463 169.829 36.787 169.663 33.6289 162.383C41.5413 147.822 50.8833 144.064 57.5655 133.393Z" fill="#496E6E"/>
<path d="M242.741 133.393C240.514 141.306 237.323 144.131 233.766 148.553C235.594 154.271 250.82 166.439 257.735 177.242C260.66 169.829 263.52 169.663 266.678 162.383C258.766 147.822 249.424 144.064 242.741 133.393Z" fill="#496E6E"/>
<path d="M46.3984 152.146C48.0604 150.357 50.6816 148.759 53.1743 151.508C54.8363 154.511 53.4941 157.516 52.0241 159.626C52.2154 158.092 52.5347 155.278 51.4479 153.553C49.5305 151.571 48.8906 152.146 46.3984 152.146Z" fill="white"/>
<path d="M253.899 152.146C252.237 150.357 249.615 148.759 247.123 151.508C245.461 154.511 246.803 157.516 248.273 159.626C248.082 158.092 247.762 155.278 248.849 153.553C250.766 151.571 251.406 152.146 253.899 152.146Z" fill="white"/>
<path d="M62.9428 110.835L150.152 265.561V277.006L60.2148 112.485C61.1913 112.142 62.1077 111.613 62.9428 110.835Z" fill="#573F2F"/>
<path d="M237.361 110.835L150.152 265.561V277.006L240.089 112.485C239.113 112.142 238.196 111.613 237.361 110.835Z" fill="#573F2F"/>
<path d="M58.9069 107.285C56.818 108.525 55.723 110.561 56.4683 111.818C57.2145 113.074 59.5269 113.087 61.6158 111.847C63.7045 110.606 64.7997 108.571 64.0538 107.314C63.3083 106.058 60.9958 106.044 58.9069 107.285Z" fill="#573F2F"/>
<path d="M241.393 107.285C243.482 108.525 244.577 110.561 243.832 111.818C243.086 113.074 240.773 113.087 238.684 111.847C236.595 110.606 235.5 108.571 236.246 107.314C236.992 106.058 239.304 106.044 241.393 107.285Z" fill="#573F2F"/>
<path d="M148.874 119.166C148.49 172.735 147.02 220.098 146.573 273.668C144.272 282.17 140.053 287.668 132.317 288.115C131.039 288.115 130.4 288.69 130.528 289.841C130.528 290.863 130.528 291.887 130.528 292.909C130.464 294.379 130.911 295.019 132.061 294.828C138.263 294.187 143.951 296.809 150.152 297C156.353 296.809 162.042 294.187 168.243 294.828C169.394 295.019 169.842 294.379 169.777 292.909C169.777 291.887 169.777 290.863 169.777 289.841C169.905 288.69 169.266 288.115 167.988 288.115C160.253 287.668 156.033 282.17 153.732 273.668C153.284 220.098 152.006 172.735 151.623 119.166H148.874Z" fill="#573F2F"/>
<path d="M132.316 3.45585C132.316 3.45585 131.677 3.71276 131.869 4.73453C132.06 5.75807 130.335 4.98969 130.335 4.67133C130.335 4.35181 129.823 5.05464 130.015 5.24659C130.206 5.43854 130.782 5.6937 131.037 6.14138C131.293 6.58848 130.974 7.42007 130.718 7.16375C130.462 6.9086 129.631 6.84539 129.759 7.10055C129.887 7.35628 130.527 7.42066 131.038 8.31544C131.549 9.20906 130.974 9.27402 130.974 9.27402C130.974 9.27402 130.207 9.01769 130.207 9.40218C130.207 9.78608 130.335 10.1688 130.782 10.4245C131.23 10.6809 132.189 11.4481 132.7 11.4481C133.212 11.4481 133.02 12.1503 133.02 12.1503C133.02 12.1503 132.061 11.7032 131.869 12.3423C131.677 12.9813 132.317 13.4934 132.317 13.4934C132.317 13.4934 133.915 14.6445 134.554 14.7721C135.193 14.8991 135.577 15.7307 135.193 15.7945C134.809 15.8577 133.659 15.9226 133.275 15.8577C132.892 15.7944 132.444 16.5611 132.828 16.8812C133.212 17.2007 134.426 17.6484 135.513 17.9047C136.599 18.1593 136.408 18.607 136.152 18.7351C135.896 18.8633 134.234 19.0553 133.851 18.7351C133.467 18.415 132.508 19.1184 133.404 19.6305C134.299 20.142 135.961 19.8857 135.832 20.9086C135.705 21.931 134.874 21.5471 134.49 21.612C134.107 21.6752 133.595 22.2505 134.299 22.6344C135.002 23.0177 136.344 23.7849 137.047 23.7849C137.75 23.7849 137.942 24.8717 137.558 24.8717C137.175 24.8717 135.705 24.7447 135.64 24.6159C135.577 24.4884 134.298 24.6159 135.577 25.5751C136.855 26.4699 136.088 26.1504 137.303 26.598C138.517 27.0451 137.303 27.7492 137.111 27.6848C136.919 27.6204 136.024 28.3238 136.855 28.579C137.686 28.8359 138.326 29.2186 138.07 29.4744C137.814 29.7307 137.047 30.4324 137.942 30.6243C138.837 30.8168 140.179 31.0094 139.668 31.7116C139.156 32.4151 139.86 32.0311 140.754 32.3507C141.649 32.6714 140.818 33.3736 140.499 33.3098C140.179 33.2466 138.133 32.2231 137.941 32.7984C137.75 33.3736 138.07 33.5662 138.07 33.5662C138.07 33.5662 139.541 33.8219 140.179 34.3334C140.818 34.8437 140.946 35.2914 140.179 35.2914C139.412 35.2914 139.092 34.5247 138.645 34.9718C138.198 35.4201 139.156 36.1224 138.837 37.0172C138.517 37.9125 137.941 37.3373 137.941 36.1224C137.941 34.9086 136.919 33.9495 136.919 33.9495C136.919 33.9495 136.535 34.9081 136.535 33.373C136.535 31.8398 135.64 32.6058 135.64 33.1179C135.64 33.6294 136.215 34.5247 135.768 34.7161C135.32 34.9081 134.106 32.9265 134.106 32.2225C134.106 31.5191 133.083 31.3921 133.083 32.2225C133.083 33.0541 133.594 34.9081 134.234 35.9948C134.874 37.0815 136.024 38.4878 135.448 38.8073C134.873 39.1268 134.362 39.1912 134.362 38.6154C134.362 38.0401 132.189 32.9265 131.102 31.6478C130.014 30.3691 129.951 30.4324 129.951 31.2639C129.951 32.0944 131.932 34.3966 131.485 35.7385C131.037 37.0821 130.59 35.7385 130.527 35.7385C130.462 35.7385 129.503 31.903 127.586 29.4106C125.668 26.9182 125.668 28.579 126.18 29.2186C126.69 29.8571 128.673 32.3507 128.417 33.9495C128.161 35.5471 127.65 34.8431 127.522 34.0765C127.394 33.3098 125.604 28.452 123.303 26.5331C121.001 24.6159 121.384 26.4699 121.896 26.79C122.408 27.1095 124.837 29.6019 124.901 31.8398C124.965 34.0771 124.197 32.6064 124.006 32.1599C123.814 31.7116 122.919 27.9399 120.234 25.7033C117.549 23.466 118.956 26.2779 118.956 25.8946C118.956 25.5107 121.768 28.5152 121.768 30.4324C121.768 32.3507 120.938 31.6478 120.873 31.2639C120.809 30.8806 119.659 27.4934 117.549 26.086C115.44 24.6797 115.568 24.2958 114.8 24.5527C114.034 24.8079 113.586 24.6159 113.33 24.1677C113.075 23.7211 110.901 22.9539 111.732 24.5527C112.563 26.1504 110.453 24.2326 110.39 24.1677C110.326 24.1045 107.704 22.8907 108.6 24.1677C109.494 25.4475 112.819 26.0866 112.819 27.6848C112.819 29.2824 113.394 29.4744 112.243 28.7071C111.093 27.9399 110.453 25.5113 107.769 24.6797C105.084 23.8487 107.769 26.1504 107.704 25.8314C107.641 25.5113 109.943 27.1739 108.728 27.4934C107.513 27.8124 107.321 26.6618 106.938 26.0866C106.554 25.5113 105.02 24.1677 104.636 24.7447C104.253 25.3199 105.084 25.5751 104.509 25.5751C103.933 25.5751 102.335 24.9992 102.399 26.0866C102.463 27.1739 101.888 26.5337 101.504 26.5337C101.12 26.5337 100.481 26.7256 100.546 27.1101C100.609 27.494 99.3309 27.1101 99.3309 27.5572C99.3309 28.0037 99.97 28.1957 100.354 28.2606C100.738 28.3238 101.057 28.5796 100.354 29.2192C99.6502 29.8577 99.9062 31.0094 100.738 30.6893C101.568 30.3697 102.271 29.8577 103.039 29.8577C103.806 29.8577 103.997 29.6663 103.614 30.2416C103.23 30.8168 102.783 31.5203 103.614 31.5203C104.445 31.5203 106.746 29.5393 107.258 30.3065C107.769 31.0732 107.769 31.2645 107.129 31.7766C106.491 32.2869 107.066 32.8633 108.088 32.7352C109.111 32.607 110.709 31.5852 111.605 32.0955C112.499 32.607 111.86 32.7352 111.413 32.9909C110.965 33.2472 110.39 33.9501 111.157 33.9501C111.924 33.9501 112.563 33.6937 113.906 33.7587C115.248 33.8219 114.673 32.9909 115.376 33.6305C116.079 34.269 116.527 34.269 115.632 34.6529C114.736 35.0368 114.417 35.996 115.504 35.931C116.591 35.8678 117.741 35.0374 119.148 35.2287C120.554 35.4207 120.618 35.5477 120.042 36.123C119.467 36.6982 118.572 36.6344 118.572 37.2746C118.572 37.9137 119.531 37.9137 119.915 37.785C120.298 37.6585 121.384 37.1465 121.896 37.1465C122.408 37.1465 122.919 37.2103 122.471 37.7217C122.024 38.2332 121.704 37.9775 121.384 38.489C121.065 39.0004 121.065 39.1924 122.024 39.2562C122.983 39.3205 124.517 39.1286 124.773 39.2562C125.028 39.3838 126.307 39.3838 125.668 39.6389C125.028 39.8958 123.558 40.663 124.389 40.8544C125.22 41.0457 126.115 41.2377 127.138 41.1095C128.16 40.9825 129.119 41.621 128.544 41.813C127.969 42.0055 127.266 42.5802 128.608 42.5802C129.951 42.5802 130.781 42.5802 130.781 43.0917C130.781 43.6031 129.95 43.283 129.566 44.1152C129.183 44.9456 132.188 47.503 133.658 49.8052C135.128 52.1057 135 50.3799 134.489 51.2753C133.977 52.1689 132.955 51.8499 132.635 51.0821C132.315 50.3149 131.612 48.973 129.694 47.1197C127.777 45.2657 127.904 45.0738 127.649 45.0738C127.393 45.0738 126.881 45.5852 127.712 46.5444C128.543 47.503 130.589 48.9098 130.972 50.5718C131.356 52.2338 129.758 51.4022 129.694 51.0189C129.63 50.635 128.607 48.1414 126.179 45.9686C123.749 43.7951 121.575 43.7313 122.47 44.7537C123.365 45.7778 126.562 47.4398 126.945 49.5483C127.329 51.6586 125.73 50.4437 125.667 50.0598C125.603 49.6765 124.261 47.0547 121.959 45.4577C119.658 43.8589 118.188 44.0502 118.827 45.137C119.466 46.2237 118.443 45.841 118.252 45.6484C118.06 45.4577 116.397 44.3066 115.95 44.5617C115.503 44.8174 115.184 44.8818 115.567 45.5852C115.95 46.2875 114.927 45.841 114.032 45.5209C113.137 45.2025 112.05 44.8174 112.05 45.649C112.05 46.4794 110.58 45.3933 110.197 45.3289C109.813 45.2657 106.873 44.5623 106.873 45.1376C106.873 45.7128 108.087 46.4794 106.873 46.5444C105.658 46.6076 104.316 46.7996 104.955 47.503C105.594 48.2064 107.32 47.2472 109.174 49.7397C111.028 52.2338 108.471 50.6988 108.407 50.6988C108.343 50.6988 107.449 49.3563 106.233 48.8449C105.019 48.3334 103.74 47.6943 102.462 47.5662C101.183 47.4398 100.097 48.1414 101.247 48.6529C102.399 49.165 104.827 49.2931 106.106 50.827C107.385 52.3608 104.508 51.2753 104.252 50.7632C103.996 50.2517 100.8 49.6765 100.8 49.6765C100.8 49.6765 95.942 49.6121 99.33 50.827C102.718 52.0425 104.444 53.2562 101.312 52.3608C98.1792 51.4672 93.2561 51.5942 95.494 52.5522C97.7312 53.5119 94.5989 52.9373 94.088 53.0005C93.5765 53.0637 92.1059 53.5119 93.1291 54.8544C94.1515 56.1963 91.7229 55.1096 93.0013 55.6216C94.28 56.1331 91.3393 56.7084 93.4481 56.8359C95.5586 56.9635 90.3163 58.0502 91.5953 58.1784C92.8734 58.3066 89.4212 60.5438 91.9786 59.9686C94.5354 59.3939 92.2346 60.1599 93.1932 60.6708C94.1515 61.1823 94.2159 59.3939 94.5992 59.3289C94.9834 59.2651 96.0695 57.2836 96.0695 58.7537C96.0695 60.2243 95.4305 61.1191 97.3482 59.0732C99.266 57.0279 98.8183 58.4336 98.6901 59.137C98.5622 59.8404 98.6901 60.607 99.3938 60.1599C100.097 59.7123 99.7137 61.7576 100.481 60.7358C101.247 59.7122 101.12 58.3704 102.015 57.7951C102.91 57.2198 103.805 56.5796 103.229 58.0502C102.653 59.5203 102.91 60.9271 104.316 58.8818C105.722 56.8359 106.298 56.3877 105.978 57.6031C105.658 58.8169 105.85 59.9036 106.873 58.4336C107.896 56.9635 108.791 56.5802 108.215 57.8583C107.64 59.137 108.599 58.4979 109.174 58.2422C109.75 57.9865 110.069 57.9233 109.878 58.7537C109.685 59.5847 111.475 56.7084 111.987 56.1331C112.498 55.5578 114.224 53.8958 112.754 56.8997C111.284 59.9042 113.84 57.5388 113.84 57.5388C113.84 57.5388 117.996 53.5119 116.461 56.3245C114.927 59.1376 115.694 59.3939 116.909 58.4979C118.123 57.6031 119.658 54.6625 118.763 57.0279C117.868 59.3939 118.187 59.9036 119.658 58.3704C121.128 56.8359 124.26 53.0637 123.109 56.452C121.958 59.8404 124.388 57.1549 124.772 56.7084C125.155 56.2601 127.137 55.2377 125.603 57.2198C124.069 59.2002 126.881 57.9865 127.457 57.5382C128.032 57.0911 130.077 55.2377 128.607 57.6664C127.137 60.0956 128.096 59.2651 129.694 58.4336C131.292 57.6026 131.484 58.4336 130.717 59.4571C129.95 60.4789 129.246 59.2002 129.95 60.9904C130.653 62.7811 128.991 61.8225 128.287 61.9495C127.584 62.0771 128.927 62.7805 127.329 63.0995C125.73 63.4196 121 63.5477 123.686 64.8258C126.37 66.1045 122.982 65.0816 122.599 65.4649C122.215 65.8482 120.425 66.1045 121.448 66.5516C122.47 66.9999 120.297 67.3182 119.85 67.255C119.402 67.1918 114.416 68.1504 117.101 68.4705C119.786 68.7901 125.219 67.3832 125.603 68.7901C125.987 70.1957 122.983 69.3009 122.151 69.3009C121.32 69.3009 110.197 70.0038 114.927 70.5153C119.658 71.0256 120.169 70.4509 120.681 70.8992C121.192 71.3457 118.252 71.5376 117.357 71.5376C116.462 71.5376 110.07 72.433 112.69 72.6882C115.311 72.9445 115.056 73.1996 113.329 73.5829C111.603 73.9668 108.663 74.9904 111.987 75.1179C115.311 75.2455 119.53 75.3737 115.503 76.0771C111.475 76.7799 111.347 75.757 109.046 76.5236C106.745 77.292 105.53 77.8023 112.498 77.8673C119.466 77.9305 113.457 78.3776 113.648 78.6339C113.84 78.8896 108.471 78.6971 105.85 79.7206C103.229 80.743 104.508 81.1919 103.74 81.8297C102.974 82.4694 101.183 83.94 105.211 83.3004C109.238 82.6619 103.677 84.7066 103.165 84.7066C102.653 84.7066 97.2195 89.053 104.124 86.0491C111.028 83.0446 106.681 85.4739 106.233 86.3692C105.786 87.2634 100.288 88.7335 100.288 88.7335C100.288 88.7335 99.7766 90.0122 101.374 89.6283C102.973 89.245 104.188 87.391 105.019 88.2226C105.85 89.0536 103.42 89.5013 101.503 90.3967C99.5849 91.2903 96.7724 93.9758 102.334 91.6742C107.895 89.3731 103.229 92.2506 102.781 92.5058C102.334 92.7609 99.4573 93.4005 98.4347 95.2545C97.4111 97.1085 97.8594 98.5785 99.2016 97.6831C100.544 96.7883 100.672 96.9797 100.033 98.1302C99.3935 99.2819 99.074 101.327 99.5217 101.774C99.9688 102.223 100.608 102.861 100.864 100.624C101.12 98.3866 101.887 98.7705 101.887 99.7922C101.887 100.816 102.59 100.177 102.782 98.7067C102.974 97.2349 103.932 97.4918 103.932 98.2584C103.932 99.0256 104.444 99.6652 104.827 97.0429C105.211 94.4229 105.658 94.2959 105.787 95.4464C105.914 96.5964 106.681 98.7705 107 95.2545C107.32 91.7386 107.832 91.9305 108.024 93.2724C108.216 94.6149 108.855 95.4464 109.302 92.3138C109.75 89.1818 109.622 86.6876 110.261 89.6932C110.9 92.6977 111.54 89.1168 111.54 87.8399C111.54 86.5612 112.435 85.0273 112.435 86.8163C112.435 88.6065 113.393 90.3967 114.416 87.0715C115.439 83.7487 115.503 82.5975 115.503 84.8986C115.503 87.1996 116.59 85.6658 116.717 84.8354C116.845 84.0044 118.06 77.5477 118.635 81.9585C119.211 86.3698 119.914 82.6619 119.85 81.6384C119.786 80.6148 121 76.0139 121.064 80.6148C121.128 85.2187 122.598 79.9764 122.535 79.7212C122.47 79.4643 123.11 74.6065 123.749 78.5695C124.388 82.5332 125.028 78.3144 124.963 77.8673C124.9 77.419 126.498 72.1773 126.179 76.7167C125.859 81.2551 127.201 77.8023 127.201 77.2271C127.201 76.6518 128.224 72.6882 128.287 75.7564C128.352 78.8259 129.374 74.4151 129.374 74.6059C129.374 74.7978 129.758 74.5427 130.014 73.0071C130.269 71.4738 130.845 72.6244 130.845 73.3278C130.845 74.0312 129.822 75.9478 131.484 75.0536C133.146 74.1594 132.123 75.2449 132.187 75.9484C132.251 76.6518 135.192 74.1594 136.79 73.7749C138.388 73.3916 139.347 74.0944 137.174 74.6697C135 75.2455 131.356 77.6104 130.845 78.442C130.334 79.2724 129.95 80.6798 130.973 80.2315C131.996 79.7838 131.612 80.6148 131.164 80.9344C130.717 81.2551 129.183 84.067 131.484 82.4694C133.786 80.8712 132.059 81.1263 135.32 79.9758C138.58 78.8259 136.087 80.6143 135.064 81.0625C134.041 81.5096 130.27 83.0446 128.735 84.8986C127.201 86.7525 128.864 86.5606 129.055 86.4324C129.247 86.3043 130.845 84.3233 133.082 83.4285C135.32 82.5332 135.384 82.4694 135.064 83.4917C134.744 84.5153 133.018 84.1952 131.868 85.0905C130.717 85.9853 128.735 87.1359 127.777 88.9254C126.817 90.715 126.754 90.4599 127.969 90.5236C129.183 90.588 131.292 86.5606 133.211 86.3043C135.128 86.0491 133.721 87.4548 133.466 87.4548C133.211 87.4548 132.251 87.5198 131.037 88.4783C129.822 89.4369 128.352 90.2035 127.777 91.5466C127.201 92.8891 127.138 91.9305 128.8 91.9305C130.462 91.9305 129.886 89.757 131.932 89.4369C133.978 89.1168 133.274 90.6518 132.699 90.7806C132.124 90.907 128.735 91.9943 127.138 94.5511C125.539 97.1084 128.16 95.7654 128.16 95.7654C128.16 95.7654 129.311 93.8477 131.484 92.9523C133.658 92.0587 132.188 93.6563 132.379 93.7207C132.571 93.7845 128.608 94.9344 126.626 97.8757C124.645 100.816 127.393 99.6009 127.585 99.09C127.777 98.5785 129.247 96.3412 131.037 95.893C132.827 95.4465 131.804 96.9797 131.356 97.4286C130.909 97.8757 127.713 98.3871 126.307 101.264C124.9 104.14 127.329 102.158 127.329 102.158C127.329 102.158 128.224 99.6652 130.526 99.3457C132.827 99.0256 132.059 99.3457 130.717 100.496C129.374 101.648 127.073 102.925 127.009 104.332C126.946 105.739 126.69 106.634 127.968 105.354C129.247 104.077 130.909 102.67 130.909 102.67C130.909 102.67 132.699 102.798 130.909 103.501C129.118 104.204 126.881 106.378 126.881 107.081C126.881 107.784 126.05 109.767 128.032 107.656C130.014 105.547 128.927 107.272 128.479 108.168C128.032 109.063 127.265 112.195 129.183 109.638C131.101 107.081 129.439 107.209 130.462 108.04C131.484 108.871 131.164 108.807 130.845 109.255C130.526 109.702 130.462 109.446 129.375 111.108C128.288 112.77 126.946 113.793 128.288 113.985C129.631 114.176 128.992 115.774 129.055 116.478C129.119 117.181 129.758 117.628 130.397 117.053C131.037 116.478 130.909 118.652 130.909 119.29C130.909 119.931 131.804 119.674 131.804 119.354C131.804 119.035 131.676 116.798 132.379 117.693C133.082 118.587 133.721 118.332 133.53 117.565C133.338 116.798 131.868 113.409 133.274 114.688C134.681 115.966 133.53 113.089 133.402 112.706C133.274 112.322 133.274 110.277 134.169 112.45C135.064 114.624 135.064 111.108 134.873 110.66C134.681 110.213 135.064 108.807 135.512 110.341C135.96 111.875 135.768 109.958 135.384 107.848C135 105.739 134.361 103.5 135.512 104.524C136.662 105.547 137.813 105.866 136.982 104.204C136.151 102.542 134.617 98.3228 136.023 99.7928C137.429 101.265 137.302 101.265 137.174 99.921C137.046 98.5791 136.983 98.0038 137.941 98.963C138.9 99.921 139.028 97.7475 138.453 97.236C137.877 96.7251 136.918 94.1683 137.813 94.8068C138.708 95.447 138.389 94.2965 138.261 93.785C138.133 93.2736 138.9 93.3379 139.283 93.7212C139.668 94.1051 139.347 91.8679 138.964 91.6116C138.58 91.3564 137.685 88.2232 138.772 89.2455C139.859 90.2691 139.731 89.7576 140.051 88.926C140.37 88.0956 140.69 88.4157 140.37 89.5025C140.051 90.5892 139.283 92.3144 140.498 91.8679C141.713 91.4196 140.69 92.5701 140.562 93.2104C140.434 93.8488 140.178 95.447 141.329 94.6154C142.479 93.785 141.648 95.7028 141.521 96.1505C141.392 96.5976 140.434 100.37 142.288 97.5556C144.141 94.743 143.631 95.1907 142.991 96.8527C142.352 98.5153 141.521 100.562 141.776 101.136C142.032 101.712 143.119 100.369 144.462 97.0441C145.804 93.7207 147.593 92.8259 147.018 93.9764C146.443 95.1269 144.845 97.9395 144.142 99.8578C143.438 101.775 142.032 106.441 143.566 105.099C145.101 103.757 144.014 105.803 143.887 106.314C143.758 106.826 143.247 108.871 143.95 107.911C144.653 106.953 144.653 108.68 144.589 109.767C144.525 110.852 144.973 111.108 144.717 112.706C144.461 114.305 145.548 114.113 145.803 113.601C146.059 113.089 145.995 114.688 146.123 115.136C146.251 115.583 146.379 116.542 147.082 116.03C147.785 115.52 147.785 116.734 147.785 117.31C147.785 117.885 148.68 115.263 148.488 117.437C148.296 119.61 149.703 121.081 149.767 120.058C149.831 119.035 150.854 119.866 151.173 121.336C151.493 122.806 152.58 123.19 152.58 122.231C152.58 121.272 151.493 118.332 152.643 119.61C153.794 120.889 153.474 119.354 153.347 118.844C153.219 118.332 151.11 116.415 152.26 116.862C153.411 117.31 153.858 116.67 153.411 116.094C152.963 115.519 151.301 113.921 152.452 113.857C153.603 113.793 153.73 113.089 152.835 111.939C151.941 110.788 153.347 110.981 154.05 111.492C154.753 112.003 154.498 110.406 153.73 109.575C152.963 108.743 151.941 106.634 153.283 107.144C154.625 107.656 154.242 106.698 154.05 106.249C153.858 105.802 150.918 102.862 153.091 103.949C155.265 105.036 154.69 104.587 154.243 103.309C153.795 102.031 151.173 99.2176 152.899 99.6015C154.625 99.9854 154.243 98.8342 153.666 98.1308C153.091 97.4286 152.068 95.9585 153.603 96.2774C155.137 96.597 153.028 95.1263 153.091 94.8718C153.155 94.6155 151.877 93.2098 153.155 93.273C154.434 93.3374 154.114 92.9529 153.603 91.9311C153.091 90.9075 152.644 90.0771 154.114 90.9075C155.585 91.7391 154.882 89.8852 154.625 89.2455C154.369 88.6071 152.452 86.9451 154.05 87.1364C155.649 87.3284 154.498 86.2417 154.434 85.8578C154.37 85.4739 156.287 85.8578 155.585 84.6429C154.882 83.4291 152.452 81.2551 153.922 81.5102C155.393 81.7671 154.051 79.9132 153.859 79.273C153.666 78.6345 152.835 77.1006 153.922 77.5472C155.009 77.9943 155.457 79.9764 156.288 80.1045C157.119 80.2315 158.142 79.8476 157.758 80.4235C157.375 80.9987 158.142 80.9344 159.037 79.9764C159.931 79.0178 160.635 77.292 160.762 78.1856C160.891 79.081 160.251 80.1045 159.868 80.6148C159.484 81.1263 157.246 83.6199 157.246 84.6423C157.246 85.6658 157.183 86.0491 158.653 84.1952C160.123 82.3418 161.785 81.5752 160.827 83.4917C159.868 85.4107 158.142 89.3731 160.251 86.8157C162.361 84.259 163 84.8354 161.209 87.391C159.42 89.9484 159.548 91.2903 161.146 89.4369C162.744 87.5835 164.917 84.7066 163 88.7979C161.082 92.8891 159.356 94.1678 161.466 92.9523C163.575 91.7391 163.447 91.611 162.871 92.8259C162.296 94.0396 160.699 95.1263 160.699 95.4464C160.699 95.7654 160.315 97.8119 162.232 95.7654C164.151 93.7207 164.086 95.0625 163.447 96.0849C162.808 97.1084 157.949 102.798 162.169 99.9854C166.387 97.1716 162.935 100.113 162.935 100.496C162.935 100.88 160.378 105.162 163.255 102.223C166.132 99.2819 164.278 102.925 163.766 103.053C163.255 103.181 159.42 108.551 162.04 107.08C164.662 105.61 165.301 104.076 164.789 105.674C164.278 107.272 162.552 108.296 162.232 108.742C161.913 109.19 159.995 112.642 162.04 111.235C164.086 109.829 165.237 107.911 164.598 109.575C163.958 111.235 162.04 113.218 163.511 112.962C164.981 112.706 163.638 113.857 163.319 114.559C163 115.263 162.808 116.478 163.703 116.094C164.598 115.711 164.343 117.053 164.343 117.628C164.343 118.204 165.365 118.586 165.621 117.501C165.877 116.415 165.301 116.478 166.58 116.67C167.858 116.861 166.387 115.774 166.516 114.944C166.644 114.112 167.794 114.624 168.242 115.007C168.689 115.391 169.52 116.286 170.032 115.454C170.542 114.624 168.88 111.746 167.922 110.66C166.963 109.575 167.027 107.336 167.794 108.231C168.561 109.126 169.776 111.427 169.904 112.003C170.032 112.579 170.862 112.003 170.479 110.596C170.096 109.19 169.521 107.656 168.689 106.889C167.858 106.122 167.091 104.14 168.114 104.843C169.137 105.547 170.671 109.51 170.671 109.51C170.671 109.51 172.269 112.13 171.949 109.126C171.63 106.122 168.88 103.82 168.561 103.373C168.242 102.925 167.283 101.391 168.242 101.455C169.2 101.519 171.182 105.674 171.182 105.674C171.182 105.674 172.333 106.057 171.373 103.436C170.415 100.816 168.434 100.049 168.178 99.6003C167.922 99.1532 167.41 96.5332 168.625 98.0027C169.84 99.4733 171.246 101.327 171.502 102.733C171.757 104.14 172.589 102.477 172.141 101.582C171.694 100.687 170.735 97.8113 168.945 96.2763C167.155 94.7424 167.922 94.039 168.817 94.9982C169.712 95.9579 172.972 101.839 172.781 98.898C172.589 95.9579 169.52 93.5925 168.945 92.9523C168.37 92.3138 168.242 90.715 169.265 91.9305C170.287 93.1454 172.781 96.5332 172.077 93.9758C171.373 91.419 168.242 89.5651 168.242 89.5651C168.242 89.5651 167.155 87.8393 168.434 88.4145C169.712 88.9898 174.762 96.2131 173.227 91.8023C171.694 87.3916 171.246 89.5651 170.991 88.6065C170.734 87.6467 172.333 87.9669 172.333 87.9669C172.333 87.9669 171.438 86.6882 170.351 85.9859C169.265 85.2825 169.52 84.771 170.287 85.0911C171.054 85.4107 172.014 85.1543 170.863 83.8756C169.712 82.5975 168.689 80.2965 170.351 82.0217C172.014 83.7487 173.356 83.7487 172.333 81.9585C171.31 80.1683 169.84 79.6568 170.479 78.6977C171.118 77.7397 169.584 76.1409 170.927 76.8443C172.269 77.5477 171.694 79.4649 172.589 78.8902C173.484 78.315 173.42 74.8622 173.995 78.6345C174.57 82.4056 175.529 83.1728 175.529 81.0637C175.529 78.9534 176.871 81.1919 176.871 83.4923C176.871 85.794 177.831 87.264 178.086 85.2825C178.342 83.301 179.046 82.5338 178.981 85.2825C178.917 88.0318 180.771 87.9669 180.708 85.6026C180.643 83.2372 182.114 85.9865 181.602 88.7341C181.091 91.4828 181.154 95.6384 182.753 90.9725C184.351 86.3049 184.031 89.0536 184.287 90.6524C184.543 92.2512 184.607 94.4235 185.694 92.3144C186.78 90.2041 186.269 94.3603 186.204 95.5102C186.141 96.6608 187.547 96.9803 187.547 95.5734C187.547 94.1683 188.953 96.0855 188.505 98.0038C188.059 99.921 188.505 100.177 189.337 100.304C190.167 100.433 190.807 103.5 190.871 102.095C190.935 100.688 191.446 101.519 192.148 102.35C192.852 103.181 193.62 101.967 193.684 103.308C193.747 104.652 194.643 103.373 194.451 101.136C194.259 98.8986 195.537 101.264 196.112 101.648C196.688 102.031 197.839 101.966 195.857 98.0032C193.876 94.0396 196.432 97.4918 196.944 97.1722C197.456 96.8521 196.24 95.2545 195.793 94.5511C195.345 93.8482 195.282 92.8259 196.369 92.6339C197.456 92.4426 196.816 91.9305 195.09 90.7806C193.364 89.6283 194.067 89.757 195.218 89.6938C196.369 89.6289 194.898 88.6703 193.812 87.9031C192.725 87.1364 191.254 85.794 192.916 85.4744C194.578 85.1543 194.003 84.3239 191.702 83.6843C189.4 83.0452 187.611 82.5975 189.656 82.0217C191.702 81.4464 192.085 81.5108 190.871 81.1269C189.656 80.7436 188.505 81.1919 188.634 79.9132C188.761 78.6345 189.529 78.4425 188.122 77.9311C186.716 77.4196 187.355 77.9311 185.437 77.6759C183.519 77.4196 186.652 77.2276 187.035 76.2053C187.419 75.1817 186.141 75.5656 185.565 75.5024C184.99 75.4375 183.391 74.8622 184.606 74.3519C185.821 73.8404 183.328 72.7531 182.433 72.7531C181.538 72.7531 180.324 72.2416 181.857 71.4095C183.391 70.579 181.026 70.1957 180.132 70.1957C179.236 70.1957 177.83 69.7492 179.236 69.2372C180.643 68.7257 178.15 68.2136 177.639 68.2786C177.127 68.3418 174.634 68.0872 176.807 67.447C178.981 66.8085 175.784 66.2333 174.953 66.3603C174.122 66.489 173.419 64.9546 173.419 64.9546C173.419 64.9546 172.333 61.4392 173.356 62.5248C174.378 63.6115 177.831 67.0005 176.808 64.9546C175.785 62.9081 175.146 61.3742 176.424 62.5248C177.702 63.6765 179.237 68.151 179.237 65.5298C179.237 62.9081 177.447 61.3742 179.428 63.1644C181.41 64.9546 181.41 68.5343 182.114 66.1683C182.817 63.8035 181.985 63.1 183.328 64.9546C184.671 66.8085 184.159 65.5298 184.351 64.5701C184.542 63.6121 184.926 64.3149 185.182 65.5298C185.438 66.7436 187.036 68.5975 186.716 65.593C186.396 62.5892 187.419 64.5063 187.867 65.593C188.314 66.6804 189.018 68.7906 189.465 66.5522C189.912 64.3149 190.999 67.0637 191.191 68.151C191.383 69.2377 192.789 70.5796 192.47 68.0872C192.149 65.593 193.812 68.3424 193.812 69.4291C193.812 70.5158 195.474 71.3468 195.026 68.7263C194.579 66.1051 196.049 66.9355 196.625 69.3009C197.2 71.667 198.287 72.9451 198.287 70.3883C198.287 67.8303 199.373 69.813 199.884 71.41C200.396 73.0088 202.058 76.7173 201.866 72.4968C201.674 68.2786 201.995 70.3245 202.761 71.9865C203.528 73.6485 204.551 75.9489 204.551 73.2002C204.551 70.4515 205.702 72.7531 205.894 74.16C206.086 75.5656 206.789 78.3776 207.108 75.5656C207.428 72.7531 207.939 75.0536 208.323 76.0139C208.706 76.9719 210.497 77.1639 210.497 76.3323C210.497 75.5018 210.24 75.0536 211.391 75.3099C212.542 75.5656 211.902 73.3284 211.52 73.6479C211.135 73.9668 211.072 72.3048 212.349 72.5612C213.628 72.8169 212.286 70.771 211.775 70.771C211.264 70.771 211.775 70.0038 210.368 69.6205C208.962 69.2372 209.601 68.5337 209.73 68.1504C209.857 67.7665 209.922 67.4464 208.835 67.1913C207.748 66.9349 208.451 66.2965 208.579 65.8482C208.706 65.4017 208.386 65.0178 207.173 65.4017C205.958 65.785 203.592 65.2729 205.446 64.5695C207.3 63.8673 207.045 63.0362 205.703 62.9725C204.359 62.9075 203.529 63.0357 204.424 62.1409C205.319 61.2467 203.528 60.7358 202.122 60.9904C200.717 61.2467 197.328 62.2053 199.055 61.2467C200.78 60.2875 200.972 59.137 199.63 59.3284C198.287 59.5197 194.324 60.2869 195.921 59.5847C197.52 58.8818 198.351 57.1549 196.752 57.3462C195.154 57.5382 192.086 58.6249 193.685 57.4106C195.283 56.1963 195.41 55.2371 193.813 55.3003C192.214 55.3653 190.041 56.7716 190.616 56.0676C191.192 55.3653 190.232 54.5975 189.146 54.8538C188.06 55.1096 186.845 54.3423 189.081 53.7671C191.319 53.1918 188.315 53.1286 186.077 53.5751C183.84 54.0222 181.603 54.1504 184.096 52.9999C186.588 51.8499 183.713 51.658 182.306 52.2332C180.899 52.8085 178.47 53.8309 180.005 52.4884C181.539 51.1465 178.598 51.9769 177.767 52.3602C176.936 52.7435 174.827 52.5516 176.105 51.8499C177.384 51.1465 175.338 50.6988 174.827 51.4666C174.315 52.2332 172.909 51.0815 173.932 50.5712C174.954 50.0592 172.845 50.5069 171.758 51.2103C170.672 51.9131 168.882 52.1683 169.329 51.4666C169.777 50.7632 167.603 51.5936 166.645 52.3602C165.686 53.1286 163.959 51.0183 164.919 50.7632C165.878 50.5063 165.302 49.6759 164.279 49.2926C163.257 48.9087 164.535 48.269 165.941 49.6759C167.348 51.0815 166.581 48.3328 166.262 48.0777C165.941 47.8219 164.279 46.4157 166.581 46.799C168.882 47.1829 169.394 47.5024 168.626 46.2869C167.86 45.0732 167.667 44.7537 169.522 45.4571C171.375 46.1605 172.91 45.5852 172.015 44.6905C171.119 43.7945 171.695 43.4118 172.845 43.9864C173.997 44.5617 174.445 44.6249 173.869 43.5399C173.292 42.4532 173.677 41.9411 175.083 43.6031C176.489 45.2651 178.407 44.3698 177.129 43.2192C175.85 42.0687 176.362 41.6204 177.64 42.5796C178.919 43.5393 179.877 43.0279 178.855 41.9411C177.832 40.8544 178.344 39.8309 180.006 41.3009C181.668 42.7715 182.499 41.9411 181.348 40.9825C180.197 40.0222 181.476 39.3205 182.818 41.4297C184.161 43.5399 184.927 42.4532 184.48 41.4929C184.033 40.5343 184.417 39.7671 185.44 41.5572C186.463 43.3474 187.612 41.8768 187.037 41.1739C186.463 40.4699 187.549 39.6389 188.572 41.4923C189.595 43.3474 190.937 42.771 190.106 41.4291C189.274 40.0872 190.553 39.7671 191.384 41.4291C192.216 43.0911 193.942 43.2192 193.494 42.0043C193.046 40.79 194.389 41.2371 194.645 41.7492C194.901 42.2607 197.009 42.7072 196.114 41.3659C195.22 40.0216 196.946 40.5987 197.521 41.8124C198.097 43.0279 199.375 43.2824 199.056 42.2607C198.736 41.2371 200.014 42.579 200.526 43.3474C201.037 44.1146 202.316 43.9859 202.124 43.3474C201.932 42.7072 203.849 44.0496 203.338 41.6854C202.827 39.32 202.38 39.8946 202.699 39.32C203.019 38.7435 202.124 38.7435 201.804 38.616C201.485 38.4884 200.718 37.9125 201.356 37.593C201.996 37.2746 200.718 36.2511 199.631 36.6344C198.544 37.0177 195.412 36.954 198.097 35.8672C200.781 34.7805 198.736 34.5259 198.225 34.5259C197.713 34.5259 200.014 32.8633 196.371 33.5024C192.727 34.142 194.197 33.438 195.284 32.9903C196.371 32.5432 195.731 31.2013 191.512 33.438C187.294 35.6759 185.44 35.4207 188.891 33.6299C192.344 31.8404 194.645 30.114 189.595 31.8404C184.545 33.5667 187.358 31.7116 188.125 31.3283C188.891 30.9444 191.385 28.6439 186.398 30.9444C181.413 33.2466 181.605 33.1185 183.714 31.6484C185.823 30.1778 185.632 27.9405 181.605 31.776C177.577 35.6126 176.299 36.6344 177.193 35.1644C178.088 33.6937 183.203 28.8365 178.727 31.1369C174.253 33.438 174.189 39.1918 173.422 35.8672C172.654 32.5432 175.339 33.1817 176.49 32.0317C177.64 30.8812 175.786 30.6249 174.445 31.9679C173.102 33.3104 172.144 33.438 172.144 36.3787C172.144 39.3194 170.417 37.4011 170.8 36.8264C171.184 36.2511 170.929 32.9271 173.102 31.0732C175.276 29.2192 170.673 31.5846 170.545 31.9679C170.417 32.3513 168.564 34.5259 168.691 33.1817C168.82 31.8404 168.18 32.9271 167.158 33.3736C166.135 33.8219 163.769 34.0771 164.473 33.5024C165.175 32.9271 166.454 31.7116 167.861 31.8404C169.267 31.9679 168.691 30.7536 167.349 30.9444C166.006 31.1364 164.281 30.1778 166.262 29.9864C168.244 29.7945 170.353 28.7709 169.267 28.3244C168.18 27.8773 168.499 27.6204 169.906 27.3658C171.313 27.1101 173.293 25.959 171.504 25.767C169.714 25.5757 169.203 24.4884 171.248 24.4884C173.293 24.4884 175.468 23.593 174.445 23.0833C173.422 22.5712 174.061 22.443 175.147 22.5062C176.234 22.5712 176.043 21.6758 174.764 21.2925C173.486 20.9092 175.147 20.269 176.874 20.269C178.6 20.269 179.878 19.4386 179.048 19.1834C178.216 18.9271 178.536 18.2237 179.878 18.5438C181.22 18.8633 183.97 18.0967 182.755 17.8398C181.541 17.5846 181.988 16.5617 183.33 16.5617C184.673 16.5617 185.76 16.4979 185.184 15.8582C184.609 15.2192 185.44 15.3473 186.783 15.2192C188.125 15.091 191.576 14.8991 190.299 14.5158C189.02 14.1324 187.613 13.1733 188.572 12.9819C189.531 12.7906 187.677 11.8952 186.846 11.64C186.015 11.3837 185.057 10.8728 185.121 10.4883C185.184 10.1044 184.29 10.1044 183.65 10.6165C183.012 11.1286 181.924 11.0648 181.989 10.4883C182.051 9.91307 181.989 9.97803 181.094 10.4883C180.198 10.9998 179.303 11.2561 179.494 10.6165C179.686 9.97803 178.408 10.6165 177.896 11.1286C177.385 11.64 176.49 12.8538 176.49 12.0865C176.49 11.3193 174.955 10.4245 174.892 11.4481C174.828 12.4704 173.741 14.964 173.741 14.1324C173.741 13.3003 173.358 11.3837 172.462 12.5986C171.568 13.8123 172.271 16.1778 171.44 15.9226C170.609 15.6657 171.313 14.5158 171.376 13.621C171.44 12.725 170.098 11.3837 169.524 13.9405C168.947 16.4973 170.482 19.5018 169.586 18.7995C168.691 18.0961 168.499 17.3933 168.564 15.7312C168.628 14.0687 167.476 14.8353 167.349 16.1778C167.221 17.5208 167.668 21.4839 167.158 19.4386C166.646 17.3933 166.582 13.429 165.559 16.0496C164.536 18.6714 166.327 23.593 165.559 22.3793C164.792 21.1638 164.473 20.5885 164.473 19.1828C164.473 17.7766 163.386 17.9685 163.066 19.1828C162.747 20.3971 163.066 26.2147 162.811 25.1912C162.555 24.1677 162.811 22.8907 162.235 21.739C161.659 20.5885 161.212 23.7849 161.212 23.2097C161.212 22.6344 162.235 27.0457 161.659 26.4705C161.085 25.8952 160.318 27.5572 159.806 24.6797C159.295 21.804 159.102 24.8085 158.527 25.3837C157.952 25.9584 157.313 24.6165 156.738 27.494C156.163 30.3697 155.651 31.3283 155.012 30.3697C154.373 29.4112 153.606 30.6249 153.606 31.7116C153.606 32.7984 152.454 33.6299 152.327 32.8633C152.2 32.0949 150.857 32.48 150.792 31.5197C150.729 30.5617 149.961 31.0094 149.642 32.672C149.322 34.334 148.363 33.5667 148.939 30.8812C149.514 28.1957 149.705 26.2153 148.939 27.0457C148.172 27.8767 148.108 26.4073 148.172 25.4481C148.236 24.4884 148.236 22.9539 147.916 23.3372C147.596 23.7217 146.893 24.2332 147.212 22.1229C147.532 20.0138 146.829 19.3104 146.254 21.612C145.679 23.9131 146.318 27.3021 145.55 28.0037C144.783 28.7077 144.017 28.8359 144.527 27.429C145.039 26.0234 146.062 23.274 145.935 20.142C145.806 17.0093 144.911 16.1146 144.783 18.1599C144.655 20.2058 145.487 23.593 144.144 24.6165C142.802 25.6401 142.61 25.1918 142.93 24.0413C143.249 22.8907 144.4 21.4207 143.952 18.5432C143.505 15.6663 142.227 14.1962 142.163 16.2433C142.099 18.2886 142.994 21.1006 141.971 21.4845C140.948 21.8678 140.948 21.2276 141.395 20.077C141.843 18.9271 142.163 15.4111 141.971 13.7491C141.779 12.0871 140.564 11.5757 140.436 12.9175C140.309 14.2612 140.18 11.4487 140.309 10.3619C140.436 9.27519 139.286 6.90918 139.158 8.69993C139.03 10.4883 138.135 10.105 138.135 8.63497C138.135 7.16492 138.199 3.52198 137.624 5.43971C137.048 7.35687 136.409 7.67639 136.281 6.71782C136.154 5.75924 136.154 3.33003 135.642 3.90529C135.13 4.48056 134.3 4.4156 134.108 3.58518C133.916 2.75476 133.788 2.81855 133.597 3.71392C133.403 4.60637 132.444 3.52081 132.316 3.45585Z" fill="#007E3A"/>
<path d="M60.6807 113.34C64.9639 128.554 73.2493 140.577 80.0898 149.078C76.5739 160.073 54.6475 178.547 41.3509 199.323C35.7261 185.068 26.0727 176.247 20 162.247C35.9815 135.718 47.8321 132.774 60.6807 113.34Z" fill="#D21034"/>
<path d="M239.628 113.34C235.345 128.554 227.06 140.577 220.219 149.078C223.735 160.073 245.661 178.547 258.957 199.323C264.583 185.068 274.236 176.246 280.309 162.247C264.327 135.718 252.477 132.774 239.628 113.34Z" fill="#D21034"/>
<path d="M57.5655 133.393C59.7931 141.306 62.9849 144.131 66.5412 148.553C64.713 154.271 49.4867 166.439 42.5718 177.242C39.6463 169.829 36.787 169.663 33.6289 162.383C41.5413 147.822 50.8833 144.064 57.5655 133.393Z" fill="#007E3A"/>
<path d="M242.741 133.393C240.514 141.306 237.323 144.131 233.766 148.553C235.594 154.271 250.82 166.439 257.735 177.242C260.66 169.829 263.52 169.663 266.678 162.383C258.766 147.822 249.424 144.064 242.741 133.393Z" fill="#007E3A"/>
<path d="M46.3984 152.146C48.0604 150.357 50.6816 148.759 53.1743 151.508C54.8363 154.511 53.4941 157.516 52.0241 159.626C52.2154 158.092 52.5347 155.278 51.4479 153.553C49.5305 151.571 48.8906 152.146 46.3984 152.146Z" fill="white"/>
<path d="M253.899 152.146C252.237 150.357 249.615 148.759 247.123 151.508C245.461 154.511 246.803 157.516 248.273 159.626C248.082 158.092 247.762 155.278 248.849 153.553C250.766 151.571 251.406 152.146 253.899 152.146Z" fill="white"/>
<path d="M167.669 131.562C149.003 121.334 121.451 130.731 111.543 147.99C101.635 165.249 99.6528 190.053 117.104 206.929C134.556 223.806 156.419 223.933 173.487 214.536C190.555 205.139 197.395 187.88 196.116 174.903C194.391 189.222 187.103 201.496 172.975 207.441C158.848 213.386 136.922 212.556 124.904 197.149C112.885 181.743 110.879 164.846 121.132 148.95C131.385 133.052 149.099 124.779 167.669 131.562Z" fill="#FEC00F"/>
<path d="M167.673 131.563C147.059 124.393 129.337 135.318 120.588 149.844C111.839 164.369 112.948 185.508 126.498 199.225C140.046 212.942 160.999 212.318 173.498 207.395C185.997 202.474 194.822 189.288 196.119 174.904C190.124 186.68 184.68 196.816 172.795 200.218C160.912 203.622 143.356 201.948 133.742 189.739C124.127 177.532 123.209 164.351 128.988 150.793C134.768 137.235 152.171 128.322 167.673 131.563Z" fill="#FEC00F"/>
<path d="M133.679 190.066C124.227 177.426 123.203 164.351 128.983 150.793C134.763 137.235 152.071 128.327 167.525 131.541C148.588 123.83 129.409 134.842 120.738 148.991C112.466 162.489 110.408 180.985 126.272 199.409C127.435 200.759 132.275 188.986 133.679 190.066Z" fill="url(#paint0_linear_186_13392)"/>
<path d="M117.039 206.867C134.491 223.551 156.481 223.87 173.485 214.537C190.489 205.205 197.393 187.881 196.114 174.904C194.389 189.223 186.956 201.746 173.168 207.248C159.38 212.749 136.896 212.017 124.902 197.149C124.188 196.264 118.061 206.248 117.039 206.867Z" fill="url(#paint1_linear_186_13392)"/>
<path d="M147.77 199.527L159.86 167.375L163.574 180.441L147.77 199.527Z" fill="#FEC00F"/>
<path d="M187.664 189.39L159.859 167.376L173.445 167.667L187.664 189.39Z" fill="#FEC00F"/>
<path d="M189.172 147.735L159.859 167.376L164.463 154.454L189.172 147.735Z" fill="#FEC00F"/>
<path d="M150.092 132.473L159.859 167.376L149.039 158.858L150.092 132.473Z" fill="#FEC00F"/>
<path d="M125.406 165.788L159.859 167.375L148.488 174.909L125.406 165.788Z" fill="#FEC00F"/>
<path d="M147.77 199.527L159.86 167.375L148.489 174.909L147.77 199.527Z" fill="url(#paint2_linear_186_13392)"/>
<path d="M187.664 189.39L159.859 167.376L163.573 180.442L187.664 189.39Z" fill="url(#paint3_linear_186_13392)"/>
<path d="M189.172 147.734L159.859 167.376L173.445 167.667L189.172 147.734Z" fill="url(#paint4_linear_186_13392)"/>
<path d="M150.09 132.473L159.857 167.376L164.46 154.454L150.09 132.473Z" fill="url(#paint5_linear_186_13392)"/>
<path d="M125.406 165.789L159.859 167.376L149.039 158.858L125.406 165.789Z" fill="url(#paint6_linear_186_13392)"/>
<path d="M203.982 246.808L198.285 261.458L188.871 263.996C198.635 266.544 208.667 270.387 217.645 274.351C215.471 269.556 213.308 264.271 211.198 259.477C215.736 258.071 220.275 256.664 224.877 255.257C218.754 252.114 211.495 248.978 203.982 246.808Z" fill="#C7C4E2"/>
<path d="M149.514 253.161C165.815 253.402 182.078 254.518 197.33 259.429L205.32 238.993C190.746 234.532 173.997 230.593 149.514 230.709C125.03 230.592 108.282 234.532 93.707 238.993L101.698 259.429C116.95 254.518 133.213 253.402 149.514 253.161Z" fill="#C7C4E2"/>
<path d="M197.137 243.175C197.137 243.175 195.219 239.339 195.219 242.984C195.219 246.627 195.155 248.609 194.261 250.399C193.366 252.188 193.557 253.85 195.155 252.061C196.754 250.27 196.881 247.33 196.881 247.33C196.881 247.33 196.625 246.308 197.392 246.692C198.16 247.075 197.137 243.751 197.137 243.175ZM190.361 250.144C190.361 250.144 188.955 251.102 189.914 252.316C190.872 253.531 191.319 252.828 191.384 252.061C191.448 251.294 191.384 250.974 190.937 250.783C190.489 250.591 190.169 250.462 190.361 250.144ZM191.767 240.427C191.767 240.427 190.425 238.445 190.169 241.321C189.914 244.198 190.489 246.244 189.274 247.203C188.06 248.161 181.539 247.587 181.284 246.818C181.028 246.052 178.982 246.883 178.727 242.728C178.47 238.573 177.449 238.508 177.32 238.125C177.192 237.741 175.466 237.741 176.17 239.34C176.873 240.939 177.64 242.601 177.128 244.71C176.617 246.818 171.439 248.354 171.567 246.818C171.695 245.285 174.124 245.285 173.996 242.728C173.868 240.17 172.526 238.636 172.142 238.382C171.758 238.125 169.713 237.55 169.713 239.212C169.713 240.874 170.033 243.048 171.248 242.92C172.462 242.793 173.357 242.601 172.526 243.176C171.695 243.751 170.991 245.157 169.585 245.605C168.179 246.052 166.133 246.947 164.79 247.01C163.447 247.075 164.918 247.971 164.982 247.971C165.046 247.971 168.69 248.289 169.266 247.842C169.841 247.395 170.16 246.564 170.352 247.267C170.543 247.971 169.905 248.417 170.415 248.609C170.927 248.801 173.1 249.312 174.123 248.929C175.146 248.545 176.296 246.818 177.256 246.818C178.215 246.818 179.749 248.609 180.58 248.801C181.411 248.992 185.694 250.463 188.06 249.825C190.424 249.184 191.255 246.5 191.384 245.86C191.511 245.221 191.192 243.943 191.766 244.07C192.342 244.198 192.854 243.686 192.662 242.856C192.471 242.025 191.767 240.427 191.767 240.427ZM182.882 238.765C182.882 238.765 181.475 241.769 182.882 241.706C184.289 241.64 183.137 241.577 183.585 242.856C184.032 244.135 184.16 244.647 184.032 245.285C183.905 245.925 184.672 245.988 184.927 245.221C185.183 244.453 186.014 242.536 186.078 241.961C186.142 241.386 186.91 240.682 186.973 241.131C187.037 241.577 188.38 241.321 187.995 240.299C187.612 239.277 186.526 239.02 185.759 240.107C184.991 241.194 184.928 242.664 184.736 241.64C184.544 240.619 184.16 237.741 182.882 238.765ZM117.23 241.64C117.23 241.64 116.655 242.409 117.23 242.409C117.805 242.409 117.358 242.344 117.55 242.664C117.742 243.048 117.742 243.175 117.742 243.368C117.678 243.559 117.998 243.559 118.062 243.368C118.189 243.176 118.572 242.601 118.572 242.473C118.572 242.344 118.892 242.089 118.956 242.217C118.956 242.344 119.532 242.281 119.341 242.025C119.212 241.706 118.765 241.64 118.445 241.961C118.125 242.281 118.062 242.664 117.998 242.409C117.934 242.089 117.742 241.321 117.23 241.64ZM180.069 238.253C180.069 238.253 181.347 238.891 181.155 240.043C180.963 241.194 180.069 240.874 180.133 240.555C180.197 240.235 180.005 239.723 180.453 239.659C180.9 239.595 180.069 238.253 180.069 238.253ZM176.937 247.714C176.937 247.714 178.215 248.353 178.024 249.504C177.832 250.654 176.937 250.335 177 250.015C177.064 249.696 176.872 249.184 177.32 249.12C177.767 249.057 176.937 247.714 176.937 247.714ZM173.293 235.824C173.293 235.824 174.572 236.462 174.38 237.613C174.188 238.765 173.293 238.445 173.357 238.125C173.421 237.806 173.229 237.294 173.677 237.23C174.124 237.166 173.293 235.824 173.293 235.824ZM164.471 239.403C164.471 239.403 165.75 240.043 165.558 241.194C165.366 242.344 164.471 242.025 164.535 241.705C164.599 241.386 164.407 240.874 164.854 240.811C165.302 240.747 164.471 239.403 164.471 239.403ZM158.463 235.184C158.463 235.184 159.741 235.824 159.549 236.974C159.357 238.125 158.463 237.806 158.526 237.486C158.59 237.166 158.398 236.654 158.845 236.591C159.292 236.527 158.463 235.184 158.463 235.184ZM110.582 247.97C110.582 247.97 109.559 249.376 110.327 251.038C111.158 252.571 111.924 251.741 111.733 251.294C111.541 250.846 111.414 250.078 110.902 250.144C110.39 250.27 110.582 247.97 110.582 247.97ZM143.312 247.33C143.312 247.33 144.015 247.65 143.888 248.289C143.823 248.929 143.312 248.737 143.376 248.608C143.376 248.416 143.312 248.161 143.504 248.097C143.759 248.034 143.312 247.33 143.312 247.33ZM135.705 236.462C135.705 236.462 136.984 237.103 136.792 238.253C136.6 239.403 135.705 239.084 135.769 238.765C135.832 238.444 135.641 237.933 136.089 237.869C136.536 237.806 135.705 236.462 135.705 236.462ZM166.964 235.121C166.964 235.121 165.814 235.824 166.389 237.741C166.964 239.659 167.476 241.385 166.964 242.408C166.453 243.43 162.809 245.348 160.955 244.261C159.101 243.175 159.549 240.682 157.631 242.663C155.713 244.645 155.01 247.714 154.052 246.883C153.093 246.052 152.964 246.754 152.964 245.284C152.964 243.813 153.732 245.029 154.179 244.645C154.627 244.261 155.202 243.302 154.371 243.302C153.54 243.302 152.389 242.791 151.686 242.408C150.983 242.025 148.49 241.833 150.6 241.256C152.709 240.681 152.645 241.705 153.156 241.768C153.668 241.832 153.796 241.64 153.54 240.937C153.284 240.234 152.198 240.106 152.262 238.827C152.325 237.549 152.006 237.677 152.006 237.294C152.006 236.91 151.878 237.485 152.581 236.846C153.284 236.207 152.262 235.95 151.942 235.503C151.623 235.056 150.727 233.777 150.663 234.353C150.6 234.928 150.024 235.566 150.408 236.782C150.791 237.996 151.047 238.89 150.727 239.531C150.408 240.169 147.468 241.064 146.892 241.704C146.317 242.343 145.741 243.493 146.444 243.622C147.148 243.749 146.956 243.622 147.914 243.749C148.873 243.877 147.083 244.452 146.061 244.452C145.038 244.452 142.226 244.836 141.842 243.558C141.458 242.28 140.755 243.558 140.371 240.617C139.988 237.677 139.733 237.996 139.348 235.566C138.965 233.137 137.622 235.823 137.559 235.695C137.495 235.566 138.39 240.617 138.582 241.448C138.773 242.279 139.413 246.626 138.582 245.538C137.751 244.452 136.408 241.384 136.152 240.809C135.897 240.233 134.938 238.699 134.746 238.635C134.554 238.571 133.084 238.251 133.787 239.658C134.491 241.064 136.408 243.621 135.066 244.58C133.723 245.538 132.445 245.986 131.934 245.923C131.423 245.859 130.591 245.346 130.911 244.452C131.23 243.558 131.742 241.704 130.911 242.471C130.079 243.237 129.441 245.795 129.76 246.434C130.079 247.073 131.103 248.672 133.02 247.904C134.938 247.137 135.897 245.475 136.409 245.795C136.92 246.115 136.6 247.008 137.559 247.265C138.518 247.521 140.564 247.521 141.523 246.37C142.481 245.22 143.185 246.242 143.312 246.37C143.44 246.498 146.061 246.626 148.49 245.346C150.919 244.068 151.686 244.899 152.006 244.899C152.326 244.899 152.645 245.603 152.582 247.073C152.517 248.544 153.86 249.247 154.371 248.991C154.883 248.736 155.522 246.817 157.887 244.708C160.253 242.599 158.974 244.005 159.166 244.579C159.357 245.155 161.531 246.498 162.362 246.37C163.193 246.241 167.219 245.346 167.219 244.836C167.219 244.324 168.945 243.557 168.435 240.362C167.924 237.165 167.411 237.676 167.539 237.357C167.667 237.037 169.138 237.422 166.964 235.121ZM154.946 235.057C154.946 235.057 153.156 235.504 153.86 236.846C154.563 238.189 154.819 242.025 154.819 241.705C154.819 241.386 155.075 245.029 156.162 242.281C157.248 239.532 156.162 240.298 155.97 239.085C155.778 237.87 156.608 238.381 156.225 237.103C155.841 235.824 154.946 235.057 154.946 235.057ZM159.293 239.085L158.654 238.508L158.015 239.468L158.91 240.235L159.676 239.531L161.019 240.106L161.723 239.084L160.572 238.125L159.293 239.085ZM146.317 235.568L141.33 238.125L140.947 239.148L146.892 236.399L146.317 235.568ZM147.851 238.189L142.865 240.747L142.481 241.769L148.426 239.02L147.851 238.189ZM128.609 236.719L130.591 237.422C130.591 237.422 130.271 239.532 129.376 239.66C128.481 239.787 127.139 240.363 127.842 239.148C128.545 237.934 127.97 237.934 127.779 238.382C127.587 238.828 127.011 238.125 127.459 237.678C127.906 237.23 128.609 236.719 128.609 236.719ZM103.231 240.49L105.212 241.194C105.212 241.194 104.893 243.302 103.998 243.43C103.103 243.559 101.761 244.135 102.464 242.92C103.167 241.706 102.592 241.706 102.4 242.152C102.208 242.601 101.633 241.897 102.08 241.449C102.528 241.002 103.231 240.49 103.231 240.49ZM149.832 246.946C149.832 246.946 147.914 247.138 148.81 247.842C149.704 248.545 148.873 248.545 149.001 248.992C149.129 249.44 150.407 250.591 150.791 249.76C151.175 248.929 151.175 248.608 150.727 248.608C150.28 248.608 150.088 248.289 150.28 247.905C150.471 247.522 149.832 246.946 149.832 246.946ZM134.746 248.225C134.746 248.225 132.956 248.673 132.764 249.249C132.573 249.825 132.764 250.271 133.787 249.696C134.81 249.121 135.705 248.161 134.746 248.225ZM127.33 247.395L126.755 246.754L125.924 247.97L127.203 248.992L128.034 248.097L128.801 248.737L129.312 247.842L128.737 246.946L127.714 247.65L127.33 247.395ZM107.642 240.874L106.938 240.363L106.363 241.706L107.834 242.473L108.473 241.449L109.303 241.897L109.623 240.939L108.92 240.17L108.025 241.066L107.642 240.874ZM127.459 241.769C127.459 241.769 127.906 242.793 127.651 243.43C127.395 244.07 126.116 244.261 125.989 243.494C125.86 242.727 124.198 240.747 124.071 239.723C123.942 238.7 123.304 239.595 123.304 240.298C123.304 241.002 123.559 242.281 123.942 242.793C124.326 243.302 124.518 244.39 124.006 244.71C123.495 245.03 123.047 245.285 122.664 244.838C122.28 244.39 120.746 242.601 120.362 243.559C119.979 244.518 118.381 246.117 117.102 246.244C115.823 246.372 114.993 247.203 113.266 245.925C111.541 244.646 108.281 242.728 107.705 245.03C107.13 247.33 106.874 251.295 104.956 249.504C103.039 247.714 101.76 246.947 102.591 248.737C103.422 250.527 105.148 252.508 105.915 252.061C106.682 251.613 108.025 250.654 108.409 248.801C108.792 246.947 108.984 244.773 110.965 246.692C112.947 248.609 113.011 248.992 116.207 248.609C119.403 248.225 119.787 247.395 120.299 246.818C120.809 246.244 120.618 246.18 122.025 246.755C123.431 247.33 124.965 246.755 125.156 245.86C125.348 244.965 126.243 245.093 126.243 245.477C126.243 245.86 128.097 246.244 128.609 245.221C129.12 244.198 128.993 242.536 127.459 241.769ZM117.678 237.806L111.989 241.321L112.18 242.344L118.509 238.828L118.572 237.549L117.678 237.806ZM123.815 248.225L123.239 249.121L124.39 249.825L124.774 248.545L123.815 248.225Z" fill="black"/>
<path d="M203.984 246.809L198.288 261.459L188.874 263.997C198.638 266.545 208.67 270.387 217.648 274.351C215.474 269.556 213.31 264.271 211.201 259.477C215.74 258.071 220.278 256.664 224.881 255.258C218.757 252.115 211.498 248.978 203.984 246.809ZM149.513 254.618C137.175 254.884 123.962 255.326 111.286 258.403L113.596 264.693C101.54 267.511 89.8178 272.142 78.6308 277.237C80.9021 271.867 83.3611 265.776 85.7151 260.47C81.4434 258.955 76.055 257.313 70.4297 255.843C75.4929 252.823 83.5323 248.788 94.4918 245.528L91.7241 238.126C110.838 231.797 130.015 229.241 149.513 229.241C169.01 229.241 188.187 231.797 207.301 238.126L204.534 245.528C215.493 248.788 223.532 252.823 228.596 255.843C222.97 257.313 217.582 258.955 213.31 260.47C215.665 265.776 218.124 271.867 220.395 277.237C209.208 272.142 197.485 267.511 185.43 264.693L187.739 258.403C175.063 255.326 161.851 254.884 149.513 254.618ZM95.0408 246.809L100.738 261.459L110.151 263.997C100.388 266.545 90.355 270.387 81.3772 274.351C83.5507 269.556 85.7148 264.271 87.8248 259.477C83.2859 258.071 78.7473 256.664 74.1443 255.258C80.268 252.115 87.5275 248.978 95.0408 246.809ZM149.513 253.162C165.814 253.404 182.077 254.519 197.329 259.429L205.319 238.995C190.745 234.534 173.996 230.595 149.513 230.711C125.029 230.595 108.281 234.534 93.7059 238.995L101.697 259.429C116.948 254.519 133.211 253.404 149.513 253.162Z" fill="black"/>
<path d="M95.0371 246.808L100.734 261.458L110.148 263.996C100.384 266.544 90.3513 270.387 81.3735 274.351C83.5467 269.556 85.7111 264.271 87.8211 259.477C83.2822 258.071 78.7439 256.664 74.1406 255.257C80.2643 252.114 87.5235 248.978 95.0371 246.808Z" fill="#C7C4E2"/>
<defs>
<linearGradient id="paint0_linear_186_13392" x1="126.537" y1="127.197" x2="162.358" y2="197.502" gradientUnits="userSpaceOnUse">
<stop stop-color="#CD8C5D"/>
<stop offset="0.75999" stop-color="#FEC00F"/>
<stop offset="1" stop-color="#FEC00F"/>
</linearGradient>
<linearGradient id="paint1_linear_186_13392" x1="185.677" y1="223.202" x2="134.515" y2="166.383" gradientUnits="userSpaceOnUse">
<stop stop-color="#CD8C5D"/>
<stop offset="0.75" stop-color="#FEC00F"/>
<stop offset="1" stop-color="#FEC00F"/>
</linearGradient>
<linearGradient id="paint2_linear_186_13392" x1="165.214" y1="193.362" x2="142.408" y2="173.538" gradientUnits="userSpaceOnUse">
<stop stop-color="#CD8C5D"/>
<stop offset="0.85999" stop-color="#FEC00F"/>
<stop offset="1" stop-color="#FEC00F"/>
</linearGradient>
<linearGradient id="paint3_linear_186_13392" x1="188.708" y1="169.043" x2="158.817" y2="187.72" gradientUnits="userSpaceOnUse">
<stop stop-color="#CD8C5D"/>
<stop offset="0.82999" stop-color="#FEC00F"/>
<stop offset="1" stop-color="#FEC00F"/>
</linearGradient>
<linearGradient id="paint4_linear_186_13392" x1="171.387" y1="145.003" x2="177.712" y2="170.374" gradientUnits="userSpaceOnUse">
<stop stop-color="#CD8C5D"/>
<stop offset="0.89999" stop-color="#FEC00F"/>
<stop offset="1" stop-color="#FEC00F"/>
</linearGradient>
<linearGradient id="paint5_linear_186_13392" x1="150.879" y1="149.636" x2="163.649" y2="150.529" gradientUnits="userSpaceOnUse">
<stop stop-color="#CD8C5D"/>
<stop offset="0.93999" stop-color="#FEC00F"/>
<stop offset="1" stop-color="#FEC00F"/>
</linearGradient>
<linearGradient id="paint6_linear_186_13392" x1="140.966" y1="170.51" x2="146.796" y2="156.775" gradientUnits="userSpaceOnUse">
<stop stop-color="#CD8C5D"/>
<stop offset="0.85999" stop-color="#FEC00F"/>
<stop offset="1" stop-color="#FEC00F"/>
</linearGradient>
</defs>
</svg>
