<svg width="300" height="300" viewBox="0 0 300 300" fill="none" xmlns="http://www.w3.org/2000/svg">
<path fill-rule="evenodd" clip-rule="evenodd" d="M150 5C69.9382 5 5 69.932 5 150C5.00599 230.057 69.9382 295 150 295C230.066 295 295 230.057 295 150C295 69.9285 230.066 5 150 5Z" fill="#68B0E5"/>
<path fill-rule="evenodd" clip-rule="evenodd" d="M53.4219 222.175L83.216 247.59L72.8035 231.624L86.6874 245.16L69.6799 216.698L92.5849 241.338L83.2169 221.902L96.7503 238.564L86.2251 213.792L87.0766 214.831L89.1258 217.2L91.2111 219.481L92.3471 220.652L103.698 235.79L101.206 229.141L102.078 229.934L104.306 231.906L106.534 233.861L108.771 235.816L111.008 237.771L113.236 239.735L113.693 240.149C103.54 243.654 94.9714 248.471 89.1646 254.098C75.2182 245.917 63.0576 235.041 53.4228 222.158L53.4219 222.175ZM103.619 221.497L94.672 196.567L116.881 230.929L110.638 210.102L121.742 228.842L113.068 191.362L127.995 226.763L125.564 204.202L133.182 223.884L134.485 235.191C129.668 235.878 124.992 236.846 120.545 238.044L119.18 236.582L116.987 234.328L114.777 232.126L112.549 229.969L110.312 227.838L108.084 225.724L105.856 223.628L103.646 221.532L103.619 221.497ZM133.913 223.884L134.238 186.501L141.186 225.724L141.53 200.38L147.087 225.372L149.861 177.818L152.635 225.372L158.191 200.38L158.535 225.724L165.483 186.501L165.8 222.334L164.382 234.61C157.566 233.888 150.706 233.782 144.022 234.205C141.046 234.398 138.095 234.698 135.207 235.094L133.913 223.884ZM166.267 224.597L174.157 204.202L171.726 226.763L186.653 191.362L177.979 228.842L189.084 210.102L182.831 230.929L205.049 196.567L196.093 221.524V221.532L193.883 223.628L191.655 225.724L189.418 227.838L187.19 229.969L184.962 232.126L182.752 234.328L180.559 236.582L179.811 237.392C174.976 236.142 170.044 235.253 165.095 234.698L166.267 224.597ZM198.506 229.167L196.023 235.79L207.312 220.731L208.528 219.481L210.615 217.2L212.658 214.831L213.477 213.836L202.962 238.564L216.506 221.902L207.127 241.338L230.041 216.698L213.028 245.16L226.915 231.616L216.506 247.59L245.743 222.651C236.54 234.83 225.075 245.204 211.971 253.147C204.45 247.044 195.873 242.562 186.803 239.471L188.731 237.762L190.968 235.816L193.205 233.861L195.433 231.906L197.661 229.934L198.506 229.167Z" fill="#F8A500"/>
<path fill-rule="evenodd" clip-rule="evenodd" d="M45.5977 100.545C60.6581 130.328 45.0957 165.641 78.7293 186.89C89.6059 221.366 125.079 230.234 138.465 267.713C119.223 235.756 89.4386 228.394 73.2069 191.408C39.908 168.652 55.303 138.87 45.5977 100.545ZM254.138 100.545C239.079 130.328 254.64 165.641 221.009 186.89C210.133 221.358 174.662 230.225 161.267 267.713C180.518 235.747 210.3 228.385 226.53 191.408C259.827 168.652 244.433 138.861 254.138 100.545ZM179.875 154.73C180.835 155.496 181.804 156.262 182.763 157.028C181.742 158.455 180.712 159.881 179.69 161.317C178.202 160.454 176.722 159.582 175.234 158.719C176.15 157.301 177.832 155.989 179.875 154.73ZM242.232 194.287C241.193 195.943 240.162 197.607 239.123 199.263C243.227 201.632 247.331 203.992 251.434 206.361C250.985 201.411 248.458 197.202 242.232 194.287ZM235.704 205.423C236.629 203.697 237.65 201.805 238.575 200.079C242.67 202.457 247.015 205.004 251.11 207.381C245.411 210.332 241.34 209.535 235.704 205.423ZM173.402 165.376C174.521 165.887 175.648 166.398 176.766 166.909C177.568 165.341 178.378 163.782 179.179 162.215C177.735 161.29 176.291 160.357 174.838 159.432C173.992 160.894 173.596 162.99 173.402 165.376ZM119.887 154.738C118.918 155.496 117.958 156.262 116.99 157.028C118.02 158.455 119.042 159.89 120.063 161.317C121.551 160.454 123.04 159.582 124.528 158.719C123.612 157.301 121.921 155.989 119.887 154.738ZM57.5728 194.197C58.6075 195.861 59.7111 197.645 60.7467 199.309C56.6465 201.661 52.3897 204.052 48.2869 206.412C48.7744 199.413 52.8223 196.012 57.5728 194.197ZM63.9987 205.447C63.0749 203.721 62.0463 201.859 61.1225 200.133C57.0294 202.511 52.8286 204.996 48.7337 207.374C53.2434 209.452 58.368 209.392 63.9987 205.447ZM126.368 165.368C125.241 165.878 124.123 166.389 123.004 166.9C122.203 165.341 121.393 163.774 120.583 162.206C122.036 161.281 123.48 160.357 124.933 159.423C125.778 160.885 126.175 162.981 126.368 165.368Z" fill="white"/>
<path fill-rule="evenodd" clip-rule="evenodd" d="M52.6147 232.21L53.6274 233.504L47.9721 237.916C46.9902 238.691 46.1219 239.184 45.3681 239.413C44.6142 239.642 43.8322 239.607 43.0159 239.308C42.1978 239.017 41.4229 238.392 40.6858 237.45C39.9698 236.534 39.5401 235.662 39.4027 234.834C39.2609 234.006 39.393 233.231 39.7981 232.509C40.2014 231.796 40.9209 231.03 41.9583 230.22L47.6128 225.808L48.6237 227.102L42.9754 231.514C42.1256 232.175 41.5611 232.747 41.2828 233.214C41.0028 233.689 40.9059 234.2 40.987 234.755C41.0689 235.31 41.3278 235.873 41.7619 236.428C42.506 237.379 43.2528 237.89 44.0022 237.96C44.7481 238.022 45.7353 237.582 46.9637 236.622L52.6147 232.21ZM45.4042 243.218L54.3372 234.588L55.5084 235.803L53.026 247.269L60.0392 240.497L61.1338 241.624L52.2008 250.254L51.0296 249.039L53.5182 237.573L46.4988 244.345L45.4042 243.218ZM57.8139 255.458L65.9605 246.088L69.4954 249.162C70.118 249.699 70.5671 250.148 70.8427 250.492C71.2363 250.967 71.4952 251.443 71.6203 251.936C71.7445 252.42 71.7313 252.94 71.5851 253.486C71.4371 254.04 71.1615 254.551 70.7573 255.018C70.0642 255.811 69.2232 256.268 68.2369 256.383C67.2506 256.489 66.0935 255.969 64.769 254.815L62.3649 252.728L59.0529 256.533L57.8139 255.458ZM63.3266 251.619L65.7501 253.732C66.5514 254.428 67.2498 254.771 67.8451 254.763C68.4412 254.754 68.9731 254.49 69.4434 253.944C69.7851 253.547 69.9788 253.133 70.0237 252.676C70.0678 252.226 69.9674 251.813 69.7199 251.443C69.557 251.205 69.1986 250.844 68.6359 250.359L66.2379 248.272L63.3266 251.619ZM66.7372 262.979L73.6809 252.684L81.124 257.713L80.3041 258.928L74.2225 254.824L72.0967 257.977L77.7917 261.816L76.9771 263.023L71.2812 259.183L68.9177 262.688L75.2388 266.95L74.4189 268.166L66.7372 262.979ZM89.2327 262.715L90.6717 263.516L87.1923 269.795C86.5873 270.878 85.9832 271.679 85.3791 272.19C84.775 272.692 84.0415 272.965 83.1741 273.009C82.3049 273.053 81.3494 272.789 80.3024 272.208C79.2852 271.644 78.5473 271.01 78.0973 270.297C77.6429 269.592 77.4623 268.826 77.5557 268.007C77.6464 267.188 78.011 266.202 78.6494 265.057L82.1288 258.778L83.5651 259.571L80.0901 265.841C79.567 266.783 79.2703 267.532 79.1972 268.069C79.1241 268.615 79.2368 269.126 79.5274 269.61C79.8206 270.085 80.2768 270.499 80.8933 270.843C81.95 271.424 82.8368 271.6 83.5536 271.371C84.266 271.142 85.0022 270.35 85.7569 268.985L89.2319 262.715H89.2327ZM87.0849 275.642L92.5271 264.476L96.7365 266.528C97.4851 266.889 98.031 267.206 98.3833 267.461C98.8852 267.822 99.2639 268.219 99.5105 268.659C99.7571 269.09 99.8804 269.601 99.8804 270.173C99.8804 270.746 99.7483 271.309 99.4753 271.855C99.0085 272.807 98.3216 273.467 97.397 273.828C96.4723 274.189 95.213 273.987 93.6367 273.22L90.7738 271.82L88.5617 276.355L87.0849 275.642ZM91.4176 270.499L94.306 271.908C95.2571 272.375 96.0232 272.534 96.5956 272.375C97.168 272.208 97.6171 271.811 97.9254 271.169C98.1543 270.693 98.2336 270.235 98.1631 269.795C98.0839 269.346 97.8813 268.976 97.5467 268.676C97.3353 268.491 96.895 268.236 96.217 267.91L93.3637 266.519L91.4176 270.499ZM97.5995 280.362L102.047 268.773L103.588 269.363L99.6602 279.587L105.367 281.78L104.847 283.145L97.5995 280.362ZM106.696 283.911L109.911 271.908L118.585 274.233L118.197 275.651L111.117 273.758L110.131 277.43L116.771 279.2L116.392 280.609L109.752 278.83L108.66 282.916L116.022 284.889L115.643 286.307L106.696 283.911ZM122.363 284.123L122.6 282.608L127.232 283.339L126.995 284.853L122.363 284.123ZM141.992 277.897L143.63 278.011L143.137 285.171C143.048 286.412 142.837 287.39 142.502 288.112C142.168 288.816 141.622 289.38 140.847 289.785C140.081 290.199 139.103 290.357 137.906 290.269C136.752 290.19 135.81 289.926 135.105 289.477C134.392 289.028 133.908 288.411 133.643 287.627C133.379 286.844 133.3 285.805 133.388 284.492L133.89 277.333L135.528 277.447L135.026 284.598C134.956 285.672 135 286.474 135.158 286.993C135.325 287.522 135.642 287.936 136.109 288.244C136.576 288.561 137.166 288.737 137.87 288.781C139.077 288.869 139.949 288.658 140.503 288.147C141.049 287.636 141.384 286.606 141.49 285.047L141.992 277.897ZM145.514 290.639L145.294 278.222L146.976 278.196L153.669 287.83L153.501 278.081L155.078 278.055L155.298 290.472L153.607 290.498L146.914 280.855L147.091 290.613L145.514 290.639ZM162.801 290.014L161.506 277.659L166.138 277.174C167.081 277.078 167.847 277.122 168.446 277.307C169.044 277.5 169.529 277.844 169.907 278.328C170.286 278.812 170.506 279.332 170.568 279.904C170.621 280.433 170.533 280.944 170.286 281.437C170.057 281.939 169.661 282.353 169.115 282.705C169.881 282.846 170.497 283.163 170.955 283.638C171.413 284.131 171.678 284.73 171.748 285.452C171.81 286.034 171.748 286.579 171.554 287.108C171.36 287.627 171.096 288.041 170.77 288.35C170.436 288.658 170.004 288.904 169.476 289.098C168.956 289.292 168.296 289.433 167.512 289.521L162.801 290.014ZM163.681 282.678L166.359 282.397C167.081 282.326 167.591 282.22 167.9 282.088C168.296 281.93 168.595 281.683 168.771 281.375C168.948 281.067 169.018 280.697 168.974 280.265C168.93 279.86 168.798 279.508 168.569 279.217C168.34 278.927 168.032 278.742 167.653 278.663C167.283 278.583 166.649 278.592 165.76 278.689L163.294 278.945L163.681 282.678ZM164.28 288.385L167.354 288.059C167.891 288.006 168.252 287.944 168.463 287.883C168.833 287.777 169.133 287.627 169.37 287.443C169.608 287.266 169.793 287.011 169.925 286.694C170.057 286.377 170.101 286.025 170.057 285.628C170.013 285.17 169.855 284.783 169.582 284.466C169.309 284.149 168.956 283.946 168.516 283.85C168.093 283.762 167.477 283.753 166.693 283.841L163.84 284.14L164.28 288.385ZM179.63 274.638L181.241 274.295L182.738 281.313C182.994 282.537 183.064 283.533 182.932 284.307C182.809 285.091 182.439 285.778 181.813 286.377C181.188 286.985 180.29 287.407 179.119 287.654C177.983 287.9 177.005 287.9 176.204 287.663C175.394 287.425 174.76 286.967 174.293 286.289C173.817 285.611 173.456 284.633 173.175 283.348L171.686 276.329L173.298 275.986L174.786 282.995C175.006 284.052 175.27 284.809 175.57 285.259C175.878 285.725 176.292 286.033 176.829 286.201C177.366 286.377 177.983 286.386 178.67 286.236C179.85 285.989 180.633 285.54 181.03 284.898C181.408 284.255 181.444 283.171 181.118 281.648L179.63 274.638ZM189.589 284.836L186.393 274.365L182.483 275.563L182.051 274.163L191.465 271.283L191.888 272.683L187.96 273.881L191.166 284.36L189.589 284.836ZM198.581 277.826L197.982 276.417L202.288 274.585L202.887 275.994L198.581 277.826ZM211.711 261.852L213.146 261.05L216.624 267.329C217.232 268.412 217.584 269.355 217.699 270.129C217.805 270.913 217.646 271.679 217.223 272.437C216.801 273.203 216.07 273.872 215.022 274.453C214.009 275.017 213.076 275.299 212.239 275.308C211.394 275.316 210.654 275.061 210.002 274.55C209.359 274.039 208.725 273.212 208.082 272.067L204.604 265.788L206.039 264.987L209.518 271.257C210.037 272.199 210.513 272.851 210.936 273.194C211.358 273.546 211.852 273.722 212.406 273.731C212.97 273.74 213.56 273.564 214.176 273.229C215.233 272.639 215.858 271.979 216.043 271.248C216.219 270.526 215.938 269.478 215.18 268.113L211.711 261.852ZM221.521 270.535L214.934 260.002L216.369 259.113L227.069 263.921L221.899 255.652L223.238 254.815L229.816 265.348L228.39 266.246L217.681 261.429L222.859 269.698L221.521 270.535ZM231.939 263.472L224.471 253.556L231.639 248.149L232.52 249.32L226.664 253.732L228.953 256.77L234.439 252.64L235.311 253.803L229.825 257.933L232.37 261.306L238.464 256.718L239.345 257.889L231.939 263.472ZM244.461 252.922L235.989 243.834L242.119 238.119L243.114 239.193L238.191 243.781L240.815 246.599L245.077 242.628L246.072 243.693L241.819 247.674L245.659 251.795L244.461 252.922ZM246.962 241.756C245.43 240.382 244.593 238.885 244.47 237.282C244.346 235.68 244.866 234.226 246.037 232.932C246.803 232.078 247.702 231.488 248.723 231.171C249.745 230.863 250.784 230.845 251.841 231.144C252.889 231.435 253.875 232.007 254.799 232.835C255.733 233.68 256.402 234.623 256.798 235.662C257.195 236.71 257.274 237.74 257.036 238.779C256.79 239.818 256.305 240.734 255.583 241.536C254.799 242.407 253.892 242.989 252.853 243.297C251.823 243.605 250.784 243.605 249.736 243.306C248.697 243.006 247.772 242.487 246.962 241.756ZM248.116 240.514C249.225 241.518 250.37 242.002 251.55 241.985C252.73 241.967 253.725 241.5 254.535 240.602C255.363 239.678 255.724 238.63 255.61 237.458C255.495 236.278 254.844 235.16 253.655 234.086C252.906 233.408 252.14 232.95 251.347 232.703C250.564 232.448 249.789 232.43 249.04 232.641C248.292 232.853 247.649 233.258 247.094 233.865C246.319 234.737 245.949 235.741 245.976 236.904C246.011 238.057 246.724 239.264 248.116 240.514ZM260.7 234.913L250.916 227.27L251.929 225.975L261.712 233.619L260.7 234.913ZM145.734 12.3281L145.488 19.5105C145.435 20.8252 145.549 21.8785 145.84 22.6473C146.131 23.416 146.633 24.0087 147.355 24.4367C148.077 24.8611 149.028 25.0839 150.19 25.1245C151.379 25.165 152.357 24.9809 153.105 24.5468C153.862 24.1135 154.4 23.5358 154.699 22.8128C155.016 22.0872 155.183 21.0894 155.227 19.8407L155.474 12.6857L153.854 12.6302L153.598 19.7852C153.545 21.3413 153.255 22.3936 152.718 22.9229C152.189 23.4521 151.318 23.6785 150.111 23.638C149.398 23.6115 148.799 23.4627 148.315 23.1703C147.839 22.8753 147.513 22.4773 147.328 21.9595C147.143 21.4417 147.073 20.6438 147.108 19.5651L147.381 12.3827L145.734 12.3281ZM159.322 12.5483L157.808 24.877L167.001 26.0051L167.195 24.5468L159.631 23.6107L160.15 19.4277L166.949 20.2537L167.142 18.8227L160.317 17.9694L160.784 14.1994L168.049 15.1074L168.243 13.6491L159.322 12.5483ZM136.541 12.8512C136.268 12.8503 135.995 12.8715 135.713 12.9058C134.586 13.045 133.591 13.4289 132.745 14.0621C131.9 14.6952 131.292 15.5389 130.922 16.5939C130.552 17.6533 130.447 18.7893 130.596 20.0063C130.746 21.2268 131.116 22.3117 131.724 23.2258C132.331 24.1426 133.141 24.8065 134.119 25.2345C135.096 25.6599 136.136 25.7858 137.254 25.6475C138.355 25.511 139.323 25.1412 140.169 24.5195C141.138 25.1007 142.08 25.4917 143.004 25.703L143.339 24.5195C142.67 24.3574 141.921 24.0668 141.111 23.6388C141.657 22.9625 142.027 22.2052 142.238 21.3545C142.45 20.5074 142.502 19.5589 142.37 18.5471C142.221 17.3239 141.842 16.268 141.243 15.3548C140.644 14.4407 139.861 13.7741 138.874 13.3461C138.143 13.0256 137.36 12.853 136.541 12.8512ZM136.488 14.2822C137.069 14.2884 137.633 14.4178 138.161 14.6671C138.866 14.9964 139.438 15.5028 139.869 16.2081C140.301 16.9109 140.574 17.7695 140.697 18.7672C140.909 20.5214 140.583 21.8767 139.729 22.8683C139.059 22.4236 138.258 22.1347 137.28 21.9877L137.007 23.2258C137.589 23.2954 138.161 23.4521 138.716 23.7207C138.223 24.0008 137.694 24.198 137.113 24.2711C135.889 24.4208 134.823 24.0968 133.925 23.3359C133.027 22.5759 132.472 21.4153 132.27 19.8134C132.067 18.1596 132.314 16.8642 133.018 15.9334C133.714 15.0052 134.665 14.4601 135.88 14.3095C136.083 14.2849 136.285 14.2796 136.488 14.2822ZM126.854 14.3368L125.225 14.6125L127.373 26.8584L129.003 26.5555L126.854 14.3368ZM176.935 14.9973L174.161 27.0786L178.502 28.0965C179.233 28.2639 179.92 28.3537 180.519 28.3449C181.109 28.3387 181.62 28.2427 182.086 28.0693C182.544 27.8958 182.994 27.6034 183.434 27.2159C183.874 26.8285 184.288 26.3071 184.667 25.6475C185.045 24.988 185.336 24.2007 185.547 23.2813C185.803 22.2025 185.864 21.1934 185.741 20.281C185.618 19.3678 185.318 18.5726 184.808 17.8875C184.411 17.3556 183.865 16.9417 183.214 16.6212C182.747 16.394 182.06 16.1782 181.118 15.9607L176.935 14.9973ZM116.524 16.4556L114.93 16.8413L117.704 28.9226L125.277 27.1886L124.952 25.7576L119.007 27.134L116.533 16.4565L116.524 16.4556ZM178.194 16.7858L180.757 17.3635C181.708 17.5837 182.377 17.8435 182.765 18.1068C183.311 18.474 183.716 19.0385 183.98 19.8134C184.235 20.5884 184.209 21.602 183.918 22.8683C183.707 23.7824 183.425 24.5318 183.064 25.1245C182.703 25.7145 182.298 26.153 181.831 26.4454C181.496 26.6541 181.074 26.7879 180.589 26.8311C180.105 26.8743 179.462 26.7959 178.661 26.6109L176.081 26.0324L178.194 16.7858ZM190.171 18.3542L187.943 25.179C187.538 26.4286 187.353 27.4405 187.423 28.2621C187.485 29.0811 187.828 29.8023 188.409 30.4091C188.991 31.0193 189.81 31.509 190.919 31.8674C192.055 32.2372 193.041 32.3253 193.887 32.1148C194.732 31.907 195.401 31.4896 195.895 30.8767C196.388 30.2673 196.828 29.3664 197.216 28.1802L199.444 21.3554L197.876 20.8596L195.674 27.6571C195.199 29.1374 194.627 30.0744 193.966 30.4364C193.314 30.7974 192.399 30.7851 191.245 30.4091C190.576 30.1915 190.056 29.886 189.677 29.473C189.299 29.0564 189.079 28.5606 189.043 28.0146C189.008 27.4651 189.175 26.7025 189.51 25.6757L191.712 18.8509L190.171 18.356V18.3542ZM109.048 18.85C108.528 18.8694 107.903 18.9892 107.234 19.2084L102.795 20.6667L106.652 32.4724L111.135 30.9859C111.892 30.7428 112.508 30.4883 112.984 30.188C113.46 29.8877 113.821 29.5399 114.085 29.17C114.34 28.8002 114.525 28.3458 114.604 27.7936C114.684 27.2441 114.622 26.6946 114.437 26.1424C114.217 25.4547 113.829 24.929 113.283 24.5468C112.737 24.169 112.086 23.9735 111.302 23.9964C111.769 23.542 112.051 23.0444 112.183 22.5099C112.315 21.9753 112.288 21.4752 112.13 20.9688C111.954 20.4281 111.637 19.9622 111.161 19.566C110.694 19.1706 110.131 18.9381 109.514 18.8773C109.356 18.8615 109.215 18.8439 109.048 18.85ZM109.048 20.3638C109.426 20.3577 109.752 20.4571 110.034 20.694C110.316 20.9309 110.518 21.2647 110.642 21.6574C110.774 22.0705 110.809 22.4474 110.694 22.7855C110.58 23.1272 110.342 23.4169 109.981 23.6661C109.708 23.8537 109.215 24.0492 108.519 24.272L105.992 25.0971L104.838 21.5474L107.172 20.7768C108.017 20.5021 108.651 20.3665 109.039 20.3638H109.048ZM99.0526 22.015L97.5731 22.6754L100.488 29.2255C101.122 30.6504 101.307 31.7062 101.06 32.4178C100.814 33.1258 100.136 33.7422 99.0261 34.2336C98.3833 34.5225 97.8021 34.6466 97.2385 34.5911C96.6837 34.5357 96.1993 34.3181 95.8119 33.9307C95.4156 33.5467 95.0105 32.8537 94.5702 31.8674L91.6553 25.3182L90.1407 25.9787L93.0555 32.5278C93.5927 33.7299 94.1651 34.6308 94.7639 35.197C95.3628 35.7615 96.0761 36.0671 96.9127 36.1331C97.7492 36.1974 98.7091 36.001 99.7747 35.5272C100.867 35.0411 101.65 34.4309 102.144 33.7114C102.628 32.9919 102.839 32.2408 102.804 31.4544C102.76 30.6706 102.487 29.7046 101.976 28.565L99.0614 22.0159L99.0526 22.015ZM208.109 25.1526L202.473 36.215L203.873 36.9301L208.69 27.518L207.096 38.5531L208.417 39.2408L216.343 31.6182L211.605 40.8647L213.04 41.5806L218.676 30.5456L216.695 29.5276L210.117 35.8839C209.456 36.5259 208.972 37.0049 208.637 37.3431C208.708 36.9239 208.805 36.2969 208.937 35.4436L210.31 26.2798L208.109 25.1518V25.1526ZM110.941 25.2627C111.39 25.2661 111.795 25.3684 112.13 25.6202C112.456 25.8712 112.702 26.2226 112.843 26.6655C112.966 27.0407 112.984 27.4009 112.922 27.739C112.861 28.0772 112.737 28.3643 112.544 28.5923C112.35 28.8204 112.086 29.0159 111.742 29.1982C111.549 29.303 111.205 29.4448 110.694 29.6103L107.753 30.5464L106.432 26.5009L109.153 25.6202C109.911 25.3772 110.501 25.2627 110.941 25.2627ZM85.705 28.5642C85.3157 28.5809 84.9001 28.676 84.4659 28.8389C84.0494 28.9869 83.4717 29.251 82.7602 29.6649L78.7146 32.0039L84.9344 42.7642L86.3373 41.9382L83.8055 37.5632L86.5856 35.994C88.1064 35.1151 88.9553 34.1834 89.172 33.2147C89.3895 32.2452 89.2336 31.2932 88.7044 30.38C88.3979 29.8446 88.0254 29.4325 87.5481 29.1146C87.0743 28.794 86.59 28.6047 86.0898 28.5642C85.9648 28.5536 85.8344 28.558 85.705 28.5642ZM85.3193 30.1598C85.6389 30.1334 85.9471 30.1845 86.2554 30.3254C86.6684 30.5156 87.0127 30.8362 87.2734 31.2888C87.6326 31.9105 87.7084 32.4856 87.5208 33.0501C87.3332 33.6163 86.789 34.1693 85.8696 34.7012L83.0904 36.2969L80.8615 32.4715L83.6135 30.8758C84.2581 30.5059 84.7116 30.2902 84.989 30.2153C85.0965 30.1872 85.2127 30.1686 85.3193 30.1598ZM75.6324 33.9298L68.2854 39.077L75.3858 49.2315L82.9812 43.9205L82.1552 42.7369L75.908 47.0854L73.4863 43.6457L79.1003 39.7102L78.2752 38.4993L72.6339 42.4348L70.4596 39.3254L76.4584 35.1151L75.6324 33.9316V33.9298ZM225.233 34.7831L214.198 42.2138L215.625 43.2045L218.901 40.8929L223.163 43.8923L222.177 47.7996L223.718 48.8731L226.686 35.7738L225.233 34.7831ZM225.171 36.3242C224.951 36.9864 224.678 37.8574 224.405 38.9388L223.498 42.4886L220.055 40.0942L223.251 37.8926C223.938 37.4153 224.59 36.8852 225.171 36.3242ZM232.357 39.8194L224.704 49.589L230.816 54.377L231.723 53.2216L226.906 49.4516L233.651 40.8101L232.357 39.8194ZM64.7391 42.5713C64.4353 42.5733 64.1491 42.6303 63.8585 42.736C63.2773 42.9438 62.5745 43.4141 61.7397 44.1397L57.584 47.745L65.7298 57.1016L66.968 56.0281L63.3609 51.8734L64.7919 50.6352C65.1134 50.3543 65.3415 50.15 65.507 50.0575C65.7413 49.9395 66.0169 49.8779 66.3057 49.8374C66.5946 49.7942 66.9662 49.7977 67.4611 49.8928C67.956 49.9879 68.6447 50.1694 69.498 50.415L72.4146 51.2957L73.983 49.9474L70.1303 48.7921C69.3756 48.5754 68.6623 48.4794 68.0115 48.4618C67.7077 48.4594 67.3493 48.4988 66.8834 48.6265C67.676 47.7212 68.0626 46.8697 68.0943 46.0401C68.1286 45.2106 67.875 44.4479 67.2964 43.7831C66.8482 43.2679 66.3031 42.9095 65.6726 42.7096C65.3573 42.6101 65.0403 42.5696 64.7374 42.5722L64.7391 42.5713ZM64.5736 44.2225C65.1424 44.2287 65.6197 44.4656 66.0046 44.9103C66.267 45.2114 66.4422 45.554 66.5004 45.9565C66.5585 46.358 66.4686 46.7428 66.252 47.14C66.0327 47.5336 65.6365 47.9969 65.0693 48.4882L62.4275 50.7999L59.7292 47.6904L62.674 45.1313C63.368 44.5272 64.0029 44.2181 64.5727 44.2234L64.5736 44.2225ZM240.645 46.5623L232.499 55.9462L233.741 57.0197L241.887 47.6631L240.645 46.5623Z" fill="black"/>
<path fill-rule="evenodd" clip-rule="evenodd" d="M43.6719 95.0098L44.2773 97.6241C44.3954 98.1216 44.4417 98.2961 44.525 98.6974L45.8459 104.256L46.5339 107.751L47.1118 111.191L47.6072 114.604L47.9924 117.961L48.2951 121.263L48.5153 124.538L48.7079 127.758L48.8731 130.923L48.9831 134.032L49.0932 137.115L49.2033 140.169L49.3409 143.169L49.4785 146.113L49.6986 149.003L49.9463 151.865L50.2765 154.699L50.6893 157.479L51.1847 160.231L51.8176 162.928L52.5607 165.57L53.4413 168.184L54.4595 170.771L55.6704 173.275L57.0463 175.779L58.6149 178.201L60.4037 180.623L62.4126 182.962L64.6417 185.274L67.1185 187.53L69.8429 189.732L72.7324 191.823L61.2843 199.171L57.7343 193.502L56.6611 194.025C55.398 194.605 54.2476 195.395 53.1386 196.226C51.6346 197.358 50.4157 198.829 49.451 200.437C48.6748 201.822 48.1578 203.334 47.8824 204.895C47.7317 205.713 47.6682 206.545 47.5796 207.372L47.479 207.481L47.6061 207.484L49.0106 208.115C50.31 208.688 51.6999 209.077 53.1111 209.243C54.5678 209.413 56.0554 209.341 57.4866 209.023C59.74 208.563 61.7932 207.514 63.706 206.271L64.6967 205.61L61.587 199.831L73.0351 192.484L74.2185 195.07L75.8696 198.318L77.5758 201.4L79.3646 204.317L81.2084 207.124L83.1073 209.821L87.0701 214.829L89.134 217.196L91.198 219.48L92.3538 220.664L95.491 223.828L97.665 225.892L99.8666 227.929L102.068 229.938L104.297 231.919L106.526 233.873L108.783 235.827L111.012 237.781L113.241 239.735L115.443 241.743L117.644 243.752L119.846 245.816L122.02 247.963L124.139 250.137L126.23 252.394L128.294 254.733L130.331 257.182L132.312 259.714L134.238 262.356L136.137 265.135L138.366 268.685L138.504 269.951C139.015 269.995 139.525 270.026 140.045 270.061L138.917 267.116L133.908 223.883C131.304 201.792 126.258 157.589 126.258 157.589L45.213 98.3121L43.6719 95.0098ZM256.067 95.0098L254.636 98.0644L173.399 157.479L173.261 157.589V157.754L165.803 222.342L160.547 267.914L159.721 270.061C160.171 270.026 160.602 269.959 161.042 269.923L161.125 269.098L163.629 265.135L165.5 262.356L167.427 259.714L169.408 257.182L171.445 254.733L173.509 252.393L175.6 250.137L177.747 247.963L179.921 245.816L182.095 243.752L184.296 241.743L188.727 237.753L190.956 235.827L193.213 233.873L195.442 231.919L197.671 229.938L207.303 220.719L208.541 219.48L210.605 217.196L212.669 214.829L213.467 213.839L214.898 212.077L216.632 209.821L218.53 207.124L220.374 204.317L222.163 201.4L223.869 198.318L225.52 195.07L226.951 191.933L238.234 199.529L235.07 205.61C236.827 206.863 238.7 207.958 240.766 208.61C242.641 209.256 244.658 209.475 246.628 209.243C248.582 209.067 250.365 208.281 252.125 207.474L252.258 207.49L252.159 207.372C252.023 205.59 251.743 203.821 251.113 202.143C250.32 200.124 249.032 198.408 247.453 196.942C245.884 195.434 243.94 194.445 242.004 193.502L238.62 198.896L227.529 191.438L229.896 189.732L232.62 187.53L235.097 185.273L237.326 182.962L239.335 180.595L241.124 178.201L242.692 175.779L244.068 173.275L245.279 170.771L246.298 168.184L247.178 165.57L247.949 162.928L248.554 160.231L249.049 157.479L249.462 154.699L249.793 151.865L250.04 149.003L250.26 146.113L250.398 143.169L250.536 140.169L250.646 137.114L250.756 134.032L250.893 130.923L251.031 127.758L251.224 124.538L251.444 121.263L251.774 117.961L252.159 114.604L252.627 111.191L253.205 107.751L253.893 104.256L255.269 98.5046C255.353 98.1381 255.429 97.838 255.517 97.4314L256.067 95.0098ZM254.003 99.4404L252.242 103.1L251.086 105.99L250.068 108.88L249.187 111.769L248.417 114.686L247.784 117.631L247.206 120.575L246.738 123.52L246.325 126.465L245.94 129.409L245.61 132.354L245.307 135.298L244.977 138.215L244.674 141.105L244.316 143.967L243.931 146.829L243.491 149.663L242.995 152.443L242.39 155.195L241.702 157.919L240.904 160.616L239.996 163.23L238.922 165.817L237.712 168.349L236.336 170.826L234.767 173.22L233.006 175.587L231.024 177.898L228.823 180.127L226.374 182.274L223.649 184.365L220.512 186.512L220.374 186.842L180.499 161.249L183.608 156.929L179.755 153.901C179.755 153.901 179.847 153.718 179.893 153.626L254.003 99.4404ZM45.8734 99.6606L119.818 153.984L116.131 156.929L119.598 161.744L79.5572 187.42L79.2545 186.484L76.0898 184.365L73.3654 182.274L70.9161 180.1L68.7146 177.871L66.7332 175.587L64.9719 173.22L63.4033 170.798L62.0274 168.349L60.8165 165.817L59.7432 163.23L58.8351 160.589L58.037 157.919L57.349 155.195L56.7436 152.443L56.2483 149.663L55.808 146.829L55.4227 143.967L55.0649 141.105L54.7622 138.215L54.432 135.298L54.1293 132.354L53.799 129.409L53.4138 126.465L53.001 123.52L52.5331 120.575L51.9828 117.631L51.3223 114.686L50.5517 111.769L49.6711 108.852L48.6529 105.963L47.4971 103.1L45.8734 99.6606ZM45.5982 100.541C60.6586 130.324 45.098 165.648 78.7317 186.897C89.6082 221.374 125.091 230.243 138.476 267.722C119.235 235.764 89.4319 228.397 73.2002 191.41C39.9013 168.655 55.3036 138.866 45.5982 100.541ZM254.141 100.541C244.436 138.857 259.835 168.655 226.539 191.41C210.309 228.388 180.513 235.755 161.263 267.722C174.657 230.234 210.132 221.365 221.007 186.897C254.638 165.648 239.082 130.324 254.141 100.541ZM119.901 154.727C121.935 155.977 123.608 157.299 124.524 158.717C123.036 159.58 121.554 160.441 120.066 161.304C119.044 159.878 118.014 158.465 116.984 157.039C117.952 156.272 118.932 155.484 119.901 154.727ZM179.866 154.727C180.826 155.493 181.795 156.272 182.755 157.039C181.734 158.465 180.722 159.869 179.701 161.304C178.212 160.441 176.731 159.58 175.242 158.717C176.158 157.299 177.823 155.986 179.866 154.727ZM124.937 159.433C125.782 160.895 126.174 162.991 126.368 165.377C125.241 165.888 124.129 166.38 123.01 166.891C122.209 165.332 121.399 163.78 120.589 162.212C122.042 161.288 123.484 160.366 124.937 159.433ZM174.83 159.433C176.283 160.357 177.733 161.288 179.178 162.212C178.376 163.78 177.557 165.351 176.756 166.918C175.638 166.407 174.517 165.888 173.399 165.377C173.592 162.991 173.984 160.895 174.83 159.433ZM180.058 161.855L220.127 187.558L219.356 189.842L218.118 192.814L216.797 195.676L215.338 198.428L213.77 201.07L212.091 203.602L210.33 206.023L208.486 208.417L206.56 210.702L204.578 212.958L202.514 215.132L200.423 217.306L198.276 219.425L193.873 223.636L191.644 225.727L189.415 227.846L187.186 229.965L184.957 232.139L182.755 234.341L180.554 236.57L178.407 238.909L176.316 241.276L174.252 243.752L172.243 246.284L170.316 248.954L168.473 251.706L166.711 254.595L165.033 257.595L163.464 260.759L162.033 264.062L161.593 265.19L173.041 165.9L177.031 167.716L180.058 161.855ZM119.956 162.377L122.708 167.716L126.505 165.983L137.871 264.42L137.733 264.062L136.275 260.76L134.706 257.595L133.028 254.595L131.266 251.706L129.422 248.954L127.496 246.285L125.515 243.753L123.451 241.276L121.332 238.909L119.185 236.57L116.984 234.341L114.782 232.14L112.553 229.965L110.324 227.846L108.095 225.727L105.866 223.636L103.637 221.545L99.3162 217.279L97.2247 215.132L95.1608 212.958L93.1794 210.702L91.253 208.418L89.4092 206.024L87.648 203.602L85.9693 201.043L84.4007 198.428L82.9421 195.676L81.6212 192.814L80.4103 189.842L79.8049 188.136L119.956 162.377ZM57.5417 194.272C58.5764 195.937 59.5882 197.617 60.6239 199.281C56.5237 201.632 52.4255 203.993 48.3227 206.353C48.7709 201.404 51.313 197.187 57.5417 194.272ZM242.225 194.272C248.451 197.187 250.995 201.404 251.444 206.353C247.34 203.985 243.219 201.622 239.115 199.253C240.154 197.598 241.186 195.928 242.225 194.272ZM61.1192 200.217C62.043 201.943 62.9749 203.692 63.8987 205.418C58.268 209.363 53.3552 209.45 48.8455 207.372C52.9404 204.994 57.0261 202.594 61.1192 200.217ZM238.62 200.217C242.715 202.594 246.826 204.994 250.921 207.372C246.412 209.45 241.504 209.363 235.868 205.418L238.62 200.217Z" fill="#2B0000"/>
<path fill-rule="evenodd" clip-rule="evenodd" d="M130.936 96.9365L130.166 98.2024L129.946 98.6152L129.698 99.028L129.478 99.4408L129.285 99.8811L129.092 100.294L128.927 100.707L128.762 101.119L128.625 101.56L128.487 101.973L128.377 102.413L128.267 102.826L128.184 103.266L128.129 103.679L128.102 104.119L128.074 104.559V119.695H127.386C125.326 118.568 124.2 117.004 123.231 115.375C122.209 117.065 120.77 118.541 118.718 119.695H118.167V114.879C118.232 112.079 117.03 109.597 115.636 107.256C114.104 109.579 112.933 112.076 112.746 114.879V119.695H112.361C111.049 118.63 110.344 117.164 109.719 115.65C109.059 117.226 108.114 118.612 106.802 119.695H106.527V114.879C106.59 112.083 105.388 109.595 103.995 107.256C102.457 109.575 101.292 112.081 101.105 114.879V138.133H106.527V137.968H112.746V138.133H118.168V137.968H128.074V157.177H133.496V155.415H137.789V152.884H142.219C141.457 145.3 141.387 136.846 147.118 131.116C147.753 130.555 148.457 130.068 149.182 129.63C149.899 130.068 150.586 130.563 151.218 131.116C157.138 136.614 156.75 145.496 156.117 152.884H160.547V155.415H164.84V157.177H170.262V137.968H180.169V138.133H185.59V137.968H191.81V138.133H197.231V114.907C196.952 111.807 195.899 109.755 194.341 107.284C192.822 109.583 191.836 112.537 191.81 114.907V119.695H191.48C190.159 118.612 189.251 117.254 188.59 115.677C187.965 117.192 187.242 118.638 185.921 119.695H185.59V114.907C185.286 111.782 184.245 109.759 182.701 107.256C181.199 109.578 180.195 112.527 180.169 114.907V119.695H179.592C177.531 118.541 176.1 117.065 175.078 115.375C174.101 117.004 172.956 118.568 170.895 119.695H170.262V104.559V104.119L170.207 103.706L170.152 103.266L170.07 102.826L169.96 102.413L169.877 102L169.74 101.56L169.575 101.147L169.437 100.707L169.244 100.294L169.052 99.8811L168.859 99.4683L168.639 99.028L168.419 98.6152L168.171 98.2024L167.401 96.9365L166.63 98.2024L166.382 98.6427L166.162 99.0555L165.969 99.4683L165.777 99.9086L165.639 100.321L165.474 100.762L165.337 101.175L165.226 101.615L165.144 102.028L165.061 102.44L164.979 102.881L164.924 103.294L164.896 103.706L164.841 104.147V104.559V117.273H161.704V114.879V114.466C161.502 111.796 160.182 109.505 158.842 107.256C157.339 109.425 156.485 111.844 156.311 114.466L156.283 114.879V117.273H152.265V115.072L152.238 114.824V114.576C152.011 112.107 151.124 109.729 149.844 107.614L149.184 106.486L148.496 107.614C147.308 109.743 146.221 112.097 146.13 114.576L146.102 114.824V115.072V117.246H142.057V114.879V114.466C141.989 111.812 140.855 109.488 139.525 107.256C138.129 109.424 136.838 111.814 136.663 114.439L136.636 114.879V117.246H133.499V104.559V104.119L133.471 103.706L133.416 103.294L133.361 102.853L133.306 102.44L133.196 102.028L133.114 101.587L133.003 101.175L132.866 100.762L132.728 100.321L132.563 99.9086L132.371 99.4683L132.175 99.0555L131.955 98.6152L131.735 98.2024L130.936 96.9365Z" fill="black"/>
<path fill-rule="evenodd" clip-rule="evenodd" d="M101.719 137.512H105.919V114.907C105.858 112.758 105.321 110.601 103.982 108.452C102.635 110.601 101.772 112.758 101.719 114.907V137.512ZM196.615 137.512H192.414V114.907C192.476 112.758 193.013 110.601 194.352 108.452C195.699 110.601 196.562 112.758 196.615 114.907V137.512ZM160.245 152.254H156.784C158.158 138.604 154.785 132.07 149.167 128.917C143.548 132.07 140.176 138.604 141.558 152.254H138.097V125.492H149.167H160.245V152.254ZM164.859 124.453H149.167H133.483V117.874H137.243V114.907C137.296 112.758 138.159 110.601 139.506 108.452C140.854 110.601 141.391 112.758 141.444 114.907V117.874H146.701V115.092C146.763 112.626 147.696 110.151 149.167 107.686C150.646 110.151 151.571 112.626 151.633 115.092V117.874H156.899V114.907C156.951 112.758 157.489 110.601 158.836 108.452C160.175 110.601 161.038 112.758 161.09 114.907V117.874H164.859V124.453ZM164.745 154.878H161.17V125.492H164.745V154.878ZM180.411 125.721H170.073V137.345H180.411V125.721ZM180.411 120.305H170.073V125.078H180.411V120.305ZM192.036 125.721H185.404V137.345H192.036V125.721ZM192.036 120.305H185.404V125.078H192.036V120.305ZM169.65 156.551H165.449V104.577C165.511 102.42 166.048 100.271 167.387 98.1133C168.734 100.271 169.597 102.42 169.65 104.577V156.551ZM184.973 137.512H180.772V114.907C180.825 112.758 181.362 110.601 182.71 108.452C184.057 110.601 184.92 112.758 184.973 114.907V137.512ZM133.597 154.878H137.173V125.492H133.597V154.878ZM117.922 125.712H128.261V137.336H117.922V125.712ZM117.922 120.296H128.261V125.078H117.922V120.296ZM106.298 125.712H112.929V137.336H106.298V125.712ZM106.298 120.296H112.929V125.078H106.298V120.296ZM128.683 156.543H132.875V104.568C132.822 102.411 132.285 100.262 130.938 98.1133C129.599 100.262 128.736 102.411 128.683 104.568V156.543ZM113.369 137.504H117.561V114.898C117.508 112.749 116.971 110.592 115.624 108.443C114.276 110.592 113.422 112.749 113.369 114.898V137.504Z" fill="white"/>
<path fill-rule="evenodd" clip-rule="evenodd" d="M94.6645 59.1516C91.1165 59.7038 87.6102 60.4879 84.0695 61.078C82.1639 61.3288 80.2649 61.6208 78.373 61.9586C73.7077 62.5866 69.2366 64.0348 64.7234 65.2885C59.5884 67.2893 54.4522 68.4578 48.707 69.0311C50.242 69.777 51.761 70.5617 53.3303 71.2327C55.9493 72.226 58.3941 72.3229 61.2834 72.5536C61.8427 72.5976 62.4017 72.6087 62.9621 72.6087C63.7534 73.6969 64.9629 74.0496 66.1544 74.535C67.9676 75.2643 69.9045 75.574 71.8234 75.8835C74.8321 76.2493 77.8502 76.0516 80.8497 75.7184C82.1914 76.9809 84.3195 77.5364 86.1335 77.7273C88.1525 77.9339 90.2974 77.9354 92.2703 77.5347C92.8822 79.5036 95.5452 79.3509 97.2238 79.3509C98.1139 81.1159 100.32 80.7889 101.957 80.5618C102.595 82.2306 104.284 82.5488 105.865 82.3506L106.057 82.5157C107.511 83.5997 109.154 83.8568 110.791 83.0386L110.873 82.9835C110.992 84.1101 111.708 84.6216 112.8 84.6897C113.73 84.6742 114.502 84.1532 115.221 83.6165C115.341 83.527 115.524 83.3413 115.524 83.3413L115.662 84.1394L116.625 84.4421C117.547 84.5381 118.271 84.2842 118.936 83.7541C119.659 83.1424 120.194 82.3213 120.505 81.47C120.745 81.7909 120.94 82.1413 121.138 82.4882C122.524 84.928 123.875 87.4211 125.706 89.5607L125.899 89.8084L127.055 91.1568L127.798 89.7809C127.95 89.5594 128.378 89.7104 128.733 89.7809L132.036 90.7165L129.999 88.2122C130.132 88.2127 130.257 88.265 130.384 88.2948C131.472 88.6711 132.38 89.3957 133.329 90.0285L133.356 88.1572C133.772 88.6999 134.212 89.2797 134.567 89.7533C136.341 90.1788 138.149 90.4178 139.961 90.6064C140.225 91.9177 140.583 93.2384 141.199 94.5417C146.386 93.6787 151.414 92.2085 156.363 90.4138C156.6 89.3817 156.271 88.3371 155.62 87.3041L155.73 87.2491C157.158 86.4206 158.786 85.7475 159.83 84.4421C160.793 84.7528 161.802 84.7666 162.802 84.6897C163.44 84.6445 164.06 84.4797 164.674 84.3045L165.031 83.6991C165.464 83.865 165.94 83.9973 166.325 84.1118L166.6 84.1944C166.907 84.3038 167.221 84.3858 167.536 84.4696L168.251 84.4421L168.636 84.3871L168.003 84.7448C173.825 89.2498 179.517 93.9219 185.341 98.422C186 98.7905 186.68 98.8157 187.405 98.6972C188.012 98.6237 188.518 98.5828 188.946 98.1193C189.63 98.1303 190.307 98.1367 190.982 98.0368C191.668 97.9716 192.268 97.7233 192.798 97.294C193.417 97.3952 194.043 97.4688 194.67 97.4864C195.576 97.4717 196.236 97.1667 196.926 96.606C197.422 96.6543 197.917 96.6985 198.412 96.7434C199.48 96.764 200.54 96.5619 201.33 95.8078L202.293 94.7346C196.916 91.4955 191.217 87.9833 186.194 85.0202C186.47 85.0246 186.743 85.0433 187.019 85.0477C187.945 85.0795 188.857 84.914 189.716 84.5799L189.964 84.7451C192.528 86.4133 195.429 87.2512 198.467 86.9741C198.868 86.9171 199.258 86.8195 199.651 86.7262C199.878 86.7912 200.094 86.8833 200.312 86.9739C202.995 87.9934 205.785 88.501 208.65 88.1573L208.732 88.2123C209.266 88.4298 209.799 88.6459 210.329 88.8728C213.62 90.0936 217.109 90.3782 220.538 89.6433L220.648 89.6158C220.852 89.7172 221.115 89.7593 221.309 89.8084C223.563 90.466 225.984 90.612 228.216 89.8084C228.413 89.7268 228.623 89.6186 228.794 89.5332C229.095 89.6305 229.359 89.6532 229.675 89.6983C232.239 90.1642 235.303 90.1996 237.325 88.3224C237.457 88.2057 237.566 88.0679 237.683 87.9371C237.866 87.9311 238.05 87.9192 238.233 87.9096C240.796 87.7887 242.391 86.4654 243.655 84.3596L243.93 84.4421C244.823 83.9669 245.617 83.3935 246.241 82.5983C246.653 82.0801 246.687 81.4716 246.764 80.8371C245.687 79.8492 244.632 78.8432 243.545 77.865C237.21 78.9373 230.779 78.9103 224.391 78.4429C218.677 77.9805 213.022 77.0331 207.384 76.0212C202.987 74.4906 198.537 73.1124 194.147 71.563C189.058 69.9093 184.034 68.049 178.929 66.4444C175.974 65.3045 172.848 64.7107 169.682 64.7107C166.332 64.7629 163.231 65.9311 160.628 68.0131L160.188 68.3983C159.295 69.1671 158.207 69.721 157.189 70.3247C155.056 67.7289 151.783 66.7747 148.547 66.7747C146.152 66.9368 143.856 67.7444 141.723 68.8111C138.278 70.4973 135.296 72.9281 132.338 75.3332L132.476 75.4433C129.669 74.3309 127.002 72.7031 124.991 71.3154L124.771 71.0677C123.851 70.0528 122.662 69.4615 121.358 69.1138L120.945 69.0588H120.863C117.745 62.5178 111.35 59.5932 104.736 58.5739C101.376 58.2906 97.9819 58.5797 94.6645 59.1516Z" fill="black"/>
<path fill-rule="evenodd" clip-rule="evenodd" d="M169.839 84.8973C171.028 84.2253 172.217 84.0422 173.414 84.3478C175.211 85.1262 177.016 85.0655 178.813 84.6225C180.16 84.2553 181.534 83.9797 183.119 84.3478C188.984 87.8887 194.849 91.4306 200.705 94.9707C200.124 95.7369 198.873 95.8249 197.315 95.6136C195.439 93.9492 193.061 92.7868 190.446 91.8621C192.718 93.1742 194.902 94.504 195.941 96.0715C195.518 96.4942 194.479 96.5558 192.832 96.2564C191.714 95.1204 189.759 93.9932 187.425 92.866C189.169 94.1165 190.754 95.367 192.004 96.6175C191.45 97.0138 190.419 97.1723 188.887 97.0754L184.678 94.0549C185.805 95.2173 186.941 96.3709 188.068 97.5333C187.337 97.6654 186.597 97.9296 185.866 97.5333C180.521 93.324 175.184 89.1102 169.839 84.8973ZM52.0469 69.4406C62.9657 68.2834 64.5623 64.8182 83.4165 62.2071C92.1769 60.8404 101.054 58.1201 108.046 60.2865C113.092 61.7351 117.292 64.2 119.626 68.9016C116.958 69.5251 115.346 70.7817 114.783 72.6716C111.26 73.517 108.856 75.5864 107.782 79.1327C112.202 78.6862 116.473 78.5682 119.626 80.7478C119.388 82.0599 117.9 83.9013 116.553 83.3447C116.412 82.7371 116.605 81.7393 116.13 81.5553C114.774 82.5064 113.294 84.2949 112.053 83.4398C111.771 82.8815 111.894 82.4597 111.956 82.1453C112.185 81.0155 111.022 81.277 110.943 81.6574C109.076 83.2681 107.491 82.3963 106.17 81.2867C104.62 81.5051 103.114 81.646 102.665 79.4022C100.12 79.8601 97.9098 80.0441 98.0859 78.3252C95.7786 78.3111 93.3393 78.3666 93.2425 77.2482C95.127 76.4406 97.0115 75.6331 98.8961 74.8256C91.8423 77.1645 86.0046 77.6321 81.9344 75.3636C87.2498 74.5033 91.4372 73 94.854 71.0556C81.5513 75.8603 71.5069 76.2672 64.4337 72.6707C77.2917 71.0547 81.7477 69.4397 88.1269 67.8246C72.1154 71.7434 59.1112 73.1119 52.0469 69.4406ZM109.464 77.4754C110.696 75.2483 112.669 73.9106 115.258 73.3091C116.403 70.0112 121.387 68.5256 124.311 72.0895C129.066 75.5239 133.337 77.3618 137.009 77.2728C136.164 77.5441 135.319 77.8153 134.473 78.0856C135.213 78.3701 135.962 78.4308 136.71 79.61C135.768 79.4083 134.958 79.8205 134.165 80.3215C135.054 80.6606 135.873 81.1573 136.199 82.7609C134.588 82.406 133.584 82.8084 132.536 83.1677C133.267 83.7648 133.839 84.4235 133.857 85.3015C133.011 84.9756 132.166 85.1306 131.321 85.5049C131.963 86.1407 132.395 86.9518 132.333 88.1468C131.303 87.4405 130.132 86.9967 128.679 87.1305C128.661 87.6307 128.459 88.0578 129.19 88.8583C128.098 88.5378 127.235 88.5668 126.847 89.3664C124.804 87.016 123.36 84.3715 121.872 81.7446C120.559 79.2225 117.741 77.8391 112.828 77.8831C113.462 77.0025 114.518 76.5278 115.971 76.46C113.805 75.9845 111.639 76.3235 109.464 77.4754ZM121.334 73.3417C120.806 73.0353 120.128 73.2176 119.82 73.7477C119.511 74.2787 119.696 74.9568 120.225 75.2632C120.753 75.5697 121.44 75.3874 121.739 74.8573C122.048 74.3263 121.872 73.6473 121.334 73.3417ZM134.033 75.28C144.794 66.2721 151.355 66.3328 156.013 70.5167C153.415 73.0432 149.664 74.5543 145.111 75.3716C149.805 75.5952 155.071 72.9534 160.504 69.5092C164.52 65.5711 170.006 64.8384 176.717 66.7617L207.125 77.0201C219.436 79.2868 231.624 80.8376 243.204 78.9434C244.032 79.7069 244.859 80.4695 245.678 81.233C245.652 81.9348 245.009 82.6367 243.759 83.3394C240.809 82.6367 238.035 82.9423 235.331 83.7058C238.202 83.5508 240.888 83.5499 242.288 84.6216C241.469 86.0491 239.937 86.95 237.163 86.9112C235.912 88.8953 233.068 89.414 228.647 88.4682C226.595 89.598 223.945 89.628 220.678 88.5598C216.829 89.5364 212.858 89.0485 208.771 87.0944C206.235 87.5832 203.215 87.0944 199.701 85.6291C196.769 86.6057 193.475 85.873 189.812 83.431C187.839 84.3927 185.188 84.3627 181.023 82.1488C178.179 82.4888 174.7 81.3263 171.125 79.9508C172.252 80.9274 173.511 81.6601 174.885 82.1488C171.953 82.3928 169.02 81.7825 166.088 80.3171C170.147 82.332 170.667 83.3703 167.646 83.431C164.846 82.6975 162.142 81.5685 159.589 79.8592C160.689 81.5377 162.151 82.7292 163.983 83.431C160.425 84.3927 157.713 82.8357 155.379 80.134C156.022 81.5386 156.7 82.9423 158.585 84.3469C149.426 90.4672 142.091 90.3025 135.134 88.8345C134.526 88.0103 133.91 87.186 133.302 86.3617C134.218 86.3582 135.134 86.2129 136.05 85.7206C135.627 85.202 135.195 84.6824 134.773 84.1637C135.935 83.8176 137.159 83.7965 138.066 82.1488C137.177 81.9665 136.719 81.3554 136.323 80.6835C137.573 80.5919 138.462 80.1331 138.982 79.3097C138.436 79.3713 137.881 79.3414 137.335 78.6677C137.899 77.7994 138.48 76.9461 138.797 75.8286C136.842 76.379 135.257 76.1958 134.033 75.28Z" fill="white"/>
</svg>
