<svg width="300" height="300" viewBox="0 0 300 300" fill="none" xmlns="http://www.w3.org/2000/svg">
<path d="M34.4477 11.5107C33.8328 50.9459 33.869 90.3867 34.4477 129.821C35.0052 167.814 36.8676 197.464 53.5959 220.646C73.7467 248.573 107.317 268.726 150.5 288.526C193.683 268.726 227.253 248.573 247.404 220.646C264.132 197.464 265.995 167.815 266.553 129.821C267.13 90.3867 267.168 50.9464 266.553 11.5107H34.4477Z" fill="#1353B4"/>
<path d="M169.913 115.569V11H131.09V115.569H34.2734L34.4986 135.467L34.9086 154.391H131.09V279.598L140.426 284.354L150.502 288.579L159.422 284.683L169.913 279.598V154.391H266.193L266.707 133.991V115.569H169.913Z" fill="white" stroke="#999999" stroke-width="0.51763"/>
<path d="M34.4477 11.5107C33.8328 50.9459 33.869 90.3867 34.4477 129.821C35.0052 167.814 36.8676 197.464 53.5959 220.646C73.7467 248.573 107.317 268.726 150.5 288.526C193.683 268.726 227.253 248.573 247.404 220.646C264.132 197.464 265.995 167.815 266.553 129.821C267.13 90.3867 267.168 50.9464 266.553 11.5107H34.4477Z" stroke="#554400" stroke-width="1.03526"/>
<path d="M71.5356 26.1969C69.0629 27.3947 67.1047 29.1371 67.1047 30.0082C67.1047 30.9881 67.187 31.5285 67.3713 31.7956C68.0219 32.1745 68.2274 32.5436 68.0939 32.2371C67.9883 32.2247 69.1794 33.4489 70.1038 33.9282C75.8382 35.3585 85.5499 34.0369 89.8778 33.3837C93.4842 32.8392 94.8238 33.0571 95.8544 34.3636C97.9151 36.8679 95.7514 39.046 89.8778 40.3531C82.6647 41.9862 79.6764 43.4019 76.8941 46.56C70.1965 54.1826 78.0277 62.7856 92.6601 63.9834C101.213 64.7459 106.777 66.4882 105.438 67.9039C104.923 68.448 99.2552 69.3197 92.7636 69.8637C78.6463 71.0615 72.3602 73.131 67.0022 78.5754C64.0139 81.6243 62.9833 83.4758 62.9833 85.9801C62.9833 89.4648 62.9833 89.4648 57.5223 89.4648C54.6371 89.4648 50.6182 89.029 48.7635 88.3757C45.8782 87.6132 45.4662 87.6132 46.4968 88.9203C48.5575 91.5338 54.431 93.8207 59.274 93.8207C62.9838 93.8207 65.0445 94.5831 68.3424 97.0874C74.9375 102.206 82.4592 104.166 94.9278 104.057C111.311 103.948 120.689 99.3743 120.689 91.643C120.689 85.8714 114.506 82.4959 101.625 81.2982C95.1339 80.6449 82.3556 81.7335 76.7916 83.4763C75.761 83.803 76.8946 83.0405 79.3679 81.734C82.3556 80.2091 87.3021 79.1205 94.0003 78.4667C108.839 77.1602 115.537 73.6755 115.537 67.142C115.537 60.8259 108.942 57.2325 94.8248 55.8168C80.914 54.5103 79.8834 51.8968 91.6305 48.0854C99.9773 45.4719 103.948 39.7599 104.202 36.2157C104.246 35.6033 103.714 29.9114 90.7853 26.7715C84.2693 23.1087 75.2449 24.3459 71.5356 26.1969ZM108.735 89.4648C110.693 90.2273 111.414 90.9892 110.795 91.643C109.044 93.4945 97.7086 95.1277 90.8044 94.5831C83.1792 93.8207 74.9359 91.2072 77.4086 90.1186C84.3133 87.2871 102.449 86.9605 108.735 89.4648Z" fill="white" stroke="#999999" stroke-width="0.51763"/>
<path d="M78.9011 27.8001C78.8454 28.2873 77.7453 28.612 76.4429 28.5252C75.1405 28.4377 74.1302 27.9725 74.1858 27.4852C74.2414 26.998 75.3416 26.6733 76.6439 26.7601C77.9457 26.847 78.9567 27.3122 78.9011 27.8001Z" fill="#1353B4" stroke="#999999" stroke-width="0.595139"/>
<path d="M76.1328 26.6898C77.4392 25.6682 79.4038 26.4135 81.7959 28.0079Z" fill="white"/>
<path d="M76.1328 26.6898C77.4392 25.6682 79.4038 26.4135 81.7959 28.0079" stroke="#999999" stroke-width="0.595139"/>
<path d="M67.2172 31.087C63.7719 32.3169 60.3001 32.3055 58.2389 31.7961C56.9034 31.2107 56.7533 31.395 55.3945 30.6982L57.3201 32.6212C56.5452 33.0778 56.7844 33.4546 55.4147 34.2709C56.5576 33.9691 57.7684 33.7445 58.7141 33.2175C62.2505 33.0327 65.8802 32.688 68.0149 32.1238" fill="white"/>
<path d="M67.2172 31.087C63.7719 32.3169 60.3001 32.3055 58.2389 31.7961C56.9034 31.2107 56.7533 31.395 55.3945 30.6982L57.3201 32.6212C56.5452 33.0778 56.7844 33.4546 55.4147 34.2709C56.5576 33.9691 57.7684 33.7445 58.7141 33.2175C62.2505 33.0327 65.8802 32.688 68.0149 32.1238" stroke="#999999" stroke-width="0.51763"/>
<path d="M207.681 26.1969C205.208 27.3947 203.249 29.1371 203.249 30.0082C203.249 30.9881 203.332 31.5285 203.516 31.7956C204.167 32.1745 204.372 32.5436 204.238 32.2371C204.133 32.2247 205.324 33.4489 206.249 33.9282C211.983 35.3585 221.695 34.0369 226.023 33.3837C229.63 32.8392 230.969 33.0571 231.999 34.3636C234.06 36.8679 231.896 39.046 226.023 40.3531C218.81 41.9862 215.821 43.4019 213.039 46.56C206.342 54.1826 214.172 62.7856 228.805 63.9834C237.357 64.7459 242.922 66.4882 241.583 67.9039C241.068 68.448 235.4 69.3197 228.909 69.8637C214.791 71.0615 208.505 73.131 203.147 78.5754C200.159 81.6243 199.128 83.4758 199.128 85.9801C199.128 89.4648 199.128 89.4648 193.667 89.4648C190.782 89.4648 186.763 89.029 184.908 88.3757C182.023 87.6132 181.611 87.6132 182.641 88.9203C184.702 91.5338 190.575 93.8207 195.419 93.8207C199.128 93.8207 201.189 94.5831 204.487 97.0874C211.082 102.206 218.604 104.166 231.072 104.057C247.456 103.948 256.834 99.3743 256.834 91.643C256.834 85.8714 250.651 82.4959 237.771 81.2982C231.279 80.6449 218.501 81.7335 212.936 83.4763C211.906 83.803 213.039 83.0405 215.512 81.734C218.501 80.2091 223.447 79.1205 230.145 78.4667C244.984 77.1602 251.681 73.6755 251.681 67.142C251.681 60.8259 245.086 57.2325 230.969 55.8168C217.058 54.5103 216.028 51.8968 227.775 48.0854C236.121 45.4719 240.093 39.7599 240.346 36.2157C240.39 35.6033 239.858 29.9114 226.929 26.7715C220.414 23.1087 211.39 24.3459 207.681 26.1969ZM244.88 89.4648C246.837 90.2273 247.559 90.9892 246.94 91.643C245.188 93.4945 233.854 95.1277 226.95 94.5831C219.324 93.8207 211.082 91.2072 213.554 90.1186C220.458 87.2871 238.594 86.9605 244.88 89.4648Z" fill="white" stroke="#999999" stroke-width="0.51763"/>
<path d="M215.041 27.7991C214.985 28.2864 213.885 28.611 212.584 28.5242C211.281 28.4368 210.271 27.9715 210.326 27.4842C210.381 26.997 211.482 26.6723 212.785 26.7592C214.086 26.846 215.097 27.3112 215.041 27.7991Z" fill="#1353B4" stroke="#999999" stroke-width="0.595139"/>
<path d="M212.273 26.6888C213.58 25.6673 215.544 26.4125 217.937 28.0069Z" fill="white"/>
<path d="M212.273 26.6888C213.58 25.6673 215.544 26.4125 217.937 28.0069" stroke="#999999" stroke-width="0.595139"/>
<path d="M203.362 31.087C199.916 32.3169 196.445 32.3055 194.383 31.7961C193.048 31.2107 192.898 31.395 191.539 30.6982L193.465 32.6212C192.69 33.0778 192.929 33.4546 191.56 34.2709C192.703 33.9691 193.913 33.7445 194.859 33.2175C198.396 33.0327 202.025 32.688 204.16 32.1238" fill="white"/>
<path d="M203.362 31.087C199.916 32.3169 196.445 32.3055 194.383 31.7961C193.048 31.2107 192.898 31.395 191.539 30.6982L193.465 32.6212C192.69 33.0778 192.929 33.4546 191.56 34.2709C192.703 33.9691 193.913 33.7445 194.859 33.2175C198.396 33.0327 202.025 32.688 204.16 32.1238" stroke="#999999" stroke-width="0.51763"/>
<path d="M78.5587 163.831C76.4804 164.837 74.8354 166.301 74.8354 167.034C74.8354 167.857 74.9047 168.311 75.059 168.535C75.6061 168.854 75.7785 169.164 75.6662 168.907C75.5777 168.896 76.5782 169.925 77.3557 170.328C82.1743 171.529 90.3358 170.419 93.9732 169.87C97.0039 169.412 98.1298 169.596 98.9958 170.693C100.728 172.798 98.9093 174.629 93.9732 175.727C87.9118 177.1 85.4002 178.289 83.0621 180.943C77.4334 187.349 84.0145 194.578 96.3108 195.585C103.498 196.225 108.174 197.689 107.049 198.879C106.616 199.336 101.853 200.069 96.3973 200.526C84.5337 201.533 79.2513 203.271 74.7489 207.848C72.2374 210.41 71.3714 211.966 71.3714 214.07C71.3714 216.999 71.3714 216.999 66.7821 216.999C64.3575 216.999 60.9805 216.633 59.4214 216.083C56.9968 215.442 56.6505 215.442 57.5165 216.541C59.2485 218.737 64.1841 220.659 68.2542 220.659C71.3714 220.659 73.1034 221.299 75.8748 223.404C81.4171 227.706 87.7378 229.353 98.2162 229.261C111.984 229.169 119.865 225.326 119.865 218.829C119.865 213.979 114.669 211.142 103.844 210.135C98.3891 209.586 87.6509 210.501 82.9751 211.966C82.1091 212.24 83.0616 211.6 85.1404 210.501C87.6514 209.22 91.808 208.305 97.4367 207.756C109.906 206.658 115.535 203.73 115.535 198.239C115.535 192.931 109.993 189.911 98.1298 188.721C86.4396 187.623 85.5736 185.427 95.4454 182.224C102.459 180.028 105.796 175.227 106.01 172.249C106.046 171.735 105.599 166.952 94.7347 164.313C89.2597 161.235 81.6759 162.275 78.5587 163.831ZM109.819 216.999C111.465 217.639 112.071 218.28 111.551 218.829C110.079 220.384 100.554 221.757 94.7517 221.299C88.344 220.659 81.4165 218.462 83.4943 217.547C89.2964 215.168 104.537 214.894 109.819 216.999Z" fill="white" stroke="#999999" stroke-width="0.51763"/>
<path d="M84.7452 165.178C84.6988 165.587 83.7736 165.86 82.6798 165.787C81.5855 165.714 80.7367 165.323 80.7831 164.913C80.8294 164.503 81.754 164.231 82.8484 164.304C83.9428 164.377 84.7915 164.768 84.7452 165.178Z" fill="#1353B4" stroke="#999999" stroke-width="0.595139"/>
<path d="M82.418 164.245C83.5158 163.386 85.1664 164.013 87.1773 165.353Z" fill="white"/>
<path d="M82.418 164.245C83.5158 163.386 85.1664 164.013 87.1773 165.353" stroke="#999999" stroke-width="0.595139"/>
<path d="M74.9315 167.939C72.0364 168.973 69.119 168.963 67.3865 168.535C66.2643 168.042 66.138 168.198 64.9961 167.612L66.6142 169.228C65.963 169.612 66.1639 169.929 65.0132 170.615C65.9734 170.361 66.991 170.173 67.7856 169.729C70.7578 169.574 73.8077 169.284 75.6018 168.811" fill="white"/>
<path d="M74.9315 167.939C72.0364 168.973 69.119 168.963 67.3865 168.535C66.2643 168.042 66.138 168.198 64.9961 167.612L66.6142 169.228C65.963 169.612 66.1639 169.929 65.0132 170.615C65.9734 170.361 66.991 170.173 67.7856 169.729C70.7578 169.574 73.8077 169.284 75.6018 168.811" stroke="#999999" stroke-width="0.51763"/>
<path d="M197.706 164.701C195.628 165.707 193.982 167.171 193.982 167.904C193.982 168.727 194.052 169.181 194.207 169.405C194.754 169.724 194.926 170.034 194.814 169.777C194.725 169.766 195.726 170.795 196.503 171.198C201.322 172.399 209.483 171.289 213.121 170.74C216.151 170.282 217.277 170.466 218.143 171.563C219.875 173.668 218.056 175.499 213.121 176.597C207.059 177.97 204.548 179.159 202.21 181.813C196.581 188.219 203.162 195.448 215.459 196.455C222.647 197.095 227.322 198.559 226.196 199.749C225.764 200.206 221.001 200.939 215.546 201.396C203.682 202.403 198.4 204.141 193.897 208.718C191.385 211.28 190.52 212.836 190.52 214.94C190.52 217.869 190.52 217.869 185.931 217.869C183.506 217.869 180.129 217.502 178.57 216.954C176.145 216.312 175.799 216.312 176.665 217.411C178.397 219.607 183.333 221.529 187.402 221.529C190.519 221.529 192.252 222.169 195.023 224.274C200.565 228.576 206.886 230.223 217.365 230.131C231.133 230.039 239.013 226.196 239.013 219.699C239.013 214.849 233.817 212.012 222.993 211.005C217.538 210.455 206.8 211.371 202.124 212.836C201.258 213.11 202.21 212.47 204.289 211.371C206.8 210.09 210.956 209.175 216.585 208.626C229.055 207.528 234.684 204.6 234.684 199.109C234.684 193.801 229.141 190.781 217.278 189.591C205.588 188.493 204.722 186.297 214.593 183.094C221.608 180.898 224.945 176.097 225.158 173.119C225.194 172.605 224.747 167.821 213.883 165.182C208.406 162.106 200.823 163.145 197.706 164.701ZM228.966 217.868C230.612 218.509 231.218 219.15 230.698 219.698C229.226 221.254 219.701 222.627 213.899 222.168C207.491 221.528 200.564 219.332 202.642 218.417C208.444 216.038 223.684 215.764 228.966 217.868Z" fill="white" stroke="#999999" stroke-width="0.51763"/>
<path d="M203.894 166.047C203.847 166.456 202.923 166.73 201.828 166.656C200.734 166.583 199.885 166.192 199.931 165.783C199.978 165.372 200.903 165.1 201.997 165.173C203.091 165.246 203.941 165.637 203.894 166.047Z" fill="#1353B4" stroke="#999999" stroke-width="0.595139"/>
<path d="M201.57 165.114C202.668 164.255 204.319 164.882 206.33 166.222Z" fill="white"/>
<path d="M201.57 165.114C202.668 164.255 204.319 164.882 206.33 166.222" stroke="#999999" stroke-width="0.595139"/>
<path d="M194.076 168.809C191.18 169.843 188.263 169.833 186.531 169.405C185.409 168.913 185.283 169.068 184.141 168.482L185.759 170.098C185.108 170.482 185.309 170.799 184.158 171.485C185.118 171.232 186.136 171.043 186.931 170.6C189.902 170.444 192.953 170.155 194.747 169.681" fill="white"/>
<path d="M194.076 168.809C191.18 169.843 188.263 169.833 186.531 169.405C185.409 168.913 185.283 169.068 184.141 168.482L185.759 170.098C185.108 170.482 185.309 170.799 184.158 171.485C185.118 171.232 186.136 171.043 186.931 170.6C189.902 170.444 192.953 170.155 194.747 169.681" stroke="#999999" stroke-width="0.51763"/>
</svg>
