<svg width="300" height="300" viewBox="0 0 300 300" fill="none" xmlns="http://www.w3.org/2000/svg">
<path d="M294.999 150C294.999 230.081 230.08 295 149.999 295C69.9184 295 5 230.081 5 150C5 69.9194 69.9184 5.00098 149.999 5.00098C230.08 5.00098 294.999 69.9194 294.999 150Z" fill="white"/>
<path d="M244.605 150C244.605 202.248 202.25 244.604 150.002 244.604C97.7539 244.604 55.3984 202.248 55.3984 150C55.3984 97.7519 97.7539 55.3965 150.002 55.3965C202.25 55.3965 244.605 97.7519 244.605 150Z" fill="#75B2DD"/>
<path fill-rule="evenodd" clip-rule="evenodd" d="M131.647 149.636C131.647 149.636 124.232 157.78 115.724 157.78C107.215 157.78 100.165 149.879 100.165 149.879C100.165 149.879 93.8446 157.78 85.2145 157.78C76.5843 157.78 71.2361 149.757 71.2361 149.757C71.2361 149.757 65.7663 158.509 59.2025 158.509C57.9 158.509 56.7535 158.314 55.7383 157.992C59.8007 206.477 100.472 244.598 150.001 244.598C199.338 244.598 239.874 206.77 244.203 158.555C243.185 158.824 241.985 158.995 240.557 158.995C232.17 158.995 227.308 149.636 227.308 149.636C227.308 149.636 225.849 157.78 213.816 157.78C201.782 157.78 198.136 149.757 198.136 149.757C198.136 149.757 195.583 157.293 183.793 157.293C172.002 157.293 166.532 149.879 166.532 149.879C166.532 149.879 161.67 158.023 148.664 158.023C138.089 158.023 131.647 149.636 131.647 149.636Z" fill="#08298C"/>
<path fill-rule="evenodd" clip-rule="evenodd" d="M105.15 212.963C109.259 214.181 110.498 211.018 112.078 206.156C113.658 201.294 124.719 195.095 132.863 195.095C141.007 195.095 147.085 199.714 154.013 199.714C160.942 199.714 171.03 195.581 175.406 196.189C179.782 196.797 189.506 212.963 193.274 212.963C197.042 212.963 197.528 210.775 197.528 209.195C197.528 207.615 189.628 194.001 187.197 192.299C184.766 190.598 182.578 187.68 176.986 187.68C171.395 187.68 132.499 185.493 126.543 187.437C120.587 189.382 102.962 203.847 102.962 208.344C102.962 210.657 102.695 212.236 105.15 212.963Z" fill="#FDFBF9" stroke="#08298C" stroke-width="0.600533"/>
<path fill-rule="evenodd" clip-rule="evenodd" d="M149.998 222.323C169.568 222.323 180.629 217.583 180.629 217.583V199.715C180.629 199.715 172.971 206.643 149.998 206.643C127.025 206.643 119.367 199.715 119.367 199.715V217.583C119.367 217.583 130.428 222.323 149.998 222.323Z" fill="white" stroke="#08298C" stroke-width="0.600533"/>
<path fill-rule="evenodd" clip-rule="evenodd" d="M109.158 183.67L109.401 165.316C100.64 163.614 69.2891 164.222 69.2891 164.222C72.1039 167.354 75.0184 170.287 77.5294 174.026C75.4474 177.874 73.1532 180.873 70.7477 183.427C70.7477 183.427 100.881 183.67 109.158 183.67Z" fill="white" stroke="#08298C" stroke-width="0.600533"/>
<path d="M152.249 5.01975L148.344 15.929C148.895 15.9223 149.447 15.9138 150 15.9138C152.616 15.9138 155.215 15.9936 157.794 16.1417L161.593 5.4604C158.505 5.21573 155.388 5.06765 152.249 5.01975ZM139.604 5.37546L136.665 16.5835C137.214 16.5288 137.763 16.4722 138.314 16.424C140.92 16.196 143.516 16.049 146.098 15.9717L148.951 5C145.854 5.02538 142.736 5.14958 139.604 5.37546ZM127.039 6.83184L125.088 18.2534C125.63 18.1511 126.172 18.0468 126.716 17.9508C129.293 17.4965 131.866 17.1239 134.432 16.8218L136.318 5.64316C133.234 5.9384 130.139 6.33392 127.039 6.83184ZM114.648 9.37783L113.7 20.926C114.231 20.7768 114.762 20.6257 115.296 20.4826C117.823 19.8055 120.354 19.21 122.884 18.6854L123.788 7.38497C120.742 7.94782 117.693 8.61165 114.648 9.37783ZM102.527 12.994L102.589 24.5809C103.104 24.3861 103.62 24.1892 104.14 24.0002C106.598 23.1054 109.068 22.2915 111.542 21.5485L111.458 10.2121C108.473 11.0383 105.493 11.9654 102.527 12.994ZM90.7667 17.6529L91.8382 29.1903C92.335 28.9513 92.8317 28.7102 93.3327 28.4766C95.7038 27.371 98.093 26.3449 100.493 25.3891L99.4217 14.1032C96.5198 15.1864 93.6319 16.3697 90.7667 17.6529ZM79.4573 23.3191L81.5302 34.7191C82.0043 34.4377 82.4781 34.1543 82.9569 33.8779C85.2226 32.5698 87.5133 31.3395 89.821 30.1781L87.77 19.0285C84.9735 20.3606 82.1997 21.791 79.4573 23.3191ZM68.6848 29.9493L71.7434 41.1254C72.1911 40.8037 72.6384 40.4801 73.0913 40.163C75.2343 38.6624 77.4091 37.2371 79.6069 35.879L76.5919 24.9506C73.9221 26.5213 71.2836 28.1881 68.6848 29.9493ZM58.5311 37.4932L62.5521 48.3602C62.9701 48.0007 63.3875 47.6393 63.811 47.284C65.8151 45.6024 67.8574 43.9929 69.9285 42.4484L65.9724 31.8244C63.4498 33.6218 60.9665 35.5122 58.5311 37.4932ZM49.0735 45.8934L54.0264 56.3685C54.4115 55.974 54.7958 55.5776 55.1867 55.1867C57.0366 53.3368 58.9308 51.5555 60.8594 49.8364L55.9925 39.5976C53.6361 41.608 51.327 43.7077 49.0735 45.8934ZM40.3841 55.0859L46.2311 65.0895C46.5803 64.6629 46.9286 64.2345 47.284 63.811C48.9656 61.8069 50.6974 59.8673 52.4688 57.9866L46.728 48.211C44.5558 50.4191 42.4385 52.712 40.3841 55.0859ZM32.5289 65.0007L39.2255 74.4567C39.5362 74.0013 39.8459 73.5442 40.163 73.0913C41.6636 70.9483 43.2197 68.8651 44.8204 66.8372L38.2495 57.5991C36.278 59.9881 34.3686 62.4568 32.5289 65.0007ZM25.5678 75.5624L33.063 84.3987C33.3329 83.918 33.6015 83.4356 33.8779 82.9569C35.186 80.6912 36.5546 78.4803 37.9725 76.3206L30.6215 67.6904C28.8657 70.2422 27.1788 72.8679 25.5678 75.5624ZM19.5536 86.6907L27.7905 94.8401C28.0174 94.3377 28.243 93.8337 28.4766 93.3327C29.5823 90.9616 30.753 88.6399 31.9773 86.3648L23.902 78.4081C22.3753 81.1032 20.9236 83.866 19.5536 86.6907ZM14.5322 98.3008L23.448 105.701C23.6303 105.181 23.8111 104.659 24.0002 104.14C24.895 101.681 25.8589 99.2665 26.8802 96.8934L18.1422 89.6707C16.8562 92.4886 15.6508 95.3674 14.5322 98.3008ZM10.5418 110.304L20.0687 116.9C20.2049 116.365 20.3396 115.83 20.4827 115.296C21.1598 112.769 21.9095 110.279 22.7202 107.826L13.3859 101.392C12.3504 104.312 11.4005 107.285 10.5418 110.304ZM7.61281 122.61L17.6782 128.35C17.7674 127.806 17.8549 127.261 17.9509 126.716C18.4052 124.14 18.9351 121.594 19.5288 119.08L9.66935 113.484C8.89221 116.483 8.20506 119.527 7.61281 122.61ZM5.76744 135.124L16.2948 139.965C16.3362 139.415 16.3758 138.864 16.424 138.314C16.652 135.707 16.9581 133.125 17.3304 130.569L7.02078 125.854C6.50792 128.908 6.08873 132.001 5.76744 135.124ZM5.01976 147.751L15.929 151.656C15.9223 151.105 15.9138 150.553 15.9138 150C15.9138 147.384 15.9936 144.785 16.1417 142.206L5.46038 138.407C5.21571 141.495 5.06765 144.612 5.01976 147.751ZM5.37546 160.396L16.5835 163.335C16.5288 162.786 16.4722 162.237 16.424 161.686C16.196 159.08 16.049 156.484 15.9717 153.902L5 151.049C5.02538 154.146 5.14959 157.264 5.37546 160.396ZM6.83185 172.961L18.2534 174.912C18.1511 174.37 18.0469 173.828 17.9509 173.284C17.4966 170.707 17.1239 168.134 16.8218 165.568L5.64316 163.682C5.93841 166.766 6.33393 169.861 6.83185 172.961ZM9.37783 185.352L20.926 186.3C20.7769 185.769 20.6257 185.238 20.4827 184.704C19.8055 182.177 19.21 179.646 18.6855 177.116L7.38497 176.212C7.94782 179.258 8.61165 182.307 9.37783 185.352ZM12.994 197.473L24.5809 197.411C24.3861 196.895 24.1892 196.38 24.0002 195.86C23.1054 193.402 22.2915 190.932 21.5485 188.458L10.2122 188.542C11.0383 191.527 11.9654 194.507 12.994 197.473ZM17.6529 209.233L29.1903 208.162C28.9513 207.665 28.7102 207.168 28.4766 206.667C27.371 204.296 26.3449 201.907 25.3891 199.507L14.1032 200.578C15.1864 203.48 16.3697 206.368 17.6529 209.233ZM23.3191 220.543L34.7192 218.47C34.4377 217.996 34.1543 217.522 33.8779 217.043C32.5698 214.777 31.3395 212.487 30.1781 210.179L19.0285 212.23C20.3606 215.026 21.791 217.8 23.3191 220.543ZM29.9493 231.315L41.1254 228.257C40.8037 227.809 40.4801 227.362 40.163 226.909C38.6624 224.766 37.2371 222.591 35.879 220.393L24.9506 223.408C26.5213 226.078 28.1881 228.716 29.9493 231.315ZM37.4933 241.469L48.3602 237.448C48.0007 237.03 47.6393 236.612 47.284 236.189C45.6024 234.185 43.9929 232.143 42.4484 230.072L31.8244 234.028C33.6218 236.55 35.5122 239.033 37.4933 241.469ZM45.8934 250.926L56.3685 245.974C55.974 245.588 55.5776 245.204 55.1867 244.813C53.3368 242.963 51.5555 241.069 49.8364 239.141L39.5976 244.007C41.608 246.364 43.7077 248.673 45.8934 250.926ZM55.0859 259.616L65.0895 253.769C64.6629 253.42 64.2345 253.071 63.811 252.716C61.8069 251.034 59.8673 249.303 57.9866 247.531L48.211 253.272C50.4191 255.444 52.712 257.561 55.0859 259.616ZM65.0007 267.471L74.4567 260.774C74.0013 260.464 73.5442 260.154 73.0913 259.837C70.9483 258.336 68.8651 256.78 66.8372 255.18L57.5991 261.75C59.9881 263.722 62.4568 265.631 65.0007 267.471ZM75.5625 274.432L84.3988 266.937C83.918 266.667 83.4356 266.398 82.9569 266.122C80.6912 264.814 78.4803 263.445 76.3206 262.027L67.6904 269.378C70.2422 271.134 72.8679 272.821 75.5625 274.432ZM86.6907 280.446L94.8401 272.21C94.3377 271.983 93.8337 271.757 93.3327 271.523C90.9616 270.418 88.6399 269.247 86.3648 268.023L78.4081 276.098C81.1032 277.625 83.866 279.076 86.6907 280.446ZM98.3007 285.468L105.701 276.552C105.181 276.37 104.659 276.189 104.14 276C101.681 275.105 99.2665 274.141 96.8934 273.12L89.6707 281.858C92.4886 283.144 95.3674 284.349 98.3007 285.468ZM110.304 289.458L116.9 279.931C116.365 279.795 115.83 279.66 115.296 279.517C112.769 278.84 110.279 278.09 107.826 277.28L101.392 286.614C104.312 287.65 107.285 288.599 110.304 289.458ZM122.61 292.387L128.35 282.322C127.806 282.233 127.261 282.145 126.716 282.049C124.14 281.595 121.594 281.065 119.08 280.471L113.484 290.331C116.483 291.108 119.527 291.795 122.61 292.387ZM135.124 294.233L139.965 283.705C139.415 283.664 138.864 283.624 138.314 283.576C135.707 283.348 133.125 283.042 130.569 282.67L125.854 292.979C128.908 293.492 132.001 293.911 135.124 294.233ZM147.751 294.98L151.656 284.071C151.105 284.078 150.553 284.086 150 284.086C147.384 284.086 144.785 284.006 142.206 283.858L138.407 294.54C141.495 294.784 144.612 294.932 147.751 294.98ZM160.396 294.625L163.335 283.416C162.786 283.471 162.237 283.528 161.686 283.576C159.08 283.804 156.484 283.951 153.902 284.028L151.049 295C154.146 294.975 157.264 294.85 160.396 294.625ZM172.961 293.168L174.912 281.747C174.37 281.849 173.828 281.953 173.284 282.049C170.707 282.503 168.134 282.876 165.568 283.178L163.682 294.357C166.766 294.062 169.861 293.666 172.961 293.168ZM185.352 290.622L186.3 279.074C185.769 279.223 185.238 279.374 184.704 279.517C182.177 280.194 179.646 280.79 177.116 281.315L176.212 292.615C179.258 292.052 182.307 291.388 185.352 290.622ZM197.473 287.006L197.411 275.419C196.895 275.614 196.38 275.811 195.86 276C193.402 276.895 190.932 277.708 188.458 278.451L188.542 289.788C191.527 288.962 194.507 288.035 197.473 287.006ZM209.233 282.347L208.162 270.81C207.665 271.049 207.168 271.29 206.667 271.523C204.296 272.629 201.907 273.655 199.507 274.611L200.578 285.897C203.48 284.814 206.368 283.63 209.233 282.347ZM220.543 276.681L218.47 265.281C217.996 265.562 217.522 265.846 217.043 266.122C214.777 267.43 212.487 268.66 210.179 269.822L212.23 280.971C215.026 279.639 217.8 278.209 220.543 276.681ZM231.315 270.051L228.257 258.875C227.809 259.196 227.362 259.52 226.909 259.837C224.766 261.338 222.591 262.763 220.393 264.121L223.408 275.049C226.078 273.479 228.716 271.812 231.315 270.051ZM241.469 262.507L237.448 251.64C237.03 251.999 236.612 252.361 236.189 252.716C234.185 254.398 232.143 256.007 230.072 257.552L234.028 268.176C236.55 266.378 239.033 264.488 241.469 262.507ZM250.926 254.107L245.974 243.631C245.588 244.026 245.204 244.422 244.813 244.813C242.963 246.663 241.069 248.444 239.141 250.164L244.007 260.402C246.364 258.392 248.673 256.292 250.926 254.107ZM259.616 244.914L253.769 234.91C253.42 235.337 253.071 235.765 252.716 236.189C251.034 238.193 249.303 240.133 247.531 242.013L253.272 251.789C255.444 249.581 257.561 247.288 259.616 244.914ZM267.471 234.999L260.774 225.543C260.464 225.999 260.154 226.456 259.837 226.909C258.336 229.052 256.78 231.135 255.18 233.163L261.75 242.401C263.722 240.012 265.631 237.543 267.471 234.999ZM274.432 224.438L266.937 215.601C266.667 216.082 266.398 216.564 266.122 217.043C264.814 219.309 263.445 221.52 262.027 223.679L269.379 232.31C271.134 229.758 272.821 227.132 274.432 224.438ZM280.446 213.309L272.21 205.16C271.983 205.662 271.757 206.166 271.523 206.667C270.418 209.038 269.247 211.36 268.023 213.635L276.098 221.592C277.625 218.897 279.076 216.134 280.446 213.309ZM285.468 201.699L276.552 194.299C276.37 194.819 276.189 195.341 276 195.86C275.105 198.319 274.141 200.733 273.12 203.107L281.858 210.329C283.144 207.511 284.349 204.633 285.468 201.699ZM289.458 189.696L279.931 183.1C279.795 183.635 279.66 184.17 279.517 184.704C278.84 187.231 278.09 189.721 277.28 192.174L286.614 198.608C287.65 195.688 288.599 192.715 289.458 189.696ZM292.387 177.39L282.322 171.65C282.233 172.194 282.145 172.739 282.049 173.284C281.595 175.86 281.065 178.406 280.471 180.92L290.331 186.516C291.108 183.517 291.795 180.473 292.387 177.39ZM294.233 164.876L283.705 160.035C283.664 160.585 283.624 161.136 283.576 161.686C283.348 164.293 283.042 166.875 282.67 169.431L292.979 174.146C293.492 171.092 293.911 167.999 294.233 164.876ZM294.98 152.249L284.071 148.344C284.078 148.895 284.086 149.447 284.086 150C284.086 152.616 284.006 155.215 283.858 157.794L294.54 161.593C294.784 158.505 294.932 155.388 294.98 152.249ZM294.625 139.604L283.416 136.665C283.471 137.214 283.528 137.763 283.576 138.314C283.804 140.92 283.951 143.516 284.028 146.098L295 148.951C294.975 145.854 294.85 142.736 294.625 139.604ZM293.168 127.039L281.747 125.088C281.849 125.63 281.953 126.172 282.049 126.716C282.503 129.293 282.876 131.866 283.178 134.432L294.357 136.318C294.062 133.234 293.666 130.139 293.168 127.039ZM290.622 114.648L279.074 113.7C279.223 114.231 279.374 114.762 279.517 115.296C280.194 117.823 280.79 120.354 281.315 122.884L292.615 123.788C292.052 120.742 291.388 117.693 290.622 114.648ZM287.006 102.527L275.419 102.589C275.614 103.105 275.811 103.62 276 104.14C276.895 106.598 277.708 109.068 278.451 111.542L289.788 111.458C288.962 108.473 288.035 105.493 287.006 102.527ZM282.347 90.7667L270.81 91.8382C271.049 92.335 271.29 92.8317 271.523 93.3327C272.629 95.7038 273.655 98.093 274.611 100.493L285.897 99.4217C284.814 96.5198 283.63 93.6319 282.347 90.7667ZM276.681 79.4573L265.281 81.5302C265.562 82.0043 265.846 82.4781 266.122 82.9569C267.43 85.2226 268.66 87.5133 269.822 89.8211L280.971 87.77C279.639 84.9735 278.209 82.1997 276.681 79.4573ZM270.051 68.6848L258.875 71.7434C259.196 72.1911 259.52 72.6384 259.837 73.0913C261.338 75.2344 262.763 77.4091 264.121 79.6069L275.049 76.5919C273.479 73.9222 271.812 71.2836 270.051 68.6848ZM262.507 58.5311L251.64 62.5521C251.999 62.9702 252.361 63.3875 252.716 63.8111C254.398 65.8152 256.007 67.8574 257.552 69.9285L268.176 65.9724C266.378 63.4498 264.488 60.9665 262.507 58.5311ZM254.107 49.0736L243.631 54.0264C244.026 54.4115 244.422 54.7958 244.813 55.1867C246.663 57.0367 248.444 58.9308 250.164 60.8594L260.402 55.9925C258.392 53.6361 256.292 51.327 254.107 49.0736ZM244.914 40.3841L234.91 46.2311C235.337 46.5803 235.765 46.9286 236.189 47.284C238.193 48.9657 240.133 50.6974 242.013 52.4688L251.789 46.728C249.581 44.5558 247.288 42.4385 244.914 40.3841ZM234.999 32.529L225.543 39.2255C225.999 39.5363 226.456 39.8459 226.909 40.163C229.052 41.6636 231.135 43.2197 233.163 44.8204L242.401 38.2495C240.012 36.278 237.543 34.3686 234.999 32.529ZM224.438 25.5678L215.601 33.063C216.082 33.3329 216.564 33.6015 217.043 33.8779C219.309 35.1861 221.52 36.5546 223.679 37.9726L232.31 30.6215C229.758 28.8657 227.132 27.1788 224.438 25.5678ZM213.309 19.5536L205.16 27.7905C205.662 28.0174 206.166 28.243 206.667 28.4766C209.038 29.5823 211.36 30.753 213.635 31.9773L221.592 23.902C218.897 22.3753 216.134 20.9236 213.309 19.5536ZM201.699 14.5322L194.299 23.448C194.819 23.6303 195.341 23.8111 195.86 24.0002C198.319 24.895 200.734 25.8589 203.107 26.8802L210.329 18.1422C207.511 16.8562 204.633 15.6508 201.699 14.5322ZM189.696 10.5419L183.1 20.0687C183.635 20.205 184.17 20.3396 184.704 20.4827C187.231 21.1598 189.721 21.9095 192.174 22.7202L198.608 13.3859C195.688 12.3504 192.715 11.4005 189.696 10.5419ZM177.39 7.61283L171.65 17.6783C172.194 17.7674 172.739 17.8549 173.284 17.9509C175.86 18.4052 178.406 18.9351 180.92 19.5288L186.516 9.66935C183.517 8.89223 180.473 8.20506 177.39 7.61283ZM164.876 5.76746L160.035 16.2948C160.585 16.3362 161.136 16.3758 161.686 16.4241C164.293 16.6521 166.875 16.9581 169.431 17.3304L174.146 7.02079C171.092 6.50795 167.999 6.08873 164.876 5.76746Z" fill="#08298C"/>
<path fill-rule="evenodd" clip-rule="evenodd" d="M109.157 183.67L109.4 165.315C103.677 169.934 99.4327 171.271 99.4327 171.271L90.3164 188.896C90.3164 188.896 100.88 183.67 109.157 183.67Z" fill="white" stroke="#08298C" stroke-width="0.600533"/>
<path d="M66.2493 62.6172L64.8495 61.1295L69.0442 57.2852L72.2656 60.8836C72.1853 61.6215 71.881 62.4804 71.3524 63.4604C70.8239 64.4405 70.2993 65.2109 69.517 65.947C68.5229 66.8824 67.7037 67.314 66.6166 67.6764C65.5296 68.0387 64.4526 68.0606 63.3856 67.7422C62.3186 67.4237 61.366 66.8612 60.5277 66.0545C59.6179 65.1791 59.007 64.1959 58.6949 63.1048C58.3828 62.0139 58.494 60.7863 58.9064 59.6419C59.2184 58.7673 59.914 57.7679 60.8216 56.9138C62.0015 55.8036 63.2512 55.0694 64.351 54.9321C65.4508 54.7948 66.4694 55.054 67.4068 55.7096L65.7602 57.7942C65.226 57.4732 64.5995 57.4149 63.9938 57.5116C63.3881 57.6084 62.8087 57.9171 62.2554 58.4376C61.4169 59.2266 60.9437 60.1977 60.9373 61.1577C60.931 62.1177 61.3774 63.1042 62.3388 64.0293C63.3757 65.0271 64.3505 65.5693 65.3459 65.5969C66.3413 65.6244 67.1474 65.3037 67.96 64.5391C68.3619 64.1609 68.696 63.7084 68.9622 63.1816C69.2284 62.6548 69.3445 62.2074 69.4495 61.7285L68.4235 60.5824L66.2493 62.6172ZM70.8208 56.4439C70.0202 55.5035 69.4996 54.5854 69.2591 53.6896C69.0847 53.027 69.1153 52.2769 69.2056 51.5725C69.2959 50.8681 69.504 50.2315 69.83 49.6626C70.2608 48.9026 71.026 48.1101 71.8681 47.4625C73.3923 46.2903 75.206 45.6575 76.7859 45.9114C78.3657 46.1654 79.7175 47.1037 80.8412 48.7264C81.9555 50.3355 82.3565 51.9205 82.0442 53.4813C81.7319 55.0422 81.0588 56.2108 79.5393 57.3793C78.0009 58.5623 76.5766 59.0071 74.9942 58.8727C73.4119 58.7384 72.0718 57.9131 70.8208 56.4439ZM72.8581 54.6488C73.7218 55.7159 74.6418 56.3101 75.618 56.4314C76.5942 56.5527 77.424 56.3665 78.2567 55.7261C79.0894 55.0858 79.4952 54.3562 79.6247 53.3913C79.7542 52.4264 79.4045 51.3762 78.5755 50.2407C77.7562 49.1185 76.8802 48.4748 75.9474 48.3093C75.0146 48.1438 74.0257 48.4428 73.1648 49.1048C72.3039 49.7669 71.745 50.6325 71.6637 51.5885C71.5823 52.5445 71.9805 53.5646 72.8581 54.6488ZM88.5319 50.9257L77.9661 43.3236L80.4789 41.6681L88.1406 47.4599L86.2928 38.1376L88.8708 36.708L90.8066 49.5457L88.5319 50.9257ZM95.8087 46.7529L90.2098 35.9992L99.3603 31.6414L100.166 33.5274L93.5913 36.5686L94.7717 38.9833L100.772 36.1914L101.575 38.0698L95.6689 40.8184L97.1181 43.7829L103.551 40.8138L104.354 42.6922L95.8087 46.7529ZM106.297 41.8817L101.82 30.6149L107.296 28.5393C108.617 28.0914 109.753 27.8066 110.421 27.8271C111.089 27.8476 111.687 28.0674 112.215 28.4865C112.743 28.9056 113.113 29.4574 113.326 30.1419C113.596 31.0107 113.544 31.8135 113.17 32.5502C112.796 33.287 112.1 33.8993 111.065 34.4134C111.703 34.5228 112.222 34.6963 112.686 34.9391C113.15 35.1818 113.822 35.6601 114.702 36.3738L116.775 38.2051L113.916 39.0947L111.413 37.1595C110.47 36.4839 109.885 36.0514 109.567 35.9072C109.248 35.7631 108.942 35.6965 108.649 35.7075C108.356 35.7184 107.925 35.8285 107.357 36.0375L106.856 36.222L108.604 40.9718L106.297 41.8817ZM106.187 34.4059L108.017 33.7325C109.203 33.296 109.961 32.9975 110.227 32.8024C110.493 32.6075 110.671 32.3665 110.762 32.0796C110.853 31.7927 110.84 31.4769 110.723 31.1323C110.592 30.7459 110.375 30.4716 110.072 30.3093C109.77 30.147 109.406 30.1032 108.98 30.1777C108.769 30.2202 108.057 30.4396 107.055 30.8085L105.125 31.5187L106.187 34.4059ZM118.18 37.8082L114.885 26.1408L117.51 25.4255L124.651 32.0435L122.858 24.1482L125.412 23.6329L127.788 35.5218L125.352 36.0144L118.438 29.5414L120.39 37.203L118.18 37.8082ZM130.348 35.0594L128.283 23.1125L132.337 22.4852L135.823 30.3819L137.331 21.9007L141.429 21.5671L142.228 33.6647L139.946 33.8343L139.067 24.3313L137.526 34.0601L135.007 34.3604L131.23 25.2543L132.608 34.698L130.348 35.0594ZM144.699 33.5266L144.219 21.4121L154.374 21.3564L154.292 23.4058L147.039 23.3647L147.075 26.0522L153.696 26.072L153.615 28.1131L147.102 28.0947L147.145 31.3942L154.222 31.4396L154.141 33.4807L144.699 33.5266ZM156.257 33.5645L157.06 21.4671L159.618 21.6368L164.291 30.2209L165.253 22.1818L167.84 22.5109L166.082 34.5068L163.618 34.1966L159.223 25.8376L158.7 33.7265L156.257 33.5645ZM171.584 35.3948L173.306 25.4701L169.383 24.8099L169.68 22.7806L180.475 24.9116L179.967 26.8986L175.993 26.0067L174.011 35.8828L171.584 35.3948ZM184.969 32.4785C185.306 31.2904 185.833 30.3678 186.463 29.6862C186.93 29.1851 187.481 28.7767 188.117 28.4611C188.754 28.1455 189.538 28.0027 190.193 27.9753C191.066 27.9347 192.005 28.0856 193.01 28.428C194.831 29.0479 196.352 30.2614 197.013 31.7185C197.675 33.1756 197.685 34.8415 196.907 36.6553C196.135 38.4539 195.083 39.6818 193.609 40.2839C192.136 40.886 190.648 40.9186 188.85 40.2541C187.03 39.5813 186.02 38.7181 185.254 37.327C184.488 35.9359 184.442 34.335 184.969 32.4785ZM187.584 33.2066C187.175 34.5172 187.133 35.5897 187.551 36.4804C187.968 37.371 188.582 37.9242 189.567 38.2884C190.552 38.6525 191.483 38.6217 192.358 38.1958C193.234 37.7699 193.878 36.8963 194.399 35.5905C194.914 34.3001 194.936 33.1898 194.558 32.3212C194.18 31.4526 193.481 30.83 192.463 30.4535C191.444 30.0771 190.393 30.1126 189.541 30.5533C188.688 30.994 187.999 31.875 187.584 33.2066ZM196.42 43.0253L201.202 31.8839L209.686 35.9472L208.736 37.7647L202.891 34.8877L201.692 37.4951L206.641 39.9075L205.69 41.7249L200.836 39.3586L198.683 44.0398L196.42 43.0253ZM212.474 51.5549L217.805 43.0082L214.416 40.9338L215.458 39.1668L224.536 45.0626L223.365 46.7461L220.097 44.5025L214.552 52.9124L212.474 51.5549ZM218.875 55.9387L226.047 46.1638L228.276 47.8358L225.358 51.6112L229.442 54.8736L232.545 51.2485L234.547 52.9621L226.663 62.1724L224.661 60.4588L228.109 56.4317L224.104 53.234L220.862 57.4282L218.875 55.9387ZM228.586 63.8945L236.698 54.8837L243.91 61.9926L242.428 63.4102L237.324 58.2743L235.477 60.2265L240.147 64.9141L238.671 66.326L234.073 61.7102L231.805 64.1069L236.797 69.1407L235.32 70.5526L228.586 63.8945Z" fill="#08298C"/>
<path d="M24.3477 178.032L36.1548 175.278L38.2588 183.361L36.2956 183.955L34.7425 178.253L31.9478 178.905L33.3044 183.978L31.3413 184.571L29.9504 179.37L24.9327 180.541L24.3477 178.032ZM27.3184 189.033L38.8451 185.275L41.9263 193.804L40.0209 194.563L37.6736 188.276L35.1366 189.163L37.3469 195.114L35.4493 195.87L33.2084 189.838L30.0938 190.928L32.6512 197.762L30.7536 198.518L27.3184 189.033ZM42.8166 195.933L44.6526 199.988C45.1074 200.947 45.3432 201.591 45.4542 202.158C45.6016 202.922 45.5073 203.562 45.2828 204.283C45.0584 205.005 44.6683 205.669 44.1127 206.277C43.557 206.884 42.7768 207.452 41.7719 207.982C40.8889 208.447 40.067 208.732 39.3063 208.838C38.3771 208.966 37.5332 208.896 36.7745 208.627C36.2005 208.424 35.5902 207.932 35.0432 207.355C34.636 206.923 34.1644 206.167 33.7569 205.307L31.6515 200.659L42.8166 195.933ZM41.9347 199.011L34.6074 202.297L35.4536 204.118C35.7617 204.768 36.0539 205.296 36.2656 205.547C36.5412 205.877 36.8467 206.111 37.182 206.252C37.5173 206.392 37.9667 206.419 38.5303 206.332C39.0938 206.244 39.7948 205.991 40.6331 205.572C41.4714 205.153 42.0759 204.753 42.4469 204.373C42.8177 203.993 43.0589 203.6 43.1702 203.194C43.2816 202.788 43.274 202.347 43.1473 201.872C43.0554 201.516 42.8316 200.935 42.3818 199.986L41.9347 199.011ZM37.6282 212.785L48.2346 206.912L52.9107 214.544L51.2055 215.684L47.6817 210.066L45.3581 211.417L48.7049 216.779L47.0065 217.914L43.5921 212.444L40.7395 214.103L44.6643 220.349L42.9659 221.484L37.6282 212.785ZM44.2827 223.413L54.2209 216.469L57.2661 220.646C58.0926 221.73 58.5496 222.472 58.7638 223.091C58.978 223.71 58.9212 224.252 58.7298 224.893C58.5384 225.535 58.1669 226.084 57.6153 226.542C56.9152 227.123 56.1574 227.386 55.342 227.331C54.5265 227.277 53.7105 226.846 52.8926 226.066C52.9977 226.694 53.0186 227.265 52.9553 227.779C52.8919 228.293 52.7205 229.126 52.3877 230.201L51.5622 232.911L49.5287 230.433L50.3921 227.276C50.7409 226.178 50.9391 225.458 50.9865 225.116C51.0339 224.773 51.0111 224.466 50.9181 224.194C50.8252 223.922 50.5934 223.529 50.2445 223.051L49.9366 222.63L45.8488 225.614L44.2827 223.413ZM51.4996 221.489L52.6185 223.007C53.3676 223.99 53.8601 224.559 54.1291 224.738C54.3982 224.917 54.6818 224.999 54.9801 224.984C55.2783 224.969 55.5698 224.848 55.8545 224.622C56.1738 224.368 56.3603 224.073 56.4139 223.738C56.4676 223.402 56.4357 223.117 56.2351 222.745C56.1304 222.562 55.7615 222.056 55.1285 221.225L53.9844 219.674L51.4996 221.489ZM60.8067 242.781L58.7215 240.727L59.9092 238.004L56.3288 234.185L53.5786 235.248L51.6289 232.991L64.0794 228.788L65.8562 230.684L60.8067 242.781ZM60.7899 235.984L62.8417 231.607L58.3761 233.405L60.7899 235.984ZM64.1045 245.837L70.8506 238.357L68.1306 235.845L69.5353 234.35L76.7722 240.711L75.4955 242.316L72.724 240.002L66.1335 247.619L64.1045 245.837ZM70.5327 251.239L78.0798 241.751L85.3298 247.006L84.1903 248.711L78.7793 244.875L77.1501 247.013L82.2991 250.68L81.1642 252.378L75.9118 248.638L73.9116 251.262L79.9315 255.523L78.7966 257.222L70.5327 251.239ZM87.2631 248.271L91.0593 250.601C91.9772 251.135 92.5295 251.545 92.942 251.95C93.4953 252.496 93.8759 253.132 94.0838 253.858C94.2917 254.585 94.2737 255.303 94.1592 256.118C94.0447 256.933 93.7229 257.843 93.1937 258.848C92.7287 259.731 92.2125 260.431 91.645 260.949C90.9516 261.581 90.1326 261.965 89.3506 262.156C88.7595 262.302 88.0754 262.292 87.2983 262.126C86.7182 262 85.9093 261.631 85.0867 261.153L80.7384 258.489L87.2631 248.271ZM88.2722 251.321L84.0926 258.177L85.8124 259.212C86.4343 259.573 86.9026 259.801 87.2172 259.895C87.6282 260.019 88.0814 260.08 88.4374 260.006C88.7933 259.932 89.1789 259.7 89.5942 259.309C90.0095 258.918 90.4442 258.312 90.8982 257.492C91.3521 256.672 91.6245 256.001 91.7153 255.478C91.806 254.954 91.7824 254.494 91.6445 254.096C91.5066 253.698 91.3224 253.375 90.956 253.047C90.6838 252.8 90.1571 252.47 89.2605 251.923L88.2722 251.321ZM98.2009 263.532L100.621 264.357C100.449 265.152 100.502 265.812 100.78 266.337C101.059 266.862 101.639 267.316 102.367 267.606C103.138 267.913 103.78 267.99 104.294 267.835C104.808 267.681 105.21 267.411 105.367 266.993C105.467 266.724 105.47 266.465 105.375 266.214C105.279 265.964 105.026 265.674 104.671 265.373C104.428 265.169 103.828 264.758 102.938 264.107C101.794 263.269 101.057 262.523 100.743 261.862C100.301 260.933 100.276 260.031 100.669 259.155C100.921 258.592 101.326 258.14 101.882 257.8C102.438 257.461 102.979 257.263 103.727 257.274C104.475 257.285 105.172 257.445 106.083 257.807C107.571 258.4 108.453 259.1 108.977 260.008C109.502 260.916 109.513 261.873 109.184 262.937L106.786 262.155C106.901 261.533 106.909 261.052 106.673 260.664C106.437 260.276 105.983 259.948 105.309 259.68C104.614 259.403 104.104 259.335 103.6 259.439C103.276 259.505 103.053 259.683 102.93 259.972C102.819 260.236 102.84 260.512 102.996 260.799C103.194 261.165 103.777 261.714 104.837 262.439C105.898 263.164 106.636 263.761 107.093 264.252C107.55 264.744 107.847 265.293 107.982 265.9C108.117 266.507 108.089 267.174 107.836 267.898C107.607 268.554 107.121 269.076 106.528 269.502C105.935 269.928 105.24 270.149 104.441 270.165C103.642 270.181 102.607 269.927 101.577 269.517C100.079 268.92 98.8461 267.992 98.3472 266.992C97.8483 265.992 97.7995 264.839 98.2009 263.532ZM111.71 272.918L114.626 263.276L111.195 262.143L111.872 260.206L121.08 262.971L120.572 264.958L117.01 263.994L114.302 273.696L111.71 272.918ZM131.633 277.41L128.734 276.962L128.084 274.063L122.941 273.046L121.219 275.479L118.436 274.809L126.029 264.12L128.572 264.623L131.633 277.41ZM127.578 271.892L126.681 267.145L124.137 271.21L127.578 271.892ZM136.108 277.976L137.099 267.951L133.517 267.504L133.808 265.474L143.367 266.404L143.255 268.452L139.575 268.194L138.804 278.238L136.108 277.976ZM144.504 278.603L144.903 266.486L153.961 266.523L154.028 268.573L147.322 268.618L147.293 271.306L153.638 271.275L153.706 273.317L147.27 273.349L147.234 276.648L154.536 276.591L154.603 278.633L144.504 278.603ZM156.067 274.626L158.598 274.249C158.809 275.035 159.159 275.597 159.648 275.935C160.136 276.274 160.863 276.414 161.643 276.337C162.468 276.255 163.074 276.028 163.46 275.654C163.846 275.281 164.081 274.861 164.027 274.417C163.993 274.133 163.832 273.908 163.637 273.725C163.441 273.543 163.116 273.399 162.663 273.294C162.353 273.225 161.631 273.134 160.541 272.963C159.14 272.745 158.142 272.42 157.56 271.977C156.742 271.354 156.306 270.563 156.254 269.605C156.22 268.989 156.372 268.402 156.711 267.845C157.049 267.288 157.436 266.865 158.105 266.531C158.775 266.198 159.464 266.023 160.439 265.926C162.033 265.769 163.135 265.989 164.019 266.555C164.902 267.12 165.431 267.953 165.605 269.054L163.115 269.46C162.944 268.851 162.664 268.428 162.277 268.192C161.889 267.956 161.334 267.874 160.613 267.945C159.868 268.019 159.386 268.189 158.986 268.513C158.729 268.72 158.612 268.981 158.636 269.294C158.658 269.58 158.804 269.815 159.074 269.999C159.418 270.232 160.187 270.455 161.462 270.612C162.737 270.769 163.667 270.964 164.299 271.19C164.931 271.416 165.447 271.768 165.846 272.244C166.246 272.721 166.529 273.332 166.638 274.091C166.736 274.778 166.543 275.46 166.213 276.111C165.883 276.762 165.367 277.278 164.665 277.66C163.963 278.042 162.923 278.288 161.82 278.397C160.215 278.555 158.685 278.294 157.783 277.634C156.881 276.974 156.309 275.972 156.067 274.626ZM172.813 270.607C172.585 269.393 172.585 268.339 172.812 267.443C172.983 266.783 173.18 266.183 173.57 265.6C173.96 265.016 174.423 264.547 174.959 264.192C175.671 263.715 176.397 263.374 177.409 263.138C179.239 262.712 180.573 262.9 181.958 263.664C183.343 264.428 184.256 265.761 184.827 267.65C185.393 269.524 185.228 271.173 184.447 272.539C183.665 273.904 182.112 274.916 180.287 275.341C178.44 275.771 176.72 275.581 175.398 274.735C174.076 273.889 173.169 272.504 172.813 270.607ZM175.4 270.007C175.682 271.35 176.223 272.3 177.021 272.856C177.82 273.412 178.804 273.538 179.804 273.305C180.804 273.072 181.617 272.487 182.081 271.643C182.545 270.799 182.628 269.676 182.25 268.322C181.877 266.984 181.342 266.063 180.552 265.559C179.761 265.056 178.943 264.929 177.909 265.17C176.875 265.411 176.203 265.932 175.709 266.743C175.216 267.554 175.113 268.642 175.4 270.007ZM188.632 272.814L184.877 261.286L192.753 258.495L193.512 260.4L187.962 262.439L188.85 265.167L193.789 263.379L194.547 265.284L189.486 267.117L191.081 272.016L188.632 272.814ZM204.06 266.836L198.871 255.878L202.226 254.255L208.022 260.574L206.075 252.231L209.322 250.381L215.411 260.865L213.231 262.128L208.611 253.777L210.903 263.413L208.708 264.568L202.072 257.217L206.337 265.754L204.06 266.836ZM217.656 259.506L211.349 249.151L213.417 247.838L219.938 258.06L217.656 259.506ZM226.313 248.054L228.774 247.058C229.323 248.321 229.373 249.529 229.075 250.586C228.778 251.643 227.885 252.753 226.779 253.56C225.41 254.558 223.857 254.991 222.333 254.713C220.809 254.436 219.457 253.524 218.398 251.937C217.277 250.259 216.807 248.697 217.067 247.154C217.327 245.611 217.992 244.497 219.414 243.415C220.656 242.469 221.831 242.119 223.139 242.199C223.916 242.244 224.664 242.608 225.506 243.17L223.914 245.175C223.405 244.777 222.898 244.535 222.297 244.536C221.695 244.536 221.199 244.701 220.646 245.105C219.882 245.662 219.452 246.375 219.356 247.243C219.26 248.111 219.655 249.098 220.482 250.282C221.359 251.539 222.27 252.245 223.122 252.429C223.974 252.613 224.775 252.432 225.525 251.884C226.078 251.481 226.484 250.9 226.626 250.272C226.768 249.644 226.697 248.882 226.313 248.054ZM232.853 248.489L225.116 239.154L228.903 235.819C229.897 234.886 230.607 234.374 231.201 234.098C231.795 233.821 232.419 233.752 233.074 233.891C233.729 234.029 234.258 234.403 234.769 234.905C235.419 235.542 235.769 236.251 235.781 237.068C235.793 237.885 235.449 238.753 234.739 239.631C235.356 239.475 235.941 239.386 236.458 239.396C236.976 239.406 237.784 239.534 238.883 239.777L241.724 240.275L239.449 242.533L236.202 241.978C235.075 241.744 234.311 241.648 233.965 241.628C233.62 241.609 233.316 241.657 233.052 241.772C232.789 241.887 232.437 242.142 231.998 242.539L231.591 242.898L234.901 246.728L232.853 248.489ZM230.326 241.434L231.73 240.175C232.648 239.348 233.157 238.791 233.314 238.508C233.47 238.225 233.528 237.936 233.489 237.64C233.45 237.344 233.306 237.063 233.057 236.798C232.777 236.5 232.468 236.339 232.13 236.313C231.791 236.287 231.447 236.392 231.097 236.63C230.926 236.753 230.524 237.12 229.749 237.819L228.314 239.106L230.326 241.434ZM238.064 235.455C237.182 234.59 236.579 233.726 236.252 232.862C236.015 232.222 235.827 231.605 235.813 230.903C235.8 230.201 235.839 229.641 236.064 229.038C236.359 228.234 236.778 227.552 237.458 226.767C238.689 225.346 239.996 224.645 241.569 224.485C243.143 224.325 244.638 224.887 246.182 226.117C247.713 227.336 248.533 228.798 248.667 230.365C248.802 231.933 248.184 233.533 246.957 234.95C245.715 236.384 244.103 237.293 242.535 237.355C240.967 237.416 239.442 236.806 238.064 235.455ZM239.833 233.474C240.833 234.415 241.856 234.851 242.829 234.831C243.802 234.811 244.698 234.362 245.37 233.586C246.042 232.81 246.383 231.886 246.263 230.93C246.143 229.974 245.542 229.047 244.461 228.149C243.392 227.261 242.39 226.845 241.454 226.901C240.519 226.957 239.752 227.315 239.057 228.117C238.362 228.919 238.093 229.714 238.171 230.66C238.249 231.606 238.818 232.518 239.833 233.474ZM252.234 228.186L242.597 220.829L244.026 218.925L253.61 219.362L246.882 214.859L248.127 212.964L258.34 219.497L256.851 221.761L247.364 221.506L253.746 226.172L252.234 228.186ZM259.859 217.076L249.512 210.757L253.891 202.953L255.725 203.871L252.541 209.687L254.864 211.04L257.924 205.477L259.731 206.431L256.629 212.068L259.48 213.728L263.014 207.251L264.84 208.166L259.859 217.076ZM262.007 205.014L262.901 202.615C263.687 202.822 264.379 202.735 264.91 202.468C265.441 202.201 265.867 201.71 266.188 200.996C266.528 200.239 266.643 199.512 266.501 198.995C266.358 198.477 266.081 198.132 265.67 197.957C265.406 197.845 265.147 197.831 264.892 197.916C264.638 198 264.356 198.216 264.047 198.564C263.838 198.803 263.399 199.386 262.728 200.261C261.865 201.387 261.088 202.101 260.421 202.4C259.482 202.821 258.579 202.826 257.713 202.415C257.155 202.15 256.712 201.735 256.385 201.172C256.057 200.609 255.915 199.953 255.959 199.207C256.002 198.46 256.157 197.753 256.559 196.859C257.215 195.399 257.874 194.65 258.794 194.145C259.714 193.641 260.698 193.577 261.748 193.952L260.898 196.33C260.281 196.188 259.777 196.231 259.384 196.458C258.991 196.685 258.694 197.052 258.396 197.714C258.09 198.396 257.983 198.991 258.076 199.497C258.135 199.822 258.336 199.984 258.62 200.119C258.879 200.242 259.132 200.28 259.423 200.131C259.792 199.941 260.369 199.376 261.118 198.332C261.866 197.289 262.494 196.57 262.996 196.124C263.497 195.678 264.053 195.394 264.663 195.272C265.273 195.15 265.933 195.231 266.645 195.515C267.29 195.773 267.819 196.203 268.232 196.805C268.644 197.407 268.817 198.221 268.799 199.02C268.78 199.819 268.517 200.857 268.063 201.867C267.402 203.338 266.507 204.431 265.497 204.908C264.486 205.385 263.295 205.471 262.007 205.014ZM270.718 194.736L259.365 190.479L260.191 188.176L271.631 192.19L270.718 194.736ZM275.627 178.156L274.953 181.011L272.009 181.403L270.598 186.451L272.928 188.259L272.048 190.982L261.939 182.722L262.637 180.224L275.627 178.156ZM269.824 181.695L265.021 182.203L268.874 185.1L269.824 181.695Z" fill="#08298C"/>
<path d="M244.605 150C244.605 202.248 202.25 244.604 150.002 244.604C97.7539 244.604 55.3984 202.248 55.3984 150C55.3984 97.7519 97.7539 55.3965 150.002 55.3965C202.25 55.3965 244.605 97.7519 244.605 150Z" stroke="black" stroke-width="1.45862" stroke-linecap="round" stroke-linejoin="round"/>
<path fill-rule="evenodd" clip-rule="evenodd" d="M155.267 38.2852C152.818 38.2852 146.457 43.5711 146.457 46.0636C146.457 46.8801 147.188 46.9661 148.348 46.9661C149.508 46.9661 157.673 43.9149 157.673 40.219C157.673 38.6719 156.646 38.2852 155.267 38.2852Z" fill="#FDF603" stroke="black" stroke-width="0.486205"/>
<path fill-rule="evenodd" clip-rule="evenodd" d="M148.443 38.1724C145.998 38.3217 139.972 43.9855 140.124 46.4734C140.174 47.2884 140.908 47.3297 142.066 47.2589C143.224 47.1882 151.188 43.6449 150.963 39.9559C150.869 38.4117 149.819 38.0883 148.443 38.1724Z" fill="#FDF603" stroke="black" stroke-width="0.486205"/>
<path fill-rule="evenodd" clip-rule="evenodd" d="M141.634 38.4741C139.203 38.7722 133.533 44.7928 133.836 47.2669C133.935 48.0773 134.671 48.0737 135.823 47.9325C136.974 47.7913 144.707 43.7691 144.258 40.1007C144.069 38.5651 143.002 38.3063 141.634 38.4741Z" fill="#FDF603" stroke="black" stroke-width="0.486205"/>
<path fill-rule="evenodd" clip-rule="evenodd" d="M134.845 39.1925C132.437 39.6382 127.144 45.9933 127.598 48.4442C127.746 49.2471 128.48 49.1987 129.621 48.9875C130.762 48.7764 138.236 44.2902 137.563 40.6561C137.282 39.1348 136.201 38.9416 134.845 39.1925Z" fill="#FDF603" stroke="black" stroke-width="0.486205"/>
<path fill-rule="evenodd" clip-rule="evenodd" d="M128.119 40.3224C125.742 40.9141 120.847 47.5801 121.449 49.9988C121.647 50.7911 122.376 50.698 123.502 50.4177C124.628 50.1374 131.814 45.204 130.922 41.6176C130.548 40.1163 129.457 39.9893 128.119 40.3224Z" fill="#FDF603" stroke="black" stroke-width="0.486205"/>
<path fill-rule="evenodd" clip-rule="evenodd" d="M121.475 41.8598C119.139 42.5953 114.659 49.5472 115.408 51.9247C115.653 52.7036 116.375 52.5662 117.482 52.2177C118.589 51.8693 125.461 46.507 124.351 42.9817C123.887 41.506 122.79 41.4458 121.475 41.8598Z" fill="#FDF603" stroke="black" stroke-width="0.486205"/>
<path fill-rule="evenodd" clip-rule="evenodd" d="M114.936 43.7999C112.649 44.6765 108.601 51.8886 109.493 54.216C109.786 54.9785 110.499 54.7973 111.582 54.382C112.666 53.9668 119.198 48.1955 117.875 44.7444C117.322 43.2998 116.223 43.3065 114.936 43.7999Z" fill="#FDF603" stroke="black" stroke-width="0.486205"/>
<path fill-rule="evenodd" clip-rule="evenodd" d="M108.526 46.1346C106.297 47.149 102.696 54.5944 103.729 56.8631C104.067 57.6064 104.767 57.382 105.824 56.9015C106.88 56.421 113.048 50.2622 111.518 46.8982C110.877 45.49 109.781 45.5636 108.526 46.1346Z" fill="#FDF603" stroke="black" stroke-width="0.486205"/>
<path fill-rule="evenodd" clip-rule="evenodd" d="M102.274 48.8569C100.111 50.0053 96.971 57.6564 98.1396 59.858C98.5225 60.5792 99.2081 60.3126 100.233 59.7686C101.258 59.2245 107.039 52.7012 105.307 49.4367C104.581 48.0702 103.492 48.2105 102.274 48.8569Z" fill="#FDF603" stroke="black" stroke-width="0.486205"/>
<path fill-rule="evenodd" clip-rule="evenodd" d="M96.194 51.9542C94.1046 53.2323 91.4371 61.0605 92.7378 63.1868C93.1639 63.8833 93.8319 63.5754 94.8218 62.9699C95.8116 62.3644 101.185 55.5008 99.2561 52.348C98.4488 51.0283 97.3701 51.2347 96.194 51.9542Z" fill="#FDF603" stroke="black" stroke-width="0.486205"/>
<path fill-rule="evenodd" clip-rule="evenodd" d="M90.317 55.4157C88.3095 56.8188 86.1241 64.7952 87.552 66.8382C88.0198 67.5074 88.6678 67.1594 89.6189 66.4947C90.5699 65.83 95.5146 58.6515 93.3974 55.6222C92.5112 54.3541 91.4471 54.6259 90.317 55.4157Z" fill="#FDF603" stroke="black" stroke-width="0.486205"/>
<path fill-rule="evenodd" clip-rule="evenodd" d="M84.661 59.2312C82.7427 60.7541 81.0477 68.8488 82.5974 70.8009C83.1051 71.4404 83.7307 71.0535 84.6395 70.3321C85.5483 69.6106 90.0462 62.1441 87.7483 59.2495C86.7863 58.0378 85.7408 58.374 84.661 59.2312Z" fill="#FDF603" stroke="black" stroke-width="0.486205"/>
<path fill-rule="evenodd" clip-rule="evenodd" d="M79.254 63.3823C77.4321 65.0193 76.2337 73.2022 77.8996 75.0563C78.4453 75.6637 79.0462 75.2393 79.9093 74.4638C80.7724 73.6883 84.8068 65.9615 82.3367 63.2123C81.3026 62.0615 80.2795 62.4608 79.254 63.3823Z" fill="#FDF603" stroke="black" stroke-width="0.486205"/>
<path fill-rule="evenodd" clip-rule="evenodd" d="M74.1031 67.8567C72.3844 69.6017 71.6871 77.8426 73.4629 79.5916C74.0447 80.1646 74.6185 79.7044 75.4328 78.8777C76.247 78.0511 79.8028 70.0926 77.1697 67.4992C76.0675 66.4135 75.0706 66.8745 74.1031 67.8567Z" fill="#FDF603" stroke="black" stroke-width="0.486205"/>
<path fill-rule="evenodd" clip-rule="evenodd" d="M69.2351 72.6355C67.626 74.482 67.4323 82.75 69.3115 84.3876C69.9271 84.924 70.4718 84.4297 71.2341 83.5549C71.9965 82.6802 75.0605 74.5198 72.2742 72.0917C71.1078 71.0753 70.1409 71.5961 69.2351 72.6355Z" fill="#FDF603" stroke="black" stroke-width="0.486205"/>
<path fill-rule="evenodd" clip-rule="evenodd" d="M64.6718 77.7035C63.1782 79.6447 63.4889 87.9091 65.4644 89.429C66.1116 89.927 66.6252 89.4004 67.3327 88.4808C68.0403 87.5611 70.6012 79.2291 67.672 76.9754C66.4459 76.032 65.5125 76.6108 64.6718 77.7035Z" fill="#FDF603" stroke="black" stroke-width="0.486205"/>
<path fill-rule="evenodd" clip-rule="evenodd" d="M60.4246 83.0398C59.0521 85.0684 59.866 93.2985 61.9305 94.6952C62.6068 95.1528 63.0874 94.5958 63.7375 93.6348C64.3877 92.6738 66.4359 84.2011 63.3748 82.1301C62.0934 81.2632 61.1971 81.8979 60.4246 83.0398Z" fill="#FDF603" stroke="black" stroke-width="0.486205"/>
<path fill-rule="evenodd" clip-rule="evenodd" d="M56.5031 88.6255C55.2569 90.7341 56.571 98.8993 58.7168 100.167C59.4197 100.583 59.8654 99.9978 60.4558 98.9989C61.0462 98 62.5741 89.4183 59.3924 87.5377C58.0606 86.7506 57.2046 87.4387 56.5031 88.6255Z" fill="#FDF603" stroke="black" stroke-width="0.486205"/>
<path fill-rule="evenodd" clip-rule="evenodd" d="M52.9406 94.439C51.8252 96.6196 53.6347 104.689 55.8538 105.825C56.5807 106.196 56.9899 105.585 57.5183 104.552C58.0467 103.519 59.0486 94.8602 55.7582 93.1771C54.3809 92.4726 53.5684 93.2116 52.9406 94.439Z" fill="#FDF603" stroke="black" stroke-width="0.486205"/>
<path fill-rule="evenodd" clip-rule="evenodd" d="M49.7323 100.46C48.752 102.704 51.05 110.649 53.3342 111.646C54.0825 111.973 54.4536 111.338 54.9181 110.275C55.3825 109.211 55.8547 100.508 52.4678 99.0282C51.0501 98.4089 50.2842 99.1961 49.7323 100.46Z" fill="#FDF603" stroke="black" stroke-width="0.486205"/>
<path fill-rule="evenodd" clip-rule="evenodd" d="M46.9 106.664C46.0583 108.964 48.8364 116.753 51.1771 117.61C51.9439 117.891 52.2757 117.234 52.6744 116.144C53.0732 115.055 53.0139 106.338 49.5431 105.068C48.0903 104.536 47.3738 105.369 46.9 106.664Z" fill="#FDF603" stroke="black" stroke-width="0.486205"/>
<path fill-rule="evenodd" clip-rule="evenodd" d="M44.4483 113.03C43.7484 115.377 46.9962 122.983 49.3848 123.695C50.1672 123.928 50.4584 123.253 50.79 122.141C51.1216 121.029 50.531 112.332 46.9893 111.276C45.5067 110.834 44.8423 111.708 44.4483 113.03Z" fill="#FDF603" stroke="black" stroke-width="0.486205"/>
<path fill-rule="evenodd" clip-rule="evenodd" d="M42.3919 119.532C41.8364 121.918 45.5418 129.312 47.9694 129.877C48.7646 130.062 49.014 129.37 49.2772 128.24C49.5404 127.11 48.4208 118.466 44.8212 117.627C43.3145 117.276 42.7046 118.19 42.3919 119.532Z" fill="#FDF603" stroke="black" stroke-width="0.486205"/>
<path fill-rule="evenodd" clip-rule="evenodd" d="M40.7313 126.15C40.3222 128.565 44.4714 135.719 46.929 136.135C47.734 136.272 47.9408 135.566 48.1346 134.422C48.3284 133.278 46.6838 124.717 43.0399 124.1C41.5146 123.842 40.9615 124.791 40.7313 126.15Z" fill="#FDF603" stroke="black" stroke-width="0.486205"/>
<path fill-rule="evenodd" clip-rule="evenodd" d="M39.4795 132.854C39.2184 135.29 43.796 142.177 46.2744 142.443C47.0862 142.53 47.2496 141.813 47.3733 140.659C47.497 139.506 45.3337 131.062 41.6589 130.668C40.1206 130.503 39.6264 131.483 39.4795 132.854Z" fill="#FDF603" stroke="black" stroke-width="0.486205"/>
<path fill-rule="evenodd" clip-rule="evenodd" d="M38.6425 139.624C38.5303 142.07 43.5194 148.666 46.0093 148.781C46.825 148.818 46.9443 148.092 46.9974 146.933C47.0506 145.774 44.3765 137.477 40.6845 137.308C39.1391 137.237 38.7056 138.246 38.6425 139.624Z" fill="#FDF603" stroke="black" stroke-width="0.486205"/>
<path fill-rule="evenodd" clip-rule="evenodd" d="M38.2196 146.432C38.2568 148.881 43.6386 155.161 46.1309 155.123C46.9473 155.11 47.0222 154.379 47.0046 153.218C46.987 152.058 43.8121 143.94 40.1167 143.996C38.5698 144.02 38.1986 145.054 38.2196 146.432Z" fill="#FDF603" stroke="black" stroke-width="0.486205"/>
<path fill-rule="evenodd" clip-rule="evenodd" d="M38.2061 153.252C38.3925 155.695 44.1472 161.634 46.6325 161.445C47.4467 161.382 47.4767 160.647 47.3884 159.491C47.3001 158.334 43.6363 150.424 39.9512 150.706C38.4086 150.823 38.1012 151.878 38.2061 153.252Z" fill="#FDF603" stroke="black" stroke-width="0.486205"/>
<path fill-rule="evenodd" clip-rule="evenodd" d="M38.6135 160.062C38.9485 162.488 45.0546 168.066 47.5237 167.725C48.3325 167.614 48.3178 166.878 48.1591 165.729C48.0004 164.579 43.8612 156.908 40.2001 157.414C38.6676 157.625 38.425 158.696 38.6135 160.062Z" fill="#FDF603" stroke="black" stroke-width="0.486205"/>
<path fill-rule="evenodd" clip-rule="evenodd" d="M39.4338 166.833C39.9161 169.235 46.3508 174.43 48.7945 173.939C49.5951 173.779 49.5355 173.045 49.3071 171.908C49.0786 170.77 44.4795 163.366 40.856 164.093C39.3392 164.398 39.1624 165.482 39.4338 166.833Z" fill="#FDF603" stroke="black" stroke-width="0.486205"/>
<path fill-rule="evenodd" clip-rule="evenodd" d="M40.668 173.542C41.2957 175.91 48.0352 180.703 50.4445 180.064C51.2338 179.855 51.1296 179.127 50.8322 178.005C50.5349 176.884 45.4929 169.773 41.9205 170.72C40.4251 171.117 40.3146 172.21 40.668 173.542Z" fill="#FDF603" stroke="black" stroke-width="0.486205"/>
<path fill-rule="evenodd" clip-rule="evenodd" d="M42.3062 180.163C43.0771 182.488 50.0963 186.862 52.4621 186.077C53.2371 185.82 53.0888 185.1 52.7236 183.998C52.3584 182.897 46.8923 176.107 43.3843 177.27C41.9158 177.757 41.8722 178.855 42.3062 180.163Z" fill="#FDF603" stroke="black" stroke-width="0.486205"/>
<path fill-rule="evenodd" clip-rule="evenodd" d="M44.3429 186.673C45.2541 188.947 52.5268 192.884 54.8404 191.957C55.5983 191.653 55.4063 190.943 54.9747 189.866C54.543 188.789 48.6732 182.345 45.2426 183.72C43.8066 184.295 43.83 185.393 44.3429 186.673Z" fill="#FDF603" stroke="black" stroke-width="0.486205"/>
<path fill-rule="evenodd" clip-rule="evenodd" d="M46.7767 193.045C47.8248 195.259 55.3241 198.746 57.5769 197.679C58.3149 197.33 58.0799 196.633 57.5834 195.584C57.0869 194.535 50.8352 188.461 47.4948 190.042C46.0965 190.704 46.1868 191.799 46.7767 193.045Z" fill="#FDF603" stroke="black" stroke-width="0.486205"/>
<path fill-rule="evenodd" clip-rule="evenodd" d="M49.5951 199.257C50.7762 201.403 58.474 204.426 60.6576 203.224C61.3729 202.831 61.0959 202.149 60.5364 201.133C59.9769 200.116 53.3665 194.434 50.1288 196.217C48.7734 196.963 48.9302 198.05 49.5951 199.257Z" fill="#FDF603" stroke="black" stroke-width="0.486205"/>
<path fill-rule="evenodd" clip-rule="evenodd" d="M52.7813 205.288C54.091 207.357 61.9588 209.906 64.0651 208.573C64.7551 208.136 64.437 207.473 63.8166 206.493C63.1962 205.512 56.2517 200.244 53.1286 202.22C51.8212 203.047 52.0441 204.123 52.7813 205.288Z" fill="#FDF603" stroke="black" stroke-width="0.486205"/>
<path fill-rule="evenodd" clip-rule="evenodd" d="M56.3345 211.111C57.768 213.097 65.7766 215.161 67.7977 213.702C68.4597 213.224 68.1019 212.582 67.4228 211.641C66.7438 210.7 59.491 205.865 56.4942 208.028C55.2397 208.933 55.5277 209.993 56.3345 211.111Z" fill="#FDF603" stroke="black" stroke-width="0.486205"/>
<path fill-rule="evenodd" clip-rule="evenodd" d="M60.2308 216.708C61.7826 218.603 69.9021 220.175 71.8305 218.595C72.4623 218.078 72.0659 217.458 71.3307 216.561C70.5956 215.663 63.0616 211.279 60.2022 213.621C59.0052 214.601 59.3573 215.641 60.2308 216.708Z" fill="#FDF603" stroke="black" stroke-width="0.486205"/>
<path fill-rule="evenodd" clip-rule="evenodd" d="M64.4654 222.056C66.1299 223.853 74.3302 224.927 76.1587 223.233C76.7577 222.678 76.3243 222.084 75.5358 221.233C74.7473 220.381 66.96 216.465 64.2487 218.976C63.1137 220.028 63.5285 221.045 64.4654 222.056Z" fill="#FDF603" stroke="black" stroke-width="0.486205"/>
<path fill-rule="evenodd" clip-rule="evenodd" d="M69.0184 227.136C70.7894 228.828 79.0398 229.4 80.7617 227.598C81.3258 227.008 80.8569 226.441 80.018 225.639C79.1791 224.838 71.1675 221.403 68.6144 224.075C67.5456 225.194 68.0216 226.184 69.0184 227.136Z" fill="#FDF603" stroke="black" stroke-width="0.486205"/>
<path fill-rule="evenodd" clip-rule="evenodd" d="M73.8698 231.929C75.7406 233.509 84.0106 233.578 85.6194 231.674C86.1464 231.05 85.6439 230.513 84.7576 229.764C83.8714 229.015 75.6654 226.075 73.2799 228.898C72.2813 230.08 72.8168 231.039 73.8698 231.929Z" fill="#FDF603" stroke="black" stroke-width="0.486205"/>
<path fill-rule="evenodd" clip-rule="evenodd" d="M79.0073 236.418C80.971 237.882 89.2298 237.445 90.7195 235.447C91.2076 234.792 90.6732 234.287 89.743 233.593C88.8127 232.9 80.4428 230.466 78.2338 233.429C77.3091 234.669 77.902 235.594 79.0073 236.418Z" fill="#FDF603" stroke="black" stroke-width="0.486205"/>
<path fill-rule="evenodd" clip-rule="evenodd" d="M84.4072 240.585C86.4565 241.927 94.6733 240.988 96.0385 238.902C96.4857 238.219 95.9215 237.747 94.9507 237.112C93.9799 236.476 85.4772 234.557 83.4529 237.649C82.6056 238.943 83.2538 239.83 84.4072 240.585Z" fill="#FDF603" stroke="black" stroke-width="0.486205"/>
<path fill-rule="evenodd" clip-rule="evenodd" d="M90.0536 244.414C92.1809 245.628 100.325 244.19 101.561 242.025C101.965 241.316 101.373 240.879 100.366 240.304C99.358 239.729 90.7541 238.332 88.9221 241.542C88.1552 242.885 88.8562 243.731 90.0536 244.414Z" fill="#FDF603" stroke="black" stroke-width="0.486205"/>
<path fill-rule="evenodd" clip-rule="evenodd" d="M95.9189 247.893C98.1162 248.976 106.158 247.044 107.259 244.808C107.62 244.075 107.002 243.675 105.961 243.163C104.92 242.65 96.2472 241.78 94.6143 245.095C93.9308 246.483 94.6821 247.284 95.9189 247.893Z" fill="#FDF603" stroke="black" stroke-width="0.486205"/>
<path fill-rule="evenodd" clip-rule="evenodd" d="M101.987 251.008C104.246 251.955 112.155 249.536 113.118 247.237C113.433 246.484 112.793 246.122 111.723 245.674C110.652 245.226 101.942 244.886 100.515 248.295C99.9169 249.722 100.716 250.476 101.987 251.008Z" fill="#FDF603" stroke="black" stroke-width="0.486205"/>
<path fill-rule="evenodd" clip-rule="evenodd" d="M108.235 253.748C110.548 254.555 118.294 251.659 119.115 249.305C119.384 248.534 118.723 248.212 117.627 247.83C116.532 247.448 107.817 247.64 106.6 251.129C106.09 252.59 106.933 253.294 108.235 253.748Z" fill="#FDF603" stroke="black" stroke-width="0.486205"/>
<path fill-rule="evenodd" clip-rule="evenodd" d="M114.639 256.1C116.997 256.764 124.552 253.402 125.228 251.002C125.45 250.217 124.77 249.936 123.653 249.621C122.536 249.306 113.85 250.029 112.847 253.586C112.428 255.075 113.312 255.726 114.639 256.1Z" fill="#FDF603" stroke="black" stroke-width="0.486205"/>
<path fill-rule="evenodd" clip-rule="evenodd" d="M121.172 258.059C123.566 258.579 130.903 254.761 131.431 252.325C131.604 251.527 130.908 251.289 129.775 251.043C128.641 250.797 120.014 252.047 119.231 255.659C118.903 257.171 119.825 257.767 121.172 258.059Z" fill="#FDF603" stroke="black" stroke-width="0.486205"/>
<path fill-rule="evenodd" clip-rule="evenodd" d="M127.812 259.615C130.232 259.988 137.323 255.73 137.702 253.267C137.826 252.46 137.117 252.264 135.97 252.087C134.823 251.911 126.289 253.685 125.727 257.338C125.492 258.867 126.449 259.406 127.812 259.615Z" fill="#FDF603" stroke="black" stroke-width="0.486205"/>
<path fill-rule="evenodd" clip-rule="evenodd" d="M134.534 260.764C136.973 260.988 143.79 256.306 144.018 253.824C144.093 253.011 143.373 252.859 142.218 252.753C141.063 252.646 132.652 254.938 132.314 258.618C132.173 260.159 133.161 260.638 134.534 260.764Z" fill="#FDF603" stroke="black" stroke-width="0.486205"/>
<path fill-rule="evenodd" clip-rule="evenodd" d="M141.317 261.501C143.765 261.576 150.284 256.488 150.36 253.996C150.386 253.18 149.658 253.072 148.498 253.036C147.338 253.001 139.084 255.801 138.97 259.495C138.923 261.041 139.939 261.459 141.317 261.501Z" fill="#FDF603" stroke="black" stroke-width="0.486205"/>
<path fill-rule="evenodd" clip-rule="evenodd" d="M148.129 261.823C150.578 261.749 156.775 256.272 156.699 253.781C156.674 252.965 155.941 252.901 154.782 252.936C153.622 252.971 145.553 256.269 145.665 259.963C145.712 261.51 146.751 261.865 148.129 261.823Z" fill="#FDF603" stroke="black" stroke-width="0.486205"/>
<path fill-rule="evenodd" clip-rule="evenodd" d="M154.951 261.729C157.39 261.505 163.242 255.661 163.014 253.179C162.94 252.366 162.204 252.347 161.049 252.453C159.893 252.559 152.041 256.342 152.378 260.023C152.519 261.563 153.578 261.855 154.951 261.729Z" fill="#FDF603" stroke="black" stroke-width="0.486205"/>
<path fill-rule="evenodd" clip-rule="evenodd" d="M161.753 261.22C164.173 260.848 169.658 254.658 169.28 252.194C169.156 251.387 168.421 251.413 167.274 251.589C166.127 251.765 158.519 256.02 159.08 259.673C159.315 261.203 160.39 261.429 161.753 261.22Z" fill="#FDF603" stroke="black" stroke-width="0.486205"/>
<path fill-rule="evenodd" clip-rule="evenodd" d="M168.511 260.296C170.905 259.778 176.002 253.265 175.474 250.829C175.301 250.031 174.569 250.101 173.435 250.347C172.301 250.593 164.967 255.304 165.75 258.916C166.077 260.428 167.164 260.588 168.511 260.296Z" fill="#FDF603" stroke="black" stroke-width="0.486205"/>
<path fill-rule="evenodd" clip-rule="evenodd" d="M175.2 258.964C177.557 258.3 182.248 251.488 181.572 249.089C181.351 248.303 180.625 248.418 179.508 248.733C178.391 249.047 171.358 254.196 172.359 257.754C172.778 259.243 173.872 259.337 175.2 258.964Z" fill="#FDF603" stroke="black" stroke-width="0.486205"/>
<path fill-rule="evenodd" clip-rule="evenodd" d="M181.794 257.224C184.107 256.418 188.374 249.333 187.553 246.979C187.284 246.208 186.566 246.368 185.471 246.749C184.375 247.131 177.669 252.7 178.885 256.19C179.394 257.651 180.492 257.678 181.794 257.224Z" fill="#FDF603" stroke="black" stroke-width="0.486205"/>
<path fill-rule="evenodd" clip-rule="evenodd" d="M188.272 255.087C190.531 254.141 194.358 246.81 193.396 244.51C193.081 243.757 192.373 243.96 191.303 244.408C190.233 244.856 183.878 250.823 185.305 254.232C185.903 255.659 187 255.619 188.272 255.087Z" fill="#FDF603" stroke="black" stroke-width="0.486205"/>
<path fill-rule="evenodd" clip-rule="evenodd" d="M194.606 252.557C196.804 251.476 200.176 243.925 199.076 241.688C198.715 240.956 198.022 241.201 196.981 241.713C195.94 242.226 189.961 248.569 191.593 251.885C192.276 253.273 193.369 253.166 194.606 252.557Z" fill="#FDF603" stroke="black" stroke-width="0.486205"/>
<path fill-rule="evenodd" clip-rule="evenodd" d="M200.774 249.649C202.902 248.435 205.808 240.692 204.573 238.527C204.168 237.818 203.491 238.105 202.483 238.68C201.475 239.255 195.894 245.951 197.726 249.161C198.492 250.505 199.577 250.332 200.774 249.649Z" fill="#FDF603" stroke="black" stroke-width="0.486205"/>
<path fill-rule="evenodd" clip-rule="evenodd" d="M206.757 246.366C208.807 245.025 211.236 237.12 209.871 235.034C209.424 234.351 208.765 234.679 207.795 235.314C206.824 235.949 201.661 242.973 203.685 246.066C204.532 247.36 205.604 247.121 206.757 246.366Z" fill="#FDF603" stroke="black" stroke-width="0.486205"/>
<path fill-rule="evenodd" clip-rule="evenodd" d="M212.526 242.727C214.49 241.264 216.433 233.225 214.943 231.226C214.455 230.571 213.818 230.939 212.888 231.632C211.957 232.325 207.233 239.651 209.441 242.614C210.365 243.855 211.421 243.551 212.526 242.727Z" fill="#FDF603" stroke="black" stroke-width="0.486205"/>
<path fill-rule="evenodd" clip-rule="evenodd" d="M218.063 238.744C219.934 237.163 221.383 229.021 219.775 227.117C219.248 226.493 218.634 226.899 217.748 227.647C216.861 228.396 212.592 235.996 214.977 238.819C215.975 240.001 217.01 239.633 218.063 238.744Z" fill="#FDF603" stroke="black" stroke-width="0.486205"/>
<path fill-rule="evenodd" clip-rule="evenodd" d="M223.348 234.43C225.119 232.738 226.069 224.523 224.347 222.72C223.783 222.129 223.195 222.572 222.356 223.373C221.517 224.174 217.719 232.02 220.272 234.693C221.34 235.812 222.351 235.382 223.348 234.43Z" fill="#FDF603" stroke="black" stroke-width="0.486205"/>
<path fill-rule="evenodd" clip-rule="evenodd" d="M228.356 229.801C230.021 228.005 230.468 219.746 228.64 218.052C228.041 217.497 227.481 217.974 226.692 218.825C225.904 219.676 222.591 227.739 225.302 230.251C226.437 231.303 227.419 230.812 228.356 229.801Z" fill="#FDF603" stroke="black" stroke-width="0.486205"/>
<path fill-rule="evenodd" clip-rule="evenodd" d="M233.078 224.876C234.63 222.982 234.572 214.712 232.644 213.132C232.013 212.614 231.483 213.125 230.748 214.022C230.013 214.92 227.198 223.17 230.056 225.512C231.253 226.493 232.204 225.943 233.078 224.876Z" fill="#FDF603" stroke="black" stroke-width="0.486205"/>
<path fill-rule="evenodd" clip-rule="evenodd" d="M237.484 219.672C238.918 217.686 238.356 209.435 236.335 207.976C235.673 207.498 235.176 208.04 234.497 208.98C233.817 209.921 231.511 218.327 234.507 220.491C235.761 221.397 236.676 220.79 237.484 219.672Z" fill="#FDF603" stroke="black" stroke-width="0.486205"/>
<path fill-rule="evenodd" clip-rule="evenodd" d="M241.567 214.209C242.878 212.14 241.814 203.938 239.708 202.605C239.018 202.168 238.555 202.739 237.934 203.72C237.314 204.7 235.524 213.231 238.646 215.208C239.953 216.036 240.83 215.374 241.567 214.209Z" fill="#FDF603" stroke="black" stroke-width="0.486205"/>
<path fill-rule="evenodd" clip-rule="evenodd" d="M245.313 208.508C246.495 206.362 244.933 198.241 242.75 197.038C242.035 196.644 241.607 197.243 241.047 198.259C240.487 199.275 239.221 207.9 242.458 209.683C243.813 210.429 244.648 209.715 245.313 208.508Z" fill="#FDF603" stroke="black" stroke-width="0.486205"/>
<path fill-rule="evenodd" clip-rule="evenodd" d="M248.701 202.589C249.75 200.375 247.696 192.364 245.444 191.297C244.706 190.947 244.315 191.571 243.818 192.619C243.322 193.668 242.583 202.353 245.923 203.936C247.321 204.598 248.111 203.835 248.701 202.589Z" fill="#FDF603" stroke="black" stroke-width="0.486205"/>
<path fill-rule="evenodd" clip-rule="evenodd" d="M251.725 196.473C252.637 194.199 250.099 186.328 247.785 185.4C247.028 185.096 246.676 185.743 246.244 186.819C245.812 187.896 245.604 196.611 249.035 197.986C250.47 198.562 251.212 197.752 251.725 196.473Z" fill="#FDF603" stroke="black" stroke-width="0.486205"/>
<path fill-rule="evenodd" clip-rule="evenodd" d="M254.372 190.186C255.143 187.861 252.13 180.16 249.764 179.374C248.989 179.117 248.677 179.784 248.312 180.885C247.946 181.986 248.27 190.697 251.778 191.861C253.246 192.348 253.937 191.494 254.372 190.186Z" fill="#FDF603" stroke="black" stroke-width="0.486205"/>
<path fill-rule="evenodd" clip-rule="evenodd" d="M256.627 183.748C257.255 181.381 253.778 173.877 251.369 173.238C250.58 173.028 250.309 173.712 250.012 174.834C249.714 175.955 250.568 184.63 254.141 185.578C255.636 185.975 256.273 185.081 256.627 183.748Z" fill="#FDF603" stroke="black" stroke-width="0.486205"/>
<path fill-rule="evenodd" clip-rule="evenodd" d="M258.483 177.186C258.966 174.784 255.038 167.506 252.594 167.015C251.794 166.854 251.565 167.553 251.337 168.691C251.108 169.829 252.49 178.435 256.113 179.164C257.63 179.469 258.211 178.537 258.483 177.186Z" fill="#FDF603" stroke="black" stroke-width="0.486205"/>
<path fill-rule="evenodd" clip-rule="evenodd" d="M259.938 170.522C260.273 168.096 255.909 161.071 253.44 160.729C252.631 160.617 252.446 161.329 252.287 162.479C252.128 163.628 254.031 172.134 257.692 172.641C259.225 172.853 259.749 171.887 259.938 170.522Z" fill="#FDF603" stroke="black" stroke-width="0.486205"/>
<path fill-rule="evenodd" clip-rule="evenodd" d="M260.989 163.781C261.176 161.339 256.391 154.593 253.906 154.403C253.092 154.341 252.95 155.063 252.862 156.22C252.773 157.377 255.192 165.751 258.877 166.033C260.419 166.151 260.884 165.156 260.989 163.781Z" fill="#FDF603" stroke="black" stroke-width="0.486205"/>
<path fill-rule="evenodd" clip-rule="evenodd" d="M261.62 156.99C261.658 154.541 256.471 148.099 253.979 148.061C253.162 148.048 253.065 148.777 253.047 149.937C253.029 151.098 255.954 159.309 259.649 159.366C261.196 159.39 261.599 158.368 261.62 156.99Z" fill="#FDF603" stroke="black" stroke-width="0.486205"/>
<path fill-rule="evenodd" clip-rule="evenodd" d="M261.838 150.173C261.726 147.726 256.156 141.613 253.666 141.726C252.85 141.763 252.798 142.497 252.851 143.656C252.903 144.815 256.323 152.833 260.015 152.665C261.561 152.594 261.9 151.55 261.838 150.173Z" fill="#FDF603" stroke="black" stroke-width="0.486205"/>
<path fill-rule="evenodd" clip-rule="evenodd" d="M261.64 143.355C261.38 140.919 255.448 135.157 252.969 135.422C252.157 135.509 252.149 136.244 252.273 137.398C252.396 138.552 256.299 146.346 259.973 145.953C261.512 145.789 261.787 144.725 261.64 143.355Z" fill="#FDF603" stroke="black" stroke-width="0.486205"/>
<path fill-rule="evenodd" clip-rule="evenodd" d="M261.029 136.56C260.62 134.145 254.348 128.755 251.89 129.171C251.085 129.307 251.122 130.042 251.316 131.186C251.509 132.33 255.879 139.872 259.523 139.256C261.049 138.998 261.259 137.92 261.029 136.56Z" fill="#FDF603" stroke="black" stroke-width="0.486205"/>
<path fill-rule="evenodd" clip-rule="evenodd" d="M260.004 129.817C259.449 127.431 252.859 122.433 250.432 122.998C249.636 123.183 249.718 123.914 249.981 125.044C250.244 126.175 255.066 133.436 258.665 132.599C260.172 132.248 260.316 131.159 260.004 129.817Z" fill="#FDF603" stroke="black" stroke-width="0.486205"/>
<path fill-rule="evenodd" clip-rule="evenodd" d="M258.565 123.149C257.866 120.802 250.984 116.215 248.595 116.927C247.813 117.16 247.939 117.885 248.27 118.997C248.602 120.109 253.857 127.063 257.399 126.007C258.882 125.566 258.959 124.47 258.565 123.149Z" fill="#FDF603" stroke="black" stroke-width="0.486205"/>
<path fill-rule="evenodd" clip-rule="evenodd" d="M256.73 116.58C255.889 114.28 248.74 110.122 246.399 110.978C245.633 111.258 245.803 111.974 246.201 113.063C246.6 114.153 252.269 120.774 255.74 119.505C257.193 118.973 257.204 117.875 256.73 116.58Z" fill="#FDF603" stroke="black" stroke-width="0.486205"/>
<path fill-rule="evenodd" clip-rule="evenodd" d="M254.492 110.136C253.513 107.891 246.124 104.176 243.839 105.173C243.091 105.5 243.304 106.204 243.769 107.267C244.233 108.331 250.295 114.594 253.683 113.115C255.101 112.496 255.044 111.399 254.492 110.136Z" fill="#FDF603" stroke="black" stroke-width="0.486205"/>
<path fill-rule="evenodd" clip-rule="evenodd" d="M251.87 103.84C250.755 101.659 243.153 98.4015 240.934 99.536C240.207 99.9076 240.463 100.597 240.991 101.63C241.519 102.664 247.952 108.545 251.243 106.863C252.621 106.159 252.497 105.068 251.87 103.84Z" fill="#FDF603" stroke="black" stroke-width="0.486205"/>
<path fill-rule="evenodd" clip-rule="evenodd" d="M248.864 97.7162C247.618 95.6073 239.832 92.8191 237.686 94.0869C236.983 94.5021 237.281 95.1749 237.871 96.1739C238.461 97.173 245.241 102.651 248.423 100.772C249.755 99.9849 249.565 98.9032 248.864 97.7162Z" fill="#FDF603" stroke="black" stroke-width="0.486205"/>
<path fill-rule="evenodd" clip-rule="evenodd" d="M245.495 91.7865C244.123 89.7575 236.181 87.4492 234.116 88.8454C233.44 89.3027 233.778 89.9561 234.428 90.9173C235.078 91.8785 242.179 96.9335 245.241 94.8633C246.522 93.9968 246.267 92.9286 245.495 91.7865Z" fill="#FDF603" stroke="black" stroke-width="0.486205"/>
<path fill-rule="evenodd" clip-rule="evenodd" d="M241.768 86.0731C240.275 84.1315 232.207 82.3117 230.232 83.8311C229.584 84.3288 229.961 84.9604 230.669 85.8802C231.376 86.8 238.772 91.4127 241.702 89.1597C242.928 88.2166 242.608 87.166 241.768 86.0731Z" fill="#FDF603" stroke="black" stroke-width="0.486205"/>
<path fill-rule="evenodd" clip-rule="evenodd" d="M237.699 80.5976C236.091 78.7506 227.927 77.4259 226.047 79.063C225.432 79.5993 225.847 80.2067 226.609 81.0816C227.371 81.9566 235.035 86.1098 237.822 83.6824C238.988 82.6663 238.605 81.6372 237.699 80.5976Z" fill="#FDF603" stroke="black" stroke-width="0.486205"/>
<path fill-rule="evenodd" clip-rule="evenodd" d="M233.307 75.38C231.589 73.6346 223.36 72.81 221.584 74.5587C221.002 75.1314 221.453 75.7124 222.267 76.5393C223.081 77.3662 230.984 81.0445 233.617 78.4517C234.72 77.3664 234.274 76.3625 233.307 75.38Z" fill="#FDF603" stroke="black" stroke-width="0.486205"/>
<path fill-rule="evenodd" clip-rule="evenodd" d="M228.6 70.4409C226.778 68.8034 218.514 68.482 216.848 70.3357C216.302 70.9428 216.788 71.4952 217.651 72.2709C218.514 73.0467 226.626 76.2364 229.096 73.4879C230.131 72.3374 229.625 71.3625 228.6 70.4409Z" fill="#FDF603" stroke="black" stroke-width="0.486205"/>
<path fill-rule="evenodd" clip-rule="evenodd" d="M223.604 65.7977C221.686 64.2743 213.418 64.4574 211.867 66.4091C211.36 67.0485 211.878 67.5702 212.787 68.2919C213.695 69.0136 221.987 71.7028 224.285 68.8088C225.248 67.5974 224.683 66.6552 223.604 65.7977Z" fill="#FDF603" stroke="black" stroke-width="0.486205"/>
<path fill-rule="evenodd" clip-rule="evenodd" d="M218.339 61.467C216.332 60.0633 208.09 60.7501 206.662 62.7927C206.194 63.4618 206.744 63.951 207.694 64.6159C208.645 65.2809 217.085 67.4597 219.203 64.4309C220.09 63.1631 219.469 62.257 218.339 61.467Z" fill="#FDF603" stroke="black" stroke-width="0.486205"/>
<path fill-rule="evenodd" clip-rule="evenodd" d="M212.814 57.4651C210.725 56.1864 202.541 57.3743 201.24 59.5003C200.813 60.1967 201.392 60.6514 202.381 61.2571C203.371 61.8629 211.928 63.5231 213.857 60.3709C214.665 59.0513 213.99 58.1848 212.814 57.4651Z" fill="#FDF603" stroke="black" stroke-width="0.486205"/>
<path fill-rule="evenodd" clip-rule="evenodd" d="M207.053 53.8091C204.89 52.6602 196.793 54.3448 195.624 56.5461C195.241 57.2672 195.846 57.6858 196.87 58.2301C197.895 58.7744 206.537 59.9099 208.271 56.6459C208.997 55.2796 208.271 54.4558 207.053 53.8091Z" fill="#FDF603" stroke="black" stroke-width="0.486205"/>
<path fill-rule="evenodd" clip-rule="evenodd" d="M201.087 50.5093C198.858 49.4944 190.879 51.6694 189.846 53.9379C189.507 54.681 190.137 55.062 191.193 55.5428C192.249 56.0236 200.944 56.6301 202.476 53.2665C203.117 51.8585 202.342 51.0805 201.087 50.5093Z" fill="#FDF603" stroke="black" stroke-width="0.486205"/>
<path fill-rule="evenodd" clip-rule="evenodd" d="M194.925 47.5807C192.638 46.7035 184.806 49.361 183.914 51.6882C183.621 52.4506 184.273 52.7925 185.356 53.208C186.439 53.6235 195.156 53.6988 196.479 50.2481C197.033 48.8036 196.212 48.0744 194.925 47.5807Z" fill="#FDF603" stroke="black" stroke-width="0.486205"/>
<path fill-rule="evenodd" clip-rule="evenodd" d="M188.595 45.0314C186.259 44.2953 178.604 47.4252 177.855 49.8025C177.61 50.5813 178.281 50.8828 179.387 51.2315C180.494 51.5803 189.199 51.1241 190.31 47.5991C190.775 46.1235 189.91 45.4457 188.595 45.0314Z" fill="#FDF603" stroke="black" stroke-width="0.486205"/>
<path fill-rule="evenodd" clip-rule="evenodd" d="M182.123 42.8735C179.747 42.2812 172.297 45.872 171.694 48.2905C171.496 49.0828 172.184 49.3429 173.31 49.6235C174.436 49.9041 183.097 48.9181 183.991 45.332C184.365 43.8308 183.461 43.2069 182.123 42.8735Z" fill="#FDF603" stroke="black" stroke-width="0.486205"/>
<path fill-rule="evenodd" clip-rule="evenodd" d="M175.537 41.1152C173.129 40.6688 165.911 44.7071 165.457 47.1579C165.308 47.9607 166.011 48.1784 167.152 48.3898C168.293 48.6013 176.877 47.0891 177.551 43.4552C177.833 41.934 176.893 41.3664 175.537 41.1152Z" fill="#FDF603" stroke="black" stroke-width="0.486205"/>
<path fill-rule="evenodd" clip-rule="evenodd" d="M168.85 39.7613C166.419 39.4626 159.462 43.9333 159.158 46.4073C159.058 47.2177 159.773 47.3921 160.924 47.5336C162.076 47.6751 170.552 45.6425 171.003 41.9742C171.192 40.4387 170.219 39.9294 168.85 39.7613Z" fill="#FDF603" stroke="black" stroke-width="0.486205"/>
<path fill-rule="evenodd" clip-rule="evenodd" d="M161.852 38.8112C160.811 38.872 159.194 39.6625 157.613 40.7256C157.264 42.4777 155.19 44.0477 153.07 45.1775C152.921 45.4848 152.843 45.7809 152.827 46.0435C152.777 46.8585 153.507 46.9905 154.665 47.0615C155.823 47.1326 164.148 44.5817 164.374 40.8928C164.469 39.3486 163.471 38.8956 162.095 38.8112C162.019 38.8065 161.936 38.8063 161.852 38.8112Z" fill="#FDF603" stroke="black" stroke-width="0.486205"/>
<path d="M121.436 65L124.165 73.4291L133.025 73.4195L125.851 78.6195L128.598 87.0426L121.436 81.8273L114.274 87.0426L117.021 78.6195L109.848 73.4195L118.707 73.4291L121.436 65Z" fill="white"/>
<path d="M80.8658 107.631L83.5946 116.06L92.4543 116.05L85.2811 121.25L88.0279 129.673L80.8658 124.458L73.7038 129.673L76.4506 121.25L69.2773 116.05L78.1371 116.06L80.8658 107.631Z" fill="white"/>
<path d="M178.779 65L176.05 73.4291L167.19 73.4195L174.363 78.6195L171.617 87.0426L178.779 81.8273L185.941 87.0426L183.194 78.6195L190.367 73.4195L181.507 73.4291L178.779 65Z" fill="white"/>
<path d="M221.751 107.631L219.023 116.06L210.163 116.05L217.336 121.25L214.589 129.673L221.751 124.458L228.913 129.673L226.167 121.25L233.34 116.05L224.48 116.06L221.751 107.631Z" fill="white"/>
<path fill-rule="evenodd" clip-rule="evenodd" d="M127.758 213.815C127.758 208.444 127.637 197.648 127.637 197.648L119.371 199.715V217.583C119.371 217.583 125.084 216.124 127.758 213.815Z" fill="white" stroke="#08298C" stroke-width="0.600533"/>
<path fill-rule="evenodd" clip-rule="evenodd" d="M127.754 213.814L127.633 197.648C120.816 197.648 99.4327 171.271 99.4327 171.271L90.3164 188.896C90.3164 188.896 109.39 213.814 127.754 213.814Z" fill="white" stroke="#08298C" stroke-width="0.600533"/>
<path fill-rule="evenodd" clip-rule="evenodd" d="M64.4654 222.056C66.1299 223.853 74.3302 224.927 76.1587 223.233C76.7577 222.678 76.3243 222.084 75.5358 221.233C74.7473 220.381 66.96 216.465 64.2487 218.976C63.1137 220.028 63.5285 221.045 64.4654 222.056Z" fill="#FDF603" stroke="black" stroke-width="0.486205"/>
<path fill-rule="evenodd" clip-rule="evenodd" d="M69.0184 227.136C70.7894 228.828 79.0398 229.4 80.7617 227.598C81.3258 227.008 80.8569 226.441 80.018 225.639C79.1791 224.838 71.1675 221.403 68.6144 224.075C67.5456 225.194 68.0216 226.184 69.0184 227.136Z" fill="#FDF603" stroke="black" stroke-width="0.486205"/>
<path fill-rule="evenodd" clip-rule="evenodd" d="M191.329 183.669L191.086 165.315C199.847 163.613 231.198 164.221 231.198 164.221C228.383 167.353 225.469 170.286 222.957 174.025C225.04 177.873 227.334 180.872 229.739 183.426C229.739 183.426 199.605 183.669 191.329 183.669Z" fill="white" stroke="#08298C" stroke-width="0.600533"/>
<path fill-rule="evenodd" clip-rule="evenodd" d="M191.329 183.67L191.086 165.315C196.809 169.934 201.053 171.271 201.053 171.271L210.169 188.896C210.169 188.896 199.605 183.67 191.329 183.67Z" fill="white" stroke="#08298C" stroke-width="0.600533"/>
<path fill-rule="evenodd" clip-rule="evenodd" d="M172.73 213.815C172.73 208.444 172.852 197.648 172.852 197.648L181.118 199.715V217.583C181.118 217.583 175.405 216.124 172.73 213.815Z" fill="white" stroke="#08298C" stroke-width="0.600533"/>
<path fill-rule="evenodd" clip-rule="evenodd" d="M172.73 213.814L172.852 197.648C179.669 197.648 201.052 171.271 201.052 171.271L210.168 188.896C210.168 188.896 191.095 213.814 172.73 213.814Z" fill="white" stroke="#08298C" stroke-width="0.600533"/>
<path d="M94.457 187.278L101.49 181.718L103.001 183.63C103.574 184.354 103.841 184.735 103.953 185.007C104.128 185.423 104.074 185.82 103.928 186.337C103.783 186.853 103.443 187.347 102.909 187.819C102.496 188.184 102.094 188.427 101.702 188.55C101.31 188.673 100.944 188.702 100.614 188.642C100.284 188.582 100.006 188.473 99.7812 188.313C99.4821 188.091 99.0924 187.688 98.666 187.149L98.0518 186.372L95.399 188.47L94.457 187.278ZM101.242 183.85L99.2463 185.428L99.7619 186.08C100.133 186.549 100.41 186.822 100.611 186.916C100.813 187.01 101.027 187.037 101.254 186.996C101.481 186.954 101.695 186.849 101.898 186.678C102.147 186.468 102.301 186.233 102.36 185.973C102.419 185.714 102.389 185.473 102.271 185.25C102.185 185.085 102.036 184.855 101.697 184.425L101.242 183.85ZM99.0888 192.871L105.808 186.936L109.434 190.656L108.387 191.753L105.652 188.998L104.196 190.352L106.81 192.996L105.767 194.088L103.09 191.381L101.304 193.043L104.39 196.148L103.347 197.24L99.0888 192.871ZM110.109 202.863L108.617 201.75L109.323 199.73L106.858 197.687L105.04 198.794L103.733 197.609L111.867 192.861L113.105 193.883L110.109 202.863ZM109.822 198.199L111.141 194.973L108.239 196.892L109.822 198.199ZM116.825 203.199L117.959 204.411C117.334 205.197 116.591 205.629 115.906 205.81C115.222 205.991 114.292 205.742 113.598 205.329C112.739 204.819 112.027 203.871 111.957 202.836C111.887 201.802 112.251 200.703 113.049 199.54C113.893 198.31 114.815 197.537 115.816 197.222C116.816 196.907 117.506 196.867 118.412 197.405C119.203 197.875 119.473 198.384 119.686 199.224C119.814 199.721 119.711 200.291 119.556 201.013L118.126 200.752C118.274 200.302 118.29 199.892 118.174 199.519C118.058 199.147 117.903 198.902 117.556 198.696C117.077 198.411 116.638 198.417 116.09 198.634C115.541 198.852 115.02 199.434 114.415 200.315C113.774 201.249 113.52 202.048 113.552 202.638C113.585 203.227 113.905 203.712 114.375 203.991C114.722 204.197 115.174 204.282 115.577 204.156C115.979 204.03 116.395 203.711 116.825 203.199ZM118.102 207.503L121.685 199.284L126.299 200.893L125.911 202.36L122.382 201.223L121.652 203.072L125.13 204.209L124.744 205.669L121.098 204.477L120.203 206.747L124.532 208.137L124.146 209.597L118.102 207.503Z" fill="black"/>
<path d="M176.339 209.597L174.066 201.001L175.054 200.743L177.231 207.796L180.269 206.752L180.823 208.157L176.339 209.597ZM181.733 207.786L178.151 199.567L179.111 199.142L182.968 207.235L181.733 207.786ZM180.013 198.708L181.871 197.703C182.276 197.463 182.492 197.376 182.719 197.303C182.946 197.229 183.187 197.223 183.441 197.284C183.696 197.345 183.958 197.475 184.227 197.674C184.497 197.872 184.649 198.187 184.869 198.506C185.106 198.852 185.308 199.184 185.369 199.561C185.429 199.937 185.397 200.268 185.273 200.554C185.665 200.495 186.052 200.574 186.429 200.78C186.806 200.986 187.142 201.302 187.435 201.729C187.665 202.065 187.838 202.428 187.952 202.817C188.066 203.205 187.977 203.633 187.916 203.944C187.855 204.256 187.704 204.519 187.462 204.734C187.31 204.868 186.697 205.273 186.032 205.652L184.127 206.673L180.013 198.708ZM181.682 199.519L182.689 201.332L183.377 200.949C183.786 200.722 184.004 200.571 184.091 200.496C184.249 200.359 184.334 200.184 184.344 199.972C184.355 199.759 184.245 199.549 184.091 199.304C183.943 199.07 183.838 198.873 183.663 198.776C183.487 198.679 183.304 198.666 183.113 198.737C183 198.78 182.779 198.91 182.285 199.184L181.682 199.519ZM183.413 202.636L184.578 204.732L185.622 204.146C185.994 203.925 186.221 203.769 186.302 203.678C186.431 203.544 186.558 203.327 186.552 203.106C186.545 202.886 186.457 202.642 186.288 202.373C186.144 202.145 185.985 201.975 185.812 201.863C185.639 201.75 185.442 201.714 185.257 201.724C185.073 201.733 184.739 201.9 184.261 202.165L183.413 202.636ZM189.745 203.296L184.672 195.904L187.869 193.479L188.835 194.649L186.402 196.546L187.602 198.13L189.928 196.324L190.889 197.489L188.514 199.335L189.986 201.28L192.703 199.156L193.664 200.321L189.745 203.296ZM194.459 199.665L188.752 192.751L190.396 191.282C190.856 190.842 191.246 190.582 191.566 190.499C191.885 190.417 192.25 190.465 192.659 190.643C193.069 190.821 193.396 191.151 193.774 191.523C194.253 191.995 194.576 192.464 194.689 192.963C194.802 193.461 194.709 193.932 194.41 194.375C194.755 194.361 195.083 194.394 195.394 194.475C195.705 194.555 196.256 194.711 196.954 194.995L198.71 195.705L197.588 196.811L195.613 195.999C194.908 195.708 194.452 195.536 194.245 195.483C194.037 195.431 193.837 195.44 193.697 195.474C193.557 195.509 193.385 195.618 193.179 195.801L192.997 195.963L195.487 198.757L194.459 199.665ZM192.045 194.895L192.708 194.304C193.138 193.92 193.349 193.654 193.402 193.502C193.455 193.35 193.449 193.181 193.384 192.995C193.319 192.809 193.193 192.619 193.008 192.424C192.799 192.206 192.592 192.067 192.387 192.006C192.182 191.946 191.992 191.965 191.817 192.064C191.732 192.117 191.595 192.249 191.231 192.573L190.531 193.197L192.045 194.895ZM200.184 194.182L194.731 189.108L193.561 190.317L192.481 189.253L195.533 185.967L196.67 186.971L195.549 188.229L201.003 193.303L200.184 194.182ZM203.84 190.04L200.954 187.609L195.641 185.845L196.486 184.854L200.069 186.079L198.137 182.803L198.995 181.718L201.721 186.661L204.671 188.994L203.84 190.04Z" fill="black"/>
<path d="M132.294 208.865L134.004 209.241L133.11 214.014C132.968 214.772 132.899 215.267 132.903 215.5C132.915 215.875 133.051 216.2 133.309 216.475C133.568 216.749 133.957 216.935 134.476 217.033C135.004 217.131 135.513 217.09 135.815 216.925C136.116 216.759 136.318 216.53 136.42 216.236C136.522 215.943 136.628 215.445 136.737 214.744L137.501 209.844L139.242 210.071L138.656 214.744C138.521 215.812 138.376 216.56 138.219 216.988C138.062 217.416 137.828 217.765 137.518 218.034C137.207 218.303 136.69 218.487 136.207 218.595C135.725 218.704 135.117 218.701 134.385 218.587C133.5 218.449 132.581 218.163 132.172 217.87C131.763 217.578 131.461 217.249 131.267 216.883C131.072 216.517 130.971 216.155 130.962 215.798C130.951 215.27 131.053 214.516 131.269 213.536L132.294 208.865ZM140.26 219.196L141.119 210.271L142.824 210.417L146.288 216.597L146.527 210.614L148.162 210.654L148.045 219.619L146.029 219.567L142.531 213.523L142.136 219.356L140.26 219.196ZM150.112 219.643L149.989 210.678L151.881 210.652L152.004 219.617L150.112 219.643ZM156.031 219.481L155.718 212.038L152.94 212.155L152.877 210.64L160.035 210.155L160.188 211.664L157.517 211.911L158.046 219.341L156.031 219.481ZM164.865 218.549L164.252 214.825L160.29 210.129L162.351 209.864L164.963 213.041L166.364 209.162L168.343 208.71L166.133 214.513L166.862 218.202L164.865 218.549Z" fill="black"/>
<path d="M137.597 238.68H136.154V229.488C135.807 229.819 135.352 230.151 134.788 230.482C134.224 230.813 133.718 231.062 133.27 231.227V229.833C134.076 229.453 134.781 228.994 135.385 228.454C135.989 227.915 136.416 227.391 136.667 226.884H137.597V238.68ZM141.516 235.963L142.902 235.835C143.019 236.487 143.244 236.96 143.575 237.253C143.906 237.547 144.331 237.694 144.849 237.694C145.293 237.694 145.681 237.593 146.015 237.39C146.349 237.187 146.623 236.915 146.837 236.576C147.05 236.237 147.229 235.779 147.373 235.202C147.518 234.625 147.59 234.037 147.59 233.439C147.59 233.375 147.587 233.279 147.582 233.15C147.293 233.61 146.899 233.983 146.4 234.268C145.9 234.554 145.359 234.697 144.777 234.697C143.805 234.697 142.982 234.344 142.309 233.639C141.636 232.934 141.299 232.004 141.299 230.851C141.299 229.659 141.65 228.7 142.353 227.974C143.055 227.247 143.936 226.884 144.993 226.884C145.757 226.884 146.456 227.089 147.089 227.501C147.722 227.912 148.203 228.499 148.531 229.26C148.86 230.021 149.024 231.123 149.024 232.565C149.024 234.067 148.861 235.262 148.535 236.152C148.21 237.041 147.725 237.718 147.081 238.183C146.437 238.648 145.683 238.88 144.817 238.88C143.898 238.88 143.148 238.625 142.565 238.115C141.983 237.605 141.633 236.887 141.516 235.963ZM147.422 230.778C147.422 229.95 147.201 229.293 146.76 228.807C146.32 228.321 145.789 228.078 145.17 228.078C144.529 228.078 143.97 228.34 143.495 228.863C143.019 229.387 142.782 230.065 142.782 230.899C142.782 231.647 143.007 232.254 143.459 232.722C143.91 233.189 144.467 233.423 145.13 233.423C145.797 233.423 146.346 233.189 146.776 232.722C147.207 232.254 147.422 231.606 147.422 230.778ZM150.531 228.47V227.084H158.136V228.206C157.388 229.002 156.647 230.06 155.912 231.379C155.177 232.699 154.61 234.056 154.209 235.45C153.921 236.433 153.736 237.51 153.656 238.68H152.174C152.19 237.756 152.371 236.639 152.719 235.33C153.066 234.021 153.564 232.759 154.213 231.544C154.862 230.328 155.553 229.304 156.285 228.47H150.531ZM159.787 235.963L161.173 235.835C161.29 236.487 161.515 236.96 161.846 237.253C162.177 237.547 162.602 237.694 163.12 237.694C163.564 237.694 163.952 237.593 164.286 237.39C164.62 237.187 164.894 236.915 165.108 236.576C165.321 236.237 165.5 235.779 165.645 235.202C165.789 234.625 165.861 234.037 165.861 233.439C165.861 233.375 165.858 233.279 165.853 233.15C165.564 233.61 165.17 233.983 164.671 234.268C164.171 234.554 163.63 234.697 163.048 234.697C162.076 234.697 161.253 234.344 160.58 233.639C159.907 232.934 159.57 232.004 159.57 230.851C159.57 229.659 159.921 228.7 160.624 227.974C161.327 227.247 162.207 226.884 163.264 226.884C164.028 226.884 164.727 227.089 165.36 227.501C165.993 227.912 166.474 228.499 166.802 229.26C167.131 230.021 167.295 231.123 167.295 232.565C167.295 234.067 167.132 235.262 166.807 236.152C166.481 237.041 165.996 237.718 165.352 238.183C164.708 238.648 163.954 238.88 163.088 238.88C162.169 238.88 161.419 238.625 160.836 238.115C160.254 237.605 159.904 236.887 159.787 235.963ZM165.693 230.778C165.693 229.95 165.472 229.293 165.031 228.807C164.591 228.321 164.061 228.078 163.441 228.078C162.8 228.078 162.241 228.34 161.766 228.863C161.29 229.387 161.053 230.065 161.053 230.899C161.053 231.647 161.278 232.254 161.73 232.722C162.181 233.189 162.738 233.423 163.401 233.423C164.069 233.423 164.617 233.189 165.048 232.722C165.478 232.254 165.693 231.606 165.693 230.778Z" fill="white"/>
<path fill-rule="evenodd" clip-rule="evenodd" d="M106.606 137.237C105.998 140.762 106.606 144.53 106.606 144.53C106.606 144.53 107.092 142.828 108.065 141.977C109.037 141.126 111.833 139.303 112.076 137.966M109.402 106.484C109.037 109.037 108.551 112.319 109.402 113.656C109.402 111.346 114.507 110.496 115.358 108.186" fill="#85C4A0"/>
<path d="M106.606 137.237C105.998 140.762 106.606 144.53 106.606 144.53C106.606 144.53 107.092 142.828 108.065 141.977C109.037 141.126 111.833 139.303 112.076 137.966M109.402 106.484C109.037 109.037 108.551 112.319 109.402 113.656C109.402 111.346 114.507 110.496 115.358 108.186" stroke="black" stroke-width="0.97241"/>
<path fill-rule="evenodd" clip-rule="evenodd" d="M149.998 164.343C141.611 164.343 126.781 173.459 126.781 190.598C129.222 192.007 129.577 192.299 131.765 192.299C133.953 192.299 136.748 190.476 139.544 190.476C142.34 190.476 145.014 194.609 159.6 194.609C167.136 194.609 173.943 191.084 173.943 191.084C170.54 175.647 161.91 164.1 149.998 164.343Z" fill="#4D4A43" stroke="black" stroke-width="0.486205"/>
<path fill-rule="evenodd" clip-rule="evenodd" d="M148.3 75.124C148.664 80.1076 146.963 83.0249 146.963 99.4343C146.963 115.844 148.907 124.717 148.421 129.214C145.018 126.783 140.156 109.158 136.995 101.987C133.835 94.8153 131.526 90.0748 124.476 90.0748C119.857 90.0748 118.884 95.6662 116.21 97.3679C113.536 99.0696 98.0989 102.473 95.6679 104.904C93.2369 107.335 91.5352 111.346 91.5352 111.346C95.0601 110.131 96.2757 110.131 98.9498 110.131C101.624 110.131 103.447 107.821 110.254 107.821C112.442 107.821 115.724 110.86 120.464 112.319C125.205 113.777 125.691 113.413 128.608 114.75C131.526 116.087 146.719 128.12 146.719 134.076C146.719 135.778 146.476 136.872 144.775 136.872C143.073 136.872 128.851 123.137 125.326 123.137C121.801 123.137 120.464 124.109 118.884 124.595C117.304 125.082 116.453 124.352 114.751 125.325C113.05 126.297 110.983 128.242 108.309 129.093C105.635 129.944 103.326 131.524 100.044 133.712C96.7619 135.9 97.005 142.22 97.005 142.22C100.408 138.331 101.502 137.966 103.569 137.966C105.635 137.966 108.431 140.154 112.32 140.154C116.21 140.154 129.459 136.872 136.266 136.872C143.194 136.872 147.935 141.369 147.935 154.254C147.935 160.939 146.719 173.216 146.719 173.216C150.366 172.487 153.648 170.542 153.648 168.597C153.648 166.652 151.46 163.249 151.46 161.061C151.46 158.873 152.311 157.9 152.311 155.712C152.311 153.525 151.095 145.502 151.095 145.502C150.974 138.938 151.703 136.143 153.526 136.143C155.35 136.143 163.007 140.519 170.422 140.519C177.837 140.519 197.042 143.8 200.324 145.381C201.296 140.519 196.799 133.347 196.799 133.347C201.296 132.375 207.617 134.319 207.617 134.319C209.805 129.944 200.931 121.192 188.411 121.192C175.892 121.192 160.698 132.618 155.35 132.618C152.311 132.618 151.825 131.645 151.825 129.579C151.825 127.513 156.93 124.109 163.98 121.192C171.03 118.275 183.671 114.993 190.478 114.993C197.285 114.993 207.495 119.612 207.495 119.612C206.887 111.589 201.904 105.026 190.356 105.755C190.843 101.136 200.08 103.567 203.241 105.39C201.417 95.18 192.544 93.7214 187.439 93.7214C182.334 93.7214 173.339 94.5722 165.925 106.484C158.51 118.396 157.659 123.988 154.499 123.988C151.338 123.988 151.946 122.407 151.946 119.369C151.946 116.33 152.554 113.656 152.554 112.197C152.554 110.739 151.699 110.311 151.699 109.005C151.699 107.7 152.919 105.633 152.919 100.893C152.919 96.1524 151.46 89.9533 151.46 84.1188C151.46 78.2844 150.488 76.4611 148.3 75.124Z" fill="#85C4A0" stroke="black" stroke-width="0.97241"/>
<path d="M153.031 134.291C163.861 133.002 162.4 132.314 168.158 132.314C173.917 132.314 193.256 133.259 195.662 133.431M141.772 122.688C139.709 117.874 123.207 98.6217 119.597 96.387M121.745 95.0118C123.121 96.387 129.352 101.802 130.083 107.002M132.532 109.881C132.833 106.615 129.954 96.9457 126 94.5391M129.008 94.582C133.778 98.7936 136.572 109.924 135.068 113.061M115.557 99.4812C117.792 100.77 120.456 101.716 121.573 101.716M109.97 101.974C115.901 101.974 124.668 103.435 126.816 105.326M99.3125 104.896C103.352 103.521 110.056 104.724 115.041 105.841C120.026 106.959 127.332 109.193 130.168 109.193M102.063 106.529C106.876 104.036 128.621 112.46 133.005 114.78M138.935 135.322C134.552 132.056 129.997 132.4 128.793 131.197C127.59 129.993 123.808 130.079 120.628 130.079C117.448 130.079 114.612 130.853 112.463 130.853C110.314 130.853 106.618 129.993 106.618 129.993M99.2266 137.385C101.289 134.721 103.61 133.259 105.587 132.658M103.008 136.354C106.532 133.517 112.205 132.142 114.354 132.142M110.658 138.416C113.236 135.408 113.322 135.666 115.643 134.892C117.964 134.119 122.605 132.228 123.894 131.884M123.894 136.697C126.645 134.721 132.145 133.947 133.864 133.775M160.938 120.969C166.697 115.038 176.409 105.67 189.732 106.013M192.74 95.6134C188.013 98.9655 184.059 102.146 184.059 105.24M180.449 106.185C180.879 102.403 182.512 96.8167 183.887 95.6134M180.363 95.9572C177.871 98.6217 177.355 104.81 177.527 106.185M173.229 109.967C173.315 105.584 174.003 100.77 175.034 99.6531M171.51 102.661C169.963 104.552 169.447 109.881 169.447 111.686M166.525 114.608C166.439 111.084 166.439 108.42 167.213 107.389M163.259 117.788C163.517 115.124 163.603 112.975 164.205 112.288M167.299 116.327C170.049 115.468 178.386 115.812 182.512 115.898M169.018 114.436C174.003 111.514 189.646 111.084 194.631 114.608M177.355 110.139C182.77 107.474 196.694 110.569 200.303 114.179C201.077 114.952 203.913 114.694 205.718 116.155M191.107 107.646C194.201 107.646 200.819 111.342 202.71 112.03M168.674 131.454C170.393 129.134 172.284 127.931 173.745 126.899M173.745 130.853C176.323 128.274 179.504 125.438 180.277 124.149M179.332 132.314C179.504 128.618 186.122 123.719 191.623 122.774M186.036 132.486C189.732 127.759 194.545 125.094 198.584 125.008M192.224 132.83C197.209 129.134 203.827 131.111 206.062 131.111M156.899 135.236C161.368 137.643 161.798 137.729 161.798 137.729M161.54 134.463C164.462 137.471 169.963 139.62 171.338 139.534M167.728 133.002C170.651 136.01 175.98 139.706 178.558 139.706M175.636 133.603C177.785 137.041 183.543 140.393 185.004 141.167M182.254 134.291C184.231 136.869 191.193 140.909 192.826 142.628M188.958 134.892C192.31 137.471 198.584 142.714 200.475 145.12" stroke="black" stroke-width="0.97241" stroke-linecap="round"/>
</svg>
