<svg width="300" height="300" viewBox="0 0 300 300" fill="none" xmlns="http://www.w3.org/2000/svg">
<path d="M119.54 3.00835C117.949 2.93644 116.377 3.36643 115.045 4.23748C116.622 4.70308 117.698 6.15874 117.682 7.80312V12.1478H113.338C111.703 12.1647 110.252 11.1039 109.772 9.54089C108.133 12.3134 108.133 15.7575 109.772 18.5299C110.237 16.9526 111.693 15.8758 113.338 15.8926H117.682V36.7766C117.695 38.3496 116.708 39.7574 115.225 40.282C117.297 40.5641 119.081 43.3454 119.569 44.8666C120.059 43.349 121.843 40.5641 123.915 40.282C122.417 39.7709 121.415 38.3588 121.427 36.7766V15.8914H125.772C127.407 15.8743 128.859 16.9358 129.338 18.4995C130.976 15.7266 130.976 12.2827 129.338 9.50983C128.872 11.0867 127.416 12.1629 125.772 12.146H121.427V7.80192C121.409 6.16664 122.471 4.71512 124.034 4.23569C122.702 3.36552 121.13 2.93598 119.54 3.00772V3.00835Z" fill="black"/>
<path d="M119.539 3.90975C118.664 3.91343 117.794 4.05485 116.963 4.32883C117.983 5.19634 118.574 6.46575 118.581 7.80491V12.1496C118.577 12.2106 118.567 12.271 118.55 12.3299V13.0188H117.861C117.802 13.0348 117.742 13.045 117.681 13.0492H113.336C112.013 13.0405 110.757 12.4618 109.891 11.4613C109.601 12.29 109.449 13.1606 109.441 14.0384C109.445 14.9139 109.587 15.7833 109.86 16.6149C110.728 15.595 111.997 15.0044 113.336 14.9977H118.58C118.574 15.0878 118.549 15.175 118.549 15.2663V15.7158C118.565 15.7746 118.576 15.8348 118.58 15.8955V36.7796C118.536 38.0507 117.947 39.2412 116.961 40.0456C117.608 40.449 118.185 40.9553 118.669 41.5445C119.022 42.0312 119.323 42.5531 119.568 43.102C119.814 42.5534 120.115 42.0315 120.467 41.5445C120.945 40.969 121.512 40.4733 122.145 40.076C121.155 39.263 120.565 38.0611 120.527 36.7802V15.0258H121.246C121.305 15.0101 121.365 15.0002 121.426 14.9965H125.771C127.094 15.0055 128.349 15.5839 129.216 16.5838C129.506 15.7553 129.658 14.885 129.666 14.0074C129.662 13.1318 129.52 12.2624 129.246 11.4309C128.379 12.4507 127.11 13.0413 125.771 13.0481H121.426C121.365 13.0441 121.305 13.0339 121.246 13.0176H120.557V12.3287C120.541 12.2698 120.531 12.2094 120.526 12.1484V7.80435C120.536 6.48089 121.114 5.22546 122.114 4.35869C121.286 4.06959 120.416 3.91775 119.538 3.90918" fill="#F5D402"/>
<path d="M173.925 79.5339C171.387 77.8121 169.217 75.6014 167.543 73.0313C163.814 67.0477 162.24 59.7022 162.24 52.2373C162.24 49.082 165.775 45.5298 165.775 42.9779C165.799 40.9149 165.678 38.8527 165.416 36.8064C166.67 36.9773 168.861 39.2032 168.861 39.2032C168.861 39.2032 168.786 32.8012 166.763 31.6827C166.763 31.6827 167.581 30.8411 170.539 30.7538C169.708 28.6491 165.595 26.0796 165.595 26.0796C165.86 25.6674 166.233 25.3357 166.673 25.1209C167.811 24.5634 169.021 24.1698 170.268 23.9521C168.901 23.6559 167.551 23.2856 166.224 22.8429C162.396 21.5636 158.653 20.0426 155.018 18.2893C150.369 15.9579 145.236 14.7568 140.036 14.7836C137.944 14.7839 134.862 14.8413 133.055 16.0429C131.402 17.1404 131.537 18.5679 130.958 19.0689C129.594 20.2489 127.258 20.2073 126.133 20.2073C118.852 20.2073 118.582 27.9982 118.582 27.9982C118.582 27.9982 120.444 25.1812 123.736 25.1812C129.209 25.1812 133.354 28.1627 133.354 29.2859C133.354 29.7407 132.79 29.825 132.755 29.825C129.18 29.825 123.785 27.767 120.919 27.6675V29.0758C127.316 31.3017 133.803 34.453 133.803 48.3421C133.803 57.0882 132.756 66.0123 128.38 73.0318C126.693 75.6017 124.514 77.8118 121.968 79.5345L147.947 84.2166L173.925 79.5339Z" fill="black"/>
<path d="M147.946 73.6825L121.968 79.5358C120.786 79.1787 115.229 77.4521 111.331 75.2812C104.467 71.458 100.909 67.6542 92.7532 67.2808V61.0778C92.7532 57.7638 93.9525 54.7782 93.9525 51.6094C90.5144 50.6875 80.9716 39.0196 72.1687 33.8408C59.2159 42.2305 49.1867 56.0032 49.1867 62.3367C49.1867 62.3367 49.5759 198.425 49.1867 245.834C49.1867 248.566 47.5391 252.426 47.5391 252.426C52.2677 250.426 60.9355 238.566 62.7605 234.058V236.216C69.9017 232.96 75.1309 224.403 77.4727 219.976C77.5142 220.616 77.6231 222.223 77.6231 222.223C84.0029 216.63 92.1246 183.57 92.1246 183.57L105.659 196.872C105.659 196.872 100.764 206.808 98.8574 208.587C99.7624 208.691 100.673 208.741 101.584 208.737C100.693 210.017 93.8888 219.813 91.7559 223.508C89.76 226.965 88.3518 225.426 85.2836 225.426C82.7393 225.426 76.9723 229.48 76.0253 231.12C75.0008 232.797 74.4042 234.701 74.2881 236.663C74.2881 238.559 76.2957 241.158 76.2957 241.158C76.3696 240.698 76.5779 240.27 76.8944 239.929C76.8944 239.929 82.1698 246.501 82.9471 247.359C83.5523 248.028 86.2511 248.463 87.2022 247.6C89.5821 245.436 91.8859 243.923 94.0041 240.798C95.0945 239.188 95.1776 237.343 96.4307 235.614C100.623 229.831 108.965 218.758 110.873 216.228C111.001 216.932 111.11 217.519 111.231 218.236C113.393 213.871 123.787 205.531 123.787 205.531L134.66 210.535C134.66 210.535 114.358 257.204 96.337 264.38C96.337 264.38 104.177 267.711 113.805 272.71C115.21 273.439 116.656 274.222 118.12 275.018C119.332 273.558 120.608 271.936 121.866 270.253C127.623 262.55 133.253 253.623 133.253 253.623C133.645 255.942 130.605 263.102 125.462 271.932C124.451 273.667 123.396 275.481 122.226 277.324C123.531 278.07 124.826 278.822 126.121 279.602C135.659 285.341 144.616 291.939 147.934 298L150.275 292.141L147.934 286.283V81.4533L149.105 78.5268L147.946 73.6825Z" fill="black"/>
<path d="M147.935 286.283C144.57 282.633 137.535 278.174 129.628 274.058C139.188 256.9 143.926 229.778 141.703 224.378C141.703 224.378 137.778 238.445 132.983 246.461C128.543 253.885 123.076 262.235 117.792 268.425C113.82 266.709 109.759 265.208 105.626 263.93C121.463 251.73 137.658 211.404 137.658 211.404L120.911 203.643C120.911 203.643 114.646 210.947 112.611 212.303C112.611 212.303 111.742 208.67 111.233 207.389C111.233 207.389 108.833 209.204 107.519 209.248C107.519 209.248 107.126 206.782 106.829 205.172C105.176 206.274 102.425 206.041 102.425 206.041C104.84 204.897 107.698 197.89 107.698 197.89L91.7065 176.619C91.7065 176.619 86.0894 203.611 79.6914 209.159V92.9303L84.7554 97.6338L92.4259 90.4727V85.0194L85.6241 91.3711V74.9212C86.6489 73.3708 87.3285 72.2136 87.8412 71.2959C88.9421 73.2151 92.5002 79.0974 96.6799 82.7122C97.3676 79.9156 101.894 77.2584 101.894 77.2584C101.894 77.2584 103.516 81.6528 105.998 82.7415C106.871 81.2033 112.082 77.798 112.082 77.798C112.082 77.798 107.624 78.4752 105.819 80.1655C104.268 79.8185 103.871 73.6933 103.871 73.6933C103.871 73.6933 97.3115 76.8884 96.1707 79.1764C94.9199 78.8381 92.9726 73.9157 92.2146 71.8953C93.8364 71.7145 95.4671 71.6246 97.099 71.626C98.9696 71.626 101.363 72.5122 103.87 73.6933C106.625 74.9903 109.507 76.6327 112.081 77.7986C115.377 79.2911 120.365 79.5943 121.819 79.6564C120.073 80.8685 118.241 81.9501 116.336 82.8925C116.336 82.8925 124.186 82.8199 129.7 80.0754C131.704 78.866 133.626 77.5247 135.453 76.0603C134.613 78.5088 133.333 80.7833 131.676 82.7719C139.775 82.0866 143.807 77.4621 144.95 75.9105C145.679 77.8919 146.688 79.7586 147.947 81.4533H150.873V280.455L147.935 286.283Z" fill="#B07F55"/>
<path d="M88.2626 52.2076L88.4118 55.9231V66.8606C85.4742 65.8498 81.7827 61.0234 79.9928 58.4709V56.9725C80.0323 55.8167 80.5538 54.7302 81.4309 53.9764L79.6633 53.3478C78.7944 54.2652 78.2932 55.4701 78.255 56.7331V57.6023L72.982 63.2657L67.7986 55.4151V53.4976C67.7986 52.2053 68.7924 50.7643 69.6265 49.7821L67.8881 49.1529C67.0108 50.2896 66.0901 51.8213 66.0901 53.2576V54.8151C64.8709 56.077 60.1276 60.9584 60.1276 60.9584C60.1276 60.9584 57.7477 55.8446 57.1016 54.4563C60.7334 49.4257 66.6221 43.7928 72.1724 39.751C72.1724 39.751 84.2088 50.8017 88.2626 52.2076Z" fill="#B07F55"/>
<path d="M57.7574 62.8152V71.8353L53.5625 75.7299V62.3365C53.6822 60.7367 54.1746 59.187 55.0003 57.8115L57.7574 62.8152Z" fill="#B07F55"/>
<path d="M70.8196 66.2905V71.8637L65.9961 76.3886V58.9502L70.8196 66.2905Z" fill="#B07F55"/>
<path d="M64.2856 76.3585L59.4609 71.864V65.3326L64.2856 60.2686V76.3585Z" fill="#B07F55"/>
<path d="M86.3107 69.5865C85.1905 71.1698 82.2563 75.0421 79.0898 76.7483V61.4365C79.8162 62.6449 83.1483 68.0355 86.3107 69.5865Z" fill="#B07F55"/>
<path d="M77.3793 62.2148V76.3574L72.5547 71.8629V66.8592L77.3793 62.2148Z" fill="#B07F55"/>
<path d="M57.7574 77.2871V91.4005L53.5625 87.4748V81.2121L57.7574 77.2871Z" fill="#B07F55"/>
<path d="M64.2823 81.8122V86.8756L59.457 91.3696V77.3174L64.2823 81.8122Z" fill="#B07F55"/>
<path d="M70.8157 77.3184V91.3714L65.9922 86.8465V81.8427L70.8157 77.3184Z" fill="#B07F55"/>
<path d="M77.3793 81.843V86.8467L72.5547 91.3711V77.3184L77.3793 81.843Z" fill="#B07F55"/>
<path d="M83.9073 91.401L79.082 86.876V82.1725C80.7461 81.1571 82.4194 79.2905 83.907 77.3184L83.9073 91.401Z" fill="#B07F55"/>
<path d="M71.6832 97.6327L76.7771 92.8982V209.156C76.7771 209.156 77.1324 214.925 77.3764 218.684C75.1113 220.974 66.5898 229.591 66.5898 229.591V92.8672L71.6832 97.6327Z" fill="#B07F55"/>
<path d="M63.6822 225.247C63.6822 228.984 56.8581 237.698 53.5547 239.689V92.9307L58.5883 97.6342L63.6822 92.8994V225.247Z" fill="#B07F55"/>
<path d="M105.99 212.633L109.705 210.085C109.705 210.085 109.953 211.315 110.274 212.993C108.683 215.168 99.5448 227.639 95.0227 233.727C93.8983 235.239 92.9542 239.09 92.9542 239.09C92.9542 239.09 91.3072 238.311 91.3072 236.903C91.3072 235.521 91.4874 233.877 91.4874 233.877C90.6029 234.778 89.3933 235.285 88.1307 235.285C88.1307 233.586 91.4166 231.743 91.5465 229.323C89.0408 231.181 86.8647 230.227 83.9663 231.121C80.8097 232.093 79.9306 233.42 78.9625 233.369C78.3924 233.338 77.8762 232.354 78.0939 231.75C78.4708 230.704 82.3748 227.81 85.1041 227.286C85.7579 227.161 90.9004 228.405 91.9363 226.807C96.2044 220.221 103.133 209.53 103.802 208.5C104.211 208.423 104.605 208.281 104.97 208.079C104.97 208.079 104.93 211.445 105.99 212.633Z" fill="#D10429"/>
<path d="M82.0978 233.155C82.3031 233.379 82.2893 233.727 82.0668 233.934L80.3893 235.402C80.1488 235.589 79.8022 235.549 79.6109 235.312C79.4049 235.088 79.4185 234.74 79.6413 234.533L81.3188 233.065C81.4257 232.971 81.5674 232.928 81.7084 232.945C81.8595 232.965 81.9981 233.04 82.0978 233.155Z" fill="#D10429"/>
<path d="M84.6471 234.923C85.1438 235.447 85.122 236.274 84.5983 236.771L84.5868 236.782L80.512 240.347C79.8934 240.806 79.0196 240.677 78.5603 240.058C78.1509 239.507 78.2034 238.74 78.6841 238.25L82.7589 234.714C82.9621 234.543 83.2133 234.438 83.4783 234.414C83.9265 234.389 84.36 234.578 84.6471 234.923Z" fill="#D10429"/>
<path d="M86.9795 237.679C87.4761 238.202 87.4547 239.029 86.9318 239.525L86.9192 239.537L82.815 243.103C82.2466 243.558 81.4165 243.467 80.9609 242.898L80.9567 242.893C80.4552 242.354 80.4824 241.512 81.0176 241.006L85.0919 237.47C85.2841 237.3 85.5255 237.195 85.7813 237.17C86.2381 237.144 86.6809 237.333 86.9795 237.679Z" fill="#D10429"/>
<path d="M88.3895 239.867C88.8334 239.83 89.2683 240.008 89.5583 240.346C90.0596 240.886 90.0329 241.728 89.4986 242.234L85.4231 245.77C84.8031 246.22 83.9361 246.082 83.4866 245.462C83.0973 244.925 83.1429 244.187 83.5952 243.702L87.7005 240.137C87.8944 239.974 88.1365 239.879 88.3895 239.867Z" fill="#D10429"/>
<path d="M147.916 73.6825L173.893 79.5358C175.075 79.1787 180.632 77.4521 184.53 75.2812C191.394 71.458 194.952 67.6542 203.108 67.2808V61.0778C203.108 57.7638 201.909 54.7782 201.909 51.6094C205.347 50.6875 214.889 39.0196 223.692 33.8408C236.645 42.2305 246.674 56.0032 246.674 62.3367C246.674 62.3367 246.285 198.425 246.674 245.834C246.674 248.566 248.322 252.426 248.322 252.426C243.593 250.426 234.926 238.566 233.101 234.058V236.216C225.959 232.96 220.73 224.403 218.388 219.976C218.347 220.616 218.238 222.223 218.238 222.223C211.858 216.63 203.737 183.57 203.737 183.57L190.202 196.872C190.202 196.872 195.097 206.808 197.004 208.587C196.099 208.691 195.188 208.741 194.277 208.737C195.168 210.017 201.972 219.813 204.105 223.508C206.101 226.965 207.509 225.426 210.578 225.426C213.122 225.426 218.889 229.48 219.836 231.12C220.86 232.797 221.457 234.701 221.573 236.663C221.573 238.559 219.565 241.158 219.565 241.158C219.491 240.698 219.283 240.27 218.967 239.929C218.967 239.929 213.691 246.501 212.914 247.359C212.309 248.028 209.61 248.463 208.659 247.6C206.279 245.436 203.975 243.923 201.857 240.798C200.767 239.188 200.683 237.343 199.43 235.614C195.238 229.831 186.896 218.758 184.988 216.228C184.86 216.932 184.751 217.519 184.63 218.236C182.468 213.871 172.074 205.531 172.074 205.531L161.201 210.535C161.201 210.535 181.503 257.204 199.524 264.38C199.524 264.38 191.684 267.711 182.056 272.71C180.651 273.439 179.205 274.222 177.741 275.018C176.529 273.558 175.253 271.936 173.995 270.253C168.238 262.55 162.608 253.623 162.608 253.623C162.216 255.942 165.256 263.102 170.399 271.932C171.41 273.667 172.465 275.481 173.635 277.324C172.33 278.07 171.036 278.822 169.74 279.602C160.202 285.341 151.245 291.939 147.927 298L145.586 292.141L147.927 286.283V81.4533L146.757 78.5268L147.916 73.6825Z" fill="black"/>
<path d="M147.927 286.283C151.291 282.633 158.327 278.174 166.234 274.058C156.673 256.9 151.936 229.778 154.159 224.378C154.159 224.378 158.083 238.445 162.879 246.461C167.319 253.885 172.785 262.235 178.07 268.425C182.041 266.709 186.102 265.208 190.235 263.93C174.398 251.73 158.204 211.404 158.204 211.404L174.951 203.643C174.951 203.643 181.216 210.947 183.25 212.303C183.25 212.303 184.119 208.67 184.629 207.389C184.629 207.389 187.029 209.204 188.343 209.248C188.343 209.248 188.736 206.782 189.032 205.172C190.686 206.274 193.437 206.041 193.437 206.041C191.021 204.897 188.163 197.89 188.163 197.89L204.155 176.619C204.155 176.619 209.772 203.611 216.17 209.159V92.9303L211.106 97.6338L203.436 90.4727V85.0194L210.237 91.3711V74.9212C209.213 73.3708 208.533 72.2136 208.02 71.2959C206.919 73.2151 203.361 79.0974 199.182 82.7122C198.494 79.9156 193.968 77.2584 193.968 77.2584C193.968 77.2584 192.346 81.6528 189.864 82.7415C188.99 81.2033 183.78 77.798 183.78 77.798C183.78 77.798 188.238 78.4752 190.043 80.1655C191.593 79.8185 191.991 73.6933 191.991 73.6933C191.991 73.6933 198.55 76.8884 199.691 79.1764C200.942 78.8381 202.889 73.9157 203.647 71.8953C202.025 71.7145 200.394 71.6246 198.762 71.626C196.892 71.626 194.499 72.5122 191.991 73.6933C189.236 74.9903 186.354 76.6327 183.78 77.7986C180.484 79.2911 175.497 79.5943 174.043 79.6564C175.788 80.8685 177.621 81.9501 179.525 82.8925C179.525 82.8925 171.676 82.8199 166.162 80.0754C164.157 78.866 162.235 77.5247 160.409 76.0603C161.248 78.5088 162.528 80.7833 164.185 82.7719C156.087 82.0866 152.054 77.4621 150.911 75.9105C150.183 77.8919 149.174 79.7586 147.915 81.4533H144.988V280.455L147.927 286.283Z" fill="#B07F55"/>
<path d="M207.602 52.2077L207.453 55.9231V66.8606C210.391 65.8498 214.082 61.0235 215.872 58.471V56.9726C215.833 55.8168 215.311 54.7302 214.434 53.9764L216.202 53.3478C217.071 54.2653 217.572 55.4702 217.61 56.7332V57.6024L222.883 63.2657L228.066 55.4151V53.4976C228.066 52.2053 227.073 50.7643 226.238 49.7822L227.977 49.153C228.854 50.2896 229.775 51.8213 229.775 53.2577V54.8151C230.994 56.0771 235.737 60.9584 235.737 60.9584C235.737 60.9584 238.117 55.8447 238.763 54.4563C235.132 49.4257 229.243 43.7928 223.693 39.751C223.693 39.751 211.656 50.8018 207.602 52.2077Z" fill="#B07F55"/>
<path d="M238.109 62.8152V71.8353L242.304 75.7299V62.3365C242.185 60.7367 241.692 59.187 240.866 57.8115L238.109 62.8152Z" fill="#B07F55"/>
<path d="M225.043 66.2904V71.8637L229.866 76.3886V58.9502L225.043 66.2904Z" fill="#B07F55"/>
<path d="M231.578 76.3585L236.403 71.864V65.3326L231.578 60.2686V76.3585Z" fill="#B07F55"/>
<path d="M209.551 69.5865C210.671 71.1698 213.605 75.0421 216.772 76.7483V61.4365C216.045 62.6449 212.713 68.0355 209.551 69.5865Z" fill="#B07F55"/>
<path d="M218.484 62.2158V76.3584L223.309 71.8639V66.8602L218.484 62.2158Z" fill="#B07F55"/>
<path d="M238.109 77.2871V91.4005L242.304 87.4748V81.2121L238.109 77.2871Z" fill="#B07F55"/>
<path d="M231.578 81.8122V86.8756L236.403 91.3696V77.3174L231.578 81.8122Z" fill="#B07F55"/>
<path d="M225.051 77.3184V91.3714L229.874 86.8465V81.8427L225.051 77.3184Z" fill="#B07F55"/>
<path d="M218.488 81.843V86.8467L223.313 91.3711V77.3184L218.488 81.843Z" fill="#B07F55"/>
<path d="M211.953 91.401L216.778 86.876V82.1725C215.114 81.1571 213.441 79.2905 211.953 77.3184L211.953 91.401Z" fill="#B07F55"/>
<path d="M224.178 97.6327L219.084 92.8982V209.156C219.084 209.156 218.728 214.925 218.484 218.684C220.75 220.974 229.271 229.591 229.271 229.591V92.8672L224.178 97.6327Z" fill="#B07F55"/>
<path d="M232.18 225.247C232.18 228.984 239.004 237.698 242.307 239.689V92.9307L237.274 97.6342L232.18 92.8994V225.247Z" fill="#B07F55"/>
<path d="M189.874 212.633L186.159 210.085C186.159 210.085 185.911 211.315 185.59 212.993C187.181 215.168 196.319 227.639 200.841 233.727C201.965 235.239 202.91 239.09 202.91 239.09C202.91 239.09 204.557 238.311 204.557 236.903C204.557 235.521 204.376 233.877 204.376 233.877C205.261 234.778 206.471 235.285 207.733 235.285C207.733 233.586 204.447 231.743 204.317 229.323C206.823 231.181 208.999 230.227 211.898 231.121C215.054 232.093 215.933 233.42 216.901 233.369C217.471 233.338 217.988 232.354 217.77 231.75C217.393 230.704 213.489 227.81 210.76 227.286C210.106 227.161 204.963 228.405 203.927 226.807C199.659 220.221 192.731 209.53 192.062 208.5C191.653 208.423 191.259 208.281 190.894 208.079C190.894 208.079 190.934 211.445 189.874 212.633Z" fill="#D10429"/>
<path d="M213.766 233.155C213.561 233.379 213.575 233.727 213.797 233.934L215.475 235.402C215.716 235.589 216.062 235.549 216.253 235.312C216.459 235.088 216.446 234.74 216.223 234.533L214.545 233.065C214.439 232.971 214.297 232.928 214.156 232.945C214.005 232.965 213.866 233.04 213.766 233.155Z" fill="#D10429"/>
<path d="M211.218 234.923C210.721 235.447 210.743 236.274 211.267 236.771L211.278 236.782L215.353 240.347C215.972 240.806 216.846 240.677 217.305 240.058C217.714 239.507 217.662 238.74 217.181 238.25L213.106 234.714C212.903 234.543 212.652 234.438 212.387 234.414C211.939 234.389 211.505 234.578 211.218 234.923Z" fill="#D10429"/>
<path d="M208.882 237.679C208.386 238.202 208.407 239.029 208.93 239.525L208.943 239.537L213.047 243.103C213.615 243.558 214.445 243.467 214.901 242.898L214.905 242.893C215.407 242.354 215.379 241.512 214.844 241.006L210.77 237.47C210.578 237.3 210.336 237.195 210.08 237.17C209.624 237.144 209.181 237.333 208.882 237.679Z" fill="#D10429"/>
<path d="M207.473 239.867C207.029 239.83 206.595 240.008 206.304 240.346C205.803 240.886 205.83 241.728 206.364 242.234L210.44 245.77C211.06 246.22 211.927 246.082 212.376 245.462C212.765 244.925 212.72 244.187 212.268 243.702L208.162 240.137C207.968 239.974 207.726 239.879 207.473 239.867Z" fill="#D10429"/>
<path d="M141.926 16.7029C148.632 16.7029 153.349 19.7605 159.695 22.5752C161.358 23.3127 162.885 23.9103 164.248 24.3726C163.509 24.9389 162.922 25.6805 162.54 26.5306C162.54 26.5306 165.384 27.0574 166.675 29.4378C166.675 29.4378 163.971 29.7445 163.529 31.3248C165.044 31.439 166.549 33.3482 166.556 35.1907L162.72 33.9914C163.31 36.9521 163.621 39.9617 163.649 42.9805C163.649 45.372 160.204 48.1862 160.204 52.2394C160.204 64.9603 163.408 69.8499 165.688 73.7825C166.579 75.3212 167.304 77.0918 168.804 78.4268C162.238 74.9308 157.358 70.561 157.358 66.5019V51.1308H155.65V66.502C155.65 69.4454 156.368 70.8168 156.368 70.8168C157.399 74.0734 159.483 79.1 160.773 81.1239C154.732 77.8591 151.664 73.7708 151.664 72.2549V51.1302H149.956V72.554L150.285 74.0219C149.553 75.1222 148.601 76.4251 147.948 76.8682C147.297 76.4257 146.374 75.1205 145.64 74.0219L145.97 72.554V51.1302H144.263V72.2549C144.263 73.7702 141.194 77.8591 135.153 81.1239C136.444 79.0994 138.527 74.0734 139.557 70.8168C139.557 70.8168 140.277 69.446 140.277 66.502V51.1308H138.569V66.502C138.569 70.5563 133.707 74.9332 127.152 78.4268C128.637 77.0906 129.351 75.3125 130.238 73.7825C132.73 69.4817 135.811 64.0179 135.811 48.4636C135.811 42.6258 134.948 38.6569 133.444 35.879C132.987 34.9625 132.371 32.5229 135.871 32.5229C137.684 32.5229 141.834 35.7292 141.834 35.7292C141.668 34.1317 140.843 32.6762 139.557 31.7141C139.026 31.296 138.69 30.6783 138.628 30.0056C138.869 29.1049 139.449 28.332 140.246 27.8481C140.733 27.6269 133.115 26.2994 133.115 22.8444C133.115 22.1251 133.567 21.6457 135.151 21.6457C137.226 21.6457 140.601 24.1327 143.602 24.1327C145.819 24.1327 146.694 23.593 148.965 23.593C151.74 23.593 157.531 28.8484 159.511 28.6564C157.297 27.2664 153.72 22.0045 148.306 22.0045C146.426 22.0045 144.725 22.4242 142.971 22.4242C140.723 22.4242 138.51 20.3563 136.08 20.3563C134.452 20.3563 132.633 20.447 132.364 20.0262C131.893 19.2916 132.317 18.8655 132.754 18.2586C133.578 17.1131 135.894 16.7807 138.178 16.7011C138.862 16.6771 139.546 16.6654 140.187 16.6715C140.825 16.6783 141.416 16.7029 141.926 16.7029Z" fill="#B07F55"/>
<path d="M120.15 24.9274C121.216 23.2056 123.12 22.1835 125.145 22.2462C126.641 22.2462 131.578 22.1426 131.578 22.1426C132.236 23.8522 135.236 26.7091 135.236 29.6801C135.236 29.6801 132.191 24.1917 123.692 24.1917C122.471 24.1728 121.261 24.4239 120.148 24.9269L120.15 24.9274Z" fill="#CC092F"/>
<path d="M133.967 30.7278C133.967 30.7278 132.157 32.6347 131.764 33.6526C129.972 32.9736 126.848 29.7539 126.848 29.7539C126.848 29.7539 129.496 31.3003 133.967 30.7278L133.967 30.7278Z" fill="#D10429"/>
<path d="M131.096 25.677C131.096 25.677 129.008 25.0074 129.008 24.3062C129.008 23.413 130.022 23.413 130.628 24.109C130.917 24.5827 131.078 25.1231 131.096 25.6776L131.096 25.677Z" fill="black"/>
<path d="M140.839 30.0979C143.222 30.0979 145.154 28.6314 145.154 26.8224C145.154 25.0134 143.222 23.5469 140.839 23.5469C138.455 23.5469 136.523 25.0134 136.523 26.8224C136.523 28.6314 138.455 30.0979 140.839 30.0979Z" fill="black"/>
<path d="M140.833 29.8194C142.488 29.8194 143.83 28.4775 143.83 26.8223C143.83 25.167 142.488 23.8252 140.833 23.8252C139.178 23.8252 137.836 25.167 137.836 26.8223C137.836 28.4775 139.178 29.8194 140.833 29.8194Z" fill="#F5D402"/>
<path d="M140.838 28.1958C141.597 28.1958 142.211 27.5809 142.211 26.8225C142.211 26.0641 141.597 25.4492 140.838 25.4492C140.08 25.4492 139.465 26.0641 139.465 26.8225C139.465 27.5809 140.08 28.1958 140.838 28.1958Z" fill="black"/>
<path d="M92.4137 242.229L101.897 247.402L99.5962 257.954L90.1133 252.78L92.4137 242.229Z" fill="black"/>
<path d="M48.2361 140.842L44.8203 142.4L83.4129 226.929H87.5182L48.2361 140.842ZM93.7506 240.53L90.9645 243.407L92.7023 247.242L96.0877 245.684L93.7506 240.53Z" fill="black"/>
<path d="M60.2311 207.49C60.2311 207.49 63.4819 214.205 65.9524 215.125C64.6747 214.777 60.5261 216.3 60.5261 216.3C60.5261 216.3 67.8418 222.834 74.0466 223.263C79.3085 223.626 81.8633 221 81.8633 221L80.8092 215.425C78.5268 212.874 75.6521 210.923 72.4382 209.744C67.2325 207.93 60.2305 207.491 60.2305 207.491L60.2311 207.49Z" fill="black"/>
<path d="M84.7375 195.462C84.7375 195.462 80.2488 199.304 79.0203 203.755C77.7912 208.206 79.821 213.264 79.821 213.264L83.5927 220.3C83.5927 220.3 88.82 217.518 91.0436 213.359C93.2671 209.198 92.4518 203.585 92.4518 203.585C92.4518 203.585 88.3108 205.127 87.784 205.809C88.6579 201.195 84.7369 195.462 84.7369 195.462L84.7375 195.462Z" fill="black"/>
<path d="M70.3092 193.664C70.3092 193.664 65.2042 195.39 60.2467 195.091C55.5244 194.806 51.5977 190.841 51.5977 190.841C51.5977 190.841 55.5122 188.192 57.4443 188.545C55.319 187.768 52.2374 182.444 52.2374 182.444C52.2374 182.444 56.6167 181.121 60.4996 182.585C64.3825 184.05 67.7685 188.303 67.7685 188.303L70.3098 193.664H70.3092Z" fill="black"/>
<path d="M72.0623 168.731C72.0623 168.731 74.6154 174.017 74.0102 175.855C74.8022 174.631 77.7995 172.726 77.7995 172.726C77.7995 172.726 79.6116 181.286 77.8785 186.572C76.146 191.858 70.8701 193.871 70.8701 193.871L65.0504 182.553C65.0504 182.553 64.1842 178.36 65.9986 175.039C67.8136 171.719 72.0624 168.73 72.0624 168.73L72.0623 168.731Z" fill="black"/>
<path d="M38.8493 154.737C38.8493 154.737 44.3669 154.157 49.4146 156.249C53.6347 158 54.9282 161.184 54.9282 161.184L57.0066 166.756C57.0066 166.756 51.0008 169.009 46.2557 167.287C41.5101 165.563 38.0234 159.865 38.0234 159.865C38.0234 159.865 41.3398 158.607 42.6023 159.079C40.7632 158.266 38.8505 154.737 38.8505 154.737V154.737L38.8493 154.737Z" fill="black"/>
<path d="M56.2021 144.395C56.2021 144.395 58.6235 147.504 58.6961 151.081C59.3417 149.18 62.3647 147.078 62.3647 147.078C62.3647 147.078 65.4739 154.602 64.7914 159.944C64.1089 165.286 59.6355 168.446 59.6355 168.446L54.0569 157.857C54.0569 157.857 52.2389 153.517 52.7745 150.151C53.3107 146.785 56.2021 144.394 56.2021 144.394L56.2021 144.395Z" fill="black"/>
<path d="M37.093 124.143C37.093 124.143 36.0927 129.91 37.7948 133.232C39.3154 136.197 40.2835 136.847 40.2835 136.847C37.3839 134.934 33 134.769 33 134.769C33 134.769 34.5604 141.044 38.2894 143.906C42.0183 146.769 47.7684 146.1 47.7684 146.1C47.7684 146.1 51.5495 141.067 51.2861 135.644C51.0233 130.221 46.716 124.408 46.716 124.408C46.716 124.408 45.0175 127.931 44.8676 130.562C43.7684 127.85 37.0919 124.143 37.0919 124.143L37.093 124.143Z" fill="black"/>
<path d="M82.1613 220.758L82.3164 222.828C85.7551 222.86 86.2672 222.518 87.1487 223.602C87.9991 224.557 89.3731 224.845 90.5358 224.313C91.9445 223.661 92.5658 221.997 91.9289 220.581C91.288 219.177 89.9822 218.872 88.7244 219.12C87.9524 219.272 87.4443 219.889 86.7893 220.227C85.5438 220.872 82.1602 220.758 82.1602 220.758L82.1613 220.758Z" fill="black"/>
<path d="M81.8622 219.178L83.5356 220.405C81.7404 223.339 81.1803 223.592 81.6328 224.914C81.9923 226.142 81.5092 227.46 80.4417 228.164C79.1425 229.014 77.402 228.659 76.5383 227.37C75.6873 226.082 76.1198 224.814 76.9966 223.878C77.5351 223.304 78.3253 223.199 78.9592 222.823C80.1661 222.107 81.8617 219.178 81.8617 219.178L81.8622 219.178Z" fill="black"/>
<path d="M70.216 194.596L70.3705 196.666C73.8098 196.698 74.3213 196.356 75.2028 197.439C76.0534 198.394 77.4272 198.682 78.5899 198.15C79.9991 197.499 80.6204 195.834 79.9824 194.419C79.3415 193.014 78.0362 192.71 76.7784 192.958C76.0058 193.111 75.4984 193.727 74.844 194.065C73.5979 194.709 70.2148 194.596 70.2148 194.596L70.216 194.596Z" fill="black"/>
<path d="M70.9098 195.327L72.373 196.8C70.1436 199.419 69.5495 199.582 69.7913 200.958C69.9562 202.227 69.2737 203.455 68.1091 203.984C66.6937 204.621 65.0294 204 64.3772 202.592C63.7363 201.188 64.3608 200.002 65.3728 199.214C65.9938 198.731 66.7921 198.75 67.4758 198.478C68.7793 197.959 70.9098 195.328 70.9098 195.328L70.9098 195.327Z" fill="black"/>
<path d="M58.6373 170.1L58.7924 172.171C62.2316 172.202 62.7432 171.86 63.6253 172.945C64.4766 173.899 65.8503 174.187 67.013 173.655C68.4214 173.002 69.0423 171.338 68.4055 169.922C67.7634 168.518 66.4588 168.214 65.2003 168.462C64.4277 168.615 63.9203 169.231 63.2653 169.569C62.0198 170.214 58.6367 170.1 58.6367 170.1L58.6373 170.1Z" fill="black"/>
<path d="M59.593 169.667L61.0557 171.14C58.8262 173.759 58.2333 173.922 58.4739 175.298C58.6387 176.566 57.9565 177.794 56.7923 178.324C55.3769 178.96 53.713 178.339 53.0604 176.931C52.4201 175.526 53.0446 174.341 54.056 173.553C54.677 173.069 55.4748 173.089 56.1596 172.816C57.4631 172.297 59.593 169.667 59.593 169.667Z" fill="black"/>
<path d="M46.3059 144.242L46.4604 146.312C49.8996 146.344 50.4118 146.002 51.2926 147.085C52.1434 148.04 53.5171 148.329 54.6804 147.797C56.089 147.145 56.7102 145.48 56.0734 144.065C55.4325 142.66 54.1267 142.355 52.8683 142.604C52.0969 142.757 51.5888 143.373 50.9339 143.711C49.6883 144.355 46.3047 144.242 46.3047 144.242H46.3059Z" fill="black"/>
<path d="M47.261 143.81L48.7231 145.283C46.4943 147.902 45.9002 148.065 46.1419 149.441C46.3064 150.71 45.6243 151.937 44.4604 152.467C43.0452 153.104 41.3808 152.483 40.729 151.074C40.0875 149.67 40.7126 148.483 41.7235 147.697C42.3451 147.214 43.1428 147.232 43.827 146.959C45.1299 146.441 47.2604 143.81 47.2604 143.81L47.261 143.81Z" fill="black"/>
<path d="M93.7787 245.221L99.6603 248.429L98.2331 254.975L92.3516 251.766L93.7787 245.221Z" fill="#F5D402"/>
<path d="M68.0322 188.462C66.7995 188.973 64.9711 183.607 63.6284 180.667C62.2511 177.649 59.4546 172.999 60.2488 172.636C61.1204 172.238 62.2687 174.68 63.6781 177.768C65.0876 180.854 69.187 187.981 68.0322 188.461L68.0322 188.462Z" fill="#F5D402"/>
<path d="M55.3703 160.199C54.1382 160.712 52.7891 157.198 51.447 154.258C50.0697 151.241 48.7282 149.11 49.5225 148.747C50.3946 148.349 51.6822 150.993 52.8096 153.462C53.9017 155.854 56.5251 159.718 55.3697 160.2L55.3703 160.199Z" fill="#F5D402"/>
<path d="M84.6605 224.282C83.6929 224.541 79.4694 215.7 76.0547 208.22C72.6406 200.741 70.0981 194.689 70.8923 194.328C71.7644 193.929 74.5288 200.995 77.9447 208.476C81.3599 215.956 85.3857 224.087 84.661 224.282L84.6605 224.282Z" fill="#F5D402"/>
<path d="M89.3807 223.288C90.223 223.288 90.9059 222.605 90.9059 221.763C90.9059 220.92 90.223 220.237 89.3807 220.237C88.5383 220.237 87.8555 220.92 87.8555 221.763C87.8555 222.605 88.5383 223.288 89.3807 223.288Z" fill="#F5D402"/>
<path d="M78.8923 227.355C79.7346 227.355 80.4174 226.672 80.4174 225.83C80.4174 224.987 79.7346 224.305 78.8923 224.305C78.05 224.305 77.3672 224.987 77.3672 225.83C77.3672 226.672 78.05 227.355 78.8923 227.355Z" fill="#F5D402"/>
<path d="M77.4316 197.105C78.274 197.105 78.9569 196.422 78.9569 195.58C78.9569 194.738 78.274 194.055 77.4316 194.055C76.5892 194.055 75.9062 194.738 75.9062 195.58C75.9062 196.422 76.5892 197.105 77.4316 197.105Z" fill="#F5D402"/>
<path d="M66.9353 202.952C67.7776 202.952 68.4604 202.269 68.4604 201.426C68.4604 200.584 67.7776 199.901 66.9353 199.901C66.093 199.901 65.4102 200.584 65.4102 201.426C65.4102 202.269 66.093 202.952 66.9353 202.952Z" fill="#F5D402"/>
<path d="M65.8573 172.618C66.6996 172.618 67.3825 171.935 67.3825 171.093C67.3825 170.25 66.6996 169.567 65.8573 169.567C65.0149 169.567 64.332 170.25 64.332 171.093C64.332 171.935 65.0149 172.618 65.8573 172.618Z" fill="#F5D402"/>
<path d="M55.6151 177.294C56.4575 177.294 57.1403 176.611 57.1403 175.768C57.1403 174.926 56.4575 174.243 55.6151 174.243C54.7727 174.243 54.0898 174.926 54.0898 175.768C54.0898 176.611 54.7727 177.294 55.6151 177.294Z" fill="#F5D402"/>
<path d="M53.5216 146.763C54.3641 146.763 55.0471 146.08 55.0471 145.237C55.0471 144.395 54.3641 143.712 53.5216 143.712C52.6791 143.712 51.9961 144.395 51.9961 145.237C51.9961 146.08 52.6791 146.763 53.5216 146.763Z" fill="#F5D402"/>
<path d="M43.2833 151.436C44.1259 151.436 44.8089 150.753 44.8089 149.91C44.8089 149.068 44.1259 148.385 43.2833 148.385C42.4408 148.385 41.7578 149.068 41.7578 149.91C41.7578 150.753 42.4408 151.436 43.2833 151.436Z" fill="#F5D402"/>
<path d="M38.7898 127.649C38.7898 127.649 38.6405 131.864 40.0348 134.255C41.4295 136.646 44.5439 137.6 44.5439 137.6C44.5439 137.6 44.6926 133.386 43.2984 130.996C41.9036 128.604 38.7898 127.649 38.7898 127.649Z" fill="#097754"/>
<path d="M35.875 137.184C35.875 137.184 39.5361 137.399 41.6508 139.019C43.7637 140.639 44.5825 144.015 44.5825 144.015C42.9555 144.1 41.3497 143.614 40.0429 142.641C37.9294 141.02 35.875 137.184 35.875 137.184Z" fill="#097754"/>
<path d="M47.3646 128.674C46.6174 130.515 46.251 132.489 46.2877 134.475C46.4276 137.486 48.184 140.877 48.184 140.877C48.184 140.877 49.772 137.263 49.6321 134.252C49.4928 131.242 47.7902 129.526 47.3646 128.674Z" fill="#097754"/>
<path d="M41.1992 155.808C42.4211 157.417 43.9788 158.74 45.764 159.686C48.5313 161.054 52.6548 161.105 52.6548 161.105C51.3292 159.453 49.6889 158.08 47.829 157.066C45.0617 155.698 41.1992 155.807 41.1992 155.807L41.1992 155.808Z" fill="#097754"/>
<path d="M42.0904 161.638C42.0904 161.638 43.4115 164.225 45.827 165.334C48.2437 166.444 53.1866 166.353 53.1866 166.353C52.0052 164.895 50.5375 163.694 48.8741 162.825C46.458 161.715 42.0898 161.638 42.0898 161.638L42.0904 161.638Z" fill="#097754"/>
<path d="M56.0016 147.836C55.1214 149.38 54.6668 151.131 54.6841 152.908C54.8275 155.568 56.5728 158.475 56.5728 158.475C56.5728 158.475 57.8002 155.143 57.6568 152.483C57.5344 150.813 56.9622 149.207 56.001 147.836H56.0016Z" fill="#097754"/>
<path d="M61.3857 151.248C61.3857 151.248 58.8871 154.602 58.5282 158.05C58.1695 161.497 59.9493 165.039 59.9493 165.039C59.9493 165.039 62.9677 162.009 63.3266 158.561C63.6853 155.113 61.3857 151.249 61.3857 151.249L61.3857 151.248Z" fill="#097754"/>
<path d="M54.4922 183.089C54.7674 184.021 55.2244 184.89 55.8366 185.645C56.6895 186.638 57.6375 187.546 58.6672 188.356C59.932 188.017 61.2596 187.986 62.5389 188.265C64.6841 188.73 67.5374 190.641 67.5374 190.641C67.5374 190.641 64.4663 186.058 61.2776 184.276C59.1891 183.201 56.8229 182.786 54.4933 183.088L54.4922 183.089Z" fill="#097754"/>
<path d="M54.1764 190.967C54.1764 190.967 58.1524 189.269 61.4265 189.707C64.7013 190.145 67.6536 192.734 67.6536 192.734C67.6536 192.734 63.2281 194.265 59.9539 193.827C57.7963 193.439 55.7928 192.447 54.1758 190.967H54.1764Z" fill="#097754"/>
<path d="M70.9827 172.483C70.9827 172.483 67.4668 176.208 67.1718 179.441C66.8774 182.673 70.0228 185.685 70.0228 185.685C69.9394 184.525 70.0706 183.36 70.4097 182.247C70.8578 181.242 71.4264 180.294 72.103 179.425C72.3815 178.452 72.4834 177.436 72.4038 176.427C72.1348 175.047 71.6556 173.717 70.9827 172.483Z" fill="#097754"/>
<path d="M76.0269 176.797C76.0269 176.797 72.7129 180.15 71.8373 183.741C70.9611 187.332 72.5221 191.16 72.5221 191.16C72.5221 191.16 75.5358 188.783 76.412 185.192C77.2882 181.602 76.0263 176.797 76.0263 176.797L76.0269 176.797Z" fill="#097754"/>
<path d="M84.3277 198.441C85.1927 200.273 85.8249 202.207 86.2094 204.196C86.591 206.817 86.2375 207.724 86.2375 207.724C86.2375 207.724 84.6853 209.25 83.9894 210.147C83.095 211.3 82.9639 213.411 82.9639 213.411C82.9639 213.411 79.8472 208.777 80.3277 205.39C80.8077 202.004 84.3277 198.44 84.3277 198.44L84.3277 198.441Z" fill="#097754"/>
<path d="M90.8938 205.694C90.8938 205.694 86.9032 208.33 85.3199 211.034C84.3779 212.694 84.1049 214.651 84.5567 216.506C86.4041 216.243 88.0327 215.157 88.9851 213.552C90.5689 210.849 90.8932 205.693 90.8932 205.693L90.8938 205.694Z" fill="#097754"/>
<path d="M64.6724 216.826C64.6724 216.826 70.4236 216.669 73.939 217.533C77.4543 218.397 78.7338 220.281 78.7338 220.281C78.7338 220.281 74.7812 222.132 71.2659 221.268C67.7506 220.405 64.6719 216.825 64.6719 216.825L64.6724 216.826Z" fill="#097754"/>
<path d="M63.6992 210.001C63.6992 210.001 66.2939 214.024 69.6483 215.483C74.271 217.494 79.6236 216.519 79.6236 216.519C79.6236 216.519 76.7158 212.956 72.7147 211.382C68.7123 209.81 63.6992 210.002 63.6992 210.002L63.6992 210.001Z" fill="#097754"/>
<path d="M260.608 131.017L261.358 132.604C260.613 132.883 259.987 133.413 259.589 134.102C259.039 135.183 259.949 136.709 259.949 136.709C259.949 136.709 253.625 136.157 252.638 136.799C251.744 137.379 253.017 141.759 252.428 145.459C251.607 150.615 249.574 150.182 249.491 151.181C249.411 152.152 250.27 153.668 250.27 153.668C250.27 153.668 249.085 154.042 248.832 154.537C248.425 155.335 249.115 156.805 248.622 157.773C245.871 163.171 241.809 171.139 239.124 176.411C238.749 177.146 237.741 177.427 237.236 178.418C236.97 179.139 236.938 179.925 237.146 180.665C237.146 180.665 235.366 180.772 234.749 181.984C234.36 182.943 234.266 183.997 234.479 185.01C233.76 185.138 233.14 185.591 232.8 186.238C232.21 187.398 233.21 188.006 232.952 188.516C229.341 195.599 225.089 203.949 222.494 209.041C221.54 210.913 218.199 211.289 216.261 215.094C215.151 217.188 215.475 219.753 217.07 221.506C217.07 221.506 214.277 221.759 213.534 223.214C212.778 224.698 213.376 226.951 215.392 227.978C217.408 229.005 219.61 228.173 220.367 226.69C221.109 225.234 219.617 222.824 219.617 222.824C221.977 223.063 224.236 221.808 225.28 219.678C227.219 215.873 225.585 212.981 226.539 211.108C229.134 206.016 233.387 197.667 236.996 190.583C237.257 190.073 238.323 190.515 238.914 189.355C239.238 188.704 239.238 187.939 238.914 187.288C239.865 186.862 240.668 186.163 241.222 185.28C241.84 184.068 240.892 182.553 240.892 182.553C241.614 182.295 242.233 181.812 242.66 181.176C243.164 180.185 242.793 179.215 243.168 178.478C245.855 173.207 249.918 165.238 252.667 159.841C253.161 158.873 254.748 158.541 255.154 157.743C255.407 157.248 255.005 156.066 255.005 156.066C255.005 156.066 256.754 155.892 257.491 155.256C258.251 154.602 256.709 153.198 260.399 149.503C263.045 146.853 267.315 145.294 267.26 144.23C267.198 143.053 263.035 138.267 263.035 138.267C263.035 138.267 264.791 138.119 265.342 137.039C265.666 136.303 265.73 135.479 265.522 134.702L267.26 134.402L267.26 126.162L260.608 131.017ZM203.169 245.779C202.882 246.354 202.882 247.03 203.169 247.605C203.169 247.605 201.071 246.95 200.352 247.306C199.674 247.641 200.352 257.524 200.352 257.524C200.352 257.524 208.719 252.246 208.591 251.501C208.457 250.71 206.704 249.374 206.704 249.374C207.332 249.277 207.877 248.888 208.172 248.325C208.447 247.784 208.484 246.237 206.584 245.268C206.017 244.953 205.372 244.808 204.726 244.849C204.087 244.89 203.508 245.236 203.169 245.779Z" fill="black"/>
<path d="M262.133 131.348L266.088 133.356L266.029 128.592L262.133 131.348Z" fill="#F5D402"/>
<path d="M260.603 134.226C259.906 135.278 260.194 136.697 261.247 137.394C262.299 138.091 263.718 137.803 264.415 136.75C265.112 135.698 264.824 134.279 263.772 133.582C263.697 133.532 263.619 133.487 263.54 133.447C263.143 133.242 262.697 133.148 262.251 133.177C261.554 133.209 260.927 133.608 260.603 134.226Z" fill="#F5D402"/>
<path d="M253.801 137.852C253.385 138.121 253.951 141.683 253.831 144.713C253.717 147.57 252.803 148.375 252.303 149.357C251.841 150.264 250.176 151.335 250.176 151.335L251.554 152.713C251.554 152.713 252.45 151.317 253.861 148.547C255.525 145.282 255.471 139.365 255.959 139.049C257.236 138.6 258.536 138.22 259.854 137.91C259.854 137.91 256.669 137.738 254.91 137.761C254.538 137.738 254.165 137.769 253.801 137.852Z" fill="#F5D402"/>
<path d="M254.169 154.301C254.779 152.787 255.469 151.306 256.237 149.866C258.175 146.062 262.312 143.303 262.409 142.615C262.509 141.906 260.971 138.57 260.971 138.57C260.971 138.57 257.321 139.27 256.805 139.769C256.306 140.251 256.526 145.193 254.588 148.998C253.867 150.478 253.068 151.919 252.191 153.313L254.169 154.301Z" fill="#F5D402"/>
<path d="M263.485 142.884C263.516 143.463 258.707 146.9 257.043 150.165C255.632 152.934 255.035 154.48 255.035 154.48L256.953 154.78C256.953 154.78 256.821 152.809 257.283 151.903C257.783 150.922 257.914 149.719 260.16 147.948C262.541 146.07 265.759 144.428 265.733 143.933C265.709 143.475 262.137 139.049 262.137 139.049C262.653 140.303 263.103 141.583 263.485 142.884Z" fill="#F5D402"/>
<path d="M249.402 164.249C252.291 158.579 253.174 158.192 253.538 157.478C253.929 156.71 253.835 155.676 252.549 155.02C252.166 154.807 251.728 154.714 251.291 154.751C250.73 154.818 250.243 155.169 250.002 155.68C249.638 156.395 249.835 157.351 246.945 163.022L240.383 175.875C240.005 176.528 240.228 177.362 240.881 177.74C240.881 177.74 240.881 177.74 240.881 177.74C240.914 177.759 240.948 177.776 240.982 177.793C241.614 178.146 242.412 177.921 242.765 177.29C242.794 177.239 242.819 177.187 242.84 177.133L249.402 164.249Z" fill="#F5D402"/>
<path d="M237.805 178.991C237.447 179.693 238.06 180.725 239.183 181.298C240.307 181.87 241.522 181.761 241.88 181.058C242.238 180.356 241.596 179.324 240.472 178.751C239.976 178.484 239.416 178.359 238.854 178.392C238.424 178.395 238.026 178.622 237.805 178.991Z" fill="#F5D402"/>
<path d="M235.379 182.646C234.915 183.555 235.638 184.86 236.997 185.554C238.356 186.246 239.83 186.072 240.293 185.163C240.756 184.254 240.033 182.95 238.674 182.256C238.21 182.012 237.7 181.869 237.176 181.837C236.471 181.733 235.769 182.049 235.379 182.646Z" fill="#F5D402"/>
<path d="M233.852 186.722C233.494 187.424 234.108 188.456 235.23 189.029C236.353 189.601 237.569 189.492 237.927 188.789C238.285 188.087 237.672 187.055 236.549 186.482C236.043 186.214 235.473 186.09 234.901 186.122C234.471 186.125 234.073 186.353 233.852 186.722Z" fill="#F5D402"/>
<path d="M232.861 190.617C232.861 190.617 225.575 204.957 223.005 210.003C222.183 211.615 218.725 212.619 217.371 215.277C216.007 217.951 216.97 220.453 218.749 221.36C220.528 222.266 223.14 221.607 224.502 218.933C225.856 216.276 224.64 212.873 225.46 211.262C228.032 206.214 235.319 191.876 235.319 191.876C235.707 191.242 235.507 190.413 234.874 190.026C234.833 190.001 234.792 189.978 234.749 189.958C234.492 189.822 234.199 189.769 233.91 189.809C233.455 189.902 233.068 190.2 232.861 190.617Z" fill="#F5D402"/>
<path d="M214.428 223.905C213.882 224.976 214.506 226.404 215.836 227.081C217.165 227.759 218.706 227.433 219.252 226.362C219.798 225.291 219.143 223.863 217.814 223.186C217.353 222.942 216.837 222.818 216.316 222.827C215.536 222.812 214.811 223.226 214.428 223.905Z" fill="#F5D402"/>
<path d="M204.727 245.81C204.373 245.778 204.03 245.938 203.828 246.229C203.549 246.777 204.126 247.642 205.116 248.147C206.107 248.651 207.144 248.604 207.424 248.057C207.703 247.508 207.125 246.644 206.135 246.139C205.701 245.913 205.217 245.799 204.727 245.809L204.727 245.81Z" fill="#F5D402"/>
<path d="M201.309 248.505V255.577L207.062 251.442C205.812 249.5 203.615 248.378 201.309 248.505V248.505Z" fill="#F5D402"/>
<path d="M204.947 91.0133C204.947 87.1351 210.041 83.3125 210.041 83.3125H85.8125C85.8125 83.3125 90.9064 87.1345 90.9064 91.0133V183.482C90.8619 185.514 91.5538 187.494 92.8543 189.055C94.0489 190.725 96.5944 193.032 99.2359 194.748C107.395 200.047 121.036 205.634 131.357 210.33C139.958 214.242 143.456 215.82 147.927 221.356C152.398 215.82 155.926 214.242 164.527 210.33C174.846 205.635 188.488 200.047 196.647 194.748C199.29 193.032 201.836 190.726 203.03 189.055C204.321 187.49 205.002 185.511 204.947 183.482L204.947 91.0133Z" fill="#F5D402"/>
<path d="M93.8463 143.33V91.0128C93.8743 89.3047 93.3485 87.6334 92.3477 86.249H203.513C202.513 87.6336 201.987 89.3048 202.015 91.0128L202.047 143.33L147.947 159.718L93.8463 143.33Z" fill="#D10429"/>
<path d="M202.044 143.329L168.544 142.7H127.343L93.8438 143.329V183.482C93.8438 185.5 95.938 190.227 108.017 196.245C127.982 206.194 143.328 210.839 147.928 216.501C152.528 210.839 167.874 206.194 187.84 196.245C199.918 190.227 202.012 185.5 202.012 183.482L202.044 143.329Z" fill="#0B45BB"/>
<path d="M167.736 141.233C167.736 141.233 187.062 136.36 187.062 115.704C187.062 99.5717 167.687 91.5683 167.136 87.7188C165.243 94.3801 173.608 103.58 173.608 114.476C173.608 128.573 163.211 129.248 163.211 129.248C160.778 129.248 159.792 130.985 158.836 130.985C156.789 130.772 155.826 128.168 153.802 128.168C151.901 128.168 150.442 131.105 147.929 131.105C145.417 131.105 143.987 128.168 142.086 128.168C140.063 128.168 139.099 130.772 137.053 130.985C136.096 130.985 135.11 129.248 132.677 129.248C132.677 129.248 122.28 128.573 122.28 114.476C122.28 103.58 130.647 94.3789 128.752 87.7188C128.203 91.5683 108.828 99.5711 108.828 115.704C108.828 136.36 128.154 141.233 128.154 141.233L122.641 151.271C122.641 151.271 130.627 151.67 134.866 155.286C139.977 159.646 139.48 168.882 139.48 175.602C139.48 180.896 138.811 186.482 136.095 188.785C132.447 191.878 129.981 192.106 129.981 195.737C129.981 198.765 132.309 199.372 136.095 201.371C140.945 203.93 140.719 207.363 147.929 207.363C155.141 207.363 154.944 203.931 159.795 201.371C163.581 199.372 165.908 198.765 165.908 195.737C165.908 192.106 163.442 191.878 159.795 188.785C157.079 186.481 156.41 180.895 156.41 175.602C156.41 168.882 155.913 159.646 161.024 155.286C165.263 151.671 173.249 151.271 173.249 151.271L167.736 141.233Z" fill="black"/>
<path d="M147.929 89.1523L144.572 98.6816L135.433 94.3363L139.778 103.476L130.25 106.861L139.778 110.247L135.433 119.356L144.572 115.011L147.929 124.54L151.315 115.011L160.454 119.356L156.11 110.247L165.638 106.861L156.11 103.476L160.454 94.3363L151.315 98.6816L147.929 89.1523Z" fill="black"/>
<path d="M127.343 142.702C127.343 142.702 115.41 139.785 110.953 133.893C105.992 138.228 100.157 141.447 93.8438 143.331C93.8438 143.331 103.564 147.72 110.953 153.309C114.358 148.43 127.343 142.702 127.343 142.702Z" fill="black"/>
<path d="M168.543 142.702C168.543 142.702 181.529 148.43 184.934 153.309C192.322 147.72 202.042 143.331 202.042 143.331C195.729 141.446 189.895 138.228 184.934 133.893C180.477 139.784 168.543 142.702 168.543 142.702Z" fill="black"/>
<path d="M132.23 155.402L127.586 160.046L132.23 164.69L136.875 160.046L132.23 155.402Z" fill="black"/>
<path d="M163.663 155.402L159.02 160.046L163.663 164.69L168.308 160.046L163.663 155.402Z" fill="black"/>
<path d="M131.061 182.52C131.115 185.517 130.925 188.513 130.492 191.479C130.492 191.479 137.039 189.551 138.343 182.909C138.954 179.796 139.635 168.325 136.485 166.369L127.945 164.691C130.011 170.408 131.065 176.441 131.061 182.52Z" fill="black"/>
<path d="M159.407 166.37C156.258 168.325 156.938 179.795 157.549 182.91C158.853 189.552 165.4 191.479 165.4 191.479C164.967 188.513 164.777 185.517 164.831 182.52C164.826 176.441 165.881 170.408 167.948 164.691L159.407 166.37Z" fill="black"/>
<path d="M110.926 166.702C108.006 167.404 106.208 170.34 106.91 173.26C107.027 173.744 107.208 174.208 107.451 174.642C107.015 174.495 106.561 174.405 106.102 174.372C105.913 174.363 105.723 174.363 105.533 174.372C102.502 174.499 100.147 177.06 100.274 180.091C100.402 183.123 102.962 185.477 105.994 185.35C106.221 185.341 106.447 185.317 106.672 185.279C106.404 185.64 106.183 186.032 106.013 186.448C104.865 189.263 106.217 192.477 109.033 193.625C111.848 194.773 115.061 193.421 116.209 190.605L116.23 190.554C116.394 190.14 116.505 189.707 116.56 189.265C116.827 189.632 117.139 189.964 117.489 190.253C119.789 192.235 123.261 191.977 125.243 189.677C127.225 187.377 126.967 183.905 124.666 181.923C124.29 181.599 123.871 181.327 123.421 181.115C123.853 180.977 124.265 180.786 124.649 180.546C127.223 178.919 128 175.518 126.387 172.935C125.317 171.227 123.394 170.248 121.383 170.388C120.468 170.45 119.583 170.739 118.806 171.228C118.424 171.463 118.072 171.745 117.758 172.066C117.744 169.006 115.252 166.536 112.191 166.55C111.765 166.552 111.341 166.603 110.926 166.702Z" fill="black"/>
<path d="M169.354 182.701C169.949 188.312 174.509 193.013 180.141 194.357C179.163 192.784 178.549 191.013 178.343 189.173C177.637 182.518 182.784 177.127 189.819 177.127C190.909 177.129 191.995 177.26 193.054 177.518C190.432 173.274 185.817 170.672 180.829 170.626C173.795 170.626 168.647 176.047 169.354 182.701Z" fill="black"/>
<path d="M119.463 114.476C119.463 125.086 125.121 131.345 132.677 131.345C134.118 131.345 135.694 133.292 137.052 133.292C139.266 133.292 140.738 130.835 142.086 130.835C143.8 130.835 144.954 133.532 147.929 133.532C150.904 133.532 152.089 130.835 153.802 130.835C155.149 130.835 156.622 133.292 158.835 133.292C160.194 133.292 161.769 131.345 163.211 131.345C170.766 131.345 176.425 125.086 176.425 114.476C176.425 105.823 169.158 95.272 169.953 93.5605C169.953 93.5605 184.125 103.727 184.125 115.704C184.125 134.997 164.559 139.765 164.559 139.765L168.964 149.682C168.964 149.682 162.899 150.592 159.195 153.578C154.256 157.561 154.191 168.322 154.191 175.6C154.191 184.174 154.51 187.807 157.607 190.133C160.873 192.587 163.33 193.115 163.33 195.616C163.33 197.796 160.787 198.687 157.487 200.141C153.733 201.795 153.359 204.666 147.929 204.666C142.498 204.666 142.154 201.795 138.4 200.141C135.101 198.687 132.557 197.796 132.557 195.616C132.557 193.115 135.014 192.587 138.28 190.133C141.377 187.807 141.695 184.174 141.695 175.6C141.695 168.322 141.631 157.561 136.692 153.578C132.988 150.59 126.923 149.682 126.923 149.682L131.327 139.765C131.327 139.765 111.762 134.997 111.762 115.704C111.762 103.727 125.935 93.5606 125.935 93.5606C126.73 95.272 119.463 105.823 119.463 114.476ZM140.527 194.15C136.683 194.15 134.235 194.961 134.235 196.128C134.235 197.295 136.684 198.076 140.527 198.076C141.551 198.076 142.714 197.479 142.714 196.128C142.688 195.006 141.758 194.119 140.637 194.145C140.6 194.146 140.564 194.147 140.527 194.15ZM155.359 194.15C154.24 194.064 153.264 194.9 153.177 196.019C153.174 196.055 153.172 196.091 153.172 196.128C153.171 197.479 154.335 198.076 155.359 198.076C159.203 198.076 161.651 197.296 161.651 196.128C161.651 194.961 159.202 194.15 155.359 194.15Z" fill="#FFD200"/>
<path d="M147.96 95.5684L150.117 101.652L155.93 98.8654L153.173 104.708L159.226 106.866L153.173 109.023L155.93 114.836L150.117 112.079L147.93 118.132L145.773 112.079L139.96 114.836L142.717 109.023L136.664 106.866L142.717 104.708L139.96 98.8654L145.773 101.652L147.96 95.5684Z" fill="#FFD200"/>
<path d="M99.5312 143.503C99.5312 143.503 106.911 147.179 110.619 150.455L110.828 150.635L110.947 150.486C114.451 146.464 120.955 143.055 120.955 143.055C120.955 143.055 114.706 141.331 110.768 136.822C106.605 141.065 99.5312 143.503 99.5312 143.503Z" fill="#FFD200"/>
<path d="M196.345 143.513C196.345 143.513 188.965 147.189 185.258 150.465L185.049 150.645L184.929 150.495C181.426 146.474 174.922 143.064 174.922 143.064C174.922 143.064 181.171 141.341 185.109 136.832C189.271 141.074 196.345 143.513 196.345 143.513Z" fill="#FFD200"/>
<path d="M132.231 157.621L134.658 160.047L132.231 162.505L129.773 160.047L132.231 157.621Z" fill="#FFD200"/>
<path d="M163.661 157.621L166.119 160.047L163.661 162.505L161.234 160.047L163.661 157.621Z" fill="#FFD200"/>
<path d="M135.522 168.227C137.218 170.567 136.93 174.35 136.93 179.614C137.033 182.602 135.508 185.412 132.945 186.954C132.945 174.198 131.63 171.131 130.938 167.268L135.522 168.227Z" fill="#FFD200"/>
<path d="M164.944 167.268C164.251 171.132 162.937 174.198 162.937 186.954C160.375 185.412 158.849 182.602 158.952 179.613C158.952 174.35 158.664 170.568 160.36 168.227L164.944 167.268Z" fill="#FFD200"/>
<path d="M116.677 172.095C116.787 172.556 116.817 173.032 116.766 173.504C116.727 173.874 116.636 174.237 116.497 174.582C114.096 173.731 111.419 174.418 109.725 176.32C109.425 176.058 109.163 175.756 108.947 175.421C108.689 175.036 108.496 174.611 108.377 174.163C107.808 171.871 109.205 169.551 111.497 168.982C113.787 168.413 116.105 169.806 116.677 172.095Z" fill="#FFD200"/>
<path d="M123.065 180.089C122.661 180.336 122.217 180.512 121.753 180.609C121.389 180.686 121.016 180.712 120.644 180.687C120.712 178.14 119.231 175.807 116.898 174.783C117.055 174.417 117.262 174.074 117.513 173.765C117.799 173.401 118.144 173.086 118.534 172.835C120.537 171.583 123.175 172.193 124.427 174.196C125.678 176.199 125.068 178.838 123.065 180.089Z" fill="#FFD200"/>
<path d="M117.437 188.634C117.078 188.326 116.773 187.958 116.537 187.547C116.351 187.225 116.211 186.878 116.121 186.517C118.564 185.794 120.326 183.665 120.578 181.13C120.975 181.165 121.365 181.256 121.736 181.4C122.171 181.559 122.577 181.79 122.937 182.083C124.742 183.606 124.97 186.304 123.447 188.109C121.93 189.908 119.244 190.143 117.437 188.634Z" fill="#FFD200"/>
<path d="M107.567 185.922C107.749 185.484 108.004 185.081 108.322 184.73C108.572 184.453 108.858 184.213 109.174 184.016C110.616 186.115 113.186 187.133 115.674 186.59C115.763 186.978 115.797 187.377 115.776 187.775C115.758 188.238 115.664 188.695 115.497 189.127C114.612 191.317 112.119 192.375 109.929 191.49C107.739 190.605 106.682 188.112 107.567 185.922Z" fill="#FFD200"/>
<path d="M107.099 175.7C107.572 175.738 108.034 175.857 108.467 176.05C108.807 176.202 109.124 176.4 109.409 176.639C107.858 178.66 107.684 181.418 108.97 183.617C108.628 183.822 108.259 183.977 107.874 184.08C107.428 184.206 106.964 184.258 106.501 184.232C104.145 184.067 102.369 182.023 102.534 179.667C102.699 177.311 104.743 175.535 107.099 175.7Z" fill="#FFD200"/>
<path d="M114.37 184.623C116.653 184.623 118.505 182.771 118.505 180.488C118.505 178.204 116.653 176.353 114.37 176.353C112.086 176.353 110.234 178.204 110.234 180.488C110.234 182.771 112.086 184.623 114.37 184.623Z" fill="#FFD200"/>
<path d="M186.969 174.913C180.104 176.241 175.164 182.304 175.883 189.386C173.695 187.574 172.094 185.133 171.808 182.434C171.251 177.179 175.068 173.115 180.827 173.115C183.001 173.135 185.128 173.757 186.969 174.913Z" fill="#FFD200"/>
<path d="M207.615 84.2354H88.2436C89.8266 85.8294 91.8363 88.3717 91.8363 91.0067V171.311H91.8326V183.477H91.8363C91.8184 184.429 91.9716 185.377 92.2888 186.276C92.5961 187.073 93.0241 187.817 93.5579 188.484L93.5795 188.513C94.7433 189.996 96.0952 191.321 97.601 192.455C97.9413 192.722 98.2895 192.983 98.6403 193.235C98.9812 193.48 99.3378 193.724 99.7044 193.962L99.7129 193.968C106.065 198.092 115.852 202.428 124.744 206.366C127.223 207.465 129.641 208.536 131.706 209.475L131.71 209.479L131.908 209.568H131.911C140.049 213.271 143.679 214.922 147.929 219.9C152.19 214.904 155.808 213.258 164.021 209.522L164.021 209.521L164.115 209.479C166.185 208.537 168.598 207.468 171.077 206.37C179.969 202.431 189.757 198.095 196.111 193.97L196.117 193.967C197.899 192.807 199.549 191.456 201.038 189.938C201.28 189.685 201.508 189.435 201.714 189.191C201.908 188.963 202.087 188.735 202.246 188.513L202.26 188.499L202.263 188.495L202.271 188.484C202.808 187.814 203.242 187.067 203.558 186.269C203.882 185.374 204.04 184.428 204.022 183.477H204.026V171.311H204.022V91.0067C204.022 88.3718 206.032 85.8294 207.615 84.2354ZM205.88 91.0067V171.311H205.877V183.477H205.88C205.898 184.651 205.699 185.819 205.293 186.922C204.916 187.884 204.397 188.785 203.753 189.594L203.755 189.595C203.58 189.84 203.369 190.107 203.13 190.389C202.904 190.656 202.649 190.936 202.374 191.223C200.786 192.843 199.026 194.284 197.126 195.52L197.12 195.524C190.628 199.739 180.776 204.104 171.825 208.068C169.483 209.106 167.202 210.116 164.884 211.171L164.79 211.213H164.787C156.397 215.03 152.965 216.591 148.651 221.932L147.929 222.826L147.207 221.932C142.912 216.615 139.461 215.045 131.142 211.26L131.142 211.259L130.947 211.171L130.94 211.167L130.938 211.166L130.937 211.168C128.614 210.11 126.338 209.102 123.996 208.065C115.045 204.1 105.193 199.735 98.702 195.52L98.6804 195.506L98.6736 195.501L98.6741 195.5C98.3084 195.263 97.9339 195.007 97.5583 194.738C97.1848 194.47 96.8171 194.194 96.461 193.914C94.8147 192.67 93.3384 191.215 92.0697 189.587C91.4278 188.78 90.9143 187.878 90.5462 186.914C90.152 185.812 89.9595 184.647 89.9778 183.477H89.9815V171.311H89.9778V91.0067C89.9778 87.5879 85.271 84.0569 85.2578 84.0469V82.377H210.6V84.0469C210.587 84.0569 205.88 87.5879 205.88 91.0067ZM203.069 85.3169L203.072 85.3132H203.514L205.437 85.3124L204.235 86.8199C203.362 88.0386 202.909 89.508 202.944 91.0067V171.311H202.941V183.477H202.944C202.944 185.122 201.793 188.299 196.37 192.259L196.371 192.26C195.357 193.001 194.186 193.776 192.839 194.58C191.483 195.389 189.966 196.22 188.275 197.063L188.273 197.06L188.256 197.069V197.072C181.011 200.683 174.32 203.617 168.543 206.151C158.622 210.501 151.436 213.653 148.651 217.078L148.637 217.096L148.634 217.1L147.91 217.943L147.211 217.081C144.427 213.655 137.238 210.501 127.312 206.149C121.54 203.618 114.855 200.685 107.616 197.079V197.076L107.604 197.069L107.603 197.072C102.466 194.514 99.0881 192.167 96.8935 190.152C96.4602 189.752 96.0706 189.366 95.7245 188.994C93.4951 186.598 92.9188 184.662 92.9178 183.48H92.9142V183.477H92.9178V171.311H92.9142V91.0067C92.9491 89.508 92.496 88.0386 91.623 86.8199L90.4209 85.317H94.4128V85.3133H201.446V85.317L203.069 85.3169ZM201.446 87.1681V87.1717H94.4127V87.1681H93.9501C94.4938 88.3747 94.7741 89.6833 94.7725 91.0067V171.311H94.7688V183.477H94.7725V183.48H94.7688C94.7693 184.315 95.2445 185.755 97.0825 187.73C97.3985 188.07 97.7536 188.423 98.1492 188.787C100.226 190.695 103.461 192.935 108.431 195.41V195.414L108.443 195.42L108.444 195.417C115.725 199.044 122.34 201.946 128.053 204.451C137.497 208.592 144.52 211.672 147.928 215.115C151.338 211.672 158.362 208.593 167.803 204.452C173.519 201.945 180.14 199.041 187.428 195.41L187.429 195.413L187.446 195.404V195.4C189.132 194.56 190.605 193.755 191.888 192.99C193.18 192.219 194.303 191.475 195.275 190.765H195.278C200.068 187.268 201.086 184.736 201.086 183.477H201.089V171.311H201.086V91.0067C201.084 89.6833 201.364 88.3747 201.908 87.1681L201.446 87.1681Z" fill="black"/>
</svg>
