<svg width="300" height="300" viewBox="0 0 300 300" fill="none" xmlns="http://www.w3.org/2000/svg">
<path fill-rule="evenodd" clip-rule="evenodd" d="M35.2726 3H264.521L264.248 170.242C266.155 237.472 225.282 279.19 150.077 298C96.6715 284.405 35.0906 256.282 35 172.149L35.2726 3Z" fill="#00A2BD" stroke="black" stroke-width="1.82561"/>
<path fill-rule="evenodd" clip-rule="evenodd" d="M262.746 190.052C254.406 254.225 206.07 282.265 150.075 297.147C100.51 283.552 47.1878 261.849 36.8516 190.374L262.746 190.052Z" fill="#A53D08"/>
<path fill-rule="evenodd" clip-rule="evenodd" d="M96.2517 33.9908L140.996 34.1542L140.676 13.0762L156.976 13.2395L157.136 34.1542H201.72L201.88 50.4937L157.136 50.6571L156.779 243.355L140.879 243.457L140.676 50.4936L96.2422 50.6571L96.2517 33.9908Z" fill="black"/>
<path fill-rule="evenodd" clip-rule="evenodd" d="M104.903 198.005L145.714 241.295C159.826 225.435 150.037 166.154 131.476 155.236C129.251 162.256 125.468 170.672 121.446 173.386C112.599 179.551 90.9174 186.759 98.1644 191.375C99.8171 189.035 104.14 186.825 106.174 192.026C108.59 200.215 97.1472 200.736 97.1472 200.736C97.1472 200.736 89.9003 199.825 88.6289 192.284C87.3575 184.746 99.4231 177.862 100.453 177.336C101.47 176.945 117.235 172.656 119.905 158.355C123.211 144.315 126.643 146.396 127.28 146.136C147.875 148.215 161.352 185.916 162.116 212.435C162.878 238.954 151.563 256.504 149.528 257.674C147.494 258.844 100.453 200.605 100.453 200.605L104.903 198.005Z" fill="#FF9A08" stroke="black" stroke-width="0.913692"/>
<path d="M134.652 157.706L134.906 235.834" stroke="black" stroke-width="0.913692"/>
<path d="M130.074 159.135C130.074 159.265 130.327 230.115 130.327 230.115" stroke="black" stroke-width="0.913692"/>
<path d="M125.117 169.405L125.37 225.824" stroke="black" stroke-width="0.913692"/>
<path d="M121.047 173.435L121.301 220.105" stroke="black" stroke-width="0.913692"/>
<path d="M116.727 175.516V214.905" stroke="black" stroke-width="0.913692"/>
<path d="M112.02 178.636V209.834" stroke="black" stroke-width="0.913692"/>
<path d="M107.953 181.105V205.024" stroke="black" stroke-width="0.913692"/>
<path d="M104.266 202.945L146.349 252.215" stroke="#FFDF00" stroke-width="0.913692" stroke-linecap="round"/>
<path d="M148.383 171.875C148.383 171.875 167.455 214.515 149.782 249.614" stroke="#FFDF00" stroke-width="1.71151" stroke-linecap="round"/>
<path d="M99.3086 193.975C99.3086 193.975 100.707 190.205 102.487 191.765" stroke="#FFDF00" stroke-width="1.71151" stroke-linecap="round"/>
<path d="M96.0012 183.055C96.0012 183.055 88.3727 189.944 92.5685 194.365" stroke="#FFDF00" stroke-width="1.71151" stroke-linecap="round"/>
<path d="M157.254 74.6201C160.079 72.1423 161.545 70.6278 163.294 70.9034C165.044 71.1784 167.426 71.0406 169.175 70.49C170.931 69.9389 179.613 68.8378 183.183 70.0767C184.395 70.2145 186.008 70.9034 188.497 73.0373C190.991 75.1706 194.626 78.8884 193.414 89.2134C192.202 99.5384 192.598 103.955 192.066 109.726C191.127 119.914 188.916 128.303 184.932 127.624C190.317 137.261 190.855 145.521 194.354 152.129C197.859 158.738 200.01 172.229 198.662 186.823C197.321 201.416 193.55 234.181 204.857 256.209C202.971 257.586 198.396 256.209 194.354 251.803C190.317 247.398 188.544 247.542 185.199 250.151C174.968 258.136 165.387 267.76 151.273 258.136C148.04 255.933 147.017 253.291 149.387 246.572C155.31 229.776 158.188 206.732 157.254 195.909V74.6201Z" fill="#008021" stroke="black" stroke-width="0.376519"/>
<path d="M166.962 64.2945C167.701 66.6351 168.103 69.6634 166.891 72.4168C165.679 75.1701 165.413 78.4746 167.429 82.4668C170.662 77.7863 175.242 78.7502 177.932 75.9968C180.627 73.2429 181.165 70.6273 183.186 70.0762C181.165 68.2868 178.068 66.3596 178.741 61.1279C179.415 55.8962 186.549 51.629 180.089 43.6433C175.916 38.489 169.852 39.9267 167.228 41.9228C165.993 42.8607 164.941 44.1939 164.539 45.0889C164.131 45.9839 164.639 48.0205 163.658 49.2195C162.99 50.045 162.175 50.8663 161.235 51.5595C160.632 52.0073 160.254 52.6593 160.898 53.4184C161.158 53.7218 161.631 53.7864 162.151 53.9707C161.849 54.5902 161.507 55.2078 161.17 55.6556C160.851 56.0756 160.987 56.4763 161.371 56.8184C160.862 58.47 161.844 58.6495 161.17 59.889C160.585 60.9604 159.793 62.2283 161.98 63.4684C162.582 63.8123 165.449 64.4922 166.962 64.2945Z" fill="#FFE1CF" stroke="black" stroke-width="0.376519"/>
<path d="M140.771 91.6909C137 92.6548 130.942 91.0031 126.362 91.5531C124.34 91.7972 122.727 90.7276 122.999 88.6626C123.265 86.597 123.537 83.4309 123.129 80.5397C122.502 76.0345 124.612 69.8013 127.573 62.9174C130.535 56.0341 132.018 52.1796 132.018 48.9441C132.018 46.8102 132.219 44.4007 134.104 43.1618C135.499 42.2463 135.765 41.3573 136.262 40.6152C137.402 38.894 138.478 38.4813 138.614 39.5141C138.697 40.1281 138.478 40.6841 137.94 41.5102C139.152 40.4774 141.209 39.2723 141.676 38.9285C142.148 38.5846 144.542 36.8635 144.672 38.4813C145.618 37.9996 146.256 38.0334 146.493 38.5495C146.747 39.1079 146.593 39.3418 146.12 39.7546C146.794 39.6168 147.568 40.8218 146.221 41.8885C146.93 41.6474 147.633 42.8524 146.392 43.9535C145.104 45.0902 143.632 45.8813 143.159 46.7757C142.686 47.6707 139.489 50.1835 138.212 50.7341C136.93 51.2846 136.865 52.0401 136.865 53.9691C136.865 75.1702 134.376 73.4479 134.376 78.5436C134.376 79.9203 134.104 81.1592 135.452 80.7458C136.8 80.333 138.75 79.7136 140.771 79.7136V91.6909Z" fill="#FFE1CF" stroke="black" stroke-width="0.376519"/>
<path d="M141.577 137.397C147.665 134.286 154.64 133.129 158.274 132.166C161.909 131.202 167.702 128.312 170.527 126.797C173.358 125.282 175.645 123.217 177.259 122.667C178.878 122.116 180.687 120.977 181.703 118.95C186.952 108.487 189.783 100.09 189.783 92.7921C189.783 87.9738 188.571 82.6043 183.991 86.4594C179.688 90.0829 175.001 97.0678 173.76 102.154C171.874 109.863 170.261 111.516 169.853 113.029C169.451 114.544 167.926 114.543 166.082 114.957C158.138 116.747 156.253 117.986 150.331 122.529C144.409 127.072 137.943 131.065 133.634 133.543C129.325 136.021 128.521 136.296 127.576 138.292C126.636 140.288 125.761 141.803 124.952 142.698C124.142 143.593 123.911 144.639 124.077 145.727C124.213 146.622 123.805 150.752 123.74 152.128C123.669 153.505 124.006 153.85 124.55 153.918C125.087 153.987 125.826 153.712 126.098 152.06C125.826 153.712 128.049 153.161 128.184 151.922C128.114 153.712 130.472 152.68 130.608 151.027C130.608 152.197 132.393 151.388 132.558 150.821C132.96 149.444 133.297 147.93 133.835 146.828C134.621 145.23 135.46 143.16 137.003 142.01C138.752 140.702 137.943 139.256 141.577 137.397Z" fill="#FFE1CF" stroke="black" stroke-width="0.376519"/>
<path d="M185.199 250.151C185.607 251.665 186.346 253.386 186.612 254.419C186.884 255.451 186.411 255.773 186.145 256.346C184.732 259.375 183.213 264.203 182.977 266.809C182.847 268.324 181.836 269.769 181.364 270.664C180.843 271.651 181.044 272.412 182.238 273.349C182.812 273.796 184.662 273.211 184.862 272.248C185.536 272.935 186.748 272.66 187.286 271.627C187.895 272.248 188.905 271.834 189.579 270.802C190.182 271.215 191.057 270.389 191.393 269.837C192.339 270.32 193.35 269.735 193.379 267.842C193.385 267.462 193.616 266.809 193.888 266.362C194.154 265.914 194.254 265.054 194.225 264.296C194.189 263.539 194.662 262.025 195.3 260.958C195.939 259.891 197.05 257.998 196.577 256.209C196.14 254.541 195.436 254.694 194.827 252.285C193.35 250.701 191.328 248.498 189.242 248.361C187.156 248.224 185.944 249.669 185.199 250.151Z" fill="#FFE1CF" stroke="black" stroke-width="0.376519"/>
<path d="M146.895 261.991C148.78 263.918 153.024 263.987 155.985 260.751C154.909 260.27 152.551 259.168 151.475 258.273C149.992 259.788 148.307 261.508 146.895 261.991Z" fill="#FFE1CF" stroke="black" stroke-width="0.376519"/>
<path d="M165.949 43.0932C166.688 38.206 170.075 38.3214 172.208 38.8254C173.083 39.0321 175.24 39.2382 177.256 38.6877C181.251 37.5992 184.26 39.0321 183.858 42.9561C184.933 43.7816 186.074 45.7088 185.873 47.3616C185.672 49.0133 186.009 49.7016 187.493 49.9077C188.97 50.115 192.138 51.9733 190.046 54.5888C192.067 55.8283 193.616 58.9944 192.54 61.1283C191.464 63.2622 188.231 63.6067 186.884 61.6789C185.406 62.3672 182.977 62.505 181.5 60.9222C180.489 62.1605 177.93 62.0233 177.457 60.9222C176.99 59.8205 176.192 59.2313 175.24 58.9255C174.159 58.5816 174.094 55.5527 175.707 55.2083C175.506 54.3132 175.577 53.2811 175.979 52.7994C176.381 52.3178 176.044 51.4227 175.104 50.6649C174.159 49.9077 173.355 47.0166 174.295 45.4338C172.681 45.9844 169.111 44.401 168.373 43.2999C167.628 42.1982 166.623 42.1299 165.949 43.0932Z" fill="#870F00" stroke="black" stroke-width="0.376519"/>
<path d="M166.961 64.2947C169.585 63.9503 170.46 62.2986 172.41 62.4358" stroke="black" stroke-width="0.376519"/>
<path d="M161.367 56.8184C161.539 56.9731 161.757 57.0994 162.006 57.239C162.537 57.5327 163.117 57.5665 163.655 57.6348" stroke="black" stroke-width="0.376519"/>
<path d="M162.148 53.9707C162.515 54.1 162.905 54.2886 163.254 54.6572" stroke="black" stroke-width="0.376519"/>
<path d="M168.236 43.0932C166.687 41.5787 170.86 38.4815 175.24 42.8865C176.055 43.709 178.13 43.7132 178.739 43.5059" stroke="black" stroke-width="0.376519"/>
<path d="M174.293 45.4338C176.314 44.9516 179.34 44.9515 180.215 47.2921C181.096 49.6327 182.845 48.1182 184.258 50.8722C185.67 53.6255 187.893 56.7227 190.044 54.5888" stroke="black" stroke-width="0.376519"/>
<path d="M181.501 60.9215C180.892 60.0954 180.626 58.3054 181.028 57.0659C180.218 56.1026 180.555 54.1065 181.028 53.1426" stroke="black" stroke-width="0.376519"/>
<path d="M175.707 55.208C175.778 56.0341 176.854 57.5486 178.538 57.8236" stroke="black" stroke-width="0.376519"/>
<path d="M186.884 61.6783C185.944 60.4394 186.074 59.3383 186.281 57.8232" stroke="black" stroke-width="0.376519"/>
<path d="M177.055 47.9805C176.99 49.2193 177.729 50.8716 179.005 51.4221C179.277 52.1099 180.625 54.0377 183.314 53.7627" stroke="black" stroke-width="0.376519"/>
<path d="M183.86 42.9554C182.382 41.783 180.378 40.3386 177.73 39.9814" stroke="black" stroke-width="0.376519"/>
<path d="M167.426 82.4668C165.139 85.6335 163.655 90.0385 164.737 96.2341C165.812 102.43 167.562 111.516 163.117 115.646" stroke="black" stroke-width="0.376519"/>
<path d="M184.933 127.623C181.836 126.935 177.391 126.935 174.968 128.725C172.545 130.514 168.502 130.652 165.812 129.275" stroke="black" stroke-width="0.376519"/>
<path d="M178.403 127.417C175.708 127.899 174.431 129.826 174.431 134.92C174.431 140.014 173.356 147.448 174.295 154.744" stroke="black" stroke-width="0.376519"/>
<path d="M173.486 129.551C171.737 130.032 169.923 130.101 170.259 134.92" stroke="black" stroke-width="0.376519"/>
<path d="M164.402 135.057C164.467 132.097 165.478 129.344 167.364 129.826" stroke="black" stroke-width="0.376519"/>
<path d="M183.787 135.608C183.923 129.069 182.51 127.21 180.625 127.279C183.184 127.348 184.928 127.668 186.009 138.361C186.819 146.346 188.45 149.173 190.318 155.433C195.165 171.678 192.741 196.734 195.165 205.546" stroke="black" stroke-width="0.376519"/>
<path d="M180.089 137.535C185.201 152.68 187.896 169.475 179.551 196.459C185.201 212.429 190.857 223.993 191.933 230.602" stroke="black" stroke-width="0.376519"/>
<path d="M163.929 173.33C164.869 169.889 161.506 169.476 164.467 157.361C165.749 152.113 165.95 148.963 165.141 147.311" stroke="black" stroke-width="0.376519"/>
<path d="M165.138 154.47C163.926 159.839 169.045 169.889 166.486 177.185" stroke="black" stroke-width="0.376519"/>
<path d="M160.156 178.562C160.156 183.242 161.232 189.3 160.966 193.981C160.694 198.662 162.562 200.831 164.737 205.27C172.544 221.24 177.858 232.634 177.119 247.673C176.989 250.426 177.929 256.209 175.104 257.86" stroke="black" stroke-width="0.376519"/>
<path d="M160.359 261.922C161.169 261.991 162.044 261.578 163.054 259.1C164.065 256.622 167.298 241.753 165.951 231.565" stroke="black" stroke-width="0.376519"/>
<path d="M167.563 243.13C167.965 246.296 167.965 252.767 165.949 257.86" stroke="black" stroke-width="0.376519"/>
<path d="M172.68 233.63C173.891 240.376 173.755 246.434 172.816 250.701" stroke="black" stroke-width="0.376519"/>
<path d="M169.986 250.701C170.122 253.455 171.334 260.338 169.312 260.89" stroke="black" stroke-width="0.376519"/>
<path d="M180.086 218.762C185.063 226.747 188.969 246.434 193.142 250.564" stroke="black" stroke-width="0.376519"/>
<path d="M184.398 247.397C184.262 245.195 184.126 242.166 182.914 240.789" stroke="black" stroke-width="0.376519"/>
<path d="M130.605 151.028C130.67 149.513 130.405 148.068 132.018 145.728" stroke="black" stroke-width="0.376519"/>
<path d="M128.184 151.923C128.385 146.622 128.314 146.14 129.797 144.694" stroke="black" stroke-width="0.376519"/>
<path d="M126.097 152.06C126.162 148.274 125.689 146.966 127.172 144.557" stroke="black" stroke-width="0.376519"/>
<path d="M144.673 38.4814C144.1 38.8598 140.737 41.4753 139.324 42.577" stroke="black" stroke-width="0.376519"/>
<path d="M146.118 39.7549C145.48 39.8576 143.63 41.4071 140.332 44.0227" stroke="black" stroke-width="0.376519"/>
<path d="M146.222 41.8887C145.181 42.3703 143.195 44.3326 141.375 45.6404" stroke="black" stroke-width="0.376519"/>
<path d="M137.943 41.5098C137.44 41.8881 136.465 42.9898 135.992 43.3681" stroke="black" stroke-width="0.376519"/>
<path d="M184.863 272.248C184.562 271.903 184.562 270.698 185.099 269.356" stroke="black" stroke-width="0.376519"/>
<path d="M187.284 271.628C186.918 271.25 187.284 269.598 187.657 268.53" stroke="black" stroke-width="0.376519"/>
<path d="M189.578 270.803C189.141 270.596 189.005 269.632 189.643 268.324" stroke="black" stroke-width="0.376519"/>
<path d="M191.394 269.837C191.092 269.735 190.956 269.218 191.494 267.704" stroke="black" stroke-width="0.376519"/>
<path d="M164.902 47.43C165.877 48.7378 166.888 48.5994 167.065 49.4425C167.242 50.2867 167.372 50.3465 167.562 50.5967C167.751 50.8463 167.101 50.7962 166.781 50.6614C166.468 50.5266 165.676 50.5405 165.191 50.5478C164.713 50.555 164.14 49.9761 164.5 49.9078C164.855 49.8401 164.807 49.7259 164.754 49.469C164.701 49.2128 164.955 48.8073 165.103 48.733C165.257 48.6586 165.15 48.6725 165.014 48.3287C164.872 47.9842 164.695 47.1484 164.902 47.43Z" fill="black"/>
<path d="M165.494 46.2325C166.587 46.3636 168.472 46.9673 169.495 48.1246C170.299 49.0347 169.643 48.7936 169.235 48.8275C168.827 48.8625 168.029 48.567 167.627 48.0497C167.231 47.533 166.043 46.8779 165.411 46.7075C165.027 46.6059 164.666 46.1328 165.494 46.2325Z" fill="black"/>
</svg>
