<svg width="300" height="300" viewBox="0 0 300 300" fill="none" xmlns="http://www.w3.org/2000/svg">
<g clip-path="url(#clip0_186_20531)">
<path d="M242.832 283.825L268.014 254.197C214.909 254.197 184.423 224.1 184.423 224.1C175.415 235.65 163.062 244.77 149.714 248.173C136.366 244.77 124.012 235.65 115.004 224.1C115.004 224.1 84.5186 254.197 31.4141 254.197L56.5954 283.825L103.155 280.463L148.874 288.027L196.273 280.463L242.832 283.825Z" fill="#FFCE00" stroke="black" stroke-width="0.630209"/>
<path d="M54.243 264.701C49.0894 266.495 51.5537 269.409 51.5537 269.409L60.517 272.548L54.243 264.701ZM245.181 264.701L238.907 272.548L247.87 269.409C247.87 269.409 250.334 266.495 245.181 264.701Z" fill="#CC6633" stroke="black" stroke-width="0.630209"/>
<path d="M191.403 284.653C195.885 283.084 207.088 281.29 220.308 284.877C233.529 288.464 241.147 286.671 242.437 283.817C243.728 280.963 247.869 269.409 247.869 269.409C247.869 269.409 241.087 273.479 226.358 270.53C211.629 267.58 194.929 266.042 186.25 268.96C177.571 271.879 179.752 278.152 179.752 278.152L191.403 284.653Z" fill="white" stroke="black" stroke-width="0.630209"/>
<path d="M108.02 284.653C103.539 283.084 92.3354 281.29 79.1153 284.877C65.8952 288.464 58.2768 286.671 56.9864 283.817C55.696 280.963 51.5547 269.409 51.5547 269.409C51.5547 269.409 58.3365 273.479 73.0654 270.53C87.7943 267.58 104.495 266.042 113.174 268.96C121.853 271.879 119.672 278.152 119.672 278.152L108.02 284.653Z" fill="white" stroke="black" stroke-width="0.630209"/>
<path d="M119.448 274.117C117.655 277.479 110.484 278.375 110.484 278.375L111.073 281.631L120.792 282.635C121.577 278.263 119.448 274.117 119.448 274.117ZM179.975 274.117C179.975 274.117 177.846 278.263 178.63 282.635L188.35 281.631L188.938 278.375C188.938 278.375 181.768 277.479 179.975 274.117Z" fill="#CC6633" stroke="black" stroke-width="0.630209" stroke-linejoin="round"/>
<path d="M113.624 297.207C108.022 296.086 106.454 293.844 107.126 289.585C107.798 285.326 110.487 278.376 110.487 278.376C112.44 280.085 114.342 280.628 121.243 281.739C128.143 282.85 142.305 282.86 149.714 282.86C157.123 282.86 171.285 282.85 178.186 281.739C185.087 280.628 186.988 280.085 188.941 278.376C188.941 278.376 191.63 285.326 192.302 289.585C192.974 293.844 191.406 296.086 185.804 297.207C180.202 298.328 164.966 299.001 149.714 299.001C134.463 299.001 119.226 298.328 113.624 297.207Z" fill="white" stroke="black" stroke-width="0.630209" stroke-linejoin="round"/>
<path d="M64.9964 284.127C64.3494 284.159 63.7772 284.108 63.2796 283.975C62.7864 283.837 62.3691 283.642 62.0278 283.39C61.6909 283.134 61.4306 282.834 61.2469 282.49C61.063 282.143 60.9615 281.775 60.9424 281.386L60.656 275.575C60.651 275.473 60.6145 275.391 60.5466 275.33C60.4834 275.268 60.4096 275.228 60.3253 275.209L59.3603 274.943L59.3359 274.451L63.9455 274.223L63.9698 274.716L63.0356 275.075C62.9535 275.102 62.8842 275.152 62.8275 275.224C62.7707 275.292 62.7446 275.374 62.7494 275.471L63.004 280.638C63.0122 280.804 63.0324 280.979 63.0646 281.163C63.0966 281.342 63.1472 281.523 63.2164 281.705C63.2853 281.882 63.377 282.049 63.4912 282.206C63.6055 282.362 63.7489 282.499 63.9214 282.615C64.0939 282.732 64.2998 282.822 64.5391 282.884C64.7784 282.946 65.0575 282.97 65.3764 282.954C65.6906 282.939 65.9684 282.888 66.2096 282.801C66.4509 282.715 66.6563 282.606 66.8257 282.472C66.9996 282.334 67.1426 282.181 67.2548 282.013C67.3667 281.841 67.4529 281.662 67.5134 281.479C67.5784 281.295 67.6202 281.11 67.6388 280.923C67.662 280.737 67.6695 280.561 67.6613 280.394L67.4094 275.283C67.4044 275.181 67.368 275.102 67.3004 275.045C67.2374 274.988 67.1659 274.947 67.086 274.923L66.1255 274.609L66.1012 274.117L69.6363 273.942L69.6607 274.435L68.7288 274.842C68.647 274.874 68.5777 274.924 68.5208 274.992C68.4636 275.055 68.4375 275.135 68.4423 275.232L68.7122 280.71C68.7314 281.099 68.6886 281.453 68.5839 281.773C68.479 282.089 68.3309 282.372 68.1394 282.623C67.9525 282.873 67.7293 283.09 67.4697 283.274C67.2145 283.454 66.9464 283.606 66.6653 283.731C66.3841 283.852 66.0991 283.944 65.8105 284.009C65.5219 284.075 65.2505 284.114 64.9964 284.127Z" fill="black"/>
<path d="M73.7047 276.478L72.8835 275.598L72.8425 275.605L73.9126 281.797C73.9298 281.897 73.9687 281.973 74.0292 282.023C74.0941 282.073 74.175 282.106 74.2717 282.122L75.27 282.316L75.354 282.802L71.8116 283.414L71.7276 282.929L72.6099 282.41C72.6864 282.363 72.7469 282.306 72.7914 282.237C72.8396 282.163 72.8555 282.078 72.8389 281.982L71.5998 274.812C71.5825 274.711 71.5387 274.634 71.4683 274.581C71.398 274.527 71.3221 274.496 71.2407 274.486L70.1855 274.331L70.1016 273.845L73.3089 273.29L78.4417 278.497L79.2007 279.303L79.2417 279.297L78.271 273.68C78.2537 273.579 78.213 273.507 78.1487 273.461C78.0891 273.415 78.0083 273.382 77.9063 273.362L76.9079 273.169L76.8239 272.683L80.3732 272.069L80.4571 272.555L79.5749 273.074C79.4983 273.12 79.4355 273.178 79.3865 273.247C79.3375 273.317 79.3213 273.4 79.3378 273.495L80.5167 280.317L80.5906 281.967L79.3459 282.182L73.7047 276.478Z" fill="black"/>
<path d="M82.8144 280.988L83.7308 280.524C83.817 280.477 83.8804 280.42 83.9211 280.352C83.9656 280.279 83.9798 280.193 83.9636 280.092L82.7971 272.846C82.7809 272.746 82.738 272.668 82.6683 272.614C82.5986 272.559 82.5231 272.527 82.4418 272.517L81.426 272.364L81.3477 271.877L85.9452 271.136L86.0236 271.623L85.114 272.086C85.0354 272.122 84.9697 272.18 84.9168 272.258C84.8677 272.332 84.8509 272.417 84.8663 272.513L86.0328 279.759C86.0497 279.864 86.093 279.943 86.1627 279.998C86.2317 280.048 86.3117 280.079 86.4029 280.093L87.4119 280.247L87.4902 280.733L82.8927 281.474L82.8144 280.988Z" fill="black"/>
<path d="M90.1157 279.921L91.1457 279.493C91.24 279.46 91.3091 279.409 91.353 279.339C91.4015 279.269 91.4205 279.183 91.41 279.082L90.6233 271.506L88.6008 271.716C88.5133 271.726 88.449 271.756 88.4078 271.806C88.3707 271.851 88.3447 271.915 88.3298 271.996L87.9898 273.56L87.3478 273.626L87.0703 270.954L96.0855 270.017L96.3631 272.689L95.7211 272.756L95.067 271.295C95.0364 271.224 94.9957 271.168 94.9449 271.127C94.8987 271.085 94.8364 271.068 94.7582 271.076L92.708 271.289L93.4947 278.865C93.5053 278.966 93.5438 279.046 93.6103 279.104C93.6814 279.162 93.7596 279.198 93.8448 279.213L94.9409 279.42L94.9911 279.904L90.1659 280.405L90.1157 279.921Z" fill="black"/>
<path d="M98.8908 279.304L99.9776 279.062C100.067 279.04 100.142 278.999 100.201 278.938C100.266 278.877 100.301 278.796 100.308 278.694L100.481 276.041L98.1227 271.161C98.082 271.075 98.0315 270.996 97.9714 270.922C97.9162 270.844 97.8437 270.784 97.7538 270.741L97.0508 270.43L97.0829 269.938L101.425 270.223L101.393 270.714L100.207 270.978L101.778 274.184L102.159 275.065L102.2 275.068L104.683 271.355L103.602 270.86L103.634 270.368L106.792 270.574L106.76 271.066L106.033 271.339C105.952 271.37 105.872 271.421 105.793 271.49C105.719 271.56 105.657 271.632 105.605 271.707L102.576 276.123L102.399 278.832C102.392 278.938 102.414 279.025 102.466 279.094C102.517 279.157 102.586 279.206 102.672 279.239L103.725 279.621L103.692 280.113L98.8587 279.797L98.8908 279.304Z" fill="black"/>
<path d="M118.385 294.45L119.361 294.2C119.451 294.178 119.525 294.136 119.585 294.075C119.644 294.014 119.677 293.932 119.684 293.831L120.154 286.506C120.16 286.405 120.136 286.32 120.08 286.251C120.029 286.183 119.962 286.135 119.881 286.106L118.945 285.733L118.976 285.241L123.61 285.539L123.578 286.031L122.582 286.28C122.492 286.302 122.415 286.343 122.351 286.404C122.287 286.465 122.252 286.544 122.245 286.641L121.758 294.236L125.076 294.448C125.117 294.451 125.155 294.442 125.189 294.421C125.222 294.4 125.252 294.374 125.277 294.343C125.307 294.312 125.33 294.279 125.346 294.243C125.367 294.203 125.384 294.164 125.395 294.128L126.051 292.25L126.695 292.291L126.492 295.465L118.354 294.942L118.385 294.45Z" fill="black"/>
<path d="M127.493 294.98L128.485 294.713C128.579 294.684 128.653 294.641 128.706 294.584C128.765 294.521 128.796 294.439 128.801 294.338L129.135 287.006C129.139 286.904 129.113 286.82 129.056 286.752C128.999 286.685 128.931 286.638 128.854 286.611L127.89 286.254L127.913 285.762L132.565 285.974L132.542 286.466L131.558 286.734C131.473 286.752 131.397 286.795 131.329 286.863C131.266 286.925 131.233 287.004 131.228 287.101L130.895 294.433C130.89 294.539 130.916 294.626 130.973 294.694C131.03 294.756 131.102 294.804 131.189 294.835L132.145 295.192L132.123 295.684L127.471 295.472L127.493 294.98Z" fill="black"/>
<path d="M133.43 295.24L134.396 294.954C134.49 294.929 134.563 294.885 134.615 294.822C134.673 294.759 134.703 294.676 134.706 294.574L134.913 287.238C134.916 287.136 134.89 287.052 134.836 286.986C134.783 286.919 134.712 286.873 134.625 286.848L133.677 286.508L133.69 286.015L138.102 286.14C138.838 286.161 139.437 286.239 139.901 286.371C140.369 286.505 140.737 286.677 141.004 286.889C141.272 287.095 141.452 287.33 141.547 287.592C141.641 287.849 141.685 288.117 141.677 288.394C141.668 288.7 141.607 288.98 141.494 289.236C141.384 289.493 141.232 289.72 141.037 289.918C140.846 290.112 140.615 290.279 140.342 290.42C140.07 290.555 139.764 290.66 139.424 290.734L139.423 290.763C139.843 290.798 140.223 290.88 140.562 291.01C140.905 291.135 141.197 291.301 141.436 291.507C141.681 291.713 141.868 291.957 141.999 292.238C142.13 292.52 142.191 292.832 142.181 293.174C142.17 293.544 142.106 293.871 141.987 294.155C141.868 294.434 141.71 294.675 141.515 294.878C141.32 295.076 141.088 295.241 140.821 295.373C140.558 295.504 140.272 295.609 139.965 295.689C139.662 295.764 139.343 295.815 139.009 295.842C138.68 295.865 138.349 295.872 138.016 295.861L133.416 295.732L133.43 295.24ZM137.468 290.422C137.829 290.433 138.133 290.406 138.38 290.343C138.631 290.281 138.833 290.185 138.985 290.055C139.142 289.921 139.255 289.759 139.325 289.571C139.4 289.379 139.441 289.16 139.448 288.915C139.466 288.272 139.335 287.803 139.057 287.508C138.778 287.213 138.341 287.057 137.744 287.04L137.009 287.02L136.913 290.407L137.468 290.422ZM138.041 294.953C138.647 294.97 139.104 294.848 139.413 294.589C139.721 294.329 139.883 293.894 139.901 293.283C139.911 292.927 139.878 292.625 139.801 292.377C139.73 292.13 139.61 291.927 139.443 291.77C139.281 291.612 139.067 291.495 138.801 291.418C138.534 291.341 138.216 291.298 137.846 291.287L136.889 291.259L136.786 294.917L138.041 294.953Z" fill="black"/>
<path d="M142.552 295.501L143.512 295.195C143.596 295.168 143.665 295.122 143.721 295.058C143.782 294.994 143.813 294.91 143.813 294.809L143.862 287.469C143.863 287.368 143.833 287.284 143.774 287.219C143.719 287.154 143.65 287.109 143.566 287.086L142.611 286.767L142.614 286.274L150.671 286.327L150.654 288.938L149.995 288.933L149.504 287.493C149.477 287.419 149.443 287.358 149.402 287.312C149.36 287.265 149.3 287.241 149.222 287.241L145.96 287.219L145.938 290.503L147.902 290.516C147.994 290.517 148.059 290.499 148.097 290.462C148.139 290.421 148.174 290.363 148.202 290.289L148.633 289.167L149.202 289.171L149.178 292.789L148.609 292.785L148.193 291.671C148.165 291.601 148.131 291.543 148.09 291.497C148.053 291.445 147.988 291.419 147.896 291.419L145.932 291.406L145.907 295.093L149.738 295.118C149.817 295.119 149.879 295.096 149.926 295.05C149.972 295.004 150.008 294.942 150.031 294.864L150.521 293.249L151.173 293.253L151.155 296.052L142.549 295.995L142.552 295.501Z" fill="black"/>
<path d="M152.022 295.559L152.975 295.231C153.058 295.202 153.127 295.155 153.181 295.089C153.24 295.023 153.269 294.94 153.267 294.838L153.149 287.5C153.148 287.398 153.116 287.315 153.055 287.251C152.994 287.187 152.924 287.144 152.845 287.122L151.882 286.826L151.874 286.333L156.371 286.26C156.875 286.253 157.318 286.28 157.698 286.343C158.083 286.402 158.413 286.487 158.688 286.598C158.967 286.709 159.198 286.842 159.381 286.997C159.564 287.146 159.71 287.311 159.82 287.489C159.929 287.668 160.006 287.855 160.051 288.048C160.095 288.242 160.119 288.436 160.122 288.63C160.129 289.024 160.067 289.365 159.938 289.654C159.813 289.943 159.652 290.194 159.457 290.405C159.261 290.612 159.044 290.784 158.806 290.922C158.572 291.056 158.349 291.159 158.137 291.232L160.517 294.617C160.555 294.667 160.599 294.72 160.651 294.775C160.703 294.829 160.759 294.882 160.82 294.932C160.881 294.981 160.942 295.024 161.003 295.06C161.068 295.097 161.129 295.121 161.185 295.134L162.147 295.396L162.155 295.889L159.809 295.927C159.592 295.93 159.413 295.916 159.274 295.887C159.135 295.857 159.014 295.808 158.911 295.74C158.808 295.668 158.714 295.577 158.629 295.467C158.544 295.352 158.449 295.215 158.344 295.055L156.246 291.901L155.312 291.666L155.363 294.804C155.364 294.91 155.391 294.996 155.443 295.06C155.5 295.119 155.572 295.162 155.661 295.188L156.713 295.484L156.721 295.977L152.03 296.052L152.022 295.559ZM156.259 290.957C156.541 290.952 156.785 290.895 156.992 290.785C157.198 290.67 157.367 290.522 157.498 290.339C157.634 290.156 157.733 289.949 157.794 289.717C157.86 289.484 157.89 289.247 157.887 289.007C157.876 288.359 157.714 287.889 157.399 287.598C157.089 287.307 156.647 287.165 156.073 287.175L155.241 287.188L155.3 290.896C155.342 290.905 155.405 290.912 155.488 290.919C155.571 290.922 155.662 290.928 155.759 290.937C155.856 290.944 155.949 290.949 156.037 290.954C156.129 290.957 156.203 290.957 156.259 290.957Z" fill="black"/>
<path d="M163.775 295.321L164.83 294.958C164.926 294.931 164.998 294.884 165.046 294.817C165.099 294.75 165.124 294.665 165.119 294.564L164.81 286.953L162.778 287.036C162.69 287.039 162.624 287.065 162.579 287.113C162.54 287.157 162.51 287.218 162.49 287.298L162.052 288.837L161.407 288.865L161.298 286.18L170.354 285.811L170.464 288.496L169.819 288.524L169.258 287.025C169.232 286.951 169.194 286.893 169.146 286.848C169.103 286.804 169.042 286.783 168.963 286.786L166.904 286.871L167.214 294.481C167.218 294.583 167.251 294.665 167.314 294.727C167.381 294.79 167.457 294.831 167.541 294.85L168.622 295.126L168.642 295.611L163.795 295.809L163.775 295.321Z" fill="black"/>
<path d="M174.352 294.87L175.397 294.486C175.483 294.452 175.551 294.401 175.602 294.333C175.658 294.264 175.682 294.179 175.675 294.077L175.496 291.424L172.512 286.901C172.461 286.821 172.4 286.748 172.331 286.683C172.266 286.613 172.186 286.563 172.091 286.532L171.353 286.318L171.32 285.826L175.661 285.532L175.695 286.024L174.554 286.442L176.536 289.412L177.029 290.235L177.071 290.232L179.04 286.222L177.903 285.875L177.87 285.383L181.028 285.169L181.061 285.661L180.376 286.027C180.3 286.07 180.228 286.13 180.159 286.209C180.095 286.288 180.042 286.368 180.001 286.45L177.583 291.227L177.766 293.936C177.774 294.042 177.807 294.126 177.867 294.187C177.926 294.243 178.001 294.282 178.09 294.304L179.185 294.543L179.218 295.035L174.385 295.362L174.352 294.87Z" fill="black"/>
<path d="M192.5 281.844C192.422 281.853 192.326 281.857 192.214 281.857C192.099 281.859 191.978 281.858 191.854 281.855C191.73 281.851 191.608 281.84 191.49 281.824C191.369 281.809 191.263 281.792 191.172 281.774L191.181 280.317L191.465 280.281C191.578 280.326 191.71 280.373 191.86 280.422C192.011 280.474 192.165 280.52 192.322 280.559C192.479 280.598 192.633 280.628 192.783 280.65C192.934 280.669 193.064 280.672 193.174 280.659C193.269 280.646 193.345 280.617 193.403 280.571C193.461 280.529 193.498 280.459 193.514 280.362C193.531 280.277 193.538 280.166 193.536 280.028C193.534 279.894 193.526 279.732 193.514 279.54C193.501 279.352 193.482 279.141 193.456 278.908C193.434 278.674 193.405 278.417 193.369 278.138L192.588 272.088C192.577 272.002 192.542 271.936 192.484 271.888C192.43 271.839 192.364 271.81 192.287 271.8L191.344 271.652L191.291 271.239L195.315 270.738L195.369 271.152L194.594 271.514C194.522 271.547 194.464 271.594 194.42 271.654C194.38 271.714 194.365 271.785 194.377 271.867L195.165 277.975C195.235 278.515 195.216 279.01 195.106 279.462C195.001 279.913 194.823 280.306 194.575 280.64C194.331 280.978 194.03 281.25 193.673 281.457C193.316 281.663 192.925 281.791 192.5 281.844Z" fill="black"/>
<path d="M200.723 279.248C200.178 279.254 199.698 279.192 199.283 279.063C198.873 278.929 198.528 278.748 198.249 278.521C197.974 278.291 197.764 278.025 197.62 277.725C197.477 277.422 197.403 277.103 197.399 276.77L197.342 271.783C197.341 271.695 197.313 271.624 197.258 271.57C197.206 271.515 197.146 271.478 197.075 271.458L196.272 271.2L196.266 270.778L200.15 270.732L200.157 271.154L199.359 271.432C199.289 271.453 199.229 271.493 199.18 271.553C199.13 271.609 199.105 271.679 199.106 271.762L199.157 276.196C199.158 276.338 199.17 276.489 199.191 276.647C199.213 276.802 199.249 276.958 199.302 277.116C199.354 277.27 199.426 277.416 199.517 277.554C199.609 277.692 199.725 277.814 199.866 277.919C200.008 278.025 200.178 278.108 200.378 278.169C200.577 278.23 200.811 278.259 201.08 278.256C201.344 278.252 201.58 278.217 201.785 278.152C201.991 278.086 202.167 277.999 202.314 277.89C202.465 277.777 202.59 277.651 202.689 277.511C202.789 277.367 202.867 277.217 202.924 277.061C202.985 276.906 203.026 276.749 203.047 276.59C203.073 276.431 203.084 276.28 203.083 276.137L203.033 271.751C203.031 271.664 203.003 271.595 202.948 271.544C202.897 271.493 202.838 271.456 202.772 271.433L201.974 271.133L201.967 270.71L204.947 270.675L204.953 271.097L204.156 271.416C204.086 271.441 204.026 271.481 203.976 271.537C203.926 271.59 203.901 271.657 203.903 271.741L203.957 276.442C203.961 276.776 203.914 277.078 203.815 277.349C203.717 277.616 203.583 277.853 203.414 278.062C203.249 278.27 203.054 278.449 202.83 278.598C202.61 278.744 202.38 278.866 202.139 278.964C201.899 279.058 201.656 279.128 201.411 279.175C201.166 279.221 200.937 279.245 200.723 279.248Z" fill="black"/>
<path d="M207.895 279.379C207.662 279.358 207.424 279.32 207.182 279.266C206.944 279.216 206.707 279.156 206.47 279.086C206.234 279.017 206 278.94 205.769 278.855C205.538 278.77 205.316 278.683 205.105 278.596L205.224 276.204L205.775 276.255L206.124 277.459C206.135 277.488 206.148 277.517 206.164 277.546C206.185 277.576 206.206 277.608 206.227 277.641C206.252 277.672 206.275 277.7 206.297 277.725C206.322 277.752 206.344 277.772 206.363 277.785C206.482 277.88 206.62 277.973 206.779 278.063C206.939 278.149 207.101 278.228 207.265 278.299C207.435 278.366 207.599 278.423 207.757 278.47C207.917 278.517 208.059 278.546 208.186 278.557C208.419 278.579 208.633 278.565 208.829 278.515C209.028 278.465 209.201 278.388 209.346 278.281C209.491 278.175 209.607 278.046 209.692 277.895C209.782 277.744 209.835 277.575 209.852 277.39C209.867 277.232 209.856 277.089 209.819 276.963C209.787 276.836 209.73 276.719 209.648 276.612C209.566 276.505 209.462 276.408 209.335 276.32C209.212 276.229 209.064 276.14 208.893 276.052C208.741 275.978 208.588 275.911 208.434 275.849C208.285 275.787 208.135 275.727 207.985 275.669C207.835 275.612 207.685 275.552 207.535 275.49C207.39 275.429 207.244 275.362 207.1 275.289C206.868 275.168 206.662 275.025 206.482 274.861C206.306 274.698 206.161 274.517 206.048 274.319C205.935 274.118 205.853 273.903 205.803 273.675C205.752 273.443 205.739 273.201 205.762 272.948C205.785 272.707 205.843 272.481 205.938 272.271C206.033 272.061 206.156 271.871 206.307 271.701C206.463 271.529 206.64 271.378 206.839 271.248C207.038 271.116 207.257 271.008 207.496 270.927C207.735 270.841 207.987 270.783 208.253 270.751C208.519 270.715 208.792 270.711 209.072 270.739C209.317 270.761 209.561 270.796 209.804 270.842C210.047 270.884 210.281 270.934 210.507 270.99C210.737 271.047 210.952 271.109 211.153 271.176C211.358 271.242 211.543 271.309 211.708 271.376L211.501 273.616L210.956 273.566L210.636 272.437C210.622 272.379 210.589 272.325 210.538 272.272C210.491 272.216 210.448 272.17 210.407 272.135C210.33 272.068 210.231 272.003 210.109 271.94C209.987 271.877 209.857 271.821 209.718 271.772C209.58 271.72 209.44 271.677 209.3 271.644C209.163 271.612 209.042 271.591 208.935 271.581C208.722 271.562 208.528 271.576 208.352 271.623C208.181 271.667 208.031 271.735 207.903 271.827C207.779 271.919 207.681 272.03 207.61 272.159C207.539 272.284 207.497 272.415 207.484 272.554C207.471 272.7 207.476 272.84 207.497 272.973C207.521 273.103 207.571 273.225 207.648 273.34C207.725 273.455 207.83 273.564 207.964 273.668C208.098 273.768 208.267 273.863 208.47 273.954C208.611 274.019 208.753 274.08 208.895 274.136C209.037 274.194 209.179 274.253 209.321 274.313C209.467 274.37 209.614 274.432 209.764 274.498C209.913 274.563 210.069 274.637 210.233 274.72C210.427 274.822 210.614 274.945 210.796 275.089C210.978 275.234 211.136 275.401 211.27 275.593C211.403 275.785 211.505 276.003 211.573 276.249C211.643 276.49 211.664 276.759 211.638 277.055C211.607 277.387 211.508 277.707 211.34 278.014C211.177 278.318 210.94 278.581 210.629 278.803C210.321 279.026 209.94 279.192 209.483 279.301C209.031 279.411 208.503 279.436 207.895 279.379Z" fill="black"/>
<path d="M213.295 279.659L214.245 279.549C214.33 279.545 214.399 279.518 214.452 279.471C214.509 279.424 214.544 279.358 214.56 279.272L215.695 272.843L213.978 272.539C213.904 272.527 213.844 272.536 213.798 272.568C213.757 272.597 213.72 272.643 213.689 272.706L213.041 273.915L212.496 273.818L212.897 271.55L220.547 272.902L220.147 275.17L219.602 275.074L219.407 273.716C219.398 273.65 219.378 273.594 219.346 273.548C219.317 273.503 219.27 273.474 219.204 273.463L217.464 273.155L216.329 279.585C216.312 279.671 216.325 279.745 216.368 279.809C216.413 279.874 216.469 279.922 216.536 279.954L217.39 280.383L217.318 280.793L213.223 280.069L213.295 279.659Z" fill="black"/>
<path d="M219.884 280.96L220.758 280.854C220.841 280.841 220.909 280.814 220.961 280.771C221.018 280.726 221.055 280.66 221.071 280.574L222.249 274.395C222.266 274.309 222.254 274.234 222.213 274.17C222.173 274.106 222.122 274.057 222.059 274.025L221.286 273.605L221.365 273.19L225.286 273.938L225.207 274.353L224.338 274.46C224.265 274.466 224.195 274.493 224.129 274.541C224.068 274.586 224.03 274.65 224.014 274.731L222.836 280.911C222.819 281 222.831 281.077 222.871 281.142C222.912 281.202 222.967 281.251 223.037 281.289L223.805 281.708L223.726 282.123L219.805 281.375L219.884 280.96Z" fill="black"/>
<path d="M228.303 283.12C227.685 283.045 227.138 282.878 226.662 282.62C226.186 282.358 225.794 282.022 225.484 281.613C225.175 281.199 224.956 280.715 224.828 280.16C224.7 279.604 224.677 278.994 224.758 278.328C224.811 277.895 224.908 277.493 225.049 277.123C225.19 276.752 225.367 276.418 225.579 276.12C225.791 275.818 226.035 275.556 226.31 275.334C226.585 275.108 226.885 274.927 227.209 274.79C227.534 274.65 227.877 274.554 228.239 274.502C228.605 274.451 228.983 274.449 229.373 274.496C229.577 274.521 229.806 274.565 230.058 274.628C230.31 274.687 230.562 274.753 230.812 274.828C231.067 274.903 231.305 274.982 231.527 275.065C231.753 275.144 231.941 275.219 232.092 275.29L231.834 277.411L231.29 277.344L231.025 276.227C231.008 276.161 230.979 276.105 230.938 276.06C230.895 276.015 230.852 275.976 230.808 275.942C230.592 275.784 230.366 275.652 230.131 275.548C229.897 275.439 229.638 275.368 229.354 275.333C229.02 275.292 228.704 275.326 228.407 275.433C228.115 275.538 227.853 275.717 227.622 275.973C227.396 276.225 227.205 276.55 227.048 276.946C226.892 277.343 226.781 277.809 226.716 278.345C226.648 278.904 226.647 279.405 226.713 279.849C226.778 280.293 226.909 280.677 227.106 281C227.302 281.324 227.56 281.581 227.88 281.772C228.201 281.963 228.579 282.086 229.016 282.139C229.296 282.173 229.547 282.174 229.771 282.141C229.999 282.105 230.205 282.052 230.39 281.983C230.578 281.91 230.746 281.827 230.894 281.733C231.045 281.639 231.181 281.552 231.303 281.471L231.622 281.51L231.536 282.219C231.357 282.341 231.146 282.463 230.904 282.585C230.661 282.704 230.397 282.809 230.11 282.902C229.827 282.995 229.531 283.063 229.222 283.105C228.917 283.152 228.61 283.158 228.303 283.12Z" fill="black"/>
<path d="M232.444 283.14L233.208 282.917C233.275 282.898 233.331 282.862 233.378 282.808C233.428 282.756 233.456 282.686 233.461 282.599L233.82 276.318C233.824 276.231 233.805 276.158 233.762 276.1C233.722 276.042 233.669 276.001 233.606 275.977L232.872 275.665L232.897 275.243L239.201 275.621L239.075 277.856L238.559 277.823L238.238 276.57C238.219 276.505 238.195 276.452 238.166 276.41C238.136 276.369 238.09 276.346 238.028 276.343L235.476 276.19L235.315 279L236.852 279.093C236.924 279.097 236.976 279.084 237.007 279.054C237.041 279.021 237.071 278.973 237.097 278.911L237.483 277.968L237.928 277.993L237.751 281.089L237.306 281.064L237.029 280.093C237.01 280.032 236.986 279.981 236.956 279.94C236.93 279.894 236.88 279.87 236.808 279.865L235.271 279.772L235.09 282.927L238.088 283.107C238.149 283.111 238.199 283.095 238.237 283.057C238.276 283.019 238.306 282.967 238.328 282.901L238.782 281.539L239.293 281.571L239.155 283.965L232.422 283.562L232.444 283.14Z" fill="black"/>
<path d="M123.554 249.494C121.657 250.475 120.105 251.574 118.717 252.682C116.149 253.382 114.528 252.703 110.36 251.174C105.587 249.423 104.792 249.582 99.2228 253.085C97.9383 253.892 96.8401 254.509 95.8346 254.947C97.3731 255.693 99.1014 256.359 101.45 256.428C106.86 256.587 111.156 253.562 111.156 253.562C111.156 253.562 113.915 254.716 117.185 254.349C113.372 257.632 110.54 260.262 104.368 260.262C95.3338 260.262 81.7117 254.564 81.7117 254.564C81.7117 254.564 76.8112 257.455 67.5987 260.647C66.8382 260.911 66.0884 261.132 65.35 261.322C73.187 264.147 87.472 265.213 97.6452 261.999C107.675 264.527 125.469 267.155 136.257 257.175L137.516 257.223C137.516 257.223 139.425 258.497 141.811 261.362C141.811 261.362 139.796 261.575 138.364 261.893C138.364 261.893 135.394 262.901 135.713 268.95C136.025 274.897 139.34 277.799 143.721 274.506C144.485 274.849 145.46 274.985 146.772 274.946C147.441 274.927 148.005 274.96 148.488 275.03C149.322 276.667 146.209 276.548 144.147 277.235C141.784 278.023 140.659 278.924 140.771 280.725C142.09 279.62 143.083 279.083 146.734 278.473C149.024 278.091 150.066 276.987 149.844 275.401C150.94 275.908 151.16 276.729 151.16 277.31C151.16 278.241 150.485 279.337 148.347 279.449C149.247 280.226 150.935 280.696 152.285 279.223C153.635 277.751 154.141 273.48 149.247 273.708C149.24 273.708 149.234 273.708 149.228 273.709C149.012 273.324 148.746 272.924 148.422 272.508C146.002 269.396 149.547 265.754 147.522 262.489C147.522 262.489 150.471 261.959 149.66 266.541C148.849 271.124 150.109 272.845 153.372 273.97C150.351 269.732 152.839 267.393 151.235 263.052C151.235 263.052 153.739 262.969 154.498 266.766C155.257 270.564 157.141 271.773 159.223 272.845C161.305 273.917 162.486 275.01 163.273 277.348C163.7 276.494 164.237 274.617 160.686 271.494C157.134 268.371 158.66 264.29 155.285 262.377C151.91 260.463 147.972 260.463 145.61 260.913C145.61 260.913 148.156 257.804 152.737 256.321C157.329 254.834 160.662 254.87 164.035 254.729C166.824 254.613 170.338 254.835 172.051 254.964C177.899 257.426 182.81 254.252 182.81 254.252C175.013 254.57 173.581 252.978 166.739 250.431C159.898 247.884 153.851 251.307 151.146 254.172C148.441 257.038 147.105 257.597 147.105 257.597C149.07 254.862 150.109 251.652 150.109 251.652H148.229C147.434 256.268 145.047 258.497 145.047 258.497C145.101 253.652 145.524 251.599 145.524 251.599H143.349C143.827 253.966 144.145 256.669 143.349 258.921C142.614 254.952 140.094 254.602 140.486 250.484H137.94C137.635 254.603 140.807 254.733 141.97 259.452C139.743 257.064 137.516 255.154 137.516 255.154C136.879 255.154 135.511 255.352 135.511 255.352C130.503 250.395 123.554 249.494 123.554 249.494ZM65.35 261.322C64.9456 261.176 64.5537 261.027 64.1851 260.872C56.6736 257.718 50.5273 261.323 50.5273 261.323C50.5273 261.323 57.1437 263.437 65.35 261.322ZM95.8346 254.947C93.8294 253.975 92.147 252.867 89.8351 252.766C88.6407 252.714 87.1257 252.726 85.5938 252.763C85.6821 252.819 85.7682 252.866 85.8571 252.925C90.2015 255.799 92.4805 256.409 95.8346 254.947ZM85.5938 252.763C82.1151 250.538 79.0788 250.086 77.2726 250.073C76.1613 250.065 75.5145 250.219 75.5145 250.219L78.3785 253.085C78.3785 253.085 82.0359 252.848 85.5938 252.763ZM168.334 253.238C165.946 253.33 160.155 252.914 152.896 254.729C154.665 252.757 156.534 251.775 159.628 251.317C162.721 250.86 164.84 251.433 168.334 253.238ZM105.965 251.692C107.844 251.692 109.724 252.766 109.724 252.766C107.713 253.973 103.986 255.637 99.6994 254.676L104.155 252.129C104.712 251.811 105.338 251.692 105.965 251.692ZM126.154 252.628C128.235 252.597 130.554 253.458 133.538 255.472C129.283 255.824 126.542 253.38 121.604 257.382C115.634 262.222 110.625 260.885 110.625 260.885C110.625 260.885 114.921 259.452 119.376 255.791C121.743 253.846 123.796 252.664 126.154 252.628ZM202.608 254.675C196.878 254.548 189.802 257.231 182.812 260.088C181.945 260.442 181.179 260.769 180.445 261.084C181.122 261.311 181.846 261.543 182.651 261.787C189.493 263.856 201.585 261.627 207.79 258.603C209.168 257.932 210.625 257.334 212.137 256.836C209.66 256.054 207.204 255.323 204.977 254.91C204.217 254.769 203.427 254.694 202.608 254.675ZM212.137 256.836C216.414 258.187 220.755 259.69 224.104 259.975C229.392 260.425 234.567 257.836 234.567 257.836C232.152 257.534 231.406 257.565 227.188 258.352C222.969 259.14 218.61 257.541 218.61 257.541C222.031 256.319 226.061 257.652 229.134 257.143C223.421 254.641 217.436 255.091 212.137 256.836ZM180.445 261.084C175.361 259.381 173.503 258.093 169.762 256.534C165.624 254.808 160.654 256.893 160.418 256.993C159.474 256.644 158.462 256.457 157.352 256.534C153.15 256.823 150.499 258.084 148.918 259.558C148.918 259.558 154.91 258.812 158.173 263.089C161.275 267.155 166.811 266.033 169.767 264.075C173.106 264.479 175.338 263.275 180.445 261.084ZM201.213 256.644C202.741 256.654 204.261 256.85 205.775 257.276C195.751 261.893 187.159 260.46 187.159 260.46C191.971 258.265 196.629 256.613 201.213 256.644ZM81.5599 256.817C81.5599 256.817 82.6545 257.291 84.62 258.015C80.6969 259.517 75.3981 261.478 74.7787 261.707C72.7328 261.415 71.662 261.098 71.662 261.098C71.662 261.098 77.6904 258.845 81.5599 256.817ZM127.989 256.919C129.527 256.918 131.171 257.402 133.856 257.223C133.856 257.223 126.696 262.636 118.9 261.84C118.9 261.84 120.661 260.941 124.15 258.338C125.66 257.211 126.792 256.919 127.989 256.919ZM162.032 257.537C163.233 257.507 165.159 257.689 166.887 258.864C169.653 260.743 170.305 261.463 173.104 262.264C173.104 262.264 170.557 263.697 167.534 261.787C165.643 260.591 163.82 258.719 161.664 257.558C161.783 257.55 161.891 257.54 162.032 257.537ZM158.149 258.224C161.64 258.165 163.426 261.649 166.474 263.185C165.619 263.464 164.046 263.602 162.111 261.964C159.186 259.487 157.575 258.863 156.298 258.556C156.969 258.336 157.582 258.233 158.149 258.224ZM135.659 259.346C128.348 266.865 122.035 267.29 117.043 268.579C119.243 269.3 123.574 269.309 129.136 266.669C134.697 264.028 136.614 260.779 136.614 260.779L139.717 260.54C139.717 260.54 138.523 259.505 135.659 259.346ZM87.8086 259.465C89.5861 259.883 91.6179 260.089 94.4531 261.154C87.6875 262.239 82.4595 262.593 78.5294 262.077C81.612 260.851 82.9375 260.307 87.8086 259.465ZM144.12 262.113C144.828 262.131 147.592 262.419 146.51 265.866C145.355 269.543 145.463 271.428 147.414 273.701C144.178 273.497 143.625 272.127 143.171 269.994C142.642 267.507 142.929 264.193 143.959 262.114C143.959 262.114 144.019 262.111 144.12 262.113ZM141.6 262.424C141.6 262.424 139.907 266.024 140.921 269.881C141.427 271.804 141.933 273.096 142.786 273.895C142.031 274.446 140.365 275.362 139.054 273.932C137.304 272.022 136.031 262.901 141.6 262.424ZM152.923 267.667C152.923 267.667 152.84 270.686 153.71 272.62C154.58 274.554 156.13 275.413 158.097 275.66C156.955 274.492 155.284 273.902 154.835 271.382C154.385 268.861 153.823 267.892 152.923 267.667Z" fill="#009543"/>
<path d="M95.8346 254.947C96.8401 254.509 97.9383 253.892 99.2228 253.085C104.792 249.582 105.587 249.423 110.36 251.174C114.528 252.703 116.149 253.382 118.717 252.682C120.105 251.574 121.657 250.475 123.554 249.494C123.554 249.494 130.503 250.395 135.511 255.352C135.511 255.352 136.879 255.154 137.516 255.154C137.516 255.154 139.743 257.064 141.97 259.452C140.807 254.733 137.635 254.603 137.94 250.484H140.486C140.094 254.602 142.614 254.952 143.349 258.921C144.145 256.669 143.827 253.966 143.349 251.599H145.524C145.524 251.599 145.101 253.652 145.047 258.497C145.047 258.497 147.434 256.268 148.229 251.652H150.109C150.109 251.652 149.07 254.862 147.105 257.597C147.105 257.597 148.441 257.038 151.146 254.172C153.851 251.307 159.898 247.884 166.739 250.431C173.581 252.978 175.013 254.57 182.81 254.252C182.81 254.252 177.899 257.426 172.051 254.964C170.338 254.835 166.824 254.613 164.035 254.729C160.662 254.87 157.329 254.834 152.737 256.321C148.156 257.804 145.61 260.913 145.61 260.913C147.972 260.463 151.91 260.463 155.285 262.377C158.66 264.29 157.134 268.371 160.686 271.494C164.237 274.617 163.7 276.494 163.273 277.348C162.486 275.01 161.305 273.917 159.223 272.845C157.141 271.773 155.257 270.564 154.498 266.766C153.739 262.969 151.235 263.052 151.235 263.052C152.839 267.393 150.351 269.732 153.372 273.97C150.109 272.845 148.849 271.124 149.66 266.541C150.471 261.959 147.522 262.489 147.522 262.489C149.547 265.754 146.002 269.396 148.422 272.508C148.746 272.924 149.012 273.324 149.228 273.709C149.234 273.708 149.24 273.708 149.247 273.708C154.141 273.48 153.635 277.751 152.285 279.223C150.935 280.696 149.247 280.226 148.347 279.449C150.485 279.337 151.16 278.241 151.16 277.31C151.16 276.729 150.94 275.908 149.844 275.401C150.066 276.987 149.024 278.091 146.734 278.473C143.083 279.083 142.09 279.62 140.771 280.725C140.659 278.924 141.784 278.023 144.147 277.235C146.209 276.548 149.322 276.667 148.488 275.03C148.005 274.96 147.441 274.927 146.772 274.946C145.46 274.985 144.485 274.849 143.721 274.506C139.34 277.799 136.025 274.897 135.713 268.95C135.394 262.901 138.364 261.893 138.364 261.893C139.796 261.575 141.811 261.362 141.811 261.362C139.425 258.497 137.516 257.223 137.516 257.223L136.257 257.175C125.469 267.155 107.675 264.527 97.6452 261.999C87.472 265.213 73.187 264.147 65.35 261.322M95.8346 254.947C97.3731 255.693 99.1014 256.359 101.45 256.428C106.86 256.587 111.156 253.562 111.156 253.562C111.156 253.562 113.915 254.716 117.185 254.349C113.372 257.632 110.54 260.262 104.368 260.262C95.3338 260.262 81.7117 254.564 81.7117 254.564C81.7117 254.564 76.8112 257.455 67.5987 260.647C66.8382 260.911 66.0884 261.132 65.35 261.322M95.8346 254.947C93.8294 253.975 92.147 252.867 89.8351 252.766C88.6407 252.714 87.1257 252.726 85.5938 252.763M95.8346 254.947C92.4805 256.409 90.2015 255.799 85.8571 252.925C85.7682 252.866 85.6821 252.819 85.5938 252.763M65.35 261.322C64.9456 261.176 64.5537 261.027 64.1851 260.872C56.6736 257.718 50.5273 261.323 50.5273 261.323C50.5273 261.323 57.1437 263.437 65.35 261.322ZM85.5938 252.763C82.1151 250.538 79.0788 250.086 77.2726 250.073C76.1613 250.065 75.5145 250.219 75.5145 250.219L78.3785 253.085C78.3785 253.085 82.0359 252.848 85.5938 252.763ZM180.445 261.084C181.179 260.769 181.945 260.442 182.812 260.088C189.802 257.231 196.878 254.548 202.608 254.675C203.427 254.694 204.217 254.769 204.977 254.91C207.204 255.323 209.66 256.054 212.137 256.836M180.445 261.084C181.122 261.311 181.846 261.543 182.651 261.787C189.493 263.856 201.585 261.627 207.79 258.603C209.168 257.932 210.625 257.334 212.137 256.836M180.445 261.084C175.361 259.381 173.503 258.093 169.762 256.534C165.624 254.808 160.654 256.893 160.418 256.993C159.474 256.644 158.462 256.457 157.352 256.534C153.15 256.823 150.499 258.084 148.918 259.558C148.918 259.558 154.91 258.812 158.173 263.089C161.275 267.155 166.811 266.033 169.767 264.075C173.106 264.479 175.338 263.275 180.445 261.084ZM212.137 256.836C216.414 258.187 220.755 259.69 224.104 259.975C229.392 260.425 234.567 257.836 234.567 257.836C232.152 257.534 231.406 257.565 227.188 258.352C222.969 259.14 218.61 257.541 218.61 257.541C222.031 256.319 226.061 257.652 229.134 257.143C223.421 254.641 217.436 255.091 212.137 256.836ZM168.334 253.238C165.946 253.33 160.155 252.914 152.896 254.729C154.665 252.757 156.534 251.775 159.628 251.317C162.721 250.86 164.84 251.433 168.334 253.238ZM105.965 251.692C107.844 251.692 109.724 252.766 109.724 252.766C107.713 253.973 103.986 255.637 99.6994 254.676L104.155 252.129C104.712 251.811 105.338 251.692 105.965 251.692ZM126.154 252.628C128.235 252.597 130.554 253.458 133.538 255.472C129.283 255.824 126.542 253.38 121.604 257.382C115.634 262.222 110.625 260.885 110.625 260.885C110.625 260.885 114.921 259.452 119.376 255.791C121.743 253.846 123.796 252.664 126.154 252.628ZM201.213 256.644C202.741 256.654 204.261 256.85 205.775 257.276C195.751 261.893 187.159 260.46 187.159 260.46C191.971 258.265 196.629 256.613 201.213 256.644ZM81.5599 256.817C81.5599 256.817 82.6545 257.291 84.62 258.015C80.6969 259.517 75.3981 261.478 74.7787 261.707C72.7328 261.415 71.662 261.098 71.662 261.098C71.662 261.098 77.6904 258.845 81.5599 256.817ZM127.989 256.919C129.527 256.918 131.171 257.402 133.856 257.223C133.856 257.223 126.696 262.636 118.9 261.84C118.9 261.84 120.661 260.941 124.15 258.338C125.66 257.211 126.792 256.919 127.989 256.919ZM162.032 257.537C163.233 257.507 165.159 257.689 166.887 258.864C169.653 260.743 170.305 261.463 173.104 262.264C173.104 262.264 170.557 263.697 167.534 261.787C165.643 260.591 163.82 258.719 161.664 257.558C161.783 257.55 161.891 257.54 162.032 257.537ZM158.149 258.224C161.64 258.165 163.426 261.649 166.474 263.185C165.619 263.464 164.046 263.602 162.111 261.964C159.186 259.487 157.575 258.863 156.298 258.556C156.969 258.336 157.582 258.233 158.149 258.224ZM135.659 259.346C128.348 266.865 122.035 267.29 117.043 268.579C119.243 269.3 123.574 269.309 129.136 266.669C134.697 264.028 136.614 260.779 136.614 260.779L139.717 260.54C139.717 260.54 138.523 259.505 135.659 259.346ZM87.8086 259.465C89.5861 259.883 91.6179 260.089 94.4531 261.154C87.6875 262.239 82.4595 262.593 78.5294 262.077C81.612 260.851 82.9375 260.307 87.8086 259.465ZM144.12 262.113C144.828 262.131 147.592 262.419 146.51 265.866C145.355 269.543 145.463 271.428 147.414 273.701C144.178 273.497 143.625 272.127 143.171 269.994C142.642 267.507 142.929 264.193 143.959 262.114C143.959 262.114 144.019 262.111 144.12 262.113ZM141.6 262.424C141.6 262.424 139.907 266.024 140.921 269.881C141.427 271.804 141.933 273.096 142.786 273.895C142.031 274.446 140.365 275.362 139.054 273.932C137.304 272.022 136.031 262.901 141.6 262.424ZM152.923 267.667C152.923 267.667 152.84 270.686 153.71 272.62C154.58 274.554 156.13 275.413 158.097 275.66C156.955 274.492 155.284 273.902 154.835 271.382C154.385 268.861 153.823 267.892 152.923 267.667Z" stroke="black" stroke-width="0.42014"/>
<path d="M137.863 246.982C137.863 246.982 137.147 248.733 138.818 249.609H139.693C139.693 249.609 140.33 247.3 137.863 246.982ZM144.626 248.415C144.626 248.415 143.194 249.131 143.83 250.643H145.183C145.183 250.643 145.899 249.37 144.626 248.415ZM150.846 249.028C150.846 249.028 148.693 249.178 148.726 250.882H150.274C150.274 250.882 151.165 250.421 150.846 249.028Z" fill="#D21034" stroke="black" stroke-width="0.420139"/>
<path d="M238.228 79.4489C238.228 79.4489 238.831 77.2663 240.966 76.9512C240.966 76.9512 241.569 74.7686 243.704 74.4535C243.704 74.4535 244.308 72.2709 246.443 71.9558C246.443 71.9558 247.046 69.7732 249.177 69.4569C249.177 69.4569 249.951 67.4245 251.964 67.3419C251.964 67.3419 252.741 65.3107 254.748 65.2231C254.748 65.2231 255.442 63.4852 257.254 63.4147C257.254 63.4147 257.954 61.6818 259.763 61.6086C259.763 61.6086 260.414 60.0215 262.111 59.9571C262.111 59.9571 262.766 58.3727 264.457 58.3018C264.457 58.3018 265.028 57.0445 266.524 56.9936C266.524 56.9936 267.101 55.7427 268.596 55.6889C268.596 55.6889 269.161 54.5818 270.628 54.5369C270.628 54.5369 271.194 53.4327 272.66 53.3866C272.66 53.3866 273.214 52.3539 274.652 52.312C274.652 52.312 275.207 51.2805 276.643 51.2363C276.643 51.2363 277.174 50.3473 278.554 50.3112C278.554 50.3112 279.086 49.4245 280.466 49.3885C281.333 48.6779 282.503 48.7685 283.547 48.4736C283.547 48.4736 282.367 50.0107 280.24 50.641C280.083 50.641 279.453 51.5078 278.271 51.6654C278.271 51.6654 277.72 52.7685 276.145 52.8473C276.145 52.8473 275.436 54.1081 274.097 54.1081C274.097 54.1081 273.231 55.3688 272.128 55.29C272.128 55.29 271.42 56.3143 270.081 56.5507C270.081 56.5507 269.214 57.6539 268.033 57.7327C268.033 57.7327 267.561 58.9934 265.828 59.151C265.828 59.151 265.04 60.4905 263.859 60.5693C263.859 60.5693 263.465 61.83 261.496 62.224C261.496 62.224 261.024 63.7211 259.291 63.9575C259.291 63.9575 258.504 66.0062 256.613 66.0062C256.613 66.0062 255.826 67.9761 254.014 68.2125C254.014 68.2125 253.542 70.34 251.415 70.4976C251.415 70.4976 250.707 72.4674 248.816 73.0978C248.816 73.0978 248.265 75.3041 246.218 75.8557C246.218 75.8557 245.43 78.5347 243.304 79.5591C241.177 80.5834 238.228 79.4489 238.228 79.4489Z" fill="white" stroke="black" stroke-width="0.630209"/>
<path d="M240.964 76.9512C240.964 76.9512 243.748 76.9851 244.063 79.1914M243.702 74.4535C243.702 74.4535 245.06 74.0171 246.215 75.8557M248.814 73.0979C248.631 73.0453 248.346 71.8906 246.441 71.9558M251.413 70.4976C251.413 70.4976 250.823 69.3356 249.175 69.4569M254.012 68.2125C254.012 68.2125 253.324 67.3119 251.962 67.342M256.611 66.0063C256.611 66.0063 256.058 65.2018 254.746 65.2232M259.289 63.9576C259.289 63.9576 258.707 63.3184 257.252 63.4147M261.494 62.2241C261.494 62.2241 261.006 61.5421 259.76 61.6086M263.857 60.5693C263.857 60.5693 263.142 59.8548 262.109 59.9571M265.826 59.151C265.826 59.151 265.717 58.3273 264.455 58.3019M268.031 57.7327C268.031 57.7327 267.734 56.9924 266.522 56.9937M270.079 56.5508C270.079 56.5508 269.762 55.7201 268.594 55.6889M272.126 55.29C272.126 55.29 271.766 54.5862 270.626 54.537M274.095 54.1081C274.095 54.1081 273.714 53.3442 272.658 53.3866M276.143 52.8474C276.143 52.8474 275.86 52.4207 274.65 52.312M278.269 51.6654C278.269 51.6654 277.67 51.2722 276.641 51.2363M280.238 50.6411C280.238 50.6411 279.598 50.2578 278.552 50.3113" stroke="black" stroke-width="0.630209"/>
<path d="M254.676 250.96C254.676 250.96 254.757 252.442 254.184 253.74C254.184 253.74 248.623 254.384 246.396 254.066L246.794 252.633C246.794 252.633 245.521 252.792 244.646 252.474C244.646 252.474 246.078 249.608 249.18 248.335C252.283 247.061 254.676 250.96 254.676 250.96ZM192.665 228.396C192.665 228.396 192.464 229.697 192.305 230.811C192.305 230.811 188.664 231.832 185.641 230.877L186.437 229.524C186.437 229.524 184.846 229.285 184.209 229.046C184.626 227.954 185.299 226.123 188.587 224.929L192.665 228.396Z" fill="black"/>
<path d="M242.537 79.7849C242.537 79.7849 243.408 77.488 245.624 77.4115C245.624 77.4115 246.495 75.1146 248.712 75.0382C248.712 75.0382 249.583 72.7412 251.799 72.6648C251.799 72.6648 252.67 70.3678 254.883 70.2897C254.883 70.2897 255.91 68.1771 257.975 68.3383C257.975 68.3383 259.005 66.2274 261.065 66.3824C261.065 66.3824 261.976 64.5799 263.835 64.7292C263.835 64.7292 264.751 62.9329 266.606 63.0788C266.606 63.0788 267.457 61.4351 269.197 61.5766C269.197 61.5766 270.051 59.9362 271.785 60.0699C271.785 60.0699 272.515 58.7745 274.048 58.9056C274.048 58.9056 274.783 57.618 276.316 57.7458C276.316 57.7458 277.022 56.613 278.525 56.747C278.525 56.747 279.232 55.6175 280.734 55.75C280.734 55.75 281.42 54.6966 282.893 54.8303C282.893 54.8303 283.58 53.7784 285.051 53.9093C285.051 53.9093 285.697 53.0092 287.11 53.142C287.11 53.142 287.757 52.2447 289.17 52.3775C290.138 51.7132 291.322 51.9575 292.422 51.7671C292.422 51.7671 291.038 53.2906 288.793 53.7107C288.632 53.6911 287.888 54.5546 286.663 54.5786C286.663 54.5786 285.972 55.7089 284.354 55.5982C284.354 55.5982 283.483 56.8801 282.117 56.7133C282.117 56.7133 281.085 57.9755 279.969 57.7525C279.969 57.7525 279.125 58.7775 277.731 58.8675C277.731 58.8675 276.717 59.9585 275.502 59.8969C275.502 59.8969 274.872 61.2083 273.085 61.1636C273.085 61.1636 272.125 62.5214 270.91 62.4598C270.91 62.4598 270.36 63.7809 268.304 63.9638C268.304 63.9638 267.647 65.532 265.85 65.573C265.85 65.573 264.807 67.7015 262.877 67.4659C262.877 67.4659 261.843 69.5088 259.966 69.54C259.966 69.54 259.235 71.7933 257.046 71.6996C257.046 71.6996 256.092 73.7523 254.089 74.2018C254.089 74.2018 253.268 76.531 251.113 76.8753C251.113 76.8753 249.996 79.6889 247.705 80.5372C245.415 81.3855 242.537 79.7849 242.537 79.7849Z" fill="white" stroke="black" stroke-width="0.63024"/>
<path d="M245.624 77.4116C245.624 77.4116 248.462 77.7953 248.525 80.2325M248.712 75.0382C248.712 75.0382 250.149 74.7331 251.113 76.8753M254.088 74.2019C253.907 74.1219 253.752 72.8314 251.799 72.6648M257.046 71.6996C257.046 71.6996 256.579 70.363 254.883 70.2897M259.966 69.54C259.966 69.54 259.369 68.4754 257.974 68.3383M262.877 67.466C262.877 67.466 262.406 66.5226 261.065 66.3824M265.85 65.573C265.85 65.573 265.331 64.8059 263.834 64.7293M268.304 63.9638C268.304 63.9638 267.885 63.1617 266.606 63.0788M270.909 62.4598C270.909 62.4598 270.263 61.5941 269.197 61.5766M273.085 61.1637C273.085 61.1637 273.07 60.2549 271.785 60.07M275.502 59.897C275.502 59.897 275.285 59.0553 274.048 58.9056M277.731 58.8676C277.731 58.8676 277.504 57.9253 276.316 57.7458M279.968 57.7525C279.968 57.7525 279.682 56.9426 278.525 56.747M282.116 56.7133C282.116 56.7133 281.816 55.8354 280.734 55.75M284.354 55.5982C284.354 55.5982 284.115 55.0992 282.893 54.8303M286.663 54.5787C286.663 54.5787 286.097 54.0766 285.051 53.9093M288.793 53.7107C288.793 53.7107 288.184 53.2144 287.11 53.142" stroke="black" stroke-width="0.63024"/>
<path d="M263.048 191.424C257.759 192.702 255.465 188.718 255.465 188.718C253.555 197.951 254.51 204.159 256.737 207.82C258.965 211.482 263.579 211.641 263.579 214.347C263.579 217.054 261.298 217.271 260.715 219.601C260.133 221.932 259.897 236.114 260.144 241.915C260.391 247.716 257.851 248.62 257.851 248.62C255.292 246.85 254.558 249.465 254.397 251.128C254.397 251.128 249.738 251.788 249.183 249.844C248.628 247.9 250.646 246.354 252.446 246.129C254.523 243.219 255.112 236.781 256.009 228.682C256.906 220.577 257.358 219.451 247.007 215.849C236.657 212.247 230.57 200.607 229.231 195.138C229.231 195.138 222.338 197.902 219.982 201.347C217.627 204.792 222.846 206.919 222.369 209.785C221.946 212.321 220.358 211.427 217.278 212.968C214.197 214.509 201.843 221.883 199.297 223.793C196.751 225.703 197.548 227.454 195.638 228.728C195.638 228.728 194.206 226.181 192.456 228.41C192.456 228.41 189.274 228.251 188.637 225.226C188.637 225.226 195.141 221.552 202.161 216.47C209.181 211.387 212.387 210.523 213.3 207.237C214.212 203.951 209.111 201.551 209.64 192.91C210.169 184.269 220.141 175.399 224.278 172.533C224.278 172.533 222.491 170.052 220.198 166.943C217.628 167.5 214.798 167.186 212.185 166.75C212.185 166.75 204.708 161.018 202.003 157.994C199.298 154.969 198.82 150.989 200.57 148.761C202.321 146.532 207.758 141.092 207.758 141.092C207.758 141.092 207.289 139.135 207.443 136.152C207.443 136.152 205.154 131.425 204.704 123.771C204.254 116.116 202.454 115.216 202.454 115.216C202.454 115.216 198.539 117.692 196.738 119.268H188.863C188.863 119.268 191.428 116.341 196.378 111.388C201.329 106.436 205.964 104.575 208.304 110.038C211.004 116.342 212.883 117.179 213.969 120.475C217.768 115.516 222.815 111.052 231.031 105.836C228.716 104.111 227.403 102.56 222.687 103.179C220.646 104.705 219.195 103.722 217.662 103.722C216.128 103.722 215.686 102.542 215.686 102.542C215.686 102.542 214.208 102.523 214.049 100.772C213.889 99.0205 214.98 98.1065 214.98 98.1065C214.53 96.3054 215.43 94.9543 222.631 91.3522C229.831 87.7501 231.152 80.6897 238.832 79.1955C246.513 77.7013 249.183 81.6718 249.183 81.6718C252.333 76.2687 260.434 74.4678 260.434 74.4678C260.434 74.4678 258.634 77.1686 258.634 83.022C258.634 88.8754 254.351 90.2844 254.351 90.2844C268.671 107.795 257.851 123.715 257.851 123.715C259.267 136.484 250.555 145.414 245.358 155.814C245.358 162.568 248.097 170.448 252.147 174.95C256.197 179.453 255.889 183.783 255.889 183.783C256.684 186.012 259.491 189.283 262.253 187.763C265.016 186.243 265.754 180.281 264.958 175.664C269.022 183.567 268.338 190.147 263.048 191.424ZM209.655 150.712C209.655 150.712 208.305 150.712 207.179 151.612C207.179 151.612 208.079 155.664 208.079 157.916C208.079 157.916 211.23 159.042 212.805 161.518C212.805 161.518 214.385 161.454 216.159 161.542C215.31 160.426 214.472 159.336 213.705 158.366C209.429 152.963 209.655 150.712 209.655 150.712Z" fill="white"/>
<path d="M257.746 77.1782C257.746 77.1782 254.564 81.6352 254.723 88.162C254.723 88.162 250.746 88.4803 247.882 90.8682C247.882 90.8682 250.427 88.3217 251.859 83.8644C253.291 79.407 255.996 77.815 257.746 77.1782ZM245.649 79.3804C248.179 80.1926 249.519 81.5606 249.519 81.5606C249.519 81.5606 247.564 85.615 247.723 88.4805C247.027 87.9419 246.649 87.0999 246.704 85.3925C246.704 85.3925 244.699 87.6842 242.949 87.3658C242.949 87.3658 247.41 84.3376 245.649 79.3804ZM254.352 90.2846C268.672 107.796 257.853 123.715 257.853 123.715C259.268 136.484 250.557 145.414 245.359 155.815C237.399 162.982 250.484 193.644 252.335 191.16C254.136 188.721 255.326 187.841 255.326 187.841L255.35 187.952L255.177 189.655C254.339 198.064 254.661 204.406 256.739 207.821C256.739 207.821 255.372 208.571 256.722 210.259C258.072 211.948 257.51 213.974 254.922 213.636C253.933 216.21 256.22 217.809 255.769 220.654C254.726 218.868 252.258 217.676 247.009 215.85C236.658 212.247 230.572 200.607 229.233 195.138C229.822 188.019 231.904 187.29 232.09 180.374C232.281 173.295 224.606 166.506 221.565 161.637L212.281 149.736C212.281 149.736 211.681 153.489 213.706 158.366C209.431 152.963 209.656 150.712 209.656 150.712C209.656 150.712 208.099 150.93 206.974 151.831C206.364 151.101 207.854 148.122 204.931 149.061C202.017 149.997 200.878 154.77 202.005 157.994C199.3 154.969 198.822 150.989 200.572 148.761C202.322 146.532 207.759 141.092 207.759 141.092C207.759 141.092 207.291 139.135 207.444 136.153C208.682 128.24 211.305 124.811 212.853 122.223L210.556 118.818C205.156 126.923 207.612 135.818 207.612 135.818C207.612 135.818 205.156 131.426 204.706 123.771C204.256 116.117 202.347 115.068 202.347 115.068C203.248 111.916 204.031 112.739 204.706 109.813C205.032 108.398 203.622 107.618 202.079 107.186C204.692 106.127 206.908 106.776 208.306 110.038C211.006 116.342 212.885 117.179 213.971 120.475C217.77 115.517 222.817 111.053 231.033 105.836C228.718 104.111 227.405 102.561 222.689 103.179C224.174 102.33 225.499 100.845 225.499 100.845C225.022 99.0937 223.59 97.5018 223.59 97.5018C225.659 95.5915 224.386 92.885 221.045 93.3625C219.947 93.5194 219.049 93.6315 218.255 93.7253C219.356 93.0517 220.784 92.277 222.632 91.3524C226.56 89.3874 230.856 84.502 233.271 81.9437C230.262 85.8254 228.606 89.2556 226.773 90.9749C224.227 93.3627 225.181 96.0683 228.682 94.7948C232.182 93.5213 235.981 89.9359 235.981 89.9359L236.439 91.8658C233.256 93.7761 228.523 100.526 230.432 102.755C232.342 104.983 236.956 105.779 242.207 102.596C247.457 99.4117 248.094 92.2479 248.094 92.2479C249.366 92.0887 249.685 90.7798 249.685 90.7798C251.142 91.0041 253.471 90.2308 254.361 89.9545L254.352 90.2846ZM219.904 96.0687C219.904 96.0687 220.222 97.5807 218.87 98.0583C217.517 98.5358 217.279 99.3321 217.279 99.3321C217.279 99.3321 216.025 99.8259 214.981 98.1067C214.981 98.1067 218.154 98.6953 219.904 96.0687ZM218.269 100.856C218.507 100.845 218.761 100.865 219.029 100.924C221.177 101.402 222.211 101.401 222.211 101.401C222.211 101.401 221.814 102.038 219.745 101.72C218.323 101.501 217.475 101.514 215.946 102.958C215.764 102.732 215.688 102.542 215.688 102.542C215.688 102.542 216.601 100.938 218.269 100.856ZM263.368 138.095C265.914 138.414 267.346 140.642 267.346 145.736C267.346 150.83 267.665 152.582 267.665 152.582C268.316 148.293 270.044 149.141 269.255 142.871C270.174 143.475 271.692 145.915 270.369 150.194C269.02 154.557 269.255 157.358 269.255 157.358C271.324 155.766 271.324 150.99 271.324 150.99C273.075 152.9 273.87 156.402 271.961 158.631C270.052 160.859 269.892 162.452 269.892 162.452C271.642 161.974 273.074 162.77 273.074 162.77C269.096 164.84 265.988 168.718 267.505 176.142C268.168 179.381 268.41 182.459 268.035 185.007C266.877 187.409 264.015 190.713 261.088 190.262C256.698 189.587 255.043 185.614 255.609 183.703C256.405 185.932 259.493 189.283 262.255 187.763C265.017 186.243 265.756 180.281 262.414 175.187C259.073 170.093 262.255 165.158 262.255 159.268C262.255 153.378 260.982 150.353 260.982 150.353C263.489 150.867 263.289 153.12 264.801 154.969C264.642 152.581 264.177 150.127 265.119 146.373C266.061 142.619 265.186 139.704 263.368 138.095ZM214.808 181.549C217.673 183.632 216.595 187.304 214.832 190.635C212.807 194.462 215.057 201.666 219.984 201.347C218.997 202.79 219.345 204.001 220.041 205.133C218.743 205.527 218.033 206.635 218.033 207.459C218.033 209.035 216.686 209.172 215.901 208.247C215.366 207.618 214.354 207.379 213.11 207.804C213.182 207.623 213.246 207.435 213.301 207.237C214.213 203.951 209.113 201.551 209.641 192.91C209.882 188.972 212.09 184.992 214.808 181.549ZM233.157 82.2249C233.157 82.2249 237.985 79.027 244.344 79.3588C244.344 79.3588 237.927 77.8058 233.157 82.2249Z" fill="black"/>
<path d="M250.384 92.6279C250.384 92.6279 255.335 94.8798 256.685 107.037C258.035 119.194 252.548 122.229 252.548 122.229C254.776 127.96 252.866 134.646 248.411 142.606C243.956 150.565 245.108 156.149 245.108 156.149C245.108 161.488 247.074 167.191 249.793 171.713C248.503 180.162 254.036 186.266 252.334 191.16C250.534 196.338 251.209 200.841 251.209 200.841C251.209 200.841 245.133 199.04 242.433 196.113C242.433 196.113 242.883 189.81 238.158 187.108C233.433 184.406 235.908 179.904 236.583 174.726C237.258 169.548 232.853 168.827 226.682 165.946C219.931 162.794 213.856 156.04 212.281 149.736C218.49 152.292 225.184 151.328 226.931 147.434C228.228 144.544 228.285 142.722 231.032 141.932C231.032 141.932 228.557 141.031 227.207 143.508C225.857 145.984 225.182 149.361 219.557 148.236C213.931 147.11 211.925 141.597 214.26 136.039C216.582 130.516 220.116 128.479 222.481 127.524C220.231 127.299 218.102 127.712 214.831 132.026C211.576 136.319 212.162 137.35 209.431 139.23C208.531 132.251 212.581 123.471 220.006 117.618C227.432 111.764 233.507 107.937 233.507 107.937C247.683 109.063 250.384 92.6279 250.384 92.6279Z" fill="#CC6633"/>
<path d="M229.23 195.138C229.23 195.138 228.478 191.559 228.93 186.132C229.38 180.729 225.555 181.18 225.555 181.18C226.35 176.62 225.478 174.216 224.277 172.534" stroke="black" stroke-width="0.630209"/>
<path d="M219.298 167.112C219.298 167.112 221.573 165.645 221.168 163.92C220.763 162.195 218.468 161.668 218.468 161.668C218.468 161.668 220.831 160.993 223.531 161.443C226.231 161.894 228.086 165.131 228.086 165.131L225.556 165.608L226.906 167.409C226.906 167.409 223.279 168.56 219.298 167.112Z" fill="black"/>
<path d="M216.159 161.542C216.159 161.542 218.468 161.668 220.043 161.781" stroke="black" stroke-width="0.630209"/>
<path d="M248.544 249.529L248.941 250.564L247.032 252.076L245.759 251.997C245.759 251.997 247.35 250.007 248.544 249.529ZM188.399 226.526L189.036 227.402L186.649 228.834L185.296 228.516C185.296 228.516 186.649 227.004 188.399 226.526ZM221.992 164.985C221.992 164.985 221.753 165.86 221.515 166.418C223.375 166.777 224.254 166.589 225.671 166.557L224.743 165.317L221.992 164.985Z" fill="white"/>
<path d="M263.049 191.424C257.76 192.702 255.466 188.718 255.466 188.718C253.556 197.951 254.511 204.159 256.738 207.82C258.966 211.482 263.58 211.641 263.58 214.347C263.58 217.054 261.299 217.271 260.716 219.601C260.134 221.932 259.899 236.114 260.145 241.915C260.392 247.716 257.852 248.62 257.852 248.62C255.293 246.85 254.559 249.465 254.398 251.128C254.398 251.128 249.739 251.788 249.184 249.844C248.629 247.9 250.647 246.354 252.447 246.129C254.524 243.219 255.113 236.781 256.01 228.682C256.907 220.577 257.359 219.451 247.008 215.849C236.658 212.247 230.571 200.607 229.232 195.138C229.232 195.138 222.339 197.902 219.983 201.347C217.628 204.792 222.847 206.919 222.37 209.785C221.947 212.321 220.359 211.427 217.279 212.968C214.198 214.509 201.844 221.883 199.298 223.793C196.753 225.703 197.549 227.454 195.639 228.728C195.639 228.728 194.207 226.181 192.457 228.41C192.457 228.41 189.275 228.251 188.638 225.226C188.638 225.226 195.142 221.552 202.162 216.47C209.182 211.387 212.388 210.523 213.301 207.237C214.213 203.951 209.112 201.551 209.641 192.91C210.17 184.269 220.142 175.399 224.279 172.533C224.279 172.533 222.492 170.052 220.199 166.943C217.629 167.5 214.799 167.186 212.187 166.75C212.187 166.75 204.709 161.018 202.004 157.994C199.299 154.969 198.821 150.989 200.572 148.761C202.322 146.532 207.759 141.092 207.759 141.092C207.759 141.092 207.29 139.135 207.444 136.152C207.444 136.152 205.156 131.425 204.705 123.771C204.255 116.116 202.455 115.216 202.455 115.216C202.455 115.216 198.54 117.692 196.74 119.268H188.864C188.864 119.268 191.429 116.341 196.379 111.388C201.33 106.436 205.965 104.575 208.305 110.038C211.006 116.342 212.884 117.179 213.97 120.475C217.769 115.516 222.816 111.052 231.032 105.836C228.717 104.111 227.404 102.56 222.688 103.179C220.647 104.705 219.196 103.722 217.663 103.722C216.129 103.722 215.687 102.542 215.687 102.542C215.687 102.542 214.209 102.523 214.05 100.772C213.891 99.0205 214.981 98.1065 214.981 98.1065C214.531 96.3054 215.431 94.9543 222.632 91.3522C229.832 87.7501 231.153 80.6897 238.833 79.1955C246.514 77.7013 249.184 81.6718 249.184 81.6718C252.334 76.2687 260.435 74.4678 260.435 74.4678C260.435 74.4678 258.635 77.1686 258.635 83.022C258.635 88.8754 254.352 90.2844 254.352 90.2844C268.672 107.795 257.852 123.715 257.852 123.715C259.268 136.484 250.556 145.414 245.359 155.814C245.359 162.568 248.098 170.448 252.148 174.95C256.199 179.453 255.89 183.783 255.89 183.783C256.685 186.012 259.492 189.283 262.254 187.763C265.017 186.243 266.2 179.501 265.405 174.884C269.468 182.787 268.339 190.147 263.049 191.424ZM209.656 150.712C209.656 150.712 208.306 150.712 207.181 151.612C207.181 151.612 208.081 155.664 208.081 157.916C208.081 157.916 211.231 159.042 212.806 161.518C212.806 161.518 214.387 161.454 216.16 161.542C215.311 160.426 214.473 159.336 213.706 158.366C209.431 152.963 209.656 150.712 209.656 150.712Z" stroke="black" stroke-width="0.630209"/>
<path d="M235.565 91.3167C236.589 88.9529 238.551 87.8537 240.179 88.2302C241.731 88.5891 243.176 89.241 243.176 89.241C243.176 89.241 242.253 91.2035 239.47 91.5666C236.688 91.9298 235.565 91.3167 235.565 91.3167Z" fill="white" stroke="black" stroke-width="0.630209"/>
<path d="M239.899 87.915C240.152 87.915 240.403 87.9648 240.636 88.0616C240.87 88.1584 241.082 88.3002 241.26 88.4791C241.439 88.6579 241.581 88.8702 241.678 89.1038C241.774 89.3375 241.824 89.5879 241.824 89.8408C241.824 90.3515 241.621 90.8413 241.26 91.2024C240.9 91.5636 240.41 91.7665 239.899 91.7665C239.389 91.7665 238.899 91.5636 238.538 91.2024C238.177 90.8413 237.975 90.3515 237.975 89.8408C237.975 89.5879 238.024 89.3375 238.121 89.1038C238.218 88.8702 238.36 88.6579 238.538 88.4791C238.717 88.3002 238.929 88.1584 239.163 88.0616C239.396 87.9648 239.647 87.915 239.899 87.915ZM239.607 88.7206C239.604 88.7206 239.601 88.7206 239.598 88.7206C239.451 88.7206 239.305 88.7417 239.169 88.7828C239.033 88.824 238.91 88.8842 238.806 88.9602C238.702 89.0362 238.619 89.1263 238.563 89.2256C238.507 89.3249 238.478 89.4312 238.478 89.5387C238.478 89.7557 238.596 89.9637 238.806 90.1172C239.016 90.2706 239.301 90.3568 239.598 90.3568C239.745 90.3568 239.89 90.3356 240.026 90.2945C240.162 90.2534 240.285 90.1931 240.389 90.1172C240.493 90.0412 240.576 89.951 240.632 89.8518C240.688 89.7525 240.717 89.6461 240.717 89.5387C240.717 89.3229 240.601 89.1158 240.393 88.9626C240.185 88.8094 239.902 88.7224 239.607 88.7206Z" fill="black"/>
<path d="M61.194 79.4489C61.194 79.4489 60.591 77.2663 58.4557 76.9512C58.4557 76.9512 57.8527 74.7686 55.7174 74.4535C55.7174 74.4535 55.1143 72.2709 52.979 71.9558C52.979 71.9558 52.376 69.7732 50.2444 69.4569C50.2444 69.4569 49.4713 67.4245 47.458 67.3419C47.458 67.3419 46.6812 65.3107 44.6736 65.2231C44.6736 65.2231 43.9799 63.4852 42.1675 63.4147C42.1675 63.4147 41.4682 61.6818 39.6594 61.6086C39.6594 61.6086 39.0079 60.0215 37.3105 59.9571C37.3105 59.9571 36.6556 58.3727 34.9647 58.3018C34.9647 58.3018 34.394 57.0445 32.8981 56.9936C32.8981 56.9936 32.3209 55.7427 30.826 55.6889C30.826 55.6889 30.261 54.5818 28.794 54.5369C28.794 54.5369 28.2279 53.4327 26.7618 53.3866C26.7618 53.3866 26.2079 52.3539 24.7699 52.312C24.7699 52.312 24.215 51.2805 22.7788 51.2363C22.7788 51.2363 22.2482 50.3473 20.8681 50.3112C20.8681 50.3112 20.3356 49.4245 18.9555 49.3885C18.0887 48.6779 16.9184 48.7685 15.875 48.4736C15.875 48.4736 17.0551 50.0107 19.1815 50.641C19.339 50.641 19.9691 51.5078 21.1504 51.6654C21.1504 51.6654 21.7017 52.7685 23.2768 52.8473C23.2768 52.8473 23.9856 54.1081 25.3245 54.1081C25.3245 54.1081 26.1908 55.3688 27.2934 55.29C27.2934 55.29 28.0022 56.3143 29.3411 56.5507C29.3411 56.5507 30.2074 57.6539 31.3888 57.7327C31.3888 57.7327 31.8613 58.9934 33.594 59.151C33.594 59.151 34.3815 60.4905 35.5629 60.5693C35.5629 60.5693 35.9567 61.83 37.9256 62.224C37.9256 62.224 38.3981 63.7211 40.1308 63.9575C40.1308 63.9575 40.9183 66.0062 42.8085 66.0062C42.8085 66.0062 43.5961 67.9761 45.4075 68.2125C45.4075 68.2125 45.88 70.34 48.0064 70.4976C48.0064 70.4976 48.7152 72.4674 50.6054 73.0978C50.6054 73.0978 51.1567 75.3041 53.2044 75.8557C53.2044 75.8557 53.9919 78.5347 56.1184 79.5591C58.2448 80.5834 61.194 79.4489 61.194 79.4489Z" fill="white" stroke="black" stroke-width="0.630209"/>
<path d="M58.4578 76.9512C58.4578 76.9512 55.6742 76.9851 55.3592 79.1914M55.7195 74.4535C55.7195 74.4535 54.3616 74.0171 53.2065 75.8557M50.6075 73.0979C50.7913 73.0453 51.0757 71.8906 52.9811 71.9558M48.0085 70.4976C48.0085 70.4976 48.5992 69.3356 50.2465 69.4569M45.4096 68.2125C45.4096 68.2125 46.0979 67.3119 47.4601 67.342M42.8106 66.0063C42.8106 66.0063 43.3643 65.2018 44.6757 65.2232M40.1329 63.9576C40.1329 63.9576 40.7149 63.3184 42.1696 63.4147M37.9277 62.2241C37.9277 62.2241 38.4163 61.5421 39.6615 61.6086M35.565 60.5693C35.565 60.5693 36.2804 59.8548 37.3127 59.9571M33.5961 59.151C33.5961 59.151 33.7049 58.3273 34.9668 58.3019M31.3909 57.7327C31.3909 57.7327 31.6879 56.9924 32.9002 56.9937M29.3432 56.5508C29.3432 56.5508 29.6599 55.7201 30.8281 55.6889M27.2955 55.29C27.2955 55.29 27.6563 54.5862 28.7961 54.537M25.3266 54.1081C25.3266 54.1081 25.7083 53.3442 26.764 53.3866M23.2789 52.8474C23.2789 52.8474 23.562 52.4207 24.772 52.312M21.1525 51.6654C21.1525 51.6654 21.7518 51.2722 22.7809 51.2363M19.1836 50.6411C19.1836 50.6411 19.8238 50.2578 20.8702 50.3113" stroke="black" stroke-width="0.630209"/>
<path d="M44.7462 250.96C44.7462 250.96 44.6647 252.442 45.2375 253.74C45.2375 253.74 50.7985 254.384 53.0261 254.066L52.6283 252.633C52.6283 252.633 53.9012 252.792 54.7763 252.474C54.7763 252.474 53.3443 249.608 50.2416 248.335C47.1389 247.061 44.7462 250.96 44.7462 250.96ZM106.756 228.396C106.756 228.396 106.958 229.697 107.117 230.811C107.117 230.811 110.757 231.832 113.781 230.877L112.985 229.524C112.985 229.524 114.576 229.285 115.213 229.046C114.795 227.954 114.123 226.123 110.835 224.929L106.756 228.396Z" fill="black"/>
<path d="M56.885 79.7849C56.885 79.7849 56.0142 77.488 53.7976 77.4115C53.7976 77.4115 52.9268 75.1146 50.7101 75.0382C50.7101 75.0382 49.8393 72.7412 47.6227 72.6648C47.6227 72.6648 46.7519 70.3678 44.5389 70.2897C44.5389 70.2897 43.5121 68.1771 41.4472 68.3383C41.4472 68.3383 40.4167 66.2274 38.357 66.3824C38.357 66.3824 37.4456 64.5799 35.5873 64.7292C35.5873 64.7292 34.6708 62.9329 32.8157 63.0788C32.8157 63.0788 31.9651 61.4351 30.2248 61.5766C30.2248 61.5766 29.371 59.9362 27.6366 60.0699C27.6366 60.0699 26.907 58.7745 25.374 58.9056C25.374 58.9056 24.6385 57.618 23.1061 57.7458C23.1061 57.7458 22.3999 56.613 20.897 56.747C20.897 56.747 20.1901 55.6175 18.6881 55.75C18.6881 55.75 18.0019 54.6966 16.5289 54.8303C16.5289 54.8303 15.8419 53.7784 14.3706 53.9093C14.3706 53.9093 13.725 53.0092 12.312 53.142C12.312 53.142 11.6647 52.2447 10.2516 52.3775C9.28366 51.7132 8.09962 51.9575 7 51.7671C7 51.7671 8.38437 53.2906 10.6288 53.7107C10.7896 53.6911 11.5341 54.5546 12.7585 54.5786C12.7585 54.5786 13.4503 55.7089 15.0674 55.5982C15.0674 55.5982 15.9384 56.8801 17.3052 56.7133C17.3052 56.7133 18.337 57.9755 19.4533 57.7525C19.4533 57.7525 20.2967 58.7775 21.6911 58.8675C21.6911 58.8675 22.7044 59.9585 23.9196 59.8969C23.9196 59.8969 24.5494 61.2083 26.3365 61.1636C26.3365 61.1636 27.2972 62.5214 28.5123 62.4598C28.5123 62.4598 29.0617 63.7809 31.1177 63.9638C31.1177 63.9638 31.7752 65.532 33.5715 65.573C33.5715 65.573 34.6151 67.7015 36.5446 67.4659C36.5446 67.4659 37.5789 69.5088 39.4557 69.54C39.4557 69.54 40.1869 71.7933 42.376 71.6996C42.376 71.6996 43.3299 73.7523 45.3332 74.2018C45.3332 74.2018 46.1539 76.531 48.3088 76.8753C48.3088 76.8753 49.426 79.6889 51.7165 80.5372C54.007 81.3855 56.885 79.7849 56.885 79.7849Z" fill="white" stroke="black" stroke-width="0.63024"/>
<path d="M53.7978 77.4116C53.7978 77.4116 50.9601 77.7953 50.8965 80.2325M50.7103 75.0382C50.7103 75.0382 49.2731 74.7331 48.309 76.8753M45.3334 74.2019C45.5148 74.1219 45.6701 72.8314 47.6229 72.6648M42.3762 71.6996C42.3762 71.6996 42.8433 70.363 44.5391 70.2897M39.4559 69.54C39.4559 69.54 40.0533 68.4754 41.4474 68.3383M36.5448 67.466C36.5448 67.466 37.016 66.5226 38.3572 66.3824M33.5718 65.573C33.5718 65.573 34.0912 64.8059 35.5875 64.7293M31.1179 63.9638C31.1179 63.9638 31.537 63.1617 32.8159 63.0788M28.5125 62.4598C28.5125 62.4598 29.1593 61.5941 30.225 61.5766M26.3368 61.1637C26.3368 61.1637 26.3516 60.2549 27.6368 60.07M23.9198 59.897C23.9198 59.897 24.1364 59.0553 25.3742 58.9056M21.6913 58.8676C21.6913 58.8676 21.9174 57.9253 23.1063 57.7458M19.4535 57.7525C19.4535 57.7525 19.7395 56.9426 20.8972 56.747M17.3054 56.7133C17.3054 56.7133 17.6056 55.8354 18.6883 55.75M15.0676 55.5982C15.0676 55.5982 15.3067 55.0992 16.5292 54.8303M12.7587 54.5787C12.7587 54.5787 13.3245 54.0766 14.3709 53.9093M10.629 53.7107C10.629 53.7107 11.2378 53.2144 12.3122 53.142" stroke="black" stroke-width="0.63024"/>
<path d="M36.3735 191.424C41.6633 192.702 43.9572 188.718 43.9572 188.718C45.8665 197.951 44.9123 204.159 42.6847 207.82C40.4572 211.482 35.8428 211.641 35.8428 214.347C35.8428 217.054 38.1244 217.271 38.7067 219.601C39.289 221.932 39.5244 236.114 39.2777 241.915C39.031 247.716 41.5707 248.62 41.5707 248.62C44.13 246.85 44.8641 249.465 45.0253 251.128C45.0253 251.128 49.6838 251.788 50.2388 249.844C50.7939 247.9 48.7763 246.354 46.9762 246.129C44.8987 243.219 44.3096 236.781 43.4132 228.682C42.5163 220.577 42.0636 219.451 52.4145 215.849C62.7654 212.247 68.8517 200.607 70.1905 195.138C70.1905 195.138 77.0837 197.902 79.4395 201.347C81.7954 204.792 76.5757 206.919 77.053 209.785C77.4756 212.321 79.0639 211.427 82.1443 212.968C85.2247 214.509 97.5788 221.883 100.125 223.793C102.67 225.703 101.874 227.454 103.784 228.728C103.784 228.728 105.216 226.181 106.966 228.41C106.966 228.41 110.148 228.251 110.785 225.226C110.785 225.226 104.281 221.552 97.2607 216.47C90.2408 211.387 87.0346 210.523 86.1223 207.237C85.2101 203.951 90.3108 201.551 89.7821 192.91C89.2533 184.269 79.2809 175.399 75.144 172.533C75.144 172.533 76.9313 170.052 79.2237 166.943C81.7936 167.5 84.6241 167.186 87.2364 166.75C87.2364 166.75 94.7141 161.018 97.419 157.994C100.124 154.969 100.602 150.989 98.8514 148.761C97.1012 146.532 91.664 141.092 91.664 141.092C91.664 141.092 92.1327 139.135 91.979 136.152C91.979 136.152 94.2674 131.425 94.7175 123.771C95.1675 116.116 96.9678 115.216 96.9678 115.216C96.9678 115.216 100.883 117.692 102.683 119.268H110.559C110.559 119.268 107.994 116.341 103.044 111.388C98.0931 106.436 93.4578 104.575 91.1176 110.038C88.4174 116.342 86.5388 117.179 85.4529 120.475C81.6539 115.516 76.6069 111.052 68.3906 105.836C70.706 104.111 72.0187 102.56 76.7347 103.179C78.7759 104.705 80.2265 103.722 81.7604 103.722C83.2942 103.722 83.7359 102.542 83.7358 102.542C83.7358 102.542 85.2142 102.523 85.3733 100.772C85.5324 99.0205 84.4422 98.1065 84.4422 98.1065C84.8922 96.3054 83.9919 94.9543 76.7913 91.3522C69.5907 87.7501 68.2702 80.6897 60.5896 79.1955C52.9089 77.7013 50.2388 81.6718 50.2388 81.6718C47.0886 76.2687 38.9881 74.4678 38.9881 74.4678C38.9881 74.4678 40.788 77.1686 40.788 83.022C40.788 88.8754 45.0712 90.2844 45.0712 90.2844C30.7511 107.795 41.5707 123.715 41.5707 123.715C40.1552 136.484 48.8665 145.414 54.0643 155.814C54.0643 162.568 51.3251 170.448 47.2748 174.95C43.2244 179.453 43.533 183.783 43.533 183.783C42.7375 186.012 39.9307 189.283 37.1685 187.763C34.4063 186.243 33.668 180.281 34.4637 175.664C30.4001 183.567 31.0838 190.147 36.3735 191.424ZM89.7673 150.712C89.7673 150.712 91.1173 150.712 92.2424 151.612C92.2424 151.612 91.3424 155.664 91.3424 157.916C91.3424 157.916 88.1922 159.042 86.617 161.518C86.617 161.518 85.0365 161.454 83.2625 161.542C84.1118 160.426 84.9499 159.336 85.7171 158.366C89.9924 152.963 89.7673 150.712 89.7673 150.712Z" fill="white"/>
<path d="M41.6757 77.1782C41.6757 77.1782 44.8579 81.6352 44.6988 88.162C44.6988 88.162 48.6759 88.4803 51.54 90.8682C51.54 90.8682 48.9948 88.3217 47.5627 83.8644C46.1307 79.407 43.4259 77.815 41.6757 77.1782ZM53.773 79.3804C51.2433 80.1926 49.9031 81.5606 49.9031 81.5606C49.9031 81.5606 51.8582 85.615 51.6991 88.4805C52.3952 87.9419 52.7727 87.0999 52.7176 85.3925C52.7176 85.3925 54.7227 87.6842 56.4729 87.3658C56.4729 87.3658 52.0115 84.3376 53.773 79.3804ZM45.0696 90.2846C30.7495 107.796 41.569 123.715 41.569 123.715C40.1536 136.484 48.8649 145.414 54.0626 155.815C62.0228 162.982 48.9377 193.644 47.0869 191.16C45.2855 188.721 44.0956 187.841 44.0956 187.841L44.0717 187.952L44.2454 189.655C45.0828 198.064 44.7605 204.406 42.6831 207.821C42.6831 207.821 44.0496 208.571 42.6995 210.259C41.3494 211.948 41.9117 213.974 44.4994 213.636C45.4889 216.21 43.2015 217.809 43.6528 220.654C44.6962 218.868 47.1636 217.676 52.4128 215.85C62.7637 212.247 68.8501 200.607 70.1889 195.138C69.5994 188.019 67.5182 187.29 67.3323 180.374C67.1406 173.295 74.8156 166.506 77.857 161.637L87.1404 149.736C87.1404 149.736 87.7406 153.489 85.7154 158.366C89.9908 152.963 89.7657 150.712 89.7657 150.712C89.7657 150.712 91.3231 150.93 92.4482 151.831C93.058 151.101 91.568 148.122 94.4911 149.061C97.4051 149.997 98.5439 154.77 97.4174 157.994C100.122 154.969 100.6 150.989 98.8498 148.761C97.0995 146.532 91.6624 141.092 91.6624 141.092C91.6624 141.092 92.1311 139.135 91.9774 136.153C90.7397 128.24 88.117 124.811 86.5686 122.223L88.8657 118.818C94.2662 126.923 91.8103 135.818 91.8103 135.818C91.8103 135.818 94.2658 131.426 94.7158 123.771C95.1659 116.117 97.0744 115.068 97.0744 115.068C96.1744 111.916 95.3909 112.739 94.7158 109.813C94.3896 108.398 95.8002 107.618 97.3427 107.186C94.73 106.127 92.5134 106.776 91.116 110.038C88.4158 116.342 86.5372 117.179 85.4513 120.475C81.6523 115.517 76.6053 111.053 68.389 105.836C70.7043 104.111 72.0171 102.561 76.7331 103.179C75.248 102.33 73.9224 100.845 73.9224 100.845C74.3998 99.0937 75.8315 97.5018 75.8315 97.5018C73.763 95.5915 75.0358 92.885 78.3771 93.3625C79.4748 93.5194 80.3725 93.6315 81.1672 93.7253C80.0655 93.0517 78.6379 92.277 76.7897 91.3524C72.8616 89.3874 68.566 84.502 66.1505 81.9437C69.1603 85.8254 70.8163 89.2556 72.6492 90.9749C75.195 93.3627 74.2407 96.0683 70.7402 94.7948C67.2397 93.5213 63.4407 89.9359 63.4407 89.9359L62.9831 91.8658C66.1654 93.7761 70.8988 100.526 68.9895 102.755C67.0801 104.983 62.4661 105.779 57.2154 102.596C51.9646 99.4117 51.3283 92.2479 51.3283 92.2479C50.0554 92.0887 49.7368 90.7798 49.7368 90.7798C48.2801 91.0041 45.951 90.2308 45.0612 89.9545L45.0696 90.2846ZM79.5174 96.0687C79.5174 96.0687 79.1995 97.5807 80.5519 98.0583C81.9044 98.5358 82.1427 99.3321 82.1427 99.3321C82.1427 99.3321 83.3965 99.8259 84.4406 98.1067C84.4406 98.1067 81.2677 98.6953 79.5174 96.0687ZM81.1533 100.856C80.9151 100.845 80.6613 100.865 80.3928 100.924C78.2448 101.402 77.2105 101.401 77.2105 101.401C77.2105 101.401 77.6081 102.038 79.6766 101.72C81.0986 101.501 81.9469 101.514 83.4758 102.958C83.6583 102.732 83.7342 102.542 83.7342 102.542C83.7342 102.542 82.8207 100.938 81.1533 100.856ZM36.0536 138.095C33.5078 138.414 32.0756 140.642 32.0756 145.736C32.0756 150.83 31.7573 152.582 31.7573 152.582C31.1059 148.293 29.378 149.141 30.1665 142.871C29.248 143.475 27.7297 145.915 29.0525 150.194C30.4014 154.557 30.1665 157.358 30.1665 157.358C28.0981 155.766 28.0975 150.99 28.0975 150.99C26.3473 152.9 25.5516 156.402 27.4609 158.631C29.3703 160.859 29.5299 162.452 29.5299 162.452C27.7797 161.974 26.3477 162.77 26.3477 162.77C30.3255 164.84 33.4343 168.718 31.9164 176.142C31.2542 179.381 31.0118 182.459 31.3873 185.007C32.5447 187.409 35.4068 190.713 38.3343 190.262C42.7234 189.587 44.3784 185.614 43.8127 183.703C43.0171 185.932 39.9291 189.283 37.1669 187.763C34.4046 186.243 33.6663 180.281 37.0077 175.187C40.3491 170.093 37.1669 165.158 37.1669 159.268C37.1669 153.378 38.4401 150.353 38.4401 150.353C35.9324 150.867 36.133 153.12 34.6212 154.969C34.7803 152.581 35.2447 150.127 34.3029 146.373C33.3611 142.619 34.2357 139.704 36.0536 138.095ZM84.6137 181.549C81.7486 183.632 82.8272 187.304 84.5899 190.635C86.6151 194.462 84.3651 201.666 79.4379 201.347C80.4249 202.79 80.0768 204.001 79.3805 205.133C80.6794 205.527 81.3888 206.635 81.3888 207.459C81.3888 209.035 82.7356 209.172 83.5209 208.247C84.0555 207.618 85.0677 207.379 86.3119 207.804C86.2401 207.623 86.1756 207.435 86.1207 207.237C85.2085 203.951 90.3092 201.551 89.7805 192.91C89.5395 188.972 87.3315 184.992 84.6137 181.549ZM66.2648 82.2249C66.2648 82.2249 61.4367 79.027 55.0777 79.3588C55.0777 79.3588 61.4946 77.8058 66.2648 82.2249Z" fill="black"/>
<path d="M49.0377 92.6279C49.0377 92.6279 44.0873 94.8798 42.7372 107.037C41.3871 119.194 46.8736 122.229 46.8736 122.229C44.646 127.96 46.5556 134.646 51.0108 142.606C55.4659 150.565 54.314 156.149 54.314 156.149C54.314 161.488 52.3476 167.191 49.6292 171.713C50.9191 180.162 45.386 186.266 47.0877 191.16C48.8878 196.338 48.2133 200.841 48.2133 200.841C48.2133 200.841 54.2887 199.04 56.9889 196.113C56.9889 196.113 56.5385 189.81 61.2639 187.108C65.9893 184.406 63.5141 179.904 62.839 174.726C62.164 169.548 66.5688 168.827 72.7402 165.946C79.4908 162.794 85.5661 156.04 87.1412 149.736C80.9319 152.292 74.2383 151.328 72.4908 147.434C71.1937 144.544 71.1373 142.722 68.3897 141.932C68.3897 141.932 70.8651 141.031 72.2152 143.508C73.5653 145.984 74.2398 149.361 79.8652 148.236C85.4907 147.11 87.4973 141.597 85.1616 136.039C82.8403 130.516 79.3057 128.479 76.9406 127.524C79.1908 127.299 81.3195 127.712 84.5906 132.026C87.8459 136.319 87.2598 137.35 89.9912 139.23C90.8913 132.251 86.8413 123.471 79.4157 117.618C71.99 111.764 65.9146 107.937 65.9146 107.937C51.7384 109.063 49.0377 92.6279 49.0377 92.6279Z" fill="#CC6633"/>
<path d="M70.1914 195.138C70.1914 195.138 70.9434 191.559 70.4914 186.132C70.0414 180.729 73.8667 181.18 73.8667 181.18C73.0715 176.62 73.9437 174.216 75.1444 172.534" stroke="black" stroke-width="0.630209"/>
<path d="M80.1236 167.112C80.1236 167.112 77.8488 165.645 78.2536 163.92C78.6584 162.195 80.9538 161.668 80.9538 161.668C80.9538 161.668 78.5912 160.993 75.8909 161.443C73.1907 161.894 71.3359 165.131 71.3359 165.131L73.8657 165.608L72.5156 167.409C72.5156 167.409 76.1431 168.56 80.1236 167.112Z" fill="black"/>
<path d="M83.2625 161.542C83.2625 161.542 80.954 161.668 79.3789 161.781" stroke="black" stroke-width="0.630209"/>
<path d="M50.8782 249.529L50.4805 250.564L52.3898 252.076L53.6627 251.997C53.6627 251.997 52.0716 250.007 50.8782 249.529ZM111.023 226.526L110.386 227.402L112.773 228.834L114.125 228.516C114.125 228.516 112.773 227.004 111.023 226.526ZM77.43 164.985C77.43 164.985 77.6686 165.86 77.9073 166.418C76.0473 166.777 75.168 166.589 73.7511 166.557L74.6784 165.317L77.43 164.985Z" fill="white"/>
<path d="M36.3725 191.424C41.6622 192.702 43.9561 188.718 43.9561 188.718C45.8654 197.951 44.9112 204.159 42.6837 207.82C40.4561 211.482 35.8417 211.641 35.8417 214.347C35.8417 217.054 38.1233 217.271 38.7056 219.601C39.2879 221.932 39.5234 236.114 39.2766 241.915C39.0299 247.716 41.5696 248.62 41.5696 248.62C44.1289 246.85 44.863 249.465 45.0242 251.128C45.0242 251.128 49.6827 251.788 50.2377 249.844C50.7928 247.9 48.7752 246.354 46.9751 246.129C44.8976 243.219 44.3085 236.781 43.4122 228.682C42.5152 220.577 42.0625 219.451 52.4134 215.849C62.7643 212.247 68.8506 200.607 70.1894 195.138C70.1894 195.138 77.0826 197.902 79.4384 201.347C81.7943 204.792 76.5746 206.919 77.0519 209.785C77.4745 212.321 79.0628 211.427 82.1432 212.968C85.2237 214.509 97.5777 221.883 100.124 223.793C102.669 225.703 101.873 227.454 103.782 228.728C103.782 228.728 105.214 226.181 106.965 228.41C106.965 228.41 110.147 228.251 110.784 225.226C110.784 225.226 104.28 221.552 97.2596 216.47C90.2397 211.387 87.0335 210.523 86.1213 207.237C85.209 203.951 90.3098 201.551 89.781 192.91C89.2522 184.269 79.2798 175.399 75.1429 172.533C75.1429 172.533 76.9302 170.052 79.2227 166.943C81.7925 167.5 84.623 167.186 87.2353 166.75C87.2353 166.75 94.713 161.018 97.4179 157.994C100.123 154.969 100.601 150.989 98.8503 148.761C97.1001 146.532 91.6629 141.092 91.6629 141.092C91.6629 141.092 92.1316 139.135 91.978 136.152C91.978 136.152 94.2664 131.425 94.7164 123.771C95.1664 116.116 96.9667 115.216 96.9667 115.216C96.9667 115.216 100.882 117.692 102.682 119.268H110.558C110.558 119.268 107.993 116.341 103.042 111.388C98.092 106.436 93.4567 104.575 91.1166 110.038C88.4163 116.342 86.5377 117.179 85.4518 120.475C81.6529 115.516 76.6058 111.052 68.3895 105.836C70.7049 104.111 72.0176 102.56 76.7336 103.179C78.7748 104.705 80.2255 103.722 81.7593 103.722C83.2931 103.722 83.7348 102.542 83.7348 102.542C83.7348 102.542 85.2131 102.523 85.3722 100.772C85.5314 99.0205 84.4411 98.1065 84.4411 98.1065C84.8911 96.3054 83.9908 94.9543 76.7902 91.3522C69.5896 87.7501 68.2692 80.6897 60.5885 79.1955C52.9079 77.7013 50.2377 81.6718 50.2377 81.6718C47.0875 76.2687 38.987 74.4678 38.987 74.4678C38.987 74.4678 40.7869 77.1686 40.7869 83.022C40.7869 88.8754 45.0702 90.2844 45.0702 90.2844C30.75 107.795 41.5696 123.715 41.5696 123.715C40.1542 136.484 48.8655 145.414 54.0632 155.814C54.0632 162.568 51.324 170.448 47.2737 174.95C43.2234 179.453 43.5319 183.783 43.5319 183.783C42.7364 186.012 39.9296 189.283 37.1674 187.763C34.4052 186.243 33.2214 179.501 34.0171 174.884C29.9535 182.787 31.0827 190.147 36.3725 191.424ZM89.7662 150.712C89.7662 150.712 91.1162 150.712 92.2413 151.612C92.2413 151.612 91.3413 155.664 91.3413 157.916C91.3413 157.916 88.1911 159.042 86.6159 161.518C86.6159 161.518 85.0354 161.454 83.2614 161.542C84.1107 160.426 84.9488 159.336 85.716 158.366C89.9914 152.963 89.7662 150.712 89.7662 150.712Z" stroke="black" stroke-width="0.630209"/>
<path d="M63.8607 91.3167C62.8369 88.9529 60.8744 87.8537 59.2467 88.2302C57.695 88.5891 56.25 89.241 56.25 89.241C56.25 89.241 57.1728 91.2035 59.9555 91.5666C62.7383 91.9298 63.8607 91.3167 63.8607 91.3167Z" fill="white" stroke="black" stroke-width="0.630209"/>
<path d="M59.5224 87.9146C59.2697 87.9146 59.0194 87.9644 58.7858 88.0611C58.5523 88.1579 58.3401 88.2998 58.1614 88.4786C57.9827 88.6574 57.8409 88.8697 57.7442 89.1033C57.6474 89.337 57.5977 89.5874 57.5977 89.8403C57.5977 90.351 57.8004 90.8408 58.1614 91.2019C58.5224 91.5631 59.0119 91.766 59.5224 91.766C60.0329 91.766 60.5225 91.5631 60.8834 91.2019C61.2444 90.8408 61.4472 90.351 61.4472 89.8403C61.4472 89.5874 61.3974 89.337 61.3007 89.1033C61.2039 88.8697 61.0622 88.6574 60.8834 88.4786C60.7047 88.2998 60.4925 88.1579 60.259 88.0611C60.0255 87.9644 59.7752 87.9146 59.5224 87.9146ZM59.8149 88.7201C59.818 88.7201 59.8211 88.7201 59.8243 88.7201C59.9713 88.7201 60.1169 88.7412 60.2527 88.7824C60.3886 88.8235 60.512 88.8837 60.616 88.9597C60.7199 89.0357 60.8024 89.1259 60.8587 89.2251C60.9149 89.3244 60.9439 89.4308 60.9439 89.5382C60.9439 89.7552 60.8259 89.9633 60.616 90.1167C60.406 90.2701 60.1212 90.3563 59.8243 90.3563C59.6772 90.3563 59.5316 90.3351 59.3958 90.294C59.26 90.2529 59.1365 90.1927 59.0326 90.1167C58.9286 90.0407 58.8461 89.9505 58.7899 89.8513C58.7336 89.752 58.7046 89.6456 58.7046 89.5382C58.7046 89.3224 58.8213 89.1154 59.0292 88.9621C59.2372 88.8089 59.5196 88.7219 59.8149 88.7201Z" fill="black"/>
<path d="M199.606 119.57L122.449 227.708C130.119 236.118 139.366 242.479 149.712 245.192C178.905 237.538 199.606 201.186 199.606 170.118V119.57Z" fill="#009543"/>
<path d="M99.8164 119.569V170.118C99.8164 190.175 108.478 212.391 122.448 227.709L199.605 119.571V119.569L99.8164 119.569Z" fill="#003580"/>
<path d="M177.104 119.569L111.969 213.378C118.572 224.79 127.559 234.537 138.16 240.478L199.606 151.978V119.571L199.604 119.569L177.104 119.569Z" fill="white"/>
<path d="M185.543 119.569L116.008 219.716C120.65 226.352 126.152 232.189 132.332 236.718L199.606 139.828V119.569H185.543Z" fill="#D21034"/>
<path d="M199.605 119.569V170.118C199.605 201.186 178.903 237.537 149.711 245.192C120.518 237.537 99.8164 201.186 99.8164 170.118V119.569H199.605Z" stroke="black" stroke-width="0.840278"/>
<path d="M127.437 127.709L124.868 136.089C125.706 135.864 126.57 135.75 127.437 135.75C128.305 135.75 129.168 135.864 130.006 136.088L127.437 127.709ZM118.455 130.118L120.417 138.66C121.65 137.428 123.185 136.541 124.868 136.09L118.455 130.118ZM120.417 138.66L111.88 136.696L117.848 143.113C118.299 141.429 119.185 139.893 120.417 138.66ZM136.42 130.118L130.008 136.089C131.691 136.54 133.225 137.427 134.457 138.66L136.42 130.118ZM142.996 136.696L134.458 138.66C135.69 139.893 136.576 141.429 137.027 143.113L142.996 136.696ZM117.847 143.113L109.473 145.684L117.847 148.255C117.623 147.416 117.509 146.552 117.509 145.684C117.509 144.816 117.623 143.952 117.847 143.113ZM137.028 143.113C137.252 143.952 137.366 144.816 137.366 145.684C137.365 146.552 137.252 147.416 137.027 148.255L145.403 145.684L137.028 143.113ZM137.027 148.255C136.576 149.938 135.69 151.474 134.458 152.707L142.996 154.671L137.027 148.255ZM117.848 148.255L111.88 154.671L120.417 152.707C119.185 151.474 118.299 149.938 117.848 148.255ZM120.417 152.707L118.455 161.249L124.867 155.278C123.184 154.826 121.649 153.94 120.417 152.707ZM134.457 152.707C133.225 153.94 131.691 154.827 130.008 155.278L136.42 161.249L134.457 152.707ZM124.868 155.278L127.437 163.658L130.007 155.278C129.169 155.503 128.305 155.617 127.437 155.617C126.57 155.617 125.706 155.503 124.868 155.278Z" fill="#FFCE00"/>
<path d="M127.436 153.095C131.527 153.095 134.844 149.777 134.844 145.683C134.844 141.59 131.527 138.271 127.436 138.271C123.344 138.271 120.027 141.59 120.027 145.683C120.027 149.777 123.344 153.095 127.436 153.095Z" fill="#FFCE00"/>
<path d="M168.238 87.9378C168.238 87.9378 170.365 91.615 173.672 93.9788C173.672 93.9788 175.248 94.0839 176.429 93.1384L174.145 89.2774L178.004 92.3504C178.004 92.3504 180.682 91.4836 182.73 89.6713L179.742 87.0265C179.742 87.0265 182.192 87.918 184.086 88.2523C184.086 88.2523 186.87 87.0265 189.098 84.7979C189.098 84.7979 185.756 83.6835 184.42 83.1264C184.42 83.1264 188.318 83.4607 190.657 83.4607C190.657 83.4607 193.107 81.6777 193.998 79.5605C187.801 80.0876 182.501 77.1704 178.22 79.7833L168.238 87.9378Z" fill="#003580" stroke="black" stroke-width="0.630209"/>
<path d="M174.145 89.2774C174.145 89.2774 172.242 86.8037 171.574 85.8008M179.742 87.0266C179.742 87.0266 176.437 85.5014 174.025 83.2378M176.698 81.6777C176.698 81.6777 179.891 82.5692 184.42 83.1264" stroke="black" stroke-width="0.630209"/>
<path d="M101.951 11.0858C101.951 11.0858 95.4926 6.35811 92.0273 1C92.0273 1 92.3424 9.19475 99.273 13.7649C99.273 13.7649 94.7051 11.5586 92.6574 10.2979C92.6574 10.2979 94.2325 15.9712 101.793 21.0141C101.793 21.0141 98.8004 21.1717 93.445 17.8623C95.8586 23.5016 103.54 27.676 109.826 27.9481C109.826 27.9481 105.416 28.7361 101.163 27.4753C101.163 27.4753 104.259 33.0504 114.709 32.6759C114.709 32.6759 110.141 33.3062 108.251 33.3062C108.251 33.3062 110.771 36.6156 118.805 36.9308C118.805 36.9308 115.497 37.5612 112.347 37.246C114.361 40.1584 118.632 41.5892 125.105 41.9738C125.105 41.9738 121.797 42.4465 118.175 42.6041C120.278 44.6687 123.863 45.3736 130.618 44.8104C130.618 44.8104 127.94 46.3863 124.475 46.3863C125.752 48.7272 129.471 48.8355 135.635 48.0737C135.635 48.0737 133.633 49.6305 128.57 49.8533C129.439 51.7692 134.318 52.3189 137.234 51.7444C137.234 51.7444 135.413 52.4449 133.63 52.8907C133.63 52.8907 134.521 54.005 138.086 54.6736C138.086 54.6736 137.195 55.1194 136.415 55.788C136.415 55.788 138.197 57.7938 142.318 58.2395L142.03 43.444L116.721 27.1298L101.951 11.0858Z" fill="#003580" stroke="black" stroke-width="0.630209"/>
<path d="M99.2734 13.7646C99.2734 13.7646 101.48 14.9658 104.153 16.0801M101.794 21.0139C101.794 21.0139 104.821 22.4318 107.717 22.989M118.805 36.9306C118.805 36.9306 122.976 37.0297 126.428 36.6954M125.106 41.9735C125.106 41.9735 130.438 42.0813 135.339 40.5956M130.619 44.8101C130.619 44.8101 134.002 44.83 138.569 43.0471M135.635 48.0734C135.635 48.0734 138.791 47.2816 141.13 46.0558M137.234 51.7442C137.234 51.7442 139.46 51.2932 142.69 50.4017M138.086 54.6734C138.086 54.6734 140.685 54.8591 143.469 54.3019" stroke="black" stroke-width="0.630209"/>
<path d="M119.016 23.8508C119.016 23.8508 110.457 19.1756 106.047 7.82902C106.047 7.82902 105.417 9.29987 105.575 10.2454C105.575 10.2454 103.054 8.51191 99.4315 3.15381C99.2641 7.43751 101.263 12.7036 106.047 16.3915C106.047 16.3915 104.019 15.5765 102.128 14.3158C102.128 14.3158 103.008 16.9375 104.945 18.7554L103.054 18.4402C103.054 18.4402 104.591 22.3958 110.457 26.4773H108.567C108.567 26.4773 111.403 32.9386 121.798 35.9328C132.194 38.927 135.336 40.6164 138.569 43.7903L137.55 39.715L119.016 23.8508Z" fill="#D21034" stroke="black" stroke-width="0.630209"/>
<path d="M140.795 64.0714C140.795 63.18 144.137 52.4823 138.568 43.7905C132.999 35.0986 120.302 30.1955 118.074 21.7266C118.074 21.7266 124.26 28.189 131.662 32.4242C139.064 36.6595 140.573 40.0017 140.573 40.0017C140.573 40.0017 145.649 42.5537 149.587 50.6565C153.524 58.7593 152.379 62.9571 152.379 62.9571L140.795 64.0714Z" fill="#D21034" stroke="black" stroke-width="0.630209"/>
<path d="M140.574 40.0015C140.574 40.0015 146.152 50.0283 144.566 63.3193" stroke="black" stroke-width="0.630209"/>
<path d="M130.566 75.0153C135.76 75.9305 135.417 78.6538 141.246 79.7239C146.969 80.7745 149.362 83.5252 149.362 83.5252L158.288 79.3753L157.973 59.8339C157.973 59.8339 150.255 57.7853 143.009 61.8826C135.764 65.98 134.262 67.0798 130.586 66.9683C126.911 66.8569 125.686 70.1999 125.574 71.4257L130.566 75.0153Z" fill="white" stroke="black" stroke-width="0.630209"/>
<path d="M153.142 70.7607C155.032 80.2162 149.362 83.5256 149.362 83.5256C149.362 83.5256 149.992 89.9868 149.047 97.0784L162.567 86.2834C162.567 86.2834 165.402 85.8107 168.237 87.9382C168.237 87.9382 175.212 87.3612 178.219 79.7837C178.219 79.7837 176.457 77.6409 175.1 73.3205C173.743 69.0001 172.093 67.0802 169.086 65.8544L160.484 61.3735L153.142 70.7607Z" fill="#D21034" stroke="black" stroke-width="0.630209"/>
<path d="M147.988 100.045C149.508 94.3796 151.05 90.9333 153.121 87.5845C155.285 84.0868 160.751 83.414 162.629 83.5254C162.629 83.5254 162.698 84.4265 161.695 85.6523L162.809 85.4947C162.809 85.4947 162.174 87.487 160.582 88.5496L161.765 88.3458C161.765 88.3458 161.473 90.8897 158.354 92.1155L159.796 92.0096C159.796 92.0096 159.185 93.67 156.461 95.3471C156.461 95.3471 157.129 95.3471 158.02 95.7928C158.02 95.7928 157.018 97.3529 154.456 97.7986C154.456 97.7986 155.424 98.0501 156.054 98.838C153.891 100.469 151.019 99.2574 149.754 101.832L147.988 100.045Z" fill="white" stroke="black" stroke-width="0.630209"/>
<path d="M161.769 85.9585L161.624 85.3442C158.019 86.1938 156.331 87.992 156.331 87.992C156.331 87.992 158.282 86.7804 161.769 85.9585ZM160.647 88.859L160.52 88.2417C157.712 88.8188 154.605 91.1128 154.605 91.1128C154.605 91.1128 158.034 89.3962 160.647 88.859ZM158.393 92.4296L158.318 91.803C155.925 92.0904 154.104 93.4534 154.104 93.4534C154.104 93.4534 156.146 92.6994 158.393 92.4296ZM156.439 95.6621L156.483 95.0324C153.836 94.8584 152.433 96.3493 152.433 96.3493C152.433 96.3493 154 95.5018 156.439 95.6621ZM154.38 98.1036L154.532 97.4924C153.349 97.3167 151.942 97.6188 151.094 98.3657C153.065 97.7675 154.38 98.1036 154.38 98.1036Z" fill="black"/>
<path d="M161.957 63.4769C161.957 63.4769 164.741 66.2628 169.976 67.1542C175.211 68.0457 177.327 64.5912 177.327 64.5912C177.327 64.5912 171.981 64.8141 169.085 63.1426C169.085 63.1426 175.211 64.0341 178.664 61.1368C178.664 61.1368 173.206 61.2482 170.422 59.2424C170.422 59.2424 178.887 59.911 182.228 57.1252C182.228 57.1252 177.216 56.6794 174.32 55.5651C174.32 55.5651 182.339 56.2337 185.347 53.225C185.347 53.225 181.809 52.5324 180.234 51.902C180.234 51.902 184.959 51.7444 188.897 48.1198C188.897 48.1198 185.432 47.8046 184.172 47.4895C184.172 47.4895 190.472 47.1743 194.883 41.8162C193.308 41.8162 192.363 41.6586 191.103 41.3434C191.103 41.3434 198.682 38.061 201.675 33.0181C201.675 33.0181 199.923 33.1487 198.978 33.1487C198.978 33.1487 203.473 30.5237 205.436 25.7419C205.436 25.7419 202.455 27.418 197.403 28.7361C197.403 28.7361 204.649 25.1115 207.956 17.7047C207.956 17.7047 201.761 22.2748 199.713 23.378C199.713 23.378 205.384 18.4926 206.644 13.4497L203.494 15.3408C203.494 15.3408 209.479 8.87958 210.109 2.26074C210.109 2.26074 205.226 8.72199 200.658 12.8194L171.661 40.0466L161.957 63.4769Z" fill="#003580" stroke="black" stroke-width="0.630209"/>
<path d="M169.086 63.1426C169.086 63.1426 166.784 62.734 164.891 61.1739M170.422 59.2424C170.422 59.2424 167.452 58.8338 165.225 58.1652M174.321 55.5651C174.321 55.5651 171.139 54.9528 168.77 53.9825M180.235 51.902C180.235 51.902 173.355 52.1478 169.457 51.3678M184.173 47.4895C184.173 47.4895 178.709 47.716 173.415 46.9232M191.103 41.3434C191.103 41.3434 183.38 43.456 175.694 43.2331M198.979 33.1487C198.979 33.1487 189.283 37.9957 179.37 40.1129M197.404 28.7361C197.404 28.7361 191.51 32.6469 183.491 34.3184M199.714 23.378C199.714 23.378 194.072 27.1866 189.728 28.7467M203.494 15.3408C203.494 15.3408 196.856 21.2806 190.842 24.6236" stroke="black" stroke-width="0.630209"/>
<path d="M168.864 52.7419C170.757 52.2962 171.871 52.6305 171.871 52.6305C171.043 55.5445 166.951 57.8969 164.186 59.7623C165.299 59.7623 166.452 60.1825 166.452 60.1825C163.144 63.8071 160.353 66.1241 156.398 69.0267C154.99 71.4105 151.496 71.5706 151.496 68.5078C151.496 65.445 155.721 62.3624 161.29 53.2248C166.859 44.0872 167.263 36.237 169.086 33.501C170.909 30.765 174.205 30.913 178.945 28.3601L178.829 29.3059C189.447 23.637 196.172 16.6199 203.391 7.75977C203.391 7.75977 204.331 12.3912 197.005 19.7203C189.68 27.0495 182.749 31.6438 182.749 31.6438C182.749 31.6438 186.313 30.1951 192.105 26.6292C192.105 26.6292 192.256 28.7864 188.433 32.1638C184.609 35.5413 181.434 37.8855 176.822 39.9519C176.822 39.9519 179.343 39.4521 182.808 38.0338C182.808 38.0338 181.513 40.8526 178.24 43.2343C174.967 45.616 172.961 46.4657 172.961 46.4657C173.922 46.5963 174.709 47.1884 174.709 47.1884C173.955 49.2539 171.851 50.8742 168.864 52.7419Z" fill="#D21034" stroke="black" stroke-width="0.630209"/>
<path d="M178.945 28.3604C178.763 30.0577 176.922 31.5131 173.305 33.674C169.663 35.8494 169.997 42.1839 167.004 49.2755C164.012 56.3671 159.969 62.9334 156.398 69.027" stroke="black" stroke-width="0.630209"/>
<path d="M182.917 31.9094L182.579 31.3789C182.579 31.3789 179.643 32.9458 174.999 35.3764C179.386 33.8926 182.917 31.9094 182.917 31.9094ZM176.923 40.2512L176.719 39.6556C175.599 40.1258 175.026 40.4 174.299 40.8313L176.923 40.2512ZM173.414 46.9234L172.861 46.1671C172.861 46.1671 171.626 46.5709 170.496 47.2063C172.681 46.7397 173.414 46.9234 173.414 46.9234ZM168.948 53.0446L168.778 52.4397C168.778 52.4397 168.156 52.7402 167.043 53.3362C168.027 53.303 168.948 53.0446 168.948 53.0446Z" fill="black"/>
<path d="M124.267 74.6656C124.267 74.6656 122.759 71.8026 125.572 71.4261C128.384 71.0496 129.487 70.104 129.487 70.104C129.779 71.083 129.376 71.97 128.946 72.8061C129.296 73.2522 130.967 73.3591 132.247 73.3568C132.356 73.8559 131.883 74.6273 130.563 75.0156C129.244 75.4039 128.552 76.2675 128.384 77.5108C127.662 77.0802 126.889 75.1439 128.811 73.3808L126.268 74.8454L124.267 74.6656Z" fill="#FFCE00" stroke="black" stroke-width="0.630209"/>
<path d="M130.848 68.9746C130.625 70.2004 129.177 72.2062 127.841 73.0977C125.168 74.8806 123.72 73.8777 123.72 73.8777C123.72 73.8777 122.049 79.5608 127.841 79.8951C127.841 79.8951 125.279 77.2207 128.175 74.5463C131.071 71.8719 130.848 68.9746 130.848 68.9746Z" fill="black"/>
<path d="M130.925 71.0757C130.655 71.0781 130.397 71.187 130.207 71.3789C130.017 71.5707 129.91 71.8299 129.91 72.1C129.91 72.2346 129.937 72.3678 129.988 72.492C130.04 72.6163 130.115 72.7292 130.21 72.8244C130.305 72.9195 130.418 72.9949 130.542 73.0464C130.666 73.0979 130.8 73.1244 130.934 73.1244C131.068 73.1244 131.202 73.0979 131.326 73.0464C131.45 72.9949 131.563 72.9195 131.658 72.8244C131.753 72.7292 131.828 72.6163 131.88 72.492C131.931 72.3678 131.958 72.2346 131.958 72.1C131.958 71.9655 131.931 71.8323 131.88 71.708C131.828 71.5838 131.753 71.4708 131.658 71.3757C131.563 71.2806 131.45 71.2051 131.326 71.1537C131.202 71.1022 131.068 71.0757 130.934 71.0757C130.931 71.0757 130.928 71.0757 130.925 71.0757ZM130.684 71.4984C130.799 71.4985 130.909 71.5443 130.991 71.6257C131.072 71.7071 131.118 71.8175 131.118 71.9326C131.118 71.9897 131.107 72.0462 131.085 72.0989C131.063 72.1517 131.031 72.1996 130.991 72.24C130.951 72.2804 130.903 72.3125 130.85 72.3344C130.797 72.3563 130.741 72.3676 130.684 72.3676C130.627 72.3677 130.57 72.3565 130.517 72.3346C130.465 72.3128 130.417 72.2807 130.376 72.2403C130.336 72.1999 130.304 72.1519 130.282 72.0991C130.26 72.0463 130.249 71.9897 130.249 71.9326C130.249 71.8755 130.26 71.819 130.282 71.7663C130.304 71.7136 130.336 71.6657 130.376 71.6254C130.417 71.5851 130.465 71.5531 130.518 71.5313C130.57 71.5095 130.627 71.4983 130.684 71.4984Z" fill="black"/>
<path d="M105.877 10.166L105.266 10.3242C105.266 10.3242 105.802 12.3868 107.975 14.0003C106.361 12.048 105.877 10.166 105.877 10.166ZM106.221 16.1315L105.868 16.6527C105.868 16.6527 108.924 18.7298 112.429 20.0186C109.251 18.1872 106.221 16.1315 106.221 16.1315ZM105.139 18.5109L104.742 19.0011C104.742 19.0011 110.015 23.2891 115.548 25.3668C110.388 22.7642 105.139 18.5109 105.139 18.5109ZM110.63 26.2168L110.277 26.7379C110.277 26.7379 115.733 30.4427 122.008 31.8286C116.032 29.8716 110.63 26.2168 110.63 26.2168Z" fill="black"/>
<path d="M148.337 103.146C148.337 103.146 147.47 103.934 147.628 105.194C147.785 106.455 147.155 106.691 147.707 107.637C147.707 107.637 145.974 107.479 145.58 105.194C145.186 102.909 146.447 101.727 146.447 101.727C146.447 101.727 146.919 100.782 148.337 103.146ZM144.163 101.57C144.163 101.57 142.509 101.727 141.17 102.909C139.831 104.091 139.28 106.14 140.304 107.243C140.304 107.243 141.222 105.352 142.798 104.485C144.373 103.618 144.163 101.57 144.163 101.57Z" fill="#FFCE00" stroke="black" stroke-width="0.630209"/>
<path d="M152.593 104.879C152.083 106.455 153.477 107.161 154.404 106.455C155.43 105.673 156.846 106.218 156.846 106.218C156.452 104.327 154.562 104.564 154.562 104.564C153.774 103.303 153.564 102.843 152.776 102.331C151.989 101.819 150.703 102.279 150.703 102.279C149.994 100.151 147.992 100.045 147.992 100.045C147.992 100.045 146.52 99.9248 145.1 100.951C145.1 100.951 143.268 101.242 142.055 102.716C140.842 104.19 140.849 106.328 142.408 107.331C142.408 106.084 142.758 105.815 143.929 105.358C145.714 104.662 144.139 102.664 147.48 102.33C148.058 102.619 148.178 103.754 148.812 104.485C149.933 105.778 150.703 104.17 152.593 104.879Z" fill="#FFCE00" stroke="black" stroke-width="0.630209"/>
<path d="M120.957 107.69H178.467C180.713 107.69 182.522 109.5 182.522 111.747C182.522 113.994 180.713 115.803 178.467 115.803H120.957C118.711 115.803 116.902 113.994 116.902 111.747C116.902 109.5 118.711 107.69 120.957 107.69Z" fill="#009543" stroke="black" stroke-width="0.630209"/>
<path d="M122.428 107.69L116.965 111.747L122.428 115.803L127.891 111.747L122.428 107.69ZM127.891 111.747L133.355 115.803L138.818 111.747L133.355 107.69L127.891 111.747ZM138.818 111.747L144.28 115.803L149.744 111.747L144.28 107.69L138.818 111.747ZM149.744 111.747L155.207 115.803L160.67 111.747L155.207 107.69L149.744 111.747ZM160.67 111.747L166.134 115.803L171.597 111.747L166.134 107.69L160.67 111.747ZM171.597 111.747L177.06 115.803L182.523 111.747L177.06 107.69L171.597 111.747Z" fill="#FFCE00"/>
<path d="M127.891 111.747L122.428 115.803L116.965 111.747L122.428 107.69L127.891 111.747ZM127.891 111.747L133.355 115.803L138.818 111.747M127.891 111.747L133.355 107.69L138.818 111.747M138.818 111.747L144.28 115.803L149.744 111.747M138.818 111.747L144.28 107.69L149.744 111.747M149.744 111.747L155.207 115.803L160.67 111.747M149.744 111.747L155.207 107.69L160.67 111.747M160.67 111.747L166.134 115.803L171.597 111.747M160.67 111.747L166.134 107.69L171.597 111.747M171.597 111.747L177.06 115.803L182.523 111.747L177.06 107.69L171.597 111.747Z" stroke="black" stroke-width="0.525174" stroke-linejoin="bevel"/>
</g>
<defs>
<clipPath id="clip0_186_20531">
<rect width="300" height="300" fill="white"/>
</clipPath>
</defs>
</svg>
