<svg width="300" height="300" viewBox="0 0 300 300" fill="none" xmlns="http://www.w3.org/2000/svg">
<path d="M150.017 29.617C140.885 29.6991 132.487 31.2664 132.487 31.2664C81.3194 45.957 49.9843 100.377 49.7033 167.088L49.2852 168.179C49.2851 205.14 60.1633 238.659 77.8109 263.33H224.199C241.705 238.85 252.536 205.618 252.691 168.952C252.976 101.09 216.874 41.7128 169.089 31.1845C168.896 31.1635 168.471 31.1001 167.853 31.0103C164.906 30.5818 157.566 29.5491 150.017 29.617Z" fill="#8CC5F2"/>
<path d="M127.998 33.1572L120.547 36.0002L138.001 115.778C132.362 116.963 126.99 118.912 121.996 121.499L86.6061 60.4635L81.6736 66.2898L117.65 123.956C112.666 127.056 108.13 130.828 104.163 135.152L61.9436 99.0363L61.2193 108.372L101.266 138.522C97.4196 143.334 94.2325 148.718 91.8491 154.526L60.5984 144.594L59.0117 152.105L89.9865 159.686C88.0439 165.849 86.9546 172.423 86.9166 179.235V179.586C86.9166 215.437 115.393 244.595 150.625 244.799C185.985 245.003 214.823 215.953 215.024 179.973C215.063 172.846 213.964 165.978 211.919 159.545L242.273 152.105L240.687 144.594L210.057 154.351C207.627 148.482 204.359 143.053 200.433 138.206L240.066 108.372L239.341 99.0363L197.501 134.836C193.471 130.502 188.87 126.722 183.808 123.64L219.611 66.2898L214.679 60.4635L179.461 121.218C174.424 118.668 169.003 116.768 163.319 115.638L180.738 36.0002L173.287 33.1572L158.593 114.901C153.318 114.171 147.999 114.344 142.726 114.971L127.998 33.1572Z" fill="#FDB817"/>
<path d="M150.938 134.344L117.825 168.565L115.169 165.757L97.6118 176.532L93.7486 173.97L69.5 184.184L85.5393 272.455H216.44L232.48 184.184L208.231 173.97L204.368 176.532L186.811 165.757L184.155 168.565L150.938 134.344Z" fill="#022290"/>
<path d="M172.84 5.2891C96.5758 -6.77732 58.4911 44.6068 40.1484 86.8921H41.8731C60.3437 44.9489 98.8168 -3.78749 170.934 6.76286L172.84 5.2891ZM172.809 5.2891L170.877 6.79832C209.197 14.6734 241.698 44.945 260.145 86.8921H261.835C243.513 44.6142 211.123 13.8612 172.809 5.2891ZM167.686 10.5663C103.086 1.08485 64.3434 46.2192 45.7709 86.8921H47.4955C65.768 47.4987 105.41 3.37726 168.326 12.563L167.686 10.5663ZM167.669 10.5538L168.325 12.5543C205.001 19.3681 236.337 47.4985 254.592 86.8921H256.316C237.762 46.2252 205.473 17.2182 167.669 10.5538ZM169.894 17.4156C108.419 6.45888 71.5983 50.7362 54.7735 86.8921H56.4636C72.9313 51.9959 110.29 8.19993 170.598 19.5389L169.894 17.4156ZM169.877 17.3979L170.601 19.5389C202.084 26.99 229.023 52.0576 245.52 86.8921H247.245C230.414 50.7241 202.502 24.7272 169.877 17.3979ZM172.36 25.0142L173.05 27.1551C200.304 34.9278 223.658 56.8338 238.759 86.8921H240.484C225.019 55.5217 200.731 32.735 172.36 25.0142ZM172.359 25.0138C153.206 20.5942 137.073 22.6155 122.832 27.6139C92.0874 38.4051 72.0797 65.3145 61.4997 86.7503L63.2588 86.8921C78.3701 56.834 115.611 13.0908 173.045 27.1375L172.359 25.0138ZM168.981 31.0861V33.0516C195.031 39.3798 217.605 59.1737 232.586 86.8921H234.345C219.107 58.1129 195.856 37.5257 168.981 31.0861ZM170.454 33.4026C171.337 31.2954 172.07 31.8657 170.734 31.5314C116.17 17.8731 82.5139 58.7973 67.64 86.8921H69.4336C84.2876 59.3872 108.268 38.4231 133.99 31.9235C148.665 29.127 160.479 30.5367 170.454 33.4026Z" fill="#FDB817"/>
<path d="M109.059 256.801C119.632 253.855 124.288 259.149 132.013 258.239C140.326 257.261 143.284 255.833 150.697 255.833" stroke="#A0E7FE" stroke-width="1.47133"/>
<path d="M95.6562 251.687C109.913 246.835 119.545 251.929 130.008 251.42C141.401 250.867 138.38 248.312 150.659 248.312" stroke="#A0E7FE" stroke-width="1.47133"/>
<path d="M94.2773 244.266C112.476 238.211 120.433 244.107 130.896 243.599C142.288 243.045 141.002 240.59 150.709 240.59" stroke="#A0E7FE" stroke-width="1.47133"/>
<path d="M96.3477 238.45C114.547 228.998 122.503 238.201 132.966 237.408C144.359 236.544 142.403 233.886 150.655 233.886" stroke="#A0E7FE" stroke-width="1.47133"/>
<path d="M97.3359 231.731C115.535 222.279 123.492 231.482 133.954 230.689C145.347 229.825 142.507 228.221 150.579 228.256" stroke="#A0E7FE" stroke-width="1.47133"/>
<path d="M107.414 213.535C114.312 214.111 126.101 221.23 134.638 220.159C145.977 218.737 142.967 218.328 150.637 218.328" stroke="#A0E7FE" stroke-width="1.47133"/>
<path d="M107.188 218.732C113.389 220.231 124.725 226.144 133.262 225.073C144.6 223.651 142.027 222.64 150.675 222.64" stroke="#A0E7FE" stroke-width="1.47133"/>
<path d="M126.648 213.322C138.773 216.593 144.62 213.962 150.681 214.103" stroke="#A0E7FE" stroke-width="1.47133"/>
<path d="M42.2773 184.474L72.5121 184.325L82.5589 187.684C87.3919 181.619 90.1776 179.322 92.1493 179.196C92.947 179.469 92.9889 180.005 92.9364 180.68C91.4164 184.585 92.2643 187.588 92.6962 190.593C92.8531 191.794 93.1114 191.863 93.7879 190.931C96.1916 188.663 99.9955 184.097 102.276 184.151C103.916 184.187 102.872 187.099 103.934 194.073L150.939 208.631L151.102 210.453L106.314 224.178C105.086 234.553 103.076 240.161 95.5935 248.565L95.8119 264.43L58.4765 262.077L62.0499 243.394L42.2773 234.64V184.474Z" fill="white"/>
<path d="M75.9505 250.379L55.7031 274.527C64.831 282.071 74.996 288.511 86.057 293.585L109.65 268.946C97.0876 264.756 85.7614 258.377 75.9505 250.379Z" fill="#FD1717" stroke="black" stroke-width="1.67012" stroke-linejoin="round"/>
<path d="M80.2096 268.682C79.2516 268.947 79.1743 268.102 78.2143 267.844C77.2543 267.586 76.7774 268.282 76.0726 267.571C75.3679 266.859 76.0485 266.369 75.7879 265.394C75.5272 264.419 74.6963 264.347 74.9496 263.37C75.2029 262.393 75.9607 262.747 76.6601 262.03C77.3595 261.313 77.0055 260.545 77.9635 260.28C78.9216 260.014 78.9988 260.859 79.9588 261.117C80.9189 261.375 81.3958 260.679 82.1005 261.39C82.8052 262.102 82.1247 262.593 82.3853 263.568C82.6459 264.542 83.4769 264.615 83.2236 265.591C82.9702 266.568 82.2124 266.214 81.513 266.931C80.8136 267.648 81.1677 268.416 80.2096 268.682Z" fill="white"/>
<path d="M77.3171 263.987C77.4456 263.51 77.7549 263.105 78.177 262.86C78.5992 262.615 79.0996 262.55 79.5685 262.68C80.0374 262.81 80.4364 263.124 80.6779 263.553C80.9193 263.983 80.9835 264.492 80.8564 264.969C80.7292 265.446 80.421 265.853 79.9996 266.099C79.5781 266.345 79.0778 266.411 78.6086 266.283C78.1393 266.154 77.7395 265.841 77.4968 265.413C77.2542 264.984 77.1885 264.475 77.3144 263.997" fill="#FD1717"/>
<path d="M96.0612 277.777C95.1031 278.042 95.0259 277.198 94.0659 276.94C93.1059 276.682 92.6289 277.378 91.9242 276.666C91.2195 275.955 91.9 275.464 91.6394 274.489C91.3788 273.514 90.5478 273.442 90.8012 272.465C91.0545 271.489 91.8123 271.843 92.5117 271.126C93.2111 270.409 92.857 269.64 93.8151 269.375C94.7732 269.11 94.8504 269.955 95.8104 270.213C96.7704 270.471 97.2473 269.774 97.9521 270.486C98.6568 271.198 97.9763 271.688 98.2369 272.663C98.4975 273.638 99.3285 273.71 99.0751 274.687C98.8218 275.664 98.064 275.31 97.3646 276.027C96.6652 276.744 97.0193 277.512 96.0612 277.777Z" fill="white"/>
<path d="M93.1687 273.083C93.2972 272.606 93.6065 272.2 94.0286 271.955C94.4507 271.71 94.9512 271.646 95.4201 271.776C95.889 271.906 96.288 272.22 96.5295 272.649C96.7709 273.078 96.8351 273.587 96.7079 274.065C96.5807 274.542 96.2726 274.949 95.8511 275.195C95.4297 275.441 94.9294 275.507 94.4602 275.378C93.9909 275.25 93.591 274.937 93.3484 274.508C93.1057 274.08 93.0401 273.571 93.166 273.093" fill="#FD1717"/>
<path d="M73.8893 277.604C72.9312 277.869 72.854 277.024 71.894 276.766C70.934 276.509 70.4571 277.205 69.7523 276.493C69.0476 275.781 69.7282 275.291 69.4675 274.316C69.2069 273.341 68.3759 273.269 68.6293 272.292C68.8826 271.315 69.6404 271.67 70.3398 270.953C71.0392 270.236 70.6851 269.467 71.6432 269.202C72.6013 268.937 72.6785 269.782 73.6385 270.04C74.5986 270.297 75.0755 269.601 75.7802 270.313C76.4849 271.024 75.8044 271.515 76.065 272.49C76.3256 273.465 77.1566 273.537 76.9033 274.514C76.6499 275.491 75.8921 275.136 75.1927 275.853C74.4933 276.57 74.8474 277.339 73.8893 277.604Z" fill="white"/>
<path d="M70.9968 272.909C71.1253 272.432 71.4346 272.027 71.8567 271.782C72.2789 271.537 72.7793 271.472 73.2482 271.602C73.7171 271.732 74.1161 272.046 74.3576 272.476C74.599 272.905 74.6632 273.414 74.536 273.891C74.4089 274.369 74.1007 274.775 73.6793 275.021C73.2578 275.268 72.7575 275.334 72.2883 275.205C71.819 275.076 71.4192 274.763 71.1765 274.335C70.9338 273.906 70.8682 273.397 70.9941 272.92" fill="#FD1717"/>
<path d="M71.4405 257.271C71.5245 256.958 71.727 256.693 72.0036 256.532C72.2801 256.371 72.6081 256.328 72.9154 256.413C73.2228 256.499 73.4844 256.704 73.6428 256.985C73.8013 257.266 73.8436 257.6 73.7604 257.913C73.6773 258.226 73.4756 258.492 73.1995 258.654C72.9234 258.816 72.5956 258.859 72.288 258.775C71.9804 258.691 71.7182 258.486 71.559 258.205C71.3997 257.925 71.3564 257.591 71.4387 257.278" fill="white"/>
<path d="M86.3624 266.918C86.4464 266.605 86.6489 266.339 86.9254 266.179C87.202 266.018 87.53 265.975 87.8373 266.06C88.1447 266.145 88.4063 266.351 88.5647 266.632C88.7231 266.913 88.7654 267.247 88.6823 267.56C88.5992 267.873 88.3975 268.139 88.1214 268.301C87.8453 268.462 87.5175 268.506 87.2099 268.422C86.9023 268.338 86.6401 268.133 86.4808 267.852C86.3216 267.571 86.2783 267.238 86.3605 266.925" fill="white"/>
<path d="M62.2803 268.793C62.3644 268.481 62.5669 268.215 62.8434 268.054C63.12 267.893 63.4479 267.851 63.7553 267.936C64.0626 268.021 64.3242 268.226 64.4827 268.508C64.6411 268.789 64.6834 269.122 64.6003 269.435C64.5172 269.748 64.3154 270.015 64.0394 270.176C63.7633 270.338 63.4355 270.381 63.1279 270.297C62.8203 270.213 62.558 270.008 62.3988 269.728C62.2395 269.447 62.1963 269.113 62.2785 268.8" fill="white"/>
<path d="M79.2452 280.247C79.3292 279.934 79.5317 279.668 79.8083 279.508C80.0848 279.347 80.4128 279.304 80.7201 279.389C81.0275 279.474 81.2891 279.68 81.4475 279.961C81.6059 280.242 81.6482 280.576 81.5651 280.889C81.482 281.202 81.2803 281.468 81.0042 281.63C80.7281 281.791 80.4003 281.835 80.0927 281.751C79.7851 281.667 79.5229 281.462 79.3636 281.181C79.2044 280.9 79.1611 280.567 79.2433 280.254" fill="white"/>
<path d="M98.2999 289.259C98.3839 288.947 98.5864 288.681 98.8629 288.52C99.1395 288.359 99.4675 288.316 99.7748 288.402C100.082 288.487 100.344 288.692 100.502 288.973C100.661 289.255 100.703 289.588 100.62 289.901C100.537 290.214 100.335 290.48 100.059 290.642C99.7828 290.804 99.455 290.847 99.1474 290.763C98.8398 290.679 98.5776 290.474 98.4183 290.193C98.2591 289.913 98.2158 289.579 98.298 289.266" fill="white"/>
<path d="M74.8455 251.713L73.4312 253.397C82.9225 261.168 93.7819 267.443 105.786 271.789L107.476 270.034C95.3493 265.776 84.3905 259.503 74.8455 251.713ZM68.2573 259.575L66.8431 261.259C76.1134 268.884 86.5875 275.223 98.0938 279.896L99.7495 278.142C88.135 273.536 77.5809 267.223 68.2573 259.575ZM65.7393 262.558L64.2906 264.313C73.4889 271.887 83.8324 278.213 95.1619 282.985L96.8175 281.23C85.3872 276.507 74.9721 270.174 65.7393 262.558ZM60.0184 270.683L58.5352 272.438C66.5396 279.058 74.8633 284.064 84.3946 288.746L83.6698 285.86C74.9745 281.416 67.388 276.786 60.0184 270.683Z" fill="white"/>
<path d="M80.3698 275.271L78.4609 276.53C81.6936 281.249 84.0181 287.561 84.7944 293.702L86.859 292.526C86.1351 286.694 83.8681 280.281 80.3698 275.271Z" fill="black"/>
<path d="M83.3659 273.095L81.457 274.354C84.3703 279.489 87.9603 284.226 87.9728 290.405L89.6186 288.69C89.8373 285.412 86.8115 278.24 83.3659 273.095Z" fill="white"/>
<path fill-rule="evenodd" clip-rule="evenodd" d="M54.9035 86.9687C62.0129 76.8214 61.3136 66.5335 56.916 63.0828C50.5951 71.7526 52.507 81.4308 54.9035 86.9687Z" fill="#FDB817" stroke="#404040" stroke-width="1.11342" stroke-linecap="round" stroke-linejoin="round"/>
<path fill-rule="evenodd" clip-rule="evenodd" d="M62.744 72.5762C69.5834 69.1416 69.0117 63.993 67.6075 60.103C64.3072 61.3542 59.4082 64.8548 62.744 72.5762Z" fill="#FDB817" stroke="#404040" stroke-width="1.11342" stroke-linecap="round" stroke-linejoin="round"/>
<path fill-rule="evenodd" clip-rule="evenodd" d="M60.9683 72.4325C63.9662 66.4687 64.0334 62.7754 61.2386 59.6792C58.193 63.1727 58.5719 66.8946 60.9683 72.4325Z" fill="#FDB817" stroke="#404040" stroke-width="1.11342" stroke-linecap="round" stroke-linejoin="round"/>
<path fill-rule="evenodd" clip-rule="evenodd" d="M61.4727 73.1545C67.9959 72.2526 71.0138 70.1994 71.9154 66.0967C67.3577 65.548 64.5715 67.9901 61.4727 73.1545Z" fill="#FDB817" stroke="#404040" stroke-width="1.11342" stroke-linecap="round" stroke-linejoin="round"/>
<path fill-rule="evenodd" clip-rule="evenodd" d="M56.0156 87.7483C62.5675 84.7627 69.8125 78.1621 70.0839 71.0951C64.9476 70.4758 60.7969 72.4959 56.0156 87.7483Z" fill="#FDB817" stroke="#404040" stroke-width="1.11342" stroke-linecap="round" stroke-linejoin="round"/>
<path fill-rule="evenodd" clip-rule="evenodd" d="M61.3059 74.8453C66.2014 72.1527 65.7923 68.1163 64.7871 65.0667C62.4249 66.0476 58.9183 68.7919 61.3059 74.8453Z" fill="#FDB817" stroke="#404040" stroke-width="1.11342" stroke-linecap="round" stroke-linejoin="round"/>
<path fill-rule="evenodd" clip-rule="evenodd" d="M58.6801 80.3762C63.7145 77.4492 63.2937 73.0616 62.2601 69.7466C59.8308 70.8129 56.2247 73.796 58.6801 80.3762Z" fill="#FDB817" stroke="#404040" stroke-width="1.11342" stroke-linecap="round" stroke-linejoin="round"/>
<path fill-rule="evenodd" clip-rule="evenodd" d="M56.1723 85.623C61.2067 82.696 60.7859 78.3084 59.7523 74.9934C57.323 76.0597 53.7169 79.0429 56.1723 85.623Z" fill="#FDB817" stroke="#404040" stroke-width="1.11342" stroke-linecap="round" stroke-linejoin="round"/>
<path fill-rule="evenodd" clip-rule="evenodd" d="M49.1916 96.3288C56.301 84.196 55.0442 79.5808 51.2041 71.1665C45.3013 76.2909 45.4014 87.8128 49.1916 96.3288Z" fill="#FDB817" stroke="#404040" stroke-width="1.11342" stroke-linecap="round" stroke-linejoin="round"/>
<path fill-rule="evenodd" clip-rule="evenodd" d="M50.0859 100.457C54.8137 87.1753 60.687 82.827 67.9521 82.2307C67.9887 91.2273 61.9203 99.8548 50.0859 100.457Z" fill="#FDB817" stroke="#404040" stroke-width="1.11342" stroke-linecap="round" stroke-linejoin="round"/>
<path fill-rule="evenodd" clip-rule="evenodd" d="M53.1238 92.2888C59.1301 89.0494 58.628 84.1935 57.3949 80.5247C54.4966 81.7047 50.1943 85.0063 53.1238 92.2888Z" fill="#FDB817" stroke="#404040" stroke-width="1.11342" stroke-linecap="round" stroke-linejoin="round"/>
<path fill-rule="evenodd" clip-rule="evenodd" d="M44.8697 108.241C51.979 89.5848 46.6804 86.1041 43.5371 80.668C37.6344 85.7923 37.5951 98.5906 44.8697 108.241Z" fill="#FDB817" stroke="#404040" stroke-width="1.11342" stroke-linecap="round" stroke-linejoin="round"/>
<path fill-rule="evenodd" clip-rule="evenodd" d="M49.1508 103.067C57.24 98.5386 56.5638 91.751 54.903 86.6226C50.9997 88.2721 45.2055 92.8871 49.1508 103.067Z" fill="#FDB817" stroke="#404040" stroke-width="1.11342" stroke-linecap="round" stroke-linejoin="round"/>
<path fill-rule="evenodd" clip-rule="evenodd" d="M45.4688 111.175C54.2927 93.9088 59.8482 95.9672 67.0321 94.0283C64.4586 100.5 61.0436 110.688 45.4688 111.175Z" fill="#FDB817" stroke="#404040" stroke-width="1.11342" stroke-linecap="round" stroke-linejoin="round"/>
<path fill-rule="evenodd" clip-rule="evenodd" d="M37.2781 90.437C33.192 98.0068 33.6526 105.006 36.1054 111.355C34.6139 109.676 33.074 107.749 31.6213 105.284C30.0441 111.636 30.4884 122.081 34.6488 127.534C33.5318 126.182 29.7674 117.889 28.6894 116.059C26.8573 123.437 27.72 128.874 29.8621 133.467C28.8524 132.173 27.8254 130.803 26.8267 129.256C22.4957 150.431 31.975 159.558 39.6926 171.198C39.5343 175.23 39.4133 179.751 39.3477 184.956C53.5357 177.464 55.8158 166.547 63.6998 129.957C62.4446 131.377 60.5619 131.669 59.4157 132.651C61.3052 128.154 64.2428 125.543 63.5618 114.093C60.6577 117.053 61.1829 117.459 57.7474 121.818C59.6907 118.39 64.8545 110.819 64.7057 103.076C55.3615 109.865 48.2414 107.756 45.8669 112.303C44.4814 100.945 36.4891 97.2642 37.2781 90.437ZM46.1537 113.991C46.1912 114.414 45.6546 125.052 45.6997 125.501C47.0108 125.567 47.8171 122.24 49.0751 122.098C47.5301 123.152 46.4096 125.184 45.4202 127.23C45.3684 125.629 41.9967 122.244 41.7663 120.963C40.0834 118.949 43.6468 124.825 45.427 125.635C45.496 116.366 46.0878 114.289 46.1537 113.991Z" fill="#FDB817" stroke="#404040" stroke-width="1.11342" stroke-linecap="round" stroke-linejoin="round"/>
<path fill-rule="evenodd" clip-rule="evenodd" d="M45.5663 111.503C54.7663 106.39 53.9973 98.726 52.1084 92.9353C47.669 94.7979 41.0792 100.009 45.5663 111.503Z" fill="#FDB817" stroke="#404040" stroke-width="1.11342" stroke-linecap="round" stroke-linejoin="round"/>
<path fill-rule="evenodd" clip-rule="evenodd" d="M66.3716 211.341L56.0697 209.757C41.9742 177.85 64.034 165.212 68.2869 159.304C69.7677 175.002 74.1127 188.556 66.3716 211.341Z" fill="#005707" stroke="black" stroke-width="1.11342" stroke-linecap="round" stroke-linejoin="round"/>
<path fill-rule="evenodd" clip-rule="evenodd" d="M60.7597 206.661C26.6605 177.332 19.4644 172.314 24.4868 143.704C27.7794 156.991 76.1663 175.509 60.7597 206.661Z" fill="#005707" stroke="black" stroke-width="1.11342" stroke-linecap="round" stroke-linejoin="round"/>
<path fill-rule="evenodd" clip-rule="evenodd" d="M64.4504 218.394C53.0346 228.42 54.817 229.658 52.9783 233.308C47.5691 235.217 47.0341 240.473 44.3767 248.713L64.9952 248.101L64.4504 218.394Z" fill="#B05818" stroke="black" stroke-width="1.67012" stroke-linecap="round" stroke-linejoin="round"/>
<path d="M73.0607 267.865C78.1297 267.732 82.939 265.555 86.4308 261.814C89.9225 258.072 91.8107 253.073 91.6798 247.915C91.5489 242.757 89.4097 237.863 85.7328 234.31C82.0559 230.757 77.1425 228.836 72.0735 228.969C67.0046 229.102 62.1952 231.279 58.7034 235.02C55.2117 238.762 53.3236 243.761 53.4545 248.919C53.5854 254.077 55.7246 258.971 59.4014 262.524C63.0783 266.077 67.9917 267.998 73.0607 267.865Z" fill="#B05818" stroke="black" stroke-width="1.67012" stroke-linejoin="round"/>
<path fill-rule="evenodd" clip-rule="evenodd" d="M69.47 246.781L58.1227 260.234Z" fill="#B05818"/>
<path d="M69.47 246.781L58.1227 260.234" stroke="black" stroke-width="2.22683" stroke-linecap="round" stroke-linejoin="round"/>
<path fill-rule="evenodd" clip-rule="evenodd" d="M75.6028 252.153L64.2555 265.605Z" fill="#B05818"/>
<path d="M75.6028 252.153L64.2555 265.605" stroke="black" stroke-width="2.22683" stroke-linecap="round" stroke-linejoin="round"/>
<path fill-rule="evenodd" clip-rule="evenodd" d="M48.3812 238.189C84.5551 217.524 37.0502 199.831 15.668 208.325C29.9175 216.196 27.0615 224.686 48.3812 238.189Z" fill="#005707" stroke="black" stroke-width="1.11342" stroke-linecap="round" stroke-linejoin="round"/>
<path fill-rule="evenodd" clip-rule="evenodd" d="M44.9237 134.121C43.7283 130.476 42.6212 129.1 39.9961 129.308C40.3712 127.555 42.1613 125.512 44.7231 126.473C49.2328 124.958 53.4 126.196 52.32 131.409C49.9412 130.191 46.8194 129.907 44.9237 134.121Z" fill="#005707" stroke="black" stroke-width="1.11342" stroke-linecap="round" stroke-linejoin="round"/>
<path fill-rule="evenodd" clip-rule="evenodd" d="M40.5666 141.354C31.4316 133.911 29.2359 131.5 30.5402 124.488C35.8158 130.392 41.8481 129.576 40.5666 141.354Z" fill="#005707" stroke="black" stroke-width="1.11342" stroke-linecap="round" stroke-linejoin="round"/>
<path fill-rule="evenodd" clip-rule="evenodd" d="M44.0277 149.934C58.1309 138.507 56.8966 138.942 60.3485 129.664C51.761 136.76 43.9627 138.261 44.0277 149.934Z" fill="#005707" stroke="black" stroke-width="1.11342" stroke-linecap="round" stroke-linejoin="round"/>
<path fill-rule="evenodd" clip-rule="evenodd" d="M41.7826 157.025C28.9543 146.249 25.0861 144.335 25.9722 133.352C33.9656 143.227 40.6948 141.205 41.7826 157.025Z" fill="#005707" stroke="black" stroke-width="1.11342" stroke-linecap="round" stroke-linejoin="round"/>
<path fill-rule="evenodd" clip-rule="evenodd" d="M43.8555 159.152L54.0074 168.545C61.4968 159.327 60.8831 148.594 62.523 138.457C52.8572 144.362 50.9364 146.807 43.8555 159.152Z" fill="#005707" stroke="black" stroke-width="1.11342" stroke-linecap="round" stroke-linejoin="round"/>
<path fill-rule="evenodd" clip-rule="evenodd" d="M14.5 190.572C24.0547 178.701 25.3174 180.482 28.8554 178.517C30.5913 172.966 35.7411 172.286 43.7683 169.37L43.6987 190.359L14.5 190.572Z" fill="#B05818" stroke="black" stroke-width="1.67012" stroke-linecap="round" stroke-linejoin="round"/>
<path d="M63.3239 198.053C63.3239 203.213 61.3096 208.161 57.7241 211.81C54.1386 215.458 49.2756 217.508 44.2049 217.508C39.1343 217.508 34.2713 215.458 30.6858 211.81C27.1003 208.161 25.0859 203.213 25.0859 198.053C25.0859 192.894 27.1003 187.946 30.6858 184.297C34.2713 180.649 39.1343 178.599 44.2049 178.599C49.2756 178.599 54.1386 180.649 57.7241 184.297C61.3096 187.946 63.3239 192.894 63.3239 198.053Z" fill="#B05818" stroke="black" stroke-width="1.67012" stroke-linejoin="round"/>
<path fill-rule="evenodd" clip-rule="evenodd" d="M42.5156 194.946L55.439 183.056Z" fill="#B05818"/>
<path d="M42.5156 194.946L55.439 183.056" stroke="black" stroke-width="2.22683" stroke-linecap="round" stroke-linejoin="round"/>
<path fill-rule="evenodd" clip-rule="evenodd" d="M47.9531 201.044L60.8765 189.155Z" fill="#B05818"/>
<path d="M47.9531 201.044L60.8765 189.155" stroke="black" stroke-width="2.22683" stroke-linecap="round" stroke-linejoin="round"/>
<path d="M43.6095 114.463C42.7753 115.558 41.9892 114.468 40.6703 114.81C39.2409 115.181 39.0727 116.511 37.6847 116.002C36.4041 115.532 37.1795 114.435 36.4518 113.264C35.6631 111.995 34.3692 112.242 34.4156 110.742C34.4584 109.357 35.7237 109.768 36.5928 108.702C37.5348 107.547 36.9034 106.371 38.32 105.952C39.6271 105.566 39.6337 106.918 40.8985 107.43C42.2694 107.985 43.173 107.01 44.0022 108.252C44.7672 109.398 43.506 109.822 43.4186 111.205C43.3239 112.703 44.5138 113.277 43.6095 114.463Z" fill="url(#paint0_radial_186_21792)" stroke="#B4B4B4" stroke-width="1.44196" stroke-linecap="round" stroke-linejoin="round"/>
<path d="M55.0047 117.9C53.6058 118.003 53.8852 116.64 52.7189 115.847C51.4548 114.988 50.338 115.773 49.7652 114.34C49.2367 113.018 50.5973 112.867 50.9779 111.493C51.3903 110.004 50.3126 109.165 51.4747 108.168C52.547 107.248 53.1086 108.518 54.5101 108.461C56.029 108.4 56.4797 107.097 57.7708 107.913C58.962 108.667 57.9485 109.603 58.4341 110.942C58.9604 112.393 60.3167 112.426 59.9525 113.928C59.6164 115.314 58.4284 114.623 57.3271 115.507C56.1334 116.465 56.5209 117.788 55.0047 117.9Z" fill="url(#paint1_radial_186_21792)" stroke="#B4B4B4" stroke-width="1.48579" stroke-linecap="round" stroke-linejoin="round"/>
<path d="M50.0545 114.556C48.6938 115.367 48.3107 113.85 46.7479 113.639C45.054 113.411 44.3098 114.766 43.0335 113.61C41.8558 112.543 43.1546 111.703 42.8686 110.126C42.5587 108.415 41.0628 108.114 41.7488 106.521C42.3818 105.051 43.5675 106.049 44.9536 105.284C46.4559 104.455 46.2756 102.914 47.976 103.086C49.5448 103.244 48.9788 104.7 50.1214 105.806C51.3598 107.004 52.7443 106.353 53.1091 108.052C53.4458 109.62 51.9103 109.522 51.2304 110.97C50.4934 112.539 51.5293 113.678 50.0545 114.556Z" fill="url(#paint2_radial_186_21792)" stroke="#B4B4B4" stroke-width="1.67024" stroke-linecap="round" stroke-linejoin="round"/>
<path d="M104.047 195.773C105.32 204.711 106.747 216.326 106.292 222.896L148.816 209.543L104.047 195.773Z" fill="#01015F"/>
<path d="M80.9609 189.088L72.6363 186.364C72.6635 194.797 70.382 205.672 68.5273 213.482C72.2401 204.805 77.4339 194.172 80.9609 189.088Z" fill="#01015F"/>
<path d="M59.5859 212.412C64.747 212.382 69.87 217.785 68.7845 220.779C64.8824 222.881 62.0066 218.978 59.5859 212.412Z" fill="#005707" stroke="black" stroke-width="1.11342" stroke-linecap="round" stroke-linejoin="round"/>
<path fill-rule="evenodd" clip-rule="evenodd" d="M77.9129 240.224C72.2241 215.18 96.0831 189.298 101.732 185.824C101.765 206.954 113.362 234.335 89.4881 250.803L77.9129 240.224Z" fill="#005707" stroke="black" stroke-width="1.11342" stroke-linecap="round" stroke-linejoin="round"/>
<path fill-rule="evenodd" clip-rule="evenodd" d="M68.7578 231.699C68.8056 205.205 87.4845 183.235 91.6201 180.577C86.819 189.705 104.2 213.761 82.6821 240.665L68.7578 231.699Z" fill="#005707" stroke="black" stroke-width="1.11342" stroke-linecap="round" stroke-linejoin="round"/>
<path d="M97.7685 251.128C82.8123 241.969 67.9559 225.182 69.4381 221.03C67.7974 220.708 61.3049 219.398 58.6048 210.71L53.3086 215.39C56.1379 219.497 60.8675 222.185 59.7388 226.292C67.168 238.086 80.6986 249.712 94.0055 259.637L97.7685 251.128Z" fill="#B05818" stroke="black" stroke-width="1.11342" stroke-linecap="round" stroke-linejoin="round"/>
<path d="M191.941 256.801C181.368 253.854 176.712 259.148 168.987 258.239C160.674 257.26 157.716 255.832 150.303 255.832" stroke="#A0E7FE" stroke-width="1.47133"/>
<path d="M205.344 251.687C191.087 246.835 181.455 251.928 170.992 251.42C159.599 250.867 162.62 248.312 150.341 248.312" stroke="#A0E7FE" stroke-width="1.47133"/>
<path d="M206.723 244.266C188.524 238.211 180.567 244.106 170.104 243.598C158.712 243.045 159.998 240.59 150.291 240.59" stroke="#A0E7FE" stroke-width="1.47133"/>
<path d="M204.652 238.449C186.453 228.998 178.497 238.201 168.034 237.407C156.641 236.543 158.597 233.886 150.345 233.886" stroke="#A0E7FE" stroke-width="1.47133"/>
<path d="M203.664 231.731C185.465 222.279 177.508 231.482 167.046 230.688C155.653 229.824 158.493 228.22 150.421 228.255" stroke="#A0E7FE" stroke-width="1.47133"/>
<path d="M193.586 213.535C186.688 214.111 174.899 221.23 166.362 220.159C155.023 218.737 158.033 218.328 150.363 218.328" stroke="#A0E7FE" stroke-width="1.47133"/>
<path d="M193.812 218.732C187.611 220.23 176.275 226.144 167.738 225.073C156.4 223.651 158.973 222.64 150.325 222.64" stroke="#A0E7FE" stroke-width="1.47133"/>
<path d="M174.352 213.322C162.227 216.593 156.38 213.962 150.319 214.102" stroke="#A0E7FE" stroke-width="1.47133"/>
<path d="M258.727 184.473L228.492 184.324L218.445 187.684C213.612 181.619 210.826 179.321 208.855 179.195C208.057 179.469 208.015 180.005 208.067 180.68C209.587 184.585 208.74 187.588 208.308 190.593C208.151 191.794 207.892 191.862 207.216 190.931C204.812 188.663 201.008 184.097 198.728 184.151C197.088 184.187 198.132 187.098 197.07 194.073L150.065 208.631L149.902 210.453L194.69 224.177C195.918 234.553 197.928 240.161 205.41 248.565L205.192 264.43L242.527 262.076L238.954 243.393L258.727 234.64V184.473Z" fill="white"/>
<path d="M225.053 250.379L245.301 274.526C236.173 282.071 226.008 288.511 214.947 293.584L191.354 268.946C203.916 264.756 215.243 258.376 225.053 250.379Z" fill="#FD1717" stroke="black" stroke-width="1.67012" stroke-linejoin="round"/>
<path d="M220.798 268.682C221.756 268.947 221.833 268.102 222.793 267.844C223.754 267.586 224.23 268.283 224.935 267.571C225.64 266.859 224.959 266.369 225.22 265.394C225.481 264.419 226.312 264.347 226.058 263.37C225.805 262.393 225.047 262.748 224.348 262.03C223.648 261.313 224.002 260.545 223.044 260.28C222.086 260.015 222.009 260.86 221.049 261.117C220.089 261.375 219.612 260.679 218.907 261.391C218.203 262.102 218.883 262.593 218.623 263.568C218.362 264.543 217.531 264.615 217.784 265.592C218.038 266.569 218.795 266.214 219.495 266.931C220.194 267.648 219.84 268.417 220.798 268.682Z" fill="white"/>
<path d="M223.691 263.987C223.562 263.51 223.253 263.105 222.831 262.86C222.409 262.615 221.908 262.55 221.439 262.68C220.97 262.81 220.571 263.124 220.33 263.554C220.088 263.983 220.024 264.492 220.151 264.969C220.279 265.447 220.587 265.853 221.008 266.099C221.43 266.346 221.93 266.412 222.399 266.283C222.868 266.154 223.268 265.841 223.511 265.413C223.754 264.984 223.819 264.475 223.693 263.998" fill="#FD1717"/>
<path d="M204.947 277.777C205.905 278.042 205.982 277.197 206.942 276.939C207.902 276.682 208.379 277.378 209.084 276.666C209.788 275.955 209.108 275.464 209.368 274.489C209.629 273.514 210.46 273.442 210.207 272.465C209.953 271.488 209.196 271.843 208.496 271.126C207.797 270.409 208.151 269.64 207.193 269.375C206.235 269.11 206.157 269.955 205.197 270.213C204.237 270.47 203.76 269.774 203.056 270.486C202.351 271.198 203.032 271.688 202.771 272.663C202.51 273.638 201.679 273.71 201.933 274.687C202.186 275.664 202.944 275.309 203.643 276.026C204.343 276.744 203.989 277.512 204.947 277.777Z" fill="white"/>
<path d="M207.839 273.083C207.711 272.606 207.401 272.2 206.979 271.955C206.557 271.71 206.057 271.645 205.588 271.775C205.119 271.906 204.72 272.22 204.478 272.649C204.237 273.078 204.173 273.587 204.3 274.065C204.427 274.542 204.735 274.948 205.157 275.195C205.578 275.441 206.078 275.507 206.548 275.378C207.017 275.249 207.417 274.936 207.659 274.508C207.902 274.08 207.968 273.571 207.842 273.093" fill="#FD1717"/>
<path d="M227.122 277.603C228.08 277.868 228.158 277.023 229.118 276.766C230.078 276.508 230.555 277.204 231.259 276.492C231.964 275.781 231.284 275.29 231.544 274.315C231.805 273.34 232.636 273.268 232.382 272.291C232.129 271.315 231.371 271.669 230.672 270.952C229.972 270.235 230.327 269.466 229.368 269.201C228.41 268.936 228.333 269.781 227.373 270.039C226.413 270.297 225.936 269.6 225.232 270.312C224.527 271.024 225.207 271.514 224.947 272.489C224.686 273.464 223.855 273.536 224.108 274.513C224.362 275.49 225.12 275.136 225.819 275.853C226.518 276.57 226.164 277.338 227.122 277.603Z" fill="white"/>
<path d="M230.015 272.909C229.886 272.432 229.577 272.026 229.155 271.781C228.733 271.536 228.232 271.472 227.763 271.602C227.295 271.732 226.896 272.046 226.654 272.475C226.413 272.904 226.348 273.413 226.476 273.891C226.603 274.368 226.911 274.774 227.332 275.021C227.754 275.267 228.254 275.333 228.723 275.204C229.193 275.076 229.593 274.763 229.835 274.334C230.078 273.906 230.143 273.397 230.018 272.919" fill="#FD1717"/>
<path d="M229.563 257.271C229.479 256.958 229.277 256.692 229 256.532C228.724 256.371 228.396 256.328 228.088 256.413C227.781 256.498 227.52 256.704 227.361 256.985C227.203 257.266 227.16 257.6 227.243 257.913C227.327 258.226 227.528 258.492 227.804 258.654C228.08 258.815 228.408 258.859 228.716 258.775C229.023 258.691 229.286 258.486 229.445 258.205C229.604 257.924 229.647 257.591 229.565 257.278" fill="white"/>
<path d="M214.642 266.918C214.558 266.605 214.355 266.339 214.078 266.179C213.802 266.018 213.474 265.975 213.167 266.06C212.859 266.145 212.598 266.351 212.439 266.632C212.281 266.913 212.238 267.247 212.322 267.56C212.405 267.873 212.606 268.139 212.883 268.301C213.159 268.462 213.486 268.506 213.794 268.422C214.102 268.338 214.364 268.133 214.523 267.852C214.682 267.571 214.726 267.238 214.643 266.925" fill="white"/>
<path d="M238.724 268.793C238.64 268.48 238.437 268.215 238.16 268.054C237.884 267.893 237.556 267.85 237.249 267.935C236.941 268.02 236.68 268.226 236.521 268.507C236.363 268.788 236.321 269.122 236.404 269.435C236.487 269.748 236.688 270.014 236.965 270.176C237.241 270.338 237.568 270.381 237.876 270.297C238.184 270.213 238.446 270.008 238.605 269.727C238.764 269.447 238.808 269.113 238.725 268.8" fill="white"/>
<path d="M221.759 280.247C221.675 279.934 221.472 279.668 221.196 279.508C220.919 279.347 220.591 279.304 220.284 279.389C219.976 279.474 219.715 279.68 219.556 279.961C219.398 280.242 219.356 280.576 219.439 280.889C219.522 281.202 219.724 281.468 220 281.63C220.276 281.791 220.604 281.835 220.911 281.751C221.219 281.667 221.481 281.462 221.64 281.181C221.8 280.9 221.843 280.567 221.761 280.254" fill="white"/>
<path d="M202.704 289.259C202.62 288.946 202.418 288.68 202.141 288.52C201.864 288.359 201.536 288.316 201.229 288.401C200.922 288.486 200.66 288.692 200.502 288.973C200.343 289.254 200.301 289.588 200.384 289.901C200.467 290.214 200.669 290.48 200.945 290.642C201.221 290.803 201.549 290.847 201.857 290.763C202.164 290.679 202.426 290.474 202.586 290.193C202.745 289.912 202.788 289.579 202.706 289.266" fill="white"/>
<path d="M226.158 251.712L227.573 253.397C218.081 261.168 207.222 267.442 195.218 271.788L193.528 270.033C205.655 265.776 216.613 259.502 226.158 251.712ZM232.747 259.574L234.161 261.259C224.891 268.883 214.416 275.223 202.91 279.896L201.254 278.141C212.869 273.535 223.423 267.223 232.747 259.574ZM235.265 262.557L236.713 264.312C227.515 271.886 217.172 278.213 205.842 282.985L204.186 281.23C215.617 276.506 226.032 270.174 235.265 262.557ZM240.986 270.683L242.469 272.438C234.464 279.058 226.141 284.064 216.609 288.745L217.334 285.86C226.029 281.415 233.616 276.785 240.986 270.683Z" fill="white"/>
<path d="M220.634 275.271L222.543 276.53C219.31 281.248 216.986 287.56 216.21 293.701L214.145 292.526C214.869 286.693 217.136 280.281 220.634 275.271Z" fill="black"/>
<path d="M217.638 273.095L219.547 274.354C216.634 279.488 213.044 284.226 213.031 290.405L211.385 288.69C211.167 285.412 214.192 278.24 217.638 273.095Z" fill="white"/>
<path fill-rule="evenodd" clip-rule="evenodd" d="M246.096 86.9685C238.987 76.8211 239.686 66.5332 244.084 63.0825C250.405 71.7523 248.493 81.4306 246.096 86.9685Z" fill="#FDB817" stroke="#404040" stroke-width="1.11342" stroke-linecap="round" stroke-linejoin="round"/>
<path fill-rule="evenodd" clip-rule="evenodd" d="M238.256 72.5758C231.417 69.1411 231.988 63.9925 233.393 60.1025C236.693 61.3538 241.592 64.8543 238.256 72.5758Z" fill="#FDB817" stroke="#404040" stroke-width="1.11342" stroke-linecap="round" stroke-linejoin="round"/>
<path fill-rule="evenodd" clip-rule="evenodd" d="M240.032 72.4322C237.034 66.4685 236.967 62.7751 239.761 59.679C242.807 63.1724 242.428 66.8944 240.032 72.4322Z" fill="#FDB817" stroke="#404040" stroke-width="1.11342" stroke-linecap="round" stroke-linejoin="round"/>
<path fill-rule="evenodd" clip-rule="evenodd" d="M239.527 73.154C233.004 72.2521 229.986 70.1989 229.085 66.0962C233.642 65.5475 236.428 67.9896 239.527 73.154Z" fill="#FDB817" stroke="#404040" stroke-width="1.11342" stroke-linecap="round" stroke-linejoin="round"/>
<path fill-rule="evenodd" clip-rule="evenodd" d="M244.984 87.7481C238.432 84.7625 231.188 78.1619 230.916 71.0948C236.052 70.4756 240.203 72.4957 244.984 87.7481Z" fill="#FDB817" stroke="#404040" stroke-width="1.11342" stroke-linecap="round" stroke-linejoin="round"/>
<path fill-rule="evenodd" clip-rule="evenodd" d="M239.694 74.8451C234.799 72.1524 235.208 68.1161 236.213 65.0664C238.575 66.0473 242.082 68.7917 239.694 74.8451Z" fill="#FDB817" stroke="#404040" stroke-width="1.11342" stroke-linecap="round" stroke-linejoin="round"/>
<path fill-rule="evenodd" clip-rule="evenodd" d="M242.32 80.3759C237.285 77.449 237.706 73.0614 238.74 69.7463C241.169 70.8126 244.775 73.7958 242.32 80.3759Z" fill="#FDB817" stroke="#404040" stroke-width="1.11342" stroke-linecap="round" stroke-linejoin="round"/>
<path fill-rule="evenodd" clip-rule="evenodd" d="M244.828 85.6228C239.793 82.6958 240.214 78.3082 241.248 74.9932C243.677 76.0594 247.283 79.0426 244.828 85.6228Z" fill="#FDB817" stroke="#404040" stroke-width="1.11342" stroke-linecap="round" stroke-linejoin="round"/>
<path fill-rule="evenodd" clip-rule="evenodd" d="M251.808 96.3286C244.699 84.1958 245.956 79.5806 249.796 71.1663C255.699 76.2906 255.599 87.8125 251.808 96.3286Z" fill="#FDB817" stroke="#404040" stroke-width="1.11342" stroke-linecap="round" stroke-linejoin="round"/>
<path fill-rule="evenodd" clip-rule="evenodd" d="M250.914 100.456C246.186 87.175 240.313 82.8268 233.048 82.2305C233.011 91.2271 239.08 99.8545 250.914 100.456Z" fill="#FDB817" stroke="#404040" stroke-width="1.11342" stroke-linecap="round" stroke-linejoin="round"/>
<path fill-rule="evenodd" clip-rule="evenodd" d="M247.876 92.2885C241.87 89.0492 242.372 84.1933 243.605 80.5244C246.503 81.7045 250.806 85.0061 247.876 92.2885Z" fill="#FDB817" stroke="#404040" stroke-width="1.11342" stroke-linecap="round" stroke-linejoin="round"/>
<path fill-rule="evenodd" clip-rule="evenodd" d="M256.13 108.241C249.021 89.5845 254.32 86.1039 257.463 80.6677C263.366 85.7921 263.405 98.5903 256.13 108.241Z" fill="#FDB817" stroke="#404040" stroke-width="1.11342" stroke-linecap="round" stroke-linejoin="round"/>
<path fill-rule="evenodd" clip-rule="evenodd" d="M251.849 103.066C243.76 98.5384 244.436 91.7507 246.097 86.6223C250 88.2719 255.794 92.8869 251.849 103.066Z" fill="#FDB817" stroke="#404040" stroke-width="1.11342" stroke-linecap="round" stroke-linejoin="round"/>
<path fill-rule="evenodd" clip-rule="evenodd" d="M255.531 111.174C246.707 93.9083 241.152 95.9667 233.968 94.0278C236.541 100.5 239.956 110.687 255.531 111.174Z" fill="#FDB817" stroke="#404040" stroke-width="1.11342" stroke-linecap="round" stroke-linejoin="round"/>
<path fill-rule="evenodd" clip-rule="evenodd" d="M263.722 90.4368C267.808 98.0066 267.347 105.006 264.895 111.355C266.386 109.676 267.926 107.749 269.379 105.283C270.956 111.635 270.512 122.081 266.351 127.534C267.468 126.182 271.233 117.888 272.311 116.058C274.143 123.437 273.28 128.874 271.138 133.467C272.148 132.172 273.175 130.803 274.173 129.255C278.504 150.431 269.025 159.558 261.307 171.197C261.466 175.23 261.587 179.75 261.652 184.956C247.464 177.464 245.184 166.547 237.3 129.957C238.555 131.377 240.438 131.669 241.584 132.651C239.695 128.154 236.757 125.543 237.438 114.093C240.342 117.053 239.817 117.459 243.253 121.818C241.309 118.389 236.146 110.819 236.294 103.076C245.639 109.865 252.759 107.756 255.133 112.303C256.519 100.945 264.511 97.264 263.722 90.4368ZM254.846 113.99C254.809 114.413 255.345 125.051 255.3 125.5C253.989 125.567 253.183 122.24 251.925 122.098C253.47 123.152 254.59 125.184 255.58 127.23C255.632 125.628 259.003 122.244 259.234 120.963C260.917 118.949 257.353 124.825 255.573 125.635C255.504 116.365 254.912 114.288 254.846 113.99Z" fill="#FDB817" stroke="#404040" stroke-width="1.11342" stroke-linecap="round" stroke-linejoin="round"/>
<path fill-rule="evenodd" clip-rule="evenodd" d="M255.434 111.503C246.234 106.39 247.003 98.7258 248.892 92.9351C253.331 94.7976 259.921 100.009 255.434 111.503Z" fill="#FDB817" stroke="#404040" stroke-width="1.11342" stroke-linecap="round" stroke-linejoin="round"/>
<path fill-rule="evenodd" clip-rule="evenodd" d="M234.632 211.341L244.934 209.756C259.03 177.849 236.97 165.212 232.717 159.304C231.236 175.001 226.891 188.556 234.632 211.341Z" fill="#005707" stroke="black" stroke-width="1.11342" stroke-linecap="round" stroke-linejoin="round"/>
<path fill-rule="evenodd" clip-rule="evenodd" d="M240.236 206.661C274.336 177.332 281.532 172.314 276.509 143.704C273.217 156.991 224.83 175.509 240.236 206.661Z" fill="#005707" stroke="black" stroke-width="1.11342" stroke-linecap="round" stroke-linejoin="round"/>
<path fill-rule="evenodd" clip-rule="evenodd" d="M236.55 218.394C247.965 228.42 246.183 229.658 248.022 233.308C253.431 235.217 253.966 240.473 256.623 248.713L236.005 248.101L236.55 218.394Z" fill="#B05818" stroke="black" stroke-width="1.67012" stroke-linecap="round" stroke-linejoin="round"/>
<path d="M227.939 267.865C222.87 267.732 218.061 265.555 214.569 261.814C211.077 258.072 209.189 253.073 209.32 247.915C209.451 242.757 211.59 237.863 215.267 234.31C218.944 230.757 223.857 228.836 228.926 228.969C233.995 229.102 238.805 231.279 242.297 235.02C245.788 238.762 247.676 243.761 247.545 248.919C247.415 254.077 245.275 258.971 241.599 262.524C237.922 266.077 233.008 267.998 227.939 267.865Z" fill="#B05818" stroke="black" stroke-width="1.67012" stroke-linejoin="round"/>
<path fill-rule="evenodd" clip-rule="evenodd" d="M231.53 246.782L242.877 260.234Z" fill="#B05818"/>
<path d="M231.53 246.782L242.877 260.234" stroke="black" stroke-width="2.22683" stroke-linecap="round" stroke-linejoin="round"/>
<path fill-rule="evenodd" clip-rule="evenodd" d="M225.397 252.153L236.745 265.605Z" fill="#B05818"/>
<path d="M225.397 252.153L236.745 265.605" stroke="black" stroke-width="2.22683" stroke-linecap="round" stroke-linejoin="round"/>
<path fill-rule="evenodd" clip-rule="evenodd" d="M252.619 238.189C216.445 217.524 263.95 199.831 285.332 208.325C271.083 216.196 273.939 224.686 252.619 238.189Z" fill="#005707" stroke="black" stroke-width="1.11342" stroke-linecap="round" stroke-linejoin="round"/>
<path fill-rule="evenodd" clip-rule="evenodd" d="M256.072 134.121C257.268 130.475 258.375 129.1 261 129.307C260.625 127.554 258.835 125.512 256.273 126.473C251.763 124.958 247.596 126.196 248.676 131.408C251.055 130.191 254.177 129.907 256.072 134.121Z" fill="#005707" stroke="black" stroke-width="1.11342" stroke-linecap="round" stroke-linejoin="round"/>
<path fill-rule="evenodd" clip-rule="evenodd" d="M260.433 141.354C269.568 133.911 271.764 131.5 270.46 124.488C265.184 130.392 259.152 129.576 260.433 141.354Z" fill="#005707" stroke="black" stroke-width="1.11342" stroke-linecap="round" stroke-linejoin="round"/>
<path fill-rule="evenodd" clip-rule="evenodd" d="M256.976 149.934C242.873 138.507 244.107 138.942 240.655 129.664C249.243 136.76 257.041 138.261 256.976 149.934Z" fill="#005707" stroke="black" stroke-width="1.11342" stroke-linecap="round" stroke-linejoin="round"/>
<path fill-rule="evenodd" clip-rule="evenodd" d="M259.221 157.025C272.05 146.249 275.918 144.334 275.032 133.352C267.038 143.227 260.309 141.205 259.221 157.025Z" fill="#005707" stroke="black" stroke-width="1.11342" stroke-linecap="round" stroke-linejoin="round"/>
<path fill-rule="evenodd" clip-rule="evenodd" d="M257.141 159.152L246.989 168.545C239.499 159.327 240.113 148.593 238.473 138.457C248.139 144.361 250.06 146.807 257.141 159.152Z" fill="#005707" stroke="black" stroke-width="1.11342" stroke-linecap="round" stroke-linejoin="round"/>
<path fill-rule="evenodd" clip-rule="evenodd" d="M286.5 190.572C276.945 178.701 275.683 180.482 272.145 178.517C270.409 172.966 265.259 172.286 257.232 169.37L257.301 190.359L286.5 190.572Z" fill="#B05818" stroke="black" stroke-width="1.67012" stroke-linecap="round" stroke-linejoin="round"/>
<path d="M237.676 198.054C237.676 203.213 239.69 208.162 243.276 211.81C246.861 215.458 251.724 217.508 256.795 217.508C261.866 217.508 266.729 215.458 270.314 211.81C273.9 208.162 275.914 203.213 275.914 198.054C275.914 192.894 273.9 187.946 270.314 184.297C266.729 180.649 261.866 178.599 256.795 178.599C251.724 178.599 246.861 180.649 243.276 184.297C239.69 187.946 237.676 192.894 237.676 198.054Z" fill="#B05818" stroke="black" stroke-width="1.67012" stroke-linejoin="round"/>
<path fill-rule="evenodd" clip-rule="evenodd" d="M258.484 194.946L245.561 183.057Z" fill="#B05818"/>
<path d="M258.484 194.946L245.561 183.057" stroke="black" stroke-width="2.22683" stroke-linecap="round" stroke-linejoin="round"/>
<path fill-rule="evenodd" clip-rule="evenodd" d="M253.047 201.045L240.123 189.155Z" fill="#B05818"/>
<path d="M253.047 201.045L240.123 189.155" stroke="black" stroke-width="2.22683" stroke-linecap="round" stroke-linejoin="round"/>
<path d="M257.39 114.462C258.225 115.557 259.011 114.467 260.33 114.809C261.759 115.18 261.927 116.51 263.315 116.001C264.596 115.531 263.821 114.434 264.548 113.263C265.337 111.994 266.631 112.241 266.584 110.741C266.542 109.356 265.276 109.768 264.407 108.701C263.465 107.546 264.097 106.37 262.68 105.951C261.373 105.565 261.366 106.917 260.101 107.429C258.731 107.984 257.827 107.009 256.998 108.251C256.233 109.397 257.494 109.821 257.581 111.204C257.676 112.702 256.486 113.276 257.39 114.462Z" fill="url(#paint3_radial_186_21792)" stroke="#B4B4B4" stroke-width="1.44196" stroke-linecap="round" stroke-linejoin="round"/>
<path d="M245.995 117.899C247.394 118.002 247.115 116.639 248.281 115.846C249.545 114.987 250.662 115.772 251.235 114.339C251.763 113.017 250.403 112.866 250.022 111.492C249.61 110.003 250.687 109.164 249.525 108.167C248.453 107.247 247.891 108.517 246.49 108.46C244.971 108.399 244.52 107.096 243.229 107.913C242.038 108.666 243.052 109.602 242.566 110.941C242.04 112.392 240.683 112.425 241.048 113.927C241.384 115.313 242.572 114.622 243.673 115.506C244.867 116.464 244.479 117.787 245.995 117.899Z" fill="url(#paint4_radial_186_21792)" stroke="#B4B4B4" stroke-width="1.48579" stroke-linecap="round" stroke-linejoin="round"/>
<path d="M250.946 114.555C252.306 115.366 252.689 113.849 254.252 113.638C255.946 113.41 256.69 114.765 257.967 113.609C259.144 112.542 257.845 111.703 258.131 110.125C258.441 108.414 259.937 108.113 259.251 106.52C258.618 105.05 257.433 106.048 256.046 105.283C254.544 104.455 254.724 102.913 253.024 103.085C251.455 103.243 252.021 104.699 250.879 105.805C249.64 107.003 248.256 106.352 247.891 108.051C247.554 109.619 249.09 109.521 249.77 110.969C250.507 112.538 249.471 113.677 250.946 114.555Z" fill="url(#paint5_radial_186_21792)" stroke="#B4B4B4" stroke-width="1.67024" stroke-linecap="round" stroke-linejoin="round"/>
<path d="M196.957 195.773C195.684 204.711 194.257 216.325 194.712 222.896L152.188 209.543L196.957 195.773Z" fill="#01015F"/>
<path d="M220.035 189.088L228.36 186.364C228.333 194.797 230.614 205.672 232.469 213.482C228.756 204.805 223.562 194.171 220.035 189.088Z" fill="#01015F"/>
<path d="M241.414 212.412C236.253 212.382 231.13 217.785 232.215 220.779C236.118 222.881 238.993 218.978 241.414 212.412Z" fill="#005707" stroke="black" stroke-width="1.11342" stroke-linecap="round" stroke-linejoin="round"/>
<path fill-rule="evenodd" clip-rule="evenodd" d="M223.083 240.223C228.772 215.179 204.913 189.297 199.264 185.824C199.231 206.954 187.634 234.334 211.508 250.802L223.083 240.223Z" fill="#005707" stroke="black" stroke-width="1.11342" stroke-linecap="round" stroke-linejoin="round"/>
<path fill-rule="evenodd" clip-rule="evenodd" d="M232.25 231.698C232.202 205.205 213.523 183.235 209.388 180.577C214.189 189.705 196.808 213.76 218.326 240.664L232.25 231.698Z" fill="#005707" stroke="black" stroke-width="1.11342" stroke-linecap="round" stroke-linejoin="round"/>
<path d="M203.235 251.128C218.192 241.969 233.048 225.182 231.566 221.03C233.206 220.707 239.699 219.398 242.399 210.71L247.695 215.39C244.866 219.496 240.136 222.185 241.265 226.292C233.836 238.085 220.305 249.712 206.998 259.637L203.235 251.128Z" fill="#B05818" stroke="black" stroke-width="1.11342" stroke-linecap="round" stroke-linejoin="round"/>
<path d="M95.8131 249.326L78.9805 276.036C97.2813 287.348 118.351 294.49 140.926 296.135C143.982 296.358 147.066 296.48 150.174 296.498C176.812 296.652 201.764 289.126 222.989 276L206.156 249.326C189.846 259.246 170.757 264.922 150.381 264.804C130.435 264.689 111.791 259.042 95.8131 249.326Z" fill="#FD1717" stroke="black" stroke-width="1.67012" stroke-linecap="round" stroke-linejoin="round"/>
<path d="M206.334 251.227C189.967 260.966 170.68 266.642 150.349 266.524C130.47 266.409 111.622 260.735 95.6064 251.213L94.4336 253.073C110.795 262.828 130.041 268.653 150.349 268.77C171.113 268.89 190.814 263.092 207.541 253.123L206.334 251.227ZM211.853 259.932C193.87 270.715 172.661 276.972 150.28 276.843C128.402 276.717 107.704 270.454 90.122 259.917L88.9492 261.777C106.877 272.546 127.969 278.96 150.28 279.089C173.089 279.221 194.7 272.835 213.026 261.827L211.853 259.932ZM88.0524 263.216L86.8107 265.147C105.351 276.312 127.198 282.957 150.28 283.09C173.858 283.227 196.232 276.594 215.164 265.196L213.991 263.301C195.396 274.492 173.444 280.978 150.28 280.844C127.619 280.713 106.256 274.166 88.0524 263.216ZM82.8095 271.535L81.6367 273.36C101.661 285.492 125.279 292.703 150.246 292.848C175.755 292.995 199.896 285.801 220.338 273.409L219.2 271.584L216.509 273.023C196.999 284.239 174.251 290.74 150.246 290.601C126.786 290.466 104.588 283.936 85.4999 272.974L82.8095 271.535Z" fill="white"/>
<path d="M153.576 278.361C152.718 278.869 152.429 278.073 151.436 278.077C150.443 278.081 150.16 278.879 149.298 278.377C148.436 277.876 148.969 277.223 148.469 276.349C147.969 275.476 147.148 275.626 147.145 274.615C147.141 273.605 147.963 273.748 148.456 272.871C148.949 271.994 148.412 271.345 149.27 270.837C150.128 270.328 150.417 271.124 151.41 271.12C152.403 271.116 152.687 270.318 153.548 270.82C154.41 271.322 153.878 271.975 154.377 272.848C154.877 273.721 155.698 273.572 155.702 274.582C155.705 275.593 154.883 275.45 154.39 276.327C153.897 277.203 154.434 277.852 153.576 278.361Z" fill="white"/>
<path d="M149.59 274.588C149.593 274.094 149.788 273.621 150.134 273.273C150.479 272.925 150.946 272.731 151.432 272.733C151.918 272.735 152.383 272.933 152.726 273.284C153.068 273.635 153.26 274.11 153.258 274.605C153.257 275.099 153.063 275.573 152.718 275.922C152.374 276.271 151.907 276.466 151.421 276.465C150.935 276.465 150.469 276.268 150.126 275.918C149.783 275.568 149.59 275.093 149.59 274.599" fill="#FD1717"/>
<path d="M153.576 289.352C152.718 289.86 152.429 289.064 151.436 289.068C150.443 289.072 150.16 289.87 149.298 289.368C148.436 288.866 148.969 288.213 148.469 287.34C147.969 286.467 147.148 286.616 147.145 285.606C147.141 284.596 147.963 284.739 148.456 283.862C148.949 282.985 148.412 282.336 149.27 281.827C150.128 281.319 150.417 282.115 151.41 282.111C152.403 282.107 152.687 281.309 153.548 281.811C154.41 282.313 153.878 282.966 154.377 283.839C154.877 284.712 155.698 284.563 155.702 285.573C155.705 286.583 154.883 286.44 154.39 287.317C153.897 288.194 154.434 288.843 153.576 289.352Z" fill="white"/>
<path d="M149.59 285.579C149.593 285.084 149.788 284.611 150.134 284.263C150.479 283.915 150.946 283.721 151.432 283.723C151.918 283.726 152.383 283.924 152.726 284.275C153.068 284.626 153.26 285.101 153.258 285.595C153.257 286.09 153.063 286.564 152.718 286.912C152.374 287.261 151.907 287.457 151.421 287.456C150.935 287.455 150.469 287.258 150.126 286.908C149.783 286.558 149.59 286.084 149.59 285.59" fill="#FD1717"/>
<path d="M100.053 265.242C99.195 265.75 98.9055 264.955 97.9126 264.958C96.9198 264.962 96.6362 265.76 95.7744 265.259C94.9127 264.757 95.4453 264.104 94.9456 263.231C94.4459 262.358 93.6249 262.507 93.6211 261.496C93.6173 260.486 94.4395 260.629 94.9326 259.752C95.4258 258.875 94.8884 258.226 95.7463 257.718C96.6043 257.209 96.8938 258.005 97.8867 258.001C98.8796 257.998 99.1632 257.199 100.025 257.701C100.887 258.203 100.354 258.856 100.854 259.729C101.353 260.602 102.174 260.453 102.178 261.463C102.182 262.474 101.36 262.331 100.867 263.208C100.374 264.085 100.911 264.734 100.053 265.242Z" fill="white"/>
<path d="M96.0664 261.469C96.0693 260.975 96.2648 260.502 96.6103 260.154C96.9557 259.806 97.4227 259.612 97.9087 259.614C98.3947 259.616 98.86 259.814 99.2024 260.165C99.5448 260.516 99.7363 260.991 99.7348 261.486C99.7334 261.98 99.5391 262.454 99.1947 262.803C98.8503 263.152 98.3838 263.347 97.8978 263.347C97.4118 263.346 96.9459 263.149 96.6026 262.799C96.2592 262.449 96.0663 261.974 96.0664 261.48" fill="#FD1717"/>
<path d="M116.498 272.121C115.64 272.629 115.351 271.833 114.358 271.837C113.365 271.841 113.081 272.639 112.22 272.137C111.358 271.635 111.891 270.982 111.391 270.109C110.891 269.236 110.07 269.385 110.066 268.375C110.063 267.365 110.885 267.508 111.378 266.631C111.871 265.754 111.334 265.105 112.192 264.596C113.05 264.088 113.339 264.884 114.332 264.88C115.325 264.876 115.608 264.078 116.47 264.58C117.332 265.082 116.799 265.735 117.299 266.608C117.799 267.481 118.62 267.332 118.624 268.342C118.627 269.352 117.805 269.21 117.312 270.086C116.819 270.963 117.356 271.612 116.498 272.121Z" fill="white"/>
<path d="M112.512 268.348C112.515 267.853 112.71 267.38 113.056 267.032C113.401 266.684 113.868 266.49 114.354 266.492C114.84 266.495 115.305 266.693 115.648 267.044C115.99 267.395 116.182 267.87 116.18 268.364C116.179 268.859 115.984 269.333 115.64 269.682C115.296 270.03 114.829 270.226 114.343 270.225C113.857 270.224 113.391 270.027 113.048 269.677C112.704 269.327 112.512 268.853 112.512 268.359" fill="#FD1717"/>
<path d="M134.131 276.729C133.273 277.238 132.984 276.442 131.991 276.446C130.998 276.45 130.714 277.248 129.853 276.746C128.991 276.244 129.523 275.591 129.024 274.718C128.524 273.845 127.703 273.994 127.699 272.984C127.695 271.973 128.518 272.116 129.011 271.239C129.504 270.363 128.966 269.714 129.824 269.205C130.682 268.697 130.972 269.492 131.965 269.489C132.958 269.485 133.241 268.687 134.103 269.189C134.965 269.69 134.432 270.343 134.932 271.217C135.432 272.09 136.253 271.94 136.256 272.951C136.26 273.961 135.438 273.818 134.945 274.695C134.452 275.572 134.989 276.221 134.131 276.729Z" fill="white"/>
<path d="M130.145 272.957C130.147 272.462 130.343 271.989 130.688 271.641C131.034 271.293 131.501 271.099 131.987 271.101C132.473 271.103 132.938 271.302 133.28 271.653C133.623 272.004 133.814 272.478 133.813 272.973C133.812 273.468 133.617 273.941 133.273 274.29C132.928 274.639 132.462 274.835 131.976 274.834C131.49 274.833 131.024 274.636 130.681 274.286C130.337 273.936 130.144 273.462 130.145 272.967" fill="#FD1717"/>
<path d="M132.741 287.366C131.883 287.874 131.593 287.078 130.6 287.082C129.607 287.086 129.324 287.884 128.462 287.382C127.6 286.88 128.133 286.227 127.633 285.354C127.133 284.481 126.312 284.63 126.309 283.62C126.305 282.61 127.127 282.753 127.62 281.876C128.113 280.999 127.576 280.35 128.434 279.842C129.292 279.333 129.581 280.129 130.574 280.125C131.567 280.121 131.851 279.323 132.712 279.825C133.574 280.327 133.042 280.98 133.541 281.853C134.041 282.726 134.862 282.577 134.866 283.587C134.87 284.597 134.047 284.455 133.554 285.332C133.061 286.208 133.598 286.857 132.741 287.366Z" fill="white"/>
<path d="M128.754 283.593C128.757 283.099 128.952 282.625 129.298 282.278C129.643 281.93 130.11 281.735 130.596 281.738C131.082 281.74 131.547 281.938 131.89 282.289C132.232 282.64 132.424 283.115 132.422 283.609C132.421 284.104 132.227 284.578 131.882 284.927C131.538 285.276 131.071 285.471 130.585 285.47C130.099 285.47 129.633 285.273 129.29 284.923C128.947 284.573 128.754 284.098 128.754 283.604" fill="#FD1717"/>
<path d="M112.67 282.402C111.812 282.91 111.523 282.115 110.53 282.118C109.537 282.122 109.253 282.92 108.392 282.418C107.53 281.917 108.062 281.264 107.563 280.39C107.063 279.517 106.242 279.667 106.238 278.656C106.235 277.646 107.057 277.789 107.55 276.912C108.043 276.035 107.506 275.386 108.364 274.878C109.222 274.369 109.511 275.165 110.504 275.161C111.497 275.157 111.78 274.359 112.642 274.861C113.504 275.363 112.971 276.016 113.471 276.889C113.971 277.762 114.792 277.613 114.795 278.623C114.799 279.634 113.977 279.491 113.484 280.368C112.991 281.245 113.528 281.893 112.67 282.402Z" fill="white"/>
<path d="M108.684 278.629C108.686 278.135 108.882 277.662 109.227 277.314C109.573 276.966 110.04 276.772 110.526 276.774C111.012 276.776 111.477 276.974 111.82 277.325C112.162 277.676 112.353 278.151 112.352 278.646C112.351 279.14 112.156 279.614 111.812 279.963C111.467 280.312 111.001 280.507 110.515 280.506C110.029 280.506 109.563 280.309 109.22 279.959C108.876 279.609 108.684 279.134 108.684 278.64" fill="#FD1717"/>
<path d="M95.5257 275.028C94.6677 275.536 94.3782 274.74 93.3853 274.744C92.3924 274.748 92.1088 275.546 91.2471 275.044C90.3854 274.542 90.918 273.889 90.4183 273.016C89.9186 272.143 89.0975 272.292 89.0938 271.282C89.09 270.272 89.9121 270.415 90.4053 269.538C90.8985 268.661 90.361 268.012 91.219 267.503C92.077 266.995 92.3665 267.791 93.3594 267.787C94.3523 267.783 94.6358 266.985 95.4976 267.487C96.3593 267.989 95.8267 268.642 96.3264 269.515C96.8261 270.388 97.6472 270.239 97.6509 271.249C97.6547 272.259 96.8326 272.117 96.3394 272.993C95.8462 273.87 96.3837 274.519 95.5257 275.028Z" fill="white"/>
<path d="M91.5391 271.255C91.5419 270.76 91.7375 270.287 92.0829 269.939C92.4283 269.591 92.8953 269.397 93.3813 269.399C93.8673 269.402 94.3326 269.6 94.675 269.951C95.0174 270.302 95.2089 270.777 95.2075 271.271C95.2061 271.766 95.0118 272.24 94.6673 272.589C94.3229 272.937 93.8565 273.133 93.3705 273.132C92.8844 273.131 92.4186 272.934 92.0752 272.584C91.7318 272.234 91.539 271.76 91.5391 271.266" fill="#FD1717"/>
<path d="M202.791 265.242C203.649 265.75 203.938 264.955 204.931 264.958C205.924 264.962 206.208 265.76 207.069 265.259C207.931 264.757 207.398 264.104 207.898 263.231C208.398 262.358 209.219 262.507 209.223 261.496C209.226 260.486 208.404 260.629 207.911 259.752C207.418 258.875 207.955 258.226 207.097 257.718C206.239 257.209 205.95 258.005 204.957 258.001C203.964 257.998 203.681 257.199 202.819 257.701C201.957 258.203 202.49 258.856 201.99 259.729C201.49 260.602 200.669 260.453 200.665 261.463C200.662 262.474 201.484 262.331 201.977 263.208C202.47 264.085 201.933 264.734 202.791 265.242Z" fill="white"/>
<path d="M206.777 261.469C206.774 260.975 206.579 260.502 206.233 260.154C205.888 259.806 205.421 259.612 204.935 259.614C204.449 259.616 203.984 259.814 203.641 260.165C203.299 260.516 203.107 260.991 203.109 261.486C203.11 261.98 203.305 262.454 203.649 262.803C203.993 263.152 204.46 263.347 204.946 263.347C205.432 263.346 205.898 263.149 206.241 262.799C206.585 262.449 206.777 261.974 206.777 261.48" fill="#FD1717"/>
<path d="M186.349 272.121C187.207 272.629 187.497 271.833 188.49 271.837C189.483 271.841 189.766 272.639 190.628 272.137C191.49 271.635 190.957 270.982 191.457 270.109C191.956 269.236 192.777 269.385 192.781 268.375C192.785 267.365 191.963 267.508 191.47 266.631C190.977 265.754 191.514 265.105 190.656 264.596C189.798 264.088 189.509 264.884 188.516 264.88C187.523 264.876 187.239 264.078 186.377 264.58C185.516 265.082 186.048 265.735 185.549 266.608C185.049 267.481 184.228 267.332 184.224 268.342C184.22 269.352 185.042 269.21 185.536 270.086C186.029 270.963 185.491 271.612 186.349 272.121Z" fill="white"/>
<path d="M190.336 268.348C190.333 267.853 190.137 267.38 189.792 267.032C189.447 266.684 188.98 266.49 188.494 266.492C188.008 266.495 187.542 266.693 187.2 267.044C186.858 267.395 186.666 267.87 186.668 268.364C186.669 268.859 186.863 269.333 187.208 269.682C187.552 270.03 188.019 270.226 188.505 270.225C188.991 270.224 189.456 270.027 189.8 269.677C190.143 269.327 190.336 268.853 190.336 268.359" fill="#FD1717"/>
<path d="M168.717 276.729C169.574 277.238 169.864 276.442 170.857 276.446C171.85 276.45 172.133 277.248 172.995 276.746C173.857 276.244 173.324 275.591 173.824 274.718C174.324 273.845 175.145 273.994 175.148 272.984C175.152 271.973 174.33 272.116 173.837 271.239C173.344 270.363 173.881 269.714 173.023 269.205C172.165 268.697 171.876 269.492 170.883 269.489C169.89 269.485 169.606 268.687 168.745 269.189C167.883 269.69 168.415 270.343 167.916 271.217C167.416 272.09 166.595 271.94 166.591 272.951C166.588 273.961 167.41 273.818 167.903 274.695C168.396 275.572 167.859 276.221 168.717 276.729Z" fill="white"/>
<path d="M172.703 272.957C172.7 272.462 172.505 271.989 172.159 271.641C171.814 271.293 171.347 271.099 170.861 271.101C170.375 271.103 169.91 271.302 169.567 271.653C169.225 272.004 169.033 272.478 169.035 272.973C169.036 273.468 169.23 273.941 169.575 274.29C169.919 274.639 170.386 274.835 170.872 274.834C171.358 274.833 171.824 274.636 172.167 274.286C172.51 273.936 172.703 273.462 172.703 272.967" fill="#FD1717"/>
<path d="M170.111 287.366C170.969 287.874 171.259 287.078 172.251 287.082C173.244 287.086 173.528 287.884 174.39 287.382C175.251 286.88 174.719 286.227 175.218 285.354C175.718 284.481 176.539 284.63 176.543 283.62C176.547 282.61 175.725 282.753 175.231 281.876C174.738 280.999 175.276 280.35 174.418 279.842C173.56 279.333 173.27 280.129 172.277 280.125C171.284 280.121 171.001 279.323 170.139 279.825C169.277 280.327 169.81 280.98 169.31 281.853C168.811 282.726 167.99 282.577 167.986 283.587C167.982 284.597 168.804 284.455 169.297 285.332C169.791 286.208 169.253 286.857 170.111 287.366Z" fill="white"/>
<path d="M174.098 283.593C174.095 283.099 173.899 282.625 173.554 282.278C173.208 281.93 172.741 281.735 172.255 281.738C171.769 281.74 171.304 281.938 170.962 282.289C170.619 282.64 170.428 283.115 170.429 283.609C170.431 284.104 170.625 284.578 170.969 284.927C171.314 285.276 171.78 285.471 172.266 285.47C172.752 285.47 173.218 285.273 173.562 284.923C173.905 284.573 174.098 284.098 174.098 283.604" fill="#FD1717"/>
<path d="M190.177 282.402C191.035 282.91 191.325 282.115 192.318 282.118C193.311 282.122 193.594 282.92 194.456 282.418C195.318 281.917 194.785 281.264 195.285 280.39C195.785 279.517 196.606 279.667 196.609 278.656C196.613 277.646 195.791 277.789 195.298 276.912C194.805 276.035 195.342 275.386 194.484 274.878C193.626 274.369 193.337 275.165 192.344 275.161C191.351 275.157 191.067 274.359 190.206 274.861C189.344 275.363 189.876 276.016 189.377 276.889C188.877 277.762 188.056 277.613 188.052 278.623C188.048 279.634 188.871 279.491 189.364 280.368C189.857 281.245 189.319 281.893 190.177 282.402Z" fill="white"/>
<path d="M194.164 278.629C194.161 278.135 193.966 277.662 193.62 277.314C193.275 276.966 192.808 276.772 192.322 276.774C191.836 276.776 191.37 276.974 191.028 277.325C190.686 277.676 190.494 278.151 190.496 278.646C190.497 279.14 190.691 279.614 191.036 279.963C191.38 280.312 191.847 280.507 192.333 280.506C192.819 280.506 193.285 280.309 193.628 279.959C193.971 279.609 194.164 279.134 194.164 278.64" fill="#FD1717"/>
<path d="M207.322 275.028C208.18 275.536 208.469 274.74 209.462 274.744C210.455 274.748 210.739 275.546 211.601 275.044C212.462 274.542 211.93 273.889 212.429 273.016C212.929 272.143 213.75 272.292 213.754 271.282C213.758 270.272 212.936 270.415 212.442 269.538C211.949 268.661 212.487 268.012 211.629 267.503C210.771 266.995 210.481 267.791 209.488 267.787C208.495 267.783 208.212 266.985 207.35 267.487C206.488 267.989 207.021 268.642 206.521 269.515C206.022 270.388 205.201 270.239 205.197 271.249C205.193 272.259 206.015 272.117 206.508 272.993C207.001 273.87 206.464 274.519 207.322 275.028Z" fill="white"/>
<path d="M211.309 271.255C211.306 270.76 211.11 270.287 210.765 269.939C210.419 269.591 209.952 269.397 209.466 269.399C208.98 269.402 208.515 269.6 208.173 269.951C207.83 270.302 207.639 270.777 207.64 271.271C207.642 271.766 207.836 272.24 208.18 272.589C208.525 272.937 208.991 273.133 209.477 273.132C209.963 273.131 210.429 272.934 210.772 272.584C211.116 272.234 211.309 271.76 211.309 271.266" fill="#FD1717"/>
<path d="M105.148 263.406C105.15 263.081 105.278 262.771 105.504 262.543C105.73 262.315 106.036 262.188 106.355 262.189C106.673 262.19 106.978 262.32 107.203 262.55C107.428 262.779 107.553 263.091 107.553 263.415C107.552 263.739 107.425 264.049 107.199 264.278C106.974 264.507 106.668 264.635 106.35 264.635C106.031 264.635 105.726 264.506 105.5 264.277C105.275 264.048 105.149 263.737 105.148 263.413" fill="white"/>
<path d="M122.008 268.795C122.009 268.471 122.137 268.16 122.364 267.932C122.59 267.704 122.896 267.577 123.214 267.578C123.533 267.579 123.838 267.709 124.062 267.939C124.287 268.169 124.413 268.48 124.412 268.804C124.411 269.128 124.284 269.438 124.059 269.667C123.833 269.896 123.528 270.024 123.209 270.024C122.891 270.024 122.585 269.895 122.36 269.666C122.135 269.437 122.008 269.126 122.008 268.802" fill="white"/>
<path d="M140.266 271.773C140.267 271.449 140.395 271.139 140.621 270.91C140.848 270.682 141.154 270.555 141.472 270.556C141.791 270.557 142.096 270.687 142.32 270.917C142.545 271.147 142.671 271.458 142.67 271.782C142.669 272.106 142.542 272.416 142.316 272.645C142.091 272.874 141.785 273.003 141.467 273.002C141.148 273.002 140.843 272.873 140.618 272.644C140.392 272.415 140.266 272.104 140.266 271.78" fill="white"/>
<path d="M99.2227 276.949C99.2243 276.625 99.3523 276.315 99.5785 276.087C99.8047 275.858 100.111 275.731 100.429 275.732C100.748 275.733 101.053 275.863 101.277 276.093C101.502 276.323 101.628 276.634 101.627 276.958C101.626 277.282 101.499 277.593 101.273 277.822C101.048 278.05 100.742 278.179 100.424 278.179C100.105 278.178 99.7999 278.049 99.5747 277.82C99.3495 277.591 99.2229 277.28 99.2227 276.956" fill="white"/>
<path d="M118.523 283.544C118.525 283.22 118.653 282.91 118.879 282.681C119.105 282.453 119.411 282.326 119.73 282.327C120.048 282.328 120.353 282.458 120.578 282.688C120.803 282.918 120.928 283.229 120.928 283.553C120.927 283.877 120.8 284.187 120.574 284.416C120.349 284.645 120.043 284.774 119.725 284.773C119.406 284.773 119.101 284.644 118.875 284.415C118.65 284.186 118.524 283.875 118.523 283.551" fill="white"/>
<path d="M139.223 287.231C139.224 286.907 139.352 286.597 139.579 286.368C139.805 286.14 140.111 286.013 140.429 286.014C140.748 286.015 141.053 286.145 141.277 286.375C141.502 286.605 141.628 286.916 141.627 287.24C141.626 287.564 141.499 287.874 141.273 288.103C141.048 288.332 140.742 288.461 140.424 288.46C140.105 288.46 139.8 288.331 139.575 288.102C139.35 287.873 139.223 287.562 139.223 287.238" fill="white"/>
<path d="M196.836 263.406C196.834 263.081 196.706 262.771 196.48 262.543C196.254 262.315 195.948 262.188 195.629 262.189C195.311 262.19 195.006 262.32 194.781 262.55C194.557 262.779 194.431 263.091 194.432 263.415C194.432 263.739 194.56 264.049 194.785 264.278C195.011 264.507 195.316 264.635 195.635 264.635C195.953 264.635 196.259 264.506 196.484 264.277C196.709 264.048 196.836 263.737 196.836 263.413" fill="white"/>
<path d="M179.977 268.795C179.975 268.471 179.847 268.16 179.621 267.932C179.395 267.704 179.089 267.577 178.77 267.578C178.452 267.579 178.147 267.709 177.922 267.939C177.697 268.169 177.572 268.48 177.572 268.804C177.573 269.128 177.7 269.438 177.926 269.667C178.151 269.896 178.457 270.024 178.775 270.024C179.094 270.024 179.399 269.895 179.625 269.666C179.85 269.437 179.976 269.126 179.977 268.802" fill="white"/>
<path d="M161.719 271.773C161.717 271.449 161.589 271.139 161.363 270.91C161.137 270.682 160.831 270.555 160.512 270.556C160.194 270.557 159.889 270.687 159.664 270.917C159.44 271.147 159.314 271.458 159.315 271.782C159.315 272.106 159.442 272.416 159.668 272.645C159.893 272.874 160.199 273.003 160.518 273.002C160.836 273.002 161.141 272.873 161.367 272.644C161.592 272.415 161.719 272.104 161.719 271.78" fill="white"/>
<path d="M202.762 276.949C202.76 276.625 202.632 276.315 202.406 276.087C202.18 275.858 201.874 275.731 201.555 275.732C201.237 275.733 200.932 275.863 200.707 276.093C200.483 276.323 200.357 276.634 200.358 276.958C200.358 277.282 200.485 277.593 200.711 277.822C200.936 278.05 201.242 278.179 201.561 278.179C201.879 278.178 202.184 278.049 202.41 277.82C202.635 277.591 202.761 277.28 202.762 276.956" fill="white"/>
<path d="M183.461 283.544C183.459 283.22 183.331 282.91 183.105 282.681C182.879 282.453 182.573 282.326 182.254 282.327C181.936 282.328 181.631 282.458 181.406 282.688C181.182 282.918 181.056 283.229 181.057 283.553C181.057 283.877 181.185 284.187 181.41 284.416C181.636 284.645 181.941 284.774 182.26 284.773C182.578 284.773 182.884 284.644 183.109 284.415C183.334 284.186 183.461 283.875 183.461 283.551" fill="white"/>
<path d="M162.762 287.231C162.76 286.907 162.632 286.597 162.406 286.368C162.18 286.14 161.874 286.013 161.555 286.014C161.237 286.015 160.932 286.145 160.707 286.375C160.483 286.605 160.357 286.916 160.358 287.24C160.358 287.564 160.485 287.874 160.711 288.103C160.936 288.332 161.242 288.461 161.561 288.46C161.879 288.46 162.184 288.331 162.41 288.102C162.635 287.873 162.761 287.562 162.762 287.238" fill="white"/>
<defs>
<radialGradient id="paint0_radial_186_21792" cx="0" cy="0" r="1" gradientUnits="userSpaceOnUse" gradientTransform="translate(39.3892 111.204) rotate(12.7227) scale(5.46685 5.55784)">
<stop stop-color="#868686"/>
<stop offset="0.25" stop-color="white"/>
<stop offset="0.625" stop-color="white"/>
<stop offset="1" stop-color="#D7DEDD"/>
</radialGradient>
<radialGradient id="paint1_radial_186_21792" cx="0" cy="0" r="1" gradientUnits="userSpaceOnUse" gradientTransform="translate(54.552 112.365) rotate(60.9839) scale(5.70313 5.65587)">
<stop stop-color="#868686"/>
<stop offset="0.25" stop-color="white"/>
<stop offset="0.625" stop-color="white"/>
<stop offset="1" stop-color="#D7DEDD"/>
</radialGradient>
<radialGradient id="paint2_radial_186_21792" cx="0" cy="0" r="1" gradientUnits="userSpaceOnUse" gradientTransform="translate(46.8991 109.201) rotate(34.8376) scale(6.3623 6.40667)">
<stop stop-color="#868686"/>
<stop offset="0.25" stop-color="white"/>
<stop offset="0.625" stop-color="white"/>
<stop offset="1" stop-color="#D7DEDD"/>
</radialGradient>
<radialGradient id="paint3_radial_186_21792" cx="0" cy="0" r="1" gradientUnits="userSpaceOnUse" gradientTransform="translate(261.611 111.203) rotate(167.277) scale(5.46685 5.55784)">
<stop stop-color="#868686"/>
<stop offset="0.25" stop-color="white"/>
<stop offset="0.625" stop-color="white"/>
<stop offset="1" stop-color="#D7DEDD"/>
</radialGradient>
<radialGradient id="paint4_radial_186_21792" cx="0" cy="0" r="1" gradientUnits="userSpaceOnUse" gradientTransform="translate(246.448 112.364) rotate(119.016) scale(5.70313 5.65587)">
<stop stop-color="#868686"/>
<stop offset="0.25" stop-color="white"/>
<stop offset="0.625" stop-color="white"/>
<stop offset="1" stop-color="#D7DEDD"/>
</radialGradient>
<radialGradient id="paint5_radial_186_21792" cx="0" cy="0" r="1" gradientUnits="userSpaceOnUse" gradientTransform="translate(254.101 109.2) rotate(145.162) scale(6.3623 6.40667)">
<stop stop-color="#868686"/>
<stop offset="0.25" stop-color="white"/>
<stop offset="0.625" stop-color="white"/>
<stop offset="1" stop-color="#D7DEDD"/>
</radialGradient>
</defs>
</svg>
