<svg width="300" height="300" viewBox="0 0 300 300" fill="none" xmlns="http://www.w3.org/2000/svg">
<path fill-rule="evenodd" clip-rule="evenodd" d="M25 3L28.2889 238.097C28.2889 238.097 28.5844 259.258 50.0521 273.312C56.0491 277.238 65.5906 280.344 80.2422 280.144C84.7083 280.081 110.263 279.95 123.135 280.305C132.533 280.565 148.176 287.077 149.274 298H151.48C152.425 285.35 168.078 280.579 177.619 280.305C190.429 279.939 216.042 280.082 220.508 280.144C235.159 280.345 244.701 277.238 250.698 273.312C272.166 259.258 272.461 238.097 272.461 238.097L275.75 3H25Z" fill="#DC143C"/>
<path fill-rule="evenodd" clip-rule="evenodd" d="M129.781 18.6014C133.867 25.7341 135.506 32.484 137.765 38.9306C141.505 38.4225 145.785 39.4396 150.023 39.7374C154.862 40.6863 158.688 41.0971 162.282 40.5448C164.488 30.3865 166.397 25.3117 170.789 18.1653C168.84 19.4904 164.693 20.032 163.067 22.4404C160.63 20.2724 158.697 21.6295 157.483 23.9237C157.896 22.0925 157.35 20.5402 154.953 20.3901C156.374 17.7256 154.186 16.404 151.899 17.5978C151.836 15.2772 149.981 15.2579 149.849 14.0205C149.541 15.4537 147.915 14.7447 148.147 18.2089C146.296 16.7215 144.488 17.6906 145.181 20.3028C142.935 20.2927 142.308 22.1422 142.52 24.447C140.979 20.8733 138.086 21.9647 137.067 23.2254C135.26 19.6669 133.896 21.914 129.781 18.6014Z" fill="#F6D155"/>
<path fill-rule="evenodd" clip-rule="evenodd" d="M165.821 36.7818C163.218 41.2552 162.103 41.566 150.689 39.8109C141.662 38.9102 133.529 36.3609 133.156 44.5423C136.142 44.8969 140.485 45.2209 142.377 51.6031L136.852 56.3168C132.95 56.931 126.796 62.1518 122.731 57.2971C121.615 61.8622 125.806 63.1468 130.179 62.9637C133.243 62.6493 134.221 61.8267 139.941 60.6959L141.457 62.3263C150.097 63.0413 154.571 75.3979 140.559 82.6478C140.016 84.3259 140.912 86.3392 142.244 86.5776C138.17 92.3395 131.485 99.5281 129.087 94.7849C128.528 95.3098 126.955 99.2304 130.005 101.397C127.687 104.25 126.792 107.627 126.916 111.527C117.68 110.084 111.597 108.518 113.667 99.881C123.494 100.335 126.157 88.4677 124.713 82.4521C119.003 58.4234 88.0053 39.1516 65.4443 38.5233C66.6993 45.0612 70.733 49.7784 75.3261 54.1291C69.3433 51.2166 62.4003 48.393 55.1283 49.8738C55.9688 55.0384 58.769 61.029 70.5527 70.8014C62.0594 65.758 54.2256 60.8343 51.4664 56.8234C50.2405 58.4772 49.5496 65.2128 56.8005 70.1289C54.4979 69.2105 43.1177 69.2922 39.6767 71.8136C41.7556 76.5441 51.2526 84.8123 59.0458 87.3616C51.6562 86.287 44.7295 83.3091 38.3866 77.9316C37.4496 78.7724 38.4226 87.5264 46.3009 91.0114C43.7492 91.1813 35.0447 93.6231 32.7969 96.4275C37.3384 102.49 48.9508 107.831 54.7214 107.853C46.8501 108.879 38.254 107.296 34.6799 106.17C34.7593 108.182 33.0668 116.262 54.6098 114.928C46.9239 118.56 35.3235 126.119 33.4717 132.784C40.9387 136.09 54.3289 133.366 61.2539 131.194C40.7759 143.675 37.5803 144.958 33.7818 144.12C38.74 154.603 50.6877 147.52 61.0108 141.648C48.3197 158.629 46.2562 167.286 46.5267 179.317C56.7469 178.088 71.5411 163.448 79.4248 150.967C70.2891 169.759 64.8514 184.865 54.8902 189.311C66.239 193.807 75.9728 179.565 82.8113 164.459C80.1922 174.021 79.1087 194.29 82.4541 199.247C92.7144 192.296 100.487 176.861 105.696 159.165C103.919 167.885 102.604 176.604 99.4092 185.324C106.005 186.578 109.376 174.744 111.601 167.811C111.806 168.174 112.051 168.48 112.688 169.071C121.02 163.026 123.671 148.994 124.256 143.5C131.854 145.658 135.196 142.903 137.143 141.49C138.807 143.794 138.912 147.389 139.381 147.881C131.117 141.169 122.255 147.896 121.892 159.075C120.997 163.74 118.504 169.136 112.266 173.311C112.656 173.819 113.527 174.024 114.657 174.003C113.571 175.873 112.585 177.489 110.742 179.184C111.219 179.459 111.814 179.497 112.377 179.598C110.991 181.914 108.676 184.101 106.363 185.215C106.918 185.747 107.234 185.925 108.916 186.381C107.375 188.428 104.86 190.274 102.488 191.271C107.014 193.959 110.472 194.304 113.278 194.047C113.283 194.047 113.288 194.047 113.293 194.047C111.502 197.59 108.614 199.383 105.793 200.974C106.67 201.798 107.726 201.977 108.604 201.731C106.053 204.381 103.359 206.468 100.928 207.222C101.37 207.553 101.681 208.009 103.247 207.891C101.507 210.039 99.3958 212.137 95.6604 213.111C96.3995 214.533 97.9188 214.315 99.2306 214.362C98.2103 216.558 95.015 217.296 91.7801 217.977C94.2179 218.666 95.8755 219.975 94.4249 219.634C93.4408 220.82 92.4752 221.434 90.366 221.75C88.1987 222.075 80.4405 219.28 77.3134 220.358C76.4281 218.595 74.2858 217.381 72.0264 217.381C69.1396 217.381 66.302 219.221 66.1688 221.792C65.7216 221.482 63.8377 221.234 64.1244 223.469C64.8042 224.785 64.8373 225.842 68.9922 227.442C69.669 227.743 70.4926 227.901 71.4905 227.859C72.9704 227.796 74.6261 227.053 75.8645 225.978L75.8397 226.022C77.9084 226.405 80.1861 226.752 81.4443 227.278C78.1713 227.539 77.0456 229.345 75.1798 230.645C74.3942 230.605 73.7446 230.411 73.0337 230.297L73.056 230.322C72.6295 230.215 72.1987 230.167 71.7783 230.19C69.4417 230.317 67.0862 232.95 66.8337 235.934C66.7825 236.539 66.9321 237.117 67.2257 237.646L67.191 238.154C66.5093 238.995 66.7793 239.664 67.444 240.149C70.2965 241.282 71.9979 240.585 73.0238 240.377C75.612 240.064 77.7774 237.93 77.7774 235.557C77.7774 235.551 77.7774 235.546 77.7774 235.539L77.8319 235.599C80.8938 234.963 83.9127 234.112 85.59 232.878C85.6764 233.064 85.7268 233.267 85.6893 233.515C84.6239 234.146 82.8718 235.149 81.9455 238.239C81.669 238.213 81.4056 238.199 81.1565 238.199C77.6545 238.194 76.79 240.612 76.852 242.588C76.9123 244.514 77.6123 245.755 78.611 246.503C78.3991 247.702 78.5461 248.705 79.787 249.106C83.9678 249.761 84.9734 247.598 85.8133 247.652C85.7668 247.102 85.8792 246.712 86.0341 246.364C87.3164 245.769 88.1862 245.282 88.3067 242.873C88.4167 241.377 88.1621 240.461 87.6716 239.876L87.7832 239.908C87.7837 239.913 87.7852 239.917 87.7857 239.921C87.7897 239.917 87.794 239.914 87.7982 239.911L87.8329 239.921L87.8279 239.886C91.6569 236.617 94.1087 234.036 95.7622 231.855C97.2356 232.194 100.54 232.116 102.166 231.572L102.101 232.158C100.567 233.617 101.61 237.102 103.634 237.025C103.547 237.353 103.563 237.648 103.634 237.975C104.948 238.786 107.376 238.217 109.229 238.631C110.179 238.519 110.63 237.881 110.39 236.579L110.358 236.559C111.844 235.679 112.841 234.091 112.65 232.083C112.65 229.309 110.484 227.092 107.812 226.918L107.827 226.905C104.968 226.596 102.224 228.659 102.823 224.206C110.65 214.936 121.336 200.934 124.256 199.232C124.023 198.929 123.866 198.53 123.733 198.143C124.893 201.213 129.279 204.45 133.893 204.172C133.062 202.591 132.14 201.187 131.811 196.962C132.501 197.959 133.677 198.426 135.116 198.721C132.959 188.851 136.177 180.732 142.804 173.31C142.278 182.86 141.072 192.47 135.275 202.204C138.258 203.138 142.156 200.097 142.693 198.291C143.327 206.89 135.18 217.958 128.807 212.652C124.806 221.448 134.294 225.716 140.279 220.611C139.267 225.932 135.109 229.06 130.576 230.282C126.042 231.503 121.319 229.577 124.333 222.32C123.694 221.942 114.601 221.712 114.345 231.626C114.616 237.355 118.484 239.511 118.833 239.61C105.867 249.446 118.93 260.409 129.628 258.28C138.111 256.971 142.932 250.097 146.005 245.113C145.076 248.699 141.24 260.213 151.014 272.682C160.698 257.558 156.602 247.368 156.368 245.751C163.981 257.484 171.487 258.33 175.923 258.039C183.507 258.161 194.243 246.244 180.592 238.62C187.578 235.295 188.039 221.478 178.198 220.769C180.225 226.244 175.948 229.552 171.229 229.125C166.511 228.699 162.162 225.978 160.489 219.849C169.779 224.317 174.091 215.527 170.929 210.756C163.001 217.312 159.251 206.796 158.187 200.537C160.212 202.079 161.965 202.614 165.372 202.11C158.922 193.817 157.416 182.692 156.839 172.244C161.229 179.223 165.562 187.765 165.421 196.133C166.437 195.635 167.36 195.499 169.19 191.836C169.355 198.095 168.64 198.943 166.523 201.561C169.99 203.019 174.545 200.216 176.712 196.495C176.719 196.486 176.725 196.475 176.732 196.466C183.47 205.562 190.743 214.899 197.818 222.119C199.352 223.721 199.883 225.322 197.042 225.885C187.949 222.529 186.995 232.037 190.767 233.323C190.469 234.183 190.386 235.074 190.646 236.013C192.435 236.564 196.092 235.082 197.071 235.028C197.527 234.617 197.531 233.756 197.518 232.877C198.431 232.832 199.055 232.353 199.49 231.591C201.263 231.932 202.983 232.159 205.226 230.306L211.95 237.06C212.299 237.261 211.594 237.982 212.545 238.075C211.798 242.56 213.504 243.069 214.967 244.2C214.667 248.491 221.088 246.017 221.718 246.262C222.398 245.86 222.456 245.397 222.345 244.917C223.092 244.134 222.742 243.737 222.497 243.183C225.714 238.279 221.151 234.54 218.641 234.968C215.971 232.038 214.046 230.806 211.89 229.051C216.302 230.716 223.11 232.599 225.064 234.04C225.809 239.045 230.197 236.977 233.43 237.149C234.435 235.738 233.895 235.3 233.43 234.817C237.686 229.327 228.707 224.823 224.886 228.066C222.619 225.974 220.656 225.608 218.611 224.779C219.465 223.921 221.272 223.251 225.335 222.988C227.157 224.195 228.978 224.619 230.801 223.285C231.584 225.002 233.144 224.557 233.698 224.241C235.031 222.704 235.069 220.37 235.433 218.236C235.069 217.463 234.489 216.959 233.49 216.981C230.73 212.26 225.4 215.131 225.094 217.249C220.5 217.625 216.414 218.211 211.56 220.149C209.96 220.631 208.437 218.9 207.08 217.907C208.308 217.416 209.379 216.856 209.35 215.815C207.384 215.622 205.466 215.759 203.194 213.426L203.792 211.813C202.039 211.276 200.155 209.999 197.848 206.375C198.332 206.087 198.788 205.607 199.193 204.762C196.57 204.156 194.424 202.768 192.677 200.728C193.302 200.422 193.896 199.889 194.441 199.026C191.996 197.55 189.641 196.265 184.954 190.157C184.936 190.127 184.919 190.094 184.902 190.067C189.838 190.892 194.994 190.405 198.044 188.186C195.618 187.511 191.337 186.099 189.427 182.406C190.375 182.329 190.895 182.144 191.484 181.977C187.782 179.533 186.802 178.211 185.862 176.23C186.641 176.309 187.755 175.955 188.127 175.412C185.74 174.338 184.694 172.853 183.843 171.234C184.824 171.254 185.856 171.445 186.649 170.839C177.219 166.586 178.53 144.538 168.408 144.471C163.903 144.84 163.085 145.816 160.762 147.002C161.443 145.116 162.597 143.348 163.801 141.593C169.33 144.175 173.711 142.72 175.196 141.425C175.951 150.286 178.793 159.794 184.944 164.552C185.999 163.959 187.265 163.195 188.038 162.342C189.135 170.574 192.209 181.394 199.111 180.495C195.93 172.57 195.981 164.605 195.63 156.685C198.523 179.927 205.657 193.483 211.553 197.548C214.269 193.959 216.294 176.994 214.977 166.806C220.774 177.299 227.208 187.016 232.602 186.963C235.045 186.939 237.759 184.939 239.397 184.433C230.943 181.021 225.203 165.455 220.011 155.762C229.754 171.019 241.319 177.891 246.773 178.925C246.969 174.207 248.013 161.006 235.882 142.715C257.562 154.192 262.168 146.78 263.438 142.827C253.654 146.236 240.46 133.66 231.622 129.663L231.503 129.313C244.434 135.214 257.122 137.248 265.019 132.272C258.269 121.857 251.732 118.063 244.627 115.386C258.665 116.945 263.267 112.169 263.557 106.941C258.434 108.673 253.695 108.943 247.587 107.966C261.022 105.259 263.444 99.5595 263.312 98.9895C259.87 96.316 253.372 93.3051 247.503 92.7524C263.701 86.9321 258.552 81.4449 257.95 79.7222C252.913 84.4436 244.134 87.8119 242.583 87.6714C250.144 83.7285 256.701 73.4131 256.275 72.2472C252.498 70.3034 244.675 70.3987 241.531 71.3491C244.677 67.8976 248.807 61.99 244.997 57.076C241.332 62.2558 237.847 65.0105 234.366 67.7145C237.525 63.7183 241.195 59.1339 242.451 49.7495C237.72 50.3692 233.433 49.9052 227.292 53.9597C230.816 49.5583 232.984 45.227 233.413 39.9818C212.254 41.4666 187.521 52.5595 175.586 80.2162C172.122 88.3409 174.825 102.169 185.713 100.593C187.431 107.57 182.814 111.834 172.782 111.526C172.57 109.19 173.302 104.562 170.425 102.126C172.862 101.968 173.34 100.714 173.849 99.6497C167.301 98.1385 168.362 95.9655 169.582 84.332C170.443 84.6895 171.425 84.4826 172.17 83.7935C169.464 81.2989 170.358 76.6845 171.723 62.1468C171.997 55.8107 170.692 52.6391 169.302 51.5458C170.14 51.1203 170.689 50.4316 170.257 48.8514C173.285 48.3195 172.003 44.6235 170.755 43.4252C170.147 45.0728 167.552 45.6809 165.091 43.8547C168.066 42.4986 168.093 39.1247 165.821 36.7812L165.821 36.7818ZM178.059 193.015C178.16 193.136 178.264 193.251 178.369 193.362C178.264 193.257 178.159 193.148 178.054 193.035C178.056 193.028 178.057 193.021 178.06 193.015L178.059 193.015ZM116.139 193.464C115.846 194.561 116.366 197.56 116.429 199.555C117.432 200.048 119.202 199.537 121.232 198.764C121.122 198.811 121.014 198.858 120.905 198.905C119.377 199.471 117.557 200.05 116.414 199.59L116.057 195.127C115.981 194.622 115.988 194.078 116.129 193.467C116.132 193.466 116.135 193.465 116.139 193.464L116.139 193.464ZM115.392 193.673C115.224 193.722 115.053 193.765 114.876 193.801C115.046 193.761 115.217 193.72 115.392 193.673ZM179.34 194.218C181.576 195.854 184.338 195.899 185.356 195.655C185.414 195.528 185.464 195.399 185.51 195.271C185.474 195.415 185.433 195.561 185.388 195.71C183.281 196.031 181.248 195.683 179.34 194.218ZM102.262 231.538C102.262 231.539 102.262 231.54 102.262 231.543L102.257 231.54C102.259 231.539 102.261 231.539 102.262 231.538ZM159.63 234.021C161.733 236.228 169.843 242.228 179.25 239.328C180.032 244.644 175.515 246.647 171.949 245.92C168.463 245.21 163.22 242.428 159.63 234.021ZM140.939 235.381C137.886 241.189 132.827 246.1 128.323 247.282C123.819 248.464 119.622 246.225 121.257 240.377C130.983 243.634 138.886 237.874 140.939 235.381Z" fill="white"/>
<path fill-rule="evenodd" clip-rule="evenodd" d="M96.0717 127.74C92.7878 123.86 93.269 121.408 93.3723 120.039C89.749 117.304 90.7014 116.224 90.0776 115.117C91.3346 117.332 92.5917 118.8 93.8487 119.007C96.2437 121.202 98.6387 121.939 101.034 123.374C86.3874 115.368 90.4238 105.547 90.5936 102.732C88.305 102.808 86.6241 102.337 85.3935 101.461C85.8151 97.4914 87.8988 94.2645 92.3402 92.093C91.7845 92.2857 91.2288 92.55 90.673 92.6488C90.1521 92.5403 88.8879 89.2678 90.4745 87.1308C91.3859 86.5537 93.8508 86.3503 96.3495 87.3296C97.8271 84.3558 99.7407 81.7086 103.733 80.6208C104.719 81.6396 106.385 84.6758 105.202 89.9494C106.84 90.5564 108.442 91.3202 109.767 93.2838C109.357 94.9598 108.946 95.4319 108.536 95.864C114.941 95.931 115.564 86.9422 108.424 85.9963C109.58 77.5334 98.7289 72.4835 94.0075 82.9231C85.3188 80.5929 82.9868 87.3616 86.2668 92.6488C85.2067 93.4242 76.6109 99.7638 84.798 108.844C84.7816 113.317 85.9179 117.663 91.983 121.468C93.7255 126.596 94.8286 126.608 96.0717 127.74Z" fill="#DFDDE2"/>
<path fill-rule="evenodd" clip-rule="evenodd" d="M203.762 80.4939L204.918 78.3001C212.738 77.0799 217.465 82.3124 214.404 88.4984C220.718 93.8982 217.245 100.913 213.426 102.313C217.985 98.9639 215.477 97.9294 214.701 97.9847C214.945 97.8731 215.327 97.6612 215.65 97.3919C215.398 94.4409 214.238 91.6476 209.691 88.2909C211.937 85.803 211.711 83.4398 211.41 81.7688C208.907 81.1171 206.69 81.3235 204.74 82.3322L203.762 80.4939Z" fill="#DFDDE2"/>
<path fill-rule="evenodd" clip-rule="evenodd" d="M192.941 95.7019C193.302 94.4808 193.634 92.5192 195.846 90.6621C195.153 91.1677 194.385 91.7874 193.534 92.5298C190.69 91.3766 188.866 88.772 188.435 87.1939C190.174 84.9458 194.314 85.2719 194.897 85.4149C193.694 80.8807 195.254 77.5133 196.38 76.2247C200.128 76.5706 202.07 78.5007 203.584 80.227L204.71 78.2111C203.686 75.0294 200.548 72.6333 196.855 73.3924C193.769 73.7205 190.265 76.4012 191.666 82.6875C182.36 86.4377 186.322 95.3601 192.941 95.7019Z" fill="#DFDDE2"/>
<path fill-rule="evenodd" clip-rule="evenodd" d="M172.694 111.621C172.352 115.052 171.678 117.554 170.945 119.892C183.593 117.994 202.326 114.736 199.79 100.83C197.488 102.506 195.185 102.812 192.883 102.846C192.49 100.865 192.271 98.7604 192.972 95.998C190.883 98.8283 188.416 99.8973 185.857 100.534C197.303 105.642 181.015 114.674 174.206 111.621H172.694Z" fill="#F1EEF0"/>
<path fill-rule="evenodd" clip-rule="evenodd" d="M127.019 116.833C127.382 120.77 128.603 125.561 129.807 129.997C129.006 128.731 126.573 121.017 127.019 116.833Z" fill="#E8E6EB"/>
<path fill-rule="evenodd" clip-rule="evenodd" d="M164.648 114.024C161.59 126.138 175.071 124.963 165.612 112.536C174.808 118.166 168.779 126.584 168.316 128.468C166.873 121.97 161.183 120.33 164.648 114.024Z" fill="#C3BDC9"/>
<path fill-rule="evenodd" clip-rule="evenodd" d="M103.726 80.8389L99.1582 94.2574C98.0284 93.7777 96.9767 93.3248 95.5078 91.6204C95.5426 86.972 99.6566 81.1771 103.726 80.8389Z" fill="white"/>
<path fill-rule="evenodd" clip-rule="evenodd" d="M107.357 106.984L99.1289 94.271C100.414 94.2422 101.915 94.2766 103.702 93.8486C106.123 96.118 108.817 102.017 107.357 106.984Z" fill="#C3BDC9"/>
<path fill-rule="evenodd" clip-rule="evenodd" d="M105.03 90.0518C107.509 90.741 109.228 92.3521 109.512 93.3582L103.707 93.8973C104.262 92.6969 104.679 91.3662 105.03 90.0518Z" fill="white"/>
<path fill-rule="evenodd" clip-rule="evenodd" d="M90.6411 92.5953C89.5577 91.0308 89.563 87.8243 90.6849 87.166L95.5259 91.6328C94.2376 91.931 91.8944 92.0654 90.6411 92.5953Z" fill="white"/>
<path fill-rule="evenodd" clip-rule="evenodd" d="M85.5273 101.33L99.0901 94.33C99.3747 94.1555 97.1626 92.0575 95.4843 91.6386C91.8632 91.1787 85.8365 95.7114 85.5273 101.33Z" fill="white"/>
<path fill-rule="evenodd" clip-rule="evenodd" d="M96.8031 101.346C89.803 121.388 119.958 124.493 127.996 125.091L127.026 120.068C112.444 119.42 98.8427 116.202 100.856 105.242C98.2215 103.594 97.6569 102.851 96.8031 101.346Z" fill="url(#paint0_linear_194_4966)"/>
<path fill-rule="evenodd" clip-rule="evenodd" d="M96.822 101.293C95.2088 102.086 92.8965 102.438 90.6561 102.783C84.8522 127.093 122.518 129.011 129.73 129.906C128.597 127.661 128.312 126.472 127.988 125.007C108.873 123.769 91.1964 116.61 96.822 101.293Z" fill="url(#paint1_linear_194_4966)"/>
<path fill-rule="evenodd" clip-rule="evenodd" d="M196.449 76.3408C198.563 80.698 200.823 85.8266 202.417 90.7026C203.329 89.3694 204.22 88.0326 206.044 86.4965C205.044 81.9202 202.761 77.0777 196.449 76.3408Z" fill="#C3BDC9"/>
<path fill-rule="evenodd" clip-rule="evenodd" d="M196.454 76.3096C198.583 80.7748 201.027 86.1209 202.434 90.6891L197.297 89.9487C194.253 86.6407 193.525 80.0511 196.454 76.3096Z" fill="white"/>
<path fill-rule="evenodd" clip-rule="evenodd" d="M188.562 87.1743C189.894 85.6494 192.734 85.1666 195.024 85.5607C195.543 86.8264 196.378 88.6171 197.314 89.9874L188.562 87.1743Z" fill="#C3BDC9"/>
<path fill-rule="evenodd" clip-rule="evenodd" d="M211.267 81.883L206.027 86.5562L209.429 88.3367C212.171 85.9851 211.415 81.8495 211.267 81.883Z" fill="#C3BDC9"/>
<path fill-rule="evenodd" clip-rule="evenodd" d="M206.032 86.4795C205.191 86.6534 202.267 90.6886 202.458 90.6527L215.539 97.3234C215.589 95.0595 213.507 89.5035 206.032 86.4795Z" fill="#C3BDC9"/>
<path fill-rule="evenodd" clip-rule="evenodd" d="M202.412 90.6162L192.984 102.792C199.016 102.531 201.436 99.85 203.547 96.5187L202.412 90.6162Z" fill="#C3BDC9"/>
<path fill-rule="evenodd" clip-rule="evenodd" d="M211.272 81.8833C209.251 81.2098 206.582 81.4238 204.723 82.4553C205.341 83.7632 205.76 85.3763 206.058 86.5428L211.272 81.8833Z" fill="white"/>
<path fill-rule="evenodd" clip-rule="evenodd" d="M202.41 90.6309L215.557 97.3234C213.152 99.3062 205.552 97.4568 203.514 96.5663L202.41 90.6309Z" fill="white"/>
<path fill-rule="evenodd" clip-rule="evenodd" d="M202.431 90.6586L197.28 89.9258C191.564 92.321 192.574 102.081 193.007 102.793L202.431 90.6586Z" fill="white"/>
<path fill-rule="evenodd" clip-rule="evenodd" d="M197.233 89.9564L188.566 87.1631C188.992 89.253 191.545 91.6131 193.483 92.4053C193.896 92.03 195.807 90.2774 197.233 89.9564Z" fill="white"/>
<path fill-rule="evenodd" clip-rule="evenodd" d="M203.694 96.5527C202.089 98.9165 201.592 99.5428 199.817 100.746C202.882 114.819 182.666 118.337 170.978 119.979C170.864 121.916 170.25 123.552 169.688 125.04C171.795 124.892 213.29 124.096 203.694 96.5527Z" fill="white"/>
<path fill-rule="evenodd" clip-rule="evenodd" d="M203.926 96.7373C209.515 117.209 191.235 123.045 169.703 124.996C169.179 126.27 168.676 127.651 168.152 129.073C197.379 127.032 212.672 117.584 208.684 97.8885C206.808 97.6014 205.331 97.1816 203.926 96.7373Z" fill="url(#paint2_linear_194_4966)"/>
<path fill-rule="evenodd" clip-rule="evenodd" d="M67.4948 240.164C69.8425 241.247 72.7453 240.51 74.3125 240.06C75.1544 240.861 74.0537 244.018 76.5454 246.317C75.1221 246.939 67.3299 244.543 67.4948 240.164Z" fill="#F6D155"/>
<path fill-rule="evenodd" clip-rule="evenodd" d="M64.1485 223.341C65.1233 226.454 67.8803 226.787 69.0053 227.433C68.9751 228.609 65.9594 228.552 65.8502 232.809C63.7425 232.619 60.8094 227.694 64.1485 223.341Z" fill="#F6D155"/>
<path fill-rule="evenodd" clip-rule="evenodd" d="M79.8147 249.064C83.6145 249.705 84.9909 247.666 85.8425 247.552C86.2846 248.796 87.9828 250.415 89.6327 251.262C88.8618 254.053 79.6498 253.443 79.8147 249.064Z" fill="#F6D155"/>
<path fill-rule="evenodd" clip-rule="evenodd" d="M109.117 238.658C108.895 238.184 104.531 238.712 103.742 238.009C103.195 238.685 103.033 240.915 101.383 241.762C102.436 243.668 109.732 243.037 109.117 238.658Z" fill="#F6D155"/>
<path fill-rule="evenodd" clip-rule="evenodd" d="M117.43 199.802C118.082 199.725 118.711 199.633 119.244 199.477C116.678 202.562 112.404 207.945 108.11 212.479C103.804 217.025 99.8861 221.509 101.374 225.576C98.3891 222.609 101.04 219.712 105.079 214.935C109.463 209.751 114.408 203.776 117.43 199.802ZM112.028 232.716C112.028 234.83 110.27 236.785 106.034 236.586C110.808 231.346 101.156 231.023 103.454 228.885C109.858 224.871 112.504 231.078 112.028 232.716ZM107.467 237.324C108.851 237.615 109.721 235.894 110.026 236.771C110.622 238.503 107.495 238.821 107.467 237.324ZM75.1528 219.184C74.1802 219.146 74.4569 223.084 68.6824 222.926C68.579 222.899 68.0371 222.93 67.7322 223.472C67.0304 224.789 69.3876 227.475 71.5355 227.317C73.4095 227.179 74.9755 226.105 75.9467 224.769C76.387 224.522 79.4523 222.822 79.1993 223.556C75.6022 225.312 76.4997 226.423 82.2038 226.839C85.8011 226.305 88.8537 223.191 90.1455 222.544C86.4697 223.181 78.6412 220.734 76.825 220.72C76.5675 220.052 76.041 219.503 75.2 219.19C75.1839 219.187 75.1683 219.185 75.1528 219.184V219.184ZM68.6985 239.302C68.6044 239.631 68.4103 239.863 68.1615 240.038C69.1801 240.686 71.9188 240.513 72.2225 240.29C71.9205 240.283 69.6695 240.147 68.6985 239.302ZM95.5938 222.971C90.7008 225.359 87.3358 233.989 75.1901 232.855C74.8871 233.915 74.2128 234.129 73.5873 234.453C71.0546 234.419 68.1344 235.024 68.1639 236.606C68.1996 238.523 71.1496 239.722 73.1259 239.484C75.1264 239.243 77.2127 237.334 77.2145 235.418C77.2145 235.417 77.2145 235.416 77.2145 235.415C77.2801 235.259 77.3823 235.135 77.5917 235.137C91.0344 232.233 93.098 225.33 95.5938 222.97V222.971ZM97.7374 223.209C97.2044 226.472 86.6135 236.209 86.1213 239.397C85.559 238.962 84.7479 238.649 83.0548 238.737C84.0394 243.613 79.9678 245.106 78.8818 244.27C78.875 246.473 82.0825 247.388 84.1613 246.989C86.605 246.52 88.6502 242.78 87.2328 240.504C87.5558 236.471 92.8583 235.297 95.0777 230.116C97.0341 230.096 97.3312 227.067 99.7619 226.503C99.2511 224.932 97.2609 226.977 97.7374 223.209ZM66.4548 223.203C66.7664 225.133 67.6304 225.945 69.0643 227.138C67.9102 226.725 66.77 226.402 65.5078 225.286C66.6664 225.638 65.7863 222.9 66.4548 223.203ZM91.824 218.021C94.0671 218.54 97.0121 218.745 101.017 218.512C95.1917 220.558 92.5792 219.863 91.824 218.021ZM99.1662 214.357C99.1759 214.669 98.6952 215.27 98.2502 215.655C101.061 215.602 103.801 215.022 105.792 212.799C103.942 213.642 101.845 214.343 99.1662 214.357ZM103.137 207.935C102.933 208.311 102.201 209.104 101.65 209.68C103.97 209.939 108.598 208.863 110.589 206.641C108.739 207.484 105.816 207.922 103.137 207.935ZM108.558 201.764C108.142 202.214 106.774 203.541 106.265 203.969C108.585 204.228 113.82 202.374 115.811 200.153C113.961 200.995 111.237 201.75 108.558 201.764ZM116.011 194.904C115.869 197.567 114.972 199.264 114.003 200.393C114.807 200.131 115.61 199.958 116.413 199.59C116.336 198.117 116.2 196.377 116.011 194.904Z" fill="#DFDDE2"/>
<path fill-rule="evenodd" clip-rule="evenodd" d="M190.633 236.002C192.944 236.567 195.758 235.056 197.105 235.028C197.734 236.266 197.977 237.613 200.561 238.484C198.856 240.377 192.448 241.004 190.633 236.002Z" fill="#F6D155"/>
<path fill-rule="evenodd" clip-rule="evenodd" d="M216.45 246.489C215.599 247.329 214.657 248.224 213.043 249.19C215.933 251.82 221.813 248.867 221.584 246.319C221.059 245.31 219.364 247.488 216.45 246.489Z" fill="#F6D155"/>
<path fill-rule="evenodd" clip-rule="evenodd" d="M227.716 237.267C227.766 240.692 227.325 241.591 226.938 242.766C228.585 243.887 232.841 241.223 233.288 237.194C232.842 236.238 231.034 237.905 227.716 237.267Z" fill="#F6D155"/>
<path fill-rule="evenodd" clip-rule="evenodd" d="M235.527 218.336C234.303 218.644 235.033 222.806 233.629 224.127C234.781 224.766 235.561 226.298 236.403 227.68C239.104 225.634 239.004 219.808 235.527 218.336Z" fill="#F6D155"/>
<path fill-rule="evenodd" clip-rule="evenodd" d="M193.579 235.612C194.875 235.221 196.279 234.561 196.791 234.736C197.574 231.974 195.737 233.579 193.579 235.612ZM191.754 233.398C194.291 233.372 197.842 233.805 198.713 230.43C202.64 232.317 206.757 228.686 205.843 225.344C205.843 225.344 204.575 231.117 196.45 227.461C194.826 227.224 192.579 228.25 192.727 229.359C192.836 230.773 195.621 231.977 191.754 233.398ZM213.24 230.575C215.302 232.664 216.619 234.6 216.16 236.172C217.436 234.328 217.559 235.44 217.839 236.147C219.361 237.321 220.502 240.877 216.695 243.18C218.482 243.665 218.631 245.259 216.671 245.832C216.756 247.517 221.251 245.418 221.659 246.1C222.009 245.947 222.125 245.444 222.219 244.908C222.598 244.392 222.642 243.793 222.243 243.082C225.147 238.254 221.542 235.613 218.472 235.077C216.588 233.11 214.94 231.931 213.24 230.575ZM213.386 225.368C216.481 227.325 220.693 228.853 224.677 231.451C228.66 227.482 231.599 234.036 225.893 234.469C227.334 237.123 233.415 236.949 233.242 234.833C237.028 227.658 226.762 225.9 224.725 228.483C221.617 226.729 218.775 224.761 214.311 223.932C223.149 227.73 224.667 228.921 223.122 229.127C221.715 229.314 216.767 226.508 213.386 225.368ZM216.105 219.849C218.533 218.79 223.801 218.936 225.217 217.668C227.541 213.436 231.852 214.556 233.224 217.31C234.205 217.3 234.939 217.513 235.047 218.296C234.143 220.3 234.722 225.206 232.178 224.002C232.643 223.644 232.415 223.285 232.178 222.927C231.097 224.014 231.09 222.774 231.073 222.269C229.445 224.179 228.621 223.864 227.428 223.584C227.717 223.465 227.846 223.145 227.816 222.628C232.574 220.786 228.446 215.203 224.59 220.417C223.281 220.808 218.098 219.644 216.105 219.849ZM178.011 193.05L177.832 193.617C179.792 195.394 196.751 214.07 201.793 222.06C201.039 220.364 201.356 219.663 198.358 216.085C206.031 220.386 209.803 216.569 209.352 215.726C208.727 215.8 208.323 215.886 207.986 215.71C200.896 219.328 195.637 213.33 192.502 209.363C196.466 212.526 199.075 213.092 203.198 213.336C203.607 212.618 203.662 212.255 203.765 211.842C203.406 211.775 203.06 211.679 202.779 211.454C197.956 213.276 192.163 209.616 187.632 203.477C191.944 206.574 195.031 206.275 197.969 206.315C198.424 205.794 199.046 205.34 199.134 204.672C198.72 204.704 198.397 204.553 198.059 204.433C195.029 205.487 187.608 205.13 184.046 198.906C186.519 200.565 189.268 201.545 192.771 200.668C193.467 200.133 194.225 199.607 194.384 198.995C190.043 200.095 185.82 200.079 181.955 196.665C183.055 196.676 184.212 196.283 185.391 195.739C183.112 195.929 180.762 195.694 178.011 193.05Z" fill="#DFDDE2"/>
<path fill-rule="evenodd" clip-rule="evenodd" d="M125.391 60.0101C133.821 64.5179 143.534 54.2186 150.348 59.8143C151.085 59.8569 151.183 59.3077 151.065 58.837C143.141 51.7332 134.701 62.1937 125.391 60.0101Z" fill="#C3BDC9"/>
<path fill-rule="evenodd" clip-rule="evenodd" d="M122.318 189.465L121.652 190.168C120.833 193.869 118.894 196.824 116.648 199.653C118.702 199.986 121.223 198.826 123.663 197.771C122.147 194.94 121.822 193.054 122.318 189.465Z" fill="#C3BDC9"/>
<path fill-rule="evenodd" clip-rule="evenodd" d="M124.678 184.535C125.849 186.86 128.082 183.052 129.159 182.025C127.749 187.058 124.943 192.147 131.072 196.875C127.934 197.193 127.058 198.552 129.966 201.655C124.288 198.86 121.082 194.226 124.678 184.535Z" fill="#DFDDE2"/>
<path fill-rule="evenodd" clip-rule="evenodd" d="M129.4 181.786C127.443 191.726 130.668 195.608 133.911 196.546C132.67 185.804 136.96 178.129 142.904 172.255C142.506 162.245 141.102 157.752 140.006 150.535C140.085 153.878 142.454 163.032 140.845 169.433C139.173 176.086 134.409 182.547 129.4 181.786Z" fill="#CECAD5"/>
<path fill-rule="evenodd" clip-rule="evenodd" d="M109.652 192.034C115.291 192.41 119.877 190.629 123.605 186.806C121.561 191.796 116.915 194.134 110.011 193.438C112.508 192.989 112.571 192.563 109.652 192.034Z" fill="#C3BDC9"/>
<path fill-rule="evenodd" clip-rule="evenodd" d="M108.961 186.324C108.423 187.165 107.994 187.57 107.566 187.971C116.462 189.129 121.423 184.879 124.763 181.169C129.692 181.45 133.093 178.251 136.045 175C132.723 177.63 129.318 179.797 125.439 179.31C121.629 184.85 116.263 187.429 108.961 186.324Z" fill="#C3BDC9"/>
<path fill-rule="evenodd" clip-rule="evenodd" d="M112.425 179.563C111.761 180.95 111.549 180.927 111.199 181.38C114.214 182.006 118.344 180.835 125.396 174.957C132.366 174.794 135.284 170.223 137.269 168.239C133.564 171.44 129.805 173.137 125.988 173.183C122.29 176.956 118.24 180.025 112.425 179.563Z" fill="#C3BDC9"/>
<path fill-rule="evenodd" clip-rule="evenodd" d="M114.748 173.986L113.48 175.972C115.907 175.836 119.101 175.936 125.903 169.676C131.138 168.571 135.822 164.654 139.931 157.803C136.516 162.013 133.397 166.527 126.494 167.141C124.735 171.174 120.08 172.855 114.748 173.986Z" fill="#C3BDC9"/>
<path fill-rule="evenodd" clip-rule="evenodd" d="M172.084 182.267C171.612 185.879 170.805 189.156 169.211 191.647C169.381 192.83 169.346 194.013 169.295 195.196C171.735 192.711 173.53 185.637 172.084 182.267Z" fill="#C3BDC9"/>
<path fill-rule="evenodd" clip-rule="evenodd" d="M175.632 183.999C178.257 190.815 175.904 199.882 167.52 201.449C170.112 202.525 177.883 198.979 178.97 188.436L185.35 195.619C185.694 193.967 185.922 192.299 184.716 189.872C179.669 188.81 178.054 186.826 175.632 183.999Z" fill="#C3BDC9"/>
<path fill-rule="evenodd" clip-rule="evenodd" d="M179.773 186.196C183.204 187.695 189.188 189.904 195.196 187.295C196.097 187.666 196.998 187.951 197.9 188.097C195.858 190.236 190.116 190.75 184.844 190.041C192.104 189.09 181.09 188.258 179.773 186.196Z" fill="#C5BDCB"/>
<path fill-rule="evenodd" clip-rule="evenodd" d="M167.816 174.027C170.307 175.789 173.101 176.855 176.267 176.816C178.63 181.306 185.524 182.554 189.407 182.351C189.583 182.964 189.994 183.498 190.506 183.999C187.261 184.013 183.107 182.958 176.732 178.929C175.015 178.335 168.942 175.511 167.816 174.027Z" fill="#C3BDCA"/>
<path fill-rule="evenodd" clip-rule="evenodd" d="M166.508 167.31C168.99 169.363 171.73 170.452 174.663 170.816C177.674 174.019 181.214 175.67 185.859 176.267L186.831 177.957C185.373 178.104 178.307 174.941 175.719 172.549C171.382 171.471 168.128 169.319 166.508 167.31Z" fill="#C3BDC9"/>
<path fill-rule="evenodd" clip-rule="evenodd" d="M167.055 161.901C169.924 164.716 173.199 165.861 175.843 165.873C177.827 167.953 179.661 170.1 183.829 171.197C184.031 171.765 184.275 172.248 184.589 172.592C181.451 172.537 177.14 168.184 176.604 167.479C172.393 166.875 167.61 164.751 167.055 161.901Z" fill="#C3BDC9"/>
<path fill-rule="evenodd" clip-rule="evenodd" d="M142.012 149.153C142.921 148.804 143.341 148.292 143.79 147.789C144.548 148.829 145.631 149.058 146.696 149.331C144.671 149.26 144.415 150.213 145.391 151.88C145.806 152.546 146.517 162.521 146.696 168.541C146.718 174.118 147.466 177.74 148.593 180.162C144.185 176.449 146.63 153.991 142.012 149.153Z" fill="#DFDDE2"/>
<path fill-rule="evenodd" clip-rule="evenodd" d="M149.363 149.568C151.828 149.337 154.265 149.198 157.19 147.434L158.257 148.679C156.159 153.256 154.978 164.065 153.632 173.759C154.018 167.589 154.144 162.081 153.81 160.537C153.135 157.054 153.27 154.935 153.336 154.371C154.666 149.532 151.015 150.715 149.363 149.568Z" fill="#CECAD5"/>
<path fill-rule="evenodd" clip-rule="evenodd" d="M159.205 149.212L159.502 149.509C155.346 158.571 159.522 179.351 150.549 189.826L150.371 185.794C157.17 181.308 155.467 158.404 159.205 149.212Z" fill="#C3BDC9"/>
<path fill-rule="evenodd" clip-rule="evenodd" d="M144.204 171.564C144.158 186.407 146.602 189.215 136.496 201.566C141.204 197.642 146.469 185.629 145.805 192.495C146.997 190.292 148.151 188.102 148.414 186.21C144.516 179.546 144.687 175.687 144.204 171.564Z" fill="#C3BDC9"/>
<path fill-rule="evenodd" clip-rule="evenodd" d="M152.389 187.929L150.492 190.182L151.026 209.807C151.268 201.663 151.674 194.179 152.389 187.929Z" fill="#C3BDC9"/>
<path fill-rule="evenodd" clip-rule="evenodd" d="M156.895 173.699C156.378 176.733 156.036 180.378 155.234 182.415C156.605 198.118 160.876 199.626 164.424 201.032C158.505 192.639 157.336 181.372 156.895 173.699Z" fill="#DFDDE2"/>
<path fill-rule="evenodd" clip-rule="evenodd" d="M145.512 194.273C143.677 198.422 144.283 206.39 139.108 211.586C143.4 209.387 145.03 204.055 145.156 199.906L145.571 204.294C144.147 213.287 140.063 215.736 137.211 216.271C137.663 216.145 142.14 217.091 146.253 207.97C146.388 211.283 144.061 214.972 141.035 216.211C143.68 216.299 146.303 213.869 147.646 212.002C145.475 205.588 145.435 199.911 145.512 194.273Z" fill="#E0DEE2"/>
<path fill-rule="evenodd" clip-rule="evenodd" d="M147.496 207.762C147.939 209.916 148.57 213.056 150.994 216.093L151.172 219.887C152.284 218.428 156.578 206.268 156.657 202.278C156.817 201.013 156.887 199.545 157.813 200.499C157.931 200.587 158.05 200.589 158.168 200.44C156.867 199.551 155.497 195.16 154.463 193.71C155.234 198.459 155.837 205.183 150.994 215.203C149.533 213.461 148.49 210.673 147.496 207.762Z" fill="#C3BDC9"/>
<path fill-rule="evenodd" clip-rule="evenodd" d="M168.209 215.483C162.991 218.163 158.499 211.699 156.344 207.685L157.312 202.204C157.333 202.023 157.718 201.887 157.891 202.131C158.751 208.165 162.568 215.207 168.209 215.483Z" fill="#DFDDE2"/>
<path fill-rule="evenodd" clip-rule="evenodd" d="M155.411 209.777L154.848 211.438C156.861 215.901 159.231 217.453 162.318 218.582C156.255 215.596 155.843 212.687 155.411 209.777Z" fill="#DFDDE1"/>
<path fill-rule="evenodd" clip-rule="evenodd" d="M149.602 217.427L151.202 220.183L152.418 217.486C152.19 224.761 151.717 233.548 151.499 241.647C150.831 233.524 149.917 225.056 149.602 217.427Z" fill="#DFDDE2"/>
<path fill-rule="evenodd" clip-rule="evenodd" d="M154.283 212.891C154.135 213.306 153.987 213.698 153.839 213.958C159.22 233.916 152.886 244.559 151.467 246.123C147.738 239.506 147.781 232.989 146.961 227.417C147.441 232.414 146.895 238.911 151.23 247.012L151.289 250.303C156.573 243.718 159.782 234.577 155.677 214.758C155.084 214.264 154.736 213.525 154.283 212.891Z" fill="#C3BDC9"/>
<path fill-rule="evenodd" clip-rule="evenodd" d="M149.512 248.494C149.963 249.218 150.354 249.952 151.261 250.599C152.429 249.379 152.681 248.77 153.188 247.99C152.203 253.286 151.756 258.448 151.053 263.673C150.569 258.507 150.21 252.876 149.512 248.494Z" fill="#DFDDE2"/>
<path fill-rule="evenodd" clip-rule="evenodd" d="M158.971 249.355C157.83 246.807 156.48 244.615 157.34 241.795C157.176 240.926 156.815 240.793 156.421 240.609C156.181 242.115 155.648 243.183 155.176 244.226C157.197 256.354 154.328 262.879 150.996 268.357C145.535 261.005 146.55 253.081 146.46 246.301C144.869 260.065 148.194 266.119 150.937 269.247L150.967 272.596C158.745 261.167 157.978 250.554 156.243 245.501C157.104 246.818 157.889 248.185 158.971 249.355Z" fill="#C3BDC9"/>
<path fill-rule="evenodd" clip-rule="evenodd" d="M129.5 214.55C130.543 224.549 143.236 221.52 148.384 213.957L147.91 212.594C143.11 218.814 132.876 224.344 129.5 214.55Z" fill="#C4BEC9"/>
<path fill-rule="evenodd" clip-rule="evenodd" d="M147.198 218.227C142.541 227.889 136.933 234.77 129.203 235.451C134.469 235.871 140.108 231.593 141.862 229.729C143.128 227.531 144.769 226.749 143.166 229.699C142.545 230.735 141.926 231.491 140.943 232.427C142.188 231.922 144.767 227.941 145.301 227.595C145.52 223.41 146.467 221.095 147.198 218.227Z" fill="#DFDDE2"/>
<path fill-rule="evenodd" clip-rule="evenodd" d="M145.277 227.935C145.187 229.037 145.09 230.152 145.109 231.037C137.77 238.576 131.429 240.964 124.691 239.38C130.254 239.53 136.702 240.121 145.277 227.935Z" fill="#C3BECA"/>
<path fill-rule="evenodd" clip-rule="evenodd" d="M121.505 232.295C119.889 228.286 120.494 225.054 123.35 222.61C117.59 222.489 111.345 233.203 122.008 238.626C116.672 235.509 116.403 229.005 118.144 226.869C119.307 225.013 121.017 224.494 119.828 226.573C119.003 229.918 120.504 231.625 121.505 232.295Z" fill="#DFDDE2"/>
<path fill-rule="evenodd" clip-rule="evenodd" d="M156.012 215.357C157.102 217.104 158.444 218.599 160.204 219.676C159.725 229.455 170.483 235.939 177.771 233.175C173.584 236.239 159.786 235.492 156.012 215.357Z" fill="#DFDDE2"/>
<path fill-rule="evenodd" clip-rule="evenodd" d="M157.602 227.642V228.816C162.652 237.223 171.146 237.529 173.743 237.2C165.812 237.05 160.844 233.373 157.602 227.642Z" fill="#C4C0CD"/>
<path fill-rule="evenodd" clip-rule="evenodd" d="M179.613 221.521C186.311 226.166 184.461 233.391 177.266 236.404C182.802 232.76 185.522 228.041 179.613 221.521Z" fill="#E1DFE3"/>
<path fill-rule="evenodd" clip-rule="evenodd" d="M171.773 238.458C178.136 239.619 188.902 234.626 183.135 223.49C188.969 230.264 182.445 242.431 171.773 238.458Z" fill="#C3BDC9"/>
<path fill-rule="evenodd" clip-rule="evenodd" d="M157.646 234.35C157.59 234.98 157.557 235.37 157.395 236.404C162.842 247.275 165.883 247.991 169.427 250.826C162.827 245.894 159.453 240.286 157.646 234.35Z" fill="#E0DEE3"/>
<path fill-rule="evenodd" clip-rule="evenodd" d="M166.574 254.767C167.727 255.279 168.618 254.904 169.551 255.229C177.879 258.13 188.188 253.183 185.105 243.112C190.555 248.423 180.528 263.679 166.574 254.767Z" fill="#C4BECB"/>
<path fill-rule="evenodd" clip-rule="evenodd" d="M181.208 240.177C187.517 246.432 181.037 255.085 172.613 252.125C181.539 253.33 184.841 245.93 181.208 240.177Z" fill="#C3BECA"/>
<path fill-rule="evenodd" clip-rule="evenodd" d="M119.957 240.135C111.328 245.816 116.093 252.851 120.082 254.473C118.565 253.355 116.947 249.432 121.676 251.622C123.232 252.29 124.618 252.361 125.952 252.251C117.122 249.351 119.083 244.652 119.957 240.135Z" fill="#DFDDE2"/>
<path fill-rule="evenodd" clip-rule="evenodd" d="M145.193 232.211C145.402 235.166 145.726 237.543 146.158 239.38C143.386 244.918 140.041 248.611 136.599 251.245C140.637 247.339 143.753 243.426 145.11 239.296C138.08 250.266 133.208 251.952 128.172 252.209C134.436 250.829 143.584 245.42 145.193 232.211Z" fill="#DFDDE2"/>
<path fill-rule="evenodd" clip-rule="evenodd" d="M146.243 239.8C146.436 240.687 146.644 241.564 147.165 242.231C138.31 259.308 126.477 258.817 122.43 257.408C130.097 258.201 127.429 256.816 124.945 256.36C134.032 256.651 142.057 250.484 146.243 239.8Z" fill="#C3BEC9"/>
<path fill-rule="evenodd" clip-rule="evenodd" d="M138.949 145.79C140.092 145.018 140.636 144.096 141.3 143.164C141.545 143.631 142.004 144.037 142.583 144.448C140.907 144.996 140.321 147.465 139.378 147.478C139.228 146.929 139.223 146.339 138.949 145.79Z" fill="#C4BECA"/>
<path fill-rule="evenodd" clip-rule="evenodd" d="M142.68 144.483C145.188 145.426 147.75 145.304 150.918 143.079C151.199 143.37 151.599 143.72 151.987 144.064C148.962 146.221 144.009 145.666 142.68 144.483Z" fill="#C3BDC9"/>
<path fill-rule="evenodd" clip-rule="evenodd" d="M153.391 144.462C155.171 144.763 156.916 145.167 159.239 143.896C159.575 144.342 159.91 144.693 160.245 145.028C159.487 145.789 155.68 145.679 153.391 144.462Z" fill="#C3BDC9"/>
<path fill-rule="evenodd" clip-rule="evenodd" d="M160.749 139.703C161.322 140.055 162.351 141.084 163.348 141.674C162.608 142.714 161.867 143.896 161.126 145.216C157.822 142.35 160.14 139.33 160.749 139.703Z" fill="#C3BDC9"/>
<path fill-rule="evenodd" clip-rule="evenodd" d="M136.641 140.521C137.113 141.181 137.445 141.654 137.752 142.093C139.771 140.691 140.453 139.182 141.106 137.67C140.81 137.501 140.528 137.258 140.288 136.811C138.696 139.63 137.693 139.972 136.641 140.521Z" fill="#C3BDC9"/>
<path fill-rule="evenodd" clip-rule="evenodd" d="M141.254 137.754L141.023 138.195C145.012 140.482 151.488 142.198 159.722 138.027L158.904 136.35C153.57 140.525 147.538 141.229 141.254 137.754Z" fill="#C3BDC9"/>
<path fill-rule="evenodd" clip-rule="evenodd" d="M160.391 137.733C162.74 137.29 161.925 134.366 164.101 133.478C167.666 138.84 173.758 137.448 176.238 133.373L176.637 136.392C174.286 137.886 171.165 140.481 165.967 138.069C165.557 138.937 165.465 140.302 165.443 141.779C163.164 141.025 161.331 139.826 160.391 137.733Z" fill="#C3BDC9"/>
<path fill-rule="evenodd" clip-rule="evenodd" d="M167.604 127.776C168.508 129.522 167.662 133.498 167.709 134.799C165.974 134.561 165.012 133.146 164.082 131.969C164.265 131.935 164.388 131.883 164.459 131.738C164.674 130.647 166.701 130.144 167.604 127.776Z" fill="#C3BDC9"/>
<path fill-rule="evenodd" clip-rule="evenodd" d="M151.966 132.681L151.777 132.932C154.511 133.926 160.178 134.425 164.208 131.695L163.495 130.417C160.679 132.825 157.069 133.954 151.966 132.681Z" fill="#C3BECA"/>
<path fill-rule="evenodd" clip-rule="evenodd" d="M150.369 131.759C150.869 132.151 151.351 132.47 151.795 132.64C148.043 136.072 142.626 135.137 137.163 132.262C137.219 132.095 137.175 131.927 137.121 131.759C143.431 135.177 147.838 134.21 150.369 131.759Z" fill="#C3BDC9"/>
<path fill-rule="evenodd" clip-rule="evenodd" d="M136.848 131.737C138.176 133.838 134.806 134.519 134.794 137.649L133.473 135.972C133.418 133.922 136.159 134.251 136.848 131.737Z" fill="#C3BEC9"/>
<path fill-rule="evenodd" clip-rule="evenodd" d="M133.182 135.343L130.604 131.423C127.889 127.887 136.864 127.184 135.886 120.564C136.459 121.017 137.032 121.603 137.605 121.906C137.277 127.237 132.61 127.096 132.532 130.752C131.936 130.526 131.634 129.971 131.484 129.243C131.253 129.417 131.201 129.435 130.96 129.683C129.829 131.074 131.495 131.863 133.182 135.343Z" fill="#C3BEC9"/>
<path fill-rule="evenodd" clip-rule="evenodd" d="M135.637 128.163C138.258 128.538 140.836 128.162 143.3 125.821C143.723 126.231 144.054 126.663 144.619 127.037C141.478 128.95 137.268 129.21 135.637 128.163Z" fill="#C3BDC9"/>
<path fill-rule="evenodd" clip-rule="evenodd" d="M144.738 127.126L144.441 127.363C148.791 129.854 154.865 129.837 158.138 127.6C157.674 127.332 157.278 126.997 156.893 126.651C152.999 129.513 147.136 128.591 144.738 127.126Z" fill="#C4BECA"/>
<path fill-rule="evenodd" clip-rule="evenodd" d="M158.242 127.6L158.02 127.882C161.111 129.082 164.929 128.964 167.61 127.541C167.427 127.032 167.223 126.539 166.884 126.147C163.979 128.437 161.108 128.241 158.242 127.6Z" fill="#C4BEC9"/>
<path fill-rule="evenodd" clip-rule="evenodd" d="M138.066 122.221C142.605 124.529 147.557 122.994 150.267 120.606C150.728 121.192 151.189 121.532 151.65 121.843C148.266 124.812 139.56 124.44 138.066 122.221Z" fill="#C4BEC9"/>
<path fill-rule="evenodd" clip-rule="evenodd" d="M151.817 121.906L151.586 122.116C155.675 124.91 161.92 123.223 163.576 122.137C163.367 121.48 163.157 120.907 162.948 120.418C160.075 122.875 155.8 123.68 151.817 121.906Z" fill="#C3BDC9"/>
<path fill-rule="evenodd" clip-rule="evenodd" d="M126.578 116.121L127.165 116.456C127.789 115.563 128.302 115.348 128.56 115.702C128.817 116.056 128.344 116.712 129.01 117.295C131.124 115.614 135.97 114.5 136.556 112.012C137.447 114.504 140.467 114.575 142.929 118.888C142.347 115.613 138.988 114.717 137.611 112.515C136.234 110.314 137.049 107.559 138.149 104.005C135.865 107.099 137.665 111.494 133.938 113.46C131.572 114.708 127.06 114.433 126.578 116.121Z" fill="#C3BDC9"/>
<path fill-rule="evenodd" clip-rule="evenodd" d="M146.157 100.566L146.283 103.501C142.407 105.017 145.428 114.715 143.893 116.833C143.28 108.558 139.873 105.58 146.157 100.566Z" fill="#C3BDC9"/>
<path fill-rule="evenodd" clip-rule="evenodd" d="M149.302 107.61H149.763C150.266 113.033 155.953 113.549 156.932 118.888C155.723 115.187 152.493 114.108 150.769 112.138C149.777 116.281 144.775 117.512 143.516 119.852C143.171 117.925 150.416 115.226 149.302 107.61Z" fill="#C3BDC9"/>
<path fill-rule="evenodd" clip-rule="evenodd" d="M157.895 102.411C154.915 107.127 160.848 110.162 157.644 118.007C159.311 107.747 152.147 108.585 156.68 101.153C158.251 102.68 163.636 104.229 164.142 106.813C162.332 104.259 159.543 104.065 157.895 102.411Z" fill="#C3BDC9"/>
<path fill-rule="evenodd" clip-rule="evenodd" d="M164.101 107.484C164.662 109.298 165.162 110.019 165.611 111.215C163.977 116.548 157.532 118.405 157.184 120.355C156.069 117.863 164.141 116.474 164.101 107.484Z" fill="#C3BDC9"/>
<path fill-rule="evenodd" clip-rule="evenodd" d="M170.223 102.033C169.208 101.818 168.238 102.004 167.121 100.859C167.311 102.585 167.027 103.598 166.785 104.675C168.897 105.891 170.291 117.209 171.145 117.713C170.71 112.846 170.906 106.439 167.959 102.956L168.085 102.369C168.978 102.691 169.665 102.604 170.223 102.033Z" fill="#C3BDC9"/>
<path fill-rule="evenodd" clip-rule="evenodd" d="M130.688 110.88C132.708 107.851 134.461 104.325 137.055 102.512C139.648 100.699 141.279 101.396 146.493 97.1286L148.464 91.9717C144.064 98.435 138.871 102.861 131.358 101.321C131.806 101.574 132.055 102.193 135.132 102.369C133.539 103.912 132.17 107.244 130.688 110.88Z" fill="#C3BDC9"/>
<path fill-rule="evenodd" clip-rule="evenodd" d="M129.598 96.5837C133.538 98.5579 138.353 99.5671 146.619 87.7795C148.376 87.2982 150.089 86.3443 151.734 84.6348C146.418 97.4073 131.303 105.215 129.598 96.5837Z" fill="#DFDDE2"/>
<path fill-rule="evenodd" clip-rule="evenodd" d="M147.207 103.963C153.513 80.186 172.64 65.9819 156.095 53.3174C168.094 74.1065 149.003 82.8991 147.207 103.963Z" fill="#F1EEF0"/>
<path fill-rule="evenodd" clip-rule="evenodd" d="M142.637 83.3775C142.963 89.6233 150.86 84.9917 152.741 80.9043C149.543 83.0621 146.377 85.0095 142.637 83.3775Z" fill="#DFDDE2"/>
<path fill-rule="evenodd" clip-rule="evenodd" d="M154.499 73.6927C155.225 72.6211 155.36 73.611 156.596 73.9022C153.706 79.9248 148.817 81.5699 146.156 81.7002C149.763 79.8274 153.078 77.6726 154.499 73.6927Z" fill="#DFDDE2"/>
<path fill-rule="evenodd" clip-rule="evenodd" d="M152.566 63.6258L153.189 64.248C154.059 64.212 154.928 64.2211 155.798 63.4184C155.81 64.1755 155.525 64.5148 155.146 64.7227C155.634 69.1027 155.151 71.6572 154.544 73.6111C155.303 72.8407 155.923 73.9463 156.607 73.8951C157.698 72.1764 159.565 66.201 156.569 61.0166C156.653 62.506 155.046 64.0391 152.566 63.6258Z" fill="#C3BDC9"/>
<path fill-rule="evenodd" clip-rule="evenodd" d="M142.281 61.7232C147.065 59.7759 149.798 63.202 151.945 63.5261C155.358 68.5476 151.821 72.9196 149.534 75.6007C151.054 72.9987 153.28 62.5509 142.281 61.7232Z" fill="#C3BDC9"/>
<path fill-rule="evenodd" clip-rule="evenodd" d="M146.578 106.729C151.787 109.171 154.211 103.244 156.682 100.944C155.451 98.125 155.806 95.811 155.718 93.3555C151.192 95.8161 151.319 104.744 146.578 106.729Z" fill="#CECAD5"/>
<path fill-rule="evenodd" clip-rule="evenodd" d="M164.376 64.8047C163.948 65.0009 163.911 66.679 163.327 66.6491C162.965 78.6366 152.056 85.3002 149.492 102.621C151.084 100.765 152.229 93.4574 156.324 86.7415C160.598 79.7315 164.797 75.7972 164.376 64.8047Z" fill="#CECAD5"/>
<path fill-rule="evenodd" clip-rule="evenodd" d="M158.79 87.4609C154.443 99.1735 163.056 99.2684 163.8 103.084C154.874 100.085 154.248 93.5789 158.79 87.4609Z" fill="#DFDDE2"/>
<path fill-rule="evenodd" clip-rule="evenodd" d="M160.393 53.8721C174.834 63.2615 162.445 82.2128 157.043 87.312C159.181 82.5247 172.199 69.3475 160.393 53.8721Z" fill="#DFDDE2"/>
<path fill-rule="evenodd" clip-rule="evenodd" d="M165.255 48.6846C166.735 51.3982 169.116 55.6733 165.611 54.8213C171.753 68.4559 165.015 75.4639 161.634 83.0454C154.506 101.617 166.305 94.2524 164.929 107.205C168.941 102.521 163.719 95.7231 163.945 93.3812C163.656 89.9789 165.802 82.6285 166.5 78.1821C167.356 80.6341 168.669 82.1204 170.235 83.0733C167.478 73.4186 176.091 54.3887 165.255 48.6846Z" fill="#CECAD5"/>
<path fill-rule="evenodd" clip-rule="evenodd" d="M166.678 80.6416C167.372 81.6027 167.862 82.699 168.991 83.3694C169.57 87.1481 164.265 99.1279 172.252 100.03C165.754 103.271 162.214 93.971 166.678 80.6416Z" fill="#CECAD5"/>
<path fill-rule="evenodd" clip-rule="evenodd" d="M163.18 44.9322C164.538 45.029 167.783 47.3071 170.81 44.8906C172.89 47.7178 169.016 50.111 164.943 47.9952C163.88 47.3137 167.252 46.9977 163.18 44.9322Z" fill="#C3BDC9"/>
<path fill-rule="evenodd" clip-rule="evenodd" d="M139.078 45.957C140.3 47.3126 141.547 48.0145 142.695 51.293C143.545 51.3022 144.395 51.4031 145.244 51.649C143.812 49.3776 142.077 47.2878 139.078 45.957Z" fill="#DFDDE2"/>
<path fill-rule="evenodd" clip-rule="evenodd" d="M152.211 42.0135C164.778 45.3626 163.595 39.5316 165.848 38.6934C168.079 42.2605 161.952 46.8885 152.211 42.0135Z" fill="#C3BDC9"/>
<path fill-rule="evenodd" clip-rule="evenodd" d="M136.853 44.5041C136.142 44.2601 135.486 44.3048 135.074 44.356C136.192 35.352 146.174 41.0698 151.557 44.4452C144.763 41.1905 136.247 37.0534 136.853 44.5041Z" fill="#C3BEC9"/>
<path fill-rule="evenodd" clip-rule="evenodd" d="M136.883 44.5035C136.324 34.2666 151.075 45.96 157.901 46.3712C153.151 46.9098 137.505 36.496 137.594 44.6815L136.883 44.5035Z" fill="#F1EEF0"/>
<path fill-rule="evenodd" clip-rule="evenodd" d="M137.832 44.8008L139.077 45.275C139.199 44.3799 139.541 43.3499 139.996 43.2591C142.892 42.6841 140.177 44.2065 140.648 44.6821C141.194 45.0676 141.803 45.453 142.427 45.8384C142.457 45.4033 142.486 44.8901 142.516 44.2967C142.566 41.9649 149.259 45.7197 153.959 47.2614C154.478 48.6514 151.351 50.3964 148.89 49.9C151.127 51.6688 155.844 50.8097 157.872 47.9136C161.486 48.1879 162.282 47.5966 163.09 46.698C160.328 46.1254 159.053 47.484 152.132 45.5721C145.774 43.7485 138.009 38.3283 137.832 44.8008Z" fill="#C3BDC9"/>
<path fill-rule="evenodd" clip-rule="evenodd" d="M143.582 43.6446C144.362 43.57 145.074 43.8332 145.776 44.1487C144.367 46.3303 146.432 48.4116 147.584 48.0916C147.974 48.4471 148.372 48.8031 149.689 49.1586C147.829 49.547 141.606 47.6296 143.582 43.6446Z" fill="#B6B1BF"/>
<path fill-rule="evenodd" clip-rule="evenodd" d="M127.131 56.2439C120.158 42.8289 140.332 40.4602 142.376 51.5596C142.376 51.5596 147.379 51.7615 151.796 54.1094C160.404 60.3552 155.175 63.9289 153.441 63.6419C149.43 63.7119 148.676 59.8597 142.821 61.3309C141.414 61.8563 141.338 62.5795 140.709 62.5582C137.218 61.6712 143.619 54.6617 150.492 59.7122C151.105 60.1625 152.443 59.2826 151.263 57.9631C146.654 53.3112 138.666 55.8676 136.914 56.3033C134.683 52.6849 129.747 53.5131 127.131 56.2439Z" fill="#F6D155"/>
<path fill-rule="evenodd" clip-rule="evenodd" d="M147.14 45.3047C148.017 46.0045 152.462 46.7262 152.565 47.1425C151.141 50.5012 146.49 49.4647 147.14 45.3047Z" fill="#AAA3B5"/>
<path fill-rule="evenodd" clip-rule="evenodd" d="M176.931 136.203C176.899 136.264 176.832 136.3 176.931 136.454C177.989 136.977 179.297 137.291 180.83 137.418L184.477 158.926C184.2 153.329 183.81 147.546 183.681 142.198C183.273 141.171 182.973 139.277 182.675 137.376C183.136 137.327 183.597 137.253 184.058 137.125C186.368 150.719 192.018 153.455 193.114 154.524C190.125 151.38 186.088 146.959 184.771 136.832C186.773 135.715 187.685 134.359 188.334 134.148C188.535 133.574 188.407 132.203 188.125 131.549C186.113 133.471 184.297 135.734 180.243 135.406C179.971 135.384 180.243 135.783 180.243 135.783C181.811 137.883 178.64 136.596 176.931 136.203Z" fill="#C3BDC9"/>
<path fill-rule="evenodd" clip-rule="evenodd" d="M184.73 161.232L184.898 164.502C186.921 163.197 188.819 162.796 191.522 156.578C192.626 167.599 192.768 178.313 199.195 180.518C195.873 172.945 195.867 164.629 195.631 156.62C195.24 157.124 194.848 157.487 194.457 157.836C191.813 156.306 191.002 155.082 189.594 153.686C188.709 156.432 188.266 159.318 184.73 161.232Z" fill="#CECAD5"/>
<path fill-rule="evenodd" clip-rule="evenodd" d="M189.504 134.597C190.392 134.925 191.393 135.028 192.439 135.041L193.565 151.05L189.504 134.597Z" fill="#DFDDE2"/>
<path fill-rule="evenodd" clip-rule="evenodd" d="M197.121 133.441L197.655 133.056C198.959 135.995 200.72 138.593 203.288 140.585L210.195 187.07L200.204 140.467C200.156 148.494 197.937 153.819 194.335 157.424L193.949 154.371C197.733 149.222 200.009 143.063 197.121 133.441Z" fill="#C3BDC9"/>
<path fill-rule="evenodd" clip-rule="evenodd" d="M207.677 144.113C208.725 144.746 209.93 145.259 211.294 145.654C215.487 159.677 217.07 187.319 211.561 197.327L211.086 193.532C201.444 186.162 199.04 165.626 197.094 154.133L197.39 153.57C199.25 164.069 201.444 184.282 210.879 192.495C212.579 187.119 216.25 171.616 209.663 145.773C209.177 145.22 208.383 144.667 207.677 144.113Z" fill="#C4BEC9"/>
<path fill-rule="evenodd" clip-rule="evenodd" d="M201.777 129.171C202.607 129.07 203.065 129.128 204.386 128.815L213.576 142.541L201.777 129.171Z" fill="#DFDDE2"/>
<path fill-rule="evenodd" clip-rule="evenodd" d="M211.648 145.773C212.98 146.229 214.672 146.612 216.392 146.989C216.443 147.408 229.837 181.849 239.189 184.491C227.233 186.865 221.226 165.894 213.427 153.511C212.872 150.894 212.283 148.312 211.648 145.773Z" fill="#DFDDE2"/>
<path fill-rule="evenodd" clip-rule="evenodd" d="M210.095 125.051C209.981 125.23 209.867 125.41 209.676 125.512C215.124 133.951 215.258 139.094 214.539 143.707L216.761 146.6C217.868 140.145 216.672 135.383 215.126 130.878L242.252 170.288L218.27 131.926L223.343 132.639C219.115 131.221 214.835 130.735 210.095 125.051Z" fill="#C3BDC9"/>
<path fill-rule="evenodd" clip-rule="evenodd" d="M226.443 132.73C227.479 132.738 228.41 132.677 229.111 132.463C234.485 141.22 248.339 157.13 246.72 178.769L245.031 175.478C232.176 172.509 223.236 156.358 218.676 149.805C226.202 159.728 234.729 172.671 244.705 174.708C245.53 158.553 233.344 142.706 226.443 132.73Z" fill="#C3BDC9"/>
<path fill-rule="evenodd" clip-rule="evenodd" d="M229.254 132.429L229.715 133.226C241.608 139.556 254.95 152.096 263.213 142.869C254.649 146.31 240.778 134.226 231.644 129.662L232.063 131.633C231.052 132.121 230.156 132.267 229.254 132.429Z" fill="#DFDDE2"/>
<path fill-rule="evenodd" clip-rule="evenodd" d="M212.4 117.63C212.432 117.969 212.396 118.241 212.316 118.468L227.116 127.65L213.616 116.875C213.291 117.22 212.836 117.395 212.4 117.63Z" fill="#DFDDE2"/>
<path fill-rule="evenodd" clip-rule="evenodd" d="M230.828 126.267C231.087 127.254 231.385 128.2 231.54 129.291C249.242 137.479 259.852 135.462 264.98 132.255L262.252 131.247C254.46 136.403 235.603 129.439 230.828 126.267Z" fill="#C3BDC9"/>
<path fill-rule="evenodd" clip-rule="evenodd" d="M216.779 112.273C216.779 112.511 216.687 112.748 216.602 112.985C224.117 116.949 229.378 124.31 229.171 129.379L231.721 131.484C230.739 123.01 227.7 119.841 224.635 116.69L260.595 130.772L225.673 114.408C230.33 113.35 235.187 113.085 239.191 108.242L247.433 107.945C254.462 106.866 262.452 102.798 263.264 98.9922L260.625 99.2884C257.251 106.747 243.953 106.491 237.057 106.759C233.862 112.753 223.696 113.198 216.779 112.273Z" fill="#C3BDC9"/>
<path fill-rule="evenodd" clip-rule="evenodd" d="M236.879 110.643C235.982 111.363 235.039 111.899 234.062 112.303C237.821 113.099 241.322 114.117 244.527 115.386C253.827 116.361 263.039 114.942 263.441 107.026C259.533 113.329 248.382 112.167 236.879 110.643Z" fill="#DFDDE2"/>
<path fill-rule="evenodd" clip-rule="evenodd" d="M216.629 105.1C216.882 105.87 216.982 106.55 217.133 107.293L236.195 106.789C229.672 106.227 223.003 105.737 216.629 105.1Z" fill="#DFDDE2"/>
<path fill-rule="evenodd" clip-rule="evenodd" d="M225.82 97.4219C229.697 99.1882 233.229 101.169 236.078 103.41L233.558 101.098C241.711 100.426 250.003 99.7754 259.171 99.2597L230.178 99.0817L225.82 97.4219Z" fill="#C3BDC9"/>
<path fill-rule="evenodd" clip-rule="evenodd" d="M219.696 98.0931C219.609 98.4983 219.391 98.9034 219.234 99.3091L225.607 97.4642C235.143 90.6271 235.595 87.2066 236.801 83.503L251.349 74.4473L234.83 82.6647C225.859 82.7515 223.566 83.9949 220.828 84.7191C228.431 83.0715 233.432 82.789 236.214 83.6709L234.453 84.7607C232.159 92.3331 223.602 96.7436 219.696 98.0931Z" fill="#C3BDC9"/>
<path fill-rule="evenodd" clip-rule="evenodd" d="M219.625 91.8776C219.898 92.3588 219.939 92.9558 220.07 93.508C224.621 91.0728 228.872 88.3374 233.114 85.5928C228.617 87.7993 224.121 90.0519 219.625 91.8776Z" fill="#DFDDE2"/>
<path fill-rule="evenodd" clip-rule="evenodd" d="M231.898 92.8267C237.019 92.3936 242.224 92.2724 247.581 92.7081C248.832 92.0037 261.807 88.2159 258.668 81.3535C254.937 88.8691 241.082 91.4418 239.992 92.0559C237.813 92.2775 232.431 92.4961 231.898 92.8267Z" fill="#DFDDE2"/>
<path fill-rule="evenodd" clip-rule="evenodd" d="M253.302 73.497L256.178 72.252C256.485 72.8341 254.405 76.7431 250.72 80.8316C245.908 86.1645 243.079 88.4749 233.914 90.1282C234.093 89.8837 234.256 89.6388 234.396 89.3944C241.482 87.4657 251.233 80.5536 253.302 73.497Z" fill="#DFDCE1"/>
<path fill-rule="evenodd" clip-rule="evenodd" d="M222.826 81.0266L221.996 82.3315C230.168 76.4422 236.632 72.8442 241.562 71.303C246.456 66.1308 247.573 61.0215 245.535 58.0518C245.848 67.6121 230.668 74.7632 222.826 81.0266Z" fill="#DFDDE2"/>
<path fill-rule="evenodd" clip-rule="evenodd" d="M217.58 84.6737L217.283 87.1044C223.323 82.6959 226.575 74.6894 225.732 67.9238L223.568 70.147L214.141 77.796C214.648 78.2504 215.204 78.7048 215.564 79.1597L223.568 70.3844C224.098 77.6135 219.228 83.2264 217.58 84.6737Z" fill="#C3BEC9"/>
<path fill-rule="evenodd" clip-rule="evenodd" d="M225.79 73.3494L225.227 75.3653C229.126 72.9088 231.86 70.33 234.268 67.7168C241.014 59.8741 241.892 53.0583 242.451 49.7812L239.545 52.1232C240.015 62.0872 228.844 71.6886 225.79 73.3494Z" fill="#DFDDE2"/>
<path fill-rule="evenodd" clip-rule="evenodd" d="M222.469 67.7457C223.595 67.6985 224.722 67.6671 225.848 67.7756L239.1 52.5674L222.469 67.7457Z" fill="#C3BDC9"/>
<path fill-rule="evenodd" clip-rule="evenodd" d="M212.715 59.1191L211.085 61.0163C211.782 64.7533 211.755 69.7845 206.223 75.8985L206.401 76.2245L206.786 76.1059C211.168 70.6467 215.779 69.2298 220.393 67.8646C217.707 68.5335 215.027 68.9727 212.004 70.5326C214.066 64.2731 213.148 61.067 212.715 59.1191Z" fill="#C3BDC9"/>
<path fill-rule="evenodd" clip-rule="evenodd" d="M213.338 64.0994L213.309 65.3149C218.049 62.4 222.851 58.8577 227.183 54.0197C229.713 50.7609 232.963 46.1912 233.349 39.9678L230.859 41.9248C230.366 52.2716 217.031 61.1834 213.338 64.0994Z" fill="#DFDDE2"/>
<path fill-rule="evenodd" clip-rule="evenodd" d="M202.578 62.7653C206.423 61.1029 210.175 59.5273 212.776 59.0303L229.467 43.5254C225.004 46.7558 215.623 54.8759 211.208 58.1707C209.688 59.3052 208.161 59.2686 202.578 62.7653Z" fill="#DFDDE2"/>
<path fill-rule="evenodd" clip-rule="evenodd" d="M230.357 42.0439C188.158 49.4084 164.718 100.318 192.944 95.7314L191.373 95.3465C185.726 95.844 184.281 90.9238 184.83 87.8086C185.331 84.4088 188.573 82.5405 189.505 82.2206C189.254 79.2194 189.157 76.2425 192.084 73.7348C193.259 70.8944 194.6 69.4318 195.938 67.9541C200.373 51.8934 222.756 43.894 230.357 42.0439Z" fill="#F1EEF0"/>
<path fill-rule="evenodd" clip-rule="evenodd" d="M210.701 60.8984C205.427 61.6663 198.196 67.5022 197.101 69.9395C196.991 70.185 197.162 70.5333 195.286 71.541L195.375 71.8671C197.185 71.0978 202.086 71.8352 197.479 72.9934C200.501 72.9123 203.13 74.1065 204.891 78.1225C214.644 76.6366 217.06 83.7658 214.614 88.4983C221.044 94.0721 216.977 101.251 213.458 102.58C215.602 107.349 216.736 113.686 210.168 116.128C210.149 120.382 209.562 127.005 199.495 126.919C198.291 129.784 194.715 134.68 188.645 132.077C188.645 132.077 188.638 132.253 188.586 132.433C188.487 132.768 191.096 133.422 191.135 133.263C193.204 133.501 193.445 134.853 190.928 134.271C190.015 134 189.206 133.78 188.556 133.47C188.57 133.688 188.578 133.905 188.438 134.122C194.993 136.387 198.772 132.427 200.829 129.023C208.645 128.614 211.879 124.306 212.272 117.58C218.673 113.57 217.772 107.523 215.8 103.351C221.504 99.0856 221.095 91.5974 216.779 88.1129C219.71 78.2762 210.939 75.6244 206.314 76.3141C204.758 73.6923 203.74 73.3119 202.638 72.5786L210.909 61.3427L200.859 71.6891C199.857 71.3458 198.55 71.1931 196.916 71.2444C199.046 65.8906 207.406 61.8346 210.701 60.8984Z" fill="#C3BDC9"/>
<path fill-rule="evenodd" clip-rule="evenodd" d="M133.828 49.1578C135.082 51.0296 137.186 48.6345 140.706 52.3299L141.121 52.1524C140.329 48.9727 138.181 47.0375 135.014 46.6973C136.364 47.8829 135.381 47.9529 135.328 48.7106C135.282 49.3764 135.348 50.1918 133.828 49.1578Z" fill="#DFA12F"/>
<path fill-rule="evenodd" clip-rule="evenodd" d="M128.258 54.9098C130.169 53.8717 134.332 52.3132 136.974 56.0366C145.3 53.6013 151.188 55.8342 152.004 59.1787C152.521 58.2685 150.171 53.2317 140.68 54.0796C132.572 48.4099 127.977 53.5364 128.258 54.9098Z" fill="#DFA12F"/>
<path fill-rule="evenodd" clip-rule="evenodd" d="M140.945 62.0544C139.5 61.9935 144.002 56.6733 151.38 61.7577C154.025 62.7918 155.286 61.4438 154.789 59.2673C154.614 57.6642 153.727 56.7722 153.189 55.5322C156.899 58.3189 157.351 61.7552 154.837 63.1396C150.929 65.087 148.183 58.1551 140.945 62.0544Z" fill="#DEA12F"/>
<path fill-rule="evenodd" clip-rule="evenodd" d="M134.834 137.944L136.462 140.301L136.013 140.021C131.376 142.237 128.983 141.369 126.694 140.358L126.47 140.189C121.706 141.132 118.674 139.881 116.14 138C116.32 139.417 117.313 140.509 118.61 141.48L113.614 163.375L116.028 142.828C113.162 150.853 109.411 154.605 104.239 156.862L104.632 154.617C109.358 152.2 113.398 147.622 115.298 137.719C113.414 137.969 111.529 138.201 109.572 137.719L104.856 153.943L107.102 137.158C105.053 135.801 103.337 134.111 101.656 132.386V132.105C102.162 132.825 102.684 130.641 102.611 129.972C106.135 135.713 111.158 136.788 116.028 135.137C116.009 135.679 116.036 136.162 115.803 136.989L116.028 136.933C116.232 136.921 116.315 136.413 116.449 135.979C116.304 135.88 116.268 135.644 116.196 135.473L116.252 135.305C118.946 140.155 125.638 137.883 126.47 138.28C126.367 138.539 126.528 139.238 126.638 139.853L126.75 140.021C126.881 139.74 126.9 139.347 126.806 138.842L126.582 138.392L126.778 138.505C129.065 140.202 132.192 140.09 134.834 137.944V137.944Z" fill="#C3BDC9"/>
<path fill-rule="evenodd" clip-rule="evenodd" d="M119.311 141.816C120.846 142.532 122.45 143.126 124.196 143.473C123.373 153.743 118.17 165.486 112.687 168.959L112.827 166.068C111.485 163.824 110.422 160.227 110.133 152.876L110.582 152.426C110.708 157.546 111.262 162.251 112.968 165.844C115.575 163.885 121.27 157.354 122.146 144.792C122.195 144.024 121.985 143.543 121.557 143.304C120.534 142.74 119.92 142.277 119.311 141.816Z" fill="#C1C0C8"/>
<path fill-rule="evenodd" clip-rule="evenodd" d="M99.4688 185.268C105.393 186.847 109.316 175.416 111.571 167.719C110.536 165.658 109.057 163.52 108.956 154.167L108.451 154.672C107.824 166.66 107.713 179.895 99.4688 185.268Z" fill="#C3BDC9"/>
<path fill-rule="evenodd" clip-rule="evenodd" d="M102.303 133.059L102.66 133.416C102.216 135.68 99.158 143.901 102.938 151.914C100.824 148.794 99.0579 143.855 102.303 133.059Z" fill="#DFDDE3"/>
<path fill-rule="evenodd" clip-rule="evenodd" d="M99.0878 138.101L97.9366 139.927L85.353 191.015L98.6908 148.461C99.3528 150.94 100.186 153.514 103.653 157.551C98.7572 174.917 90.9918 190.423 84.3209 194.509L84.956 192.405C82.1142 183.801 84.3898 165.726 89.2432 147.548C86.1445 157.512 79.7549 179.305 83.8048 195.183L82.5346 199.113C95.7391 190.093 103.506 167.491 106.432 155.964C105.715 156.541 104.91 156.852 104.089 157.115C99.9443 153.404 97.9445 147.418 99.0878 138.101Z" fill="#C3BDC9"/>
<path fill-rule="evenodd" clip-rule="evenodd" d="M91.1577 123.796C91.4882 125.362 93.3314 127.206 94.2454 128.793C94.7356 129.613 95.2847 129.932 95.9856 128.961L96.547 128.063C97.9252 129.611 99.8019 130.431 102.554 129.971L99.2417 137.606C95.4001 145.053 90.2847 146.66 85.207 148.441L86.7789 145.522C93.3891 144.891 98.1137 138.372 100.589 132.329C98.9387 131.96 97.3483 131.313 95.4872 130.1L87.6771 143.669L92.8419 129.971C93.8823 127.817 91.1492 126.129 91.1577 123.796Z" fill="#C3BDC9"/>
<path fill-rule="evenodd" clip-rule="evenodd" d="M88.0128 147.543C87.0881 147.928 86.1241 148.274 85.0936 148.554C76.5988 167.596 71.8334 184.592 56.6875 189.905C70.4352 192.512 79.6762 170.487 83.0165 163.88C85.4708 157.882 86.9351 152.299 88.0128 147.543Z" fill="#CECAD5"/>
<path fill-rule="evenodd" clip-rule="evenodd" d="M89.9174 124.325C88.3718 126.178 83.1168 133.526 86.4242 145.801L86.702 145.443C84.335 137.304 86.7991 128.231 89.9174 124.325Z" fill="#E0DEE4"/>
<path fill-rule="evenodd" clip-rule="evenodd" d="M84.2528 135.164C83.8095 138.351 83.9737 140.855 84.1124 143.389C73.808 161.639 56.5992 178.485 46.668 179.176C59.3366 162.207 72.0052 144.67 84.6738 127.417C85.4878 127.07 86.3018 126.51 87.1158 125.957C85.7864 127.918 85.1723 129.521 84.8983 130.954L50.0644 175.612C61.7057 174.647 80.7823 147.065 83.6352 139.627C83.6559 137.399 83.9369 136.212 84.2528 135.164Z" fill="#C3BDC9"/>
<path fill-rule="evenodd" clip-rule="evenodd" d="M48.7741 176.257L49.5881 175.247C48.5849 158.016 68.1053 137.528 73.3628 131.094C72.4904 132.959 47.6088 154.816 48.7741 176.257Z" fill="#DFDCE1"/>
<path fill-rule="evenodd" clip-rule="evenodd" d="M34.625 145.41C37.5475 149.989 42.464 152.855 60.8979 141.648C64.5843 137.585 68.2707 133.408 71.9572 129.916L71.0589 129.859C64.8511 132.451 48.8265 149.239 34.625 145.41Z" fill="#DFDDE2"/>
<path fill-rule="evenodd" clip-rule="evenodd" d="M82.5707 113.074C80.2101 114.054 71.0832 117.358 70.1641 127.614L68.1992 128.709C80.6111 132.842 90.0674 123.466 91.9458 121.72C90.0099 120.479 88.036 119.467 86.3881 116.499L84.7601 117.284C80.7529 120.615 75.9203 123.828 71.2588 126.941L85.7145 119.586C86.5527 120.525 87.514 121.496 89.5319 122.73C80.7727 128.747 73.926 128.447 70.5851 127.586C71.0689 121.656 74.608 116.611 82.5707 113.074Z" fill="#C3BDC9"/>
<path fill-rule="evenodd" clip-rule="evenodd" d="M68.6002 125.278C68.3286 126.529 68.0112 127.826 68.0445 128.771C64.0921 130.329 59.7304 131.567 54.8257 132.384C54.5479 132.462 53.2544 132.959 52.7615 132.027C52.1975 131.663 51.5654 131.571 50.8958 131.63C50.7812 131.324 50.1607 131.459 50.082 131.173C62.0925 129.093 67.5733 126.217 68.6002 125.278Z" fill="#CECAD5"/>
<path fill-rule="evenodd" clip-rule="evenodd" d="M55.1448 116.426C51.9795 117.968 38.7977 124.974 36.5273 131.669C42.9481 133.614 47.7713 131.915 50.679 131.64C50.5462 131.456 50.0059 131.492 49.9446 131.193C45.1511 131.885 39.4287 132.208 37.8373 131.272L39.0282 130.677C39.3988 124.995 52.988 117.881 55.1448 116.426V116.426Z" fill="#DFDDE1"/>
<path fill-rule="evenodd" clip-rule="evenodd" d="M39.7812 130.478C61.2568 122.526 71.6687 116.12 83.1293 112.258V112.655C82.2128 113.236 74.6859 115.001 71.7365 119.284L39.7812 130.478Z" fill="#C3BDC9"/>
<path fill-rule="evenodd" clip-rule="evenodd" d="M79.4011 113.449C77.9141 114.072 76.4697 114.569 74.9154 115.394C67.9018 114.374 66.7607 112.624 63.7609 111.186L64.3563 110.948C65.4678 111.755 66.8423 112.387 68.1671 113.052C70.2228 113.745 70.7244 112.916 68.6832 112.178C66.2205 111.395 64.6797 110.339 63.3242 109.32C65.7413 104.638 71.4329 102.41 72.1764 102.056C69.0219 104.107 65.3824 105.923 64.4357 109.042C69.334 108.317 74.5272 107.459 80.9095 106.065C81.3898 106.913 81.8579 107.751 82.7752 108.963L82.6165 109.162L81.6638 108.01L64.5548 109.32C69.3013 112.567 74.3654 112.877 79.4011 113.449Z" fill="#C3BDC9"/>
<path fill-rule="evenodd" clip-rule="evenodd" d="M35.4414 106.898C37.433 113.505 53.9963 111.823 63.7914 111.137L64.2966 110.969C63.5027 110.416 62.8095 109.865 62.3879 109.312C58.3138 108.458 39.8014 112.348 35.4414 106.898Z" fill="#DFDDE2"/>
<path fill-rule="evenodd" clip-rule="evenodd" d="M66.6533 103.277L66.8498 103.446C65.6896 104.424 64.5294 105.273 63.3692 106.674C48.0248 106.708 38.3663 100.594 35.6367 97.0458C39.4315 93.9787 44.2212 92.901 49.2784 92.3584C44.9313 93.6491 39.8413 94.4021 37.5174 97.1584H36.4227C43.5472 105.118 62.5501 108.667 66.6533 103.277Z" fill="#DFDDE2"/>
<path fill-rule="evenodd" clip-rule="evenodd" d="M38.4727 97.4111C48.674 98.8468 58.625 100.095 69.0963 101.734C70.5121 100.489 73.0518 99.6755 77.0118 99.4041C75.6681 99.3681 74.5553 99.2277 72.4365 99.5441C60.7641 99.711 49.7402 98.2565 38.4727 97.4111Z" fill="#C3BDC9"/>
<path fill-rule="evenodd" clip-rule="evenodd" d="M82.2026 95.8674C81.2466 96.8669 80.7388 98.3143 80.3781 99.9092C69.1613 96.2502 67.3352 89.224 66.9609 88.513C73.7008 83.8328 77.7627 85.5757 83.3534 85.4535C71.4716 84.9008 68.347 88.011 67.8311 88.6251C72.2919 89.8473 75.446 90.9787 85.0095 92.5548C84.0955 93.2039 83.5199 93.8049 83.1289 94.3795C79.4343 92.8713 72.6091 90.7778 67.7469 88.8782C68.5142 92.1182 73.5293 96.9963 77.7395 98.2529C78.9159 98.5648 80.2009 99.148 80.6588 97.6636C80.8373 97.052 81.7677 96.0941 82.2026 95.8674Z" fill="#C3BDC9"/>
<path fill-rule="evenodd" clip-rule="evenodd" d="M39.5391 81.1309C41.6551 83.2801 49.8597 90.3722 64.8014 88.5973C65.3722 90.0563 65.9429 90.5918 66.5137 91.1796C62.5478 90.5756 58.5681 90.1364 54.5281 90.4219C47.9621 88.4462 41.966 86.0632 39.5391 81.1309Z" fill="#DFDDE2"/>
<path fill-rule="evenodd" clip-rule="evenodd" d="M70.0219 84.2188C70.2549 84.3602 70.4752 84.5144 70.7798 84.5839C68.3335 85.5535 66.4432 86.6083 64.9694 87.7275C57.4342 85.3933 46.7421 79.8347 42.8789 72.8231C47.5445 70.7429 55.4615 71.7079 60.0573 72.8231C54.9579 72.7759 48.8673 71.7379 45.8262 73.7491L43.5245 72.9352C44.441 75.9298 60.472 89.9042 70.0219 84.2188Z" fill="#DFDDE2"/>
<path fill-rule="evenodd" clip-rule="evenodd" d="M46.6406 74.1416C56.2148 77.4876 65.3021 80.7967 72.9416 83.9941C75.3244 83.4155 77.6503 83.5777 79.9589 83.9657C79.4281 83.4434 78.8755 82.987 78.4151 82.2537L78.2186 82.3379L79.1729 83.6012C66.1882 79.1739 56.5966 76.7661 46.6406 74.1417V74.1416Z" fill="#C3BDC9"/>
<path fill-rule="evenodd" clip-rule="evenodd" d="M76.7589 77.9308C76.0313 76.5534 75.3381 75.1411 75.2712 73.1029C71.6776 74.7921 55.2351 67.6746 51.3281 58.7314C51.5958 66.6061 65.6337 72.7748 76.7589 77.9308Z" fill="#DFDDE2"/>
<path fill-rule="evenodd" clip-rule="evenodd" d="M86.2732 82.8434C85.7792 83.389 85.3593 84.0458 84.7294 84.3876C84.4093 84.5935 84.1138 84.5549 83.8311 84.3876C78.0374 80.6724 76.8739 74.2293 77.0103 72.9072C81.4672 72.1501 87.6983 72.2525 96.2658 77.5667C94.3891 77.1676 88.0514 72.5031 77.9085 73.3561C77.7207 76.8567 80.3891 83.5548 86.2732 82.8434Z" fill="#C3BDC9"/>
<path fill-rule="evenodd" clip-rule="evenodd" d="M78.6953 73.9453L88.9687 81.4396C90.2973 81.5081 91.6259 81.4721 92.9545 82.1131C93.0278 81.8489 93.1529 81.507 93.3755 81.0187C87.7096 78.6606 83.5597 76.303 78.6953 73.9453Z" fill="#C3BDC9"/>
<path fill-rule="evenodd" clip-rule="evenodd" d="M55.5039 50.0146L58.2429 51.642C57.8874 57.8558 68.9065 69.9397 81.1872 70.8946C79.1793 71.0995 76.9515 71.0472 75.3519 71.7283C69.5509 68.1343 65.6403 64.3075 62.411 60.9706C61.7305 61.0726 61.2014 59.3726 60.0689 59.8991C56.9478 55.8659 55.7117 52.7029 55.5039 50.0146Z" fill="#DFDDE2"/>
<path fill-rule="evenodd" clip-rule="evenodd" d="M73.4068 54.8184C69.3015 53.2261 65.5739 51.4004 58.4414 51.6824C69.5091 59.7067 75.5531 64.7627 83.6881 71.0541C87.403 71.6109 90.9893 73.2611 94.6044 74.6664C94.1388 73.6739 93.7737 72.6815 93.5724 71.689C93.6306 72.5228 93.6134 73.3564 94.1281 74.1897C89.2947 72.7991 69.4134 58.6604 59.672 52.3568C63.3427 51.2021 68.5322 53.3528 73.4068 54.8184Z" fill="#C4BECA"/>
<path fill-rule="evenodd" clip-rule="evenodd" d="M79.0826 55.2152C74.6169 51.3362 69.6539 46.9242 68.5234 40.7266C73.7332 41.3448 83.9046 44.8556 91.7853 50.5314C84.4444 46.3202 77.5155 43.1649 71.8579 43.2668C71.3915 48.3994 76.1165 51.7809 79.0826 55.2152Z" fill="#DFDDE2"/>
<path fill-rule="evenodd" clip-rule="evenodd" d="M72.2147 43.4248L71.9766 43.6236C79.5121 49.1883 84.9687 54.4933 90.9115 59.8592C92.5938 61.2701 92.3541 62.791 92.5391 64.3052C93.152 63.5897 92.3507 61.1519 93.6572 60.8973C94.8878 60.6615 99.6029 63.1033 99.8828 62.7174C88.7651 57.7887 81.3676 49.9155 72.2147 43.4248Z" fill="#C3BDC9"/>
<path fill-rule="evenodd" clip-rule="evenodd" d="M95.8735 73.1976C94.8066 71.4825 93.1615 66.1921 94.246 62.6387C108.555 65.7306 110.957 76.9868 111.196 79.2314C109.087 71.0717 101.304 63.6656 95.9529 64.6236C99.2277 67.6339 103.223 73.8087 105.718 76.4528C104.536 76.5126 103.352 76.5714 102.582 76.8894C100.576 76.6658 99.6494 77.0679 98.6125 77.4057C97.5077 76.1267 97.1071 75.1607 96.4292 74.0713C97.8759 76.113 99.9683 75.8022 102.145 75.1825C99.949 71.1777 97.7524 68.2957 95.5559 64.9015C94.4694 65.7195 95.4967 69.99 95.8735 73.1976Z" fill="#E0DEE4"/>
<path fill-rule="evenodd" clip-rule="evenodd" d="M101.629 57.9541C125.969 74.1071 127.807 100.657 110.6 96.3005C131.242 93.8206 107.047 63.1572 101.629 57.9541Z" fill="#DFDDE2"/>
<path fill-rule="evenodd" clip-rule="evenodd" d="M102.75 76.9764C104.751 76.1382 110.119 76.2315 110.357 84.4991L108.588 85.8182C108.625 83.5543 108.984 78.4461 102.75 76.9764Z" fill="#C3BDC9"/>
<path fill-rule="evenodd" clip-rule="evenodd" d="M108.59 85.9588L110.442 84.6113C119.301 87.9822 114.956 97.5557 108.786 96.0358C116.156 95.2823 114.566 85.8893 108.59 85.9588Z" fill="#C3BDC9"/>
<path fill-rule="evenodd" clip-rule="evenodd" d="M137.156 23.8805C138.361 25.9815 135.016 32.2876 140.777 31.3403C142.729 32.569 144.481 31.9022 145.358 31.9073C149.175 30.5776 149.064 27.9446 149.306 27.2397C145.993 22.5776 149.706 21.6882 150.113 21.3935C152.162 21.643 153.215 25.4231 150.462 26.6286C150.68 26.8031 151.014 26.7741 151.465 26.5414C151.425 32.5969 155.726 33.0189 158.707 32.0381C164.579 33.6431 161.733 26.8502 164.509 21.7865C161.357 27.3355 163.388 32.3804 158.794 31.7328C159.976 28.8681 156.854 26.6362 158.402 23.5316C156.007 25.5808 159.986 29.3696 158.402 31.3403C156.781 32.7592 155.209 31.5776 155.173 30.9478C154.511 28.8924 159.207 26.3963 156.395 22.6152C157.358 24.6619 157.025 25.5829 156.509 26.8842C155.993 28.1854 154.006 29.3651 154.912 31.9509C152.854 31.5437 151.786 29.1023 152.356 27.1763C152.919 25.2776 153.882 22.0949 150.287 21.0664C145.749 22.4306 148.058 26.0231 148.605 26.6631C149.72 27.87 147.676 31.5122 145.118 31.4929C146.289 29.7048 144.901 29.3437 143.176 26.4977C143.05 28.0105 146.615 30.0537 144.572 31.2531C143.525 32.0898 142.042 31.5979 141.431 30.9914C140.276 29.6774 143.055 28.1459 142.544 25.6255C141.798 29.3214 140.724 29.1013 140.864 30.8605C139.527 31.2409 138.131 31.7237 137.696 29.1713C137.724 25.6656 137.655 23.5112 137.156 23.8805Z" fill="#DFA12F"/>
<path fill-rule="evenodd" clip-rule="evenodd" d="M160.756 38.1677L160.821 38.5384C153.783 38.9923 146.614 37.6453 139.707 37.4911V37.1641C146.698 37.336 152.225 38.5642 160.756 38.1677Z" fill="#DFA12F"/>
<path fill-rule="evenodd" clip-rule="evenodd" d="M149.916 39.3662L149.895 39.6497C153.937 40.2816 157.985 40.9206 161.346 40.5879V40.2826C157.293 40.7872 153.636 39.9733 149.916 39.3662Z" fill="#DFA12F"/>
<path fill-rule="evenodd" clip-rule="evenodd" d="M140.252 33.5643C139.135 33.9213 139.66 35.5582 140.23 35.5491C141.517 35.613 142.804 35.7966 144.091 35.5927C144.821 35.2489 145.061 33.9583 144.243 33.4334C142.89 33.2671 141.547 33.2686 140.252 33.5643ZM140.012 33.3462C142.233 32.9202 144.258 33.1936 145.399 33.4116C146.422 33.6834 146.425 35.466 145.399 35.8326C144.237 35.9396 141.739 35.9133 140.033 35.7672C138.911 34.8376 139.494 33.7133 140.012 33.3462Z" fill="#E1A02F"/>
<path fill-rule="evenodd" clip-rule="evenodd" d="M147.997 35.3312C150.896 35.7115 153.347 35.9367 152.73 33.6734C151.904 33.6846 146.323 32.4324 147.997 35.3312ZM147.909 35.6365C147.517 35.2247 146.975 34.3346 148.04 33.2372C149.66 33.1226 151.314 33.2215 152.992 33.4553C154.533 34.0923 154.395 35.465 153.123 36.0508C150.402 36.0482 148.954 35.8702 147.909 35.6365H147.909Z" fill="#E1A02F"/>
<path fill-rule="evenodd" clip-rule="evenodd" d="M155.824 35.7498C158.683 36.3644 161.086 36.8974 160.655 34.591C159.831 34.5347 154.392 32.7248 155.824 35.7498ZM155.713 36.0469C155.355 35.6048 154.888 34.6737 156.038 33.666C160.142 33.878 159.453 33.9282 160.955 34.2857C162.44 35.0459 162.191 36.403 160.875 36.8837C157.316 36.9593 156.701 36.3766 155.713 36.0469Z" fill="#E1A02F"/>
<path fill-rule="evenodd" clip-rule="evenodd" d="M103.704 80.8418L99.1484 94.2644C100.417 94.2411 101.501 94.3288 103.704 93.8724C105.762 89.646 106.187 83.6604 103.704 80.8418Z" fill="#C3BDC9"/>
<path fill-rule="evenodd" clip-rule="evenodd" d="M107.379 107.018L99.1475 94.2964C98.9471 94.0297 97.0717 99.568 96.8125 101.279C97.8262 104.067 102.685 106.949 107.379 107.018Z" fill="white"/>
<path fill-rule="evenodd" clip-rule="evenodd" d="M106.03 97.1673C108.913 96.1332 109.469 94.3943 109.508 93.3496L103.715 93.8643C104.537 94.8999 105.379 95.9725 106.03 97.1673Z" fill="#C3BDC9"/>
<path fill-rule="evenodd" clip-rule="evenodd" d="M96.4209 87.5323C95.2566 86.7594 91.4778 86.4886 90.6875 87.1732L95.525 91.6441C95.7201 90.3362 95.9924 88.824 96.4209 87.5323Z" fill="#C3BDC9"/>
<path fill-rule="evenodd" clip-rule="evenodd" d="M85.4922 101.317L99.0595 94.3265C99.3666 94.1956 97.434 99.6843 96.8023 101.294C95.19 102.124 88.4632 103.729 85.4922 101.317Z" fill="#C3BDC9"/>
<defs>
<linearGradient id="paint0_linear_194_4966" x1="96.5801" y1="102.365" x2="123.431" y2="123.611" gradientUnits="userSpaceOnUse">
<stop stop-color="#C3BDC9"/>
<stop offset="1" stop-color="#C3BDC9" stop-opacity="0"/>
</linearGradient>
<linearGradient id="paint1_linear_194_4966" x1="174.397" y1="155.077" x2="93.0831" y2="113.001" gradientUnits="userSpaceOnUse">
<stop stop-color="#C3BDC9"/>
<stop offset="1" stop-color="#C3BDC9" stop-opacity="0"/>
</linearGradient>
<linearGradient id="paint2_linear_194_4966" x1="216.726" y1="91.9348" x2="168.073" y2="129.153" gradientUnits="userSpaceOnUse">
<stop stop-color="#C3BDC9"/>
<stop offset="1" stop-color="#C3BDC9" stop-opacity="0"/>
</linearGradient>
</defs>
</svg>
