<svg width="300" height="300" viewBox="0 0 300 300" fill="none" xmlns="http://www.w3.org/2000/svg">
<path d="M190.127 126.211C190.127 126.211 201.879 140.459 199.912 155.121C196.969 177.072 186.792 180.918 183.234 206.715C180.649 225.452 182.789 238.738 182.789 238.738L207.918 220.262C207.918 220.262 228.823 131.826 205.917 106.196C195.02 120.818 190.127 126.211 190.127 126.211Z" fill="#008000"/>
<path d="M91.4961 107.086C68.7571 140.332 91.0513 221.615 91.0513 221.615L69.0351 205.825C69.0351 205.825 69.2575 187.812 64.5874 176.248C59.9173 164.684 55.0248 160.903 55.0248 135.774C55.0248 114.394 77.9305 86.8486 77.9305 86.8486C77.9305 86.8486 81.5443 91.6299 91.4961 107.086Z" fill="black"/>
<path d="M106.841 126.211C106.841 126.211 95.0902 140.459 97.0563 155.121C99.9996 177.072 110.177 180.918 113.735 206.715C116.32 225.452 114.18 238.738 114.18 238.738L89.0504 220.262C89.0504 220.262 68.1461 131.826 91.0519 106.196C101.949 120.818 106.841 126.211 106.841 126.211Z" fill="#008000"/>
<path d="M92.6099 121.764C92.6099 121.764 80.2976 133.222 82.0657 150.067C83.8066 166.654 96.022 185.236 98.3919 203.379C100.787 221.715 98.5114 227.163 98.5114 227.163L82.3214 215.339C82.3214 215.339 86.3831 194.929 74.819 172.69C65.3599 154.499 65.9236 139.11 69.7041 127.99C73.4847 116.871 81.0458 108.865 81.0458 108.865L92.6099 121.764Z" fill="white"/>
<path d="M105.953 128.658C85.1039 125.266 77.7096 129.103 77.7096 129.103C77.7096 129.103 74.8185 113.591 77.2648 85.7373C79.711 88.128 86.1602 96.8566 86.1602 96.8566C86.1602 96.8566 108.343 120.708 105.953 128.658Z" fill="#CC0000"/>
<path d="M137.514 169.846C136.805 172.168 134.896 173.985 132.825 172.585C131.286 171.544 135.232 174.865 137.244 169.784C138.757 165.965 138.098 168.517 137.514 169.846Z" fill="white" stroke="black" stroke-width="0.444772" stroke-linejoin="round"/>
<path d="M75.8896 82.5459L159.215 183.996L151.654 193.058L137.491 176.657C137.491 176.657 133.922 175.818 132.723 174.739C131.415 172.632 130.277 170.692 129.339 168.741C129.598 167.513 129.504 162.409 129.759 161.618C123.669 153.805 112.94 140.23 85.2854 104.659C84.0389 102.799 84.924 97.6404 84.924 97.6404L74.041 84.3945L75.8896 82.5459ZM130.466 162.489C130.104 163.263 130.11 167.719 130.121 168.708C130.602 170.092 132.049 172.233 133.39 174.183C134.81 175.356 136.585 175.617 137.463 175.67L137.379 171.598C137.379 171.598 135.17 168.523 130.466 162.489Z" fill="white" stroke="black" stroke-width="0.444772" stroke-linejoin="round"/>
<path d="M159.212 183.987L151.694 193.043C151.694 193.043 155.741 201.682 155.21 213.053C156.044 214.935 156.131 214.92 157.1 216.889C164.078 218.535 171.16 236.326 185.344 262.089C198.692 248.861 199.871 248.069 199.354 243.631C198.953 240.19 195.36 235.815 178.783 212.608C172.671 209.098 171.217 208.969 166.628 204.309C163.471 201.103 162.494 199.488 161.104 194.251C159.714 189.014 159.212 183.987 159.212 183.987Z" fill="#76601D" stroke="black" stroke-width="0.444772" stroke-linejoin="round"/>
<path d="M77.4602 145.784L75.6158 144.443L76.3898 142.319L74.5246 143.631L72.7112 142.25L73.4029 144.402L71.5082 145.673L73.8009 145.69L74.4432 147.856L75.1685 145.715L77.4602 145.784Z" fill="#CC0000"/>
<path d="M68.672 141.96C68.7128 138.744 71.3367 136.145 74.5624 136.145C77.8134 136.145 80.4511 138.784 80.4511 142.035C80.4511 143.033 80.2026 143.974 79.7635 144.799C79.8098 144.518 79.8338 144.229 79.8338 143.935C79.8338 141.025 77.4726 138.664 74.5624 138.664C71.6522 138.664 69.2893 141.025 69.2893 143.935C69.2893 144.23 69.3148 144.519 69.3613 144.8C68.9215 143.976 68.672 143.034 68.672 142.035C68.672 142.01 68.6717 141.985 68.672 141.96Z" fill="#CC0000"/>
<path d="M177.461 76.0069L166.324 60.6826L148.675 67.1134L159.579 51.6167L148.105 36.5508L165.981 42.2977L176.539 26.5557L176.683 45.6041L194.682 50.9409L176.895 56.9666L177.461 76.0069Z" fill="#CC0000"/>
<path d="M145.692 3.00119C118.973 3.34002 97.3789 25.1404 97.3789 51.94C97.3789 78.9506 119.307 100.865 146.318 100.865C154.613 100.865 162.431 98.8004 169.279 95.1524C166.946 95.5369 164.548 95.7362 162.107 95.7362C137.928 95.7362 118.311 76.1187 118.311 51.94C118.311 27.7614 137.928 8.12997 162.107 8.12997C164.554 8.12997 166.955 8.34145 169.293 8.72763C162.441 5.0742 154.62 3.00119 146.318 3.00119C146.107 3.00119 145.903 2.99852 145.692 3.00119Z" fill="#CC0000"/>
<path d="M205.473 107.086C228.212 140.332 205.917 221.615 205.917 221.615L227.934 205.825C227.934 205.825 227.711 187.812 232.381 176.248C237.051 164.684 241.944 160.903 241.944 135.774C241.944 114.394 219.038 86.8486 219.038 86.8486C219.038 86.8486 215.424 91.6299 205.473 107.086Z" fill="black"/>
<path d="M204.359 121.764C204.359 121.764 216.671 133.222 214.903 150.067C213.162 166.654 200.947 185.236 198.577 203.379C196.182 221.715 198.457 227.163 198.457 227.163L214.647 215.339C214.647 215.339 210.586 194.929 222.15 172.69C231.609 154.499 231.045 139.11 227.265 127.99C223.484 116.871 215.923 108.865 215.923 108.865L204.359 121.764Z" fill="white"/>
<path d="M191.016 128.658C211.865 125.266 219.259 129.103 219.259 129.103C219.259 129.103 222.15 113.591 219.704 85.7373C217.258 88.128 210.809 96.8566 210.809 96.8566C210.809 96.8566 188.626 120.708 191.016 128.658Z" fill="#CC0000"/>
<path d="M159.455 169.846C160.163 172.168 162.073 173.985 164.144 172.584C165.682 171.544 161.737 174.865 159.725 169.784C158.212 165.965 158.871 168.517 159.455 169.846Z" fill="white" stroke="black" stroke-width="0.444772" stroke-linejoin="round"/>
<path d="M221.083 82.5459L137.758 183.996L145.319 193.058L159.482 176.657C159.482 176.657 163.051 175.818 164.25 174.739C165.557 172.632 166.695 170.692 167.634 168.741C167.375 167.513 167.469 162.409 167.213 161.618C173.303 153.805 184.033 140.23 211.687 104.659C212.934 102.799 212.049 97.6404 212.049 97.6404L222.932 84.3945L221.083 82.5459ZM166.507 162.489C166.868 163.263 166.862 167.719 166.852 168.708C166.37 170.092 164.924 172.233 163.582 174.183C162.163 175.356 160.388 175.617 159.51 175.67L159.593 171.598C159.593 171.598 161.803 168.523 166.507 162.489Z" fill="white" stroke="black" stroke-width="0.444772" stroke-linejoin="round"/>
<path d="M137.757 183.987L145.275 193.043C145.275 193.043 141.228 201.682 141.758 213.053C140.925 214.935 140.837 214.92 139.869 216.889C132.89 218.535 125.809 236.326 111.625 262.089C98.2765 248.861 97.0976 248.069 97.6148 243.631C98.0157 240.19 101.609 235.815 118.185 212.608C124.298 209.098 125.752 208.969 130.341 204.309C133.498 201.103 134.474 199.488 135.865 194.251C137.255 189.014 137.757 183.987 137.757 183.987Z" fill="#76601D" stroke="black" stroke-width="0.444772" stroke-linejoin="round"/>
<path d="M219.512 145.784L221.357 144.443L220.583 142.319L222.448 143.631L224.261 142.25L223.57 144.402L225.464 145.673L223.172 145.69L222.529 147.856L221.804 145.715L219.512 145.784Z" fill="#CC0000"/>
<path d="M228.301 141.96C228.26 138.744 225.636 136.145 222.41 136.145C219.159 136.145 216.522 138.784 216.522 142.035C216.522 143.033 216.77 143.974 217.209 144.799C217.163 144.518 217.139 144.229 217.139 143.935C217.139 141.025 219.5 138.664 222.41 138.664C225.32 138.664 227.683 141.025 227.683 143.935C227.683 144.23 227.658 144.519 227.611 144.8C228.051 143.976 228.301 143.034 228.301 142.035C228.301 142.01 228.301 141.985 228.301 141.96Z" fill="#CC0000"/>
<path d="M230.216 265.002C230.216 265.002 245.851 252.753 253.32 254.845C253.619 269.085 259.146 272.421 266.664 279.542C252.374 277.102 237.17 291.48 227.229 292.189C219.655 292.729 218.814 290.122 213.188 284.521C213.934 277.724 230.216 265.002 230.216 265.002Z" fill="#CC0000" stroke="black" stroke-width="0.444772" stroke-linejoin="round"/>
<path d="M238.88 273.965C238.88 273.965 240.862 279.593 228.181 286.019C223.192 288.547 216.104 288.793 220.171 291.131C217.31 290.142 213.785 284.62 213.785 284.62L238.88 273.965Z" fill="#CC0000" stroke="black" stroke-width="0.444772" stroke-linejoin="round"/>
<path d="M69.1275 265.002C69.1275 265.002 53.4928 252.753 46.024 254.845C45.7252 269.085 40.1983 272.421 32.6797 279.542C46.97 277.102 62.1738 291.48 72.115 292.189C79.6893 292.729 80.5299 290.122 86.1564 284.521C85.4095 277.724 69.1275 265.002 69.1275 265.002Z" fill="#CC0000" stroke="black" stroke-width="0.444772" stroke-linejoin="round"/>
<path d="M60.4639 273.965C60.4639 273.965 58.4825 279.593 71.163 286.019C76.1524 288.547 83.2407 288.793 79.1733 291.131C82.0339 290.142 85.5591 284.62 85.5591 284.62L60.4639 273.965Z" fill="#CC0000" stroke="black" stroke-width="0.444772" stroke-linejoin="round"/>
<path d="M71.6397 253.63C70.8277 253.715 70.1521 254.635 69.1656 257.216C67.3682 261.92 60.6732 273.353 60.6732 273.353C60.6732 273.353 59.9752 274.635 60.7149 276.717C60.6897 276.613 60.674 276.506 60.6732 276.425C60.6733 276.422 60.6729 276.415 60.6732 276.411C60.6755 276.397 60.6843 276.369 60.6871 276.356C60.6876 276.352 60.6867 276.344 60.6871 276.342C60.6889 276.331 60.6988 276.312 60.701 276.3C60.7014 276.297 60.7006 276.289 60.701 276.286C60.7019 276.283 60.7001 276.275 60.701 276.272C60.7032 276.266 60.7122 276.25 60.7149 276.244C60.7171 276.24 60.7251 276.224 60.7288 276.217C60.7296 276.215 60.7396 276.206 60.7426 276.203C60.7485 276.196 60.7634 276.182 60.7704 276.175C60.774 276.171 60.7805 276.164 60.7843 276.161C60.7896 276.158 60.8064 276.15 60.8121 276.147C60.8166 276.145 60.8326 276.137 60.8399 276.133C60.8474 276.131 60.8707 276.123 60.8816 276.119C60.8919 276.118 60.9121 276.12 60.9233 276.119C61.152 276.106 61.5613 276.263 62.2298 276.703C62.2298 276.703 102.638 298.31 146.167 297.997C147.334 297.988 148.502 297.967 149.669 297.927C150.837 297.967 152.005 297.988 153.172 297.997C196.7 298.31 237.109 276.703 237.109 276.703C237.71 276.307 238.107 276.14 238.346 276.119C238.372 276.118 238.407 276.118 238.429 276.119C238.436 276.12 238.45 276.118 238.457 276.119C238.468 276.123 238.49 276.13 238.499 276.133C238.506 276.137 238.522 276.145 238.526 276.147C238.531 276.149 238.547 276.157 238.554 276.161C238.556 276.162 238.566 276.173 238.568 276.175C238.577 276.184 238.588 276.194 238.596 276.203C238.598 276.205 238.607 276.214 238.61 276.217C238.613 276.224 238.621 276.24 238.624 276.244C238.626 276.249 238.634 276.265 238.637 276.272C238.638 276.274 238.636 276.283 238.637 276.286C238.641 276.303 238.649 276.325 238.651 276.342C238.652 276.344 238.651 276.352 238.651 276.356C238.654 276.369 238.663 276.397 238.665 276.411C238.665 276.415 238.665 276.422 238.665 276.425C238.664 276.506 238.649 276.613 238.623 276.717C239.369 274.629 238.665 273.353 238.665 273.353C238.665 273.353 231.97 261.92 230.173 257.216C229.112 254.44 228.417 253.591 227.518 253.63C226.84 253.66 226.041 254.2 224.891 254.784C209.004 262.85 190.189 270.579 162.137 273.27C159.545 273.519 156.871 273.723 154.117 273.881C153.079 273.941 152.038 273.987 150.989 274.007C150.902 274.008 150.813 274.005 150.725 274.007C150.463 274.011 150.196 274.019 149.933 274.02C149.758 274.022 149.58 274.02 149.405 274.02C149.147 274.019 148.884 274.011 148.627 274.007C148.539 274.006 148.45 274.007 148.363 274.007C147.314 273.987 146.259 273.941 145.221 273.881C142.463 273.722 139.796 273.519 137.202 273.27C109.154 270.578 90.3324 262.85 74.4469 254.784C73.2969 254.2 72.4976 253.66 71.82 253.63C71.7568 253.628 71.7011 253.624 71.6397 253.63Z" fill="#CC0000" stroke="black" stroke-width="0.444772" stroke-linejoin="round"/>
<path d="M212.883 270.836C212.429 270.83 212.031 270.9 211.701 271.031C211.03 271.298 210.57 271.729 210.297 272.324C210.109 272.735 210.017 273.217 210.019 273.769C210.337 273.591 210.649 273.427 210.979 273.297C211.515 273.084 212.079 272.962 212.674 272.935C213.203 272.912 213.82 272.97 214.523 273.102C215.088 273.207 215.802 273.382 216.663 273.63L209.7 276.396L209.463 275.687C209.229 274.989 208.873 274.405 208.393 273.936C207.968 273.521 207.406 273.157 206.698 272.838L206.656 274.575C207.261 274.915 207.758 275.28 208.157 275.659C208.506 275.991 208.773 276.332 208.963 276.688L208.769 276.771L209.283 278.022C209.268 278.454 209.153 278.936 208.963 279.482C208.629 280.429 208.14 281.294 207.476 282.067C206.741 282.914 205.943 283.48 205.099 283.763C204.717 283.891 204.284 283.988 203.779 284.054C203.282 284.126 202.797 284.189 202.333 284.249L202.292 284.708C202.819 284.729 203.356 284.745 203.89 284.763C204.521 284.786 205.053 284.785 205.488 284.749C206.06 284.704 206.577 284.596 207.031 284.444C207.525 284.278 208.066 283.84 208.671 283.109C209.309 282.346 209.793 281.53 210.103 280.663C210.457 279.691 210.516 278.838 210.284 278.12L220.638 274.005L219.957 272.324L219.388 272.56C219.087 272.612 218.405 272.439 217.344 272.046C215.978 271.542 214.999 271.219 214.426 271.073C213.848 270.928 213.336 270.843 212.883 270.836ZM187.906 271.059L187.531 272.699L189.393 273.13L189.796 271.462L187.906 271.059ZM185.835 272.588L185.488 274.242L187.336 274.659L187.711 272.991L185.835 272.588ZM189.838 274.645C189.694 274.942 189.585 275.216 189.518 275.479C189.439 275.802 189.429 276.07 189.49 276.299C189.505 276.352 189.57 276.498 189.671 276.716C189.779 276.931 189.852 277.055 189.88 277.105C188.891 277.93 188.108 278.798 187.545 279.704C186.979 280.603 186.779 281.35 186.933 281.928C186.976 282.089 187.27 282.151 187.809 282.122C188.353 282.085 189.01 281.967 189.782 281.761C190.125 281.67 190.419 281.468 190.672 281.177C190.925 280.887 191.099 280.537 191.2 280.107C191.628 281.036 192.066 281.773 192.507 282.317C193.096 283.044 193.635 283.336 194.119 283.207L194.772 283.026V283.04L195.175 282.915L195.55 282.817V282.804L200.457 281.344L199.734 278.898C199.381 277.712 199.038 276.897 198.706 276.438C198.484 276.134 198.045 275.747 197.385 275.284L197.093 277.147C197.754 277.537 198.188 277.857 198.4 278.106C198.709 278.463 198.986 279.029 199.22 279.815L194.244 281.302L193.646 281.455C193.425 281.515 193.11 281.222 192.715 280.58C192.459 280.159 192.123 279.501 191.7 278.592L190.936 276.938C190.731 276.547 190.544 276.168 190.366 275.798C190.195 275.427 190.016 275.043 189.838 274.645ZM159.037 277.355L158.273 278.814L159.649 279.537L160.4 278.064L159.037 277.355ZM156.772 278.217L156.049 279.69L157.397 280.413L158.092 278.926L156.772 278.217ZM190.352 278.217L190.839 279.259C190.589 279.779 190.255 280.097 189.852 280.204C189.523 280.292 189.27 280.341 189.073 280.357C188.877 280.374 188.689 280.366 188.531 280.343C188.661 279.913 188.866 279.543 189.143 279.231C189.418 278.914 189.824 278.581 190.352 278.217ZM177.398 278.272L177.648 280.288C178.698 280.394 179.526 280.865 180.136 281.706C180.627 282.379 180.988 283.322 181.234 284.541L177.287 285.347C177.001 285.405 176.762 285.402 176.578 285.333C176.356 285.251 176.181 285.069 176.05 284.805L175.814 284.861C175.79 285.128 175.784 285.367 175.8 285.583C175.815 285.8 175.845 286.033 175.897 286.292C175.959 286.599 176.171 286.838 176.523 287.001C176.881 287.162 177.26 287.205 177.648 287.126L182.221 286.195L181.86 284.416C181.526 282.768 181.058 281.48 180.456 280.538C179.709 279.37 178.694 278.613 177.398 278.272ZM172.923 281.219L172.408 283.026C173.017 283.493 173.409 283.866 173.59 284.138C173.854 284.53 174.049 285.123 174.188 285.931L169.948 286.654C169.873 286.172 169.614 285.574 169.142 284.861C168.781 284.32 168.312 283.712 167.738 283.054C167.292 283.226 166.817 283.553 166.321 284.027C165.768 284.557 165.324 285.157 164.986 285.82C164.737 286.309 164.442 286.702 164.097 287.001C163.651 287.384 163.111 287.625 162.484 287.71L161.803 287.807L161.623 286C161.529 285.032 161.301 284.211 160.942 283.526C160.488 282.663 159.91 282.263 159.204 282.331C158.589 282.391 158.103 282.8 157.745 283.568C157.427 284.248 157.299 284.954 157.37 285.681C157.45 286.511 157.903 287.066 158.732 287.335C159.099 287.453 159.888 287.541 161.095 287.599C160.752 287.737 160.437 287.827 160.135 287.891C159.841 287.947 159.466 288.002 159.037 288.044L156.452 288.294L156.424 287.64C156.389 286.905 156.203 286.249 155.868 285.667C155.572 285.152 155.129 284.652 154.534 284.152L154.02 285.806C154.51 286.297 154.893 286.778 155.174 287.251C155.4 287.634 155.555 288.011 155.646 288.377L155.479 288.391L155.618 289.795C155.489 290.219 155.252 290.667 154.909 291.157C154.33 291.978 153.618 292.679 152.769 293.242C151.832 293.858 150.919 294.185 150.031 294.229C149.628 294.248 149.173 294.218 148.669 294.145C148.171 294.079 147.686 294.019 147.223 293.951L147.07 294.368C147.572 294.531 148.076 294.705 148.585 294.868C149.186 295.061 149.7 295.188 150.128 295.271C150.69 295.383 151.22 295.433 151.699 295.41C152.219 295.385 152.864 295.101 153.645 294.562C154.466 294 155.14 293.352 155.674 292.602C156.286 291.752 156.587 290.934 156.55 290.17V290.114L161.15 289.67V289.711L162.762 289.503C163.561 289.395 164.154 289.217 164.542 288.975C164.935 288.725 165.306 288.322 165.64 287.779C166.206 288.13 166.829 288.379 167.53 288.53C168.136 288.658 168.681 288.704 169.142 288.641L170.212 288.488V288.46L175.244 287.599L174.827 285.083C174.618 283.864 174.366 283.007 174.09 282.512C173.907 282.183 173.523 281.758 172.923 281.219ZM199.109 282.998L198.789 284.638L200.651 285.027L201.013 283.346L199.109 282.998ZM159.01 284.18C159.411 284.141 159.774 284.369 160.108 284.861C160.279 285.116 160.465 285.518 160.678 286.056C159.952 286.063 159.501 286.044 159.302 286C158.738 285.873 158.421 285.539 158.37 285.014C158.35 284.806 158.4 284.623 158.523 284.458C158.647 284.292 158.816 284.198 159.01 284.18ZM167.405 284.583C167.713 284.891 167.967 285.198 168.169 285.5C168.407 285.86 168.609 286.225 168.753 286.612L168.67 286.765C168.264 286.771 167.819 286.694 167.335 286.542C166.859 286.39 166.48 286.194 166.196 285.959C166.355 285.586 166.508 285.318 166.64 285.153C166.837 284.894 167.085 284.71 167.405 284.583ZM197.093 284.583L196.787 286.251L198.65 286.612L198.984 284.93L197.093 284.583ZM173.701 289.072L173.187 290.67L175.008 291.268L175.55 289.656L173.701 289.072ZM171.519 290.406L171.005 292.033L172.825 292.616L173.34 290.99L171.519 290.406Z" fill="black"/>
<path d="M257.799 95.1942C257.48 94.5996 255.8 96.9489 255.085 96.3494C250.752 89.2766 249.731 86.9247 243.883 82.1266C241.653 80.2968 235.685 78.8736 230.809 71.0355C237.304 72.164 244.473 78.6948 244.473 78.6948C244.473 78.6948 237.072 70.0284 234.382 63.4473C246.321 70.3918 246.923 77.269 249.014 80.9897C251.868 86.0683 252.768 87.652 257.799 95.1942Z" fill="#DADA12" stroke="black" stroke-width="0.444772" stroke-linejoin="round"/>
<path d="M267.25 113.204C266.931 112.61 265.251 115.404 264.536 114.804C261.315 107.509 259.953 105.091 254.891 99.4697C249.129 93.0703 240.104 95.9303 235.145 81.2623C248.488 86.6605 255.878 94.9168 255.878 94.9168C255.878 94.9168 249.678 84.4805 254.205 75.1309C260.203 88.9274 258.185 85.889 259.964 97.3694C261.027 104.234 263.553 105.44 267.25 113.204Z" fill="#DADA12" stroke="black" stroke-width="0.444772" stroke-linejoin="round"/>
<path d="M274.771 134.515C274.452 133.921 271.883 136.492 271.168 135.893C268.836 129.042 269.777 124.508 265.081 118.779C258.902 111.24 245.847 108.346 244.223 96.5686C258.011 100.188 265.623 112.892 265.623 112.892C265.623 112.892 259.868 99.5644 267.064 87.7686C273.062 101.565 266.819 106.31 269.487 118.235C271.003 125.014 272.408 127.64 274.771 134.515Z" fill="#DADA12" stroke="black" stroke-width="0.444772" stroke-linejoin="round"/>
<path d="M274.407 164.802C274.087 164.207 271.296 165.444 270.581 164.845C270.695 158.217 273.296 149.265 271.166 142.171C268.1 131.964 257.269 129.514 255.645 117.737C269.432 121.356 272.597 134.06 272.597 134.06C272.597 134.06 268.844 119.621 276.039 107.825C279.146 121.177 277.686 130.037 275.571 142.073C274.419 148.629 274.268 158.371 274.407 164.802Z" fill="#DADA12" stroke="black" stroke-width="0.444772" stroke-linejoin="round"/>
<path d="M268.529 192.934C268.21 192.34 265.863 192.91 265.148 192.31C265.707 186.35 268.16 178.549 269.068 172.528C270.702 161.7 259.174 147.862 260.441 135.195C274.007 143.485 272.502 163.75 272.502 163.75C272.502 163.75 271.417 149.978 283.282 135.958C284.61 151.089 277.563 160.414 273.029 171.762C270.765 177.428 269.057 186.949 268.529 192.934Z" fill="#DADA12" stroke="black" stroke-width="0.444772" stroke-linejoin="round"/>
<path d="M258.519 213.454C258.199 212.86 256.965 213.652 256.25 213.053C259.7 208.426 260.373 204.407 262.394 198.608C265.997 188.267 257.17 166.825 261.773 154.604C272.225 164.672 266.939 191.164 266.939 191.164C266.939 191.164 269.857 173.834 285.058 156.7C284.83 177.391 273.24 188.791 266.8 199.176C263.424 204.62 262.383 209.47 258.519 213.454Z" fill="#DADA12" stroke="black" stroke-width="0.444772" stroke-linejoin="round"/>
<path d="M246.485 234.459C246.166 233.864 245.457 233.737 244.742 233.137C248.192 228.511 250.838 223.834 252.858 218.035C256.461 207.694 250.516 204.065 258.7 178.955C261.982 194.81 257.535 212.563 257.535 212.563C257.535 212.563 264.397 201.806 283.806 185.462C276.346 207.073 264.052 210.639 255.949 219.786C251.127 225.23 250.349 230.475 246.485 234.459Z" fill="#DADA12" stroke="black" stroke-width="0.444772" stroke-linejoin="round"/>
<path d="M235.091 249.144C234.771 248.55 234.062 248.29 233.348 247.691C236.798 243.064 236.652 243.124 240.543 238.373C246.645 230.925 241.851 224.727 251.815 199.172C254.319 218.878 245.746 233.559 245.746 233.559C245.746 233.559 250.768 224.774 274.12 210.533C262.059 231.355 251.737 230.583 243.634 239.73C238.812 245.174 238.955 245.16 235.091 249.144Z" fill="#DADA12" stroke="black" stroke-width="0.444772" stroke-linejoin="round"/>
<path d="M257.799 95.1942C257.48 94.5996 255.8 96.9489 255.085 96.3494C250.752 89.2766 249.731 86.9247 243.883 82.1266C241.653 80.2968 235.685 78.8736 230.809 71.0355C237.304 72.164 244.473 78.6948 244.473 78.6948C244.473 78.6948 237.072 70.0284 234.382 63.4473C246.321 70.3918 246.923 77.269 249.014 80.9897C251.868 86.0683 252.768 87.652 257.799 95.1942Z" fill="url(#paint0_radial_199_67168)"/>
<path d="M267.25 113.204C266.931 112.61 265.251 115.404 264.536 114.804C261.315 107.509 259.953 105.091 254.891 99.4697C249.129 93.0703 240.104 95.9303 235.145 81.2623C248.488 86.6605 255.878 94.9168 255.878 94.9168C255.878 94.9168 249.678 84.4805 254.205 75.1309C260.203 88.9274 258.185 85.889 259.964 97.3694C261.027 104.234 263.553 105.44 267.25 113.204Z" fill="url(#paint1_radial_199_67168)"/>
<path d="M274.771 134.515C274.452 133.921 271.883 136.492 271.168 135.893C268.836 129.042 269.777 124.508 265.081 118.779C258.902 111.24 245.847 108.346 244.223 96.5686C258.011 100.188 265.623 112.892 265.623 112.892C265.623 112.892 259.868 99.5644 267.064 87.7686C273.062 101.565 266.819 106.31 269.487 118.235C271.003 125.014 272.408 127.64 274.771 134.515Z" fill="url(#paint2_radial_199_67168)"/>
<path d="M274.407 164.802C274.087 164.207 271.296 165.444 270.581 164.845C270.695 158.217 273.296 149.265 271.166 142.171C268.1 131.964 257.269 129.514 255.645 117.737C269.432 121.356 272.597 134.06 272.597 134.06C272.597 134.06 268.844 119.621 276.039 107.825C279.146 121.177 277.686 130.037 275.571 142.073C274.419 148.629 274.268 158.371 274.407 164.802Z" fill="url(#paint3_radial_199_67168)"/>
<path d="M268.529 192.933C268.21 192.339 265.863 192.909 265.148 192.309C265.707 186.349 268.16 178.548 269.068 172.527C270.702 161.699 259.174 147.861 260.441 135.194C274.007 143.484 272.502 163.749 272.502 163.749C272.502 163.749 271.417 149.977 283.282 135.957C284.61 151.088 277.563 160.413 273.029 171.761C270.765 177.428 269.057 186.948 268.529 192.933Z" fill="url(#paint4_radial_199_67168)"/>
<path d="M258.519 213.454C258.199 212.86 256.965 213.652 256.25 213.053C259.7 208.426 260.373 204.407 262.394 198.608C265.997 188.267 257.17 166.825 261.773 154.604C272.225 164.672 266.939 191.164 266.939 191.164C266.939 191.164 269.857 173.834 285.058 156.7C284.83 177.391 273.24 188.791 266.8 199.176C263.424 204.62 262.383 209.47 258.519 213.454Z" fill="url(#paint5_radial_199_67168)"/>
<path d="M246.485 234.458C246.166 233.863 245.457 233.736 244.742 233.136C248.192 228.51 250.838 223.833 252.858 218.034C256.461 207.693 250.516 204.064 258.7 178.954C261.982 194.809 257.535 212.562 257.535 212.562C257.535 212.562 264.397 201.805 283.806 185.461C276.346 207.072 264.052 210.638 255.949 219.785C251.127 225.229 250.349 230.474 246.485 234.458Z" fill="url(#paint6_radial_199_67168)"/>
<path d="M235.091 249.144C234.771 248.55 234.062 248.29 233.348 247.691C236.798 243.064 236.652 243.124 240.543 238.373C246.645 230.925 241.851 224.727 251.815 199.172C254.319 218.878 245.746 233.559 245.746 233.559C245.746 233.559 250.768 224.774 274.12 210.533C262.059 231.355 251.737 230.583 243.634 239.73C238.812 245.174 238.955 245.16 235.091 249.144Z" fill="url(#paint7_radial_199_67168)"/>
<path d="M42.2635 95.1942C42.5828 94.5996 44.2622 96.9489 44.977 96.3494C49.3106 89.2766 50.3312 86.9247 56.1791 82.1266C58.4092 80.2968 64.3779 78.8736 69.2539 71.0355C62.7586 72.164 55.5891 78.6948 55.5891 78.6948C55.5891 78.6948 62.9906 70.0284 65.6801 63.4473C53.7419 70.3918 53.1394 77.269 51.0484 80.9897C48.1942 86.0683 47.2949 87.652 42.2635 95.1942Z" fill="#DADA12" stroke="black" stroke-width="0.444772" stroke-linejoin="round"/>
<path d="M32.8088 113.204C33.1281 112.61 34.8075 115.404 35.5223 114.804C38.744 107.509 40.106 105.091 45.1677 99.4697C50.9299 93.0703 59.9542 95.9303 64.9141 81.2623C51.5709 86.6605 44.1807 94.9168 44.1807 94.9168C44.1807 94.9168 50.3805 84.4805 45.8538 75.1309C39.8555 88.9274 41.8734 85.889 40.0948 97.3694C39.0314 104.234 36.5059 105.44 32.8088 113.204Z" fill="#DADA12" stroke="black" stroke-width="0.444772" stroke-linejoin="round"/>
<path d="M25.2913 134.515C25.6106 133.921 28.1795 136.492 28.8943 135.893C31.2264 129.042 30.2859 124.508 34.9815 118.779C41.1608 111.24 54.2157 108.346 55.8398 96.5686C42.0519 100.188 34.4393 112.892 34.4393 112.892C34.4393 112.892 40.1943 99.5644 32.999 87.7686C27.0006 101.565 33.244 106.31 30.5758 118.235C29.0592 125.014 27.654 127.64 25.2913 134.515Z" fill="#DADA12" stroke="black" stroke-width="0.444772" stroke-linejoin="round"/>
<path d="M25.6559 164.802C25.9752 164.207 28.7665 165.444 29.4813 164.845C29.3672 158.217 26.7661 149.265 28.8969 142.171C31.9628 131.964 42.7939 129.514 44.418 117.737C30.63 121.356 27.4652 134.06 27.4652 134.06C27.4652 134.06 31.2187 119.621 24.0234 107.825C20.9161 121.177 22.3764 130.037 24.4912 142.073C25.6433 148.629 25.7948 158.371 25.6559 164.802Z" fill="#DADA12" stroke="black" stroke-width="0.444772" stroke-linejoin="round"/>
<path d="M31.5337 192.934C31.853 192.34 34.1995 192.91 34.9144 192.31C34.3554 186.35 31.9028 178.549 30.9942 172.528C29.3602 161.7 40.8882 147.862 39.6213 135.195C26.0557 143.485 27.5609 163.75 27.5609 163.75C27.5609 163.75 28.6459 149.978 16.7804 135.958C15.4522 151.089 22.4995 160.414 27.0333 171.762C29.2972 177.428 31.0054 186.949 31.5337 192.934Z" fill="#DADA12" stroke="black" stroke-width="0.444772" stroke-linejoin="round"/>
<path d="M41.5399 213.454C41.8592 212.86 43.0938 213.652 43.8086 213.053C40.3586 208.426 39.6851 204.407 37.6645 198.608C34.0615 188.267 42.8884 166.825 38.2858 154.604C27.8336 164.672 33.1194 191.164 33.1194 191.164C33.1194 191.164 30.2013 173.834 15.0001 156.7C15.2286 177.391 26.819 188.791 33.2589 199.176C36.6348 204.62 37.6758 209.47 41.5399 213.454Z" fill="#DADA12" stroke="black" stroke-width="0.444772" stroke-linejoin="round"/>
<path d="M53.5775 234.459C53.8968 233.864 54.6055 233.737 55.3203 233.137C51.8704 228.511 49.2247 223.834 47.2041 218.035C43.6011 207.694 49.5468 204.065 41.3622 178.955C38.0809 194.81 42.5275 212.563 42.5275 212.563C42.5275 212.563 35.6653 201.806 16.2569 185.462C23.7164 207.073 36.0108 210.639 44.1132 219.786C48.9353 225.23 49.7134 230.475 53.5775 234.459Z" fill="#DADA12" stroke="black" stroke-width="0.444772" stroke-linejoin="round"/>
<path d="M64.9681 249.144C65.2874 248.55 65.9961 248.29 66.7109 247.691C63.261 243.064 63.4065 243.124 59.5151 238.373C53.414 230.925 58.2073 224.727 48.2436 199.172C45.74 218.878 54.3126 233.559 54.3126 233.559C54.3126 233.559 49.291 224.774 25.9384 210.533C37.9995 231.355 48.3218 230.583 56.4242 239.73C61.2463 245.174 61.104 245.16 64.9681 249.144Z" fill="#DADA12" stroke="black" stroke-width="0.444772" stroke-linejoin="round"/>
<path d="M42.2635 95.1942C42.5828 94.5996 44.2622 96.9489 44.977 96.3494C49.3106 89.2766 50.3312 86.9247 56.1791 82.1266C58.4092 80.2968 64.3779 78.8736 69.2539 71.0355C62.7586 72.164 55.5891 78.6948 55.5891 78.6948C55.5891 78.6948 62.9906 70.0284 65.6801 63.4473C53.7419 70.3918 53.1394 77.269 51.0484 80.9897C48.1942 86.0683 47.2949 87.652 42.2635 95.1942Z" fill="url(#paint8_radial_199_67168)"/>
<path d="M32.8127 113.204C33.132 112.61 34.8114 115.404 35.5262 114.804C38.7479 107.509 40.1099 105.091 45.1716 99.4697C50.9338 93.0703 59.9581 95.9303 64.918 81.2623C51.5748 86.6605 44.1846 94.9168 44.1846 94.9168C44.1846 94.9168 50.3844 84.4805 45.8577 75.1309C39.8594 88.9274 41.8773 85.889 40.0987 97.3694C39.0353 104.234 36.5098 105.44 32.8127 113.204Z" fill="url(#paint9_radial_199_67168)"/>
<path d="M25.2913 134.515C25.6106 133.921 28.1795 136.492 28.8943 135.893C31.2264 129.042 30.2859 124.508 34.9815 118.779C41.1608 111.24 54.2157 108.346 55.8398 96.5686C42.0519 100.188 34.4393 112.892 34.4393 112.892C34.4393 112.892 40.1943 99.5644 32.999 87.7686C27.0006 101.565 33.244 106.31 30.5758 118.235C29.0592 125.014 27.654 127.64 25.2913 134.515Z" fill="url(#paint10_radial_199_67168)"/>
<path d="M25.6559 164.802C25.9752 164.207 28.7665 165.444 29.4813 164.845C29.3672 158.217 26.7661 149.265 28.8969 142.171C31.9628 131.964 42.7939 129.514 44.418 117.737C30.63 121.356 27.4652 134.06 27.4652 134.06C27.4652 134.06 31.2187 119.621 24.0234 107.825C20.9161 121.177 22.3764 130.037 24.4912 142.073C25.6433 148.629 25.7948 158.371 25.6559 164.802Z" fill="url(#paint11_radial_199_67168)"/>
<path d="M31.5337 192.933C31.853 192.339 34.1995 192.909 34.9144 192.309C34.3554 186.349 31.9028 178.548 30.9942 172.527C29.3602 161.699 40.8882 147.861 39.6213 135.194C26.0557 143.484 27.5609 163.749 27.5609 163.749C27.5609 163.749 28.6459 149.977 16.7804 135.957C15.4522 151.088 22.4995 160.413 27.0333 171.761C29.2972 177.428 31.0054 186.948 31.5337 192.933Z" fill="url(#paint12_radial_199_67168)"/>
<path d="M41.5438 213.454C41.8631 212.86 43.0977 213.652 43.8125 213.053C40.3625 208.426 39.689 204.407 37.6684 198.608C34.0654 188.267 42.8924 166.825 38.2897 154.604C27.8375 164.672 33.1233 191.164 33.1233 191.164C33.1233 191.164 30.2052 173.834 15.004 156.7C15.2325 177.391 26.8229 188.791 33.2628 199.176C36.6387 204.62 37.6797 209.47 41.5438 213.454Z" fill="url(#paint13_radial_199_67168)"/>
<path d="M53.5775 234.458C53.8968 233.863 54.6055 233.736 55.3203 233.136C51.8704 228.51 49.2247 223.833 47.2041 218.034C43.6011 207.693 49.5468 204.064 41.3622 178.954C38.0809 194.809 42.5275 212.562 42.5275 212.562C42.5275 212.562 35.6653 201.805 16.2569 185.461C23.7164 207.072 36.0108 210.638 44.1132 219.785C48.9353 225.229 49.7134 230.474 53.5775 234.458Z" fill="url(#paint14_radial_199_67168)"/>
<path d="M64.972 249.144C65.2913 248.55 66 248.29 66.7148 247.691C63.2649 243.064 63.4104 243.124 59.519 238.373C53.4179 230.925 58.2112 224.727 48.2475 199.172C45.7439 218.878 54.3165 233.559 54.3165 233.559C54.3165 233.559 49.2949 224.774 25.9423 210.533C38.0034 231.355 48.3257 230.583 56.4281 239.73C61.2502 245.174 61.1079 245.16 64.972 249.144Z" fill="url(#paint15_radial_199_67168)"/>
<path d="M87.416 268.223L86.1234 269.348L87.3743 270.78L88.6669 269.682L87.416 268.223ZM89.9734 268.237L88.6947 269.335L89.9317 270.794L91.2383 269.696L89.9734 268.237ZM87.4994 272.087L86.2485 273.476L86.3875 273.574C85.9701 273.998 85.5588 274.432 85.1504 274.853C84.6865 275.355 84.3588 275.833 84.1775 276.284C84.0195 276.678 84.075 277.041 84.3443 277.396C84.5787 277.707 84.9298 277.958 85.4006 278.147C86.6195 278.636 87.6045 278.617 88.3472 278.091C88.8277 277.752 89.2469 277.138 89.6121 276.229C89.8425 275.655 89.6819 274.941 89.1256 274.088C88.9646 273.836 88.4207 273.168 87.4994 272.087ZM95.3524 272.295L94.5184 274.158C95.3607 274.793 95.823 275.624 95.9084 276.659C95.9787 277.49 95.8154 278.491 95.3941 279.662L91.5857 278.299C91.3111 278.201 91.1236 278.065 91.002 277.91C90.8547 277.724 90.7828 277.482 90.8074 277.188L90.585 277.118C90.426 277.334 90.2949 277.536 90.1958 277.73C90.0967 277.923 90.0073 278.134 89.9178 278.383C89.8119 278.677 89.868 278.992 90.0846 279.314C90.3077 279.638 90.6014 279.861 90.9742 279.995L94.5601 281.288L94.5323 281.371L106.041 284.888L106.569 283.15L105.971 282.97C105.704 282.823 105.276 282.258 104.693 281.288C103.94 280.041 103.396 279.189 103.039 278.716C102.318 277.77 101.618 277.186 100.94 276.979C100.249 276.768 99.6056 276.81 99.0218 277.104C98.6181 277.308 98.2388 277.63 97.8959 278.063C98.2558 278.122 98.6133 278.21 98.9523 278.313C99.504 278.482 100.013 278.741 100.495 279.092C100.923 279.404 101.377 279.828 101.843 280.37C102.219 280.805 102.66 281.39 103.178 282.122L95.9779 279.912L95.9917 279.87C96.5613 278.288 96.8241 276.943 96.7979 275.825C96.7648 274.44 96.2835 273.258 95.3524 272.295ZM87.0268 274.338C87.3077 274.646 87.5581 274.946 87.7913 275.242C88.3375 275.933 88.5707 276.4 88.4723 276.646C88.405 276.813 88.1191 276.916 87.6106 276.951C87.1047 276.98 86.6652 276.916 86.3041 276.771C85.9945 276.646 85.7792 276.456 85.6647 276.201C85.5592 275.941 85.5743 275.654 85.7064 275.325C85.797 275.099 85.9808 274.893 86.2623 274.714C86.3515 274.659 86.6097 274.538 87.0268 274.338ZM126.069 275.506L125.069 276.854L126.598 278.008L127.64 276.646L126.069 275.506ZM123.568 276.076L122.567 277.438L124.11 278.577L125.124 277.201L123.568 276.076ZM137.022 276.34C136.835 276.691 136.683 277.055 136.563 277.438C136.451 277.821 136.358 278.22 136.285 278.633L136.911 278.994C137.053 279.664 137.16 280.226 137.244 280.69C137.402 281.583 137.511 282.353 137.578 283.011C137.665 283.914 137.69 284.743 137.647 285.485C137.629 285.811 137.577 286.151 137.481 286.5C137.384 286.842 137.262 287.161 137.119 287.459C136.501 287.792 135.945 288.022 135.465 288.14C135.049 288.241 134.617 288.278 134.145 288.251L133.547 288.223L133.645 287.403C133.788 286.175 133.797 285.274 133.672 284.721C133.589 284.354 133.346 283.836 132.922 283.15L131.907 284.735C132.36 285.354 132.644 285.827 132.741 286.139C132.885 286.589 132.905 287.214 132.811 288.029L127.668 287.431L127.112 287.348C126.885 287.312 126.711 286.914 126.612 286.166C126.548 285.678 126.518 284.931 126.5 283.929L126.473 282.108C126.444 281.667 126.416 281.239 126.403 280.829C126.397 280.42 126.391 280.001 126.389 279.564C126.137 279.778 125.931 279.991 125.764 280.204C125.56 280.467 125.439 280.721 125.402 280.954C125.394 281.009 125.398 281.159 125.402 281.399C125.414 281.64 125.411 281.787 125.416 281.844C124.178 282.197 123.13 282.676 122.247 283.275C121.366 283.868 120.867 284.45 120.774 285.041C120.748 285.205 120.992 285.39 121.497 285.583C122.009 285.769 122.667 285.917 123.456 286.041C123.807 286.097 124.149 286.051 124.499 285.888C124.848 285.726 125.15 285.462 125.416 285.11C125.43 286.133 125.54 286.978 125.722 287.654C125.966 288.558 126.326 289.049 126.82 289.127L127.459 289.224V289.238L127.654 289.266L128.293 289.363V289.335L132.449 289.808L132.435 289.975L145.57 290.739L145.723 288.098C145.776 287.176 145.603 286.454 145.209 285.93C144.775 285.355 144.088 285.039 143.152 284.985C142.416 284.943 141.524 285.142 140.469 285.569C140.12 285.709 139.319 286.092 138.064 286.722C138.181 286.277 138.254 285.949 138.301 285.736C138.433 285.138 138.523 284.588 138.551 284.095C138.584 283.513 138.536 282.79 138.426 281.927C138.323 281.058 138.177 280.209 137.981 279.384L138.12 279.439C138.325 279.514 138.447 279.555 138.495 279.564C138.609 279.285 138.686 279.048 138.732 278.855C138.777 278.663 138.857 278.204 138.968 277.493C138.464 277.416 138.049 277.296 137.731 277.132C137.346 276.929 137.114 276.672 137.022 276.34ZM147.905 277.869C147.745 278.182 147.571 278.515 147.391 278.869C147.217 279.224 147.057 279.55 146.918 279.856C147.037 280.746 147.154 281.615 147.252 282.469C147.413 283.88 147.542 285.242 147.655 286.542C147.774 287.834 147.835 288.835 147.836 289.558C147.836 289.648 147.828 289.822 147.808 290.086C147.794 290.35 147.773 290.593 147.752 290.795L147.947 290.892C148.294 290.287 148.524 289.85 148.628 289.572C148.829 289.05 148.92 288.515 148.92 287.959C148.919 287.257 148.865 286.208 148.739 284.832C148.641 283.727 148.497 282.497 148.322 281.121C148.154 279.745 148.017 278.661 147.905 277.869ZM114.075 281.58C113.645 281.611 113.22 281.856 112.81 282.302C112.34 282.817 112.021 283.414 111.851 284.109C111.665 284.865 111.78 285.474 112.212 285.93C112.593 286.331 113.247 286.638 114.158 286.861C113.449 287.446 112.914 287.866 112.546 288.112C111.818 288.599 111.116 288.937 110.461 289.127C109.622 289.365 108.796 289.385 107.973 289.183C107.642 289.101 107.282 288.956 106.889 288.752C106.5 288.556 106.133 288.376 105.777 288.196L105.513 288.501C105.915 288.758 106.321 289.017 106.722 289.28C107.231 289.598 107.647 289.844 107.973 290.003C108.42 290.22 108.862 290.38 109.307 290.489C110.508 290.784 111.715 290.422 112.935 289.419C114.028 288.521 114.719 287.516 114.992 286.403L115.27 285.249C115.503 284.297 115.592 283.539 115.52 282.956C115.431 282.211 115.093 281.766 114.505 281.621C114.36 281.586 114.218 281.569 114.075 281.58ZM125.416 283.039L125.43 284.193C124.991 284.567 124.563 284.73 124.151 284.665C123.815 284.612 123.56 284.549 123.373 284.485C123.186 284.42 123.021 284.347 122.887 284.262C123.18 283.922 123.522 283.656 123.901 283.484C124.281 283.305 124.785 283.158 125.416 283.039ZM113.546 283.164C113.637 283.152 113.73 283.155 113.824 283.178C114.088 283.243 114.293 283.404 114.422 283.665C114.57 283.966 114.627 284.467 114.617 285.152C113.942 284.986 113.482 284.782 113.227 284.54C112.973 284.292 112.881 283.995 112.963 283.665C113.009 283.476 113.117 283.336 113.282 283.248C113.369 283.201 113.456 283.176 113.546 283.164ZM141.623 286.82C141.76 286.814 141.899 286.812 142.026 286.82C142.706 286.859 143.218 286.987 143.568 287.195C143.926 287.397 144.089 287.675 144.069 288.029C144.038 288.563 143.204 288.777 141.567 288.682L137.036 288.432C137.532 288.161 138.017 287.919 138.481 287.709C139.11 287.425 139.709 287.205 140.26 287.056C140.764 286.918 141.212 286.838 141.623 286.82ZM131.462 290.906L130.503 292.296L132.074 293.38L133.061 291.99L131.462 290.906ZM128.974 291.573L128.029 292.991L129.614 294.061L130.573 292.643L128.974 291.573Z" fill="black"/>
<defs>
<radialGradient id="paint0_radial_199_67168" cx="0" cy="0" r="1" gradientUnits="userSpaceOnUse" gradientTransform="translate(244.304 79.9477) scale(13.4952 13.4952)">
<stop stop-color="#A49528"/>
<stop offset="1" stop-color="#A49528" stop-opacity="0"/>
</radialGradient>
<radialGradient id="paint1_radial_199_67168" cx="0" cy="0" r="1" gradientUnits="userSpaceOnUse" gradientTransform="translate(251.197 95.0101) scale(16.0526)">
<stop stop-color="#A49528"/>
<stop offset="1" stop-color="#A49528" stop-opacity="0"/>
</radialGradient>
<radialGradient id="paint2_radial_199_67168" cx="0" cy="0" r="1" gradientUnits="userSpaceOnUse" gradientTransform="translate(259.497 111.876) scale(15.2743 15.2743)">
<stop stop-color="#A49528"/>
<stop offset="1" stop-color="#A49528" stop-opacity="0"/>
</radialGradient>
<radialGradient id="paint3_radial_199_67168" cx="0" cy="0" r="1" gradientUnits="userSpaceOnUse" gradientTransform="translate(266.736 136.419) scale(11.0915 11.0915)">
<stop stop-color="#A49528"/>
<stop offset="1" stop-color="#A49528" stop-opacity="0"/>
</radialGradient>
<radialGradient id="paint4_radial_199_67168" cx="0" cy="0" r="1" gradientUnits="userSpaceOnUse" gradientTransform="translate(271.895 164.064) scale(11.5511 11.5511)">
<stop stop-color="#A49528"/>
<stop offset="1" stop-color="#A49528" stop-opacity="0"/>
</radialGradient>
<radialGradient id="paint5_radial_199_67168" cx="0" cy="0" r="1" gradientUnits="userSpaceOnUse" gradientTransform="translate(270.654 184.029) scale(14.4042 14.4043)">
<stop stop-color="#A49528"/>
<stop offset="1" stop-color="#A49528" stop-opacity="0"/>
</radialGradient>
<radialGradient id="paint6_radial_199_67168" cx="0" cy="0" r="1" gradientUnits="userSpaceOnUse" gradientTransform="translate(264.274 206.706) scale(19.5317 19.5317)">
<stop stop-color="#A49528"/>
<stop offset="1" stop-color="#A49528" stop-opacity="0"/>
</radialGradient>
<radialGradient id="paint7_radial_199_67168" cx="0" cy="0" r="1" gradientUnits="userSpaceOnUse" gradientTransform="translate(253.734 224.158) scale(20.3863)">
<stop stop-color="#A49528"/>
<stop offset="1" stop-color="#A49528" stop-opacity="0"/>
</radialGradient>
<radialGradient id="paint8_radial_199_67168" cx="0" cy="0" r="1" gradientUnits="userSpaceOnUse" gradientTransform="translate(55.7587 79.9477) rotate(180) scale(13.4952 13.4952)">
<stop stop-color="#A49528"/>
<stop offset="1" stop-color="#A49528" stop-opacity="0"/>
</radialGradient>
<radialGradient id="paint9_radial_199_67168" cx="0" cy="0" r="1" gradientUnits="userSpaceOnUse" gradientTransform="translate(48.8653 95.0101) rotate(180) scale(16.0526)">
<stop stop-color="#A49528"/>
<stop offset="1" stop-color="#A49528" stop-opacity="0"/>
</radialGradient>
<radialGradient id="paint10_radial_199_67168" cx="0" cy="0" r="1" gradientUnits="userSpaceOnUse" gradientTransform="translate(40.5655 111.876) rotate(180) scale(15.2743 15.2743)">
<stop stop-color="#A49528"/>
<stop offset="1" stop-color="#A49528" stop-opacity="0"/>
</radialGradient>
<radialGradient id="paint11_radial_199_67168" cx="0" cy="0" r="1" gradientUnits="userSpaceOnUse" gradientTransform="translate(33.3265 136.419) rotate(180) scale(11.0915 11.0915)">
<stop stop-color="#A49528"/>
<stop offset="1" stop-color="#A49528" stop-opacity="0"/>
</radialGradient>
<radialGradient id="paint12_radial_199_67168" cx="0" cy="0" r="1" gradientUnits="userSpaceOnUse" gradientTransform="translate(28.1676 164.064) rotate(180) scale(11.5511 11.5511)">
<stop stop-color="#A49528"/>
<stop offset="1" stop-color="#A49528" stop-opacity="0"/>
</radialGradient>
<radialGradient id="paint13_radial_199_67168" cx="0" cy="0" r="1" gradientUnits="userSpaceOnUse" gradientTransform="translate(29.4082 184.029) rotate(180) scale(14.4042 14.4043)">
<stop stop-color="#A49528"/>
<stop offset="1" stop-color="#A49528" stop-opacity="0"/>
</radialGradient>
<radialGradient id="paint14_radial_199_67168" cx="0" cy="0" r="1" gradientUnits="userSpaceOnUse" gradientTransform="translate(35.7886 206.706) rotate(180) scale(19.5317 19.5317)">
<stop stop-color="#A49528"/>
<stop offset="1" stop-color="#A49528" stop-opacity="0"/>
</radialGradient>
<radialGradient id="paint15_radial_199_67168" cx="0" cy="0" r="1" gradientUnits="userSpaceOnUse" gradientTransform="translate(46.3286 224.158) rotate(180) scale(20.3863)">
<stop stop-color="#A49528"/>
<stop offset="1" stop-color="#A49528" stop-opacity="0"/>
</radialGradient>
</defs>
</svg>
