<svg width="300" height="300" viewBox="0 0 300 300" fill="none" xmlns="http://www.w3.org/2000/svg">
<path fill-rule="evenodd" clip-rule="evenodd" d="M133.646 267.306L183.511 217.441C219.903 187.484 252.815 194.806 285.605 203.447C255.211 181.348 221.201 172.468 179.175 203.447L119.652 253.706L133.646 267.306Z" fill="#E4EDF3" stroke="#505050" stroke-width="0.917122"/>
<path fill-rule="evenodd" clip-rule="evenodd" d="M124.777 275.387L106.842 294.308C99.0351 300.669 91.8023 297.94 86.3438 292.337C82.0098 283.141 90.9246 277.684 97.381 281.299L114.134 263.167C116.98 259.676 115.075 258.086 112.754 256.663L109.207 253.706C104.341 247.36 111.889 243.768 115.317 247.399L123.397 256.071C123.397 256.071 163.971 225.099 164.59 224.931C164.365 225.493 131.281 263.955 131.281 263.955L139.953 270.262C146.709 275.312 140.025 280.612 135.223 276.766L131.478 273.613C128.796 272.264 126.671 272.728 124.777 275.387Z" fill="#FFCC00" stroke="#9C6000" stroke-width="0.917122"/>
<path d="M125.355 266.867H120.337L120.059 261.85" stroke="#9C6000" stroke-width="0.917238"/>
<path d="M118.526 274.671H113.509L113.23 269.654" stroke="#9C6000" stroke-width="0.917238"/>
<path d="M112.112 282.475H107.095L106.816 277.458" stroke="#9C6000" stroke-width="0.917238"/>
<path d="M97.4805 281.36L102.498 286.099" stroke="#9C6000" stroke-width="0.917238"/>
<path d="M162.084 227.298L129.113 257.844" stroke="#9C6000" stroke-width="1.8347"/>
<path fill-rule="evenodd" clip-rule="evenodd" d="M165.959 267.329L116.094 217.464C79.7023 187.507 46.7895 194.829 14 203.471C44.3939 181.371 78.4038 172.491 120.43 203.471L179.953 253.73L165.959 267.329Z" fill="#E4EDF3" stroke="#505050" stroke-width="0.917122"/>
<path fill-rule="evenodd" clip-rule="evenodd" d="M174.828 275.41L192.764 294.331C200.57 300.692 207.803 297.964 213.262 292.36C217.596 283.165 208.681 277.708 202.224 281.323L185.472 263.19C182.625 259.7 184.53 258.11 186.851 256.686L190.399 253.73C195.264 247.384 187.717 243.792 184.289 247.423L176.208 256.095C176.208 256.095 135.803 225.235 135.016 224.954C135.297 225.686 168.324 263.979 168.324 263.979L159.652 270.286C152.897 275.336 159.581 280.635 164.383 276.79L168.127 273.636C170.81 272.287 172.935 272.752 174.828 275.41Z" fill="#FFCC00" stroke="#9C6000" stroke-width="0.917122"/>
<path d="M174.25 266.891H179.267L179.546 261.874" stroke="#9C6000" stroke-width="0.917238"/>
<path d="M181.078 274.696H186.095L186.374 269.679" stroke="#9C6000" stroke-width="0.917238"/>
<path d="M187.492 282.5H192.509L192.788 277.482" stroke="#9C6000" stroke-width="0.917238"/>
<path d="M202.123 281.385L197.105 286.123" stroke="#9C6000" stroke-width="0.917238"/>
<path d="M137.465 227.249L170.491 257.868" stroke="#9C6000" stroke-width="1.8347"/>
<path fill-rule="evenodd" clip-rule="evenodd" d="M154.732 71.1634H140.344C130.447 92.5553 138.648 95.9272 136.402 96.7855C134.562 97.4844 132.723 96.8749 130.883 96.5885C133.66 100.746 137.291 105.67 135.022 107.034C132.394 106.64 131.146 106.377 130.095 103.881L129.504 115.707C128.729 118.689 125.882 118.873 124.971 115.509C122.876 97.8385 126.54 81.4762 136.008 66.4331L133.446 65.2506C130.165 71.04 123.424 72.8302 125.168 88.9018C123.544 91.0863 122.327 90.833 121.226 89.8873L120.635 114.327C119.437 116.858 118.137 118.721 115.904 114.524L111.568 99.7419C109.407 93.4126 106.46 78.7998 121.029 68.9954C126.004 65.3252 130.507 61.8912 134.431 58.7465L128.518 60.3233C114.152 73.5042 94.1098 77.6003 96.9833 108.611C95.9695 110.897 94.4075 111.99 92.4502 109.005C90.3973 101.431 86.7897 94.3306 91.2676 82.989C97.339 73.0803 104.38 66.0931 114.13 58.9436C106.202 59.9324 98.0731 59.4453 91.6618 71.5576C89.6931 75.6721 88.1853 74.7172 86.7345 73.1343L84.5665 81.6093C82.1725 85.1936 78.8193 82.021 80.2304 78.85C81.8729 74.9082 87.6649 37.6363 123.591 52.2424C127.639 54.1761 131.343 53.5789 125.365 48.8918C121.006 46.7265 114.881 38.0352 100.728 44.5558C95.0383 49.4601 95.3233 42.7539 98.5601 40.4168C92.281 43.1942 86.2534 46.7259 81.0188 52.6366C77.6913 55.5699 75.5214 52.6154 76.8798 49.6802C82.8958 42.2623 89.8514 34.3439 106.05 34.3069C110.514 33.1244 107.795 31.9418 106.838 30.7592C91.8826 26.8809 90.365 31.4414 83.9752 37.4604C83.0701 39.1314 79.1302 39.0459 80.2304 35.2924C88.8156 18.1494 120.937 13.54 135.219 36.8691C136.821 39.021 138.823 37.2658 137.19 35.2924C133.598 31.8882 128.14 19.1233 115.116 19.722C113.234 19.8879 110.507 18.0471 111.962 16.7656C103.947 14.9763 93.5671 18.1416 85.5519 23.6639C85.3009 24.3749 77.9285 25.1117 79.0478 20.9046C96.9326 4.54235 127.899 7.06334 138.176 24.0581C137.35 19.8607 140.147 14.0064 131.081 12.2325C128.067 8.17457 141.528 1.96014 144.483 3.16617C151.024 5.12797 150.016 8.97684 150.593 12.4296C151.064 15.0367 151.933 16.0576 154.14 12.2325C165.719 -4.00132 188.635 5.59473 196.516 8.09351C200.211 10.7017 199.513 12.9715 195.53 13.2179L180.157 11.247C181.731 12.0086 182.217 14.3264 179.171 14.2034C170.866 12.7058 165.815 13.9011 162.412 18.139C162.442 18.4746 161.743 22.6819 156.982 22.2111C155.27 22.2568 153.034 23.079 152.236 25.8105C151.949 27.4599 153.331 28.0647 154.518 27.2387C162.925 19.5275 184.035 11.1761 202.034 23.0726L212.086 32.5331C215.961 36.5932 210.28 38.7219 208.735 36.2779C194.334 23.1787 182.391 25.9481 168.725 29.9709C168.211 31.5222 167.448 33.216 170.499 32.7302C194.746 25.6237 214.275 40.4038 217.605 54.4105C218.779 62.7849 213.985 62.0286 211.692 57.761C209.083 51.7637 207.552 43.4844 203.414 44.1616C203.414 44.1616 202.462 47.3527 198.684 46.1325C197.036 45.6006 193.792 39.3299 188.435 38.8401C189.264 41.7269 173.138 42.2404 164.192 41.9936C163.281 43.0651 162.059 44.1887 164.192 44.7529C187.113 39.1486 205.457 45.8283 218.393 67.0244L222.926 78.0617C225.999 90.4153 219.95 89.9519 215.239 83.9745C209.059 75.1754 203.627 65.6284 196.516 57.761C195.8 61.6663 193.901 60.8347 192.179 60.7174C182.198 51.7175 173.359 51.2907 164.389 49.8773C163.244 51.0921 161.958 52.327 164.389 53.0308C181.173 57.0403 204.723 65.0498 205.188 101.516C205.253 106.23 199.8 112.793 197.107 104.472L199.275 92.0553C200.223 90.1068 198.558 88.11 197.304 89.0989C195.393 90.9365 194.093 90.7371 193.756 87.3251C194.037 84.3895 193.013 81.1279 191.194 77.6675C189.874 82.4613 187.417 81.0044 185.084 80.2297L172.667 67.4186C186.893 89.855 178.884 101.885 176.806 105.655C174.469 107.29 171.785 108.487 171.288 104.669C171.615 100.556 171.857 97.4514 175.032 94.4204C177.127 90.6544 175.177 89.5521 173.653 89.6902C170.449 90.5361 171.154 82.7843 170.302 78.4558C166.98 78.2774 167.097 76.3793 167.937 74.1198C170.019 70.3414 166.833 68.5388 164.981 66.2361L161.039 67.2215C168.534 79.9571 170.402 97.6278 169.317 106.443C168.451 109.811 164.41 111.881 162.221 106.64C162.036 94.8146 157.862 82.989 154.732 71.1634Z" fill="#006C35" stroke="#001C00" stroke-width="0.917122"/>
<path d="M96.6562 84.0191C111.105 57.3945 131.308 57.2852 147.324 51.6523L135.957 63.3929" stroke="#001C00" stroke-width="0.917122"/>
<path d="M122.301 59.5078C119.235 63.1257 117.159 63.9736 113.004 69.7702" stroke="#001C00" stroke-width="0.917122"/>
<path d="M133.348 79.6379L147.144 51.9463C155.5 60.7555 163.302 72.5031 165.474 90.7737" stroke="#001C00" stroke-width="0.917122"/>
<path d="M159.648 61.7202C161.943 51.7745 153.899 52.4553 147.098 51.859C159.702 51.7619 166.153 56.0603 167.724 63.8445" stroke="#001C00" stroke-width="0.917122"/>
<path d="M147.02 51.6455C168.719 53.2394 187.673 67.0172 199.217 84.8146" stroke="#001C00" stroke-width="0.917122"/>
<path d="M175.676 61.3027L180.136 71.1977" stroke="#001C00" stroke-width="0.917122"/>
<path d="M182.645 66.3193L186.129 76.3537" stroke="#001C00" stroke-width="0.917122"/>
<path d="M90.6641 63.2538C98.6441 54.7862 110.042 51.1869 121.506 51.3584" stroke="#001C00" stroke-width="0.917122"/>
<path d="M93.1719 26.4606C111.424 25.9542 129.368 30.5814 145.295 49.0379C159.053 27.7557 174.668 14.0294 200.623 25.3457" stroke="#001C00" stroke-width="0.917122"/>
<path d="M89.6914 17.1601C100.779 12.1251 134.555 1.7089 145.469 48.695L143.498 9.27637" stroke="#001C00" stroke-width="0.917122"/>
<path d="M146.59 11.2266L143.855 16.5884" stroke="#001C00" stroke-width="0.917122"/>
<path d="M148.612 18.8145L144.301 25.3096" stroke="#001C00" stroke-width="0.917122"/>
<path d="M137.203 9.69922C140.039 12.4707 142.046 15.5974 143.978 18.7566" stroke="#001C00" stroke-width="0.917122"/>
<path d="M143.725 47.3334C139.225 43.6731 134.21 45.1635 129.371 44.8907" stroke="#001C00" stroke-width="0.917122"/>
<path d="M137.279 41.0273C131.008 38.8261 124.736 39.8393 118.465 39.8389" stroke="#001C00" stroke-width="0.917122"/>
<path d="M130.034 35.7309C123.674 34.6452 117.238 33.3611 111.777 34.6122" stroke="#001C00" stroke-width="0.917122"/>
<path d="M104.461 23.6064L112.266 28.1321" stroke="#001C00" stroke-width="0.917122"/>
<path d="M109.199 29.6338L118.398 30.0481" stroke="#001C00" stroke-width="0.917122"/>
<path d="M163.132 23.1201C161.55 26.8346 160.027 30.564 157 33.9172" stroke="#001C00" stroke-width="0.917122"/>
<path d="M151.148 46.567C168.028 34.2166 185.836 31.2175 204.944 41.337" stroke="#001C00" stroke-width="0.917122"/>
<path d="M158.113 17.6482C161.995 10.1331 170.311 6.41934 184.593 7.81918" stroke="#001C00" stroke-width="0.917122"/>
<path d="M144.738 34.372C146.14 31.291 147.571 28.4114 149.338 27.8877" stroke="#001C00" stroke-width="0.917122"/>
<path d="M154.492 48.7268C187.684 42.7047 209.333 52.957 219.855 78.8958" stroke="#001C00" stroke-width="0.917122"/>
<path d="M180.273 47.6113L187.381 54.6456" stroke="#001C00" stroke-width="0.917122"/>
<path d="M200.762 54.7197C206.881 62.1706 212.963 69.6549 215.814 80.0109" stroke="#001C00" stroke-width="0.917122"/>
<path fill-rule="evenodd" clip-rule="evenodd" d="M157.255 73.6661L153.708 76.0312L153.51 80.7614H157.649L153.708 84.9004V89.2365L158.438 89.4336L153.823 93.7457L153.716 97.0017L157.69 96.9409L153.748 101.08V105.416L158.478 105.613L153.863 109.925L153.809 115.331L157.809 115.47L153.867 119.609V123.945L158.597 124.142L153.982 128.454L153.875 131.71L157.849 131.65L153.907 135.789V140.125L158.638 140.322L154.023 144.634L154.08 148.647L158.384 148.371L154.203 153.667V157.29L158.662 157.569L154.481 162.168V166.628L158.941 166.767L153.924 172.342L153.784 176.801H158.244L153.784 181.401V185.721L158.662 185.442L153.924 191.853L154.063 197.01L148.261 196.919L141.671 196.794L141.81 191.637L137.072 185.226L141.95 185.505V181.185L137.49 176.586H141.95L141.81 172.126L136.793 166.551L141.253 166.412V161.952L137.072 157.353L141.531 157.075V153.451L137.35 148.155L141.654 148.432L141.711 144.418L137.096 140.106L141.827 139.909V135.573L137.885 131.434L141.859 131.495L141.752 128.239L137.137 123.927L141.867 123.729V119.393L137.925 115.254L141.925 115.115L141.871 109.71L137.256 105.397L141.986 105.2V100.864L138.044 96.7253L142.018 96.7861L141.911 93.5301L137.296 89.2179L142.026 89.0208V84.6848L138.085 80.5458H142.224L142.026 75.8156L138.479 73.4505C138.479 73.4505 142.062 66.4372 145.036 63.7335C147.112 61.8465 148.939 60.9461 151.521 63.9513C154.086 66.9373 157.255 73.6661 157.255 73.6661Z" fill="#006C35" stroke="#471D00" stroke-width="0.917122"/>
<path fill-rule="evenodd" clip-rule="evenodd" d="M130.006 210.233H169.424C168.93 200.84 176.214 194.689 181.644 187.764C178.249 189.13 170.609 193.553 166.665 200.378C166.662 197.189 167.884 194.933 169.227 192.692C164.327 194.369 162.861 198.755 160.358 202.349C160.536 198.894 164.149 191.328 168.636 188.553C164.585 188.71 160.267 192.321 156.416 198.013C156.552 192.366 159.823 187.229 163.117 184.217C160.222 184.726 153.329 190.292 151.686 197.619C149.994 192.757 151.257 187.896 152.08 183.034C147.945 186.333 146.824 192.144 145.773 198.013C145.773 198.013 141.089 186.098 139.86 184.611C140.119 186.81 140.649 198.802 140.649 198.802C136.444 192.356 133.422 188.902 130.4 187.37C130.4 187.37 137.301 198.755 137.495 199.984C132.563 196.849 127.572 193.951 122.122 192.889C125.846 196.34 130.329 199.487 131.582 203.926C125.908 200.94 122.186 200.393 118.574 199.984C121.875 202.358 127.783 204.638 130.006 210.233Z" fill="#006C35" stroke="#001C00" stroke-width="0.917122"/>
</svg>
