<svg width="300" height="300" viewBox="0 0 300 300" fill="none" xmlns="http://www.w3.org/2000/svg">
<path d="M209.856 62.3419L210.002 56.7814C210.002 56.7814 207.017 52.0255 210.482 46.9152C210.482 46.9152 203.12 43.0206 204.833 36.9217C204.833 36.9217 198.176 35.2196 198.666 27.8972C198.666 27.8972 191.48 27.399 190.736 21.2816C190.736 21.2816 183.551 22.4649 180.389 16.504C180.389 16.504 173.379 17.8744 171.402 12.9608C171.402 12.9608 164.588 15.3207 160.545 9.54486C160.545 9.54486 153.35 12.4519 150.334 7C147.358 12.4333 140.163 9.54486 140.163 9.54486C136.169 15.3002 129.306 12.9119 129.306 12.9119C127.397 17.845 120.407 16.4454 120.407 16.4454C117.255 22.4072 110.079 21.2219 110.079 21.2219C109.374 27.3207 102.199 27.8189 102.199 27.8189C102.766 35.1599 96.1192 36.8248 96.1192 36.8248C97.8715 42.9227 90.5195 46.8075 90.5195 46.8075C94.0731 51.9472 91.1168 56.665 91.1168 56.665L90.9503 61.7928L209.875 62.3419H209.856Z" fill="#F9D90F" stroke="black" stroke-width="0.638468"/>
<path d="M150.545 28.8255C153.731 32.043 150.752 33.801 147.813 32.1495C140.547 26.6509 132.055 23.6021 120.376 26.9261C103.594 26.9874 85.7673 25.9774 77.6162 34.88C77.0357 36.5976 72.4849 43.0686 90.0877 33.5741C88.9903 40.1399 97.1789 34.7728 103.509 31.7934C99.1478 36.3526 110.187 37.1004 117.169 32.6244C113.737 37.2282 119.765 37.1044 125.483 37.1355C133.847 37.3972 129.227 44.6707 114.912 44.9707C113.868 44.8982 109.855 46.7804 115.268 48.1759C117.775 48.3004 115.736 51.7965 124.414 47.345C123.875 49.9502 127.594 49.4455 132.847 47.8198C135.827 50.161 138.245 47.7341 140.805 46.5139C151.77 50.7997 166.248 55.0908 170.143 40.2221C179.294 39.168 186.868 37.825 182.768 34.3428C194.689 39.2028 195.379 37.3278 195.198 34.9304C200.915 37.0905 207.564 40.0152 204.856 35.2662C210.353 36.6704 216.372 37.1589 221.066 39.967C225.822 42.4298 224.283 38.1268 223.166 36.1896C220.73 32.2926 217.65 31.143 210.705 31.0006C204.816 30.8798 177.218 23.186 162.863 31.4888C162.863 31.4888 163.199 31.4888 162.947 31.4888C162.695 31.4888 156.983 26.1163 156.983 26.1163C158.297 26.0812 159.246 25.42 160.007 24.4375C165.606 24.7194 171.205 24.1832 176.804 22.6747C179.356 21.8786 180.81 23.397 180.752 24.5214C183.085 20.4168 179.855 19.567 177.476 19.7366C168.005 20.2733 162.319 19.778 157.739 18.9811C148.661 14.4521 137.733 21.4004 147.829 27.1237L150.545 28.8255Z" fill="#BC715F" stroke="black" stroke-width="0.638471"/>
<path d="M152.682 20.7857C150.782 21.0687 148.821 21.2964 148.062 22.6115C148.118 20.4473 151.341 20.2979 152.682 20.7857Z" fill="black"/>
<path d="M151.674 22.4225C152.127 22.4225 152.493 22.0467 152.493 21.5831C152.493 21.1195 152.127 20.7437 151.674 20.7437C151.222 20.7437 150.855 21.1195 150.855 21.5831C150.855 22.0467 151.222 22.4225 151.674 22.4225Z" fill="black"/>
<path d="M48.6953 47.8545C52.4448 69.1335 56.6065 90.9425 58.6527 113.22C63.1069 146.214 43.0373 173.915 51.2704 206.509C56.1848 222.149 73.3846 231.241 89.1264 233.042C110.009 236.989 135.255 233.055 150.498 248.674C165.741 233.052 190.986 236.989 211.869 233.042C227.611 231.241 244.811 222.149 249.725 206.509C257.959 173.915 237.889 146.214 242.343 113.22C244.389 90.9425 248.551 69.1335 252.3 47.8545C215.541 67.811 179.22 41.8491 150.498 58.4479C121.775 41.8491 85.4544 67.811 48.6953 47.8545Z" fill="#DC171D" stroke="black" stroke-width="0.638468"/>
<path d="M126.964 65.0375C133.609 65.1731 139.315 66.2759 144.308 69.1615L150.494 72.7316L156.68 69.1615C166.666 63.3903 179.498 64.7618 197.012 66.7106C208.812 68.0235 222.626 68.9768 237.026 66.0626C234.416 81.0216 231.56 95.8374 230.086 111.686C227.505 131.026 232.017 147.894 235.389 162.752C238.724 177.452 240.912 189.985 237.769 202.979C234.796 211.961 222.449 219.375 210.456 220.747L210.009 220.808L209.573 220.89C200.762 222.555 189.385 222.608 177.406 224.225C168.495 225.428 159.15 228.788 150.494 234.252C141.838 228.789 132.492 225.428 123.582 224.225C111.603 222.607 100.237 222.556 91.4268 220.89L90.9793 220.808L90.5316 220.747C78.5454 219.375 66.2118 211.966 63.231 202.991C60.0831 189.992 62.2749 177.456 65.6111 162.752C68.9824 147.894 73.4948 131.026 70.9132 111.686C69.4394 95.8379 66.5834 81.0212 63.9733 66.0626C78.3696 68.9738 92.1793 68.0232 103.976 66.7106C112.733 65.7362 120.319 64.9019 126.964 65.0375Z" fill="#62AFE1" stroke="black" stroke-width="0.639475"/>
<path d="M133.095 114.265L95.9453 139.725V170.378H204.709V139.725L167.559 114.265H133.095Z" fill="white" stroke="black" stroke-width="1.43656" stroke-linecap="round"/>
<path d="M87.1211 165.303V171.163H90.6985V201.267H209.955V171.163H213.532V165.303H87.1211Z" fill="white" stroke="black" stroke-width="1.43656" stroke-linecap="round"/>
<path d="M150.324 81.0659L133.094 97.8372V114.265H167.558V97.8372L150.324 81.0659Z" fill="white" stroke="black" stroke-width="1.43656" stroke-linecap="round"/>
<path d="M101.312 143.884H112.21V161.142H101.312V143.884Z" fill="white" stroke="black" stroke-width="1.43656" stroke-linecap="round"/>
<path d="M132.25 143.885H143.148V161.142H132.25V143.885Z" fill="white" stroke="black" stroke-width="1.43656" stroke-linecap="round"/>
<path d="M199.339 143.884H188.441V161.142H199.339V143.884Z" fill="white" stroke="black" stroke-width="1.43656" stroke-linecap="round"/>
<path d="M168.405 143.884H157.508V161.142H168.405V143.884Z" fill="white" stroke="black" stroke-width="1.43656" stroke-linecap="round"/>
<path d="M101.312 173.895H112.21V191.152H101.312V173.895Z" fill="white" stroke="black" stroke-width="1.43656" stroke-linecap="round"/>
<path d="M199.339 173.895H188.441V191.152H199.339V173.895Z" fill="white" stroke="black" stroke-width="1.43656" stroke-linecap="round"/>
<path d="M158.869 172.918H141.785V201.266H158.869V172.918Z" fill="white" stroke="black" stroke-width="1.43656" stroke-linecap="round"/>
<path d="M131.856 165.303H124.195V201.267H131.856V165.303Z" fill="white" stroke="black" stroke-width="1.43656" stroke-linecap="round"/>
<path d="M168.801 165.303H176.466V201.267H168.801V165.303Z" fill="white" stroke="black" stroke-width="1.43656" stroke-linecap="round"/>
<path d="M179.31 166.535V157.653H121.344V166.535H179.31Z" fill="white" stroke="black" stroke-width="1.43656" stroke-linecap="round"/>
<path d="M133.098 97.8374H167.562H133.098Z" fill="white"/>
<path d="M133.098 97.8374H167.562" stroke="black" stroke-width="1.43656"/>
<path d="M95.9453 139.725H204.709H95.9453Z" fill="white"/>
<path d="M95.9453 139.725H204.709" stroke="black" stroke-width="1.43656"/>
<path d="M84.3906 197.51H216.265V206.829H84.3906V197.51Z" fill="white" stroke="black" stroke-width="1.43656" stroke-linecap="round"/>
<path d="M156.901 101.393H143.75V110.708H156.901V101.393Z" fill="white" stroke="black" stroke-width="1.43656" stroke-linecap="round"/>
<path d="M125.488 157.653V166.536" stroke="black" stroke-width="1.59617"/>
<path d="M175.176 157.653V166.536" stroke="black" stroke-width="1.59617"/>
<path d="M171.035 157.653V166.536" stroke="black" stroke-width="1.59617"/>
<path d="M166.895 157.653V166.536" stroke="black" stroke-width="1.59617"/>
<path d="M162.754 157.653V166.536" stroke="black" stroke-width="1.59617"/>
<path d="M158.613 157.653V166.536" stroke="black" stroke-width="1.59617"/>
<path d="M154.469 157.653V166.536" stroke="black" stroke-width="1.59617"/>
<path d="M150.328 157.653V166.536" stroke="black" stroke-width="1.59617"/>
<path d="M146.188 157.653V166.536" stroke="black" stroke-width="1.59617"/>
<path d="M142.047 157.653V166.536" stroke="black" stroke-width="1.59617"/>
<path d="M137.91 157.653V166.536" stroke="black" stroke-width="1.59617"/>
<path d="M133.77 157.653V166.536" stroke="black" stroke-width="1.59617"/>
<path d="M129.629 157.653V166.536" stroke="black" stroke-width="1.59617"/>
<path d="M179.316 158.259V166.536" stroke="black" stroke-width="1.43656"/>
<path d="M94.4479 79.354C102.634 84.5776 106.505 89.4079 106.525 93.887C96.3367 93.3457 87.1243 88.5504 94.4479 79.354Z" fill="#008830" stroke="black" stroke-width="0.718279"/>
<path d="M101.044 84.106C108.927 88.5908 113.369 93.4738 114.739 98.7122C106.731 100.105 98.1864 96.326 101.044 84.106Z" fill="#008830" stroke="black" stroke-width="0.718279"/>
<path d="M90.8488 91.8135C91.9104 100.82 90.6109 107.291 87.2037 111.5C81.3335 105.878 79.3121 96.7579 90.8488 91.8135Z" fill="#008830" stroke="black" stroke-width="0.718279"/>
<path d="M90.86 91.8413C98.2654 97.0777 102.207 102.373 103.056 107.72C94.9497 108.321 86.8176 103.722 90.86 91.8413Z" fill="#008830" stroke="black" stroke-width="0.718279"/>
<path d="M95.7783 84.6318L99.1906 86.7626L102.853 86.4014L104.389 88.9316C104.389 88.9316 103.977 94.1309 103.974 94.6054C103.971 95.0799 105.106 97.988 105.106 97.988L102.613 99.7994L95.9372 102.534L89.6931 97.463L85.7571 97.8706L84.0312 92.981L85.9709 88.8122L90.8438 85.6489L95.7783 84.6318Z" fill="#008830" stroke="black" stroke-width="0.718279"/>
<path d="M89.3685 87.2202C86.16 95.7025 82.0243 100.847 77.0608 103.013C74.4418 95.3191 76.8507 86.2938 89.3685 87.2202Z" fill="#008830" stroke="black" stroke-width="0.718279"/>
<path d="M89.354 87.8378C80.4545 86.086 74.6922 82.8648 71.7305 78.3318C78.8828 74.4696 88.1849 75.3428 89.354 87.8378Z" fill="#008830" stroke="black" stroke-width="0.718279"/>
<path d="M106.371 88.1412C115.406 88.9429 121.839 87.4579 125.948 83.9317C120.158 78.2269 110.982 76.4693 106.371 88.1412Z" fill="#008830" stroke="black" stroke-width="0.718279"/>
<path d="M106.398 88.1511C111.847 95.4013 117.254 99.1881 122.625 99.8829C122.993 91.764 118.16 83.7692 106.398 88.1511Z" fill="#008830" stroke="black" stroke-width="0.718279"/>
<path d="M103.559 92.5835C110.35 98.5959 113.69 104.289 113.951 109.697C105.828 109.411 98.2456 103.953 103.559 92.5835Z" fill="#008830" stroke="black" stroke-width="0.718279"/>
<path d="M100.763 102.546C105.41 110.335 106.866 116.773 105.474 122.005C97.8198 119.269 92.2505 111.769 100.763 102.546Z" fill="#008830" stroke="black" stroke-width="0.718279"/>
<path d="M97.4948 102.042C98.5237 111.052 97.2008 117.519 93.7785 121.715C87.9286 116.072 85.9402 106.945 97.4948 102.042Z" fill="#008830" stroke="black" stroke-width="0.718279"/>
<path d="M91.599 91.934C90.9462 91.4709 90.4546 90.6652 90.3397 89.8699C90.2417 89.1909 90.2972 88.7546 90.6031 87.7976C90.7582 87.3126 90.8812 86.9046 90.8765 86.8908C90.8721 86.8771 90.7507 86.8415 90.6072 86.8122C90.3573 86.7607 90.3267 86.7767 89.8773 87.1918C88.3405 88.6111 86.9382 89.2914 85.9783 89.0831C84.8655 88.8417 84.4395 87.299 85.0586 85.7517C85.5842 84.4369 86.5707 83.6324 87.8308 83.4899C88.2972 83.4371 88.4937 83.4558 89.0375 83.6045C89.3948 83.7022 89.674 83.7533 89.6579 83.718C89.6417 83.6827 89.3702 83.4899 89.0543 83.2896C87.5005 82.3043 86.5818 81.1648 86.5201 80.1463C86.4753 79.4066 86.9596 78.6968 87.7886 78.2872C89.182 77.5988 90.9263 78.0893 91.7374 79.3976C92.1268 80.0258 92.2277 80.5253 92.2266 81.818C92.2259 82.5678 92.2569 82.9975 92.3136 83.0212C92.362 83.0413 92.49 83.1582 92.598 83.2805L92.7943 83.5028L93.564 82.872C94.3481 82.2293 94.9157 81.8371 95.5526 81.4981C96.4336 81.0291 97.4716 80.8964 97.9914 81.1862C99.1305 81.8214 99.1259 83.8921 97.9821 85.3098C97.0542 86.46 95.6439 86.8655 94.3559 86.3523C94.0669 86.2372 93.6579 86.0965 93.447 86.0396L93.0634 85.9363L93.6569 86.6907C94.4572 87.7083 94.907 88.4367 95.2169 89.2172C95.8018 90.6904 95.5042 91.8264 94.4057 92.3136C93.56 92.6888 92.4518 92.5389 91.599 91.934Z" fill="#F9D90F" stroke="black" stroke-width="0.718279"/>
<path d="M93.1247 85.5382C92.928 86.0317 92.5649 86.4355 92.1153 86.6607C91.6657 86.886 91.1664 86.9142 90.7272 86.7393C90.288 86.5643 89.945 86.2004 89.7736 85.7278C89.6021 85.2551 89.6163 84.7122 89.813 84.2187C90.0097 83.7252 90.3728 83.3214 90.8224 83.0962C91.2721 82.8709 91.7714 82.8427 92.2105 83.0176C92.6497 83.1926 92.9927 83.5565 93.1641 84.0292C93.3356 84.5018 93.3214 85.0447 93.1247 85.5382Z" fill="#F9D90F" stroke="black" stroke-width="0.718279"/>
<path d="M99.763 82.3674C99.7692 83.0652 99.8868 83.5042 100.321 84.4527C100.541 84.9332 100.72 85.3382 100.717 85.3525C100.715 85.3669 100.604 85.4126 100.471 85.4538C100.239 85.5258 100.207 85.512 99.7149 85.1257C98.0326 83.8047 96.5882 83.2242 95.699 83.5117C94.668 83.8451 94.4875 85.4466 95.3092 86.9702C96.007 88.2647 97.0712 89.0043 98.2999 89.0496C98.7547 89.0665 98.9403 89.0319 99.4395 88.8378C99.7675 88.7102 100.028 88.6363 100.017 88.6734C100.007 88.7106 99.7754 88.9279 99.5021 89.1565C98.1584 90.2806 97.446 91.5113 97.5372 92.5512C97.6035 93.3065 98.1723 93.9897 99.0274 94.3403C100.464 94.9298 102.064 94.2935 102.648 92.8997C102.929 92.2306 102.952 91.7149 102.76 90.4013C102.648 89.6393 102.615 89.2002 102.665 89.1716C102.709 89.1474 102.814 89.0184 102.9 88.8856L103.055 88.6442L103.886 89.2244C104.732 89.8156 105.334 90.1693 105.995 90.4635C106.908 90.8705 107.923 90.9233 108.378 90.5877C109.376 89.8521 109.066 87.7481 107.76 86.3976C106.701 85.302 105.29 85.0014 104.131 85.6248C103.871 85.7645 103.5 85.94 103.306 86.0143L102.954 86.1496L103.411 85.336C104.028 84.2386 104.352 83.4628 104.533 82.645C104.877 81.1016 104.424 79.9707 103.299 79.5623C102.433 79.2479 101.393 79.4878 100.75 80.0901C100.108 80.6923 99.7556 81.5501 99.763 82.3674Z" fill="#F9D90F" stroke="black" stroke-width="0.717902"/>
<path d="M99.8589 86.4681C100.093 85.9765 100.492 85.5795 100.967 85.3645C101.442 85.1496 101.954 85.1342 102.392 85.3218C102.829 85.5094 103.155 85.8846 103.298 86.3649C103.442 86.8452 103.39 87.3912 103.156 87.8828C102.921 88.3745 102.523 88.7714 102.048 88.9864C101.573 89.2014 101.06 89.2168 100.623 89.0291C100.186 88.8415 99.8598 88.4663 99.7165 87.986C99.5732 87.5057 99.6244 86.9597 99.8589 86.4681Z" fill="#F9D90F" stroke="black" stroke-width="0.718279"/>
<path d="M89.7575 102.09C89.5754 101.286 89.5914 100.75 89.8338 99.5415C89.9565 98.9293 90.0515 98.4156 90.0448 98.3998C90.0381 98.384 89.8983 98.3614 89.7339 98.3502C89.4477 98.3303 89.415 98.3547 88.9541 98.9323C87.3781 100.907 85.8748 101.966 84.7744 101.877C83.4986 101.773 82.8566 99.981 83.3881 98.0069C83.8393 96.3295 84.8623 95.1907 86.2627 94.8055C86.7811 94.6628 87.0038 94.6522 87.6305 94.74C88.0422 94.7976 88.3613 94.8121 88.3395 94.7722C88.3177 94.7322 87.9922 94.5452 87.616 94.3566C85.7661 93.4289 84.6132 92.2074 84.4359 90.9873C84.3072 90.1011 84.7761 89.1616 85.664 88.5266C87.1564 87.4592 89.168 87.757 90.2178 89.2007C90.7218 89.8938 90.8882 90.4803 91.0238 92.0423C91.1025 92.9484 91.1829 93.4623 91.2491 93.4814C91.3057 93.4975 91.4618 93.6171 91.596 93.7466L91.8402 93.982L92.638 93.0897C93.4508 92.1807 94.0469 91.6109 94.7264 91.0936C95.6664 90.378 96.8185 90.0421 97.4332 90.3044C98.7802 90.8793 98.9944 93.382 97.8597 95.2883C96.9392 96.8349 95.3978 97.5632 93.8966 97.1609C93.5597 97.0706 93.0853 96.9697 92.8423 96.9367L92.4004 96.8767L93.1471 97.688C94.154 98.7822 94.7365 99.5862 95.1674 100.477C95.9806 102.158 95.7667 103.581 94.5842 104.355C93.6739 104.951 92.4131 104.958 91.5107 104.44C90.6084 103.922 89.9708 103.031 89.7575 102.09Z" fill="#F9D90F" stroke="black" stroke-width="0.718279"/>
<path d="M92.4312 96.3846C92.2626 97.0142 91.8974 97.5634 91.4162 97.9116C90.935 98.2598 90.377 98.3783 89.8651 98.2411C89.3532 98.104 88.9293 97.7223 88.6866 97.1802C88.4439 96.638 88.4024 95.9798 88.571 95.3502C88.7397 94.7207 89.1048 94.1714 89.5861 93.8233C90.0673 93.4751 90.6252 93.3566 91.1371 93.4938C91.649 93.6309 92.073 94.0126 92.3156 94.5547C92.5583 95.0969 92.5999 95.7551 92.4312 96.3846Z" fill="#F9D90F" stroke="black" stroke-width="0.718279"/>
<path d="M101.169 93.6028C101.011 94.3923 101.041 94.9159 101.307 96.0897C101.442 96.6845 101.548 97.184 101.542 97.1996C101.536 97.2151 101.4 97.2407 101.239 97.2557C100.96 97.2822 100.928 97.2592 100.463 96.7066C98.8752 94.8171 97.3808 93.8202 96.3085 93.9347C95.0651 94.0676 94.4829 95.8337 95.051 97.7485C95.5334 99.3755 96.5608 100.462 97.9379 100.804C98.4477 100.93 98.6655 100.935 99.2753 100.834C99.6759 100.767 99.9871 100.745 99.9668 100.785C99.9465 100.824 99.6333 101.015 99.2707 101.209C97.4872 102.161 96.3918 103.382 96.2491 104.578C96.1455 105.447 96.6267 106.353 97.5096 106.951C98.9936 107.956 100.951 107.616 101.94 106.18C102.415 105.49 102.563 104.913 102.656 103.384C102.71 102.497 102.776 101.993 102.84 101.973C102.895 101.956 103.045 101.835 103.173 101.706L103.405 101.47L104.206 102.321C105.023 103.189 105.619 103.731 106.296 104.219C107.231 104.895 108.365 105.194 108.958 104.922C110.26 104.328 110.406 101.878 109.251 100.044C108.313 98.5568 106.79 97.8837 105.334 98.3139C105.007 98.4104 104.547 98.5208 104.31 98.559L103.88 98.6286L104.589 97.8177C105.545 96.7241 106.094 95.9244 106.492 95.0438C107.245 93.3818 107 91.9975 105.826 91.2705C104.923 90.7108 103.691 90.736 102.823 91.2642C101.955 91.7925 101.354 92.6779 101.169 93.6028Z" fill="#F9D90F" stroke="black" stroke-width="0.718279"/>
<path d="M101.986 97.294C101.35 97.3102 100.745 97.5532 100.305 97.9696C99.8657 98.386 99.6268 98.9417 99.6414 99.5143C99.656 100.087 99.9228 100.63 100.383 101.023C100.844 101.417 101.46 101.629 102.096 101.612C102.733 101.596 103.337 101.353 103.777 100.937C104.217 100.52 104.456 99.9647 104.441 99.3921C104.427 98.8194 104.16 98.2766 103.699 97.8832C103.239 97.4897 102.623 97.2778 101.986 97.294Z" fill="#F9D90F" stroke="black" stroke-width="0.71828"/>
<path d="M222.649 116.128H218.084V112.884H214.196V109.177H209.744L209.74 85.6527L204.67 76.7812L199.6 85.6527V109.177H195.148V112.884H191.26V116.128H186.695V120.916L222.649 121.018V116.128Z" fill="white" stroke="black" stroke-width="1.27694"/>
<path d="M150.73 263.796C168.997 263.854 191.465 260.125 201.988 254.684L225.102 252.637L225.562 280.837C205.983 291.633 160.774 293.952 150.828 293.874C140.872 293.952 95.105 291.594 75.4375 280.759L75.692 252.54L98.8544 254.624C109.378 260.038 132.531 263.796 150.779 263.796H150.73Z" fill="#F9D90F"/>
<path d="M75.4375 280.759L99.2733 275.308L75.5173 271.908L75.4375 280.759Z" fill="#F9B60F"/>
<path d="M15.9345 143.511L36.297 149.991L30.1393 182.958L10.8634 185.952C10.8634 185.952 7.61328 168.617 15.9345 143.492" fill="#F9D90F"/>
<path d="M10.8633 185.952L23.3843 168.676L30.1391 182.958L10.8633 185.952Z" fill="#F9B60F"/>
<path d="M15.9345 143.511L36.297 149.991L30.1393 182.958L10.8634 185.952C10.8634 185.952 7.61328 168.617 15.9345 143.492V143.511Z" stroke="black" stroke-width="0.639475"/>
<path d="M75.4375 280.759L99.425 275.307" stroke="black" stroke-width="0.639475"/>
<path d="M23.4023 168.572L30.1382 182.958" stroke="black" stroke-width="0.639475"/>
<path d="M225.558 280.838L201.723 275.386L225.479 271.986L225.558 280.838Z" fill="#F9B60F"/>
<path d="M285.066 143.589L264.703 150.069L270.861 183.036L290.137 186.03C290.137 186.03 293.387 168.695 285.066 143.57" fill="#F9D90F"/>
<path d="M290.131 186.031L277.61 168.755L270.855 183.036L290.131 186.031Z" fill="#F9B60F"/>
<path d="M285.066 143.589L264.703 150.069L270.861 183.036L290.137 186.03C290.137 186.03 293.387 168.695 285.066 143.57V143.589Z" stroke="black" stroke-width="0.639475"/>
<path d="M225.562 280.837L201.574 275.385" stroke="black" stroke-width="0.639475"/>
<path d="M277.591 168.649L270.855 183.035" stroke="black" stroke-width="0.639475"/>
<path d="M150.73 263.795C168.997 263.854 191.465 260.125 201.988 254.684L225.102 252.637L225.562 280.837C205.983 291.632 160.774 293.952 150.828 293.874C140.872 293.952 95.105 291.594 75.4375 280.759L75.692 252.539L98.8544 254.624C109.378 260.038 132.531 263.795 150.779 263.795H150.73Z" stroke="black" stroke-width="0.639475"/>
<path d="M297.244 167.336L277.616 168.755C277.176 185.385 275.159 248.85 199.367 252.296L201.726 275.385C293.984 276.344 300.994 197.542 297.244 167.336Z" fill="#F9D90F"/>
<path d="M297.244 167.336L277.616 168.755C277.176 185.385 275.159 248.85 199.367 252.296L201.726 275.385C293.984 276.344 300.994 197.542 297.244 167.336Z" stroke="black" stroke-width="0.639475"/>
<path d="M3.75665 167.258L23.3849 168.676C23.8253 185.307 25.8421 248.772 101.634 252.217L99.2744 275.307C7.01658 276.265 0.0071671 197.463 3.75665 167.258Z" fill="#F9D90F"/>
<path d="M3.75665 167.258L23.3849 168.676C23.8253 185.307 25.8421 248.772 101.634 252.217L99.2744 275.307C7.01658 276.265 0.00716714 197.463 3.75665 167.258Z" stroke="black" stroke-width="0.639475"/>
<path d="M137.861 277.694C137.343 278.027 136.638 278.116 135.825 278.076L132.164 277.89L132.477 273.32L136.109 273.515C136.824 273.564 137.391 273.702 137.744 273.916C138.478 274.298 138.801 275.004 138.733 275.982C138.684 276.823 138.39 277.372 137.852 277.694M131.704 284.89L132.066 279.319L136.334 279.614C137.715 279.722 138.742 279.359 139.438 278.654C140.162 277.969 140.534 277.069 140.583 276.051C140.671 274.866 140.368 273.897 139.663 273.182C138.987 272.497 138.028 272.135 136.824 272.018L130.725 271.637L129.883 284.752L131.694 284.87" fill="#012A87"/>
<path d="M145.584 273.916L150.049 273.965C150.695 274.023 151.204 274.102 151.576 274.278C152.261 274.601 152.584 275.247 152.584 276.187C152.584 277.069 152.33 277.656 151.83 278.008C151.351 278.33 150.655 278.477 149.823 278.477L145.535 278.428L145.575 273.916M145.506 285.534L145.545 279.936L149.735 279.995C150.479 279.995 151.028 280.053 151.409 280.239C152.026 280.523 152.33 281.121 152.359 281.942L152.467 284.144C152.496 284.673 152.506 284.997 152.535 285.211C152.594 285.368 152.623 285.534 152.702 285.653H154.953L154.914 285.368C154.66 285.231 154.454 284.968 154.366 284.565C154.288 284.311 154.248 283.929 154.229 283.45L154.19 281.697C154.16 280.905 154.023 280.357 153.72 280.053C153.456 279.701 153.093 279.397 152.535 279.211C153.162 278.88 153.632 278.498 153.974 278.027C154.297 277.508 154.464 276.852 154.464 276.051C154.464 274.543 153.847 273.515 152.594 272.958C151.919 272.654 151.057 272.497 150.039 272.478L143.744 272.418L143.695 285.573H145.506" fill="#012A87"/>
<path d="M160.412 282.785C159.609 281.807 159.179 280.583 159.081 279.135C158.993 277.313 159.345 275.924 160.177 274.984C161.019 273.966 162.106 273.477 163.525 273.399C164.954 273.321 166.129 273.781 167.001 274.68C167.891 275.562 168.4 276.786 168.489 278.313C168.537 279.78 168.283 281.082 167.607 282.227C166.942 283.393 165.836 284.048 164.201 284.086C162.497 284.176 161.225 283.774 160.412 282.785ZM158.258 274.504C157.416 275.806 157.074 277.313 157.162 279.135C157.289 281.101 157.896 282.727 159.042 283.95C160.314 285.174 161.998 285.79 164.073 285.672C166.296 285.574 167.97 284.732 169.105 283.187C170.026 281.787 170.466 280.161 170.368 278.155C170.241 276.364 169.722 274.905 168.753 273.819C167.529 272.361 165.738 271.715 163.31 271.813C161.019 271.959 159.335 272.801 158.249 274.504" fill="#012A87"/>
<path d="M12.7436 191.682L13.0471 193.325C12.3129 193.472 11.7255 193.767 11.2947 194.148C10.5213 194.872 10.257 195.959 10.5213 197.437C10.639 198.063 10.864 198.679 11.1479 199.17C11.7355 200.168 12.4989 200.568 13.468 200.412C14.1827 200.285 14.6526 200.011 14.8778 199.502C15.0931 199.002 15.25 198.239 15.2989 197.261L15.387 195.41C15.4473 194.265 15.5728 193.365 15.8273 192.865C16.2285 191.965 16.9825 191.407 18.1083 191.222C19.3124 191.006 20.3698 191.28 21.2802 191.965C22.2004 192.601 22.8074 193.707 23.0325 195.175C23.3167 196.517 23.1893 197.721 22.6603 198.807C22.1511 199.865 21.1723 200.51 19.6744 200.784L19.3806 199.121C20.0757 198.866 20.5946 198.621 20.9372 198.279C21.5248 197.622 21.7008 196.674 21.4753 195.372C21.2992 194.314 20.9372 193.629 20.3886 193.287C19.8505 192.885 19.3118 192.728 18.7245 192.827C18.0685 192.925 17.6378 193.287 17.4322 193.874C17.3049 194.265 17.2071 195.077 17.1191 196.321L17.031 198.239C16.9828 199.139 16.8452 199.884 16.5418 200.393C16.0622 201.332 15.2495 201.909 14.0649 202.095C12.5671 202.35 11.4119 202.007 10.5896 201.048C9.74769 200.108 9.22882 198.983 8.96453 197.583C8.67073 195.919 8.88608 194.627 9.5521 193.591C10.2276 192.524 11.2947 191.907 12.7436 191.701" fill="#012A87"/>
<path d="M11.9102 209.036L24.852 205.141L27.8673 214.252L26.2911 214.751L23.8241 207.264L19.8887 208.449L22.1697 215.368L20.6621 215.848L18.4007 208.909L14.0149 210.22L16.521 217.874L14.9743 218.315L11.9102 209.036Z" fill="#012A87"/>
<path d="M17.6445 224.833L29.5487 218.521L30.8214 220.742L22.6372 229.394L34.5904 227.349L35.8239 229.552L23.9491 235.826L23.1071 234.367L30.1165 230.678C30.3711 230.53 30.7627 230.314 31.3305 230.012C31.8885 229.758 32.515 229.414 33.1416 229.091L21.2373 231.117L20.366 229.571L28.4914 220.947L28.0999 221.144C27.8453 221.29 27.4049 221.506 26.8077 221.848C26.2201 222.211 25.7797 222.435 25.4958 222.553L18.5061 226.301L17.6446 224.815" fill="#012A87"/>
<path d="M39.8333 242.364C39.236 242.228 38.6487 241.884 38.0711 241.287L35.5552 238.693L38.9424 235.59L41.478 238.175C41.9672 238.655 42.2807 239.124 42.4471 239.526C42.6818 240.298 42.4471 241.004 41.7325 241.669C41.0864 242.266 40.4402 242.51 39.8333 242.364ZM30.2688 243.567L34.4196 239.76L37.3663 242.745C38.3159 243.714 39.285 244.155 40.3032 244.136C41.3409 244.076 42.2318 243.695 43.0149 242.951C43.896 242.168 44.3169 241.248 44.3169 240.26C44.3049 239.3 43.8669 238.4 43.0541 237.559L38.825 233.241L28.9766 242.285L30.2492 243.567" fill="#012A87"/>
<path d="M42.1445 254.138L49.2812 242.951L57.7199 248.08L56.8388 249.412L49.9077 245.262L47.7638 248.648L54.1369 252.514L53.3145 253.797L46.9317 249.95L44.5038 253.737L51.523 257.957L50.6811 259.278L42.1445 254.138Z" fill="#012A87"/>
<path d="M63.2664 251.975L67.5543 253.336C68.1612 253.521 68.6018 253.756 68.8954 254.022C69.4438 254.54 69.5905 255.283 69.2676 256.184C69.0034 256.967 68.6019 257.476 67.9754 257.692C67.4173 257.789 66.7125 257.789 65.8902 257.534L61.847 256.243L63.2664 251.975ZM59.5661 262.967L61.3478 257.632L65.342 258.934C66.0567 259.121 66.5755 259.376 66.83 259.639C67.3193 260.079 67.4663 260.735 67.2215 261.548L66.6243 263.671C66.4873 264.19 66.4185 264.533 66.36 264.689C66.36 264.857 66.3601 265.033 66.3902 265.149L68.495 265.835L68.6223 265.531C68.3972 265.355 68.2699 265.033 68.2796 264.632C68.3279 264.386 68.3972 263.995 68.5342 263.544L69.0434 261.841C69.2491 261.097 69.3275 260.539 69.1411 260.139C68.9842 259.717 68.72 259.335 68.2796 258.974C68.9453 258.856 69.5229 258.65 70.0124 258.288C70.4727 257.887 70.8641 257.329 71.099 256.547C71.5786 255.127 71.3144 253.942 70.2571 253.042C69.7286 252.573 68.9747 252.171 67.9859 251.799L61.9946 249.95L57.8047 262.428L59.557 262.967" fill="#012A87"/>
<path d="M219.216 254.658C220.483 254.466 221.578 254.545 222.57 254.905C224.03 255.392 224.999 256.497 225.585 258.171L223.77 258.393C223.395 257.486 222.848 256.859 222.1 256.502C221.372 256.167 220.454 256.071 219.394 256.209C218.157 256.372 217.157 256.97 216.444 257.946C215.74 258.99 215.508 260.396 215.779 262.202C216.006 263.695 216.531 264.966 217.416 265.824C218.233 266.701 219.451 267.026 221.05 266.83C222.248 266.657 223.216 266.195 223.906 265.385C224.625 264.616 224.853 263.434 224.645 261.903L220.415 262.473L220.226 261.021L226.115 260.227L227.134 267.206L225.966 267.361L225.271 265.743C224.768 266.459 224.268 267.008 223.832 267.322C223.097 267.877 222.112 268.221 220.885 268.375C219.295 268.59 217.851 268.279 216.555 267.414C215.136 266.321 214.235 264.719 213.923 262.511C213.58 260.342 213.957 258.497 214.982 257.057C215.957 255.666 217.352 254.87 219.217 254.638" fill="#012A87"/>
<path d="M232.518 253.883L236.755 252.433C237.336 252.229 237.836 252.169 238.266 252.227C239.038 252.299 239.598 252.769 239.904 253.695C240.193 254.483 240.181 255.168 239.829 255.642C239.458 256.134 238.884 256.486 238.056 256.774L234.076 258.121L232.518 253.883ZM236.528 264.833L234.569 259.521L238.51 258.182C239.248 257.961 239.76 257.843 240.141 257.89C240.834 257.99 241.355 258.421 241.693 259.229L242.547 261.252C242.733 261.754 242.884 262.06 243.009 262.201C243.064 262.378 243.19 262.488 243.286 262.606L245.424 261.863L245.312 261.577C244.998 261.571 244.698 261.39 244.479 261.042C244.317 260.795 244.167 260.44 243.95 260.025L243.285 258.367C242.984 257.647 242.67 257.202 242.302 256.93C241.934 256.717 241.467 256.572 240.91 256.524C241.349 256.031 241.672 255.538 241.8 254.953C241.938 254.359 241.892 253.693 241.621 252.944C241.108 251.534 240.134 250.753 238.746 250.63C238.013 250.558 237.168 250.699 236.193 251.023L230.242 253.02L234.793 265.476L236.537 264.872" fill="#012A87"/>
<path d="M252.043 258.597L244.736 247.508L253.074 242.403L253.96 243.742L247.127 247.933L249.376 251.322L255.684 247.424L256.512 248.721L250.204 252.621L252.682 256.357L259.633 252.087L260.52 253.397L252.034 258.596" fill="#012A87"/>
<path d="M258.96 239.359L261.156 237.03C262.174 235.991 263.24 235.531 264.392 235.689C265.546 235.808 266.709 236.436 267.942 237.555C268.28 237.826 268.577 238.174 268.883 238.561C269.418 239.285 269.73 239.919 269.924 240.548C270.086 241.335 270.033 242.049 269.747 242.729C269.574 243.067 269.273 243.463 268.824 243.935L266.618 246.245L258.96 239.34M270.24 244.704C271.797 243.05 272.163 241.246 271.31 239.184C270.811 238.068 270.038 236.977 268.959 236.017C267.601 234.769 266.174 234.116 264.659 233.972C262.977 233.813 261.537 234.395 260.269 235.731L256.527 239.598L266.487 248.611L270.229 244.725" fill="#012A87"/>
<path d="M278.265 234.64L266.742 227.586L267.719 226.097L279.262 233.112L278.274 234.659" fill="#012A87"/>
<path d="M282.984 226.778L270.499 221.517L274.37 212.738L275.886 213.353L272.728 220.588L276.489 222.146L279.441 215.483L280.878 216.108L277.956 222.76L282.163 224.559L285.401 217.238L286.917 217.842L282.975 226.777" fill="#012A87"/>
<path d="M289.045 211.441L275.865 208.273L276.343 206.236L288.644 202.329L277.95 199.765L278.371 198.167L291.552 201.255L291.095 203.234L278.773 207.23L289.468 209.745L289.055 211.441" fill="#012A87"/>
<path d="M288.303 194.618L288.5 192.957C289.263 192.992 289.911 192.885 290.406 192.631C291.374 192.129 291.95 191.151 292.124 189.695C292.195 189.012 292.177 188.413 292.03 187.843C291.766 186.743 291.161 186.124 290.174 186.008C289.441 185.916 288.91 186.083 288.521 186.478C288.17 186.932 287.795 187.589 287.504 188.525L286.866 190.246C286.453 191.373 286.077 192.149 285.677 192.583C285.036 193.394 284.15 193.662 283.026 193.563C281.824 193.414 280.854 192.916 280.176 191.984C279.477 191.129 279.205 189.92 279.408 188.435C279.55 187.078 280.022 185.941 280.841 185.036C281.6 184.208 282.763 183.826 284.238 184.01L284.071 185.671C283.346 185.658 282.766 185.775 282.34 186.061C281.569 186.467 281.132 187.35 280.981 188.65C280.853 189.725 280.987 190.451 281.388 191.007C281.791 191.475 282.304 191.777 282.91 191.837C283.555 191.907 284.068 191.711 284.429 191.22C284.69 190.881 285.007 190.143 285.44 188.946L286.071 187.137C286.38 186.301 286.744 185.661 287.163 185.209C287.911 184.459 288.876 184.153 290.079 184.265C291.544 184.447 292.58 185.074 293.098 186.199C293.606 187.334 293.789 188.581 293.636 189.988C293.441 191.579 292.899 192.823 291.924 193.647C290.949 194.49 289.75 194.762 288.303 194.618Z" fill="#012A87"/>
</svg>
