<svg width="300" height="300" viewBox="0 0 300 300" fill="none" xmlns="http://www.w3.org/2000/svg">
<path d="M149.999 290C103.916 267.818 38 223.791 38 136.699C38 49.6069 42.1664 10 42.1664 10H149.998H257.832C257.832 10 261.999 49.6074 261.999 136.699C261.999 223.791 196.084 267.818 149.999 290Z" fill="#EE1C25"/>
<path d="M159.85 182.365V134.262C173.901 134.084 198.438 134.222 218.309 140.871C218.309 140.871 217.737 133.12 217.737 124.088C217.737 115.058 218.309 107.306 218.309 107.306C196.647 114.555 172.319 114.066 159.85 113.865V83.6556C171.215 83.5548 187.592 84.0976 206.109 90.294C206.109 90.294 205.537 82.5422 205.537 73.5108C205.537 64.4803 206.109 56.7285 206.109 56.7285C187.619 62.9151 171.262 63.4662 159.9 63.3678C160.484 44.2386 166.057 20.1264 166.057 20.1264C166.057 20.1264 154.587 21.021 150.002 21.021C145.417 21.021 133.948 20.126 133.948 20.126C133.948 20.126 139.521 44.2382 140.104 63.3673C128.743 63.4658 112.386 62.9142 93.8958 56.728C93.8958 56.728 94.468 64.4798 94.468 73.5103C94.468 82.5417 93.8958 90.2935 93.8958 90.2935C112.413 84.0971 128.79 83.5544 140.155 83.6552V113.865C127.685 114.066 103.358 114.555 81.6953 107.306C81.6953 107.306 82.2674 115.058 82.2674 124.088C82.2674 133.12 81.6953 140.871 81.6953 140.871C101.566 134.222 126.104 134.083 140.155 134.261V182.364H159.85V182.365Z" fill="white"/>
<path d="M239.718 216.057C233.721 205.499 224.269 194.064 211.448 194.064C192.524 194.064 185.618 209.321 185.618 209.321C185.618 209.321 173.194 177.161 150.001 177.161C126.808 177.161 114.384 209.321 114.384 209.321C114.384 209.321 107.478 194.065 88.5549 194.065C75.7342 194.065 66.2818 205.5 60.2852 216.058C83.5961 253.088 120.781 275.937 149.999 290C179.22 275.937 216.406 253.088 239.718 216.057Z" fill="#0B4EA2"/>
</svg>
