<svg width="300" height="300" viewBox="0 0 300 300" fill="none" xmlns="http://www.w3.org/2000/svg">
<path d="M140.891 228.919C140.891 228.919 138.948 234.046 137.84 234.046C136.732 234.046 132.713 231.83 132.713 231.83C132.713 231.83 129.801 236.546 128.275 236.819C126.75 237.097 122.73 236.129 122.73 236.129C122.73 236.129 118.849 236.129 118.71 235.572C118.571 235.021 118.849 233.913 118.849 233.913C118.849 233.913 113.305 238.345 112.057 238.066C110.81 237.793 106.651 232.527 106.651 232.527L105.958 235.299L98.057 235.021L91.1259 230.583C91.1259 230.583 87.2447 236.958 87.1061 236.819C86.9675 236.68 80.3142 238.345 80.3142 238.345L79.8983 237.097L75.4626 234.464C75.4626 234.464 78.9279 229.615 78.9279 229.475C78.9279 229.336 77.2643 228.779 77.2643 228.779L74.7695 230.862L69.6406 234.186L64.5117 231.83L66.7299 227.671L67.0071 224.62L71.0269 218.524L120.235 170.698L144.493 215.473L140.891 228.919Z" fill="#6A4C2D" stroke="black" stroke-width="0.77341"/>
<path d="M175.851 231.82L188.658 231.356L183.206 228.664L232.012 226.825L225.115 224.198L219.007 215.92L193.717 214.018C193.717 214.018 191.814 212.573 188.722 213.293C188.595 211.326 186.228 208.762 186.228 208.762L170.659 207.579L160.938 214.215L167.504 231.031L175.851 231.82Z" fill="white" stroke="black" stroke-width="0.77341"/>
<path d="M126.012 88.3826L127.299 83.9974C127.299 83.9974 129.556 80.1922 129.556 78.5101C129.556 76.8337 131.238 74.8383 131.238 74.8383C131.238 74.8383 136.395 73.3534 137.491 76.5147C143.042 68.127 149.556 76.126 149.556 76.126L151.36 73.9972L155.038 69.4844C155.038 69.4844 160.264 74.3859 160.328 75.2211C160.392 76.0622 161.227 75.4822 161.227 75.4822L166.906 75.0297C166.906 75.0297 169.597 77.1411 169.035 81.1551C171.036 82.3384 172.84 89.2817 172.84 89.2817L126.012 88.3826Z" fill="url(#paint0_linear_199_66455)" stroke="black" stroke-width="0.77341"/>
<path d="M175.857 140.564C176.837 139.967 179.923 138.987 179.546 134.474C179.169 129.961 175.26 129.433 173.079 129.584C170.892 129.735 168.937 131.614 168.937 131.614L161.715 127.026C161.715 127.026 165.329 104.23 169.163 102.803C172.806 100.175 173.45 99.0381 173.45 98.4406C173.45 97.8373 172.098 96.3292 172.098 96.3292L148.548 93.5449L126.279 96.1784C126.279 96.1784 124.551 98.8118 124.777 99.8675C125.003 100.917 125.079 102.049 129.064 105.134C133.478 108.528 136.512 128.006 136.512 128.006C136.512 128.006 130.27 131.086 129.893 130.709C129.516 130.338 127.637 129.961 126.657 130.112C125.682 130.263 122.445 131.916 122.445 136.202C122.445 140.495 125.682 142.977 125.682 142.977C125.682 142.977 146.97 140.495 150.131 146.359C153.217 139.288 173.45 141.771 175.857 140.564Z" fill="#656263" stroke="black" stroke-width="0.77341"/>
<path d="M198.795 116.87C198.795 116.87 199.033 114.393 200.796 113.216C202.565 112.038 214.346 111.446 217.177 113.216C220.002 114.985 221.063 123.703 221.063 123.703C221.063 123.703 222.832 126.766 222.948 129.005C223.064 131.244 223.302 132.775 223.302 132.775C223.302 132.775 232.728 145.032 232.844 156.105C233.906 163.646 233.668 183.791 230.727 191.448C230.605 200.996 226.603 207.237 226.603 207.237C226.603 207.237 227.543 208.884 227.427 210.654C227.305 212.423 226.365 214.07 226.365 214.07L240.147 220.903L235.083 219.018C235.083 219.018 240.269 223.38 240.147 223.264C240.031 223.142 234.376 220.549 234.376 220.549L237.792 223.966C237.676 223.85 229.428 220.196 229.428 220.196C229.428 220.196 233.314 223.85 233.082 223.734C232.844 223.618 226.835 220.787 226.835 220.787C226.835 220.787 230.605 224.795 230.489 224.558C230.373 224.32 225.071 222.203 225.071 222.203L225.303 224.204C225.303 224.204 221.063 223.966 221.063 220.787C218.94 219.61 217.531 217.957 217.531 217.957L207.751 216.309L196.672 183.199L199.265 127.236L199.972 124.411L198.795 116.87Z" fill="black" stroke="black" stroke-opacity="0.97854" stroke-width="0.725072" stroke-linejoin="round"/>
<path d="M191.393 295.719C191.393 295.719 185.72 283.787 182.895 283.619C180.343 278.753 191.764 238.978 213.859 236.71C226.005 237.708 214.856 250.713 206.869 246.71C207.867 250.208 211.857 255.214 211.857 255.214C211.857 255.214 196.051 262.047 191.393 295.719Z" fill="#FFBB00" stroke="black" stroke-width="0.768174"/>
<path d="M115.334 297.459C115.334 297.459 120.032 283.874 122.88 283.706C125.734 283.537 115.334 238.432 92.6988 238.096C80.4573 239.105 91.6924 252.18 99.7413 248.154C98.7355 251.681 94.711 256.71 94.711 256.71C94.711 256.71 110.641 263.583 115.334 297.459Z" fill="#FFBB00" stroke="black" stroke-width="0.77341"/>
<path d="M136.103 212.614C136.045 212.504 130.482 214.36 134.084 220.416C134.357 218.072 136.863 216.651 136.863 216.651C136.863 216.651 133.046 221.181 137.083 224.998C137.576 221.396 139.867 220.253 139.867 220.253C139.867 220.253 137.031 228.6 139.919 230.288C140.25 226.959 142.373 225.491 142.373 225.491C142.373 225.491 139.809 232.962 142.1 234.65C142.373 231.82 144.281 230.561 144.281 230.561C144.281 230.561 143.139 238.311 146.138 238.856C146.196 236.124 148.377 233.455 148.377 233.455C148.377 233.455 147.391 239.778 152.083 240.056C152.141 237.655 153.011 234.929 153.011 234.929C153.011 234.929 155.14 241.634 158.249 240.544C158.197 238.583 158.301 234.871 158.249 234.871C158.191 234.871 160.21 241.251 163.922 240.056C163.377 238.252 164.137 236.124 164.137 236.124C164.137 236.124 166.103 240.109 169.647 238.798C170.251 237.597 169.485 235.254 169.485 235.254C169.485 235.254 174.665 240.602 176.248 237.382C177.832 234.163 172.101 233.073 172.101 233.073H175.976C175.976 233.073 174.723 229.801 169.485 229.088C171.283 228.27 173.139 228.873 173.139 228.873C173.139 228.873 172.049 224.778 166.701 224.343C168.777 223.635 171.069 224.128 171.069 224.128C171.069 224.128 170.355 220.253 164.467 219.163C165.396 218.125 167.901 218.455 167.901 218.455C167.901 218.455 165.558 214.801 162.884 215.015C160.21 215.236 136.045 212.562 136.103 212.614Z" fill="#00713D" stroke="black" stroke-width="0.77341"/>
<path d="M159.938 232.308C159.938 232.308 162.066 233.346 162.014 234.274" stroke="#3EC26D" stroke-width="0.725072" stroke-linecap="round"/>
<path d="M161.199 230.62C161.199 230.62 163.925 232.529 163.873 233.944" stroke="#3EC26D" stroke-width="0.725072" stroke-linecap="round"/>
<path d="M163.594 229.633C163.594 229.633 165.781 230.996 165.885 233.125" stroke="#3EC26D" stroke-width="0.725072" stroke-linecap="round"/>
<path d="M167.246 230.509C167.246 230.509 168.342 232.852 167.96 233.287" stroke="#3EC26D" stroke-width="0.725072" stroke-linecap="round"/>
<path d="M169.434 231.762C169.596 233.618 169.266 233.78 169.266 233.78" stroke="#3EC26D" stroke-width="0.725072" stroke-linecap="round"/>
<path d="M142.535 220.033C142.535 220.033 145.099 221.669 144.884 223.96" stroke="#3EC26D" stroke-width="0.725072" stroke-linecap="round"/>
<path d="M142.375 221.999C142.375 221.999 143.576 223.142 143.303 223.907" stroke="#3EC26D" stroke-width="0.725072" stroke-linecap="round"/>
<path d="M145.543 220.092C145.543 220.092 147.231 222.435 146.686 224.071" stroke="#3EC26D" stroke-width="0.725072" stroke-linecap="round"/>
<path d="M148.43 221.617C148.43 221.617 149.195 223.091 148.488 223.908" stroke="#3EC26D" stroke-width="0.725072" stroke-linecap="round"/>
<path d="M149.797 222.324C149.797 222.324 150.725 223.798 149.907 224.291" stroke="#3EC26D" stroke-width="0.725072" stroke-linecap="round"/>
<path d="M148.762 227.18C148.762 227.18 151.157 227.725 151.488 229.523" stroke="#3EC26D" stroke-width="0.725072" stroke-linecap="round"/>
<path d="M150.176 225.544C150.176 225.544 152.687 225.706 152.96 228.38" stroke="#3EC26D" stroke-width="0.725072" stroke-linecap="round"/>
<path d="M153.504 224.615C153.556 224.615 155.192 227.51 154.919 228.432" stroke="#3EC26D" stroke-width="0.725072" stroke-linecap="round"/>
<path d="M156.727 224.889C156.727 224.889 157.376 227.673 156.889 228.543" stroke="#3EC26D" stroke-width="0.725072" stroke-linecap="round"/>
<path d="M158.797 225.979C158.797 226.037 158.849 229.198 158.849 229.198" stroke="#3EC26D" stroke-width="0.725072" stroke-linecap="round"/>
<path d="M155.633 221.617C155.633 221.617 157.211 222.215 157.1 223.746" stroke="#3EC26D" stroke-width="0.725072" stroke-linecap="round"/>
<path d="M157.102 220.195C157.102 220.195 159.12 221.344 158.906 223.525" stroke="#3EC26D" stroke-width="0.725072" stroke-linecap="round"/>
<path d="M159.453 219.273C159.453 219.273 161.199 221.344 160.544 223.635" stroke="#3EC26D" stroke-width="0.725072" stroke-linecap="round"/>
<path d="M162.502 219.761C162.502 219.761 161.852 222.325 162.119 223.363" stroke="#3EC26D" stroke-width="0.725072" stroke-linecap="round"/>
<path d="M164.359 221.507C164.359 221.507 163.216 222.383 163.814 223.473" stroke="#3EC26D" stroke-width="0.725072" stroke-linecap="round"/>
<path d="M154.434 231.489C154.434 231.489 154.811 233.456 154.434 233.78" stroke="#3EC26D" stroke-width="0.725072" stroke-linecap="round"/>
<path d="M151.922 230.347C151.922 230.347 153.175 232.528 152.74 233.618" stroke="#3EC26D" stroke-width="0.725072" stroke-linecap="round"/>
<path d="M149.25 230.237C149.25 230.237 150.671 231.873 150.613 233.184" stroke="#3EC26D" stroke-width="0.725072" stroke-linecap="round"/>
<path d="M147.066 230.562C147.066 230.562 148.377 231.82 148.267 232.528" stroke="#3EC26D" stroke-width="0.725072" stroke-linecap="round"/>
<path d="M145.926 232.47C145.926 232.47 147.179 233.781 147.121 234.053" stroke="#3EC26D" stroke-width="0.725072" stroke-linecap="round"/>
<path d="M118.789 142.921C124.804 142.811 130.819 142.706 136.835 142.596C136.835 142.596 148.755 142.596 150.043 146.465C152.299 141.308 162.607 141.633 162.607 141.633C168.836 141.419 175.066 141.204 181.29 140.989C181.4 156.024 181.505 171.059 181.615 186.095C177.966 203.595 165.292 215.95 151.33 221.211C134.683 215.84 124.16 201.773 120.726 185.77C120.077 171.489 119.433 157.202 118.789 142.921Z" fill="white" stroke="black" stroke-width="0.77341"/>
<path d="M125.215 142.752L151.497 212.788L175.239 141.227C167.872 141.702 152.071 140.066 150.111 146.784C147.071 140.774 130.447 143.199 125.215 142.752Z" fill="#006B00" stroke="black" stroke-width="0.77341"/>
<path d="M143.102 180.67C144.117 181.198 144.088 161.662 145.416 161.059C145.793 159.44 145.985 158.733 146.46 157.016C145.318 154.991 140.201 155.09 138.305 156.813C139.157 159.539 139.534 160.45 139.534 160.45C142.098 164.597 141.588 181.111 143.102 180.67Z" fill="#FFC900" stroke="#006B00" stroke-width="0.399764" stroke-linecap="round"/>
<path d="M136.064 29.6748C136.064 29.6748 137.926 27.5645 138.008 27.0587C138.095 26.5523 146.447 26.2147 151.424 16.9321C154.208 12.0375 151.424 14.9065 151.424 14.9065L151.256 12.5433C151.256 12.5433 154.719 9.25268 153.454 7.48003C152.184 5.70818 152.608 9.75907 150.583 9.67438C148.559 9.5897 149.655 5.28625 149.655 5.28625C149.655 5.28625 149.487 4.77986 148.895 4.52672C148.048 4.61112 148.304 6.13012 147.544 6.29886C146.784 6.46765 146.111 2.75453 146.111 2.75453C146.111 2.75453 144.846 1.0668 143.744 6.38325C144.336 12.0375 147.967 10.9401 147.967 14.6537C147.967 18.3667 144.759 21.2356 143.831 21.3203C142.903 21.4044 143.24 18.1979 143.24 18.1979C143.24 18.1979 142.735 16.6787 142.399 16.6787C142.062 16.6787 144.255 16.3411 143.918 12.1218C143.158 7.05844 142.567 13.3033 141.215 13.0499C139.864 12.7969 140.879 8.40881 141.383 7.90242C141.888 7.39603 140.792 5.28637 137.839 10.6873C137.584 13.3033 137.248 10.0121 136.656 10.1809C135.647 12.2906 135.815 13.8097 137.248 15.7506C139.359 17.6915 140.711 19.6323 140.624 20.6451C140.542 21.6579 139.44 23.9364 137.926 23.9364C136.407 23.9364 138.008 21.1515 137.926 20.2228C137.839 19.2948 135.31 15.9194 135.31 15.9194C135.31 15.9194 133.535 13.0499 133.703 12.9657C133.872 12.8811 133.535 12.4594 132.694 15.413C131.847 18.3667 130.832 13.4721 130.832 13.4721C130.832 13.4721 129.655 17.1004 132.184 19.2948C130.246 19.0418 130.078 19.8011 130.078 19.8011C130.078 20.8139 132.694 21.2356 133.031 23.0077C133.367 24.7804 130.328 25.7926 130.328 25.7926C130.328 25.7926 131.598 27.5646 135.136 24.1052C135.223 26.2989 133.79 27.8181 133.79 27.8181C134.968 28.3523 135.896 28.296 136.064 29.6748Z" fill="#CDAD56" stroke="black" stroke-width="0.725072" stroke-linejoin="round"/>
<path d="M124.485 29.6746C124.485 29.6746 122.907 27.333 122.838 26.8718C122.762 26.4112 115.077 27.4542 111.441 18.0793C109.075 13.6256 111.441 16.2365 111.441 16.2365L111.584 14.0862C111.584 14.0862 109.067 11.0072 110.142 9.39468C111.217 7.78212 110.774 11.4678 112.157 11.4753C113.876 11.3988 112.945 7.48223 112.945 7.48223C112.945 7.48223 113.088 7.02166 113.59 6.79138C114.305 6.86795 114.601 9.17832 115.245 9.33203C115.889 9.48575 117.223 6.6133 117.64 6.02257C118.232 5.93806 118.209 3.643 119.143 8.48051C118.644 13.6256 114.381 12.6273 114.381 16.0062C114.381 19.3844 117.101 21.9953 117.89 22.0724C118.679 22.149 118.395 19.2313 118.395 19.2313C118.395 19.2313 118.824 17.849 119.108 17.849C119.398 17.849 116.602 18.3856 116.892 14.5462C117.536 10.9516 118.963 14.7776 120.111 14.5467C121.26 14.3165 119.978 10.7456 120.309 10.2004C120.384 9.65513 122.072 7.31343 122.728 12.4812C122.942 14.8617 124.241 10.4324 124.74 10.5861C125.605 12.5055 124.363 15.0694 123.145 16.8357C121.353 18.6014 120.541 20.5364 120.616 21.4581C120.686 22.3793 121.109 23.5243 122.403 23.5243C123.69 23.5243 122.838 21.9187 122.907 21.0741C122.977 20.2296 125.129 17.4952 125.129 17.4952C125.552 16.8206 125.199 15.5595 125.645 14.9766C126.347 14.9841 126.637 14.0096 127.351 16.697C128.07 19.3844 128.928 14.9307 128.928 14.9307C128.928 14.9307 129.932 18.233 127.78 20.2296C129.427 19.9993 129.572 20.6901 129.572 20.6901C129.572 21.6118 128.789 21.9953 128.499 23.6078C128.209 25.2204 129.358 26.1421 129.358 26.1421C129.358 26.1421 128.284 27.7547 125.274 24.6061C125.199 26.6027 126.423 27.9849 126.423 27.9849C125.413 28.4716 124.63 28.42 124.485 29.6746Z" fill="#CDAD56" stroke="black" stroke-width="0.637425" stroke-linejoin="round"/>
<path d="M170.858 153.2C169.286 151.773 169.1 153.02 168.329 152.701C167.946 152.544 167.65 152.19 167.319 151.866C167.035 151.57 166.693 151.448 166.316 151.291C166.171 151.715 166.031 152.132 165.886 152.556C165.741 152.979 166.287 153.681 166.275 154.313C166.165 155.253 165.782 156.036 164.599 156.355C164.935 155.688 165.127 155.659 165.022 154.841C164.976 154.435 163.833 153.71 163.972 153.327C164.181 152.707 164.541 151.993 164.274 151.372C163.792 151.703 163.154 151.529 162.673 151.732C162.261 151.912 162.238 152.672 161.669 152.985C161.089 153.258 159.807 153.124 158.734 152.515C159.39 152.022 159.929 152.353 160.585 151.86C160.91 151.61 160.898 150.549 161.223 150.299C161.553 150.05 162.337 149.789 162.661 149.54C162.366 149.203 162.383 148.675 162.087 148.339C161.797 148.002 160.492 148.072 160.196 147.741C159.604 147.068 159.72 146.187 159.129 145.52C160.654 146.065 160.434 146.807 160.817 146.749C161.536 146.401 162.255 146.338 162.632 146.494C163.015 146.657 163.734 147.596 164.112 147.753C164.257 147.329 164.465 146.796 164.605 146.372C164.75 145.949 163.966 145.218 164.106 144.795C164.396 143.954 165.103 143.205 165.388 142.358C165.492 143.176 165.625 143.861 165.73 144.673C165.782 145.079 166.583 145.293 166.635 145.7C166.687 146.111 166.217 147.051 166.264 147.463C166.704 147.376 167.337 147.434 167.772 147.347C168.213 147.26 168.503 146.245 168.938 146.158C169.813 145.984 170.446 146.036 171.333 146.204C170.678 146.813 170.173 146.773 169.761 147.329C169.436 147.579 169.889 148.397 168.943 148.971C168.59 149.18 167.656 148.93 167.325 149.18C167.621 149.516 167.917 149.847 168.213 150.183C168.503 150.52 169.825 150.676 170.121 151.013C170.707 151.68 171.02 152.48 170.858 153.2Z" fill="#FFC900"/>
<path d="M130.444 153.89C132.016 152.463 132.202 153.71 132.979 153.391C133.356 153.229 133.652 152.875 133.983 152.556C134.267 152.26 134.609 152.138 134.986 151.976C135.131 152.399 135.276 152.823 135.415 153.246C135.561 153.67 135.021 154.366 135.033 154.998C135.137 155.944 135.52 156.721 136.703 157.046C136.367 156.379 136.175 156.344 136.28 155.532C136.332 155.126 137.469 154.401 137.33 154.012C137.121 153.397 136.761 152.678 137.028 152.057C137.515 152.394 138.148 152.22 138.635 152.417C139.041 152.602 139.07 153.362 139.632 153.675C140.218 153.948 141.5 153.815 142.568 153.206C141.912 152.707 141.373 153.043 140.717 152.544C140.392 152.301 140.41 151.233 140.079 150.99C139.754 150.74 138.971 150.474 138.641 150.224C138.936 149.894 138.919 149.36 139.215 149.023C139.511 148.693 140.816 148.762 141.106 148.426C141.698 147.759 141.587 146.877 142.173 146.204C140.648 146.75 140.874 147.492 140.491 147.44C139.766 147.092 139.047 147.022 138.67 147.185C138.293 147.341 137.567 148.281 137.19 148.443C137.045 148.02 136.842 147.486 136.697 147.063C136.552 146.639 137.341 145.909 137.196 145.485C136.912 144.638 136.199 143.896 135.914 143.049C135.81 143.861 135.677 144.545 135.572 145.363C135.52 145.769 134.719 145.984 134.667 146.39C134.621 146.796 135.091 147.741 135.038 148.148C134.598 148.061 133.965 148.119 133.53 148.037C133.095 147.945 132.805 146.929 132.364 146.842C131.488 146.668 130.862 146.721 129.969 146.889C130.624 147.504 131.129 147.457 131.541 148.02C131.866 148.269 131.413 149.087 132.359 149.661C132.712 149.87 133.652 149.621 133.977 149.87C133.681 150.201 133.385 150.537 133.095 150.874C132.799 151.21 131.477 151.367 131.187 151.697C130.595 152.37 130.282 153.171 130.444 153.89Z" fill="#FFC900"/>
<path d="M169.45 157.713C168.023 158.821 158.829 161.147 158.731 169.134C158.638 177.122 160.343 178.943 158.638 179.146C155.32 179.146 154.844 170.248 154.937 166.304C155.036 162.359 155.129 162.968 155.129 162.968C155.129 162.968 157.402 163.572 157.217 165.497C157.025 167.417 159.491 160.741 158.638 158.925C160.152 160.439 162.147 159.836 162.147 159.732C162.147 159.633 161.01 158.421 160.535 157.51C160.059 156.599 162.24 158.015 162.24 158.015C162.24 158.015 162.333 156.495 160.436 156.599C157.971 156.599 160.819 155.787 160.819 155.787C160.819 155.787 162.24 157.104 163.191 155.689C162.147 154.575 160.627 153.966 160.627 153.966C160.627 153.966 159.299 151.443 157.501 150.938C155.413 150.427 155.697 151.843 153.325 151.646C152.855 152.55 152.855 152.655 153.8 152.956C152.188 154.07 153.04 156.292 153.04 156.292C153.04 156.292 155.604 155.184 155.506 156.999C155.413 158.821 153.992 158.519 153.04 157.406C152.188 156.901 151.903 157.91 151.903 157.91L153.232 159.326C153.232 159.326 150.674 159.227 150.007 160.944C151.428 160.845 152.188 161.251 152.188 161.251C152.188 161.251 149.247 162.562 148.963 163.27C148.678 163.978 148.585 162.464 148.493 162.464C148.394 162.464 145.645 161.449 145.645 161.449L144.693 165.822C144.693 165.822 146.596 167.719 147.634 167.11C148.678 166.507 150.575 164.685 151.712 165.19C148.394 167.719 145.076 171.356 143.272 171.866C142.802 171.46 141.19 169.842 140.523 170.648C139.861 171.46 140.337 172.47 141.19 172.371C142.042 172.267 138.44 173.177 139.194 174.697C139.954 176.211 139.861 176.112 140.523 175.706C141.19 175.3 139.954 175.202 142.419 174.494C144.885 173.786 144.792 173.079 144.792 173.079C144.792 173.079 144.316 174.187 142.988 174.494C141.66 174.796 140.621 174.796 140.906 175.202C141.19 175.602 141.758 176.31 141.567 176.716C141.375 177.122 144.316 174.593 145.076 176.617C147.066 176.513 148.394 174.088 147.449 172.673C147.541 174.187 148.493 174.697 147.918 175.405C147.35 176.112 152.379 173.079 149.914 171.257C150.575 172.771 150.674 173.989 150.674 173.989C150.674 173.989 151.811 173.885 152.095 173.479C152.379 173.079 151.526 174.593 151.903 174.894C152.28 175.202 154.084 176.919 153.325 178.131C152.855 177.423 152.756 176.31 152.188 176.414C151.619 176.513 149.247 178.235 147.826 178.334C146.404 178.433 149.531 183.595 149.531 183.595C149.531 183.595 147.35 183.288 147.066 183.491C146.782 183.694 145.36 181.669 145.076 182.887C144.601 184.401 145.552 183.792 145.552 183.792C145.552 183.792 144.316 183.189 143.655 183.897C142.988 184.604 142.327 185.312 142.802 185.614C143.272 185.915 145.36 185.915 145.645 185.817C145.929 185.718 143.272 186.02 143.087 186.321C142.895 186.623 142.518 187.737 143.087 188.143C143.655 188.549 145.076 187.94 145.169 187.638C145.268 187.331 145.36 188.746 145.36 188.746C145.36 188.746 147.826 188.949 147.826 186.426C147.826 183.897 148.017 188.241 148.017 188.241C148.017 188.241 150.482 188.647 150.575 186.118C150.674 183.595 150.859 187.841 150.859 187.841C150.859 187.841 152.472 187.331 152.472 186.93C152.472 186.524 152.379 191.983 151.242 193.503C149.438 192.284 148.301 194.309 148.301 194.309C148.301 194.309 148.394 197.238 148.203 197.946C148.017 198.653 149.438 197.546 149.531 197.238C149.63 196.936 151.335 196.13 151.428 195.927C151.526 195.724 151.996 194.715 151.996 194.715C151.996 194.715 151.619 196.13 150.958 196.333C150.291 196.53 149.63 197.238 149.914 197.847C150.198 198.456 151.242 198.856 151.619 199.466C151.996 200.069 153.325 195.927 153.325 195.927L153.423 196.838C153.423 196.838 155.129 196.432 155.32 195.626C155.506 194.813 153.516 194.106 155.129 192.795C156.741 191.478 155.129 194.007 155.129 194.007C155.129 194.007 155.697 195.927 156.074 195.927C156.457 195.927 157.402 192.284 156.457 191.38C155.506 190.469 157.878 192.487 157.878 192.487C157.878 192.487 159.206 188.746 157.785 188.241C156.358 187.737 155.697 187.534 155.697 187.534C155.697 187.534 156.457 186.524 156.074 186.426C155.697 186.321 158.069 188.647 158.446 188.038C158.829 187.435 159.398 185.614 156.648 184.604C153.893 183.595 156.55 180.759 156.55 180.759C156.55 180.759 158.261 182.783 159.491 181.669C160.72 180.561 159.398 180.561 159.398 180.561C159.398 180.561 162.901 178.334 163 177.22C162.333 177.122 161.196 177.325 161.196 177.325C161.196 177.325 163.191 176.008 162.716 173.885C161.956 174.999 160.912 174.999 160.912 174.999C160.912 174.999 162.623 173.282 162.333 171.663C161.295 172.47 161.387 173.079 160.72 172.876C160.059 172.673 158.922 166.304 161.579 165.898C164.23 165.497 162.808 169.036 162.901 169.036C163 169.036 166.886 167.417 162.901 164.79C163.853 164.482 165.842 166.304 165.842 166.304C165.842 166.304 164.99 161.855 160.72 164.587C161.764 163.473 162.431 162.765 163.284 162.968C164.137 163.171 167.171 162.864 167.171 161.959C166.416 161.35 164.804 162.261 163.945 161.959C163.093 161.652 170.019 161.147 169.45 157.713Z" fill="#FFC900" stroke="#006B00" stroke-width="0.399764" stroke-linecap="round" stroke-linejoin="round"/>
<path d="M139.379 160.337C139.379 160.337 143.173 158.213 145.069 160.845" stroke="#006B00" stroke-width="0.399763" stroke-linecap="round"/>
<path d="M146.586 164.887C146.49 164.887 145.258 166.201 144.973 166.201" stroke="#006B00" stroke-width="0.399763" stroke-linecap="round"/>
<path d="M149.148 169.134C149.148 169.134 152.655 169.438 154.931 165.696" stroke="#006B00" stroke-width="0.399763" stroke-linecap="round"/>
<path d="M152.936 168.021C152.936 168.021 153.221 170.045 153.791 170.045C154.358 170.045 152.843 170.55 152.273 170.144C152.936 171.055 153.317 172.673 152.273 173.278" stroke="#006B00" stroke-width="0.399763" stroke-linecap="round"/>
<path d="M151.137 193.499C151.137 193.499 149.904 194.912 148.387 195.015Z" fill="#E80000"/>
<path d="M151.137 193.499C151.137 193.499 149.904 194.912 148.387 195.015" stroke="#006B00" stroke-width="0.399763" stroke-linecap="round"/>
<path d="M152.562 187.028C152.562 187.028 151.803 182.986 152.277 181.972C152.562 180.658 153.795 180.153 154.742 178.436" stroke="#006B00" stroke-width="0.399763" stroke-linecap="round"/>
<path d="M152.178 184.096C152.178 184.096 151.231 186.523 147.059 185.714" stroke="#006B00" stroke-width="0.399763" stroke-linecap="round"/>
<path d="M153.318 178.029C153.318 178.029 153.6 181.265 149.809 180.054" stroke="#006B00" stroke-width="0.399763" stroke-linecap="round"/>
<path d="M148.67 163.474C148.67 163.474 147.152 164.887 147.722 166.809" stroke="#006B00" stroke-width="0.399763" stroke-linecap="round"/>
<path d="M154.363 159.933C154.363 159.933 156.355 159.124 156.736 158.717C157.114 158.315 157.78 157.506 157.969 156.898C158.158 156.294 156.64 155.382 157.399 154.068C157.873 153.462 158.535 153.361 159.675 154.068C160.812 154.775 158.631 151.844 157.495 151.743C156.355 151.642 155.596 152.552 155.314 152.35C155.029 152.147 155.407 153.159 154.933 153.159C154.459 153.159 155.881 153.967 155.788 154.474C155.692 154.979 157.303 156.696 157.21 157.103C157.114 157.506 154.837 159.83 154.363 159.933Z" fill="#006B00"/>
<path d="M155.789 153.259C156.653 153.049 156.793 153.282 156.641 154.067C156.235 153.85 156.086 153.666 155.789 153.259Z" fill="#FFC900" stroke="#FFC900" stroke-width="0.399763" stroke-linecap="round" stroke-linejoin="round"/>
<path d="M149.733 198.302C149.733 198.302 149.413 200.418 150.194 200.593C150.154 199.775 150.361 199.216 150.553 198.999C150.386 198.916 149.77 198.315 149.733 198.302Z" fill="#E80000" stroke="#006B00" stroke-width="0.399763" stroke-linejoin="round"/>
<path d="M147.976 195.696C147.257 195.587 146.046 196.221 146.393 196.987C146.979 196.452 147.517 197.03 147.926 196.485C148.05 196.333 148.016 195.887 147.976 195.696Z" fill="#E80000" stroke="#006B00" stroke-width="0.399763" stroke-linejoin="round"/>
<path d="M147.972 194.184C147.972 194.184 146.842 193.992 146.684 194.828C147.464 194.722 147.696 194.633 147.957 194.808C148.031 194.63 147.96 194.227 147.972 194.184Z" fill="#E80000" stroke="#006B00" stroke-width="0.399763" stroke-linejoin="round"/>
<path d="M143.176 182.259C143.176 182.259 143.854 182.53 144.046 183.27C144.585 182.913 144.842 181.344 143.176 182.259Z" fill="#E80000" stroke="#006B00" stroke-width="0.426414" stroke-linejoin="round"/>
<path d="M141.496 184.059C141.524 184.046 142.918 183.145 143.06 184.006C142.766 184.32 142.636 184.525 142.407 184.594C142.227 184.594 141.868 184.006 141.496 184.059Z" fill="#E80000" stroke="#006B00" stroke-width="0.426414" stroke-linejoin="round"/>
<path d="M141.359 186.982C141.384 186.969 142.255 186.15 142.589 186.695C142.92 187.243 142.32 187.213 142.32 187.213C142.32 187.213 142.013 187.064 141.359 186.982Z" fill="#E80000" stroke="#006B00" stroke-width="0.426414" stroke-linejoin="round"/>
<path d="M140.131 170.709C140.119 170.709 139.016 170.256 138.555 171.075C139.286 171.171 139.543 171.445 139.874 171.719C139.784 171.376 139.633 170.857 140.131 170.709Z" fill="#E80000" stroke="#006B00" stroke-width="0.426414" stroke-linejoin="round"/>
<path d="M137.992 176.838C137.992 176.838 138.042 175.461 138.655 174.899C139.002 175.104 139.104 175.431 139.336 175.841C138.875 175.949 138.259 175.979 137.992 176.838Z" fill="#E80000" stroke="#006B00" stroke-width="0.426414" stroke-linejoin="round"/>
<path d="M140.936 175.854C140.936 175.854 139.722 176.455 140.119 177.112C140.515 176.659 140.952 176.798 140.952 176.785C140.952 176.772 140.952 175.87 140.936 175.854Z" fill="#E80000" stroke="#006B00" stroke-width="0.426414" stroke-linejoin="round"/>
<path d="M139.181 162.666C138.744 163.187 139.72 164.32 140.742 164.155C140.999 162.926 139.438 162.286 139.181 162.666Z" fill="#FFC900" stroke="#006B00" stroke-width="0.426414" stroke-linejoin="round"/>
<path d="M140.305 161.725C140.305 161.725 140.497 162.696 141.379 162.435C141.24 161.685 140.624 161.124 140.624 161.124C140.587 161.345 140.751 161.685 140.305 161.725Z" fill="#E80000" stroke="#006B00" stroke-width="0.426414" stroke-linejoin="round"/>
<path d="M140.895 164.539C140.895 164.539 141.381 165.097 142.341 163.951C141.907 164.086 141.139 163.677 141.139 163.677C141.139 163.677 141.139 164.469 140.895 164.539Z" fill="#E80000" stroke="#006B00" stroke-width="0.426414" stroke-linejoin="round"/>
<path d="M139.121 160.44C138.687 160.959 139.304 161.682 140.326 161.52C140.583 160.292 139.378 160.061 139.121 160.44Z" fill="#FFC900" stroke="#006B00" stroke-width="0.426414" stroke-linejoin="round"/>
<path d="M139.529 155.589C139.529 155.589 143.613 154.423 145.782 156.175C147.946 157.921 147.946 156.338 147.946 156.338C147.946 156.338 151.113 157.504 152.029 157.254C152.946 157.005 151.362 157.341 152.609 156.587C153.862 155.839 150.109 156.755 149.779 155.172C149.193 154.174 149.86 152.921 148.532 153.339C147.615 152.173 149.112 151.343 148.781 150.09C147.864 150.757 147.36 149.841 146.612 151.506C144.866 151.175 146.362 148.756 144.448 148.507C144.448 150.259 143.033 150.34 142.946 151.343C142.116 151.923 138.45 154.093 139.529 155.589Z" fill="url(#paint1_linear_199_66455)"/>
<path d="M92.5508 288.4C95.1993 287.762 109.55 291.573 115.084 297.501C113.906 286.938 110.982 278.846 110.982 278.846C110.982 278.846 102.43 276.404 101.256 277.582C99.5341 279.391 94.3629 284.827 92.5508 288.4Z" fill="#C01500" stroke="black" stroke-width="0.77341"/>
<path d="M88.1747 239.604C87.1689 239.773 86.1625 240.446 85.1567 242.122C83.9826 244.97 83.1444 252.18 81.4675 253.857C79.7906 255.533 78.2812 255.701 78.2812 257.215C78.2812 258.723 78.4495 262.244 82.9768 263.584C87.5042 263.752 94.7148 256.374 94.7148 256.374C94.7148 256.374 98.404 252.348 99.9127 247.992C91.1933 251.008 84.989 242.957 88.1747 239.604Z" fill="#C01500" stroke="black" stroke-width="0.77341"/>
<path d="M214.282 286.717C211.655 286.085 197.142 289.873 191.648 295.766C192.814 285.267 195.72 277.216 195.72 277.216C196.736 276.943 204.114 274.791 205.28 275.963C206.985 277.761 212.484 283.167 214.282 286.717Z" fill="#C01500" stroke="black" stroke-width="0.768174"/>
<path d="M218.351 238.207C219.348 238.375 219.702 239.686 220.52 241.357C221.68 244.187 222.881 248.317 224.546 249.982C226.21 251.653 227.707 254.118 227.707 255.62C227.707 257.123 227.359 259.147 222.864 260.481C218.374 260.649 211.86 254.878 211.86 254.878C211.86 254.878 208.2 250.881 206.703 246.542C215.358 249.547 220.961 241.821 218.351 238.207Z" fill="#C01500" stroke="black" stroke-width="0.768174"/>
<path d="M83.1445 279.182C83.1445 279.182 92.1992 285.382 92.3674 288.236C116.683 252.18 178.726 240.944 214.104 285.719C218.802 279.512 223.663 277.505 223.663 277.505C186.441 228.873 112.321 234.912 83.1445 279.182Z" fill="#FFBB00" stroke="black" stroke-width="0.77341"/>
<path d="M175.393 141.238L178.938 141.151L172.609 149.168L180.202 158.031L165.266 176.848L179.361 193.809C177.812 197.608 176.014 201.066 173.618 204.192L165.521 195.242L180.202 176.935L168.137 163.263L175.393 141.238Z" fill="#3FA4D5" stroke="black" stroke-width="0.77341"/>
<path d="M124.76 142.839L120.961 142.926L128.049 150.6L120.543 159.968L136.152 176.935L123.24 194.232C124.789 198.031 127.011 202.248 129.4 205.369L137.08 195.665L121.303 178.112L132.863 163.431L124.76 142.839Z" fill="#3FA4D5" stroke="black" stroke-width="0.77341"/>
<path d="M142.315 188.408L136.746 195.833L156.659 218.873C160.175 217.098 162.936 215.074 165.946 212.632L155.563 200.648L159.786 188.24L165.859 195.242L146.874 219.465C143.695 218.113 140.18 216.002 137.001 213.386L147.042 200.648L142.315 188.408Z" fill="#3FA4D5" stroke="black" stroke-width="0.77341"/>
<path d="M136.152 176.848L139.784 181.407L137.417 175.247L136.152 176.848Z" fill="#3FA4D5" stroke="black" stroke-width="0.77341"/>
<path d="M162.145 180.88C162.22 180.793 165.074 176.993 165.074 176.993L163.966 175.479L162.145 180.88Z" fill="#3FA4D5" stroke="black" stroke-width="0.74904"/>
<path d="M204.102 117.491C204.102 117.491 207.605 114.492 210.099 114.405" stroke="#FFF700" stroke-width="0.77341" stroke-linecap="round"/>
<path d="M204.605 117.073C204.687 116.992 225.517 114.074 226.178 113.407" stroke="#FFF700" stroke-width="0.77341" stroke-linecap="round"/>
<path d="M204.688 117.241C204.769 117.154 228.012 115.24 228.012 115.24" stroke="#FFF700" stroke-width="0.77341" stroke-linecap="round"/>
<path d="M204.605 117.322C204.605 117.322 229.345 116.157 230.847 117.409" stroke="#FFF700" stroke-width="0.77341" stroke-linecap="round"/>
<path d="M204.52 117.241C204.52 117.241 228.766 117.409 229.184 117.989" stroke="#FFF700" stroke-width="0.77341" stroke-linecap="round"/>
<path d="M204.605 117.241L227.93 119.155" stroke="#FFF700" stroke-width="0.77341" stroke-linecap="round"/>
<path d="M204.355 117.409C204.437 117.409 228.097 119.492 230.429 122.49" stroke="#FFF700" stroke-width="0.77341" stroke-linecap="round"/>
<path d="M231.677 126.737C231.596 126.656 223.597 117.154 204.27 117.323" stroke="#FFF700" stroke-width="0.77341" stroke-linecap="round"/>
<path d="M204.355 117.491C204.355 117.491 217.766 118.408 222.012 123.071" stroke="#FFF700" stroke-width="0.77341" stroke-linecap="round"/>
<path d="M204.605 117.323C204.605 117.323 213.266 115.659 222.349 126.575" stroke="#FFF700" stroke-width="0.77341" stroke-linecap="round"/>
<path d="M199.145 127.235C199.145 127.235 211.164 127.711 211.164 128.889C211.164 130.066 202.208 132.305 202.092 137.253C201.976 142.201 208.925 142.555 209.395 148.796C209.865 155.043 203.977 155.983 202.8 157.636C201.617 158.46 198.792 167.294 199.145 172.48C199.499 177.666 201.031 195.218 203.74 198.756C205.863 200.404 209.041 205.706 212.458 204.058C215.874 202.405 213.519 196.401 213.165 194.748C212.812 193.101 214.581 190.392 214.581 187.915C214.581 185.438 213.281 183.437 213.403 182.851C213.519 182.26 222.945 185.09 222.354 194.394C221.768 203.704 217.997 200.874 217.997 200.874C217.997 200.874 219.175 212.307 216.228 213.838C210.926 216.663 207.04 213.246 207.04 213.246L207.539 215.572L203.508 213.484C203.508 213.484 198.322 206.059 197.144 202.759C195.967 199.464 194.551 184.736 195.021 181.552C195.491 178.373 195.845 159.753 195.613 158.814C195.375 157.868 194.435 142.317 195.021 139.962C195.613 137.607 199.261 127.235 199.145 127.235Z" fill="url(#paint2_linear_199_66455)" stroke="black" stroke-width="0.77341"/>
<path d="M186.188 124.173C186.188 124.173 194.552 116.046 199.384 116.986C201.855 116.986 199.5 118.755 199.5 118.755C199.5 118.755 203.74 119.109 204.332 120.994C204.448 121.818 202.325 122.055 202.325 122.055C202.325 122.055 204.094 122.409 204.21 123.941C204.332 125.472 186.304 124.289 186.188 124.173Z" fill="#FF7000" stroke="black" stroke-width="0.77341"/>
<path d="M186.656 123.819C186.656 123.819 195.612 122.641 199.383 118.871" stroke="black" stroke-width="0.77341"/>
<path d="M195.73 121.348C195.73 121.348 202.326 121.11 202.326 122.056" stroke="black" stroke-width="0.77341"/>
<path d="M219.176 217.724C219.176 217.724 224.831 216.425 226.363 214.424C227.308 213.716 232.256 221.849 219.176 217.724Z" fill="white" stroke="black" stroke-width="0.725072" stroke-linejoin="round"/>
<path d="M217.645 170.949C217.645 170.949 218.353 175.311 216.351 178.252C215.29 179.43 212.105 181.437 212.105 182.852C212.105 184.262 213.283 186.147 213.051 187.8C212.813 189.447 211.05 191.1 211.166 192.51C211.166 193.925 213.167 201.466 212.929 201.582" stroke="white" stroke-width="0.725072" stroke-linecap="round"/>
<path d="M207.279 156.812C207.279 156.812 202.801 158.344 201.855 162.822" stroke="white" stroke-width="0.725072" stroke-linecap="round"/>
<path d="M205.391 121.349C205.391 121.349 206.928 125.589 211.876 121.581C208.691 117.224 205.391 121.465 205.391 121.349Z" fill="#C75B00" stroke="black" stroke-width="0.77341"/>
<path d="M209.045 121.169C209.045 121.279 208.989 121.383 208.889 121.461C208.79 121.538 208.655 121.582 208.515 121.582C208.374 121.582 208.239 121.538 208.14 121.461C208.04 121.383 207.984 121.279 207.984 121.169C207.984 121.06 208.04 120.955 208.14 120.878C208.239 120.8 208.374 120.757 208.515 120.757C208.655 120.757 208.79 120.8 208.889 120.878C208.989 120.955 209.045 121.06 209.045 121.169Z" fill="black"/>
<path d="M164.932 111.505C164.932 111.505 174.317 121.662 180.39 121.551C181.492 124.533 177.629 127.306 176.086 128.628C172.995 127.636 170.199 128.808 163.023 119.98C163.47 114.347 165.042 111.725 164.932 111.505Z" fill="white" stroke="black" stroke-width="0.77341"/>
<path d="M177.629 87.8795C178.841 84.1266 181.272 81.1451 183.366 80.8145C182.815 77.9432 187.786 65.2515 202.247 60.3906C203.128 66.9047 196.063 73.3085 196.063 73.3085C196.063 73.3085 217.369 69.6657 221.673 64.2538C221.232 66.6843 216.928 81.8063 194.184 81.6961C202.798 89.8691 191.428 96.3832 186.568 94.3936C195.512 87.5489 184.033 83.4653 177.629 87.8795Z" fill="white" stroke="black" stroke-width="0.77341"/>
<path d="M184.914 82.5837C189.218 79.8227 190.761 79.8227 194.299 80.3737C191.759 80.7043 191.759 80.8146 191.759 80.8146C191.759 80.8146 191.538 81.1452 193.081 82.5837C191.318 82.1371 189.769 81.1452 184.914 82.5837Z" fill="#CCCCCD" stroke="#CCCCCC" stroke-width="0.77341"/>
<path d="M183.258 80.8144C183.258 80.8144 191.761 76.2899 196.506 73.1982" stroke="black" stroke-width="0.77341"/>
<path d="M175.973 128.617C175.973 128.617 187.679 131.819 189.001 115.038C186.46 107.752 182.928 92.0731 188.34 87.5486C183.369 84.1263 177.963 87.6589 177.963 87.6589C177.632 88.4303 173.212 94.724 179.175 105.762C165.045 102.009 170.787 115.368 170.787 115.368C171.338 113.268 178.844 111.285 180.724 121.992C181.495 124.643 175.642 128.727 175.973 128.617Z" fill="#0000FF" stroke="black" stroke-width="0.77341"/>
<path d="M189.108 115.148C189.108 115.148 201.475 108.524 201.139 92.9609C190.651 93.1814 186.898 106.755 186.898 106.755L189.108 115.148Z" fill="#0000FF" stroke="black" stroke-width="0.77341"/>
<path d="M133.689 114.377C133.689 114.377 124.53 122.324 119.338 119.783C115.475 122.103 110.949 118.02 110.949 118.02C110.949 118.02 116.246 137.556 135.237 123.426C134.907 119.122 133.909 114.708 133.689 114.377Z" fill="white" stroke="black" stroke-width="0.77341"/>
<path d="M119.231 119.452C120.003 115.369 123.205 113.379 125.745 117.242C129.168 117.909 132.59 103.889 120.444 106.204C123.866 87.8798 113.602 81.0352 113.602 81.0352C113.602 81.0352 109.959 101.349 111.615 105.102C113.271 108.855 109.186 98.1469 96.0493 95.1654C95.8283 110.514 110.732 117.689 110.732 117.689C110.732 117.689 114.927 121.552 119.231 119.452Z" fill="#0000FF" stroke="black" stroke-width="0.77341"/>
<path d="M120.44 106.094C120.44 106.094 114.704 110.955 116.026 117.579" stroke="black" stroke-width="0.77341"/>
<path d="M111.723 105.433C111.723 105.433 110.398 110.177 113.269 116.912" stroke="black" stroke-width="0.77341"/>
<path d="M110.84 118.46C110.84 118.46 113.49 114.156 119.229 119.672" stroke="black" stroke-width="0.77341"/>
<path d="M111.944 88.651C111.944 88.5408 103.223 88.651 108.411 97.4853C104.548 98.6976 95.9372 93.0711 101.898 85.5593C82.3587 85.1185 74.4102 75.739 74.4102 67.1251C80.151 73.0881 93.8397 70.6576 98.6971 74.3004C92.7359 68.7841 93.95 61.1621 93.95 61.1621C93.95 61.1621 110.62 66.1332 113.6 80.9247C112.606 83.7959 112.165 88.8715 111.944 88.651Z" fill="white" stroke="black" stroke-width="0.77341"/>
<path d="M98.5352 73.918C101.752 77.1895 110.017 78.1698 114.213 81.8125" stroke="black" stroke-width="0.77341"/>
<path d="M102.34 83.5743C102.34 83.5743 109.183 82.6926 111.166 85.1172C108.488 85.1172 107.596 84.456 103.729 85.8945C104.819 85.3377 104.521 84.3458 105.117 84.3458C105.712 84.3458 102.637 83.5743 102.34 83.5743Z" fill="#CCCCCD" stroke="#CCCCCC" stroke-width="0.549784"/>
<path d="M136.449 30.0329C136.449 30.0329 140.202 26.7208 144.286 29.7017C142.441 35.2163 135.788 33.1241 135.788 33.1241C135.788 33.1241 136.009 35.884 135.347 37.2083C136.676 38.21 137.772 41.514 137.772 41.514C137.772 41.514 144.617 39.858 146.055 42.8389C148.677 42.4769 150.58 42.8389 150.58 42.8389C150.58 42.8389 155.881 41.514 157.755 41.514C159.634 41.514 165.592 43.0593 166.143 44.1631C166.699 45.267 168.683 52.6639 170.012 52.5531C171.334 52.4429 166.81 54.3194 165.592 52.4429C164.379 50.5658 164.71 54.8716 164.71 54.8716C164.71 54.8716 168.463 58.8456 168.904 59.7284C169.345 60.6101 166.589 67.7854 168.683 72.7565C166.844 72.9247 166.699 74.8505 166.699 74.8505C166.595 77.0373 163.828 77.6116 163.828 77.6116L163.167 74.6301L161.288 75.738L162.059 73.4178C162.059 73.4178 164.6 67.2343 164.82 65.2505C165.041 63.2609 162.5 59.7284 160.516 59.7284C158.526 59.7284 157.094 66.022 157.094 66.022C157.094 66.022 156.102 70.7669 156.432 71.2077C156.763 71.6486 155.104 69.6648 155.104 69.6648C155.104 69.6648 154.222 72.5361 153.561 73.4178C152.9 74.2994 151.461 74.6301 151.461 74.6301C151.461 74.6301 150.469 71.7588 150.8 70.6567C151.131 69.5546 156.212 65.2506 155.771 62.1588C155.325 59.0671 155.771 59.8386 155.655 59.7284C155.545 59.6182 153.01 57.4105 152.9 56.1964C152.79 54.9818 149.588 57.7417 145.394 56.8583C144.106 59.1019 143.955 64.6937 143.955 64.6937C143.955 64.6937 143.515 71.4282 144.396 72.2054C145.284 72.9769 142.192 74.6301 142.192 74.6301L139.982 77.6116C139.982 77.6116 139.211 75.738 139.211 75.8482C139.211 75.9584 137.662 76.9503 137.662 76.9503L138.549 74.7403C138.491 73.0697 140.696 68.5047 140.696 64.6415C140.696 60.7783 140.974 56.6379 140.974 56.6379C140.974 56.6379 136.89 56.4169 137.001 60.6101C137.111 64.8097 136.009 65.0301 136.229 66.2424C136.449 67.4548 137.552 70.8771 137.221 71.8748C136.89 72.8667 135.568 73.1973 135.568 73.1973L135.237 73.7484C135.237 73.7484 131.154 75.6278 131.264 76.3993C131.374 77.1707 131.154 74.1892 131.154 74.1892L130.927 70.9873C130.927 70.9873 133.358 69.4444 133.358 65.5812C133.358 61.718 132.801 61.1669 132.911 60.2853C133.021 59.3978 133.578 56.1958 133.468 55.8652C133.358 55.534 131.154 56.7481 130.486 56.7481C129.825 56.7481 131.705 54.4302 131.925 52.7741C132.145 51.118 129.715 54.3194 127.731 52.4429C128.654 50.4046 130.046 49.7932 130.266 48.2479C130.486 46.7026 128.723 49.5728 127.174 48.4689C127.302 46.9874 128.833 45.709 128.833 45.709C128.833 45.709 127.575 45.5547 127.064 45.709C126.072 45.3778 128.172 43.8319 128.282 41.6242C128.392 39.4165 127.064 38.5331 127.064 38.4229C127.064 38.3127 124.86 36.4356 124.529 35.663C124.199 34.8903 124.199 34.0069 124.199 34.0069C124.199 34.0069 120.55 36.6566 116.246 31.0266C120.19 27.6605 124.419 30.1432 124.419 30.1432C124.419 30.1432 125.521 27.052 130.597 27.273C135.678 27.494 136.67 30.3642 136.449 30.0329Z" fill="#923F00" stroke="black" stroke-width="0.77341"/>
<path d="M164.224 87.1357C164.311 87.1357 173.597 87.4142 173.69 92.3795C173.783 97.3389 170.842 96.057 170.749 96.057C170.657 96.057 163.945 95.2275 163.945 95.2275L164.224 87.1357Z" fill="#0000FF" stroke="black" stroke-width="0.77341"/>
<path d="M155.207 85.755C155.207 85.755 166.791 85.668 166.147 90.7203C165.503 95.7784 162.562 94.7691 162.562 94.7691L156.953 94.305L155.207 85.755Z" fill="#FFFEFF" stroke="black" stroke-width="0.77341"/>
<path d="M148.683 85.2041L155.394 85.7552C155.394 85.7552 159.437 86.3062 159.257 90.1694C159.071 94.0326 155.115 94.1254 155.115 94.1254L148.59 93.7542L148.683 85.2041Z" fill="#0000FF" stroke="black" stroke-width="0.77341"/>
<path d="M132.963 87.1357C132.87 87.1357 123.583 87.4142 123.49 92.3795C123.403 97.3389 126.344 96.057 126.437 96.057C126.53 96.057 133.241 95.2275 133.241 95.2275L132.963 87.1357Z" fill="white" stroke="black" stroke-width="0.77341"/>
<path d="M141.97 85.755C141.97 85.755 130.386 85.668 131.03 90.7203C131.674 95.7784 134.615 94.7691 134.615 94.7691L140.224 94.305L141.97 85.755Z" fill="#0000FF" stroke="black" stroke-width="0.77341"/>
<path d="M148.503 85.2041L141.791 85.7552C141.791 85.7552 137.742 86.3062 137.928 90.1694C138.114 94.0326 142.064 94.1254 142.064 94.1254L148.59 93.7542L148.503 85.2041Z" fill="white" stroke="black" stroke-width="0.77341"/>
<path d="M166.473 141.023C166.473 141.023 171.299 133.911 173.335 134.671C175.11 135.263 173.758 140.767 172.911 141.278L166.473 141.023Z" fill="#5E0043" stroke="black" stroke-width="0.77341"/>
<path d="M133.393 142.294C131.873 140.176 129.669 134.335 127.639 135.942C125.858 136.534 127.216 142.038 128.062 142.549L133.393 142.294Z" fill="#5E0043" stroke="black" stroke-width="0.77341"/>
<path d="M136.59 128.228C136.59 128.228 145.993 134.023 149.078 134.174C152.164 134.325 161.944 126.65 161.944 126.65" stroke="black" stroke-width="0.77341"/>
<path d="M137.496 105.513L139.3 103.257L148.332 107.845L157.508 103.779L159.312 105.664L149.08 112.886L137.496 105.513Z" fill="#5E0043" stroke="black" stroke-width="0.77341"/>
<path d="M130.325 105.391C131.056 106.313 136.891 113.407 137.947 119.277C138.997 125.148 137.343 111.226 137.343 111.226C137.343 111.226 144.565 114.765 144.791 117.021C145.018 119.277 148.243 116.87 148.399 116.481L127.488 102.902L130.325 105.391Z" fill="#474747" stroke="#474747" stroke-width="0.725072" stroke-linejoin="round"/>
<path d="M166.006 104.984C166.006 104.984 158.407 114.99 159.312 125.895C157.746 120.675 159.01 112.055 159.01 112.055L157.357 113.111C157.357 113.111 155.628 120.484 153.441 121.609C153.076 120.733 153.146 120.408 153.146 120.408C153.146 120.408 150.814 123.413 150.361 123.714C149.909 124.016 150.512 133.871 150.512 133.871C150.512 133.871 151.295 141.018 152.194 140.942C151.168 141.441 149.909 142.224 149.909 142.224L148.975 123.152L151.11 121.006C151.11 121.006 153.969 117.548 154.196 114.161C152.954 115.217 151.562 115.518 151.562 115.518C151.562 115.518 151.185 120.333 150.06 121.006C148.929 121.684 148.9 122.943 148.9 122.943L148.633 116.649L166.006 104.984Z" fill="#474747" stroke="#474747" stroke-width="0.725072" stroke-linejoin="round"/>
<path d="M148.625 116.568L150.098 146.656" stroke="black" stroke-width="0.725072" stroke-linecap="round"/>
<path d="M130.121 130.937C130.121 130.937 133.578 132.973 134.86 139.139C146.142 138.309 149.681 142.3 149.681 142.3C149.681 142.3 158.933 137.862 163.225 138.686C164.727 135.531 169.014 131.464 169.014 131.464" stroke="black" stroke-width="0.77341"/>
<path d="M125.403 101.446L148.628 116.644L169.545 102.577C169.545 102.577 173.907 100.17 173.53 98.4416C173.159 96.7072 171.651 97.3859 170.897 97.6875C170.149 97.9891 149.005 112.96 149.005 112.96L126.511 98.7374C126.511 98.7374 124.858 98.2154 124.556 99.2653C124.254 100.321 125.177 100.918 125.403 101.446Z" fill="#B4B6B9" stroke="black" stroke-width="0.77341"/>
<path d="M166.937 97.5025C166.937 97.5025 160.991 94.9793 160.991 97.1661C160.991 99.3471 161.16 99.5733 162.117 100.977C163.068 102.375 161.386 103.274 161.386 103.274C161.386 103.274 161.16 102.659 160.823 101.702C160.487 100.751 157.291 100.078 157.012 98.9585C156.734 97.8331 157.685 96.0408 155.777 95.8203C153.874 95.5941 152.024 96.6034 151.629 98.7902C151.235 100.977 148.77 106.076 148.77 106.076L149.106 94.4746C153.294 94.7704 161.067 95.6869 167.047 96.3772C165.255 96.0988 167.72 96.4932 167.668 97.1081C167.5 97.6127 166.879 97.6649 166.937 97.5025Z" fill="#474747" stroke="#474747" stroke-width="0.725072" stroke-linejoin="round"/>
<path d="M145.909 94.5844C144.848 94.5844 139.517 95.1993 138.171 95.9882C136.826 96.7712 140.358 98.001 139.911 99.0683C139.465 100.136 139.407 102.264 137.725 101.818C136.042 101.365 130.381 98.5636 130.213 97.6123C130.045 96.661 128.867 96.603 128.867 96.603C128.867 96.603 145.126 94.4162 145.909 94.5844Z" fill="#474747" stroke="#474747" stroke-width="0.725072" stroke-linejoin="round"/>
<path d="M148.478 93.25L148.438 107.508" stroke="black" stroke-width="0.77341"/>
<path d="M137.497 76.4512C137.497 76.4512 130.983 87.0256 130.855 87.3504" stroke="black" stroke-width="0.77341"/>
<path d="M149.5 76.1914C149.5 76.1914 152.336 80.0604 152.012 81.1567C153.172 82.0616 154.465 85.6753 154.465 85.6753" fill="url(#paint3_linear_199_66455)"/>
<path d="M149.5 76.1914C149.5 76.1914 152.336 80.0604 152.012 81.1567C153.172 82.0616 154.465 85.6753 154.465 85.6753" stroke="black" stroke-width="0.77341"/>
<path d="M160.462 75.5469C160.462 75.5469 154.336 84.1897 154.528 84.8336" stroke="black" stroke-width="0.77341"/>
<path d="M129.074 34.4496C129.008 34.6817 128.786 34.8561 128.459 34.9345C128.132 35.0129 127.726 34.9888 127.33 34.8675C126.934 34.7463 126.581 34.5378 126.348 34.288C126.115 34.0381 126.022 33.7674 126.089 33.5353C126.155 33.3032 126.376 33.1287 126.703 33.0504C127.031 32.972 127.437 32.9961 127.833 33.1173C128.229 33.2386 128.582 33.447 128.815 33.6969C129.047 33.9467 129.141 34.2175 129.074 34.4496Z" fill="black"/>
<path d="M131.547 34.2797C131.614 34.5118 131.835 34.6862 132.162 34.7646C132.489 34.8429 132.895 34.8189 133.291 34.6976C133.687 34.5764 134.04 34.3679 134.273 34.118C134.506 33.8682 134.599 33.5974 134.532 33.3653C134.466 33.1332 134.245 32.9588 133.918 32.8804C133.591 32.8021 133.184 32.8261 132.788 32.9474C132.393 33.0686 132.039 33.2771 131.807 33.527C131.574 33.7768 131.48 34.0476 131.547 34.2797Z" fill="black"/>
<path d="M203.259 213.31C203.259 213.31 200.985 213.739 201.06 213.948C201.13 214.162 194.453 214.377 194.314 214.162C194.169 213.948 193.316 215.299 193.316 215.299L194.384 214.661C194.384 214.661 196.014 216.361 196.513 216.221C197.011 216.082 196.298 216.86 196.443 217.005C196.582 217.144 197.081 216.72 197.081 216.72L208.114 216.535L203.259 213.31Z" fill="#FF7000" stroke="black" stroke-width="0.77341" stroke-linejoin="round"/>
<path d="M207.373 216.744L198.359 217.005C198.359 217.005 196.091 219.064 195.946 219.558C195.807 220.056 197.437 220.196 197.437 220.196L197.936 221.901L199.072 221.477C199.072 221.477 206.735 222.614 213.771 221.048C217.321 219.807 217.942 218.316 215.453 217.411C212.971 216.506 207.443 216.779 207.373 216.744Z" fill="#FF7000" stroke="black" stroke-width="0.725072" stroke-linejoin="round"/>
<path d="M176.508 235.236L192.732 234.511L189.71 231.947L233.592 230.178L232.078 226.691L182.947 228.664L188.858 231.425L175.586 231.819L175.98 233.2L172.5 233.066C172.5 233.066 176.375 234.574 176.508 235.236Z" fill="url(#paint4_linear_199_66455)" stroke="black" stroke-width="0.77341"/>
<path d="M194.699 145.611C193.406 144.968 187.739 144.196 181.422 148.32L181.683 162.886C181.683 162.886 190.958 157.856 195.471 159.017C195.21 154.504 195.21 148.709 194.699 145.611Z" fill="url(#paint5_linear_199_66455)" stroke="black" stroke-width="0.77341"/>
<path d="M104.989 189.83L66.7305 227.812" stroke="black" stroke-width="0.77341"/>
<path d="M122.04 190.108L90.9883 231.002" stroke="black" stroke-width="0.77341"/>
<path d="M120.655 179.436L79.207 229.616" stroke="black" stroke-width="0.77341"/>
<path d="M77.9609 228.921L81.9807 224.211" stroke="black" stroke-width="0.77341"/>
<path d="M128.557 204.662L112.477 226.843" stroke="black" stroke-width="0.77341"/>
<path d="M111.781 229.756L112.197 238.207" stroke="black" stroke-width="0.77341"/>
<path d="M135.899 212.424L118.852 233.776" stroke="black" stroke-width="0.77341"/>
<path d="M132.852 232.111L139.783 220.742" stroke="black" stroke-width="0.77341"/>
<path d="M135.486 218.526L127.168 227.952" stroke="black" stroke-width="0.77341"/>
<path d="M132.989 209.657L127.305 216.583" stroke="black" stroke-width="0.77341"/>
<path d="M125.643 199.535C125.643 199.535 108.316 224.901 108.593 226.983" stroke="black" stroke-width="0.77341"/>
<path d="M123.836 196.211C123.424 196.484 108.867 215.753 108.867 215.753" stroke="black" stroke-width="0.77341"/>
<path d="M108.04 221.85L105.406 225.04" stroke="black" stroke-width="0.77341"/>
<path d="M102.078 229.896L98.0586 235.162" stroke="black" stroke-width="0.77341"/>
<path d="M103.098 131.447C103.098 131.447 101.924 135.136 103.098 136.981C104.271 138.825 111.65 153.75 111.65 153.75C111.65 153.75 116.682 147.544 118.527 147.375C120.371 147.213 119.53 163.478 119.53 163.478C119.53 163.478 116.514 166.326 114.669 166.158C112.824 165.989 119.194 172.533 119.026 178.066C118.857 183.6 110.644 211.101 107.625 211.599C104.607 212.104 108.967 206.57 108.799 205.062C108.632 203.554 107.793 204.557 107.122 202.881C106.452 201.205 108.129 198.687 107.793 197.011C107.458 195.335 105.948 195.671 105.781 194.499C105.613 193.322 106.787 192.991 106.619 191.645C106.452 190.305 104.607 190.642 104.775 189.464C104.942 188.293 105.11 188.797 104.942 186.616C104.775 184.435 104.439 188.124 102.595 188.293C100.75 188.461 99.241 192.655 99.241 192.655C99.241 192.655 95.5518 197.852 91.8627 195.503C94.0425 200.201 92.3662 202.214 91.5274 202.376C90.6892 202.545 92.198 206.066 90.1857 206.234C88.1735 206.402 91.695 214.117 89.3476 214.79C91.8627 215.961 89.8505 217.47 89.8505 217.47C89.8505 217.47 84.0383 217.957 85.3231 225.521C68.219 219.482 59.8348 209.088 60.0025 198.525C60.1703 187.956 63.524 178.403 71.7405 174.882C74.088 166.158 78.1124 156.767 78.1124 156.767C78.1124 156.767 77.4419 152.909 77.9448 150.398C78.4483 147.88 80.7958 145.368 80.7958 145.368C80.7958 145.368 80.4599 139.33 80.6281 136.314C80.7958 133.292 81.9692 131.952 82.1369 130.275C82.3045 128.599 81.634 120.043 83.3109 118.535C84.9878 117.027 88.1735 117.195 89.8505 116.192C91.5274 115.182 93.7073 113.338 95.8871 113.506C98.067 113.674 99.9116 115.182 99.9116 115.182C99.9116 115.182 108.129 115.182 108.632 118.367C109.134 121.557 106.955 122.729 106.955 122.729C106.955 122.729 108.129 127.259 103.098 131.447Z" fill="#8A9396" stroke="#2B2B2B" stroke-width="0.77341"/>
<path d="M95.8026 119.829C95.9289 120.062 95.8589 120.39 95.6078 120.739C95.3567 121.088 94.9451 121.431 94.4636 121.692C93.9822 121.952 93.4702 122.11 93.0404 122.129C92.6106 122.148 92.2981 122.028 92.1718 121.794C92.0454 121.561 92.1155 121.233 92.3666 120.884C92.6177 120.535 93.0292 120.192 93.5107 119.931C93.9922 119.671 94.5041 119.514 94.9339 119.494C95.3637 119.475 95.6762 119.595 95.8026 119.829Z" fill="#CECFCF" stroke="#2B2B2B" stroke-width="0.77341"/>
<path d="M94.4101 120.677C94.409 120.824 94.3428 120.964 94.2261 121.067C94.1094 121.17 93.9516 121.228 93.7871 121.228C93.6226 121.228 93.4648 121.17 93.3481 121.067C93.2314 120.964 93.1652 120.824 93.1641 120.677C93.1652 120.531 93.2314 120.39 93.3481 120.287C93.4648 120.184 93.6226 120.126 93.7871 120.126C93.9516 120.126 94.1094 120.184 94.2261 120.287C94.3428 120.39 94.409 120.531 94.4101 120.677Z" fill="black"/>
<path d="M106.672 126.226C106.672 126.226 108.709 135.321 106.273 141.597" stroke="#2B2B2B" stroke-width="0.362536"/>
<path d="M107.301 122.246C107.301 122.246 111.274 127.501 110.761 134.039" stroke="#2B2B2B" stroke-width="0.362536"/>
<path d="M107.684 121.092C107.812 121.092 111.016 123.911 110.888 125.831" stroke="#2B2B2B" stroke-width="0.362536"/>
<path d="M108.453 119.938C108.453 119.938 110.632 121.475 111.145 123.012" stroke="#2B2B2B" stroke-width="0.362536"/>
<path d="M107.429 119.039C107.429 119.039 99.6102 131.731 100.636 139.678" stroke="black" stroke-width="0.77341"/>
<path d="M107.941 118.656C107.941 118.656 97.559 124.811 95.6367 144.933" stroke="#2B2B2B" stroke-width="0.362536"/>
<path d="M106.785 122.374L102.684 125.448" stroke="black" stroke-width="0.77341"/>
<path d="M91.7891 146.087C91.7891 146.087 97.5566 122.119 107.811 118.656" stroke="#2B2B2B" stroke-width="0.362536"/>
<path d="M111.783 154.163C111.783 154.163 117.297 147.243 118.579 147.498C119.861 147.753 119.472 163.519 119.472 163.519C119.472 163.519 115.371 166.594 114.478 166.466C113.578 166.338 119.089 173.902 118.961 176.721C118.834 179.54 118.706 179.54 118.706 179.54C118.706 179.54 118.706 177.876 117.424 175.184C116.142 172.493 116.908 169.413 108.579 162.62C106.528 158.392 112.681 165.184 113.961 164.157C115.243 163.136 111.655 154.291 111.783 154.163Z" fill="#2B2B2B" stroke="#2B2B2B" stroke-width="0.77341"/>
<path d="M101.986 115.183C101.986 115.183 99.6694 115.815 99.3533 116.76C99.0372 117.712 97.6682 118.657 96.931 118.338C96.1937 118.025 94.8242 116.865 94.8242 116.865" stroke="#2B2B2B" stroke-width="0.77341"/>
<path d="M88.8196 123.292C88.8196 123.292 85.3438 126.767 87.0295 127.19C88.7146 127.608 90.5052 124.452 90.5052 124.452C90.5052 124.452 90.5052 129.823 91.9797 128.977C93.4542 128.135 97.7722 125.084 97.7722 125.084C97.7722 125.084 99.2467 124.974 99.5628 125.084C99.8789 125.189 103.565 128.344 105.988 127.19C104.619 130.769 103.038 131.192 103.038 131.192C103.038 131.192 100.511 134.458 97.246 133.716C93.9809 132.979 93.1381 131.61 93.1381 131.61C93.1381 131.61 90.3996 131.825 89.5568 130.56C88.7146 129.296 88.3984 128.559 88.3984 128.559C88.3984 128.559 86.8189 130.137 86.3972 129.4C85.9761 128.663 86.3972 124.342 88.8196 123.292Z" fill="#2B2B2B" stroke="#2B2B2B" stroke-width="0.725072" stroke-linejoin="round"/>
<path d="M108.515 118.448C108.515 118.448 102.09 116.551 99.8787 119.713C97.667 122.868 98.1936 124.661 99.352 124.974" stroke="#2B2B2B" stroke-width="0.77341"/>
<path d="M109.504 118.268C109.504 118.632 109.377 118.981 109.15 119.238C108.923 119.495 108.614 119.64 108.293 119.64C107.972 119.64 107.664 119.495 107.437 119.238C107.21 118.981 107.082 118.632 107.082 118.268C107.082 117.904 107.21 117.555 107.437 117.298C107.664 117.041 107.972 116.896 108.293 116.896C108.614 116.896 108.923 117.041 109.15 117.298C109.377 117.555 109.504 117.904 109.504 118.268Z" fill="black"/>
<path d="M90.8093 134.661C90.8093 134.661 93.4294 138.692 96.553 139.8C99.6766 140.908 94.3865 141.865 91.2629 139.754C88.996 136.68 89.6005 134.464 89.6005 134.464C89.6005 134.464 90.2049 133.855 90.8093 134.661Z" fill="#2B2B2B" stroke="#2B2B2B" stroke-width="0.77341"/>
<path d="M113.228 158.443C113.228 158.443 105.873 148.216 103.757 147.66C101.64 147.109 105.369 146.656 107.636 148.82C109.903 150.983 107.032 145.293 107.032 145.293L113.228 158.443Z" fill="#2B2B2B" stroke="#2B2B2B" stroke-width="0.77341"/>
<path d="M90.1045 217.539C92.9254 216.785 105.219 224.593 107.989 226.559C110.76 228.52 116.556 227.261 116.556 227.261C116.556 227.261 113.882 228.874 112.222 229.28C110.559 229.68 117.159 229.68 117.159 229.68C117.159 229.68 101.44 234.013 85.4693 225.602C84.0081 219.053 88.8951 217.592 90.1045 217.539Z" fill="#2B2B2B" stroke="#2B2B2B" stroke-width="0.725072" stroke-linejoin="round"/>
<path d="M108.09 160.961C108.09 160.961 106.024 160.56 104.966 159.348C103.908 158.142 102.396 155.166 100.835 153.907C99.2727 152.648 91.464 148.368 88.6426 148.669C85.8212 148.971 84.9644 148.368 84.6117 148.014C84.2591 147.66 83.1007 148.165 83.302 149.626C83.5038 151.088 81.1355 154.313 81.9922 155.821C82.8484 157.335 86.8792 163.478 87.6855 163.681C88.4912 163.884 87.9877 167.26 87.9877 167.26C87.9877 167.26 91.5643 170.885 92.4715 171.088C93.3782 171.292 94.2848 171.947 94.1844 172.8C94.0835 173.658 90.2545 178.345 90.2545 178.345C90.2545 178.345 86.1234 180.509 86.0729 181.721C86.0224 182.927 87.0805 185.445 90.3555 186.251C93.6299 187.057 102.447 186.402 102.9 185.648C103.353 184.894 104.059 180.358 103.757 179.905C103.454 179.453 101.288 178.09 100.179 178.293C99.0714 178.496 98.0639 179.401 98.1642 179.604C98.2651 179.807 96.6027 180.659 96.6027 179.853C96.6027 179.047 99.8771 175.422 100.179 175.723C100.482 176.025 105.117 176.477 105.974 178.797C106.83 181.112 106.83 182.777 109.248 182.527C111.666 182.272 115.041 180.056 115.343 175.422C115.644 170.787 112.624 167.66 111.868 167.208C111.112 166.755 108.593 165.242 108.392 164.54C108.19 163.832 107.686 161.518 108.09 160.961Z" fill="#2B2B2B" stroke="#2B2B2B" stroke-width="0.77341"/>
<path d="M64.5097 181.42C64.5097 181.42 72.319 179.401 74.3341 179.453C76.3492 179.5 83.9567 183.026 86.1737 185.196C88.3901 187.359 92.9244 192.499 95.8972 192.046C98.8694 191.594 99.7261 190.99 99.7261 190.99L98.5672 193.206C98.5672 193.206 96.1489 193.862 94.9401 193.56C93.7306 193.258 91.3628 192.499 88.9951 190.184C86.6273 187.864 79.322 181.617 73.1253 182.069C66.9279 182.527 63.3513 188.624 63.3513 188.624C63.3513 188.624 63.4018 185.648 63.6535 184.993C63.9053 184.337 62.3438 186.402 62.3438 186.402L64.5097 181.42Z" fill="#2B2B2B" stroke="#2B2B2B" stroke-width="0.77341"/>
<path d="M93.2747 187.464C93.3252 187.51 95.24 188.015 98.4639 188.015C101.688 188.015 103.401 186.605 103.401 186.605L103.2 185.346L103.704 183.583C103.704 183.583 106.172 186.1 106.122 186.605C106.071 187.11 105.114 187.313 105.114 187.313L104.762 186.1L103.905 187.162C103.905 187.162 99.2197 190.886 96.6507 190.335C94.081 189.778 91.7132 188.119 92.3681 187.713C93.023 187.313 93.3757 187.464 93.2747 187.464Z" fill="#2B2B2B" stroke="#2B2B2B" stroke-width="0.77341"/>
<path d="M81.8899 194.064C81.8899 194.064 79.0685 194.012 77.8092 194.615C76.5499 195.219 76.0963 195.978 75.2396 195.874C74.3834 195.775 73.7285 194.667 73.9803 194.215C74.3329 193.507 75.9954 192.602 79.1695 192.852C82.3435 193.107 81.8899 194.064 81.8899 194.064Z" fill="#2B2B2B" stroke="#2B2B2B" stroke-width="0.77341"/>
<path d="M91.7659 201.721C91.7659 201.571 91.564 197.591 90.0025 195.979C88.4404 194.366 86.5262 194.366 85.6695 194.564C84.8133 194.767 88.8435 196.53 89.2467 197.69C89.6498 198.85 90.9596 202.075 90.6069 202.882C90.2542 203.682 89.5993 200.614 87.1306 199.755C84.6619 198.897 81.2361 199.355 81.9414 200.463C82.6468 201.571 85.4177 200.561 86.8284 202.928C88.2391 205.295 89.2971 207.818 89.2971 207.818L89.7507 206.101L91.01 205.753L91.1609 202.476L91.7659 201.721Z" fill="#2B2B2B" stroke="#2B2B2B" stroke-width="0.77341"/>
<path d="M89.7513 214.616L87.1816 209.477C87.1816 209.477 86.3754 206.205 84.2094 205.294C82.0429 204.39 79.1711 204.54 79.1206 205.648C79.0701 206.756 83.7558 208.166 84.058 208.775C84.3603 209.378 84.2094 210.387 83.8063 210.434C83.4032 210.486 81.3376 209.68 80.2795 209.929C79.2215 210.184 78.6171 211.542 77.055 211.141C75.4935 210.735 74.1831 205.753 74.7881 205.248C75.3926 204.743 73.6292 206.153 73.2765 204.842C72.9238 203.531 73.7806 199.453 73.1756 198.949C72.5712 198.444 69.6494 196.681 69.599 196.327C69.5485 195.979 69.7498 176.28 86.2246 192.603C79.1711 184.238 76.4001 185.143 75.0904 185.097C74.1333 185.097 67.7347 185.648 66.1227 193.809C64.5101 201.971 62.5959 196.884 62.5959 196.884C62.5959 196.884 62.2433 200.41 63.9562 201.42C65.6691 202.423 63.1499 205.347 63.1499 205.347C63.1499 205.347 60.0769 197.841 60.5303 194.563C59.9257 197.185 59.9761 203.682 63.8552 210.788C68.3895 215.573 72.6721 220.01 84.058 224.993C90.0535 215.828 89.7513 214.72 89.7513 214.616Z" fill="#2B2B2B" stroke="#2B2B2B" stroke-width="0.725072" stroke-linejoin="round"/>
<path d="M78.9687 214.668C78.9687 214.668 82.2936 215.068 83.2002 216.785C84.1074 218.496 84.5105 221.118 84.5105 221.118C85.0645 220.01 85.3162 219.053 86.4247 218.247C87.5332 217.441 88.3395 217.336 88.289 216.733C88.2386 216.13 84.7623 212.452 82.9989 212.249C81.2355 212.046 78.1624 214.163 78.1624 214.163C78.1624 214.163 77.6084 214.97 78.9687 214.668Z" fill="#8A9396" stroke="#2B2B2B" stroke-width="0.725072" stroke-linejoin="round"/>
<path d="M86.5664 223.335C86.5664 223.335 95.1837 227.262 109.377 227.517" stroke="#8A9396" stroke-width="0.725072" stroke-linecap="round"/>
<path d="M115.331 183.334C115.331 183.334 114.595 190.567 109.031 204.837" stroke="#2B2B2B" stroke-width="0.725072" stroke-linecap="round"/>
<path d="M114.227 187.783C114.227 187.783 112.557 192.975 107.922 196.867" stroke="#2B2B2B" stroke-width="0.77341"/>
<path d="M89.8477 277.274L91.3183 275.609L91.7892 276.026L91.6598 276.172C91.5879 276.253 91.5467 276.308 91.5362 276.336C91.5179 276.39 91.518 276.441 91.5364 276.489C91.5531 276.535 91.598 276.591 91.6712 276.656L93.616 278.374C93.6941 278.443 93.7449 278.482 93.7686 278.492C93.7937 278.499 93.822 278.497 93.8535 278.484C93.8834 278.47 93.9271 278.43 93.9846 278.365C94.1772 278.147 94.3033 277.947 94.3628 277.765C94.4237 277.582 94.4383 277.381 94.4064 277.165C94.3744 276.946 94.284 276.702 94.1352 276.434L94.6857 276.121L95.5481 277.683L93.2516 280.282L92.7807 279.865L92.9252 279.702C92.9841 279.635 93.0197 279.577 93.032 279.527C93.0443 279.477 93.0423 279.432 93.0259 279.391C93.0094 279.348 92.9637 279.293 92.8889 279.227L90.9612 277.523C90.8798 277.451 90.8141 277.408 90.7639 277.392C90.7152 277.375 90.6698 277.374 90.6276 277.389C90.5869 277.403 90.5371 277.443 90.4782 277.509L90.3186 277.69L89.8477 277.274Z" fill="black"/>
<path d="M93.0703 273.672L95.7648 271.006L97.1429 271.663L96.8727 272.228C96.6368 272.131 96.4207 272.079 96.2242 272.072C96.0293 272.063 95.858 272.1 95.7102 272.182C95.5624 272.261 95.4121 272.376 95.2593 272.527L94.7662 273.015L95.5632 273.821L95.7253 273.661C95.8472 273.54 95.9206 273.451 95.9455 273.392C95.9703 273.331 95.9737 273.273 95.9556 273.217C95.9359 273.16 95.8704 273.076 95.7589 272.963L95.6376 272.84L96.0496 272.433L97.4008 273.798L96.9888 274.206L96.8514 274.067C96.7583 273.973 96.6787 273.916 96.6128 273.896C96.5485 273.874 96.4894 273.874 96.4355 273.897C96.3817 273.919 96.2884 273.996 96.1557 274.128L96.0098 274.272L96.7427 275.013C96.8205 275.091 96.8717 275.136 96.8963 275.145C96.9208 275.154 96.9484 275.153 96.9792 275.141C97.0115 275.127 97.0647 275.084 97.1387 275.01L97.4096 274.742C97.6117 274.542 97.754 274.345 97.8364 274.151C97.9173 273.955 97.9484 273.739 97.9297 273.504C97.911 273.266 97.8432 273.029 97.7263 272.794L98.2942 272.521L99.0569 274.139L96.2652 276.901L95.8232 276.454L95.9042 276.374C96.0122 276.267 96.0771 276.187 96.0989 276.135C96.1206 276.083 96.1202 276.03 96.0974 275.977C96.0822 275.946 96.0212 275.876 95.9143 275.768L94.1738 274.009C94.0791 273.913 94.0103 273.858 93.9674 273.842C93.9261 273.825 93.8846 273.823 93.8431 273.837C93.8001 273.849 93.7376 273.895 93.6558 273.976L93.5123 274.118L93.0703 273.672Z" fill="black"/>
<path d="M98.7513 268.23C99.299 267.762 99.8845 267.55 100.508 267.594C101.133 267.636 101.669 267.919 102.116 268.442C102.417 268.793 102.606 269.171 102.683 269.576C102.761 269.981 102.727 270.375 102.58 270.758C102.433 271.137 102.167 271.492 101.781 271.822C101.271 272.258 100.734 272.475 100.169 272.473C99.4869 272.47 98.904 272.186 98.42 271.62C97.9698 271.094 97.7731 270.517 97.8298 269.888C97.8882 269.258 98.1953 268.706 98.7513 268.23ZM99.2311 268.771C98.9688 268.996 98.8441 269.272 98.8569 269.601C98.8739 270.015 99.0496 270.418 99.384 270.809C99.7185 271.2 100.074 271.431 100.45 271.504C100.773 271.564 101.063 271.485 101.321 271.265C101.58 271.043 101.704 270.769 101.692 270.441C101.676 270.052 101.502 269.663 101.169 269.273C100.935 269 100.698 268.803 100.46 268.685C100.223 268.564 99.9978 268.515 99.7852 268.537C99.5725 268.559 99.3878 268.637 99.2311 268.771Z" fill="black"/>
<path d="M103.688 264.216L104.04 263.97L104.165 264.07L106.269 262.607L106.227 262.449L106.583 262.202L107.954 263.188L107.578 263.707C107.316 263.567 107.139 263.48 107.045 263.448C106.86 263.383 106.68 263.356 106.505 263.367C106.372 263.375 106.261 263.41 106.17 263.473C106.127 263.503 106.105 263.534 106.104 263.566C106.101 263.597 106.126 263.649 106.176 263.722L107.667 265.866C107.755 265.993 107.815 266.069 107.846 266.095C107.877 266.121 107.911 266.136 107.946 266.141C107.979 266.144 108.017 266.136 108.06 266.117C108.101 266.096 108.203 266.03 108.365 265.917L108.724 266.433L106.906 267.697L106.547 267.181L106.656 267.105C106.778 267.021 106.85 266.96 106.874 266.922C106.897 266.882 106.904 266.837 106.896 266.788C106.887 266.736 106.84 266.65 106.755 266.528L105.231 264.336C105.188 264.274 105.153 264.239 105.128 264.233C105.102 264.227 105.066 264.24 105.02 264.272C104.927 264.337 104.848 264.444 104.783 264.592C104.717 264.741 104.683 264.91 104.682 265.098C104.681 265.173 104.703 265.366 104.747 265.676L104.137 265.843L103.688 264.216Z" fill="black"/>
<path d="M107.82 261.571L111.062 259.607L112.249 260.567L111.855 261.054C111.648 260.905 111.45 260.804 111.26 260.751C111.073 260.697 110.898 260.693 110.735 260.739C110.573 260.781 110.4 260.858 110.216 260.969L109.623 261.328L110.21 262.298L110.405 262.18C110.551 262.091 110.644 262.021 110.681 261.97C110.72 261.916 110.737 261.86 110.732 261.802C110.726 261.743 110.682 261.645 110.6 261.509L110.511 261.362L111.006 261.061L112.002 262.705L111.506 263.005L111.405 262.838C111.336 262.725 111.272 262.65 111.213 262.615C111.155 262.579 111.098 262.566 111.04 262.575C110.982 262.585 110.874 262.638 110.714 262.735L110.539 262.841L111.078 263.732C111.136 263.827 111.175 263.882 111.197 263.896C111.219 263.911 111.246 263.916 111.279 263.912C111.313 263.906 111.375 263.876 111.464 263.822L111.79 263.625C112.033 263.477 112.218 263.319 112.343 263.149C112.468 262.977 112.548 262.775 112.585 262.542C112.622 262.306 112.611 262.06 112.553 261.804L113.169 261.671L113.533 263.422L110.174 265.457L109.848 264.919L109.946 264.86C110.076 264.781 110.157 264.719 110.191 264.674C110.224 264.628 110.236 264.576 110.226 264.519C110.219 264.485 110.175 264.403 110.097 264.274L108.815 262.157C108.745 262.042 108.691 261.971 108.653 261.946C108.617 261.92 108.577 261.909 108.533 261.912C108.489 261.914 108.417 261.944 108.319 262.004L108.146 262.109L107.82 261.571Z" fill="black"/>
<path d="M112.414 258.821L114.899 257.529C115.059 257.446 115.24 257.37 115.444 257.301C115.65 257.23 115.854 257.205 116.058 257.224C116.263 257.242 116.447 257.304 116.61 257.41C116.772 257.516 116.903 257.664 117.001 257.853C117.16 258.159 117.18 258.464 117.059 258.769C116.94 259.071 116.746 259.329 116.477 259.542L117.808 260.075L117.866 260.101C117.954 260.138 118.028 260.162 118.089 260.171C118.15 260.179 118.206 260.178 118.257 260.169C118.308 260.159 118.373 260.134 118.452 260.093L118.626 260.003L118.916 260.56L117.624 261.232L115.427 260.168L115.092 260.343L115.51 261.146C115.582 261.285 115.635 261.369 115.671 261.4C115.705 261.428 115.744 261.444 115.787 261.446C115.83 261.445 115.903 261.418 116.005 261.365L116.19 261.269L116.48 261.827L114.51 262.851L114.22 262.294L114.399 262.201C114.493 262.151 114.555 262.107 114.583 262.068C114.613 262.026 114.627 261.979 114.625 261.929C114.623 261.901 114.59 261.826 114.527 261.705L113.347 259.437C113.301 259.348 113.261 259.29 113.226 259.261C113.193 259.23 113.157 259.217 113.118 259.222C113.061 259.225 113.002 259.242 112.943 259.273L112.863 259.318L112.713 259.396L112.414 258.821ZM114.243 258.711L114.785 259.754L115.384 259.443C115.618 259.32 115.783 259.208 115.876 259.106C115.971 259 116.026 258.892 116.042 258.781C116.059 258.669 116.038 258.555 115.978 258.44C115.923 258.334 115.848 258.258 115.753 258.212C115.659 258.163 115.551 258.147 115.43 258.163C115.311 258.179 115.137 258.246 114.908 258.365L114.243 258.711Z" fill="black"/>
<path d="M117.547 256.194L120.112 255.07C120.277 254.997 120.463 254.934 120.671 254.878C120.881 254.821 121.087 254.81 121.289 254.842C121.492 254.874 121.672 254.948 121.827 255.065C121.982 255.181 122.103 255.337 122.188 255.532C122.327 255.848 122.326 256.154 122.185 256.451C122.046 256.744 121.835 256.988 121.553 257.183L122.846 257.804L122.901 257.833C122.987 257.876 123.06 257.904 123.12 257.918C123.18 257.93 123.236 257.933 123.287 257.927C123.339 257.92 123.406 257.9 123.487 257.864L123.666 257.785L123.919 258.361L122.586 258.945L120.464 257.738L120.118 257.89L120.481 258.719C120.544 258.862 120.592 258.95 120.625 258.983C120.658 259.014 120.695 259.032 120.738 259.037C120.781 259.039 120.856 259.017 120.961 258.971L121.152 258.887L121.404 259.463L119.37 260.355L119.118 259.779L119.303 259.698C119.4 259.655 119.465 259.615 119.496 259.578C119.528 259.538 119.545 259.492 119.546 259.442C119.546 259.414 119.518 259.337 119.463 259.212L118.437 256.87C118.397 256.779 118.361 256.718 118.328 256.687C118.297 256.653 118.262 256.638 118.223 256.641C118.165 256.64 118.106 256.653 118.044 256.68L117.962 256.72L117.807 256.788L117.547 256.194ZM119.379 256.205L119.851 257.282L120.469 257.011C120.711 256.905 120.883 256.804 120.983 256.708C121.084 256.609 121.146 256.504 121.169 256.395C121.194 256.284 121.181 256.169 121.128 256.05C121.08 255.941 121.011 255.86 120.919 255.808C120.828 255.753 120.722 255.729 120.6 255.738C120.48 255.745 120.302 255.801 120.065 255.904L119.379 256.205Z" fill="black"/>
<path d="M124.381 253.352L125.338 253.003L127.822 255.83C127.956 255.98 128.056 256.066 128.124 256.087C128.194 256.108 128.301 256.091 128.445 256.036L128.661 256.626L126.642 257.363L126.426 256.773L126.548 256.725C126.66 256.684 126.733 256.641 126.767 256.596C126.801 256.549 126.81 256.504 126.795 256.461C126.781 256.425 126.734 256.356 126.654 256.256L126.387 255.913L125.087 256.388L125.085 256.877C125.086 256.981 125.091 257.047 125.102 257.076C125.114 257.108 125.136 257.134 125.168 257.152C125.202 257.17 125.248 257.175 125.305 257.168C125.343 257.163 125.44 257.132 125.597 257.075L125.813 257.665L124.161 258.268L123.945 257.678C124.051 257.639 124.126 257.602 124.168 257.566C124.21 257.529 124.24 257.487 124.257 257.439C124.276 257.391 124.287 257.309 124.289 257.195L124.381 253.352ZM125.088 255.698L125.941 255.386L125.097 254.363L125.088 255.698Z" fill="black"/>
<path d="M127.922 252.076L129.897 251.508L131.418 253.946L131.439 251.064L133.448 250.485L133.622 251.089L133.406 251.151C133.289 251.185 133.215 251.234 133.184 251.297C133.154 251.357 133.158 251.456 133.197 251.591L133.911 254.07C133.942 254.178 133.968 254.244 133.988 254.268C134.019 254.304 134.053 254.326 134.091 254.333C134.144 254.344 134.209 254.34 134.284 254.318L134.531 254.247L134.705 254.851L132.605 255.455L132.431 254.851L132.594 254.804C132.713 254.77 132.79 254.738 132.827 254.707C132.863 254.676 132.885 254.639 132.893 254.596C132.903 254.551 132.892 254.476 132.862 254.371L132.089 251.686L132.067 255.61L131.463 255.784L129.425 252.579L130.189 255.232C130.207 255.293 130.23 255.337 130.261 255.364C130.294 255.391 130.332 255.408 130.377 255.415C130.424 255.42 130.492 255.409 130.582 255.383L130.791 255.323L130.965 255.927L129.178 256.441L129.005 255.837L129.18 255.787C129.29 255.755 129.363 255.724 129.397 255.694C129.433 255.661 129.454 255.621 129.461 255.574C129.469 255.524 129.457 255.442 129.424 255.327L128.719 252.88C128.687 252.767 128.658 252.696 128.634 252.667C128.602 252.627 128.564 252.602 128.521 252.591C128.477 252.581 128.415 252.588 128.334 252.612L128.096 252.68L127.922 252.076Z" fill="black"/>
<path d="M137 249.692L139.359 249.251C139.658 249.195 139.911 249.18 140.119 249.205C140.329 249.228 140.516 249.288 140.68 249.385C140.846 249.482 140.983 249.609 141.092 249.765C141.2 249.92 141.272 250.092 141.307 250.282C141.379 250.664 141.291 251.011 141.045 251.325C140.801 251.637 140.421 251.842 139.904 251.938L139.142 252.081L139.299 252.916C139.318 253.021 139.338 253.086 139.358 253.11C139.385 253.147 139.419 253.172 139.461 253.184C139.505 253.196 139.574 253.193 139.668 253.175L139.896 253.133L140.011 253.75L137.834 254.157L137.719 253.539L137.869 253.511C138.002 253.486 138.087 253.46 138.126 253.433C138.165 253.406 138.191 253.37 138.202 253.326C138.214 253.28 138.207 253.192 138.183 253.062L137.724 250.607C137.699 250.47 137.673 250.382 137.648 250.342C137.623 250.301 137.589 250.274 137.547 250.262C137.507 250.247 137.434 250.25 137.33 250.269L137.115 250.31L137 249.692ZM138.775 250.115L139.012 251.383L139.393 251.312C139.626 251.268 139.792 251.213 139.892 251.146C139.992 251.076 140.065 250.986 140.113 250.876C140.161 250.763 140.172 250.639 140.146 250.502C140.108 250.297 139.998 250.15 139.818 250.06C139.684 249.992 139.502 249.98 139.271 250.023L138.775 250.115Z" fill="black"/>
<path d="M141.82 248.809L144.599 248.463C144.778 248.441 144.975 248.432 145.19 248.438C145.407 248.444 145.608 248.491 145.792 248.58C145.978 248.668 146.129 248.791 146.245 248.947C146.36 249.103 146.431 249.287 146.458 249.498C146.5 249.84 146.412 250.134 146.193 250.377C145.976 250.619 145.705 250.793 145.379 250.899L146.441 251.863L146.486 251.906C146.555 251.972 146.617 252.02 146.671 252.05C146.725 252.079 146.777 252.097 146.829 252.106C146.88 252.115 146.95 252.114 147.039 252.103L147.232 252.079L147.31 252.703L145.866 252.883L144.176 251.121L143.801 251.168L143.913 252.066C143.933 252.222 143.954 252.32 143.976 252.361C143.998 252.399 144.029 252.427 144.069 252.444C144.11 252.459 144.187 252.459 144.302 252.445L144.508 252.419L144.586 253.042L142.382 253.317L142.305 252.694L142.505 252.669C142.611 252.655 142.684 252.635 142.724 252.608C142.766 252.579 142.795 252.54 142.811 252.493C142.819 252.465 142.814 252.384 142.797 252.248L142.481 249.712C142.469 249.613 142.451 249.544 142.429 249.505C142.408 249.464 142.379 249.439 142.341 249.43C142.286 249.413 142.225 249.409 142.159 249.417L142.069 249.432L141.901 249.453L141.82 248.809ZM143.573 249.342L143.719 250.509L144.388 250.425C144.651 250.393 144.844 250.344 144.967 250.281C145.092 250.215 145.182 250.133 145.235 250.034C145.29 249.935 145.31 249.821 145.294 249.692C145.279 249.574 145.235 249.476 145.162 249.4C145.091 249.321 144.996 249.269 144.877 249.242C144.76 249.215 144.573 249.218 144.317 249.25L143.573 249.342Z" fill="black"/>
<path d="M149.994 247.911C150.714 247.87 151.308 248.056 151.777 248.468C152.249 248.881 152.504 249.43 152.543 250.117C152.569 250.579 152.491 250.994 152.307 251.364C152.124 251.733 151.858 252.025 151.509 252.241C151.163 252.454 150.736 252.575 150.229 252.604C149.559 252.642 149 252.489 148.552 252.145C148.011 251.73 147.719 251.151 147.677 250.407C147.638 249.716 147.831 249.137 148.256 248.672C148.684 248.206 149.264 247.952 149.994 247.911ZM150.048 248.632C149.703 248.651 149.437 248.796 149.248 249.066C149.01 249.405 148.906 249.832 148.936 250.346C148.965 250.859 149.107 251.259 149.363 251.544C149.583 251.788 149.862 251.901 150.2 251.882C150.541 251.862 150.805 251.719 150.995 251.451C151.218 251.132 151.315 250.717 151.286 250.205C151.265 249.845 151.196 249.546 151.078 249.307C150.962 249.068 150.813 248.893 150.631 248.781C150.448 248.67 150.254 248.62 150.048 248.632Z" fill="black"/>
<path d="M153.457 247.835L155.857 247.849C156.161 247.851 156.413 247.884 156.612 247.948C156.814 248.01 156.986 248.105 157.128 248.232C157.273 248.358 157.384 248.509 157.461 248.683C157.538 248.855 157.576 249.037 157.575 249.231C157.573 249.619 157.421 249.944 157.12 250.205C156.821 250.466 156.408 250.595 155.883 250.591L155.108 250.587L155.103 251.437C155.102 251.543 155.109 251.61 155.124 251.639C155.144 251.68 155.173 251.711 155.212 251.73C155.253 251.75 155.321 251.76 155.417 251.761L155.648 251.762L155.644 252.391L153.43 252.377L153.434 251.749L153.587 251.75C153.721 251.751 153.81 251.742 153.854 251.722C153.898 251.703 153.929 251.673 153.949 251.632C153.969 251.588 153.979 251.501 153.98 251.368L153.995 248.871C153.996 248.732 153.988 248.64 153.97 248.597C153.953 248.551 153.925 248.518 153.886 248.499C153.85 248.477 153.778 248.465 153.672 248.465L153.454 248.464L153.457 247.835ZM155.12 248.587L155.112 249.877L155.5 249.879C155.736 249.881 155.91 249.858 156.021 249.811C156.132 249.761 156.222 249.687 156.29 249.588C156.358 249.486 156.392 249.366 156.393 249.227C156.394 249.018 156.315 248.853 156.155 248.73C156.036 248.638 155.859 248.592 155.625 248.59L155.12 248.587Z" fill="black"/>
<path d="M158.375 247.888L161.169 248.08C161.349 248.093 161.544 248.122 161.754 248.169C161.966 248.217 162.154 248.302 162.317 248.424C162.483 248.546 162.607 248.695 162.691 248.871C162.775 249.046 162.809 249.24 162.795 249.452C162.771 249.797 162.628 250.067 162.366 250.265C162.107 250.46 161.807 250.579 161.467 250.621L162.325 251.77L162.36 251.821C162.416 251.899 162.467 251.958 162.515 251.998C162.562 252.036 162.61 252.065 162.659 252.083C162.708 252.102 162.776 252.114 162.865 252.12L163.06 252.134L163.017 252.761L161.565 252.661L160.244 250.608L159.867 250.582L159.805 251.485C159.794 251.641 159.796 251.741 159.81 251.786C159.825 251.828 159.849 251.862 159.885 251.886C159.922 251.908 159.999 251.923 160.113 251.931L160.321 251.945L160.278 252.572L158.062 252.42L158.106 251.793L158.307 251.806C158.413 251.814 158.489 251.808 158.534 251.789C158.581 251.769 158.617 251.736 158.641 251.692C158.654 251.667 158.665 251.586 158.674 251.45L158.85 248.9C158.857 248.8 158.853 248.729 158.839 248.687C158.827 248.642 158.803 248.612 158.767 248.597C158.716 248.569 158.658 248.553 158.59 248.549L158.499 248.546L158.33 248.534L158.375 247.888ZM159.994 248.747L159.913 249.919L160.585 249.966C160.85 249.984 161.048 249.974 161.181 249.935C161.317 249.894 161.42 249.831 161.492 249.744C161.565 249.658 161.606 249.55 161.615 249.42C161.623 249.301 161.599 249.197 161.542 249.108C161.487 249.017 161.404 248.947 161.292 248.898C161.182 248.849 160.999 248.816 160.741 248.798L159.994 248.747Z" fill="black"/>
<path d="M163.993 248.328L166.191 248.595L166.115 249.219L165.915 249.195C165.799 249.18 165.72 249.182 165.678 249.199C165.639 249.214 165.607 249.243 165.582 249.285C165.56 249.326 165.541 249.41 165.526 249.534L165.223 252.03C165.206 252.166 165.203 252.254 165.214 252.295C165.224 252.335 165.247 252.366 165.281 252.388C165.323 252.419 165.389 252.441 165.48 252.452L165.719 252.481L165.643 253.105L163.445 252.838L163.521 252.214L163.699 252.235C163.826 252.251 163.91 252.252 163.951 252.24C163.992 252.225 164.024 252.199 164.046 252.163C164.07 252.124 164.089 252.046 164.104 251.927L164.408 249.422C164.425 249.282 164.426 249.189 164.412 249.144C164.4 249.096 164.374 249.058 164.334 249.029C164.306 249.008 164.234 248.991 164.117 248.977L163.917 248.952L163.993 248.328Z" fill="black"/>
<path d="M168.715 248.983L169.719 249.157L170.467 252.845C170.508 253.041 170.553 253.166 170.601 253.218C170.652 253.271 170.753 253.309 170.905 253.333L170.798 253.953L168.68 253.587L168.787 252.968L168.916 252.987C169.034 253.007 169.119 253.006 169.171 252.985C169.224 252.961 169.254 252.926 169.262 252.881C169.268 252.843 169.262 252.76 169.242 252.633L169.18 252.203L167.817 251.968L167.572 252.391C167.521 252.482 167.493 252.542 167.488 252.572C167.482 252.606 167.488 252.639 167.507 252.671C167.528 252.703 167.565 252.73 167.618 252.753C167.653 252.768 167.753 252.789 167.918 252.818L167.811 253.437L166.078 253.138L166.185 252.519C166.296 252.538 166.379 252.542 166.434 252.532C166.489 252.521 166.535 252.5 166.574 252.467C166.615 252.434 166.665 252.369 166.723 252.271L168.715 248.983ZM168.161 251.369L169.056 251.524L168.833 250.216L168.161 251.369Z" fill="black"/>
<path d="M172.474 249.646L174.467 250.146L174.557 253.019L176.024 250.537L178.051 251.046L177.898 251.656L177.68 251.601C177.562 251.572 177.474 251.576 177.415 251.615C177.358 251.652 177.313 251.74 177.279 251.876L176.65 254.378C176.623 254.487 176.612 254.557 176.618 254.588C176.626 254.635 176.645 254.671 176.674 254.696C176.714 254.733 176.772 254.761 176.848 254.78L177.098 254.843L176.945 255.452L174.825 254.92L174.978 254.31L175.143 254.352C175.263 254.382 175.346 254.393 175.393 254.384C175.44 254.376 175.478 254.355 175.506 254.322C175.537 254.287 175.566 254.217 175.592 254.112L176.273 251.402L174.282 254.783L173.673 254.63L173.521 250.835L172.849 253.513C172.833 253.575 172.832 253.625 172.844 253.663C172.859 253.703 172.884 253.737 172.919 253.766C172.957 253.794 173.021 253.819 173.112 253.841L173.324 253.895L173.171 254.504L171.367 254.051L171.52 253.442L171.697 253.486C171.809 253.514 171.887 253.524 171.932 253.515C171.979 253.504 172.018 253.48 172.047 253.443C172.079 253.404 172.11 253.327 172.139 253.211L172.759 250.741C172.788 250.628 172.799 250.552 172.793 250.515C172.785 250.464 172.765 250.423 172.733 250.392C172.7 250.362 172.643 250.336 172.561 250.315L172.321 250.255L172.474 249.646Z" fill="black"/>
<path d="M181.583 252.186L183.837 253.009C184.122 253.114 184.348 253.23 184.514 253.357C184.683 253.484 184.813 253.631 184.904 253.798C184.998 253.966 185.051 254.145 185.065 254.335C185.079 254.523 185.054 254.708 184.987 254.889C184.854 255.254 184.601 255.509 184.23 255.653C183.86 255.797 183.429 255.779 182.935 255.599L182.208 255.333L181.916 256.131C181.879 256.231 181.863 256.297 181.868 256.329C181.872 256.374 181.889 256.413 181.919 256.445C181.951 256.477 182.012 256.51 182.102 256.543L182.319 256.622L182.103 257.212L180.023 256.452L180.239 255.862L180.383 255.914C180.509 255.961 180.596 255.982 180.644 255.979C180.691 255.975 180.731 255.957 180.764 255.925C180.797 255.891 180.836 255.812 180.882 255.688L181.739 253.342C181.787 253.211 181.81 253.123 181.809 253.076C181.808 253.027 181.792 252.987 181.763 252.955C181.735 252.922 181.672 252.887 181.572 252.851L181.367 252.776L181.583 252.186ZM182.894 253.455L182.451 254.666L182.815 254.799C183.037 254.881 183.209 254.918 183.329 254.911C183.45 254.902 183.56 254.862 183.657 254.792C183.755 254.719 183.828 254.617 183.876 254.487C183.947 254.291 183.929 254.108 183.819 253.939C183.739 253.813 183.588 253.709 183.368 253.628L182.894 253.455Z" fill="black"/>
<path d="M186.225 253.902L188.786 255.035C188.95 255.108 189.124 255.203 189.305 255.319C189.488 255.435 189.636 255.579 189.748 255.75C189.862 255.921 189.928 256.104 189.947 256.297C189.966 256.491 189.933 256.685 189.846 256.879C189.707 257.195 189.48 257.401 189.167 257.497C188.857 257.593 188.534 257.602 188.2 257.525L188.615 258.898L188.631 258.959C188.657 259.051 188.685 259.124 188.716 259.178C188.747 259.23 188.783 259.273 188.822 259.307C188.862 259.341 188.922 259.376 189.004 259.412L189.182 259.491L188.928 260.066L187.597 259.477L187.055 257.097L186.709 256.944L186.343 257.772C186.28 257.915 186.247 258.01 186.245 258.056C186.245 258.101 186.257 258.141 186.282 258.176C186.31 258.209 186.376 258.25 186.481 258.296L186.672 258.38L186.418 258.955L184.387 258.057L184.641 257.482L184.826 257.563C184.923 257.607 184.996 257.627 185.044 257.625C185.096 257.621 185.14 257.603 185.179 257.57C185.199 257.551 185.237 257.478 185.292 257.353L186.327 255.016C186.367 254.924 186.388 254.856 186.389 254.812C186.392 254.766 186.38 254.729 186.351 254.703C186.313 254.66 186.264 254.625 186.202 254.597L186.117 254.563L185.962 254.495L186.225 253.902ZM187.454 255.261L186.978 256.337L187.594 256.609C187.837 256.716 188.027 256.774 188.165 256.783C188.307 256.791 188.425 256.767 188.522 256.71C188.62 256.654 188.696 256.566 188.749 256.447C188.797 256.338 188.809 256.232 188.786 256.129C188.766 256.025 188.711 255.931 188.623 255.846C188.536 255.763 188.375 255.669 188.138 255.565L187.454 255.261Z" fill="black"/>
<path d="M193.732 257.371C194.369 257.71 194.78 258.177 194.967 258.773C195.156 259.371 195.089 259.973 194.765 260.58C194.548 260.989 194.265 261.303 193.917 261.523C193.569 261.744 193.189 261.855 192.779 261.859C192.373 261.861 191.945 261.743 191.496 261.504C190.904 261.189 190.506 260.768 190.302 260.241C190.055 259.606 190.106 258.959 190.456 258.302C190.781 257.691 191.247 257.297 191.852 257.12C192.46 256.944 193.087 257.028 193.732 257.371ZM193.404 258.016C193.1 257.853 192.797 257.838 192.495 257.971C192.116 258.138 191.806 258.448 191.564 258.903C191.322 259.357 191.236 259.772 191.306 260.149C191.368 260.472 191.548 260.713 191.847 260.872C192.148 261.032 192.449 261.047 192.75 260.917C193.106 260.76 193.405 260.455 193.645 260.003C193.815 259.685 193.911 259.393 193.934 259.127C193.959 258.863 193.923 258.636 193.825 258.446C193.727 258.256 193.586 258.112 193.404 258.016Z" fill="black"/>
<path d="M197.108 259.164L197.473 259.391L197.43 259.545L199.605 260.901L199.733 260.8L200.101 261.03L199.737 262.679L199.111 262.538C199.136 262.242 199.146 262.045 199.139 261.945C199.125 261.75 199.078 261.574 198.999 261.417C198.94 261.299 198.864 261.21 198.77 261.152C198.726 261.124 198.688 261.116 198.658 261.128C198.629 261.138 198.591 261.181 198.544 261.256L197.162 263.472C197.081 263.603 197.034 263.688 197.023 263.727C197.011 263.766 197.01 263.802 197.02 263.836C197.03 263.869 197.053 263.9 197.087 263.932C197.122 263.962 197.224 264.029 197.391 264.133L197.059 264.666L195.18 263.495L195.512 262.962L195.625 263.033C195.751 263.111 195.835 263.153 195.88 263.16C195.925 263.166 195.969 263.155 196.011 263.127C196.055 263.098 196.116 263.021 196.194 262.896L197.607 260.63C197.647 260.565 197.665 260.52 197.66 260.494C197.656 260.469 197.63 260.441 197.582 260.411C197.486 260.351 197.357 260.321 197.194 260.319C197.031 260.317 196.863 260.353 196.69 260.427C196.621 260.455 196.452 260.551 196.184 260.714L195.79 260.219L197.108 259.164Z" fill="black"/>
<path d="M201.171 261.919L204.253 264.125L203.839 265.594L203.236 265.423C203.291 265.174 203.306 264.953 203.28 264.758C203.256 264.564 203.19 264.401 203.085 264.27C202.982 264.137 202.843 264.009 202.668 263.883L202.104 263.48L201.445 264.401L201.63 264.534C201.769 264.634 201.87 264.691 201.932 264.706C201.996 264.72 202.054 264.713 202.106 264.686C202.158 264.657 202.231 264.578 202.323 264.449L202.424 264.309L202.895 264.646L201.777 266.209L201.306 265.871L201.419 265.713C201.496 265.605 201.539 265.517 201.548 265.448C201.559 265.381 201.548 265.323 201.517 265.274C201.485 265.225 201.394 265.146 201.242 265.037L201.075 264.918L200.469 265.765C200.404 265.855 200.369 265.913 200.364 265.939C200.359 265.964 200.365 265.991 200.382 266.02C200.401 266.049 200.453 266.094 200.538 266.155L200.848 266.377C201.079 266.542 201.297 266.649 201.503 266.698C201.71 266.744 201.928 266.738 202.156 266.68C202.388 266.622 202.61 266.515 202.822 266.36L203.187 266.874L201.721 267.899L198.527 265.613L198.893 265.102L198.986 265.168C199.109 265.257 199.199 265.307 199.254 265.32C199.309 265.333 199.361 265.323 199.41 265.292C199.438 265.271 199.496 265.2 199.584 265.076L201.025 263.064C201.103 262.954 201.146 262.877 201.154 262.832C201.164 262.788 201.159 262.747 201.139 262.709C201.119 262.668 201.063 262.614 200.97 262.548L200.805 262.43L201.171 261.919Z" fill="black"/>
<path d="M206.248 268.405L207.962 269.812L207.56 270.302L207.431 270.197C207.347 270.128 207.283 270.088 207.239 270.077C207.196 270.068 207.154 270.073 207.111 270.094C207.07 270.114 207.011 270.17 206.936 270.262L206.033 271.362L205.517 270.939L205.59 270.578C205.347 270.552 205.119 270.496 204.907 270.409C204.695 270.322 204.497 270.203 204.314 270.053C203.994 269.79 203.766 269.473 203.63 269.1C203.495 268.728 203.465 268.338 203.541 267.931C203.618 267.526 203.799 267.149 204.084 266.802C204.366 266.458 204.695 266.212 205.069 266.064C205.444 265.917 205.832 265.878 206.232 265.945C206.635 266.011 206.996 266.175 207.315 266.437C207.469 266.564 207.606 266.71 207.726 266.876C207.849 267.041 207.938 267.201 207.993 267.356L208.214 267.276L208.567 267.565L207.93 268.989L207.343 268.76C207.394 268.375 207.412 268.099 207.395 267.931C207.38 267.764 207.335 267.606 207.258 267.456C207.183 267.308 207.09 267.187 206.977 267.095C206.818 266.964 206.631 266.888 206.416 266.866C206.202 266.845 205.982 266.891 205.756 267.003C205.531 267.113 205.315 267.294 205.108 267.546C204.881 267.822 204.728 268.098 204.648 268.373C204.571 268.649 204.563 268.895 204.624 269.111C204.687 269.325 204.804 269.503 204.975 269.643C205.096 269.742 205.23 269.812 205.377 269.851C205.526 269.892 205.646 269.899 205.736 269.871C205.825 269.844 205.912 269.779 205.996 269.677L206.102 269.548C206.175 269.459 206.215 269.398 206.222 269.365C206.232 269.317 206.226 269.272 206.207 269.23C206.189 269.19 206.135 269.133 206.044 269.059L205.845 268.896L206.248 268.405Z" fill="black"/>
<path d="M211.151 269.872L211.896 270.568L210.499 274.062C210.426 274.249 210.395 274.377 210.407 274.448C210.42 274.519 210.483 274.607 210.598 274.711L210.169 275.17L208.598 273.703L209.027 273.244L209.124 273.33C209.212 273.412 209.283 273.458 209.339 273.468C209.396 273.477 209.44 273.465 209.471 273.431C209.498 273.403 209.537 273.33 209.59 273.213L209.775 272.82L208.764 271.875L208.326 272.095C208.234 272.143 208.178 272.178 208.157 272.2C208.134 272.225 208.121 272.256 208.119 272.293C208.119 272.332 208.135 272.375 208.167 272.423C208.188 272.455 208.26 272.527 208.382 272.641L207.953 273.101L206.668 271.901L207.097 271.441C207.179 271.518 207.246 271.567 207.298 271.589C207.349 271.61 207.4 271.617 207.451 271.611C207.503 271.606 207.58 271.579 207.683 271.53L211.151 269.872ZM209.38 271.564L210.044 272.184L210.573 270.968L209.38 271.564Z" fill="black"/>
<path d="M214.138 272.522L214.434 272.834L214.355 272.972L216.122 274.829L216.271 274.763L216.569 275.077L215.804 276.583L215.233 276.29C215.332 276.01 215.391 275.821 215.408 275.723C215.444 275.531 215.443 275.349 215.406 275.177C215.378 275.048 215.326 274.943 215.25 274.862C215.214 274.825 215.18 274.808 215.147 274.812C215.117 274.814 215.069 274.846 215.005 274.907L213.113 276.707C213.001 276.814 212.935 276.884 212.914 276.919C212.893 276.954 212.883 276.989 212.884 277.024C212.886 277.058 212.9 277.094 212.925 277.133C212.952 277.171 213.033 277.261 213.169 277.404L212.714 277.838L211.188 276.234L211.643 275.8L211.735 275.897C211.837 276.004 211.908 276.066 211.949 276.084C211.992 276.101 212.037 276.101 212.085 276.086C212.134 276.068 212.213 276.009 212.32 275.907L214.254 274.066C214.309 274.014 214.337 273.975 214.34 273.949C214.342 273.923 214.324 273.889 214.285 273.848C214.207 273.766 214.089 273.704 213.932 273.662C213.775 273.62 213.603 273.613 213.417 273.64C213.343 273.651 213.156 273.701 212.856 273.792L212.598 273.215L214.138 272.522Z" fill="black"/>
<defs>
<linearGradient id="paint0_linear_199_66455" x1="174.915" y1="83.5412" x2="175.176" y2="66.5015" gradientUnits="userSpaceOnUse">
<stop stop-color="#474747"/>
<stop offset="1" stop-color="#FF5500"/>
</linearGradient>
<linearGradient id="paint1_linear_199_66455" x1="169.084" y1="147.621" x2="169.117" y2="157.287" gradientUnits="userSpaceOnUse">
<stop stop-color="#B50000"/>
<stop offset="1" stop-color="#FFC500"/>
</linearGradient>
<linearGradient id="paint2_linear_199_66455" x1="211.401" y1="153.5" x2="227.163" y2="153.291" gradientUnits="userSpaceOnUse">
<stop stop-color="#D5DFFF"/>
<stop offset="1" stop-color="white"/>
</linearGradient>
<linearGradient id="paint3_linear_199_66455" x1="171.899" y1="80.309" x2="177.546" y2="80.309" gradientUnits="userSpaceOnUse">
<stop stop-color="#474747"/>
<stop offset="1" stop-color="#FF5500"/>
</linearGradient>
<linearGradient id="paint4_linear_199_66455" x1="253.955" y1="232.732" x2="251.198" y2="215.585" gradientUnits="userSpaceOnUse">
<stop stop-color="#D5DFFF"/>
<stop offset="1" stop-color="white"/>
</linearGradient>
<linearGradient id="paint5_linear_199_66455" x1="215.242" y1="159.386" x2="208.209" y2="148.031" gradientUnits="userSpaceOnUse">
<stop stop-color="#D5DFFF"/>
<stop offset="1" stop-color="white"/>
</linearGradient>
</defs>
</svg>
