<svg width="300" height="300" viewBox="0 0 300 300" fill="none" xmlns="http://www.w3.org/2000/svg">
<path d="M150 290C227.32 290 290 227.32 290 150C290 72.6801 227.32 10 150 10C72.6801 10 10 72.6801 10 150C10 227.32 72.6801 290 150 290Z" fill="#000095"/>
<path d="M150 243.333L103.334 69.1703L230.829 196.666L56.667 149.999L230.829 103.333L103.334 230.828L150 56.666L196.667 230.828L69.1713 103.333L243.334 149.999L69.1713 196.666L196.667 69.1703L150 243.333Z" fill="white"/>
<path d="M149.999 199.778C177.491 199.778 199.777 177.492 199.777 150C199.777 122.509 177.491 100.223 149.999 100.223C122.508 100.223 100.222 122.509 100.222 150C100.222 177.492 122.508 199.778 149.999 199.778Z" stroke="#000095" stroke-width="6.22222"/>
</svg>
