<svg width="300" height="300" viewBox="0 0 300 300" fill="none" xmlns="http://www.w3.org/2000/svg">
<path d="M150.5 298C231.962 298 298 231.962 298 150.5C298 69.038 231.962 3 150.5 3C69.038 3 3 69.038 3 150.5C3 231.962 69.038 298 150.5 298Z" fill="#DC241F"/>
<path d="M150.499 296.264C231.003 296.264 296.264 231.003 296.264 150.499C296.264 69.9955 231.003 4.73438 150.499 4.73438C69.9955 4.73438 4.73438 69.9955 4.73438 150.499C4.73438 231.003 69.9955 296.264 150.499 296.264Z" fill="white"/>
<path d="M150.5 269.079C215.989 269.079 269.079 215.989 269.079 150.5C269.079 85.0112 215.989 31.9219 150.5 31.9219C85.0112 31.9219 31.9219 85.0112 31.9219 150.5C31.9219 215.989 85.0112 269.079 150.5 269.079Z" fill="#DC241F"/>
<path d="M150.499 267.343C215.03 267.343 267.343 215.03 267.343 150.499C267.343 85.9687 215.03 33.6562 150.499 33.6562C85.9687 33.6562 33.6562 85.9687 33.6562 150.499C33.6562 215.03 85.9687 267.343 150.499 267.343Z" fill="white"/>
<path fill-rule="evenodd" clip-rule="evenodd" d="M25.5015 163.052C25.3858 163.573 25.2123 163.92 24.8652 164.441C24.5182 164.903 23.9397 165.482 22.8986 166.407C22.0309 167.159 20.8741 168.2 20.2956 168.547C19.4858 167.275 18.2711 166.292 16.5358 166.581C15.2633 166.812 14.4535 167.506 14.0486 168.432C13.5858 169.357 13.5858 170.398 13.9329 172.192L14.9162 177.918L15.6103 177.802C15.4946 176.298 15.6682 176.067 17.2878 175.778L25.1544 174.39C26.8319 174.1 27.0633 174.274 27.4682 175.778L28.1623 175.662L27.179 169.589L26.427 169.704C26.5427 171.266 26.3692 171.497 24.7495 171.787L21.7417 172.307L21.6839 171.902C21.5682 171.266 21.7995 170.861 22.378 170.398C23.3613 169.589 24.3446 168.894 25.0966 168.2C26.2535 167.159 26.6584 166.234 26.3113 163.689C26.2535 163.457 26.2535 163.168 26.2535 163.052H25.5015ZM20.9319 172.481L15.8995 173.348C15.4946 173.406 15.2633 173.406 15.1476 173.291C15.0319 173.175 14.8584 172.886 14.7427 172.365C14.5692 171.208 15.1476 169.82 17.2878 169.415C18.329 169.242 19.1966 169.357 19.8907 169.994C20.3535 170.398 20.6427 171.035 20.8162 171.902L20.9319 172.481ZM21.6839 152.467C22.6672 152.756 23.3035 153.103 23.8241 153.45C24.3446 153.913 24.576 154.607 24.6917 155.648C24.7495 156.458 24.7495 157.152 24.6339 157.557C24.4603 158.02 23.9397 158.136 22.9564 158.194L19.428 158.483L19.3123 157.095C19.1966 155.359 19.1966 155.07 20.7005 154.665L20.6427 153.913L16.478 154.26L16.5358 155.012C17.9819 155.186 18.0976 155.417 18.329 157.152L18.4446 158.541L14.0486 158.888C13.3545 158.945 13.3545 158.888 13.2388 158.078L13.1809 157.095C13.0652 155.938 13.1231 155.359 13.528 154.954C13.875 154.549 14.5113 154.202 15.2633 153.913L15.0897 153.161C13.8172 153.335 12.3711 153.566 12.0241 153.624L12.8917 163.342L13.5858 163.284C13.528 161.838 13.6437 161.606 15.4368 161.433L23.3613 160.739C25.0966 160.565 25.2123 160.796 25.5015 162.532L26.2535 162.474L25.328 151.946C24.6917 151.831 22.7829 151.599 21.8574 151.542L21.6839 152.467ZM12.1397 150.674H12.8917C13.0652 149.228 13.2388 149.054 14.9162 149.054H22.8986C24.6339 149.054 24.8074 149.228 24.9809 150.79H25.7329V144.369H24.9231C24.7495 146.162 24.6339 146.336 22.8407 146.336H20.0064L20.3535 144.947C20.3535 144.716 20.3535 144.369 20.2956 144.08C20.0064 141.882 18.7917 139.857 16.0152 139.857C14.627 139.857 13.6437 140.436 12.9495 141.419C12.3133 142.229 12.0819 143.386 12.0819 145.063L12.1397 150.674ZM13.8172 146.336C13.528 146.336 13.2966 146.278 13.1809 146.162C13.0652 146.046 12.9495 145.757 12.9495 145.41C12.9495 144.138 13.7015 142.807 16.0152 142.807C18.7917 142.807 19.3701 144.485 19.3701 145.237C19.3701 145.642 19.2544 146.104 19.1388 146.336H13.8172ZM14.4535 122.794L13.8172 127.942L14.5692 128.057C14.8005 126.669 15.2633 126.264 16.0152 126.206C16.6515 126.206 17.4613 126.148 18.9074 126.38L21.1054 126.611C24.5182 127.016 26.2535 128.346 25.9643 130.834C25.7329 133.09 23.7662 133.957 20.7005 133.552L16.2466 133.032C14.2799 132.8 14.1643 132.569 14.2221 131.007L13.4701 130.892L12.7182 137.081L13.4123 137.139C13.7594 135.635 13.9329 135.461 15.8417 135.693L20.7005 136.271C23.0721 136.56 24.6917 136.213 25.7329 135.172C26.6584 134.246 27.1211 133.032 27.2368 131.644C27.4103 130.197 27.1211 128.694 26.1956 127.652C25.1544 126.322 23.4192 125.801 21.2211 125.57L18.9652 125.281C17.5192 125.107 16.7672 124.934 16.1309 124.76C15.4368 124.587 15.0897 123.95 15.1476 122.851L14.4535 122.794ZM11.8505 126.206C11.3299 126.206 10.2888 126.727 10.1152 127.074C10.8094 128.346 11.5035 129.677 12.2554 130.949L12.8339 130.718L12.1397 126.322L11.8505 126.206ZM23.3035 114.348C23.4192 112.845 23.1299 110.936 21.2211 110.415C20.1799 110.126 19.2544 110.299 18.5603 110.936C17.8662 111.572 17.3456 112.497 16.9407 114.059L15.3211 119.844L16.0152 120.017C16.5358 118.629 16.7094 118.513 18.4446 118.976L26.0799 121.174C27.8152 121.637 27.8731 121.868 27.5839 123.488L28.278 123.661L29.7241 118.629C30.1868 116.951 30.3603 115.39 30.0711 114.175C29.7819 112.845 28.9721 111.803 27.6417 111.456C25.7329 110.878 24.3446 112.15 23.3035 114.348ZM22.2623 117.241L18.4446 116.142C17.9819 116.026 17.6927 115.91 17.6348 115.679C17.5192 115.563 17.5192 115.158 17.6348 114.695C17.9819 113.654 18.9652 112.729 20.7584 113.249C22.4358 113.712 22.8986 114.753 22.378 116.72L22.2623 117.241ZM23.0143 117.472L23.1299 117.067C23.7662 114.811 25.0966 113.886 26.9476 114.464C28.9143 115.043 29.377 116.546 29.0878 117.645C28.7986 118.687 28.2201 118.976 26.7741 118.571L23.0143 117.472ZM31.7486 100.64C32.5584 101.392 33.0211 101.97 33.3103 102.548C33.6574 103.243 33.4839 103.937 33.1946 104.746C32.9633 105.325 32.7319 105.845 32.4427 106.135C32.0956 106.482 31.6907 106.424 30.8231 106.019L23.3613 102.953C21.6839 102.259 21.626 102.086 22.1466 100.524L21.4525 100.235L19.0809 106.135L19.775 106.424C20.527 105.036 20.7005 104.862 22.378 105.556L29.7241 108.506C31.3437 109.143 31.4015 109.374 30.8809 111.109L31.575 111.398L35.3348 102.028C34.8721 101.681 33.1368 100.466 32.3848 100.003L31.7486 100.64ZM38.4584 95.1445L37.8221 94.8553C37.0701 96.1857 36.8388 96.3013 35.277 95.6072L27.9888 92.368C26.3692 91.6739 26.3113 91.3847 26.8319 89.9386L26.1956 89.6494L23.6505 95.318L24.3446 95.6072C25.0966 94.2768 25.2701 94.1612 26.8897 94.8553L34.178 98.0945C35.7976 98.7886 35.8554 99.02 35.3348 100.524L35.9711 100.813L38.4584 95.1445ZM41.5819 81.7249C42.9123 83.6915 43.2594 85.3112 42.3917 86.8151C41.0035 89.2445 37.8221 89.8808 34.4672 88.0298C31.8064 86.5837 30.129 83.6916 31.575 81.0886C32.3848 79.7004 33.7731 78.6592 36.2603 79.2376L36.4917 78.4857C35.277 77.9651 34.3515 77.618 33.3103 77.271C32.9633 77.7337 31.8064 78.8327 30.9966 80.3367C28.625 84.6749 29.6084 88.9553 33.3103 91.0376C36.2025 92.6573 40.4829 92.368 43.1437 87.5092C43.8378 86.2945 44.4162 84.3857 44.5319 83.8651C44.0692 83.171 42.9701 81.9563 42.2182 81.2621L41.5819 81.7249ZM53.5554 71.1975L52.977 70.7925C52.0515 71.7759 51.7044 71.8337 49.7956 71.371C46.0937 70.4455 42.3917 69.4043 38.6897 68.421L38.2848 69.4622L44.5897 79.0641C45.6309 80.6259 45.6888 80.9729 45.0525 82.1877L45.6309 82.6504L48.2917 78.8327L47.7133 78.4278C46.6721 79.5847 46.4407 79.469 45.7466 78.6592C45.226 77.9651 44.7633 77.3288 44.4162 76.7504L46.6721 73.5112C47.5397 73.7426 48.4652 73.9739 49.0437 74.1474C49.9692 74.3788 50.1427 74.6102 49.5643 75.767L50.2005 76.172L53.5554 71.1975ZM45.5152 73.1063L43.6643 75.767C42.7966 74.4945 41.8133 73.2219 40.9456 71.8915L41.0035 71.8337L45.5152 73.1063ZM50.2005 54.9435L50.7211 55.4641C51.878 54.5386 52.1093 54.4808 53.3241 55.7533L58.8192 61.4798C60.0339 62.7523 59.976 62.9837 58.9348 64.2563L59.4554 64.7768L63.2731 61.0749C65.1241 59.2818 66.2809 57.3729 66.5701 55.4641C66.9172 53.4974 66.3388 51.4729 64.6035 49.6219C63.2152 48.2337 61.5956 47.7131 60.2074 47.771C58.3564 47.771 56.5054 48.8121 54.6544 50.6053L50.2005 54.9435ZM55.0015 53.4974C54.5966 53.0347 54.3652 52.8033 54.3652 52.5141C54.3652 52.3406 54.5388 51.9357 55.0593 51.3572C56.1005 50.3739 57.1995 49.9112 58.4143 49.9112C59.7446 49.9112 61.2486 50.6631 62.6368 52.1092C65.1819 54.77 65.4133 57.72 63.3888 59.6288C62.3476 60.67 61.7692 60.4965 60.728 59.3974L55.0015 53.4974ZM76.577 44.9945C76.8662 45.9778 77.0397 46.6719 76.9819 47.3082C76.9241 48.0023 76.4613 48.5808 75.6515 49.2749C75.0152 49.7955 74.4946 50.2004 74.0897 50.3161C73.627 50.4317 73.2799 50.0847 72.6437 49.3327L70.3299 46.6141L71.3711 45.6886C72.7593 44.5317 72.9329 44.4739 74.1476 45.3994L74.726 44.9367L72.0074 41.6975L71.429 42.218C72.1231 43.5484 72.0074 43.7798 70.677 44.8788L69.578 45.7465L66.7437 42.3915C66.2809 41.871 66.3388 41.7553 66.9172 41.2925L67.6692 40.6563C68.5368 39.9043 69.0574 39.6729 69.578 39.7308C70.0986 39.7886 70.7927 40.1357 71.429 40.5406L71.8917 39.9622C71.0241 39.0367 70.0407 37.9955 69.7515 37.7063L62.2897 43.9533L62.7525 44.5317C63.9672 43.6641 64.1407 43.6641 65.2976 44.9945L70.4456 51.1259C71.5446 52.5141 71.4868 52.6876 70.2142 53.9602L70.677 54.5386L78.775 47.771C78.4858 47.1926 77.6182 45.4572 77.0976 44.6474L76.577 44.9945ZM94.9133 38.4582L94.5662 37.822C93.0623 38.4582 92.9466 38.4004 91.9054 36.7808L87.8564 30.1288C86.9888 28.6828 86.9888 28.4514 88.3192 27.5259L87.9721 26.8896L84.3858 28.972L85.427 38.8631L77.3868 33.021L73.6848 35.1612L74.0319 35.7974C75.6515 35.0455 75.9407 35.219 76.9819 37.3592L78.775 41.0612C79.7005 43.0278 80.1054 44.0112 80.3368 44.6474C80.626 45.3416 80.4525 45.8621 79.527 46.5563L79.8741 47.1926L84.1544 44.7053L83.8074 44.069C82.5348 44.6474 82.0721 44.7053 81.5515 43.9533C81.1466 43.4327 80.6839 42.5651 79.8741 41.0612L77.3868 36.2602L77.4446 36.2024L86.4103 43.2592L86.8731 42.97L85.427 31.3435L85.5427 31.2857L89.5917 38.169C90.575 39.7886 90.5172 40.02 89.2446 40.9455L89.5917 41.5818L94.9133 38.4582ZM97.4584 22.2043C93.0623 23.9974 92.0211 28.1622 93.3515 31.4592C94.8554 35.1612 98.6152 36.8965 102.491 35.3347C106.135 33.8886 108.102 30.1288 106.424 25.9641C104.92 22.2043 100.987 20.8161 97.4584 22.2043ZM97.4584 23.1298C99.6564 22.2621 102.202 23.9396 103.705 27.7572C105.152 31.2857 104.4 33.7151 102.549 34.4092C100.119 35.3925 97.4584 33.1945 96.128 29.8974C94.7976 26.6004 95.4917 23.9396 97.4584 23.1298ZM121.348 24.7494C120.943 27.0631 120.017 28.4514 118.398 28.972C115.679 29.7818 113.018 27.9886 111.861 24.3445C110.936 21.4524 111.746 18.2131 114.638 17.3455C116.142 16.8827 117.877 17.1141 119.265 19.2543L119.959 18.9072C119.439 17.6925 118.976 16.8249 118.513 15.7837C117.935 15.8415 116.315 15.8415 114.753 16.3621C110.01 17.8082 107.754 21.6259 108.969 25.6749C109.952 28.8563 113.192 31.5749 118.455 29.9553C119.786 29.5504 121.521 28.5671 121.984 28.2778C122.1 27.468 122.157 25.8484 122.1 24.8073L121.348 24.7494ZM136.676 25.6749C136.155 25.6171 135.808 25.3857 135.288 25.0386C134.825 24.6915 134.304 24.1131 133.321 23.1298C132.569 22.2621 131.528 21.0474 131.123 20.5268C132.396 19.717 133.379 18.5602 133.09 16.7092C132.858 15.4367 132.106 14.6269 131.181 14.2798C130.255 13.8171 129.214 13.817 127.421 14.1641L121.695 15.2053L121.81 15.8994C123.314 15.7837 123.546 15.9573 123.835 17.5769L125.223 25.3857C125.512 27.0631 125.339 27.2945 123.835 27.7572L123.951 28.4514L130.14 27.3523L130.024 26.6582C128.462 26.7739 128.231 26.6004 127.942 24.9229L127.421 21.9729L127.768 21.9151C128.462 21.7994 128.867 21.9729 129.33 22.5514C130.082 23.5347 130.834 24.518 131.528 25.27C132.569 26.4269 133.495 26.8317 136.098 26.4847C136.329 26.4268 136.618 26.4269 136.734 26.369L136.676 25.6749ZM127.248 21.1053L126.322 16.1308C126.264 15.7259 126.264 15.4945 126.38 15.321C126.438 15.2053 126.727 15.0896 127.248 14.9739C128.404 14.7425 129.793 15.3788 130.198 17.519C130.371 18.5602 130.255 19.4278 129.619 20.1219C129.214 20.5847 128.578 20.8739 127.71 21.0474L127.248 21.1053ZM150.905 24.9808L150.848 24.2288C149.517 24.171 149.228 23.9396 148.36 22.2043C146.683 18.7916 145.121 15.2631 143.502 11.7925L142.46 12.1396L139.163 23.1298C138.643 24.9229 138.411 25.1543 137.081 25.4435V26.1955L141.708 25.7906L141.651 25.0965C140.147 25.0386 140.031 24.7494 140.262 23.7661C140.494 22.8984 140.667 22.1465 140.841 21.4524L144.774 21.1053C145.179 21.9151 145.526 22.7827 145.815 23.3612C146.22 24.2288 146.162 24.518 144.948 24.8073L145.005 25.5592L150.905 24.9808ZM144.253 20.0063L141.072 20.2955C141.477 18.7916 141.882 17.2298 142.287 15.668H142.345L144.253 20.0063ZM146.162 9.65234C146.047 9.13176 145.352 8.26412 144.948 8.14844C143.849 9.01608 142.75 9.9994 141.593 10.9827L141.94 11.5033L146.104 9.88373L146.162 9.65234ZM162.59 15.8416C162.474 14.5112 162.416 12.718 162.416 11.8504H161.896C161.491 12.2553 161.202 12.371 160.681 12.371L152.294 12.1975C151.715 12.1975 151.484 12.1396 151.137 11.6769H150.616C150.501 12.718 150.385 14.2219 150.269 15.7837H151.021C151.31 14.7425 151.6 14.0484 151.889 13.7014C152.236 13.3543 152.641 13.1229 154.318 13.1808H155.012L154.839 23.0141C154.781 24.8072 154.607 24.9229 152.872 24.9808V25.7327L159.64 25.8484V25.1543C157.847 24.9808 157.615 24.8073 157.615 23.072L157.789 13.2965H158.714C159.929 13.2965 160.45 13.47 160.797 13.8171C161.202 14.1641 161.491 14.8582 161.722 15.9573L162.59 15.8416ZM169.647 27.0053L169.762 26.3112C168.258 25.9641 168.085 25.7906 168.316 24.0553L169.415 16.1886C169.647 14.4533 169.878 14.3376 171.44 14.3955L171.555 13.7014L165.424 12.8337L165.308 13.5278C166.812 13.8749 166.928 14.0484 166.697 15.7837L165.598 23.6504C165.366 25.3857 165.135 25.5014 163.573 25.4435L163.457 26.1376L169.647 27.0053ZM183.587 26.0219C182.083 27.8151 180.521 28.5671 178.844 28.1621C176.125 27.468 174.737 24.518 175.662 20.8161C176.414 17.8661 178.728 15.4945 181.62 16.1886C183.182 16.5935 184.512 17.6347 184.57 20.2376L185.38 20.2955C185.496 19.0229 185.611 18.0396 185.727 16.8827C185.206 16.5935 183.818 15.8416 182.199 15.4367C177.398 14.222 173.464 16.3622 172.481 20.469C171.671 23.6504 173.002 27.6994 178.381 29.0876C179.769 29.3768 181.736 29.4925 182.256 29.4925C182.777 28.8563 183.645 27.468 184.165 26.6004L183.587 26.0219ZM197.006 34.1778L197.238 33.4837C196.023 32.9053 195.85 32.5582 195.734 30.5916C195.56 26.7739 195.502 22.9563 195.329 19.0808L194.23 19.0229L186.942 27.8729C185.727 29.319 185.438 29.4347 184.107 29.2033L183.818 29.8974L188.214 31.3435L188.446 30.6494C187.057 30.0131 187.115 29.7239 187.694 28.8563C188.214 28.1622 188.677 27.5259 189.082 27.0053L192.842 28.22C192.9 29.1455 192.9 30.071 192.9 30.7073C192.957 31.6906 192.784 31.9219 191.569 31.6906L191.338 32.3847L197.006 34.1778ZM192.9 27.0053L189.834 26.0219C190.817 24.8072 191.743 23.5347 192.784 22.2621L192.842 22.32L192.9 27.0053ZM211.988 26.1955L211.641 26.8318C212.855 27.6994 212.971 27.8729 212.046 29.4347L208.054 36.318C207.187 37.8219 206.955 37.8798 205.452 37.1857L205.104 37.822L209.732 40.4827C211.988 41.8131 214.128 42.3916 216.037 42.1602C218.061 41.9288 219.854 40.8298 221.069 38.6317C221.995 36.9543 222.052 35.2769 221.705 33.8886C221.185 32.0955 219.681 30.6494 217.483 29.3768L211.988 26.1955ZM214.764 30.3602C215.053 29.8396 215.285 29.5504 215.516 29.4925C215.69 29.4347 216.152 29.4925 216.789 29.8974C218.061 30.5916 218.755 31.5171 219.102 32.7318C219.45 34.0043 219.16 35.6818 218.177 37.3592C216.326 40.5406 213.55 41.5817 211.12 40.1935C209.848 39.4416 209.848 38.8631 210.6 37.5906L214.764 30.3602ZM228.878 48.7543C228.01 49.2749 227.316 49.5641 226.738 49.7376C226.044 49.8533 225.35 49.5641 224.424 48.9278C223.788 48.4651 223.267 48.0024 223.036 47.6553C222.804 47.2504 223.094 46.7876 223.614 45.9778L225.754 43.0857L226.911 43.8955C228.3 44.9367 228.473 45.168 227.837 46.4984L228.415 46.9612L230.902 43.5484L230.266 43.1435C229.167 44.1269 228.936 44.069 227.49 43.0278L226.333 42.218L228.936 38.6896C229.341 38.1112 229.456 38.169 230.093 38.5739L230.902 39.1523C231.828 39.8465 232.175 40.2514 232.233 40.7719C232.349 41.2925 232.117 41.9867 231.886 42.7386L232.522 43.0857C233.216 41.9867 233.968 40.772 234.2 40.4249L226.275 34.6984L225.87 35.2768C226.969 36.2602 227.085 36.4337 225.986 37.8798L221.301 44.3582C220.259 45.8043 220.028 45.7465 218.466 44.821L218.061 45.3994L226.622 51.6464C227.143 51.2415 228.589 49.969 229.225 49.2749L228.878 48.7543ZM249.47 58.5876C250.28 57.5464 251.495 56.1582 252.073 55.4641L251.726 55.117C251.205 55.1749 250.916 55.0592 250.511 54.6543L244.38 48.9857C243.975 48.5808 243.802 48.3494 243.859 47.8288L243.512 47.4818C242.702 48.2337 241.661 49.2749 240.504 50.3161L241.025 50.8367C241.951 50.2582 242.587 49.969 243.107 49.9112C243.57 49.9112 243.975 49.969 245.248 51.1259L245.768 51.5886L239.058 58.7612C237.844 60.0916 237.612 60.0337 236.224 58.9347L235.761 59.4553L240.678 64.0827L241.141 63.5622C239.926 62.2318 239.868 61.9425 241.083 60.67L247.793 53.4974L248.487 54.1337C249.412 54.9435 249.702 55.4063 249.702 55.9269C249.759 56.4474 249.47 57.1416 248.892 58.1249L249.47 58.5876ZM247.272 71.6023L247.793 71.1396C246.867 69.867 246.867 69.6357 248.198 68.4788L254.213 63.2729C255.544 62.1161 255.775 62.1739 256.874 63.2151L257.452 62.7523L253.346 58.0671L252.825 58.5298C253.751 59.8023 253.751 60.0337 252.362 61.1906L246.404 66.3964C245.074 67.5533 244.843 67.4955 243.744 66.4543L243.165 66.9171L247.272 71.6023ZM258.262 86.5259L258.841 86.121C258.031 84.7327 258.089 84.5014 259.651 83.4023L265.898 78.7749C267.286 77.7337 267.459 77.7337 268.558 79.0063L269.137 78.6014L266.765 75.1886L256.99 77.0396L262.138 68.5367L259.651 65.0082L259.072 65.4131C259.94 66.9749 259.824 67.2641 257.742 68.4788L254.213 70.5612C252.362 71.6602 251.379 72.1808 250.743 72.4121C250.106 72.7014 249.528 72.6435 248.834 71.718L248.255 72.1229L251.09 76.172L251.668 75.767C250.974 74.5523 250.916 74.1475 251.61 73.5112C252.073 73.0484 252.883 72.5278 254.329 71.6023L258.899 68.7102L258.956 68.768L252.709 78.3122L253.056 78.7749L264.567 76.3455L264.625 76.4612L258.089 81.0886C256.527 82.1876 256.353 82.1876 255.312 80.9729L254.734 81.3778L258.262 86.5259ZM274.227 87.8563C272.029 83.6337 267.806 82.9396 264.625 84.5592C261.039 86.3523 259.651 90.3435 261.559 94.0455C263.295 97.5161 267.228 99.1357 271.219 97.1112C274.863 95.2024 275.904 91.2112 274.227 87.8563ZM273.302 87.9141C274.401 90.0543 272.897 92.6572 269.252 94.5661C265.84 96.3014 263.41 95.7229 262.543 93.9876C261.328 91.6161 263.295 88.8396 266.476 87.2778C269.6 85.5425 272.318 86.0053 273.302 87.9141ZM270.467 113.134C270.467 112.613 270.583 112.208 270.872 111.63C271.103 111.051 271.566 110.415 272.376 109.316C273.07 108.448 274.053 107.176 274.516 106.713C275.557 107.812 276.888 108.564 278.623 107.928C279.838 107.465 280.474 106.597 280.705 105.614C280.937 104.631 280.763 103.59 280.127 101.854L278.045 96.4171L277.351 96.6484C277.698 98.0945 277.64 98.3837 276.078 98.9622L268.616 101.854C266.997 102.491 266.765 102.317 266.071 100.929L265.377 101.16L267.633 107.002L268.269 106.771C267.864 105.267 267.98 104.978 269.542 104.399L272.376 103.3L272.492 103.705C272.723 104.342 272.607 104.746 272.145 105.325C271.393 106.25 270.467 107.176 269.947 107.986C269.021 109.258 268.732 110.184 269.542 112.671C269.657 112.902 269.715 113.134 269.715 113.249L270.467 113.134ZM273.186 103.069L277.929 101.276C278.334 101.16 278.565 101.102 278.739 101.16C278.912 101.218 279.086 101.449 279.259 101.97C279.664 103.069 279.375 104.573 277.351 105.325C276.367 105.73 275.5 105.73 274.69 105.267C274.169 104.978 273.764 104.399 273.475 103.59L273.186 103.069ZM276.541 116.894L275.152 111.977L273.649 112.093L275.037 116.951L276.541 116.894ZM277.524 128.462C276.425 128.289 275.731 128.057 275.21 127.768C274.574 127.421 274.227 126.669 274.053 125.859C273.938 125.223 273.822 124.645 273.938 124.297C274.053 123.835 274.401 123.661 275.326 123.488L283.251 121.81C284.986 121.405 285.159 121.579 285.622 123.141L286.316 122.967L284.986 116.778L284.292 116.951C284.465 118.513 284.407 118.745 282.672 119.092L274.863 120.769C273.186 121.116 272.954 120.943 272.434 119.207L271.74 119.323L273.88 129.214C274.458 129.272 276.599 129.272 277.466 129.214L277.524 128.462ZM278.854 140.436C277.871 140.146 277.177 139.857 276.656 139.51C276.078 139.105 275.847 138.353 275.731 137.312C275.615 136.502 275.557 135.808 275.731 135.403C275.904 134.941 276.367 134.825 277.351 134.709L280.879 134.246L281.053 135.635C281.284 137.37 281.168 137.659 279.78 138.122L279.896 138.874L284.06 138.353L283.945 137.601C282.441 137.486 282.325 137.254 282.152 135.519L281.978 134.131L286.316 133.61C287.01 133.494 287.068 133.552 287.184 134.362L287.3 135.345C287.415 136.502 287.357 137.081 287.01 137.486C286.721 137.891 286.085 138.238 285.333 138.527L285.564 139.279C286.837 139.047 288.283 138.758 288.63 138.7L287.415 128.983L286.721 129.041C286.779 130.545 286.721 130.776 284.928 130.949L277.003 131.933C275.268 132.164 275.095 131.991 274.748 130.255L274.053 130.313L275.326 140.841C275.962 140.956 277.871 141.13 278.854 141.13V140.436ZM285.68 150.79C286.953 150.616 287.878 150.443 288.63 150.385C288.746 150.038 289.151 148.823 289.151 147.493C289.151 144.543 287.357 142.749 285.102 142.749C283.135 142.749 281.978 144.195 280.937 146.336C280.127 147.897 279.375 148.823 278.102 148.823C276.772 148.823 275.904 148.013 275.904 146.741C275.904 144.774 278.218 143.501 279.549 143.096L279.317 142.402C278.045 142.518 276.309 142.807 275.847 142.981C275.731 143.27 275.557 143.675 275.384 144.253C275.21 144.832 275.095 145.584 275.095 146.336C275.095 149.344 276.946 151.368 279.317 151.368C281.342 151.368 282.499 149.864 283.54 147.666C284.465 145.873 285.102 145.121 286.258 145.121C287.473 145.121 288.283 145.989 288.283 147.145C288.283 148.823 286.779 149.633 285.449 150.038L285.68 150.79ZM284.697 165.193C286.027 165.193 287.82 165.25 288.746 165.308V164.788C288.399 164.383 288.283 164.094 288.399 163.573L289.093 155.244C289.151 154.665 289.208 154.376 289.729 154.144V153.624C288.688 153.508 287.184 153.219 285.68 152.988L285.564 153.74C286.605 154.087 287.3 154.434 287.589 154.781C287.936 155.128 288.109 155.533 287.936 157.21L287.878 157.904L278.102 157.037C276.367 156.863 276.252 156.632 276.252 154.896L275.557 154.839L274.979 161.606L275.673 161.664C276.02 159.871 276.136 159.64 277.871 159.813L287.647 160.681L287.531 161.664C287.415 162.879 287.242 163.399 286.895 163.689C286.49 164.036 285.796 164.267 284.697 164.383V165.193ZM276.483 176.241C275.615 175.662 275.037 175.199 274.69 174.737C274.227 174.158 274.227 173.406 274.401 172.365C274.574 171.613 274.69 170.919 274.921 170.572C275.21 170.225 275.731 170.225 276.656 170.398L280.243 171.035L280.011 172.423C279.664 174.158 279.549 174.39 278.102 174.39L277.929 175.142L282.036 175.894L282.209 175.142C280.821 174.621 280.763 174.332 281.053 172.596L281.284 171.208L285.622 171.96C286.258 172.076 286.316 172.192 286.201 172.944L286.027 173.927C285.853 175.084 285.564 175.604 285.159 175.894C284.697 176.183 284.002 176.356 283.251 176.414L283.193 177.166C284.465 177.282 285.911 177.455 286.316 177.513L288.052 167.853L287.3 167.738C286.952 169.126 286.779 169.357 285.044 169.01L277.177 167.622C275.442 167.333 275.326 167.101 275.5 165.308L274.805 165.193L272.954 175.604C273.533 175.894 275.326 176.645 276.252 176.935L276.483 176.241Z" fill="#DC241F"/>
<path fill-rule="evenodd" clip-rule="evenodd" d="M124.297 289.961C123.892 289.672 123.603 289.093 123.256 288.052C122.966 287.126 122.735 286.143 122.388 284.35C122.099 282.846 121.752 280.59 121.636 279.433C123.429 278.855 124.875 277.524 125.512 274.922C125.916 273.071 125.627 271.682 124.991 270.641C124.355 269.658 123.429 269.137 121.925 268.79L116.488 267.518L116.314 268.154C117.703 268.732 117.818 268.906 117.24 271.509L114.348 284.061C113.769 286.664 113.538 286.895 111.918 286.664L111.803 287.3L117.587 288.63L117.703 287.994C116.199 287.473 116.141 287.184 116.719 284.581L117.934 279.491L118.397 279.607C119.149 279.838 119.264 280.359 119.38 281.342C119.612 283.077 119.843 285.102 120.132 286.432C120.537 288.572 121.115 289.614 123.371 290.308C123.603 290.366 123.834 290.423 124.065 290.423L124.297 289.961ZM118.108 278.681L119.959 270.757C120.132 270.005 120.248 269.773 120.421 269.658C120.595 269.542 120.942 269.484 121.405 269.6C122.619 269.889 123.661 271.509 122.909 274.864C122.504 276.657 121.867 277.814 121 278.45C120.364 278.971 119.785 279.028 118.917 278.855L118.108 278.681ZM136.386 271.393L136.328 272.029C137.774 272.376 137.948 272.55 137.716 275.326L136.849 287.994C136.675 290.771 136.386 291.002 134.766 291.06L134.709 291.696L139.336 292.043C141.881 292.217 143.906 291.58 145.467 289.903C147.029 288.283 148.128 285.565 148.475 281.689C148.649 278.739 148.128 276.483 147.203 274.922C146.104 272.955 144.368 271.972 141.65 271.798L136.386 271.393ZM140.319 274.517C140.377 273.418 140.493 273.071 140.666 272.897C140.898 272.723 141.245 272.608 141.765 272.666C142.864 272.723 143.732 273.244 144.484 274.459C145.583 275.963 145.988 278.797 145.757 281.978C145.352 287.994 143.327 291.349 140.724 291.118C139.51 291.002 139.22 290.192 139.336 288.225L140.319 274.517ZM169.299 275.673C169.067 274.112 168.836 271.74 168.72 270.41H168.315C168.026 271.046 167.737 271.277 167.216 271.277L159.465 271.798C158.829 271.856 158.54 271.682 158.193 271.104L157.846 271.162C157.904 272.723 157.904 274.806 158.019 276.541L158.54 276.483C158.656 275.269 158.829 274.285 159.061 273.707C159.35 272.955 159.813 272.666 161.143 272.608L162.126 272.55L163.225 288.283C163.399 290.886 163.283 291.175 161.606 291.465L161.664 292.159L167.853 291.696V291.002C166.06 290.944 165.886 290.713 165.713 288.11L164.614 272.376L165.77 272.319C166.869 272.261 167.448 272.376 167.795 273.013C168.2 273.533 168.489 274.343 168.836 275.789L169.299 275.673ZM189.717 282.036C189.775 283.367 189.602 284.408 189.428 285.16C189.139 286.085 188.503 286.49 187.519 286.779C186.71 287.011 186.189 287.069 185.784 286.953C185.321 286.779 185.09 286.143 184.685 284.639L181.33 272.145C180.636 269.6 180.694 269.369 182.14 268.732L181.966 268.096L176.414 269.6L176.587 270.236C178.033 270.063 178.265 270.178 178.959 272.723L182.314 285.333C182.95 287.763 182.892 288.052 181.272 288.688L181.446 289.324L190.759 286.837C190.701 286.027 190.412 283.193 190.296 282.094L189.717 282.036Z" fill="#DC241F"/>
<path fill-rule="evenodd" clip-rule="evenodd" d="M150.501 60.7422C108.68 88.5647 83.5182 133.567 80.8574 183.485C84.9396 182.845 88.9601 182.397 92.9337 182.14C112.664 180.863 131.242 184.295 150.501 192.335C173.638 182.676 195.792 179.668 220.144 183.485C217.483 133.567 192.321 88.5647 150.501 60.7422Z" stroke="#DC241F" stroke-width="34.3496"/>
<path fill-rule="evenodd" clip-rule="evenodd" d="M150.501 60.7422C108.68 88.5647 83.5182 133.567 80.8574 183.485C105.209 179.668 127.363 182.676 150.501 192.335C173.638 182.676 195.792 179.668 220.144 183.485C217.483 133.567 192.321 88.5647 150.501 60.7422Z" stroke="#FFC726" stroke-width="8.91363"/>
<path d="M150.501 60.7422C108.68 88.5647 83.5182 133.567 80.8574 183.486C105.209 179.668 127.363 182.676 150.501 192.335C173.638 182.676 195.792 179.668 220.144 183.486C217.483 133.567 192.321 88.5647 150.501 60.7422Z" fill="black"/>
<path fill-rule="evenodd" clip-rule="evenodd" d="M132.537 90.8232C132.206 90.7989 131.859 90.9291 131.642 91.1892L130.081 92.6341C129.849 92.8655 129.734 93.1551 129.734 93.4442V100.035L129.387 99.9773L129.271 100.093L127.767 102.521L127.652 102.695L127.767 102.81L129.676 104.544V105.296L128.981 107.088L125.916 107.32L125.742 107.378L125.685 107.552L125.164 110.326V110.499L125.338 110.558L128.114 111.714V114.258L125.338 115.414L125.164 115.472V115.645L125.685 118.42L125.742 118.594H125.916L128.981 118.825L129.676 120.618V121.428L127.767 123.162L127.652 123.278L127.767 123.452L129.271 125.88L129.387 125.995H129.56L132.51 125.243L134.304 127.209L133.031 129.696L132.973 129.869L133.088 129.985L135.461 131.777L135.576 131.892L135.691 131.777L138.121 130.158L140.55 131.43L140.261 134.147L140.203 134.321L140.377 134.379L143.616 135.477L142.864 136.518L142.17 136.345C141.707 136.171 141.187 135.997 140.666 135.824C140.146 135.65 139.683 135.42 139.22 135.247L139.104 135.186H132.221V139.409H168.778V135.186H161.894L161.778 135.247C161.315 135.42 160.853 135.65 160.332 135.824C159.811 135.997 159.291 136.171 158.828 136.345L158.135 136.517L157.382 135.477L160.621 134.379L160.795 134.321L160.738 134.147L160.448 131.43L162.877 130.158L165.307 131.777L165.423 131.892L165.538 131.777L167.91 129.985L168.026 129.868L167.968 129.695L166.695 127.209L168.489 125.243L171.439 125.995H171.611L171.728 125.88L173.232 123.452L173.347 123.278L173.232 123.162L171.322 121.428V120.618L172.017 118.825L175.082 118.594H175.256L175.314 118.42L175.834 115.645V115.472L175.66 115.413L172.885 114.258V111.713L175.66 110.558L175.834 110.499V110.326L175.314 107.551L175.256 107.377L175.082 107.32L172.017 107.088L171.322 105.296V104.544L173.232 102.81L173.347 102.695L173.232 102.521L171.728 100.093L171.611 99.9776L171.265 100.036V93.4445C171.265 93.1554 171.149 92.8658 170.918 92.6345L169.356 91.1895C169.14 90.9294 168.792 90.7992 168.462 90.8235C168.351 90.8316 168.242 90.8571 168.141 90.9003C161.916 93.0897 155.922 96.1057 150.499 100.017C145.077 96.1057 139.083 93.0897 132.858 90.9003C132.756 90.8569 132.647 90.8313 132.537 90.8232Z" fill="#FFC726"/>
<path fill-rule="evenodd" clip-rule="evenodd" d="M122.148 99.9594C121.512 101.521 122.553 102.852 122.726 104.356C122.9 105.686 122.726 107.19 122.264 108.694C121.223 111.933 120.529 114.362 120.934 117.544C121.339 120.667 123.016 124.659 121.223 127.551C122.553 124.543 120.645 120.841 120.009 117.891C119.315 114.767 119.778 112.222 120.529 109.041C121.108 107.016 121.339 105.628 120.298 103.661C120.125 103.257 119.893 102.852 119.836 102.273C119.2 102.852 118.39 103.025 117.639 103.314C115.268 104.124 113.996 105.628 112.84 107.71C111.048 110.95 109.66 114.362 105.439 114.478C109.255 113.09 109.891 110.776 111.51 107.074C112.782 104.182 113.996 102.389 117.118 101.232C118.275 100.769 119.662 100.307 120.183 99.0918L122.148 99.9594ZM118.159 104.934C117.928 104.818 117.754 104.703 117.523 104.587C117.35 104.471 117.06 104.413 116.887 104.298C116.54 104.182 116.078 105.05 116.424 105.223C116.656 105.339 116.829 105.455 117.06 105.57C117.292 105.686 117.523 105.744 117.754 105.859C118.043 105.975 118.506 105.108 118.159 104.934ZM118.737 103.661C118.564 103.546 118.39 103.488 118.217 103.372C118.043 103.43 117.87 103.488 117.696 103.546C117.407 103.661 117.176 103.777 116.887 103.893C116.945 103.951 116.945 103.951 116.945 103.951C117.176 104.066 117.407 104.182 117.581 104.24C117.812 104.356 118.043 104.413 118.217 104.529C118.679 104.703 119.026 103.835 118.737 103.661ZM118.621 103.257C118.679 103.257 118.737 103.314 118.795 103.314C118.968 103.372 119.2 103.141 119.315 102.909C119.142 103.083 118.853 103.141 118.621 103.257ZM120.009 103.893L119.489 103.661C119.315 103.546 119.373 103.199 119.604 102.967C119.72 103.257 119.778 103.546 119.951 103.835L120.009 103.893ZM110.874 122.576C111.048 122.634 111.221 122.692 111.337 122.75C111.51 122.808 111.684 122.923 111.799 122.981C112.088 123.097 111.568 123.849 111.279 123.733C111.163 123.675 111.048 123.617 110.874 123.56C110.701 123.502 110.643 123.444 110.469 123.328C110.238 123.27 110.585 122.518 110.874 122.576ZM111.452 121.419C111.626 121.477 111.799 121.593 111.973 121.651C112.146 121.708 112.32 121.824 112.493 121.94C112.724 122.113 112.204 122.865 111.973 122.75C111.799 122.692 111.626 122.634 111.51 122.518C111.337 122.46 111.163 122.345 111.048 122.287C110.758 122.171 111.105 121.361 111.452 121.419ZM112.03 120.262C112.204 120.32 112.435 120.378 112.609 120.494C112.84 120.609 113.013 120.667 113.187 120.783C113.476 120.957 113.013 121.766 112.666 121.651C112.493 121.593 112.262 121.535 112.146 121.419C111.973 121.361 111.799 121.246 111.626 121.13C111.337 120.957 111.684 120.089 112.03 120.262ZM112.609 118.99C112.782 119.048 113.013 119.163 113.187 119.221C113.418 119.337 113.591 119.395 113.823 119.51C114.112 119.684 113.649 120.552 113.302 120.378C113.129 120.32 112.898 120.262 112.724 120.147C112.493 120.031 112.32 119.973 112.146 119.857C111.857 119.742 112.262 118.874 112.609 118.99ZM113.245 117.717C113.476 117.775 113.649 117.891 113.938 118.007C114.17 118.064 114.343 118.238 114.517 118.296C114.863 118.469 114.401 119.337 114.054 119.221C113.823 119.163 113.649 119.048 113.418 118.99C113.187 118.874 113.013 118.816 112.782 118.701C112.435 118.469 112.898 117.602 113.245 117.717ZM113.881 116.329C114.054 116.387 114.285 116.503 114.517 116.618C114.748 116.734 114.979 116.85 115.153 116.965C115.499 117.139 114.979 118.064 114.632 117.949C114.401 117.891 114.17 117.775 113.996 117.659C113.765 117.544 113.591 117.428 113.36 117.312C113.071 117.139 113.476 116.213 113.881 116.329ZM114.459 114.999C114.69 115.114 114.921 115.172 115.153 115.288C115.384 115.404 115.615 115.519 115.846 115.635C116.193 115.808 115.731 116.792 115.384 116.618C115.153 116.56 114.921 116.445 114.69 116.329C114.459 116.213 114.227 116.098 114.054 115.982C113.649 115.808 114.112 114.825 114.459 114.999ZM115.153 113.553C115.384 113.61 115.615 113.726 115.846 113.842C116.078 113.958 116.309 114.073 116.54 114.189C116.887 114.42 116.424 115.404 116.078 115.23C115.846 115.172 115.615 115.057 115.384 114.941C115.153 114.825 114.921 114.709 114.69 114.594C114.285 114.42 114.748 113.437 115.153 113.553ZM115.788 112.164C116.02 112.222 116.251 112.338 116.482 112.454C116.656 112.569 116.945 112.685 117.118 112.801C117.465 112.974 117.003 113.958 116.656 113.842C116.424 113.726 116.193 113.668 115.962 113.553C115.731 113.437 115.499 113.321 115.268 113.206C114.979 112.974 115.384 111.991 115.788 112.164ZM116.424 110.718C116.656 110.834 116.887 110.892 117.118 111.008C117.35 111.123 117.581 111.239 117.812 111.355C118.159 111.528 117.696 112.511 117.35 112.396C117.118 112.338 116.887 112.222 116.656 112.107C116.424 111.991 116.193 111.875 115.962 111.759C115.557 111.586 116.078 110.603 116.424 110.718ZM117.06 109.33C117.292 109.388 117.523 109.504 117.754 109.619C117.985 109.735 118.217 109.851 118.39 109.966C118.737 110.14 118.275 111.181 117.928 111.008C117.696 110.892 117.465 110.834 117.234 110.718C117.003 110.603 116.771 110.487 116.54 110.371C116.251 110.14 116.656 109.157 117.06 109.33ZM117.696 107.942C117.928 108.058 118.159 108.115 118.39 108.231C118.621 108.347 118.853 108.462 119.084 108.578C119.431 108.752 118.968 109.735 118.621 109.619C118.39 109.504 118.159 109.446 117.928 109.33C117.696 109.214 117.465 109.099 117.234 108.983C116.887 108.752 117.292 107.768 117.696 107.942ZM118.332 106.554C118.564 106.669 118.795 106.727 119.026 106.843C119.257 106.958 119.489 107.016 119.662 107.19C120.009 107.363 119.604 108.289 119.2 108.173C118.968 108.115 118.737 108 118.506 107.884C118.275 107.768 118.043 107.653 117.87 107.537C117.523 107.363 117.928 106.438 118.332 106.554ZM118.911 105.281C119.142 105.339 119.373 105.455 119.604 105.57C119.778 105.686 120.009 105.802 120.24 105.859C120.587 106.033 120.24 106.958 119.836 106.843C119.604 106.727 119.373 106.669 119.142 106.554C118.911 106.438 118.679 106.322 118.506 106.207C118.101 106.033 118.564 105.107 118.911 105.281ZM119.431 104.008C119.662 104.066 119.836 104.124 120.009 104.24C120.125 104.298 120.182 104.298 120.24 104.356C120.414 104.76 120.529 105.108 120.587 105.512C120.529 105.57 120.472 105.57 120.414 105.57C120.182 105.512 119.951 105.397 119.778 105.281C119.547 105.165 119.315 105.107 119.142 104.992C118.737 104.76 119.084 103.835 119.431 104.008ZM112.955 123.56C113.129 123.733 112.551 124.311 112.32 124.311C112.204 124.254 112.146 124.254 112.03 124.196C111.915 124.138 111.857 124.08 111.799 124.022C111.626 123.907 112.088 123.212 112.377 123.27C112.493 123.328 112.551 123.328 112.666 123.386C112.724 123.444 112.898 123.502 112.955 123.56ZM113.707 122.46C113.938 122.576 113.418 123.27 113.129 123.212C113.071 123.212 112.955 123.155 112.84 123.097C112.724 123.039 112.609 122.981 112.551 122.923C112.377 122.75 112.84 122.056 113.129 122.113C113.245 122.113 113.36 122.171 113.476 122.229C113.534 122.345 113.591 122.403 113.707 122.46ZM114.459 121.361C114.748 121.535 114.17 122.287 113.881 122.171C113.765 122.171 113.649 122.113 113.534 122.056C113.418 121.998 113.302 121.94 113.245 121.882C113.013 121.709 113.476 120.957 113.765 121.072C113.881 121.072 113.996 121.13 114.112 121.188C114.285 121.246 114.343 121.304 114.459 121.361ZM115.21 120.147C115.499 120.32 114.979 121.072 114.69 121.014C114.574 120.957 114.459 120.957 114.285 120.899C114.17 120.841 114.054 120.783 113.996 120.725C113.765 120.552 114.227 119.8 114.517 119.857C114.632 119.915 114.806 119.915 114.921 119.973C114.979 120.031 115.095 120.089 115.21 120.147ZM115.962 118.932C116.193 119.106 115.731 119.915 115.384 119.857C115.268 119.8 115.153 119.8 114.979 119.742C114.863 119.684 114.748 119.626 114.632 119.51C114.401 119.337 114.806 118.527 115.153 118.585C115.268 118.643 115.442 118.701 115.557 118.758C115.673 118.816 115.846 118.874 115.962 118.932ZM116.656 117.659C116.945 117.833 116.424 118.701 116.135 118.585C116.02 118.527 115.904 118.469 115.731 118.469C115.615 118.411 115.499 118.296 115.384 118.238C115.095 118.007 115.557 117.197 115.904 117.312C116.02 117.37 116.193 117.428 116.367 117.486C116.424 117.486 116.54 117.602 116.656 117.659ZM117.35 116.329C117.696 116.56 117.234 117.428 116.829 117.312C116.714 117.255 116.54 117.255 116.424 117.139C116.309 117.081 116.135 116.965 116.02 116.908C115.731 116.734 116.193 115.808 116.54 115.924C116.714 115.982 116.829 116.04 116.945 116.098C117.118 116.156 117.292 116.271 117.35 116.329ZM118.043 114.941C118.332 115.172 117.928 116.098 117.581 115.982C117.465 115.924 117.292 115.866 117.118 115.808C116.945 115.751 116.829 115.635 116.714 115.577C116.424 115.346 116.829 114.42 117.234 114.536C117.35 114.536 117.465 114.594 117.639 114.652C117.812 114.767 117.928 114.825 118.043 114.941ZM118.679 113.495C119.026 113.726 118.564 114.652 118.217 114.536C118.101 114.536 117.928 114.42 117.812 114.362C117.696 114.305 117.523 114.189 117.407 114.131C117.118 113.9 117.523 112.974 117.87 113.09C117.985 113.148 118.159 113.148 118.275 113.263C118.448 113.321 118.564 113.437 118.679 113.495ZM119.315 112.049C119.662 112.28 119.257 113.206 118.853 113.09C118.737 113.032 118.564 112.974 118.448 112.916C118.332 112.858 118.159 112.743 118.043 112.685C117.754 112.454 118.101 111.528 118.506 111.644C118.621 111.644 118.795 111.702 118.911 111.759C119.084 111.933 119.2 111.991 119.315 112.049ZM119.547 111.702C119.373 111.644 119.257 111.586 119.084 111.528C118.911 111.47 118.795 111.412 118.679 111.297C118.39 111.065 118.795 110.198 119.142 110.256C119.257 110.313 119.431 110.371 119.547 110.429C119.662 110.487 119.662 110.487 119.72 110.545C119.72 110.892 119.604 111.297 119.547 111.702ZM119.836 110.198C119.778 110.14 119.72 110.14 119.72 110.14C119.604 110.082 119.431 110.024 119.315 109.908C119.026 109.735 119.431 108.809 119.778 108.925C119.893 108.983 120.009 108.983 120.125 109.041C120.067 109.388 119.951 109.793 119.836 110.198ZM120.24 108.694C120.125 108.636 120.009 108.578 120.009 108.52C119.72 108.289 120.125 107.421 120.472 107.537L120.529 107.595C120.414 107.884 120.298 108.289 120.24 108.694ZM120.529 107.19C120.356 107.074 120.414 106.611 120.645 106.38C120.645 106.611 120.645 106.901 120.529 107.19ZM108.215 121.361C107.983 121.304 107.868 122.171 108.099 122.287C108.157 122.345 108.272 122.403 108.33 122.46C108.446 122.518 108.504 122.518 108.619 122.518C108.851 122.576 109.024 121.766 108.793 121.593C108.677 121.535 108.619 121.477 108.504 121.419C108.388 121.419 108.33 121.419 108.215 121.361ZM108.504 120.089C108.215 120.031 108.099 120.899 108.272 121.072C108.388 121.13 108.446 121.188 108.562 121.246C108.619 121.304 108.793 121.304 108.851 121.361C109.082 121.419 109.313 120.552 109.082 120.378C108.966 120.32 108.851 120.262 108.793 120.205C108.735 120.147 108.619 120.147 108.504 120.089ZM108.908 118.816C108.677 118.701 108.446 119.626 108.677 119.8C108.735 119.858 108.851 119.915 108.966 119.973C109.082 120.031 109.197 120.089 109.313 120.089C109.602 120.147 109.891 119.337 109.602 119.106C109.487 119.048 109.371 118.99 109.255 118.932C109.14 118.874 109.024 118.816 108.908 118.816ZM109.313 117.486C109.024 117.428 108.793 118.296 109.082 118.469C109.197 118.527 109.255 118.585 109.429 118.643C109.544 118.701 109.66 118.758 109.776 118.758C110.065 118.816 110.354 118.007 110.065 117.775C109.949 117.717 109.833 117.659 109.718 117.602C109.602 117.544 109.429 117.486 109.313 117.486ZM109.718 116.098C109.371 116.04 109.14 116.907 109.429 117.139C109.544 117.197 109.602 117.255 109.776 117.312C109.891 117.37 110.007 117.428 110.123 117.428C110.469 117.486 110.759 116.618 110.469 116.445C110.354 116.387 110.238 116.271 110.123 116.271C110.007 116.213 109.891 116.156 109.718 116.098ZM110.238 114.709C109.891 114.594 109.602 115.519 109.891 115.751C110.007 115.808 110.123 115.924 110.238 115.924C110.412 115.982 110.527 116.04 110.643 116.098C110.99 116.156 111.279 115.288 110.99 115.057C110.874 114.999 110.701 114.883 110.585 114.825C110.527 114.825 110.354 114.767 110.238 114.709ZM110.759 113.263C110.412 113.148 110.065 114.131 110.354 114.305C110.469 114.42 110.643 114.478 110.759 114.536C110.874 114.594 111.048 114.652 111.163 114.709C111.51 114.767 111.915 113.842 111.568 113.668C111.51 113.61 111.337 113.495 111.163 113.437C111.048 113.379 110.874 113.321 110.759 113.263ZM111.395 111.875C111.048 111.759 110.643 112.685 110.932 112.916C111.048 112.974 111.163 113.09 111.279 113.148C111.452 113.206 111.568 113.263 111.684 113.263C112.03 113.379 112.435 112.454 112.146 112.222C112.03 112.164 111.915 112.049 111.741 111.991C111.684 111.933 111.568 111.875 111.395 111.875ZM112.03 110.487C111.684 110.371 111.279 111.297 111.568 111.528C111.684 111.586 111.799 111.702 111.973 111.759C112.088 111.817 112.262 111.875 112.435 111.933C112.782 111.991 113.187 111.065 112.898 110.892C112.782 110.834 112.609 110.776 112.493 110.66C112.377 110.545 112.204 110.487 112.03 110.487ZM112.724 109.041C112.377 108.925 111.973 109.851 112.262 110.082C112.377 110.14 112.551 110.256 112.666 110.313C112.84 110.371 112.956 110.429 113.129 110.487C113.476 110.545 113.938 109.619 113.591 109.446C113.534 109.388 113.36 109.272 113.187 109.214C113.013 109.099 112.898 109.099 112.724 109.041ZM113.36 107.595C113.302 107.595 113.245 107.595 113.187 107.653L113.071 107.826C112.956 108 112.898 108.173 112.782 108.347C112.724 108.462 112.782 108.578 112.898 108.636C113.013 108.694 113.129 108.809 113.245 108.867C113.418 108.925 113.534 108.983 113.707 108.983C114.054 109.099 114.459 108.115 114.17 107.942C114.054 107.826 113.938 107.768 113.765 107.71C113.649 107.71 113.476 107.653 113.36 107.595ZM113.476 107.132C113.476 107.19 113.534 107.19 113.534 107.248C113.649 107.306 113.765 107.421 113.938 107.479C114.054 107.537 114.228 107.595 114.343 107.653C114.69 107.71 115.095 106.843 114.806 106.669C114.69 106.554 114.574 106.496 114.401 106.438C114.285 106.38 114.17 106.322 114.054 106.322C113.881 106.554 113.649 106.843 113.476 107.132ZM114.343 105.975C114.401 106.033 114.459 106.091 114.574 106.091C114.748 106.149 114.863 106.207 114.979 106.264C115.326 106.322 115.789 105.512 115.442 105.281C115.384 105.223 115.21 105.165 115.095 105.107C114.863 105.339 114.574 105.628 114.343 105.975ZM115.442 104.876C115.499 104.876 115.557 104.934 115.673 104.934C115.904 104.992 116.193 104.587 116.251 104.298C115.962 104.471 115.673 104.645 115.442 104.876ZM108.908 125.873C108.851 125.815 108.793 125.815 108.735 125.815C108.677 125.758 108.619 125.758 108.562 125.758C108.504 125.7 108.562 126.22 108.619 126.22C108.677 126.278 108.735 126.278 108.735 126.278C108.735 126.278 108.793 126.278 108.851 126.336C108.851 126.278 108.966 125.931 108.908 125.873ZM109.14 125.989C109.198 126.047 109.255 126.047 109.313 126.047C109.371 126.047 109.429 126.105 109.487 126.105C109.544 126.162 109.198 126.452 109.14 126.394C109.082 126.394 109.082 126.394 109.024 126.394C108.966 126.336 108.966 126.336 108.908 126.336C108.851 126.336 109.024 125.989 109.14 125.989ZM110.007 126.394C110.123 126.452 109.602 126.683 109.544 126.625C109.487 126.625 109.487 126.625 109.429 126.625L109.371 126.567C109.313 126.509 109.66 126.278 109.776 126.278C109.833 126.278 109.891 126.336 109.891 126.336C109.949 126.336 110.007 126.394 110.007 126.394ZM107.983 125.468C107.926 125.41 108.099 125.931 108.157 125.989C108.157 125.989 108.215 125.989 108.215 126.047C108.272 126.047 108.272 126.105 108.33 126.105C108.446 126.105 108.33 125.642 108.215 125.584C108.157 125.584 108.157 125.526 108.041 125.468H107.983ZM109.14 125.237C109.024 125.179 108.966 125.121 108.851 125.121C108.735 125.063 108.677 125.006 108.619 125.006C108.446 125.006 108.446 125.526 108.619 125.584C108.677 125.584 108.735 125.642 108.793 125.7C108.851 125.7 108.908 125.758 108.966 125.758C109.024 125.7 109.255 125.295 109.14 125.237ZM109.429 125.353C109.544 125.41 109.602 125.41 109.718 125.468L109.949 125.584C110.065 125.642 109.66 125.989 109.544 125.989C109.429 125.931 109.371 125.931 109.313 125.873C109.255 125.815 109.197 125.815 109.14 125.758C109.082 125.758 109.313 125.295 109.429 125.353ZM110.701 125.931C110.816 126.047 110.354 126.278 110.18 126.278C110.123 126.278 110.065 126.22 110.007 126.22C109.949 126.162 109.891 126.162 109.833 126.162C109.776 126.105 110.18 125.758 110.296 125.815C110.354 125.815 110.412 125.873 110.469 125.873C110.585 125.873 110.643 125.931 110.701 125.931ZM107.868 124.659C107.752 124.601 107.868 125.179 107.983 125.237C108.041 125.295 108.099 125.295 108.099 125.353C108.157 125.353 108.215 125.41 108.215 125.41C108.33 125.41 108.33 124.948 108.215 124.832C108.157 124.774 108.099 124.774 108.041 124.716C107.983 124.659 107.926 124.659 107.868 124.659ZM109.429 124.427C109.313 124.369 109.197 124.311 109.082 124.254C108.966 124.196 108.851 124.138 108.735 124.138C108.562 124.08 108.504 124.659 108.619 124.774C108.735 124.832 108.793 124.89 108.851 124.89C108.966 124.948 109.024 124.948 109.14 125.006C109.371 125.063 109.602 124.543 109.429 124.427ZM109.833 124.601C109.949 124.659 110.065 124.716 110.18 124.716C110.296 124.774 110.412 124.832 110.469 124.89C110.643 125.006 110.18 125.468 110.065 125.41C109.949 125.353 109.891 125.353 109.776 125.295C109.66 125.237 109.602 125.179 109.544 125.179C109.429 125.121 109.66 124.543 109.833 124.601ZM111.337 125.295C111.51 125.41 110.99 125.815 110.816 125.758C110.758 125.758 110.701 125.7 110.643 125.7C110.585 125.7 110.527 125.642 110.469 125.642C110.354 125.526 110.701 125.121 110.932 125.179C111.048 125.237 111.048 125.237 111.105 125.237C111.221 125.237 111.337 125.295 111.337 125.295ZM107.926 123.733C107.752 123.733 107.81 124.311 107.926 124.427C107.983 124.485 108.041 124.485 108.099 124.543C108.157 124.601 108.215 124.601 108.272 124.601C108.388 124.601 108.504 124.022 108.33 123.907C108.272 123.849 108.215 123.849 108.099 123.791C108.041 123.733 107.983 123.733 107.926 123.733ZM109.833 123.444C109.718 123.386 109.602 123.328 109.429 123.27C109.255 123.212 109.14 123.155 109.024 123.097C108.793 122.981 108.677 123.733 108.851 123.849C108.966 123.907 109.082 123.964 109.198 124.022C109.313 124.08 109.429 124.138 109.544 124.196C109.718 124.254 110.007 123.56 109.833 123.444ZM110.296 123.675C110.469 123.733 110.585 123.791 110.701 123.849C110.816 123.907 110.99 123.964 111.105 124.022C111.279 124.138 110.816 124.716 110.643 124.659C110.527 124.601 110.412 124.601 110.296 124.543C110.18 124.485 110.123 124.427 109.949 124.369C109.776 124.254 110.065 123.617 110.296 123.675ZM112.088 124.485C112.262 124.601 111.741 125.121 111.51 125.063C111.395 125.006 111.337 125.006 111.221 124.948C111.163 124.89 111.105 124.89 111.048 124.832C110.932 124.716 111.337 124.196 111.568 124.254C111.684 124.254 111.741 124.311 111.857 124.369C111.973 124.427 112.03 124.485 112.088 124.485ZM108.041 122.634C107.868 122.576 107.81 123.328 107.983 123.444C108.041 123.502 108.099 123.56 108.215 123.56C108.33 123.56 108.33 123.617 108.446 123.617C108.619 123.675 108.735 122.981 108.562 122.808C108.446 122.75 108.388 122.75 108.33 122.692C108.215 122.692 108.099 122.634 108.041 122.634ZM110.296 122.345C110.18 122.229 110.007 122.171 109.834 122.113C109.66 122.056 109.487 121.998 109.371 121.94C109.14 121.824 108.908 122.692 109.14 122.808C109.255 122.865 109.371 122.981 109.544 123.039C109.66 123.097 109.834 123.155 109.949 123.212C110.18 123.27 110.527 122.46 110.296 122.345ZM110.816 121.13C110.643 121.014 110.527 120.957 110.296 120.841C110.123 120.783 109.949 120.725 109.776 120.609C109.487 120.494 109.255 121.361 109.487 121.535C109.66 121.593 109.776 121.709 109.949 121.766C110.123 121.824 110.296 121.882 110.469 121.998C110.701 122.113 111.048 121.304 110.816 121.13ZM111.337 119.915C111.163 119.8 110.99 119.742 110.759 119.626C110.585 119.568 110.354 119.453 110.18 119.395C109.834 119.279 109.544 120.205 109.834 120.32C110.007 120.378 110.18 120.494 110.354 120.609C110.527 120.667 110.701 120.783 110.932 120.841C111.221 120.899 111.626 120.089 111.337 119.915ZM111.915 118.701C111.684 118.585 111.51 118.469 111.337 118.354C111.105 118.238 110.932 118.18 110.701 118.122C110.354 118.007 110.065 118.932 110.354 119.106C110.585 119.221 110.759 119.279 110.932 119.395C111.163 119.51 111.337 119.568 111.568 119.626C111.799 119.684 112.204 118.816 111.915 118.701ZM112.493 117.37C112.262 117.255 112.088 117.139 111.857 117.081C111.684 116.965 111.452 116.907 111.221 116.85C110.874 116.734 110.527 117.659 110.816 117.833C111.048 117.949 111.221 118.064 111.452 118.122C111.684 118.238 111.857 118.296 112.088 118.354C112.377 118.469 112.782 117.544 112.493 117.37ZM113.071 115.982C112.898 115.866 112.667 115.751 112.435 115.693C112.204 115.577 111.973 115.519 111.741 115.404C111.337 115.288 110.99 116.213 111.337 116.445C111.51 116.56 111.741 116.618 111.973 116.734C112.146 116.85 112.377 116.908 112.609 117.023C113.013 117.139 113.418 116.213 113.071 115.982ZM113.707 114.652C113.476 114.536 113.245 114.42 113.013 114.305C112.782 114.189 112.551 114.073 112.32 114.015C111.973 113.842 111.568 114.825 111.915 115.057C112.088 115.172 112.377 115.288 112.551 115.404C112.782 115.519 113.013 115.635 113.245 115.693C113.592 115.808 114.054 114.825 113.707 114.652ZM114.343 113.206C114.112 113.09 113.881 112.974 113.649 112.858C113.418 112.743 113.187 112.685 112.956 112.569C112.551 112.396 112.088 113.437 112.493 113.61C112.667 113.726 112.956 113.842 113.129 113.957C113.36 114.073 113.592 114.131 113.823 114.247C114.228 114.42 114.69 113.437 114.343 113.206ZM114.979 111.759C114.748 111.644 114.517 111.528 114.343 111.412C114.112 111.297 113.881 111.239 113.592 111.123C113.245 111.008 112.782 111.991 113.129 112.164C113.36 112.28 113.592 112.396 113.823 112.511C113.996 112.627 114.285 112.743 114.517 112.801C114.921 112.974 115.326 111.991 114.979 111.759ZM115.615 110.371C115.384 110.256 115.153 110.14 114.979 110.024C114.748 109.908 114.517 109.793 114.285 109.735C113.938 109.619 113.418 110.603 113.765 110.776C113.996 110.892 114.228 111.008 114.401 111.123C114.632 111.181 114.864 111.297 115.095 111.412C115.557 111.586 116.02 110.545 115.615 110.371ZM116.309 108.925C116.078 108.809 115.846 108.694 115.615 108.578C115.384 108.462 115.153 108.405 114.921 108.289C114.517 108.173 114.112 109.157 114.459 109.33C114.69 109.446 114.921 109.561 115.153 109.677C115.384 109.793 115.615 109.851 115.789 109.966C116.193 110.14 116.656 109.157 116.309 108.925ZM116.945 107.537C116.771 107.421 116.482 107.306 116.251 107.19C116.02 107.074 115.789 106.958 115.557 106.901C115.21 106.785 114.748 107.71 115.095 107.942L115.789 108.289C116.02 108.405 116.251 108.462 116.482 108.578C116.829 108.694 117.292 107.768 116.945 107.537ZM117.523 106.207C117.292 106.091 117.061 105.975 116.887 105.917C116.656 105.802 116.425 105.686 116.193 105.628C115.846 105.512 115.384 106.38 115.731 106.611C115.962 106.727 116.193 106.843 116.425 106.958C116.656 107.074 116.887 107.19 117.061 107.248C117.465 107.363 117.87 106.38 117.523 106.207Z" fill="#FFC726"/>
<path fill-rule="evenodd" clip-rule="evenodd" d="M194.981 113.321C193.073 112.337 190.529 109.272 188.62 106.842C186.886 104.586 185.151 103.429 183.763 102.735C182.664 102.157 181.739 101.983 180.525 101.868C183.532 107.478 178.732 116.502 180.409 126.277C173.701 111.412 183.879 107.305 178.674 100.075L179.484 99.4961C182.202 102.562 187.001 100.653 191.338 107.305C192.842 109.561 193.362 111.238 194.981 113.321ZM186.076 119.105C186.192 118.931 186.25 118.816 186.307 118.7C186.597 118.179 186.886 117.717 187.001 117.08C187.348 116.039 187.348 114.882 187.059 113.841C187.001 113.726 187.001 113.668 186.943 113.61C186.597 113.147 186.365 112.627 186.192 112.106C186.192 112.048 186.076 111.875 186.018 111.643C185.96 111.932 185.903 112.222 185.787 112.511C185.556 113.031 185.324 113.552 185.093 113.899C184.804 114.94 184.804 115.981 185.093 117.023C185.267 117.601 185.498 118.122 185.787 118.642C185.903 118.816 186.018 118.931 186.076 119.105ZM191.223 123.154C191.454 123.27 191.57 123.385 191.743 123.501C192.495 124.022 193.073 124.716 193.42 125.583C193.593 126.046 193.709 126.509 193.825 126.972C193.825 127.087 193.825 127.145 193.825 127.261C193.767 127.261 193.651 127.203 193.593 127.145C193.131 126.972 192.668 126.74 192.263 126.451C191.974 126.278 191.743 126.046 191.454 125.815C191.512 125.352 191.512 124.774 191.454 124.137C191.454 123.79 191.338 123.501 191.223 123.154ZM191.107 126.104C190.991 126.046 190.933 125.988 190.876 125.93C190.471 125.641 190.066 125.294 189.719 124.947C189.141 124.369 188.794 123.675 188.62 122.865C188.794 122.402 188.967 121.939 189.025 121.303C189.43 121.939 190.008 122.46 190.644 122.865C190.876 123.27 190.991 123.79 191.049 124.253C191.165 124.774 191.165 125.294 191.107 125.815C191.107 125.873 191.107 125.988 191.107 126.104ZM192.784 123.328C192.668 123.27 192.553 123.212 192.437 123.212C191.917 123.038 191.396 122.865 190.991 122.576C190.182 122.113 189.546 121.419 189.083 120.667C189.141 119.915 189.025 119.221 188.794 118.584C189.025 118.758 189.199 118.931 189.488 119.105C189.95 119.394 190.413 119.626 190.818 119.799C191.396 120.262 191.859 120.84 192.148 121.477C192.437 121.997 192.553 122.46 192.668 122.98C192.726 123.096 192.784 123.212 192.784 123.328ZM188.1 122.923C188.042 122.807 187.927 122.749 187.869 122.633C187.522 122.228 187.175 121.766 187.001 121.245C186.712 120.609 186.539 119.915 186.481 119.278C186.77 118.7 187.175 118.064 187.406 117.254C187.464 117.138 187.522 116.965 187.522 116.849C187.637 117.023 187.753 117.254 187.869 117.427V117.485C187.984 117.659 188.1 117.832 188.216 118.006C188.62 118.931 188.794 119.915 188.678 120.956C188.62 121.534 188.505 121.997 188.273 122.576C188.216 122.633 188.158 122.807 188.1 122.923ZM191.627 119.683C191.512 119.626 191.338 119.568 191.223 119.51C190.702 119.278 190.182 119.047 189.719 118.7C188.794 118.064 188.158 117.312 187.753 116.271C187.695 116.155 187.637 116.039 187.637 115.924C187.695 115.403 187.637 114.767 187.522 114.246L187.637 114.362C187.811 114.477 187.927 114.593 188.042 114.709C188.678 115.172 189.314 115.461 189.835 115.692C190.355 116.213 190.76 116.791 191.049 117.485C191.28 118.006 191.396 118.584 191.512 119.105C191.57 119.394 191.627 119.51 191.627 119.683ZM181.161 102.33C181.219 102.446 181.219 102.504 181.277 102.562C181.45 103.025 181.624 103.487 181.913 103.892C182.375 104.644 183.069 105.223 183.937 105.627C184.399 105.859 184.862 105.975 185.324 106.032C185.44 106.032 185.498 106.09 185.613 106.09C185.556 105.975 185.556 105.917 185.498 105.801C185.324 105.338 185.151 104.876 184.804 104.471C184.341 103.719 183.59 103.14 182.78 102.735C182.317 102.504 181.855 102.446 181.334 102.33C181.334 102.33 181.277 102.33 181.161 102.33ZM183.358 109.734C183.416 109.619 183.416 109.561 183.474 109.445C183.705 108.925 183.879 108.462 183.937 107.941C184.052 107.305 183.994 106.611 183.879 105.975H183.821C183.185 105.685 182.607 105.28 182.202 104.76C182.144 104.933 182.086 105.165 182.086 105.338C181.913 106.264 182.028 107.189 182.433 108.115C182.607 108.577 182.896 109.04 183.185 109.445C183.185 109.619 183.243 109.676 183.358 109.734ZM188.389 110.776C188.331 110.66 188.331 110.544 188.331 110.428C188.216 109.908 188.1 109.387 187.869 108.867C187.464 107.941 186.828 107.189 186.018 106.611C185.556 106.495 184.977 106.437 184.341 106.206C184.457 106.727 184.515 107.189 184.746 107.652C185.151 108.577 185.729 109.329 186.596 109.908C187.059 110.197 187.522 110.428 187.984 110.602C188.1 110.718 188.273 110.718 188.389 110.776ZM184.457 114.246C184.515 114.13 184.573 114.015 184.688 113.899C184.977 113.436 185.209 112.974 185.44 112.395C185.729 111.47 185.787 110.544 185.613 109.619C185.151 109.156 184.746 108.635 184.457 107.999C184.457 107.941 184.341 107.768 184.283 107.594C184.283 107.71 184.283 107.826 184.226 107.941C184.11 108.693 183.879 109.329 183.647 109.792C183.474 110.602 183.474 111.412 183.647 112.222C183.763 112.742 183.994 113.263 184.226 113.783C184.341 113.957 184.399 114.13 184.457 114.246ZM190.297 115.519C190.239 115.345 190.239 115.229 190.239 115.056C190.124 114.477 190.066 113.957 189.835 113.378C189.546 112.569 189.083 111.817 188.447 111.238C187.869 111.007 187.117 110.776 186.365 110.255C186.307 110.197 186.192 110.139 186.134 110.081C186.134 110.139 186.134 110.197 186.134 110.255C186.192 110.833 186.307 111.354 186.481 111.932C186.828 112.916 187.522 113.783 188.331 114.42C188.794 114.767 189.314 114.998 189.777 115.287C190.008 115.403 190.124 115.461 190.297 115.519Z" fill="#FFC726"/>
<path fill-rule="evenodd" clip-rule="evenodd" d="M132.281 91.5148C132.165 91.5727 132.107 91.5734 132.049 91.6312L130.487 93.1341C130.429 93.2498 130.371 93.3076 130.371 93.4233V121.766H130.428V121.823V121.997H130.487C130.487 122.056 130.487 122.055 130.545 122.055H130.602H130.66C133.899 123.211 137.082 124.542 140.09 126.104C143.098 127.665 145.931 129.459 148.708 131.483C148.766 131.541 148.823 131.599 148.939 131.599H150.5H152.062C152.177 131.599 152.235 131.542 152.293 131.484C155.07 129.459 157.903 127.665 160.911 126.104C163.919 124.542 167.102 123.211 170.341 122.055H170.398H170.456C170.514 122.055 170.514 122.055 170.514 121.997H170.573V121.823V121.765H170.63V93.4222C170.63 93.3065 170.572 93.2487 170.514 93.133L168.952 91.63C168.894 91.5721 168.836 91.5715 168.72 91.5137H168.663L168.547 91.5735H168.432C165.134 92.7304 162.011 94.0603 158.945 95.6218C155.959 97.1723 153.145 98.9363 150.5 100.942C147.856 98.9363 145.042 97.1724 142.056 95.6218C138.99 94.0602 135.866 92.7304 132.569 91.5735H132.454L132.338 91.5137L132.281 91.5148Z" fill="#DC241F"/>
<path fill-rule="evenodd" clip-rule="evenodd" d="M134.305 112.453C136.965 113.436 139.511 114.593 141.998 115.924C144.369 117.138 146.683 118.527 148.881 120.031V120.898C146.567 119.279 144.196 117.833 141.709 116.56C139.279 115.287 136.85 114.188 134.305 113.263V112.453Z" fill="black"/>
<path fill-rule="evenodd" clip-rule="evenodd" d="M132.338 117.543V120.261C135.635 121.418 138.759 122.807 141.824 124.368C144.832 125.93 147.782 127.723 150.501 129.748C153.219 127.723 156.169 125.93 159.177 124.368C162.243 122.807 165.366 121.418 168.663 120.261V117.543C165.424 118.7 162.243 120.03 159.177 121.65C156.169 123.211 153.219 125.005 150.501 127.029C147.782 125.005 144.832 123.211 141.824 121.65C138.759 120.03 135.577 118.7 132.338 117.543Z" fill="#FFC726"/>
<path fill-rule="evenodd" clip-rule="evenodd" d="M134.305 107.537C136.965 108.52 139.511 109.677 141.998 111.008C144.369 112.222 146.683 113.611 148.881 115.115V115.982C146.567 114.363 144.196 112.917 141.709 111.644C139.279 110.371 136.85 109.272 134.305 108.347V107.537Z" fill="black"/>
<path fill-rule="evenodd" clip-rule="evenodd" d="M134.305 102.621C136.965 103.604 139.511 104.761 141.998 106.092C144.369 107.306 146.683 108.695 148.881 110.199V111.066C146.567 109.447 144.196 108 141.709 106.728C139.279 105.455 136.85 104.356 134.305 103.431V102.621Z" fill="black"/>
<path fill-rule="evenodd" clip-rule="evenodd" d="M134.305 97.7031C136.965 98.6865 139.511 99.8433 141.998 101.174C144.369 102.388 146.683 103.777 148.881 105.281V106.148C146.567 104.529 144.196 103.083 141.709 101.81C139.279 100.537 136.85 99.4384 134.305 98.5129V97.7031Z" fill="black"/>
<path fill-rule="evenodd" clip-rule="evenodd" d="M166.696 112.453C164.035 113.436 161.49 114.593 159.002 115.924C156.631 117.138 154.317 118.527 152.119 120.031V120.898C154.433 119.279 156.804 117.833 159.292 116.56C161.721 115.287 164.151 114.188 166.696 113.263V112.453Z" fill="black"/>
<path fill-rule="evenodd" clip-rule="evenodd" d="M166.696 107.537C164.035 108.52 161.49 109.677 159.002 111.008C156.631 112.222 154.317 113.611 152.119 115.115V115.982C154.433 114.363 156.804 112.917 159.292 111.644C161.721 110.371 164.151 109.272 166.696 108.347V107.537Z" fill="black"/>
<path fill-rule="evenodd" clip-rule="evenodd" d="M166.696 102.621C164.035 103.604 161.49 104.761 159.002 106.092C156.631 107.306 154.317 108.695 152.119 110.199V111.066C154.433 109.447 156.804 108 159.292 106.728C161.721 105.455 164.151 104.356 166.696 103.431V102.621Z" fill="black"/>
<path fill-rule="evenodd" clip-rule="evenodd" d="M166.696 97.7031C164.035 98.6865 161.49 99.8433 159.002 101.174C156.631 102.388 154.317 103.777 152.119 105.281V106.148C154.433 104.529 156.804 103.083 159.292 101.81C161.721 100.537 164.151 99.4384 166.696 98.5129V97.7031Z" fill="black"/>
<path fill-rule="evenodd" clip-rule="evenodd" d="M150.5 82.0273L148.822 97.1244L150.5 98.2813L152.177 97.1243" fill="white"/>
<path fill-rule="evenodd" clip-rule="evenodd" d="M145.584 83.9941L143.965 94.2324L141.709 93.0755L145.584 83.9941Z" fill="white"/>
<path fill-rule="evenodd" clip-rule="evenodd" d="M133.957 89.7794L143.559 77.748L137.601 91.1677" fill="white"/>
<path fill-rule="evenodd" clip-rule="evenodd" d="M167.043 89.7794L157.441 77.748L163.399 91.1677" fill="white"/>
<path fill-rule="evenodd" clip-rule="evenodd" d="M155.416 83.9941L157.036 94.2324L159.291 93.0755L155.416 83.9941Z" fill="white"/>
<path d="M158.136 72.7057L145.782 81.6815L150.501 67.1582L155.22 81.6815L142.865 72.7057" fill="white"/>
<path fill-rule="evenodd" clip-rule="evenodd" d="M111.456 140.912C109.662 141.086 107.869 141.144 106.133 141.144H105.266L106.018 141.491C107.638 142.185 109.257 143.053 110.761 143.921L110.819 144.152H110.877C111.745 143.804 112.612 143.689 113.538 143.689C114.405 143.689 114.232 144.441 115.273 144.672C116.661 144.904 118.165 144.961 119.554 145.251L135.286 148.664L135.46 148.49L135.518 148.432L140.492 148.317L119.958 143.632C118.512 143.285 117.182 142.705 115.736 142.358C114.637 142.011 114.637 142.938 113.769 142.475C112.902 142.07 112.207 141.548 111.513 140.97V140.912L111.456 140.912ZM164.555 153.638L163.051 153.754C162.646 153.754 162.299 153.812 161.894 153.87C161.605 153.985 161.258 154.043 160.969 154.159L194.981 161.504C195.213 161.562 195.443 160.637 195.212 160.579L164.555 153.638ZM108.265 166.376C107.751 166.359 107.58 166.934 107.985 167.289L112.207 171.165C112.322 171.281 112.439 171.28 112.612 171.338C114.868 171.569 118.107 172.437 120.19 173.479C126.437 176.602 134.419 182.56 143.384 183.37L145.236 184.99H155.821L157.73 183.37C169.877 182.271 179.132 171.512 189.197 171.512H193.593V171.686C193.593 171.859 193.65 172.032 193.766 172.148L193.997 172.322C194.055 172.437 194.287 172.38 194.403 172.322L195.733 171.454H197.179C197.583 171.454 197.526 170.297 197.179 170.297L195.733 170.47L194.344 168.215C194.286 168.042 194.113 167.983 193.94 168.099L193.824 168.157C193.651 168.214 193.593 168.331 193.593 168.504V169.198H115.273L114.984 168.562C114.868 168.273 114.695 168.099 114.405 167.984L108.506 166.421C108.419 166.392 108.339 166.378 108.265 166.376ZM115.505 169.834H193.593V170.47H189.197C177.57 170.47 169.067 179.842 156.862 180.941L155.069 182.56H146.104L144.252 180.941C133.898 180.015 125.684 173.363 115.967 170.529C115.793 170.529 115.793 170.471 115.677 170.297L115.505 169.834Z" fill="#FFC726"/>
<path d="M139.162 157.224L139.741 155.778H139.914C140.377 155.778 140.724 155.952 141.013 156.357C141.302 156.761 141.476 156.993 141.996 157.166C142.112 157.224 142.112 157.166 142.054 157.051C141.823 156.761 141.649 156.414 141.765 156.01C141.881 155.431 142.17 155.142 142.633 154.853L142.69 154.795L143.616 154.737C144.079 154.679 144.715 154.853 144.715 155.489V156.704C144.715 157.282 144.426 157.629 143.847 157.803C143.732 157.86 143.674 157.86 143.5 157.86C143.327 157.86 143.211 157.918 143.095 157.918L140.724 157.976C140.435 157.976 140.088 157.976 139.856 157.803C139.741 157.745 139.625 157.687 139.509 157.571L139.162 157.224Z" stroke="white" stroke-width="1.44608"/>
<path d="M189.714 146.465C189.656 146.523 189.656 146.639 189.656 146.696C189.656 146.928 189.599 147.217 189.541 147.449C189.483 147.68 189.367 147.911 189.252 148.142L188.152 150.514V150.63L183.121 150.688V151.613H186.591H192.837C192.953 151.44 192.953 150.861 192.837 150.688H191.218L190.87 146.754C190.87 146.696 190.871 146.582 190.813 146.524C190.755 146.466 190.639 146.465 190.581 146.465H189.83H189.772L189.714 146.465ZM154.836 147.043C155.01 147.622 155.241 148.259 155.472 148.837H157.033H157.092V148.895L157.381 149.589H162.009H163.396H178.783C178.898 149.589 178.955 149.647 178.955 149.763V151.498L179.939 152.366L181.211 151.671L182.657 151.787L182.773 151.671V150.688L182.657 150.225C182.657 150.109 182.542 150.052 182.542 149.994C182.484 149.994 182.483 149.994 182.483 149.935C182.426 149.935 182.426 149.877 182.426 149.877H182.368C181.905 149.646 181.559 149.357 181.096 149.068C180.402 148.489 179.997 148.316 179.072 148.316L173.171 148.258V148.316H172.824L172.304 147.738H163.455H161.314L161.256 147.68C161.198 147.622 161.141 147.506 161.141 147.391C160.967 147.159 160.735 147.043 160.446 147.043L154.836 147.043ZM154.951 148.374L135.748 148.779L133.146 151.381L133.897 153.406C134.012 153.695 134.129 153.927 134.302 154.158C134.592 154.447 134.938 154.678 135.228 154.794H135.285H135.343H135.402H135.459H135.517C135.575 154.794 135.633 154.794 135.691 154.852H135.748H135.806H135.98H136.095H136.21H136.327H136.442L142.343 154.274L143.441 154.158C144.077 154.1 144.887 154.332 145.061 155.084L146.449 154.852L147.317 154.274C147.374 154.216 147.374 154.216 147.432 154.216C150.671 153.927 153.968 153.696 157.265 153.522V149.878L157.033 149.242H155.472H155.357V149.184L154.951 148.374ZM157.496 150.052V153.522L157.843 153.637C159.058 153.927 159.521 154.042 160.735 153.637C161.082 153.522 161.43 153.406 161.835 153.348C162.239 153.232 162.644 153.233 163.049 153.233L171.204 152.944C171.551 152.944 171.957 152.886 172.246 152.712C172.477 152.539 172.651 152.308 172.767 152.018L172.94 151.555H178.551V150.052H162.355H157.496ZM132.856 151.498L130.774 152.018L131.41 155.836L132.104 155.604C132.798 155.373 133.55 155.547 134.013 156.067L134.302 156.357L134.475 156.587L134.592 156.703C134.881 157.05 134.996 157.455 134.764 157.918L132.74 163.008C132.509 163.587 132.799 164.28 133.377 164.57L134.302 164.974C134.939 165.205 135.632 164.859 135.864 164.28L139.566 154.968L136.5 155.257H136.442H135.921H135.748H135.632L135.517 155.2L135.402 155.141H135.285H135.228L135.17 155.083H135.112C134.997 155.025 134.939 155.026 134.823 154.968V154.91L134.592 154.794C134.534 154.736 134.533 154.736 134.475 154.736L134.418 154.678L134.36 154.62V154.561L134.302 154.503L134.245 154.446C134.187 154.446 134.186 154.388 134.186 154.33L134.128 154.272H134.071C134.071 154.214 134.013 154.214 133.956 154.156C133.956 154.099 133.954 154.099 133.897 154.041L133.839 153.983V153.925V153.867V153.809L133.782 153.751L133.724 153.692L133.666 153.577L133.608 153.519V153.577L132.856 151.498ZM130.369 152.076L126.551 152.944C126.089 153.059 125.626 153.117 125.163 153.059C124.7 152.943 124.296 152.828 123.949 152.597L112.727 155.141C112.38 155.199 111.976 155.373 111.744 155.662C111.571 155.951 111.57 156.298 111.57 156.587L112.496 162.892C112.496 163.065 112.612 163.182 112.612 163.298C112.728 163.471 112.9 163.644 113.074 163.76C113.247 163.875 113.537 163.876 113.769 163.876C113.942 163.818 114.174 163.76 114.29 163.702C117.008 162.256 119.784 160.868 122.618 159.538C125.336 158.265 128.113 157.108 130.947 156.009L130.369 152.076ZM152.117 154.216L147.489 154.621L146.796 155.083V155.141C146.912 155.835 147.143 156.529 147.259 157.166C147.317 157.397 147.374 157.571 147.489 157.803C147.779 158.728 148.069 159.596 148.473 160.463C150.382 164.917 153.505 168.561 157.496 171.164L160.504 166.19C159.983 165.843 159.463 165.553 159.058 165.148C158.479 164.685 157.959 164.222 157.439 163.76C154.894 161.273 153.101 158.033 152.233 154.563L152.117 154.216ZM141.822 154.737L139.913 154.911L139.74 155.315C140.318 155.315 140.897 155.431 141.186 155.836C141.244 155.431 141.475 155.026 141.822 154.737ZM146.333 155.257L145.061 155.489V156.357L146.564 156.24L146.391 155.373L146.333 155.257Z" stroke="white" stroke-width="1.44608"/>
<path d="M139.162 157.224L139.741 155.778H139.914C140.377 155.778 140.724 155.952 141.013 156.357C141.302 156.761 141.476 156.993 141.996 157.166C142.112 157.224 142.112 157.166 142.054 157.051C141.823 156.761 141.649 156.414 141.765 156.01C141.881 155.431 142.17 155.142 142.633 154.853L142.69 154.795L143.616 154.737C144.079 154.679 144.715 154.853 144.715 155.489V156.704C144.715 157.282 144.426 157.629 143.847 157.803C143.732 157.86 143.674 157.86 143.5 157.86C143.327 157.86 143.211 157.918 143.095 157.918L140.724 157.976C140.435 157.976 140.088 157.976 139.856 157.803C139.741 157.745 139.625 157.687 139.509 157.571L139.162 157.224Z" fill="black"/>
<path d="M189.714 146.465C189.656 146.523 189.656 146.639 189.656 146.696C189.656 146.928 189.599 147.217 189.541 147.449C189.483 147.68 189.367 147.911 189.252 148.142L188.152 150.514V150.63L183.121 150.688V151.613H186.591H192.837C192.953 151.44 192.953 150.861 192.837 150.688H191.218L190.87 146.754C190.87 146.696 190.871 146.582 190.813 146.524C190.755 146.466 190.639 146.465 190.581 146.465H189.83H189.772L189.714 146.465ZM154.836 147.043C155.01 147.622 155.241 148.259 155.472 148.837H157.033H157.092V148.895L157.381 149.589H162.009H163.396H178.783C178.898 149.589 178.955 149.647 178.955 149.763V151.498L179.939 152.366L181.211 151.671L182.657 151.787L182.773 151.671V150.688L182.657 150.225C182.657 150.109 182.542 150.052 182.542 149.994C182.484 149.994 182.483 149.994 182.483 149.935C182.426 149.935 182.426 149.877 182.426 149.877H182.368C181.905 149.646 181.559 149.357 181.096 149.068C180.402 148.489 179.997 148.316 179.072 148.316L173.171 148.258V148.316H172.824L172.304 147.738H163.455H161.314L161.256 147.68C161.198 147.622 161.141 147.506 161.141 147.391C160.967 147.159 160.735 147.043 160.446 147.043L154.836 147.043ZM154.951 148.374L135.748 148.779L133.146 151.381L133.897 153.406C134.012 153.695 134.129 153.927 134.302 154.158C134.592 154.447 134.938 154.678 135.228 154.794H135.285H135.343H135.402H135.459H135.517C135.575 154.794 135.633 154.794 135.691 154.852H135.748H135.806H135.98H136.095H136.21H136.327H136.442L142.343 154.274L143.441 154.158C144.077 154.1 144.887 154.332 145.061 155.084L146.449 154.852L147.317 154.274C147.374 154.216 147.374 154.216 147.432 154.216C150.671 153.927 153.968 153.696 157.265 153.522V149.878L157.033 149.242H155.472H155.357V149.184L154.951 148.374ZM157.496 150.052V153.522L157.843 153.637C159.058 153.927 159.521 154.042 160.735 153.637C161.082 153.522 161.43 153.406 161.835 153.348C162.239 153.232 162.644 153.233 163.049 153.233L171.204 152.944C171.551 152.944 171.957 152.886 172.246 152.712C172.477 152.539 172.651 152.308 172.767 152.018L172.94 151.555H178.551V150.052H162.355H157.496ZM132.856 151.498L130.774 152.018L131.41 155.836L132.104 155.604C132.798 155.373 133.55 155.547 134.013 156.067L134.302 156.357L134.475 156.587L134.592 156.703C134.881 157.05 134.996 157.455 134.764 157.918L132.74 163.008C132.509 163.587 132.799 164.28 133.377 164.57L134.302 164.974C134.939 165.205 135.632 164.859 135.864 164.28L139.566 154.968L136.5 155.257H136.442H135.921H135.748H135.632L135.517 155.2L135.402 155.141H135.285H135.228L135.17 155.083H135.112C134.997 155.025 134.939 155.026 134.823 154.968V154.91L134.592 154.794C134.534 154.736 134.533 154.736 134.475 154.736L134.418 154.678L134.36 154.62V154.561L134.302 154.503L134.245 154.446C134.187 154.446 134.186 154.388 134.186 154.33L134.128 154.272H134.071C134.071 154.214 134.013 154.214 133.956 154.156C133.956 154.099 133.954 154.099 133.897 154.041L133.839 153.983V153.925V153.867V153.809L133.782 153.751L133.724 153.692L133.666 153.577L133.608 153.519V153.577L132.856 151.498ZM130.369 152.076L126.551 152.944C126.089 153.059 125.626 153.117 125.163 153.059C124.7 152.943 124.296 152.828 123.949 152.597L112.727 155.141C112.38 155.199 111.976 155.373 111.744 155.662C111.571 155.951 111.57 156.298 111.57 156.587L112.496 162.892C112.496 163.065 112.612 163.182 112.612 163.298C112.728 163.471 112.9 163.644 113.074 163.76C113.247 163.875 113.537 163.876 113.769 163.876C113.942 163.818 114.174 163.76 114.29 163.702C117.008 162.256 119.784 160.868 122.618 159.538C125.336 158.265 128.113 157.108 130.947 156.009L130.369 152.076ZM152.117 154.216L147.489 154.621L146.796 155.083V155.141C146.912 155.835 147.143 156.529 147.259 157.166C147.317 157.397 147.374 157.571 147.489 157.803C147.779 158.728 148.069 159.596 148.473 160.463C150.382 164.917 153.505 168.561 157.496 171.164L160.504 166.19C159.983 165.843 159.463 165.553 159.058 165.148C158.479 164.685 157.959 164.222 157.439 163.76C154.894 161.273 153.101 158.033 152.233 154.563L152.117 154.216ZM141.822 154.737L139.913 154.911L139.74 155.315C140.318 155.315 140.897 155.431 141.186 155.836C141.244 155.431 141.475 155.026 141.822 154.737ZM146.333 155.257L145.061 155.489V156.357L146.564 156.24L146.391 155.373L146.333 155.257Z" fill="black"/>
<path fill-rule="evenodd" clip-rule="evenodd" d="M174.506 209.416L174.622 209.936C175.258 209.878 175.316 209.994 175.605 211.034L176.877 216.061C177.167 217.159 177.051 217.275 176.473 217.506L176.588 217.968L179.307 217.275L179.191 216.812C178.439 216.928 178.323 216.812 178.034 215.772L177.572 213.981L178.208 214.039C178.324 213.981 178.381 213.981 178.497 213.923C179.48 213.461 180.117 212.421 179.654 210.687C179.423 209.821 179.018 209.185 178.497 208.896C178.034 208.607 177.514 208.607 176.82 208.78L174.506 209.416ZM176.588 210.052C176.588 209.821 176.53 209.705 176.588 209.589C176.588 209.532 176.704 209.416 176.877 209.416C177.34 209.3 178.034 209.589 178.439 211.15C178.844 212.883 178.208 213.403 177.976 213.461C177.803 213.519 177.629 213.461 177.456 213.461L176.588 210.052ZM187.752 215.194C187.578 215.137 187.347 214.963 187.058 214.674C186.826 214.443 186.595 214.097 186.132 213.403C185.727 212.825 185.207 211.959 185.091 211.612C185.612 211.092 186.017 210.341 185.785 209.185C185.67 208.318 185.265 207.798 184.86 207.509C184.455 207.22 183.992 207.162 183.298 207.278L180.695 207.74L180.811 208.26C181.447 208.26 181.563 208.318 181.736 209.416L182.604 214.501C182.835 215.599 182.72 215.714 182.083 215.888L182.199 216.408L184.918 215.946L184.802 215.426C184.166 215.483 184.05 215.368 183.876 214.27L183.529 212.363L183.703 212.305C183.992 212.247 184.166 212.421 184.339 212.825C184.686 213.519 185.091 214.154 185.438 214.674C186.017 215.483 186.364 215.772 187.463 215.657C187.578 215.657 187.752 215.657 187.81 215.599L187.752 215.194ZM183.356 211.843L182.835 208.723C182.777 208.434 182.72 208.318 182.777 208.203C182.835 208.087 182.893 208.029 183.124 207.971C183.645 207.856 184.281 208.26 184.513 209.647C184.628 210.341 184.571 210.918 184.339 211.323C184.224 211.554 183.992 211.727 183.645 211.785L183.356 211.843ZM190.471 206.238C188.504 206.411 187.752 208.838 187.983 211.092C188.215 213.692 189.487 215.541 191.223 215.426C192.842 215.252 193.883 213.403 193.652 210.514C193.421 207.798 192.09 206.065 190.471 206.238ZM190.413 206.874C191.338 206.816 191.974 208.376 192.264 210.976C192.495 213.403 192.09 214.732 191.338 214.79C190.297 214.906 189.661 212.941 189.429 210.687C189.198 208.549 189.603 206.931 190.413 206.874ZM200.882 210.398L198.164 210.456V210.976C199.089 211.092 199.089 211.15 199.089 211.959L199.147 213.345C199.147 213.75 199.089 213.923 198.973 214.097C198.858 214.154 198.742 214.27 198.569 214.27C197.354 214.27 196.66 212.363 196.66 210.167C196.602 207.683 197.47 206.296 198.395 206.238C199.089 206.238 199.61 206.758 199.957 208.26L200.362 208.145C200.246 207.163 200.246 206.469 200.188 206.007C199.841 205.891 199.263 205.66 198.569 205.66C196.718 205.718 195.214 207.394 195.214 210.456C195.272 213.056 196.486 214.906 198.511 214.848C199.205 214.848 199.957 214.559 200.477 214.328C200.42 213.981 200.42 213.519 200.362 213.056V211.843C200.304 210.976 200.42 210.976 200.824 210.803L200.882 210.398ZM207.65 214.617C207.476 214.559 207.303 214.328 207.129 213.981C206.956 213.692 206.782 213.288 206.493 212.536C206.32 211.901 205.973 210.918 205.857 210.514C206.493 210.167 207.014 209.532 207.129 208.318C207.187 207.451 206.956 206.874 206.551 206.469C206.204 206.122 205.799 205.949 205.047 205.891L202.386 205.776L202.328 206.296C202.965 206.411 203.023 206.527 202.965 207.625L202.675 212.825C202.618 213.923 202.502 214.039 201.808 214.097V214.617L204.526 214.732V214.212C203.89 214.097 203.832 213.981 203.89 212.883L204.006 210.918H204.122C204.411 210.976 204.526 211.092 204.642 211.554C204.816 212.305 205.047 213.056 205.278 213.634C205.625 214.501 205.915 214.906 207.072 215.021C207.187 215.021 207.361 215.079 207.419 215.079L207.65 214.617ZM204.122 210.398L204.295 207.22C204.295 206.931 204.295 206.816 204.411 206.7C204.469 206.642 204.584 206.585 204.816 206.585C205.278 206.585 205.857 207.162 205.741 208.549C205.683 209.243 205.51 209.821 205.221 210.109C204.989 210.341 204.758 210.398 204.411 210.398H204.122ZM212.972 213.288C212.74 213.808 212.567 214.212 212.335 214.501C212.104 214.848 211.815 214.906 211.294 214.848C210.947 214.79 210.716 214.732 210.542 214.617C210.369 214.443 210.369 214.154 210.426 213.519L210.658 211.15L211.236 211.207C212.046 211.265 212.046 211.323 212.104 212.363L212.509 212.421L212.798 209.647L212.393 209.589C212.22 210.572 212.104 210.572 211.352 210.514L210.773 210.456L211.063 207.74C211.121 207.278 211.178 207.22 211.468 207.278L211.815 207.336C212.393 207.394 212.624 207.567 212.74 207.798C212.856 208.029 212.914 208.434 212.972 208.896H213.376C213.434 208.087 213.434 207.163 213.492 206.874L209.212 206.411L209.154 206.931C209.79 207.105 209.848 207.163 209.732 208.26L209.212 213.461C209.096 214.559 208.98 214.617 208.286 214.617L208.228 215.137L212.798 215.599C212.914 215.252 213.203 213.981 213.319 213.461L212.972 213.288ZM218.582 209.821C218.64 208.954 218.698 208.376 218.698 207.856C218.524 207.74 218.004 207.394 217.483 207.336C216.153 207.105 215.227 208.145 214.996 209.589C214.823 210.861 215.401 211.785 216.211 212.594C216.789 213.23 217.078 213.808 216.963 214.559C216.847 215.368 216.384 215.83 215.864 215.772C214.996 215.657 214.765 214.154 214.707 213.345L214.302 213.461C214.244 214.328 214.186 215.31 214.244 215.714C214.36 215.83 214.533 215.946 214.765 216.119C214.996 216.292 215.285 216.408 215.632 216.408C217.021 216.639 218.062 215.599 218.293 214.097C218.467 212.768 217.946 211.901 217.136 211.034C216.442 210.341 216.211 209.878 216.326 209.127C216.442 208.318 216.963 207.914 217.368 207.971C218.12 208.087 218.177 209.069 218.293 209.936L218.582 209.821ZM223.962 210.918C224.077 210.052 224.077 209.474 224.193 208.954C224.02 208.78 223.557 208.434 223.036 208.376C221.706 208.087 220.723 209.069 220.433 210.456C220.202 211.727 220.723 212.652 221.417 213.519C221.995 214.212 222.226 214.79 222.053 215.541C221.879 216.35 221.417 216.812 220.896 216.697C220.028 216.523 219.855 215.021 219.855 214.212L219.45 214.27C219.334 215.137 219.276 216.119 219.276 216.466C219.392 216.581 219.508 216.697 219.797 216.87C220.028 217.044 220.318 217.159 220.665 217.217C221.995 217.506 223.152 216.524 223.441 215.021C223.73 213.692 223.268 212.825 222.458 211.901C221.822 211.207 221.532 210.687 221.764 209.994C221.879 209.185 222.4 208.78 222.863 208.896C223.615 209.069 223.673 210.052 223.673 210.918L223.962 210.918ZM228.936 209.763C227.027 209.3 225.523 211.323 225.003 213.519C224.367 216.061 224.945 218.199 226.623 218.661C228.184 219.066 229.804 217.679 230.556 214.848C231.192 212.19 230.498 210.109 228.936 209.763ZM228.647 210.341C229.573 210.572 229.688 212.247 229.052 214.848C228.473 217.217 227.664 218.315 226.912 218.141C225.928 217.91 225.871 215.888 226.449 213.692C226.97 211.496 227.837 210.109 228.647 210.341Z" fill="#DC241F"/>
<path fill-rule="evenodd" clip-rule="evenodd" d="M77.6759 209.244L74.8415 209.879L75.0151 210.399C75.767 210.284 76.1141 210.399 76.2298 210.861C76.3455 211.208 76.519 211.67 76.7504 212.768L77.0974 214.329C77.5602 216.467 77.2131 217.564 76.0563 217.796C74.9572 218.027 74.1474 217.276 73.7425 215.369L72.9906 212.248C72.7592 211.093 72.817 210.977 73.569 210.746L73.4533 210.226L70.1562 210.977L70.2719 211.497C71.0817 211.382 71.1974 211.497 71.4866 212.595L72.2386 215.831C72.5857 217.391 73.0484 218.258 73.7425 218.662C74.3788 219.067 75.1308 219.067 75.8827 218.893C76.6347 218.72 77.3288 218.2 77.6759 217.449C78.0808 216.582 77.9651 215.311 77.6759 214.04L77.3866 212.653C77.1553 211.555 77.0974 211.15 77.0396 210.688C76.9817 210.226 77.1553 209.937 77.7337 209.764L77.6759 209.244ZM86.121 207.683L83.3445 208.146L83.4602 208.666C84.2121 208.55 84.5014 208.724 84.617 209.186C84.7327 209.59 84.9063 210.226 85.1376 211.382L85.5425 213.751H85.4847L80.6259 208.666L78.5435 209.012L78.6592 209.532C79.1219 209.475 79.4112 209.59 79.7004 209.879C79.9896 210.168 79.9896 210.399 80.1631 211.266L80.6259 214.04C80.8572 215.138 80.9151 215.831 80.9151 216.293C80.9151 216.755 80.7415 217.044 80.1053 217.16L80.221 217.68L83.0553 217.16L82.9396 216.64C82.1298 216.755 81.8984 216.582 81.7249 216.062C81.6092 215.658 81.4357 215.022 81.2621 213.924L80.7415 211.035H80.7994L86.0631 216.755L86.6994 216.64L85.7739 211.266C85.6004 210.11 85.4847 209.475 85.4847 209.012C85.4268 208.492 85.6582 208.261 86.2366 208.146L86.121 207.683ZM91.8474 215.831L91.7896 215.311C90.9798 215.311 90.8641 215.195 90.7484 214.097L90.2278 208.955C90.1121 207.857 90.17 207.741 90.9798 207.568L90.9219 207.048L87.5092 207.394L87.567 207.915C88.4347 207.915 88.4925 208.03 88.6082 209.128L89.1288 214.271C89.2445 215.369 89.1866 215.484 88.3768 215.658L88.4347 216.178L91.8474 215.831ZM92.4837 206.874L92.5415 207.394C93.3514 207.452 93.4092 207.51 93.5249 208.666L93.8141 213.808C93.8719 214.964 93.7562 215.022 92.8886 215.195V215.715L95.6072 215.542C96.9955 215.484 98.0945 215.08 98.8464 214.271C99.5984 213.462 100.061 212.248 99.9455 210.573C99.8876 209.359 99.4249 208.377 98.8464 207.799C98.0945 206.99 96.9955 206.701 95.6072 206.759L92.4837 206.874ZM95.0288 208.146C94.971 207.741 95.0288 207.568 95.0866 207.452C95.1445 207.337 95.318 207.279 95.6651 207.279C96.2435 207.221 96.8798 207.452 97.2847 207.972C97.7474 208.55 98.0945 209.475 98.1523 210.861C98.3259 213.52 97.3425 214.849 96.1857 214.906C95.5494 214.964 95.3759 214.617 95.318 213.693L95.0288 208.146ZM107.986 215.542V215.022C107.349 214.906 107.176 214.733 106.887 213.577C106.25 211.208 105.672 208.839 104.978 206.412L104.342 206.528L101.796 213.52C101.449 214.502 101.218 214.675 100.524 214.733V215.253L103.069 215.369V214.849C102.317 214.675 102.259 214.56 102.433 213.808C102.548 213.288 102.722 212.884 102.838 212.595L104.92 212.711C105.036 213.115 105.151 213.635 105.209 213.982C105.383 214.675 105.325 214.791 104.689 214.849L104.631 215.369L107.986 215.542ZM104.804 211.959L103.127 211.902C103.474 210.919 103.763 209.995 104.052 209.012H104.11L104.804 211.959ZM109.779 206.99L109.721 207.51C110.473 207.683 110.589 207.799 110.473 208.955L109.837 214.04C109.721 215.138 109.605 215.253 108.738 215.195V215.715L111.456 216.062C112.844 216.235 113.944 216.062 114.869 215.369C115.737 214.675 116.489 213.577 116.662 211.902C116.836 210.63 116.546 209.648 116.084 208.955C115.505 208.03 114.464 207.568 113.076 207.394L109.779 206.99ZM112.035 208.723C112.093 208.319 112.15 208.146 112.266 208.088C112.324 208.03 112.497 207.972 112.844 208.03C113.481 208.088 114.001 208.377 114.348 209.012C114.753 209.648 114.927 210.63 114.753 211.959C114.406 214.56 113.249 215.715 112.035 215.542C111.456 215.484 111.283 215.137 111.398 214.213L112.035 208.723ZM122.851 215.889C122.562 216.409 122.273 216.755 121.984 216.987C121.694 217.276 121.347 217.276 120.711 217.16C120.248 217.044 119.959 216.929 119.786 216.813C119.612 216.64 119.612 216.351 119.728 215.715L120.248 213.404L120.943 213.577C121.868 213.808 121.984 213.866 121.926 214.849L122.389 214.964L123.025 212.248L122.562 212.133C122.157 213.057 122.042 213.057 121.116 212.826L120.48 212.653L121.116 209.937C121.232 209.475 121.29 209.475 121.694 209.532L122.157 209.648C122.851 209.821 123.141 209.995 123.198 210.284C123.314 210.573 123.372 210.977 123.372 211.382L123.893 211.439C124.008 210.63 124.182 209.706 124.24 209.475L119.034 208.261L118.918 208.781C119.67 209.07 119.786 209.128 119.496 210.226L118.34 215.311C118.05 216.409 117.993 216.409 117.067 216.351L117.009 216.871L122.562 218.2C122.736 217.853 123.256 216.64 123.43 216.12L122.851 215.889Z" fill="#DC241F"/>
<path fill-rule="evenodd" clip-rule="evenodd" d="M138.642 233.742L138.816 233.222C138.295 232.933 138.179 232.76 138.237 231.604C138.353 229.119 138.469 226.75 138.642 224.266L138.006 224.208L133.899 230.333C133.263 231.2 133.089 231.315 132.453 231.2L132.279 231.72L134.477 232.413L134.593 231.893C133.957 231.604 134.015 231.431 134.362 230.795C134.651 230.333 134.882 229.986 134.998 229.755L136.791 230.333C136.791 230.737 136.733 231.257 136.675 231.662C136.618 232.355 136.502 232.471 135.981 232.355L135.923 232.818L138.642 233.742ZM136.907 229.466L135.519 229.004C136.039 228.137 136.56 227.27 137.138 226.461L136.907 229.466ZM145.872 232.471C145.236 233.627 144.6 234.262 143.848 234.147C142.691 233.973 142.055 232.24 142.344 229.813C142.633 227.733 143.674 226.115 144.831 226.23C145.583 226.346 146.104 226.866 146.219 228.368L146.682 228.31C146.682 227.501 146.74 226.866 146.798 226.172C146.509 226.057 145.872 225.768 145.178 225.652C142.865 225.306 141.129 227.039 140.724 229.813C140.435 231.951 141.071 234.378 143.617 234.724C144.311 234.84 145.12 234.667 145.468 234.667C145.699 234.204 146.046 233.28 146.277 232.702L145.872 232.471ZM153.161 232.702C152.64 233.973 152.12 234.667 151.368 234.667C150.211 234.667 149.343 233.107 149.343 230.622C149.343 228.542 150.095 226.866 151.252 226.866C152.004 226.866 152.524 227.27 152.929 228.773L153.392 228.657C153.276 227.848 153.219 227.328 153.161 226.519C152.871 226.404 152.235 226.172 151.483 226.172C149.169 226.172 147.666 228.137 147.666 230.911C147.666 232.991 148.649 235.302 151.078 235.36L150.731 235.88C150.5 236.169 150.558 236.4 150.847 236.747C150.905 236.862 151.02 237.036 151.02 237.209C151.02 237.44 150.847 237.671 150.442 237.96L150.673 238.365C151.483 238.018 151.888 237.498 151.888 236.978C151.888 236.689 151.772 236.4 151.541 236.053C151.368 235.765 151.31 235.649 151.425 235.533L151.599 235.302C152.177 235.244 152.814 235.071 153.045 235.013C153.161 234.493 153.45 233.569 153.566 232.933L153.161 232.702ZM161.664 233.8L161.548 233.28C160.912 233.28 160.796 233.164 160.275 232.124C159.176 229.928 158.193 227.733 157.152 225.479L156.573 225.71L155.821 233.049C155.706 234.147 155.59 234.262 154.954 234.493L155.069 235.013L157.325 234.609L157.21 234.089C156.516 234.089 156.458 233.973 156.516 233.222C156.516 232.702 156.516 232.297 156.573 232.009L158.424 231.662C158.598 232.009 158.771 232.529 158.945 232.875C159.234 233.511 159.234 233.627 158.656 233.858L158.771 234.378L161.664 233.8ZM158.135 230.911L156.631 231.142C156.747 230.16 156.805 229.119 156.863 228.137L158.135 230.911ZM155.937 223.688C155.648 223.746 155.301 224.092 155.185 225.19L155.648 225.421C155.764 224.959 155.879 224.728 156.053 224.67C156.284 224.612 156.4 224.67 156.631 224.786C156.92 224.901 157.152 225.017 157.441 224.959C157.788 224.901 158.077 224.554 158.193 223.457L157.788 223.283C157.73 223.63 157.615 223.919 157.383 223.977C157.152 223.977 156.978 223.919 156.747 223.803C156.342 223.688 156.169 223.63 155.937 223.688ZM163.457 223.803C161.374 224.497 161.085 227.097 161.779 229.235C162.589 231.72 164.382 233.164 166.233 232.586C167.969 232.009 168.778 229.928 167.853 227.155C166.985 224.554 165.192 223.225 163.457 223.803ZM163.515 224.439C164.498 224.092 165.539 225.479 166.407 227.964C167.159 230.275 166.985 231.662 166.175 231.893C165.134 232.24 163.92 230.564 163.225 228.426C162.589 226.404 162.647 224.728 163.515 224.439Z" fill="#DC241F"/>
<path fill-rule="evenodd" clip-rule="evenodd" d="M136.502 208.029C114.059 199.881 93.5828 199.593 69.52 206.122C67.4377 206.7 65.4132 207.278 63.3887 207.913C63.9093 214.674 66.8593 221.377 73.2798 224.382C78.8328 226.982 85.4269 226.693 90.9799 230.045V221.146C92.1946 220.973 93.3514 220.915 94.5661 220.799C105.672 219.932 116.199 221.261 127.305 224.902V234.61C134.247 238.134 142.171 240.157 150.5 240.157C158.888 240.157 166.754 238.134 173.753 234.61V224.902C185.033 221.204 195.676 219.875 206.955 220.857C207.939 220.915 208.98 221.03 210.021 221.146V230.045C215.574 226.693 222.226 227.04 227.721 224.382C234.084 221.377 237.092 214.674 237.612 207.913C235.588 207.278 233.505 206.7 231.423 206.122C207.36 199.535 186.826 199.881 164.441 208.029V218.488C159.987 220.221 155.244 221.146 150.5 221.146C145.757 221.146 141.014 220.279 136.56 218.488L136.502 208.029ZM89.1289 227.098C87.6249 226.462 86.0632 226 84.5014 225.595C81.8985 224.96 79.2955 224.555 76.7504 223.746C80.973 222.648 85.0798 221.839 89.1289 221.261V227.098ZM211.756 221.319C215.805 221.897 219.97 222.706 224.193 223.804C221.647 224.555 219.045 225.017 216.442 225.653C214.822 226.058 213.26 226.52 211.756 227.155V221.319ZM150.443 238.25C143.039 238.25 135.693 236.632 129.041 233.396V216.639C130.602 217.679 132.28 218.546 133.957 219.297C135.172 219.875 136.387 220.337 137.601 220.741C141.708 222.128 146.047 222.822 150.443 222.822C154.781 222.822 159.119 222.128 163.284 220.741C164.556 220.337 165.771 219.817 166.986 219.297C168.663 218.546 170.283 217.679 171.902 216.639V233.396C165.193 236.574 157.904 238.25 150.443 238.25ZM177.224 221.839C186.363 219.297 195.445 218.257 204.931 218.777C207.36 218.95 209.732 219.181 212.103 219.528C216.904 220.221 221.821 221.261 226.969 222.648C232.175 220.106 234.836 214.732 235.53 209.185C233.968 208.722 232.406 208.26 230.845 207.856C208.228 201.673 188.156 201.499 166.118 209.242V217.679C168.721 216.465 171.208 214.963 173.58 213.172V222.937C174.852 222.533 176.067 222.186 177.224 221.839ZM123.603 221.839C114.464 219.297 105.383 218.257 95.8387 218.777C93.4093 218.95 91.0377 219.181 88.6083 219.528C83.8651 220.221 78.9485 221.261 73.8004 222.648C68.5946 220.106 65.9338 214.732 65.2397 209.185C66.8014 208.722 68.3053 208.26 69.9249 207.856C92.5995 201.673 112.613 201.499 134.651 209.242V217.679C132.048 216.465 129.561 214.963 127.19 213.172V222.937C126.033 222.533 124.876 222.186 123.603 221.839Z" fill="#DC241F"/>
</svg>
