<svg width="300" height="300" viewBox="0 0 300 300" fill="none" xmlns="http://www.w3.org/2000/svg">
<path d="M245.611 149.078C245.611 227.148 202.757 290.544 149.931 290.544C97.1046 290.544 54.25 227.148 54.25 149.078C54.25 71.3001 97.1038 7.61133 149.93 7.61133C202.467 7.90516 245.611 71.3001 245.611 149.078Z" fill="white"/>
<path d="M155.802 189.581C155.802 189.581 156.096 183.711 159.911 182.537C162.265 181.89 164.788 182.438 166.661 184.004C166.661 184.004 164.607 178.427 168.129 175.786C171.65 173.145 173.998 174.319 174.292 174.319C173.998 174.025 171.357 170.503 172.238 166.687C173.119 162.579 178.402 161.991 178.402 161.991C178.402 161.991 173.118 160.235 173.118 155.828C173.118 151.72 176.933 149.078 177.226 148.784C176.933 148.784 172.237 149.958 170.476 145.555C169.398 142.837 169.727 139.763 171.357 137.335C171.063 137.629 167.248 140.27 164.019 137.335C161.671 134.987 161.084 131.758 161.378 130.29C160.497 131.171 158.443 133.225 156.095 132.931C151.399 132.638 149.931 127.648 149.931 127.648C149.931 127.648 148.464 132.638 143.768 132.931C141.42 133.225 139.365 131.171 138.485 130.29C138.778 131.758 138.192 134.987 135.843 137.335C132.615 140.27 128.8 137.629 128.506 137.335C130.135 139.763 130.465 142.837 129.387 145.555C127.625 149.958 122.93 148.784 122.636 148.784C122.929 149.078 126.745 151.72 126.745 155.828C126.745 160.235 121.461 161.991 121.461 161.991C121.461 161.991 126.744 162.579 127.625 166.687C128.505 170.503 125.864 174.025 125.57 174.319C125.864 174.319 128.212 173.145 131.734 175.786C135.256 178.427 133.202 184.004 133.202 184.004C135.075 182.438 137.597 181.89 139.952 182.537C143.767 183.711 144.061 189.581 144.061 189.581C144.061 189.581 146.996 185.179 149.931 185.179C152.867 185.179 155.802 189.581 155.802 189.581Z" fill="#FFCE15"/>
<path d="M149.931 2.5C93.5791 2.5 47.5 68.5099 47.5 150C47.5 231.49 93.2853 297.5 149.931 297.5C206.576 297.5 252.361 231.49 252.361 150C252.361 68.5099 206.286 2.5 149.931 2.5ZM149.931 290.782C97.1009 290.782 54.2505 227.692 54.2505 150C54.2505 72.5995 97.1043 9.21788 149.931 9.21788C202.757 9.21788 245.611 72.3079 245.611 150C245.611 227.692 202.467 290.782 149.931 290.782Z" fill="#156C52"/>
<path d="M150.225 154.949C150.225 150.84 147.584 148.492 143.181 148.492H133.789V168.744H138.191V161.699H141.713L145.239 168.744H150.228L146.409 160.819C148.865 159.953 150.431 157.544 150.225 154.949ZM138.191 152.602H143.181C144.942 152.602 145.822 153.482 145.822 154.95C145.822 156.417 144.941 157.298 143.181 157.298H138.191V152.602Z" fill="black"/>
<path d="M151.693 148.492V152.895H157.563V168.744H161.965V152.895H167.541V148.492H151.693Z" fill="black"/>
<path d="M146.409 260.018C145.819 258.844 146.115 258.844 146.115 257.67C145.963 256.894 145.963 256.097 146.115 255.321C146.704 254.148 145.525 252.387 144.647 251.8C144.647 251.8 141.419 249.745 139.951 248.865C138.19 247.984 137.016 246.81 137.016 245.636C137.016 244.462 138.19 242.995 138.19 241.234C138.19 239.472 137.309 238.885 137.6 238.005C137.6 237.124 139.068 235.364 139.949 234.483C140.829 233.602 141.122 230.081 139.068 226.559C138.187 225.385 133.785 220.395 133.785 220.395C132.101 218.23 130.533 215.977 129.089 213.645C128.367 212.392 127.964 210.981 127.915 209.536C128.209 207.775 128.796 206.601 129.969 206.895C130.485 206.977 130.961 207.22 131.33 207.589C131.699 207.958 131.942 208.434 132.024 208.949C132.317 209.539 132.613 209.83 131.73 211.297C130.847 212.765 132.319 215.113 132.319 215.113C132.328 214.851 132.418 214.598 132.575 214.388C132.733 214.178 132.951 214.022 133.2 213.939C133.2 213.939 132.906 215.113 134.667 217.461C134.667 217.461 134.078 215.7 134.961 215.407C135.55 215.113 136.429 218.342 137.896 220.103C139.363 221.864 142.885 221.571 142.885 221.571C142.885 221.571 140.537 220.397 139.656 213.353C139.067 208.95 136.428 209.244 134.667 209.244C133.787 208.95 133.2 207.483 132.613 206.603C132.024 205.429 130.852 204.255 129.678 204.255C129.068 204.215 128.46 204.362 127.936 204.677C127.411 204.992 126.995 205.459 126.743 206.016C125.862 207.484 125.862 208.364 125.862 210.712C125.956 212.877 126.56 214.989 127.624 216.876C129.079 219.013 130.646 221.07 132.32 223.04C132.32 223.04 136.136 227.442 137.016 229.203C137.897 230.965 137.606 232.432 137.016 233.019C136.136 233.608 133.494 233.313 132.908 233.019C132.318 232.43 130.266 229.79 130.266 229.79C130.266 229.79 124.983 223.92 124.397 222.453C123.81 220.985 123.807 216.876 124.397 213.941C124.959 210.53 124.859 207.043 124.103 203.67C125.276 203.963 125.57 206.018 125.57 206.018C125.911 205.44 126.09 204.781 126.09 204.11C126.09 203.439 125.911 202.78 125.57 202.202C127.332 203.67 128.505 202.792 128.505 202.792C125.864 200.15 126.744 193.4 126.744 193.4C126.744 193.4 127.918 194.867 128.505 198.683C131.147 187.524 125.571 186.06 125.571 186.06C127.919 186.354 130.267 188.995 130.267 188.995C128.213 179.603 123.517 179.016 119.114 179.896C120.582 178.135 125.278 178.135 125.278 178.135C125.278 178.135 119.701 176.374 116.473 177.254C117.063 175.787 119.408 174.613 119.408 174.613C115.593 175.203 114.125 175.787 112.071 177.842C112.138 176.992 112.443 176.178 112.952 175.494C112.952 175.494 109.723 176.375 108.549 178.429C107.376 180.483 108.255 181.951 109.723 182.538C109.341 182.405 108.948 182.307 108.549 182.244C107.255 182.366 106.027 182.876 105.028 183.709C103.752 184.567 102.372 185.257 100.92 185.763C100.702 186.116 100.587 186.522 100.587 186.937C100.587 187.352 100.702 187.758 100.92 188.111C101.214 188.405 101.214 188.405 101.214 188.992C101.214 189.285 101.507 191.633 102.681 191.927L103.855 192.516C103.855 192.516 103.265 191.342 105.322 191.048C107.379 190.755 110.018 192.222 107.083 193.983C106.203 194.573 104.735 195.157 103.855 194.277C103.686 194.124 103.582 193.914 103.561 193.688C103.561 193.688 102.971 193.688 102.68 194.568C102.389 195.449 102.386 197.21 103.561 197.503C104.735 197.797 107.669 196.914 108.844 196.33C110.311 195.74 111.779 194.568 111.779 192.808C111.779 192.808 113.246 194.275 110.311 196.624C107.376 198.678 100.92 198.678 100.92 204.255C101.25 203.502 101.734 202.825 102.34 202.269C102.947 201.714 103.662 201.29 104.441 201.026C104.441 201.026 100.626 203.374 101.213 207.19C101.662 206.16 102.348 205.251 103.215 204.537C104.082 203.823 105.105 203.324 106.202 203.081C106.202 203.081 101.213 206.31 101.799 215.702V215.995C100.626 213.354 101.21 209.539 101.21 209.539C99.7427 209.539 98.862 207.777 98.2752 206.604C97.3946 202.788 97.1016 202.495 95.6341 201.615C94.6231 201.12 93.5276 200.821 92.4053 200.734C92.0685 200.751 91.7456 200.873 91.4822 201.084C91.2189 201.295 91.0284 201.583 90.9379 201.907C90.9379 202.201 92.1115 201.614 92.9922 202.497C92.1984 202.335 91.3734 202.438 90.644 202.791C90.3502 203.084 90.644 204.552 90.644 204.552C90.9379 204.846 92.1115 204.258 92.6983 204.552C91.9888 204.649 91.297 204.847 90.644 205.141C90.3502 205.731 90.644 206.609 90.644 206.903C91.2334 207.492 93.579 206.609 93.8728 210.424C93.8728 210.718 94.1666 211.305 94.1666 211.598C94.3874 211.928 94.6989 212.186 95.0635 212.342C95.428 212.499 95.83 212.546 96.2209 212.479C96.5147 213.068 98.2752 215.414 99.1559 216.881C97.7132 217.287 96.2414 217.582 94.7534 217.762C93.8728 217.762 92.4053 216.588 92.4053 216.588L89.1766 214.827C89.1766 214.827 89.1766 216.294 88.2959 216C87.7066 216 87.7066 214.239 87.7066 214.239C87.7066 214.239 85.9453 214.828 85.9453 216C85.0646 216 84.7716 218.055 85.3559 218.935C83.3016 221.576 87.997 222.457 87.997 222.457C87.997 222.457 91.2258 223.631 92.1056 223.925C92.9854 224.218 94.7467 225.098 95.9212 225.098C97.0149 225.013 98.0968 224.816 99.15 224.509C99.15 224.509 101.204 224.215 102.379 223.919C102.379 223.919 105.02 223.92 108.249 217.463C108.249 217.463 107.659 223.04 103.552 224.8C104.251 225.663 105.038 226.45 105.9 227.148C107.021 228.477 108.302 229.66 109.716 230.67C111.184 231.844 114.999 233.311 115.88 234.486C116.488 235.47 116.887 236.569 117.053 237.714C117.051 237.636 117.065 237.559 117.094 237.487C117.123 237.414 117.167 237.348 117.222 237.293C117.277 237.238 117.343 237.195 117.415 237.166C117.487 237.137 117.565 237.123 117.643 237.125C118.232 237.125 118.816 239.179 118.816 239.179C118.816 239.179 119.406 237.125 119.697 237.712C120.432 238.515 120.849 239.558 120.871 240.647C120.861 241.372 120.658 242.081 120.281 242.701L116.76 246.81C114.411 249.158 113.825 249.451 113.238 250.625C112.645 251.338 112.152 252.128 111.77 252.973C111.477 254.147 111.477 255.321 112.36 257.963C112.949 260.017 112.066 263.832 110.598 263.832C106.783 263.832 106.783 262.952 105.609 264.126C104.617 265.146 103.821 266.34 103.261 267.648C103.371 267.962 103.566 268.238 103.826 268.446C104.086 268.654 104.398 268.784 104.729 268.822C105.022 268.822 104.729 266.767 105.902 266.181C105.421 266.972 105.214 267.9 105.313 268.822C105.348 268.978 105.415 269.125 105.509 269.254C105.603 269.384 105.722 269.493 105.859 269.575C105.996 269.657 106.148 269.711 106.306 269.733C106.465 269.755 106.626 269.744 106.78 269.702C106.78 269.408 106.78 267.941 107.37 267.648V269.702C107.465 269.838 107.587 269.953 107.728 270.042C107.868 270.13 108.025 270.189 108.189 270.217C108.353 270.244 108.52 270.239 108.682 270.201C108.844 270.163 108.996 270.093 109.131 269.996C110.012 269.407 110.598 267.648 113.827 268.235C115.588 268.529 115.881 268.235 115.881 267.354C115.881 266.181 116.762 264.419 117.349 262.658C117.458 262.427 117.622 262.226 117.827 262.072C118.031 261.919 118.27 261.818 118.523 261.777C118.691 261.93 118.796 262.14 118.816 262.367C118.977 261.891 118.977 261.375 118.816 260.899C119.043 260.92 119.253 261.025 119.406 261.193C119.406 261.193 119.406 260.312 118.816 260.019C118.523 259.43 117.936 257.965 118.227 257.084C118.816 255.617 121.749 252.976 126.445 252.976C124.391 250.922 124.097 249.747 123.804 247.399C123.457 245.359 123.457 243.275 123.804 241.235C123.804 241.235 124.098 245.932 124.978 247.399C128.499 255.323 139.065 257.378 139.065 257.378C139.231 258.448 139.231 259.537 139.065 260.607C138.185 263.542 137.892 264.716 137.892 264.716C136.206 264.567 134.537 264.273 132.903 263.835C131.435 263.541 129.968 267.651 129.968 267.944C130.198 268.468 130.617 268.886 131.141 269.117C131.435 269.117 131.435 267.356 132.609 266.769C132.609 266.769 131.435 268.237 131.728 269.117C131.842 269.321 132.015 269.487 132.225 269.592C132.434 269.697 132.67 269.737 132.902 269.706C133.196 269.706 132.902 268.239 133.491 267.652C133.491 267.652 133.197 269.414 133.785 269.706C134.666 270.296 134.666 270 135.252 269.706C136.689 269.327 138.168 269.129 139.655 269.117C140.828 269.117 141.122 266.476 142.59 264.128C144.057 261.78 144.351 260.019 144.938 260.019C145.525 260.019 145.818 261.487 144.938 262.074C145.525 262.072 146.996 261.192 146.409 260.018ZM108.547 186.35C107.958 186.939 105.319 186.643 105.613 185.469C105.906 184.295 107.667 184.002 108.547 184.588C109.428 185.471 108.547 186.06 108.547 186.35Z" fill="#D21B33"/>
<path d="M98.8635 174.611L96.8096 177.547L97.6894 179.308L94.4615 194.275L93.5801 183.123C93.3329 182.655 93.1355 182.163 92.9914 181.654C92.6976 181.36 91.8168 181.066 91.523 181.361C91.2291 181.657 91.5235 182.534 91.8173 182.828C92.2092 183.328 92.7119 183.73 93.2857 184.002C93.2857 184.002 86.5377 194.862 87.7113 213.058V213.647C87.7113 213.941 88.0045 215.408 88.3 215.408C89.1806 215.702 89.1814 214.529 89.1814 214.236V212.471C88.6781 203.188 90.0759 193.9 93.289 185.176L93.8794 197.503L93.289 200.732H93.5834L93.8761 199.264V200.732C94.1699 200.732 94.4662 201.025 94.7575 201.025L94.4631 196.036L97.9854 179.6L99.4521 178.134L98.8635 174.611ZM91.5263 207.229L89.7651 214.82L90.0595 215.114L91.9089 207.327L91.5263 207.229ZM93.8744 211.671L94.1688 217.54H95.0485L94.7558 212.26C94.462 212.26 94.1657 211.967 93.8744 211.671ZM88.591 222.823C90.6453 234.563 95.0485 239.179 95.0485 239.179L93.8744 240.941C93.2851 241.821 93.2846 242.115 93.5801 242.409C93.8756 242.703 94.4617 242.408 95.0485 241.528C95.3999 241.004 95.6033 240.396 95.6372 239.766L95.0485 225.172C95.0485 224.879 94.7553 224.877 94.4615 224.877L95.0502 238.3C92.7931 233.325 91.1184 228.773 90.0595 223.414C89.4701 223.12 88.8849 223.119 88.591 222.823Z" fill="black"/>
<path d="M153.454 260.018C154.044 258.844 153.748 258.844 153.748 257.67C153.9 256.894 153.9 256.097 153.748 255.321C153.159 254.148 154.338 252.387 155.216 251.8C155.216 251.8 158.444 249.745 159.912 248.865C161.673 247.984 162.847 246.81 162.847 245.636C162.847 244.462 161.673 242.995 161.673 241.234C161.673 239.472 162.554 238.885 162.263 238.005C162.263 237.124 160.795 235.364 159.914 234.483C159.034 233.602 158.741 230.081 160.795 226.559C161.676 225.385 166.078 220.395 166.078 220.395C167.762 218.23 169.33 215.977 170.774 213.645C171.496 212.392 171.899 210.981 171.948 209.536C171.654 207.775 171.067 206.601 169.894 206.895C169.378 206.977 168.902 207.22 168.533 207.589C168.164 207.958 167.921 208.434 167.839 208.949C167.546 209.539 167.25 209.83 168.133 211.297C169.016 212.765 167.544 215.113 167.544 215.113C167.535 214.851 167.445 214.598 167.288 214.388C167.13 214.178 166.912 214.022 166.663 213.939C166.663 213.939 166.957 215.113 165.196 217.461C165.196 217.461 165.785 215.7 164.902 215.407C164.313 215.113 163.434 218.342 161.967 220.103C160.5 221.864 156.978 221.571 156.978 221.571C156.978 221.571 159.326 220.397 160.207 213.353C160.796 208.95 163.435 209.244 165.196 209.244C166.076 208.95 166.663 207.483 167.25 206.603C167.839 205.429 169.011 204.255 170.185 204.255C170.795 204.215 171.403 204.362 171.927 204.677C172.452 204.992 172.868 205.459 173.12 206.016C174.001 207.484 174.001 208.364 174.001 210.712C173.907 212.877 173.303 214.989 172.239 216.876C170.784 219.013 169.217 221.07 167.543 223.04C167.543 223.04 163.727 227.442 162.847 229.203C161.966 230.965 162.257 232.432 162.847 233.019C163.727 233.608 166.369 233.313 166.955 233.019C167.545 232.43 169.596 229.79 169.596 229.79C169.596 229.79 174.88 223.92 175.466 222.453C176.053 220.985 176.056 216.876 175.466 213.941C174.904 210.53 175.004 207.043 175.76 203.67C174.587 203.963 174.293 206.018 174.293 206.018C173.952 205.44 173.773 204.781 173.773 204.11C173.773 203.439 173.952 202.78 174.293 202.202C172.531 203.67 171.358 202.792 171.358 202.792C173.999 200.15 173.119 193.4 173.119 193.4C173.119 193.4 171.945 194.867 171.358 198.683C168.716 187.524 174.292 186.06 174.292 186.06C171.944 186.354 169.596 188.995 169.596 188.995C171.65 179.603 176.346 179.016 180.749 179.896C179.281 178.135 174.585 178.135 174.585 178.135C174.585 178.135 180.162 176.374 183.39 177.254C182.8 175.787 180.455 174.613 180.455 174.613C184.27 175.203 185.738 175.787 187.792 177.842C187.725 176.992 187.42 176.178 186.911 175.494C186.911 175.494 190.14 176.375 191.314 178.429C192.487 180.483 191.608 181.951 190.14 182.538C190.522 182.405 190.915 182.307 191.314 182.244C192.608 182.366 193.836 182.876 194.835 183.709C196.111 184.567 197.491 185.257 198.943 185.763C199.161 186.116 199.276 186.522 199.276 186.937C199.276 187.352 199.161 187.758 198.943 188.111C198.649 188.405 198.649 188.405 198.649 188.992C198.649 189.285 198.356 191.633 197.182 191.927L196.008 192.516C196.008 192.516 196.598 191.342 194.541 191.048C192.484 190.755 189.845 192.222 192.78 193.983C193.66 194.573 195.128 195.157 196.008 194.277C196.177 194.124 196.281 193.914 196.302 193.688C196.302 193.688 196.892 193.688 197.183 194.568C197.474 195.449 197.477 197.21 196.302 197.503C195.128 197.797 192.194 196.914 191.019 196.33C189.552 195.74 188.084 194.568 188.084 192.808C188.084 192.808 186.617 194.275 189.552 196.624C192.487 198.678 198.943 198.678 198.943 204.255C198.613 203.502 198.129 202.825 197.522 202.269C196.916 201.714 196.201 201.29 195.422 201.026C195.422 201.026 199.237 203.374 198.65 207.19C198.201 206.16 197.515 205.251 196.648 204.537C195.781 203.823 194.758 203.324 193.661 203.081C193.661 203.081 198.65 206.31 198.063 215.702V215.995C199.237 213.354 198.653 209.539 198.653 209.539C200.12 209.539 201.001 207.777 201.588 206.604C202.468 202.788 202.761 202.495 204.229 201.615C205.24 201.12 206.335 200.821 207.458 200.734C207.794 200.751 208.117 200.873 208.381 201.084C208.644 201.295 208.835 201.583 208.925 201.907C208.925 202.201 207.751 201.614 206.871 202.497C207.665 202.335 208.49 202.438 209.219 202.791C209.513 203.084 209.219 204.552 209.219 204.552C208.925 204.846 207.751 204.258 207.165 204.552C207.874 204.649 208.566 204.847 209.219 205.141C209.513 205.731 209.219 206.609 209.219 206.903C208.63 207.492 206.284 206.609 205.99 210.424C205.99 210.718 205.696 211.305 205.696 211.598C205.476 211.928 205.164 212.186 204.8 212.342C204.435 212.499 204.033 212.546 203.642 212.479C203.348 213.068 201.588 215.414 200.707 216.881C202.15 217.287 203.622 217.582 205.11 217.762C205.99 217.762 207.458 216.588 207.458 216.588L210.686 214.827C210.686 214.827 210.686 216.294 211.567 216C212.156 216 212.156 214.239 212.156 214.239C212.156 214.239 213.918 214.828 213.918 216C214.798 216 215.091 218.055 214.507 218.935C216.561 221.576 211.866 222.457 211.866 222.457C211.866 222.457 208.637 223.631 207.757 223.925C206.878 224.218 205.116 225.098 203.942 225.098C202.848 225.013 201.766 224.816 200.713 224.509C200.713 224.509 198.659 224.215 197.484 223.919C197.484 223.919 194.843 223.92 191.614 217.463C191.614 217.463 192.204 223.04 196.311 224.8C195.612 225.663 194.825 226.45 193.963 227.148C192.842 228.477 191.561 229.66 190.147 230.67C188.679 231.844 184.864 233.311 183.983 234.486C183.375 235.47 182.976 236.569 182.81 237.714C182.812 237.636 182.798 237.559 182.769 237.487C182.74 237.414 182.696 237.348 182.641 237.293C182.586 237.238 182.52 237.195 182.448 237.166C182.376 237.137 182.298 237.123 182.22 237.125C181.631 237.125 181.047 239.179 181.047 239.179C181.047 239.179 180.457 237.125 180.166 237.712C179.431 238.515 179.014 239.558 178.992 240.647C179.002 241.372 179.205 242.081 179.582 242.701L183.103 246.81C185.452 249.158 186.038 249.451 186.625 250.625C187.218 251.338 187.711 252.128 188.093 252.973C188.386 254.147 188.386 255.321 187.503 257.963C186.914 260.017 187.797 263.832 189.265 263.832C193.08 263.832 193.08 262.952 194.254 264.126C195.246 265.146 196.042 266.34 196.602 267.648C196.492 267.962 196.297 268.238 196.037 268.446C195.777 268.654 195.465 268.784 195.134 268.822C194.841 268.822 195.134 266.767 193.961 266.181C194.442 266.972 194.649 267.9 194.55 268.822C194.515 268.978 194.448 269.125 194.354 269.254C194.26 269.384 194.141 269.493 194.004 269.575C193.867 269.657 193.715 269.711 193.557 269.733C193.398 269.755 193.237 269.744 193.083 269.702C193.083 269.408 193.083 267.941 192.493 267.648V269.702C192.398 269.838 192.276 269.953 192.135 270.042C191.995 270.13 191.838 270.189 191.674 270.217C191.51 270.244 191.343 270.239 191.181 270.201C191.019 270.163 190.867 270.093 190.732 269.996C189.851 269.407 189.265 267.648 186.036 268.235C184.275 268.529 183.982 268.235 183.982 267.354C183.982 266.181 183.101 264.419 182.514 262.658C182.405 262.427 182.241 262.226 182.036 262.072C181.832 261.919 181.593 261.818 181.34 261.777C181.172 261.93 181.067 262.14 181.047 262.367C180.886 261.891 180.886 261.375 181.047 260.899C180.82 260.92 180.61 261.025 180.457 261.193C180.457 261.193 180.457 260.312 181.047 260.019C181.34 259.43 181.927 257.965 181.636 257.084C181.047 255.617 178.114 252.976 173.418 252.976C175.472 250.922 175.766 249.747 176.059 247.399C176.406 245.359 176.406 243.275 176.059 241.235C176.059 241.235 175.765 245.932 174.885 247.399C171.364 255.323 160.798 257.378 160.798 257.378C160.632 258.448 160.632 259.537 160.798 260.607C161.678 263.542 161.971 264.716 161.971 264.716C163.657 264.567 165.326 264.273 166.96 263.835C168.428 263.541 169.895 267.651 169.895 267.944C169.665 268.468 169.246 268.886 168.722 269.117C168.428 269.117 168.428 267.356 167.254 266.769C167.254 266.769 168.428 268.237 168.135 269.117C168.021 269.321 167.848 269.487 167.638 269.592C167.429 269.697 167.193 269.737 166.961 269.706C166.667 269.706 166.961 268.239 166.372 267.652C166.372 267.652 166.666 269.414 166.078 269.706C165.197 270.296 165.197 270 164.611 269.706C163.174 269.327 161.695 269.129 160.208 269.117C159.035 269.117 158.741 266.476 157.273 264.128C155.806 261.78 155.512 260.019 154.925 260.019C154.338 260.019 154.045 261.487 154.925 262.074C154.338 262.072 152.867 261.192 153.454 260.018ZM191.316 186.35C191.905 186.939 194.544 186.643 194.25 185.469C193.957 184.295 192.196 184.002 191.316 184.588C190.435 185.471 191.316 186.06 191.316 186.35Z" fill="#D21B33"/>
<path d="M201.001 174.611L203.055 177.547L202.175 179.308L205.403 194.275L206.284 183.123C206.531 182.655 206.729 182.163 206.873 181.654C207.167 181.36 208.047 181.066 208.341 181.361C208.635 181.657 208.341 182.534 208.047 182.828C207.655 183.328 207.152 183.73 206.579 184.002C206.579 184.002 213.327 194.862 212.153 213.058V213.647C212.153 213.941 211.86 215.408 211.564 215.408C210.684 215.702 210.683 214.529 210.683 214.236V212.471C211.186 203.188 209.788 193.9 206.575 185.176L205.985 197.503L206.575 200.732H206.281L205.988 199.264V200.732C205.694 200.732 205.398 201.025 205.107 201.025L205.401 196.036L201.879 179.6L200.412 178.134L201.001 174.611ZM208.338 207.229L210.099 214.82L209.805 215.114L207.955 207.327L208.338 207.229ZM205.99 211.671L205.695 217.54H204.816L205.108 212.26C205.402 212.26 205.699 211.967 205.99 211.671ZM211.273 222.823C209.219 234.563 204.816 239.179 204.816 239.179L205.99 240.941C206.579 241.821 206.58 242.115 206.284 242.409C205.989 242.703 205.403 242.408 204.816 241.528C204.464 241.004 204.261 240.396 204.227 239.766L204.816 225.172C204.816 224.879 205.109 224.877 205.403 224.877L204.814 238.3C207.071 233.325 208.746 228.773 209.805 223.414C210.394 223.12 210.979 223.119 211.273 222.823Z" fill="black"/>
<path d="M114.125 99.4757C116.307 98.6508 118.569 98.0604 120.876 97.7144H121.168C122.342 97.4206 123.222 97.4206 124.397 97.1251H131.439C131.853 97.0819 132.269 97.186 132.613 97.4189L129.387 77.7567C123.223 77.4628 116.767 79.2241 110.604 81.5723C111.484 87.4421 112.951 93.312 114.125 99.4757Z" fill="#D21B33"/>
<path d="M122.344 90.9637L126.75 93.6048C125.869 92.1373 125.282 90.376 124.401 88.9085C125.556 87.8091 126.635 86.6325 127.63 85.3868C126.059 85.3383 124.487 85.4367 122.934 85.6806C122.034 84.1762 121.248 82.6064 120.582 80.9844C120.241 82.7262 120.044 84.4932 119.993 86.2674C118.526 86.5613 116.764 87.1481 115.297 87.4411C116.818 88.0041 118.291 88.6912 119.699 89.4953C119.358 91.1382 119.161 92.8075 119.11 94.4846C120.252 93.3731 121.33 92.1973 122.339 90.9628" fill="white"/>
<path d="M111.777 87.4421C111.483 85.3878 110.896 83.3336 110.603 81.5723C97.3949 86.5615 84.4806 94.1927 71.2734 90.3771C71.5673 92.7252 72.1541 94.7795 72.4471 97.1276C74.2856 97.4843 76.1515 97.6815 78.024 97.7169C89.1769 98.0082 100.33 91.5515 111.777 87.4421Z" fill="#156C52"/>
<path d="M93.5795 100.942C100.036 98.5943 106.494 95.6594 112.95 93.3113C112.657 91.257 112.07 89.2027 111.777 87.4414C100.624 91.55 89.1771 98.0075 78.0241 97.7128C76.1537 97.6468 74.2902 97.4498 72.4473 97.1235C72.7411 99.4716 73.3279 101.526 73.6209 103.874C80.0784 104.758 86.829 103.291 93.5795 100.942Z" fill="#FFCE15"/>
<path d="M93.2858 107.694C100.33 105.346 107.08 101.824 114.124 99.4762C113.83 97.4219 113.244 95.3676 112.951 93.3125C106.494 95.6606 100.036 98.5956 93.5797 100.944C86.8283 103.292 80.3716 104.763 73.6211 103.584C73.9149 105.638 74.5017 107.986 74.7947 110.041C80.9584 111.216 87.1221 109.748 93.2858 107.694Z" fill="#156C52"/>
<path d="M81.5476 116.792H75.9707C76.2645 118.846 76.8514 121.195 77.1443 123.249C96.2214 124.422 115.592 105.345 134.67 110.628L133.497 103.878C116.18 100.062 98.8634 115.031 81.5476 116.792Z" fill="#156C52"/>
<path d="M79.4912 116.792H81.5455C98.8621 115.032 116.177 100.063 133.495 103.879L132.455 97.0617C126.094 95.8682 119.699 97.5156 113.831 99.1852C106.786 101.533 100.037 105.055 92.9922 107.403C86.8285 109.457 80.6657 110.925 74.502 110.044C74.7958 112.392 75.3826 114.447 75.6756 116.501C76.9103 116.879 78.2134 116.978 79.4912 116.792Z" fill="#FFCE15"/>
<path d="M138.261 129.707L137.585 129.904L128.745 73.9421L127.145 71.594L128.318 68.3652L130.372 71.3002L129.492 73.6483L138.261 129.707Z" fill="#FFCE15"/>
<path d="M175.219 32.766C198.949 39.6982 217.609 63.3893 217.609 63.3893L206.275 77.3082L193.945 75.5358L198.682 68.2266M163.05 49.1515L171.993 45.7066L176.007 28.26C176.007 28.26 164.695 23.9238 149.931 23.9238C135.166 23.9238 123.854 28.26 123.854 28.26L127.868 45.7066L136.811 49.1515M171.915 45.5495C171.915 45.5495 162.622 41.8341 149.931 41.8341C137.24 41.8341 127.947 45.5495 127.947 45.5495M206.414 76.7585C206.414 76.7585 190.234 54.8498 162.955 49.2965L163.753 43.1538M124.642 32.766C100.913 39.6982 82.252 63.3893 82.252 63.3893L93.5866 77.3082L105.917 75.5358L101.179 68.2266M93.4474 76.7585C93.4474 76.7585 109.628 54.8498 136.907 49.2965L136.109 43.1538" stroke="black" stroke-width="0.841922"/>
<path d="M185.738 99.4777C183.556 98.6527 181.294 98.0623 178.987 97.7164H178.695C177.521 97.4225 176.641 97.4225 175.466 97.127H168.424C168.01 97.0839 167.594 97.188 167.25 97.4208L170.476 77.7586C176.64 77.4648 183.096 79.2261 189.259 81.5742C188.379 87.4441 186.912 93.314 185.738 99.4777Z" fill="#D21B33"/>
<path d="M177.519 90.9656L173.113 93.6067C173.994 92.1393 174.581 90.378 175.461 88.9105C174.306 87.8111 173.228 86.6345 172.232 85.3887C173.804 85.3403 175.376 85.4386 176.929 85.6826C177.829 84.1782 178.615 82.6084 179.28 80.9863C179.621 82.7282 179.818 84.4952 179.869 86.2694C181.337 86.5632 183.098 87.15 184.566 87.443C183.044 88.0061 181.572 88.6932 180.163 89.4973C180.504 91.1401 180.701 92.8095 180.753 94.4865C179.61 93.3751 178.532 92.1992 177.524 90.9648" fill="white"/>
<path d="M188.084 87.4441C188.378 85.3898 188.965 83.3355 189.258 81.5742C202.466 86.5634 215.38 94.1946 228.587 90.379C228.293 92.7271 227.706 94.7814 227.413 97.1295C225.575 97.4863 223.709 97.6835 221.837 97.7189C210.684 98.0102 199.531 91.5535 188.084 87.4441Z" fill="#156C52"/>
<path d="M206.283 100.944C199.826 98.5963 193.369 95.6613 186.912 93.3132C187.206 91.2589 187.793 89.2047 188.086 87.4434C199.239 91.5519 210.685 98.0095 221.838 97.7148C223.709 97.6487 225.572 97.4518 227.415 97.1254C227.121 99.4736 226.535 101.528 226.242 103.876C219.784 104.76 213.034 103.293 206.283 100.944Z" fill="#FFCE15"/>
<path d="M206.575 107.694C199.53 105.346 192.781 101.824 185.736 99.4762C186.03 97.4219 186.617 95.3676 186.91 93.3125C193.367 95.6606 199.824 98.5956 206.281 100.944C213.032 103.292 219.489 104.763 226.239 103.584C225.946 105.638 225.359 107.986 225.066 110.041C218.902 111.216 212.738 109.748 206.575 107.694Z" fill="#156C52"/>
<path d="M218.314 116.794H223.891C223.597 118.848 223.01 121.196 222.717 123.251C203.64 124.424 184.269 105.347 165.191 110.63L166.365 103.88C183.682 100.064 200.998 115.033 218.314 116.794Z" fill="#156C52"/>
<path d="M220.369 116.792H218.315C200.998 115.032 183.684 100.063 166.365 103.879L167.406 97.0617C173.767 95.8682 180.162 97.5157 186.03 99.1852C193.074 101.533 199.824 105.055 206.868 107.403C213.032 109.457 219.195 110.925 225.359 110.044C225.065 112.392 224.478 114.447 224.185 116.501C222.95 116.879 221.647 116.978 220.369 116.792Z" fill="#FFCE15"/>
<path d="M161.6 129.707L162.276 129.904L171.116 73.9421L172.716 71.594L171.543 68.3652L169.489 71.3002L170.369 73.6483L161.6 129.707Z" fill="#FFCE15"/>
<path d="M93.0567 59.6314L91.8461 60.8083L97.4412 66.5638L96.4787 67.4995L90.8835 61.744L89.6729 62.9209L88.8047 62.0278L92.1885 58.7383L93.0567 59.6314Z" fill="black"/>
<path d="M103.382 61.3753L102.308 62.2266L98.6343 59.576L97.6366 60.3671L100.345 63.783L99.3043 64.6085L93.543 57.3431L95.7117 55.6233C96.2829 55.1704 96.8824 54.9835 97.5103 55.0626C98.1454 55.1359 98.6951 55.4653 99.1595 56.0509C99.4633 56.4341 99.6523 56.8729 99.7266 57.3675C99.8023 57.8491 99.727 58.2738 99.5007 58.6417L103.382 61.3753ZM98.1144 56.8267C97.8965 56.552 97.6378 56.4039 97.3382 56.3824C97.0386 56.361 96.7478 56.462 96.4658 56.6856L95.3923 57.5369L96.8111 59.3261L97.8847 58.4748C98.1449 58.2685 98.2966 58.0069 98.3398 57.69C98.3901 57.3675 98.315 57.0797 98.1144 56.8267Z" fill="black"/>
<path d="M108.779 57.3717L107.676 58.1366L105.698 56.4259L104.072 57.5534L105.003 59.9896L103.911 60.7466L100.527 51.8096L101.596 51.0684L108.779 57.3717ZM104.695 55.5381L102.616 53.7294L103.604 56.2951L104.695 55.5381Z" fill="black"/>
<path d="M108.416 46.6289L110.868 55.8651L109.862 56.4196L103.398 49.3947L104.562 48.7534L108.808 53.3029L107.241 47.2769L108.416 46.6289Z" fill="black"/>
<path d="M117.548 51.7903L116.399 52.4851L114.532 50.6548L112.839 51.6791L113.617 54.1685L112.48 54.8561L109.658 45.7261L110.771 45.0527L117.548 51.7903ZM113.586 49.7065L111.624 47.772L112.45 50.3941L113.586 49.7065Z" fill="black"/>
<path d="M119.704 50.5046L118.537 51.0797L114.438 42.7626L115.604 42.1875L119.704 50.5046Z" fill="black"/>
<path d="M125.06 48.4743L120.619 50.0728L117.479 41.3485L118.729 40.8984L121.429 48.3988L124.619 47.2503L125.06 48.4743Z" fill="black"/>
<path d="M136.201 39.1759L131.565 40.0567L129.834 30.9472L131.139 30.6992L132.627 38.5307L135.958 37.8979L136.201 39.1759Z" fill="black"/>
<path d="M138.704 38.4522L137.411 38.6006L136.354 29.3887L137.646 29.2402L138.704 38.4522Z" fill="black"/>
<path d="M145.016 35.2064C145.09 36.052 144.909 36.7187 144.475 37.2063C144.041 37.6939 143.461 37.9733 142.736 38.0445L140.091 38.3041L139.186 29.0759L141.83 28.8164C142.555 28.7452 143.156 28.9179 143.633 29.3347C144.109 29.7423 144.379 30.3184 144.442 31.063C144.543 31.9987 144.28 32.7107 143.651 33.1988C144.449 33.4913 144.904 34.1605 145.016 35.2064ZM143.148 31.1901C143.103 30.8329 142.969 30.554 142.746 30.3535C142.53 30.1429 142.285 30.0511 142.009 30.0781L140.618 30.2146L140.866 32.7352L142.257 32.5986C142.542 32.5707 142.773 32.4228 142.95 32.1551C143.127 31.8782 143.193 31.5565 143.148 31.1901ZM143.736 35.3459C143.698 34.951 143.545 34.623 143.278 34.3618C143.012 34.1006 142.69 33.9838 142.312 34.0116L140.99 34.1414L141.272 37.02L142.608 36.8889C142.956 36.8363 143.24 36.6647 143.462 36.374C143.684 36.0834 143.775 35.7407 143.736 35.3459Z" fill="black"/>
<path d="M151.2 37.7412H146.48V28.4688H150.84V29.7697H147.809V32.1085H149.733V33.3818H147.809V36.4403H151.2V37.7412Z" fill="black"/>
<path d="M157.765 38.1263L156.401 37.9983L155.582 33.5428L154.314 33.4239L153.907 37.7642L152.584 37.6401L153.45 28.4082L156.206 28.6668C156.932 28.7349 157.494 29.0147 157.893 29.5062C158.301 29.9985 158.47 30.6167 158.4 31.3608C158.354 31.8477 158.187 32.2953 157.898 32.7038C157.62 33.1039 157.272 33.3585 156.854 33.4676L157.765 38.1263ZM157.108 31.1979C157.141 30.8489 157.057 30.5629 156.855 30.3402C156.654 30.1174 156.374 29.9892 156.016 29.9556L154.652 29.8276L154.438 32.1011L155.802 32.2291C156.133 32.2601 156.424 32.1762 156.674 31.9773C156.933 31.7792 157.078 31.5194 157.108 31.1979Z" fill="black"/>
<path d="M164.194 31.0735L162.524 30.827L161.352 38.7679L160.024 38.572L161.196 30.631L159.525 30.3846L159.707 29.1523L164.376 29.8413L164.194 31.0735Z" fill="black"/>
<path d="M167.408 30.3127L166.639 30.1351L167.687 28.8574L169.184 29.2032L167.408 30.3127ZM167.881 40.2513L163.283 39.189L165.37 30.1545L169.618 31.1358L169.325 32.4034L166.372 31.7211L165.846 34L167.72 34.433L167.433 35.6736L165.559 35.2405L164.871 38.2206L168.174 38.9838L167.881 40.2513Z" fill="black"/>
<path d="M182.722 43.8812C182.867 43.5619 182.881 43.2641 182.763 42.9878C182.645 42.7115 182.422 42.499 182.095 42.3504L180.847 41.7844L179.903 43.8639L181.151 44.4299C181.454 44.5671 181.756 44.5826 182.057 44.4762C182.367 44.3736 182.589 44.1753 182.722 43.8812ZM180.514 45.5998L179.355 45.0738L177.554 49.0439L176.344 48.4951L180.174 40.0508L182.695 41.1942C183.359 41.4953 183.799 41.9432 184.015 42.5379C184.24 43.1364 184.199 43.7759 183.89 44.4565C183.607 45.0576 183.169 45.4871 182.576 45.7449C181.991 46.0064 181.304 45.9581 180.514 45.5998Z" fill="black"/>
<path d="M186.08 53.6067L184.897 52.9717L185.522 50.4326L183.779 49.4965L182.032 51.4333L180.861 50.8049L187.284 43.7285L188.43 44.3439L186.08 53.6067ZM185.857 49.1359L186.523 46.4618L184.687 48.5074L185.857 49.1359Z" fill="black"/>
<path d="M194.283 48.9976L192.831 48.1374L188.741 55.0444L187.586 54.3605L191.675 47.4535L190.223 46.5933L190.857 45.5215L194.918 47.9258L194.283 48.9976Z" fill="black"/>
<path d="M194.947 59.2823L193.827 58.4932L195.331 54.22L194.29 53.4867L191.779 57.0506L190.693 56.2854L196.034 48.7051L198.296 50.2992C198.892 50.7189 199.241 51.2411 199.343 51.8658C199.452 52.4957 199.291 53.1162 198.861 53.7271C198.579 54.1269 198.212 54.4323 197.758 54.6433C197.318 54.8521 196.889 54.9 196.472 54.7869L194.947 59.2823ZM197.821 52.944C198.023 52.6574 198.092 52.3673 198.028 52.0739C197.964 51.7804 197.785 51.53 197.491 51.3228L196.37 50.5337L195.055 52.4005L196.175 53.1896C196.447 53.3809 196.741 53.4525 197.057 53.4043C197.38 53.3614 197.635 53.208 197.821 52.944Z" fill="black"/>
<path d="M196.749 60.6188L195.736 59.8018L201.56 52.5859L202.572 53.4029L196.749 60.6188Z" fill="black"/>
<path d="M200.943 64.7017L197.488 61.4862L203.806 54.6992L206.997 57.6695L206.111 58.6218L203.892 56.5567L202.299 58.2686L203.707 59.5793L202.839 60.5113L201.431 59.2006L199.347 61.4393L201.829 63.7495L200.943 64.7017Z" fill="black"/>
</svg>
