<svg width="300" height="300" viewBox="0 0 300 300" fill="none" xmlns="http://www.w3.org/2000/svg">
<path fill-rule="evenodd" clip-rule="evenodd" d="M150.034 297.999C169.686 293.008 186.572 280.628 202.809 266.52C219.967 250.188 242.912 213.869 242.912 179.846C242.839 153.596 226.093 146.266 226.093 128.528C226.093 102.019 232.825 97.0334 238.168 83.684C218.104 80.6043 206.236 69.3284 194.616 57.8086C164.46 72.4325 135.568 71.5604 105.296 57.8086C93.6757 69.3284 81.8082 80.6043 61.7445 83.684C67.0867 97.0334 73.8193 102.019 73.8193 128.528C73.8193 146.266 57.0732 153.596 57 179.846C57 213.869 79.9452 250.325 97.1029 266.656C113.34 280.765 130.909 293.008 150.564 297.999" fill="#EBC440"/>
<path d="M150.034 297.999C169.686 293.008 186.572 280.628 202.809 266.52C219.967 250.188 242.912 213.869 242.912 179.846C242.839 153.596 226.093 146.266 226.093 128.528C226.093 102.019 232.825 97.0334 238.168 83.684C218.104 80.6043 206.236 69.3284 194.616 57.8086C164.46 72.4325 135.568 71.5604 105.296 57.8086C93.6757 69.3284 81.8082 80.6043 61.7445 83.684C67.0867 97.0334 73.8193 102.019 73.8193 128.528C73.8193 146.266 57.0732 153.596 57 179.846C57 213.869 79.9452 250.325 97.1029 266.656C113.34 280.765 130.909 293.008 150.564 297.999" stroke="black" stroke-width="2.34483"/>
<path fill-rule="evenodd" clip-rule="evenodd" d="M77.9531 234.111H103.533C95.7543 242.768 85.6005 241.832 77.9531 234.111Z" fill="black" stroke="black" stroke-width="0.493969"/>
<path fill-rule="evenodd" clip-rule="evenodd" d="M102.003 234.929L91.4373 188.014L79.9297 234.959L102.003 234.929Z" stroke="black" stroke-width="1.60387" stroke-linejoin="round"/>
<path fill-rule="evenodd" clip-rule="evenodd" d="M119.238 138.195L110.813 117.881L86.9805 102.15C100.061 108.773 110.926 116.436 133.154 118.75L133.368 122.153C143.762 123.495 154.328 124.138 165.287 123.217L166.988 118.961C182.472 119.299 197.044 117.204 210.823 113.002C206.518 117.396 205.64 122.333 191.248 125.132L184.225 138.75L119.238 138.195Z" fill="#D35227" stroke="black" stroke-width="0.304919"/>
<path d="M154.433 119.816L148.899 119.175M154.326 117.58L149.219 117.047M154.22 115.452L149.326 114.919M154.113 113.644L149.539 113.324M154.113 112.046L149.752 111.939M156.985 114.601L160.498 114.281M156.985 116.94L160.922 116.623M156.985 119.068L161.135 118.855M157.199 121.197L161.455 120.877M154.113 122.127L148.582 121.7M116.492 121.118L117.129 119.349M115.098 120.477L115.812 118.861M114.854 120.398L113.684 122.261M116.983 121.41L115.492 124.92M119.733 122.657L118.19 126.701M123.179 123.377L121.901 127.368M139.483 126.569L138.794 130.561M136.238 126.252L135.336 130.027M132.836 125.774L131.985 129.497M129.75 125.188L128.737 129.018" stroke="black" stroke-width="0.609838"/>
<path d="M196.65 119.688L196.876 123.825" stroke="black" stroke-width="2.13443"/>
<path d="M86.8887 101.934C101.333 108.41 106.321 115.362 133.23 118.783L133.383 122.244" stroke="black" stroke-width="0.914757"/>
<path d="M86.8887 102.084L110.511 117.431C142.228 127.478 180.526 123.971 207.527 117.315" stroke="black" stroke-width="1.21968"/>
<path d="M165.28 123.299L167.085 119.086C181.52 119.177 196.184 116.988 211.021 113.066C209.28 115.234 204.776 121.122 199.48 123.086C185.115 128.41 126.013 131.599 110.66 117.43M110.66 117.43L118.936 137.442L122.848 137.14L110.66 117.43Z" stroke="black" stroke-width="1.21968"/>
<path d="M191.609 124.953L184.688 137.894" stroke="black" stroke-width="0.609838"/>
<path d="M189.278 129.242C163.152 133.596 136.353 131.922 116.012 126.059" stroke="black" stroke-width="1.21968"/>
<path d="M201.09 118.783L201.315 122.244" stroke="black" stroke-width="2.13443"/>
<path d="M126.451 124.44L125.28 128.325M113.596 119.65L114.084 118.446M154.22 124.068V70.2349L148.475 123.645M157.413 123.431L154.22 70.0215L161.88 123.645" stroke="black" stroke-width="0.609838"/>
<path d="M159.542 123.431L154.221 70.2344L151.242 123.644M156.776 112.258L160.393 111.938" stroke="black" stroke-width="0.609838"/>
<path d="M86.9805 101.94C115.033 84.1997 139.033 77.0554 152.733 78.7447C133.231 83.0837 117.716 97.3874 101.449 109.813M114.005 114.707C130.739 82.5562 157.679 76.7261 173.16 73.4238C158.902 95.0975 162.433 108.581 173.587 118.96M167.202 118.96C168.141 118.332 169.607 117.271 170.821 116.454C174.8 111.877 186.451 105.831 198.233 109.514L206.356 114.493L198.221 109.456C190.473 93.2314 197.456 81.1017 200.609 77.2536C183.521 80.3394 170.733 85.334 158.691 90.6609C158.011 105.562 162.978 111.685 167.202 118.96Z" stroke="black" stroke-width="0.914757"/>
<path fill-rule="evenodd" clip-rule="evenodd" d="M150.186 297.551V142.652Z" fill="#2282EA"/>
<path d="M150.186 297.551V142.652" stroke="black" stroke-width="1.82951"/>
<path fill-rule="evenodd" clip-rule="evenodd" d="M120.033 234.109H145.613C137.834 242.766 127.681 241.83 120.033 234.109Z" fill="black" stroke="black" stroke-width="0.493969"/>
<path fill-rule="evenodd" clip-rule="evenodd" d="M144.081 234.927L133.515 188.012L122.008 234.957L144.081 234.927Z" stroke="black" stroke-width="1.60387" stroke-linejoin="round"/>
<path fill-rule="evenodd" clip-rule="evenodd" d="M110.617 255.163C112.057 257.503 111.713 263.909 112.505 263.921C113.329 263.933 112.848 257.451 114.368 254.9L112.194 178.256L110.617 255.163Z" fill="black"/>
<path fill-rule="evenodd" clip-rule="evenodd" d="M110.623 179.548H113.77L112.218 170.705L110.623 179.548Z" fill="black" stroke="black" stroke-width="0.429936" stroke-linejoin="round"/>
<path d="M185.203 113.125L179.672 112.488M185.096 110.89L179.989 110.359M187.758 110.253L191.695 109.932M187.758 112.381L191.905 112.168M187.969 114.506L192.225 114.189M184.883 114.826L179.352 114.403M184.99 118.068V74.6777L179.053 118.37M188.24 117.516L184.99 74.7662L192.652 116.955M190.374 117.238L184.904 74.6777L181.928 118.181" stroke="black" stroke-width="0.609838"/>
<path fill-rule="evenodd" clip-rule="evenodd" d="M160.804 177.963L164.048 180.454C162.53 181.879 161.046 195.069 161.046 195.069C161.046 195.069 161.504 196.712 161.289 197.585C161.237 197.797 163.146 197.665 163.107 197.893C163.092 197.981 163.722 199.131 163.232 199.261C162.301 199.509 159.798 199.006 159.755 199.164C159.702 198.978 157.258 199.561 156.194 199.165C155.712 198.986 156.118 197.734 156.101 197.644C156.055 197.403 159.164 197.655 159.106 197.429C157.248 190.162 157.256 183.163 160.804 177.963Z" fill="#B8BCDE"/>
<path d="M190.817 257.69C190.256 257.068 190.131 255.041 190.637 254.73C191.485 253.498 191.613 253.092 193.296 253.065C194.848 253.065 195.18 252.955 195.897 252.208C196.348 251.738 196.717 251.129 196.717 250.854C197.974 249.269 198.135 247.241 198.897 245.478C199.178 245.03 199.132 244.759 198.669 244.128C197.705 242.816 196.757 242.6 192.665 242.765C188.253 242.941 186.935 243.381 186.213 244.908C185.591 246.299 184.173 247.116 183.606 248.512C182.728 249.787 182.862 251.452 181.776 252.607C181.142 253.214 180.861 253.775 180.861 254.434C180.791 255.73 180.255 256.767 178.849 257.334H168.36V255.715C168.259 253.345 170.043 252.193 172.205 252.15C173.815 252.15 174.138 252.046 174.858 251.293C176.062 249.732 176.367 247.643 177.065 245.814C177.373 245.375 177.507 244.64 177.446 243.713C177.361 242.411 177.251 242.231 176.135 241.591C174.964 240.255 170.339 241.841 170.189 240.173C170.814 237.98 173.671 237.108 173.848 234.733C173.781 233.004 175.425 229.345 176.705 229.281H180.855C185.252 229.281 185.74 229.138 185.74 227.854C185.74 227.095 184.124 224.735 183.148 224.067C178.898 223.052 174.385 224.186 170.391 222.033C169.292 221.131 168.611 220.645 167.591 219.603C167.415 219.424 166.031 220.266 165.369 219.481C164.708 218.696 165.644 218.067 165.634 217.825C165.614 217.353 165.76 217.187 165.357 217.04C165.133 216.959 164.303 217.639 163.826 216.864C163.348 216.088 164.338 215.713 164.063 215.282C163.731 214.762 163.474 215.724 163.054 214.862C162.729 214.194 163.385 214.133 163.266 213.813C163.093 213.348 162.959 212.87 162.871 212.379C162.871 211.849 162.707 211.248 162.505 211.047C161.993 210.535 160.581 210.59 160.127 211.138C159.657 211.959 158.572 211.858 157.383 211.596V205.839C157.383 201.094 157.589 200.239 157.967 199.928C158.162 199.765 155.251 199.76 155.377 199.473C155.505 199.182 155.521 197.199 155.572 196.873C155.627 196.515 158.607 197.177 158.558 196.892C157.898 193.02 158.121 191.726 157.824 189.029C157.995 180.189 160.252 176.2 160.252 176.2L165.305 180.485C161.607 185.164 161.647 191.318 161.739 197.062C161.756 197.202 163.956 196.971 163.974 197.096C164.009 197.341 164.07 199.872 164.07 199.872C164.07 199.872 162.695 199.693 162.204 199.887C163.788 200.414 163.448 200.448 163.481 202.39C163.527 205.836 164.124 204.513 164.335 205.592C164.612 207.025 165.378 206.738 166.326 206.412C168.448 206.522 170.226 208.062 172.113 206.47C173.007 205.534 173.208 204.046 172.623 202.903C170.439 200.564 171.159 197.146 172.552 194.584C173.379 193.743 174.787 191.907 174.763 191.553C174.638 189.959 170.33 189.672 172.476 186.897C173.098 186.379 173.08 184.046 172.449 183.522C171.128 182.75 171.086 184.406 170.519 185.068C170.08 185.068 169.275 183.958 169.275 183.354C169.275 182.644 171.979 179.884 172.677 179.884C172.943 179.884 173.333 179.677 173.543 179.427C173.751 179.174 174.355 178.969 174.885 178.969C177.513 178.665 178.187 176.734 179.468 175.31C181.828 175.807 185.502 174.298 187.57 175.768C188.073 176.375 190.418 176.375 190.924 175.768C191.881 175.332 193.049 174.063 193.973 174.853C194.494 175.326 194.583 175.792 194.583 178.152C194.583 180.284 194.318 181.513 194.709 181.946C195.178 182.464 196.422 182.76 196.114 184.251C196.294 185.108 194.433 186.182 195.04 186.685C195.299 188.048 195.641 187.803 196.87 188.727C197.455 189.215 197.455 190.373 196.87 190.861C196.287 191.343 195.91 192.764 196.492 193.248C196.98 193.809 197.755 193.432 197.992 194.537C198.229 195.641 197.707 196.048 197.237 196.569C196.629 197.603 196.812 197.596 196.958 198.421C197.004 198.684 198.085 198.647 198.146 199.815C198.196 200.786 196.967 200.821 196.794 201.152C196.211 201.634 196.287 201.963 196.87 202.448C197.812 203.232 197.022 205.193 195.763 205.193C194.967 205.193 194.583 205.891 194.583 207.321C194.583 207.949 195.726 208.044 194.942 209.401C194.294 210.524 193.636 209.654 192.753 210.529C191.479 211.242 191.29 212.745 190.466 213.73C189.61 214.441 189.924 215.654 191.314 217.02C193.961 219.24 195.199 221.588 204.203 221.048C212.735 215.666 207.371 208.763 203.932 202.506C202.633 200.134 201.474 198.804 200.864 192.968C200.154 186.159 202.697 179.067 209.814 178.969C212.997 178.924 213.968 178.465 216.575 181.249C216.898 181.509 217.232 181.838 217.556 182.225C217.863 182.59 218.585 181.555 219.234 182.629C219.467 183.015 218.796 184.122 218.952 184.476C219.912 186.651 220.174 189.466 218.374 192.197C216.859 196.167 210.125 197.829 208.438 193.978C207.219 191.197 208.519 187.057 209.571 188.279C210.623 189.502 209.873 192.424 212.257 191.565C214.641 190.705 214.913 189.684 215.225 188.779C215.405 188.256 213.778 188.25 213.431 186.849C213.085 185.447 214.63 185.962 214.483 185.605C213.576 183.394 211.376 182.567 208.609 183.696C205.658 184.897 204.589 187.08 205.339 190.985C205.415 191.377 206.665 191.329 207.171 191.998C207.678 192.667 205.748 194.131 205.805 194.382C206.183 196.049 206.752 197.701 207.435 199.173C209.082 202.72 211.265 206.043 213.21 209.461C214.711 211.834 215.073 214.285 214.366 217.307C213.54 220.121 211.899 222.692 210.134 225.012C208.179 227.238 210.497 226.979 210.408 227.878C210.801 228.967 209.015 229.208 208.945 230.464C208.999 231.861 213.838 234.809 211.073 235.38C209.387 235.38 209.219 235.587 209.219 237.666C208.816 239.057 209.951 239.648 210.134 240.801C210.134 241.496 209.57 242.222 207.368 244.378C205.847 245.866 204.407 247.552 204.166 248.128C203.883 248.805 203.73 250.272 203.73 252.278C203.856 253.806 204.208 257.466 202.964 257.487L190.817 257.69ZM160.911 191.925C161.02 187.054 161.401 186.311 162.052 184.075L163.484 180.979C162.667 180.189 161.947 179.262 160.975 178.665C158.262 182.924 159.187 198.034 159.187 198.034L156.82 197.886L156.766 198.927L162.74 198.923L162.679 197.941L161.11 197.921C161.11 197.921 160.71 194.166 160.911 191.925Z" fill="black"/>
<path fill-rule="evenodd" clip-rule="evenodd" d="M184.865 74.7171C181.432 74.1256 176.085 76.1946 173.74 76.9112C176.338 76.8197 181.726 76.4028 184.735 76.5218L184.865 74.7171ZM154.249 70.0854C150.123 71.1923 139.664 70.6828 137.139 69.5059C133.337 70.8841 124.144 74.4299 120.342 75.3721C123.925 75.116 132.899 75.159 136.067 73.6496C139.186 74.6406 149.806 73.6727 153.837 72.3829L154.249 70.0854Z" fill="#E70013"/>
<path d="M73.2714 134.927L69.6758 143.02H230.592C228.515 140.022 226.606 137.355 226.662 133.51C226.101 133.526 226.693 135.371 225.486 135.371C224.278 135.371 223.222 132.836 221.561 132.836C219.901 132.836 220.656 135.482 219.448 135.592C218.24 135.702 217.486 133.056 215.674 132.946C213.863 132.836 213.863 135.702 212.655 135.702C211.448 135.702 210.24 133.056 208.882 132.946C207.523 132.836 207.825 135.371 206.467 135.371C205.108 135.371 204.957 132.615 203.146 132.836C201.334 133.056 201.032 135.151 199.674 135.261C198.315 135.371 197.863 132.946 196.806 133.056C195.749 133.166 194.24 135.592 193.183 135.702C192.127 135.812 191.674 132.725 190.013 132.836C188.353 132.946 184.73 136.474 183.221 136.805C181.711 137.135 181.56 134.269 180.504 134.048C179.447 133.828 180.504 136.143 178.692 136.364C176.881 136.584 176.428 135.371 174.768 135.371C173.107 135.371 172.353 133.607 171.447 133.387C170.541 133.166 168.277 134.93 166.767 135.041C165.258 135.151 164.05 132.615 163.145 132.615C162.239 132.615 159.975 134.71 158.314 134.159C156.654 133.607 156.201 132.505 155.597 132.505C154.994 132.505 152.729 134.489 150.767 134.269C148.805 134.048 150.465 132.505 148.503 132.505C146.541 132.505 147.597 134.048 146.39 134.6C145.182 135.151 142.465 133.277 141.559 132.725C140.654 132.174 140.503 134.379 138.691 134.379C136.88 134.379 136.88 132.505 136.125 132.394C135.371 132.284 134.918 134.6 133.257 134.269C131.597 133.938 131.748 132.836 131.144 132.725C130.54 132.615 131.899 134.71 129.786 134.93C127.672 135.151 126.012 132.394 125.408 132.284C124.804 132.174 126.314 133.938 125.861 134.6C125.408 135.261 122.389 135.592 120.578 135.592C118.766 135.592 118.163 133.718 117.257 133.497C116.351 133.277 115.898 135.482 114.691 135.482C113.483 135.482 113.332 133.166 111.521 133.166C109.71 133.166 109.408 135.151 107.898 135.151C106.389 135.151 106.993 133.056 105.181 133.277C103.37 133.497 102.162 135.482 100.955 135.702C99.7471 135.923 100.049 132.946 98.2376 132.946C96.4262 132.946 96.5772 135.702 95.2187 135.702C93.8601 135.702 94.0111 132.946 91.8978 133.056C89.7846 133.166 89.0298 135.812 87.5204 135.812C86.0109 135.812 86.3128 133.387 84.6524 133.387C82.992 133.387 83.5958 135.923 81.1806 135.923C78.7655 135.923 80.878 133.121 77.859 133.452C74.8401 133.782 76.2903 136.801 73.2714 134.927Z" fill="#2368D0" stroke="black" stroke-width="1.05785"/>
<path d="M112.206 182.348L111.768 183.491C111.768 183.491 114.244 184.455 116.913 185.425C118.248 185.911 119.633 186.402 120.782 186.769C121.356 186.952 121.876 187.106 122.306 187.217C122.736 187.327 123.047 187.398 123.364 187.398C124.274 187.398 124.886 187.339 125.394 187.122C125.901 186.904 126.229 186.477 126.413 186.064C126.651 185.529 126.523 184.921 126.213 184.549C125.997 184.289 125.808 184.151 125.386 184.034C125.496 183.981 125.638 183.915 125.737 183.91C126.551 183.873 127.92 184.717 129.215 185.702C129.862 186.194 130.494 186.697 131.101 187.102C131.708 187.508 132.27 187.845 132.921 187.874C134.766 187.958 135.721 187.089 136.218 186.426C136.677 185.814 136.659 185.065 136.447 184.454C136.341 184.148 136.178 183.866 135.913 183.644C135.649 183.422 135.164 183.238 134.837 183.405C134.254 183.704 134.061 185.21 134.061 185.21C134.061 185.21 134.741 184.49 135.142 184.596C135.428 184.915 135.336 185.314 135.246 185.702C134.824 186.264 134.488 186.723 132.979 186.655C132.792 186.646 132.32 186.454 131.778 186.092C131.236 185.731 130.609 185.232 129.948 184.73C128.627 183.725 127.21 182.621 125.68 182.691C124.863 182.728 124.26 183.102 123.888 183.672C123.392 184.434 123.783 185.535 123.783 185.535C123.783 185.535 124.328 185.217 124.681 185.319C125.042 185.644 125.068 185.672 124.513 186.118C124.287 186.215 124.208 186.178 123.364 186.178C123.315 186.178 122.995 186.136 122.602 186.035C122.209 185.934 121.714 185.786 121.153 185.606C120.032 185.248 118.659 184.764 117.332 184.282C114.68 183.318 112.206 182.348 112.206 182.348Z" fill="black"/>
<path d="M112.367 182.348L112.806 183.491C112.806 183.491 110.33 184.455 107.66 185.425C106.325 185.911 104.94 186.402 103.791 186.769C103.217 186.952 102.697 187.106 102.267 187.217C101.837 187.327 101.527 187.398 101.209 187.398C100.299 187.398 99.687 187.339 99.1795 187.122C98.6721 186.904 98.3437 186.477 98.16 186.064C97.9224 185.529 98.05 184.921 98.3601 184.549C98.5767 184.289 98.7654 184.151 99.1874 184.034C99.077 183.981 98.9354 183.915 98.8365 183.91C98.0223 183.873 96.6528 184.717 95.3585 185.702C94.7114 186.194 94.0789 186.697 93.4718 187.102C92.8647 187.508 92.3036 187.845 91.6518 187.874C89.8072 187.958 88.8522 187.089 88.3549 186.426C87.8958 185.814 87.9138 185.065 88.1262 184.454C88.2324 184.148 88.3953 183.866 88.6598 183.644C88.9244 183.422 89.4094 183.238 89.7366 183.405C90.3194 183.704 90.5123 185.21 90.5123 185.21C90.5123 185.21 89.8321 184.49 89.4316 184.596C89.1449 184.915 89.2373 185.314 89.3268 185.702C89.7489 186.264 90.0852 186.723 91.5947 186.655C91.7814 186.646 92.2537 186.454 92.7953 186.092C93.3369 185.731 93.9641 185.232 94.6248 184.73C95.9461 183.725 97.3635 182.621 98.8937 182.691C99.7104 182.728 100.314 183.102 100.685 183.672C101.181 184.434 100.79 185.535 100.79 185.535C100.79 185.535 100.246 185.217 99.8923 185.319C99.5309 185.644 99.5053 185.672 100.06 186.118C100.287 186.215 100.366 186.178 101.209 186.178C101.258 186.178 101.579 186.136 101.971 186.035C102.364 185.934 102.859 185.786 103.42 185.606C104.542 185.248 105.915 184.764 107.241 184.282C109.893 183.318 112.367 182.348 112.367 182.348Z" fill="black"/>
<path d="M78.9535 160.673C73.7485 164.625 67.7813 169.836 65.7871 176.577C68.6503 174.153 72.1721 172.662 74.7365 171.51C72.0562 175.522 72.0075 180.554 71.8397 185.231C77.3557 178.687 83.9389 172.126 92.6108 170.259C94.4403 169.866 97.4255 169.93 97.9378 167.927C98.4043 166.106 95.4862 165.35 93.9921 165.247C92.312 165.131 89.1591 165.292 89.1591 165.292M115.459 143.326C115.434 147.113 120.096 149.058 123.316 149.196C138.421 146.229 155.503 146.777 170.798 148.234C172.252 148.407 173.721 148.376 175.179 148.467C176.338 148.54 178.674 148.894 179.82 149.098C180.964 149.299 185.595 145.665 186.958 143.549C188.321 141.432 187.263 138.868 185.04 137.892C179.774 135.23 171.518 135.511 165.782 134.852C159.824 134.477 153.851 134.352 147.877 134.413C140.184 134.617 130.396 135.676 122.743 136.441C119.157 136.74 115.483 139.539 115.459 143.326ZM115.352 143.649C104.005 145.109 90.4444 148.538 79.7859 156.596C78.8468 157.584 78.7096 159.179 79.3865 160.35C80.0604 161.52 86.3356 166.927 88.8359 165.402C94.3001 161.77 113.278 155.492 119.782 154.465C122.14 153.557 130.02 154.688 129.588 151.287C127.765 149.894 125.39 149.699 123.316 149.141M214.161 165.887C211.99 165.64 209.291 165.933 208.132 167.963C207.751 169.9 210.2 170.836 211.615 171.375C219.033 173.809 226.184 177.599 231.389 183.514C231.599 179.209 230.745 174.833 228.586 171.089C231.431 171.842 234.096 173.12 236.591 174.681C233.81 169.015 231.389 165.347 227.315 161.993C226.476 161.301 224.165 160.496 225.016 159.276M179.872 149.043C177.686 149.519 173.847 149.403 172.673 151.562C171.532 153.248 173.511 155.041 175.045 155.291C182.525 157.154 189.578 156.224 197.018 158.349C203.092 159.898 208.998 162.268 214.161 165.887C219.323 169.503 223.775 161.045 224.909 159.331C226.04 157.614 225.119 155.331 223.256 154.629C211.849 147.381 200.231 144.912 187.013 143.817" fill="#EBC440"/>
<path d="M78.9535 160.673C73.7485 164.625 67.7813 169.836 65.7871 176.577C68.6503 174.153 72.1721 172.662 74.7365 171.51C72.0562 175.522 72.0075 180.554 71.8397 185.231C77.3557 178.687 83.9389 172.126 92.6108 170.259C94.4403 169.866 97.4255 169.93 97.9378 167.927C98.4043 166.106 95.4862 165.35 93.9921 165.247C92.312 165.131 89.1591 165.292 89.1591 165.292M115.352 143.649C104.005 145.109 90.4444 148.538 79.7859 156.596C78.8468 157.584 78.7096 159.179 79.3865 160.35C80.0604 161.52 86.3356 166.927 88.8359 165.402C94.3001 161.77 113.278 155.492 119.782 154.465C122.14 153.557 130.02 154.688 129.588 151.287C127.765 149.894 125.39 149.699 123.316 149.141M214.161 165.887C211.99 165.64 209.291 165.933 208.132 167.963C207.751 169.9 210.2 170.836 211.615 171.375C219.033 173.809 226.184 177.599 231.389 183.514C231.599 179.209 230.745 174.833 228.586 171.089C231.431 171.842 234.096 173.12 236.591 174.681C233.81 169.015 231.389 165.347 227.315 161.993C226.476 161.301 224.165 160.496 225.016 159.276M214.161 165.887C208.998 162.268 203.092 159.898 197.018 158.349C189.578 156.224 182.525 157.154 175.045 155.291C173.511 155.041 171.532 153.248 172.673 151.562C173.847 149.403 177.686 149.519 179.872 149.043M214.161 165.887C219.323 169.503 223.775 161.045 224.909 159.331C226.04 157.614 225.119 155.331 223.256 154.629C211.849 147.381 200.231 144.912 187.013 143.817M115.459 143.326C115.434 147.113 120.096 149.058 123.316 149.196C138.421 146.229 155.503 146.777 170.798 148.234C172.252 148.407 173.721 148.376 175.179 148.467C176.338 148.54 178.674 148.894 179.82 149.098C180.964 149.299 185.595 145.665 186.958 143.549C188.321 141.432 187.263 138.868 185.04 137.892C179.774 135.23 171.518 135.511 165.782 134.852C159.824 134.477 153.851 134.352 147.877 134.413C140.184 134.617 130.396 135.676 122.743 136.441C119.157 136.74 115.483 139.539 115.459 143.326Z" stroke="black" stroke-width="1.5246"/>
<path fill-rule="evenodd" clip-rule="evenodd" d="M187.446 150.061C187.833 149.319 188.029 149.244 188.353 149.684C188.677 150.123 188.456 150.224 188.26 150.25C188.063 150.277 187.72 150.354 187.446 150.061ZM186.212 152.262C187.353 153.236 189.561 152.526 189.902 152.228C190.244 151.929 190.725 150.793 190.864 149.857C191.003 148.921 189.555 146.72 188.083 147.128C186.61 147.535 186.335 149.653 185.798 150.101C185.261 150.549 185.339 151.92 182.918 152.54C181.631 152.869 179.13 152.649 179.576 152.94C180.022 153.231 181.998 153.904 182.612 153.945C183.919 154.031 185.788 154.235 186.212 152.262ZM201.908 152.164C203.18 151.414 203.465 150.378 203.019 149.988C202.572 149.599 197.845 149.2 196.622 149.999C195.4 150.798 195.452 151.093 196.043 151.136C196.633 151.18 197.352 151.739 197.692 151.293C198.033 150.847 198.94 150.519 199.826 150.56C200.712 150.6 202.98 151.12 201.908 152.164ZM207.8 150.829L209.094 149.808L210.264 151.248L208.847 152.344L207.8 150.829ZM213.8 153.134L215.045 152.089L216.19 153.554L214.97 154.648L213.8 153.134ZM205.596 157.197C207.157 155.755 207.898 155.994 208.195 156.238C208.493 156.481 208.353 157.319 208.353 157.319C208.353 157.319 206.781 157.579 205.596 157.197ZM214.626 157.296L215.705 155.589C216.979 157.399 217.923 159.399 216.063 160.887C215.523 161.089 208.594 160.393 206.667 159.525C204.74 158.658 203.146 158.204 202.694 157.224C200.487 158.032 192.596 156.139 191.544 154.18C190.493 152.222 191.79 148.962 191.725 147.192L193.189 145.898C193.189 145.898 193.238 147.165 193.203 148.691C193.168 150.216 192.908 152.691 192.908 152.691C192.908 152.691 195.468 154.261 197.533 154.742C200.887 155.522 203.531 154.756 203.531 154.756L203.613 155.592C203.613 155.592 204.01 155.982 204.151 155.242C204.292 154.503 204.859 152.037 204.653 151.055C204.447 150.073 205.82 149.568 205.82 149.568C205.82 149.568 206.38 151.58 205.999 152.912C205.618 154.244 205.136 155.332 205.136 155.332C205.136 155.332 206.753 154.627 207.538 154.374C208.323 154.121 209.845 153.811 209.845 153.811C209.845 153.811 211.379 154.682 211.388 155.666C211.397 156.65 209.837 158.141 209.837 158.141C209.837 158.141 211.76 158.566 212.498 158.608C213.237 158.65 214.715 158.833 215.008 158.584C215.3 158.336 215.064 158.092 214.626 157.296Z" fill="black"/>
<path d="M125.04 137.783L126.356 138.963L125.074 140.425L123.612 139.25L125.04 137.783ZM128.458 137.5L127.022 138.748L128.369 139.946L129.828 138.695L128.458 137.5ZM143.603 143.712L142.298 145.183L143.692 146.496L145.116 144.788L143.603 143.712ZM146.94 143.444C146.855 143.53 145.601 144.815 145.601 144.815L147.115 146.177L148.432 144.556L146.94 143.444ZM138.102 138.724C143.166 137.653 145.677 137.117 145.848 137.158C146.019 137.199 147.053 138.341 146.501 138.517C145.948 138.692 138.708 139.699 138.409 139.659C138.11 139.619 136.999 139.416 138.102 138.724ZM149.779 137.974L150.745 136.43C150.745 136.43 153.195 138.453 152.998 140.204C152.802 141.954 151.02 142.909 150.466 142.957C149.912 143.005 140.5 144.33 138.368 144.393C136.237 144.456 131.373 144.203 130.878 141.478C129.648 142.13 128.557 146.329 126.664 146.849C124.233 147.517 122.392 145.306 124.405 142.35C124.812 144.819 126.686 145.238 127.398 143.711C128.68 140.962 128.938 139.877 131.829 138.723C132.019 140.853 132.412 141.336 133.566 141.624C134.72 141.911 139.583 142.079 143.118 141.576C146.653 141.074 150.402 140.74 150.781 140.267C151.161 139.795 150.861 139.67 149.779 137.974ZM163.292 137.463C163.292 137.463 164.265 136.601 164.819 136.595C165.374 136.59 168.111 137.503 168.116 138.014C168.121 138.526 165.873 139.826 164.938 140.091C164.002 140.356 162.042 140.502 161.182 139.785C160.322 139.069 160.746 138.766 161.472 138.845C162.197 138.923 163.693 139.25 164.416 139.03C165.139 138.81 164.658 137.62 163.292 137.463ZM168.653 140.696C170.94 139.011 172.049 139.001 172.434 139.168C172.819 139.334 174.624 140.725 176.375 141.049C178.127 141.374 180.521 142.076 180.521 142.076L178.109 144.061C178.109 144.061 175.587 143.36 174.522 143.54C173.458 143.721 170.01 144.436 166.682 144.211C163.354 143.987 158.446 143.607 157.712 142.59C157.13 144.259 156.197 144.822 155.305 145.129C154.412 145.436 150.743 145.214 150.487 145.217C150.231 145.219 155.203 143.381 155.621 142.439C156.038 141.497 154.915 139.93 154.915 139.93L156.053 138.512C156.053 138.512 156.958 139.527 157.774 140.201C158.591 140.876 160.777 142.049 165.938 142.129C171.098 142.208 173.479 141.46 174.035 141.583C172.578 140.829 172.578 140.872 171.681 140.752C170.785 140.633 169.802 140.386 168.653 140.696ZM94.9539 151.874C94.025 153.223 94.5793 154.859 95.0651 155.2C96.16 155.97 97.5657 155.49 97.1914 154.449C96.8171 153.407 96.8648 153.245 96.3018 152.983C95.7388 152.721 96.674 153.954 96.0533 154.15C95.6144 154.288 95.1939 153.97 95.1465 153.731C95.0334 153.162 95.0144 151.897 94.9539 151.874ZM87.1922 152.59L89.2152 152.744L89.1912 155.241L86.7604 155.23C86.7604 155.23 86.6155 153.487 87.1922 152.59ZM90.3651 150.667C90.3651 150.667 89.5404 152.691 89.7987 152.715C90.0569 152.739 91.7313 153.431 92.0624 153.279C92.3935 153.127 92.6871 151.267 92.6871 151.267L90.3651 150.667ZM97.1853 149.019L96.0713 150.767C96.0713 150.767 98.7072 154.126 98.68 154.341C98.6528 154.557 97.3989 156.144 96.4908 156.594C95.5826 157.044 94.2856 157.437 93.9392 157.376C93.5928 157.316 91.8416 154.962 91.7926 154.281C91.7436 153.601 89.8157 155.92 89.6159 157.303C89.4162 158.685 89.1881 159.798 88.9126 160.004C87.3257 161.189 86.1327 159.99 86.05 158.842C85.9674 157.694 85.1044 162.929 88.0786 162.672C91.0528 162.415 90.8949 157.253 91.375 157.39C91.8551 157.526 92.5002 159.361 93.2447 159.606C93.9892 159.852 97.0239 159.249 97.9624 158.626C98.9008 158.002 100.51 156.005 100.464 155.367C100.418 154.729 98.1156 150.064 97.1853 149.019ZM101.559 147.422C101.559 147.422 100.673 148.768 100.843 148.756C101.013 148.744 102.19 150.241 102.64 151.149C103.09 152.057 104.237 154.925 104.222 154.712C104.206 154.499 105.099 152.64 105.099 152.64C105.099 152.64 103.203 148.287 101.559 147.422ZM111.72 149.747C112.513 150.374 114.418 149.959 114.418 149.959L116.471 148.486L117.18 150.615C117.18 150.615 115.183 151.978 114.244 153.178C113.304 154.379 110.284 154.895 109.417 154.723C108.549 154.55 108.45 153.766 108.337 154.266C108.223 154.766 105.095 157.043 103.853 157.304C102.61 157.564 101.965 156.627 101.751 156.322C101.537 156.017 101.087 155.109 101.672 154.04C101.732 155.468 103.206 155.149 103.952 155.116C104.697 155.084 107.514 152.936 107.546 152.784C107.578 152.632 104.551 149.494 104.551 149.494L105.841 147.798C107.786 149.582 108.619 151.36 108.909 151.831C109.2 152.302 109.464 152.111 110.008 152.243C110.552 152.375 111.87 151.383 111.87 151.383C111.87 151.383 110.952 151.028 110.416 150.657C109.207 149.559 110.026 147.894 111.012 146.936C111.871 146.27 112.816 146.485 114.322 147.327C112.718 147.776 111.114 148.386 111.72 149.747Z" fill="black"/>
<path d="M171.412 152.628L171.107 147.787L176.52 148.359L171.412 152.628Z" fill="black" stroke="black" stroke-width="0.304919"/>
<path d="M127.096 147.952L130.498 147.859L130.527 151.768L127.212 149.429L127.096 147.952Z" fill="black" stroke="black" stroke-width="0.239332"/>
<path d="M98.7441 166.762L97.372 161.426L91.0449 164.018C91.0449 164.018 91.3498 165.847 92.1121 165.771C92.8744 165.695 98.7441 166.686 98.7441 166.762ZM207.219 167.677C207.295 167.372 208.744 162.493 208.744 162.493L214.08 165.618L207.219 167.677Z" fill="black" stroke="black" stroke-width="0.304919"/>
<path d="M178.427 31.3601C178.427 35.0251 177.705 38.6543 176.303 42.0404C174.9 45.4264 172.844 48.5031 170.253 51.0947C167.661 53.6862 164.585 55.742 161.199 57.1446C157.812 58.5471 154.183 59.269 150.518 59.269C146.853 59.269 143.224 58.5471 139.838 57.1446C136.452 55.742 133.375 53.6862 130.784 51.0947C128.192 48.5031 126.136 45.4264 124.734 42.0404C123.331 38.6543 122.609 35.0251 122.609 31.3601C122.609 27.695 123.331 24.0659 124.734 20.6798C126.136 17.2937 128.192 14.2171 130.784 11.6255C133.375 9.03392 136.452 6.97817 139.838 5.57561C143.224 4.17306 146.853 3.45117 150.518 3.45117C154.183 3.45117 157.812 4.17306 161.199 5.57561C164.585 6.97817 167.661 9.03392 170.253 11.6255C172.844 14.2171 174.9 17.2937 176.303 20.6798C177.705 24.0659 178.427 27.695 178.427 31.3601Z" fill="white"/>
<path fill-rule="evenodd" clip-rule="evenodd" d="M151.406 7.88162C138.724 8.20178 128.537 18.6026 128.537 31.3604C128.537 44.3194 139.054 54.8391 152.016 54.8391C160.813 54.8391 168.478 49.9909 172.5 42.8223C169.174 46.8076 164.164 49.3506 158.572 49.3506C148.555 49.3506 140.429 41.2215 140.429 31.2079C140.429 21.1944 148.555 13.0652 158.572 13.0652C163.865 13.0652 168.631 15.3399 171.948 18.9624C167.802 12.309 160.426 7.88162 152.016 7.88162C151.812 7.88162 151.607 7.87552 151.406 7.88162Z" fill="#E70013"/>
<path d="M180.374 31.6624C180.374 47.4907 167.54 60.3248 151.711 60.3248C135.88 60.3248 123.049 47.4907 123.049 31.6624C123.049 15.831 135.88 3 151.711 3C167.54 3 180.374 15.831 180.374 31.6624Z" stroke="#E70013" stroke-width="1.82951" stroke-linecap="square" stroke-linejoin="bevel"/>
<path fill-rule="evenodd" clip-rule="evenodd" d="M167.177 39.267L158.377 36.9893L152.906 44.2494L152.352 35.175L143.756 32.2173L152.214 28.8846L152.376 19.7949L158.157 26.8111L166.85 24.1553L161.963 31.8209L167.177 39.267Z" fill="#E70013"/>
<path d="M118.187 122.199L116.644 126.242M121.389 123.147L120.111 127.138M116.074 120.607L114.27 123.967M124.737 124.173L123.566 128.058M128.074 124.653L127.062 128.483" stroke="black" stroke-width="0.609838"/>
<path d="M188.475 125.932L188.624 129.618M186.036 125.932L186.185 129.618M183.596 125.932L183.746 129.618M181.157 126.541L181.306 130.228M178.718 126.541L178.867 130.228M176.278 127.151L176.428 130.838M173.839 127.151L173.988 130.838M171.4 127.151L171.549 130.838M168.992 127.76L169.078 131.449" stroke="black" stroke-width="1.5246"/>
<path d="M191.771 120.906L191.997 125.044M186.892 121.516L187.118 125.654M182.013 122.126L182.239 126.264M177.135 122.126L177.36 126.264" stroke="black" stroke-width="2.13443"/>
<path d="M166.554 127.76L166.639 131.449M164.114 127.76L164.2 131.449M161.675 127.76L161.76 131.449M159.236 127.76L159.321 131.449M156.796 127.76L156.882 131.449M154.469 127.761L154.331 131.448M152.029 127.761L151.891 131.448M149.608 127.762L149.434 131.447M147.168 127.762L146.995 131.447M144.771 127.154L144.514 130.835M142.332 127.154L142.074 130.835" stroke="black" stroke-width="1.5246"/>
<path d="M165.988 87.9906C173.632 82.9929 200.983 77.4038 200.983 77.4038C188.631 91.5215 198.208 109.57 198.208 109.57C180.855 105.453 170.692 116.519 170.692 116.519C164.112 108.121 162.353 98.6566 165.988 87.9906ZM173.632 73.2874C131.87 81.2275 120.695 104.167 120.695 104.167L125.4 118.284C135.337 112.097 144.021 109.426 150.986 110.125C164.96 111.524 171.812 117.403 171.281 116.812C153.635 97.1076 174.037 73.1959 173.632 73.2874ZM117.167 109.756C117.167 109.756 114.52 105.636 107.461 105.344C107.461 105.344 136.907 80.1267 153.065 78.8765C153.065 78.8765 129.565 89.1523 120.667 103.865C119.433 105.914 118.06 107.771 117.167 109.756ZM153.056 78.7759C131.879 74.9522 94.8164 97.4034 94.8164 97.4034C101.872 98.2846 107.166 105.344 107.166 105.344C134.52 81.511 153.056 78.7759 153.056 78.7759Z" fill="#C1C9EB"/>
<path d="M173.632 73.2874C131.871 81.2275 120.695 104.167 120.695 104.167L125.4 118.284C135.338 112.097 144.022 109.426 150.986 110.125C164.96 111.524 171.812 117.403 171.281 116.812C153.636 97.1076 174.038 73.1959 173.632 73.2874Z" stroke="black" stroke-width="0.914757"/>
<path d="M165.987 87.9911C173.631 82.9935 200.983 77.4043 200.983 77.4043C188.63 91.522 198.208 109.57 198.208 109.57C180.855 105.454 170.692 116.519 170.692 116.519C164.112 108.122 162.352 98.6572 165.987 87.9911ZM117.167 109.756C117.167 109.756 114.52 105.637 107.461 105.344C107.461 105.344 136.907 80.1272 153.065 78.8771C153.065 78.8771 129.565 89.1528 120.667 103.865C119.432 105.914 118.06 107.771 117.167 109.756Z" stroke="black" stroke-width="0.914757"/>
<path d="M153.056 78.7762C131.879 74.9525 94.8164 97.4037 94.8164 97.4037C101.872 98.2849 107.166 105.344 107.166 105.344C134.52 81.5113 153.056 78.7762 153.056 78.7762Z" stroke="black" stroke-width="0.914757"/>
</svg>
