<svg width="300" height="300" viewBox="0 0 300 300" fill="none" xmlns="http://www.w3.org/2000/svg">
<path d="M3 150.265C3 91.0329 51.033 43 110.265 43C148.426 43 181.942 62.91 200.939 92.9409C185.26 75.4367 162.446 64.4033 137.061 64.4033C89.6917 64.4033 51.2819 102.896 51.2819 150.265C51.2819 197.634 89.6917 236.127 137.144 236.127C162.529 236.127 185.343 225.094 201.022 207.589C182.025 237.62 148.509 257.53 110.348 257.53C51.033 257.53 3 209.497 3 150.265Z" fill="#E30A17"/>
<path d="M298 118.741L260.918 130.77L238.021 99.2461V138.237L201.021 150.265L238.021 162.294V201.285L260.918 169.761L298 181.79L275.103 150.265L298 118.741Z" fill="#E30A17"/>
</svg>
