<svg width="356" height="425" viewBox="0 0 356 425" fill="none" xmlns="http://www.w3.org/2000/svg">
<path fill-rule="evenodd" clip-rule="evenodd" d="M164.479 409.92C163.45 408.471 162.472 406.997 161.518 405.523C158.93 401.559 156.502 397.484 154.21 393.335C151.981 389.309 149.9 385.209 147.931 381.06C147.336 379.796 146.754 378.521 146.184 377.245C142.543 369.144 139.409 360.784 136.733 352.274C133.946 343.405 131.655 334.376 129.797 325.309C129.302 322.894 128.843 320.491 128.41 318.075C125.35 301.13 123.703 283.926 123.22 266.721C123.071 261.147 123.034 255.573 123.115 249.999C123.276 239.978 123.834 229.958 124.787 219.975C126.175 205.334 128.392 190.768 131.575 176.412C134.424 163.58 138.041 150.896 142.772 138.621C143.874 135.785 145.064 132.961 146.29 130.174C147.739 132.998 149.25 136.231 150.774 139.798L156.36 133.37C156.36 133.37 153.969 139.352 152.706 143.341C152.636 143.564 152.508 143.985 152.752 144.592C154.685 149.459 156.58 154.749 158.301 160.248L163.045 156.482C160.481 159.505 159.491 164.162 160.283 167.01C164.557 182.505 167.009 198.756 164.693 210.771C180.659 188.575 182.715 146.387 164.786 121.986C166.074 122.445 167.436 122.977 168.836 123.559L169.679 118.493C169.679 118.493 170.31 121.577 170.806 123.782C170.955 124.476 171.363 124.675 171.561 124.761C175.413 126.52 179.179 128.588 183.539 131.4L185.186 124.327C185.186 124.327 185.632 128.415 186.177 132.155C186.301 133.046 186.784 133.567 187.02 133.728C192.271 137.407 197.623 141.854 202.738 147.105L206.057 140.268C204.323 144.133 206.255 150.747 209.389 154.599C216.449 163.195 219.311 163.381 224.376 174.838C226.544 155.676 228.847 121.032 179.934 106.23C179.934 106.23 183.316 104.867 188.481 103.183L184.529 98.8478C184.529 98.8478 187.911 100.669 190.661 101.981C191.181 102.229 191.763 102.142 191.998 102.063C196.47 100.713 201.784 99.3009 207.246 98.2976L203.89 94.4949C206.602 96.6252 210.975 97.6535 213.402 97.3686C220.859 96.5134 228.105 96.7368 233.319 99.2389C225.144 87.8059 202.366 76.8198 164.228 86.9389C165.194 83.0867 166.396 80.052 168.105 77.4508L165.157 75.4815C165.157 75.4815 166.805 75.5978 168.7 75.6792C169.393 75.7024 169.641 75.3942 169.766 75.2453C172.429 72.1735 176.12 69.6962 181.483 67.0332L179.724 65.1381C179.724 65.1381 183.229 66.2527 184.765 65.4359C187.589 63.9495 190.339 62.5622 194.897 61.5094C178.844 53.2972 160.376 55.8116 144.992 77.1534C144.899 77.2767 144.757 77.5001 144.558 77.7979C132.407 53.3839 104.179 51.378 87.3459 52.133C96.103 55.0438 104.501 59.3047 111.561 65.002C112.044 65.3987 112.527 65.807 113.022 66.1787C115.97 68.4083 120.368 69.139 120.368 69.139L117.122 70.1547C119.253 72.3719 121.222 74.7253 122.932 77.2893C122.978 77.3708 123.08 77.5371 123.403 77.6232C123.712 77.693 129.125 79.159 129.125 79.159L124.617 79.9396C126.053 82.5904 127.713 86.2319 128.704 89.3285C106.755 67.8385 71.814 57.5455 30.666 93.5399C42.161 90.9635 55.451 89.8735 67.367 90.53C69.832 90.6906 75.2324 89.4899 79.035 86.2319L75.3687 91.2732C81.3884 92.0783 86.7767 93.4037 91.0377 95.2988C91.1541 95.3454 91.3972 95.4222 91.7311 95.2522C93.5767 94.261 96.1654 92.7501 96.1654 92.7501L93.5891 96.5899C95.2612 97.5439 96.7105 98.6088 97.8376 99.7979C74.2296 99.3768 42.9656 114.575 36.0546 140.735C45.3072 134.591 52.6026 130.578 58.8826 127.903C61.0503 126.837 63.7753 123.283 64.5927 119.703L65.9056 125.314C71.1451 123.704 75.8519 122.973 80.7696 122.502C80.9185 122.491 81.1908 122.502 81.5875 121.858C83.0367 119.517 85.229 115.59 85.229 115.59L84.8323 122.168C85.898 122.098 86.9752 122.019 88.0899 121.944C64.9519 140.796 60.1959 163.042 60.7529 191.617C65.0757 179.33 73.6969 167.513 83.8539 157.183C87.2601 153.827 89.6878 148.513 89.0437 143.125L91.8183 149.628C97.9125 144.228 104.254 139.409 110.373 135.322C110.559 135.199 110.918 135.05 111.141 134.034C111.909 130.417 112.702 126.961 112.702 126.961L114.04 132.956C119.477 129.538 124.618 126.776 129.127 124.781C110.547 161.804 99.6596 206.32 96.4516 250.901C94.6555 276.033 95.2872 301.177 98.3715 325.021C100.279 339.736 103.115 353.955 106.881 367.357C108.169 371.915 109.556 376.399 111.067 380.759L112.628 385.268L164.479 409.92Z" fill="#951A42"/>
<path fill-rule="evenodd" clip-rule="evenodd" d="M240.269 392.77C257.523 385.066 275.359 377.114 290.273 368.641C366.759 325.177 360.404 287.077 346.47 203.581C343.943 188.383 341.069 171.154 338.592 152.76C333.749 116.79 342.358 97.7031 355.685 75.7051L295.648 18.6661H295.635C284.537 23.3605 266.18 29.7891 248.716 29.7891C245.013 29.7891 241.446 29.5041 238.088 28.934C217.576 25.5154 191.664 9.426 177.841 0H177.83C164.007 9.426 138.082 25.516 117.595 28.934C114.238 29.5041 110.671 29.7891 106.968 29.7891C89.5027 29.7891 71.1467 23.3606 60.0487 18.6661H60.037L0 75.7051C13.34 97.7031 21.936 116.79 17.093 152.76C14.6158 171.154 11.7422 188.383 9.2153 203.581C-4.7197 287.077 -11.0737 325.181 65.4123 368.641C80.3383 377.113 98.1613 385.065 115.416 392.77C138.628 403.125 160.787 413.009 177.856 424.615C177.856 424.603 177.845 424.603 177.856 424.592V424.604C194.912 412.998 217.071 403.126 240.271 392.771M112.631 385.264C97.1363 378.34 81.4673 371.181 68.2383 363.675C57.7223 357.705 48.9033 351.871 41.4343 346.025C9.5143 321.005 3.59429 295.575 7.23529 256.732C8.65979 241.608 11.4962 224.466 14.8282 204.499C17.3674 189.276 20.2534 172.022 22.743 153.504C27.648 117.101 18.9528 96.6007 7.22299 76.6717L61.289 25.3177C73.601 30.2351 90.533 35.4617 106.982 35.4617C110.995 35.4617 114.884 35.1522 118.551 34.5333C138.604 31.189 163.167 16.5983 177.844 6.85028C192.509 16.5983 217.072 31.1773 237.15 34.5333C240.804 35.1522 244.706 35.4617 248.719 35.4617C265.168 35.4617 282.1 30.2346 294.4 25.3177L348.466 76.6717C336.749 96.6017 328.053 117.101 332.958 153.504C335.448 172.022 338.321 189.276 340.873 204.499C344.192 224.466 347.041 241.608 348.466 256.732C351.067 284.589 348.775 305.547 335.498 324.399C325.936 337.974 310.701 350.472 287.464 363.676C272.774 372.024 255.074 379.914 237.931 387.569C215.784 397.453 194.802 406.817 177.857 417.767C173.769 415.178 169.199 412.503 164.467 409.914L112.631 385.264Z" fill="#FCED00"/>
<path fill-rule="evenodd" clip-rule="evenodd" d="M233.639 250.02C229.267 249.897 224.894 249.772 220.497 249.673C224.894 249.778 229.267 249.897 233.639 250.02Z" fill="#951A42"/>
<path fill-rule="evenodd" clip-rule="evenodd" d="M281.949 121.79C299.649 121.79 313.992 107.447 313.992 89.7471C313.992 72.0471 299.649 57.7031 281.949 57.7031C264.249 57.7031 249.906 72.0461 249.906 89.7471C249.906 107.447 264.249 121.79 281.949 121.79Z" fill="#FCED00"/>
<path fill-rule="evenodd" clip-rule="evenodd" d="M264.729 314.57L249.754 382.274C245.815 384.058 241.864 385.817 237.937 387.563C228.251 391.898 218.8 396.135 209.783 400.445L255.761 314.571V311.177C251.413 310.842 247.029 310.57 242.619 310.359V314.571L177.876 417.771C194.82 406.821 215.803 397.445 237.937 387.573C255.092 379.918 272.792 372.016 287.47 363.667C310.719 350.476 325.954 337.978 335.517 324.402C313.531 318.555 289.737 314.282 264.729 311.892V314.57Z" fill="#72BF44"/>
<path fill-rule="evenodd" clip-rule="evenodd" d="M233.639 309.94C229.291 309.804 224.894 309.754 220.497 309.73V314.573C220.497 314.573 220.484 314.573 220.484 314.584L146.178 377.246C146.748 378.522 147.343 379.798 147.937 381.061C149.894 385.211 151.988 389.311 154.205 393.336L233.639 314.571L233.639 309.94Z" fill="#72BF44"/>
<path fill-rule="evenodd" clip-rule="evenodd" d="M211.529 309.78C182.433 310.151 154.378 313.087 128.404 318.079C128.838 320.494 129.308 322.897 129.791 325.3C131.661 334.379 133.953 343.409 136.74 352.277L211.529 314.573V309.78Z" fill="#72BF44"/>
<path fill-rule="evenodd" clip-rule="evenodd" d="M41.4489 346.04C48.9054 351.887 57.7369 357.708 68.2529 363.678C81.4689 371.197 97.1379 378.356 112.633 385.28C105.362 382.023 98.0539 378.728 90.9819 375.359L106.898 367.357C103.132 353.955 100.296 339.748 98.3885 325.021C77.7035 330.682 58.4179 337.79 41.4489 346.04Z" fill="#72BF44"/>
<path fill-rule="evenodd" clip-rule="evenodd" d="M255.759 250.77C251.449 250.597 246.965 250.411 242.617 250.263V310.349C247.027 310.572 251.411 310.844 255.759 311.178V250.77Z" fill="#0072BC"/>
<path fill-rule="evenodd" clip-rule="evenodd" d="M233.639 250.02C229.267 249.897 224.894 249.772 220.497 249.673V309.734C224.894 309.758 229.291 309.804 233.639 309.945V250.02Z" fill="#0072BC"/>
<path fill-rule="evenodd" clip-rule="evenodd" d="M264.719 251.12V311.887C289.739 314.278 313.534 318.551 335.507 324.397C348.785 305.557 351.089 284.587 348.475 256.73C321.535 254.278 293.467 252.395 264.719 251.119" fill="#0072BC"/>
<path fill-rule="evenodd" clip-rule="evenodd" d="M281.949 57.7001C299.649 57.7001 313.992 72.0431 313.992 89.7441C313.992 107.444 299.649 121.787 281.949 121.787C264.249 121.787 249.906 107.444 249.906 89.7441C249.906 72.0441 264.249 57.7001 281.949 57.7001ZM211.533 249.53L211.546 189.543C211.546 188.837 212.115 188.267 212.809 188.267H214.828V186.248C214.828 185.555 215.398 184.973 216.104 184.973H260.15C260.856 184.973 261.426 185.554 261.426 186.248V188.267H263.445C264.138 188.267 264.708 188.837 264.708 189.543L264.721 251.128C293.47 252.404 321.537 254.287 348.477 256.739C347.052 241.615 344.204 224.485 340.884 204.506C338.345 189.283 335.459 172.029 332.969 153.511C328.064 117.108 336.759 96.6082 348.477 76.6792L294.423 25.3252C282.111 30.2426 265.179 35.4692 248.73 35.4692C244.717 35.4692 240.828 35.1597 237.161 34.5396C217.083 31.183 192.521 16.6046 177.855 6.85663C163.19 16.6046 138.615 31.1956 118.562 34.5396C114.908 35.1586 111.006 35.4692 106.993 35.4692C90.5561 35.4692 73.6121 30.2422 61.3121 25.3252L7.24609 76.6792C18.9631 96.6092 27.6591 117.108 22.7541 153.511C20.2645 172.029 17.3908 189.283 14.8393 204.506C11.5197 224.485 8.67078 241.615 7.24638 256.739C35.9334 254.126 65.7714 252.181 96.4774 250.905C99.6731 206.327 110.56 161.81 129.152 124.785C124.631 126.779 119.491 129.542 114.053 132.96L112.716 126.965C112.716 126.965 111.923 130.421 111.155 134.038C110.932 135.054 110.585 135.202 110.4 135.326C104.269 139.414 97.9268 144.244 91.8328 149.632L89.0582 143.142C89.7028 148.517 87.2746 153.831 83.8683 157.188C73.7243 167.518 65.0903 179.335 60.7683 191.622C60.2111 163.047 64.9672 140.801 88.1053 121.949C87.0035 122.019 85.9129 122.098 84.8477 122.172L85.2445 115.595C85.2445 115.595 83.052 119.534 81.6152 121.862C81.2069 122.507 80.9347 122.494 80.7858 122.507C75.8684 122.978 71.1739 123.708 65.9347 125.319L64.6093 119.708C63.7914 123.287 61.0668 126.855 58.8992 127.92C52.6194 130.595 45.3362 134.596 36.0712 140.74C42.9951 114.58 74.2462 99.3948 97.8672 99.8028C96.7282 98.6137 95.2785 97.5484 93.6062 96.5948L96.1949 92.755C96.1949 92.755 93.5938 94.2785 91.7483 95.2571C91.4133 95.4433 91.1666 95.3501 91.0549 95.3037C86.794 93.4086 81.4059 92.0832 75.3989 91.2781L79.0529 86.2368C75.2503 89.4944 69.8498 90.6959 67.3849 90.5349C55.4819 89.8788 42.1909 90.9689 30.6969 93.5448C71.8439 57.5498 106.774 67.8428 128.723 89.3334C127.732 86.2368 126.072 82.5952 124.635 79.9445L129.144 79.1639C129.144 79.1639 123.744 77.7147 123.422 77.6281C123.112 77.5466 123.013 77.3802 122.95 77.293C121.241 74.729 119.272 72.3755 117.141 70.1584L120.399 69.1427C120.399 69.1427 115.989 68.4121 113.041 66.1824C112.546 65.8112 112.076 65.4017 111.58 65.0057C104.52 59.3204 96.1218 55.0471 87.3648 52.1367C104.211 51.3816 132.427 53.3877 144.578 77.8017C144.776 77.5167 144.925 77.2817 145.012 77.1572C160.396 55.8152 178.864 53.3012 194.917 61.5132C190.359 62.5661 187.609 63.9533 184.797 65.4397C183.248 66.2575 179.756 65.1418 179.756 65.1418L181.502 67.0369C176.139 69.6999 172.448 72.1896 169.785 75.249C169.662 75.4096 169.414 75.7074 168.719 75.683C166.824 75.6132 165.189 75.4852 165.189 75.4852L168.125 77.4546C166.416 80.0558 165.214 83.0904 164.248 86.9549C202.385 76.8229 225.164 87.81 233.339 99.2419C228.124 96.7399 220.891 96.5169 213.422 97.3716C210.994 97.6567 206.622 96.6282 203.922 94.498L207.266 98.3006C201.804 99.3035 196.49 100.716 192.018 102.079C191.783 102.137 191.2 102.239 190.68 101.974C187.93 100.661 184.549 98.8524 184.549 98.8524L188.5 103.175C183.348 104.86 179.954 106.222 179.954 106.222C228.868 121.024 226.564 155.668 224.396 174.83C219.33 163.373 216.468 163.187 209.409 154.591C206.275 150.739 204.343 144.125 206.077 140.26L202.757 147.097C197.642 141.846 192.291 137.399 187.039 133.72C186.816 133.56 186.321 133.039 186.197 132.16C185.652 128.407 185.206 124.319 185.206 124.319L183.559 131.392C179.211 128.58 175.433 126.512 171.581 124.753C171.383 124.671 170.973 124.48 170.826 123.774C170.33 121.569 169.698 118.485 169.698 118.485L168.856 123.551C167.456 122.969 166.094 122.437 164.805 121.978C182.728 146.379 180.672 188.567 164.712 210.763C167.041 198.748 164.576 182.51 160.315 167.002C159.51 164.153 160.501 159.496 163.065 156.474L158.321 160.24C156.612 154.74 154.704 149.464 152.772 144.584C152.537 143.976 152.656 143.555 152.725 143.333C154.001 139.344 156.379 133.362 156.379 133.362L150.805 139.79C149.269 136.223 147.758 132.99 146.309 130.166C145.083 132.965 143.894 135.777 142.804 138.614C138.072 150.889 134.455 163.572 131.594 176.405C128.411 190.761 126.193 205.327 124.806 219.968C123.852 229.951 123.307 239.972 123.146 249.992C146.457 248.951 195.581 249.125 211.547 249.522" fill="#00C0F3"/>
<path fill-rule="evenodd" clip-rule="evenodd" d="M255.759 191.67H242.617V250.27C246.964 250.406 251.448 250.604 255.759 250.766V191.67Z" fill="#00C0F3"/>
<path fill-rule="evenodd" clip-rule="evenodd" d="M233.639 191.67H220.497V249.663C224.894 249.768 229.266 249.885 233.639 250.01V191.67Z" fill="#00C0F3"/>
<path fill-rule="evenodd" clip-rule="evenodd" d="M260.359 315.68C258.006 315.68 255.764 314.578 255.764 314.578L209.786 400.44C218.791 396.13 228.242 391.894 237.94 387.571C241.866 385.812 245.817 384.054 249.757 382.27L264.732 314.566V314.578C264.732 314.578 262.725 315.68 260.359 315.68Z" fill="#5EA14D"/>
<path fill-rule="evenodd" clip-rule="evenodd" d="M215.919 315.68C213.566 315.68 211.534 314.578 211.534 314.578L136.745 352.27C139.421 360.78 142.542 369.14 146.183 377.241L220.489 314.579C220.353 314.637 218.21 315.681 215.919 315.681" fill="#5EA14D"/>
<path fill-rule="evenodd" clip-rule="evenodd" d="M242.619 314.57C242.594 314.582 240.587 315.673 238.234 315.673C235.893 315.673 233.639 314.57 233.639 314.57L154.218 393.322C156.509 397.472 158.937 401.547 161.526 405.523C162.48 406.997 163.458 408.459 164.486 409.92C169.218 412.509 173.788 415.172 177.876 417.773L242.619 314.57Z" fill="#5EA14D"/>
<path fill-rule="evenodd" clip-rule="evenodd" d="M112.639 385.27L111.078 380.762C109.58 376.389 108.192 371.918 106.904 367.348L90.9751 375.349C98.06 378.718 105.368 382.013 112.639 385.27Z" fill="#5EA14D"/>
<path fill-rule="evenodd" clip-rule="evenodd" d="M211.539 249.52C195.573 249.123 146.436 248.95 123.138 249.991C123.045 255.565 123.08 261.151 123.219 266.713C123.715 283.93 125.35 301.122 128.409 318.067C154.371 313.076 182.438 310.152 211.534 309.768L211.539 249.52Z" fill="#0072BC"/>
<path fill-rule="evenodd" clip-rule="evenodd" d="M41.4487 346.04C58.4177 337.791 77.7037 330.681 98.3887 325.02C95.3046 301.189 94.6605 276.032 96.4689 250.9C65.7629 252.176 35.9249 254.133 7.24994 256.747C3.60844 295.578 9.51643 321.007 41.4487 346.04Z" fill="#0072BC"/>
<path fill-rule="evenodd" clip-rule="evenodd" d="M242.619 314.57V191.67H255.761V314.57C255.761 314.57 258.015 315.685 260.356 315.685C262.722 315.685 264.729 314.57 264.729 314.57V311.895L264.716 251.128V189.543C264.716 188.836 264.146 188.267 263.44 188.267H261.421V186.248C261.421 185.542 260.851 184.972 260.145 184.972H216.112C215.406 184.972 214.836 185.542 214.836 186.248V188.267H212.817C212.111 188.267 211.542 188.837 211.542 189.543V249.518L211.529 309.778V314.571C211.529 314.571 213.56 315.686 215.914 315.686C218.205 315.686 220.36 314.646 220.484 314.571H220.497V191.671H233.639V314.571C233.639 314.571 235.893 315.686 238.234 315.686C240.575 315.686 242.582 314.596 242.619 314.571L242.619 314.57Z" fill="#FCED00"/>
</svg>
