<svg width="300" height="300" viewBox="0 0 300 300" fill="none" xmlns="http://www.w3.org/2000/svg">
<path fill-rule="evenodd" clip-rule="evenodd" d="M245.177 147.071C245.177 214.135 202.677 268.501 150.25 268.501C97.8241 268.501 55.3242 214.135 55.3242 147.071C55.3242 80.0067 97.8241 25.6406 150.25 25.6406C202.677 25.6406 245.177 80.0067 245.177 147.071Z" fill="white"/>
<path fill-rule="evenodd" clip-rule="evenodd" d="M133 94.1854C116.421 93.736 107.557 103.698 107.532 116.657C99.8421 125.296 102.209 127.834 99.4426 134.859C96.8687 141.395 82.4673 153.777 88.6562 170.14C97.2593 192.884 127.576 205.644 151.876 206.544C173.964 207.362 197.976 193.178 210.003 174.634C218.191 162.008 209.949 143.883 204.142 136.993C195.702 126.98 194.639 125.296 193 119.129C191.472 113.382 196.101 98.4115 175.846 90.1405C179.285 95.4836 180.747 100.827 179.592 106.17C175.447 102.375 171.302 98.5798 167.157 94.7846C169.339 98.8403 170.319 104.759 168.505 115.009C163.897 111.712 162.228 106.671 164.011 99.5786C157.989 101.614 156.966 106.612 156.371 111.863C154.008 110.435 153.217 103.301 155.881 95.9318C158.905 87.5643 151.629 79.5233 146.633 78.0059C148.841 80.5384 149.97 88.7522 144.086 95.8334C139.074 101.867 137.169 109.697 139.742 119.803C134.723 118.654 133 108.742 135.247 100.627C128.506 103.374 125.585 106.27 124.012 114.71C119.967 104.348 126.109 96.9069 133 94.1854Z" fill="#CD0000"/>
<path fill-rule="evenodd" clip-rule="evenodd" d="M69.8453 151.668L69.6955 160.227L53.029 157.342L44.9767 156.181L32.0367 155.451L31.4561 154.964L31.7557 147.062L32.2053 141.069L34.3026 126.313L38.7969 106.969L43.1039 95.8264L47.9541 85.6018L54.7893 74.909L62.0176 65.6582L72.3734 55.6208L82.8228 47.0442L91.3993 41.5199L93.5905 41.8383L95.6128 43.9168L116.437 33.5612L126.878 30.5977L135.286 37.4387L131.996 52.2869L116.437 58.898L104.171 67.6057L92.7476 78.6544L90.9499 81.0513L93.0473 83.3546L92.5979 85.2648L88.8713 89.4032L84.1897 96.2571L76.7178 110.864L72.879 124.89L70.7441 137.773L69.8453 151.668Z" fill="#FECC00"/>
<path fill-rule="evenodd" clip-rule="evenodd" d="M230.507 151.62L230.657 160.177L247.323 157.294L255.375 156.133L268.316 155.402L268.896 154.915L268.596 147.013L268.147 141.021L266.049 126.264L261.555 106.92L257.248 95.7775L252.398 85.553L245.562 74.8602L238.335 65.6094L227.979 55.572L217.529 46.9954L208.954 41.4711L206.762 41.7895L204.74 43.868L183.916 33.5124L173.475 30.5488L165.066 37.3898L168.358 52.2381L183.916 58.8492L196.181 67.5569L207.605 78.6055L209.402 81.0025L207.305 83.3058L207.755 85.2159L211.48 89.3544L216.163 96.2083L223.634 110.815L227.473 124.841L229.608 137.725L230.507 151.62Z" fill="#FECC00"/>
<path fill-rule="evenodd" clip-rule="evenodd" d="M266.098 198.972L250.946 202.287L249.975 200.751L251.641 198.467L260.593 195.995L262.072 191.256L264.862 192.605L266.885 195.863L266.098 198.972Z" fill="#4C7EC2"/>
<path fill-rule="evenodd" clip-rule="evenodd" d="M50.3921 201.178L50.785 205.261L35.3117 199.984L35.2555 199.928C35.1901 199.862 35.2454 199.964 35.1993 199.872L34.1318 197.943L38.1767 192.25L41.3713 198.217L50.3921 201.178Z" fill="#4C7EC2"/>
<path fill-rule="evenodd" clip-rule="evenodd" d="M234.512 204.641C226.202 220.339 214.926 233.418 199.579 242.903L201.827 234.888L198.381 226.799L196.134 226.349C210.391 214.424 223.237 194.004 227.22 180.432L243.774 176.837L256.433 174.889L263.549 171.668L268.118 173.84L259.878 196.462L249.766 199.158L244.748 202.23L234.512 204.641Z" fill="#FECC00"/>
<path fill-rule="evenodd" clip-rule="evenodd" d="M205.283 205.88L204.036 204.514L201.714 205.038L200.777 203.989L201.939 201.593L200.103 199.008L195.809 198.405L193.697 198.907L190.216 194.327L202.463 184.289L206.332 188.758L205.422 194.365L207.032 197.997L208.905 197.098L210.178 198.109L209.268 200.951L210.59 202.416L212.501 201.818L213.698 202.903L212.856 205.521L213.773 206.462L209.837 212.086L207.481 209.309L205.422 209.832L204.111 208.633L205.283 205.88Z" fill="#FECC00"/>
<path fill-rule="evenodd" clip-rule="evenodd" d="M182.763 220.469L183.362 218.746L184.524 218.223L183.512 215.863L181.527 215.788L180.479 214.514L182.222 212.156L179.992 208.859L174.941 207.925L172.867 202.476L186.996 196.088L189.558 200.973L187.519 207.66L188.045 210.281L190.179 210.058L191.04 211.33L189.654 214.14L190.441 215.713L192.389 215.451L193.213 216.762L191.917 218.998L194.935 225.825L187.408 224.813L185.984 221.143L183.924 221.555L182.763 220.469Z" fill="#FECC00"/>
<path d="M207.338 209.878L208.448 209.001L210.407 211.671L209.265 212.504L207.338 209.878ZM204.727 206.321L205.838 205.444L205.009 204.314L203.899 205.191L204.727 206.321ZM201.289 201.635L202.4 200.76L202.172 200.449C201.245 199.186 199.866 198.27 198.268 197.875C196.936 197.545 195.45 197.576 193.947 198.069L191.198 194.418L202.464 185.312L205.652 189.026C205.045 190.47 204.772 192.158 204.877 193.792C204.972 195.262 205.346 196.655 206.086 197.845L207.204 196.963C206.627 195.996 206.363 194.913 206.285 193.701C206.184 192.143 206.478 190.534 207.115 189.216L207.316 188.801L207.014 188.449L203.087 183.874L202.641 183.354L202.109 183.783L189.781 193.747L189.25 194.176L189.66 194.721L193.133 199.333L193.457 199.763L193.956 199.565C195.339 199.016 196.715 198.948 197.928 199.248C199.204 199.564 200.3 200.287 201.03 201.283L201.289 201.635ZM212.299 205.961L213.413 205.082L214.437 206.407L213.315 207.276L212.299 205.961ZM210.716 201.593L209.604 202.476L208.751 201.36L209.859 200.485L210.716 201.593Z" fill="#A86326"/>
<path fill-rule="evenodd" clip-rule="evenodd" d="M158.118 218.822L159.542 218.71L157.895 213.765L153.666 211.83L153.212 206.238L168.868 204.215L169.761 209.935L166.65 213.355L165.384 218.073L167.557 218.447L168.006 220.208L166.192 221.782L157.856 222.155L157.032 220.319L158.118 218.822Z" fill="#FECC00"/>
<path fill-rule="evenodd" clip-rule="evenodd" d="M141.228 218.223L143.624 219.271L143.437 220.657L142.276 222.09L134.711 222.342L134.935 220.62L132.95 219.946L132.876 218.11L135.085 217.399L134.584 212.509L130.857 209.614L131.752 203.578L147.52 205.451L146.999 211.306L142.314 213.691L141.228 218.223Z" fill="#FECC00"/>
<path d="M166.302 217.335L166.304 217.335C166.907 217.27 167.481 217.455 167.919 217.808C168.323 218.132 168.614 218.598 168.711 219.139L168.718 219.153L168.733 219.29C168.798 219.892 168.612 220.466 168.26 220.904C167.906 221.346 167.384 221.653 166.782 221.719L158.665 222.605L158.663 222.604C158.06 222.67 157.486 222.484 157.048 222.132C156.606 221.778 156.299 221.256 156.234 220.654L156.217 220.5L156.221 220.484C156.203 219.944 156.386 219.434 156.706 219.036C157.059 218.596 157.581 218.29 158.185 218.223L160.385 217.986C161.167 217.901 161.372 219.308 160.535 219.396L158.339 219.627L158.336 219.626C158.122 219.649 157.936 219.759 157.809 219.917C157.682 220.076 157.614 220.283 157.638 220.499L157.638 220.505C157.663 220.718 157.772 220.903 157.928 221.028C158.087 221.156 158.295 221.224 158.51 221.201L166.626 220.313C166.843 220.289 167.03 220.18 167.156 220.022C167.283 219.865 167.35 219.66 167.329 219.446L167.328 219.437C167.305 219.224 167.195 219.037 167.037 218.911C166.878 218.783 166.671 218.715 166.455 218.738L164.332 218.975C163.536 219.063 163.303 217.66 164.137 217.569L166.302 217.335Z" fill="#A86326"/>
<path d="M134.364 216.809L134.361 216.81C133.758 216.744 133.185 216.93 132.746 217.282C132.343 217.606 132.051 218.072 131.955 218.613L131.948 218.626L131.933 218.763C131.867 219.365 132.053 219.939 132.405 220.378C132.76 220.819 133.281 221.126 133.884 221.192L142 222.079L142.003 222.078C142.605 222.143 143.179 221.958 143.618 221.605C144.059 221.251 144.366 220.73 144.432 220.127L144.449 219.973L144.444 219.958C144.461 219.417 144.278 218.907 143.959 218.509C143.605 218.069 143.084 217.763 142.48 217.697L140.279 217.459C139.497 217.375 139.293 218.782 140.13 218.87L142.326 219.1L142.328 219.099C142.542 219.123 142.728 219.233 142.855 219.391C142.983 219.55 143.051 219.757 143.027 219.972L143.026 219.978C143.001 220.192 142.892 220.376 142.736 220.501C142.577 220.629 142.37 220.697 142.155 220.674L134.038 219.787C133.822 219.763 133.635 219.653 133.509 219.496C133.382 219.338 133.314 219.133 133.335 218.919L133.336 218.911C133.359 218.697 133.47 218.511 133.628 218.384C133.787 218.256 133.994 218.188 134.209 218.211L136.332 218.448C137.129 218.536 137.362 217.133 136.528 217.042L134.364 216.807V216.809Z" fill="#A86326"/>
<path fill-rule="evenodd" clip-rule="evenodd" d="M113.421 224.888L106.024 226.48L108.496 220.638L108.534 220.581V220.469L109.395 218.372L107.897 216.761L108.215 215.787L110.669 215.375L111.698 212.941L110.032 211.48L110.687 210.038L113.028 210.226L113.505 206.949L112.269 202.591L111.425 201.193L114.19 195.941L128.178 202.454L126.249 207.728L121.436 208.521L118.552 212.678L120.5 214.252L119.976 216.012H117.466L116.492 218.222L118.103 219.345L117.916 221.293L116.08 221.48L114.77 221.967L113.421 224.888Z" fill="#FECC00"/>
<path fill-rule="evenodd" clip-rule="evenodd" d="M86.902 203.522L87.6511 201.986L90.0855 202.51L91.696 200.601L90.2728 198.841L91.2465 197.155L93.5686 198.017L94.9759 195.244L95.1415 191.575L94.0441 188.948L98.0009 184.408L110.31 194.272L106.827 198.949L103.543 198.422L100.399 199.494L98.4748 201.761L99.7109 203.522L99.1864 204.945L97.576 205.058L96.5273 204.533L95.0293 206.592L96.34 208.016L95.8157 209.664L94.0929 209.814L92.9319 209.177L90.6843 212.257L86.4648 207.118L87.6681 205.561L88.063 205.02L86.902 203.522Z" fill="#FECC00"/>
<path fill-rule="evenodd" clip-rule="evenodd" d="M52.1086 202.287L50.5432 201.019L41.2097 198.167L36.6405 187.043C36.5312 186.585 36.4928 186.181 36.3785 185.733L33.2324 174.122L37.1274 172.924L45.8914 175.396L72.9324 180.115C79.5771 199.594 91.0778 213.923 104.318 226.406L98.4752 235.245L100.423 243.635C87.2729 235.454 75.2889 224.281 66.433 205.077L52.1086 202.287Z" fill="#FECC00"/>
<path fill-rule="evenodd" clip-rule="evenodd" d="M177.218 239.912L183.272 247.875L179.334 263.708L178.66 270.225L180.533 277.117L194.915 276.068L183.904 296.517L150.047 286.031L119.86 296.742L117.013 289.476L113.118 287.603L106.602 274.27L112.145 273.67L123.081 277.941L121.657 264.832L121.732 261.536L116.369 248.663L126.142 245.094L150.271 253.895L177.218 239.912Z" fill="#FECC00"/>
<path fill-rule="evenodd" clip-rule="evenodd" d="M252.249 203.195C248.317 229.394 229.317 254.933 184.634 277.137L179.84 276.088L179.391 272.792L181.413 268.298L198.117 255.976L198.154 251.688L200.608 243.261C214.489 233.38 226.002 220.583 234.69 204.31L250.987 199.311L252.249 203.195Z" fill="#4C7EC2"/>
<path fill-rule="evenodd" clip-rule="evenodd" d="M50.2533 207.024L50.0132 200.82L56.5078 203.241L66.433 205.077C72.8749 222.28 90.8622 238.124 100.59 244.552L103.923 255.975L121.489 270.507L122.425 276.799L106.32 270.544C74.2479 253.815 61.3519 232.742 46.0586 210.02L50.2533 207.024Z" fill="#4C7EC2"/>
<path d="M93.1862 209.917L92.0758 209.04L90.0535 211.796L91.1956 212.63L93.1862 209.917ZM95.7966 206.36L94.6861 205.483L95.5149 204.354L96.6254 205.23L95.7966 206.36ZM99.2355 201.674L98.1236 200.799L98.3522 200.488C99.2791 199.225 100.658 198.309 102.256 197.914C103.588 197.584 105.074 197.615 106.578 198.108L109.327 194.457L98.0599 185.352L94.8724 189.065C95.4797 190.509 95.7525 192.197 95.6473 193.831C95.5525 195.301 95.1776 196.694 94.4381 197.884L93.32 197.003C93.8975 196.035 94.1611 194.952 94.2394 193.74C94.3396 192.182 94.0462 190.573 93.4086 189.256L93.2078 188.84L93.5097 188.488L97.437 183.913L97.8836 183.393L98.4147 183.822L110.743 193.786L111.274 194.215L110.864 194.76L107.391 199.372L107.067 199.802L106.569 199.605C105.185 199.055 103.809 198.987 102.596 199.287C101.32 199.603 100.225 200.327 99.4943 201.322L99.2355 201.674ZM88.2255 206.001L87.1113 205.121L85.9043 206.683L87.0261 207.552L88.2255 206.001ZM89.8084 201.632L90.9203 202.515L91.7727 201.399L90.6649 200.525L89.8084 201.632Z" fill="#A86326"/>
<path fill-rule="evenodd" clip-rule="evenodd" d="M112.757 142C111.89 150.001 106.159 154.566 104.34 158.537C100.738 166.402 100.311 171.658 102.42 178.928C92.8445 171.593 91.845 153.051 101.821 140.352C106.082 134.927 103.211 125.172 107.738 120.502C109.4 129.617 110.704 135.421 106.989 143.872C112.209 138.181 111.523 131.212 110.435 117.506C109.812 109.659 114.2 103.276 119.423 99.2287C116.273 117.501 123.047 122.173 125.341 131.738C127.343 140.086 127.008 149.746 118.565 157.826C111.837 164.266 107.599 174.5 108.038 183.422C104.512 176.768 101.438 167.851 107.289 156.906C109.946 151.935 112.742 150.309 112.757 142ZM134.253 154.247C118.36 170.736 121.204 187.643 131.257 199.639C123.362 199.819 106.298 186.365 119.422 162.936C124.13 154.53 131.898 141.295 127.062 126.532C123.555 115.825 128.31 109.975 132.455 107.655C131.618 118.587 134.835 123.569 137.099 125.483C145.051 132.205 141.236 147.002 134.253 154.247ZM150.582 161.438C131.531 178.492 136.819 189.633 141.594 201.437C129.701 193.362 121.923 183.587 140.096 163.085C133.034 166.717 129.329 172.586 127.062 179.415C126.064 173.422 126.736 166.096 137.998 152.898C145.075 144.605 146.736 131.58 142.193 121.588C138.106 112.599 141.061 102.73 151.032 91.3262C146.053 108.616 147.775 115.292 155.526 122.936C165.226 132.501 159.586 153.378 150.582 161.438ZM152.979 133.872C158.711 144.574 153.372 150.699 145.789 155.895C153.113 149.573 155.747 141.843 152.979 133.872ZM182.486 147.617C187.817 157.919 182.256 172.959 175.07 178.553C182.783 169.324 185.766 153.06 182.486 147.617ZM153.429 168.965C143.476 176.88 143.906 188.716 151.931 203.422C130.352 189.565 146.454 169.062 148.731 166.776C164.725 150.72 166.657 138.791 161.518 125.221C159.666 120.328 157.359 113.853 161.069 105.595C161.484 112.779 164.249 118.787 169.458 123.573C168.094 132.894 174.584 140.628 177.249 148.741C181.164 160.662 164.215 168.067 168.26 185.295C169.761 191.69 169.757 197.662 166.612 202.223C166.989 200.017 165.072 194.305 162.203 188.312C159.124 181.88 158.932 173.417 164.215 168.067C168.201 164.03 170.341 158.687 170.657 151.363C169.223 157.296 168.519 162.462 163.271 167.112C157.553 172.179 155.821 179.567 160.17 187.692C162.163 191.416 162.149 196.311 159.871 202.074C151.499 195.483 147.816 185.544 153.429 168.965ZM180.545 191.362C180.188 194.35 178.622 197.005 176.649 198.254C176.275 194.009 174.933 189.651 173.503 185.52C171.197 178.853 173.734 171.415 177.249 163.198C180.658 155.229 180.013 145.19 175.601 137.58C168.898 126.02 172 115.321 172.305 104.472C175.769 107.111 177.4 112.066 177.399 119.453C177.397 127.437 181.577 135.187 186.088 141.775C193.508 152.614 193.91 164.875 186.237 175.333C181.175 182.233 180.986 187.662 180.545 191.362ZM200.582 143.535C210.747 160.061 204.589 175.033 187.398 187.28C199.746 171.147 202.397 154.492 189.346 140.09C180.738 130.591 179.957 122.367 181.556 115.82C182.583 111.614 183.328 107.493 183.204 102.937C186.133 106.715 186.53 112.568 187.398 120.015C188.589 130.231 196.482 136.87 200.582 143.535Z" fill="#E4272C"/>
<path fill-rule="evenodd" clip-rule="evenodd" d="M237.706 68.4899L235.159 69.3888C214.535 49.0855 193.507 36.4415 172.284 31.5187L174.56 29.5391C202.886 37.9326 222.367 51.9051 237.706 68.4899Z" fill="#A86326"/>
<path fill-rule="evenodd" clip-rule="evenodd" d="M62.6455 68.5368L65.1922 69.4357C85.816 49.1324 106.851 36.4937 128.074 31.5709L125.791 29.5859C97.4654 37.9795 77.9847 51.952 62.6455 68.5368Z" fill="#A86326"/>
<path fill-rule="evenodd" clip-rule="evenodd" d="M241.376 79.4993L237.48 79.6491L235.008 76.0536L234.858 71.2598L239.428 71.7092L242.124 75.3795L241.376 79.4993Z" fill="#A86326"/>
<path fill-rule="evenodd" clip-rule="evenodd" d="M58.9755 79.5481L62.8707 79.6979L65.3426 76.1024L65.4924 71.3086L60.9232 71.758L58.2266 75.4284L58.9755 79.5481Z" fill="#A86326"/>
<path fill-rule="evenodd" clip-rule="evenodd" d="M245.87 87.366L242.125 86.6918L239.278 81.6731L242.874 82.1226L243.773 77.7031L246.919 83.1712L245.87 87.366Z" fill="#A86326"/>
<path fill-rule="evenodd" clip-rule="evenodd" d="M54.4812 87.4148L58.2266 86.7406L61.073 81.722L57.4775 82.1714L56.5786 77.752L53.4326 83.22L54.4812 87.4148Z" fill="#A86326"/>
<path fill-rule="evenodd" clip-rule="evenodd" d="M246.096 94.032L243.848 89.3129L247.144 90.4364L248.792 84.5938L251.564 91.9346L250.29 95.7547L246.096 94.032Z" fill="#A86326"/>
<path fill-rule="evenodd" clip-rule="evenodd" d="M54.2562 94.0808L56.5033 89.3617L53.2074 90.4852L51.5596 84.6426L48.7881 91.9834L50.0614 95.8035L54.2562 94.0808Z" fill="#A86326"/>
<path fill-rule="evenodd" clip-rule="evenodd" d="M254.41 104.593L250.514 103.769L247.593 97.5521L251.713 98.526L253.286 94.8555L255.908 100.324L254.41 104.593Z" fill="#A86326"/>
<path fill-rule="evenodd" clip-rule="evenodd" d="M45.9424 104.642L49.8375 103.818L52.7588 97.6009L48.639 98.5748L47.066 94.9043L44.4443 100.373L45.9424 104.642Z" fill="#A86326"/>
<path fill-rule="evenodd" clip-rule="evenodd" d="M232.126 74.969C212.195 53.7317 190.263 40.2773 167.735 35.2198L170.267 33.1602C193.496 40.0094 214.291 52.7891 231.527 69.426L232.126 74.969Z" fill="#A86326"/>
<path fill-rule="evenodd" clip-rule="evenodd" d="M68.2266 75.0171C88.1573 53.7798 110.081 40.3181 132.608 35.2605L130.108 33.2266C106.88 40.0758 86.062 52.8372 68.8258 69.4742L68.2266 75.0171Z" fill="#A86326"/>
<path fill-rule="evenodd" clip-rule="evenodd" d="M260.419 187.271L256.075 189.143L251.729 183.899L253.454 179.93L257.273 185.323L262.067 182.026L260.419 187.271Z" fill="#A86326"/>
<path fill-rule="evenodd" clip-rule="evenodd" d="M39.9331 187.319L44.2777 189.192L48.6223 183.949L46.8994 179.979L43.0792 185.372L38.2852 182.076L39.9331 187.319Z" fill="#A86326"/>
<path d="M112.432 209.299H112.429C111.876 209.05 111.273 209.05 110.747 209.25C110.263 209.433 109.842 209.786 109.583 210.271L109.573 210.281L109.516 210.407C109.268 210.959 109.268 211.563 109.467 212.088C109.668 212.618 110.069 213.07 110.622 213.319L118.068 216.668H118.071C118.624 216.916 119.227 216.917 119.753 216.717C120.282 216.516 120.735 216.115 120.984 215.562L121.047 215.421V215.405C121.231 214.896 121.214 214.355 121.033 213.877C120.833 213.35 120.432 212.898 119.878 212.648L117.858 211.743C117.14 211.421 116.511 212.696 117.28 213.038L119.297 213.935H119.3C119.496 214.023 119.639 214.185 119.711 214.375C119.784 214.566 119.784 214.784 119.695 214.981L119.693 214.987C119.603 215.183 119.442 215.325 119.255 215.396C119.064 215.468 118.846 215.469 118.649 215.38L111.203 212.031C111.004 211.941 110.86 211.779 110.789 211.591C110.717 211.401 110.716 211.185 110.802 210.989L110.805 210.982C110.893 210.785 111.055 210.642 111.245 210.571C111.436 210.498 111.653 210.497 111.851 210.585L113.798 211.466C114.528 211.796 115.183 210.534 114.417 210.19L112.432 209.299Z" fill="#A86326"/>
<path d="M110.259 214.692L117.705 218.041C118.259 218.291 118.66 218.745 118.86 219.272C119.041 219.749 119.058 220.29 118.874 220.799V220.815L118.811 220.957C118.562 221.51 118.109 221.911 117.58 222.112C117.054 222.311 116.451 222.311 115.898 222.062H115.896L108.449 218.714C107.896 218.465 107.495 218.012 107.294 217.483C107.095 216.957 107.095 216.354 107.343 215.801L107.4 215.676L107.411 215.666C107.67 215.181 108.09 214.828 108.574 214.644C109.1 214.444 109.703 214.445 110.256 214.693L110.259 214.692ZM117.125 219.33L109.678 215.981C109.48 215.893 109.263 215.892 109.072 215.965C108.882 216.037 108.72 216.18 108.632 216.376L108.629 216.383C108.543 216.58 108.544 216.796 108.616 216.985C108.687 217.174 108.831 217.336 109.03 217.425L116.476 220.774C116.674 220.862 116.892 220.862 117.083 220.79C117.269 220.719 117.43 220.577 117.52 220.382L117.522 220.376C117.611 220.178 117.611 219.96 117.539 219.77C117.467 219.58 117.324 219.418 117.127 219.33L117.125 219.33Z" fill="#A86326"/>
<path fill-rule="evenodd" clip-rule="evenodd" d="M120.047 210.058C121.679 208.524 123.182 207.705 126.149 207.966L126.348 207.491L111.533 201.014L111.317 201.374C112.623 202.721 113.427 204.572 113.513 207.149L120.047 210.058Z" fill="#A86326"/>
<path d="M115.585 221.923L114.295 221.343L113.21 224.002L114.838 223.753L115.585 221.923ZM117.252 217.838L115.962 217.258L116.491 215.96L117.781 216.541L117.252 217.838ZM119.448 212.456L118.157 211.878L118.303 211.521C118.895 210.07 120.009 208.847 121.464 208.074C122.675 207.431 124.125 207.1 125.702 207.212L127.481 203.002L114.338 196.91L112.149 201.287C113.09 202.54 113.765 204.111 114.06 205.721C114.326 207.171 114.301 208.613 113.873 209.947L112.574 209.364C112.899 208.285 112.891 207.17 112.672 205.976C112.391 204.44 111.715 202.951 110.776 201.828L110.48 201.474L110.687 201.059L113.384 195.666L113.691 195.053L114.31 195.34L128.692 202.007L129.311 202.293L129.046 202.922L126.799 208.24L126.589 208.736L126.058 208.666C124.582 208.469 123.231 208.738 122.127 209.324C120.966 209.941 120.08 210.909 119.613 212.052L119.448 212.456ZM109.821 219.331L108.526 218.749L105.662 225.296L107.347 224.987L109.821 219.331ZM110.294 214.709L111.587 215.294L112.142 214.005L110.855 213.426L110.294 214.709Z" fill="#A86326"/>
<path d="M188.659 209.26H188.662C189.215 209.011 189.818 209.011 190.344 209.21C190.828 209.394 191.248 209.747 191.507 210.232L191.519 210.242L191.575 210.368C191.823 210.92 191.824 211.523 191.624 212.049C191.423 212.578 191.022 213.031 190.469 213.28L183.023 216.629H183.02C182.467 216.877 181.864 216.878 181.338 216.678C180.809 216.477 180.356 216.076 180.108 215.523L180.044 215.382V215.366C179.86 214.857 179.877 214.316 180.058 213.838C180.258 213.311 180.66 212.859 181.214 212.609L183.234 211.704C183.952 211.382 184.58 212.657 183.811 212.999L181.794 213.896H181.791C181.595 213.984 181.452 214.146 181.38 214.336C181.307 214.527 181.307 214.745 181.396 214.942L181.399 214.948C181.488 215.144 181.649 215.286 181.836 215.356C182.027 215.429 182.245 215.43 182.443 215.341L189.889 211.992C190.087 211.902 190.231 211.74 190.303 211.552C190.375 211.362 190.376 211.146 190.29 210.95L190.287 210.943C190.199 210.746 190.037 210.603 189.847 210.531C189.656 210.459 189.439 210.458 189.241 210.546L187.294 211.427C186.564 211.757 185.909 210.495 186.675 210.151L188.66 209.259L188.659 209.26Z" fill="#A86326"/>
<path d="M190.831 214.653L183.385 218.002C182.831 218.252 182.43 218.706 182.23 219.233C182.049 219.71 182.032 220.251 182.216 220.76V220.776L182.279 220.918C182.528 221.47 182.981 221.872 183.51 222.073C184.036 222.272 184.639 222.272 185.192 222.023H185.195L192.641 218.675C193.194 218.426 193.595 217.973 193.796 217.444C193.996 216.918 193.995 216.315 193.747 215.762L193.69 215.637L193.679 215.627C193.42 215.142 192.999 214.789 192.516 214.605C191.99 214.405 191.387 214.406 190.834 214.654L190.831 214.653ZM183.966 219.291L191.412 215.942C191.61 215.854 191.827 215.853 192.018 215.926C192.208 215.998 192.37 216.141 192.458 216.337L192.461 216.344C192.547 216.541 192.546 216.757 192.474 216.946C192.402 217.135 192.258 217.297 192.06 217.386L184.613 220.735C184.416 220.823 184.198 220.823 184.007 220.751C183.82 220.68 183.659 220.538 183.57 220.342L183.567 220.337C183.478 220.139 183.478 219.921 183.551 219.731C183.623 219.541 183.766 219.379 183.962 219.291L183.966 219.291Z" fill="#A86326"/>
<path fill-rule="evenodd" clip-rule="evenodd" d="M181.043 210.017C179.411 208.482 177.907 207.664 174.941 207.925L174.741 207.45L189.557 200.973L189.772 201.333C188.466 202.68 187.662 204.531 187.576 207.108L181.043 210.017Z" fill="#A86326"/>
<path d="M185.505 221.882L186.796 221.302L187.849 223.885L186.224 223.642L185.505 221.882ZM183.838 217.797L185.129 217.217L184.6 215.919L183.309 216.5L183.838 217.797ZM181.642 212.415L182.934 211.837L182.788 211.48C182.196 210.029 181.081 208.806 179.627 208.033C178.415 207.39 176.966 207.058 175.388 207.171L173.609 202.961L186.752 196.869L188.941 201.246C188.001 202.499 187.326 204.07 187.03 205.68C186.765 207.13 186.79 208.572 187.217 209.906L188.516 209.323C188.191 208.244 188.199 207.129 188.418 205.934C188.7 204.399 189.376 202.91 190.314 201.787L190.61 201.433L190.403 201.018L187.706 195.625L187.4 195.012L186.78 195.299L172.398 201.965L171.779 202.252L172.045 202.881L174.292 208.199L174.501 208.695L175.033 208.624C176.509 208.428 177.859 208.697 178.963 209.283C180.124 209.9 181.011 210.868 181.477 212.011L181.642 212.415ZM191.27 219.29L192.564 218.707L195.381 225.147L193.7 224.845L191.27 219.29ZM190.797 214.667L189.504 215.253L188.948 213.964L190.235 213.385L190.797 214.667Z" fill="#A86326"/>
<path d="M93.1971 196.906L93.1944 196.906C92.7186 196.53 92.1337 196.383 91.575 196.449C91.061 196.509 90.5671 196.75 90.198 197.157L90.185 197.164L90.0997 197.272C89.7243 197.748 89.5774 198.333 89.6431 198.891C89.7089 199.453 89.9882 199.99 90.4638 200.366L96.8722 205.425L96.8751 205.426C97.3507 205.801 97.9357 205.948 98.4944 205.883C99.0564 205.817 99.5935 205.537 99.969 205.062L100.065 204.94L100.069 204.925C100.371 204.475 100.486 203.947 100.427 203.44C100.361 202.879 100.081 202.343 99.6048 201.966L97.8657 200.596C97.2475 200.11 96.3273 201.194 96.9901 201.713L98.729 203.073L98.7317 203.074C98.9006 203.207 98.9998 203.399 99.0236 203.601C99.0473 203.804 98.9948 204.015 98.8605 204.185L98.8567 204.189C98.7222 204.357 98.5317 204.456 98.3331 204.479C98.1302 204.503 97.9186 204.451 97.7482 204.317L91.3405 199.257C91.1696 199.122 91.0694 198.93 91.0459 198.729C91.0222 198.528 91.0736 198.318 91.2048 198.149L91.2098 198.143C91.343 197.974 91.5352 197.875 91.7364 197.851C91.9392 197.827 92.1506 197.879 92.3211 198.013L93.9949 199.341C94.6231 199.839 95.5653 198.773 94.9062 198.253L93.1971 196.906Z" fill="#A86326"/>
<path d="M89.7783 201.609L96.1867 206.668C96.6631 207.045 96.9417 207.582 97.0075 208.143C97.0673 208.65 96.9519 209.179 96.65 209.628L96.6462 209.643L96.55 209.765C96.1745 210.241 95.6376 210.52 95.0755 210.586C94.5169 210.651 93.9317 210.504 93.4561 210.129L93.4534 210.128L87.045 205.069C86.5692 204.693 86.2901 204.157 86.2241 203.594C86.1585 203.036 86.3055 202.451 86.6809 201.975L86.766 201.867L86.779 201.86C87.1482 201.453 87.6422 201.212 88.1562 201.152C88.7149 201.086 89.2998 201.233 89.7756 201.609L89.7783 201.609ZM95.31 207.777L88.9016 202.717C88.731 202.583 88.5204 202.531 88.3176 202.554C88.1163 202.578 87.9242 202.677 87.791 202.846L87.786 202.852C87.6547 203.022 87.6034 203.231 87.6271 203.433C87.6506 203.633 87.7508 203.825 87.9216 203.96L94.3299 209.019C94.5002 209.153 94.7113 209.206 94.9141 209.182C95.1127 209.159 95.3032 209.06 95.4377 208.893L95.4415 208.887C95.5759 208.717 95.6284 208.505 95.6048 208.303C95.581 208.101 95.4817 207.909 95.3129 207.776L95.31 207.777Z" fill="#A86326"/>
<path fill-rule="evenodd" clip-rule="evenodd" d="M100.399 199.494C102.356 198.402 104.013 197.974 106.827 198.948L107.136 198.536L94.3408 188.65L94.0439 188.948C94.9833 190.571 95.3128 192.563 94.7697 195.083L100.399 199.494Z" fill="#A86326"/>
<path d="M207.327 196.865L207.33 196.864C207.806 196.489 208.391 196.342 208.949 196.408C209.463 196.468 209.957 196.708 210.327 197.116L210.339 197.123L210.424 197.231C210.8 197.707 210.947 198.292 210.881 198.85C210.815 199.412 210.536 199.949 210.06 200.325L203.652 205.384L203.649 205.385C203.174 205.76 202.588 205.907 202.03 205.841C201.468 205.776 200.931 205.496 200.555 205.021L200.459 204.899L200.455 204.883C200.153 204.434 200.038 203.906 200.097 203.398C200.163 202.838 200.442 202.302 200.919 201.925L202.658 200.555C203.276 200.069 204.196 201.153 203.533 201.672L201.795 203.032L201.792 203.033C201.623 203.166 201.524 203.358 201.5 203.56C201.476 203.762 201.529 203.974 201.663 204.144L201.668 204.148C201.802 204.316 201.993 204.415 202.191 204.438C202.394 204.462 202.606 204.41 202.776 204.276L209.184 199.216C209.354 199.081 209.455 198.889 209.478 198.688C209.502 198.487 209.45 198.277 209.319 198.108L209.314 198.102C209.18 197.933 208.988 197.834 208.787 197.81C208.584 197.786 208.373 197.838 208.202 197.972L206.528 199.3C205.9 199.798 204.958 198.732 205.617 198.212L207.327 196.865Z" fill="#A86326"/>
<path d="M210.745 201.57L204.337 206.629C203.861 207.006 203.582 207.543 203.516 208.104C203.456 208.611 203.572 209.139 203.874 209.588L203.878 209.604L203.974 209.726C204.35 210.201 204.887 210.481 205.449 210.547C206.007 210.612 206.592 210.465 207.068 210.09L207.071 210.089L213.479 205.03C213.955 204.654 214.234 204.117 214.3 203.555C214.366 202.997 214.219 202.412 213.843 201.936L213.758 201.828L213.745 201.821C213.376 201.414 212.882 201.173 212.368 201.113C211.81 201.047 211.225 201.194 210.749 201.57L210.745 201.57ZM205.214 207.737L211.622 202.678C211.793 202.544 212.003 202.491 212.206 202.515C212.407 202.539 212.6 202.638 212.733 202.807L212.737 202.813C212.868 202.983 212.92 203.192 212.896 203.394C212.872 203.594 212.772 203.786 212.601 203.921L206.193 208.98C206.023 209.114 205.812 209.167 205.609 209.143C205.41 209.12 205.22 209.021 205.085 208.853L205.081 208.848C204.947 208.678 204.894 208.466 204.918 208.264C204.942 208.062 205.041 207.87 205.21 207.737L205.213 207.736L205.214 207.737Z" fill="#A86326"/>
<path fill-rule="evenodd" clip-rule="evenodd" d="M200.125 199.453C198.168 198.361 196.511 197.933 193.697 198.907L193.388 198.495L206.183 188.609L206.48 188.907C205.54 190.53 205.211 192.522 205.754 195.042L200.125 199.453Z" fill="#A86326"/>
<path fill-rule="evenodd" clip-rule="evenodd" d="M141.841 215.18C142.92 213.216 144.097 211.974 146.999 211.306L147.043 210.793L130.951 209.205L130.857 209.614C132.515 210.492 133.852 212.005 134.729 214.429L141.841 215.18Z" fill="#A86326"/>
<path d="M142.012 217.644L140.605 217.492L140.634 217.107C140.749 215.545 141.432 214.037 142.577 212.854C143.53 211.867 144.807 211.105 146.342 210.725L146.734 206.172L132.353 204.434L131.622 209.273C132.903 210.174 134.03 211.46 134.808 212.901C135.508 214.198 135.93 215.577 135.934 216.978L134.519 216.824C134.495 215.697 134.143 214.64 133.567 213.571C132.825 212.198 131.722 210.99 130.482 210.211L130.092 209.966L130.161 209.507L131.061 203.545L131.163 202.867L131.841 202.949L147.579 204.851L148.256 204.932L148.198 205.612L147.702 211.364L147.656 211.901L147.129 211.998C145.664 212.266 144.462 212.939 143.593 213.837C142.679 214.782 142.135 215.977 142.044 217.208L142.012 217.644ZM134.094 221.604L135.402 221.621L135.541 221.372L134.138 221.218L134.094 221.604Z" fill="#A86326"/>
<path fill-rule="evenodd" clip-rule="evenodd" d="M158.825 215.705C157.746 213.742 156.568 212.499 153.667 211.832L153.623 211.318L169.714 209.73L169.808 210.14C168.15 211.017 166.814 212.531 165.937 214.955L158.825 215.705Z" fill="#A86326"/>
<path d="M158.654 218.171L160.06 218.02L160.032 217.635C159.916 216.072 159.234 214.564 158.089 213.381C157.135 212.395 155.859 211.632 154.324 211.252L153.931 206.699L168.313 204.961L169.043 209.8C167.762 210.702 166.635 211.988 165.857 213.428C165.157 214.725 164.736 216.104 164.731 217.505L166.146 217.351C166.17 216.225 166.522 215.167 167.099 214.098C167.84 212.725 168.943 211.517 170.183 210.739L170.574 210.493L170.504 210.035L169.604 204.073L169.502 203.395L168.824 203.477L153.087 205.378L152.409 205.46L152.468 206.139L152.963 211.891L153.01 212.428L153.537 212.525C155.001 212.794 156.203 213.466 157.072 214.365C157.986 215.31 158.53 216.504 158.621 217.735L158.654 218.171Z" fill="#A86326"/>
<path fill-rule="evenodd" clip-rule="evenodd" d="M141.328 21.6313L150.328 3L158.735 22.1233L178.717 24.3945L163.005 37.5972L167.322 57.2058L150.328 46.7913L132.761 56.8402L137.498 37.1939L122.763 24.3945L141.328 21.6313ZM142.536 23.2889L150.186 7.45242L157.332 23.7072L174.317 25.6377L160.962 36.86L164.632 53.5272L150.186 44.6751L135.255 53.2165L139.281 36.5172L126.756 25.6377L142.536 23.2889Z" fill="#A86326"/>
<path fill-rule="evenodd" clip-rule="evenodd" d="M142.536 23.2896L150.186 7.45312L157.332 23.7079L174.317 25.6384L160.962 36.8607L164.632 53.5279L150.186 44.6758L135.255 53.2172L139.281 36.5179L126.756 25.6384L142.536 23.2896ZM143.745 24.9474L150.045 11.9056L155.93 25.2918L169.917 26.8816L158.919 36.1235L161.941 49.8495L150.045 42.5594L137.748 49.5936L141.064 35.8413L130.749 26.8816L143.745 24.9474Z" fill="#FECC00"/>
<path fill-rule="evenodd" clip-rule="evenodd" d="M155.931 25.2906L169.919 26.8804L158.92 36.1223L161.942 49.8483L150.046 42.5581L137.749 49.5924L141.065 35.84L130.75 26.8804L143.746 24.9462L150.046 11.9043L155.931 25.2906Z" fill="#E31E24"/>
<path fill-rule="evenodd" clip-rule="evenodd" d="M238.791 86.3229L237.368 91.3416L231.975 89.1693L229.053 84.675L229.428 81.6789C212.927 60.4478 191.726 46.121 165.438 39.0721L165.065 37.3909L165.762 36.8242C202.893 48.7807 218.133 64.0121 230.776 79.5815L235.495 80.2555L238.791 86.3229ZM230.233 84.5622L230.533 81.0791L233.342 81.4161L236.488 86.6596L236.076 88.607L232.068 87.2587L230.233 84.5622Z" fill="#A86326"/>
<path fill-rule="evenodd" clip-rule="evenodd" d="M61.5605 86.3708L62.9837 91.3894L68.3769 89.2172L71.2983 84.7228L70.9238 81.7267C87.4244 60.4957 108.626 46.1689 134.914 39.12L135.286 37.4387L134.589 36.8711C97.458 48.8276 82.2186 64.06 69.5755 79.6293L64.8563 80.3034L61.5605 86.3708ZM70.1189 84.61L69.8192 81.1269L67.0102 81.464L63.8642 86.7074L64.2763 88.6549L68.2836 87.3066L70.1189 84.61Z" fill="#A86326"/>
<path fill-rule="evenodd" clip-rule="evenodd" d="M230.495 90.2911L237.461 93.5122L240.174 88.0523L243.678 95.16L240.682 102.276L230.944 96.808C227.854 89.4889 222.018 80.4843 216.839 74.8795C202.549 59.4139 186.254 49.6365 166.528 43.9884L166.085 41.9902C189.407 48.2632 203.696 58.5497 215.131 70.2371C221.867 77.1213 226.351 83.3512 230.495 90.2911ZM232.012 94.8792L230.626 91.471L236.881 94.3548L235.682 96.8267L232.012 94.8792ZM237.255 97.6506L240.064 91.8455L241.937 95.4784L240.289 99.2611L237.255 97.6506Z" fill="#A86326"/>
<path fill-rule="evenodd" clip-rule="evenodd" d="M69.8563 90.34L62.89 93.5611L60.177 88.1012L56.6729 95.2089L59.6691 102.325L69.4069 96.8569C72.4974 89.5378 78.333 80.5332 83.512 74.9284C97.8022 59.4628 114.084 49.7472 133.81 44.099L134.259 42.0723C110.937 48.3452 96.655 58.5986 85.2198 70.286C78.4844 77.1702 74.0003 83.4001 69.8563 90.34ZM68.3394 94.9281L69.7252 91.5199L63.4705 94.4037L64.6691 96.8756L68.3394 94.9281ZM63.0961 97.6995L60.2871 91.8944L58.4145 95.5273L60.0624 99.31L63.0961 97.6995Z" fill="#A86326"/>
<path fill-rule="evenodd" clip-rule="evenodd" d="M229.203 96.5652L227.33 102.183L222.761 100.835C209.466 79.0986 193.016 61.1922 168.529 53.045L168.08 50.9476C185.933 56.1964 203.785 69.5434 221.638 94.7674L222.611 91.5464C207.795 68.8481 188.707 56.2738 167.497 48.3601L167 46.1172C190.125 54.1465 210.45 67.034 224.184 90.6475L226.881 91.846L229.203 96.5652ZM224.222 99.4117L222.312 96.4903L223.51 92.8573L225.458 93.5689L227.256 96.9022L226.207 99.7487L224.222 99.4117Z" fill="#A86326"/>
<path fill-rule="evenodd" clip-rule="evenodd" d="M71.1484 96.614L73.0211 102.232L77.5904 100.884C90.886 79.1474 107.336 61.241 131.822 53.0938L132.271 50.9964C114.419 56.2452 96.5664 69.5922 78.7139 94.8162L77.7402 91.5952C92.5566 68.8969 111.645 56.3226 132.855 48.4089L133.349 46.1777C110.224 54.2071 89.9012 67.0828 76.1671 90.6963L73.4705 91.8949L71.1484 96.614ZM76.1296 99.4605L78.0397 96.5391L76.8412 92.9061L74.8937 93.6177L73.0959 96.951L74.1446 99.7975L76.1296 99.4605Z" fill="#A86326"/>
<path fill-rule="evenodd" clip-rule="evenodd" d="M206.687 43.2934L205.206 42.4372L206.657 41.0975C207.559 40.2639 209.276 40.7984 210.327 41.4346C253.267 67.4282 267.858 108.464 269.959 154.124L267.855 154.742C267.153 111.52 254.312 71.9822 209.578 42.5956C209.031 42.236 208.09 41.8664 207.63 42.3334L206.687 43.2934Z" fill="#A86326"/>
<path fill-rule="evenodd" clip-rule="evenodd" d="M93.6657 43.3423L95.1464 42.486L93.6957 41.1463C92.7932 40.3127 91.0761 40.8472 90.0254 41.4834C47.0858 67.477 32.45 108.484 30.3486 154.143L32.5971 155.991C33.2998 112.769 46.0403 72.0311 90.7745 42.6444C91.3217 42.2849 92.2629 41.9153 92.722 42.3823L93.6657 43.3423Z" fill="#A86326"/>
<path fill-rule="evenodd" clip-rule="evenodd" d="M208.367 80.752L209.32 81.877L208.472 82.8399C208.025 83.3476 208.19 84.3746 208.659 84.8622C225.887 102.763 231.917 128.961 231.496 159.407L229.878 159.787C229.993 133.092 225.428 107.212 207.086 85.2743C206.529 84.6079 206.192 83.3568 206.749 82.69L208.367 80.752Z" fill="#A86326"/>
<path fill-rule="evenodd" clip-rule="evenodd" d="M91.9847 80.7988L91.0316 81.9239L91.88 82.8867C92.3274 83.3945 92.1621 84.4215 91.6927 84.9091C74.4646 102.81 68.4351 129.451 68.8564 159.897L70.3856 160.144C70.2703 133.449 74.9238 107.259 93.2658 85.3212C93.8229 84.6547 94.1597 83.4037 93.6028 82.7368L91.9847 80.7988Z" fill="#A86326"/>
<path fill-rule="evenodd" clip-rule="evenodd" d="M256.897 113.924L252.852 112.201L251.204 106.208L254.875 108.156L257.272 103.512L258.845 110.403L256.897 113.924Z" fill="#A86326"/>
<path fill-rule="evenodd" clip-rule="evenodd" d="M43.4543 113.972L47.4992 112.25L49.1472 106.257L45.4768 108.205L43.0798 103.561L41.5068 110.452L43.4543 113.972Z" fill="#A86326"/>
<path fill-rule="evenodd" clip-rule="evenodd" d="M258.995 122.312L254.8 120.439L253.377 114.672L257.421 116.619L259.669 112.35L261.242 118.042L258.995 122.312Z" fill="#A86326"/>
<path fill-rule="evenodd" clip-rule="evenodd" d="M41.3575 122.361L45.5523 120.488L46.9755 114.72L42.9306 116.668L40.6834 112.398L39.1104 118.091L41.3575 122.361Z" fill="#A86326"/>
<path fill-rule="evenodd" clip-rule="evenodd" d="M260.418 130.327L256.448 128.08L255.325 123.061L259.669 125.683L262.291 121.264L262.74 127.106L260.418 130.327Z" fill="#A86326"/>
<path fill-rule="evenodd" clip-rule="evenodd" d="M39.9344 130.376L43.9044 128.129L45.028 123.11L40.6835 125.732L38.0617 121.312L37.6123 127.155L39.9344 130.376Z" fill="#A86326"/>
<path fill-rule="evenodd" clip-rule="evenodd" d="M260.868 139.018L257.571 136.77L256.973 131.078L260.343 133.549L263.34 129.43L263.863 135.047L260.868 139.018Z" fill="#A86326"/>
<path fill-rule="evenodd" clip-rule="evenodd" d="M39.4844 139.064L42.7803 136.818L43.3795 131.124L40.0087 133.596L37.0126 129.477L36.4883 135.095L39.4844 139.064Z" fill="#A86326"/>
<path fill-rule="evenodd" clip-rule="evenodd" d="M262.366 148.905L258.096 147.032L257.571 139.541L260.942 142.313L264.537 137.52L265.137 145.159L262.366 148.905Z" fill="#A86326"/>
<path fill-rule="evenodd" clip-rule="evenodd" d="M37.9863 148.952L42.2559 147.079L42.7803 139.589L39.4095 142.361L35.814 137.566L35.2148 145.207L37.9863 148.952Z" fill="#A86326"/>
<path fill-rule="evenodd" clip-rule="evenodd" d="M265.436 147.705L265.825 155.838L258.784 155.922L258.097 148.979L262.366 151.601L265.436 147.705Z" fill="#A86326"/>
<path fill-rule="evenodd" clip-rule="evenodd" d="M34.9153 147.754L34.5156 155.322L41.6068 155.922L42.256 149.026L37.9864 151.648L34.9153 147.754Z" fill="#A86326"/>
<path fill-rule="evenodd" clip-rule="evenodd" d="M246.823 156.8L244.104 157.215L244.107 154.578L246.823 156.8ZM248.654 156.52L243.939 152.35L243.265 143.736L250.456 148.904L255.475 142.163L256.598 152.35L253.952 155.711L248.654 156.52ZM251.71 155.627L248.49 153.492L253.658 146.526L254.37 152.369L251.71 155.627ZM248.677 149.185L246.654 152.556L245.456 151.732L244.894 146.264L248.677 149.185ZM250.156 145.833L243.415 141.339L241.991 131.077L249.632 135.946L253.976 130.103L255.25 139.092L250.156 145.833ZM249.8 143.68L246.804 141.433L252.609 134.054L253.134 139.485L249.8 143.68ZM244.407 140.009L244.033 133.455L247.853 135.89L245.156 140.496L244.407 140.009ZM250.081 132.875L241.692 128.006L240.119 120.066L247.609 124.56L251.729 117.819L253.302 126.133L250.081 132.875ZM249.576 130.346L246.242 128.549L250.437 121.92L251.411 126.901L249.576 130.346ZM246.317 124.804L244.37 127.837L243.621 127.5L242.085 122.406L246.317 124.804ZM239.894 117.744L237.946 111.077L244.913 113.998L248.508 107.182L251.055 114.373L247.534 121.938L239.894 117.744ZM246.991 119.41L243.808 117.725L247.703 110.796L249.126 114.991L246.991 119.41ZM243.808 114.579L242.31 117.35L241.261 116.751L239.426 112.781L243.808 114.579ZM244.014 111.077L236.823 108.83L234.726 101.939L241.392 104.785L244.913 97.1445L247.534 104.41L244.014 111.077ZM243.321 109.467L240.55 108.624L244.22 101.208L245.643 104.729L243.321 109.467ZM240.662 105.44L239.594 108.306L238.34 107.95L237.029 103.98L240.662 105.44Z" fill="#A86326"/>
<path fill-rule="evenodd" clip-rule="evenodd" d="M53.5289 156.848L56.248 157.264L56.2445 154.627L53.5289 156.848ZM51.6978 156.569L56.4129 152.399L57.0871 143.785L49.8962 148.953L44.8774 142.212L43.7539 152.399L46.4 155.76L51.6978 156.569ZM48.6415 155.676L51.8624 153.541L46.694 146.575L45.9824 152.418L48.6415 155.676ZM51.6751 149.234L53.6976 152.605L54.8962 151.781L55.4578 146.313L51.6751 149.234ZM50.1957 145.882L56.9372 141.388L58.3605 131.126L50.72 135.994L46.3756 130.152L45.1022 139.14L50.1957 145.882ZM50.5516 143.729L53.5477 141.481L47.7426 134.103L47.2183 139.534L50.5516 143.729ZM55.9448 140.058L56.3193 133.504L52.4991 135.938L55.1957 140.545L55.9448 140.058ZM50.2706 132.923L58.6601 128.055L60.2332 120.115L52.7426 124.609L48.6226 117.867L47.0497 126.182L50.2706 132.923ZM50.7762 130.395L54.1095 128.598L49.9149 121.968L48.9411 126.95L50.7762 130.395ZM54.0347 124.852L55.9822 127.886L56.7313 127.549L58.2668 122.455L54.0347 124.852ZM60.4578 117.793L62.4054 111.126L55.4392 114.047L51.8437 107.231L49.2969 114.422L52.8174 121.987L60.4578 117.793ZM53.3606 119.459L56.544 117.774L52.6489 110.845L51.2257 115.04L53.3606 119.459ZM56.5441 114.628L58.0422 117.399L59.0908 116.8L60.9259 112.83L56.5441 114.628ZM56.338 111.126L63.5289 108.879L65.6263 101.987L58.9597 104.834L55.4392 97.1934L52.8174 104.459L56.338 111.126ZM57.0311 109.515L59.8024 108.673L56.1321 101.257L54.7089 104.778L57.0311 109.515ZM59.69 105.489L60.7575 108.354L62.0121 107.999L63.323 104.029L59.69 105.489Z" fill="#A86326"/>
<path fill-rule="evenodd" clip-rule="evenodd" d="M234.454 145.543L233.893 145.206L233.705 141.648L236.102 143.558L234.454 145.543ZM237.675 149.7L233.406 146.779L232.919 139.775L236.739 142.959L240.672 138.015L241.196 145.243L237.675 149.7ZM239.885 144.681L237.263 147.977L235.129 146.704L239.623 140.899L239.885 144.681ZM237.076 140.075L232.769 137.153L231.084 128.689L235.653 131.536L239.323 127.004L240.484 135.281L237.076 140.075ZM236.589 151.648L233.78 155.917L233.593 149.063L236.589 151.648ZM232.982 158.913L241.72 147.94L241.863 157.557L232.982 158.913ZM238.724 157.453L235.803 157.415L240.597 151.198L240.672 155.243L238.724 157.453ZM233.743 136.854L237.825 130.524L239.323 134.682L236.365 138.502L233.743 136.854ZM232.881 134.682L232.357 130.599L235.091 132.172L233.368 135.019L232.881 134.682ZM234.717 127.079L232.507 125.693L236.065 119.663L237.226 122.959L234.717 127.079ZM235.615 128.577L230.147 125.393L228.874 118.614L234.117 121.273L237.076 116.068L238.687 123.071L235.615 128.577ZM232.919 122.322L231.608 125.094L230.784 124.682L229.923 120.637L232.919 122.322ZM235.091 113.408L232.956 117.528L231.758 113.596L234.117 109.626L235.091 113.408ZM233.181 119.363L228.537 115.843L227.114 111.086L231.271 112.697L234.417 107.079L236.327 113.184L233.181 119.363ZM229.099 115.393L228.275 112.659L230.747 113.596L232.095 117.603L229.099 115.393ZM225.915 108.839L224.192 103.296L228.462 104.457L230.297 98.9141L233.368 104.757L230.484 110.936L225.915 108.839ZM230.222 108.876L229.117 105.187L230.222 101.461L232.02 104.607L230.222 108.876ZM225.353 104.981L228.1 105.764L229.398 109.326L226.552 108.352L225.353 104.981ZM234.314 154.185L234.145 150.552L235.644 151.77L234.314 154.185Z" fill="#A86326"/>
<path fill-rule="evenodd" clip-rule="evenodd" d="M65.8977 145.592L66.4596 145.255L66.6468 141.697L64.2499 143.607L65.8977 145.592ZM62.6768 149.749L66.9465 146.828L67.4333 139.824L63.6131 143.007L59.6806 138.064L59.1563 145.292L62.6768 149.749ZM60.4672 144.73L63.0888 148.026L65.2237 146.753L60.7293 140.948L60.4672 144.73ZM63.276 140.124L67.5831 137.202L69.2686 128.738L64.6994 131.584L61.0289 127.052L59.8678 135.33L63.276 140.124ZM63.763 151.697L66.572 155.966L66.7592 149.112L63.763 151.697ZM67.37 158.962L58.6319 147.989L58.4893 157.606L67.37 158.962ZM61.6282 157.502L64.5494 157.464L59.7556 151.247L59.6806 155.292L61.6282 157.502ZM66.6093 136.903L62.5271 130.573L61.0289 134.73L63.9876 138.551L66.6093 136.903ZM67.4708 134.73L67.9951 130.648L65.261 132.221L66.9839 135.067L67.4708 134.73ZM65.6356 127.127L67.8454 125.742L64.2873 119.712L63.1263 123.008L65.6356 127.127ZM64.7367 128.626L70.2048 125.442L71.4782 118.663L66.2348 121.322L63.276 116.116L61.6656 123.12L64.7367 128.626ZM67.4333 122.371L68.7442 125.143L69.5681 124.73L70.4296 120.686L67.4333 122.371ZM65.261 113.457L67.3958 117.577L68.5943 113.644L66.2348 109.674L65.261 113.457ZM67.1712 119.412L71.8153 115.892L73.2386 111.135L69.0813 112.746L65.9353 107.128L64.0251 113.232L67.1712 119.412ZM71.2536 115.442L72.0774 112.708L69.6056 113.644L68.2573 117.652L71.2536 115.442ZM74.437 108.888L76.1598 103.345L71.8903 104.506L70.055 98.9629L66.9839 104.806L69.8678 110.985L74.437 108.888ZM70.1299 108.925L71.2349 105.236L70.1299 101.51L68.3322 104.656L70.1299 108.925ZM74.9988 105.03L72.2525 105.812L70.9539 109.375L73.8003 108.401L74.9988 105.03ZM66.0383 154.234L66.2069 150.601L64.7087 151.818L66.0383 154.234Z" fill="#A86326"/>
<path fill-rule="evenodd" clip-rule="evenodd" d="M229.606 191.918L228.183 188.098L230.205 183.154L232.153 187.349L237.846 186.3L235.749 191.544L231.778 192.667C225.909 206.491 216.915 219.767 203.055 232.192L201.729 230.083C212.041 221.715 221.492 209.674 229.606 191.918ZM229.25 188.304L230.299 185.795L231.76 188.454L234.756 187.929L233.632 190.327L230.374 190.851L229.25 188.304Z" fill="#A86326"/>
<path fill-rule="evenodd" clip-rule="evenodd" d="M199.65 226.776C210.769 216.861 219.917 204.188 227.04 188.68L227.826 190.702C221.104 205.505 212.03 218.059 200.713 228.467L199.65 226.776Z" fill="#A86326"/>
<path fill-rule="evenodd" clip-rule="evenodd" d="M204.388 234.314C216.931 223.274 226.795 209.842 233.745 193.808L236.366 192.984C229.105 211.59 217.79 226.142 203.338 237.557L204.388 234.314Z" fill="#A86326"/>
<path fill-rule="evenodd" clip-rule="evenodd" d="M201.257 244.611L202.6 240.194C215.49 230.734 225.998 218.8 233.894 203.547L236.313 202.974L241.16 191.712L238.988 187.742L241.085 182.124L244.306 186.244L249.324 184.447L246.778 191.263L243.632 192.162L238.988 202.46L245.467 200.2L250.897 185.57L253.744 189.915L250.256 198.628L253.453 197.623L255.841 191.038L259.437 189.615L257.04 196.506L259.075 195.96L266.469 175.117L267.929 175.492L262.133 193.36C263.151 193.967 265.538 195.43 263.197 196.102L251.535 199.65L248.609 200.623L235.279 205.083C227.41 221.53 214.934 233.371 201.257 244.611ZM240.269 186.928L241.43 184.531L243.79 187.752L247.086 186.591L245.7 189.961L242.928 190.823L240.269 186.928Z" fill="#356DB9"/>
<path fill-rule="evenodd" clip-rule="evenodd" d="M250.585 201.407L265.189 197.348C267.581 196.683 264.742 193.237 262.578 191.991L263.126 190.305C265.432 192.038 268.493 195.138 267.348 197.752L258.06 218.95L251.093 222.321C239.281 246.13 220.136 261.707 196.937 272.732L194.942 277.979L184.502 279.848L177.911 277.751L177.199 272.582L177.2 272.578L181.776 269.285L181.431 275.204C197.129 267.927 203.038 264.274 216.227 254.827C233.508 242.451 244.076 224.059 250.12 202.92L250.585 201.407Z" fill="#356DB9"/>
<path fill-rule="evenodd" clip-rule="evenodd" d="M64.814 191.861L62.9414 187.142L68.3346 187.966L70.6566 182.947L73.1286 187.741L71.5555 192.91C79.037 208.634 88.4431 220.938 99.52 230.27L97.9748 232.155C85.2327 219.975 75.8334 207.187 69.6829 193.809L64.814 191.861ZM66.4989 190.362L65.7125 188.227L69.2706 188.752L70.6188 185.718L72.0794 188.003L70.5813 191.823L66.4989 190.362Z" fill="#A86326"/>
<path fill-rule="evenodd" clip-rule="evenodd" d="M100.394 229.203C89.1839 218.143 80.1444 205.74 73.1289 192.084L73.803 189.688C81.0345 204.215 89.9595 216.817 101.586 227.749L100.394 229.203Z" fill="#A86326"/>
<path fill-rule="evenodd" clip-rule="evenodd" d="M96.6888 237.64C81.0244 223.535 70.5663 208.838 63.6904 193.734L66.2373 194.259C74.7129 211.376 84.8739 224.528 96.7455 233.656L95.7746 234.84L96.6888 237.64Z" fill="#A86326"/>
<path fill-rule="evenodd" clip-rule="evenodd" d="M37.6235 192.084C35.669 187.81 33.8773 182.51 32.4219 175.539L34.5854 174.984C35.9069 182.87 38.923 190.615 42.6422 198.302L44.5148 198.826L42.0429 192.384L44.8145 193.732L46.9117 199.2L49.4586 200.174L46.9117 192.684L49.6834 186.317L56.4248 202.347L62.4921 203.47L57.4735 193.433L53.4286 191.56L51.0317 185.942L55.9754 187.665L59.2712 183.021L61.743 188.04L59.4959 193.283L64.3647 203.845L67.0613 204.444C75.6314 222.529 86.7129 232.686 98.0929 241.939L99.1412 245.15C79.6851 229.456 70.8772 217.338 65.4136 205.642L50.6859 202.076C52.2348 213.127 57.5208 221.599 63.84 230.84C76.403 249.212 97.7831 265.49 120.319 274.331L125.286 276.958L185.562 295.454L184.513 297.851L150.792 287.096L115.076 277.102C94.789 271.426 65.1387 244.993 51.0317 223.32L43.3163 219.949L33.9216 199.477C32.6741 196.759 35.9198 193.89 37.6235 192.084ZM50.6818 202.086L51.0736 204.305L36.237 199.537C34.5957 199.036 34.5667 197.578 35.1883 196.84L37.9973 193.507L39.046 196.016C37.735 196.216 37.4814 197.292 39.1583 197.851L50.6818 202.086ZM57.9225 191.859L53.915 190.511L52.6042 187.44L56.0872 188.713L58.4843 185.792L59.7951 188.039L57.9225 191.859Z" fill="#356DB9"/>
<path fill-rule="evenodd" clip-rule="evenodd" d="M62.4917 203.473L57.4731 193.435L53.4282 191.563L51.0312 185.945L55.975 187.668L59.2708 183.023L61.7426 188.042L59.4954 193.286L64.3643 203.847L62.4917 203.473ZM57.9221 191.861L53.9146 190.513L52.6038 187.442L56.0868 188.715L58.4839 185.794L59.7947 188.041L57.9221 191.861Z" fill="#A86326"/>
<path fill-rule="evenodd" clip-rule="evenodd" d="M125.286 276.959L120.319 274.332L119.907 271.522L102.891 256.637L104.242 254.533L121.031 268.151L120.656 260.96L118.876 255.982L118.645 253.172C136.742 261.125 158.658 269.31 177.554 275.166L177.91 277.75C158.75 271.382 139.591 264.357 120.432 256.391L122.005 260.136C144.099 269.217 166.25 278.027 188.943 285.509L190.768 282.084L184.501 279.847L187.948 279.23L191.667 280.586L192.547 279.237L190.796 278.721L194.941 277.979L185.562 295.455L183.153 294.716L184.354 292.406C164.404 286.414 143.39 279.114 123.44 271.724L125.286 276.959ZM185.29 290.562C163.432 283.666 143.411 276.96 122.552 268.066L121.54 262.752C143.038 271.65 165.481 279.785 187.578 287.285L185.29 290.562Z" fill="#A86326"/>
<path fill-rule="evenodd" clip-rule="evenodd" d="M117.604 249.011L121.497 248.219C138.868 256.616 164.728 266.804 179.196 270.085L178.248 272.82C158.541 267.394 131.916 255.734 117.604 249.011Z" fill="#A86326"/>
<path fill-rule="evenodd" clip-rule="evenodd" d="M179.158 268.132C164.279 264.127 140.529 255.023 125.751 247.822L128.784 246.836C142.135 253.662 163.918 262.231 179.166 265.761L179.158 268.132Z" fill="#A86326"/>
<path fill-rule="evenodd" clip-rule="evenodd" d="M198.144 252.841L197.899 256.404L178.782 270.671L178.66 270.225L179.494 263.1L183.772 247.818L196.356 249.017L198.144 252.841Z" fill="#4C7EC2"/>
<path fill-rule="evenodd" clip-rule="evenodd" d="M180.219 264.93C166.215 260.769 144.181 252.879 131.075 246.721L135.719 246.658L150.094 252.795L164.587 244.938L167.462 246.103L152.042 253.619L156.204 255.182L171.651 245.486L174.687 246.487L158.875 256.049L162.67 257.379L177.447 246.826L182.024 247.593L165.868 258.459L170.12 260.106L182.482 251.838L181.495 254.256L181.677 255.976L173.86 261.203L176.885 262.344L180.572 259.761L180.219 264.93Z" fill="#A86326"/>
<path fill-rule="evenodd" clip-rule="evenodd" d="M150.791 287.097L118.992 298L115.696 290.21L112.4 288.862C110.606 284.008 108.104 278.73 104.312 272.678L111.386 275.885L108.355 276.802L110.452 280.248L116.164 277.408L118.721 278.124L111.276 281.146L112.55 283.394L121.307 278.847L123.725 279.524L113.49 284.913L115.558 286.235L127.499 281.276L125.628 280.056L150.791 287.097ZM117.429 288.372L117.157 287.874L129.454 282.912L134.116 284.13L119.049 290.418L117.429 288.372ZM119.591 292.907L138.045 285.326L145.009 287.171L121.164 295.828L120.062 292.738" fill="#A86326"/>
<path fill-rule="evenodd" clip-rule="evenodd" d="M48.7517 181.232L46.7539 175.338L48.9328 175.846L50.2684 180.015L55.0062 182.056L57.8715 177.067L59.3758 177.377L55.2685 183.929L48.7517 181.232Z" fill="#A86326"/>
<path fill-rule="evenodd" clip-rule="evenodd" d="M251.601 181.185L253.211 175.35L251.259 175.791L250.084 179.968L245.346 182.009L244.198 176.816L242.268 177.302L245.084 183.882L251.601 181.185Z" fill="#A86326"/>
<path fill-rule="evenodd" clip-rule="evenodd" d="M63.6384 183.012L66.41 183.761L67.6512 179.037L69.101 179.17L67.1028 185.577L61.9344 184.08L59.375 177.428L62.3327 178.158L63.6384 183.012Z" fill="#A86326"/>
<path fill-rule="evenodd" clip-rule="evenodd" d="M236.713 182.963L233.941 183.711L232.636 179.17L231.061 179.417L233.248 185.528L238.417 184.03L240.7 177.426L238.347 177.964L236.713 182.963Z" fill="#A86326"/>
<path fill-rule="evenodd" clip-rule="evenodd" d="M36.7669 178.76L35.3438 174.791L44.756 175.412L42.4598 181.982L36.7669 178.76Z" fill="#A86326"/>
<path fill-rule="evenodd" clip-rule="evenodd" d="M263.586 178.713L265.009 174.053L254.081 175.435L257.893 181.933L263.586 178.713Z" fill="#A86326"/>
<path fill-rule="evenodd" clip-rule="evenodd" d="M42.043 192.385L44.8146 193.732L46.9118 199.201L44.5149 198.827L42.043 192.385Z" fill="#A86326"/>
<path fill-rule="evenodd" clip-rule="evenodd" d="M49.4589 200.175L46.9121 192.685L49.6837 186.318L56.4252 202.348L49.4589 200.175Z" fill="#A86326"/>
<path fill-rule="evenodd" clip-rule="evenodd" d="M34.3194 174.275C35.7658 181.97 38.7778 190.456 42.6422 198.302L39.7304 197.333L39.046 196.016L37.9973 193.507L37.6235 192.085C35.3367 187.137 33.5648 180.863 32.4219 174.742L34.0713 174.428L34.3194 174.275Z" fill="#A86326"/>
<path fill-rule="evenodd" clip-rule="evenodd" d="M238.931 202.517L236.313 202.974L241.16 191.713L238.988 187.743L241.085 182.125L244.306 186.245L249.325 184.447L246.778 191.263L243.632 192.162L238.931 202.517ZM245.7 189.962L242.929 190.823L240.27 186.928L241.431 184.531L243.79 187.752L247.086 186.591L245.7 189.962Z" fill="#A86326"/>
<path fill-rule="evenodd" clip-rule="evenodd" d="M253.744 189.915L250.427 198.57L245.107 200.382L250.898 185.57L253.744 189.915Z" fill="#A86326"/>
<path fill-rule="evenodd" clip-rule="evenodd" d="M259.437 189.615L257.043 196.561L253.453 197.623L255.841 191.038L259.437 189.615Z" fill="#A86326"/>
<path fill-rule="evenodd" clip-rule="evenodd" d="M262.133 193.36L261.452 195.561L259.074 195.959L266.532 174.803L267.963 175.267L262.133 193.36Z" fill="#A86326"/>
<path fill-rule="evenodd" clip-rule="evenodd" d="M185.561 295.454L184.514 297.852L150.791 287.097L125.41 279.995L125.286 276.959L185.561 295.454Z" fill="#A86326"/>
<path fill-rule="evenodd" clip-rule="evenodd" d="M71.0186 180.076L73.0421 180.402C81.9699 199.326 94.6942 217.949 104.74 225.417L103.401 225.537L102.853 226.205C91.1899 215.906 77.4707 196.638 71.0186 180.076Z" fill="#A86326"/>
<path fill-rule="evenodd" clip-rule="evenodd" d="M225.832 186.727C219.652 201.729 210.306 214.649 198.041 225.649L195.803 225.225C205.311 217.893 215.306 204.946 225.084 185.426L225.832 186.727Z" fill="#A86326"/>
<path fill-rule="evenodd" clip-rule="evenodd" d="M75.0219 186.013L78.093 183.841L78.3178 165.564L69.8535 159.347L44.835 155.527L31.8763 154.703L19.8165 148.055L24.4349 161.664L13 163.41L28.8801 173.729L31.8014 175.452L34.7227 174.703C46.9154 175.569 59.4416 177.704 71.0108 180.149L73.8984 186.688L75.0219 186.013Z" fill="#356DB9"/>
<path fill-rule="evenodd" clip-rule="evenodd" d="M69.6409 160.555L60.8021 158.982L54.3978 157.821L44.7725 156.473L46.0834 174.001L71.1016 178.008L74.4251 179.649C75.9992 180.426 76.6225 182.068 74.6222 182.952L75.109 184.45L77.1688 183.139L77.2436 165.911L72.1876 162.203" fill="#4C7EC2"/>
<path fill-rule="evenodd" clip-rule="evenodd" d="M224.733 185.971L221.662 183.798L221.438 165.521L229.902 159.304L254.92 155.484L267.879 154.66L279.939 148.012L275.32 161.621L286.755 163.367L270.875 173.686L267.954 175.409L265.033 174.66C252.84 175.526 240.314 177.661 228.745 180.106L225.857 186.645L224.733 185.971Z" fill="#356DB9"/>
<path fill-rule="evenodd" clip-rule="evenodd" d="M230.535 160.51L239.374 158.937L245.778 157.776L255.404 156.428L254.093 173.956L229.075 177.963L225.751 179.604C224.177 180.381 223.554 182.023 225.554 182.907L225.067 184.405L223.007 183.094L222.933 165.866L227.989 162.158" fill="#4C7EC2"/>
<path fill-rule="evenodd" clip-rule="evenodd" d="M182.382 247.695L185.12 248.093C183.178 252.459 181.584 263.788 181.042 268.454L197.693 255.288L198.226 257.443L177.376 275.063C177.94 269.014 180.099 253.745 182.382 247.695Z" fill="#356DB9"/>
<path fill-rule="evenodd" clip-rule="evenodd" d="M121.714 262.346L121.489 270.507L104.903 256.785L104.822 256.508C104.626 256.273 104.605 256.232 104.597 256.208L102.899 252.465L105.87 249.467L117.706 248.418L119.803 256.957L121.714 262.346Z" fill="#4C7EC2"/>
<path fill-rule="evenodd" clip-rule="evenodd" d="M150.457 245.776C137.303 246.351 117.466 249.267 115.775 249.446C114.084 249.625 109.212 250.435 106.226 251.446L102.891 256.637L95.7754 234.839L103.266 225.701C134.904 219.503 166.834 219.464 199.07 225.851L204.389 234.315L199.526 250.832C198.891 252.987 198.612 255.247 198.227 257.444L196.822 256.274C196.636 254.305 196.023 250.955 193.916 250.285C191.133 249.401 189.177 249.013 185.118 248.614C185.118 248.614 163.61 245.2 150.457 245.776Z" fill="#356DB9"/>
<path fill-rule="evenodd" clip-rule="evenodd" d="M194.351 247.475C166.538 241.621 137.921 241.892 108.51 248.224L104.165 227.999C135.848 221.934 167.238 221.704 198.321 227.625L194.351 247.475Z" fill="#4C7EC2"/>
<path fill-rule="evenodd" clip-rule="evenodd" d="M119.055 239.573L119.133 241.628L112.089 243.468L115.684 235.977C117.473 232.25 113.724 230.696 112.238 234.629L110.516 233.131C112.051 230.696 113.604 229.315 116.212 230.273C118.618 231.157 118.887 234.164 118.227 235.563L115.984 240.322L119.055 239.573Z" fill="white"/>
<path d="M133.33 235.288C134.271 235.288 135.034 234.542 135.034 233.622C135.034 232.701 134.271 231.955 133.33 231.955C132.389 231.955 131.626 232.701 131.626 233.622C131.626 234.542 132.389 235.288 133.33 235.288Z" fill="white"/>
<path d="M154.081 234.146C155.022 234.146 155.785 233.4 155.785 232.479C155.785 231.559 155.022 230.812 154.081 230.812C153.14 230.812 152.377 231.559 152.377 232.479C152.377 233.4 153.14 234.146 154.081 234.146Z" fill="white"/>
<path fill-rule="evenodd" clip-rule="evenodd" d="M149.737 227.947L149.812 239.407H147.452L147.527 227.984L149.737 227.947Z" fill="white"/>
<path fill-rule="evenodd" clip-rule="evenodd" d="M145.917 239.033L144.099 240.364L140.449 235.7L135.992 240.906L134.231 239.445L139.025 234.052L135.767 229.333L137.602 227.835L140.449 231.879L143.445 227.797L145.43 228.958L141.685 234.089L145.917 239.033Z" fill="white"/>
<path fill-rule="evenodd" clip-rule="evenodd" d="M157.04 231.056L160.597 227.461L162.508 227.873L162.096 239.895L159.475 239.783L160.11 230.981L158.576 232.405L157.04 231.056Z" fill="white"/>
<path fill-rule="evenodd" clip-rule="evenodd" d="M125.343 230.349C126.588 230.349 127.597 231.388 127.597 232.67C127.597 233.953 126.588 234.992 125.343 234.992C124.098 234.992 123.089 233.953 123.089 232.67C123.089 231.388 124.098 230.349 125.343 230.349ZM129.628 232.438C130.144 236.609 126.803 240.396 121.27 241.879L120.999 239.674C122.805 239.467 124.031 238.681 124.907 237.546C123.011 237.584 119.39 234.827 120.813 230.894C122.246 226.932 128.865 226.269 129.628 232.438Z" fill="white"/>
<path fill-rule="evenodd" clip-rule="evenodd" d="M169.235 229.775C170.397 229.909 171.228 230.989 171.089 232.186C170.951 233.384 169.897 234.245 168.734 234.111C167.571 233.977 166.741 232.897 166.879 231.7C167.018 230.503 168.072 229.641 169.235 229.775ZM173.011 232.188C173.043 236.139 169.516 239.316 164.188 240.104L164.173 238.015C165.881 238.017 167.111 237.415 168.052 236.449C166.277 236.281 163.192 233.315 164.945 229.795C166.711 226.25 172.964 226.344 173.011 232.188Z" fill="white"/>
<path fill-rule="evenodd" clip-rule="evenodd" d="M179.268 241.954L179.493 238.733L173.575 238.358L173.275 236.186L180.242 227.797L182.639 228.096L181.815 236.71L183.463 236.786L183.313 239.482H182.039L181.815 242.403L179.268 241.954ZM179.717 232.216L180.017 236.561L176.496 236.261L179.717 232.216Z" fill="white"/>
<path fill-rule="evenodd" clip-rule="evenodd" d="M189.531 235.851C191.857 239.333 188.416 244.665 183.913 240.27L185.111 238.735C188.688 241.511 189.81 236.33 185.711 236.488V234.016C189.531 235.851 190.288 230.808 185.935 231.843L185.861 229.372C190.573 229.03 192.421 232.41 189.531 235.851Z" fill="white"/>
<path fill-rule="evenodd" clip-rule="evenodd" d="M118.138 248.695C121.796 258.427 122.306 263.492 124.327 273.32L125.286 276.959L120.319 274.332L119.907 271.522L102.891 256.636L104.181 254.21L121.031 268.152L119.593 260.961L115.153 248.889L118.138 248.695Z" fill="#356DB9"/>
</svg>
