<svg width="900" height="600" viewBox="0 0 900 600" fill="none" xmlns="http://www.w3.org/2000/svg">
<g clip-path="url(#clip0_248_34929)">
<path d="M0 0H900V600H0V0Z" fill="white"/>
<path d="M900 0V600H0L900 0Z" fill="#003087"/>
<path d="M0 250V0H375L0 250Z" fill="#FFD700"/>
<path d="M250 108.333L336.603 258.333L250 408.333L163.397 258.333L250 108.333ZM400 258.333L250 344.936L100 258.333L250 171.731L400 258.333Z" fill="#101820"/>
<path d="M250 388.237C321.743 388.237 379.903 330.077 379.903 258.333C379.903 186.589 321.743 128.43 250 128.43C178.256 128.43 120.096 186.589 120.096 258.333C120.096 330.077 178.256 388.237 250 388.237Z" fill="#101820"/>
<path d="M250 370.833C312.132 370.833 362.5 320.465 362.5 258.333C362.5 196.201 312.132 145.833 250 145.833C187.868 145.833 137.5 196.201 137.5 258.333C137.5 320.465 187.868 370.833 250 370.833Z" fill="white"/>
<path d="M250 333.333L185.048 220.833H314.952L250 333.333ZM250 183.333L314.952 295.833H185.048L250 183.333Z" fill="#D50032"/>
</g>
<defs>
<clipPath id="clip0_248_34929">
<rect width="900" height="600" fill="white"/>
</clipPath>
</defs>
</svg>
