<svg xmlns="http://www.w3.org/2000/svg" width="600" height="400"><path fill="#fc0" d="M400 0h200v400H400z"/><path fill="#0077c8" d="M200 0h200v400H200z"/><path fill="#fff" d="M0 0h200v400H0zM312.151 165.945c.064-.067.109-.145.163-.217l.052.168c-.072.02-.15.02-.215.049zm-19.496-5.482c-.039.078-.09.145-.135.215q-.013-.004-.022-.005c.055-.069.095-.148.157-.21zm-4.93 5.416.055-.177.046-.002c.058.084.113.168.19.246-.092-.039-.194-.043-.292-.066zm-35.493 75.448q-.007.035-.001 0zm23.33-73.964v-.002c.006.018.006.041.01.064 0-.022-.01-.041-.01-.062m49.044-.002.001.002c0 .022-.01.041-.012.062.005-.022.005-.046.01-.064zm47.755 69.482c1.775-1.948 2.668-4.508 2.668-7.068-.423-3.112-1.48-8.054-5.129-8.18-.903-.031-2.469 1.12-2.469 1.12-1.462 1.07-1.284 3.616.005 5.034 1 1.096 1 2.954 0 4.05-.45.5-1.047.774-1.678.774-.2 0-.689-.218-.837-.86-.857-3.842-2.972-7.122-5.963-9.302-5.754-4.308-9.185-11.445-9.185-19.1l.076-11.92c0-5.835-3.622-10.928-8.806-12.398-.082-.022-2.431-.82-3.682-.75-.971.054-1.886.505-2.776.897-.026.01-.056.048-.073.042-.918-.334-2.2-.828-2.2-.828l-1.295-.347c-.297-.062-.776-.165-.776-.165-1.007-.162-1.966.248-2.622 1.127-.584.922-.857 2.141-.857 3.7 0 .67.137 1.518.238 2.313-.456-.131-.886-.36-1.365-.36-2.356 0-4.348 1.628-5.094 3.887h-2.804c1.613-3.268 3.11-6.226 3.424-6.699.082.042 1.722-.064 1.722-.064a1.95 1.95 0 0 0 1.622-1.11c.138-.283.206-.589.206-.895 0-.197-.111-.373-.163-.56.903-.729 1.575-1.727 1.575-3.01 0 0-.116-.294-.15-.394.844-.753 1.458-1.743 1.458-2.907a4 4 0 0 0-.245-1.39c-.111-.315-.357-.532-.54-.8.158-.45.267-.919.267-1.388a4.08 4.08 0 0 0-.992-2.686 3.7 3.7 0 0 0-1.354-.962c-.246-1.166-.846-2.246-1.947-2.792-.585-.294-1.214-.366-1.834-.321-.644-.93-1.538-1.636-2.717-1.713-.515-.03-.979.174-1.45.353l-.476-.58-2.905-.207c-.404.142-.686.468-1.009.734-.514-.29-.979-.55-.979-.55s-.247.082-.308.103c-.667-1.148-1.658-2.046-3.034-2.046-.49 0-.906.262-1.344.448-.626-.478-1.34-.847-2.168-.847-.106 0-.176.102-.279.113v-1.829c0-.878-.61-1.486-1.373-1.763-.246-.818-.858-1.479-1.735-1.479h-1.85c-.876 0-1.491.66-1.739 1.479-.759.277-1.371.885-1.371 1.763v1.822c-.101-.008-.174-.106-.276-.106-.83 0-1.548.37-2.168.849-.442-.188-.854-.45-1.351-.45-1.373 0-2.363.898-3.028 2.048-.064-.023-.316-.104-.316-.104l-.973.547c-.323-.266-.602-.59-1.007-.732l-2.892.2-.485.581c-.465-.177-.93-.378-1.448-.347-1.18.075-2.072.786-2.722 1.717-.625-.047-1.254.023-1.846.322-1.094.544-1.693 1.62-1.937 2.786-.505.214-.97.528-1.352.962-.664.757-.988 1.727-.988 2.691 0 .473.103.94.261 1.386-.182.27-.428.486-.544.8-.163.454-.24.925-.24 1.387 0 1.156.61 2.147 1.454 2.906l-.15.396c0 1.263.649 2.26 1.528 2.988-.058.194-.17.379-.17.582 0 .305.066.608.201.89a1.95 1.95 0 0 0 1.625 1.117l1.65.105c.382.438 1.905 3.39 3.54 6.656h-2.901c-.75-2.253-2.738-3.876-5.09-3.876-.483 0-.912.23-1.366.357.107-.889.256-1.867.256-2.499 0-2.123-.49-2.926-.696-3.259-.842-1.133-1.799-1.543-2.812-1.384 0 0-.489.107-.788.17l-1.271.34s-1.282.494-2.203.83c-.014.005-.042-.027-.065-.037-.893-.39-1.81-.84-2.782-.896-1.162-.068-3.427.676-3.427.676-5.442 1.534-9.062 6.626-9.062 12.459l.044 6.595v1.643c.01.017.034 3.707.034 3.707 0 7.64-3.434 14.771-9.185 19.062-2.987 2.19-5.103 5.472-5.956 9.255-.158.708-.645.922-.848.922-.632 0-1.228-.273-1.68-.772-.5-.544-.747-1.286-.747-2.02 0-.742.252-1.48.75-2.033a3.76 3.76 0 0 0 .96-2.521c0-.912-.316-1.822-.967-2.522-.005-.005-1.562-1.104-2.46-1.103-.902.001-2.464 1.112-2.464 1.112-3.835 3.615-3.549 10.238.002 14.135 2.507 2.75 6.175 3.55 9.409 2.447l.071 1.044c0 1.55-.867 2.943-2.16 3.464-.714.286-1.205.905-1.242 1.695l-.063 1.309c0 2.62.744 5.132 2.157 7.268.835 1.335 1.37 2.695 1.637 4.141.62 2.852 2.863 4.123 4.69 4.123h5.474c1.079 0 1.95-.897 1.95-2.006 0-3.47-2.344-6.232-5.383-6.885-.575-.777-.996-1.684-.996-2.714 0-1.788.947-3.374 2.42-4.036 2.628-1.216 4.456-3.655 5.132-6.524 1.243.284 1.44.41 1.44 1.173-.234 1.367-.482 1.203-.678 1.859-.19.633.36 1.326 1.06 1.686 1.17.602 3.1 3.563 3.981 5.708.845 1.936 2.539 3.114 4.437 3.114h4.69c1.079 0 1.95-.898 1.95-2.008 0-3.372-2.22-6.322-5.276-7.015-.96-.228-1.644-1.21-1.644-2.34 0-.634.215-1.238.615-1.699.95-1.055 1.468-2.431.464-5.708-1.005-3.276-2.857-4.932-4.895-6.23 1.744-1.813 3.648-3.425 5.818-4.538 3.64-1.736 6.385-5.082 7.674-9.19.614-.622 2.085-2.12 2.158-2.192v23.79c0 17.023 26.303 17.219 27.423 17.219s27.417-.196 27.417-17.218v-23.852c.004.002.028.032.028.032s1.555 1.58 2.181 2.22c1.295 4.103 4.038 7.45 7.68 9.194 2.167 1.103 4.065 2.712 5.81 4.522-2.03 1.294-4.34 2.72-5.348 6.014s-.022 4.89.918 5.93a2.58 2.58 0 0 1 .618 1.703c0 1.13-.69 2.11-1.642 2.333-3.06.69-5.28 3.64-5.28 7.014 0 1.11.873 2.01 1.951 2.01h4.692c1.903 0 3.595-1.176 4.42-3.07.896-2.183 2.82-5.142 3.999-5.752.701-.366 1.168-.854 1.168-1.508q.002-.279-.117-.598l-.517-1.363-.112-.237c.02-.558.291-.757 1.399-1.01.672 2.873 2.499 5.307 5.103 6.491 1.477.685 2.452 2.308 2.452 4.068 0 1.02-.425 1.924-1 2.708-3.04.655-5.384 3.42-5.384 6.89 0 1.108.872 2.006 1.947 2.006h5.484c1.821 0 4.06-1.268 4.672-4.05.275-1.524.81-2.882 1.6-4.109a13.35 13.35 0 0 0 2.205-7.368l-.062-1.31c-.039-.794-.528-1.418-1.247-1.706-1.288-.512-2.15-1.902-2.15-3.457 0 0 .042-.75.06-1.043 3.237 1.107 6.903.305 9.41-2.447zm-114.739-82.456c.91 2.076 2.548 3.57 4.422 4.686-.548.612-1.269 1.11-2.439 1.598a2 2 0 0 0-1.222 1.861l.002.081c.032.849.581 1.586 1.367 1.838 3.167 1.019 17.226 1.621 26.31-7.921.401-.42.646-1.07.646-1.689 0-.331-.073-.653-.227-.93 0 0-.067-.119-.076-.132 4.43-.582 8.888-.976 13.33-.976 4.676 0 9.187.394 13.64.98a1.916 1.916 0 0 0-.297 1.063c0 .615.24 1.263.637 1.682 9.08 9.54 23.143 8.942 26.313 7.923a1.99 1.99 0 0 0 1.365-1.835c0-.03.005-.056.005-.084 0-.817-.48-1.555-1.221-1.861-1.177-.491-1.895-.99-2.447-1.598 1.877-1.117 3.52-2.618 4.431-4.707 0-.003.501-1.368.501-1.368.08-.221.122-.45.122-.67 0-.53-.226-1.035-.626-1.43-.565-.554-1.422-.642-2.138-.32-.755.338-1.636.521-2.622.543-2.162.053-8.09-1.088-9.666-4.038-.11-3.62-2.598-6.732-6.046-7.44a117 117 0 0 0-21.64-2.025c-7.54 0-14.793.675-21.865 2.002-3.534.728-6.027 3.842-6.134 7.463-1.572 2.95-7.505 4.091-9.667 4.037-.983-.022-1.863-.205-2.624-.543-.717-.32-1.574-.232-2.141.326-.397.39-.62.896-.62 1.425 0 .22.042.449.12.67z"/><path fill="#fc0" d="M282.874 177.07c-1.436-.832-3.275-3.576-3.275-5.004 0-2.513 2.86-4.542 6.386-4.542l1.425-.629.651-2.2s-7.94-1.045-10.117 2.898c-2.174 3.937-1.052 6.508-.143 8.579.91 2.075 2.975 3.121 2.975 3.121z"/><path fill="none" stroke="#000" stroke-width=".443" d="M237.63 350.52c-.59-.332-1.348-1.427-1.348-1.997 0-1.003 1.177-1.813 2.628-1.813l.587-.25.268-.879s-3.268-.417-4.164 1.157c-.895 1.571-.433 2.597-.059 3.424.375.828 1.224 1.245 1.224 1.245z" transform="matrix(2.42966 0 0 2.50557 -294.487 -701.182)"/><path fill="#fc0" d="M291.159 170.555c-.466-.51-.736-1.131-.736-1.797 0-1.801 2.008-3.27 4.486-3.27.908 0 2.681.198 3.383.535l.22-3.764s-6.7-.797-9.278 2.265-1.927 6.073-1.709 6.767c.215.699.657 1.74.657 1.74l3.693-1.16z"/><path fill="none" stroke="#000" stroke-width=".443" d="M241.04 347.92a1.05 1.05 0 0 1-.303-.717c0-.72.827-1.305 1.847-1.305.373 0 1.103.079 1.392.213l.09-1.502s-2.757-.318-3.818.904c-1.062 1.222-.793 2.423-.703 2.7.088.28.27.695.27.695l1.52-.463z" transform="matrix(2.42966 0 0 2.50557 -294.487 -701.182)"/><path fill="#fc0" d="M317.18 177.07c1.438-.832 3.28-3.576 3.28-5.004 0-2.513-2.86-4.542-6.39-4.542l-1.423-.629-.652-2.2s7.938-1.045 10.115 2.898c2.167 3.937 1.053 6.508.148 8.579-.912 2.075-2.98 3.121-2.98 3.121z"/><path fill="none" stroke="#000" stroke-width=".443" d="M251.75 350.52c.591-.332 1.35-1.427 1.35-1.997 0-1.003-1.177-1.813-2.63-1.813l-.586-.25-.268-.879s3.267-.417 4.163 1.157c.892 1.571.433 2.597.06 3.424-.375.828-1.225 1.245-1.225 1.245z" transform="matrix(2.42966 0 0 2.50557 -294.487 -701.182)"/><path fill="#fc0" d="M308.895 170.555c.463-.51.739-1.131.739-1.797 0-1.801-2.014-3.27-4.486-3.27-.91 0-2.678.198-3.383.535l-.215-3.764s6.693-.797 9.273 2.265c2.575 3.063 1.925 6.073 1.704 6.767-.21.699-.65 1.74-.65 1.74l-3.695-1.16z"/><path fill="none" stroke="#000" stroke-width=".443" d="M248.34 347.92c.19-.204.304-.452.304-.717 0-.72-.829-1.305-1.846-1.305-.375 0-1.103.079-1.393.213l-.088-1.502s2.754-.318 3.816.904c1.06 1.222.793 2.423.702 2.7-.087.28-.268.695-.268.695l-1.52-.463z" transform="matrix(2.42966 0 0 2.50557 -294.487 -701.182)"/><path fill="#da291c" d="M282.17 177.095c4.163-4.449 10.64-7.313 17.91-7.313 7.273 0 13.743 2.864 17.907 7.313l-5.005 14.121h-26.075l-4.738-14.121z"/><path fill="none" stroke="#000" stroke-linecap="round" stroke-linejoin="round" stroke-width=".417" d="M237.34 350.53c1.714-1.775 4.38-2.919 7.372-2.919s5.656 1.143 7.37 2.919l-2.06 5.636H239.29z" transform="matrix(2.42966 0 0 2.50557 -294.487 -701.182)"/><path fill="#ecd21c" d="m303.38 174.965-3.335-2.265-3.292 2.265 1.281-11.638h4.053z"/><path fill="#fc0" stroke="#000" stroke-width=".417" d="m246.07 349.68-1.373-.904-1.355.904.528-4.645h1.668z" transform="matrix(2.42966 0 0 2.50557 -294.487 -701.182)"/><path fill="#fff" d="M300.319 165.118c-.638-.142-1.264.294-1.396.976-.132.677.272 1.341.915 1.485.64.142 1.264-.295 1.396-.976.13-.683-.28-1.349-.915-1.485"/><path fill="none" stroke="#000" stroke-width=".208" d="M244.81 345.75a.485.485 0 0 0-.574.39.5.5 0 0 0 .376.592.486.486 0 0 0 .575-.39.5.5 0 0 0-.377-.592z" transform="matrix(2.42966 0 0 2.50557 -294.487 -701.182)"/><path fill="#fff" d="M300.392 167.423c-.807-.185-1.596.372-1.762 1.24-.17.86.354 1.697 1.16 1.877.814.177 1.604-.373 1.772-1.237.163-.861-.355-1.707-1.17-1.88"/><path fill="none" stroke="#000" stroke-width=".208" d="M244.84 346.67a.61.61 0 0 0-.725.495.634.634 0 0 0 .477.749c.335.07.66-.149.73-.494a.635.635 0 0 0-.482-.75z" transform="matrix(2.42966 0 0 2.50557 -294.487 -701.182)"/><path fill="#fff" d="M300.465 170.405c-1.022-.228-2.022.472-2.234 1.563-.21 1.089.448 2.145 1.47 2.376 1.025.224 2.02-.481 2.229-1.563.215-1.088-.438-2.151-1.465-2.376"/><path fill="none" stroke="#000" stroke-width=".208" d="M244.87 347.86a.777.777 0 0 0-.92.624.804.804 0 0 0 .606.948.78.78 0 0 0 .917-.624.8.8 0 0 0-.603-.948z" transform="matrix(2.42966 0 0 2.50557 -294.487 -701.182)"/><path fill="#fff" d="M279.667 176.168c0-1.083-.822-1.968-1.845-1.968-1.018 0-1.848.885-1.848 1.968 0 1.086.83 1.965 1.848 1.965 1.023 0 1.845-.88 1.845-1.965"/><path fill="none" stroke="#000" stroke-width=".208" d="M236.31 350.16a.773.773 0 0 0-.76-.786.775.775 0 0 0-.76.786c0 .433.342.784.76.784a.77.77 0 0 0 .76-.784z" transform="matrix(2.42966 0 0 2.50557 -294.487 -701.182)"/><path fill="#fff" d="M289.215 167.774c0-1.089-.829-1.967-1.845-1.967-1.023 0-1.852.878-1.852 1.967 0 1.086.83 1.967 1.852 1.967 1.016 0 1.845-.881 1.845-1.967"/><path fill="none" stroke="#000" stroke-width=".208" d="M240.24 346.81a.773.773 0 0 0-.76-.785.773.773 0 0 0-.762.785c0 .433.342.785.763.785.418 0 .759-.352.759-.785z" transform="matrix(2.42966 0 0 2.50557 -294.487 -701.182)"/><path fill="#fff" d="M289.75 171.482c0-1.084-.834-1.968-1.855-1.968s-1.847.884-1.847 1.968c0 1.092.828 1.965 1.847 1.965 1.021 0 1.855-.873 1.855-1.965"/><path fill="none" stroke="#000" stroke-width=".208" d="M240.46 348.29a.776.776 0 0 0-.764-.786c-.419 0-.76.353-.76.786 0 .436.341.784.76.784.421 0 .764-.348.764-.784z" transform="matrix(2.42966 0 0 2.50557 -294.487 -701.182)"/><path fill="#fff" d="M278.257 173.587c.365-1.012-.11-2.146-1.064-2.536-.957-.388-2.023.121-2.385 1.135-.368 1.019.116 2.144 1.063 2.534.957.395 2.019-.116 2.386-1.133"/><path fill="none" stroke="#000" stroke-width=".208" d="M235.73 349.13a.79.79 0 0 0-.438-1.012.75.75 0 0 0-.982.453.79.79 0 0 0 .438 1.011.75.75 0 0 0 .982-.452z" transform="matrix(2.42966 0 0 2.50557 -294.487 -701.182)"/><path fill="#fff" d="M278.379 170.63a2.065 2.065 0 0 0-.09-2.781 1.77 1.77 0 0 0-2.61.093c-.699.798-.656 2.042.088 2.785.746.74 1.913.705 2.612-.097z"/><path fill="none" stroke="#000" stroke-width=".208" d="M235.78 347.95a.806.806 0 0 0-.037-1.11.745.745 0 0 0-1.074.037.805.805 0 0 0 .036 1.111.74.74 0 0 0 1.075-.038z" transform="matrix(2.42966 0 0 2.50557 -294.487 -701.182)"/><path fill="#fff" d="M279.934 168.225c.928-.456 1.323-1.626.894-2.609-.433-.985-1.532-1.415-2.456-.951-.92.46-1.322 1.625-.892 2.613.433.988 1.535 1.412 2.454.947"/><path fill="none" stroke="#000" stroke-width=".208" d="M236.42 346.99a.793.793 0 0 0 .368-1.041.75.75 0 0 0-1.01-.38.797.797 0 0 0-.368 1.043.747.747 0 0 0 1.01.378z" transform="matrix(2.42966 0 0 2.50557 -294.487 -701.182)"/><path fill="#fff" d="M282.412 166.747c1.02-.061 1.802-.993 1.735-2.077-.055-1.084-.927-1.916-1.942-1.855-1.02.064-1.8.996-1.74 2.083.058 1.084.931 1.913 1.947 1.849"/><path fill="none" stroke="#000" stroke-width=".208" d="M237.44 346.4a.77.77 0 0 0 .714-.829.77.77 0 0 0-.8-.74.78.78 0 0 0-.715.831.77.77 0 0 0 .801.738z" transform="matrix(2.42966 0 0 2.50557 -294.487 -701.182)"/><path fill="#fff" d="M285.133 166.02c.964.346 2.013-.213 2.337-1.245.322-1.027-.203-2.145-1.17-2.488-.966-.34-2.015.211-2.34 1.242-.317 1.037.203 2.147 1.173 2.491"/><path fill="none" stroke="#000" stroke-width=".208" d="M238.56 346.11a.755.755 0 0 0 .962-.497.79.79 0 0 0-.482-.993.757.757 0 0 0-.963.496.794.794 0 0 0 .483.994z" transform="matrix(2.42966 0 0 2.50557 -294.487 -701.182)"/><path fill="#fff" d="M288.098 166.045c.787.688 1.951.568 2.599-.267.645-.841.534-2.086-.254-2.772-.788-.69-1.951-.567-2.6.27-.644.84-.536 2.078.254 2.77z"/><path fill="none" stroke="#000" stroke-width=".208" d="M239.78 346.12a.746.746 0 0 0 1.07-.107.805.805 0 0 0-.104-1.106.744.744 0 0 0-1.07.108.803.803 0 0 0 .104 1.105z" transform="matrix(2.42966 0 0 2.50557 -294.487 -701.182)"/><path fill="#fff" d="M294.099 162.588c0-1.092-.826-1.967-1.85-1.967-1.017 0-1.844.875-1.844 1.967 0 1.087.827 1.965 1.843 1.965 1.025 0 1.85-.878 1.85-1.965"/><path fill="none" stroke="#000" stroke-width=".208" d="M242.25 344.74a.77.77 0 0 0-.762-.785.77.77 0 0 0-.758.785c0 .434.34.784.758.784.422 0 .762-.35.762-.784z" transform="matrix(2.42966 0 0 2.50557 -294.487 -701.182)"/><path fill="#fff" d="M297.622 162.212c0-1.088-.834-1.97-1.85-1.97-1.024 0-1.846.882-1.846 1.97 0 1.086.822 1.965 1.845 1.965 1.017 0 1.85-.88 1.85-1.965"/><path fill="none" stroke="#000" stroke-width=".208" d="M243.7 344.59a.776.776 0 0 0-.762-.786.77.77 0 0 0-.759.786.77.77 0 0 0 .76.784.774.774 0 0 0 .761-.784z" transform="matrix(2.42966 0 0 2.50557 -294.487 -701.182)"/><path fill="#fff" d="M320.46 176.168c0-1.083.83-1.968 1.85-1.968s1.842.885 1.842 1.968c0 1.086-.822 1.965-1.842 1.965s-1.85-.88-1.85-1.965"/><path fill="none" stroke="#000" stroke-width=".208" d="M253.1 350.16c0-.432.341-.786.761-.786s.758.354.758.786a.77.77 0 0 1-.758.784.773.773 0 0 1-.761-.784z" transform="matrix(2.42966 0 0 2.50557 -294.487 -701.182)"/><path fill="#fff" d="M310.936 167.774c0-1.089.83-1.967 1.847-1.967 1.023 0 1.847.878 1.847 1.967 0 1.086-.824 1.967-1.847 1.967-1.018 0-1.847-.881-1.847-1.967"/><path fill="none" stroke="#000" stroke-width=".208" d="M249.18 346.81c0-.435.341-.785.76-.785.421 0 .76.35.76.785 0 .433-.339.785-.76.785a.773.773 0 0 1-.76-.785z" transform="matrix(2.42966 0 0 2.50557 -294.487 -701.182)"/><path fill="#fff" d="M310.402 171.482c0-1.084.83-1.968 1.854-1.968 1.011 0 1.843.884 1.843 1.968 0 1.092-.832 1.965-1.843 1.965-1.024 0-1.854-.873-1.854-1.965"/><path fill="none" stroke="#000" stroke-width=".208" d="M248.96 348.29c0-.433.342-.786.763-.786.416 0 .759.353.759.786a.77.77 0 0 1-.759.784.77.77 0 0 1-.763-.784z" transform="matrix(2.42966 0 0 2.50557 -294.487 -701.182)"/><path fill="#fff" d="M321.894 173.587c-.362-1.012.11-2.146 1.066-2.536.948-.388 2.02.121 2.386 1.135.367 1.019-.112 2.144-1.072 2.534-.95.395-2.018-.116-2.38-1.133"/><path fill="none" stroke="#000" stroke-width=".208" d="M253.69 349.13a.79.79 0 0 1 .439-1.012.755.755 0 0 1 .982.453.79.79 0 0 1-.441 1.011.75.75 0 0 1-.98-.452z" transform="matrix(2.42966 0 0 2.50557 -294.487 -701.182)"/><path fill="#fff" d="M321.773 170.63a2.06 2.06 0 0 1 .086-2.781 1.775 1.775 0 0 1 2.613.093c.697.798.655 2.042-.092 2.785a1.76 1.76 0 0 1-2.607-.097z"/><path fill="none" stroke="#000" stroke-width=".208" d="M253.64 347.95a.804.804 0 0 1 .035-1.11.746.746 0 0 1 1.076.037.805.805 0 0 1-.038 1.111.74.74 0 0 1-1.073-.038z" transform="matrix(2.42966 0 0 2.50557 -294.487 -701.182)"/><path fill="#fff" d="M320.218 168.225c-.926-.456-1.326-1.626-.899-2.609.434-.985 1.533-1.415 2.457-.951.926.46 1.326 1.625.9 2.613-.438.988-1.533 1.412-2.458.947"/><path fill="none" stroke="#000" stroke-width=".208" d="M253 346.99a.796.796 0 0 1-.37-1.041.75.75 0 0 1 1.012-.38c.38.184.545.649.37 1.043a.75.75 0 0 1-1.012.378z" transform="matrix(2.42966 0 0 2.50557 -294.487 -701.182)"/><path fill="#fff" d="M317.74 166.747c-1.024-.061-1.804-.993-1.745-2.077.061-1.084.94-1.916 1.954-1.855 1.017.064 1.8.996 1.738 2.083-.06 1.084-.93 1.913-1.948 1.849"/><path fill="none" stroke="#000" stroke-width=".208" d="M251.98 346.4a.777.777 0 0 1-.718-.829.774.774 0 0 1 .804-.74.78.78 0 0 1 .715.831.77.77 0 0 1-.801.738z" transform="matrix(2.42966 0 0 2.50557 -294.487 -701.182)"/><path fill="#fff" d="M315.018 166.02c-.974.346-2.014-.213-2.337-1.245-.322-1.027.2-2.145 1.17-2.488.966-.34 2.014.211 2.327 1.242.33 1.037-.191 2.147-1.16 2.491"/><path fill="none" stroke="#000" stroke-width=".208" d="M250.86 346.11a.754.754 0 0 1-.962-.497.79.79 0 0 1 .482-.993.75.75 0 0 1 .957.496.787.787 0 0 1-.477.994z" transform="matrix(2.42966 0 0 2.50557 -294.487 -701.182)"/><path fill="#fff" d="M312.054 166.045c-.786.688-1.947.568-2.598-.267-.644-.841-.53-2.086.254-2.772.79-.69 1.947-.567 2.598.27.648.84.538 2.078-.254 2.77"/><path fill="none" stroke="#000" stroke-width=".208" d="M249.64 346.12a.745.745 0 0 1-1.07-.107.807.807 0 0 1 .105-1.106.743.743 0 0 1 1.07.108.8.8 0 0 1-.105 1.105z" transform="matrix(2.42966 0 0 2.50557 -294.487 -701.182)"/><path fill="#fff" d="M306.053 162.588c0-1.092.826-1.967 1.845-1.967s1.852.875 1.852 1.967c0 1.087-.832 1.965-1.852 1.965s-1.845-.878-1.845-1.965"/><path fill="none" stroke="#000" stroke-width=".208" d="M247.17 344.74c0-.436.34-.785.76-.785s.762.35.762.785a.774.774 0 0 1-.763.784c-.42 0-.759-.35-.759-.784z" transform="matrix(2.42966 0 0 2.50557 -294.487 -701.182)"/><path fill="#fff" d="M302.53 162.212c0-1.088.827-1.97 1.847-1.97 1.018 0 1.85.882 1.85 1.97 0 1.086-.832 1.965-1.85 1.965-1.02 0-1.847-.88-1.847-1.965"/><path fill="none" stroke="#000" stroke-width=".208" d="M245.72 344.59c0-.434.34-.786.76-.786s.762.352.762.786a.774.774 0 0 1-.762.784.773.773 0 0 1-.76-.784z" transform="matrix(2.42966 0 0 2.50557 -294.487 -701.182)"/><path d="M321.821 178.297c-.525-.816-1.27-1.3-2.1-1.383a2.4 2.4 0 0 0-.916.116c-.031-.013-.052-.043-.077-.055l-.484-.285-.464.314c-.11.072-.175.165-.26.249-.016-.01-.026-.025-.042-.037l-.49-.266s-.396.282-.436.315c-.456-.24-.94-.367-1.413-.345l-.624.032s-.024.069-.028.093a2.9 2.9 0 0 0-1.277-.809l-.116-.557-.522-.166q-.03-.003-.058-.005a2.4 2.4 0 0 0-.044-.412l-.13-.564-.524-.147c-.135-.534-.372-1.023-.71-1.395l-.436-.474-.583.256c-.448.195-.844.547-1.167.982-.02-.002-.53-.08-.53-.08l-.329.465a2 2 0 0 0-.203.352c-.017-.003-.027-.008-.043-.013l-.541-.069s-.307.451-.32.467c-.517-.05-1.03.012-1.472.217 0 0-.129.057-.256.116-.154-.114-.328-.24-.328-.24-.415-.315-.94-.477-1.484-.533-.005-.005-.005-.018-.015-.033l-.22-.536-.547-.05c-.034-.002-.063-.002-.095-.002a2 2 0 0 0-.136-.432l-.234-.53-.543-.026h-.022c-.242-.536-.583-.986-1.011-1.295l-.52-.378-.514.378c-.427.309-.765.759-1.008 1.295h-.022l-.546.026-.233.53c-.068.146-.106.29-.138.432-.034 0-.062 0-.095.003l-.54.049-.225.536q-.01.021-.012.033c-.546.056-1.072.218-1.486.533 0 0-.199.141-.346.253-.152-.068-.295-.129-.295-.129-.445-.205-.958-.268-1.478-.217-.012-.015-.307-.467-.307-.467l-.55.07q-.024.007-.045.012a2 2 0 0 0-.198-.352l-.33-.465s-.513.078-.53.08c-.322-.435-.721-.786-1.174-.982l-.575-.256-.439.475c-.338.371-.572.86-.713 1.394-.012.005-.513.147-.513.147l-.135.564a2 2 0 0 0-.046.412c-.015.001-.039.001-.055.005l-.528.166s-.114.534-.116.557a2.9 2.9 0 0 0-1.27.809l-.032-.093-.628-.032c-.468-.023-.954.105-1.412.345-.04-.033-.432-.315-.432-.315l-.49.266c-.016.013-.027.028-.044.037-.081-.084-.155-.177-.26-.25l-.468-.313-.474.285c-.027.012-.057.043-.076.055a2.5 2.5 0 0 0-.92-.116c-.833.082-1.576.567-2.104 1.384l-.934 1.44 1.648.104c.01 0 .901.07 1.515.745.45.5 5.045 9.828 5.045 9.828l.773-.34c4.575-1.957 9.067-2.91 13.729-2.91 4.685 0 9.187.957 13.777 2.937l.774.332s4.555-9.347 5.006-9.847c.611-.674 1.503-.745 1.51-.745l1.637-.104-.925-1.44zm-10.552-.568c-.017.082-.04.241-.04.241s.655.037.886.052l-.826.344s.06.132.095.18c-.158-.045-.316-.096-.442-.132l-.279-.089s-.352-.098-.36-.098zm-1.53-1.384s.268-.649.361-.863c0 .242.012.945.012.945l.203-.03c-.102.186-.298.517-.59 1.024-.083-.59-.135-.977-.162-1.188.052.03.174.112.174.112zm-1.597.954s.035-.156.06-.242c.164.208.348.429.698.866-.02-.008-.369-.057-.369-.057l-.29-.038c-.125-.018-.28-.037-.449-.064l.147-.124s-.468-.492-.624-.664c.208.083.827.323.827.323zm-6.366-1.066c.01.127.01.313.01.313l1.034-.168c.017-.005.028 0 .044-.005-.017.01-.017.025-.032.034l-.872.61.158.207c-.207-.008-.42-.026-.596-.039l-.302-.029-.416-.027-.117-.003c.54-.45.87-.706 1.09-.893zm-1.94-1.045.221-1.087c.002-.012.013-.026.013-.038.002.012.014.026.019.038l.218 1.087s.162-.06.257-.094c-.066.18-.242.725-.494 1.44-.24-.715-.426-1.26-.487-1.44.094.033.254.094.254.094zm-2.507 1.19 1.03.168s0-.186.005-.313c.229.187.55.443 1.096.893-.047 0-.53.03-.53.03l-.306.03c-.178.012-.386.03-.6.038l.17-.206-.875-.61q-.018-.016-.04-.034c.022.005.032 0 .05.005zm-5.434.68c.015.085.055.24.055.24l.83-.322-.626.664s.1.089.146.124c-.164.027-.323.047-.452.064l-.292.038-.257.035s-.089.013-.11.023c.35-.438.537-.658.706-.866zm-1.916-.63.013-.946.36.863s.12-.082.178-.112c-.028.21-.085.598-.168 1.188-.289-.508-.485-.838-.586-1.024zm-1.12 1.542s-.025-.159-.04-.241c.235.117.487.249.97.498-.006 0-.361.098-.361.098l-.28.089c-.12.037-.28.087-.434.133.025-.049.085-.18.085-.18l-.823-.345c.23-.015.882-.052.882-.052zm-5.454 2.404s-.25.13-.489.262c-.025-.028-.041-.055-.067-.096.128-.355.2-.557.263-.751.04.056.118.182.118.182s.367-.33.59-.537c-.126.284-.326.75-.326.75s.112.036.149.05zm33.766.272c-.244-.142-.484-.272-.484-.272l-.242-.14.147-.05s-.202-.466-.322-.75c.22.208.59.537.59.537s.082-.126.115-.182c.07.194.142.396.265.75-.024.042-.04.07-.07.107z"/><path fill="#4c86c7" d="M299.323 165.319c-1.393-.442-2.185-2.014-1.776-3.5.419-1.493 1.893-2.336 3.288-1.891 1.399.439 2.198 2.006 1.781 3.499-.416 1.482-1.892 2.335-3.293 1.892z"/><path fill="none" stroke="#000" stroke-width=".208" d="M244.4 345.83c-.573-.176-.899-.804-.73-1.397.172-.596.778-.932 1.353-.755.575.176.904.801.733 1.397-.172.591-.78.932-1.356.755z" transform="matrix(2.42966 0 0 2.50557 -294.487 -701.182)"/><path fill="#fc0" d="M300.051 182.808c-5.375 0-10.622 1.102-15.618 3.23l1.544 3.113c4.527-1.94 9.123-2.988 14.074-2.988 4.976 0 9.59 1.057 14.127 3.008l1.55-3.109c-5.016-2.142-10.279-3.254-15.677-3.254z"/><path fill="#ecd21c" d="M321.068 178.849c-.781-1.207-1.959-1.104-2.377-.653a1.4 1.4 0 0 0-.408-.375c-.342.23-.503.656-.606 1.132-.127-.38-.312-.7-.622-.875-.148.113-.282.25-.376.411-.453-.411-.994-.62-1.486-.595-.16.5-.119 1.11.136 1.687a1.1 1.1 0 0 0-.471.277c.121.64.79 1.03 1.405 1.376a88 88 0 0 0-1.178 1.842 1.44 1.44 0 0 1-.94-1.37q0-.278.093-.531a.8.8 0 0 0 .052-.266c0-.3-.172-.577-.444-.698a.69.69 0 0 0-.907.41c-.248.64-.828 1.054-1.474 1.054-.878 0-1.591-.75-1.596-1.684l.144-.836q.194.043.402.11c.778.234 1.732.619 2.36.16a1.9 1.9 0 0 0-.162-.56c.563-.24.995-.66 1.213-1.148-.349-.4-.89-.648-1.498-.682.034-.19.031-.396-.012-.584-.335-.106-.693-.01-1.04.165.242-.425.404-.863.304-1.288a1.2 1.2 0 0 0-.55-.035c-.012-.651-.22-1.234-.577-1.622-.473.209-.88.662-1.128 1.244a1.4 1.4 0 0 0-.518-.19c-.256.35-.268.82-.199 1.313-.25-.306-.544-.548-.897-.59-.11.157-.18.344-.225.535-.573-.225-1.163-.219-1.627-.002.017.542.262 1.109.7 1.566a1.5 1.5 0 0 0-.358.448c.4.68 1.418.728 2.223.84.082.001.155.017.23.03l-.115.663a1 1 0 0 0-.1.198c-.23.672-.833 1.126-1.503 1.126-.88 0-1.596-.76-1.596-1.698 0-.414-.307-.738-.687-.743h-.084a.7.7 0 0 0-.67.548c-.196.738-.82 1.246-1.538 1.246-.886 0-1.599-.762-1.599-1.7v-.401q.18.004.39.025c.859.069 1.917.25 2.47-.363a1.6 1.6 0 0 0-.283-.546c.537-.367.91-.905 1.034-1.462-.442-.328-1.05-.464-1.683-.365a1.6 1.6 0 0 0-.13-.604c-.374-.035-.714.148-1.048.411.172-.494.255-.988.065-1.405q-.296-.016-.575.086c-.137-.666-.473-1.23-.925-1.55-.442.32-.777.884-.915 1.55a1.5 1.5 0 0 0-.573-.086c-.19.417-.112.911.061 1.405-.33-.263-.678-.446-1.047-.411a1.6 1.6 0 0 0-.13.604c-.637-.1-1.248.037-1.687.365.125.557.491 1.095 1.039 1.462a1.45 1.45 0 0 0-.284.546c.55.612 1.612.432 2.465.363.118-.01.23-.013.342-.023v.398c0 .939-.72 1.7-1.598 1.7-.72 0-1.356-.507-1.544-1.246a.7.7 0 0 0-.672-.547h-.08c-.382.005-.688.328-.688.743 0 .937-.716 1.697-1.597 1.697-.673 0-1.277-.454-1.504-1.125a.8.8 0 0 0-.098-.199l-.121-.662c.074-.013.154-.03.231-.03.808-.112 1.826-.16 2.232-.84a1.5 1.5 0 0 0-.362-.448c.435-.458.68-1.025.699-1.566-.463-.218-1.056-.224-1.626.001a1.6 1.6 0 0 0-.227-.535c-.351.043-.639.284-.897.59.071-.492.055-.963-.196-1.313a1.5 1.5 0 0 0-.522.19c-.246-.582-.655-1.034-1.127-1.244-.353.388-.565.971-.574 1.623a1.2 1.2 0 0 0-.553.035c-.096.425.062.862.303 1.287-.344-.176-.7-.27-1.043-.165a1.6 1.6 0 0 0-.01.584c-.604.034-1.146.283-1.497.682.213.488.654.909 1.219 1.149a1.6 1.6 0 0 0-.163.56c.621.458 1.57.073 2.352-.161.148-.046.278-.08.4-.11l.153.837c-.01.934-.724 1.683-1.596 1.683-.654 0-1.235-.414-1.48-1.053a.687.687 0 0 0-.909-.41.75.75 0 0 0-.431.697c0 .089.012.174.044.266q.093.254.092.53c0 .648-.397 1.178-.942 1.371a66 66 0 0 0-1.18-1.841c.623-.346 1.289-.736 1.413-1.377a1.2 1.2 0 0 0-.471-.276c.249-.577.293-1.187.13-1.687-.494-.026-1.034.183-1.483.595a1.6 1.6 0 0 0-.374-.412c-.308.176-.496.496-.631.875-.094-.475-.26-.902-.6-1.132a1.4 1.4 0 0 0-.409.375c-.416-.451-1.603-.553-2.377.653 0 0 1.237.054 2.13 1.045.514.567.92 1.173 1.17 1.56a.8.8 0 0 0 .07.18l1.543 2.558c.104.28.36.458.642.458 1.188 0 2.194-.811 2.582-1.936.44.266.937.44 1.471.44 1.115 0 2.078-.662 2.59-1.632.53.497 1.2.806 1.936.806 1.074 0 2.01-.61 2.536-1.521.543.545 1.26.877 2.045.877.925 0 1.757-.457 2.3-1.162.552.705 1.38 1.162 2.31 1.162.778 0 1.501-.332 2.041-.877.524.911 1.46 1.521 2.535 1.521.738 0 1.41-.309 1.932-.806.514.97 1.484 1.632 2.598 1.632.53 0 1.028-.174 1.47-.44.388 1.125 1.392 1.936 2.58 1.936.28 0 .534-.178.642-.458l1.535-2.558a.6.6 0 0 0 .081-.18c.24-.387.654-.993 1.167-1.56.896-.991 2.128-1.045 2.128-1.045z"/><path fill="#be0027" d="M305.664 184.762c0-.525-.42-.959-.93-.959-.508 0-.922.434-.922.959 0 .529.414.96.922.96.51 0 .93-.431.93-.96"/><path fill="none" stroke="#000" stroke-width=".208" d="M247.01 353.59a.385.385 0 0 0-.383-.383.383.383 0 0 0 0 .766c.21 0 .383-.172.383-.383z" transform="matrix(2.42966 0 0 2.50557 -294.487 -701.182)"/><path fill="#be0027" d="M313.147 186.44c0-.529-.413-.96-.928-.96-.507 0-.927.431-.927.96 0 .539.42.967.927.967.515 0 .928-.428.928-.966"/><path fill="none" stroke="#000" stroke-width=".208" d="M250.09 354.26a.383.383 0 1 0-.764 0 .382.382 0 1 0 .764 0z" transform="matrix(2.42966 0 0 2.50557 -294.487 -701.182)"/><path fill="#be0027" d="M296.431 184.762c0-.525-.41-.959-.92-.959-.514 0-.928.434-.928.959 0 .529.414.96.927.96.51 0 .921-.431.921-.96"/><path fill="none" stroke="#000" stroke-width=".208" d="M243.21 353.59c0-.21-.17-.383-.379-.383a.383.383 0 0 0 0 .766c.21 0 .379-.172.379-.383zM240.14 354.26a.38.38 0 1 0-.763 0c0 .215.173.386.382.386a.38.38 0 0 0 .381-.386z" transform="matrix(2.42966 0 0 2.50557 -294.487 -701.182)"/><path fill="#be0027" d="m300.124 183.56-2.682.963 2.682.958 2.682-.958z"/><path fill="none" stroke="#000" stroke-width=".208" d="m244.73 353.11-1.104.385 1.104.382 1.104-.382z" transform="matrix(2.42966 0 0 2.50557 -294.487 -701.182)"/><path fill="#be0027" d="m315.431 186.766-.664 1.793-1.121-1.485z"/><path fill="none" stroke="#000" stroke-width=".208" d="m251.03 354.39-.273.715-.462-.592z" transform="matrix(2.42966 0 0 2.50557 -294.487 -701.182)"/><path fill="#be0027" d="m284.672 186.766.67 1.793 1.114-1.485z"/><path fill="none" stroke="#000" stroke-width=".208" d="m238.37 354.39.276.715.458-.592z" transform="matrix(2.42966 0 0 2.50557 -294.487 -701.182)"/><path fill="#4c86c7" d="M293.589 185.088c.1.516-.22 1.026-.72 1.136l-1.812.391c-.503.106-.99-.229-1.096-.749-.1-.519.218-1.028.721-1.136l1.81-.392c.5-.108.991.228 1.097.75"/><path fill="none" stroke="#000" stroke-width=".208" d="M242.04 353.72a.386.386 0 0 1-.296.453l-.746.157a.383.383 0 0 1-.45-.3.385.385 0 0 1 .296-.453l.744-.156a.383.383 0 0 1 .452.299z" transform="matrix(2.42966 0 0 2.50557 -294.487 -701.182)"/><path fill="#4c86c7" d="M306.66 185.088c-.098.516.224 1.026.72 1.136l1.813.391c.497.106.986-.229 1.092-.749.108-.519-.214-1.028-.715-1.136l-1.815-.392c-.497-.108-.988.228-1.095.75"/><path fill="none" stroke="#000" stroke-width=".208" d="M247.42 353.72c-.04.206.092.41.297.453l.745.157a.38.38 0 0 0 .45-.3.38.38 0 0 0-.294-.453l-.748-.156a.383.383 0 0 0-.45.299z" transform="matrix(2.42966 0 0 2.50557 -294.487 -701.182)"/><path fill="#fff" d="M300.975 176.468c0-.533-.414-.962-.927-.962-.51 0-.924.429-.924.962 0 .536.414.964.924.964.513 0 .927-.428.927-.964"/><path fill="none" stroke="#000" stroke-width=".208" d="M245.08 350.28a.382.382 0 1 0-.762 0 .382.382 0 1 0 .762 0z" transform="matrix(2.42966 0 0 2.50557 -294.487 -701.182)"/><path fill="#fff" d="M310.572 177.52c0-.534-.415-.963-.928-.963-.509 0-.926.429-.926.964 0 .532.417.962.926.962.513 0 .928-.43.928-.962"/><path fill="none" stroke="#000" stroke-width=".208" d="M249.03 350.7a.38.38 0 0 0-.382-.385c-.21 0-.38.171-.38.385 0 .212.17.384.38.384a.383.383 0 0 0 .382-.384z" transform="matrix(2.42966 0 0 2.50557 -294.487 -701.182)"/><path fill="#fff" d="M319.003 180.953c0-.526-.408-.958-.92-.958-.507 0-.923.432-.923.958 0 .533.416.964.923.964.512 0 .92-.431.92-.964"/><path fill="none" stroke="#000" stroke-width=".208" d="M252.5 352.07a.38.38 0 0 0-.378-.383.383.383 0 0 0 0 .768.38.38 0 0 0 .378-.385z" transform="matrix(2.42966 0 0 2.50557 -294.487 -701.182)"/><path fill="#fff" d="M289.531 177.52c0-.534.41-.963.927-.963.51 0 .92.429.92.964 0 .532-.41.962-.92.962-.516 0-.927-.43-.927-.962"/><path fill="none" stroke="#000" stroke-width=".208" d="M240.37 350.7a.381.381 0 1 1 .76 0 .38.38 0 1 1-.76 0z" transform="matrix(2.42966 0 0 2.50557 -294.487 -701.182)"/><path fill="#fff" d="M281.1 180.953c0-.526.417-.958.928-.958.508 0 .923.432.923.958 0 .533-.415.964-.923.964-.511 0-.928-.431-.928-.964"/><path fill="none" stroke="#000" stroke-width=".208" d="M236.9 352.07c0-.21.172-.383.382-.383.209 0 .38.173.38.383 0 .212-.171.385-.38.385a.384.384 0 0 1-.382-.385z" transform="matrix(2.42966 0 0 2.50557 -294.487 -701.182)"/><path fill="#fc0" d="M301 162.011v-3.537h1.16V156.5H301v-1.234h-1.852v1.234h-1.16v1.973h1.16v3.537h-1.63v1.276h5.106v-1.276z"/><path fill="none" stroke="#000" stroke-width=".208" d="M245.09 344.51v-1.412h.478v-.787h-.478v-.493h-.762v.493h-.477v.787h.477v1.412h-.67v.509h2.1v-.509z" transform="matrix(2.42966 0 0 2.50557 -294.487 -701.182)"/><path fill="#0077c8" d="M274.516 190.5h50.94v46.07c0 15.21-25.465 15.21-25.465 15.21s-25.475 0-25.475-15.21z"/><path fill="none" stroke="#000" stroke-linecap="round" stroke-linejoin="round" stroke-width=".662" d="M234.19 355.88h20.966v18.387c0 6.07-10.481 6.07-10.481 6.07s-10.485 0-10.485-6.07z" transform="matrix(2.42966 0 0 2.50557 -294.487 -701.182)"/><path fill="#c88242" d="M254.058 229.21c2.637 1.062 4.861 3.065 6.334 5.64l.028.054c.295.542.462 1.176.462 1.848 0 .978-.36 1.873-.938 2.52l-.028.028a4.62 4.62 0 0 0-1.114 3.038c0 2.112 1.35 3.87 3.15 4.293l.024.01c2.137.483 3.746 2.559 3.746 5.051h-4.69c-1.022 0-2.074-.59-2.645-1.89-.86-2.092-3.013-5.747-4.902-6.721.055-.355.703-1.341.703-1.714 0-2.964-1.851-2.87-4.373-3.516l-.824-.155s.488-2.024 1.703-4.279c1.216-2.25 3.365-4.207 3.365-4.207z"/><path fill="none" stroke="#000" stroke-linecap="round" stroke-linejoin="round" stroke-width=".428" d="M225.77 371.33c1.085.424 2 1.223 2.607 2.25l.011.022c.122.216.19.47.19.738 0 .39-.147.747-.386 1.006l-.011.01a1.8 1.8 0 0 0-.459 1.213c0 .843.557 1.545 1.297 1.714l.01.004c.88.193 1.542 1.02 1.542 2.016h-1.93c-.421 0-.854-.236-1.09-.755-.353-.835-1.24-2.293-2.017-2.682.023-.142.29-.535.29-.684 0-1.183-.762-1.145-1.8-1.404l-.34-.061s.202-.808.701-1.708c.5-.898 1.385-1.68 1.385-1.68z" transform="matrix(2.42966 0 0 2.50557 -294.487 -701.182)"/><path fill="#c88242" d="m264.894 198.893 6.662-10.639.026-.022c.63-.978 1.667-1.608 2.836-1.608 1.92 0 3.48 1.71 3.48 3.824h-3.48l-2.769 5.406-1.787 8.042-1 1.534-.082.195"/><path fill="none" stroke="#000" stroke-linecap="round" stroke-linejoin="round" stroke-width=".428" d="m230.23 359.23 2.742-4.246.01-.01c.26-.39.687-.64 1.168-.64.79 0 1.432.682 1.432 1.525h-1.432l-1.14 2.158-.735 3.21-.412.612-.034.078" transform="matrix(2.42966 0 0 2.50557 -294.487 -701.182)"/><path fill="#c88242" d="M238.994 235.926a14 14 0 0 0-.087 1.56c0 .67.045 1.339.133 1.997l.01.067q.05.379.052.777c0 2.453-1.417 4.533-3.4 5.332l-.014.026a12 12 0 0 0-.053 1.11c0 2.298.679 4.406 1.82 6.138l.059.124a13.3 13.3 0 0 1 1.884 4.77c.385 1.775 1.73 2.494 2.774 2.494h5.475c0-2.849-2.099-5.152-4.691-5.152l-.042-.01c-1.018-1.142-1.644-2.713-1.644-4.436 0-2.652 1.481-4.93 3.584-5.877l.025-.028c2.505-1.147 4.265-3.855 4.265-7.018l.022-.075c2.186-6.8 6.798-12.332 12.699-15.359l.041-.017c4.345-2.078 7.376-6.87 7.376-12.41 0-4.27-1.801-8.069-4.614-10.545 0 0 .037-4.954.037-6.17.596-.559 1.09-.96 2.562-2.155 1.953-1.577 3.286-2.683 3.72-5.06.262-1.487 1.027-6.494-.902-6.188-1.922.301-4.717 1.545-4.717 1.545-1.115-.491-1.412-1.12-2.687-1.12-.849 0-2.386.46-3.172.68-4.237 1.195-7.368 5.424-7.368 10.449l.076 11.931c0 8.613-3.96 16.205-9.992 20.707l-.012.022c-2.547 1.855-4.431 4.712-5.183 8.055l-.015.087c-.354 1.526-1.612 2.39-2.733 2.39-1.124 0-2.244-.463-3.1-1.405-1.706-1.87-1.706-4.92 0-6.8.575-.64.575-1.661 0-2.291a1.386 1.386 0 0 0-2.087 0c-2.853 3.139-2.853 8.253 0 11.388 2.71 2.971 7.021 3.126 9.903.467"/><path fill="none" stroke="#000" stroke-linecap="round" stroke-linejoin="round" stroke-width=".428" d="M219.57 374.01a5 5 0 0 0-.036.623q0 .401.055.797l.004.027q.02.15.021.31c0 .979-.583 1.809-1.399 2.128l-.006.01a4.34 4.34 0 0 0 .728 2.893l.024.05c.375.566.642 1.207.775 1.903.159.709.712.996 1.142.996h2.253c0-1.138-.863-2.057-1.93-2.057l-.017-.004a2.6 2.6 0 0 1-.677-1.77c0-1.059.61-1.968 1.475-2.346l.01-.01c1.031-.459 1.756-1.54 1.756-2.802l.009-.03c.9-2.713 2.797-4.922 5.226-6.13l.017-.007c1.788-.83 3.036-2.741 3.036-4.953 0-1.704-.741-3.22-1.9-4.208 0 0 .016-1.977.016-2.463.245-.223.449-.383 1.055-.86.804-.63 1.352-1.07 1.53-2.02.109-.593.423-2.591-.37-2.469-.792.12-1.942.617-1.942.617-.46-.196-.581-.447-1.106-.447-.35 0-.982.183-1.306.27-1.743.478-3.032 2.166-3.032 4.171l.031 4.762c0 3.438-1.63 6.468-4.112 8.264l-.005.01a5.43 5.43 0 0 0-2.134 3.214l-.005.035c-.146.61-.664.954-1.125.954a1.74 1.74 0 0 1-1.277-.56c-.701-.747-.701-1.964 0-2.715a.68.68 0 0 0 0-.914.58.58 0 0 0-.858 0c-1.175 1.253-1.175 3.294 0 4.545 1.115 1.186 2.89 1.247 4.076.186h0" transform="matrix(2.42966 0 0 2.50557 -294.487 -701.182)"/><path fill="#c88242" d="M255.224 187.794s-.73 2.255.27 4.506c.687 1.557 2.101 2.46 3.58 2.475a4.76 4.76 0 0 0 .421-4.617c-.067-.156-1.653-3.67-1.653-3.67"/><path fill="none" stroke="#000" stroke-linecap="round" stroke-linejoin="round" stroke-width=".428" d="M226.25 354.8s-.3.9.111 1.799c.283.621.865.982 1.473.987a1.85 1.85 0 0 0 .174-1.842l-.68-1.465" transform="matrix(2.42966 0 0 2.50557 -294.487 -701.182)"/><path d="M263.898 184.561c-.442.192-.896.234-1.274.141a2.26 2.26 0 0 1 1.007-.867z"/><path fill="none" stroke="#000" stroke-width=".428" d="M229.82 353.51a.86.86 0 0 1-.524.056.92.92 0 0 1 .414-.346z" transform="matrix(2.42966 0 0 2.50557 -294.487 -701.182)"/><path fill="#c88242" d="M263.85 208.014c2.878 1.679 6.093-.01 7.674-2.81.551-.97.26-2.589.574-3.55l.026-.059c.339-1.041 1.254-1.801 2.324-1.801l.005 7.97s-.698.764-2.509 2.752c-1.812 1.988-3.8 4.823-5.887 4.16-2.084-.661-8.95-2.408-8.95-2.408"/><path fill="none" stroke="#000" stroke-linecap="round" stroke-linejoin="round" stroke-width=".428" d="M229.8 362.87c1.185.67 2.508-.004 3.159-1.121.227-.387.106-1.034.236-1.417l.01-.024c.14-.415.517-.719.957-.719l.002 3.182-1.032 1.098c-.746.793-1.564 1.925-2.424 1.66-.857-.264-3.683-.96-3.683-.96" transform="matrix(2.42966 0 0 2.50557 -294.487 -701.182)"/><path d="M268.247 180.026c0 1.759 1.302 3.19 2.905 3.19v-2.053c-.001-.846-.27-1.26-1.04-1.137h-.932z"/><path fill="none" stroke="#000" stroke-width=".221" d="M231.61 351.73c0 .702.536 1.273 1.196 1.273v-.82c0-.337-.111-.502-.429-.453h-.383z" transform="matrix(2.42966 0 0 2.50557 -294.487 -701.182)"/><path d="M271.041 185.438s-1.951 2.138-4.371 2.825"/><path fill="none" stroke="#000" stroke-linecap="round" stroke-linejoin="round" stroke-width=".428" d="M232.76 353.86s-.803.853-1.8 1.127" transform="matrix(2.42966 0 0 2.50557 -294.487 -701.182)"/><path fill="#fff" d="m307.802 245.848-5.964-6.812c-1.046-1.203-2.724-1.203-3.773 0l-5.952 6.812z"/><path fill="none" stroke="#000" stroke-width=".443" d="m247.89 377.97-2.455-2.718c-.43-.48-1.121-.48-1.553 0l-2.45 2.718z" transform="matrix(2.42966 0 0 2.50557 -294.487 -701.182)"/><path fill="#fff" d="m296.528 204.731-5.957-6.807c-1.047-1.205-2.727-1.205-3.77-.005l-5.956 6.813h15.683z"/><path fill="none" stroke="#000" stroke-width=".443" d="m243.25 361.56-2.452-2.717c-.43-.48-1.122-.48-1.551-.002l-2.452 2.72z" transform="matrix(2.42966 0 0 2.50557 -294.487 -701.182)"/><path fill="#fff" d="m319.149 204.731-5.96-6.807c-1.049-1.205-2.726-1.205-3.766-.005l-5.96 6.813h15.686z"/><path fill="none" stroke="#000" stroke-width=".443" d="m252.56 361.56-2.453-2.717c-.432-.48-1.122-.48-1.55-.002l-2.453 2.72z" transform="matrix(2.42966 0 0 2.50557 -294.487 -701.182)"/><path fill="#fff" d="m296.528 218.336-5.957-6.806c-1.047-1.198-2.727-1.198-3.77-.005l-5.956 6.811z"/><path fill="none" stroke="#000" stroke-width=".443" d="m243.25 366.99-2.452-2.717a1.02 1.02 0 0 0-1.551-.002l-2.452 2.719z" transform="matrix(2.42966 0 0 2.50557 -294.487 -701.182)"/><path fill="#fff" d="m319.149 218.336-5.96-6.806c-1.049-1.198-2.726-1.198-3.766-.005l-5.96 6.811z"/><path fill="none" stroke="#000" stroke-width=".443" d="m252.56 366.99-2.453-2.717c-.432-.478-1.122-.478-1.55-.002l-2.453 2.719z" transform="matrix(2.42966 0 0 2.50557 -294.487 -701.182)"/><path fill="#fff" d="m296.528 232.142-5.957-6.82c-1.047-1.203-2.727-1.203-3.77 0l-5.956 6.82z"/><path fill="none" stroke="#000" stroke-width=".443" d="m243.25 372.5-2.452-2.722c-.43-.48-1.122-.48-1.551 0l-2.452 2.722z" transform="matrix(2.42966 0 0 2.50557 -294.487 -701.182)"/><path fill="#fff" d="m319.149 232.142-5.96-6.82c-1.049-1.203-2.726-1.203-3.766 0l-5.96 6.82z"/><path fill="none" stroke="#000" stroke-width=".443" d="m252.56 372.5-2.453-2.722c-.432-.48-1.122-.48-1.55 0l-2.453 2.722z" transform="matrix(2.42966 0 0 2.50557 -294.487 -701.182)"/><path fill="#768692" d="M325.855 147.855c1.985 4.156 9.166 5.337 11.57 5.279 1.196-.026 2.328-.248 3.355-.708q-.167.581-.41 1.12c-1.016 2.318-2.968 4.098-5.358 4.818.774 2.511 2.534 3.389 4.419 4.172-2.094.674-15.737 1.842-24.51-7.578"/><path fill="none" stroke="#000" stroke-linecap="round" stroke-linejoin="round" stroke-width=".443" d="M255.32 338.86c.817 1.659 3.773 2.13 4.762 2.107a3.6 3.6 0 0 0 1.381-.283 3 3 0 0 1-.169.447 3.5 3.5 0 0 1-2.205 1.923c.319 1.002 1.043 1.353 1.819 1.665-.862.27-6.477.736-10.088-3.024" transform="matrix(2.42966 0 0 2.50557 -294.487 -701.182)"/><path fill="#768692" d="M273.908 147.855c-1.98 4.156-9.161 5.337-11.571 5.279-1.19-.026-2.323-.248-3.353-.708.113.388.246.76.408 1.12 1.014 2.318 2.97 4.098 5.358 4.818-.776 2.511-2.527 3.389-4.415 4.172 2.09.674 15.734 1.842 24.51-7.578"/><path fill="none" stroke="#000" stroke-linecap="round" stroke-linejoin="round" stroke-width=".443" d="M233.94 338.86c-.815 1.659-3.77 2.13-4.763 2.107a3.7 3.7 0 0 1-1.38-.283q.07.232.168.447a3.5 3.5 0 0 0 2.205 1.923c-.319 1.002-1.04 1.353-1.817 1.665.86.27 6.476.736 10.088-3.024" transform="matrix(2.42966 0 0 2.50557 -294.487 -701.182)"/><path fill="#768692" d="m316.306 152.565-1.409 2.496s1.645.425 3.346.852c1.702.423 2.52.096 3.7-1.276 1.404-1.651 2.932-4.087 2.932-4.087l.017-.042a5.9 5.9 0 0 0 .925-3.2c0-2.824-1.947-5.174-4.516-5.702l-.053-.017a115 115 0 0 0-21.208-1.972h-.31c-7.236 0-14.328.68-21.204 1.972l-.058.017c-2.576.528-4.518 2.878-4.518 5.701a5.93 5.93 0 0 0 .93 3.201l.016.042s1.523 2.436 2.928 4.087c1.182 1.372 2.003 1.7 3.704 1.276 1.698-.427 3.346-.852 3.346-.852l-1.41-2.496-.19-.432-2.711.419a104.5 104.5 0 0 1 19.168-1.765h.31c6.54 0 12.95.605 19.172 1.765l-2.664-.398-.241.411z"/><path fill="none" stroke="#000" stroke-linecap="round" stroke-linejoin="round" stroke-width=".443" d="m251.39 340.74-.58.996s.677.17 1.377.34 1.037.038 1.523-.509c.578-.66 1.207-1.631 1.207-1.631l.007-.017c.24-.366.38-.803.38-1.277a2.32 2.32 0 0 0-1.858-2.276l-.022-.007a48.7 48.7 0 0 0-8.729-.787h-.127c-2.979 0-5.897.271-8.728.787l-.023.007a2.32 2.32 0 0 0-1.86 2.276c0 .474.142.911.383 1.277l.007.017s.626.972 1.204 1.631c.487.548.825.678 1.525.51.699-.171 1.377-.34 1.377-.34l-.58-.997-.078-.173-1.116.168a44.3 44.3 0 0 1 7.89-.705h.127c2.691 0 5.33.242 7.89.705l-1.096-.16z" transform="matrix(2.42966 0 0 2.50557 -294.487 -701.182)"/><path d="M283.36 149.76c-1.092.225-2.27-.203-2.647-1.989-.331-1.55.599-2.687 1.63-2.907 1.09-.233 2.268.18 2.643 1.965.334 1.555-.594 2.708-1.626 2.93zm-.939-4.287c-.51.108-.857.55-.538 2.066.32 1.514.892 1.714 1.401 1.607.515-.113.854-.567.532-2.083-.321-1.512-.886-1.699-1.395-1.59M291.548 148.156a3.3 3.3 0 0 1-1.121.39c-1.473.195-2.668-.702-2.857-2.13-.2-1.542.803-2.62 2.31-2.824.29-.04.676-.04.911-.002.055.002.104.053.109.113l.148 1.101q.009.09-.086.107l-.286.038c-.048.008-.093-.017-.116-.073l-.118-.373c-.074-.219-.272-.303-.65-.253-.955.128-1.171 1.01-1.057 1.862.132 1.004.715 1.84 1.867 1.685.227-.028.525-.14.69-.245.065-.046.13.005.155.057l.128.396c.021.052.014.124-.027.151zM297.962 147.705c0 .065-.027.13-.076.13l-3.52.2c-.06.005-.105-.03-.108-.101l-.012-.206c-.005-.059.021-.11.091-.127l.333-.086c.066-.015.123-.09.112-.245l-.182-3.266c-.007-.155-.071-.222-.141-.233l-.34-.044c-.07-.01-.1-.054-.106-.109l-.01-.214c-.005-.067.031-.107.1-.112l3.409-.19c.047-.002.098.048.099.11l.05.92c.005.063-.028.1-.089.104l-.246.017c-.052 0-.098-.029-.108-.088l-.077-.257c-.033-.12-.126-.18-.255-.173l-1.095.061c-.046 0-.078.04-.078.093l.068 1.156a.08.08 0 0 0 .087.078l1.528-.082c.067-.01.104.027.104.088l.025.415c0 .064-.036.107-.095.108l-1.53.08a.09.09 0 0 0-.075.09l.072 1.28c.01.197.11.241.24.232l1.072-.06c.13-.004.231-.083.254-.209l.048-.266c.01-.06.048-.094.1-.094l.255-.015c.062-.005.102.025.102.093l-.007.92zM305.64 147.88l-1.986-.052c-.062 0-.105-.037-.1-.107l.004-.21a.12.12 0 0 1 .102-.119l.334-.052c.089-.015.141-.1.1-.238l-.153-.523c-.015-.04-.034-.083-.082-.083l-1.658-.038c-.047 0-.071.038-.089.076l-.2.516c-.054.136.001.225.084.238l.337.074c.07.017.098.062.098.119l-.005.212c-.002.073-.049.103-.11.103l-1.638-.039c-.067-.001-.108-.04-.108-.108l.01-.21c0-.056.025-.099.102-.117l.194-.061c.086-.023.127-.065.204-.237l1.716-4.03c.01-.03.02-.058.055-.058l.983.017c.027.005.039.035.052.068l1.385 4.107c.063.18.1.214.187.246l.196.07c.073.023.098.065.093.124l-.004.207c0 .072-.043.104-.103.104zm-2.35-3.45a3 3 0 0 1-.142-.678h-.017c-.014.112-.09.366-.203.667l-.519 1.36c-.025.06.01.078.054.078l1.19.029c.058 0 .066-.026.048-.072zM313.317 144.297l-.344.025c-.063.003-.131.066-.146.223l-.442 3.972c-.008.046-.031.05-.068.046l-.59-.064c-.067-.008-.076-.023-.107-.077l-1.547-2.746a11 11 0 0 1-.294-.592l-.012-.005-.26 2.388c-.02.153.027.231.096.245l.4.113c.065.023.088.074.082.129l-.028.208c-.005.069-.05.098-.115.094l-1.81-.202c-.061-.005-.101-.044-.095-.116l.022-.206c.012-.058.038-.103.106-.11l.349-.026c.07-.01.135-.07.148-.225l.365-3.251c.017-.152-.027-.227-.098-.251l-.332-.103a.105.105 0 0 1-.083-.123l.017-.213c.007-.072.055-.1.123-.092l1.458.16c.086.01.123.065.173.154l1.14 2.138c.164.306.256.5.325.673h.015l.224-2.013c.014-.153-.03-.23-.102-.252l-.393-.109c-.07-.022-.092-.071-.09-.133l.026-.208c.01-.069.052-.1.116-.09l1.813.199q.102.014.094.12l-.022.209c-.003.052-.04.1-.113.111zM317.472 149.509c-1.096-.216-2.014-1.076-1.665-2.863.304-1.562 1.595-2.24 2.63-2.039 1.101.213 2.023 1.055 1.673 2.843-.304 1.563-1.606 2.257-2.638 2.058zm.8-4.309c-.508-.104-1.001.169-1.301 1.689-.297 1.518.153 1.927.666 2.028.52.102 1.007-.187 1.303-1.707s-.155-1.912-.668-2.01"/><path fill="#c09b5a" d="M345.996 229.21c-2.638 1.062-4.862 3.068-6.338 5.644l-.028.055a3.83 3.83 0 0 0-.46 1.847c0 .979.352 1.875.935 2.516l.025.032a4.6 4.6 0 0 1 1.117 3.04c0 2.106-1.348 3.866-3.157 4.291l-.013.005c-2.138.482-3.749 2.559-3.749 5.051h4.692c1.027 0 2.078-.584 2.648-1.885.854-2.094 3.011-5.746 4.898-6.723-.057-.355-.705-1.344-.705-1.716 0-2.964 1.858-2.867 4.375-3.51l.827-.163s-.486-2.02-1.706-4.274c-1.212-2.248-3.36-4.21-3.36-4.21z"/><path fill="none" stroke="#000" stroke-linecap="round" stroke-linejoin="round" stroke-width=".428" d="M263.61 371.33c-1.086.424-2.001 1.224-2.609 2.252l-.011.022c-.122.216-.19.467-.19.738 0 .39.145.748.385 1.004l.01.012c.284.314.46.742.46 1.214 0 .84-.555 1.543-1.3 1.712l-.004.002c-.88.193-1.543 1.021-1.543 2.016h1.93c.423 0 .856-.233 1.09-.752.352-.836 1.24-2.293 2.016-2.683-.023-.142-.29-.537-.29-.685 0-1.183.765-1.145 1.8-1.401l.341-.065s-.2-.807-.702-1.706c-.499-.897-1.382-1.68-1.382-1.68z" transform="matrix(2.42966 0 0 2.50557 -294.487 -701.182)"/><path fill="#c09b5a" d="m335.16 198.893-6.664-10.642-.027-.027c-.63-.972-1.664-1.606-2.831-1.606-1.925 0-3.485 1.716-3.485 3.825h3.485l2.77 5.407 1.784 8.044.998 1.534.082.197"/><path fill="#c88242" stroke="#000" stroke-linecap="round" stroke-linejoin="round" stroke-width=".428" d="m259.15 359.23-2.743-4.247-.01-.011a1.4 1.4 0 0 0-1.166-.641c-.792 0-1.434.685-1.434 1.526h1.434l1.14 2.158.734 3.21.411.613.034.079" transform="matrix(2.42966 0 0 2.50557 -294.487 -701.182)"/><path fill="#c88242" d="M361.036 235.926c.054.518.082 1.029.082 1.56q.001 1.019-.135 1.99l-.005.074a6 6 0 0 0-.047.775c0 2.452 1.408 4.54 3.396 5.333l.014.026a12 12 0 0 1 .05 1.115 11.1 11.1 0 0 1-1.817 6.132l-.06.124a13.1 13.1 0 0 0-1.88 4.776c-.39 1.775-1.73 2.488-2.77 2.488h-5.484c0-2.841 2.101-5.154 4.693-5.154l.045-.002c1.014-1.147 1.647-2.713 1.647-4.441 0-2.649-1.487-4.93-3.591-5.88l-.022-.023c-2.506-1.144-4.268-3.857-4.268-7.015l-.017-.084c-2.189-6.792-6.798-12.329-12.7-15.354l-.04-.012c-4.348-2.082-7.378-6.878-7.378-12.414 0-4.266 1.802-8.072 4.616-10.54 0 0-.038-4.959-.038-6.176-.592-.56-1.09-.962-2.567-2.155-1.943-1.576-3.28-2.687-3.71-5.055-.264-1.491-1.034-6.501.892-6.19 1.925.299 4.716 1.544 4.716 1.544 1.127-.488 1.42-1.12 2.694-1.12.846 0 2.388.453 3.168.676 4.24 1.202 7.372 5.418 7.372 10.447l-.076 11.933c0 8.614 3.958 16.208 9.988 20.712l.022.026c2.535 1.852 4.425 4.707 5.178 8.047l.012.086c.356 1.528 1.61 2.4 2.732 2.4 1.121 0 2.245-.47 3.102-1.407 1.703-1.874 1.703-4.925 0-6.803-.58-.634-.58-1.66 0-2.29.57-.64 1.508-.64 2.078 0 2.866 3.135 2.866 8.245 0 11.385-2.702 2.97-7.016 3.126-9.893.467"/><path fill="none" stroke="#000" stroke-linecap="round" stroke-linejoin="round" stroke-width=".428" d="M269.8 374.01a5.8 5.8 0 0 1-.022 1.417l-.002.03q-.02.152-.02.309c0 .978.58 1.812 1.398 2.128l.006.01q.021.22.021.446a4.33 4.33 0 0 1-.748 2.447l-.025.05a5.1 5.1 0 0 0-.774 1.906c-.16.708-.712.993-1.14.993h-2.257c0-1.134.865-2.057 1.932-2.057l.018-.001a2.63 2.63 0 0 0 .678-1.773c0-1.057-.612-1.967-1.478-2.347l-.009-.009c-1.031-.456-1.756-1.539-1.756-2.8l-.007-.033c-.901-2.71-2.798-4.92-5.228-6.128l-.016-.005c-1.79-.83-3.037-2.745-3.037-4.954 0-1.703.742-3.222 1.9-4.206 0 0-.015-1.98-.015-2.466-.244-.223-.449-.384-1.057-.86-.8-.629-1.35-1.072-1.527-2.017-.109-.595-.425-2.595.367-2.471.793.12 1.941.616 1.941.616.464-.194.585-.446 1.11-.446.347 0 .982.18 1.303.27 1.745.48 3.034 2.162 3.034 4.169l-.031 4.762c0 3.438 1.629 6.47 4.11 8.267l.01.01a5.45 5.45 0 0 1 2.131 3.212l.005.034c.147.61.663.958 1.124.958a1.75 1.75 0 0 0 1.277-.562c.7-.747.7-1.965 0-2.715a.673.673 0 0 1 0-.914.573.573 0 0 1 .855 0c1.18 1.251 1.18 3.291 0 4.544-1.112 1.186-2.887 1.248-4.071.186" transform="matrix(2.42966 0 0 2.50557 -294.487 -701.182)"/><path fill="#c88242" d="M344.83 187.794s.736 2.257-.262 4.503c-.693 1.557-2.105 2.458-3.583 2.478a4.77 4.77 0 0 1-.427-4.618c.07-.158 1.656-3.666 1.656-3.666"/><path fill="none" stroke="#000" stroke-linecap="round" stroke-linejoin="round" stroke-width=".428" d="M263.13 354.8s.303.9-.108 1.798c-.285.62-.866.98-1.475.988a1.86 1.86 0 0 1-.175-1.843c.028-.063.681-1.463.681-1.463" transform="matrix(2.42966 0 0 2.50557 -294.487 -701.182)"/><path fill="#c0a151" d="M336.156 184.561c.436.196.892.228 1.268.141a2.2 2.2 0 0 0-1.011-.87z"/><path fill="none" stroke="#000" stroke-width=".428" d="M259.56 353.51c.18.078.367.09.522.056a.9.9 0 0 0-.416-.347z" transform="matrix(2.42966 0 0 2.50557 -294.487 -701.182)"/><path fill="#c88242" d="M336.18 208.014c-2.878 1.679-6.093-.003-7.674-2.808-.557-.97-.26-2.592-.568-3.548l-.026-.055c-.342-1.052-1.255-1.803-2.329-1.803l-.01 7.966s.7.761 2.51 2.757c1.813 1.985 3.8 4.817 5.89 4.154 2.084-.664 8.951-2.41 8.951-2.41"/><path fill="none" stroke="#000" stroke-linecap="round" stroke-linejoin="round" stroke-width=".428" d="M259.57 362.87c-1.185.67-2.508-.001-3.159-1.12-.23-.388-.107-1.035-.233-1.417l-.011-.022c-.14-.42-.517-.72-.959-.72l-.004 3.18s.288.304 1.033 1.1c.747.793 1.564 1.923 2.424 1.658.858-.265 3.684-.961 3.684-.961" transform="matrix(2.42966 0 0 2.50557 -294.487 -701.182)"/><path d="M331.783 180.001c0 1.76-1.305 3.196-2.904 3.196v-2.058c0-.846.269-1.262 1.032-1.138h.938z"/><g fill="none" stroke="#000"><path stroke-width=".221" d="M257.76 351.73c0 .703-.537 1.276-1.195 1.276v-.822c0-.337.11-.503.425-.454h.385z" transform="matrix(2.42966 0 0 2.50557 -294.487 -701.182)"/><path stroke-linecap="round" stroke-linejoin="round" stroke-width=".428" d="M256.61 353.86s.803.856 1.801 1.13" transform="matrix(2.42966 0 0 2.50557 -294.487 -701.182)"/></g><g fill="#fff"><path d="M287.922 187.154a.67.67 0 0 1-.387-.212.702.702 0 0 1 .305-1.15.8.8 0 0 1 .351 0 .69.69 0 0 1 .487.665c0 .427-.353.753-.756.697M295.346 185.455a.7.7 0 0 1-.366-.24.715.715 0 0 1-.045-.804c.314-.498 1.012-.404 1.197.162a.85.85 0 0 1-.006.427c-.113.34-.451.537-.78.455M312.098 187.154a.7.7 0 0 1-.542-.505.9.9 0 0 1 0-.376.7.7 0 0 1 .466-.48.9.9 0 0 1 .338-.007c.17.04.357.194.435.36.043.088.077.23.077.315a.9.9 0 0 1-.081.325.68.68 0 0 1-.693.368M304.613 185.467a.704.704 0 0 1-.186-1.306.62.62 0 0 1 .664.047c.457.313.37 1.03-.148 1.224a.8.8 0 0 1-.33.035"/></g><path fill="#c88242" d="M335.353 250.02c.623-1.539.929-1.832 2.835-2.714 2.013-.931 2.997-1.927 3.451-3.49.424-1.46.155-2.968-.82-4.597-1.14-1.906-1.224-2.423-.615-3.841.622-1.452 2.853-3.824 4.487-4.77l1.13-.656.943 1.137c1.122 1.352 3.133 5.426 2.937 5.951-.076.204-.621.464-1.212.578-2.382.46-3.386 1.771-3.086 4.029.145 1.093.074 1.342-.556 1.945-.917.878-2.61 3.433-3.566 5.383-.407.83-.984 1.643-1.283 1.808s-1.563.3-2.81.3h-2.266z"/><g fill="#fc0"><path d="M283.596 183.537c-.477-.795-.586-1.292-.45-2.04.152-.836.075-1.058-.5-1.447-.373-.252-.788-.427-.922-.389-.364.105-2.347-.709-2.347-.963 0-.43.994-.75 1.894-.608.564.088.912.309.912.58 0 .308.103.352.35.151.193-.157.73-.378 1.193-.493s.905-.23.982-.257.158.472.181 1.109c.03.853-.11 1.28-.53 1.623-.562.458-.562.481-.05 1.374.285.5.685.909.887.909.451 0 .927-1.208.782-1.986-.162-.864.552-.956 1.274-.163.852.936 2.066.932 2.663-.007.756-1.19.447-1.752-.907-1.652-.877.066-1.339-.069-1.87-.545-.72-.646-.724-1.434-.007-1.434.22 0 .475-.203.568-.45.092-.248.34-.383.552-.299.211.084.385-.019.385-.228 0-.603.852-2.206 1.173-2.206.432 0 1.622 1.242 1.627 1.7.004.308.093.321.401.058.226-.193.464-.225.554-.075.087.146.49.227.894.181.703-.08.727-.036.55.98-.209 1.201-.787 1.786-1.766 1.786-.913 0-.752 1.041.284 1.836l.771.592.765-.59c.421-.323.842-.902.937-1.285.208-.846.78-.774 1.478.186.903 1.242 2.993.711 2.993-.76 0-.384-.196-.559-.632-.562-1.04-.006-1.893-.33-1.893-.717 0-.201-.19-.527-.421-.725-.646-.554-.508-1.158.264-1.158.377 0 .77-.141.873-.314.104-.173.433-.249.732-.168.393.106.523.012.469-.337-.041-.266.268-.86.687-1.32l.762-.839.702.78c.386.43.701 1.023.701 1.318 0 .394.15.496.561.385.314-.084.561-.009.561.172 0 .178.316.323.702.323.798 0 .927.594.275 1.266-.234.242-.392.603-.35.803.08.39-.088.443-1.608.5-.755.027-.982.159-.982.57 0 1.425 2.182 2.01 2.956.792.715-1.126 1.204-1.138 1.649-.039.576 1.422 1.435 1.82 2.374 1.1.963-.739 1.15-1.809.316-1.809-.877 0-1.686-.527-1.514-.988.082-.22.014-.486-.151-.591s-.3-.426-.3-.713c0-.385.184-.501.7-.443.386.044.768-.033.851-.171.083-.139.336-.178.562-.089.257.102.412-.012.412-.302 0-.255.194-.465.43-.465s.502-.195.591-.434c.239-.64 1.224-.549 1.224.114 0 .301.18.619.399.706.256.101.34.388.236.8-.103.406-.055.573.13.454.162-.102.45.007.64.244s.513.431.717.431c.695 0 .743.62.103 1.324-.481.528-.933.702-1.823.702-1.386 0-1.775.575-1.104 1.632.575.904 1.655.88 2.738-.06.949-.823 1.318-.606 1.326.78.006.982.766 1.706 1.158 1.101.857-1.325.887-1.51.324-1.98-.439-.365-.527-.713-.425-1.684.116-1.115.177-1.197.682-.919.305.169.723.24.93.158.206-.082.458.07.559.339.165.439.217.43.514-.09.46-.805 2.715-.723 2.715.098 0 .27-1.7 1.022-2.232.986-.225-.015-.65.105-.945.268-.425.234-.502.503-.375 1.307.121.77-.006 1.282-.533 2.142-.86 1.405-1.746 1.492-2.868.281-.684-.738-.932-.828-1.91-.693-.935.13-1.273.026-2.011-.614-.719-.624-.992-.712-1.44-.464-.991.546-2.415.36-3.234-.422-.701-.67-.807-.692-1.366-.289-.816.59-1.843.549-2.9-.116-.765-.48-.93-.498-1.282-.134-.641.66-2.354.833-3.122.314-.618-.417-.715-.4-1.452.252-.85.755-1.952.892-3.043.379-.573-.27-.778-.223-1.268.282-.709.73-1.755 1.034-2.711.787-.542-.14-.856-.012-1.333.547-.343.402-1.016.809-1.496.904-.777.153-.941.057-1.502-.88zm7.911-5.549c.296-.67.258-.82-.327-1.31-.581-.485-.732-.503-1.252-.148-1.142.78-.771 2.216.572 2.216.453 0 .782-.247 1.007-.758m18.957.41c.466-.48.42-1.26-.105-1.802-.576-.594-.846-.573-1.516.118-.789.813-.285 2.016.85 2.027.238.003.585-.152.77-.343zm-9.644-.975c.525-.541.57-1.322.105-1.802-1.09-1.124-2.802.5-1.77 1.677.613.698 1.076.733 1.665.125"/><path d="M283.478 183.322c-.525-.908-.631-1.342-.427-1.736.308-.593-.103-1.655-.668-1.728-.762-.098-.945-.148-1.954-.536-.579-.222-1.052-.503-1.052-.625 0-.7 2.389-.936 2.785-.276.164.275.471.26 1.381-.063.644-.228 1.22-.333 1.28-.231.06.101.11.675.11 1.274 0 .775-.155 1.176-.534 1.385-.678.374-.67.596.057 1.548.738.968 1.374.571 1.374-.859q-.001-1.95 1.37-.592c.99.978 2.114.992 2.722.034q1.01-1.591-.995-1.593c-.758 0-1.36-.208-1.833-.631-.883-.792-.883-1.05-.002-1.395.386-.151.702-.408.702-.571s.189-.297.42-.297c.234 0 .421-.257.421-.578 0-.319.102-.58.227-.58s.345-.33.49-.732l.265-.734.907.661c.5.364.91.803.912.975.003.173.53.336 1.174.362s1.225.105 1.294.176.012.625-.126 1.23c-.202.88-.43 1.16-1.14 1.4-1.182.398-1.299.556-.933 1.261.8 1.541 2.278 1.33 2.99-.426.22-.544.458-.99.528-.99s.514.391.988.869c.979.987 1.943 1.112 2.621.339.837-.954.596-1.497-.665-1.497-.934 0-1.173-.12-1.385-.695-.141-.382-.39-.78-.554-.885-.564-.36-.313-1.024.387-1.024.376 0 .763-.13.858-.29.095-.158.426-.288.734-.288.317 0 .483-.132.382-.3-.1-.166.206-.709.679-1.207l.859-.906.707.787c.389.433.707.976.707 1.206s.253.42.561.42.561.13.561.289.316.29.702.29c.819 0 .846.15.277 1.555-.399.984-.502 1.048-1.684 1.048-1.036 0-1.259.095-1.259.534 0 .706.87 1.492 1.652 1.492.345 0 .991-.414 1.443-.924.899-1.015.953-1.002 1.63.394.553 1.145 1.746 1.444 2.595.651.726-.678.702-1.568-.044-1.568-.866 0-1.729-.568-1.558-1.026.082-.221.029-.48-.119-.573s-.268-.424-.268-.733c0-.434.208-.57.912-.596.501-.019 1.07-.013 1.262.013.193.026.351-.154.351-.4a.44.44 0 0 1 .43-.446c.236 0 .502-.196.59-.435.203-.544 1.224-.574 1.224-.035 0 .22.177.55.392.734.216.185.327.593.247.908-.11.438-.038.53.31.392.254-.1.454-.035.454.148 0 .18.316.451.702.602.858.337.862.515.032 1.486-.552.646-.824.742-1.777.629-1.293-.154-1.635.277-1.1 1.388.494 1.027 1.732 1.075 2.714.105.937-.926 1.393-.74 1.393.57 0 1.142.726 1.962 1.153 1.301.865-1.338.89-1.509.288-1.98-.483-.378-.558-.656-.416-1.55.161-1.018.23-1.083 1.057-.995.487.051 1.039.192 1.227.312.195.124.405.05.488-.172.24-.644 2.656-.365 2.656.307 0 .27-1.7 1.022-2.233.986-.225-.015-.65.105-.943.267-.432.238-.502.501-.368 1.366.132.85.02 1.294-.54 2.143-.88 1.335-1.825 1.42-2.888.257-.63-.689-.919-.796-1.885-.698-.923.094-1.31-.03-2.023-.649-.714-.62-.987-.707-1.435-.46-.886.49-2.26.356-3.165-.309-.697-.512-.953-.56-1.53-.289-.943.444-1.66.409-2.668-.13-.775-.413-.937-.413-1.782 0-1.1.54-1.83.573-2.775.129-.583-.274-.818-.227-1.454.29-.766.62-2.03.767-3.055.354-.378-.153-.855-.005-1.543.477-.725.508-1.262.664-1.977.574-.78-.098-1.173.047-1.904.7-1.331 1.191-2.12 1.089-2.973-.385zm7.963-5.156c.213-.41.213-.746 0-1.157-.53-1.021-2.244-.58-2.244.579s1.714 1.6 2.244.578m19.022.232c.492-.508.412-1.23-.201-1.801-.43-.4-.656-.437-1.122-.18-1.011.558-.603 2.328.537 2.328.247 0 .6-.156.786-.347m-9.716-1c.877-.818.48-2.125-.645-2.125-.517 0-1.367.732-1.367 1.178 0 .308 1.028 1.426 1.311 1.426.104 0 .42-.216.701-.48"/><path d="M283.556 183.471q-.636-1.06-.572-2.174c.062-1.09-.113-1.323-1.13-1.505-.796-.142-2.477-.884-2.477-1.094 0-.751 2.365-.911 2.825-.191.088.137.677.062 1.308-.168s1.221-.34 1.312-.246.166.662.166 1.263c0 .786-.167 1.214-.595 1.523l-.594.43.622.9c.497.72.701.833 1.015.564.217-.185.394-.769.394-1.297 0-1.301.408-1.467 1.43-.58 1.037.899 1.745.94 2.515.147.93-.959.605-1.56-.896-1.66-.953-.064-1.47-.28-1.961-.82-.661-.725-.662-.735-.106-1.133.308-.22.713-.535.9-.7.186-.164.47-.299.63-.299s.293-.2.293-.444c0-.356.406-1.198 1.024-2.121.128-.193 1.75 1.256 1.766 1.577.009.173.542.336 1.185.362s1.225.105 1.294.176.012.625-.126 1.23c-.201.88-.43 1.16-1.14 1.4-1.243.419-1.339.592-.797 1.445.376.592.665.73 1.37.66.718-.072.997-.304 1.41-1.174.282-.597.606-1.085.718-1.085s.568.39 1.012.868c.932 1.003 1.806 1.108 2.515.3.724-.825.363-1.458-.83-1.458-.795 0-1.05-.14-1.254-.695-.141-.382-.39-.78-.554-.885-.485-.309-.34-1.024.207-1.024.715 0 2.015-.664 2.018-1.03 0-.17.384-.686.85-1.147l.85-.839.694.772c.382.425.694.973.694 1.219 0 .25.24.446.545.446.3 0 .622.13.718.29s.418.29.718.29c.655 0 .67.195.12 1.555-.399.984-.502 1.048-1.684 1.048-1.423 0-1.648.467-.698 1.447.78.804 1.444.724 2.385-.29.444-.477.916-.867 1.049-.867s.42.44.638.977c.619 1.526 2.054 1.832 2.834.605.53-.835.431-1.01-.807-1.428-.711-.24-.94-.52-1.14-1.4-.139-.605-.196-1.159-.127-1.23s.651-.15 1.294-.176c.766-.031 1.169-.18 1.169-.434 0-.213.193-.386.43-.386.236 0 .502-.196.59-.434.203-.545 1.224-.575 1.224-.036 0 .22.182.554.405.745.222.19.335.531.25.758-.084.227-.008.413.169.413s.475.135.661.3.583.473.882.685c.53.378.526.407-.14 1.274-.578.75-.857.88-1.806.834s-1.135.04-1.207.56c-.1.73.614 1.556 1.346 1.556.286 0 .906-.335 1.377-.745 1.022-.886 1.43-.72 1.43.581 0 1.247.594 1.803 1.177 1.103.84-1.008.884-1.296.271-1.775-.49-.384-.566-.66-.423-1.556.161-1.018.23-1.083 1.057-.995.487.051 1.039.191 1.227.311.194.124.404.054.484-.161.263-.707 2.66-.43 2.66.307 0 .32-1.373.957-2.337 1.083-1.216.16-1.386.376-1.206 1.535.13.84.017 1.288-.541 2.134-.872 1.323-1.803 1.411-2.9.275-.623-.644-.98-.78-1.872-.71-.825.063-1.344-.099-2.055-.64-.717-.547-1.075-.656-1.454-.447-.862.476-2.384.315-3.188-.338-.636-.516-.872-.563-1.454-.289-.992.466-1.805.403-2.788-.215-.836-.526-.873-.526-1.504.001-.729.609-1.908.697-2.925.22-.572-.27-.825-.215-1.54.33-.722.55-1.081.626-2.281.48-1.134-.139-1.62-.055-2.384.41a3.34 3.34 0 0 1-2.01.493c-.84-.072-1.204.068-1.819.705-1.096 1.135-2.018 1.048-2.805-.265zm7.492-4.947c.473-.325.625-1.025.345-1.587-.345-.691-1.543-.646-1.916.073-.571 1.1.572 2.203 1.571 1.514m19.582-.43c.423-.694-.093-1.492-1.04-1.609-.59-.073-.77.057-.915.655-.345 1.414 1.213 2.175 1.955.955m-9.472-1.225c.218-.586-.405-1.595-.985-1.595-.836 0-1.537 1.001-1.182 1.686.165.318.46.637.654.709.454.168 1.325-.293 1.513-.8"/><path d="M283.556 183.471q-.636-1.06-.572-2.174c.062-1.09-.113-1.323-1.13-1.505-.796-.142-2.477-.884-2.477-1.094 0-.751 2.365-.911 2.825-.191.088.137.677.062 1.308-.168s1.221-.34 1.312-.246.166.662.166 1.263c0 .786-.167 1.214-.595 1.523l-.594.43.622.9c.497.72.701.833 1.015.564.217-.185.394-.769.394-1.297 0-1.301.408-1.467 1.43-.58 1.037.899 1.745.94 2.515.147.93-.959.605-1.56-.896-1.66-.953-.064-1.47-.28-1.961-.82-.661-.725-.662-.735-.106-1.133.308-.22.713-.535.9-.7.186-.164.47-.299.63-.299s.293-.2.293-.444c0-.356.406-1.198 1.024-2.121.128-.193 1.75 1.256 1.766 1.577.009.173.542.336 1.185.362s1.225.105 1.294.176.012.625-.126 1.23c-.201.88-.43 1.16-1.14 1.4-1.243.419-1.339.592-.797 1.445.376.592.665.73 1.37.66.718-.072.997-.304 1.41-1.174.282-.597.606-1.085.718-1.085s.568.39 1.012.868c.932 1.003 1.806 1.108 2.515.3.724-.825.363-1.458-.83-1.458-.795 0-1.05-.14-1.254-.695-.141-.382-.39-.78-.554-.885-.485-.309-.34-1.024.207-1.024.715 0 2.015-.664 2.018-1.03 0-.17.384-.686.85-1.147l.85-.839.694.772c.382.425.694.973.694 1.219 0 .25.24.446.545.446.3 0 .622.13.718.29s.418.29.718.29c.655 0 .67.195.12 1.555-.399.984-.502 1.048-1.684 1.048-1.423 0-1.648.467-.698 1.447.78.804 1.444.724 2.385-.29.444-.477.916-.867 1.049-.867s.42.44.638.977c.619 1.526 2.054 1.832 2.834.605.53-.835.431-1.01-.807-1.428-.711-.24-.94-.52-1.14-1.4-.139-.605-.196-1.159-.127-1.23s.651-.15 1.294-.176c.766-.031 1.169-.18 1.169-.434 0-.213.193-.386.43-.386.236 0 .502-.196.59-.434.203-.545 1.224-.575 1.224-.036 0 .22.182.554.405.745.222.19.335.531.25.758-.084.227-.008.413.169.413s.475.135.661.3.583.473.882.685c.53.378.526.407-.14 1.274-.578.75-.857.88-1.806.834s-1.135.04-1.207.56c-.1.73.614 1.556 1.346 1.556.286 0 .906-.335 1.377-.745 1.022-.886 1.43-.72 1.43.581 0 1.247.594 1.803 1.177 1.103.84-1.008.884-1.296.271-1.775-.49-.384-.566-.66-.423-1.556.161-1.018.23-1.083 1.057-.995.487.051 1.039.191 1.227.311.194.124.404.054.484-.161.263-.707 2.66-.43 2.66.307 0 .32-1.373.957-2.337 1.083-1.216.16-1.386.376-1.206 1.535.13.84.017 1.288-.541 2.134-.872 1.323-1.803 1.411-2.9.275-.623-.644-.98-.78-1.872-.71-.825.063-1.344-.099-2.055-.64-.717-.547-1.075-.656-1.454-.447-.862.476-2.384.315-3.188-.338-.636-.516-.872-.563-1.454-.289-.992.466-1.805.403-2.788-.215-.836-.526-.873-.526-1.504.001-.729.609-1.908.697-2.925.22-.572-.27-.825-.215-1.54.33-.722.55-1.081.626-2.281.48-1.134-.139-1.62-.055-2.384.41a3.34 3.34 0 0 1-2.01.493c-.84-.072-1.204.068-1.819.705-1.096 1.135-2.018 1.048-2.805-.265zm7.492-4.947c.473-.325.625-1.025.345-1.587-.345-.691-1.543-.646-1.916.073-.571 1.1.572 2.203 1.571 1.514m19.582-.43c.423-.694-.093-1.492-1.04-1.609-.59-.073-.77.057-.915.655-.345 1.414 1.213 2.175 1.955.955m-9.472-1.225c.218-.586-.405-1.595-.985-1.595-.836 0-1.537 1.001-1.182 1.686.165.318.46.637.654.709.454.168 1.325-.293 1.513-.8"/><path d="M283.556 183.471q-.636-1.06-.572-2.174c.062-1.09-.113-1.323-1.13-1.505-.796-.142-2.477-.884-2.477-1.094 0-.751 2.365-.911 2.825-.191.088.137.677.062 1.308-.168s1.221-.34 1.312-.246.166.662.166 1.263c0 .786-.167 1.214-.595 1.523l-.594.43.622.9c.497.72.701.833 1.015.564.217-.185.394-.769.394-1.297 0-1.301.408-1.467 1.43-.58 1.037.899 1.745.94 2.515.147.93-.959.605-1.56-.896-1.66-.953-.064-1.47-.28-1.961-.82-.661-.725-.662-.735-.106-1.133.308-.22.713-.535.9-.7.186-.164.47-.299.63-.299s.293-.2.293-.444c0-.356.406-1.198 1.024-2.121.128-.193 1.75 1.256 1.766 1.577.009.173.542.336 1.185.362s1.225.105 1.294.176.012.625-.126 1.23c-.201.88-.43 1.16-1.14 1.4-1.243.419-1.339.592-.797 1.445.376.592.665.73 1.37.66.718-.072.997-.304 1.41-1.174.282-.597.606-1.085.718-1.085s.568.39 1.012.868c.932 1.003 1.806 1.108 2.515.3.724-.825.363-1.458-.83-1.458-.795 0-1.05-.14-1.254-.695-.141-.382-.39-.78-.554-.885-.485-.309-.34-1.024.207-1.024.715 0 2.015-.664 2.018-1.03 0-.17.384-.686.85-1.147l.85-.839.694.772c.382.425.694.973.694 1.219 0 .25.24.446.545.446.3 0 .622.13.718.29s.418.29.718.29c.655 0 .67.195.12 1.555-.399.984-.502 1.048-1.684 1.048-1.423 0-1.648.467-.698 1.447.78.804 1.444.724 2.385-.29.444-.477.916-.867 1.049-.867s.42.44.638.977c.619 1.526 2.054 1.832 2.834.605.53-.835.431-1.01-.807-1.428-.711-.24-.94-.52-1.14-1.4-.139-.605-.196-1.159-.127-1.23s.651-.15 1.294-.176c.766-.031 1.169-.18 1.169-.434 0-.213.193-.386.43-.386.236 0 .502-.196.59-.434.203-.545 1.224-.575 1.224-.036 0 .22.182.554.405.745.222.19.335.531.25.758-.084.227-.008.413.169.413s.475.135.661.3.583.473.882.685c.53.378.526.407-.14 1.274-.578.75-.857.88-1.806.834s-1.135.04-1.207.56c-.1.73.614 1.556 1.346 1.556.286 0 .906-.335 1.377-.745 1.022-.886 1.43-.72 1.43.581 0 1.247.594 1.803 1.177 1.103.84-1.008.884-1.296.271-1.775-.49-.384-.566-.66-.423-1.556.161-1.018.23-1.083 1.057-.995.487.051 1.039.191 1.227.311.194.124.404.054.484-.161.263-.707 2.66-.43 2.66.307 0 .32-1.373.957-2.337 1.083-1.216.16-1.386.376-1.206 1.535.13.84.017 1.288-.541 2.134-.872 1.323-1.803 1.411-2.9.275-.623-.644-.98-.78-1.872-.71-.825.063-1.344-.099-2.055-.64-.717-.547-1.075-.656-1.454-.447-.862.476-2.384.315-3.188-.338-.636-.516-.872-.563-1.454-.289-.992.466-1.805.403-2.788-.215-.836-.526-.873-.526-1.504.001-.729.609-1.908.697-2.925.22-.572-.27-.825-.215-1.54.33-.722.55-1.081.626-2.281.48-1.134-.139-1.62-.055-2.384.41a3.34 3.34 0 0 1-2.01.493c-.84-.072-1.204.068-1.819.705-1.096 1.135-2.018 1.048-2.805-.265zm7.492-4.947c.473-.325.625-1.025.345-1.587-.345-.691-1.543-.646-1.916.073-.571 1.1.572 2.203 1.571 1.514m19.582-.43c.423-.694-.093-1.492-1.04-1.609-.59-.073-.77.057-.915.655-.345 1.414 1.213 2.175 1.955.955m-9.472-1.225c.218-.586-.405-1.595-.985-1.595-.836 0-1.537 1.001-1.182 1.686.165.318.46.637.654.709.454.168 1.325-.293 1.513-.8"/><path d="M284.318 184.457c-.236-.175-1.191-1.626-1.38-2.097-.104-.258-.095-.34.073-.68a2.1 2.1 0 0 0 .19-.765c0-.711-.794-1.338-1.518-1.198-.247.048-.444-.008-.948-.27-.35-.182-.663-.305-.694-.272s-.057.012-.057-.045-.134-.133-.299-.169a2 2 0 0 1-.374-.112c-.1-.06.286-.483.59-.647.26-.14 1.186-.238 1.186-.126 0 .118.312.146.533.047.175-.077.247-.053.414.137.111.127.213.335.227.462q.053.48.239.153c.2-.354.517-.633.633-.558.225.144.429.12.947-.117.29-.132.583-.218.651-.191.092.036.125.27.125.886 0 .483.043.882.101.942.18.186-.01.492-.59.945l-.604.473c-.122.096 1.169 1.834 1.362 1.834.085 0 .296-.151.47-.335.306-.326.315-.36.362-1.284.052-1.021.105-1.127.574-1.13.197 0 .329.11.622.52.205.285.502.588.66.672.435.232 1.281.203 1.692-.06.53-.337.682-.681.682-1.546v-.746l-.298.059c-.164.032-.763.085-1.331.118-1.028.06-1.033.06-1.116-.166-.045-.124-.066-.255-.046-.29.042-.075-.429-.438-.564-.434-.11.003-.318-.389-.32-.602-.002-.222.298-.464.745-.6.383-.116.472-.202.578-.555.044-.145.118-.16.513-.107.385.053.46.039.46-.087a.43.43 0 0 0-.117-.264c-.065-.063-.102-.248-.084-.413.026-.228.098-.324.302-.404.208-.08.268-.164.27-.373.002-.306.29-1.016.456-1.121.068-.043.277.097.538.359.236.236.594.507.796.603.33.157.37.214.394.554.043.618.076.656.378.433.317-.232.497-.247.653-.054.084.105.307.142.841.142.859 0 .931.08.678.749-.09.24-.168.511-.172.602-.004.092-.042.166-.084.166s-.05.147-.017.328c.054.296.031.345-.24.515a2.2 2.2 0 0 1-.653.25c-.194.034-.374.098-.402.144-.027.045-.11.058-.186.028s-.26-.001-.41.063c-.243.104-.274.163-.274.518 0 1.002 1.388 1.909 2.235 1.46.52-.274 1.074-1.001 1.074-1.41 0-.11.063-.325.14-.478.114-.227.2-.28.455-.28.266 0 .375.075.71.489.882 1.09 1.287 1.322 1.98 1.129.682-.19 1.319-.956 1.157-1.391-.038-.102-.025-.14.035-.102.082.052.21-.32.21-.611 0-.046-.49-.083-1.088-.083-.6 0-1.225-.048-1.39-.108-.275-.099-.295-.133-.248-.43.044-.28 0-.38-.358-.795-.516-.6-.54-.895-.09-1.09a1.8 1.8 0 0 1 .593-.137c.15 0 .299-.043.33-.096s.097-.072.144-.042.133-.055.192-.188c.126-.284.124-.284.629-.1.215.078.411.142.436.142s.017-.273-.018-.607c-.067-.643-.022-.738.353-.758.126-.006.301-.177.497-.484.608-.95.681-.968 1.06-.25.286.542.49.744.797.787.223.031.23.051.2.672-.018.352.003.638.045.637s.18-.065.307-.14c.267-.157.643-.184.643-.047 0 .189.374.474.62.475.406 0 .949.188 1.008.348.065.175-.173.63-.544 1.037-.23.252-.26.345-.209.628.057.31.041.34-.237.44-.163.058-.788.106-1.387.106h-1.09l.002.356c.001.498.377 1.278.747 1.55.25.184.423.227.907.227.732 0 1.043-.197 1.544-.98.319-.498.372-.539.735-.566.375-.028.398-.014.544.332.084.198.145.39.137.428-.035.148.341.895.553 1.096.474.453 1.419.538 1.9.172.56-.427 1.04-1.33.902-1.7-.031-.082-.274-.184-.587-.246-1.391-.276-1.719-.466-1.626-.945.036-.186-.028-.459-.203-.861-.347-.798-.282-.893.637-.929.387-.015.703-.067.703-.115s.076-.13.169-.18c.13-.072.247-.036.506.154.185.136.357.227.381.202s.006-.182-.04-.348-.048-.301-.005-.301.093-.095.109-.211c.023-.163.115-.228.41-.288.3-.061.43-.155.617-.445.453-.706.815-.587 1.157.379.156.442.249.576.432.624.197.05.225.1.179.309-.03.136-.082.391-.114.567l-.06.318.382-.066c.323-.056.39-.04.434.108.11.364.206.458.463.458.146 0 .286.026.312.058.025.032.182.13.35.219.474.25.46.384-.11 1-.353.382-.516.635-.516.802 0 .224-.032.244-.39.243-.216 0-.784-.061-1.263-.135-.973-.15-1.054-.124-1.145.375-.166.914.539 1.88 1.42 1.945.717.053.812.012 1.522-.667.686-.656 1.04-.817 1.202-.547.039.064.096.518.127 1.008.04.638.097.921.197.997.078.058.137.144.132.19s.106.174.247.282c.197.152.292.174.413.097.18-.116.866-1.091.809-1.15-.021-.022.04-.121.138-.221.27-.28.218-.411-.335-.841-.628-.49-.782-.779-.552-1.04.126-.145.157-.331.142-.878-.01-.382-.013-.744-.008-.806.01-.124.268-.064.875.205.241.107.466.139.683.097.295-.057.35-.03.62.3l.294.363.103-.392c.135-.517.314-.669.64-.542.138.054.33.065.43.025.526-.213 1.29-.033 1.765.416.278.262.26.351-.069.351-.151 0-.275.045-.275.1s-.04.076-.09.044c-.117-.075-.812.29-1.123.59-.185.178-.306.224-.482.179l-.466-.118c-.345-.088-.738.125-1.007.543-.347.54-.376.83-.14 1.394l.203.486-.281.514c-.155.282-.256.54-.225.571.03.032.015.058-.036.058s-.251.24-.446.531c-.196.292-.45.595-.564.673-.6.405-1.964-.434-2.655-1.633-.086-.15-.13-.153-.437-.04-.187.07-.34.154-.34.185s-.321.053-.713.05c-.927-.01-1.63-.329-2.247-1.019l-.434-.484-.579.323c-.528.296-.645.324-1.36.324-.936 0-1.401-.203-2.072-.905l-.432-.453-.639.345c-.51.274-.767.351-1.267.38-.883.052-1.208-.078-2.437-.973-.088-.064-.23.01-.493.255-.995.927-2.192 1.033-3.35.297l-.534-.339-.5.488c-.276.269-.733.598-1.017.732-.707.334-1.49.283-2.337-.15l-.594-.305-.535.536c-.713.713-1.202.934-2.11.954-.532.012-.797-.027-1.042-.156-.371-.195-.554-.16-.64.122-.101.327-.789 1.025-1.246 1.264-.604.315-1.082.378-1.354.177m6.765-5.878c1-.675.528-2.316-.667-2.316-.292 0-.417.072-.793.46-.47.485-.535.71-.348 1.216.117.32.429.683.683.797.238.108.862.02 1.125-.157m19.365-.13c.148-.153.277-.355.287-.45.01-.094.052-.255.093-.356.047-.113.038-.197-.023-.218-.054-.018-.078-.117-.052-.219.033-.128-.065-.3-.32-.564-.314-.323-.426-.38-.759-.38-1.304 0-1.731 1.657-.614 2.38.413.268 1.023.183 1.388-.193m-9.931-.8c.459-.198.676-.543.688-1.094.012-.539-.208-.889-.746-1.187-.665-.37-1.47.116-1.592.963-.043.292-.03.456.035.479.055.018.08.087.056.153-.057.152.297.619.55.724.293.122.67.108 1.009-.038"/><path d="M284.318 184.457c-.236-.175-1.191-1.626-1.38-2.097-.104-.258-.095-.34.073-.68a2.1 2.1 0 0 0 .19-.765c0-.711-.794-1.338-1.518-1.198-.241.047-.435-.004-.856-.223-.3-.156-.57-.257-.602-.225s-.057.013-.057-.044-.155-.153-.345-.213-.402-.128-.473-.152c-.16-.053.186-.462.563-.664.27-.145 1.174-.24 1.174-.122 0 .12.31.149.533.05.175-.078.247-.054.414.136.111.127.213.335.227.462q.053.48.239.153c.22-.389.527-.65.635-.538.155.16.358.13.942-.136.291-.133.586-.22.654-.192.092.036.125.27.125.886 0 .483.043.882.101.942.18.186-.01.492-.59.945l-.605.473c-.121.096 1.17 1.834 1.363 1.834.085 0 .296-.151.47-.335.305-.326.315-.36.362-1.284.052-1.021.105-1.127.574-1.13.197 0 .328.11.622.52.463.645.771.816 1.484.82.444.001.625-.046.912-.242.486-.332.611-.633.632-1.513l.017-.746-.304.059c-.167.033-.768.086-1.336.12-1.028.06-1.033.059-1.116-.167-.045-.124-.066-.255-.046-.29s-.089-.156-.24-.267c-.153-.112-.278-.176-.278-.143 0 .165-.285-.262-.33-.495-.065-.335.156-.563.71-.73.382-.117.471-.203.577-.556.044-.145.118-.16.513-.107.385.053.46.039.46-.087a.43.43 0 0 0-.117-.264c-.065-.063-.102-.248-.084-.413.026-.228.098-.324.302-.404.208-.08.268-.164.27-.373.002-.306.29-1.016.456-1.121.068-.043.277.097.538.359.236.236.594.507.796.603.33.157.37.214.394.554.043.618.076.656.378.433.317-.232.497-.247.653-.054.084.105.307.142.841.142.859 0 .931.08.678.749-.09.24-.168.511-.172.602-.004.092-.042.166-.084.166s-.05.147-.017.328c.054.294.03.345-.231.51-.16.1-.547.233-.86.297-.998.202-1.074.253-1.074.711 0 1.001 1.388 1.909 2.235 1.46.52-.274 1.074-1.001 1.074-1.41 0-.11.063-.325.14-.478.114-.227.2-.28.455-.28.266 0 .375.075.71.489.884 1.093 1.287 1.322 1.986 1.128.61-.17.997-.585 1.212-1.304.28-.938.338-.882-.904-.882-.6 0-1.225-.048-1.39-.108-.275-.099-.295-.133-.248-.43.044-.28 0-.38-.358-.795-.674-.783-.517-1.098.63-1.269.346-.051.465-.116.544-.296.119-.269.209-.28.656-.088.181.078.357.142.39.142.032 0 .03-.273-.004-.607-.067-.643-.022-.738.353-.758.126-.006.301-.177.497-.484.608-.95.681-.968 1.06-.25.286.542.49.744.797.787.223.031.23.051.199.672-.017.352.004.638.046.637s.18-.065.307-.14c.347-.204.6-.173.715.087.11.248.211.293.858.384.854.119.923.443.263 1.217-.33.386-.368.478-.316.762.054.3.037.33-.239.43-.163.059-.788.107-1.387.107h-1.09l.002.356c.001.497.377 1.278.747 1.55.25.184.423.227.906.227.733 0 1.043-.197 1.545-.98.319-.498.372-.539.735-.566.375-.028.398-.014.544.332.084.198.145.39.137.428-.035.148.341.895.553 1.096.474.453 1.419.538 1.9.172.56-.427 1.04-1.33.902-1.7-.031-.082-.274-.184-.587-.247-1.391-.275-1.719-.465-1.626-.944.036-.186-.028-.459-.203-.861-.347-.798-.282-.893.637-.929.387-.015.703-.067.703-.115s.076-.13.169-.18c.13-.072.247-.036.506.154.185.136.357.227.381.202s.006-.182-.04-.348-.048-.301-.005-.301.093-.096.109-.213c.017-.126.104-.224.213-.24.48-.075.587-.139.81-.486.457-.711.818-.595 1.16.374.157.442.25.576.433.624.196.05.225.1.179.309-.03.136-.082.391-.114.567l-.06.318.382-.066c.322-.056.39-.04.434.108.11.364.205.458.463.458.146 0 .286.026.312.058.025.032.182.13.35.219.474.25.464.393-.068.949-.435.454-.53.623-.551.979q-.016.236-1.66-.018c-.973-.15-1.054-.124-1.145.375-.166.914.538 1.88 1.42 1.945.717.053.812.012 1.522-.667.686-.656 1.04-.817 1.202-.547.039.064.095.508.126.986.047.748.09.916.303 1.204.312.423.57.515.81.29.213-.2 1-1.475 1-1.622 0-.054-.23-.278-.51-.496-.63-.49-.783-.779-.553-1.04.126-.145.157-.331.142-.878-.01-.382-.014-.744-.008-.806.01-.124.268-.064.875.205q.359.16.683.097c.295-.057.35-.03.62.3l.294.363.103-.392c.135-.517.314-.669.64-.542.138.054.33.065.43.025.542-.219 1.418.008 1.826.473.211.241.197.26-.248.333-.427.069-1.154.44-1.39.71-.2.227-.335.244-.746.09-.584-.217-1.212.2-1.43.95-.104.358-.095.45.092.916l.208.517-.325.6c-.502.925-1.133 1.76-1.378 1.824-.576.149-1.73-.534-2.254-1.335-.335-.512-.348-.515-1.116-.282-.983.3-2.094-.058-2.868-.92l-.434-.485-.578.323c-.529.296-.645.324-1.36.324-.936 0-1.402-.203-2.072-.905l-.432-.453-.64.345c-.509.274-.766.351-1.266.38-.883.052-1.208-.078-2.438-.973-.087-.064-.229.01-.492.255-.995.927-2.193 1.033-3.35.297l-.534-.339-.5.488c-.276.269-.733.598-1.017.732-.707.334-1.49.283-2.337-.15l-.595-.305-.534.536c-.713.713-1.202.934-2.11.955-.532.011-.797-.028-1.042-.157-.371-.195-.554-.16-.64.122-.102.327-.79 1.025-1.247 1.264-.603.315-1.082.378-1.353.177zm6.765-5.878c1-.675.528-2.316-.667-2.316-.292 0-.417.072-.793.46-.47.485-.535.71-.348 1.216.117.32.429.683.683.797.238.108.862.02 1.125-.157m19.365-.13c.148-.153.277-.355.287-.45.01-.094.052-.255.093-.356.047-.113.038-.197-.023-.218-.054-.018-.078-.117-.052-.219.033-.128-.065-.3-.32-.564-.314-.323-.426-.38-.759-.38-1.304 0-1.731 1.657-.614 2.38.413.268 1.023.183 1.388-.193m-9.939-.798c.483-.211.654-.482.678-1.072.02-.48-.004-.552-.272-.826-.618-.631-1.193-.681-1.71-.148-.293.302-.503 1.136-.303 1.205.055.018.08.087.056.153-.057.152.297.619.55.724.292.122.67.108 1.001-.036"/></g><g fill="#04a"><path d="M292.462 212.92c-.63-.72-1.14-1.313-1.136-1.317.017-.018 2.026 2.207 2.261 2.504.057.073.07.12.032.12-.007 0-.527-.588-1.157-1.308M284.183 191.463c4.87-.003 12.833-.003 17.695 0 4.863.003.878.005-8.854.005s-13.711-.002-8.84-.005zM284.16 191.354c4.87-.003 12.837-.003 17.706 0 4.87.003.886.006-8.853.006s-13.722-.003-8.853-.006z"/></g><path fill="#00a" d="M324.546 203.679c.003-1.133.011-3.6.02-5.482l.014-3.423.003 5.482c.002 4.375-.002 5.483-.02 5.483s-.021-.422-.017-2.06z"/></svg>