<svg xmlns="http://www.w3.org/2000/svg" width="652" height="446" viewBox="0 0 326 223"><path d="M0 0h326v223H0z" style="fill:#039"/><circle cx="163" cy="116.5" r="15.5" style="fill:none;stroke:#fc0;stroke-width:14"/><circle cx="163" cy="116.5" r="45" style="fill:none;stroke:#fc0;stroke-width:14"/><path d="M175.633 86h61v61h-61z" style="fill:#039" transform="rotate(45.001 206.133 116.5)"/><path d="M89.5 109.5h30.167v14H89.5zM221.5 109.5h45v14h-45z" style="fill:#fc0"/><path d="M185.784 72.795h27.897v14.001h-27.897z" style="fill:#fc0" transform="rotate(-45.001 199.733 79.796)"/><path d="M156 14h14v54.558h-14z" style="fill:#fc0"/><circle cx="114.667" cy="70.559" r="7" style="fill:#fc0"/><circle cx="73.5" cy="116.501" r="7" style="fill:#fc0"/><circle cx="163" cy="183.501" r="7" style="fill:#fc0"/><circle cx="163" cy="206.001" r="7" style="fill:#fc0"/><circle cx="208" cy="116.5" r="7" style="fill:#fc0"/><path d="M109.001 156.225h14v14h-14z" style="fill:#fc0" transform="rotate(-45 116 163.225)"/><path d="M213.334 166.891h14.001v13.999h-14.001z" style="fill:#fc0" transform="rotate(-44.997 220.334 173.89)"/></svg>