<svg xmlns="http://www.w3.org/2000/svg" xmlns:xlink="http://www.w3.org/1999/xlink" width="600" height="330" version="1.0"><path id="a" d="M0 224.4h600v14.85H0z" style="fill:#fff;fill-opacity:1;fill-rule:nonzero;stroke:none;stroke-width:2.5;stroke-miterlimit:4;stroke-dasharray:none;stroke-opacity:1"/><use xlink:href="#a" width="600" height="330" transform="translate(0 -133.65)"/><path id="b" d="M0 239.25h600V330H0z" style="fill:#0087ff;fill-opacity:1;fill-rule:nonzero;stroke:none;stroke-width:2.5;stroke-miterlimit:4;stroke-dasharray:none;stroke-opacity:1"/><use xlink:href="#b" width="600" height="330" transform="translate(0 -239.25)"/><path d="M0 199.65h600v24.75H0z" style="fill:red;fill-opacity:1;fill-rule:nonzero;stroke:none;stroke-width:2.5;stroke-miterlimit:4;stroke-dasharray:none;stroke-opacity:1"/><path d="M0 105.6h600v24.75H0z" style="fill:#000;fill-opacity:1;fill-rule:nonzero;stroke:none;stroke-width:2.5;stroke-miterlimit:4;stroke-dasharray:none;stroke-opacity:1"/><path d="M0 141.9h600v46.2H0z" style="fill:#ff0;fill-opacity:1;fill-rule:nonzero;stroke:none;stroke-width:2.5;stroke-miterlimit:4;stroke-dasharray:none;stroke-opacity:1"/><path id="c" d="M0 188.1h600v11.55H0z" style="fill:#008300;fill-opacity:1;fill-rule:nonzero;stroke:none;stroke-width:2.5;stroke-miterlimit:4;stroke-dasharray:none;stroke-opacity:1"/><use xlink:href="#c" width="600" height="330" transform="translate(0 -57.75)"/><g transform="matrix(.6 0 0 .6 108.27 463.793)"><path d="M319.563-589.539c-44.121 0-79.949 35.828-79.949 79.95 0 22.01 8.916 41.94 23.327 56.399l-34.236 10.933 3.142 7.867-11.033 2.35 7.891 25.602H410.42l7.867-25.602-11.033-2.35 3.166-7.867-34.26-10.933c14.41-14.46 23.327-34.389 23.327-56.4 0-44.12-35.803-79.949-79.924-79.949z" style="fill:#fff;fill-opacity:1;fill-rule:nonzero;stroke:#000;stroke-width:1.97893;stroke-miterlimit:4;stroke-opacity:1"/><path d="m230.522-431.563 6.942 22.523h164.194l6.92-22.523z" style="fill:#008300;fill-opacity:1;fill-rule:nonzero;stroke:none;stroke-width:.791572"/><path d="m234.852-428.663 5.145 16.722h159.106l5.146-16.722H275.395z" style="fill:#fff;fill-opacity:1;fill-rule:nonzero;stroke:none;stroke-width:.791572"/><g aria-label="JUMUIYA YA AFRIKA MASHARIKI" style="font-weight:700;font-size:52.1213px;font-family:&quot;Times New Roman&quot;;stroke-width:3.86792"><path d="M140.811 811.265q0 2.658-.625 5.004-.574 2.345-2.085 4.117-1.46 1.72-4.013 2.763-2.502.99-6.36.99-3.544 0-6.097-.834-2.554-.886-4.222-2.033l2.71-6.306q1.512.886 3.232 1.563 1.72.678 3.752.678 2.971 0 4.274-1.46t1.303-4.899v-23.559h8.131zM162.754 824.139q-3.805 0-6.567-1.043-2.763-1.094-4.587-2.97-1.772-1.929-2.658-4.535-.834-2.658-.834-5.838V787.29h8.131v21.787q0 2.189.47 3.753.52 1.511 1.354 2.501.886.939 2.085 1.356 1.251.416 2.71.416 2.971 0 4.796-1.824 1.876-1.824 1.876-6.202v-21.787h8.13v22.464q0 3.18-.885 5.838-.886 2.658-2.71 4.587-1.825 1.876-4.64 2.918t-6.67 1.043M195.07 787.29q.938 1.72 2.136 4.273 1.251 2.502 2.554 5.473 1.355 2.919 2.658 5.994l2.45 5.785 2.45-5.785q1.303-3.075 2.606-5.994 1.355-2.971 2.554-5.473 1.25-2.554 2.189-4.274h7.401q.521 3.596.938 8.079.47 4.43.782 9.278.365 4.795.626 9.642.312 4.847.52 9.121h-7.922q-.156-5.264-.417-11.467-.26-6.202-.781-12.509-.939 2.19-2.085 4.848l-2.294 5.316q-1.094 2.658-2.137 5.108-1.042 2.397-1.772 4.118h-5.68q-.73-1.72-1.773-4.118-1.042-2.45-2.19-5.108-1.094-2.658-2.24-5.316t-2.085-4.848q-.521 6.307-.782 12.51-.26 6.202-.417 11.466h-7.922q.208-4.274.469-9.121.312-4.847.625-9.642.365-4.848.782-9.278.47-4.483.99-8.079zM246.357 824.139q-3.805 0-6.568-1.043-2.762-1.094-4.586-2.97-1.772-1.929-2.658-4.535-.834-2.658-.834-5.838V787.29h8.13v21.787q0 2.189.47 3.753.52 1.511 1.355 2.501.886.939 2.085 1.356 1.25.416 2.71.416 2.97 0 4.795-1.824 1.876-1.824 1.876-6.202v-21.787h8.131v22.464q0 3.18-.886 5.838t-2.71 4.587q-1.824 1.876-4.639 2.918-2.814 1.043-6.671 1.043M269.081 787.29h8.131v36.12h-8.13zM298.79 802.144q2.19-3.7 4.17-7.402 1.98-3.7 3.649-7.453h8.965q-2.971 5.838-6.15 11.31t-6.724 10.998v13.812h-8.131v-13.708q-3.544-5.525-6.776-11.05-3.18-5.524-6.15-11.362h9.434q1.668 3.753 3.596 7.453t4.118 7.402M338.976 823.41q-.573-1.877-1.303-3.858l-1.355-3.961h-14.073q-.677 1.98-1.407 3.961-.678 1.98-1.251 3.857h-8.444q2.033-5.837 3.857-10.789 1.825-4.951 3.545-9.33 1.772-4.378 3.44-8.287 1.72-3.961 3.544-7.714h7.766q1.772 3.753 3.492 7.714 1.72 3.91 3.44 8.287 1.772 4.379 3.596 9.33t3.857 10.79zm-9.747-27.938q-.26.782-.781 2.137-.522 1.355-1.2 3.127-.677 1.773-1.51 3.91-.783 2.136-1.616 4.482h10.267q-.834-2.346-1.615-4.482-.782-2.137-1.512-3.91-.677-1.772-1.199-3.127-.52-1.355-.834-2.137M378.12 802.144q2.188-3.7 4.169-7.402 1.98-3.7 3.648-7.453h8.965q-2.97 5.838-6.15 11.31t-6.724 10.998v13.812h-8.13v-13.708q-3.545-5.525-6.776-11.05-3.18-5.524-6.15-11.362h9.433q1.668 3.753 3.597 7.453 1.928 3.701 4.117 7.402M418.305 823.41q-.574-1.877-1.303-3.858l-1.356-3.961h-14.072q-.678 1.98-1.408 3.961-.677 1.98-1.25 3.857h-8.444q2.033-5.837 3.857-10.789 1.824-4.951 3.544-9.33 1.772-4.378 3.44-8.287 1.72-3.961 3.544-7.714h7.766q1.773 3.753 3.493 7.714 1.72 3.91 3.44 8.287 1.772 4.379 3.596 9.33t3.857 10.79zm-9.747-27.938q-.26.782-.782 2.137-.521 1.355-1.199 3.127-.677 1.773-1.511 3.91-.782 2.136-1.616 4.482h10.268q-.834-2.346-1.616-4.482t-1.511-3.91q-.678-1.772-1.2-3.127-.52-1.355-.833-2.137M468.393 823.41q-.573-1.877-1.303-3.858l-1.355-3.961h-14.073q-.677 1.98-1.407 3.961-.678 1.98-1.251 3.857h-8.444q2.033-5.837 3.857-10.789 1.825-4.951 3.545-9.33 1.772-4.378 3.44-8.287 1.72-3.961 3.544-7.714h7.766q1.772 3.753 3.492 7.714 1.72 3.91 3.44 8.287 1.772 4.379 3.596 9.33t3.857 10.79zm-9.747-27.938q-.26.782-.781 2.137-.522 1.355-1.2 3.127-.677 1.773-1.51 3.91-.783 2.136-1.616 4.482h10.267q-.834-2.346-1.615-4.482-.782-2.137-1.512-3.91-.677-1.772-1.199-3.127-.52-1.355-.834-2.137M481.788 823.41v-36.12h24.184v6.827H489.92v7.558H504.2v6.827h-14.28v14.907zM522.286 786.872q8.131 0 12.457 2.919 4.326 2.867 4.326 8.965 0 3.805-1.772 6.202-1.72 2.346-5.003 3.7 1.094 1.356 2.293 3.128 1.199 1.72 2.346 3.649 1.198 1.876 2.293 3.96 1.094 2.034 2.033 4.014h-9.122q-.99-1.772-2.032-3.596-.99-1.824-2.085-3.544-1.043-1.72-2.085-3.232-1.043-1.564-2.085-2.815h-4.013v13.187h-8.131V787.81q2.658-.52 5.473-.73 2.866-.208 5.107-.208m.47 6.932q-.887 0-1.616.052-.678.052-1.303.105v9.798h2.293q4.587 0 6.567-1.146 1.98-1.147 1.98-3.91 0-2.658-2.032-3.752-1.98-1.147-5.89-1.147M546.47 787.29h8.132v36.12h-8.131zM584.259 823.41q-1.095-1.773-2.606-3.806-1.46-2.085-3.232-4.117-1.72-2.085-3.596-3.961-1.877-1.929-3.753-3.388v15.271h-8.131v-36.12h8.13v13.656q3.18-3.336 6.36-6.932 3.231-3.649 5.994-6.724h9.642q-3.7 4.378-7.453 8.444-3.7 4.065-7.818 8.183 4.326 3.596 8.339 8.548 4.065 4.951 7.766 10.945zM624.08 823.41q-.574-1.877-1.304-3.858l-1.355-3.961h-14.073q-.677 1.98-1.407 3.961-.678 1.98-1.25 3.857h-8.445q2.033-5.837 3.857-10.789 1.825-4.951 3.545-9.33 1.772-4.378 3.44-8.287 1.72-3.961 3.544-7.714h7.766q1.772 3.753 3.492 7.714 1.72 3.91 3.44 8.287 1.772 4.379 3.596 9.33t3.857 10.79zm-9.747-27.938q-.261.782-.782 2.137-.522 1.355-1.2 3.127-.677 1.773-1.51 3.91-.782 2.136-1.616 4.482h10.268q-.834-2.346-1.616-4.482t-1.512-3.91q-.677-1.772-1.199-3.127-.52-1.355-.833-2.137M659.574 787.29q.938 1.72 2.137 4.273 1.25 2.502 2.554 5.473 1.355 2.919 2.658 5.994l2.45 5.785q1.146-2.71 2.45-5.785 1.302-3.075 2.605-5.994 1.355-2.971 2.554-5.473 1.251-2.554 2.19-4.274h7.4q.522 3.596.939 8.079.469 4.43.782 9.278.364 4.795.625 9.642.313 4.847.521 9.121h-7.922q-.157-5.264-.417-11.467-.26-6.202-.782-12.509-.938 2.19-2.085 4.848l-2.293 5.316q-1.095 2.658-2.137 5.108-1.043 2.397-1.772 4.118h-5.681q-.73-1.72-1.773-4.118-1.042-2.45-2.189-5.108-1.094-2.658-2.24-5.316-1.148-2.659-2.086-4.848-.521 6.307-.782 12.51-.26 6.202-.417 11.466h-7.922q.208-4.274.47-9.121.312-4.847.625-9.642.364-4.848.781-9.278.47-4.483.99-8.079zM720.92 823.41q-.573-1.877-1.303-3.858l-1.355-3.961H704.19q-.678 1.98-1.408 3.961-.677 1.98-1.25 3.857h-8.444q2.032-5.837 3.857-10.789 1.824-4.951 3.544-9.33 1.772-4.378 3.44-8.287 1.72-3.961 3.544-7.714h7.766q1.772 3.753 3.492 7.714 1.72 3.91 3.44 8.287 1.772 4.379 3.597 9.33t3.857 10.79zm-9.746-27.938q-.26.782-.782 2.137-.521 1.355-1.199 3.127-.677 1.773-1.511 3.91-.782 2.136-1.616 4.482h10.268q-.834-2.346-1.616-4.482t-1.512-3.91q-.677-1.772-1.198-3.127-.522-1.355-.834-2.137M745.157 817.207q1.72 0 2.814-.26 1.147-.314 1.825-.783.677-.52.938-1.198t.26-1.512q0-1.772-1.668-2.919-1.667-1.199-5.733-2.554-1.772-.625-3.544-1.407-1.772-.834-3.18-2.033-1.407-1.25-2.293-2.97-.886-1.773-.886-4.275 0-2.501.938-4.482.938-2.033 2.658-3.44t4.17-2.137q2.45-.782 5.525-.782 3.648 0 6.307.782 2.658.782 4.378 1.72l-2.346 6.41q-1.511-.78-3.388-1.354-1.824-.626-4.43-.626-2.919 0-4.222.834-1.25.782-1.25 2.45 0 .99.469 1.668t1.303 1.25q.886.522 1.98.991 1.147.417 2.502.886 2.815 1.043 4.9 2.085 2.084.99 3.44 2.345 1.407 1.356 2.084 3.18.678 1.824.678 4.43 0 5.056-3.544 7.87-3.545 2.763-10.685 2.763-2.398 0-4.326-.313-1.929-.26-3.44-.677-1.46-.417-2.554-.886-1.043-.47-1.772-.887l2.293-6.463q1.616.886 3.961 1.616 2.398.678 5.838.678M787.427 787.29h8.131v36.12h-8.131v-15.324h-13.656v15.323h-8.13v-36.12h8.13v13.812h13.656zM828.082 823.41q-.574-1.877-1.303-3.858l-1.356-3.961h-14.072q-.678 1.98-1.408 3.961-.677 1.98-1.25 3.857h-8.444q2.033-5.837 3.857-10.789 1.824-4.951 3.544-9.33 1.772-4.378 3.44-8.287 1.72-3.961 3.544-7.714h7.766q1.773 3.753 3.493 7.714 1.72 3.91 3.44 8.287 1.772 4.379 3.596 9.33t3.857 10.79zm-9.747-27.938q-.26.782-.782 2.137-.521 1.355-1.199 3.127-.677 1.773-1.511 3.91-.782 2.136-1.616 4.482h10.268q-.834-2.346-1.616-4.482t-1.511-3.91q-.678-1.772-1.2-3.127-.52-1.355-.833-2.137M852.057 786.872q8.131 0 12.457 2.919 4.326 2.867 4.326 8.965 0 3.805-1.772 6.202-1.72 2.346-5.003 3.7 1.094 1.356 2.293 3.128 1.199 1.72 2.345 3.649 1.2 1.876 2.294 3.96 1.094 2.034 2.033 4.014h-9.122q-.99-1.772-2.032-3.596-.99-1.824-2.085-3.544-1.043-1.72-2.085-3.232-1.043-1.564-2.085-2.815h-4.013v13.187h-8.131V787.81q2.658-.52 5.472-.73 2.867-.208 5.108-.208m.47 6.932q-.887 0-1.616.052-.678.052-1.303.105v9.798h2.293q4.587 0 6.567-1.146 1.98-1.147 1.98-3.91 0-2.658-2.032-3.752-1.98-1.147-5.89-1.147M876.242 787.29h8.13v36.12h-8.13zM914.03 823.41q-1.095-1.773-2.606-3.806-1.46-2.085-3.232-4.117-1.72-2.085-3.596-3.961-1.877-1.929-3.753-3.388v15.271h-8.131v-36.12h8.13v13.656q3.18-3.336 6.36-6.932 3.231-3.649 5.994-6.724h9.642q-3.7 4.378-7.453 8.444-3.7 4.065-7.818 8.183 4.326 3.596 8.339 8.548 4.065 4.951 7.766 10.945zM928.363 787.29h8.13v36.12h-8.13z" style="-inkscape-font-specification:&quot;Ubuntu Bold&quot;" transform="matrix(.18901 0 0 .21163 219.55 -590.528)"/></g><g id="d"><path d="m52.112-129.617 13.129-3.518-4.147-7.183 22.63-8.468v7.694h6.99v11.827H52.64Z" style="fill:#008300;fill-opacity:1;fill-rule:evenodd;stroke:none" transform="translate(189.272 -328.954)scale(.79157)"/><path d="M87.404-129.441H59.88l27.523-7.382zM81.424-140.96H68.938l12.486-4.836zM65.157-138.85l2.817 4.973 18.316-4.973z" style="fill:#fff;fill-opacity:1;fill-rule:evenodd;stroke:none" transform="translate(189.272 -328.954)scale(.79157)"/></g><use xlink:href="#d" width="600" height="330" transform="matrix(-1 0 0 1 639.1 0)"/><path d="M317.745-580.034c-38.197.966-68.917 32.294-68.917 70.722 0 30.011 18.722 55.666 45.12 65.923v-7.817c-22.302-9.847-37.872-32.172-37.872-58.106 0-34.904 28.202-63.278 63.054-63.5h.42c35.04 0 63.475 28.46 63.475 63.5 0 25.934-15.57 48.26-37.872 58.106v7.817c26.398-10.257 45.12-35.912 45.12-65.923 0-39.036-31.686-70.722-70.723-70.722-.457 0-.905-.01-1.36 0-.15.003-.296-.004-.445 0z" style="fill:#ff0;fill-opacity:1;fill-rule:nonzero;stroke:#000;stroke-width:1.18735;stroke-miterlimit:4;stroke-dasharray:none;stroke-opacity:1"/><path d="m710.624-118.656.132 13.223c-8.066 1.19-17.059 9.654-19.439 11.24s-6.435 4.712-8.55 4.451c-3.569-.44-.932-3.326-.932-3.326s-2.465 2.896-4.367 1.59c-1.688-1.158 1.023-3.459 1.023-3.459s-.895 1.235-2.761.734c-1.746-.468-.483-2.647-.483-2.647s-4.89 2.564-5.614 1.732c-1.436-1.652.352-3.172.352-3.172l11.282-9.523s-7.293 2.732 0 0c6.283-2.354 7.934.926 10.844.794 2.909-.133 10.71-4.364 12.827-6.48 2.115-2.116 1.586-4.364 3.173-4.893s2.38-.397 2.513-.264z" style="fill:#fff;fill-opacity:1;fill-rule:evenodd;stroke:#000;stroke-width:1.0634px;stroke-linecap:butt;stroke-linejoin:miter;stroke-opacity:1" transform="translate(-223.459 -364.275)scale(.79157)"/><path d="m661.313-117.816-.124 12.436c7.585 1.119 16.041 9.077 18.28 10.57 2.238 1.492 5.968 3.851 7.958 3.606 3.355-.414 2.68-1.641 2.68-1.641s1.488.743 3.46.009c1.98-.738 1.008-2.14 1.008-2.14s2.932.86 4.293-.705c1.35-1.553-1.143-3.102-1.143-3.102s1.11-.768-.88.351c-1.99 1.12-6.06-3.59-10.164-3.715s-4.477 3.98-7.088 1.99c-2.612-1.99 2.154-5.204 3.73-5.72 6.497-2.132 12.478.507 4.63-2.445-4.018-1.589-7.11 1.31-9.846 1.186s-9.457-3.84-11.447-5.83-1.492-4.104-2.984-4.601c-1.493-.497-2.239-.373-2.363-.249z" style="fill:#fff;fill-opacity:1;fill-rule:evenodd;stroke:#000;stroke-width:1px;stroke-linecap:butt;stroke-linejoin:miter;stroke-opacity:1" transform="translate(-223.459 -364.275)scale(.79157)"/><path d="m694.701-95.016-5.363-2.33M690.657-92.554l-6.331-3.913" style="fill:none;stroke:#000;stroke-width:1px;stroke-linecap:butt;stroke-linejoin:miter;stroke-opacity:1" transform="translate(-223.459 -364.275)scale(.79157)"/><g id="e" style="stroke:#000;stroke-width:.517473;stroke-miterlimit:4;stroke-dasharray:none;stroke-opacity:1"><path d="M441.66-108.673c-16.122 7.874-16.877-12.698-24.322-12.53 13.74-9.1 11.577 7.857 24.322 12.53zM435.335-131.3c-8.229 14.846 10.788 16.806 10.202 23.872 9.226-12.509-6.61-11.478-10.202-23.873z" style="fill:#008300;fill-opacity:1;fill-rule:evenodd;stroke:#000;stroke-width:.517473;stroke-linecap:butt;stroke-linejoin:miter;stroke-miterlimit:4;stroke-dasharray:none;stroke-opacity:1" transform="matrix(.76484 0 0 .76484 -46.034 -379.497)"/><path d="M427.452-125.657c-19.837 3.48-14.489-13.803-22.708-15.343 17.554-5.135 9.985 8.205 22.708 15.343z" style="fill:#008300;fill-opacity:1;fill-rule:evenodd;stroke:#000;stroke-width:.517473;stroke-linecap:butt;stroke-linejoin:miter;stroke-miterlimit:4;stroke-dasharray:none;stroke-opacity:1" transform="matrix(.76484 0 0 .76484 -46.034 -379.497)"/><path d="M425.443-146.114c-10.943 12.976 4.85 13.6 2.909 20.42 11.47-10.49-.288-10.052-2.91-20.42zM413.91-143.693c-19.807-2.897-7.312-23.108-13.302-27.533 16.435 1.216 5.837 19.02 13.302 27.533z" style="fill:#008300;fill-opacity:1;fill-rule:evenodd;stroke:#000;stroke-width:.517473;stroke-linecap:butt;stroke-linejoin:miter;stroke-miterlimit:4;stroke-dasharray:none;stroke-opacity:1" transform="matrix(.76484 0 0 .76484 -46.034 -379.497)"/><path d="M421.518-169.188c-18.331 8.692.23 17.905-7.045 26.117 17.937-1.01 2.048-12.874 7.045-26.117zM411.332-168.556c-21.297-9.89.973-27.992-2.842-34.739 14.536 14.646-7.573 20.311 2.842 34.739z" style="fill:#008300;fill-opacity:1;fill-rule:evenodd;stroke:#000;stroke-width:.517473;stroke-linecap:butt;stroke-linejoin:miter;stroke-miterlimit:4;stroke-dasharray:none;stroke-opacity:1" transform="matrix(.76484 0 0 .76484 -46.034 -379.497)"/><path d="M425.002-193.175c-18.337 2.319-9.216 19.195-12.936 25.14 14.248-3.262 2.693-11.855 12.936-25.14zM416.14-198.292c-10.475-15.713 6.731-19.317 8.004-27.314 5.011 20.737-6.737 13.918-8.004 27.314z" style="fill:#008300;fill-opacity:1;fill-rule:evenodd;stroke:#000;stroke-width:.517473;stroke-linecap:butt;stroke-linejoin:miter;stroke-miterlimit:4;stroke-dasharray:none;stroke-opacity:1" transform="matrix(.76484 0 0 .76484 -46.034 -379.497)"/><path d="M436.806-211.39c-17.09-4.845-14.096 12.244-19.8 16.323 14.416 2.414 11.484-11.427 19.8-16.323zM428.859-218.794c-3.382-13.643 3.421-11.347 11.167-17.29 4.212 10.979-6.203 9.725-11.168 17.29zM450.583-220.793c-13.206-9.677-14.573 3.366-21.363 5.118 12.58 7.44 13.086-3.543 21.363-5.118zM442.7-227.353c.434-5.845 8.206-13.68 16.414-10.943-.498 9.7-9.886 12.31-16.415 10.943z" style="fill:#008300;fill-opacity:1;fill-rule:evenodd;stroke:#000;stroke-width:.517473;stroke-linecap:butt;stroke-linejoin:miter;stroke-miterlimit:4;stroke-dasharray:none;stroke-opacity:1" transform="matrix(.76484 0 0 .76484 -46.034 -379.497)"/></g><use xlink:href="#e" width="600" height="330" transform="matrix(-1 0 0 1 639.1 0)"/><path d="M186.406-228.97s9.047-2.3 18.094-2.238c9.046.062 18.093 2.487 18.093 2.487" style="fill:none;stroke:none" transform="translate(153.093 -370.77)scale(.81329)"/><path d="m188.173-240.88.794 4.644 2.582-.441q1.005-.172 1.29-.533.384-.475.263-1.49l.32-.054.7 4.089-.32.055q-.27-.837-.431-1.059a1.1 1.1 0 0 0-.593-.39q-.385-.112-1.121.014l-2.582.442.662 3.872q.133.78.232.941a.58.58 0 0 0 .289.227q.19.066.674-.017l1.993-.34q.997-.171 1.423-.387.427-.215.773-.693.446-.63.824-1.809l.346-.059-.51 3.12-9.053 1.547-.055-.32.416-.072q.415-.071.754-.334a.72.72 0 0 0 .302-.48q.056-.294-.09-1.152l-1.305-7.633q-.192-1.117-.46-1.339-.372-.293-1.1-.168l-.416.07-.054-.32 9.053-1.547.57 2.55-.338.058q-.341-.895-.625-1.204a1.38 1.38 0 0 0-.74-.417q-.368-.07-1.244.079zm17.273 5.673-4.614.024-.799 1.885q-.296.696-.293 1.038 0 .273.257.483.264.2 1.126.257l.002.326-3.753.019-.002-.325q.747-.136.965-.348.447-.424.985-1.719l4.141-9.83.308-.002 4.2 9.892q.507 1.194.913 1.551.414.35 1.145.39l.002.325-4.703.025-.002-.326q.712-.038.957-.242.255-.204.253-.493-.002-.387-.358-1.22zm-.25-.65-2.046-4.805-2.049 4.827zm17.81-5.414-.419 4.04-.268-.047q-.23-1.885-1.09-2.845t-2.255-1.2a3.93 3.93 0 0 0-2.216.235q-1.046.426-1.815 1.632-.76 1.207-1.092 3.138-.274 1.594.036 2.852t1.224 2.056q.924.801 2.24 1.028 1.144.196 2.102-.138.96-.345 2.258-1.619l.24.22q-1.154 1.416-2.457 1.94-1.303.525-2.923.247-2.92-.503-4.15-2.943-.917-1.816-.542-4 .302-1.757 1.344-3.095 1.04-1.336 2.557-1.906a5.95 5.95 0 0 1 3.163-.294q1.273.219 2.405 1.056.33.253.487.28a.58.58 0 0 0 .435-.095q.266-.195.432-.594z" style="font-style:normal;font-variant:normal;font-weight:400;font-stretch:normal;font-size:18px;line-height:125%;font-family:&quot;Times New Roman&quot;;text-align:start;writing-mode:lr-tb;text-anchor:start;fill:#000;fill-opacity:1;stroke:none" transform="translate(166.92 -386.765)scale(.74556)"/><path d="M317.237-550.3c-.979.075-1.97.23-2.926.355-1.053 2.238-3.592 4.458-6.963 5.83-.21.085-.444.156-.66.235-3.66 1.332-7.268 1.36-9.654.283a41.5 41.5 0 0 0-7.623 6.444v.023c.61 2.387.082 5.707-1.605 8.898-.107.201-.215.39-.33.59-1.957 3.389-4.74 5.747-7.27 6.444h-.024a40.8 40.8 0 0 0-1.723 10.03c2.01 1.433 3.723 4.32 4.485 7.86.048.222.101.433.141.66.677 3.836.06 7.42-1.416 9.583a40.8 40.8 0 0 0 5.004 8.662h.023c2.446-.158 5.582.922 8.403 3.116.18.14.342.3.519.448 2.983 2.503 4.814 5.632 5.074 8.237a40.8 40.8 0 0 0 9.63 3.54c1.754-1.743 4.908-2.956 8.544-3.091.227-.008.454 0 .684 0 3.925 0 7.365 1.239 9.229 3.091a40.8 40.8 0 0 0 9.63-3.54c.243-2.452 1.877-5.39 4.555-7.812.168-.153.342-.3.519-.449 2.951-2.476 6.322-3.727 8.921-3.563h.024a41 41 0 0 0 4.933-8.497c-1.367-2.038-1.977-5.303-1.487-8.85.03-.226.078-.434.118-.662.681-3.865 2.501-7.053 4.65-8.567a41 41 0 0 0-1.7-10.031c-2.372-.666-4.971-2.773-6.892-5.83-.12-.192-.215-.414-.33-.613-1.963-3.4-2.608-6.995-1.936-9.536a41.4 41.4 0 0 0-7.953-6.726c-2.245 1.038-5.624 1.092-9.087-.024-.217-.07-.42-.157-.637-.236-3.66-1.332-6.465-3.636-7.6-5.995a42 42 0 0 0-4.957-.307c-.266 0-.537-.005-.802 0-.136.002-.266-.004-.401 0-.095.002-.19-.004-.284 0-.079.003-.157-.004-.236 0-.074.003-.138-.004-.212 0h-.283c-.032.002-.063-.002-.095 0m-3.115.355v.023h.024v-.023zm11.046 81.52v.024h.023c.002 0-.002-.023 0-.023 0 .002-.023-.002-.023 0" style="fill:red;fill-opacity:1;fill-rule:nonzero;stroke:none;stroke-width:.791572"/><path d="M354.68-509.351c0 19.392-15.738 35.13-35.13 35.13-19.391 0-35.13-15.738-35.13-35.13s15.739-35.13 35.13-35.13 35.13 15.738 35.13 35.13z" style="fill:#fbf014;fill-opacity:1;fill-rule:nonzero;stroke:#000;stroke-width:.369764;stroke-miterlimit:4;stroke-dasharray:none;stroke-opacity:1"/><path d="M351.737-509.351c0 17.767-14.42 32.187-32.187 32.187s-32.187-14.42-32.187-32.187 14.42-32.187 32.187-32.187c17.768 0 32.187 14.42 32.187 32.187z" style="fill:#fbf014;fill-opacity:1;fill-rule:nonzero;stroke:#000;stroke-width:.369764;stroke-miterlimit:4;stroke-dasharray:none;stroke-opacity:1"/><g style="stroke:#000;stroke-width:3.03275;stroke-miterlimit:4;stroke-dasharray:none;stroke-opacity:1"><path d="m-338.242-217.156 89.535 15.917-11.938 89.535-75.607 51.73-41.783-45.761 1.99-73.618z" style="fill:#0087ff;fill-opacity:1;fill-rule:evenodd;stroke:#000;stroke-width:3.03275;stroke-linecap:butt;stroke-linejoin:miter;stroke-miterlimit:4;stroke-dasharray:none;stroke-opacity:1" transform="matrix(.11892 0 0 .11892 350.156 -499.378)"/><path d="m-363.241-151.123-34.924 1.198s-1.712-.342-2.397-.342-1.198.171-1.198.171l-.514 1.883-.856.514-.685 2.397-2.739 1.37-.171 1.54-2.568 1.712-3.253 2.054-1.54-.513-.685-3.253-1.027-.171-3.596.684-2.567.685-.172-4.28-1.027-1.198v-7.875h1.712l.514-7.704.856-1.883-.343-1.54 2.74-2.398 1.883-1.37 1.027-2.053.171-2.568 1.027-1.028-1.37-1.198-1.883 1.027-2.396-1.54-.172-3.253.514-1.712 1.883-1.199.856.514 1.199-7.02 2.91-1.882-1.37-4.28 1.027-2.568-.513-3.253 7.361-2.739.685-2.91.685-3.253 3.081-.856 2.397-1.37 1.54 4.28.172 2.226 2.055-.342 1.198-2.91 1.883-.857.685-2.568 4.793-5.82.856-1.712 3.938-1.712 2.739-.514 2.568-2.739 1.198-1.712-.171-2.054 1.198.513 1.884-2.225-1.37-2.055.856-1.54-1.027-4.11-1.199-1.198.343-1.198-1.883 2.74-2.055-.857-.342-2.568-2.226.514-2.054-.342-2.397-3.253-1.37.685v2.225l-1.369-.856-1.027-2.739-2.397.171 1.027-3.595 3.082-6.334.514-3.082-3.596-3.081 2.226-7.02 3.424-3.766-.171-3.423-2.226.684 2.74-4.28 6.162-3.081 3.253.342 5.478 3.424 1.883-1.198 2.397-.343 3.424-2.568 4.622 3.596-.17 2.054 3.252.171 1.37 2.054h1.883l.17-2.91 5.822-2.91 9.244-.856 7.02-3.424 3.937 2.74 9.93.513 13.524-12.669 44.33 9.425-2.514 76.21-45.24 24.958-2.568-1.541-1.37 1.027-.685-.685.514-3.424-2.91.514-.856 3.938h-2.568l-3.082-1.541.343-1.37 2.567.343-.17-1.37-1.884-1.027-2.739.513.171-1.711 2.055-2.226-.514-.856-1.712 1.883-2.054-.856-1.712 1.199 1.712 2.396-2.397 1.37-.171 1.54-3.424-.513v1.37h2.225l-5.307 3.937-1.37-1.54.514-1.37h-1.198l-1.883 1.712-3.253.171.514-1.027 2.396-.685-.684-.856-2.226.171v-2.91l-.856.513-.342 2.568-1.199-.513.171 1.54-.17 1.541.17 1.199-1.198.342-.342-.856-1.712.685-1.027-1.54s-1.884.342-1.541 1.198.685 2.396.685 2.396l-3.253-1.027-1.37-.856v3.253l-2.054.513-2.74-2.568 1.2 2.74-3.082-.172-1.884 1.199 1.541 1.712 1.199 1.37 1.37 1.54-.686 1.37-1.198-.685-2.054 3.081h-1.541l-1.198 2.568-1.199.856.514 1.37 1.027.342-.171 1.541-1.199-.342-2.739 3.424.514 1.198 1.54-.171z" style="fill:#fff;fill-opacity:1;fill-rule:evenodd;stroke:#000;stroke-width:3.03275;stroke-linecap:butt;stroke-linejoin:miter;stroke-miterlimit:4;stroke-dasharray:none;stroke-opacity:1" transform="matrix(.11892 0 0 .11892 350.156 -499.378)"/><path d="m-302.815-150.464 96.455 52.834 1.355 7.316-3.522 2.167 1.083 3.522 3.252.542 1.083 3.523 37.39 26.823 2.71-1.626 3.251 1.355.813-3.522 2.168-2.168 4.335-9.483-2.439-.813 1.626-3.522 2.167.542 3.252-4.335.542-3.793-2.71-1.897 3.251 1.084 2.71-8.128 3.793-1.084.813-5.69 1.897-1.897s-2.439-6.773-.271-9.212c2.167-2.438 10.837-2.167 10.837-2.167l5.42-5.69v-2.168l3.25-2.438-3.25-5.69 6.23 1.897 5.149-1.897 2.98.271 5.148-7.315v-2.71l-15.444-19.779v-98.08l9.212-8.942 15.173-20.862-4.335-1.897-15.444 2.168-3.793-5.42h-1.896l-1.084-2.98-2.71-1.625-25.468 11.108-1.084 4.335-5.96 5.69-.543 2.71-1.354.27-1.355-.812-26.282-6.232-1.083 2.168-8.941-.271-30.617-22.218h-23.03l-4.606-1.896-.271-2.98h-41.454l-9.483 9.482 2.438 10.025 3.523.542 1.896 4.877h4.064l-.813 4.606-.812.813-.271 5.148 1.625 2.98 2.71 1.626.27 4.335 5.149 2.167.812 5.69 2.98 2.168.814 2.438-2.168 2.98 3.522 5.149-1.083 3.522 1.625 4.064v1.626l-.813 5.148-2.167 1.625-1.355 3.251-1.626.542.813 5.961-4.606.542-2.167 2.71-2.168-1.355-.27 5.69-2.44 4.064h-2.709v2.438l-3.25 1.084-1.085 4.606v3.793l-3.522 2.439-.813 4.335 1.084 2.98 1.897 1.084 1.625-1.084-.813 2.98 2.98 1.355 1.355 3.522 3.252-1.896-.542-2.439h4.606l5.148-2.438 1.355 2.98 2.438 2.168-.813.813-2.71-.542-1.354 1.896-1.897-.813-4.606-.27-.541 1.896 2.438 1.626-2.168 1.625-1.625-1.625-2.168 1.084-1.625-1.084-2.71-.813.542 3.251h-2.438l-1.355 4.606 2.438 2.439 2.439 1.354-1.897 3.794zM-154.447 33.043l2.984-2.984v-1.865l2.985-.373 1.74-3.358.374 4.477-1.617 1.119.249 2.611-2.114-.124.621 2.487-1.119-.124-.124-1.617zM-164.893-14.46l.124-5.596-1.119-.994 3.73-2.86.622-3.358 3.855-1.492-1.119 3.73-1.492.373-.497 4.477 2.114 2.736v2.487l1.865 1.12 2.487 3.357v2.611l-1.741 1.368-3.482-4.228-3.233.995zM-152.458-36.097l.746-3.358 1.493-3.855-2.612-6.466 2.985.373 1.119 2.86 1.99.746.248-2.984s1.368-.995.87.497c-.497 1.492-1.118 6.84-1.118 6.84l1.492 3.233-2.239 2.984-2.487 2.487z" style="fill:#fff;fill-opacity:1;fill-rule:evenodd;stroke:#000;stroke-width:3.03275;stroke-linecap:butt;stroke-linejoin:miter;stroke-miterlimit:4;stroke-dasharray:none;stroke-opacity:1" transform="matrix(.11892 0 0 .11892 350.156 -499.378)"/><path d="m-132.685 99.821-11.441 8.954-15.171 5.969-3.73 2.736-7.71.248-5.472 1.99-3.73 1.244-4.229 4.476-6.715-4.725h-7.959l-2.735 2.984-.498 4.477-5.223 2.487-3.233-.746-1.99 2.487-8.953-1.243-2.736-2.985-4.725.746-6.467 4.726-2.984-.995-.746-1.741-2.239.497-1.99 1.244-3.73-.746.249-2.985-2.985-.995-3.233-4.476-4.228.497-1.243 2.238-2.985 2.736-3.482-1.243-12.684.248-3.233-5.969h-2.985l-3.979-7.71.249-4.974 1.492-1.243.498-5.223-3.234-2.487.746-7.959-1.492-2.238-.497-3.482-5.72-5.72.497-2.487-7.71-5.472h-1.99l-.497 4.974-2.736-.497-1.99-2.239-8.456 1.741-3.481-4.228-3.731.498-3.482-2.736-4.477.249-3.482-3.482-7.212.248-1.741-4.974-4.726.498-2.238-1.99-5.471.497-.498-2.984-6.466-.497-3.233-2.488-.25-4.476-4.973-2.239-4.477.995-1.741-5.471-3.73-3.482-.995-4.726-5.72-8.456v-2.984l-3.234-3.482v-7.213l-2.984-2.984.248-3.233 1.493-.25-.25-2.735-4.227-2.984-1.741-3.234-5.97-5.72-2.735.995h-2.736l-5.72-6.964-.249-3.482 2.487-3.233h3.234l1.243-2.487-.746-2.984-4.974-8.456.497-4.229 1.99-1.492-1.244-4.974-5.222-4.725v-5.72l1.243-3.731v-1.741l4.726-2.239 2.735-1.492 2.736-1.99.498-2.487 4.476-2.487-.248-2.487 4.725-4.228.249-3.233 1.74-4.228 5.72-2.487-.248-1.492 4.726-2.487-.498-6.218.995-1.99-2.238-1.243-1.99.497-3.233-1.492-3.482.995-.995-2.985 3.233-3.73-1.74-1.493 2.238-4.725 8.456-1.244-.249-6.217 1.492-1.99-3.233-4.725.498-7.71-2.239-2.736.498-2.238-4.726-2.985-3.233-5.72 4.974-.746 2.238-1.741h29.1l1.243 2.238.248 2.736-.994.995-.995 3.73-1.244 2.985-.248 1.492-.25 3.233-.745 3.73-1.244 1.244v2.985l-1.243 1.244 2.487.497-.746 3.482-.995 3.73 2.238.747 4.228-.498-2.487 4.726-.995 3.73 1.244 4.726 3.482-2.985 2.735 1.99-.746-4.228 1.244-3.482 3.233 1.74 1.244-1.491-1.99-2.985 3.73-3.233 2.985 4.228 2.736.497 1.74 3.98 2.488-5.223.995 3.73 3.233-.746.249 3.98 2.238 3.233-3.98 1.99.25 4.227 2.486-.746.25-3.233 3.232-.995-1.492-3.233-.995-3.482 3.73-5.223 2.737.498 2.238 3.482 5.472-.249 5.222-4.974 6.467-1.99-1.244-4.477h-1.74l-2.488 2.985-7.46-1.244-2.737-1.492-1.99 1.244-2.238.746-6.466-2.985V-127l-1.741-1.243 2.736-.995 1.99 2.487 1.989-.249 2.487-1.243 3.233 2.984 4.974-.995v-2.487l-3.233-.995.498-1.99 4.974-.248 1.243-1.74 4.228-1.244-2.487-3.482.249-1.99 7.213 1.99-3.234-3.482.746-3.233 4.726 2.735.249-1.243-3.731-2.736 5.223-5.223 97.742 53.224.995 7.46-3.482 2.24v3.979l4.228-.498.248 3.98 37.307 25.119 2.487 4.228-1.99 2.238-1.741 3.73-.995 5.721-1.74 2.985v4.974l-3.234 3.233-2.487 6.218v4.725l1.99 3.233-1.244 4.974 3.73 3.234h2.985l7.213 8.456 3.73 3.482 1.741 3.73-1.99 4.726-2.486.746-2.239 7.71.249 5.72 2.736 2.736-.746 3.73-1.99 4.974-1.492 4.975 1.492 5.471 1.99 4.228 1.74 1.244v3.482l-1.492-.249 1.99 4.725 3.482 1.244.497 6.964-1.492-.249.249 1.99 3.482 2.735 1.492 7.71-1.741 2.736.995 1.492 4.476.995 1.741 3.98 3.482-1.244 5.472 2.985 2.238 3.481z" style="fill:#fff;fill-opacity:1;fill-rule:evenodd;stroke:#000;stroke-width:3.03275;stroke-linecap:butt;stroke-linejoin:miter;stroke-miterlimit:4;stroke-dasharray:none;stroke-opacity:1" transform="matrix(.11892 0 0 .11892 350.156 -499.378)"/></g><path d="M286.156 151.148c-.142-.252.599-.682.59-1.017-.013-.59.297-.845.884-1.137.073-.036.423-.227.515-.166.124.083.172.367.372.178.156-.148.668-.8.956-.715-.135.338.205.764.385 1.015.224.312.453.85.394 1.21-.076.452-.377.51-.825.366-.503-.165-.627.228-1.061-.1-.065.407-.024.852-.601.955-.294.052-.566.084-.711-.167-.157-.277-.577-.255-.61.076-.182-.146-.271-.281-.288-.498" class="landxx rw" style="fill:#fff;fill-rule:evenodd;stroke:#000;stroke-width:.286271;stroke-miterlimit:4;stroke-dasharray:none" transform="matrix(1.54867 0 0 1.54867 -145.142 -746.861)"/><path d="M286.445 151.646c.253-.7.695.065.76.072.905.09 1.085-.163 1.16-.937.497.366.338-.163 1.461.17-.191.079-.67.527-.296.513-.318.707.31.735.66.646-.216.277.264.394-.191.672-.28.172-.273.076-.337.386-.016.076-.342.038-.396.136-.062.11.196.36.164.43a1.2 1.2 0 0 1-.396.433c-.37.232-.42.506-.816.723-.194.107-.391.139-.566.14-.07-.202-.488-.96-.569-1.21-.118-.359.049-.73-.231-1.042.032-.176.132-.39-.033-.586-.145-.172-.31-.335-.374-.546" class="landxx bi" style="fill:#fff;fill-rule:evenodd;stroke:#000;stroke-width:.286271;stroke-miterlimit:4;stroke-dasharray:none" transform="matrix(1.54867 0 0 1.54867 -145.142 -746.861)"/></g></svg>