<svg xmlns="http://www.w3.org/2000/svg" xml:space="preserve" width="738" height="396" fill-rule="evenodd" clip-rule="evenodd" image-rendering="optimizeQuality" shape-rendering="geometricPrecision" text-rendering="geometricPrecision" viewBox="0 0 7.688 4.125"><path fill="#c62139" d="M0 0h7.688v4.125H0Z" style="stroke-width:.09375"/><path fill="#00297b" d="M.188.188H7.5v3.75H.188Z" style="stroke-width:.09375"/><path fill="#92dbfc" d="M3.846 1s-.71.518-.71 1.056.71 1.07.71 1.07.706-.493.706-1.07S3.846 1 3.846 1" style="stroke-width:.09375"/><path fill="#008ce7" d="M3.214 2.384c.185.407.632.741.632.741s.455-.317.635-.741" style="stroke-width:.09375"/><path fill="#9c8431" d="M4.483 2.267c-.11.071-.726.037-.726.037l-.035.08.735.002q.006-.017.013-.035z" style="fill:#ccc;stroke-width:.09375"/><path fill="#ffde52" d="M3.38 2.6q.047 0 .09.02c.05.024.079.024.133.025.056 0 .1.038.161.04.112.003.16.054.072.054-.04 0-.13-.026-.172-.02-.065.006-.102.01-.15.045A2 2 0 0 1 3.38 2.6m.222.255c.027-.017.047-.03.074-.031.052-.002.07-.032.13-.032a.7.7 0 0 0 .217-.018c.097-.02.051-.083-.007-.105-.048-.02-.137-.001-.192-.02-.042-.015-.007-.039.015-.044.023-.003.047.003.075.008a1 1 0 0 0 .158-.007c.092-.013.088-.037.132-.038a.15.15 0 0 0 .079-.024c.026-.016.052-.048.084-.047h.018c-.193.342-.54.566-.54.566s-.111-.078-.243-.208" style="stroke-width:.09375"/><path d="M3.645 2.239q.003-.004.007 0l.006.261h-.019z" style="fill:#8c4200;stroke-width:.09375"/><path fill="#8c4200" d="M3.417 2.491s.237.017.382-.012c0 0 .012.008-.005.027-.018.018-.062.022-.086.026 0 0-.006.012-.006.019s.016.005.023.004l.007-.001s-.003.023-.093.026c-.03.001-.126.003-.147-.023h.023c.004-.002 0-.019 0-.021-.003-.002-.064 0-.096-.027q-.012-.013-.012-.02zm.124.046s.064.007.139 0c0 0 .002.013-.002.018a.5.5 0 0 1-.132.002q-.01-.004-.005-.02" style="stroke-width:.09375"/><path fill="#fdf9ff" d="M3.46 2.474s.075-.094.051-.257c.116.064.215.162.241.252-.105-.025-.198-.008-.292.005" style="stroke-width:.09375"/><path fill="#c62139" d="M3.846.938s-.752.512-.752 1.117.752 1.132.752 1.132.748-.483.748-1.132S3.846.937 3.846.937m0 .124s-.67.456-.67.994.67 1.007.67 1.007.665-.43.665-1.007-.665-.994-.665-.994" style="stroke-width:.09375"/><g transform="scale(.09375)"><path fill="#8c4200" d="M43.146 27.788c.128.452.263.606.782.722.512.116 1.294-.34.81-.782-.462-.412-.948-.517-1.362-.888-.641-.582-1.521-1.786-1.939-2.924-.457-1.245-.378-4.748-.357-6.523 0-.02.055-.033.062-.041.03-.04.058.012.011-.248-.012-.067-.07-.136-.07-.203.001-.12-.453.131-.572.346-.028.049.087.189.087.216.015 1.703-.185 5.065.309 6.587.305.942.863 1.67 1.367 2.343.303.431.74.897.872 1.395z" style="stroke:#000;stroke-width:.015625"/><path fill="#109421" d="M36.311 16.89c.033.04.028.216.028.216.026.014.454-.334.454-.318 0 .073.01.224.01.224s.443-.385.461-.345c.02.046-.002.27-.002.27l.349-.352c.039-.038.033.049.036.188.001.025.483-.325.512-.331.063-.013.082.182.079.23-.003.036.445-.233.425-.198l.033.207c.125-.015.422-.117.6-.09.058.008.055.034.004.054-.861.319-1.524.8-1.91 1.47-.131.229-.171.428-.136.478 0 0 .154-.305.329-.353.023-.006.039.196.063.184 0 0 .132-.305.227-.418.026-.03.068.16.096.132 0 0 .068-.204.203-.347.019-.02.054.194.075.176.14-.118.27-.413.322-.435.037-.026.043.245.078.222 0 0 .199-.366.317-.432.077-.043.074.2.074.2.151-.137.318-.364.397-.462.037-.046.017.298.055.312.05.017.377-.264.413-.27.025-.003.053.08-.01.148l-.404.426c.078.014.108-.006.163.007.166.04-.31.29-.301.336 0 0 .229-.004.152.037-.055.03-.358.386-.358.373 0-.006.152.003.151.043-.001.074-.251.455-.254.453-.013-.012.135-.016.155.021.037.07-.257.378-.2.43.008.008.168.003.239.017.034.007.13.56.106.538a5 5 0 0 1 .169-.675c.04-.094.169.143.179.122-.005 0-.026-.337-.008-.491.005-.043.098.045.096.004-.003-.093-.011-.193.01-.284.015-.068.094.124.125.072 0 0-.096-.334-.056-.428.026-.062.09.15.132.158 0 0-.024-.26.02-.326l.133.13c.029-.042.023-.447.05-.484.022-.032.16.151.18.123s-.058-.327-.04-.35c.024-.035.175.083.178.08.061-.056.06-.198.085-.25.07-.142.468-.16.515-.06.023.05.007.113-.002.19.003.002.2.015.2.001 0 0-.023.168-.009.352.002.025.199-.006.202.019.017.173-.026.19-.026.19.002.012.133-.02.135-.006a.45.45 0 0 1-.074.287c-.01.014.187-.014.19.003.024.13.028.234.004.418-.002.014.192-.13.195-.115.03.154-.005.321.013.482.004.037.128-.111.14-.068.01.042-.028.348-.01.366 0 0 .209-.01.227.006.165.142.134.39.134.39.045-.031.028-.33-.018-.602-.005-.029.16-.018.155-.045 0 0-.18-.1-.24-.377-.013-.059.174-.047.174-.047-.052-.109-.143-.13-.22-.235-.025-.034.194-.05.194-.06 0-.104-.185-.154-.281-.263-.041-.046.2-.049.2-.049-.07-.09-.304-.13-.423-.248-.064-.065.237-.129.233-.14-.033-.095-.316-.125-.454-.233-.028-.022.18-.097.18-.097-.021-.04-.474-.313-.244-.288.098.01.295.137.31.118 0 0-.008-.16.012-.178.076-.072.337.305.425.29 0 0 .033-.27.073-.278.096-.016.212.394.306.394.013 0 .02-.237.068-.25.055-.015.117.266.186.328.064.057.065-.22.103-.167.064.085.08.262.167.34.057.05.067-.244.13-.205.074.046.057.198.139.273.04.036.066-.194.11-.16.04.03.067.31.11.355.054.057.117-.148.173-.116.04.024.031.267.069.32.077.108.117-.131.168-.094.036.025.113.304.145.326.071.05.11-.127.165-.102.04.018.119.378.152.369.02-.006.074-.821-.269-1.165-.557-.56-1.556-.883-2.371-.891 0 0 .41-.075.42-.137.022-.124.225-.11.367-.08.025.004.012-.22.015-.22.127-.004.24.065.362.132.037.022-.077-.224-.037-.203.156.083.33.107.434.207.028.026-.031-.189-.031-.189.077-.017.23.085.291.182.03.047-.002-.251.021-.198 0 0 .272.084.3.188 0 0 .023-.189.06-.179.108.026.204.194.289.219 0 0-.036-.169-.008-.163.204.048.426.163.426.163-.115-.264-.552-.54-1.32-.614a4.7 4.7 0 0 0-1.198.068c-.397.084-.71.132-.646.075.262-.236.687-.265.804-.32.083-.039-.282-.168-.21-.186.073-.016.399-.04.399-.04.07-.051-.237-.15-.191-.224.092-.147.636-.013.683-.07.015-.018-.234-.153-.224-.173.04-.074.524.056.536-.01 0 0-.147-.1-.252-.182-.012-.01.433-.12.433-.12a.7.7 0 0 0-.178-.088c-.094-.033.39-.148.39-.148-.613-.257-2.205.473-2.521 1.231-.082.181-.085-.016-.067-.169.016-.165.039-.31.02-.46-.007-.045-.13.119-.14.075-.031-.16.063-.337.02-.516-.014-.06-.179.177-.2.117-.061-.165.044-.397.002-.625-.017-.089-.173.19-.225.111-.061-.092-.035-.434-.064-.486-.023-.042-.162.164-.174.125-.188-.627.062-.705-.3-.352-.012.013-.092-.37-.106-.358-.148.29-.39-.206-.474-.16-.062.035.17.228.172.314.001.042-.213.045-.213.045.005.071.407.272.42.35.01.065-.284.05-.284.05.009.087.344.17.362.264.01.05-.157.062-.151.115.009.08.324.238.334.32.007.056-.201.08-.206.132-.006.064.418.279.419.34 0 .084-.17.04-.246.083-.109.06.347.304.367.374.015.06-.183.007-.19.062-.008.073.224.183.277.308.053.123-.001.155-.077.106-.153-.099-.769-.698-.933-.858a1.98 1.98 0 0 0-1.21-.507c-.05.014.262.216.264.289 0 .019-.14.047-.134.052.086.08.355.173.355.173l-.077.127c.018.037.145.047.348.109 0 0-.152.086-.14.094.107.08.316.137.316.137l-.206.064c-.012.036.464.21.464.21s-.149.118-.142.124c.036.033.385.107.385.107.006.005-.246.077-.245.079.092.084.345.111.404.25 0 0 .034.079-.066.064-.393-.131-1.002-.401-2.183-.295-1.208.144-2.128 1.105-2.112 1.2 0 0 .432-.283.477-.225z" style="stroke:#000;stroke-width:.015625"/><circle cx="40.631" cy="16.881" r=".286" style="fill:#8c4200;stroke:#000;stroke-width:.015625;stroke-linecap:round;stroke-linejoin:round;stroke-miterlimit:33;paint-order:markers fill stroke"/><circle cx="40.605" cy="17.35" r=".286" style="fill:#8c4200;stroke:#000;stroke-width:.015625;stroke-linecap:round;stroke-linejoin:round;stroke-miterlimit:33;paint-order:markers fill stroke"/><circle cx="40.998" cy="16.774" r=".286" style="fill:#8c4200;stroke:#000;stroke-width:.015625;stroke-linecap:round;stroke-linejoin:round;stroke-miterlimit:33;paint-order:markers fill stroke"/><circle cx="41.041" cy="17.172" r=".286" style="fill:#8c4200;stroke:#000;stroke-width:.015625;stroke-linecap:round;stroke-linejoin:round;stroke-miterlimit:33;paint-order:markers fill stroke"/></g><path d="M3.524 2.078q-.002 0-.002.002l-.001.004h-.003v-.039h.003q0 .005.003.005h.068v.004q-.003 0-.003.004v.049q0 .002.002.002h.001v.003q-.03.02-.074.02-.014 0-.028-.005-.014-.004-.024-.013t-.017-.023-.006-.032.006-.033q.007-.014.017-.023.01-.01.024-.014t.028-.004h.01l.009.001.008.002.01.003q.007.002.011.005l.007.002q.002 0 .003-.002l.003.001-.015.037-.003-.002v-.003q0-.002-.004-.004l-.01-.005-.013-.003-.015-.002q-.008 0-.016.003-.007.003-.013.008-.006.006-.01.014-.003.008-.003.02 0 .01.004.018t.01.013q.007.006.015.008.008.003.016.003.01 0 .017-.002.008-.001.015-.004v-.018z" style="fill:#bd0728;stroke-width:.00236164;stroke-linecap:round;stroke-linejoin:round;stroke-miterlimit:33;paint-order:markers fill stroke"/><path d="M3.74 1.993q0-.002-.002-.003l-.005-.002v-.003h.045v.003q-.004 0-.005.002l-.001.003v.074q0 .019-.005.031-.004.013-.013.02t-.019.01-.023.004-.024-.003q-.01-.003-.019-.01-.008-.008-.013-.02t-.004-.032v-.074L3.65 1.99l-.005-.002v-.003h.045v.003q-.005 0-.006.002v.077q0 .016.007.023t.02.007.02-.007.007-.023z" style="fill:#bd0728;stroke-width:.00230478;stroke-linecap:round;stroke-linejoin:round;stroke-miterlimit:33;paint-order:markers fill stroke"/><path d="M3.913 2.125v.003h.004v.004h-.044v-.004q.003 0 .004-.002l.003-.004.002-.008.005-.015.007-.021.008-.023.008-.023.007-.02.005-.015.002-.006q0-.002-.002-.002l-.003-.001v-.003h.064v.003H3.98l-.001.004.002.007.006.017.009.025.01.027.01.028.009.024.003.006.004.002v.003h-.049v-.003q.005 0 .005-.003l-.002-.004-.002-.008-.003-.008-.002-.005h-.058l-.004.012-.003.007-.001.005zm.06-.048-.024-.066-.022.066z" style="fill:#bd0728;stroke-width:.0024658;stroke-linecap:round;stroke-linejoin:round;stroke-miterlimit:33;paint-order:markers fill stroke"/><path d="m4.203 2.13.005-.002.002-.004v-.103l-.043.108-.042-.11v.109l.006.001v.004h-.042v-.004l.005-.001.002-.004v-.13q0-.002-.002-.003l-.005-.002v-.003h.062v.003q-.005 0-.005.005V2l.004.01.005.013.006.014.004.011.003.007.008-.02.008-.019.006-.014.002-.007q0-.005-.006-.005v-.003h.065v.003q-.005 0-.006.002l-.001.003v.134l.007.001v.004h-.048z" style="fill:#bd0728;stroke-width:.00241865;stroke-linecap:round;stroke-linejoin:round;stroke-miterlimit:33;paint-order:markers fill stroke"/></svg>