<svg xmlns="http://www.w3.org/2000/svg" width="600" height="400" fill="none" viewBox="0 0 600 400"><g clip-path="url(#a)"><path fill="#bf0a30" d="M0 0h600v400H0z"/><path fill="#002868" d="m50 198.453 248.967 168.214L550 198.127 298.967 33.333z"/><path fill="#fff" d="m112 198.837 187.223 126.496L488 198.592 299.223 74.667z"/><path fill="#002868" d="M197.567 193.352h10.446l1.814 5.835h6.426l-9.973-28.304h-6.821l-10.091 28.304h6.228zm5.204-16.084h.078l3.508 11.196h-7.213zm17.293 21.919h5.793v-11.078h6.111q3.16-.028 3.947 1.232.787 1.259.665 4.13.001 2.145.168 3.449.164 1.302.463 2.267h6.544v-.75q-.909-.275-1.104-1.444-.197-1.17-.158-4.193-.007-3.819-.921-5.184-.916-1.364-2.667-1.991 2.111-.75 3.238-2.557t1.138-4.184q.045-1.3-.636-3.16-.68-1.86-2.617-3.311-1.934-1.45-5.656-1.53h-14.309v28.304zm5.793-15.848v-7.568h7.372q2.536.09 3.371 1.29t.768 2.415q.002 2.08-1.133 2.981-1.137.903-3.44.882zm29.04 6.268 2.76-2.838 8.751 12.418h7.608l-12.22-16.715 11.549-11.589h-7.646l-10.802 11.51v-11.51h-5.913v28.304h5.913zm28.134 3.745h10.445l1.813 5.835h6.427l-9.973-28.304h-6.82l-10.092 28.304h6.228zm5.202-16.084h.08l3.507 11.196h-7.213zm34.559 13.324h-.08l-11.233-19.709h-6.23v28.304h5.52v-20.184h.079l11.549 20.184h5.914v-28.304h-5.52zm9.763-.117q-.062 1.831.842 4.012.906 2.18 3.532 3.774 2.626 1.596 7.728 1.674 1.38.065 3.996-.51t4.819-2.568 2.341-6.186q-.1-3.724-2.257-5.356-2.155-1.632-5.155-2.252l-6.898-1.694a5.45 5.45 0 0 1-1.942-.754q-.977-.596-1.053-2.203.096-1.894 1.62-2.656a7 7 0 0 1 3.307-.733q3.736.146 4.774 1.653 1.04 1.51 1.02 2.603h5.678q.017-1.809-.952-3.912-.971-2.106-3.379-3.634-2.41-1.525-6.707-1.6-4.54.074-6.904 1.558t-3.197 3.493-.78 3.661q.134 4.508 2.78 6.095 2.646 1.589 6.208 2.223l3.036.709q2.286.479 3.685 1.193 1.401.714 1.44 2.316-.108 2.194-1.908 2.956-1.799.76-4.006.71-3.76-.139-4.918-1.695-1.157-1.558-1.073-2.877zm33.782 2.877h10.447l1.813 5.835h6.426l-9.974-28.304h-6.82l-10.092 28.304h6.23zm5.203-16.084h.08l3.507 11.196h-7.214zm15.835 13.207q-.064 1.831.842 4.012.904 2.18 3.531 3.774 2.628 1.596 7.728 1.674 1.38.065 3.996-.51 2.618-.575 4.82-2.568t2.34-6.186q-.101-3.724-2.256-5.356-2.156-1.632-5.155-2.252l-6.898-1.694a5.45 5.45 0 0 1-1.942-.754q-.98-.596-1.053-2.203.096-1.894 1.62-2.656a7 7 0 0 1 3.307-.733q3.736.146 4.773 1.653 1.04 1.51 1.021 2.603h5.676q.02-1.809-.952-3.912-.97-2.106-3.378-3.634-2.408-1.525-6.707-1.6-4.54.074-6.903 1.558-2.364 1.484-3.197 3.493t-.78 3.661q.133 4.508 2.779 6.095 2.646 1.589 6.209 2.223l3.035.709q2.287.479 3.686 1.193 1.401.714 1.439 2.316-.107 2.194-1.907 2.956-1.8.76-4.006.71-3.761-.139-4.918-1.695-1.159-1.558-1.074-2.877z"/><path fill="#fff" d="m305.979 66.641-7.362-5.333-7.348 5.359 2.794-8.655-7.363-5.339 9.087-.016 2.8-8.657 2.824 8.645 9.09-.013-7.342 5.36 2.821 8.65z"/><path fill="#002868" d="M313.285 253.333 300 262.775l-13.301-9.434 5.08 15.271-13.288 9.451 16.425-.004 5.089 15.274 5.072-15.272 16.432-.012-13.29-9.434zM270.267 253.333l-13.287-9.441-13.301 9.433 5.08-15.27-13.287-9.451 16.425.004 5.09-15.275 5.07 15.272 16.434.012-13.291 9.435z"/><path fill="#fff" d="m287.975 324.721-5.334 7.362 5.359 7.348-8.655-2.794-5.338 7.363-.016-9.087-8.658-2.798 8.646-2.824-.014-9.091 5.36 7.343zM310.692 324.721l5.333 7.362-5.358 7.348 8.654-2.794L324.66 344l.016-9.087 8.657-2.798-8.645-2.824.013-9.091-5.36 7.343z"/><path fill="#002868" d="m356.304 253.333-13.287-9.441-13.301 9.433 5.08-15.27-13.287-9.451 16.426.004 5.089-15.275 5.071 15.272 16.433.012-13.291 9.435zM313.285 140l-13.286-9.441-13.302 9.433 5.08-15.271-13.286-9.45 16.425.004L300.005 100l5.071 15.272 16.433.012-13.29 9.435z"/><path fill="#fff" d="m489.945 166.055-5.333 7.361 5.359 7.348-8.655-2.793-5.339 7.362-.016-9.086-8.657-2.799 8.645-2.824-.013-9.091 5.36 7.343zM453.945 142.055l-5.333 7.361 5.359 7.348-8.655-2.793-5.339 7.362-.016-9.086-8.657-2.799 8.645-2.824-.013-9.091 5.36 7.343zM417.945 118.055l-5.333 7.361 5.359 7.348-8.655-2.793-5.339 7.362-.016-9.086-8.657-2.799 8.645-2.824-.013-9.091 5.36 7.343zM381.945 95.388l-5.333 7.361 5.359 7.348-8.655-2.793-5.339 7.363-.016-9.087-8.657-2.799 8.645-2.824-.013-9.09 5.36 7.342zM345.945 71.388l-5.333 7.361 5.359 7.348-8.655-2.793-5.339 7.363-.016-9.087-8.657-2.799 8.645-2.824-.013-9.09 5.36 7.342zM127.975 215.388l-5.334 7.361 5.359 7.348-8.655-2.793-5.338 7.363-.016-9.087-8.658-2.799 8.646-2.824-.014-9.09 5.36 7.342zM159.975 236.721l-5.334 7.362 5.359 7.348-8.655-2.794-5.338 7.363-.016-9.087-8.658-2.798 8.646-2.824-.014-9.091 5.36 7.343zM191.975 258.055l-5.334 7.361 5.359 7.348-8.655-2.793-5.338 7.362-.016-9.086-8.658-2.799 8.646-2.824-.014-9.091 5.36 7.343zM223.975 280.721l-5.334 7.362 5.359 7.348-8.655-2.794-5.338 7.363-.016-9.087-8.658-2.798 8.646-2.824-.014-9.091 5.36 7.343zM255.975 302.055l-5.334 7.361 5.359 7.348-8.655-2.793-5.338 7.362-.016-9.086-8.658-2.799 8.646-2.824-.014-9.091 5.36 7.343zM95.975 192.621l-5.334 7.362L96 207.331l-8.655-2.794-5.338 7.363-.016-9.087-8.658-2.798 8.646-2.824-.014-9.091 5.36 7.343zM109.359 166.055l5.333 7.361-5.359 7.348 8.655-2.793 5.339 7.362.016-9.086 8.657-2.799-8.645-2.824.013-9.091-5.36 7.343zM145.359 142.055l5.333 7.361-5.359 7.348 8.655-2.793 5.339 7.362.016-9.086 8.657-2.799-8.645-2.824.013-9.091-5.36 7.343zM181.359 118.055l5.333 7.361-5.359 7.348 8.655-2.793 5.339 7.362.016-9.086 8.657-2.799-8.645-2.824.013-9.091-5.36 7.343zM217.359 95.388l5.333 7.361-5.359 7.348 8.655-2.793 5.339 7.363.016-9.087 8.657-2.799-8.645-2.824.013-9.09-5.36 7.342zM253.359 71.388l5.333 7.361-5.359 7.348 8.655-2.793 5.339 7.363.016-9.087L276 78.781l-8.645-2.824.013-9.09-5.36 7.342zM502.692 192.621l5.333 7.362-5.358 7.348 8.654-2.794 5.339 7.363.016-9.087 8.657-2.798-8.645-2.824.013-9.091-5.36 7.343zM470.692 215.388l5.333 7.361-5.358 7.348 8.654-2.793 5.339 7.363.016-9.087 8.657-2.799-8.645-2.824.013-9.09-5.36 7.342zM438.692 236.721l5.333 7.362-5.358 7.348 8.654-2.794L452.66 256l.016-9.087 8.657-2.798-8.645-2.824.013-9.091-5.36 7.343zM406.692 258.055l5.333 7.361-5.358 7.348 8.654-2.793 5.339 7.362.016-9.086 8.657-2.799-8.645-2.824.013-9.091-5.36 7.343zM374.692 280.721l5.333 7.362-5.358 7.348 8.654-2.794L388.66 300l.016-9.087 8.657-2.798-8.645-2.824.013-9.091-5.36 7.343zM342.692 302.055l5.333 7.361-5.358 7.348 8.654-2.793 5.339 7.362.016-9.086 8.657-2.799-8.645-2.824.013-9.091-5.36 7.343z"/></g><defs><clipPath id="a"><path fill="#fff" d="M0 0h600v400H0z"/></clipPath></defs></svg>