<svg xmlns="http://www.w3.org/2000/svg" width="600" height="424" fill="none" viewBox="0 0 600 424"><g clip-path="url(#a)"><path fill="#0f204b" d="M0 0h600v423.729H0z"/><path fill="#ffb612" d="m490.677 55.084-7.528 23.168 11.584 3.764z"/><path fill="#ffb612" d="m490.676 55.084 7.528 23.168-11.584 3.764z"/><path fill="#ffb612" d="M513.845 71.917h-24.36v12.18z"/><path fill="#ffb612" d="m513.845 71.917-19.708 14.318-7.159-9.854z"/><path fill="#ffb612" d="m467.508 71.917 19.707 14.318 7.16-9.854z"/><path fill="#ffb612" d="M467.508 71.917h24.36v12.18z"/><path fill="#ffb612" d="m504.995 99.154-7.527-23.168-11.584 3.764z"/><path fill="#ffb612" d="m504.995 99.153-19.707-14.318 7.159-9.854z"/><path fill="#ffb612" d="m476.357 99.153 19.708-14.318-7.159-9.854z"/><path fill="#ffb612" d="m476.357 99.154 7.528-23.168 11.584 3.764zM97.032 154.661l-4.488 13.811 6.906 2.244z"/><path fill="#ffb612" d="m97.032 154.661 4.487 13.811-6.905 2.244z"/><path fill="#ffb612" d="M110.844 164.696H96.322v7.261z"/><path fill="#ffb612" d="m110.844 164.696-11.749 8.536-4.268-5.875z"/><path fill="#ffb612" d="m83.22 164.696 11.749 8.536 4.268-5.875z"/><path fill="#ffb612" d="M83.22 164.696h14.522v7.261z"/><path fill="#ffb612" d="m105.568 180.933-4.488-13.811-6.905 2.243z"/><path fill="#ffb612" d="m105.568 180.933-11.749-8.536 4.268-5.875z"/><path fill="#ffb612" d="m88.495 180.933 11.749-8.536-4.268-5.875z"/><path fill="#ffb612" d="m88.496 180.933 4.487-13.812 6.906 2.244zM167.795 180.932l-4.488 13.811 6.906 2.244z"/><path fill="#ffb612" d="m167.794 180.932 4.488 13.811-6.906 2.244z"/><path fill="#ffb612" d="M181.607 190.967h-14.523v7.261z"/><path fill="#ffb612" d="m181.607 190.967-11.749 8.536-4.268-5.874z"/><path fill="#ffb612" d="m153.982 190.967 11.749 8.536 4.268-5.874z"/><path fill="#ffb612" d="M153.982 190.967h14.523v7.261z"/><path fill="#ffb612" d="m176.331 207.204-4.488-13.811-6.906 2.244z"/><path fill="#ffb612" d="m176.331 207.204-11.749-8.536 4.268-5.874z"/><path fill="#ffb612" d="m159.258 207.204 11.749-8.536-4.268-5.875z"/><path fill="#ffb612" d="m159.258 207.204 4.488-13.811 6.906 2.243zM202.964 218.644l-4.488 13.811 6.906 2.244z"/><path fill="#ffb612" d="m202.964 218.644 4.488 13.811-6.906 2.244z"/><path fill="#ffb612" d="M216.776 228.679h-14.522v7.261z"/><path fill="#ffb612" d="m216.776 228.679-11.749 8.536-4.268-5.875z"/><path fill="#ffb612" d="m189.152 228.679 11.749 8.536 4.268-5.875z"/><path fill="#ffb612" d="M189.152 228.679h14.522v7.261z"/><path fill="#ffb612" d="m211.5 244.916-4.487-13.812-6.906 2.244z"/><path fill="#ffb612" d="m211.5 244.916-11.748-8.536 4.268-5.875z"/><path fill="#ffb612" d="m194.428 244.916 11.748-8.536-4.268-5.875z"/><path fill="#ffb612" d="m194.428 244.916 4.487-13.812 6.906 2.244zM238.557 258.051l-4.487 13.811 6.905 2.244z"/><path fill="#ffb612" d="m238.557 258.051 4.488 13.811-6.906 2.244z"/><path fill="#ffb612" d="M252.369 268.086h-14.522v7.261z"/><path fill="#ffb612" d="m252.369 268.086-11.749 8.536-4.268-5.875z"/><path fill="#ffb612" d="m224.745 268.086 11.749 8.536 4.268-5.875z"/><path fill="#ffb612" d="M224.745 268.086h14.522v7.261z"/><path fill="#ffb612" d="m247.094 284.323-4.488-13.812-6.906 2.244z"/><path fill="#ffb612" d="m247.094 284.323-11.749-8.536 4.268-5.875z"/><path fill="#ffb612" d="m230.021 284.323 11.749-8.537-4.268-5.874z"/><path fill="#ffb612" d="m230.021 284.323 4.488-13.812 6.905 2.244zM344.49 295.762l-4.488 13.812 6.906 2.244z"/><path fill="#ffb612" d="m344.489 295.762 4.488 13.812-6.906 2.244z"/><path fill="#ffb612" d="M358.302 305.797h-14.523v7.262z"/><path fill="#ffb612" d="m358.302 305.797-11.749 8.536-4.268-5.874z"/><path fill="#ffb612" d="m330.677 305.797 11.749 8.536 4.268-5.874z"/><path fill="#ffb612" d="M330.677 305.797H345.2v7.262z"/><path fill="#ffb612" d="m353.026 322.035-4.488-13.812-6.906 2.244z"/><path fill="#ffb612" d="m353.026 322.034-11.749-8.536 4.268-5.874z"/><path fill="#ffb612" d="m335.953 322.034 11.749-8.536-4.268-5.874z"/><path fill="#ffb612" d="m335.953 322.034 4.488-13.811 6.906 2.244zM233.896 313.559l-4.487 13.811 6.905 2.244z"/><path fill="#ffb612" d="m233.896 313.559 4.488 13.811-6.906 2.244z"/><path fill="#ffb612" d="M247.708 323.594h-14.522v7.261z"/><path fill="#ffb612" d="m247.708 323.594-11.749 8.536-4.268-5.874z"/><path fill="#ffb612" d="m220.084 323.594 11.749 8.536 4.268-5.874z"/><path fill="#ffb612" d="M220.084 323.594h14.522v7.261z"/><path fill="#ffb612" d="m242.432 339.831-4.487-13.811-6.906 2.244z"/><path fill="#ffb612" d="m242.433 339.831-11.749-8.536 4.268-5.874z"/><path fill="#ffb612" d="m225.36 339.831 11.749-8.536-4.268-5.875z"/><path fill="#ffb612" d="m225.36 339.831 4.488-13.812 6.905 2.244zM313.557 339.83l-4.487 13.812 6.905 2.243z"/><path fill="#ffb612" d="m313.557 339.83 4.488 13.812-6.906 2.243z"/><path fill="#ffb612" d="M327.369 349.865h-14.522v7.261z"/><path fill="#ffb612" d="m327.369 349.865-11.748 8.536-4.268-5.874z"/><path fill="#ffb612" d="m299.745 349.865 11.749 8.536 4.268-5.874z"/><path fill="#ffb612" d="M299.745 349.865h14.522v7.261z"/><path fill="#ffb612" d="m322.094 366.103-4.488-13.812-6.906 2.244z"/><path fill="#ffb612" d="m322.094 366.102-11.749-8.536 4.268-5.874z"/><path fill="#ffb612" d="m305.021 366.102 11.749-8.536-4.268-5.874z"/><path fill="#ffb612" d="m305.021 366.102 4.488-13.811 6.905 2.244z"/></g><defs><clipPath id="a"><path fill="#fff" d="M0 0h600v423.729H0z"/></clipPath></defs></svg>