<svg xmlns="http://www.w3.org/2000/svg" width="600" height="400" fill="none" viewBox="0 0 600 400"><g clip-path="url(#a)"><path fill="#002868" d="M0 0h600v400H0"/><path fill="#fff" d="M0 133.333h600v133.334H0"/><path fill="#bf0a30" d="M376.937 250a133.34 133.34 0 0 1-149.073 80.878A133.33 133.33 0 0 1 120 200a133.334 133.334 0 0 1 256.937-50l-123.604 50"/><path fill="gold" d="M253.333 266.667C290.152 266.667 320 236.819 320 200s-29.848-66.667-66.667-66.667-66.666 29.848-66.666 66.667 29.847 66.667 66.666 66.667"/></g><defs><clipPath id="a"><path fill="#fff" d="M0 0h600v400H0z"/></clipPath></defs></svg>