<svg xmlns="http://www.w3.org/2000/svg" width="600" height="375" fill="none" viewBox="0 0 600 375"><g clip-path="url(#a)"><path fill="#b50027" d="M0 0h600v375H0z"/><path fill="#fff" d="M0 125h600v125H250z"/><path fill="#002d56" d="M0 0h250v250H0z"/><path fill="#fff" d="m130.596 34.183 8.905-6.28-10.899-.157-3.226-10.413-3.51 10.317-10.899-.156 8.729 6.533-3.509 10.317 8.905-6.28 8.729 6.533zm-42.828 7.664 4.967-9.699-9.724 4.926-7.695-7.722 1.686 10.767-9.723 4.926 10.765 1.728 1.687 10.766 4.967-9.698 10.765 1.728zm-34.494 26.9-.109-10.895-6.32 8.88-10.402-3.262 6.496 8.75-6.32 8.88 10.334-3.472 6.496 8.748-.108-10.895 10.334-3.472zM35.5 108.516l-5.159-9.597-1.47 10.8-10.725 1.945 9.816 4.729-1.47 10.799 7.538-7.876 9.817 4.728-5.159-9.597 7.538-7.876zm2.51 43.372-9.026-6.101 3.715 10.246-8.592 6.706 10.89-.374 3.716 10.245 3.014-10.477 10.89-.375-9.027-6.1 3.013-10.476zm22.477 37.484-10.827-1.207 8.05 7.345-4.492 9.931 9.469-5.392 8.05 7.345-2.198-10.677 9.467-5.392-10.827-1.207-2.2-10.677zm37.39 22.507-10.149 3.962 10.542 2.763.636 10.88 5.879-9.174 10.541 2.763-6.908-8.432 5.878-9.174-10.148 3.962-6.908-8.431zm43.336 2.678-7.144 8.223 10.617-2.452 5.62 9.338.942-10.854 10.617-2.452-10.034-4.256.941-10.854-7.144 8.224-10.034-4.256zm39.865-17.726-2.505 10.601 8.262-7.105 9.315 5.657-4.209-10.048 8.261-7.105-10.863.895-4.209-10.048-2.505 10.601-10.862.895zm26.915-34.424 2.708 10.551 4.014-10.13 10.876.681-8.396-6.942 4.014-10.129-9.203 5.839-8.396-6.941 2.709 10.551-9.203 5.839zm-4.915-84.37 10.22 3.765-6.055-9.058 6.738-8.562-10.481 2.965-6.055-9.057-.423 10.89-10.481 2.966 10.22 3.764-.423 10.89zm-30.895-30.929 10.798-1.415-9.57-5.207 1.988-10.712-7.903 7.495-9.569-5.206 4.685 9.839-7.902 7.496 10.799-1.415 4.685 9.838zm43.636 72.57 7.3 8.083-1.152-10.835 9.946-4.451-10.66-2.245-1.152-10.833-5.436 9.446-10.659-2.244 7.301 8.083-5.435 9.446z"/><path fill="#eed000" fill-rule="evenodd" stroke="#eed000" stroke-miterlimit="3.864" stroke-width=".142" d="M79.746 181.425H76.59v-.351l.385-.03q.252-.02.356-.059a.5.5 0 0 0 .237-.173.57.57 0 0 0 .074-.312v-5.083a.7.7 0 0 0-.054-.287q-.055-.119-.257-.198a2.5 2.5 0 0 0-.376-.108 2 2 0 0 0-.365-.065v-.351h3.156v.351a3 3 0 0 0-.365.04q-.213.03-.37.079-.189.06-.253.193a.7.7 0 0 0-.064.297v5.078q0 .163.07.292.073.123.246.197.104.04.336.089.237.045.4.05v.351Zm8.647-6.666a2.3 2.3 0 0 0-.424.079q-.287.075-.41.154-.179.123-.242.474-.06.352-.06.89v5.138h-.43l-4.247-5.741v3.62q0 .608.074.935.08.326.237.464.113.11.47.203.355.094.469.099v.351h-2.875v-.351q.134-.01.45-.094.315-.089.395-.158.172-.138.237-.421.064-.286.064-.974v-3.456q0-.227-.079-.455a.84.84 0 0 0-.212-.351 1.5 1.5 0 0 0-.484-.277 1.7 1.7 0 0 0-.49-.129v-.351h2.001l3.941 5.351v-3.338q0-.613-.079-.94-.078-.331-.227-.44a1.7 1.7 0 0 0-.454-.183 2.5 2.5 0 0 0-.474-.099v-.351h2.85v.351Zm10.337 3.862q-.12.015-.321.05-.198.03-.321.089a.44.44 0 0 0-.213.212.8.8 0 0 0-.059.317v.544q0 .593.005.801.01.207.02.341-.657.297-1.309.455a5.4 5.4 0 0 1-1.28.158q-.67 0-1.293-.252a3.2 3.2 0 0 1-1.087-.717 3.5 3.5 0 0 1-.746-1.142 3.9 3.9 0 0 1-.276-1.503q0-.802.262-1.484.266-.687.75-1.192a3.3 3.3 0 0 1 1.116-.766 3.5 3.5 0 0 1 1.393-.277q.593 0 1.032.143.44.144.776.346l.202-.336h.395l.045 2.453h-.405a7 7 0 0 0-.257-.796 2.8 2.8 0 0 0-.395-.707 1.8 1.8 0 0 0-.593-.495 1.7 1.7 0 0 0-.83-.188 2 2 0 0 0-.943.218 2 2 0 0 0-.72.638 3 3 0 0 0-.465 1.023 5.3 5.3 0 0 0-.163 1.37q0 .667.158 1.261.163.588.469 1.019.307.44.765.692a2.13 2.13 0 0 0 1.043.252q.435 0 .79-.133.36-.133.509-.282.039-.258.04-.519.004-.262.004-.446v-.385q0-.209-.06-.366a.39.39 0 0 0-.231-.238 1.6 1.6 0 0 0-.445-.108 6 6 0 0 0-.434-.05v-.361h3.072v.361Zm6.891-3.382q.465.485.726 1.172.262.682.262 1.513 0 .835-.267 1.518a3.36 3.36 0 0 1-1.807 1.894 3.3 3.3 0 0 1-1.294.257q-.732 0-1.354-.272a3.2 3.2 0 0 1-1.062-.766 3.5 3.5 0 0 1-.701-1.162 4.2 4.2 0 0 1-.252-1.469q0-.855.267-1.523a3.6 3.6 0 0 1 .736-1.162q.464-.484 1.077-.742a3.3 3.3 0 0 1 1.289-.257q.696 0 1.313.262.618.262 1.067.737Zm-.736 4.975q.277-.45.401-1.019.128-.569.128-1.271 0-.722-.143-1.325a3.3 3.3 0 0 0-.41-1.029 1.96 1.96 0 0 0-.682-.653 1.84 1.84 0 0 0-.938-.237q-.593 0-1.008.272a2.1 2.1 0 0 0-.677.727q-.246.435-.37 1.019a6 6 0 0 0-.119 1.226q0 .712.129 1.286.127.573.405 1.018.266.436.672.683.404.242.968.242a1.86 1.86 0 0 0 1.644-.939Zm9.488-2.255q0 .894-.336 1.552a3.2 3.2 0 0 1-.874 1.078 3.8 3.8 0 0 1-1.22.628 4.7 4.7 0 0 1-1.398.208h-2.904v-.351q.143 0 .37-.025a1.3 1.3 0 0 0 .307-.064.4.4 0 0 0 .212-.188.64.64 0 0 0 .069-.306v-5.064a.75.75 0 0 0-.059-.302.4.4 0 0 0-.222-.212 1.3 1.3 0 0 0-.331-.109 3 3 0 0 0-.306-.045v-.351h3.062q.632 0 1.244.198.613.193 1.067.524.618.441.968 1.152.351.712.351 1.677Zm-1.21-.006q0-.706-.188-1.275a2.9 2.9 0 0 0-.548-.999 2.4 2.4 0 0 0-.84-.638 2.6 2.6 0 0 0-1.101-.233q-.202 0-.459.01l-.376.01v5.395q0 .45.262.623.262.174.805.173.627 0 1.097-.222.469-.222.76-.618.306-.415.445-.96.143-.548.143-1.266Zm14.594-3.194a1 1 0 0 0-.287.06 1.3 1.3 0 0 0-.301.133 1.1 1.1 0 0 0-.281.252q-.105.14-.183.391-.351 1.142-.815 2.67a530 530 0 0 1-1.003 3.249h-.454l-1.768-5.4-1.843 5.4h-.434l-1.013-3.59-.701-2.497a.86.86 0 0 0-.366-.49.9.9 0 0 0-.291-.123 1.6 1.6 0 0 0-.296-.055v-.351h2.859v.351q-.375.02-.642.074-.261.056-.261.183 0 .05.014.134l.025.129q.114.435.4 1.439.291.998.86 2.996l1.748-5.207h.484l1.763 5.321q.31-1.07.613-2.141.256-.92.424-1.573.119-.46.149-.628.029-.172.029-.292 0-.168-.232-.281-.227-.114-.741-.154v-.351h2.544zm6.805 4.599-.133 2.067h-5.818v-.351q.197-.015.395-.04.246-.035.321-.069a.44.44 0 0 0 .217-.193.6.6 0 0 0 .064-.301v-5.044a.7.7 0 0 0-.054-.287q-.054-.129-.227-.208a1.7 1.7 0 0 0-.361-.114 3 3 0 0 0-.355-.059v-.351h5.423v1.691h-.371q-.099-.375-.429-.796-.326-.424-.623-.465a5 5 0 0 0-.365-.029 10 10 0 0 0-.484-.01h-1.102v2.789h.791q.38 0 .553-.07a.8.8 0 0 0 .311-.242q.108-.142.183-.381.078-.242.103-.455h.371v2.745h-.371a2 2 0 0 0-.108-.5 1.2 1.2 0 0 0-.178-.385.7.7 0 0 0-.351-.252 1.8 1.8 0 0 0-.513-.06h-.791v2.107q0 .316.045.499.044.184.173.277a.75.75 0 0 0 .35.124q.223.025.633.025h.429q.267 0 .45-.02.195-.02.385-.07a.6.6 0 0 0 .286-.143q.228-.237.475-.717.25-.484.321-.712zm10.308-3.046h-.34a2.2 2.2 0 0 0-.163-.42 3.5 3.5 0 0 0-.257-.465 2.2 2.2 0 0 0-.326-.396q-.173-.173-.336-.198a5 5 0 0 0-.385-.029 10 10 0 0 0-.43-.01h-.286v5.612q0 .164.069.302a.47.47 0 0 0 .242.208q.089.034.37.094.286.059.445.064v.351h-3.309v-.351q.138-.01.419-.039.287-.03.396-.075a.47.47 0 0 0 .237-.183.6.6 0 0 0 .079-.326v-5.657h-.287a8 8 0 0 0-.38.01q-.217.005-.435.029-.162.021-.341.198a2.7 2.7 0 0 0-.321.396 3 3 0 0 0-.261.475 2.6 2.6 0 0 0-.158.41h-.346v-1.904h6.104v1.904Zm7.966 5.113h-1.886a43 43 0 0 0-1.136-1.701 38 38 0 0 0-1.097-1.479h-.716v2.226q0 .173.054.306.055.129.233.198.089.035.311.064.222.03.375.035v.351h-2.963v-.351q.118-.01.34-.035.227-.025.317-.064a.4.4 0 0 0 .212-.188.64.64 0 0 0 .069-.316v-5.074a.9.9 0 0 0-.049-.307q-.05-.133-.232-.202a2 2 0 0 0-.321-.079 3 3 0 0 0-.336-.05v-.351h3.235q.444 0 .834.094a2.2 2.2 0 0 1 .707.292q.306.198.489.519.182.316.182.766 0 .406-.123.717c-.08.205-.205.389-.365.539a2.2 2.2 0 0 1-.534.371q-.31.154-.686.262.518.688.859 1.158.346.47.845 1.142.216.297.39.44.177.138.35.227.129.065.321.099.193.035.321.04v.351Zm-2.598-5.232q0-.637-.365-1.009-.366-.375-1.032-.375h-.84v3.011h.647q.682 0 1.136-.435.454-.44.454-1.192Zm9.928-1.434a3 3 0 0 0-.405.06q-.267.054-.435.163-.168.114-.232.47a5 5 0 0 0-.064.87v3.051q0 .584-.242 1.014a2.14 2.14 0 0 1-.637.707 2.6 2.6 0 0 1-.825.38q-.43.12-.825.119-.633 0-1.126-.168a2.5 2.5 0 0 1-.83-.445 1.807 1.807 0 0 1-.667-1.405v-4.148a.6.6 0 0 0-.059-.287.52.52 0 0 0-.227-.218 1.1 1.1 0 0 0-.316-.108 2 2 0 0 0-.317-.055v-.351h2.919v.351a2.5 2.5 0 0 0-.35.045 2 2 0 0 0-.306.074.36.36 0 0 0-.228.198.8.8 0 0 0-.054.301v3.877q0 .282.059.594.064.306.247.573.193.273.524.445.33.174.909.173.543 0 .908-.173.37-.173.583-.455.203-.267.287-.558a2.2 2.2 0 0 0 .084-.589v-2.878q0-.549-.079-.895-.08-.35-.233-.46a1.4 1.4 0 0 0-.474-.193 3 3 0 0 0-.454-.079v-.351h2.865v.351Zm5.198 3.447q.222.247.326.544.108.291.108.682 0 .93-.686 1.533-.687.603-1.704.603-.47 0-.939-.143a3.8 3.8 0 0 1-.81-.356l-.212.361h-.395l-.069-2.403h.4q.123.444.286.806.168.356.44.667c.167.192.37.35.597.465q.346.173.801.173.34 0 .592-.089.257-.088.415-.252c.105-.108.184-.238.232-.381q.08-.222.079-.509 0-.42-.237-.781a1.45 1.45 0 0 0-.706-.554 31 31 0 0 0-.736-.282 12 12 0 0 1-.716-.297q-.592-.267-.924-.697-.326-.435-.326-1.132 0-.4.163-.747.164-.347.465-.618.286-.257.676-.401a2.3 2.3 0 0 1 .815-.148q.484 0 .864.148.386.149.702.346l.202-.336h.395l.04 2.329h-.4a9 9 0 0 0-.247-.766 2.7 2.7 0 0 0-.351-.663 1.6 1.6 0 0 0-.518-.455 1.5 1.5 0 0 0-.751-.173q-.47 0-.8.302a.96.96 0 0 0-.331.737q0 .454.212.756.213.297.618.49.346.167.706.301.35.125.677.267.293.128.568.292.276.163.479.381Zm7.585-1.894h-.341a2.2 2.2 0 0 0-.162-.42 3.5 3.5 0 0 0-.257-.465 2.2 2.2 0 0 0-.326-.396q-.173-.173-.336-.198a5 5 0 0 0-.385-.029 10 10 0 0 0-.43-.01h-.287v5.612q0 .164.07.302a.46.46 0 0 0 .242.208q.088.034.37.094.287.059.444.064v.351h-3.309v-.351q.138-.01.42-.039.287-.03.395-.075a.46.46 0 0 0 .237-.183.6.6 0 0 0 .079-.326v-5.657h-.286a8 8 0 0 0-.38.01 5 5 0 0 0-.435.029q-.163.021-.341.198a2.7 2.7 0 0 0-.321.396 3 3 0 0 0-.262.475 3 3 0 0 0-.158.41h-.345v-1.904h6.104z" clip-rule="evenodd"/><path fill="#eed000" d="m125.251 92.551.022-.008c.006-.002.872.31.879 1.667q1.15-.217.929 1.214s-.91-.246-1.059.273q-.334.9.51 1.466s.947.75 1.542-.672c.595-1.421.81-1.904.81-1.904.165-.524 1.151-1.751 2.046-1.923.341-.137.668-.11 1.032-.023 0 0 .784.17.806.824.022.655-.245.94-.687 1.13-.488.21-1.091-.241-1.091-.241-.211-.04-.278.033-.407.123-.059.041-.307.313-.451.62 0 0-.435.919-.642 1.62-.163.553-.524 2.225-2.216 2.476h-3.995c-1.693-.25-2.053-1.922-2.217-2.475-.207-.702-.642-1.621-.642-1.621-.143-.307-.391-.579-.451-.62-.129-.09-.196-.162-.406-.123 0 0-.603.45-1.092.24-.442-.19-.709-.474-.687-1.129.023-.654.806-.824.806-.824.364-.087.691-.114 1.032.023.895.172 1.881 1.399 2.047 1.922 0 0 .214.484.809 1.905s1.542.672 1.542.672q.845-.567.51-1.466c-.148-.52-1.058-.273-1.058-.273q-.222-1.43.928-1.214c.007-1.357.873-1.669.879-1.667l.023.008z"/><path fill="#eed000" fill-rule="evenodd" stroke="#002d56" stroke-miterlimit="3.864" stroke-width=".737" d="M130.221 138.191h-9.67l1.141-37.733h7.433zm-.041 20.982h-10.269l-.001-17.135 10.27-.003z" clip-rule="evenodd"/><path fill="#eed000" stroke="#002d56" stroke-miterlimit="3.864" stroke-width=".737" d="M119.743 140.084h10.41c.725 0 1.313.442 1.313.988 0 .545-.588.987-1.313.987h-10.41c-.726 0-1.313-.442-1.313-.987 0-.546.587-.988 1.313-.988Z"/><path fill="#eed000" fill-rule="evenodd" stroke="#002d56" stroke-miterlimit="3.864" stroke-width=".737" d="M120.515 138.232h9.087c.646 0 1.169.415 1.169.926s-.523.927-1.169.927h-9.087c-.646 0-1.169-.415-1.169-.927 0-.511.523-.926 1.169-.926Z" clip-rule="evenodd"/><path stroke="#002d56" stroke-miterlimit="3.864" stroke-width=".737" d="M122.229 145.248h5.486v11.297h-5.486z"/><path fill="#eed000" stroke="#002d56" stroke-miterlimit="3.864" stroke-width=".425" d="M122.115 99.142h6.302c.518 0 .938.306.938.682s-.42.681-.938.681h-6.302c-.518 0-.938-.305-.938-.681s.42-.682.938-.682Z"/><path fill="#eed000" fill-rule="evenodd" stroke="#002d56" stroke-miterlimit="3.864" stroke-width=".868" d="M73.587 161.224h104.665v3.529H73.587z" clip-rule="evenodd"/><path fill="#eed000" stroke="#002d56" stroke-miterlimit="3.864" stroke-width=".521" d="M69.121 164.723H182.79v3.737H69.121z"/><path fill="#eed000" fill-rule="evenodd" stroke="#002d56" stroke-miterlimit="3.864" stroke-width=".829" d="M76.682 84.589h97.724v2.162H76.682z" clip-rule="evenodd"/><path fill="#eed000" fill-rule="evenodd" stroke="#002d56" stroke-linejoin="round" stroke-miterlimit="3.864" stroke-width=".425" d="M155.999 84.522c-5.063-12.13-16.814-20.604-30.502-20.604-13.68 0-25.424 8.487-30.492 20.604H82.857c5.619-18.643 22.603-32.31 42.64-32.31 20.051 0 37.045 13.641 42.658 32.304z" clip-rule="evenodd"/><path fill="#eed000" fill-rule="evenodd" stroke="#002d56" stroke-miterlimit="3.864" stroke-width=".521" d="M79.308 86.778s1.689 1.01 3.095 4.019l86.939-.004s1.429-3.363 3.399-4.022z" clip-rule="evenodd"/><path fill="#eed000" fill-rule="evenodd" stroke="#002d56" stroke-linejoin="round" stroke-miterlimit="3.864" stroke-width=".425" d="M100.876 91.578s8.054 13.822 24.431 13.632c16.178-.188 24.432-13.162 24.432-13.162l4.314 6.393s1.594 2.162-1.501 4.889c-10.933 9.631-19.594 11.524-27.244 11.469q-16.948-.927-27.339-11.469c-1.246-1.036-1.5-2.398-1.125-3.526z" clip-rule="evenodd"/><path stroke="#002d56" stroke-miterlimit="3.864" stroke-width=".553" d="M96.68 101.238s-.493-2.797 3.915-.54l.328-9.073m53.435 7.71c-1.407-3.032-3.986.681-3.986.681l-.65-7.92"/><path fill="#eed000" stroke="#002d56" stroke-miterlimit="3.864" stroke-width=".434" d="M81.933 90.96h87.408c.311 0 .563.263.563.587v.195a.575.575 0 0 1-.563.587H81.933a.575.575 0 0 1-.563-.587v-.195c0-.325.252-.587.563-.587Z"/><path fill="#eed000" d="m89.659 92.443.023-.008c.005-.002.871.31.879 1.666q1.149-.215.928 1.214s-.91-.246-1.059.273q-.335.9.51 1.466s.947.75 1.542-.671.81-1.905.81-1.905c.165-.524 1.151-1.75 2.047-1.923.34-.136.667-.11 1.031-.022 0 0 .784.17.806.824s-.245.94-.687 1.13c-.488.21-1.091-.241-1.091-.241-.21-.04-.278.033-.407.123-.06.04-.307.313-.45.62 0 0-.435.918-.643 1.62-.163.553-.523 2.225-2.216 2.476h-3.995c-1.693-.251-2.053-1.923-2.216-2.476-.208-.702-.642-1.62-.642-1.62-.144-.307-.392-.58-.452-.62-.129-.09-.196-.163-.406-.123 0 0-.603.45-1.092.24-.441-.19-.709-.475-.686-1.13s.805-.823.805-.823c.365-.087.691-.114 1.032.022.895.172 1.881 1.4 2.047 1.923 0 0 .214.484.81 1.905.595 1.421 1.541.671 1.541.671q.845-.566.51-1.466c-.148-.519-1.058-.273-1.058-.273q-.221-1.429.928-1.214c.007-1.356.873-1.668.879-1.666q.001 0 .023.008z"/><path fill="#eed000" fill-rule="evenodd" stroke="#002d56" stroke-miterlimit="3.864" stroke-width=".737" d="M94.52 138.191h-9.67l1.285-37.733h7.144zm.3 20.982H84.55v-17.135l10.27-.003z" clip-rule="evenodd"/><path fill="#eed000" fill-rule="evenodd" stroke="#002d56" stroke-miterlimit="3.864" stroke-width=".737" d="M84.479 140.085h10.41c.725 0 1.313.441 1.313.987 0 .545-.588.987-1.313.987H84.48c-.725 0-1.313-.442-1.313-.987 0-.546.588-.987 1.313-.987Zm.661-1.853h9.088c.646 0 1.169.415 1.169.926s-.523.927-1.17.927H85.14c-.645 0-1.169-.415-1.169-.927 0-.511.524-.926 1.17-.926Z" clip-rule="evenodd"/><path stroke="#002d56" stroke-miterlimit="3.864" stroke-width=".737" d="M86.941 145.248h5.487v11.297H86.94z"/><path fill="#eed000" stroke="#002d56" stroke-miterlimit="3.864" stroke-width=".425" d="M86.534 99.287h6.302c.518 0 .938.305.938.681s-.42.682-.938.682h-6.302c-.518 0-.938-.305-.938-.681s.42-.682.938-.682Z"/><path fill="#eed000" fill-rule="evenodd" stroke="#002d56" stroke-miterlimit="3.864" stroke-width=".354" d="M82.37 159.217H97v1.974H82.37z" clip-rule="evenodd"/><path fill="#eed000" d="m161.371 92.551.023-.008c.005-.002.871.31.879 1.667q1.15-.217.928 1.214s-.91-.246-1.059.273q-.335.9.511 1.466s.946.75 1.541-.672c.596-1.421.81-1.904.81-1.904.166-.524 1.151-1.751 2.047-1.923.341-.137.667-.11 1.031-.023 0 0 .784.17.806.824.022.655-.245.94-.687 1.13-.488.21-1.091-.241-1.091-.241-.21-.04-.278.033-.407.123-.059.041-.307.313-.451.62 0 0-.435.919-.642 1.62-.163.553-.523 2.225-2.216 2.476h-3.995c-1.693-.25-2.053-1.922-2.216-2.475-.208-.702-.643-1.621-.643-1.621-.143-.307-.391-.579-.451-.62-.129-.09-.196-.162-.406-.123 0 0-.603.45-1.092.24-.441-.19-.709-.474-.686-1.129.022-.654.805-.824.805-.824.364-.087.691-.114 1.032.023.895.172 1.881 1.399 2.047 1.922 0 0 .214.484.809 1.905s1.542.672 1.542.672q.844-.567.51-1.466c-.148-.52-1.058-.273-1.058-.273q-.222-1.43.928-1.214c.007-1.357.873-1.669.879-1.667l.023.008z"/><path fill="#eed000" fill-rule="evenodd" stroke="#002d56" stroke-miterlimit="3.864" stroke-width=".737" d="M166.415 138.191h-9.671l1.286-37.733h7.144zm.534 20.982H156.68l-.109-17.135 10.378-.003z" clip-rule="evenodd"/><path fill="#eed000" stroke="#002d56" stroke-miterlimit="3.864" stroke-width=".737" d="M156.584 140.084h10.411c.725 0 1.313.442 1.313.988 0 .545-.588.987-1.313.987h-10.411c-.725 0-1.313-.442-1.313-.987 0-.546.588-.988 1.313-.988Z"/><path fill="#eed000" fill-rule="evenodd" stroke="#002d56" stroke-miterlimit="3.864" stroke-width=".737" d="M157.113 138.232h9.088c.646 0 1.169.415 1.169.926s-.523.927-1.169.927h-9.088c-.645 0-1.169-.415-1.169-.927 0-.511.524-.926 1.169-.926Z" clip-rule="evenodd"/><path stroke="#002d56" stroke-miterlimit="3.864" stroke-width=".737" d="M158.977 145.248h5.486v11.297h-5.486z"/><path fill="#eed000" stroke="#002d56" stroke-miterlimit="3.864" stroke-width=".425" d="M158.38 99.142h6.303c.518 0 .938.306.938.682s-.42.681-.938.681h-6.303c-.518 0-.938-.305-.938-.681s.42-.682.938-.682Z"/><path fill="#eed000" fill-rule="evenodd" stroke="#002d56" stroke-miterlimit="3.864" stroke-width=".354" d="M117.492 159.217h14.631v1.974h-14.631z" clip-rule="evenodd"/><path fill="#eed000" fill-rule="evenodd" stroke="#002d56" stroke-miterlimit="3.864" stroke-width=".645" d="M63.176 132.463c-2.486-1.786-5.111-1.316-5.111-1.316s1.897-2.527 4.923-1.269c1.923.799 3.564 3.76 8.44.658 4.878-3.103 6.77-4.67 11.068-6.111 4.415-1.48 7.878-1.786 8.91-2.162 1.03-.376 2.645-.966 3.47-5.923.187-1.128 4.688 9.401 4.688 9.401s-.656 3.479-4.97 5.453-11.79 3.155-15.944 6.487c-1.407 1.128-4.11 3.079-5.744 5.476-3.845 5.641-7.855 6.276-7.855 6.276s3.636-3.184 4.643-7.474c.187-.8-.12-4.394 1.313-5.829-1.52 1.524-5.37-1.479-4.877-1.081 0 0-.469-.8-2.954-2.586Zm93.082-16.033s.75 4.278 9.144 6.44 9.707 4.889 11.067 5.547 4.893 3.192 8.675 1.927c1.49-.498 5.653-1.645 5.993-1.39.127.212-1.189 2.421-1.351 2.613-2.785 3.3-3.845 3.807-4.877 4.324-2.253 1.129-2.427 1.266-4.032 1.363 0 0 1.5 1.881 1.735 4.936.234 3.055 4.314 6.158 4.314 6.158s-5.44-1.41-7.831-4.654-6.331-6.017-7.784-6.722c-1.454-.705-8.863-3.243-10.411-3.854-1.547-.611-6.377-3.15-7.034-7.239-.656-4.09 2.392-9.449 2.392-9.449Z" clip-rule="evenodd"/><path fill="#eed000" stroke="#002d56" stroke-miterlimit="3.864" stroke-width=".645" d="M76.676 119.72c-5.698-2.233-3.938-3.74-3.938-3.74 1.402-2.507 3.238-5.655 10.18-8.326 9.285-3.572 18.757-1.974 16.225 2.163-1.54 2.514-4.197 6.91-4.197 6.91s-1.102-2.962-6.166-1.082c-5.065 1.881-6.628 2.677-6.928 3.671-.47 1.551-.282 2.539 3.376 1.974-2.392.8-5.056-.034-8.047-1.365z"/><path fill="#eed000" stroke="#002d56" stroke-linejoin="round" stroke-miterlimit="3.864" stroke-width=".553" d="M163.503 115.504c1.053.271 2.85 1.144 3.91 1.905 5.161 3.707 4.211 6.941 2.78 7.025-1.594.094 10.121-.234 11.528-.986 1.406-.752 1.875-1.598 1.031-3.384s-7.221-12.692-17.631-14.76-14.536 2.321-13.646 3.807c.844 1.411 4.689 6.111 4.83 8.038 1.068-2.016 3.47-2.591 7.198-1.645Z"/><path fill="#002d56" fill-rule="evenodd" d="m158.514 113.484-2.01-2.887.524 3.137-.807.135-.912-5.465.865-.145 2.61 3.654 1.312-4.312.766-.128.912 5.464-1.068.179-.523-3.136-1.066 3.403zm8.295-2.094q-.261 1.285-.977 1.843-.717.555-1.668.36-.941-.192-1.387-.983-.446-.796-.189-2.062l.063-.31q.24-1.18.933-1.814.696-.633 1.747-.419 1.026.208 1.398 1.072.375.862.139 2.022zm-1.151-.31.03-.147q.204-1.005.139-1.523-.066-.519-.683-.645-.569-.116-.844.277-.272.394-.498 1.506l-.027.133q-.227 1.12-.144 1.571.081.452.689.575.498.102.811-.303.315-.404.527-1.444m5.593 2.707q-.642 1.185-1.399 1.516-.754.333-1.626-.142l-1.691-.92 2.637-4.87 1.517.826q1.04.566 1.145 1.438.111.871-.477 1.955zm-1.029-.601.072-.133q.433-.8.4-1.366-.034-.566-.487-.812l-.388-.212-1.851 3.418.477.259q.443.242.85.024.408-.22.927-1.178m4.04.83-1.04 1.06 1.115 1.098-.586.598-1.114-1.098-1.094 1.115 1.536 1.514-.577.59-2.381-2.346 3.875-3.952 2.278 2.245-.577.589zm.553 8.76-.594-1.01q1.145-.692 1.521-1.181.38-.487.13-.915l-.141-.24-2.14 1.263-.601-1.022 4.763-2.812 1.049 1.785q.383.653.245 1.098-.136.449-.568.704l-.259.153q-.407.24-.793.149-.385-.093-.709-.541.147.633-.273 1.242-.415.61-1.63 1.327m2.716-3.126.129-.076q.31-.183.35-.417.04-.235-.139-.542l-.196-.333-1.26.743.163.277q.213.363.444.438.23.074.509-.09m-17.67 9.965-.979-.713.467-1.303-1.402-1.021-1.1.841-.78-.568 4.678-3.441.893.65zm-.246-2.812.672-2.03-1.685 1.292zm6.399.511-1.026-.502-2.061 4.238-1.064-.52 2.062-4.238-1.051-.514.361-.742 3.14 1.535zm2.538.108-2.16 5.101-1.089-.464 2.16-5.1zm4.189 5.065q-.532 1.198-1.353 1.587-.819.387-1.705-.01-.877-.391-1.143-1.261-.263-.873.261-2.054l.128-.289q.489-1.1 1.303-1.569.816-.467 1.796-.03.956.428 1.133 1.35.18.924-.3 2.005zm-1.058-.552.061-.138q.415-.935.465-1.456.048-.522-.527-.778-.531-.237-.885.087-.35.327-.81 1.363l-.056.124q-.463 1.043-.48 1.502t.549.711a.76.76 0 0 0 .857-.12q.396-.326.826-1.295m4.75 2.886 1.636-2.84.729.423-2.763 4.798-.44-.254-.539-4.332-1.737 3.015-.729-.422 2.764-4.799.548.317zm-94.412-18.352-.734.442-4.09-4 1.025-.618 2.585 2.538-.911-3.546.719-.433 2.7 2.468-1.07-3.451.821-.494 1.6 5.5-.734.443-2.8-2.525zm4.092-7.845 1.616 5.299-1.131.347-1.616-5.299zm6.356 2.828q.122.873-.37 1.369-.494.492-1.475.63a5.6 5.6 0 0 1-.958.065 3 3 0 0 1-.662-.085l-.132-.946q.215.1.65.15.435.046.841-.011.573-.08.764-.271.195-.19.142-.561a.65.65 0 0 0-.214-.404q-.181-.163-.951-.367-.615-.165-.984-.503-.372-.34-.464-1.002-.09-.633.36-1.141.452-.508 1.355-.636.437-.061.796-.034.362.023.511.061l.118.837a11 11 0 0 0-.609-.052 3.3 3.3 0 0 0-.631.03q-.469.066-.654.248a.46.46 0 0 0-.154.41q.042.291.217.419.176.128.971.311.742.171 1.096.543.357.369.437.94m17.106-3.767a1.35 1.35 0 0 1-.747.686q-.487.183-1.129-.144a3.2 3.2 0 0 1-.578-.362 1.4 1.4 0 0 1-.301-.33l.384-.756q.095.114.268.264.176.148.38.252a.57.57 0 0 0 .388.058q.197-.04.329-.301l1.88-3.698 1.054.539zm6.006 2.214q-.28.73-.864.982-.583.248-1.477-.096-.958-.369-1.208-.972-.249-.604.084-1.474l1.333-3.48 1.105.425-1.387 3.62q-.162.421-.064.703.101.279.546.45.413.16.683.047.274-.111.46-.598l1.379-3.6.819.315zm5.846 1.195q-.107.875-.711 1.226-.603.347-1.587.226a5.5 5.5 0 0 1-.942-.186 3 3 0 0 1-.617-.254l.116-.947q.181.151.589.313.408.158.816.207.573.07.807-.063.237-.133.283-.505a.66.66 0 0 0-.103-.446q-.133-.205-.824-.601-.55-.32-.821-.741-.27-.425-.189-1.089.078-.635.642-1.008.569-.375 1.473-.263.44.054.778.174.343.115.478.192l-.103.838q-.283-.112-.574-.208a3.2 3.2 0 0 0-.618-.135q-.47-.058-.695.07a.46.46 0 0 0-.254.357q-.036.292.101.46.136.168.858.553.67.357.917.809.25.448.18 1.021m5.45-2.752-1.141-.02-.083 4.714-1.182-.021.082-4.714-1.169-.02.014-.826 3.493.061zm3.227-1.134.674 5.499-1.174.145-.674-5.5zm6.615 3.851q-.092.117-.375.284a3 3 0 0 1-.685.295q-1.016.311-1.859-.153-.842-.468-1.232-1.749l-.066-.215q-.363-1.194.064-2.116a2.21 2.21 0 0 1 1.414-1.224q.422-.13.721-.163.299-.038.48-.001l.257.843q-.168-.037-.433-.025a2.4 2.4 0 0 0-.592.112q-.612.187-.805.796-.19.607.08 1.492l.023.074q.29.948.747 1.303.46.355 1.016.184a2.4 2.4 0 0 0 .619-.274q.242-.162.377-.281zm1.639-5.871.673 1.325 1.392-.711.379.746-1.392.711.709 1.394 1.919-.98.374.736-2.973 1.519-2.51-4.937 2.846-1.454.375.736zm-58.274 26.383q.652 1.179.524 1.998-.126.816-.992 1.298l-1.683.935-2.681-4.847 1.51-.838q1.033-.576 1.825-.196.791.375 1.389 1.454zm-1.059.546-.072-.131q-.441-.797-.936-1.072-.495-.276-.944-.026l-.387.215 1.882 3.402.475-.264q.441-.245.476-.706.034-.464-.494-1.418m6.047-2.629q.51 1.207.235 2.074-.276.863-1.17 1.244-.885.376-1.7-.023-.816-.402-1.32-1.592l-.123-.291q-.47-1.108-.257-2.025.216-.918 1.203-1.338.964-.41 1.758.09.797.498 1.258 1.587zm-1.124.398-.059-.138q-.4-.944-.746-1.334-.347-.392-.927-.144-.535.227-.54.708 0 .478.442 1.524l.053.125q.444 1.052.768 1.376.323.326.893.083a.765.765 0 0 0 .497-.71q.033-.512-.381-1.49m5.479 1.005-2.5-2.472 1.084 2.988-.768.281-1.89-5.207.823-.301 3.23 3.116.507-4.48.73-.266 1.89 5.207-1.017.371-1.085-2.988-.429 3.541zm7.287-54.842q-.004.171-.15.527-.141.358-.424.762-.714 1.02-1.792 1.223-1.08.2-2.298-.654l-.204-.142q-1.134-.795-1.367-1.927-.23-1.136.46-2.12.297-.425.546-.673.246-.252.435-.352l.802.56q-.178.09-.41.295a3 3 0 0 0-.463.532q-.43.615-.196 1.296.237.678 1.078 1.267l.07.05q.902.63 1.556.611.658-.022 1.048-.58.264-.376.378-.695a5 5 0 0 0 .153-.524zm3-7.4q1.047 1.011 1.116 2.042.067 1.028-.722 1.845-.782.81-1.814.781-1.035-.03-2.067-1.027l-.252-.243q-.961-.93-1.118-1.98-.155-1.056.718-1.959.852-.882 1.903-.739 1.055.14 1.999 1.052zm-1.027.947-.12-.116q-.818-.79-1.35-1.032-.531-.24-1.043.29-.474.489-.277.99.199.498 1.105 1.373l.108.104q.912.88 1.39 1.066.48.184.983-.338.414-.427.231-.972-.18-.547-1.027-1.365m6.508-4.726-2.139-2.944.798-.58 3.614 4.975-.481.35-4.76-1.317 2.271 3.125-.798.58-3.614-4.975.6-.436zm7.659-3.116q.414.886.021 1.587-.395.696-1.447 1.187a7 7 0 0 1-1.049.404 3.8 3.8 0 0 1-.766.141l-.447-.96q.27.03.773-.068.5-.104.936-.307.613-.285.766-.555.158-.27-.018-.648a.7.7 0 0 0-.368-.354q-.254-.11-1.178-.058-.738.039-1.258-.191-.523-.233-.836-.905-.3-.644.04-1.34.344-.7 1.311-1.152a4.6 4.6 0 0 1 .879-.315 4 4 0 0 1 .59-.113l.396.85q-.35.069-.695.157a4 4 0 0 0-.696.253q-.502.234-.652.492-.15.259-.041.491.138.295.375.37t1.183-.008q.88-.078 1.395.195.516.267.786.847m5.321-5.094-1.291.346 1.354 5.054-1.338.359-1.355-5.054-1.322.354-.238-.886 3.952-1.058zm3.591-1.368 1.383-.096.429 6.134-1.382.096zm8.789 1.078-1.333-.094-.365 5.22-1.382-.097.365-5.22-1.366-.095.064-.914 4.081.285zm6.728 5.265q-.254.83-.909 1.145-.654.311-1.725-.016-1.15-.351-1.499-1.008-.349-.656-.046-1.646l1.209-3.956 1.325.406-1.258 4.115q-.147.48-.006.786.146.305.679.468.495.15.799.01.306-.14.476-.694l1.251-4.092.982.3zm7.723-.386-1.191-.607-2.375 4.662-1.235-.63 2.376-4.661-1.22-.622.416-.817 3.646 1.858zm3.398 1.096 1.121.814-3.615 4.975-1.121-.814zm5.393 8.995q-1.03 1.029-2.06 1.08-1.029.049-1.833-.754-.795-.796-.749-1.827.049-1.035 1.063-2.049l.248-.248q.945-.944 1.999-1.083 1.058-.136 1.945.752.868.867.706 1.916-.157 1.051-1.086 1.98zm-.928-1.043.118-.118q.804-.804 1.055-1.332.25-.526-.271-1.048-.481-.482-.985-.294-.502.19-1.392 1.08l-.107.107q-.895.896-1.089 1.372-.193.475.32.988.42.42.968.248.55-.17 1.383-1.003m4.744 6.398 2.944-2.14.579.798-4.975 3.615-.349-.482 1.317-4.76-3.126 2.271-.579-.797 4.975-3.615.436.6z" clip-rule="evenodd"/><path fill="#eed000" fill-rule="evenodd" stroke="#eed000" stroke-miterlimit="3.864" stroke-width=".142" d="M145.235 121.437s.339-.373.449-.101.133.504.039.606-.083.165-.216.336-.074.268-.203.35-.188.045-.329.038l-.058.423-.092.353.053.34.242.541-.185-.405.258.442c.196.515 2.052 1.033 2.725 1.334 1.4.626 1.181 3.604 1.329 3.898s.737 4.238.737 4.901c0 .664-.737 4.238-.811 4.975l-.22 2.137c-.018.176-.271-.055-.351.103-.106.21-.09.814-.065 1.014-.044.434-.168.772-.188.993-.074.811-.821.887-.821.887s-.026 2.772-.174 3.435c-.147.664-.247.79-.026 2.632s-.295 4.127-.295 4.127-.761 3.359-.908 3.875.097.989.171 1.358c.074.368.074.958.074.958h-6.48c-.165 0 .114-.583.332-.995.101-.191.405-.479.847-.553.442-.073.479-.552.737-1.142s.148-1.842-.074-2.616-.515-2.653-.515-3.317c0-.663-.366-2.174-.735-3.205-.368-1.032-.552-3.28-.552-3.501 0-.096-.042-.221-.12-.416-.101-.253-.118-.624-.325-1.205-.369-1.032-.335-2.285-.371-3.353-.037-1.069-.443-2.248-.629-2.509l-.114-.462-1.137.354-1.098.861c-.242.218-.506.255-.95.295-.861.076-1.721-.933-1.922-2.392-.223-1.613.095-2.304 1.89-2.298l.797.002.693.023h.336s.201.392-.112.531c-.313.138-.403.161-.403.161l.401.459c-.008.001.217-.151.884-.516l.249-.58c.018-.369.046-.452-.028-.857-.073-.405-.216-2.736-.216-3.288 0-.553.016-1.207.072-1.845.051-.58.043-1.874.325-2.423.35-.682 2.243-.977 2.243-.977s.819-.089.929-.311c.042-.082.247-.435.335-.573-.527-.187-.7-.835-.777-.993-.08-.164-.221-.921-.239-.994-.028-.109-.193-.794-.285-1.065s-.014-.765-.014-.765l-.599-.066-.725-.055s-.405-.057-.51-.098a5 5 0 0 0-.455-.113s-.576-.493-.005-.889 1.242-.763 1.352-.829.154-.173.154-.173l-.01-.143c-.132-.202-.259-.475-.423-1.07-.164-.594 1.395-.842 1.395-.842.452-.039 1.965.162 1.809.127.316.07.522.059 1.126.055s1.391.215 1.83.309.886.5 1.113.92 1.143.952 1.414 1.215c.408.397.894 1.23 1.082 1.534.327.532-.026.405-.136.47-.511.304-3.358-.338-3.11-.307.204.025.156-.048-.064-.166l-.002.2-.166.627z" clip-rule="evenodd"/><path stroke="#002d56" stroke-miterlimit="3.864" stroke-width=".354" d="M142.208 129.408c.091-1.509.215-2.753.442-3.722.074-.313 0-.46 0-.46-.392-.01-.656-.039-1.062-.509"/><path stroke="#002d56" stroke-miterlimit="3.864" stroke-width=".425" d="m139.723 145.867.086-.625s.194-.358.121-1.058 0-2.653.184-3.648c.174-.942 1.652-3.869 1.8-4.643.127-.667.147-2.911.147-3.095 0-.061-.073-.274-.037-1.105"/><path stroke="#002d56" stroke-linejoin="round" stroke-miterlimit="3.864" stroke-width=".471" d="m141.658 124.339-.334.573s-2.822.606-3.172 1.288c-.282.55-.398 3.715-.398 4.268s.143 2.883.217 3.288c.073.406.046.488.027.857"/><path stroke="#002d56" stroke-miterlimit="3.864" stroke-width=".425" d="M143.277 133.572c.037.295-.039 2.183.737 3.39.332.516 1.781 3.326 2.101 3.685.191.215.682.298.805.591.641 1.513-.036 3.002.869 3.219l.253.868"/><path stroke="#002d56" stroke-miterlimit="3.864" stroke-width=".354" d="M145.293 124.311c-.154.212-1.184.831-1.79.831-.222 0-.091.452-.189.987-.103.562-.11 3.758-.037 4.164.03.164-.028.248-.036.773"/><path stroke="#002d56" stroke-linecap="round" stroke-linejoin="round" stroke-miterlimit="3.864" stroke-width=".425" d="m146.254 128.262.376 1.478.516 2.727.184 1.658.037 1.474-.037 1.252-.147.885-.184.81-.332 2.653c1.068-.257 1.772-.007 2.284.406"/><path stroke="#002d56" stroke-miterlimit="3.864" stroke-width=".425" d="m139.201 125.549.072.253c-.1-.555 1.683 7.328 7.763 11.013l.295.184"/><path stroke="#002d56" stroke-miterlimit="3.864" stroke-width=".425" d="M140.395 125.224c.638 2.029 2.55 7.102 6.917 9.748l.055.369m-6.053 1.955c1.121.234 1.845.234 2.857-.037m-1.102 5.778c.22 1.532.493 3.361.577 3.653.147.516.294 3.095.294 3.095l.074 2.506.074 3.169v3.685q-.907.635-.954 1.895"/><path stroke="#002d56" stroke-linejoin="round" stroke-miterlimit="3.864" stroke-width=".392" d="M137.007 135.153c-.376.565-2.233-.508-2.327 1.094-.073 1.232.166 2.623 1.357 2.776l.876-.58.235-.235"/><path fill="#eed000" fill-rule="evenodd" d="M135.903 134.496c-.511-7.999-.274-15.007 1.053-20.313-3.572 5.186-2.103 20.319-2.103 20.319z" clip-rule="evenodd"/><path stroke="#002d56" stroke-linejoin="round" stroke-miterlimit="3.864" stroke-width=".471" d="m138.008 134.493-.258.7c-.668.365-.874.385-.867.384"/><path stroke="#002d56" stroke-linejoin="round" stroke-miterlimit="3.864" stroke-width=".392" d="M136.794 135.404s.655 1.741.119 3.039"/><path stroke="#002d56" stroke-linejoin="round" stroke-miterlimit="3.864" stroke-width=".303" d="m135.92 134.542.724.016h.335s.201.392-.112.531c-.313.138-.527.135-.527.135"/><path stroke="#002d56" stroke-miterlimit="3.864" stroke-width=".303" d="M136.135 138.928c-.242.218-.505.255-.95.295-.86.076-1.72-.933-1.922-2.392-.223-1.613-.008-2.284 1.59-2.329"/><path stroke="#002d56" stroke-miterlimit="3.864" stroke-width=".303" d="M136.413 135.21h-1.147s-.61.162-.637.658c-.043.79-.058 1.907.282 2.345l.34.351"/><path stroke="#002d56" stroke-miterlimit="3.864" stroke-width=".354" d="m140.347 119.807.099.597-.141.256-.62-.041-.726-.024s-.407-.039-.514-.075a5 5 0 0 0-.46-.093s-.525-.695.028-1.116c.553-.42 1.123-.717 1.23-.787s.16-.051.16-.051"/><path stroke="#002d56" stroke-miterlimit="3.864" stroke-width=".142" d="M140.34 119.938v.674"/><path stroke="#002d56" stroke-miterlimit="3.864" stroke-width=".284" d="M140.438 120.439s-.172.577-.08.848c.093.271.258.956.285 1.065.018.073.159.831.239.994s.264.858.842 1.013 1.222.046 1.59-.201"/><path stroke="#002d56" stroke-miterlimit="3.864" stroke-width=".213" d="M141.556 123.009s.281-.102.376-.062c.096.041.369.073.369.073s.341-.062.454-.03c.114.033.295.033.349.027m-1.301.357s.671.131.952.013m-.022-2.893s.605-.249 1.135.143"/><path stroke="#002d56" stroke-miterlimit="3.864" stroke-width=".17" d="M141.964 120.457c.046.127-.044.495-.123.642-.078.146-.101.412-.151.524-.051.113-.114.305-.111.412s.004.098.168.186.28.012.406-.026c.126-.037.238-.073.352-.041.114.033.278-.056.275-.172s-.038-.286-.114-.352a3 3 0 0 0-.24-.172"/><path stroke="#002d56" stroke-miterlimit="3.864" stroke-width=".213" d="M140.833 120.531c.092-.013.672-.339 1.155-.003"/><path fill="#002d56" stroke="#002d56" stroke-miterlimit="3.864" stroke-width=".142" d="M141.338 120.827c-.219-.003-.398.038-.399.092s.176.102.395.106c.22.003.398-.038.399-.092.001-.055-.176-.102-.395-.106Z"/><path stroke="#002d56" stroke-miterlimit="3.864" stroke-width=".284" d="m141.658 124.339.065.02c.578.154 1.223.046 1.591-.201"/><path stroke="#002d56" stroke-miterlimit="3.864" stroke-width=".283" d="M140.236 116.247s-1.51.447-1.32 1.034c.19.586.329.853.469 1.05.14.196.417.96.504 1.174s.034.602.386.428c1.999-.983 6.302.719 5.376.645-.249-.02 2.785.607 3.283.282.107-.07.32-.21-.029-.727-.201-.296-.809-1.071-1.235-1.45-.281-.251-1.098-.786-1.343-1.195s-.831-.752-1.273-.827c-.443-.075-1.239-.259-1.842-.229s-.779-.024-1.098-.08c.157.027-1.429-.164-1.878-.105Z"/><path stroke="#002d56" stroke-miterlimit="3.864" stroke-width=".425" d="M143.882 148.074s1.591.976 3.472-.037c1.752-.943.326-.18.326-.18m-7.56.434s1.761.832 3.57-.108"/><path fill="#002d56" stroke="#002d56" stroke-miterlimit="3.864" stroke-width=".142" d="M143.276 120.874c-.23-.024-.42.002-.426.059s.175.123.404.147.42-.002.426-.059-.175-.123-.404-.147Z"/><path stroke="#002d56" stroke-miterlimit="3.864" stroke-width=".425" d="M140.952 138.308c1.067.398 2.713.289 3.744-.036"/><path fill="#eed000" fill-rule="evenodd" stroke="#002d56" stroke-miterlimit="3.864" stroke-width=".059" d="M154.499 159.217h14.631v1.974h-14.631z" clip-rule="evenodd"/><path fill="#b50027" d="M0 250h600v125H0z"/></g><defs><clipPath id="a"><path fill="#fff" d="M0 0h600v375H0z"/></clipPath></defs></svg>