<svg xmlns="http://www.w3.org/2000/svg" width="600" height="300" fill="none" viewBox="0 0 600 300"><g clip-path="url(#a)"><path fill="#d9d9d9" d="M0 0h262.5v150H0z"/><path fill="#012169" d="M0 0h600v300H0z"/><mask id="b" width="300" height="175" x="0" y="0" maskUnits="userSpaceOnUse" style="mask-type:luminance"><path fill="#fff" d="M0 0h300v175H0z"/></mask><g mask="url(#b)"><path fill="#012169" d="m0 0 350 200Zm262.5 0L0 150Z"/><path stroke="#fff" stroke-width="30" d="m0 0 350 200M262.5 0 0 150"/></g><mask id="c" width="275" height="163" x="0" y="0" maskUnits="userSpaceOnUse" style="mask-type:luminance"><path fill="#fff" d="M0 0v75h275v75h-12.5zm262.5 0H131.25v162.5H0V150z"/></mask><g mask="url(#c)"><path fill="#012169" d="m0 0 350 200Zm262.5 0L0 150Z"/><path stroke="#c8102e" stroke-width="20" d="m0 0 350 200M262.5 0 0 150"/></g><path fill="#012169" d="M131.25 0v175ZM0 75h300Z"/><path stroke="#fff" stroke-width="50" d="M131.25 0v175M0 75h300"/><path fill="#fff" d="M600 0v50H275l-12.5-12.5V0zm0 112.5v50H262.5v-50zm0 112.5v75H0v-75z"/><path fill="#c8102e" d="M600 37.5V90H0V60h262.5V37.5zm0 112.5v37.5H0V150zm0 112.5V300H0v-37.5zM116.25 0h30v162.5h-30z"/><path fill="#012169" d="M600 75v31.25H262.5V75z"/></g><defs><clipPath id="a"><path fill="#fff" d="M0 0h600v300H0z"/></clipPath></defs></svg>