<svg xmlns="http://www.w3.org/2000/svg" width="600" height="360" fill="none" viewBox="0 0 600 360"><g clip-path="url(#a)"><path fill="#52c9e8" d="M0 0h600v360H0z"/><path fill="#002d5d" d="M0 0h336L234 180l102 180H0z"/><path fill="#fff" d="m126 114-20.665 49.889 20.353 21.42 29.537-.755z"/><path fill="#fff" d="m126 246 20.665-49.889-20.353-21.42-29.537.755z"/><path fill="#fff" d="m172.67 133.331-49.89 20.665-.754 29.537 21.419 20.352z"/><path fill="#fff" d="m79.332 226.669 49.89-20.665.754-29.537-21.419-20.352z"/><path fill="#fff" d="m172.67 226.669-20.665-49.89-29.537-.754-20.352 21.419z"/><path fill="#fff" d="m79.332 133.331 20.665 49.89 29.537.754 20.352-21.419z"/><path fill="#fff" d="m60 180 49.889 20.665 21.42-20.353-.755-29.537z"/><path fill="#fff" d="m192 180-49.889-20.665-21.42 20.353.755 29.537z"/></g><defs><clipPath id="a"><path fill="#fff" d="M0 0h600v360H0z"/></clipPath></defs></svg>