<svg xmlns="http://www.w3.org/2000/svg" width="600" height="400" fill="none" viewBox="0 0 600 400"><g clip-path="url(#a)"><path fill="#002a86" d="M0 0h600v400H0z"/><path fill="#fec70b" d="M300.793 343.106c60.749 0 109.995-49.247 109.995-109.995s-49.246-109.995-109.995-109.995c-60.748 0-109.994 49.247-109.994 109.995s49.246 109.995 109.994 109.995"/><path fill="#f7e47c" d="m213.193 173.909-10.615 17.162s-5.655 16.072-5.655 17.56-2.083 18.949-2.083 18.949l.595 4.96 48.512 4.365 36.905-2.579-1.588-1.984-1.785-3.274-1.29-3.473-.794-4.961 1.092-2.479-5.754-13.889-6.151-12.004-5.953 4.465-2.381 1.487-.992.298-1.487.397-3.175-1.489s-2.778-5.952-3.075-6.349-6.25-7.242-6.25-7.242l-4.664-3.67-5.059 4.563-2.976 2.48-2.579 1.985-8.036-9.822z"/><path fill="#fff" d="M212.201 177.58c-.893-1.436 1.443-3.115 2.579-4.366.303-.333.664-.655 1.092-.794.283-.091.648-.169.892 0 .697.483.599 1.586.893 2.382.402 1.089.634 2.254 1.191 3.273.418.766 1.024 1.416 1.587 2.084q.662.775 1.389 1.488c.383.379.877.653 1.19 1.091.336.47.544 1.03.695 1.588.148.546-.023 1.165.198 1.686.286.67.747 1.343 1.389 1.686.293.157.666.16.992.1.51-.094.948-.425 1.389-.695a16.3 16.3 0 0 0 2.281-1.687 15.3 15.3 0 0 0 1.786-1.884c.702-.873 1.256-1.853 1.886-2.778.495-.728.935-1.497 1.488-2.183.543-.673.99-1.543 1.785-1.884.395-.171.87-.096 1.29 0a5.2 5.2 0 0 1 2.083.992c.46.367.803.875 1.092 1.388.554.985.756 2.131 1.19 3.175.336.806.593 1.664 1.091 2.381.721 1.036 1.902 1.683 2.679 2.679.474.607.803 1.317 1.191 1.984.304.525.488 1.134.892 1.587.489.548 1.262.775 1.786 1.289.59.58 1.063 1.275 1.488 1.985a23.7 23.7 0 0 1 1.984 4.265c.091.258-.05.682.199.794.849.383 1.708-.768 2.48-1.289.505-.342.91-.812 1.389-1.19 1.058-.837 2.376-1.374 3.273-2.382.404-.453.541-1.092.893-1.587.434-.611.821-1.344 1.488-1.687.592-.303 1.322-.25 1.985-.198.647.051 1.332.153 1.884.496.558.347.959.921 1.29 1.488.848 1.455 1.179 3.156 1.687 4.762.445 1.408.7 2.873 1.19 4.265.335.951.805 1.848 1.191 2.778.476 1.152 1.058 2.271 1.388 3.473.284 1.033.069 2.192.496 3.174.235.54.718.934 1.092 1.389.193.236.521.399.595.695s-.231.59-.198.893c.041.397.282.753.496 1.091.3.476.724.863 1.091 1.289.229.267.438.553.695.794.395.371 1.234.453 1.289.992.017.164-.256.222-.322.372-.085.191-.067.413-.074.62-.015.381.128.769.049 1.141-.031.145-.068.328-.199.397a.55.55 0 0 1-.57-.074c-.259-.225-.159-.669-.273-.992-.104-.297-.179-.62-.372-.868a1.6 1.6 0 0 0-.645-.496c-.201-.082-.437-.136-.644-.075-.226.067-.328.533-.546.446-.404-.158-.016-.885-.174-1.289-.184-.47-.588-.82-.868-1.24-.205-.31-.387-.635-.595-.942-.426-.627-1.097-1.118-1.339-1.836-.125-.368.04-.782-.025-1.165a9.2 9.2 0 0 0-.794-2.432c-.475-.982-1.238-1.798-1.81-2.728a62 62 0 0 1-1.687-2.95c-.284-.524-.653-1.016-.819-1.588-.132-.462-.054-.962-.123-1.438q-.131-.905-.373-1.786c-.148-.539-.281-1.094-.545-1.588-.245-.457-.74-.761-.942-1.239-.128-.301-.081-.649-.149-.968-.086-.402-.089-.853-.322-1.19-.268-.385-.711-.633-1.141-.819-.241-.103-.51-.179-.769-.148-.279.032-.545.178-.769.346-.511.386-.781 1.018-1.24 1.464-.608.59-1.259 1.15-1.984 1.587-.41.246-.869.399-1.315.57-.481.186-.985.306-1.464.497-.752.3-1.503.616-2.207 1.017-.253.144-.586.236-.718.496-.159.309-.064.705.024 1.041.08.308.373.534.447.844.113.474-.06.977-.025 1.463q.026.39.123.768c.067.257.19.494.274.745.154.466.204.972.421 1.414.381.776 1.035 1.387 1.513 2.108.648.976 1.19 2.022 1.835 3 .48.729 1.075 1.379 1.513 2.133.394.678.657 1.425.993 2.133.243.515.38 1.099.743 1.538.532.642 1.287 1.071 2.009 1.488.469.27.984.448 1.488.645.327.128.694.163.992.347.284.175.433.524.719.695.284.168.639.17.943.297.276.116.552.244.794.422.432.32.784.738 1.141 1.141.738.833 1.37 1.754 2.058 2.629.47.597 1.006 1.145 1.414 1.786.278.436.443.936.694 1.389.146.262.301.521.471.768.238.344.523.654.77.993.093.129.359.261.272.396-.101.155-.379-.019-.546-.099-.354-.169-.561-.558-.892-.769-.306-.195-.693-.242-.992-.446-.402-.274-.677-.697-1.042-1.018a29 29 0 0 0-1.96-1.537c-.5-.365-1.035-.68-1.537-1.041-.321-.232-.648-.457-.943-.719-.632-.566-1.114-1.287-1.76-1.836-.612-.52-1.247-1.049-1.985-1.364-.676-.289-1.428-.358-2.158-.446-.656-.08-1.322-.057-1.984-.075-.463-.013-1.117.35-1.388-.025-.199-.273.161-.659.297-.967.125-.281.371-.503.471-.793.124-.355.215-.747.149-1.117-.106-.59-.508-1.091-.843-1.587-.424-.627-1.128-1.057-1.463-1.736-.323-.653-.31-1.423-.471-2.133-.089-.389-.085-.814-.274-1.166-.267-.5-.797-.809-1.165-1.24a43 43 0 0 1-2.505-3.224c-.338-.48-.699-.954-.942-1.488-.18-.393-.187-.851-.372-1.24-.336-.705-.965-1.238-1.315-1.935-.408-.813-.639-1.706-.893-2.579-.31-1.069-.439-2.186-.769-3.249-.244-.788-.619-1.529-.893-2.306-.218-.622-.289-1.302-.595-1.886a10.5 10.5 0 0 0-2.306-2.976c-.57-.503-1.331-.738-1.96-1.166a17 17 0 0 1-1.736-1.339c-.45-.4-.94-.783-1.265-1.289-.287-.448-.324-1.018-.571-1.488-.217-.417-.394-.917-.793-1.167-.382-.239-.889-.221-1.339-.197-.37.017-.733.11-1.067.272-.283.142-.558.338-.744.596-.153.214-.132.52-.273.743-.22.352-.496.707-.867.893-.507.255-1.139.077-1.687.224a3 3 0 0 0-.844.347c-.337.211-.623.5-.892.793-.383.418-.687.904-1.017 1.365-.263.367-.552.719-.769 1.116a7.3 7.3 0 0 0-.471 1.116c-.101.291-.227.584-.248.893-.032.482.064.973.198 1.438.256.881.7 1.701 1.141 2.505.445.813.982 1.572 1.513 2.332.363.517.82.968 1.141 1.512a5.2 5.2 0 0 1 .67 1.984c.057.443-.008.896.049 1.339.044.336.09.681.224.993.269.63.711 1.177 1.14 1.711.456.564 1.029 1.023 1.514 1.562.345.384.703.763.992 1.191.234.35.462.715.594 1.116.106.317.134.658.149.992.02.43-.178.872-.074 1.289.116.461.485.818.744 1.216.318.488.686.943.992 1.438.243.394.483.792.67 1.216.208.471.406.956.496 1.463.055.31.006.629.025.942.031.532-.025 1.086.148 1.588.135.39.317.828.67 1.041.695.422 1.624.117 2.43.224.483.064.969.121 1.439.247.477.13.913.389 1.389.521.567.158 1.157.214 1.736.323.604.114 1.214.203 1.81.347.629.152 1.26.308 1.861.546 1.223.484 2.382 1.128 3.521 1.785 1.615.932 3.107 2.064 4.688 3.051 1.284.802 2.567 1.604 3.894 2.331.633.347 1.258.717 1.934.967.416.154.858.225 1.29.323.486.109 1.209-.13 1.463.298.058.097-.079.211-.099.322-.062.361.197.823-.046 1.097-.209.235-.617.147-.931.153a12.2 12.2 0 0 1-3.388-.432c-3.147-.85-8.776-3.829-9.003-3.819-.484.023-.987-.115-1.414-.347-.559-.305-1.013-.8-1.388-1.315-.282-.385-.346-.898-.621-1.289-.318-.455-.7-.887-1.165-1.191-.474-.308-1.042-.445-1.588-.595-.583-.161-1.197-.183-1.785-.323-.687-.161-1.336-.486-2.034-.595-.352-.055-.719-.104-1.067-.024-.407.093-.707.482-1.115.57-.858.185-1.768.043-2.629-.124-.567-.109-1.159-.247-1.638-.57-.354-.24-.485-.733-.843-.967-.318-.21-.711-.308-1.091-.348-.405-.042-.853-.063-1.215.125-.234.12-.444.343-.521.594-.101.327.007.697.124 1.018.078.213.188.437.372.57.319.23.809.087 1.141.297.446.283.679.81 1.017 1.215.373.447.776.868 1.116 1.34.267.371.54.746.719 1.166.091.212.056.471.173.669.111.186.287.334.472.447.254.156.562.197.843.297.232.082.528.067.695.249.087.093.16.259.099.371-.117.214-.452.207-.695.224-.34.023-.68-.037-.992-.174-.81-.365-1.423-1.067-2.083-1.662-.517-.466-.974-.994-1.464-1.488-.592-.598-1.112-1.281-1.785-1.785-.536-.403-1.148-.696-1.761-.968-.832-.369-1.766-.484-2.579-.893-.644-.323-1.211-.782-1.786-1.215-.601-.452-1.225-.887-1.736-1.438-.467-.505-.666-1.242-1.191-1.687a1.8 1.8 0 0 0-.818-.397c-.472-.092-.963.17-1.439.099-.708-.105-1.356-.47-2.008-.769-.461-.211-.841-.629-1.339-.718-.411-.074-.833.086-1.241.173-.53.112-1.067.227-1.563.446-.835.369-1.491 1.081-2.331 1.439a4.8 4.8 0 0 1-1.24.322c-.582.078-1.174.006-1.761.025-.472.016-.956-.042-1.414.074-.204.053-.375.192-.57.274-.867.359-1.77.625-2.654.942-.595.213-1.211.38-1.785.644-.595.274-1.136.654-1.711.968-.641.349-1.262.739-1.935 1.017a8 8 0 0 1-1.538.471c-.855.162-1.736.26-2.604.198-.38-.027-.886.057-1.117-.247-.752-.999-.677-2.879.224-3.746.59-.567 1.637-.075 2.456-.05 1.467.047 2.928.514 4.39.373.932-.091 1.836-.415 2.703-.769 1.185-.484 2.195-1.333 3.373-1.836.678-.289 1.38-.552 2.108-.669.702-.113 1.437.12 2.133-.025.896-.186 1.669-.756 2.53-1.067 1.08-.389 2.164-.82 3.298-.992.989-.149 2.019-.214 3.001-.024.983.19 1.865.731 2.778 1.141.88.394 1.813.711 2.604 1.265.575.402.955 1.039 1.513 1.463.794.603 1.649 1.157 2.579 1.513.663.252 1.377.363 2.084.422.932.076 1.875.014 2.802-.1.437-.053.977.034 1.29-.273.31-.302.273-.832.298-1.265a3.3 3.3 0 0 0-.125-1.041c-.162-.601-.45-1.164-.743-1.711-.554-1.034-1.42-1.887-1.91-2.952-.267-.58-.299-1.246-.546-1.835-.237-.567-.555-1.1-.893-1.612a18 18 0 0 0-1.487-1.91c-1.104-1.257-2.498-2.25-3.522-3.571a7.6 7.6 0 0 1-.893-1.489c-.21-.458-.295-.965-.471-1.438a18 18 0 0 0-.696-1.637c-.229-.468-.447-.953-.768-1.364-.281-.359-.781-.539-.992-.943-.255-.489-.138-1.096-.248-1.636-.253-1.247-.487-2.508-.942-3.696-.211-.549-.457-1.098-.819-1.562-.525-.675-1.384-1.038-1.91-1.711-.534-.686-.82-1.534-1.215-2.307-.399-.781-.729-1.597-1.166-2.356-.276-.482-.529-.993-.917-1.39-.577-.59-1.383-.905-2.034-1.414-.771-.601-1.639-1.137-2.207-1.934-.229-.32-.112-.884-.446-1.091-.375-.231-1.083.472-1.315.1"/><path fill="#9dc8eb" d="m277.876 217.956-1.488.397s-.7.805-.893 1.289c-.322.809-.393 1.71-.397 2.58-.005.936.146 1.877.397 2.778.568 2.041 2.48 5.853 2.48 5.853l2.777 3.869 7.044 6.647 37.897 12.897 12.302 9.028 8.036 13.789 7.539 4.564 8.532 1.191.893 11.11s8.036 3.572 9.623 3.969 6.547.496 6.547.496l6.647-2.182 11.012-18.155 6.35-18.056 2.876-22.123 1.488-12.5-.986-7.317s-119.45-.62-119.946-.62c-.497 0-8.73.496-8.73.496"/><path fill="#a2d100" d="M196.091 230.124s2.418.499 3.646.56c.89.045 1.779-.074 2.666-.14.984-.072 1.964-.187 2.947-.28.982-.094 1.961-.348 2.945-.281.816.056 1.585.403 2.386.562 2.323.458 4.651.982 7.015 1.121 2.289.136 4.585-.415 6.875-.28 1.181.07 2.359.273 3.507.562 1.248.312 2.371 1.1 3.649 1.262 1.721.219 3.469-.19 5.19-.421 2.263-.303 4.463-1.025 6.735-1.262 2-.21 4.022-.215 6.032-.141 1.925.071 3.826.521 5.753.562 2.528.052 5.047-.449 7.576-.422 1.218.013 2.428.284 3.648.281 2.298-.005 4.583-.749 6.874-.561 1.153.094 2.258.513 3.367.842 1.375.408 4.069 1.403 4.069 1.403l4.63 3.928s5.051 2.665 6.453 3.226c1.403.563 5.893.983 5.893.983l7.015 2.245 9.68 3.648s12.206 3.788 13.049 4.068c.841.281 3.928 1.403 3.928 1.403s7.997 6.033 8.839 6.735q1.464 1.202 2.945 2.385l4.491 14.872 1.122 1.262s6.454 1.263 7.576 1.543c1.122.281 7.015 1.684 7.015 1.684s1.263-.421 1.263.281c0 .701-.141 2.244-.141 2.244l-.842 2.947 5.612 5.611 2.666 2.385 1.122 1.263 4.911-1.402 3.086-.982h.702l3.367 3.367-16.415 19.781s-23.991 14.872-24.552 14.872-24.131 8.559-27.92 8.418c-3.788-.141-28.2.281-28.761.281s-39.143-12.908-39.143-12.908l-27.218-22.307-22.028-34.654-4.489-22.588-.421-16.275z"/><path fill="#ffd90f" d="M177.991 54.61c-3.114 0-6.197.665-9.074 1.96-2.877 1.293-5.491 3.19-7.692 5.58s-3.949 5.229-5.14 8.352a27.7 27.7 0 0 0-1.805 9.853c0 3.38.613 6.728 1.805 9.852 1.192 3.123 2.938 5.961 5.14 8.352s4.815 4.287 7.692 5.581a22.1 22.1 0 0 0 9.074 1.959c3.114 0 6.197-.666 9.074-1.959s5.49-3.191 7.692-5.581 3.948-5.229 5.14-8.352a27.7 27.7 0 0 0 1.805-9.852c0-3.381-.613-6.729-1.805-9.853s-2.938-5.961-5.14-8.352-4.815-4.287-7.692-5.58a22.1 22.1 0 0 0-9.074-1.96m47.28 1.402v48.404h14.172V79.302l13.747 25.114h13.75V56.012h-14.029v23.992l-13.468-23.992zm64.818 0 .282 13.328h12.206v35.076h14.731V69.341h12.486V56.013zm71.975 0-17.258 48.404h15.013l2.385-6.735h13.609l2.526 6.735h14.59l-16.976-48.404zm52.542 0v48.404h14.169V79.302l13.75 25.114h13.75V56.012h-14.032v23.992l-13.468-23.992zm80.25 0-17.258 48.404h15.013l2.385-6.735h13.61l2.525 6.735h14.59l-16.976-48.404zm-416.899.14-.42 48.264h14.17V74.531l7.154 29.885h10.664l7.716-30.585v30.445h13.328V56.152h-19.781l-6.174 28.061-6.593-28.06zm99.964 10.944c1.225 0 2.438.345 3.57 1.014 1.132.67 2.161 1.652 3.027 2.89.867 1.237 1.554 2.706 2.023 4.323s.71 3.35.71 5.101-.241 3.484-.71 5.1c-.469 1.618-1.156 3.087-2.023 4.325-.866 1.238-1.895 2.22-3.027 2.89s-2.345 1.013-3.57 1.013c-2.475 0-4.848-1.404-6.597-3.903s-2.733-5.89-2.733-9.425.983-6.925 2.733-9.424c1.749-2.5 4.122-3.904 6.597-3.904m191.297 4.209 3.93 15.853h-8.84zm132.793 0 3.929 15.853h-8.84z"/><path fill="#fff" d="m309.125 273.611-11.063 10.318s2.213.357 3.325.495c2.143.267 4.293.496 6.448.645 3.4.236 6.813.252 10.219.397 3.191.136 9.573.446 9.573.446s1.753.282 2.529-.049c.28-.119.549-.357.646-.645.153-.459-.003-.996-.199-1.438-.219-.493-.658-.861-1.042-1.24-.258-.256-.843-.696-.843-.696l-.099-4.81-9.871-1.439v-1.736l-9.475-.546z"/><path fill="#969496" d="m306.714 273.177-13.101 12.873 2.123.07 13.504-12.609z"/><path fill="#e86f00" d="M200.594 268.849s2.961 1.51 4.563 1.885c2.873.671 5.891.346 8.83.596 2.914.246 5.82.591 8.729.892 2.845.294 5.707.456 8.532.893 2.436.377 4.825 1.009 7.243 1.488 1.386.275 2.851.275 4.166.794.691.272 1.317.711 1.885 1.19.34.287.669.607.893.993.263.451.422.97.496 1.487.132.917-.099 2.778-.099 2.778s3.502 3.73 5.853 4.067c.621.09 1.178-.438 1.786-.595 1.237-.318 2.503-.525 3.77-.694a27 27 0 0 1 2.381-.199c.33-.013.692-.14.992 0 .234.109.281.452.495.595.922.618 2.097.733 3.175.993 1.142.275 2.36.221 3.472.595.883.297 1.782.672 2.481 1.289.481.426.831 1.001 1.091 1.588.234.528.356 1.11.397 1.686.051.729-.152 1.453-.198 2.183-.178 2.807-.298 8.433-.298 8.433l-18.353 7.539-19.842 3.076-5.853-1.289-10.813-12.5-9.921-14.386-5.258-13.095z"/><path fill="#fff" d="M278.685 215.777c-.273.021-.602-.011-.8.176-.442.417-.75 1.203-.493 1.753.316.673 1.308.757 2.035.913.344.073.804-.249 1.053 0 .215.215-.107.628 0 .912.087.233.245.524.491.562.27.042.532-.209.702-.422.139-.173.017-.52.209-.631.394-.227.989-.016 1.334.281.662.57.677 1.614.912 2.455.5 1.789.543 3.686 1.052 5.472.233.818.519 1.63.912 2.385.366.701.609 1.644 1.332 1.963.303.134.68-.008.983-.141.442-.192.674-.735 1.123-.91.349-.136.758.016 1.122-.07.346-.083.667-.255.982-.422.269-.142.6-.238.771-.491.213-.315.196-.742.211-1.123.023-.634.349-1.594-.211-1.894-.627-.334-1.256.668-1.894.983-.394.195-.772.688-1.191.56-1.305-.397-1.357-2.367-2.106-3.506-.727-1.106-1.818-2-2.315-3.227-.239-.592-.391-1.266-.282-1.894.061-.34.152-.853.493-.913.31-.054.504.387.701.632.356.44.287 1.367.842 1.473.294.056.517-.325.701-.56.206-.264.178-.684.421-.913.329-.309.821-.584 1.264-.492.453.096.685.628.981.984.344.414.4 1.168.912 1.332.452.144.9-.3 1.334-.492.555-.245 1.153-.446 1.612-.84.166-.142.188-.438.387-.527.117-.053.266-.014.386.035a2.4 2.4 0 0 1 1.016.843c.225.325.257.747.386 1.121.093.269.039.656.281.808.259.162.623-.207.912-.106.157.055.246.223.35.351.202.25.418.504.526.805.104.289.018.62.106.913.074.251.189.496.351.702.313.398.874.563 1.157.981.208.307.163.735.352 1.053.13.22.275.618.525.561.346-.079.283-.664.315-1.018.095-1.055-.232-2.107-.386-3.156a52 52 0 0 0-.351-2.07c-.096-.516-.5-1.052-.314-1.542.062-.164.248-.28.419-.316a.58.58 0 0 1 .457.106c.329.249.427.709.596 1.086.328.725.618 1.473.807 2.246.204.825.226 1.685.352 2.525.119.796.27 1.588.384 2.385.054.373-.101.832.141 1.122.149.179.436.175.666.211.266.04.613-.187.808 0 .203.193-.014.564.035.842.08.458.114.981.421 1.332.127.145.338.297.525.245.259-.07.384-.406.456-.665.452-1.638-.025-3.414-.316-5.087-.18-1.031-.577-2.013-.875-3.016-.172-.574-.688-1.141-.527-1.719.084-.303.391-.588.702-.63s.613.203.84.419c.449.426.649 1.055.913 1.615.251.532.492 1.076.632 1.648.397 1.634.336 3.348.561 5.016.109.809.031 1.683.385 2.419.15.313.411.581.701.772.13.086.318.058.442.153.04.031.047.094.085.128.216.191.488.336.772.386.301.053.623-.004.911-.105.065-.024.108-.11.177-.111.052-.002.086.079.139.076.308-.024.485-.383.737-.561.262-.186.49-.577.807-.527.238.038.273.403.455.561.309.269.649.565 1.053.633.33.055.684-.059.983-.211.279-.144.417-.495.7-.633.256-.123.563-.083.842-.14.683-.139 1.472-.078 2.034-.491.274-.202.457-.542.527-.875.198-.96-.243-1.944-.387-2.912-.191-1.289-.352-2.586-.631-3.859-.188-.853-.61-1.657-.701-2.525-.04-.385-.188-.87.07-1.157.143-.158.422-.15.631-.105.329.07.592.334.842.559.369.336.681.737.948 1.159.379.602.69 1.252.911 1.929.29.894.349 1.847.526 2.77.127.667.283 1.328.386 1.999.047.303-.057.653.105.913.103.166.342.191.492.316.171.143.353.293.456.492.131.254.121.56.175.841.052.268-.046.607.141.806.205.219.58.264.875.211.39-.072.662-.436.983-.667.311-.225.586-.498.911-.701.289-.18.573-.438.913-.456a.43.43 0 0 1 .281.106c.244.192.39.49.526.77.101.21.047.5.211.667.181.186.478.262.738.252.241-.01.43-.23.664-.287.319-.078.661-.138.982-.07.414.087.717.472 1.122.596.315.097.754.343.983.105.172-.178-.077-.49-.106-.737-.06-.512-.014-1.042-.14-1.543-.066-.258-.071-.631-.316-.736-.218-.094-.437.191-.667.245-.32.075-.658.168-.981.106-.416-.081-.716-.479-1.123-.597-.145-.042-.331.056-.452-.035-.109-.083-.051-.284-.143-.386-.332-.37-.846-.57-1.334-.665-.621-.123-1.305-.093-1.894.14-.223.089-.393.283-.561.455-.187.19-.255.507-.492.631-.165.088-.398.13-.561.035-.37-.215-.454-.741-.56-1.156-.184-.726.024-1.508-.105-2.246-.15-.867-.536-1.677-.772-2.526-.168-.603-.571-1.207-.456-1.823.051-.281.216-.624.491-.702.257-.073.516.166.737.316.356.241.565.659.911.912.265.196.551.507.877.457.278-.043.328-.514.597-.597.296-.091.619.279.911.176.343-.123.547-.511.702-.843.166-.354-.096-.911.211-1.156.219-.176.561.014.841.035.223.016.477.189.666.07.263-.165.181-.597.316-.878.078-.16.115-.388.281-.456.412-.169.927.071 1.298.316.293.194.319.68.63.843.332.172.753.091 1.124.034.244-.037.453-.251.701-.245.341.008.614.308.946.386.492.114 1.172.48 1.51.105.182-.203-.077-.541-.141-.807-.149-.618-.055-1.44-.562-1.823-2.425-1.835-6.078-.146-9.119-.211-9.071-.192-18.147-.266-27.218-.527a877 877 0 0 1-18.414-.701c-.576-.029-1.151-.15-1.726-.106zm29.468 3.825a.84.84 0 0 1 .632.21c.341.309.371.843.561 1.262.426.938.925 1.846 1.297 2.806.364.937.63 1.911.913 2.876.304 1.035.698 2.054.843 3.122.029.223.19.551.003.674-.055.036-.115-.09-.179-.078-.178.035-.284.235-.386.385-.185.274-.141.691-.386.913-.145.132-.375.236-.562.176-.278-.091-.339-.477-.525-.703-.089-.108-.23-.181-.282-.311-.22-.555.032-1.199-.033-1.793a23.6 23.6 0 0 0-.807-3.962c-.412-1.419-1.354-2.681-1.578-4.141-.061-.393-.138-.851.07-1.191a.57.57 0 0 1 .419-.245m64.61-2.21c-7.004-.05-14.008.005-21.01.07-3.754.036-7.988-1.664-11.261.174-.554.312-1.094.983-1.017 1.615.047.386.657.465.842.807.182.334.097.758.211 1.121.085.269.082.684.351.773.203.066.44-.14.561-.317.141-.205-.005-.515.106-.737.103-.207.276-.402.489-.491.584-.242 1.282-.151 1.896 0 .294.073.561.242.805.422.187.137.378.289.492.49.242.43.236.959.351 1.44q.142.594.281 1.191c.094.409.207.815.28 1.228.116.662.167 1.333.245 2 .037.303.057.609.106.91.082.496-.051 1.131.316 1.474.232.218.688.329.946.141.345-.251.221-.837.211-1.264-.03-1.208-.547-2.354-.772-3.541-.164-.861-.377-1.721-.42-2.596-.019-.386-.195-.876.07-1.158.193-.206.574-.197.841-.105.172.059.288.233.386.386.521.809.835 1.756 1.018 2.701.102.528.006 1.076.034 1.612.067 1.231.247 2.453.317 3.684.047.852-.1 1.723.07 2.56.07.345.099.778.384.983.219.156.56.14.807.035.504-.213.87-.727 1.089-1.228.192-.442.144-.956.14-1.438-.015-1.507-.315-2.998-.527-4.49-.09-.634-.162-1.272-.316-1.894-.206-.836-.646-1.609-.807-2.455-.076-.403-.315-.9-.07-1.229.123-.163.394-.161.597-.138.296.031.584.188.807.384.552.487.839 1.214 1.191 1.86.284.519.207 1.353.738 1.613.55.27 1.176-.427 1.788-.421.375.004.787.058 1.088.281.342.253.482.705.667 1.088.237.492.417 1.015.56 1.543.255.94.437 1.905.527 2.876.081.896.206 1.825 0 2.7-.079.332-.288.618-.457.913-.181.315-.537.553-.595.911-.037.226.002.517.175.667.33.284.863.154 1.297.141.617-.021 1.258-.069 1.824-.317.634-.277 1.171-.761 1.649-1.262.226-.236.539-.48.562-.807.148-2.16-2.294-3.724-2.947-5.787-.174-.552-.058-1.171-.245-1.719-.299-.877-1.191-1.51-1.369-2.419-.107-.545.065-1.115.211-1.65.07-.258.123-.55.316-.736.162-.157.407-.275.631-.246.273.037.487.282.667.49.164.191.243.44.349.667.235.504.435 1.024.632 1.544.24.637.537 1.262.667 1.93.132.677.181 1.382.105 2.069-.062.566-.527 1.082-.456 1.648.182 1.444.825 3.24 2.174 3.788.158.064.371-.02.492-.14.328-.327.341-.872.386-1.332.089-.923-.13-1.852-.246-2.771-.163-1.293-.412-2.575-.632-3.86-.123-.725-.45-1.44-.386-2.174.024-.273.085-.581.282-.772.105-.103.282-.194.42-.141.376.146.418.692.597 1.054.276.558.561 1.12.736 1.718.241.818.243 1.691.422 2.525.163.757.444 1.485.595 2.245.103.521.132 1.054.211 1.579.052.351.035.725.175 1.051.161.377.492.655.737.983.41.549.635 1.303 1.227 1.649.326.189.771.275 1.122.139.202-.078.363-.282.422-.489.246-.866-.172-1.802-.422-2.666-.229-.795-.742-1.489-.982-2.281-.169-.557-.164-1.157-.316-1.719-.278-1.031-.748-2.002-1.086-3.016-.19-.568-.422-1.129-.526-1.718-.075-.415-.292-.904-.071-1.264.107-.174.358-.254.562-.246.319.014.635.214.842.456.524.614.444 1.561.806 2.28.348.693.771 1.363 1.298 1.931.142.152.291.442.492.386.192-.054.18-.364.209-.562.094-.649-.263-1.319-.139-1.963.07-.371.133-.897.49-1.018.198-.068.417.129.561.281.417.434.51 1.09.737 1.647.333.819.723 1.627.913 2.49.123.563-.072 1.185.139 1.72.103.263.367.432.526.665.236.347.485.696.631 1.089.151.401.233.833.247 1.262.01.353.007.731-.141 1.053-.132.285-.524.406-.632.701-.12.33-.154.756.035 1.052.113.176.382.173.563.28.244.146.528.264.701.492.127.168.041.47.211.596.833.625 2.129.497 3.12.175.229-.074.332-.381.561-.456.211-.069.449-.012.667.035.369.082.677.381 1.053.422.283.03.557-.142.84-.14.203 0 .414.019.597.104.166.078.242.313.422.352.438.095.86-.256 1.297-.352.277-.06.563-.197.841-.14.232.048.365.343.597.386.399.075.796-.158 1.192-.246.2-.043.398-.19.597-.14.273.069.395.409.632.562.408.263.846.567 1.332.595.502.029 1.138-.052 1.439-.455.405-.544.372-1.447.034-2.035-.106-.187-.355-.256-.561-.316-.415-.122-.906.115-1.297-.071-.314-.148-.547-.459-.702-.77-.227-.458-.261-.998-.281-1.509-.03-.775-.216-1.691.246-2.315.25-.336.742-.434 1.156-.492.266-.036.578.256.799.104.169-.115.133-.39.149-.594a4.4 4.4 0 0 0-.141-1.473c-.188-.697-.898-1.242-.912-1.964a1.53 1.53 0 0 1 .457-1.088c.143-.139.367-.258.561-.211.274.068.4.401.561.632.44.631.832 1.309 1.087 2.034.23.652.266 1.356.386 2.036.101.571.065 1.18.281 1.718.1.25.215.546.456.667.261.131.609-.151.878-.035.212.092.228.576.454.526.416-.092.254-.813.351-1.228.088-.371.18-.743.211-1.123.094-1.142-.012-2.292-.07-3.437-.023-.422-.258-.868-.106-1.263.086-.224.291-.446.526-.491.285-.055.588.128.808.315.493.424.742 1.081.981 1.685.23.58.357 1.204.421 1.824.055.534-.041 1.075-.035 1.612.003.258-.063.535.035.772.199.483.755.73 1.053 1.159.262.378.486.79.632 1.226.154.461.148.963.245 1.439.07.342.213.67.245 1.016.04.444-.368 1.002-.071 1.334.399.446 1.296.44 1.79.106.245-.167.256-.548.281-.843.052-.613-.207-1.213-.281-1.823-.111-.909-.044-1.843-.245-2.736-.193-.852-.472-1.701-.913-2.455-.255-.438-.803-.685-.981-1.159-.255-.678-.235-1.476-.035-2.174.154-.536.39-1.205.911-1.404.249-.094.529.1.772.211.307.14.618.309.842.562.48.539.705 1.262.981 1.928q.29.682.456 1.404c.127.575-.004 1.205.211 1.753.094.242.277.444.457.633.35.366.724 1.145 1.191.947 3.07-1.306 2.248-6.891.948-9.963-.526-1.24-1.889-2.068-3.157-2.525-9.428-3.399-20.038-.455-30.059-.525zm2.735 4.278c.294-.461 1.109.228 1.543.562.146.113.21.305.315.456.164.235.375.44.492.701.211.471-.058 1.193.351 1.509.342.264.88.08 1.297-.036.596-.164 1.31-.374 1.614-.912.207-.366-.078-.844-.035-1.262.032-.299-.043-.714.209-.877.26-.168.656.001.912.176.218.148.172.582.422.666.319.108.612-.322.947-.351.26-.022.57-.025.771.14.299.248.289.722.421 1.087.299.824.639 1.638.842 2.49.288 1.207.41 2.449.527 3.684.047.5.303 1.062.07 1.508-.326.623-1.089 1.194-1.79 1.123-.337-.035-.426-.565-.735-.703-.557-.248-1.354-.526-1.825-.14-.301.246-.018.789-.141 1.158-.141.422-.328.867-.665 1.156-.172.148-.412.297-.632.247-.282-.065-.489-.363-.596-.632-.147-.369.008-.795 0-1.192-.005-.293.048-.597-.035-.877-.098-.327-.436-.548-.527-.876-.134-.484.008-1.006 0-1.509-.005-.363.258-.873-.035-1.086-.206-.151-.539.046-.735.208-.263.217-.351.589-.456.913-.152.462-.059.99-.246 1.439-.078.185-.153.519-.352.49-.573-.086-.401-1.09-.561-1.649-.38-1.326-.509-2.722-.945-4.033-.36-1.078-1.764-2.056-1.37-3.121.122-.329.889-.111.948-.457"/><path fill="#f7e47c" d="M393.352 183.433s-4.266 1.587-4.762 1.686-3.571 1.19-3.571 1.19l-2.579 1.092-4.068.992s-2.083.695-2.579.695-5.258.496-5.258.496-3.076.099-3.473.099-3.472.198-4.166.397c-.695.198-3.571 1.686-3.571 1.686l-3.572 2.877s-3.373 1.488-3.969 1.588c-.594.099-4.067.396-4.662.396s-4.068-1.19-4.068-1.19l-3.571-.199s-2.183.397-3.671.893-8.035 3.671-8.035 3.671l-5.953 2.877s-2.579.992-3.274 1.091-2.182.496-2.182.496l-2.877 1.29h-1.786l-3.075-.893-5.456.396-3.969 1.29-3.571.099-4.068-.099h-3.472l-2.183 1.191-2.579.099-2.579 1.984-3.174 2.48s-1.092.397-1.092.794-.198 1.091.496 1.488c.695.397 37.599 3.869 37.599 3.869s6.747.298 7.441.298 4.167.099 4.167.099 2.381-.099 2.777-.099 2.48-.199 2.48-.199 3.969-.595 5.953-.694c1.984-.1 38.591-7.838 38.591-7.838l13.393-10.912 3.472-10.913z"/><path fill="#7d421d" d="M393.841 182.984s-2.434 1.402-3.718 1.963c-1.681.734-3.52 1.069-5.192 1.823-.61.276-1.129.739-1.753.983-.739.291-1.53.443-2.315.562-.37.056-.765-.042-1.122.07-.861.27-1.504 1.008-2.315 1.403-.719.348-1.461.687-2.245.842-.711.14-1.457-.035-2.174.07-.455.066-.923.145-1.334.351-.535.269-.896.801-1.402 1.121-.769.486-1.566.999-2.455 1.194-1.097.24-2.253-.196-3.368-.071-.671.076-1.327.269-1.964.492-.533.186-.994.571-1.544.7-.66.155-1.361-.018-2.034.07-.619.081-1.225.245-1.823.422-.525.155-1.006.466-1.545.561-.368.065-.759-.094-1.121 0-.233.06-.497.151-.632.351-.211.313-.254.762-.14 1.122.105.331.394.609.702.771 1.211.639 2.715.347 4.068.562.915.145 1.826.319 2.736.492.586.11 1.159.297 1.753.35 1.211.108 2.476-.392 3.648-.07.557.152 1.016.559 1.475.911.458.353 1.032.662 1.261 1.193.121.28.15.647 0 .911-.268.475-.884.673-1.402.842-.959.315-2.008.323-3.016.281a12 12 0 0 1-3.158-.561c-.937-.3-1.714-1.014-2.666-1.262-.657-.172-1.355-.102-2.034-.141-1.565-.089-3.162.099-4.7-.211-.928-.186-1.855-.492-2.665-.982-.567-.343-.914-.979-1.474-1.332-.364-.229-.766-.434-1.192-.492-.373-.049-.765.02-1.122.141-.308.104-.518.495-.843.492-.493-.006-.844-.51-1.262-.773-.33-.206-.602-.551-.983-.631-.44-.093-.907.061-1.332.211-.534.187-.973.578-1.473.841-.805.425-1.586.928-2.456 1.192-.655.199-1.351.234-2.033.281-1.61.11-3.258-.313-4.841 0-.967.191-1.866.66-2.736 1.123-.745.396-1.356 1.014-2.104 1.402-.801.417-1.674.681-2.526.983-.578.204-1.15.448-1.754.561-.76.143-1.543.1-2.315.141-.514.027-1.11-.211-1.542.07-.176.114-.319.354-.282.56.07.375.5.607.843.772.81.391 1.771.336 2.666.422 1.374.131 2.759.077 4.138.14.819.037 1.656-.047 2.455.14.173.041.388.066.492.211.19.267.115.656.07.98-.039.272-.075.594-.282.773-.432.375-1.11.384-1.682.351-.739-.043-1.375-.584-2.106-.702a5.7 5.7 0 0 0-1.683 0 6.8 6.8 0 0 0-1.754.492c-.424.179-.743.597-1.193.701-.868.2-1.849.148-2.665-.211-.41-.179-.591-.695-.981-.912-.466-.259-1.016-.35-1.544-.421-1.461-.196-2.969.253-4.42 0-.611-.107-1.164-.438-1.754-.63-.556-.181-1.107-.39-1.683-.492-.346-.061-.709-.149-1.052-.07-.551.127-.937.664-1.473.841-.761.25-1.587.224-2.385.281-.98.069-1.999-.187-2.947.071-.464.125-.803.557-1.262.701-.92.287-1.913.27-2.877.281-.937.01-1.886-.026-2.805-.211-.291-.058-.547-.302-.842-.281-.627.045-1.11.589-1.684.842-.596.264-1.213.478-1.825.703-1.534.562-3.084 1.08-4.629 1.612-2.125.733-4.444 1.037-6.383 2.174-.271.16-.656.321-.702.632-.151 1.028.829 1.985 1.613 2.666.404.351.95.524 1.474.632.985.202 2.012-.019 3.017 0 2.409.047 4.817.16 7.225.279 3.112.154 6.216.451 9.329.562 6.426.228 12.861.175 19.291.211.866.004 1.771.259 2.596 0 .545-.172.873-.768 1.403-.982.417-.168.927-.017 1.333-.211.852-.406 1.367-1.306 2.104-1.895 1.141-.911 2.269-1.88 3.578-2.525.637-.314 1.347-.453 2.035-.63.67-.173 1.427-.086 2.033-.421.768-.424 1.132-1.358 1.824-1.896a10.8 10.8 0 0 1 2.595-1.472c1.142-.46 2.388-.601 3.578-.912.961-.252 1.896-.619 2.877-.771 1.018-.158 2.057-.149 3.087-.141 1.396.012 2.815-.035 4.179.26 1.171.253 2.2.967 3.356 1.28.465.127.982.052 1.428.238.245.102.595.206.647.467.043.217-.168.44-.352.561-.375.249-.883.183-1.331.211-.701.043-1.43.123-2.105-.07-.674-.193-1.16-.828-1.825-1.053-1.027-.348-2.15-.552-3.226-.421-.574.07-1.13.315-1.614.632-.525.344-.811.981-1.332 1.332-.4.269-.852.529-1.333.562-.628.042-1.196-.529-1.824-.493-.628.038-1.185.435-1.754.704-.531.249-1.062.507-1.543.841-.586.407-.962 1.112-1.613 1.402-.688.308-1.497.185-2.244.282-.889.114-1.829.03-2.666.35-.503.193-.872.636-1.334.913-.565.338-1.166.612-1.753.911-.326.166-.778.187-.983.491-.157.233-.175.581-.07.842.167.414.6.697 1.007.879.631.282 1.377.148 2.06.252.243.037.486.065.722.131.748.211 1.414.68 2.174.842.847.182 1.731.191 2.596.141.626-.037 1.23-.284 1.857-.319 1.472-.083 2.942.199 4.415.249 1.972.065 3.975-.278 5.918.061.64.111 1.191.635 1.84.64 4.006.032 7.435-.287 11.504-.07.149.008.25.125.399.132 3.185.132 6.133.031 9.239.045.682.003 1.249.387 1.891.487a10.6 10.6 0 0 0 1.918.112c.642-.018 1.277-.148 1.916-.214.49-.051.981-.118 1.473-.141 1.052-.049 2.109-.115 3.156 0 .269.03.526.135.793.177.998.158 2.01.185 3.016.282.438.041.875.112 1.316.126.516.017 1.033-.006 1.547-.049.468-.038.966-.188 1.395-.186 2.01.012 4.071.294 6.104.203.338-.016.669-.106 1.007-.123 1.463-.077 2.93.066 4.394.08 1.45.014 4.349.005 4.349.005s.314-6.466-.211-9.635c-.962-5.807-3.058-11.406-5.331-16.836-1.256-3.001-3.089-5.726-4.559-8.628q-.607-1.221-1.192-2.454m-178.952 57.172-.281 1.332-.01 4.89 3.729-.119v-.913s-.071-.914-.106-1.333l-.316-3.858zm43.773.21-2.946 2.174-.28 5.752 3.576.299s-.307-1.739-.421-2.613c-.029-.233-.061-.467-.07-.702-.058-1.636.141-4.91.141-4.91m14.311 1.402-3.367.842-.281 6.524 3.789.842.351-.632s-.492-1.894-.563-2.174c-.069-.282.071-5.402.071-5.402m-44.404 1.544-2.631.246-.035 3.822.772.492 1.612-.211zm112.652.145a18 18 0 0 0-1.68.074c-1.074.098-2.15.265-3.182.581-1.357.415-2.66.988-3.882 1.708-1.288.763-2.586 1.477-3.562 2.732-4.545 5.839-13.501 17.488-13.501 17.488l-15.013.351s2.779-6.11 3.929-9.26c.218-.598.5-1.191.561-1.824.043-.445.082-.945-.14-1.332-.217-.377-.639-.637-1.053-.772a1.7 1.7 0 0 0-.981 0 2.53 2.53 0 0 0-1.193.772c-2.951 3.5-5.402 12.627-5.402 12.627l-2.525.07s-2.119-4.889-4.209-6.314c-.454-.31-1.064-.341-1.614-.352-.404-.008-.868-.03-1.191.211-.378.281-.599.794-.633 1.264-.02.295.155.573.281.84.806 1.7 3.017 4.772 3.017 4.772l-24.015.685s-.331-1.14-.703-1.581c-.392-.464-.946-.801-1.518-1.007-.553-.199-1.167-.209-1.754-.186-.698.028-1.467.018-2.059.387-.347.217-.582.602-.734.982-.412 1.025-.392 2.185-.401 3.289-.017 2.129.302 4.215.673 6.351.092.531.465 1.047.912 1.358.513.358 1.199.406 1.824.442.61.033 1.254.002 1.82-.231.409-.169.769-.469 1.052-.809.325-.391.541-.873.692-1.358.125-.402.166-1.254.166-1.254l27.552-.054-7.928 17.818 3.508 1.823 7.717-17.115 13.258 17.958 2.939-1.622-13.04-18.792s4.178-.229 6.268-.226c2.004.001 4.005.148 6.008.226 1.731.068 3.463.1 5.191.211 1.439.093 2.894.657 4.309.383.709-.137 1.355-.547 1.93-.983.633-.479 1.094-1.152 1.613-1.753.56-.648 1.619-1.997 1.619-1.997s3.533-5.112 5.331-7.647c1.202-1.693 2.203-3.558 3.647-5.05 1.041-1.075 2.281-1.955 3.552-2.743a20.6 20.6 0 0 1 3.883-1.886c.824-.296 1.679-.571 2.552-.616 1.005-.051 2.008.625 2.991.405.462-.103.867-.428 1.193-.772.389-.411.795-.909.841-1.473a1.47 1.47 0 0 0-.42-1.123c-.319-.308-.824-.356-1.263-.42-1.224-.177-2.483-.05-3.706.125-1.055.15-2.094.431-3.098.786-1.578.56-3.137 1.224-4.561 2.105-1.019.63-1.945 1.414-2.806 2.246-2.015 1.948-3.711 4.201-5.471 6.383-2.21 2.74-6.384 8.418-6.384 8.418l-2.666-3.156s6.301-8.366 9.19-11.715c1.015-1.178 1.965-2.438 3.157-3.438.999-.838 2.129-1.524 3.296-2.104 1.028-.511 2.105-.962 3.229-1.193 1.118-.231 2.306.072 3.42-.178.45-.101.948-.203 1.279-.525.294-.285.443-.715.499-1.121a2.06 2.06 0 0 0-.165-1.126c-.13-.282-.305-.68-.615-.697q-.914-.057-1.831-.066m-92.941.066-2.666.49v.982l.055 2.368-.985.947 3.175.474 1.193-.492s-.022-.504-.053-.754c-.062-.495-.263-.772-.263-1.474 0-.701-.456-2.541-.456-2.541m-11.258.372c-.145 0-.281.012-.386.047-.421.141-1.334.211-1.334.211l-.193 4.139 1.913.124 1.789-.264-.843-4.139s-.512-.118-.946-.118m-16.433 12.482-2.894.754-.422.982.071 3.86 3.017.279zm14.013.579-2.543 1.157-.158 4.91 2.385.334zm10.523.666-2.106 1.823-.211 4.491h2.387zm16.184 9.641c.125-.009.25.018.371.048.188.046.383.095.547.198.196.125.359.307.496.497.14.195.314.404.322.645.054 1.984.107 3.88.125 5.976.003.329-.368.571-.646.746-.159.1-.357.14-.545.147-.177.007-.35-.055-.522-.099-.184-.047-.379-.078-.545-.172-.182-.104-.367-.238-.471-.422-.192-.336-.207-.843-.223-1.14-.089-1.67-.291-3.441-.273-5.21.003-.274.222-.508.397-.719.116-.14.26-.264.421-.348.167-.086.358-.135.546-.148zm-15.873 12.148a1.05 1.05 0 0 0-.52.102c-.237.117-.353.393-.547.571-.235.214-.441.497-.742.596-.505.163-1.066-.155-1.59-.075-.382.058-.807.133-1.091.397-.133.123-.073.393-.223.496-.109.076-.264.015-.396.025-.331.027-.689-.039-.992.1-.197.09-.274.356-.472.445-.25.113-.546.094-.818.075-.543-.038-1.046-.33-1.588-.373-.231-.018-.531-.114-.694.05-.401.407-.234 1.157-.099 1.711.18.739.631 1.42 1.166 1.96.953.961 2.219 1.595 3.472 2.108a16 16 0 0 0 4.836 1.141c1.862.138 3.746-.12 5.58-.471.73-.139 1.535-.206 2.133-.646.226-.165.457-.414.472-.693.015-.282-.24-.51-.397-.744-.57-.848-1.256-1.617-1.959-2.357a29 29 0 0 0-2.851-2.629c-.796-.641-1.518-1.505-2.507-1.761a1 1 0 0 0-.173-.028m26.042 13.645s-.748 2.164-1.415 3.075c-.937 1.279-2.256 2.243-3.522 3.2-1.211.914-2.471 1.81-3.868 2.406a8.2 8.2 0 0 1-2.331.594c-.65.07-1.312-.161-1.959-.074a4.1 4.1 0 0 0-1.34.421c-.602.313-1.002.948-1.613 1.241-.414.197-2.023.312-1.596.482 1.904.755 3.083 1.296 4.648 1.726 1.906.523 3.786 1.041 5.728 1.414 2.158.414 4.427.576 6.622.694 1.684.09 3.448.031 5.134-.001.604-.011 1.434.247 1.96-.049.265-.149.438-.89.496-1.19.058-.297-.057-.614-.174-.894-.582-1.402-1.558-2.624-2.554-3.77-.599-.688-1.453-1.131-2.034-1.836-.498-.603-.986-1.259-1.215-2.007-.242-.792.01-1.665-.125-2.481-.167-1.009-.842-2.951-.842-2.951m-31.97 13.02-6.473.472s-3.72.744-3.919.843c-.198.1-1.339.695-1.339.695l-1.264.595 9.671 7.789 3.596.916 4.589-4.316.522-4.489s-1.141-2.357-1.265-2.381c-.124-.025-4.118-.124-4.118-.124m48.09 5.431c-.758.054-.527 6.137-.446 10.417.032 1.671-.324 2.518-.223 3.449.03.279.093.557.198.817.122.302.264.616.496.844.372.366 1.761.695 1.761.695l8.308-14.187s.03-1.34 0-2.009c-.025-.564-.03-1.135-.148-1.686-.089-.42-.603-2.469-1.017-2.357-1.678.456-8.679 3.692-8.929 4.017m15.954-3.099s-.506 1.019-.595 1.439c-.119.551-.123 1.122-.148 1.686-.03.669 0 2.009 0 2.009l7.904 14.534s1.792-.676 2.164-1.042c.234-.228.375-.542.497-.843.105-.261-.026-3.26-.13-5.159-.08-1.44.195-4.222.105-5.656-.054-.879.737-5.11-.174-5.281-.559-.106-5.102-1.91-7.491-2.631-.721-.217-1.613-.094-2.132.944"/><path fill="#008600" d="M217.989 225.325c-.168-.002-.34.016-.504.029-.741.056-1.459.29-2.174.49-.428.119-.87.216-1.264.422-.697.361-1.446.757-1.894 1.403-.29.419-.233.997-.421 1.472-.338.856-.671 1.749-1.261 2.455-.568.679-1.425 1.05-2.105 1.615-.242.201-.58.34-.702.63-.227.539-.146 1.21.071 1.755.092.23.425.32.491.559.07.253-.047.529-.14.773-.128.333-.54.556-.562.913-.039.668.469 1.267.842 1.823.249.371.545.727.911.982.603.419 1.367.537 2.034.841.476.217.907.54 1.404.702.406.132.839.267 1.262.211.332-.045.623-.254.912-.422.422-.242.745-.654 1.193-.842.242-.102.511-.161.771-.138.273.023.594.071.772.278.156.182-.01.517.141.702.112.138.314.193.491.211.452.045.88-.242 1.332-.281.583-.049 1.193.234 1.755.07.355-.103.609-.417.911-.631.259-.185.772-.56.772-.56s.493-.09.632.07c.459.531-.181 1.411-.07 2.104.086.54.192 1.138.561 1.543.296.324.759.483 1.192.562.277.05.572.011.842-.071.23-.07.394-.315.632-.351.33-.05.674.077.98.211.262.114.428.415.703.491.633.175 1.31-.08 1.964-.141.422-.038.887.054 1.263-.14.28-.143.503-.414.63-.702.19-.429-.208-1.087.14-1.402.243-.219.711-.182.983 0 .357.239.247.838.492 1.192.291.422.657.834 1.121 1.052.171.081.375.093.562.071.396-.047.727-.364 1.123-.421.324-.047.672-.039.98.07.27.095.423.433.703.491.583.122 1.186-.166 1.753-.351.318-.103.664-.197.912-.421.508-.455.672-1.187 1.053-1.753.131-.194.215-.449.42-.561.267-.147.719-.307.913-.071.277.338-.293.831-.352 1.264-.063.463-.148.958 0 1.402.111.333.344.641.633.842.4.28.933.553 1.403.422.303-.086.351-.557.63-.703.334-.174.746-.148 1.123-.14.284.005.594.003.842.141.247.136.296.536.56.631.446.162.996.027 1.404-.211.72-.418 1.225-1.195 1.543-1.965.153-.369-.026-.828.141-1.191.158-.346.405-.739.771-.842.164-.047.342.058.492.14.465.254.752.756 1.192 1.052.433.293.881.724 1.403.701.357-.015.64-.328.911-.56.164-.141.21-.449.421-.492.205-.041.352.281.561.281s.355-.251.563-.281c.517-.074 1.024.209 1.542.281.466.066.943.049 1.404.141.239.047.472.125.7.211.265.098.508.25.772.351.298.112.602.349.912.278.372-.083.632-.453.842-.77.232-.351.265-.801.421-1.194.17-.427.561-1.261.561-1.261s.614.443.772.77c.175.361-.092.868.141 1.194.317.442.978.474 1.472.701.419.193.838.384 1.263.56.302.125.586.341.911.352.466.014.885-.298 1.334-.422.394-.108.785-.244 1.192-.279.373-.031.752.021 1.123.071.568.076 1.11.335 1.683.349.449.011.94.008 1.334-.211.406-.225.601-.706.911-1.051.298-.333.526-.758.912-.983.436-.254 1.1-.01 1.472-.351.328-.3.362-.822.422-1.262.063-.463-.202-.954-.07-1.403.112-.387.584-.597.701-.981.224-.74.18-1.585-.07-2.315-.102-.301-.475-.467-.561-.772-.084-.294.17-.625.07-.913-.125-.36-.461-.621-.771-.841-.29-.206-.704-.199-.983-.421-.405-.324-.548-.893-.912-1.263a3.4 3.4 0 0 0-.841-.631c-.261-.137-.594-.118-.842-.28-.263-.172-.376-.519-.632-.702-.289-.208-.702-.202-.982-.422-.276-.216-.317-.685-.63-.842-.21-.104-.477-.059-.703 0-.182.048-.31.227-.49.281-.405.12-.844.026-1.263.071-.447.046-.937-.004-1.333.21-.306.165-.452.531-.702.772-.287.276-.696.437-.911.772-.236.367-.27.833-.352 1.262-.082.439-.035.899-.14 1.334-.182.755-.545 1.455-.842 2.174-.311.755-.981 2.244-.981 2.244s-.29-.886-.422-1.333c-.304-1.046-.547-2.107-.841-3.156-.224-.797-.399-1.613-.702-2.385-.23-.584-.313-1.344-.841-1.684-.551-.354-1.329.092-1.964-.071-.456-.115-.833-.44-1.263-.631-.528-.234-1.25-.182-1.613-.63-.269-.332.102-.973-.211-1.264-.189-.175-.515-.104-.772-.07-.396.053-.862.119-1.122.422-.219.253-.064.68-.21.982-.224.463-.606.841-.983 1.191-.293.275-.737.383-.982.703-.121.158-.073.417-.211.561-.246.258-.666.255-.981.422-.269.142-.607.233-.772.489-.269.417-.129.985-.211 1.474-.101.611-.116 1.251-.351 1.823-.16.391-.33.854-.702 1.053-.39.21-.887.014-1.332 0-.726-.023-1.471-.322-2.174-.14-.377.097-.719.344-.983.63-.234.253-.226.69-.491.913-.283.237-.785.093-1.051.351-.288.277-.302.742-.422 1.123-.057.184.024.459-.14.559-.183.114-.448-.025-.632-.14-.508-.317-.684-.992-1.121-1.402-.625-.586-1.412-.97-2.105-1.473-.19-.137-.332-.372-.56-.421-.611-.129-1.229.239-1.825.421-.504.154-.971.405-1.473.561-.574.177-1.363-.037-1.753.421-.198.232-.039.609-.071.912-.037.375.025.783-.14 1.121-.116.239-.299.527-.561.563-.374.049-.731-.282-.983-.563-.582-.645-.582-1.654-1.051-2.384-.457-.711-1.019-1.373-1.685-1.894-.437-.341-.919-.785-1.473-.772-.325.007-.587.289-.842.491-.479.38-.804.927-1.261 1.334-.35.311-.687.673-1.124.841-.24.092-.772.07-.772.07s-.63-.42-.56-.771.026-.855.141-1.263c.119-.423.496-.759.56-1.193a2.4 2.4 0 0 0-.211-1.402c-.298-.591-.981-.893-1.402-1.403-.557-.675-.871-1.54-1.473-2.176-.424-.449-1.031-.69-1.473-1.121-.322-.314-.551-.711-.843-1.054-.226-.264-.388-.618-.7-.77a1.1 1.1 0 0 0-.479-.099m-5.682 18.572a.3.3 0 0 0-.154.045c-.164.102.012.443-.14.562-.258.201-.655-.028-.981 0-.425.035-.879.025-1.264.211-.566.272-.987.79-1.402 1.263-.299.341-.61.697-.772 1.121-.133.352-.366.82-.141 1.124.256.341.85.103 1.263.211.408.104.845.182 1.193.42.384.262.453.989.912 1.051.418.057.696-.476 1.052-.702.345-.219.675-.472 1.052-.63a7.1 7.1 0 0 1 1.894-.492c.828-.098 1.65.037 2.492.03.811-.007 1.641-.163 2.418.041.284.074.52.273.773.421.453.266.827.695 1.332.841.673.195 1.411.097 2.105 0 .338-.047.646-.336.982-.281.447.073.692.629 1.122.772.533.178 1.122.093 1.684.071.588-.024 1.173-.117 1.755-.211.8-.131 1.575-.428 2.384-.492.514-.04 1.056-.097 1.543.071.19.065.491.351.491.351s-.851.405-1.263.631c-.717.394-1.434.795-2.105 1.264-.517.362-1.024.746-1.471 1.192-.236.234-.57.445-.633.772-.088.457.255.897.422 1.332.101.264.38.49.35.772-.044.433-.734.619-.772 1.053-.035.416.232.865.562 1.121.265.205.704.023.981.211.279.19.326.601.561.842.2.204.418.503.703.491.365-.015.533-.506.842-.702.326-.207.671-.419 1.051-.49.346-.065.791-.165 1.053.07.301.269-.145 1.001.211 1.193.312.169.648-.292.981-.422.461-.18.918-.394 1.404-.491.391-.078.872.167 1.191-.07.439-.327.46-1.006.562-1.545.166-.873.211-1.786.07-2.664-.099-.613-.352-1.2-.632-1.754-.265-.528-.92-.885-.981-1.473-.013-.125.141-.351.141-.351h4.769s-.481.456-.701.702c-.4.447-.878.856-1.124 1.402-.34.758-.43 1.625-.419 2.456.008.596.05 1.237.35 1.753.124.215.44.274.561.491.069.125.078.279.07.422-.019.339-.305.642-.281.982.037.512.209 1.112.633 1.402.346.239.85.156 1.263.071.307-.064.554-.293.84-.422.344-.155.676-.399 1.053-.42.362-.022.699.197 1.053.28.232.055.462.15.7.141.851-.036 1.741-.238 2.455-.701.641-.416 1.213-1.038 1.475-1.755.264-.725.146-1.557 0-2.315a5 5 0 0 0-.703-1.753c-.384-.598-1.112-.93-1.472-1.544-.161-.274-.281-.911-.281-.911s2.006-.131 3.086-.071c.33.019.433.51.702.703.466.336.984.638 1.543.77.456.108.938.041 1.403 0a12.5 12.5 0 0 0 1.964-.351c.859-.218 1.658-.65 2.525-.84.828-.182 1.704-.489 2.526-.282.358.092.568.497.912.633.44.174.945.096 1.404.209.696.17 1.32.632 2.034.701.681.068 1.353-.207 2.034-.281.303-.031.608-.049.912-.069.421-.029.85.016 1.262-.071.391-.082.752-.272 1.123-.419.283-.112.537-.331.841-.352.362-.023.712.156 1.053.281.559.207 1.033.63 1.613.772 1.386.338 2.853.123 4.28.14a161 161 0 0 0 7.014-.07c.843-.028 1.683-.101 2.525-.141.585-.028 1.227.185 1.753-.07.195-.094.406-.277.422-.491.033-.44-.378-.821-.7-1.122-.33-.307-.745-.6-1.193-.632-2.504-.179-4.65-.203-6.946-.561-.711-.111-1.402-.333-2.104-.49-1.097-.245-2.212-.406-3.297-.702-.428-.117-.832-.316-1.263-.422-.437-.106-1.894-.561-1.894-.561l.407 1.575s-.549.192-.899.18c-.63-.021-1.269.102-1.893 0a3.3 3.3 0 0 1-.842-.281c-.242-.109-.328-.201-.687-.406-.345-.199-.557-.319-.856-.436-.633-.249-1.287-.494-1.965-.561-.583-.059-1.175.242-1.753.14-.608-.107-1.12-.52-1.683-.772-.373-.167-.724-.407-1.123-.49a4.05 4.05 0 0 0-1.684 0c-.377.083-1.239.504-1.239.504l.187 1.53h-3.437l.055-.982s-.852-.065-1.177-.211c-.214-.096-.339-.353-.562-.422-.448-.136-.945-.035-1.402.071-.347.08-.632.359-.983.422-.414.072-.519-.014-.939-.046-.235-.018-.714-.096-.932-.007-.168.069-.496.56-.496.56l-.018.475h-3.297l-.02-.841c-.008-.352-3.238-.439-4.82-.212-.344.049-.647.254-.981.351-.332.095-1.178.226-1.178.226s-.425.523-.729.628c-.757.261-1.686.245-2.403-.116-.176-.089-.49-.255-.375-.457.098-.171 0-.58 0-.58s-.666-.531-.998-.683c-.517-.237-1.117-.234-1.685-.281a12.4 12.4 0 0 0-1.963 0 8.4 8.4 0 0 0-1.402.211c-.245.062-.838.237-.838.237l-.058.93c-.018.289-.277.244-.838.248-.565.003-1.359-.217-1.359-.217l-.129-.69.005-.613s-1.046-.491-1.414-.667c-.428-.205-.863-.434-1.332-.492-.632-.076-1.26.233-1.894.211-.524-.018-1.039-.144-1.545-.281-.528-.143-1.472-.477-1.472-.477l.065 1.583c-1.102.11-2.392-.028-3.689-.178l-.032-.826s-1.129.14-1.535-.172c-.217-.167-.075-.592-.281-.772-.121-.106-.313-.195-.477-.186zm7.111 5.234c-.507.009-.982.334-1.442.563a9.4 9.4 0 0 0-1.823 1.194c-.418.35-.848.721-1.123 1.192-.198.338-.292.736-.352 1.123a6.4 6.4 0 0 0 0 1.753c.06.456.252.885.352 1.334.113.51-.013 1.109.281 1.542.371.548 1.027 1.145 1.682 1.053.313-.044.357-.551.632-.701.25-.137.558-.154.843-.141.458.021.91.167 1.332.351.279.122.479.406.771.491.27.078.566.045.843 0 .365-.059.697-.244 1.051-.351.348-.104.728-.119 1.053-.281.478-.237 1.262-.982 1.262-.982s.238-.93.211-1.402c-.031-.533-.377-1.014-.422-1.545-.039-.469.19-.934.141-1.402-.057-.537-.209-1.081-.49-1.542a1.8 1.8 0 0 0-.561-.563c-.294-.185-.656-.232-.983-.35-.703-.255-1.422-.467-2.105-.773-.362-.161-.656-.532-1.052-.56a1 1 0 0 0-.101-.002zm3.055 11.46a4 4 0 0 0-.429.047c-.3.051-.55.263-.841.352-.228.069-.799.14-.799.14l-.026.686s-1.187.191-1.796.094c-.336-.055-.676-.148-.957-.359s-.529-.399-.842-.421c-.369-.026-.698.242-1.051.351-.488.15-.969.35-1.475.42-.346.05-.779-.221-1.05 0-.185.152-.227.479-.141.701.158.406.683.541 1.052.772.335.211.664.481 1.052.562.276.057.57.003.843-.07.575-.157 1.029-.651 1.612-.772.619-.129 1.279-.075 1.894.07.275.065.492.28.772.351.281.07 1.118.254 1.683.351q.524.089 1.053.14c.396.038.857.284 1.193.07.213-.135.232-.454.28-.702.079-.413.156-.873 0-1.263a2.72 2.72 0 0 0-1.332-1.402 1.5 1.5 0 0 0-.695-.118m25.586.708a4 4 0 0 0-.479.042c-.44.058-.832.318-1.263.421-.322.075-1.145.122-1.145.122s-.001.821.014 1.268c-.072.171-.103.286-.272.363-.363.164-.803.15-1.193.07-.307-.063-.578-.252-.843-.422a4 4 0 0 1-.349-.28c-.351-.071-.663.054-.983.14-.364.098-.686.328-1.053.421-.387.099-.885-.117-1.191.141a.72.72 0 0 0-.211.702c.105.35.518.533.843.7.494.254 1.087.239 1.612.422.386.132.722.407 1.122.49.503.106 1.031-.028 1.544 0 .423.024.838.138 1.262.141a9.4 9.4 0 0 0 2.106-.211c.339-.076.65-.243.981-.351.556-.18 1.22-.136 1.685-.491.391-.3.782-.769.77-1.262-.014-.538-.542-.941-.911-1.334-.366-.388-.764-.793-1.263-.981a2.1 2.1 0 0 0-.783-.111m-13.667.111-.083 1.479s-.733.087-1.089.016c-.463-.094-1.297-.568-1.297-.568l.02-.588c-.282.07-1.617-.078-2.393.013-.332.038-.699.029-.981.211a1.54 1.54 0 0 0-.632.839c-.085.293-.137.689.07.913.305.33.886.176 1.334.211.606.047 1.217.045 1.823 0 .472-.035.937-.293 1.403-.211.289.051.492.333.772.422.381.121.793.144 1.193.14.519-.005 1.182.163 1.543-.211.163-.169.101-.468.07-.702a2.35 2.35 0 0 0-.352-.912c-.236-.379-.515-.774-.911-.982-.147-.076-.49-.07-.49-.07m109.578 1.084c-.381 0-.684.476-.914.8-.173.242-.235.552-.298.843-.125.584.031 1.216-.15 1.786-.137.437-.359.875-.694 1.189-.269.254-.734.232-.992.497-.381.392-.441 1.003-.694 1.489a36 36 0 0 1-1.289 2.231c-.269.437-.476.933-.843 1.29-.432.419-1.206.442-1.539.942-.297.445-.307 1.056-.247 1.588.104.938.283 2.067 1.04 2.628.48.356 1.193.207 1.787.149.427-.04.819-.262 1.239-.347.506-.103 1.031-.297 1.538-.199.298.058.512.334.793.447.365.147.75.337 1.142.298.898-.09 1.601-.836 2.431-1.19.486-.208 1.168-.126 1.488-.547.371-.488.158-1.222.149-1.836a9 9 0 0 0-.199-1.784c-.168-.766-.5-1.487-.744-2.233-.388-1.187-.928-2.339-1.141-3.57-.085-.489.028-.999-.049-1.489-.056-.357-.125-.725-.298-1.041-.179-.329-.519-.544-.744-.844-.26-.345-.269-1.021-.695-1.091a.4.4 0 0 0-.077-.006m19.302 20.61c-.554.005-1.14.095-1.665.081-1.175-.032-2.382-.091-3.521.198-.602.153-1.332.285-1.688.793-.314.45.166 1.19-.148 1.638-.336.478-1.061.488-1.586.743-.4.193-.862.299-1.193.595-.294.263-.575.605-.643.993-.066.367.081.757.247 1.092a4 4 0 0 0 1.24 1.487c.461.327 1.037.465 1.587.595.598.143 1.221.176 1.836.199.479.017.964-.122 1.438-.049.59.09 1.138.362 1.687.595.748.318 1.433.773 2.182 1.091.774.329 1.551.701 2.381.843.587.102 1.191.025 1.786 0 .613-.024 1.288.127 1.836-.149.47-.237 1.056-.663 1.041-1.19-.027-.993-1.353-1.459-2.084-2.133-.569-.526-1.2-.98-1.785-1.488-.353-.307-.752-.576-1.042-.943-.34-.429-.672-.905-.794-1.439-.066-.29-.026-.605.051-.893.076-.286.328-.505.397-.793.071-.306.031-.63 0-.943-.018-.168.025-.383-.1-.496-.386-.354-.906-.433-1.461-.427z"/><path fill="#fff" d="m281.3 289.286 9.275 4.018s2.607.962 3.82 1.785c.22.15.289.477.297.745.011.365-.184.714-.347 1.041-1.925 3.862-4.229 7.675-7.341 10.664-.917.881-1.961 1.896-3.225 2.034-.681.075-1.355-.328-1.934-.694-.711-.451-1.298-1.099-1.786-1.786-.358-.504-.599-1.088-.807-1.672-.47-1.317-.777-2.697-.978-4.082a30.7 30.7 0 0 1-.298-5.555c.039-1.033.113-2.082.397-3.075.285-.997.625-2.033 1.289-2.829.168-.2.403-.35.646-.445.31-.123.992-.149.992-.149"/><path fill="#969496" d="m290.823 293.353 2.977 1.289s.619.297.843.547a1 1 0 0 1 .248.495c.053.331-.035.678-.149.992-.254.7-.769 1.274-1.16 1.907-.344.556-.695 1.107-1.041 1.662-.451.724-.872 1.469-1.347 2.178-.745 1.114-1.501 2.226-2.353 3.261-.564.685-1.819 1.943-1.819 1.943l-1.11-.087-.198-.496.794-1.389 5.853-7.689.348-.793s-.03-.585-.149-.844c-.153-.331-.298-.645-.695-.843-.397-.199-1.047-.224-1.388-.595-.178-.193-.242-.483-.249-.744-.005-.189.033-.398.148-.546.106-.134.447-.248.447-.248m-12.251 8.879c-.286.45.048 1.069.16 1.591.144.672.403 1.317.653 1.958.106.27.219.539.358.795.156.287.334.565.534.824.282.361.485.93.936 1.008.616.106 1.141-.522 1.663-.865.4-.256.77-.557 1.102-.896.213-.223.441-.456.546-.744.085-.234.092-.5.049-.744-.042-.249-.087-.556-.296-.695-.18-.118-.457-.102-.646 0-.452.244-.444.966-.844 1.29-.247.201-.574.371-.892.347-.406-.03-.786-.303-1.059-.604-.325-.36-.434-.871-.589-1.331-.11-.322-.136-.667-.237-.992-.107-.344-.125-.766-.391-1.009-.12-.11-.307-.142-.47-.138-.204.006-.469.032-.578.205z"/><path fill="#fff" d="M317.692 284.244s-.442 2.163-.895 3.16c-.511 1.126-1.247 2.147-2.022 3.11-.383.475-.778.962-1.284 1.302-.253.169-.539.351-.844.346-.508-.007-1.392-.625-1.392-.625l-2.261 1.932s.181 1.17.001 1.711c-.23.689-.818 1.207-1.308 1.744-.616.675-1.311 1.277-2.034 1.836-.556.431-1.762 1.162-1.762 1.162s1.901.223 2.854.177a10.8 10.8 0 0 0 2.48-.397c.881-.256 1.73-.639 2.53-1.091.938-.531 1.858-1.131 2.629-1.885.768-.752 1.391-1.652 1.934-2.579a15.6 15.6 0 0 0 1.488-3.374c.367-1.22.708-2.496.645-3.769-.047-.953-.758-2.76-.758-2.76z"/><path fill="#969496" d="m310.608 292.083-1.613 1.386s-.086.693-.158 1.034c-.097.463-.125.963-.368 1.368-.322.535-.875.898-1.368 1.28-.606.466-1.252.876-1.93 1.228-.573.301-1.156.615-1.789.754-.502.111-1.542.053-1.542.053s.578.355.894.473c.371.138.764.217 1.157.263.442.052.898.107 1.333.018.752-.154 1.495-.465 2.105-.93.551-.42.965-1.014 1.315-1.613.323-.553.593-1.158.701-1.789.085-.496-.052-1.508-.052-1.508l1.894-1.806zm7.085-7.839s-.301.924-.455 1.385c-.236.703-.4 1.436-.719 2.105-.299.623-.699 1.195-1.106 1.753-.478.659-.965 1.323-1.561 1.877a3 3 0 0 1-.736.526c-.241.115-.771.211-.771.211l.262.368s.464.04.684-.018c.422-.11.816-.342 1.158-.614.503-.4.878-.94 1.263-1.455.377-.506.74-1.03 1.017-1.596.305-.625.523-1.292.701-1.964.157-.592.284-1.196.316-1.806.013-.258-.053-.772-.053-.772"/><path fill="#fff" d="M275.592 212.687c.193.236.521.398.595.694s-.23.59-.199.893c.042.397.283.753.496 1.092.302.475.725.862 1.092 1.289.229.266.438.553.695.794.395.371 1.234.453 1.289.992.017.164-.256.222-.322.372-.085.19-.067.412-.075.62-.014.38.129.769.05 1.141-.031.144-.068.328-.198.396a.55.55 0 0 1-.57-.074c-.26-.225-.161-.669-.274-.992-.104-.297-.179-.62-.372-.868a1.6 1.6 0 0 0-.644-.496c-.201-.081-.438-.135-.646-.074-.225.066-.326.532-.545.446-.404-.159-.016-.885-.173-1.289-.184-.471-.589-.821-.869-1.241-.206-.309-.386-.635-.595-.942-.425-.627-1.097-1.117-1.339-1.836m27.631-74.665c-.307-.051-.597.177-.892.274-.192.062-.371.218-.571.197-.174-.018-.279-.219-.446-.273-.229-.073-.522-.187-.72-.05-.242.174-.595-.039-.892-.024-.068.003-.151-.022-.199.024-.104.098.022.319-.075.422-.14.15-.392.127-.595.149-.806.086-1.62-.063-2.431-.075-.248-.004-.519-.107-.743 0-.201.096-.242.391-.422.522-.337.244-.753.384-1.164.445-.353.053-.731.044-1.067-.073-.236-.082-.383-.346-.622-.422-1.859-.594-3.901-.091-5.853-.124-1.281-.022-2.562-.068-3.843-.05-.406.005-.821.142-1.215.05-.202-.047-.353-.222-.546-.297-.341-.14-.7-.232-1.067-.274a4.6 4.6 0 0 0-1.289.075c-.205.039-.387.189-.595.198-.433.02-.834-.253-1.266-.297-.295-.031-.711-.212-.892.023-.109.143.013.382.124.522.213.265.592.345.917.446.359.113.75.089 1.117.175.16.037.359.026.471.148.127.137.146.36.124.545-.012.093-.047.197-.124.248-.263.172-.781-.219-.943.05-.07.117.07.284.174.373.164.139.406.162.62.172.319.015.648-.048.943-.172.289-.123.475-.435.768-.547.289-.109.626-.197.918-.099.194.065.314.265.445.421.193.228.25.579.498.745.238.16.555.174.842.174.406-.001.785-.247 1.19-.249.254 0 .494.114.745.15.492.07.991.159 1.487.123.483-.034.932-.343 1.415-.321.321.014.598.257.918.296.385.05.785.01 1.165-.074.268-.059.495-.301.769-.297.278.003.491.314.769.321.465.013.858-.377 1.314-.471.381-.079.776-.074 1.165-.073.721.001 1.47-.067 2.158.148.248.077.429.3.67.396a4.7 4.7 0 0 0 1.538.348c.334.013.659-.119.992-.148.552-.05 1.111.01 1.662-.05.309-.034.605-.171.917-.174.251-.003.493.11.745.124.768.043 1.539-.057 2.307-.124.904-.078 1.795-.286 2.702-.322.859-.034 1.723.018 2.58.1.541.051 1.076.151 1.611.246.822.147 1.636.336 2.456.497 1.139.222 2.263.603 3.424.645.648.023 1.287-.165 1.933-.223.528-.047 1.06-.06 1.588-.099.778-.058 1.577.004 2.331-.198.3-.081.539-.331.843-.397.985-.216 2.02-.042 3.026.024.474.031.956.052 1.414.174.538.143.992.534 1.537.644.398.08.828.115 1.216 0 .293-.086.468-.453.769-.495.427-.061.817.283 1.239.371.53.112 1.089.336 1.613.199.297-.078.454-.444.743-.547.336-.117.744-.198 1.067-.048.208.096.219.437.422.545.469.248 1.122.354 1.587.099.315-.173.516-.583.52-.942.006-.344-.174-.745-.471-.918-1.185-.695-2.745.081-4.117.149-.91.045-1.83.332-2.728.174-.284-.05-.51-.289-.794-.348-1.044-.214-2.132.01-3.199.025-1.728.023-3.457.176-5.183.099-.532-.024-1.079-.016-1.587-.173-.367-.114-.706-.318-1.017-.546-.354-.259-.536-.754-.943-.917-1.012-.407-2.182.064-3.273.024-.513-.018-1.043.018-1.538-.123-.295-.084-.518-.368-.82-.423-.556-.101-1.122.261-1.685.199-.445-.05-.827-.359-1.266-.446-.454-.09-.924-.071-1.388-.075-.438-.003-.911-.12-1.315.05-.232.099-.351.36-.545.521-.141.117-.272.265-.447.322-.307.099-.671.127-.967 0-.22-.094-.309-.371-.496-.521-.256-.203-.528-.41-.842-.495-.279-.077-.594.089-.868 0-.214-.07-.325-.359-.547-.397m23.453.42c-.137.004-.249.038-.289.125-.053.117.133.24.25.297.177.088.418.118.594.026.096-.05.2-.169.174-.273-.011-.044-.429-.184-.729-.175m-5.031.485a1.3 1.3 0 0 0-.514.087c-.086.035-.219.107-.199.198.06.266.5.225.768.273.578.104 1.198.191 1.761.025.086-.025.215-.061.224-.15.011-.117-.143-.196-.249-.247-.27-.13-.594-.083-.892-.099-.295-.016-.602-.084-.899-.087m-51.993.901c-.598.001-1.221.155-1.756.36-.116.044-.28.121-.281.245 0 .157.228.217.351.316.079.062.151.142.246.174.733.241 1.626.383 2.315.035.09-.045.099-.18.175-.244.119-.102.372-.062.422-.211.04-.124-.065-.283-.176-.351-.38-.231-.831-.324-1.296-.324m72.116 1.708a.8.8 0 0 0-.226.031c-.163.05-.25.235-.397.323-.122.075-.292.076-.398.174-.116.108-.263.267-.223.421.085.324.522.456.844.546.327.093.684.043 1.016-.024s.61-.318.943-.372c.319-.053.754.292.968.05.161-.182.018-.521-.124-.72-.147-.208-.419-.326-.669-.373-.239-.044-.478.095-.721.1-.337.006-.682-.158-1.013-.157zm-47.269 6.413c-.16 0-.32.021-.472.06-.279.07-.485.33-.761.41-.386.112-.801.071-1.203.081-.69.017-1.428-.284-2.071-.035-.254.099-.346.449-.595.56-.258.115-.563.11-.842.071-.26-.037-.492-.188-.737-.282-.246-.093-.48-.222-.737-.279-.332-.073-.685-.143-1.016-.07-.287.063-.49.342-.773.42-.49.134-1.015.052-1.524.056-1.647.014-3.309.125-4.941-.099-.498-.068-.967-.286-1.461-.377-.313-.058-.641-.019-.946-.105-.187-.053-.423-.082-.527-.246-1.736-.115-3.531-.058-5.297-.07-.549-.004-1.101-.037-1.648 0-.26.017-.709-.147-.771.105-.088.35.755.291.875.63.045.126.029.381-.105.386-1.227.051-1.963-.017-2.945 0-.667.012-1.335.017-2 .07-.564.046-1.217-.109-1.683.211-.142.098-.274.286-.246.457.066.391.507.664.878.807.797.304 1.707-.015 2.56-.036 1.029-.024 2.07.06 3.087-.105.529-.086 1.011-.379 1.543-.456.96-.139 1.94 0 2.911 0 1.134 0 2.271.078 3.403 0 .341-.024.676-.107 1.015-.141.355-.035.711-.072 1.068-.066.617.009 1.232.09 1.844.172.2.027.408.034.597.105.486.183.844.631 1.332.807.445.161.949.341 1.404.211.207-.059.302-.319.491-.422.3-.161.643-.239.981-.28.326-.039.685-.102.983.035.187.086.325.273.422.456.099.192-.037.507.139.631.29.203.698-.161 1.052-.141.336.019.648.198.982.246.591.084 1.192.061 1.789.07 1.227.018 2.472.164 3.683-.035.595-.097 1.125-.457 1.719-.56.829-.144 1.682-.082 2.525-.07.632.008 1.261.08 1.893.105.503.02 1.024.167 1.51.035.343-.093.566-.467.911-.561.732-.202 1.521.042 2.281.035.666-.006 1.419.261 1.998-.071.133-.075.263-.234.246-.385-.027-.247-.322-.386-.526-.527a1.8 1.8 0 0 0-.632-.281c-1.111-.229-2.294.273-3.403.036a.96.96 0 0 1-.454-.211c-.089-.082-.056-.312-.176-.316-1.466-.051-2.5.258-4 .211-.292-.01-.492-.33-.77-.422-.441-.144-.94-.039-1.379-.189-.367-.125-.633-.481-1.008-.581a1.8 1.8 0 0 0-.473-.06m15.476 1.732a8.4 8.4 0 0 0-1.32.147c-.322.057.411.557.695.743.432.284.954.425 1.463.521.504.096 1.025.054 1.538.05.348-.003.747.137 1.041-.05.134-.085.3-.282.224-.421-.1-.182-.415-.025-.621-.05-.407-.05-.93.096-1.215-.198-.133-.138.057-.431-.074-.57-.15-.161-.428-.108-.646-.125-.401-.029-.723-.054-1.086-.047zm6.758.64q-.386.001-.786.003c-.129.117-.158.382-.05.52.145.184.461.086.695.099.784.043 1.573-.001 2.355-.075.375-.034 1.066.199 1.117-.173.028-.199-.354-.193-.547-.248-.247-.07-.511-.08-.768-.099-.412-.031-.825-.02-1.24-.024q-.387-.004-.776-.003m9.354 9.851c-.405-.003-.818.105-1.211.201-.52.126-.978.443-1.492.595-.748.222-1.523.355-2.297.456-1 .131-2.018.065-3.017.194-.608.078-1.197.28-1.807.349-.668.076-1.347-.004-2.015.071-.467.052-.947.096-1.386.264-.274.105-.766.162-.756.456.011.269.457.313.721.367.528.11 1.075-.075 1.613-.104.754-.043 1.508-.102 2.262-.106 1.094-.005 2.186.151 3.28.124a16 16 0 0 0 1.595-.141c.477-.059.943-.186 1.422-.228.6-.055 1.214.074 1.806-.035.526-.098.982-.446 1.508-.544.58-.107 1.193-.156 1.771-.035.41.086.734.425 1.14.526.483.121 1 .167 1.491.088.341-.056.62-.347.964-.387.265-.03.532.053.789.124.468.128.873.459 1.35.543.836.147 1.696-.065 2.544-.086 1.07-.028 2.14-.007 3.209-.054.896-.039 1.801-.028 2.682-.193.295-.054.571-.192.861-.264.335-.082.672-.175 1.016-.192.322-.015.646.037.965.088.473.074.925.291 1.404.315.588.03 1.171-.119 1.753-.211.488-.075.965-.218 1.455-.281.285-.035.573-.036.86-.051 1.051-.056 2.103-.148 3.157-.14.585.004 1.182.233 1.753.105.201-.045.505-.094.544-.297.024-.127-.133-.236-.245-.3-.602-.339-1.381-.136-2.052-.297-.372-.089-.714-.293-1.089-.37-.764-.155-1.552-.133-2.331-.173-.561-.03-1.128-.128-1.684-.054-.521.069-.993.358-1.508.456-.34.066-.695.018-1.035.088-.403.082-.767.326-1.175.385-.382.055-.772-.024-1.157-.035-1.392-.039-2.782-.093-4.174-.105-2.093-.017-4.19.175-6.279.054-.423-.025-.838-.157-1.262-.16a2.5 2.5 0 0 0-.614.071c-.292.073-.543.287-.842.334a2.4 2.4 0 0 1-1.053-.07c-.225-.068-.405-.241-.613-.351-.247-.131-.492-.268-.754-.37-.443-.171-.932-.213-1.369-.402-.105-.046-.184-.151-.297-.176a2 2 0 0 0-.401-.043zm-95.231 9.372c-.175 0-3.262.069-3.472.104-.211.035-.49.281-.49.281l.104.175-1.297.035-.456.141-.493.491 1.054.282 2.104.104s.771-.315 1.753-.211c.982.106 2.771.106 2.771.106l.632-.211.422-.351.035-.351c-.176.035-2.07 0-2.07 0l-.035-.421s-.386-.174-.562-.174m144.776.488a9 9 0 0 0-1.303.082c-.621.075-1.212.325-1.834.396-3.023.348-6.086.15-9.128.15-2.018 0-4.042.075-6.051-.1-1.051-.091-2.071-.506-3.125-.496-.656.007-1.361.032-1.935.347-.257.141-.329.524-.596.646-.572.259-1.256.028-1.884.049-1.092.04-2.228-.167-3.274.149-.37.111-1.071.217-.993.595.176.849 1.716.279 2.581.348 1.336.106 2.691-.089 4.018.099.321.045.647.109.941.247.312.145.541.433.844.595.484.26.989.631 1.538.596.62-.041 1.042-.714 1.637-.893.556-.168 1.156-.116 1.734-.149 5.418-.297 10.847-.403 16.272-.396 1.224.002 2.594.682 3.671.099.222-.12.509-.419.397-.645-.156-.312-.696-.06-1.043-.099-.629-.072-1.466.229-1.884-.248-.12-.137-.082-.383 0-.546.139-.274.798-.244.743-.547s-.586-.209-.892-.247a5 5 0 0 0-.434-.031zm-139.795.142-.421.141-.175.281-.56.28.981.176 3.016-.106s1.263-.035 1.683.035c.422.071.563.247.563.247s-.457.315-.247.35c.211.036.422-.105 1.123 0 .702.106 2.877.141 3.192.141s1.192-.211 1.192-.211-.386-.421-.596-.456a9 9 0 0 1-.596-.141s-.421-.315-.631-.315h-1.369l-.665-.141-.386-.281h-1.825l-.771.211-1.158-.07-.667-.07c-.14 0-1.683-.071-1.683-.071m90.03 9.017c-.397 0-.992.397-1.389.496s-1.983 0-1.983 0l-.15.348s-.099.496-.099.694c0 .199.595.297 1.19.397.595.099.646.396.646.396l1.488-.247s.199-.049.645 0c.446.05.843.248 1.19.199.347-.05 2.133-.2 2.579-.249a23 23 0 0 1 2.283-.099c.992 0 .446.298.694.447.248.148 1.687 0 2.927.099s1.736.198 2.033.247c.298.05 1.289-.099 1.588-.198.297-.1.742-.1 1.14-.1.396 0 3.621.001 3.869-.048.248-.05 1.041.049 1.289.099.249.049.545.347 1.092.496.545.149.893-.397.893-.397s.794-.099 1.488-.099c.695 0 1.041.346 1.289.346s1.389-.496 1.389-.496.942-.148 1.289-.198c.348-.05.795 0 1.043.05s.892.347 1.686.297.844-.446.844-.446 1.239.049 1.487.099c.249.05.595.347 1.092.397.496.05 1.042-.347 1.24-.545.199-.198.396-.05.793-.05s1.042-.248 1.191-.445c.148-.199 0-.399-.149-.597-.148-.199-.645-.05-.943-.099-.297-.05-.544-.248-.941-.347s-1.539-.049-2.581-.099c-1.041-.05-2.479 0-2.827 0s-1.487.248-1.983.297c-.497.05-1.489.298-2.232.298-.745 0-1.042-.299-1.39-.348-.346-.05-1.587.099-2.43.199-.844.099-.992.148-2.133.099-1.14-.05-.744-.099-1.786-.347-1.041-.248-1.437-.1-1.884-.149-.446-.05-3.076-.049-3.374-.049-.297 0-1.487.396-1.487.396s-7.491-.296-7.689-.296-1.587-.397-1.587-.397-.943-.051-1.34-.051m-42.686-23.027q-.197.009-.385.069a1.51 1.51 0 0 0-.919.902c-1.778 7.982-2.9 16.086-3.724 24.508.077.723.211 1.389.706 1.785.443.353 1.161.483 1.672.243.654-.305.907-.904 1.162-1.855 1.727-7.752 2.85-15.727 3.302-24.297.058-.356-.331-.816-.675-1.041a1.96 1.96 0 0 0-1.139-.313zm-15.036.872c-.357.011-.716.105-.996.287-.372.241-.64.693-.654 1.111.651 7.955 2.004 15.828 3.758 23.914.3.648.642 1.229 1.267 1.452.558.199 1.326.11 1.772-.264.568-.477.638-1.108.605-2.068-.633-7.726-1.945-15.481-4.123-23.594-.05-.348-.588-.662-1.005-.771a2.2 2.2 0 0 0-.625-.067zm31.653 5.813a1.46 1.46 0 0 0-1.042.386c-5.118 6.184-9.724 12.772-14.216 19.778-.258.667-.441 1.312-.191 1.886.224.512.785.954 1.334.978.701.03 1.185-.381 1.833-1.098 4.968-6.005 9.518-12.48 13.755-19.784.211-.286.081-.867-.114-1.221-.245-.446-.711-.824-1.204-.909a1 1 0 0 0-.156-.017zm-45.946 2.326a2 2 0 0 0-.146.012c-.469.062-.958.336-1.209.736a1.374 1.374 0 0 0-.116 1.166c3.409 6.539 7.346 12.771 11.68 19.046.475.451.959.829 1.537.807.517-.021 1.094-.357 1.312-.826.279-.599.107-1.159-.268-1.963-3.312-6.352-7.176-12.497-11.857-18.651-.146-.246-.578-.34-.933-.327m57.118 8.51a1.4 1.4 0 0 0-.633.125c-6.84 4.2-13.328 8.946-19.842 14.125-.459.549-.841 1.101-.789 1.725.045.557.433 1.154.945 1.354.655.255 1.245.024 2.089-.445 6.643-4.08 13.039-8.739 19.408-14.283.291-.203.357-.793.286-1.191-.088-.502-.406-1.01-.845-1.25a1.4 1.4 0 0 0-.619-.16m3.482 13.348q-.075.001-.149.013c-7.286 1.905-14.404 4.4-21.666 7.279-.563.368-1.057.761-1.181 1.337-.112.516.072 1.162.477 1.484.517.409 1.111.364 1.996.173 7.077-1.851 14.091-4.294 21.323-7.541.317-.103.536-.618.582-.997.058-.476-.086-1.021-.414-1.359a1.37 1.37 0 0 0-.968-.389m29.584 34.946a.3.3 0 0 0-.062.002c-.05.007-.088.058-.106.104-.254.643.166 1.388.07 2.071-.047.341-.136.688-.316.982-.172.281-.584.392-.702.701-.132.351.02.752.071 1.124.053.39.026.828.245 1.156.127.189.465.18.562.386.115.244.109.606-.071.807-.318.355-.998.03-1.403.281-.276.172-.411.503-.595.771-.179.259-.448.495-.492.807-.03.216.011.489.176.632.286.246.763.023 1.121.14.254.082.455.286.702.386.248.1.53.32.773.209.318-.146.297-.634.456-.946.212-.414.465-.808.665-1.228.184-.389.31-.802.491-1.192.128-.275.379-.507.422-.807.098-.698-.275-1.381-.422-2.069-.224-1.055-.326-2.147-.701-3.157-.121-.324-.246-.668-.49-.913-.107-.107-.247-.234-.394-.247m-6.477 5.035c-.125.002-.246.039-.321.124-.264.297.015.794 0 1.192-.012.305-.16.621-.07.912.066.215.205.465.421.526.238.069.454-.237.702-.245.218-.008.487.011.632.175.164.187-.029.527.104.736.106.164.305.373.49.315.231-.071.232-.431.282-.666.121-.572.253-1.211.035-1.753-.135-.231.035-.67-.211-.773-.174-.072-.322.196-.49.282-.149.076-.292.239-.456.21-.196-.035-.292-.271-.421-.421-.154-.177-.207-.468-.422-.561a.7.7 0 0 0-.275-.053m60.675 6.05-.527.035-.281 1.018.105 1.438 1.404.034s.385-.14.525-.28-.139-.595-.174-.735-.351-.632-.351-.632zm-80.307 2.504c-.743.017-1.491.201-2.224.092-.073-.011-.162-.126-.211-.071-.24.277.188.778.49.983.447.304 1.194-.198 1.615.141.305.246.042.879.351 1.122.59.462 1.494.134 2.244.14 1.499.011 3.655 1.034 4.489-.211.194-.289-.188-.674-.351-.981-.149-.281-.284-.616-.561-.772-.47-.265-1.074-.125-1.613-.14-.795-.024-1.595.161-2.385.07-.456-.052-.877-.298-1.333-.352a4 4 0 0 0-.511-.021m25.179.485c-.265.008-.477.079-.536.309-.139.534 1.084.49 1.333.983.158.312-.216.774 0 1.051.297.38.924.285 1.403.351 2.386.328 5.397-1.36 7.225.211.197.17-.047.588.14.771.422.414 1.164.329 1.754.281.884-.072 2.17-.029 2.526-.842.205-.47-.304-1.01-.632-1.404-.236-.284-.552-.547-.913-.63-1.037-.238-2.092.427-3.155.49-1.915.113-4.042.661-5.752-.21-.372-.188-.416-.767-.772-.982-.449-.27-1.021-.268-1.543-.281-.305-.008-.736-.106-1.078-.098m-9.895.036c-.846.019-1.854.634-2.426.062-.343-.17-.898.319-.912.702-.013.314.409.515.701.632.76.304 1.673.311 2.456.07.496-.152 1.252-.393 1.262-.913.004-.266-.379-.404-.631-.491a1.3 1.3 0 0 0-.45-.062m64.906 2.937c-.679.016-1.354.156-2.023.282-.641.122-1.242.498-1.893.492-.607-.007-1.188-.708-1.756-.492-.363.138-.799.631-.631.981.569 1.188 2.621.266 3.93.422 1.428.17 2.865.292 4.278.561.947.18 1.849.584 2.805.702 1.393.172 2.821.186 4.211 0 .264-.035.618.007.77-.211.47-.673.432-1.942-.21-2.455-.924-.736-2.326.475-3.507.492-1.27.017-2.532-.236-3.789-.422-.635-.093-1.251-.33-1.893-.351a6 6 0 0 0-.292-.001m-33.543 7.997c-.406.005-.803.059-1.17.212-.58.243-.809 1.052-1.402 1.262-.839.297-1.778-.083-2.666-.141-.913-.058-1.824-.142-2.736-.21-.655-.048-1.308-.143-1.964-.139-.281.002-.72-.185-.842.069-.22.455.488.902.842 1.263.398.409.859.807 1.402.983 1.268.412 2.673-.064 4 .07 1.017.103 2.045.235 3.015.561.545.182.989.623 1.544.771 1.177.315 2.429.205 3.647.211.96.004 1.917-.106 2.876-.14 1.029-.037 2.068-.219 3.086-.071.828.121 1.557.665 2.386.772.835.109 1.692-.008 2.525-.14.908-.143 1.758-.56 2.666-.702.902-.14 1.823-.142 2.736-.14.844.001 1.758.488 2.525.14.38-.172.859-.574.773-.981-.105-.491-.852-.563-1.334-.702-1.149-.332-2.383-.213-3.577-.281-1.355-.076-2.732.094-4.069-.141-.678-.117-1.281-.557-1.964-.631-.724-.078-1.449.145-2.174.211-.818.074-1.792.694-2.456.211-.252-.184-.175-.603-.211-.913-.021-.186.129-.424 0-.56-.901-.952-2.631-.021-3.929-.211-.785-.115-1.523-.49-2.315-.561-.396-.036-.809-.078-1.214-.072m-7.518 7.071q-.44-.003-.877.016c-.754.031-1.493.223-2.245.28-.839.064-1.702-.106-2.525.07-.594.128-1.464.136-1.683.702-.141.361.203.791.49 1.052.367.332.994.211 1.404.491.355.243.464.772.84.983 4.051 2.263 9.146 1.594 13.75 2.174.746.094 1.496.275 2.244.211 1.955-.169 3.743-1.245 5.683-1.545 1.133-.175 2.297-.256 3.437-.139.768.078 1.478.481 2.245.56.605.063 1.28.204 1.823-.07.402-.202.886-.605.842-1.051-.038-.397-.545-.618-.912-.772-.454-.192-1.115.2-1.472-.141-.24-.228.066-.725-.141-.983-.25-.311-.723-.414-1.122-.419-.571-.007-1.048.493-1.613.56-1.378.162-2.787-.109-4.139-.42-1.067-.244-2.013-.909-3.086-1.122-1.057-.21-2.151-.151-3.227-.141-1.125.01-2.244.224-3.368.211-1.103-.013-2.202-.144-3.297-.281-.14-.018-.279-.056-.42-.071a27 27 0 0 0-2.631-.155m15.047 6.961a5 5 0 0 0-1.824.349c-.509.195-.879.693-1.403.843-1.395.399-2.899.089-4.349.07-1.639-.022-3.273-.161-4.91-.21-1.356-.041-2.729-.276-4.07-.071-.512.078-1.315-.001-1.473.492-.097.303.284.617.562.771.82.457 2.094-.4 2.806.211.237.204.096.62.209.911.155.4.462.728.632 1.123.125.292.137.627.281.911.248.493 1.186.82.982 1.334-.096.242-.512.161-.772.14-.42-.033-.776-.347-1.192-.421-1.865-.331-3.824-.44-5.682-.07-.349.07-.878.08-.983.422-.114.371.309.765.632.982.435.29 1.357-.21 1.543.279.095.25-.365.396-.492.632-.139.261-.375.562-.279.842.137.398.64.612 1.052.702.578.126 1.161-.305 1.753-.281 1.179.048 2.333.427 3.437.84.764.287 1.389.908 2.175 1.124.768.211 1.589.148 2.385.141 1.736-.02 3.458-.535 5.191-.422.334.022.731-.01.983.211.316.278.548.791.421 1.193-.121.383-.853.32-.983.7-.079.232.024.544.211.702 1.258 1.068 3.266.777 4.91.632.854-.076 1.969-.065 2.455-.772.213-.309-.32-.844-.07-1.123.328-.367 1.015.105 1.474-.071.45-.172.674-.73 1.121-.911 1.523-.614 3.269-.378 4.911-.421 1.403-.036 2.829.394 4.209.141 1.073-.197 2.028-.805 3.018-1.263 1.261-.585 2.693-.953 3.716-1.894.394-.362.479-1.206.725-1.688-.852.258-2.094-.314-3.039-.486-.582-.107-1.094-.507-1.684-.562-.516-.048-1.028.156-1.543.211-.607.064-1.215.158-1.824.141-.519-.016-1.023-.219-1.543-.211-.426.006-.838.175-1.263.211-.303.024-.675-.193-.911 0-.537.436.116 1.596-.422 2.033-.525.428-1.358.031-2.035 0-.258-.012-.547-.2-.77-.07-.245.142-.127.601-.352.772-.47.359-1.172.162-1.752.281-.662.135-1.293.443-1.966.491-.68.048-1.643.347-2.034-.211-.166-.236.038-.61.211-.842.438-.588 1.329-.652 1.893-1.122.739-.615 2.293-1.3 1.896-2.175-.407-.894-1.965.014-2.947 0-.819-.012-1.687-.353-2.455-.071-.295.109-.414.507-.702.632-.71.31-1.558.375-2.315.211-.368-.08-.913-.191-.983-.562-.116-.621.69-1.091 1.194-1.472 1.278-.967 2.908-1.357 4.419-1.894.481-.172 1.214.02 1.472-.422.207-.351.012-.906-.279-1.192-.871-.855-2.358-.758-3.579-.771zm23.313 7.08c.204-.062.387-.17.538-.346-.259-.047-.417.109-.539.346zm-9.556 13.811q-.18.002-.359.014c-.284.016-.633-.055-.842.139-.354.326-.056 1.022-.351 1.404-.179.231-.485.353-.77.421-.729.173-1.498-.093-2.246-.071-.516.016-1.027.125-1.543.141-.842.026-1.693.055-2.525-.07-.6-.092-1.152-.409-1.754-.493-.671-.091-1.52-.439-2.036 0-.341.293-.407.93-.208 1.333.388.789 1.469 1.024 2.315 1.264 1.261.357 2.617.155 3.927.211.748.031 1.497.098 2.245.07a31 31 0 0 0 3.929-.422c.922-.155 1.821-.432 2.735-.631.793-.174 1.635-.183 2.386-.492.593-.244 1.357-.462 1.613-1.051.16-.371.083-.917-.211-1.193-.927-.87-2.521-.321-3.788-.422-.836-.066-1.678-.166-2.517-.152"/><path fill="#006bad" d="M291.532 217.844c-.098.033-.201.008-.284.036-.185.059-.289.297-.316.49-.034.242.225.11.211.354-.013.203-.164.375-.246.562-.093.211-.254.402-.281.631-.06.508.187 1.005.281 1.508.081.433.279.859.245 1.298-.015.211-.008.534-.211.596-.223.067-.341-.342-.561-.422-.197-.072-.473-.174-.631-.034-.369.325-.083.982-.104 1.473-.033.771-.009 1.544-.035 2.315-.008.222.17.582-.035.667-.145.06-.268-.182-.352-.316-.369-.598-.322-1.372-.561-2.034-.174-.483-.364-.966-.632-1.404-.225-.369-.547-.67-.807-1.016-.266-.356-.586-.684-.77-1.088-.164-.362-.008-.87-.281-1.158-.252-.266-.706-.432-1.053-.314-.301.101-.479.463-.561.77-.12.443.049.919.14 1.369.095.468.343.896.421 1.367.061.369.214.794.036 1.123-.066.12-.217.229-.352.211-.302-.042-.334-.59-.63-.667-.225-.059-.468.332-.667.211-.181-.112-.07-.422-.105-.633-.082-.491.016-1.048-.246-1.472-.228-.37-.625-.69-1.052-.772-.32-.061-.729.003-.946.246-.166.185-.141.492-.106.736.108.762.585 1.426.946 2.105.292.547.525 1.16.983 1.578.213.193.485.369.772.386.31.018.573-.248.875-.316.242-.054.495-.032.738-.071.261-.041.572-.003.772-.175.219-.188.028-.793.316-.805.287-.013.287.5.386.77.156.43-.03 1.034.314 1.334.186.162.496.017.737.07.206.045.475.038.597.211.182.258-.144.664 0 .945.138.269.436.518.737.527.22.007.424-.177.56-.352.137-.173-.009-.6.211-.629.208-.028.164.425.35.525.217.115.528.129.738 0 .266-.165.254-.575.421-.841.142-.226.225-.641.491-.632.168.006.123.358.279.422.256.102.614.019.807-.176.37-.373.263-1.022.317-1.544.024-.245-.08-.504 0-.736.148-.433.66-.667.842-1.088a4.6 4.6 0 0 0 .35-2.28c-.07-.636-.355-1.25-.702-1.788-.281-.437-.764-.715-1.087-1.122-.216-.273-.598-.186-.561-.531-.053-.258-.407-.516-.698-.419zm36.584 1.32a.4.4 0 0 0-.11.016c-.334.105-.386.604-.456.948-.224 1.113.039 2.274.176 3.401.059.496.12 1 .28 1.474.176.52.511.972.737 1.473.166.367.344.734.455 1.122.131.457.163.936.246 1.403.08.456.083.934.245 1.369.152.407.302.884.667 1.121.247.161.602.211.878.105.247-.094.441-.344.525-.596.136-.412-.004-.875-.106-1.297-.158-.652-.633-1.202-.77-1.859-.116-.549-.039-1.123-.035-1.685.002-.35.172-.728.035-1.05-.192-.45-.806-.585-1.088-.983a2.7 2.7 0 0 1-.457-1.088c-.111-.647.203-1.316.106-1.964-.035-.234-.152-.45-.246-.667-.114-.264-.186-.562-.385-.77-.186-.196-.44-.471-.697-.474zm-16.313.32a1 1 0 0 0-.072.012c-.222.061-.511.137-.597.352-.189.473.396.961.422 1.472.013.26-.015.542-.14.771-.139.255-.518.332-.632.597-.149.344-.076.756 0 1.122.078.374.325.693.456 1.053.183.504.341 1.018.456 1.542.104.473.113.965.211 1.44.063.307.209.597.245.91.043.372-.109.757-.035 1.123.073.354.196.731.456.981.375.36.938.457 1.438.597.365.102.812.391 1.123.175.187-.129.162-.44.14-.666-.051-.543-.38-1.024-.631-1.508-.273-.527-.986-.915-.948-1.508.016-.257.4-.355.492-.596.108-.284.101-.615.035-.912-.1-.45-.475-.795-.633-1.227a5.3 5.3 0 0 1-.315-1.404c-.039-.515.167-1.031.105-1.543a4.5 4.5 0 0 0-.524-1.649c-.245-.434-.531-.916-.983-1.122a.15.15 0 0 0-.069-.012m25.386.5q-.05 0-.099.004c-.287.02-.574.174-.77.384-.245.259-.334.637-.422.983-.093.364-.091.747-.105 1.123-.029.736-.034 1.476.035 2.21.058.614-.005 1.296.316 1.823.19.313.513.609.876.666.244.039.473-.341.702-.245.226.095.222.439.316.666.296.722.43 1.508.771 2.21.152.312.282.669.561.877.234.176.55.271.842.245.338-.032.739-.163.912-.455.174-.291.1-.707-.035-1.018-.184-.424-.812-.552-.983-.983-.137-.347.09-.751.035-1.121-.058-.402-.214-.789-.386-1.158-.15-.324-.462-.568-.56-.911-.156-.551.11-1.157 0-1.719-.065-.335-.15-.701-.386-.947-.213-.223-.589-.209-.842-.386-.23-.16-.587-.316-.597-.597-.007-.248.381-.339.493-.561a.96.96 0 0 0 .104-.492c-.011-.125-.048-.264-.14-.35a1 1 0 0 0-.638-.248m42.232.521a1 1 0 0 0-.136.008c-.232.032-.422.233-.562.421a2.14 2.14 0 0 0-.419 1.158c-.02.485.222.945.384 1.402.146.409.347.797.527 1.194.229.504.476 1 .701 1.507.196.441.421.873.563 1.334.156.512.199 1.054.315 1.578.097.434.09.914.316 1.298.226.385.635.628.981.911.435.355.852.763 1.368.982.362.154.783.329 1.157.211.3-.093.591-.362.667-.667.098-.39-.18-.791-.351-1.156-.289-.62-.894-1.075-1.123-1.72-.15-.421.02-.914-.139-1.332-.107-.282-.28-.563-.526-.737-.407-.289-1.054-.103-1.439-.422-.375-.309-.622-.812-.665-1.297-.025-.28.223-.526.244-.806.025-.33-.007-.68-.141-.983-.133-.305-.512-.46-.63-.771-.108-.284-.005-.609-.035-.913-.022-.223-.037-.452-.105-.666-.016-.05-.032-.105-.071-.141-.234-.212-.562-.387-.881-.393m12.849.147a.14.14 0 0 0-.113.036c-.216.2.01.599.105.878.155.45.567.782.737 1.228.154.4.172.839.246 1.261.079.455.17.91.211 1.369.04.455-.179.964.035 1.367.236.445.84.556 1.226.878.363.301.742.599 1.018.981.221.305.408.651.492 1.018.114.502 0 1.028 0 1.542 0 .538-.098 1.086 0 1.615.077.418.147.898.456 1.191.276.262.706.358 1.086.352.274-.005.629-.048.773-.281.16-.26.009-.628-.106-.911-.238-.588-.981-.901-1.158-1.51-.148-.507.145-1.049.141-1.578-.004-.446.033-.922-.141-1.333-.178-.421-.72-.622-.876-1.051-.155-.429.043-.915 0-1.369-.053-.557-.015-1.176-.315-1.648-.194-.303-.563-.457-.878-.632-.354-.195-.843-.164-1.122-.456-.171-.179-.221-.455-.245-.701-.034-.341.156-.675.141-1.017-.013-.252-.031-.529-.176-.737-.121-.172-.325-.289-.527-.351-.19-.057-.398.019-.596 0-.133-.013-.289-.133-.414-.141m-37.25.75c-.197.013-.408.211-.532.374-.167.219-.129.536-.175.807-.032.186.024.397-.071.56-.117.202-.453.214-.562.422-.151.289-.052.655-.035.982.036.648.152 1.292.282 1.929.137.675.265 1.36.526 1.998.259.635.621 1.229 1.016 1.79.186.265.315.672.632.736.179.036.378-.102.491-.246.193-.245.224-.599.211-.911-.023-.528-.397-.989-.492-1.509-.182-1.002 0-2.042-.141-3.05-.055-.404-.168-.8-.28-1.193-.111-.391-.624-.828-.386-1.158.321-.405.119-1.293-.351-1.508a.26.26 0 0 0-.133-.023m-47.554.137a.35.35 0 0 0-.189.061c-.439.313-.131 1.075-.105 1.613.035.734.254 1.448.351 2.176.133 1.002.107 2.026.316 3.016.134.636.264 1.299.595 1.859.139.235.299.52.561.595.407.118.961.013 1.228-.314.134-.163.072-.424.036-.632-.098-.562-.539-1.023-.667-1.579-.097-.421-.004-.869-.07-1.296-.1-.646-.284-1.276-.492-1.894-.222-.661-.628-1.257-.807-1.931-.121-.455.133-1.047-.175-1.402-.132-.151-.376-.281-.583-.272zm67.014 1.219c-.294.438.022 1.058.105 1.578.082.512.138 1.052.386 1.508.214.392.672.606.913.983.15.234.264.498.314.771.09.483-.007.982-.035 1.473-.015.27.089.59-.07.807-.127.174-.44.097-.595.246-.243.231-.43.576-.421.911a1 1 0 0 0 .386.737c.142.107.347.083.524.105.21.027.462-.09.633.035.16.118.057.433.21.561.136.117.365.183.526.106.227-.108.291-.423.352-.667a2.4 2.4 0 0 0 0-1.123c-.073-.305-.355-.534-.422-.841-.145-.663.192-1.367.07-2.034-.082-.448-.31-.862-.526-1.263-.288-.534-.794-.943-1.016-1.508-.218-.55-.202-1.167-.281-1.755-.043-.314.162-.775-.106-.945-.28-.18-.761.039-.947.316zm-10.248-.355c-.259.016-.516.202-.695.391-.167.174-.228.429-.282.665-.106.468-.183.972-.07 1.439.078.315.38.536.492.84.16.435.158.914.246 1.369.076.398.021.854.245 1.192.227.344.612.631 1.018.702.227.039.498-.018.666-.176.269-.252.388-.683.35-1.051-.043-.417-.447-.712-.632-1.088-.19-.385-.411-.77-.49-1.193-.093-.506.086-1.031.036-1.543-.037-.37-.055-.769-.246-1.087-.119-.2-.297-.425-.526-.455a.6.6 0 0 0-.112-.005m3.316.143c-.282.02-.482.367-.75.492-.2.093-.49.039-.631.21-.285.346-.247.891-.176 1.334.064.398.228.816.527 1.086.203.184.539.137.772.281.316.196.642.438.806.772.201.412-.129.996.141 1.367.284.395.846.601 1.333.597.193-.001.45-.068.526-.246.219-.509-.389-1.04-.526-1.578-.147-.575-.019-1.238-.316-1.752-.245-.425-.939-.495-1.124-.948-.132-.327.235-.725.106-1.053-.102-.263-.349-.535-.63-.56a.4.4 0 0 0-.058-.002m-41.758.256a1 1 0 0 0-.485.131c-.195.114-.31.347-.385.561-.167.476-.118 1.005-.106 1.509.009.412.025.831.141 1.227.193.662.487 1.315.912 1.859.301.385.633.92 1.121.947.253.014.474-.224.632-.422.26-.322.45-.741.457-1.156.007-.485-.224-.965-.492-1.368-.211-.317-.694-.42-.842-.771-.145-.345.098-.754.035-1.123-.039-.223-.204-.41-.246-.632-.079-.267-.203-.58-.455-.701a.65.65 0 0 0-.288-.061zm73.849.228c-.231-.001-.508.118-.571.324-.048.155.195.266.245.421.134.402.149.84.139 1.263-.009.461-.402.949-.208 1.367.12.262.453.518.735.457.123-.028.164-.199.211-.316.163-.419.169-.884.211-1.333.044-.489.217-1.018.034-1.473-.123-.307-.376-.646-.701-.702a.5.5 0 0 0-.096-.008zm-52.655.565a.2.2 0 0 0-.037.004c-.393.106-.635.564-.772.948-.208.583-.157 1.259 0 1.858.109.415.348.801.631 1.123.26.295.674.417.946.701.217.224.255.621.527.772.256.142.594-.038.877.035.228.059.45.164.631.316.301.253.406.689.701.947.182.16.392.343.632.352.194.007.345-.18.527-.246.205-.076.431-.262.631-.176.207.089.226.389.315.595.216.499.12 1.183.527 1.545.204.183.532.202.807.175.38-.037.852-.131 1.052-.457.203-.328.052-.791-.07-1.157-.208-.625-.672-1.139-1.088-1.649-.397-.486-.821-.968-1.333-1.332a3.6 3.6 0 0 0-1.016-.49c-.283-.089-.627.016-.878-.141-.278-.174-.358-.551-.562-.807-.195-.247-.342-.574-.63-.702-.331-.147-.76.154-1.088 0-.248-.116-.405-.385-.526-.63-.139-.28-.091-.625-.211-.913-.084-.203-.18-.421-.35-.562-.068-.055-.157-.113-.243-.109m12.043 1.205a.3.3 0 0 0-.12.027c-.219.1-.141.462-.176.701a8.6 8.6 0 0 0-.07 1.685c.026.472.041.96.211 1.402.258.669.774 1.208 1.193 1.79.501.697 1.005 1.394 1.578 2.034.391.438.691 1.09 1.262 1.227.19.045.418-.042.561-.176.336-.317.557-.839.492-1.297-.058-.405-.53-.63-.738-.983a8 8 0 0 1-.735-1.648c-.127-.397-.027-.872-.246-1.228-.148-.242-.405-.415-.666-.525-.261-.109-.629.08-.843-.105-.201-.175-.204-.506-.21-.772-.006-.216.117-.418.14-.632.024-.221-.157-.509 0-.666.053-.285-.543-.196-.805-.315-.284-.128-.549-.521-.828-.519m41.339 2.914a.15.15 0 0 0-.071.025c-.041.026.023.094.035.141.14.517.319 1.023.456 1.542.092.348.195.696.246 1.053.061.429.07.863.07 1.297 0 .41-.359.937-.07 1.228.164.166.539.133.702-.035.375-.385.07-1.077.035-1.614-.04-.614-.097-1.237-.281-1.824-.151-.484-.35-.972-.667-1.368-.123-.154-.289-.454-.455-.444zm-17.586 9.528c-.278.013-.585.125-.724.353-.226.37-.114.921.105 1.296.285.488.91.675 1.404.948.28.155.628.185.876.386.202.164.328.406.456.632.189.332.289.707.456 1.052.151.31.218.702.492.912.324.249.789.349 1.192.281.3-.051.551-.282.772-.492.206-.198.262-.531.491-.701.237-.178.587-.129.841-.282.248-.148.522-.327.632-.595a1.17 1.17 0 0 0-.035-.947c-.15-.281-.47-.459-.772-.562-.775-.264-1.757.358-2.456-.07-.125-.076-.154-.25-.209-.386-.114-.281-.049-.644-.246-.876-.142-.168-.377-.293-.596-.281-.246.014-.407.287-.632.387-.19.083-.39.183-.597.175-.2-.007-.451-.043-.56-.211-.086-.134-.136-.453-.031-.539-.241.035-.459-.461-.741-.478a1 1 0 0 0-.117-.002zm.858.479a.2.2 0 0 0 .067-.021.1.1 0 0 0-.067.021m-46.022-.439a.53.53 0 0 0-.246.067c-.145.083-.287.307-.211.456.149.286.628.167.949.175.271.008.697.143.807-.105.058-.13-.13-.268-.245-.351-.071-.049-.163-.054-.247-.07-.259-.049-.549-.183-.807-.172m-9.765 1.086c-.539-.002-1.107.102-1.633.139-.43.027-.854.11-1.263.245-.347.117-.825.161-.983.49-.145.303-.045.767.211.983.375.318.982.082 1.473.07.376-.007.75-.158 1.122-.105a.9.9 0 0 1 .351.14c.258.165.37.555.667.633.316.081.633-.161.947-.247.247-.067.481-.194.736-.211.307-.018.606.108.912.141.361.039.731.133 1.088.07.201-.035.485-.055.56-.245.066-.166-.063-.391-.211-.492-.657-.447-1.83.501-2.384-.07-.131-.133.05-.381 0-.561-.073-.263-.188-.562-.422-.702-.351-.211-.752-.276-1.172-.278zm42.549 1.117q-.117 0-.234.003c-.499.019-.993.144-1.474.282-.312.089-.797.045-.911.35-.069.186.108.429.282.526.357.201.817-.054 1.226-.07.549-.021 1.102-.093 1.649-.035.25.027.492.114.736.175.586.147 1.15.422 1.753.455.165.009.374.047.492-.07.134-.133-.031-.516.021-.651-.563.268-1.26-.602-1.915-.751a7.6 7.6 0 0 0-1.625-.214m3.54.964a.5.5 0 0 0 .083-.048c-.046-.003-.07.015-.083.048m-53.966.022c-.614-.472-1.479.484-2.244.596-.729.107-1.473.063-2.21.071-.971.009-1.968-.266-2.911-.036-.504.124-1.156.264-1.369.736-.149.328-.019.808.246 1.053.634.586 1.701.465 2.56.386.641-.059 1.225-.396 1.824-.632.428-.169.815-.453 1.263-.561.762-.186 1.566-.104 2.35-.141.654-.031 1.346.148 1.964-.07.165-.058.431-.141.421-.316-.045-.727-1.529-.456-1.894-1.086m74.739.882c-.358.002-.722.081-1.082.099-.479.024-.983-.08-1.439.071-.36.118-.76.3-.945.631-.144.255-.097.591-.036.877.094.435.217.958.595 1.192.339.209.817.129 1.193 0 .308-.105.522-.388.773-.595.216-.18.349-.538.63-.562.22-.018.365.25.562.352.326.167.651.437 1.017.419.319-.017.688-.175.841-.455.164-.297.082-.713-.069-1.017-.11-.223-.351-.359-.562-.492-.343-.219-.721-.418-1.122-.491a2 2 0 0 0-.356-.029m-35.258.402a1.8 1.8 0 0 0-.724.118c-.343.143-.49.578-.807.772a2 2 0 0 1-.7.246c-.529.096-1.125-.188-1.615.035-.316.144-.42.566-.7.772-.27.198-.586.496-.912.42-.234-.055-.345-.347-.456-.56-.136-.259-.008-.673-.246-.842-.391-.279-1.076-.246-1.438.07-.242.211-.239.633-.175.947.139.687.625 1.297 1.156 1.754.235.201.534.379.842.386.43.007.81-.299 1.194-.493.305-.152.555-.412.875-.525.491-.172 1.041-.336 1.545-.211.293.072.464.396.736.526.536.259 1.147.656 1.718.493.319-.092.393-.552.666-.738.249-.169.551-.25.843-.316.515-.117 1.054-.196 1.579-.14.584.062 1.096.494 1.683.526.428.024.983.08 1.262-.246.198-.23.136-.625.035-.912-.077-.219-.339-.324-.455-.525-.49-.382-1.256.008-1.859-.141-.693-.169-1.303-.578-1.964-.841-.44-.176-.865-.414-1.333-.492a5 5 0 0 0-.75-.083m-29.345 1.908c-.547-.062-1.065.3-1.612.35-.385.035-.772-.03-1.158-.036-.433-.006-.895-.157-1.297 0-.386.151-1.043.45-.913.843.136.413.863.121 1.297.14.585.026 1.177-.127 1.755-.035.489.078.907.509 1.402.491.471-.017.908-.296 1.299-.561.219-.149.606-.301.561-.562-.084-.484-.845-.574-1.334-.63m32.867 4.828a.3.3 0 0 0-.072.012c-.367.102-.497.584-.806.806-.169.122-.354.257-.561.281-.299.033-.581-.259-.878-.211-.285.046-.476.33-.735.456-.213.104-.43.259-.667.245-.235-.012-.425-.203-.632-.315-.203-.11-.367-.335-.596-.352-.278-.019-.528.182-.771.317-.139.078-.231.314-.386.281-.251-.053-.156-.555-.386-.667-.307-.15-.711-.012-1.018.14-.252.125-.33.504-.595.596-.2.071-.42-.076-.632-.07-.273.009-.591-.026-.807.141-.203.157-.138.517-.315.702-.164.17-.398.333-.632.316-.285-.021-.442-.371-.7-.492-.286-.132-.604-.306-.913-.245-.246.048-.555.209-.597.456-.089.524.485.973.877 1.332.402.368.895.735 1.438.772.398.027.737-.318 1.123-.422.343-.091.7-.217 1.053-.175.354.043.626.459.981.422.341-.037.532-.448.842-.597a2.5 2.5 0 0 1 .737-.211c.442-.055.89-.055 1.332 0 .369.042.738.371 1.088.246.251-.089.257-.502.49-.632.288-.16.656-.057.983-.103.469-.067.984-.022 1.404-.246.343-.183.584-.523.804-.842.171-.245.286-.527.387-.808.078-.215-.533-1.148-.84-1.133m22.911 1.893c-.279.001-.562.03-.815.047-.491.035-.914.401-1.403.457-.407.047-.826-.19-1.228-.105-.287.06-.798.129-.772.421.033.368.696.255 1.053.351.392.105.855.017 1.192.244.244.164.233.593.49.737.563.314 1.326.291 1.931.07.311-.113.602-.364.736-.667.156-.352.248-.861 0-1.156-.273-.324-.721-.399-1.184-.399m-16.428.521a7 7 0 0 0-1.224.088c-.463.08-.985.14-1.332.456-.17.156-.316.403-.281.631.078.507.618.836 1.018 1.158.354.286.739.71 1.192.667.396-.039.54-.631.912-.772.415-.159.896-.117 1.332-.035.325.061.592.308.913.386.455.11.969.286 1.402.105.184-.077.297-.278.386-.456.117-.236.259-.522.176-.773-.19-.566-.821-.915-1.367-1.156-.583-.257-1.26-.209-1.896-.245-.408-.024-.82-.051-1.231-.054m10.738.217c-.214-.002-.469.25-.703.293-.311.056-.815-.218-.947.07-.091.197.193.423.386.524.332.175.775.174 1.123.036.184-.073.373-.229.422-.422.037-.154-.117-.296-.141-.454a.23.23 0 0 0-.14-.047m9.618 3.258c-.405 0-.789.056-1.095.295-.216.169-.417.535-.281.773.267.462 1.077.095 1.578.28.497.184.875.618 1.369.807.612.235 1.276.32 1.929.385.464.046.959.15 1.402 0 .473-.161.717-.757 1.193-.911.891-.289 1.871.04 2.806.07.924.029 1.851.191 2.771.105.37-.034.775-.043 1.086-.246.197-.126.274-.379.422-.561.167-.205.432-.349.526-.597-.711-.694-1.988.059-2.981.071-1.064.012-2.136-.123-3.193 0-.763.088-1.479.456-2.244.526-.723.066-1.514.196-2.174-.105-.324-.149-.414-.623-.738-.772-.351-.163-.77-.079-1.156-.07-.388.008-.814-.049-1.219-.05zm-37.393 1.618c-.315.01-.628.236-.882.432-.184.143-.206.468-.421.56-.27.115-.583-.127-.877-.106-.266.02-.616-.007-.77.211-.204.286-.065.728.07 1.053.285.689.887 1.221 1.472 1.683.373.296.79.616 1.263.667.35.039.678-.185 1.017-.281.281-.079.564-.337.842-.245.293.096.361.501.562.737.428.504.793 1.108 1.367 1.437.354.203.836.48 1.193.281.323-.18.312-.684.351-1.051.033-.317-.222-.653-.105-.948.079-.201.275-.447.49-.422.515.062.414 1.12.912 1.264.302.088.62-.17.877-.351.115-.081.149-.266.282-.316a.67.67 0 0 1 .559.07c.144.089.124.359.281.422.345.138.73-.147 1.088-.246.32-.09.617-.362.946-.316.266.037.415.36.666.456.254.097.552.195.808.106.32-.114.381-.626.702-.737.625-.217 1.302.287 1.964.281.651-.007 1.297-.156 1.929-.316.755-.193 1.507-.432 2.209-.772.273-.133.477-.411.772-.49.576-.156 1.297.409 1.788.07.122-.084.199-.286.141-.422-.193-.451-.875-.45-1.332-.631-.526-.209-1.071-.68-1.615-.526-.295.083-.376.486-.595.701-.356.349-.727.699-1.158.948-.314.182-.656.407-1.018.384-.449-.027-.749-.551-1.192-.63-.336-.059-.689.042-1.018.141-.36.109-.639.482-1.015.489-.498.01-.974-.292-1.37-.594-.237-.182-.281-.596-.561-.703-.444-.168-.945.371-1.402.246-.313-.086-.472-.446-.738-.632-.175-.122-.347-.336-.56-.315-.365.033-.501.568-.841.701-.197.078-.453.147-.633.035-.28-.174-.167-.664-.385-.912-.17-.192-.411-.372-.667-.386-.203-.012-.38.149-.56.245-.172.093-.305.371-.491.317-.211-.061-.159-.414-.281-.597-.107-.158-.196-.402-.386-.42-.624-.059-.881 1.12-1.508 1.122-.434.002-.717-.495-1.052-.772-.345-.285-.543-.832-.983-.911a.7.7 0 0 0-.135-.011m24.816 2.475c-.312.002-.609.057-.69.307-.106.323.358.629.667.771.393.179.875-.088 1.298 0 .288.059.52.284.806.351.262.06.563.146.807.035.205-.094.389-.303.421-.525a.58.58 0 0 0-.21-.527c-.44-.312-1.085.027-1.615-.07-.327-.06-.613-.299-.945-.316-.158-.008-.351-.026-.539-.026m-3.594 3.319a4.5 4.5 0 0 0-.637.039c-.448.06-.77.473-1.159.701q-.522.305-1.052.597c-.513.284-.97.719-1.543.842-.585.125-1.205-.271-1.789-.141-.275.063-.745.139-.736.422.012.47.935.293 1.263.63.135.138.278.336.244.527-.06.341-.517.466-.735.736-.245.303-.754.614-.632.983.145.439.844.578 1.297.49.422-.083.539-.742.947-.876.302-.1.685.283.948.105.251-.17.144-.592.246-.877.107-.3.172-.639.384-.878.261-.293.766-.293 1.018-.594.175-.211.066-.603.281-.773.406-.32 1.03-.102 1.543-.175.481-.069 1.062.061 1.438-.246.224-.182.444-.548.316-.807-.262-.533-.972-.699-1.642-.705m8.357 2.067a.37.37 0 0 0-.226.042c-.299.164-.276.64-.281.981-.006.338.45.715.245.983-.384.501-1.263-.005-1.893.034-.329.021-.662.032-.983.106-.339.078-.656.229-.981.351-.364.135-.742.244-1.088.421-.497.254-.952.582-1.403.911-.402.294-.773.631-1.158.947-.269.222-.484.535-.807.667-.511.209-1.1.077-1.648.141-.716.083-1.561-.115-2.139.316-.156.115-.326.348-.245.525.311.687 1.421.578 2.174.631.588.042 1.162-.252 1.753-.245.509.005 1.006.166 1.509.245.619.098 1.234.331 1.859.281.342-.028.732-.08.982-.316.355-.336.304-.932.526-1.367.205-.399.37-.865.736-1.123.571-.402 1.339-.446 2.036-.492.434-.028.867.208 1.296.141.228-.036.467-.12.632-.281.232-.226.154-.694.422-.875.417-.284 1.049.103 1.507-.106.285-.13.552-.375.667-.667.115-.294.169-.707-.035-.948-.31-.363-.954-.121-1.404-.281-.473-.167-.867-.511-1.332-.7-.229-.093-.485-.294-.721-.322m12.086 4.102c-.343-.013-.633.366-.948.534-.494.264-.915.774-1.474.807-.314.019-.561-.368-.875-.351-.544.031-1.014.434-1.439.772-.305.243-.463.639-.772.876-.227.176-.484.369-.771.386-.485.029-.885-.504-1.369-.491-.241.006-.508.099-.666.281-.301.347-.359.874-.351 1.334.009.439.207.859.386 1.261.195.436.343.959.736 1.228.225.155.549.227.807.141.486-.162.669-.784 1.053-1.123.239-.211.468-.463.771-.561.678-.221 1.439.128 2.14 0 .652-.119 1.31-.331 1.86-.701.514-.347.906-.859 1.261-1.369.308-.441.524-.942.737-1.437.083-.193.16-.393.211-.596.037-.15.167-.338.07-.457-.186-.226-.614.093-.878-.035-.193-.094-.207-.45-.419-.491a.4.4 0 0 0-.071-.008zm-41.484 3.384c-.141 0-.266.034-.36.132-.22.227-.099.661.034.947.207.443.629.81 1.087.981.547.205 1.172.024 1.753-.035.449-.045.884-.2 1.334-.245.535-.055 1.086-.141 1.613-.035.226.045.441.15.631.281.409.281.631.793 1.053 1.052.459.277.975.445 1.508.492.611.055 1.24-.056 1.823-.246.329-.107.581-.396.913-.492.495-.143 1.027-.104 1.542-.104.363-.001.792.281 1.088.07.217-.155.368-.557.211-.773-.275-.379-.962.089-1.403-.07-.219-.079-.333-.372-.561-.421-.527-.113-1.062.201-1.579.351-.668.193-1.271.639-1.964.702-.507.046-1.207.166-1.508-.246-.188-.258.094-.632.14-.948.036-.233.262-.523.106-.7-.642-.728-1.941.08-2.911.071-.796-.008-1.605.05-2.385-.106-.5-.1-.937-.437-1.439-.526-.223-.04-.493-.132-.726-.132m28.932.588a.6.6 0 0 0-.217.035c-.328.125-.363.614-.63.841-.291.246-.664.385-1.018.526-.587.235-1.198.431-1.823.527-.497.076-1.007.037-1.51.035-.35-.002-.778-.256-1.051-.035-.203.164-.304.568-.14.772.53.654 1.683.095 2.525.07.809-.024 1.611-.176 2.42-.211.83-.036 1.66-.013 2.49 0 .749.012 1.525.277 2.245.07.203-.058.439-.158.526-.35.074-.161-.025-.356-.07-.527-.031-.122-.145-.225-.141-.351-.265-.498-1.16.006-1.683-.211-.492-.203-.778-.758-1.263-.98-.203-.094-.437-.206-.66-.211m8.293 12.053c-.288.002-.57.042-.828.152-.358.153-.506.611-.842.807-.347.203-.801.164-1.157.352-.266.139-.674.262-.701.559-.021.232.237.446.454.527.807.304 1.723-.153 2.561-.351.565-.133 1.152-.261 1.65-.56.234-.141.554-.292.596-.561.037-.238-.17-.473-.351-.633-.141-.124-.34-.178-.526-.21a5 5 0 0 0-.856-.082m-7.952 1.919c-.307-.005-.653.074-.943.092-.274.017-.645-.047-.807.176-.138.19-.104.543.071.701.303.275.822.062 1.226 0 .352-.053.796-.039 1.018-.315.088-.11.125-.314.035-.422-.145-.172-.361-.228-.6-.232"/><path fill="#fec70b" d="M300.793 123.116a109.992 109.992 0 0 0-101.622 152.087 110 110 0 0 0 101.622 67.902 109.996 109.996 0 0 0 109.995-109.996 109.993 109.993 0 0 0-109.995-109.993m0 6.173a103.82 103.82 0 0 1 73.413 177.234 103.82 103.82 0 0 1-73.413 30.41 103.83 103.83 0 0 1-73.412-30.409 103.8 103.8 0 0 1-30.408-73.413 103.82 103.82 0 0 1 30.408-73.413 103.83 103.83 0 0 1 73.412-30.409"/><path fill="#f7e47b" d="M237.015 302.547a10 10 0 0 0-.804.031c-.351.031-.945-.14-1.042.199-.154.54.794.801 1.241 1.141.821.625 1.732 1.125 2.628 1.638.681.389 1.452.626 2.083 1.091.509.373.944.848 1.34 1.34.173.214.388.425.445.694.116.539-.029 1.13-.246 1.637-.404.942-1.227 1.645-1.886 2.43-.918 1.094-1.832 2.2-2.877 3.175q-.764.714-1.637 1.289c-.377.248-1.689 1.194-1.586 1.488.06.174.314.207.495.249 3.094.713 6.352.026 9.524-.1 2.882-.114 5.747-.6 8.631-.595 1.143.002 2.297.044 3.422.248 1.628.293 3.167.954 4.763 1.389 1.942.53 3.883 1.079 5.853 1.488 2.936.609 5.889 1.219 8.879 1.439 2.474.183 4.977.195 7.44-.099 1.179-.141 3.472-.794 3.472-.794s.215-5.489.198-8.184c-.003-.518.148-1.068.447-1.489.26-.368.7-.571 1.091-.794q.661-.375 1.389-.595c.692-.21 1.422-.261 2.132-.397 1.279-.246 2.608-.314 3.832-.758.315-.114.738-.18.881-.482.238-.506-.017-1.175-.315-1.649-.248-.394-.694-.648-1.123-.831-.539-.23-1.15-.252-1.736-.297-1.188-.093-2.385-.031-3.572.049-1.363.093-2.711.329-4.067.497-2.232.276-4.456.643-6.697.842a57 57 0 0 1-3.869.198c-1.654.035-3.309.058-4.959-.048a48 48 0 0 1-5.408-.646c-1.792-.323-3.542-.841-5.307-1.289-2.438-.62-4.864-1.286-7.292-1.936-1.473-.393-2.911-.945-4.415-1.189-1.39-.226-2.809-.2-4.216-.249-1.57-.055-3.141-.029-4.712-.049-.806-.01-1.614-.084-2.42-.082m121.281 1.255a34 34 0 0 0-3.385.216c-1.703.187-3.393.5-5.06.892-1.527.36-3.024.845-4.513 1.34-1.406.467-2.755 1.096-4.167 1.538-1.386.434-2.79.827-4.217 1.091-1.587.294-3.199.455-4.811.547-1.255.07-2.515.065-3.77 0-1.096-.059-2.185-.211-3.274-.349a100 100 0 0 1-4.711-.694c-1.147-.2-2.273-.512-3.423-.694-1.43-.226-2.876-.351-4.316-.496-.773-.078-1.544-.182-2.32-.198-1.625-.035-3.301-.211-4.872.206-.626.165-1.492.287-1.729.89-.14.358.109.824.389 1.086.546.508 1.422.464 2.154.61 1.07.213 2.192.122 3.253.382.722.176 1.445.414 2.084.793.393.234.795.507 1.041.893.266.419.397 1.439.397 1.439l.198 7.737s.815.336 1.24.447c1.362.356 2.771.515 4.167.695 1.63.209 3.268.39 4.911.447 1.553.054 3.109-.026 4.662-.1 1.805-.086 3.613-.18 5.407-.397a68 68 0 0 0 6.201-1.042c1.337-.286 2.635-.732 3.967-1.042.888-.206 1.78-.402 2.68-.544 1.019-.161 2.044-.309 3.074-.348 1.339-.051 2.682.039 4.018.149 2.06.171 4.092.6 6.151.794 1.105.104 2.215.148 3.324.198.96.043 2.192.54 2.728-.198.079-.111-.025-.282-.1-.397-.32-.494-.919-.737-1.388-1.092-.98-.745-2.05-1.373-2.976-2.182-.914-.801-1.692-1.748-2.529-2.63-.516-.542-1.169-.986-1.539-1.637-.178-.314-.317-.679-.297-1.04.022-.393.222-.769.447-1.092.461-.662 1.16-1.126 1.785-1.637.918-.749 1.859-1.478 2.876-2.083.693-.412 1.569-.521 2.184-1.042.154-.13.411-.305.346-.495-.172-.511-1.012-.38-1.537-.497a20.6 20.6 0 0 0-3.622-.446 24 24 0 0 0-1.128-.018m-57.998 9.542c-1.988.01-3.929.616-5.903.842-1.914.219-5.753.496-5.753.496s-.293 6.962.049 10.417a9.4 9.4 0 0 0 .347 1.785c.088.292.106.659.347.844.304.235.758.131 1.141.149.893.041 1.789-.008 2.678-.1 1.268-.131 2.52-.397 3.77-.644.964-.19 1.9-.537 2.877-.645a10 10 0 0 1 2.034 0c.921.083 1.82.326 2.728.496 1.291.242 2.576.519 3.87.744.742.129 1.534.631 2.232.347.383-.156.566-.619.743-.992.147-.308.208-.653.249-.992.461-3.808-.051-11.508-.051-11.508s-2.846-.154-4.264-.297c-2.373-.241-4.709-.953-7.094-.942"/><path fill="#7d421d" stroke="#7d421d" stroke-linecap="round" stroke-linejoin="round" stroke-miterlimit="6.7" stroke-width=".6" d="M255.602 291.198c-.401.03-.795.123-1.166.276a2.9 2.9 0 0 0-.966.672 3.6 3.6 0 0 0-.693 1.024q-.339.772-.339 1.911 0 1.781.98 2.797.983 1.012 2.646 1.012 1.642 0 2.625-1.016.981-1.023.981-2.829 0-1.82-.993-2.842-.986-1.023-2.634-1.023-.227 0-.441.018m94.801-5.883-1.521.336-2.854 8.43 1.364-.3q.203-.608.416-1.232.218-.625.419-1.234l2.808-.617.839 2.099 1.383-.302zm-87.662 6.523v7.805l1.321.04v-3.202l1.99.058q.304.009.516.105a.94.94 0 0 1 .341.233.8.8 0 0 1 .184.314q.062.175.062.348v1.185q0 .096.005.22.012.123.034.263.029.141.079.288.056.147.139.283l1.443.042a4 4 0 0 1-.285-.596 1.5 1.5 0 0 1-.1-.501v-1.129q0-.235-.055-.473a1.7 1.7 0 0 0-.174-.451 1.6 1.6 0 0 0-.302-.39 1.3 1.3 0 0 0-.443-.271q.543-.313.806-.753a1.83 1.83 0 0 0 .268-.961q0-.419-.168-.833a2.2 2.2 0 0 0-.486-.746 2.6 2.6 0 0 0-.789-.55 2.8 2.8 0 0 0-1.075-.231zm-6.683.628q.932 0 1.49.631.565.631.565 1.912 0 1.298-.579 1.95-.575.644-1.476.645-.9 0-1.485-.652-.584-.656-.584-1.921 0-1.288.569-1.922.57-.642 1.5-.643m90.108-6-6.261 1.817v1.114l2.472-.719v6.693l1.321-.383v-6.693l2.468-.716zm-28.414 2.742v7.805l1.319.05v-3.139l1.768.067q.599.024 1.064-.155.464-.183.782-.496.32-.318.481-.732a2.224 2.224 0 0 0 0-1.701 2.3 2.3 0 0 0-.481-.762 2.5 2.5 0 0 0-.778-.572 2.7 2.7 0 0 0-1.068-.248zm-53.691 3.783 1.992.057q.257.007.476.109.217.095.375.263.162.16.251.386.09.222.09.48 0 .262-.095.478a1.1 1.1 0 0 1-.645.596 1.2 1.2 0 0 1-.453.071l-1.991-.057zm85.57-5.866.99 2.556-1.987.438zm-74.734 5.373c-.4.025-.794.113-1.167.261q-.523.212-.965.658a3.5 3.5 0 0 0-.692 1.012q-.34.768-.341 1.908 0 1.78.983 2.811.98 1.025 2.644 1.048 1.643.022 2.625-.981.981-1.009.981-2.814 0-1.821-.992-2.857-.987-1.036-2.634-1.059a5 5 0 0 0-.442.013m50.492-3.367v7.804l5.076.149v-1.132l-3.756-.109v-6.675zm9.703-.121-2.853 8 1.364-.093q.202-.578.415-1.17.22-.591.419-1.17l2.808-.193.839 2.225 1.383-.094-2.853-7.609zm-16.021 1.361 1.489.057q.353.014.621.113.274.1.458.269.185.165.281.391.094.222.094.479 0 .263-.078.489a.9.9 0 0 1-.247.383 1.14 1.14 0 0 1-.447.252q-.274.084-.682.068l-1.489-.056zm-43.717 3.401q.931.014 1.49.652.564.638.564 1.921 0 1.296-.58 1.939-.573.638-1.474.626a1.94 1.94 0 0 1-1.486-.672q-.584-.665-.584-1.931 0-1.287.569-1.914.57-.633 1.501-.621m60.487-3.174.991 2.707-1.987.137zm-39.074 5.803 2.82 4.523v3.089l1.326-.092v-3.088l2.826-4.91-1.506.103-1.958 3.592-2.008-3.32zm-5.414 4.68v1.142l2.904-.199v-1.142zm15.033-.933v1.141l2.904-.199v-1.141z"/></g><defs><clipPath id="a"><path fill="#fff" d="M0 0h600v400H0z"/></clipPath></defs></svg>