<svg xmlns="http://www.w3.org/2000/svg" width="600" height="400" fill="none" viewBox="0 0 600 400"><g clip-path="url(#a)"><path fill="#000" d="M0 0h600v400H0z"/><path fill="#eaaa00" d="M0 400V33.333l50 33.334V400h50V0h50v400h50V0h50v400h50V0h50v400h50V0h50v400h50V0h50v400h50v-33.333L50 0v66.667L550 400z"/><path fill="#fff" d="M300 0h150v200h150V100H300z"/><path fill="#9d2235" d="M450 0h150v100H300v100h150z"/><path fill="#9d2235" d="M450 186a12.8 12.8 0 0 0 12.8-12.8v-6.4h12.4a12.8 12.8 0 0 0 0-25.6h-12.4v-28.4h79.6v12.4a12.8 12.8 0 0 0 25.6 0v-12.4h11.2A12.8 12.8 0 0 0 592 100H450z"/><path fill="#fff" d="M450 186a12.8 12.8 0 0 1-12.8-12.8v-6.4h-12.4a12.8 12.8 0 0 1 0-25.6h12.4v-28.4h-79.6v12.4a12.8 12.8 0 0 1-25.6 0v-12.4h-11.2A12.8 12.8 0 0 1 308 100h142zM450 14a12.8 12.8 0 0 1 12.8 12.8v6.4h12.4a12.8 12.8 0 1 1 0 25.6h-12.4v28.4h79.6V74.8A12.8 12.8 0 0 1 555.2 62 12.8 12.8 0 0 1 568 74.8v12.4h11.2A12.8 12.8 0 0 1 592 100H450z"/><path fill="#9d2235" d="M450 14a12.8 12.8 0 0 0-12.8 12.8v6.4h-12.4a12.8 12.8 0 1 0 0 25.6h12.4v28.4h-79.6V74.8A12.8 12.8 0 0 0 344.8 62 12.8 12.8 0 0 0 332 74.8v12.4h-11.2A12.8 12.8 0 0 0 308 100h142z"/><path fill="#fff" d="M0 200h150v200h150V300H0z"/><path fill="#9d2235" d="M150 200h150v100H0v100h150z"/><path fill="#9d2235" d="M150 386a12.8 12.8 0 0 0 12.8-12.8v-6.4h12.4a12.8 12.8 0 0 0 0-25.6h-12.4v-28.4h79.6v12.4a12.8 12.8 0 0 0 25.6 0v-12.4h11.2A12.8 12.8 0 0 0 292 300H150z"/><path fill="#fff" d="M150 386a12.8 12.8 0 0 1-12.8-12.8v-6.4h-12.4a12.8 12.8 0 0 1 0-25.6h12.4v-28.4H57.6v12.4a12.8 12.8 0 1 1-25.6 0v-12.4H20.8A12.8 12.8 0 0 1 8 300h142zM150 214a12.8 12.8 0 0 1 12.8 12.8v6.4h12.4a12.8 12.8 0 0 1 0 25.6h-12.4v28.4h79.6v-12.4a12.8 12.8 0 0 1 25.6 0v12.4h11.2A12.8 12.8 0 0 1 292 300H150z"/><path fill="#9d2235" d="M150 214a12.8 12.8 0 0 0-12.8 12.8v6.4h-12.4a12.8 12.8 0 0 0 0 25.6h12.4v28.4H57.6v-12.4a12.8 12.8 0 1 0-25.6 0v12.4H20.8A12.8 12.8 0 0 0 8 300h142z"/></g><defs><clipPath id="a"><path fill="#fff" d="M0 0h600v400H0z"/></clipPath></defs></svg>