<svg xmlns="http://www.w3.org/2000/svg" width="600" height="360" fill="none" viewBox="0 0 600 360"><g clip-path="url(#a)"><path fill="#ba0c2f" d="M0 0h600v360H0z"/><path fill="#d69a2d" d="M125 0h350v360H125z"/><path fill="#041e42" d="M150 0h300v360H150z"/><path fill="#d69a2d" d="M285.602 67.892h9.848l3.052 4.182-4.917 1.618zm28.32 0h-9.849l-3.051 4.182 4.916 1.618zm-14.147-10.28 2.987 9.32-3.015 4.18-2.985-4.152zm8.667 26.88-7.9-5.705v-5.155l4.885 1.61zm-17.34 0 7.9-5.705v-5.155l-4.885 1.61z"/><path fill="#fff" d="m200.645 112.075 6.791 2.262 4.27-5.747-.046 7.123 6.765 2.289-6.832 2.181-.073 7.122-4.157-5.82-6.805 2.185 4.243-5.775zm-13.61 23.92 7.123.682 2.858-6.54 1.57 6.963 7.12.735-6.181 3.597 1.596 6.965-5.396-4.702-6.209 3.595 2.912-6.537zm.316 18.373 3.124 6.462 7.088-.975-5.133 4.963 3.126 6.407-6.308-3.387-5.188 4.96 1.255-7.005-6.309-3.386 7.06-.979zm-10.195 35.18 6.699-2.565-.347-7.151 4.503 5.59 6.672-2.565-3.9 5.981 4.532 5.59-6.957-1.855-3.927 5.98-.346-7.151zm4.147 27.24 5.96-3.996-1.993-6.882 5.676 4.422 5.96-3.995-2.471 6.705 5.65 4.393-7.172-.222-2.445 6.679-1.995-6.827zm11.698 14.174 6.482 3.078 4.967-5.15-.969 7.063 6.454 3.107-7.05 1.292-.997 7.09-3.345-6.284-7.08 1.265 4.94-5.178zm13.159 22.578 6.936 1.662 3.727-6.112.6 7.117 6.962 1.633-6.589 2.762.602 7.145-4.703-5.457-6.587 2.79 3.727-6.085zm61.12-187.378 3.938 5.953 6.935-1.865-4.49 5.602 3.94 5.925-6.735-2.527-4.463 5.603.295-7.138-6.709-2.525 6.937-1.865zM241.71 76.24l5.173 4.97 6.292-3.373-3.122 6.448 5.175 4.942-7.088-.982-3.124 6.475-1.285-7.035-7.088-.983 6.348-3.37zm-10.825 14.73-1.737 6.973 6.093 3.759-7.123.546-1.737 6.947-2.698-6.632-7.153.545 5.495-4.646-2.699-6.63 6.065 3.785zm168.473 21.105-6.792 2.262-4.27-5.747.045 7.123-6.763 2.289 6.832 2.181.073 7.122 4.157-5.82 6.805 2.185-4.244-5.775zm13.61 23.92-7.123.682-2.859-6.54-1.57 6.963-7.12.735 6.182 3.597-1.597 6.965 5.397-4.702 6.208 3.595-2.911-6.537zm-.317 18.373-3.123 6.462-7.088-.975 5.133 4.963-3.127 6.407 6.309-3.387 5.188 4.96-1.255-7.005 6.308-3.386-7.06-.979zm10.195 35.18-6.698-2.565.347-7.151-4.504 5.59-6.671-2.565 3.9 5.981-4.532 5.59 6.957-1.855 3.926 5.98.347-7.151zm-4.146 27.24-5.96-3.996 1.993-6.882-5.677 4.422-5.96-3.995 2.472 6.705-5.65 4.393 7.172-.222 2.445 6.679 1.995-6.827zm-11.699 14.174-6.481 3.078-4.967-5.15.968 7.063-6.453 3.107 7.05 1.292.997 7.09 3.345-6.284 7.08 1.265-4.94-5.178zm-13.158 22.578-6.937 1.662-3.726-6.112-.6 7.117-6.962 1.633 6.588 2.762-.601 7.145 4.703-5.457 6.587 2.79-3.727-6.085zm-61.12-187.378-3.938 5.953-6.935-1.865 4.49 5.602-3.94 5.925 6.735-2.527 4.463 5.603-.295-7.138 6.708-2.525-6.936-1.865zm25.57 10.078-5.173 4.97-6.292-3.373 3.122 6.448-5.175 4.942 7.088-.982 3.123 6.475 1.285-7.035 7.089-.983-6.349-3.37zm10.823 14.73 1.739 6.973-6.094 3.759 7.124.546 1.736 6.947 2.699-6.632 7.153.545-5.495-4.646 2.698-6.63-6.065 3.785zM225.93 276.17l.14-.178c.415.051.831-.055 1.235-.345.4-.264 1.03-.954 1.895-2.054l.4-.508c.948-1.207 1.898-2.412 2.853-3.627q.443-.563.493-.826c.025-.169-.016-.36-.133-.569.05-.061.098-.125.142-.178q.629.535.945.802c.21.18.396.341.581.486s.385.289.609.45.545.4.991.722l-.14.18c-.218-.057-.415-.052-.571.013q-.245.111-.687.674l-3.253 4.136c-.865 1.099-1.387 1.874-1.56 2.315-.177.47-.182.9-.034 1.29-.048.064-.098.125-.14.179a33 33 0 0 0-.86-.734 43 43 0 0 0-.988-.791 42 42 0 0 0-1.003-.775c-.31-.229-.62-.459-.915-.662m11.203-2.12-1.868 2.858c-.992 1.514-1.542 2.582-1.674 3.19-.131.607-.02 1.17.33 1.699-.043.066-.086.133-.125.19-.22-.17-.468-.347-.716-.524-.25-.176-.529-.358-.83-.556-.302-.197-.592-.387-.854-.544a19 19 0 0 0-.778-.455l.125-.191a2 2 0 0 0 1.675-.332c.492-.372 1.257-1.313 2.267-2.857l1.906-2.915c.387-.59.574-1.053.59-1.381.01-.32-.145-.667-.435-1.034.037-.056.075-.115.107-.161.127.083.405.265.833.573.424.29.742.512.985.672.14.09.344.21.599.376.261.159.465.277.581.354.229 2.611.524 5.226.747 7.848l.61-.935c1.003-1.533 1.553-2.602 1.692-3.192.125-.596-.005-1.158-.35-1.67q.067-.1.131-.2c.18.132.382.277.602.422.215.153.54.367.98.655.442.288.767.5.993.635.209.137.424.263.615.375l-.13.2c-.618-.145-1.183-.038-1.693.335s-1.263 1.323-2.255 2.837c-1.115 1.705-2.23 3.411-3.34 5.106l-.29-.19c-.3-3.72-.717-7.461-1.03-11.188m21.52 14.663a.6.6 0 0 1-.052.164 1.17 1.17 0 0 0-.96.455c-.261.311-.651 1.048-1.131 2.226l-.174.42-.21.517a7.5 7.5 0 0 1-2.371.185 7.3 7.3 0 0 1-2.284-.538c-.728-.297-1.331-.679-1.803-1.167a4.54 4.54 0 0 1-1.078-1.703c-.225-.694-.364-1.414-.33-2.149.031-.736.17-1.44.453-2.135a6 6 0 0 1 1.097-1.775c.448-.515.988-.921 1.593-1.276.692-.38 1.457-.572 2.262-.612.798-.055 1.586.095 2.34.403a6.5 6.5 0 0 1 1.77 1.067 9.7 9.7 0 0 1 1.603 1.733c-.608.795-1.228 1.587-1.837 2.382-.068-.053-.123-.1-.191-.152.263-1.156.296-2.076.111-2.791-.19-.704-.62-1.185-1.271-1.45-.817-.335-1.654-.185-2.495.49-.839.665-1.554 1.723-2.155 3.196q-.863 2.115-.777 3.55c.06.945.447 1.57 1.123 1.845.46.189.9.172 1.275-.093.385-.248.724-.712.994-1.373.413-1.012.606-1.705.586-2.094-.02-.39-.22-.703-.593-.991q.031-.082.06-.147l1.085.48c.345.14.712.302 1.082.453.358.145.733.287 1.116.444zm4.805 7.837c.76.258 1.475.045 2.128-.633.639-.672 1.237-1.837 1.792-3.474.557-1.635.785-2.913.692-3.845-.11-.925-.539-1.515-1.31-1.776-.747-.254-1.455-.062-2.089.598-.625.677-1.22 1.832-1.786 3.5-.562 1.657-.795 2.947-.712 3.863.097.92.538 1.514 1.285 1.767m-3.448-6.63q.405-1.195 1.138-2.062c.492-.59 1.105-1.018 1.792-1.361a4.9 4.9 0 0 1 1.945-.48c.686-.044 1.365.066 2.046.298.707.24 1.325.57 1.835 1.007.509.436.93.963 1.244 1.586.355.72.576 1.444.606 2.174a6.4 6.4 0 0 1-.343 2.308 6.3 6.3 0 0 1-.778 1.56c-.304.462-.69.87-1.132 1.225a5.6 5.6 0 0 1-2.435 1.105c-.877.172-1.755.09-2.607-.2a5.3 5.3 0 0 1-1.836-1.043c-.529-.467-.972-1.014-1.257-1.639a5.1 5.1 0 0 1-.567-2.16 6.3 6.3 0 0 1 .349-2.318m16.313-.335-1.488 7.038c-.22 1.034-.275 1.695-.184 2.005.09.31.334.5.755.59q1.266.268 2.177-.828c.607-.72 1.078-1.875 1.413-3.453.34-1.612.372-2.837.112-3.682-.248-.842-.85-1.353-1.76-1.545a5 5 0 0 0-.438-.082 22 22 0 0 0-.587-.043m-5.868 9.155.046-.223c.414-.145.745-.435.995-.88.25-.447.522-1.389.825-2.824.032-.155.065-.311.097-.455l.955-4.515c.093-.443.118-.763.07-.936s-.183-.342-.382-.477c.017-.077.034-.155.047-.222.417.112.822.209 1.213.304.379.091.757.183 1.11.258.367.077.804.158 1.309.253q.737.143.94.187c1.753.372 3.025 1.07 3.75 2.142.726 1.06.941 2.393.598 4.016-.377 1.78-1.128 3.049-2.232 3.839-1.105.788-2.498 1.003-4.143.656a24 24 0 0 1-1.143-.3 22 22 0 0 0-1.309-.323c-.203-.043-.465-.087-.82-.15a69 69 0 0 0-1.926-.35m32.835-7.19-.014.227q-.653.168-1.26.953c-.405.535-.838 1.307-1.271 2.332-1.05 2.538-2.154 5.063-3.204 7.601q-.062-.003-.125-.006c-.725-2.462-1.493-4.904-2.205-7.354-.941 2.352-1.938 4.689-2.88 7.052l-.138-.008c-.897-3.077-1.848-6.145-2.745-9.222-.253-.858-.483-1.42-.7-1.73a1.26 1.26 0 0 0-.798-.525c.003-.08.008-.16.013-.228.097.006.233.013.44.038.852.083 1.443.142 1.76.16.373.023 1.105.043 2.182.073.276.005.483.017.621.025-.005.069-.01.149-.013.227-.267.042-.477.11-.61.25-.132.128-.2.33-.215.58-.008.137.01.308.04.505.03.195.087.393.143.625.4 1.415.827 2.832 1.227 4.258.923-2.26 1.885-4.508 2.808-6.77q.063.005.124.009c.77 2.418 1.581 4.816 2.338 7.223.25-.715.515-1.43.763-2.145.219-.65.42-1.232.547-1.737s.203-.866.217-1.093c.021-.365-.044-.665-.182-.902a.96.96 0 0 0-.653-.415l.013-.226c.358.031.688.063 1.003.093.319.018.62.048.924.067.235.013.511.018.828.036.303.007.648.017 1.022.027m1.6 10.735-.019-.227c.342-.243.577-.605.679-1.068.116-.455.126-1.197.043-2.217l-.47-5.845q-.057-.714-.2-.941c-.082-.142-.243-.255-.472-.327l-.018-.227c.678-.031 1.315-.071 1.908-.108.609-.038 1.135-.068 1.577-.105l4.197-.337c.283.935.581 1.88.865 2.827l-.249.02c-.758-.807-1.498-1.362-2.178-1.695a4.1 4.1 0 0 0-2.2-.405c-.138.012-.22.018-.29.023-.055.005-.11.02-.177.037.112 1.405.227 2.822.34 4.227.154.01.277 0 .362.005.083.005.152-.002.207-.005.746-.06 1.313-.255 1.72-.572.405-.318.671-.785.805-1.388l.248-.02.327 4.068-.249.02c-.228-.598-.566-1.003-1.018-1.265-.452-.248-1.042-.337-1.787-.277a2 2 0 0 0-.206.027c-.082.018-.207.028-.357.063l.202 2.504c.065.793.22 1.34.481 1.661q.393.48 1.2.415c.622-.05 1.264-.363 1.899-.938.633-.577 1.278-1.38 1.888-2.433.083.016.155.033.24.05-.18 1.233-.387 2.46-.578 3.695-1.602.128-3.204.258-4.819.386-.316.027-.828.067-1.531.135-.702.069-1.489.144-2.37.237m19.04-2.452-.05-.221c.316-.294.483-.68.526-1.18.034-.474-.103-1.399-.411-2.764l-.142-.631-1.077-4.782c-.045-.2-.09-.33-.145-.387-.051-.046-.126-.065-.235-.041-.336.076-.721.373-1.138.91-.402.533-.813 1.22-1.175 2.06q-.125.009-.25.021c-.023-1.045-.03-2.08-.037-3.116l8.232-1.855c.425.941.863 1.881 1.277 2.836l-.235.089c-.687-.604-1.34-1.05-1.945-1.357-.607-.307-1.069-.412-1.405-.337-.109.025-.182.077-.209.14-.026.077-.01.212.035.412l.099.433 1.121 4.98c.309 1.365.58 2.26.829 2.67.238.435.57.712.98.84l.05.222c-.369.06-.734.13-1.127.207-.378.075-.81.171-1.24.268-.443.1-.862.193-1.235.29a30 30 0 0 0-1.093.293m9.266-2.35-.075-.215c.282-.326.419-.735.392-1.231-.018-.475-.26-1.377-.72-2.697l-.213-.613-1.519-4.357c-.156-.45-.301-.738-.418-.865-.127-.112-.312-.18-.552-.193l-.073-.215 1.16-.369c.392-.136.943-.316 1.622-.553l1.241-.432c1.645-.573 2.897-.805 3.737-.665.843.152 1.413.652 1.712 1.51.231.665.153 1.284-.214 1.869-.38.59-1.053 1.136-2.045 1.651.712-.14 1.335-.116 1.865.06.535.187 1.014.514 1.455 1.022q.255.29.689.843c.955 1.184 1.711 1.715 2.25 1.624.023.063.045.128.063.181-.6.21-1.048.354-1.392.462l-.94.327-.888.31a8 8 0 0 0-.557.206c-.131-.208-.331-.486-.578-.858-1.672-2.487-2.955-3.568-3.83-3.263a2 2 0 0 0-.28.121c-.013.005-.027.009-.035.025l.41 1.18c.468 1.342.857 2.205 1.145 2.61.3.402.648.642 1.072.722.025.075.051.152.075.215-.36.102-.717.213-1.1.335-.369.117-.774.258-1.205.408a44 44 0 0 0-2.254.845m1.635-6.948c.095-.022.179-.038.269-.07.096-.022.213-.062.396-.125.652-.228 1.084-.547 1.262-.958.18-.412.16-.97-.083-1.669-.229-.655-.54-1.086-.944-1.32-.398-.221-.898-.228-1.486-.023-.195.068-.34.118-.454.17-.1.047-.201.095-.305.13zm5.455-6.307c-.033-.073-.053-.151-.083-.213.615-.257 1.073-.455 1.38-.585.307-.128.588-.245.84-.362.478-.22 1.17-.575 2.112-1.048l.051-.022.095.207c-.25.353-.341.783-.276 1.255.068.482.396 1.36.978 2.622l.275.6.815 1.768c.523 1.137 1.068 1.89 1.647 2.25.583.372 1.23.387 1.986.038.352-.163.637-.406.862-.748.223-.342.352-.727.397-1.16a3.2 3.2 0 0 0-.097-.972 11 11 0 0 0-.583-1.498l-.595-1.293c-.767-1.665-1.382-2.699-1.825-3.134-.432-.44-.977-.628-1.594-.608l-.095-.207c.202-.093.434-.186.677-.286.232-.094.597-.262 1.075-.482.478-.222.832-.383 1.053-.498.235-.12.457-.235.645-.322l.095.207a2.08 2.08 0 0 0-.568 1.615c.033.636.433 1.77 1.195 3.425q.298.648.592 1.281c.68 1.48.856 2.69.565 3.614-.284.945-1.117 1.718-2.44 2.326-1.272.585-2.354.72-3.232.372-.872-.337-1.613-1.15-2.217-2.463-.33-.714-.663-1.437-.991-2.152-.695-1.51-1.215-2.473-1.569-2.875-.34-.407-.74-.612-1.17-.652m16.104 3.554c-.357-.975-.695-1.949-1.057-2.932.08-.03.155-.07.247-.108.72.743 1.488 1.2 2.273 1.393.787.192 1.483.07 2.058-.34.485-.348.78-.795.87-1.335.074-.542-.053-1.052-.41-1.552-.303-.425-.655-.676-1.046-.773-.41-.072-.904.002-1.497.245-.115.053-.293.113-.518.203-1.095.449-1.882.66-2.384.6a2.1 2.1 0 0 1-1.041-.358 3.5 3.5 0 0 1-.929-.917c-.595-.831-.738-1.748-.483-2.726.262-.97.922-1.834 1.972-2.584.473-.338.998-.63 1.563-.84a8.2 8.2 0 0 1 1.912-.5c.298.849.581 1.722.881 2.57-.068.049-.141.087-.21.135-.551-.653-1.181-1.055-1.828-1.221a2.02 2.02 0 0 0-1.768.315c-.407.291-.635.663-.692 1.108-.057.447.06.895.363 1.32.292.407.624.632.972.688.355.069.978-.085 1.86-.45 1.147-.47 2.053-.656 2.738-.531q1.013.198 1.805 1.306c.662.925.834 1.905.56 2.954-.285 1.056-1 1.986-2.14 2.801a8.6 8.6 0 0 1-1.991 1.075c-.717.262-1.4.429-2.08.454m11.726-7.142-.136-.183c.16-.389.168-.819.005-1.294-.16-.448-.662-1.236-1.497-2.36l-.387-.52-2.925-3.931c-.121-.164-.215-.265-.288-.295-.068-.022-.143-.007-.233.058-.277.208-.512.637-.675 1.298-.165.66-.254 1.449-.245 2.364-.074.041-.147.081-.232.13-.433-.954-.86-1.897-1.297-2.834l6.817-5.071c.77.688 1.542 1.376 2.318 2.073l-.178.177a10 10 0 0 0-2.337-.447c-.68-.032-1.158.068-1.425.267-.1.075-.135.143-.135.215.009.078.079.196.2.361l.265.355 3.049 4.097c.835 1.122 1.446 1.828 1.84 2.103.396.3.811.417 1.23.375.046.064.095.127.135.182-.302.197-.62.42-.939.642-.33.231-.673.488-1.03.753-.366.272-.711.528-1.016.77-.315.248-.609.482-.884.715m-9.146-68.517c-.067-.033 2.008-.233 2.008-.233s1.675 0 3.382-.067c1.438-.166 2.911-.333 3.313-.4.435-.2.903-.401 1.305-.635l.938-.5.837-.635c1.138-.766 2.142-1.801 2.945-2.903 1.675-2.203 2.243-5.007 1.473-7.643s-2.543-5.007-4.653-6.909c-1.505-1.368-3.213-2.503-5.02-3.405-.168-.066-.368-.133-.637-.233-.636-.233-1.473-.567-2.376-.735-.469-.1-.904-.233-1.305-.333-.435-.067-.837-.067-1.172-.1-.67-.067-1.105-.1-1.105-.1-.435-.067-.87-.034-1.305-.067l-1.673-.033-2.41.166c-.805.1-1.642.234-2.445.334-3.214.568-6.394 1.536-9.607 2.57-4.318 1.368-8.737 3.005-13.355 3.938-.938.268-1.908.468-2.88.668-.335.334-.635.7-.937 1.035-1.808 2.102-3.715 4.172-5.758 6.107-.435.435-.903.868-1.372 1.268l.435.435c2.009 1.669 4.285 3.037 6.695 4.105 1.205.534 2.444.902 3.715 1.302 1.272.267 2.512.567 3.884.633l3.983.435 4.083.234 5.992.333s2.847.333 4.855.735c3.38.567 2.008.9-.102 1.035.202.033-5.086.067-5.086.067l-6.194-.335c-1.338-.067-2.678-.134-4.016-.234l-4.05-.433c-1.307-.067-2.712-.402-4.05-.702-1.307-.433-2.645-.833-3.884-1.435a28 28 0 0 1-3.95-2.101c.737 1.2 1.507 2.335 2.41 3.336 2.945 3.372 7.197 5.507 11.582 6.642 4.318 1.002 8.972.668 13.49-.067 1.205-.3 2.41-.633 3.648-.968 1.305-.4 2.679-.8 4.017-1.202q2.11-.65 4.218-1.1a25 25 0 0 1 1.507-.335c-.402-.133-1.005-.3-1.507-.5-1.338-.566-.67-.901.134-1.035m-106.154.839c.1.033-2.476.366-2.476.366h-2.579c.169.067.335.134.502.167.905.335 1.808.668 2.512.902.668.266 1.138.4 1.138.4l1.205.466c.435.167.635.2 1.707.535.87.234 1.74.367 2.645.534.87.033 1.74.2 2.643.1 3.583-.134 7.232-1.069 10.612-2.569 3.548-1.568 6.863-3.736 9.841-6.306-4.183 2.135-8.736 3.37-13.255 4.271-.57.1-1.138.2-1.741.3 0 0-2.879.267-4.92.2-3.449-.066-2.11-.635-.067-1.035-.102-.033 1.138-.233 2.41-.5 1.238-.266 2.51-.566 2.51-.566l.903-.134 1.005-.2c.87-.168 1.707-.368 2.579-.568 1.706-.4 3.38-.867 5.02-1.435a39 39 0 0 0 5.791-2.568 18 18 0 0 1-.77-.8 43 43 0 0 1-2.745-3.47c-.435.1-.87.233-1.305.3l-1.606.133c-1.072.133-2.11.033-3.147.033-.603 0-1.172-.066-1.775-.133 0 0-2.912-.433-4.853-1.067-3.315-1.035-1.842-1.168.233-1.035-.1-.033 1.172.134 2.445.167 1.272.1 2.577.1 2.577.1.468.033.971.1 1.44.1.97-.033 1.975.1 2.945-.033l1.473-.134.402-.1c-.369-.566-.77-1.135-1.139-1.701l-1.138-1.802-.702-1.233s-.101-.235-.301-.669c-.202-.4-.435-.933-.77-1.568-.034-.033-.034-.067-.067-.1-3.315-.433-6.662-1.033-9.943-1.868-1.004-.234-2.009-.634-3.012-.967-1.005-.367-2.008-.6-2.98-1.068-1.272-.634-2.543-1.167-3.815-1.802a4 4 0 0 0-.637-.067c-2.545-.166-5.121-.666-7.733-.333-2.61.2-5.288.768-7.9 1.602-2.61.833-5.188 2.001-7.432 3.636-2.208 1.602-4.05 3.837-4.25 6.439-.235 2.636 1.172 5.238 2.979 7.44 1.775 2.201 4.251 3.67 7.063 4.403 2.343.668 4.853 1.002 7.398 1.635 0-.033.034-.067.034-.067.033 0 .601.034 1.405.067.805.067 1.875.133 2.946.1h4.319s1.371.167 2.376.468c1.674.4 1.039.8 0 1.034m66.789-.607-1.172-1.433-1.037-1.569-1.875-2.968c-.266-.4-.501-.733-.768-1.133-3.047 2.401-6.46 4.401-10.273 5.603.1.5.2 1.067.3 1.667.168 1.368.201 2.801.201 2.801s-.066.202-.201.535c-.1.334-.234.7-.469 1-.703 1-.936.267-1.036-.266.033.066-.202-1.369-.202-1.369s0-1.2-.167-2.466c-.066-.502-.168-1.002-.235-1.402q-1.354.3-2.71.5c.034.968 0 1.935-.033 2.902-.1 1.435-.235 2.868-.535 4.303-.135.6-.235 1.167-.402 1.767 0 0-.068.166-.168.466-.133.269-.267.702-.502 1.135-.401.934-1.003 2.069-1.64 2.869-.836 1.066-1.305 1.466-1.505 1.5q-.1 0-.101-.1c-.067-.2.135-.634.401-1.234l2.544-10.64c0-.066.033-.133.033-.166.035-.9.035-1.767 0-2.669q-1.153.051-2.308 0c-.034.1-.067.234-.134.334-.201.535-.536 1.235-.836 1.901-.369.667-.704 1.335-1.005 1.835-.3.467-.535.8-.535.8s-.167.134-.435.4a4.3 4.3 0 0 1-1.004.634c-1.105.535-1.005-.167-.736-.767-.034 0 .2-.267.335-.667.166-.366.335-.733.335-.733s.2-.268.468-.702c.267-.433.568-1.033.903-1.666.234-.534.502-1.069.669-1.502-2.342-.267-4.752-.933-6.894-2a24 24 0 0 1-2.776-1.702c-3.682 3.502-7.965 6.404-12.65 8.439q-1.808.75-3.614 1.3c-.235 1.401-.168 2.835.367 4.236.435 1.3 1.138 2.535 1.975 3.735l2.543 1.302c3.58 1.767 7.162 3.502 10.877 4.902.535.2 1.07.433 1.638.6 0 0 .604.266 1.507.635.435.2.903.433 1.438.666.469.167.972.367 1.507.534 3.178 1.2 1.84 1.3-.335 1 .133.033-1.172-.1-2.443-.467-1.272-.333-2.544-.7-2.544-.7-.501-.133-.97-.333-1.438-.533-3.213-1.202-6.292-2.635-9.37-4.137 3.882 3.67 8.6 6.605 13.62 8.672 2.677 1.101 5.422 1.935 8.232 1.768 2.845-.067 5.723-.567 8.5-1.233 5.255-1.269 10.306-3.237 14.556-6.105-4.483 1.401-9.101 2.268-13.686 2.868l-1.774.2s-.67.033-1.673.067c-1.003 0-2.242-.034-3.245-.067-3.448-.233-2.075-.7 0-1.067-.102 0 1.137-.2 2.408-.366 1.272-.234 2.544-.434 2.544-.434l1.473-.2c5.187-.666 10.34-1.635 15.192-3.368l2.811-1.135c.737-.833 1.372-1.7 1.84-2.635 1.139-2.167 1.205-4.668.937-7.07a29 29 0 0 0-.668-2.935 22 22 0 0 1-5.02-4.27m-53.115-54.372a53 53 0 0 0-6.96-2.57c-2.51-.733-5.12-1.301-7.73-1.535-2.644-.266-5.355-.2-7.797.669a7.16 7.16 0 0 0-3.078 2.001c-.87.902-1.305 2.07-1.707 3.339-.737 2.536-.603 5.273.133 7.876a22.6 22.6 0 0 0 1.907 4.54c.102.134.202.3.335.534.202.266.435.601.67.968.267.333.568.667.837 1.035.3.367.601.733.87 1.068.3.334.601.634.836.9.502.502.804.835.804.835.3.334.601.634.903.969.333.333.435.466 1.305 1.301 1.438 1.269 2.943 2.537 4.583 3.505.77.534 1.674.934 2.544 1.335l2.643 1.269 2.778.933c.937.302 1.84.635 2.81.835 2.41.6 4.887 1.068 7.362 1.435q-.3-.65-.502-1.302a9 9 0 0 1-.335-1.335 63 63 0 0 1-4.215-1.468 93 93 0 0 1-8.735-3.838c-1.405-.702-2.81-1.402-4.181-2.17l-1.774-.969s-2.41-1.568-3.983-2.87c-2.71-2.136-1.305-1.768.603-.868-.101-.067 1.037.502 2.175 1.102l2.342 1.135 2.008 1.101c1.339.702 2.71 1.402 4.082 2.07a89 89 0 0 0 8.4 3.672c1.137.433 2.308.833 3.447 1.202.066-.034.1-.034.166.033.269.233.637 1.368 1.474 2.637-.069-.167.835 1.368 2.006 2.936.57.769 1.139 1.569 1.574 2.27l.668 1.002.67 1.133.335.569.535.801c.335.567.703 1.134 1.07 1.669 1.54 2.203 3.045 4.338 4.92 6.108 1.84 1.768 3.948 3.203 6.29 4.105 2.31.935 4.887 1.302 7.43 1.268 2.577 0 5.118-.466 7.528-1.335 3.28-1.135 6.292-3.036 9.069-5.273l-.034.033.369-.3c.033-.033.066-.033.1-.068l.803-.7.033-.033c.1-.067.2-.167.269-.234l.133-.1c.703-.668 1.438-1.301 2.108-1.97 1.907-1.868 3.647-3.805 5.454-5.941.47-.5.905-.967 1.271-1.435.169-.234.335-.467.47-.7.067-.1.134-.2.167-.302l.033-.067-.301-.166a7 7 0 0 0-1.605-.667c-.57-.2-1.205-.368-1.875-.535l-1.004-.233c-.301-.1-.603-.167-.903-.234a20 20 0 0 0-3.748-.366c-2.544-.034-5.12.433-7.664 1.101a56 56 0 0 0-3.813 1.167c-.637.202-1.238.435-2.008.635-.704.2-1.405.367-2.075.5-1.372.268-2.744.468-4.082.702l-2.008.3c-.904.133-1.774.033-2.544-.134-1.54-.333-2.878-.968-4.115-1.668-1.271-.702-2.443-1.57-3.515-2.337-2.208-1.601-4.35-3.105-6.625-3.905-1.338-.435-2.643-.601-3.948-.401-.067 0-.1.033-.168-.034-.3-.166-.702-.4-.937-.833-.233-.402-.3-1.002.435-1.77.033 0 .135-.133.235-.133.1-.034.2-.034.335-.034-1.54-1.568-2.912-3.303-4.017-5.206-.568-1.035-1.238-2.035-1.638-3.204l-.67-1.67-.468-1.768c-.369-1.135-.402-2.37-.535-3.605-.069-1.202.033-2.403.1-3.572.2-1.601.501-3.203.87-4.74m49.826-5.02c-.603-2.201-1.606-4.236-2.845-6.103l-.903-1.202c-.268-.366-.57-.666-.872-1 0 0-.166-.166-.435-.501-.266-.334-.601-.834-1.103-1.334-.502-.533-1.105-1.135-1.707-1.768a112 112 0 0 0-4.653-3.468c-2.777-2.304-4.818-5.005-7.328-7.24-1.239-1.1-2.579-2.069-4.017-2.535-1.338-.4-2.812.066-4.25.868-2.812 1.667-5.255 4.202-7.497 6.805-2.21 2.635-4.285 5.437-6.091 8.338a54 54 0 0 0-2.042 3.904c-.268.633-.67 1.701-1.038 2.801-.3.902-.602 1.802-.769 2.502l-.335 1.168c-.135.4-.301.834-.401 1.267l-.535 1.902c-.302 1.035-.47 2.101-.704 3.136-.168 1.034-.335 2.102-.435 3.169-.335 4.17.837 8.206 3.079 11.808 1.64 2.537 3.715 4.772 6.058 6.738.1.034.2.034.302.067 2.543.902 4.685 2.368 6.693 3.77.167-.533.568-1.033 1.205-1.1.77.067 1.137.733 1.372 1.233v.067c0 .167-.1.367-.269.433-.1.034-.2.034-.333-.033.033.167.067.335.067.468 0-.033 0 .134-.034.367.2.167.402.3.635.433-.033-.233 0-.5.067-.7.168-.568.603-1.101 1.272-1.168.77.033 1.138.733 1.34 1.202 0 .033.033.033 0 .066 0 .2-.069.367-.235.434h-.034c-.066.033-.201.033-.335 0 .067.133.1.3.1.466 0-.033 0 .134-.1.434 0 .1-.1.266-.233.366q.4.251.803.402c.034-.133.034-.302.1-.435.167-.567.569-1.1 1.239-1.167.77.034 1.136.7 1.371 1.2v.067c0 .168-.1.368-.268.435-.1.033-.2.033-.333-.033.033.166.066.333.066.5 0-.034.034.033 0 .166h.034c.601.1 1.003.134 1.573.034l2.042-.334c.2-.033.366-.066.535-.1.033-.1.033-.2.066-.266-.1.033-.268.1-.435.033-.1-.067-.201-.167-.235-.402 0-.033-.033-.066 0-.1.202-.5.57-1.166 1.34-1.2.669.067 1.104.6 1.272 1.167.033.133.033.268.067.435.233-.067.501-.1.736-.167a1.15 1.15 0 0 1-.268-.835.56.56 0 0 1 .1-.433c-.1.033-.267.1-.435.033-.1-.033-.2-.166-.267-.4v-.1c.234-.466.602-1.168 1.372-1.201.668.066 1.07.6 1.238 1.168.134.367.134.767 0 1.167.034 0-.033.1-.133.266.333-.066.635-.166.937-.266l.266-.067.269-.467c-.034 0-.034 0-.067-.033a1.09 1.09 0 0 1-.368-.933c0-.2.066-.335.133-.469-.1.067-.3.134-.468.067-.1-.067-.2-.167-.234-.4v-.1c.2-.5.569-1.167 1.339-1.233.535.066.87.4 1.105.8.333-.667.635-1.369 1.003-2.002.535-1.033 1.037-2.068 1.405-3.168.368-1.069.803-2.135 1.172-3.237l.77-3.335c.501-2.235.77-4.57.936-6.838a29 29 0 0 0 0-3.437c-.033-.767-.1-1.2-.166-1.835 0 0-.202-2.702-.937-4.537-.302-.766-.537-1.233-.637-1.566-.133-.3-.1-.435.034-.402.235.033.936.602 1.573 1.535-.033-.1.67 1.035 1.138 2.335.469 1.268.702 2.635.702 2.635l.135.935.067 1.233c.033 1.202.033 2.369-.067 3.57-.168 2.369-.435 4.67-.972 6.972l-.836 3.47-1.205 3.302c-.367 1.135-.937 2.168-1.439 3.235-.535 1.001-.97 2.068-1.606 3.003.97-.3 1.975-.6 2.978-.868.435-.1.905-.2 1.373-.3 3.715-6.237 6.694-12.909 7.999-19.949.836-4.57.736-9.206-.569-13.61m-35.61-8.94c.067-.1-.57.969-1.205 2.102a62 62 0 0 0-1.171 2.268l-.737 1.269c-.903 1.701-1.707 3.401-2.343 5.17a33 33 0 0 0-.87 2.901c0 .035-.034.035-.067.102-.368.3-1.172.767-1.74-.402 0 0-.033-.1-.033-.166.268-1.034.568-2.069.936-3.069a44 44 0 0 1 2.477-5.403l.87-1.535s1.64-2.435 3.047-3.903c2.375-2.535 1.873-1.167.836.666m18.709 34.694c.668.066 1.07.633 1.238 1.2.133.335.133.768 0 1.168 0-.033-.168.567-.703.8-.234.1-.67.167-.97-.1-.302-.267-.369-.633-.369-.933 0-.2.067-.334.134-.434-.1.034-.267.1-.435.034-.134-.067-.2-.167-.269-.402v-.1c.235-.5.604-1.167 1.374-1.233m-3.884-1.002c.202-.5.57-1.2 1.34-1.233.669.066 1.104.633 1.272 1.166.1.369.133.802 0 1.202 0-.033-.202.533-.737.767-.235.133-.636.2-.936-.067a1.1 1.1 0 0 1-.369-.933c0-.2.034-.334.1-.467-.1.067-.268.133-.435.067-.1-.067-.201-.167-.235-.435 0 0-.033-.067 0-.067m0 3.77c.202-.5.57-1.167 1.34-1.233.669.066 1.104.633 1.272 1.2.1.333.133.766 0 1.168 0-.033-.202.533-.737.767-.235.133-.636.2-.936-.067a1.1 1.1 0 0 1-.369-.935c0-.2.034-.333.1-.467-.1.067-.268.134-.435.067-.1-.067-.201-.167-.235-.433 0 0-.033-.067 0-.067m-2.71-5.037c.167-.566.602-1.101 1.239-1.168.803.033 1.171.735 1.371 1.202v.1c0 .166-.066.333-.233.4v.033l-.033-.033c-.069.033-.202.033-.335 0 .066.133.1.3.1.466 0-.033 0 .134-.1.434-.067.268-.435.735-.904.668-.401-.067-.736-.3-.905-.567-.2-.268-.266-.535-.266-.535-.067-.333-.034-.7.066-1m0 3.77c.167-.568.602-1.101 1.239-1.168.803.033 1.171.733 1.371 1.202v.1c0 .166-.066.333-.233.4v.033h-.033c-.069.033-.202.033-.335-.033.066.133.1.3.1.466 0-.033 0 .167-.1.434-.067.3-.435.733-.904.666-.401-.066-.736-.266-.905-.566-.2-.267-.266-.534-.266-.534a2.04 2.04 0 0 1 .066-1m-2.945-2.57c.167-.566.569-1.1 1.239-1.166.77.033 1.136.733 1.371 1.233v.067c0 .166-.1.335-.268.401v.034c-.1.033-.2.033-.333-.034.033.134.1.3.066.467 0-.033.034.167-.066.433-.069.3-.47.734-.905.667-.402-.067-.735-.267-.937-.567-.167-.266-.233-.5-.233-.5-.069-.366-.034-.7.066-1.035m-2.611 2.169c.168-.567.57-1.1 1.238-1.167.77.033 1.172.7 1.373 1.2v.067c0 .166-.1.368-.268.435-.1.033-.2.033-.335-.034.067.167.102.334.067.467 0-.033.035.167-.067.467-.067.266-.435.733-.903.633a1.2 1.2 0 0 1-.904-.533 2.1 2.1 0 0 1-.268-.534 2 2 0 0 1 .067-1.001m.035 3.203c-.102.033-.202.033-.369-.033.067.133.1.3.1.466 0-.033.034.167-.066.434-.067.3-.469.733-.904.666-.401-.066-.736-.266-.938-.566-.2-.267-.233-.5-.233-.5-.067-.367-.067-.7.066-1.034.167-.568.569-1.101 1.239-1.168.77.033 1.138.733 1.371 1.235v.067c0 .166-.1.333-.266.433m2.175 1.133c.066.134.1.3.1.467 0-.033 0 .168-.1.468-.067.267-.435.7-.904.634-.401-.067-.736-.267-.905-.567a1.7 1.7 0 0 1-.266-.502c-.067-.366-.034-.7.066-1.033.167-.533.602-1.1 1.239-1.167.803.034 1.171.734 1.371 1.234v.066a.49.49 0 0 1-.233.434h-.033c-.069.033-.202.033-.335-.034m2.811 1.702h-.035c-.1.033-.2.033-.333-.033.067.133.1.3.1.466 0-.033 0 .167-.1.467-.067.268-.435.702-.905.635a1.3 1.3 0 0 1-.903-.568c-.2-.267-.267-.5-.267-.5-.067-.367-.033-.7.067-1 .166-.567.601-1.135 1.238-1.202.803.067 1.172.735 1.372 1.235v.067c0 .166-.067.366-.234.433m.1-3.77a.41.41 0 0 1-.335-.033c.067.133.1.3.067.468 0-.033.033.167-.067.467-.066.266-.435.7-.903.633-.402-.067-.737-.267-.903-.567-.202-.266-.269-.5-.269-.5a2 2 0 0 1 .067-1.001c.168-.567.57-1.134 1.238-1.2.804.066 1.172.733 1.372 1.233v.067c0 .166-.1.366-.267.433m.435 1.935c.167-.567.602-1.133 1.239-1.2.803.067 1.171.733 1.371 1.233v.067c0 .167-.066.367-.233.433h-.033c-.069.034-.202.034-.335-.033.066.133.1.302.1.468 0-.033 0 .167-.1.467-.067.267-.435.7-.904.633-.401-.066-.736-.266-.905-.566-.2-.267-.266-.5-.266-.5a2 2 0 0 1 .066-1.002m2.377 4.303h-.033c-.069.034-.202.034-.335-.033.066.167.1.333.1.467 0-.034 0 .166-.1.468-.067.267-.435.733-.904.633-.401-.066-.736-.266-.905-.566-.2-.269-.266-.502-.266-.502-.067-.367-.034-.7.066-1 .167-.567.602-1.135 1.239-1.202.803.067 1.171.735 1.371 1.235v.067c0 .167-.066.367-.233.433m2.843-1.835s-.2.569-.735.802c-.235.1-.636.2-.971-.1-.267-.233-.369-.635-.334-.935 0-.167.034-.333.1-.433-.1.066-.268.133-.435.033-.101-.033-.201-.133-.235-.4-.033 0-.033-.067 0-.1.202-.467.57-1.168 1.339-1.202.67.067 1.105.602 1.271 1.169.102.366.102.8 0 1.166m2.545-1.5s-.201.567-.736.8c-.235.1-.637.2-.937-.066a1.15 1.15 0 0 1-.368-.967.9.9 0 0 1 .1-.435c-.1.067-.269.133-.435.033-.1-.033-.202-.133-.235-.4 0 0-.034-.066 0-.1.201-.466.57-1.166 1.34-1.2.668.067 1.103.6 1.271 1.167.1.367.134.8 0 1.168m2.51-1.301c.034-.034-.168.566-.703.8-.235.1-.67.2-.97-.1-.302-.267-.368-.634-.368-.934 0-.2.066-.333.133-.433-.1.033-.268.1-.435.033-.1-.066-.2-.166-.268-.4v-.1c.235-.501.603-1.168 1.373-1.201.668.033 1.07.6 1.238 1.168.134.333.134.767 0 1.167m55.679-20.877c-.034-1.47-.169-2.838-.57-4.173-.334-1.302-.97-2.504-1.874-3.405-.401-.434-.903-.769-1.438-1.035a42 42 0 0 0-.302.501c-1.706 3.004-1.54 1.569-.936-.468-.067.1.335-1.068.701-2.303.335-1.202.57-2.437.57-2.437.067-.3.134-.568.2-.835l.067-.433v-.1l.068-.535a6.3 6.3 0 0 0 .034-1.369c-.102-1.77-1.139-3.071-2.845-3.705-1.674-.635-3.682-.768-5.622-.835-3.882-.066-7.763.769-11.245 2.47-3.48 1.704-6.592 4.174-9.268 7.044-2.344 2.571-4.352 5.408-6.125 8.413.1 2.703-.134 5.375-.635 7.945-1.239 6.308-3.649 12.185-6.694 17.693a19 19 0 0 0 1.674-1.135c.77-.601 1.505-1.27 2.241-1.903l7.832-7.612a286 286 0 0 0 3.212-3.471l1.171-1.302s2.042-2.003 3.58-3.338c.972-.869 1.474-1.235 1.674-1.235.301-.034-.167.901-.937 1.97.1-.067-.67.966-1.472 1.968l-1.606 2.07-3.079 3.372a133 133 0 0 1-3.648 3.805c-2.275 2.305-4.618 4.575-7.162 6.643l.637-.233c.903-.3 1.807-.769 2.71-1.135.535-.234 1.037-.5 1.54-.769 0 0 2.04-.833 4.517-1.835 1.171-.535 1.773-.701 1.975-.635.301.067-.469.769-1.54 1.57.101-.066-.937.667-2.042 1.335-1.103.7-2.275 1.369-2.275 1.369-.468.2-.903.433-1.372.635-.568.233-1.105.5-1.64.733.535.1 1.072.167 1.607.302 1.338.366 2.677.633 4.15 1.201q.55.2 1.103.5c.202.1.369.2.535.334.169.1.504.368.737.601.468.467.703 1.135.637 1.835 0 .169-.034.369-.102.569 3.917-1.102 7.663-2.939 10.91-5.409 3.145-2.37 5.89-5.34 8.098-8.645l1.574-2.538c.368-.867.836-1.668 1.036-2.603l.235-.769c.067-.2.1-.4.134-.6l.235-1.268s.066-.268.133-.668c.067-.434.167-1.035.302-1.735.233-1.404.468-3.239.87-4.775.635-2.537 1.238-3.204 1.405-2.87.1.166.133.566.166 1.135-.033.533-.033 1.235-.033 2.036.033-.166 0 1.669.033 3.605a66 66 0 0 1-.066 2.737c0 .768-.1 1.302-.1 1.302l-.235 1.436c-.134.5-.2.7-.602 2.002-.167.535-.435 1.035-.67 1.537-.233.5-.468 1.035-.735 1.435-.57.901-1.072 1.836-1.707 2.67-2.041 2.971-4.518 5.641-7.295 7.945 3.212-1.034 6.492-2.002 9.939-2.537 1.171-.2 2.375-.3 3.58-.367.101-.2.235-.366.335-.568 2.61-5.073 3.581-10.982 3.748-16.757.033-1.47.033-2.905-.033-4.373m-25.032 14.387c-.1.1-.402.401-.67.635-.267.266-.535.5-.535.5s-.267.235-.568.468c-.269.267-.67.467-.804.567-.235.133-.468.033-.803-.2.033-.467.033-.7.202-.835.1-.067.401-.2.668-.467.268-.233.535-.433.535-.433l.503-.435c.234-.267.535-.534.635-.634.167-.166.402-.1.837 0 .133.4.167.667 0 .834"/><path fill="#041e42" d="M303.14 188.627c-2.02.521-6.205 1.125-10.078 1.605-3.312-.438-10.58-2.5-10.455-5.314.333-4.291 7.227-11.833 10.995-12.25 3.75-.416 11.058 8.459 12.6 11.022-1.875 3.125-1.187 3.125-3.062 4.937"/><path fill="#d69a2d" d="M302.058 188.908c-1.81.52-5.475 1.125-8.932 1.604-2.935-.437-9.285-2.104-9.181-4.917.125-.458 6.246-10.77 9.598-11.187s9.785 9.042 11.118 9.437c-1.665 3.125-.936 3.25-2.603 5.063"/></g><defs><clipPath id="a"><path fill="#fff" d="M0 0h600v360H0z"/></clipPath></defs></svg>