<svg xmlns="http://www.w3.org/2000/svg" width="660" height="440" fill="none" viewBox="0 0 660 440"><g clip-path="url(#a)"><path fill="#002a86" d="M0 440h660V0H0z"/><path fill="#efae0e" d="m336.356 74.882 10.127-7.361-12.85.086-3.863-11.419-3.541 11.311h-12.518l10.128 7.383-4.058 12.15 10.321-7.554 10.3 7.555zm-91.865 29.272 9.933-7.727-12.7.538-4.24-11.408-3.486 11.602-12.345.549 9.977 7.081-3.347 12.065 10.127-7.921 10.493 7.189zm-55.393 85.323 12.86-1.011-10.87-6.62 2.766-11.794-9.201 7.931-10.87-6.457 4.972 11.44-9.75 8.255 12.699-1.087 4.638 11.87zm11.784 93.18 9.363-8.76-12.527 1.657-5.155-10.87-2.39 11.989-12.333 1.464 10.86 6.059-2.573 12.527 9.385-8.825 10.708 6.339zm64.778 65.434 2.206-12.527-9.352 8.932-10.676-5.693 5.489 10.956-9.03 8.653 12.344-1.657 5.338 11.58 2.379-12.689L276.873 354l-11.225-5.886"/><path fill="#efae0e" d="m302.293 78.552-1.475-.732-1.463-.732-3.132-.355-2.95.183-2.388.55-2.95.73-2.4.173 3.692-2.023 4.779-2.745 4.789-3.325 1.657-1.657 1.292-1.475.925.183 1.087-.377.743-.538.549-.742.183-1.087-.183-1.12-.55-.925-.925-.549-1.108-.355-.915.194-.915.548-.732.915-.183 1.098.183.926.366.925.732.732-.183.172-2.938 2.583-3.498 2.4-3.691 2.013-3.864 2.023-7.91 3.315-7.92 2.4 1.474-.926 1.506-1.012 5.521-2.755 4.208-2.475 1.83-1.657 1.668-1.852 1.657-1.85 1.087-2.207 1.109-2.378.549-2.583-2.39.355-2.023.57-2.217.904-1.84 1.109-3.67 2.572-3.132 3.132-2.755 3.315-2.217 3.304-1.657 2.96-1.098 2.184-.355.387-.926-.387-.366-.71.172-1.109.366-1.291 1.109-3.132.915-3.293h.925l.915-.377.743-.743.366-.925v-.904l-.366-.926-.743-.732-.915-.376h-1.108l-.926.376-.538.732-.366.926-.183.904.366.742.366.538.743.55-.926 2.97-1.291 3.293-1.658 3.508-1.657 2.756-7.91 4.778-.183-.721v-1.109l.731-2.4.743-1.28 1.28-1.098 2.584-2.034.925-1.28.732-2.024.366-2.583v-3.68l-.549.925-1.108.742-2.756 1.82-2.948 2.206-1.281 1.313-1.109 1.635-.366 1.109.183 1.474.55 1.475.914 1.83.366 1.108v1.098l-.183 2.4-2.378 1.84-.743.549-.183.549.183.355.194.193 1.087.183 1.108-.538 2.938-1.85 2.4-.367h2.755l1.292.366 1.291.538 1.098.743.732 1.108-.549.926-.172.904.172 1.12.366.903.926.732 1.097.377 1.109-.183 1.098-.549.742-.926.355-1.097-.172-1.109-.549-.925-.742-.71-.915-.388h-1.109l-.914.387-1.658-1.668-1.84-1.28-2.023-.55-2.024-.182 3.67-2.207 2.023-.376 1.852.183 2.023.376 2.023.904 2.766 1.669 3.498 1.463 1.84.55 1.84.193h2.024l1.84-.55 3.132-1.301 1.098-.355h1.28l-.914-1.292-1.658-1.485-3.304-2.927-2.206-.926-2.4-.377-2.39.194-2.023.732-2.583 1.098-2.582.753-2.39.355-2.206-.549 3.315-1.657 2.572-1.28 8.653-2.939 2.217.162 2.39.925 2.195 1.098 2.034 1.463 3.12 1.669 3.132.925 3.315.377 3.315-.377 2.949-.925 2.744-1.281 2.4-1.851 1.658-2.206-2.217.183-2.39-.356-2.389-.731-2.206-1.292m-79.522 45.47-1.658.194-1.657.377-2.583 1.657-2.195 1.83-1.658 2.023-1.84 2.39-1.84 1.474 1.657-3.68 2.206-5.339 1.647-5.338.366-2.4v-1.83l.925-.538.55-.925.376-.926v-.925l-.56-1.098-.732-.732-1.097-.355-1.098.161-.926.377-.732.926-.376.904v1.119l.376.925.732.71.926.377 1.098.173v.193l-.915 3.864-1.292 4.057-1.657 4.036-1.84 3.885-4.24 7.523-4.596 6.651 1.28-3.68 2.583-5.532 1.658-4.22.366-2.4.366-2.582v-2.4l-.366-2.561-.732-2.4-1.109-2.4-1.474 1.668-1.474 1.85-1.087 1.82-.926 2.023-1.291 4.413-.55 4.434v4.23l.184 3.863.56 3.325.537 2.562-.172.549-.925.183-.732-.377-.56-.904-.549-1.302-.914-3.132-1.292-3.132.732-.549.366-.925.194-.904-.194-.915-.732-.743-.732-.549-1.098-.161-.925.355-.732.549-.549.925-.183.904.366.926.549.732.549.549.742.183h.915l1.098 2.755.926 3.508.914 3.681.183 3.304-3.132 8.653-.731-.538-.538-.926-.926-2.206-.183-1.668.366-1.636.743-3.132v-1.474l-.743-2.034-1.292-2.379-2.206-2.96v1.109l-.366 1.28-.925 3.133-1.098 3.68-.172 1.851.172 1.83.366 1.098.925 1.108 1.464.926 1.84.732.926.548.732.926 1.291 2.023-.914 2.938v.926l.182.549.183.183h.366l.915-.56.732-1.098 1.108-3.304 1.475-1.657 2.39-1.657 1.29-.55 1.281-.376h1.292L204 159v.925l.538.926.743.71.915.549h1.291l.915-.355.926-.904.365-.926.183-1.302-.548-.904-.732-.926-1.109-.548h-.925l-1.087.355-.743.549-.549.925-2.206-.355-2.206.172-2.034.732-1.658 1.109 1.475-4.058 1.291-1.28 1.658-1.109 1.84-.904 2.206-.57 3.132-.356 3.67-.925 1.84-.732 1.658-1.098 1.474-1.119 1.108-1.636 1.658-2.777.732-.904.915-.925-1.475-.377-2.195-.355-4.424-.194-2.206.55-2.217 1.301-1.84 1.647-1.098 1.657-1.28 2.562-1.658 2.228-1.658 1.453-2.023 1.119 1.475-3.326 1.28-2.561 4.972-7.738 2.024-1.12 2.066-.817 2.895-.463 2.217-.162 3.498-.57 3.132-1.098 2.755-1.83 2.4-2.227 2.023-2.561 1.292-2.756.72-2.755v-2.96l-1.646 1.658-2.023 1.098-2.4.925-2.572.377m-35.73 85.043-1.291 1.098-.915 1.302-1.292 2.938-.549 2.755v5.532l-.549 2.4-.914-4.057-1.475-5.338-2.023-5.328-1.109-2.227-1.097-1.658.366-.904v-.925l-.366-.926-.56-.732-1.087-.549h-1.108l-.926.194-.915.732-.549.925v1.098l.366 1.087.732.754.743.548 1.097.173.915-.173.915-.731v.355l1.657 3.68 1.475 3.864 1.108 4.057.915 4.23 1.109 8.653.366 8.093-.883-1.55-.549-2.045-.958-5.962-1.291-4.412-1.098-2.228-1.28-2.196-1.475-2.034-1.84-1.636-2.024-1.668-2.217-1.108-.366 2.228v2.184l.732 4.413 1.658 4.25 2.217 3.865 2.561 3.486 2.583 2.95 2.39 2.389 2.023 1.668v.538l-.55.742-.72.183-1.109-.376-1.108-.732-2.573-2.023-1.474-.926-1.474-.732.183-.925-.183-1.087-.539-.743-.742-.549-.915-.377-.925.194-.915.55-.56.73-.366.926.183 1.087.56.743.732.732.731.194h.915l.732-.377.56-.549 2.572 1.657 2.949 2.207 2.949 2.4 2.206 2.4 2.561 8.825h-.732l-1.097-.356-2.024-1.302-1.097-1.097-.743-1.475-1.291-2.938-1.098-1.302-1.647-1.098-2.4-1.302-3.498-.71.55.71.548 1.302 1.109 3.132 1.28 3.487.926 1.668 1.291 1.28 1.087.732 1.292.194h1.657l2.024-.742h1.108l1.109.366 2.206.731 1.087 2.96.56.721.365.377h.366l.366-.377.377-.926-.194-1.28-1.098-3.11.366-2.4.732-2.756.56-1.302.915-.925 1.108-.904 1.098-.377.732.732.925.355 1.098.194.926-.194.914-.71.743-.926.183-1.087-.366-1.12-.56-1.108-1.097-.549-1.109-.172-1.108.355-.915.55-.538.731-.194 1.098v.925l-2.023 1.12-1.658 1.463-1.097 1.851-.743 1.83-1.087-4.057.172-2.013.732-1.851.926-1.647 1.28-1.85 2.4-2.207 2.206-2.938 1.109-1.657.732-1.83.366-1.851v-2.023l-.366-3.315-.183-1.098.366-1.302-1.475.753-2.023 1.098-3.498 2.4-1.474 1.83-.915 2.206-.56 2.389.194 2.206.55 2.777v2.561l-.367 2.4-1.108 2.024-1.292-6.436-.732-9.019.915-2.228 1.475-2.012 1.657-1.83 1.84-1.668 2.4-2.39 1.84-2.948 1.088-3.132.56-3.132v-3.11l-.743-3.132-1.087-2.583-1.658-2.378-.376 2.184-.915 2.207-1.292 2.228zm23.752 89.294-.366 1.668.183 1.464.55 3.132 1.28 2.583 1.474 2.023 1.84 2.583.915 2.023-3.12-2.593-4.413-3.487-4.79-3.132-2.023-.926-2.023-.538-.183-1.098-.56-.753-.914-.549-.926-.172-1.098.172-.914.55-.732.925-.183 1.108.183 1.12.538.71.925.732 1.098.193.926-.193.914-.356.56-.731.366-1.12.366.194 3.498 1.851 3.497 2.368 3.304 2.594 3.315 2.938 6.07 6.08 5.166 6.264-1.808-.829-1.507-1.377-4.412-4.058-3.864-2.755-2.023-1.12-2.4-.925-2.39-.549-2.4-.355h-2.572l-2.583.355 1.109 2.045 2.949 3.304 1.657 1.464 3.864 2.4 4.046 1.851 4.058 1.087 3.853.926 3.314.376 2.573.172.56.377v.926l-.56.549-1.098.355h-1.292l-3.314.193-3.487.356-.366-.926-.56-.71-.915-.388h-.925l-1.098.388-.56.71-.366.926-.172.925.538 1.109.56.549.915.355 1.108.193.732-.376.56-.55.538-.548.183-.926 2.949-.161h3.68l3.864.161 3.132.57 7.35 5.339-.538.549-1.108.355-2.39.355-1.657-.355-1.474-.732-2.755-1.474-1.475-.355h-2.217l-2.561.548-3.315 1.281.915.355 1.108.55 2.755 2.033 3.315 1.851 1.658.721 1.84.377h1.291l1.098-.743 1.292-1.108 1.28-1.647.915-.538.926-.57 2.389-.55 2.583 1.475.732.377h.56l.365-.194.183-.355-.377-1.108-.914-.904-2.766-1.851-1.28-2.045-.926-2.562-.183-1.474v-1.28l.366-1.303.742-1.087.915.183 1.108-.183.915-.549.55-.925.365-1.098v-1.109l-.549-.925-.915-.721-1.108-.377h-1.098l-1.108.549-.732.925-.366 1.098.172.926.377.914.732.743-1.109 2.013-.366 2.206v2.217l.743 1.84-3.498-2.583-.926-1.636-.538-1.85-.366-2.024.183-2.034.355-3.326v-3.67l-.172-2.023-.366-1.83-.925-1.85-1.109-1.464-2.389-2.4-.732-.926-.376-1.097-.915 1.302-.926 2.023-1.28 4.23-.183 2.206.742 2.39.904 2.205 1.475 1.669 2.023 2.012 1.657 2.023 1.109 2.228.366 2.013-2.755-2.228-2.034-2.013-6.07-6.812-.743-2.206v-2.562l.194-2.593.549-2.368.549-3.326-.366-3.487-.926-3.131-1.464-2.777-2.034-2.562-2.389-2.023-2.39-1.474-2.765-.754 1.109 2.045.548 2.206.183 2.562-.366 2.583m127.231 83.009h3.864l2.217-.549 2.023-1.087v-.377l-.365-.549-2.583-.925-3.864-1.475-2.217-1.087-2.39-1.291-3.497-1.84-2.39-.721-1.657-.57-.925-.539-1.087-1.12-2.023-2.937-1.475-3.68-.194-1.658v-1.475l.926-.355.743-.742.538-.926.183-.904-.377-1.109-.538-.925-.915-.732-1.291-.172-1.098.355-.926.732-.56.925-.172 1.098.173 1.12.56.731.925.732.915.172.183 2.938.731 3.681 1.098 3.132.743 1.302.732.721-4.24-.366-1.647-.925-1.464-1.281-1.474-1.464-.926-2.023-1.291-2.938-2.024-3.326-1.098-1.474-1.474-1.302-1.474-1.087-1.84-.721-3.315-.754-.926-.549-1.087-.731v1.657l.355 2.206.926 4.23 1.097 2.034 1.84 1.83 2.024 1.28 2.034.549 2.755.57 2.4 1.087 2.024 1.12 1.657 1.636-3.68-.55-2.767-.537-8.835-2.756-1.658-1.474-1.28-2.228-1.109-2.185-.915-2.206-1.291-3.325-2.024-2.583-2.583-2.206-2.755-1.83-2.948-1.098-2.939-.56-2.948.184-2.766.742 1.84 1.087 1.84 1.668 1.475 2.013.925 2.4.732 1.657.743 1.28 2.206 2.207 2.561 1.668 2.217.915 2.756 1.098 2.034 1.474-4.391-.635-5.37-.646-5.522-.193-2.4.193-2.012.539-.732-.732-.926-.355h-.925l-.915.355-.915.732-.376.925-.183 1.12.366.903.742.926.915.549h1.108l1.098-.366.732-.538.549-.926.194-1.119-.377-.904h.377l4.046-.183 4.047.183 4.24.355 4.413.743 8.276 2.206 7.738 2.561-3.875-.172-6.07-1.087-4.606-.376-2.378.161-2.4.377-2.39.742-2.4.926-2.206 1.28-1.84 1.658 2.023 1.098 2.024.925 2.217.538 2.206.388h4.423l4.413-.55 4.23-1.118 3.68-1.281 2.949-1.475 2.389-1.108h.549l.549.926-.172.731-.743.743-1.109.925-2.938 1.658-1.291.904-1.292 1.108-.731-.56-.915-.171-1.098.172-.743.56-.548.742-.366.926.183 1.087.549.742.731.732.926.194 1.098-.194.731-.549.55-.549.376-.753v-.904l-.194-.732 2.4-1.851 3.132-1.83 3.304-1.85 2.949-1.099h2.583l2.39.55 2.195.548 2.217.355 1.291.194 1.464.57 2.949 1.82 2.766 2.023 2.389 2.206m77.52-276.891-9.761-7.716 12.527.355 4.219-11.225 3.497 11.58 12.528.549-10.3 6.812 3.487 12.334-10.116-7.9-10.493 6.996zm55.048 85.248-12.516-1.109 10.86-6.435-2.756-11.785 9.385 7.92 10.687-6.456-4.79 11.418 9.751 8.276-12.882-1.086-4.79 11.601-2.948-12.344m-11.601 93.168-9.203-8.663 12.334 1.657 5.155-11.053 2.583 11.957 12.516 1.668-11.042 6.07 2.562 12.528-9.374-8.847-11.053 6.07 5.521-11.387m-64.616 65.349-2.207-12.345 9.02 8.858 10.858-5.726-5.155 11.064 8.6 8.642-12.334-1.668-5.102 11.44-2.389-12.527-12.527-1.668z"/><path fill="#efae0e" d="m357.719 78.94 1.475-.926 1.463-.549 3.132-.377 2.949.183 2.39.55 2.937.731h2.39l-3.67-1.819-4.79-2.776-4.595-3.304-1.84-1.658-1.292-1.474h-.926l-.914-.194-.926-.538-.538-.926-.183-1.097.183-.926.538-.925.926-.732 1.108-.172 1.098.172.925.57.55.904.182 1.109v.904l-.549.925-.742.55.194.182 3.12 2.594 3.305 2.367 3.68 2.207 3.875 2.045 8.093 3.325 7.738 2.368-1.475-1.087-1.84-1.098-5.338-2.583-4.057-2.583-1.84-1.474-1.636-1.83-1.475-2.034-1.291-2.023-.926-2.4-.549-2.583 2.206.377 2.207.548 2.034.732 2.023 1.12 3.67 2.755 3.132 3.11 2.572 3.315 2.217 3.132 1.647 2.948 1.097 2.4.55.162.925-.355.183-.732v-.926l-.366-1.28-1.292-3.11-.914-3.326h-.926l-.915-.355-.549-.765-.366-.904v-.925l.366-.915.55-.743 1.097-.355h.926l.914.355.743.743.366.915v.742l-.183.926-.56.549-.549.538.743 2.949 1.464 3.293 1.474 3.52 1.84 2.744 7.738 4.8.183-.926v-.904l-.742-2.421-.732-1.26-1.292-1.108-2.389-2.023-.915-1.303-.914-2.023-.366-2.744v-3.52l.72.743.926.926 2.756 1.83 3.131 2.205 1.292 1.303.925 1.636.366 1.119v1.463l-.56 1.475-1.097 1.851-.366.904v1.302l.366 2.206 2.39 1.83.548.732.194.549v.376l-.377.173-1.098.193-1.108-.549-2.766-1.85-2.39-.356h-2.754l-1.464.355-1.292.55-1.108.753-.732 1.097.549.915.183.904v1.12l-.549.925-.926.732-1.097.172h-1.109l-1.098-.549-.731-.925-.183-1.087v-1.098l.549-1.109.925-.549.915-.355h.925l1.087.355 1.475-1.668 1.84-1.28 2.034-.732h2.024l-3.681-2.4-1.84-.183-2.024.183-2.023.377-1.84.904-2.95 1.668-3.314 1.463-2.023.55-1.84.193h-2.024l-1.84-.549-2.95-1.302-1.097-.355h-1.291l.914-1.281 1.658-1.668 3.315-2.755 2.023-.915 2.4-.366 2.572.172 1.84.732 2.583 1.12 2.562.731 2.4.172 2.206-.355-3.315-1.83-2.561-1.119-8.47-2.938-2.4.162-2.39.925-2.206 1.098-2.023 1.302-2.949 1.83-3.314.925-3.315.183-3.121-.183-3.132-.925-2.766-1.453-2.206-1.679-1.84-2.185 2.389.162 2.217-.355 2.389-.732 2.217-1.281m79.522 45.482 1.84.193 1.475.355 2.755 1.496 2.206 2.013 1.475 2.023 1.84 2.389 1.84 1.474-1.657-3.863-2.023-5.155-1.84-5.338-.367-2.4v-2.013l-.915-.549-.56-.732-.365-.925.183-.926.377-1.097.914-.732.915-.377h1.098l1.108.549.732.732.366 1.108-.172 1.098-.377.926-.732.731-.925.366h-.915v.377l.915 3.864 1.108 4.035 1.658 3.886 1.84 4.035 4.23 7.362 4.789 6.812-1.292-3.68-2.755-5.51-1.474-4.435-.549-2.378-.366-2.39v-2.4l.366-2.582.732-2.4 1.108-2.368 1.647 1.657 1.28 1.83 1.11 1.851.925 2.013 1.291 4.412.55 4.413.182 4.25-.366 3.843-.366 3.325-.742 2.562.366.57.925.172.732-.365.538-.926.377-1.28.914-3.133 1.292-3.131-.732-.732-.377-.732-.172-.926.355-.904.56-.925.915-.355.925-.194.915.194.926.71.366.753.183 1.098-.183.926-.55.71-.742.377-.732.376-.72-.183-1.11 2.938-1.108 3.498-.732 3.692-.376 3.304 3.132 8.47.742-.377.549-.904.926-2.4.172-1.464-.172-1.668-.743-3.132v-1.636l.549-2.044 1.28-2.39 2.218-2.755v1.087l.365 1.313 1.109 3.132.915 3.487.183 2.012v1.852l-.55 1.097-.925 1.109-1.28.742-2.034.904-.732.56-.926.904-1.087 2.045.721 2.938v1.28l-.366.388h-.355l-.925-.549-.55-1.119-1.108-3.315-1.657-1.646-2.206-1.658-1.281-.732-1.292-.193-1.474-.194-1.28.57v.904l-.367.926-.742.732-1.098.387-1.108.183-1.098-.57-.732-.732-.549-1.087v-1.098l.366-1.119.732-.732 1.108-.549h1.098l.915.366.732.56.56.904 2.389-.355 2.217.172 2.023.753 1.636 1.098-1.636-4.057-1.292-1.292-1.657-1.302-1.84-.71-2.024-.55-3.314-.376-3.498-1.098-1.84-.753-1.658-.904-1.464-1.109-1.291-1.646-1.657-2.96-.55-.904-1.108-.732 1.475-.387 2.389-.355 4.24-.183 2.39.538 2.023 1.313 1.85 1.636 1.282 1.657 1.291 2.583 1.474 2.023 1.83 1.658 1.84 1.097-1.474-3.486-1.28-2.4-4.962-7.738-2.034-1.281-2.39-.732-2.389-.387-2.4-.162-3.497-.549-3.132-1.108-2.766-1.83-2.39-2.228-1.84-2.572-1.28-2.755-.732-2.938v-2.777l1.657 1.475 2.024 1.302 2.389.904 2.389.377m35.903 84.859 1.108 1.282.915 1.28 1.28 2.777.55 2.938.183 2.572v2.96l.548 2.184.926-3.842 1.474-5.531 1.84-5.338 1.088-2.035 1.108-1.646-.366-.926v-.925l.366-.904.743-.926.915-.377 1.108-.16 1.098.354.732.732.549.926v1.097l-.183 1.109-.721.742-.926.539-.915.172-1.108-.355-.732-.55-.194.194-1.657 3.67-1.464 4.036-1.098 4.058-.914 4.23-1.109 8.663-.377 8.093.743-1.647.549-2.034 1.28-5.887 1.292-4.606.915-2.206 1.291-2.013 1.658-2.023 1.657-1.851 2.023-1.464 2.4-1.291.173 2.4v2.206l-.173 2.185-.56 2.227-1.657 4.23-2.206 3.864-2.39 3.487-2.582 2.948-2.39 2.4-2.033 1.464-.173.743.55.732h.914l.926-.356 1.097-.742 2.766-1.84 1.475-1.098 1.474-.732-.366-.926.183-.925.55-.743.72-.538.926-.387 1.108.215.732.355.743.904.183.926-.183.925-.377.926-.915.549-.742.355h-.732l-.743-.355-.72-.55-2.573 1.658-2.949 2.206-2.766 2.379-2.39 2.4-2.582 8.846h.926l.914-.376 2.217-1.281.915-1.12.926-1.452 1.087-2.96 1.108-1.28 1.658-1.281 2.583-1.12 3.497-.731-.742.731-.55 1.303-.925 3.11-1.463 3.52-.915 1.463-1.292 1.474-.925.55-1.464.376-1.657-.194-2.034-.538h-.915l-1.292.161-2.206.926-1.098 2.949-.366.538-.548.377h-.366l-.377-.183-.366-.904.183-1.303 1.109-3.304-.183-2.227-.743-2.755-.732-1.281-.925-1.087-.915-.743-1.292-.549-.731.904-.926.388-.904.183-1.109-.377-.925-.549-.549-.925-.183-1.281.183-1.109.743-.925.914-.549 1.109-.172 1.087.172.925.732.55.742.376 1.109-.194.904 2.034 1.12 1.658 1.463 1.097 1.851.743 1.83 1.28-4.22-.365-1.85-.549-1.851-.926-1.83-1.474-1.657-2.206-2.207-2.39-2.948-.925-1.83-.732-1.657-.549-1.851v-2.013l.55-3.326v-1.097l-.378-1.281 1.475.549 2.023 1.12 3.509 2.56 1.474 1.83 1.098 2.206.366 2.39-.183 2.044-.366 2.939-.183 2.572.549 2.389.742 2.023.915-3.68.55-2.756.742-9.018-.926-2.207-1.474-2.034-1.647-2.023-1.84-1.474-2.4-2.562-1.84-2.776-1.11-3.132-.537-3.11.172-3.315.56-2.95 1.097-2.754 1.658-2.207.549 2.207.731 2.217 1.475 2.012 1.84 1.851m-23.73 89.273.182 1.657v1.658l-.731 3.11-1.292 2.594-1.474 2.012-1.84 2.4-.926 2.207 3.132-2.562 4.423-3.52 4.79-3.13 2.195-1.088 1.84-.549.366-.925.549-.732.742-.55 1.109-.193 1.087.194.925.549.55.732.182 1.097-.183 1.109-.549.925-.925.743-.904.161-1.109-.16-.925-.571-.55-.721-.365-.926-.183.172-3.498 1.851-3.497 2.4-3.498 2.562-3.304 2.776-5.898 6.242-5.338 6.264 3.315-2.206 4.606-4.058 3.67-2.755 2.206-1.119 2.217-.904 2.39-.732 2.572-.376h2.4l2.583.548-1.109 1.852-1.291 1.84-1.658 1.646-1.657 1.475-3.853 2.39-4.047 1.656-4.057 1.292-3.864.926-3.314.355h-2.583l-.366.56v.903l.549.55.925.376h4.779l3.314.366.366-.743.732-.732.926-.355h.925l.915.355.743.732.365.926v.925l-.365.926-.743.71-.915.388h-.925l-.926-.194-.549-.549-.366-.732-.172-.732-3.132-.366h-3.68l-3.681.366-3.315.56-7.361 5.338.732.549.925.355 2.572.194 1.475-.194 1.474-.732 2.755-1.657 1.658-.366h2.023l2.755.743 3.315 1.28-1.098.377-1.098.549-2.765 1.85-3.132 2.013-1.84.743-1.658.355-1.27-.194-1.291-.538-1.292-1.097-1.291-1.658-.732-.549-1.109-.549-2.206-.57-2.755 1.496-.732.355h-.56l-.365-.183v-.366l.183-1.108.925-.904 2.755-1.851 1.292-2.013.914-2.755.366-1.302v-1.453l-.366-1.302-.731-1.098-1.098.172-.926-.172-.925-.377-.732-.925-.366-1.087.183-1.12.549-.904.742-.925 1.087-.183h1.292l.925.538.732.926.377.925v1.098l-.377.925-.732.732.915 2.024.55 2.206-.173 2.206-.743 1.851 3.498-2.594.926-1.635.731-1.852.183-2.012v-2.206l-.366-3.132-.182-3.875.182-1.85.55-1.83.742-1.851 1.087-1.442 2.4-2.4.732-.926.549-1.28.742 1.474.926 2.012 1.463 4.23v2.228l-.548 2.378-1.109 2.206-1.28 1.658-2.218 1.83-1.71 2.227-1.099 2.206-.301 2.013 2.938-2.39 2.023-1.829 6.081-6.812.549-2.4v-2.39l-.183-2.593-.549-2.39-.366-3.486.183-3.326 1.098-3.11 1.474-2.96 1.83-2.378 2.4-2.045 2.572-1.464 2.583-.925-.926 2.034-.731 2.4v2.378zm-127.404 83.031-1.657.183h-2.217l-2.206-.55-1.83-1.302-.183-.355.538-.355 2.4-.925 3.864-1.475 2.4-1.108 2.206-1.475 3.68-1.636 2.207-.925 1.647-.377 1.108-.549.915-1.097 2.034-3.132 1.464-3.509.366-1.636-.173-1.474-.925-.377-.732-.732-.549-.925-.183-1.098.366-1.098.743-.925.914-.538 1.098-.194 1.098.377.925.549.55 1.097.193 1.109-.194 1.098-.549.731-.925.732-.915.194-.183 2.938-.549 3.498-1.28 3.315-.55 1.28-.925.743 4.413-.377 1.668-.904 1.463-1.302 1.292-1.647 1.098-1.85 1.28-2.939 1.84-3.325 1.11-1.464 1.474-1.453 1.657-.926 1.647-.742 3.314-.915 1.098-.387 1.109-.732-.183 1.657-.183 2.206-1.109 4.23-1.087 2.034-1.657 1.647-2.217 1.485-1.84.549-2.756.549-2.582.925-2.024 1.28-1.474 1.658 3.68-.538 2.766-.549 8.653-2.776 1.658-1.658 1.474-2.023 1.087-2.206.743-2.39 1.474-3.142 2.023-2.745 2.39-2.206 2.765-1.668 2.95-1.087 3.131-.549 2.938.183 2.583.721-1.84 1.109-1.658 1.646-1.474 2.034-1.109 2.4-.548 1.475-.926 1.464-2.195 2.206-2.39 1.474-2.4 1.12-2.755 1.086-1.85 1.281 4.056-.538 5.521-.549 5.715-.194 2.39.194 1.84.549.72-.743.926-.376h.926l1.098.193.732.732.56 1.098v1.109l-.367.925-.742.926-.915.355-1.109.194-1.108-.377-.721-.743-.366-.732-.183-1.097.183-.926h-.183l-4.057-.183h-4.23l-4.24.55-4.23.752-8.459 2.013-7.738 2.755 4.047-.183 5.886-1.098 4.607-.355 2.389.162 2.583.387 2.39.538 2.205 1.098 2.217 1.302 2.024 1.636-2.024 1.12-2.217.925-2.023.549-2.206.355h-4.607l-4.413-.549-4.057-1.108-3.67-1.292-3.132-1.464-2.206-1.28-.55.183-.559.72.194.916.732.742 1.108.732 2.755 1.851 1.475.904 1.291 1.12.721-.55.926-.193.915.193.925.55.55.731-.152 1.012.151.818-.366.925-.915.57-.925.356-.926-.194-.914-.549-.539-.538-.193-.925v-.743l.193-.71-2.4-1.851-3.131-2.034-3.315-1.647-3.132-1.109h-2.572l-2.379.539-2.217.548-2.023.194-1.474.355-1.292.57-2.938 1.658-2.949 2.206-2.389 2.024M286.778 317.083l-4.657-1.994 2.55 4.41-3.429 3.927 5.065-1.13 2.666 4.608.506-5.338 5.152-1.138-4.872-2.09.494-5.227zm86.502.09 4.657-1.99-2.548 4.401 3.43 3.931-5.067-1.134-2.67 4.617-.503-5.345-5.147-1.138 4.863-2.088-.486-5.23zM329.699 109.99a1.934 1.934 0 0 0-1.933 1.935 1.933 1.933 0 0 0 3.302 1.371 1.938 1.938 0 0 0-1.369-3.306m-81.323 37.515a1.94 1.94 0 0 0-1.371 3.306 1.935 1.935 0 1 0 1.371-3.306m-24.837 52.303a1.936 1.936 0 0 0-1.894 1.937 1.937 1.937 0 0 0 1.894 1.938c.513 0 1.006-.204 1.37-.567a1.94 1.94 0 0 0 0-2.741 1.94 1.94 0 0 0-1.37-.567m3.002 49.295a1.933 1.933 0 0 0-1.926 1.937c0 1.07.86 1.94 1.926 1.94a1.94 1.94 0 0 0 1.937-1.94 1.94 1.94 0 0 0-1.937-1.937m153.096-127.318a1.94 1.94 0 0 1 1.933 1.938 1.935 1.935 0 1 1-1.933-1.938m-76.684 200.342-2.456-.659.375-1.402q.981.219 1.397.236c.431.018.827-.076 1.155-.283.229-.14.427-.356.604-.644.107-.17.165-.307.193-.399l1.709.46-2.79 10.49-2.1-.564zm21.454-.11-.065 1.672c-.335.302-.798.843-1.401 1.624a14.8 14.8 0 0 0-1.52 2.438c-.334.658-.646 1.47-.921 2.433-.292.964-.444 1.754-.466 2.378l-2.208-.09c.138-1.944.86-3.943 2.157-5.988.837-1.269 1.525-2.151 2.079-2.643l-5.391-.224.107-1.917zm16.833.228v1.671q-.479.475-1.329 1.681c-.55.786-1.027 1.62-1.423 2.494-.306.677-.572 1.503-.82 2.472q-.374 1.464-.376 2.397h-2.208c.069-1.945.702-3.968 1.913-6.074.784-1.3 1.439-2.21 1.957-2.72h-5.39l.032-1.922zm15.359-2.134c-.647-.45-1.47-.63-2.47-.53-.7.071-1.272.292-1.739.662-.466.367-.837.84-1.081 1.38-.293.651-.452 1.438-.487 2.369-.017.525.02 1.197.098 2.027q.216 2.104 1.108 3.362c.746 1.07 1.805 1.54 3.174 1.397 1.259-.128 2.144-.61 2.669-1.441.527-.828.725-1.746.632-2.755-.101-1.012-.494-1.813-1.167-2.405-.687-.585-1.497-.834-2.451-.734a3 3 0 0 0-1.161.338c-.335.179-.61.439-.85.776q-.033-1.26.139-1.923.316-1.207 1.346-1.313c.458-.047.826.085 1.085.399.152.2.24.386.253.559l2.106-.218q-.235-1.273-1.204-1.95m-95.932-19.06-1.47-1.628q.488-.584.549-1.066c.079-.581-.177-1.21-.792-1.88q-.547-.6-1.015-.86c-.602-.317-1.136-.268-1.594.155a.96.96 0 0 0-.306.92c.076.367.283.853.632 1.463l.589 1.04c.587 1.023.908 1.8.991 2.33q.173 1.336-1.009 2.434c-.733.665-1.576.951-2.542.862q-1.456-.133-2.852-1.68c-.787-.853-1.222-1.796-1.32-2.82q-.142-1.534 1.111-2.762l1.491 1.637c-.458.477-.618 1.008-.458 1.597.098.387.335.781.697 1.167q.591.662 1.214.812a1.14 1.14 0 0 0 1.098-.285q.436-.398.297-.98c-.05-.256-.26-.71-.632-1.372l-.938-1.712q-.618-1.124-.687-1.936-.087-1.254 1-2.246c.74-.681 1.62-.96 2.63-.841 1.004.12 1.984.703 2.928 1.74.967 1.063 1.48 2.118 1.556 3.171q.102 1.576-1.168 2.74M243.122 285.978l1.471-1.23 3.415 4.122 2.172-1.806-3.887-4.705 1.52-1.268 5.33 6.436-8.467 7.052-5.152-6.227 1.501-1.252 3.72 4.495 1.793-1.5zm-3.513-17.327-7.22 9.193 1.381 2.206 11.396-2.562-1.282-2.039-2.318.563-2.165-3.437 1.54-1.812zm-6.665-10.555 1.817-.78 3.041 7.15-10.111 4.334-.904-2.117 8.294-3.561zm-1.096-67.744-.549 2.254-8.792-2.139-.778 3.224-1.897-.463 2.097-8.685 1.897.46-.778 3.205zm-2.652-12.477 1.692-3.966-3.858-1.649.898-2.106 10.111 4.332-.893 2.113-4.514-1.938-1.694 3.968 4.514 1.934-.891 2.102-10.118-4.338.902-2.102zm10.057-18.664 1.612 1.027-2.866 4.525 2.38 1.522 3.27-5.155 1.671 1.07-4.477 7.053-9.279-5.927 4.332-6.829 1.645 1.049-3.124 4.928 1.965 1.258zm18.431-16.194 1.599-1.509c.39.317.755.496 1.068.541.58.071 1.205-.201 1.868-.825.393-.372.678-.72.838-1.039.312-.606.251-1.14-.178-1.592q-.365-.403-.918-.289c-.375.077-.847.295-1.45.655l-1.03.612c-1.005.596-1.777.937-2.303 1.016-.885.137-1.692-.184-2.433-.976-.682-.717-.98-1.565-.901-2.532q.114-1.454 1.63-2.879 1.265-1.2 2.793-1.368 1.52-.172 2.767 1.067l-1.609 1.519c-.488-.455-1.006-.6-1.598-.435-.393.116-.778.35-1.163.72-.425.406-.699.817-.786 1.236q-.136.629.298 1.093.404.43.984.287.376-.09 1.355-.657l1.694-.97q1.099-.637 1.922-.71c.83-.072 1.585.248 2.25.965.692.73.98 1.606.87 2.618-.093 1.014-.67 2.006-1.685 2.97-1.04.984-2.089 1.523-3.132 1.608q-1.568.128-2.75-1.126m18.45-10.494-1.937 1.27-4.964-7.594-2.765 1.817-1.067-1.634 7.447-4.904 1.07 1.636-2.748 1.81zm15.615-8.163-8.182-8.346-2.354 1.101 1.095 11.667 2.175-1.02-.266-2.378 3.673-1.72 1.594 1.754zm10.322-3.21-2.228.625-2.43-8.75-3.186.895-.52-1.887 8.577-2.403.525 1.889-3.17.88zm14.791-9.782.286 1.89-5.276.814.422 2.804 6.016-.924.302 1.96-8.24 1.259-1.66-10.909 7.982-1.222.288 1.931-5.756.88.353 2.32zm29.487-4.088c-1.57-.05-2.776.342-3.644 1.17-1.15.977-1.75 2.477-1.814 4.498-.068 1.98.444 3.516 1.526 4.606.8.884 1.981 1.349 3.557 1.401q2.362.077 3.644-1.173 1.71-1.522 1.81-4.494c.06-2.02-.444-3.554-1.52-4.603-.797-.884-1.983-1.356-3.559-1.405m-.063 1.95q1.367.045 2.138 1.085c.518.696.747 1.659.705 2.898-.037 1.238-.336 2.193-.895 2.845q-.829.987-2.202.94c-.901-.028-1.62-.389-2.137-1.08-.523-.689-.761-1.657-.724-2.899.046-1.244.344-2.191.907-2.848.56-.655 1.305-.967 2.208-.941m20.678 3.37-.618 1.834-5.229-1.755-.8 2.405 4.573 1.541-.608 1.818-4.575-1.545-1.47 4.39-2.166-.73 3.499-10.446zm28.81 14.45-1.449 8.75 4.842-5.977 1.662 1.356-6.937 8.563-1.783-1.456 1.438-8.926-4.922 6.086-1.666-1.36 6.941-8.565zm14.842 18.86-1.348 1.355-3.782-3.789-1.998 2.003 4.301 4.323-1.395 1.401-5.893-5.913 7.775-7.803 5.705 5.723-1.374 1.382-4.116-4.129-1.654 1.657zm9.363 13.108 1.534-1.535-1.977.892-6.042 2.576-1.213-1.762 7.265-8.852 1.39 2.013-4.35 4.796-1.264 1.264 1.594-.717 5.916-2.597 1.38 2.003-4.437 4.673-1.246 1.277 1.574-.683 6.067-2.423 1.333 1.927-10.808 3.724-1.25-1.809zm14.127 28.257 1.128 4.158 4.048-1.108.595 2.212-10.605 2.907-.602-2.212 4.741-1.293-1.141-4.164-4.734 1.296-.596-2.202 10.605-2.905.604 2.203zM430.599 200.18l.353 2.385 2.346.427.59 4.025-2.137 1.031.368 2.474 10.313-5.473-.38-2.58zm4.666 3.148 4.482.776-4.075 1.994zm-.6 17.155 8.65 1.986v3.316l-11.002.01v-2.149l7.441-.008q.332.001.902.008c.385.005.686.007.893.007l-9.236-2.08v-2.24l9.23-2.084q-.315.001-.893.008c-.387.008-.691.012-.902.012l-7.441.008v-2.15l11-.012v3.352zM431.995 232l-.298 2.275 3.927.522-.312 2.322q-.24 1.819.435 2.905c.44.724 1.309 1.17 2.591 1.343 1.181.157 2.097-.05 2.743-.632.655-.577 1.046-1.417 1.192-2.514l.632-4.764zm5.5 3.047 3.21.43-.283 2.132c-.075.54-.248.94-.533 1.21-.28.264-.701.36-1.272.286-.555-.075-.952-.279-1.181-.616-.217-.332-.288-.77-.225-1.31zm-4.684 11.222-.664 2.104c-.503-.088-.897-.07-1.196.05-.545.22-.956.765-1.22 1.631-.161.52-.232.96-.23 1.32.03.683.335 1.118.924 1.307a.95.95 0 0 0 .952-.203q.424-.373.944-1.283l.596-1.037c.59-1.014 1.097-1.69 1.52-2.015.704-.556 1.569-.675 2.6-.347q1.409.443 2.02 1.767c.4.88.4 1.986-.013 3.313-.349 1.11-.944 1.966-1.777 2.566-.829.594-1.805.74-2.936.422l.665-2.112q.958.24 1.607-.404.426-.43.668-1.196c.174-.565.206-1.057.079-1.463a1.16 1.16 0 0 0-.798-.81c-.375-.12-.705-.04-1.001.236-.188.175-.478.586-.861 1.236l-1.005 1.676q-.656 1.102-1.32 1.559-1.04.707-2.434.266c-.966-.3-1.643-.92-2.048-1.858q-.6-1.4.029-3.417c.43-1.37 1.075-2.35 1.955-2.941q1.307-.881 2.944-.367M429.982 264.012l-1.791 3.922 3.805 1.758-.953 2.08-9.995-4.607.96-2.08 4.461 2.053 1.791-3.917-4.46-2.055.947-2.078 9.994 4.605-.948 2.08zm-4.108 15.983-9.382-5.768 1.191-1.955 9.386 5.767zm-3.536 6.253-8.64-6.835-1.388 1.769 3.385 2.68-1.47 1.871c-.414.531-.803.822-1.137.875q-.5.066-1.333-.572l-.818-.622a5 5 0 0 0-.798-.512 11 11 0 0 0-.557-.25l-1.562 1.995.219.17q.357-.135.747.06c.168.082.443.276.843.585l.573.46q.917.722 1.547.82.644.101 1.353-.309-.332.912.037 1.694c.225.52.54.945.958 1.27.342.269.695.456 1.04.553.348.1.7.142 1.075.126q.665-.02 1.256-.35c.393-.222.843-.628 1.32-1.23zm-18.664 14.749-1.333-1.377 3.841-3.732-1.967-2.037-4.37 4.253-1.377-1.43 5.984-5.813 7.656 7.93-5.796 5.63-1.36-1.405 4.186-4.062-1.623-1.683zm-185.609-72.213c-.829.857-1.23 2.073-1.175 3.649q.064 2.365 1.381 3.58c1.027 1.092 2.561 1.606 4.575 1.553 1.969-.055 3.476-.657 4.489-1.804q1.255-1.281 1.177-3.647c-.038-1.58-.505-2.768-1.38-3.58q-1.612-1.63-4.578-1.547c-2.012.057-3.504.655-4.49 1.796m-1.367-15.914 1.931.004-.008 5.534 2.524.002.016-4.84 1.907.004-.006 4.84 4.609.008-.006 2.297-10.98-.022z"/><path fill="#002a86" d="M353.662 325.614c.247-.247.56-.387.922-.425q.664-.072 1.179.388c.34.303.54.769.61 1.4.058.566-.041 1.042-.27 1.422q-.348.578-1.054.646a1.476 1.476 0 0 1-1.242-.43q-.523-.504-.612-1.373c-.074-.722.086-1.263.467-1.628m-114.024-49.112-4.423 1.116 2.93-3.482zM283.969 123.4l-.54-4.538 3.081 3.352zm132.976 166.3c-.458.206-.944.1-1.467-.315q-.73-.576-.545-1.31c.07-.278.253-.62.582-1.026l1.604-2.055 2.326 1.837-1.654 2.107c-.311.392-.587.644-.846.762M225.62 234.382c-.654.563-1.606.864-2.842.893-1.234.038-2.2-.21-2.883-.736-.69-.527-1.04-1.242-1.07-2.157-.02-.915.292-1.647.953-2.202.664-.559 1.61-.847 2.844-.882 1.244-.034 2.202.206 2.883.724.693.518 1.037 1.236 1.068 2.147.022.914-.292 1.646-.953 2.213"/><path fill="#fff" stroke="#000" stroke-width=".343" d="M234.023 220.303h191.559c-.004-24.198-10.154-49.506-26.937-67.314-17.918-19.011-43.31-29.698-69.243-28.667-22.675.901-45.126 8.622-61.955 23.101-20.45 17.594-33.424 45.436-33.424 72.88Z"/><path fill="#946922" fill-rule="evenodd" d="m407.022 238.94 17.93-.252-6.398 18.687-6.061 10.27-60.104 6.146-88.724-.169-11.338 3.263-9.794-17.054-6.648-18.028-1.178-7.913 60.946 2.693z" clip-rule="evenodd"/><path fill="#4f9eff" d="M348.737 265.553c-1.966.786-30.405 4.078-34.563 6.016-1.353-.775-6.266 5.141-9.069 1.965-6.994 1.215-17.521 4.203-25.368 3.153-6.943-.931-18.499 2.918-25.049 2.206 17.102 21.434 45.762 36.4 75.31 37.032 34.424.736 71.806-20.372 85.048-51.74.095-.157-15.124-1.466-19.691-1.287 0 0-44.663 1.869-46.618 2.655"/><path fill="#efae0e" fill-rule="evenodd" d="M318.516 220.431a11.481 11.481 0 0 1 19.694-7.895 11.49 11.49 0 0 1 3.271 8.158l-11.483-.132z" clip-rule="evenodd"/><path stroke="#000" stroke-linecap="round" stroke-linejoin="round" stroke-miterlimit="6.3" stroke-width=".576" d="m379.744 224.953-1.042-24.107-.153 4.591-.151 4.505-.5 14.981z" clip-rule="evenodd"/><path fill="#2a1510" fill-rule="evenodd" d="m376.192 200.428-26.833 14.269z" clip-rule="evenodd"/><path stroke="#000" stroke-linecap="round" stroke-linejoin="round" stroke-miterlimit="6.3" stroke-width=".659" d="m376.192 200.428-26.833 14.269"/><path fill="#efae0e" fill-rule="evenodd" d="m344.115 216.979 22.879-6.761c.682.753 1.331 1.747.893 3.444l-23.516 4.678zm-1.397-2.831 3.75-2.619c.456.52.395 1.247.059 2.083l-3.214 2.024zm-2.5-2.976 18.274-16.667c1.269.457 2.26 1.192 2.738 2.441l-19.941 15.595zm5.059-12.44-7.797 10.654 1.547.953 8.393-9.762c-.388-.941-.966-1.693-2.143-1.845m-1.071-16.965-9.821 26.369 1.845.834 11.488-26.191c-1.064-.712-2.138-1.387-3.512-1.012m-11.726 11.905-2.024 13.631 1.845.238 2.917-13.571c-1.127-.742-1.918-.476-2.738-.298m-7.976-15.417 1.488 29.881 2.381-.535.535-29.643c-1.392-.052-2.575-.524-4.404.297m-5.893 15.834 3.988 15.297 1.905-1.071-3.691-14.702c-.984-.341-1.694-.135-2.202.476m-9.167-12.262L321.17 210.1l-.892.893-14.048-27.202c.763-1.169 1.986-1.571 3.214-1.964m-.833 15.833 10.417 14.524-.953 1.071-11.488-14.226c.572-1.071 1.296-1.23 2.024-1.369m-13.81-2.619 22.857 19.107-.654 1.012-25.893-18.214c.962-.992 2.254-1.546 3.69-1.905m3.215 11.726c-.76.618-1.165 1.307-1.131 2.084l18.809 8.809.536-1.19zm-11.667 3.75c-.518 1.127-.864 2.288-.595 3.572l29.285 6.071.417-1.131z" clip-rule="evenodd"/><path fill="#4f9eff" d="M235.525 237.147c25.773 4.208 145.08 10.77 150.653 9.753 2.002-.363 4.892.347 6.354.548 3.365.455 6.181.092 9.72-1.001 3.171-.982 15.922-2.875 20.557-3.015 2.081-7.745 3.288-15.037 3.288-23.433 0 0-194.807 0-191.861.083"/><path stroke="#000" stroke-width=".329" d="M235.525 237.147c25.773 4.208 145.08 10.77 150.653 9.753 2.002-.363 4.892.347 6.354.548 3.365.455 6.181.092 9.72-1.001 3.171-.982 15.922-2.875 20.557-3.015 2.081-7.745 3.288-15.037 3.288-23.433 0 0-194.807 0-191.861.083"/><path stroke="#000" stroke-linecap="round" stroke-linejoin="round" stroke-miterlimit="6.3" stroke-width=".576" d="m351.172 230.16.196-3.154 2.975.089-.11-2.73-2.762.111.105-2.899 2.548.093-.077-1.902-2.402-.087.105-2.795 2.177-.089-.093-2.311-2.009.215.074-2.043 1.713.062-.119-2.917-1.488-.059.119-2.798 1.369.059-.119-3.214-1.131-.059.06-2.232.982-.03-.135-2.343-.703-.005"/><path fill="#2a1510" fill-rule="evenodd" d="m301.799 189.273-38.049 24.16z" clip-rule="evenodd"/><path stroke="#000" stroke-linecap="round" stroke-linejoin="round" stroke-miterlimit="6.3" stroke-width=".659" d="m301.799 189.273-38.049 24.16"/><path stroke="#000" stroke-linecap="round" stroke-linejoin="round" stroke-miterlimit="6.3" stroke-width=".576" d="m351.293 229.446 1.488-41.071 1.667 41.249zm6.25 1.131-4.702-42.024 7.976 41.488z" clip-rule="evenodd"/><path stroke="#000" stroke-linecap="round" stroke-linejoin="round" stroke-miterlimit="6.3" stroke-width=".576" d="m353.066 187.611 13.638 43.605-4.883-.084-1.347-2.021z" clip-rule="evenodd"/><path stroke="#000" stroke-linecap="round" stroke-linejoin="round" stroke-miterlimit="6.3" stroke-width=".659" d="m367.838 230.398.119-5.833m2.977-.119-.179 6.131m-11.071-6.25 14.761.178M376.055 224.922l3.512-.179v-1.547l-3.453.059.179-2.083h3.214l-.059-1.875-2.917-.089.178-2.203 2.62-1.012.178-2.44-1.786-.357"/><path stroke="#000" stroke-linecap="round" stroke-linejoin="round" stroke-miterlimit="6.3" stroke-width=".576" d="m305.436 190.324 4.605 35.55-2.113.119-.149-1.904-2.69-31.1-.524-1.817 1.309 35.06 4.405.714-.506-2.917-3.899-.298-.119-1.845 3.631.119-.268-2.529-3.452-.03-.09-2.381 3.215.059-.298-2.44-2.976.119-.119-2.351 2.678-.387-.238-2.024-2.53.119-.089-2.56 2.322-.059-.298-3.214h-2.173l-.089-2.976 1.816-.179-.328-2.173-1.607.179-.089-2.351 1.399.059-.298-2.678-1.22.178-.595-3.303z" clip-rule="evenodd"/><path stroke="#000" stroke-linecap="round" stroke-linejoin="round" stroke-miterlimit="6.3" stroke-width=".659" d="M256.891 210.171c6.469 10.07 15.095 18.411 23.991 26.937"/><path fill="#2a1510" fill-rule="evenodd" d="m348.771 187.967-57.673 33.573z" clip-rule="evenodd"/><path stroke="#000" stroke-linecap="round" stroke-linejoin="round" stroke-miterlimit="6.3" stroke-width=".659" d="m348.771 187.967-57.673 33.573"/><path stroke="#000" stroke-linecap="round" stroke-linejoin="round" stroke-miterlimit="6.3" stroke-width=".576" d="m305.168 179.004 1.178-17.425m53.875 65.426-2.916-.059-.417-2.619 2.798.059-.476-2.678h-2.501l-.297-2.024h2.321l-.506-3.333-2.113.059-.357-3.571h1.786l-.582-3.036-1.74-.149-.297-2.649 1.547.06-.357-2.143-1.399-.03-.267-2.767 1.131-.06-.505-2.798-1.043-.059-.238-1.964.932-.129"/><path fill="#2a1510" stroke="#000" stroke-linecap="round" stroke-linejoin="round" stroke-width=".335" d="M273.742 219.726c-.064.915.032 5.534-.181 6.296-.305-.11-9.525-10.563-10.222-11.495zm-6.882-4.717a27 27 0 0 1-1.887-.818c-.813-.392-1.568-.894-2.336-1.367-1.836-1.131-5.43-3.515-5.43-3.515l-.926.715s1.94 1.345 2.841 2.105c1.73 1.458 3.309 3.089 4.904 4.693a165 165 0 0 1 5.514 5.829c1.528 1.697 3.054 3.401 4.461 5.198.924 1.181 1.74 2.442 2.61 3.662a5738 5738 0 0 1 11.217 15.847s4.177.607 6.397.821c8.358.806 16.533 1.182 24.896 1.936 16.238 1.463 32.616 3.049 48.845 4.609 3.654.351 7.312.624 10.964.989 1.594.159 4.735.589 4.735.589s.364-1.51.463-2.125c.039-.237-.007-.494.085-.716.081-.192.211-.359.378-.484.351-.262.89-.197 1.221-.484.256-.222.607-.56.505-.884-.049-.156-.292-.147-.442-.21-.358-.15-.9-.064-1.094-.4-.242-.42-.127-1.13.252-1.431.204-.162.519.054.779.042.283-.014.643.076.842-.126.293-.298.326-.855.168-1.242-.06-.148-.323-.079-.468-.146-.319-.147-.72-.087-.942-.359-.164-.201-.18-.592 0-.779.137-.141.393-.026.589-.021.374.011.756.205 1.116.106.353-.099.6-.376.616-.742.014-.318-.388-.57-.686-.632-.487-.101-.687-.44-.877-.9-.089-.214-.009-.468.042-.694.062-.273.24-.509.315-.778.096-.343.191-.698.169-1.053-.014-.226-.219-.428-.189-.652.031-.244.206-.456.378-.632.25-.254.587-.408.905-.568.504-.253 1.079-.348 1.579-.61.42-.22.86-.447 1.178-.8.198-.219.258-.533.421-.778.179-.27.412-.502.61-.758.274-.353.632-.66.8-1.073.122-.302.061-.65.126-.968.073-.357.205-.7.295-1.053.085-.334.114-.685.231-1.01.217-.599.533-1.16.863-1.704.407-.671.95-1.252 1.368-1.916.248-.393.551-.772.674-1.22.068-.251-.006-.52.021-.779.024-.234.087-.462.126-.694.063-.373-1.307-.208-1.604-.439-.454-.352.533-1.063.535-1.637.002-.49-.352-.919-.446-1.399-.096-.488-.291-1.021-.119-1.488 2.267-6.166 6.249-18.436 6.249-18.436l-1.13-.493-7.53 20.685s-.241.312-.417.327c-5.186.456-15.505.714-15.505.714l.029-2.202 2.917-21.875 2.649.03.297-3.333-3.095-.06.655-7.53-1.488-.267-.804-.298-.476.178.03.804 1.071.298.06.654-.387 5.893-1.786-.119-.149 3.333h.596l-2.649 24.048-.059 4.285-.762 1.189s-4.546-.125-6.818-.189c-5.961-.17-11.931-.18-17.896-.277l.679-6.36 4.499-35.008 3.065.038-.015-2.693-2.654.047.286-5.174 1.125.153-.013-1.737-2.258-.289 1.679-18.189-1.121.094-1.472 17.986-1.41-.066-.109 1.562 1.196.163-.351 5.593-1.995-.11-.279 2.512 2.362.086-5.149 34.923-1.042 6.413c-4.813-.107-9.622-.296-14.419-.699a185 185 0 0 1-20.435-2.841c-2.64-.522-5.974-1.321-9.428-2.192l4.798-33.1 1.768.084v-3.114l-1.599-.084s.146-4.007.505-6.314c.046-.295.55-.317.673-.589.105-.23.139-.547 0-.758-.353-.535-1.179-.503-1.768-.757-.646-.279-1.261-.642-1.936-.842-.122-.036-.265-.118-.389-.118a.2.2 0 0 0-.116.034c-.29.19-.305.667-.252 1.01.065.423.717.668.673 1.094-.274 2.684-.421 6.987-.421 6.987l-1.094.168-.168 3.283 1.094.084-4.69 32.17a789 789 0 0 1-16.039-4.369l.126 2.673s-6.556-2.879-9.87-4.231c-.54-.22-1.086-.426-1.635-.627z"/><path fill="#fff" stroke="#000" stroke-width=".335" d="M316.057 272.808c4.158-1.937 9.674-3.545 15.044-2.888 5.355.656 8.233-.392 9.534-1.309 1.316-.92 3.015-1.973 6.014-1.575 3.014.386 5.36-.132 7.33-.921 1.955-.786 4.421-1.116 6.01-.786 5.756 1.178 31.472-.336 36.232-2.496-5.582.704-35.408.69-38.187-.359-2.777-1.05-5.936-.556-9.597 1.017-3.656 1.576-6.195 1.789-7.972.95-1.002-.459-2.488-.394-3.348.49-.863.889-.526 1.839-4.447 1.839-3.917 0-17.25.209-24.838 1.521 2.801 3.172 6.866 3.742 8.225 4.517Z"/><path fill="#949492" stroke="#000" stroke-width=".335" d="M256.323 282.098c3.485 2.786 38.494-.384 40.33-1.301 1.824-.921 3.401-1.674 7.451-1.919 4.481-.264 8.029-.788 11.512-4.248 4.082-2.85-3.929-7.634-9.286-7.091-1.61.163-3.141.136-4.84-.39-.88-.272-10.374-1.887-21.124-1.608-10.084.261-21.424 2.351-23.338 4.025-.317.286-3.347 1.335-3.687 1.634-2.469 2.171-1.776 3.647.756 7.64.737 1.153 1.175 2.418 2.226 3.258Z"/><path fill="#000" fill-rule="evenodd" stroke="#000" stroke-linecap="round" stroke-linejoin="round" stroke-miterlimit="6.3" stroke-width=".329" d="m324.476 293.554.327 2.976.238 2.5-2.768 1.369.268-6.22zm11.071-.03-.327 2.976-.238 2.5 2.768 1.369-.268-6.22z" clip-rule="evenodd"/><path fill="#efae0e" fill-rule="evenodd" stroke="#000" stroke-linecap="round" stroke-linejoin="round" stroke-miterlimit="6.3" stroke-width=".329" d="m267.918 245.38.631 3.83 117.556 8.46 31.564 2.372.042-1.179-27.011-2.654z" clip-rule="evenodd"/><path stroke="#000" stroke-width=".494" d="M280.65 160.658c-.047-1.004 1.044-2.171 2.049-2.212 1.061-.044 2.251 1.094 2.35 2.151.092.992-.801 2.293-1.792 2.392-1.16.115-2.552-1.166-2.607-2.331Zm-8.371-10.232c-.048-1.005 1.044-2.172 2.049-2.215 1.062-.045 2.258 1.089 2.358 2.148.094.994-.806 2.298-1.8 2.396-1.16.115-2.552-1.165-2.607-2.329Zm-10.473 34.114c-.456-.897.059-2.412.959-2.864.947-.476 2.499.067 3.022.988.493.87.206 2.429-.662 2.927-1.006.578-2.793-.017-3.319-1.051Zm-10.994-4.748c-.457-.897.059-2.412.958-2.864.947-.476 2.499.067 3.022.988.494.87.206 2.429-.661 2.927-1.007.578-2.793-.017-3.319-1.051Zm-10.358 31.964c-.456-.897.06-2.412.959-2.864.947-.476 2.499.067 3.022.988.494.87.206 2.429-.661 2.927-1.007.578-2.793-.016-3.32-1.051Zm13.572 32.381c-.457-.897.059-2.412.959-2.864.946-.476 2.498.067 3.021.988.494.87.207 2.429-.661 2.927-1.007.578-2.793-.017-3.319-1.051Zm-10.774 3.512c-.456-.897.059-2.412.959-2.864.947-.476 2.498.067 3.022.988.493.87.206 2.429-.662 2.927-1.006.577-2.793-.017-3.319-1.051Zm23.452 22.678c-.456-.897.06-2.411.959-2.864.947-.476 2.499.067 3.022.989.494.869.206 2.428-.661 2.926-1.007.578-2.794-.016-3.32-1.051Zm-8.809 6.965c-.457-.898.059-2.412.959-2.864.946-.476 2.498.066 3.021.988.494.87.207 2.429-.661 2.927-1.006.577-2.793-.017-3.319-1.051Zm28.273 11.19c-.456-.897.06-2.412.959-2.864.947-.476 2.499.067 3.022.988.494.87.206 2.429-.661 2.927-1.007.578-2.793-.017-3.32-1.051Zm-4.821 10.059c-.456-.897.06-2.411.959-2.863.947-.476 2.498.066 3.022.988.493.87.206 2.429-.661 2.926-1.007.578-2.794-.016-3.32-1.051Zm21.621-161.585c-.048-1.003 1.036-2.171 2.039-2.215 1.062-.046 2.257 1.091 2.356 2.15.093.993-.805 2.295-1.798 2.392-1.157.114-2.541-1.166-2.597-2.327Z"/><path fill="#efae0e" d="M315.883 306.825c.947-2.616 2.542-10.623 1.926-14.104-.008.02-.023.043-.023.059 0-.027.009-.059.014-.09.197-.965.225-2.348.067-2.78-1.466-.081-3.669-.195-6.051-.164 1.98 9.467-1.829 14.781-.435 18.456 1.659 1.771 3.552 1.245 4.502-1.377m8.549-2.899c-.451 1.912-1.879 3.404-3.635 4.362.971 1.333 1.675 1.993 2.48 1.532.748-.426 2.787-2.591 3.798-4.652-1.063-.032-2.034-.406-2.643-1.242"/><path stroke="#000" stroke-width=".329" d="M317.8 292.69c-.005.031-.014.063-.014.09 0-.016.015-.039.023-.059.616 3.481-.979 11.488-1.926 14.104-.95 2.622-2.843 3.148-4.502 1.377-1.394-3.675 2.415-8.989.435-18.456 2.382-.031 4.585.083 6.051.164.158.432.13 1.815-.067 2.78Zm0 0v-.002m6.632 11.238c-.451 1.912-1.879 3.404-3.635 4.362.971 1.333 1.675 1.993 2.48 1.532.748-.426 2.787-2.591 3.798-4.652-1.063-.032-2.034-.406-2.643-1.242Z"/><path fill="#efae0e" stroke="#000" stroke-width=".329" d="M323.867 302.725c-2.245-3.975.823-5.695.645-8.546-.04-.642-.243-1.528-.384-1.892-1.08-2.863-6.873-1.447-6.319.435.617 3.48-.979 11.487-1.919 14.103-.957 2.618-3.147 2.077-4.816.303-.404 4.828 5.639 6.509 9.662 4.304 1.756-.963 3.173-2.449 3.634-4.361a17 17 0 0 0 .32-1.898c.046-.33.079-.665.109-1.014a15 15 0 0 1-.932-1.434ZM335.553 303.926c.451 1.912 1.879 3.404 3.635 4.362-.971 1.333-1.675 1.993-2.48 1.532-.748-.426-2.787-2.591-3.798-4.652 1.063-.032 2.034-.406 2.643-1.242Z"/><path fill="#efae0e" stroke="#000" stroke-width=".329" d="M329.989 294.197c-1.711.049-4.462 1.517-5.221 2.4.089 1.177-1.567 2.2-1.6 3.475-.037 1.466 2.169 5.595 4.213 7.679.703.717 2.455 1.5 2.613 1.5s1.908-.785 2.612-1.5c1.991-2.02 4.127-6.059 4.124-7.442-.003-1.336-1.599-2.545-1.511-3.712-.759-.883-3.51-2.351-5.22-2.4h-.01Z"/><path fill="#efae0e" d="M344.101 306.825c-.946-2.616-2.542-10.623-1.925-14.104.008.02.022.043.022.059 0-.027-.008-.059-.014-.09-.196-.965-.225-2.348-.067-2.78 1.467-.081 3.669-.195 6.052-.164-1.98 9.467 1.828 14.781.435 18.456-1.659 1.771-3.552 1.245-4.503-1.377"/><path stroke="#000" stroke-width=".329" d="M342.184 292.69c.006.031.014.063.014.09 0-.016-.014-.039-.022-.059-.617 3.481.979 11.488 1.925 14.104.951 2.622 2.844 3.148 4.503 1.377 1.393-3.675-2.415-8.989-.435-18.456-2.383-.031-4.585.083-6.052.164-.158.432-.129 1.815.067 2.78Zm0 0v-.002"/><path fill="#efae0e" stroke="#000" stroke-width=".329" d="M336.118 302.725c2.245-3.975-.824-5.695-.645-8.546.04-.642.242-1.528.384-1.892 1.08-2.863 6.872-1.447 6.318.435-.617 3.48.979 11.487 1.919 14.103.957 2.618 3.148 2.077 4.816.303.405 4.828-5.638 6.509-9.661 4.304-1.756-.963-3.174-2.449-3.635-4.361a16 16 0 0 1-.319-1.898c-.047-.33-.079-.665-.11-1.014.36-.484.657-.961.933-1.434Z"/><path fill="#3f863f" stroke="#000" stroke-width=".329" d="M318.408 145.15c2.24-1.826 4.869-3.519 6.573-4.435-2.759-1.698-5.646-1.829-8.536-1.829 1.963-1.045 3.941-4.042 4.071-6.393-3.415-.523-8.272 1.695-9.845 4.307-.995 1.628-4.526 5.291-6.839 7.327.628-1.509 1.658-3.408 1.658-5.051 0-.682-.685-.881-.886-.066-.832 3.293-4.526 6.181-7.864 7.319-4.619 1.576-9.38 3.838-14.052 6.744-.684-.551-.857-1.191-.839-1.725.081-1.31 1.858-1.859 3.942-1.954 3.433-.149 15.136-7.097 13.242-13.347-1.346 2.731-4.638 3.544-9.139 3.948-5.663.523-10.436 5.616-9.246 11.29.292 1.387.424 2.174.394 2.85a72 72 0 0 0-5.223 3.774c.224-1.909.242-4.325-.203-5.679-.29-.912-1.311-2.006-.968-.097.276 1.538-.473 5.517-1.864 8.334-5.052 4.485-9.673 9.858-13.452 16.078-.648-.248-1.005-.682-1.169-1.114-.473-1.217.893-2.458 2.742-3.417 2.799-3.486 10.741-12.747 6.394-17.631-.073 3.031-2.717 5.146-6.623 7.388-4.924 2.835-7.108 9.448-3.638 14.098.714.953 1.147 1.568 1.417 2.113-.94 1.634-1.799 3.347-2.623 5.091-.589-1.61-1.405-3.327-2.232-4.214-.647-.71-2.024-1.293-.923.309.763 1.108 1.59 4.174 1.743 7.003-2.761 5.86-4.895 13.076-6.052 21.154-.715.018-1.217-.256-1.551-.595-.896-.958-.088-2.617 1.274-4.193 1.067-3.998 4.619-14.958-.649-18.725 1.06 2.844-.603 5.786-3.401 9.307-3.503 4.45-3.066 11.394 1.908 14.429 1.087.664 1.726 1.094 2.193 1.524a86 86 0 0 0-.489 4.859c-1.273-1.423-3.025-3.013-4.317-3.576-.871-.394-2.381-.372-.71.647 1.281.789 3.618 3.79 4.842 6.607-.233 7.05.285 14.528 1.726 22.17a1.9 1.9 0 0 1-1.464-.119c-1.125-.585-1.133-2.256-.658-3.997.804-2.864-2.138-15.184-8.15-16.122 2.032 2.184 1.858 5.202.997 9.043-1.078 4.831 2.105 10.757 7.429 12.033.954.226 1.606.399 2.104.591.39 1.924.948 4.093 1.673 6.432-1.748-.763-3.959-1.477-5.354-1.468-.969.005-2.323.638-.39.888 1.427.188 4.53 1.795 6.791 3.722 1.96 5.444 4.837 11.581 8.733 17.707-.517.497-1.073.63-1.551.604-1.311-.101-2.515-1.953-2.593-4.019-.097-3.414-6.251-15.047-12.57-13.257 2.721 1.372 3.497 4.661 3.845 9.133.451 5.637 5.505 10.448 11.231 9.335 1.193-.229 1.942-.343 2.562-.353a85 85 0 0 0 3.868 5.372c-1.88-.134-4.148-.071-5.442.395-.909.319-1.969 1.365-.071.965 1.405-.297 4.865.188 7.647 1.257 3.589 4.242 7.762 8.282 12.548 11.874-.335.422-.751.63-1.137.71-1.3.248-4.106-1.495-4.725-3.479-1.009-3.261-9.572-7.775-15.19-4.395 2.991.612 5.135-.331 6.65 3.893 1.933 5.319 9.119 7.252 13.494 5.148.963-.458 1.611-.755 2.156-.936a69 69 0 0 0 5.665 3.66c-1.64.66-3.415 1.576-4.3 2.446-.688.672-1.217 2.068.351.908 1.02-.763 3.801-1.643 6.504-1.957 6.123 3.233 13.035 5.705 20.805 7.093-.087.68-.45 1.104-.799 1.416-.995.868-3.116.604-4.653-.792-3.004-1.719-15.868-5.394-18.978.349 2.885-.982 6.398-.065 9.862 2.81 4.37 3.614 11.369 3.379 14.559-1.477.739-1.122 1.267-1.645 1.795-1.979a76 76 0 0 0 4.18.528c.269-1.221.611-2.379.749-3.311a70 70 0 0 1-4.449-.648c.443-1.253 1.162-2.678.561-4.333-1.05-3.055-5.893-7.37-10.656-7.412-3.736-.056-6.95-4.08-9.901-4.391 1.078 1.814 1.755 3.224 2.145 5.154 1.013 5.081 6.663 8.191 13.516 7.632 1.744-.141 3.013 1.632 3.281 3.158-7.037-1.344-14.174-3.786-20.93-7.235-1.74-2.032-2.33-3.925-2.57-5.075-.39-1.757-1.23-2.034-.918.149.152 1.096.451 2.372.859 3.505a79 79 0 0 1-4.77-2.893c.924-1.104 2.544-2.129 2.713-4.142.321-3.212-2.288-9.131-6.605-11.135-3.373-1.588-4.625-6.578-7.182-8.074.226 2.097.254 3.657-.197 5.574-1.201 5.039 2.652 10.2 9.115 12.513 1.872.67 2.14 3.336 1.46 4.793-4.668-3.126-9.009-6.76-12.847-10.871-1.463-3.434-1.151-6.05-.836-7.453.388-1.755-.256-2.356-.889-.247-.451 1.491-.78 3.402-.744 4.921a65 65 0 0 1-4.062-5.44c.954-1.272 3.539-1.578 4.406-3.917 1.161-3.021.213-9.41-3.423-12.479-2.849-2.42-2.721-7.551-4.788-9.668-.347 2.082-.729 3.596-1.669 5.325-2.492 4.551-.146 10.536 5.484 14.461 1.941 1.35.954 4.833-.509 5.525-3.525-5.41-6.283-11.294-8.331-17.383-.228-3.713.938-6.086 1.703-7.301.955-1.527.547-2.306-.765-.53-.814 1.108-1.649 2.563-2.171 3.879a101 101 0 0 1-1.462-5.819c1.245-.316 3.209.15 4.463-1.228 1.873-1.994 2.888-7.62.634-11.626-1.758-3.154-.179-7.308-1.354-9.896-.896 1.566-.9 2.731-2.218 3.76-2.963 3.12-2.656 7.564-.188 14.018 1.139 1.675-.154 3.778-1.49 4.24-2.191-10.625-2.483-21.368-1.208-30.827 1.529-.069 3.511 1.177 5.592.113 2.908-1.443 6.571-6.778 5.984-11.482-.437-3.695 3.147-7.394 3.062-10.341-1.663 1.302-2.985 2.158-4.857 2.795-4.93 1.671-7.283 7.658-5.819 14.332.473 2.153-2.24 3.957-3.846 3.779a88 88 0 0 1 5.15-19.437c2.826-3.138 5.636-3.933 7.159-4.191 1.787-.319 2.093-1.138-.11-.92-1.831.182-4.154.746-5.545 1.55a79 79 0 0 1 3.175-6.355c1.551.329 2.949 2.49 5.426 2.252 3.24-.263 8.637-3.868 9.853-8.451.973-3.59 5.68-5.701 6.711-8.47-2.039.593-3.569.904-5.549.807-5.204-.27-9.628 4.419-10.766 11.155-.387 2.313-3.967 2.937-5.234 1.927 3.48-6.07 7.763-11.573 12.833-15.996 3.756-1.592 6.574-1.171 8.036-.795 1.759.441 2.384-.182.276-.882-1.573-.523-3.643-.936-5.204-.898a83 83 0 0 1 5.651-4.066c1.283.946 1.636 3.493 3.983 4.31 3.048 1.11 9.464.083 12.506-3.571 2.406-2.854 7.568-2.806 9.671-4.892-2.102-.307-3.635-.67-5.379-1.582-4.609-2.412-10.607 0-14.477 5.644-1.322 1.92-4.786 1.023-5.543-.389 6.15-3.923 13.024-7.008 20.142-8.75 4.851-1.188 12.782.716 14.952-1.06Z"/><path fill="#d4212f" d="M280.65 160.658c-.047-1.004 1.044-2.171 2.049-2.212 1.061-.044 2.251 1.094 2.35 2.151.092.992-.801 2.293-1.792 2.392-1.16.115-2.552-1.166-2.607-2.331m-8.371-10.232c-.048-1.005 1.044-2.172 2.049-2.215 1.062-.045 2.258 1.089 2.358 2.148.094.994-.806 2.298-1.8 2.396-1.16.115-2.552-1.165-2.607-2.329m-10.473 34.114c-.456-.897.059-2.412.959-2.864.947-.476 2.499.067 3.022.988.493.87.206 2.429-.662 2.927-1.006.578-2.793-.017-3.319-1.051m-10.994-4.748c-.457-.897.059-2.412.958-2.864.947-.476 2.499.067 3.022.988.494.87.206 2.429-.661 2.927-1.007.578-2.793-.017-3.319-1.051m-10.358 31.964c-.456-.897.06-2.412.959-2.864.947-.476 2.499.067 3.022.988.494.87.206 2.429-.661 2.927-1.007.578-2.793-.016-3.32-1.051m13.572 32.381c-.457-.897.059-2.412.959-2.864.946-.476 2.498.067 3.021.988.494.87.207 2.429-.661 2.927-1.007.578-2.793-.017-3.319-1.051m-10.774 3.512c-.456-.897.059-2.412.959-2.864.947-.476 2.498.067 3.022.988.493.87.206 2.429-.662 2.927-1.006.577-2.793-.017-3.319-1.051m23.452 22.678c-.456-.897.06-2.411.959-2.864.947-.476 2.499.067 3.022.989.494.869.206 2.428-.661 2.926-1.007.578-2.794-.016-3.32-1.051m-8.809 6.965c-.457-.898.059-2.412.959-2.864.946-.476 2.498.066 3.021.988.494.87.207 2.429-.661 2.926-1.006.578-2.793-.016-3.319-1.05m28.273 11.19c-.456-.897.06-2.412.959-2.864.947-.476 2.499.067 3.022.988.494.87.206 2.429-.661 2.927-1.007.578-2.793-.017-3.32-1.051m-4.821 10.059c-.456-.897.06-2.411.959-2.863.947-.476 2.498.066 3.022.988.493.87.206 2.429-.661 2.926-1.007.578-2.794-.016-3.32-1.051m21.621-161.585c-.048-1.003 1.036-2.171 2.039-2.215 1.062-.046 2.257 1.091 2.356 2.15.093.993-.805 2.295-1.798 2.392-1.157.114-2.541-1.166-2.597-2.327"/><path stroke="#000" stroke-width=".494" d="M379.338 160.658c.048-1.004-1.044-2.171-2.048-2.212-1.062-.044-2.252 1.094-2.351 2.151-.092.992.801 2.293 1.792 2.392 1.16.115 2.552-1.166 2.607-2.331Zm8.372-10.232c.047-1.005-1.045-2.172-2.049-2.215-1.063-.045-2.259 1.089-2.359 2.148-.093.994.806 2.298 1.801 2.396 1.159.115 2.551-1.165 2.607-2.329Zm10.472 34.114c.457-.897-.059-2.412-.959-2.864-.946-.476-2.498.067-3.021.988-.494.87-.207 2.429.661 2.927 1.006.578 2.793-.017 3.319-1.051Zm10.995-4.748c.456-.897-.06-2.412-.959-2.864-.947-.476-2.499.067-3.022.988-.494.87-.206 2.429.661 2.927 1.007.578 2.794-.017 3.32-1.051Zm10.357 31.964c.456-.897-.059-2.412-.959-2.864-.947-.476-2.499.067-3.022.988-.494.87-.206 2.429.662 2.927 1.006.578 2.793-.016 3.319-1.051Zm-13.571 32.381c.456-.897-.06-2.412-.959-2.864-.947-.476-2.499.067-3.022.988-.494.87-.206 2.429.661 2.927 1.007.578 2.793-.017 3.32-1.051Zm10.773 3.512c.457-.897-.059-2.412-.959-2.864-.947-.476-2.498.067-3.021.988-.494.87-.207 2.429.661 2.927 1.007.577 2.793-.017 3.319-1.051Zm-23.452 22.678c.456-.897-.06-2.411-.959-2.864-.947-.476-2.499.067-3.022.989-.493.869-.206 2.428.662 2.926 1.006.578 2.793-.016 3.319-1.051Zm8.809 6.965c.457-.898-.059-2.412-.958-2.864-.947-.476-2.499.066-3.022.988-.494.87-.206 2.429.661 2.927 1.007.577 2.793-.017 3.319-1.051Zm-28.273 11.19c.456-.897-.06-2.412-.959-2.864-.947-.476-2.499.067-3.022.988-.494.87-.206 2.429.661 2.927 1.007.578 2.794-.017 3.32-1.051Zm4.821 10.059c.457-.897-.059-2.411-.959-2.863-.946-.476-2.498.066-3.021.988-.494.87-.207 2.429.661 2.926 1.006.578 2.793-.016 3.319-1.051ZM357.02 136.956c.048-1.003-1.036-2.171-2.039-2.215-1.062-.046-2.257 1.091-2.356 2.15-.093.993.805 2.295 1.798 2.392 1.157.114 2.541-1.166 2.597-2.327Z"/><path fill="#3f863f" stroke="#000" stroke-width=".329" d="M341.577 145.15c-2.24-1.826-4.869-3.519-6.573-4.435 2.759-1.698 5.646-1.829 8.536-1.829-1.963-1.045-3.941-4.042-4.071-6.393 3.415-.523 8.272 1.695 9.845 4.307.995 1.628 4.526 5.291 6.839 7.327-.628-1.509-1.657-3.408-1.657-5.051 0-.682.684-.881.885-.066.833 3.293 4.526 6.181 7.864 7.319 4.619 1.576 9.38 3.838 14.052 6.744.684-.551.857-1.191.839-1.725-.081-1.31-1.858-1.859-3.941-1.954-3.434-.149-15.137-7.097-13.243-13.347 1.346 2.731 4.637 3.544 9.139 3.948 5.663.523 10.436 5.616 9.246 11.29-.292 1.387-.424 2.174-.393 2.85a72 72 0 0 1 5.222 3.774c-.224-1.909-.242-4.325.203-5.679.291-.912 1.311-2.006.968-.097-.276 1.538.473 5.517 1.864 8.334 5.052 4.485 9.673 9.858 13.452 16.078.648-.248 1.005-.682 1.17-1.114.473-1.217-.894-2.458-2.743-3.417-2.799-3.486-10.741-12.747-6.394-17.631.073 3.031 2.717 5.146 6.623 7.388 4.924 2.835 7.108 9.448 3.638 14.098-.714.953-1.147 1.568-1.417 2.113.94 1.634 1.799 3.347 2.623 5.091.589-1.61 1.405-3.327 2.232-4.214.647-.71 2.024-1.293.923.309-.763 1.108-1.59 4.174-1.744 7.003 2.762 5.86 4.896 13.076 6.053 21.154.715.018 1.217-.256 1.552-.595.895-.958.087-2.617-1.275-4.193-1.067-3.998-4.619-14.958.649-18.725-1.06 2.844.603 5.786 3.401 9.307 3.503 4.45 3.066 11.394-1.908 14.429-1.087.664-1.726 1.094-2.193 1.524q.313 2.422.489 4.859c1.273-1.423 3.025-3.013 4.317-3.576.871-.394 2.381-.372.71.647-1.281.789-3.618 3.79-4.842 6.607.233 7.05-.284 14.528-1.726 22.17.56.182 1.064.081 1.464-.119 1.125-.585 1.133-2.256.658-3.997-.804-2.864 2.138-15.184 8.15-16.122-2.032 2.184-1.858 5.202-.997 9.043 1.078 4.831-2.105 10.757-7.429 12.033-.955.226-1.606.399-2.104.591-.39 1.924-.948 4.093-1.673 6.432 1.748-.763 3.959-1.477 5.354-1.468.969.005 2.323.638.39.888-1.427.188-4.53 1.795-6.791 3.722-1.96 5.444-4.837 11.581-8.733 17.707.517.497 1.073.63 1.551.604 1.311-.101 2.515-1.953 2.593-4.019.097-3.414 6.251-15.047 12.57-13.257-2.721 1.372-3.497 4.661-3.845 9.133-.451 5.637-5.505 10.448-11.231 9.335-1.193-.229-1.943-.343-2.562-.353a85 85 0 0 1-3.868 5.372c1.88-.134 4.148-.071 5.442.395.91.319 1.969 1.365.071.965-1.405-.297-4.865.188-7.647 1.257-3.589 4.242-7.762 8.282-12.548 11.874.335.422.751.63 1.137.71 1.3.248 4.106-1.495 4.725-3.479 1.009-3.261 9.572-7.775 15.19-4.395-2.991.612-5.135-.331-6.65 3.893-1.933 5.319-9.119 7.252-13.494 5.148-.963-.458-1.611-.755-2.156-.936a69 69 0 0 1-5.665 3.66c1.64.66 3.415 1.576 4.3 2.446.688.672 1.216 2.068-.351.908-1.02-.763-3.801-1.643-6.504-1.957-6.123 3.233-13.035 5.705-20.806 7.093.088.68.451 1.104.8 1.416.995.868 3.116.604 4.653-.792 3.004-1.719 15.868-5.394 18.978.349-2.885-.982-6.398-.065-9.862 2.81-4.37 3.614-11.369 3.379-14.559-1.477-.739-1.122-1.267-1.645-1.794-1.979a76 76 0 0 1-4.181.528c-.268-1.221-.611-2.379-.749-3.311 1.478-.16 2.964-.39 4.449-.648-.443-1.253-1.161-2.678-.561-4.333 1.05-3.055 5.893-7.37 10.656-7.412 3.736-.056 6.95-4.08 9.9-4.391-1.078 1.814-1.754 3.224-2.144 5.154-1.013 5.081-6.663 8.191-13.516 7.632-1.744-.141-3.014 1.632-3.281 3.158 7.037-1.344 14.174-3.786 20.93-7.235 1.74-2.032 2.331-3.925 2.57-5.075.39-1.757 1.231-2.034.918.149a18 18 0 0 1-.859 3.505 79 79 0 0 0 4.77-2.893c-.924-1.104-2.544-2.129-2.713-4.142-.32-3.212 2.288-9.131 6.605-11.135 3.373-1.588 4.625-6.578 7.182-8.074-.226 2.097-.254 3.657.197 5.574 1.201 5.039-2.652 10.2-9.115 12.513-1.872.67-2.14 3.336-1.46 4.793 4.668-3.126 9.009-6.76 12.847-10.871 1.463-3.434 1.151-6.05.836-7.453-.388-1.755.256-2.356.889-.247.451 1.491.78 3.402.744 4.921a65 65 0 0 0 4.062-5.44c-.954-1.272-3.539-1.578-4.406-3.917-1.161-3.021-.213-9.41 3.423-12.479 2.849-2.42 2.721-7.551 4.788-9.668.347 2.082.729 3.596 1.669 5.325 2.492 4.551.146 10.536-5.484 14.461-1.941 1.35-.954 4.833.509 5.525 3.525-5.41 6.283-11.294 8.331-17.383.228-3.713-.938-6.086-1.703-7.301-.955-1.527-.547-2.306.765-.53.814 1.108 1.649 2.563 2.171 3.879a101 101 0 0 0 1.462-5.819c-1.245-.316-3.209.15-4.463-1.228-1.873-1.994-2.888-7.62-.634-11.626 1.758-3.154.179-7.308 1.354-9.896.896 1.566.9 2.731 2.218 3.76 2.963 3.12 2.656 7.564.188 14.018-1.139 1.675.154 3.778 1.49 4.24 2.191-10.625 2.483-21.368 1.208-30.827-1.529-.069-3.511 1.177-5.592.113-2.908-1.443-6.571-6.778-5.984-11.482.437-3.695-3.147-7.394-3.062-10.341 1.663 1.302 2.985 2.158 4.857 2.795 4.93 1.671 7.283 7.658 5.819 14.332-.473 2.153 2.24 3.957 3.846 3.779a88 88 0 0 0-5.15-19.437c-2.826-3.138-5.636-3.933-7.159-4.191-1.787-.319-2.093-1.138.11-.92 1.831.182 4.154.746 5.545 1.55a79 79 0 0 0-3.175-6.355c-1.551.329-2.948 2.49-5.426 2.252-3.24-.263-8.637-3.868-9.854-8.451-.972-3.59-5.679-5.701-6.71-8.47 2.039.593 3.569.904 5.549.807 5.204-.27 9.628 4.419 10.766 11.155.388 2.313 3.967 2.937 5.234 1.927-3.48-6.07-7.763-11.573-12.833-15.996-3.756-1.592-6.574-1.171-8.036-.795-1.758.441-2.384-.182-.276-.882 1.573-.523 3.643-.936 5.204-.898a83 83 0 0 0-5.651-4.066c-1.283.946-1.636 3.493-3.983 4.31-3.048 1.11-9.464.083-12.506-3.571-2.406-2.854-7.568-2.806-9.671-4.892 2.102-.307 3.635-.67 5.379-1.582 4.609-2.412 10.607 0 14.477 5.644 1.322 1.92 4.786 1.023 5.543-.389-6.15-3.923-13.024-7.008-20.142-8.75-4.85-1.188-12.782.716-14.952-1.06Z"/><path fill="#d4212f" d="M379.338 160.658c.048-1.004-1.044-2.171-2.048-2.212-1.062-.044-2.252 1.094-2.351 2.151-.092.992.801 2.293 1.792 2.392 1.16.115 2.552-1.166 2.607-2.331m8.372-10.232c.047-1.005-1.045-2.172-2.049-2.215-1.063-.045-2.259 1.089-2.359 2.148-.093.994.806 2.298 1.801 2.396 1.159.115 2.551-1.165 2.607-2.329m10.472 34.114c.457-.897-.059-2.412-.959-2.864-.946-.476-2.498.067-3.021.988-.494.87-.207 2.429.661 2.927 1.006.578 2.793-.017 3.319-1.051m10.995-4.748c.456-.897-.06-2.412-.959-2.864-.947-.476-2.499.067-3.022.988-.494.87-.206 2.429.661 2.927 1.007.578 2.794-.017 3.32-1.051m10.357 31.964c.456-.897-.059-2.412-.959-2.864-.947-.476-2.499.067-3.022.988-.494.87-.206 2.429.662 2.927 1.006.578 2.793-.016 3.319-1.051m-13.571 32.381c.456-.897-.06-2.412-.959-2.864-.947-.476-2.499.067-3.022.988-.494.87-.206 2.429.661 2.927 1.007.578 2.793-.017 3.32-1.051m10.773 3.512c.457-.897-.059-2.412-.959-2.864-.947-.476-2.498.067-3.021.988-.494.87-.207 2.429.661 2.927 1.007.577 2.793-.017 3.319-1.051m-23.452 22.678c.456-.897-.06-2.411-.959-2.864-.947-.476-2.499.067-3.022.989-.493.869-.206 2.428.662 2.926 1.006.578 2.793-.016 3.319-1.051m8.809 6.965c.457-.898-.059-2.412-.958-2.864-.947-.476-2.499.066-3.022.988-.494.87-.206 2.429.661 2.926 1.007.578 2.793-.016 3.319-1.05m-28.273 11.19c.456-.897-.06-2.412-.959-2.864-.947-.476-2.499.067-3.022.988-.494.87-.206 2.429.661 2.927 1.007.578 2.794-.017 3.32-1.051m4.821 10.059c.457-.897-.059-2.411-.959-2.863-.946-.476-2.498.066-3.021.988-.494.87-.207 2.429.661 2.926 1.006.578 2.793-.016 3.319-1.051M357.02 136.956c.048-1.003-1.036-2.171-2.039-2.215-1.062-.046-2.257 1.091-2.356 2.15-.093.993.805 2.295 1.798 2.392 1.157.114 2.541-1.166 2.597-2.327"/><path fill="#d4212f" fill-rule="evenodd" stroke="#000" stroke-miterlimit="6.3" stroke-width=".329" d="M353.358 160.526s-.969.328-1.473.379c-1.091.11-2.215.073-3.283-.168-1.215-.275-2.294-.973-3.452-1.431-2.593-1.026-5.186-2.056-7.828-2.947-2.692-.907-5.351-2.057-8.166-2.441-1.418-.193-2.876-.119-4.293.084-.95.137-1.898.373-2.778.758-.727.318-1.566.611-2.02 1.263-.393.564-.481 1.335-.421 2.02.05.565.293 1.124.631 1.578.284.381.704.649 1.116.884.32.183.823.096 1.031.4a.47.47 0 0 1 0 .484c-.117.183-.384.204-.589.274-.49.166-1.014.209-1.515.336-1.783.453-3.635.744-5.304 1.516-.734.339-1.502.724-2.02 1.347-.273.328-.407.762-.505 1.178-.11.465.022.965-.084 1.431-.115.503-.265 1.03-.59 1.431-.406.502-1.039.773-1.599 1.094-.498.286-1.006.576-1.557.737-.428.125-.95-.045-1.326.168-.35.199.684.15 1.031.19.614.07 1.236.039 1.852.084.563.041 1.125.247 1.684.168.598-.084 1.219-.287 1.683-.673.485-.403.802-1.004 1.01-1.6.168-.479-.04-1.052.169-1.515.171-.38.487-.707.842-.926 1.413-.873 3.206-.872 4.798-1.347 1.071-.319 2.257-.407 3.198-1.01.352-.225.635-.564.842-.926.234-.408.393-.877.421-1.347a2.8 2.8 0 0 0-.252-1.347c-.224-.466-.734-.741-1.011-1.178-.147-.234-.441-.502-.336-.758.301-.731 1.43-.732 2.209-.862 1.219-.205 2.479-.014 3.704.147 1.59.208 3.163.575 4.693 1.052 1.503.468 2.958 1.088 4.378 1.768 1.246.596 2.486 1.23 3.619 2.02.849.592 1.514 1.421 2.357 2.021.821.582 1.664 1.174 2.61 1.515 1.124.404 2.345.49 3.535.589.783.065 2.357 0 2.357 0h.106z" clip-rule="evenodd"/><path fill="#fff" fill-rule="evenodd" d="m341.382 157.854-1.894 3.619 1.368.737 1.663-3.872zm1.6.694-1.747 3.935 1.494.968 1.536-4.482zM344.919 159.306l-1.62 4.524 1.346 1.2 1.495-5.219zm-11.701-.653s.192-.175.211-.294c.031-.204-.06-.429-.19-.59-.366-.451-.977-.642-1.515-.862a12 12 0 0 0-2.862-.758 10.6 10.6 0 0 0-2.483-.063 8.4 8.4 0 0 0-1.684.358c-.463.142-.959.256-1.347.547-.244.182-.464.429-.568.715-.082.225-.068.482-.021.716.05.249.197.469.316.694.233.443.615.811.778 1.284.136.394.254.839.147 1.242-.117.446-.488.795-.82 1.115a3.7 3.7 0 0 1-.989.673c-.979.465-2.076.622-3.115.927-.897.262-1.822.441-2.694.778-.728.282-1.539.492-2.104 1.031-.232.221-.336.548-.463.842-.163.379-.379 1.179-.379 1.179s-.102.909-.337 1.283a2.06 2.06 0 0 1-.862.737c-.361.171-.787.134-1.179.21-.732.143-1.479.233-2.189.463-.131.043-.505.169-.378.169.126 0 1.555.165 2.336.21.56.032 1.132.15 1.683.042.413-.081.836-.233 1.157-.505.489-.411.828-1.002 1.053-1.599.216-.577-.017-1.277.252-1.831.137-.281.387-.51.653-.674 1.239-.763 2.782-.857 4.167-1.304 1.308-.423 2.711-.639 3.914-1.305.27-.15.536-.338.715-.589.314-.439.498-.981.569-1.516a1.95 1.95 0 0 0-.085-.884c-.123-.354-.372-.656-.61-.946-.179-.219-.447-.359-.61-.59-.156-.22-.366-.468-.337-.736.03-.279.265-.528.505-.674.639-.386 1.464-.328 2.21-.358 1.28-.05 2.562.132 3.83.316 1.085.158 3.22.674 3.22.674z" clip-rule="evenodd"/><path fill="#002a86" fill-rule="evenodd" d="m346.937 160.463-.757 5.535s1.136.716 1.304.737 2.799.168 2.799.168l2.715.021.274-6.377-1.452.379s-2.189 0-2.315-.021c-.127-.021-1.873-.421-1.873-.421l-.653-.273z" clip-rule="evenodd"/><path fill="#fff" fill-rule="evenodd" d="m339.532 157.327-1.683 3.241 1.22.632 1.6-3.557zm-3.683-1.346-1.599 3.198 1.347.568 1.431-3.325zm1.747.61-1.599 3.241 1.346.589 1.453-3.43-1.2-.463z" clip-rule="evenodd"/><path fill="#fff" d="M351.967 162.189a.19.19 0 1 0 0-.38.19.19 0 0 0 0 .38M350.475 162.105a.19.19 0 0 0 .189-.19.19.19 0 0 0-.189-.189.19.19 0 1 0 0 .379M349.252 162a.19.19 0 1 0 0-.38.19.19 0 0 0 0 .38M347.85 161.575a.19.19 0 0 0 0-.379.19.19 0 1 0 0 .379M347.701 162.565a.19.19 0 1 0 0-.38.19.19 0 0 0 0 .38M349.065 163.031a.19.19 0 1 0-.001-.38.19.19 0 0 0 .001.38M350.287 163.142a.19.19 0 1 0 0-.38.19.19 0 0 0 0 .38M351.737 163.262a.19.19 0 1 0-.001-.379.19.19 0 0 0 .001.379M351.569 164.23a.19.19 0 1 0-.001-.379.19.19 0 0 0 .001.379M350.162 164.278a.19.19 0 1 0 0-.379.19.19 0 0 0 0 .379M348.916 164.125a.19.19 0 1 0 0-.38.19.19 0 0 0 0 .38M347.53 163.62a.19.19 0 1 0-.001-.38.19.19 0 0 0 .001.38M347.334 164.693a.19.19 0 1 0 0-.38.19.19 0 0 0 0 .38M348.733 165.121a.19.19 0 1 0-.001-.38.19.19 0 0 0 .001.38M350.014 165.228a.19.19 0 1 0 0-.38.19.19 0 0 0 0 .38M351.381 165.304a.19.19 0 1 0 0-.38.19.19 0 0 0 0 .38M351.252 166.44a.19.19 0 1 0 0-.38.19.19 0 0 0 0 .38M349.717 166.314a.19.19 0 1 0 0-.38.19.19 0 0 0 0 .38M348.49 166.131a.19.19 0 1 0 0-.38.19.19 0 0 0 0 .38M347.088 165.746a.19.19 0 1 0 0-.38.19.19 0 0 0 0 .38"/><path stroke="#000" stroke-miterlimit="6.3" stroke-width=".329" d="M353.337 160.463s-.95.38-1.452.442a9.7 9.7 0 0 1-3.283-.168c-1.215-.275-2.294-.973-3.452-1.431-2.593-1.026-5.186-2.056-7.828-2.947-2.692-.907-5.351-2.057-8.166-2.441-1.418-.193-2.876-.119-4.293.084-.95.137-1.898.373-2.778.758-.727.318-1.566.611-2.02 1.263-.393.564-.505 1.337-.421 2.02.081.657.425 1.292.863 1.789.298.338.738.523 1.136.736.25.134.624.101.779.337a.48.48 0 0 1 0 .484c-.117.183-.384.204-.589.274-.49.166-1.014.209-1.515.336-1.783.453-3.635.744-5.304 1.516-.734.339-1.502.724-2.02 1.347-.273.328-.407.762-.505 1.178-.11.465.022.965-.084 1.431-.115.503-.265 1.03-.59 1.431-.406.502-1.039.773-1.599 1.094-.498.286-1.006.576-1.557.737-.428.125-.95-.045-1.326.168-.35.199.684.15 1.031.19.614.07 1.236.039 1.852.084.563.041 1.125.247 1.684.168.598-.084 1.219-.287 1.683-.673.485-.403.802-1.004 1.01-1.6.168-.479-.04-1.052.169-1.515.171-.38.487-.707.842-.926 1.413-.873 3.206-.872 4.798-1.347 1.071-.319 2.257-.407 3.198-1.01.352-.225.635-.564.842-.926.234-.408.393-.877.421-1.347a2.8 2.8 0 0 0-.252-1.347c-.224-.466-.734-.741-1.011-1.178-.147-.234-.441-.502-.336-.758.301-.731 1.43-.732 2.209-.862 1.219-.205 2.479-.014 3.704.147 1.59.208 3.163.575 4.693 1.052 1.503.468 2.958 1.088 4.378 1.768 1.246.596 2.486 1.23 3.619 2.02.849.592 1.514 1.421 2.357 2.021.821.582 1.664 1.174 2.61 1.515 1.124.404 2.345.49 3.535.589.783.065 2.357 0 2.357 0l.169.042z" clip-rule="evenodd"/><path fill="#fefdfe" fill-rule="evenodd" d="M398.673 205.725s-3.005-.524-4.524-.565c-1.839-.05-3.711-.016-5.506.387-.748.168-1.466.473-2.143.833-.384.204-.674.569-1.071.744-.41.181-.877.186-1.31.298-.55.142-1.127.226-1.637.476-.363.178-.619.535-.982.714-.622.308-1.328.401-1.994.596-.624.182-1.233.432-1.875.535-.245.04-.744.03-.744.03s-1.468 1.279-1.548 3.274c-.066 1.65-1.026 3.09-.833 4.762 1.169.35 2.306-.223 3.393-.596.722-.247 1.314-.79 2.024-1.071.908-.36 1.931-.384 2.827-.774.78-.339 1.369-1.06 2.173-1.339 1.047-.364 2.195-.372 3.303-.387 1.673-.023 3.347.19 5 .446.723.113 2.143.477 2.143.477z" clip-rule="evenodd"/><path fill="#d4212f" fill-rule="evenodd" d="M392.514 204.89c-1.247-.012-2.527.042-3.769.337a7.7 7.7 0 0 0-1.96.776c-.554.31-.882.769-1.257.941-.788.363-1.84.27-2.863.645-.853.313-1.536.852-2.252 1.169-.437.193-.841.427-1.282.566-.699.22-1.386.383-1.93.448l-.315.001c-.204.185-.333.349-.472.514l.637-.006c.656-.032 1.496-.203 2.213-.399a10 10 0 0 0 1.416-.522c.818-.362 1.49-.888 2.212-1.153.831-.304 1.907-.202 2.911-.665.592-.272.928-.755 1.303-.963a7 7 0 0 1 1.791-.712c1.16-.275 2.388-.331 3.611-.318.974.01 2.282.123 3.415.259.566.068 1.089.141 1.505.209.417.068.535-.58.107-.65a40 40 0 0 0-1.534-.213c-1.148-.138-2.468-.253-3.487-.264" clip-rule="evenodd"/><path fill="#d4212f" fill-rule="evenodd" d="M392.027 206.239c-1.247-.012-2.527.042-3.77.337a7.7 7.7 0 0 0-1.959.777c-.554.309-.883.768-1.257.941-.789.362-1.841.27-2.863.644-.853.313-1.536.852-2.252 1.169-.441.195-.877.376-1.316.488-.78.197-2.64.345-2.64.345-.134.219-.218.436-.318.654 0 0 2.266-.145 3.119-.361.504-.127.973-.325 1.422-.524.818-.362 1.49-.888 2.212-1.153.831-.304 1.907-.202 2.911-.665.592-.272.928-.755 1.303-.963a7 7 0 0 1 1.79-.712c1.161-.275 2.388-.331 3.612-.318.974.01 2.282.123 3.415.259.566.068 1.089.142 1.505.21.417.068 1.047-.457 1.047-.457-.2-.064-.512-.124-.941-.194a40 40 0 0 0-1.533-.213c-1.149-.137-2.468-.253-3.487-.264" clip-rule="evenodd"/><path fill="#d4212f" fill-rule="evenodd" d="M391.522 207.638c-1.246-.012-2.527.042-3.769.337a7.7 7.7 0 0 0-1.96.777c-.554.309-.882.768-1.257.94-.788.363-1.84.27-2.862.645-.853.313-1.536.852-2.252 1.169a9 9 0 0 1-1.32.488c-.758.199-2.683.392-2.683.392-.044.18-.065.418-.079.661 0 0 2.113-.202 2.929-.416a9.4 9.4 0 0 0 1.419-.523c.818-.362 1.491-.888 2.212-1.153.831-.304 1.907-.202 2.912-.665.591-.272.928-.755 1.302-.963a7 7 0 0 1 1.791-.711c1.161-.276 2.388-.332 3.611-.319.974.01 2.282.123 3.415.259.566.068 1.089.141 1.506.209.416.068.534-.58.106-.65a40 40 0 0 0-1.534-.213c-1.148-.137-2.467-.253-3.487-.264" clip-rule="evenodd"/><path fill="#d4212f" fill-rule="evenodd" d="M390.928 209.156c-1.247-.012-2.527.041-3.77.337a7.7 7.7 0 0 0-1.959.776c-.555.31-.883.769-1.257.941-.789.363-1.841.27-2.863.645-.853.313-1.536.852-2.252 1.169-.444.196-.877.384-1.311.486-.681.159-2.256.268-2.256.268l-.147.65s1.777-.095 2.553-.277c.514-.12.982-.328 1.428-.525.817-.362 1.49-.888 2.212-1.153.831-.304 1.907-.202 2.911-.665.591-.272.928-.755 1.303-.964a7 7 0 0 1 1.79-.711c1.161-.276 2.388-.331 3.611-.318.975.01 2.258.092 3.391.228.566.068 1.114.172 1.53.24.417.068.845.095.949.129l.098-.585c-.2-.065-.512-.124-.941-.194a40 40 0 0 0-1.533-.213c-1.149-.138-2.468-.253-3.487-.264" clip-rule="evenodd"/><path fill="#d4212f" fill-rule="evenodd" d="M390.36 210.406c-1.247-.013-2.527.041-3.77.336a7.7 7.7 0 0 0-1.959.777c-.554.309-.883.768-1.257.941-.789.363-1.84.27-2.862.645-.853.312-1.537.852-2.253 1.169-.443.196-.877.381-1.313.486-.612.148-2.023.268-2.023.268l-.169.621.292-.001c.616-.031 1.365-.081 2.055-.247.509-.123.978-.328 1.425-.525.817-.362 1.49-.888 2.212-1.153.831-.305 1.907-.203 2.911-.665.592-.272.928-.755 1.303-.964a7 7 0 0 1 1.79-.711c1.161-.275 2.388-.331 3.611-.318.975.009 2.283.123 3.416.259.566.067 1.089.141 1.505.209.417.068.74.137.845.17l.279.105.236-.631-.313-.1c-.2-.064-.512-.124-.941-.194a38 38 0 0 0-1.533-.213c-1.149-.138-2.468-.254-3.487-.264" clip-rule="evenodd"/><path fill="#d4212f" fill-rule="evenodd" d="M389.914 211.716c-1.247-.013-2.527.041-3.77.336a7.7 7.7 0 0 0-1.959.777c-.554.309-.882.768-1.257.941-.789.363-1.841.27-2.863.644-.853.313-1.536.852-2.252 1.169-.443.197-.877.383-1.312.487-.555.132-1.889.171-1.889.171a6 6 0 0 0-.108.658s1.52-.038 2.15-.188c.511-.122.98-.328 1.426-.526.818-.362 1.49-.888 2.212-1.152.831-.305 1.907-.203 2.911-.665.592-.272.928-.755 1.303-.964a7 7 0 0 1 1.791-.711c1.16-.276 2.387-.331 3.611-.319.974.01 2.282.124 3.415.259.566.068 1.089.142 1.505.21.417.068 1.099.228 1.099.228l.227-.607s-.791-.201-1.22-.271a36 36 0 0 0-1.533-.213c-1.148-.138-2.468-.254-3.487-.264" clip-rule="evenodd"/><path fill="#d4212f" fill-rule="evenodd" d="M389.319 213.144c-1.247-.012-2.528.042-3.77.337a7.7 7.7 0 0 0-1.959.777c-.555.309-.883.768-1.257.94-.789.363-1.841.27-2.863.645-.872.319-1.52.92-2.224 1.158-.774.261-1.918.401-2.5.43l-.265.005-.032.668.329-.016c.64-.031 1.792-.165 2.678-.463s1.538-.906 2.241-1.164c.831-.304 1.907-.202 2.911-.665.591-.272.928-.755 1.302-.964a7 7 0 0 1 1.791-.711c1.161-.275 2.388-.331 3.611-.318.975.01 2.283.123 3.415.259.567.068 1.105.165 1.521.233s1.12.27 1.12.27l.252-.674s-.852-.2-1.281-.27a38 38 0 0 0-1.534-.213c-1.148-.138-2.467-.253-3.486-.264" clip-rule="evenodd"/><path fill="#002868" d="M398.671 205.726s-.616-.288-.943-.372c-.947-.243-1.934-.298-2.908-.374-1.06-.082-3.188-.085-3.188-.085s-.641 1.488-.856 2.265c-.241.87-.483 2.664-.483 2.664s2.461.045 3.682.182c.977.11 2.905.51 2.905.51z"/><path fill="#fff" fill-opacity=".994" d="m394.102 205.308-.051.248-.267.03.235.123-.051.248.196-.173.236.123-.114-.229.197-.172-.267.031zm1.048.118-.167.197-.252-.089.147.211-.168.197.26-.067.148.211.012-.252.26-.067-.252-.089zm-2.035.234.078.242-.222.144.269.006.078.242.089-.239.268.006-.213-.153.088-.238-.221.144zm2.48.24.027.251-.247.102.263.054.026.251.136-.218.263.054-.178-.189.136-.217-.247.101zm-2.789.321-.125.224-.265-.042.188.18-.125.224.242-.112.188.18-.04-.249.242-.112-.266-.043zm3.373.381-.101.234-.268-.018.206.162-.102.234.229-.133.206.162-.065-.245.229-.134-.269-.018zm-3.759.433v.252l-.256.079.256.077v.253l.158-.205.256.078-.159-.204.158-.205-.256.079zm3.929.442-.205.163-.229-.133.102.234-.206.163.269-.018.102.233.064-.245.268-.018-.229-.134zm-3.439.377-.188.181-.241-.112.125.223-.187.181.265-.042.125.223.039-.25.265-.043-.241-.111zm2.756.31-.025.252-.263.054.247.101-.026.251.179-.189.246.1-.136-.217.178-.189-.263.055zm-2.346.271-.076.242-.269.006.221.143-.076.242.213-.153.222.143-.089-.238.213-.154-.269.007zm1.801.202-.147.212-.26-.066.169.196-.147.212.251-.09.169.197-.013-.253.251-.09-.259-.065zm-1.149.133.052.248-.235.123.267.029.052.248.113-.229.267.03-.197-.171.113-.23-.235.123z"/><path stroke="#000" stroke-linecap="round" stroke-linejoin="round" stroke-miterlimit="6.3" stroke-width=".285" d="M392.515 204.89q-.402-.003-.803.005h-.079v.001c-.964.021-1.937.105-2.888.331a7.7 7.7 0 0 0-1.959.776c-.555.31-.883.769-1.257.941-.789.363-1.841.27-2.863.645-.853.313-1.536.852-2.252 1.169-.437.193-.842.427-1.282.566-.698.22-1.382.382-1.925.448h-.023l-.297.001a3 3 0 0 0-.216.216l-.025.027c-.082.091-.154.179-.228.267l-.003.004a5 5 0 0 0-.443.653h-.002q-.059.098-.107.195-.038.076-.073.151a5 5 0 0 0-.107.24l-.031.069.003-.001a4.5 4.5 0 0 0-.236.792h-.002c-.044.18-.065.418-.079.661-.014.37-.078.729-.16 1.083l-.039.176q-.093.362-.199.72l-.017.002-.169.621h.009q-.082.294-.146.591l-.006.001a5.668 5.668 0 0 0-.107.653v.005a5 5 0 0 0-.022.537h-.001l-.032.668.329-.016c.64-.031 1.792-.165 2.678-.463s1.538-.906 2.241-1.164c.831-.304 1.907-.202 2.911-.665.591-.272.928-.755 1.302-.963a7 7 0 0 1 1.791-.712c1.161-.275 2.388-.331 3.611-.318.975.01 2.283.123 3.415.259.555.067 1.08.16 1.492.228a53 53 0 0 1 1.149.275l.252-.674.307-.82.226-.607.245-.656.236-.63.247-.662 1.79-4.79s-.615-.288-.942-.372c-.947-.243-1.934-.298-2.909-.374-.387-.03-.912-.047-1.43-.059a20 20 0 0 0-.876-.031z" clip-rule="evenodd"/><path fill="#fefdfe" fill-rule="evenodd" d="M393.978 227.449a1 1 0 0 0-.148.001s-2.55.428-3.83.61a139 139 0 0 1-5.177.652 92 92 0 0 1-4.798.4c-1.689.088-3.381.105-5.072.106-.351 0-1.052-.021-1.052-.021-.695.095-.459.737.042.799 0 0 2.609.148 3.914.127 1.828-.03 3.65-.216 5.472-.358 1.622-.127 3.246-.244 4.861-.442 1.543-.19 3.08-.434 4.609-.716.43-.079 1.284-.273 1.284-.273.486-.088.583-.841-.105-.885m-108.634 5.586a.8.8 0 0 0-.21.013c-.129.027-.269.097-.337.21-.101.169-.129.413-.042.589.134.273.481.382.758.506 4.471 1.988 9.425 2.672 14.226 3.619 6.492 1.281 13.092 1.938 19.656 2.778 2.689.344 5.381.678 8.081.926 5.462.502 10.941.798 16.415 1.136 3.085.191 6.17.406 9.26.505 5.749.185 11.505.301 17.256.169 3.288-.075 6.569-.319 9.849-.547 1.011-.07 3.031-.253 3.031-.253l-.127-.757s-7.491.208-11.238.21c-5.5.003-11.001-.115-16.499-.294a322 322 0 0 1-8.838-.421c-5.743-.348-11.49-.688-17.215-1.263-6.614-.664-13.21-1.526-19.782-2.526-3.747-.569-7.469-1.289-11.196-1.978-3.639-.672-7.288-1.304-10.901-2.104-.508-.113-1.005-.277-1.515-.379-.209-.042-.422-.124-.633-.139zm105.256 2.801c.282-.023.576-.926-.158-.758-2.547.411-5.141.155-7.713.241-.766-.006-.355.667-.115.644 2.511.027 5.138.103 7.986-.127" clip-rule="evenodd"/><path fill="#efae0e" fill-rule="evenodd" d="m274.811 223.526-.106.806 1.675.474.152-.934zm2.652.631-.106.806 1.675.474.152-.934zm3.026.885-.106.806 1.675.474.153-.934zm-6.52.63-.106 1.071 1.675.63.153-1.241zm3.207 3.082s.919 1.08 1.473 1.515c1.127.887 2.454 1.485 3.704 2.188.388.219.733.634 1.178.632a.61.61 0 0 0 .463-.252.9.9 0 0 0 .127-.716c-.067-.261-.276-.49-.505-.631-.232-.143-.54-.088-.8-.169-.552-.173-1.071-.438-1.599-.673-1.36-.605-4.041-1.894-4.041-1.894m112.614 3.035c-.195.003-.411.205-.466.391-.205.7-.521 1.261-.715 1.894-.073.237-.023.629.21.716.267.098.636-.191.716-.464.214-.731.422-1.071.631-1.725.087-.271-.023-.714-.294-.8a.3.3 0 0 0-.082-.011zm-4.61.026c-.195.002-.411.204-.465.39-.205.7-.522 1.262-.716 1.894-.073.238-.022.629.211.716.266.098.635-.191.715-.463.214-.732.422-1.071.632-1.726.086-.271-.024-.714-.295-.8a.3.3 0 0 0-.082-.011m2.253.058c-.195.003-.411.205-.465.391-.206.7-.522 1.262-.716 1.894-.073.238-.023.629.21.715.267.099.636-.19.716-.462.214-.732.422-1.071.631-1.726.087-.271-.024-.714-.294-.8a.3.3 0 0 0-.082-.012" clip-rule="evenodd"/><path stroke="#efae0e" stroke-linecap="round" stroke-linejoin="round" stroke-miterlimit="6.3" stroke-width=".757" d="m391.365 231.068-7.408.043m-109.895-10.312-.042 4.461.42.295 9.555 2.483.168-1.136-.168-.674-.674-.589v-2.231l-1.262-.294-.295.884-2.146-.548-.337-1.347-1.095-.126-.168.926-2.231-.673-.252-1.221z"/><path fill="#d4212f" fill-rule="evenodd" stroke="#000" stroke-linecap="round" stroke-linejoin="round" stroke-miterlimit="6.3" stroke-width=".329" d="m286.603 238.814-4.587.042 5.05 7.197 3.578-.084zm2.905.253c-.249.92.925 1.959 1.978 2.988 0 0 23.967 1.689 35.944 2.609 15.579 1.197 46.72 3.789 46.72 3.789l-.506-1.642s-31.497-3.28-47.266-4.714c-12.281-1.117-36.87-3.03-36.87-3.03m89.3 7.406c-.282.018-.579.354-.576.633.005.426.51.79.926.884 1.792.403 4.925.547 4.925.547l.168-1.431s-3.637-.467-5.387-.632q-.028-.002-.056-.001m.687 2.737c-.377-.017-.786.384-.842.758-.036.242.139.58.379.631 1.713.368 4.293.547 4.293.547l.379-1.515s-2.785-.355-4.209-.421m.295 2.568c-.278-.009-.573.311-.589.589-.016.249.215.553.462.589.973.143 2.736.252 2.736.252l.421-1.178s-2.036-.222-3.03-.252" clip-rule="evenodd"/><path fill="#efae0e" fill-rule="evenodd" d="m297.906 243.444.021 3.367 4.565.496v-3.365zm11.578 1.244.005 3.365 4.798.497.05-3.36zm12.661 1.265.043 3.37 4.511.37-.058-3.37zm10.818.873-.109 3.356 5.593.542-.087-3.374zm11.737 1.175.088 3.374 4.966.515-.076-3.374zm11.592 1.145-.058 3.361 5.311.352v-3.366zm11.933.706.107 3.372 4.978.237-.021-3.367z" clip-rule="evenodd"/><path fill="#efae0e" fill-rule="evenodd" stroke="#000" stroke-linecap="round" stroke-linejoin="round" stroke-miterlimit="6.3" stroke-width=".329" d="M295.051 239.007a1 1 0 0 0-.536.178c-.239.161-.49.393-.581.664-1.439 4.266-4.769 14.75-4.633 14.835.51.32 1.35.477 1.924.044.151-.115 2.891-9.95 4.231-14.702.079-.282.157-.622.025-.841-.08-.134-.267-.175-.43-.178m11.281 1.217a.9.9 0 0 0-.514.168c-.219.154-.44.374-.497.632-.895 4.055-2.889 14.019-2.743 14.1.553.304 1.415.454 1.934.042.137-.109 1.624-9.457 2.357-13.974.044-.268.078-.591-.083-.8-.097-.127-.29-.166-.454-.168m12.515 1.199a.86.86 0 0 0-.505.169c-.211.153-.42.374-.463.631-.676 4.055-2.13 14.019-1.979 14.1.57.304 1.44.454 1.937.042.131-.109 1.111-9.457 1.599-13.973.029-.269.045-.592-.126-.801-.105-.126-.299-.166-.463-.168m11.336 1.116a.78.78 0 0 0-.486.168c-.193.154-.378.374-.391.631-.214 4.055-.533 14.02-.373 14.101.604.304 1.491.453 1.941.042.119-.109.034-9.457.008-13.974-.002-.268-.022-.591-.217-.8-.119-.126-.318-.166-.482-.168m11.5.799a.75.75 0 0 0-.476.169c-.184.154-.355.374-.353.631.028 4.055.303 14.019.468 14.1.622.305 1.518.454 1.944.042.112-.109-.53-9.457-.826-13.973-.017-.269-.057-.592-.265-.8-.126-.127-.327-.166-.492-.169m10.553.844a.62.62 0 0 0-.445.173c-.157.157-.288.383-.241.647.754 4.155 2.811 14.365 2.99 14.448.676.311 1.598.465 1.95.043.092-.112-2.221-9.691-3.324-14.319-.066-.275-.163-.606-.408-.819-.149-.13-.357-.17-.522-.173m21.741.422a.54.54 0 0 0-.423.176c-.137.16-.24.389-.158.657 1.28 4.222 4.632 14.596 4.822 14.68.715.317 1.656.472 1.954.044.079-.114-3.45-9.846-5.139-14.549-.101-.279-.24-.615-.512-.832a.9.9 0 0 0-.544-.176m-10.572.252a.56.56 0 0 0-.431.173c-.144.158-.256.384-.186.649 1.105 4.166 4.026 14.403 4.212 14.486.703.313 1.638.466 1.954.043.083-.112-3.041-9.716-4.536-14.356-.088-.276-.214-.608-.477-.822a.88.88 0 0 0-.536-.173" clip-rule="evenodd"/><path fill="#d4212f" fill-rule="evenodd" stroke="#000" stroke-miterlimit="6.3" stroke-width=".329" d="M306.11 162.72s-3.828.139-5.655.654c-1.768.499-3.501 1.259-4.999 2.322-1.603 1.137-2.879 2.694-4.108 4.226-.475.593-1.126 1.156-1.25 1.905-.09.546.103 1.151.417 1.607.428.621 1.537.621 1.845 1.309.147.328.026.743-.119 1.072-.51 1.158-1.435 2.173-2.5 2.857-.993.638-2.357.447-3.393 1.012-.963.526-1.866 1.247-2.5 2.143-.381.538-.823 1.195-.714 1.845.056.333.319.738.655.774.323.034.551-.357.774-.595.39-.419.547-1.024.952-1.429.557-.556 1.226-1.037 1.964-1.309.788-.291 1.703-.038 2.5-.298a8.3 8.3 0 0 0 2.858-1.607c.917-.802 1.798-1.767 2.202-2.917.23-.655.367-1.46.059-2.083-.27-.548-1.136-.571-1.488-1.072-.166-.236-.297-.55-.238-.833.178-.855 1.006-1.452 1.667-2.024.579-.501 1.264-.881 1.964-1.19 1.287-.568 2.662-.95 4.048-1.191 1.351-.234 4.107-.238 4.107-.238l.595.06z" clip-rule="evenodd"/><path fill="#fff" fill-rule="evenodd" d="m299.575 163.646.347 4.45 1.13-.198-.312-4.597zm-4.7 2.492 1.275 3.374-.766.492-1.231-3.238zm-1.589 1.498-.735.824 1.57 2.627.629-.561zM291.035 170.291l2.452 2.639-.114-.627-1.771-2.696z" clip-rule="evenodd"/><path fill="#002a86" fill-rule="evenodd" d="m301.885 163.122-.096 4.681c1.312-.078 2.614-.202 3.965-.083l.357-5c-1.437.105-2.948.134-4.226.402" clip-rule="evenodd"/><path fill="#fff" fill-rule="evenodd" d="m298.813 163.921-1.039.44.628 4.158.974-.255zm-2.912 1.472 1.103 3.696.676-.279-.98-3.9zm-2.591 7.194s.137.418.315.689c.228.349.552.745.596 1.185.06.599-.244 1.186-.476 1.741-.21.502-.482.986-.819 1.414-.445.565-.963 1.091-1.562 1.488-.374.248-.805.409-1.235.536-.497.146-1.025.15-1.533.252-.585.119-1.196.174-1.741.417-.424.189-.793.489-1.146.789a8.6 8.6 0 0 0-1.042 1.086c-.267.324-.485.685-.729 1.027-.148.208-.277.433-.446.625-.216.244.044.431.044.431l.611.075s.6-.864.922-1.28c.319-.413.594-.875.997-1.205a4.5 4.5 0 0 1 1.414-.759c.428-.144.894-.131 1.339-.209.572-.099 1.169-.118 1.711-.327.91-.35 1.748-.898 2.5-1.518.399-.328 1.042-1.146 1.042-1.146s.423-.791.595-1.205c.2-.479.448-.957.506-1.473.042-.372-.119-1.116-.119-1.116l-.922-.551c-.334-.262-.561-.631-.822-.966M305.195 163.315a.1.1 0 0 0-.048.01.1.1 0 0 0-.041.027.1.1 0 0 0-.028.041.13.13 0 0 0 0 .097.1.1 0 0 0 .028.041.1.1 0 0 0 .041.027q.023.01.048.01a.13.13 0 0 0 .09-.037.13.13 0 0 0 .037-.09.126.126 0 0 0-.127-.126m-.87.096a.125.125 0 0 0-.09.038.1.1 0 0 0-.027.041.1.1 0 0 0-.01.048.13.13 0 0 0 .037.09.13.13 0 0 0 .09.037.13.13 0 0 0 .089-.037.1.1 0 0 0 .028-.041.14.14 0 0 0 0-.097.1.1 0 0 0-.028-.042.133.133 0 0 0-.089-.037m-.878.075a.126.126 0 0 0-.09.216.1.1 0 0 0 .041.028.1.1 0 0 0 .049.009.1.1 0 0 0 .048-.01.1.1 0 0 0 .041-.027.1.1 0 0 0 .028-.041.1.1 0 0 0 .009-.049.126.126 0 0 0-.126-.126m-.819.059a.13.13 0 0 0-.089.037.128.128 0 0 0-.037.09q0 .025.009.049a.1.1 0 0 0 .028.041.1.1 0 0 0 .041.027q.023.01.048.01a.13.13 0 0 0 .09-.037.1.1 0 0 0 .027-.042.1.1 0 0 0 .01-.048.126.126 0 0 0-.127-.126zm2.56.536a.1.1 0 0 0-.049.01.12.12 0 0 0-.068.068.1.1 0 0 0-.01.049q0 .025.01.048.009.024.027.041a.1.1 0 0 0 .041.028.14.14 0 0 0 .097 0 .1.1 0 0 0 .041-.028.1.1 0 0 0 .028-.041.1.1 0 0 0 .009-.048.126.126 0 0 0-.126-.127m-.893.194a.126.126 0 0 0-.089.216.126.126 0 0 0 .178 0 .126.126 0 0 0-.089-.216m-.893.015a.12.12 0 0 0-.089.037.128.128 0 0 0 0 .179.129.129 0 0 0 .089.037.1.1 0 0 0 .049-.01.12.12 0 0 0 .068-.068.12.12 0 0 0 0-.097.1.1 0 0 0-.027-.041.128.128 0 0 0-.09-.037m-.818.044a.1.1 0 0 0-.049.01.122.122 0 0 0-.068.068.12.12 0 0 0 0 .097.12.12 0 0 0 .068.069q.024.01.049.01a.1.1 0 0 0 .048-.01.1.1 0 0 0 .041-.028.12.12 0 0 0 .037-.089.1.1 0 0 0-.01-.049.12.12 0 0 0-.068-.068.1.1 0 0 0-.048-.01m2.604.595a.1.1 0 0 0-.049.01.1.1 0 0 0-.041.027.1.1 0 0 0-.027.041.12.12 0 0 0 0 .097.12.12 0 0 0 .068.069q.024.01.049.01a.13.13 0 0 0 .117-.079.128.128 0 0 0-.117-.175m-.923.119a.2.2 0 0 0-.048.01.1.1 0 0 0-.041.028.12.12 0 0 0-.037.089.126.126 0 1 0 .253 0 .1.1 0 0 0-.01-.048.12.12 0 0 0-.068-.069.1.1 0 0 0-.049-.01m-.863.075a.126.126 0 1 0 0 .253.126.126 0 0 0 0-.253m-.863.104a.126.126 0 1 0 0 .253.126.126 0 0 0 0-.253m2.604.581a.1.1 0 0 0-.048.009.1.1 0 0 0-.041.028.129.129 0 0 0-.038.089.13.13 0 0 0 .079.117.1.1 0 0 0 .048.009.126.126 0 1 0 0-.252m-.848.074a.126.126 0 0 0-.126.126q0 .025.009.049a.117.117 0 0 0 .069.068q.022.01.048.01a.1.1 0 0 0 .048-.01.12.12 0 0 0 .069-.068.1.1 0 0 0 .009-.049.126.126 0 0 0-.126-.126m-.908.104a.1.1 0 0 0-.048.01.1.1 0 0 0-.041.027.13.13 0 0 0-.028.138.1.1 0 0 0 .027.041.1.1 0 0 0 .042.028.13.13 0 0 0 .097 0 .1.1 0 0 0 .041-.028.133.133 0 0 0 .037-.089.126.126 0 0 0-.127-.127m-.878.045a.126.126 0 0 0-.126.126q0 .053.037.089a.125.125 0 0 0 .206-.04.12.12 0 0 0 0-.097.1.1 0 0 0-.027-.041.1.1 0 0 0-.041-.028.1.1 0 0 0-.049-.009m2.604.595a.126.126 0 0 0-.126.126q0 .025.009.049a.1.1 0 0 0 .028.041.1.1 0 0 0 .041.027q.023.01.048.01a.1.1 0 0 0 .049-.01.1.1 0 0 0 .041-.027.1.1 0 0 0 .028-.041.1.1 0 0 0 .009-.049.1.1 0 0 0-.01-.048.1.1 0 0 0-.027-.041.1.1 0 0 0-.041-.028.1.1 0 0 0-.049-.009m-.848.03a.12.12 0 0 0-.089.037.1.1 0 0 0-.028.041.1.1 0 0 0-.009.048.126.126 0 1 0 .243-.048.12.12 0 0 0-.068-.069.1.1 0 0 0-.049-.009m-.878.074a.1.1 0 0 0-.048.01.1.1 0 0 0-.041.027.1.1 0 0 0-.028.041.1.1 0 0 0-.01.048.13.13 0 0 0 .037.09.1.1 0 0 0 .042.028.13.13 0 0 0 .097 0 .1.1 0 0 0 .041-.028.134.134 0 0 0 .037-.09.126.126 0 0 0-.127-.126m-.848.074a.13.13 0 0 0-.117.079.13.13 0 0 0 .028.137.12.12 0 0 0 .089.037.12.12 0 0 0 .089-.037.12.12 0 0 0 .037-.089.132.132 0 0 0-.036-.09.1.1 0 0 0-.041-.027.1.1 0 0 0-.049-.01" clip-rule="evenodd"/><path stroke="#000" stroke-miterlimit="6.3" stroke-width=".329" d="M306.11 162.72s-3.828.139-5.655.654c-1.768.499-3.501 1.259-4.999 2.322-1.603 1.137-2.879 2.694-4.108 4.226-.475.593-1.126 1.156-1.25 1.905-.09.546.103 1.151.417 1.607.428.621 1.537.621 1.845 1.309.147.328.026.743-.119 1.072-.51 1.158-1.435 2.173-2.5 2.857-.993.638-2.357.447-3.393 1.012-.963.526-1.866 1.247-2.5 2.143-.381.538-.823 1.195-.714 1.845.056.333.319.738.655.774.323.034.551-.357.774-.595.39-.419.547-1.024.952-1.429.557-.556 1.226-1.037 1.964-1.309.788-.291 1.703-.038 2.5-.298a8.3 8.3 0 0 0 2.858-1.607c.917-.802 1.798-1.767 2.202-2.917.23-.655.367-1.46.059-2.083-.27-.548-1.136-.571-1.488-1.072-.166-.236-.297-.55-.238-.833.178-.855 1.006-1.452 1.667-2.024.579-.501 1.264-.881 1.964-1.19 1.287-.568 2.662-.95 4.048-1.191 1.351-.234 4.107-.238 4.107-.238l.595.06z" clip-rule="evenodd"/><path fill="#efae0e" fill-rule="evenodd" d="M329.997 122.955a97.045 97.045 0 1 0 .003 194.09 97.045 97.045 0 0 0-.003-194.09m0 2.358a94.684 94.684 0 0 1 36.236 182.166A94.69 94.69 0 0 1 235.31 220a94.684 94.684 0 0 1 94.687-94.687" clip-rule="evenodd"/><path fill="#efae0e" fill-rule="evenodd" d="M329.997 99.385A120.61 120.61 0 0 0 209.383 220a120.613 120.613 0 0 0 166.771 111.433A120.62 120.62 0 0 0 450.612 220 120.617 120.617 0 0 0 329.997 99.385m0 2.358A118.26 118.26 0 0 1 448.255 220a118.26 118.26 0 0 1-73.003 109.255 118.25 118.25 0 0 1-128.875-25.635 118.253 118.253 0 0 1 0-167.24 118.25 118.25 0 0 1 83.62-34.637" clip-rule="evenodd"/><path fill="#efae0e" fill-rule="evenodd" d="M329.997 92.721a127.28 127.28 0 1 0-.001 254.558 127.28 127.28 0 0 0 .002-254.558zm0 4.308a122.97 122.97 0 0 1 113.611 75.912 122.97 122.97 0 0 1-26.657 134.013A122.97 122.97 0 0 1 207.026 220 122.974 122.974 0 0 1 329.997 97.029" clip-rule="evenodd"/><path fill="#fff" d="M373.352 232.3h4.756v3.309h-4.756z"/><path fill="#fff" d="M378.482 235.609a380 380 0 0 1-4.776.093l-.043-3.31q2.367-.031 4.735-.091zm-8.12.122a381 381 0 0 1-4.778-.007l.026-3.311q2.369.02 4.737.009zm-8.123-.049a381 381 0 0 1-4.777-.109l.097-3.31a374 374 0 0 0 4.736.11zm-8.12-.223q-2.389-.09-4.774-.213l.169-3.306q2.365.121 4.731.212zm-8.115-.399q-2.385-.144-4.768-.318l.242-3.301q2.362.172 4.726.315zm-8.103-.578a361 361 0 0 1-4.759-.425l.316-3.294q2.356.226 4.716.42zm-8.087-.76a361 361 0 0 1-4.749-.532l.391-3.286q2.35.28 4.704.527zm-8.068-.944a343 343 0 0 1-4.734-.642l.467-3.275q2.342.334 4.689.636zm-8.043-1.13q-2.361-.36-4.718-.752l.544-3.263q2.333.388 4.673.745zm-8.014-1.318a340 340 0 0 1-4.699-.866l.622-3.249q2.323.445 4.653.857zm-7.981-1.511a326 326 0 0 1-4.677-.979l.701-3.233q2.312.501 4.631.97zm-7.942-1.704a321 321 0 0 1-4.653-1.094l.781-3.215q2.3.558 4.606 1.083z"/></g><defs><clipPath id="a"><path fill="#fff" d="M0 0h660v440H0z"/></clipPath></defs></svg>