<svg xmlns="http://www.w3.org/2000/svg" width="600" height="400" fill="none" viewBox="0 0 600 400"><g clip-path="url(#a)"><path fill="#fff" fill-rule="evenodd" d="M0 .034h600v399.964H0z" clip-rule="evenodd"/><path fill="#bf0a30" fill-rule="evenodd" d="M0 .034h600v200.052H0z" clip-rule="evenodd"/><path fill="#002868" fill-rule="evenodd" d="M0 0h200.025v400H0z" clip-rule="evenodd"/><path fill="#ffca00" fill-rule="evenodd" d="M29.915 93.847c-12.505 6.983-14.772 9.895-21.626 15.25l15.198.318c-.18 1.415-3.498 19.037-3.813 20.28 11.442-7.604 16.872-11.089 32.483-15.487 6.203-1.723-.488-8.025-1.133-9.701-4.241 1.914-7.502 4.187-10.629 6.972" clip-rule="evenodd"/><path stroke="#002868" d="M29.915 93.847c-12.505 6.983-14.772 9.895-21.626 15.25l15.198.318c-.18 1.415-3.498 19.037-3.813 20.28 11.442-7.604 16.872-11.089 32.483-15.487 6.203-1.723-.488-8.025-1.133-9.701-4.241 1.914-7.502 4.187-10.629 6.972"/><path fill="#ffca00" fill-rule="evenodd" stroke="#002868" d="M40.6 111.332c23.312-21.355 100.447-20.845 121.93.66.693-.25 14.592-23.697 13.898-23.448C134.25 58.996 58.673 64.058 26.953 87.376l.376 1.392z" clip-rule="evenodd"/><path stroke="#002868" stroke-linecap="round" stroke-linejoin="round" stroke-width="3.125" d="M44.606 102.065c-.116-.305-6.778-12.71-6.778-12.71l10.905 9.61-2.537-14.043 7.141 12.015m30.818-16.302c.047-3.793 3.087-4.048 5.18-3.392 1.227.936 1.871 3.987.4 5.726l-2.954 2.518c-1.021 1.277-2.152 2.735-2.079 4.34l6.674-.255m4.892-12.987c-1.218.596-1.628 1.538-1.911 2.933-.182 1.604-.101 5.398.227 6.966.293 1.167.583 1.933 1.46 2.699 1.02.584 2.15.475 2.772.073.838-.474 1.422-1.459 1.714-2.626.474-1.496.437-5.872.108-7.477-.303-1.07-.68-1.921-1.531-2.553-1.022-.438-2.219-.343-2.839-.015M128.141 80.23c1.27-.532 2.236-1.18 3.295-2.425l-1.875 13.209M137.9 79.553c.152.058 6.344 1.858 6.344 1.858-3.02 3.772-5.496 7.123-7.514 11.381M149.654 82.844l6.138 3.027c-3.644 2.605-6.64 5.882-9.292 9.714M165.213 90.785l-4.02-2.358-3.555 4.814c2.553-.503 4.27.268 5.004 2.586.451 3.414-1.595 5.362-3.807 5.423-2.326-.053-3.527-1.33-3.855-4.012M56.75 95.218s.388-14.34.533-14.324c.063-.58 8.097 11.89 8.097 11.89m-8.367-2.674 5.458-1.606"/><path fill="#ffca00" fill-rule="evenodd" d="m25.152 230.511 7.975.107-.252-34.55L48.162 230.8h8.298v-50.819l-8.1.109.123 32.13-14.288-31.987-8.92.108zM170.903 196.105h8.494l-.102-4.478c-.241-2.893-1.334-6.558-4.187-9.267-1.9-2.115-4.148-3.308-7.065-4.106-2.476-.971-8.539-.685-11.616 1.036-3.639 2.032-6.712 5.657-8.764 11.497-2.692 9.832-1.476 22.145.23 27.94 2.031 6.141 5.216 9.418 9.456 11.485 2.639.887 7.243 1.563 11.551.396 4.693-1.775 6.838-4.857 8.702-8.143 1.131-2.225 2.43-6.49 2.204-11.217l-8.863.108c.006 1.73-.344 3.726-.784 5.456-1.003 2.418-2.551 4.036-6.401 4.036-2.581-.003-4.325-1.066-5.769-2.97-1.949-1.882-2.46-6.094-2.59-7.285-.588-5.377-.604-10.7.945-16.31.59-2.267 1.764-4.364 3.299-5.385 2.487-1.349 5.061-1.148 6.516-.723 1.911.59 3.674 2.017 4.224 3.908.428 1.778.496 2.859.52 4.022" clip-rule="evenodd"/><path fill="#fff" fill-rule="evenodd" d="m121.597 232.18-19.039-14.796-19.54 14.704 7.742-23.028-19.81-14.577 23.823.563 7.297-23.713 6.982 23.376 24.32-.078-19.509 13.884z" clip-rule="evenodd"/><path stroke="#002868" d="M40.664 111.345c.839.858 2.496.644 4.784.211 1.827-.221 3.908-.304 5.545-.494 2.711.222 4.264.856 3.15 2.142"/><path fill="#ffca00" fill-rule="evenodd" d="M173.315 94.6c12.505 6.983 14.772 9.896 21.626 15.251l-15.199.318c.181 1.415 3.499 19.036 3.814 20.28-11.442-7.604-16.872-11.089-32.483-15.487-6.203-1.723.711-8.137 1.357-9.813 4.241 1.914 7.838 4.187 10.405 7.084" clip-rule="evenodd"/><path stroke="#002868" d="M173.315 94.6c12.505 6.983 14.772 9.896 21.626 15.251l-15.199.318c.181 1.415 3.499 19.036 3.814 20.28-11.442-7.604-16.872-11.089-32.483-15.487-6.203-1.723.711-8.137 1.357-9.813 4.241 1.914 7.838 4.187 10.405 7.084"/><path stroke="#002868" d="M162.39 112.099c-1.404.649-2.853.362-4.606.211-1.663-.242-3.551-.526-5.419-.589-3.132.022-4.264 1.329-3.276 2.237"/><path stroke="#002868" stroke-linecap="round" stroke-linejoin="round" stroke-width="2.25" d="M103.5 81.495c2.421.044 4.762.14 4.762.14M110.935 78.331l-.283 11.538m5.305.523c.675-8.281-.409-8.577-4.409-8.558"/><path stroke="#002868" stroke-linecap="round" stroke-linejoin="round" stroke-width="2.25" d="m105.386 77.913-.178 9.591c-.026 1.82.54 2.338 2.123 2.338"/><path stroke="#002868" stroke-linecap="round" stroke-linejoin="round" stroke-width="3.125" d="m64.48 79.167 5.93 6.016 1.07 6.53M73.8 77.102l-3.25 8.37"/><path fill="#ffca00" fill-rule="evenodd" d="M30.419 309.96c-12.505-6.828-14.773-9.676-21.626-14.913l15.198-.311c-.18-1.384-3.498-18.615-3.813-19.831 11.442 7.436 16.872 10.844 32.483 15.145 6.203 1.684-.488 7.847-1.133 9.486-4.242-1.872-7.503-4.094-10.629-6.818" clip-rule="evenodd"/><path stroke="#002868" d="M30.419 309.96c-12.505-6.828-14.773-9.676-21.626-14.913l15.198-.311c-.18-1.384-3.498-18.615-3.813-19.831 11.442 7.436 16.872 10.844 32.483 15.145 6.203 1.684-.488 7.847-1.133 9.486-4.242-1.872-7.503-4.094-10.629-6.818"/><path fill="#ffca00" fill-rule="evenodd" stroke="#002868" d="M41.104 292.862c23.312 20.883 100.447 20.383 121.93-.645.693.244 14.592 23.173 13.898 22.929-42.178 28.894-117.755 23.944-149.475 1.141l.376-1.361z" clip-rule="evenodd"/><path stroke="#002868" d="M41.168 292.849c.839-.838 2.496-.63 4.784-.206 1.826.216 3.907.298 5.545.483 2.711-.217 4.264-.837 3.15-2.095"/><path fill="#ffca00" fill-rule="evenodd" d="M173.819 309.223c12.505-6.828 14.772-9.676 21.626-14.913l-15.199-.311c.181-1.384 3.499-18.615 3.814-19.831-11.443 7.435-16.872 10.844-32.483 15.145-6.203 1.684.711 7.956 1.357 9.595 4.241-1.872 7.838-4.094 10.405-6.927" clip-rule="evenodd"/><path stroke="#002868" d="M173.819 309.223c12.505-6.828 14.772-9.676 21.626-14.913l-15.199-.311c.181-1.384 3.499-18.615 3.814-19.831-11.443 7.435-16.872 10.844-32.483 15.145-6.203 1.684.711 7.956 1.357 9.595 4.241-1.872 7.838-4.094 10.405-6.927"/><path stroke="#002868" d="M162.89 292.112c-1.404-.634-2.853-.354-4.606-.206-1.663.237-3.551.514-5.419.575-3.132-.021-4.264-1.299-3.276-2.187"/><path stroke="#002868" stroke-linecap="round" stroke-linejoin="round" stroke-width="3.125" d="M101.379 320.248c1.004-3.446 3.292-3.024 5.333-2.552 1.638 1.124 1.873 4.188.308 5.971l-2.872 2.187c-1.214.807-2.42 2.304-2.375 3.977l6.956-.138M94.356 319.782c1.26-.685 1.562-.956 2.527-2.358l-.539 12.461"/><path stroke="#002868" stroke-linecap="round" stroke-width="3.125" d="M79.016 314.301c-.003.076-2.12 13.015-2.211 13.544l6.738.953"/><path stroke="#002868" stroke-linecap="round" stroke-linejoin="round" stroke-width="3.125" d="m71.106 327.155 2.073-14.114"/><path stroke="#002868" stroke-linecap="round" stroke-width="3.125" d="m47.031 319.755 5.142-13.052c1.54.772 3.523 1.076 5.234 2.603 1.112 1.847.6 5.636-2.584 5.995-1.754-.234-3.22-1.084-4.758-1.78"/><path stroke="#002868" stroke-linecap="round" stroke-linejoin="round" stroke-width="3.084" d="M131.125 317.112c1.017-.988 1.708-1.985 2.289-3.608l2.629 13.854"/><path stroke="#002868" stroke-linecap="round" stroke-linejoin="round" stroke-width="3.125" d="M137.059 313.126c.164-.043 6.729-2.339 6.729-2.339-.302 5.024-.396 9.847.232 14.306M147.234 309.599l6.731-2.634c-.289 5.094-.604 10.518.332 14.34M163.231 304.323c-.769-1.273-1.944-1.74-3.596-1.306-1.531 1.344-1.816 2.404-1.924 4.038.063 2.025.62 4.025 1.54 5.812.631 1.665 1.995 2.855 3.022 3.116 1.164.429 2.035.32 2.968-.488.712-.898 1.036-2.406.97-3.542-.221-1.508-.902-2.874-2.439-3.674-1.19-.487-1.682-.587-2.756-.131-1.631.964-1.928 2.749-1.686 4.568"/><path stroke="#002868" stroke-linecap="round" stroke-linejoin="round" stroke-width="2.25" d="M110.402 321.366c2.419-.112 4.762-.168 4.762-.168"/><path stroke="#002868" stroke-linecap="round" stroke-linejoin="round" stroke-width="2.25" d="m112.055 317.67.441 9.583c.091 1.817.69 2.298 2.269 2.196M116.746 317.57l1.328 11.465m5.327-.221c-.486-8.295-1.6-8.436-5.559-7.861"/><path stroke="#002868" stroke-linecap="round" stroke-linejoin="round" stroke-width="3.125" d="M35.008 313.928s10.3-10.826 10.401-10.712c.454-.405-2.025 14.846-2.025 14.846m-4.61-7.903 5.343 2.563"/><path stroke="#002868" stroke-linecap="round" stroke-width="3.125" d="M58.242 324.436c-.002-.077 3.75-14.006 3.75-14.006 1.605.39 3.283.626 4.818 1.171 1.073.352 2.703 1.679 2.073 3.823-.296 1.3-.9 2.455-1.82 3.163"/><path stroke="#002868" stroke-linecap="round" stroke-linejoin="round" stroke-width="3.125" d="m60.34 317.237 5.126 1.314c1.38.497 1.716 1.705 1.717 1.781.257 1.134-.607 6.02-.607 6.02"/></g><defs><clipPath id="a"><path fill="#fff" d="M0 0h600v400H0z"/></clipPath></defs></svg>