<svg xmlns="http://www.w3.org/2000/svg" width="600" height="400" fill="none" viewBox="0 0 600 400"><g clip-path="url(#a)"><path fill="#0073cf" d="M0 400h600V0H0z"/><path fill="#000" d="M259.516 70.956c-.315.3-.581.736-1.04.454.123-7.414-3.083-13.51-6.747-19.36-.4-.795-1.536-1.408-2.33-1.627 1.674 4.741.453 8.987 1.28 13.739.058.165.4.448 0 .613-.688-1.403-1.488-2.757-1.947-4.277-.805-1.408-2.171-2.534-3.589-3.312-2.262-1.003-3.803-2.982-5.904-4.379-.832-.176-1.515-1.216-2.256-1.355l-1.142.032-.181 1.051c.032.437.219.907.187 1.307 2.8 4.176 7.066 7.194 8.736 12-.96-.107-1.76-1.115-2.95-1.003-.282.01-.336.347-.277.57.747 1.974 2.171 3.777 2.752 5.702-4.939-2.523-3.456-9.21-8.112-12.064-.683-.283-1.2-1.685-2.048-1.227.635 1.355.923 2.758 1.387 4.176.458 1.136.41 1.98.698 3.168l-.17-.229c-1.702-.39-2.896-1.91-4.598-2.181l-.336.282c3.072 2.928 4.736 6.592 6.795 10.032 1.44 3.782 2.939 7.616 6.293 10.48-.501.656-1.146 1.195-1.605 1.792l-1.253 1.27c-.934-.592-1.883-1.179-2.848-1.606-.624-.218-.619.512-.614.907l2.038 2.981-.87.624-.085.107-.533.539c-3.723 5.093-6.779 9.781-8.678 15.669-.624-.117-1.589-.619-1.925.011-1.077 1.322-.299 2.645.507 3.904l-.699 1.237c-.261-.464-.587-.896-1.083-1.184-2.368 1.205-.261 3.573-.192 5.205-2.005 5.104-3.157 10.774-3.861 16.16-1.067 1.248-2.528 2.496-3.141 4.144l.112.112c-.336.512-.502 1.136-.603 1.766-.672.853-2.203.453-3.451.693-.842.229-.384 1.077-.496 1.637.63 1.136 1.814.336 2.832.72l.736.102c-.096 1.93-2.309 1.605-3.546 2.128-1.302.458-2.998.24-3.958 1.157.454.155.63.672.912 1.008.347 1.189-1.12 1.584-1.621 2.549.069 2.272-.032 4.139.155 6.459.506.389.112.848-.107 1.296-.101 2.256-.539 4.475-.352 6.736-.112.624.565.336.795.677l.042 6.336c.23.507.731.219 1.014.502-.71 2.944.608 6.165.176 9.392.229.384.682.282.906.554-.266 1.136-1.002 2.219-1.045 3.291-.208 3.115-.752 6.571-.677 9.675l.229.229c.171.171.341-.059.512.053-.059.166.059.347-.112.448-.88 3.574.837 6.907.176 10.699.347.624 1.307.384 1.925.384-.325.677-.549 1.472-1.232 1.931-1.68 2.266-.138 4.416-.634 7.018l.8.384c0 .395-.395.576-.395.971.352 1.584.421 3.893 1.957 5.136.854.101.79-.907 1.238-1.429.053-.896.496-1.75.773-2.656 2.251-1.771 2.011-4.091 2.107-6.688-.347-1.75 1.056-3.238 1.157-5.104-.24-1.979 1.216-3.51 1.488-5.435-.629-1.979 1.168-3.296.987-5.093-1.771-2.763 1.21-5.387-.224-8.16 1.354-.907.778-2.262 1.168-3.574 1.061-2.09-1.323-3.258.474-5.194 1.403-1.824-.432-5.376 2.502-6.523l1.029 1.125.112-.122.4.394c1.44 4.635 3.621 9.147 5.915 13.542 2.176 4.405 5.482 8.394 8.229 12.56-2.027 2.117-4.107 4.501-6.299 6.437-1.541-2.299-2.181-5.184-4.176-7.381l-.112.112-.229-.219c-1.419-.448-2.944-.043-4.069 1.157-1.408.854-2.022 2.102-2.694 3.584-1.28 3.227 2.976 4.56 4.288 6.299.624.512 1.867.555 1.872 1.408-2.512 4.48-7.248 7.509-10.56 11.376-2.186 3.019-6.698 5.707-7.125 9.728.117.624.8 1.013 1.307.667 7.829-5.248 14.064-12.251 21.376-19.094.341-.229.4.512.682.107.454.453 1.131.448 1.75.395.112-.742-.123-1.584-.406-2.326 2.358-2.501 5.734-4.954 8.491-7.466-.208 1.989-1.157 3.861-1.765 5.781-.672 1.136-1.915 1.259-2.875 1.893-.96.283-1.76-.56-2.549-.208-.843.907-.155 2.198.133 3.168-.507.678-1.301-.106-1.92.294-1.525.746-.891 2.549-1.333 3.792.341.57.906.842 1.477 1.018-.224.896-.331 1.803-.72 2.656s-1.52 1.366-1.509 2.438c.688 1.866-.374 3.637-.251 5.498l.4.619c.4.048 1.36-.128 1.808-.24.235 1.301-1.061 1.76-1.909 2.277-1.174 2.208-.416 5.088-.742 7.408-.16 1.248-.208 3.062.422 3.792-.112.907-1.067 1.926-.379 2.832.123 1.702.816 4.128.432 5.942.011 1.008-.603 3.061.533 3.61-.042 2.326.539 4.075.326 6.336 1.306 1.008-.326 2.384.245 3.446.117.512.517.741.912 1.013-.437 1.813-.539 3.851.539 5.435-.096 1.69.869 3.221 1.445 4.741.848-.347.843-1.477 1.12-2.208 1.739-2 2.736-5.168 1.701-7.877 2.027-1.542 1.163-4.198 1.035-6.24.955-1.632.773-3.456.704-5.371.949-1.536.773-2.72.48-4.421 1.344-1.99.645-4.352 1.707-6.518.501-.906-.688-1.802.154-2.656 1.126-.293 1.12-1.648.886-2.437-.582-2.544.309-5.035-.048-7.749a19.9 19.9 0 0 0 1.498-4.48c.502-1.355-.528-2.71-.309-4.075.453-.459.496-1.813 1.632-1.312.795.053.619-.971.501-1.419-.746-1.584.891-2.549.486-4.021-.811-2.256-2.971-4-3.606-6.363.496-1.594.998-3.178 1.494-4.821.202.112.373.395.549.581l.453.875a3.2 3.2 0 0 0-.362.805c.981 2.875 4.357.528 5.674 3.126-.277.224-.277.682-.277.912.235 1.354 1.712 1.792 2.789 2.128.966.512 1.974-.688 2.55.602 3.29 1.739 6.421 4.374 9.765 6.107v.229c-.048.166-.272.059-.501.112-.107.678-.896 1.2-1.403 1.648-1.189-.325-2.272-1.066-3.685-.938-.054.405.229.57.122.96.283.624.966 1.072 1.531 1.301 1.019.219 2.32.091 3.051-.304-.336.795-.555 1.637-1.003 2.437-1.568 2.043-3.824 3.75-6.48 3.888.059.624-.101 1.302-.208 1.926.117.73.683.906 1.243 1.125.288.501-.043 1.125-.096 1.52-.16 1.365-.715 3.013.928 3.792.17.896-.614 1.419-.491 2.325.059.614.683.779 1.024 1.12.112.224-.112.336-.165.512.405 1.979-.539 4.075 1.221 5.595-1.408 1.083.245 2.763-.539 3.957-.053.624.848.336.683 1.014-.613.688-.437 1.706-.491 2.666 1.424 1.344-.432 3.163-.362 4.864 1.312 2.262 1.392 5.478.672 7.862-.054.677.794.4 1.024.618.053.166-.112.166-.23.278.016 2.149-1.216 4.25-.464 6.512 1.158 4.01.059 9.168 3.024 12.544a2.02 2.02 0 0 0 1.238-.918c1.338-2.837 1.829-5.552 2.378-8.501 1.574-1.365 1.616-3.456 1.883-5.221-.016-2.758.816-5.424.8-8.31 1.221-3.189 2.384-7.258.832-10.592-.395-.218-.683-.618-.741-1.013.784-1.76 1.557-4.427.469-6.448-.288-.571.283-.341.619-.523.394-.165.677-.56.73-1.018.107-.624.278-1.136-.24-1.638-1.146-2.874 1.211-5.445.683-8.208-2.219-2.197.309-4.874-.667-7.584-.629-1.12-1.925-.266-2.837-.768-2.325-1.114-.363-3.781-.544-5.477l.907.155c3.125 2.352 7.2 2.437 10.885 3.434.459.283 1.307.272 1.365 1.014.571.677 1.083.896 1.819.896 1.237.154 2.075-1.606 3.157-.864.848-.176.907.725 1.424 1.226 1.131.731 2.656-.021 3.787-.645l.469 1.419c-.234 1.53-.133 3.093-.261 4.581l-.171.219c-1.248-.272-2.213-1.446-3.072-2.406-1.13.342-1.178 1.366-1.85 2.155-.048.795.858 1.637 1.482 2.197-.224.171-.565.23-.73.24-1.072.742-2.832.176-3.675 1.211.069 2.08-.256 3.792.379 5.707.512.512 1.072-.064 1.584-.176.288.842.405 1.749.357 2.709-3.163 1.093-.768 3.904-1.605 6.011-.608 1.696 1.424 1.226 2.048 1.344-.614 1.184.192 3.392-1.787 3.968-.507.394-.331 1.072-.331 1.76.064.896 1.195.778 1.654 1.061-.667 1.925-.768 4.304-1.094 6.064 0 .624.624.667.912 1.008-.277.971-.384 2.379-.149 3.451-1.291 1.424-1.051 3.749-.704 5.104.059.33.283.218.512.384-.16.165-.048.512-.101.741-.502 1.643-1.28 3.227.362 4.571-.437 1.877-.762 4.032-.864 5.781.406 2.208 1.782 4.357.838 6.731-.544 3.509 1.45 6.666 1.472 10.293 1.53.037 1.632-1.824 2.245-2.96.667-2.096 1.557-4.021 1.659-6.347-.075-2.714 1.44-5.04 2.613-7.37.837-1.318.603-3.003.48-4.47.837-1.253.885-2.949 1.104-4.368-.005-.506-.517-.842-.235-1.354 1.451-2.56 1.376-6.011 1.579-9.062 1.12-1.989.816-4.709.971-6.917 1.109-3.061.976-6.395 1.354-9.573-.122-1.008-1.594-2.246.096-2.886.326-1.861 1.104-4.186.07-6l1.013-1.237c.277-.741-.405-1.301-.635-1.925-1.194-1.232-2.224-2.752-2.97-4.336-.571-.79-1.643-.102-2.15-.731.15-2.197.086-3.445.07-5.76l-.23-.459c2.379-.122 5.035-.144 7.072-.437 6.79.192 14.027-.885 20.747-3.355.512.784 1.584.272 2.208.379.005 1.248-.267 2.437-.485 3.685-.112.166-.395.283-.283.566-1.461 1.029-1.595-1.462-2.784-1.792-.731.458-1.008 1.301-1.285 2.042-.224.79-1.179 1.872-.262 2.55-.618.512-1.413.458-2.032.752-.906.33-.73 1.072-.613 1.813.117.613.912.779 1.195 1.12-.448.512-1.243.181-1.691.688-.384 2.261.08 3.963.544 6.107.117.73.971 1.749-.208 2.032-.843.965-.549 2.437-.149 3.392.565.17 1.018-.224 1.53.17-.448.624-.784 1.302-1.12 1.99-.314 3.728.955 7.509.976 11.248l1.302.106c-.496 1.355-1.456 2.486-1.387 4.08 1.317 2.71 1.509 6.096.683 9.046.288 1.072.293 2.256.416 3.392.117.618.565.106.901.389l.139 3.84c.176 1.024.016 2.389.922 2.885l-.277.4c-.261 2.832-.304 5.206-.229 8.256-.048.512.346 1.19.912.907.901-.459 1.914-1.376 1.904-2.448.053-.853.213-1.861.608-2.768l-.118-.117c1.803-1.771 2.07-4.31 2.283-6.187.261-3.104 1.152-5.835 1.808-8.896-.421-3.792 1.483-7.301.608-10.976 1.296-1.317.768-3.003 1.84-4.427.325-1.637-.475-3.386.363-4.981.213-1.531-.811-2.709-.928-3.957.714-2.326-1.723-3.888-1.68-5.979 1.072-.688 2.773.037 3.445-1.275.16-.789-.293-1.52-.411-2.309.336-.283.731-.347 1.126-.459 1.413-.293-.011-1.482.608-2.042l-.224.229-1.654-2.251c-.4-.624.39-1.136.102-1.696-1.595-1.92-2.742-4.229-3.382-6.608-1.76-.832-1.322-3.104-1.274-4.405 2.384.949 5.328.992 7.76 1.2 3.168-.357 5.002 3.083 8.277 1.979.848.106 2.027-.571 3.045-.635.8 1.52 1.606 3.04 2.464 4.56-.117.117-.282.181-.394.229.005 1.136-.038 3.003-.427 3.968-.277.742.011 1.867.971 2.139-1.008 1.083-.768 2.779-1.211 4.197.059.678.736.054 1.131.395-2.022 1.477-.987 4.469-2.39 6.293-.389.854.176 1.531.518 2.144-1.115 2.155-.192 4.416.832 6.336-.731.955-1.115 2.32-.768 3.446 1.312 1.52-.715 2.613-.48 4.197.634 2.139.65 4.523-.806 6.395-1.008 1.418.64 2.544.363 3.898-.779 2.043 1.04 3.616.432 5.654-.048 1.077.971 1.637 1.813 1.242.96-.57 1.238-1.76 1.232-2.666-1.152-2.656 3.142-4.043 2.502-6.811-.016-2.875 2.117-4.827 2.496-7.595 1.072-.805 1.685-2.16 1.392-3.354-1.259-2.811 1.269-4.982 1.253-7.52-.373-2.459.923-4.139 1.163-6.4l.128-.966c1.509 1.728 2.693 3.728 3.898 5.574 1.2 2.032 3.083 3.77 3.947 5.914.283.118.277-.229.389-.341 1.718 2.48 4.384 3.595 6.768 4.875 1.067-.971-.357-2.491-.645-3.67-.117-.624-.8-1.125-.747-1.632-.346-.794-1.306-1.637-1.424-2.314-.346-.614-.8-1.291-1.541-1.456-1.6-2.71-2.581-5.648-4.352-8.294-1.317-2.544-3.312-4.906-4.011-7.616l1.131-.624c-.011-1.76-.08-3.28-.939-4.81-.229-.555-.8-1.232-.858-1.803.512.277 1.024.843 1.53.896.96-.459 1.238-1.531 1.515-2.437.331-1.302-1.088-2.15-1.829-3.158.506-.176 1.072-.064 1.637-.128 1.131-.506 1.12-1.808 1.509-2.842-.058-.678-.682-1.008-.917-1.622 2.416-2.96-2.229-4.293-2.816-7.114.448-.459.736-.411 1.413-.411 1.414-.011.779-1.925 1.227-2.832-.064-1.248-1.536-1.467-2.053-2.48-2.79-2.581.245-5.771-.454-9.051 2.454-1.429 2.251-4.053 1.76-6.624l.614-.373c.096.56.208 1.131.309 1.728.229.448.683.725 1.248.549.949-.853.917-2.373.677-3.802l.608-.486c.806-1.344 1.643-2.698 2.224-4.16.651-1.621 1.312-3.237 1.963-4.853l.203.565c-.182 1.782.512 3.728.384 5.52.005.726.906.667 1.418.779l-1.008 1.301c-1.461 2.054-.032 4.139-1.205 6.128.805 2.032-1.787 4.363.149 6.054-.336.394-.901.682-1.013 1.194-.389 1.072.64 1.856 1.152 2.646-.053.458-.501 1.024-.784 1.53-.949 1.531.08 3.003-.08 4.587-.848.853-1.344 2.272-.885 3.291 1.765 1.573.08 3.728.826 5.648-2.021 2.672.715 5.37.843 8.144h.341c1.126-1.366 2.587-2.795 2.912-4.603 1.238-1.419 1.622-3.232 2.742-4.773 1.818.949-.683-.731.56-1.248-.582-2.315 1.674-3.691.981-5.782.208-2.992 1.776-5.376 2.949-7.989.203-3.115 1.824-6.347 2.032-9.461 2.022-2.331 1.947-5.446 2.427-8.395-.464-2.875.757-5.541.453-8.656 2.704-2.565-.256-5.989 1.248-9.061-.469-2.379.816-5.158.347-7.126l.395-.405c-.347-1.013-1.478-.619-2.326-.72l-1.952-4.347c-.4-.842.219-1.413.614-2.026.106-.523.666-1.366-.128-1.766-.678-.448-1.579-.101-2.027.64-1.52 1.403-1.691-.437-2.208-1.712l-1.211-1.456a5.2 5.2 0 0 0-1.546-3.648c1.093-6.058-1.094-11.424-1.414-17.072-.01-2.154-1.152-3.957-1.056-6 .112 0 .224-.053.283.118.507-.171.56-.688.501-1.136-.602-1.462-1.765-2.63-3.077-3.552l-.176-.731c.171-.448-.4-.677-.347-1.125.395-.283 1.078.218 1.355-.406.384-2.149-2-3.488-3.584-4.437-.011-1.136-.805-1.931-.923-2.939-2.405-4.341-4.586-8.8-7.834-12.8 3.594-3.354 6.912-7.168 10.906-10.645 1.008-1.2 2.358-2.283 2.523-3.984-.288-1.259-.997-2.405-1.813-3.424l.789-.741c.613-.374 1.195-1.05 1.605-1.552-.517-1.008-1.765-1.792-2.453-2.635-.96.512-1.909 1.43-2.357 2.336-.566-.512-1.142-1.525-2.048-1.803-1.019-.218-2.091-.042-2.827.646-2.901 3.05-6.245 5.248-8.699 8.624l-.917.373c-1.76-1.008-1.973 1.312-3.157 1.77-.624-1.466-2.768-.32-3.344-2.122l.112-.117c.666-.459.437-1.184-.011-1.696a6.4 6.4 0 0 0-3.44-.144l-.565-.907c-.352-.645-1.344-1.056-1.728-1.69-4.603-3.073-8.923-6.102-13.915-8.166-5.621-2.56-11.403-4.283-17.637-5.488l.058-.107c.278-.405.336-.8.219-1.312-.517-.896-1.413.011-2.149.022-1.184 1.018-3.222.634-4.752.762.506-.629 1.296-1.418 1.002-2.378-1.861.346-3.669.928-5.189 1.952-2.832-.262-5.221-.219-7.979-.23-6.73 1.062-13.856 1.894-20.234 4.198-.79.122-3.627 1.093-3.627 1.093-.165-.795-.944-.544-1.573-.939-2.144.8-2.123 3.574-4.443 4.096-.688-1.573-1.488-3.104-2.464-4.565-1.083-1.637-2.736-3.664-4.827-3.248-.224.341-.394.736-.165 1.136 1.312 2.864 2.128 5.968 2.411 9.28"/><path fill="#9a3b26" d="M372.205 204.077c-.037.378-.016.762.075 1.157 1.472.389 3.285.379 4.181-1.04.107-.571.272-1.2.213-1.696-1.066.363-2.176.677-3.205 1.141zm7.872.858c-.48-.752-.629-1.701-.688-2.458.171.048.341.048.453.165 1.024.56 1.072-.8 1.579-1.2 1.083 1.067-.555 2.043-.661 3.115-.027.25-.102.522-.198.805l-.48-.427"/><path fill="#efe8c7" d="M383.882 191.341c-.725.25-.795 1.584-1.381 2.229-.288-.219-.63-.395-.912-.613-1.131.112-.912-.731-.918-1.638h-.336c-.336.79.523 2.539-.768 2.896-1.173 2.438-3.888 2.79-6.09 3.094-2.166-1.638.256-3.627-.432-5.606 1.12-1.413.373-3.168.592-4.698.16-1.302 1.173-2.32 1.786-3.456-.512-.118-1.184.229-1.53-.336-.118-1.072-.246-3.051-.31-4.47-.048-.416-.25-.874-.186-1.269l-.166-1.205c2.848-7.104 5.462-14.251 6.304-22.171-.293-1.136.731-.688 1.179-1.36.517 1.237.64 2.704.421 4.069-.106 1.072-.837 1.979-.997 2.886h.336c1.957-1.979 1.312-5.424.64-7.84l-.373-1.515c-.47-1.216-1.472-2.32-.859-3.707l.629.843c.171.565-.042 1.637.576 1.803-.058-.843.214-1.915-.581-2.427l.507-.341.832.768c-.038.544.608.949.709 1.477.197 4.368.288 9.616.608 14.656.725-1.248.256-2.944.363-4.464.624.613.741 1.568 1.312 2.133.389-.789-.406-1.52-.694-2.261-.282-.053-.618.128-.73-.155-.075-2.72-.326-6.448-.288-9.168 1.189.614 1.856-1.2 2.986-1.258.63.842-.32 1.749-.714 2.549-.16 1.189.629 2.032.922 3.045.571 1.019 1.03 2.027 1.376 3.152.395-.448.96-.341 1.584-.229.347 1.125.187 2.827-.032 4.192.646 3.333-1.488 5.781-.277 9.381.517 1.19-.779 1.942-1.115 2.95.528 2.602-1.258 5.28-.341 7.813-.667 1.989-.309 3.968-.864 5.947-.971-1.062-2.165-1.904-3.189-3.03-.171-.218-.064-.906-.624-.73.122 1.52.976 2.928 1.552 4.394.176.678 1.024 1.072 1.024 1.814a23 23 0 0 0-.587 1.845l-.939.011"/><path fill="#9a3b26" d="M384.684 191.868c-.565 2.272-.864 4.555-1.808 6.907l-.229-.229c-.859-1.008-.928-3.163-2.566-3.03.006 1.179.075 2.822-.768 3.904-.736-.229-.293-1.413-1.141-1.466a9.05 9.05 0 0 1-4.149 2.021l-1.056.384c-.379-.416-.832-.832-.779-1.403.048-.629.56-.96 1.061-1.253 1.696-.293 3.446-.416 4.912-1.269 1.067-1.2 2.363-2 2.806-3.472l1.253.896c1.237.293 1.339-1.238 1.797-2.187l.667.208"/><path fill="#efe8c7" d="M373.078 200.498c.315.373.523.768.198 1.28-.512.581-.88 1.258-1.024 1.978l1.211-.544c1.098-.666 2.416-.725 3.605-1.173.176 1.125.011 1.979-.379 2.997-1.354.523-2.48 1.147-3.957.592-.224.448.005.907-.101 1.472-.336.971-1.462 1.76-1.003 2.95l1.52-1.536c1.477 1.344 2.885.149 4.581.074.4.054.571.795 1.024.395.614-1.083 1.632-1.541 1.51-2.779.042-.133.09-.272.144-.405l-.646-.613c-.858-.848-1.082-2.283-.885-3.211.736-.352.965.501 1.531.373.336-.624.613-1.632.949-1.925.683.101.293 1.648 1.083 1.008 0-.229-.059-.507.224-.624.048-.395.266-1.008.208-1.632-1.184-.565-1.478-2.085-2.171-3.157-.56.736.176 1.248-.208 2.042-.389.624-.384 1.632-1.291 1.76-.506.048-.682-.512-.853-.848.059-.112-.112-.176-.171-.277-1.434.645-2.613 1.541-4.16 1.563l-.938.24"/><path fill="#9a3b26" d="M360.657 241.975a13.7 13.7 0 0 0-1.904-1.685c-.048 1.13.469 2.538 1.152 3.61l-.507.128c.23.267.342.678.742.843.176-.688.32-1.083.368-1.691l.144-1.205"/><path fill="#efe8c7" d="M299.002 268.412c-.208-.293-.4-.581-.677-.853-.795-.165-.054.853-.56 1.136-.395-.283-.512-.795-1.019-.619-.683.182-.448 1.078-.331 1.536.518 1.238 1.547 2.976.875 4.059-.229-.101-.512-.331-.736-.101l-.096 2.938c-.112.112-.224.278-.395.23-.112-.118-.282-.224-.282-.4-.459-.112-.854-.667-1.36-.32.41 2.426 3.13 3.594 3.317 6.08-.101 1.76-1.28 3.125-2.235 4.49-1.018-.341-1.194-1.584-2.154-2.032-.79.864-.555 2.16-.155 3.067.811 2.197-.021 5.312-1.195 7.36-.8-1.355-.08-3.392-1.05-4.581l-1.014.8c.171-.56.048-1.579.496-2.208l.342.17c.4.23.906.102 1.184-.293.33-1.749-.528-3.68-.71-5.376-.458-.667-1.141-1.179-1.877-1.227.272-1.584.149-2.992.992-4.368 1.243-.458 2.48-1.146 3.44-2.048.219-.741.949-1.418.491-2.272-1.584-.042-3.494 2.459-4.635.262.101-.459-.011-1.307.784-1.136 1.237-1.147 2.693-2.512 3.76-3.931-1.024-1.467-3.056.24-4.304-1.152-.011-1.419-.299-2.784.368-3.973a1.12 1.12 0 0 1-1.019-.331c.096-2.208.592-4.48 1.088-6.624-.57-.117-1.248-.053-1.648-.619-.8-2.256 2.422-2.277 1.84-4.592.278-.56-.288-1.696.891-1.813.619-.341 1.237-.965 1.179-1.643-.955 1.072-2.246 2.155-3.723 1.883l-.368-5.312c.507-.571 1.296-1.147 1.851-1.653-.112-1.078-.118-2.096-.411-3.222-.624-.053-.843.8-1.525.512-.454-.448-.064-1.125-.464-1.509-.059-1.088-.299-3.003.202-4.085 1.414-.24 2.987-.752 4.464-1.158-.458-.789-1.653-1.408-1.658-2.416.336-.624.672-1.312 1.237-1.77.965 1.072 2.043 2.533 3.691 2.122.32-1.349.026-3.434.208-5.125l.021-1.019c.629.107 1.296.118 1.931.198.058.229-.224.165-.278.336-.101 1.184.24 2.714.134 3.738.698 2.758-1.382 4.875-.8 7.467-.091 2.208 1.776 3.669 2.416 5.584l.394-.229c-.346-1.126-1.034-2.08-1.776-3.03-.288-1.365-.746-2.437-.416-3.968.043-1.077.262-2.208.486-3.056.789.219 1.808-.069 2.154.886.24 1.93 2.395 2.992 3.088 4.677.736.795-.506 1.035-.784 1.531-.506.522.064 1.136.182 1.648.234 1.696.309 4.24-1.158 5.376-.389 1.018.635 1.696.699 2.656-.384 2.437-.816 4.986-.747 7.418-.506.624-.277 1.131-.608 1.76-.517-.73-.688-1.637-1.029-2.426-.347-.619-.688-1.408-1.312-1.744-.331 1.701.139 4.01.432 5.93l-.224.176c-.4 0-.683-.165-1.024-.272-.005-.853-.741-1.637-.917-2.538h-.283c-.053.736.352 1.978 1.2 2.426l-.165.395c.458 1.291 1.093 2.528 1.44 3.893 1.424 1.056.586 2.619.645 4.064l-.795.251"/><path fill="#9a3b26" d="M298.646 268.663a.6.6 0 0 0-.203-.096c-.112.23-.107.624-.501.635-.566.117-.512-.507-.912-.725-.502 1.008.522 1.968.752 2.933.234.731.41 1.691.186 2.368l-.394.293c-.059-.17-.283-.053-.395-.117-.107.907-.16 1.925-.208 2.885-.277.688-.907.24-1.301.064-.118-.282-.4-.389-.624-.501l-.112.112c.741 1.189 1.482 2.368 2.565 3.376.837-1.584 1.392-3.739.699-5.435 1.386-1.253 1.104-3.312 1.472-5.072z"/><path fill="#efe8c7" d="M218.364 139.82c.048-.629-.016-1.21.027-1.834-1.136-.166-2.15.293-3.28.416-.171.282-.054.741-.107 1.018.8.896 1.925-.01 2.891.432z"/><path fill="#9a3b26" d="M380.436 150.546c-.218-.309-.4-.699-.538-1.04-.464-1.408-1.152-2.645-2.176-3.771-.512 0-.97-1.072-1.648-1.125-.341.064-.794-.101-1.018.347.293 1.301 1.429 2.309 2.058 3.552.976 1.402 1.323 3.216 2.918 4.341.506-.123.277-.8.16-1.136-.171-.283-.454-.512-.4-.907.426 0 .501.576.821.763l-.176-1.024m-151.968-40.277c.213.33.411.666.555.997.853.843.576 1.52.186 2.544-.81-.544-1.125-1.483-1.53-2.347zm20.277 93.434c-.693-.853-1.514-1.706-2.282-2.528.565-.282.954-.741 1.461-1.253 1.424 1.408 2.565 2.645 4.155 3.877-.731.24-2.144.352-2.71.299z"/><path fill="#9a3b26" d="M368.033 186.14c-.117-.602-.261-1.178-.357-1.642 4.8-9.648 7.338-19.963 9.365-30.619.219-1.072.379-2.32.715-3.28 2.549 1.856.704 4.293.778 6.731-1.045 4.581-1.808 9.061-3.594 13.146-.219 1.083-1.115 2.438-1.227 3.291-2.08 3.883-2.96 8.32-5.259 12.021zm3.877-73.466c.72.33 1.478.73 2.203 1.184l-.075-.779.155.021c-.181-.565.059-1.386-.875-1.461-.629-.56-1.536-.896-2.33-1.291-.091.438.101.907.368 1.312l.554 1.003"/><path fill="#efe8c7" d="M358.344 79.623c2.73 4.32 2.053 9.893 2.24 14.267 4.778-5.115 9.786-9.84 14.677-14.736.672-.917 1.232-1.712.709-2.896l-.224-.17-.112.117c-.581-2.603-3.248-4-4.789-6.198-.853-.501-1.419-.384-2.267-.096-3.12 2.773-6.885 5.605-9.514 9.157zm16.89-6.896c.432-.501 1.179-.773 1.387-1.461-.512-.779-1.365-1.28-2.048-1.904-.789.635-1.403 1.312-1.797 2.154.538.56 1.146 1.18 1.722 1.846z"/><path fill="#b3995d" d="M344.916 78.237q-.168.119-.33.26c-.059 0-.117-.063-.117-.17-.054.054-.054.107-.166.107l.006 1.083c1.642.49 4.069-.763 4.592 1.44-.454.229-.395.624-.502 1.018.63 1.408 1.92.155 3.056.262l2.16 1.52-.112.512c-1.914 1.248-3.6 3.184-5.285 4.714-.789.688-1.744 1.824-3.051 1.21-.453-.154 0-.5-.005-.788-.235-1.472.491-2.774-.192-4.182-1.413-.496-3.397-.602-5.323-.592-.165.742-.496 1.478-.496 2.043-.218 1.019-.325 2.043-.714 2.997l-4.47.032c-.613 1.419-.432 3.398-.48 4.864.342.283 1.136.566 1.531.283.571.448 2.096-.021 2.773.427.182 1.136-.432 2.784.422 3.45-8.544 8.768-17.771 17.312-26.086 26.31h-.341c-.411-2.374-.485-5.606-.731-7.803-.512-.331-.064-1.365-.965-1.125-1.237 1.429-1.568 3.178-2.405 4.826-1.286 2.267-1.27 4.811-1.478 7.414-.16.805.406 1.584-.149 2.272-.443-6.843-.773-14.144-5.445-19.552-.459-.55-.688-1.008-1.424-1.115-.278.341-.502.741-.384 1.248 2.058 3.659.954 8.368-.15 12.107-.186-1.979-.085-3.899-.149-5.707.357-5.323-1.872-10.181-4.565-14.411-.512-.33-1.195-.714-1.75-.32-.341.342.171.79.112 1.238.432 5.605.363 11.941-.56 17.605.24 2.709 1.115 5.541 1.632 8.133.064 1.136.411 2.15-.144 3.168-.394-.272-.741-.896-1.136-1.226-.976-2.032-2.858-3.888-4-5.979 1.174-2.16 2.118-4.427 3.126-6.635 1.866-8.218.389-18.218-2.715-26.128-.859-1.354-1.493-3.498-3.419-3.653-.506.23-.277.853-.389 1.13 2.352 5.307-1.291 10.699.725 16.294.091 5.376 1.771 11.189-.117 16.805-.171.112-.336.406-.619.288-2.048-1.344-2.517-3.77-2.245-5.872 1.344-2.042 2.235-4.368 2.389-6.741-.096-6 .374-12.624-4.469-17.408-1.477-.667-2.507-2.416-4.091-2.624-.602 2.096-.869 4.699-.293 6.843 2.336 2.928 3.269 7.221 2.837 10.565l-1.866-1.408c-1.136-.155-2.203.981-2.934 1.717-.517-1.125-1.429-2.08-1.834-3.322.112-.507.389-1.019.784-1.248 1.381-5.158 3.274-10.096 1.429-15.574-.635-1.637 1.632-.522 2.133-1.541l.192-5.605c-1.472-.667-3.285-.71-4.698-1.094-.347-1.418.09-3.114-.027-4.581-1.589-.73-3.291-1.397-4.992-1.275.053-1.12-.24-2.31-.528-3.392-.005-.39-.576-1.061.048-1.29.4.496.117.9.629 1.29 1.808-.293 1.798-2.448 3.147-3.354 3.723-1.5 7.616-2.592 11.573-3.42 6.315-.756 12.795-1.914 18.624-1.988l.704.096c-.234.528-.352 1.082-.144 1.664 1.814.608 2.699-2.342 4.736-1.894.4.219.438-.16 1.424.406 1.072-.022-.112 1.05.742 1.434 1.248.336 2.032-.976 3.045-1.37.565.33 1.301.218 1.813.613 3.568.427 6.523 2.219 9.926 2.987 7.397 3.504 15.232 6.138 21.968 11.104l.218.608"/><path fill="#9a3b26" d="M347.516 76.514c-9.515-8.176-21.659-13.392-33.771-15.643l-2.362 1.883c2.101 1.114 4.704.874 6.746 2.106 7.878 2.096 15.088 5.846 22.358 9.531 1.424.773 3.509 2.325 4.912 3.323l2.117-1.206"/><path fill="#1691ff" d="M339.836 215.453c2.251 1.68 4.411 3.53 7.408 3.573.112-.053.395-.165.395-.395-.4-.165.053-.282-.23-.512l-2.245-5.749c-1.584.357-3.077 1.627-4.635 2.512z"/><path fill="#9a3b26" d="M339.102 214.924c-.25-.181-.507-.357-.768-.512l1.051-.885c1.659-.821 3.163-1.957 4.747-2.907.282.342.4.742.629 1.136-1.493 1.062-3.168 1.894-4.549 2.864zm-12.725 4.8-.069.544c-.155.256-.262.603-.331.875-2.709 1.093-5.253 1.621-8.075 2.373-4.352 1.158-9.445.742-13.744 1.334-2.597.021-6.042.49-8.65.053l2.133-1.877c3.509.378 6.731-.208 10.299-.352 6.352-.806 12.026-.336 17.765-2.763z"/><path fill="#b3995d" d="M346.114 165.81c-.229.101-.459.218-.741.218-2.827-.096-4.678 2.624-6.08 4.507-2.128 3.755-2.891 8.107-5.867 11.408-.517-1.189-1.653-2.133-1.835-3.552 1.632-1.312 2.699-3.072 3.76-4.768 3.59-5.067 2.187-11.792 2.603-17.733.549-2.496.928-5.104.176-7.467-.224-.293-.117-.971-.736-.795.059.347-.395.512-.507.806-7.322 5.301-4.09 15.072-7.269 22.33-.837 1.712-.485 3.563-.869 5.323a45 45 0 0 0-3.536-3.771l-.059-.496 2.523-4.16c1.45-2.714 2.394-6.01 3.392-8.906.816-4.976 3.221-9.52 3.13-14.55-.41-2.096-.197-4.469-1.962-6.042-.891 2.042-2.294 3.461-3.926 5.061-3.989 3.531-6.565 8.699-4.373 14.171l-.224.624c-.283-.054-.341-.502-.683-.336-2.373.357-3.541 3.189-3.984 5.344-1.024-1.008-1.37-2.363-1.434-3.664 2.41-3.072 3.69-6.368 3.498-10.438-.368-4.357-1.754-8.698-2.405-13.221 4.443-3.595 7.648-7.237 11.637-11.445l16.987-16.294c2.864-2.906 5.792-5.584 8.821-8.325-.602 2.272-1.21 4.432-1.477 6.917.011 1.638 1.259 3.046 1.557 4.688-1.333 3.344-1.706 7.136-.325 10.576-1.173 2.667-1.547 5.904-1.189 8.896-2.075 2.843-1.147 6.518-.331 9.792-1.685 2.667-1.035 6.683-.165 9.675-1.291 2.043-2.635 4.208-2.507 6.699.069 1.685 2.171 3.146.768 4.8-.443 1.301.411 2.426.421 3.552-.736.586-1.066 1.594-1.002 2.448.005.906.8 1.749.522 2.544-.842.906-.549 2.261-.09 3.28-.283.229-.678.677-.784 1.136-.112.789.064 1.696.693 2.314-.16 1.35-.101 2.155.133 3.456.342.448.848-.176 1.019-.522-.176-.677.837-1.083.384-1.696.389-1.083.427-2.72.421-3.792.672-1.2.603-2.779.539-4.086l.229.23.395-.459.08-4.635.395-.112c.336-.522.73-1.136.725-1.648.613-1.642.827-3.738.587-5.488l.565-.512c.213-2.101 1.221-3.184.987-5.333-.123-.843-.128-1.467-.411-2.144-.235-1.189-.811-2.315.485-3.232l-.112-.112c1.232-1.877.816-3.792.918-5.605.677-.907.778-2.32.997-3.344-.459-1.072.784-1.467.496-2.55 2.923-3.077 2.384-7.253 1.968-10.928 2.24-3.301 1.253-7.365.72-10.928 1.504-3.573 2.096-7.365 1.739-11.605-.176-.624-.523-1.301-.582-1.813 1.6 2.032 2.747 4.512 3.782 6.885l-.171.219c-.112-.166-.283-.102-.453-.102-.395.166-.054.624-.278.79.459 1.072 1.595 1.856 2.672 2.138.086.491.294 1.104.576 1.654l.23.842c-.592-.176-1.179-.405-1.643-.736-.224-.117-.565-.229-.901.112.016 2.72 3.072 2.534 4.442 4.731 2.592 7.227 3.094 15.136 3.259 23.115l-.565.01c-.896 1.419.64 2.656 1.434 3.718-.33.346.288 1.301-.501 1.136-.053-.054-.112-.112-.112-.166-.624-.218-1.36-.501-1.808.176-.272 1.99 1.771 3.222 2.352 4.971-2.016 11.829-4.656 23.685-9.851 34.288l-.629-.778c-.224-.23-.683-.395-.795-.347a8 8 0 0 0-.394 2.97l-.774.427c-.021-.101-.037-.219-.053-.32l-.4-.565c-.683-.624-1.077.165-1.525.512-.619-.219.442-1.243-.624-1.126-1.691 1.542-3.488 3.531-3.926 5.803.24 1.979-1.045 4.299-2 5.947-.826-5.659 4.411-9.696 2.336-15.008-.576-1.638-.922-2.816-1.552-4.347-.288-.512-.234-1.355-.805-1.52.133 3.216-1.712 6.405-3.616 9.189-.779 1.926-1.899 3.686-2.736 5.611l-.176-.384c-.267-6.283.016-15.333 1.051-21.856.042-1.749.032-3.344-.539-4.635a12.2 12.2 0 0 0-2.768 2.15l-1.344.218m-38.629-10.378c-1.168-.07-2.326.4-3.307.938-1.973 1.147-.491 2.832-.427 4.363-1.13-.267-2.661-.091-4.074-.539-1.643-.272-3.232-.709-4.982-.81.443-.859 1.344-1.366 1.846-2.171l.266-.645c.843-.459 1.142-.603 1.819-1.174 2.021-1.994 5.707-1.056 7.856-.837.315.032.56.251.837.427z"/><path fill="#9a3b26" d="M328.569 208.695c1.825-.533 3.67-1.136 5.638-1.344.406 1.125.128 2.091.022 3.333-1.92.24-3.792.032-5.771-.186l-.048-.523z"/><path fill="#b3995d" d="M273.583 115.202c-1.253-3.195-2.97-6.027-5.322-8.715-1.861.8-3.605 2.624-5.466 3.542-7.227 1.978-13.147-3.035-20.491-1.734-.507-.277-1.013.182-1.301-.394.501-1.072 1.909-2.102 2.917-2.955.736-.629 1.755-.459 2.544-.917-2.224-2.816-2.309-7.003-5.776-8.854-.107-.501-.565-1.066-.283-1.525.336-.395.955-.518 1.403-.288 5.493.645 7.568 6.624 12.112 8.864 2.155.491 4.469.133 6.512.688 2.267.267 4.197 1.904 6.629 1.259-.864-2.251-2.581-5.126-5.354-5.334-3.232-.95-6.907-1.434-10.304-1.466-.112-.283-.848-.273-1.302-.449-3.061-1.104-5.813-3.493-8.032-6.106l-.965.864c-.555.96-1.435 1.867-1.941 2.874-3.248 4.72-6.784 9.505-8.448 14.939.181 1.638 1.381 3.158.938 4.688-.346-.448-1.136-.554-1.424-1.226l-.896 1.413c.63 1.072 1.088 2.144 1.04 3.499-.224.229-.448.512-.789.41l-1.024-.73-.448.512c-1.051 3.685-2.757 11.728-2.757 11.728-.902 9.226-.896 18.394 1.418 26.976.47 2.149.763 3.962.95 6.218.912.96 2.666 1.286 2.73 2.752-.56.688-1.354.523-2.09.582.005.677.352 1.296.069 1.978 1.365 1.067 3.067 1.451 4.096 2.806.341.624-.448.96-.901 1.248h-.619c.235 1.253 1.205 2.544 1.552 3.728 3.264 6.378 6.928 12.805 11.435 18.378l3.648-3.877 18.208-18.789c.256-.219 0-.347.282-.624.678-.064 1.078.496 1.643.613-.176-1.125-.64-2.821.203-3.957 3.658-3.2 7.2-6.667 10.741-10.15-.741-.56-1.536-.944-2.048-1.621.619-.576 1.467-.859 2.032-1.312-1.643.059-3.675.757-5.323.197-1.413-.554-2.32-.49-3.685-1.168-.395.176-.677-.272-.907-.437v-.395c1.014-.293 1.744-1.146 2.763-1.541-2.16-.848-5.051-2.011-4.955-4.848-.229-.496.336-.624.619-.736 2.149-.128 5.216 1.829 7.637.352 3.451-.811 8.15-.165 11.414-2.789-4.352.309-8.699 2.32-12.832 2.229-2.779-.837-5.894-1.376-8.283-3.461-1.472-.491-2.949-1.616-3.808-2.688 3.659-3.136 7.531.634 11.712-.187 2.768-.523 4.907-2.688 7.627-2.363 2.992-.586 6.741 1.643 9.157-1.189-.453-.395-.576-1.125-1.083-1.355.107-.624-.634-1.237-.976-1.685-.57-.741-1.312-1.584-2.218-1.739-1.184-.053-2.032.624-2.928 1.142-1.744 1.088-3.547 2.458-5.408 3.376-1.696.522-3.899 1.21-5.771.656-3.568-.875-7.253-1.926-9.819-4.688-1.37-1.798-2.229-3.83-3.6-5.579-.17-.448.278-.677.39-.848 1.354-.459 2.384.837 3.573.709 3.403 1.499 6.869 4.144 10.939 2.864 2.592-1.194 5.653-.592 8.192-1.968l-2.112-2.528c-2.203.635-3.723 2-6.038 2.352-5.082 1.675-8.229-3.68-13.541-2.229-1.131-.448-2.715-.384-3.856-1.104-1.472-.219-2.267-1.003-3.685-1.28-.966-.501-1.984-1.397-2.272-2.48-.624-.272-.518-1.061-1.142-1.509l.112-.054c-.682-.97-1.824-1.914-2.677-2.762.389-.907 1.525-.406 2.261-.518 2.15.486 4.246 1.27 6.123 2.102 2.037.613 4.011-.08 6.224.864 2.155.389 4.197 1.504 6.016 2.906.741.384 1.701.384 2.555.603.053-.507-.518-.955-.635-1.52-.176-1.019-.128-2.256.32-3.163 1.493-.25 3.301-.4 4.891.08l-.086-1.157"/><path fill="#9a3b26" d="M327.012 219.495c.651.187 1.291.384 1.904.613-.336.907-1.296 1.483-2.256 1.542-.437-.427-.016-.79.101-1.184zm37.903-32.72c.065.325.134.645.198.981l.683-.064a21 21 0 0 1-.181-1.258l-.63.49M241.422 86.818c.529.336 1.478.906 1.995 1.21.614-1.253 1.792-2.272 2.635-3.29-.565-.4-1.248-.678-1.872-1.014-.464.811-1.152 1.398-1.749 2.022zM301.433 62.172c.192-.34.416-.677.603-.997.336-.512.843-.917 1.061-1.419-2.885-.272-6.224-.5-9.845.064-6.949.998-13.509 2.011-19.829 4.363-.566.064-2.107.677-2.107.843 0 0-.256 1.834-.816 2.458 1.696-.405 3.445-1.258 5.253-1.674 5.926-1.958 11.414-2.118 17.691-3.168 2.229.096 4.773-.502 7.179-.459z"/><path fill="#000" d="M259.516 70.956a.72.72 0 0 1 .368-.229z"/><path fill="#b3995d" d="M258.562 75.309c-.144 1.562-.411 3.146-.539 4.709.288.613.406 1.29.918 1.802-.187-2.837 1.946-4.874 1.589-7.658-.224.064-.432.362-.645.592z"/><path fill="#9a3b26" d="M308.009 58.076c-.725 1.584-2.64 2.678-3.76 4.096-1.13.46-1.69 1.542-2.821 1.947.048-1.925 1.563-3.632 3.142-4.896 1.013-.624 2.255-.8 3.439-1.147m6.006.982c.293 1.301-1.291 1.706-1.792 2.437-1.296.864-2.651 1.659-3.888 2.405-.064-.448.331-1.018.613-1.477 1.344-1.877 3.035-2.795 5.067-3.365m-3.953 1.27-1.871 2.116-1.387-.074s-.688-.043-1.424-.31l1.798-1.94c.8.127 1.866-.012 2.885.207m-41.814 9.44c-.218.33-.389.79-.783 1.019-.64-2.539.645-5.259 2.784-6.747 1.712 2.08-1.446 3.739-2 5.728"/><path fill="#395839" d="M244.917 66.349c.918 1.472 2.673 1.957 3.756 3.2 1.088 1.29 2.901 2.58 2.917 4.448-.853-.155-1.589-.72-2.272-1.28-1.365-1.067-3.344-.608-4.597-2.011-.806-1.867-2.059-3.552-2.752-5.472 1.018.219 1.877.95 2.949 1.115"/><path fill="#9a3b26" d="M266.827 67.623c-.448.56-.218 1.53-.725 2.037-.117-.448-.176-.906-.293-1.354.4-.123.565-.683 1.018-.683m4.64 8.736c.011 1.813-.437 3.115.027 4.763 1.643.208 3.397.261 4.704 1.093l-.192 4.864c-.453.459-1.248.064-1.755.352-.805-2.31-2.234-4.23-3.658-6.197-.342 0-.624-.395-.966-.102-1.056 2.768.715 5.643.059 8.539-.272 2.032-.715 3.957-.363 5.824-.565.064-1.408-.09-2.144-.208 2.512-5.397 2.966-12.981-.682-18.219.16-.613.154-1.354.549-1.914 1.584.09 3.056.474 4.421 1.205"/><path fill="#1691ff" d="m249.073 78.434-.73.789-2.448-2.123.112-.064c.965.566 1.93 1.115 3.066 1.398"/><path fill="#9a3b26" d="M351.43 78.06c-2.144 1.36-4.182 1.323-6.443 1.062h-.171c.219-.853 1.408-1.147 2.139-1.718 1.408-.687 3.051-.522 4.469.145zM251.517 79.943c-.224.283-.507.795-.901.677l-1.878-1.168c.784-1.642 1.926.208 2.779.491M351.555 79.58c-1.019-.042-2.027 1.707-2.774.251.731-.64 1.808-.41 2.544-1.045-.229.064 0 .576.23.794"/><path fill="#000" d="m309.174 80.36.038 5.21c1.013-.176 2.256.373 3.226.885.688.843.128 2.144.134 3.168-.56.79.128 2.933-1.68 2.437-1.019.07-1.755-.49-2.774-.26-.378 2.831-.304 5.823-1.189 8.436-1.467 1.083-3.339.363-5.093.144-1.584-.272-.411-2.197-.587-2.938.384-1.926-.027-4.07.245-6.23-1.306-.437-3.109.192-4.08-.757-.181-1.584.262-3.627.363-5.44 1.461-1.477 5.211 1.104 4.907-2.24.165-1.072-.016-2.48.485-3.563 2.043.555 3.968.48 6.005 1.147"/><path fill="#efe8c7" d="M356.593 97.89c-.069.138-.149.261-.282.336-.107.624-.672.965-1.179 1.413-10.629 10.085-21.936 20.576-31.6 30.88-1.632 1.589-3.147 3.184-4.949 4.613-1.04-3.274-1.067-7.178-3.91-9.365-.224 0-.394 0-.506.229.864 2.822-.699 5.654-.566 8.71.406 1.978-.709 3.968-.581 5.946l-1.125.688c1.946-5.104 1.008-10.074.01-15.28l.112-.512c9.494-9.845 18.891-18.73 28.619-28.357 4.213-3.936 8.432-8.427 12.875-12.416.026 4.304 2.245 7.824 3.626 11.472zm.896-7.467c-1.136-2.645-1.557-5.355-.944-8.325 1.291 2.805 1.6 6.128 1.424 9.333z"/><path fill="#773141" d="M356.831 90.882c-.992-2.555-1.632-5.27-1.189-8.272.17-.56.501-1.19 1.184-.907.853.613.858 1.51 1.258 2.315.534 3.957 1.072 8.197-.144 12.218l-.506 2.08c-.128.23-.358.47-.496.688-.886 3.408-3.062 7.782-.438 11.104l.395.107c.117.165-.112.283-.048.395 1.024 1.573 1.659 3.21 2.459 4.906.981 2.763 2.016 5.531 3.504 8.123 1.786-3.685.858-7.301-.064-10.912-3.419-3.723-4.47-8.459-5.686-13.099.112-.165.102-.506.395-.506 1.029 3.05 1.845 6.272 3.115 9.258.853 1.462 2.048 2.763 2.906 4.219 1.11-3.115 1.936-6.571 1.52-10.08-.64-2.88-2.698-6.315-5.925-6.97.112-.177.336-.118.507-.118l.101-.907c.368-4.693.507-9.62-1.216-13.968-.395-.448-.741-1.584-1.531-1.173-.672 1.184-2.085 1.477-2.528 2.843-.49 3.226.379 6.613 1.702 9.434.112.336 1.141 2.368 1.317 3.504l.112-.01c.224-.39-.005-1.067.219-1.355.053-.448.101-.907.144-1.365z"/><path fill="#9a3b26" d="M308.554 80.706c.346 1.466-.203 3.674.144 5.152.458.448 1.248.042 1.813.325l1.525.613c.128 1.52-.085 3.104-.586 4.646-1.296.4-3.056-.779-4.07.25-.149 2.992-.304 5.483-.965 8.427-.901.523-2.037-.043-2.939.139-.624-.118-1.306-.171-1.818-.619.378-3.05.357-5.819.341-8.821-.965-.384-1.813-.102-2.832-.208l-1.019-.166c-.069-1.92-.074-3.616.363-5.21 1.637-.571 2.603.106 4.24-.416.725-1.478.32-3.344.704-4.928z"/><path fill="#b3995d" d="M254.47 81.735c-.853-.165-1.931-.384-2.837-.773.784-1.424 1.925.378 2.837.773"/><path fill="#9a3b26" d="M353.648 80.423c.17.166.4.33.458.678-.789.458-1.749.394-2.656.522-.906-.053-1.749.635-2.544.235 0-.277.278-.507.507-.736.565.23.619-.395 1.013-.512 1.131-.405 2.144-.47 3.222-.187m-.039 2.592c-.511.01-.853-.448-1.247-.666.507-.112 1.019-.112 1.414-.406-.171.294-.224.688-.166 1.072"/><path fill="#b3995d" d="M263.199 85.623c.544.144 1.099.288 1.365.635.134 2.256-.314 3.792-.469 6-.912-.96-1.088-2.427-1.947-3.552-.202-1.104-.085-2.15.208-3.136z"/><path fill="#9a3b26" d="M263.216 85.068c.405.075.848.352 1.29.272-.176-.96-.576-1.738-.864-2.645-.405.715-.784 1.467-1.072 2.25z"/><path fill="#b3995d" d="M257.046 87.036c1.152 2.822 3.258 5.19 4.469 8-2.667-.426-4.043-3.365-6.645-3.802-3.686-.71-7.648-1.195-10.944-3.094.501-1.136 1.744-1.989 2.528-2.896 3.402.94 7.029 1.98 10.592 1.792"/><path fill="#9a3b26" d="m344.348 85.223.395.4c.069 1.808-.091 2.944-.192 4.81.4.449.965.449 1.53.385-2.245 2.73-5.114 5.29-7.76 7.69l-.026-3.68c-1.36-.613-2.656.022-4.187-.48-.181-1.237-.075-2.82.197-4.122 1.243-.24 3.339.31 4.752-.155.555-1.637.603-3.397 1.099-4.981 1.584-.128 2.715.49 4.192.133m-104.524 3.952c-1.615 1.84-2.788 2.923-3.391 4.101-3.141 3.98-4.922 8.406-6.874 12.886.346.794.576 1.749 1.034 2.544 2.166-6.459 6.331-11.723 11.024-18.304z"/><path fill="#d1b881" d="M360.807 94.194c-.357.362-.581.81-.496 1.456 1.195.272 2.501 1.232 3.072 2.075l-2.256-2.646z"/><path fill="#9a3b26" d="M361.137 93.88c.597-.497 1.344-.918 1.701-1.633h.171c2.965 4.101 5.312 8.448 7.605 12.789l.859 2.315c-3.392.352-3.019-3.771-4.726-5.573-1.61-2.358-3.178-4.896-5.248-6.992z"/><path fill="#b3995d" d="M269.446 96.514c.123 1.984 2.005 4.01.432 5.888-.976-2.032-3.984-3.707-2.987-6.49.8.394 1.814.095 2.555.602"/><path fill="#9a3b26" d="M229.391 106.738c.806 2.197 1.275 4.571 2.08 6.715-1.765-1.403-2.741-3.606-3.941-5.467-.288-.731.048-1.52.613-2.032.507-.011 1.131.272 1.248.784m145.845 4.485c-.053.23.171.576-.165.688-2.16-1.008-3.861-2.298-6.016-3.072-.346-.341-.8-.73-.858-1.237 2.885.027 5.663 1.029 7.039 3.621m-147.674 1.243c.8 1.739 2.453 3.205 2.405 5.184-1.36-.331-2.784-1.957-3.189-3.323.229-.165-.283-.218-.283-.218-.176-1.238-1.541-2.427-.474-3.675 1.072.165 1.024 1.355 1.541 2.032"/><path fill="#773141" d="M362.077 123.65c.4.501-.219 1.077.464 1.525.304 3.115.608 6.677-1.414 9.173-.288-1.301-.528-3.114-1.104-4.517-1.045-4.523-4.464-8.181-4.496-12.981.102-1.76.598-3.51 1.099-5.222 2.288 3.846 2.997 8.24 5.451 12.022"/><path fill="#9a3b26" d="M377.436 118.338c-3.115.021-4.438-3.814-7.275-4.528-.283-.448-1.077-.784-.912-1.355 3.227.768 6.976 2.56 8.187 5.883m-149.616-1.184c-1.883 6.416-3.707 13.434-3.552 20-.144 4.021-.288 7.53.469 11.589.261 4.752 2.037 8.88 2.581 13.856-.912-1.136-3.514-.821-3.018-2.757-1.392-5.366-1.136-9.952-1.792-15.264l.106-1.019.054.112s-.128-2.768-.08-3.957c.421-4.534-.347-10.187 1.317-15.115.539-3.179 1.541-6.24 2.592-9.237.288.613.917 1.061 1.317 1.792"/><path fill="#9a3b26" d="M376.823 120.279c1.387 4.406 1.142 10 2.358 14.352.016 2.208.48 4.635.042 6.731-.57-.795-1.813-.667-2.048-1.627-.32-5.706-.528-11.824-1.92-17.189-.128-1.915-.928-3.509-1.392-5.312.688 1.301 3.456.939 2.96 3.045"/><path fill="#000" d="M272.758 119.41c.342-.048.795.053 1.419.106.736.272 1.755.555 2.043 1.408-.677-.117-.906-.794-1.642-.784-1.307-.33-3.062-.72-4.246-.09-.229-.118-.117-.336-.117-.502.283.102.283-.229.395-.346.512.272 1.808-.07 2.149.208"/><path fill="#773141" d="m360.343 135.372-.283.288c.011 1.302.022 2.827-.426 4.075-.811-3.269-3.542-5.584-4.299-8.917-.187-2.656-.32-5.872.736-8.491 2.176 4 3.957 8.357 4.272 13.045"/><path fill="#b3995d" d="M299.974 136.327c-.677.512-.784 1.19-1.52 1.483-.741-.848-1.536-1.573-2.165-2.533.037-2.768.928-5.206 1.589-7.648l.39-1.643c.074 3.509.949 6.96 1.706 10.341"/><path fill="#1691ff" d="M221.547 136.141c-.8 1.541-1.003 3.114-1.328 4.885.57.336 1.136.565 1.648 1.013.122-2.096.272-4.074.32-6.181z"/><path fill="#efe8c7" d="M222.117 134.914c.026-1.094.049-2.208.08-3.344-1.125 1.184-2.421 2.549-2.694 4.261-1.28 3.061-.458 7.237-1.06 10.299-.667 2.042.139 4.469-.581 6.624-.448.858-1.179 1.877-2.251 2.053-.517-.789.789-.853 1.12-1.424.843-1.648.997-3.627.592-5.323l-1.013 1.248c-.278.342-.454-.154-.736-.218.789-.854 1.573-1.707 2.021-2.731-.011-1.749.821-3.792.587-4.928-1.686 1.712-4.347 1.387-6.491 2.197.341.448.629 1.126.523 1.755-3.275 1.653-.934 4.923-1.595 7.643.123.96 1.307.554 1.877 1.114.006.971-1.242.24-1.749.587-.555 2.208-.651 4.757-.24 7.072.224.048.283-.229.507-.347.058.118.229.171.17.336l2.374-.346c.058.106.288.218.176.389-.79.341-1.755.24-2.544.528.058.512-.555 1.813.522 1.749.624.336 1.472.95 1.254 1.803.512.613 1.018-.24 1.642-.069.4.57-.106 1.018.011 1.578-1.019.742-1.456 2.272-2.763 1.659.134 3.28.55 6.053.571 9.397.507.278 1.243-.181 1.643.384-.283.512-.624.166-.907.395-.555 1.701-1.28 3.355-1.093 5.333l1.013-.24c.97.731.187 2.427.704 3.451.96-.512 1.968-1.312 2.469-2.336 1.126-.517.512 1.013 1.083 1.408.795.053.73-1.024 1.349-1.136.171.155.059.448.118.613.682.054.8.907 1.424 1.243.394-.117.448-.576.672-.853.229-.064.341.165.512.218 0-.282-.006-.96-.006-1.242-1.2-1.574 1.851-2.102.822-3.739.784-1.813-.246-3.344.08-5.211-.747-1.573-1.777-3.717-1.051-5.477.901-.112.853 1.408 1.083 1.52-.128-2.091 1.338-3.227 1.946-4.987.171-.282.454.048.571.155l-.16 1.872h.112c.677-.571.73-1.301.496-2.037.112-.118.224-.283.394-.23l.123-.512a3 3 0 0 1-.24-.282c.726-2.043-2.053-2.198-2.288-4-.341-.56-.293-1.696.496-1.926-1.445-4.688-1.077-9.04-1.616-13.738-.97-1.574.87-4.699-1.616-5.254-.4-.33-.453.118-.736.294-.016-2.144.15-4.699 1.504-6.48l.784-.768"/><path fill="#9a3b26" d="M226.332 167.581c1.617 1.402 3.867 1.978 5.622 3.413.059.181.288.283.176.512-.394.571-1.189.293-1.696.24-1.536-.843-3.061-1.115-4.09-2.635-.038-.25.181-.586.176-.864l-.187-.666"/><path fill="#efe8c7" d="m305.638 145.911-1.482-1.355c.896-1.584-.021-3.498.422-5.258.32-2.774 1.264-5.323 1.472-8.155.768 4.635.917 10.352-.411 14.768"/><path fill="#773141" d="M359.078 141.383c.012 1.696.08 3.611-.815 5.093-2.123-4.229-5.488-8.677-3.765-13.722-.059-.278.106-.854.442-1.131.763 3.499 4.283 5.968 4.139 9.76"/><path fill="#efe8c7" d="M300.146 136.828c.065 1.248.523 2.262.646 3.51-.459-.907-1.877-1.456-1.771-2.48.342-.278.79-.79 1.126-1.019"/><path fill="#9a3b26" d="M379.234 142.546c1.13.629 1.253 1.978 1.429 3.168.005.282-.331.677-.16.906-1.2-1.866-3.76-3.824-4.565-6.085l.112-.277c1.077.666 2.72.885 3.184 2.288"/><path fill="#b3995d" d="M294.684 141.404c-.219.443-.784.736-1.008 1.184-.006-.394.448-1.018.384-1.632.341-.064.4.267.624.448m19.989 7.414c-.122-.123-.277-.251-.363-.352-1.301-.283-2.432.458-3.386 1.376-.39.677-.843 1.36-.779 2.208-.4-.848-1.253-1.691-1.77-2.598.33-1.749 2.074-3.061 2.346-4.709.56-1.184 1.056-2.715 2.411-3.403.496 2.747 1.765 4.48 1.85 7.435z"/><path fill="#1d5c42" d="M314.022 149.287c-.219-.187-.459-.352-.726-.197-.96.112-1.92.853-2.256 1.76-.336.458-.106 1.018-.384 1.312.576 1.52 1.942 2.645 2.966 3.936.677-.678.389-1.531.72-2.438.544-1.269.72-2.517.688-3.76z"/><path fill="#773141" d="M357.643 146.764c-.779 2.043.645 3.963.491 6.107.064 1.467-.496 2.32-.715 3.685h-.112c-1.84-4.8-4.704-10.218-2.757-15.488.976 1.968 2.117 3.782 3.093 5.696"/><path fill="#000" d="M220.859 143.964c-.107.907-.496 2.272.416 2.774 0 .442.459.725.517 1.12-.112.117-.224.282-.394.181-.288-.4-.464-1.024-.918-1.301-.16.965-1.061 2.33-.09 3.061.229.507.517 1.072.405 1.632-.571-.331-.629-1.072-1.029-1.52-.112.347-.166.853-.502 1.024h-.17c.266-2.491.992-4.469 1.258-6.859l.224-.165c0 .117.171.053.283.053"/><path fill="#9a3b26" d="M379.26 147.015c-.176-1.173-2.101-1.509-1.547-2.928.63.96 2.272 1.792 1.547 2.928"/><path fill="#1d5c42" d="M271.607 151.223c-.064-.965-2.043-.896-2.843-1.851-1.019-.618-1.595-1.626-1.659-2.816 2.15-.405 3.856 1.056 6.118.635 1.749-.747 3.728-.923 5.706-1.115-2.65 1.328-4.672 3.376-7.322 5.147"/><path fill="#efe8c7" d="M301.467 149.047c-4.976.032-8.405 3.333-12.928 4.613-1.92.523-4.293.699-6.277.438.677-.571 1.296-1.094 1.685-1.872.8-.624 2.672-1.51 2.672-1.51s4.635-.032 6.821-.48c2.086-1.146 4.406-1.781 6.491-2.981z"/><path fill="#773141" d="m356.63 156.674-.224.165c.299 2.656.432 5.323-.688 7.595-1.205-2.656-2.805-5.189-3.504-8.075-.069-2.144 1.109-3.803 2-5.616.864 1.867 1.611 3.963 2.416 5.931"/><path fill="#000" d="M312.978 152.029c-.79 1.018.746 2.09.357 3.061-.565-.283-.517-1.248-.976-1.803-.171-.458-.123-1.418.619-1.258"/><path fill="#b3995d" d="M280.113 154.391c1.078-.293 2.374-.981 3.158-1.717-1.014.8-1.798 1.872-3.158 1.717"/><path fill="#000" d="M217.766 155.309c-.165.789.07 1.866-.608 2.373-.117-.789.214-1.643.096-2.539.171-.229.507-.064.512.155m166.64.571c.064 1.136 1.147 1.978.816 3.168-.746-1.238-1.205-2.656-1.722-3.958.56-.229.682.512.906.79"/><path fill="#efe8c7" d="M296.311 156.86c-1.242.571-1.674 3.323-3.322 2.144l-1.243-.101c1.408-.741 3.04-1.573 4.565-2.043"/><path fill="#000" d="M219.143 158.172c.293 1.696-1.221 3.75.939 5.094.112.346.458.73.117 1.072-.565-.448-.741-1.238-1.253-1.803-.331 1.419-.379 2.608-1.28 3.803-.112.282-.454.117-.619 0 2.133-2.219.752-5.771 2.096-8.166m92.688.72c-.565-.053-1.525-.053-2.037-.218l-.006-.283c.683.165 1.472-.011 2.043.501m-94.187 4.054c-.224.112-.282.277-.506.229-.006-.677-.24-2.032.549-2.272z"/><path fill="#9a3b26" d="M230.048 165.234c.117.576-.507.458-.784.688-2.096-.384-4.928-.811-5.456-3.414-.059-.229-.118-.512-.064-.794l.4-.23c2.208.886 4.032 2.459 5.904 3.75"/><path fill="#773141" d="M355.324 164.994c-.165 0-.277.229-.389.346l.011 1.814c-1.03-1.75-2.688-4-1.798-6.208.688 1.29 1.323 2.874 2.176 4.048"/><path fill="#000" d="M322.61 163.004c-.502.96-.496 2.544-1.392 3.574l-.171-.342c.277-.394.501-1.024.667-1.584-.006-.576-.182-1.866.896-1.648"/><path fill="#9a3b26" d="M212.343 165.628c-.053.459.006.971.518 1.136l1.242-.122c.006.842-.784 1.2-1.344 1.76-.453 0-.906.341-1.413.074-.405-1.024-.133-2.608-.256-3.962.512.336 1.024.501 1.253 1.114"/><path fill="#000" d="M381.688 163.639c-.395.512-.896 1.253-1.579 1.429.224-.512.784-1.301 1.579-1.429m7.131.64c-.166.229.005.507-.278.459-.229-.4-.794-.63-.912-1.024a.96.96 0 0 1 1.19.565"/><path fill="#9a3b26" d="M349.02 208.652a14 14 0 0 1-.149-.49c.048-.102.128-.208.208-.304l1.376-1.195c.421-.437 1.003-.795 1.173-1.179l.112.107c.955-.848 1.627-1.877 2.411-3.067.821 3.035-2.549 3.68-4.4 5.232z"/><path fill="#1691ff" d="M350.148 208.37c1.152-.987 2.661-1.728 3.739-2.614-.208 2.539-1.835 4.811-2.95 7.147-.48-.992-1.162-2.24-1.664-3.531l.875-.992"/><path fill="#b3995d" d="M346.282 203.255c-.315-.8-.672-1.595-1.083-2.309 1.638-.918 3.44-2.118 4.107-4.107-.096 2.544-.256 4.304-1.147 6.512-.032.528-.512.896-.8 1.28l-1.077-1.365"/><path fill="#1d5c42" d="M347.271 205.506c1.909-1.648 2.458-4.544 2.672-6.854.09-2.896-.208-5.77.789-8.554 1.387-4.539 5.328-8.07 5.92-12.934 1.488 3.782 2.992 8.582.357 12.267-1.893 4.544-1.008 10.421-4.373 14.4l-2.533 2.459-1.355 1.162a1.54 1.54 0 0 0-.443.71c.352 2.197 1.611 4.064 2.47 6.096.794.101.394-.795.789-1.136 2.299-3.355 3.627-7.606 3.376-11.451.427-3.968 4.197-7.269 4-11.621.443-1.76 1.957-3.126 3.141-4.491.832 6.843 1.563 14.24-1.568 20.656-1.728 4.261-5.045 7.333-7.397 11.248.923 2.709 2.811 5.419 4.24 8.128 4.523 8.011 9.947 15.552 13.675 23.84-1.014.24-2.539.752-2.928 2-6.907-9.344-12.742-19.104-18.688-28.853.282-.448.682.165.789-.507l-.395-.283c-2.709 1.488-6.725 1.803-9.285-.336-3.173-1.114-6.395-.298-9.568-1.354-2.949-.656-5.563-2-8.672-2.208-2.325-.832-4.656-1.83-6.251-4.144-.229-.448-.181-1.238.502-1.302 3.05-.533 5.269 1.654 8.437 1.136 2.939-.021 5.872-1.68 8.656-.229l3.285.656c3.408 2.635 6.88 5.216 11.238 5.248l.224-.395c-.811-2.373-1.728-4.688-2.822-6.938.059-.123-.853-1.467-1.141-2.032-1.264-2.603-3.92-2.416-6.133-3.019-1.243-.336-2.486-.043-3.68-.363-3.504.694-6.774 2.352-10.56 2.603-3.339.08-7.131.667-8.96-2.875-.347-.853-1.088-1.52-1.147-2.426 5.323 1.146 11.205.437 16.176-.731 1.76.437 3.733-.533 5.435.085 1.813.715 3.573 1.664 5.504 2.278 1.013-.342.101-1.248-.016-1.814-.512-1.12-1.424-2.026-2.054-3.04-3.098 1.888-7.685 1.126-11.018 1.483-4.48-1.659-9.136-3.845-14.336-2.731-1.243.176-2.768.976-3.787.07 1.237-1.131 1.733-2.944 3.648-2.955 2.656-1.147 5.493.352 8.325.283 2.939-.523 5.382 1.152 8.144.005l3.28-.693c.966.384 1.536 1.392 2.443 1.61l.112-.101c.453.395 1.307.501 1.925.272.283-.293-.117-.677-.4-.795-2.09.459-3.237-1.445-4.373-2.634-.235-.79.613-1.248 1.008-1.76.283.229.512.73 1.077.448 1.355-.688 1.531.778 2.779.768.741.96 1.312 1.802 2.165 2.65.112.176.278-.053.39-.117-.23-1.008-1.307-1.856-1.936-2.533-.742-1.184-.47-2.998.373-4.07-.517-.512.437-1.082.725-1.418 1.12-1.03 2.598-.187 3.952-.768.011 1.925.87 3.904.715 5.717-.336 1.008-1.461 1.643-1.68 2.779.112.053.229.272.395.17 1.066-1.2 2.474-2.346 1.898-4.197-.917-1.584.032-3.397-.709-4.981 2.389-6.635-2.139-16.118 4.443-21.419l1.408-1.312c.65 4.699-1.014 9.968-.811 14.896-.085 4.357-.272 9.28.256 13.627.187 2.666-1.099 5.269-3.296 6.757-.619.171-1.125.576-1.632.907.181 1.093.768 2.042 1.259 3.056l1.546 1.914"/><path fill="#000" d="M383.441 164.258c-.101 1.237.758 2.592-.256 3.445l-.021-3.445z"/><path fill="#9a3b26" d="m227.904 166.279.24 1.797a3.4 3.4 0 0 1-1.93-1.392l-.011-1.024c.683-.112 1.082.566 1.701.619"/><path fill="#773141" d="M354.678 170.215c-.053.165-.111-.459-.453-.293-.164.405-.047 1.2.012 1.706-1.03-1.632-2.63-4.122-1.115-6.101 1.029 1.227 1.663 2.981 1.556 4.688"/><path fill="#000" d="M217.963 168.946c.234 1.349.869 2.528 1.44 3.653l-.283.347c-.853-1.125-1.259-2.597-1.664-4-.336.507-.443 1.52-1.237 1.36.56-.853 1.008-1.653 1.344-2.56.736.112.117.853.4 1.2m161.434.08c.566-.283 1.184-1.072 1.803-1.195-.277.624-1.008 1.312-1.803 1.195"/><path fill="#b3995d" d="M271.868 175.591c.55.875 1.275 1.968 2.454 1.76 5.861-3.376 10.128-8.96 15.018-13.856.342.165.683.283 1.024.512 3.627.757 6.694 3.173 10.214 4.395 4.522.314 8.517-2.875 11.952-5.675 1.242-.283 2.101 1.173 2.896 1.968.064.448 1.141.944.181 1.291-1.083-.667-2.427.021-3.568-.198-.677.011-.901.854-.784 1.366.405 1.829 1.579 3.402 3.051 4.602l-.736.491-1.878.384c-3.226-.208-6.517-1.429-9.69-2.373-.795-.502-1.76-.667-2.667-.992-2.997-.155-6.341-.582-9.051.218-.224.624-.048 1.531.299 2.155 2.784 2.128 5.957 3.125 8.8 5.035 3.184 2.133 6-.096 9.045-.854l5.942-.149c.618-.059 1.413.053 2.037.272 1.925.405 3.893-.011 5.221-1.125l1.526 1.52c-.662-.299-1.483.021-2.39.032-1.072.282-2.714.176-3.728.533-.736.395-1.696.229-2.373.688-3.392.699-5.755 3.205-9.317 3.456-2.486.405-4.816-1.269-7.243-.075.128 2.096 1.605 3.387 3.088 4.678 2.16 1.525 5.605 1.045 7.637-.038l.112.048c.784-.538 1.563-1.082 2.491-1.344l-.272 1.264c-2.016 3.174-5.243 4.736-8.805 5.04-.907.064-1.638.864-2.544.534.048-1.584.261-3.792-.262-5.211-.453-.155-1.018-.501-1.525-.208-1.525-.731-2.821.075-4.293.533.458.79.069 2.144-.038 3.163-1.408.688-2.826-.027-4.293.656-.053.677-.443 1.307-.272 1.92-.501 1.477-.261 3.291.032 4.592.453.448 1.019-.123 1.525.208.683.053 1.078-.112 1.584.107-.208 2.768-.357 5.312-.341 7.914 2.037.555 4.192.603 6.112.47.603-2.315.48-4.8.693-7.008l4.347-.88c.725-.8.261-2.614.373-3.568l.224-.283c2.038.437 4.075.032 5.995-.155-1.408 1.142-3.04 2.112-4.448 3.083l.4.853c.683.55 1.76.603 2.549.262l.112.112c1.019-.24 1.75-.752 2.768-.752-.389 1.013-1.461 1.418-1.85 2.442.576 1.35 2.378.891 3.568.822 2.144-.742 5.029-.875 7.125-.374 3.12.987 5.445 1.542 8.395 2.934-1.579.634-2.827.634-4.464.826-3.451.464-7.126.155-10.299-.554l-.229.218c.128 1.696 1.434 3.222 2.464 4.688 2.048 2.075 4.426 1.835 7.082 1.648 1.696.08 3.339-.261 4.971-.72l.128.987c-.043.304-.027.64 0 .939 2.091.272 4.475.709 6.619.357.389-1.024.384-2.432.373-3.792.395-.629 1.189.048 1.696-.181 2.555.938 6.053-.208 7.152 3.125-1.92 1.2-3.605 2.512-5.579 3.595l.112.053c.091-.032.187-.064.278-.117l-.971.106c-1.28-.72-2.661-1.21-4.293-1.146-2.214-.832-5.152-.134-7.355.218-3.616 1.094-6.464-1.824-9.851-.96-.506.294-.789.742-.725 1.366 2.069 3.989 6.507 4.709 10.608 5.77l-.629.182c-2.144.746-4.347 1.445-6.651 1.84-6.784.437-13.968 1.44-20.587 1.658l-.394-.282c.501-.971 1.232-1.872 1.221-3.062-.453-.229-.624-1.013-1.248-.73-1.52 1.136-2.299 3.178-3.931 4.096-.794-.336-1.701-.438-2.549-.656.672-1.254 3.493-2.171 2.176-3.92-.112-.176-.448 0-.56-.166-.507-.053-1.019 0-1.243.624-1.632.635-2.304 2.118-3.653 3.083-.171.229-.512-.112-.624-.219-9.125-1.632-17.131-6.122-25.083-10.757-1.248-.613-.122-1.419-.352-2.427-.858-1.53-2.042-.448-3.061-.389-.901.688-1.531-.715-2.155-1.115.278-.394.678-.394.955-.789a2.7 2.7 0 0 0-.123-1.867c-1.648-.613-3.456-.373-4.986-.538-.96-1.179-2.214-2.187-3.296-3.264l-.112.117-.688-1.008c2.704-2.677 5.797-5.253 8.261-8.085.133 3.104-.069 5.706-.048 8.821l.453.501c1.472-.293 3.622-.021 5.094-.416.544-2.336.474-4.368.853-6.752 1.072-.965 2.885.043 4.245-.298l.07-6.859c-.971-1.344-4.182 1.157-3.579-1.664 2.416-2.512 5.797-4.907 7.931-7.696.784-.795-.635-1.408-.752-2.139.133-.122.256-.24.373-.373l.528.907"/><path fill="#efe8c7" d="M271.637 174.348c.182-.186.374-.373.625-.549-.176-.795-.864-1.749-1.547-2.427-.789.059-1.349 1.312-2.085.811-.8-.971-1.035-2.427-.645-3.627 1.642.16 3.061 1.056 4.09 2.523.576 1.867 2.678 3.376 2.182 5.477.17-.01.282-.229.394-.341.102-2.325-1.664-3.845-2.469-5.76-.859-1.472-2.56-2.021-3.92-2.405 3.771-3.419 7.312-6.896 10.971-10.368 1.76 1.28 3.344 1.168 5.274 2-.17.17-.453.346-.506.624-.278.858-.048 1.584.746 2.096 1.472.208 2.944.373 4.198 1.093-3.6 3.936-7.366 7.867-11.248 11.28-1.35.971-2.416 2.171-4.059 2.064-.549-.293-1.029-.763-1.408-1.28z"/><path fill="#1d5c42" d="M311.691 185.164c-1.37 3.392-5.21 5.174-8.65 5.579-.682.283-1.418.229-2.037.688.635 1.307 2.048 1.344 2.955 1.845 3.514.374 7.525.011 9.882-2.949 2.256-1.541 4.907-3.259 5.68-6.032-2.346.293-4.906 0-7.365-.048l-.464.917"/><path fill="#1d5c42" d="M293.978 144.295c.832.021 1.488.411 2.368.032.395-.229 1.014-.405.896-1.019-1.024-1.354-1.877-2.085-3.189-3.258l-.277.341c-.763 4.981-5.771 9.083-10 11.312-3.83 2.971-9.766 4.085-14.08 1.563 2.816-2 5.856-4.384 8.842-6.384 2.875-1.488 6.667-1.291 8.912-3.91-.677-.277-1.413.064-2.149.064-.336 0-.789.459-1.072.011l.053-.053c-3.162 1.034-6.496 1.744-9.941 2.16-1.701.01-2.715-.72-4.363-.875-2.896-1.003-5.509-2.688-8.01-4.709 2.362-1.931 5.653-.368 8.149.122 3.403 1.051 5.707-1.456 8.645-2.261 3.782-.645 8.326 1.307 11.307-1.04l-.112-.053.336-.459c-.576-1.803-2.117-3.771-3.712-5.061-.795-.166-1.701-.502-2.432-.043-4.459 2.128-8.549 7.072-14.059 4.448-3.226-.261-5.786-2.112-8.176-4.299-1.253-1.802-2.341-3.669-3.482-5.52l.394-.181c2.827.491 5.323 1.888 7.878 3.179 4.709 2.458 7.808-.502 11.712-.752 1.13-.24 2.768-.299 3.045-1.552l-2.053-2.363c-2.379-.043-4.059 2.123-6.438 2.416-3.381 1.269-6.618-1.627-9.568-2.448-3.109.011-6.17-.219-9.178-1.387-3.398-.437-4.496-4.037-6.55-6.288-.229-.4-.906-.565-1.024-1.024 2.091-.517 3.798.71 5.611 1.275 1.984 1.173 4.592 1.104 6.912 1.195 3.904.149 6.075 3.802 9.92 4.01.731-.688 1.136.502 1.813.384 1.083.619 2.155.272 3.398.491.229-.011.394-.352.17-.517-1.813.122-3.68.08-5.104-1.494-.794-.896-.458-2.032-.522-3.162 1.008-1.536 3.333-.47 4.912-.544 1.813.437 2.389 2.362 3.472 3.488.282 0 .229.336.512.053-.176-.677-.971-1.008-1.254-1.685a4.76 4.76 0 0 0-2.186-1.888l-.283-1.136c-.997-3.52-3.232-6.582-5.419-9.488-.736-.272-1.184.624-1.861.752-3.819 4.821-10.336 3.061-15.323 1.904-3.178-1.563-6.394-.187-9.909-.96.619-.79 1.744-1.696 2.645-2.448 1.243-.176 2.539-1.424 3.734-.528.277-.283-.064-.512-.176-.678 1.578-.741 3.386-1.274 5.088-1.168-1.872-.602-3.963.198-5.6.95-2.448-2.304-2.246-5.878-4.971-7.899-.571-.56-1.707-1.227-1.317-2.133 5.264-.043 7.562 5.605 11.541 8.186 1.989 1.227 4.587.982 6.965 1.248 2.55.438 4.875 1.552 7.424 1.712.624.102.848-.576.731-.97-.805-1.915-1.947-3.835-3.712-5.062-2.037-.384-3.856-1.28-5.893-1.498-4.752.09-9.115-.731-12.475-3.878-1.424-1.344-2.901-2.928-4.331-4.554-.965-.56-1.813-1.339-2.613-2.299-.117-.395-.688-.843-.347-1.243 2.267 1.344 4.432 2.907 6.758 4.022 2.096.896 4.533 1.056 6.746 1.834 3.563-.085 6.011 2.555 8.854 4.294l1.018.101c.395-.277.448-.624.448-1.019-1.488-2.698-3.317-5.178-4.634-7.946-2.55-.379-5.323-.304-7.648-1.136-4.192-.763-7.664-4.086-9.558-7.92-1.728-5.083-4.698-9.579-8.01-13.979l.112-.112c1.194 1.061 3.12.997 4.261 2.405 1.152 3.835 3.44 7.563 7.024 9.968.789.395 1.701.72 2.048 1.68 2.501 2.539 5.456 4.267 8.853 4.758.512 0 .971 1.178 1.36.272-1.258-2.251-3.978-2.918-5.856-4.326 0 0-.229-.277-.394-.218l-5.846-2.56c-5.856-3.979-7.029-10.992-8.938-16.982.682.619 1.482 1.126 2.053 1.92.283.166-.224.726.283.384 2.677 2.534 2.138 6.603 4.869 9.248 1.819 1.856 4.363 1.846 6.635 2.731.965.79 2.218 1.856 3.573 1.397-.021-3.056-3.312-5.125-5.472-6.816-2.389-2.016-3.088-5.349-5.312-7.77-1.723-2.31-4.901-4.198-5.413-7.094l.874-.725c1.744 1.163 3.558 2.507 5.078 3.915 2.272 1.674 5.333 2.624 6.597 5.386 1.157 4.059 4.288 7.382 5.445 11.456 1.259 1.627.022 3.451.432 5.2.171.448.406 1.52 1.024 1.227-.17-.384-.288-.725-.512-1.008.091-2.939-.037-5.541-1.466-8.085-3.942-5.456-1.835-11.862-3.174-18.198-.17-.218-.17-.33-.005-.624 4.56 5.408 7.035 11.958 7.648 18.907 1.216 4.288-1.984 8.79.928 12.448.283.395.347 1.467.912 1.29-1.488-3.157.811-5.77 1.248-8.655.309-4.875-.352-10.363-2.64-14.646-.005-.565.731-.565 1.125-.405 3.302 2.416 5.019 5.968 5.952 9.75.347 1.583 1.094 3.28.987 5.146-1.04 4.021-3.397 7.152-4.848 10.944-1.109 3.077 1.451 5.035 2.197 7.525.23.443.006.955.235 1.238.88-3.904 2.149-8.614-.027-12.566.214-1.578 1.622-2.944 2.123-4.592 3.541 5.291 2.741 13.051.117 18.336-1.002 2.998 2.011 4.736 3.211 7.051l.736-.011c.56-.789.896-1.648.891-2.656-1.264-3.168-1.686-6.384-.912-10.01.885-3.014-.832-5.659-.118-8.656 1.083.842 1.43 2.304 2.347 3.376 2.341 3.717 2.432 9.322 1.611 13.509-.891 2.155-.475 4.811-2.219 6.635-.331 1.53 1.152 2.773 1.669 4.176l.507.218.144 4.139c.117 1.125 1.872.997 1.259 2.48.288.507 1.024.779 1.53.496-1.082-1.52-.48-4.187-.661-5.936l-.341-.283c.24 2.032-.368 3.968.549 5.712l-.171.176c-1.024-.512-.41-2.149-1.77-2.544-.011-1.29-.416-3.104-.139-4.24.331-1.018 1.52-1.365 2.363-1.76 4.085 1.552.426 4.752.842 7.408l.224-.01c.054-.336.278-.795.166-1.072 1.504-3.408 1.872-7.76.768-11.323-.128-2.992-3.76-4.837-2.592-8.128.101-.955.037-2.043.485-2.896l2.672 2.021c5.232 3.99 4.88 10.95 5.088 16.603.245 3.115-1.381 5.669-2.715 8.283.011 2.426.934 5.082 3.2 5.968.736-.112-.176-.614.507-.843.88-3.685 1.701-7.872.715-11.771.08-4.976-1.595-10.176-.272-15.397.554-2.485-.651-4.57-.544-6.843.56.23 1.072.843 1.418 1.355 4.006 7.04 5.03 16.491 4.512 24.304-.144 3.957-2.042 7.195-3.669 10.491.747 1.968 2.624 3.488 3.6 5.402.683.731 1.035 2.315 2.448 2.086 1.221-3.472-.949-6.395-.971-9.68-1.034-3.104.47-6.907.56-9.84-.362-3.398.235-7.867-.576-10.688.224-.128.342.154.566.101 2.794 2.981 3.328 6.939 4.762 10.544-.08 4.699.63 9.509-.698 14.272-.662 2.437-1.611 5.104-1.595 7.413l5.36 6.086.283-.176c-.427-4.576-2.091-8.416-2.406-12.939-1.098-4.571 1.478-8.107 1.451-12.635.043-1.968-.987-3.605-1.056-5.418 2.395 2.981 4.512 6.197 5.211 9.978 1.285 5.824 1.44 12.608-.39 18.448-.608 1.931.48 4.187-.528 6 .742.624 1.024 1.072 1.824 1.803-.17.117-.053.336-.112.512.23.112.342-.117.395-.176 1.616-4.251 1.984-8.896 1.163-13.472-.235-1.019-.528-2.539.202-3.456h-.112c-.746-1.739.032-3.397-.037-5.483.832-2.714 1.835-5.381 3.403-7.653l.229.384c-.181 7.253 3.035 14.752 1.323 21.376-.48 3.856-2.39 7.323-4.118 10.843.459 1.013 1.366 1.92 2.059 2.698l.112-.112c.683 1.75 2.171 3.094 3.419 4.56.506 0 .677-.282 1.013-.57.491-2.555 1.381-4.928 1.141-7.366.032-3.781-3.045-7.274-1.37-11.072-.363-3.344.858-7.253.832-10.826.512.512.746 1.072 1.146 1.648 1.552 4.112 2.144 8.634 3.307 12.864 1.285 6.448 2.629 13.114-2.485 18.186.229.502.288 1.126.576 1.638.176 1.125 1.312 2.144 1.776 3.322.394.395.741 1.184 1.306 1.291-.005-.843-1.141-1.52-1.034-2.592.784-1.701.709-3.792 2.741-4.827.453-.112 1.131-.229 1.525.107-.49 2.043-.704 4.133-.581 6.229 1.312 1.915-1.675 2.832-1.099 4.582.667-1.643 2.358-2.726 1.835-4.699-.693-2.779.757-5.499.229-8.485-2.986-7.115 4.96-11.867 8.267-17.035 1.195 2.427 1.563 5.76.96 8.427-1.829 6.512-2.912 13.365-5.989 19.386-.72 1.926-2.523 3.467-2.795 5.51l3.477 3.989c.395-.112.683.512 1.019-.011.027-3.957 1.648-7.589 2.469-11.333.47-5.936.544-12.384 6.006-16.448.346 1.253.528 2.709.309 4.075-1.595 7.477 1.344 15.781-3.931 22.042-.842 1.19-1.509 2.667-2.805 3.355-.389.624.181 1.125.293 1.749.624.79 1.195 1.915 1.542 2.822 1.584-.24 1.968-1.824 2.757-2.955 2.624-4.784 3.424-12.651 10.496-13.317l.347.261c-2.139 2.795-2.966 6.459-2.432 10.219-2.016 3.408-5.222 6.314-9.008 7.136.341.272.176.842.234 1.29.688 1.126 1.376 2.544 2.342 3.323.8 1.525-.886 3.013-.256 4.533-.678-.33-1.248-.73-2.038-.73-.634-1.456-1.541-2.875-2.8-3.936-1.306-1.638-3.226-.491-4.693-.086-4.224 2.63-8.336 5.942-13.307 7.104-2.768.587-5.365 1.91-8.192 1.92-.282-.053-.682-.336-.624-.613 6.48-3.835 11.984-10.325 19.67-11.845 1.413-.23 2.997.042 4.181-.646-.229-.96-1.029-1.637-1.371-2.533h-.4l.006.283c-2.763 1.605-6.16 1.626-9.44 2.042-2.934.918-6.571-1.146-9.27 1.072-2.197.864-4.853 1.334-7.242.438-1.36-1.062-3.686-2.294-3.36-4.272.624-.112 1.189-.176 1.802-.304 3.52 1.232 7.643.469 10.688-1.478 2.31-1.312 4.907-2.122 7.451-2.528 1.845.198 3.339-.688 5.253-.368l-1.92-2.176c-1.482.678-2.97 1.44-4.693 1.248-2.213-1.008-5.035.139-7.813-.352-3.11.198-5.862 2.875-8.87 1.478-2.73-1.739-5.626-3.019-8.405-4.528-.795-.512-1.707-1.296-1.6-2.315.901-.971 2.768-.352 3.733-.533 5.088-.704 8.779 2.096 13.259 2.869 1.904.277 4.256.965 6.059.208l1.264-.325c.746.533 1.546.992 2.357 1.344.059-.102.112-.283.224-.395 1.013-.165 2.032-.011 3.056-.533l-.005-.219c-1.078-.448-2.262.523-3.563.368-2.72-.896-4.832-3.659-5.248-6.421.848-.406 1.925-.416 2.944-.416 1.296.106 2.149.837 2.949 1.845.342.677 1.254 1.52.635 2.197-.741-.613-1.755-.885-2.667-.885 1.248.512 2.384 1.232 3.526 2.24 0-.053.053-.165.165-.107.171-.224-.171-.672.336-.736-.741-1.301-1.205-2.874-2.512-3.834.112-.23.283 0 .453 0-.229-.512-.234-1.419-.97-1.419-.688-.896-1.542-1.621-2.336-2.517-.624-.23-1.248-.566-1.926-.219-3.653 3.083-8.048 6.677-13.04 5.061-3.632-2.293-7.712-3.626-11.738-5.008-1.024-.282-2.155-.218-3.062-.784-.4-.613-.122-1.408.491-1.749 4.064-1.947 8.091.064 12.336.144 3.909.875 8.443 1.637 12.117.837.619-.41 1.92-.357 1.856-1.264-.73.347-1.52.624-2.256.971-1.36-.107-3.445.645-4.469-.187-.453-.97-1.083-1.92-.811-3.056.955-1.248 2.422-2 4.064-1.664.059.112.288.23.176.384 1.243.395 2.32 1.179 3.291 2.139-.053-.117.112-.171.165-.283-.117-.448-.512-.565-.8-.896-.736-.512-1.808-.677-2.154-1.472l-.683-.901c-.325-.336-.901-.576-1.36-.656-2.267.005-3.968-.939-6.112.027-2.933 1.898-6.149 3.157-9.248 4.645-2.037.011-3.963-.133-5.883.544-2.778-.656-5.557-1.376-7.77-3.115 2.704-1.824 5.872-1.28 8.986-1.466 4.576-.656 8.406-3.334 12.699-4.784 1.072-.176 2.32-.123 3.339-.416-.459-.96-1.312-1.739-2.059-2.646-1.755-.272-2.928 1.488-4.571 1.728-2.362 1.771-4.458 1.323-7.12 1.51-.506-.102-.901.522-1.301.01l1.915-1.53c1.066-1.136 2.138-2.112 3.034-3.302.144-.33.31-.677.507-1.018l1.195.048"/><path fill="#efe8c7" d="M292.992 143.9c.544-.874 1.238-1.696 1.979-2.229.741.576 1.307 1.072 1.765 1.803l-.394.346c-.8.507-1.675-.021-2.443-.032z"/><path fill="#9a3b26" d="M223.475 171.671c.01 1.531.245 3.168-.768 4.304-.624-.832-.918-2.315-1.035-3.157.224.282.341.677.683.794 1.296-.752.437-2.666 1.504-3.701.229.624-.278 1.2-.384 1.76"/><path fill="#000" d="M386.933 169.89c.229.896.8 1.749.752 2.656-.742-.278-.806-1.414-1.035-2.208-.059-.219-.005-.56.283-.448"/><path fill="#9a3b26" d="M230.435 172.423c2.358 6.208 5.964 11.957 9.334 17.595l.112-.118 3.43 4.795c.229.677-.843 1.136-1.238 1.696-6.042-7.477-10.682-16.112-13.909-25.029.795.165 1.531.778 2.272 1.061"/><path fill="#773141" d="M353.742 174.172c-.911-.832-1.541-2.133-1.098-3.552l.171-.064c.458 1.136 1.712 2.368.928 3.616m-83.815-1.664.62-.512 1.141 1.632c-.448.336-1.52.971-1.232 1.702.288.624 1.366 1.354.411 2.032-7.259 6.56-14.064 12.997-21.035 20.112-4.218 3.482-8.554 7.408-12.773 10.885-.464-1.52-1.211-2.928-1.333-4.571 2.309-1.824 3.989-4.437 6.469-6.149 7.472-8.656 16.245-16.853 24.165-25.509l.384-.208c1.184.394 2 1.781 3.179.586"/><path fill="#000" d="M383.714 171.266c.117.677.299 1.696-.325 2.208l-.182-2.427c.166-.011.336.053.507.219m-2.539 1.21c-.448.176-.73.624-1.237.459.448-.677 1.237-.859 1.797-1.365.459.218-.33.725-.56.906m-161.493 8.102-.224.176c-.405-1.531-.752-2.704-1.328-4.176-.565.165-.619.842-.896 1.253l.069 2.309h-.17c-1.147-2.298 1.562-3.802 1.152-6.176-.779 2.448 1.381 4.187 1.397 6.614"/><path fill="#773141" d="M353.594 177.175c-.512.059-1.024-.72-1.366-1.115-.346-.677-.181-1.648.208-2.272 1.083.907 1.483 1.915 1.158 3.387"/><path fill="#000" d="M383.292 175.628c-.335 1.126.359 2.662-.373 3.563l-.17-.165c-.005-1.072-.246-2.72.543-3.398"/><path fill="#773141" d="M353.266 178.589c-.282.394-.277.906-.389 1.301-.117-.613-.234-1.573-.186-2.309.565 0 .404.677.575 1.008"/><path fill="#000" d="m381.104 178.807-1.018.011c.507-.395 1.355-.47 1.803-1.147.341.565-.39.907-.784 1.136"/><path fill="#b3995d" d="M342.961 187.09c-1.866.074-3.562.133-4.57 1.562-.283-.165-.288-.853-.742-.906-.512-.731-.858-1.574-1.429-2.315.677-.459-.347-.725-.235-1.237 1.638-.459 3.499-1.27 4.795-2.571 1.237-.859 2.416-2.283 3.312-3.595.08 3.344.608 6.23-1.131 9.062"/><path fill="#000" d="M218.8 184.317c-.058.064-.112.127-.224.127-.458-.394-.234-1.135-.746-1.418-.395.576-.726 1.418-1.291 1.712.725-1.419 1.963-2.795 1.611-4.597l.389-1.019c-.048 1.466-.768 3.621.261 5.195m163.957-3.707c0 .512.118 1.125-.218 1.648h-.283c.166-.512-.005-1.301.502-1.648"/><path fill="#b3995d" d="M328.966 183.954c-1.579.405-3.563-.096-4.976.821-1.749.011-3.381 1.493-5.189 1.963.448-.795 1.232-1.595 1.226-2.443.736-.405 1.926-.069 2.827-.299 1.984-.01 3.675-.762 5.424-1.397z"/><path fill="#9a3b26" d="m366.883 184.786-.112.117c.917 1.403 1.152 3.104.767 4.688-.053.229-.282.395-.506.288-.917-1.861-.88-4.352-.891-6.496.453.331.683.896.742 1.403m-153.904.314.245 3.216c1.248.107 2.373-1.194 3.099-2.229.346.96.805 2.032.021 2.949-.619.795-1.579.971-2.309 1.542-.966 0-1.408 1.082-2.315 1.429-.235-1.92-.085-4.864.352-6.907.283 0 .619-.458.907-.01m50.938 1.605c1.131.155 2.203-.293 2.939.091l-.075 6.218c-1.408.47-3.397-1.04-4.352.544.07 1.803-.421 4.47-.693 6.512a66 66 0 0 1-4.581.198c-.075-2.827.128-6.283.17-9.056l-.117-.112 6.075-5.814c.341.448-.331 1.312.634 1.419m121.947 1.989v.054c-1.078-1.014-1.6-2.534-2.059-3.952.688 1.301 3.408 2.357 2.059 3.898m-86.816-2.437c.298 2.032.027 3.563.149 5.424.117.219.4.171.624.171 1.014-.576 1.136.944 2.043 1.226l1.019.272c-.102 1.414.24 2.603-.31 3.792-1.642.07-2.944.251-4.464.822-.101 2.272-.085 4.533-.352 6.842-1.696.24-3.338.022-5.098-.186-.294-2.32.08-5.435.346-8.032l-.229-.166-3.109-.096c-.352-1.978-.368-4.362.357-6.112 1.413-.128 2.656.144 3.957-.25l.224-.176.379-3.28c1.408-.859 2.826-.139 4.464-.251m64.955-.597c.474 2.656 2.421 6.666-.454 8.666-.24-2.208-.085-4.757-.72-6.954-.347-.742.437-1.931 1.174-1.712"/><path fill="#000" d="M379.788 185.442c-.277.848-.555 1.813-1.397 2.272.33-.789.837-1.76 1.397-2.272"/><path fill="#efe8c7" d="M220.96 194.498c-1.126 1.36.133 3.445-.992 4.693.17.229-.224.459-.278.741l.118.054c-.118 0-.171.064-.23.112-.117-.726-1.472-.614-1.029-1.622-1.531-1.52-.469-3.397-.651-5.264l-.282-.33c-.56.906-.043 2.261-.774 3.05.176 1.126-.837 2.043-.944 3.179.966.101.672-1.365 1.232-1.925a17 17 0 0 1 1.035 2.245c-.448.859-.384 1.867-.773 2.72l-.742-.677c-.901.634-.442 1.877-.602 2.613-.79.971-.88 3.056-2.811 2.389-.224.123-.565.123-.731.406.118.842.96.053 1.35.218.624.102 1.13-.24 1.584-.522.112-.342.613-1.019.949-1.531.347.731.464 1.867 1.429 2.085-.33 1.696-.032 3.446-.362 5.206.234 1.418-2.246 2.272-2.011 3.92-.453.165-.048.677-.448.906-.405-1.408-.805-2.826-.816-4.41 1.232-1.195 2.464-2.955 1.781-4.886-.96.358-1.066 1.542-2.085 1.659-.224-.336-.341-.896-.853-.896-.448.165-.219.677-.502 1.019-.405-.907-.186-2.256.208-3.163 1.462-.688 1.227-2.731 2.182-3.813.101-1.024.778-2.096-.187-2.544-.352-1.75-.704-3.499-1.563-5.083-.624-.101-.789.459-1.125.864.101-.965-.752-2.603.261-3.509l1.456-1.43.171.23c1.013-.571 2.203-1.04 2.875-1.947.458.843.746 1.979.922 3.051.171.17.566-.059.624-.342-.122-1.136-.752-2.314-.986-3.562.677-.112.784-.854 1.008-1.302.81 2.592.938 5.03 2.597 7.398"/><path fill="#9a3b26" d="M221.288 192.685c.117.277.117.789.011 1.136-1.147-1.979-1.558-4.241-2.08-6.438.4.331.853 1.227 1.418.614l.395-.406.112.112.272-.512c-.32 1.701-.987 3.627-.128 5.494"/><path fill="#efe8c7" d="M217.685 187.383c-.053.176-.112.341-.224.405v-.394z"/><path fill="#000" d="M380.256 187.591a9 9 0 0 1-1.344 2.208c-.176-.843.779-1.701 1.344-2.208"/><path fill="#b3995d" d="M332.959 189.538c-.789.053-1.584-.219-2.544.293-.224 0-.677.011-1.013.24-.166 1.008-.267 2.592-.374 3.958-1.696.122-3.45.021-4.97.933l.005 1.136c-2.709.411-4.757-.704-7.36-.581.565-.395 1.472-.406 2.032-1.03 2.309-1.082 4.4-2.346 6.539-3.722.789-.342 1.52-1.312 2.538-1.542 1.296-.736 2.198-1.424 3.728-1.04.454.56 1.024.779 1.419 1.355"/><path fill="#9a3b26" d="M334.447 191.559c-.842.789-2.762 1.605-2.133 3.125.117.278.512.507.517.843-2.549.021-5.477 1.728-8.143.56-.176-.624.101-1.349.896-1.36 1.301-.011 2.714-.357 3.845-.075.784-1.541.325-2.49.597-4.085 1.36-.011 4.176-1.664 4.421.992"/><path fill="#000" d="M340.582 195.255h-.224c-.123-.96.096-2.549.597-3.344-.107.971-.096 2.437-.373 3.344m37.445-2.448c-.795.293-1.749 1.083-2.544.523 0-.219.283-.118.395-.118v.118c.677.053 1.354-.576 2.149-.523"/><path fill="#9a3b26" d="M212.823 195.9c.347 1.584 1.035 2.939 1.275 4.587.96.437.176 1.632.128 2.427-.512.277-1.184.906-1.755.517-.01-2.208.086-4.469-.549-6.448.165-.507.448-.8.901-1.083"/><path fill="#773141" d="m231.901 197.82 2.47 5.36c-1.467 1.024-3.046 1.942-4.224 3.307.005.277-.448.507-.107.789-.053.118-.224.118-.341.118-1.707-1.974-6.134-3.526-5.131-6.699.832-2.16 2.859-4.032 5.061-4.501 1.072-.123 1.648.896 2.272 1.626"/><path fill="#000" d="M339.233 196.391c-.565.229-1.419-.501-2.208-.373l-.005-.395c.736.267 1.701.208 2.213.779"/><path fill="#9a3b26" d="M219.413 200.727c-.213 1.696-.709 3.968-1.435 5.84h-.17a6.73 6.73 0 0 1-1.04-3.893c.624.384 1.242-.128 1.408-.688l.384-1.99c.394.054.512.512.853.731"/><path fill="#efe8c7" d="M247.212 202.983c-.165.448-.218.907-.501 1.355.005.576-.443 1.082-.384 1.594.235.96-.837 1.814-.491 2.657.64 2.821 4.614 4.896 2.992 8.021.006.677-.16 1.914.246 2.656-.454.613-.907.117-1.36.229-1.632 1.312-1.056 2.896-.592 4.581.304 3.462-2.907 5.745-1.472 9.078-.891 1.915.026 3.728.042 5.818-.336.63-1.354.742-1.408 1.595.976 2.427-1.264 4.646-.746 7.243-2.022 1.6.933 3.904-1.2 5.498-.054.96.122 1.915.016 2.768-.683-.559-.582-2.485-1.824-1.797.117.8.181 1.579.128 2.32-.336.166-.795-.501-1.131.011-.155 1.915.981 3.269 1.728 4.794l.507-.229c.122.901.352 1.862-.15 2.768l-.618.571.112.117c-.566.229-.571-.843-1.248-.896-.624.053-.507.23-.79.742-.277.56.07 1.584.128 2.197-.282-.219-.624.011-.848.24-1.365-1.355 1.003-3.013-.533-4.075-.341-.112-.453.229-.795.117-.453-.73.048-1.525-.858-2.031 1.525-.23 2.021-1.878 2.357-3.067-.117-.736.16-1.478-.24-2.155.843-.624 1.344-1.76 1.851-2.667-.059-.229-.176-.56-.459-.624a40 40 0 0 0-1.68 3.073c-.565.117-.731.741-1.12 1.136-.123-1.009-.971-1.686-1.259-2.657 1.184-.394 1.744-1.877 2.752-2.335 1.179-1.083 1.174-2.715 1.104-4.187-.858-1.237-1.749.688-2.768.752-.005-.96 1.798-2.614.374-3.398-.736 0-.902.742-1.52 1.035.053-.907-.347-1.584-.694-2.325l-.389-.102c.501-.97.373-2.271 1.669-2.794.112-.512.902-.843.614-1.419-.784-.155-.784.918-1.286 1.366l-.954.687c-.182-1.301-.192-2.709.08-4.069-.011-1.867-.304-3.733.304-5.771.389-1.024 1.749-.687 2.021-1.775.053-.56.277-1.35.048-1.808-.624.122-1.243.746-1.92.527-.523-2.261 1.045-4.362.187-6.341 1.461-1.083 1.733-2.666 2.005-4.314.4 0 .517 1.125 1.024.501-.059-.613-.688-1.008-1.253-1.179-.454-.053-.907-.272-1.136-.725.16-1.189.037-2.661 1.109-3.232.795.165 1.813.042 2.261-.635-.458-.843-.917-1.915-.416-2.885 1.419.896 2.827-.24 4.128-.592 2.192-1.824 2.459-4.597 3.238-7.099.394.294.906.677 1.024 1.125"/><path fill="#b3995d" d="M338.754 201.383c.859 1.008 1.376 2.133 1.888 3.259-1.189-.448-2.437-.72-3.403-1.616-.794-.166-1.53-.502-2.325-.603 1.189-.075 2.709-1.093 3.84-1.04"/><path fill="#9a3b26" d="M333.047 202.434c-.565.112-1.13.293-1.808.122.507-.341 1.184-.01 1.808-.122m-2.826.021c-.283.395-.795 0-1.248.229.282-.394.848-.117 1.248-.229"/><path fill="#efe8c7" d="m364.997 208.738.119.101c-.566.176-1.814.133-2.262.864-.101 1.989 1.83 2.763 2.859 4.229.229.512.971 1.126.523 1.867-.454.448-.79 1.072-.672 1.584 1.253.725.693 1.862.416 2.886-.384 1.696-3.344-.438-2.422 1.818.4.96 2.16 1.296 1.659 2.533-.448.635-.384 1.761-1.232 1.937-.571-.56-1.253-.843-1.931-1.062-.565.512.064 1.302.406 1.803.917 1.637 1.664 3.675 1.45 5.365-.394.176-.794.176-1.13.469-2.806-4.794-5.835-9.584-8.635-14.437l-.293-1.125c2.186-3.637 5.392-6.656 7.061-10.512-.043 2.208-.928 4.752-1.877 6.907.112.176.282.229.512.229 1.226-2.384 1.834-5.222 1.984-7.771l-.336.011c.448-.795.832-2.438 1.221-3.691.411 2.491 4.544 3.024 2.581 5.984"/><path fill="#773141" d="M235.745 206.338c.406 1.024.811 2.261.816 3.221.395.219.4 1.008.518 1.52-.566-.106-1.36.011-1.531-.666-1.76-.438-3.632-1.616-4.997-2.854.496-1.93 2.698-2.677 4.16-3.877.682.624.746 1.749 1.034 2.656"/><path fill="#9a3b26" d="M257.297 205.287c.346.907-.39 1.136-1.008 1.429-2.315.518-5.654.934-7.307-1.088-.117-.442.107-.789.277-1.018 2.432-.075 5.542-.656 7.867.176zm-1.003 2.219c.288.394.795.448.912.896-.565.293-1.301.352-2.037.352-.23-.56-.907-.56-1.307-1.008l2.544-.635c-.171.064-.053.283-.112.395m5.099 1.322c.122.795-.443 1.478-1.115 1.936-1.525.576-3.339.699-4.981-.08-.454-.282-.912-.73-.912-1.29 2.549.485 4.288-1.334 6.613-1.067z"/><path fill="#773141" d="M234.416 210.935c-6.976 6.438-13.152 13.6-21.04 18.966-.395-.219-.347-.843-.347-1.355l1.008-1.696c4.603-5.237 9.387-9.739 14.166-14.688.954-1.029 1.792-2.272 2.352-3.584 1.253.896 2.613 1.509 3.861 2.357"/><path fill="#9a3b26" d="M212.756 212.764c-.735-.165-.404-1.466-.351-1.914.507-.176.278-.854.614-1.2.176.346.688.794 1.248.565l1.013-.917c-.101 1.365-1.057 3.061-2.524 3.466m166.183-1.226c-.576-1.019-1.43-1.696-2.56-1.52-1.355.405-2.651 1.205-3.947 1.834-.117-.448-.459-.949-.405-1.408.624-.176.784-1.024 1.29-1.312 1.424 1.174 2.72.32 4.192-.021.342.283.683.613 1.243.501.395-.346.736-.576 1.013-1.024.006.843.075 2.368-.826 2.95m-109.467 4.032c5.509 3.136 11.408 5.184 17.584 6.506-.619.795-1.637.918-2.139 1.776.054-.181-.176-.677-.512-.629-3.744-.987-8.042-1.019-11.002-3.371l.112-.128c-1.302-.49-2.72-.821-3.915-1.605-3.515-1.621-6.763-4.592-10.336-6.437.731-.288 1.408-.518 1.973-1.147 2.502 2.251 5.51 3.355 8.235 5.035"/><path fill="#000" d="M216.489 212.567c-.111.176-.282.229-.506.176l-.405-1.072c.565-.395.629.565.911.896"/><path fill="#efe8c7" d="M378.887 212.151c.341.624.064 1.472-.102 2.096-.842.507-1.632 1.029-2.021 1.989-.229-.512-.741-.73-1.253-.73l-.112.122c-.059-.112.949-2.384-.918-1.749-.112-.341-.17-.677-.512-.907-.506-.112-.73.294-1.184.294 0-.112 0-.56-.117-.79 1.525-.805 2.869-1.77 4.688-1.68.619.283.795 1.136 1.531 1.355"/><path fill="#9a3b26" d="m214.714 217.954-.219.853c-1.312-1.125-1.211-2.987-1.616-4.571.053-.394.107-.906.56-1.024.181 1.702.475 3.222 1.275 4.742"/><path fill="#000" d="M360.949 212.775a22.3 22.3 0 0 1-1.216 4.368h-.283c.56-1.419.491-3.056 1.163-4.368zm-119.26 2.981c.076 2.363-.484 3.958-.693 6.331-.335.411-.56.971-1.067 1.2-.453.064-.564.064-.964-.053.283-.459 1.413-.688 1.52-1.531.107-.741.272-1.477.213-2.155l-.736.512c-.112-.106-.112-.336-.282-.389 1.296-.8 1.456-2.267 1.392-3.52-.454-.165-.678.459-1.019-.272.107-.459.731-.229 1.013-.405l1.35-1.136c.346.677-.448.906-.726 1.418"/><path fill="#9a3b26" d="M374.999 214.498c-.047 1.53-1.802 1.477-2.42 2.56l.117.117-.341.176c.282-.688.384-2.043-.016-2.832-.064-.96 1.018-.293 1.466-.752.006.571.688 1.136 1.195.731"/><path fill="#000" d="M243.962 216.754c.059.629.742 1.242.182 1.866l-.288-.613c-.566.384-.16 1.749-.838 1.915l-.17-.395c.101-1.637.602-3.115.986-4.581.63.394.064 1.184.128 1.808"/><path fill="#efe8c7" d="M374.411 220.215c-.463-1.125.156-2.325-.927-3.157l1.408-1.03c-.784 1.531 2.736 3.206-.48 4.187"/><path fill="#9a3b26" d="m376.649 216.925.625-.182c0 .283-.389 1.254-.837 1.814-.123-.843-1.254-1.403-.699-2.427.459.117.458.677.911.795"/><path fill="#000" d="M361.997 216.338c-.438 3.056.154 6.842-.79 9.733l-.395.005c.832-2.896.358-6.277.79-9.568.112-.117.224-.282.395-.17"/><path fill="#9a3b26" d="M373.204 217.799c.683.832-.154 2.592 1.152 3.04.336-.176.79-.405 1.014-.853l.282-.011c-.272 1.477-1.568 2.56-2.24 3.925-.24-2.042-2.064-3.946-1.226-6.101.288.448.677 0 1.018 0m-79.946 1.184c-1.291 1.648-2.923 3.189-4.379 4.949-.848.347-1.637 1.147-2.715.699l-.512-.512c2.032-1.365 4.336-3.365 6.08-5.008.171-.117.79-.176.507-.523.341.118.736.118 1.019.395"/><path fill="#efe8c7" d="M271.543 220.258c-.56.955-.042 1.979-.773 2.832-.048 1.867.528 3.563.768 5.083.283.165.171.512.512.512.336-.576-.235-1.302-.352-1.931l-.293-1.632c.741 1.072 2.101.997 3.344 1.115.522 1.632-.038 3.333-.251 4.917-.107 1.413 1.488 2.539.933 4.123.24 1.978-1.168 3.626-.869 5.605.005 1.083 1.312 2.261.133 3.168l-1.018.123c-.395.624.176 1.136.293 1.749-1.253-1.237-.928-3.333-2.347-4.56-.757-2.72-.32-5.376-.506-8.096l-.171-.165-.224.282c.069 2.038-.421 5.152.384 7.355.064.965-.72 1.808-.603 2.944.187 2.608-.704 4.533-.346 7.419.288.613 1.018.101 1.418.32.352 2.096 3.227.666 2.96 2.928.352 2.032-.09 3.845-.25 5.322-.347-1.477-.528-3.28-1.67-4.176a1.77 1.77 0 0 0-.33 1.302l-.139 4.917c-.176-.896-.4-2.032-.912-2.48-.4-.112-.736.347-.736.624-.597 3.691 2.987 7.003 1.877 10.677-.208 2.208-.533 4.422-2 6.128.006.342.006.624.006.907 0-.283-.342-1.013-.8-1.179-.39.566-.208 1.419-.491 2.043-.56.907-.496 2.043-1.227 2.832-.346-1.749-.421-3.957-1.109-5.872-.229-.229-.571-.448-.853-.229l-.39.405c-.634-1.813-1.109-4.917-.33-6.795.453-.394.277-1.237.554-1.749 1.968-2 3.2-4.208 3.862-6.821l-.342-.336c-.784.794-1.973.858-2.533 1.941-.293-1.355-1.093-2.827-2.571-3.552-.005-1.408.384-2.149.827-3.563 1.691-.752 3.664-1.952 4.448-3.76l-.229-.346c-1.467.586-2.934 1.488-4.635 1.168.219-1.19.613-1.419 1.915-1.707.565-.229 1.466-.357 1.802-1.147.054-.677.384-1.76-.298-2.149-1.179.688-2.315.411-3.67.651l-.229-.23.725-1.536c-1.989-1.29-.928-3.434-1.338-5.36.341-.117 0-.565.394-.512-.458-.624-.906-.613-1.253-1.242.107-1.131 1.227-2.779-.528-3.446-.181-1.52.32-2.49.309-3.957-.341-.624-1.077-.565-1.36-1.125l.214-1.926c2.485-.01 5.248-1.68 6.592-4.117.501-1.467 1.733-2.896 1.104-4.581.394.048.272-.411.56-.523.629.677 2.09.613 2.042 1.408"/><path fill="#9a3b26" d="M298.357 219.58c-.437 2.822-3.024 5.163-5.68 5.915-.282 0-.789-.053-.794-.384 1.525-.917 3.045-1.717 4.112-3.264.672-.853 1.12-1.989 2.133-2.496z"/><path fill="#efe8c7" d="M268.316 219.996c.688 1.355-1.126.966-1.632 1.595-.907.112-1.696-.043-2.326-.555a1.44 1.44 0 0 1-.346-1.136c1.584-.288 3.125 1.91 4.304.096"/><path fill="#000" d="M359.578 219.682c-.102 1.648-.315 3.408-.816 4.992-.112 0-.171.064-.166.112-.346-.624-.01-1.467.155-2.144l.603-2.949h.224"/><path fill="#9a3b26" d="M322.745 262.071c.288.32.699.635.843.912.283.4.907.437 1.189.096.448-.283.731-.624 1.355-.512-.096 2.437-3.2 3.979-2.336 6.459.283.282.853.73 1.36.394l1.408-1.541c.069 2.608-1.787 4.48-3.525 6.251-.875-3.958 1.024-7.814-1.094-11.643.022-.315.059-.608.128-.896z"/><path fill="#efe8c7" d="M322.266 261.004a3 3 0 0 1 .288-.56l-.112-.053c.544-2.779 3.989-3.653 3.008-6.875-.4-.33-1.243-.154-1.755-.49.331-.8.779-1.531 1.003-2.32-.459-.795-1.301.058-1.925.176-.56.394-.896 1.082-1.291 1.642-.352-2.538-1.333-5.642.747-7.642-.63-.784-2.491.416-2.048-1.398-.006-.853.272-1.696 1.008-2.042.842-.736-.182-1.414-.299-2.144-.523-1.803-.757-3.387-.651-5.488.896-.064 1.686-.635 2.134-1.366-.683-.394-1.867-.501-1.531-1.69l-.005-.342c1.077-.117 1.914-.917 3.045-.928.112-.101.283-.218.283-.394-.342-.384-1.531-.384-.918-1.238l1.227-2.72c.853.56 1.093 2.198 2.448 2.022l.395-.347c.517 1.52.362 3.333.538 5.035.118.112.23.112.4.176.507-.406-.005-1.083.102-1.648.218-1.75-.982-3.398-.144-4.864.16-1.302.49-2.72.485-3.968l.395-.395c.016 3.163 1.397 6.155.17 9.445.182 1.472 1.83 2.416 1.44 3.947.23.229.566-.048.624-.277 1.003-1.931-2.794-2.928-.826-4.918.048-1.76-.304-3.509-.427-5.093 1.595 1.803 1.157 4.517 3.264 6.032.117.459.624.677.629 1.184-1.061 1.877 1.435 2.992 1.782 4.688-.448.795-1.584.064-1.856 1.035-.112.954 1.141 1.968.128 2.757-.566.24-1.296.352-1.808.304-.395.341-1.131-.107-1.467.517.405 1.803 1.264 3.387 2.069 4.96-.277.971-.554 1.648.016 2.555-.229-.064-.453.112-.506.341 0 .166.112.448-.054.566-.17-.283-.57-.731-.965-.502-.224.278.059.331-.053.614-.342-.336-.566-.95-1.248-.896l-.224.293c.41 1.915 1.546 3.488 2.688 5.072.229.219.341 0 .506-.064.923 1.92-1.098 3.691-.976 5.771-.618.634-.725 1.136-.496 2.042-.101 1.302.363 3.398-.362 4.699h-.112c-.352-1.584-1.382-2.928-1.84-4.459-.171-.106-.288-.282-.512-.218-.336.906-.214 2.032-.096 2.938a26 26 0 0 0 1.845 4.688c.224.112.277-.117.448-.17-.053.282.064 1.125-.101 1.813-1.024-.965-.918-2.32-1.771-3.333-.283-.112-.395.117-.619.293-.213 2.309 1.211 4.512.262 6.613-.614 1.024-1.968.864-2.758 1.771-.512-.512-.464-1.979-1.536-1.456l-.053.112c-.117-.229.165-.341.053-.624l-.17-.165c.784-1.083 1.744-1.606 1.904-2.784.954-1.03 1.002-2.667 1.269-3.979-.107-.219-.053-.677-.507-.613l-2.021 2.272c-.683-.272-.347-1.291-.299-1.867.331-1.861 2.816-2.843 2.006-4.987-.907-.389-1.638.352-2.256.747-.464-.299-.72-.811-1.051-1.237l-.949-.566"/><path fill="#000" d="M242.887 225.538c-.112.165-.336.229-.507.229-.57-.906-.298-2.208-.245-3.178l.336-.395c.571.96-.325 2.32.416 3.344"/><path fill="#9a3b26" d="M293.568 223.058c-1.125.624-2.363 1.888-3.728.928l1.179-1.43c.853.171 1.642.502 2.549.502"/><path fill="#000" d="M269.255 225.079c-.219 1.648-.096 3.115.309 4.635-.624-.102-1.296.576-1.69 1.029-.23-.725.842-1.083 1.29-1.531-.117-1.184-.181-2.144-.304-3.226-.394.176-.448.458-.73.8-.118-.56.672-1.312 1.125-1.707m-28.288.688-.496 2.72c-1.131-.389.048-1.92.043-2.939.224-.064.282.102.453.219m118.944.939c-.059.048-.112.112-.224.112-.4-.56-.069-1.355.096-1.926.629.283.123 1.366.128 1.814"/><path fill="#9a3b26" d="M349.938 261.212c.864 1.942 0 4.262-.971 6.022-.395.512.229.565.517.784 2.032-.128 1.904-2.555 3.424-3.472.795-.112 1.195.565 1.766.896 1.173-1.542-.928-2.656-.934-4.187-.058.053-.112.176-.229.117-.395.342-.784 1.248-1.632 1.03-.475-.251-1.04-.592-1.445-1.019z"/><path fill="#efe8c7" d="M349.856 260.557c0-.134-.032-.262-.144-.342 2.49-.304 2.693-3.301 4.042-4.96.054-.384.39-.906.107-1.29-.229-.342-.741-.219-1.019-.118-.341.23-.506 1.035-1.013.752l-1.141-1.008c.336-.293.224-.741.336-1.024 2.373-.416 3.429-2.853 4.213-4.725-.971-.837-1.803 1.259-2.325-.325-.283-.56-.288-1.238-.8-1.686-1.024-.448-2.144 1.424-2.491-.208 2.763-1.045 5.296-2.752 7.317-5.317 0-.507.39-.955.107-1.467-1.083-1.237-2.085 1.083-3.163 1.488-1.237.512-2.192 1.542-3.322 2.118.218-1.531-.246-3.115 1.498-4.15.112-.394-.229-.725-.512-.725l-.506.011c.272-1.312.037-2.886 1.162-3.856.107-1.083-1.701-.678-1.146-1.867.277-1.413.72-2.944.426-4.352 2.742 4.107 5.147 8.336 7.888 12.448-.112.229-1.024-1.008-1.301.011-.16 1.354.587 2.773 1.328 3.946-.512-.272-1.024-1.008-1.707-1.061-1.52.8-.154 2.325.022 3.445.629.512.805 1.419 1.594 1.691-.048.741.235 1.531-.154 2.043-.912-1.243-1.264-3.104-2.795-3.723-.389 1.088-.043 2.555.139 3.744.4 1.237.805 2.528 1.653 3.499-.667 1.29-.427 2.821-.192 4.24-1.307-1.344-1.771-3.104-2.688-4.678-.171-.053-.283.112-.395.23l.118.384-.512.229c-.891 2.272.09 4.763 1.968 6.384-.054.96-.384 2.272-.886 3.291-.853-.891-.805-2.256-1.664-3.152-.901.058-1.008 1.136-1.797 1.301a6 6 0 0 1-1.36-.992l-.885-.219"/><path fill="#000" d="M241.487 228.588c.016 1.648.309 3.563.091 4.992-.224.23-.454.112-.512-.17l-.027-4.694c.171 0 .224-.181.448-.117m29.445 2.981-.112.102c-.4-.667-.522-1.739-.41-2.528.341.613.176 1.632.522 2.426m62.303.896-.164.395c-.965-.437-1.141-1.52-1.429-2.416l.165-.405c.629.677.634 1.76 1.428 2.426m-37.055 1.147-.277.331c.683.512-.048 1.365.181 1.925-.778 2.096-.026 4.416-.634 6.741h-.4c.384-2.437-.144-5.376.746-7.866l-.117-.507-.507.624c-.17-.229-.4-.229-.288-.613l.902-1.035c.282.053.224.4.394.4m-26.64 1.696c.128 1.813-.085 4.021-.981 5.605l-.224.011c-.117-.576.501-.805.613-1.312.043-1.755.71-3.563.134-5.2.288.155.288.613.458.896m58.229.133c-.325 2.656.257 5.264.39 8.086l-.507.01c-.016-2.554-1.002-5.658-.053-8.096zm-86.229.667c-.501 1.483-.208 3.168-.933 4.699.117.346.288.96-.389 1.024l-.171.005c.555-1.808.373-4.016 1.264-5.728zm87.664 2.325c-.384 2.374.48 4.299.379 6.614-.112-.054-.171.064-.224.064l-.171-.166c-.298-2.213-.88-4.586-.384-6.848.054-.277.336-.405.619-.405.283.283-.224.459-.219.741"/><path fill="#9a3b26" d="M356.428 239.964c-1.68 2.283-4.101 4.272-6.869 5.019.325-2.592 3.205-3.355 5.061-4.613l1.691-1.531c.453.283.064.907.117 1.125"/><path fill="#000" d="M239.531 240.215c.289 1.125-.495 2.144-1.114 2.768-.117-.448.501-1.237.608-1.925 0-.331.053-.843.507-.843m29.712.939c-.112.677-.502 1.301-.784 1.808-.283-.624.448-1.131.501-1.808zm.117.778c.005.854.069 2.107-.379 2.784-.005-.794.16-1.813.267-2.773h.112"/><path fill="#9a3b26" d="M271.511 242.039c.859 1.531.704 3.675 2.576 4.459.294 1.685-.149 2.997-.592 4.528-.4.053-.506.565-.277.906l.171.166c-1.019.229-1.147-1.915-2.667-1.291-.08-3.157.528-5.653.565-8.768z"/><path fill="#000" d="M298.166 242.599c-.218 1.531-.49 3.232.651 4.469.229.112 0 .283-.112.395-.565-.219-.795-.955-1.083-1.52-.234-1.189-.245-2.656.374-3.563zm-6.112.208c-.501.523-1.125.864-1.685 1.264-.288-.448.277-.576.501-.907.336-.229.848-.41 1.184-.357"/><path fill="#9a3b26" d="M235.382 246.567a2.38 2.38 0 0 0 1.526-.917c-.166 1.088-1.403 2.336-.491 3.242a4.04 4.04 0 0 0 2.197-1.04c.064.79-.042 2.038-.261 2.944-1.296.806-1.797 2.438-3.323 2.907-.133-3.397.246-6.283-.682-9.563.458.731.24 1.867 1.034 2.427m124.368-.624a2.2 2.2 0 0 0-.33 1.467c-.8-1.12-1.936-2.363-1.664-3.894.853.56 1.93 1.52 1.994 2.427"/><path fill="#000" d="m301.864 245.628-.165.294c-.512-.166-.742-.395-1.137-.79l.107-.336c.453.219.795.502 1.195.832m25.701 1.483.507.053c-.491 2.55.432 5.771-1.589 7.59h-.23c1.344-2.267 1.216-4.987 1.312-7.478-.395.624-.384 1.814-1.232 1.76-.117-.448.389-.906.496-1.408.507-1.029.208-2.154.891-2.89z"/><path fill="#9a3b26" d="M352.516 248.029c.293.842 1.249.447 1.813.319-.667 1.595-1.787 3.179-3.535 3.712-.635-1.189-1.829-2.479-.933-3.909.224-.394.336-1.008.272-1.413.565-.054 1.018-.347 1.525-.512z"/><path fill="#000" d="m329.27 249.191.005.459c-.736-.395-.517-1.355-.693-2.144l.112-.523c.341.576.517 1.419.576 2.208"/><path fill="#9a3b26" d="M266.239 249.431c-.565.347-1.242.181-1.808.512-.57-.331.16-1.291-.24-1.915 1.131-.064 2.438.091 3.563-.533.741 1.189-.725 1.595-1.515 1.936"/><path fill="#000" d="M296.408 250.935c-.16 1.36-.603 2.55-1.387 3.574h-.341c-.006-.731.613-1.19.837-1.814.496-1.648.656-3.69.587-5.322.853.954.016 2.485.304 3.562"/><path fill="#9a3b26" d="m358.934 250.754-.496 2.042c-1.141-1.573-1.44-3.498-1.563-5.477.683 1.189 1.147 2.427 2.059 3.435m-25.579-.112c.4.906-.608 1.925-.266 2.821-.742-1.227-1.878-2.251-2.171-3.653.341.101.624.613.907.394.112-.128.282-.229.224-.405.288.331.506-.117.789-.117.229.336.064.842.517.96"/><path fill="#1d5c42" d="M371.49 250.279c.229.395.293.854.688 1.184.848-.688.8.795 1.424.95 1.141 1.696 2 3.498 2.522 5.477-2.666-1.509-5.68-3.083-7.28-5.675-.341-.677.267-1.408.896-1.648.566-.101 1.067-.624 1.744-.288"/><path fill="#9a3b26" d="M323.685 251.266c-.112.843-1.461 1.877-.384 2.555l1.531.101c.464 1.803-.944 3.061-2.181 3.968-.224 0-.566.512-.736.011.213-1.814-.363-3.344-.315-5.094 1.019.107 1.008-1.53 2.085-1.541m-55.509.469c-.725 1.019-1.915 1.542-2.816 2.166-.336-.219-.789-.219-1.019-.614l-.005-.789c1.189.048 2.773-.075 3.84-.763"/><path fill="#000" d="M328.39 252.706c-.053.906.635 2.256-.149 2.832-.347-.96-.24-1.696-.134-2.822z"/><path fill="#9a3b26" d="M357.798 258.695c-.057.448-.223.779-.506 1.126-.735-.171-1.307-.896-1.647-1.515-.806-1.579-.64-2.539-.539-4.352.293 1.813 1.717 3.211 2.693 4.741"/><path fill="#000" d="M269.328 254.61c-.33 1.707.246 3.061-.085 4.763h-.165c.048-.907-.123-1.302-.24-2.15-.283.283-.161.848-.678.854a14.4 14.4 0 0 0 .885-3.467z"/><path fill="#9a3b26" d="m352.456 255.154.731-.795.005.624c-1.125 1.483-1.621 3.296-2.971 4.608h-.282c1.797-1.659-.646-3.515.586-5.44.683.219 1.03 1.52 1.931 1.003m-115.307 2.101.507-.512c.123 1.077.075 2.661-1.051 3.344-.229-.112-.512.229-.736.347.331-1.472-.245-3.334-.314-5.03.736.496.133 2.886 1.594 1.851m63.61 1.509c.07 2.043-.027 4.139-.698 5.835-.405-1.467-1.258-2.645-1.664-4.064.678.107.96.219 1.355-.341-.069-1.648-.757-3.222-.656-4.864.576 1.125.923 2.362 1.664 3.434m-58.683-.864c-.896.971-.042 1.931-.32 3.003-.629-1.125-1.258-2.251-1.44-3.552.288-.064.512.219.736-.011.395-.346.395-.96.39-1.354.458.56.746 1.29.634 1.914"/><path fill="#000" d="M295.7 255.858c.118.512-.101 1.189-.384 1.701-.453-.384-.005-1.189.102-1.701z"/><path fill="#9a3b26" d="m273.056 262.796-.203 3.68h-.053c-.635-2.096-2.123-4.229-1.686-6.272.63.678-.09 2.043 1.035 2.427.96-.459.56-1.419.779-2.155l-.134-3.562c.576 1.813 1.723 4.176.262 5.882"/><path fill="#000" d="M239.309 258.765c.176.741.805 1.637.522 2.208-.618.181-.4-1.35-1.018-.79.282.23-.059.395-.112.624h-.283c.048-.954.155-2.261.603-3.061.453.229.229.512.288 1.019m88.496-.278c-.155 1.979.421 3.611-.022 5.323-.224.048-.282-.117-.453-.229.213-1.75-.021-3.334.192-5.094z"/><path fill="#9a3b26" d="m266.32 262.444.342.23c.677-.576 1.349-1.366 2.085-1.659-.613 1.931-1.675 3.856-3.189 5.333l-.006-.101-.848-.117c.496-2.491.422-4.747-.325-7.126.907.96 1.936 2.022 1.941 3.44"/><path fill="#000" d="M295.741 260.956c-.059.112-.171.112-.283.112-.341-.394-.235-1.018-.123-1.466.566.218.176.954.406 1.354"/><path fill="#9a3b26" d="M236.677 263.538h.967c-.502 1.419-.491 3.051.421 4.176.112-.053.283-.112.507-.112-.614 1.019-.55 2.037-.486 3.173 1.867.326.24 2.427.646 3.67-1.483-1.574-.534-4.011-1.904-5.702-.464-1.349 1.045-3.338-.651-4.464-.005-.677-.459-1.013-.011-1.637.112.331.17.677.511.896m94.193 4.997c-.581-1.685-1.434-3.216-1.674-5.082.688 1.637 1.546 3.322 1.674 5.082m-90.128 1.712c-.234-.794-.357-2.085-.757-3.056-.005-.789-.576-1.685-.245-2.656 1.482 1.355 1.669 3.899 1.002 5.712"/><path fill="#000" d="M295.776 267.175c.294 1.696-1.109 3.12-1.669 4.144l-.4-.053c.224-.79 1.013-1.366 1.403-2.054.33-1.29.208-2.986.085-4.176.629.336.405 1.408.581 2.139"/><path fill="#efe8c7" d="M353.956 269.404c-.154 2.091-3.034 3.019-2.4 5.216l-1.807-.144c-.971-1.301-.134-3.296-.544-4.816l-.459-1.301c.8.795 1.525-.288 2.373-.24 1.584-.517 1.275-4.699 3.328-2.165z"/><path fill="#000" d="M268.129 270.578c-.453-.56.389-.843.501-1.414.107-.677.102-1.418.384-2.042.288 1.184.011 2.549-.885 3.456"/><path fill="#efe8c7" d="m240.234 271.266-.614.906c-.229-.56.496-1.637-.634-1.802l-.112.117c-.171-.347-.176-1.077-.011-1.531.053-.677.336-.906.501-1.536.571 1.19.187 2.608.87 3.846"/><path fill="#9a3b26" d="M293.467 268.727c-1.35 1.248-2.299 3.008-4.166 3.467-.458-1.014-.016-2.144-.021-3.28l.619-.907c1.136.955 2.261.272 3.568.72m36.965 2.363h.224c-.549 2.426-.875 4.581-1.595 6.97.219-1.088-1.434-2.826.315-3.461.555-1.749.096-3.104-.032-4.928.288.512.464 1.472 1.088 1.419m-38.443 5.562c-.901.23-1.637.752-2.426 1.03-.854-.843-.07-2.144-.022-3.28.4.218.63.73 1.195.96.96-.075 1.808-.752 2.768-.992l.112-.166c.005.79-.667 1.99-1.627 2.448m59.179-1.626-.117.117.512.101c.117.907-.272 1.702-.891 2.16-1.131.406-.629-.896-1.029-1.344l.106-1.088c.566.054.966.283 1.419.054m-84.875.544c.806 2.261.086 4.469 1.515 6.33.453.219.672-.352.896-.634a28 28 0 0 0 1.104-3.456c.411 1.978-.704 3.85-.971 5.829-.336.629-.501 1.536-1.237 1.824-2.053-2.645-1.563-5.989-2.096-9.269.395-.054.336-.614.789-.624m58.907.746c.117.182.4.347.512.23l-.112.117c.795.501 1.125-.752 1.808-.752.181 2.096-1.168 3.856-2.512 5.509h-.512c-.293-1.696-.304-3.957-.32-5.77l.624-.342c.171.23.4.79.512 1.008"/><path fill="#efe8c7" d="M328.897 278.839c.181 1.925-.197 4.197-1.093 5.957-.907-.394-1.467.688-2.374.688-.288-.677.214-1.813-.805-2.032.107-1.237 1.008-1.861 1.792-2.842.843-1.072 1.573-2.491 1.504-3.904.459.56.352 1.584.976 2.133"/><path fill="#9a3b26" d="M290.621 283.506c.293 1.749 1.157 3.669.715 5.365-.96.176-1.024-.554-1.083-1.29-.464-1.52-1.323-2.992-.88-4.806.619-.277.848.502 1.248.731m34.816 2.832c.224-.341.507-.288.736-.459l-.117-.048c.57.384.736-.522 1.242-.469-1.514 1.717-.133 5.093-2.736 5.851-.122-2.208-.256-4.864.07-7.136.4.677-.496 2.042.805 2.261m-29.925.699.336-.342c-1.851 2.624-.923 6.176-2.32 9.072-.326 1.75-1.28 3.291-1.888 4.939-.235-.741-.24-1.931-.528-2.773-.352-1.979-1.435-4.064-1.062-6.384.224-.23.507-.459.619-.742.283.336.288.96.405 1.408-.101 1.248.128 2.32.64 3.28.454-.165.96-.688 1.126-1.146.778-2.427 1.888-5.552.517-8.144l-.011-1.019c.8.507.976 1.979 2.166 1.861M260.002 71.164c-.379.374-1.003.592-1.408 1.094.069.725.069 1.456.026 2.208l.811-.022c.288-.373.827-.586 1.205-1.013.016-.832 0-1.643-.048-2.459zc.09-.106.17-.208.224-.336z"/><path fill="#fff" d="M174.155 314.55q3.54 0 5.565.278 2.022.253 3.54.911 4.856 2.125 5.969 7.561.455 2.227.455 8.953 0 5.64-.355 7.714-1.01 5.893-5.614 8.068-1.77.81-4.274 1.188-2.479.355-6.449.354-3.996 0-6.297-.405-2.302-.43-3.971-1.466-3.894-2.378-4.805-7.158-.38-1.997-.38-6.651 0-8.7.911-11.962 1.264-4.528 6.651-6.424 2.63-.936 9.054-.961m-.278 7.941q-3.263 0-4.4.481-1.568.631-1.998 2.352t-.431 7.258q0 5.312.608 6.93.48 1.238 1.744 1.694 1.266.43 4.376.43 2.857 0 3.996-.506 1.163-.506 1.745-1.973.683-1.72.683-7.46 0-3.566-.127-4.856-.101-1.315-.505-2.251-.532-1.239-1.695-1.644-1.138-.43-3.996-.455m29.464-7.688v13.075h2.782l8.902-13.075h11.127l-12.164 16.945 13.176 17.576h-11.355l-9.61-13.606h-2.858v13.606h-9.282v-34.521zm35.609 0v26.58h14.516v7.941h-23.798v-34.521zm38.265 28.577h-12.418l-1.669 5.944h-9.611l10.37-34.521h14.01l10.496 34.521h-9.409zm-1.847-6.701-4.35-14.997-4.223 14.997zm46.054-21.875v34.52h-9.281v-13.582h-11.989v13.582h-9.281v-34.522h9.281v12.999h11.988v-12.999h9.282m21.066-.253q3.541 0 5.565.279 2.023.252 3.54.91 4.856 2.124 5.969 7.562.454 2.225.455 8.952 0 5.64-.354 7.714-1.011 5.893-5.615 8.068-1.77.81-4.273 1.188-2.48.355-6.45.354-3.996 0-6.297-.404-2.301-.43-3.971-1.467-3.894-2.378-4.805-7.157-.379-1.999-.38-6.652 0-8.7.912-11.962 1.263-4.528 6.65-6.424 2.631-.936 9.054-.961m-.278 7.941q-3.263 0-4.4.481-1.568.631-1.998 2.352t-.43 7.258q0 5.312.607 6.93.48 1.238 1.745 1.694 1.265.43 4.375.431 2.858 0 3.996-.507 1.163-.506 1.745-1.973.683-1.719.683-7.46 0-3.566-.126-4.856-.102-1.314-.507-2.251-.53-1.239-1.693-1.644-1.139-.43-3.997-.455m62.924-7.688v34.522h-9.105V338.98q.026-3.82.455-12.089l.228-4.022h-.304l-1.214 3.946-1.214 3.92-2.605 7.865-3.566 10.724h-7.991l-3.642-10.749a938 938 0 0 1-5.135-15.706h-.303l.228 4.022q.505 8.649.531 12.089v10.344h-9.105v-34.522h14.441l3.238 9.889q1.415 4.349 3.515 11.81h.354l.784-2.933a237 237 0 0 1 2.504-8.827l3.136-9.939zm26.15 28.578h-12.418l-1.669 5.944h-9.611l10.37-34.522h14.011l10.496 34.522h-9.408zm-1.846-6.702-4.35-14.997-4.224 14.997z"/></g><defs><clipPath id="a"><path fill="#fff" d="M0 0h600v400H0z"/></clipPath></defs></svg>