<svg xmlns="http://www.w3.org/2000/svg" width="600" height="370" fill="none" viewBox="0 0 600 370"><g clip-path="url(#a)"><mask id="b" width="600" height="370" x="0" y="0" maskUnits="userSpaceOnUse" style="mask-type:luminance"><path fill="#fff" d="M0 369.231V0l600 69.23-138.462 115.385L600 300z"/></mask><g mask="url(#b)"><path fill="#fff" d="M600 69.23 0 0v369.231L600 300"/><path stroke="#c1133d" stroke-width="80" d="M600 69.23 0 0v369.231L600 300"/><path fill="#fff" d="M0 184.615h600z"/><path stroke="#c1133d" stroke-width="40" d="M0 184.615h600"/></g><path fill="#001c5a" d="M0 0v369.231l369.231-184.616z"/><path fill="#fff" d="M114.098 253.846c38.235 0 69.231-30.996 69.231-69.231s-30.996-69.23-69.231-69.23-69.23 30.995-69.23 69.23 30.995 69.231 69.23 69.231"/><path fill="#c1133d" d="M114.099 230.769c25.49 0 46.154-20.664 46.154-46.154s-20.664-46.154-46.154-46.154-46.154 20.664-46.154 46.154 20.664 46.154 46.154 46.154"/><path fill="#fff" d="m311.85 184.615-13.717-4.457-2.229 6.859z"/><path fill="#fff" d="m311.85 184.616-13.717 4.457-2.229-6.859z"/><path fill="#fff" d="M301.887 198.332v-14.423h-7.212z"/><path fill="#fff" d="m301.884 198.333-8.478-11.669 5.835-4.239z"/><path fill="#fff" d="m301.884 170.898-8.478 11.669 5.835 4.238z"/><path fill="#fff" d="M301.883 170.898v14.423h-7.212z"/><path fill="#fff" d="m285.759 193.093 13.718-4.457-2.229-6.859z"/><path fill="#fff" d="m285.761 193.093 8.477-11.669 5.835 4.239z"/><path fill="#fff" d="m285.761 176.138 8.477 11.668 5.835-4.239z"/><path fill="#fff" d="m285.759 176.138 13.718 4.457-2.229 6.858zM219.545 184.615l-13.717-4.457-2.228 6.859z"/><path fill="#fff" d="m219.545 184.615-13.717 4.457-2.228-6.858z"/><path fill="#fff" d="M209.582 198.332v-14.423h-7.212z"/><path fill="#fff" d="m209.579 198.332-8.477-11.668 5.834-4.239z"/><path fill="#fff" d="m209.579 170.898-8.477 11.668 5.834 4.239z"/><path fill="#fff" d="M209.578 170.898v14.423h-7.211z"/><path fill="#fff" d="m193.455 193.093 13.717-4.457-2.229-6.859z"/><path fill="#fff" d="m193.456 193.093 8.478-11.669 5.834 4.239z"/><path fill="#fff" d="m193.456 176.137 8.478 11.669 5.834-4.239z"/><path fill="#fff" d="m193.455 176.138 13.717 4.456-2.229 6.859zM263.551 159.203l-14.27-2.095-1.047 7.135z"/><path fill="#fff" d="m263.553 159.203-12.776 6.693-3.346-6.388z"/><path fill="#fff" d="m256.027 174.396-2.418-14.219-7.109 1.209z"/><path fill="#fff" d="m256.029 174.396-10.314-10.082 5.041-5.157z"/><path fill="#fff" d="m251.429 147.35-6.402 12.924 6.463 3.201z"/><path fill="#fff" d="m251.43 147.35 2.418 14.219-7.11 1.209z"/><path fill="#fff" d="m239.251 171.934 12.776-6.694-3.346-6.387z"/><path fill="#fff" d="m239.251 171.934 6.401-12.925 6.463 3.201z"/><path fill="#fff" d="m236.409 155.219 10.314 10.082 5.041-5.157z"/><path fill="#fff" d="m236.409 155.219 14.271 2.094-1.048 7.135zM263.553 210.028l-12.776-6.693-3.346 6.388z"/><path fill="#fff" d="m263.555 210.028-14.27 2.095-1.047-7.136z"/><path fill="#fff" d="m251.43 221.881 2.418-14.219-7.11-1.209z"/><path fill="#fff" d="m251.429 221.881-6.402-12.925 6.463-3.201z"/><path fill="#fff" d="m256.029 194.834-10.314 10.083 5.041 5.157z"/><path fill="#fff" d="m256.031 194.834-2.418 14.219-7.109-1.208z"/><path fill="#fff" d="m236.413 214.012 14.271-2.095-1.048-7.135z"/><path fill="#fff" d="m236.413 214.012 10.314-10.082 5.041 5.157z"/><path fill="#fff" d="m239.255 197.297 6.401 12.924 6.463-3.201z"/><path fill="#fff" d="m239.255 197.297 12.776 6.693-3.346 6.388zM161.254 278.928l-2.149-14.262-7.131 1.074z"/><path fill="#fff" d="m161.254 278.928-10.121-10.276 5.138-5.06z"/><path fill="#fff" d="m144.529 276.148 12.901-6.45-3.225-6.45z"/><path fill="#fff" d="m144.53 276.148 6.646-12.801 6.4 3.323z"/><path fill="#fff" d="m169.068 263.879-14.228-2.364-1.182 7.114z"/><path fill="#fff" d="m169.068 263.879-12.9 6.451-3.225-6.451z"/><path fill="#fff" d="m142.004 259.382 10.121 10.276 5.138-5.061z"/><path fill="#fff" d="m142.003 259.382 14.227 2.364-1.182 7.114z"/><path fill="#fff" d="m157.169 251.8-6.646 12.801 6.401 3.322z"/><path fill="#fff" d="m157.168 251.8 2.148 14.262-7.131 1.074zM109.357 289.954l5.069-13.503-6.752-2.535z"/><path fill="#fff" d="m109.359 289.953-3.836-13.903 6.952-1.918z"/><path fill="#fff" d="m96.103 279.381 14.409.648.324-7.204z"/><path fill="#fff" d="m96.103 279.381 12.038-7.945 3.972 6.019z"/><path fill="#fff" d="m123.51 280.614-11.276-8.994-4.496 5.638z"/><path fill="#fff" d="m123.51 280.614-14.408-.648.324-7.204z"/><path fill="#fff" d="m102.066 263.507 3.836 13.904 6.952-1.918z"/><path fill="#fff" d="m102.064 263.507 11.276 8.994-4.497 5.638z"/><path fill="#fff" d="m119.003 264.269-12.038 7.945 3.972 6.019z"/><path fill="#fff" d="m119.003 264.269-5.069 13.503-6.752-2.534zM58.661 274.312l11.003-9.325-4.663-5.502z"/><path fill="#fff" d="m58.662 274.312 3.42-14.011 7.006 1.71z"/><path fill="#fff" d="m52.235 258.623 12.269 7.583 3.791-6.135z"/><path fill="#fff" d="m52.234 258.623 14.383-1.077.539 7.191z"/><path fill="#fff" d="M75.57 273.046 70.102 259.7l-6.674 2.734z"/><path fill="#fff" d="m75.57 273.046-12.27-7.583 3.792-6.134z"/><path fill="#fff" d="m65.162 247.66-3.42 14.012 7.006 1.71z"/><path fill="#fff" d="m65.164 247.66 5.469 13.346-6.673 2.735z"/><path fill="#fff" d="m79.59 256.574-14.383 1.077.539 7.192z"/><path fill="#fff" d="m79.589 256.574-11.003 9.325-4.663-5.501zM57.142 325.108l9.284-11.037-5.52-4.642z"/><path fill="#fff" d="m57.141 325.108 1.023-14.387 7.193.512z"/><path fill="#fff" d="m48.173 310.719 13.366 5.418 2.71-6.683z"/><path fill="#fff" d="m48.17 310.719 13.998-3.473 1.736 6.999z"/><path fill="#fff" d="m73.601 321.026-7.628-12.241-6.12 3.815z"/><path fill="#fff" d="m73.6 321.026-13.366-5.419 2.71-6.683z"/><path fill="#fff" d="m59.09 297.743-1.024 14.387 7.194.511z"/><path fill="#fff" d="m59.09 297.743 7.629 12.241-6.12 3.814z"/><path fill="#fff" d="m74.803 304.113-13.998 3.473 1.736 6.999z"/><path fill="#fff" d="m74.804 304.113-9.285 11.038-5.518-4.642zM13.91 298.388l12.41-7.349-3.674-6.206z"/><path fill="#fff" d="m13.908 298.388 5.72-13.241 6.62 2.861z"/><path fill="#fff" d="m10.203 281.842 10.824 9.533 4.766-5.413z"/><path fill="#fff" d="m10.203 281.843 14.36 1.349-.675 7.18z"/><path fill="#fff" d="M30.791 299.974 27.637 285.9l-7.037 1.577z"/><path fill="#fff" d="m30.79 299.974-10.825-9.532 4.766-5.412z"/><path fill="#fff" d="m24.787 273.204-5.72 13.24 6.62 2.86z"/><path fill="#fff" d="m24.787 273.204 3.154 14.074-7.037 1.577z"/><path fill="#fff" d="m37.512 284.409-14.36-1.349-.674 7.18z"/><path fill="#fff" d="m37.512 284.409-12.41 7.349-3.675-6.205zM22.001 235.963l14.151-2.787-1.393-7.076z"/><path fill="#fff" d="m22.002 235.963 9.81-10.573 5.287 4.906z"/><path fill="#fff" d="m24.027 219.129 7.024 12.597 6.299-3.511z"/><path fill="#fff" d="m24.027 219.129 13.086 6.063-3.031 6.544z"/><path fill="#fff" d="m37.383 243.091 1.722-14.32-7.16-.861z"/><path fill="#fff" d="m37.383 243.091-7.024-12.598 6.3-3.511z"/><path fill="#fff" d="m40.662 215.853-9.81 10.573 5.286 4.905z"/><path fill="#fff" d="m40.66 215.853-1.722 14.32-7.16-.861z"/><path fill="#fff" d="m48.915 230.662-13.087-6.063-3.032 6.543z"/><path fill="#fff" d="m48.913 230.662-14.151 2.787-1.394-7.076zM8.654 184.615l13.717 4.457 2.229-6.859z"/><path fill="#fff" d="m8.654 184.615 13.717-4.457 2.229 6.859z"/><path fill="#fff" d="M18.617 170.898v14.423h7.212z"/><path fill="#fff" d="m18.62 170.898 8.478 11.668-5.835 4.239z"/><path fill="#fff" d="m18.62 198.332 8.478-11.668-5.835-4.239z"/><path fill="#fff" d="M18.621 198.332v-14.423h7.212z"/><path fill="#fff" d="m34.745 176.138-13.718 4.456 2.229 6.859z"/><path fill="#fff" d="m34.743 176.137-8.477 11.669-5.835-4.239z"/><path fill="#fff" d="m34.743 193.093-8.477-11.669-5.835 4.239z"/><path fill="#fff" d="m34.745 193.093-13.718-4.457 2.229-6.859zM161.254 90.303l-2.149 14.262-7.131-1.074z"/><path fill="#fff" d="m161.254 90.303-10.121 10.275 5.138 5.061z"/><path fill="#fff" d="m144.529 93.082 12.901 6.45-3.225 6.45z"/><path fill="#fff" d="m144.53 93.082 6.646 12.801 6.4-3.323z"/><path fill="#fff" d="m169.068 105.351-14.228 2.364-1.182-7.114z"/><path fill="#fff" d="m169.068 105.351-12.9-6.45-3.225 6.45z"/><path fill="#fff" d="m142.004 109.848 10.121-10.275 5.138 5.06z"/><path fill="#fff" d="m142.003 109.848 14.227-2.364-1.182-7.114z"/><path fill="#fff" d="m157.169 117.431-6.646-12.801 6.401-3.323z"/><path fill="#fff" d="m157.168 117.431 2.148-14.262-7.131-1.074zM109.357 79.277l5.069 13.503-6.752 2.534z"/><path fill="#fff" d="m109.359 79.277-3.836 13.904 6.952 1.918z"/><path fill="#fff" d="m96.103 89.85 14.409-.649.324 7.204z"/><path fill="#fff" d="m96.103 89.85 12.038 7.944 3.972-6.019z"/><path fill="#fff" d="m123.51 88.617-11.276 8.993-4.496-5.638z"/><path fill="#fff" d="m123.51 88.616-14.408.649.324 7.204z"/><path fill="#fff" d="m102.066 105.723 3.836-13.903 6.952 1.918z"/><path fill="#fff" d="m102.064 105.723 11.276-8.993-4.497-5.638z"/><path fill="#fff" d="m119.003 104.961-12.038-7.944 3.972-6.02z"/><path fill="#fff" d="m119.003 104.961-5.069-13.503-6.752 2.535zM58.661 94.918l11.003 9.326-4.663 5.501z"/><path fill="#fff" d="m58.662 94.918 3.42 14.012 7.006-1.71z"/><path fill="#fff" d="m52.235 110.608 12.269-7.583 3.791 6.134z"/><path fill="#fff" d="m52.234 110.608 14.383 1.077.539-7.192z"/><path fill="#fff" d="m75.57 96.185-5.468 13.346-6.674-2.735z"/><path fill="#fff" d="m75.57 96.185-12.27 7.582 3.792 6.135z"/><path fill="#fff" d="m65.162 121.57-3.42-14.011 7.006-1.711z"/><path fill="#fff" d="m65.164 121.57 5.469-13.346-6.673-2.734z"/><path fill="#fff" d="m79.59 112.656-14.383-1.077.539-7.191z"/><path fill="#fff" d="m79.589 112.656-11.003-9.325-4.663 5.501zM57.142 44.122l9.284 11.038-5.52 4.642z"/><path fill="#fff" d="m57.141 44.122 1.023 14.387 7.193-.511z"/><path fill="#fff" d="m48.173 58.512 13.366-5.419 2.71 6.683z"/><path fill="#fff" d="m48.17 58.512 13.998 3.472 1.736-6.999z"/><path fill="#fff" d="m73.601 48.205-7.628 12.24-6.12-3.814z"/><path fill="#fff" d="m73.6 48.205-13.366 5.418 2.71 6.684z"/><path fill="#fff" d="m59.09 71.487-1.024-14.386 7.194-.512z"/><path fill="#fff" d="m59.09 71.487 7.629-12.24-6.12-3.815z"/><path fill="#fff" d="m74.803 65.117-13.998-3.473 1.736-6.999z"/><path fill="#fff" d="M74.804 65.117 65.519 54.08l-5.518 4.642zM13.91 70.843l12.41 7.349-3.674 6.205z"/><path fill="#fff" d="m13.908 70.843 5.72 13.24 6.62-2.86z"/><path fill="#fff" d="m10.203 87.388 10.824-9.532 4.766 5.412z"/><path fill="#fff" d="m10.203 87.388 14.36-1.35-.675-7.18z"/><path fill="#fff" d="M30.791 69.257 27.637 83.33 20.6 81.754z"/><path fill="#fff" d="m30.79 69.257-10.825 9.532L24.73 84.2z"/><path fill="#fff" d="m24.787 96.027-5.72-13.24 6.62-2.86z"/><path fill="#fff" d="m24.787 96.027 3.154-14.074-7.037-1.577z"/><path fill="#fff" d="m37.512 84.821-14.36 1.35-.674-7.18z"/><path fill="#fff" d="m37.512 84.821-12.41-7.349-3.675 6.206zM22.001 133.267l14.151 2.787-1.393 7.076z"/><path fill="#fff" d="m22.002 133.267 9.81 10.573 5.287-4.905z"/><path fill="#fff" d="m24.027 150.102 7.024-12.598 6.299 3.512z"/><path fill="#fff" d="m24.027 150.102 13.086-6.064-3.031-6.543z"/><path fill="#fff" d="m37.383 126.14 1.722 14.319-7.16.862z"/><path fill="#fff" d="m37.383 126.14-7.024 12.597 6.3 3.512z"/><path fill="#fff" d="m40.662 153.378-9.81-10.573 5.286-4.905z"/><path fill="#fff" d="m40.66 153.377-1.722-14.319-7.16.861z"/><path fill="#fff" d="m48.915 138.568-13.087 6.064-3.032-6.544z"/><path fill="#fff" d="m48.913 138.568-14.151-2.787-1.394 7.076z"/></g><defs><clipPath id="a"><path fill="#fff" d="M0 0h600v369.231H0z"/></clipPath></defs></svg>