<svg xmlns="http://www.w3.org/2000/svg" width="660" height="580" fill="none" viewBox="0 0 660 580"><g clip-path="url(#a)"><path fill="#fff" d="M0 0h660v580H0z"/><path fill="#fec500" stroke="#fec500" stroke-width="1.5" d="M325.783 185.52s-1.06 118.22-1.06 126.82 0 20.42-9.5 18.27c-9.48-2.15-21.09-2.15-37.97-13.97-16.87-11.82-16.87-13.97-16.87-13.97l15.82-5.38s-15.82-3.22-26.37-10.74c-10.55-7.53-18.99-13.98-18.99-13.98s-1.05 16.13 4.22 27.95c5.28 11.82 15.82 22.57 15.82 22.57v-13.97s14.77 13.97 20.05 17.2c5.27 3.22 26.37 11.82 34.8 17.2 8.44 5.36 23.904 20.41 23.904 20.41s16.186-17.2 26.736-21.5 24.26-10.74 30.59-15.04 23.2-20.42 23.2-20.42v18.27s11.6-13.97 14.77-23.65c3.17-9.67 4.22-26.87 4.22-26.87s-8.44 6.45-15.82 9.68c-7.39 3.22-28.48 11.82-28.48 11.82l16.87 4.3s-27.42 21.5-36.91 25.8c-17.286 8.311-29.54 6.44-29.54-4.3s1.06-136.5 1.06-136.5zm1.05-39.77h7.38v32.24h-7.38z"/><path fill="#fec500" stroke="#fff" stroke-width="1.5" d="M274.102 178s29.53-6.45 56.95-6.45 55.9 6.44 55.9 6.44v11.83s-37.97 5.37-60.12 5.37-52.738-6.45-52.738-6.45z"/><path fill="#fec500" fill-rule="evenodd" stroke="#fff" stroke-width="1.5" d="M347.925 172.08c0-4.9-1.89-9.332-4.945-12.54a16.9 16.9 0 0 0-5.366-3.798c-1.009-.448-.831-.619-1.929-.855l.032 6.142c1.324.654 1.632 1.304 2.634 2.471 2.004 2.335 3.244 5.56 3.244 9.12 0 7.12-4.96 11.732-11.07 11.732s-11.07-4.612-11.07-11.732c0-3.56 1.24-6.785 3.244-9.12 1.002-1.167 1.31-1.817 2.634-2.471l.032-6.142c-1.099.236-.92.407-1.929.855a16.9 16.9 0 0 0-5.366 3.798c-3.055 3.208-4.945 7.64-4.945 12.54 0 9.8 8.032 17.74 17.4 17.74s17.4-7.94 17.4-17.74Z" clip-rule="evenodd"/><path fill="#003271" stroke="#fff" stroke-linejoin="round" d="M232.37 378.37s14.01 12.8 27.72 14.62c13.71 1.83 35.3 8.27 35.3 8.27s.57 19.72-.1 21.43-1.1 2.16-3.07 2.23c-6.39.23-21.95.25-38.88-3.69-22.13-5.15-43.84-18.47-43.84-18.47 5.06-2.08 17.3-3.91 25.2-5.87zm195.26 0s-14.01 12.8-27.72 14.62c-13.71 1.83-35.3 8.27-35.3 8.27s-.57 19.72.1 21.43 1.1 2.16 3.07 2.23c6.39.23 21.95.25 38.88-3.69 22.13-5.15 43.84-18.47 43.84-18.47-5.06-2.08-17.3-3.91-25.2-5.87z"/><path fill="#003271" stroke="#fff" stroke-linejoin="round" d="M277.258 407.99c-2.44-.76-3.86.83-3.86.83v-34.16s1.48-1.34 4.06-.21c9.1 3.97 32.56 12.02 52.54 12.02s43.44-8.05 52.54-12.02c2.58-1.13 4.06.2 4.06.2v34.17s-1.42-1.6-3.86-.83c-9.7 3.01-35.06 10.5-52.74 10.5s-43.04-7.49-52.74-10.49z"/><path fill="#003271" d="M386.6 408.82c1.5 4-22.18 7.7-21.89 13.87zm-113.2 0c-1.5 4 22.18 7.7 21.89 13.87z"/><path stroke="#fff" stroke-linejoin="round" d="M386.6 408.82c1.5 4-22.18 7.7-21.89 13.87m-91.31-13.87c-1.5 4 22.18 7.7 21.89 13.87"/><path fill="#fec500" d="m330.003 45 23.512 72.361-61.554-44.722h76.085l-61.554 44.722zM443.85 73.059l-12.807 74.999-33.723-68.203 67.372 35.355-75.286 10.997zM531.621 150.808l-46.191 60.459 1.832-76.063 43.227 62.613-71.774-25.247zM573.216 260.482l-69.001 32.058 36.98-66.494 9.167 75.531-51.812-55.717zM559.08 376.881l-75.996-3.676 63.643-41.695-26.981 71.14-19.987-73.413zM492.471 473.381l-65.584-38.57 75.73-7.345-56.949 50.455 16.416-74.293zM388.65 527.877l-40.15-64.629 70.47 28.687-73.873 18.213 49.059-58.156zM216.154 73.059l12.806 74.999 33.723-68.203-67.371 35.355 75.286 10.997zM128.383 150.808l46.191 60.459-1.833-76.063-43.226 62.613 71.774-25.247zM86.788 260.482l69.001 32.058-36.98-66.494-9.167 75.531 51.812-55.717zM100.924 376.881l75.996-3.676-63.643-41.695 26.981 71.14 19.987-73.413zM167.533 473.381l65.584-38.57-75.73-7.345 56.949 50.455-16.416-74.293zM271.354 527.877l40.15-64.629-70.47 28.687 73.873 18.213-49.059-58.156zM363.25 385.221c5.637-1.535 11.224-3.259 16.789-5.041q.113 2.588.178 5.189a720 720 0 0 1-10.605 3.196q.014 1.915.017 3.832c3.293-.947 6.587-1.93 9.888-2.917q.027 2.49.014 4.993c-3.312.955-6.613 1.918-9.91 2.851a761 761 0 0 1-.04 4.771c3.649-1.016 7.301-2.059 10.971-3.074a304 304 0 0 1-.175 5.614c-5.747 1.513-11.46 3.145-17.2 4.651q.128-12.058.073-24.065m-25.995 5.128c3.605-.331 7.193-.874 10.758-1.552 2.333-.444 4.064-.191 5.213.834q.62.547 1.015 1.349.712 1.44.709 3.712-.003 2.24-.72 4.039a8.6 8.6 0 0 1-1.164 2.072c-1.236 1.633-3.142 2.729-5.719 3.184q-1.752.31-3.516.568a940 940 0 0 1-.08 8.879c-2.161.303-4.33.544-6.505.711q.159-11.914.009-23.796m6.583 9.364a118 118 0 0 0 1.577-.247c1.238-.202 2.106-.607 2.603-1.188q.748-.892.745-2.053-.002-1.128-.656-1.789c-.436-.442-1.252-.549-2.455-.346q-.917.154-1.835.295.018 2.663.021 5.328m-36.929.117c-.02-3.901.916-6.716 2.809-8.504 1.902-1.796 4.538-2.364 7.949-1.896 3.491.479 6.19 1.743 8.097 3.962 1.908 2.208 2.88 5.168 2.882 8.984.001 2.769-.425 5.04-1.266 6.792-.83 1.74-2.032 3.072-3.595 3.951-1.553.87-3.486 1.188-5.798.898-2.348-.295-4.301-1.036-5.846-2.156-1.538-1.12-2.793-2.717-3.759-4.765-.967-2.048-1.459-4.479-1.473-7.266m6.402 1.284c.009 2.4.41 4.195 1.195 5.365.794 1.171 1.867 1.857 3.217 2.031 1.389.18 2.465-.219 3.226-1.166.761-.948 1.139-2.754 1.136-5.405-.003-2.234-.407-3.894-1.212-5.003-.796-1.118-1.877-1.757-3.242-1.941-1.309-.177-2.356.183-3.146 1.105s-1.183 2.589-1.174 5.014m-34.186-21.324q3.078 1.105 6.184 2.131a467 467 0 0 0-.124 8.395q3.454 1.095 6.916 2.105-.003-4.19.028-8.36 3.15.935 6.326 1.776-.007 11.916.129 23.931a292 292 0 0 1-6.35-1.708 996 996 0 0 1-.111-9.748 380 380 0 0 1-6.935-2.068q.033 4.896.167 9.832c-2.095-.617-4.186-1.242-6.274-1.865a280 280 0 0 1 .044-24.421"/></g><defs><clipPath id="a"><path fill="#fff" d="M0 0h660v580H0z"/></clipPath></defs></svg>