<svg xmlns="http://www.w3.org/2000/svg" width="600" height="400" fill="none" viewBox="0 0 600 400"><g clip-path="url(#a)"><path fill="#041e42" d="M600.402 0H0v400.4h600.402z"/><path fill="#fff" fill-rule="evenodd" d="M33.214 74.676c-16.918 56.402 51.109 101.975 97.446 61.083 48.595-51.026-5.635-119.942-61.952-97.943 41.102-7.067 65.602 40.424 37.964 70.058-26.697 27.271-75.381 9.35-73.458-33.198m296.834-6.992c-2.156 1.002-3.748 3.919-4.658 6.22-2.158 6.426-4.379 12.838-6.548 19.252-1.133 2.884-2.225 5.819-3.366 8.681-2.093-.283.826-3.859.665-5.389.692-3.14 2.229-6.21 2.361-9.416-.526-2.4.054-5.516-1.138-7.469-1.779 4.104-4.032 8.035-5.562 12.232-1.151 5.035-2.696 9.982-3.342 15.12-.386 2.66-.853 5.283-1.717 7.833-2.13-.199-1.567-3.952-2.82-5.5-1.137-3.615-3.426-6.743-5.08-10.136-.846-.84-2.788-6.75-2.753-3.456-.19 2.379-.354 4.76-.572 7.137-4.733-8.846-9.481-17.684-14.22-26.527.386 2.873-.012 5.97 1.032 8.683 2.299 4.955 4.399 10 6.594 15-1.155 1.093-1.388-.713-1.965-1.448L273.824 75.31c-1.769 1.242-.537 3.532-.765 5.324.722 2.511 2.386 4.76 3.52 7.14a846 846 0 0 0 6.33 11.571c-1.525 1.682-2.356-3.08-3.448-4.153-3.959-6.868-7.878-13.762-11.955-20.562-1.786.618-2.338 1.926-2.038 3.657-.296 1.735.423 3.21 1.426 4.604 3.064 5.302 6.156 10.588 9.245 15.875-1.047 1.215-1.367-.56-1.976-1.27l-14.912-23.595c-1.209-.545-2.919-1.996-2.532.414-.575 3.017 2.704 5.127 3.776 7.736 4.421 6.84 8.976 13.717 13.379 20.49-.922 1.243-1.344-.344-1.939-1.026l-8.38-11.885c-1.043-.271-2.383-.949-1.989.744-.069 1.074-.356 2.207.556 3.016 4.469 6.707 9.021 13.379 13.438 20.106 1.433 2.931 2.738 5.95 4.25 8.827l7.655 7.878c-1.832 1.475-3.688-3.207-5.512-4.052-1.932-2.175-4.531-3.913-5.622-6.697-1.325-2.072-2.086-4.546-4.131-6.062-2.264-1.699-4.005-4.794-6.631-5.563-.849 1.872-.157 6.084 2.386 7.531.254.698 3.82 3.1 1.862 2.607-3.839-.422-7.446-1.765-11.044-3.091-2.174 2.085 5.191 3.755 1.057 4.605-2.99.041-5.296-2.67-8.028-3.674-6.812-3.725-13.79-7.155-20.755-10.571l-4.337-1.308c-.403 2.522 3.538 3.234 4.848 5.017 5.283 2.853 10.696 5.557 15.99 8.422-.169 1.592-1.605.388-2.566.235l-29.724-9.572c-1.664-.398-1.374.476-.701 1.598.166 1.299 1.456 1.363 2.463 1.739 7.778 2.609 15.548 5.241 23.33 7.837.307 1.226.564 2.465.831 3.7-1.768-1.456-3.51-3.122-5.932-3.279-5.066-1.255-10.286-.191-15.421-.132-2.741-.657-3.096 1.555-.367 2.027 2.193 1.704 5.021.747 7.57.883q6.22-.184 12.439-.405c.734 2.362-4.049.781-4.23 2.7-.478 2.278 3.821 2.278 5.372 1.813 2.372.039 4.015-3.476 6.03-2.877-.526 2.255-4.485 2.758-4.934 5.091-.298 2.337 4.471 1.649 5.842.65 1.592-1.322 4.332-3.318 4.478.224.463 3.201 4.696 1.961 6.997 3.045 4.102.626 8.301.885 12.366 1.557 3.888 1.765 7.789 3.516 11.669 5.289-.798 2.202-4.218-1.137-5.99-1.007-2.936-.82-5.641-2.486-8.76-2.517-2.696-.495-5.404-.438-8.111-.123-8.199.685-16.414 1.241-24.602 2.007-7.621 1.287-15.261 2.52-22.881 3.779-1.935.601-6.144 1.735-2.114 2.517 8.652-.406 17.287-1.135 25.923-1.787.624 1.51-1.231.995-2.161 1.236l-21.547 2.187c-2.211 1.635-5.162 2.535-6.368 5.209.347 3.808 5.114.326 7.475.579 6.215-1.045 12.406-2.034 18.398-3.951 1.785.143 6.248-3.045 6.518-.755-6.775 2.09-13.568 4.209-20.4 6.103l-4.365 1.019c-.424 3.498 4.865 1.458 7.022 2.014 4.742-1.109 9.261-3.022 13.947-4.351 2.499-.206 6.285-3.135 8.096-1.932-1.609 1.642-5.346 2.509-7.682 3.868-4.822 2.11-9.712 4.047-14.411 6.442-3.096 3.136 3.289 2.848 4.856 1.224 5.021-2.303 9.979-4.734 14.926-7.214 1.212 1.003-.571 1.482-1.202 2.17-2.802 2.194-5.536 4.463-8.66 6.188-1.211.972-3.19 1.311-3.427 3.093 2.745 1.561 5.367-.332 7.827-1.56a786 786 0 0 1 19.48-12.207c2.83-1.267 5.733-2.364 8.607-3.523 1.111 1.108-.704 1.445-1.392 2.096-3.159 2.113-6.329 4.212-9.48 6.335-3.445 3.563-6.564 7.481-10.632 10.373-1.897 1.587-3.833 3.016-5.332 4.766-2.975 2.992-6.055 5.877-9.002 8.896-.92 3.05-2.879 5.916-2.663 9.188.038 3.522-.362 7.084-.031 10.582.362 1.454 1.201 4.769 1.485 1.455.16-1.515 1.205-6.739 2.327-3.073.617 1.371 1.224 5.505 1.955 4.788 1.07-2.122 1.269-5.098 2.992-6.707 1.535.896 2.748 3.107 4.211.564 1.856-2.161 1.581-5.41 2.504-8.041a7235 7235 0 0 1 2.396-10.241c1.454-.421 1.11 1.341 1.472 2.245l1.397 6.312c3.175-1.376 1.879-5.668 2.902-8.383.204-2.035.851-7.393 3.036-3.303 1.284 3.079 4.841-.471 4.733-2.71.726-3.547 1.421-7.101 2.164-10.646.953 1.698 1.947 3.373 2.92 5.059 3.315-.154 4.456-3.479 6.607-5.45 1.932-2.006 3.656-4.331 5.801-6.077 2.444-1.259 4.734-2.942 7.248-4.027 2.453 2.268-1.249 5.329-2.643 7.274-3.11 3.842-6.948 7.008-10.204 10.728-1.286 1.483-3.296 2.729-2.757 4.937 1.634.728 3.337 1.39 4.983 2.129-2.485 1.245-5.156 2.317-7.45 3.825-2.22 1.921-4.617 3.626-6.946 5.411-.629 1.69-1.035 3.598 1.465 2.895 1.785-.307 6.591.456 2.814 2.214-3.55 2.32-7.661 3.769-11.175 6.066-.973 1.299-3.585 3.338-.403 3.246 2.126-.305 5.308-3.545 6.888-1.905-2.235 2.469-5.131 4.851-7.576 7.318-1.245.964-4.007 3.643-2.372 4.396 3.874-1.852 6.596-5.333 9.896-7.986 1.16-1.842 4.268-3.479 3.284.113-3.832 4.771-7.536 9.677-11.479 14.323.397 4.665 3.397-1.339 4.875-2.591 2.305-2.721 4.447-5.635 7.46-7.625 1.045-.227 3.803-4.156 3.949-2.55-.07 1.336.342 2.827-.793 3.867-2.383 3.212-3.975 6.885-5.927 10.358-.322 1.5-.656 5.808 1.51 3.776 2.579-4.81 5.726-9.308 7.757-14.401 2.081-4.369 3.485-9.057 5.23-13.536 1.468-2.191 2.186-1.448 1.981.842.237 2.131.147 6.689 1.618 7.011 2.673-6.108 6.029-11.885 8.879-17.902.987-2.936 2.159-5.819 3.378-8.675 1.535-.161.83 1.506.981 2.474-.103 1.942.206 3.952-.151 5.852-1.656 4.756-2.898 9.662-5.208 14.164-1.4 2.895-3.379 5.504-4.733 8.416-1.357 1.767-.854 1.78.675.741 2.705-1.238 4.52-3.559 6.395-5.768 2.949-2.365.76 3.013.08 4.153-1.604 4.548-2.642 9.319-4.457 13.81-.023 1.361-.495 4.489 1.239 2.094 3.255-2.544 4.44-6.621 6.387-10.098 1.18 1.725 3.401 2.722 4.477.595-.181-2.686-1.419-5.47-.21-8.072 1.194-4.303 2.175-8.687 2.849-13.098.324-2.682.505-5.393.837-8.066 1.492-.768.861 1.601.981 2.5v6.133c1.462.161 4.144-2.43 4.908-.73-1.476 1.264-3.729 2.047-5.065 3.422l-.17 5.135 5.461-3.322c1.291.908-.42 1.536-1.005 2.287l-4.481 4.181-.076 3.624c1.266-.397 2.541-.767 3.801-1.183 1.038 1.182-.753 1.449-1.495 2.065-.84.78-2.728.914-2.455 2.38a755 755 0 0 1-.379 11.059c.665-1.318 3.013-4.491 2.67-4.671-.77 1.507-3.571 1.608-1.664.04.793-.963 5.115-4.039 3.589-.965-1.488 2.145-2.78 5.001-4.342 6.763-.444-.043-.977 3.11.369 2.487 1.118.761 4.566 1.108 2.185 2.431-1.02 1.023-2.296 1.934-3.16 3.026.071 3.086-.707 8.225-.103 10.018.911-1.28 3.907-3.59 3.278-4.195-1.264.604-5.114.316-2.42-.664 1.642-.622 6.228-.798 3.297 1.787-1.561 2.783-5.278 3.659-4.577 6.703.014 2.246-.906 3.618 1.844 3.207 3.146-.275 3.365 2.791.529 3.63-1.95 1.138-3.655 1.064-2.477 3.649.608 1.7 4.803 2.846 3.75 4.606-.157-1.985-.603.766-1.689-1.225-1.336-1.066-3.056-3.6-2.491-.239q-.37 9.617-.753 19.233c1.323-.405 3.669 1.448 3.692 2.306-1.364 1.265-4.619-4.259-3.773.115.046 1.97-.472 5.611-.071 6.528.656-.552 1.698 1.027 2.503 1.299l2.758 1.908c-.506 1.562-1.584-.049-2.447-.464l-3.039-2.103c.237 2.606-.908 7.402.142 8.75 1.196.881 4.321 3.417 4.244 4.834-1.547.412-3.78-4.202-4.753-3.938-.151 3.89-.29 7.78-.439 11.671 1.625.544 4.914 2.659 5.771 3.99-1.467 1.244-4.565-3.373-5.834-2.787-.231 3.143-.042 6.355-.492 9.461-.596 2.259 5.626 1.701 4.28 4.008-2.294-.756-5.479-4.039-5.497.204-.49 3.381-3.569 6.835-1.172 10.04.922 2.602 3.878 3.71 6.09 5.033 2.614-.412 5.123-1.704 7.844-1.806 4.011-.621 8.091-.845 12.089-1.491 1.69-1.232 3.783-2.393 1.237-3.974-2.028-2.488-1.546-6.035-2.722-8.861-.002-2.3-.475-3.3-2.498-1.639-1.587.314-4.052 3.696-4.951 1.588 2.37-1.147 4.521-2.638 6.921-3.75-.284-3.01-.866-6.003-.805-9.035-1.897 1.223-4.697 3.766-6.517 3.415.742-1.694 4.368-2.439 5.913-4.22 1.122-.015.389-1.608.58-2.548l-.077-7.872c-1.757 1.983-3.86 3.397-6.519 3.826-1.977-1.729 3.019-1.106 3.665-2.578 1.195-1.351 3.406-2.193 2.814-4.305l-.061-6.959c-1.545 1.026-4.378 4.707-5.87 3.182 1.614-1.438 5.108-2.814 5.84-4.965l-.096-9.04a11.92 11.92 0 0 1-6.631 4.453c-1.32 1.465-4.015.163-1.33-.57 2.621-.868 5.266-1.817 6.896-4.199 1.481-.793.983-2.204 1.036-3.665l-.071-6.438c-3.13 2.775-5.957 5.851-9.061 8.658-1.634-1.725 3.037-3.221 3.7-4.933 1.545-1.852 4.165-3.641 5.357-5.232l-.072-7.025c-1.192 1.103-3.124 2.502-.679 1.183 1.094 1.232-.827 1.357-1.632 1.892-1.108.52-2.22 1.032-3.326 1.556-1.157-2.173 3.744-3.238 4.721-5.149 1.322.325.832-.921.892-2.208l-.051-4.9c-1.635 2.977-4.893 1.251-7.493.71-1.92-.156-.113-.742.684-1.217l6.179-3.318c1.162 1.172-.754 1.394-1.53 1.968l-3.654 1.933c2.283 1.279 5.083.46 5.784-1.758.006-3.923-.107-7.778-.298-11.707-1.804 1.813-2.84 3.797-5.083 4.606 1.049-.485 5.376.144 2.466.906-1.669.333-7.24.546-3.341-1.58 1.991-.782 3.284-2.236 4.55-3.907 1.505-.867 1.491-1.455 1.287-3.227l-.306-7.243c-.914 1.124-4.806 4.2-3.813 4.197 1.165-.735 5.732-.948 3.016.371-1.741-.111-5.505 2.315-6.124.189 2.426-1.393 4.21-3.568 6.236-5.486 1.187.152.405-1.593.554-2.671l-.876-21.742c-1.14 1.012-5.913 4.869-4.168 1.04 1.17-1.341 2.362-3.686 3.662-4.142.85-.437.074-2.019.272-2.915.196-2.218-1.157-4.108-1.818-6.144-.046-.832-1.606-2.286-.28-2.533 1.444 1.226 2.127 4.556 3.297 6.526 1.779 4.118 3.811 8.146 5.377 12.346.866 3.494 1.788 6.977 1.913 10.595.888-.324 2.546.212 2.485-1.173.207-1.363 1.192-2.768.327-4.073-3.898-10.608-8.33-21.003-12.451-31.524.977-1.015 1.301.369 1.684 1.194 2.398 4.779 3.964 9.919 5.961 14.876 2.027 5.374 4.159 10.718 6.6 15.918 3.755-2.184.649-6.097.119-9.275-1.755-5.813-4.127-11.421-6.161-17.142-.603-1.017-1.923-1.494-2.801-2.304-1.293-.953-2.618-1.919-3.892-2.864 1.059-2 3.41 1.516 5.035 1.69 2.795 2.945 3.484-1.582 5.964-2.102.695 2.552-4.019 4.617-1.509 7.564 1.809 6.172 3.432 12.405 5.828 18.383.397 1.077.797 2.153 1.192 3.232-.811 1.165.344 6.15 1.996 4.865.566-2.691 2.287-5.355.825-8.076-2.145-8.201-5.091-16.167-7.571-24.271.033-2.954 1.878 1.259 2.084 2.529 2.851 7.741 5.935 15.412 8.454 23.266-.535 2.308-.518 7.187 2.492 4.43.135-3.081.375-6.235-.906-9.136-2.606-6.936-4.678-14.075-6.997-21.116-1.324 1.441-3.815.061-4.202-1.53.445-3.499-2.444-3.401-5.053-3.176-1.141-.111 1.992-1.746 2.359-2.341 1.41-.775 4.413-3.145 1.517-3.781-.925-.425-1.846-.861-2.775-1.278 1.382-2.378 2.814-4.713 4.645-6.784 1.129-2.056.271-5.746-1.917-7-1.588-.872-1.409-2.883-2.037-4.374-.828-.877.003-2.568.664-1.296l1.237 4.253c2.391 1.283 3.5 3.388 3.445 6.041 1.09 2.477-1.783 3.98-2.843 5.855-.632.918-1.165 1.908-1.759 2.852 1.33.628 2.689 1.198 4.001 1.863.276 2.501-4.041 4.154-3.725 5.008 4.19-1.124 1.647 4.715 4.809 5.193 1.075-.01 2.009-1.079 3.026-1.523 1.815.343-.761 1.188-.334 1.999 3.381 9.194 6.854 18.397 10.067 27.628-.307 3.34 2.875 3.776 4.857 5.16.274 1.78 1.126 5.162 3.005 4.436.081-4.764.379-9.555.393-14.302.271-1.626-2.491-5.567-.227-5.764 1.272 3.725 2.955 7.357 3.828 11.191.615 2.49-.611 6.536 2.961 6.906 1.576.641.356-5.083 2.045-3.524l2.794 2.214c3.78.091.969-4.054 1.031-6.166-1.189-2.955-2.317-5.947-3.498-8.909 1.76-.728-.945.258-.436-1.63-.406-2.922-2.3-5.12-3.995-7.405-.719-1.549-.671-3.383-2.014-1.184-1.598 1.324-.894 3.506.227 4.901 1.823 2.822 1.643 6.551 3.919 9.102 1.002 1.643 2.345 3.301 1.997 5.34.089.938.164 2.804-1.007 1.901-.156-1.593.428-3.315-.557-4.581-1.207-2.373-2.939-3.854-3.419-6.52-.523-2.68-2.018-4.972-3.146-7.399.253-.589-3.761.323-3.449-.931 1.11-.156.913-.645 2.795-.227 1.424-1.204 1.41-3.473.453-4.983-1.891-4.236-4.802-7.949-6.922-12.055-.534-2.681.531-5.98-2.04-7.848-2.655-2.586-3.999-6.074-5.485-9.392-1.706-2.378-4.484-3.779-6.468-5.94-1.08.342-5.151.469-3.129-.75 2.785-1.115 4.702.475 6.476 2.361 2.022 1.572 4.169 3.197 4.847 5.779 1.26 3.014 2.902 5.802 5.237 8.114 2.058 1.932.995 5.021 1.544 7.5 2.533 4.594 5.921 8.789 7.626 13.792-.369 2.187.604-.701 1.643-.446-.098-2.477.765-5.827-.838-8.137-1.673-3.11-3.621-6.109-5.134-9.287-1.053-2.267-2.341-5.104-3.515-7.579-1.232-2.86-3.022-5.427-4.715-8.025 1.688-1.765 2.567 3.32 3.876 4.203 2.947 5.214 4.802 10.973 8.024 16.04.94 2.224 2.933 4.175 3.354 6.543.324 1.416-.562 6.003.587 5.622.574-1.105 1.158-2.205 1.726-3.314.919-.435 2.736-.158 2.957-1.163.318-3.091-2.795-5.341-3.108-8.375-.879-4.139-2.538-8.053-4.596-11.736-2.209-4.849-5.451-9.155-7.199-14.217-.463-2.952 1.932.817 1.982 2.195 1.699 3.868 4.182 7.343 5.937 11.199 1.673 3.137 3.273 6.3 4.192 9.755.629 3.248 1.97 6.251 3.661 9.096.29 1.298-.038 2.309 1.068 2.427.511 1.193-1.973.589-.991 2.417.283 1.144-.297 5.466-1.154 3.006.075-2.028 1.031-5.326-1.866-3.773-.772.668-1.067 1.944-1.66 2.84-.488 1.218-2.312 1.132-1.07 2.862 1.625 2.419 3.787 4.573 4.212 7.586.344 2.686 2.576 4.506 3.926 6.827 1.464 1.504 3.181 6.11 4.649 5.283.656-2.86-1.856-4.768-2.774-7.253-1.965-4.203-3.748-8.49-5.624-12.734 1.525 1.1 3.468 1.741 4.338 3.545 3.49 4.65 6.923 9.347 10.511 13.921 3.759 1.806 1.451-2.88.302-4.354-2.867-5.786-6.792-10.961-10.179-16.449-.736-.75-3.089-4.401-.892-3.277l11.6 14.315c1.306.893 3.665 1.636 2.88-.587-3.316-6.055-7.537-11.552-11.229-17.383-3.86-5.491-7.139-11.36-10.603-17.114 1.823-1.475 4.215 2.229 6.247 2.713 3.249 1.775 6.145 4.042 8.806 6.604 4.483 3.899 8.793 8.025 13.452 11.706 2.322 1.271 4.132 3.493 6.63 4.321.041-.838-2.554-3.989-1.464-3.968 2.617.737 5.091 1.824 7.509 3.032 1.62.798 6.687 2.704 4.148-.599-.808-1.652-4.658-2.547-4.029-4.34.714-.384 1.874.823 2.76 1.051 2.034 1.222 4.32 1.777 6.654 2.106 3.412-.153 1.269-3.706-1.036-3.729-5.289-2.818-10.537-5.718-15.801-8.578 1.092-2.21 4.662 1.299 6.72 1.183 1.203-.378 5.62.53 4.074-1.555-.654-.802-2.007-.828-2.944-1.316-7.212-2.613-14.438-5.193-21.642-7.825-3.073-2.071-6.198-4.078-9.287-6.116.473-1.893 3.569.546 5.109.352 2.699.705 5.411 1.288 8.214 1.254 1.8.049 5.576.507 6.231.207-1.193-.643-6.453-2.166-3.45-2.986 1.506-.093 6.241-.188 2.205-.338-2.863-.297-5.855-.195-8.619-.955.353-1.023 1.784-.638 3.652-.439 2.039.699 6.17-.499 6.967 1.211 2.024.648 5.579-.184 8.184-.026 3.604-.317 7.569.18 10.946-.71 1.178-1.834 4.699-2.429 4.634-4.809-.235-2.208-.26-4.485-.623-6.652-.75-.819-.909-2.484-2.179-2.558-3.404-.559-6.659-1.494-9.886-2.653-6.718-.164-13.462-.104-20.16-.504-2.171-.141-4.755 1.825-7.248 1.686-3.853.388-7.788.069-11.524 1.261-1.441 1.117-3.444-.495-1.136-.782 2.886-.764 5.806-1.287 8.802-1.241 3.045-.098 6.107-.325 8.931-1.572 1.731-1.174 2.114.821 2.453-1.357 1.584-.601 6.655-.175 5.46-1.845-6.256.212-12.516.288-18.775.402-2.251-.222-5.121 1.169-7.349 2.24-2.61 1.056-.457-1.591 1.158-1.661 2.771-1.643 6.218-1.236 8.909-3.02 4.206-1.96 8.158-4.44 12.257-6.594 1.065-.942 4.028-2.411.893-2.716-2.46-.567-5.089.85-7.638.879-3.36.593.004-2.335 1.267-2.9a161 161 0 0 0 11.518-6.563c1.191-.909 4.705-1.529 3.574-3.046-3.182 1.063-6.332 2.584-9.589 3.474-1.101.262-6.098.88-3.63-1.068 4.797-3.169 9.519-6.454 14.276-9.679 1.585-2.129.437-2.183-1.465-1.314-2.203.67-3.844 2.471-5.896 3.518-.704 1.235-4.651 2.28-2.556.141 2.125-1.846 4.201-3.755 6.419-5.491 1.121-1.56 2.27-5.277-.774-3.526-1.963 1.033-4.486 1.187-5.853 3.096-2.416 2.511-4.878 5.005-7.266 7.527-1.745-1.636 2.769-3.441 3.325-5.175 1.961-2.245 4.026-4.429 5.786-6.83.372-1.969.458-3.355-1.54-1.983l-2.915 1.253c.293 2.031-4.018 4.153-5.386 6.166-2.315 1.977-5.463 2.807-7.5 5.16-1.627-1.738 2.851-3.057 4.002-4.077 3.256-1.584 5.458-4.568 8.079-6.972-2.868.582-6.173.464-7.852 3.322-4.343 4.128-8.568 8.401-13.012 12.408-5.418 3.757-10.924 7.438-16.485 10.948-2.543 1.024-6.158.183-7.363 3.25-2.124 2.988-4.64 5.661-7.008 8.453 2.545-.56 4.963.021 7.261 1.15 2.209.773 4.087 2.3 6.204 3.254-.472 2.104-3.374 3.698-5.658 3.312-1.435-.039-2.729-1.009-4.107-1.424.136-1.655 1.54-.32 2.477-.086 1.839.997 4.335.608 5.691-1.024-.708-1.452-4.461-2.919-6.639-3.73-1.977-1.188-4.243-.371-6.387-.345-2.536.576.709-1.67 1.083-2.548 2.807-3.154 5.492-6.407 7.927-9.859-.176-2.548 2.649-4.349 3.59-6.7 2.768-4.08 4.198-8.889 6.321-13.322.904-1.85.437-4.01.673-6.011-.068-1.086.317-2.27-.063-3.288-1.971 3.626-3.998 7.248-5.89 10.898-2.331.135-.24-3.56.432-4.52 1.792-3.622 3.813-7.182 5.488-10.831l.146-4.582c-1.51-1.312-2.27 3.165-3.469 4.214-2.623 4.367-5.045 8.88-7.78 13.166-.268 1.449-3.165 2.502-2.004.449 3.908-7.189 7.921-14.351 11.93-21.465 1.61-2.856 1.093-6.192 1.323-9.325-1.545-2.44-2.623 1.313-3.86 2.283-1.583 1.966-2.165 4.548-3.381 6.756-1.973 4.284-4.018 8.541-6.023 12.806-2.242-.924 1.294-4.272 1.324-6.156 1.922-4.967 3.835-9.938 5.749-14.91-.959-1.993-3.112 3.268-4.128 4.48-1.826 4.08-3.945 8.02-5.965 12.006-2.159-.942 1.318-4.258 1.224-6.064 1.045-3.019 2.421-6.01 3.432-8.987-.152-1.124 1.441-4.045.025-4.102m13.843 54.161c.497 1.986-2.495 2.891-3.725 4.43-1.547.577-7.076 1.934-4.696 3.177 1.573-.833 3.15-1.66 4.721-2.498 2.01 1.908 5.052 3.95 4.814 6.864-1.91.479-1.095-3.743-3.369-4.136-1.049-1.814-2.375-1.351-3.786-.353-1.122.605-2.267 1.168-3.372 1.803-1.878-2.564.203-4.637 2.905-4.943 2.679-.418 4.239-2.727 6.256-4.268l.055-.046zm14.245 5.537c.186 2.241-3.756 1.264-4.819 3.155-1.719.831-3.459 3.385-4.994 3.363-1.695-.33 2.037-1.967 2.632-2.889 2.149-1.723 4.342-3.31 7.181-3.629m18.272 8.758c-.436.417-.131.334 0 0m-51.62 2.19c2.336.879 4.825 1.437 6.803 3.051 2.555.904 2.676 3.826 3.417 6.033.072 1.421-1.156 5.944-2.445 4.977.52-2.085 2.37-4.654.808-7.039-.206-2.622-2.928-3.35-4.771-4.614l-4.164-1.477zm65.789.252c4.744.194 9.529.401 14.245.855.526.556-.948.589-.73.881-6.11-.278-12.219-1.021-18.336-.514-2.864-.369-5.365 1.819-8.265 1.202-1.545.302-5.104-.523-2.669-1.166 2.778.311 5.606.345 8.198-.846 2.455-.447 5.056-.148 7.557-.412m-7.299 3.976c4.902.698 9.825 1.133 14.779 1.073 3.122.175 6.775-.137 9.579.36-.466 2.079-4.826.074-6.689.695-5.502-.066-11.016-.065-16.461-.97-1.053.03-1.38-.136-1.208-1.158m5.311 5.487c2.016 2.101 4.904 2.479 7.806 2.007 3.415-.221 6.915.704 10.227-.567 2.881-.268-.21 1.621-1.718 1.433-3.347.703-6.768-.226-10.149.197-2.701.956-4.914-1.321-6.853-1.828-1.45.857-3.044 1.043-4.682.922h-7.064c-.477-1.57 1.332-.854 2.273-1.007 2.353-.016 4.715.034 7.064-.025 1.02-.399 2.012-.926 3.096-1.132m-96.217 3.196c2.453 1.01-1.993 3.439-1.269 5.036.109 1.675.307 2.866 1.093.551.36-1.082.693-2.174 1.082-3.246.992 1.635 2.295 2.55 4.178 2.567.805 1.381 1.19 4.51 2.038 1.619.776-1.492 1.375-3.216 2.492-4.438 1.816 1.037-.251 4.729.277 6.619-.149 2.979.484 5.961.062 8.948.261 1.778-1.493 6.303 1.668 4.146 1.091-.519 1.234-2.057 1.903-3.03 1.21-2.342.763-5.195 1.552-7.673 2.345-.601.216 6.516 2.479 4.258.659-2.408-1.125-4.437-1.322-7.102v-4.731c1.57-.477.855 1.332 1.007 2.272-.115 1.897.084 3.783.906 5.53 2.586 1.395 2.171-3.413 4.228-4.38 2.241-.895.982-5.567 3.247-5.058-.211 2.879-1.814 5.26-3.8 7.223-.814 1.372-1.193 4.683-3.524 3.347 1.691 1.734-.228 5.372-2.315 4.757-.462-1.541-.499-3.346-.744-.711-.073 2.198-1.611 3.938-2.402 5.921-1.901 1.043-5.318 2.186-4.069-1.349.232-3.788.507-7.579.042-11.361-.044-1.243.632-5.15.016-4.382-.874 1.767-1.709 3.566-2.583 5.338-1.082-1.619-.651-5.441-3.214-5.053-1.421-.283-1.922-1.979-2.273.322-.629.68-1.411 4.482-2.542 2.768-.275-2.092-.102-5.34-2.491-2.793-.439-1.701-.855-3.407-1.284-5.11 1.408-.854 1.159 1.073 1.533 1.954-.081 2.89 3.011.073 3.375-1.425q.325-.668.654-1.334m39.463 12.76c2.683 5.436 5.526 10.81 8.406 16.158 1.556 3.795 3.435 7.501 4.09 11.585-.615 1.94 3.957 4.571 1.724 5.076-2.465-1.927-2.719-4.987-3.397-7.802-1.611-5.023-3.933-9.811-6.51-14.415-1.858-3.305-3.436-6.74-5.168-10.098zm-5.486 5.94c2.564.294-2.331 2.962.859 3.262 1.652.271 1.226 2.607 2.723 2.999 3.767.216-.408 5.575 3.465 4.787 1.859 1.464-.096 5.251 2.819 6.217 2.421 1.164 1.735 4.035 2.867 6.024.269 1.525 1.142 1.295 2.195.543.783-.519 2.349-1.327 2.054.105q-2.049 1.017-4.096 2.036c-1.088-2.107-2.056-4.279-2.291-6.67-2.132-1.604-4.065-3.388-3.731-6.319.507-2.248-3.775.041-2.644-2.788 1.483-2.875-1.837-2.505-2.522-4.435-.19-1.935-3.093-1.619-3.259-3.32.478-.841 1.079-1.603 1.561-2.441m-15.378 27.76c-.421 1.251-4.449 5.01-1.47 2.635 1.54-.932 1.76-.326 1.482-2.392l-.009-.175zm-.604 8.934c2.911.496-3.619 3.298-2.217 3.368.854-.62 2.68-.541 1.732.536l-4.246 1.306c-1.055-2.26 3.583-3.388 4.681-5.159zm.302 9.64c2.39.074-1.309 2.488-1.988 3.523-2.607 2.12 3.1-2.101 2.643-.005-1.092.766-5.057 3.26-6.427 1.88 1.715-1.952 4.172-3.225 5.772-5.398m-14.345 8.632c-.133 1.839-.484 4.152 1.285 1.865 1.969-1.208-.206-1.154-1.285-1.865m-.856 22.274c-.043 1.728-.696 4.477 1.585 2.315 1.69-.734 2.954-2.061.237-2.037-.606-.099-1.216-.184-1.822-.278m-.428 18.876c1.519.926 5.398 1.157 5.299 2.888-1.087-.17-5.107-1.096-5.299-2.406zm-6.921 63.598c-5.945.164-11.909-.028-17.844.177-2.565 1.634-5.529 2.708-7.535 5.073-1.518 2.134 2.55 3.962 4.641 3.484 1.054.7 4.817-.67 4.178 1.308-.985 2.857-4.198 3.359-6.318 5.084-1.307 2.716 1.796 6.089 4.128 3.499 1.382-1.313 2.575-1.464 3.554.156 1.618 1.269-1.134 4.684 2.411 4.5 2.315-1.167 4.381-3.204 6.556-4.748 1.443-1.845 3.779-3.896 4.694-.412 2.119 1.813 4.777 1.362 7.309 1.195 3.11-.106 6.534-.524 8.322-3.454 2.907-1.389 5.679 1.447 7.145 3.723 1.963 1.289 5.236 1.46 4.235-1.806-.771-2.137-.104-4.397 2.465-3.02 2.814.538 4.997 2.669 7.696 3.413-.163-2.052-.191-5.917 2.657-3.291 2.401 1.74 4.909 3.427 7.813 4.197.104-1.212-.216-2.538.176-3.675 1.867-1.918 5.601 3.71 4.782-.579.389-1.472-1.627-4.726.428-4.505 2.837 1.197 5.83 2.024 8.859 2.567-2.005-3.334-5.585-5.166-8.632-7.399-2.942-1.225-6.052-2.196-9.271-2.135-3.473-.316-7.032-.172-10.459-.68-1.468-1.067-1.226-.115-.958.198-2.049 2.937-5.71 2.368-8.81 2.922-4.331.414-8.707.848-12.809 2.388-2.836.369-5.344-2.132-7.397-3.877-.902-1.25-1.329-2.891-2.016-4.303" clip-rule="evenodd"/></g><defs><clipPath id="a"><path fill="#fff" d="M0 0h600v400H0z"/></clipPath></defs></svg>