<svg xmlns="http://www.w3.org/2000/svg" width="600" height="360" fill="none" viewBox="0 0 600 360"><g clip-path="url(#a)"><path fill="#c00" d="M0 0h600v360H0z"/><path fill="#fff" d="M555 0h45v360h-45z"/><path fill="#002d65" d="M562.5 0H600v360h-37.5z"/><path fill="#002d65" d="M562.5 0H600v360h-37.5z"/><path fill="#fff" d="M277.5 277.5c53.848 0 97.5-43.652 97.5-97.5s-43.652-97.5-97.5-97.5S180 126.152 180 180s43.652 97.5 97.5 97.5"/><path fill="#002d65" d="M277.5 270c49.706 0 90-40.294 90-90s-40.294-90-90-90-90 40.294-90 90 40.294 90 90 90"/><path fill="#fff" d="m276.344 183.566-24.981 34.384 17.191 12.49"/><path fill="#fff" d="M276.344 183.566v42.5h-21.25"/><path fill="#fff" d="m305.707 223.987-40.42-13.134-6.566 20.21"/><path fill="#fff" d="m305.707 223.987-40.42 13.133-6.566-20.21"/><path fill="#fff" d="M276.34 264.406v-42.5h-21.25"/><path fill="#fff" d="m276.34 264.406-24.981-34.383 17.192-12.49"/><path fill="#fff" d="m228.824 248.968 40.42-13.134-6.566-20.21"/><path fill="#fff" d="m228.824 248.968 24.981-34.384 17.192 12.491"/><path fill="#fff" d="m228.824 199.006 24.981 34.383 17.192-12.491"/><path fill="#fff" d="m228.824 199.006 40.42 13.133-6.566 20.21M274.988 177.213l-17.286-38.825-19.413 8.643"/><path fill="#fff" d="m274.988 177.213-36.806-21.25 10.625-18.403"/><path fill="#fff" d="m225.301 182.436 31.583-28.438-14.219-15.792"/><path fill="#fff" d="m225.301 182.436 8.836-41.571 20.786 4.418"/><path fill="#fff" d="m204.98 136.793 36.807 21.25 10.625-18.403"/><path fill="#fff" d="m204.98 136.793 42.268-4.442 2.221 21.134"/><path fill="#fff" d="m242.105 103.363-8.836 41.571 20.786 4.418"/><path fill="#fff" d="m242.105 103.363 17.287 38.825-19.413 8.643"/><path fill="#fff" d="m285.375 128.343-42.267 4.443 2.221 21.133"/><path fill="#fff" d="m285.375 128.343-31.584 28.438-14.219-15.792M281.168 179.22l42.267 4.443 2.221-21.134"/><path fill="#fff" d="m281.168 179.22 36.806-21.25 10.625 18.404"/><path fill="#fff" d="m301.492 133.578 8.836 41.571 20.786-4.418"/><path fill="#fff" d="m301.492 133.578 31.584 28.438-14.219 15.792"/><path fill="#fff" d="m351.18 138.801-36.806 21.25 10.625 18.403"/><path fill="#fff" d="m351.18 138.801-17.287 38.825-19.412-8.643"/><path fill="#fff" d="m361.566 187.67-31.583-28.438-14.219 15.792"/><path fill="#fff" d="m361.566 187.67-42.267-4.442 2.221-21.134"/><path fill="#fff" d="m318.301 212.651 17.286-38.826-19.413-8.643"/><path fill="#fff" d="m318.301 212.651-8.836-41.571 20.785-4.418"/></g><defs><clipPath id="a"><path fill="#fff" d="M0 0h600v360H0z"/></clipPath></defs></svg>