<svg xmlns="http://www.w3.org/2000/svg" width="600" height="400" fill="none" viewBox="0 0 600 400"><g clip-path="url(#a)"><path fill="#bf0d3e" d="M0 0h600v400H0z"/><path fill="#fff" d="M0 0h600v200H0z"/><path fill="#00205b" d="M0 0h200v400H0z"/><path fill="#fff" d="m100 125-23.176 71.329 31.702 10.301"/><path fill="#fff" d="m100 125 23.176 71.329-31.702 10.301"/><path fill="#fff" d="M171.332 176.824h-75v33.333"/><path fill="#fff" d="m171.332 176.824-60.676 44.084-19.593-26.968"/><path fill="#fff" d="m144.082 260.676-23.176-71.329-31.702 10.301"/><path fill="#fff" d="m144.082 260.676-60.676-44.084 19.593-26.967"/><path fill="#fff" d="m55.914 260.676 60.676-44.084-19.592-26.967"/><path fill="#fff" d="m55.914 260.676 23.176-71.329 31.702 10.301"/><path fill="#fff" d="m28.672 176.824 60.676 44.084 19.593-26.968"/><path fill="#fff" d="M28.672 176.824h75v33.333"/></g><defs><clipPath id="a"><path fill="#fff" d="M0 0h600v400H0z"/></clipPath></defs></svg>