<svg xmlns="http://www.w3.org/2000/svg" width="600" height="360" fill="none" viewBox="0 0 600 360"><g clip-path="url(#a)"><path fill="#fff" d="M0 0h600v360H0z"/><path fill="#071d49" d="M600 0v145.367l-60-34.65-30 17.333-90-51.967L390.017 93.4 300 41.433 209.983 93.4 180 76.083 90 128.05l-30-17.333-60 34.65V0z"/><path fill="#aa0200" d="M600 249.283V360H0V249.283h180l120 69.284 120-69.284z"/><path fill="#071d49" d="M403.924 240V120L300.008 60l-103.934 60v120l103.934 60z"/><path fill="#ffb81d" d="m300 70.883-94.5 54.567v109.117l94.5 54.566 94.5-54.566V125.45zm90 161.084-90 51.966-90-51.966V128.05l90-51.967 90 51.967z"/><path fill="#ffb81d" d="M332.55 125.933H267.5c-1.25 0-1.883-1.533-.983-2.4 9.467-9.066 20.933-14.966 33.467-14.966s24.116 5.9 33.533 14.966c.9.867.283 2.4-.983 2.4zM347.432 149.2h-94.867c-1.867 0-3.067-1.983-2.217-3.633a91.5 91.5 0 0 1 6.2-10.284 8.08 8.08 0 0 1 6.634-3.45h73.666c2.65 0 5.134 1.3 6.634 3.467a91 91 0 0 1 6.166 10.267c.85 1.65-.35 3.633-2.216 3.633M356.017 172.45H243.983a2.487 2.487 0 0 1-2.416-3.1c.95-3.667 1.916-7.133 2.933-10.183a5.96 5.96 0 0 1 5.667-4.084h99.683c2.567 0 4.85 1.65 5.667 4.084 1.016 3.05 2 6.516 2.933 10.183.4 1.567-.8 3.1-2.417 3.1zM361.066 195.717H238.95a2.49 2.49 0 0 1-2.45-2.95c.6-3.15 1.233-6.417 1.916-9.684a5.975 5.975 0 0 1 5.834-4.733h111.516a5.95 5.95 0 0 1 5.834 4.733 524 524 0 0 1 1.916 9.684 2.49 2.49 0 0 1-2.45 2.95M311.617 218.967a2.494 2.494 0 0 1-2.5-2.484 9.06 9.06 0 0 0-2.667-6.433 9.1 9.1 0 0 0-6.45-2.667c-5.033 0-9.116 4.067-9.116 9.084a2.493 2.493 0 0 1-2.5 2.483H235c-1.533 0-2.7-1.35-2.466-2.85.333-2.183.85-5.5 1.516-9.533a5.96 5.96 0 0 1 5.884-4.967h120.15c2.916 0 5.4 2.1 5.883 4.967.667 4.033 1.183 7.35 1.517 9.533.233 1.5-.934 2.85-2.467 2.85h-53.383z"/><path fill="#fff" d="m300.001 234.283 3.717 11.467h12.05l-9.75 7.083 3.733 11.45-9.75-7.083-9.75 7.083 3.717-11.45-9.734-7.083h12.034z"/></g><defs><clipPath id="a"><path fill="#fff" d="M0 0h600v360H0z"/></clipPath></defs></svg>