<svg xmlns="http://www.w3.org/2000/svg" xml:space="preserve" style="enable-background:new 0 0 45 45" viewBox="0 0 45 45"><defs><clipPath id="a" clipPathUnits="userSpaceOnUse"><path d="M0 36h36V0H0v36Z"/></clipPath><clipPath id="b" clipPathUnits="userSpaceOnUse"><path d="M4 31a4 4 0 0 1-4-4V9a4 4 0 0 1 4-4h28a4 4 0 0 1 4 4v18a4 4 0 0 1-4 4H4z"/></clipPath><clipPath id="c" clipPathUnits="userSpaceOnUse"><path d="M0 36h36V0H0v36Z"/></clipPath></defs><g clip-path="url(#a)" transform="matrix(1.25 0 0 -1.25 0 45)"><path d="M0 0a4 4 0 0 0-4-4h-28a4 4 0 0 0-4 4v18a4 4 0 0 0 4 4h28a4 4 0 0 0 4-4V0Z" style="fill:#eee;fill-opacity:1;fill-rule:nonzero;stroke:none" transform="translate(36 9)"/></g><g clip-path="url(#b)" transform="matrix(1.25 0 0 -1.25 0 45)"><path d="M18 5H0v26h18V5Z" style="fill:#ffe000;fill-opacity:1;fill-rule:nonzero;stroke:none"/></g><g clip-path="url(#c)" transform="matrix(1.25 0 0 -1.25 0 45)"><path d="m0 0 .328.61-.672-.305L0 0Z" style="fill:#a3a3a3;fill-opacity:1;fill-rule:nonzero;stroke:none" transform="translate(31.336 21.766)"/><path d="M0 0a.247.247 0 1 1 .494-.002A.247.247 0 0 1 0 0" style="fill:#a3a3a3;fill-opacity:1;fill-rule:nonzero;stroke:none" transform="translate(31.365 22.318)"/><path d="M0 0c-.116-.115-.057-.362.131-.549C.318-.737.564-.796.68-.68c.116.116.057.362-.131.549C.362.057.115.116 0 0" style="fill:#a3a3a3;fill-opacity:1;fill-rule:nonzero;stroke:none" transform="translate(30.79 22.173)"/><path d="M0 0c.379-.359.701.105 1.306.641.552.489 4.187 3.87 4.578 4.214.39.343.028.864-.425.442S.658 1.234.332.937C.006.641-.42.398 0 0" style="fill:#ce9d0a;fill-opacity:1;fill-rule:nonzero;stroke:none" transform="translate(25.08 16.438)"/><path d="m0 0 .437-.488-.218-.188.218-.187.219.187.313-.344v-.343l-.61-.516L0-1.645v.282h-.297v-.266l.156-.016L0-1.801l.016-.36-.54-.437-1.109 1.051L0 0Z" style="fill:#ce9d0a;fill-opacity:1;fill-rule:nonzero;stroke:none" transform="translate(30.867 21.442)"/><path d="M0 0a.488.488 0 1 0 .495.486L.494.479C.508.48.52.488.535.488a.49.49 0 0 0 .977-.002A.488.488 0 0 0 1.03 0a.49.49 0 0 0-.007-.976.49.49 0 0 0-.488.488C.52-.488.508-.48.493-.48l.002-.007A.489.489 0 1 0 0 0m-.954.001a1.49 1.49 0 1 1 2.979 0 1.49 1.49 0 0 1-2.979 0" style="fill:#ce9d0a;fill-opacity:1;fill-rule:nonzero;stroke:none" transform="translate(23.134 15.338)"/><path d="M0 0c-.116-.115-.057-.362.131-.549C.318-.737.564-.796.68-.68c.116.116.057.362-.131.549C.362.057.115.116 0 0" style="fill:#a3a3a3;fill-opacity:1;fill-rule:nonzero;stroke:none" transform="translate(24.642 16.753)"/><path d="M0 0a.255.255 0 1 1 .51 0A.255.255 0 0 1 0 0" style="fill:#a3a3a3;fill-opacity:1;fill-rule:nonzero;stroke:none" transform="translate(22.247 16.565)"/><path d="M0 0a.255.255 0 1 1 .51 0A.255.255 0 0 1 0 0" style="fill:#a3a3a3;fill-opacity:1;fill-rule:nonzero;stroke:none" transform="translate(24.47 14.104)"/><path d="M0 0a.255.255 0 1 1 .51 0A.255.255 0 0 1 0 0" style="fill:#a3a3a3;fill-opacity:1;fill-rule:nonzero;stroke:none" transform="translate(22.18 14.187)"/><path d="M0 0a.864.864 0 0 1 .316.37c.299.652-.072 1.7-.299 2.106-.277.496-.107.821.027.976a.397.397 0 0 1-.131.024c-.109 0-.215-.053-.313-.158-.291-.311-.154-.726.253-1.669C.159.943.278.432 0 0" style="fill:#b5b5b5;fill-opacity:1;fill-rule:nonzero;stroke:none" transform="translate(29.29 18.918)"/><path d="M0 0a.74.74 0 0 0 .633.324c.219 0 .445-.082.635-.226l.28.422c-.124.103-.423.317-.761.317A.753.753 0 0 1 .529.792C.146.656.018.303 0 0" style="fill:#b5b5b5;fill-opacity:1;fill-rule:nonzero;stroke:none" transform="translate(28.73 21.957)"/><path d="m0 0-.328.61.672-.305L0 0Z" style="fill:#ce9d0a;fill-opacity:1;fill-rule:nonzero;stroke:none" transform="translate(22.703 21.766)"/><path d="M0 0a.247.247 0 1 0-.494-.002A.247.247 0 0 0 0 0" style="fill:#ce9d0a;fill-opacity:1;fill-rule:nonzero;stroke:none" transform="translate(22.674 22.318)"/><path d="M0 0c.116-.115.057-.362-.131-.549C-.318-.737-.564-.796-.68-.68c-.116.116-.057.362.131.549C-.362.057-.115.116 0 0" style="fill:#ce9d0a;fill-opacity:1;fill-rule:nonzero;stroke:none" transform="translate(23.249 22.173)"/><path d="M0 0c-.379-.359-.701.105-1.306.641-.552.489-4.187 3.87-4.578 4.214-.39.343-.028.864.425.442S-.658 1.234-.332.937C-.006.641.42.398 0 0" style="fill:#a3a3a3;fill-opacity:1;fill-rule:nonzero;stroke:none" transform="translate(28.959 16.438)"/><path d="m0 0-.437-.488.218-.188-.218-.187-.219.187-.313-.344v-.343l.61-.516.359.234v.282h.297v-.266l-.156-.016L0-1.801l-.016-.36.54-.437 1.109 1.051L0 0Z" style="fill:#a3a3a3;fill-opacity:1;fill-rule:nonzero;stroke:none" transform="translate(23.172 21.442)"/><path d="M0 0a.488.488 0 0 0-.977 0l.002.008c-.014-.001-.027-.009-.042-.009a.488.488 0 1 0-.495.488.488.488 0 1 0 .495.489c.015 0 .028-.008.041-.009l-.001.007a.489.489 0 0 0 .977 0A.488.488 0 0 0-.481.487.488.488 0 0 0 0 0m-1.017 1.977a1.489 1.489 0 1 1 0-2.978 1.489 1.489 0 0 1 0 2.978" style="fill:#a3a3a3;fill-opacity:1;fill-rule:nonzero;stroke:none" transform="translate(31.387 14.85)"/><path d="M0 0c.116-.115.057-.362-.131-.549C-.318-.737-.564-.796-.68-.68c-.116.116-.057.362.131.549C-.362.057-.115.116 0 0" style="fill:#ce9d0a;fill-opacity:1;fill-rule:nonzero;stroke:none" transform="translate(29.398 16.753)"/><path d="M0 0a.255.255 0 1 0-.51 0A.255.255 0 0 0 0 0" style="fill:#ce9d0a;fill-opacity:1;fill-rule:nonzero;stroke:none" transform="translate(31.792 16.565)"/><path d="M0 0a.255.255 0 1 0-.51 0A.255.255 0 0 0 0 0" style="fill:#ce9d0a;fill-opacity:1;fill-rule:nonzero;stroke:none" transform="translate(29.568 14.104)"/><path d="M0 0a.255.255 0 1 0-.51 0A.255.255 0 0 0 0 0" style="fill:#ce9d0a;fill-opacity:1;fill-rule:nonzero;stroke:none" transform="translate(31.86 14.187)"/><path d="M0 0c0-1.467-.639-1.427-1.428-1.427-.788 0-1.426-.04-1.426 1.427s.638 3.052 1.426 3.052C-.639 3.052 0 1.467 0 0" style="fill:#000;fill-opacity:1;fill-rule:nonzero;stroke:none" transform="translate(28.438 22.281)"/><path d="M0 0c-.424 0-.72.013-.923.17-.232.181-.341.549-.341 1.157 0 1.49.657 2.952 1.327 2.952.67 0 1.329-1.462 1.329-2.952C1.392 0 .858 0 .184 0H0Z" style="fill:#fff;fill-opacity:1;fill-rule:nonzero;stroke:none" transform="translate(26.946 20.954)"/><path d="M0 0c-.5.146-.419.625-.746.625S-.992.146-1.492 0c-.499-.145-.746.083-.746.083l.233-.958s.419.354 1.259.354c.84 0 1.259-.354 1.259-.354l.233.958S.499-.145 0 0" style="fill:#ce9d0a;fill-opacity:1;fill-rule:nonzero;stroke:none" transform="translate(27.756 21.959)"/><path d="M0 0c-.555.153-.465.658-.828.658-.363 0-.274-.505-.828-.658-.554-.153-.827.087-.827.087l.257-1.008s.466.372 1.398.372C.104-.549.569-.921.569-.921L.827.087S.554-.153 0 0" style="fill:#ce9d0a;fill-opacity:1;fill-rule:nonzero;stroke:none" transform="translate(27.838 23.226)"/><path d="M0 0c-.467.129-.392.554-.697.554-.306 0-.231-.425-.698-.554-.465-.129-.696.073-.696.073l.218-.848s.392.236 1.176.236C.087-.539.479-.775.479-.775l.217.848S.466-.129 0 0" style="fill:#ce9d0a;fill-opacity:1;fill-rule:nonzero;stroke:none" transform="translate(27.707 24.555)"/><path d="M0 0c0-.148.08-.269.178-.269.097 0 .177.121.177.269 0 .149-.08.269-.177.269C.08.269 0 .149 0 0" style="fill:#ce9d0a;fill-opacity:1;fill-rule:nonzero;stroke:none" transform="translate(26.832 25.502)"/><path d="M0 0c0-.102.201-.186.449-.186S.898-.102.898 0c0 .103-.201.186-.449.186S0 .103 0 0" style="fill:#ce9d0a;fill-opacity:1;fill-rule:nonzero;stroke:none" transform="translate(26.56 25.794)"/><path d="M0 0c0-.103.08-.186.178-.186.097 0 .177.083.177.186S.275.186.178.186A.182.182 0 0 1 0 0" style="fill:#ce9d0a;fill-opacity:1;fill-rule:nonzero;stroke:none" transform="translate(26.832 26.065)"/><path d="M0 0a.864.864 0 0 0-.316.37c-.299.652.072 1.7.298 2.106.278.496.108.821-.026.976a.397.397 0 0 0 .131.024c.109 0 .215-.053.312-.158.292-.311.155-.726-.253-1.669C-.159.943-.278.432 0 0" style="fill:#b5b5b5;fill-opacity:1;fill-rule:nonzero;stroke:none" transform="translate(24.73 18.918)"/><path d="M0 0a.74.74 0 0 1-.633.324c-.219 0-.445-.082-.635-.226l-.28.422c.124.103.423.317.761.317A.753.753 0 0 0-.529.792C-.147.656-.018.303 0 0" style="fill:#b5b5b5;fill-opacity:1;fill-rule:nonzero;stroke:none" transform="translate(25.29 21.957)"/><path d="M0 0c.2-.154.246-.75.246-1.453v-5.484s.307-.079.213-.891c-.027-.233-.484-.188-.563 0-.078.187-.04.791.104.875V-1.5C0-.687-.136-.373-.178-.219-.22-.065-.097.075 0 0" style="fill:#fa0204;fill-opacity:1;fill-rule:nonzero;stroke:none" transform="translate(27.01 19)"/><path d="M0 0c-.196.137-.471.482-.707.812-.313.438-.391.737-.701 1.112-.311.375-1.122 1.152-1.315 1.125-.076-.011-.156-.188-.083-.25.074-.063.302-.313.818-.703.515-.391.593-.828 1.024-1.453.398-.578.74-.971 1.049-1.025C.04-.262.013-.133 0 0" style="fill:#fa0204;fill-opacity:1;fill-rule:nonzero;stroke:none" transform="translate(28.895 15.201)"/><path d="M0 0a19.384 19.384 0 0 1-1.057-1.089c-.307-.36-.698-1.22-1.042-1.61a4.24 4.24 0 0 0-.641-.596 1.48 1.48 0 0 0-.097-.389c.248.083.603.311 1.046.954.614.89.911 1.546 1.208 1.796.297.25.416.325.583.498C.167-.262.184.176 0 0" style="fill:#fa0204;fill-opacity:1;fill-rule:nonzero;stroke:none" transform="translate(27.88 18.45)"/><path d="M0 0v-5.781c-.331-.266-.237-.707-.175-.924.063-.217.603-.216.687-.107.084.108.107.843-.203 1.093v5.36C.309-.219 0 .215 0 0" style="fill:#fa0204;fill-opacity:1;fill-rule:nonzero;stroke:none" transform="translate(26.644 17.719)"/><path d="M0 0c-.297-.207-.552-.564.112-.83s1.543-.625 2.283-.625c.741 0 2.123.502 2.448.727.324.226.464.496-.052.648-.271.08-.312-.125-.171-.172.141-.047.305-.193-.051-.323-.355-.13-1.168-.511-2.23-.511-1.063 0-2.063.453-2.227.511-.164.057-.209.245-.092.323C.136-.174.133.093 0 0" style="fill:#fa0204;fill-opacity:1;fill-rule:nonzero;stroke:none" transform="translate(24.614 15.018)"/><path d="M0 0a.211.211 0 1 0-.423 0A.211.211 0 0 0 0 0" style="fill:#ce9d0a;fill-opacity:1;fill-rule:nonzero;stroke:none" transform="translate(27.376 12.241)"/><path d="M0 0a.211.211 0 1 0-.423 0A.211.211 0 0 0 0 0" style="fill:#ce9d0a;fill-opacity:1;fill-rule:nonzero;stroke:none" transform="translate(27.02 12.1)"/></g></svg>